{
  "track_name": "23 - Water Goddess Mitula",
  "duration_sec": 48.632,
  "sample_rate": 44100,
  "note_count": 879,
  "unique_pitches": 31,
  "pitch_range": 43,
  "avg_note_duration": 0.3219,
  "reconstruction_stats": {
    "notes_reconstructed": 879,
    "keyon_events": 879,
    "keyoff_events": 875,
    "orphan_keyons": 4,
    "unique_pitches": 31,
    "pitch_range": 43,
    "avg_duration_sec": 0.3219
  },
  "metadata": {
    "source": "S\\Shining Force II\\23 - Water Goddess Mitula.vgz"
  },
  "notes": [
    {
      "channel": 0,
      "note": 50,
      "start": 0.0,
      "duration": 2.8142,
      "velocity": 90,
      "chip": "ym2612"
    },
    {
      "channel": 2,
      "note": 77,
      "start": 0.0,
      "duration": 0.0,
      "velocity": 98,
      "chip": "ym2612"
    },
    {
      "channel": 2,
      "note": 69,
      "start": 0.0,
      "duration": 0.0,
      "velocity": 98,
      "chip": "ym2612"
    },
    {
      "channel": 2,
      "note": 73,
      "start": 0.0,
      "duration": 0.0,
      "velocity": 98,
      "chip": "ym2612"
    },
    {
      "channel": 2,
      "note": 77,
      "start": 0.0,
      "duration": 0.0,
      "velocity": 98,
      "chip": "ym2612"
    },
    {
      "channel": 2,
      "note": 78,
      "start": 0.0,
      "duration": 0.0,
      "velocity": 98,
      "chip": "ym2612"
    },
    {
      "channel": 2,
      "note": 69,
      "start": 0.0,
      "duration": 0.0,
      "velocity": 98,
      "chip": "ym2612"
    },
    {
      "channel": 3,
      "note": 73,
      "start": 0.0,
      "duration": 0.0,
      "velocity": 98,
      "chip": "ym2612"
    },
    {
      "channel": 3,
      "note": 78,
      "start": 0.0,
      "duration": 0.0,
      "velocity": 98,
      "chip": "ym2612"
    },
    {
      "channel": 3,
      "note": 77,
      "start": 0.0,
      "duration": 0.0,
      "velocity": 98,
      "chip": "ym2612"
    },
    {
      "channel": 3,
      "note": 69,
      "start": 0.0,
      "duration": 0.0,
      "velocity": 98,
      "chip": "ym2612"
    },
    {
      "channel": 3,
      "note": 73,
      "start": 0.0,
      "duration": 0.0,
      "velocity": 98,
      "chip": "ym2612"
    },
    {
      "channel": 3,
      "note": 77,
      "start": 0.0,
      "duration": 0.0,
      "velocity": 98,
      "chip": "ym2612"
    },
    {
      "channel": 4,
      "note": 69,
      "start": 0.0,
      "duration": 0.0,
      "velocity": 98,
      "chip": "ym2612"
    },
    {
      "channel": 4,
      "note": 73,
      "start": 0.0,
      "duration": 0.0,
      "velocity": 98,
      "chip": "ym2612"
    },
    {
      "channel": 4,
      "note": 78,
      "start": 0.0,
      "duration": 0.0,
      "velocity": 98,
      "chip": "ym2612"
    },
    {
      "channel": 4,
      "note": 77,
      "start": 0.0,
      "duration": 0.0,
      "velocity": 98,
      "chip": "ym2612"
    },
    {
      "channel": 4,
      "note": 69,
      "start": 0.0,
      "duration": 0.0,
      "velocity": 98,
      "chip": "ym2612"
    },
    {
      "channel": 4,
      "note": 73,
      "start": 0.0,
      "duration": 0.0,
      "velocity": 96,
      "chip": "ym2612"
    },
    {
      "channel": 2,
      "note": 80,
      "start": 0.0034,
      "duration": 0.1569,
      "velocity": 98,
      "chip": "ym2612"
    },
    {
      "channel": 2,
      "note": 69,
      "start": 0.1752,
      "duration": 0.1622,
      "velocity": 98,
      "chip": "ym2612"
    },
    {
      "channel": 3,
      "note": 78,
      "start": 0.2227,
      "duration": 0.159,
      "velocity": 98,
      "chip": "ym2612"
    },
    {
      "channel": 1,
      "note": 57,
      "start": 0.3538,
      "duration": 2.8146,
      "velocity": 90,
      "chip": "ym2612"
    },
    {
      "channel": 2,
      "note": 73,
      "start": 0.3543,
      "duration": 0.1602,
      "velocity": 98,
      "chip": "ym2612"
    },
    {
      "channel": 3,
      "note": 80,
      "start": 0.3971,
      "duration": 0.1616,
      "velocity": 98,
      "chip": "ym2612"
    },
    {
      "channel": 4,
      "note": 76,
      "start": 0.4443,
      "duration": 0.159,
      "velocity": 98,
      "chip": "ym2612"
    },
    {
      "channel": 2,
      "note": 80,
      "start": 0.5291,
      "duration": 0.1621,
      "velocity": 98,
      "chip": "ym2612"
    },
    {
      "channel": 3,
      "note": 69,
      "start": 0.5737,
      "duration": 0.162,
      "velocity": 98,
      "chip": "ym2612"
    },
    {
      "channel": 4,
      "note": 80,
      "start": 0.6183,
      "duration": 0.1625,
      "velocity": 98,
      "chip": "ym2612"
    },
    {
      "channel": 2,
      "note": 78,
      "start": 0.7062,
      "duration": 0.162,
      "velocity": 98,
      "chip": "ym2612"
    },
    {
      "channel": 5,
      "note": 66,
      "start": 0.7098,
      "duration": 2.8137,
      "velocity": 90,
      "chip": "ym2612"
    },
    {
      "channel": 3,
      "note": 73,
      "start": 0.7507,
      "duration": 0.162,
      "velocity": 98,
      "chip": "ym2612"
    },
    {
      "channel": 4,
      "note": 69,
      "start": 0.7952,
      "duration": 0.162,
      "velocity": 98,
      "chip": "ym2612"
    },
    {
      "channel": 2,
      "note": 69,
      "start": 0.8832,
      "duration": 0.162,
      "velocity": 98,
      "chip": "ym2612"
    },
    {
      "channel": 3,
      "note": 80,
      "start": 0.9277,
      "duration": 0.162,
      "velocity": 98,
      "chip": "ym2612"
    },
    {
      "channel": 4,
      "note": 73,
      "start": 0.9722,
      "duration": 0.162,
      "velocity": 98,
      "chip": "ym2612"
    },
    {
      "channel": 2,
      "note": 73,
      "start": 1.0601,
      "duration": 0.162,
      "velocity": 98,
      "chip": "ym2612"
    },
    {
      "channel": 3,
      "note": 78,
      "start": 1.1046,
      "duration": 0.162,
      "velocity": 98,
      "chip": "ym2612"
    },
    {
      "channel": 4,
      "note": 80,
      "start": 1.1491,
      "duration": 0.162,
      "velocity": 98,
      "chip": "ym2612"
    },
    {
      "channel": 2,
      "note": 78,
      "start": 1.237,
      "duration": 0.1621,
      "velocity": 98,
      "chip": "ym2612"
    },
    {
      "channel": 3,
      "note": 69,
      "start": 1.2818,
      "duration": 0.1618,
      "velocity": 98,
      "chip": "ym2612"
    },
    {
      "channel": 4,
      "note": 78,
      "start": 1.3261,
      "duration": 0.162,
      "velocity": 98,
      "chip": "ym2612"
    },
    {
      "channel": 2,
      "note": 77,
      "start": 1.4144,
      "duration": 0.1616,
      "velocity": 98,
      "chip": "ym2612"
    },
    {
      "channel": 3,
      "note": 73,
      "start": 1.4585,
      "duration": 0.162,
      "velocity": 98,
      "chip": "ym2612"
    },
    {
      "channel": 4,
      "note": 69,
      "start": 1.5031,
      "duration": 0.1621,
      "velocity": 98,
      "chip": "ym2612"
    },
    {
      "channel": 2,
      "note": 69,
      "start": 1.591,
      "duration": 0.162,
      "velocity": 98,
      "chip": "ym2612"
    },
    {
      "channel": 3,
      "note": 78,
      "start": 1.6355,
      "duration": 0.1624,
      "velocity": 98,
      "chip": "ym2612"
    },
    {
      "channel": 4,
      "note": 73,
      "start": 1.6805,
      "duration": 0.1616,
      "velocity": 98,
      "chip": "ym2612"
    },
    {
      "channel": 2,
      "note": 73,
      "start": 1.7679,
      "duration": 0.162,
      "velocity": 98,
      "chip": "ym2612"
    },
    {
      "channel": 3,
      "note": 77,
      "start": 1.8125,
      "duration": 0.162,
      "velocity": 98,
      "chip": "ym2612"
    },
    {
      "channel": 4,
      "note": 78,
      "start": 1.857,
      "duration": 0.162,
      "velocity": 98,
      "chip": "ym2612"
    },
    {
      "channel": 2,
      "note": 77,
      "start": 1.9449,
      "duration": 0.1622,
      "velocity": 98,
      "chip": "ym2612"
    },
    {
      "channel": 3,
      "note": 69,
      "start": 1.9894,
      "duration": 0.162,
      "velocity": 98,
      "chip": "ym2612"
    },
    {
      "channel": 4,
      "note": 77,
      "start": 2.034,
      "duration": 0.162,
      "velocity": 98,
      "chip": "ym2612"
    },
    {
      "channel": 2,
      "note": 78,
      "start": 2.1218,
      "duration": 0.162,
      "velocity": 98,
      "chip": "ym2612"
    },
    {
      "channel": 3,
      "note": 73,
      "start": 2.1664,
      "duration": 0.162,
      "velocity": 98,
      "chip": "ym2612"
    },
    {
      "channel": 4,
      "note": 69,
      "start": 2.211,
      "duration": 0.162,
      "velocity": 98,
      "chip": "ym2612"
    },
    {
      "channel": 2,
      "note": 69,
      "start": 2.2988,
      "duration": 0.162,
      "velocity": 98,
      "chip": "ym2612"
    },
    {
      "channel": 3,
      "note": 77,
      "start": 2.3434,
      "duration": 0.162,
      "velocity": 98,
      "chip": "ym2612"
    },
    {
      "channel": 4,
      "note": 73,
      "start": 2.3879,
      "duration": 0.162,
      "velocity": 98,
      "chip": "ym2612"
    },
    {
      "channel": 2,
      "note": 73,
      "start": 2.4758,
      "duration": 0.162,
      "velocity": 98,
      "chip": "ym2612"
    },
    {
      "channel": 3,
      "note": 78,
      "start": 2.5204,
      "duration": 0.162,
      "velocity": 98,
      "chip": "ym2612"
    },
    {
      "channel": 4,
      "note": 77,
      "start": 2.5653,
      "duration": 0.1616,
      "velocity": 98,
      "chip": "ym2612"
    },
    {
      "channel": 2,
      "note": 78,
      "start": 2.6527,
      "duration": 0.1621,
      "velocity": 98,
      "chip": "ym2612"
    },
    {
      "channel": 3,
      "note": 69,
      "start": 2.6977,
      "duration": 0.1615,
      "velocity": 98,
      "chip": "ym2612"
    },
    {
      "channel": 4,
      "note": 78,
      "start": 2.7418,
      "duration": 0.162,
      "velocity": 98,
      "chip": "ym2612"
    },
    {
      "channel": 0,
      "note": 50,
      "start": 2.8292,
      "duration": 2.8164,
      "velocity": 90,
      "chip": "ym2612"
    },
    {
      "channel": 2,
      "note": 80,
      "start": 2.8305,
      "duration": 0.1611,
      "velocity": 98,
      "chip": "ym2612"
    },
    {
      "channel": 3,
      "note": 73,
      "start": 2.8742,
      "duration": 0.162,
      "velocity": 98,
      "chip": "ym2612"
    },
    {
      "channel": 4,
      "note": 69,
      "start": 2.9188,
      "duration": 0.1623,
      "velocity": 98,
      "chip": "ym2612"
    },
    {
      "channel": 2,
      "note": 69,
      "start": 3.0066,
      "duration": 0.1621,
      "velocity": 98,
      "chip": "ym2612"
    },
    {
      "channel": 3,
      "note": 78,
      "start": 3.0514,
      "duration": 0.1618,
      "velocity": 98,
      "chip": "ym2612"
    },
    {
      "channel": 4,
      "note": 73,
      "start": 3.0957,
      "duration": 0.162,
      "velocity": 98,
      "chip": "ym2612"
    },
    {
      "channel": 1,
      "note": 57,
      "start": 3.1833,
      "duration": 2.8165,
      "velocity": 90,
      "chip": "ym2612"
    },
    {
      "channel": 2,
      "note": 73,
      "start": 3.1838,
      "duration": 0.1618,
      "velocity": 98,
      "chip": "ym2612"
    },
    {
      "channel": 3,
      "note": 80,
      "start": 3.2282,
      "duration": 0.162,
      "velocity": 98,
      "chip": "ym2612"
    },
    {
      "channel": 4,
      "note": 78,
      "start": 3.2728,
      "duration": 0.1618,
      "velocity": 98,
      "chip": "ym2612"
    },
    {
      "channel": 2,
      "note": 80,
      "start": 3.3606,
      "duration": 0.162,
      "velocity": 98,
      "chip": "ym2612"
    },
    {
      "channel": 3,
      "note": 69,
      "start": 3.4051,
      "duration": 0.162,
      "velocity": 98,
      "chip": "ym2612"
    },
    {
      "channel": 4,
      "note": 80,
      "start": 3.4496,
      "duration": 0.1621,
      "velocity": 98,
      "chip": "ym2612"
    },
    {
      "channel": 2,
      "note": 78,
      "start": 3.5375,
      "duration": 0.162,
      "velocity": 98,
      "chip": "ym2612"
    },
    {
      "channel": 5,
      "note": 66,
      "start": 3.5387,
      "duration": 2.8162,
      "velocity": 90,
      "chip": "ym2612"
    },
    {
      "channel": 3,
      "note": 73,
      "start": 3.5821,
      "duration": 0.162,
      "velocity": 98,
      "chip": "ym2612"
    },
    {
      "channel": 4,
      "note": 69,
      "start": 3.6266,
      "duration": 0.162,
      "velocity": 98,
      "chip": "ym2612"
    },
    {
      "channel": 2,
      "note": 69,
      "start": 3.7147,
      "duration": 0.1618,
      "velocity": 98,
      "chip": "ym2612"
    },
    {
      "channel": 3,
      "note": 80,
      "start": 3.7591,
      "duration": 0.1619,
      "velocity": 98,
      "chip": "ym2612"
    },
    {
      "channel": 4,
      "note": 73,
      "start": 3.8036,
      "duration": 0.162,
      "velocity": 98,
      "chip": "ym2612"
    },
    {
      "channel": 2,
      "note": 73,
      "start": 3.8915,
      "duration": 0.1621,
      "velocity": 98,
      "chip": "ym2612"
    },
    {
      "channel": 3,
      "note": 78,
      "start": 3.936,
      "duration": 0.1621,
      "velocity": 98,
      "chip": "ym2612"
    },
    {
      "channel": 4,
      "note": 80,
      "start": 3.9809,
      "duration": 0.1616,
      "velocity": 98,
      "chip": "ym2612"
    },
    {
      "channel": 2,
      "note": 78,
      "start": 4.0685,
      "duration": 0.1624,
      "velocity": 98,
      "chip": "ym2612"
    },
    {
      "channel": 3,
      "note": 69,
      "start": 4.113,
      "duration": 0.1619,
      "velocity": 98,
      "chip": "ym2612"
    },
    {
      "channel": 4,
      "note": 78,
      "start": 4.1575,
      "duration": 0.162,
      "velocity": 98,
      "chip": "ym2612"
    },
    {
      "channel": 2,
      "note": 77,
      "start": 4.2454,
      "duration": 0.1622,
      "velocity": 98,
      "chip": "ym2612"
    },
    {
      "channel": 3,
      "note": 73,
      "start": 4.29,
      "duration": 0.162,
      "velocity": 98,
      "chip": "ym2612"
    },
    {
      "channel": 4,
      "note": 69,
      "start": 4.3345,
      "duration": 0.162,
      "velocity": 98,
      "chip": "ym2612"
    },
    {
      "channel": 2,
      "note": 69,
      "start": 4.4224,
      "duration": 0.162,
      "velocity": 98,
      "chip": "ym2612"
    },
    {
      "channel": 3,
      "note": 78,
      "start": 4.4669,
      "duration": 0.162,
      "velocity": 98,
      "chip": "ym2612"
    },
    {
      "channel": 4,
      "note": 73,
      "start": 4.5115,
      "duration": 0.162,
      "velocity": 98,
      "chip": "ym2612"
    },
    {
      "channel": 2,
      "note": 73,
      "start": 4.5993,
      "duration": 0.162,
      "velocity": 98,
      "chip": "ym2612"
    },
    {
      "channel": 3,
      "note": 77,
      "start": 4.6439,
      "duration": 0.1619,
      "velocity": 98,
      "chip": "ym2612"
    },
    {
      "channel": 4,
      "note": 78,
      "start": 4.6884,
      "duration": 0.1621,
      "velocity": 98,
      "chip": "ym2612"
    },
    {
      "channel": 2,
      "note": 77,
      "start": 4.7763,
      "duration": 0.1621,
      "velocity": 98,
      "chip": "ym2612"
    },
    {
      "channel": 3,
      "note": 69,
      "start": 4.8209,
      "duration": 0.162,
      "velocity": 98,
      "chip": "ym2612"
    },
    {
      "channel": 4,
      "note": 77,
      "start": 4.8654,
      "duration": 0.162,
      "velocity": 98,
      "chip": "ym2612"
    },
    {
      "channel": 2,
      "note": 78,
      "start": 4.9532,
      "duration": 0.162,
      "velocity": 98,
      "chip": "ym2612"
    },
    {
      "channel": 3,
      "note": 73,
      "start": 4.9983,
      "duration": 0.1615,
      "velocity": 98,
      "chip": "ym2612"
    },
    {
      "channel": 4,
      "note": 69,
      "start": 5.0423,
      "duration": 0.162,
      "velocity": 98,
      "chip": "ym2612"
    },
    {
      "channel": 2,
      "note": 69,
      "start": 5.1307,
      "duration": 0.1617,
      "velocity": 98,
      "chip": "ym2612"
    },
    {
      "channel": 3,
      "note": 77,
      "start": 5.1747,
      "duration": 0.162,
      "velocity": 98,
      "chip": "ym2612"
    },
    {
      "channel": 4,
      "note": 73,
      "start": 5.2193,
      "duration": 0.1625,
      "velocity": 98,
      "chip": "ym2612"
    },
    {
      "channel": 2,
      "note": 73,
      "start": 5.3072,
      "duration": 0.162,
      "velocity": 98,
      "chip": "ym2612"
    },
    {
      "channel": 3,
      "note": 78,
      "start": 5.3517,
      "duration": 0.1624,
      "velocity": 98,
      "chip": "ym2612"
    },
    {
      "channel": 4,
      "note": 77,
      "start": 5.3962,
      "duration": 0.162,
      "velocity": 98,
      "chip": "ym2612"
    },
    {
      "channel": 2,
      "note": 78,
      "start": 5.4841,
      "duration": 0.162,
      "velocity": 98,
      "chip": "ym2612"
    },
    {
      "channel": 3,
      "note": 69,
      "start": 5.5287,
      "duration": 0.162,
      "velocity": 98,
      "chip": "ym2612"
    },
    {
      "channel": 4,
      "note": 78,
      "start": 5.5732,
      "duration": 0.162,
      "velocity": 98,
      "chip": "ym2612"
    },
    {
      "channel": 0,
      "note": 45,
      "start": 5.6606,
      "duration": 2.8165,
      "velocity": 90,
      "chip": "ym2612"
    },
    {
      "channel": 2,
      "note": 80,
      "start": 5.6616,
      "duration": 0.1615,
      "velocity": 98,
      "chip": "ym2612"
    },
    {
      "channel": 3,
      "note": 73,
      "start": 5.7056,
      "duration": 0.162,
      "velocity": 98,
      "chip": "ym2612"
    },
    {
      "channel": 4,
      "note": 69,
      "start": 5.7501,
      "duration": 0.162,
      "velocity": 98,
      "chip": "ym2612"
    },
    {
      "channel": 2,
      "note": 71,
      "start": 5.838,
      "duration": 0.1621,
      "velocity": 98,
      "chip": "ym2612"
    },
    {
      "channel": 3,
      "note": 78,
      "start": 5.8829,
      "duration": 0.1617,
      "velocity": 98,
      "chip": "ym2612"
    },
    {
      "channel": 4,
      "note": 73,
      "start": 5.9271,
      "duration": 0.162,
      "velocity": 98,
      "chip": "ym2612"
    },
    {
      "channel": 1,
      "note": 52,
      "start": 6.0148,
      "duration": 2.8165,
      "velocity": 90,
      "chip": "ym2612"
    },
    {
      "channel": 2,
      "note": 73,
      "start": 6.0153,
      "duration": 0.1617,
      "velocity": 98,
      "chip": "ym2612"
    },
    {
      "channel": 3,
      "note": 80,
      "start": 6.0595,
      "duration": 0.162,
      "velocity": 98,
      "chip": "ym2612"
    },
    {
      "channel": 4,
      "note": 78,
      "start": 6.1043,
      "duration": 0.1617,
      "velocity": 98,
      "chip": "ym2612"
    },
    {
      "channel": 2,
      "note": 80,
      "start": 6.1919,
      "duration": 0.1621,
      "velocity": 98,
      "chip": "ym2612"
    },
    {
      "channel": 3,
      "note": 71,
      "start": 6.2364,
      "duration": 0.1621,
      "velocity": 98,
      "chip": "ym2612"
    },
    {
      "channel": 4,
      "note": 80,
      "start": 6.2814,
      "duration": 0.1616,
      "velocity": 98,
      "chip": "ym2612"
    },
    {
      "channel": 2,
      "note": 78,
      "start": 6.3689,
      "duration": 0.1623,
      "velocity": 98,
      "chip": "ym2612"
    },
    {
      "channel": 5,
      "note": 61,
      "start": 6.3701,
      "duration": 2.8162,
      "velocity": 90,
      "chip": "ym2612"
    },
    {
      "channel": 3,
      "note": 73,
      "start": 6.4139,
      "duration": 0.1616,
      "velocity": 98,
      "chip": "ym2612"
    },
    {
      "channel": 4,
      "note": 71,
      "start": 6.458,
      "duration": 0.162,
      "velocity": 98,
      "chip": "ym2612"
    },
    {
      "channel": 2,
      "note": 71,
      "start": 6.5459,
      "duration": 0.162,
      "velocity": 98,
      "chip": "ym2612"
    },
    {
      "channel": 3,
      "note": 80,
      "start": 6.5905,
      "duration": 0.1619,
      "velocity": 98,
      "chip": "ym2612"
    },
    {
      "channel": 4,
      "note": 73,
      "start": 6.6349,
      "duration": 0.1625,
      "velocity": 98,
      "chip": "ym2612"
    },
    {
      "channel": 2,
      "note": 73,
      "start": 6.7228,
      "duration": 0.1621,
      "velocity": 98,
      "chip": "ym2612"
    },
    {
      "channel": 3,
      "note": 78,
      "start": 6.7674,
      "duration": 0.162,
      "velocity": 98,
      "chip": "ym2612"
    },
    {
      "channel": 4,
      "note": 80,
      "start": 6.8119,
      "duration": 0.162,
      "velocity": 98,
      "chip": "ym2612"
    },
    {
      "channel": 2,
      "note": 78,
      "start": 6.8998,
      "duration": 0.162,
      "velocity": 98,
      "chip": "ym2612"
    },
    {
      "channel": 3,
      "note": 71,
      "start": 6.9444,
      "duration": 0.1619,
      "velocity": 98,
      "chip": "ym2612"
    },
    {
      "channel": 4,
      "note": 78,
      "start": 6.9889,
      "duration": 0.162,
      "velocity": 98,
      "chip": "ym2612"
    },
    {
      "channel": 2,
      "note": 76,
      "start": 7.0768,
      "duration": 0.1621,
      "velocity": 98,
      "chip": "ym2612"
    },
    {
      "channel": 3,
      "note": 73,
      "start": 7.1213,
      "duration": 0.162,
      "velocity": 98,
      "chip": "ym2612"
    },
    {
      "channel": 4,
      "note": 71,
      "start": 7.1659,
      "duration": 0.162,
      "velocity": 98,
      "chip": "ym2612"
    },
    {
      "channel": 2,
      "note": 71,
      "start": 7.2537,
      "duration": 0.1621,
      "velocity": 98,
      "chip": "ym2612"
    },
    {
      "channel": 3,
      "note": 78,
      "start": 7.2984,
      "duration": 0.1618,
      "velocity": 98,
      "chip": "ym2612"
    },
    {
      "channel": 4,
      "note": 73,
      "start": 7.3428,
      "duration": 0.162,
      "velocity": 98,
      "chip": "ym2612"
    },
    {
      "channel": 2,
      "note": 73,
      "start": 7.4311,
      "duration": 0.1616,
      "velocity": 98,
      "chip": "ym2612"
    },
    {
      "channel": 3,
      "note": 76,
      "start": 7.4753,
      "duration": 0.162,
      "velocity": 98,
      "chip": "ym2612"
    },
    {
      "channel": 4,
      "note": 78,
      "start": 7.5198,
      "duration": 0.1622,
      "velocity": 98,
      "chip": "ym2612"
    },
    {
      "channel": 2,
      "note": 76,
      "start": 7.6076,
      "duration": 0.1621,
      "velocity": 98,
      "chip": "ym2612"
    },
    {
      "channel": 3,
      "note": 71,
      "start": 7.6522,
      "duration": 0.1623,
      "velocity": 98,
      "chip": "ym2612"
    },
    {
      "channel": 4,
      "note": 76,
      "start": 7.6972,
      "duration": 0.1615,
      "velocity": 98,
      "chip": "ym2612"
    },
    {
      "channel": 2,
      "note": 78,
      "start": 7.7847,
      "duration": 0.162,
      "velocity": 98,
      "chip": "ym2612"
    },
    {
      "channel": 3,
      "note": 73,
      "start": 7.8292,
      "duration": 0.162,
      "velocity": 98,
      "chip": "ym2612"
    },
    {
      "channel": 4,
      "note": 71,
      "start": 7.8737,
      "duration": 0.162,
      "velocity": 98,
      "chip": "ym2612"
    },
    {
      "channel": 2,
      "note": 71,
      "start": 7.9616,
      "duration": 0.1621,
      "velocity": 98,
      "chip": "ym2612"
    },
    {
      "channel": 3,
      "note": 76,
      "start": 8.0062,
      "duration": 0.162,
      "velocity": 98,
      "chip": "ym2612"
    },
    {
      "channel": 4,
      "note": 73,
      "start": 8.0506,
      "duration": 0.162,
      "velocity": 98,
      "chip": "ym2612"
    },
    {
      "channel": 2,
      "note": 73,
      "start": 8.1385,
      "duration": 0.162,
      "velocity": 98,
      "chip": "ym2612"
    },
    {
      "channel": 3,
      "note": 78,
      "start": 8.1831,
      "duration": 0.162,
      "velocity": 98,
      "chip": "ym2612"
    },
    {
      "channel": 4,
      "note": 76,
      "start": 8.2276,
      "duration": 0.162,
      "velocity": 98,
      "chip": "ym2612"
    },
    {
      "channel": 2,
      "note": 78,
      "start": 8.3155,
      "duration": 0.162,
      "velocity": 98,
      "chip": "ym2612"
    },
    {
      "channel": 3,
      "note": 71,
      "start": 8.3601,
      "duration": 0.1619,
      "velocity": 98,
      "chip": "ym2612"
    },
    {
      "channel": 4,
      "note": 78,
      "start": 8.4046,
      "duration": 0.162,
      "velocity": 98,
      "chip": "ym2612"
    },
    {
      "channel": 0,
      "note": 45,
      "start": 8.4919,
      "duration": 2.8165,
      "velocity": 90,
      "chip": "ym2612"
    },
    {
      "channel": 2,
      "note": 80,
      "start": 8.4928,
      "duration": 0.1616,
      "velocity": 98,
      "chip": "ym2612"
    },
    {
      "channel": 3,
      "note": 73,
      "start": 8.537,
      "duration": 0.1619,
      "velocity": 98,
      "chip": "ym2612"
    },
    {
      "channel": 4,
      "note": 71,
      "start": 8.5819,
      "duration": 0.1617,
      "velocity": 98,
      "chip": "ym2612"
    },
    {
      "channel": 2,
      "note": 71,
      "start": 8.6693,
      "duration": 0.1622,
      "velocity": 98,
      "chip": "ym2612"
    },
    {
      "channel": 3,
      "note": 78,
      "start": 8.7146,
      "duration": 0.1613,
      "velocity": 98,
      "chip": "ym2612"
    },
    {
      "channel": 4,
      "note": 73,
      "start": 8.7585,
      "duration": 0.162,
      "velocity": 98,
      "chip": "ym2612"
    },
    {
      "channel": 1,
      "note": 52,
      "start": 8.8461,
      "duration": 2.8165,
      "velocity": 90,
      "chip": "ym2612"
    },
    {
      "channel": 2,
      "note": 73,
      "start": 8.8469,
      "duration": 0.1615,
      "velocity": 98,
      "chip": "ym2612"
    },
    {
      "channel": 3,
      "note": 80,
      "start": 8.8909,
      "duration": 0.162,
      "velocity": 98,
      "chip": "ym2612"
    },
    {
      "channel": 4,
      "note": 78,
      "start": 8.9356,
      "duration": 0.1622,
      "velocity": 98,
      "chip": "ym2612"
    },
    {
      "channel": 2,
      "note": 80,
      "start": 9.0233,
      "duration": 0.1621,
      "velocity": 98,
      "chip": "ym2612"
    },
    {
      "channel": 3,
      "note": 71,
      "start": 9.0678,
      "duration": 0.162,
      "velocity": 98,
      "chip": "ym2612"
    },
    {
      "channel": 4,
      "note": 80,
      "start": 9.1124,
      "duration": 0.162,
      "velocity": 98,
      "chip": "ym2612"
    },
    {
      "channel": 2,
      "note": 78,
      "start": 9.2003,
      "duration": 0.162,
      "velocity": 98,
      "chip": "ym2612"
    },
    {
      "channel": 5,
      "note": 61,
      "start": 9.2015,
      "duration": 2.8161,
      "velocity": 90,
      "chip": "ym2612"
    },
    {
      "channel": 3,
      "note": 73,
      "start": 9.2449,
      "duration": 0.162,
      "velocity": 98,
      "chip": "ym2612"
    },
    {
      "channel": 4,
      "note": 71,
      "start": 9.2894,
      "duration": 0.162,
      "velocity": 98,
      "chip": "ym2612"
    },
    {
      "channel": 2,
      "note": 71,
      "start": 9.3773,
      "duration": 0.162,
      "velocity": 98,
      "chip": "ym2612"
    },
    {
      "channel": 3,
      "note": 80,
      "start": 9.4219,
      "duration": 0.162,
      "velocity": 98,
      "chip": "ym2612"
    },
    {
      "channel": 4,
      "note": 73,
      "start": 9.4663,
      "duration": 0.162,
      "velocity": 98,
      "chip": "ym2612"
    },
    {
      "channel": 2,
      "note": 73,
      "start": 9.5543,
      "duration": 0.162,
      "velocity": 98,
      "chip": "ym2612"
    },
    {
      "channel": 3,
      "note": 78,
      "start": 9.5988,
      "duration": 0.162,
      "velocity": 98,
      "chip": "ym2612"
    },
    {
      "channel": 4,
      "note": 80,
      "start": 9.6433,
      "duration": 0.162,
      "velocity": 98,
      "chip": "ym2612"
    },
    {
      "channel": 2,
      "note": 78,
      "start": 9.7314,
      "duration": 0.1618,
      "velocity": 98,
      "chip": "ym2612"
    },
    {
      "channel": 3,
      "note": 71,
      "start": 9.7758,
      "duration": 0.162,
      "velocity": 98,
      "chip": "ym2612"
    },
    {
      "channel": 4,
      "note": 78,
      "start": 9.8203,
      "duration": 0.162,
      "velocity": 98,
      "chip": "ym2612"
    },
    {
      "channel": 2,
      "note": 76,
      "start": 9.9081,
      "duration": 0.1621,
      "velocity": 98,
      "chip": "ym2612"
    },
    {
      "channel": 3,
      "note": 73,
      "start": 9.9527,
      "duration": 0.1622,
      "velocity": 98,
      "chip": "ym2612"
    },
    {
      "channel": 4,
      "note": 71,
      "start": 9.9976,
      "duration": 0.1616,
      "velocity": 98,
      "chip": "ym2612"
    },
    {
      "channel": 2,
      "note": 71,
      "start": 10.0851,
      "duration": 0.1626,
      "velocity": 98,
      "chip": "ym2612"
    },
    {
      "channel": 3,
      "note": 78,
      "start": 10.1296,
      "duration": 0.162,
      "velocity": 98,
      "chip": "ym2612"
    },
    {
      "channel": 4,
      "note": 73,
      "start": 10.1742,
      "duration": 0.162,
      "velocity": 98,
      "chip": "ym2612"
    },
    {
      "channel": 2,
      "note": 73,
      "start": 10.2621,
      "duration": 0.162,
      "velocity": 98,
      "chip": "ym2612"
    },
    {
      "channel": 3,
      "note": 76,
      "start": 10.3067,
      "duration": 0.1619,
      "velocity": 98,
      "chip": "ym2612"
    },
    {
      "channel": 4,
      "note": 78,
      "start": 10.3511,
      "duration": 0.162,
      "velocity": 98,
      "chip": "ym2612"
    },
    {
      "channel": 2,
      "note": 76,
      "start": 10.439,
      "duration": 0.1621,
      "velocity": 98,
      "chip": "ym2612"
    },
    {
      "channel": 3,
      "note": 71,
      "start": 10.4836,
      "duration": 0.162,
      "velocity": 98,
      "chip": "ym2612"
    },
    {
      "channel": 4,
      "note": 76,
      "start": 10.5281,
      "duration": 0.162,
      "velocity": 98,
      "chip": "ym2612"
    },
    {
      "channel": 2,
      "note": 78,
      "start": 10.616,
      "duration": 0.162,
      "velocity": 98,
      "chip": "ym2612"
    },
    {
      "channel": 3,
      "note": 73,
      "start": 10.6606,
      "duration": 0.1619,
      "velocity": 98,
      "chip": "ym2612"
    },
    {
      "channel": 4,
      "note": 71,
      "start": 10.7051,
      "duration": 0.162,
      "velocity": 98,
      "chip": "ym2612"
    },
    {
      "channel": 2,
      "note": 71,
      "start": 10.7929,
      "duration": 0.1621,
      "velocity": 98,
      "chip": "ym2612"
    },
    {
      "channel": 3,
      "note": 76,
      "start": 10.8375,
      "duration": 0.162,
      "velocity": 98,
      "chip": "ym2612"
    },
    {
      "channel": 4,
      "note": 73,
      "start": 10.8824,
      "duration": 0.1617,
      "velocity": 98,
      "chip": "ym2612"
    },
    {
      "channel": 2,
      "note": 73,
      "start": 10.9699,
      "duration": 0.162,
      "velocity": 98,
      "chip": "ym2612"
    },
    {
      "channel": 3,
      "note": 78,
      "start": 11.0149,
      "duration": 0.1615,
      "velocity": 98,
      "chip": "ym2612"
    },
    {
      "channel": 4,
      "note": 76,
      "start": 11.059,
      "duration": 0.162,
      "velocity": 98,
      "chip": "ym2612"
    },
    {
      "channel": 2,
      "note": 78,
      "start": 11.1473,
      "duration": 0.1617,
      "velocity": 98,
      "chip": "ym2612"
    },
    {
      "channel": 3,
      "note": 71,
      "start": 11.1915,
      "duration": 0.1619,
      "velocity": 98,
      "chip": "ym2612"
    },
    {
      "channel": 4,
      "note": 78,
      "start": 11.2359,
      "duration": 0.1624,
      "velocity": 98,
      "chip": "ym2612"
    },
    {
      "channel": 0,
      "note": 50,
      "start": 11.3234,
      "duration": 2.8164,
      "velocity": 90,
      "chip": "ym2612"
    },
    {
      "channel": 2,
      "note": 80,
      "start": 11.3244,
      "duration": 0.1615,
      "velocity": 98,
      "chip": "ym2612"
    },
    {
      "channel": 3,
      "note": 73,
      "start": 11.3684,
      "duration": 0.1623,
      "velocity": 98,
      "chip": "ym2612"
    },
    {
      "channel": 4,
      "note": 71,
      "start": 11.4129,
      "duration": 0.162,
      "velocity": 98,
      "chip": "ym2612"
    },
    {
      "channel": 2,
      "note": 69,
      "start": 11.5008,
      "duration": 0.1621,
      "velocity": 98,
      "chip": "ym2612"
    },
    {
      "channel": 3,
      "note": 78,
      "start": 11.5456,
      "duration": 0.1617,
      "velocity": 98,
      "chip": "ym2612"
    },
    {
      "channel": 4,
      "note": 73,
      "start": 11.5898,
      "duration": 0.162,
      "velocity": 98,
      "chip": "ym2612"
    },
    {
      "channel": 1,
      "note": 57,
      "start": 11.6776,
      "duration": 2.8164,
      "velocity": 90,
      "chip": "ym2612"
    },
    {
      "channel": 2,
      "note": 73,
      "start": 11.678,
      "duration": 0.1618,
      "velocity": 98,
      "chip": "ym2612"
    },
    {
      "channel": 3,
      "note": 80,
      "start": 11.7223,
      "duration": 0.1619,
      "velocity": 98,
      "chip": "ym2612"
    },
    {
      "channel": 4,
      "note": 78,
      "start": 11.7671,
      "duration": 0.1618,
      "velocity": 98,
      "chip": "ym2612"
    },
    {
      "channel": 2,
      "note": 80,
      "start": 11.8546,
      "duration": 0.1621,
      "velocity": 98,
      "chip": "ym2612"
    },
    {
      "channel": 3,
      "note": 69,
      "start": 11.8992,
      "duration": 0.162,
      "velocity": 98,
      "chip": "ym2612"
    },
    {
      "channel": 4,
      "note": 80,
      "start": 11.9438,
      "duration": 0.162,
      "velocity": 98,
      "chip": "ym2612"
    },
    {
      "channel": 2,
      "note": 78,
      "start": 12.0317,
      "duration": 0.162,
      "velocity": 98,
      "chip": "ym2612"
    },
    {
      "channel": 5,
      "note": 66,
      "start": 12.0329,
      "duration": 2.8162,
      "velocity": 90,
      "chip": "ym2612"
    },
    {
      "channel": 3,
      "note": 73,
      "start": 12.0763,
      "duration": 0.162,
      "velocity": 98,
      "chip": "ym2612"
    },
    {
      "channel": 4,
      "note": 69,
      "start": 12.1208,
      "duration": 0.162,
      "velocity": 98,
      "chip": "ym2612"
    },
    {
      "channel": 2,
      "note": 69,
      "start": 12.2087,
      "duration": 0.162,
      "velocity": 98,
      "chip": "ym2612"
    },
    {
      "channel": 3,
      "note": 80,
      "start": 12.2532,
      "duration": 0.162,
      "velocity": 98,
      "chip": "ym2612"
    },
    {
      "channel": 4,
      "note": 73,
      "start": 12.2982,
      "duration": 0.1616,
      "velocity": 98,
      "chip": "ym2612"
    },
    {
      "channel": 2,
      "note": 73,
      "start": 12.3856,
      "duration": 0.1627,
      "velocity": 98,
      "chip": "ym2612"
    },
    {
      "channel": 3,
      "note": 78,
      "start": 12.4306,
      "duration": 0.1616,
      "velocity": 98,
      "chip": "ym2612"
    },
    {
      "channel": 4,
      "note": 80,
      "start": 12.4747,
      "duration": 0.162,
      "velocity": 98,
      "chip": "ym2612"
    },
    {
      "channel": 2,
      "note": 78,
      "start": 12.5626,
      "duration": 0.162,
      "velocity": 98,
      "chip": "ym2612"
    },
    {
      "channel": 3,
      "note": 69,
      "start": 12.6072,
      "duration": 0.1619,
      "velocity": 98,
      "chip": "ym2612"
    },
    {
      "channel": 4,
      "note": 78,
      "start": 12.6517,
      "duration": 0.1624,
      "velocity": 98,
      "chip": "ym2612"
    },
    {
      "channel": 2,
      "note": 77,
      "start": 12.7396,
      "duration": 0.162,
      "velocity": 98,
      "chip": "ym2612"
    },
    {
      "channel": 3,
      "note": 73,
      "start": 12.7841,
      "duration": 0.162,
      "velocity": 98,
      "chip": "ym2612"
    },
    {
      "channel": 4,
      "note": 69,
      "start": 12.8286,
      "duration": 0.1621,
      "velocity": 98,
      "chip": "ym2612"
    },
    {
      "channel": 2,
      "note": 69,
      "start": 12.9165,
      "duration": 0.162,
      "velocity": 98,
      "chip": "ym2612"
    },
    {
      "channel": 3,
      "note": 78,
      "start": 12.9611,
      "duration": 0.162,
      "velocity": 98,
      "chip": "ym2612"
    },
    {
      "channel": 4,
      "note": 73,
      "start": 13.0055,
      "duration": 0.162,
      "velocity": 98,
      "chip": "ym2612"
    },
    {
      "channel": 2,
      "note": 73,
      "start": 13.0934,
      "duration": 0.162,
      "velocity": 98,
      "chip": "ym2612"
    },
    {
      "channel": 3,
      "note": 77,
      "start": 13.138,
      "duration": 0.162,
      "velocity": 98,
      "chip": "ym2612"
    },
    {
      "channel": 4,
      "note": 78,
      "start": 13.1825,
      "duration": 0.1621,
      "velocity": 98,
      "chip": "ym2612"
    },
    {
      "channel": 2,
      "note": 77,
      "start": 13.2704,
      "duration": 0.1621,
      "velocity": 98,
      "chip": "ym2612"
    },
    {
      "channel": 3,
      "note": 69,
      "start": 13.3151,
      "duration": 0.1619,
      "velocity": 98,
      "chip": "ym2612"
    },
    {
      "channel": 4,
      "note": 77,
      "start": 13.3595,
      "duration": 0.162,
      "velocity": 98,
      "chip": "ym2612"
    },
    {
      "channel": 2,
      "note": 78,
      "start": 13.4478,
      "duration": 0.1616,
      "velocity": 98,
      "chip": "ym2612"
    },
    {
      "channel": 3,
      "note": 73,
      "start": 13.492,
      "duration": 0.162,
      "velocity": 98,
      "chip": "ym2612"
    },
    {
      "channel": 4,
      "note": 69,
      "start": 13.5364,
      "duration": 0.162,
      "velocity": 98,
      "chip": "ym2612"
    },
    {
      "channel": 2,
      "note": 69,
      "start": 13.6244,
      "duration": 0.162,
      "velocity": 98,
      "chip": "ym2612"
    },
    {
      "channel": 3,
      "note": 77,
      "start": 13.6689,
      "duration": 0.1623,
      "velocity": 98,
      "chip": "ym2612"
    },
    {
      "channel": 4,
      "note": 73,
      "start": 13.7138,
      "duration": 0.1616,
      "velocity": 98,
      "chip": "ym2612"
    },
    {
      "channel": 2,
      "note": 73,
      "start": 13.8013,
      "duration": 0.1623,
      "velocity": 98,
      "chip": "ym2612"
    },
    {
      "channel": 3,
      "note": 78,
      "start": 13.8459,
      "duration": 0.162,
      "velocity": 98,
      "chip": "ym2612"
    },
    {
      "channel": 4,
      "note": 77,
      "start": 13.8904,
      "duration": 0.162,
      "velocity": 98,
      "chip": "ym2612"
    },
    {
      "channel": 2,
      "note": 78,
      "start": 13.9783,
      "duration": 0.162,
      "velocity": 98,
      "chip": "ym2612"
    },
    {
      "channel": 3,
      "note": 69,
      "start": 14.0228,
      "duration": 0.1619,
      "velocity": 98,
      "chip": "ym2612"
    },
    {
      "channel": 4,
      "note": 78,
      "start": 14.0673,
      "duration": 0.162,
      "velocity": 98,
      "chip": "ym2612"
    },
    {
      "channel": 0,
      "note": 50,
      "start": 14.1547,
      "duration": 2.8164,
      "velocity": 90,
      "chip": "ym2612"
    },
    {
      "channel": 2,
      "note": 80,
      "start": 14.1556,
      "duration": 0.1616,
      "velocity": 98,
      "chip": "ym2612"
    },
    {
      "channel": 3,
      "note": 73,
      "start": 14.1998,
      "duration": 0.162,
      "velocity": 98,
      "chip": "ym2612"
    },
    {
      "channel": 4,
      "note": 69,
      "start": 14.2443,
      "duration": 0.162,
      "velocity": 98,
      "chip": "ym2612"
    },
    {
      "channel": 2,
      "note": 69,
      "start": 14.3322,
      "duration": 0.1621,
      "velocity": 98,
      "chip": "ym2612"
    },
    {
      "channel": 3,
      "note": 78,
      "start": 14.3769,
      "duration": 0.1618,
      "velocity": 98,
      "chip": "ym2612"
    },
    {
      "channel": 4,
      "note": 73,
      "start": 14.4212,
      "duration": 0.162,
      "velocity": 98,
      "chip": "ym2612"
    },
    {
      "channel": 1,
      "note": 57,
      "start": 14.5089,
      "duration": 2.8164,
      "velocity": 90,
      "chip": "ym2612"
    },
    {
      "channel": 2,
      "note": 73,
      "start": 14.5093,
      "duration": 0.1618,
      "velocity": 98,
      "chip": "ym2612"
    },
    {
      "channel": 3,
      "note": 80,
      "start": 14.5537,
      "duration": 0.162,
      "velocity": 98,
      "chip": "ym2612"
    },
    {
      "channel": 4,
      "note": 78,
      "start": 14.5987,
      "duration": 0.1615,
      "velocity": 98,
      "chip": "ym2612"
    },
    {
      "channel": 2,
      "note": 80,
      "start": 14.6861,
      "duration": 0.1621,
      "velocity": 98,
      "chip": "ym2612"
    },
    {
      "channel": 3,
      "note": 69,
      "start": 14.731,
      "duration": 0.1616,
      "velocity": 98,
      "chip": "ym2612"
    },
    {
      "channel": 4,
      "note": 80,
      "start": 14.7751,
      "duration": 0.1621,
      "velocity": 98,
      "chip": "ym2612"
    },
    {
      "channel": 2,
      "note": 78,
      "start": 14.8631,
      "duration": 0.162,
      "velocity": 98,
      "chip": "ym2612"
    },
    {
      "channel": 5,
      "note": 66,
      "start": 14.8647,
      "duration": 2.8161,
      "velocity": 90,
      "chip": "ym2612"
    },
    {
      "channel": 3,
      "note": 73,
      "start": 14.9076,
      "duration": 0.162,
      "velocity": 98,
      "chip": "ym2612"
    },
    {
      "channel": 4,
      "note": 69,
      "start": 14.9521,
      "duration": 0.1624,
      "velocity": 98,
      "chip": "ym2612"
    },
    {
      "channel": 2,
      "note": 69,
      "start": 15.0401,
      "duration": 0.162,
      "velocity": 98,
      "chip": "ym2612"
    },
    {
      "channel": 3,
      "note": 80,
      "start": 15.0846,
      "duration": 0.162,
      "velocity": 98,
      "chip": "ym2612"
    },
    {
      "channel": 4,
      "note": 73,
      "start": 15.1291,
      "duration": 0.162,
      "velocity": 98,
      "chip": "ym2612"
    },
    {
      "channel": 2,
      "note": 73,
      "start": 15.217,
      "duration": 0.1621,
      "velocity": 98,
      "chip": "ym2612"
    },
    {
      "channel": 3,
      "note": 78,
      "start": 15.2616,
      "duration": 0.162,
      "velocity": 98,
      "chip": "ym2612"
    },
    {
      "channel": 4,
      "note": 80,
      "start": 15.3061,
      "duration": 0.162,
      "velocity": 98,
      "chip": "ym2612"
    },
    {
      "channel": 2,
      "note": 78,
      "start": 15.3939,
      "duration": 0.162,
      "velocity": 98,
      "chip": "ym2612"
    },
    {
      "channel": 3,
      "note": 69,
      "start": 15.4385,
      "duration": 0.1619,
      "velocity": 98,
      "chip": "ym2612"
    },
    {
      "channel": 4,
      "note": 78,
      "start": 15.483,
      "duration": 0.162,
      "velocity": 98,
      "chip": "ym2612"
    },
    {
      "channel": 2,
      "note": 77,
      "start": 15.5709,
      "duration": 0.1621,
      "velocity": 98,
      "chip": "ym2612"
    },
    {
      "channel": 3,
      "note": 73,
      "start": 15.6155,
      "duration": 0.1619,
      "velocity": 98,
      "chip": "ym2612"
    },
    {
      "channel": 4,
      "note": 69,
      "start": 15.66,
      "duration": 0.162,
      "velocity": 98,
      "chip": "ym2612"
    },
    {
      "channel": 2,
      "note": 69,
      "start": 15.748,
      "duration": 0.1619,
      "velocity": 98,
      "chip": "ym2612"
    },
    {
      "channel": 3,
      "note": 78,
      "start": 15.7924,
      "duration": 0.162,
      "velocity": 98,
      "chip": "ym2612"
    },
    {
      "channel": 4,
      "note": 73,
      "start": 15.837,
      "duration": 0.162,
      "velocity": 98,
      "chip": "ym2612"
    },
    {
      "channel": 2,
      "note": 73,
      "start": 15.9249,
      "duration": 0.162,
      "velocity": 98,
      "chip": "ym2612"
    },
    {
      "channel": 3,
      "note": 77,
      "start": 15.9695,
      "duration": 0.162,
      "velocity": 98,
      "chip": "ym2612"
    },
    {
      "channel": 4,
      "note": 78,
      "start": 16.0143,
      "duration": 0.1617,
      "velocity": 98,
      "chip": "ym2612"
    },
    {
      "channel": 2,
      "note": 77,
      "start": 16.1018,
      "duration": 0.1624,
      "velocity": 98,
      "chip": "ym2612"
    },
    {
      "channel": 3,
      "note": 69,
      "start": 16.1464,
      "duration": 0.162,
      "velocity": 98,
      "chip": "ym2612"
    },
    {
      "channel": 4,
      "note": 77,
      "start": 16.1908,
      "duration": 0.162,
      "velocity": 98,
      "chip": "ym2612"
    },
    {
      "channel": 2,
      "note": 78,
      "start": 16.2788,
      "duration": 0.162,
      "velocity": 98,
      "chip": "ym2612"
    },
    {
      "channel": 3,
      "note": 73,
      "start": 16.3234,
      "duration": 0.162,
      "velocity": 98,
      "chip": "ym2612"
    },
    {
      "channel": 4,
      "note": 69,
      "start": 16.3679,
      "duration": 0.162,
      "velocity": 98,
      "chip": "ym2612"
    },
    {
      "channel": 2,
      "note": 69,
      "start": 16.4557,
      "duration": 0.1621,
      "velocity": 98,
      "chip": "ym2612"
    },
    {
      "channel": 3,
      "note": 77,
      "start": 16.5003,
      "duration": 0.162,
      "velocity": 98,
      "chip": "ym2612"
    },
    {
      "channel": 4,
      "note": 73,
      "start": 16.5448,
      "duration": 0.162,
      "velocity": 98,
      "chip": "ym2612"
    },
    {
      "channel": 2,
      "note": 73,
      "start": 16.6327,
      "duration": 0.162,
      "velocity": 98,
      "chip": "ym2612"
    },
    {
      "channel": 3,
      "note": 78,
      "start": 16.6772,
      "duration": 0.162,
      "velocity": 98,
      "chip": "ym2612"
    },
    {
      "channel": 4,
      "note": 77,
      "start": 16.7217,
      "duration": 0.162,
      "velocity": 98,
      "chip": "ym2612"
    },
    {
      "channel": 2,
      "note": 78,
      "start": 16.8097,
      "duration": 0.162,
      "velocity": 98,
      "chip": "ym2612"
    },
    {
      "channel": 3,
      "note": 69,
      "start": 16.8543,
      "duration": 0.1619,
      "velocity": 98,
      "chip": "ym2612"
    },
    {
      "channel": 4,
      "note": 78,
      "start": 16.8987,
      "duration": 0.162,
      "velocity": 98,
      "chip": "ym2612"
    },
    {
      "channel": 0,
      "note": 49,
      "start": 16.9861,
      "duration": 2.8165,
      "velocity": 90,
      "chip": "ym2612"
    },
    {
      "channel": 2,
      "note": 80,
      "start": 16.987,
      "duration": 0.1616,
      "velocity": 98,
      "chip": "ym2612"
    },
    {
      "channel": 3,
      "note": 73,
      "start": 17.0315,
      "duration": 0.1615,
      "velocity": 98,
      "chip": "ym2612"
    },
    {
      "channel": 4,
      "note": 69,
      "start": 17.0756,
      "duration": 0.162,
      "velocity": 98,
      "chip": "ym2612"
    },
    {
      "channel": 2,
      "note": 71,
      "start": 17.164,
      "duration": 0.1617,
      "velocity": 98,
      "chip": "ym2612"
    },
    {
      "channel": 3,
      "note": 78,
      "start": 17.2083,
      "duration": 0.1618,
      "velocity": 98,
      "chip": "ym2612"
    },
    {
      "channel": 4,
      "note": 73,
      "start": 17.2526,
      "duration": 0.1624,
      "velocity": 98,
      "chip": "ym2612"
    },
    {
      "channel": 1,
      "note": 56,
      "start": 17.3403,
      "duration": 2.8164,
      "velocity": 90,
      "chip": "ym2612"
    },
    {
      "channel": 2,
      "note": 73,
      "start": 17.3408,
      "duration": 0.1617,
      "velocity": 98,
      "chip": "ym2612"
    },
    {
      "channel": 3,
      "note": 80,
      "start": 17.3851,
      "duration": 0.1628,
      "velocity": 98,
      "chip": "ym2612"
    },
    {
      "channel": 4,
      "note": 78,
      "start": 17.4297,
      "duration": 0.1618,
      "velocity": 98,
      "chip": "ym2612"
    },
    {
      "channel": 2,
      "note": 80,
      "start": 17.5174,
      "duration": 0.1621,
      "velocity": 98,
      "chip": "ym2612"
    },
    {
      "channel": 3,
      "note": 71,
      "start": 17.562,
      "duration": 0.162,
      "velocity": 98,
      "chip": "ym2612"
    },
    {
      "channel": 4,
      "note": 80,
      "start": 17.6066,
      "duration": 0.162,
      "velocity": 98,
      "chip": "ym2612"
    },
    {
      "channel": 2,
      "note": 78,
      "start": 17.6945,
      "duration": 0.162,
      "velocity": 98,
      "chip": "ym2612"
    },
    {
      "channel": 5,
      "note": 64,
      "start": 17.6957,
      "duration": 2.8161,
      "velocity": 90,
      "chip": "ym2612"
    },
    {
      "channel": 3,
      "note": 73,
      "start": 17.739,
      "duration": 0.162,
      "velocity": 98,
      "chip": "ym2612"
    },
    {
      "channel": 4,
      "note": 71,
      "start": 17.7835,
      "duration": 0.162,
      "velocity": 98,
      "chip": "ym2612"
    },
    {
      "channel": 2,
      "note": 71,
      "start": 17.8714,
      "duration": 0.162,
      "velocity": 98,
      "chip": "ym2612"
    },
    {
      "channel": 3,
      "note": 80,
      "start": 17.916,
      "duration": 0.162,
      "velocity": 98,
      "chip": "ym2612"
    },
    {
      "channel": 4,
      "note": 73,
      "start": 17.9605,
      "duration": 0.162,
      "velocity": 98,
      "chip": "ym2612"
    },
    {
      "channel": 2,
      "note": 73,
      "start": 18.0484,
      "duration": 0.162,
      "velocity": 98,
      "chip": "ym2612"
    },
    {
      "channel": 3,
      "note": 78,
      "start": 18.0929,
      "duration": 0.162,
      "velocity": 98,
      "chip": "ym2612"
    },
    {
      "channel": 4,
      "note": 80,
      "start": 18.1375,
      "duration": 0.162,
      "velocity": 98,
      "chip": "ym2612"
    },
    {
      "channel": 2,
      "note": 78,
      "start": 18.2253,
      "duration": 0.162,
      "velocity": 98,
      "chip": "ym2612"
    },
    {
      "channel": 3,
      "note": 71,
      "start": 18.2699,
      "duration": 0.162,
      "velocity": 98,
      "chip": "ym2612"
    },
    {
      "channel": 4,
      "note": 78,
      "start": 18.3149,
      "duration": 0.1615,
      "velocity": 98,
      "chip": "ym2612"
    },
    {
      "channel": 2,
      "note": 76,
      "start": 18.4023,
      "duration": 0.1623,
      "velocity": 98,
      "chip": "ym2612"
    },
    {
      "channel": 3,
      "note": 73,
      "start": 18.4473,
      "duration": 0.1616,
      "velocity": 98,
      "chip": "ym2612"
    },
    {
      "channel": 4,
      "note": 71,
      "start": 18.4913,
      "duration": 0.162,
      "velocity": 98,
      "chip": "ym2612"
    },
    {
      "channel": 2,
      "note": 71,
      "start": 18.5793,
      "duration": 0.162,
      "velocity": 98,
      "chip": "ym2612"
    },
    {
      "channel": 3,
      "note": 78,
      "start": 18.6238,
      "duration": 0.162,
      "velocity": 98,
      "chip": "ym2612"
    },
    {
      "channel": 4,
      "note": 73,
      "start": 18.6683,
      "duration": 0.1624,
      "velocity": 98,
      "chip": "ym2612"
    },
    {
      "channel": 2,
      "note": 73,
      "start": 18.7562,
      "duration": 0.162,
      "velocity": 98,
      "chip": "ym2612"
    },
    {
      "channel": 3,
      "note": 76,
      "start": 18.8008,
      "duration": 0.162,
      "velocity": 98,
      "chip": "ym2612"
    },
    {
      "channel": 4,
      "note": 78,
      "start": 18.8453,
      "duration": 0.162,
      "velocity": 98,
      "chip": "ym2612"
    },
    {
      "channel": 2,
      "note": 76,
      "start": 18.9332,
      "duration": 0.1621,
      "velocity": 98,
      "chip": "ym2612"
    },
    {
      "channel": 3,
      "note": 71,
      "start": 18.9777,
      "duration": 0.162,
      "velocity": 98,
      "chip": "ym2612"
    },
    {
      "channel": 4,
      "note": 76,
      "start": 19.0223,
      "duration": 0.162,
      "velocity": 98,
      "chip": "ym2612"
    },
    {
      "channel": 2,
      "note": 78,
      "start": 19.1102,
      "duration": 0.162,
      "velocity": 98,
      "chip": "ym2612"
    },
    {
      "channel": 3,
      "note": 73,
      "start": 19.1547,
      "duration": 0.162,
      "velocity": 98,
      "chip": "ym2612"
    },
    {
      "channel": 4,
      "note": 71,
      "start": 19.1992,
      "duration": 0.162,
      "velocity": 98,
      "chip": "ym2612"
    },
    {
      "channel": 2,
      "note": 71,
      "start": 19.2871,
      "duration": 0.1621,
      "velocity": 98,
      "chip": "ym2612"
    },
    {
      "channel": 3,
      "note": 76,
      "start": 19.3317,
      "duration": 0.1619,
      "velocity": 98,
      "chip": "ym2612"
    },
    {
      "channel": 4,
      "note": 73,
      "start": 19.3762,
      "duration": 0.162,
      "velocity": 98,
      "chip": "ym2612"
    },
    {
      "channel": 2,
      "note": 73,
      "start": 19.4645,
      "duration": 0.1616,
      "velocity": 98,
      "chip": "ym2612"
    },
    {
      "channel": 3,
      "note": 78,
      "start": 19.5087,
      "duration": 0.162,
      "velocity": 98,
      "chip": "ym2612"
    },
    {
      "channel": 4,
      "note": 76,
      "start": 19.5531,
      "duration": 0.162,
      "velocity": 98,
      "chip": "ym2612"
    },
    {
      "channel": 2,
      "note": 78,
      "start": 19.641,
      "duration": 0.1621,
      "velocity": 98,
      "chip": "ym2612"
    },
    {
      "channel": 3,
      "note": 71,
      "start": 19.6856,
      "duration": 0.1623,
      "velocity": 98,
      "chip": "ym2612"
    },
    {
      "channel": 4,
      "note": 78,
      "start": 19.7305,
      "duration": 0.1616,
      "velocity": 98,
      "chip": "ym2612"
    },
    {
      "channel": 0,
      "note": 49,
      "start": 19.8175,
      "duration": 2.1086,
      "velocity": 90,
      "chip": "ym2612"
    },
    {
      "channel": 2,
      "note": 80,
      "start": 19.8182,
      "duration": 0.162,
      "velocity": 98,
      "chip": "ym2612"
    },
    {
      "channel": 3,
      "note": 73,
      "start": 19.8625,
      "duration": 0.162,
      "velocity": 98,
      "chip": "ym2612"
    },
    {
      "channel": 4,
      "note": 71,
      "start": 19.9071,
      "duration": 0.1619,
      "velocity": 98,
      "chip": "ym2612"
    },
    {
      "channel": 2,
      "note": 71,
      "start": 19.9949,
      "duration": 0.1621,
      "velocity": 98,
      "chip": "ym2612"
    },
    {
      "channel": 3,
      "note": 78,
      "start": 20.0395,
      "duration": 0.1619,
      "velocity": 98,
      "chip": "ym2612"
    },
    {
      "channel": 4,
      "note": 73,
      "start": 20.084,
      "duration": 0.162,
      "velocity": 98,
      "chip": "ym2612"
    },
    {
      "channel": 1,
      "note": 56,
      "start": 20.1716,
      "duration": 2.8165,
      "velocity": 90,
      "chip": "ym2612"
    },
    {
      "channel": 2,
      "note": 73,
      "start": 20.1721,
      "duration": 0.1618,
      "velocity": 98,
      "chip": "ym2612"
    },
    {
      "channel": 3,
      "note": 80,
      "start": 20.2164,
      "duration": 0.162,
      "velocity": 98,
      "chip": "ym2612"
    },
    {
      "channel": 4,
      "note": 78,
      "start": 20.261,
      "duration": 0.162,
      "velocity": 98,
      "chip": "ym2612"
    },
    {
      "channel": 2,
      "note": 80,
      "start": 20.3488,
      "duration": 0.1621,
      "velocity": 98,
      "chip": "ym2612"
    },
    {
      "channel": 3,
      "note": 71,
      "start": 20.3934,
      "duration": 0.162,
      "velocity": 98,
      "chip": "ym2612"
    },
    {
      "channel": 4,
      "note": 80,
      "start": 20.4379,
      "duration": 0.1621,
      "velocity": 98,
      "chip": "ym2612"
    },
    {
      "channel": 2,
      "note": 78,
      "start": 20.5258,
      "duration": 0.162,
      "velocity": 98,
      "chip": "ym2612"
    },
    {
      "channel": 5,
      "note": 64,
      "start": 20.527,
      "duration": 2.8161,
      "velocity": 90,
      "chip": "ym2612"
    },
    {
      "channel": 3,
      "note": 73,
      "start": 20.5704,
      "duration": 0.162,
      "velocity": 98,
      "chip": "ym2612"
    },
    {
      "channel": 4,
      "note": 71,
      "start": 20.6153,
      "duration": 0.1616,
      "velocity": 98,
      "chip": "ym2612"
    },
    {
      "channel": 2,
      "note": 71,
      "start": 20.7028,
      "duration": 0.162,
      "velocity": 98,
      "chip": "ym2612"
    },
    {
      "channel": 3,
      "note": 80,
      "start": 20.7478,
      "duration": 0.1615,
      "velocity": 98,
      "chip": "ym2612"
    },
    {
      "channel": 4,
      "note": 73,
      "start": 20.7919,
      "duration": 0.162,
      "velocity": 98,
      "chip": "ym2612"
    },
    {
      "channel": 2,
      "note": 73,
      "start": 20.8798,
      "duration": 0.162,
      "velocity": 98,
      "chip": "ym2612"
    },
    {
      "channel": 3,
      "note": 78,
      "start": 20.9244,
      "duration": 0.1619,
      "velocity": 98,
      "chip": "ym2612"
    },
    {
      "channel": 4,
      "note": 80,
      "start": 20.9688,
      "duration": 0.1624,
      "velocity": 98,
      "chip": "ym2612"
    },
    {
      "channel": 2,
      "note": 78,
      "start": 21.0567,
      "duration": 0.162,
      "velocity": 98,
      "chip": "ym2612"
    },
    {
      "channel": 3,
      "note": 71,
      "start": 21.1013,
      "duration": 0.1619,
      "velocity": 98,
      "chip": "ym2612"
    },
    {
      "channel": 4,
      "note": 78,
      "start": 21.1458,
      "duration": 0.0735,
      "velocity": 98,
      "chip": "ym2612"
    },
    {
      "channel": 2,
      "note": 80,
      "start": 21.2337,
      "duration": 0.1621,
      "velocity": 98,
      "chip": "ym2612"
    },
    {
      "channel": 4,
      "note": 71,
      "start": 21.2371,
      "duration": 0.3361,
      "velocity": 98,
      "chip": "ym2612"
    },
    {
      "channel": 3,
      "note": 73,
      "start": 21.2783,
      "duration": 0.162,
      "velocity": 98,
      "chip": "ym2612"
    },
    {
      "channel": 2,
      "note": 71,
      "start": 21.4106,
      "duration": 0.162,
      "velocity": 98,
      "chip": "ym2612"
    },
    {
      "channel": 3,
      "note": 78,
      "start": 21.4552,
      "duration": 0.162,
      "velocity": 98,
      "chip": "ym2612"
    },
    {
      "channel": 2,
      "note": 81,
      "start": 21.5876,
      "duration": 0.162,
      "velocity": 98,
      "chip": "ym2612"
    },
    {
      "channel": 4,
      "note": 76,
      "start": 21.5885,
      "duration": 0.3388,
      "velocity": 98,
      "chip": "ym2612"
    },
    {
      "channel": 3,
      "note": 80,
      "start": 21.6322,
      "duration": 0.1619,
      "velocity": 98,
      "chip": "ym2612"
    },
    {
      "channel": 2,
      "note": 71,
      "start": 21.7647,
      "duration": 0.162,
      "velocity": 98,
      "chip": "ym2612"
    },
    {
      "channel": 3,
      "note": 71,
      "start": 21.8091,
      "duration": 0.162,
      "velocity": 98,
      "chip": "ym2612"
    },
    {
      "channel": 0,
      "note": 49,
      "start": 21.941,
      "duration": 0.6929,
      "velocity": 90,
      "chip": "ym2612"
    },
    {
      "channel": 2,
      "note": 83,
      "start": 21.9418,
      "duration": 0.1617,
      "velocity": 98,
      "chip": "ym2612"
    },
    {
      "channel": 4,
      "note": 78,
      "start": 21.9426,
      "duration": 0.3389,
      "velocity": 98,
      "chip": "ym2612"
    },
    {
      "channel": 3,
      "note": 81,
      "start": 21.9861,
      "duration": 0.1621,
      "velocity": 98,
      "chip": "ym2612"
    },
    {
      "channel": 2,
      "note": 71,
      "start": 22.1185,
      "duration": 0.1625,
      "velocity": 98,
      "chip": "ym2612"
    },
    {
      "channel": 3,
      "note": 71,
      "start": 22.163,
      "duration": 0.162,
      "velocity": 98,
      "chip": "ym2612"
    },
    {
      "channel": 2,
      "note": 85,
      "start": 22.2955,
      "duration": 0.162,
      "velocity": 98,
      "chip": "ym2612"
    },
    {
      "channel": 4,
      "note": 80,
      "start": 22.2963,
      "duration": 0.3388,
      "velocity": 98,
      "chip": "ym2612"
    },
    {
      "channel": 3,
      "note": 83,
      "start": 22.34,
      "duration": 0.162,
      "velocity": 98,
      "chip": "ym2612"
    },
    {
      "channel": 2,
      "note": 71,
      "start": 22.4724,
      "duration": 0.1621,
      "velocity": 98,
      "chip": "ym2612"
    },
    {
      "channel": 3,
      "note": 71,
      "start": 22.517,
      "duration": 0.1619,
      "velocity": 98,
      "chip": "ym2612"
    },
    {
      "channel": 0,
      "note": 47,
      "start": 22.6488,
      "duration": 2.4625,
      "velocity": 90,
      "chip": "ym2612"
    },
    {
      "channel": 2,
      "note": 85,
      "start": 22.6496,
      "duration": 0.1617,
      "velocity": 98,
      "chip": "ym2612"
    },
    {
      "channel": 4,
      "note": 76,
      "start": 22.6505,
      "duration": 0.4268,
      "velocity": 98,
      "chip": "ym2612"
    },
    {
      "channel": 3,
      "note": 85,
      "start": 22.6939,
      "duration": 0.162,
      "velocity": 98,
      "chip": "ym2612"
    },
    {
      "channel": 2,
      "note": 74,
      "start": 22.8263,
      "duration": 0.1621,
      "velocity": 98,
      "chip": "ym2612"
    },
    {
      "channel": 3,
      "note": 71,
      "start": 22.8709,
      "duration": 0.162,
      "velocity": 98,
      "chip": "ym2612"
    },
    {
      "channel": 1,
      "note": 54,
      "start": 23.0031,
      "duration": 2.8164,
      "velocity": 90,
      "chip": "ym2612"
    },
    {
      "channel": 2,
      "note": 78,
      "start": 23.0036,
      "duration": 0.1617,
      "velocity": 98,
      "chip": "ym2612"
    },
    {
      "channel": 3,
      "note": 85,
      "start": 23.0482,
      "duration": 0.1616,
      "velocity": 98,
      "chip": "ym2612"
    },
    {
      "channel": 4,
      "note": 81,
      "start": 23.095,
      "duration": 0.1594,
      "velocity": 98,
      "chip": "ym2612"
    },
    {
      "channel": 2,
      "note": 85,
      "start": 23.1807,
      "duration": 0.1616,
      "velocity": 98,
      "chip": "ym2612"
    },
    {
      "channel": 3,
      "note": 74,
      "start": 23.2247,
      "duration": 0.162,
      "velocity": 98,
      "chip": "ym2612"
    },
    {
      "channel": 4,
      "note": 85,
      "start": 23.2693,
      "duration": 0.1625,
      "velocity": 98,
      "chip": "ym2612"
    },
    {
      "channel": 2,
      "note": 83,
      "start": 23.3572,
      "duration": 0.162,
      "velocity": 98,
      "chip": "ym2612"
    },
    {
      "channel": 5,
      "note": 62,
      "start": 23.3584,
      "duration": 2.8162,
      "velocity": 90,
      "chip": "ym2612"
    },
    {
      "channel": 3,
      "note": 78,
      "start": 23.4018,
      "duration": 0.1623,
      "velocity": 98,
      "chip": "ym2612"
    },
    {
      "channel": 4,
      "note": 74,
      "start": 23.4462,
      "duration": 0.162,
      "velocity": 98,
      "chip": "ym2612"
    },
    {
      "channel": 2,
      "note": 74,
      "start": 23.5341,
      "duration": 0.1621,
      "velocity": 98,
      "chip": "ym2612"
    },
    {
      "channel": 3,
      "note": 85,
      "start": 23.5788,
      "duration": 0.162,
      "velocity": 98,
      "chip": "ym2612"
    },
    {
      "channel": 4,
      "note": 78,
      "start": 23.6232,
      "duration": 0.162,
      "velocity": 98,
      "chip": "ym2612"
    },
    {
      "channel": 2,
      "note": 78,
      "start": 23.7111,
      "duration": 0.162,
      "velocity": 98,
      "chip": "ym2612"
    },
    {
      "channel": 3,
      "note": 83,
      "start": 23.7557,
      "duration": 0.162,
      "velocity": 98,
      "chip": "ym2612"
    },
    {
      "channel": 4,
      "note": 85,
      "start": 23.8002,
      "duration": 0.162,
      "velocity": 98,
      "chip": "ym2612"
    },
    {
      "channel": 2,
      "note": 83,
      "start": 23.8881,
      "duration": 0.162,
      "velocity": 98,
      "chip": "ym2612"
    },
    {
      "channel": 3,
      "note": 74,
      "start": 23.9327,
      "duration": 0.1619,
      "velocity": 98,
      "chip": "ym2612"
    },
    {
      "channel": 4,
      "note": 83,
      "start": 23.9772,
      "duration": 0.162,
      "velocity": 98,
      "chip": "ym2612"
    },
    {
      "channel": 2,
      "note": 82,
      "start": 24.0651,
      "duration": 0.1621,
      "velocity": 98,
      "chip": "ym2612"
    },
    {
      "channel": 3,
      "note": 78,
      "start": 24.1096,
      "duration": 0.162,
      "velocity": 98,
      "chip": "ym2612"
    },
    {
      "channel": 4,
      "note": 74,
      "start": 24.1541,
      "duration": 0.162,
      "velocity": 98,
      "chip": "ym2612"
    },
    {
      "channel": 2,
      "note": 74,
      "start": 24.242,
      "duration": 0.162,
      "velocity": 98,
      "chip": "ym2612"
    },
    {
      "channel": 3,
      "note": 83,
      "start": 24.2866,
      "duration": 0.162,
      "velocity": 98,
      "chip": "ym2612"
    },
    {
      "channel": 4,
      "note": 78,
      "start": 24.3315,
      "duration": 0.1616,
      "velocity": 98,
      "chip": "ym2612"
    },
    {
      "channel": 2,
      "note": 78,
      "start": 24.419,
      "duration": 0.1622,
      "velocity": 98,
      "chip": "ym2612"
    },
    {
      "channel": 3,
      "note": 82,
      "start": 24.464,
      "duration": 0.1615,
      "velocity": 98,
      "chip": "ym2612"
    },
    {
      "channel": 4,
      "note": 83,
      "start": 24.508,
      "duration": 0.1621,
      "velocity": 98,
      "chip": "ym2612"
    },
    {
      "channel": 2,
      "note": 82,
      "start": 24.5959,
      "duration": 0.1621,
      "velocity": 98,
      "chip": "ym2612"
    },
    {
      "channel": 3,
      "note": 74,
      "start": 24.6405,
      "duration": 0.162,
      "velocity": 98,
      "chip": "ym2612"
    },
    {
      "channel": 4,
      "note": 82,
      "start": 24.685,
      "duration": 0.1624,
      "velocity": 98,
      "chip": "ym2612"
    },
    {
      "channel": 2,
      "note": 83,
      "start": 24.7729,
      "duration": 0.162,
      "velocity": 98,
      "chip": "ym2612"
    },
    {
      "channel": 3,
      "note": 78,
      "start": 24.8175,
      "duration": 0.162,
      "velocity": 98,
      "chip": "ym2612"
    },
    {
      "channel": 4,
      "note": 74,
      "start": 24.862,
      "duration": 0.162,
      "velocity": 98,
      "chip": "ym2612"
    },
    {
      "channel": 2,
      "note": 74,
      "start": 24.9499,
      "duration": 0.1621,
      "velocity": 98,
      "chip": "ym2612"
    },
    {
      "channel": 3,
      "note": 82,
      "start": 24.9944,
      "duration": 0.162,
      "velocity": 98,
      "chip": "ym2612"
    },
    {
      "channel": 4,
      "note": 78,
      "start": 25.0389,
      "duration": 0.162,
      "velocity": 98,
      "chip": "ym2612"
    },
    {
      "channel": 0,
      "note": 47,
      "start": 25.1263,
      "duration": 0.1621,
      "velocity": 90,
      "chip": "ym2612"
    },
    {
      "channel": 2,
      "note": 78,
      "start": 25.127,
      "duration": 0.1618,
      "velocity": 98,
      "chip": "ym2612"
    },
    {
      "channel": 3,
      "note": 83,
      "start": 25.1714,
      "duration": 0.162,
      "velocity": 98,
      "chip": "ym2612"
    },
    {
      "channel": 4,
      "note": 82,
      "start": 25.2159,
      "duration": 0.162,
      "velocity": 98,
      "chip": "ym2612"
    },
    {
      "channel": 0,
      "note": 45,
      "start": 25.3033,
      "duration": 0.162,
      "velocity": 90,
      "chip": "ym2612"
    },
    {
      "channel": 2,
      "note": 83,
      "start": 25.304,
      "duration": 0.1618,
      "velocity": 98,
      "chip": "ym2612"
    },
    {
      "channel": 3,
      "note": 74,
      "start": 25.3484,
      "duration": 0.1619,
      "velocity": 98,
      "chip": "ym2612"
    },
    {
      "channel": 4,
      "note": 83,
      "start": 25.3928,
      "duration": 0.0736,
      "velocity": 98,
      "chip": "ym2612"
    },
    {
      "channel": 0,
      "note": 43,
      "start": 25.4807,
      "duration": 2.8163,
      "velocity": 90,
      "chip": "ym2612"
    },
    {
      "channel": 2,
      "note": 85,
      "start": 25.4814,
      "duration": 0.1612,
      "velocity": 98,
      "chip": "ym2612"
    },
    {
      "channel": 4,
      "note": 74,
      "start": 25.4849,
      "duration": 0.4238,
      "velocity": 98,
      "chip": "ym2612"
    },
    {
      "channel": 3,
      "note": 78,
      "start": 25.5253,
      "duration": 0.162,
      "velocity": 98,
      "chip": "ym2612"
    },
    {
      "channel": 2,
      "note": 74,
      "start": 25.6576,
      "duration": 0.1621,
      "velocity": 98,
      "chip": "ym2612"
    },
    {
      "channel": 3,
      "note": 83,
      "start": 25.7023,
      "duration": 0.1623,
      "velocity": 98,
      "chip": "ym2612"
    },
    {
      "channel": 1,
      "note": 53,
      "start": 25.8344,
      "duration": 2.8165,
      "velocity": 90,
      "chip": "ym2612"
    },
    {
      "channel": 2,
      "note": 77,
      "start": 25.8349,
      "duration": 0.162,
      "velocity": 98,
      "chip": "ym2612"
    },
    {
      "channel": 3,
      "note": 85,
      "start": 25.8792,
      "duration": 0.162,
      "velocity": 98,
      "chip": "ym2612"
    },
    {
      "channel": 4,
      "note": 81,
      "start": 25.9263,
      "duration": 0.1594,
      "velocity": 98,
      "chip": "ym2612"
    },
    {
      "channel": 2,
      "note": 85,
      "start": 26.0116,
      "duration": 0.1621,
      "velocity": 98,
      "chip": "ym2612"
    },
    {
      "channel": 3,
      "note": 74,
      "start": 26.0561,
      "duration": 0.162,
      "velocity": 98,
      "chip": "ym2612"
    },
    {
      "channel": 4,
      "note": 85,
      "start": 26.1006,
      "duration": 0.1621,
      "velocity": 98,
      "chip": "ym2612"
    },
    {
      "channel": 2,
      "note": 83,
      "start": 26.1886,
      "duration": 0.162,
      "velocity": 98,
      "chip": "ym2612"
    },
    {
      "channel": 5,
      "note": 62,
      "start": 26.1898,
      "duration": 2.8162,
      "velocity": 90,
      "chip": "ym2612"
    },
    {
      "channel": 3,
      "note": 77,
      "start": 26.2332,
      "duration": 0.162,
      "velocity": 98,
      "chip": "ym2612"
    },
    {
      "channel": 4,
      "note": 74,
      "start": 26.2777,
      "duration": 0.162,
      "velocity": 98,
      "chip": "ym2612"
    },
    {
      "channel": 2,
      "note": 74,
      "start": 26.3656,
      "duration": 0.162,
      "velocity": 98,
      "chip": "ym2612"
    },
    {
      "channel": 3,
      "note": 85,
      "start": 26.4101,
      "duration": 0.162,
      "velocity": 98,
      "chip": "ym2612"
    },
    {
      "channel": 4,
      "note": 77,
      "start": 26.4546,
      "duration": 0.162,
      "velocity": 98,
      "chip": "ym2612"
    },
    {
      "channel": 2,
      "note": 77,
      "start": 26.5425,
      "duration": 0.1621,
      "velocity": 98,
      "chip": "ym2612"
    },
    {
      "channel": 3,
      "note": 83,
      "start": 26.5871,
      "duration": 0.162,
      "velocity": 98,
      "chip": "ym2612"
    },
    {
      "channel": 4,
      "note": 85,
      "start": 26.632,
      "duration": 0.1616,
      "velocity": 98,
      "chip": "ym2612"
    },
    {
      "channel": 2,
      "note": 83,
      "start": 26.7195,
      "duration": 0.1622,
      "velocity": 98,
      "chip": "ym2612"
    },
    {
      "channel": 3,
      "note": 74,
      "start": 26.7645,
      "duration": 0.1615,
      "velocity": 98,
      "chip": "ym2612"
    },
    {
      "channel": 4,
      "note": 83,
      "start": 26.8085,
      "duration": 0.162,
      "velocity": 98,
      "chip": "ym2612"
    },
    {
      "channel": 2,
      "note": 81,
      "start": 26.8964,
      "duration": 0.1621,
      "velocity": 98,
      "chip": "ym2612"
    },
    {
      "channel": 3,
      "note": 77,
      "start": 26.941,
      "duration": 0.1619,
      "velocity": 98,
      "chip": "ym2612"
    },
    {
      "channel": 4,
      "note": 74,
      "start": 26.9855,
      "duration": 0.1625,
      "velocity": 98,
      "chip": "ym2612"
    },
    {
      "channel": 2,
      "note": 74,
      "start": 27.0734,
      "duration": 0.162,
      "velocity": 98,
      "chip": "ym2612"
    },
    {
      "channel": 3,
      "note": 83,
      "start": 27.1179,
      "duration": 0.162,
      "velocity": 98,
      "chip": "ym2612"
    },
    {
      "channel": 4,
      "note": 77,
      "start": 27.1625,
      "duration": 0.162,
      "velocity": 98,
      "chip": "ym2612"
    },
    {
      "channel": 2,
      "note": 77,
      "start": 27.2504,
      "duration": 0.162,
      "velocity": 98,
      "chip": "ym2612"
    },
    {
      "channel": 3,
      "note": 81,
      "start": 27.295,
      "duration": 0.1619,
      "velocity": 98,
      "chip": "ym2612"
    },
    {
      "channel": 4,
      "note": 83,
      "start": 27.3394,
      "duration": 0.162,
      "velocity": 98,
      "chip": "ym2612"
    },
    {
      "channel": 2,
      "note": 81,
      "start": 27.4273,
      "duration": 0.162,
      "velocity": 98,
      "chip": "ym2612"
    },
    {
      "channel": 3,
      "note": 74,
      "start": 27.4719,
      "duration": 0.162,
      "velocity": 98,
      "chip": "ym2612"
    },
    {
      "channel": 4,
      "note": 81,
      "start": 27.5164,
      "duration": 0.162,
      "velocity": 98,
      "chip": "ym2612"
    },
    {
      "channel": 2,
      "note": 83,
      "start": 27.6043,
      "duration": 0.162,
      "velocity": 98,
      "chip": "ym2612"
    },
    {
      "channel": 3,
      "note": 77,
      "start": 27.6488,
      "duration": 0.162,
      "velocity": 98,
      "chip": "ym2612"
    },
    {
      "channel": 4,
      "note": 74,
      "start": 27.6934,
      "duration": 0.162,
      "velocity": 98,
      "chip": "ym2612"
    },
    {
      "channel": 2,
      "note": 74,
      "start": 27.7814,
      "duration": 0.162,
      "velocity": 98,
      "chip": "ym2612"
    },
    {
      "channel": 3,
      "note": 81,
      "start": 27.8258,
      "duration": 0.162,
      "velocity": 98,
      "chip": "ym2612"
    },
    {
      "channel": 4,
      "note": 77,
      "start": 27.8703,
      "duration": 0.162,
      "velocity": 98,
      "chip": "ym2612"
    },
    {
      "channel": 2,
      "note": 77,
      "start": 27.9582,
      "duration": 0.162,
      "velocity": 98,
      "chip": "ym2612"
    },
    {
      "channel": 3,
      "note": 83,
      "start": 28.0028,
      "duration": 0.162,
      "velocity": 98,
      "chip": "ym2612"
    },
    {
      "channel": 4,
      "note": 81,
      "start": 28.0477,
      "duration": 0.1615,
      "velocity": 98,
      "chip": "ym2612"
    },
    {
      "channel": 2,
      "note": 83,
      "start": 28.1352,
      "duration": 0.1625,
      "velocity": 98,
      "chip": "ym2612"
    },
    {
      "channel": 3,
      "note": 74,
      "start": 28.1798,
      "duration": 0.1619,
      "velocity": 98,
      "chip": "ym2612"
    },
    {
      "channel": 4,
      "note": 83,
      "start": 28.2242,
      "duration": 0.074,
      "velocity": 98,
      "chip": "ym2612"
    },
    {
      "channel": 0,
      "note": 42,
      "start": 28.3116,
      "duration": 2.8164,
      "velocity": 90,
      "chip": "ym2612"
    },
    {
      "channel": 2,
      "note": 83,
      "start": 28.3124,
      "duration": 0.1617,
      "velocity": 98,
      "chip": "ym2612"
    },
    {
      "channel": 4,
      "note": 74,
      "start": 28.3163,
      "duration": 0.4238,
      "velocity": 98,
      "chip": "ym2612"
    },
    {
      "channel": 3,
      "note": 77,
      "start": 28.3567,
      "duration": 0.1619,
      "velocity": 98,
      "chip": "ym2612"
    },
    {
      "channel": 2,
      "note": 73,
      "start": 28.489,
      "duration": 0.1621,
      "velocity": 98,
      "chip": "ym2612"
    },
    {
      "channel": 3,
      "note": 83,
      "start": 28.5337,
      "duration": 0.162,
      "velocity": 98,
      "chip": "ym2612"
    },
    {
      "channel": 1,
      "note": 54,
      "start": 28.6658,
      "duration": 2.8165,
      "velocity": 90,
      "chip": "ym2612"
    },
    {
      "channel": 2,
      "note": 76,
      "start": 28.6663,
      "duration": 0.1618,
      "velocity": 98,
      "chip": "ym2612"
    },
    {
      "channel": 3,
      "note": 83,
      "start": 28.7106,
      "duration": 0.162,
      "velocity": 98,
      "chip": "ym2612"
    },
    {
      "channel": 4,
      "note": 80,
      "start": 28.7577,
      "duration": 0.1594,
      "velocity": 98,
      "chip": "ym2612"
    },
    {
      "channel": 2,
      "note": 83,
      "start": 28.8429,
      "duration": 0.1621,
      "velocity": 98,
      "chip": "ym2612"
    },
    {
      "channel": 3,
      "note": 73,
      "start": 28.8875,
      "duration": 0.162,
      "velocity": 98,
      "chip": "ym2612"
    },
    {
      "channel": 4,
      "note": 83,
      "start": 28.9321,
      "duration": 0.1621,
      "velocity": 98,
      "chip": "ym2612"
    },
    {
      "channel": 2,
      "note": 81,
      "start": 29.02,
      "duration": 0.162,
      "velocity": 98,
      "chip": "ym2612"
    },
    {
      "channel": 5,
      "note": 64,
      "start": 29.0211,
      "duration": 2.8162,
      "velocity": 90,
      "chip": "ym2612"
    },
    {
      "channel": 3,
      "note": 76,
      "start": 29.0649,
      "duration": 0.1616,
      "velocity": 98,
      "chip": "ym2612"
    },
    {
      "channel": 4,
      "note": 73,
      "start": 29.109,
      "duration": 0.162,
      "velocity": 98,
      "chip": "ym2612"
    },
    {
      "channel": 2,
      "note": 73,
      "start": 29.1973,
      "duration": 0.1617,
      "velocity": 98,
      "chip": "ym2612"
    },
    {
      "channel": 3,
      "note": 83,
      "start": 29.2415,
      "duration": 0.1619,
      "velocity": 98,
      "chip": "ym2612"
    },
    {
      "channel": 4,
      "note": 76,
      "start": 29.286,
      "duration": 0.1625,
      "velocity": 98,
      "chip": "ym2612"
    },
    {
      "channel": 2,
      "note": 76,
      "start": 29.3739,
      "duration": 0.162,
      "velocity": 98,
      "chip": "ym2612"
    },
    {
      "channel": 3,
      "note": 81,
      "start": 29.4185,
      "duration": 0.1624,
      "velocity": 98,
      "chip": "ym2612"
    },
    {
      "channel": 4,
      "note": 83,
      "start": 29.463,
      "duration": 0.162,
      "velocity": 98,
      "chip": "ym2612"
    },
    {
      "channel": 2,
      "note": 81,
      "start": 29.5509,
      "duration": 0.162,
      "velocity": 98,
      "chip": "ym2612"
    },
    {
      "channel": 3,
      "note": 73,
      "start": 29.5954,
      "duration": 0.162,
      "velocity": 98,
      "chip": "ym2612"
    },
    {
      "channel": 4,
      "note": 81,
      "start": 29.6399,
      "duration": 0.162,
      "velocity": 98,
      "chip": "ym2612"
    },
    {
      "channel": 2,
      "note": 80,
      "start": 29.7278,
      "duration": 0.1621,
      "velocity": 98,
      "chip": "ym2612"
    },
    {
      "channel": 3,
      "note": 76,
      "start": 29.7724,
      "duration": 0.162,
      "velocity": 98,
      "chip": "ym2612"
    },
    {
      "channel": 4,
      "note": 73,
      "start": 29.8168,
      "duration": 0.1621,
      "velocity": 98,
      "chip": "ym2612"
    },
    {
      "channel": 2,
      "note": 73,
      "start": 29.9048,
      "duration": 0.162,
      "velocity": 98,
      "chip": "ym2612"
    },
    {
      "channel": 3,
      "note": 81,
      "start": 29.9494,
      "duration": 0.162,
      "velocity": 98,
      "chip": "ym2612"
    },
    {
      "channel": 4,
      "note": 76,
      "start": 29.9939,
      "duration": 0.1619,
      "velocity": 98,
      "chip": "ym2612"
    },
    {
      "channel": 2,
      "note": 76,
      "start": 30.0817,
      "duration": 0.162,
      "velocity": 98,
      "chip": "ym2612"
    },
    {
      "channel": 3,
      "note": 80,
      "start": 30.1263,
      "duration": 0.1619,
      "velocity": 98,
      "chip": "ym2612"
    },
    {
      "channel": 4,
      "note": 81,
      "start": 30.1708,
      "duration": 0.162,
      "velocity": 98,
      "chip": "ym2612"
    },
    {
      "channel": 2,
      "note": 80,
      "start": 30.2587,
      "duration": 0.162,
      "velocity": 98,
      "chip": "ym2612"
    },
    {
      "channel": 3,
      "note": 73,
      "start": 30.3032,
      "duration": 0.162,
      "velocity": 98,
      "chip": "ym2612"
    },
    {
      "channel": 4,
      "note": 80,
      "start": 30.3482,
      "duration": 0.1615,
      "velocity": 98,
      "chip": "ym2612"
    },
    {
      "channel": 2,
      "note": 81,
      "start": 30.4357,
      "duration": 0.1622,
      "velocity": 98,
      "chip": "ym2612"
    },
    {
      "channel": 3,
      "note": 76,
      "start": 30.4807,
      "duration": 0.1615,
      "velocity": 98,
      "chip": "ym2612"
    },
    {
      "channel": 4,
      "note": 73,
      "start": 30.5247,
      "duration": 0.162,
      "velocity": 98,
      "chip": "ym2612"
    },
    {
      "channel": 2,
      "note": 73,
      "start": 30.6127,
      "duration": 0.162,
      "velocity": 98,
      "chip": "ym2612"
    },
    {
      "channel": 3,
      "note": 80,
      "start": 30.6572,
      "duration": 0.162,
      "velocity": 98,
      "chip": "ym2612"
    },
    {
      "channel": 4,
      "note": 76,
      "start": 30.7017,
      "duration": 0.1625,
      "velocity": 98,
      "chip": "ym2612"
    },
    {
      "channel": 2,
      "note": 76,
      "start": 30.7896,
      "duration": 0.1621,
      "velocity": 98,
      "chip": "ym2612"
    },
    {
      "channel": 3,
      "note": 81,
      "start": 30.8341,
      "duration": 0.162,
      "velocity": 98,
      "chip": "ym2612"
    },
    {
      "channel": 4,
      "note": 80,
      "start": 30.8786,
      "duration": 0.162,
      "velocity": 98,
      "chip": "ym2612"
    },
    {
      "channel": 2,
      "note": 81,
      "start": 30.9666,
      "duration": 0.162,
      "velocity": 98,
      "chip": "ym2612"
    },
    {
      "channel": 3,
      "note": 73,
      "start": 31.0111,
      "duration": 0.1619,
      "velocity": 98,
      "chip": "ym2612"
    },
    {
      "channel": 4,
      "note": 81,
      "start": 31.0556,
      "duration": 0.162,
      "velocity": 98,
      "chip": "ym2612"
    },
    {
      "channel": 0,
      "note": 53,
      "start": 31.143,
      "duration": 2.8164,
      "velocity": 90,
      "chip": "ym2612"
    },
    {
      "channel": 2,
      "note": 83,
      "start": 31.1438,
      "duration": 0.1617,
      "velocity": 98,
      "chip": "ym2612"
    },
    {
      "channel": 3,
      "note": 76,
      "start": 31.188,
      "duration": 0.162,
      "velocity": 98,
      "chip": "ym2612"
    },
    {
      "channel": 4,
      "note": 73,
      "start": 31.2325,
      "duration": 0.162,
      "velocity": 98,
      "chip": "ym2612"
    },
    {
      "channel": 2,
      "note": 74,
      "start": 31.3204,
      "duration": 0.1621,
      "velocity": 98,
      "chip": "ym2612"
    },
    {
      "channel": 3,
      "note": 81,
      "start": 31.3651,
      "duration": 0.1618,
      "velocity": 98,
      "chip": "ym2612"
    },
    {
      "channel": 4,
      "note": 76,
      "start": 31.4095,
      "duration": 0.162,
      "velocity": 98,
      "chip": "ym2612"
    },
    {
      "channel": 1,
      "note": 62,
      "start": 31.4976,
      "duration": 2.8164,
      "velocity": 90,
      "chip": "ym2612"
    },
    {
      "channel": 2,
      "note": 77,
      "start": 31.4981,
      "duration": 0.1613,
      "velocity": 98,
      "chip": "ym2612"
    },
    {
      "channel": 3,
      "note": 83,
      "start": 31.542,
      "duration": 0.1619,
      "velocity": 98,
      "chip": "ym2612"
    },
    {
      "channel": 4,
      "note": 81,
      "start": 31.5864,
      "duration": 0.162,
      "velocity": 98,
      "chip": "ym2612"
    },
    {
      "channel": 2,
      "note": 83,
      "start": 31.6744,
      "duration": 0.162,
      "velocity": 98,
      "chip": "ym2612"
    },
    {
      "channel": 3,
      "note": 74,
      "start": 31.7189,
      "duration": 0.1629,
      "velocity": 98,
      "chip": "ym2612"
    },
    {
      "channel": 4,
      "note": 83,
      "start": 31.7639,
      "duration": 0.1616,
      "velocity": 98,
      "chip": "ym2612"
    },
    {
      "channel": 2,
      "note": 81,
      "start": 31.8513,
      "duration": 0.1623,
      "velocity": 98,
      "chip": "ym2612"
    },
    {
      "channel": 5,
      "note": 71,
      "start": 31.8525,
      "duration": 2.8162,
      "velocity": 90,
      "chip": "ym2612"
    },
    {
      "channel": 3,
      "note": 77,
      "start": 31.8959,
      "duration": 0.162,
      "velocity": 98,
      "chip": "ym2612"
    },
    {
      "channel": 4,
      "note": 74,
      "start": 31.9405,
      "duration": 0.162,
      "velocity": 98,
      "chip": "ym2612"
    },
    {
      "channel": 2,
      "note": 74,
      "start": 32.0283,
      "duration": 0.162,
      "velocity": 98,
      "chip": "ym2612"
    },
    {
      "channel": 3,
      "note": 83,
      "start": 32.0729,
      "duration": 0.1619,
      "velocity": 98,
      "chip": "ym2612"
    },
    {
      "channel": 4,
      "note": 77,
      "start": 32.1174,
      "duration": 0.162,
      "velocity": 98,
      "chip": "ym2612"
    },
    {
      "channel": 2,
      "note": 77,
      "start": 32.2053,
      "duration": 0.1621,
      "velocity": 98,
      "chip": "ym2612"
    },
    {
      "channel": 3,
      "note": 81,
      "start": 32.2498,
      "duration": 0.162,
      "velocity": 98,
      "chip": "ym2612"
    },
    {
      "channel": 4,
      "note": 83,
      "start": 32.2943,
      "duration": 0.162,
      "velocity": 98,
      "chip": "ym2612"
    },
    {
      "channel": 2,
      "note": 81,
      "start": 32.3822,
      "duration": 0.162,
      "velocity": 98,
      "chip": "ym2612"
    },
    {
      "channel": 3,
      "note": 74,
      "start": 32.4268,
      "duration": 0.1619,
      "velocity": 98,
      "chip": "ym2612"
    },
    {
      "channel": 4,
      "note": 81,
      "start": 32.4713,
      "duration": 0.162,
      "velocity": 98,
      "chip": "ym2612"
    },
    {
      "channel": 2,
      "note": 80,
      "start": 32.5592,
      "duration": 0.1621,
      "velocity": 98,
      "chip": "ym2612"
    },
    {
      "channel": 3,
      "note": 77,
      "start": 32.6038,
      "duration": 0.162,
      "velocity": 98,
      "chip": "ym2612"
    },
    {
      "channel": 4,
      "note": 74,
      "start": 32.6486,
      "duration": 0.1617,
      "velocity": 98,
      "chip": "ym2612"
    },
    {
      "channel": 2,
      "note": 74,
      "start": 32.7362,
      "duration": 0.162,
      "velocity": 98,
      "chip": "ym2612"
    },
    {
      "channel": 3,
      "note": 81,
      "start": 32.7811,
      "duration": 0.1616,
      "velocity": 98,
      "chip": "ym2612"
    },
    {
      "channel": 4,
      "note": 77,
      "start": 32.8253,
      "duration": 0.162,
      "velocity": 98,
      "chip": "ym2612"
    },
    {
      "channel": 2,
      "note": 77,
      "start": 32.9132,
      "duration": 0.162,
      "velocity": 98,
      "chip": "ym2612"
    },
    {
      "channel": 3,
      "note": 80,
      "start": 32.9577,
      "duration": 0.162,
      "velocity": 98,
      "chip": "ym2612"
    },
    {
      "channel": 4,
      "note": 81,
      "start": 33.0022,
      "duration": 0.1624,
      "velocity": 98,
      "chip": "ym2612"
    },
    {
      "channel": 2,
      "note": 80,
      "start": 33.0901,
      "duration": 0.1621,
      "velocity": 98,
      "chip": "ym2612"
    },
    {
      "channel": 3,
      "note": 74,
      "start": 33.1346,
      "duration": 0.162,
      "velocity": 98,
      "chip": "ym2612"
    },
    {
      "channel": 4,
      "note": 80,
      "start": 33.1791,
      "duration": 0.162,
      "velocity": 98,
      "chip": "ym2612"
    },
    {
      "channel": 2,
      "note": 81,
      "start": 33.2671,
      "duration": 0.162,
      "velocity": 98,
      "chip": "ym2612"
    },
    {
      "channel": 3,
      "note": 77,
      "start": 33.3116,
      "duration": 0.1619,
      "velocity": 98,
      "chip": "ym2612"
    },
    {
      "channel": 4,
      "note": 74,
      "start": 33.3561,
      "duration": 0.162,
      "velocity": 98,
      "chip": "ym2612"
    },
    {
      "channel": 2,
      "note": 74,
      "start": 33.4439,
      "duration": 0.1621,
      "velocity": 98,
      "chip": "ym2612"
    },
    {
      "channel": 3,
      "note": 80,
      "start": 33.4885,
      "duration": 0.162,
      "velocity": 98,
      "chip": "ym2612"
    },
    {
      "channel": 4,
      "note": 77,
      "start": 33.5331,
      "duration": 0.162,
      "velocity": 98,
      "chip": "ym2612"
    },
    {
      "channel": 2,
      "note": 77,
      "start": 33.621,
      "duration": 0.162,
      "velocity": 98,
      "chip": "ym2612"
    },
    {
      "channel": 3,
      "note": 81,
      "start": 33.6655,
      "duration": 0.162,
      "velocity": 98,
      "chip": "ym2612"
    },
    {
      "channel": 4,
      "note": 80,
      "start": 33.71,
      "duration": 0.162,
      "velocity": 98,
      "chip": "ym2612"
    },
    {
      "channel": 2,
      "note": 81,
      "start": 33.798,
      "duration": 0.162,
      "velocity": 98,
      "chip": "ym2612"
    },
    {
      "channel": 3,
      "note": 74,
      "start": 33.8425,
      "duration": 0.162,
      "velocity": 98,
      "chip": "ym2612"
    },
    {
      "channel": 4,
      "note": 81,
      "start": 33.887,
      "duration": 0.162,
      "velocity": 98,
      "chip": "ym2612"
    },
    {
      "channel": 0,
      "note": 52,
      "start": 33.9744,
      "duration": 2.8165,
      "velocity": 90,
      "chip": "ym2612"
    },
    {
      "channel": 2,
      "note": 83,
      "start": 33.9751,
      "duration": 0.1618,
      "velocity": 98,
      "chip": "ym2612"
    },
    {
      "channel": 3,
      "note": 77,
      "start": 34.0194,
      "duration": 0.1621,
      "velocity": 98,
      "chip": "ym2612"
    },
    {
      "channel": 4,
      "note": 74,
      "start": 34.0644,
      "duration": 0.1616,
      "velocity": 98,
      "chip": "ym2612"
    },
    {
      "channel": 2,
      "note": 73,
      "start": 34.1518,
      "duration": 0.1625,
      "velocity": 98,
      "chip": "ym2612"
    },
    {
      "channel": 3,
      "note": 81,
      "start": 34.1964,
      "duration": 0.1619,
      "velocity": 98,
      "chip": "ym2612"
    },
    {
      "channel": 4,
      "note": 77,
      "start": 34.2409,
      "duration": 0.162,
      "velocity": 98,
      "chip": "ym2612"
    },
    {
      "channel": 1,
      "note": 61,
      "start": 34.3286,
      "duration": 2.8165,
      "velocity": 90,
      "chip": "ym2612"
    },
    {
      "channel": 2,
      "note": 76,
      "start": 34.3291,
      "duration": 0.1618,
      "velocity": 98,
      "chip": "ym2612"
    },
    {
      "channel": 3,
      "note": 83,
      "start": 34.3734,
      "duration": 0.162,
      "velocity": 98,
      "chip": "ym2612"
    },
    {
      "channel": 4,
      "note": 81,
      "start": 34.4178,
      "duration": 0.162,
      "velocity": 98,
      "chip": "ym2612"
    },
    {
      "channel": 2,
      "note": 83,
      "start": 34.5057,
      "duration": 0.1621,
      "velocity": 98,
      "chip": "ym2612"
    },
    {
      "channel": 3,
      "note": 73,
      "start": 34.5502,
      "duration": 0.162,
      "velocity": 98,
      "chip": "ym2612"
    },
    {
      "channel": 4,
      "note": 83,
      "start": 34.5948,
      "duration": 0.1621,
      "velocity": 98,
      "chip": "ym2612"
    },
    {
      "channel": 2,
      "note": 81,
      "start": 34.6827,
      "duration": 0.1621,
      "velocity": 98,
      "chip": "ym2612"
    },
    {
      "channel": 5,
      "note": 69,
      "start": 34.6839,
      "duration": 2.8162,
      "velocity": 90,
      "chip": "ym2612"
    },
    {
      "channel": 3,
      "note": 76,
      "start": 34.7273,
      "duration": 0.162,
      "velocity": 98,
      "chip": "ym2612"
    },
    {
      "channel": 4,
      "note": 73,
      "start": 34.7718,
      "duration": 0.162,
      "velocity": 98,
      "chip": "ym2612"
    },
    {
      "channel": 2,
      "note": 73,
      "start": 34.8597,
      "duration": 0.162,
      "velocity": 98,
      "chip": "ym2612"
    },
    {
      "channel": 3,
      "note": 83,
      "start": 34.9043,
      "duration": 0.162,
      "velocity": 98,
      "chip": "ym2612"
    },
    {
      "channel": 4,
      "note": 76,
      "start": 34.9488,
      "duration": 0.162,
      "velocity": 98,
      "chip": "ym2612"
    },
    {
      "channel": 2,
      "note": 76,
      "start": 35.0366,
      "duration": 0.1621,
      "velocity": 98,
      "chip": "ym2612"
    },
    {
      "channel": 3,
      "note": 81,
      "start": 35.0816,
      "duration": 0.1616,
      "velocity": 98,
      "chip": "ym2612"
    },
    {
      "channel": 4,
      "note": 83,
      "start": 35.1258,
      "duration": 0.162,
      "velocity": 98,
      "chip": "ym2612"
    },
    {
      "channel": 2,
      "note": 81,
      "start": 35.2144,
      "duration": 0.1612,
      "velocity": 98,
      "chip": "ym2612"
    },
    {
      "channel": 3,
      "note": 73,
      "start": 35.2582,
      "duration": 0.162,
      "velocity": 98,
      "chip": "ym2612"
    },
    {
      "channel": 4,
      "note": 81,
      "start": 35.3027,
      "duration": 0.1624,
      "velocity": 98,
      "chip": "ym2612"
    },
    {
      "channel": 2,
      "note": 80,
      "start": 35.3906,
      "duration": 0.1621,
      "velocity": 98,
      "chip": "ym2612"
    },
    {
      "channel": 3,
      "note": 76,
      "start": 35.4351,
      "duration": 0.1624,
      "velocity": 98,
      "chip": "ym2612"
    },
    {
      "channel": 4,
      "note": 73,
      "start": 35.4796,
      "duration": 0.162,
      "velocity": 98,
      "chip": "ym2612"
    },
    {
      "channel": 2,
      "note": 73,
      "start": 35.5676,
      "duration": 0.162,
      "velocity": 98,
      "chip": "ym2612"
    },
    {
      "channel": 3,
      "note": 81,
      "start": 35.6121,
      "duration": 0.162,
      "velocity": 98,
      "chip": "ym2612"
    },
    {
      "channel": 4,
      "note": 76,
      "start": 35.6566,
      "duration": 0.162,
      "velocity": 98,
      "chip": "ym2612"
    },
    {
      "channel": 2,
      "note": 76,
      "start": 35.7445,
      "duration": 0.1621,
      "velocity": 98,
      "chip": "ym2612"
    },
    {
      "channel": 3,
      "note": 80,
      "start": 35.789,
      "duration": 0.162,
      "velocity": 98,
      "chip": "ym2612"
    },
    {
      "channel": 4,
      "note": 81,
      "start": 35.8336,
      "duration": 0.162,
      "velocity": 98,
      "chip": "ym2612"
    },
    {
      "channel": 2,
      "note": 80,
      "start": 35.9215,
      "duration": 0.162,
      "velocity": 98,
      "chip": "ym2612"
    },
    {
      "channel": 3,
      "note": 73,
      "start": 35.966,
      "duration": 0.162,
      "velocity": 98,
      "chip": "ym2612"
    },
    {
      "channel": 4,
      "note": 80,
      "start": 36.0106,
      "duration": 0.162,
      "velocity": 98,
      "chip": "ym2612"
    },
    {
      "channel": 2,
      "note": 81,
      "start": 36.0984,
      "duration": 0.1621,
      "velocity": 98,
      "chip": "ym2612"
    },
    {
      "channel": 3,
      "note": 76,
      "start": 36.143,
      "duration": 0.162,
      "velocity": 98,
      "chip": "ym2612"
    },
    {
      "channel": 4,
      "note": 73,
      "start": 36.1875,
      "duration": 0.162,
      "velocity": 98,
      "chip": "ym2612"
    },
    {
      "channel": 2,
      "note": 73,
      "start": 36.2754,
      "duration": 0.1621,
      "velocity": 98,
      "chip": "ym2612"
    },
    {
      "channel": 3,
      "note": 80,
      "start": 36.3199,
      "duration": 0.162,
      "velocity": 98,
      "chip": "ym2612"
    },
    {
      "channel": 4,
      "note": 76,
      "start": 36.3649,
      "duration": 0.1616,
      "velocity": 98,
      "chip": "ym2612"
    },
    {
      "channel": 2,
      "note": 76,
      "start": 36.4524,
      "duration": 0.1622,
      "velocity": 98,
      "chip": "ym2612"
    },
    {
      "channel": 3,
      "note": 81,
      "start": 36.4973,
      "duration": 0.1616,
      "velocity": 98,
      "chip": "ym2612"
    },
    {
      "channel": 4,
      "note": 80,
      "start": 36.5414,
      "duration": 0.162,
      "velocity": 98,
      "chip": "ym2612"
    },
    {
      "channel": 2,
      "note": 81,
      "start": 36.6293,
      "duration": 0.162,
      "velocity": 98,
      "chip": "ym2612"
    },
    {
      "channel": 3,
      "note": 73,
      "start": 36.6739,
      "duration": 0.1619,
      "velocity": 98,
      "chip": "ym2612"
    },
    {
      "channel": 4,
      "note": 81,
      "start": 36.7184,
      "duration": 0.1628,
      "velocity": 98,
      "chip": "ym2612"
    },
    {
      "channel": 0,
      "note": 51,
      "start": 36.8057,
      "duration": 2.8165,
      "velocity": 90,
      "chip": "ym2612"
    },
    {
      "channel": 2,
      "note": 85,
      "start": 36.8065,
      "duration": 0.1618,
      "velocity": 98,
      "chip": "ym2612"
    },
    {
      "channel": 3,
      "note": 76,
      "start": 36.8508,
      "duration": 0.162,
      "velocity": 98,
      "chip": "ym2612"
    },
    {
      "channel": 4,
      "note": 73,
      "start": 36.8953,
      "duration": 0.162,
      "velocity": 98,
      "chip": "ym2612"
    },
    {
      "channel": 2,
      "note": 73,
      "start": 36.9832,
      "duration": 0.1621,
      "velocity": 98,
      "chip": "ym2612"
    },
    {
      "channel": 3,
      "note": 81,
      "start": 37.0278,
      "duration": 0.1619,
      "velocity": 98,
      "chip": "ym2612"
    },
    {
      "channel": 4,
      "note": 76,
      "start": 37.0723,
      "duration": 0.162,
      "velocity": 98,
      "chip": "ym2612"
    },
    {
      "channel": 1,
      "note": 61,
      "start": 37.1599,
      "duration": 2.8165,
      "velocity": 90,
      "chip": "ym2612"
    },
    {
      "channel": 2,
      "note": 78,
      "start": 37.1604,
      "duration": 0.1618,
      "velocity": 98,
      "chip": "ym2612"
    },
    {
      "channel": 3,
      "note": 85,
      "start": 37.2047,
      "duration": 0.162,
      "velocity": 98,
      "chip": "ym2612"
    },
    {
      "channel": 4,
      "note": 81,
      "start": 37.2492,
      "duration": 0.162,
      "velocity": 98,
      "chip": "ym2612"
    },
    {
      "channel": 2,
      "note": 85,
      "start": 37.3371,
      "duration": 0.1621,
      "velocity": 98,
      "chip": "ym2612"
    },
    {
      "channel": 3,
      "note": 73,
      "start": 37.3817,
      "duration": 0.162,
      "velocity": 98,
      "chip": "ym2612"
    },
    {
      "channel": 4,
      "note": 85,
      "start": 37.4261,
      "duration": 0.1621,
      "velocity": 98,
      "chip": "ym2612"
    },
    {
      "channel": 2,
      "note": 83,
      "start": 37.5145,
      "duration": 0.1616,
      "velocity": 98,
      "chip": "ym2612"
    },
    {
      "channel": 5,
      "note": 66,
      "start": 37.5157,
      "duration": 2.8161,
      "velocity": 90,
      "chip": "ym2612"
    },
    {
      "channel": 3,
      "note": 78,
      "start": 37.5587,
      "duration": 0.162,
      "velocity": 98,
      "chip": "ym2612"
    },
    {
      "channel": 4,
      "note": 73,
      "start": 37.6032,
      "duration": 0.162,
      "velocity": 98,
      "chip": "ym2612"
    },
    {
      "channel": 2,
      "note": 73,
      "start": 37.6911,
      "duration": 0.162,
      "velocity": 98,
      "chip": "ym2612"
    },
    {
      "channel": 3,
      "note": 85,
      "start": 37.7357,
      "duration": 0.1623,
      "velocity": 98,
      "chip": "ym2612"
    },
    {
      "channel": 4,
      "note": 78,
      "start": 37.7806,
      "duration": 0.1616,
      "velocity": 98,
      "chip": "ym2612"
    },
    {
      "channel": 2,
      "note": 78,
      "start": 37.8681,
      "duration": 0.1625,
      "velocity": 98,
      "chip": "ym2612"
    },
    {
      "channel": 3,
      "note": 83,
      "start": 37.9126,
      "duration": 0.162,
      "velocity": 98,
      "chip": "ym2612"
    },
    {
      "channel": 4,
      "note": 85,
      "start": 37.9571,
      "duration": 0.162,
      "velocity": 98,
      "chip": "ym2612"
    },
    {
      "channel": 2,
      "note": 83,
      "start": 38.045,
      "duration": 0.1621,
      "velocity": 98,
      "chip": "ym2612"
    },
    {
      "channel": 3,
      "note": 73,
      "start": 38.0896,
      "duration": 0.1619,
      "velocity": 98,
      "chip": "ym2612"
    },
    {
      "channel": 4,
      "note": 83,
      "start": 38.134,
      "duration": 0.162,
      "velocity": 98,
      "chip": "ym2612"
    },
    {
      "channel": 2,
      "note": 81,
      "start": 38.222,
      "duration": 0.162,
      "velocity": 98,
      "chip": "ym2612"
    },
    {
      "channel": 3,
      "note": 78,
      "start": 38.2665,
      "duration": 0.162,
      "velocity": 98,
      "chip": "ym2612"
    },
    {
      "channel": 4,
      "note": 73,
      "start": 38.311,
      "duration": 0.162,
      "velocity": 98,
      "chip": "ym2612"
    },
    {
      "channel": 2,
      "note": 73,
      "start": 38.3989,
      "duration": 0.162,
      "velocity": 98,
      "chip": "ym2612"
    },
    {
      "channel": 3,
      "note": 83,
      "start": 38.4435,
      "duration": 0.162,
      "velocity": 98,
      "chip": "ym2612"
    },
    {
      "channel": 4,
      "note": 78,
      "start": 38.488,
      "duration": 0.1619,
      "velocity": 98,
      "chip": "ym2612"
    },
    {
      "channel": 2,
      "note": 78,
      "start": 38.5759,
      "duration": 0.162,
      "velocity": 98,
      "chip": "ym2612"
    },
    {
      "channel": 3,
      "note": 81,
      "start": 38.6205,
      "duration": 0.1619,
      "velocity": 98,
      "chip": "ym2612"
    },
    {
      "channel": 4,
      "note": 83,
      "start": 38.6653,
      "duration": 0.1617,
      "velocity": 98,
      "chip": "ym2612"
    },
    {
      "channel": 2,
      "note": 81,
      "start": 38.7529,
      "duration": 0.162,
      "velocity": 98,
      "chip": "ym2612"
    },
    {
      "channel": 3,
      "note": 73,
      "start": 38.7978,
      "duration": 0.1615,
      "velocity": 98,
      "chip": "ym2612"
    },
    {
      "channel": 4,
      "note": 81,
      "start": 38.8419,
      "duration": 0.162,
      "velocity": 98,
      "chip": "ym2612"
    },
    {
      "channel": 2,
      "note": 83,
      "start": 38.9298,
      "duration": 0.162,
      "velocity": 98,
      "chip": "ym2612"
    },
    {
      "channel": 3,
      "note": 78,
      "start": 38.9744,
      "duration": 0.1619,
      "velocity": 98,
      "chip": "ym2612"
    },
    {
      "channel": 4,
      "note": 73,
      "start": 39.0189,
      "duration": 0.1624,
      "velocity": 98,
      "chip": "ym2612"
    },
    {
      "channel": 2,
      "note": 73,
      "start": 39.1067,
      "duration": 0.1621,
      "velocity": 98,
      "chip": "ym2612"
    },
    {
      "channel": 3,
      "note": 81,
      "start": 39.1513,
      "duration": 0.162,
      "velocity": 98,
      "chip": "ym2612"
    },
    {
      "channel": 4,
      "note": 78,
      "start": 39.1958,
      "duration": 0.1621,
      "velocity": 98,
      "chip": "ym2612"
    },
    {
      "channel": 2,
      "note": 78,
      "start": 39.2838,
      "duration": 0.162,
      "velocity": 98,
      "chip": "ym2612"
    },
    {
      "channel": 3,
      "note": 83,
      "start": 39.3283,
      "duration": 0.1619,
      "velocity": 98,
      "chip": "ym2612"
    },
    {
      "channel": 4,
      "note": 81,
      "start": 39.3728,
      "duration": 0.162,
      "velocity": 98,
      "chip": "ym2612"
    },
    {
      "channel": 2,
      "note": 83,
      "start": 39.4607,
      "duration": 0.1621,
      "velocity": 98,
      "chip": "ym2612"
    },
    {
      "channel": 3,
      "note": 73,
      "start": 39.5053,
      "duration": 0.1619,
      "velocity": 98,
      "chip": "ym2612"
    },
    {
      "channel": 4,
      "note": 83,
      "start": 39.5498,
      "duration": 0.162,
      "velocity": 98,
      "chip": "ym2612"
    },
    {
      "channel": 0,
      "note": 52,
      "start": 39.6371,
      "duration": 2.8164,
      "velocity": 90,
      "chip": "ym2612"
    },
    {
      "channel": 2,
      "note": 81,
      "start": 39.6379,
      "duration": 0.1617,
      "velocity": 98,
      "chip": "ym2612"
    },
    {
      "channel": 3,
      "note": 78,
      "start": 39.6822,
      "duration": 0.162,
      "velocity": 98,
      "chip": "ym2612"
    },
    {
      "channel": 4,
      "note": 73,
      "start": 39.7266,
      "duration": 0.162,
      "velocity": 98,
      "chip": "ym2612"
    },
    {
      "channel": 2,
      "note": 71,
      "start": 39.8147,
      "duration": 0.162,
      "velocity": 98,
      "chip": "ym2612"
    },
    {
      "channel": 3,
      "note": 83,
      "start": 39.8592,
      "duration": 0.162,
      "velocity": 98,
      "chip": "ym2612"
    },
    {
      "channel": 4,
      "note": 78,
      "start": 39.9036,
      "duration": 0.162,
      "velocity": 98,
      "chip": "ym2612"
    },
    {
      "channel": 1,
      "note": 59,
      "start": 39.9913,
      "duration": 2.8164,
      "velocity": 90,
      "chip": "ym2612"
    },
    {
      "channel": 2,
      "note": 74,
      "start": 39.9919,
      "duration": 0.1617,
      "velocity": 98,
      "chip": "ym2612"
    },
    {
      "channel": 3,
      "note": 81,
      "start": 40.0361,
      "duration": 0.1621,
      "velocity": 98,
      "chip": "ym2612"
    },
    {
      "channel": 4,
      "note": 83,
      "start": 40.081,
      "duration": 0.1616,
      "velocity": 98,
      "chip": "ym2612"
    },
    {
      "channel": 2,
      "note": 81,
      "start": 40.1685,
      "duration": 0.1625,
      "velocity": 98,
      "chip": "ym2612"
    },
    {
      "channel": 3,
      "note": 71,
      "start": 40.213,
      "duration": 0.162,
      "velocity": 98,
      "chip": "ym2612"
    },
    {
      "channel": 4,
      "note": 81,
      "start": 40.2576,
      "duration": 0.1621,
      "velocity": 98,
      "chip": "ym2612"
    },
    {
      "channel": 2,
      "note": 80,
      "start": 40.3456,
      "duration": 0.162,
      "velocity": 98,
      "chip": "ym2612"
    },
    {
      "channel": 5,
      "note": 64,
      "start": 40.3471,
      "duration": 2.8305,
      "velocity": 90,
      "chip": "ym2612"
    },
    {
      "channel": 3,
      "note": 74,
      "start": 40.3901,
      "duration": 0.162,
      "velocity": 98,
      "chip": "ym2612"
    },
    {
      "channel": 4,
      "note": 71,
      "start": 40.4345,
      "duration": 0.162,
      "velocity": 98,
      "chip": "ym2612"
    },
    {
      "channel": 2,
      "note": 71,
      "start": 40.5224,
      "duration": 0.162,
      "velocity": 98,
      "chip": "ym2612"
    },
    {
      "channel": 3,
      "note": 81,
      "start": 40.5671,
      "duration": 0.162,
      "velocity": 98,
      "chip": "ym2612"
    },
    {
      "channel": 4,
      "note": 74,
      "start": 40.6115,
      "duration": 0.162,
      "velocity": 98,
      "chip": "ym2612"
    },
    {
      "channel": 2,
      "note": 74,
      "start": 40.6994,
      "duration": 0.1621,
      "velocity": 98,
      "chip": "ym2612"
    },
    {
      "channel": 3,
      "note": 80,
      "start": 40.7439,
      "duration": 0.162,
      "velocity": 98,
      "chip": "ym2612"
    },
    {
      "channel": 4,
      "note": 81,
      "start": 40.7885,
      "duration": 0.162,
      "velocity": 98,
      "chip": "ym2612"
    },
    {
      "channel": 2,
      "note": 80,
      "start": 40.8764,
      "duration": 0.162,
      "velocity": 98,
      "chip": "ym2612"
    },
    {
      "channel": 3,
      "note": 71,
      "start": 40.921,
      "duration": 0.1619,
      "velocity": 98,
      "chip": "ym2612"
    },
    {
      "channel": 4,
      "note": 80,
      "start": 40.9655,
      "duration": 0.162,
      "velocity": 98,
      "chip": "ym2612"
    },
    {
      "channel": 2,
      "note": 78,
      "start": 41.0534,
      "duration": 0.162,
      "velocity": 98,
      "chip": "ym2612"
    },
    {
      "channel": 3,
      "note": 74,
      "start": 41.0983,
      "duration": 0.1616,
      "velocity": 98,
      "chip": "ym2612"
    },
    {
      "channel": 4,
      "note": 71,
      "start": 41.1424,
      "duration": 0.162,
      "velocity": 98,
      "chip": "ym2612"
    },
    {
      "channel": 2,
      "note": 71,
      "start": 41.2307,
      "duration": 0.1616,
      "velocity": 98,
      "chip": "ym2612"
    },
    {
      "channel": 3,
      "note": 80,
      "start": 41.2749,
      "duration": 0.162,
      "velocity": 98,
      "chip": "ym2612"
    },
    {
      "channel": 4,
      "note": 74,
      "start": 41.3194,
      "duration": 0.1623,
      "velocity": 98,
      "chip": "ym2612"
    },
    {
      "channel": 2,
      "note": 74,
      "start": 41.4073,
      "duration": 0.162,
      "velocity": 98,
      "chip": "ym2612"
    },
    {
      "channel": 3,
      "note": 78,
      "start": 41.4519,
      "duration": 0.1623,
      "velocity": 98,
      "chip": "ym2612"
    },
    {
      "channel": 4,
      "note": 80,
      "start": 41.4963,
      "duration": 0.1621,
      "velocity": 98,
      "chip": "ym2612"
    },
    {
      "channel": 2,
      "note": 78,
      "start": 41.5842,
      "duration": 0.162,
      "velocity": 98,
      "chip": "ym2612"
    },
    {
      "channel": 3,
      "note": 71,
      "start": 41.6288,
      "duration": 0.162,
      "velocity": 98,
      "chip": "ym2612"
    },
    {
      "channel": 4,
      "note": 78,
      "start": 41.6733,
      "duration": 0.162,
      "velocity": 98,
      "chip": "ym2612"
    },
    {
      "channel": 2,
      "note": 80,
      "start": 41.7612,
      "duration": 0.162,
      "velocity": 98,
      "chip": "ym2612"
    },
    {
      "channel": 3,
      "note": 74,
      "start": 41.8058,
      "duration": 0.1619,
      "velocity": 98,
      "chip": "ym2612"
    },
    {
      "channel": 4,
      "note": 71,
      "start": 41.8502,
      "duration": 0.162,
      "velocity": 98,
      "chip": "ym2612"
    },
    {
      "channel": 2,
      "note": 71,
      "start": 41.9382,
      "duration": 0.1621,
      "velocity": 98,
      "chip": "ym2612"
    },
    {
      "channel": 3,
      "note": 78,
      "start": 41.9827,
      "duration": 0.162,
      "velocity": 98,
      "chip": "ym2612"
    },
    {
      "channel": 4,
      "note": 74,
      "start": 42.0272,
      "duration": 0.162,
      "velocity": 98,
      "chip": "ym2612"
    },
    {
      "channel": 2,
      "note": 74,
      "start": 42.1151,
      "duration": 0.1621,
      "velocity": 98,
      "chip": "ym2612"
    },
    {
      "channel": 3,
      "note": 80,
      "start": 42.1597,
      "duration": 0.162,
      "velocity": 98,
      "chip": "ym2612"
    },
    {
      "channel": 4,
      "note": 78,
      "start": 42.2041,
      "duration": 0.162,
      "velocity": 98,
      "chip": "ym2612"
    },
    {
      "channel": 2,
      "note": 80,
      "start": 42.2921,
      "duration": 0.162,
      "velocity": 98,
      "chip": "ym2612"
    },
    {
      "channel": 3,
      "note": 71,
      "start": 42.3366,
      "duration": 0.1619,
      "velocity": 98,
      "chip": "ym2612"
    },
    {
      "channel": 4,
      "note": 80,
      "start": 42.3815,
      "duration": 0.1616,
      "velocity": 98,
      "chip": "ym2612"
    },
    {
      "channel": 0,
      "note": 52,
      "start": 42.4685,
      "duration": 2.2414,
      "velocity": 90,
      "chip": "ym2612"
    },
    {
      "channel": 2,
      "note": 78,
      "start": 42.4693,
      "duration": 0.1619,
      "velocity": 98,
      "chip": "ym2612"
    },
    {
      "channel": 3,
      "note": 74,
      "start": 42.5139,
      "duration": 0.1616,
      "velocity": 98,
      "chip": "ym2612"
    },
    {
      "channel": 4,
      "note": 71,
      "start": 42.5581,
      "duration": 0.162,
      "velocity": 98,
      "chip": "ym2612"
    },
    {
      "channel": 2,
      "note": 68,
      "start": 42.6459,
      "duration": 0.1621,
      "velocity": 98,
      "chip": "ym2612"
    },
    {
      "channel": 3,
      "note": 80,
      "start": 42.6906,
      "duration": 0.1619,
      "velocity": 98,
      "chip": "ym2612"
    },
    {
      "channel": 4,
      "note": 74,
      "start": 42.7351,
      "duration": 0.1623,
      "velocity": 98,
      "chip": "ym2612"
    },
    {
      "channel": 1,
      "note": 59,
      "start": 42.8227,
      "duration": 3.3179,
      "velocity": 90,
      "chip": "ym2612"
    },
    {
      "channel": 2,
      "note": 71,
      "start": 42.8232,
      "duration": 0.1617,
      "velocity": 98,
      "chip": "ym2612"
    },
    {
      "channel": 3,
      "note": 78,
      "start": 42.8675,
      "duration": 0.162,
      "velocity": 98,
      "chip": "ym2612"
    },
    {
      "channel": 4,
      "note": 80,
      "start": 42.912,
      "duration": 0.162,
      "velocity": 98,
      "chip": "ym2612"
    },
    {
      "channel": 2,
      "note": 78,
      "start": 42.9999,
      "duration": 0.1768,
      "velocity": 98,
      "chip": "ym2612"
    },
    {
      "channel": 3,
      "note": 68,
      "start": 43.0445,
      "duration": 0.162,
      "velocity": 98,
      "chip": "ym2612"
    },
    {
      "channel": 4,
      "note": 78,
      "start": 43.0889,
      "duration": 0.1621,
      "velocity": 98,
      "chip": "ym2612"
    },
    {
      "channel": 2,
      "note": 76,
      "start": 43.1917,
      "duration": 0.162,
      "velocity": 98,
      "chip": "ym2612"
    },
    {
      "channel": 5,
      "note": 64,
      "start": 43.1928,
      "duration": 3.3028,
      "velocity": 90,
      "chip": "ym2612"
    },
    {
      "channel": 3,
      "note": 71,
      "start": 43.2214,
      "duration": 0.1768,
      "velocity": 98,
      "chip": "ym2612"
    },
    {
      "channel": 4,
      "note": 68,
      "start": 43.266,
      "duration": 0.162,
      "velocity": 98,
      "chip": "ym2612"
    },
    {
      "channel": 2,
      "note": 68,
      "start": 43.3686,
      "duration": 0.1625,
      "velocity": 98,
      "chip": "ym2612"
    },
    {
      "channel": 3,
      "note": 78,
      "start": 43.4132,
      "duration": 0.162,
      "velocity": 98,
      "chip": "ym2612"
    },
    {
      "channel": 4,
      "note": 71,
      "start": 43.4429,
      "duration": 0.1768,
      "velocity": 98,
      "chip": "ym2612"
    },
    {
      "channel": 2,
      "note": 71,
      "start": 43.5456,
      "duration": 0.1767,
      "velocity": 98,
      "chip": "ym2612"
    },
    {
      "channel": 3,
      "note": 76,
      "start": 43.5901,
      "duration": 0.1621,
      "velocity": 98,
      "chip": "ym2612"
    },
    {
      "channel": 4,
      "note": 78,
      "start": 43.6346,
      "duration": 0.162,
      "velocity": 98,
      "chip": "ym2612"
    },
    {
      "channel": 2,
      "note": 76,
      "start": 43.7373,
      "duration": 0.1772,
      "velocity": 98,
      "chip": "ym2612"
    },
    {
      "channel": 3,
      "note": 68,
      "start": 43.7671,
      "duration": 0.1767,
      "velocity": 98,
      "chip": "ym2612"
    },
    {
      "channel": 4,
      "note": 76,
      "start": 43.8116,
      "duration": 0.162,
      "velocity": 98,
      "chip": "ym2612"
    },
    {
      "channel": 2,
      "note": 75,
      "start": 43.9289,
      "duration": 0.1768,
      "velocity": 98,
      "chip": "ym2612"
    },
    {
      "channel": 3,
      "note": 71,
      "start": 43.9588,
      "duration": 0.1768,
      "velocity": 98,
      "chip": "ym2612"
    },
    {
      "channel": 4,
      "note": 68,
      "start": 43.9885,
      "duration": 0.1767,
      "velocity": 98,
      "chip": "ym2612"
    },
    {
      "channel": 2,
      "note": 68,
      "start": 44.1207,
      "duration": 0.1772,
      "velocity": 98,
      "chip": "ym2612"
    },
    {
      "channel": 3,
      "note": 76,
      "start": 44.1505,
      "duration": 0.1767,
      "velocity": 98,
      "chip": "ym2612"
    },
    {
      "channel": 4,
      "note": 71,
      "start": 44.1807,
      "duration": 0.1763,
      "velocity": 98,
      "chip": "ym2612"
    },
    {
      "channel": 2,
      "note": 71,
      "start": 44.3123,
      "duration": 0.1915,
      "velocity": 98,
      "chip": "ym2612"
    },
    {
      "channel": 3,
      "note": 75,
      "start": 44.3422,
      "duration": 0.1769,
      "velocity": 98,
      "chip": "ym2612"
    },
    {
      "channel": 4,
      "note": 76,
      "start": 44.372,
      "duration": 0.1768,
      "velocity": 98,
      "chip": "ym2612"
    },
    {
      "channel": 2,
      "note": 75,
      "start": 44.5188,
      "duration": 0.1915,
      "velocity": 98,
      "chip": "ym2612"
    },
    {
      "channel": 3,
      "note": 68,
      "start": 44.5339,
      "duration": 0.192,
      "velocity": 98,
      "chip": "ym2612"
    },
    {
      "channel": 4,
      "note": 75,
      "start": 44.5641,
      "duration": 0.1766,
      "velocity": 98,
      "chip": "ym2612"
    },
    {
      "channel": 0,
      "note": 52,
      "start": 44.7247,
      "duration": 1.0616,
      "velocity": 90,
      "chip": "ym2612"
    },
    {
      "channel": 2,
      "note": 76,
      "start": 44.7255,
      "duration": 0.2061,
      "velocity": 98,
      "chip": "ym2612"
    },
    {
      "channel": 3,
      "note": 71,
      "start": 44.7403,
      "duration": 0.1915,
      "velocity": 98,
      "chip": "ym2612"
    },
    {
      "channel": 4,
      "note": 68,
      "start": 44.7554,
      "duration": 0.1925,
      "velocity": 98,
      "chip": "ym2612"
    },
    {
      "channel": 2,
      "note": 68,
      "start": 44.9464,
      "duration": 0.221,
      "velocity": 98,
      "chip": "ym2612"
    },
    {
      "channel": 3,
      "note": 75,
      "start": 44.9475,
      "duration": 0.2055,
      "velocity": 98,
      "chip": "ym2612"
    },
    {
      "channel": 4,
      "note": 71,
      "start": 44.9618,
      "duration": 0.1916,
      "velocity": 98,
      "chip": "ym2612"
    },
    {
      "channel": 3,
      "note": 76,
      "start": 45.1681,
      "duration": 0.2209,
      "velocity": 98,
      "chip": "ym2612"
    },
    {
      "channel": 4,
      "note": 75,
      "start": 45.1687,
      "duration": 0.2059,
      "velocity": 98,
      "chip": "ym2612"
    },
    {
      "channel": 2,
      "note": 71,
      "start": 45.1824,
      "duration": 0.2505,
      "velocity": 98,
      "chip": "ym2612"
    },
    {
      "channel": 4,
      "note": 76,
      "start": 45.3896,
      "duration": 0.2209,
      "velocity": 98,
      "chip": "ym2612"
    },
    {
      "channel": 3,
      "note": 68,
      "start": 45.4039,
      "duration": 0.2505,
      "velocity": 98,
      "chip": "ym2612"
    },
    {
      "channel": 2,
      "note": 76,
      "start": 45.448,
      "duration": 0.3389,
      "velocity": 98,
      "chip": "ym2612"
    },
    {
      "channel": 4,
      "note": 68,
      "start": 45.6254,
      "duration": 0.2504,
      "velocity": 98,
      "chip": "ym2612"
    },
    {
      "channel": 3,
      "note": 71,
      "start": 45.6694,
      "duration": 0.3389,
      "velocity": 98,
      "chip": "ym2612"
    },
    {
      "channel": 0,
      "note": 50,
      "start": 45.8015,
      "duration": 2.8163,
      "velocity": 90,
      "chip": "ym2612"
    },
    {
      "channel": 2,
      "note": 80,
      "start": 45.8025,
      "duration": 0.1618,
      "velocity": 98,
      "chip": "ym2612"
    },
    {
      "channel": 4,
      "note": 71,
      "start": 45.8908,
      "duration": 0.3389,
      "velocity": 98,
      "chip": "ym2612"
    },
    {
      "channel": 2,
      "note": 69,
      "start": 45.9788,
      "duration": 0.1621,
      "velocity": 98,
      "chip": "ym2612"
    },
    {
      "channel": 3,
      "note": 76,
      "start": 46.0236,
      "duration": 0.1616,
      "velocity": 98,
      "chip": "ym2612"
    },
    {
      "channel": 1,
      "note": 57,
      "start": 46.1573,
      "duration": 2.4748,
      "velocity": 90,
      "chip": "ym2612"
    },
    {
      "channel": 2,
      "note": 73,
      "start": 46.1577,
      "duration": 0.16,
      "velocity": 98,
      "chip": "ym2612"
    },
    {
      "channel": 3,
      "note": 80,
      "start": 46.2002,
      "duration": 0.162,
      "velocity": 98,
      "chip": "ym2612"
    },
    {
      "channel": 4,
      "note": 76,
      "start": 46.245,
      "duration": 0.1617,
      "velocity": 98,
      "chip": "ym2612"
    },
    {
      "channel": 2,
      "note": 80,
      "start": 46.3326,
      "duration": 0.1621,
      "velocity": 98,
      "chip": "ym2612"
    },
    {
      "channel": 3,
      "note": 69,
      "start": 46.3772,
      "duration": 0.162,
      "velocity": 98,
      "chip": "ym2612"
    },
    {
      "channel": 4,
      "note": 80,
      "start": 46.4217,
      "duration": 0.1621,
      "velocity": 98,
      "chip": "ym2612"
    },
    {
      "channel": 2,
      "note": 78,
      "start": 46.5097,
      "duration": 0.162,
      "velocity": 98,
      "chip": "ym2612"
    },
    {
      "channel": 5,
      "note": 66,
      "start": 46.5136,
      "duration": 2.1185,
      "velocity": 90,
      "chip": "ym2612"
    },
    {
      "channel": 3,
      "note": 73,
      "start": 46.5542,
      "duration": 0.162,
      "velocity": 98,
      "chip": "ym2612"
    },
    {
      "channel": 4,
      "note": 69,
      "start": 46.5987,
      "duration": 0.162,
      "velocity": 98,
      "chip": "ym2612"
    },
    {
      "channel": 2,
      "note": 69,
      "start": 46.6866,
      "duration": 0.162,
      "velocity": 98,
      "chip": "ym2612"
    },
    {
      "channel": 3,
      "note": 80,
      "start": 46.7316,
      "duration": 0.1615,
      "velocity": 98,
      "chip": "ym2612"
    },
    {
      "channel": 4,
      "note": 73,
      "start": 46.7756,
      "duration": 0.1621,
      "velocity": 98,
      "chip": "ym2612"
    },
    {
      "channel": 2,
      "note": 73,
      "start": 46.864,
      "duration": 0.1617,
      "velocity": 98,
      "chip": "ym2612"
    },
    {
      "channel": 3,
      "note": 78,
      "start": 46.9081,
      "duration": 0.162,
      "velocity": 98,
      "chip": "ym2612"
    },
    {
      "channel": 4,
      "note": 80,
      "start": 46.9526,
      "duration": 0.1624,
      "velocity": 98,
      "chip": "ym2612"
    },
    {
      "channel": 2,
      "note": 78,
      "start": 47.0405,
      "duration": 0.1621,
      "velocity": 98,
      "chip": "ym2612"
    },
    {
      "channel": 3,
      "note": 69,
      "start": 47.0851,
      "duration": 0.1623,
      "velocity": 98,
      "chip": "ym2612"
    },
    {
      "channel": 4,
      "note": 78,
      "start": 47.1296,
      "duration": 0.162,
      "velocity": 98,
      "chip": "ym2612"
    },
    {
      "channel": 2,
      "note": 77,
      "start": 47.2175,
      "duration": 0.1621,
      "velocity": 98,
      "chip": "ym2612"
    },
    {
      "channel": 3,
      "note": 73,
      "start": 47.262,
      "duration": 0.162,
      "velocity": 98,
      "chip": "ym2612"
    },
    {
      "channel": 4,
      "note": 69,
      "start": 47.3066,
      "duration": 0.162,
      "velocity": 98,
      "chip": "ym2612"
    },
    {
      "channel": 2,
      "note": 69,
      "start": 47.3945,
      "duration": 0.162,
      "velocity": 98,
      "chip": "ym2612"
    },
    {
      "channel": 3,
      "note": 78,
      "start": 47.439,
      "duration": 0.162,
      "velocity": 98,
      "chip": "ym2612"
    },
    {
      "channel": 4,
      "note": 73,
      "start": 47.4835,
      "duration": 0.162,
      "velocity": 98,
      "chip": "ym2612"
    },
    {
      "channel": 2,
      "note": 73,
      "start": 47.5714,
      "duration": 0.162,
      "velocity": 98,
      "chip": "ym2612"
    },
    {
      "channel": 3,
      "note": 77,
      "start": 47.616,
      "duration": 0.1619,
      "velocity": 98,
      "chip": "ym2612"
    },
    {
      "channel": 4,
      "note": 78,
      "start": 47.6605,
      "duration": 0.162,
      "velocity": 98,
      "chip": "ym2612"
    },
    {
      "channel": 2,
      "note": 77,
      "start": 47.7483,
      "duration": 0.1621,
      "velocity": 98,
      "chip": "ym2612"
    },
    {
      "channel": 3,
      "note": 69,
      "start": 47.7929,
      "duration": 0.162,
      "velocity": 98,
      "chip": "ym2612"
    },
    {
      "channel": 4,
      "note": 77,
      "start": 47.8375,
      "duration": 0.162,
      "velocity": 98,
      "chip": "ym2612"
    },
    {
      "channel": 2,
      "note": 78,
      "start": 47.9253,
      "duration": 0.1621,
      "velocity": 98,
      "chip": "ym2612"
    },
    {
      "channel": 3,
      "note": 73,
      "start": 47.97,
      "duration": 0.1619,
      "velocity": 98,
      "chip": "ym2612"
    },
    {
      "channel": 4,
      "note": 69,
      "start": 48.0148,
      "duration": 0.1616,
      "velocity": 98,
      "chip": "ym2612"
    },
    {
      "channel": 2,
      "note": 69,
      "start": 48.1023,
      "duration": 0.1623,
      "velocity": 98,
      "chip": "ym2612"
    },
    {
      "channel": 3,
      "note": 77,
      "start": 48.1473,
      "duration": 0.1616,
      "velocity": 98,
      "chip": "ym2612"
    },
    {
      "channel": 4,
      "note": 73,
      "start": 48.1913,
      "duration": 0.162,
      "velocity": 98,
      "chip": "ym2612"
    },
    {
      "channel": 2,
      "note": 73,
      "start": 48.2793,
      "duration": 0.162,
      "velocity": 98,
      "chip": "ym2612"
    },
    {
      "channel": 3,
      "note": 78,
      "start": 48.3239,
      "duration": 0.162,
      "velocity": 98,
      "chip": "ym2612"
    },
    {
      "channel": 4,
      "note": 77,
      "start": 48.3683,
      "duration": 0.1624,
      "velocity": 98,
      "chip": "ym2612"
    },
    {
      "channel": 2,
      "note": 78,
      "start": 48.4562,
      "duration": 0.162,
      "velocity": 98,
      "chip": "ym2612"
    },
    {
      "channel": 3,
      "note": 69,
      "start": 48.5008,
      "duration": 0.1312,
      "velocity": 98,
      "chip": "ym2612"
    },
    {
      "channel": 4,
      "note": 78,
      "start": 48.5453,
      "duration": 0.0868,
      "velocity": 98,
      "chip": "ym2612"
    }
  ]
}