{
  "track_name": "23 - Down Right Attack",
  "duration_sec": 127.425,
  "sample_rate": 44100,
  "note_count": 2896,
  "unique_pitches": 34,
  "pitch_range": 91,
  "avg_note_duration": 0.1672,
  "reconstruction_stats": {
    "notes_reconstructed": 2896,
    "keyon_events": 2896,
    "keyoff_events": 2894,
    "orphan_keyons": 2,
    "unique_pitches": 34,
    "pitch_range": 91,
    "avg_duration_sec": 0.1672
  },
  "metadata": {
    "source": "T\\Thunder Force IV\\23 - Down Right Attack.vgz"
  },
  "notes": [
    {
      "channel": 0,
      "note": 21,
      "start": 0.0,
      "duration": 0.0067,
      "velocity": 108,
      "chip": "ym2612"
    },
    {
      "channel": 1,
      "note": 21,
      "start": 0.0,
      "duration": 0.0069,
      "velocity": 108,
      "chip": "ym2612"
    },
    {
      "channel": 2,
      "note": 21,
      "start": 0.0006,
      "duration": 0.0065,
      "velocity": 108,
      "chip": "ym2612"
    },
    {
      "channel": 3,
      "note": 21,
      "start": 0.0022,
      "duration": 0.0051,
      "velocity": 108,
      "chip": "ym2612"
    },
    {
      "channel": 4,
      "note": 21,
      "start": 0.216,
      "duration": 0.024,
      "velocity": 108,
      "chip": "ym2612"
    },
    {
      "channel": 5,
      "note": 21,
      "start": 0.2177,
      "duration": 0.0226,
      "velocity": 108,
      "chip": "ym2612"
    },
    {
      "channel": 0,
      "note": 73,
      "start": 0.6071,
      "duration": 0.2538,
      "velocity": 95,
      "chip": "ym2612"
    },
    {
      "channel": 1,
      "note": 42,
      "start": 0.6121,
      "duration": 0.5594,
      "velocity": 108,
      "chip": "ym2612"
    },
    {
      "channel": 2,
      "note": 69,
      "start": 0.6183,
      "duration": 0.2428,
      "velocity": 95,
      "chip": "ym2612"
    },
    {
      "channel": 3,
      "note": 61,
      "start": 0.6237,
      "duration": 0.0822,
      "velocity": 127,
      "chip": "ym2612"
    },
    {
      "channel": 4,
      "note": 73,
      "start": 0.8408,
      "duration": 0.2537,
      "velocity": 95,
      "chip": "ym2612"
    },
    {
      "channel": 5,
      "note": 69,
      "start": 0.8462,
      "duration": 0.2486,
      "velocity": 95,
      "chip": "ym2612"
    },
    {
      "channel": 0,
      "note": 66,
      "start": 0.9149,
      "duration": 0.2565,
      "velocity": 95,
      "chip": "ym2612"
    },
    {
      "channel": 2,
      "note": 66,
      "start": 0.9167,
      "duration": 0.2551,
      "velocity": 95,
      "chip": "ym2612"
    },
    {
      "channel": 4,
      "note": 66,
      "start": 1.1487,
      "duration": 0.2568,
      "velocity": 95,
      "chip": "ym2612"
    },
    {
      "channel": 5,
      "note": 66,
      "start": 1.1504,
      "duration": 0.2553,
      "velocity": 95,
      "chip": "ym2612"
    },
    {
      "channel": 0,
      "note": 73,
      "start": 1.2247,
      "duration": 0.2573,
      "velocity": 95,
      "chip": "ym2612"
    },
    {
      "channel": 1,
      "note": 42,
      "start": 1.2264,
      "duration": 0.1525,
      "velocity": 108,
      "chip": "ym2612"
    },
    {
      "channel": 2,
      "note": 69,
      "start": 1.2282,
      "duration": 0.254,
      "velocity": 95,
      "chip": "ym2612"
    },
    {
      "channel": 3,
      "note": 61,
      "start": 1.2312,
      "duration": 0.0959,
      "velocity": 127,
      "chip": "ym2612"
    },
    {
      "channel": 1,
      "note": 42,
      "start": 1.4331,
      "duration": 0.1524,
      "velocity": 108,
      "chip": "ym2612"
    },
    {
      "channel": 3,
      "note": 61,
      "start": 1.4353,
      "duration": 0.102,
      "velocity": 127,
      "chip": "ym2612"
    },
    {
      "channel": 4,
      "note": 73,
      "start": 1.4592,
      "duration": 0.2561,
      "velocity": 95,
      "chip": "ym2612"
    },
    {
      "channel": 5,
      "note": 69,
      "start": 1.4611,
      "duration": 0.2545,
      "velocity": 95,
      "chip": "ym2612"
    },
    {
      "channel": 0,
      "note": 66,
      "start": 1.5352,
      "duration": 0.2574,
      "velocity": 95,
      "chip": "ym2612"
    },
    {
      "channel": 2,
      "note": 66,
      "start": 1.537,
      "duration": 0.256,
      "velocity": 95,
      "chip": "ym2612"
    },
    {
      "channel": 1,
      "note": 42,
      "start": 1.6387,
      "duration": 0.154,
      "velocity": 108,
      "chip": "ym2612"
    },
    {
      "channel": 3,
      "note": 61,
      "start": 1.641,
      "duration": 0.1002,
      "velocity": 127,
      "chip": "ym2612"
    },
    {
      "channel": 4,
      "note": 66,
      "start": 1.769,
      "duration": 0.2573,
      "velocity": 95,
      "chip": "ym2612"
    },
    {
      "channel": 5,
      "note": 66,
      "start": 1.7707,
      "duration": 0.2559,
      "velocity": 95,
      "chip": "ym2612"
    },
    {
      "channel": 0,
      "note": 73,
      "start": 1.8459,
      "duration": 0.2572,
      "velocity": 95,
      "chip": "ym2612"
    },
    {
      "channel": 1,
      "note": 42,
      "start": 1.8484,
      "duration": 0.566,
      "velocity": 108,
      "chip": "ym2612"
    },
    {
      "channel": 2,
      "note": 69,
      "start": 1.8502,
      "duration": 0.2532,
      "velocity": 95,
      "chip": "ym2612"
    },
    {
      "channel": 3,
      "note": 61,
      "start": 1.8523,
      "duration": 0.0959,
      "velocity": 127,
      "chip": "ym2612"
    },
    {
      "channel": 4,
      "note": 73,
      "start": 2.0797,
      "duration": 0.2572,
      "velocity": 95,
      "chip": "ym2612"
    },
    {
      "channel": 5,
      "note": 69,
      "start": 2.0824,
      "duration": 0.2547,
      "velocity": 95,
      "chip": "ym2612"
    },
    {
      "channel": 0,
      "note": 66,
      "start": 2.1563,
      "duration": 0.2579,
      "velocity": 95,
      "chip": "ym2612"
    },
    {
      "channel": 2,
      "note": 66,
      "start": 2.1581,
      "duration": 0.2565,
      "velocity": 95,
      "chip": "ym2612"
    },
    {
      "channel": 4,
      "note": 66,
      "start": 2.3901,
      "duration": 0.2583,
      "velocity": 95,
      "chip": "ym2612"
    },
    {
      "channel": 5,
      "note": 66,
      "start": 2.3919,
      "duration": 0.2567,
      "velocity": 95,
      "chip": "ym2612"
    },
    {
      "channel": 0,
      "note": 73,
      "start": 2.467,
      "duration": 0.2573,
      "velocity": 95,
      "chip": "ym2612"
    },
    {
      "channel": 1,
      "note": 42,
      "start": 2.4687,
      "duration": 0.5664,
      "velocity": 108,
      "chip": "ym2612"
    },
    {
      "channel": 2,
      "note": 69,
      "start": 2.4705,
      "duration": 0.2541,
      "velocity": 95,
      "chip": "ym2612"
    },
    {
      "channel": 3,
      "note": 61,
      "start": 2.4726,
      "duration": 0.0968,
      "velocity": 127,
      "chip": "ym2612"
    },
    {
      "channel": 4,
      "note": 73,
      "start": 2.7009,
      "duration": 0.2572,
      "velocity": 95,
      "chip": "ym2612"
    },
    {
      "channel": 5,
      "note": 69,
      "start": 2.7027,
      "duration": 0.2556,
      "velocity": 95,
      "chip": "ym2612"
    },
    {
      "channel": 0,
      "note": 66,
      "start": 2.7775,
      "duration": 0.2574,
      "velocity": 95,
      "chip": "ym2612"
    },
    {
      "channel": 2,
      "note": 66,
      "start": 2.7793,
      "duration": 0.256,
      "velocity": 95,
      "chip": "ym2612"
    },
    {
      "channel": 4,
      "note": 66,
      "start": 3.0113,
      "duration": 0.2581,
      "velocity": 95,
      "chip": "ym2612"
    },
    {
      "channel": 5,
      "note": 66,
      "start": 3.013,
      "duration": 0.2566,
      "velocity": 95,
      "chip": "ym2612"
    },
    {
      "channel": 0,
      "note": 72,
      "start": 3.0887,
      "duration": 0.2568,
      "velocity": 95,
      "chip": "ym2612"
    },
    {
      "channel": 1,
      "note": 42,
      "start": 3.0936,
      "duration": 0.5627,
      "velocity": 108,
      "chip": "ym2612"
    },
    {
      "channel": 2,
      "note": 68,
      "start": 3.0959,
      "duration": 0.2499,
      "velocity": 95,
      "chip": "ym2612"
    },
    {
      "channel": 3,
      "note": 61,
      "start": 3.099,
      "duration": 0.0919,
      "velocity": 127,
      "chip": "ym2612"
    },
    {
      "channel": 4,
      "note": 72,
      "start": 3.3224,
      "duration": 0.2568,
      "velocity": 95,
      "chip": "ym2612"
    },
    {
      "channel": 5,
      "note": 68,
      "start": 3.3247,
      "duration": 0.2548,
      "velocity": 95,
      "chip": "ym2612"
    },
    {
      "channel": 0,
      "note": 66,
      "start": 3.399,
      "duration": 0.2571,
      "velocity": 95,
      "chip": "ym2612"
    },
    {
      "channel": 2,
      "note": 66,
      "start": 3.4007,
      "duration": 0.2557,
      "velocity": 95,
      "chip": "ym2612"
    },
    {
      "channel": 4,
      "note": 66,
      "start": 3.6332,
      "duration": 0.2567,
      "velocity": 95,
      "chip": "ym2612"
    },
    {
      "channel": 5,
      "note": 66,
      "start": 3.6349,
      "duration": 0.2552,
      "velocity": 95,
      "chip": "ym2612"
    },
    {
      "channel": 0,
      "note": 72,
      "start": 3.7094,
      "duration": 0.2573,
      "velocity": 95,
      "chip": "ym2612"
    },
    {
      "channel": 1,
      "note": 42,
      "start": 3.7111,
      "duration": 0.153,
      "velocity": 108,
      "chip": "ym2612"
    },
    {
      "channel": 2,
      "note": 68,
      "start": 3.7129,
      "duration": 0.254,
      "velocity": 95,
      "chip": "ym2612"
    },
    {
      "channel": 3,
      "note": 61,
      "start": 3.7158,
      "duration": 0.0959,
      "velocity": 127,
      "chip": "ym2612"
    },
    {
      "channel": 1,
      "note": 42,
      "start": 3.9164,
      "duration": 0.1539,
      "velocity": 108,
      "chip": "ym2612"
    },
    {
      "channel": 3,
      "note": 61,
      "start": 3.9186,
      "duration": 0.1033,
      "velocity": 127,
      "chip": "ym2612"
    },
    {
      "channel": 4,
      "note": 72,
      "start": 3.9432,
      "duration": 0.2568,
      "velocity": 95,
      "chip": "ym2612"
    },
    {
      "channel": 5,
      "note": 68,
      "start": 3.945,
      "duration": 0.2552,
      "velocity": 95,
      "chip": "ym2612"
    },
    {
      "channel": 0,
      "note": 66,
      "start": 4.0199,
      "duration": 0.2573,
      "velocity": 95,
      "chip": "ym2612"
    },
    {
      "channel": 2,
      "note": 66,
      "start": 4.0217,
      "duration": 0.2559,
      "velocity": 95,
      "chip": "ym2612"
    },
    {
      "channel": 1,
      "note": 42,
      "start": 4.1235,
      "duration": 0.1539,
      "velocity": 108,
      "chip": "ym2612"
    },
    {
      "channel": 3,
      "note": 61,
      "start": 4.1257,
      "duration": 0.1002,
      "velocity": 127,
      "chip": "ym2612"
    },
    {
      "channel": 4,
      "note": 66,
      "start": 4.2537,
      "duration": 0.2573,
      "velocity": 95,
      "chip": "ym2612"
    },
    {
      "channel": 5,
      "note": 66,
      "start": 4.2554,
      "duration": 0.2559,
      "velocity": 95,
      "chip": "ym2612"
    },
    {
      "channel": 0,
      "note": 72,
      "start": 4.3314,
      "duration": 0.2564,
      "velocity": 95,
      "chip": "ym2612"
    },
    {
      "channel": 1,
      "note": 42,
      "start": 4.3331,
      "duration": 0.5655,
      "velocity": 108,
      "chip": "ym2612"
    },
    {
      "channel": 2,
      "note": 68,
      "start": 4.3349,
      "duration": 0.2532,
      "velocity": 95,
      "chip": "ym2612"
    },
    {
      "channel": 3,
      "note": 61,
      "start": 4.337,
      "duration": 0.0959,
      "velocity": 127,
      "chip": "ym2612"
    },
    {
      "channel": 4,
      "note": 72,
      "start": 4.5652,
      "duration": 0.2564,
      "velocity": 95,
      "chip": "ym2612"
    },
    {
      "channel": 5,
      "note": 68,
      "start": 4.567,
      "duration": 0.2548,
      "velocity": 95,
      "chip": "ym2612"
    },
    {
      "channel": 0,
      "note": 66,
      "start": 4.641,
      "duration": 0.2574,
      "velocity": 95,
      "chip": "ym2612"
    },
    {
      "channel": 2,
      "note": 66,
      "start": 4.6428,
      "duration": 0.256,
      "velocity": 95,
      "chip": "ym2612"
    },
    {
      "channel": 4,
      "note": 66,
      "start": 4.8749,
      "duration": 0.2573,
      "velocity": 95,
      "chip": "ym2612"
    },
    {
      "channel": 5,
      "note": 66,
      "start": 4.8765,
      "duration": 0.2559,
      "velocity": 95,
      "chip": "ym2612"
    },
    {
      "channel": 0,
      "note": 72,
      "start": 4.9518,
      "duration": 0.2572,
      "velocity": 95,
      "chip": "ym2612"
    },
    {
      "channel": 1,
      "note": 42,
      "start": 4.9534,
      "duration": 0.5664,
      "velocity": 108,
      "chip": "ym2612"
    },
    {
      "channel": 2,
      "note": 68,
      "start": 4.9552,
      "duration": 0.2541,
      "velocity": 95,
      "chip": "ym2612"
    },
    {
      "channel": 3,
      "note": 61,
      "start": 4.9573,
      "duration": 0.0975,
      "velocity": 127,
      "chip": "ym2612"
    },
    {
      "channel": 4,
      "note": 72,
      "start": 5.1856,
      "duration": 0.2572,
      "velocity": 95,
      "chip": "ym2612"
    },
    {
      "channel": 5,
      "note": 68,
      "start": 5.1873,
      "duration": 0.2557,
      "velocity": 95,
      "chip": "ym2612"
    },
    {
      "channel": 0,
      "note": 66,
      "start": 5.2622,
      "duration": 0.2574,
      "velocity": 95,
      "chip": "ym2612"
    },
    {
      "channel": 2,
      "note": 66,
      "start": 5.2648,
      "duration": 0.2551,
      "velocity": 95,
      "chip": "ym2612"
    },
    {
      "channel": 4,
      "note": 66,
      "start": 5.4961,
      "duration": 0.2573,
      "velocity": 95,
      "chip": "ym2612"
    },
    {
      "channel": 5,
      "note": 66,
      "start": 5.4985,
      "duration": 0.255,
      "velocity": 95,
      "chip": "ym2612"
    },
    {
      "channel": 0,
      "note": 71,
      "start": 5.5733,
      "duration": 0.2575,
      "velocity": 95,
      "chip": "ym2612"
    },
    {
      "channel": 1,
      "note": 42,
      "start": 5.5784,
      "duration": 0.5626,
      "velocity": 108,
      "chip": "ym2612"
    },
    {
      "channel": 2,
      "note": 68,
      "start": 5.5814,
      "duration": 0.2498,
      "velocity": 95,
      "chip": "ym2612"
    },
    {
      "channel": 3,
      "note": 61,
      "start": 5.5837,
      "duration": 0.0915,
      "velocity": 127,
      "chip": "ym2612"
    },
    {
      "channel": 4,
      "note": 71,
      "start": 5.8071,
      "duration": 0.2578,
      "velocity": 95,
      "chip": "ym2612"
    },
    {
      "channel": 5,
      "note": 68,
      "start": 5.8093,
      "duration": 0.2557,
      "velocity": 95,
      "chip": "ym2612"
    },
    {
      "channel": 0,
      "note": 66,
      "start": 5.8834,
      "duration": 0.2574,
      "velocity": 95,
      "chip": "ym2612"
    },
    {
      "channel": 2,
      "note": 66,
      "start": 5.8852,
      "duration": 0.256,
      "velocity": 95,
      "chip": "ym2612"
    },
    {
      "channel": 4,
      "note": 66,
      "start": 6.1172,
      "duration": 0.2574,
      "velocity": 95,
      "chip": "ym2612"
    },
    {
      "channel": 5,
      "note": 66,
      "start": 6.1189,
      "duration": 0.2559,
      "velocity": 95,
      "chip": "ym2612"
    },
    {
      "channel": 0,
      "note": 71,
      "start": 6.1941,
      "duration": 0.2573,
      "velocity": 95,
      "chip": "ym2612"
    },
    {
      "channel": 1,
      "note": 42,
      "start": 6.1957,
      "duration": 0.1522,
      "velocity": 108,
      "chip": "ym2612"
    },
    {
      "channel": 2,
      "note": 68,
      "start": 6.1984,
      "duration": 0.2533,
      "velocity": 95,
      "chip": "ym2612"
    },
    {
      "channel": 3,
      "note": 61,
      "start": 6.2005,
      "duration": 0.0959,
      "velocity": 127,
      "chip": "ym2612"
    },
    {
      "channel": 1,
      "note": 42,
      "start": 6.4011,
      "duration": 0.1539,
      "velocity": 108,
      "chip": "ym2612"
    },
    {
      "channel": 3,
      "note": 61,
      "start": 6.4033,
      "duration": 0.1033,
      "velocity": 127,
      "chip": "ym2612"
    },
    {
      "channel": 4,
      "note": 71,
      "start": 6.4279,
      "duration": 0.2568,
      "velocity": 95,
      "chip": "ym2612"
    },
    {
      "channel": 5,
      "note": 68,
      "start": 6.4298,
      "duration": 0.2551,
      "velocity": 95,
      "chip": "ym2612"
    },
    {
      "channel": 0,
      "note": 66,
      "start": 6.5046,
      "duration": 0.2574,
      "velocity": 95,
      "chip": "ym2612"
    },
    {
      "channel": 2,
      "note": 66,
      "start": 6.5063,
      "duration": 0.2561,
      "velocity": 95,
      "chip": "ym2612"
    },
    {
      "channel": 1,
      "note": 42,
      "start": 6.6081,
      "duration": 0.1541,
      "velocity": 108,
      "chip": "ym2612"
    },
    {
      "channel": 3,
      "note": 61,
      "start": 6.6104,
      "duration": 0.1002,
      "velocity": 127,
      "chip": "ym2612"
    },
    {
      "channel": 4,
      "note": 66,
      "start": 6.7383,
      "duration": 0.2573,
      "velocity": 95,
      "chip": "ym2612"
    },
    {
      "channel": 5,
      "note": 66,
      "start": 6.7401,
      "duration": 0.2559,
      "velocity": 95,
      "chip": "ym2612"
    },
    {
      "channel": 0,
      "note": 71,
      "start": 6.8166,
      "duration": 0.2559,
      "velocity": 95,
      "chip": "ym2612"
    },
    {
      "channel": 1,
      "note": 42,
      "start": 6.8183,
      "duration": 0.565,
      "velocity": 108,
      "chip": "ym2612"
    },
    {
      "channel": 2,
      "note": 68,
      "start": 6.82,
      "duration": 0.2527,
      "velocity": 95,
      "chip": "ym2612"
    },
    {
      "channel": 3,
      "note": 61,
      "start": 6.8222,
      "duration": 0.0954,
      "velocity": 127,
      "chip": "ym2612"
    },
    {
      "channel": 4,
      "note": 71,
      "start": 7.05,
      "duration": 0.2563,
      "velocity": 95,
      "chip": "ym2612"
    },
    {
      "channel": 5,
      "note": 68,
      "start": 7.0518,
      "duration": 0.2547,
      "velocity": 95,
      "chip": "ym2612"
    },
    {
      "channel": 0,
      "note": 66,
      "start": 7.1257,
      "duration": 0.2574,
      "velocity": 95,
      "chip": "ym2612"
    },
    {
      "channel": 2,
      "note": 66,
      "start": 7.1275,
      "duration": 0.256,
      "velocity": 95,
      "chip": "ym2612"
    },
    {
      "channel": 4,
      "note": 66,
      "start": 7.3595,
      "duration": 0.2574,
      "velocity": 95,
      "chip": "ym2612"
    },
    {
      "channel": 5,
      "note": 66,
      "start": 7.3612,
      "duration": 0.2559,
      "velocity": 95,
      "chip": "ym2612"
    },
    {
      "channel": 0,
      "note": 71,
      "start": 7.4364,
      "duration": 0.2573,
      "velocity": 95,
      "chip": "ym2612"
    },
    {
      "channel": 1,
      "note": 42,
      "start": 7.438,
      "duration": 0.5664,
      "velocity": 108,
      "chip": "ym2612"
    },
    {
      "channel": 2,
      "note": 68,
      "start": 7.4399,
      "duration": 0.2541,
      "velocity": 95,
      "chip": "ym2612"
    },
    {
      "channel": 3,
      "note": 61,
      "start": 7.442,
      "duration": 0.0968,
      "velocity": 127,
      "chip": "ym2612"
    },
    {
      "channel": 4,
      "note": 71,
      "start": 7.6702,
      "duration": 0.2573,
      "velocity": 95,
      "chip": "ym2612"
    },
    {
      "channel": 5,
      "note": 68,
      "start": 7.6721,
      "duration": 0.2556,
      "velocity": 95,
      "chip": "ym2612"
    },
    {
      "channel": 0,
      "note": 66,
      "start": 7.7477,
      "duration": 0.2566,
      "velocity": 95,
      "chip": "ym2612"
    },
    {
      "channel": 2,
      "note": 66,
      "start": 7.7495,
      "duration": 0.2551,
      "velocity": 95,
      "chip": "ym2612"
    },
    {
      "channel": 4,
      "note": 66,
      "start": 7.9815,
      "duration": 0.2565,
      "velocity": 95,
      "chip": "ym2612"
    },
    {
      "channel": 5,
      "note": 66,
      "start": 7.9832,
      "duration": 0.255,
      "velocity": 95,
      "chip": "ym2612"
    },
    {
      "channel": 0,
      "note": 69,
      "start": 8.0611,
      "duration": 0.2537,
      "velocity": 95,
      "chip": "ym2612"
    },
    {
      "channel": 1,
      "note": 42,
      "start": 8.0669,
      "duration": 0.5593,
      "velocity": 108,
      "chip": "ym2612"
    },
    {
      "channel": 2,
      "note": 66,
      "start": 8.0691,
      "duration": 0.246,
      "velocity": 95,
      "chip": "ym2612"
    },
    {
      "channel": 3,
      "note": 61,
      "start": 8.0714,
      "duration": 0.0885,
      "velocity": 127,
      "chip": "ym2612"
    },
    {
      "channel": 4,
      "note": 69,
      "start": 8.295,
      "duration": 0.2543,
      "velocity": 95,
      "chip": "ym2612"
    },
    {
      "channel": 5,
      "note": 66,
      "start": 8.298,
      "duration": 0.2514,
      "velocity": 95,
      "chip": "ym2612"
    },
    {
      "channel": 0,
      "note": 66,
      "start": 8.368,
      "duration": 0.258,
      "velocity": 95,
      "chip": "ym2612"
    },
    {
      "channel": 2,
      "note": 66,
      "start": 8.3698,
      "duration": 0.2566,
      "velocity": 95,
      "chip": "ym2612"
    },
    {
      "channel": 4,
      "note": 66,
      "start": 8.6023,
      "duration": 0.2569,
      "velocity": 95,
      "chip": "ym2612"
    },
    {
      "channel": 5,
      "note": 66,
      "start": 8.604,
      "duration": 0.2554,
      "velocity": 95,
      "chip": "ym2612"
    },
    {
      "channel": 0,
      "note": 69,
      "start": 8.6788,
      "duration": 0.2572,
      "velocity": 95,
      "chip": "ym2612"
    },
    {
      "channel": 1,
      "note": 42,
      "start": 8.6813,
      "duration": 0.1513,
      "velocity": 108,
      "chip": "ym2612"
    },
    {
      "channel": 2,
      "note": 66,
      "start": 8.6831,
      "duration": 0.2532,
      "velocity": 95,
      "chip": "ym2612"
    },
    {
      "channel": 3,
      "note": 61,
      "start": 8.6852,
      "duration": 0.0961,
      "velocity": 127,
      "chip": "ym2612"
    },
    {
      "channel": 1,
      "note": 42,
      "start": 8.8857,
      "duration": 0.1539,
      "velocity": 108,
      "chip": "ym2612"
    },
    {
      "channel": 3,
      "note": 61,
      "start": 8.888,
      "duration": 0.1034,
      "velocity": 127,
      "chip": "ym2612"
    },
    {
      "channel": 4,
      "note": 69,
      "start": 8.9126,
      "duration": 0.2568,
      "velocity": 95,
      "chip": "ym2612"
    },
    {
      "channel": 5,
      "note": 66,
      "start": 8.9153,
      "duration": 0.2543,
      "velocity": 95,
      "chip": "ym2612"
    },
    {
      "channel": 0,
      "note": 66,
      "start": 8.9892,
      "duration": 0.2583,
      "velocity": 95,
      "chip": "ym2612"
    },
    {
      "channel": 2,
      "note": 66,
      "start": 8.991,
      "duration": 0.2569,
      "velocity": 95,
      "chip": "ym2612"
    },
    {
      "channel": 1,
      "note": 42,
      "start": 9.0928,
      "duration": 0.1549,
      "velocity": 108,
      "chip": "ym2612"
    },
    {
      "channel": 3,
      "note": 61,
      "start": 9.095,
      "duration": 0.1002,
      "velocity": 127,
      "chip": "ym2612"
    },
    {
      "channel": 4,
      "note": 66,
      "start": 9.223,
      "duration": 0.2582,
      "velocity": 95,
      "chip": "ym2612"
    },
    {
      "channel": 5,
      "note": 66,
      "start": 9.2247,
      "duration": 0.2567,
      "velocity": 95,
      "chip": "ym2612"
    },
    {
      "channel": 0,
      "note": 69,
      "start": 9.2999,
      "duration": 0.2573,
      "velocity": 95,
      "chip": "ym2612"
    },
    {
      "channel": 1,
      "note": 42,
      "start": 9.3016,
      "duration": 0.5664,
      "velocity": 108,
      "chip": "ym2612"
    },
    {
      "channel": 2,
      "note": 66,
      "start": 9.3034,
      "duration": 0.2541,
      "velocity": 95,
      "chip": "ym2612"
    },
    {
      "channel": 3,
      "note": 61,
      "start": 9.3055,
      "duration": 0.0968,
      "velocity": 127,
      "chip": "ym2612"
    },
    {
      "channel": 4,
      "note": 69,
      "start": 9.5337,
      "duration": 0.2573,
      "velocity": 95,
      "chip": "ym2612"
    },
    {
      "channel": 5,
      "note": 66,
      "start": 9.5356,
      "duration": 0.2556,
      "velocity": 95,
      "chip": "ym2612"
    },
    {
      "channel": 0,
      "note": 66,
      "start": 9.6104,
      "duration": 0.2574,
      "velocity": 95,
      "chip": "ym2612"
    },
    {
      "channel": 2,
      "note": 66,
      "start": 9.6122,
      "duration": 0.256,
      "velocity": 95,
      "chip": "ym2612"
    },
    {
      "channel": 4,
      "note": 66,
      "start": 9.8442,
      "duration": 0.2573,
      "velocity": 95,
      "chip": "ym2612"
    },
    {
      "channel": 5,
      "note": 66,
      "start": 9.8459,
      "duration": 0.2559,
      "velocity": 95,
      "chip": "ym2612"
    },
    {
      "channel": 0,
      "note": 69,
      "start": 9.9211,
      "duration": 0.2573,
      "velocity": 95,
      "chip": "ym2612"
    },
    {
      "channel": 1,
      "note": 42,
      "start": 9.9227,
      "duration": 0.5664,
      "velocity": 108,
      "chip": "ym2612"
    },
    {
      "channel": 2,
      "note": 66,
      "start": 9.9245,
      "duration": 0.2541,
      "velocity": 95,
      "chip": "ym2612"
    },
    {
      "channel": 3,
      "note": 61,
      "start": 9.9266,
      "duration": 0.0968,
      "velocity": 127,
      "chip": "ym2612"
    },
    {
      "channel": 4,
      "note": 69,
      "start": 10.1549,
      "duration": 0.2578,
      "velocity": 95,
      "chip": "ym2612"
    },
    {
      "channel": 5,
      "note": 66,
      "start": 10.1567,
      "duration": 0.2562,
      "velocity": 95,
      "chip": "ym2612"
    },
    {
      "channel": 0,
      "note": 66,
      "start": 10.2324,
      "duration": 0.2565,
      "velocity": 95,
      "chip": "ym2612"
    },
    {
      "channel": 2,
      "note": 66,
      "start": 10.2341,
      "duration": 0.2551,
      "velocity": 95,
      "chip": "ym2612"
    },
    {
      "channel": 4,
      "note": 66,
      "start": 10.4663,
      "duration": 0.2564,
      "velocity": 95,
      "chip": "ym2612"
    },
    {
      "channel": 5,
      "note": 66,
      "start": 10.468,
      "duration": 0.2549,
      "velocity": 95,
      "chip": "ym2612"
    },
    {
      "channel": 0,
      "note": 73,
      "start": 10.5458,
      "duration": 0.2537,
      "velocity": 95,
      "chip": "ym2612"
    },
    {
      "channel": 1,
      "note": 42,
      "start": 10.5517,
      "duration": 0.5586,
      "velocity": 108,
      "chip": "ym2612"
    },
    {
      "channel": 2,
      "note": 69,
      "start": 10.557,
      "duration": 0.2428,
      "velocity": 95,
      "chip": "ym2612"
    },
    {
      "channel": 3,
      "note": 61,
      "start": 10.5592,
      "duration": 0.0854,
      "velocity": 127,
      "chip": "ym2612"
    },
    {
      "channel": 4,
      "note": 73,
      "start": 10.7796,
      "duration": 0.2537,
      "velocity": 95,
      "chip": "ym2612"
    },
    {
      "channel": 5,
      "note": 69,
      "start": 10.7858,
      "duration": 0.2477,
      "velocity": 95,
      "chip": "ym2612"
    },
    {
      "channel": 0,
      "note": 66,
      "start": 10.8527,
      "duration": 0.2574,
      "velocity": 95,
      "chip": "ym2612"
    },
    {
      "channel": 2,
      "note": 66,
      "start": 10.8545,
      "duration": 0.256,
      "velocity": 95,
      "chip": "ym2612"
    },
    {
      "channel": 4,
      "note": 66,
      "start": 11.0865,
      "duration": 0.2574,
      "velocity": 95,
      "chip": "ym2612"
    },
    {
      "channel": 5,
      "note": 66,
      "start": 11.0882,
      "duration": 0.2559,
      "velocity": 95,
      "chip": "ym2612"
    },
    {
      "channel": 0,
      "note": 73,
      "start": 11.1643,
      "duration": 0.2563,
      "velocity": 95,
      "chip": "ym2612"
    },
    {
      "channel": 1,
      "note": 42,
      "start": 11.166,
      "duration": 0.1513,
      "velocity": 108,
      "chip": "ym2612"
    },
    {
      "channel": 2,
      "note": 69,
      "start": 11.1677,
      "duration": 0.2532,
      "velocity": 95,
      "chip": "ym2612"
    },
    {
      "channel": 3,
      "note": 61,
      "start": 11.1699,
      "duration": 0.0959,
      "velocity": 127,
      "chip": "ym2612"
    },
    {
      "channel": 1,
      "note": 42,
      "start": 11.3705,
      "duration": 0.1538,
      "velocity": 108,
      "chip": "ym2612"
    },
    {
      "channel": 3,
      "note": 61,
      "start": 11.3726,
      "duration": 0.1034,
      "velocity": 127,
      "chip": "ym2612"
    },
    {
      "channel": 4,
      "note": 73,
      "start": 11.3981,
      "duration": 0.2559,
      "velocity": 95,
      "chip": "ym2612"
    },
    {
      "channel": 5,
      "note": 69,
      "start": 11.3999,
      "duration": 0.2543,
      "velocity": 95,
      "chip": "ym2612"
    },
    {
      "channel": 0,
      "note": 66,
      "start": 11.4739,
      "duration": 0.2574,
      "velocity": 95,
      "chip": "ym2612"
    },
    {
      "channel": 2,
      "note": 66,
      "start": 11.4757,
      "duration": 0.256,
      "velocity": 95,
      "chip": "ym2612"
    },
    {
      "channel": 1,
      "note": 42,
      "start": 11.5775,
      "duration": 0.154,
      "velocity": 108,
      "chip": "ym2612"
    },
    {
      "channel": 3,
      "note": 61,
      "start": 11.5797,
      "duration": 0.1011,
      "velocity": 127,
      "chip": "ym2612"
    },
    {
      "channel": 4,
      "note": 66,
      "start": 11.7078,
      "duration": 0.2573,
      "velocity": 95,
      "chip": "ym2612"
    },
    {
      "channel": 5,
      "note": 66,
      "start": 11.7094,
      "duration": 0.2559,
      "velocity": 95,
      "chip": "ym2612"
    },
    {
      "channel": 0,
      "note": 73,
      "start": 11.7847,
      "duration": 0.2572,
      "velocity": 95,
      "chip": "ym2612"
    },
    {
      "channel": 1,
      "note": 42,
      "start": 11.7863,
      "duration": 0.5663,
      "velocity": 108,
      "chip": "ym2612"
    },
    {
      "channel": 2,
      "note": 69,
      "start": 11.7881,
      "duration": 0.2541,
      "velocity": 95,
      "chip": "ym2612"
    },
    {
      "channel": 3,
      "note": 61,
      "start": 11.7902,
      "duration": 0.0967,
      "velocity": 127,
      "chip": "ym2612"
    },
    {
      "channel": 4,
      "note": 73,
      "start": 12.0184,
      "duration": 0.2572,
      "velocity": 95,
      "chip": "ym2612"
    },
    {
      "channel": 5,
      "note": 69,
      "start": 12.0203,
      "duration": 0.2555,
      "velocity": 95,
      "chip": "ym2612"
    },
    {
      "channel": 0,
      "note": 66,
      "start": 12.0951,
      "duration": 0.2573,
      "velocity": 95,
      "chip": "ym2612"
    },
    {
      "channel": 2,
      "note": 66,
      "start": 12.0977,
      "duration": 0.2551,
      "velocity": 95,
      "chip": "ym2612"
    },
    {
      "channel": 4,
      "note": 66,
      "start": 12.3289,
      "duration": 0.2574,
      "velocity": 95,
      "chip": "ym2612"
    },
    {
      "channel": 5,
      "note": 66,
      "start": 12.3314,
      "duration": 0.255,
      "velocity": 95,
      "chip": "ym2612"
    },
    {
      "channel": 0,
      "note": 73,
      "start": 12.4058,
      "duration": 0.2573,
      "velocity": 95,
      "chip": "ym2612"
    },
    {
      "channel": 1,
      "note": 42,
      "start": 12.4074,
      "duration": 0.5664,
      "velocity": 108,
      "chip": "ym2612"
    },
    {
      "channel": 2,
      "note": 69,
      "start": 12.4092,
      "duration": 0.255,
      "velocity": 95,
      "chip": "ym2612"
    },
    {
      "channel": 3,
      "note": 61,
      "start": 12.4113,
      "duration": 0.0968,
      "velocity": 127,
      "chip": "ym2612"
    },
    {
      "channel": 4,
      "note": 73,
      "start": 12.6396,
      "duration": 0.2581,
      "velocity": 95,
      "chip": "ym2612"
    },
    {
      "channel": 5,
      "note": 69,
      "start": 12.6414,
      "duration": 0.2565,
      "velocity": 95,
      "chip": "ym2612"
    },
    {
      "channel": 0,
      "note": 66,
      "start": 12.7162,
      "duration": 0.2574,
      "velocity": 95,
      "chip": "ym2612"
    },
    {
      "channel": 2,
      "note": 66,
      "start": 12.718,
      "duration": 0.256,
      "velocity": 95,
      "chip": "ym2612"
    },
    {
      "channel": 4,
      "note": 66,
      "start": 12.95,
      "duration": 0.2574,
      "velocity": 95,
      "chip": "ym2612"
    },
    {
      "channel": 5,
      "note": 66,
      "start": 12.9517,
      "duration": 0.2559,
      "velocity": 95,
      "chip": "ym2612"
    },
    {
      "channel": 0,
      "note": 72,
      "start": 13.0274,
      "duration": 0.2568,
      "velocity": 95,
      "chip": "ym2612"
    },
    {
      "channel": 1,
      "note": 42,
      "start": 13.0332,
      "duration": 0.5618,
      "velocity": 108,
      "chip": "ym2612"
    },
    {
      "channel": 2,
      "note": 68,
      "start": 13.0354,
      "duration": 0.2491,
      "velocity": 95,
      "chip": "ym2612"
    },
    {
      "channel": 3,
      "note": 61,
      "start": 13.0377,
      "duration": 0.0916,
      "velocity": 127,
      "chip": "ym2612"
    },
    {
      "channel": 4,
      "note": 72,
      "start": 13.2612,
      "duration": 0.2568,
      "velocity": 95,
      "chip": "ym2612"
    },
    {
      "channel": 5,
      "note": 68,
      "start": 13.2642,
      "duration": 0.2539,
      "velocity": 95,
      "chip": "ym2612"
    },
    {
      "channel": 0,
      "note": 66,
      "start": 13.3374,
      "duration": 0.2574,
      "velocity": 95,
      "chip": "ym2612"
    },
    {
      "channel": 2,
      "note": 66,
      "start": 13.3392,
      "duration": 0.256,
      "velocity": 95,
      "chip": "ym2612"
    },
    {
      "channel": 4,
      "note": 66,
      "start": 13.5712,
      "duration": 0.2573,
      "velocity": 95,
      "chip": "ym2612"
    },
    {
      "channel": 5,
      "note": 66,
      "start": 13.5729,
      "duration": 0.2559,
      "velocity": 95,
      "chip": "ym2612"
    },
    {
      "channel": 0,
      "note": 72,
      "start": 13.649,
      "duration": 0.2563,
      "velocity": 95,
      "chip": "ym2612"
    },
    {
      "channel": 1,
      "note": 42,
      "start": 13.6506,
      "duration": 0.1513,
      "velocity": 108,
      "chip": "ym2612"
    },
    {
      "channel": 2,
      "note": 68,
      "start": 13.6525,
      "duration": 0.2532,
      "velocity": 95,
      "chip": "ym2612"
    },
    {
      "channel": 3,
      "note": 61,
      "start": 13.6546,
      "duration": 0.0959,
      "velocity": 127,
      "chip": "ym2612"
    },
    {
      "channel": 1,
      "note": 42,
      "start": 13.8551,
      "duration": 0.1545,
      "velocity": 108,
      "chip": "ym2612"
    },
    {
      "channel": 3,
      "note": 61,
      "start": 13.8574,
      "duration": 0.1036,
      "velocity": 127,
      "chip": "ym2612"
    },
    {
      "channel": 4,
      "note": 72,
      "start": 13.8828,
      "duration": 0.2559,
      "velocity": 95,
      "chip": "ym2612"
    },
    {
      "channel": 5,
      "note": 68,
      "start": 13.8846,
      "duration": 0.2543,
      "velocity": 95,
      "chip": "ym2612"
    },
    {
      "channel": 0,
      "note": 66,
      "start": 13.9588,
      "duration": 0.2571,
      "velocity": 95,
      "chip": "ym2612"
    },
    {
      "channel": 2,
      "note": 66,
      "start": 13.9606,
      "duration": 0.2557,
      "velocity": 95,
      "chip": "ym2612"
    },
    {
      "channel": 1,
      "note": 42,
      "start": 14.0621,
      "duration": 0.154,
      "velocity": 108,
      "chip": "ym2612"
    },
    {
      "channel": 3,
      "note": 61,
      "start": 14.0652,
      "duration": 0.0994,
      "velocity": 127,
      "chip": "ym2612"
    },
    {
      "channel": 4,
      "note": 66,
      "start": 14.1924,
      "duration": 0.2573,
      "velocity": 95,
      "chip": "ym2612"
    },
    {
      "channel": 5,
      "note": 66,
      "start": 14.1941,
      "duration": 0.2559,
      "velocity": 95,
      "chip": "ym2612"
    },
    {
      "channel": 0,
      "note": 72,
      "start": 14.2693,
      "duration": 0.2572,
      "velocity": 95,
      "chip": "ym2612"
    },
    {
      "channel": 1,
      "note": 42,
      "start": 14.271,
      "duration": 0.5663,
      "velocity": 108,
      "chip": "ym2612"
    },
    {
      "channel": 2,
      "note": 68,
      "start": 14.2728,
      "duration": 0.2541,
      "velocity": 95,
      "chip": "ym2612"
    },
    {
      "channel": 3,
      "note": 61,
      "start": 14.2749,
      "duration": 0.0968,
      "velocity": 127,
      "chip": "ym2612"
    },
    {
      "channel": 4,
      "note": 72,
      "start": 14.5031,
      "duration": 0.2572,
      "velocity": 95,
      "chip": "ym2612"
    },
    {
      "channel": 5,
      "note": 68,
      "start": 14.5049,
      "duration": 0.2556,
      "velocity": 95,
      "chip": "ym2612"
    },
    {
      "channel": 0,
      "note": 66,
      "start": 14.5798,
      "duration": 0.2574,
      "velocity": 95,
      "chip": "ym2612"
    },
    {
      "channel": 2,
      "note": 66,
      "start": 14.5824,
      "duration": 0.2551,
      "velocity": 95,
      "chip": "ym2612"
    },
    {
      "channel": 4,
      "note": 66,
      "start": 14.8144,
      "duration": 0.2566,
      "velocity": 95,
      "chip": "ym2612"
    },
    {
      "channel": 5,
      "note": 66,
      "start": 14.8161,
      "duration": 0.255,
      "velocity": 95,
      "chip": "ym2612"
    },
    {
      "channel": 0,
      "note": 72,
      "start": 14.8905,
      "duration": 0.2573,
      "velocity": 95,
      "chip": "ym2612"
    },
    {
      "channel": 1,
      "note": 42,
      "start": 14.8921,
      "duration": 0.5664,
      "velocity": 108,
      "chip": "ym2612"
    },
    {
      "channel": 2,
      "note": 68,
      "start": 14.8939,
      "duration": 0.2541,
      "velocity": 95,
      "chip": "ym2612"
    },
    {
      "channel": 3,
      "note": 61,
      "start": 14.8961,
      "duration": 0.0968,
      "velocity": 127,
      "chip": "ym2612"
    },
    {
      "channel": 4,
      "note": 72,
      "start": 15.1243,
      "duration": 0.2574,
      "velocity": 95,
      "chip": "ym2612"
    },
    {
      "channel": 5,
      "note": 68,
      "start": 15.1261,
      "duration": 0.2559,
      "velocity": 95,
      "chip": "ym2612"
    },
    {
      "channel": 0,
      "note": 66,
      "start": 15.201,
      "duration": 0.2574,
      "velocity": 95,
      "chip": "ym2612"
    },
    {
      "channel": 2,
      "note": 66,
      "start": 15.2027,
      "duration": 0.256,
      "velocity": 95,
      "chip": "ym2612"
    },
    {
      "channel": 4,
      "note": 66,
      "start": 15.4347,
      "duration": 0.2574,
      "velocity": 95,
      "chip": "ym2612"
    },
    {
      "channel": 5,
      "note": 66,
      "start": 15.4364,
      "duration": 0.2559,
      "velocity": 95,
      "chip": "ym2612"
    },
    {
      "channel": 0,
      "note": 71,
      "start": 15.5121,
      "duration": 0.2572,
      "velocity": 95,
      "chip": "ym2612"
    },
    {
      "channel": 1,
      "note": 42,
      "start": 15.5179,
      "duration": 0.5617,
      "velocity": 108,
      "chip": "ym2612"
    },
    {
      "channel": 2,
      "note": 68,
      "start": 15.5202,
      "duration": 0.2494,
      "velocity": 95,
      "chip": "ym2612"
    },
    {
      "channel": 3,
      "note": 61,
      "start": 15.5224,
      "duration": 0.0922,
      "velocity": 127,
      "chip": "ym2612"
    },
    {
      "channel": 4,
      "note": 71,
      "start": 15.7461,
      "duration": 0.2566,
      "velocity": 95,
      "chip": "ym2612"
    },
    {
      "channel": 5,
      "note": 68,
      "start": 15.7491,
      "duration": 0.2538,
      "velocity": 95,
      "chip": "ym2612"
    },
    {
      "channel": 0,
      "note": 66,
      "start": 15.8229,
      "duration": 0.2565,
      "velocity": 95,
      "chip": "ym2612"
    },
    {
      "channel": 2,
      "note": 66,
      "start": 15.8247,
      "duration": 0.2561,
      "velocity": 95,
      "chip": "ym2612"
    },
    {
      "channel": 4,
      "note": 66,
      "start": 16.0559,
      "duration": 0.2583,
      "velocity": 95,
      "chip": "ym2612"
    },
    {
      "channel": 5,
      "note": 66,
      "start": 16.0576,
      "duration": 0.2568,
      "velocity": 95,
      "chip": "ym2612"
    },
    {
      "channel": 0,
      "note": 71,
      "start": 16.1328,
      "duration": 0.2573,
      "velocity": 95,
      "chip": "ym2612"
    },
    {
      "channel": 1,
      "note": 42,
      "start": 16.1345,
      "duration": 0.1522,
      "velocity": 108,
      "chip": "ym2612"
    },
    {
      "channel": 2,
      "note": 68,
      "start": 16.1363,
      "duration": 0.254,
      "velocity": 95,
      "chip": "ym2612"
    },
    {
      "channel": 3,
      "note": 61,
      "start": 16.1384,
      "duration": 0.0968,
      "velocity": 127,
      "chip": "ym2612"
    },
    {
      "channel": 1,
      "note": 42,
      "start": 16.3398,
      "duration": 0.1539,
      "velocity": 108,
      "chip": "ym2612"
    },
    {
      "channel": 3,
      "note": 61,
      "start": 16.342,
      "duration": 0.1033,
      "velocity": 127,
      "chip": "ym2612"
    },
    {
      "channel": 4,
      "note": 71,
      "start": 16.3667,
      "duration": 0.2567,
      "velocity": 95,
      "chip": "ym2612"
    },
    {
      "channel": 5,
      "note": 68,
      "start": 16.3685,
      "duration": 0.2551,
      "velocity": 95,
      "chip": "ym2612"
    },
    {
      "channel": 0,
      "note": 66,
      "start": 16.4432,
      "duration": 0.2574,
      "velocity": 95,
      "chip": "ym2612"
    },
    {
      "channel": 2,
      "note": 66,
      "start": 16.445,
      "duration": 0.256,
      "velocity": 95,
      "chip": "ym2612"
    },
    {
      "channel": 1,
      "note": 42,
      "start": 16.5477,
      "duration": 0.1531,
      "velocity": 108,
      "chip": "ym2612"
    },
    {
      "channel": 3,
      "note": 61,
      "start": 16.5499,
      "duration": 0.0994,
      "velocity": 127,
      "chip": "ym2612"
    },
    {
      "channel": 4,
      "note": 66,
      "start": 16.6771,
      "duration": 0.2574,
      "velocity": 95,
      "chip": "ym2612"
    },
    {
      "channel": 5,
      "note": 66,
      "start": 16.6788,
      "duration": 0.2559,
      "velocity": 95,
      "chip": "ym2612"
    },
    {
      "channel": 0,
      "note": 71,
      "start": 16.754,
      "duration": 0.2573,
      "velocity": 95,
      "chip": "ym2612"
    },
    {
      "channel": 1,
      "note": 42,
      "start": 16.7556,
      "duration": 0.5663,
      "velocity": 108,
      "chip": "ym2612"
    },
    {
      "channel": 2,
      "note": 68,
      "start": 16.7575,
      "duration": 0.254,
      "velocity": 95,
      "chip": "ym2612"
    },
    {
      "channel": 3,
      "note": 61,
      "start": 16.7596,
      "duration": 0.0968,
      "velocity": 127,
      "chip": "ym2612"
    },
    {
      "channel": 4,
      "note": 71,
      "start": 16.9878,
      "duration": 0.2573,
      "velocity": 95,
      "chip": "ym2612"
    },
    {
      "channel": 5,
      "note": 68,
      "start": 16.9896,
      "duration": 0.2556,
      "velocity": 95,
      "chip": "ym2612"
    },
    {
      "channel": 0,
      "note": 66,
      "start": 17.0653,
      "duration": 0.2566,
      "velocity": 95,
      "chip": "ym2612"
    },
    {
      "channel": 2,
      "note": 66,
      "start": 17.067,
      "duration": 0.2552,
      "velocity": 95,
      "chip": "ym2612"
    },
    {
      "channel": 4,
      "note": 66,
      "start": 17.2991,
      "duration": 0.2569,
      "velocity": 95,
      "chip": "ym2612"
    },
    {
      "channel": 5,
      "note": 66,
      "start": 17.3007,
      "duration": 0.2554,
      "velocity": 95,
      "chip": "ym2612"
    },
    {
      "channel": 0,
      "note": 71,
      "start": 17.3752,
      "duration": 0.2572,
      "velocity": 95,
      "chip": "ym2612"
    },
    {
      "channel": 1,
      "note": 42,
      "start": 17.3768,
      "duration": 0.5664,
      "velocity": 108,
      "chip": "ym2612"
    },
    {
      "channel": 2,
      "note": 68,
      "start": 17.3786,
      "duration": 0.2541,
      "velocity": 95,
      "chip": "ym2612"
    },
    {
      "channel": 3,
      "note": 61,
      "start": 17.3815,
      "duration": 0.0959,
      "velocity": 127,
      "chip": "ym2612"
    },
    {
      "channel": 4,
      "note": 71,
      "start": 17.6097,
      "duration": 0.2565,
      "velocity": 95,
      "chip": "ym2612"
    },
    {
      "channel": 5,
      "note": 68,
      "start": 17.6115,
      "duration": 0.2549,
      "velocity": 95,
      "chip": "ym2612"
    },
    {
      "channel": 0,
      "note": 66,
      "start": 17.6856,
      "duration": 0.2573,
      "velocity": 95,
      "chip": "ym2612"
    },
    {
      "channel": 2,
      "note": 66,
      "start": 17.6874,
      "duration": 0.256,
      "velocity": 95,
      "chip": "ym2612"
    },
    {
      "channel": 4,
      "note": 66,
      "start": 17.9194,
      "duration": 0.2574,
      "velocity": 95,
      "chip": "ym2612"
    },
    {
      "channel": 5,
      "note": 66,
      "start": 17.9211,
      "duration": 0.2559,
      "velocity": 95,
      "chip": "ym2612"
    },
    {
      "channel": 0,
      "note": 69,
      "start": 18.0006,
      "duration": 0.2529,
      "velocity": 95,
      "chip": "ym2612"
    },
    {
      "channel": 1,
      "note": 42,
      "start": 18.0056,
      "duration": 0.5588,
      "velocity": 108,
      "chip": "ym2612"
    },
    {
      "channel": 2,
      "note": 66,
      "start": 18.0079,
      "duration": 0.246,
      "velocity": 95,
      "chip": "ym2612"
    },
    {
      "channel": 3,
      "note": 61,
      "start": 18.0104,
      "duration": 0.0882,
      "velocity": 127,
      "chip": "ym2612"
    },
    {
      "channel": 4,
      "note": 69,
      "start": 18.2345,
      "duration": 0.2529,
      "velocity": 95,
      "chip": "ym2612"
    },
    {
      "channel": 5,
      "note": 66,
      "start": 18.2367,
      "duration": 0.2509,
      "velocity": 95,
      "chip": "ym2612"
    },
    {
      "channel": 0,
      "note": 66,
      "start": 18.3068,
      "duration": 0.2574,
      "velocity": 95,
      "chip": "ym2612"
    },
    {
      "channel": 2,
      "note": 66,
      "start": 18.3086,
      "duration": 0.2561,
      "velocity": 95,
      "chip": "ym2612"
    },
    {
      "channel": 4,
      "note": 66,
      "start": 18.5406,
      "duration": 0.2578,
      "velocity": 95,
      "chip": "ym2612"
    },
    {
      "channel": 5,
      "note": 66,
      "start": 18.5423,
      "duration": 0.2563,
      "velocity": 95,
      "chip": "ym2612"
    },
    {
      "channel": 0,
      "note": 69,
      "start": 18.6175,
      "duration": 0.2573,
      "velocity": 95,
      "chip": "ym2612"
    },
    {
      "channel": 1,
      "note": 42,
      "start": 18.6191,
      "duration": 0.1522,
      "velocity": 108,
      "chip": "ym2612"
    },
    {
      "channel": 2,
      "note": 66,
      "start": 18.621,
      "duration": 0.2541,
      "velocity": 95,
      "chip": "ym2612"
    },
    {
      "channel": 3,
      "note": 61,
      "start": 18.6231,
      "duration": 0.0968,
      "velocity": 127,
      "chip": "ym2612"
    },
    {
      "channel": 1,
      "note": 42,
      "start": 18.8245,
      "duration": 0.1539,
      "velocity": 108,
      "chip": "ym2612"
    },
    {
      "channel": 3,
      "note": 61,
      "start": 18.8267,
      "duration": 0.1043,
      "velocity": 127,
      "chip": "ym2612"
    },
    {
      "channel": 4,
      "note": 69,
      "start": 18.8513,
      "duration": 0.2567,
      "velocity": 95,
      "chip": "ym2612"
    },
    {
      "channel": 5,
      "note": 66,
      "start": 18.8531,
      "duration": 0.2551,
      "velocity": 95,
      "chip": "ym2612"
    },
    {
      "channel": 0,
      "note": 66,
      "start": 18.928,
      "duration": 0.2573,
      "velocity": 95,
      "chip": "ym2612"
    },
    {
      "channel": 2,
      "note": 66,
      "start": 18.9298,
      "duration": 0.256,
      "velocity": 95,
      "chip": "ym2612"
    },
    {
      "channel": 1,
      "note": 42,
      "start": 19.0324,
      "duration": 0.1531,
      "velocity": 108,
      "chip": "ym2612"
    },
    {
      "channel": 3,
      "note": 61,
      "start": 19.0346,
      "duration": 0.0994,
      "velocity": 127,
      "chip": "ym2612"
    },
    {
      "channel": 4,
      "note": 66,
      "start": 19.1618,
      "duration": 0.2574,
      "velocity": 95,
      "chip": "ym2612"
    },
    {
      "channel": 5,
      "note": 66,
      "start": 19.1643,
      "duration": 0.255,
      "velocity": 95,
      "chip": "ym2612"
    },
    {
      "channel": 0,
      "note": 69,
      "start": 19.2387,
      "duration": 0.2573,
      "velocity": 95,
      "chip": "ym2612"
    },
    {
      "channel": 1,
      "note": 42,
      "start": 19.2403,
      "duration": 0.5663,
      "velocity": 108,
      "chip": "ym2612"
    },
    {
      "channel": 2,
      "note": 66,
      "start": 19.2421,
      "duration": 0.2541,
      "velocity": 95,
      "chip": "ym2612"
    },
    {
      "channel": 3,
      "note": 61,
      "start": 19.2443,
      "duration": 0.097,
      "velocity": 127,
      "chip": "ym2612"
    },
    {
      "channel": 4,
      "note": 69,
      "start": 19.4724,
      "duration": 0.2573,
      "velocity": 95,
      "chip": "ym2612"
    },
    {
      "channel": 5,
      "note": 66,
      "start": 19.4743,
      "duration": 0.2564,
      "velocity": 95,
      "chip": "ym2612"
    },
    {
      "channel": 0,
      "note": 66,
      "start": 19.5492,
      "duration": 0.2573,
      "velocity": 95,
      "chip": "ym2612"
    },
    {
      "channel": 2,
      "note": 66,
      "start": 19.551,
      "duration": 0.256,
      "velocity": 95,
      "chip": "ym2612"
    },
    {
      "channel": 3,
      "note": 61,
      "start": 19.553,
      "duration": 0.0985,
      "velocity": 127,
      "chip": "ym2612"
    },
    {
      "channel": 4,
      "note": 66,
      "start": 19.7832,
      "duration": 0.2571,
      "velocity": 95,
      "chip": "ym2612"
    },
    {
      "channel": 5,
      "note": 66,
      "start": 19.7849,
      "duration": 0.2557,
      "velocity": 95,
      "chip": "ym2612"
    },
    {
      "channel": 0,
      "note": 69,
      "start": 19.8598,
      "duration": 0.2573,
      "velocity": 95,
      "chip": "ym2612"
    },
    {
      "channel": 1,
      "note": 42,
      "start": 19.8615,
      "duration": 0.5663,
      "velocity": 108,
      "chip": "ym2612"
    },
    {
      "channel": 2,
      "note": 66,
      "start": 19.8641,
      "duration": 0.2532,
      "velocity": 95,
      "chip": "ym2612"
    },
    {
      "channel": 3,
      "note": 61,
      "start": 19.8662,
      "duration": 0.096,
      "velocity": 127,
      "chip": "ym2612"
    },
    {
      "channel": 4,
      "note": 69,
      "start": 20.0936,
      "duration": 0.2573,
      "velocity": 95,
      "chip": "ym2612"
    },
    {
      "channel": 5,
      "note": 66,
      "start": 20.0955,
      "duration": 0.2556,
      "velocity": 95,
      "chip": "ym2612"
    },
    {
      "channel": 0,
      "note": 66,
      "start": 20.1703,
      "duration": 0.2574,
      "velocity": 95,
      "chip": "ym2612"
    },
    {
      "channel": 2,
      "note": 66,
      "start": 20.1721,
      "duration": 0.256,
      "velocity": 95,
      "chip": "ym2612"
    },
    {
      "channel": 3,
      "note": 61,
      "start": 20.1742,
      "duration": 0.0986,
      "velocity": 127,
      "chip": "ym2612"
    },
    {
      "channel": 4,
      "note": 66,
      "start": 20.4041,
      "duration": 0.2574,
      "velocity": 95,
      "chip": "ym2612"
    },
    {
      "channel": 5,
      "note": 66,
      "start": 20.4058,
      "duration": 0.2559,
      "velocity": 95,
      "chip": "ym2612"
    },
    {
      "channel": 0,
      "note": 75,
      "start": 20.4822,
      "duration": 0.256,
      "velocity": 95,
      "chip": "ym2612"
    },
    {
      "channel": 1,
      "note": 44,
      "start": 20.4842,
      "duration": 0.5648,
      "velocity": 108,
      "chip": "ym2612"
    },
    {
      "channel": 2,
      "note": 72,
      "start": 20.4864,
      "duration": 0.2521,
      "velocity": 95,
      "chip": "ym2612"
    },
    {
      "channel": 3,
      "note": 61,
      "start": 20.492,
      "duration": 0.0913,
      "velocity": 127,
      "chip": "ym2612"
    },
    {
      "channel": 4,
      "note": 75,
      "start": 20.7161,
      "duration": 0.2559,
      "velocity": 95,
      "chip": "ym2612"
    },
    {
      "channel": 5,
      "note": 72,
      "start": 20.7183,
      "duration": 0.2539,
      "velocity": 95,
      "chip": "ym2612"
    },
    {
      "channel": 0,
      "note": 75,
      "start": 20.7915,
      "duration": 0.2574,
      "velocity": 95,
      "chip": "ym2612"
    },
    {
      "channel": 2,
      "note": 72,
      "start": 20.7932,
      "duration": 0.256,
      "velocity": 95,
      "chip": "ym2612"
    },
    {
      "channel": 4,
      "note": 75,
      "start": 21.0252,
      "duration": 0.2574,
      "velocity": 95,
      "chip": "ym2612"
    },
    {
      "channel": 5,
      "note": 72,
      "start": 21.027,
      "duration": 0.2559,
      "velocity": 95,
      "chip": "ym2612"
    },
    {
      "channel": 0,
      "note": 75,
      "start": 21.1022,
      "duration": 0.2572,
      "velocity": 95,
      "chip": "ym2612"
    },
    {
      "channel": 1,
      "note": 44,
      "start": 21.1039,
      "duration": 0.5663,
      "velocity": 108,
      "chip": "ym2612"
    },
    {
      "channel": 2,
      "note": 72,
      "start": 21.1056,
      "duration": 0.2541,
      "velocity": 95,
      "chip": "ym2612"
    },
    {
      "channel": 3,
      "note": 61,
      "start": 21.111,
      "duration": 0.0943,
      "velocity": 127,
      "chip": "ym2612"
    },
    {
      "channel": 4,
      "note": 75,
      "start": 21.336,
      "duration": 0.2572,
      "velocity": 95,
      "chip": "ym2612"
    },
    {
      "channel": 5,
      "note": 72,
      "start": 21.3378,
      "duration": 0.2557,
      "velocity": 95,
      "chip": "ym2612"
    },
    {
      "channel": 0,
      "note": 75,
      "start": 21.4127,
      "duration": 0.2574,
      "velocity": 95,
      "chip": "ym2612"
    },
    {
      "channel": 2,
      "note": 72,
      "start": 21.4153,
      "duration": 0.2551,
      "velocity": 95,
      "chip": "ym2612"
    },
    {
      "channel": 3,
      "note": 61,
      "start": 21.4205,
      "duration": 0.0946,
      "velocity": 127,
      "chip": "ym2612"
    },
    {
      "channel": 4,
      "note": 75,
      "start": 21.6465,
      "duration": 0.2573,
      "velocity": 95,
      "chip": "ym2612"
    },
    {
      "channel": 5,
      "note": 72,
      "start": 21.649,
      "duration": 0.255,
      "velocity": 95,
      "chip": "ym2612"
    },
    {
      "channel": 0,
      "note": 75,
      "start": 21.7233,
      "duration": 0.2576,
      "velocity": 95,
      "chip": "ym2612"
    },
    {
      "channel": 1,
      "note": 44,
      "start": 21.725,
      "duration": 0.5663,
      "velocity": 108,
      "chip": "ym2612"
    },
    {
      "channel": 2,
      "note": 72,
      "start": 21.7268,
      "duration": 0.2544,
      "velocity": 95,
      "chip": "ym2612"
    },
    {
      "channel": 3,
      "note": 61,
      "start": 21.7289,
      "duration": 0.0968,
      "velocity": 127,
      "chip": "ym2612"
    },
    {
      "channel": 4,
      "note": 75,
      "start": 21.9571,
      "duration": 0.2579,
      "velocity": 95,
      "chip": "ym2612"
    },
    {
      "channel": 5,
      "note": 72,
      "start": 21.959,
      "duration": 0.2563,
      "velocity": 95,
      "chip": "ym2612"
    },
    {
      "channel": 0,
      "note": 75,
      "start": 22.0338,
      "duration": 0.2573,
      "velocity": 95,
      "chip": "ym2612"
    },
    {
      "channel": 2,
      "note": 72,
      "start": 22.0356,
      "duration": 0.256,
      "velocity": 95,
      "chip": "ym2612"
    },
    {
      "channel": 4,
      "note": 75,
      "start": 22.2676,
      "duration": 0.2573,
      "velocity": 95,
      "chip": "ym2612"
    },
    {
      "channel": 5,
      "note": 72,
      "start": 22.2693,
      "duration": 0.2559,
      "velocity": 95,
      "chip": "ym2612"
    },
    {
      "channel": 0,
      "note": 75,
      "start": 22.3445,
      "duration": 0.2573,
      "velocity": 95,
      "chip": "ym2612"
    },
    {
      "channel": 1,
      "note": 44,
      "start": 22.3462,
      "duration": 0.5666,
      "velocity": 108,
      "chip": "ym2612"
    },
    {
      "channel": 2,
      "note": 72,
      "start": 22.3488,
      "duration": 0.2532,
      "velocity": 95,
      "chip": "ym2612"
    },
    {
      "channel": 3,
      "note": 61,
      "start": 22.3541,
      "duration": 0.0936,
      "velocity": 127,
      "chip": "ym2612"
    },
    {
      "channel": 4,
      "note": 75,
      "start": 22.5783,
      "duration": 0.2573,
      "velocity": 95,
      "chip": "ym2612"
    },
    {
      "channel": 5,
      "note": 72,
      "start": 22.581,
      "duration": 0.2548,
      "velocity": 95,
      "chip": "ym2612"
    },
    {
      "channel": 0,
      "note": 75,
      "start": 22.6549,
      "duration": 0.2576,
      "velocity": 95,
      "chip": "ym2612"
    },
    {
      "channel": 2,
      "note": 72,
      "start": 22.6568,
      "duration": 0.2561,
      "velocity": 95,
      "chip": "ym2612"
    },
    {
      "channel": 4,
      "note": 75,
      "start": 22.889,
      "duration": 0.2571,
      "velocity": 95,
      "chip": "ym2612"
    },
    {
      "channel": 5,
      "note": 72,
      "start": 22.8907,
      "duration": 0.2556,
      "velocity": 95,
      "chip": "ym2612"
    },
    {
      "channel": 0,
      "note": 73,
      "start": 22.967,
      "duration": 0.2559,
      "velocity": 95,
      "chip": "ym2612"
    },
    {
      "channel": 1,
      "note": 49,
      "start": 22.969,
      "duration": 0.5647,
      "velocity": 108,
      "chip": "ym2612"
    },
    {
      "channel": 2,
      "note": 71,
      "start": 22.9712,
      "duration": 0.252,
      "velocity": 95,
      "chip": "ym2612"
    },
    {
      "channel": 3,
      "note": 61,
      "start": 22.9768,
      "duration": 0.0913,
      "velocity": 127,
      "chip": "ym2612"
    },
    {
      "channel": 4,
      "note": 73,
      "start": 23.2004,
      "duration": 0.2563,
      "velocity": 95,
      "chip": "ym2612"
    },
    {
      "channel": 5,
      "note": 71,
      "start": 23.2027,
      "duration": 0.2543,
      "velocity": 95,
      "chip": "ym2612"
    },
    {
      "channel": 0,
      "note": 73,
      "start": 23.2761,
      "duration": 0.2574,
      "velocity": 95,
      "chip": "ym2612"
    },
    {
      "channel": 2,
      "note": 71,
      "start": 23.2779,
      "duration": 0.256,
      "velocity": 95,
      "chip": "ym2612"
    },
    {
      "channel": 4,
      "note": 73,
      "start": 23.51,
      "duration": 0.2573,
      "velocity": 95,
      "chip": "ym2612"
    },
    {
      "channel": 5,
      "note": 71,
      "start": 23.5116,
      "duration": 0.2559,
      "velocity": 95,
      "chip": "ym2612"
    },
    {
      "channel": 0,
      "note": 73,
      "start": 23.5869,
      "duration": 0.2572,
      "velocity": 95,
      "chip": "ym2612"
    },
    {
      "channel": 1,
      "note": 49,
      "start": 23.5885,
      "duration": 0.5664,
      "velocity": 108,
      "chip": "ym2612"
    },
    {
      "channel": 2,
      "note": 71,
      "start": 23.5903,
      "duration": 0.2541,
      "velocity": 95,
      "chip": "ym2612"
    },
    {
      "channel": 3,
      "note": 61,
      "start": 23.5956,
      "duration": 0.0936,
      "velocity": 127,
      "chip": "ym2612"
    },
    {
      "channel": 4,
      "note": 73,
      "start": 23.8207,
      "duration": 0.2572,
      "velocity": 95,
      "chip": "ym2612"
    },
    {
      "channel": 5,
      "note": 71,
      "start": 23.8224,
      "duration": 0.2557,
      "velocity": 95,
      "chip": "ym2612"
    },
    {
      "channel": 0,
      "note": 73,
      "start": 23.8981,
      "duration": 0.2566,
      "velocity": 95,
      "chip": "ym2612"
    },
    {
      "channel": 2,
      "note": 71,
      "start": 23.8999,
      "duration": 0.2551,
      "velocity": 95,
      "chip": "ym2612"
    },
    {
      "channel": 3,
      "note": 61,
      "start": 23.9052,
      "duration": 0.0946,
      "velocity": 127,
      "chip": "ym2612"
    },
    {
      "channel": 4,
      "note": 73,
      "start": 24.1319,
      "duration": 0.2566,
      "velocity": 95,
      "chip": "ym2612"
    },
    {
      "channel": 5,
      "note": 71,
      "start": 24.1337,
      "duration": 0.255,
      "velocity": 95,
      "chip": "ym2612"
    },
    {
      "channel": 0,
      "note": 73,
      "start": 24.208,
      "duration": 0.2573,
      "velocity": 95,
      "chip": "ym2612"
    },
    {
      "channel": 1,
      "note": 49,
      "start": 24.2097,
      "duration": 0.5671,
      "velocity": 108,
      "chip": "ym2612"
    },
    {
      "channel": 2,
      "note": 71,
      "start": 24.2115,
      "duration": 0.2541,
      "velocity": 95,
      "chip": "ym2612"
    },
    {
      "channel": 3,
      "note": 61,
      "start": 24.2144,
      "duration": 0.0959,
      "velocity": 127,
      "chip": "ym2612"
    },
    {
      "channel": 4,
      "note": 73,
      "start": 24.4419,
      "duration": 0.2574,
      "velocity": 95,
      "chip": "ym2612"
    },
    {
      "channel": 5,
      "note": 71,
      "start": 24.4436,
      "duration": 0.2558,
      "velocity": 95,
      "chip": "ym2612"
    },
    {
      "channel": 0,
      "note": 73,
      "start": 24.5185,
      "duration": 0.258,
      "velocity": 95,
      "chip": "ym2612"
    },
    {
      "channel": 2,
      "note": 71,
      "start": 24.5203,
      "duration": 0.2567,
      "velocity": 95,
      "chip": "ym2612"
    },
    {
      "channel": 4,
      "note": 73,
      "start": 24.7528,
      "duration": 0.2569,
      "velocity": 95,
      "chip": "ym2612"
    },
    {
      "channel": 5,
      "note": 71,
      "start": 24.7544,
      "duration": 0.2554,
      "velocity": 95,
      "chip": "ym2612"
    },
    {
      "channel": 0,
      "note": 73,
      "start": 24.8292,
      "duration": 0.2573,
      "velocity": 95,
      "chip": "ym2612"
    },
    {
      "channel": 1,
      "note": 49,
      "start": 24.8317,
      "duration": 0.5661,
      "velocity": 108,
      "chip": "ym2612"
    },
    {
      "channel": 2,
      "note": 71,
      "start": 24.8334,
      "duration": 0.2532,
      "velocity": 95,
      "chip": "ym2612"
    },
    {
      "channel": 3,
      "note": 61,
      "start": 24.8388,
      "duration": 0.0927,
      "velocity": 127,
      "chip": "ym2612"
    },
    {
      "channel": 4,
      "note": 73,
      "start": 25.063,
      "duration": 0.2572,
      "velocity": 95,
      "chip": "ym2612"
    },
    {
      "channel": 5,
      "note": 71,
      "start": 25.0658,
      "duration": 0.2546,
      "velocity": 95,
      "chip": "ym2612"
    },
    {
      "channel": 0,
      "note": 73,
      "start": 25.1397,
      "duration": 0.2579,
      "velocity": 95,
      "chip": "ym2612"
    },
    {
      "channel": 2,
      "note": 71,
      "start": 25.1415,
      "duration": 0.2565,
      "velocity": 95,
      "chip": "ym2612"
    },
    {
      "channel": 4,
      "note": 73,
      "start": 25.3735,
      "duration": 0.2583,
      "velocity": 95,
      "chip": "ym2612"
    },
    {
      "channel": 5,
      "note": 71,
      "start": 25.3751,
      "duration": 0.2568,
      "velocity": 95,
      "chip": "ym2612"
    },
    {
      "channel": 0,
      "note": 75,
      "start": 25.4508,
      "duration": 0.2568,
      "velocity": 95,
      "chip": "ym2612"
    },
    {
      "channel": 1,
      "note": 44,
      "start": 25.4527,
      "duration": 0.5656,
      "velocity": 108,
      "chip": "ym2612"
    },
    {
      "channel": 2,
      "note": 72,
      "start": 25.4549,
      "duration": 0.2529,
      "velocity": 95,
      "chip": "ym2612"
    },
    {
      "channel": 3,
      "note": 61,
      "start": 25.4605,
      "duration": 0.0922,
      "velocity": 127,
      "chip": "ym2612"
    },
    {
      "channel": 4,
      "note": 75,
      "start": 25.6846,
      "duration": 0.2568,
      "velocity": 95,
      "chip": "ym2612"
    },
    {
      "channel": 5,
      "note": 72,
      "start": 25.6868,
      "duration": 0.2548,
      "velocity": 95,
      "chip": "ym2612"
    },
    {
      "channel": 0,
      "note": 75,
      "start": 25.7608,
      "duration": 0.2574,
      "velocity": 95,
      "chip": "ym2612"
    },
    {
      "channel": 2,
      "note": 72,
      "start": 25.7627,
      "duration": 0.2559,
      "velocity": 95,
      "chip": "ym2612"
    },
    {
      "channel": 4,
      "note": 75,
      "start": 25.9946,
      "duration": 0.2573,
      "velocity": 95,
      "chip": "ym2612"
    },
    {
      "channel": 5,
      "note": 72,
      "start": 25.9963,
      "duration": 0.2559,
      "velocity": 95,
      "chip": "ym2612"
    },
    {
      "channel": 0,
      "note": 75,
      "start": 26.0716,
      "duration": 0.2572,
      "velocity": 95,
      "chip": "ym2612"
    },
    {
      "channel": 1,
      "note": 44,
      "start": 26.0732,
      "duration": 0.5664,
      "velocity": 108,
      "chip": "ym2612"
    },
    {
      "channel": 2,
      "note": 72,
      "start": 26.075,
      "duration": 0.2541,
      "velocity": 95,
      "chip": "ym2612"
    },
    {
      "channel": 3,
      "note": 61,
      "start": 26.0811,
      "duration": 0.0928,
      "velocity": 127,
      "chip": "ym2612"
    },
    {
      "channel": 4,
      "note": 75,
      "start": 26.3053,
      "duration": 0.2587,
      "velocity": 95,
      "chip": "ym2612"
    },
    {
      "channel": 5,
      "note": 72,
      "start": 26.3072,
      "duration": 0.2571,
      "velocity": 95,
      "chip": "ym2612"
    },
    {
      "channel": 0,
      "note": 75,
      "start": 26.3823,
      "duration": 0.2571,
      "velocity": 95,
      "chip": "ym2612"
    },
    {
      "channel": 2,
      "note": 72,
      "start": 26.3841,
      "duration": 0.2557,
      "velocity": 95,
      "chip": "ym2612"
    },
    {
      "channel": 3,
      "note": 61,
      "start": 26.3894,
      "duration": 0.0952,
      "velocity": 127,
      "chip": "ym2612"
    },
    {
      "channel": 4,
      "note": 75,
      "start": 26.6173,
      "duration": 0.2559,
      "velocity": 95,
      "chip": "ym2612"
    },
    {
      "channel": 5,
      "note": 72,
      "start": 26.619,
      "duration": 0.2543,
      "velocity": 95,
      "chip": "ym2612"
    },
    {
      "channel": 0,
      "note": 75,
      "start": 26.6927,
      "duration": 0.2573,
      "velocity": 95,
      "chip": "ym2612"
    },
    {
      "channel": 1,
      "note": 44,
      "start": 26.6943,
      "duration": 0.5664,
      "velocity": 108,
      "chip": "ym2612"
    },
    {
      "channel": 2,
      "note": 72,
      "start": 26.6962,
      "duration": 0.2541,
      "velocity": 95,
      "chip": "ym2612"
    },
    {
      "channel": 3,
      "note": 61,
      "start": 26.6991,
      "duration": 0.096,
      "velocity": 127,
      "chip": "ym2612"
    },
    {
      "channel": 4,
      "note": 75,
      "start": 26.9265,
      "duration": 0.2573,
      "velocity": 95,
      "chip": "ym2612"
    },
    {
      "channel": 5,
      "note": 72,
      "start": 26.9284,
      "duration": 0.2556,
      "velocity": 95,
      "chip": "ym2612"
    },
    {
      "channel": 0,
      "note": 75,
      "start": 27.0032,
      "duration": 0.2574,
      "velocity": 95,
      "chip": "ym2612"
    },
    {
      "channel": 2,
      "note": 72,
      "start": 27.0049,
      "duration": 0.256,
      "velocity": 95,
      "chip": "ym2612"
    },
    {
      "channel": 4,
      "note": 75,
      "start": 27.237,
      "duration": 0.2574,
      "velocity": 95,
      "chip": "ym2612"
    },
    {
      "channel": 5,
      "note": 72,
      "start": 27.2387,
      "duration": 0.2559,
      "velocity": 95,
      "chip": "ym2612"
    },
    {
      "channel": 0,
      "note": 75,
      "start": 27.3147,
      "duration": 0.2564,
      "velocity": 95,
      "chip": "ym2612"
    },
    {
      "channel": 1,
      "note": 44,
      "start": 27.3163,
      "duration": 0.5655,
      "velocity": 108,
      "chip": "ym2612"
    },
    {
      "channel": 2,
      "note": 72,
      "start": 27.3181,
      "duration": 0.2533,
      "velocity": 95,
      "chip": "ym2612"
    },
    {
      "channel": 3,
      "note": 61,
      "start": 27.3235,
      "duration": 0.0927,
      "velocity": 127,
      "chip": "ym2612"
    },
    {
      "channel": 4,
      "note": 75,
      "start": 27.5485,
      "duration": 0.2564,
      "velocity": 95,
      "chip": "ym2612"
    },
    {
      "channel": 5,
      "note": 72,
      "start": 27.5503,
      "duration": 0.2548,
      "velocity": 95,
      "chip": "ym2612"
    },
    {
      "channel": 0,
      "note": 75,
      "start": 27.6244,
      "duration": 0.2573,
      "velocity": 95,
      "chip": "ym2612"
    },
    {
      "channel": 2,
      "note": 72,
      "start": 27.6261,
      "duration": 0.256,
      "velocity": 95,
      "chip": "ym2612"
    },
    {
      "channel": 4,
      "note": 75,
      "start": 27.8581,
      "duration": 0.2728,
      "velocity": 95,
      "chip": "ym2612"
    },
    {
      "channel": 5,
      "note": 72,
      "start": 27.8598,
      "duration": 0.2713,
      "velocity": 95,
      "chip": "ym2612"
    },
    {
      "channel": 0,
      "note": 73,
      "start": 27.9355,
      "duration": 0.2787,
      "velocity": 95,
      "chip": "ym2612"
    },
    {
      "channel": 1,
      "note": 49,
      "start": 27.9374,
      "duration": 0.6162,
      "velocity": 108,
      "chip": "ym2612"
    },
    {
      "channel": 2,
      "note": 71,
      "start": 27.9396,
      "duration": 0.2749,
      "velocity": 95,
      "chip": "ym2612"
    },
    {
      "channel": 3,
      "note": 76,
      "start": 27.9475,
      "duration": 0.0127,
      "velocity": 112,
      "chip": "ym2612"
    },
    {
      "channel": 3,
      "note": 76,
      "start": 28.103,
      "duration": 0.0278,
      "velocity": 112,
      "chip": "ym2612"
    },
    {
      "channel": 4,
      "note": 73,
      "start": 28.1885,
      "duration": 0.2811,
      "velocity": 95,
      "chip": "ym2612"
    },
    {
      "channel": 5,
      "note": 71,
      "start": 28.1908,
      "duration": 0.2791,
      "velocity": 95,
      "chip": "ym2612"
    },
    {
      "channel": 0,
      "note": 73,
      "start": 28.272,
      "duration": 0.2814,
      "velocity": 95,
      "chip": "ym2612"
    },
    {
      "channel": 2,
      "note": 71,
      "start": 28.2738,
      "duration": 0.28,
      "velocity": 95,
      "chip": "ym2612"
    },
    {
      "channel": 3,
      "note": 76,
      "start": 28.4425,
      "duration": 0.027,
      "velocity": 112,
      "chip": "ym2612"
    },
    {
      "channel": 4,
      "note": 73,
      "start": 28.5275,
      "duration": 0.2997,
      "velocity": 95,
      "chip": "ym2612"
    },
    {
      "channel": 5,
      "note": 71,
      "start": 28.5292,
      "duration": 0.2982,
      "velocity": 95,
      "chip": "ym2612"
    },
    {
      "channel": 0,
      "note": 73,
      "start": 28.6116,
      "duration": 0.3083,
      "velocity": 95,
      "chip": "ym2612"
    },
    {
      "channel": 1,
      "note": 47,
      "start": 28.6141,
      "duration": 0.6817,
      "velocity": 108,
      "chip": "ym2612"
    },
    {
      "channel": 2,
      "note": 71,
      "start": 28.6159,
      "duration": 0.3044,
      "velocity": 95,
      "chip": "ym2612"
    },
    {
      "channel": 3,
      "note": 71,
      "start": 28.6195,
      "duration": 0.0197,
      "velocity": 112,
      "chip": "ym2612"
    },
    {
      "channel": 3,
      "note": 71,
      "start": 28.7978,
      "duration": 0.0291,
      "velocity": 112,
      "chip": "ym2612"
    },
    {
      "channel": 4,
      "note": 73,
      "start": 28.8912,
      "duration": 0.3116,
      "velocity": 95,
      "chip": "ym2612"
    },
    {
      "channel": 5,
      "note": 71,
      "start": 28.8929,
      "duration": 0.31,
      "velocity": 95,
      "chip": "ym2612"
    },
    {
      "channel": 0,
      "note": 73,
      "start": 28.9841,
      "duration": 0.3115,
      "velocity": 95,
      "chip": "ym2612"
    },
    {
      "channel": 2,
      "note": 71,
      "start": 28.9859,
      "duration": 0.3101,
      "velocity": 95,
      "chip": "ym2612"
    },
    {
      "channel": 3,
      "note": 71,
      "start": 29.1726,
      "duration": 0.03,
      "velocity": 112,
      "chip": "ym2612"
    },
    {
      "channel": 4,
      "note": 73,
      "start": 29.2666,
      "duration": 0.332,
      "velocity": 95,
      "chip": "ym2612"
    },
    {
      "channel": 5,
      "note": 71,
      "start": 29.2683,
      "duration": 0.3305,
      "velocity": 95,
      "chip": "ym2612"
    },
    {
      "channel": 0,
      "note": 73,
      "start": 29.3598,
      "duration": 0.3412,
      "velocity": 95,
      "chip": "ym2612"
    },
    {
      "channel": 1,
      "note": 44,
      "start": 29.3615,
      "duration": 0.755,
      "velocity": 108,
      "chip": "ym2612"
    },
    {
      "channel": 2,
      "note": 71,
      "start": 29.3641,
      "duration": 0.3372,
      "velocity": 95,
      "chip": "ym2612"
    },
    {
      "channel": 3,
      "note": 66,
      "start": 29.3678,
      "duration": 0.0225,
      "velocity": 112,
      "chip": "ym2612"
    },
    {
      "channel": 3,
      "note": 66,
      "start": 29.5656,
      "duration": 0.0328,
      "velocity": 112,
      "chip": "ym2612"
    },
    {
      "channel": 4,
      "note": 73,
      "start": 29.6688,
      "duration": 0.3456,
      "velocity": 95,
      "chip": "ym2612"
    },
    {
      "channel": 5,
      "note": 71,
      "start": 29.6706,
      "duration": 0.3439,
      "velocity": 95,
      "chip": "ym2612"
    },
    {
      "channel": 0,
      "note": 73,
      "start": 29.7716,
      "duration": 0.3447,
      "velocity": 95,
      "chip": "ym2612"
    },
    {
      "channel": 2,
      "note": 71,
      "start": 29.7734,
      "duration": 0.3433,
      "velocity": 95,
      "chip": "ym2612"
    },
    {
      "channel": 3,
      "note": 66,
      "start": 29.9809,
      "duration": 0.0333,
      "velocity": 112,
      "chip": "ym2612"
    },
    {
      "channel": 4,
      "note": 73,
      "start": 30.0843,
      "duration": 0.3714,
      "velocity": 95,
      "chip": "ym2612"
    },
    {
      "channel": 5,
      "note": 71,
      "start": 30.0861,
      "duration": 0.3698,
      "velocity": 95,
      "chip": "ym2612"
    },
    {
      "channel": 0,
      "note": 73,
      "start": 30.1877,
      "duration": 0.3845,
      "velocity": 95,
      "chip": "ym2612"
    },
    {
      "channel": 1,
      "note": 41,
      "start": 30.1893,
      "duration": 0.8526,
      "velocity": 108,
      "chip": "ym2612"
    },
    {
      "channel": 2,
      "note": 71,
      "start": 30.1912,
      "duration": 0.3814,
      "velocity": 95,
      "chip": "ym2612"
    },
    {
      "channel": 3,
      "note": 61,
      "start": 30.1991,
      "duration": 0.1388,
      "velocity": 127,
      "chip": "ym2612"
    },
    {
      "channel": 3,
      "note": 61,
      "start": 30.418,
      "duration": 0.1548,
      "velocity": 127,
      "chip": "ym2612"
    },
    {
      "channel": 4,
      "note": 73,
      "start": 30.5351,
      "duration": 0.3901,
      "velocity": 95,
      "chip": "ym2612"
    },
    {
      "channel": 5,
      "note": 71,
      "start": 30.537,
      "duration": 0.3885,
      "velocity": 95,
      "chip": "ym2612"
    },
    {
      "channel": 0,
      "note": 73,
      "start": 30.652,
      "duration": 0.3898,
      "velocity": 95,
      "chip": "ym2612"
    },
    {
      "channel": 2,
      "note": 71,
      "start": 30.6537,
      "duration": 0.3884,
      "velocity": 95,
      "chip": "ym2612"
    },
    {
      "channel": 3,
      "note": 61,
      "start": 30.6559,
      "duration": 0.1515,
      "velocity": 127,
      "chip": "ym2612"
    },
    {
      "channel": 3,
      "note": 61,
      "start": 30.8875,
      "duration": 0.155,
      "velocity": 127,
      "chip": "ym2612"
    },
    {
      "channel": 4,
      "note": 73,
      "start": 31.0045,
      "duration": 0.3107,
      "velocity": 95,
      "chip": "ym2612"
    },
    {
      "channel": 5,
      "note": 71,
      "start": 31.0062,
      "duration": 0.3092,
      "velocity": 95,
      "chip": "ym2612"
    },
    {
      "channel": 0,
      "note": 73,
      "start": 31.1251,
      "duration": 0.267,
      "velocity": 95,
      "chip": "ym2612"
    },
    {
      "channel": 1,
      "note": 42,
      "start": 31.1309,
      "duration": 0.5719,
      "velocity": 108,
      "chip": "ym2612"
    },
    {
      "channel": 2,
      "note": 69,
      "start": 31.1363,
      "duration": 0.256,
      "velocity": 95,
      "chip": "ym2612"
    },
    {
      "channel": 3,
      "note": 61,
      "start": 31.1431,
      "duration": 0.0941,
      "velocity": 127,
      "chip": "ym2612"
    },
    {
      "channel": 4,
      "note": 73,
      "start": 31.3721,
      "duration": 0.2537,
      "velocity": 95,
      "chip": "ym2612"
    },
    {
      "channel": 5,
      "note": 69,
      "start": 31.3775,
      "duration": 0.2485,
      "velocity": 95,
      "chip": "ym2612"
    },
    {
      "channel": 0,
      "note": 66,
      "start": 31.4453,
      "duration": 0.2573,
      "velocity": 95,
      "chip": "ym2612"
    },
    {
      "channel": 2,
      "note": 66,
      "start": 31.4479,
      "duration": 0.2551,
      "velocity": 95,
      "chip": "ym2612"
    },
    {
      "channel": 4,
      "note": 66,
      "start": 31.6791,
      "duration": 0.2574,
      "velocity": 95,
      "chip": "ym2612"
    },
    {
      "channel": 5,
      "note": 66,
      "start": 31.6816,
      "duration": 0.255,
      "velocity": 95,
      "chip": "ym2612"
    },
    {
      "channel": 0,
      "note": 73,
      "start": 31.756,
      "duration": 0.2581,
      "velocity": 95,
      "chip": "ym2612"
    },
    {
      "channel": 1,
      "note": 42,
      "start": 31.7576,
      "duration": 0.1522,
      "velocity": 108,
      "chip": "ym2612"
    },
    {
      "channel": 2,
      "note": 69,
      "start": 31.7595,
      "duration": 0.2549,
      "velocity": 95,
      "chip": "ym2612"
    },
    {
      "channel": 3,
      "note": 61,
      "start": 31.7616,
      "duration": 0.0968,
      "velocity": 127,
      "chip": "ym2612"
    },
    {
      "channel": 1,
      "note": 42,
      "start": 31.963,
      "duration": 0.1539,
      "velocity": 108,
      "chip": "ym2612"
    },
    {
      "channel": 3,
      "note": 61,
      "start": 31.9661,
      "duration": 0.1024,
      "velocity": 127,
      "chip": "ym2612"
    },
    {
      "channel": 4,
      "note": 73,
      "start": 31.9898,
      "duration": 0.2577,
      "velocity": 95,
      "chip": "ym2612"
    },
    {
      "channel": 5,
      "note": 69,
      "start": 31.9916,
      "duration": 0.2561,
      "velocity": 95,
      "chip": "ym2612"
    },
    {
      "channel": 0,
      "note": 66,
      "start": 32.0664,
      "duration": 0.2575,
      "velocity": 95,
      "chip": "ym2612"
    },
    {
      "channel": 2,
      "note": 66,
      "start": 32.0682,
      "duration": 0.256,
      "velocity": 95,
      "chip": "ym2612"
    },
    {
      "channel": 1,
      "note": 42,
      "start": 32.17,
      "duration": 0.154,
      "velocity": 108,
      "chip": "ym2612"
    },
    {
      "channel": 3,
      "note": 61,
      "start": 32.1722,
      "duration": 0.1002,
      "velocity": 127,
      "chip": "ym2612"
    },
    {
      "channel": 4,
      "note": 66,
      "start": 32.3007,
      "duration": 0.2569,
      "velocity": 95,
      "chip": "ym2612"
    },
    {
      "channel": 5,
      "note": 66,
      "start": 32.3024,
      "duration": 0.2554,
      "velocity": 95,
      "chip": "ym2612"
    },
    {
      "channel": 0,
      "note": 73,
      "start": 32.3776,
      "duration": 0.2568,
      "velocity": 95,
      "chip": "ym2612"
    },
    {
      "channel": 1,
      "note": 42,
      "start": 32.3793,
      "duration": 0.5659,
      "velocity": 108,
      "chip": "ym2612"
    },
    {
      "channel": 2,
      "note": 69,
      "start": 32.3819,
      "duration": 0.2528,
      "velocity": 95,
      "chip": "ym2612"
    },
    {
      "channel": 3,
      "note": 61,
      "start": 32.384,
      "duration": 0.0955,
      "velocity": 127,
      "chip": "ym2612"
    },
    {
      "channel": 4,
      "note": 73,
      "start": 32.6109,
      "duration": 0.2572,
      "velocity": 95,
      "chip": "ym2612"
    },
    {
      "channel": 5,
      "note": 69,
      "start": 32.6128,
      "duration": 0.2556,
      "velocity": 95,
      "chip": "ym2612"
    },
    {
      "channel": 0,
      "note": 66,
      "start": 32.6876,
      "duration": 0.2574,
      "velocity": 95,
      "chip": "ym2612"
    },
    {
      "channel": 2,
      "note": 66,
      "start": 32.6894,
      "duration": 0.256,
      "velocity": 95,
      "chip": "ym2612"
    },
    {
      "channel": 4,
      "note": 66,
      "start": 32.9214,
      "duration": 0.2573,
      "velocity": 95,
      "chip": "ym2612"
    },
    {
      "channel": 5,
      "note": 66,
      "start": 32.9231,
      "duration": 0.2559,
      "velocity": 95,
      "chip": "ym2612"
    },
    {
      "channel": 0,
      "note": 73,
      "start": 32.9991,
      "duration": 0.2564,
      "velocity": 95,
      "chip": "ym2612"
    },
    {
      "channel": 1,
      "note": 42,
      "start": 33.0007,
      "duration": 0.5656,
      "velocity": 108,
      "chip": "ym2612"
    },
    {
      "channel": 2,
      "note": 69,
      "start": 33.0025,
      "duration": 0.2533,
      "velocity": 95,
      "chip": "ym2612"
    },
    {
      "channel": 3,
      "note": 61,
      "start": 33.0046,
      "duration": 0.0961,
      "velocity": 127,
      "chip": "ym2612"
    },
    {
      "channel": 4,
      "note": 73,
      "start": 33.2329,
      "duration": 0.2564,
      "velocity": 95,
      "chip": "ym2612"
    },
    {
      "channel": 5,
      "note": 69,
      "start": 33.2348,
      "duration": 0.2548,
      "velocity": 95,
      "chip": "ym2612"
    },
    {
      "channel": 0,
      "note": 66,
      "start": 33.3088,
      "duration": 0.2574,
      "velocity": 95,
      "chip": "ym2612"
    },
    {
      "channel": 2,
      "note": 66,
      "start": 33.3105,
      "duration": 0.256,
      "velocity": 95,
      "chip": "ym2612"
    },
    {
      "channel": 4,
      "note": 66,
      "start": 33.5425,
      "duration": 0.2574,
      "velocity": 95,
      "chip": "ym2612"
    },
    {
      "channel": 5,
      "note": 66,
      "start": 33.5443,
      "duration": 0.2559,
      "velocity": 95,
      "chip": "ym2612"
    },
    {
      "channel": 0,
      "note": 72,
      "start": 33.6199,
      "duration": 0.2568,
      "velocity": 95,
      "chip": "ym2612"
    },
    {
      "channel": 1,
      "note": 42,
      "start": 33.6249,
      "duration": 0.5632,
      "velocity": 108,
      "chip": "ym2612"
    },
    {
      "channel": 2,
      "note": 68,
      "start": 33.6271,
      "duration": 0.2499,
      "velocity": 95,
      "chip": "ym2612"
    },
    {
      "channel": 3,
      "note": 61,
      "start": 33.6294,
      "duration": 0.0924,
      "velocity": 127,
      "chip": "ym2612"
    },
    {
      "channel": 4,
      "note": 72,
      "start": 33.8537,
      "duration": 0.2568,
      "velocity": 95,
      "chip": "ym2612"
    },
    {
      "channel": 5,
      "note": 68,
      "start": 33.8559,
      "duration": 0.2548,
      "velocity": 95,
      "chip": "ym2612"
    },
    {
      "channel": 0,
      "note": 66,
      "start": 33.9308,
      "duration": 0.2571,
      "velocity": 95,
      "chip": "ym2612"
    },
    {
      "channel": 2,
      "note": 66,
      "start": 33.9326,
      "duration": 0.2557,
      "velocity": 95,
      "chip": "ym2612"
    },
    {
      "channel": 4,
      "note": 66,
      "start": 34.1652,
      "duration": 0.2559,
      "velocity": 95,
      "chip": "ym2612"
    },
    {
      "channel": 5,
      "note": 66,
      "start": 34.1669,
      "duration": 0.2544,
      "velocity": 95,
      "chip": "ym2612"
    },
    {
      "channel": 0,
      "note": 72,
      "start": 34.2406,
      "duration": 0.2573,
      "velocity": 95,
      "chip": "ym2612"
    },
    {
      "channel": 1,
      "note": 42,
      "start": 34.2423,
      "duration": 0.1522,
      "velocity": 108,
      "chip": "ym2612"
    },
    {
      "channel": 2,
      "note": 68,
      "start": 34.2441,
      "duration": 0.254,
      "velocity": 95,
      "chip": "ym2612"
    },
    {
      "channel": 3,
      "note": 61,
      "start": 34.2462,
      "duration": 0.0968,
      "velocity": 127,
      "chip": "ym2612"
    },
    {
      "channel": 1,
      "note": 42,
      "start": 34.4485,
      "duration": 0.1531,
      "velocity": 108,
      "chip": "ym2612"
    },
    {
      "channel": 3,
      "note": 61,
      "start": 34.4507,
      "duration": 0.1025,
      "velocity": 127,
      "chip": "ym2612"
    },
    {
      "channel": 4,
      "note": 72,
      "start": 34.4745,
      "duration": 0.2568,
      "velocity": 95,
      "chip": "ym2612"
    },
    {
      "channel": 5,
      "note": 68,
      "start": 34.4763,
      "duration": 0.2552,
      "velocity": 95,
      "chip": "ym2612"
    },
    {
      "channel": 0,
      "note": 66,
      "start": 34.5511,
      "duration": 0.2573,
      "velocity": 95,
      "chip": "ym2612"
    },
    {
      "channel": 2,
      "note": 66,
      "start": 34.5529,
      "duration": 0.256,
      "velocity": 95,
      "chip": "ym2612"
    },
    {
      "channel": 1,
      "note": 42,
      "start": 34.6547,
      "duration": 0.1539,
      "velocity": 108,
      "chip": "ym2612"
    },
    {
      "channel": 3,
      "note": 61,
      "start": 34.6569,
      "duration": 0.1002,
      "velocity": 127,
      "chip": "ym2612"
    },
    {
      "channel": 4,
      "note": 66,
      "start": 34.7849,
      "duration": 0.2574,
      "velocity": 95,
      "chip": "ym2612"
    },
    {
      "channel": 5,
      "note": 66,
      "start": 34.7866,
      "duration": 0.2559,
      "velocity": 95,
      "chip": "ym2612"
    },
    {
      "channel": 0,
      "note": 72,
      "start": 34.8618,
      "duration": 0.2573,
      "velocity": 95,
      "chip": "ym2612"
    },
    {
      "channel": 1,
      "note": 42,
      "start": 34.8643,
      "duration": 0.5663,
      "velocity": 108,
      "chip": "ym2612"
    },
    {
      "channel": 2,
      "note": 68,
      "start": 34.8661,
      "duration": 0.2532,
      "velocity": 95,
      "chip": "ym2612"
    },
    {
      "channel": 3,
      "note": 61,
      "start": 34.8683,
      "duration": 0.0964,
      "velocity": 127,
      "chip": "ym2612"
    },
    {
      "channel": 4,
      "note": 72,
      "start": 35.0956,
      "duration": 0.2573,
      "velocity": 95,
      "chip": "ym2612"
    },
    {
      "channel": 5,
      "note": 68,
      "start": 35.0983,
      "duration": 0.2548,
      "velocity": 95,
      "chip": "ym2612"
    },
    {
      "channel": 0,
      "note": 66,
      "start": 35.1722,
      "duration": 0.2574,
      "velocity": 95,
      "chip": "ym2612"
    },
    {
      "channel": 2,
      "note": 66,
      "start": 35.174,
      "duration": 0.2568,
      "velocity": 95,
      "chip": "ym2612"
    },
    {
      "channel": 4,
      "note": 66,
      "start": 35.4061,
      "duration": 0.2581,
      "velocity": 95,
      "chip": "ym2612"
    },
    {
      "channel": 5,
      "note": 66,
      "start": 35.4078,
      "duration": 0.2567,
      "velocity": 95,
      "chip": "ym2612"
    },
    {
      "channel": 0,
      "note": 72,
      "start": 35.483,
      "duration": 0.2572,
      "velocity": 95,
      "chip": "ym2612"
    },
    {
      "channel": 1,
      "note": 42,
      "start": 35.4846,
      "duration": 0.5664,
      "velocity": 108,
      "chip": "ym2612"
    },
    {
      "channel": 2,
      "note": 68,
      "start": 35.4864,
      "duration": 0.2541,
      "velocity": 95,
      "chip": "ym2612"
    },
    {
      "channel": 3,
      "note": 61,
      "start": 35.4885,
      "duration": 0.0968,
      "velocity": 127,
      "chip": "ym2612"
    },
    {
      "channel": 4,
      "note": 72,
      "start": 35.7168,
      "duration": 0.2578,
      "velocity": 95,
      "chip": "ym2612"
    },
    {
      "channel": 5,
      "note": 68,
      "start": 35.7186,
      "duration": 0.2562,
      "velocity": 95,
      "chip": "ym2612"
    },
    {
      "channel": 0,
      "note": 66,
      "start": 35.7934,
      "duration": 0.2574,
      "velocity": 95,
      "chip": "ym2612"
    },
    {
      "channel": 2,
      "note": 66,
      "start": 35.7952,
      "duration": 0.256,
      "velocity": 95,
      "chip": "ym2612"
    },
    {
      "channel": 4,
      "note": 66,
      "start": 36.0273,
      "duration": 0.2573,
      "velocity": 95,
      "chip": "ym2612"
    },
    {
      "channel": 5,
      "note": 66,
      "start": 36.0289,
      "duration": 0.2559,
      "velocity": 95,
      "chip": "ym2612"
    },
    {
      "channel": 0,
      "note": 71,
      "start": 36.1046,
      "duration": 0.2568,
      "velocity": 95,
      "chip": "ym2612"
    },
    {
      "channel": 1,
      "note": 42,
      "start": 36.1096,
      "duration": 0.5626,
      "velocity": 108,
      "chip": "ym2612"
    },
    {
      "channel": 2,
      "note": 68,
      "start": 36.1118,
      "duration": 0.2499,
      "velocity": 95,
      "chip": "ym2612"
    },
    {
      "channel": 3,
      "note": 61,
      "start": 36.1149,
      "duration": 0.0915,
      "velocity": 127,
      "chip": "ym2612"
    },
    {
      "channel": 4,
      "note": 71,
      "start": 36.3384,
      "duration": 0.2567,
      "velocity": 95,
      "chip": "ym2612"
    },
    {
      "channel": 5,
      "note": 68,
      "start": 36.3406,
      "duration": 0.2548,
      "velocity": 95,
      "chip": "ym2612"
    },
    {
      "channel": 0,
      "note": 66,
      "start": 36.4154,
      "duration": 0.2566,
      "velocity": 95,
      "chip": "ym2612"
    },
    {
      "channel": 2,
      "note": 66,
      "start": 36.4172,
      "duration": 0.2551,
      "velocity": 95,
      "chip": "ym2612"
    },
    {
      "channel": 4,
      "note": 66,
      "start": 36.6492,
      "duration": 0.2566,
      "velocity": 95,
      "chip": "ym2612"
    },
    {
      "channel": 5,
      "note": 66,
      "start": 36.651,
      "duration": 0.255,
      "velocity": 95,
      "chip": "ym2612"
    },
    {
      "channel": 0,
      "note": 71,
      "start": 36.7253,
      "duration": 0.2573,
      "velocity": 95,
      "chip": "ym2612"
    },
    {
      "channel": 1,
      "note": 42,
      "start": 36.727,
      "duration": 0.1522,
      "velocity": 108,
      "chip": "ym2612"
    },
    {
      "channel": 2,
      "note": 68,
      "start": 36.7288,
      "duration": 0.2541,
      "velocity": 95,
      "chip": "ym2612"
    },
    {
      "channel": 3,
      "note": 61,
      "start": 36.7317,
      "duration": 0.0959,
      "velocity": 127,
      "chip": "ym2612"
    },
    {
      "channel": 1,
      "note": 42,
      "start": 36.9324,
      "duration": 0.1538,
      "velocity": 108,
      "chip": "ym2612"
    },
    {
      "channel": 3,
      "note": 61,
      "start": 36.9346,
      "duration": 0.1033,
      "velocity": 127,
      "chip": "ym2612"
    },
    {
      "channel": 4,
      "note": 71,
      "start": 36.9592,
      "duration": 0.2568,
      "velocity": 95,
      "chip": "ym2612"
    },
    {
      "channel": 5,
      "note": 68,
      "start": 36.961,
      "duration": 0.2551,
      "velocity": 95,
      "chip": "ym2612"
    },
    {
      "channel": 0,
      "note": 66,
      "start": 37.0358,
      "duration": 0.2573,
      "velocity": 95,
      "chip": "ym2612"
    },
    {
      "channel": 2,
      "note": 66,
      "start": 37.0376,
      "duration": 0.256,
      "velocity": 95,
      "chip": "ym2612"
    },
    {
      "channel": 1,
      "note": 42,
      "start": 37.1394,
      "duration": 0.154,
      "velocity": 108,
      "chip": "ym2612"
    },
    {
      "channel": 3,
      "note": 61,
      "start": 37.1416,
      "duration": 0.1002,
      "velocity": 127,
      "chip": "ym2612"
    },
    {
      "channel": 4,
      "note": 66,
      "start": 37.2696,
      "duration": 0.2574,
      "velocity": 95,
      "chip": "ym2612"
    },
    {
      "channel": 5,
      "note": 66,
      "start": 37.2713,
      "duration": 0.2559,
      "velocity": 95,
      "chip": "ym2612"
    },
    {
      "channel": 0,
      "note": 71,
      "start": 37.3473,
      "duration": 0.2564,
      "velocity": 95,
      "chip": "ym2612"
    },
    {
      "channel": 1,
      "note": 42,
      "start": 37.349,
      "duration": 0.5656,
      "velocity": 108,
      "chip": "ym2612"
    },
    {
      "channel": 2,
      "note": 68,
      "start": 37.3508,
      "duration": 0.2532,
      "velocity": 95,
      "chip": "ym2612"
    },
    {
      "channel": 3,
      "note": 61,
      "start": 37.3529,
      "duration": 0.0959,
      "velocity": 127,
      "chip": "ym2612"
    },
    {
      "channel": 4,
      "note": 71,
      "start": 37.5812,
      "duration": 0.2564,
      "velocity": 95,
      "chip": "ym2612"
    },
    {
      "channel": 5,
      "note": 68,
      "start": 37.5829,
      "duration": 0.2548,
      "velocity": 95,
      "chip": "ym2612"
    },
    {
      "channel": 0,
      "note": 66,
      "start": 37.657,
      "duration": 0.2573,
      "velocity": 95,
      "chip": "ym2612"
    },
    {
      "channel": 2,
      "note": 66,
      "start": 37.6588,
      "duration": 0.256,
      "velocity": 95,
      "chip": "ym2612"
    },
    {
      "channel": 4,
      "note": 66,
      "start": 37.8908,
      "duration": 0.2576,
      "velocity": 95,
      "chip": "ym2612"
    },
    {
      "channel": 5,
      "note": 66,
      "start": 37.8925,
      "duration": 0.2561,
      "velocity": 95,
      "chip": "ym2612"
    },
    {
      "channel": 0,
      "note": 71,
      "start": 37.9677,
      "duration": 0.2573,
      "velocity": 95,
      "chip": "ym2612"
    },
    {
      "channel": 1,
      "note": 42,
      "start": 37.9693,
      "duration": 0.5663,
      "velocity": 108,
      "chip": "ym2612"
    },
    {
      "channel": 2,
      "note": 68,
      "start": 37.9711,
      "duration": 0.2541,
      "velocity": 95,
      "chip": "ym2612"
    },
    {
      "channel": 3,
      "note": 61,
      "start": 37.9732,
      "duration": 0.0968,
      "velocity": 127,
      "chip": "ym2612"
    },
    {
      "channel": 4,
      "note": 71,
      "start": 38.2015,
      "duration": 0.2573,
      "velocity": 95,
      "chip": "ym2612"
    },
    {
      "channel": 5,
      "note": 68,
      "start": 38.2033,
      "duration": 0.2556,
      "velocity": 95,
      "chip": "ym2612"
    },
    {
      "channel": 0,
      "note": 66,
      "start": 38.2781,
      "duration": 0.2574,
      "velocity": 95,
      "chip": "ym2612"
    },
    {
      "channel": 2,
      "note": 66,
      "start": 38.2807,
      "duration": 0.2551,
      "velocity": 95,
      "chip": "ym2612"
    },
    {
      "channel": 4,
      "note": 66,
      "start": 38.512,
      "duration": 0.2573,
      "velocity": 95,
      "chip": "ym2612"
    },
    {
      "channel": 5,
      "note": 66,
      "start": 38.5144,
      "duration": 0.2551,
      "velocity": 95,
      "chip": "ym2612"
    },
    {
      "channel": 0,
      "note": 69,
      "start": 38.5924,
      "duration": 0.2537,
      "velocity": 95,
      "chip": "ym2612"
    },
    {
      "channel": 1,
      "note": 42,
      "start": 38.5982,
      "duration": 0.5587,
      "velocity": 108,
      "chip": "ym2612"
    },
    {
      "channel": 2,
      "note": 66,
      "start": 38.6004,
      "duration": 0.2459,
      "velocity": 95,
      "chip": "ym2612"
    },
    {
      "channel": 3,
      "note": 61,
      "start": 38.6027,
      "duration": 0.0885,
      "velocity": 127,
      "chip": "ym2612"
    },
    {
      "channel": 4,
      "note": 69,
      "start": 38.8262,
      "duration": 0.2545,
      "velocity": 95,
      "chip": "ym2612"
    },
    {
      "channel": 5,
      "note": 66,
      "start": 38.8284,
      "duration": 0.2525,
      "velocity": 95,
      "chip": "ym2612"
    },
    {
      "channel": 0,
      "note": 66,
      "start": 38.8993,
      "duration": 0.2574,
      "velocity": 95,
      "chip": "ym2612"
    },
    {
      "channel": 2,
      "note": 66,
      "start": 38.9011,
      "duration": 0.256,
      "velocity": 95,
      "chip": "ym2612"
    },
    {
      "channel": 4,
      "note": 66,
      "start": 39.1332,
      "duration": 0.2573,
      "velocity": 95,
      "chip": "ym2612"
    },
    {
      "channel": 5,
      "note": 66,
      "start": 39.1349,
      "duration": 0.2557,
      "velocity": 95,
      "chip": "ym2612"
    },
    {
      "channel": 0,
      "note": 69,
      "start": 39.21,
      "duration": 0.2572,
      "velocity": 95,
      "chip": "ym2612"
    },
    {
      "channel": 1,
      "note": 42,
      "start": 39.2117,
      "duration": 0.1526,
      "velocity": 108,
      "chip": "ym2612"
    },
    {
      "channel": 2,
      "note": 66,
      "start": 39.2143,
      "duration": 0.2532,
      "velocity": 95,
      "chip": "ym2612"
    },
    {
      "channel": 3,
      "note": 61,
      "start": 39.2164,
      "duration": 0.0959,
      "velocity": 127,
      "chip": "ym2612"
    },
    {
      "channel": 1,
      "note": 42,
      "start": 39.417,
      "duration": 0.1545,
      "velocity": 108,
      "chip": "ym2612"
    },
    {
      "channel": 3,
      "note": 61,
      "start": 39.4192,
      "duration": 0.1036,
      "velocity": 127,
      "chip": "ym2612"
    },
    {
      "channel": 4,
      "note": 69,
      "start": 39.4438,
      "duration": 0.2568,
      "velocity": 95,
      "chip": "ym2612"
    },
    {
      "channel": 5,
      "note": 66,
      "start": 39.4457,
      "duration": 0.2551,
      "velocity": 95,
      "chip": "ym2612"
    },
    {
      "channel": 0,
      "note": 66,
      "start": 39.5207,
      "duration": 0.2572,
      "velocity": 95,
      "chip": "ym2612"
    },
    {
      "channel": 2,
      "note": 66,
      "start": 39.5224,
      "duration": 0.2558,
      "velocity": 95,
      "chip": "ym2612"
    },
    {
      "channel": 1,
      "note": 42,
      "start": 39.624,
      "duration": 0.154,
      "velocity": 108,
      "chip": "ym2612"
    },
    {
      "channel": 3,
      "note": 61,
      "start": 39.6263,
      "duration": 0.1002,
      "velocity": 127,
      "chip": "ym2612"
    },
    {
      "channel": 4,
      "note": 66,
      "start": 39.7543,
      "duration": 0.2574,
      "velocity": 95,
      "chip": "ym2612"
    },
    {
      "channel": 5,
      "note": 66,
      "start": 39.756,
      "duration": 0.2559,
      "velocity": 95,
      "chip": "ym2612"
    },
    {
      "channel": 0,
      "note": 69,
      "start": 39.832,
      "duration": 0.2564,
      "velocity": 95,
      "chip": "ym2612"
    },
    {
      "channel": 1,
      "note": 42,
      "start": 39.8337,
      "duration": 0.5655,
      "velocity": 108,
      "chip": "ym2612"
    },
    {
      "channel": 2,
      "note": 66,
      "start": 39.8355,
      "duration": 0.2532,
      "velocity": 95,
      "chip": "ym2612"
    },
    {
      "channel": 3,
      "note": 61,
      "start": 39.8376,
      "duration": 0.0959,
      "velocity": 127,
      "chip": "ym2612"
    },
    {
      "channel": 4,
      "note": 69,
      "start": 40.0658,
      "duration": 0.2564,
      "velocity": 95,
      "chip": "ym2612"
    },
    {
      "channel": 5,
      "note": 66,
      "start": 40.0676,
      "duration": 0.2548,
      "velocity": 95,
      "chip": "ym2612"
    },
    {
      "channel": 0,
      "note": 66,
      "start": 40.1417,
      "duration": 0.2574,
      "velocity": 95,
      "chip": "ym2612"
    },
    {
      "channel": 2,
      "note": 66,
      "start": 40.1434,
      "duration": 0.256,
      "velocity": 95,
      "chip": "ym2612"
    },
    {
      "channel": 4,
      "note": 66,
      "start": 40.3754,
      "duration": 0.2574,
      "velocity": 95,
      "chip": "ym2612"
    },
    {
      "channel": 5,
      "note": 66,
      "start": 40.3771,
      "duration": 0.2559,
      "velocity": 95,
      "chip": "ym2612"
    },
    {
      "channel": 0,
      "note": 69,
      "start": 40.4523,
      "duration": 0.2573,
      "velocity": 95,
      "chip": "ym2612"
    },
    {
      "channel": 1,
      "note": 42,
      "start": 40.454,
      "duration": 0.5663,
      "velocity": 108,
      "chip": "ym2612"
    },
    {
      "channel": 2,
      "note": 66,
      "start": 40.4558,
      "duration": 0.2541,
      "velocity": 95,
      "chip": "ym2612"
    },
    {
      "channel": 3,
      "note": 61,
      "start": 40.4579,
      "duration": 0.0968,
      "velocity": 127,
      "chip": "ym2612"
    },
    {
      "channel": 4,
      "note": 69,
      "start": 40.6861,
      "duration": 0.2573,
      "velocity": 95,
      "chip": "ym2612"
    },
    {
      "channel": 5,
      "note": 66,
      "start": 40.688,
      "duration": 0.2556,
      "velocity": 95,
      "chip": "ym2612"
    },
    {
      "channel": 0,
      "note": 66,
      "start": 40.7628,
      "duration": 0.2574,
      "velocity": 95,
      "chip": "ym2612"
    },
    {
      "channel": 2,
      "note": 66,
      "start": 40.7654,
      "duration": 0.2552,
      "velocity": 95,
      "chip": "ym2612"
    },
    {
      "channel": 4,
      "note": 66,
      "start": 40.9974,
      "duration": 0.2565,
      "velocity": 95,
      "chip": "ym2612"
    },
    {
      "channel": 5,
      "note": 66,
      "start": 40.9992,
      "duration": 0.255,
      "velocity": 95,
      "chip": "ym2612"
    },
    {
      "channel": 0,
      "note": 73,
      "start": 41.077,
      "duration": 0.2546,
      "velocity": 95,
      "chip": "ym2612"
    },
    {
      "channel": 1,
      "note": 42,
      "start": 41.0829,
      "duration": 0.5586,
      "velocity": 108,
      "chip": "ym2612"
    },
    {
      "channel": 2,
      "note": 69,
      "start": 41.0882,
      "duration": 0.2438,
      "velocity": 95,
      "chip": "ym2612"
    },
    {
      "channel": 3,
      "note": 61,
      "start": 41.0905,
      "duration": 0.0854,
      "velocity": 127,
      "chip": "ym2612"
    },
    {
      "channel": 4,
      "note": 73,
      "start": 41.311,
      "duration": 0.2541,
      "velocity": 95,
      "chip": "ym2612"
    },
    {
      "channel": 5,
      "note": 69,
      "start": 41.3172,
      "duration": 0.248,
      "velocity": 95,
      "chip": "ym2612"
    },
    {
      "channel": 0,
      "note": 66,
      "start": 41.3847,
      "duration": 0.2566,
      "velocity": 95,
      "chip": "ym2612"
    },
    {
      "channel": 2,
      "note": 66,
      "start": 41.3865,
      "duration": 0.2553,
      "velocity": 95,
      "chip": "ym2612"
    },
    {
      "channel": 4,
      "note": 66,
      "start": 41.6178,
      "duration": 0.2573,
      "velocity": 95,
      "chip": "ym2612"
    },
    {
      "channel": 5,
      "note": 66,
      "start": 41.6195,
      "duration": 0.2559,
      "velocity": 95,
      "chip": "ym2612"
    },
    {
      "channel": 0,
      "note": 73,
      "start": 41.6947,
      "duration": 0.2573,
      "velocity": 95,
      "chip": "ym2612"
    },
    {
      "channel": 1,
      "note": 42,
      "start": 41.6964,
      "duration": 0.1521,
      "velocity": 108,
      "chip": "ym2612"
    },
    {
      "channel": 2,
      "note": 69,
      "start": 41.6991,
      "duration": 0.2531,
      "velocity": 95,
      "chip": "ym2612"
    },
    {
      "channel": 3,
      "note": 61,
      "start": 41.7012,
      "duration": 0.0968,
      "velocity": 127,
      "chip": "ym2612"
    },
    {
      "channel": 1,
      "note": 42,
      "start": 41.9017,
      "duration": 0.1539,
      "velocity": 108,
      "chip": "ym2612"
    },
    {
      "channel": 3,
      "note": 61,
      "start": 41.9039,
      "duration": 0.1034,
      "velocity": 127,
      "chip": "ym2612"
    },
    {
      "channel": 4,
      "note": 73,
      "start": 41.9285,
      "duration": 0.2568,
      "velocity": 95,
      "chip": "ym2612"
    },
    {
      "channel": 5,
      "note": 69,
      "start": 41.9312,
      "duration": 0.2543,
      "velocity": 95,
      "chip": "ym2612"
    },
    {
      "channel": 0,
      "note": 66,
      "start": 42.0051,
      "duration": 0.2574,
      "velocity": 95,
      "chip": "ym2612"
    },
    {
      "channel": 2,
      "note": 66,
      "start": 42.0069,
      "duration": 0.256,
      "velocity": 95,
      "chip": "ym2612"
    },
    {
      "channel": 1,
      "note": 42,
      "start": 42.1087,
      "duration": 0.154,
      "velocity": 108,
      "chip": "ym2612"
    },
    {
      "channel": 3,
      "note": 61,
      "start": 42.1109,
      "duration": 0.1002,
      "velocity": 127,
      "chip": "ym2612"
    },
    {
      "channel": 4,
      "note": 66,
      "start": 42.239,
      "duration": 0.2573,
      "velocity": 95,
      "chip": "ym2612"
    },
    {
      "channel": 5,
      "note": 66,
      "start": 42.2406,
      "duration": 0.2566,
      "velocity": 95,
      "chip": "ym2612"
    },
    {
      "channel": 0,
      "note": 73,
      "start": 42.3158,
      "duration": 0.2573,
      "velocity": 95,
      "chip": "ym2612"
    },
    {
      "channel": 1,
      "note": 42,
      "start": 42.3176,
      "duration": 0.5663,
      "velocity": 108,
      "chip": "ym2612"
    },
    {
      "channel": 2,
      "note": 69,
      "start": 42.3193,
      "duration": 0.2541,
      "velocity": 95,
      "chip": "ym2612"
    },
    {
      "channel": 3,
      "note": 61,
      "start": 42.3215,
      "duration": 0.0967,
      "velocity": 127,
      "chip": "ym2612"
    },
    {
      "channel": 4,
      "note": 73,
      "start": 42.55,
      "duration": 0.2569,
      "velocity": 95,
      "chip": "ym2612"
    },
    {
      "channel": 5,
      "note": 69,
      "start": 42.5518,
      "duration": 0.2553,
      "velocity": 95,
      "chip": "ym2612"
    },
    {
      "channel": 0,
      "note": 66,
      "start": 42.6263,
      "duration": 0.2574,
      "velocity": 95,
      "chip": "ym2612"
    },
    {
      "channel": 2,
      "note": 66,
      "start": 42.6281,
      "duration": 0.256,
      "velocity": 95,
      "chip": "ym2612"
    },
    {
      "channel": 4,
      "note": 66,
      "start": 42.8601,
      "duration": 0.2576,
      "velocity": 95,
      "chip": "ym2612"
    },
    {
      "channel": 5,
      "note": 66,
      "start": 42.8618,
      "duration": 0.2562,
      "velocity": 95,
      "chip": "ym2612"
    },
    {
      "channel": 0,
      "note": 73,
      "start": 42.937,
      "duration": 0.2573,
      "velocity": 95,
      "chip": "ym2612"
    },
    {
      "channel": 1,
      "note": 42,
      "start": 42.9387,
      "duration": 0.5664,
      "velocity": 108,
      "chip": "ym2612"
    },
    {
      "channel": 2,
      "note": 69,
      "start": 42.9405,
      "duration": 0.2541,
      "velocity": 95,
      "chip": "ym2612"
    },
    {
      "channel": 3,
      "note": 61,
      "start": 42.9425,
      "duration": 0.0968,
      "velocity": 127,
      "chip": "ym2612"
    },
    {
      "channel": 4,
      "note": 73,
      "start": 43.1715,
      "duration": 0.2566,
      "velocity": 95,
      "chip": "ym2612"
    },
    {
      "channel": 5,
      "note": 69,
      "start": 43.1733,
      "duration": 0.255,
      "velocity": 95,
      "chip": "ym2612"
    },
    {
      "channel": 0,
      "note": 66,
      "start": 43.2483,
      "duration": 0.2565,
      "velocity": 95,
      "chip": "ym2612"
    },
    {
      "channel": 2,
      "note": 66,
      "start": 43.2501,
      "duration": 0.2551,
      "velocity": 95,
      "chip": "ym2612"
    },
    {
      "channel": 4,
      "note": 66,
      "start": 43.4821,
      "duration": 0.2566,
      "velocity": 95,
      "chip": "ym2612"
    },
    {
      "channel": 5,
      "note": 66,
      "start": 43.4838,
      "duration": 0.255,
      "velocity": 95,
      "chip": "ym2612"
    },
    {
      "channel": 0,
      "note": 72,
      "start": 43.5586,
      "duration": 0.2568,
      "velocity": 95,
      "chip": "ym2612"
    },
    {
      "channel": 1,
      "note": 42,
      "start": 43.5645,
      "duration": 0.5617,
      "velocity": 108,
      "chip": "ym2612"
    },
    {
      "channel": 2,
      "note": 68,
      "start": 43.5667,
      "duration": 0.249,
      "velocity": 95,
      "chip": "ym2612"
    },
    {
      "channel": 3,
      "note": 61,
      "start": 43.569,
      "duration": 0.0916,
      "velocity": 127,
      "chip": "ym2612"
    },
    {
      "channel": 4,
      "note": 72,
      "start": 43.7924,
      "duration": 0.2568,
      "velocity": 95,
      "chip": "ym2612"
    },
    {
      "channel": 5,
      "note": 68,
      "start": 43.7946,
      "duration": 0.2548,
      "velocity": 95,
      "chip": "ym2612"
    },
    {
      "channel": 0,
      "note": 66,
      "start": 43.8687,
      "duration": 0.2573,
      "velocity": 95,
      "chip": "ym2612"
    },
    {
      "channel": 2,
      "note": 66,
      "start": 43.8705,
      "duration": 0.2559,
      "velocity": 95,
      "chip": "ym2612"
    },
    {
      "channel": 4,
      "note": 66,
      "start": 44.1025,
      "duration": 0.2573,
      "velocity": 95,
      "chip": "ym2612"
    },
    {
      "channel": 5,
      "note": 66,
      "start": 44.1042,
      "duration": 0.2559,
      "velocity": 95,
      "chip": "ym2612"
    },
    {
      "channel": 0,
      "note": 72,
      "start": 44.1794,
      "duration": 0.2572,
      "velocity": 95,
      "chip": "ym2612"
    },
    {
      "channel": 1,
      "note": 42,
      "start": 44.1819,
      "duration": 0.1513,
      "velocity": 108,
      "chip": "ym2612"
    },
    {
      "channel": 2,
      "note": 68,
      "start": 44.1837,
      "duration": 0.2532,
      "velocity": 95,
      "chip": "ym2612"
    },
    {
      "channel": 3,
      "note": 61,
      "start": 44.1858,
      "duration": 0.0959,
      "velocity": 127,
      "chip": "ym2612"
    },
    {
      "channel": 1,
      "note": 42,
      "start": 44.3864,
      "duration": 0.1539,
      "velocity": 108,
      "chip": "ym2612"
    },
    {
      "channel": 3,
      "note": 61,
      "start": 44.3885,
      "duration": 0.1034,
      "velocity": 127,
      "chip": "ym2612"
    },
    {
      "channel": 4,
      "note": 72,
      "start": 44.4141,
      "duration": 0.2559,
      "velocity": 95,
      "chip": "ym2612"
    },
    {
      "channel": 5,
      "note": 68,
      "start": 44.4158,
      "duration": 0.2543,
      "velocity": 95,
      "chip": "ym2612"
    },
    {
      "channel": 0,
      "note": 66,
      "start": 44.4898,
      "duration": 0.2578,
      "velocity": 95,
      "chip": "ym2612"
    },
    {
      "channel": 2,
      "note": 66,
      "start": 44.4916,
      "duration": 0.2564,
      "velocity": 95,
      "chip": "ym2612"
    },
    {
      "channel": 1,
      "note": 42,
      "start": 44.5934,
      "duration": 0.1543,
      "velocity": 108,
      "chip": "ym2612"
    },
    {
      "channel": 3,
      "note": 61,
      "start": 44.5956,
      "duration": 0.1002,
      "velocity": 127,
      "chip": "ym2612"
    },
    {
      "channel": 4,
      "note": 66,
      "start": 44.7237,
      "duration": 0.2588,
      "velocity": 95,
      "chip": "ym2612"
    },
    {
      "channel": 5,
      "note": 66,
      "start": 44.7253,
      "duration": 0.2574,
      "velocity": 95,
      "chip": "ym2612"
    },
    {
      "channel": 0,
      "note": 72,
      "start": 44.8006,
      "duration": 0.2573,
      "velocity": 95,
      "chip": "ym2612"
    },
    {
      "channel": 1,
      "note": 42,
      "start": 44.8022,
      "duration": 0.5663,
      "velocity": 108,
      "chip": "ym2612"
    },
    {
      "channel": 2,
      "note": 68,
      "start": 44.804,
      "duration": 0.2541,
      "velocity": 95,
      "chip": "ym2612"
    },
    {
      "channel": 3,
      "note": 61,
      "start": 44.8061,
      "duration": 0.097,
      "velocity": 127,
      "chip": "ym2612"
    },
    {
      "channel": 4,
      "note": 72,
      "start": 45.0343,
      "duration": 0.2573,
      "velocity": 95,
      "chip": "ym2612"
    },
    {
      "channel": 5,
      "note": 68,
      "start": 45.0362,
      "duration": 0.2556,
      "velocity": 95,
      "chip": "ym2612"
    },
    {
      "channel": 0,
      "note": 66,
      "start": 45.111,
      "duration": 0.2574,
      "velocity": 95,
      "chip": "ym2612"
    },
    {
      "channel": 2,
      "note": 66,
      "start": 45.1128,
      "duration": 0.256,
      "velocity": 95,
      "chip": "ym2612"
    },
    {
      "channel": 4,
      "note": 66,
      "start": 45.3448,
      "duration": 0.2573,
      "velocity": 95,
      "chip": "ym2612"
    },
    {
      "channel": 5,
      "note": 66,
      "start": 45.3473,
      "duration": 0.2551,
      "velocity": 95,
      "chip": "ym2612"
    },
    {
      "channel": 0,
      "note": 72,
      "start": 45.4217,
      "duration": 0.2573,
      "velocity": 95,
      "chip": "ym2612"
    },
    {
      "channel": 1,
      "note": 42,
      "start": 45.4233,
      "duration": 0.5664,
      "velocity": 108,
      "chip": "ym2612"
    },
    {
      "channel": 2,
      "note": 68,
      "start": 45.4252,
      "duration": 0.2541,
      "velocity": 95,
      "chip": "ym2612"
    },
    {
      "channel": 3,
      "note": 61,
      "start": 45.4273,
      "duration": 0.0968,
      "velocity": 127,
      "chip": "ym2612"
    },
    {
      "channel": 4,
      "note": 72,
      "start": 45.6555,
      "duration": 0.2572,
      "velocity": 95,
      "chip": "ym2612"
    },
    {
      "channel": 5,
      "note": 68,
      "start": 45.6574,
      "duration": 0.2556,
      "velocity": 95,
      "chip": "ym2612"
    },
    {
      "channel": 0,
      "note": 66,
      "start": 45.7323,
      "duration": 0.2573,
      "velocity": 95,
      "chip": "ym2612"
    },
    {
      "channel": 2,
      "note": 66,
      "start": 45.7341,
      "duration": 0.2559,
      "velocity": 95,
      "chip": "ym2612"
    },
    {
      "channel": 4,
      "note": 66,
      "start": 45.9665,
      "duration": 0.2568,
      "velocity": 95,
      "chip": "ym2612"
    },
    {
      "channel": 5,
      "note": 66,
      "start": 45.9682,
      "duration": 0.2554,
      "velocity": 95,
      "chip": "ym2612"
    },
    {
      "channel": 0,
      "note": 71,
      "start": 46.0433,
      "duration": 0.2568,
      "velocity": 95,
      "chip": "ym2612"
    },
    {
      "channel": 1,
      "note": 42,
      "start": 46.0492,
      "duration": 0.5618,
      "velocity": 108,
      "chip": "ym2612"
    },
    {
      "channel": 2,
      "note": 68,
      "start": 46.0514,
      "duration": 0.249,
      "velocity": 95,
      "chip": "ym2612"
    },
    {
      "channel": 3,
      "note": 61,
      "start": 46.0536,
      "duration": 0.0916,
      "velocity": 127,
      "chip": "ym2612"
    },
    {
      "channel": 4,
      "note": 71,
      "start": 46.2771,
      "duration": 0.2568,
      "velocity": 95,
      "chip": "ym2612"
    },
    {
      "channel": 5,
      "note": 68,
      "start": 46.2793,
      "duration": 0.2548,
      "velocity": 95,
      "chip": "ym2612"
    },
    {
      "channel": 0,
      "note": 66,
      "start": 46.3534,
      "duration": 0.2573,
      "velocity": 95,
      "chip": "ym2612"
    },
    {
      "channel": 2,
      "note": 66,
      "start": 46.3551,
      "duration": 0.256,
      "velocity": 95,
      "chip": "ym2612"
    },
    {
      "channel": 4,
      "note": 66,
      "start": 46.5871,
      "duration": 0.2574,
      "velocity": 95,
      "chip": "ym2612"
    },
    {
      "channel": 5,
      "note": 66,
      "start": 46.5889,
      "duration": 0.2559,
      "velocity": 95,
      "chip": "ym2612"
    },
    {
      "channel": 0,
      "note": 71,
      "start": 46.6649,
      "duration": 0.2564,
      "velocity": 95,
      "chip": "ym2612"
    },
    {
      "channel": 1,
      "note": 42,
      "start": 46.6665,
      "duration": 0.1513,
      "velocity": 108,
      "chip": "ym2612"
    },
    {
      "channel": 2,
      "note": 68,
      "start": 46.6684,
      "duration": 0.2532,
      "velocity": 95,
      "chip": "ym2612"
    },
    {
      "channel": 3,
      "note": 61,
      "start": 46.6705,
      "duration": 0.0967,
      "velocity": 127,
      "chip": "ym2612"
    },
    {
      "channel": 1,
      "note": 42,
      "start": 46.871,
      "duration": 0.1539,
      "velocity": 108,
      "chip": "ym2612"
    },
    {
      "channel": 3,
      "note": 61,
      "start": 46.8733,
      "duration": 0.1033,
      "velocity": 127,
      "chip": "ym2612"
    },
    {
      "channel": 4,
      "note": 71,
      "start": 46.8987,
      "duration": 0.2559,
      "velocity": 95,
      "chip": "ym2612"
    },
    {
      "channel": 5,
      "note": 68,
      "start": 46.9005,
      "duration": 0.2544,
      "velocity": 95,
      "chip": "ym2612"
    },
    {
      "channel": 0,
      "note": 66,
      "start": 46.9745,
      "duration": 0.2574,
      "velocity": 95,
      "chip": "ym2612"
    },
    {
      "channel": 2,
      "note": 66,
      "start": 46.9763,
      "duration": 0.2561,
      "velocity": 95,
      "chip": "ym2612"
    },
    {
      "channel": 1,
      "note": 42,
      "start": 47.0781,
      "duration": 0.1539,
      "velocity": 108,
      "chip": "ym2612"
    },
    {
      "channel": 3,
      "note": 61,
      "start": 47.0812,
      "duration": 0.1001,
      "velocity": 127,
      "chip": "ym2612"
    },
    {
      "channel": 4,
      "note": 66,
      "start": 47.2083,
      "duration": 0.2573,
      "velocity": 95,
      "chip": "ym2612"
    },
    {
      "channel": 5,
      "note": 66,
      "start": 47.21,
      "duration": 0.2559,
      "velocity": 95,
      "chip": "ym2612"
    },
    {
      "channel": 0,
      "note": 71,
      "start": 47.2852,
      "duration": 0.2573,
      "velocity": 95,
      "chip": "ym2612"
    },
    {
      "channel": 1,
      "note": 42,
      "start": 47.2869,
      "duration": 0.5663,
      "velocity": 108,
      "chip": "ym2612"
    },
    {
      "channel": 2,
      "note": 68,
      "start": 47.2887,
      "duration": 0.254,
      "velocity": 95,
      "chip": "ym2612"
    },
    {
      "channel": 3,
      "note": 61,
      "start": 47.2908,
      "duration": 0.0968,
      "velocity": 127,
      "chip": "ym2612"
    },
    {
      "channel": 4,
      "note": 71,
      "start": 47.519,
      "duration": 0.2573,
      "velocity": 95,
      "chip": "ym2612"
    },
    {
      "channel": 5,
      "note": 68,
      "start": 47.5209,
      "duration": 0.2556,
      "velocity": 95,
      "chip": "ym2612"
    },
    {
      "channel": 0,
      "note": 66,
      "start": 47.5957,
      "duration": 0.2574,
      "velocity": 95,
      "chip": "ym2612"
    },
    {
      "channel": 2,
      "note": 66,
      "start": 47.5983,
      "duration": 0.2551,
      "velocity": 95,
      "chip": "ym2612"
    },
    {
      "channel": 4,
      "note": 66,
      "start": 47.8295,
      "duration": 0.2573,
      "velocity": 95,
      "chip": "ym2612"
    },
    {
      "channel": 5,
      "note": 66,
      "start": 47.832,
      "duration": 0.2551,
      "velocity": 95,
      "chip": "ym2612"
    },
    {
      "channel": 0,
      "note": 71,
      "start": 47.9064,
      "duration": 0.2578,
      "velocity": 95,
      "chip": "ym2612"
    },
    {
      "channel": 1,
      "note": 42,
      "start": 47.9081,
      "duration": 0.5665,
      "velocity": 108,
      "chip": "ym2612"
    },
    {
      "channel": 2,
      "note": 68,
      "start": 47.9098,
      "duration": 0.2546,
      "velocity": 95,
      "chip": "ym2612"
    },
    {
      "channel": 3,
      "note": 61,
      "start": 47.912,
      "duration": 0.0968,
      "velocity": 127,
      "chip": "ym2612"
    },
    {
      "channel": 4,
      "note": 71,
      "start": 48.1402,
      "duration": 0.2581,
      "velocity": 95,
      "chip": "ym2612"
    },
    {
      "channel": 5,
      "note": 68,
      "start": 48.142,
      "duration": 0.2566,
      "velocity": 95,
      "chip": "ym2612"
    },
    {
      "channel": 0,
      "note": 66,
      "start": 48.2168,
      "duration": 0.2574,
      "velocity": 95,
      "chip": "ym2612"
    },
    {
      "channel": 2,
      "note": 66,
      "start": 48.2186,
      "duration": 0.2561,
      "velocity": 95,
      "chip": "ym2612"
    },
    {
      "channel": 4,
      "note": 66,
      "start": 48.451,
      "duration": 0.2571,
      "velocity": 95,
      "chip": "ym2612"
    },
    {
      "channel": 5,
      "note": 66,
      "start": 48.4526,
      "duration": 0.2556,
      "velocity": 95,
      "chip": "ym2612"
    },
    {
      "channel": 0,
      "note": 69,
      "start": 48.5285,
      "duration": 0.2563,
      "velocity": 95,
      "chip": "ym2612"
    },
    {
      "channel": 1,
      "note": 42,
      "start": 48.5313,
      "duration": 0.5643,
      "velocity": 108,
      "chip": "ym2612"
    },
    {
      "channel": 2,
      "note": 66,
      "start": 48.5335,
      "duration": 0.2516,
      "velocity": 95,
      "chip": "ym2612"
    },
    {
      "channel": 3,
      "note": 61,
      "start": 48.5361,
      "duration": 0.0947,
      "velocity": 127,
      "chip": "ym2612"
    },
    {
      "channel": 4,
      "note": 69,
      "start": 48.7618,
      "duration": 0.2568,
      "velocity": 95,
      "chip": "ym2612"
    },
    {
      "channel": 5,
      "note": 66,
      "start": 48.7649,
      "duration": 0.2539,
      "velocity": 95,
      "chip": "ym2612"
    },
    {
      "channel": 0,
      "note": 66,
      "start": 48.838,
      "duration": 0.2573,
      "velocity": 95,
      "chip": "ym2612"
    },
    {
      "channel": 2,
      "note": 66,
      "start": 48.8398,
      "duration": 0.256,
      "velocity": 95,
      "chip": "ym2612"
    },
    {
      "channel": 4,
      "note": 66,
      "start": 49.0718,
      "duration": 0.2574,
      "velocity": 95,
      "chip": "ym2612"
    },
    {
      "channel": 5,
      "note": 66,
      "start": 49.0735,
      "duration": 0.2559,
      "velocity": 95,
      "chip": "ym2612"
    },
    {
      "channel": 0,
      "note": 69,
      "start": 49.1491,
      "duration": 0.2569,
      "velocity": 95,
      "chip": "ym2612"
    },
    {
      "channel": 1,
      "note": 42,
      "start": 49.1507,
      "duration": 0.1518,
      "velocity": 108,
      "chip": "ym2612"
    },
    {
      "channel": 2,
      "note": 66,
      "start": 49.1526,
      "duration": 0.2537,
      "velocity": 95,
      "chip": "ym2612"
    },
    {
      "channel": 3,
      "note": 61,
      "start": 49.1547,
      "duration": 0.0964,
      "velocity": 127,
      "chip": "ym2612"
    },
    {
      "channel": 1,
      "note": 42,
      "start": 49.3557,
      "duration": 0.1539,
      "velocity": 108,
      "chip": "ym2612"
    },
    {
      "channel": 3,
      "note": 61,
      "start": 49.3579,
      "duration": 0.1033,
      "velocity": 127,
      "chip": "ym2612"
    },
    {
      "channel": 4,
      "note": 69,
      "start": 49.3833,
      "duration": 0.256,
      "velocity": 95,
      "chip": "ym2612"
    },
    {
      "channel": 5,
      "note": 66,
      "start": 49.3852,
      "duration": 0.2544,
      "velocity": 95,
      "chip": "ym2612"
    },
    {
      "channel": 0,
      "note": 66,
      "start": 49.4592,
      "duration": 0.2573,
      "velocity": 95,
      "chip": "ym2612"
    },
    {
      "channel": 2,
      "note": 66,
      "start": 49.461,
      "duration": 0.256,
      "velocity": 95,
      "chip": "ym2612"
    },
    {
      "channel": 1,
      "note": 42,
      "start": 49.5628,
      "duration": 0.1539,
      "velocity": 108,
      "chip": "ym2612"
    },
    {
      "channel": 3,
      "note": 61,
      "start": 49.5658,
      "duration": 0.0994,
      "velocity": 127,
      "chip": "ym2612"
    },
    {
      "channel": 4,
      "note": 66,
      "start": 49.693,
      "duration": 0.2574,
      "velocity": 95,
      "chip": "ym2612"
    },
    {
      "channel": 5,
      "note": 66,
      "start": 49.6947,
      "duration": 0.2559,
      "velocity": 95,
      "chip": "ym2612"
    },
    {
      "channel": 0,
      "note": 66,
      "start": 49.7699,
      "duration": 1.189,
      "velocity": 95,
      "chip": "ym2612"
    },
    {
      "channel": 1,
      "note": 42,
      "start": 49.7716,
      "duration": 1.1875,
      "velocity": 108,
      "chip": "ym2612"
    },
    {
      "channel": 2,
      "note": 66,
      "start": 49.7734,
      "duration": 1.1859,
      "velocity": 95,
      "chip": "ym2612"
    },
    {
      "channel": 3,
      "note": 61,
      "start": 49.7755,
      "duration": 0.0967,
      "velocity": 127,
      "chip": "ym2612"
    },
    {
      "channel": 4,
      "note": 66,
      "start": 50.0037,
      "duration": 1.1185,
      "velocity": 95,
      "chip": "ym2612"
    },
    {
      "channel": 5,
      "note": 66,
      "start": 50.0055,
      "duration": 1.117,
      "velocity": 95,
      "chip": "ym2612"
    },
    {
      "channel": 0,
      "note": 21,
      "start": 51.0123,
      "duration": 0.0242,
      "velocity": 95,
      "chip": "ym2612"
    },
    {
      "channel": 1,
      "note": 21,
      "start": 51.0151,
      "duration": 0.0216,
      "velocity": 108,
      "chip": "ym2612"
    },
    {
      "channel": 2,
      "note": 21,
      "start": 51.017,
      "duration": 0.0199,
      "velocity": 95,
      "chip": "ym2612"
    },
    {
      "channel": 3,
      "note": 61,
      "start": 51.0198,
      "duration": 0.0595,
      "velocity": 127,
      "chip": "ym2612"
    },
    {
      "channel": 4,
      "note": 21,
      "start": 51.1523,
      "duration": 0.0128,
      "velocity": 95,
      "chip": "ym2612"
    },
    {
      "channel": 5,
      "note": 21,
      "start": 51.1542,
      "duration": 0.0111,
      "velocity": 95,
      "chip": "ym2612"
    },
    {
      "channel": 3,
      "note": 61,
      "start": 51.251,
      "duration": 0.0548,
      "velocity": 127,
      "chip": "ym2612"
    },
    {
      "channel": 3,
      "note": 61,
      "start": 51.3649,
      "duration": 0.0539,
      "velocity": 127,
      "chip": "ym2612"
    },
    {
      "channel": 3,
      "note": 61,
      "start": 51.4773,
      "duration": 0.0547,
      "velocity": 127,
      "chip": "ym2612"
    },
    {
      "channel": 3,
      "note": 61,
      "start": 51.5905,
      "duration": 0.0547,
      "velocity": 127,
      "chip": "ym2612"
    },
    {
      "channel": 3,
      "note": 61,
      "start": 51.7037,
      "duration": 0.0546,
      "velocity": 127,
      "chip": "ym2612"
    },
    {
      "channel": 3,
      "note": 61,
      "start": 51.9307,
      "duration": 0.0539,
      "velocity": 127,
      "chip": "ym2612"
    },
    {
      "channel": 3,
      "note": 61,
      "start": 52.0431,
      "duration": 0.0556,
      "velocity": 127,
      "chip": "ym2612"
    },
    {
      "channel": 3,
      "note": 61,
      "start": 52.1562,
      "duration": 0.0547,
      "velocity": 127,
      "chip": "ym2612"
    },
    {
      "channel": 3,
      "note": 61,
      "start": 52.2698,
      "duration": 0.0543,
      "velocity": 127,
      "chip": "ym2612"
    },
    {
      "channel": 0,
      "note": 21,
      "start": 52.3822,
      "duration": 0.0122,
      "velocity": 95,
      "chip": "ym2612"
    },
    {
      "channel": 1,
      "note": 21,
      "start": 52.3838,
      "duration": 0.0108,
      "velocity": 108,
      "chip": "ym2612"
    },
    {
      "channel": 2,
      "note": 21,
      "start": 52.3854,
      "duration": 0.0094,
      "velocity": 95,
      "chip": "ym2612"
    },
    {
      "channel": 3,
      "note": 61,
      "start": 52.3877,
      "duration": 0.0497,
      "velocity": 127,
      "chip": "ym2612"
    },
    {
      "channel": 4,
      "note": 21,
      "start": 52.5098,
      "duration": 0.0128,
      "velocity": 95,
      "chip": "ym2612"
    },
    {
      "channel": 5,
      "note": 21,
      "start": 52.5115,
      "duration": 0.0114,
      "velocity": 95,
      "chip": "ym2612"
    },
    {
      "channel": 3,
      "note": 61,
      "start": 52.6088,
      "duration": 0.0556,
      "velocity": 127,
      "chip": "ym2612"
    },
    {
      "channel": 3,
      "note": 61,
      "start": 52.722,
      "duration": 0.0548,
      "velocity": 127,
      "chip": "ym2612"
    },
    {
      "channel": 3,
      "note": 61,
      "start": 52.8352,
      "duration": 0.0548,
      "velocity": 127,
      "chip": "ym2612"
    },
    {
      "channel": 3,
      "note": 61,
      "start": 52.9492,
      "duration": 0.0539,
      "velocity": 127,
      "chip": "ym2612"
    },
    {
      "channel": 3,
      "note": 61,
      "start": 53.0618,
      "duration": 0.0545,
      "velocity": 127,
      "chip": "ym2612"
    },
    {
      "channel": 3,
      "note": 61,
      "start": 53.1747,
      "duration": 0.0547,
      "velocity": 127,
      "chip": "ym2612"
    },
    {
      "channel": 3,
      "note": 61,
      "start": 53.2878,
      "duration": 0.0548,
      "velocity": 127,
      "chip": "ym2612"
    },
    {
      "channel": 3,
      "note": 61,
      "start": 53.4011,
      "duration": 0.0546,
      "velocity": 127,
      "chip": "ym2612"
    },
    {
      "channel": 3,
      "note": 61,
      "start": 53.5149,
      "duration": 0.0539,
      "velocity": 127,
      "chip": "ym2612"
    },
    {
      "channel": 3,
      "note": 61,
      "start": 53.6272,
      "duration": 0.0548,
      "velocity": 127,
      "chip": "ym2612"
    },
    {
      "channel": 0,
      "note": 52,
      "start": 53.7432,
      "duration": 0.2071,
      "velocity": 111,
      "chip": "ym2612"
    },
    {
      "channel": 1,
      "note": 52,
      "start": 53.7494,
      "duration": 0.2012,
      "velocity": 108,
      "chip": "ym2612"
    },
    {
      "channel": 2,
      "note": 47,
      "start": 53.7548,
      "duration": 0.1961,
      "velocity": 111,
      "chip": "ym2612"
    },
    {
      "channel": 3,
      "note": 61,
      "start": 53.7607,
      "duration": 0.0486,
      "velocity": 127,
      "chip": "ym2612"
    },
    {
      "channel": 4,
      "note": 52,
      "start": 53.8864,
      "duration": 0.1921,
      "velocity": 111,
      "chip": "ym2612"
    },
    {
      "channel": 5,
      "note": 47,
      "start": 53.8919,
      "duration": 0.1869,
      "velocity": 111,
      "chip": "ym2612"
    },
    {
      "channel": 0,
      "note": 54,
      "start": 53.981,
      "duration": 0.0118,
      "velocity": 111,
      "chip": "ym2612"
    },
    {
      "channel": 1,
      "note": 54,
      "start": 53.9827,
      "duration": 0.0816,
      "velocity": 108,
      "chip": "ym2612"
    },
    {
      "channel": 2,
      "note": 49,
      "start": 53.9844,
      "duration": 0.0087,
      "velocity": 111,
      "chip": "ym2612"
    },
    {
      "channel": 3,
      "note": 61,
      "start": 53.9865,
      "duration": 0.0492,
      "velocity": 127,
      "chip": "ym2612"
    },
    {
      "channel": 0,
      "note": 54,
      "start": 54.0939,
      "duration": 0.012,
      "velocity": 111,
      "chip": "ym2612"
    },
    {
      "channel": 1,
      "note": 54,
      "start": 54.0957,
      "duration": 0.0811,
      "velocity": 108,
      "chip": "ym2612"
    },
    {
      "channel": 2,
      "note": 49,
      "start": 54.0982,
      "duration": 0.0081,
      "velocity": 111,
      "chip": "ym2612"
    },
    {
      "channel": 3,
      "note": 61,
      "start": 54.1035,
      "duration": 0.0454,
      "velocity": 127,
      "chip": "ym2612"
    },
    {
      "channel": 4,
      "note": 54,
      "start": 54.1085,
      "duration": 0.012,
      "velocity": 111,
      "chip": "ym2612"
    },
    {
      "channel": 5,
      "note": 49,
      "start": 54.1102,
      "duration": 0.0106,
      "velocity": 111,
      "chip": "ym2612"
    },
    {
      "channel": 0,
      "note": 54,
      "start": 54.2064,
      "duration": 0.0127,
      "velocity": 111,
      "chip": "ym2612"
    },
    {
      "channel": 1,
      "note": 54,
      "start": 54.2082,
      "duration": 0.0817,
      "velocity": 108,
      "chip": "ym2612"
    },
    {
      "channel": 2,
      "note": 49,
      "start": 54.2098,
      "duration": 0.0095,
      "velocity": 111,
      "chip": "ym2612"
    },
    {
      "channel": 4,
      "note": 54,
      "start": 54.2216,
      "duration": 0.0125,
      "velocity": 111,
      "chip": "ym2612"
    },
    {
      "channel": 5,
      "note": 49,
      "start": 54.2233,
      "duration": 0.0111,
      "velocity": 111,
      "chip": "ym2612"
    },
    {
      "channel": 0,
      "note": 54,
      "start": 54.3196,
      "duration": 0.0127,
      "velocity": 111,
      "chip": "ym2612"
    },
    {
      "channel": 1,
      "note": 54,
      "start": 54.3214,
      "duration": 0.0817,
      "velocity": 108,
      "chip": "ym2612"
    },
    {
      "channel": 2,
      "note": 49,
      "start": 54.323,
      "duration": 0.0096,
      "velocity": 111,
      "chip": "ym2612"
    },
    {
      "channel": 3,
      "note": 61,
      "start": 54.3283,
      "duration": 0.0468,
      "velocity": 127,
      "chip": "ym2612"
    },
    {
      "channel": 4,
      "note": 54,
      "start": 54.3348,
      "duration": 0.0129,
      "velocity": 111,
      "chip": "ym2612"
    },
    {
      "channel": 5,
      "note": 49,
      "start": 54.3364,
      "duration": 0.0115,
      "velocity": 111,
      "chip": "ym2612"
    },
    {
      "channel": 0,
      "note": 52,
      "start": 54.4333,
      "duration": 0.196,
      "velocity": 111,
      "chip": "ym2612"
    },
    {
      "channel": 1,
      "note": 52,
      "start": 54.4352,
      "duration": 0.1943,
      "velocity": 108,
      "chip": "ym2612"
    },
    {
      "channel": 2,
      "note": 47,
      "start": 54.4371,
      "duration": 0.1927,
      "velocity": 111,
      "chip": "ym2612"
    },
    {
      "channel": 3,
      "note": 61,
      "start": 54.4425,
      "duration": 0.0458,
      "velocity": 127,
      "chip": "ym2612"
    },
    {
      "channel": 4,
      "note": 54,
      "start": 54.4486,
      "duration": 0.0115,
      "velocity": 111,
      "chip": "ym2612"
    },
    {
      "channel": 5,
      "note": 49,
      "start": 54.4502,
      "duration": 0.01,
      "velocity": 111,
      "chip": "ym2612"
    },
    {
      "channel": 4,
      "note": 52,
      "start": 54.5611,
      "duration": 0.197,
      "velocity": 111,
      "chip": "ym2612"
    },
    {
      "channel": 5,
      "note": 47,
      "start": 54.5628,
      "duration": 0.1955,
      "velocity": 111,
      "chip": "ym2612"
    },
    {
      "channel": 0,
      "note": 54,
      "start": 54.6591,
      "duration": 0.0127,
      "velocity": 111,
      "chip": "ym2612"
    },
    {
      "channel": 1,
      "note": 54,
      "start": 54.6609,
      "duration": 0.0817,
      "velocity": 108,
      "chip": "ym2612"
    },
    {
      "channel": 2,
      "note": 49,
      "start": 54.6625,
      "duration": 0.0095,
      "velocity": 111,
      "chip": "ym2612"
    },
    {
      "channel": 3,
      "note": 61,
      "start": 54.6654,
      "duration": 0.0492,
      "velocity": 127,
      "chip": "ym2612"
    },
    {
      "channel": 0,
      "note": 54,
      "start": 54.7722,
      "duration": 0.0127,
      "velocity": 111,
      "chip": "ym2612"
    },
    {
      "channel": 1,
      "note": 54,
      "start": 54.774,
      "duration": 0.0817,
      "velocity": 108,
      "chip": "ym2612"
    },
    {
      "channel": 2,
      "note": 49,
      "start": 54.7757,
      "duration": 0.0095,
      "velocity": 111,
      "chip": "ym2612"
    },
    {
      "channel": 3,
      "note": 61,
      "start": 54.7818,
      "duration": 0.046,
      "velocity": 127,
      "chip": "ym2612"
    },
    {
      "channel": 4,
      "note": 54,
      "start": 54.7875,
      "duration": 0.012,
      "velocity": 111,
      "chip": "ym2612"
    },
    {
      "channel": 5,
      "note": 49,
      "start": 54.7891,
      "duration": 0.0106,
      "velocity": 111,
      "chip": "ym2612"
    },
    {
      "channel": 0,
      "note": 54,
      "start": 54.8854,
      "duration": 0.0127,
      "velocity": 111,
      "chip": "ym2612"
    },
    {
      "channel": 1,
      "note": 54,
      "start": 54.8871,
      "duration": 0.0817,
      "velocity": 108,
      "chip": "ym2612"
    },
    {
      "channel": 2,
      "note": 49,
      "start": 54.8888,
      "duration": 0.0096,
      "velocity": 111,
      "chip": "ym2612"
    },
    {
      "channel": 4,
      "note": 54,
      "start": 54.9006,
      "duration": 0.0125,
      "velocity": 111,
      "chip": "ym2612"
    },
    {
      "channel": 5,
      "note": 49,
      "start": 54.9022,
      "duration": 0.012,
      "velocity": 111,
      "chip": "ym2612"
    },
    {
      "channel": 0,
      "note": 54,
      "start": 54.999,
      "duration": 0.0123,
      "velocity": 111,
      "chip": "ym2612"
    },
    {
      "channel": 1,
      "note": 54,
      "start": 55.0007,
      "duration": 0.0813,
      "velocity": 108,
      "chip": "ym2612"
    },
    {
      "channel": 2,
      "note": 49,
      "start": 55.0024,
      "duration": 0.0092,
      "velocity": 111,
      "chip": "ym2612"
    },
    {
      "channel": 3,
      "note": 61,
      "start": 55.0077,
      "duration": 0.0464,
      "velocity": 127,
      "chip": "ym2612"
    },
    {
      "channel": 4,
      "note": 54,
      "start": 55.0146,
      "duration": 0.0112,
      "velocity": 111,
      "chip": "ym2612"
    },
    {
      "channel": 5,
      "note": 49,
      "start": 55.0162,
      "duration": 0.0098,
      "velocity": 111,
      "chip": "ym2612"
    },
    {
      "channel": 0,
      "note": 52,
      "start": 55.1118,
      "duration": 0.1964,
      "velocity": 111,
      "chip": "ym2612"
    },
    {
      "channel": 1,
      "note": 52,
      "start": 55.1146,
      "duration": 0.1939,
      "velocity": 108,
      "chip": "ym2612"
    },
    {
      "channel": 2,
      "note": 47,
      "start": 55.1164,
      "duration": 0.1923,
      "velocity": 111,
      "chip": "ym2612"
    },
    {
      "channel": 3,
      "note": 61,
      "start": 55.1219,
      "duration": 0.0454,
      "velocity": 127,
      "chip": "ym2612"
    },
    {
      "channel": 4,
      "note": 54,
      "start": 55.1267,
      "duration": 0.0123,
      "velocity": 111,
      "chip": "ym2612"
    },
    {
      "channel": 5,
      "note": 49,
      "start": 55.1284,
      "duration": 0.0108,
      "velocity": 111,
      "chip": "ym2612"
    },
    {
      "channel": 4,
      "note": 52,
      "start": 55.24,
      "duration": 0.1964,
      "velocity": 111,
      "chip": "ym2612"
    },
    {
      "channel": 5,
      "note": 47,
      "start": 55.2419,
      "duration": 0.1948,
      "velocity": 111,
      "chip": "ym2612"
    },
    {
      "channel": 0,
      "note": 54,
      "start": 55.338,
      "duration": 0.0127,
      "velocity": 111,
      "chip": "ym2612"
    },
    {
      "channel": 1,
      "note": 54,
      "start": 55.3398,
      "duration": 0.0823,
      "velocity": 108,
      "chip": "ym2612"
    },
    {
      "channel": 2,
      "note": 49,
      "start": 55.3415,
      "duration": 0.0095,
      "velocity": 111,
      "chip": "ym2612"
    },
    {
      "channel": 3,
      "note": 61,
      "start": 55.3436,
      "duration": 0.05,
      "velocity": 127,
      "chip": "ym2612"
    },
    {
      "channel": 0,
      "note": 54,
      "start": 55.4511,
      "duration": 0.013,
      "velocity": 111,
      "chip": "ym2612"
    },
    {
      "channel": 1,
      "note": 54,
      "start": 55.453,
      "duration": 0.0817,
      "velocity": 108,
      "chip": "ym2612"
    },
    {
      "channel": 2,
      "note": 49,
      "start": 55.4546,
      "duration": 0.0099,
      "velocity": 111,
      "chip": "ym2612"
    },
    {
      "channel": 3,
      "note": 61,
      "start": 55.4599,
      "duration": 0.0468,
      "velocity": 127,
      "chip": "ym2612"
    },
    {
      "channel": 4,
      "note": 54,
      "start": 55.4667,
      "duration": 0.0118,
      "velocity": 111,
      "chip": "ym2612"
    },
    {
      "channel": 5,
      "note": 49,
      "start": 55.4684,
      "duration": 0.0102,
      "velocity": 111,
      "chip": "ym2612"
    },
    {
      "channel": 0,
      "note": 54,
      "start": 55.5651,
      "duration": 0.0119,
      "velocity": 111,
      "chip": "ym2612"
    },
    {
      "channel": 1,
      "note": 54,
      "start": 55.567,
      "duration": 0.0808,
      "velocity": 108,
      "chip": "ym2612"
    },
    {
      "channel": 2,
      "note": 49,
      "start": 55.5686,
      "duration": 0.0087,
      "velocity": 111,
      "chip": "ym2612"
    },
    {
      "channel": 4,
      "note": 54,
      "start": 55.5795,
      "duration": 0.0129,
      "velocity": 111,
      "chip": "ym2612"
    },
    {
      "channel": 5,
      "note": 49,
      "start": 55.582,
      "duration": 0.0105,
      "velocity": 111,
      "chip": "ym2612"
    },
    {
      "channel": 0,
      "note": 54,
      "start": 55.6775,
      "duration": 0.0127,
      "velocity": 111,
      "chip": "ym2612"
    },
    {
      "channel": 1,
      "note": 54,
      "start": 55.6793,
      "duration": 0.0817,
      "velocity": 108,
      "chip": "ym2612"
    },
    {
      "channel": 2,
      "note": 49,
      "start": 55.6818,
      "duration": 0.0087,
      "velocity": 111,
      "chip": "ym2612"
    },
    {
      "channel": 3,
      "note": 61,
      "start": 55.6871,
      "duration": 0.0459,
      "velocity": 127,
      "chip": "ym2612"
    },
    {
      "channel": 4,
      "note": 54,
      "start": 55.6927,
      "duration": 0.0121,
      "velocity": 111,
      "chip": "ym2612"
    },
    {
      "channel": 5,
      "note": 49,
      "start": 55.6943,
      "duration": 0.0107,
      "velocity": 111,
      "chip": "ym2612"
    },
    {
      "channel": 0,
      "note": 57,
      "start": 55.7911,
      "duration": 0.3093,
      "velocity": 111,
      "chip": "ym2612"
    },
    {
      "channel": 1,
      "note": 57,
      "start": 55.7933,
      "duration": 0.3073,
      "velocity": 108,
      "chip": "ym2612"
    },
    {
      "channel": 2,
      "note": 52,
      "start": 55.7954,
      "duration": 0.3054,
      "velocity": 111,
      "chip": "ym2612"
    },
    {
      "channel": 3,
      "note": 61,
      "start": 55.8017,
      "duration": 0.0446,
      "velocity": 127,
      "chip": "ym2612"
    },
    {
      "channel": 4,
      "note": 54,
      "start": 55.8067,
      "duration": 0.0113,
      "velocity": 111,
      "chip": "ym2612"
    },
    {
      "channel": 5,
      "note": 49,
      "start": 55.8083,
      "duration": 0.0098,
      "velocity": 111,
      "chip": "ym2612"
    },
    {
      "channel": 4,
      "note": 57,
      "start": 55.9193,
      "duration": 0.3093,
      "velocity": 111,
      "chip": "ym2612"
    },
    {
      "channel": 5,
      "note": 52,
      "start": 55.9214,
      "duration": 0.3074,
      "velocity": 111,
      "chip": "ym2612"
    },
    {
      "channel": 3,
      "note": 61,
      "start": 56.0177,
      "duration": 0.0548,
      "velocity": 127,
      "chip": "ym2612"
    },
    {
      "channel": 0,
      "note": 59,
      "start": 56.131,
      "duration": 0.3089,
      "velocity": 111,
      "chip": "ym2612"
    },
    {
      "channel": 1,
      "note": 59,
      "start": 56.1326,
      "duration": 0.3074,
      "velocity": 108,
      "chip": "ym2612"
    },
    {
      "channel": 2,
      "note": 54,
      "start": 56.1343,
      "duration": 0.306,
      "velocity": 111,
      "chip": "ym2612"
    },
    {
      "channel": 3,
      "note": 61,
      "start": 56.1396,
      "duration": 0.0461,
      "velocity": 127,
      "chip": "ym2612"
    },
    {
      "channel": 4,
      "note": 59,
      "start": 56.2586,
      "duration": 0.3236,
      "velocity": 111,
      "chip": "ym2612"
    },
    {
      "channel": 5,
      "note": 54,
      "start": 56.2602,
      "duration": 0.3222,
      "velocity": 111,
      "chip": "ym2612"
    },
    {
      "channel": 3,
      "note": 61,
      "start": 56.3604,
      "duration": 0.0516,
      "velocity": 127,
      "chip": "ym2612"
    },
    {
      "channel": 0,
      "note": 52,
      "start": 56.4732,
      "duration": 0.2077,
      "velocity": 111,
      "chip": "ym2612"
    },
    {
      "channel": 1,
      "note": 52,
      "start": 56.4783,
      "duration": 0.2028,
      "velocity": 108,
      "chip": "ym2612"
    },
    {
      "channel": 2,
      "note": 47,
      "start": 56.4843,
      "duration": 0.197,
      "velocity": 111,
      "chip": "ym2612"
    },
    {
      "channel": 3,
      "note": 61,
      "start": 56.4898,
      "duration": 0.0495,
      "velocity": 127,
      "chip": "ym2612"
    },
    {
      "channel": 4,
      "note": 52,
      "start": 56.6163,
      "duration": 0.1922,
      "velocity": 111,
      "chip": "ym2612"
    },
    {
      "channel": 5,
      "note": 47,
      "start": 56.6215,
      "duration": 0.1872,
      "velocity": 111,
      "chip": "ym2612"
    },
    {
      "channel": 0,
      "note": 54,
      "start": 56.7101,
      "duration": 0.0127,
      "velocity": 111,
      "chip": "ym2612"
    },
    {
      "channel": 1,
      "note": 54,
      "start": 56.7119,
      "duration": 0.0817,
      "velocity": 108,
      "chip": "ym2612"
    },
    {
      "channel": 2,
      "note": 49,
      "start": 56.7144,
      "duration": 0.0087,
      "velocity": 111,
      "chip": "ym2612"
    },
    {
      "channel": 3,
      "note": 61,
      "start": 56.7165,
      "duration": 0.049,
      "velocity": 127,
      "chip": "ym2612"
    },
    {
      "channel": 0,
      "note": 54,
      "start": 56.8232,
      "duration": 0.0127,
      "velocity": 111,
      "chip": "ym2612"
    },
    {
      "channel": 1,
      "note": 54,
      "start": 56.8251,
      "duration": 0.0817,
      "velocity": 108,
      "chip": "ym2612"
    },
    {
      "channel": 2,
      "note": 49,
      "start": 56.8267,
      "duration": 0.0095,
      "velocity": 111,
      "chip": "ym2612"
    },
    {
      "channel": 3,
      "note": 61,
      "start": 56.8328,
      "duration": 0.0459,
      "velocity": 127,
      "chip": "ym2612"
    },
    {
      "channel": 4,
      "note": 54,
      "start": 56.8385,
      "duration": 0.012,
      "velocity": 111,
      "chip": "ym2612"
    },
    {
      "channel": 5,
      "note": 49,
      "start": 56.8401,
      "duration": 0.0106,
      "velocity": 111,
      "chip": "ym2612"
    },
    {
      "channel": 0,
      "note": 54,
      "start": 56.9364,
      "duration": 0.0127,
      "velocity": 111,
      "chip": "ym2612"
    },
    {
      "channel": 1,
      "note": 54,
      "start": 56.9382,
      "duration": 0.0817,
      "velocity": 108,
      "chip": "ym2612"
    },
    {
      "channel": 2,
      "note": 49,
      "start": 56.9398,
      "duration": 0.0095,
      "velocity": 111,
      "chip": "ym2612"
    },
    {
      "channel": 4,
      "note": 54,
      "start": 56.9516,
      "duration": 0.0134,
      "velocity": 111,
      "chip": "ym2612"
    },
    {
      "channel": 5,
      "note": 49,
      "start": 56.9532,
      "duration": 0.012,
      "velocity": 111,
      "chip": "ym2612"
    },
    {
      "channel": 0,
      "note": 54,
      "start": 57.0495,
      "duration": 0.0127,
      "velocity": 111,
      "chip": "ym2612"
    },
    {
      "channel": 1,
      "note": 54,
      "start": 57.0513,
      "duration": 0.0817,
      "velocity": 108,
      "chip": "ym2612"
    },
    {
      "channel": 2,
      "note": 49,
      "start": 57.053,
      "duration": 0.0095,
      "velocity": 111,
      "chip": "ym2612"
    },
    {
      "channel": 3,
      "note": 61,
      "start": 57.0583,
      "duration": 0.0468,
      "velocity": 127,
      "chip": "ym2612"
    },
    {
      "channel": 4,
      "note": 54,
      "start": 57.0656,
      "duration": 0.0112,
      "velocity": 111,
      "chip": "ym2612"
    },
    {
      "channel": 5,
      "note": 49,
      "start": 57.0672,
      "duration": 0.0098,
      "velocity": 111,
      "chip": "ym2612"
    },
    {
      "channel": 0,
      "note": 52,
      "start": 57.1628,
      "duration": 0.1964,
      "velocity": 111,
      "chip": "ym2612"
    },
    {
      "channel": 1,
      "note": 52,
      "start": 57.1656,
      "duration": 0.1938,
      "velocity": 108,
      "chip": "ym2612"
    },
    {
      "channel": 2,
      "note": 47,
      "start": 57.1674,
      "duration": 0.1923,
      "velocity": 111,
      "chip": "ym2612"
    },
    {
      "channel": 3,
      "note": 61,
      "start": 57.1729,
      "duration": 0.0454,
      "velocity": 127,
      "chip": "ym2612"
    },
    {
      "channel": 4,
      "note": 54,
      "start": 57.1777,
      "duration": 0.0123,
      "velocity": 111,
      "chip": "ym2612"
    },
    {
      "channel": 5,
      "note": 49,
      "start": 57.1794,
      "duration": 0.0108,
      "velocity": 111,
      "chip": "ym2612"
    },
    {
      "channel": 4,
      "note": 52,
      "start": 57.291,
      "duration": 0.1964,
      "velocity": 111,
      "chip": "ym2612"
    },
    {
      "channel": 5,
      "note": 47,
      "start": 57.2928,
      "duration": 0.1948,
      "velocity": 111,
      "chip": "ym2612"
    },
    {
      "channel": 0,
      "note": 54,
      "start": 57.389,
      "duration": 0.0127,
      "velocity": 111,
      "chip": "ym2612"
    },
    {
      "channel": 1,
      "note": 54,
      "start": 57.3908,
      "duration": 0.0817,
      "velocity": 108,
      "chip": "ym2612"
    },
    {
      "channel": 2,
      "note": 49,
      "start": 57.3925,
      "duration": 0.0095,
      "velocity": 111,
      "chip": "ym2612"
    },
    {
      "channel": 3,
      "note": 61,
      "start": 57.3946,
      "duration": 0.0499,
      "velocity": 127,
      "chip": "ym2612"
    },
    {
      "channel": 0,
      "note": 54,
      "start": 57.5022,
      "duration": 0.0127,
      "velocity": 111,
      "chip": "ym2612"
    },
    {
      "channel": 1,
      "note": 54,
      "start": 57.504,
      "duration": 0.082,
      "velocity": 108,
      "chip": "ym2612"
    },
    {
      "channel": 2,
      "note": 49,
      "start": 57.5056,
      "duration": 0.0095,
      "velocity": 111,
      "chip": "ym2612"
    },
    {
      "channel": 3,
      "note": 61,
      "start": 57.5109,
      "duration": 0.0468,
      "velocity": 127,
      "chip": "ym2612"
    },
    {
      "channel": 4,
      "note": 54,
      "start": 57.5174,
      "duration": 0.012,
      "velocity": 111,
      "chip": "ym2612"
    },
    {
      "channel": 5,
      "note": 49,
      "start": 57.5191,
      "duration": 0.0106,
      "velocity": 111,
      "chip": "ym2612"
    },
    {
      "channel": 0,
      "note": 54,
      "start": 57.6156,
      "duration": 0.0124,
      "velocity": 111,
      "chip": "ym2612"
    },
    {
      "channel": 1,
      "note": 54,
      "start": 57.6174,
      "duration": 0.0814,
      "velocity": 108,
      "chip": "ym2612"
    },
    {
      "channel": 2,
      "note": 49,
      "start": 57.6191,
      "duration": 0.0093,
      "velocity": 111,
      "chip": "ym2612"
    },
    {
      "channel": 4,
      "note": 54,
      "start": 57.6314,
      "duration": 0.0117,
      "velocity": 111,
      "chip": "ym2612"
    },
    {
      "channel": 5,
      "note": 49,
      "start": 57.633,
      "duration": 0.0102,
      "velocity": 111,
      "chip": "ym2612"
    },
    {
      "channel": 0,
      "note": 54,
      "start": 57.7285,
      "duration": 0.0127,
      "velocity": 111,
      "chip": "ym2612"
    },
    {
      "channel": 1,
      "note": 54,
      "start": 57.7311,
      "duration": 0.0809,
      "velocity": 108,
      "chip": "ym2612"
    },
    {
      "channel": 2,
      "note": 49,
      "start": 57.7327,
      "duration": 0.0087,
      "velocity": 111,
      "chip": "ym2612"
    },
    {
      "channel": 3,
      "note": 61,
      "start": 57.7381,
      "duration": 0.0459,
      "velocity": 127,
      "chip": "ym2612"
    },
    {
      "channel": 4,
      "note": 54,
      "start": 57.7437,
      "duration": 0.0121,
      "velocity": 111,
      "chip": "ym2612"
    },
    {
      "channel": 5,
      "note": 49,
      "start": 57.7454,
      "duration": 0.0106,
      "velocity": 111,
      "chip": "ym2612"
    },
    {
      "channel": 0,
      "note": 52,
      "start": 57.8418,
      "duration": 0.1965,
      "velocity": 111,
      "chip": "ym2612"
    },
    {
      "channel": 1,
      "note": 52,
      "start": 57.8438,
      "duration": 0.1947,
      "velocity": 108,
      "chip": "ym2612"
    },
    {
      "channel": 2,
      "note": 47,
      "start": 57.8455,
      "duration": 0.1931,
      "velocity": 111,
      "chip": "ym2612"
    },
    {
      "channel": 3,
      "note": 61,
      "start": 57.8521,
      "duration": 0.0459,
      "velocity": 127,
      "chip": "ym2612"
    },
    {
      "channel": 4,
      "note": 54,
      "start": 57.8567,
      "duration": 0.0123,
      "velocity": 111,
      "chip": "ym2612"
    },
    {
      "channel": 5,
      "note": 49,
      "start": 57.8583,
      "duration": 0.0108,
      "velocity": 111,
      "chip": "ym2612"
    },
    {
      "channel": 4,
      "note": 52,
      "start": 57.97,
      "duration": 0.1964,
      "velocity": 111,
      "chip": "ym2612"
    },
    {
      "channel": 5,
      "note": 47,
      "start": 57.9718,
      "duration": 0.1948,
      "velocity": 111,
      "chip": "ym2612"
    },
    {
      "channel": 0,
      "note": 54,
      "start": 58.068,
      "duration": 0.0137,
      "velocity": 111,
      "chip": "ym2612"
    },
    {
      "channel": 1,
      "note": 54,
      "start": 58.0698,
      "duration": 0.0817,
      "velocity": 108,
      "chip": "ym2612"
    },
    {
      "channel": 2,
      "note": 49,
      "start": 58.0715,
      "duration": 0.0104,
      "velocity": 111,
      "chip": "ym2612"
    },
    {
      "channel": 3,
      "note": 61,
      "start": 58.0736,
      "duration": 0.05,
      "velocity": 127,
      "chip": "ym2612"
    },
    {
      "channel": 0,
      "note": 54,
      "start": 58.182,
      "duration": 0.0118,
      "velocity": 111,
      "chip": "ym2612"
    },
    {
      "channel": 1,
      "note": 54,
      "start": 58.1838,
      "duration": 0.0809,
      "velocity": 108,
      "chip": "ym2612"
    },
    {
      "channel": 2,
      "note": 49,
      "start": 58.1854,
      "duration": 0.0087,
      "velocity": 111,
      "chip": "ym2612"
    },
    {
      "channel": 3,
      "note": 61,
      "start": 58.1907,
      "duration": 0.046,
      "velocity": 127,
      "chip": "ym2612"
    },
    {
      "channel": 4,
      "note": 54,
      "start": 58.1964,
      "duration": 0.012,
      "velocity": 111,
      "chip": "ym2612"
    },
    {
      "channel": 5,
      "note": 49,
      "start": 58.199,
      "duration": 0.0097,
      "velocity": 111,
      "chip": "ym2612"
    },
    {
      "channel": 0,
      "note": 54,
      "start": 58.2943,
      "duration": 0.0127,
      "velocity": 111,
      "chip": "ym2612"
    },
    {
      "channel": 1,
      "note": 54,
      "start": 58.2961,
      "duration": 0.0817,
      "velocity": 108,
      "chip": "ym2612"
    },
    {
      "channel": 2,
      "note": 49,
      "start": 58.2986,
      "duration": 0.0087,
      "velocity": 111,
      "chip": "ym2612"
    },
    {
      "channel": 4,
      "note": 54,
      "start": 58.3095,
      "duration": 0.0125,
      "velocity": 111,
      "chip": "ym2612"
    },
    {
      "channel": 5,
      "note": 49,
      "start": 58.3111,
      "duration": 0.0111,
      "velocity": 111,
      "chip": "ym2612"
    },
    {
      "channel": 0,
      "note": 54,
      "start": 58.4074,
      "duration": 0.0127,
      "velocity": 111,
      "chip": "ym2612"
    },
    {
      "channel": 1,
      "note": 54,
      "start": 58.4092,
      "duration": 0.0818,
      "velocity": 108,
      "chip": "ym2612"
    },
    {
      "channel": 2,
      "note": 49,
      "start": 58.4109,
      "duration": 0.0096,
      "velocity": 111,
      "chip": "ym2612"
    },
    {
      "channel": 3,
      "note": 61,
      "start": 58.417,
      "duration": 0.0461,
      "velocity": 127,
      "chip": "ym2612"
    },
    {
      "channel": 4,
      "note": 54,
      "start": 58.4227,
      "duration": 0.012,
      "velocity": 111,
      "chip": "ym2612"
    },
    {
      "channel": 5,
      "note": 49,
      "start": 58.4244,
      "duration": 0.0106,
      "velocity": 111,
      "chip": "ym2612"
    },
    {
      "channel": 0,
      "note": 59,
      "start": 58.521,
      "duration": 0.3098,
      "velocity": 111,
      "chip": "ym2612"
    },
    {
      "channel": 1,
      "note": 59,
      "start": 58.5233,
      "duration": 0.3078,
      "velocity": 108,
      "chip": "ym2612"
    },
    {
      "channel": 2,
      "note": 54,
      "start": 58.5254,
      "duration": 0.3059,
      "velocity": 111,
      "chip": "ym2612"
    },
    {
      "channel": 3,
      "note": 61,
      "start": 58.5315,
      "duration": 0.0454,
      "velocity": 127,
      "chip": "ym2612"
    },
    {
      "channel": 4,
      "note": 54,
      "start": 58.5366,
      "duration": 0.0114,
      "velocity": 111,
      "chip": "ym2612"
    },
    {
      "channel": 5,
      "note": 49,
      "start": 58.5382,
      "duration": 0.01,
      "velocity": 111,
      "chip": "ym2612"
    },
    {
      "channel": 4,
      "note": 57,
      "start": 58.6501,
      "duration": 0.3084,
      "velocity": 111,
      "chip": "ym2612"
    },
    {
      "channel": 5,
      "note": 54,
      "start": 58.6522,
      "duration": 0.3065,
      "velocity": 111,
      "chip": "ym2612"
    },
    {
      "channel": 3,
      "note": 61,
      "start": 58.749,
      "duration": 0.0534,
      "velocity": 127,
      "chip": "ym2612"
    },
    {
      "channel": 0,
      "note": 57,
      "start": 58.8601,
      "duration": 0.3097,
      "velocity": 111,
      "chip": "ym2612"
    },
    {
      "channel": 1,
      "note": 57,
      "start": 58.8618,
      "duration": 0.3083,
      "velocity": 108,
      "chip": "ym2612"
    },
    {
      "channel": 2,
      "note": 52,
      "start": 58.8642,
      "duration": 0.306,
      "velocity": 111,
      "chip": "ym2612"
    },
    {
      "channel": 3,
      "note": 61,
      "start": 58.8695,
      "duration": 0.0464,
      "velocity": 127,
      "chip": "ym2612"
    },
    {
      "channel": 3,
      "note": 61,
      "start": 58.974,
      "duration": 0.0548,
      "velocity": 127,
      "chip": "ym2612"
    },
    {
      "channel": 4,
      "note": 59,
      "start": 58.9883,
      "duration": 0.3239,
      "velocity": 111,
      "chip": "ym2612"
    },
    {
      "channel": 5,
      "note": 52,
      "start": 58.9899,
      "duration": 0.3224,
      "velocity": 111,
      "chip": "ym2612"
    },
    {
      "channel": 3,
      "note": 61,
      "start": 59.0903,
      "duration": 0.0517,
      "velocity": 127,
      "chip": "ym2612"
    },
    {
      "channel": 0,
      "note": 52,
      "start": 59.203,
      "duration": 0.2077,
      "velocity": 111,
      "chip": "ym2612"
    },
    {
      "channel": 1,
      "note": 52,
      "start": 59.2082,
      "duration": 0.2028,
      "velocity": 108,
      "chip": "ym2612"
    },
    {
      "channel": 2,
      "note": 47,
      "start": 59.2142,
      "duration": 0.197,
      "velocity": 111,
      "chip": "ym2612"
    },
    {
      "channel": 3,
      "note": 61,
      "start": 59.22,
      "duration": 0.0493,
      "velocity": 127,
      "chip": "ym2612"
    },
    {
      "channel": 4,
      "note": 52,
      "start": 59.3454,
      "duration": 0.1931,
      "velocity": 111,
      "chip": "ym2612"
    },
    {
      "channel": 5,
      "note": 47,
      "start": 59.3515,
      "duration": 0.1871,
      "velocity": 111,
      "chip": "ym2612"
    },
    {
      "channel": 0,
      "note": 54,
      "start": 59.4401,
      "duration": 0.0127,
      "velocity": 111,
      "chip": "ym2612"
    },
    {
      "channel": 1,
      "note": 54,
      "start": 59.4419,
      "duration": 0.0817,
      "velocity": 108,
      "chip": "ym2612"
    },
    {
      "channel": 2,
      "note": 49,
      "start": 59.4435,
      "duration": 0.0095,
      "velocity": 111,
      "chip": "ym2612"
    },
    {
      "channel": 3,
      "note": 61,
      "start": 59.4456,
      "duration": 0.0499,
      "velocity": 127,
      "chip": "ym2612"
    },
    {
      "channel": 0,
      "note": 54,
      "start": 59.5532,
      "duration": 0.0127,
      "velocity": 111,
      "chip": "ym2612"
    },
    {
      "channel": 1,
      "note": 54,
      "start": 59.5549,
      "duration": 0.0817,
      "velocity": 108,
      "chip": "ym2612"
    },
    {
      "channel": 2,
      "note": 49,
      "start": 59.5566,
      "duration": 0.0096,
      "velocity": 111,
      "chip": "ym2612"
    },
    {
      "channel": 3,
      "note": 61,
      "start": 59.5619,
      "duration": 0.0468,
      "velocity": 127,
      "chip": "ym2612"
    },
    {
      "channel": 4,
      "note": 54,
      "start": 59.5684,
      "duration": 0.0132,
      "velocity": 111,
      "chip": "ym2612"
    },
    {
      "channel": 5,
      "note": 49,
      "start": 59.5701,
      "duration": 0.0117,
      "velocity": 111,
      "chip": "ym2612"
    },
    {
      "channel": 0,
      "note": 54,
      "start": 59.6663,
      "duration": 0.0127,
      "velocity": 111,
      "chip": "ym2612"
    },
    {
      "channel": 1,
      "note": 54,
      "start": 59.6681,
      "duration": 0.0817,
      "velocity": 108,
      "chip": "ym2612"
    },
    {
      "channel": 2,
      "note": 49,
      "start": 59.6698,
      "duration": 0.0096,
      "velocity": 111,
      "chip": "ym2612"
    },
    {
      "channel": 4,
      "note": 54,
      "start": 59.6824,
      "duration": 0.0117,
      "velocity": 111,
      "chip": "ym2612"
    },
    {
      "channel": 5,
      "note": 49,
      "start": 59.684,
      "duration": 0.0102,
      "velocity": 111,
      "chip": "ym2612"
    },
    {
      "channel": 0,
      "note": 54,
      "start": 59.7795,
      "duration": 0.0127,
      "velocity": 111,
      "chip": "ym2612"
    },
    {
      "channel": 1,
      "note": 54,
      "start": 59.7821,
      "duration": 0.0809,
      "velocity": 108,
      "chip": "ym2612"
    },
    {
      "channel": 2,
      "note": 49,
      "start": 59.7838,
      "duration": 0.0088,
      "velocity": 111,
      "chip": "ym2612"
    },
    {
      "channel": 3,
      "note": 61,
      "start": 59.789,
      "duration": 0.046,
      "velocity": 127,
      "chip": "ym2612"
    },
    {
      "channel": 4,
      "note": 54,
      "start": 59.7947,
      "duration": 0.0121,
      "velocity": 111,
      "chip": "ym2612"
    },
    {
      "channel": 5,
      "note": 49,
      "start": 59.7964,
      "duration": 0.0106,
      "velocity": 111,
      "chip": "ym2612"
    },
    {
      "channel": 0,
      "note": 52,
      "start": 59.8928,
      "duration": 0.1964,
      "velocity": 111,
      "chip": "ym2612"
    },
    {
      "channel": 1,
      "note": 52,
      "start": 59.8948,
      "duration": 0.1946,
      "velocity": 108,
      "chip": "ym2612"
    },
    {
      "channel": 2,
      "note": 47,
      "start": 59.8974,
      "duration": 0.1923,
      "velocity": 111,
      "chip": "ym2612"
    },
    {
      "channel": 3,
      "note": 61,
      "start": 59.9029,
      "duration": 0.0454,
      "velocity": 127,
      "chip": "ym2612"
    },
    {
      "channel": 4,
      "note": 54,
      "start": 59.9085,
      "duration": 0.0115,
      "velocity": 111,
      "chip": "ym2612"
    },
    {
      "channel": 5,
      "note": 49,
      "start": 59.9101,
      "duration": 0.01,
      "velocity": 111,
      "chip": "ym2612"
    },
    {
      "channel": 4,
      "note": 52,
      "start": 60.021,
      "duration": 0.1964,
      "velocity": 111,
      "chip": "ym2612"
    },
    {
      "channel": 5,
      "note": 47,
      "start": 60.0228,
      "duration": 0.1949,
      "velocity": 111,
      "chip": "ym2612"
    },
    {
      "channel": 0,
      "note": 54,
      "start": 60.119,
      "duration": 0.0127,
      "velocity": 111,
      "chip": "ym2612"
    },
    {
      "channel": 1,
      "note": 54,
      "start": 60.1208,
      "duration": 0.0817,
      "velocity": 108,
      "chip": "ym2612"
    },
    {
      "channel": 2,
      "note": 49,
      "start": 60.1224,
      "duration": 0.0095,
      "velocity": 111,
      "chip": "ym2612"
    },
    {
      "channel": 3,
      "note": 61,
      "start": 60.1245,
      "duration": 0.05,
      "velocity": 127,
      "chip": "ym2612"
    },
    {
      "channel": 0,
      "note": 54,
      "start": 60.2323,
      "duration": 0.0127,
      "velocity": 111,
      "chip": "ym2612"
    },
    {
      "channel": 1,
      "note": 54,
      "start": 60.2341,
      "duration": 0.0816,
      "velocity": 108,
      "chip": "ym2612"
    },
    {
      "channel": 2,
      "note": 49,
      "start": 60.2357,
      "duration": 0.0095,
      "velocity": 111,
      "chip": "ym2612"
    },
    {
      "channel": 3,
      "note": 61,
      "start": 60.241,
      "duration": 0.0467,
      "velocity": 127,
      "chip": "ym2612"
    },
    {
      "channel": 4,
      "note": 54,
      "start": 60.2484,
      "duration": 0.011,
      "velocity": 111,
      "chip": "ym2612"
    },
    {
      "channel": 5,
      "note": 49,
      "start": 60.25,
      "duration": 0.0095,
      "velocity": 111,
      "chip": "ym2612"
    },
    {
      "channel": 0,
      "note": 54,
      "start": 60.3453,
      "duration": 0.0127,
      "velocity": 111,
      "chip": "ym2612"
    },
    {
      "channel": 1,
      "note": 54,
      "start": 60.3479,
      "duration": 0.0809,
      "velocity": 108,
      "chip": "ym2612"
    },
    {
      "channel": 2,
      "note": 49,
      "start": 60.3495,
      "duration": 0.0088,
      "velocity": 111,
      "chip": "ym2612"
    },
    {
      "channel": 4,
      "note": 54,
      "start": 60.3605,
      "duration": 0.0125,
      "velocity": 111,
      "chip": "ym2612"
    },
    {
      "channel": 5,
      "note": 49,
      "start": 60.3621,
      "duration": 0.0111,
      "velocity": 111,
      "chip": "ym2612"
    },
    {
      "channel": 0,
      "note": 54,
      "start": 60.4585,
      "duration": 0.0127,
      "velocity": 111,
      "chip": "ym2612"
    },
    {
      "channel": 1,
      "note": 54,
      "start": 60.4602,
      "duration": 0.0817,
      "velocity": 108,
      "chip": "ym2612"
    },
    {
      "channel": 2,
      "note": 49,
      "start": 60.4619,
      "duration": 0.0096,
      "velocity": 111,
      "chip": "ym2612"
    },
    {
      "channel": 3,
      "note": 61,
      "start": 60.468,
      "duration": 0.0466,
      "velocity": 127,
      "chip": "ym2612"
    },
    {
      "channel": 4,
      "note": 54,
      "start": 60.4737,
      "duration": 0.0121,
      "velocity": 111,
      "chip": "ym2612"
    },
    {
      "channel": 5,
      "note": 49,
      "start": 60.4753,
      "duration": 0.0106,
      "velocity": 111,
      "chip": "ym2612"
    },
    {
      "channel": 0,
      "note": 52,
      "start": 60.5725,
      "duration": 0.1957,
      "velocity": 111,
      "chip": "ym2612"
    },
    {
      "channel": 1,
      "note": 52,
      "start": 60.5744,
      "duration": 0.1939,
      "velocity": 108,
      "chip": "ym2612"
    },
    {
      "channel": 2,
      "note": 47,
      "start": 60.5762,
      "duration": 0.1924,
      "velocity": 111,
      "chip": "ym2612"
    },
    {
      "channel": 3,
      "note": 61,
      "start": 60.5825,
      "duration": 0.0446,
      "velocity": 127,
      "chip": "ym2612"
    },
    {
      "channel": 4,
      "note": 54,
      "start": 60.5866,
      "duration": 0.0123,
      "velocity": 111,
      "chip": "ym2612"
    },
    {
      "channel": 5,
      "note": 49,
      "start": 60.5883,
      "duration": 0.0108,
      "velocity": 111,
      "chip": "ym2612"
    },
    {
      "channel": 4,
      "note": 52,
      "start": 60.7,
      "duration": 0.1964,
      "velocity": 111,
      "chip": "ym2612"
    },
    {
      "channel": 5,
      "note": 47,
      "start": 60.7018,
      "duration": 0.1957,
      "velocity": 111,
      "chip": "ym2612"
    },
    {
      "channel": 0,
      "note": 54,
      "start": 60.7988,
      "duration": 0.0119,
      "velocity": 111,
      "chip": "ym2612"
    },
    {
      "channel": 1,
      "note": 54,
      "start": 60.8006,
      "duration": 0.0808,
      "velocity": 108,
      "chip": "ym2612"
    },
    {
      "channel": 2,
      "note": 49,
      "start": 60.8023,
      "duration": 0.0086,
      "velocity": 111,
      "chip": "ym2612"
    },
    {
      "channel": 3,
      "note": 61,
      "start": 60.8044,
      "duration": 0.0491,
      "velocity": 127,
      "chip": "ym2612"
    },
    {
      "channel": 0,
      "note": 54,
      "start": 60.9113,
      "duration": 0.0125,
      "velocity": 111,
      "chip": "ym2612"
    },
    {
      "channel": 1,
      "note": 54,
      "start": 60.9131,
      "duration": 0.0815,
      "velocity": 108,
      "chip": "ym2612"
    },
    {
      "channel": 2,
      "note": 49,
      "start": 60.9156,
      "duration": 0.0085,
      "velocity": 111,
      "chip": "ym2612"
    },
    {
      "channel": 3,
      "note": 61,
      "start": 60.9209,
      "duration": 0.0458,
      "velocity": 127,
      "chip": "ym2612"
    },
    {
      "channel": 4,
      "note": 54,
      "start": 60.9263,
      "duration": 0.012,
      "velocity": 111,
      "chip": "ym2612"
    },
    {
      "channel": 5,
      "note": 49,
      "start": 60.928,
      "duration": 0.0105,
      "velocity": 111,
      "chip": "ym2612"
    },
    {
      "channel": 0,
      "note": 54,
      "start": 61.0242,
      "duration": 0.0127,
      "velocity": 111,
      "chip": "ym2612"
    },
    {
      "channel": 1,
      "note": 54,
      "start": 61.0261,
      "duration": 0.0817,
      "velocity": 108,
      "chip": "ym2612"
    },
    {
      "channel": 2,
      "note": 49,
      "start": 61.0277,
      "duration": 0.0095,
      "velocity": 111,
      "chip": "ym2612"
    },
    {
      "channel": 4,
      "note": 54,
      "start": 61.0394,
      "duration": 0.0125,
      "velocity": 111,
      "chip": "ym2612"
    },
    {
      "channel": 5,
      "note": 49,
      "start": 61.0411,
      "duration": 0.0111,
      "velocity": 111,
      "chip": "ym2612"
    },
    {
      "channel": 0,
      "note": 54,
      "start": 61.1374,
      "duration": 0.0127,
      "velocity": 111,
      "chip": "ym2612"
    },
    {
      "channel": 1,
      "note": 54,
      "start": 61.1392,
      "duration": 0.0817,
      "velocity": 108,
      "chip": "ym2612"
    },
    {
      "channel": 2,
      "note": 49,
      "start": 61.1408,
      "duration": 0.0096,
      "velocity": 111,
      "chip": "ym2612"
    },
    {
      "channel": 3,
      "note": 61,
      "start": 61.1461,
      "duration": 0.0468,
      "velocity": 127,
      "chip": "ym2612"
    },
    {
      "channel": 4,
      "note": 54,
      "start": 61.1526,
      "duration": 0.0121,
      "velocity": 111,
      "chip": "ym2612"
    },
    {
      "channel": 5,
      "note": 49,
      "start": 61.1543,
      "duration": 0.0106,
      "velocity": 111,
      "chip": "ym2612"
    },
    {
      "channel": 0,
      "note": 57,
      "start": 61.251,
      "duration": 0.3093,
      "velocity": 111,
      "chip": "ym2612"
    },
    {
      "channel": 1,
      "note": 57,
      "start": 61.2532,
      "duration": 0.3074,
      "velocity": 108,
      "chip": "ym2612"
    },
    {
      "channel": 2,
      "note": 52,
      "start": 61.2553,
      "duration": 0.3055,
      "velocity": 111,
      "chip": "ym2612"
    },
    {
      "channel": 3,
      "note": 61,
      "start": 61.2607,
      "duration": 0.0454,
      "velocity": 127,
      "chip": "ym2612"
    },
    {
      "channel": 4,
      "note": 54,
      "start": 61.2666,
      "duration": 0.0112,
      "velocity": 111,
      "chip": "ym2612"
    },
    {
      "channel": 5,
      "note": 49,
      "start": 61.2683,
      "duration": 0.0098,
      "velocity": 111,
      "chip": "ym2612"
    },
    {
      "channel": 4,
      "note": 57,
      "start": 61.3792,
      "duration": 0.3093,
      "velocity": 111,
      "chip": "ym2612"
    },
    {
      "channel": 5,
      "note": 52,
      "start": 61.3821,
      "duration": 0.3066,
      "velocity": 111,
      "chip": "ym2612"
    },
    {
      "channel": 3,
      "note": 61,
      "start": 61.4777,
      "duration": 0.0548,
      "velocity": 127,
      "chip": "ym2612"
    },
    {
      "channel": 0,
      "note": 59,
      "start": 61.59,
      "duration": 0.3105,
      "velocity": 111,
      "chip": "ym2612"
    },
    {
      "channel": 1,
      "note": 59,
      "start": 61.5917,
      "duration": 0.309,
      "velocity": 108,
      "chip": "ym2612"
    },
    {
      "channel": 2,
      "note": 54,
      "start": 61.5933,
      "duration": 0.3076,
      "velocity": 111,
      "chip": "ym2612"
    },
    {
      "channel": 3,
      "note": 61,
      "start": 61.5994,
      "duration": 0.0462,
      "velocity": 127,
      "chip": "ym2612"
    },
    {
      "channel": 4,
      "note": 59,
      "start": 61.7182,
      "duration": 0.3098,
      "velocity": 111,
      "chip": "ym2612"
    },
    {
      "channel": 5,
      "note": 54,
      "start": 61.7198,
      "duration": 0.3083,
      "velocity": 111,
      "chip": "ym2612"
    },
    {
      "channel": 3,
      "note": 61,
      "start": 61.8203,
      "duration": 0.0516,
      "velocity": 127,
      "chip": "ym2612"
    },
    {
      "channel": 0,
      "note": 52,
      "start": 61.9308,
      "duration": 0.1954,
      "velocity": 111,
      "chip": "ym2612"
    },
    {
      "channel": 1,
      "note": 52,
      "start": 61.9329,
      "duration": 0.1934,
      "velocity": 108,
      "chip": "ym2612"
    },
    {
      "channel": 2,
      "note": 47,
      "start": 61.935,
      "duration": 0.1915,
      "velocity": 111,
      "chip": "ym2612"
    },
    {
      "channel": 3,
      "note": 61,
      "start": 61.9405,
      "duration": 0.0446,
      "velocity": 127,
      "chip": "ym2612"
    },
    {
      "channel": 4,
      "note": 52,
      "start": 62.0581,
      "duration": 0.1961,
      "velocity": 111,
      "chip": "ym2612"
    },
    {
      "channel": 5,
      "note": 47,
      "start": 62.0602,
      "duration": 0.1942,
      "velocity": 111,
      "chip": "ym2612"
    },
    {
      "channel": 0,
      "note": 54,
      "start": 62.1559,
      "duration": 0.0127,
      "velocity": 111,
      "chip": "ym2612"
    },
    {
      "channel": 1,
      "note": 54,
      "start": 62.1577,
      "duration": 0.0818,
      "velocity": 108,
      "chip": "ym2612"
    },
    {
      "channel": 2,
      "note": 49,
      "start": 62.1593,
      "duration": 0.0095,
      "velocity": 111,
      "chip": "ym2612"
    },
    {
      "channel": 3,
      "note": 61,
      "start": 62.1615,
      "duration": 0.0499,
      "velocity": 127,
      "chip": "ym2612"
    },
    {
      "channel": 0,
      "note": 54,
      "start": 62.269,
      "duration": 0.0127,
      "velocity": 111,
      "chip": "ym2612"
    },
    {
      "channel": 1,
      "note": 54,
      "start": 62.2708,
      "duration": 0.0817,
      "velocity": 108,
      "chip": "ym2612"
    },
    {
      "channel": 2,
      "note": 49,
      "start": 62.2724,
      "duration": 0.0095,
      "velocity": 111,
      "chip": "ym2612"
    },
    {
      "channel": 3,
      "note": 61,
      "start": 62.2777,
      "duration": 0.0468,
      "velocity": 127,
      "chip": "ym2612"
    },
    {
      "channel": 4,
      "note": 54,
      "start": 62.2842,
      "duration": 0.0121,
      "velocity": 111,
      "chip": "ym2612"
    },
    {
      "channel": 5,
      "note": 49,
      "start": 62.2859,
      "duration": 0.0113,
      "velocity": 111,
      "chip": "ym2612"
    },
    {
      "channel": 0,
      "note": 54,
      "start": 62.3823,
      "duration": 0.0125,
      "velocity": 111,
      "chip": "ym2612"
    },
    {
      "channel": 1,
      "note": 54,
      "start": 62.3841,
      "duration": 0.0816,
      "velocity": 108,
      "chip": "ym2612"
    },
    {
      "channel": 2,
      "note": 49,
      "start": 62.3857,
      "duration": 0.0094,
      "velocity": 111,
      "chip": "ym2612"
    },
    {
      "channel": 4,
      "note": 54,
      "start": 62.3982,
      "duration": 0.0116,
      "velocity": 111,
      "chip": "ym2612"
    },
    {
      "channel": 5,
      "note": 49,
      "start": 62.3999,
      "duration": 0.0102,
      "velocity": 111,
      "chip": "ym2612"
    },
    {
      "channel": 0,
      "note": 54,
      "start": 62.4953,
      "duration": 0.0127,
      "velocity": 111,
      "chip": "ym2612"
    },
    {
      "channel": 1,
      "note": 54,
      "start": 62.498,
      "duration": 0.0809,
      "velocity": 108,
      "chip": "ym2612"
    },
    {
      "channel": 2,
      "note": 49,
      "start": 62.4996,
      "duration": 0.0087,
      "velocity": 111,
      "chip": "ym2612"
    },
    {
      "channel": 3,
      "note": 61,
      "start": 62.5049,
      "duration": 0.046,
      "velocity": 127,
      "chip": "ym2612"
    },
    {
      "channel": 4,
      "note": 54,
      "start": 62.5105,
      "duration": 0.012,
      "velocity": 111,
      "chip": "ym2612"
    },
    {
      "channel": 5,
      "note": 49,
      "start": 62.5122,
      "duration": 0.0106,
      "velocity": 111,
      "chip": "ym2612"
    },
    {
      "channel": 0,
      "note": 52,
      "start": 62.6086,
      "duration": 0.1964,
      "velocity": 111,
      "chip": "ym2612"
    },
    {
      "channel": 1,
      "note": 52,
      "start": 62.6105,
      "duration": 0.1947,
      "velocity": 108,
      "chip": "ym2612"
    },
    {
      "channel": 2,
      "note": 47,
      "start": 62.6124,
      "duration": 0.1931,
      "velocity": 111,
      "chip": "ym2612"
    },
    {
      "channel": 3,
      "note": 61,
      "start": 62.6186,
      "duration": 0.046,
      "velocity": 127,
      "chip": "ym2612"
    },
    {
      "channel": 4,
      "note": 54,
      "start": 62.6235,
      "duration": 0.0123,
      "velocity": 111,
      "chip": "ym2612"
    },
    {
      "channel": 5,
      "note": 49,
      "start": 62.6251,
      "duration": 0.0109,
      "velocity": 111,
      "chip": "ym2612"
    },
    {
      "channel": 4,
      "note": 52,
      "start": 62.7371,
      "duration": 0.1961,
      "velocity": 111,
      "chip": "ym2612"
    },
    {
      "channel": 5,
      "note": 47,
      "start": 62.739,
      "duration": 0.1945,
      "velocity": 111,
      "chip": "ym2612"
    },
    {
      "channel": 0,
      "note": 54,
      "start": 62.8349,
      "duration": 0.0127,
      "velocity": 111,
      "chip": "ym2612"
    },
    {
      "channel": 1,
      "note": 54,
      "start": 62.8366,
      "duration": 0.0817,
      "velocity": 108,
      "chip": "ym2612"
    },
    {
      "channel": 2,
      "note": 49,
      "start": 62.8383,
      "duration": 0.0096,
      "velocity": 111,
      "chip": "ym2612"
    },
    {
      "channel": 3,
      "note": 61,
      "start": 62.8404,
      "duration": 0.0499,
      "velocity": 127,
      "chip": "ym2612"
    },
    {
      "channel": 0,
      "note": 54,
      "start": 62.9488,
      "duration": 0.0119,
      "velocity": 111,
      "chip": "ym2612"
    },
    {
      "channel": 1,
      "note": 54,
      "start": 62.9506,
      "duration": 0.0809,
      "velocity": 108,
      "chip": "ym2612"
    },
    {
      "channel": 2,
      "note": 49,
      "start": 62.9522,
      "duration": 0.0088,
      "velocity": 111,
      "chip": "ym2612"
    },
    {
      "channel": 3,
      "note": 61,
      "start": 62.9575,
      "duration": 0.046,
      "velocity": 127,
      "chip": "ym2612"
    },
    {
      "channel": 4,
      "note": 54,
      "start": 62.9641,
      "duration": 0.0112,
      "velocity": 111,
      "chip": "ym2612"
    },
    {
      "channel": 5,
      "note": 49,
      "start": 62.9657,
      "duration": 0.0097,
      "velocity": 111,
      "chip": "ym2612"
    },
    {
      "channel": 0,
      "note": 54,
      "start": 63.0611,
      "duration": 0.0127,
      "velocity": 111,
      "chip": "ym2612"
    },
    {
      "channel": 1,
      "note": 54,
      "start": 63.0629,
      "duration": 0.0817,
      "velocity": 108,
      "chip": "ym2612"
    },
    {
      "channel": 2,
      "note": 49,
      "start": 63.0654,
      "duration": 0.0087,
      "velocity": 111,
      "chip": "ym2612"
    },
    {
      "channel": 4,
      "note": 54,
      "start": 63.0763,
      "duration": 0.0125,
      "velocity": 111,
      "chip": "ym2612"
    },
    {
      "channel": 5,
      "note": 49,
      "start": 63.078,
      "duration": 0.011,
      "velocity": 111,
      "chip": "ym2612"
    },
    {
      "channel": 0,
      "note": 54,
      "start": 63.1743,
      "duration": 0.0127,
      "velocity": 111,
      "chip": "ym2612"
    },
    {
      "channel": 1,
      "note": 54,
      "start": 63.1761,
      "duration": 0.0817,
      "velocity": 108,
      "chip": "ym2612"
    },
    {
      "channel": 2,
      "note": 49,
      "start": 63.1777,
      "duration": 0.0095,
      "velocity": 111,
      "chip": "ym2612"
    },
    {
      "channel": 3,
      "note": 61,
      "start": 63.1838,
      "duration": 0.0475,
      "velocity": 127,
      "chip": "ym2612"
    },
    {
      "channel": 4,
      "note": 54,
      "start": 63.1895,
      "duration": 0.0121,
      "velocity": 111,
      "chip": "ym2612"
    },
    {
      "channel": 5,
      "note": 49,
      "start": 63.1912,
      "duration": 0.0106,
      "velocity": 111,
      "chip": "ym2612"
    },
    {
      "channel": 0,
      "note": 50,
      "start": 63.2875,
      "duration": 0.013,
      "velocity": 111,
      "chip": "ym2612"
    },
    {
      "channel": 1,
      "note": 50,
      "start": 63.2894,
      "duration": 0.0815,
      "velocity": 108,
      "chip": "ym2612"
    },
    {
      "channel": 2,
      "note": 45,
      "start": 63.2912,
      "duration": 0.0096,
      "velocity": 111,
      "chip": "ym2612"
    },
    {
      "channel": 3,
      "note": 61,
      "start": 63.2978,
      "duration": 0.0452,
      "velocity": 127,
      "chip": "ym2612"
    },
    {
      "channel": 4,
      "note": 54,
      "start": 63.303,
      "duration": 0.0118,
      "velocity": 111,
      "chip": "ym2612"
    },
    {
      "channel": 5,
      "note": 49,
      "start": 63.3046,
      "duration": 0.0103,
      "velocity": 111,
      "chip": "ym2612"
    },
    {
      "channel": 0,
      "note": 50,
      "start": 63.401,
      "duration": 0.0132,
      "velocity": 111,
      "chip": "ym2612"
    },
    {
      "channel": 1,
      "note": 50,
      "start": 63.4026,
      "duration": 0.0118,
      "velocity": 108,
      "chip": "ym2612"
    },
    {
      "channel": 2,
      "note": 45,
      "start": 63.4043,
      "duration": 0.0104,
      "velocity": 111,
      "chip": "ym2612"
    },
    {
      "channel": 3,
      "note": 61,
      "start": 63.4095,
      "duration": 0.0466,
      "velocity": 127,
      "chip": "ym2612"
    },
    {
      "channel": 4,
      "note": 50,
      "start": 63.4169,
      "duration": 0.0109,
      "velocity": 111,
      "chip": "ym2612"
    },
    {
      "channel": 5,
      "note": 45,
      "start": 63.4187,
      "duration": 0.0094,
      "velocity": 111,
      "chip": "ym2612"
    },
    {
      "channel": 0,
      "note": 50,
      "start": 63.5146,
      "duration": 0.0119,
      "velocity": 111,
      "chip": "ym2612"
    },
    {
      "channel": 1,
      "note": 50,
      "start": 63.5162,
      "duration": 0.0104,
      "velocity": 108,
      "chip": "ym2612"
    },
    {
      "channel": 2,
      "note": 45,
      "start": 63.5179,
      "duration": 0.009,
      "velocity": 111,
      "chip": "ym2612"
    },
    {
      "channel": 3,
      "note": 61,
      "start": 63.52,
      "duration": 0.0494,
      "velocity": 127,
      "chip": "ym2612"
    },
    {
      "channel": 4,
      "note": 50,
      "start": 63.5291,
      "duration": 0.012,
      "velocity": 111,
      "chip": "ym2612"
    },
    {
      "channel": 5,
      "note": 45,
      "start": 63.5315,
      "duration": 0.0097,
      "velocity": 111,
      "chip": "ym2612"
    },
    {
      "channel": 0,
      "note": 50,
      "start": 63.6269,
      "duration": 0.3097,
      "velocity": 111,
      "chip": "ym2612"
    },
    {
      "channel": 1,
      "note": 50,
      "start": 63.6285,
      "duration": 0.3083,
      "velocity": 108,
      "chip": "ym2612"
    },
    {
      "channel": 2,
      "note": 45,
      "start": 63.6311,
      "duration": 0.306,
      "velocity": 111,
      "chip": "ym2612"
    },
    {
      "channel": 3,
      "note": 61,
      "start": 63.6332,
      "duration": 0.0492,
      "velocity": 127,
      "chip": "ym2612"
    },
    {
      "channel": 4,
      "note": 50,
      "start": 63.6419,
      "duration": 0.0123,
      "velocity": 111,
      "chip": "ym2612"
    },
    {
      "channel": 5,
      "note": 45,
      "start": 63.6436,
      "duration": 0.0108,
      "velocity": 111,
      "chip": "ym2612"
    },
    {
      "channel": 4,
      "note": 50,
      "start": 63.7551,
      "duration": 0.3107,
      "velocity": 111,
      "chip": "ym2612"
    },
    {
      "channel": 5,
      "note": 45,
      "start": 63.7568,
      "duration": 0.3092,
      "velocity": 111,
      "chip": "ym2612"
    },
    {
      "channel": 0,
      "note": 52,
      "start": 63.9664,
      "duration": 0.0127,
      "velocity": 111,
      "chip": "ym2612"
    },
    {
      "channel": 1,
      "note": 52,
      "start": 63.968,
      "duration": 0.0819,
      "velocity": 108,
      "chip": "ym2612"
    },
    {
      "channel": 2,
      "note": 47,
      "start": 63.9698,
      "duration": 0.0096,
      "velocity": 111,
      "chip": "ym2612"
    },
    {
      "channel": 3,
      "note": 61,
      "start": 63.9751,
      "duration": 0.0469,
      "velocity": 127,
      "chip": "ym2612"
    },
    {
      "channel": 0,
      "note": 52,
      "start": 64.0795,
      "duration": 0.0127,
      "velocity": 111,
      "chip": "ym2612"
    },
    {
      "channel": 1,
      "note": 52,
      "start": 64.082,
      "duration": 0.0105,
      "velocity": 108,
      "chip": "ym2612"
    },
    {
      "channel": 2,
      "note": 47,
      "start": 64.0837,
      "duration": 0.009,
      "velocity": 111,
      "chip": "ym2612"
    },
    {
      "channel": 3,
      "note": 61,
      "start": 64.089,
      "duration": 0.0461,
      "velocity": 127,
      "chip": "ym2612"
    },
    {
      "channel": 4,
      "note": 52,
      "start": 64.0949,
      "duration": 0.0119,
      "velocity": 111,
      "chip": "ym2612"
    },
    {
      "channel": 5,
      "note": 47,
      "start": 64.0974,
      "duration": 0.0097,
      "velocity": 111,
      "chip": "ym2612"
    },
    {
      "channel": 0,
      "note": 52,
      "start": 64.1927,
      "duration": 0.0127,
      "velocity": 111,
      "chip": "ym2612"
    },
    {
      "channel": 1,
      "note": 52,
      "start": 64.1943,
      "duration": 0.0112,
      "velocity": 108,
      "chip": "ym2612"
    },
    {
      "channel": 2,
      "note": 47,
      "start": 64.196,
      "duration": 0.0099,
      "velocity": 111,
      "chip": "ym2612"
    },
    {
      "channel": 3,
      "note": 61,
      "start": 64.1989,
      "duration": 0.0494,
      "velocity": 127,
      "chip": "ym2612"
    },
    {
      "channel": 4,
      "note": 52,
      "start": 64.208,
      "duration": 0.012,
      "velocity": 111,
      "chip": "ym2612"
    },
    {
      "channel": 5,
      "note": 47,
      "start": 64.2097,
      "duration": 0.0105,
      "velocity": 111,
      "chip": "ym2612"
    },
    {
      "channel": 0,
      "note": 52,
      "start": 64.3059,
      "duration": 0.3097,
      "velocity": 111,
      "chip": "ym2612"
    },
    {
      "channel": 1,
      "note": 52,
      "start": 64.3075,
      "duration": 0.3083,
      "velocity": 108,
      "chip": "ym2612"
    },
    {
      "channel": 2,
      "note": 47,
      "start": 64.3092,
      "duration": 0.3068,
      "velocity": 111,
      "chip": "ym2612"
    },
    {
      "channel": 3,
      "note": 61,
      "start": 64.3113,
      "duration": 0.0501,
      "velocity": 127,
      "chip": "ym2612"
    },
    {
      "channel": 4,
      "note": 52,
      "start": 64.3209,
      "duration": 0.0123,
      "velocity": 111,
      "chip": "ym2612"
    },
    {
      "channel": 5,
      "note": 47,
      "start": 64.3225,
      "duration": 0.0108,
      "velocity": 111,
      "chip": "ym2612"
    },
    {
      "channel": 4,
      "note": 52,
      "start": 64.434,
      "duration": 0.3239,
      "velocity": 111,
      "chip": "ym2612"
    },
    {
      "channel": 5,
      "note": 47,
      "start": 64.4357,
      "duration": 0.3224,
      "velocity": 111,
      "chip": "ym2612"
    },
    {
      "channel": 3,
      "note": 61,
      "start": 64.5331,
      "duration": 0.0546,
      "velocity": 127,
      "chip": "ym2612"
    },
    {
      "channel": 0,
      "note": 52,
      "start": 64.6458,
      "duration": 0.2103,
      "velocity": 111,
      "chip": "ym2612"
    },
    {
      "channel": 1,
      "note": 52,
      "start": 64.6487,
      "duration": 0.2076,
      "velocity": 108,
      "chip": "ym2612"
    },
    {
      "channel": 2,
      "note": 47,
      "start": 64.6508,
      "duration": 0.2057,
      "velocity": 111,
      "chip": "ym2612"
    },
    {
      "channel": 3,
      "note": 61,
      "start": 64.6566,
      "duration": 0.0585,
      "velocity": 127,
      "chip": "ym2612"
    },
    {
      "channel": 4,
      "note": 52,
      "start": 64.788,
      "duration": 0.1962,
      "velocity": 111,
      "chip": "ym2612"
    },
    {
      "channel": 5,
      "note": 47,
      "start": 64.7902,
      "duration": 0.1943,
      "velocity": 111,
      "chip": "ym2612"
    },
    {
      "channel": 0,
      "note": 54,
      "start": 64.8858,
      "duration": 0.0127,
      "velocity": 111,
      "chip": "ym2612"
    },
    {
      "channel": 1,
      "note": 54,
      "start": 64.8875,
      "duration": 0.0113,
      "velocity": 108,
      "chip": "ym2612"
    },
    {
      "channel": 2,
      "note": 49,
      "start": 64.8892,
      "duration": 0.0098,
      "velocity": 111,
      "chip": "ym2612"
    },
    {
      "channel": 3,
      "note": 61,
      "start": 64.8913,
      "duration": 0.0501,
      "velocity": 127,
      "chip": "ym2612"
    },
    {
      "channel": 0,
      "note": 66,
      "start": 64.999,
      "duration": 0.1965,
      "velocity": 111,
      "chip": "ym2612"
    },
    {
      "channel": 1,
      "note": 54,
      "start": 65.0007,
      "duration": 0.0818,
      "velocity": 108,
      "chip": "ym2612"
    },
    {
      "channel": 2,
      "note": 61,
      "start": 65.0023,
      "duration": 0.1935,
      "velocity": 111,
      "chip": "ym2612"
    },
    {
      "channel": 3,
      "note": 61,
      "start": 65.0077,
      "duration": 0.0468,
      "velocity": 127,
      "chip": "ym2612"
    },
    {
      "channel": 4,
      "note": 54,
      "start": 65.0148,
      "duration": 0.0115,
      "velocity": 111,
      "chip": "ym2612"
    },
    {
      "channel": 5,
      "note": 49,
      "start": 65.0165,
      "duration": 0.0099,
      "velocity": 111,
      "chip": "ym2612"
    },
    {
      "channel": 1,
      "note": 54,
      "start": 65.1122,
      "duration": 0.0127,
      "velocity": 108,
      "chip": "ym2612"
    },
    {
      "channel": 4,
      "note": 66,
      "start": 65.1273,
      "duration": 0.1964,
      "velocity": 111,
      "chip": "ym2612"
    },
    {
      "channel": 5,
      "note": 61,
      "start": 65.1289,
      "duration": 0.195,
      "velocity": 111,
      "chip": "ym2612"
    },
    {
      "channel": 0,
      "note": 54,
      "start": 65.2259,
      "duration": 0.0122,
      "velocity": 111,
      "chip": "ym2612"
    },
    {
      "channel": 1,
      "note": 54,
      "start": 65.2275,
      "duration": 0.0813,
      "velocity": 108,
      "chip": "ym2612"
    },
    {
      "channel": 2,
      "note": 49,
      "start": 65.2293,
      "duration": 0.009,
      "velocity": 111,
      "chip": "ym2612"
    },
    {
      "channel": 3,
      "note": 61,
      "start": 65.2354,
      "duration": 0.0459,
      "velocity": 127,
      "chip": "ym2612"
    },
    {
      "channel": 0,
      "note": 64,
      "start": 65.3384,
      "duration": 0.0835,
      "velocity": 111,
      "chip": "ym2612"
    },
    {
      "channel": 1,
      "note": 54,
      "start": 65.3402,
      "duration": 0.0818,
      "velocity": 108,
      "chip": "ym2612"
    },
    {
      "channel": 2,
      "note": 59,
      "start": 65.3419,
      "duration": 0.0803,
      "velocity": 111,
      "chip": "ym2612"
    },
    {
      "channel": 3,
      "note": 61,
      "start": 65.3482,
      "duration": 0.0461,
      "velocity": 127,
      "chip": "ym2612"
    },
    {
      "channel": 4,
      "note": 54,
      "start": 65.3535,
      "duration": 0.0122,
      "velocity": 111,
      "chip": "ym2612"
    },
    {
      "channel": 5,
      "note": 49,
      "start": 65.3551,
      "duration": 0.0108,
      "velocity": 111,
      "chip": "ym2612"
    },
    {
      "channel": 0,
      "note": 54,
      "start": 65.4516,
      "duration": 0.0127,
      "velocity": 111,
      "chip": "ym2612"
    },
    {
      "channel": 1,
      "note": 54,
      "start": 65.4534,
      "duration": 0.0817,
      "velocity": 108,
      "chip": "ym2612"
    },
    {
      "channel": 2,
      "note": 49,
      "start": 65.4551,
      "duration": 0.0095,
      "velocity": 111,
      "chip": "ym2612"
    },
    {
      "channel": 4,
      "note": 64,
      "start": 65.4668,
      "duration": 0.0833,
      "velocity": 111,
      "chip": "ym2612"
    },
    {
      "channel": 5,
      "note": 59,
      "start": 65.4685,
      "duration": 0.0817,
      "velocity": 111,
      "chip": "ym2612"
    },
    {
      "channel": 0,
      "note": 61,
      "start": 65.5657,
      "duration": 0.0825,
      "velocity": 111,
      "chip": "ym2612"
    },
    {
      "channel": 1,
      "note": 54,
      "start": 65.5676,
      "duration": 0.0808,
      "velocity": 108,
      "chip": "ym2612"
    },
    {
      "channel": 2,
      "note": 56,
      "start": 65.5692,
      "duration": 0.0794,
      "velocity": 111,
      "chip": "ym2612"
    },
    {
      "channel": 3,
      "note": 61,
      "start": 65.5713,
      "duration": 0.049,
      "velocity": 127,
      "chip": "ym2612"
    },
    {
      "channel": 4,
      "note": 54,
      "start": 65.5798,
      "duration": 0.0123,
      "velocity": 111,
      "chip": "ym2612"
    },
    {
      "channel": 5,
      "note": 49,
      "start": 65.5823,
      "duration": 0.0099,
      "velocity": 111,
      "chip": "ym2612"
    },
    {
      "channel": 0,
      "note": 54,
      "start": 65.6779,
      "duration": 0.0127,
      "velocity": 111,
      "chip": "ym2612"
    },
    {
      "channel": 1,
      "note": 54,
      "start": 65.6798,
      "duration": 0.0817,
      "velocity": 108,
      "chip": "ym2612"
    },
    {
      "channel": 2,
      "note": 49,
      "start": 65.6823,
      "duration": 0.0086,
      "velocity": 111,
      "chip": "ym2612"
    },
    {
      "channel": 3,
      "note": 61,
      "start": 65.6876,
      "duration": 0.0458,
      "velocity": 127,
      "chip": "ym2612"
    },
    {
      "channel": 4,
      "note": 61,
      "start": 65.6932,
      "duration": 0.0832,
      "velocity": 111,
      "chip": "ym2612"
    },
    {
      "channel": 5,
      "note": 56,
      "start": 65.6948,
      "duration": 0.0817,
      "velocity": 111,
      "chip": "ym2612"
    },
    {
      "channel": 0,
      "note": 59,
      "start": 65.7911,
      "duration": 0.0834,
      "velocity": 111,
      "chip": "ym2612"
    },
    {
      "channel": 1,
      "note": 54,
      "start": 65.7929,
      "duration": 0.0817,
      "velocity": 108,
      "chip": "ym2612"
    },
    {
      "channel": 2,
      "note": 54,
      "start": 65.7946,
      "duration": 0.0803,
      "velocity": 111,
      "chip": "ym2612"
    },
    {
      "channel": 4,
      "note": 54,
      "start": 65.8061,
      "duration": 0.0127,
      "velocity": 111,
      "chip": "ym2612"
    },
    {
      "channel": 5,
      "note": 49,
      "start": 65.8078,
      "duration": 0.0112,
      "velocity": 111,
      "chip": "ym2612"
    },
    {
      "channel": 0,
      "note": 54,
      "start": 65.9043,
      "duration": 0.0127,
      "velocity": 111,
      "chip": "ym2612"
    },
    {
      "channel": 1,
      "note": 54,
      "start": 65.906,
      "duration": 0.0817,
      "velocity": 108,
      "chip": "ym2612"
    },
    {
      "channel": 2,
      "note": 49,
      "start": 65.9077,
      "duration": 0.0095,
      "velocity": 111,
      "chip": "ym2612"
    },
    {
      "channel": 3,
      "note": 61,
      "start": 65.913,
      "duration": 0.0468,
      "velocity": 127,
      "chip": "ym2612"
    },
    {
      "channel": 4,
      "note": 59,
      "start": 65.9195,
      "duration": 0.0832,
      "velocity": 111,
      "chip": "ym2612"
    },
    {
      "channel": 5,
      "note": 54,
      "start": 65.9212,
      "duration": 0.0817,
      "velocity": 111,
      "chip": "ym2612"
    },
    {
      "channel": 0,
      "note": 52,
      "start": 66.0176,
      "duration": 0.1966,
      "velocity": 111,
      "chip": "ym2612"
    },
    {
      "channel": 1,
      "note": 52,
      "start": 66.0195,
      "duration": 0.195,
      "velocity": 108,
      "chip": "ym2612"
    },
    {
      "channel": 2,
      "note": 47,
      "start": 66.0213,
      "duration": 0.1933,
      "velocity": 111,
      "chip": "ym2612"
    },
    {
      "channel": 3,
      "note": 61,
      "start": 66.0267,
      "duration": 0.0462,
      "velocity": 127,
      "chip": "ym2612"
    },
    {
      "channel": 4,
      "note": 54,
      "start": 66.0332,
      "duration": 0.0115,
      "velocity": 111,
      "chip": "ym2612"
    },
    {
      "channel": 5,
      "note": 49,
      "start": 66.0349,
      "duration": 0.01,
      "velocity": 111,
      "chip": "ym2612"
    },
    {
      "channel": 4,
      "note": 52,
      "start": 66.1457,
      "duration": 0.1965,
      "velocity": 111,
      "chip": "ym2612"
    },
    {
      "channel": 5,
      "note": 47,
      "start": 66.1483,
      "duration": 0.194,
      "velocity": 111,
      "chip": "ym2612"
    },
    {
      "channel": 0,
      "note": 54,
      "start": 66.2437,
      "duration": 0.0127,
      "velocity": 111,
      "chip": "ym2612"
    },
    {
      "channel": 1,
      "note": 54,
      "start": 66.2454,
      "duration": 0.0112,
      "velocity": 108,
      "chip": "ym2612"
    },
    {
      "channel": 2,
      "note": 49,
      "start": 66.2479,
      "duration": 0.0089,
      "velocity": 111,
      "chip": "ym2612"
    },
    {
      "channel": 3,
      "note": 61,
      "start": 66.25,
      "duration": 0.0493,
      "velocity": 127,
      "chip": "ym2612"
    },
    {
      "channel": 0,
      "note": 66,
      "start": 66.3569,
      "duration": 0.1973,
      "velocity": 111,
      "chip": "ym2612"
    },
    {
      "channel": 1,
      "note": 54,
      "start": 66.3585,
      "duration": 0.0819,
      "velocity": 108,
      "chip": "ym2612"
    },
    {
      "channel": 2,
      "note": 61,
      "start": 66.3602,
      "duration": 0.1943,
      "velocity": 111,
      "chip": "ym2612"
    },
    {
      "channel": 3,
      "note": 61,
      "start": 66.3663,
      "duration": 0.0461,
      "velocity": 127,
      "chip": "ym2612"
    },
    {
      "channel": 4,
      "note": 54,
      "start": 66.3719,
      "duration": 0.0123,
      "velocity": 111,
      "chip": "ym2612"
    },
    {
      "channel": 5,
      "note": 49,
      "start": 66.3736,
      "duration": 0.0107,
      "velocity": 111,
      "chip": "ym2612"
    },
    {
      "channel": 1,
      "note": 54,
      "start": 66.4702,
      "duration": 0.0127,
      "velocity": 108,
      "chip": "ym2612"
    },
    {
      "channel": 4,
      "note": 66,
      "start": 66.4852,
      "duration": 0.1966,
      "velocity": 111,
      "chip": "ym2612"
    },
    {
      "channel": 5,
      "note": 61,
      "start": 66.4868,
      "duration": 0.1951,
      "velocity": 111,
      "chip": "ym2612"
    },
    {
      "channel": 0,
      "note": 54,
      "start": 66.5832,
      "duration": 0.0127,
      "velocity": 111,
      "chip": "ym2612"
    },
    {
      "channel": 1,
      "note": 54,
      "start": 66.5849,
      "duration": 0.0819,
      "velocity": 108,
      "chip": "ym2612"
    },
    {
      "channel": 2,
      "note": 49,
      "start": 66.5866,
      "duration": 0.0096,
      "velocity": 111,
      "chip": "ym2612"
    },
    {
      "channel": 3,
      "note": 61,
      "start": 66.5919,
      "duration": 0.0469,
      "velocity": 127,
      "chip": "ym2612"
    },
    {
      "channel": 0,
      "note": 64,
      "start": 66.6964,
      "duration": 0.0834,
      "velocity": 111,
      "chip": "ym2612"
    },
    {
      "channel": 1,
      "note": 54,
      "start": 66.6991,
      "duration": 0.0817,
      "velocity": 108,
      "chip": "ym2612"
    },
    {
      "channel": 2,
      "note": 59,
      "start": 66.7007,
      "duration": 0.0803,
      "velocity": 111,
      "chip": "ym2612"
    },
    {
      "channel": 3,
      "note": 61,
      "start": 66.7062,
      "duration": 0.0457,
      "velocity": 127,
      "chip": "ym2612"
    },
    {
      "channel": 4,
      "note": 54,
      "start": 66.7114,
      "duration": 0.0125,
      "velocity": 111,
      "chip": "ym2612"
    },
    {
      "channel": 5,
      "note": 49,
      "start": 66.713,
      "duration": 0.0111,
      "velocity": 111,
      "chip": "ym2612"
    },
    {
      "channel": 0,
      "note": 54,
      "start": 66.8095,
      "duration": 0.0127,
      "velocity": 111,
      "chip": "ym2612"
    },
    {
      "channel": 1,
      "note": 54,
      "start": 66.8113,
      "duration": 0.0817,
      "velocity": 108,
      "chip": "ym2612"
    },
    {
      "channel": 2,
      "note": 49,
      "start": 66.813,
      "duration": 0.0095,
      "velocity": 111,
      "chip": "ym2612"
    },
    {
      "channel": 4,
      "note": 64,
      "start": 66.8247,
      "duration": 0.0832,
      "velocity": 111,
      "chip": "ym2612"
    },
    {
      "channel": 5,
      "note": 59,
      "start": 66.8264,
      "duration": 0.0817,
      "velocity": 111,
      "chip": "ym2612"
    },
    {
      "channel": 0,
      "note": 61,
      "start": 66.9227,
      "duration": 0.0834,
      "velocity": 111,
      "chip": "ym2612"
    },
    {
      "channel": 1,
      "note": 54,
      "start": 66.9245,
      "duration": 0.0818,
      "velocity": 108,
      "chip": "ym2612"
    },
    {
      "channel": 2,
      "note": 56,
      "start": 66.9261,
      "duration": 0.0803,
      "velocity": 111,
      "chip": "ym2612"
    },
    {
      "channel": 3,
      "note": 61,
      "start": 66.9282,
      "duration": 0.05,
      "velocity": 127,
      "chip": "ym2612"
    },
    {
      "channel": 4,
      "note": 54,
      "start": 66.9377,
      "duration": 0.0122,
      "velocity": 111,
      "chip": "ym2612"
    },
    {
      "channel": 5,
      "note": 49,
      "start": 66.9394,
      "duration": 0.0108,
      "velocity": 111,
      "chip": "ym2612"
    },
    {
      "channel": 0,
      "note": 54,
      "start": 67.0358,
      "duration": 0.0136,
      "velocity": 111,
      "chip": "ym2612"
    },
    {
      "channel": 1,
      "note": 54,
      "start": 67.0376,
      "duration": 0.0817,
      "velocity": 108,
      "chip": "ym2612"
    },
    {
      "channel": 2,
      "note": 49,
      "start": 67.0393,
      "duration": 0.0103,
      "velocity": 111,
      "chip": "ym2612"
    },
    {
      "channel": 3,
      "note": 61,
      "start": 67.0446,
      "duration": 0.0468,
      "velocity": 127,
      "chip": "ym2612"
    },
    {
      "channel": 4,
      "note": 61,
      "start": 67.0519,
      "duration": 0.0823,
      "velocity": 111,
      "chip": "ym2612"
    },
    {
      "channel": 5,
      "note": 56,
      "start": 67.0536,
      "duration": 0.0809,
      "velocity": 111,
      "chip": "ym2612"
    },
    {
      "channel": 0,
      "note": 59,
      "start": 67.149,
      "duration": 0.0833,
      "velocity": 111,
      "chip": "ym2612"
    },
    {
      "channel": 1,
      "note": 54,
      "start": 67.1508,
      "duration": 0.0818,
      "velocity": 108,
      "chip": "ym2612"
    },
    {
      "channel": 2,
      "note": 54,
      "start": 67.1525,
      "duration": 0.0803,
      "velocity": 111,
      "chip": "ym2612"
    },
    {
      "channel": 4,
      "note": 54,
      "start": 67.1648,
      "duration": 0.0119,
      "velocity": 111,
      "chip": "ym2612"
    },
    {
      "channel": 5,
      "note": 49,
      "start": 67.1665,
      "duration": 0.0104,
      "velocity": 111,
      "chip": "ym2612"
    },
    {
      "channel": 0,
      "note": 54,
      "start": 67.2621,
      "duration": 0.0127,
      "velocity": 111,
      "chip": "ym2612"
    },
    {
      "channel": 1,
      "note": 54,
      "start": 67.2648,
      "duration": 0.0809,
      "velocity": 108,
      "chip": "ym2612"
    },
    {
      "channel": 2,
      "note": 49,
      "start": 67.2665,
      "duration": 0.0087,
      "velocity": 111,
      "chip": "ym2612"
    },
    {
      "channel": 3,
      "note": 61,
      "start": 67.2717,
      "duration": 0.0459,
      "velocity": 127,
      "chip": "ym2612"
    },
    {
      "channel": 4,
      "note": 59,
      "start": 67.2774,
      "duration": 0.0831,
      "velocity": 111,
      "chip": "ym2612"
    },
    {
      "channel": 5,
      "note": 54,
      "start": 67.2791,
      "duration": 0.0817,
      "velocity": 111,
      "chip": "ym2612"
    },
    {
      "channel": 0,
      "note": 52,
      "start": 67.3754,
      "duration": 0.1964,
      "velocity": 111,
      "chip": "ym2612"
    },
    {
      "channel": 1,
      "note": 52,
      "start": 67.3774,
      "duration": 0.1946,
      "velocity": 108,
      "chip": "ym2612"
    },
    {
      "channel": 2,
      "note": 47,
      "start": 67.3792,
      "duration": 0.1931,
      "velocity": 111,
      "chip": "ym2612"
    },
    {
      "channel": 3,
      "note": 61,
      "start": 67.3855,
      "duration": 0.0458,
      "velocity": 127,
      "chip": "ym2612"
    },
    {
      "channel": 4,
      "note": 54,
      "start": 67.3905,
      "duration": 0.0121,
      "velocity": 111,
      "chip": "ym2612"
    },
    {
      "channel": 5,
      "note": 49,
      "start": 67.3922,
      "duration": 0.0106,
      "velocity": 111,
      "chip": "ym2612"
    },
    {
      "channel": 4,
      "note": 52,
      "start": 67.5036,
      "duration": 0.1964,
      "velocity": 111,
      "chip": "ym2612"
    },
    {
      "channel": 5,
      "note": 47,
      "start": 67.5054,
      "duration": 0.1949,
      "velocity": 111,
      "chip": "ym2612"
    },
    {
      "channel": 0,
      "note": 54,
      "start": 67.6017,
      "duration": 0.0127,
      "velocity": 111,
      "chip": "ym2612"
    },
    {
      "channel": 1,
      "note": 54,
      "start": 67.6033,
      "duration": 0.0112,
      "velocity": 108,
      "chip": "ym2612"
    },
    {
      "channel": 2,
      "note": 49,
      "start": 67.6049,
      "duration": 0.0098,
      "velocity": 111,
      "chip": "ym2612"
    },
    {
      "channel": 3,
      "note": 61,
      "start": 67.6071,
      "duration": 0.0501,
      "velocity": 127,
      "chip": "ym2612"
    },
    {
      "channel": 0,
      "note": 66,
      "start": 67.7164,
      "duration": 0.195,
      "velocity": 111,
      "chip": "ym2612"
    },
    {
      "channel": 1,
      "note": 54,
      "start": 67.718,
      "duration": 0.0802,
      "velocity": 108,
      "chip": "ym2612"
    },
    {
      "channel": 2,
      "note": 61,
      "start": 67.7198,
      "duration": 0.1919,
      "velocity": 111,
      "chip": "ym2612"
    },
    {
      "channel": 3,
      "note": 61,
      "start": 67.7251,
      "duration": 0.0452,
      "velocity": 127,
      "chip": "ym2612"
    },
    {
      "channel": 4,
      "note": 54,
      "start": 67.7298,
      "duration": 0.0122,
      "velocity": 111,
      "chip": "ym2612"
    },
    {
      "channel": 5,
      "note": 49,
      "start": 67.7323,
      "duration": 0.01,
      "velocity": 111,
      "chip": "ym2612"
    },
    {
      "channel": 1,
      "note": 54,
      "start": 67.828,
      "duration": 0.0127,
      "velocity": 108,
      "chip": "ym2612"
    },
    {
      "channel": 4,
      "note": 66,
      "start": 67.8431,
      "duration": 0.1965,
      "velocity": 111,
      "chip": "ym2612"
    },
    {
      "channel": 5,
      "note": 61,
      "start": 67.8447,
      "duration": 0.195,
      "velocity": 111,
      "chip": "ym2612"
    },
    {
      "channel": 0,
      "note": 54,
      "start": 67.9412,
      "duration": 0.0127,
      "velocity": 111,
      "chip": "ym2612"
    },
    {
      "channel": 1,
      "note": 54,
      "start": 67.9428,
      "duration": 0.0818,
      "velocity": 108,
      "chip": "ym2612"
    },
    {
      "channel": 2,
      "note": 49,
      "start": 67.9445,
      "duration": 0.0096,
      "velocity": 111,
      "chip": "ym2612"
    },
    {
      "channel": 3,
      "note": 61,
      "start": 67.9506,
      "duration": 0.0469,
      "velocity": 127,
      "chip": "ym2612"
    },
    {
      "channel": 0,
      "note": 64,
      "start": 68.0545,
      "duration": 0.0831,
      "velocity": 111,
      "chip": "ym2612"
    },
    {
      "channel": 1,
      "note": 54,
      "start": 68.0563,
      "duration": 0.0816,
      "velocity": 108,
      "chip": "ym2612"
    },
    {
      "channel": 2,
      "note": 59,
      "start": 68.058,
      "duration": 0.0801,
      "velocity": 111,
      "chip": "ym2612"
    },
    {
      "channel": 3,
      "note": 61,
      "start": 68.0642,
      "duration": 0.0456,
      "velocity": 127,
      "chip": "ym2612"
    },
    {
      "channel": 4,
      "note": 54,
      "start": 68.0693,
      "duration": 0.0122,
      "velocity": 111,
      "chip": "ym2612"
    },
    {
      "channel": 5,
      "note": 49,
      "start": 68.071,
      "duration": 0.0107,
      "velocity": 111,
      "chip": "ym2612"
    },
    {
      "channel": 0,
      "note": 54,
      "start": 68.1674,
      "duration": 0.0135,
      "velocity": 111,
      "chip": "ym2612"
    },
    {
      "channel": 1,
      "note": 54,
      "start": 68.1692,
      "duration": 0.0817,
      "velocity": 108,
      "chip": "ym2612"
    },
    {
      "channel": 2,
      "note": 49,
      "start": 68.1709,
      "duration": 0.0102,
      "velocity": 111,
      "chip": "ym2612"
    },
    {
      "channel": 4,
      "note": 64,
      "start": 68.1834,
      "duration": 0.0824,
      "velocity": 111,
      "chip": "ym2612"
    },
    {
      "channel": 5,
      "note": 59,
      "start": 68.1851,
      "duration": 0.0809,
      "velocity": 111,
      "chip": "ym2612"
    },
    {
      "channel": 0,
      "note": 61,
      "start": 68.2814,
      "duration": 0.0828,
      "velocity": 111,
      "chip": "ym2612"
    },
    {
      "channel": 1,
      "note": 54,
      "start": 68.2833,
      "duration": 0.0812,
      "velocity": 108,
      "chip": "ym2612"
    },
    {
      "channel": 2,
      "note": 56,
      "start": 68.2849,
      "duration": 0.0797,
      "velocity": 111,
      "chip": "ym2612"
    },
    {
      "channel": 3,
      "note": 61,
      "start": 68.287,
      "duration": 0.0491,
      "velocity": 127,
      "chip": "ym2612"
    },
    {
      "channel": 4,
      "note": 54,
      "start": 68.2956,
      "duration": 0.0122,
      "velocity": 111,
      "chip": "ym2612"
    },
    {
      "channel": 5,
      "note": 49,
      "start": 68.2981,
      "duration": 0.0099,
      "velocity": 111,
      "chip": "ym2612"
    },
    {
      "channel": 0,
      "note": 54,
      "start": 68.3938,
      "duration": 0.0127,
      "velocity": 111,
      "chip": "ym2612"
    },
    {
      "channel": 1,
      "note": 54,
      "start": 68.3955,
      "duration": 0.0817,
      "velocity": 108,
      "chip": "ym2612"
    },
    {
      "channel": 2,
      "note": 49,
      "start": 68.398,
      "duration": 0.0087,
      "velocity": 111,
      "chip": "ym2612"
    },
    {
      "channel": 3,
      "note": 61,
      "start": 68.4034,
      "duration": 0.0459,
      "velocity": 127,
      "chip": "ym2612"
    },
    {
      "channel": 4,
      "note": 61,
      "start": 68.409,
      "duration": 0.0832,
      "velocity": 111,
      "chip": "ym2612"
    },
    {
      "channel": 5,
      "note": 56,
      "start": 68.4107,
      "duration": 0.0817,
      "velocity": 111,
      "chip": "ym2612"
    },
    {
      "channel": 0,
      "note": 59,
      "start": 68.5069,
      "duration": 0.0834,
      "velocity": 111,
      "chip": "ym2612"
    },
    {
      "channel": 1,
      "note": 54,
      "start": 68.5087,
      "duration": 0.0818,
      "velocity": 108,
      "chip": "ym2612"
    },
    {
      "channel": 2,
      "note": 54,
      "start": 68.5104,
      "duration": 0.0803,
      "velocity": 111,
      "chip": "ym2612"
    },
    {
      "channel": 4,
      "note": 54,
      "start": 68.5219,
      "duration": 0.0127,
      "velocity": 111,
      "chip": "ym2612"
    },
    {
      "channel": 5,
      "note": 49,
      "start": 68.5236,
      "duration": 0.0112,
      "velocity": 111,
      "chip": "ym2612"
    },
    {
      "channel": 0,
      "note": 54,
      "start": 68.6201,
      "duration": 0.0127,
      "velocity": 111,
      "chip": "ym2612"
    },
    {
      "channel": 1,
      "note": 54,
      "start": 68.6219,
      "duration": 0.0817,
      "velocity": 108,
      "chip": "ym2612"
    },
    {
      "channel": 2,
      "note": 49,
      "start": 68.6235,
      "duration": 0.0095,
      "velocity": 111,
      "chip": "ym2612"
    },
    {
      "channel": 3,
      "note": 61,
      "start": 68.6289,
      "duration": 0.0467,
      "velocity": 127,
      "chip": "ym2612"
    },
    {
      "channel": 4,
      "note": 59,
      "start": 68.6353,
      "duration": 0.0834,
      "velocity": 111,
      "chip": "ym2612"
    },
    {
      "channel": 5,
      "note": 54,
      "start": 68.637,
      "duration": 0.0819,
      "velocity": 111,
      "chip": "ym2612"
    },
    {
      "channel": 0,
      "note": 57,
      "start": 68.7337,
      "duration": 0.649,
      "velocity": 111,
      "chip": "ym2612"
    },
    {
      "channel": 1,
      "note": 55,
      "start": 68.736,
      "duration": 0.1949,
      "velocity": 108,
      "chip": "ym2612"
    },
    {
      "channel": 2,
      "note": 52,
      "start": 68.7381,
      "duration": 0.6449,
      "velocity": 111,
      "chip": "ym2612"
    },
    {
      "channel": 3,
      "note": 61,
      "start": 68.7438,
      "duration": 0.0449,
      "velocity": 127,
      "chip": "ym2612"
    },
    {
      "channel": 4,
      "note": 54,
      "start": 68.75,
      "duration": 0.0105,
      "velocity": 111,
      "chip": "ym2612"
    },
    {
      "channel": 5,
      "note": 49,
      "start": 68.7517,
      "duration": 0.009,
      "velocity": 111,
      "chip": "ym2612"
    },
    {
      "channel": 4,
      "note": 57,
      "start": 68.8618,
      "duration": 0.6488,
      "velocity": 111,
      "chip": "ym2612"
    },
    {
      "channel": 5,
      "note": 52,
      "start": 68.8647,
      "duration": 0.6461,
      "velocity": 111,
      "chip": "ym2612"
    },
    {
      "channel": 1,
      "note": 57,
      "start": 68.9597,
      "duration": 0.0127,
      "velocity": 108,
      "chip": "ym2612"
    },
    {
      "channel": 3,
      "note": 61,
      "start": 68.9659,
      "duration": 0.0492,
      "velocity": 127,
      "chip": "ym2612"
    },
    {
      "channel": 1,
      "note": 57,
      "start": 69.0728,
      "duration": 0.0835,
      "velocity": 108,
      "chip": "ym2612"
    },
    {
      "channel": 3,
      "note": 61,
      "start": 69.075,
      "duration": 0.0532,
      "velocity": 127,
      "chip": "ym2612"
    },
    {
      "channel": 1,
      "note": 57,
      "start": 69.1859,
      "duration": 0.0127,
      "velocity": 108,
      "chip": "ym2612"
    },
    {
      "channel": 1,
      "note": 57,
      "start": 69.2991,
      "duration": 0.0837,
      "velocity": 108,
      "chip": "ym2612"
    },
    {
      "channel": 3,
      "note": 61,
      "start": 69.3045,
      "duration": 0.0501,
      "velocity": 127,
      "chip": "ym2612"
    },
    {
      "channel": 0,
      "note": 59,
      "start": 69.4121,
      "duration": 0.6493,
      "velocity": 111,
      "chip": "ym2612"
    },
    {
      "channel": 1,
      "note": 53,
      "start": 69.4149,
      "duration": 0.194,
      "velocity": 108,
      "chip": "ym2612"
    },
    {
      "channel": 2,
      "note": 52,
      "start": 69.4165,
      "duration": 0.6452,
      "velocity": 111,
      "chip": "ym2612"
    },
    {
      "channel": 3,
      "note": 61,
      "start": 69.4186,
      "duration": 0.0491,
      "velocity": 127,
      "chip": "ym2612"
    },
    {
      "channel": 4,
      "note": 59,
      "start": 69.5403,
      "duration": 0.6634,
      "velocity": 111,
      "chip": "ym2612"
    },
    {
      "channel": 5,
      "note": 52,
      "start": 69.542,
      "duration": 0.6619,
      "velocity": 111,
      "chip": "ym2612"
    },
    {
      "channel": 1,
      "note": 55,
      "start": 69.6386,
      "duration": 0.0127,
      "velocity": 108,
      "chip": "ym2612"
    },
    {
      "channel": 3,
      "note": 61,
      "start": 69.644,
      "duration": 0.05,
      "velocity": 127,
      "chip": "ym2612"
    },
    {
      "channel": 1,
      "note": 55,
      "start": 69.7518,
      "duration": 0.0834,
      "velocity": 108,
      "chip": "ym2612"
    },
    {
      "channel": 3,
      "note": 61,
      "start": 69.754,
      "duration": 0.0532,
      "velocity": 127,
      "chip": "ym2612"
    },
    {
      "channel": 1,
      "note": 55,
      "start": 69.8658,
      "duration": 0.0124,
      "velocity": 108,
      "chip": "ym2612"
    },
    {
      "channel": 3,
      "note": 61,
      "start": 69.8679,
      "duration": 0.0524,
      "velocity": 127,
      "chip": "ym2612"
    },
    {
      "channel": 1,
      "note": 55,
      "start": 69.9781,
      "duration": 0.0834,
      "velocity": 108,
      "chip": "ym2612"
    },
    {
      "channel": 3,
      "note": 61,
      "start": 69.9843,
      "duration": 0.0492,
      "velocity": 127,
      "chip": "ym2612"
    },
    {
      "channel": 0,
      "note": 52,
      "start": 70.0915,
      "duration": 0.2103,
      "velocity": 111,
      "chip": "ym2612"
    },
    {
      "channel": 1,
      "note": 52,
      "start": 70.094,
      "duration": 0.2081,
      "velocity": 108,
      "chip": "ym2612"
    },
    {
      "channel": 2,
      "note": 47,
      "start": 70.0961,
      "duration": 0.2062,
      "velocity": 111,
      "chip": "ym2612"
    },
    {
      "channel": 3,
      "note": 61,
      "start": 70.1027,
      "duration": 0.0582,
      "velocity": 127,
      "chip": "ym2612"
    },
    {
      "channel": 4,
      "note": 52,
      "start": 70.2338,
      "duration": 0.197,
      "velocity": 111,
      "chip": "ym2612"
    },
    {
      "channel": 5,
      "note": 47,
      "start": 70.236,
      "duration": 0.1951,
      "velocity": 111,
      "chip": "ym2612"
    },
    {
      "channel": 0,
      "note": 54,
      "start": 70.3323,
      "duration": 0.012,
      "velocity": 111,
      "chip": "ym2612"
    },
    {
      "channel": 1,
      "note": 54,
      "start": 70.334,
      "duration": 0.0105,
      "velocity": 108,
      "chip": "ym2612"
    },
    {
      "channel": 2,
      "note": 49,
      "start": 70.3357,
      "duration": 0.009,
      "velocity": 111,
      "chip": "ym2612"
    },
    {
      "channel": 3,
      "note": 61,
      "start": 70.3378,
      "duration": 0.0494,
      "velocity": 127,
      "chip": "ym2612"
    },
    {
      "channel": 0,
      "note": 66,
      "start": 70.4448,
      "duration": 0.1966,
      "velocity": 111,
      "chip": "ym2612"
    },
    {
      "channel": 1,
      "note": 54,
      "start": 70.4464,
      "duration": 0.0819,
      "velocity": 108,
      "chip": "ym2612"
    },
    {
      "channel": 2,
      "note": 61,
      "start": 70.4489,
      "duration": 0.1927,
      "velocity": 111,
      "chip": "ym2612"
    },
    {
      "channel": 3,
      "note": 61,
      "start": 70.4543,
      "duration": 0.046,
      "velocity": 127,
      "chip": "ym2612"
    },
    {
      "channel": 4,
      "note": 54,
      "start": 70.4598,
      "duration": 0.0122,
      "velocity": 111,
      "chip": "ym2612"
    },
    {
      "channel": 5,
      "note": 49,
      "start": 70.4615,
      "duration": 0.0107,
      "velocity": 111,
      "chip": "ym2612"
    },
    {
      "channel": 1,
      "note": 54,
      "start": 70.558,
      "duration": 0.0127,
      "velocity": 108,
      "chip": "ym2612"
    },
    {
      "channel": 4,
      "note": 66,
      "start": 70.573,
      "duration": 0.1965,
      "velocity": 111,
      "chip": "ym2612"
    },
    {
      "channel": 5,
      "note": 61,
      "start": 70.5747,
      "duration": 0.195,
      "velocity": 111,
      "chip": "ym2612"
    },
    {
      "channel": 0,
      "note": 54,
      "start": 70.671,
      "duration": 0.0127,
      "velocity": 111,
      "chip": "ym2612"
    },
    {
      "channel": 1,
      "note": 54,
      "start": 70.6727,
      "duration": 0.0819,
      "velocity": 108,
      "chip": "ym2612"
    },
    {
      "channel": 2,
      "note": 49,
      "start": 70.6744,
      "duration": 0.0097,
      "velocity": 111,
      "chip": "ym2612"
    },
    {
      "channel": 3,
      "note": 61,
      "start": 70.6797,
      "duration": 0.0469,
      "velocity": 127,
      "chip": "ym2612"
    },
    {
      "channel": 0,
      "note": 64,
      "start": 70.7842,
      "duration": 0.0834,
      "velocity": 111,
      "chip": "ym2612"
    },
    {
      "channel": 1,
      "note": 54,
      "start": 70.7861,
      "duration": 0.0818,
      "velocity": 108,
      "chip": "ym2612"
    },
    {
      "channel": 2,
      "note": 59,
      "start": 70.7877,
      "duration": 0.0803,
      "velocity": 111,
      "chip": "ym2612"
    },
    {
      "channel": 3,
      "note": 61,
      "start": 70.7932,
      "duration": 0.0466,
      "velocity": 127,
      "chip": "ym2612"
    },
    {
      "channel": 4,
      "note": 54,
      "start": 70.7999,
      "duration": 0.0116,
      "velocity": 111,
      "chip": "ym2612"
    },
    {
      "channel": 5,
      "note": 49,
      "start": 70.8015,
      "duration": 0.0102,
      "velocity": 111,
      "chip": "ym2612"
    },
    {
      "channel": 0,
      "note": 54,
      "start": 70.8982,
      "duration": 0.0119,
      "velocity": 111,
      "chip": "ym2612"
    },
    {
      "channel": 1,
      "note": 54,
      "start": 70.9,
      "duration": 0.081,
      "velocity": 108,
      "chip": "ym2612"
    },
    {
      "channel": 2,
      "note": 49,
      "start": 70.9017,
      "duration": 0.0087,
      "velocity": 111,
      "chip": "ym2612"
    },
    {
      "channel": 4,
      "note": 64,
      "start": 70.9126,
      "duration": 0.0832,
      "velocity": 111,
      "chip": "ym2612"
    },
    {
      "channel": 5,
      "note": 59,
      "start": 70.9151,
      "duration": 0.0809,
      "velocity": 111,
      "chip": "ym2612"
    },
    {
      "channel": 0,
      "note": 61,
      "start": 71.0105,
      "duration": 0.0834,
      "velocity": 111,
      "chip": "ym2612"
    },
    {
      "channel": 1,
      "note": 54,
      "start": 71.0124,
      "duration": 0.0818,
      "velocity": 108,
      "chip": "ym2612"
    },
    {
      "channel": 2,
      "note": 56,
      "start": 71.0149,
      "duration": 0.0795,
      "velocity": 111,
      "chip": "ym2612"
    },
    {
      "channel": 3,
      "note": 61,
      "start": 71.017,
      "duration": 0.0491,
      "velocity": 127,
      "chip": "ym2612"
    },
    {
      "channel": 4,
      "note": 54,
      "start": 71.0256,
      "duration": 0.0129,
      "velocity": 111,
      "chip": "ym2612"
    },
    {
      "channel": 5,
      "note": 49,
      "start": 71.0272,
      "duration": 0.0115,
      "velocity": 111,
      "chip": "ym2612"
    },
    {
      "channel": 0,
      "note": 54,
      "start": 71.1237,
      "duration": 0.0127,
      "velocity": 111,
      "chip": "ym2612"
    },
    {
      "channel": 1,
      "note": 54,
      "start": 71.1255,
      "duration": 0.0821,
      "velocity": 108,
      "chip": "ym2612"
    },
    {
      "channel": 2,
      "note": 49,
      "start": 71.1271,
      "duration": 0.0095,
      "velocity": 111,
      "chip": "ym2612"
    },
    {
      "channel": 3,
      "note": 61,
      "start": 71.1333,
      "duration": 0.0459,
      "velocity": 127,
      "chip": "ym2612"
    },
    {
      "channel": 4,
      "note": 61,
      "start": 71.1389,
      "duration": 0.0832,
      "velocity": 111,
      "chip": "ym2612"
    },
    {
      "channel": 5,
      "note": 56,
      "start": 71.1406,
      "duration": 0.0817,
      "velocity": 111,
      "chip": "ym2612"
    },
    {
      "channel": 0,
      "note": 59,
      "start": 71.2369,
      "duration": 0.0834,
      "velocity": 111,
      "chip": "ym2612"
    },
    {
      "channel": 1,
      "note": 54,
      "start": 71.2387,
      "duration": 0.0818,
      "velocity": 108,
      "chip": "ym2612"
    },
    {
      "channel": 2,
      "note": 54,
      "start": 71.2403,
      "duration": 0.0803,
      "velocity": 111,
      "chip": "ym2612"
    },
    {
      "channel": 4,
      "note": 54,
      "start": 71.2518,
      "duration": 0.0132,
      "velocity": 111,
      "chip": "ym2612"
    },
    {
      "channel": 5,
      "note": 49,
      "start": 71.2536,
      "duration": 0.0117,
      "velocity": 111,
      "chip": "ym2612"
    },
    {
      "channel": 0,
      "note": 54,
      "start": 71.35,
      "duration": 0.0127,
      "velocity": 111,
      "chip": "ym2612"
    },
    {
      "channel": 1,
      "note": 54,
      "start": 71.3518,
      "duration": 0.0817,
      "velocity": 108,
      "chip": "ym2612"
    },
    {
      "channel": 2,
      "note": 49,
      "start": 71.3535,
      "duration": 0.0095,
      "velocity": 111,
      "chip": "ym2612"
    },
    {
      "channel": 3,
      "note": 61,
      "start": 71.3588,
      "duration": 0.0467,
      "velocity": 127,
      "chip": "ym2612"
    },
    {
      "channel": 4,
      "note": 59,
      "start": 71.3661,
      "duration": 0.0824,
      "velocity": 111,
      "chip": "ym2612"
    },
    {
      "channel": 5,
      "note": 54,
      "start": 71.3677,
      "duration": 0.0809,
      "velocity": 111,
      "chip": "ym2612"
    },
    {
      "channel": 0,
      "note": 52,
      "start": 71.4641,
      "duration": 0.1957,
      "velocity": 111,
      "chip": "ym2612"
    },
    {
      "channel": 1,
      "note": 52,
      "start": 71.4661,
      "duration": 0.1939,
      "velocity": 108,
      "chip": "ym2612"
    },
    {
      "channel": 2,
      "note": 47,
      "start": 71.4679,
      "duration": 0.1923,
      "velocity": 111,
      "chip": "ym2612"
    },
    {
      "channel": 3,
      "note": 61,
      "start": 71.4733,
      "duration": 0.0454,
      "velocity": 127,
      "chip": "ym2612"
    },
    {
      "channel": 4,
      "note": 54,
      "start": 71.4784,
      "duration": 0.0121,
      "velocity": 111,
      "chip": "ym2612"
    },
    {
      "channel": 5,
      "note": 49,
      "start": 71.4809,
      "duration": 0.0097,
      "velocity": 111,
      "chip": "ym2612"
    },
    {
      "channel": 4,
      "note": 52,
      "start": 71.5915,
      "duration": 0.1964,
      "velocity": 111,
      "chip": "ym2612"
    },
    {
      "channel": 5,
      "note": 47,
      "start": 71.5932,
      "duration": 0.1949,
      "velocity": 111,
      "chip": "ym2612"
    },
    {
      "channel": 0,
      "note": 54,
      "start": 71.6895,
      "duration": 0.0134,
      "velocity": 111,
      "chip": "ym2612"
    },
    {
      "channel": 1,
      "note": 54,
      "start": 71.6912,
      "duration": 0.0119,
      "velocity": 108,
      "chip": "ym2612"
    },
    {
      "channel": 2,
      "note": 49,
      "start": 71.6929,
      "duration": 0.0104,
      "velocity": 111,
      "chip": "ym2612"
    },
    {
      "channel": 3,
      "note": 61,
      "start": 71.695,
      "duration": 0.0501,
      "velocity": 127,
      "chip": "ym2612"
    },
    {
      "channel": 0,
      "note": 66,
      "start": 71.8027,
      "duration": 0.1966,
      "velocity": 111,
      "chip": "ym2612"
    },
    {
      "channel": 1,
      "note": 54,
      "start": 71.8043,
      "duration": 0.0819,
      "velocity": 108,
      "chip": "ym2612"
    },
    {
      "channel": 2,
      "note": 61,
      "start": 71.806,
      "duration": 0.1936,
      "velocity": 111,
      "chip": "ym2612"
    },
    {
      "channel": 3,
      "note": 61,
      "start": 71.8113,
      "duration": 0.0469,
      "velocity": 127,
      "chip": "ym2612"
    },
    {
      "channel": 4,
      "note": 54,
      "start": 71.8177,
      "duration": 0.0132,
      "velocity": 111,
      "chip": "ym2612"
    },
    {
      "channel": 5,
      "note": 49,
      "start": 71.8193,
      "duration": 0.0117,
      "velocity": 111,
      "chip": "ym2612"
    },
    {
      "channel": 1,
      "note": 54,
      "start": 71.9159,
      "duration": 0.0127,
      "velocity": 108,
      "chip": "ym2612"
    },
    {
      "channel": 4,
      "note": 66,
      "start": 71.9317,
      "duration": 0.1957,
      "velocity": 111,
      "chip": "ym2612"
    },
    {
      "channel": 5,
      "note": 61,
      "start": 71.9334,
      "duration": 0.1941,
      "velocity": 111,
      "chip": "ym2612"
    },
    {
      "channel": 0,
      "note": 54,
      "start": 72.029,
      "duration": 0.0127,
      "velocity": 111,
      "chip": "ym2612"
    },
    {
      "channel": 1,
      "note": 54,
      "start": 72.0315,
      "duration": 0.081,
      "velocity": 108,
      "chip": "ym2612"
    },
    {
      "channel": 2,
      "note": 49,
      "start": 72.0331,
      "duration": 0.0088,
      "velocity": 111,
      "chip": "ym2612"
    },
    {
      "channel": 3,
      "note": 61,
      "start": 72.0385,
      "duration": 0.0461,
      "velocity": 127,
      "chip": "ym2612"
    },
    {
      "channel": 0,
      "note": 64,
      "start": 72.1421,
      "duration": 0.0834,
      "velocity": 111,
      "chip": "ym2612"
    },
    {
      "channel": 1,
      "note": 54,
      "start": 72.1439,
      "duration": 0.0818,
      "velocity": 108,
      "chip": "ym2612"
    },
    {
      "channel": 2,
      "note": 59,
      "start": 72.1456,
      "duration": 0.0803,
      "velocity": 111,
      "chip": "ym2612"
    },
    {
      "channel": 3,
      "note": 61,
      "start": 72.1519,
      "duration": 0.0468,
      "velocity": 127,
      "chip": "ym2612"
    },
    {
      "channel": 4,
      "note": 54,
      "start": 72.1572,
      "duration": 0.0122,
      "velocity": 111,
      "chip": "ym2612"
    },
    {
      "channel": 5,
      "note": 49,
      "start": 72.1588,
      "duration": 0.0107,
      "velocity": 111,
      "chip": "ym2612"
    },
    {
      "channel": 0,
      "note": 54,
      "start": 72.2553,
      "duration": 0.0127,
      "velocity": 111,
      "chip": "ym2612"
    },
    {
      "channel": 1,
      "note": 54,
      "start": 72.2571,
      "duration": 0.0817,
      "velocity": 108,
      "chip": "ym2612"
    },
    {
      "channel": 2,
      "note": 49,
      "start": 72.2588,
      "duration": 0.0095,
      "velocity": 111,
      "chip": "ym2612"
    },
    {
      "channel": 4,
      "note": 64,
      "start": 72.2705,
      "duration": 0.0832,
      "velocity": 111,
      "chip": "ym2612"
    },
    {
      "channel": 5,
      "note": 59,
      "start": 72.2722,
      "duration": 0.0817,
      "velocity": 111,
      "chip": "ym2612"
    },
    {
      "channel": 0,
      "note": 61,
      "start": 72.3691,
      "duration": 0.0828,
      "velocity": 111,
      "chip": "ym2612"
    },
    {
      "channel": 1,
      "note": 54,
      "start": 72.3709,
      "duration": 0.0812,
      "velocity": 108,
      "chip": "ym2612"
    },
    {
      "channel": 2,
      "note": 56,
      "start": 72.3726,
      "duration": 0.0797,
      "velocity": 111,
      "chip": "ym2612"
    },
    {
      "channel": 3,
      "note": 61,
      "start": 72.3747,
      "duration": 0.0493,
      "velocity": 127,
      "chip": "ym2612"
    },
    {
      "channel": 4,
      "note": 54,
      "start": 72.384,
      "duration": 0.0118,
      "velocity": 111,
      "chip": "ym2612"
    },
    {
      "channel": 5,
      "note": 49,
      "start": 72.3856,
      "duration": 0.0103,
      "velocity": 111,
      "chip": "ym2612"
    },
    {
      "channel": 0,
      "note": 54,
      "start": 72.4823,
      "duration": 0.012,
      "velocity": 111,
      "chip": "ym2612"
    },
    {
      "channel": 1,
      "note": 54,
      "start": 72.4841,
      "duration": 0.081,
      "velocity": 108,
      "chip": "ym2612"
    },
    {
      "channel": 2,
      "note": 49,
      "start": 72.4858,
      "duration": 0.0088,
      "velocity": 111,
      "chip": "ym2612"
    },
    {
      "channel": 3,
      "note": 61,
      "start": 72.4911,
      "duration": 0.0464,
      "velocity": 127,
      "chip": "ym2612"
    },
    {
      "channel": 4,
      "note": 61,
      "start": 72.4977,
      "duration": 0.0831,
      "velocity": 111,
      "chip": "ym2612"
    },
    {
      "channel": 5,
      "note": 56,
      "start": 72.4994,
      "duration": 0.0817,
      "velocity": 111,
      "chip": "ym2612"
    },
    {
      "channel": 0,
      "note": 59,
      "start": 72.5948,
      "duration": 0.0834,
      "velocity": 111,
      "chip": "ym2612"
    },
    {
      "channel": 1,
      "note": 54,
      "start": 72.5974,
      "duration": 0.081,
      "velocity": 108,
      "chip": "ym2612"
    },
    {
      "channel": 2,
      "note": 54,
      "start": 72.5991,
      "duration": 0.0795,
      "velocity": 111,
      "chip": "ym2612"
    },
    {
      "channel": 4,
      "note": 54,
      "start": 72.6097,
      "duration": 0.0127,
      "velocity": 111,
      "chip": "ym2612"
    },
    {
      "channel": 5,
      "note": 49,
      "start": 72.6115,
      "duration": 0.0112,
      "velocity": 111,
      "chip": "ym2612"
    },
    {
      "channel": 0,
      "note": 54,
      "start": 72.708,
      "duration": 0.0126,
      "velocity": 111,
      "chip": "ym2612"
    },
    {
      "channel": 1,
      "note": 54,
      "start": 72.7098,
      "duration": 0.0816,
      "velocity": 108,
      "chip": "ym2612"
    },
    {
      "channel": 2,
      "note": 49,
      "start": 72.7115,
      "duration": 0.0094,
      "velocity": 111,
      "chip": "ym2612"
    },
    {
      "channel": 3,
      "note": 61,
      "start": 72.7176,
      "duration": 0.0468,
      "velocity": 127,
      "chip": "ym2612"
    },
    {
      "channel": 4,
      "note": 59,
      "start": 72.7232,
      "duration": 0.0832,
      "velocity": 111,
      "chip": "ym2612"
    },
    {
      "channel": 5,
      "note": 54,
      "start": 72.7249,
      "duration": 0.0817,
      "velocity": 111,
      "chip": "ym2612"
    },
    {
      "channel": 0,
      "note": 52,
      "start": 72.8212,
      "duration": 0.1964,
      "velocity": 111,
      "chip": "ym2612"
    },
    {
      "channel": 1,
      "note": 52,
      "start": 72.8232,
      "duration": 0.1947,
      "velocity": 108,
      "chip": "ym2612"
    },
    {
      "channel": 2,
      "note": 47,
      "start": 72.8249,
      "duration": 0.1931,
      "velocity": 111,
      "chip": "ym2612"
    },
    {
      "channel": 3,
      "note": 61,
      "start": 72.8312,
      "duration": 0.0454,
      "velocity": 127,
      "chip": "ym2612"
    },
    {
      "channel": 4,
      "note": 54,
      "start": 72.8363,
      "duration": 0.012,
      "velocity": 111,
      "chip": "ym2612"
    },
    {
      "channel": 5,
      "note": 49,
      "start": 72.838,
      "duration": 0.0106,
      "velocity": 111,
      "chip": "ym2612"
    },
    {
      "channel": 4,
      "note": 52,
      "start": 72.95,
      "duration": 0.1958,
      "velocity": 111,
      "chip": "ym2612"
    },
    {
      "channel": 5,
      "note": 47,
      "start": 72.9518,
      "duration": 0.1943,
      "velocity": 111,
      "chip": "ym2612"
    },
    {
      "channel": 0,
      "note": 54,
      "start": 73.0482,
      "duration": 0.0119,
      "velocity": 111,
      "chip": "ym2612"
    },
    {
      "channel": 1,
      "note": 54,
      "start": 73.0499,
      "duration": 0.0104,
      "velocity": 108,
      "chip": "ym2612"
    },
    {
      "channel": 2,
      "note": 49,
      "start": 73.0516,
      "duration": 0.0089,
      "velocity": 111,
      "chip": "ym2612"
    },
    {
      "channel": 3,
      "note": 61,
      "start": 73.0537,
      "duration": 0.0493,
      "velocity": 127,
      "chip": "ym2612"
    },
    {
      "channel": 0,
      "note": 66,
      "start": 73.1605,
      "duration": 0.1966,
      "velocity": 111,
      "chip": "ym2612"
    },
    {
      "channel": 1,
      "note": 54,
      "start": 73.1622,
      "duration": 0.0819,
      "velocity": 108,
      "chip": "ym2612"
    },
    {
      "channel": 2,
      "note": 61,
      "start": 73.1647,
      "duration": 0.1927,
      "velocity": 111,
      "chip": "ym2612"
    },
    {
      "channel": 3,
      "note": 61,
      "start": 73.17,
      "duration": 0.0461,
      "velocity": 127,
      "chip": "ym2612"
    },
    {
      "channel": 4,
      "note": 54,
      "start": 73.1756,
      "duration": 0.0123,
      "velocity": 111,
      "chip": "ym2612"
    },
    {
      "channel": 5,
      "note": 49,
      "start": 73.1773,
      "duration": 0.0107,
      "velocity": 111,
      "chip": "ym2612"
    },
    {
      "channel": 1,
      "note": 54,
      "start": 73.2739,
      "duration": 0.0127,
      "velocity": 108,
      "chip": "ym2612"
    },
    {
      "channel": 4,
      "note": 66,
      "start": 73.2889,
      "duration": 0.1964,
      "velocity": 111,
      "chip": "ym2612"
    },
    {
      "channel": 5,
      "note": 61,
      "start": 73.2905,
      "duration": 0.195,
      "velocity": 111,
      "chip": "ym2612"
    },
    {
      "channel": 0,
      "note": 54,
      "start": 73.3869,
      "duration": 0.0127,
      "velocity": 111,
      "chip": "ym2612"
    },
    {
      "channel": 1,
      "note": 54,
      "start": 73.3885,
      "duration": 0.0819,
      "velocity": 108,
      "chip": "ym2612"
    },
    {
      "channel": 2,
      "note": 49,
      "start": 73.3902,
      "duration": 0.0097,
      "velocity": 111,
      "chip": "ym2612"
    },
    {
      "channel": 3,
      "note": 61,
      "start": 73.3955,
      "duration": 0.047,
      "velocity": 127,
      "chip": "ym2612"
    },
    {
      "channel": 0,
      "note": 64,
      "start": 73.5,
      "duration": 0.0834,
      "velocity": 111,
      "chip": "ym2612"
    },
    {
      "channel": 1,
      "note": 54,
      "start": 73.5018,
      "duration": 0.0818,
      "velocity": 108,
      "chip": "ym2612"
    },
    {
      "channel": 2,
      "note": 59,
      "start": 73.5035,
      "duration": 0.0804,
      "velocity": 111,
      "chip": "ym2612"
    },
    {
      "channel": 3,
      "note": 61,
      "start": 73.509,
      "duration": 0.0466,
      "velocity": 127,
      "chip": "ym2612"
    },
    {
      "channel": 4,
      "note": 54,
      "start": 73.5159,
      "duration": 0.0115,
      "velocity": 111,
      "chip": "ym2612"
    },
    {
      "channel": 5,
      "note": 49,
      "start": 73.5176,
      "duration": 0.01,
      "velocity": 111,
      "chip": "ym2612"
    },
    {
      "channel": 0,
      "note": 54,
      "start": 73.614,
      "duration": 0.0119,
      "velocity": 111,
      "chip": "ym2612"
    },
    {
      "channel": 1,
      "note": 54,
      "start": 73.6158,
      "duration": 0.0824,
      "velocity": 108,
      "chip": "ym2612"
    },
    {
      "channel": 2,
      "note": 49,
      "start": 73.6175,
      "duration": 0.0087,
      "velocity": 111,
      "chip": "ym2612"
    },
    {
      "channel": 4,
      "note": 64,
      "start": 73.6284,
      "duration": 0.0832,
      "velocity": 111,
      "chip": "ym2612"
    },
    {
      "channel": 5,
      "note": 59,
      "start": 73.6309,
      "duration": 0.0809,
      "velocity": 111,
      "chip": "ym2612"
    },
    {
      "channel": 0,
      "note": 61,
      "start": 73.7263,
      "duration": 0.0835,
      "velocity": 111,
      "chip": "ym2612"
    },
    {
      "channel": 1,
      "note": 54,
      "start": 73.7282,
      "duration": 0.0818,
      "velocity": 108,
      "chip": "ym2612"
    },
    {
      "channel": 2,
      "note": 56,
      "start": 73.7306,
      "duration": 0.0796,
      "velocity": 111,
      "chip": "ym2612"
    },
    {
      "channel": 3,
      "note": 61,
      "start": 73.7327,
      "duration": 0.0491,
      "velocity": 127,
      "chip": "ym2612"
    },
    {
      "channel": 4,
      "note": 54,
      "start": 73.7413,
      "duration": 0.0123,
      "velocity": 111,
      "chip": "ym2612"
    },
    {
      "channel": 5,
      "note": 49,
      "start": 73.7431,
      "duration": 0.0107,
      "velocity": 111,
      "chip": "ym2612"
    },
    {
      "channel": 0,
      "note": 54,
      "start": 73.8395,
      "duration": 0.0127,
      "velocity": 111,
      "chip": "ym2612"
    },
    {
      "channel": 1,
      "note": 54,
      "start": 73.8413,
      "duration": 0.0817,
      "velocity": 108,
      "chip": "ym2612"
    },
    {
      "channel": 2,
      "note": 49,
      "start": 73.843,
      "duration": 0.0095,
      "velocity": 111,
      "chip": "ym2612"
    },
    {
      "channel": 3,
      "note": 61,
      "start": 73.8491,
      "duration": 0.0459,
      "velocity": 127,
      "chip": "ym2612"
    },
    {
      "channel": 4,
      "note": 61,
      "start": 73.8548,
      "duration": 0.0832,
      "velocity": 111,
      "chip": "ym2612"
    },
    {
      "channel": 5,
      "note": 56,
      "start": 73.8564,
      "duration": 0.0817,
      "velocity": 111,
      "chip": "ym2612"
    },
    {
      "channel": 0,
      "note": 59,
      "start": 73.9527,
      "duration": 0.0835,
      "velocity": 111,
      "chip": "ym2612"
    },
    {
      "channel": 1,
      "note": 54,
      "start": 73.9544,
      "duration": 0.0819,
      "velocity": 108,
      "chip": "ym2612"
    },
    {
      "channel": 2,
      "note": 54,
      "start": 73.9562,
      "duration": 0.0804,
      "velocity": 111,
      "chip": "ym2612"
    },
    {
      "channel": 4,
      "note": 54,
      "start": 73.9677,
      "duration": 0.0136,
      "velocity": 111,
      "chip": "ym2612"
    },
    {
      "channel": 5,
      "note": 49,
      "start": 73.9693,
      "duration": 0.0121,
      "velocity": 111,
      "chip": "ym2612"
    },
    {
      "channel": 0,
      "note": 54,
      "start": 74.0658,
      "duration": 0.0127,
      "velocity": 111,
      "chip": "ym2612"
    },
    {
      "channel": 1,
      "note": 54,
      "start": 74.0676,
      "duration": 0.0817,
      "velocity": 108,
      "chip": "ym2612"
    },
    {
      "channel": 2,
      "note": 49,
      "start": 74.0693,
      "duration": 0.0095,
      "velocity": 111,
      "chip": "ym2612"
    },
    {
      "channel": 3,
      "note": 61,
      "start": 74.0746,
      "duration": 0.0468,
      "velocity": 127,
      "chip": "ym2612"
    },
    {
      "channel": 4,
      "note": 59,
      "start": 74.0819,
      "duration": 0.0831,
      "velocity": 111,
      "chip": "ym2612"
    },
    {
      "channel": 5,
      "note": 54,
      "start": 74.0836,
      "duration": 0.0817,
      "velocity": 111,
      "chip": "ym2612"
    },
    {
      "channel": 0,
      "note": 54,
      "start": 74.1794,
      "duration": 0.6629,
      "velocity": 111,
      "chip": "ym2612"
    },
    {
      "channel": 1,
      "note": 54,
      "start": 74.1824,
      "duration": 0.0942,
      "velocity": 108,
      "chip": "ym2612"
    },
    {
      "channel": 2,
      "note": 49,
      "start": 74.1845,
      "duration": 0.6582,
      "velocity": 111,
      "chip": "ym2612"
    },
    {
      "channel": 3,
      "note": 61,
      "start": 74.1902,
      "duration": 0.0584,
      "velocity": 127,
      "chip": "ym2612"
    },
    {
      "channel": 4,
      "note": 54,
      "start": 74.2081,
      "duration": 0.0123,
      "velocity": 111,
      "chip": "ym2612"
    },
    {
      "channel": 5,
      "note": 49,
      "start": 74.2098,
      "duration": 0.0108,
      "velocity": 111,
      "chip": "ym2612"
    },
    {
      "channel": 1,
      "note": 54,
      "start": 74.3064,
      "duration": 0.0127,
      "velocity": 108,
      "chip": "ym2612"
    },
    {
      "channel": 3,
      "note": 61,
      "start": 74.3118,
      "duration": 0.0361,
      "velocity": 127,
      "chip": "ym2612"
    },
    {
      "channel": 4,
      "note": 54,
      "start": 74.3218,
      "duration": 0.6487,
      "velocity": 111,
      "chip": "ym2612"
    },
    {
      "channel": 5,
      "note": 49,
      "start": 74.3239,
      "duration": 0.6468,
      "velocity": 111,
      "chip": "ym2612"
    },
    {
      "channel": 3,
      "note": 61,
      "start": 74.3651,
      "duration": 0.0392,
      "velocity": 127,
      "chip": "ym2612"
    },
    {
      "channel": 1,
      "note": 54,
      "start": 74.4195,
      "duration": 0.0127,
      "velocity": 108,
      "chip": "ym2612"
    },
    {
      "channel": 3,
      "note": 61,
      "start": 74.4219,
      "duration": 0.0531,
      "velocity": 127,
      "chip": "ym2612"
    },
    {
      "channel": 1,
      "note": 66,
      "start": 74.5333,
      "duration": 0.0829,
      "velocity": 108,
      "chip": "ym2612"
    },
    {
      "channel": 3,
      "note": 61,
      "start": 74.5356,
      "duration": 0.0525,
      "velocity": 127,
      "chip": "ym2612"
    },
    {
      "channel": 1,
      "note": 54,
      "start": 74.6459,
      "duration": 0.0127,
      "velocity": 108,
      "chip": "ym2612"
    },
    {
      "channel": 3,
      "note": 61,
      "start": 74.6491,
      "duration": 0.0523,
      "velocity": 127,
      "chip": "ym2612"
    },
    {
      "channel": 1,
      "note": 66,
      "start": 74.759,
      "duration": 0.0835,
      "velocity": 108,
      "chip": "ym2612"
    },
    {
      "channel": 3,
      "note": 61,
      "start": 74.7614,
      "duration": 0.0532,
      "velocity": 127,
      "chip": "ym2612"
    },
    {
      "channel": 0,
      "note": 55,
      "start": 74.8721,
      "duration": 0.6492,
      "velocity": 111,
      "chip": "ym2612"
    },
    {
      "channel": 1,
      "note": 55,
      "start": 74.8737,
      "duration": 0.0819,
      "velocity": 108,
      "chip": "ym2612"
    },
    {
      "channel": 2,
      "note": 50,
      "start": 74.8754,
      "duration": 0.6464,
      "velocity": 111,
      "chip": "ym2612"
    },
    {
      "channel": 3,
      "note": 61,
      "start": 74.8777,
      "duration": 0.0499,
      "velocity": 127,
      "chip": "ym2612"
    },
    {
      "channel": 1,
      "note": 55,
      "start": 74.9854,
      "duration": 0.0127,
      "velocity": 108,
      "chip": "ym2612"
    },
    {
      "channel": 3,
      "note": 61,
      "start": 74.9877,
      "duration": 0.0531,
      "velocity": 127,
      "chip": "ym2612"
    },
    {
      "channel": 4,
      "note": 55,
      "start": 75.0004,
      "duration": 0.6641,
      "velocity": 111,
      "chip": "ym2612"
    },
    {
      "channel": 5,
      "note": 50,
      "start": 75.002,
      "duration": 0.6626,
      "velocity": 111,
      "chip": "ym2612"
    },
    {
      "channel": 1,
      "note": 55,
      "start": 75.0991,
      "duration": 0.0121,
      "velocity": 108,
      "chip": "ym2612"
    },
    {
      "channel": 3,
      "note": 61,
      "start": 75.1015,
      "duration": 0.0525,
      "velocity": 127,
      "chip": "ym2612"
    },
    {
      "channel": 1,
      "note": 67,
      "start": 75.2116,
      "duration": 0.0835,
      "velocity": 108,
      "chip": "ym2612"
    },
    {
      "channel": 3,
      "note": 61,
      "start": 75.2148,
      "duration": 0.0523,
      "velocity": 127,
      "chip": "ym2612"
    },
    {
      "channel": 1,
      "note": 55,
      "start": 75.3249,
      "duration": 0.0127,
      "velocity": 108,
      "chip": "ym2612"
    },
    {
      "channel": 1,
      "note": 67,
      "start": 75.438,
      "duration": 0.0835,
      "velocity": 108,
      "chip": "ym2612"
    },
    {
      "channel": 3,
      "note": 61,
      "start": 75.4402,
      "duration": 0.0532,
      "velocity": 127,
      "chip": "ym2612"
    },
    {
      "channel": 0,
      "note": 54,
      "start": 75.5516,
      "duration": 0.2102,
      "velocity": 111,
      "chip": "ym2612"
    },
    {
      "channel": 1,
      "note": 54,
      "start": 75.5537,
      "duration": 0.2082,
      "velocity": 108,
      "chip": "ym2612"
    },
    {
      "channel": 2,
      "note": 49,
      "start": 75.556,
      "duration": 0.2062,
      "velocity": 111,
      "chip": "ym2612"
    },
    {
      "channel": 3,
      "note": 61,
      "start": 75.5617,
      "duration": 0.059,
      "velocity": 127,
      "chip": "ym2612"
    },
    {
      "channel": 4,
      "note": 54,
      "start": 75.6945,
      "duration": 0.1955,
      "velocity": 111,
      "chip": "ym2612"
    },
    {
      "channel": 5,
      "note": 49,
      "start": 75.6975,
      "duration": 0.1926,
      "velocity": 111,
      "chip": "ym2612"
    },
    {
      "channel": 0,
      "note": 56,
      "start": 75.7915,
      "duration": 0.0127,
      "velocity": 111,
      "chip": "ym2612"
    },
    {
      "channel": 1,
      "note": 56,
      "start": 75.7932,
      "duration": 0.0112,
      "velocity": 108,
      "chip": "ym2612"
    },
    {
      "channel": 2,
      "note": 51,
      "start": 75.7948,
      "duration": 0.0098,
      "velocity": 111,
      "chip": "ym2612"
    },
    {
      "channel": 3,
      "note": 61,
      "start": 75.7978,
      "duration": 0.0509,
      "velocity": 127,
      "chip": "ym2612"
    },
    {
      "channel": 0,
      "note": 68,
      "start": 75.9047,
      "duration": 0.1966,
      "velocity": 111,
      "chip": "ym2612"
    },
    {
      "channel": 1,
      "note": 56,
      "start": 75.9063,
      "duration": 0.0818,
      "velocity": 108,
      "chip": "ym2612"
    },
    {
      "channel": 2,
      "note": 63,
      "start": 75.908,
      "duration": 0.1935,
      "velocity": 111,
      "chip": "ym2612"
    },
    {
      "channel": 3,
      "note": 61,
      "start": 75.9142,
      "duration": 0.046,
      "velocity": 127,
      "chip": "ym2612"
    },
    {
      "channel": 4,
      "note": 56,
      "start": 75.9196,
      "duration": 0.0123,
      "velocity": 111,
      "chip": "ym2612"
    },
    {
      "channel": 5,
      "note": 51,
      "start": 75.9214,
      "duration": 0.0108,
      "velocity": 111,
      "chip": "ym2612"
    },
    {
      "channel": 1,
      "note": 56,
      "start": 76.0179,
      "duration": 0.0136,
      "velocity": 108,
      "chip": "ym2612"
    },
    {
      "channel": 4,
      "note": 68,
      "start": 76.0338,
      "duration": 0.1956,
      "velocity": 111,
      "chip": "ym2612"
    },
    {
      "channel": 5,
      "note": 63,
      "start": 76.0356,
      "duration": 0.1941,
      "velocity": 111,
      "chip": "ym2612"
    },
    {
      "channel": 0,
      "note": 56,
      "start": 76.1318,
      "duration": 0.0119,
      "velocity": 111,
      "chip": "ym2612"
    },
    {
      "channel": 1,
      "note": 56,
      "start": 76.1335,
      "duration": 0.081,
      "velocity": 108,
      "chip": "ym2612"
    },
    {
      "channel": 2,
      "note": 51,
      "start": 76.1352,
      "duration": 0.0088,
      "velocity": 111,
      "chip": "ym2612"
    },
    {
      "channel": 3,
      "note": 61,
      "start": 76.1405,
      "duration": 0.0461,
      "velocity": 127,
      "chip": "ym2612"
    },
    {
      "channel": 0,
      "note": 66,
      "start": 76.2441,
      "duration": 0.0834,
      "velocity": 111,
      "chip": "ym2612"
    },
    {
      "channel": 1,
      "note": 56,
      "start": 76.246,
      "duration": 0.0817,
      "velocity": 108,
      "chip": "ym2612"
    },
    {
      "channel": 2,
      "note": 61,
      "start": 76.2485,
      "duration": 0.0795,
      "velocity": 111,
      "chip": "ym2612"
    },
    {
      "channel": 3,
      "note": 61,
      "start": 76.2539,
      "duration": 0.0457,
      "velocity": 127,
      "chip": "ym2612"
    },
    {
      "channel": 4,
      "note": 56,
      "start": 76.2592,
      "duration": 0.0123,
      "velocity": 111,
      "chip": "ym2612"
    },
    {
      "channel": 5,
      "note": 51,
      "start": 76.2609,
      "duration": 0.0107,
      "velocity": 111,
      "chip": "ym2612"
    },
    {
      "channel": 0,
      "note": 56,
      "start": 76.3578,
      "duration": 0.0121,
      "velocity": 111,
      "chip": "ym2612"
    },
    {
      "channel": 1,
      "note": 56,
      "start": 76.3597,
      "duration": 0.0812,
      "velocity": 108,
      "chip": "ym2612"
    },
    {
      "channel": 2,
      "note": 51,
      "start": 76.3613,
      "duration": 0.009,
      "velocity": 111,
      "chip": "ym2612"
    },
    {
      "channel": 4,
      "note": 66,
      "start": 76.3725,
      "duration": 0.0832,
      "velocity": 111,
      "chip": "ym2612"
    },
    {
      "channel": 5,
      "note": 61,
      "start": 76.3742,
      "duration": 0.0817,
      "velocity": 111,
      "chip": "ym2612"
    },
    {
      "channel": 0,
      "note": 63,
      "start": 76.4705,
      "duration": 0.0834,
      "velocity": 111,
      "chip": "ym2612"
    },
    {
      "channel": 1,
      "note": 56,
      "start": 76.4722,
      "duration": 0.0818,
      "velocity": 108,
      "chip": "ym2612"
    },
    {
      "channel": 2,
      "note": 58,
      "start": 76.474,
      "duration": 0.0803,
      "velocity": 111,
      "chip": "ym2612"
    },
    {
      "channel": 3,
      "note": 61,
      "start": 76.4761,
      "duration": 0.0502,
      "velocity": 127,
      "chip": "ym2612"
    },
    {
      "channel": 4,
      "note": 56,
      "start": 76.4855,
      "duration": 0.0125,
      "velocity": 111,
      "chip": "ym2612"
    },
    {
      "channel": 5,
      "note": 51,
      "start": 76.4871,
      "duration": 0.011,
      "velocity": 111,
      "chip": "ym2612"
    },
    {
      "channel": 0,
      "note": 56,
      "start": 76.5837,
      "duration": 0.0127,
      "velocity": 111,
      "chip": "ym2612"
    },
    {
      "channel": 1,
      "note": 56,
      "start": 76.5854,
      "duration": 0.0817,
      "velocity": 108,
      "chip": "ym2612"
    },
    {
      "channel": 2,
      "note": 51,
      "start": 76.5871,
      "duration": 0.0104,
      "velocity": 111,
      "chip": "ym2612"
    },
    {
      "channel": 3,
      "note": 61,
      "start": 76.5924,
      "duration": 0.0468,
      "velocity": 127,
      "chip": "ym2612"
    },
    {
      "channel": 4,
      "note": 63,
      "start": 76.5998,
      "duration": 0.0822,
      "velocity": 111,
      "chip": "ym2612"
    },
    {
      "channel": 5,
      "note": 58,
      "start": 76.6015,
      "duration": 0.0808,
      "velocity": 111,
      "chip": "ym2612"
    },
    {
      "channel": 0,
      "note": 61,
      "start": 76.6976,
      "duration": 0.0833,
      "velocity": 111,
      "chip": "ym2612"
    },
    {
      "channel": 1,
      "note": 56,
      "start": 76.6994,
      "duration": 0.0817,
      "velocity": 108,
      "chip": "ym2612"
    },
    {
      "channel": 2,
      "note": 56,
      "start": 76.7011,
      "duration": 0.0802,
      "velocity": 111,
      "chip": "ym2612"
    },
    {
      "channel": 4,
      "note": 56,
      "start": 76.7118,
      "duration": 0.0127,
      "velocity": 111,
      "chip": "ym2612"
    },
    {
      "channel": 5,
      "note": 51,
      "start": 76.7143,
      "duration": 0.0104,
      "velocity": 111,
      "chip": "ym2612"
    },
    {
      "channel": 0,
      "note": 56,
      "start": 76.81,
      "duration": 0.0127,
      "velocity": 111,
      "chip": "ym2612"
    },
    {
      "channel": 1,
      "note": 56,
      "start": 76.8118,
      "duration": 0.0817,
      "velocity": 108,
      "chip": "ym2612"
    },
    {
      "channel": 2,
      "note": 51,
      "start": 76.8142,
      "duration": 0.0087,
      "velocity": 111,
      "chip": "ym2612"
    },
    {
      "channel": 3,
      "note": 61,
      "start": 76.8196,
      "duration": 0.0459,
      "velocity": 127,
      "chip": "ym2612"
    },
    {
      "channel": 4,
      "note": 61,
      "start": 76.8252,
      "duration": 0.0831,
      "velocity": 111,
      "chip": "ym2612"
    },
    {
      "channel": 5,
      "note": 56,
      "start": 76.8268,
      "duration": 0.0817,
      "velocity": 111,
      "chip": "ym2612"
    },
    {
      "channel": 0,
      "note": 54,
      "start": 76.9232,
      "duration": 0.1964,
      "velocity": 111,
      "chip": "ym2612"
    },
    {
      "channel": 1,
      "note": 54,
      "start": 76.9252,
      "duration": 0.1947,
      "velocity": 108,
      "chip": "ym2612"
    },
    {
      "channel": 2,
      "note": 49,
      "start": 76.927,
      "duration": 0.1931,
      "velocity": 111,
      "chip": "ym2612"
    },
    {
      "channel": 3,
      "note": 61,
      "start": 76.9333,
      "duration": 0.0454,
      "velocity": 127,
      "chip": "ym2612"
    },
    {
      "channel": 4,
      "note": 56,
      "start": 76.9383,
      "duration": 0.0121,
      "velocity": 111,
      "chip": "ym2612"
    },
    {
      "channel": 5,
      "note": 51,
      "start": 76.94,
      "duration": 0.0106,
      "velocity": 111,
      "chip": "ym2612"
    },
    {
      "channel": 4,
      "note": 54,
      "start": 77.0514,
      "duration": 0.197,
      "velocity": 111,
      "chip": "ym2612"
    },
    {
      "channel": 5,
      "note": 49,
      "start": 77.0532,
      "duration": 0.1954,
      "velocity": 111,
      "chip": "ym2612"
    },
    {
      "channel": 0,
      "note": 56,
      "start": 77.1494,
      "duration": 0.0127,
      "velocity": 111,
      "chip": "ym2612"
    },
    {
      "channel": 1,
      "note": 56,
      "start": 77.1511,
      "duration": 0.0113,
      "velocity": 108,
      "chip": "ym2612"
    },
    {
      "channel": 2,
      "note": 51,
      "start": 77.1528,
      "duration": 0.0097,
      "velocity": 111,
      "chip": "ym2612"
    },
    {
      "channel": 3,
      "note": 61,
      "start": 77.1549,
      "duration": 0.05,
      "velocity": 127,
      "chip": "ym2612"
    },
    {
      "channel": 0,
      "note": 68,
      "start": 77.2626,
      "duration": 0.1966,
      "velocity": 111,
      "chip": "ym2612"
    },
    {
      "channel": 1,
      "note": 56,
      "start": 77.2651,
      "duration": 0.081,
      "velocity": 108,
      "chip": "ym2612"
    },
    {
      "channel": 2,
      "note": 63,
      "start": 77.2667,
      "duration": 0.1928,
      "velocity": 111,
      "chip": "ym2612"
    },
    {
      "channel": 3,
      "note": 61,
      "start": 77.2721,
      "duration": 0.0461,
      "velocity": 127,
      "chip": "ym2612"
    },
    {
      "channel": 4,
      "note": 56,
      "start": 77.2776,
      "duration": 0.0123,
      "velocity": 111,
      "chip": "ym2612"
    },
    {
      "channel": 5,
      "note": 51,
      "start": 77.2793,
      "duration": 0.0108,
      "velocity": 111,
      "chip": "ym2612"
    },
    {
      "channel": 1,
      "note": 56,
      "start": 77.3758,
      "duration": 0.0127,
      "velocity": 108,
      "chip": "ym2612"
    },
    {
      "channel": 4,
      "note": 68,
      "start": 77.3908,
      "duration": 0.1965,
      "velocity": 111,
      "chip": "ym2612"
    },
    {
      "channel": 5,
      "note": 63,
      "start": 77.3925,
      "duration": 0.195,
      "velocity": 111,
      "chip": "ym2612"
    },
    {
      "channel": 0,
      "note": 56,
      "start": 77.4889,
      "duration": 0.0127,
      "velocity": 111,
      "chip": "ym2612"
    },
    {
      "channel": 1,
      "note": 56,
      "start": 77.4905,
      "duration": 0.0819,
      "velocity": 108,
      "chip": "ym2612"
    },
    {
      "channel": 2,
      "note": 51,
      "start": 77.4922,
      "duration": 0.0097,
      "velocity": 111,
      "chip": "ym2612"
    },
    {
      "channel": 3,
      "note": 61,
      "start": 77.4983,
      "duration": 0.0461,
      "velocity": 127,
      "chip": "ym2612"
    },
    {
      "channel": 0,
      "note": 66,
      "start": 77.602,
      "duration": 0.084,
      "velocity": 111,
      "chip": "ym2612"
    },
    {
      "channel": 1,
      "note": 56,
      "start": 77.6039,
      "duration": 0.0823,
      "velocity": 108,
      "chip": "ym2612"
    },
    {
      "channel": 2,
      "note": 61,
      "start": 77.6055,
      "duration": 0.0808,
      "velocity": 111,
      "chip": "ym2612"
    },
    {
      "channel": 3,
      "note": 61,
      "start": 77.611,
      "duration": 0.0466,
      "velocity": 127,
      "chip": "ym2612"
    },
    {
      "channel": 4,
      "note": 56,
      "start": 77.6171,
      "duration": 0.0122,
      "velocity": 111,
      "chip": "ym2612"
    },
    {
      "channel": 5,
      "note": 51,
      "start": 77.6188,
      "duration": 0.0107,
      "velocity": 111,
      "chip": "ym2612"
    },
    {
      "channel": 0,
      "note": 56,
      "start": 77.7156,
      "duration": 0.0123,
      "velocity": 111,
      "chip": "ym2612"
    },
    {
      "channel": 1,
      "note": 56,
      "start": 77.7175,
      "duration": 0.0812,
      "velocity": 108,
      "chip": "ym2612"
    },
    {
      "channel": 2,
      "note": 51,
      "start": 77.7191,
      "duration": 0.009,
      "velocity": 111,
      "chip": "ym2612"
    },
    {
      "channel": 4,
      "note": 66,
      "start": 77.7312,
      "duration": 0.0832,
      "velocity": 111,
      "chip": "ym2612"
    },
    {
      "channel": 5,
      "note": 61,
      "start": 77.7329,
      "duration": 0.0817,
      "velocity": 111,
      "chip": "ym2612"
    },
    {
      "channel": 0,
      "note": 63,
      "start": 77.8284,
      "duration": 0.0834,
      "velocity": 111,
      "chip": "ym2612"
    },
    {
      "channel": 1,
      "note": 56,
      "start": 77.831,
      "duration": 0.081,
      "velocity": 108,
      "chip": "ym2612"
    },
    {
      "channel": 2,
      "note": 58,
      "start": 77.8327,
      "duration": 0.0795,
      "velocity": 111,
      "chip": "ym2612"
    },
    {
      "channel": 3,
      "note": 61,
      "start": 77.8348,
      "duration": 0.0491,
      "velocity": 127,
      "chip": "ym2612"
    },
    {
      "channel": 4,
      "note": 56,
      "start": 77.8434,
      "duration": 0.0125,
      "velocity": 111,
      "chip": "ym2612"
    },
    {
      "channel": 5,
      "note": 51,
      "start": 77.8451,
      "duration": 0.011,
      "velocity": 111,
      "chip": "ym2612"
    },
    {
      "channel": 0,
      "note": 56,
      "start": 77.9415,
      "duration": 0.0127,
      "velocity": 111,
      "chip": "ym2612"
    },
    {
      "channel": 1,
      "note": 56,
      "start": 77.9433,
      "duration": 0.0819,
      "velocity": 108,
      "chip": "ym2612"
    },
    {
      "channel": 2,
      "note": 51,
      "start": 77.945,
      "duration": 0.0095,
      "velocity": 111,
      "chip": "ym2612"
    },
    {
      "channel": 3,
      "note": 61,
      "start": 77.9511,
      "duration": 0.0468,
      "velocity": 127,
      "chip": "ym2612"
    },
    {
      "channel": 4,
      "note": 63,
      "start": 77.9568,
      "duration": 0.0831,
      "velocity": 111,
      "chip": "ym2612"
    },
    {
      "channel": 5,
      "note": 58,
      "start": 77.9585,
      "duration": 0.0817,
      "velocity": 111,
      "chip": "ym2612"
    },
    {
      "channel": 0,
      "note": 61,
      "start": 78.0547,
      "duration": 0.0834,
      "velocity": 111,
      "chip": "ym2612"
    },
    {
      "channel": 1,
      "note": 56,
      "start": 78.0565,
      "duration": 0.0818,
      "velocity": 108,
      "chip": "ym2612"
    },
    {
      "channel": 2,
      "note": 56,
      "start": 78.0581,
      "duration": 0.0804,
      "velocity": 111,
      "chip": "ym2612"
    },
    {
      "channel": 4,
      "note": 56,
      "start": 78.0697,
      "duration": 0.0127,
      "velocity": 111,
      "chip": "ym2612"
    },
    {
      "channel": 5,
      "note": 51,
      "start": 78.0714,
      "duration": 0.0112,
      "velocity": 111,
      "chip": "ym2612"
    },
    {
      "channel": 0,
      "note": 56,
      "start": 78.1679,
      "duration": 0.0138,
      "velocity": 111,
      "chip": "ym2612"
    },
    {
      "channel": 1,
      "note": 56,
      "start": 78.1696,
      "duration": 0.0817,
      "velocity": 108,
      "chip": "ym2612"
    },
    {
      "channel": 2,
      "note": 51,
      "start": 78.1714,
      "duration": 0.0106,
      "velocity": 111,
      "chip": "ym2612"
    },
    {
      "channel": 3,
      "note": 61,
      "start": 78.1766,
      "duration": 0.0468,
      "velocity": 127,
      "chip": "ym2612"
    },
    {
      "channel": 4,
      "note": 61,
      "start": 78.1842,
      "duration": 0.0821,
      "velocity": 111,
      "chip": "ym2612"
    },
    {
      "channel": 5,
      "note": 56,
      "start": 78.1859,
      "duration": 0.0806,
      "velocity": 111,
      "chip": "ym2612"
    },
    {
      "channel": 0,
      "note": 54,
      "start": 78.282,
      "duration": 0.1956,
      "velocity": 111,
      "chip": "ym2612"
    },
    {
      "channel": 1,
      "note": 54,
      "start": 78.2839,
      "duration": 0.1939,
      "velocity": 108,
      "chip": "ym2612"
    },
    {
      "channel": 2,
      "note": 49,
      "start": 78.2857,
      "duration": 0.1923,
      "velocity": 111,
      "chip": "ym2612"
    },
    {
      "channel": 3,
      "note": 61,
      "start": 78.2912,
      "duration": 0.0454,
      "velocity": 127,
      "chip": "ym2612"
    },
    {
      "channel": 4,
      "note": 56,
      "start": 78.2962,
      "duration": 0.012,
      "velocity": 111,
      "chip": "ym2612"
    },
    {
      "channel": 5,
      "note": 51,
      "start": 78.2987,
      "duration": 0.0098,
      "velocity": 111,
      "chip": "ym2612"
    },
    {
      "channel": 4,
      "note": 54,
      "start": 78.4093,
      "duration": 0.1964,
      "velocity": 111,
      "chip": "ym2612"
    },
    {
      "channel": 5,
      "note": 49,
      "start": 78.4111,
      "duration": 0.1948,
      "velocity": 111,
      "chip": "ym2612"
    },
    {
      "channel": 0,
      "note": 56,
      "start": 78.5073,
      "duration": 0.0129,
      "velocity": 111,
      "chip": "ym2612"
    },
    {
      "channel": 1,
      "note": 56,
      "start": 78.509,
      "duration": 0.0115,
      "velocity": 108,
      "chip": "ym2612"
    },
    {
      "channel": 2,
      "note": 51,
      "start": 78.5107,
      "duration": 0.01,
      "velocity": 111,
      "chip": "ym2612"
    },
    {
      "channel": 3,
      "note": 61,
      "start": 78.5128,
      "duration": 0.0501,
      "velocity": 127,
      "chip": "ym2612"
    },
    {
      "channel": 0,
      "note": 68,
      "start": 78.6205,
      "duration": 0.1966,
      "velocity": 111,
      "chip": "ym2612"
    },
    {
      "channel": 1,
      "note": 56,
      "start": 78.6221,
      "duration": 0.0819,
      "velocity": 108,
      "chip": "ym2612"
    },
    {
      "channel": 2,
      "note": 63,
      "start": 78.6239,
      "duration": 0.1935,
      "velocity": 111,
      "chip": "ym2612"
    },
    {
      "channel": 3,
      "note": 61,
      "start": 78.6291,
      "duration": 0.0469,
      "velocity": 127,
      "chip": "ym2612"
    },
    {
      "channel": 4,
      "note": 56,
      "start": 78.6355,
      "duration": 0.0125,
      "velocity": 111,
      "chip": "ym2612"
    },
    {
      "channel": 5,
      "note": 51,
      "start": 78.6372,
      "duration": 0.0109,
      "velocity": 111,
      "chip": "ym2612"
    },
    {
      "channel": 1,
      "note": 56,
      "start": 78.7338,
      "duration": 0.0127,
      "velocity": 108,
      "chip": "ym2612"
    },
    {
      "channel": 4,
      "note": 68,
      "start": 78.7496,
      "duration": 0.1956,
      "velocity": 111,
      "chip": "ym2612"
    },
    {
      "channel": 5,
      "note": 63,
      "start": 78.7513,
      "duration": 0.1941,
      "velocity": 111,
      "chip": "ym2612"
    },
    {
      "channel": 0,
      "note": 56,
      "start": 78.8484,
      "duration": 0.0111,
      "velocity": 111,
      "chip": "ym2612"
    },
    {
      "channel": 1,
      "note": 56,
      "start": 78.85,
      "duration": 0.0809,
      "velocity": 108,
      "chip": "ym2612"
    },
    {
      "channel": 2,
      "note": 51,
      "start": 78.8518,
      "duration": 0.008,
      "velocity": 111,
      "chip": "ym2612"
    },
    {
      "channel": 3,
      "note": 61,
      "start": 78.8571,
      "duration": 0.0453,
      "velocity": 127,
      "chip": "ym2612"
    },
    {
      "channel": 0,
      "note": 66,
      "start": 78.96,
      "duration": 0.0834,
      "velocity": 111,
      "chip": "ym2612"
    },
    {
      "channel": 1,
      "note": 56,
      "start": 78.9618,
      "duration": 0.0818,
      "velocity": 108,
      "chip": "ym2612"
    },
    {
      "channel": 2,
      "note": 61,
      "start": 78.9643,
      "duration": 0.0795,
      "velocity": 111,
      "chip": "ym2612"
    },
    {
      "channel": 3,
      "note": 61,
      "start": 78.9697,
      "duration": 0.0463,
      "velocity": 127,
      "chip": "ym2612"
    },
    {
      "channel": 4,
      "note": 56,
      "start": 78.975,
      "duration": 0.0122,
      "velocity": 111,
      "chip": "ym2612"
    },
    {
      "channel": 5,
      "note": 51,
      "start": 78.9766,
      "duration": 0.0108,
      "velocity": 111,
      "chip": "ym2612"
    },
    {
      "channel": 0,
      "note": 56,
      "start": 79.0732,
      "duration": 0.0127,
      "velocity": 111,
      "chip": "ym2612"
    },
    {
      "channel": 1,
      "note": 56,
      "start": 79.0749,
      "duration": 0.0817,
      "velocity": 108,
      "chip": "ym2612"
    },
    {
      "channel": 2,
      "note": 51,
      "start": 79.0766,
      "duration": 0.0095,
      "velocity": 111,
      "chip": "ym2612"
    },
    {
      "channel": 4,
      "note": 66,
      "start": 79.0883,
      "duration": 0.0833,
      "velocity": 111,
      "chip": "ym2612"
    },
    {
      "channel": 5,
      "note": 61,
      "start": 79.09,
      "duration": 0.0817,
      "velocity": 111,
      "chip": "ym2612"
    },
    {
      "channel": 0,
      "note": 63,
      "start": 79.1864,
      "duration": 0.0833,
      "velocity": 111,
      "chip": "ym2612"
    },
    {
      "channel": 1,
      "note": 56,
      "start": 79.1883,
      "duration": 0.0816,
      "velocity": 108,
      "chip": "ym2612"
    },
    {
      "channel": 2,
      "note": 58,
      "start": 79.1899,
      "duration": 0.0802,
      "velocity": 111,
      "chip": "ym2612"
    },
    {
      "channel": 3,
      "note": 61,
      "start": 79.192,
      "duration": 0.0498,
      "velocity": 127,
      "chip": "ym2612"
    },
    {
      "channel": 4,
      "note": 56,
      "start": 79.2013,
      "duration": 0.013,
      "velocity": 111,
      "chip": "ym2612"
    },
    {
      "channel": 5,
      "note": 51,
      "start": 79.203,
      "duration": 0.0116,
      "velocity": 111,
      "chip": "ym2612"
    },
    {
      "channel": 0,
      "note": 56,
      "start": 79.2994,
      "duration": 0.0127,
      "velocity": 111,
      "chip": "ym2612"
    },
    {
      "channel": 1,
      "note": 56,
      "start": 79.3013,
      "duration": 0.0817,
      "velocity": 108,
      "chip": "ym2612"
    },
    {
      "channel": 2,
      "note": 51,
      "start": 79.3029,
      "duration": 0.0095,
      "velocity": 111,
      "chip": "ym2612"
    },
    {
      "channel": 3,
      "note": 61,
      "start": 79.3082,
      "duration": 0.0468,
      "velocity": 127,
      "chip": "ym2612"
    },
    {
      "channel": 4,
      "note": 63,
      "start": 79.3155,
      "duration": 0.0829,
      "velocity": 111,
      "chip": "ym2612"
    },
    {
      "channel": 5,
      "note": 58,
      "start": 79.3172,
      "duration": 0.0814,
      "velocity": 111,
      "chip": "ym2612"
    },
    {
      "channel": 0,
      "note": 61,
      "start": 79.4126,
      "duration": 0.0834,
      "velocity": 111,
      "chip": "ym2612"
    },
    {
      "channel": 1,
      "note": 56,
      "start": 79.4153,
      "duration": 0.0809,
      "velocity": 108,
      "chip": "ym2612"
    },
    {
      "channel": 2,
      "note": 56,
      "start": 79.4169,
      "duration": 0.0795,
      "velocity": 111,
      "chip": "ym2612"
    },
    {
      "channel": 4,
      "note": 56,
      "start": 79.4276,
      "duration": 0.0127,
      "velocity": 111,
      "chip": "ym2612"
    },
    {
      "channel": 5,
      "note": 51,
      "start": 79.4293,
      "duration": 0.0111,
      "velocity": 111,
      "chip": "ym2612"
    },
    {
      "channel": 0,
      "note": 56,
      "start": 79.5258,
      "duration": 0.0127,
      "velocity": 111,
      "chip": "ym2612"
    },
    {
      "channel": 1,
      "note": 56,
      "start": 79.5275,
      "duration": 0.0817,
      "velocity": 108,
      "chip": "ym2612"
    },
    {
      "channel": 2,
      "note": 51,
      "start": 79.5293,
      "duration": 0.0095,
      "velocity": 111,
      "chip": "ym2612"
    },
    {
      "channel": 3,
      "note": 61,
      "start": 79.5354,
      "duration": 0.0459,
      "velocity": 127,
      "chip": "ym2612"
    },
    {
      "channel": 4,
      "note": 61,
      "start": 79.541,
      "duration": 0.0832,
      "velocity": 111,
      "chip": "ym2612"
    },
    {
      "channel": 5,
      "note": 56,
      "start": 79.5427,
      "duration": 0.0817,
      "velocity": 111,
      "chip": "ym2612"
    },
    {
      "channel": 0,
      "note": 59,
      "start": 79.6393,
      "duration": 0.663,
      "velocity": 111,
      "chip": "ym2612"
    },
    {
      "channel": 1,
      "note": 57,
      "start": 79.6417,
      "duration": 0.2083,
      "velocity": 108,
      "chip": "ym2612"
    },
    {
      "channel": 2,
      "note": 54,
      "start": 79.6438,
      "duration": 0.6589,
      "velocity": 111,
      "chip": "ym2612"
    },
    {
      "channel": 3,
      "note": 61,
      "start": 79.6503,
      "duration": 0.0583,
      "velocity": 127,
      "chip": "ym2612"
    },
    {
      "channel": 4,
      "note": 56,
      "start": 79.668,
      "duration": 0.0136,
      "velocity": 111,
      "chip": "ym2612"
    },
    {
      "channel": 5,
      "note": 51,
      "start": 79.6698,
      "duration": 0.0121,
      "velocity": 111,
      "chip": "ym2612"
    },
    {
      "channel": 4,
      "note": 59,
      "start": 79.7825,
      "duration": 0.6487,
      "velocity": 111,
      "chip": "ym2612"
    },
    {
      "channel": 5,
      "note": 54,
      "start": 79.7846,
      "duration": 0.6469,
      "velocity": 111,
      "chip": "ym2612"
    },
    {
      "channel": 1,
      "note": 59,
      "start": 79.8795,
      "duration": 0.0127,
      "velocity": 108,
      "chip": "ym2612"
    },
    {
      "channel": 3,
      "note": 61,
      "start": 79.8857,
      "duration": 0.0492,
      "velocity": 127,
      "chip": "ym2612"
    },
    {
      "channel": 1,
      "note": 59,
      "start": 79.9926,
      "duration": 0.0835,
      "velocity": 108,
      "chip": "ym2612"
    },
    {
      "channel": 3,
      "note": 61,
      "start": 79.9948,
      "duration": 0.0532,
      "velocity": 127,
      "chip": "ym2612"
    },
    {
      "channel": 1,
      "note": 59,
      "start": 80.1058,
      "duration": 0.0127,
      "velocity": 108,
      "chip": "ym2612"
    },
    {
      "channel": 1,
      "note": 59,
      "start": 80.219,
      "duration": 0.0835,
      "velocity": 108,
      "chip": "ym2612"
    },
    {
      "channel": 3,
      "note": 61,
      "start": 80.2244,
      "duration": 0.0501,
      "velocity": 127,
      "chip": "ym2612"
    },
    {
      "channel": 0,
      "note": 61,
      "start": 80.3323,
      "duration": 0.6489,
      "velocity": 111,
      "chip": "ym2612"
    },
    {
      "channel": 1,
      "note": 55,
      "start": 80.3342,
      "duration": 0.1945,
      "velocity": 108,
      "chip": "ym2612"
    },
    {
      "channel": 2,
      "note": 54,
      "start": 80.3359,
      "duration": 0.6457,
      "velocity": 111,
      "chip": "ym2612"
    },
    {
      "channel": 3,
      "note": 61,
      "start": 80.338,
      "duration": 0.0496,
      "velocity": 127,
      "chip": "ym2612"
    },
    {
      "channel": 4,
      "note": 61,
      "start": 80.4602,
      "duration": 0.6634,
      "velocity": 111,
      "chip": "ym2612"
    },
    {
      "channel": 5,
      "note": 54,
      "start": 80.4618,
      "duration": 0.6619,
      "velocity": 111,
      "chip": "ym2612"
    },
    {
      "channel": 1,
      "note": 57,
      "start": 80.5585,
      "duration": 0.0127,
      "velocity": 108,
      "chip": "ym2612"
    },
    {
      "channel": 3,
      "note": 61,
      "start": 80.5647,
      "duration": 0.0499,
      "velocity": 127,
      "chip": "ym2612"
    },
    {
      "channel": 1,
      "note": 57,
      "start": 80.6716,
      "duration": 0.0834,
      "velocity": 108,
      "chip": "ym2612"
    },
    {
      "channel": 3,
      "note": 61,
      "start": 80.6738,
      "duration": 0.0532,
      "velocity": 127,
      "chip": "ym2612"
    },
    {
      "channel": 1,
      "note": 57,
      "start": 80.7847,
      "duration": 0.0129,
      "velocity": 108,
      "chip": "ym2612"
    },
    {
      "channel": 3,
      "note": 61,
      "start": 80.787,
      "duration": 0.0539,
      "velocity": 127,
      "chip": "ym2612"
    },
    {
      "channel": 1,
      "note": 57,
      "start": 80.8988,
      "duration": 0.0826,
      "velocity": 108,
      "chip": "ym2612"
    },
    {
      "channel": 3,
      "note": 61,
      "start": 80.9041,
      "duration": 0.0492,
      "velocity": 127,
      "chip": "ym2612"
    },
    {
      "channel": 0,
      "note": 54,
      "start": 81.0118,
      "duration": 0.2099,
      "velocity": 111,
      "chip": "ym2612"
    },
    {
      "channel": 1,
      "note": 54,
      "start": 81.0151,
      "duration": 0.2068,
      "velocity": 108,
      "chip": "ym2612"
    },
    {
      "channel": 2,
      "note": 49,
      "start": 81.0172,
      "duration": 0.2049,
      "velocity": 111,
      "chip": "ym2612"
    },
    {
      "channel": 3,
      "note": 61,
      "start": 81.0229,
      "duration": 0.0584,
      "velocity": 127,
      "chip": "ym2612"
    },
    {
      "channel": 4,
      "note": 54,
      "start": 81.1537,
      "duration": 0.1962,
      "velocity": 111,
      "chip": "ym2612"
    },
    {
      "channel": 5,
      "note": 49,
      "start": 81.1558,
      "duration": 0.1943,
      "velocity": 111,
      "chip": "ym2612"
    },
    {
      "channel": 0,
      "note": 56,
      "start": 81.2514,
      "duration": 0.0128,
      "velocity": 111,
      "chip": "ym2612"
    },
    {
      "channel": 1,
      "note": 56,
      "start": 81.253,
      "duration": 0.0114,
      "velocity": 108,
      "chip": "ym2612"
    },
    {
      "channel": 2,
      "note": 51,
      "start": 81.2548,
      "duration": 0.0099,
      "velocity": 111,
      "chip": "ym2612"
    },
    {
      "channel": 3,
      "note": 61,
      "start": 81.2569,
      "duration": 0.0501,
      "velocity": 127,
      "chip": "ym2612"
    },
    {
      "channel": 0,
      "note": 68,
      "start": 81.3654,
      "duration": 0.1958,
      "velocity": 111,
      "chip": "ym2612"
    },
    {
      "channel": 1,
      "note": 56,
      "start": 81.367,
      "duration": 0.081,
      "velocity": 108,
      "chip": "ym2612"
    },
    {
      "channel": 2,
      "note": 63,
      "start": 81.3688,
      "duration": 0.1927,
      "velocity": 111,
      "chip": "ym2612"
    },
    {
      "channel": 3,
      "note": 61,
      "start": 81.374,
      "duration": 0.0461,
      "velocity": 127,
      "chip": "ym2612"
    },
    {
      "channel": 4,
      "note": 56,
      "start": 81.3796,
      "duration": 0.0123,
      "velocity": 111,
      "chip": "ym2612"
    },
    {
      "channel": 5,
      "note": 51,
      "start": 81.3821,
      "duration": 0.01,
      "velocity": 111,
      "chip": "ym2612"
    },
    {
      "channel": 1,
      "note": 56,
      "start": 81.4778,
      "duration": 0.0127,
      "velocity": 108,
      "chip": "ym2612"
    },
    {
      "channel": 4,
      "note": 68,
      "start": 81.4929,
      "duration": 0.1964,
      "velocity": 111,
      "chip": "ym2612"
    },
    {
      "channel": 5,
      "note": 63,
      "start": 81.4945,
      "duration": 0.1951,
      "velocity": 111,
      "chip": "ym2612"
    },
    {
      "channel": 0,
      "note": 56,
      "start": 81.5909,
      "duration": 0.0127,
      "velocity": 111,
      "chip": "ym2612"
    },
    {
      "channel": 1,
      "note": 56,
      "start": 81.5925,
      "duration": 0.0823,
      "velocity": 108,
      "chip": "ym2612"
    },
    {
      "channel": 2,
      "note": 51,
      "start": 81.5943,
      "duration": 0.0096,
      "velocity": 111,
      "chip": "ym2612"
    },
    {
      "channel": 3,
      "note": 61,
      "start": 81.6004,
      "duration": 0.0461,
      "velocity": 127,
      "chip": "ym2612"
    },
    {
      "channel": 0,
      "note": 66,
      "start": 81.7041,
      "duration": 0.0834,
      "velocity": 111,
      "chip": "ym2612"
    },
    {
      "channel": 1,
      "note": 56,
      "start": 81.7059,
      "duration": 0.0817,
      "velocity": 108,
      "chip": "ym2612"
    },
    {
      "channel": 2,
      "note": 61,
      "start": 81.7076,
      "duration": 0.0804,
      "velocity": 111,
      "chip": "ym2612"
    },
    {
      "channel": 3,
      "note": 61,
      "start": 81.713,
      "duration": 0.0466,
      "velocity": 127,
      "chip": "ym2612"
    },
    {
      "channel": 4,
      "note": 56,
      "start": 81.7191,
      "duration": 0.0123,
      "velocity": 111,
      "chip": "ym2612"
    },
    {
      "channel": 5,
      "note": 51,
      "start": 81.7208,
      "duration": 0.0107,
      "velocity": 111,
      "chip": "ym2612"
    },
    {
      "channel": 0,
      "note": 56,
      "start": 81.8172,
      "duration": 0.0136,
      "velocity": 111,
      "chip": "ym2612"
    },
    {
      "channel": 1,
      "note": 56,
      "start": 81.819,
      "duration": 0.0817,
      "velocity": 108,
      "chip": "ym2612"
    },
    {
      "channel": 2,
      "note": 51,
      "start": 81.8207,
      "duration": 0.0105,
      "velocity": 111,
      "chip": "ym2612"
    },
    {
      "channel": 4,
      "note": 66,
      "start": 81.8333,
      "duration": 0.0823,
      "velocity": 111,
      "chip": "ym2612"
    },
    {
      "channel": 5,
      "note": 61,
      "start": 81.835,
      "duration": 0.0808,
      "velocity": 111,
      "chip": "ym2612"
    },
    {
      "channel": 0,
      "note": 63,
      "start": 81.9312,
      "duration": 0.0833,
      "velocity": 111,
      "chip": "ym2612"
    },
    {
      "channel": 1,
      "note": 56,
      "start": 81.933,
      "duration": 0.0817,
      "velocity": 108,
      "chip": "ym2612"
    },
    {
      "channel": 2,
      "note": 58,
      "start": 81.9347,
      "duration": 0.0803,
      "velocity": 111,
      "chip": "ym2612"
    },
    {
      "channel": 3,
      "note": 61,
      "start": 81.9368,
      "duration": 0.0492,
      "velocity": 127,
      "chip": "ym2612"
    },
    {
      "channel": 4,
      "note": 56,
      "start": 81.9454,
      "duration": 0.0122,
      "velocity": 111,
      "chip": "ym2612"
    },
    {
      "channel": 5,
      "note": 51,
      "start": 81.948,
      "duration": 0.0099,
      "velocity": 111,
      "chip": "ym2612"
    },
    {
      "channel": 0,
      "note": 56,
      "start": 82.0436,
      "duration": 0.0127,
      "velocity": 111,
      "chip": "ym2612"
    },
    {
      "channel": 1,
      "note": 56,
      "start": 82.0454,
      "duration": 0.0817,
      "velocity": 108,
      "chip": "ym2612"
    },
    {
      "channel": 2,
      "note": 51,
      "start": 82.0478,
      "duration": 0.0087,
      "velocity": 111,
      "chip": "ym2612"
    },
    {
      "channel": 3,
      "note": 61,
      "start": 82.0532,
      "duration": 0.0459,
      "velocity": 127,
      "chip": "ym2612"
    },
    {
      "channel": 4,
      "note": 63,
      "start": 82.0588,
      "duration": 0.0832,
      "velocity": 111,
      "chip": "ym2612"
    },
    {
      "channel": 5,
      "note": 58,
      "start": 82.0605,
      "duration": 0.0817,
      "velocity": 111,
      "chip": "ym2612"
    },
    {
      "channel": 0,
      "note": 61,
      "start": 82.1567,
      "duration": 0.0835,
      "velocity": 111,
      "chip": "ym2612"
    },
    {
      "channel": 1,
      "note": 56,
      "start": 82.1585,
      "duration": 0.0818,
      "velocity": 108,
      "chip": "ym2612"
    },
    {
      "channel": 2,
      "note": 56,
      "start": 82.1602,
      "duration": 0.0804,
      "velocity": 111,
      "chip": "ym2612"
    },
    {
      "channel": 4,
      "note": 56,
      "start": 82.1724,
      "duration": 0.012,
      "velocity": 111,
      "chip": "ym2612"
    },
    {
      "channel": 5,
      "note": 51,
      "start": 82.174,
      "duration": 0.0106,
      "velocity": 111,
      "chip": "ym2612"
    },
    {
      "channel": 0,
      "note": 56,
      "start": 82.2698,
      "duration": 0.0127,
      "velocity": 111,
      "chip": "ym2612"
    },
    {
      "channel": 1,
      "note": 56,
      "start": 82.2717,
      "duration": 0.0817,
      "velocity": 108,
      "chip": "ym2612"
    },
    {
      "channel": 2,
      "note": 51,
      "start": 82.2733,
      "duration": 0.0095,
      "velocity": 111,
      "chip": "ym2612"
    },
    {
      "channel": 3,
      "note": 61,
      "start": 82.2786,
      "duration": 0.0468,
      "velocity": 127,
      "chip": "ym2612"
    },
    {
      "channel": 4,
      "note": 61,
      "start": 82.2851,
      "duration": 0.0832,
      "velocity": 111,
      "chip": "ym2612"
    },
    {
      "channel": 5,
      "note": 56,
      "start": 82.2868,
      "duration": 0.0817,
      "velocity": 111,
      "chip": "ym2612"
    },
    {
      "channel": 0,
      "note": 54,
      "start": 82.3831,
      "duration": 0.1964,
      "velocity": 111,
      "chip": "ym2612"
    },
    {
      "channel": 1,
      "note": 54,
      "start": 82.3851,
      "duration": 0.1947,
      "velocity": 108,
      "chip": "ym2612"
    },
    {
      "channel": 2,
      "note": 49,
      "start": 82.3869,
      "duration": 0.1939,
      "velocity": 111,
      "chip": "ym2612"
    },
    {
      "channel": 3,
      "note": 61,
      "start": 82.3924,
      "duration": 0.0462,
      "velocity": 127,
      "chip": "ym2612"
    },
    {
      "channel": 4,
      "note": 56,
      "start": 82.399,
      "duration": 0.0113,
      "velocity": 111,
      "chip": "ym2612"
    },
    {
      "channel": 5,
      "note": 51,
      "start": 82.4006,
      "duration": 0.0098,
      "velocity": 111,
      "chip": "ym2612"
    },
    {
      "channel": 4,
      "note": 54,
      "start": 82.5114,
      "duration": 0.1964,
      "velocity": 111,
      "chip": "ym2612"
    },
    {
      "channel": 5,
      "note": 49,
      "start": 82.5141,
      "duration": 0.1939,
      "velocity": 111,
      "chip": "ym2612"
    },
    {
      "channel": 0,
      "note": 56,
      "start": 82.6093,
      "duration": 0.0127,
      "velocity": 111,
      "chip": "ym2612"
    },
    {
      "channel": 1,
      "note": 56,
      "start": 82.611,
      "duration": 0.0112,
      "velocity": 108,
      "chip": "ym2612"
    },
    {
      "channel": 2,
      "note": 51,
      "start": 82.6127,
      "duration": 0.0097,
      "velocity": 111,
      "chip": "ym2612"
    },
    {
      "channel": 3,
      "note": 61,
      "start": 82.6156,
      "duration": 0.0492,
      "velocity": 127,
      "chip": "ym2612"
    },
    {
      "channel": 0,
      "note": 68,
      "start": 82.7225,
      "duration": 0.1966,
      "velocity": 111,
      "chip": "ym2612"
    },
    {
      "channel": 1,
      "note": 56,
      "start": 82.7242,
      "duration": 0.0818,
      "velocity": 108,
      "chip": "ym2612"
    },
    {
      "channel": 2,
      "note": 63,
      "start": 82.7258,
      "duration": 0.1936,
      "velocity": 111,
      "chip": "ym2612"
    },
    {
      "channel": 3,
      "note": 61,
      "start": 82.732,
      "duration": 0.0461,
      "velocity": 127,
      "chip": "ym2612"
    },
    {
      "channel": 4,
      "note": 56,
      "start": 82.7375,
      "duration": 0.0122,
      "velocity": 111,
      "chip": "ym2612"
    },
    {
      "channel": 5,
      "note": 51,
      "start": 82.7392,
      "duration": 0.0107,
      "velocity": 111,
      "chip": "ym2612"
    },
    {
      "channel": 1,
      "note": 56,
      "start": 82.8364,
      "duration": 0.012,
      "velocity": 108,
      "chip": "ym2612"
    },
    {
      "channel": 4,
      "note": 68,
      "start": 82.8507,
      "duration": 0.1974,
      "velocity": 111,
      "chip": "ym2612"
    },
    {
      "channel": 5,
      "note": 63,
      "start": 82.8525,
      "duration": 0.1959,
      "velocity": 111,
      "chip": "ym2612"
    },
    {
      "channel": 0,
      "note": 56,
      "start": 82.949,
      "duration": 0.0125,
      "velocity": 111,
      "chip": "ym2612"
    },
    {
      "channel": 1,
      "note": 56,
      "start": 82.9506,
      "duration": 0.0817,
      "velocity": 108,
      "chip": "ym2612"
    },
    {
      "channel": 2,
      "note": 51,
      "start": 82.9523,
      "duration": 0.0095,
      "velocity": 111,
      "chip": "ym2612"
    },
    {
      "channel": 3,
      "note": 61,
      "start": 82.9576,
      "duration": 0.0471,
      "velocity": 127,
      "chip": "ym2612"
    },
    {
      "channel": 0,
      "note": 66,
      "start": 83.062,
      "duration": 0.0835,
      "velocity": 111,
      "chip": "ym2612"
    },
    {
      "channel": 1,
      "note": 56,
      "start": 83.0646,
      "duration": 0.081,
      "velocity": 108,
      "chip": "ym2612"
    },
    {
      "channel": 2,
      "note": 61,
      "start": 83.0663,
      "duration": 0.0795,
      "velocity": 111,
      "chip": "ym2612"
    },
    {
      "channel": 3,
      "note": 61,
      "start": 83.0717,
      "duration": 0.0457,
      "velocity": 127,
      "chip": "ym2612"
    },
    {
      "channel": 4,
      "note": 56,
      "start": 83.077,
      "duration": 0.0122,
      "velocity": 111,
      "chip": "ym2612"
    },
    {
      "channel": 5,
      "note": 51,
      "start": 83.0787,
      "duration": 0.0107,
      "velocity": 111,
      "chip": "ym2612"
    },
    {
      "channel": 0,
      "note": 56,
      "start": 83.1752,
      "duration": 0.0127,
      "velocity": 111,
      "chip": "ym2612"
    },
    {
      "channel": 1,
      "note": 56,
      "start": 83.177,
      "duration": 0.0816,
      "velocity": 108,
      "chip": "ym2612"
    },
    {
      "channel": 2,
      "note": 51,
      "start": 83.1787,
      "duration": 0.0094,
      "velocity": 111,
      "chip": "ym2612"
    },
    {
      "channel": 4,
      "note": 66,
      "start": 83.1903,
      "duration": 0.0832,
      "velocity": 111,
      "chip": "ym2612"
    },
    {
      "channel": 5,
      "note": 61,
      "start": 83.192,
      "duration": 0.0817,
      "velocity": 111,
      "chip": "ym2612"
    },
    {
      "channel": 0,
      "note": 63,
      "start": 83.2883,
      "duration": 0.0834,
      "velocity": 111,
      "chip": "ym2612"
    },
    {
      "channel": 1,
      "note": 56,
      "start": 83.2901,
      "duration": 0.0818,
      "velocity": 108,
      "chip": "ym2612"
    },
    {
      "channel": 2,
      "note": 58,
      "start": 83.2918,
      "duration": 0.0803,
      "velocity": 111,
      "chip": "ym2612"
    },
    {
      "channel": 3,
      "note": 61,
      "start": 83.2939,
      "duration": 0.0499,
      "velocity": 127,
      "chip": "ym2612"
    },
    {
      "channel": 4,
      "note": 56,
      "start": 83.3033,
      "duration": 0.0122,
      "velocity": 111,
      "chip": "ym2612"
    },
    {
      "channel": 5,
      "note": 51,
      "start": 83.305,
      "duration": 0.0107,
      "velocity": 111,
      "chip": "ym2612"
    },
    {
      "channel": 0,
      "note": 56,
      "start": 83.4015,
      "duration": 0.0128,
      "velocity": 111,
      "chip": "ym2612"
    },
    {
      "channel": 1,
      "note": 56,
      "start": 83.4032,
      "duration": 0.0817,
      "velocity": 108,
      "chip": "ym2612"
    },
    {
      "channel": 2,
      "note": 51,
      "start": 83.4049,
      "duration": 0.0097,
      "velocity": 111,
      "chip": "ym2612"
    },
    {
      "channel": 3,
      "note": 61,
      "start": 83.4102,
      "duration": 0.0468,
      "velocity": 127,
      "chip": "ym2612"
    },
    {
      "channel": 4,
      "note": 63,
      "start": 83.4168,
      "duration": 0.0837,
      "velocity": 111,
      "chip": "ym2612"
    },
    {
      "channel": 5,
      "note": 58,
      "start": 83.4184,
      "duration": 0.0822,
      "velocity": 111,
      "chip": "ym2612"
    },
    {
      "channel": 0,
      "note": 61,
      "start": 83.5154,
      "duration": 0.0826,
      "velocity": 111,
      "chip": "ym2612"
    },
    {
      "channel": 1,
      "note": 56,
      "start": 83.5172,
      "duration": 0.081,
      "velocity": 108,
      "chip": "ym2612"
    },
    {
      "channel": 2,
      "note": 56,
      "start": 83.5189,
      "duration": 0.0795,
      "velocity": 111,
      "chip": "ym2612"
    },
    {
      "channel": 4,
      "note": 56,
      "start": 83.5296,
      "duration": 0.0127,
      "velocity": 111,
      "chip": "ym2612"
    },
    {
      "channel": 5,
      "note": 51,
      "start": 83.5321,
      "duration": 0.0104,
      "velocity": 111,
      "chip": "ym2612"
    },
    {
      "channel": 0,
      "note": 56,
      "start": 83.6278,
      "duration": 0.0127,
      "velocity": 111,
      "chip": "ym2612"
    },
    {
      "channel": 1,
      "note": 56,
      "start": 83.6296,
      "duration": 0.0817,
      "velocity": 108,
      "chip": "ym2612"
    },
    {
      "channel": 2,
      "note": 51,
      "start": 83.6321,
      "duration": 0.0087,
      "velocity": 111,
      "chip": "ym2612"
    },
    {
      "channel": 3,
      "note": 61,
      "start": 83.6374,
      "duration": 0.0459,
      "velocity": 127,
      "chip": "ym2612"
    },
    {
      "channel": 4,
      "note": 61,
      "start": 83.643,
      "duration": 0.0832,
      "velocity": 111,
      "chip": "ym2612"
    },
    {
      "channel": 5,
      "note": 56,
      "start": 83.6446,
      "duration": 0.0817,
      "velocity": 111,
      "chip": "ym2612"
    },
    {
      "channel": 0,
      "note": 54,
      "start": 83.7411,
      "duration": 0.1964,
      "velocity": 111,
      "chip": "ym2612"
    },
    {
      "channel": 1,
      "note": 54,
      "start": 83.743,
      "duration": 0.1947,
      "velocity": 108,
      "chip": "ym2612"
    },
    {
      "channel": 2,
      "note": 49,
      "start": 83.7448,
      "duration": 0.1931,
      "velocity": 111,
      "chip": "ym2612"
    },
    {
      "channel": 3,
      "note": 61,
      "start": 83.7511,
      "duration": 0.0454,
      "velocity": 127,
      "chip": "ym2612"
    },
    {
      "channel": 4,
      "note": 56,
      "start": 83.7562,
      "duration": 0.012,
      "velocity": 111,
      "chip": "ym2612"
    },
    {
      "channel": 5,
      "note": 51,
      "start": 83.7578,
      "duration": 0.0106,
      "velocity": 111,
      "chip": "ym2612"
    },
    {
      "channel": 4,
      "note": 54,
      "start": 83.8692,
      "duration": 0.1964,
      "velocity": 111,
      "chip": "ym2612"
    },
    {
      "channel": 5,
      "note": 49,
      "start": 83.871,
      "duration": 0.1948,
      "velocity": 111,
      "chip": "ym2612"
    },
    {
      "channel": 0,
      "note": 56,
      "start": 83.9672,
      "duration": 0.0136,
      "velocity": 111,
      "chip": "ym2612"
    },
    {
      "channel": 1,
      "note": 56,
      "start": 83.9689,
      "duration": 0.0122,
      "velocity": 108,
      "chip": "ym2612"
    },
    {
      "channel": 2,
      "note": 51,
      "start": 83.9706,
      "duration": 0.0107,
      "velocity": 111,
      "chip": "ym2612"
    },
    {
      "channel": 3,
      "note": 61,
      "start": 83.9727,
      "duration": 0.0501,
      "velocity": 127,
      "chip": "ym2612"
    },
    {
      "channel": 0,
      "note": 68,
      "start": 84.0812,
      "duration": 0.1957,
      "velocity": 111,
      "chip": "ym2612"
    },
    {
      "channel": 1,
      "note": 56,
      "start": 84.0829,
      "duration": 0.0822,
      "velocity": 108,
      "chip": "ym2612"
    },
    {
      "channel": 2,
      "note": 63,
      "start": 84.0846,
      "duration": 0.1927,
      "velocity": 111,
      "chip": "ym2612"
    },
    {
      "channel": 3,
      "note": 61,
      "start": 84.0899,
      "duration": 0.0461,
      "velocity": 127,
      "chip": "ym2612"
    },
    {
      "channel": 4,
      "note": 56,
      "start": 84.0954,
      "duration": 0.0122,
      "velocity": 111,
      "chip": "ym2612"
    },
    {
      "channel": 5,
      "note": 51,
      "start": 84.098,
      "duration": 0.0099,
      "velocity": 111,
      "chip": "ym2612"
    },
    {
      "channel": 1,
      "note": 56,
      "start": 84.1937,
      "duration": 0.0127,
      "velocity": 108,
      "chip": "ym2612"
    },
    {
      "channel": 4,
      "note": 68,
      "start": 84.2086,
      "duration": 0.1965,
      "velocity": 111,
      "chip": "ym2612"
    },
    {
      "channel": 5,
      "note": 63,
      "start": 84.2104,
      "duration": 0.195,
      "velocity": 111,
      "chip": "ym2612"
    },
    {
      "channel": 0,
      "note": 56,
      "start": 84.3067,
      "duration": 0.0127,
      "velocity": 111,
      "chip": "ym2612"
    },
    {
      "channel": 1,
      "note": 56,
      "start": 84.3084,
      "duration": 0.0819,
      "velocity": 108,
      "chip": "ym2612"
    },
    {
      "channel": 2,
      "note": 51,
      "start": 84.31,
      "duration": 0.0097,
      "velocity": 111,
      "chip": "ym2612"
    },
    {
      "channel": 3,
      "note": 61,
      "start": 84.3161,
      "duration": 0.0461,
      "velocity": 127,
      "chip": "ym2612"
    },
    {
      "channel": 0,
      "note": 66,
      "start": 84.4198,
      "duration": 0.0835,
      "velocity": 111,
      "chip": "ym2612"
    },
    {
      "channel": 1,
      "note": 56,
      "start": 84.4217,
      "duration": 0.0819,
      "velocity": 108,
      "chip": "ym2612"
    },
    {
      "channel": 2,
      "note": 61,
      "start": 84.4233,
      "duration": 0.0804,
      "velocity": 111,
      "chip": "ym2612"
    },
    {
      "channel": 3,
      "note": 61,
      "start": 84.4288,
      "duration": 0.0466,
      "velocity": 127,
      "chip": "ym2612"
    },
    {
      "channel": 4,
      "note": 56,
      "start": 84.4349,
      "duration": 0.013,
      "velocity": 111,
      "chip": "ym2612"
    },
    {
      "channel": 5,
      "note": 51,
      "start": 84.4366,
      "duration": 0.0116,
      "velocity": 111,
      "chip": "ym2612"
    },
    {
      "channel": 0,
      "note": 56,
      "start": 84.5331,
      "duration": 0.0127,
      "velocity": 111,
      "chip": "ym2612"
    },
    {
      "channel": 1,
      "note": 56,
      "start": 84.5349,
      "duration": 0.0817,
      "velocity": 108,
      "chip": "ym2612"
    },
    {
      "channel": 2,
      "note": 51,
      "start": 84.5365,
      "duration": 0.0095,
      "velocity": 111,
      "chip": "ym2612"
    },
    {
      "channel": 4,
      "note": 66,
      "start": 84.5491,
      "duration": 0.0826,
      "velocity": 111,
      "chip": "ym2612"
    },
    {
      "channel": 5,
      "note": 61,
      "start": 84.5507,
      "duration": 0.0812,
      "velocity": 111,
      "chip": "ym2612"
    },
    {
      "channel": 0,
      "note": 63,
      "start": 84.6462,
      "duration": 0.0835,
      "velocity": 111,
      "chip": "ym2612"
    },
    {
      "channel": 1,
      "note": 56,
      "start": 84.6488,
      "duration": 0.0817,
      "velocity": 108,
      "chip": "ym2612"
    },
    {
      "channel": 2,
      "note": 58,
      "start": 84.6505,
      "duration": 0.0803,
      "velocity": 111,
      "chip": "ym2612"
    },
    {
      "channel": 3,
      "note": 61,
      "start": 84.6526,
      "duration": 0.0491,
      "velocity": 127,
      "chip": "ym2612"
    },
    {
      "channel": 4,
      "note": 56,
      "start": 84.6612,
      "duration": 0.0123,
      "velocity": 111,
      "chip": "ym2612"
    },
    {
      "channel": 5,
      "note": 51,
      "start": 84.6629,
      "duration": 0.0107,
      "velocity": 111,
      "chip": "ym2612"
    },
    {
      "channel": 0,
      "note": 56,
      "start": 84.7593,
      "duration": 0.0127,
      "velocity": 111,
      "chip": "ym2612"
    },
    {
      "channel": 1,
      "note": 56,
      "start": 84.7612,
      "duration": 0.0817,
      "velocity": 108,
      "chip": "ym2612"
    },
    {
      "channel": 2,
      "note": 51,
      "start": 84.7628,
      "duration": 0.0095,
      "velocity": 111,
      "chip": "ym2612"
    },
    {
      "channel": 3,
      "note": 61,
      "start": 84.769,
      "duration": 0.0459,
      "velocity": 127,
      "chip": "ym2612"
    },
    {
      "channel": 4,
      "note": 63,
      "start": 84.7746,
      "duration": 0.0832,
      "velocity": 111,
      "chip": "ym2612"
    },
    {
      "channel": 5,
      "note": 58,
      "start": 84.7763,
      "duration": 0.0817,
      "velocity": 111,
      "chip": "ym2612"
    },
    {
      "channel": 0,
      "note": 61,
      "start": 84.8725,
      "duration": 0.0834,
      "velocity": 111,
      "chip": "ym2612"
    },
    {
      "channel": 1,
      "note": 56,
      "start": 84.8743,
      "duration": 0.0819,
      "velocity": 108,
      "chip": "ym2612"
    },
    {
      "channel": 2,
      "note": 56,
      "start": 84.876,
      "duration": 0.0803,
      "velocity": 111,
      "chip": "ym2612"
    },
    {
      "channel": 4,
      "note": 56,
      "start": 84.8875,
      "duration": 0.0127,
      "velocity": 111,
      "chip": "ym2612"
    },
    {
      "channel": 5,
      "note": 51,
      "start": 84.8892,
      "duration": 0.0112,
      "velocity": 111,
      "chip": "ym2612"
    },
    {
      "channel": 0,
      "note": 56,
      "start": 84.9857,
      "duration": 0.013,
      "velocity": 111,
      "chip": "ym2612"
    },
    {
      "channel": 1,
      "note": 56,
      "start": 84.9875,
      "duration": 0.0817,
      "velocity": 108,
      "chip": "ym2612"
    },
    {
      "channel": 2,
      "note": 51,
      "start": 84.9892,
      "duration": 0.0098,
      "velocity": 111,
      "chip": "ym2612"
    },
    {
      "channel": 3,
      "note": 61,
      "start": 84.9945,
      "duration": 0.0467,
      "velocity": 127,
      "chip": "ym2612"
    },
    {
      "channel": 4,
      "note": 61,
      "start": 85.0012,
      "duration": 0.0829,
      "velocity": 111,
      "chip": "ym2612"
    },
    {
      "channel": 5,
      "note": 56,
      "start": 85.0029,
      "duration": 0.0814,
      "velocity": 111,
      "chip": "ym2612"
    },
    {
      "channel": 0,
      "note": 54,
      "start": 85.0995,
      "duration": 0.0969,
      "velocity": 111,
      "chip": "ym2612"
    },
    {
      "channel": 1,
      "note": 54,
      "start": 85.1019,
      "duration": 0.0956,
      "velocity": 108,
      "chip": "ym2612"
    },
    {
      "channel": 2,
      "note": 49,
      "start": 85.1041,
      "duration": 0.0936,
      "velocity": 111,
      "chip": "ym2612"
    },
    {
      "channel": 3,
      "note": 61,
      "start": 85.11,
      "duration": 0.0586,
      "velocity": 127,
      "chip": "ym2612"
    },
    {
      "channel": 4,
      "note": 56,
      "start": 85.128,
      "duration": 0.0123,
      "velocity": 111,
      "chip": "ym2612"
    },
    {
      "channel": 5,
      "note": 51,
      "start": 85.1297,
      "duration": 0.0107,
      "velocity": 111,
      "chip": "ym2612"
    },
    {
      "channel": 0,
      "note": 54,
      "start": 85.2261,
      "duration": 0.0127,
      "velocity": 111,
      "chip": "ym2612"
    },
    {
      "channel": 1,
      "note": 54,
      "start": 85.2278,
      "duration": 0.0819,
      "velocity": 108,
      "chip": "ym2612"
    },
    {
      "channel": 2,
      "note": 49,
      "start": 85.2294,
      "duration": 0.0097,
      "velocity": 111,
      "chip": "ym2612"
    },
    {
      "channel": 3,
      "note": 61,
      "start": 85.2324,
      "duration": 0.0493,
      "velocity": 127,
      "chip": "ym2612"
    },
    {
      "channel": 4,
      "note": 54,
      "start": 85.2419,
      "duration": 0.0826,
      "velocity": 111,
      "chip": "ym2612"
    },
    {
      "channel": 5,
      "note": 49,
      "start": 85.2441,
      "duration": 0.0806,
      "velocity": 111,
      "chip": "ym2612"
    },
    {
      "channel": 0,
      "note": 54,
      "start": 85.3393,
      "duration": 0.0127,
      "velocity": 111,
      "chip": "ym2612"
    },
    {
      "channel": 1,
      "note": 54,
      "start": 85.341,
      "duration": 0.0113,
      "velocity": 108,
      "chip": "ym2612"
    },
    {
      "channel": 2,
      "note": 49,
      "start": 85.3426,
      "duration": 0.0098,
      "velocity": 111,
      "chip": "ym2612"
    },
    {
      "channel": 3,
      "note": 61,
      "start": 85.3447,
      "duration": 0.0501,
      "velocity": 127,
      "chip": "ym2612"
    },
    {
      "channel": 4,
      "note": 54,
      "start": 85.3546,
      "duration": 0.012,
      "velocity": 111,
      "chip": "ym2612"
    },
    {
      "channel": 5,
      "note": 49,
      "start": 85.3563,
      "duration": 0.0105,
      "velocity": 111,
      "chip": "ym2612"
    },
    {
      "channel": 0,
      "note": 54,
      "start": 85.4526,
      "duration": 0.0833,
      "velocity": 111,
      "chip": "ym2612"
    },
    {
      "channel": 1,
      "note": 54,
      "start": 85.4543,
      "duration": 0.0818,
      "velocity": 108,
      "chip": "ym2612"
    },
    {
      "channel": 2,
      "note": 49,
      "start": 85.4561,
      "duration": 0.0802,
      "velocity": 111,
      "chip": "ym2612"
    },
    {
      "channel": 3,
      "note": 61,
      "start": 85.4583,
      "duration": 0.0497,
      "velocity": 127,
      "chip": "ym2612"
    },
    {
      "channel": 4,
      "note": 54,
      "start": 85.4674,
      "duration": 0.0123,
      "velocity": 111,
      "chip": "ym2612"
    },
    {
      "channel": 5,
      "note": 49,
      "start": 85.4691,
      "duration": 0.0118,
      "velocity": 111,
      "chip": "ym2612"
    },
    {
      "channel": 0,
      "note": 54,
      "start": 85.5657,
      "duration": 0.0126,
      "velocity": 111,
      "chip": "ym2612"
    },
    {
      "channel": 1,
      "note": 66,
      "start": 85.5673,
      "duration": 0.0819,
      "velocity": 108,
      "chip": "ym2612"
    },
    {
      "channel": 2,
      "note": 49,
      "start": 85.569,
      "duration": 0.0096,
      "velocity": 111,
      "chip": "ym2612"
    },
    {
      "channel": 3,
      "note": 61,
      "start": 85.5711,
      "duration": 0.05,
      "velocity": 127,
      "chip": "ym2612"
    },
    {
      "channel": 4,
      "note": 54,
      "start": 85.5818,
      "duration": 0.0834,
      "velocity": 111,
      "chip": "ym2612"
    },
    {
      "channel": 5,
      "note": 49,
      "start": 85.5836,
      "duration": 0.0818,
      "velocity": 111,
      "chip": "ym2612"
    },
    {
      "channel": 0,
      "note": 54,
      "start": 85.6788,
      "duration": 0.0127,
      "velocity": 111,
      "chip": "ym2612"
    },
    {
      "channel": 1,
      "note": 54,
      "start": 85.6812,
      "duration": 0.081,
      "velocity": 108,
      "chip": "ym2612"
    },
    {
      "channel": 2,
      "note": 49,
      "start": 85.6829,
      "duration": 0.0089,
      "velocity": 111,
      "chip": "ym2612"
    },
    {
      "channel": 3,
      "note": 61,
      "start": 85.685,
      "duration": 0.0493,
      "velocity": 127,
      "chip": "ym2612"
    },
    {
      "channel": 4,
      "note": 54,
      "start": 85.694,
      "duration": 0.012,
      "velocity": 111,
      "chip": "ym2612"
    },
    {
      "channel": 5,
      "note": 49,
      "start": 85.6957,
      "duration": 0.0106,
      "velocity": 111,
      "chip": "ym2612"
    },
    {
      "channel": 0,
      "note": 52,
      "start": 85.7922,
      "duration": 0.0831,
      "velocity": 111,
      "chip": "ym2612"
    },
    {
      "channel": 1,
      "note": 52,
      "start": 85.7941,
      "duration": 0.0814,
      "velocity": 108,
      "chip": "ym2612"
    },
    {
      "channel": 2,
      "note": 47,
      "start": 85.7961,
      "duration": 0.0797,
      "velocity": 111,
      "chip": "ym2612"
    },
    {
      "channel": 3,
      "note": 61,
      "start": 85.7992,
      "duration": 0.0488,
      "velocity": 127,
      "chip": "ym2612"
    },
    {
      "channel": 4,
      "note": 54,
      "start": 85.8069,
      "duration": 0.0123,
      "velocity": 111,
      "chip": "ym2612"
    },
    {
      "channel": 5,
      "note": 49,
      "start": 85.8086,
      "duration": 0.0108,
      "velocity": 111,
      "chip": "ym2612"
    },
    {
      "channel": 0,
      "note": 52,
      "start": 85.9051,
      "duration": 0.0127,
      "velocity": 111,
      "chip": "ym2612"
    },
    {
      "channel": 1,
      "note": 52,
      "start": 85.9067,
      "duration": 0.0826,
      "velocity": 108,
      "chip": "ym2612"
    },
    {
      "channel": 2,
      "note": 47,
      "start": 85.9084,
      "duration": 0.0097,
      "velocity": 111,
      "chip": "ym2612"
    },
    {
      "channel": 3,
      "note": 61,
      "start": 85.9105,
      "duration": 0.0501,
      "velocity": 127,
      "chip": "ym2612"
    },
    {
      "channel": 4,
      "note": 52,
      "start": 85.9206,
      "duration": 0.0829,
      "velocity": 111,
      "chip": "ym2612"
    },
    {
      "channel": 5,
      "note": 47,
      "start": 85.9225,
      "duration": 0.0812,
      "velocity": 111,
      "chip": "ym2612"
    },
    {
      "channel": 0,
      "note": 52,
      "start": 86.0182,
      "duration": 0.0128,
      "velocity": 111,
      "chip": "ym2612"
    },
    {
      "channel": 1,
      "note": 52,
      "start": 86.0198,
      "duration": 0.0113,
      "velocity": 108,
      "chip": "ym2612"
    },
    {
      "channel": 2,
      "note": 47,
      "start": 86.0215,
      "duration": 0.0099,
      "velocity": 111,
      "chip": "ym2612"
    },
    {
      "channel": 3,
      "note": 61,
      "start": 86.0236,
      "duration": 0.0502,
      "velocity": 127,
      "chip": "ym2612"
    },
    {
      "channel": 4,
      "note": 52,
      "start": 86.0336,
      "duration": 0.012,
      "velocity": 111,
      "chip": "ym2612"
    },
    {
      "channel": 5,
      "note": 47,
      "start": 86.0352,
      "duration": 0.0105,
      "velocity": 111,
      "chip": "ym2612"
    },
    {
      "channel": 0,
      "note": 52,
      "start": 86.1324,
      "duration": 0.0824,
      "velocity": 111,
      "chip": "ym2612"
    },
    {
      "channel": 1,
      "note": 52,
      "start": 86.1341,
      "duration": 0.0809,
      "velocity": 108,
      "chip": "ym2612"
    },
    {
      "channel": 2,
      "note": 47,
      "start": 86.1359,
      "duration": 0.0793,
      "velocity": 111,
      "chip": "ym2612"
    },
    {
      "channel": 3,
      "note": 61,
      "start": 86.1382,
      "duration": 0.0488,
      "velocity": 127,
      "chip": "ym2612"
    },
    {
      "channel": 4,
      "note": 52,
      "start": 86.1464,
      "duration": 0.0128,
      "velocity": 111,
      "chip": "ym2612"
    },
    {
      "channel": 5,
      "note": 47,
      "start": 86.149,
      "duration": 0.0105,
      "velocity": 111,
      "chip": "ym2612"
    },
    {
      "channel": 0,
      "note": 52,
      "start": 86.2446,
      "duration": 0.0127,
      "velocity": 111,
      "chip": "ym2612"
    },
    {
      "channel": 1,
      "note": 64,
      "start": 86.2462,
      "duration": 0.0822,
      "velocity": 108,
      "chip": "ym2612"
    },
    {
      "channel": 2,
      "note": 47,
      "start": 86.2487,
      "duration": 0.0088,
      "velocity": 111,
      "chip": "ym2612"
    },
    {
      "channel": 3,
      "note": 61,
      "start": 86.2508,
      "duration": 0.0492,
      "velocity": 127,
      "chip": "ym2612"
    },
    {
      "channel": 4,
      "note": 52,
      "start": 86.2599,
      "duration": 0.0831,
      "velocity": 111,
      "chip": "ym2612"
    },
    {
      "channel": 5,
      "note": 47,
      "start": 86.2617,
      "duration": 0.0815,
      "velocity": 111,
      "chip": "ym2612"
    },
    {
      "channel": 0,
      "note": 52,
      "start": 86.3577,
      "duration": 0.0127,
      "velocity": 111,
      "chip": "ym2612"
    },
    {
      "channel": 1,
      "note": 52,
      "start": 86.3593,
      "duration": 0.0819,
      "velocity": 108,
      "chip": "ym2612"
    },
    {
      "channel": 2,
      "note": 47,
      "start": 86.361,
      "duration": 0.0097,
      "velocity": 111,
      "chip": "ym2612"
    },
    {
      "channel": 3,
      "note": 61,
      "start": 86.3631,
      "duration": 0.051,
      "velocity": 127,
      "chip": "ym2612"
    },
    {
      "channel": 4,
      "note": 52,
      "start": 86.3729,
      "duration": 0.012,
      "velocity": 111,
      "chip": "ym2612"
    },
    {
      "channel": 5,
      "note": 47,
      "start": 86.3746,
      "duration": 0.0106,
      "velocity": 111,
      "chip": "ym2612"
    },
    {
      "channel": 0,
      "note": 54,
      "start": 86.4714,
      "duration": 1.3427,
      "velocity": 111,
      "chip": "ym2612"
    },
    {
      "channel": 1,
      "note": 54,
      "start": 86.4738,
      "duration": 0.0948,
      "velocity": 108,
      "chip": "ym2612"
    },
    {
      "channel": 2,
      "note": 49,
      "start": 86.476,
      "duration": 1.3383,
      "velocity": 111,
      "chip": "ym2612"
    },
    {
      "channel": 3,
      "note": 61,
      "start": 86.4827,
      "duration": 0.0579,
      "velocity": 127,
      "chip": "ym2612"
    },
    {
      "channel": 4,
      "note": 52,
      "start": 86.5006,
      "duration": 0.0117,
      "velocity": 111,
      "chip": "ym2612"
    },
    {
      "channel": 5,
      "note": 47,
      "start": 86.5023,
      "duration": 0.0102,
      "velocity": 111,
      "chip": "ym2612"
    },
    {
      "channel": 1,
      "note": 66,
      "start": 86.5991,
      "duration": 0.0551,
      "velocity": 108,
      "chip": "ym2612"
    },
    {
      "channel": 4,
      "note": 54,
      "start": 86.6145,
      "duration": 1.3268,
      "velocity": 111,
      "chip": "ym2612"
    },
    {
      "channel": 5,
      "note": 49,
      "start": 86.6167,
      "duration": 1.3248,
      "velocity": 111,
      "chip": "ym2612"
    },
    {
      "channel": 1,
      "note": 54,
      "start": 86.7116,
      "duration": 0.0833,
      "velocity": 108,
      "chip": "ym2612"
    },
    {
      "channel": 3,
      "note": 61,
      "start": 86.7146,
      "duration": 0.0522,
      "velocity": 127,
      "chip": "ym2612"
    },
    {
      "channel": 1,
      "note": 66,
      "start": 86.8251,
      "duration": 0.0546,
      "velocity": 108,
      "chip": "ym2612"
    },
    {
      "channel": 3,
      "note": 61,
      "start": 86.8314,
      "duration": 0.0497,
      "velocity": 127,
      "chip": "ym2612"
    },
    {
      "channel": 1,
      "note": 54,
      "start": 86.9379,
      "duration": 0.0833,
      "velocity": 108,
      "chip": "ym2612"
    },
    {
      "channel": 3,
      "note": 61,
      "start": 86.9433,
      "duration": 0.0501,
      "velocity": 127,
      "chip": "ym2612"
    },
    {
      "channel": 1,
      "note": 66,
      "start": 87.051,
      "duration": 0.0551,
      "velocity": 108,
      "chip": "ym2612"
    },
    {
      "channel": 3,
      "note": 61,
      "start": 87.0563,
      "duration": 0.0501,
      "velocity": 127,
      "chip": "ym2612"
    },
    {
      "channel": 1,
      "note": 54,
      "start": 87.1651,
      "duration": 0.0826,
      "velocity": 108,
      "chip": "ym2612"
    },
    {
      "channel": 3,
      "note": 61,
      "start": 87.1705,
      "duration": 0.049,
      "velocity": 127,
      "chip": "ym2612"
    },
    {
      "channel": 1,
      "note": 66,
      "start": 87.2773,
      "duration": 0.0551,
      "velocity": 108,
      "chip": "ym2612"
    },
    {
      "channel": 1,
      "note": 54,
      "start": 87.3905,
      "duration": 0.0833,
      "velocity": 108,
      "chip": "ym2612"
    },
    {
      "channel": 3,
      "note": 61,
      "start": 87.3927,
      "duration": 0.053,
      "velocity": 127,
      "chip": "ym2612"
    },
    {
      "channel": 1,
      "note": 66,
      "start": 87.5036,
      "duration": 0.0551,
      "velocity": 108,
      "chip": "ym2612"
    },
    {
      "channel": 3,
      "note": 61,
      "start": 87.509,
      "duration": 0.0501,
      "velocity": 127,
      "chip": "ym2612"
    },
    {
      "channel": 1,
      "note": 54,
      "start": 87.6168,
      "duration": 0.0833,
      "velocity": 108,
      "chip": "ym2612"
    },
    {
      "channel": 3,
      "note": 61,
      "start": 87.6222,
      "duration": 0.0499,
      "velocity": 127,
      "chip": "ym2612"
    },
    {
      "channel": 1,
      "note": 66,
      "start": 87.7307,
      "duration": 0.0543,
      "velocity": 108,
      "chip": "ym2612"
    },
    {
      "channel": 3,
      "note": 61,
      "start": 87.7329,
      "duration": 0.0525,
      "velocity": 127,
      "chip": "ym2612"
    },
    {
      "channel": 0,
      "note": 53,
      "start": 87.8429,
      "duration": 1.3282,
      "velocity": 111,
      "chip": "ym2612"
    },
    {
      "channel": 1,
      "note": 54,
      "start": 87.8447,
      "duration": 0.0817,
      "velocity": 108,
      "chip": "ym2612"
    },
    {
      "channel": 2,
      "note": 48,
      "start": 87.8464,
      "duration": 1.3251,
      "velocity": 111,
      "chip": "ym2612"
    },
    {
      "channel": 3,
      "note": 61,
      "start": 87.8527,
      "duration": 0.0457,
      "velocity": 127,
      "chip": "ym2612"
    },
    {
      "channel": 1,
      "note": 66,
      "start": 87.9562,
      "duration": 0.0551,
      "velocity": 108,
      "chip": "ym2612"
    },
    {
      "channel": 4,
      "note": 53,
      "start": 87.971,
      "duration": 1.3282,
      "velocity": 111,
      "chip": "ym2612"
    },
    {
      "channel": 5,
      "note": 48,
      "start": 87.9727,
      "duration": 1.3268,
      "velocity": 111,
      "chip": "ym2612"
    },
    {
      "channel": 1,
      "note": 54,
      "start": 88.0695,
      "duration": 0.0838,
      "velocity": 108,
      "chip": "ym2612"
    },
    {
      "channel": 3,
      "note": 61,
      "start": 88.0717,
      "duration": 0.0531,
      "velocity": 127,
      "chip": "ym2612"
    },
    {
      "channel": 1,
      "note": 66,
      "start": 88.1825,
      "duration": 0.0551,
      "velocity": 108,
      "chip": "ym2612"
    },
    {
      "channel": 3,
      "note": 61,
      "start": 88.1879,
      "duration": 0.0501,
      "velocity": 127,
      "chip": "ym2612"
    },
    {
      "channel": 1,
      "note": 54,
      "start": 88.2958,
      "duration": 0.0833,
      "velocity": 108,
      "chip": "ym2612"
    },
    {
      "channel": 3,
      "note": 61,
      "start": 88.302,
      "duration": 0.0491,
      "velocity": 127,
      "chip": "ym2612"
    },
    {
      "channel": 1,
      "note": 66,
      "start": 88.4088,
      "duration": 0.0555,
      "velocity": 108,
      "chip": "ym2612"
    },
    {
      "channel": 3,
      "note": 61,
      "start": 88.4151,
      "duration": 0.0496,
      "velocity": 127,
      "chip": "ym2612"
    },
    {
      "channel": 1,
      "note": 54,
      "start": 88.5221,
      "duration": 0.0833,
      "velocity": 108,
      "chip": "ym2612"
    },
    {
      "channel": 3,
      "note": 61,
      "start": 88.5275,
      "duration": 0.0499,
      "velocity": 127,
      "chip": "ym2612"
    },
    {
      "channel": 1,
      "note": 66,
      "start": 88.6352,
      "duration": 0.0551,
      "velocity": 108,
      "chip": "ym2612"
    },
    {
      "channel": 1,
      "note": 54,
      "start": 88.7492,
      "duration": 0.0826,
      "velocity": 108,
      "chip": "ym2612"
    },
    {
      "channel": 3,
      "note": 61,
      "start": 88.7515,
      "duration": 0.0523,
      "velocity": 127,
      "chip": "ym2612"
    },
    {
      "channel": 1,
      "note": 66,
      "start": 88.8615,
      "duration": 0.0551,
      "velocity": 108,
      "chip": "ym2612"
    },
    {
      "channel": 3,
      "note": 61,
      "start": 88.8677,
      "duration": 0.0493,
      "velocity": 127,
      "chip": "ym2612"
    },
    {
      "channel": 1,
      "note": 54,
      "start": 88.9748,
      "duration": 0.0833,
      "velocity": 108,
      "chip": "ym2612"
    },
    {
      "channel": 3,
      "note": 61,
      "start": 88.981,
      "duration": 0.0499,
      "velocity": 127,
      "chip": "ym2612"
    },
    {
      "channel": 1,
      "note": 66,
      "start": 89.0878,
      "duration": 0.0551,
      "velocity": 108,
      "chip": "ym2612"
    },
    {
      "channel": 3,
      "note": 61,
      "start": 89.09,
      "duration": 0.0533,
      "velocity": 127,
      "chip": "ym2612"
    },
    {
      "channel": 0,
      "note": 52,
      "start": 89.2008,
      "duration": 1.3282,
      "velocity": 111,
      "chip": "ym2612"
    },
    {
      "channel": 1,
      "note": 54,
      "start": 89.2026,
      "duration": 0.0817,
      "velocity": 108,
      "chip": "ym2612"
    },
    {
      "channel": 2,
      "note": 47,
      "start": 89.2043,
      "duration": 1.3251,
      "velocity": 111,
      "chip": "ym2612"
    },
    {
      "channel": 3,
      "note": 61,
      "start": 89.2097,
      "duration": 0.0467,
      "velocity": 127,
      "chip": "ym2612"
    },
    {
      "channel": 1,
      "note": 66,
      "start": 89.3158,
      "duration": 0.0534,
      "velocity": 108,
      "chip": "ym2612"
    },
    {
      "channel": 4,
      "note": 52,
      "start": 89.3289,
      "duration": 1.3283,
      "velocity": 111,
      "chip": "ym2612"
    },
    {
      "channel": 5,
      "note": 47,
      "start": 89.3315,
      "duration": 1.3259,
      "velocity": 111,
      "chip": "ym2612"
    },
    {
      "channel": 1,
      "note": 54,
      "start": 89.4274,
      "duration": 0.0833,
      "velocity": 108,
      "chip": "ym2612"
    },
    {
      "channel": 3,
      "note": 61,
      "start": 89.4296,
      "duration": 0.0536,
      "velocity": 127,
      "chip": "ym2612"
    },
    {
      "channel": 1,
      "note": 66,
      "start": 89.5405,
      "duration": 0.0551,
      "velocity": 108,
      "chip": "ym2612"
    },
    {
      "channel": 3,
      "note": 61,
      "start": 89.5459,
      "duration": 0.0501,
      "velocity": 127,
      "chip": "ym2612"
    },
    {
      "channel": 1,
      "note": 54,
      "start": 89.6539,
      "duration": 0.0831,
      "velocity": 108,
      "chip": "ym2612"
    },
    {
      "channel": 3,
      "note": 61,
      "start": 89.6593,
      "duration": 0.0498,
      "velocity": 127,
      "chip": "ym2612"
    },
    {
      "channel": 1,
      "note": 66,
      "start": 89.7667,
      "duration": 0.0552,
      "velocity": 108,
      "chip": "ym2612"
    },
    {
      "channel": 3,
      "note": 61,
      "start": 89.7721,
      "duration": 0.0501,
      "velocity": 127,
      "chip": "ym2612"
    },
    {
      "channel": 1,
      "note": 54,
      "start": 89.8808,
      "duration": 0.0833,
      "velocity": 108,
      "chip": "ym2612"
    },
    {
      "channel": 3,
      "note": 61,
      "start": 89.8863,
      "duration": 0.049,
      "velocity": 127,
      "chip": "ym2612"
    },
    {
      "channel": 1,
      "note": 66,
      "start": 89.9931,
      "duration": 0.0551,
      "velocity": 108,
      "chip": "ym2612"
    },
    {
      "channel": 1,
      "note": 54,
      "start": 90.1063,
      "duration": 0.0833,
      "velocity": 108,
      "chip": "ym2612"
    },
    {
      "channel": 3,
      "note": 61,
      "start": 90.1086,
      "duration": 0.0531,
      "velocity": 127,
      "chip": "ym2612"
    },
    {
      "channel": 1,
      "note": 66,
      "start": 90.2194,
      "duration": 0.0551,
      "velocity": 108,
      "chip": "ym2612"
    },
    {
      "channel": 3,
      "note": 61,
      "start": 90.2248,
      "duration": 0.0501,
      "velocity": 127,
      "chip": "ym2612"
    },
    {
      "channel": 1,
      "note": 54,
      "start": 90.3329,
      "duration": 0.0831,
      "velocity": 108,
      "chip": "ym2612"
    },
    {
      "channel": 3,
      "note": 61,
      "start": 90.3382,
      "duration": 0.0497,
      "velocity": 127,
      "chip": "ym2612"
    },
    {
      "channel": 1,
      "note": 66,
      "start": 90.4457,
      "duration": 0.0551,
      "velocity": 108,
      "chip": "ym2612"
    },
    {
      "channel": 3,
      "note": 61,
      "start": 90.4487,
      "duration": 0.0525,
      "velocity": 127,
      "chip": "ym2612"
    },
    {
      "channel": 0,
      "note": 51,
      "start": 90.5587,
      "duration": 1.3282,
      "velocity": 111,
      "chip": "ym2612"
    },
    {
      "channel": 1,
      "note": 54,
      "start": 90.5605,
      "duration": 0.0824,
      "velocity": 108,
      "chip": "ym2612"
    },
    {
      "channel": 2,
      "note": 46,
      "start": 90.5622,
      "duration": 1.325,
      "velocity": 111,
      "chip": "ym2612"
    },
    {
      "channel": 3,
      "note": 61,
      "start": 90.5685,
      "duration": 0.0461,
      "velocity": 127,
      "chip": "ym2612"
    },
    {
      "channel": 1,
      "note": 66,
      "start": 90.672,
      "duration": 0.0551,
      "velocity": 108,
      "chip": "ym2612"
    },
    {
      "channel": 4,
      "note": 51,
      "start": 90.6869,
      "duration": 1.3282,
      "velocity": 111,
      "chip": "ym2612"
    },
    {
      "channel": 5,
      "note": 46,
      "start": 90.6885,
      "duration": 1.3268,
      "velocity": 111,
      "chip": "ym2612"
    },
    {
      "channel": 1,
      "note": 54,
      "start": 90.7853,
      "duration": 0.0833,
      "velocity": 108,
      "chip": "ym2612"
    },
    {
      "channel": 3,
      "note": 61,
      "start": 90.7875,
      "duration": 0.053,
      "velocity": 127,
      "chip": "ym2612"
    },
    {
      "channel": 1,
      "note": 66,
      "start": 90.8991,
      "duration": 0.0543,
      "velocity": 108,
      "chip": "ym2612"
    },
    {
      "channel": 3,
      "note": 61,
      "start": 90.9045,
      "duration": 0.0494,
      "velocity": 127,
      "chip": "ym2612"
    },
    {
      "channel": 1,
      "note": 54,
      "start": 91.0116,
      "duration": 0.0833,
      "velocity": 108,
      "chip": "ym2612"
    },
    {
      "channel": 3,
      "note": 61,
      "start": 91.0178,
      "duration": 0.0491,
      "velocity": 127,
      "chip": "ym2612"
    },
    {
      "channel": 1,
      "note": 66,
      "start": 91.1247,
      "duration": 0.0551,
      "velocity": 108,
      "chip": "ym2612"
    },
    {
      "channel": 3,
      "note": 61,
      "start": 91.1309,
      "duration": 0.0501,
      "velocity": 127,
      "chip": "ym2612"
    },
    {
      "channel": 1,
      "note": 54,
      "start": 91.238,
      "duration": 0.0833,
      "velocity": 108,
      "chip": "ym2612"
    },
    {
      "channel": 3,
      "note": 61,
      "start": 91.2434,
      "duration": 0.0499,
      "velocity": 127,
      "chip": "ym2612"
    },
    {
      "channel": 1,
      "note": 66,
      "start": 91.351,
      "duration": 0.0551,
      "velocity": 108,
      "chip": "ym2612"
    },
    {
      "channel": 1,
      "note": 54,
      "start": 91.4651,
      "duration": 0.0826,
      "velocity": 108,
      "chip": "ym2612"
    },
    {
      "channel": 3,
      "note": 61,
      "start": 91.4673,
      "duration": 0.0523,
      "velocity": 127,
      "chip": "ym2612"
    },
    {
      "channel": 1,
      "note": 66,
      "start": 91.5773,
      "duration": 0.0551,
      "velocity": 108,
      "chip": "ym2612"
    },
    {
      "channel": 3,
      "note": 61,
      "start": 91.5835,
      "duration": 0.0493,
      "velocity": 127,
      "chip": "ym2612"
    },
    {
      "channel": 1,
      "note": 54,
      "start": 91.6906,
      "duration": 0.0833,
      "velocity": 108,
      "chip": "ym2612"
    },
    {
      "channel": 3,
      "note": 61,
      "start": 91.696,
      "duration": 0.0499,
      "velocity": 127,
      "chip": "ym2612"
    },
    {
      "channel": 1,
      "note": 66,
      "start": 91.8036,
      "duration": 0.0551,
      "velocity": 108,
      "chip": "ym2612"
    },
    {
      "channel": 3,
      "note": 61,
      "start": 91.8058,
      "duration": 0.0533,
      "velocity": 127,
      "chip": "ym2612"
    },
    {
      "channel": 0,
      "note": 54,
      "start": 91.9169,
      "duration": 1.3279,
      "velocity": 111,
      "chip": "ym2612"
    },
    {
      "channel": 1,
      "note": 54,
      "start": 91.9188,
      "duration": 0.0814,
      "velocity": 108,
      "chip": "ym2612"
    },
    {
      "channel": 2,
      "note": 49,
      "start": 91.9207,
      "duration": 1.3244,
      "velocity": 111,
      "chip": "ym2612"
    },
    {
      "channel": 3,
      "note": 61,
      "start": 91.9261,
      "duration": 0.0468,
      "velocity": 127,
      "chip": "ym2612"
    },
    {
      "channel": 1,
      "note": 66,
      "start": 92.0307,
      "duration": 0.0543,
      "velocity": 108,
      "chip": "ym2612"
    },
    {
      "channel": 4,
      "note": 54,
      "start": 92.0451,
      "duration": 1.3278,
      "velocity": 111,
      "chip": "ym2612"
    },
    {
      "channel": 5,
      "note": 49,
      "start": 92.0479,
      "duration": 1.3253,
      "velocity": 111,
      "chip": "ym2612"
    },
    {
      "channel": 1,
      "note": 54,
      "start": 92.1436,
      "duration": 0.0829,
      "velocity": 108,
      "chip": "ym2612"
    },
    {
      "channel": 3,
      "note": 61,
      "start": 92.1458,
      "duration": 0.0527,
      "velocity": 127,
      "chip": "ym2612"
    },
    {
      "channel": 1,
      "note": 66,
      "start": 92.2562,
      "duration": 0.0552,
      "velocity": 108,
      "chip": "ym2612"
    },
    {
      "channel": 3,
      "note": 61,
      "start": 92.2616,
      "duration": 0.0502,
      "velocity": 127,
      "chip": "ym2612"
    },
    {
      "channel": 1,
      "note": 54,
      "start": 92.3695,
      "duration": 0.0833,
      "velocity": 108,
      "chip": "ym2612"
    },
    {
      "channel": 3,
      "note": 61,
      "start": 92.3749,
      "duration": 0.0499,
      "velocity": 127,
      "chip": "ym2612"
    },
    {
      "channel": 1,
      "note": 66,
      "start": 92.4833,
      "duration": 0.0544,
      "velocity": 108,
      "chip": "ym2612"
    },
    {
      "channel": 3,
      "note": 61,
      "start": 92.4887,
      "duration": 0.0494,
      "velocity": 127,
      "chip": "ym2612"
    },
    {
      "channel": 1,
      "note": 54,
      "start": 92.5959,
      "duration": 0.0833,
      "velocity": 108,
      "chip": "ym2612"
    },
    {
      "channel": 3,
      "note": 61,
      "start": 92.6021,
      "duration": 0.049,
      "velocity": 127,
      "chip": "ym2612"
    },
    {
      "channel": 1,
      "note": 66,
      "start": 92.7088,
      "duration": 0.0555,
      "velocity": 108,
      "chip": "ym2612"
    },
    {
      "channel": 1,
      "note": 54,
      "start": 92.8222,
      "duration": 0.0833,
      "velocity": 108,
      "chip": "ym2612"
    },
    {
      "channel": 3,
      "note": 61,
      "start": 92.8244,
      "duration": 0.0531,
      "velocity": 127,
      "chip": "ym2612"
    },
    {
      "channel": 1,
      "note": 66,
      "start": 92.9352,
      "duration": 0.0551,
      "velocity": 108,
      "chip": "ym2612"
    },
    {
      "channel": 3,
      "note": 61,
      "start": 92.9406,
      "duration": 0.0501,
      "velocity": 127,
      "chip": "ym2612"
    },
    {
      "channel": 1,
      "note": 54,
      "start": 93.0492,
      "duration": 0.0825,
      "velocity": 108,
      "chip": "ym2612"
    },
    {
      "channel": 3,
      "note": 61,
      "start": 93.0546,
      "duration": 0.0491,
      "velocity": 127,
      "chip": "ym2612"
    },
    {
      "channel": 1,
      "note": 66,
      "start": 93.1615,
      "duration": 0.0552,
      "velocity": 108,
      "chip": "ym2612"
    },
    {
      "channel": 3,
      "note": 61,
      "start": 93.1646,
      "duration": 0.0525,
      "velocity": 127,
      "chip": "ym2612"
    },
    {
      "channel": 0,
      "note": 53,
      "start": 93.2745,
      "duration": 1.3282,
      "velocity": 111,
      "chip": "ym2612"
    },
    {
      "channel": 1,
      "note": 54,
      "start": 93.2763,
      "duration": 0.0817,
      "velocity": 108,
      "chip": "ym2612"
    },
    {
      "channel": 2,
      "note": 48,
      "start": 93.278,
      "duration": 1.3251,
      "velocity": 111,
      "chip": "ym2612"
    },
    {
      "channel": 3,
      "note": 61,
      "start": 93.2843,
      "duration": 0.0468,
      "velocity": 127,
      "chip": "ym2612"
    },
    {
      "channel": 1,
      "note": 66,
      "start": 93.3878,
      "duration": 0.0551,
      "velocity": 108,
      "chip": "ym2612"
    },
    {
      "channel": 4,
      "note": 53,
      "start": 93.4027,
      "duration": 1.329,
      "velocity": 111,
      "chip": "ym2612"
    },
    {
      "channel": 5,
      "note": 48,
      "start": 93.4044,
      "duration": 1.3276,
      "velocity": 111,
      "chip": "ym2612"
    },
    {
      "channel": 1,
      "note": 54,
      "start": 93.5011,
      "duration": 0.0833,
      "velocity": 108,
      "chip": "ym2612"
    },
    {
      "channel": 3,
      "note": 61,
      "start": 93.5034,
      "duration": 0.0531,
      "velocity": 127,
      "chip": "ym2612"
    },
    {
      "channel": 1,
      "note": 66,
      "start": 93.615,
      "duration": 0.0543,
      "velocity": 108,
      "chip": "ym2612"
    },
    {
      "channel": 3,
      "note": 61,
      "start": 93.6204,
      "duration": 0.0492,
      "velocity": 127,
      "chip": "ym2612"
    },
    {
      "channel": 1,
      "note": 54,
      "start": 93.7275,
      "duration": 0.0833,
      "velocity": 108,
      "chip": "ym2612"
    },
    {
      "channel": 3,
      "note": 61,
      "start": 93.7337,
      "duration": 0.0491,
      "velocity": 127,
      "chip": "ym2612"
    },
    {
      "channel": 1,
      "note": 66,
      "start": 93.8405,
      "duration": 0.0551,
      "velocity": 108,
      "chip": "ym2612"
    },
    {
      "channel": 3,
      "note": 61,
      "start": 93.8459,
      "duration": 0.0501,
      "velocity": 127,
      "chip": "ym2612"
    },
    {
      "channel": 1,
      "note": 54,
      "start": 93.9537,
      "duration": 0.0833,
      "velocity": 108,
      "chip": "ym2612"
    },
    {
      "channel": 3,
      "note": 61,
      "start": 93.9592,
      "duration": 0.0499,
      "velocity": 127,
      "chip": "ym2612"
    },
    {
      "channel": 1,
      "note": 66,
      "start": 94.0668,
      "duration": 0.0551,
      "velocity": 108,
      "chip": "ym2612"
    },
    {
      "channel": 1,
      "note": 54,
      "start": 94.1809,
      "duration": 0.0834,
      "velocity": 108,
      "chip": "ym2612"
    },
    {
      "channel": 3,
      "note": 61,
      "start": 94.1831,
      "duration": 0.0523,
      "velocity": 127,
      "chip": "ym2612"
    },
    {
      "channel": 1,
      "note": 66,
      "start": 94.2931,
      "duration": 0.0551,
      "velocity": 108,
      "chip": "ym2612"
    },
    {
      "channel": 3,
      "note": 61,
      "start": 94.2994,
      "duration": 0.0492,
      "velocity": 127,
      "chip": "ym2612"
    },
    {
      "channel": 1,
      "note": 54,
      "start": 94.4064,
      "duration": 0.0833,
      "velocity": 108,
      "chip": "ym2612"
    },
    {
      "channel": 3,
      "note": 61,
      "start": 94.4118,
      "duration": 0.0499,
      "velocity": 127,
      "chip": "ym2612"
    },
    {
      "channel": 1,
      "note": 66,
      "start": 94.5194,
      "duration": 0.0551,
      "velocity": 108,
      "chip": "ym2612"
    },
    {
      "channel": 3,
      "note": 61,
      "start": 94.5216,
      "duration": 0.0533,
      "velocity": 127,
      "chip": "ym2612"
    },
    {
      "channel": 0,
      "note": 52,
      "start": 94.6331,
      "duration": 1.328,
      "velocity": 111,
      "chip": "ym2612"
    },
    {
      "channel": 1,
      "note": 54,
      "start": 94.6349,
      "duration": 0.081,
      "velocity": 108,
      "chip": "ym2612"
    },
    {
      "channel": 2,
      "note": 47,
      "start": 94.6366,
      "duration": 1.3249,
      "velocity": 111,
      "chip": "ym2612"
    },
    {
      "channel": 3,
      "note": 61,
      "start": 94.642,
      "duration": 0.046,
      "velocity": 127,
      "chip": "ym2612"
    },
    {
      "channel": 1,
      "note": 66,
      "start": 94.7457,
      "duration": 0.0554,
      "velocity": 108,
      "chip": "ym2612"
    },
    {
      "channel": 4,
      "note": 52,
      "start": 94.7606,
      "duration": 1.3282,
      "velocity": 111,
      "chip": "ym2612"
    },
    {
      "channel": 5,
      "note": 47,
      "start": 94.7623,
      "duration": 1.3267,
      "velocity": 111,
      "chip": "ym2612"
    },
    {
      "channel": 1,
      "note": 54,
      "start": 94.859,
      "duration": 0.0833,
      "velocity": 108,
      "chip": "ym2612"
    },
    {
      "channel": 3,
      "note": 61,
      "start": 94.8612,
      "duration": 0.0534,
      "velocity": 127,
      "chip": "ym2612"
    },
    {
      "channel": 1,
      "note": 66,
      "start": 94.9721,
      "duration": 0.0551,
      "velocity": 108,
      "chip": "ym2612"
    },
    {
      "channel": 3,
      "note": 61,
      "start": 94.9775,
      "duration": 0.05,
      "velocity": 127,
      "chip": "ym2612"
    },
    {
      "channel": 1,
      "note": 54,
      "start": 95.0854,
      "duration": 0.0833,
      "velocity": 108,
      "chip": "ym2612"
    },
    {
      "channel": 3,
      "note": 61,
      "start": 95.0908,
      "duration": 0.0499,
      "velocity": 127,
      "chip": "ym2612"
    },
    {
      "channel": 1,
      "note": 66,
      "start": 95.1991,
      "duration": 0.0544,
      "velocity": 108,
      "chip": "ym2612"
    },
    {
      "channel": 3,
      "note": 61,
      "start": 95.2045,
      "duration": 0.0494,
      "velocity": 127,
      "chip": "ym2612"
    },
    {
      "channel": 1,
      "note": 54,
      "start": 95.3116,
      "duration": 0.0833,
      "velocity": 108,
      "chip": "ym2612"
    },
    {
      "channel": 3,
      "note": 61,
      "start": 95.3179,
      "duration": 0.0491,
      "velocity": 127,
      "chip": "ym2612"
    },
    {
      "channel": 1,
      "note": 66,
      "start": 95.4247,
      "duration": 0.0551,
      "velocity": 108,
      "chip": "ym2612"
    },
    {
      "channel": 1,
      "note": 54,
      "start": 95.538,
      "duration": 0.0833,
      "velocity": 108,
      "chip": "ym2612"
    },
    {
      "channel": 3,
      "note": 61,
      "start": 95.5402,
      "duration": 0.053,
      "velocity": 127,
      "chip": "ym2612"
    },
    {
      "channel": 1,
      "note": 66,
      "start": 95.651,
      "duration": 0.0552,
      "velocity": 108,
      "chip": "ym2612"
    },
    {
      "channel": 3,
      "note": 61,
      "start": 95.6564,
      "duration": 0.0501,
      "velocity": 127,
      "chip": "ym2612"
    },
    {
      "channel": 1,
      "note": 54,
      "start": 95.7651,
      "duration": 0.0825,
      "velocity": 108,
      "chip": "ym2612"
    },
    {
      "channel": 3,
      "note": 61,
      "start": 95.7705,
      "duration": 0.049,
      "velocity": 127,
      "chip": "ym2612"
    },
    {
      "channel": 1,
      "note": 66,
      "start": 95.8773,
      "duration": 0.0551,
      "velocity": 108,
      "chip": "ym2612"
    },
    {
      "channel": 3,
      "note": 61,
      "start": 95.8795,
      "duration": 0.0534,
      "velocity": 127,
      "chip": "ym2612"
    },
    {
      "channel": 0,
      "note": 51,
      "start": 95.9903,
      "duration": 1.3283,
      "velocity": 111,
      "chip": "ym2612"
    },
    {
      "channel": 1,
      "note": 54,
      "start": 95.9922,
      "duration": 0.0817,
      "velocity": 108,
      "chip": "ym2612"
    },
    {
      "channel": 2,
      "note": 46,
      "start": 95.9938,
      "duration": 1.325,
      "velocity": 111,
      "chip": "ym2612"
    },
    {
      "channel": 3,
      "note": 61,
      "start": 96.0,
      "duration": 0.0459,
      "velocity": 127,
      "chip": "ym2612"
    },
    {
      "channel": 1,
      "note": 66,
      "start": 96.1036,
      "duration": 0.0551,
      "velocity": 108,
      "chip": "ym2612"
    },
    {
      "channel": 4,
      "note": 51,
      "start": 96.1185,
      "duration": 1.3426,
      "velocity": 111,
      "chip": "ym2612"
    },
    {
      "channel": 5,
      "note": 46,
      "start": 96.1202,
      "duration": 1.3412,
      "velocity": 111,
      "chip": "ym2612"
    },
    {
      "channel": 1,
      "note": 54,
      "start": 96.217,
      "duration": 0.0832,
      "velocity": 108,
      "chip": "ym2612"
    },
    {
      "channel": 3,
      "note": 61,
      "start": 96.2191,
      "duration": 0.0531,
      "velocity": 127,
      "chip": "ym2612"
    },
    {
      "channel": 1,
      "note": 66,
      "start": 96.3308,
      "duration": 0.0543,
      "velocity": 108,
      "chip": "ym2612"
    },
    {
      "channel": 3,
      "note": 61,
      "start": 96.3362,
      "duration": 0.0493,
      "velocity": 127,
      "chip": "ym2612"
    },
    {
      "channel": 1,
      "note": 54,
      "start": 96.4432,
      "duration": 0.0833,
      "velocity": 108,
      "chip": "ym2612"
    },
    {
      "channel": 3,
      "note": 61,
      "start": 96.4495,
      "duration": 0.049,
      "velocity": 127,
      "chip": "ym2612"
    },
    {
      "channel": 1,
      "note": 66,
      "start": 96.5563,
      "duration": 0.0551,
      "velocity": 108,
      "chip": "ym2612"
    },
    {
      "channel": 3,
      "note": 61,
      "start": 96.5617,
      "duration": 0.0501,
      "velocity": 127,
      "chip": "ym2612"
    },
    {
      "channel": 1,
      "note": 54,
      "start": 96.6696,
      "duration": 0.0833,
      "velocity": 108,
      "chip": "ym2612"
    },
    {
      "channel": 3,
      "note": 61,
      "start": 96.675,
      "duration": 0.0499,
      "velocity": 127,
      "chip": "ym2612"
    },
    {
      "channel": 1,
      "note": 66,
      "start": 96.7826,
      "duration": 0.0551,
      "velocity": 108,
      "chip": "ym2612"
    },
    {
      "channel": 1,
      "note": 54,
      "start": 96.8959,
      "duration": 0.0833,
      "velocity": 108,
      "chip": "ym2612"
    },
    {
      "channel": 3,
      "note": 61,
      "start": 96.8989,
      "duration": 0.0523,
      "velocity": 127,
      "chip": "ym2612"
    },
    {
      "channel": 1,
      "note": 66,
      "start": 97.0089,
      "duration": 0.0554,
      "velocity": 108,
      "chip": "ym2612"
    },
    {
      "channel": 3,
      "note": 61,
      "start": 97.0151,
      "duration": 0.0496,
      "velocity": 127,
      "chip": "ym2612"
    },
    {
      "channel": 1,
      "note": 54,
      "start": 97.1229,
      "duration": 0.0825,
      "velocity": 108,
      "chip": "ym2612"
    },
    {
      "channel": 3,
      "note": 61,
      "start": 97.1284,
      "duration": 0.0491,
      "velocity": 127,
      "chip": "ym2612"
    },
    {
      "channel": 1,
      "note": 66,
      "start": 97.2352,
      "duration": 0.0556,
      "velocity": 108,
      "chip": "ym2612"
    },
    {
      "channel": 3,
      "note": 61,
      "start": 97.2375,
      "duration": 0.0538,
      "velocity": 127,
      "chip": "ym2612"
    },
    {
      "channel": 0,
      "note": 21,
      "start": 97.3492,
      "duration": 0.0259,
      "velocity": 111,
      "chip": "ym2612"
    },
    {
      "channel": 1,
      "note": 52,
      "start": 97.3515,
      "duration": 0.2076,
      "velocity": 108,
      "chip": "ym2612"
    },
    {
      "channel": 2,
      "note": 112,
      "start": 97.3534,
      "duration": 0.022,
      "velocity": 111,
      "chip": "ym2612"
    },
    {
      "channel": 3,
      "note": 76,
      "start": 97.3595,
      "duration": 0.0167,
      "velocity": 112,
      "chip": "ym2612"
    },
    {
      "channel": 3,
      "note": 76,
      "start": 97.4198,
      "duration": 0.0128,
      "velocity": 112,
      "chip": "ym2612"
    },
    {
      "channel": 3,
      "note": 76,
      "start": 97.4778,
      "duration": 0.0114,
      "velocity": 112,
      "chip": "ym2612"
    },
    {
      "channel": 4,
      "note": 21,
      "start": 97.4911,
      "duration": 0.0122,
      "velocity": 111,
      "chip": "ym2612"
    },
    {
      "channel": 5,
      "note": 112,
      "start": 97.4931,
      "duration": 0.0104,
      "velocity": 111,
      "chip": "ym2612"
    },
    {
      "channel": 1,
      "note": 54,
      "start": 97.5889,
      "duration": 0.0127,
      "velocity": 108,
      "chip": "ym2612"
    },
    {
      "channel": 3,
      "note": 76,
      "start": 97.5911,
      "duration": 0.0113,
      "velocity": 112,
      "chip": "ym2612"
    },
    {
      "channel": 1,
      "note": 66,
      "start": 97.702,
      "duration": 0.0551,
      "velocity": 108,
      "chip": "ym2612"
    },
    {
      "channel": 3,
      "note": 71,
      "start": 97.7044,
      "duration": 0.011,
      "velocity": 112,
      "chip": "ym2612"
    },
    {
      "channel": 3,
      "note": 71,
      "start": 97.7593,
      "duration": 0.0127,
      "velocity": 112,
      "chip": "ym2612"
    },
    {
      "channel": 1,
      "note": 54,
      "start": 97.8158,
      "duration": 0.0121,
      "velocity": 108,
      "chip": "ym2612"
    },
    {
      "channel": 3,
      "note": 71,
      "start": 97.8179,
      "duration": 0.0107,
      "velocity": 112,
      "chip": "ym2612"
    },
    {
      "channel": 1,
      "note": 64,
      "start": 97.9284,
      "duration": 0.0551,
      "velocity": 108,
      "chip": "ym2612"
    },
    {
      "channel": 3,
      "note": 71,
      "start": 97.9314,
      "duration": 0.0104,
      "velocity": 112,
      "chip": "ym2612"
    },
    {
      "channel": 1,
      "note": 61,
      "start": 98.0415,
      "duration": 0.0127,
      "velocity": 108,
      "chip": "ym2612"
    },
    {
      "channel": 3,
      "note": 66,
      "start": 98.0439,
      "duration": 0.0111,
      "velocity": 112,
      "chip": "ym2612"
    },
    {
      "channel": 3,
      "note": 66,
      "start": 98.0996,
      "duration": 0.0119,
      "velocity": 112,
      "chip": "ym2612"
    },
    {
      "channel": 1,
      "note": 59,
      "start": 98.1546,
      "duration": 0.0127,
      "velocity": 108,
      "chip": "ym2612"
    },
    {
      "channel": 3,
      "note": 66,
      "start": 98.1569,
      "duration": 0.0113,
      "velocity": 112,
      "chip": "ym2612"
    },
    {
      "channel": 1,
      "note": 61,
      "start": 98.2677,
      "duration": 0.014,
      "velocity": 108,
      "chip": "ym2612"
    },
    {
      "channel": 3,
      "note": 66,
      "start": 98.27,
      "duration": 0.0127,
      "velocity": 112,
      "chip": "ym2612"
    },
    {
      "channel": 1,
      "note": 52,
      "start": 98.3818,
      "duration": 0.3089,
      "velocity": 108,
      "chip": "ym2612"
    },
    {
      "channel": 3,
      "note": 61,
      "start": 98.3875,
      "duration": 0.0348,
      "velocity": 127,
      "chip": "ym2612"
    },
    {
      "channel": 3,
      "note": 61,
      "start": 98.4382,
      "duration": 0.0406,
      "velocity": 127,
      "chip": "ym2612"
    },
    {
      "channel": 3,
      "note": 61,
      "start": 98.4948,
      "duration": 0.0548,
      "velocity": 127,
      "chip": "ym2612"
    },
    {
      "channel": 3,
      "note": 61,
      "start": 98.6079,
      "duration": 0.0549,
      "velocity": 127,
      "chip": "ym2612"
    },
    {
      "channel": 0,
      "note": 21,
      "start": 98.7203,
      "duration": 0.0127,
      "velocity": 111,
      "chip": "ym2612"
    },
    {
      "channel": 1,
      "note": 52,
      "start": 98.7221,
      "duration": 0.1949,
      "velocity": 108,
      "chip": "ym2612"
    },
    {
      "channel": 2,
      "note": 112,
      "start": 98.7238,
      "duration": 0.0095,
      "velocity": 111,
      "chip": "ym2612"
    },
    {
      "channel": 3,
      "note": 76,
      "start": 98.7294,
      "duration": 0.0046,
      "velocity": 112,
      "chip": "ym2612"
    },
    {
      "channel": 3,
      "note": 76,
      "start": 98.7777,
      "duration": 0.013,
      "velocity": 112,
      "chip": "ym2612"
    },
    {
      "channel": 3,
      "note": 76,
      "start": 98.8357,
      "duration": 0.0122,
      "velocity": 112,
      "chip": "ym2612"
    },
    {
      "channel": 4,
      "note": 21,
      "start": 98.8495,
      "duration": 0.0117,
      "velocity": 111,
      "chip": "ym2612"
    },
    {
      "channel": 5,
      "note": 112,
      "start": 98.8511,
      "duration": 0.0102,
      "velocity": 111,
      "chip": "ym2612"
    },
    {
      "channel": 1,
      "note": 54,
      "start": 98.9476,
      "duration": 0.0119,
      "velocity": 108,
      "chip": "ym2612"
    },
    {
      "channel": 3,
      "note": 76,
      "start": 98.9498,
      "duration": 0.0105,
      "velocity": 112,
      "chip": "ym2612"
    },
    {
      "channel": 1,
      "note": 66,
      "start": 99.0599,
      "duration": 0.0559,
      "velocity": 108,
      "chip": "ym2612"
    },
    {
      "channel": 3,
      "note": 71,
      "start": 99.0623,
      "duration": 0.0111,
      "velocity": 112,
      "chip": "ym2612"
    },
    {
      "channel": 3,
      "note": 71,
      "start": 99.1179,
      "duration": 0.0128,
      "velocity": 112,
      "chip": "ym2612"
    },
    {
      "channel": 1,
      "note": 54,
      "start": 99.1731,
      "duration": 0.0127,
      "velocity": 108,
      "chip": "ym2612"
    },
    {
      "channel": 3,
      "note": 71,
      "start": 99.1753,
      "duration": 0.0113,
      "velocity": 112,
      "chip": "ym2612"
    },
    {
      "channel": 1,
      "note": 64,
      "start": 99.2867,
      "duration": 0.0546,
      "velocity": 108,
      "chip": "ym2612"
    },
    {
      "channel": 3,
      "note": 71,
      "start": 99.2889,
      "duration": 0.0108,
      "velocity": 112,
      "chip": "ym2612"
    },
    {
      "channel": 1,
      "note": 61,
      "start": 99.3994,
      "duration": 0.0127,
      "velocity": 108,
      "chip": "ym2612"
    },
    {
      "channel": 3,
      "note": 66,
      "start": 99.4018,
      "duration": 0.0111,
      "velocity": 112,
      "chip": "ym2612"
    },
    {
      "channel": 3,
      "note": 66,
      "start": 99.4568,
      "duration": 0.0126,
      "velocity": 112,
      "chip": "ym2612"
    },
    {
      "channel": 1,
      "note": 59,
      "start": 99.5125,
      "duration": 0.0127,
      "velocity": 108,
      "chip": "ym2612"
    },
    {
      "channel": 3,
      "note": 66,
      "start": 99.5156,
      "duration": 0.0105,
      "velocity": 112,
      "chip": "ym2612"
    },
    {
      "channel": 1,
      "note": 61,
      "start": 99.6257,
      "duration": 0.0127,
      "velocity": 108,
      "chip": "ym2612"
    },
    {
      "channel": 3,
      "note": 66,
      "start": 99.6279,
      "duration": 0.0113,
      "velocity": 112,
      "chip": "ym2612"
    },
    {
      "channel": 1,
      "note": 52,
      "start": 99.7389,
      "duration": 0.3097,
      "velocity": 108,
      "chip": "ym2612"
    },
    {
      "channel": 3,
      "note": 61,
      "start": 99.7445,
      "duration": 0.0373,
      "velocity": 127,
      "chip": "ym2612"
    },
    {
      "channel": 3,
      "note": 61,
      "start": 99.7961,
      "duration": 0.0407,
      "velocity": 127,
      "chip": "ym2612"
    },
    {
      "channel": 3,
      "note": 61,
      "start": 99.8527,
      "duration": 0.0548,
      "velocity": 127,
      "chip": "ym2612"
    },
    {
      "channel": 3,
      "note": 61,
      "start": 99.9664,
      "duration": 0.0542,
      "velocity": 127,
      "chip": "ym2612"
    },
    {
      "channel": 0,
      "note": 21,
      "start": 100.0785,
      "duration": 0.0266,
      "velocity": 111,
      "chip": "ym2612"
    },
    {
      "channel": 1,
      "note": 52,
      "start": 100.0812,
      "duration": 0.2079,
      "velocity": 108,
      "chip": "ym2612"
    },
    {
      "channel": 2,
      "note": 112,
      "start": 100.0831,
      "duration": 0.0223,
      "velocity": 111,
      "chip": "ym2612"
    },
    {
      "channel": 3,
      "note": 76,
      "start": 100.0891,
      "duration": 0.017,
      "velocity": 112,
      "chip": "ym2612"
    },
    {
      "channel": 3,
      "note": 76,
      "start": 100.1498,
      "duration": 0.0127,
      "velocity": 112,
      "chip": "ym2612"
    },
    {
      "channel": 3,
      "note": 76,
      "start": 100.2078,
      "duration": 0.0113,
      "velocity": 112,
      "chip": "ym2612"
    },
    {
      "channel": 4,
      "note": 21,
      "start": 100.221,
      "duration": 0.0122,
      "velocity": 111,
      "chip": "ym2612"
    },
    {
      "channel": 5,
      "note": 112,
      "start": 100.223,
      "duration": 0.0104,
      "velocity": 111,
      "chip": "ym2612"
    },
    {
      "channel": 1,
      "note": 54,
      "start": 100.3188,
      "duration": 0.0127,
      "velocity": 108,
      "chip": "ym2612"
    },
    {
      "channel": 3,
      "note": 71,
      "start": 100.3212,
      "duration": 0.0111,
      "velocity": 112,
      "chip": "ym2612"
    },
    {
      "channel": 1,
      "note": 66,
      "start": 100.4324,
      "duration": 0.0546,
      "velocity": 108,
      "chip": "ym2612"
    },
    {
      "channel": 3,
      "note": 71,
      "start": 100.4347,
      "duration": 0.0114,
      "velocity": 112,
      "chip": "ym2612"
    },
    {
      "channel": 1,
      "note": 54,
      "start": 100.5451,
      "duration": 0.0127,
      "velocity": 108,
      "chip": "ym2612"
    },
    {
      "channel": 3,
      "note": 66,
      "start": 100.5484,
      "duration": 0.0102,
      "velocity": 112,
      "chip": "ym2612"
    },
    {
      "channel": 1,
      "note": 64,
      "start": 100.6583,
      "duration": 0.0561,
      "velocity": 108,
      "chip": "ym2612"
    },
    {
      "channel": 3,
      "note": 66,
      "start": 100.6605,
      "duration": 0.0113,
      "velocity": 112,
      "chip": "ym2612"
    },
    {
      "channel": 1,
      "note": 61,
      "start": 100.7714,
      "duration": 0.0129,
      "velocity": 108,
      "chip": "ym2612"
    },
    {
      "channel": 3,
      "note": 61,
      "start": 100.7771,
      "duration": 0.0356,
      "velocity": 127,
      "chip": "ym2612"
    },
    {
      "channel": 3,
      "note": 61,
      "start": 100.8287,
      "duration": 0.0406,
      "velocity": 127,
      "chip": "ym2612"
    },
    {
      "channel": 1,
      "note": 59,
      "start": 100.8846,
      "duration": 0.013,
      "velocity": 108,
      "chip": "ym2612"
    },
    {
      "channel": 3,
      "note": 61,
      "start": 100.887,
      "duration": 0.0531,
      "velocity": 127,
      "chip": "ym2612"
    },
    {
      "channel": 1,
      "note": 61,
      "start": 100.9986,
      "duration": 0.0118,
      "velocity": 108,
      "chip": "ym2612"
    },
    {
      "channel": 3,
      "note": 61,
      "start": 101.001,
      "duration": 0.0522,
      "velocity": 127,
      "chip": "ym2612"
    },
    {
      "channel": 1,
      "note": 52,
      "start": 101.1116,
      "duration": 0.309,
      "velocity": 108,
      "chip": "ym2612"
    },
    {
      "channel": 3,
      "note": 61,
      "start": 101.1148,
      "duration": 0.0515,
      "velocity": 127,
      "chip": "ym2612"
    },
    {
      "channel": 3,
      "note": 61,
      "start": 101.2249,
      "duration": 0.0559,
      "velocity": 127,
      "chip": "ym2612"
    },
    {
      "channel": 3,
      "note": 61,
      "start": 101.338,
      "duration": 0.0546,
      "velocity": 127,
      "chip": "ym2612"
    },
    {
      "channel": 0,
      "note": 21,
      "start": 101.4504,
      "duration": 0.0126,
      "velocity": 111,
      "chip": "ym2612"
    },
    {
      "channel": 1,
      "note": 66,
      "start": 101.4522,
      "duration": 0.0534,
      "velocity": 108,
      "chip": "ym2612"
    },
    {
      "channel": 2,
      "note": 112,
      "start": 101.4538,
      "duration": 0.0104,
      "velocity": 111,
      "chip": "ym2612"
    },
    {
      "channel": 3,
      "note": 76,
      "start": 101.4597,
      "duration": 0.0053,
      "velocity": 112,
      "chip": "ym2612"
    },
    {
      "channel": 1,
      "note": 54,
      "start": 101.5644,
      "duration": 0.0543,
      "velocity": 108,
      "chip": "ym2612"
    },
    {
      "channel": 3,
      "note": 71,
      "start": 101.5668,
      "duration": 0.0102,
      "velocity": 112,
      "chip": "ym2612"
    },
    {
      "channel": 4,
      "note": 21,
      "start": 101.5786,
      "duration": 0.0125,
      "velocity": 111,
      "chip": "ym2612"
    },
    {
      "channel": 5,
      "note": 112,
      "start": 101.5811,
      "duration": 0.0102,
      "velocity": 111,
      "chip": "ym2612"
    },
    {
      "channel": 1,
      "note": 64,
      "start": 101.6767,
      "duration": 0.0551,
      "velocity": 108,
      "chip": "ym2612"
    },
    {
      "channel": 3,
      "note": 66,
      "start": 101.6791,
      "duration": 0.011,
      "velocity": 112,
      "chip": "ym2612"
    },
    {
      "channel": 1,
      "note": 54,
      "start": 101.7899,
      "duration": 0.0551,
      "velocity": 108,
      "chip": "ym2612"
    },
    {
      "channel": 3,
      "note": 76,
      "start": 101.7924,
      "duration": 0.0109,
      "velocity": 112,
      "chip": "ym2612"
    },
    {
      "channel": 1,
      "note": 61,
      "start": 101.903,
      "duration": 0.0552,
      "velocity": 108,
      "chip": "ym2612"
    },
    {
      "channel": 3,
      "note": 71,
      "start": 101.9054,
      "duration": 0.0111,
      "velocity": 112,
      "chip": "ym2612"
    },
    {
      "channel": 1,
      "note": 54,
      "start": 102.0161,
      "duration": 0.0551,
      "velocity": 108,
      "chip": "ym2612"
    },
    {
      "channel": 3,
      "note": 66,
      "start": 102.0186,
      "duration": 0.0111,
      "velocity": 112,
      "chip": "ym2612"
    },
    {
      "channel": 1,
      "note": 60,
      "start": 102.1293,
      "duration": 0.0551,
      "velocity": 108,
      "chip": "ym2612"
    },
    {
      "channel": 3,
      "note": 76,
      "start": 102.1327,
      "duration": 0.0101,
      "velocity": 112,
      "chip": "ym2612"
    },
    {
      "channel": 1,
      "note": 54,
      "start": 102.2425,
      "duration": 0.0551,
      "velocity": 108,
      "chip": "ym2612"
    },
    {
      "channel": 3,
      "note": 71,
      "start": 102.2449,
      "duration": 0.0111,
      "velocity": 112,
      "chip": "ym2612"
    },
    {
      "channel": 1,
      "note": 59,
      "start": 102.3556,
      "duration": 0.0552,
      "velocity": 108,
      "chip": "ym2612"
    },
    {
      "channel": 3,
      "note": 66,
      "start": 102.3581,
      "duration": 0.0111,
      "velocity": 112,
      "chip": "ym2612"
    },
    {
      "channel": 1,
      "note": 56,
      "start": 102.4688,
      "duration": 0.0551,
      "velocity": 108,
      "chip": "ym2612"
    },
    {
      "channel": 3,
      "note": 76,
      "start": 102.4714,
      "duration": 0.0109,
      "velocity": 112,
      "chip": "ym2612"
    },
    {
      "channel": 1,
      "note": 49,
      "start": 102.5824,
      "duration": 0.1963,
      "velocity": 108,
      "chip": "ym2612"
    },
    {
      "channel": 3,
      "note": 71,
      "start": 102.5849,
      "duration": 0.0106,
      "velocity": 112,
      "chip": "ym2612"
    },
    {
      "channel": 3,
      "note": 66,
      "start": 102.6983,
      "duration": 0.0102,
      "velocity": 112,
      "chip": "ym2612"
    },
    {
      "channel": 0,
      "note": 33,
      "start": 102.8085,
      "duration": 0.0266,
      "velocity": 111,
      "chip": "ym2612"
    },
    {
      "channel": 1,
      "note": 42,
      "start": 102.814,
      "duration": 2.5066,
      "velocity": 108,
      "chip": "ym2612"
    },
    {
      "channel": 2,
      "note": 33,
      "start": 102.816,
      "duration": 0.0193,
      "velocity": 111,
      "chip": "ym2612"
    },
    {
      "channel": 3,
      "note": 61,
      "start": 102.8228,
      "duration": 0.0903,
      "velocity": 127,
      "chip": "ym2612"
    },
    {
      "channel": 4,
      "note": 33,
      "start": 103.0446,
      "duration": 0.0242,
      "velocity": 111,
      "chip": "ym2612"
    },
    {
      "channel": 5,
      "note": 33,
      "start": 103.0476,
      "duration": 0.0214,
      "velocity": 111,
      "chip": "ym2612"
    },
    {
      "channel": 0,
      "note": 21,
      "start": 105.2961,
      "duration": 0.0242,
      "velocity": 111,
      "chip": "ym2612"
    },
    {
      "channel": 2,
      "note": 21,
      "start": 105.3009,
      "duration": 0.0199,
      "velocity": 111,
      "chip": "ym2612"
    },
    {
      "channel": 3,
      "note": 21,
      "start": 105.3029,
      "duration": 0.0181,
      "velocity": 127,
      "chip": "ym2612"
    },
    {
      "channel": 0,
      "note": 73,
      "start": 105.3517,
      "duration": 0.2792,
      "velocity": 95,
      "chip": "ym2612"
    },
    {
      "channel": 1,
      "note": 42,
      "start": 105.3571,
      "duration": 0.5847,
      "velocity": 108,
      "chip": "ym2612"
    },
    {
      "channel": 2,
      "note": 69,
      "start": 105.3626,
      "duration": 0.2698,
      "velocity": 95,
      "chip": "ym2612"
    },
    {
      "channel": 3,
      "note": 61,
      "start": 105.3695,
      "duration": 0.1078,
      "velocity": 127,
      "chip": "ym2612"
    },
    {
      "channel": 4,
      "note": 21,
      "start": 105.5578,
      "duration": 0.0249,
      "velocity": 111,
      "chip": "ym2612"
    },
    {
      "channel": 5,
      "note": 21,
      "start": 105.5598,
      "duration": 0.0231,
      "velocity": 111,
      "chip": "ym2612"
    },
    {
      "channel": 4,
      "note": 73,
      "start": 105.613,
      "duration": 0.2544,
      "velocity": 95,
      "chip": "ym2612"
    },
    {
      "channel": 5,
      "note": 69,
      "start": 105.6195,
      "duration": 0.2488,
      "velocity": 95,
      "chip": "ym2612"
    },
    {
      "channel": 0,
      "note": 66,
      "start": 105.6836,
      "duration": 0.2573,
      "velocity": 95,
      "chip": "ym2612"
    },
    {
      "channel": 2,
      "note": 66,
      "start": 105.6861,
      "duration": 0.2565,
      "velocity": 95,
      "chip": "ym2612"
    },
    {
      "channel": 4,
      "note": 66,
      "start": 105.9198,
      "duration": 0.2573,
      "velocity": 95,
      "chip": "ym2612"
    },
    {
      "channel": 5,
      "note": 66,
      "start": 105.9216,
      "duration": 0.2564,
      "velocity": 95,
      "chip": "ym2612"
    },
    {
      "channel": 0,
      "note": 73,
      "start": 105.9943,
      "duration": 0.2572,
      "velocity": 95,
      "chip": "ym2612"
    },
    {
      "channel": 1,
      "note": 42,
      "start": 105.996,
      "duration": 0.1527,
      "velocity": 108,
      "chip": "ym2612"
    },
    {
      "channel": 2,
      "note": 69,
      "start": 105.9987,
      "duration": 0.2543,
      "velocity": 95,
      "chip": "ym2612"
    },
    {
      "channel": 3,
      "note": 61,
      "start": 106.0008,
      "duration": 0.0985,
      "velocity": 127,
      "chip": "ym2612"
    },
    {
      "channel": 1,
      "note": 42,
      "start": 106.2018,
      "duration": 0.1539,
      "velocity": 108,
      "chip": "ym2612"
    },
    {
      "channel": 3,
      "note": 61,
      "start": 106.2046,
      "duration": 0.1029,
      "velocity": 127,
      "chip": "ym2612"
    },
    {
      "channel": 4,
      "note": 73,
      "start": 106.2314,
      "duration": 0.2559,
      "velocity": 95,
      "chip": "ym2612"
    },
    {
      "channel": 5,
      "note": 69,
      "start": 106.2333,
      "duration": 0.2548,
      "velocity": 95,
      "chip": "ym2612"
    },
    {
      "channel": 0,
      "note": 66,
      "start": 106.3048,
      "duration": 0.2573,
      "velocity": 95,
      "chip": "ym2612"
    },
    {
      "channel": 2,
      "note": 66,
      "start": 106.3072,
      "duration": 0.2573,
      "velocity": 95,
      "chip": "ym2612"
    },
    {
      "channel": 1,
      "note": 42,
      "start": 106.4089,
      "duration": 0.154,
      "velocity": 108,
      "chip": "ym2612"
    },
    {
      "channel": 3,
      "note": 61,
      "start": 106.4118,
      "duration": 0.1007,
      "velocity": 127,
      "chip": "ym2612"
    },
    {
      "channel": 4,
      "note": 66,
      "start": 106.541,
      "duration": 0.2581,
      "velocity": 95,
      "chip": "ym2612"
    },
    {
      "channel": 5,
      "note": 66,
      "start": 106.5427,
      "duration": 0.2572,
      "velocity": 95,
      "chip": "ym2612"
    },
    {
      "channel": 0,
      "note": 73,
      "start": 106.6158,
      "duration": 0.2568,
      "velocity": 95,
      "chip": "ym2612"
    },
    {
      "channel": 1,
      "note": 42,
      "start": 106.6176,
      "duration": 0.5665,
      "velocity": 108,
      "chip": "ym2612"
    },
    {
      "channel": 2,
      "note": 69,
      "start": 106.6194,
      "duration": 0.2548,
      "velocity": 95,
      "chip": "ym2612"
    },
    {
      "channel": 3,
      "note": 61,
      "start": 106.6216,
      "duration": 0.098,
      "velocity": 127,
      "chip": "ym2612"
    },
    {
      "channel": 4,
      "note": 73,
      "start": 106.8525,
      "duration": 0.2571,
      "velocity": 95,
      "chip": "ym2612"
    },
    {
      "channel": 5,
      "note": 69,
      "start": 106.8543,
      "duration": 0.256,
      "velocity": 95,
      "chip": "ym2612"
    },
    {
      "channel": 0,
      "note": 66,
      "start": 106.9259,
      "duration": 0.2573,
      "velocity": 95,
      "chip": "ym2612"
    },
    {
      "channel": 2,
      "note": 66,
      "start": 106.9284,
      "duration": 0.2565,
      "velocity": 95,
      "chip": "ym2612"
    },
    {
      "channel": 4,
      "note": 66,
      "start": 107.1621,
      "duration": 0.2573,
      "velocity": 95,
      "chip": "ym2612"
    },
    {
      "channel": 5,
      "note": 66,
      "start": 107.1647,
      "duration": 0.2556,
      "velocity": 95,
      "chip": "ym2612"
    },
    {
      "channel": 0,
      "note": 73,
      "start": 107.2366,
      "duration": 0.2572,
      "velocity": 95,
      "chip": "ym2612"
    },
    {
      "channel": 1,
      "note": 42,
      "start": 107.2383,
      "duration": 0.5669,
      "velocity": 108,
      "chip": "ym2612"
    },
    {
      "channel": 2,
      "note": 69,
      "start": 107.2401,
      "duration": 0.2552,
      "velocity": 95,
      "chip": "ym2612"
    },
    {
      "channel": 3,
      "note": 61,
      "start": 107.2423,
      "duration": 0.0985,
      "velocity": 127,
      "chip": "ym2612"
    },
    {
      "channel": 4,
      "note": 73,
      "start": 107.4729,
      "duration": 0.258,
      "velocity": 95,
      "chip": "ym2612"
    },
    {
      "channel": 5,
      "note": 69,
      "start": 107.4747,
      "duration": 0.257,
      "velocity": 95,
      "chip": "ym2612"
    },
    {
      "channel": 0,
      "note": 66,
      "start": 107.5479,
      "duration": 0.2565,
      "velocity": 95,
      "chip": "ym2612"
    },
    {
      "channel": 2,
      "note": 66,
      "start": 107.5504,
      "duration": 0.2557,
      "velocity": 95,
      "chip": "ym2612"
    },
    {
      "channel": 4,
      "note": 66,
      "start": 107.7843,
      "duration": 0.2563,
      "velocity": 95,
      "chip": "ym2612"
    },
    {
      "channel": 5,
      "note": 66,
      "start": 107.786,
      "duration": 0.2555,
      "velocity": 95,
      "chip": "ym2612"
    },
    {
      "channel": 0,
      "note": 72,
      "start": 107.8582,
      "duration": 0.2568,
      "velocity": 95,
      "chip": "ym2612"
    },
    {
      "channel": 1,
      "note": 42,
      "start": 107.8641,
      "duration": 0.5623,
      "velocity": 108,
      "chip": "ym2612"
    },
    {
      "channel": 2,
      "note": 68,
      "start": 107.8663,
      "duration": 0.2502,
      "velocity": 95,
      "chip": "ym2612"
    },
    {
      "channel": 3,
      "note": 61,
      "start": 107.8686,
      "duration": 0.0933,
      "velocity": 127,
      "chip": "ym2612"
    },
    {
      "channel": 4,
      "note": 72,
      "start": 108.0945,
      "duration": 0.2568,
      "velocity": 95,
      "chip": "ym2612"
    },
    {
      "channel": 5,
      "note": 68,
      "start": 108.0976,
      "duration": 0.2544,
      "velocity": 95,
      "chip": "ym2612"
    },
    {
      "channel": 0,
      "note": 66,
      "start": 108.1683,
      "duration": 0.2573,
      "velocity": 95,
      "chip": "ym2612"
    },
    {
      "channel": 2,
      "note": 66,
      "start": 108.1707,
      "duration": 0.2565,
      "velocity": 95,
      "chip": "ym2612"
    },
    {
      "channel": 4,
      "note": 66,
      "start": 108.4045,
      "duration": 0.2573,
      "velocity": 95,
      "chip": "ym2612"
    },
    {
      "channel": 5,
      "note": 66,
      "start": 108.4062,
      "duration": 0.2564,
      "velocity": 95,
      "chip": "ym2612"
    },
    {
      "channel": 0,
      "note": 72,
      "start": 108.479,
      "duration": 0.2572,
      "velocity": 95,
      "chip": "ym2612"
    },
    {
      "channel": 1,
      "note": 42,
      "start": 108.4815,
      "duration": 0.1519,
      "velocity": 108,
      "chip": "ym2612"
    },
    {
      "channel": 2,
      "note": 68,
      "start": 108.4833,
      "duration": 0.2544,
      "velocity": 95,
      "chip": "ym2612"
    },
    {
      "channel": 3,
      "note": 61,
      "start": 108.4855,
      "duration": 0.0976,
      "velocity": 127,
      "chip": "ym2612"
    },
    {
      "channel": 1,
      "note": 42,
      "start": 108.6865,
      "duration": 0.1541,
      "velocity": 108,
      "chip": "ym2612"
    },
    {
      "channel": 3,
      "note": 61,
      "start": 108.6894,
      "duration": 0.1029,
      "velocity": 127,
      "chip": "ym2612"
    },
    {
      "channel": 4,
      "note": 72,
      "start": 108.7161,
      "duration": 0.2559,
      "velocity": 95,
      "chip": "ym2612"
    },
    {
      "channel": 5,
      "note": 68,
      "start": 108.7179,
      "duration": 0.2549,
      "velocity": 95,
      "chip": "ym2612"
    },
    {
      "channel": 0,
      "note": 66,
      "start": 108.7894,
      "duration": 0.2581,
      "velocity": 95,
      "chip": "ym2612"
    },
    {
      "channel": 2,
      "note": 66,
      "start": 108.7919,
      "duration": 0.2573,
      "velocity": 95,
      "chip": "ym2612"
    },
    {
      "channel": 1,
      "note": 42,
      "start": 108.8941,
      "duration": 0.1542,
      "velocity": 108,
      "chip": "ym2612"
    },
    {
      "channel": 3,
      "note": 61,
      "start": 108.8978,
      "duration": 0.1003,
      "velocity": 127,
      "chip": "ym2612"
    },
    {
      "channel": 4,
      "note": 66,
      "start": 109.0257,
      "duration": 0.2581,
      "velocity": 95,
      "chip": "ym2612"
    },
    {
      "channel": 5,
      "note": 66,
      "start": 109.0274,
      "duration": 0.2573,
      "velocity": 95,
      "chip": "ym2612"
    },
    {
      "channel": 0,
      "note": 72,
      "start": 109.1001,
      "duration": 0.2572,
      "velocity": 95,
      "chip": "ym2612"
    },
    {
      "channel": 1,
      "note": 42,
      "start": 109.1018,
      "duration": 0.5668,
      "velocity": 108,
      "chip": "ym2612"
    },
    {
      "channel": 2,
      "note": 68,
      "start": 109.1037,
      "duration": 0.2552,
      "velocity": 95,
      "chip": "ym2612"
    },
    {
      "channel": 3,
      "note": 61,
      "start": 109.1059,
      "duration": 0.0984,
      "velocity": 127,
      "chip": "ym2612"
    },
    {
      "channel": 4,
      "note": 72,
      "start": 109.3364,
      "duration": 0.2572,
      "velocity": 95,
      "chip": "ym2612"
    },
    {
      "channel": 5,
      "note": 68,
      "start": 109.3382,
      "duration": 0.2562,
      "velocity": 95,
      "chip": "ym2612"
    },
    {
      "channel": 0,
      "note": 66,
      "start": 109.4106,
      "duration": 0.2573,
      "velocity": 95,
      "chip": "ym2612"
    },
    {
      "channel": 2,
      "note": 66,
      "start": 109.413,
      "duration": 0.2565,
      "velocity": 95,
      "chip": "ym2612"
    },
    {
      "channel": 4,
      "note": 66,
      "start": 109.6476,
      "duration": 0.2566,
      "velocity": 95,
      "chip": "ym2612"
    },
    {
      "channel": 5,
      "note": 66,
      "start": 109.6494,
      "duration": 0.2556,
      "velocity": 95,
      "chip": "ym2612"
    },
    {
      "channel": 0,
      "note": 72,
      "start": 109.7213,
      "duration": 0.2572,
      "velocity": 95,
      "chip": "ym2612"
    },
    {
      "channel": 1,
      "note": 42,
      "start": 109.7229,
      "duration": 0.5669,
      "velocity": 108,
      "chip": "ym2612"
    },
    {
      "channel": 2,
      "note": 68,
      "start": 109.7248,
      "duration": 0.256,
      "velocity": 95,
      "chip": "ym2612"
    },
    {
      "channel": 3,
      "note": 61,
      "start": 109.727,
      "duration": 0.0985,
      "velocity": 127,
      "chip": "ym2612"
    },
    {
      "channel": 4,
      "note": 72,
      "start": 109.9576,
      "duration": 0.258,
      "velocity": 95,
      "chip": "ym2612"
    },
    {
      "channel": 5,
      "note": 68,
      "start": 109.9594,
      "duration": 0.257,
      "velocity": 95,
      "chip": "ym2612"
    },
    {
      "channel": 0,
      "note": 66,
      "start": 110.0324,
      "duration": 0.2567,
      "velocity": 95,
      "chip": "ym2612"
    },
    {
      "channel": 2,
      "note": 66,
      "start": 110.0349,
      "duration": 0.2559,
      "velocity": 95,
      "chip": "ym2612"
    },
    {
      "channel": 4,
      "note": 66,
      "start": 110.2688,
      "duration": 0.2566,
      "velocity": 95,
      "chip": "ym2612"
    },
    {
      "channel": 5,
      "note": 66,
      "start": 110.2705,
      "duration": 0.2556,
      "velocity": 95,
      "chip": "ym2612"
    },
    {
      "channel": 0,
      "note": 73,
      "start": 110.346,
      "duration": 0.2537,
      "velocity": 95,
      "chip": "ym2612"
    },
    {
      "channel": 1,
      "note": 42,
      "start": 110.3518,
      "duration": 0.5592,
      "velocity": 108,
      "chip": "ym2612"
    },
    {
      "channel": 2,
      "note": 69,
      "start": 110.3572,
      "duration": 0.244,
      "velocity": 95,
      "chip": "ym2612"
    },
    {
      "channel": 3,
      "note": 61,
      "start": 110.3595,
      "duration": 0.088,
      "velocity": 127,
      "chip": "ym2612"
    },
    {
      "channel": 4,
      "note": 73,
      "start": 110.5831,
      "duration": 0.2529,
      "velocity": 95,
      "chip": "ym2612"
    },
    {
      "channel": 5,
      "note": 69,
      "start": 110.5885,
      "duration": 0.2482,
      "velocity": 95,
      "chip": "ym2612"
    },
    {
      "channel": 0,
      "note": 66,
      "start": 110.6532,
      "duration": 0.2571,
      "velocity": 95,
      "chip": "ym2612"
    },
    {
      "channel": 2,
      "note": 66,
      "start": 110.6557,
      "duration": 0.2562,
      "velocity": 95,
      "chip": "ym2612"
    },
    {
      "channel": 4,
      "note": 66,
      "start": 110.8892,
      "duration": 0.2581,
      "velocity": 95,
      "chip": "ym2612"
    },
    {
      "channel": 5,
      "note": 66,
      "start": 110.8909,
      "duration": 0.2573,
      "velocity": 95,
      "chip": "ym2612"
    },
    {
      "channel": 0,
      "note": 73,
      "start": 110.9645,
      "duration": 0.2564,
      "velocity": 95,
      "chip": "ym2612"
    },
    {
      "channel": 1,
      "note": 42,
      "start": 110.9661,
      "duration": 0.1519,
      "velocity": 108,
      "chip": "ym2612"
    },
    {
      "channel": 2,
      "note": 69,
      "start": 110.968,
      "duration": 0.2544,
      "velocity": 95,
      "chip": "ym2612"
    },
    {
      "channel": 3,
      "note": 61,
      "start": 110.9702,
      "duration": 0.0976,
      "velocity": 127,
      "chip": "ym2612"
    },
    {
      "channel": 1,
      "note": 42,
      "start": 111.1712,
      "duration": 0.1539,
      "velocity": 108,
      "chip": "ym2612"
    },
    {
      "channel": 3,
      "note": 61,
      "start": 111.174,
      "duration": 0.1029,
      "velocity": 127,
      "chip": "ym2612"
    },
    {
      "channel": 4,
      "note": 73,
      "start": 111.2007,
      "duration": 0.2559,
      "velocity": 95,
      "chip": "ym2612"
    },
    {
      "channel": 5,
      "note": 69,
      "start": 111.2026,
      "duration": 0.2549,
      "velocity": 95,
      "chip": "ym2612"
    },
    {
      "channel": 0,
      "note": 66,
      "start": 111.2741,
      "duration": 0.2573,
      "velocity": 95,
      "chip": "ym2612"
    },
    {
      "channel": 2,
      "note": 66,
      "start": 111.2766,
      "duration": 0.2565,
      "velocity": 95,
      "chip": "ym2612"
    },
    {
      "channel": 1,
      "note": 42,
      "start": 111.3782,
      "duration": 0.154,
      "velocity": 108,
      "chip": "ym2612"
    },
    {
      "channel": 3,
      "note": 61,
      "start": 111.3819,
      "duration": 0.1008,
      "velocity": 127,
      "chip": "ym2612"
    },
    {
      "channel": 4,
      "note": 66,
      "start": 111.5104,
      "duration": 0.2573,
      "velocity": 95,
      "chip": "ym2612"
    },
    {
      "channel": 5,
      "note": 66,
      "start": 111.5121,
      "duration": 0.2564,
      "velocity": 95,
      "chip": "ym2612"
    },
    {
      "channel": 0,
      "note": 73,
      "start": 111.5849,
      "duration": 0.2572,
      "velocity": 95,
      "chip": "ym2612"
    },
    {
      "channel": 1,
      "note": 42,
      "start": 111.5865,
      "duration": 0.5669,
      "velocity": 108,
      "chip": "ym2612"
    },
    {
      "channel": 2,
      "note": 69,
      "start": 111.5883,
      "duration": 0.2551,
      "velocity": 95,
      "chip": "ym2612"
    },
    {
      "channel": 3,
      "note": 61,
      "start": 111.5905,
      "duration": 0.0985,
      "velocity": 127,
      "chip": "ym2612"
    },
    {
      "channel": 4,
      "note": 73,
      "start": 111.821,
      "duration": 0.2572,
      "velocity": 95,
      "chip": "ym2612"
    },
    {
      "channel": 5,
      "note": 69,
      "start": 111.8229,
      "duration": 0.2562,
      "velocity": 95,
      "chip": "ym2612"
    },
    {
      "channel": 0,
      "note": 66,
      "start": 111.8953,
      "duration": 0.2573,
      "velocity": 95,
      "chip": "ym2612"
    },
    {
      "channel": 2,
      "note": 66,
      "start": 111.8986,
      "duration": 0.2557,
      "velocity": 95,
      "chip": "ym2612"
    },
    {
      "channel": 4,
      "note": 66,
      "start": 112.1324,
      "duration": 0.2565,
      "velocity": 95,
      "chip": "ym2612"
    },
    {
      "channel": 5,
      "note": 66,
      "start": 112.1341,
      "duration": 0.2556,
      "velocity": 95,
      "chip": "ym2612"
    },
    {
      "channel": 0,
      "note": 73,
      "start": 112.206,
      "duration": 0.2586,
      "velocity": 95,
      "chip": "ym2612"
    },
    {
      "channel": 1,
      "note": 42,
      "start": 112.2076,
      "duration": 0.567,
      "velocity": 108,
      "chip": "ym2612"
    },
    {
      "channel": 2,
      "note": 69,
      "start": 112.2095,
      "duration": 0.2566,
      "velocity": 95,
      "chip": "ym2612"
    },
    {
      "channel": 3,
      "note": 61,
      "start": 112.2116,
      "duration": 0.0985,
      "velocity": 127,
      "chip": "ym2612"
    },
    {
      "channel": 4,
      "note": 73,
      "start": 112.4425,
      "duration": 0.2578,
      "velocity": 95,
      "chip": "ym2612"
    },
    {
      "channel": 5,
      "note": 69,
      "start": 112.4443,
      "duration": 0.2567,
      "velocity": 95,
      "chip": "ym2612"
    },
    {
      "channel": 0,
      "note": 66,
      "start": 112.5172,
      "duration": 0.2566,
      "velocity": 95,
      "chip": "ym2612"
    },
    {
      "channel": 2,
      "note": 66,
      "start": 112.5197,
      "duration": 0.2557,
      "velocity": 95,
      "chip": "ym2612"
    },
    {
      "channel": 4,
      "note": 66,
      "start": 112.7527,
      "duration": 0.2574,
      "velocity": 95,
      "chip": "ym2612"
    },
    {
      "channel": 5,
      "note": 66,
      "start": 112.7544,
      "duration": 0.2565,
      "velocity": 95,
      "chip": "ym2612"
    },
    {
      "channel": 0,
      "note": 72,
      "start": 112.8276,
      "duration": 0.2567,
      "velocity": 95,
      "chip": "ym2612"
    },
    {
      "channel": 1,
      "note": 42,
      "start": 112.8334,
      "duration": 0.5617,
      "velocity": 108,
      "chip": "ym2612"
    },
    {
      "channel": 2,
      "note": 68,
      "start": 112.8357,
      "duration": 0.2501,
      "velocity": 95,
      "chip": "ym2612"
    },
    {
      "channel": 3,
      "note": 61,
      "start": 112.838,
      "duration": 0.0941,
      "velocity": 127,
      "chip": "ym2612"
    },
    {
      "channel": 4,
      "note": 72,
      "start": 113.0646,
      "duration": 0.2535,
      "velocity": 95,
      "chip": "ym2612"
    },
    {
      "channel": 5,
      "note": 68,
      "start": 113.0669,
      "duration": 0.252,
      "velocity": 95,
      "chip": "ym2612"
    },
    {
      "channel": 0,
      "note": 66,
      "start": 113.1376,
      "duration": 0.2574,
      "velocity": 95,
      "chip": "ym2612"
    },
    {
      "channel": 2,
      "note": 66,
      "start": 113.1394,
      "duration": 0.2559,
      "velocity": 95,
      "chip": "ym2612"
    },
    {
      "channel": 4,
      "note": 66,
      "start": 113.3714,
      "duration": 0.2573,
      "velocity": 95,
      "chip": "ym2612"
    },
    {
      "channel": 5,
      "note": 66,
      "start": 113.3732,
      "duration": 0.2558,
      "velocity": 95,
      "chip": "ym2612"
    },
    {
      "channel": 0,
      "note": 72,
      "start": 113.4492,
      "duration": 0.2564,
      "velocity": 95,
      "chip": "ym2612"
    },
    {
      "channel": 1,
      "note": 42,
      "start": 113.4508,
      "duration": 0.1513,
      "velocity": 108,
      "chip": "ym2612"
    },
    {
      "channel": 2,
      "note": 68,
      "start": 113.4526,
      "duration": 0.2532,
      "velocity": 95,
      "chip": "ym2612"
    },
    {
      "channel": 3,
      "note": 61,
      "start": 113.4547,
      "duration": 0.0959,
      "velocity": 127,
      "chip": "ym2612"
    },
    {
      "channel": 1,
      "note": 42,
      "start": 113.6553,
      "duration": 0.1539,
      "velocity": 108,
      "chip": "ym2612"
    },
    {
      "channel": 3,
      "note": 61,
      "start": 113.6575,
      "duration": 0.1033,
      "velocity": 127,
      "chip": "ym2612"
    },
    {
      "channel": 4,
      "note": 72,
      "start": 113.6831,
      "duration": 0.2558,
      "velocity": 95,
      "chip": "ym2612"
    },
    {
      "channel": 5,
      "note": 68,
      "start": 113.6849,
      "duration": 0.2543,
      "velocity": 95,
      "chip": "ym2612"
    },
    {
      "channel": 0,
      "note": 66,
      "start": 113.7587,
      "duration": 0.2574,
      "velocity": 95,
      "chip": "ym2612"
    },
    {
      "channel": 2,
      "note": 66,
      "start": 113.7605,
      "duration": 0.2561,
      "velocity": 95,
      "chip": "ym2612"
    },
    {
      "channel": 1,
      "note": 42,
      "start": 113.8623,
      "duration": 0.154,
      "velocity": 108,
      "chip": "ym2612"
    },
    {
      "channel": 3,
      "note": 61,
      "start": 113.8654,
      "duration": 0.0994,
      "velocity": 127,
      "chip": "ym2612"
    },
    {
      "channel": 4,
      "note": 66,
      "start": 113.9925,
      "duration": 0.2578,
      "velocity": 95,
      "chip": "ym2612"
    },
    {
      "channel": 5,
      "note": 66,
      "start": 113.9942,
      "duration": 0.2563,
      "velocity": 95,
      "chip": "ym2612"
    },
    {
      "channel": 0,
      "note": 72,
      "start": 114.0695,
      "duration": 0.2573,
      "velocity": 95,
      "chip": "ym2612"
    },
    {
      "channel": 1,
      "note": 42,
      "start": 114.0711,
      "duration": 0.5663,
      "velocity": 108,
      "chip": "ym2612"
    },
    {
      "channel": 2,
      "note": 68,
      "start": 114.0729,
      "duration": 0.254,
      "velocity": 95,
      "chip": "ym2612"
    },
    {
      "channel": 3,
      "note": 61,
      "start": 114.0751,
      "duration": 0.0968,
      "velocity": 127,
      "chip": "ym2612"
    },
    {
      "channel": 4,
      "note": 72,
      "start": 114.3041,
      "duration": 0.2564,
      "velocity": 95,
      "chip": "ym2612"
    },
    {
      "channel": 5,
      "note": 68,
      "start": 114.3059,
      "duration": 0.2548,
      "velocity": 95,
      "chip": "ym2612"
    },
    {
      "channel": 0,
      "note": 66,
      "start": 114.3807,
      "duration": 0.2566,
      "velocity": 95,
      "chip": "ym2612"
    },
    {
      "channel": 2,
      "note": 66,
      "start": 114.3825,
      "duration": 0.2552,
      "velocity": 95,
      "chip": "ym2612"
    },
    {
      "channel": 4,
      "note": 66,
      "start": 114.6146,
      "duration": 0.2565,
      "velocity": 95,
      "chip": "ym2612"
    },
    {
      "channel": 5,
      "note": 66,
      "start": 114.6163,
      "duration": 0.255,
      "velocity": 95,
      "chip": "ym2612"
    },
    {
      "channel": 0,
      "note": 72,
      "start": 114.6906,
      "duration": 0.2573,
      "velocity": 95,
      "chip": "ym2612"
    },
    {
      "channel": 1,
      "note": 42,
      "start": 114.6922,
      "duration": 0.5664,
      "velocity": 108,
      "chip": "ym2612"
    },
    {
      "channel": 2,
      "note": 68,
      "start": 114.6941,
      "duration": 0.2541,
      "velocity": 95,
      "chip": "ym2612"
    },
    {
      "channel": 3,
      "note": 61,
      "start": 114.6962,
      "duration": 0.0968,
      "velocity": 127,
      "chip": "ym2612"
    },
    {
      "channel": 4,
      "note": 72,
      "start": 114.9244,
      "duration": 0.2573,
      "velocity": 95,
      "chip": "ym2612"
    },
    {
      "channel": 5,
      "note": 68,
      "start": 114.9263,
      "duration": 0.2557,
      "velocity": 95,
      "chip": "ym2612"
    },
    {
      "channel": 0,
      "note": 66,
      "start": 115.0011,
      "duration": 0.2574,
      "velocity": 95,
      "chip": "ym2612"
    },
    {
      "channel": 2,
      "note": 66,
      "start": 115.0029,
      "duration": 0.256,
      "velocity": 95,
      "chip": "ym2612"
    },
    {
      "channel": 4,
      "note": 66,
      "start": 115.2349,
      "duration": 0.2573,
      "velocity": 95,
      "chip": "ym2612"
    },
    {
      "channel": 5,
      "note": 66,
      "start": 115.2366,
      "duration": 0.2559,
      "velocity": 95,
      "chip": "ym2612"
    },
    {
      "channel": 0,
      "note": 73,
      "start": 115.3161,
      "duration": 0.2529,
      "velocity": 95,
      "chip": "ym2612"
    },
    {
      "channel": 1,
      "note": 42,
      "start": 115.3211,
      "duration": 0.5587,
      "velocity": 108,
      "chip": "ym2612"
    },
    {
      "channel": 2,
      "note": 69,
      "start": 115.3265,
      "duration": 0.2429,
      "velocity": 95,
      "chip": "ym2612"
    },
    {
      "channel": 3,
      "note": 61,
      "start": 115.3288,
      "duration": 0.0859,
      "velocity": 127,
      "chip": "ym2612"
    },
    {
      "channel": 4,
      "note": 73,
      "start": 115.55,
      "duration": 0.2528,
      "velocity": 95,
      "chip": "ym2612"
    },
    {
      "channel": 5,
      "note": 69,
      "start": 115.5553,
      "duration": 0.2476,
      "velocity": 95,
      "chip": "ym2612"
    },
    {
      "channel": 0,
      "note": 66,
      "start": 115.6222,
      "duration": 0.2574,
      "velocity": 95,
      "chip": "ym2612"
    },
    {
      "channel": 2,
      "note": 66,
      "start": 115.624,
      "duration": 0.2568,
      "velocity": 95,
      "chip": "ym2612"
    },
    {
      "channel": 4,
      "note": 66,
      "start": 115.856,
      "duration": 0.2582,
      "velocity": 95,
      "chip": "ym2612"
    },
    {
      "channel": 5,
      "note": 66,
      "start": 115.8578,
      "duration": 0.2567,
      "velocity": 95,
      "chip": "ym2612"
    },
    {
      "channel": 0,
      "note": 73,
      "start": 115.9333,
      "duration": 0.2569,
      "velocity": 95,
      "chip": "ym2612"
    },
    {
      "channel": 1,
      "note": 42,
      "start": 115.9349,
      "duration": 0.1528,
      "velocity": 108,
      "chip": "ym2612"
    },
    {
      "channel": 2,
      "note": 69,
      "start": 115.9368,
      "duration": 0.2538,
      "velocity": 95,
      "chip": "ym2612"
    },
    {
      "channel": 3,
      "note": 61,
      "start": 115.9389,
      "duration": 0.0968,
      "velocity": 127,
      "chip": "ym2612"
    },
    {
      "channel": 1,
      "note": 42,
      "start": 116.1399,
      "duration": 0.1539,
      "velocity": 108,
      "chip": "ym2612"
    },
    {
      "channel": 3,
      "note": 61,
      "start": 116.1422,
      "duration": 0.1033,
      "velocity": 127,
      "chip": "ym2612"
    },
    {
      "channel": 4,
      "note": 73,
      "start": 116.1668,
      "duration": 0.2568,
      "velocity": 95,
      "chip": "ym2612"
    },
    {
      "channel": 5,
      "note": 69,
      "start": 116.1686,
      "duration": 0.2551,
      "velocity": 95,
      "chip": "ym2612"
    },
    {
      "channel": 0,
      "note": 66,
      "start": 116.2434,
      "duration": 0.2573,
      "velocity": 95,
      "chip": "ym2612"
    },
    {
      "channel": 2,
      "note": 66,
      "start": 116.2452,
      "duration": 0.256,
      "velocity": 95,
      "chip": "ym2612"
    },
    {
      "channel": 1,
      "note": 42,
      "start": 116.3479,
      "duration": 0.1531,
      "velocity": 108,
      "chip": "ym2612"
    },
    {
      "channel": 3,
      "note": 61,
      "start": 116.35,
      "duration": 0.0994,
      "velocity": 127,
      "chip": "ym2612"
    },
    {
      "channel": 4,
      "note": 66,
      "start": 116.4772,
      "duration": 0.2574,
      "velocity": 95,
      "chip": "ym2612"
    },
    {
      "channel": 5,
      "note": 66,
      "start": 116.4789,
      "duration": 0.2559,
      "velocity": 95,
      "chip": "ym2612"
    },
    {
      "channel": 0,
      "note": 73,
      "start": 116.5541,
      "duration": 0.2573,
      "velocity": 95,
      "chip": "ym2612"
    },
    {
      "channel": 1,
      "note": 42,
      "start": 116.5558,
      "duration": 0.5663,
      "velocity": 108,
      "chip": "ym2612"
    },
    {
      "channel": 2,
      "note": 69,
      "start": 116.5576,
      "duration": 0.2541,
      "velocity": 95,
      "chip": "ym2612"
    },
    {
      "channel": 3,
      "note": 61,
      "start": 116.5597,
      "duration": 0.0968,
      "velocity": 127,
      "chip": "ym2612"
    },
    {
      "channel": 4,
      "note": 73,
      "start": 116.7879,
      "duration": 0.2572,
      "velocity": 95,
      "chip": "ym2612"
    },
    {
      "channel": 5,
      "note": 69,
      "start": 116.7898,
      "duration": 0.2556,
      "velocity": 95,
      "chip": "ym2612"
    },
    {
      "channel": 0,
      "note": 66,
      "start": 116.8654,
      "duration": 0.2565,
      "velocity": 95,
      "chip": "ym2612"
    },
    {
      "channel": 2,
      "note": 66,
      "start": 116.8672,
      "duration": 0.2551,
      "velocity": 95,
      "chip": "ym2612"
    },
    {
      "channel": 4,
      "note": 66,
      "start": 117.0992,
      "duration": 0.2566,
      "velocity": 95,
      "chip": "ym2612"
    },
    {
      "channel": 5,
      "note": 66,
      "start": 117.101,
      "duration": 0.255,
      "velocity": 95,
      "chip": "ym2612"
    },
    {
      "channel": 0,
      "note": 73,
      "start": 117.1753,
      "duration": 0.2573,
      "velocity": 95,
      "chip": "ym2612"
    },
    {
      "channel": 1,
      "note": 42,
      "start": 117.177,
      "duration": 0.5663,
      "velocity": 108,
      "chip": "ym2612"
    },
    {
      "channel": 2,
      "note": 69,
      "start": 117.1788,
      "duration": 0.2541,
      "velocity": 95,
      "chip": "ym2612"
    },
    {
      "channel": 3,
      "note": 61,
      "start": 117.1817,
      "duration": 0.096,
      "velocity": 127,
      "chip": "ym2612"
    },
    {
      "channel": 4,
      "note": 73,
      "start": 117.4091,
      "duration": 0.2573,
      "velocity": 95,
      "chip": "ym2612"
    },
    {
      "channel": 5,
      "note": 69,
      "start": 117.4109,
      "duration": 0.2556,
      "velocity": 95,
      "chip": "ym2612"
    },
    {
      "channel": 0,
      "note": 66,
      "start": 117.4857,
      "duration": 0.2574,
      "velocity": 95,
      "chip": "ym2612"
    },
    {
      "channel": 2,
      "note": 66,
      "start": 117.4875,
      "duration": 0.256,
      "velocity": 95,
      "chip": "ym2612"
    },
    {
      "channel": 4,
      "note": 66,
      "start": 117.7196,
      "duration": 0.2573,
      "velocity": 95,
      "chip": "ym2612"
    },
    {
      "channel": 5,
      "note": 66,
      "start": 117.7212,
      "duration": 0.2559,
      "velocity": 95,
      "chip": "ym2612"
    },
    {
      "channel": 0,
      "note": 72,
      "start": 117.7978,
      "duration": 0.2559,
      "velocity": 95,
      "chip": "ym2612"
    },
    {
      "channel": 1,
      "note": 42,
      "start": 117.8028,
      "duration": 0.5617,
      "velocity": 108,
      "chip": "ym2612"
    },
    {
      "channel": 2,
      "note": 68,
      "start": 117.805,
      "duration": 0.249,
      "velocity": 95,
      "chip": "ym2612"
    },
    {
      "channel": 3,
      "note": 61,
      "start": 117.8073,
      "duration": 0.0923,
      "velocity": 127,
      "chip": "ym2612"
    },
    {
      "channel": 4,
      "note": 72,
      "start": 118.0315,
      "duration": 0.256,
      "velocity": 95,
      "chip": "ym2612"
    },
    {
      "channel": 5,
      "note": 68,
      "start": 118.0338,
      "duration": 0.2539,
      "velocity": 95,
      "chip": "ym2612"
    },
    {
      "channel": 0,
      "note": 66,
      "start": 118.1069,
      "duration": 0.2574,
      "velocity": 95,
      "chip": "ym2612"
    },
    {
      "channel": 2,
      "note": 66,
      "start": 118.1087,
      "duration": 0.256,
      "velocity": 95,
      "chip": "ym2612"
    },
    {
      "channel": 4,
      "note": 66,
      "start": 118.3407,
      "duration": 0.2577,
      "velocity": 95,
      "chip": "ym2612"
    },
    {
      "channel": 5,
      "note": 66,
      "start": 118.3424,
      "duration": 0.2562,
      "velocity": 95,
      "chip": "ym2612"
    },
    {
      "channel": 0,
      "note": 72,
      "start": 118.4177,
      "duration": 0.2572,
      "velocity": 95,
      "chip": "ym2612"
    },
    {
      "channel": 1,
      "note": 42,
      "start": 118.4193,
      "duration": 0.1521,
      "velocity": 108,
      "chip": "ym2612"
    },
    {
      "channel": 2,
      "note": 68,
      "start": 118.4211,
      "duration": 0.2541,
      "velocity": 95,
      "chip": "ym2612"
    },
    {
      "channel": 3,
      "note": 61,
      "start": 118.4232,
      "duration": 0.0968,
      "velocity": 127,
      "chip": "ym2612"
    },
    {
      "channel": 1,
      "note": 42,
      "start": 118.6246,
      "duration": 0.1539,
      "velocity": 108,
      "chip": "ym2612"
    },
    {
      "channel": 3,
      "note": 61,
      "start": 118.6268,
      "duration": 0.1042,
      "velocity": 127,
      "chip": "ym2612"
    },
    {
      "channel": 4,
      "note": 72,
      "start": 118.6515,
      "duration": 0.2567,
      "velocity": 95,
      "chip": "ym2612"
    },
    {
      "channel": 5,
      "note": 68,
      "start": 118.6533,
      "duration": 0.2552,
      "velocity": 95,
      "chip": "ym2612"
    },
    {
      "channel": 0,
      "note": 66,
      "start": 118.7281,
      "duration": 0.2574,
      "velocity": 95,
      "chip": "ym2612"
    },
    {
      "channel": 2,
      "note": 66,
      "start": 118.7307,
      "duration": 0.2551,
      "velocity": 95,
      "chip": "ym2612"
    },
    {
      "channel": 1,
      "note": 42,
      "start": 118.8324,
      "duration": 0.1533,
      "velocity": 108,
      "chip": "ym2612"
    },
    {
      "channel": 3,
      "note": 61,
      "start": 118.8346,
      "duration": 0.0995,
      "velocity": 127,
      "chip": "ym2612"
    },
    {
      "channel": 4,
      "note": 66,
      "start": 118.962,
      "duration": 0.2573,
      "velocity": 95,
      "chip": "ym2612"
    },
    {
      "channel": 5,
      "note": 66,
      "start": 118.9644,
      "duration": 0.255,
      "velocity": 95,
      "chip": "ym2612"
    },
    {
      "channel": 0,
      "note": 72,
      "start": 119.0388,
      "duration": 0.2573,
      "velocity": 95,
      "chip": "ym2612"
    },
    {
      "channel": 1,
      "note": 42,
      "start": 119.0405,
      "duration": 0.5665,
      "velocity": 108,
      "chip": "ym2612"
    },
    {
      "channel": 2,
      "note": 68,
      "start": 119.0423,
      "duration": 0.2541,
      "velocity": 95,
      "chip": "ym2612"
    },
    {
      "channel": 3,
      "note": 61,
      "start": 119.0444,
      "duration": 0.0968,
      "velocity": 127,
      "chip": "ym2612"
    },
    {
      "channel": 4,
      "note": 72,
      "start": 119.2726,
      "duration": 0.2572,
      "velocity": 95,
      "chip": "ym2612"
    },
    {
      "channel": 5,
      "note": 68,
      "start": 119.2744,
      "duration": 0.2564,
      "velocity": 95,
      "chip": "ym2612"
    },
    {
      "channel": 0,
      "note": 66,
      "start": 119.3493,
      "duration": 0.2576,
      "velocity": 95,
      "chip": "ym2612"
    },
    {
      "channel": 2,
      "note": 66,
      "start": 119.3511,
      "duration": 0.2562,
      "velocity": 95,
      "chip": "ym2612"
    },
    {
      "channel": 4,
      "note": 66,
      "start": 119.584,
      "duration": 0.2565,
      "velocity": 95,
      "chip": "ym2612"
    },
    {
      "channel": 5,
      "note": 66,
      "start": 119.5857,
      "duration": 0.255,
      "velocity": 95,
      "chip": "ym2612"
    },
    {
      "channel": 0,
      "note": 72,
      "start": 119.6606,
      "duration": 0.2566,
      "velocity": 95,
      "chip": "ym2612"
    },
    {
      "channel": 1,
      "note": 42,
      "start": 119.6622,
      "duration": 0.5658,
      "velocity": 108,
      "chip": "ym2612"
    },
    {
      "channel": 2,
      "note": 68,
      "start": 119.6649,
      "duration": 0.2527,
      "velocity": 95,
      "chip": "ym2612"
    },
    {
      "channel": 3,
      "note": 61,
      "start": 119.667,
      "duration": 0.0954,
      "velocity": 127,
      "chip": "ym2612"
    },
    {
      "channel": 4,
      "note": 72,
      "start": 119.8938,
      "duration": 0.2572,
      "velocity": 95,
      "chip": "ym2612"
    },
    {
      "channel": 5,
      "note": 68,
      "start": 119.8956,
      "duration": 0.2556,
      "velocity": 95,
      "chip": "ym2612"
    },
    {
      "channel": 0,
      "note": 66,
      "start": 119.9704,
      "duration": 0.2574,
      "velocity": 95,
      "chip": "ym2612"
    },
    {
      "channel": 2,
      "note": 66,
      "start": 119.9722,
      "duration": 0.256,
      "velocity": 95,
      "chip": "ym2612"
    },
    {
      "channel": 4,
      "note": 66,
      "start": 120.2043,
      "duration": 0.2573,
      "velocity": 95,
      "chip": "ym2612"
    },
    {
      "channel": 5,
      "note": 66,
      "start": 120.2059,
      "duration": 0.2559,
      "velocity": 95,
      "chip": "ym2612"
    },
    {
      "channel": 0,
      "note": 73,
      "start": 120.2855,
      "duration": 0.2529,
      "velocity": 95,
      "chip": "ym2612"
    },
    {
      "channel": 1,
      "note": 42,
      "start": 120.2905,
      "duration": 0.5586,
      "velocity": 108,
      "chip": "ym2612"
    },
    {
      "channel": 2,
      "note": 69,
      "start": 120.2959,
      "duration": 0.2428,
      "velocity": 95,
      "chip": "ym2612"
    },
    {
      "channel": 3,
      "note": 61,
      "start": 120.2989,
      "duration": 0.0846,
      "velocity": 127,
      "chip": "ym2612"
    },
    {
      "channel": 4,
      "note": 73,
      "start": 120.5193,
      "duration": 0.2529,
      "velocity": 95,
      "chip": "ym2612"
    },
    {
      "channel": 5,
      "note": 69,
      "start": 120.5247,
      "duration": 0.2477,
      "velocity": 95,
      "chip": "ym2612"
    },
    {
      "channel": 0,
      "note": 66,
      "start": 120.5917,
      "duration": 0.2573,
      "velocity": 95,
      "chip": "ym2612"
    },
    {
      "channel": 2,
      "note": 66,
      "start": 120.5934,
      "duration": 0.256,
      "velocity": 95,
      "chip": "ym2612"
    },
    {
      "channel": 4,
      "note": 66,
      "start": 120.8254,
      "duration": 0.2573,
      "velocity": 95,
      "chip": "ym2612"
    },
    {
      "channel": 5,
      "note": 66,
      "start": 120.8271,
      "duration": 0.2559,
      "velocity": 95,
      "chip": "ym2612"
    },
    {
      "channel": 0,
      "note": 73,
      "start": 120.9023,
      "duration": 0.2572,
      "velocity": 95,
      "chip": "ym2612"
    },
    {
      "channel": 1,
      "note": 42,
      "start": 120.904,
      "duration": 0.1521,
      "velocity": 108,
      "chip": "ym2612"
    },
    {
      "channel": 2,
      "note": 69,
      "start": 120.9059,
      "duration": 0.254,
      "velocity": 95,
      "chip": "ym2612"
    },
    {
      "channel": 3,
      "note": 61,
      "start": 120.9079,
      "duration": 0.0967,
      "velocity": 127,
      "chip": "ym2612"
    },
    {
      "channel": 1,
      "note": 42,
      "start": 121.1093,
      "duration": 0.1547,
      "velocity": 108,
      "chip": "ym2612"
    },
    {
      "channel": 3,
      "note": 61,
      "start": 121.1116,
      "duration": 0.1041,
      "velocity": 127,
      "chip": "ym2612"
    },
    {
      "channel": 4,
      "note": 73,
      "start": 121.1362,
      "duration": 0.2569,
      "velocity": 95,
      "chip": "ym2612"
    },
    {
      "channel": 5,
      "note": 69,
      "start": 121.138,
      "duration": 0.2554,
      "velocity": 95,
      "chip": "ym2612"
    },
    {
      "channel": 0,
      "note": 66,
      "start": 121.2128,
      "duration": 0.2581,
      "velocity": 95,
      "chip": "ym2612"
    },
    {
      "channel": 2,
      "note": 66,
      "start": 121.2154,
      "duration": 0.2559,
      "velocity": 95,
      "chip": "ym2612"
    },
    {
      "channel": 1,
      "note": 42,
      "start": 121.3165,
      "duration": 0.1545,
      "velocity": 108,
      "chip": "ym2612"
    },
    {
      "channel": 3,
      "note": 61,
      "start": 121.3188,
      "duration": 0.1004,
      "velocity": 127,
      "chip": "ym2612"
    },
    {
      "channel": 4,
      "note": 66,
      "start": 121.448,
      "duration": 0.256,
      "velocity": 95,
      "chip": "ym2612"
    },
    {
      "channel": 5,
      "note": 66,
      "start": 121.4497,
      "duration": 0.2544,
      "velocity": 95,
      "chip": "ym2612"
    },
    {
      "channel": 0,
      "note": 73,
      "start": 121.5235,
      "duration": 0.2574,
      "velocity": 95,
      "chip": "ym2612"
    },
    {
      "channel": 1,
      "note": 42,
      "start": 121.5252,
      "duration": 0.5663,
      "velocity": 108,
      "chip": "ym2612"
    },
    {
      "channel": 2,
      "note": 69,
      "start": 121.527,
      "duration": 0.2542,
      "velocity": 95,
      "chip": "ym2612"
    },
    {
      "channel": 3,
      "note": 61,
      "start": 121.5291,
      "duration": 0.0967,
      "velocity": 127,
      "chip": "ym2612"
    },
    {
      "channel": 4,
      "note": 73,
      "start": 121.7573,
      "duration": 0.2578,
      "velocity": 95,
      "chip": "ym2612"
    },
    {
      "channel": 5,
      "note": 69,
      "start": 121.7591,
      "duration": 0.2562,
      "velocity": 95,
      "chip": "ym2612"
    },
    {
      "channel": 0,
      "note": 66,
      "start": 121.834,
      "duration": 0.2574,
      "velocity": 95,
      "chip": "ym2612"
    },
    {
      "channel": 2,
      "note": 66,
      "start": 121.8357,
      "duration": 0.256,
      "velocity": 95,
      "chip": "ym2612"
    },
    {
      "channel": 4,
      "note": 66,
      "start": 122.0677,
      "duration": 0.2574,
      "velocity": 95,
      "chip": "ym2612"
    },
    {
      "channel": 5,
      "note": 66,
      "start": 122.0695,
      "duration": 0.2559,
      "velocity": 95,
      "chip": "ym2612"
    },
    {
      "channel": 0,
      "note": 73,
      "start": 122.1446,
      "duration": 0.2573,
      "velocity": 95,
      "chip": "ym2612"
    },
    {
      "channel": 1,
      "note": 42,
      "start": 122.1463,
      "duration": 0.5664,
      "velocity": 108,
      "chip": "ym2612"
    },
    {
      "channel": 2,
      "note": 69,
      "start": 122.149,
      "duration": 0.2532,
      "velocity": 95,
      "chip": "ym2612"
    },
    {
      "channel": 3,
      "note": 61,
      "start": 122.1511,
      "duration": 0.0969,
      "velocity": 127,
      "chip": "ym2612"
    },
    {
      "channel": 4,
      "note": 73,
      "start": 122.3785,
      "duration": 0.2572,
      "velocity": 95,
      "chip": "ym2612"
    },
    {
      "channel": 5,
      "note": 69,
      "start": 122.3811,
      "duration": 0.2549,
      "velocity": 95,
      "chip": "ym2612"
    },
    {
      "channel": 0,
      "note": 66,
      "start": 122.4551,
      "duration": 0.2574,
      "velocity": 95,
      "chip": "ym2612"
    },
    {
      "channel": 2,
      "note": 66,
      "start": 122.4569,
      "duration": 0.256,
      "velocity": 95,
      "chip": "ym2612"
    },
    {
      "channel": 4,
      "note": 66,
      "start": 122.6889,
      "duration": 0.2646,
      "velocity": 95,
      "chip": "ym2612"
    },
    {
      "channel": 5,
      "note": 66,
      "start": 122.6906,
      "duration": 0.2631,
      "velocity": 95,
      "chip": "ym2612"
    },
    {
      "channel": 0,
      "note": 72,
      "start": 122.7663,
      "duration": 0.2676,
      "velocity": 95,
      "chip": "ym2612"
    },
    {
      "channel": 1,
      "note": 42,
      "start": 122.7713,
      "duration": 0.5879,
      "velocity": 108,
      "chip": "ym2612"
    },
    {
      "channel": 2,
      "note": 68,
      "start": 122.7735,
      "duration": 0.2607,
      "velocity": 95,
      "chip": "ym2612"
    },
    {
      "channel": 3,
      "note": 61,
      "start": 122.7771,
      "duration": 0.0947,
      "velocity": 127,
      "chip": "ym2612"
    },
    {
      "channel": 4,
      "note": 72,
      "start": 123.0097,
      "duration": 0.2689,
      "velocity": 95,
      "chip": "ym2612"
    },
    {
      "channel": 5,
      "note": 68,
      "start": 123.0119,
      "duration": 0.2669,
      "velocity": 95,
      "chip": "ym2612"
    },
    {
      "channel": 0,
      "note": 66,
      "start": 123.0896,
      "duration": 0.2694,
      "velocity": 95,
      "chip": "ym2612"
    },
    {
      "channel": 2,
      "note": 66,
      "start": 123.0913,
      "duration": 0.268,
      "velocity": 95,
      "chip": "ym2612"
    },
    {
      "channel": 4,
      "note": 66,
      "start": 123.3342,
      "duration": 0.2766,
      "velocity": 95,
      "chip": "ym2612"
    },
    {
      "channel": 5,
      "note": 66,
      "start": 123.3359,
      "duration": 0.2751,
      "velocity": 95,
      "chip": "ym2612"
    },
    {
      "channel": 0,
      "note": 72,
      "start": 123.4155,
      "duration": 0.2793,
      "velocity": 95,
      "chip": "ym2612"
    },
    {
      "channel": 1,
      "note": 42,
      "start": 123.4172,
      "duration": 0.1646,
      "velocity": 108,
      "chip": "ym2612"
    },
    {
      "channel": 2,
      "note": 68,
      "start": 123.419,
      "duration": 0.2761,
      "velocity": 95,
      "chip": "ym2612"
    },
    {
      "channel": 3,
      "note": 61,
      "start": 123.4222,
      "duration": 0.1033,
      "velocity": 127,
      "chip": "ym2612"
    },
    {
      "channel": 1,
      "note": 42,
      "start": 123.6398,
      "duration": 0.1683,
      "velocity": 108,
      "chip": "ym2612"
    },
    {
      "channel": 3,
      "note": 61,
      "start": 123.642,
      "duration": 0.1136,
      "velocity": 127,
      "chip": "ym2612"
    },
    {
      "channel": 4,
      "note": 72,
      "start": 123.669,
      "duration": 0.2809,
      "velocity": 95,
      "chip": "ym2612"
    },
    {
      "channel": 5,
      "note": 68,
      "start": 123.6709,
      "duration": 0.2792,
      "velocity": 95,
      "chip": "ym2612"
    },
    {
      "channel": 0,
      "note": 66,
      "start": 123.7535,
      "duration": 0.2808,
      "velocity": 95,
      "chip": "ym2612"
    },
    {
      "channel": 2,
      "note": 66,
      "start": 123.7553,
      "duration": 0.2794,
      "velocity": 95,
      "chip": "ym2612"
    },
    {
      "channel": 1,
      "note": 42,
      "start": 123.8661,
      "duration": 0.1684,
      "velocity": 108,
      "chip": "ym2612"
    },
    {
      "channel": 3,
      "note": 61,
      "start": 123.8683,
      "duration": 0.1098,
      "velocity": 127,
      "chip": "ym2612"
    },
    {
      "channel": 4,
      "note": 66,
      "start": 124.0083,
      "duration": 0.2905,
      "velocity": 95,
      "chip": "ym2612"
    },
    {
      "channel": 5,
      "note": 66,
      "start": 124.01,
      "duration": 0.2889,
      "velocity": 95,
      "chip": "ym2612"
    },
    {
      "channel": 0,
      "note": 72,
      "start": 124.0925,
      "duration": 0.2948,
      "velocity": 95,
      "chip": "ym2612"
    },
    {
      "channel": 1,
      "note": 42,
      "start": 124.0942,
      "duration": 0.6508,
      "velocity": 108,
      "chip": "ym2612"
    },
    {
      "channel": 2,
      "note": 68,
      "start": 124.096,
      "duration": 0.2916,
      "velocity": 95,
      "chip": "ym2612"
    },
    {
      "channel": 3,
      "note": 61,
      "start": 124.1002,
      "duration": 0.1088,
      "velocity": 127,
      "chip": "ym2612"
    },
    {
      "channel": 4,
      "note": 72,
      "start": 124.36,
      "duration": 0.2963,
      "velocity": 95,
      "chip": "ym2612"
    },
    {
      "channel": 5,
      "note": 68,
      "start": 124.3618,
      "duration": 0.2947,
      "velocity": 95,
      "chip": "ym2612"
    },
    {
      "channel": 0,
      "note": 66,
      "start": 124.449,
      "duration": 0.2958,
      "velocity": 95,
      "chip": "ym2612"
    },
    {
      "channel": 2,
      "note": 66,
      "start": 124.4508,
      "duration": 0.2944,
      "velocity": 95,
      "chip": "ym2612"
    },
    {
      "channel": 4,
      "note": 66,
      "start": 124.7173,
      "duration": 0.3056,
      "velocity": 95,
      "chip": "ym2612"
    },
    {
      "channel": 5,
      "note": 66,
      "start": 124.7191,
      "duration": 0.304,
      "velocity": 95,
      "chip": "ym2612"
    },
    {
      "channel": 0,
      "note": 72,
      "start": 124.806,
      "duration": 0.3099,
      "velocity": 95,
      "chip": "ym2612"
    },
    {
      "channel": 1,
      "note": 42,
      "start": 124.8076,
      "duration": 0.6841,
      "velocity": 108,
      "chip": "ym2612"
    },
    {
      "channel": 2,
      "note": 68,
      "start": 124.8095,
      "duration": 0.3067,
      "velocity": 95,
      "chip": "ym2612"
    },
    {
      "channel": 3,
      "note": 61,
      "start": 124.8128,
      "duration": 0.1157,
      "velocity": 127,
      "chip": "ym2612"
    },
    {
      "channel": 4,
      "note": 72,
      "start": 125.0871,
      "duration": 0.3114,
      "velocity": 95,
      "chip": "ym2612"
    },
    {
      "channel": 5,
      "note": 68,
      "start": 125.0889,
      "duration": 0.3098,
      "velocity": 95,
      "chip": "ym2612"
    },
    {
      "channel": 0,
      "note": 66,
      "start": 125.1808,
      "duration": 0.3107,
      "velocity": 95,
      "chip": "ym2612"
    },
    {
      "channel": 2,
      "note": 66,
      "start": 125.1826,
      "duration": 0.3093,
      "velocity": 95,
      "chip": "ym2612"
    },
    {
      "channel": 3,
      "note": 61,
      "start": 125.1847,
      "duration": 0.1194,
      "velocity": 127,
      "chip": "ym2612"
    },
    {
      "channel": 4,
      "note": 66,
      "start": 125.4625,
      "duration": 0.279,
      "velocity": 95,
      "chip": "ym2612"
    },
    {
      "channel": 5,
      "note": 66,
      "start": 125.4651,
      "duration": 0.2767,
      "velocity": 95,
      "chip": "ym2612"
    },
    {
      "channel": 0,
      "note": 73,
      "start": 125.5602,
      "duration": 0.2582,
      "velocity": 95,
      "chip": "ym2612"
    },
    {
      "channel": 1,
      "note": 42,
      "start": 125.567,
      "duration": 0.5621,
      "velocity": 108,
      "chip": "ym2612"
    },
    {
      "channel": 2,
      "note": 69,
      "start": 125.5733,
      "duration": 0.2453,
      "velocity": 95,
      "chip": "ym2612"
    },
    {
      "channel": 3,
      "note": 61,
      "start": 125.5822,
      "duration": 0.0822,
      "velocity": 127,
      "chip": "ym2612"
    },
    {
      "channel": 4,
      "note": 73,
      "start": 125.8003,
      "duration": 0.2518,
      "velocity": 95,
      "chip": "ym2612"
    },
    {
      "channel": 5,
      "note": 69,
      "start": 125.8067,
      "duration": 0.2456,
      "velocity": 95,
      "chip": "ym2612"
    },
    {
      "channel": 0,
      "note": 66,
      "start": 125.8716,
      "duration": 0.2574,
      "velocity": 95,
      "chip": "ym2612"
    },
    {
      "channel": 2,
      "note": 66,
      "start": 125.8733,
      "duration": 0.256,
      "velocity": 95,
      "chip": "ym2612"
    },
    {
      "channel": 4,
      "note": 66,
      "start": 126.1054,
      "duration": 0.2573,
      "velocity": 95,
      "chip": "ym2612"
    },
    {
      "channel": 5,
      "note": 66,
      "start": 126.1071,
      "duration": 0.2559,
      "velocity": 95,
      "chip": "ym2612"
    },
    {
      "channel": 0,
      "note": 73,
      "start": 126.1824,
      "duration": 0.2571,
      "velocity": 95,
      "chip": "ym2612"
    },
    {
      "channel": 1,
      "note": 42,
      "start": 126.1841,
      "duration": 0.152,
      "velocity": 108,
      "chip": "ym2612"
    },
    {
      "channel": 2,
      "note": 69,
      "start": 126.1859,
      "duration": 0.2539,
      "velocity": 95,
      "chip": "ym2612"
    },
    {
      "channel": 3,
      "note": 61,
      "start": 126.188,
      "duration": 0.0966,
      "velocity": 127,
      "chip": "ym2612"
    },
    {
      "channel": 1,
      "note": 42,
      "start": 126.3892,
      "duration": 0.1539,
      "velocity": 108,
      "chip": "ym2612"
    },
    {
      "channel": 3,
      "note": 61,
      "start": 126.3915,
      "duration": 0.1034,
      "velocity": 127,
      "chip": "ym2612"
    },
    {
      "channel": 4,
      "note": 73,
      "start": 126.4167,
      "duration": 0.2562,
      "velocity": 95,
      "chip": "ym2612"
    },
    {
      "channel": 5,
      "note": 69,
      "start": 126.4185,
      "duration": 0.2546,
      "velocity": 95,
      "chip": "ym2612"
    },
    {
      "channel": 0,
      "note": 66,
      "start": 126.4927,
      "duration": 0.2574,
      "velocity": 95,
      "chip": "ym2612"
    },
    {
      "channel": 2,
      "note": 66,
      "start": 126.4945,
      "duration": 0.256,
      "velocity": 95,
      "chip": "ym2612"
    },
    {
      "channel": 1,
      "note": 42,
      "start": 126.5963,
      "duration": 0.154,
      "velocity": 108,
      "chip": "ym2612"
    },
    {
      "channel": 3,
      "note": 61,
      "start": 126.5994,
      "duration": 0.0994,
      "velocity": 127,
      "chip": "ym2612"
    },
    {
      "channel": 4,
      "note": 66,
      "start": 126.7265,
      "duration": 0.2574,
      "velocity": 95,
      "chip": "ym2612"
    },
    {
      "channel": 5,
      "note": 66,
      "start": 126.7282,
      "duration": 0.2559,
      "velocity": 95,
      "chip": "ym2612"
    },
    {
      "channel": 0,
      "note": 73,
      "start": 126.8038,
      "duration": 0.2569,
      "velocity": 95,
      "chip": "ym2612"
    },
    {
      "channel": 1,
      "note": 42,
      "start": 126.8055,
      "duration": 0.566,
      "velocity": 108,
      "chip": "ym2612"
    },
    {
      "channel": 2,
      "note": 69,
      "start": 126.8073,
      "duration": 0.2537,
      "velocity": 95,
      "chip": "ym2612"
    },
    {
      "channel": 3,
      "note": 61,
      "start": 126.8094,
      "duration": 0.0964,
      "velocity": 127,
      "chip": "ym2612"
    },
    {
      "channel": 4,
      "note": 73,
      "start": 127.0373,
      "duration": 0.2572,
      "velocity": 95,
      "chip": "ym2612"
    },
    {
      "channel": 5,
      "note": 69,
      "start": 127.039,
      "duration": 0.2556,
      "velocity": 95,
      "chip": "ym2612"
    },
    {
      "channel": 0,
      "note": 66,
      "start": 127.1147,
      "duration": 0.2566,
      "velocity": 95,
      "chip": "ym2612"
    },
    {
      "channel": 2,
      "note": 66,
      "start": 127.1165,
      "duration": 0.2551,
      "velocity": 95,
      "chip": "ym2612"
    },
    {
      "channel": 4,
      "note": 66,
      "start": 127.3485,
      "duration": 0.0761,
      "velocity": 95,
      "chip": "ym2612"
    },
    {
      "channel": 5,
      "note": 66,
      "start": 127.3502,
      "duration": 0.0743,
      "velocity": 95,
      "chip": "ym2612"
    }
  ]
}