{
  "track_name": "23 True Ending",
  "duration_sec": 238.566,
  "sample_rate": 44100,
  "note_count": 1302,
  "unique_pitches": 41,
  "pitch_range": 53,
  "avg_note_duration": 0.5323,
  "reconstruction_stats": {
    "notes_reconstructed": 1302,
    "keyon_events": 1302,
    "keyoff_events": 1302,
    "orphan_keyons": 0,
    "unique_pitches": 41,
    "pitch_range": 53,
    "avg_duration_sec": 0.5323
  },
  "metadata": {
    "source": "G\\Gley Lancer\\23 True Ending.vgz"
  },
  "notes": [
    {
      "channel": 1,
      "note": 78,
      "start": 0.0051,
      "duration": 2.9339,
      "velocity": 87,
      "chip": "ym2612"
    },
    {
      "channel": 2,
      "note": 59,
      "start": 0.0094,
      "duration": 2.9609,
      "velocity": 97,
      "chip": "ym2612"
    },
    {
      "channel": 3,
      "note": -1,
      "start": 0.0155,
      "duration": 2.9242,
      "velocity": 87,
      "chip": "ym2612"
    },
    {
      "channel": 1,
      "note": 80,
      "start": 2.97,
      "duration": 2.9395,
      "velocity": 87,
      "chip": "ym2612"
    },
    {
      "channel": 2,
      "note": 59,
      "start": 2.9706,
      "duration": 2.975,
      "velocity": 97,
      "chip": "ym2612"
    },
    {
      "channel": 3,
      "note": 75,
      "start": 2.9722,
      "duration": 2.9378,
      "velocity": 87,
      "chip": "ym2612"
    },
    {
      "channel": 0,
      "note": 102,
      "start": 4.0868,
      "duration": 1.8223,
      "velocity": 92,
      "chip": "ym2612"
    },
    {
      "channel": 4,
      "note": 75,
      "start": 4.2762,
      "duration": 1.819,
      "velocity": 92,
      "chip": "ym2612"
    },
    {
      "channel": 1,
      "note": 78,
      "start": 5.9453,
      "duration": 2.9347,
      "velocity": 87,
      "chip": "ym2612"
    },
    {
      "channel": 2,
      "note": 59,
      "start": 5.9458,
      "duration": 2.9647,
      "velocity": 97,
      "chip": "ym2612"
    },
    {
      "channel": 3,
      "note": 77,
      "start": 5.9466,
      "duration": 2.934,
      "velocity": 87,
      "chip": "ym2612"
    },
    {
      "channel": 1,
      "note": 80,
      "start": 8.9102,
      "duration": 2.94,
      "velocity": 87,
      "chip": "ym2612"
    },
    {
      "channel": 2,
      "note": 59,
      "start": 8.9108,
      "duration": 2.9751,
      "velocity": 97,
      "chip": "ym2612"
    },
    {
      "channel": 3,
      "note": 75,
      "start": 8.9114,
      "duration": 2.9394,
      "velocity": 87,
      "chip": "ym2612"
    },
    {
      "channel": 0,
      "note": 102,
      "start": 10.027,
      "duration": 1.8218,
      "velocity": 92,
      "chip": "ym2612"
    },
    {
      "channel": 4,
      "note": 102,
      "start": 10.2164,
      "duration": 1.819,
      "velocity": 92,
      "chip": "ym2612"
    },
    {
      "channel": 0,
      "note": 83,
      "start": 11.8847,
      "duration": 2.1917,
      "velocity": 98,
      "chip": "ym2612"
    },
    {
      "channel": 1,
      "note": 78,
      "start": 11.8856,
      "duration": 5.9037,
      "velocity": 87,
      "chip": "ym2612"
    },
    {
      "channel": 2,
      "note": 59,
      "start": 11.8862,
      "duration": 2.9644,
      "velocity": 97,
      "chip": "ym2612"
    },
    {
      "channel": 3,
      "note": 77,
      "start": 11.8871,
      "duration": 5.9038,
      "velocity": 87,
      "chip": "ym2612"
    },
    {
      "channel": 4,
      "note": 102,
      "start": 12.073,
      "duration": 2.1901,
      "velocity": 98,
      "chip": "ym2612"
    },
    {
      "channel": 0,
      "note": 87,
      "start": 14.1076,
      "duration": 0.3401,
      "velocity": 98,
      "chip": "ym2612"
    },
    {
      "channel": 4,
      "note": 83,
      "start": 14.2943,
      "duration": 0.3402,
      "velocity": 98,
      "chip": "ym2612"
    },
    {
      "channel": 0,
      "note": 85,
      "start": 14.4787,
      "duration": 0.3402,
      "velocity": 98,
      "chip": "ym2612"
    },
    {
      "channel": 4,
      "note": 87,
      "start": 14.6656,
      "duration": 0.34,
      "velocity": 98,
      "chip": "ym2612"
    },
    {
      "channel": 0,
      "note": 90,
      "start": 14.85,
      "duration": 1.4539,
      "velocity": 98,
      "chip": "ym2612"
    },
    {
      "channel": 2,
      "note": 58,
      "start": 14.8509,
      "duration": 2.9701,
      "velocity": 97,
      "chip": "ym2612"
    },
    {
      "channel": 4,
      "note": 85,
      "start": 15.0379,
      "duration": 1.4529,
      "velocity": 98,
      "chip": "ym2612"
    },
    {
      "channel": 0,
      "note": 83,
      "start": 16.3351,
      "duration": 0.7114,
      "velocity": 98,
      "chip": "ym2612"
    },
    {
      "channel": 4,
      "note": 90,
      "start": 16.5229,
      "duration": 0.7103,
      "velocity": 98,
      "chip": "ym2612"
    },
    {
      "channel": 0,
      "note": 83,
      "start": 17.0776,
      "duration": 0.1545,
      "velocity": 98,
      "chip": "ym2612"
    },
    {
      "channel": 0,
      "note": 85,
      "start": 17.2632,
      "duration": 0.1545,
      "velocity": 98,
      "chip": "ym2612"
    },
    {
      "channel": 4,
      "note": 83,
      "start": 17.2647,
      "duration": 0.1543,
      "velocity": 98,
      "chip": "ym2612"
    },
    {
      "channel": 0,
      "note": 87,
      "start": 17.4488,
      "duration": 0.3401,
      "velocity": 98,
      "chip": "ym2612"
    },
    {
      "channel": 4,
      "note": 83,
      "start": 17.4503,
      "duration": 0.1542,
      "velocity": 98,
      "chip": "ym2612"
    },
    {
      "channel": 4,
      "note": 85,
      "start": 17.6356,
      "duration": 0.3401,
      "velocity": 98,
      "chip": "ym2612"
    },
    {
      "channel": 0,
      "note": 88,
      "start": 17.8201,
      "duration": 2.1964,
      "velocity": 98,
      "chip": "ym2612"
    },
    {
      "channel": 1,
      "note": 78,
      "start": 17.8206,
      "duration": 5.9088,
      "velocity": 87,
      "chip": "ym2612"
    },
    {
      "channel": 2,
      "note": 56,
      "start": 17.8212,
      "duration": 2.9696,
      "velocity": 97,
      "chip": "ym2612"
    },
    {
      "channel": 3,
      "note": 75,
      "start": 17.8218,
      "duration": 5.9082,
      "velocity": 87,
      "chip": "ym2612"
    },
    {
      "channel": 4,
      "note": 87,
      "start": 18.0079,
      "duration": 2.1954,
      "velocity": 98,
      "chip": "ym2612"
    },
    {
      "channel": 0,
      "note": 90,
      "start": 20.0477,
      "duration": 0.7114,
      "velocity": 98,
      "chip": "ym2612"
    },
    {
      "channel": 4,
      "note": 88,
      "start": 20.2345,
      "duration": 0.7118,
      "velocity": 98,
      "chip": "ym2612"
    },
    {
      "channel": 0,
      "note": 90,
      "start": 20.7902,
      "duration": 2.939,
      "velocity": 98,
      "chip": "ym2612"
    },
    {
      "channel": 2,
      "note": 54,
      "start": 20.791,
      "duration": 2.9701,
      "velocity": 97,
      "chip": "ym2612"
    },
    {
      "channel": 4,
      "note": 90,
      "start": 20.977,
      "duration": 2.9397,
      "velocity": 98,
      "chip": "ym2612"
    },
    {
      "channel": 0,
      "note": 92,
      "start": 23.7603,
      "duration": 0.3401,
      "velocity": 98,
      "chip": "ym2612"
    },
    {
      "channel": 1,
      "note": 80,
      "start": 23.7608,
      "duration": 2.9387,
      "velocity": 87,
      "chip": "ym2612"
    },
    {
      "channel": 2,
      "note": 52,
      "start": 23.7614,
      "duration": 2.9699,
      "velocity": 97,
      "chip": "ym2612"
    },
    {
      "channel": 3,
      "note": 75,
      "start": 23.762,
      "duration": 2.9381,
      "velocity": 87,
      "chip": "ym2612"
    },
    {
      "channel": 4,
      "note": 90,
      "start": 23.947,
      "duration": 0.3401,
      "velocity": 98,
      "chip": "ym2612"
    },
    {
      "channel": 0,
      "note": 90,
      "start": 24.1326,
      "duration": 0.1534,
      "velocity": 98,
      "chip": "ym2612"
    },
    {
      "channel": 0,
      "note": 88,
      "start": 24.3172,
      "duration": 2.3821,
      "velocity": 98,
      "chip": "ym2612"
    },
    {
      "channel": 4,
      "note": 92,
      "start": 24.3185,
      "duration": 0.1542,
      "velocity": 98,
      "chip": "ym2612"
    },
    {
      "channel": 4,
      "note": 90,
      "start": 24.5039,
      "duration": 2.383,
      "velocity": 98,
      "chip": "ym2612"
    },
    {
      "channel": 0,
      "note": 90,
      "start": 26.7304,
      "duration": 2.9389,
      "velocity": 98,
      "chip": "ym2612"
    },
    {
      "channel": 1,
      "note": 82,
      "start": 26.7309,
      "duration": 2.9387,
      "velocity": 87,
      "chip": "ym2612"
    },
    {
      "channel": 2,
      "note": 51,
      "start": 26.7315,
      "duration": 2.9698,
      "velocity": 97,
      "chip": "ym2612"
    },
    {
      "channel": 3,
      "note": 76,
      "start": 26.7321,
      "duration": 2.9381,
      "velocity": 87,
      "chip": "ym2612"
    },
    {
      "channel": 4,
      "note": 88,
      "start": 26.9171,
      "duration": 2.94,
      "velocity": 98,
      "chip": "ym2612"
    },
    {
      "channel": 0,
      "note": 92,
      "start": 29.7005,
      "duration": 0.3402,
      "velocity": 98,
      "chip": "ym2612"
    },
    {
      "channel": 1,
      "note": 80,
      "start": 29.701,
      "duration": 2.9388,
      "velocity": 87,
      "chip": "ym2612"
    },
    {
      "channel": 2,
      "note": 49,
      "start": 29.7016,
      "duration": 2.9698,
      "velocity": 97,
      "chip": "ym2612"
    },
    {
      "channel": 3,
      "note": 75,
      "start": 29.7022,
      "duration": 2.9382,
      "velocity": 87,
      "chip": "ym2612"
    },
    {
      "channel": 4,
      "note": 90,
      "start": 29.8872,
      "duration": 0.3401,
      "velocity": 98,
      "chip": "ym2612"
    },
    {
      "channel": 0,
      "note": 90,
      "start": 30.0717,
      "duration": 0.1545,
      "velocity": 98,
      "chip": "ym2612"
    },
    {
      "channel": 0,
      "note": 88,
      "start": 30.2574,
      "duration": 2.382,
      "velocity": 98,
      "chip": "ym2612"
    },
    {
      "channel": 4,
      "note": 92,
      "start": 30.2588,
      "duration": 0.1543,
      "velocity": 98,
      "chip": "ym2612"
    },
    {
      "channel": 4,
      "note": 90,
      "start": 30.4441,
      "duration": 2.383,
      "velocity": 98,
      "chip": "ym2612"
    },
    {
      "channel": 0,
      "note": 90,
      "start": 32.6706,
      "duration": 2.3844,
      "velocity": 98,
      "chip": "ym2612"
    },
    {
      "channel": 1,
      "note": 82,
      "start": 32.6711,
      "duration": 2.3842,
      "velocity": 87,
      "chip": "ym2612"
    },
    {
      "channel": 2,
      "note": 54,
      "start": 32.6717,
      "duration": 0.9274,
      "velocity": 97,
      "chip": "ym2612"
    },
    {
      "channel": 3,
      "note": 76,
      "start": 32.6723,
      "duration": 2.3836,
      "velocity": 87,
      "chip": "ym2612"
    },
    {
      "channel": 4,
      "note": 88,
      "start": 32.8573,
      "duration": 2.2515,
      "velocity": 98,
      "chip": "ym2612"
    },
    {
      "channel": 2,
      "note": 66,
      "start": 33.5993,
      "duration": 0.1854,
      "velocity": 97,
      "chip": "ym2612"
    },
    {
      "channel": 2,
      "note": 70,
      "start": 33.785,
      "duration": 0.1853,
      "velocity": 97,
      "chip": "ym2612"
    },
    {
      "channel": 2,
      "note": 71,
      "start": 33.9705,
      "duration": 0.1854,
      "velocity": 97,
      "chip": "ym2612"
    },
    {
      "channel": 2,
      "note": 66,
      "start": 34.1562,
      "duration": 0.9311,
      "velocity": 97,
      "chip": "ym2612"
    },
    {
      "channel": 0,
      "note": 83,
      "start": 35.0861,
      "duration": 1.3501,
      "velocity": 98,
      "chip": "ym2612"
    },
    {
      "channel": 1,
      "note": 78,
      "start": 35.0869,
      "duration": 4.0048,
      "velocity": 87,
      "chip": "ym2612"
    },
    {
      "channel": 2,
      "note": 59,
      "start": 35.0875,
      "duration": 0.6529,
      "velocity": 97,
      "chip": "ym2612"
    },
    {
      "channel": 3,
      "note": 78,
      "start": 35.0883,
      "duration": 4.0041,
      "velocity": 87,
      "chip": "ym2612"
    },
    {
      "channel": 4,
      "note": 90,
      "start": 35.1352,
      "duration": 1.3539,
      "velocity": 98,
      "chip": "ym2612"
    },
    {
      "channel": 2,
      "note": 71,
      "start": 35.7407,
      "duration": 0.1695,
      "velocity": 97,
      "chip": "ym2612"
    },
    {
      "channel": 2,
      "note": 73,
      "start": 35.9104,
      "duration": 0.1854,
      "velocity": 97,
      "chip": "ym2612"
    },
    {
      "channel": 2,
      "note": 71,
      "start": 36.096,
      "duration": 1.0093,
      "velocity": 97,
      "chip": "ym2612"
    },
    {
      "channel": 0,
      "note": 87,
      "start": 36.4667,
      "duration": 0.0212,
      "velocity": 98,
      "chip": "ym2612"
    },
    {
      "channel": 0,
      "note": 85,
      "start": 36.5156,
      "duration": 0.1535,
      "velocity": 98,
      "chip": "ym2612"
    },
    {
      "channel": 4,
      "note": 83,
      "start": 36.517,
      "duration": 0.1533,
      "velocity": 98,
      "chip": "ym2612"
    },
    {
      "channel": 0,
      "note": 88,
      "start": 36.7002,
      "duration": 0.0455,
      "velocity": 98,
      "chip": "ym2612"
    },
    {
      "channel": 4,
      "note": 87,
      "start": 36.7017,
      "duration": 0.0207,
      "velocity": 98,
      "chip": "ym2612"
    },
    {
      "channel": 4,
      "note": 85,
      "start": 36.7266,
      "duration": 0.1626,
      "velocity": 98,
      "chip": "ym2612"
    },
    {
      "channel": 0,
      "note": 87,
      "start": 36.7498,
      "duration": 0.3238,
      "velocity": 98,
      "chip": "ym2612"
    },
    {
      "channel": 4,
      "note": 88,
      "start": 36.9203,
      "duration": 0.2058,
      "velocity": 98,
      "chip": "ym2612"
    },
    {
      "channel": 0,
      "note": 90,
      "start": 37.1047,
      "duration": 0.6246,
      "velocity": 98,
      "chip": "ym2612"
    },
    {
      "channel": 2,
      "note": 58,
      "start": 37.1056,
      "duration": 2.0179,
      "velocity": 97,
      "chip": "ym2612"
    },
    {
      "channel": 4,
      "note": 87,
      "start": 37.1537,
      "duration": 0.601,
      "velocity": 98,
      "chip": "ym2612"
    },
    {
      "channel": 0,
      "note": 90,
      "start": 37.7338,
      "duration": 0.0198,
      "velocity": 98,
      "chip": "ym2612"
    },
    {
      "channel": 0,
      "note": 94,
      "start": 37.758,
      "duration": 0.1389,
      "velocity": 98,
      "chip": "ym2612"
    },
    {
      "channel": 4,
      "note": 90,
      "start": 37.7595,
      "duration": 0.1386,
      "velocity": 98,
      "chip": "ym2612"
    },
    {
      "channel": 0,
      "note": 95,
      "start": 37.9281,
      "duration": 0.1545,
      "velocity": 98,
      "chip": "ym2612"
    },
    {
      "channel": 4,
      "note": 90,
      "start": 37.9295,
      "duration": 0.1542,
      "velocity": 98,
      "chip": "ym2612"
    },
    {
      "channel": 0,
      "note": 83,
      "start": 38.1137,
      "duration": 0.5734,
      "velocity": 98,
      "chip": "ym2612"
    },
    {
      "channel": 4,
      "note": 94,
      "start": 38.1152,
      "duration": 0.1543,
      "velocity": 98,
      "chip": "ym2612"
    },
    {
      "channel": 4,
      "note": 95,
      "start": 38.3005,
      "duration": 0.4391,
      "velocity": 98,
      "chip": "ym2612"
    },
    {
      "channel": 0,
      "note": 83,
      "start": 38.7183,
      "duration": 0.0202,
      "velocity": 98,
      "chip": "ym2612"
    },
    {
      "channel": 0,
      "note": 85,
      "start": 38.7428,
      "duration": 0.02,
      "velocity": 98,
      "chip": "ym2612"
    },
    {
      "channel": 4,
      "note": 83,
      "start": 38.7443,
      "duration": 0.0198,
      "velocity": 98,
      "chip": "ym2612"
    },
    {
      "channel": 0,
      "note": 87,
      "start": 38.7672,
      "duration": 0.3242,
      "velocity": 98,
      "chip": "ym2612"
    },
    {
      "channel": 4,
      "note": 83,
      "start": 38.7687,
      "duration": 0.1383,
      "velocity": 98,
      "chip": "ym2612"
    },
    {
      "channel": 4,
      "note": 85,
      "start": 38.9381,
      "duration": 0.2063,
      "velocity": 98,
      "chip": "ym2612"
    },
    {
      "channel": 0,
      "note": 88,
      "start": 39.1226,
      "duration": 1.5823,
      "velocity": 98,
      "chip": "ym2612"
    },
    {
      "channel": 1,
      "note": 78,
      "start": 39.1231,
      "duration": 4.0041,
      "velocity": 87,
      "chip": "ym2612"
    },
    {
      "channel": 2,
      "note": 56,
      "start": 39.1237,
      "duration": 0.6527,
      "velocity": 97,
      "chip": "ym2612"
    },
    {
      "channel": 3,
      "note": 75,
      "start": 39.1243,
      "duration": 4.0035,
      "velocity": 87,
      "chip": "ym2612"
    },
    {
      "channel": 4,
      "note": 87,
      "start": 39.1715,
      "duration": 1.5862,
      "velocity": 98,
      "chip": "ym2612"
    },
    {
      "channel": 2,
      "note": 75,
      "start": 39.7766,
      "duration": 0.1695,
      "velocity": 97,
      "chip": "ym2612"
    },
    {
      "channel": 2,
      "note": 76,
      "start": 39.9464,
      "duration": 0.1854,
      "velocity": 97,
      "chip": "ym2612"
    },
    {
      "channel": 2,
      "note": 75,
      "start": 40.132,
      "duration": 1.0088,
      "velocity": 97,
      "chip": "ym2612"
    },
    {
      "channel": 0,
      "note": 90,
      "start": 40.7361,
      "duration": 0.373,
      "velocity": 98,
      "chip": "ym2612"
    },
    {
      "channel": 4,
      "note": 88,
      "start": 40.762,
      "duration": 0.4001,
      "velocity": 98,
      "chip": "ym2612"
    },
    {
      "channel": 0,
      "note": 90,
      "start": 41.1402,
      "duration": 0.5738,
      "velocity": 98,
      "chip": "ym2612"
    },
    {
      "channel": 2,
      "note": 54,
      "start": 41.1411,
      "duration": 2.0179,
      "velocity": 97,
      "chip": "ym2612"
    },
    {
      "channel": 4,
      "note": 90,
      "start": 41.1894,
      "duration": 0.577,
      "velocity": 98,
      "chip": "ym2612"
    },
    {
      "channel": 0,
      "note": 95,
      "start": 41.7452,
      "duration": 0.3732,
      "velocity": 98,
      "chip": "ym2612"
    },
    {
      "channel": 4,
      "note": 90,
      "start": 41.7708,
      "duration": 0.5344,
      "velocity": 98,
      "chip": "ym2612"
    },
    {
      "channel": 0,
      "note": 94,
      "start": 42.1495,
      "duration": 0.5732,
      "velocity": 98,
      "chip": "ym2612"
    },
    {
      "channel": 4,
      "note": 95,
      "start": 42.3363,
      "duration": 0.439,
      "velocity": 98,
      "chip": "ym2612"
    },
    {
      "channel": 0,
      "note": 90,
      "start": 42.754,
      "duration": 0.373,
      "velocity": 98,
      "chip": "ym2612"
    },
    {
      "channel": 4,
      "note": 94,
      "start": 42.7796,
      "duration": 0.4008,
      "velocity": 98,
      "chip": "ym2612"
    },
    {
      "channel": 0,
      "note": 92,
      "start": 43.1581,
      "duration": 0.2022,
      "velocity": 98,
      "chip": "ym2612"
    },
    {
      "channel": 1,
      "note": 80,
      "start": 43.1587,
      "duration": 1.9862,
      "velocity": 87,
      "chip": "ym2612"
    },
    {
      "channel": 2,
      "note": 52,
      "start": 43.1593,
      "duration": 2.0173,
      "velocity": 97,
      "chip": "ym2612"
    },
    {
      "channel": 3,
      "note": 75,
      "start": 43.1599,
      "duration": 1.9856,
      "velocity": 87,
      "chip": "ym2612"
    },
    {
      "channel": 4,
      "note": 90,
      "start": 43.2069,
      "duration": 0.3401,
      "velocity": 98,
      "chip": "ym2612"
    },
    {
      "channel": 0,
      "note": 90,
      "start": 43.3915,
      "duration": 0.1545,
      "velocity": 98,
      "chip": "ym2612"
    },
    {
      "channel": 0,
      "note": 88,
      "start": 43.5771,
      "duration": 1.5674,
      "velocity": 98,
      "chip": "ym2612"
    },
    {
      "channel": 4,
      "note": 92,
      "start": 43.5795,
      "duration": 0.1532,
      "velocity": 98,
      "chip": "ym2612"
    },
    {
      "channel": 4,
      "note": 90,
      "start": 43.7642,
      "duration": 1.4335,
      "velocity": 98,
      "chip": "ym2612"
    },
    {
      "channel": 0,
      "note": 90,
      "start": 45.1757,
      "duration": 1.987,
      "velocity": 98,
      "chip": "ym2612"
    },
    {
      "channel": 1,
      "note": 82,
      "start": 45.1763,
      "duration": 1.9868,
      "velocity": 87,
      "chip": "ym2612"
    },
    {
      "channel": 2,
      "note": 51,
      "start": 45.1768,
      "duration": 2.0179,
      "velocity": 97,
      "chip": "ym2612"
    },
    {
      "channel": 3,
      "note": 76,
      "start": 45.1775,
      "duration": 1.9862,
      "velocity": 87,
      "chip": "ym2612"
    },
    {
      "channel": 4,
      "note": 88,
      "start": 45.2246,
      "duration": 1.9915,
      "velocity": 98,
      "chip": "ym2612"
    },
    {
      "channel": 0,
      "note": 92,
      "start": 47.1938,
      "duration": 0.2023,
      "velocity": 98,
      "chip": "ym2612"
    },
    {
      "channel": 1,
      "note": 80,
      "start": 47.1944,
      "duration": 1.9862,
      "velocity": 87,
      "chip": "ym2612"
    },
    {
      "channel": 2,
      "note": 61,
      "start": 47.195,
      "duration": 0.2329,
      "velocity": 97,
      "chip": "ym2612"
    },
    {
      "channel": 3,
      "note": 75,
      "start": 47.1956,
      "duration": 1.9857,
      "velocity": 87,
      "chip": "ym2612"
    },
    {
      "channel": 4,
      "note": 90,
      "start": 47.2427,
      "duration": 0.3409,
      "velocity": 98,
      "chip": "ym2612"
    },
    {
      "channel": 0,
      "note": 90,
      "start": 47.4273,
      "duration": 0.1552,
      "velocity": 98,
      "chip": "ym2612"
    },
    {
      "channel": 2,
      "note": 68,
      "start": 47.4281,
      "duration": 0.3718,
      "velocity": 97,
      "chip": "ym2612"
    },
    {
      "channel": 0,
      "note": 88,
      "start": 47.6129,
      "duration": 1.5674,
      "velocity": 98,
      "chip": "ym2612"
    },
    {
      "channel": 4,
      "note": 92,
      "start": 47.6142,
      "duration": 0.1542,
      "velocity": 98,
      "chip": "ym2612"
    },
    {
      "channel": 2,
      "note": 73,
      "start": 47.8001,
      "duration": 0.0083,
      "velocity": 97,
      "chip": "ym2612"
    },
    {
      "channel": 4,
      "note": 90,
      "start": 47.801,
      "duration": 1.4323,
      "velocity": 98,
      "chip": "ym2612"
    },
    {
      "channel": 2,
      "note": 75,
      "start": 47.8087,
      "duration": 0.04,
      "velocity": 97,
      "chip": "ym2612"
    },
    {
      "channel": 2,
      "note": 73,
      "start": 47.8489,
      "duration": 1.3634,
      "velocity": 97,
      "chip": "ym2612"
    },
    {
      "channel": 0,
      "note": 90,
      "start": 49.2114,
      "duration": 0.9126,
      "velocity": 98,
      "chip": "ym2612"
    },
    {
      "channel": 1,
      "note": 82,
      "start": 49.212,
      "duration": 0.9123,
      "velocity": 87,
      "chip": "ym2612"
    },
    {
      "channel": 2,
      "note": 54,
      "start": 49.2125,
      "duration": 0.5417,
      "velocity": 97,
      "chip": "ym2612"
    },
    {
      "channel": 3,
      "note": 76,
      "start": 49.2132,
      "duration": 0.9117,
      "velocity": 87,
      "chip": "ym2612"
    },
    {
      "channel": 4,
      "note": 88,
      "start": 49.2557,
      "duration": 0.9061,
      "velocity": 98,
      "chip": "ym2612"
    },
    {
      "channel": 2,
      "note": 58,
      "start": 49.7545,
      "duration": 0.3814,
      "velocity": 97,
      "chip": "ym2612"
    },
    {
      "channel": 0,
      "note": 83,
      "start": 50.1332,
      "duration": 1.521,
      "velocity": 84,
      "chip": "ym2612"
    },
    {
      "channel": 1,
      "note": 78,
      "start": 50.1356,
      "duration": 3.7234,
      "velocity": 87,
      "chip": "ym2612"
    },
    {
      "channel": 2,
      "note": 59,
      "start": 50.1378,
      "duration": 0.2257,
      "velocity": 97,
      "chip": "ym2612"
    },
    {
      "channel": 3,
      "note": 78,
      "start": 50.1422,
      "duration": 3.7174,
      "velocity": 87,
      "chip": "ym2612"
    },
    {
      "channel": 4,
      "note": 90,
      "start": 50.1839,
      "duration": 1.6415,
      "velocity": 84,
      "chip": "ym2612"
    },
    {
      "channel": 2,
      "note": 59,
      "start": 50.3638,
      "duration": 0.2332,
      "velocity": 97,
      "chip": "ym2612"
    },
    {
      "channel": 2,
      "note": 59,
      "start": 51.0013,
      "duration": 0.2334,
      "velocity": 97,
      "chip": "ym2612"
    },
    {
      "channel": 0,
      "note": 82,
      "start": 51.6544,
      "duration": 0.1694,
      "velocity": 84,
      "chip": "ym2612"
    },
    {
      "channel": 0,
      "note": 83,
      "start": 51.8241,
      "duration": 0.1853,
      "velocity": 84,
      "chip": "ym2612"
    },
    {
      "channel": 4,
      "note": 83,
      "start": 51.8257,
      "duration": 0.1856,
      "velocity": 84,
      "chip": "ym2612"
    },
    {
      "channel": 0,
      "note": 82,
      "start": 52.0097,
      "duration": 0.8709,
      "velocity": 84,
      "chip": "ym2612"
    },
    {
      "channel": 2,
      "note": 58,
      "start": 52.0105,
      "duration": 0.2331,
      "velocity": 97,
      "chip": "ym2612"
    },
    {
      "channel": 4,
      "note": 82,
      "start": 52.0116,
      "duration": 0.0471,
      "velocity": 84,
      "chip": "ym2612"
    },
    {
      "channel": 4,
      "note": 83,
      "start": 52.059,
      "duration": 0.8708,
      "velocity": 84,
      "chip": "ym2612"
    },
    {
      "channel": 2,
      "note": 58,
      "start": 52.2439,
      "duration": 0.2332,
      "velocity": 97,
      "chip": "ym2612"
    },
    {
      "channel": 0,
      "note": 87,
      "start": 52.8809,
      "duration": 1.0088,
      "velocity": 84,
      "chip": "ym2612"
    },
    {
      "channel": 2,
      "note": 58,
      "start": 52.8817,
      "duration": 0.2332,
      "velocity": 97,
      "chip": "ym2612"
    },
    {
      "channel": 4,
      "note": 82,
      "start": 52.9301,
      "duration": 1.0087,
      "velocity": 84,
      "chip": "ym2612"
    },
    {
      "channel": 0,
      "note": 90,
      "start": 53.8899,
      "duration": 0.0476,
      "velocity": 84,
      "chip": "ym2612"
    },
    {
      "channel": 1,
      "note": 78,
      "start": 53.8904,
      "duration": 3.7284,
      "velocity": 87,
      "chip": "ym2612"
    },
    {
      "channel": 2,
      "note": 56,
      "start": 53.891,
      "duration": 0.2329,
      "velocity": 97,
      "chip": "ym2612"
    },
    {
      "channel": 3,
      "note": 75,
      "start": 53.8916,
      "duration": 3.7278,
      "velocity": 87,
      "chip": "ym2612"
    },
    {
      "channel": 0,
      "note": 88,
      "start": 53.9377,
      "duration": 0.1854,
      "velocity": 84,
      "chip": "ym2612"
    },
    {
      "channel": 4,
      "note": 87,
      "start": 53.9391,
      "duration": 0.1856,
      "velocity": 84,
      "chip": "ym2612"
    },
    {
      "channel": 0,
      "note": 87,
      "start": 54.1233,
      "duration": 0.0476,
      "velocity": 84,
      "chip": "ym2612"
    },
    {
      "channel": 2,
      "note": 56,
      "start": 54.1241,
      "duration": 0.2329,
      "velocity": 97,
      "chip": "ym2612"
    },
    {
      "channel": 4,
      "note": 90,
      "start": 54.1251,
      "duration": 0.0471,
      "velocity": 84,
      "chip": "ym2612"
    },
    {
      "channel": 0,
      "note": 83,
      "start": 54.1711,
      "duration": 1.5982,
      "velocity": 84,
      "chip": "ym2612"
    },
    {
      "channel": 4,
      "note": 88,
      "start": 54.1726,
      "duration": 0.1852,
      "velocity": 84,
      "chip": "ym2612"
    },
    {
      "channel": 4,
      "note": 87,
      "start": 54.3591,
      "duration": 1.4595,
      "velocity": 84,
      "chip": "ym2612"
    },
    {
      "channel": 2,
      "note": 56,
      "start": 54.7615,
      "duration": 0.2332,
      "velocity": 97,
      "chip": "ym2612"
    },
    {
      "channel": 0,
      "note": 90,
      "start": 55.7696,
      "duration": 0.0475,
      "velocity": 84,
      "chip": "ym2612"
    },
    {
      "channel": 2,
      "note": 54,
      "start": 55.7704,
      "duration": 0.2332,
      "velocity": 97,
      "chip": "ym2612"
    },
    {
      "channel": 0,
      "note": 88,
      "start": 55.8174,
      "duration": 0.1854,
      "velocity": 84,
      "chip": "ym2612"
    },
    {
      "channel": 4,
      "note": 83,
      "start": 55.8189,
      "duration": 0.1856,
      "velocity": 84,
      "chip": "ym2612"
    },
    {
      "channel": 0,
      "note": 87,
      "start": 56.003,
      "duration": 0.0477,
      "velocity": 84,
      "chip": "ym2612"
    },
    {
      "channel": 2,
      "note": 54,
      "start": 56.0038,
      "duration": 0.2329,
      "velocity": 97,
      "chip": "ym2612"
    },
    {
      "channel": 4,
      "note": 90,
      "start": 56.0048,
      "duration": 0.0472,
      "velocity": 84,
      "chip": "ym2612"
    },
    {
      "channel": 0,
      "note": 83,
      "start": 56.0509,
      "duration": 1.2195,
      "velocity": 84,
      "chip": "ym2612"
    },
    {
      "channel": 4,
      "note": 88,
      "start": 56.0524,
      "duration": 0.1851,
      "velocity": 84,
      "chip": "ym2612"
    },
    {
      "channel": 4,
      "note": 87,
      "start": 56.2378,
      "duration": 1.058,
      "velocity": 84,
      "chip": "ym2612"
    },
    {
      "channel": 2,
      "note": 54,
      "start": 56.641,
      "duration": 0.2334,
      "velocity": 97,
      "chip": "ym2612"
    },
    {
      "channel": 0,
      "note": 83,
      "start": 57.2706,
      "duration": 0.0238,
      "velocity": 84,
      "chip": "ym2612"
    },
    {
      "channel": 0,
      "note": 88,
      "start": 57.2946,
      "duration": 0.1692,
      "velocity": 84,
      "chip": "ym2612"
    },
    {
      "channel": 4,
      "note": 83,
      "start": 57.2962,
      "duration": 0.1692,
      "velocity": 84,
      "chip": "ym2612"
    },
    {
      "channel": 0,
      "note": 90,
      "start": 57.4641,
      "duration": 0.1854,
      "velocity": 84,
      "chip": "ym2612"
    },
    {
      "channel": 4,
      "note": 83,
      "start": 57.4657,
      "duration": 0.1862,
      "velocity": 84,
      "chip": "ym2612"
    },
    {
      "channel": 0,
      "note": 92,
      "start": 57.6498,
      "duration": 0.8705,
      "velocity": 84,
      "chip": "ym2612"
    },
    {
      "channel": 1,
      "note": 76,
      "start": 57.6503,
      "duration": 1.8486,
      "velocity": 87,
      "chip": "ym2612"
    },
    {
      "channel": 2,
      "note": 52,
      "start": 57.6509,
      "duration": 0.2325,
      "velocity": 97,
      "chip": "ym2612"
    },
    {
      "channel": 3,
      "note": 75,
      "start": 57.6515,
      "duration": 1.848,
      "velocity": 87,
      "chip": "ym2612"
    },
    {
      "channel": 4,
      "note": 88,
      "start": 57.6522,
      "duration": 0.0461,
      "velocity": 84,
      "chip": "ym2612"
    },
    {
      "channel": 4,
      "note": 90,
      "start": 57.6986,
      "duration": 0.8711,
      "velocity": 84,
      "chip": "ym2612"
    },
    {
      "channel": 2,
      "note": 52,
      "start": 57.8836,
      "duration": 0.2332,
      "velocity": 97,
      "chip": "ym2612"
    },
    {
      "channel": 0,
      "note": 92,
      "start": 58.5205,
      "duration": 0.4194,
      "velocity": 84,
      "chip": "ym2612"
    },
    {
      "channel": 2,
      "note": 52,
      "start": 58.5214,
      "duration": 0.2334,
      "velocity": 97,
      "chip": "ym2612"
    },
    {
      "channel": 4,
      "note": 92,
      "start": 58.57,
      "duration": 0.5566,
      "velocity": 84,
      "chip": "ym2612"
    },
    {
      "channel": 0,
      "note": 94,
      "start": 58.9401,
      "duration": 0.2337,
      "velocity": 84,
      "chip": "ym2612"
    },
    {
      "channel": 4,
      "note": 92,
      "start": 59.1269,
      "duration": 0.2182,
      "velocity": 84,
      "chip": "ym2612"
    },
    {
      "channel": 0,
      "note": 95,
      "start": 59.174,
      "duration": 0.3556,
      "velocity": 84,
      "chip": "ym2612"
    },
    {
      "channel": 4,
      "note": 94,
      "start": 59.3454,
      "duration": 0.2333,
      "velocity": 84,
      "chip": "ym2612"
    },
    {
      "channel": 0,
      "note": 90,
      "start": 59.5299,
      "duration": 0.4909,
      "velocity": 84,
      "chip": "ym2612"
    },
    {
      "channel": 1,
      "note": 78,
      "start": 59.5304,
      "duration": 1.8489,
      "velocity": 87,
      "chip": "ym2612"
    },
    {
      "channel": 2,
      "note": 51,
      "start": 59.531,
      "duration": 0.2328,
      "velocity": 97,
      "chip": "ym2612"
    },
    {
      "channel": 3,
      "note": 71,
      "start": 59.5316,
      "duration": 1.8483,
      "velocity": 87,
      "chip": "ym2612"
    },
    {
      "channel": 4,
      "note": 95,
      "start": 59.579,
      "duration": 0.4677,
      "velocity": 84,
      "chip": "ym2612"
    },
    {
      "channel": 2,
      "note": 51,
      "start": 59.764,
      "duration": 0.2335,
      "velocity": 97,
      "chip": "ym2612"
    },
    {
      "channel": 0,
      "note": 90,
      "start": 60.021,
      "duration": 0.0243,
      "velocity": 84,
      "chip": "ym2612"
    },
    {
      "channel": 0,
      "note": 94,
      "start": 60.0456,
      "duration": 0.1699,
      "velocity": 84,
      "chip": "ym2612"
    },
    {
      "channel": 4,
      "note": 90,
      "start": 60.0471,
      "duration": 0.1699,
      "velocity": 84,
      "chip": "ym2612"
    },
    {
      "channel": 0,
      "note": 95,
      "start": 60.2157,
      "duration": 0.1854,
      "velocity": 84,
      "chip": "ym2612"
    },
    {
      "channel": 4,
      "note": 90,
      "start": 60.2173,
      "duration": 0.1857,
      "velocity": 84,
      "chip": "ym2612"
    },
    {
      "channel": 0,
      "note": 90,
      "start": 60.4014,
      "duration": 0.6046,
      "velocity": 84,
      "chip": "ym2612"
    },
    {
      "channel": 2,
      "note": 51,
      "start": 60.4023,
      "duration": 0.233,
      "velocity": 97,
      "chip": "ym2612"
    },
    {
      "channel": 4,
      "note": 94,
      "start": 60.4033,
      "duration": 0.0469,
      "velocity": 84,
      "chip": "ym2612"
    },
    {
      "channel": 4,
      "note": 95,
      "start": 60.4505,
      "duration": 0.5815,
      "velocity": 84,
      "chip": "ym2612"
    },
    {
      "channel": 0,
      "note": 99,
      "start": 61.0063,
      "duration": 0.4038,
      "velocity": 84,
      "chip": "ym2612"
    },
    {
      "channel": 4,
      "note": 90,
      "start": 61.0324,
      "duration": 0.4267,
      "velocity": 84,
      "chip": "ym2612"
    },
    {
      "channel": 0,
      "note": 99,
      "start": 61.4103,
      "duration": 1.8791,
      "velocity": 84,
      "chip": "ym2612"
    },
    {
      "channel": 1,
      "note": 76,
      "start": 61.4109,
      "duration": 1.8479,
      "velocity": 87,
      "chip": "ym2612"
    },
    {
      "channel": 2,
      "note": 61,
      "start": 61.4115,
      "duration": 0.2327,
      "velocity": 97,
      "chip": "ym2612"
    },
    {
      "channel": 3,
      "note": 75,
      "start": 61.4121,
      "duration": 2.3236,
      "velocity": 87,
      "chip": "ym2612"
    },
    {
      "channel": 4,
      "note": 99,
      "start": 61.4594,
      "duration": 1.8745,
      "velocity": 84,
      "chip": "ym2612"
    },
    {
      "channel": 2,
      "note": 61,
      "start": 61.6444,
      "duration": 0.2332,
      "velocity": 97,
      "chip": "ym2612"
    },
    {
      "channel": 2,
      "note": 61,
      "start": 62.2817,
      "duration": 0.2332,
      "velocity": 97,
      "chip": "ym2612"
    },
    {
      "channel": 0,
      "note": 97,
      "start": 63.2897,
      "duration": 0.4504,
      "velocity": 84,
      "chip": "ym2612"
    },
    {
      "channel": 1,
      "note": 78,
      "start": 63.2903,
      "duration": 0.4447,
      "velocity": 87,
      "chip": "ym2612"
    },
    {
      "channel": 2,
      "note": 54,
      "start": 63.2908,
      "duration": 0.0674,
      "velocity": 97,
      "chip": "ym2612"
    },
    {
      "channel": 4,
      "note": 99,
      "start": 63.3342,
      "duration": 0.4471,
      "velocity": 84,
      "chip": "ym2612"
    },
    {
      "channel": 2,
      "note": 54,
      "start": 63.3585,
      "duration": 0.0494,
      "velocity": 97,
      "chip": "ym2612"
    },
    {
      "channel": 2,
      "note": 54,
      "start": 63.5105,
      "duration": 0.0521,
      "velocity": 97,
      "chip": "ym2612"
    },
    {
      "channel": 0,
      "note": 78,
      "start": 63.7442,
      "duration": 0.0347,
      "velocity": 78,
      "chip": "ym2612"
    },
    {
      "channel": 1,
      "note": 75,
      "start": 63.7483,
      "duration": 0.0267,
      "velocity": 78,
      "chip": "ym2612"
    },
    {
      "channel": 2,
      "note": 59,
      "start": 63.749,
      "duration": 0.031,
      "velocity": 97,
      "chip": "ym2612"
    },
    {
      "channel": 3,
      "note": 73,
      "start": 63.7558,
      "duration": 0.0197,
      "velocity": 78,
      "chip": "ym2612"
    },
    {
      "channel": 0,
      "note": 78,
      "start": 63.7791,
      "duration": 0.0308,
      "velocity": 78,
      "chip": "ym2612"
    },
    {
      "channel": 1,
      "note": 75,
      "start": 63.7797,
      "duration": 0.0264,
      "velocity": 78,
      "chip": "ym2612"
    },
    {
      "channel": 2,
      "note": 59,
      "start": 63.7802,
      "duration": 0.0304,
      "velocity": 97,
      "chip": "ym2612"
    },
    {
      "channel": 3,
      "note": 73,
      "start": 63.7809,
      "duration": 0.0258,
      "velocity": 78,
      "chip": "ym2612"
    },
    {
      "channel": 4,
      "note": 97,
      "start": 63.7869,
      "duration": 0.0246,
      "velocity": 78,
      "chip": "ym2612"
    },
    {
      "channel": 4,
      "note": 78,
      "start": 63.8118,
      "duration": 0.023,
      "velocity": 78,
      "chip": "ym2612"
    },
    {
      "channel": 0,
      "note": 78,
      "start": 64.116,
      "duration": 0.0257,
      "velocity": 78,
      "chip": "ym2612"
    },
    {
      "channel": 1,
      "note": 75,
      "start": 64.1165,
      "duration": 0.0208,
      "velocity": 78,
      "chip": "ym2612"
    },
    {
      "channel": 2,
      "note": 59,
      "start": 64.1171,
      "duration": 0.0257,
      "velocity": 97,
      "chip": "ym2612"
    },
    {
      "channel": 3,
      "note": 73,
      "start": 64.1177,
      "duration": 0.0201,
      "velocity": 78,
      "chip": "ym2612"
    },
    {
      "channel": 0,
      "note": 78,
      "start": 64.1419,
      "duration": 0.025,
      "velocity": 78,
      "chip": "ym2612"
    },
    {
      "channel": 1,
      "note": 75,
      "start": 64.1424,
      "duration": 0.0205,
      "velocity": 78,
      "chip": "ym2612"
    },
    {
      "channel": 2,
      "note": 59,
      "start": 64.143,
      "duration": 0.0246,
      "velocity": 97,
      "chip": "ym2612"
    },
    {
      "channel": 3,
      "note": 73,
      "start": 64.1437,
      "duration": 0.0199,
      "velocity": 78,
      "chip": "ym2612"
    },
    {
      "channel": 4,
      "note": 78,
      "start": 64.1444,
      "duration": 0.0241,
      "velocity": 78,
      "chip": "ym2612"
    },
    {
      "channel": 4,
      "note": 78,
      "start": 64.1688,
      "duration": 0.0233,
      "velocity": 78,
      "chip": "ym2612"
    },
    {
      "channel": 0,
      "note": 78,
      "start": 64.4728,
      "duration": 0.0248,
      "velocity": 78,
      "chip": "ym2612"
    },
    {
      "channel": 1,
      "note": 75,
      "start": 64.4734,
      "duration": 0.0171,
      "velocity": 78,
      "chip": "ym2612"
    },
    {
      "channel": 2,
      "note": 59,
      "start": 64.4739,
      "duration": 0.0243,
      "velocity": 97,
      "chip": "ym2612"
    },
    {
      "channel": 3,
      "note": 73,
      "start": 64.4746,
      "duration": 0.0205,
      "velocity": 78,
      "chip": "ym2612"
    },
    {
      "channel": 4,
      "note": 78,
      "start": 64.4994,
      "duration": 0.0241,
      "velocity": 78,
      "chip": "ym2612"
    },
    {
      "channel": 0,
      "note": 78,
      "start": 64.8771,
      "duration": 0.0248,
      "velocity": 78,
      "chip": "ym2612"
    },
    {
      "channel": 1,
      "note": 75,
      "start": 64.8777,
      "duration": 0.0204,
      "velocity": 78,
      "chip": "ym2612"
    },
    {
      "channel": 2,
      "note": 59,
      "start": 64.8783,
      "duration": 0.0244,
      "velocity": 97,
      "chip": "ym2612"
    },
    {
      "channel": 3,
      "note": 73,
      "start": 64.8789,
      "duration": 0.0197,
      "velocity": 78,
      "chip": "ym2612"
    },
    {
      "channel": 4,
      "note": 78,
      "start": 64.9038,
      "duration": 0.0237,
      "velocity": 78,
      "chip": "ym2612"
    },
    {
      "channel": 0,
      "note": 78,
      "start": 66.9738,
      "duration": 0.035,
      "velocity": 78,
      "chip": "ym2612"
    },
    {
      "channel": 1,
      "note": 75,
      "start": 66.9779,
      "duration": 0.0266,
      "velocity": 78,
      "chip": "ym2612"
    },
    {
      "channel": 2,
      "note": 59,
      "start": 66.9786,
      "duration": 0.0313,
      "velocity": 97,
      "chip": "ym2612"
    },
    {
      "channel": 3,
      "note": 73,
      "start": 66.9854,
      "duration": 0.0197,
      "velocity": 78,
      "chip": "ym2612"
    },
    {
      "channel": 0,
      "note": 78,
      "start": 67.009,
      "duration": 0.0304,
      "velocity": 78,
      "chip": "ym2612"
    },
    {
      "channel": 1,
      "note": 75,
      "start": 67.0096,
      "duration": 0.0261,
      "velocity": 78,
      "chip": "ym2612"
    },
    {
      "channel": 2,
      "note": 59,
      "start": 67.0102,
      "duration": 0.03,
      "velocity": 97,
      "chip": "ym2612"
    },
    {
      "channel": 3,
      "note": 73,
      "start": 67.0108,
      "duration": 0.0254,
      "velocity": 78,
      "chip": "ym2612"
    },
    {
      "channel": 4,
      "note": 78,
      "start": 67.0168,
      "duration": 0.0243,
      "velocity": 78,
      "chip": "ym2612"
    },
    {
      "channel": 4,
      "note": 78,
      "start": 67.0413,
      "duration": 0.0234,
      "velocity": 78,
      "chip": "ym2612"
    },
    {
      "channel": 0,
      "note": 78,
      "start": 67.3451,
      "duration": 0.0263,
      "velocity": 78,
      "chip": "ym2612"
    },
    {
      "channel": 1,
      "note": 75,
      "start": 67.3467,
      "duration": 0.0204,
      "velocity": 78,
      "chip": "ym2612"
    },
    {
      "channel": 2,
      "note": 59,
      "start": 67.3473,
      "duration": 0.0253,
      "velocity": 97,
      "chip": "ym2612"
    },
    {
      "channel": 3,
      "note": 73,
      "start": 67.3479,
      "duration": 0.0197,
      "velocity": 78,
      "chip": "ym2612"
    },
    {
      "channel": 0,
      "note": 78,
      "start": 67.3717,
      "duration": 0.025,
      "velocity": 78,
      "chip": "ym2612"
    },
    {
      "channel": 1,
      "note": 75,
      "start": 67.3722,
      "duration": 0.0206,
      "velocity": 78,
      "chip": "ym2612"
    },
    {
      "channel": 2,
      "note": 59,
      "start": 67.3728,
      "duration": 0.0246,
      "velocity": 97,
      "chip": "ym2612"
    },
    {
      "channel": 3,
      "note": 73,
      "start": 67.3734,
      "duration": 0.02,
      "velocity": 78,
      "chip": "ym2612"
    },
    {
      "channel": 4,
      "note": 78,
      "start": 67.3741,
      "duration": 0.0241,
      "velocity": 78,
      "chip": "ym2612"
    },
    {
      "channel": 4,
      "note": 78,
      "start": 67.3985,
      "duration": 0.0236,
      "velocity": 78,
      "chip": "ym2612"
    },
    {
      "channel": 0,
      "note": 78,
      "start": 67.7031,
      "duration": 0.0248,
      "velocity": 78,
      "chip": "ym2612"
    },
    {
      "channel": 1,
      "note": 75,
      "start": 67.7036,
      "duration": 0.0169,
      "velocity": 78,
      "chip": "ym2612"
    },
    {
      "channel": 2,
      "note": 59,
      "start": 67.7042,
      "duration": 0.0243,
      "velocity": 97,
      "chip": "ym2612"
    },
    {
      "channel": 3,
      "note": 73,
      "start": 67.7048,
      "duration": 0.0205,
      "velocity": 78,
      "chip": "ym2612"
    },
    {
      "channel": 4,
      "note": 78,
      "start": 67.7297,
      "duration": 0.0241,
      "velocity": 78,
      "chip": "ym2612"
    },
    {
      "channel": 0,
      "note": 78,
      "start": 68.1075,
      "duration": 0.0247,
      "velocity": 78,
      "chip": "ym2612"
    },
    {
      "channel": 1,
      "note": 75,
      "start": 68.108,
      "duration": 0.0204,
      "velocity": 78,
      "chip": "ym2612"
    },
    {
      "channel": 2,
      "note": 59,
      "start": 68.1086,
      "duration": 0.0244,
      "velocity": 97,
      "chip": "ym2612"
    },
    {
      "channel": 3,
      "note": 73,
      "start": 68.1092,
      "duration": 0.0197,
      "velocity": 78,
      "chip": "ym2612"
    },
    {
      "channel": 4,
      "note": 78,
      "start": 68.1341,
      "duration": 0.0239,
      "velocity": 78,
      "chip": "ym2612"
    },
    {
      "channel": 0,
      "note": 80,
      "start": 70.2009,
      "duration": 0.0265,
      "velocity": 78,
      "chip": "ym2612"
    },
    {
      "channel": 1,
      "note": 77,
      "start": 70.2016,
      "duration": 0.0215,
      "velocity": 78,
      "chip": "ym2612"
    },
    {
      "channel": 2,
      "note": 61,
      "start": 70.2023,
      "duration": 0.0263,
      "velocity": 97,
      "chip": "ym2612"
    },
    {
      "channel": 3,
      "note": 73,
      "start": 70.2031,
      "duration": 0.0205,
      "velocity": 78,
      "chip": "ym2612"
    },
    {
      "channel": 0,
      "note": 80,
      "start": 70.2276,
      "duration": 0.0256,
      "velocity": 78,
      "chip": "ym2612"
    },
    {
      "channel": 1,
      "note": 77,
      "start": 70.2282,
      "duration": 0.0212,
      "velocity": 78,
      "chip": "ym2612"
    },
    {
      "channel": 2,
      "note": 61,
      "start": 70.2288,
      "duration": 0.0251,
      "velocity": 97,
      "chip": "ym2612"
    },
    {
      "channel": 3,
      "note": 75,
      "start": 70.2294,
      "duration": 0.0205,
      "velocity": 78,
      "chip": "ym2612"
    },
    {
      "channel": 4,
      "note": 78,
      "start": 70.2303,
      "duration": 0.0245,
      "velocity": 78,
      "chip": "ym2612"
    },
    {
      "channel": 4,
      "note": 80,
      "start": 70.2551,
      "duration": 0.0247,
      "velocity": 78,
      "chip": "ym2612"
    },
    {
      "channel": 0,
      "note": 80,
      "start": 70.5602,
      "duration": 0.0255,
      "velocity": 78,
      "chip": "ym2612"
    },
    {
      "channel": 1,
      "note": 77,
      "start": 70.5608,
      "duration": 0.0211,
      "velocity": 78,
      "chip": "ym2612"
    },
    {
      "channel": 2,
      "note": 61,
      "start": 70.5624,
      "duration": 0.0245,
      "velocity": 97,
      "chip": "ym2612"
    },
    {
      "channel": 3,
      "note": 75,
      "start": 70.563,
      "duration": 0.0194,
      "velocity": 78,
      "chip": "ym2612"
    },
    {
      "channel": 0,
      "note": 80,
      "start": 70.586,
      "duration": 0.0251,
      "velocity": 78,
      "chip": "ym2612"
    },
    {
      "channel": 1,
      "note": 77,
      "start": 70.5865,
      "duration": 0.0206,
      "velocity": 78,
      "chip": "ym2612"
    },
    {
      "channel": 2,
      "note": 61,
      "start": 70.5871,
      "duration": 0.0247,
      "velocity": 97,
      "chip": "ym2612"
    },
    {
      "channel": 3,
      "note": 75,
      "start": 70.5877,
      "duration": 0.02,
      "velocity": 78,
      "chip": "ym2612"
    },
    {
      "channel": 4,
      "note": 80,
      "start": 70.5885,
      "duration": 0.0242,
      "velocity": 78,
      "chip": "ym2612"
    },
    {
      "channel": 4,
      "note": 80,
      "start": 70.613,
      "duration": 0.0246,
      "velocity": 78,
      "chip": "ym2612"
    },
    {
      "channel": 0,
      "note": 80,
      "start": 70.9187,
      "duration": 0.0248,
      "velocity": 78,
      "chip": "ym2612"
    },
    {
      "channel": 1,
      "note": 77,
      "start": 70.9192,
      "duration": 0.02,
      "velocity": 78,
      "chip": "ym2612"
    },
    {
      "channel": 2,
      "note": 61,
      "start": 70.9198,
      "duration": 0.0244,
      "velocity": 97,
      "chip": "ym2612"
    },
    {
      "channel": 3,
      "note": 75,
      "start": 70.9204,
      "duration": 0.0194,
      "velocity": 78,
      "chip": "ym2612"
    },
    {
      "channel": 4,
      "note": 80,
      "start": 70.9453,
      "duration": 0.0228,
      "velocity": 78,
      "chip": "ym2612"
    },
    {
      "channel": 0,
      "note": 80,
      "start": 71.3228,
      "duration": 0.0251,
      "velocity": 78,
      "chip": "ym2612"
    },
    {
      "channel": 1,
      "note": 77,
      "start": 71.3233,
      "duration": 0.0207,
      "velocity": 78,
      "chip": "ym2612"
    },
    {
      "channel": 2,
      "note": 61,
      "start": 71.3239,
      "duration": 0.0247,
      "velocity": 97,
      "chip": "ym2612"
    },
    {
      "channel": 3,
      "note": 75,
      "start": 71.3245,
      "duration": 0.0201,
      "velocity": 78,
      "chip": "ym2612"
    },
    {
      "channel": 4,
      "note": 80,
      "start": 71.3498,
      "duration": 0.0236,
      "velocity": 78,
      "chip": "ym2612"
    },
    {
      "channel": 0,
      "note": 82,
      "start": 73.416,
      "duration": 0.0266,
      "velocity": 78,
      "chip": "ym2612"
    },
    {
      "channel": 1,
      "note": 77,
      "start": 73.4166,
      "duration": 0.0212,
      "velocity": 78,
      "chip": "ym2612"
    },
    {
      "channel": 2,
      "note": 66,
      "start": 73.4171,
      "duration": 0.0266,
      "velocity": 97,
      "chip": "ym2612"
    },
    {
      "channel": 3,
      "note": 75,
      "start": 73.4178,
      "duration": 0.0205,
      "velocity": 78,
      "chip": "ym2612"
    },
    {
      "channel": 0,
      "note": 82,
      "start": 73.4429,
      "duration": 0.0252,
      "velocity": 78,
      "chip": "ym2612"
    },
    {
      "channel": 1,
      "note": 77,
      "start": 73.4434,
      "duration": 0.0208,
      "velocity": 78,
      "chip": "ym2612"
    },
    {
      "channel": 2,
      "note": 66,
      "start": 73.444,
      "duration": 0.0248,
      "velocity": 97,
      "chip": "ym2612"
    },
    {
      "channel": 3,
      "note": 75,
      "start": 73.4446,
      "duration": 0.0201,
      "velocity": 78,
      "chip": "ym2612"
    },
    {
      "channel": 4,
      "note": 80,
      "start": 73.4454,
      "duration": 0.0242,
      "velocity": 78,
      "chip": "ym2612"
    },
    {
      "channel": 4,
      "note": 82,
      "start": 73.4699,
      "duration": 0.0231,
      "velocity": 78,
      "chip": "ym2612"
    },
    {
      "channel": 0,
      "note": 82,
      "start": 73.7737,
      "duration": 0.0254,
      "velocity": 78,
      "chip": "ym2612"
    },
    {
      "channel": 1,
      "note": 77,
      "start": 73.7742,
      "duration": 0.021,
      "velocity": 78,
      "chip": "ym2612"
    },
    {
      "channel": 2,
      "note": 66,
      "start": 73.7748,
      "duration": 0.0265,
      "velocity": 97,
      "chip": "ym2612"
    },
    {
      "channel": 3,
      "note": 75,
      "start": 73.7754,
      "duration": 0.0204,
      "velocity": 78,
      "chip": "ym2612"
    },
    {
      "channel": 0,
      "note": 82,
      "start": 73.8004,
      "duration": 0.0247,
      "velocity": 78,
      "chip": "ym2612"
    },
    {
      "channel": 1,
      "note": 77,
      "start": 73.8009,
      "duration": 0.0203,
      "velocity": 78,
      "chip": "ym2612"
    },
    {
      "channel": 2,
      "note": 66,
      "start": 73.8015,
      "duration": 0.0244,
      "velocity": 97,
      "chip": "ym2612"
    },
    {
      "channel": 3,
      "note": 75,
      "start": 73.8021,
      "duration": 0.0197,
      "velocity": 78,
      "chip": "ym2612"
    },
    {
      "channel": 4,
      "note": 82,
      "start": 73.8029,
      "duration": 0.0238,
      "velocity": 78,
      "chip": "ym2612"
    },
    {
      "channel": 4,
      "note": 82,
      "start": 73.827,
      "duration": 0.0241,
      "velocity": 78,
      "chip": "ym2612"
    },
    {
      "channel": 0,
      "note": 82,
      "start": 74.132,
      "duration": 0.0247,
      "velocity": 78,
      "chip": "ym2612"
    },
    {
      "channel": 1,
      "note": 77,
      "start": 74.1326,
      "duration": 0.02,
      "velocity": 78,
      "chip": "ym2612"
    },
    {
      "channel": 2,
      "note": 66,
      "start": 74.1332,
      "duration": 0.0243,
      "velocity": 97,
      "chip": "ym2612"
    },
    {
      "channel": 3,
      "note": 75,
      "start": 74.1338,
      "duration": 0.0194,
      "velocity": 78,
      "chip": "ym2612"
    },
    {
      "channel": 4,
      "note": 82,
      "start": 74.1586,
      "duration": 0.0231,
      "velocity": 78,
      "chip": "ym2612"
    },
    {
      "channel": 0,
      "note": 82,
      "start": 74.5367,
      "duration": 0.0247,
      "velocity": 78,
      "chip": "ym2612"
    },
    {
      "channel": 1,
      "note": 77,
      "start": 74.5372,
      "duration": 0.0203,
      "velocity": 78,
      "chip": "ym2612"
    },
    {
      "channel": 2,
      "note": 66,
      "start": 74.5378,
      "duration": 0.0243,
      "velocity": 97,
      "chip": "ym2612"
    },
    {
      "channel": 3,
      "note": 75,
      "start": 74.5384,
      "duration": 0.0197,
      "velocity": 78,
      "chip": "ym2612"
    },
    {
      "channel": 4,
      "note": 82,
      "start": 74.5634,
      "duration": 0.0232,
      "velocity": 78,
      "chip": "ym2612"
    },
    {
      "channel": 0,
      "note": 83,
      "start": 77.1721,
      "duration": 2.9666,
      "velocity": 87,
      "chip": "ym2612"
    },
    {
      "channel": 1,
      "note": 78,
      "start": 77.1762,
      "duration": 5.9016,
      "velocity": 87,
      "chip": "ym2612"
    },
    {
      "channel": 2,
      "note": 71,
      "start": 77.1785,
      "duration": 2.2179,
      "velocity": 97,
      "chip": "ym2612"
    },
    {
      "channel": 3,
      "note": 75,
      "start": 77.1853,
      "duration": 2.923,
      "velocity": 87,
      "chip": "ym2612"
    },
    {
      "channel": 4,
      "note": 82,
      "start": 77.3605,
      "duration": 2.9646,
      "velocity": 56,
      "chip": "ym2612"
    },
    {
      "channel": 2,
      "note": 75,
      "start": 79.3966,
      "duration": 0.371,
      "velocity": 97,
      "chip": "ym2612"
    },
    {
      "channel": 2,
      "note": 73,
      "start": 79.7679,
      "duration": 0.3716,
      "velocity": 97,
      "chip": "ym2612"
    },
    {
      "channel": 0,
      "note": 82,
      "start": 80.1389,
      "duration": 2.9703,
      "velocity": 87,
      "chip": "ym2612"
    },
    {
      "channel": 2,
      "note": 78,
      "start": 80.1397,
      "duration": 1.113,
      "velocity": 97,
      "chip": "ym2612"
    },
    {
      "channel": 3,
      "note": 71,
      "start": 80.1403,
      "duration": 2.938,
      "velocity": 87,
      "chip": "ym2612"
    },
    {
      "channel": 4,
      "note": 83,
      "start": 80.3254,
      "duration": 2.9698,
      "velocity": 56,
      "chip": "ym2612"
    },
    {
      "channel": 2,
      "note": 83,
      "start": 81.2529,
      "duration": 1.1136,
      "velocity": 97,
      "chip": "ym2612"
    },
    {
      "channel": 2,
      "note": 71,
      "start": 82.3667,
      "duration": 0.1854,
      "velocity": 97,
      "chip": "ym2612"
    },
    {
      "channel": 2,
      "note": 73,
      "start": 82.5523,
      "duration": 0.1854,
      "velocity": 97,
      "chip": "ym2612"
    },
    {
      "channel": 2,
      "note": 75,
      "start": 82.7379,
      "duration": 0.3723,
      "velocity": 97,
      "chip": "ym2612"
    },
    {
      "channel": 0,
      "note": 80,
      "start": 83.1094,
      "duration": 2.9702,
      "velocity": 87,
      "chip": "ym2612"
    },
    {
      "channel": 1,
      "note": 78,
      "start": 83.1099,
      "duration": 5.908,
      "velocity": 87,
      "chip": "ym2612"
    },
    {
      "channel": 2,
      "note": 76,
      "start": 83.1105,
      "duration": 0.9266,
      "velocity": 97,
      "chip": "ym2612"
    },
    {
      "channel": 3,
      "note": 70,
      "start": 83.1111,
      "duration": 2.9373,
      "velocity": 87,
      "chip": "ym2612"
    },
    {
      "channel": 4,
      "note": 82,
      "start": 83.2955,
      "duration": 2.9698,
      "velocity": 56,
      "chip": "ym2612"
    },
    {
      "channel": 2,
      "note": 81,
      "start": 84.0374,
      "duration": 0.0307,
      "velocity": 97,
      "chip": "ym2612"
    },
    {
      "channel": 2,
      "note": 83,
      "start": 84.0683,
      "duration": 0.1544,
      "velocity": 97,
      "chip": "ym2612"
    },
    {
      "channel": 2,
      "note": 82,
      "start": 84.223,
      "duration": 0.1854,
      "velocity": 97,
      "chip": "ym2612"
    },
    {
      "channel": 2,
      "note": 80,
      "start": 84.4086,
      "duration": 0.1863,
      "velocity": 97,
      "chip": "ym2612"
    },
    {
      "channel": 2,
      "note": 82,
      "start": 84.5951,
      "duration": 0.1845,
      "velocity": 97,
      "chip": "ym2612"
    },
    {
      "channel": 2,
      "note": 80,
      "start": 84.7799,
      "duration": 0.1854,
      "velocity": 97,
      "chip": "ym2612"
    },
    {
      "channel": 2,
      "note": 78,
      "start": 84.9655,
      "duration": 0.1854,
      "velocity": 97,
      "chip": "ym2612"
    },
    {
      "channel": 2,
      "note": 76,
      "start": 85.1512,
      "duration": 0.1854,
      "velocity": 97,
      "chip": "ym2612"
    },
    {
      "channel": 2,
      "note": 78,
      "start": 85.3368,
      "duration": 0.1854,
      "velocity": 97,
      "chip": "ym2612"
    },
    {
      "channel": 2,
      "note": 76,
      "start": 85.5224,
      "duration": 0.1854,
      "velocity": 97,
      "chip": "ym2612"
    },
    {
      "channel": 2,
      "note": 75,
      "start": 85.708,
      "duration": 0.1854,
      "velocity": 97,
      "chip": "ym2612"
    },
    {
      "channel": 2,
      "note": 76,
      "start": 85.8937,
      "duration": 0.1867,
      "velocity": 97,
      "chip": "ym2612"
    },
    {
      "channel": 0,
      "note": 78,
      "start": 86.0798,
      "duration": 2.9688,
      "velocity": 87,
      "chip": "ym2612"
    },
    {
      "channel": 2,
      "note": 78,
      "start": 86.0807,
      "duration": 1.1122,
      "velocity": 97,
      "chip": "ym2612"
    },
    {
      "channel": 3,
      "note": 68,
      "start": 86.0813,
      "duration": 2.9373,
      "velocity": 87,
      "chip": "ym2612"
    },
    {
      "channel": 4,
      "note": 80,
      "start": 86.2656,
      "duration": 2.9697,
      "velocity": 56,
      "chip": "ym2612"
    },
    {
      "channel": 2,
      "note": 71,
      "start": 87.1931,
      "duration": 1.2992,
      "velocity": 97,
      "chip": "ym2612"
    },
    {
      "channel": 2,
      "note": 75,
      "start": 88.4925,
      "duration": 0.1854,
      "velocity": 97,
      "chip": "ym2612"
    },
    {
      "channel": 2,
      "note": 76,
      "start": 88.6782,
      "duration": 0.1854,
      "velocity": 97,
      "chip": "ym2612"
    },
    {
      "channel": 2,
      "note": 78,
      "start": 88.8638,
      "duration": 0.187,
      "velocity": 97,
      "chip": "ym2612"
    },
    {
      "channel": 0,
      "note": 76,
      "start": 89.0499,
      "duration": 2.9688,
      "velocity": 87,
      "chip": "ym2612"
    },
    {
      "channel": 1,
      "note": 80,
      "start": 89.0505,
      "duration": 2.9376,
      "velocity": 87,
      "chip": "ym2612"
    },
    {
      "channel": 2,
      "note": 80,
      "start": 89.051,
      "duration": 0.3693,
      "velocity": 97,
      "chip": "ym2612"
    },
    {
      "channel": 3,
      "note": 66,
      "start": 89.0517,
      "duration": 2.937,
      "velocity": 87,
      "chip": "ym2612"
    },
    {
      "channel": 4,
      "note": 78,
      "start": 89.2356,
      "duration": 2.9698,
      "velocity": 56,
      "chip": "ym2612"
    },
    {
      "channel": 2,
      "note": 78,
      "start": 89.4206,
      "duration": 0.1854,
      "velocity": 97,
      "chip": "ym2612"
    },
    {
      "channel": 2,
      "note": 76,
      "start": 89.6063,
      "duration": 0.5567,
      "velocity": 97,
      "chip": "ym2612"
    },
    {
      "channel": 2,
      "note": 83,
      "start": 90.1632,
      "duration": 1.1135,
      "velocity": 97,
      "chip": "ym2612"
    },
    {
      "channel": 2,
      "note": 85,
      "start": 91.277,
      "duration": 0.371,
      "velocity": 97,
      "chip": "ym2612"
    },
    {
      "channel": 2,
      "note": 87,
      "start": 91.6482,
      "duration": 0.3727,
      "velocity": 97,
      "chip": "ym2612"
    },
    {
      "channel": 0,
      "note": 75,
      "start": 92.019,
      "duration": 2.9699,
      "velocity": 87,
      "chip": "ym2612"
    },
    {
      "channel": 1,
      "note": 82,
      "start": 92.0205,
      "duration": 2.9376,
      "velocity": 87,
      "chip": "ym2612"
    },
    {
      "channel": 2,
      "note": 90,
      "start": 92.0211,
      "duration": 1.112,
      "velocity": 97,
      "chip": "ym2612"
    },
    {
      "channel": 3,
      "note": 64,
      "start": 92.0217,
      "duration": 2.937,
      "velocity": 87,
      "chip": "ym2612"
    },
    {
      "channel": 4,
      "note": 76,
      "start": 92.2057,
      "duration": 2.97,
      "velocity": 56,
      "chip": "ym2612"
    },
    {
      "channel": 2,
      "note": 87,
      "start": 93.1333,
      "duration": 1.1135,
      "velocity": 97,
      "chip": "ym2612"
    },
    {
      "channel": 2,
      "note": 83,
      "start": 94.2471,
      "duration": 0.7439,
      "velocity": 97,
      "chip": "ym2612"
    },
    {
      "channel": 0,
      "note": 76,
      "start": 94.9891,
      "duration": 2.9699,
      "velocity": 87,
      "chip": "ym2612"
    },
    {
      "channel": 1,
      "note": 80,
      "start": 94.9896,
      "duration": 2.9389,
      "velocity": 87,
      "chip": "ym2612"
    },
    {
      "channel": 2,
      "note": 88,
      "start": 94.9912,
      "duration": 2.2257,
      "velocity": 97,
      "chip": "ym2612"
    },
    {
      "channel": 3,
      "note": 63,
      "start": 94.9919,
      "duration": 2.9372,
      "velocity": 87,
      "chip": "ym2612"
    },
    {
      "channel": 4,
      "note": 75,
      "start": 95.1761,
      "duration": 2.9702,
      "velocity": 56,
      "chip": "ym2612"
    },
    {
      "channel": 2,
      "note": 87,
      "start": 97.2172,
      "duration": 0.371,
      "velocity": 97,
      "chip": "ym2612"
    },
    {
      "channel": 2,
      "note": 88,
      "start": 97.5884,
      "duration": 0.3716,
      "velocity": 97,
      "chip": "ym2612"
    },
    {
      "channel": 0,
      "note": 78,
      "start": 97.9592,
      "duration": 2.5754,
      "velocity": 87,
      "chip": "ym2612"
    },
    {
      "channel": 1,
      "note": 82,
      "start": 97.9597,
      "duration": 2.5449,
      "velocity": 87,
      "chip": "ym2612"
    },
    {
      "channel": 2,
      "note": 90,
      "start": 97.9613,
      "duration": 2.0668,
      "velocity": 97,
      "chip": "ym2612"
    },
    {
      "channel": 3,
      "note": 64,
      "start": 97.962,
      "duration": 2.5432,
      "velocity": 87,
      "chip": "ym2612"
    },
    {
      "channel": 4,
      "note": 76,
      "start": 98.1466,
      "duration": 2.4376,
      "velocity": 56,
      "chip": "ym2612"
    },
    {
      "channel": 2,
      "note": 75,
      "start": 100.0284,
      "duration": 0.1354,
      "velocity": 97,
      "chip": "ym2612"
    },
    {
      "channel": 2,
      "note": 76,
      "start": 100.1641,
      "duration": 0.3763,
      "velocity": 97,
      "chip": "ym2612"
    },
    {
      "channel": 0,
      "note": 83,
      "start": 100.5349,
      "duration": 2.5555,
      "velocity": 87,
      "chip": "ym2612"
    },
    {
      "channel": 1,
      "note": 78,
      "start": 100.5401,
      "duration": 5.0771,
      "velocity": 87,
      "chip": "ym2612"
    },
    {
      "channel": 2,
      "note": 78,
      "start": 100.5407,
      "duration": 0.2276,
      "velocity": 97,
      "chip": "ym2612"
    },
    {
      "channel": 3,
      "note": 66,
      "start": 100.5465,
      "duration": 2.5149,
      "velocity": 87,
      "chip": "ym2612"
    },
    {
      "channel": 4,
      "note": 78,
      "start": 100.5846,
      "duration": 2.556,
      "velocity": 56,
      "chip": "ym2612"
    },
    {
      "channel": 2,
      "note": 73,
      "start": 100.7685,
      "duration": 0.1854,
      "velocity": 97,
      "chip": "ym2612"
    },
    {
      "channel": 2,
      "note": 71,
      "start": 100.9541,
      "duration": 0.7423,
      "velocity": 97,
      "chip": "ym2612"
    },
    {
      "channel": 2,
      "note": 73,
      "start": 101.6967,
      "duration": 0.0472,
      "velocity": 97,
      "chip": "ym2612"
    },
    {
      "channel": 2,
      "note": 75,
      "start": 101.7441,
      "duration": 0.0485,
      "velocity": 97,
      "chip": "ym2612"
    },
    {
      "channel": 2,
      "note": 76,
      "start": 101.7929,
      "duration": 0.1843,
      "velocity": 97,
      "chip": "ym2612"
    },
    {
      "channel": 2,
      "note": 75,
      "start": 101.9775,
      "duration": 0.1854,
      "velocity": 97,
      "chip": "ym2612"
    },
    {
      "channel": 2,
      "note": 71,
      "start": 102.1631,
      "duration": 0.7422,
      "velocity": 97,
      "chip": "ym2612"
    },
    {
      "channel": 2,
      "note": 73,
      "start": 102.9056,
      "duration": 0.1857,
      "velocity": 97,
      "chip": "ym2612"
    },
    {
      "channel": 0,
      "note": 82,
      "start": 103.0907,
      "duration": 2.5562,
      "velocity": 87,
      "chip": "ym2612"
    },
    {
      "channel": 2,
      "note": 75,
      "start": 103.0915,
      "duration": 0.0482,
      "velocity": 97,
      "chip": "ym2612"
    },
    {
      "channel": 3,
      "note": 71,
      "start": 103.0922,
      "duration": 2.5256,
      "velocity": 87,
      "chip": "ym2612"
    },
    {
      "channel": 2,
      "note": 76,
      "start": 103.14,
      "duration": 0.1844,
      "velocity": 97,
      "chip": "ym2612"
    },
    {
      "channel": 4,
      "note": 83,
      "start": 103.141,
      "duration": 2.5561,
      "velocity": 56,
      "chip": "ym2612"
    },
    {
      "channel": 2,
      "note": 75,
      "start": 103.3246,
      "duration": 0.1854,
      "velocity": 97,
      "chip": "ym2612"
    },
    {
      "channel": 2,
      "note": 73,
      "start": 103.5102,
      "duration": 0.7423,
      "velocity": 97,
      "chip": "ym2612"
    },
    {
      "channel": 2,
      "note": 75,
      "start": 104.2527,
      "duration": 0.0475,
      "velocity": 97,
      "chip": "ym2612"
    },
    {
      "channel": 2,
      "note": 76,
      "start": 104.3004,
      "duration": 0.0486,
      "velocity": 97,
      "chip": "ym2612"
    },
    {
      "channel": 2,
      "note": 80,
      "start": 104.3493,
      "duration": 0.1843,
      "velocity": 97,
      "chip": "ym2612"
    },
    {
      "channel": 2,
      "note": 76,
      "start": 104.5338,
      "duration": 0.1854,
      "velocity": 97,
      "chip": "ym2612"
    },
    {
      "channel": 2,
      "note": 73,
      "start": 104.7195,
      "duration": 0.7422,
      "velocity": 97,
      "chip": "ym2612"
    },
    {
      "channel": 2,
      "note": 76,
      "start": 105.462,
      "duration": 0.186,
      "velocity": 97,
      "chip": "ym2612"
    },
    {
      "channel": 0,
      "note": 80,
      "start": 105.6471,
      "duration": 2.5561,
      "velocity": 87,
      "chip": "ym2612"
    },
    {
      "channel": 1,
      "note": 78,
      "start": 105.6476,
      "duration": 5.0813,
      "velocity": 87,
      "chip": "ym2612"
    },
    {
      "channel": 2,
      "note": 78,
      "start": 105.6482,
      "duration": 0.0468,
      "velocity": 97,
      "chip": "ym2612"
    },
    {
      "channel": 3,
      "note": 70,
      "start": 105.6488,
      "duration": 2.5253,
      "velocity": 87,
      "chip": "ym2612"
    },
    {
      "channel": 2,
      "note": 82,
      "start": 105.6963,
      "duration": 0.1843,
      "velocity": 97,
      "chip": "ym2612"
    },
    {
      "channel": 4,
      "note": 82,
      "start": 105.6973,
      "duration": 2.5561,
      "velocity": 56,
      "chip": "ym2612"
    },
    {
      "channel": 2,
      "note": 78,
      "start": 105.8809,
      "duration": 0.1854,
      "velocity": 97,
      "chip": "ym2612"
    },
    {
      "channel": 2,
      "note": 75,
      "start": 106.0666,
      "duration": 0.7423,
      "velocity": 97,
      "chip": "ym2612"
    },
    {
      "channel": 2,
      "note": 76,
      "start": 106.8091,
      "duration": 0.0475,
      "velocity": 97,
      "chip": "ym2612"
    },
    {
      "channel": 2,
      "note": 78,
      "start": 106.8569,
      "duration": 0.0475,
      "velocity": 97,
      "chip": "ym2612"
    },
    {
      "channel": 2,
      "note": 83,
      "start": 106.9056,
      "duration": 0.1843,
      "velocity": 97,
      "chip": "ym2612"
    },
    {
      "channel": 2,
      "note": 78,
      "start": 107.0902,
      "duration": 0.1854,
      "velocity": 97,
      "chip": "ym2612"
    },
    {
      "channel": 2,
      "note": 75,
      "start": 107.2759,
      "duration": 0.7423,
      "velocity": 97,
      "chip": "ym2612"
    },
    {
      "channel": 2,
      "note": 76,
      "start": 108.0184,
      "duration": 0.1857,
      "velocity": 97,
      "chip": "ym2612"
    },
    {
      "channel": 0,
      "note": 78,
      "start": 108.2035,
      "duration": 2.5561,
      "velocity": 87,
      "chip": "ym2612"
    },
    {
      "channel": 2,
      "note": 78,
      "start": 108.2043,
      "duration": 0.0471,
      "velocity": 97,
      "chip": "ym2612"
    },
    {
      "channel": 3,
      "note": 68,
      "start": 108.2049,
      "duration": 2.5246,
      "velocity": 87,
      "chip": "ym2612"
    },
    {
      "channel": 2,
      "note": 85,
      "start": 108.2517,
      "duration": 0.1856,
      "velocity": 97,
      "chip": "ym2612"
    },
    {
      "channel": 4,
      "note": 80,
      "start": 108.2537,
      "duration": 2.5547,
      "velocity": 56,
      "chip": "ym2612"
    },
    {
      "channel": 2,
      "note": 83,
      "start": 108.4375,
      "duration": 0.1852,
      "velocity": 97,
      "chip": "ym2612"
    },
    {
      "channel": 2,
      "note": 82,
      "start": 108.623,
      "duration": 0.1854,
      "velocity": 97,
      "chip": "ym2612"
    },
    {
      "channel": 2,
      "note": 83,
      "start": 108.8087,
      "duration": 0.1854,
      "velocity": 97,
      "chip": "ym2612"
    },
    {
      "channel": 2,
      "note": 82,
      "start": 108.9943,
      "duration": 0.1854,
      "velocity": 97,
      "chip": "ym2612"
    },
    {
      "channel": 2,
      "note": 80,
      "start": 109.1799,
      "duration": 0.1854,
      "velocity": 97,
      "chip": "ym2612"
    },
    {
      "channel": 2,
      "note": 82,
      "start": 109.3655,
      "duration": 0.0475,
      "velocity": 97,
      "chip": "ym2612"
    },
    {
      "channel": 2,
      "note": 80,
      "start": 109.4132,
      "duration": 0.0475,
      "velocity": 97,
      "chip": "ym2612"
    },
    {
      "channel": 2,
      "note": 78,
      "start": 109.461,
      "duration": 0.1857,
      "velocity": 97,
      "chip": "ym2612"
    },
    {
      "channel": 2,
      "note": 80,
      "start": 109.6469,
      "duration": 0.185,
      "velocity": 97,
      "chip": "ym2612"
    },
    {
      "channel": 2,
      "note": 76,
      "start": 109.8322,
      "duration": 0.1855,
      "velocity": 97,
      "chip": "ym2612"
    },
    {
      "channel": 2,
      "note": 75,
      "start": 110.0179,
      "duration": 0.1853,
      "velocity": 97,
      "chip": "ym2612"
    },
    {
      "channel": 2,
      "note": 73,
      "start": 110.2035,
      "duration": 0.1854,
      "velocity": 97,
      "chip": "ym2612"
    },
    {
      "channel": 2,
      "note": 71,
      "start": 110.3891,
      "duration": 0.1854,
      "velocity": 97,
      "chip": "ym2612"
    },
    {
      "channel": 2,
      "note": 70,
      "start": 110.5747,
      "duration": 0.186,
      "velocity": 97,
      "chip": "ym2612"
    },
    {
      "channel": 0,
      "note": 76,
      "start": 110.7598,
      "duration": 2.5561,
      "velocity": 87,
      "chip": "ym2612"
    },
    {
      "channel": 1,
      "note": 80,
      "start": 110.7604,
      "duration": 2.5249,
      "velocity": 87,
      "chip": "ym2612"
    },
    {
      "channel": 2,
      "note": 71,
      "start": 110.761,
      "duration": 0.7895,
      "velocity": 97,
      "chip": "ym2612"
    },
    {
      "channel": 3,
      "note": 66,
      "start": 110.7616,
      "duration": 2.5243,
      "velocity": 87,
      "chip": "ym2612"
    },
    {
      "channel": 4,
      "note": 78,
      "start": 110.8098,
      "duration": 2.5549,
      "velocity": 56,
      "chip": "ym2612"
    },
    {
      "channel": 2,
      "note": 76,
      "start": 111.5507,
      "duration": 0.1854,
      "velocity": 97,
      "chip": "ym2612"
    },
    {
      "channel": 2,
      "note": 78,
      "start": 111.7363,
      "duration": 0.1854,
      "velocity": 97,
      "chip": "ym2612"
    },
    {
      "channel": 2,
      "note": 80,
      "start": 111.922,
      "duration": 0.0475,
      "velocity": 97,
      "chip": "ym2612"
    },
    {
      "channel": 2,
      "note": 83,
      "start": 111.9698,
      "duration": 0.4185,
      "velocity": 97,
      "chip": "ym2612"
    },
    {
      "channel": 2,
      "note": 85,
      "start": 112.3885,
      "duration": 0.5566,
      "velocity": 97,
      "chip": "ym2612"
    },
    {
      "channel": 2,
      "note": 84,
      "start": 112.9454,
      "duration": 0.1854,
      "velocity": 97,
      "chip": "ym2612"
    },
    {
      "channel": 2,
      "note": 83,
      "start": 113.1311,
      "duration": 0.1859,
      "velocity": 97,
      "chip": "ym2612"
    },
    {
      "channel": 0,
      "note": 75,
      "start": 113.3161,
      "duration": 2.556,
      "velocity": 87,
      "chip": "ym2612"
    },
    {
      "channel": 1,
      "note": 82,
      "start": 113.3167,
      "duration": 2.5248,
      "velocity": 87,
      "chip": "ym2612"
    },
    {
      "channel": 2,
      "note": 82,
      "start": 113.3173,
      "duration": 0.9751,
      "velocity": 97,
      "chip": "ym2612"
    },
    {
      "channel": 3,
      "note": 64,
      "start": 113.3179,
      "duration": 2.5242,
      "velocity": 87,
      "chip": "ym2612"
    },
    {
      "channel": 4,
      "note": 76,
      "start": 113.365,
      "duration": 2.5559,
      "velocity": 56,
      "chip": "ym2612"
    },
    {
      "channel": 2,
      "note": 82,
      "start": 114.2926,
      "duration": 0.1235,
      "velocity": 97,
      "chip": "ym2612"
    },
    {
      "channel": 2,
      "note": 83,
      "start": 114.4163,
      "duration": 0.07,
      "velocity": 97,
      "chip": "ym2612"
    },
    {
      "channel": 2,
      "note": 85,
      "start": 114.4866,
      "duration": 0.0391,
      "velocity": 97,
      "chip": "ym2612"
    },
    {
      "channel": 2,
      "note": 82,
      "start": 114.526,
      "duration": 0.0166,
      "velocity": 97,
      "chip": "ym2612"
    },
    {
      "channel": 2,
      "note": 83,
      "start": 114.5429,
      "duration": 0.0923,
      "velocity": 97,
      "chip": "ym2612"
    },
    {
      "channel": 2,
      "note": 85,
      "start": 114.6354,
      "duration": 0.1245,
      "velocity": 97,
      "chip": "ym2612"
    },
    {
      "channel": 2,
      "note": 83,
      "start": 114.7602,
      "duration": 0.1843,
      "velocity": 97,
      "chip": "ym2612"
    },
    {
      "channel": 2,
      "note": 82,
      "start": 114.9448,
      "duration": 0.1854,
      "velocity": 97,
      "chip": "ym2612"
    },
    {
      "channel": 2,
      "note": 83,
      "start": 115.1305,
      "duration": 0.1854,
      "velocity": 97,
      "chip": "ym2612"
    },
    {
      "channel": 2,
      "note": 82,
      "start": 115.3161,
      "duration": 0.1854,
      "velocity": 97,
      "chip": "ym2612"
    },
    {
      "channel": 2,
      "note": 80,
      "start": 115.5017,
      "duration": 0.1854,
      "velocity": 97,
      "chip": "ym2612"
    },
    {
      "channel": 2,
      "note": 78,
      "start": 115.6873,
      "duration": 0.186,
      "velocity": 97,
      "chip": "ym2612"
    },
    {
      "channel": 0,
      "note": 76,
      "start": 115.8724,
      "duration": 2.5562,
      "velocity": 87,
      "chip": "ym2612"
    },
    {
      "channel": 1,
      "note": 80,
      "start": 115.8729,
      "duration": 2.525,
      "velocity": 87,
      "chip": "ym2612"
    },
    {
      "channel": 2,
      "note": 80,
      "start": 115.8735,
      "duration": 1.2085,
      "velocity": 97,
      "chip": "ym2612"
    },
    {
      "channel": 3,
      "note": 63,
      "start": 115.8741,
      "duration": 2.5244,
      "velocity": 87,
      "chip": "ym2612"
    },
    {
      "channel": 4,
      "note": 75,
      "start": 115.9213,
      "duration": 2.5563,
      "velocity": 56,
      "chip": "ym2612"
    },
    {
      "channel": 2,
      "note": 83,
      "start": 117.0822,
      "duration": 0.6044,
      "velocity": 97,
      "chip": "ym2612"
    },
    {
      "channel": 2,
      "note": 85,
      "start": 117.6868,
      "duration": 0.7429,
      "velocity": 97,
      "chip": "ym2612"
    },
    {
      "channel": 0,
      "note": 78,
      "start": 118.4288,
      "duration": 0.9105,
      "velocity": 87,
      "chip": "ym2612"
    },
    {
      "channel": 1,
      "note": 82,
      "start": 118.4294,
      "duration": 0.9046,
      "velocity": 87,
      "chip": "ym2612"
    },
    {
      "channel": 2,
      "note": 85,
      "start": 118.43,
      "duration": 0.9189,
      "velocity": 97,
      "chip": "ym2612"
    },
    {
      "channel": 3,
      "note": 64,
      "start": 118.4306,
      "duration": 0.904,
      "velocity": 87,
      "chip": "ym2612"
    },
    {
      "channel": 4,
      "note": 76,
      "start": 118.4779,
      "duration": 0.911,
      "velocity": 56,
      "chip": "ym2612"
    },
    {
      "channel": 1,
      "note": 78,
      "start": 119.3485,
      "duration": 3.4466,
      "velocity": 87,
      "chip": "ym2612"
    },
    {
      "channel": 2,
      "note": 59,
      "start": 119.3509,
      "duration": 0.4084,
      "velocity": 97,
      "chip": "ym2612"
    },
    {
      "channel": 0,
      "note": 66,
      "start": 119.3873,
      "duration": 0.1854,
      "velocity": 84,
      "chip": "ym2612"
    },
    {
      "channel": 3,
      "note": 66,
      "start": 119.3885,
      "duration": 0.1863,
      "velocity": 84,
      "chip": "ym2612"
    },
    {
      "channel": 0,
      "note": 68,
      "start": 119.573,
      "duration": 0.1855,
      "velocity": 84,
      "chip": "ym2612"
    },
    {
      "channel": 3,
      "note": 63,
      "start": 119.5752,
      "duration": 0.1847,
      "velocity": 84,
      "chip": "ym2612"
    },
    {
      "channel": 4,
      "note": 78,
      "start": 119.5759,
      "duration": 0.1847,
      "velocity": 84,
      "chip": "ym2612"
    },
    {
      "channel": 0,
      "note": 70,
      "start": 119.7587,
      "duration": 0.0478,
      "velocity": 84,
      "chip": "ym2612"
    },
    {
      "channel": 2,
      "note": 59,
      "start": 119.7595,
      "duration": 0.0126,
      "velocity": 97,
      "chip": "ym2612"
    },
    {
      "channel": 3,
      "note": 64,
      "start": 119.7602,
      "duration": 0.0477,
      "velocity": 84,
      "chip": "ym2612"
    },
    {
      "channel": 4,
      "note": 66,
      "start": 119.761,
      "duration": 0.0477,
      "velocity": 84,
      "chip": "ym2612"
    },
    {
      "channel": 0,
      "note": 71,
      "start": 119.8067,
      "duration": 0.0251,
      "velocity": 84,
      "chip": "ym2612"
    },
    {
      "channel": 2,
      "note": 59,
      "start": 119.8076,
      "duration": 0.4047,
      "velocity": 97,
      "chip": "ym2612"
    },
    {
      "channel": 3,
      "note": 66,
      "start": 119.8083,
      "duration": 0.0248,
      "velocity": 84,
      "chip": "ym2612"
    },
    {
      "channel": 4,
      "note": 68,
      "start": 119.809,
      "duration": 0.0247,
      "velocity": 84,
      "chip": "ym2612"
    },
    {
      "channel": 0,
      "note": 70,
      "start": 119.8321,
      "duration": 0.0243,
      "velocity": 84,
      "chip": "ym2612"
    },
    {
      "channel": 3,
      "note": 68,
      "start": 119.8334,
      "duration": 0.0241,
      "velocity": 84,
      "chip": "ym2612"
    },
    {
      "channel": 4,
      "note": 70,
      "start": 119.8341,
      "duration": 0.0241,
      "velocity": 84,
      "chip": "ym2612"
    },
    {
      "channel": 0,
      "note": 71,
      "start": 119.8566,
      "duration": 0.1691,
      "velocity": 84,
      "chip": "ym2612"
    },
    {
      "channel": 3,
      "note": 66,
      "start": 119.8578,
      "duration": 0.1691,
      "velocity": 84,
      "chip": "ym2612"
    },
    {
      "channel": 4,
      "note": 71,
      "start": 119.8585,
      "duration": 0.1691,
      "velocity": 84,
      "chip": "ym2612"
    },
    {
      "channel": 0,
      "note": 73,
      "start": 120.026,
      "duration": 0.1854,
      "velocity": 84,
      "chip": "ym2612"
    },
    {
      "channel": 3,
      "note": 68,
      "start": 120.0272,
      "duration": 0.1857,
      "velocity": 84,
      "chip": "ym2612"
    },
    {
      "channel": 4,
      "note": 70,
      "start": 120.0279,
      "duration": 0.1857,
      "velocity": 84,
      "chip": "ym2612"
    },
    {
      "channel": 0,
      "note": 75,
      "start": 120.2117,
      "duration": 0.0474,
      "velocity": 84,
      "chip": "ym2612"
    },
    {
      "channel": 2,
      "note": 59,
      "start": 120.2125,
      "duration": 0.419,
      "velocity": 97,
      "chip": "ym2612"
    },
    {
      "channel": 3,
      "note": 70,
      "start": 120.2132,
      "duration": 0.047,
      "velocity": 84,
      "chip": "ym2612"
    },
    {
      "channel": 4,
      "note": 71,
      "start": 120.2139,
      "duration": 0.047,
      "velocity": 84,
      "chip": "ym2612"
    },
    {
      "channel": 0,
      "note": 71,
      "start": 120.2593,
      "duration": 0.1854,
      "velocity": 84,
      "chip": "ym2612"
    },
    {
      "channel": 3,
      "note": 71,
      "start": 120.2605,
      "duration": 0.1864,
      "velocity": 84,
      "chip": "ym2612"
    },
    {
      "channel": 4,
      "note": 73,
      "start": 120.2613,
      "duration": 0.1864,
      "velocity": 84,
      "chip": "ym2612"
    },
    {
      "channel": 0,
      "note": 73,
      "start": 120.445,
      "duration": 0.1857,
      "velocity": 84,
      "chip": "ym2612"
    },
    {
      "channel": 3,
      "note": 68,
      "start": 120.4472,
      "duration": 0.1849,
      "velocity": 84,
      "chip": "ym2612"
    },
    {
      "channel": 4,
      "note": 75,
      "start": 120.448,
      "duration": 0.1849,
      "velocity": 84,
      "chip": "ym2612"
    },
    {
      "channel": 0,
      "note": 75,
      "start": 120.6309,
      "duration": 0.0476,
      "velocity": 84,
      "chip": "ym2612"
    },
    {
      "channel": 2,
      "note": 59,
      "start": 120.6317,
      "duration": 0.0127,
      "velocity": 97,
      "chip": "ym2612"
    },
    {
      "channel": 3,
      "note": 70,
      "start": 120.6324,
      "duration": 0.0475,
      "velocity": 84,
      "chip": "ym2612"
    },
    {
      "channel": 4,
      "note": 71,
      "start": 120.6332,
      "duration": 0.0475,
      "velocity": 84,
      "chip": "ym2612"
    },
    {
      "channel": 0,
      "note": 76,
      "start": 120.6787,
      "duration": 0.0247,
      "velocity": 84,
      "chip": "ym2612"
    },
    {
      "channel": 2,
      "note": 59,
      "start": 120.6795,
      "duration": 0.4041,
      "velocity": 97,
      "chip": "ym2612"
    },
    {
      "channel": 3,
      "note": 71,
      "start": 120.6802,
      "duration": 0.0244,
      "velocity": 84,
      "chip": "ym2612"
    },
    {
      "channel": 4,
      "note": 73,
      "start": 120.681,
      "duration": 0.0243,
      "velocity": 84,
      "chip": "ym2612"
    },
    {
      "channel": 0,
      "note": 75,
      "start": 120.7037,
      "duration": 0.0241,
      "velocity": 84,
      "chip": "ym2612"
    },
    {
      "channel": 3,
      "note": 73,
      "start": 120.7049,
      "duration": 0.024,
      "velocity": 84,
      "chip": "ym2612"
    },
    {
      "channel": 4,
      "note": 75,
      "start": 120.7057,
      "duration": 0.024,
      "velocity": 84,
      "chip": "ym2612"
    },
    {
      "channel": 0,
      "note": 76,
      "start": 120.728,
      "duration": 0.1692,
      "velocity": 84,
      "chip": "ym2612"
    },
    {
      "channel": 3,
      "note": 71,
      "start": 120.7292,
      "duration": 0.1691,
      "velocity": 84,
      "chip": "ym2612"
    },
    {
      "channel": 4,
      "note": 76,
      "start": 120.73,
      "duration": 0.1691,
      "velocity": 84,
      "chip": "ym2612"
    },
    {
      "channel": 0,
      "note": 78,
      "start": 120.8974,
      "duration": 0.1854,
      "velocity": 84,
      "chip": "ym2612"
    },
    {
      "channel": 3,
      "note": 73,
      "start": 120.8986,
      "duration": 0.1856,
      "velocity": 84,
      "chip": "ym2612"
    },
    {
      "channel": 4,
      "note": 75,
      "start": 120.8994,
      "duration": 0.1857,
      "velocity": 84,
      "chip": "ym2612"
    },
    {
      "channel": 0,
      "note": 80,
      "start": 121.0831,
      "duration": 0.0475,
      "velocity": 84,
      "chip": "ym2612"
    },
    {
      "channel": 2,
      "note": 58,
      "start": 121.0839,
      "duration": 0.4193,
      "velocity": 97,
      "chip": "ym2612"
    },
    {
      "channel": 3,
      "note": 75,
      "start": 121.0846,
      "duration": 0.0471,
      "velocity": 84,
      "chip": "ym2612"
    },
    {
      "channel": 4,
      "note": 76,
      "start": 121.0854,
      "duration": 0.0471,
      "velocity": 84,
      "chip": "ym2612"
    },
    {
      "channel": 0,
      "note": 78,
      "start": 121.1308,
      "duration": 0.1854,
      "velocity": 84,
      "chip": "ym2612"
    },
    {
      "channel": 3,
      "note": 76,
      "start": 121.132,
      "duration": 0.1854,
      "velocity": 84,
      "chip": "ym2612"
    },
    {
      "channel": 4,
      "note": 78,
      "start": 121.1327,
      "duration": 0.1864,
      "velocity": 84,
      "chip": "ym2612"
    },
    {
      "channel": 0,
      "note": 80,
      "start": 121.3165,
      "duration": 0.1859,
      "velocity": 84,
      "chip": "ym2612"
    },
    {
      "channel": 3,
      "note": 75,
      "start": 121.3187,
      "duration": 0.1851,
      "velocity": 84,
      "chip": "ym2612"
    },
    {
      "channel": 4,
      "note": 80,
      "start": 121.3195,
      "duration": 0.1851,
      "velocity": 84,
      "chip": "ym2612"
    },
    {
      "channel": 0,
      "note": 82,
      "start": 121.5026,
      "duration": 0.0473,
      "velocity": 84,
      "chip": "ym2612"
    },
    {
      "channel": 2,
      "note": 58,
      "start": 121.5034,
      "duration": 0.0126,
      "velocity": 97,
      "chip": "ym2612"
    },
    {
      "channel": 3,
      "note": 76,
      "start": 121.5041,
      "duration": 0.0473,
      "velocity": 84,
      "chip": "ym2612"
    },
    {
      "channel": 4,
      "note": 78,
      "start": 121.5049,
      "duration": 0.0473,
      "velocity": 84,
      "chip": "ym2612"
    },
    {
      "channel": 0,
      "note": 83,
      "start": 121.5502,
      "duration": 0.0247,
      "velocity": 84,
      "chip": "ym2612"
    },
    {
      "channel": 2,
      "note": 58,
      "start": 121.551,
      "duration": 0.4044,
      "velocity": 97,
      "chip": "ym2612"
    },
    {
      "channel": 3,
      "note": 78,
      "start": 121.5517,
      "duration": 0.0243,
      "velocity": 84,
      "chip": "ym2612"
    },
    {
      "channel": 4,
      "note": 80,
      "start": 121.5524,
      "duration": 0.0243,
      "velocity": 84,
      "chip": "ym2612"
    },
    {
      "channel": 0,
      "note": 82,
      "start": 121.5751,
      "duration": 0.0244,
      "velocity": 84,
      "chip": "ym2612"
    },
    {
      "channel": 3,
      "note": 80,
      "start": 121.5763,
      "duration": 0.0243,
      "velocity": 84,
      "chip": "ym2612"
    },
    {
      "channel": 4,
      "note": 82,
      "start": 121.5771,
      "duration": 0.0243,
      "velocity": 84,
      "chip": "ym2612"
    },
    {
      "channel": 0,
      "note": 83,
      "start": 121.5998,
      "duration": 0.1692,
      "velocity": 84,
      "chip": "ym2612"
    },
    {
      "channel": 3,
      "note": 78,
      "start": 121.601,
      "duration": 0.1691,
      "velocity": 84,
      "chip": "ym2612"
    },
    {
      "channel": 4,
      "note": 83,
      "start": 121.6017,
      "duration": 0.1691,
      "velocity": 84,
      "chip": "ym2612"
    },
    {
      "channel": 0,
      "note": 85,
      "start": 121.7692,
      "duration": 0.1854,
      "velocity": 84,
      "chip": "ym2612"
    },
    {
      "channel": 3,
      "note": 80,
      "start": 121.7704,
      "duration": 0.1857,
      "velocity": 84,
      "chip": "ym2612"
    },
    {
      "channel": 4,
      "note": 82,
      "start": 121.7711,
      "duration": 0.1857,
      "velocity": 84,
      "chip": "ym2612"
    },
    {
      "channel": 0,
      "note": 87,
      "start": 121.9549,
      "duration": 0.4194,
      "velocity": 84,
      "chip": "ym2612"
    },
    {
      "channel": 2,
      "note": 58,
      "start": 121.9557,
      "duration": 0.4194,
      "velocity": 97,
      "chip": "ym2612"
    },
    {
      "channel": 3,
      "note": 82,
      "start": 121.9564,
      "duration": 0.4194,
      "velocity": 84,
      "chip": "ym2612"
    },
    {
      "channel": 4,
      "note": 83,
      "start": 121.9571,
      "duration": 0.0463,
      "velocity": 84,
      "chip": "ym2612"
    },
    {
      "channel": 4,
      "note": 85,
      "start": 122.0037,
      "duration": 0.4193,
      "velocity": 84,
      "chip": "ym2612"
    },
    {
      "channel": 0,
      "note": 82,
      "start": 122.3745,
      "duration": 0.0944,
      "velocity": 84,
      "chip": "ym2612"
    },
    {
      "channel": 2,
      "note": 58,
      "start": 122.3754,
      "duration": 0.0121,
      "velocity": 97,
      "chip": "ym2612"
    },
    {
      "channel": 3,
      "note": 83,
      "start": 122.3761,
      "duration": 0.0939,
      "velocity": 84,
      "chip": "ym2612"
    },
    {
      "channel": 2,
      "note": 58,
      "start": 122.4223,
      "duration": 0.4046,
      "velocity": 97,
      "chip": "ym2612"
    },
    {
      "channel": 4,
      "note": 87,
      "start": 122.4233,
      "duration": 0.2179,
      "velocity": 84,
      "chip": "ym2612"
    },
    {
      "channel": 0,
      "note": 78,
      "start": 122.4691,
      "duration": 0.3567,
      "velocity": 84,
      "chip": "ym2612"
    },
    {
      "channel": 3,
      "note": 78,
      "start": 122.4703,
      "duration": 0.3572,
      "velocity": 84,
      "chip": "ym2612"
    },
    {
      "channel": 4,
      "note": 82,
      "start": 122.6416,
      "duration": 0.233,
      "velocity": 84,
      "chip": "ym2612"
    },
    {
      "channel": 0,
      "note": 80,
      "start": 122.8261,
      "duration": 0.4912,
      "velocity": 84,
      "chip": "ym2612"
    },
    {
      "channel": 1,
      "note": 78,
      "start": 122.8266,
      "duration": 3.455,
      "velocity": 87,
      "chip": "ym2612"
    },
    {
      "channel": 2,
      "note": 56,
      "start": 122.8272,
      "duration": 0.419,
      "velocity": 97,
      "chip": "ym2612"
    },
    {
      "channel": 3,
      "note": 75,
      "start": 122.8279,
      "duration": 0.4905,
      "velocity": 84,
      "chip": "ym2612"
    },
    {
      "channel": 4,
      "note": 78,
      "start": 122.8749,
      "duration": 0.4682,
      "velocity": 84,
      "chip": "ym2612"
    },
    {
      "channel": 2,
      "note": 56,
      "start": 123.2464,
      "duration": 0.0116,
      "velocity": 97,
      "chip": "ym2612"
    },
    {
      "channel": 2,
      "note": 56,
      "start": 123.2936,
      "duration": 0.4047,
      "velocity": 97,
      "chip": "ym2612"
    },
    {
      "channel": 0,
      "note": 80,
      "start": 123.3175,
      "duration": 0.0237,
      "velocity": 84,
      "chip": "ym2612"
    },
    {
      "channel": 3,
      "note": 75,
      "start": 123.3188,
      "duration": 0.0236,
      "velocity": 84,
      "chip": "ym2612"
    },
    {
      "channel": 0,
      "note": 82,
      "start": 123.3415,
      "duration": 0.1703,
      "velocity": 84,
      "chip": "ym2612"
    },
    {
      "channel": 3,
      "note": 75,
      "start": 123.3427,
      "duration": 0.1702,
      "velocity": 84,
      "chip": "ym2612"
    },
    {
      "channel": 4,
      "note": 80,
      "start": 123.3434,
      "duration": 0.1702,
      "velocity": 84,
      "chip": "ym2612"
    },
    {
      "channel": 0,
      "note": 83,
      "start": 123.5121,
      "duration": 0.1854,
      "velocity": 84,
      "chip": "ym2612"
    },
    {
      "channel": 3,
      "note": 78,
      "start": 123.5132,
      "duration": 0.1857,
      "velocity": 84,
      "chip": "ym2612"
    },
    {
      "channel": 4,
      "note": 80,
      "start": 123.514,
      "duration": 0.1857,
      "velocity": 84,
      "chip": "ym2612"
    },
    {
      "channel": 0,
      "note": 85,
      "start": 123.6977,
      "duration": 0.4201,
      "velocity": 84,
      "chip": "ym2612"
    },
    {
      "channel": 2,
      "note": 56,
      "start": 123.6985,
      "duration": 0.4201,
      "velocity": 97,
      "chip": "ym2612"
    },
    {
      "channel": 3,
      "note": 80,
      "start": 123.6993,
      "duration": 0.42,
      "velocity": 84,
      "chip": "ym2612"
    },
    {
      "channel": 4,
      "note": 82,
      "start": 123.7,
      "duration": 0.0466,
      "velocity": 84,
      "chip": "ym2612"
    },
    {
      "channel": 4,
      "note": 83,
      "start": 123.7469,
      "duration": 0.4193,
      "velocity": 84,
      "chip": "ym2612"
    },
    {
      "channel": 0,
      "note": 87,
      "start": 124.1181,
      "duration": 0.0553,
      "velocity": 84,
      "chip": "ym2612"
    },
    {
      "channel": 2,
      "note": 56,
      "start": 124.1189,
      "duration": 0.0121,
      "velocity": 97,
      "chip": "ym2612"
    },
    {
      "channel": 3,
      "note": 82,
      "start": 124.1196,
      "duration": 0.0547,
      "velocity": 84,
      "chip": "ym2612"
    },
    {
      "channel": 2,
      "note": 56,
      "start": 124.1655,
      "duration": 0.4047,
      "velocity": 97,
      "chip": "ym2612"
    },
    {
      "channel": 4,
      "note": 85,
      "start": 124.1665,
      "duration": 0.0331,
      "velocity": 84,
      "chip": "ym2612"
    },
    {
      "channel": 0,
      "note": 85,
      "start": 124.1898,
      "duration": 0.0199,
      "velocity": 84,
      "chip": "ym2612"
    },
    {
      "channel": 3,
      "note": 78,
      "start": 124.1911,
      "duration": 0.0234,
      "velocity": 84,
      "chip": "ym2612"
    },
    {
      "channel": 4,
      "note": 87,
      "start": 124.2154,
      "duration": 0.1386,
      "velocity": 84,
      "chip": "ym2612"
    },
    {
      "channel": 0,
      "note": 83,
      "start": 124.384,
      "duration": 0.1854,
      "velocity": 84,
      "chip": "ym2612"
    },
    {
      "channel": 3,
      "note": 82,
      "start": 124.3852,
      "duration": 0.1857,
      "velocity": 84,
      "chip": "ym2612"
    },
    {
      "channel": 0,
      "note": 85,
      "start": 124.5696,
      "duration": 0.5148,
      "velocity": 84,
      "chip": "ym2612"
    },
    {
      "channel": 2,
      "note": 54,
      "start": 124.5705,
      "duration": 0.4198,
      "velocity": 97,
      "chip": "ym2612"
    },
    {
      "channel": 3,
      "note": 80,
      "start": 124.5712,
      "duration": 0.5143,
      "velocity": 84,
      "chip": "ym2612"
    },
    {
      "channel": 4,
      "note": 85,
      "start": 124.5719,
      "duration": 0.0466,
      "velocity": 84,
      "chip": "ym2612"
    },
    {
      "channel": 4,
      "note": 83,
      "start": 124.6188,
      "duration": 0.6376,
      "velocity": 84,
      "chip": "ym2612"
    },
    {
      "channel": 2,
      "note": 54,
      "start": 124.9905,
      "duration": 0.0117,
      "velocity": 97,
      "chip": "ym2612"
    },
    {
      "channel": 2,
      "note": 54,
      "start": 125.0374,
      "duration": 0.404,
      "velocity": 97,
      "chip": "ym2612"
    },
    {
      "channel": 0,
      "note": 90,
      "start": 125.0846,
      "duration": 0.8233,
      "velocity": 84,
      "chip": "ym2612"
    },
    {
      "channel": 3,
      "note": 82,
      "start": 125.0858,
      "duration": 0.8236,
      "velocity": 84,
      "chip": "ym2612"
    },
    {
      "channel": 4,
      "note": 85,
      "start": 125.2567,
      "duration": 0.6771,
      "velocity": 84,
      "chip": "ym2612"
    },
    {
      "channel": 2,
      "note": 54,
      "start": 125.4417,
      "duration": 0.4201,
      "velocity": 97,
      "chip": "ym2612"
    },
    {
      "channel": 2,
      "note": 54,
      "start": 125.8621,
      "duration": 0.0117,
      "velocity": 97,
      "chip": "ym2612"
    },
    {
      "channel": 0,
      "note": 85,
      "start": 125.9082,
      "duration": 0.0482,
      "velocity": 84,
      "chip": "ym2612"
    },
    {
      "channel": 2,
      "note": 54,
      "start": 125.9091,
      "duration": 0.4043,
      "velocity": 97,
      "chip": "ym2612"
    },
    {
      "channel": 3,
      "note": 87,
      "start": 125.9098,
      "duration": 0.0477,
      "velocity": 84,
      "chip": "ym2612"
    },
    {
      "channel": 4,
      "note": 90,
      "start": 125.9341,
      "duration": 0.1936,
      "velocity": 84,
      "chip": "ym2612"
    },
    {
      "channel": 0,
      "note": 87,
      "start": 125.9566,
      "duration": 0.3556,
      "velocity": 84,
      "chip": "ym2612"
    },
    {
      "channel": 3,
      "note": 82,
      "start": 125.9578,
      "duration": 0.3562,
      "velocity": 84,
      "chip": "ym2612"
    },
    {
      "channel": 4,
      "note": 85,
      "start": 126.128,
      "duration": 0.2331,
      "velocity": 84,
      "chip": "ym2612"
    },
    {
      "channel": 0,
      "note": 88,
      "start": 126.3125,
      "duration": 0.4188,
      "velocity": 84,
      "chip": "ym2612"
    },
    {
      "channel": 1,
      "note": 80,
      "start": 126.3131,
      "duration": 1.7112,
      "velocity": 87,
      "chip": "ym2612"
    },
    {
      "channel": 2,
      "note": 52,
      "start": 126.3137,
      "duration": 0.4196,
      "velocity": 97,
      "chip": "ym2612"
    },
    {
      "channel": 3,
      "note": 83,
      "start": 126.3144,
      "duration": 0.4195,
      "velocity": 84,
      "chip": "ym2612"
    },
    {
      "channel": 4,
      "note": 87,
      "start": 126.3614,
      "duration": 0.4194,
      "velocity": 84,
      "chip": "ym2612"
    },
    {
      "channel": 0,
      "note": 87,
      "start": 126.7316,
      "duration": 0.0475,
      "velocity": 84,
      "chip": "ym2612"
    },
    {
      "channel": 2,
      "note": 52,
      "start": 126.7334,
      "duration": 0.0118,
      "velocity": 97,
      "chip": "ym2612"
    },
    {
      "channel": 3,
      "note": 85,
      "start": 126.7341,
      "duration": 0.0462,
      "velocity": 84,
      "chip": "ym2612"
    },
    {
      "channel": 2,
      "note": 52,
      "start": 126.78,
      "duration": 0.4042,
      "velocity": 97,
      "chip": "ym2612"
    },
    {
      "channel": 4,
      "note": 88,
      "start": 126.7811,
      "duration": 0.0243,
      "velocity": 84,
      "chip": "ym2612"
    },
    {
      "channel": 0,
      "note": 85,
      "start": 126.8038,
      "duration": 0.0238,
      "velocity": 84,
      "chip": "ym2612"
    },
    {
      "channel": 3,
      "note": 83,
      "start": 126.805,
      "duration": 0.0235,
      "velocity": 84,
      "chip": "ym2612"
    },
    {
      "channel": 4,
      "note": 87,
      "start": 126.8293,
      "duration": 0.1702,
      "velocity": 84,
      "chip": "ym2612"
    },
    {
      "channel": 0,
      "note": 83,
      "start": 126.998,
      "duration": 0.1854,
      "velocity": 84,
      "chip": "ym2612"
    },
    {
      "channel": 3,
      "note": 82,
      "start": 126.9992,
      "duration": 0.1856,
      "velocity": 84,
      "chip": "ym2612"
    },
    {
      "channel": 0,
      "note": 87,
      "start": 127.1836,
      "duration": 0.4191,
      "velocity": 84,
      "chip": "ym2612"
    },
    {
      "channel": 2,
      "note": 52,
      "start": 127.1844,
      "duration": 0.4202,
      "velocity": 97,
      "chip": "ym2612"
    },
    {
      "channel": 3,
      "note": 80,
      "start": 127.1851,
      "duration": 0.4201,
      "velocity": 84,
      "chip": "ym2612"
    },
    {
      "channel": 4,
      "note": 85,
      "start": 127.1859,
      "duration": 0.0466,
      "velocity": 84,
      "chip": "ym2612"
    },
    {
      "channel": 4,
      "note": 83,
      "start": 127.2328,
      "duration": 0.4194,
      "velocity": 84,
      "chip": "ym2612"
    },
    {
      "channel": 0,
      "note": 90,
      "start": 127.6029,
      "duration": 0.0475,
      "velocity": 84,
      "chip": "ym2612"
    },
    {
      "channel": 2,
      "note": 52,
      "start": 127.6048,
      "duration": 0.0119,
      "velocity": 97,
      "chip": "ym2612"
    },
    {
      "channel": 3,
      "note": 83,
      "start": 127.6055,
      "duration": 0.0462,
      "velocity": 84,
      "chip": "ym2612"
    },
    {
      "channel": 2,
      "note": 52,
      "start": 127.6513,
      "duration": 0.4048,
      "velocity": 97,
      "chip": "ym2612"
    },
    {
      "channel": 4,
      "note": 87,
      "start": 127.6525,
      "duration": 0.0242,
      "velocity": 84,
      "chip": "ym2612"
    },
    {
      "channel": 0,
      "note": 78,
      "start": 127.6751,
      "duration": 0.0241,
      "velocity": 84,
      "chip": "ym2612"
    },
    {
      "channel": 3,
      "note": 87,
      "start": 127.6763,
      "duration": 0.0239,
      "velocity": 84,
      "chip": "ym2612"
    },
    {
      "channel": 4,
      "note": 90,
      "start": 127.701,
      "duration": 0.1702,
      "velocity": 84,
      "chip": "ym2612"
    },
    {
      "channel": 0,
      "note": 80,
      "start": 127.8696,
      "duration": 0.1854,
      "velocity": 84,
      "chip": "ym2612"
    },
    {
      "channel": 3,
      "note": 75,
      "start": 127.8708,
      "duration": 0.1859,
      "velocity": 84,
      "chip": "ym2612"
    },
    {
      "channel": 0,
      "note": 82,
      "start": 128.0553,
      "duration": 0.4188,
      "velocity": 84,
      "chip": "ym2612"
    },
    {
      "channel": 1,
      "note": 82,
      "start": 128.0558,
      "duration": 1.711,
      "velocity": 87,
      "chip": "ym2612"
    },
    {
      "channel": 2,
      "note": 51,
      "start": 128.0564,
      "duration": 0.4195,
      "velocity": 97,
      "chip": "ym2612"
    },
    {
      "channel": 3,
      "note": 76,
      "start": 128.0571,
      "duration": 0.4195,
      "velocity": 84,
      "chip": "ym2612"
    },
    {
      "channel": 4,
      "note": 78,
      "start": 128.0578,
      "duration": 0.046,
      "velocity": 84,
      "chip": "ym2612"
    },
    {
      "channel": 4,
      "note": 80,
      "start": 128.1041,
      "duration": 0.4194,
      "velocity": 84,
      "chip": "ym2612"
    },
    {
      "channel": 0,
      "note": 85,
      "start": 128.4743,
      "duration": 0.0475,
      "velocity": 84,
      "chip": "ym2612"
    },
    {
      "channel": 2,
      "note": 51,
      "start": 128.4762,
      "duration": 0.0117,
      "velocity": 97,
      "chip": "ym2612"
    },
    {
      "channel": 3,
      "note": 78,
      "start": 128.4768,
      "duration": 0.0462,
      "velocity": 84,
      "chip": "ym2612"
    },
    {
      "channel": 2,
      "note": 51,
      "start": 128.5227,
      "duration": 0.4045,
      "velocity": 97,
      "chip": "ym2612"
    },
    {
      "channel": 4,
      "note": 82,
      "start": 128.5238,
      "duration": 0.0243,
      "velocity": 84,
      "chip": "ym2612"
    },
    {
      "channel": 0,
      "note": 83,
      "start": 128.5466,
      "duration": 0.024,
      "velocity": 84,
      "chip": "ym2612"
    },
    {
      "channel": 3,
      "note": 82,
      "start": 128.5478,
      "duration": 0.0238,
      "velocity": 84,
      "chip": "ym2612"
    },
    {
      "channel": 4,
      "note": 85,
      "start": 128.5723,
      "duration": 0.1702,
      "velocity": 84,
      "chip": "ym2612"
    },
    {
      "channel": 0,
      "note": 82,
      "start": 128.7409,
      "duration": 0.1854,
      "velocity": 84,
      "chip": "ym2612"
    },
    {
      "channel": 3,
      "note": 80,
      "start": 128.7421,
      "duration": 0.1856,
      "velocity": 84,
      "chip": "ym2612"
    },
    {
      "channel": 0,
      "note": 83,
      "start": 128.9266,
      "duration": 0.4188,
      "velocity": 84,
      "chip": "ym2612"
    },
    {
      "channel": 2,
      "note": 51,
      "start": 128.9274,
      "duration": 0.4188,
      "velocity": 97,
      "chip": "ym2612"
    },
    {
      "channel": 3,
      "note": 78,
      "start": 128.9281,
      "duration": 0.4198,
      "velocity": 84,
      "chip": "ym2612"
    },
    {
      "channel": 4,
      "note": 83,
      "start": 128.9288,
      "duration": 0.0463,
      "velocity": 84,
      "chip": "ym2612"
    },
    {
      "channel": 4,
      "note": 82,
      "start": 128.9755,
      "duration": 0.4196,
      "velocity": 84,
      "chip": "ym2612"
    },
    {
      "channel": 0,
      "note": 82,
      "start": 129.3456,
      "duration": 0.0478,
      "velocity": 84,
      "chip": "ym2612"
    },
    {
      "channel": 2,
      "note": 51,
      "start": 129.3475,
      "duration": 0.0119,
      "velocity": 97,
      "chip": "ym2612"
    },
    {
      "channel": 3,
      "note": 80,
      "start": 129.3482,
      "duration": 0.0464,
      "velocity": 84,
      "chip": "ym2612"
    },
    {
      "channel": 2,
      "note": 51,
      "start": 129.3943,
      "duration": 0.4044,
      "velocity": 97,
      "chip": "ym2612"
    },
    {
      "channel": 4,
      "note": 83,
      "start": 129.3954,
      "duration": 0.0243,
      "velocity": 84,
      "chip": "ym2612"
    },
    {
      "channel": 0,
      "note": 78,
      "start": 129.4181,
      "duration": 0.0238,
      "velocity": 84,
      "chip": "ym2612"
    },
    {
      "channel": 3,
      "note": 78,
      "start": 129.4193,
      "duration": 0.0236,
      "velocity": 84,
      "chip": "ym2612"
    },
    {
      "channel": 4,
      "note": 82,
      "start": 129.4437,
      "duration": 0.17,
      "velocity": 84,
      "chip": "ym2612"
    },
    {
      "channel": 0,
      "note": 75,
      "start": 129.6121,
      "duration": 0.1854,
      "velocity": 84,
      "chip": "ym2612"
    },
    {
      "channel": 3,
      "note": 75,
      "start": 129.6133,
      "duration": 0.1859,
      "velocity": 84,
      "chip": "ym2612"
    },
    {
      "channel": 0,
      "note": 76,
      "start": 129.7978,
      "duration": 0.4911,
      "velocity": 84,
      "chip": "ym2612"
    },
    {
      "channel": 1,
      "note": 80,
      "start": 129.7983,
      "duration": 1.7109,
      "velocity": 87,
      "chip": "ym2612"
    },
    {
      "channel": 2,
      "note": 52,
      "start": 129.7989,
      "duration": 0.4182,
      "velocity": 97,
      "chip": "ym2612"
    },
    {
      "channel": 3,
      "note": 71,
      "start": 129.7996,
      "duration": 0.4904,
      "velocity": 84,
      "chip": "ym2612"
    },
    {
      "channel": 4,
      "note": 78,
      "start": 129.8003,
      "duration": 0.0461,
      "velocity": 84,
      "chip": "ym2612"
    },
    {
      "channel": 4,
      "note": 75,
      "start": 129.8467,
      "duration": 0.4681,
      "velocity": 84,
      "chip": "ym2612"
    },
    {
      "channel": 2,
      "note": 52,
      "start": 130.2173,
      "duration": 0.0124,
      "velocity": 97,
      "chip": "ym2612"
    },
    {
      "channel": 2,
      "note": 52,
      "start": 130.2655,
      "duration": 0.4041,
      "velocity": 97,
      "chip": "ym2612"
    },
    {
      "channel": 0,
      "note": 76,
      "start": 130.2891,
      "duration": 0.0238,
      "velocity": 84,
      "chip": "ym2612"
    },
    {
      "channel": 3,
      "note": 71,
      "start": 130.2903,
      "duration": 0.0237,
      "velocity": 84,
      "chip": "ym2612"
    },
    {
      "channel": 0,
      "note": 78,
      "start": 130.3132,
      "duration": 0.17,
      "velocity": 84,
      "chip": "ym2612"
    },
    {
      "channel": 3,
      "note": 71,
      "start": 130.3144,
      "duration": 0.1698,
      "velocity": 84,
      "chip": "ym2612"
    },
    {
      "channel": 4,
      "note": 76,
      "start": 130.3151,
      "duration": 0.1698,
      "velocity": 84,
      "chip": "ym2612"
    },
    {
      "channel": 0,
      "note": 80,
      "start": 130.4834,
      "duration": 0.1854,
      "velocity": 84,
      "chip": "ym2612"
    },
    {
      "channel": 3,
      "note": 75,
      "start": 130.4845,
      "duration": 0.1857,
      "velocity": 84,
      "chip": "ym2612"
    },
    {
      "channel": 4,
      "note": 76,
      "start": 130.4853,
      "duration": 0.1857,
      "velocity": 84,
      "chip": "ym2612"
    },
    {
      "channel": 0,
      "note": 83,
      "start": 130.669,
      "duration": 0.4672,
      "velocity": 84,
      "chip": "ym2612"
    },
    {
      "channel": 2,
      "note": 52,
      "start": 130.6698,
      "duration": 0.4185,
      "velocity": 97,
      "chip": "ym2612"
    },
    {
      "channel": 3,
      "note": 76,
      "start": 130.6705,
      "duration": 0.4671,
      "velocity": 84,
      "chip": "ym2612"
    },
    {
      "channel": 4,
      "note": 78,
      "start": 130.6713,
      "duration": 0.0463,
      "velocity": 84,
      "chip": "ym2612"
    },
    {
      "channel": 4,
      "note": 80,
      "start": 130.7179,
      "duration": 0.4438,
      "velocity": 84,
      "chip": "ym2612"
    },
    {
      "channel": 2,
      "note": 52,
      "start": 131.0885,
      "duration": 0.0125,
      "velocity": 97,
      "chip": "ym2612"
    },
    {
      "channel": 0,
      "note": 85,
      "start": 131.1364,
      "duration": 0.4035,
      "velocity": 84,
      "chip": "ym2612"
    },
    {
      "channel": 2,
      "note": 52,
      "start": 131.1372,
      "duration": 0.4037,
      "velocity": 97,
      "chip": "ym2612"
    },
    {
      "channel": 3,
      "note": 80,
      "start": 131.1379,
      "duration": 0.4037,
      "velocity": 84,
      "chip": "ym2612"
    },
    {
      "channel": 4,
      "note": 83,
      "start": 131.162,
      "duration": 0.4267,
      "velocity": 84,
      "chip": "ym2612"
    },
    {
      "channel": 0,
      "note": 85,
      "start": 131.5401,
      "duration": 0.4915,
      "velocity": 84,
      "chip": "ym2612"
    },
    {
      "channel": 1,
      "note": 82,
      "start": 131.5406,
      "duration": 0.9769,
      "velocity": 87,
      "chip": "ym2612"
    },
    {
      "channel": 2,
      "note": 54,
      "start": 131.5412,
      "duration": 0.4181,
      "velocity": 97,
      "chip": "ym2612"
    },
    {
      "channel": 3,
      "note": 82,
      "start": 131.5419,
      "duration": 0.4909,
      "velocity": 84,
      "chip": "ym2612"
    },
    {
      "channel": 4,
      "note": 85,
      "start": 131.589,
      "duration": 0.4688,
      "velocity": 84,
      "chip": "ym2612"
    },
    {
      "channel": 2,
      "note": 54,
      "start": 131.9596,
      "duration": 0.0124,
      "velocity": 97,
      "chip": "ym2612"
    },
    {
      "channel": 2,
      "note": 54,
      "start": 132.0082,
      "duration": 0.2661,
      "velocity": 97,
      "chip": "ym2612"
    },
    {
      "channel": 0,
      "note": 61,
      "start": 132.0319,
      "duration": 0.024,
      "velocity": 84,
      "chip": "ym2612"
    },
    {
      "channel": 3,
      "note": 82,
      "start": 132.0331,
      "duration": 0.024,
      "velocity": 84,
      "chip": "ym2612"
    },
    {
      "channel": 0,
      "note": 63,
      "start": 132.0562,
      "duration": 0.1695,
      "velocity": 84,
      "chip": "ym2612"
    },
    {
      "channel": 3,
      "note": 58,
      "start": 132.0574,
      "duration": 0.1694,
      "velocity": 84,
      "chip": "ym2612"
    },
    {
      "channel": 4,
      "note": 85,
      "start": 132.0581,
      "duration": 0.1694,
      "velocity": 84,
      "chip": "ym2612"
    },
    {
      "channel": 0,
      "note": 64,
      "start": 132.2259,
      "duration": 0.0476,
      "velocity": 84,
      "chip": "ym2612"
    },
    {
      "channel": 3,
      "note": 59,
      "start": 132.2271,
      "duration": 0.0478,
      "velocity": 84,
      "chip": "ym2612"
    },
    {
      "channel": 4,
      "note": 61,
      "start": 132.2279,
      "duration": 0.0478,
      "velocity": 84,
      "chip": "ym2612"
    },
    {
      "channel": 0,
      "note": 66,
      "start": 132.2737,
      "duration": 0.0476,
      "velocity": 84,
      "chip": "ym2612"
    },
    {
      "channel": 2,
      "note": 54,
      "start": 132.2746,
      "duration": 0.0968,
      "velocity": 97,
      "chip": "ym2612"
    },
    {
      "channel": 3,
      "note": 61,
      "start": 132.2753,
      "duration": 0.0471,
      "velocity": 84,
      "chip": "ym2612"
    },
    {
      "channel": 4,
      "note": 63,
      "start": 132.276,
      "duration": 0.0471,
      "velocity": 84,
      "chip": "ym2612"
    },
    {
      "channel": 0,
      "note": 63,
      "start": 132.3215,
      "duration": 0.0245,
      "velocity": 84,
      "chip": "ym2612"
    },
    {
      "channel": 3,
      "note": 63,
      "start": 132.3227,
      "duration": 0.0244,
      "velocity": 84,
      "chip": "ym2612"
    },
    {
      "channel": 4,
      "note": 64,
      "start": 132.3235,
      "duration": 0.0244,
      "velocity": 84,
      "chip": "ym2612"
    },
    {
      "channel": 0,
      "note": 64,
      "start": 132.3463,
      "duration": 0.0243,
      "velocity": 84,
      "chip": "ym2612"
    },
    {
      "channel": 3,
      "note": 59,
      "start": 132.3475,
      "duration": 0.0246,
      "velocity": 84,
      "chip": "ym2612"
    },
    {
      "channel": 4,
      "note": 66,
      "start": 132.3482,
      "duration": 0.0256,
      "velocity": 84,
      "chip": "ym2612"
    },
    {
      "channel": 0,
      "note": 66,
      "start": 132.3708,
      "duration": 0.0485,
      "velocity": 84,
      "chip": "ym2612"
    },
    {
      "channel": 2,
      "note": 54,
      "start": 132.3717,
      "duration": 0.0134,
      "velocity": 97,
      "chip": "ym2612"
    },
    {
      "channel": 3,
      "note": 61,
      "start": 132.3734,
      "duration": 0.0473,
      "velocity": 84,
      "chip": "ym2612"
    },
    {
      "channel": 4,
      "note": 63,
      "start": 132.3741,
      "duration": 0.0474,
      "velocity": 84,
      "chip": "ym2612"
    },
    {
      "channel": 0,
      "note": 68,
      "start": 132.4195,
      "duration": 0.0248,
      "velocity": 84,
      "chip": "ym2612"
    },
    {
      "channel": 2,
      "note": 66,
      "start": 132.4204,
      "duration": 0.0248,
      "velocity": 97,
      "chip": "ym2612"
    },
    {
      "channel": 3,
      "note": 63,
      "start": 132.4211,
      "duration": 0.0247,
      "velocity": 84,
      "chip": "ym2612"
    },
    {
      "channel": 4,
      "note": 64,
      "start": 132.4218,
      "duration": 0.0247,
      "velocity": 84,
      "chip": "ym2612"
    },
    {
      "channel": 0,
      "note": 68,
      "start": 132.4446,
      "duration": 0.0128,
      "velocity": 84,
      "chip": "ym2612"
    },
    {
      "channel": 2,
      "note": 61,
      "start": 132.4454,
      "duration": 0.0248,
      "velocity": 97,
      "chip": "ym2612"
    },
    {
      "channel": 3,
      "note": 64,
      "start": 132.4461,
      "duration": 0.0248,
      "velocity": 84,
      "chip": "ym2612"
    },
    {
      "channel": 4,
      "note": 66,
      "start": 132.4468,
      "duration": 0.0248,
      "velocity": 84,
      "chip": "ym2612"
    },
    {
      "channel": 0,
      "note": 70,
      "start": 132.4576,
      "duration": 0.0118,
      "velocity": 84,
      "chip": "ym2612"
    },
    {
      "channel": 0,
      "note": 68,
      "start": 132.4697,
      "duration": 0.0263,
      "velocity": 84,
      "chip": "ym2612"
    },
    {
      "channel": 2,
      "note": 58,
      "start": 132.4705,
      "duration": 0.0263,
      "velocity": 97,
      "chip": "ym2612"
    },
    {
      "channel": 3,
      "note": 64,
      "start": 132.4712,
      "duration": 0.0262,
      "velocity": 84,
      "chip": "ym2612"
    },
    {
      "channel": 4,
      "note": 68,
      "start": 132.472,
      "duration": 0.012,
      "velocity": 84,
      "chip": "ym2612"
    },
    {
      "channel": 4,
      "note": 68,
      "start": 132.4843,
      "duration": 0.0139,
      "velocity": 84,
      "chip": "ym2612"
    },
    {
      "channel": 0,
      "note": 66,
      "start": 132.4963,
      "duration": 0.0252,
      "velocity": 84,
      "chip": "ym2612"
    },
    {
      "channel": 2,
      "note": 54,
      "start": 132.4971,
      "duration": 0.029,
      "velocity": 97,
      "chip": "ym2612"
    },
    {
      "channel": 3,
      "note": 64,
      "start": 132.4978,
      "duration": 0.029,
      "velocity": 84,
      "chip": "ym2612"
    },
    {
      "channel": 4,
      "note": 70,
      "start": 132.4985,
      "duration": 0.029,
      "velocity": 84,
      "chip": "ym2612"
    },
    {
      "channel": 0,
      "note": 63,
      "start": 132.5217,
      "duration": 0.0479,
      "velocity": 84,
      "chip": "ym2612"
    },
    {
      "channel": 1,
      "note": 78,
      "start": 132.5258,
      "duration": 3.0763,
      "velocity": 87,
      "chip": "ym2612"
    },
    {
      "channel": 2,
      "note": 59,
      "start": 132.5264,
      "duration": 0.1789,
      "velocity": 97,
      "chip": "ym2612"
    },
    {
      "channel": 3,
      "note": 63,
      "start": 132.5271,
      "duration": 0.0436,
      "velocity": 84,
      "chip": "ym2612"
    },
    {
      "channel": 4,
      "note": 68,
      "start": 132.5278,
      "duration": 0.1047,
      "velocity": 84,
      "chip": "ym2612"
    },
    {
      "channel": 0,
      "note": 64,
      "start": 132.5698,
      "duration": 0.0703,
      "velocity": 84,
      "chip": "ym2612"
    },
    {
      "channel": 3,
      "note": 59,
      "start": 132.5721,
      "duration": 0.0692,
      "velocity": 84,
      "chip": "ym2612"
    },
    {
      "channel": 4,
      "note": 66,
      "start": 132.6328,
      "duration": 0.0169,
      "velocity": 84,
      "chip": "ym2612"
    },
    {
      "channel": 0,
      "note": 66,
      "start": 132.6404,
      "duration": 0.039,
      "velocity": 84,
      "chip": "ym2612"
    },
    {
      "channel": 3,
      "note": 61,
      "start": 132.6416,
      "duration": 0.0389,
      "velocity": 84,
      "chip": "ym2612"
    },
    {
      "channel": 4,
      "note": 63,
      "start": 132.65,
      "duration": 0.0391,
      "velocity": 84,
      "chip": "ym2612"
    },
    {
      "channel": 0,
      "note": 64,
      "start": 132.6796,
      "duration": 0.0167,
      "velocity": 84,
      "chip": "ym2612"
    },
    {
      "channel": 3,
      "note": 63,
      "start": 132.6807,
      "duration": 0.0167,
      "velocity": 84,
      "chip": "ym2612"
    },
    {
      "channel": 4,
      "note": 64,
      "start": 132.6895,
      "duration": 0.0167,
      "velocity": 84,
      "chip": "ym2612"
    },
    {
      "channel": 0,
      "note": 66,
      "start": 132.6966,
      "duration": 0.0175,
      "velocity": 84,
      "chip": "ym2612"
    },
    {
      "channel": 3,
      "note": 61,
      "start": 132.6977,
      "duration": 0.0175,
      "velocity": 84,
      "chip": "ym2612"
    },
    {
      "channel": 2,
      "note": 59,
      "start": 132.7055,
      "duration": 0.0137,
      "velocity": 97,
      "chip": "ym2612"
    },
    {
      "channel": 4,
      "note": 66,
      "start": 132.7065,
      "duration": 0.0174,
      "velocity": 84,
      "chip": "ym2612"
    },
    {
      "channel": 0,
      "note": 68,
      "start": 132.7143,
      "duration": 0.0393,
      "velocity": 84,
      "chip": "ym2612"
    },
    {
      "channel": 3,
      "note": 63,
      "start": 132.7155,
      "duration": 0.0396,
      "velocity": 84,
      "chip": "ym2612"
    },
    {
      "channel": 4,
      "note": 64,
      "start": 132.7242,
      "duration": 0.0392,
      "velocity": 84,
      "chip": "ym2612"
    },
    {
      "channel": 0,
      "note": 66,
      "start": 132.7539,
      "duration": 0.017,
      "velocity": 84,
      "chip": "ym2612"
    },
    {
      "channel": 2,
      "note": 59,
      "start": 132.7547,
      "duration": 0.0125,
      "velocity": 97,
      "chip": "ym2612"
    },
    {
      "channel": 3,
      "note": 64,
      "start": 132.7554,
      "duration": 0.0166,
      "velocity": 84,
      "chip": "ym2612"
    },
    {
      "channel": 4,
      "note": 66,
      "start": 132.7638,
      "duration": 0.0169,
      "velocity": 84,
      "chip": "ym2612"
    },
    {
      "channel": 0,
      "note": 68,
      "start": 132.7711,
      "duration": 0.0163,
      "velocity": 84,
      "chip": "ym2612"
    },
    {
      "channel": 3,
      "note": 63,
      "start": 132.7723,
      "duration": 0.0163,
      "velocity": 84,
      "chip": "ym2612"
    },
    {
      "channel": 4,
      "note": 68,
      "start": 132.781,
      "duration": 0.0163,
      "velocity": 84,
      "chip": "ym2612"
    },
    {
      "channel": 0,
      "note": 70,
      "start": 132.7877,
      "duration": 0.0169,
      "velocity": 84,
      "chip": "ym2612"
    },
    {
      "channel": 3,
      "note": 64,
      "start": 132.7889,
      "duration": 0.0172,
      "velocity": 84,
      "chip": "ym2612"
    },
    {
      "channel": 4,
      "note": 66,
      "start": 132.7977,
      "duration": 0.0523,
      "velocity": 84,
      "chip": "ym2612"
    },
    {
      "channel": 0,
      "note": 68,
      "start": 132.8049,
      "duration": 0.1049,
      "velocity": 84,
      "chip": "ym2612"
    },
    {
      "channel": 2,
      "note": 58,
      "start": 132.8057,
      "duration": 0.1664,
      "velocity": 97,
      "chip": "ym2612"
    },
    {
      "channel": 3,
      "note": 66,
      "start": 132.8065,
      "duration": 0.1044,
      "velocity": 84,
      "chip": "ym2612"
    },
    {
      "channel": 4,
      "note": 68,
      "start": 132.8503,
      "duration": 0.1227,
      "velocity": 84,
      "chip": "ym2612"
    },
    {
      "channel": 0,
      "note": 70,
      "start": 132.91,
      "duration": 0.0707,
      "velocity": 84,
      "chip": "ym2612"
    },
    {
      "channel": 3,
      "note": 64,
      "start": 132.9112,
      "duration": 0.0706,
      "velocity": 84,
      "chip": "ym2612"
    },
    {
      "channel": 2,
      "note": 59,
      "start": 132.9724,
      "duration": 0.0479,
      "velocity": 97,
      "chip": "ym2612"
    },
    {
      "channel": 4,
      "note": 70,
      "start": 132.9734,
      "duration": 0.0165,
      "velocity": 84,
      "chip": "ym2612"
    },
    {
      "channel": 0,
      "note": 71,
      "start": 132.981,
      "duration": 0.0385,
      "velocity": 84,
      "chip": "ym2612"
    },
    {
      "channel": 3,
      "note": 66,
      "start": 132.9822,
      "duration": 0.0388,
      "velocity": 84,
      "chip": "ym2612"
    },
    {
      "channel": 4,
      "note": 68,
      "start": 132.9902,
      "duration": 0.0398,
      "velocity": 84,
      "chip": "ym2612"
    },
    {
      "channel": 0,
      "note": 70,
      "start": 133.0198,
      "duration": 0.0168,
      "velocity": 84,
      "chip": "ym2612"
    },
    {
      "channel": 2,
      "note": 59,
      "start": 133.0206,
      "duration": 0.4186,
      "velocity": 97,
      "chip": "ym2612"
    },
    {
      "channel": 3,
      "note": 68,
      "start": 133.0213,
      "duration": 0.0164,
      "velocity": 84,
      "chip": "ym2612"
    },
    {
      "channel": 4,
      "note": 70,
      "start": 133.0303,
      "duration": 0.0381,
      "velocity": 84,
      "chip": "ym2612"
    },
    {
      "channel": 0,
      "note": 71,
      "start": 133.0368,
      "duration": 0.0925,
      "velocity": 84,
      "chip": "ym2612"
    },
    {
      "channel": 3,
      "note": 66,
      "start": 133.039,
      "duration": 0.0915,
      "velocity": 84,
      "chip": "ym2612"
    },
    {
      "channel": 4,
      "note": 71,
      "start": 133.0688,
      "duration": 0.1241,
      "velocity": 84,
      "chip": "ym2612"
    },
    {
      "channel": 0,
      "note": 73,
      "start": 133.1296,
      "duration": 0.1235,
      "velocity": 84,
      "chip": "ym2612"
    },
    {
      "channel": 3,
      "note": 68,
      "start": 133.1308,
      "duration": 0.1234,
      "velocity": 84,
      "chip": "ym2612"
    },
    {
      "channel": 4,
      "note": 70,
      "start": 133.1932,
      "duration": 0.1228,
      "velocity": 84,
      "chip": "ym2612"
    },
    {
      "channel": 0,
      "note": 71,
      "start": 133.2533,
      "duration": 0.1235,
      "velocity": 84,
      "chip": "ym2612"
    },
    {
      "channel": 3,
      "note": 70,
      "start": 133.2545,
      "duration": 0.1234,
      "velocity": 84,
      "chip": "ym2612"
    },
    {
      "channel": 4,
      "note": 71,
      "start": 133.3163,
      "duration": 0.1238,
      "velocity": 84,
      "chip": "ym2612"
    },
    {
      "channel": 0,
      "note": 73,
      "start": 133.3771,
      "duration": 0.0709,
      "velocity": 84,
      "chip": "ym2612"
    },
    {
      "channel": 3,
      "note": 68,
      "start": 133.3783,
      "duration": 0.0709,
      "velocity": 84,
      "chip": "ym2612"
    },
    {
      "channel": 2,
      "note": 59,
      "start": 133.4395,
      "duration": 0.0138,
      "velocity": 97,
      "chip": "ym2612"
    },
    {
      "channel": 4,
      "note": 73,
      "start": 133.4404,
      "duration": 0.0176,
      "velocity": 84,
      "chip": "ym2612"
    },
    {
      "channel": 0,
      "note": 75,
      "start": 133.4482,
      "duration": 0.0383,
      "velocity": 84,
      "chip": "ym2612"
    },
    {
      "channel": 3,
      "note": 70,
      "start": 133.4494,
      "duration": 0.0396,
      "velocity": 84,
      "chip": "ym2612"
    },
    {
      "channel": 4,
      "note": 71,
      "start": 133.4583,
      "duration": 0.0388,
      "velocity": 84,
      "chip": "ym2612"
    },
    {
      "channel": 0,
      "note": 73,
      "start": 133.4878,
      "duration": 0.0166,
      "velocity": 84,
      "chip": "ym2612"
    },
    {
      "channel": 2,
      "note": 59,
      "start": 133.4886,
      "duration": 0.0504,
      "velocity": 97,
      "chip": "ym2612"
    },
    {
      "channel": 3,
      "note": 71,
      "start": 133.4893,
      "duration": 0.0161,
      "velocity": 84,
      "chip": "ym2612"
    },
    {
      "channel": 4,
      "note": 73,
      "start": 133.4974,
      "duration": 0.0167,
      "velocity": 84,
      "chip": "ym2612"
    },
    {
      "channel": 0,
      "note": 75,
      "start": 133.5046,
      "duration": 0.0164,
      "velocity": 84,
      "chip": "ym2612"
    },
    {
      "channel": 3,
      "note": 70,
      "start": 133.5058,
      "duration": 0.0163,
      "velocity": 84,
      "chip": "ym2612"
    },
    {
      "channel": 4,
      "note": 75,
      "start": 133.5144,
      "duration": 0.0165,
      "velocity": 84,
      "chip": "ym2612"
    },
    {
      "channel": 0,
      "note": 76,
      "start": 133.5213,
      "duration": 0.0169,
      "velocity": 84,
      "chip": "ym2612"
    },
    {
      "channel": 3,
      "note": 71,
      "start": 133.5225,
      "duration": 0.0172,
      "velocity": 84,
      "chip": "ym2612"
    },
    {
      "channel": 4,
      "note": 73,
      "start": 133.5312,
      "duration": 0.0525,
      "velocity": 84,
      "chip": "ym2612"
    },
    {
      "channel": 0,
      "note": 75,
      "start": 133.5384,
      "duration": 0.1051,
      "velocity": 84,
      "chip": "ym2612"
    },
    {
      "channel": 2,
      "note": 60,
      "start": 133.5393,
      "duration": 0.1666,
      "velocity": 97,
      "chip": "ym2612"
    },
    {
      "channel": 3,
      "note": 73,
      "start": 133.54,
      "duration": 0.1046,
      "velocity": 84,
      "chip": "ym2612"
    },
    {
      "channel": 4,
      "note": 75,
      "start": 133.584,
      "duration": 0.1227,
      "velocity": 84,
      "chip": "ym2612"
    },
    {
      "channel": 0,
      "note": 76,
      "start": 133.6437,
      "duration": 0.1236,
      "velocity": 84,
      "chip": "ym2612"
    },
    {
      "channel": 3,
      "note": 71,
      "start": 133.6449,
      "duration": 0.1235,
      "velocity": 84,
      "chip": "ym2612"
    },
    {
      "channel": 2,
      "note": 59,
      "start": 133.7061,
      "duration": 0.1863,
      "velocity": 97,
      "chip": "ym2612"
    },
    {
      "channel": 4,
      "note": 76,
      "start": 133.7071,
      "duration": 0.1231,
      "velocity": 84,
      "chip": "ym2612"
    },
    {
      "channel": 0,
      "note": 78,
      "start": 133.7676,
      "duration": 0.1234,
      "velocity": 84,
      "chip": "ym2612"
    },
    {
      "channel": 3,
      "note": 73,
      "start": 133.7688,
      "duration": 0.1242,
      "velocity": 84,
      "chip": "ym2612"
    },
    {
      "channel": 4,
      "note": 75,
      "start": 133.8305,
      "duration": 0.0729,
      "velocity": 84,
      "chip": "ym2612"
    },
    {
      "channel": 0,
      "note": 80,
      "start": 133.8912,
      "duration": 0.0001,
      "velocity": 84,
      "chip": "ym2612"
    },
    {
      "channel": 0,
      "note": 82,
      "start": 133.8917,
      "duration": 0.5147,
      "velocity": 84,
      "chip": "ym2612"
    },
    {
      "channel": 2,
      "note": 58,
      "start": 133.8926,
      "duration": 0.418,
      "velocity": 97,
      "chip": "ym2612"
    },
    {
      "channel": 3,
      "note": 75,
      "start": 133.8933,
      "duration": 0.0001,
      "velocity": 84,
      "chip": "ym2612"
    },
    {
      "channel": 3,
      "note": 75,
      "start": 133.8938,
      "duration": 0.5141,
      "velocity": 84,
      "chip": "ym2612"
    },
    {
      "channel": 4,
      "note": 76,
      "start": 133.9037,
      "duration": 0.0362,
      "velocity": 84,
      "chip": "ym2612"
    },
    {
      "channel": 4,
      "note": 78,
      "start": 133.9402,
      "duration": 0.0001,
      "velocity": 84,
      "chip": "ym2612"
    },
    {
      "channel": 4,
      "note": 78,
      "start": 133.9408,
      "duration": 0.6377,
      "velocity": 84,
      "chip": "ym2612"
    },
    {
      "channel": 2,
      "note": 58,
      "start": 134.3108,
      "duration": 0.0124,
      "velocity": 97,
      "chip": "ym2612"
    },
    {
      "channel": 2,
      "note": 58,
      "start": 134.3596,
      "duration": 0.0115,
      "velocity": 97,
      "chip": "ym2612"
    },
    {
      "channel": 0,
      "note": 78,
      "start": 134.4067,
      "duration": 0.1695,
      "velocity": 84,
      "chip": "ym2612"
    },
    {
      "channel": 2,
      "note": 56,
      "start": 134.4076,
      "duration": 0.1695,
      "velocity": 97,
      "chip": "ym2612"
    },
    {
      "channel": 3,
      "note": 78,
      "start": 134.4083,
      "duration": 0.1693,
      "velocity": 84,
      "chip": "ym2612"
    },
    {
      "channel": 0,
      "note": 87,
      "start": 134.5764,
      "duration": 1.0563,
      "velocity": 84,
      "chip": "ym2612"
    },
    {
      "channel": 2,
      "note": 58,
      "start": 134.5773,
      "duration": 0.185,
      "velocity": 97,
      "chip": "ym2612"
    },
    {
      "channel": 3,
      "note": 75,
      "start": 134.578,
      "duration": 1.0563,
      "velocity": 84,
      "chip": "ym2612"
    },
    {
      "channel": 4,
      "note": 82,
      "start": 134.5789,
      "duration": 0.1843,
      "velocity": 84,
      "chip": "ym2612"
    },
    {
      "channel": 2,
      "note": 58,
      "start": 134.7625,
      "duration": 0.4192,
      "velocity": 97,
      "chip": "ym2612"
    },
    {
      "channel": 4,
      "note": 78,
      "start": 134.7635,
      "duration": 0.9181,
      "velocity": 84,
      "chip": "ym2612"
    },
    {
      "channel": 2,
      "note": 58,
      "start": 135.1819,
      "duration": 0.0126,
      "velocity": 97,
      "chip": "ym2612"
    },
    {
      "channel": 2,
      "note": 58,
      "start": 135.2307,
      "duration": 0.0119,
      "velocity": 97,
      "chip": "ym2612"
    },
    {
      "channel": 2,
      "note": 58,
      "start": 135.2788,
      "duration": 0.169,
      "velocity": 97,
      "chip": "ym2612"
    },
    {
      "channel": 2,
      "note": 57,
      "start": 135.448,
      "duration": 0.1857,
      "velocity": 97,
      "chip": "ym2612"
    },
    {
      "channel": 1,
      "note": 78,
      "start": 135.6334,
      "duration": 2.8734,
      "velocity": 87,
      "chip": "ym2612"
    },
    {
      "channel": 2,
      "note": 56,
      "start": 135.6339,
      "duration": 0.4183,
      "velocity": 97,
      "chip": "ym2612"
    },
    {
      "channel": 2,
      "note": 56,
      "start": 136.0525,
      "duration": 0.0124,
      "velocity": 97,
      "chip": "ym2612"
    },
    {
      "channel": 2,
      "note": 56,
      "start": 136.1013,
      "duration": 0.0115,
      "velocity": 97,
      "chip": "ym2612"
    },
    {
      "channel": 0,
      "note": 86,
      "start": 136.1485,
      "duration": 0.0001,
      "velocity": 84,
      "chip": "ym2612"
    },
    {
      "channel": 0,
      "note": 88,
      "start": 136.1488,
      "duration": 0.8218,
      "velocity": 84,
      "chip": "ym2612"
    },
    {
      "channel": 2,
      "note": 54,
      "start": 136.1498,
      "duration": 0.1686,
      "velocity": 97,
      "chip": "ym2612"
    },
    {
      "channel": 3,
      "note": 83,
      "start": 136.1506,
      "duration": 0.8226,
      "velocity": 84,
      "chip": "ym2612"
    },
    {
      "channel": 2,
      "note": 56,
      "start": 136.3187,
      "duration": 0.1854,
      "velocity": 97,
      "chip": "ym2612"
    },
    {
      "channel": 4,
      "note": 87,
      "start": 136.3197,
      "duration": 0.0001,
      "velocity": 84,
      "chip": "ym2612"
    },
    {
      "channel": 4,
      "note": 87,
      "start": 136.3202,
      "duration": 0.6773,
      "velocity": 84,
      "chip": "ym2612"
    },
    {
      "channel": 2,
      "note": 56,
      "start": 136.5043,
      "duration": 0.4192,
      "velocity": 97,
      "chip": "ym2612"
    },
    {
      "channel": 2,
      "note": 56,
      "start": 136.9237,
      "duration": 0.0128,
      "velocity": 97,
      "chip": "ym2612"
    },
    {
      "channel": 0,
      "note": 87,
      "start": 136.9709,
      "duration": 0.0491,
      "velocity": 84,
      "chip": "ym2612"
    },
    {
      "channel": 2,
      "note": 56,
      "start": 136.9728,
      "duration": 0.012,
      "velocity": 97,
      "chip": "ym2612"
    },
    {
      "channel": 3,
      "note": 83,
      "start": 136.9735,
      "duration": 0.048,
      "velocity": 84,
      "chip": "ym2612"
    },
    {
      "channel": 4,
      "note": 88,
      "start": 136.9979,
      "duration": 0.1927,
      "velocity": 84,
      "chip": "ym2612"
    },
    {
      "channel": 0,
      "note": 88,
      "start": 137.0203,
      "duration": 0.3544,
      "velocity": 84,
      "chip": "ym2612"
    },
    {
      "channel": 2,
      "note": 56,
      "start": 137.0211,
      "duration": 0.1685,
      "velocity": 97,
      "chip": "ym2612"
    },
    {
      "channel": 3,
      "note": 83,
      "start": 137.0218,
      "duration": 0.3543,
      "velocity": 84,
      "chip": "ym2612"
    },
    {
      "channel": 2,
      "note": 52,
      "start": 137.1899,
      "duration": 0.1856,
      "velocity": 97,
      "chip": "ym2612"
    },
    {
      "channel": 4,
      "note": 87,
      "start": 137.1908,
      "duration": 0.2329,
      "velocity": 84,
      "chip": "ym2612"
    },
    {
      "channel": 0,
      "note": 87,
      "start": 137.3749,
      "duration": 0.5158,
      "velocity": 84,
      "chip": "ym2612"
    },
    {
      "channel": 2,
      "note": 54,
      "start": 137.3758,
      "duration": 0.4188,
      "velocity": 97,
      "chip": "ym2612"
    },
    {
      "channel": 3,
      "note": 85,
      "start": 137.3764,
      "duration": 0.5161,
      "velocity": 84,
      "chip": "ym2612"
    },
    {
      "channel": 4,
      "note": 88,
      "start": 137.4241,
      "duration": 0.5161,
      "velocity": 84,
      "chip": "ym2612"
    },
    {
      "channel": 2,
      "note": 54,
      "start": 137.7948,
      "duration": 0.0121,
      "velocity": 97,
      "chip": "ym2612"
    },
    {
      "channel": 2,
      "note": 54,
      "start": 137.8422,
      "duration": 0.0125,
      "velocity": 97,
      "chip": "ym2612"
    },
    {
      "channel": 0,
      "note": 90,
      "start": 137.8911,
      "duration": 0.6154,
      "velocity": 84,
      "chip": "ym2612"
    },
    {
      "channel": 2,
      "note": 52,
      "start": 137.8921,
      "duration": 0.0472,
      "velocity": 97,
      "chip": "ym2612"
    },
    {
      "channel": 3,
      "note": 83,
      "start": 137.8929,
      "duration": 0.161,
      "velocity": 84,
      "chip": "ym2612"
    },
    {
      "channel": 2,
      "note": 54,
      "start": 137.9395,
      "duration": 0.0247,
      "velocity": 97,
      "chip": "ym2612"
    },
    {
      "channel": 4,
      "note": 87,
      "start": 137.9407,
      "duration": 0.3204,
      "velocity": 84,
      "chip": "ym2612"
    },
    {
      "channel": 2,
      "note": 54,
      "start": 137.9645,
      "duration": 0.0981,
      "velocity": 97,
      "chip": "ym2612"
    },
    {
      "channel": 3,
      "note": 87,
      "start": 138.0542,
      "duration": 0.0317,
      "velocity": 84,
      "chip": "ym2612"
    },
    {
      "channel": 2,
      "note": 54,
      "start": 138.0629,
      "duration": 0.0134,
      "velocity": 97,
      "chip": "ym2612"
    },
    {
      "channel": 2,
      "note": 54,
      "start": 138.1066,
      "duration": 0.0921,
      "velocity": 97,
      "chip": "ym2612"
    },
    {
      "channel": 3,
      "note": 80,
      "start": 138.1083,
      "duration": 0.399,
      "velocity": 84,
      "chip": "ym2612"
    },
    {
      "channel": 4,
      "note": 83,
      "start": 138.2929,
      "duration": 0.242,
      "velocity": 84,
      "chip": "ym2612"
    },
    {
      "channel": 2,
      "note": 54,
      "start": 138.3164,
      "duration": 0.1699,
      "velocity": 97,
      "chip": "ym2612"
    },
    {
      "channel": 2,
      "note": 53,
      "start": 138.4866,
      "duration": 0.0275,
      "velocity": 97,
      "chip": "ym2612"
    },
    {
      "channel": 0,
      "note": 76,
      "start": 138.5131,
      "duration": 0.2382,
      "velocity": 84,
      "chip": "ym2612"
    },
    {
      "channel": 1,
      "note": 80,
      "start": 138.5137,
      "duration": 1.4342,
      "velocity": 87,
      "chip": "ym2612"
    },
    {
      "channel": 2,
      "note": 52,
      "start": 138.5142,
      "duration": 0.1424,
      "velocity": 97,
      "chip": "ym2612"
    },
    {
      "channel": 3,
      "note": 68,
      "start": 138.515,
      "duration": 0.2374,
      "velocity": 84,
      "chip": "ym2612"
    },
    {
      "channel": 4,
      "note": 71,
      "start": 138.562,
      "duration": 0.3304,
      "velocity": 84,
      "chip": "ym2612"
    },
    {
      "channel": 2,
      "note": 52,
      "start": 138.6569,
      "duration": 0.0122,
      "velocity": 97,
      "chip": "ym2612"
    },
    {
      "channel": 2,
      "note": 52,
      "start": 138.7045,
      "duration": 0.0126,
      "velocity": 97,
      "chip": "ym2612"
    },
    {
      "channel": 0,
      "note": 64,
      "start": 138.7562,
      "duration": 0.8183,
      "velocity": 84,
      "chip": "ym2612"
    },
    {
      "channel": 2,
      "note": 51,
      "start": 138.7571,
      "duration": 0.1656,
      "velocity": 97,
      "chip": "ym2612"
    },
    {
      "channel": 3,
      "note": 67,
      "start": 138.7578,
      "duration": 0.7912,
      "velocity": 84,
      "chip": "ym2612"
    },
    {
      "channel": 2,
      "note": 52,
      "start": 138.9229,
      "duration": 0.1854,
      "velocity": 97,
      "chip": "ym2612"
    },
    {
      "channel": 4,
      "note": 70,
      "start": 138.924,
      "duration": 0.6772,
      "velocity": 84,
      "chip": "ym2612"
    },
    {
      "channel": 2,
      "note": 52,
      "start": 139.1085,
      "duration": 0.4191,
      "velocity": 97,
      "chip": "ym2612"
    },
    {
      "channel": 2,
      "note": 52,
      "start": 139.5279,
      "duration": 0.0126,
      "velocity": 97,
      "chip": "ym2612"
    },
    {
      "channel": 0,
      "note": 66,
      "start": 139.5748,
      "duration": 0.049,
      "velocity": 84,
      "chip": "ym2612"
    },
    {
      "channel": 2,
      "note": 52,
      "start": 139.5756,
      "duration": 0.013,
      "velocity": 97,
      "chip": "ym2612"
    },
    {
      "channel": 3,
      "note": 59,
      "start": 139.5774,
      "duration": 0.0478,
      "velocity": 84,
      "chip": "ym2612"
    },
    {
      "channel": 4,
      "note": 64,
      "start": 139.6016,
      "duration": 0.1928,
      "velocity": 84,
      "chip": "ym2612"
    },
    {
      "channel": 0,
      "note": 68,
      "start": 139.624,
      "duration": 0.3546,
      "velocity": 84,
      "chip": "ym2612"
    },
    {
      "channel": 2,
      "note": 52,
      "start": 139.6248,
      "duration": 0.1686,
      "velocity": 97,
      "chip": "ym2612"
    },
    {
      "channel": 3,
      "note": 63,
      "start": 139.6255,
      "duration": 0.3548,
      "velocity": 84,
      "chip": "ym2612"
    },
    {
      "channel": 2,
      "note": 56,
      "start": 139.7937,
      "duration": 0.186,
      "velocity": 97,
      "chip": "ym2612"
    },
    {
      "channel": 4,
      "note": 66,
      "start": 139.7947,
      "duration": 0.2327,
      "velocity": 84,
      "chip": "ym2612"
    },
    {
      "channel": 0,
      "note": 70,
      "start": 139.9788,
      "duration": 1.7415,
      "velocity": 84,
      "chip": "ym2612"
    },
    {
      "channel": 1,
      "note": 82,
      "start": 139.9794,
      "duration": 1.7103,
      "velocity": 87,
      "chip": "ym2612"
    },
    {
      "channel": 2,
      "note": 51,
      "start": 139.9799,
      "duration": 0.4182,
      "velocity": 97,
      "chip": "ym2612"
    },
    {
      "channel": 3,
      "note": 64,
      "start": 139.9806,
      "duration": 1.7413,
      "velocity": 84,
      "chip": "ym2612"
    },
    {
      "channel": 4,
      "note": 68,
      "start": 140.0277,
      "duration": 1.7437,
      "velocity": 84,
      "chip": "ym2612"
    },
    {
      "channel": 2,
      "note": 51,
      "start": 140.3984,
      "duration": 0.0122,
      "velocity": 97,
      "chip": "ym2612"
    },
    {
      "channel": 2,
      "note": 51,
      "start": 140.4459,
      "duration": 0.0125,
      "velocity": 97,
      "chip": "ym2612"
    },
    {
      "channel": 2,
      "note": 63,
      "start": 140.4947,
      "duration": 0.1695,
      "velocity": 97,
      "chip": "ym2612"
    },
    {
      "channel": 2,
      "note": 51,
      "start": 140.6645,
      "duration": 0.1854,
      "velocity": 97,
      "chip": "ym2612"
    },
    {
      "channel": 2,
      "note": 51,
      "start": 140.8501,
      "duration": 0.419,
      "velocity": 97,
      "chip": "ym2612"
    },
    {
      "channel": 2,
      "note": 51,
      "start": 141.2694,
      "duration": 0.0127,
      "velocity": 97,
      "chip": "ym2612"
    },
    {
      "channel": 2,
      "note": 51,
      "start": 141.3168,
      "duration": 0.0129,
      "velocity": 97,
      "chip": "ym2612"
    },
    {
      "channel": 2,
      "note": 50,
      "start": 141.3662,
      "duration": 0.169,
      "velocity": 97,
      "chip": "ym2612"
    },
    {
      "channel": 2,
      "note": 51,
      "start": 141.5355,
      "duration": 0.1858,
      "velocity": 97,
      "chip": "ym2612"
    },
    {
      "channel": 1,
      "note": 80,
      "start": 141.721,
      "duration": 1.309,
      "velocity": 87,
      "chip": "ym2612"
    },
    {
      "channel": 2,
      "note": 52,
      "start": 141.7215,
      "duration": 0.419,
      "velocity": 97,
      "chip": "ym2612"
    },
    {
      "channel": 0,
      "note": 93,
      "start": 141.7687,
      "duration": 0.0001,
      "velocity": 84,
      "chip": "ym2612"
    },
    {
      "channel": 0,
      "note": 95,
      "start": 141.7691,
      "duration": 0.3706,
      "velocity": 84,
      "chip": "ym2612"
    },
    {
      "channel": 3,
      "note": 66,
      "start": 141.7704,
      "duration": 0.0001,
      "velocity": 84,
      "chip": "ym2612"
    },
    {
      "channel": 3,
      "note": 66,
      "start": 141.7709,
      "duration": 0.3703,
      "velocity": 84,
      "chip": "ym2612"
    },
    {
      "channel": 4,
      "note": 70,
      "start": 141.9554,
      "duration": 0.0001,
      "velocity": 84,
      "chip": "ym2612"
    },
    {
      "channel": 4,
      "note": 70,
      "start": 141.9559,
      "duration": 0.2337,
      "velocity": 84,
      "chip": "ym2612"
    },
    {
      "channel": 0,
      "note": 88,
      "start": 142.14,
      "duration": 0.0475,
      "velocity": 84,
      "chip": "ym2612"
    },
    {
      "channel": 2,
      "note": 52,
      "start": 142.1408,
      "duration": 0.0126,
      "velocity": 97,
      "chip": "ym2612"
    },
    {
      "channel": 3,
      "note": 92,
      "start": 142.1416,
      "duration": 0.0473,
      "velocity": 84,
      "chip": "ym2612"
    },
    {
      "channel": 0,
      "note": 95,
      "start": 142.1877,
      "duration": 0.0252,
      "velocity": 84,
      "chip": "ym2612"
    },
    {
      "channel": 2,
      "note": 52,
      "start": 142.1885,
      "duration": 0.0134,
      "velocity": 97,
      "chip": "ym2612"
    },
    {
      "channel": 3,
      "note": 85,
      "start": 142.1892,
      "duration": 0.021,
      "velocity": 84,
      "chip": "ym2612"
    },
    {
      "channel": 4,
      "note": 95,
      "start": 142.1911,
      "duration": 0.0241,
      "velocity": 84,
      "chip": "ym2612"
    },
    {
      "channel": 4,
      "note": 88,
      "start": 142.2155,
      "duration": 0.0239,
      "velocity": 84,
      "chip": "ym2612"
    },
    {
      "channel": 0,
      "note": 88,
      "start": 142.2375,
      "duration": 0.1683,
      "velocity": 84,
      "chip": "ym2612"
    },
    {
      "channel": 2,
      "note": 51,
      "start": 142.2383,
      "duration": 0.1683,
      "velocity": 97,
      "chip": "ym2612"
    },
    {
      "channel": 3,
      "note": 92,
      "start": 142.239,
      "duration": 0.1683,
      "velocity": 84,
      "chip": "ym2612"
    },
    {
      "channel": 0,
      "note": 95,
      "start": 142.406,
      "duration": 0.6546,
      "velocity": 84,
      "chip": "ym2612"
    },
    {
      "channel": 2,
      "note": 52,
      "start": 142.4069,
      "duration": 0.0425,
      "velocity": 97,
      "chip": "ym2612"
    },
    {
      "channel": 3,
      "note": 85,
      "start": 142.4076,
      "duration": 0.6547,
      "velocity": 84,
      "chip": "ym2612"
    },
    {
      "channel": 4,
      "note": 95,
      "start": 142.4084,
      "duration": 0.042,
      "velocity": 84,
      "chip": "ym2612"
    },
    {
      "channel": 2,
      "note": 52,
      "start": 142.4497,
      "duration": 0.2537,
      "velocity": 97,
      "chip": "ym2612"
    },
    {
      "channel": 4,
      "note": 88,
      "start": 142.4506,
      "duration": 0.6379,
      "velocity": 84,
      "chip": "ym2612"
    },
    {
      "channel": 2,
      "note": 52,
      "start": 142.7036,
      "duration": 0.0124,
      "velocity": 97,
      "chip": "ym2612"
    },
    {
      "channel": 2,
      "note": 52,
      "start": 142.728,
      "duration": 0.0778,
      "velocity": 97,
      "chip": "ym2612"
    },
    {
      "channel": 2,
      "note": 52,
      "start": 142.9256,
      "duration": 0.0246,
      "velocity": 97,
      "chip": "ym2612"
    },
    {
      "channel": 2,
      "note": 53,
      "start": 142.9504,
      "duration": 0.1113,
      "velocity": 97,
      "chip": "ym2612"
    },
    {
      "channel": 0,
      "note": 92,
      "start": 143.0608,
      "duration": 0.0175,
      "velocity": 84,
      "chip": "ym2612"
    },
    {
      "channel": 1,
      "note": 82,
      "start": 143.0614,
      "duration": 0.4982,
      "velocity": 87,
      "chip": "ym2612"
    },
    {
      "channel": 2,
      "note": 54,
      "start": 143.062,
      "duration": 0.1012,
      "velocity": 97,
      "chip": "ym2612"
    },
    {
      "channel": 3,
      "note": 92,
      "start": 143.0627,
      "duration": 0.0168,
      "velocity": 84,
      "chip": "ym2612"
    },
    {
      "channel": 0,
      "note": 94,
      "start": 143.0786,
      "duration": 0.0177,
      "velocity": 84,
      "chip": "ym2612"
    },
    {
      "channel": 3,
      "note": 88,
      "start": 143.0797,
      "duration": 0.0176,
      "velocity": 84,
      "chip": "ym2612"
    },
    {
      "channel": 4,
      "note": 95,
      "start": 143.0888,
      "duration": 0.0163,
      "velocity": 84,
      "chip": "ym2612"
    },
    {
      "channel": 0,
      "note": 97,
      "start": 143.0965,
      "duration": 0.0176,
      "velocity": 84,
      "chip": "ym2612"
    },
    {
      "channel": 3,
      "note": 90,
      "start": 143.0977,
      "duration": 0.0176,
      "velocity": 84,
      "chip": "ym2612"
    },
    {
      "channel": 4,
      "note": 92,
      "start": 143.1055,
      "duration": 0.0187,
      "velocity": 84,
      "chip": "ym2612"
    },
    {
      "channel": 0,
      "note": 92,
      "start": 143.1144,
      "duration": 0.0131,
      "velocity": 84,
      "chip": "ym2612"
    },
    {
      "channel": 3,
      "note": 94,
      "start": 143.1156,
      "duration": 0.013,
      "velocity": 84,
      "chip": "ym2612"
    },
    {
      "channel": 4,
      "note": 94,
      "start": 143.1245,
      "duration": 0.04,
      "velocity": 84,
      "chip": "ym2612"
    },
    {
      "channel": 0,
      "note": 94,
      "start": 143.1277,
      "duration": 0.0346,
      "velocity": 84,
      "chip": "ym2612"
    },
    {
      "channel": 3,
      "note": 88,
      "start": 143.1289,
      "duration": 0.0349,
      "velocity": 84,
      "chip": "ym2612"
    },
    {
      "channel": 0,
      "note": 97,
      "start": 143.1626,
      "duration": 0.0138,
      "velocity": 84,
      "chip": "ym2612"
    },
    {
      "channel": 2,
      "note": 54,
      "start": 143.1634,
      "duration": 0.0139,
      "velocity": 97,
      "chip": "ym2612"
    },
    {
      "channel": 3,
      "note": 90,
      "start": 143.1641,
      "duration": 0.0136,
      "velocity": 84,
      "chip": "ym2612"
    },
    {
      "channel": 4,
      "note": 97,
      "start": 143.1648,
      "duration": 0.0137,
      "velocity": 84,
      "chip": "ym2612"
    },
    {
      "channel": 0,
      "note": 92,
      "start": 143.1766,
      "duration": 0.0125,
      "velocity": 84,
      "chip": "ym2612"
    },
    {
      "channel": 3,
      "note": 94,
      "start": 143.178,
      "duration": 0.0126,
      "velocity": 84,
      "chip": "ym2612"
    },
    {
      "channel": 4,
      "note": 92,
      "start": 143.1788,
      "duration": 0.0125,
      "velocity": 84,
      "chip": "ym2612"
    },
    {
      "channel": 0,
      "note": 94,
      "start": 143.1894,
      "duration": 0.0137,
      "velocity": 84,
      "chip": "ym2612"
    },
    {
      "channel": 2,
      "note": 54,
      "start": 143.1902,
      "duration": 0.1056,
      "velocity": 97,
      "chip": "ym2612"
    },
    {
      "channel": 3,
      "note": 88,
      "start": 143.1909,
      "duration": 0.0133,
      "velocity": 84,
      "chip": "ym2612"
    },
    {
      "channel": 4,
      "note": 94,
      "start": 143.1917,
      "duration": 0.0133,
      "velocity": 84,
      "chip": "ym2612"
    },
    {
      "channel": 0,
      "note": 97,
      "start": 143.2034,
      "duration": 0.0122,
      "velocity": 84,
      "chip": "ym2612"
    },
    {
      "channel": 3,
      "note": 90,
      "start": 143.2046,
      "duration": 0.0132,
      "velocity": 84,
      "chip": "ym2612"
    },
    {
      "channel": 4,
      "note": 97,
      "start": 143.2053,
      "duration": 0.0132,
      "velocity": 84,
      "chip": "ym2612"
    },
    {
      "channel": 0,
      "note": 92,
      "start": 143.2158,
      "duration": 0.0131,
      "velocity": 84,
      "chip": "ym2612"
    },
    {
      "channel": 3,
      "note": 94,
      "start": 143.2181,
      "duration": 0.0119,
      "velocity": 84,
      "chip": "ym2612"
    },
    {
      "channel": 4,
      "note": 92,
      "start": 143.2188,
      "duration": 0.012,
      "velocity": 84,
      "chip": "ym2612"
    },
    {
      "channel": 0,
      "note": 94,
      "start": 143.2291,
      "duration": 0.0128,
      "velocity": 84,
      "chip": "ym2612"
    },
    {
      "channel": 3,
      "note": 88,
      "start": 143.2303,
      "duration": 0.0127,
      "velocity": 84,
      "chip": "ym2612"
    },
    {
      "channel": 4,
      "note": 94,
      "start": 143.2311,
      "duration": 0.0127,
      "velocity": 84,
      "chip": "ym2612"
    },
    {
      "channel": 0,
      "note": 97,
      "start": 143.2422,
      "duration": 0.0129,
      "velocity": 84,
      "chip": "ym2612"
    },
    {
      "channel": 3,
      "note": 90,
      "start": 143.2434,
      "duration": 0.0129,
      "velocity": 84,
      "chip": "ym2612"
    },
    {
      "channel": 4,
      "note": 97,
      "start": 143.2441,
      "duration": 0.0129,
      "velocity": 84,
      "chip": "ym2612"
    },
    {
      "channel": 0,
      "note": 92,
      "start": 143.2553,
      "duration": 0.0131,
      "velocity": 84,
      "chip": "ym2612"
    },
    {
      "channel": 3,
      "note": 94,
      "start": 143.2566,
      "duration": 0.013,
      "velocity": 84,
      "chip": "ym2612"
    },
    {
      "channel": 4,
      "note": 92,
      "start": 143.2573,
      "duration": 0.013,
      "velocity": 84,
      "chip": "ym2612"
    },
    {
      "channel": 0,
      "note": 94,
      "start": 143.2687,
      "duration": 0.0129,
      "velocity": 84,
      "chip": "ym2612"
    },
    {
      "channel": 3,
      "note": 88,
      "start": 143.2699,
      "duration": 0.0128,
      "velocity": 84,
      "chip": "ym2612"
    },
    {
      "channel": 4,
      "note": 94,
      "start": 143.2707,
      "duration": 0.0128,
      "velocity": 84,
      "chip": "ym2612"
    },
    {
      "channel": 0,
      "note": 97,
      "start": 143.2818,
      "duration": 0.0132,
      "velocity": 84,
      "chip": "ym2612"
    },
    {
      "channel": 3,
      "note": 90,
      "start": 143.283,
      "duration": 0.0135,
      "velocity": 84,
      "chip": "ym2612"
    },
    {
      "channel": 4,
      "note": 97,
      "start": 143.2838,
      "duration": 0.0135,
      "velocity": 84,
      "chip": "ym2612"
    },
    {
      "channel": 0,
      "note": 102,
      "start": 143.2953,
      "duration": 0.2693,
      "velocity": 84,
      "chip": "ym2612"
    },
    {
      "channel": 2,
      "note": 54,
      "start": 143.2961,
      "duration": 0.0471,
      "velocity": 97,
      "chip": "ym2612"
    },
    {
      "channel": 3,
      "note": 94,
      "start": 143.2968,
      "duration": 0.2715,
      "velocity": 84,
      "chip": "ym2612"
    },
    {
      "channel": 4,
      "note": 92,
      "start": 143.2976,
      "duration": 0.0116,
      "velocity": 84,
      "chip": "ym2612"
    },
    {
      "channel": 4,
      "note": 94,
      "start": 143.3095,
      "duration": 0.0346,
      "velocity": 84,
      "chip": "ym2612"
    },
    {
      "channel": 2,
      "note": 66,
      "start": 143.3434,
      "duration": 0.0256,
      "velocity": 97,
      "chip": "ym2612"
    },
    {
      "channel": 4,
      "note": 97,
      "start": 143.3444,
      "duration": 0.2693,
      "velocity": 84,
      "chip": "ym2612"
    },
    {
      "channel": 2,
      "note": 61,
      "start": 143.3693,
      "duration": 0.0234,
      "velocity": 97,
      "chip": "ym2612"
    },
    {
      "channel": 2,
      "note": 58,
      "start": 143.3929,
      "duration": 0.0475,
      "velocity": 97,
      "chip": "ym2612"
    },
    {
      "channel": 2,
      "note": 61,
      "start": 143.4407,
      "duration": 0.0254,
      "velocity": 97,
      "chip": "ym2612"
    },
    {
      "channel": 2,
      "note": 58,
      "start": 143.4663,
      "duration": 0.0476,
      "velocity": 97,
      "chip": "ym2612"
    },
    {
      "channel": 2,
      "note": 56,
      "start": 143.5142,
      "duration": 0.0253,
      "velocity": 97,
      "chip": "ym2612"
    },
    {
      "channel": 2,
      "note": 54,
      "start": 143.5397,
      "duration": 0.028,
      "velocity": 97,
      "chip": "ym2612"
    },
    {
      "channel": 0,
      "note": 83,
      "start": 143.5648,
      "duration": 1.1124,
      "velocity": 84,
      "chip": "ym2612"
    },
    {
      "channel": 1,
      "note": 78,
      "start": 143.5674,
      "duration": 2.9007,
      "velocity": 100,
      "chip": "ym2612"
    },
    {
      "channel": 2,
      "note": 59,
      "start": 143.568,
      "duration": 0.0449,
      "velocity": 97,
      "chip": "ym2612"
    },
    {
      "channel": 3,
      "note": 85,
      "start": 143.5687,
      "duration": 1.1097,
      "velocity": 84,
      "chip": "ym2612"
    },
    {
      "channel": 2,
      "note": 59,
      "start": 143.6131,
      "duration": 0.0164,
      "velocity": 97,
      "chip": "ym2612"
    },
    {
      "channel": 4,
      "note": 102,
      "start": 143.6141,
      "duration": 1.2336,
      "velocity": 84,
      "chip": "ym2612"
    },
    {
      "channel": 2,
      "note": 59,
      "start": 143.8468,
      "duration": 0.0476,
      "velocity": 97,
      "chip": "ym2612"
    },
    {
      "channel": 2,
      "note": 59,
      "start": 143.8946,
      "duration": 0.2181,
      "velocity": 97,
      "chip": "ym2612"
    },
    {
      "channel": 2,
      "note": 59,
      "start": 144.113,
      "duration": 0.0164,
      "velocity": 97,
      "chip": "ym2612"
    },
    {
      "channel": 2,
      "note": 59,
      "start": 144.3466,
      "duration": 0.0479,
      "velocity": 97,
      "chip": "ym2612"
    },
    {
      "channel": 2,
      "note": 59,
      "start": 144.3947,
      "duration": 0.0172,
      "velocity": 97,
      "chip": "ym2612"
    },
    {
      "channel": 2,
      "note": 59,
      "start": 144.6281,
      "duration": 0.4042,
      "velocity": 97,
      "chip": "ym2612"
    },
    {
      "channel": 0,
      "note": 82,
      "start": 144.6775,
      "duration": 0.1683,
      "velocity": 84,
      "chip": "ym2612"
    },
    {
      "channel": 3,
      "note": 80,
      "start": 144.6787,
      "duration": 0.1683,
      "velocity": 84,
      "chip": "ym2612"
    },
    {
      "channel": 0,
      "note": 83,
      "start": 144.8461,
      "duration": 0.1854,
      "velocity": 84,
      "chip": "ym2612"
    },
    {
      "channel": 3,
      "note": 78,
      "start": 144.8473,
      "duration": 0.1857,
      "velocity": 84,
      "chip": "ym2612"
    },
    {
      "channel": 4,
      "note": 83,
      "start": 144.848,
      "duration": 0.1857,
      "velocity": 84,
      "chip": "ym2612"
    },
    {
      "channel": 0,
      "note": 82,
      "start": 145.0317,
      "duration": 0.5959,
      "velocity": 84,
      "chip": "ym2612"
    },
    {
      "channel": 2,
      "note": 58,
      "start": 145.0326,
      "duration": 0.0477,
      "velocity": 97,
      "chip": "ym2612"
    },
    {
      "channel": 3,
      "note": 80,
      "start": 145.0333,
      "duration": 0.5955,
      "velocity": 84,
      "chip": "ym2612"
    },
    {
      "channel": 4,
      "note": 82,
      "start": 145.0341,
      "duration": 0.0472,
      "velocity": 84,
      "chip": "ym2612"
    },
    {
      "channel": 2,
      "note": 58,
      "start": 145.0805,
      "duration": 0.016,
      "velocity": 97,
      "chip": "ym2612"
    },
    {
      "channel": 4,
      "note": 83,
      "start": 145.0815,
      "duration": 0.7331,
      "velocity": 84,
      "chip": "ym2612"
    },
    {
      "channel": 2,
      "note": 58,
      "start": 145.3142,
      "duration": 0.0475,
      "velocity": 97,
      "chip": "ym2612"
    },
    {
      "channel": 2,
      "note": 58,
      "start": 145.362,
      "duration": 0.2182,
      "velocity": 97,
      "chip": "ym2612"
    },
    {
      "channel": 2,
      "note": 58,
      "start": 145.5805,
      "duration": 0.0162,
      "velocity": 97,
      "chip": "ym2612"
    },
    {
      "channel": 0,
      "note": 87,
      "start": 145.6279,
      "duration": 0.8708,
      "velocity": 84,
      "chip": "ym2612"
    },
    {
      "channel": 3,
      "note": 78,
      "start": 145.6291,
      "duration": 0.8714,
      "velocity": 84,
      "chip": "ym2612"
    },
    {
      "channel": 2,
      "note": 58,
      "start": 145.814,
      "duration": 0.0478,
      "velocity": 97,
      "chip": "ym2612"
    },
    {
      "channel": 4,
      "note": 82,
      "start": 145.815,
      "duration": 0.7338,
      "velocity": 84,
      "chip": "ym2612"
    },
    {
      "channel": 2,
      "note": 58,
      "start": 145.8621,
      "duration": 0.0154,
      "velocity": 97,
      "chip": "ym2612"
    },
    {
      "channel": 2,
      "note": 58,
      "start": 146.0955,
      "duration": 0.4044,
      "velocity": 97,
      "chip": "ym2612"
    },
    {
      "channel": 0,
      "note": 90,
      "start": 146.499,
      "duration": 0.0477,
      "velocity": 84,
      "chip": "ym2612"
    },
    {
      "channel": 1,
      "note": 78,
      "start": 146.4995,
      "duration": 2.9028,
      "velocity": 100,
      "chip": "ym2612"
    },
    {
      "channel": 2,
      "note": 56,
      "start": 146.5001,
      "duration": 0.0473,
      "velocity": 97,
      "chip": "ym2612"
    },
    {
      "channel": 3,
      "note": 83,
      "start": 146.5008,
      "duration": 0.0472,
      "velocity": 84,
      "chip": "ym2612"
    },
    {
      "channel": 0,
      "note": 88,
      "start": 146.5469,
      "duration": 0.0475,
      "velocity": 84,
      "chip": "ym2612"
    },
    {
      "channel": 2,
      "note": 56,
      "start": 146.5477,
      "duration": 0.0168,
      "velocity": 97,
      "chip": "ym2612"
    },
    {
      "channel": 3,
      "note": 87,
      "start": 146.5484,
      "duration": 0.0471,
      "velocity": 84,
      "chip": "ym2612"
    },
    {
      "channel": 4,
      "note": 87,
      "start": 146.5491,
      "duration": 0.0471,
      "velocity": 84,
      "chip": "ym2612"
    },
    {
      "channel": 0,
      "note": 87,
      "start": 146.5946,
      "duration": 0.1854,
      "velocity": 84,
      "chip": "ym2612"
    },
    {
      "channel": 3,
      "note": 85,
      "start": 146.5958,
      "duration": 0.1856,
      "velocity": 84,
      "chip": "ym2612"
    },
    {
      "channel": 4,
      "note": 90,
      "start": 146.5966,
      "duration": 0.1856,
      "velocity": 84,
      "chip": "ym2612"
    },
    {
      "channel": 0,
      "note": 83,
      "start": 146.7803,
      "duration": 1.1851,
      "velocity": 84,
      "chip": "ym2612"
    },
    {
      "channel": 2,
      "note": 56,
      "start": 146.7811,
      "duration": 0.0472,
      "velocity": 97,
      "chip": "ym2612"
    },
    {
      "channel": 3,
      "note": 83,
      "start": 146.7818,
      "duration": 1.1851,
      "velocity": 84,
      "chip": "ym2612"
    },
    {
      "channel": 4,
      "note": 88,
      "start": 146.7825,
      "duration": 0.0467,
      "velocity": 84,
      "chip": "ym2612"
    },
    {
      "channel": 2,
      "note": 56,
      "start": 146.8286,
      "duration": 0.2181,
      "velocity": 97,
      "chip": "ym2612"
    },
    {
      "channel": 4,
      "note": 87,
      "start": 146.8296,
      "duration": 1.1861,
      "velocity": 84,
      "chip": "ym2612"
    },
    {
      "channel": 2,
      "note": 56,
      "start": 147.0469,
      "duration": 0.0164,
      "velocity": 97,
      "chip": "ym2612"
    },
    {
      "channel": 2,
      "note": 56,
      "start": 147.2809,
      "duration": 0.0476,
      "velocity": 97,
      "chip": "ym2612"
    },
    {
      "channel": 2,
      "note": 56,
      "start": 147.3287,
      "duration": 0.0161,
      "velocity": 97,
      "chip": "ym2612"
    },
    {
      "channel": 2,
      "note": 56,
      "start": 147.5621,
      "duration": 0.4041,
      "velocity": 97,
      "chip": "ym2612"
    },
    {
      "channel": 0,
      "note": 90,
      "start": 147.9656,
      "duration": 0.0478,
      "velocity": 84,
      "chip": "ym2612"
    },
    {
      "channel": 2,
      "note": 54,
      "start": 147.9665,
      "duration": 0.0478,
      "velocity": 97,
      "chip": "ym2612"
    },
    {
      "channel": 3,
      "note": 80,
      "start": 147.9672,
      "duration": 0.0477,
      "velocity": 84,
      "chip": "ym2612"
    },
    {
      "channel": 0,
      "note": 88,
      "start": 148.0137,
      "duration": 0.0478,
      "velocity": 84,
      "chip": "ym2612"
    },
    {
      "channel": 2,
      "note": 54,
      "start": 148.0145,
      "duration": 0.0164,
      "velocity": 97,
      "chip": "ym2612"
    },
    {
      "channel": 3,
      "note": 83,
      "start": 148.0152,
      "duration": 0.0474,
      "velocity": 84,
      "chip": "ym2612"
    },
    {
      "channel": 4,
      "note": 83,
      "start": 148.0159,
      "duration": 0.0474,
      "velocity": 84,
      "chip": "ym2612"
    },
    {
      "channel": 0,
      "note": 87,
      "start": 148.0617,
      "duration": 0.1854,
      "velocity": 84,
      "chip": "ym2612"
    },
    {
      "channel": 3,
      "note": 82,
      "start": 148.0629,
      "duration": 0.1856,
      "velocity": 84,
      "chip": "ym2612"
    },
    {
      "channel": 4,
      "note": 90,
      "start": 148.0637,
      "duration": 0.1857,
      "velocity": 84,
      "chip": "ym2612"
    },
    {
      "channel": 0,
      "note": 83,
      "start": 148.2474,
      "duration": 0.8057,
      "velocity": 84,
      "chip": "ym2612"
    },
    {
      "channel": 2,
      "note": 54,
      "start": 148.2482,
      "duration": 0.0471,
      "velocity": 97,
      "chip": "ym2612"
    },
    {
      "channel": 3,
      "note": 78,
      "start": 148.2489,
      "duration": 0.8053,
      "velocity": 84,
      "chip": "ym2612"
    },
    {
      "channel": 4,
      "note": 88,
      "start": 148.2497,
      "duration": 0.0466,
      "velocity": 84,
      "chip": "ym2612"
    },
    {
      "channel": 2,
      "note": 54,
      "start": 148.2956,
      "duration": 0.2184,
      "velocity": 97,
      "chip": "ym2612"
    },
    {
      "channel": 4,
      "note": 87,
      "start": 148.2966,
      "duration": 0.7839,
      "velocity": 84,
      "chip": "ym2612"
    },
    {
      "channel": 2,
      "note": 54,
      "start": 148.5143,
      "duration": 0.0158,
      "velocity": 97,
      "chip": "ym2612"
    },
    {
      "channel": 2,
      "note": 54,
      "start": 148.7479,
      "duration": 0.0479,
      "velocity": 97,
      "chip": "ym2612"
    },
    {
      "channel": 2,
      "note": 54,
      "start": 148.796,
      "duration": 0.016,
      "velocity": 97,
      "chip": "ym2612"
    },
    {
      "channel": 2,
      "note": 54,
      "start": 149.0295,
      "duration": 0.0496,
      "velocity": 97,
      "chip": "ym2612"
    },
    {
      "channel": 0,
      "note": 83,
      "start": 149.0534,
      "duration": 0.0239,
      "velocity": 84,
      "chip": "ym2612"
    },
    {
      "channel": 3,
      "note": 75,
      "start": 149.0545,
      "duration": 0.0252,
      "velocity": 84,
      "chip": "ym2612"
    },
    {
      "channel": 0,
      "note": 88,
      "start": 149.0775,
      "duration": 0.17,
      "velocity": 84,
      "chip": "ym2612"
    },
    {
      "channel": 2,
      "note": 64,
      "start": 149.0793,
      "duration": 0.1689,
      "velocity": 97,
      "chip": "ym2612"
    },
    {
      "channel": 3,
      "note": 75,
      "start": 149.08,
      "duration": 0.1689,
      "velocity": 84,
      "chip": "ym2612"
    },
    {
      "channel": 4,
      "note": 83,
      "start": 149.0808,
      "duration": 0.1689,
      "velocity": 84,
      "chip": "ym2612"
    },
    {
      "channel": 0,
      "note": 90,
      "start": 149.2477,
      "duration": 0.1854,
      "velocity": 84,
      "chip": "ym2612"
    },
    {
      "channel": 2,
      "note": 66,
      "start": 149.2485,
      "duration": 0.1857,
      "velocity": 97,
      "chip": "ym2612"
    },
    {
      "channel": 3,
      "note": 76,
      "start": 149.2492,
      "duration": 0.1856,
      "velocity": 84,
      "chip": "ym2612"
    },
    {
      "channel": 4,
      "note": 83,
      "start": 149.25,
      "duration": 0.1856,
      "velocity": 84,
      "chip": "ym2612"
    },
    {
      "channel": 0,
      "note": 92,
      "start": 149.4333,
      "duration": 0.5962,
      "velocity": 84,
      "chip": "ym2612"
    },
    {
      "channel": 1,
      "note": 76,
      "start": 149.4339,
      "duration": 1.4364,
      "velocity": 100,
      "chip": "ym2612"
    },
    {
      "channel": 2,
      "note": 64,
      "start": 149.4344,
      "duration": 0.0472,
      "velocity": 97,
      "chip": "ym2612"
    },
    {
      "channel": 3,
      "note": 78,
      "start": 149.4352,
      "duration": 0.5954,
      "velocity": 84,
      "chip": "ym2612"
    },
    {
      "channel": 4,
      "note": 88,
      "start": 149.4359,
      "duration": 0.0466,
      "velocity": 84,
      "chip": "ym2612"
    },
    {
      "channel": 2,
      "note": 52,
      "start": 149.4819,
      "duration": 0.0164,
      "velocity": 97,
      "chip": "ym2612"
    },
    {
      "channel": 4,
      "note": 90,
      "start": 149.4829,
      "duration": 0.7337,
      "velocity": 84,
      "chip": "ym2612"
    },
    {
      "channel": 2,
      "note": 52,
      "start": 149.7156,
      "duration": 0.0478,
      "velocity": 97,
      "chip": "ym2612"
    },
    {
      "channel": 2,
      "note": 52,
      "start": 149.7637,
      "duration": 0.2184,
      "velocity": 97,
      "chip": "ym2612"
    },
    {
      "channel": 2,
      "note": 52,
      "start": 149.9823,
      "duration": 0.0164,
      "velocity": 97,
      "chip": "ym2612"
    },
    {
      "channel": 0,
      "note": 92,
      "start": 150.0298,
      "duration": 0.2815,
      "velocity": 84,
      "chip": "ym2612"
    },
    {
      "channel": 3,
      "note": 80,
      "start": 150.031,
      "duration": 0.2814,
      "velocity": 84,
      "chip": "ym2612"
    },
    {
      "channel": 2,
      "note": 52,
      "start": 150.2159,
      "duration": 0.0477,
      "velocity": 97,
      "chip": "ym2612"
    },
    {
      "channel": 4,
      "note": 92,
      "start": 150.2169,
      "duration": 0.2814,
      "velocity": 84,
      "chip": "ym2612"
    },
    {
      "channel": 2,
      "note": 52,
      "start": 150.2639,
      "duration": 0.0159,
      "velocity": 97,
      "chip": "ym2612"
    },
    {
      "channel": 0,
      "note": 94,
      "start": 150.3115,
      "duration": 0.2332,
      "velocity": 84,
      "chip": "ym2612"
    },
    {
      "channel": 3,
      "note": 88,
      "start": 150.3127,
      "duration": 0.2341,
      "velocity": 84,
      "chip": "ym2612"
    },
    {
      "channel": 2,
      "note": 52,
      "start": 150.4976,
      "duration": 0.4044,
      "velocity": 97,
      "chip": "ym2612"
    },
    {
      "channel": 4,
      "note": 92,
      "start": 150.4986,
      "duration": 0.2178,
      "velocity": 84,
      "chip": "ym2612"
    },
    {
      "channel": 0,
      "note": 95,
      "start": 150.5449,
      "duration": 0.3561,
      "velocity": 84,
      "chip": "ym2612"
    },
    {
      "channel": 3,
      "note": 90,
      "start": 150.5471,
      "duration": 0.3556,
      "velocity": 84,
      "chip": "ym2612"
    },
    {
      "channel": 4,
      "note": 94,
      "start": 150.7167,
      "duration": 0.2337,
      "velocity": 84,
      "chip": "ym2612"
    },
    {
      "channel": 0,
      "note": 90,
      "start": 150.9012,
      "duration": 0.3534,
      "velocity": 84,
      "chip": "ym2612"
    },
    {
      "channel": 1,
      "note": 78,
      "start": 150.9017,
      "duration": 1.4362,
      "velocity": 100,
      "chip": "ym2612"
    },
    {
      "channel": 2,
      "note": 51,
      "start": 150.9023,
      "duration": 0.0472,
      "velocity": 97,
      "chip": "ym2612"
    },
    {
      "channel": 3,
      "note": 92,
      "start": 150.903,
      "duration": 0.3527,
      "velocity": 84,
      "chip": "ym2612"
    },
    {
      "channel": 2,
      "note": 51,
      "start": 150.9497,
      "duration": 0.0158,
      "velocity": 97,
      "chip": "ym2612"
    },
    {
      "channel": 4,
      "note": 95,
      "start": 150.9507,
      "duration": 0.3308,
      "velocity": 84,
      "chip": "ym2612"
    },
    {
      "channel": 2,
      "note": 51,
      "start": 151.1833,
      "duration": 0.0476,
      "velocity": 97,
      "chip": "ym2612"
    },
    {
      "channel": 2,
      "note": 51,
      "start": 151.2312,
      "duration": 0.2191,
      "velocity": 97,
      "chip": "ym2612"
    },
    {
      "channel": 0,
      "note": 90,
      "start": 151.2548,
      "duration": 0.0238,
      "velocity": 84,
      "chip": "ym2612"
    },
    {
      "channel": 3,
      "note": 87,
      "start": 151.256,
      "duration": 0.0248,
      "velocity": 84,
      "chip": "ym2612"
    },
    {
      "channel": 0,
      "note": 94,
      "start": 151.2789,
      "duration": 0.1706,
      "velocity": 84,
      "chip": "ym2612"
    },
    {
      "channel": 3,
      "note": 87,
      "start": 151.2811,
      "duration": 0.1698,
      "velocity": 84,
      "chip": "ym2612"
    },
    {
      "channel": 4,
      "note": 90,
      "start": 151.2819,
      "duration": 0.1698,
      "velocity": 84,
      "chip": "ym2612"
    },
    {
      "channel": 0,
      "note": 95,
      "start": 151.4497,
      "duration": 0.0476,
      "velocity": 84,
      "chip": "ym2612"
    },
    {
      "channel": 2,
      "note": 51,
      "start": 151.4505,
      "duration": 0.0165,
      "velocity": 97,
      "chip": "ym2612"
    },
    {
      "channel": 3,
      "note": 90,
      "start": 151.4512,
      "duration": 0.0472,
      "velocity": 84,
      "chip": "ym2612"
    },
    {
      "channel": 4,
      "note": 90,
      "start": 151.452,
      "duration": 0.0471,
      "velocity": 84,
      "chip": "ym2612"
    },
    {
      "channel": 0,
      "note": 90,
      "start": 151.4975,
      "duration": 0.4671,
      "velocity": 84,
      "chip": "ym2612"
    },
    {
      "channel": 3,
      "note": 92,
      "start": 151.4987,
      "duration": 0.4674,
      "velocity": 84,
      "chip": "ym2612"
    },
    {
      "channel": 4,
      "note": 94,
      "start": 151.4994,
      "duration": 0.1849,
      "velocity": 84,
      "chip": "ym2612"
    },
    {
      "channel": 2,
      "note": 51,
      "start": 151.6837,
      "duration": 0.0477,
      "velocity": 97,
      "chip": "ym2612"
    },
    {
      "channel": 4,
      "note": 95,
      "start": 151.6847,
      "duration": 0.3055,
      "velocity": 84,
      "chip": "ym2612"
    },
    {
      "channel": 2,
      "note": 51,
      "start": 151.7316,
      "duration": 0.0156,
      "velocity": 97,
      "chip": "ym2612"
    },
    {
      "channel": 0,
      "note": 99,
      "start": 151.9649,
      "duration": 0.4038,
      "velocity": 84,
      "chip": "ym2612"
    },
    {
      "channel": 2,
      "note": 51,
      "start": 151.9657,
      "duration": 0.0471,
      "velocity": 97,
      "chip": "ym2612"
    },
    {
      "channel": 3,
      "note": 87,
      "start": 151.9664,
      "duration": 0.404,
      "velocity": 84,
      "chip": "ym2612"
    },
    {
      "channel": 4,
      "note": 90,
      "start": 151.9905,
      "duration": 0.4275,
      "velocity": 84,
      "chip": "ym2612"
    },
    {
      "channel": 2,
      "note": 54,
      "start": 152.013,
      "duration": 0.1709,
      "velocity": 97,
      "chip": "ym2612"
    },
    {
      "channel": 2,
      "note": 58,
      "start": 152.1842,
      "duration": 0.1856,
      "velocity": 97,
      "chip": "ym2612"
    },
    {
      "channel": 0,
      "note": 99,
      "start": 152.3689,
      "duration": 1.467,
      "velocity": 84,
      "chip": "ym2612"
    },
    {
      "channel": 1,
      "note": 76,
      "start": 152.3694,
      "duration": 1.4358,
      "velocity": 100,
      "chip": "ym2612"
    },
    {
      "channel": 2,
      "note": 61,
      "start": 152.37,
      "duration": 0.047,
      "velocity": 97,
      "chip": "ym2612"
    },
    {
      "channel": 3,
      "note": 95,
      "start": 152.3707,
      "duration": 1.4669,
      "velocity": 84,
      "chip": "ym2612"
    },
    {
      "channel": 2,
      "note": 61,
      "start": 152.4173,
      "duration": 0.0166,
      "velocity": 97,
      "chip": "ym2612"
    },
    {
      "channel": 4,
      "note": 99,
      "start": 152.4183,
      "duration": 1.4623,
      "velocity": 84,
      "chip": "ym2612"
    },
    {
      "channel": 2,
      "note": 61,
      "start": 152.6512,
      "duration": 0.0476,
      "velocity": 97,
      "chip": "ym2612"
    },
    {
      "channel": 2,
      "note": 61,
      "start": 152.6991,
      "duration": 0.2188,
      "velocity": 97,
      "chip": "ym2612"
    },
    {
      "channel": 2,
      "note": 61,
      "start": 152.9181,
      "duration": 0.0164,
      "velocity": 97,
      "chip": "ym2612"
    },
    {
      "channel": 2,
      "note": 61,
      "start": 153.1512,
      "duration": 0.0478,
      "velocity": 97,
      "chip": "ym2612"
    },
    {
      "channel": 2,
      "note": 61,
      "start": 153.1992,
      "duration": 0.0164,
      "velocity": 97,
      "chip": "ym2612"
    },
    {
      "channel": 2,
      "note": 61,
      "start": 153.4325,
      "duration": 0.0485,
      "velocity": 97,
      "chip": "ym2612"
    },
    {
      "channel": 2,
      "note": 66,
      "start": 153.4813,
      "duration": 0.3556,
      "velocity": 97,
      "chip": "ym2612"
    },
    {
      "channel": 0,
      "note": 97,
      "start": 153.8361,
      "duration": 0.4488,
      "velocity": 84,
      "chip": "ym2612"
    },
    {
      "channel": 1,
      "note": 78,
      "start": 153.8366,
      "duration": 0.4442,
      "velocity": 100,
      "chip": "ym2612"
    },
    {
      "channel": 2,
      "note": 54,
      "start": 153.8372,
      "duration": 0.0425,
      "velocity": 97,
      "chip": "ym2612"
    },
    {
      "channel": 3,
      "note": 95,
      "start": 153.8379,
      "duration": 0.4488,
      "velocity": 84,
      "chip": "ym2612"
    },
    {
      "channel": 2,
      "note": 54,
      "start": 153.8799,
      "duration": 0.0168,
      "velocity": 97,
      "chip": "ym2612"
    },
    {
      "channel": 4,
      "note": 99,
      "start": 153.881,
      "duration": 0.4533,
      "velocity": 84,
      "chip": "ym2612"
    },
    {
      "channel": 2,
      "note": 54,
      "start": 153.9299,
      "duration": 0.0246,
      "velocity": 97,
      "chip": "ym2612"
    },
    {
      "channel": 2,
      "note": 54,
      "start": 153.9547,
      "duration": 0.0759,
      "velocity": 97,
      "chip": "ym2612"
    },
    {
      "channel": 2,
      "note": 54,
      "start": 154.0308,
      "duration": 0.0167,
      "velocity": 97,
      "chip": "ym2612"
    },
    {
      "channel": 2,
      "note": 54,
      "start": 154.0826,
      "duration": 0.0255,
      "velocity": 97,
      "chip": "ym2612"
    },
    {
      "channel": 2,
      "note": 54,
      "start": 154.1083,
      "duration": 0.0164,
      "velocity": 97,
      "chip": "ym2612"
    },
    {
      "channel": 2,
      "note": 54,
      "start": 154.1615,
      "duration": 0.1245,
      "velocity": 97,
      "chip": "ym2612"
    },
    {
      "channel": 0,
      "note": 99,
      "start": 154.2851,
      "duration": 1.7588,
      "velocity": 84,
      "chip": "ym2612"
    },
    {
      "channel": 1,
      "note": 76,
      "start": 154.2857,
      "duration": 1.7277,
      "velocity": 100,
      "chip": "ym2612"
    },
    {
      "channel": 2,
      "note": 61,
      "start": 154.2862,
      "duration": 0.0471,
      "velocity": 97,
      "chip": "ym2612"
    },
    {
      "channel": 3,
      "note": 94,
      "start": 154.2869,
      "duration": 1.7588,
      "velocity": 84,
      "chip": "ym2612"
    },
    {
      "channel": 2,
      "note": 61,
      "start": 154.3336,
      "duration": 0.1235,
      "velocity": 97,
      "chip": "ym2612"
    },
    {
      "channel": 4,
      "note": 97,
      "start": 154.3346,
      "duration": 1.7584,
      "velocity": 84,
      "chip": "ym2612"
    },
    {
      "channel": 2,
      "note": 61,
      "start": 154.7048,
      "duration": 0.0477,
      "velocity": 97,
      "chip": "ym2612"
    },
    {
      "channel": 2,
      "note": 61,
      "start": 154.7528,
      "duration": 0.098,
      "velocity": 97,
      "chip": "ym2612"
    },
    {
      "channel": 2,
      "note": 61,
      "start": 154.851,
      "duration": 0.1225,
      "velocity": 97,
      "chip": "ym2612"
    },
    {
      "channel": 2,
      "note": 61,
      "start": 155.0835,
      "duration": 0.1854,
      "velocity": 97,
      "chip": "ym2612"
    },
    {
      "channel": 2,
      "note": 61,
      "start": 155.2692,
      "duration": 0.1235,
      "velocity": 97,
      "chip": "ym2612"
    },
    {
      "channel": 2,
      "note": 61,
      "start": 155.6404,
      "duration": 0.4046,
      "velocity": 97,
      "chip": "ym2612"
    },
    {
      "channel": 0,
      "note": 97,
      "start": 156.0442,
      "duration": 0.8611,
      "velocity": 84,
      "chip": "ym2612"
    },
    {
      "channel": 1,
      "note": 78,
      "start": 156.0447,
      "duration": 0.8555,
      "velocity": 100,
      "chip": "ym2612"
    },
    {
      "channel": 2,
      "note": 54,
      "start": 156.0453,
      "duration": 0.3527,
      "velocity": 97,
      "chip": "ym2612"
    },
    {
      "channel": 3,
      "note": 95,
      "start": 156.046,
      "duration": 0.861,
      "velocity": 84,
      "chip": "ym2612"
    },
    {
      "channel": 4,
      "note": 99,
      "start": 156.0933,
      "duration": 0.8611,
      "velocity": 84,
      "chip": "ym2612"
    },
    {
      "channel": 2,
      "note": 54,
      "start": 156.3983,
      "duration": 0.0253,
      "velocity": 97,
      "chip": "ym2612"
    },
    {
      "channel": 2,
      "note": 61,
      "start": 156.4239,
      "duration": 0.0485,
      "velocity": 97,
      "chip": "ym2612"
    },
    {
      "channel": 2,
      "note": 68,
      "start": 156.4726,
      "duration": 0.0464,
      "velocity": 97,
      "chip": "ym2612"
    },
    {
      "channel": 2,
      "note": 66,
      "start": 156.5193,
      "duration": 0.2335,
      "velocity": 97,
      "chip": "ym2612"
    },
    {
      "channel": 2,
      "note": 61,
      "start": 156.753,
      "duration": 0.0121,
      "velocity": 97,
      "chip": "ym2612"
    },
    {
      "channel": 2,
      "note": 54,
      "start": 156.7779,
      "duration": 0.1285,
      "velocity": 97,
      "chip": "ym2612"
    },
    {
      "channel": 0,
      "note": 88,
      "start": 156.9055,
      "duration": 1.5005,
      "velocity": 84,
      "chip": "ym2612"
    },
    {
      "channel": 1,
      "note": 88,
      "start": 156.9061,
      "duration": 1.469,
      "velocity": 100,
      "chip": "ym2612"
    },
    {
      "channel": 2,
      "note": 60,
      "start": 156.9066,
      "duration": 1.5005,
      "velocity": 97,
      "chip": "ym2612"
    },
    {
      "channel": 3,
      "note": 94,
      "start": 156.9073,
      "duration": 1.5005,
      "velocity": 84,
      "chip": "ym2612"
    },
    {
      "channel": 4,
      "note": 97,
      "start": 156.9547,
      "duration": 1.5001,
      "velocity": 84,
      "chip": "ym2612"
    },
    {
      "channel": 0,
      "note": 87,
      "start": 158.4063,
      "duration": 1.5009,
      "velocity": 84,
      "chip": "ym2612"
    },
    {
      "channel": 1,
      "note": 87,
      "start": 158.4068,
      "duration": 1.469,
      "velocity": 100,
      "chip": "ym2612"
    },
    {
      "channel": 2,
      "note": 59,
      "start": 158.4074,
      "duration": 1.5022,
      "velocity": 97,
      "chip": "ym2612"
    },
    {
      "channel": 3,
      "note": 85,
      "start": 158.4081,
      "duration": 1.5034,
      "velocity": 84,
      "chip": "ym2612"
    },
    {
      "channel": 4,
      "note": 88,
      "start": 158.4551,
      "duration": 1.4818,
      "velocity": 84,
      "chip": "ym2612"
    },
    {
      "channel": 0,
      "note": 87,
      "start": 159.9074,
      "duration": 0.0171,
      "velocity": 84,
      "chip": "ym2612"
    },
    {
      "channel": 3,
      "note": 83,
      "start": 159.9118,
      "duration": 0.0152,
      "velocity": 84,
      "chip": "ym2612"
    },
    {
      "channel": 0,
      "note": 87,
      "start": 159.9265,
      "duration": 0.0158,
      "velocity": 84,
      "chip": "ym2612"
    },
    {
      "channel": 3,
      "note": 83,
      "start": 159.9298,
      "duration": 0.016,
      "velocity": 84,
      "chip": "ym2612"
    },
    {
      "channel": 4,
      "note": 87,
      "start": 159.9372,
      "duration": 0.0169,
      "velocity": 84,
      "chip": "ym2612"
    },
    {
      "channel": 0,
      "note": 87,
      "start": 159.9443,
      "duration": 0.0181,
      "velocity": 84,
      "chip": "ym2612"
    },
    {
      "channel": 3,
      "note": 83,
      "start": 159.9486,
      "duration": 0.0162,
      "velocity": 84,
      "chip": "ym2612"
    },
    {
      "channel": 4,
      "note": 87,
      "start": 159.9569,
      "duration": 0.0461,
      "velocity": 84,
      "chip": "ym2612"
    },
    {
      "channel": 0,
      "note": 87,
      "start": 159.9643,
      "duration": 0.0988,
      "velocity": 84,
      "chip": "ym2612"
    },
    {
      "channel": 3,
      "note": 83,
      "start": 159.9676,
      "duration": 0.098,
      "velocity": 84,
      "chip": "ym2612"
    },
    {
      "channel": 4,
      "note": 87,
      "start": 160.0058,
      "duration": 0.1199,
      "velocity": 84,
      "chip": "ym2612"
    },
    {
      "channel": 0,
      "note": 87,
      "start": 160.0651,
      "duration": 0.1218,
      "velocity": 84,
      "chip": "ym2612"
    },
    {
      "channel": 3,
      "note": 83,
      "start": 160.0694,
      "duration": 0.1199,
      "velocity": 84,
      "chip": "ym2612"
    },
    {
      "channel": 4,
      "note": 87,
      "start": 160.1285,
      "duration": 0.121,
      "velocity": 84,
      "chip": "ym2612"
    },
    {
      "channel": 0,
      "note": 87,
      "start": 160.1888,
      "duration": 0.1218,
      "velocity": 84,
      "chip": "ym2612"
    },
    {
      "channel": 3,
      "note": 83,
      "start": 160.1922,
      "duration": 0.1205,
      "velocity": 84,
      "chip": "ym2612"
    },
    {
      "channel": 4,
      "note": 87,
      "start": 160.2533,
      "duration": 0.1195,
      "velocity": 84,
      "chip": "ym2612"
    },
    {
      "channel": 4,
      "note": 87,
      "start": 160.3732,
      "duration": 0.1234,
      "velocity": 84,
      "chip": "ym2612"
    }
  ]
}