{
  "track_name": "24 - Give it Time",
  "duration_sec": 23.813,
  "sample_rate": 44100,
  "note_count": 241,
  "unique_pitches": 19,
  "pitch_range": 24,
  "avg_note_duration": 0.1988,
  "reconstruction_stats": {
    "notes_reconstructed": 241,
    "keyon_events": 241,
    "keyoff_events": 229,
    "orphan_keyons": 2,
    "unique_pitches": 19,
    "pitch_range": 24,
    "avg_duration_sec": 0.1988
  },
  "metadata": {
    "source": "M\\Minnesota Fats - Pool Legend\\24 - Give it Time.vgz"
  },
  "notes": [
    {
      "channel": 4,
      "note": 56,
      "start": 0.0,
      "duration": 0.021,
      "velocity": 94,
      "chip": "ym2612"
    },
    {
      "channel": 2,
      "note": 63,
      "start": 0.0155,
      "duration": 0.0211,
      "velocity": 91,
      "chip": "ym2612"
    },
    {
      "channel": 3,
      "note": 60,
      "start": 0.0157,
      "duration": 0.021,
      "velocity": 91,
      "chip": "ym2612"
    },
    {
      "channel": 4,
      "note": 60,
      "start": 0.0232,
      "duration": 0.0222,
      "velocity": 94,
      "chip": "ym2612"
    },
    {
      "channel": 2,
      "note": 65,
      "start": 0.0481,
      "duration": 0.0066,
      "velocity": 91,
      "chip": "ym2612"
    },
    {
      "channel": 3,
      "note": 60,
      "start": 0.0483,
      "duration": 0.0065,
      "velocity": 91,
      "chip": "ym2612"
    },
    {
      "channel": 4,
      "note": 63,
      "start": 0.0485,
      "duration": 0.0209,
      "velocity": 94,
      "chip": "ym2612"
    },
    {
      "channel": 2,
      "note": 65,
      "start": 0.0726,
      "duration": 0.0066,
      "velocity": 91,
      "chip": "ym2612"
    },
    {
      "channel": 3,
      "note": 60,
      "start": 0.0728,
      "duration": 0.0065,
      "velocity": 91,
      "chip": "ym2612"
    },
    {
      "channel": 4,
      "note": 65,
      "start": 0.0731,
      "duration": 0.0219,
      "velocity": 94,
      "chip": "ym2612"
    },
    {
      "channel": 2,
      "note": 66,
      "start": 0.0977,
      "duration": 0.0066,
      "velocity": 91,
      "chip": "ym2612"
    },
    {
      "channel": 3,
      "note": 63,
      "start": 0.0979,
      "duration": 0.0065,
      "velocity": 91,
      "chip": "ym2612"
    },
    {
      "channel": 4,
      "note": 66,
      "start": 0.0982,
      "duration": 0.0209,
      "velocity": 94,
      "chip": "ym2612"
    },
    {
      "channel": 2,
      "note": 66,
      "start": 0.1222,
      "duration": 0.0066,
      "velocity": 91,
      "chip": "ym2612"
    },
    {
      "channel": 3,
      "note": 63,
      "start": 0.1224,
      "duration": 0.0065,
      "velocity": 91,
      "chip": "ym2612"
    },
    {
      "channel": 4,
      "note": 65,
      "start": 0.1227,
      "duration": 0.0227,
      "velocity": 94,
      "chip": "ym2612"
    },
    {
      "channel": 2,
      "note": 65,
      "start": 0.1473,
      "duration": 0.0139,
      "velocity": 91,
      "chip": "ym2612"
    },
    {
      "channel": 3,
      "note": 60,
      "start": 0.1475,
      "duration": 0.0138,
      "velocity": 91,
      "chip": "ym2612"
    },
    {
      "channel": 4,
      "note": 63,
      "start": 0.1478,
      "duration": 0.0221,
      "velocity": 94,
      "chip": "ym2612"
    },
    {
      "channel": 2,
      "note": 65,
      "start": 0.1634,
      "duration": 0.0063,
      "velocity": 91,
      "chip": "ym2612"
    },
    {
      "channel": 3,
      "note": 60,
      "start": 0.1636,
      "duration": 0.0061,
      "velocity": 91,
      "chip": "ym2612"
    },
    {
      "channel": 4,
      "note": 60,
      "start": 0.172,
      "duration": 0.0232,
      "velocity": 94,
      "chip": "ym2612"
    },
    {
      "channel": 4,
      "note": 56,
      "start": 0.1978,
      "duration": 0.0212,
      "velocity": 94,
      "chip": "ym2612"
    },
    {
      "channel": 2,
      "note": 63,
      "start": 0.2126,
      "duration": 0.0232,
      "velocity": 91,
      "chip": "ym2612"
    },
    {
      "channel": 3,
      "note": 60,
      "start": 0.2128,
      "duration": 0.0231,
      "velocity": 91,
      "chip": "ym2612"
    },
    {
      "channel": 4,
      "note": 60,
      "start": 0.2224,
      "duration": 0.0222,
      "velocity": 94,
      "chip": "ym2612"
    },
    {
      "channel": 2,
      "note": 65,
      "start": 0.2472,
      "duration": 0.0058,
      "velocity": 91,
      "chip": "ym2612"
    },
    {
      "channel": 3,
      "note": 60,
      "start": 0.2474,
      "duration": 0.0057,
      "velocity": 91,
      "chip": "ym2612"
    },
    {
      "channel": 4,
      "note": 63,
      "start": 0.2476,
      "duration": 0.0209,
      "velocity": 94,
      "chip": "ym2612"
    },
    {
      "channel": 2,
      "note": 65,
      "start": 0.2717,
      "duration": 0.0058,
      "velocity": 91,
      "chip": "ym2612"
    },
    {
      "channel": 3,
      "note": 60,
      "start": 0.2719,
      "duration": 0.0057,
      "velocity": 91,
      "chip": "ym2612"
    },
    {
      "channel": 4,
      "note": 65,
      "start": 0.2721,
      "duration": 0.0219,
      "velocity": 94,
      "chip": "ym2612"
    },
    {
      "channel": 2,
      "note": 66,
      "start": 0.2968,
      "duration": 0.0067,
      "velocity": 91,
      "chip": "ym2612"
    },
    {
      "channel": 3,
      "note": 63,
      "start": 0.297,
      "duration": 0.0066,
      "velocity": 91,
      "chip": "ym2612"
    },
    {
      "channel": 4,
      "note": 66,
      "start": 0.2972,
      "duration": 0.0209,
      "velocity": 94,
      "chip": "ym2612"
    },
    {
      "channel": 2,
      "note": 66,
      "start": 0.3212,
      "duration": 0.0066,
      "velocity": 91,
      "chip": "ym2612"
    },
    {
      "channel": 3,
      "note": 63,
      "start": 0.3215,
      "duration": 0.0065,
      "velocity": 91,
      "chip": "ym2612"
    },
    {
      "channel": 4,
      "note": 65,
      "start": 0.3217,
      "duration": 0.0218,
      "velocity": 94,
      "chip": "ym2612"
    },
    {
      "channel": 2,
      "note": 65,
      "start": 0.3463,
      "duration": 0.0138,
      "velocity": 91,
      "chip": "ym2612"
    },
    {
      "channel": 3,
      "note": 60,
      "start": 0.3465,
      "duration": 0.0137,
      "velocity": 91,
      "chip": "ym2612"
    },
    {
      "channel": 4,
      "note": 63,
      "start": 0.3468,
      "duration": 0.0222,
      "velocity": 94,
      "chip": "ym2612"
    },
    {
      "channel": 2,
      "note": 65,
      "start": 0.3631,
      "duration": 0.0057,
      "velocity": 91,
      "chip": "ym2612"
    },
    {
      "channel": 3,
      "note": 60,
      "start": 0.3633,
      "duration": 0.0056,
      "velocity": 91,
      "chip": "ym2612"
    },
    {
      "channel": 4,
      "note": 59,
      "start": 0.3715,
      "duration": 0.0136,
      "velocity": 94,
      "chip": "ym2612"
    },
    {
      "channel": 4,
      "note": 60,
      "start": 0.3884,
      "duration": 0.0064,
      "velocity": 94,
      "chip": "ym2612"
    },
    {
      "channel": 4,
      "note": 56,
      "start": 0.3972,
      "duration": 0.0225,
      "velocity": 94,
      "chip": "ym2612"
    },
    {
      "channel": 0,
      "note": 72,
      "start": 0.4128,
      "duration": 0.0045,
      "velocity": 97,
      "chip": "ym2612"
    },
    {
      "channel": 1,
      "note": 75,
      "start": 0.413,
      "duration": 0.0045,
      "velocity": 97,
      "chip": "ym2612"
    },
    {
      "channel": 2,
      "note": 63,
      "start": 0.4132,
      "duration": 0.0221,
      "velocity": 91,
      "chip": "ym2612"
    },
    {
      "channel": 3,
      "note": 60,
      "start": 0.4134,
      "duration": 0.0219,
      "velocity": 91,
      "chip": "ym2612"
    },
    {
      "channel": 0,
      "note": 71,
      "start": 0.4217,
      "duration": 0.0001,
      "velocity": 97,
      "chip": "ym2612"
    },
    {
      "channel": 4,
      "note": 60,
      "start": 0.4221,
      "duration": 0.0222,
      "velocity": 94,
      "chip": "ym2612"
    },
    {
      "channel": 0,
      "note": 72,
      "start": 0.4235,
      "duration": 0.0042,
      "velocity": 97,
      "chip": "ym2612"
    },
    {
      "channel": 1,
      "note": 75,
      "start": 0.4237,
      "duration": 0.0041,
      "velocity": 97,
      "chip": "ym2612"
    },
    {
      "channel": 0,
      "note": 70,
      "start": 0.4299,
      "duration": 0.0052,
      "velocity": 97,
      "chip": "ym2612"
    },
    {
      "channel": 0,
      "note": 68,
      "start": 0.4376,
      "duration": 0.0063,
      "velocity": 97,
      "chip": "ym2612"
    },
    {
      "channel": 0,
      "note": 65,
      "start": 0.4465,
      "duration": 0.0141,
      "velocity": 97,
      "chip": "ym2612"
    },
    {
      "channel": 2,
      "note": 65,
      "start": 0.4468,
      "duration": 0.0059,
      "velocity": 91,
      "chip": "ym2612"
    },
    {
      "channel": 3,
      "note": 60,
      "start": 0.447,
      "duration": 0.0057,
      "velocity": 91,
      "chip": "ym2612"
    },
    {
      "channel": 4,
      "note": 63,
      "start": 0.4472,
      "duration": 0.0211,
      "velocity": 94,
      "chip": "ym2612"
    },
    {
      "channel": 0,
      "note": 68,
      "start": 0.462,
      "duration": 0.0061,
      "velocity": 97,
      "chip": "ym2612"
    },
    {
      "channel": 2,
      "note": 65,
      "start": 0.4712,
      "duration": 0.0058,
      "velocity": 91,
      "chip": "ym2612"
    },
    {
      "channel": 3,
      "note": 60,
      "start": 0.4714,
      "duration": 0.0057,
      "velocity": 91,
      "chip": "ym2612"
    },
    {
      "channel": 4,
      "note": 65,
      "start": 0.4716,
      "duration": 0.0218,
      "velocity": 94,
      "chip": "ym2612"
    },
    {
      "channel": 2,
      "note": 66,
      "start": 0.4961,
      "duration": 0.0059,
      "velocity": 91,
      "chip": "ym2612"
    },
    {
      "channel": 3,
      "note": 63,
      "start": 0.4963,
      "duration": 0.0058,
      "velocity": 91,
      "chip": "ym2612"
    },
    {
      "channel": 4,
      "note": 66,
      "start": 0.4965,
      "duration": 0.0214,
      "velocity": 94,
      "chip": "ym2612"
    },
    {
      "channel": 0,
      "note": 72,
      "start": 0.5121,
      "duration": 0.0034,
      "velocity": 97,
      "chip": "ym2612"
    },
    {
      "channel": 1,
      "note": 75,
      "start": 0.5123,
      "duration": 0.0034,
      "velocity": 97,
      "chip": "ym2612"
    },
    {
      "channel": 0,
      "note": 71,
      "start": 0.5204,
      "duration": 0.0001,
      "velocity": 97,
      "chip": "ym2612"
    },
    {
      "channel": 2,
      "note": 66,
      "start": 0.5207,
      "duration": 0.0062,
      "velocity": 91,
      "chip": "ym2612"
    },
    {
      "channel": 3,
      "note": 63,
      "start": 0.5209,
      "duration": 0.0061,
      "velocity": 91,
      "chip": "ym2612"
    },
    {
      "channel": 4,
      "note": 65,
      "start": 0.5212,
      "duration": 0.0219,
      "velocity": 94,
      "chip": "ym2612"
    },
    {
      "channel": 0,
      "note": 72,
      "start": 0.5234,
      "duration": 0.0034,
      "velocity": 97,
      "chip": "ym2612"
    },
    {
      "channel": 1,
      "note": 75,
      "start": 0.5237,
      "duration": 0.0033,
      "velocity": 97,
      "chip": "ym2612"
    },
    {
      "channel": 0,
      "note": 70,
      "start": 0.529,
      "duration": 0.0061,
      "velocity": 97,
      "chip": "ym2612"
    },
    {
      "channel": 0,
      "note": 68,
      "start": 0.5373,
      "duration": 0.0055,
      "velocity": 97,
      "chip": "ym2612"
    },
    {
      "channel": 0,
      "note": 65,
      "start": 0.5455,
      "duration": 0.0139,
      "velocity": 97,
      "chip": "ym2612"
    },
    {
      "channel": 2,
      "note": 65,
      "start": 0.5458,
      "duration": 0.0139,
      "velocity": 91,
      "chip": "ym2612"
    },
    {
      "channel": 3,
      "note": 60,
      "start": 0.546,
      "duration": 0.0137,
      "velocity": 91,
      "chip": "ym2612"
    },
    {
      "channel": 4,
      "note": 63,
      "start": 0.5462,
      "duration": 0.0213,
      "velocity": 94,
      "chip": "ym2612"
    },
    {
      "channel": 0,
      "note": 68,
      "start": 0.5617,
      "duration": 0.0055,
      "velocity": 97,
      "chip": "ym2612"
    },
    {
      "channel": 2,
      "note": 65,
      "start": 0.5619,
      "duration": 0.0055,
      "velocity": 91,
      "chip": "ym2612"
    },
    {
      "channel": 3,
      "note": 60,
      "start": 0.5622,
      "duration": 0.0053,
      "velocity": 91,
      "chip": "ym2612"
    },
    {
      "channel": 4,
      "note": 60,
      "start": 0.5702,
      "duration": 0.0223,
      "velocity": 94,
      "chip": "ym2612"
    },
    {
      "channel": 4,
      "note": 56,
      "start": 0.5954,
      "duration": 0.0212,
      "velocity": 94,
      "chip": "ym2612"
    },
    {
      "channel": 2,
      "note": 63,
      "start": 0.611,
      "duration": 0.0222,
      "velocity": 91,
      "chip": "ym2612"
    },
    {
      "channel": 3,
      "note": 60,
      "start": 0.6112,
      "duration": 0.0221,
      "velocity": 91,
      "chip": "ym2612"
    },
    {
      "channel": 4,
      "note": 60,
      "start": 0.6199,
      "duration": 0.023,
      "velocity": 94,
      "chip": "ym2612"
    },
    {
      "channel": 2,
      "note": 65,
      "start": 0.6448,
      "duration": 0.0066,
      "velocity": 91,
      "chip": "ym2612"
    },
    {
      "channel": 3,
      "note": 60,
      "start": 0.645,
      "duration": 0.0065,
      "velocity": 91,
      "chip": "ym2612"
    },
    {
      "channel": 4,
      "note": 63,
      "start": 0.6453,
      "duration": 0.0217,
      "velocity": 94,
      "chip": "ym2612"
    },
    {
      "channel": 2,
      "note": 65,
      "start": 0.67,
      "duration": 0.0058,
      "velocity": 91,
      "chip": "ym2612"
    },
    {
      "channel": 3,
      "note": 60,
      "start": 0.6702,
      "duration": 0.0057,
      "velocity": 91,
      "chip": "ym2612"
    },
    {
      "channel": 4,
      "note": 65,
      "start": 0.6705,
      "duration": 0.0221,
      "velocity": 94,
      "chip": "ym2612"
    },
    {
      "channel": 0,
      "note": 65,
      "start": 0.6859,
      "duration": 0.0064,
      "velocity": 97,
      "chip": "ym2612"
    },
    {
      "channel": 0,
      "note": 68,
      "start": 0.6948,
      "duration": 0.006,
      "velocity": 97,
      "chip": "ym2612"
    },
    {
      "channel": 2,
      "note": 66,
      "start": 0.6951,
      "duration": 0.0059,
      "velocity": 91,
      "chip": "ym2612"
    },
    {
      "channel": 3,
      "note": 63,
      "start": 0.6953,
      "duration": 0.0057,
      "velocity": 91,
      "chip": "ym2612"
    },
    {
      "channel": 4,
      "note": 66,
      "start": 0.6956,
      "duration": 0.0212,
      "velocity": 94,
      "chip": "ym2612"
    },
    {
      "channel": 0,
      "note": 65,
      "start": 0.703,
      "duration": 0.0061,
      "velocity": 97,
      "chip": "ym2612"
    },
    {
      "channel": 0,
      "note": 68,
      "start": 0.7104,
      "duration": 0.0061,
      "velocity": 97,
      "chip": "ym2612"
    },
    {
      "channel": 2,
      "note": 66,
      "start": 0.7194,
      "duration": 0.0058,
      "velocity": 91,
      "chip": "ym2612"
    },
    {
      "channel": 3,
      "note": 63,
      "start": 0.7196,
      "duration": 0.0057,
      "velocity": 91,
      "chip": "ym2612"
    },
    {
      "channel": 4,
      "note": 65,
      "start": 0.7199,
      "duration": 0.0225,
      "velocity": 94,
      "chip": "ym2612"
    },
    {
      "channel": 1,
      "note": 65,
      "start": 0.7358,
      "duration": 0.0086,
      "velocity": 100,
      "chip": "ym2612"
    },
    {
      "channel": 1,
      "note": 68,
      "start": 0.7444,
      "duration": 0.0079,
      "velocity": 100,
      "chip": "ym2612"
    },
    {
      "channel": 2,
      "note": 65,
      "start": 0.7446,
      "duration": 0.0139,
      "velocity": 91,
      "chip": "ym2612"
    },
    {
      "channel": 3,
      "note": 60,
      "start": 0.7448,
      "duration": 0.0138,
      "velocity": 91,
      "chip": "ym2612"
    },
    {
      "channel": 4,
      "note": 63,
      "start": 0.745,
      "duration": 0.0213,
      "velocity": 94,
      "chip": "ym2612"
    },
    {
      "channel": 1,
      "note": 65,
      "start": 0.7523,
      "duration": 0.0083,
      "velocity": 100,
      "chip": "ym2612"
    },
    {
      "channel": 1,
      "note": 68,
      "start": 0.7606,
      "duration": 0.0055,
      "velocity": 100,
      "chip": "ym2612"
    },
    {
      "channel": 2,
      "note": 65,
      "start": 0.7607,
      "duration": 0.0055,
      "velocity": 91,
      "chip": "ym2612"
    },
    {
      "channel": 3,
      "note": 60,
      "start": 0.7609,
      "duration": 0.0054,
      "velocity": 91,
      "chip": "ym2612"
    },
    {
      "channel": 4,
      "note": 59,
      "start": 0.7688,
      "duration": 0.0137,
      "velocity": 94,
      "chip": "ym2612"
    },
    {
      "channel": 4,
      "note": 60,
      "start": 0.7856,
      "duration": 0.0056,
      "velocity": 94,
      "chip": "ym2612"
    },
    {
      "channel": 4,
      "note": 61,
      "start": 0.794,
      "duration": 0.022,
      "velocity": 94,
      "chip": "ym2612"
    },
    {
      "channel": 0,
      "note": 71,
      "start": 0.8096,
      "duration": 0.0041,
      "velocity": 97,
      "chip": "ym2612"
    },
    {
      "channel": 1,
      "note": 75,
      "start": 0.8102,
      "duration": 0.0036,
      "velocity": 97,
      "chip": "ym2612"
    },
    {
      "channel": 2,
      "note": 68,
      "start": 0.8104,
      "duration": 0.0224,
      "velocity": 91,
      "chip": "ym2612"
    },
    {
      "channel": 3,
      "note": 65,
      "start": 0.8107,
      "duration": 0.0222,
      "velocity": 91,
      "chip": "ym2612"
    },
    {
      "channel": 0,
      "note": 70,
      "start": 0.8183,
      "duration": 0.0,
      "velocity": 97,
      "chip": "ym2612"
    },
    {
      "channel": 4,
      "note": 65,
      "start": 0.8187,
      "duration": 0.0221,
      "velocity": 94,
      "chip": "ym2612"
    },
    {
      "channel": 0,
      "note": 71,
      "start": 0.821,
      "duration": 0.0042,
      "velocity": 97,
      "chip": "ym2612"
    },
    {
      "channel": 1,
      "note": 75,
      "start": 0.8212,
      "duration": 0.0041,
      "velocity": 97,
      "chip": "ym2612"
    },
    {
      "channel": 0,
      "note": 70,
      "start": 0.8274,
      "duration": 0.0052,
      "velocity": 97,
      "chip": "ym2612"
    },
    {
      "channel": 0,
      "note": 68,
      "start": 0.8351,
      "duration": 0.0055,
      "velocity": 97,
      "chip": "ym2612"
    },
    {
      "channel": 0,
      "note": 65,
      "start": 0.8434,
      "duration": 0.0141,
      "velocity": 97,
      "chip": "ym2612"
    },
    {
      "channel": 2,
      "note": 70,
      "start": 0.8436,
      "duration": 0.0067,
      "velocity": 91,
      "chip": "ym2612"
    },
    {
      "channel": 3,
      "note": 65,
      "start": 0.8439,
      "duration": 0.0065,
      "velocity": 91,
      "chip": "ym2612"
    },
    {
      "channel": 4,
      "note": 68,
      "start": 0.8441,
      "duration": 0.022,
      "velocity": 94,
      "chip": "ym2612"
    },
    {
      "channel": 0,
      "note": 68,
      "start": 0.8596,
      "duration": 0.0061,
      "velocity": 97,
      "chip": "ym2612"
    },
    {
      "channel": 2,
      "note": 70,
      "start": 0.8679,
      "duration": 0.0066,
      "velocity": 91,
      "chip": "ym2612"
    },
    {
      "channel": 3,
      "note": 65,
      "start": 0.8681,
      "duration": 0.0065,
      "velocity": 91,
      "chip": "ym2612"
    },
    {
      "channel": 4,
      "note": 70,
      "start": 0.8684,
      "duration": 0.0227,
      "velocity": 94,
      "chip": "ym2612"
    },
    {
      "channel": 2,
      "note": 71,
      "start": 0.893,
      "duration": 0.0067,
      "velocity": 91,
      "chip": "ym2612"
    },
    {
      "channel": 3,
      "note": 68,
      "start": 0.8932,
      "duration": 0.0066,
      "velocity": 91,
      "chip": "ym2612"
    },
    {
      "channel": 4,
      "note": 71,
      "start": 0.8934,
      "duration": 0.0223,
      "velocity": 94,
      "chip": "ym2612"
    },
    {
      "channel": 0,
      "note": 71,
      "start": 0.9091,
      "duration": 0.0042,
      "velocity": 97,
      "chip": "ym2612"
    },
    {
      "channel": 1,
      "note": 75,
      "start": 0.9093,
      "duration": 0.0041,
      "velocity": 97,
      "chip": "ym2612"
    },
    {
      "channel": 0,
      "note": 70,
      "start": 0.9183,
      "duration": 0.0,
      "velocity": 97,
      "chip": "ym2612"
    },
    {
      "channel": 2,
      "note": 71,
      "start": 0.9186,
      "duration": 0.0062,
      "velocity": 91,
      "chip": "ym2612"
    },
    {
      "channel": 3,
      "note": 68,
      "start": 0.9188,
      "duration": 0.0061,
      "velocity": 91,
      "chip": "ym2612"
    },
    {
      "channel": 4,
      "note": 70,
      "start": 0.9191,
      "duration": 0.0219,
      "velocity": 94,
      "chip": "ym2612"
    },
    {
      "channel": 0,
      "note": 71,
      "start": 0.9204,
      "duration": 0.0043,
      "velocity": 97,
      "chip": "ym2612"
    },
    {
      "channel": 1,
      "note": 75,
      "start": 0.9207,
      "duration": 0.0041,
      "velocity": 97,
      "chip": "ym2612"
    },
    {
      "channel": 0,
      "note": 70,
      "start": 0.927,
      "duration": 0.0052,
      "velocity": 97,
      "chip": "ym2612"
    },
    {
      "channel": 0,
      "note": 68,
      "start": 0.9344,
      "duration": 0.0063,
      "velocity": 97,
      "chip": "ym2612"
    },
    {
      "channel": 0,
      "note": 65,
      "start": 0.9433,
      "duration": 0.014,
      "velocity": 97,
      "chip": "ym2612"
    },
    {
      "channel": 2,
      "note": 70,
      "start": 0.9435,
      "duration": 0.0139,
      "velocity": 91,
      "chip": "ym2612"
    },
    {
      "channel": 3,
      "note": 65,
      "start": 0.9438,
      "duration": 0.0137,
      "velocity": 91,
      "chip": "ym2612"
    },
    {
      "channel": 4,
      "note": 68,
      "start": 0.944,
      "duration": 0.0214,
      "velocity": 94,
      "chip": "ym2612"
    },
    {
      "channel": 0,
      "note": 68,
      "start": 0.9587,
      "duration": 0.0064,
      "velocity": 97,
      "chip": "ym2612"
    },
    {
      "channel": 2,
      "note": 70,
      "start": 0.9589,
      "duration": 0.0063,
      "velocity": 91,
      "chip": "ym2612"
    },
    {
      "channel": 3,
      "note": 65,
      "start": 0.9592,
      "duration": 0.0061,
      "velocity": 91,
      "chip": "ym2612"
    },
    {
      "channel": 4,
      "note": 65,
      "start": 0.9681,
      "duration": 0.0222,
      "velocity": 94,
      "chip": "ym2612"
    },
    {
      "channel": 4,
      "note": 56,
      "start": 0.993,
      "duration": 0.0212,
      "velocity": 94,
      "chip": "ym2612"
    },
    {
      "channel": 2,
      "note": 63,
      "start": 1.0086,
      "duration": 0.0223,
      "velocity": 91,
      "chip": "ym2612"
    },
    {
      "channel": 3,
      "note": 60,
      "start": 1.0088,
      "duration": 0.0222,
      "velocity": 91,
      "chip": "ym2612"
    },
    {
      "channel": 4,
      "note": 60,
      "start": 1.0175,
      "duration": 0.0222,
      "velocity": 94,
      "chip": "ym2612"
    },
    {
      "channel": 2,
      "note": 65,
      "start": 1.0424,
      "duration": 0.0067,
      "velocity": 91,
      "chip": "ym2612"
    },
    {
      "channel": 3,
      "note": 60,
      "start": 1.0426,
      "duration": 0.0066,
      "velocity": 91,
      "chip": "ym2612"
    },
    {
      "channel": 4,
      "note": 63,
      "start": 1.0429,
      "duration": 0.0211,
      "velocity": 94,
      "chip": "ym2612"
    },
    {
      "channel": 2,
      "note": 65,
      "start": 1.0671,
      "duration": 0.0066,
      "velocity": 91,
      "chip": "ym2612"
    },
    {
      "channel": 3,
      "note": 60,
      "start": 1.0673,
      "duration": 0.0065,
      "velocity": 91,
      "chip": "ym2612"
    },
    {
      "channel": 4,
      "note": 65,
      "start": 1.0675,
      "duration": 0.0221,
      "velocity": 94,
      "chip": "ym2612"
    },
    {
      "channel": 0,
      "note": 65,
      "start": 1.0838,
      "duration": 0.0055,
      "velocity": 97,
      "chip": "ym2612"
    },
    {
      "channel": 0,
      "note": 68,
      "start": 1.0921,
      "duration": 0.0069,
      "velocity": 97,
      "chip": "ym2612"
    },
    {
      "channel": 2,
      "note": 66,
      "start": 1.0924,
      "duration": 0.0068,
      "velocity": 91,
      "chip": "ym2612"
    },
    {
      "channel": 3,
      "note": 63,
      "start": 1.0926,
      "duration": 0.0066,
      "velocity": 91,
      "chip": "ym2612"
    },
    {
      "channel": 4,
      "note": 66,
      "start": 1.0929,
      "duration": 0.0221,
      "velocity": 94,
      "chip": "ym2612"
    },
    {
      "channel": 0,
      "note": 65,
      "start": 1.1012,
      "duration": 0.0052,
      "velocity": 97,
      "chip": "ym2612"
    },
    {
      "channel": 0,
      "note": 68,
      "start": 1.1086,
      "duration": 0.0061,
      "velocity": 97,
      "chip": "ym2612"
    },
    {
      "channel": 2,
      "note": 66,
      "start": 1.1167,
      "duration": 0.0067,
      "velocity": 91,
      "chip": "ym2612"
    },
    {
      "channel": 3,
      "note": 63,
      "start": 1.1169,
      "duration": 0.0066,
      "velocity": 91,
      "chip": "ym2612"
    },
    {
      "channel": 4,
      "note": 65,
      "start": 1.1172,
      "duration": 0.0233,
      "velocity": 94,
      "chip": "ym2612"
    },
    {
      "channel": 1,
      "note": 77,
      "start": 1.1339,
      "duration": 0.0078,
      "velocity": 100,
      "chip": "ym2612"
    },
    {
      "channel": 1,
      "note": 80,
      "start": 1.1417,
      "duration": 0.009,
      "velocity": 100,
      "chip": "ym2612"
    },
    {
      "channel": 2,
      "note": 65,
      "start": 1.1419,
      "duration": 0.0141,
      "velocity": 91,
      "chip": "ym2612"
    },
    {
      "channel": 3,
      "note": 60,
      "start": 1.1422,
      "duration": 0.014,
      "velocity": 91,
      "chip": "ym2612"
    },
    {
      "channel": 4,
      "note": 63,
      "start": 1.1424,
      "duration": 0.0225,
      "velocity": 94,
      "chip": "ym2612"
    },
    {
      "channel": 1,
      "note": 77,
      "start": 1.1507,
      "duration": 0.0075,
      "velocity": 100,
      "chip": "ym2612"
    },
    {
      "channel": 1,
      "note": 80,
      "start": 1.1582,
      "duration": 0.0064,
      "velocity": 100,
      "chip": "ym2612"
    },
    {
      "channel": 2,
      "note": 65,
      "start": 1.1584,
      "duration": 0.0063,
      "velocity": 91,
      "chip": "ym2612"
    },
    {
      "channel": 3,
      "note": 60,
      "start": 1.1586,
      "duration": 0.0062,
      "velocity": 91,
      "chip": "ym2612"
    },
    {
      "channel": 4,
      "note": 60,
      "start": 1.1672,
      "duration": 0.0222,
      "velocity": 94,
      "chip": "ym2612"
    },
    {
      "channel": 1,
      "note": 70,
      "start": 1.192,
      "duration": 0.0884,
      "velocity": 100,
      "chip": "ym2612"
    },
    {
      "channel": 2,
      "note": 75,
      "start": 1.1926,
      "duration": 0.0738,
      "velocity": 100,
      "chip": "ym2612"
    },
    {
      "channel": 3,
      "note": 67,
      "start": 1.1933,
      "duration": 0.0733,
      "velocity": 100,
      "chip": "ym2612"
    },
    {
      "channel": 4,
      "note": 63,
      "start": 1.1935,
      "duration": 0.0211,
      "velocity": 94,
      "chip": "ym2612"
    },
    {
      "channel": 4,
      "note": 67,
      "start": 1.2168,
      "duration": 0.0223,
      "velocity": 94,
      "chip": "ym2612"
    },
    {
      "channel": 4,
      "note": 70,
      "start": 1.2419,
      "duration": 0.0212,
      "velocity": 94,
      "chip": "ym2612"
    },
    {
      "channel": 0,
      "note": 63,
      "start": 1.2575,
      "duration": 0.0053,
      "velocity": 97,
      "chip": "ym2612"
    },
    {
      "channel": 0,
      "note": 65,
      "start": 1.2662,
      "duration": 0.0141,
      "velocity": 97,
      "chip": "ym2612"
    },
    {
      "channel": 2,
      "note": 75,
      "start": 1.2664,
      "duration": 0.014,
      "velocity": 100,
      "chip": "ym2612"
    },
    {
      "channel": 3,
      "note": 67,
      "start": 1.2666,
      "duration": 0.0139,
      "velocity": 100,
      "chip": "ym2612"
    },
    {
      "channel": 4,
      "note": 63,
      "start": 1.2668,
      "duration": 0.0138,
      "velocity": 94,
      "chip": "ym2612"
    },
    {
      "channel": 0,
      "note": 63,
      "start": 1.283,
      "duration": 0.0061,
      "velocity": 97,
      "chip": "ym2612"
    },
    {
      "channel": 1,
      "note": 69,
      "start": 1.2832,
      "duration": 0.006,
      "velocity": 100,
      "chip": "ym2612"
    },
    {
      "channel": 2,
      "note": 74,
      "start": 1.2834,
      "duration": 0.0059,
      "velocity": 100,
      "chip": "ym2612"
    },
    {
      "channel": 3,
      "note": 66,
      "start": 1.2836,
      "duration": 0.0057,
      "velocity": 100,
      "chip": "ym2612"
    },
    {
      "channel": 4,
      "note": 62,
      "start": 1.2839,
      "duration": 0.0056,
      "velocity": 94,
      "chip": "ym2612"
    },
    {
      "channel": 0,
      "note": 68,
      "start": 1.2914,
      "duration": 0.0217,
      "velocity": 97,
      "chip": "ym2612"
    },
    {
      "channel": 1,
      "note": 68,
      "start": 1.2915,
      "duration": 0.0973,
      "velocity": 100,
      "chip": "ym2612"
    },
    {
      "channel": 2,
      "note": 73,
      "start": 1.2918,
      "duration": 0.0971,
      "velocity": 100,
      "chip": "ym2612"
    },
    {
      "channel": 3,
      "note": 65,
      "start": 1.292,
      "duration": 0.097,
      "velocity": 100,
      "chip": "ym2612"
    },
    {
      "channel": 4,
      "note": 61,
      "start": 1.2922,
      "duration": 0.0211,
      "velocity": 94,
      "chip": "ym2612"
    },
    {
      "channel": 0,
      "note": 66,
      "start": 1.3159,
      "duration": 0.0222,
      "velocity": 97,
      "chip": "ym2612"
    },
    {
      "channel": 4,
      "note": 65,
      "start": 1.3163,
      "duration": 0.0222,
      "velocity": 94,
      "chip": "ym2612"
    },
    {
      "channel": 0,
      "note": 63,
      "start": 1.341,
      "duration": 0.0138,
      "velocity": 97,
      "chip": "ym2612"
    },
    {
      "channel": 4,
      "note": 68,
      "start": 1.3414,
      "duration": 0.022,
      "velocity": 94,
      "chip": "ym2612"
    },
    {
      "channel": 0,
      "note": 65,
      "start": 1.357,
      "duration": 0.0061,
      "velocity": 97,
      "chip": "ym2612"
    },
    {
      "channel": 4,
      "note": 65,
      "start": 1.3658,
      "duration": 0.0233,
      "velocity": 94,
      "chip": "ym2612"
    },
    {
      "channel": 0,
      "note": 59,
      "start": 1.3824,
      "duration": 0.0064,
      "velocity": 97,
      "chip": "ym2612"
    },
    {
      "channel": 4,
      "note": 56,
      "start": 1.3918,
      "duration": 0.0223,
      "velocity": 94,
      "chip": "ym2612"
    },
    {
      "channel": 0,
      "note": 56,
      "start": 1.4075,
      "duration": 0.0086,
      "velocity": 97,
      "chip": "ym2612"
    },
    {
      "channel": 2,
      "note": 63,
      "start": 1.4078,
      "duration": 0.0211,
      "velocity": 91,
      "chip": "ym2612"
    },
    {
      "channel": 3,
      "note": 60,
      "start": 1.408,
      "duration": 0.021,
      "velocity": 91,
      "chip": "ym2612"
    },
    {
      "channel": 0,
      "note": 56,
      "start": 1.4161,
      "duration": 0.0743,
      "velocity": 97,
      "chip": "ym2612"
    },
    {
      "channel": 4,
      "note": 60,
      "start": 1.4164,
      "duration": 0.0219,
      "velocity": 94,
      "chip": "ym2612"
    },
    {
      "channel": 2,
      "note": 65,
      "start": 1.4408,
      "duration": 0.0058,
      "velocity": 91,
      "chip": "ym2612"
    },
    {
      "channel": 3,
      "note": 60,
      "start": 1.441,
      "duration": 0.0057,
      "velocity": 91,
      "chip": "ym2612"
    },
    {
      "channel": 4,
      "note": 63,
      "start": 1.4413,
      "duration": 0.021,
      "velocity": 94,
      "chip": "ym2612"
    },
    {
      "channel": 2,
      "note": 65,
      "start": 1.4654,
      "duration": 0.0058,
      "velocity": 91,
      "chip": "ym2612"
    },
    {
      "channel": 3,
      "note": 60,
      "start": 1.4656,
      "duration": 0.0057,
      "velocity": 91,
      "chip": "ym2612"
    },
    {
      "channel": 4,
      "note": 65,
      "start": 1.4658,
      "duration": 0.0219,
      "velocity": 94,
      "chip": "ym2612"
    },
    {
      "channel": 0,
      "note": 56,
      "start": 1.4903,
      "duration": 0.0956,
      "velocity": 97,
      "chip": "ym2612"
    },
    {
      "channel": 2,
      "note": 66,
      "start": 1.4906,
      "duration": 0.0058,
      "velocity": 91,
      "chip": "ym2612"
    },
    {
      "channel": 3,
      "note": 63,
      "start": 1.4908,
      "duration": 0.0057,
      "velocity": 91,
      "chip": "ym2612"
    },
    {
      "channel": 4,
      "note": 66,
      "start": 1.491,
      "duration": 0.021,
      "velocity": 94,
      "chip": "ym2612"
    },
    {
      "channel": 2,
      "note": 66,
      "start": 1.515,
      "duration": 0.0066,
      "velocity": 91,
      "chip": "ym2612"
    },
    {
      "channel": 3,
      "note": 63,
      "start": 1.5152,
      "duration": 0.0066,
      "velocity": 91,
      "chip": "ym2612"
    },
    {
      "channel": 4,
      "note": 65,
      "start": 1.5154,
      "duration": 0.0219,
      "velocity": 94,
      "chip": "ym2612"
    },
    {
      "channel": 2,
      "note": 65,
      "start": 1.5401,
      "duration": 0.0139,
      "velocity": 91,
      "chip": "ym2612"
    },
    {
      "channel": 3,
      "note": 60,
      "start": 1.5403,
      "duration": 0.0138,
      "velocity": 91,
      "chip": "ym2612"
    },
    {
      "channel": 4,
      "note": 63,
      "start": 1.5405,
      "duration": 0.0223,
      "velocity": 94,
      "chip": "ym2612"
    },
    {
      "channel": 2,
      "note": 65,
      "start": 1.5569,
      "duration": 0.0058,
      "velocity": 91,
      "chip": "ym2612"
    },
    {
      "channel": 3,
      "note": 60,
      "start": 1.5571,
      "duration": 0.0057,
      "velocity": 91,
      "chip": "ym2612"
    },
    {
      "channel": 4,
      "note": 60,
      "start": 1.565,
      "duration": 0.0212,
      "velocity": 94,
      "chip": "ym2612"
    },
    {
      "channel": 4,
      "note": 56,
      "start": 1.5898,
      "duration": 22.2235,
      "velocity": 94,
      "chip": "ym2612"
    },
    {
      "channel": 0,
      "note": 72,
      "start": 1.6057,
      "duration": 22.2075,
      "velocity": 97,
      "chip": "ym2612"
    }
  ]
}