{
  "track_name": "24 - Ancient Magic",
  "duration_sec": 17.911,
  "sample_rate": 44100,
  "note_count": 246,
  "unique_pitches": 10,
  "pitch_range": 48,
  "avg_note_duration": 0.4098,
  "reconstruction_stats": {
    "notes_reconstructed": 246,
    "keyon_events": 246,
    "keyoff_events": 240,
    "orphan_keyons": 6,
    "unique_pitches": 10,
    "pitch_range": 48,
    "avg_duration_sec": 0.4098
  },
  "metadata": {
    "source": "L\\Langrisser II\\24 - Ancient Magic.vgz"
  },
  "notes": [
    {
      "channel": 0,
      "note": 40,
      "start": 0.0352,
      "duration": 1.4543,
      "velocity": 123,
      "chip": "ym2612"
    },
    {
      "channel": 1,
      "note": 47,
      "start": 0.038,
      "duration": 1.4518,
      "velocity": 123,
      "chip": "ym2612"
    },
    {
      "channel": 4,
      "note": -1,
      "start": 0.0482,
      "duration": 0.1471,
      "velocity": 115,
      "chip": "ym2612"
    },
    {
      "channel": 5,
      "note": 52,
      "start": 0.0573,
      "duration": 0.1619,
      "velocity": 115,
      "chip": "ym2612"
    },
    {
      "channel": 2,
      "note": 40,
      "start": 0.0794,
      "duration": 1.4569,
      "velocity": 116,
      "chip": "ym2612"
    },
    {
      "channel": 3,
      "note": 47,
      "start": 0.08,
      "duration": 1.4567,
      "velocity": 116,
      "chip": "ym2612"
    },
    {
      "channel": 4,
      "note": 52,
      "start": 0.2187,
      "duration": 0.1617,
      "velocity": 115,
      "chip": "ym2612"
    },
    {
      "channel": 5,
      "note": 64,
      "start": 0.2422,
      "duration": 0.162,
      "velocity": 115,
      "chip": "ym2612"
    },
    {
      "channel": 4,
      "note": 64,
      "start": 0.4037,
      "duration": 0.1618,
      "velocity": 115,
      "chip": "ym2612"
    },
    {
      "channel": 5,
      "note": 76,
      "start": 0.4272,
      "duration": 0.1621,
      "velocity": 115,
      "chip": "ym2612"
    },
    {
      "channel": 4,
      "note": 76,
      "start": 0.5889,
      "duration": 0.162,
      "velocity": 115,
      "chip": "ym2612"
    },
    {
      "channel": 5,
      "note": 88,
      "start": 0.6124,
      "duration": 0.162,
      "velocity": 115,
      "chip": "ym2612"
    },
    {
      "channel": 4,
      "note": 88,
      "start": 0.7739,
      "duration": 0.1617,
      "velocity": 115,
      "chip": "ym2612"
    },
    {
      "channel": 5,
      "note": 76,
      "start": 0.7975,
      "duration": 0.162,
      "velocity": 115,
      "chip": "ym2612"
    },
    {
      "channel": 4,
      "note": 76,
      "start": 0.959,
      "duration": 0.1617,
      "velocity": 115,
      "chip": "ym2612"
    },
    {
      "channel": 5,
      "note": 64,
      "start": 0.9826,
      "duration": 0.1385,
      "velocity": 115,
      "chip": "ym2612"
    },
    {
      "channel": 4,
      "note": 64,
      "start": 1.1471,
      "duration": 0.1587,
      "velocity": 115,
      "chip": "ym2612"
    },
    {
      "channel": 5,
      "note": 52,
      "start": 1.1679,
      "duration": 0.1616,
      "velocity": 115,
      "chip": "ym2612"
    },
    {
      "channel": 4,
      "note": 52,
      "start": 1.329,
      "duration": 0.1619,
      "velocity": 115,
      "chip": "ym2612"
    },
    {
      "channel": 5,
      "note": 64,
      "start": 1.3529,
      "duration": 0.1622,
      "velocity": 115,
      "chip": "ym2612"
    },
    {
      "channel": 0,
      "note": 41,
      "start": 1.5128,
      "duration": 1.4571,
      "velocity": 123,
      "chip": "ym2612"
    },
    {
      "channel": 1,
      "note": 48,
      "start": 1.5134,
      "duration": 1.4569,
      "velocity": 123,
      "chip": "ym2612"
    },
    {
      "channel": 4,
      "note": 64,
      "start": 1.5146,
      "duration": 0.161,
      "velocity": 115,
      "chip": "ym2612"
    },
    {
      "channel": 5,
      "note": 76,
      "start": 1.5377,
      "duration": 0.1617,
      "velocity": 115,
      "chip": "ym2612"
    },
    {
      "channel": 2,
      "note": 41,
      "start": 1.5596,
      "duration": 1.4569,
      "velocity": 116,
      "chip": "ym2612"
    },
    {
      "channel": 3,
      "note": 47,
      "start": 1.5602,
      "duration": 1.4567,
      "velocity": 116,
      "chip": "ym2612"
    },
    {
      "channel": 4,
      "note": 76,
      "start": 1.699,
      "duration": 0.1616,
      "velocity": 115,
      "chip": "ym2612"
    },
    {
      "channel": 5,
      "note": 88,
      "start": 1.7224,
      "duration": 0.1625,
      "velocity": 115,
      "chip": "ym2612"
    },
    {
      "channel": 4,
      "note": 88,
      "start": 1.8841,
      "duration": 0.1616,
      "velocity": 115,
      "chip": "ym2612"
    },
    {
      "channel": 5,
      "note": 76,
      "start": 1.9075,
      "duration": 0.1624,
      "velocity": 115,
      "chip": "ym2612"
    },
    {
      "channel": 4,
      "note": 76,
      "start": 2.0694,
      "duration": 0.1615,
      "velocity": 115,
      "chip": "ym2612"
    },
    {
      "channel": 5,
      "note": 64,
      "start": 2.0926,
      "duration": 0.1386,
      "velocity": 115,
      "chip": "ym2612"
    },
    {
      "channel": 4,
      "note": 64,
      "start": 2.2572,
      "duration": 0.1586,
      "velocity": 115,
      "chip": "ym2612"
    },
    {
      "channel": 5,
      "note": 52,
      "start": 2.2778,
      "duration": 0.1619,
      "velocity": 115,
      "chip": "ym2612"
    },
    {
      "channel": 4,
      "note": 52,
      "start": 2.4392,
      "duration": 0.1617,
      "velocity": 115,
      "chip": "ym2612"
    },
    {
      "channel": 5,
      "note": 64,
      "start": 2.4627,
      "duration": 0.162,
      "velocity": 115,
      "chip": "ym2612"
    },
    {
      "channel": 4,
      "note": 64,
      "start": 2.6242,
      "duration": 0.1622,
      "velocity": 115,
      "chip": "ym2612"
    },
    {
      "channel": 5,
      "note": 76,
      "start": 2.6477,
      "duration": 0.1621,
      "velocity": 115,
      "chip": "ym2612"
    },
    {
      "channel": 4,
      "note": 76,
      "start": 2.8093,
      "duration": 0.162,
      "velocity": 115,
      "chip": "ym2612"
    },
    {
      "channel": 5,
      "note": 88,
      "start": 2.8327,
      "duration": 0.1626,
      "velocity": 115,
      "chip": "ym2612"
    },
    {
      "channel": 0,
      "note": 42,
      "start": 2.9931,
      "duration": 2.197,
      "velocity": 123,
      "chip": "ym2612"
    },
    {
      "channel": 1,
      "note": 49,
      "start": 2.9936,
      "duration": 2.1968,
      "velocity": 123,
      "chip": "ym2612"
    },
    {
      "channel": 4,
      "note": 88,
      "start": 2.9949,
      "duration": 0.161,
      "velocity": 115,
      "chip": "ym2612"
    },
    {
      "channel": 5,
      "note": 76,
      "start": 3.0179,
      "duration": 0.1618,
      "velocity": 115,
      "chip": "ym2612"
    },
    {
      "channel": 2,
      "note": 42,
      "start": 3.0398,
      "duration": 2.197,
      "velocity": 116,
      "chip": "ym2612"
    },
    {
      "channel": 3,
      "note": 48,
      "start": 3.0405,
      "duration": 2.1968,
      "velocity": 116,
      "chip": "ym2612"
    },
    {
      "channel": 4,
      "note": 76,
      "start": 3.1792,
      "duration": 0.1617,
      "velocity": 115,
      "chip": "ym2612"
    },
    {
      "channel": 5,
      "note": 64,
      "start": 3.2028,
      "duration": 0.1384,
      "velocity": 115,
      "chip": "ym2612"
    },
    {
      "channel": 4,
      "note": 64,
      "start": 3.3673,
      "duration": 0.1586,
      "velocity": 115,
      "chip": "ym2612"
    },
    {
      "channel": 5,
      "note": 52,
      "start": 3.3881,
      "duration": 0.1617,
      "velocity": 115,
      "chip": "ym2612"
    },
    {
      "channel": 4,
      "note": 52,
      "start": 3.5493,
      "duration": 0.1617,
      "velocity": 115,
      "chip": "ym2612"
    },
    {
      "channel": 5,
      "note": 64,
      "start": 3.5729,
      "duration": 0.162,
      "velocity": 115,
      "chip": "ym2612"
    },
    {
      "channel": 4,
      "note": 64,
      "start": 3.7344,
      "duration": 0.1616,
      "velocity": 115,
      "chip": "ym2612"
    },
    {
      "channel": 5,
      "note": 76,
      "start": 3.758,
      "duration": 0.1621,
      "velocity": 115,
      "chip": "ym2612"
    },
    {
      "channel": 4,
      "note": 76,
      "start": 3.9196,
      "duration": 0.1615,
      "velocity": 115,
      "chip": "ym2612"
    },
    {
      "channel": 5,
      "note": 88,
      "start": 3.9429,
      "duration": 0.1624,
      "velocity": 115,
      "chip": "ym2612"
    },
    {
      "channel": 4,
      "note": 88,
      "start": 4.1049,
      "duration": 0.1613,
      "velocity": 115,
      "chip": "ym2612"
    },
    {
      "channel": 5,
      "note": 76,
      "start": 4.1279,
      "duration": 0.1622,
      "velocity": 115,
      "chip": "ym2612"
    },
    {
      "channel": 4,
      "note": 76,
      "start": 4.2897,
      "duration": 0.1616,
      "velocity": 115,
      "chip": "ym2612"
    },
    {
      "channel": 5,
      "note": 64,
      "start": 4.313,
      "duration": 0.1387,
      "velocity": 115,
      "chip": "ym2612"
    },
    {
      "channel": 4,
      "note": 64,
      "start": 4.4776,
      "duration": 0.1586,
      "velocity": 115,
      "chip": "ym2612"
    },
    {
      "channel": 5,
      "note": 52,
      "start": 4.4981,
      "duration": 0.1619,
      "velocity": 115,
      "chip": "ym2612"
    },
    {
      "channel": 4,
      "note": 52,
      "start": 4.6595,
      "duration": 0.1618,
      "velocity": 115,
      "chip": "ym2612"
    },
    {
      "channel": 5,
      "note": 64,
      "start": 4.6831,
      "duration": 0.162,
      "velocity": 115,
      "chip": "ym2612"
    },
    {
      "channel": 4,
      "note": 64,
      "start": 4.8446,
      "duration": 0.162,
      "velocity": 115,
      "chip": "ym2612"
    },
    {
      "channel": 5,
      "note": 76,
      "start": 4.8681,
      "duration": 0.1621,
      "velocity": 115,
      "chip": "ym2612"
    },
    {
      "channel": 4,
      "note": 76,
      "start": 5.0297,
      "duration": 0.1618,
      "velocity": 115,
      "chip": "ym2612"
    },
    {
      "channel": 5,
      "note": 88,
      "start": 5.0531,
      "duration": 0.1626,
      "velocity": 115,
      "chip": "ym2612"
    },
    {
      "channel": 0,
      "note": 41,
      "start": 5.2134,
      "duration": 0.7168,
      "velocity": 123,
      "chip": "ym2612"
    },
    {
      "channel": 1,
      "note": 48,
      "start": 5.214,
      "duration": 0.7166,
      "velocity": 123,
      "chip": "ym2612"
    },
    {
      "channel": 4,
      "note": 88,
      "start": 5.2152,
      "duration": 0.161,
      "velocity": 115,
      "chip": "ym2612"
    },
    {
      "channel": 5,
      "note": 76,
      "start": 5.2383,
      "duration": 0.1617,
      "velocity": 115,
      "chip": "ym2612"
    },
    {
      "channel": 2,
      "note": 41,
      "start": 5.2602,
      "duration": 0.6707,
      "velocity": 116,
      "chip": "ym2612"
    },
    {
      "channel": 3,
      "note": 49,
      "start": 5.2608,
      "duration": 0.6704,
      "velocity": 116,
      "chip": "ym2612"
    },
    {
      "channel": 4,
      "note": 76,
      "start": 5.3996,
      "duration": 0.1616,
      "velocity": 115,
      "chip": "ym2612"
    },
    {
      "channel": 5,
      "note": 64,
      "start": 5.4234,
      "duration": 0.1382,
      "velocity": 115,
      "chip": "ym2612"
    },
    {
      "channel": 4,
      "note": 64,
      "start": 5.5876,
      "duration": 0.1587,
      "velocity": 115,
      "chip": "ym2612"
    },
    {
      "channel": 5,
      "note": 52,
      "start": 5.6083,
      "duration": 0.1619,
      "velocity": 115,
      "chip": "ym2612"
    },
    {
      "channel": 4,
      "note": 52,
      "start": 5.7697,
      "duration": 0.1619,
      "velocity": 115,
      "chip": "ym2612"
    },
    {
      "channel": 5,
      "note": 64,
      "start": 5.7932,
      "duration": 0.1732,
      "velocity": 115,
      "chip": "ym2612"
    },
    {
      "channel": 0,
      "note": 40,
      "start": 5.956,
      "duration": 1.4545,
      "velocity": 123,
      "chip": "ym2612"
    },
    {
      "channel": 1,
      "note": 47,
      "start": 5.9591,
      "duration": 1.4518,
      "velocity": 123,
      "chip": "ym2612"
    },
    {
      "channel": 4,
      "note": 64,
      "start": 5.966,
      "duration": 0.1502,
      "velocity": 115,
      "chip": "ym2612"
    },
    {
      "channel": 5,
      "note": 76,
      "start": 5.9782,
      "duration": 0.1624,
      "velocity": 115,
      "chip": "ym2612"
    },
    {
      "channel": 2,
      "note": 40,
      "start": 6.0003,
      "duration": 1.4569,
      "velocity": 116,
      "chip": "ym2612"
    },
    {
      "channel": 3,
      "note": 48,
      "start": 6.001,
      "duration": 1.4568,
      "velocity": 116,
      "chip": "ym2612"
    },
    {
      "channel": 4,
      "note": 76,
      "start": 6.1398,
      "duration": 0.1616,
      "velocity": 115,
      "chip": "ym2612"
    },
    {
      "channel": 5,
      "note": 88,
      "start": 6.1632,
      "duration": 0.1623,
      "velocity": 115,
      "chip": "ym2612"
    },
    {
      "channel": 4,
      "note": 88,
      "start": 6.325,
      "duration": 0.1614,
      "velocity": 115,
      "chip": "ym2612"
    },
    {
      "channel": 5,
      "note": 76,
      "start": 6.3482,
      "duration": 0.1621,
      "velocity": 115,
      "chip": "ym2612"
    },
    {
      "channel": 4,
      "note": 76,
      "start": 6.5098,
      "duration": 0.1617,
      "velocity": 115,
      "chip": "ym2612"
    },
    {
      "channel": 5,
      "note": 64,
      "start": 6.5334,
      "duration": 0.1386,
      "velocity": 115,
      "chip": "ym2612"
    },
    {
      "channel": 4,
      "note": 64,
      "start": 6.6979,
      "duration": 0.1587,
      "velocity": 115,
      "chip": "ym2612"
    },
    {
      "channel": 5,
      "note": 52,
      "start": 6.7185,
      "duration": 0.1619,
      "velocity": 115,
      "chip": "ym2612"
    },
    {
      "channel": 4,
      "note": 52,
      "start": 6.8799,
      "duration": 0.1621,
      "velocity": 115,
      "chip": "ym2612"
    },
    {
      "channel": 5,
      "note": 64,
      "start": 6.9034,
      "duration": 0.162,
      "velocity": 115,
      "chip": "ym2612"
    },
    {
      "channel": 4,
      "note": 64,
      "start": 7.065,
      "duration": 0.1617,
      "velocity": 115,
      "chip": "ym2612"
    },
    {
      "channel": 5,
      "note": 76,
      "start": 7.0884,
      "duration": 0.162,
      "velocity": 115,
      "chip": "ym2612"
    },
    {
      "channel": 4,
      "note": 76,
      "start": 7.25,
      "duration": 0.1618,
      "velocity": 115,
      "chip": "ym2612"
    },
    {
      "channel": 5,
      "note": 88,
      "start": 7.2735,
      "duration": 0.1625,
      "velocity": 115,
      "chip": "ym2612"
    },
    {
      "channel": 0,
      "note": 41,
      "start": 7.4338,
      "duration": 1.4569,
      "velocity": 123,
      "chip": "ym2612"
    },
    {
      "channel": 1,
      "note": 48,
      "start": 7.4343,
      "duration": 1.4567,
      "velocity": 123,
      "chip": "ym2612"
    },
    {
      "channel": 4,
      "note": 88,
      "start": 7.4355,
      "duration": 0.161,
      "velocity": 115,
      "chip": "ym2612"
    },
    {
      "channel": 5,
      "note": 76,
      "start": 7.459,
      "duration": 0.1613,
      "velocity": 115,
      "chip": "ym2612"
    },
    {
      "channel": 2,
      "note": 41,
      "start": 7.4805,
      "duration": 1.4569,
      "velocity": 116,
      "chip": "ym2612"
    },
    {
      "channel": 3,
      "note": 47,
      "start": 7.4812,
      "duration": 1.4567,
      "velocity": 116,
      "chip": "ym2612"
    },
    {
      "channel": 4,
      "note": 76,
      "start": 7.6199,
      "duration": 0.1616,
      "velocity": 115,
      "chip": "ym2612"
    },
    {
      "channel": 5,
      "note": 64,
      "start": 7.6438,
      "duration": 0.1382,
      "velocity": 115,
      "chip": "ym2612"
    },
    {
      "channel": 4,
      "note": 64,
      "start": 7.8081,
      "duration": 0.1585,
      "velocity": 115,
      "chip": "ym2612"
    },
    {
      "channel": 5,
      "note": 52,
      "start": 7.8284,
      "duration": 0.1621,
      "velocity": 115,
      "chip": "ym2612"
    },
    {
      "channel": 4,
      "note": 52,
      "start": 7.99,
      "duration": 0.1617,
      "velocity": 115,
      "chip": "ym2612"
    },
    {
      "channel": 5,
      "note": 64,
      "start": 8.0136,
      "duration": 0.1622,
      "velocity": 115,
      "chip": "ym2612"
    },
    {
      "channel": 4,
      "note": 64,
      "start": 8.1753,
      "duration": 0.1615,
      "velocity": 115,
      "chip": "ym2612"
    },
    {
      "channel": 5,
      "note": 76,
      "start": 8.1988,
      "duration": 0.1624,
      "velocity": 115,
      "chip": "ym2612"
    },
    {
      "channel": 4,
      "note": 76,
      "start": 8.3607,
      "duration": 0.1612,
      "velocity": 115,
      "chip": "ym2612"
    },
    {
      "channel": 5,
      "note": 88,
      "start": 8.3836,
      "duration": 0.162,
      "velocity": 115,
      "chip": "ym2612"
    },
    {
      "channel": 4,
      "note": 88,
      "start": 8.5452,
      "duration": 0.1617,
      "velocity": 115,
      "chip": "ym2612"
    },
    {
      "channel": 5,
      "note": 76,
      "start": 8.5687,
      "duration": 0.162,
      "velocity": 115,
      "chip": "ym2612"
    },
    {
      "channel": 4,
      "note": 76,
      "start": 8.7302,
      "duration": 0.1619,
      "velocity": 115,
      "chip": "ym2612"
    },
    {
      "channel": 5,
      "note": 64,
      "start": 8.7537,
      "duration": 0.1388,
      "velocity": 115,
      "chip": "ym2612"
    },
    {
      "channel": 0,
      "note": 42,
      "start": 8.9141,
      "duration": 2.197,
      "velocity": 123,
      "chip": "ym2612"
    },
    {
      "channel": 1,
      "note": 49,
      "start": 8.9146,
      "duration": 2.1968,
      "velocity": 123,
      "chip": "ym2612"
    },
    {
      "channel": 4,
      "note": 64,
      "start": 8.9189,
      "duration": 0.158,
      "velocity": 115,
      "chip": "ym2612"
    },
    {
      "channel": 5,
      "note": 52,
      "start": 8.9389,
      "duration": 0.1618,
      "velocity": 115,
      "chip": "ym2612"
    },
    {
      "channel": 2,
      "note": 42,
      "start": 8.9612,
      "duration": 2.1966,
      "velocity": 116,
      "chip": "ym2612"
    },
    {
      "channel": 3,
      "note": 48,
      "start": 8.9618,
      "duration": 2.1964,
      "velocity": 116,
      "chip": "ym2612"
    },
    {
      "channel": 4,
      "note": 52,
      "start": 9.1002,
      "duration": 0.1619,
      "velocity": 115,
      "chip": "ym2612"
    },
    {
      "channel": 5,
      "note": 64,
      "start": 9.1236,
      "duration": 0.162,
      "velocity": 115,
      "chip": "ym2612"
    },
    {
      "channel": 4,
      "note": 64,
      "start": 9.2852,
      "duration": 0.1617,
      "velocity": 115,
      "chip": "ym2612"
    },
    {
      "channel": 5,
      "note": 76,
      "start": 9.3087,
      "duration": 0.1621,
      "velocity": 115,
      "chip": "ym2612"
    },
    {
      "channel": 4,
      "note": 76,
      "start": 9.4703,
      "duration": 0.1617,
      "velocity": 115,
      "chip": "ym2612"
    },
    {
      "channel": 5,
      "note": 88,
      "start": 9.494,
      "duration": 0.1619,
      "velocity": 115,
      "chip": "ym2612"
    },
    {
      "channel": 4,
      "note": 88,
      "start": 9.6554,
      "duration": 0.1617,
      "velocity": 115,
      "chip": "ym2612"
    },
    {
      "channel": 5,
      "note": 76,
      "start": 9.6794,
      "duration": 0.1615,
      "velocity": 115,
      "chip": "ym2612"
    },
    {
      "channel": 4,
      "note": 76,
      "start": 9.8404,
      "duration": 0.1616,
      "velocity": 115,
      "chip": "ym2612"
    },
    {
      "channel": 5,
      "note": 64,
      "start": 9.864,
      "duration": 0.1385,
      "velocity": 115,
      "chip": "ym2612"
    },
    {
      "channel": 4,
      "note": 64,
      "start": 10.029,
      "duration": 0.1582,
      "velocity": 115,
      "chip": "ym2612"
    },
    {
      "channel": 5,
      "note": 52,
      "start": 10.0489,
      "duration": 0.1622,
      "velocity": 115,
      "chip": "ym2612"
    },
    {
      "channel": 4,
      "note": 52,
      "start": 10.2105,
      "duration": 0.1617,
      "velocity": 115,
      "chip": "ym2612"
    },
    {
      "channel": 5,
      "note": 64,
      "start": 10.2339,
      "duration": 0.1626,
      "velocity": 115,
      "chip": "ym2612"
    },
    {
      "channel": 4,
      "note": 64,
      "start": 10.3961,
      "duration": 0.1611,
      "velocity": 115,
      "chip": "ym2612"
    },
    {
      "channel": 5,
      "note": 76,
      "start": 10.4191,
      "duration": 0.1622,
      "velocity": 115,
      "chip": "ym2612"
    },
    {
      "channel": 4,
      "note": 76,
      "start": 10.5808,
      "duration": 0.1613,
      "velocity": 115,
      "chip": "ym2612"
    },
    {
      "channel": 5,
      "note": 88,
      "start": 10.6041,
      "duration": 0.1619,
      "velocity": 115,
      "chip": "ym2612"
    },
    {
      "channel": 4,
      "note": 88,
      "start": 10.7656,
      "duration": 0.1617,
      "velocity": 115,
      "chip": "ym2612"
    },
    {
      "channel": 5,
      "note": 76,
      "start": 10.789,
      "duration": 0.162,
      "velocity": 115,
      "chip": "ym2612"
    },
    {
      "channel": 4,
      "note": 76,
      "start": 10.9506,
      "duration": 0.162,
      "velocity": 115,
      "chip": "ym2612"
    },
    {
      "channel": 5,
      "note": 64,
      "start": 10.974,
      "duration": 0.1389,
      "velocity": 115,
      "chip": "ym2612"
    },
    {
      "channel": 0,
      "note": 41,
      "start": 11.1344,
      "duration": 0.7168,
      "velocity": 123,
      "chip": "ym2612"
    },
    {
      "channel": 1,
      "note": 48,
      "start": 11.135,
      "duration": 0.7166,
      "velocity": 123,
      "chip": "ym2612"
    },
    {
      "channel": 4,
      "note": 64,
      "start": 11.1392,
      "duration": 0.1582,
      "velocity": 115,
      "chip": "ym2612"
    },
    {
      "channel": 5,
      "note": 52,
      "start": 11.1591,
      "duration": 0.1618,
      "velocity": 115,
      "chip": "ym2612"
    },
    {
      "channel": 2,
      "note": 41,
      "start": 11.1813,
      "duration": 0.6706,
      "velocity": 116,
      "chip": "ym2612"
    },
    {
      "channel": 3,
      "note": 49,
      "start": 11.1819,
      "duration": 0.6703,
      "velocity": 116,
      "chip": "ym2612"
    },
    {
      "channel": 4,
      "note": 52,
      "start": 11.3205,
      "duration": 0.1617,
      "velocity": 115,
      "chip": "ym2612"
    },
    {
      "channel": 5,
      "note": 64,
      "start": 11.344,
      "duration": 0.162,
      "velocity": 115,
      "chip": "ym2612"
    },
    {
      "channel": 4,
      "note": 64,
      "start": 11.5055,
      "duration": 0.1617,
      "velocity": 115,
      "chip": "ym2612"
    },
    {
      "channel": 5,
      "note": 76,
      "start": 11.529,
      "duration": 0.1621,
      "velocity": 115,
      "chip": "ym2612"
    },
    {
      "channel": 4,
      "note": 76,
      "start": 11.6906,
      "duration": 0.162,
      "velocity": 115,
      "chip": "ym2612"
    },
    {
      "channel": 5,
      "note": 88,
      "start": 11.7147,
      "duration": 0.1729,
      "velocity": 115,
      "chip": "ym2612"
    },
    {
      "channel": 0,
      "note": 40,
      "start": 11.8768,
      "duration": 1.4546,
      "velocity": 123,
      "chip": "ym2612"
    },
    {
      "channel": 1,
      "note": 47,
      "start": 11.8796,
      "duration": 1.4523,
      "velocity": 123,
      "chip": "ym2612"
    },
    {
      "channel": 4,
      "note": 88,
      "start": 11.8871,
      "duration": 0.1502,
      "velocity": 115,
      "chip": "ym2612"
    },
    {
      "channel": 5,
      "note": 76,
      "start": 11.8995,
      "duration": 0.1616,
      "velocity": 115,
      "chip": "ym2612"
    },
    {
      "channel": 2,
      "note": 40,
      "start": 11.9212,
      "duration": 1.4569,
      "velocity": 116,
      "chip": "ym2612"
    },
    {
      "channel": 3,
      "note": 48,
      "start": 11.9219,
      "duration": 1.4567,
      "velocity": 116,
      "chip": "ym2612"
    },
    {
      "channel": 4,
      "note": 76,
      "start": 12.0606,
      "duration": 0.1616,
      "velocity": 115,
      "chip": "ym2612"
    },
    {
      "channel": 5,
      "note": 64,
      "start": 12.0841,
      "duration": 0.1386,
      "velocity": 115,
      "chip": "ym2612"
    },
    {
      "channel": 4,
      "note": 64,
      "start": 12.2492,
      "duration": 0.1582,
      "velocity": 115,
      "chip": "ym2612"
    },
    {
      "channel": 5,
      "note": 52,
      "start": 12.2691,
      "duration": 0.1622,
      "velocity": 115,
      "chip": "ym2612"
    },
    {
      "channel": 4,
      "note": 52,
      "start": 12.4309,
      "duration": 0.1616,
      "velocity": 115,
      "chip": "ym2612"
    },
    {
      "channel": 5,
      "note": 64,
      "start": 12.4543,
      "duration": 0.1624,
      "velocity": 115,
      "chip": "ym2612"
    },
    {
      "channel": 4,
      "note": 64,
      "start": 12.6162,
      "duration": 0.1612,
      "velocity": 115,
      "chip": "ym2612"
    },
    {
      "channel": 5,
      "note": 76,
      "start": 12.6394,
      "duration": 0.162,
      "velocity": 115,
      "chip": "ym2612"
    },
    {
      "channel": 4,
      "note": 76,
      "start": 12.8009,
      "duration": 0.1617,
      "velocity": 115,
      "chip": "ym2612"
    },
    {
      "channel": 5,
      "note": 88,
      "start": 12.8244,
      "duration": 0.1621,
      "velocity": 115,
      "chip": "ym2612"
    },
    {
      "channel": 4,
      "note": 88,
      "start": 12.9859,
      "duration": 0.1617,
      "velocity": 115,
      "chip": "ym2612"
    },
    {
      "channel": 5,
      "note": 76,
      "start": 13.0094,
      "duration": 0.162,
      "velocity": 115,
      "chip": "ym2612"
    },
    {
      "channel": 4,
      "note": 76,
      "start": 13.171,
      "duration": 0.1623,
      "velocity": 115,
      "chip": "ym2612"
    },
    {
      "channel": 5,
      "note": 64,
      "start": 13.1944,
      "duration": 0.1392,
      "velocity": 115,
      "chip": "ym2612"
    },
    {
      "channel": 0,
      "note": 41,
      "start": 13.3548,
      "duration": 1.4569,
      "velocity": 123,
      "chip": "ym2612"
    },
    {
      "channel": 1,
      "note": 48,
      "start": 13.3553,
      "duration": 1.4567,
      "velocity": 123,
      "chip": "ym2612"
    },
    {
      "channel": 4,
      "note": 64,
      "start": 13.3596,
      "duration": 0.1582,
      "velocity": 115,
      "chip": "ym2612"
    },
    {
      "channel": 5,
      "note": 52,
      "start": 13.3796,
      "duration": 0.1617,
      "velocity": 115,
      "chip": "ym2612"
    },
    {
      "channel": 2,
      "note": 41,
      "start": 13.4015,
      "duration": 1.4569,
      "velocity": 116,
      "chip": "ym2612"
    },
    {
      "channel": 3,
      "note": 47,
      "start": 13.4021,
      "duration": 1.4567,
      "velocity": 116,
      "chip": "ym2612"
    },
    {
      "channel": 4,
      "note": 52,
      "start": 13.5409,
      "duration": 0.1616,
      "velocity": 115,
      "chip": "ym2612"
    },
    {
      "channel": 5,
      "note": 64,
      "start": 13.5643,
      "duration": 0.1621,
      "velocity": 115,
      "chip": "ym2612"
    },
    {
      "channel": 4,
      "note": 64,
      "start": 13.7259,
      "duration": 0.1617,
      "velocity": 115,
      "chip": "ym2612"
    },
    {
      "channel": 5,
      "note": 76,
      "start": 13.7495,
      "duration": 0.162,
      "velocity": 115,
      "chip": "ym2612"
    },
    {
      "channel": 4,
      "note": 76,
      "start": 13.911,
      "duration": 0.1617,
      "velocity": 115,
      "chip": "ym2612"
    },
    {
      "channel": 5,
      "note": 88,
      "start": 13.935,
      "duration": 0.1616,
      "velocity": 115,
      "chip": "ym2612"
    },
    {
      "channel": 4,
      "note": 88,
      "start": 14.0961,
      "duration": 0.1616,
      "velocity": 115,
      "chip": "ym2612"
    },
    {
      "channel": 5,
      "note": 76,
      "start": 14.1197,
      "duration": 0.1619,
      "velocity": 115,
      "chip": "ym2612"
    },
    {
      "channel": 4,
      "note": 76,
      "start": 14.2811,
      "duration": 0.1617,
      "velocity": 115,
      "chip": "ym2612"
    },
    {
      "channel": 5,
      "note": 64,
      "start": 14.3046,
      "duration": 0.1386,
      "velocity": 115,
      "chip": "ym2612"
    },
    {
      "channel": 4,
      "note": 64,
      "start": 14.4697,
      "duration": 0.1582,
      "velocity": 115,
      "chip": "ym2612"
    },
    {
      "channel": 5,
      "note": 52,
      "start": 14.4896,
      "duration": 0.1625,
      "velocity": 115,
      "chip": "ym2612"
    },
    {
      "channel": 4,
      "note": 52,
      "start": 14.6517,
      "duration": 0.1613,
      "velocity": 115,
      "chip": "ym2612"
    },
    {
      "channel": 5,
      "note": 64,
      "start": 14.6746,
      "duration": 0.1629,
      "velocity": 115,
      "chip": "ym2612"
    },
    {
      "channel": 0,
      "note": 42,
      "start": 14.8354,
      "duration": 2.1967,
      "velocity": 123,
      "chip": "ym2612"
    },
    {
      "channel": 1,
      "note": 49,
      "start": 14.8359,
      "duration": 2.1964,
      "velocity": 123,
      "chip": "ym2612"
    },
    {
      "channel": 4,
      "note": 64,
      "start": 14.8371,
      "duration": 0.1606,
      "velocity": 115,
      "chip": "ym2612"
    },
    {
      "channel": 5,
      "note": 76,
      "start": 14.8598,
      "duration": 0.1617,
      "velocity": 115,
      "chip": "ym2612"
    },
    {
      "channel": 2,
      "note": 42,
      "start": 14.8817,
      "duration": 2.1971,
      "velocity": 116,
      "chip": "ym2612"
    },
    {
      "channel": 3,
      "note": 48,
      "start": 14.8823,
      "duration": 2.1968,
      "velocity": 116,
      "chip": "ym2612"
    },
    {
      "channel": 4,
      "note": 76,
      "start": 15.0211,
      "duration": 0.1616,
      "velocity": 115,
      "chip": "ym2612"
    },
    {
      "channel": 5,
      "note": 88,
      "start": 15.0446,
      "duration": 0.162,
      "velocity": 115,
      "chip": "ym2612"
    },
    {
      "channel": 4,
      "note": 88,
      "start": 15.2061,
      "duration": 0.1618,
      "velocity": 115,
      "chip": "ym2612"
    },
    {
      "channel": 5,
      "note": 76,
      "start": 15.2296,
      "duration": 0.1621,
      "velocity": 115,
      "chip": "ym2612"
    },
    {
      "channel": 4,
      "note": 76,
      "start": 15.3912,
      "duration": 0.162,
      "velocity": 115,
      "chip": "ym2612"
    },
    {
      "channel": 5,
      "note": 64,
      "start": 15.4148,
      "duration": 0.1389,
      "velocity": 115,
      "chip": "ym2612"
    },
    {
      "channel": 4,
      "note": 64,
      "start": 15.5794,
      "duration": 0.1586,
      "velocity": 115,
      "chip": "ym2612"
    },
    {
      "channel": 5,
      "note": 52,
      "start": 15.5999,
      "duration": 0.1619,
      "velocity": 115,
      "chip": "ym2612"
    },
    {
      "channel": 4,
      "note": 52,
      "start": 15.7614,
      "duration": 0.1617,
      "velocity": 115,
      "chip": "ym2612"
    },
    {
      "channel": 5,
      "note": 64,
      "start": 15.785,
      "duration": 0.1619,
      "velocity": 115,
      "chip": "ym2612"
    },
    {
      "channel": 4,
      "note": 64,
      "start": 15.9464,
      "duration": 0.1618,
      "velocity": 115,
      "chip": "ym2612"
    },
    {
      "channel": 5,
      "note": 76,
      "start": 15.9703,
      "duration": 0.1616,
      "velocity": 115,
      "chip": "ym2612"
    },
    {
      "channel": 4,
      "note": 76,
      "start": 16.1314,
      "duration": 0.1618,
      "velocity": 115,
      "chip": "ym2612"
    },
    {
      "channel": 5,
      "note": 88,
      "start": 16.1553,
      "duration": 0.1616,
      "velocity": 115,
      "chip": "ym2612"
    },
    {
      "channel": 4,
      "note": 88,
      "start": 16.3165,
      "duration": 0.1616,
      "velocity": 115,
      "chip": "ym2612"
    },
    {
      "channel": 5,
      "note": 76,
      "start": 16.34,
      "duration": 0.1619,
      "velocity": 115,
      "chip": "ym2612"
    },
    {
      "channel": 4,
      "note": 76,
      "start": 16.5015,
      "duration": 0.1616,
      "velocity": 115,
      "chip": "ym2612"
    },
    {
      "channel": 5,
      "note": 64,
      "start": 16.5251,
      "duration": 0.1385,
      "velocity": 115,
      "chip": "ym2612"
    },
    {
      "channel": 4,
      "note": 64,
      "start": 16.6901,
      "duration": 0.1581,
      "velocity": 115,
      "chip": "ym2612"
    },
    {
      "channel": 5,
      "note": 52,
      "start": 16.71,
      "duration": 0.1624,
      "velocity": 115,
      "chip": "ym2612"
    },
    {
      "channel": 4,
      "note": 52,
      "start": 16.872,
      "duration": 0.1615,
      "velocity": 115,
      "chip": "ym2612"
    },
    {
      "channel": 5,
      "note": 64,
      "start": 16.895,
      "duration": 0.1626,
      "velocity": 115,
      "chip": "ym2612"
    },
    {
      "channel": 0,
      "note": 41,
      "start": 17.0554,
      "duration": 0.7169,
      "velocity": 123,
      "chip": "ym2612"
    },
    {
      "channel": 1,
      "note": 48,
      "start": 17.0559,
      "duration": 0.7166,
      "velocity": 123,
      "chip": "ym2612"
    },
    {
      "channel": 4,
      "note": 64,
      "start": 17.0571,
      "duration": 0.161,
      "velocity": 115,
      "chip": "ym2612"
    },
    {
      "channel": 5,
      "note": 76,
      "start": 17.0801,
      "duration": 0.1618,
      "velocity": 115,
      "chip": "ym2612"
    },
    {
      "channel": 2,
      "note": 41,
      "start": 17.1021,
      "duration": 0.6708,
      "velocity": 116,
      "chip": "ym2612"
    },
    {
      "channel": 3,
      "note": 49,
      "start": 17.1027,
      "duration": 0.6705,
      "velocity": 116,
      "chip": "ym2612"
    },
    {
      "channel": 4,
      "note": 76,
      "start": 17.2415,
      "duration": 0.1616,
      "velocity": 115,
      "chip": "ym2612"
    },
    {
      "channel": 5,
      "note": 88,
      "start": 17.2649,
      "duration": 0.162,
      "velocity": 115,
      "chip": "ym2612"
    },
    {
      "channel": 4,
      "note": 88,
      "start": 17.4265,
      "duration": 0.1622,
      "velocity": 115,
      "chip": "ym2612"
    },
    {
      "channel": 5,
      "note": 76,
      "start": 17.45,
      "duration": 0.1621,
      "velocity": 115,
      "chip": "ym2612"
    },
    {
      "channel": 4,
      "note": 76,
      "start": 17.6116,
      "duration": 0.162,
      "velocity": 115,
      "chip": "ym2612"
    },
    {
      "channel": 5,
      "note": 64,
      "start": 17.6351,
      "duration": 0.1389,
      "velocity": 115,
      "chip": "ym2612"
    },
    {
      "channel": 0,
      "note": 40,
      "start": 17.7978,
      "duration": 0.1135,
      "velocity": 123,
      "chip": "ym2612"
    },
    {
      "channel": 1,
      "note": 47,
      "start": 17.8006,
      "duration": 0.1107,
      "velocity": 123,
      "chip": "ym2612"
    },
    {
      "channel": 4,
      "note": 64,
      "start": 17.811,
      "duration": 0.1003,
      "velocity": 115,
      "chip": "ym2612"
    },
    {
      "channel": 5,
      "note": 52,
      "start": 17.8201,
      "duration": 0.0911,
      "velocity": 115,
      "chip": "ym2612"
    },
    {
      "channel": 2,
      "note": 40,
      "start": 17.8422,
      "duration": 0.069,
      "velocity": 116,
      "chip": "ym2612"
    },
    {
      "channel": 3,
      "note": 48,
      "start": 17.8429,
      "duration": 0.0684,
      "velocity": 116,
      "chip": "ym2612"
    }
  ]
}