{
  "track_name": "24 - Magic Show (2P)",
  "duration_sec": 57.302,
  "sample_rate": 44100,
  "note_count": 703,
  "unique_pitches": 38,
  "pitch_range": 57,
  "avg_note_duration": 0.3393,
  "reconstruction_stats": {
    "notes_reconstructed": 703,
    "keyon_events": 703,
    "keyoff_events": 703,
    "orphan_keyons": 0,
    "unique_pitches": 38,
    "pitch_range": 57,
    "avg_duration_sec": 0.3393
  },
  "metadata": {
    "source": "W\\World of Illusion\\24 - Magic Show (2P).vgz"
  },
  "notes": [
    {
      "channel": 0,
      "note": 79,
      "start": 0.0131,
      "duration": 0.1153,
      "velocity": 97,
      "chip": "ym2612"
    },
    {
      "channel": 1,
      "note": 60,
      "start": 0.0164,
      "duration": 1.2141,
      "velocity": 112,
      "chip": "ym2612"
    },
    {
      "channel": 2,
      "note": 37,
      "start": 0.0196,
      "duration": 0.2099,
      "velocity": 121,
      "chip": "ym2612"
    },
    {
      "channel": 4,
      "note": 79,
      "start": 0.1132,
      "duration": 0.0993,
      "velocity": 97,
      "chip": "ym2612"
    },
    {
      "channel": 0,
      "note": 79,
      "start": 0.2291,
      "duration": 0.0996,
      "velocity": 97,
      "chip": "ym2612"
    },
    {
      "channel": 2,
      "note": 37,
      "start": 0.2299,
      "duration": 0.0997,
      "velocity": 121,
      "chip": "ym2612"
    },
    {
      "channel": 4,
      "note": 79,
      "start": 0.3135,
      "duration": 0.0996,
      "velocity": 97,
      "chip": "ym2612"
    },
    {
      "channel": 0,
      "note": 79,
      "start": 0.3292,
      "duration": 0.0996,
      "velocity": 97,
      "chip": "ym2612"
    },
    {
      "channel": 2,
      "note": 37,
      "start": 0.3301,
      "duration": 0.0996,
      "velocity": 121,
      "chip": "ym2612"
    },
    {
      "channel": 4,
      "note": 79,
      "start": 0.4136,
      "duration": 0.0996,
      "velocity": 97,
      "chip": "ym2612"
    },
    {
      "channel": 0,
      "note": 79,
      "start": 0.4293,
      "duration": 0.0996,
      "velocity": 97,
      "chip": "ym2612"
    },
    {
      "channel": 2,
      "note": 37,
      "start": 0.4303,
      "duration": 0.4002,
      "velocity": 121,
      "chip": "ym2612"
    },
    {
      "channel": 4,
      "note": 79,
      "start": 0.5137,
      "duration": 0.0993,
      "velocity": 97,
      "chip": "ym2612"
    },
    {
      "channel": 0,
      "note": 79,
      "start": 0.6296,
      "duration": 0.0996,
      "velocity": 97,
      "chip": "ym2612"
    },
    {
      "channel": 4,
      "note": 79,
      "start": 0.714,
      "duration": 0.0994,
      "velocity": 97,
      "chip": "ym2612"
    },
    {
      "channel": 0,
      "note": 79,
      "start": 0.8298,
      "duration": 0.0996,
      "velocity": 97,
      "chip": "ym2612"
    },
    {
      "channel": 2,
      "note": 37,
      "start": 0.831,
      "duration": 0.4,
      "velocity": 121,
      "chip": "ym2612"
    },
    {
      "channel": 4,
      "note": 79,
      "start": 0.9142,
      "duration": 0.0994,
      "velocity": 97,
      "chip": "ym2612"
    },
    {
      "channel": 0,
      "note": 79,
      "start": 1.0301,
      "duration": 0.0996,
      "velocity": 97,
      "chip": "ym2612"
    },
    {
      "channel": 4,
      "note": 79,
      "start": 1.1145,
      "duration": 0.0993,
      "velocity": 97,
      "chip": "ym2612"
    },
    {
      "channel": 0,
      "note": 80,
      "start": 1.2303,
      "duration": 0.0996,
      "velocity": 97,
      "chip": "ym2612"
    },
    {
      "channel": 1,
      "note": 60,
      "start": 1.2309,
      "duration": 1.2012,
      "velocity": 112,
      "chip": "ym2612"
    },
    {
      "channel": 2,
      "note": 37,
      "start": 1.2315,
      "duration": 0.1995,
      "velocity": 121,
      "chip": "ym2612"
    },
    {
      "channel": 4,
      "note": 80,
      "start": 1.3147,
      "duration": 0.0994,
      "velocity": 97,
      "chip": "ym2612"
    },
    {
      "channel": 0,
      "note": 80,
      "start": 1.4306,
      "duration": 0.0996,
      "velocity": 97,
      "chip": "ym2612"
    },
    {
      "channel": 2,
      "note": 37,
      "start": 1.4314,
      "duration": 0.0998,
      "velocity": 121,
      "chip": "ym2612"
    },
    {
      "channel": 4,
      "note": 80,
      "start": 1.515,
      "duration": 0.0996,
      "velocity": 97,
      "chip": "ym2612"
    },
    {
      "channel": 0,
      "note": 80,
      "start": 1.5307,
      "duration": 0.0996,
      "velocity": 97,
      "chip": "ym2612"
    },
    {
      "channel": 2,
      "note": 37,
      "start": 1.5317,
      "duration": 0.0996,
      "velocity": 121,
      "chip": "ym2612"
    },
    {
      "channel": 4,
      "note": 80,
      "start": 1.6151,
      "duration": 0.0996,
      "velocity": 97,
      "chip": "ym2612"
    },
    {
      "channel": 0,
      "note": 80,
      "start": 1.6309,
      "duration": 0.0996,
      "velocity": 97,
      "chip": "ym2612"
    },
    {
      "channel": 2,
      "note": 37,
      "start": 1.6318,
      "duration": 0.4002,
      "velocity": 121,
      "chip": "ym2612"
    },
    {
      "channel": 4,
      "note": 80,
      "start": 1.7153,
      "duration": 0.0994,
      "velocity": 97,
      "chip": "ym2612"
    },
    {
      "channel": 0,
      "note": 80,
      "start": 1.8311,
      "duration": 0.0996,
      "velocity": 97,
      "chip": "ym2612"
    },
    {
      "channel": 4,
      "note": 80,
      "start": 1.9155,
      "duration": 0.0994,
      "velocity": 97,
      "chip": "ym2612"
    },
    {
      "channel": 0,
      "note": 80,
      "start": 2.0314,
      "duration": 0.0996,
      "velocity": 97,
      "chip": "ym2612"
    },
    {
      "channel": 2,
      "note": 37,
      "start": 2.0325,
      "duration": 0.4,
      "velocity": 121,
      "chip": "ym2612"
    },
    {
      "channel": 4,
      "note": 80,
      "start": 2.1158,
      "duration": 0.0993,
      "velocity": 97,
      "chip": "ym2612"
    },
    {
      "channel": 0,
      "note": 80,
      "start": 2.2316,
      "duration": 0.0996,
      "velocity": 97,
      "chip": "ym2612"
    },
    {
      "channel": 4,
      "note": 80,
      "start": 2.316,
      "duration": 0.0994,
      "velocity": 97,
      "chip": "ym2612"
    },
    {
      "channel": 0,
      "note": 81,
      "start": 2.4319,
      "duration": 0.0996,
      "velocity": 97,
      "chip": "ym2612"
    },
    {
      "channel": 1,
      "note": 60,
      "start": 2.4324,
      "duration": 0.1992,
      "velocity": 112,
      "chip": "ym2612"
    },
    {
      "channel": 2,
      "note": 37,
      "start": 2.4331,
      "duration": 0.4,
      "velocity": 121,
      "chip": "ym2612"
    },
    {
      "channel": 4,
      "note": 81,
      "start": 2.5163,
      "duration": 0.0993,
      "velocity": 97,
      "chip": "ym2612"
    },
    {
      "channel": 0,
      "note": 81,
      "start": 2.8322,
      "duration": 0.0998,
      "velocity": 97,
      "chip": "ym2612"
    },
    {
      "channel": 1,
      "note": 60,
      "start": 2.8329,
      "duration": 0.1993,
      "velocity": 112,
      "chip": "ym2612"
    },
    {
      "channel": 2,
      "note": 37,
      "start": 2.8336,
      "duration": 0.4002,
      "velocity": 121,
      "chip": "ym2612"
    },
    {
      "channel": 4,
      "note": 81,
      "start": 2.9166,
      "duration": 0.0995,
      "velocity": 97,
      "chip": "ym2612"
    },
    {
      "channel": 0,
      "note": 84,
      "start": 3.2329,
      "duration": 0.0996,
      "velocity": 97,
      "chip": "ym2612"
    },
    {
      "channel": 1,
      "note": 63,
      "start": 3.2336,
      "duration": 0.1991,
      "velocity": 112,
      "chip": "ym2612"
    },
    {
      "channel": 2,
      "note": 37,
      "start": 3.2343,
      "duration": 0.4,
      "velocity": 121,
      "chip": "ym2612"
    },
    {
      "channel": 4,
      "note": 84,
      "start": 3.3173,
      "duration": 0.0993,
      "velocity": 97,
      "chip": "ym2612"
    },
    {
      "channel": 0,
      "note": 83,
      "start": 3.6334,
      "duration": 0.4,
      "velocity": 97,
      "chip": "ym2612"
    },
    {
      "channel": 1,
      "note": 62,
      "start": 3.6341,
      "duration": 0.4,
      "velocity": 112,
      "chip": "ym2612"
    },
    {
      "channel": 2,
      "note": 37,
      "start": 3.6348,
      "duration": 0.4022,
      "velocity": 127,
      "chip": "ym2612"
    },
    {
      "channel": 4,
      "note": 83,
      "start": 3.7179,
      "duration": 0.3999,
      "velocity": 97,
      "chip": "ym2612"
    },
    {
      "channel": 0,
      "note": 91,
      "start": 4.034,
      "duration": 0.0996,
      "velocity": 97,
      "chip": "ym2612"
    },
    {
      "channel": 1,
      "note": 55,
      "start": 4.0346,
      "duration": 0.1991,
      "velocity": 112,
      "chip": "ym2612"
    },
    {
      "channel": 2,
      "note": 70,
      "start": 4.0375,
      "duration": 0.8008,
      "velocity": 124,
      "chip": "ym2612"
    },
    {
      "channel": 4,
      "note": 91,
      "start": 4.1184,
      "duration": 0.0993,
      "velocity": 97,
      "chip": "ym2612"
    },
    {
      "channel": 0,
      "note": 79,
      "start": 4.8351,
      "duration": 0.6669,
      "velocity": 97,
      "chip": "ym2612"
    },
    {
      "channel": 1,
      "note": 60,
      "start": 4.8359,
      "duration": 0.8003,
      "velocity": 112,
      "chip": "ym2612"
    },
    {
      "channel": 2,
      "note": 45,
      "start": 4.8389,
      "duration": 0.3989,
      "velocity": 121,
      "chip": "ym2612"
    },
    {
      "channel": 4,
      "note": 79,
      "start": 4.9863,
      "duration": 0.6666,
      "velocity": 97,
      "chip": "ym2612"
    },
    {
      "channel": 2,
      "note": 37,
      "start": 5.2383,
      "duration": 0.3982,
      "velocity": 121,
      "chip": "ym2612"
    },
    {
      "channel": 0,
      "note": 78,
      "start": 5.5025,
      "duration": 0.1329,
      "velocity": 97,
      "chip": "ym2612"
    },
    {
      "channel": 0,
      "note": 79,
      "start": 5.636,
      "duration": 0.2665,
      "velocity": 97,
      "chip": "ym2612"
    },
    {
      "channel": 2,
      "note": 37,
      "start": 5.637,
      "duration": 0.4027,
      "velocity": 124,
      "chip": "ym2612"
    },
    {
      "channel": 4,
      "note": 78,
      "start": 5.6534,
      "duration": 0.1329,
      "velocity": 97,
      "chip": "ym2612"
    },
    {
      "channel": 4,
      "note": 79,
      "start": 5.787,
      "duration": 0.2667,
      "velocity": 97,
      "chip": "ym2612"
    },
    {
      "channel": 0,
      "note": 80,
      "start": 5.903,
      "duration": 0.1329,
      "velocity": 97,
      "chip": "ym2612"
    },
    {
      "channel": 0,
      "note": 81,
      "start": 6.0366,
      "duration": 0.667,
      "velocity": 97,
      "chip": "ym2612"
    },
    {
      "channel": 1,
      "note": 55,
      "start": 6.0372,
      "duration": 0.8005,
      "velocity": 112,
      "chip": "ym2612"
    },
    {
      "channel": 2,
      "note": 45,
      "start": 6.0402,
      "duration": 0.3991,
      "velocity": 121,
      "chip": "ym2612"
    },
    {
      "channel": 4,
      "note": 80,
      "start": 6.0542,
      "duration": 0.1329,
      "velocity": 97,
      "chip": "ym2612"
    },
    {
      "channel": 4,
      "note": 81,
      "start": 6.1877,
      "duration": 0.6667,
      "velocity": 97,
      "chip": "ym2612"
    },
    {
      "channel": 2,
      "note": 37,
      "start": 6.4398,
      "duration": 0.3982,
      "velocity": 121,
      "chip": "ym2612"
    },
    {
      "channel": 0,
      "note": 80,
      "start": 6.7041,
      "duration": 0.133,
      "velocity": 97,
      "chip": "ym2612"
    },
    {
      "channel": 0,
      "note": 81,
      "start": 6.8376,
      "duration": 0.2664,
      "velocity": 97,
      "chip": "ym2612"
    },
    {
      "channel": 2,
      "note": 37,
      "start": 6.8385,
      "duration": 0.4027,
      "velocity": 124,
      "chip": "ym2612"
    },
    {
      "channel": 4,
      "note": 80,
      "start": 6.855,
      "duration": 0.1329,
      "velocity": 97,
      "chip": "ym2612"
    },
    {
      "channel": 4,
      "note": 81,
      "start": 6.9885,
      "duration": 0.2667,
      "velocity": 97,
      "chip": "ym2612"
    },
    {
      "channel": 0,
      "note": 82,
      "start": 7.1046,
      "duration": 0.1329,
      "velocity": 97,
      "chip": "ym2612"
    },
    {
      "channel": 0,
      "note": 83,
      "start": 7.2381,
      "duration": 0.2665,
      "velocity": 97,
      "chip": "ym2612"
    },
    {
      "channel": 1,
      "note": 62,
      "start": 7.2388,
      "duration": 0.8005,
      "velocity": 112,
      "chip": "ym2612"
    },
    {
      "channel": 2,
      "note": 45,
      "start": 7.2417,
      "duration": 0.3995,
      "velocity": 121,
      "chip": "ym2612"
    },
    {
      "channel": 4,
      "note": 82,
      "start": 7.2557,
      "duration": 0.1329,
      "velocity": 97,
      "chip": "ym2612"
    },
    {
      "channel": 4,
      "note": 83,
      "start": 7.3893,
      "duration": 0.2664,
      "velocity": 97,
      "chip": "ym2612"
    },
    {
      "channel": 0,
      "note": 91,
      "start": 7.5051,
      "duration": 0.1329,
      "velocity": 97,
      "chip": "ym2612"
    },
    {
      "channel": 0,
      "note": 83,
      "start": 7.6386,
      "duration": 0.2665,
      "velocity": 97,
      "chip": "ym2612"
    },
    {
      "channel": 2,
      "note": 37,
      "start": 7.6418,
      "duration": 0.3978,
      "velocity": 121,
      "chip": "ym2612"
    },
    {
      "channel": 4,
      "note": 91,
      "start": 7.6563,
      "duration": 0.1329,
      "velocity": 97,
      "chip": "ym2612"
    },
    {
      "channel": 4,
      "note": 83,
      "start": 7.7898,
      "duration": 0.2662,
      "velocity": 97,
      "chip": "ym2612"
    },
    {
      "channel": 0,
      "note": 91,
      "start": 7.9056,
      "duration": 0.1329,
      "velocity": 97,
      "chip": "ym2612"
    },
    {
      "channel": 0,
      "note": 83,
      "start": 8.0391,
      "duration": 0.2664,
      "velocity": 97,
      "chip": "ym2612"
    },
    {
      "channel": 2,
      "note": 37,
      "start": 8.0401,
      "duration": 0.4027,
      "velocity": 124,
      "chip": "ym2612"
    },
    {
      "channel": 4,
      "note": 91,
      "start": 8.0566,
      "duration": 0.1329,
      "velocity": 97,
      "chip": "ym2612"
    },
    {
      "channel": 4,
      "note": 83,
      "start": 8.19,
      "duration": 0.2667,
      "velocity": 97,
      "chip": "ym2612"
    },
    {
      "channel": 0,
      "note": 91,
      "start": 8.3061,
      "duration": 0.1329,
      "velocity": 97,
      "chip": "ym2612"
    },
    {
      "channel": 0,
      "note": 83,
      "start": 8.4397,
      "duration": 1.2011,
      "velocity": 97,
      "chip": "ym2612"
    },
    {
      "channel": 1,
      "note": 55,
      "start": 8.4403,
      "duration": 0.8003,
      "velocity": 112,
      "chip": "ym2612"
    },
    {
      "channel": 2,
      "note": 45,
      "start": 8.4433,
      "duration": 0.3991,
      "velocity": 121,
      "chip": "ym2612"
    },
    {
      "channel": 4,
      "note": 91,
      "start": 8.4573,
      "duration": 0.1329,
      "velocity": 97,
      "chip": "ym2612"
    },
    {
      "channel": 4,
      "note": 83,
      "start": 8.5908,
      "duration": 1.2014,
      "velocity": 97,
      "chip": "ym2612"
    },
    {
      "channel": 2,
      "note": 37,
      "start": 8.8429,
      "duration": 0.2643,
      "velocity": 121,
      "chip": "ym2612"
    },
    {
      "channel": 3,
      "note": 67,
      "start": 8.8436,
      "duration": 0.1304,
      "velocity": 103,
      "chip": "ym2612"
    },
    {
      "channel": 3,
      "note": 68,
      "start": 8.9745,
      "duration": 0.1332,
      "velocity": 103,
      "chip": "ym2612"
    },
    {
      "channel": 5,
      "note": 67,
      "start": 8.9918,
      "duration": 0.1329,
      "velocity": 103,
      "chip": "ym2612"
    },
    {
      "channel": 2,
      "note": 37,
      "start": 9.1076,
      "duration": 0.1333,
      "velocity": 121,
      "chip": "ym2612"
    },
    {
      "channel": 3,
      "note": 69,
      "start": 9.1083,
      "duration": 0.1332,
      "velocity": 103,
      "chip": "ym2612"
    },
    {
      "channel": 5,
      "note": 68,
      "start": 9.1253,
      "duration": 0.1327,
      "velocity": 103,
      "chip": "ym2612"
    },
    {
      "channel": 2,
      "note": 37,
      "start": 9.2413,
      "duration": 0.4033,
      "velocity": 124,
      "chip": "ym2612"
    },
    {
      "channel": 3,
      "note": 70,
      "start": 9.242,
      "duration": 0.1323,
      "velocity": 103,
      "chip": "ym2612"
    },
    {
      "channel": 5,
      "note": 69,
      "start": 9.2586,
      "duration": 0.1332,
      "velocity": 103,
      "chip": "ym2612"
    },
    {
      "channel": 3,
      "note": 69,
      "start": 9.3748,
      "duration": 0.133,
      "velocity": 103,
      "chip": "ym2612"
    },
    {
      "channel": 5,
      "note": 70,
      "start": 9.3923,
      "duration": 0.1328,
      "velocity": 103,
      "chip": "ym2612"
    },
    {
      "channel": 3,
      "note": 68,
      "start": 9.5083,
      "duration": 0.1371,
      "velocity": 103,
      "chip": "ym2612"
    },
    {
      "channel": 5,
      "note": 69,
      "start": 9.5256,
      "duration": 0.1333,
      "velocity": 103,
      "chip": "ym2612"
    },
    {
      "channel": 0,
      "note": 93,
      "start": 9.6413,
      "duration": 0.2663,
      "velocity": 97,
      "chip": "ym2612"
    },
    {
      "channel": 1,
      "note": 59,
      "start": 9.6421,
      "duration": 0.8003,
      "velocity": 112,
      "chip": "ym2612"
    },
    {
      "channel": 2,
      "note": 44,
      "start": 9.6453,
      "duration": 0.399,
      "velocity": 121,
      "chip": "ym2612"
    },
    {
      "channel": 3,
      "note": 67,
      "start": 9.646,
      "duration": 1.2009,
      "velocity": 103,
      "chip": "ym2612"
    },
    {
      "channel": 5,
      "note": 68,
      "start": 9.6595,
      "duration": 0.1335,
      "velocity": 103,
      "chip": "ym2612"
    },
    {
      "channel": 4,
      "note": 93,
      "start": 9.7928,
      "duration": 0.2663,
      "velocity": 97,
      "chip": "ym2612"
    },
    {
      "channel": 5,
      "note": 67,
      "start": 9.7935,
      "duration": 1.2008,
      "velocity": 103,
      "chip": "ym2612"
    },
    {
      "channel": 0,
      "note": 92,
      "start": 9.9082,
      "duration": 0.1329,
      "velocity": 97,
      "chip": "ym2612"
    },
    {
      "channel": 0,
      "note": 91,
      "start": 10.0417,
      "duration": 0.2665,
      "velocity": 97,
      "chip": "ym2612"
    },
    {
      "channel": 2,
      "note": 36,
      "start": 10.045,
      "duration": 0.3976,
      "velocity": 121,
      "chip": "ym2612"
    },
    {
      "channel": 4,
      "note": 92,
      "start": 10.0597,
      "duration": 0.1329,
      "velocity": 97,
      "chip": "ym2612"
    },
    {
      "channel": 4,
      "note": 91,
      "start": 10.1932,
      "duration": 0.2662,
      "velocity": 97,
      "chip": "ym2612"
    },
    {
      "channel": 0,
      "note": 90,
      "start": 10.3087,
      "duration": 0.1329,
      "velocity": 97,
      "chip": "ym2612"
    },
    {
      "channel": 0,
      "note": 89,
      "start": 10.4422,
      "duration": 0.2665,
      "velocity": 97,
      "chip": "ym2612"
    },
    {
      "channel": 2,
      "note": 36,
      "start": 10.4434,
      "duration": 0.4026,
      "velocity": 124,
      "chip": "ym2612"
    },
    {
      "channel": 4,
      "note": 90,
      "start": 10.46,
      "duration": 0.1329,
      "velocity": 97,
      "chip": "ym2612"
    },
    {
      "channel": 4,
      "note": 89,
      "start": 10.5935,
      "duration": 0.2664,
      "velocity": 97,
      "chip": "ym2612"
    },
    {
      "channel": 0,
      "note": 88,
      "start": 10.7092,
      "duration": 0.1329,
      "velocity": 97,
      "chip": "ym2612"
    },
    {
      "channel": 0,
      "note": 86,
      "start": 10.8427,
      "duration": 0.4,
      "velocity": 97,
      "chip": "ym2612"
    },
    {
      "channel": 1,
      "note": 55,
      "start": 10.8434,
      "duration": 0.7999,
      "velocity": 112,
      "chip": "ym2612"
    },
    {
      "channel": 2,
      "note": 44,
      "start": 10.8466,
      "duration": 0.3992,
      "velocity": 121,
      "chip": "ym2612"
    },
    {
      "channel": 4,
      "note": 88,
      "start": 10.8605,
      "duration": 0.1329,
      "velocity": 97,
      "chip": "ym2612"
    },
    {
      "channel": 4,
      "note": 86,
      "start": 10.994,
      "duration": 0.3997,
      "velocity": 97,
      "chip": "ym2612"
    },
    {
      "channel": 0,
      "note": 91,
      "start": 11.2433,
      "duration": 0.0996,
      "velocity": 97,
      "chip": "ym2612"
    },
    {
      "channel": 2,
      "note": 36,
      "start": 11.2466,
      "duration": 0.397,
      "velocity": 121,
      "chip": "ym2612"
    },
    {
      "channel": 4,
      "note": 91,
      "start": 11.3943,
      "duration": 0.0996,
      "velocity": 97,
      "chip": "ym2612"
    },
    {
      "channel": 2,
      "note": 36,
      "start": 11.6443,
      "duration": 0.4032,
      "velocity": 124,
      "chip": "ym2612"
    },
    {
      "channel": 0,
      "note": 79,
      "start": 11.9108,
      "duration": 0.133,
      "velocity": 97,
      "chip": "ym2612"
    },
    {
      "channel": 0,
      "note": 81,
      "start": 12.0443,
      "duration": 0.667,
      "velocity": 97,
      "chip": "ym2612"
    },
    {
      "channel": 1,
      "note": 60,
      "start": 12.045,
      "duration": 0.8005,
      "velocity": 112,
      "chip": "ym2612"
    },
    {
      "channel": 2,
      "note": 44,
      "start": 12.0482,
      "duration": 0.3988,
      "velocity": 121,
      "chip": "ym2612"
    },
    {
      "channel": 4,
      "note": 79,
      "start": 12.062,
      "duration": 0.1329,
      "velocity": 97,
      "chip": "ym2612"
    },
    {
      "channel": 4,
      "note": 81,
      "start": 12.1956,
      "duration": 0.6667,
      "velocity": 97,
      "chip": "ym2612"
    },
    {
      "channel": 2,
      "note": 36,
      "start": 12.4477,
      "duration": 0.398,
      "velocity": 121,
      "chip": "ym2612"
    },
    {
      "channel": 0,
      "note": 80,
      "start": 12.7118,
      "duration": 0.1329,
      "velocity": 97,
      "chip": "ym2612"
    },
    {
      "channel": 0,
      "note": 81,
      "start": 12.8453,
      "duration": 0.2664,
      "velocity": 97,
      "chip": "ym2612"
    },
    {
      "channel": 2,
      "note": 36,
      "start": 12.8465,
      "duration": 0.4025,
      "velocity": 124,
      "chip": "ym2612"
    },
    {
      "channel": 4,
      "note": 80,
      "start": 12.8628,
      "duration": 0.1329,
      "velocity": 97,
      "chip": "ym2612"
    },
    {
      "channel": 4,
      "note": 81,
      "start": 12.9963,
      "duration": 0.2667,
      "velocity": 97,
      "chip": "ym2612"
    },
    {
      "channel": 0,
      "note": 80,
      "start": 13.1123,
      "duration": 0.133,
      "velocity": 97,
      "chip": "ym2612"
    },
    {
      "channel": 0,
      "note": 79,
      "start": 13.2458,
      "duration": 1.2011,
      "velocity": 97,
      "chip": "ym2612"
    },
    {
      "channel": 1,
      "note": 55,
      "start": 13.2465,
      "duration": 0.8003,
      "velocity": 112,
      "chip": "ym2612"
    },
    {
      "channel": 2,
      "note": 44,
      "start": 13.2496,
      "duration": 0.399,
      "velocity": 127,
      "chip": "ym2612"
    },
    {
      "channel": 4,
      "note": 80,
      "start": 13.2636,
      "duration": 0.1329,
      "velocity": 97,
      "chip": "ym2612"
    },
    {
      "channel": 4,
      "note": 79,
      "start": 13.3971,
      "duration": 1.2013,
      "velocity": 97,
      "chip": "ym2612"
    },
    {
      "channel": 2,
      "note": 70,
      "start": 13.6494,
      "duration": 0.8013,
      "velocity": 124,
      "chip": "ym2612"
    },
    {
      "channel": 3,
      "note": 67,
      "start": 13.6501,
      "duration": 0.1302,
      "velocity": 103,
      "chip": "ym2612"
    },
    {
      "channel": 3,
      "note": 69,
      "start": 13.7808,
      "duration": 0.1329,
      "velocity": 103,
      "chip": "ym2612"
    },
    {
      "channel": 5,
      "note": 67,
      "start": 13.7981,
      "duration": 0.1329,
      "velocity": 103,
      "chip": "ym2612"
    },
    {
      "channel": 3,
      "note": 67,
      "start": 13.9143,
      "duration": 0.1332,
      "velocity": 103,
      "chip": "ym2612"
    },
    {
      "channel": 5,
      "note": 69,
      "start": 13.9316,
      "duration": 0.1327,
      "velocity": 103,
      "chip": "ym2612"
    },
    {
      "channel": 3,
      "note": 65,
      "start": 14.048,
      "duration": 0.1325,
      "velocity": 103,
      "chip": "ym2612"
    },
    {
      "channel": 5,
      "note": 67,
      "start": 14.0649,
      "duration": 0.1332,
      "velocity": 103,
      "chip": "ym2612"
    },
    {
      "channel": 3,
      "note": 67,
      "start": 14.1811,
      "duration": 0.133,
      "velocity": 103,
      "chip": "ym2612"
    },
    {
      "channel": 5,
      "note": 65,
      "start": 14.1986,
      "duration": 0.1328,
      "velocity": 103,
      "chip": "ym2612"
    },
    {
      "channel": 3,
      "note": 65,
      "start": 14.3146,
      "duration": 0.1369,
      "velocity": 103,
      "chip": "ym2612"
    },
    {
      "channel": 5,
      "note": 67,
      "start": 14.3319,
      "duration": 0.1332,
      "velocity": 103,
      "chip": "ym2612"
    },
    {
      "channel": 0,
      "note": 79,
      "start": 14.4475,
      "duration": 0.6669,
      "velocity": 97,
      "chip": "ym2612"
    },
    {
      "channel": 1,
      "note": 60,
      "start": 14.4483,
      "duration": 0.8003,
      "velocity": 112,
      "chip": "ym2612"
    },
    {
      "channel": 2,
      "note": 45,
      "start": 14.4514,
      "duration": 0.3987,
      "velocity": 121,
      "chip": "ym2612"
    },
    {
      "channel": 3,
      "note": 64,
      "start": 14.4521,
      "duration": 1.2009,
      "velocity": 103,
      "chip": "ym2612"
    },
    {
      "channel": 5,
      "note": 65,
      "start": 14.4656,
      "duration": 0.1335,
      "velocity": 103,
      "chip": "ym2612"
    },
    {
      "channel": 4,
      "note": 79,
      "start": 14.599,
      "duration": 0.6666,
      "velocity": 97,
      "chip": "ym2612"
    },
    {
      "channel": 5,
      "note": 64,
      "start": 14.5997,
      "duration": 1.2008,
      "velocity": 103,
      "chip": "ym2612"
    },
    {
      "channel": 2,
      "note": 37,
      "start": 14.8508,
      "duration": 0.398,
      "velocity": 121,
      "chip": "ym2612"
    },
    {
      "channel": 0,
      "note": 78,
      "start": 15.1149,
      "duration": 0.1329,
      "velocity": 97,
      "chip": "ym2612"
    },
    {
      "channel": 0,
      "note": 79,
      "start": 15.2484,
      "duration": 0.2665,
      "velocity": 97,
      "chip": "ym2612"
    },
    {
      "channel": 2,
      "note": 37,
      "start": 15.2495,
      "duration": 0.4025,
      "velocity": 124,
      "chip": "ym2612"
    },
    {
      "channel": 4,
      "note": 78,
      "start": 15.2662,
      "duration": 0.1329,
      "velocity": 97,
      "chip": "ym2612"
    },
    {
      "channel": 4,
      "note": 79,
      "start": 15.3997,
      "duration": 0.2665,
      "velocity": 97,
      "chip": "ym2612"
    },
    {
      "channel": 0,
      "note": 80,
      "start": 15.5154,
      "duration": 0.1329,
      "velocity": 97,
      "chip": "ym2612"
    },
    {
      "channel": 0,
      "note": 81,
      "start": 15.6489,
      "duration": 0.667,
      "velocity": 97,
      "chip": "ym2612"
    },
    {
      "channel": 1,
      "note": 55,
      "start": 15.6496,
      "duration": 0.8005,
      "velocity": 112,
      "chip": "ym2612"
    },
    {
      "channel": 2,
      "note": 45,
      "start": 15.6527,
      "duration": 0.3989,
      "velocity": 121,
      "chip": "ym2612"
    },
    {
      "channel": 4,
      "note": 80,
      "start": 15.6667,
      "duration": 0.133,
      "velocity": 97,
      "chip": "ym2612"
    },
    {
      "channel": 4,
      "note": 81,
      "start": 15.8002,
      "duration": 0.6667,
      "velocity": 97,
      "chip": "ym2612"
    },
    {
      "channel": 2,
      "note": 37,
      "start": 16.0524,
      "duration": 0.398,
      "velocity": 121,
      "chip": "ym2612"
    },
    {
      "channel": 0,
      "note": 80,
      "start": 16.3164,
      "duration": 0.133,
      "velocity": 97,
      "chip": "ym2612"
    },
    {
      "channel": 0,
      "note": 81,
      "start": 16.45,
      "duration": 0.2665,
      "velocity": 97,
      "chip": "ym2612"
    },
    {
      "channel": 2,
      "note": 37,
      "start": 16.4511,
      "duration": 0.4025,
      "velocity": 124,
      "chip": "ym2612"
    },
    {
      "channel": 4,
      "note": 80,
      "start": 16.4675,
      "duration": 0.1329,
      "velocity": 97,
      "chip": "ym2612"
    },
    {
      "channel": 4,
      "note": 81,
      "start": 16.601,
      "duration": 0.2667,
      "velocity": 97,
      "chip": "ym2612"
    },
    {
      "channel": 0,
      "note": 82,
      "start": 16.717,
      "duration": 0.1329,
      "velocity": 97,
      "chip": "ym2612"
    },
    {
      "channel": 0,
      "note": 83,
      "start": 16.8505,
      "duration": 0.2665,
      "velocity": 97,
      "chip": "ym2612"
    },
    {
      "channel": 1,
      "note": 62,
      "start": 16.8512,
      "duration": 0.8005,
      "velocity": 112,
      "chip": "ym2612"
    },
    {
      "channel": 2,
      "note": 45,
      "start": 16.8543,
      "duration": 0.3993,
      "velocity": 121,
      "chip": "ym2612"
    },
    {
      "channel": 4,
      "note": 82,
      "start": 16.8682,
      "duration": 0.1329,
      "velocity": 97,
      "chip": "ym2612"
    },
    {
      "channel": 4,
      "note": 83,
      "start": 17.0017,
      "duration": 0.2664,
      "velocity": 97,
      "chip": "ym2612"
    },
    {
      "channel": 0,
      "note": 91,
      "start": 17.1175,
      "duration": 0.1329,
      "velocity": 97,
      "chip": "ym2612"
    },
    {
      "channel": 0,
      "note": 83,
      "start": 17.251,
      "duration": 0.2664,
      "velocity": 97,
      "chip": "ym2612"
    },
    {
      "channel": 2,
      "note": 37,
      "start": 17.2543,
      "duration": 0.3976,
      "velocity": 121,
      "chip": "ym2612"
    },
    {
      "channel": 4,
      "note": 91,
      "start": 17.2688,
      "duration": 0.1329,
      "velocity": 97,
      "chip": "ym2612"
    },
    {
      "channel": 4,
      "note": 83,
      "start": 17.4022,
      "duration": 0.2662,
      "velocity": 97,
      "chip": "ym2612"
    },
    {
      "channel": 0,
      "note": 91,
      "start": 17.518,
      "duration": 0.1329,
      "velocity": 97,
      "chip": "ym2612"
    },
    {
      "channel": 0,
      "note": 83,
      "start": 17.6515,
      "duration": 0.2665,
      "velocity": 97,
      "chip": "ym2612"
    },
    {
      "channel": 2,
      "note": 37,
      "start": 17.6526,
      "duration": 0.4025,
      "velocity": 124,
      "chip": "ym2612"
    },
    {
      "channel": 4,
      "note": 91,
      "start": 17.669,
      "duration": 0.1329,
      "velocity": 97,
      "chip": "ym2612"
    },
    {
      "channel": 4,
      "note": 83,
      "start": 17.8025,
      "duration": 0.2667,
      "velocity": 97,
      "chip": "ym2612"
    },
    {
      "channel": 0,
      "note": 91,
      "start": 17.9185,
      "duration": 0.1329,
      "velocity": 97,
      "chip": "ym2612"
    },
    {
      "channel": 0,
      "note": 83,
      "start": 18.052,
      "duration": 1.2011,
      "velocity": 97,
      "chip": "ym2612"
    },
    {
      "channel": 1,
      "note": 55,
      "start": 18.0527,
      "duration": 0.8003,
      "velocity": 112,
      "chip": "ym2612"
    },
    {
      "channel": 2,
      "note": 45,
      "start": 18.0558,
      "duration": 0.3989,
      "velocity": 121,
      "chip": "ym2612"
    },
    {
      "channel": 4,
      "note": 91,
      "start": 18.0698,
      "duration": 0.1329,
      "velocity": 97,
      "chip": "ym2612"
    },
    {
      "channel": 4,
      "note": 83,
      "start": 18.2033,
      "duration": 1.2013,
      "velocity": 97,
      "chip": "ym2612"
    },
    {
      "channel": 2,
      "note": 37,
      "start": 18.4554,
      "duration": 0.2641,
      "velocity": 121,
      "chip": "ym2612"
    },
    {
      "channel": 3,
      "note": 67,
      "start": 18.4561,
      "duration": 0.1303,
      "velocity": 103,
      "chip": "ym2612"
    },
    {
      "channel": 3,
      "note": 68,
      "start": 18.587,
      "duration": 0.1333,
      "velocity": 103,
      "chip": "ym2612"
    },
    {
      "channel": 5,
      "note": 67,
      "start": 18.6043,
      "duration": 0.133,
      "velocity": 103,
      "chip": "ym2612"
    },
    {
      "channel": 2,
      "note": 37,
      "start": 18.7202,
      "duration": 0.1331,
      "velocity": 121,
      "chip": "ym2612"
    },
    {
      "channel": 3,
      "note": 69,
      "start": 18.7208,
      "duration": 0.1332,
      "velocity": 103,
      "chip": "ym2612"
    },
    {
      "channel": 5,
      "note": 68,
      "start": 18.7378,
      "duration": 0.1327,
      "velocity": 103,
      "chip": "ym2612"
    },
    {
      "channel": 2,
      "note": 37,
      "start": 18.8539,
      "duration": 0.4031,
      "velocity": 124,
      "chip": "ym2612"
    },
    {
      "channel": 3,
      "note": 70,
      "start": 18.8546,
      "duration": 0.1322,
      "velocity": 103,
      "chip": "ym2612"
    },
    {
      "channel": 5,
      "note": 69,
      "start": 18.8711,
      "duration": 0.1332,
      "velocity": 103,
      "chip": "ym2612"
    },
    {
      "channel": 3,
      "note": 69,
      "start": 18.9873,
      "duration": 0.1329,
      "velocity": 103,
      "chip": "ym2612"
    },
    {
      "channel": 5,
      "note": 70,
      "start": 19.0048,
      "duration": 0.1327,
      "velocity": 103,
      "chip": "ym2612"
    },
    {
      "channel": 3,
      "note": 68,
      "start": 19.1208,
      "duration": 0.137,
      "velocity": 103,
      "chip": "ym2612"
    },
    {
      "channel": 5,
      "note": 69,
      "start": 19.1381,
      "duration": 0.1332,
      "velocity": 103,
      "chip": "ym2612"
    },
    {
      "channel": 0,
      "note": 93,
      "start": 19.2537,
      "duration": 0.2663,
      "velocity": 97,
      "chip": "ym2612"
    },
    {
      "channel": 1,
      "note": 59,
      "start": 19.2544,
      "duration": 0.8003,
      "velocity": 112,
      "chip": "ym2612"
    },
    {
      "channel": 2,
      "note": 44,
      "start": 19.2576,
      "duration": 0.3991,
      "velocity": 121,
      "chip": "ym2612"
    },
    {
      "channel": 3,
      "note": 67,
      "start": 19.2583,
      "duration": 1.2009,
      "velocity": 103,
      "chip": "ym2612"
    },
    {
      "channel": 5,
      "note": 68,
      "start": 19.2718,
      "duration": 0.1335,
      "velocity": 103,
      "chip": "ym2612"
    },
    {
      "channel": 4,
      "note": 93,
      "start": 19.4052,
      "duration": 0.2663,
      "velocity": 97,
      "chip": "ym2612"
    },
    {
      "channel": 5,
      "note": 67,
      "start": 19.4059,
      "duration": 1.2008,
      "velocity": 103,
      "chip": "ym2612"
    },
    {
      "channel": 0,
      "note": 92,
      "start": 19.5206,
      "duration": 0.1329,
      "velocity": 97,
      "chip": "ym2612"
    },
    {
      "channel": 0,
      "note": 91,
      "start": 19.6541,
      "duration": 0.2665,
      "velocity": 97,
      "chip": "ym2612"
    },
    {
      "channel": 2,
      "note": 36,
      "start": 19.6574,
      "duration": 0.3976,
      "velocity": 121,
      "chip": "ym2612"
    },
    {
      "channel": 4,
      "note": 92,
      "start": 19.6721,
      "duration": 0.1329,
      "velocity": 97,
      "chip": "ym2612"
    },
    {
      "channel": 4,
      "note": 91,
      "start": 19.8056,
      "duration": 0.2662,
      "velocity": 97,
      "chip": "ym2612"
    },
    {
      "channel": 0,
      "note": 90,
      "start": 19.9211,
      "duration": 0.1329,
      "velocity": 97,
      "chip": "ym2612"
    },
    {
      "channel": 0,
      "note": 89,
      "start": 20.0546,
      "duration": 0.2664,
      "velocity": 97,
      "chip": "ym2612"
    },
    {
      "channel": 2,
      "note": 36,
      "start": 20.0557,
      "duration": 0.4026,
      "velocity": 124,
      "chip": "ym2612"
    },
    {
      "channel": 4,
      "note": 90,
      "start": 20.0724,
      "duration": 0.1329,
      "velocity": 97,
      "chip": "ym2612"
    },
    {
      "channel": 4,
      "note": 89,
      "start": 20.2059,
      "duration": 0.2664,
      "velocity": 97,
      "chip": "ym2612"
    },
    {
      "channel": 0,
      "note": 88,
      "start": 20.3216,
      "duration": 0.1329,
      "velocity": 97,
      "chip": "ym2612"
    },
    {
      "channel": 0,
      "note": 86,
      "start": 20.4551,
      "duration": 0.4,
      "velocity": 97,
      "chip": "ym2612"
    },
    {
      "channel": 1,
      "note": 55,
      "start": 20.4558,
      "duration": 0.7999,
      "velocity": 112,
      "chip": "ym2612"
    },
    {
      "channel": 2,
      "note": 44,
      "start": 20.459,
      "duration": 0.3993,
      "velocity": 121,
      "chip": "ym2612"
    },
    {
      "channel": 4,
      "note": 88,
      "start": 20.4729,
      "duration": 0.1329,
      "velocity": 97,
      "chip": "ym2612"
    },
    {
      "channel": 4,
      "note": 86,
      "start": 20.6064,
      "duration": 0.3997,
      "velocity": 97,
      "chip": "ym2612"
    },
    {
      "channel": 0,
      "note": 91,
      "start": 20.8556,
      "duration": 0.1329,
      "velocity": 97,
      "chip": "ym2612"
    },
    {
      "channel": 2,
      "note": 36,
      "start": 20.859,
      "duration": 0.397,
      "velocity": 121,
      "chip": "ym2612"
    },
    {
      "channel": 4,
      "note": 91,
      "start": 21.0067,
      "duration": 0.1329,
      "velocity": 97,
      "chip": "ym2612"
    },
    {
      "channel": 2,
      "note": 36,
      "start": 21.2566,
      "duration": 0.4032,
      "velocity": 124,
      "chip": "ym2612"
    },
    {
      "channel": 0,
      "note": 79,
      "start": 21.5232,
      "duration": 0.1329,
      "velocity": 97,
      "chip": "ym2612"
    },
    {
      "channel": 0,
      "note": 84,
      "start": 21.6567,
      "duration": 1.6015,
      "velocity": 97,
      "chip": "ym2612"
    },
    {
      "channel": 1,
      "note": 60,
      "start": 21.6573,
      "duration": 0.3996,
      "velocity": 112,
      "chip": "ym2612"
    },
    {
      "channel": 2,
      "note": 44,
      "start": 21.6606,
      "duration": 0.3988,
      "velocity": 121,
      "chip": "ym2612"
    },
    {
      "channel": 4,
      "note": 79,
      "start": 21.6744,
      "duration": 0.1329,
      "velocity": 97,
      "chip": "ym2612"
    },
    {
      "channel": 4,
      "note": 84,
      "start": 21.8079,
      "duration": 1.6015,
      "velocity": 97,
      "chip": "ym2612"
    },
    {
      "channel": 2,
      "note": 36,
      "start": 22.0601,
      "duration": 0.3982,
      "velocity": 121,
      "chip": "ym2612"
    },
    {
      "channel": 1,
      "note": 55,
      "start": 22.4582,
      "duration": 0.1995,
      "velocity": 112,
      "chip": "ym2612"
    },
    {
      "channel": 2,
      "note": 36,
      "start": 22.459,
      "duration": 0.4023,
      "velocity": 124,
      "chip": "ym2612"
    },
    {
      "channel": 1,
      "note": 60,
      "start": 22.8588,
      "duration": 0.1994,
      "velocity": 112,
      "chip": "ym2612"
    },
    {
      "channel": 2,
      "note": 44,
      "start": 22.862,
      "duration": 0.3993,
      "velocity": 121,
      "chip": "ym2612"
    },
    {
      "channel": 1,
      "note": 55,
      "start": 23.259,
      "duration": 0.1995,
      "velocity": 112,
      "chip": "ym2612"
    },
    {
      "channel": 2,
      "note": 36,
      "start": 23.262,
      "duration": 0.13,
      "velocity": 121,
      "chip": "ym2612"
    },
    {
      "channel": 3,
      "note": 72,
      "start": 23.2627,
      "duration": 0.1302,
      "velocity": 103,
      "chip": "ym2612"
    },
    {
      "channel": 2,
      "note": 36,
      "start": 23.3927,
      "duration": 0.1332,
      "velocity": 121,
      "chip": "ym2612"
    },
    {
      "channel": 3,
      "note": 74,
      "start": 23.3934,
      "duration": 0.1334,
      "velocity": 103,
      "chip": "ym2612"
    },
    {
      "channel": 5,
      "note": 72,
      "start": 23.4103,
      "duration": 0.1327,
      "velocity": 103,
      "chip": "ym2612"
    },
    {
      "channel": 0,
      "note": 83,
      "start": 23.5257,
      "duration": 0.1329,
      "velocity": 97,
      "chip": "ym2612"
    },
    {
      "channel": 2,
      "note": 36,
      "start": 23.5266,
      "duration": 0.1357,
      "velocity": 127,
      "chip": "ym2612"
    },
    {
      "channel": 3,
      "note": 72,
      "start": 23.5273,
      "duration": 0.1359,
      "velocity": 103,
      "chip": "ym2612"
    },
    {
      "channel": 5,
      "note": 74,
      "start": 23.5436,
      "duration": 0.1338,
      "velocity": 103,
      "chip": "ym2612"
    },
    {
      "channel": 0,
      "note": 84,
      "start": 23.6593,
      "duration": 0.2664,
      "velocity": 97,
      "chip": "ym2612"
    },
    {
      "channel": 1,
      "note": 60,
      "start": 23.6599,
      "duration": 0.1993,
      "velocity": 112,
      "chip": "ym2612"
    },
    {
      "channel": 2,
      "note": 70,
      "start": 23.6631,
      "duration": 0.3999,
      "velocity": 124,
      "chip": "ym2612"
    },
    {
      "channel": 3,
      "note": 70,
      "start": 23.6637,
      "duration": 0.1294,
      "velocity": 103,
      "chip": "ym2612"
    },
    {
      "channel": 4,
      "note": 83,
      "start": 23.6772,
      "duration": 0.1329,
      "velocity": 97,
      "chip": "ym2612"
    },
    {
      "channel": 5,
      "note": 72,
      "start": 23.6779,
      "duration": 0.1329,
      "velocity": 103,
      "chip": "ym2612"
    },
    {
      "channel": 3,
      "note": 72,
      "start": 23.7937,
      "duration": 0.1331,
      "velocity": 103,
      "chip": "ym2612"
    },
    {
      "channel": 4,
      "note": 84,
      "start": 23.8107,
      "duration": 0.2664,
      "velocity": 97,
      "chip": "ym2612"
    },
    {
      "channel": 5,
      "note": 70,
      "start": 23.8114,
      "duration": 0.1323,
      "velocity": 103,
      "chip": "ym2612"
    },
    {
      "channel": 0,
      "note": 82,
      "start": 23.9263,
      "duration": 0.1329,
      "velocity": 97,
      "chip": "ym2612"
    },
    {
      "channel": 3,
      "note": 70,
      "start": 23.9274,
      "duration": 2.0023,
      "velocity": 103,
      "chip": "ym2612"
    },
    {
      "channel": 5,
      "note": 72,
      "start": 23.9443,
      "duration": 0.1336,
      "velocity": 103,
      "chip": "ym2612"
    },
    {
      "channel": 0,
      "note": 81,
      "start": 24.0598,
      "duration": 0.667,
      "velocity": 97,
      "chip": "ym2612"
    },
    {
      "channel": 1,
      "note": 61,
      "start": 24.0604,
      "duration": 0.8005,
      "velocity": 112,
      "chip": "ym2612"
    },
    {
      "channel": 2,
      "note": 44,
      "start": 24.0637,
      "duration": 0.3988,
      "velocity": 121,
      "chip": "ym2612"
    },
    {
      "channel": 4,
      "note": 82,
      "start": 24.0778,
      "duration": 0.1329,
      "velocity": 97,
      "chip": "ym2612"
    },
    {
      "channel": 5,
      "note": 70,
      "start": 24.0784,
      "duration": 2.0018,
      "velocity": 103,
      "chip": "ym2612"
    },
    {
      "channel": 4,
      "note": 81,
      "start": 24.2112,
      "duration": 0.6667,
      "velocity": 97,
      "chip": "ym2612"
    },
    {
      "channel": 2,
      "note": 36,
      "start": 24.4632,
      "duration": 0.398,
      "velocity": 121,
      "chip": "ym2612"
    },
    {
      "channel": 0,
      "note": 83,
      "start": 24.7273,
      "duration": 0.1329,
      "velocity": 97,
      "chip": "ym2612"
    },
    {
      "channel": 0,
      "note": 85,
      "start": 24.8608,
      "duration": 0.2664,
      "velocity": 97,
      "chip": "ym2612"
    },
    {
      "channel": 2,
      "note": 36,
      "start": 24.8619,
      "duration": 0.4026,
      "velocity": 124,
      "chip": "ym2612"
    },
    {
      "channel": 4,
      "note": 83,
      "start": 24.8785,
      "duration": 0.1329,
      "velocity": 97,
      "chip": "ym2612"
    },
    {
      "channel": 4,
      "note": 85,
      "start": 25.0121,
      "duration": 0.2667,
      "velocity": 97,
      "chip": "ym2612"
    },
    {
      "channel": 0,
      "note": 88,
      "start": 25.1278,
      "duration": 0.1329,
      "velocity": 97,
      "chip": "ym2612"
    },
    {
      "channel": 0,
      "note": 93,
      "start": 25.2613,
      "duration": 0.667,
      "velocity": 97,
      "chip": "ym2612"
    },
    {
      "channel": 1,
      "note": 57,
      "start": 25.262,
      "duration": 0.8005,
      "velocity": 112,
      "chip": "ym2612"
    },
    {
      "channel": 2,
      "note": 44,
      "start": 25.2652,
      "duration": 0.3988,
      "velocity": 121,
      "chip": "ym2612"
    },
    {
      "channel": 4,
      "note": 88,
      "start": 25.2793,
      "duration": 0.1329,
      "velocity": 97,
      "chip": "ym2612"
    },
    {
      "channel": 4,
      "note": 93,
      "start": 25.4128,
      "duration": 0.6667,
      "velocity": 97,
      "chip": "ym2612"
    },
    {
      "channel": 2,
      "note": 36,
      "start": 25.6647,
      "duration": 0.398,
      "velocity": 121,
      "chip": "ym2612"
    },
    {
      "channel": 0,
      "note": 91,
      "start": 25.9288,
      "duration": 0.1329,
      "velocity": 97,
      "chip": "ym2612"
    },
    {
      "channel": 3,
      "note": 71,
      "start": 25.9302,
      "duration": 0.1334,
      "velocity": 103,
      "chip": "ym2612"
    },
    {
      "channel": 0,
      "note": 88,
      "start": 26.0623,
      "duration": 0.2665,
      "velocity": 97,
      "chip": "ym2612"
    },
    {
      "channel": 2,
      "note": 36,
      "start": 26.0635,
      "duration": 0.4026,
      "velocity": 124,
      "chip": "ym2612"
    },
    {
      "channel": 3,
      "note": 73,
      "start": 26.0642,
      "duration": 0.2658,
      "velocity": 103,
      "chip": "ym2612"
    },
    {
      "channel": 4,
      "note": 91,
      "start": 26.0801,
      "duration": 0.1329,
      "velocity": 97,
      "chip": "ym2612"
    },
    {
      "channel": 5,
      "note": 71,
      "start": 26.0808,
      "duration": 0.1329,
      "velocity": 103,
      "chip": "ym2612"
    },
    {
      "channel": 4,
      "note": 88,
      "start": 26.2136,
      "duration": 0.2667,
      "velocity": 97,
      "chip": "ym2612"
    },
    {
      "channel": 5,
      "note": 73,
      "start": 26.2143,
      "duration": 0.2667,
      "velocity": 103,
      "chip": "ym2612"
    },
    {
      "channel": 0,
      "note": 85,
      "start": 26.3293,
      "duration": 0.1329,
      "velocity": 97,
      "chip": "ym2612"
    },
    {
      "channel": 3,
      "note": 69,
      "start": 26.3305,
      "duration": 0.1364,
      "velocity": 103,
      "chip": "ym2612"
    },
    {
      "channel": 0,
      "note": 86,
      "start": 26.4629,
      "duration": 0.2664,
      "velocity": 97,
      "chip": "ym2612"
    },
    {
      "channel": 1,
      "note": 62,
      "start": 26.4635,
      "duration": 0.8005,
      "velocity": 112,
      "chip": "ym2612"
    },
    {
      "channel": 2,
      "note": 44,
      "start": 26.4668,
      "duration": 0.3992,
      "velocity": 121,
      "chip": "ym2612"
    },
    {
      "channel": 3,
      "note": 74,
      "start": 26.4675,
      "duration": 1.4641,
      "velocity": 103,
      "chip": "ym2612"
    },
    {
      "channel": 4,
      "note": 85,
      "start": 26.4808,
      "duration": 0.1329,
      "velocity": 97,
      "chip": "ym2612"
    },
    {
      "channel": 5,
      "note": 69,
      "start": 26.4815,
      "duration": 0.1329,
      "velocity": 103,
      "chip": "ym2612"
    },
    {
      "channel": 4,
      "note": 86,
      "start": 26.6144,
      "duration": 0.2664,
      "velocity": 97,
      "chip": "ym2612"
    },
    {
      "channel": 5,
      "note": 74,
      "start": 26.6151,
      "duration": 1.4674,
      "velocity": 103,
      "chip": "ym2612"
    },
    {
      "channel": 0,
      "note": 85,
      "start": 26.7299,
      "duration": 0.1329,
      "velocity": 97,
      "chip": "ym2612"
    },
    {
      "channel": 0,
      "note": 86,
      "start": 26.8634,
      "duration": 0.2664,
      "velocity": 97,
      "chip": "ym2612"
    },
    {
      "channel": 2,
      "note": 36,
      "start": 26.8667,
      "duration": 0.3976,
      "velocity": 121,
      "chip": "ym2612"
    },
    {
      "channel": 4,
      "note": 85,
      "start": 26.8814,
      "duration": 0.1329,
      "velocity": 97,
      "chip": "ym2612"
    },
    {
      "channel": 4,
      "note": 86,
      "start": 27.0149,
      "duration": 0.2662,
      "velocity": 97,
      "chip": "ym2612"
    },
    {
      "channel": 0,
      "note": 88,
      "start": 27.1304,
      "duration": 0.1329,
      "velocity": 97,
      "chip": "ym2612"
    },
    {
      "channel": 0,
      "note": 89,
      "start": 27.2639,
      "duration": 0.2664,
      "velocity": 97,
      "chip": "ym2612"
    },
    {
      "channel": 2,
      "note": 36,
      "start": 27.265,
      "duration": 0.4025,
      "velocity": 124,
      "chip": "ym2612"
    },
    {
      "channel": 4,
      "note": 88,
      "start": 27.2817,
      "duration": 0.1329,
      "velocity": 97,
      "chip": "ym2612"
    },
    {
      "channel": 4,
      "note": 89,
      "start": 27.4151,
      "duration": 0.2667,
      "velocity": 97,
      "chip": "ym2612"
    },
    {
      "channel": 0,
      "note": 91,
      "start": 27.5309,
      "duration": 0.1329,
      "velocity": 97,
      "chip": "ym2612"
    },
    {
      "channel": 0,
      "note": 93,
      "start": 27.6644,
      "duration": 0.4,
      "velocity": 97,
      "chip": "ym2612"
    },
    {
      "channel": 1,
      "note": 62,
      "start": 27.6651,
      "duration": 0.1993,
      "velocity": 112,
      "chip": "ym2612"
    },
    {
      "channel": 2,
      "note": 44,
      "start": 27.6682,
      "duration": 0.3993,
      "velocity": 121,
      "chip": "ym2612"
    },
    {
      "channel": 4,
      "note": 91,
      "start": 27.6824,
      "duration": 0.1329,
      "velocity": 97,
      "chip": "ym2612"
    },
    {
      "channel": 4,
      "note": 93,
      "start": 27.8159,
      "duration": 0.3997,
      "velocity": 97,
      "chip": "ym2612"
    },
    {
      "channel": 3,
      "note": 73,
      "start": 27.9322,
      "duration": 0.1362,
      "velocity": 103,
      "chip": "ym2612"
    },
    {
      "channel": 1,
      "note": 60,
      "start": 28.0652,
      "duration": 0.1995,
      "velocity": 112,
      "chip": "ym2612"
    },
    {
      "channel": 2,
      "note": 36,
      "start": 28.0682,
      "duration": 0.13,
      "velocity": 121,
      "chip": "ym2612"
    },
    {
      "channel": 3,
      "note": 74,
      "start": 28.0689,
      "duration": 0.2634,
      "velocity": 103,
      "chip": "ym2612"
    },
    {
      "channel": 5,
      "note": 73,
      "start": 28.083,
      "duration": 0.1329,
      "velocity": 103,
      "chip": "ym2612"
    },
    {
      "channel": 2,
      "note": 36,
      "start": 28.1989,
      "duration": 0.1326,
      "velocity": 121,
      "chip": "ym2612"
    },
    {
      "channel": 5,
      "note": 74,
      "start": 28.2165,
      "duration": 0.2665,
      "velocity": 103,
      "chip": "ym2612"
    },
    {
      "channel": 2,
      "note": 36,
      "start": 28.3322,
      "duration": 0.1363,
      "velocity": 127,
      "chip": "ym2612"
    },
    {
      "channel": 3,
      "note": 73,
      "start": 28.3329,
      "duration": 0.1365,
      "velocity": 103,
      "chip": "ym2612"
    },
    {
      "channel": 0,
      "note": 81,
      "start": 28.4654,
      "duration": 0.1329,
      "velocity": 97,
      "chip": "ym2612"
    },
    {
      "channel": 1,
      "note": 57,
      "start": 28.4661,
      "duration": 0.1993,
      "velocity": 112,
      "chip": "ym2612"
    },
    {
      "channel": 2,
      "note": 70,
      "start": 28.4693,
      "duration": 0.3999,
      "velocity": 124,
      "chip": "ym2612"
    },
    {
      "channel": 3,
      "note": 74,
      "start": 28.4699,
      "duration": 0.2631,
      "velocity": 103,
      "chip": "ym2612"
    },
    {
      "channel": 5,
      "note": 73,
      "start": 28.4835,
      "duration": 0.1336,
      "velocity": 103,
      "chip": "ym2612"
    },
    {
      "channel": 0,
      "note": 83,
      "start": 28.5989,
      "duration": 0.1329,
      "velocity": 97,
      "chip": "ym2612"
    },
    {
      "channel": 4,
      "note": 81,
      "start": 28.6169,
      "duration": 0.1327,
      "velocity": 97,
      "chip": "ym2612"
    },
    {
      "channel": 5,
      "note": 74,
      "start": 28.6176,
      "duration": 0.2665,
      "velocity": 103,
      "chip": "ym2612"
    },
    {
      "channel": 0,
      "note": 81,
      "start": 28.7324,
      "duration": 0.133,
      "velocity": 97,
      "chip": "ym2612"
    },
    {
      "channel": 3,
      "note": 72,
      "start": 28.7336,
      "duration": 0.1364,
      "velocity": 103,
      "chip": "ym2612"
    },
    {
      "channel": 4,
      "note": 83,
      "start": 28.7502,
      "duration": 0.1332,
      "velocity": 97,
      "chip": "ym2612"
    },
    {
      "channel": 0,
      "note": 79,
      "start": 28.8659,
      "duration": 0.667,
      "velocity": 97,
      "chip": "ym2612"
    },
    {
      "channel": 1,
      "note": 59,
      "start": 28.8666,
      "duration": 0.8005,
      "velocity": 112,
      "chip": "ym2612"
    },
    {
      "channel": 2,
      "note": 44,
      "start": 28.8698,
      "duration": 0.3988,
      "velocity": 121,
      "chip": "ym2612"
    },
    {
      "channel": 3,
      "note": 71,
      "start": 28.8705,
      "duration": 1.201,
      "velocity": 103,
      "chip": "ym2612"
    },
    {
      "channel": 4,
      "note": 81,
      "start": 28.8839,
      "duration": 0.1329,
      "velocity": 97,
      "chip": "ym2612"
    },
    {
      "channel": 5,
      "note": 72,
      "start": 28.8846,
      "duration": 0.1329,
      "velocity": 103,
      "chip": "ym2612"
    },
    {
      "channel": 4,
      "note": 79,
      "start": 29.0174,
      "duration": 0.6667,
      "velocity": 97,
      "chip": "ym2612"
    },
    {
      "channel": 5,
      "note": 71,
      "start": 29.0181,
      "duration": 1.201,
      "velocity": 103,
      "chip": "ym2612"
    },
    {
      "channel": 2,
      "note": 36,
      "start": 29.2694,
      "duration": 0.398,
      "velocity": 121,
      "chip": "ym2612"
    },
    {
      "channel": 0,
      "note": 81,
      "start": 29.5335,
      "duration": 0.1329,
      "velocity": 97,
      "chip": "ym2612"
    },
    {
      "channel": 0,
      "note": 83,
      "start": 29.667,
      "duration": 0.2664,
      "velocity": 97,
      "chip": "ym2612"
    },
    {
      "channel": 2,
      "note": 36,
      "start": 29.6681,
      "duration": 0.4026,
      "velocity": 124,
      "chip": "ym2612"
    },
    {
      "channel": 4,
      "note": 81,
      "start": 29.6847,
      "duration": 0.1329,
      "velocity": 97,
      "chip": "ym2612"
    },
    {
      "channel": 4,
      "note": 83,
      "start": 29.8183,
      "duration": 0.2667,
      "velocity": 97,
      "chip": "ym2612"
    },
    {
      "channel": 0,
      "note": 86,
      "start": 29.934,
      "duration": 0.1329,
      "velocity": 97,
      "chip": "ym2612"
    },
    {
      "channel": 0,
      "note": 91,
      "start": 30.0675,
      "duration": 0.667,
      "velocity": 97,
      "chip": "ym2612"
    },
    {
      "channel": 1,
      "note": 55,
      "start": 30.0682,
      "duration": 0.8005,
      "velocity": 112,
      "chip": "ym2612"
    },
    {
      "channel": 2,
      "note": 44,
      "start": 30.0714,
      "duration": 0.3988,
      "velocity": 121,
      "chip": "ym2612"
    },
    {
      "channel": 3,
      "note": 67,
      "start": 30.0721,
      "duration": 1.201,
      "velocity": 103,
      "chip": "ym2612"
    },
    {
      "channel": 4,
      "note": 86,
      "start": 30.0855,
      "duration": 0.1329,
      "velocity": 97,
      "chip": "ym2612"
    },
    {
      "channel": 4,
      "note": 91,
      "start": 30.219,
      "duration": 0.6668,
      "velocity": 97,
      "chip": "ym2612"
    },
    {
      "channel": 5,
      "note": 67,
      "start": 30.2197,
      "duration": 1.2008,
      "velocity": 103,
      "chip": "ym2612"
    },
    {
      "channel": 2,
      "note": 36,
      "start": 30.4709,
      "duration": 0.398,
      "velocity": 121,
      "chip": "ym2612"
    },
    {
      "channel": 0,
      "note": 89,
      "start": 30.735,
      "duration": 0.133,
      "velocity": 97,
      "chip": "ym2612"
    },
    {
      "channel": 0,
      "note": 86,
      "start": 30.8685,
      "duration": 0.2665,
      "velocity": 97,
      "chip": "ym2612"
    },
    {
      "channel": 2,
      "note": 36,
      "start": 30.8697,
      "duration": 0.4026,
      "velocity": 124,
      "chip": "ym2612"
    },
    {
      "channel": 4,
      "note": 89,
      "start": 30.8863,
      "duration": 0.1329,
      "velocity": 97,
      "chip": "ym2612"
    },
    {
      "channel": 4,
      "note": 86,
      "start": 31.0198,
      "duration": 0.2667,
      "velocity": 97,
      "chip": "ym2612"
    },
    {
      "channel": 0,
      "note": 83,
      "start": 31.1355,
      "duration": 0.1329,
      "velocity": 97,
      "chip": "ym2612"
    },
    {
      "channel": 0,
      "note": 84,
      "start": 31.269,
      "duration": 0.2664,
      "velocity": 97,
      "chip": "ym2612"
    },
    {
      "channel": 1,
      "note": 56,
      "start": 31.2697,
      "duration": 0.8005,
      "velocity": 112,
      "chip": "ym2612"
    },
    {
      "channel": 2,
      "note": 44,
      "start": 31.2729,
      "duration": 0.3993,
      "velocity": 121,
      "chip": "ym2612"
    },
    {
      "channel": 3,
      "note": 68,
      "start": 31.2736,
      "duration": 0.0626,
      "velocity": 103,
      "chip": "ym2612"
    },
    {
      "channel": 4,
      "note": 83,
      "start": 31.287,
      "duration": 0.1327,
      "velocity": 97,
      "chip": "ym2612"
    },
    {
      "channel": 4,
      "note": 84,
      "start": 31.4203,
      "duration": 0.2667,
      "velocity": 97,
      "chip": "ym2612"
    },
    {
      "channel": 5,
      "note": 68,
      "start": 31.421,
      "duration": 0.0658,
      "velocity": 103,
      "chip": "ym2612"
    },
    {
      "channel": 0,
      "note": 83,
      "start": 31.5361,
      "duration": 0.1329,
      "velocity": 97,
      "chip": "ym2612"
    },
    {
      "channel": 3,
      "note": 68,
      "start": 31.5373,
      "duration": 0.0659,
      "velocity": 103,
      "chip": "ym2612"
    },
    {
      "channel": 0,
      "note": 84,
      "start": 31.6695,
      "duration": 0.2665,
      "velocity": 97,
      "chip": "ym2612"
    },
    {
      "channel": 2,
      "note": 36,
      "start": 31.6729,
      "duration": 0.3976,
      "velocity": 121,
      "chip": "ym2612"
    },
    {
      "channel": 3,
      "note": 68,
      "start": 31.6736,
      "duration": 0.0632,
      "velocity": 103,
      "chip": "ym2612"
    },
    {
      "channel": 4,
      "note": 83,
      "start": 31.6876,
      "duration": 0.1327,
      "velocity": 97,
      "chip": "ym2612"
    },
    {
      "channel": 5,
      "note": 68,
      "start": 31.6881,
      "duration": 0.0657,
      "velocity": 103,
      "chip": "ym2612"
    },
    {
      "channel": 4,
      "note": 84,
      "start": 31.8208,
      "duration": 0.2665,
      "velocity": 97,
      "chip": "ym2612"
    },
    {
      "channel": 5,
      "note": 68,
      "start": 31.8215,
      "duration": 0.0658,
      "velocity": 103,
      "chip": "ym2612"
    },
    {
      "channel": 0,
      "note": 86,
      "start": 31.9366,
      "duration": 0.1329,
      "velocity": 97,
      "chip": "ym2612"
    },
    {
      "channel": 3,
      "note": 68,
      "start": 31.9378,
      "duration": 0.066,
      "velocity": 103,
      "chip": "ym2612"
    },
    {
      "channel": 0,
      "note": 87,
      "start": 32.0701,
      "duration": 0.2665,
      "velocity": 97,
      "chip": "ym2612"
    },
    {
      "channel": 2,
      "note": 36,
      "start": 32.0712,
      "duration": 0.4025,
      "velocity": 124,
      "chip": "ym2612"
    },
    {
      "channel": 3,
      "note": 68,
      "start": 32.0719,
      "duration": 0.0651,
      "velocity": 103,
      "chip": "ym2612"
    },
    {
      "channel": 4,
      "note": 86,
      "start": 32.0878,
      "duration": 0.1327,
      "velocity": 97,
      "chip": "ym2612"
    },
    {
      "channel": 5,
      "note": 68,
      "start": 32.0884,
      "duration": 0.0657,
      "velocity": 103,
      "chip": "ym2612"
    },
    {
      "channel": 4,
      "note": 87,
      "start": 32.2211,
      "duration": 0.2669,
      "velocity": 97,
      "chip": "ym2612"
    },
    {
      "channel": 5,
      "note": 68,
      "start": 32.2218,
      "duration": 0.0658,
      "velocity": 103,
      "chip": "ym2612"
    },
    {
      "channel": 0,
      "note": 89,
      "start": 32.3371,
      "duration": 0.1329,
      "velocity": 97,
      "chip": "ym2612"
    },
    {
      "channel": 3,
      "note": 68,
      "start": 32.3381,
      "duration": 0.066,
      "velocity": 103,
      "chip": "ym2612"
    },
    {
      "channel": 0,
      "note": 91,
      "start": 32.4706,
      "duration": 0.8005,
      "velocity": 97,
      "chip": "ym2612"
    },
    {
      "channel": 1,
      "note": 55,
      "start": 32.4713,
      "duration": 0.1993,
      "velocity": 112,
      "chip": "ym2612"
    },
    {
      "channel": 2,
      "note": 44,
      "start": 32.4744,
      "duration": 0.3993,
      "velocity": 121,
      "chip": "ym2612"
    },
    {
      "channel": 3,
      "note": 67,
      "start": 32.4751,
      "duration": 1.2013,
      "velocity": 103,
      "chip": "ym2612"
    },
    {
      "channel": 4,
      "note": 89,
      "start": 32.4886,
      "duration": 0.1329,
      "velocity": 97,
      "chip": "ym2612"
    },
    {
      "channel": 5,
      "note": 68,
      "start": 32.4891,
      "duration": 0.066,
      "velocity": 103,
      "chip": "ym2612"
    },
    {
      "channel": 4,
      "note": 91,
      "start": 32.6221,
      "duration": 0.8002,
      "velocity": 97,
      "chip": "ym2612"
    },
    {
      "channel": 5,
      "note": 67,
      "start": 32.6228,
      "duration": 1.2009,
      "velocity": 103,
      "chip": "ym2612"
    },
    {
      "channel": 1,
      "note": 57,
      "start": 32.8714,
      "duration": 0.1997,
      "velocity": 112,
      "chip": "ym2612"
    },
    {
      "channel": 2,
      "note": 36,
      "start": 32.8744,
      "duration": 0.1302,
      "velocity": 121,
      "chip": "ym2612"
    },
    {
      "channel": 2,
      "note": 36,
      "start": 33.0053,
      "duration": 0.1326,
      "velocity": 121,
      "chip": "ym2612"
    },
    {
      "channel": 2,
      "note": 36,
      "start": 33.1386,
      "duration": 0.1357,
      "velocity": 127,
      "chip": "ym2612"
    },
    {
      "channel": 1,
      "note": 59,
      "start": 33.2719,
      "duration": 0.1995,
      "velocity": 112,
      "chip": "ym2612"
    },
    {
      "channel": 2,
      "note": 70,
      "start": 33.275,
      "duration": 0.4005,
      "velocity": 124,
      "chip": "ym2612"
    },
    {
      "channel": 0,
      "note": 79,
      "start": 33.6722,
      "duration": 0.6668,
      "velocity": 97,
      "chip": "ym2612"
    },
    {
      "channel": 1,
      "note": 60,
      "start": 33.673,
      "duration": 0.8003,
      "velocity": 112,
      "chip": "ym2612"
    },
    {
      "channel": 2,
      "note": 45,
      "start": 33.6763,
      "duration": 0.3986,
      "velocity": 121,
      "chip": "ym2612"
    },
    {
      "channel": 4,
      "note": 79,
      "start": 33.8235,
      "duration": 0.6666,
      "velocity": 97,
      "chip": "ym2612"
    },
    {
      "channel": 2,
      "note": 37,
      "start": 34.0756,
      "duration": 0.398,
      "velocity": 121,
      "chip": "ym2612"
    },
    {
      "channel": 0,
      "note": 78,
      "start": 34.3397,
      "duration": 0.1329,
      "velocity": 97,
      "chip": "ym2612"
    },
    {
      "channel": 0,
      "note": 79,
      "start": 34.4732,
      "duration": 0.2665,
      "velocity": 97,
      "chip": "ym2612"
    },
    {
      "channel": 2,
      "note": 37,
      "start": 34.4743,
      "duration": 0.4025,
      "velocity": 124,
      "chip": "ym2612"
    },
    {
      "channel": 4,
      "note": 78,
      "start": 34.4907,
      "duration": 0.1329,
      "velocity": 97,
      "chip": "ym2612"
    },
    {
      "channel": 4,
      "note": 79,
      "start": 34.6242,
      "duration": 0.2667,
      "velocity": 97,
      "chip": "ym2612"
    },
    {
      "channel": 0,
      "note": 80,
      "start": 34.7402,
      "duration": 0.1329,
      "velocity": 97,
      "chip": "ym2612"
    },
    {
      "channel": 0,
      "note": 81,
      "start": 34.8737,
      "duration": 0.667,
      "velocity": 97,
      "chip": "ym2612"
    },
    {
      "channel": 1,
      "note": 55,
      "start": 34.8744,
      "duration": 0.8005,
      "velocity": 112,
      "chip": "ym2612"
    },
    {
      "channel": 2,
      "note": 45,
      "start": 34.8775,
      "duration": 0.3989,
      "velocity": 121,
      "chip": "ym2612"
    },
    {
      "channel": 4,
      "note": 80,
      "start": 34.8914,
      "duration": 0.1329,
      "velocity": 97,
      "chip": "ym2612"
    },
    {
      "channel": 4,
      "note": 81,
      "start": 35.0249,
      "duration": 0.6667,
      "velocity": 97,
      "chip": "ym2612"
    },
    {
      "channel": 2,
      "note": 37,
      "start": 35.2771,
      "duration": 0.398,
      "velocity": 121,
      "chip": "ym2612"
    },
    {
      "channel": 0,
      "note": 80,
      "start": 35.5412,
      "duration": 0.1329,
      "velocity": 97,
      "chip": "ym2612"
    },
    {
      "channel": 0,
      "note": 81,
      "start": 35.6747,
      "duration": 0.2664,
      "velocity": 97,
      "chip": "ym2612"
    },
    {
      "channel": 2,
      "note": 37,
      "start": 35.6759,
      "duration": 0.4025,
      "velocity": 124,
      "chip": "ym2612"
    },
    {
      "channel": 4,
      "note": 80,
      "start": 35.6922,
      "duration": 0.133,
      "velocity": 97,
      "chip": "ym2612"
    },
    {
      "channel": 4,
      "note": 81,
      "start": 35.8258,
      "duration": 0.2667,
      "velocity": 97,
      "chip": "ym2612"
    },
    {
      "channel": 0,
      "note": 82,
      "start": 35.9417,
      "duration": 0.1329,
      "velocity": 97,
      "chip": "ym2612"
    },
    {
      "channel": 0,
      "note": 83,
      "start": 36.0752,
      "duration": 0.2664,
      "velocity": 97,
      "chip": "ym2612"
    },
    {
      "channel": 1,
      "note": 62,
      "start": 36.0759,
      "duration": 0.8005,
      "velocity": 112,
      "chip": "ym2612"
    },
    {
      "channel": 2,
      "note": 45,
      "start": 36.079,
      "duration": 0.3993,
      "velocity": 121,
      "chip": "ym2612"
    },
    {
      "channel": 4,
      "note": 82,
      "start": 36.093,
      "duration": 0.1329,
      "velocity": 97,
      "chip": "ym2612"
    },
    {
      "channel": 4,
      "note": 83,
      "start": 36.2265,
      "duration": 0.2664,
      "velocity": 97,
      "chip": "ym2612"
    },
    {
      "channel": 0,
      "note": 91,
      "start": 36.3422,
      "duration": 0.1329,
      "velocity": 97,
      "chip": "ym2612"
    },
    {
      "channel": 0,
      "note": 83,
      "start": 36.4758,
      "duration": 0.2664,
      "velocity": 97,
      "chip": "ym2612"
    },
    {
      "channel": 2,
      "note": 37,
      "start": 36.4791,
      "duration": 0.3976,
      "velocity": 121,
      "chip": "ym2612"
    },
    {
      "channel": 4,
      "note": 91,
      "start": 36.4935,
      "duration": 0.1329,
      "velocity": 97,
      "chip": "ym2612"
    },
    {
      "channel": 4,
      "note": 83,
      "start": 36.627,
      "duration": 0.2662,
      "velocity": 97,
      "chip": "ym2612"
    },
    {
      "channel": 0,
      "note": 91,
      "start": 36.7428,
      "duration": 0.1329,
      "velocity": 97,
      "chip": "ym2612"
    },
    {
      "channel": 0,
      "note": 83,
      "start": 36.8763,
      "duration": 0.2665,
      "velocity": 97,
      "chip": "ym2612"
    },
    {
      "channel": 2,
      "note": 37,
      "start": 36.8774,
      "duration": 0.4025,
      "velocity": 124,
      "chip": "ym2612"
    },
    {
      "channel": 4,
      "note": 91,
      "start": 36.8938,
      "duration": 0.1329,
      "velocity": 97,
      "chip": "ym2612"
    },
    {
      "channel": 4,
      "note": 83,
      "start": 37.0273,
      "duration": 0.2667,
      "velocity": 97,
      "chip": "ym2612"
    },
    {
      "channel": 0,
      "note": 91,
      "start": 37.1433,
      "duration": 0.1329,
      "velocity": 97,
      "chip": "ym2612"
    },
    {
      "channel": 0,
      "note": 83,
      "start": 37.2768,
      "duration": 1.2011,
      "velocity": 97,
      "chip": "ym2612"
    },
    {
      "channel": 1,
      "note": 55,
      "start": 37.2775,
      "duration": 0.8003,
      "velocity": 112,
      "chip": "ym2612"
    },
    {
      "channel": 2,
      "note": 45,
      "start": 37.2806,
      "duration": 0.3989,
      "velocity": 121,
      "chip": "ym2612"
    },
    {
      "channel": 4,
      "note": 91,
      "start": 37.2945,
      "duration": 0.1329,
      "velocity": 97,
      "chip": "ym2612"
    },
    {
      "channel": 4,
      "note": 83,
      "start": 37.428,
      "duration": 1.2013,
      "velocity": 97,
      "chip": "ym2612"
    },
    {
      "channel": 2,
      "note": 37,
      "start": 37.6802,
      "duration": 0.2641,
      "velocity": 121,
      "chip": "ym2612"
    },
    {
      "channel": 3,
      "note": 67,
      "start": 37.6809,
      "duration": 0.1303,
      "velocity": 103,
      "chip": "ym2612"
    },
    {
      "channel": 3,
      "note": 68,
      "start": 37.8118,
      "duration": 0.1333,
      "velocity": 103,
      "chip": "ym2612"
    },
    {
      "channel": 5,
      "note": 67,
      "start": 37.8291,
      "duration": 0.1329,
      "velocity": 103,
      "chip": "ym2612"
    },
    {
      "channel": 2,
      "note": 37,
      "start": 37.9449,
      "duration": 0.1332,
      "velocity": 121,
      "chip": "ym2612"
    },
    {
      "channel": 3,
      "note": 69,
      "start": 37.9456,
      "duration": 0.1332,
      "velocity": 103,
      "chip": "ym2612"
    },
    {
      "channel": 5,
      "note": 68,
      "start": 37.9626,
      "duration": 0.1327,
      "velocity": 103,
      "chip": "ym2612"
    },
    {
      "channel": 2,
      "note": 37,
      "start": 38.0786,
      "duration": 0.4031,
      "velocity": 124,
      "chip": "ym2612"
    },
    {
      "channel": 3,
      "note": 70,
      "start": 38.0793,
      "duration": 0.1322,
      "velocity": 103,
      "chip": "ym2612"
    },
    {
      "channel": 5,
      "note": 69,
      "start": 38.0959,
      "duration": 0.1332,
      "velocity": 103,
      "chip": "ym2612"
    },
    {
      "channel": 3,
      "note": 69,
      "start": 38.2121,
      "duration": 0.133,
      "velocity": 103,
      "chip": "ym2612"
    },
    {
      "channel": 5,
      "note": 70,
      "start": 38.2296,
      "duration": 0.1327,
      "velocity": 103,
      "chip": "ym2612"
    },
    {
      "channel": 3,
      "note": 68,
      "start": 38.3456,
      "duration": 0.137,
      "velocity": 103,
      "chip": "ym2612"
    },
    {
      "channel": 5,
      "note": 69,
      "start": 38.3629,
      "duration": 0.1332,
      "velocity": 103,
      "chip": "ym2612"
    },
    {
      "channel": 0,
      "note": 93,
      "start": 38.4784,
      "duration": 0.2663,
      "velocity": 97,
      "chip": "ym2612"
    },
    {
      "channel": 1,
      "note": 59,
      "start": 38.4792,
      "duration": 0.8003,
      "velocity": 112,
      "chip": "ym2612"
    },
    {
      "channel": 2,
      "note": 44,
      "start": 38.4824,
      "duration": 0.3991,
      "velocity": 121,
      "chip": "ym2612"
    },
    {
      "channel": 3,
      "note": 67,
      "start": 38.4831,
      "duration": 1.2007,
      "velocity": 103,
      "chip": "ym2612"
    },
    {
      "channel": 5,
      "note": 68,
      "start": 38.4966,
      "duration": 0.1335,
      "velocity": 103,
      "chip": "ym2612"
    },
    {
      "channel": 4,
      "note": 93,
      "start": 38.6299,
      "duration": 0.2663,
      "velocity": 97,
      "chip": "ym2612"
    },
    {
      "channel": 5,
      "note": 67,
      "start": 38.6306,
      "duration": 1.2007,
      "velocity": 103,
      "chip": "ym2612"
    },
    {
      "channel": 0,
      "note": 92,
      "start": 38.7453,
      "duration": 0.1329,
      "velocity": 97,
      "chip": "ym2612"
    },
    {
      "channel": 0,
      "note": 91,
      "start": 38.8788,
      "duration": 0.2665,
      "velocity": 97,
      "chip": "ym2612"
    },
    {
      "channel": 2,
      "note": 36,
      "start": 38.8822,
      "duration": 0.3976,
      "velocity": 121,
      "chip": "ym2612"
    },
    {
      "channel": 4,
      "note": 92,
      "start": 38.8968,
      "duration": 0.1329,
      "velocity": 97,
      "chip": "ym2612"
    },
    {
      "channel": 4,
      "note": 91,
      "start": 39.0303,
      "duration": 0.2662,
      "velocity": 97,
      "chip": "ym2612"
    },
    {
      "channel": 0,
      "note": 90,
      "start": 39.1459,
      "duration": 0.1329,
      "velocity": 97,
      "chip": "ym2612"
    },
    {
      "channel": 0,
      "note": 89,
      "start": 39.2794,
      "duration": 0.2664,
      "velocity": 97,
      "chip": "ym2612"
    },
    {
      "channel": 2,
      "note": 36,
      "start": 39.2805,
      "duration": 0.4024,
      "velocity": 124,
      "chip": "ym2612"
    },
    {
      "channel": 4,
      "note": 90,
      "start": 39.2971,
      "duration": 0.1329,
      "velocity": 97,
      "chip": "ym2612"
    },
    {
      "channel": 4,
      "note": 89,
      "start": 39.4306,
      "duration": 0.2664,
      "velocity": 97,
      "chip": "ym2612"
    },
    {
      "channel": 0,
      "note": 88,
      "start": 39.5464,
      "duration": 0.1329,
      "velocity": 97,
      "chip": "ym2612"
    },
    {
      "channel": 0,
      "note": 86,
      "start": 39.6799,
      "duration": 0.4,
      "velocity": 97,
      "chip": "ym2612"
    },
    {
      "channel": 1,
      "note": 55,
      "start": 39.6805,
      "duration": 0.4,
      "velocity": 112,
      "chip": "ym2612"
    },
    {
      "channel": 2,
      "note": 44,
      "start": 39.6836,
      "duration": 0.3998,
      "velocity": 127,
      "chip": "ym2612"
    },
    {
      "channel": 4,
      "note": 88,
      "start": 39.6976,
      "duration": 0.1329,
      "velocity": 97,
      "chip": "ym2612"
    },
    {
      "channel": 4,
      "note": 86,
      "start": 39.8311,
      "duration": 0.4,
      "velocity": 97,
      "chip": "ym2612"
    },
    {
      "channel": 0,
      "note": 91,
      "start": 40.0804,
      "duration": 0.1333,
      "velocity": 97,
      "chip": "ym2612"
    },
    {
      "channel": 1,
      "note": 55,
      "start": 40.0811,
      "duration": 0.1336,
      "velocity": 112,
      "chip": "ym2612"
    },
    {
      "channel": 2,
      "note": 72,
      "start": 40.0841,
      "duration": 0.0969,
      "velocity": 127,
      "chip": "ym2612"
    },
    {
      "channel": 2,
      "note": 73,
      "start": 40.1817,
      "duration": 0.0989,
      "velocity": 127,
      "chip": "ym2612"
    },
    {
      "channel": 0,
      "note": 91,
      "start": 40.2141,
      "duration": 5.0724,
      "velocity": 97,
      "chip": "ym2612"
    },
    {
      "channel": 1,
      "note": 55,
      "start": 40.215,
      "duration": 5.0718,
      "velocity": 112,
      "chip": "ym2612"
    },
    {
      "channel": 4,
      "note": 91,
      "start": 40.2317,
      "duration": 0.1333,
      "velocity": 97,
      "chip": "ym2612"
    },
    {
      "channel": 2,
      "note": 73,
      "start": 40.2814,
      "duration": 0.0994,
      "velocity": 127,
      "chip": "ym2612"
    },
    {
      "channel": 4,
      "note": 91,
      "start": 40.3654,
      "duration": 5.0716,
      "velocity": 97,
      "chip": "ym2612"
    },
    {
      "channel": 2,
      "note": 73,
      "start": 40.3815,
      "duration": 0.0994,
      "velocity": 127,
      "chip": "ym2612"
    },
    {
      "channel": 2,
      "note": 73,
      "start": 40.4817,
      "duration": 0.0994,
      "velocity": 127,
      "chip": "ym2612"
    },
    {
      "channel": 2,
      "note": 73,
      "start": 40.5818,
      "duration": 0.0994,
      "velocity": 127,
      "chip": "ym2612"
    },
    {
      "channel": 2,
      "note": 73,
      "start": 40.6819,
      "duration": 0.0994,
      "velocity": 127,
      "chip": "ym2612"
    },
    {
      "channel": 2,
      "note": 73,
      "start": 40.782,
      "duration": 0.1002,
      "velocity": 127,
      "chip": "ym2612"
    },
    {
      "channel": 2,
      "note": 73,
      "start": 40.8829,
      "duration": 0.0992,
      "velocity": 127,
      "chip": "ym2612"
    },
    {
      "channel": 2,
      "note": 73,
      "start": 40.9828,
      "duration": 0.0989,
      "velocity": 127,
      "chip": "ym2612"
    },
    {
      "channel": 2,
      "note": 73,
      "start": 41.0824,
      "duration": 0.0994,
      "velocity": 127,
      "chip": "ym2612"
    },
    {
      "channel": 2,
      "note": 73,
      "start": 41.1826,
      "duration": 0.1001,
      "velocity": 127,
      "chip": "ym2612"
    },
    {
      "channel": 2,
      "note": 73,
      "start": 41.2834,
      "duration": 0.0987,
      "velocity": 127,
      "chip": "ym2612"
    },
    {
      "channel": 2,
      "note": 73,
      "start": 41.3828,
      "duration": 0.0994,
      "velocity": 127,
      "chip": "ym2612"
    },
    {
      "channel": 2,
      "note": 73,
      "start": 41.4829,
      "duration": 0.0994,
      "velocity": 127,
      "chip": "ym2612"
    },
    {
      "channel": 2,
      "note": 73,
      "start": 41.5831,
      "duration": 0.1005,
      "velocity": 127,
      "chip": "ym2612"
    },
    {
      "channel": 2,
      "note": 73,
      "start": 41.6843,
      "duration": 0.0989,
      "velocity": 127,
      "chip": "ym2612"
    },
    {
      "channel": 2,
      "note": 73,
      "start": 41.7839,
      "duration": 0.0989,
      "velocity": 127,
      "chip": "ym2612"
    },
    {
      "channel": 2,
      "note": 73,
      "start": 41.8834,
      "duration": 0.0994,
      "velocity": 127,
      "chip": "ym2612"
    },
    {
      "channel": 2,
      "note": 73,
      "start": 41.9836,
      "duration": 0.1001,
      "velocity": 127,
      "chip": "ym2612"
    },
    {
      "channel": 2,
      "note": 73,
      "start": 42.0844,
      "duration": 0.0987,
      "velocity": 127,
      "chip": "ym2612"
    },
    {
      "channel": 2,
      "note": 73,
      "start": 42.1839,
      "duration": 0.0994,
      "velocity": 127,
      "chip": "ym2612"
    },
    {
      "channel": 2,
      "note": 73,
      "start": 42.284,
      "duration": 0.0994,
      "velocity": 127,
      "chip": "ym2612"
    },
    {
      "channel": 2,
      "note": 73,
      "start": 42.3841,
      "duration": 0.1005,
      "velocity": 127,
      "chip": "ym2612"
    },
    {
      "channel": 2,
      "note": 73,
      "start": 42.4853,
      "duration": 0.0989,
      "velocity": 127,
      "chip": "ym2612"
    },
    {
      "channel": 2,
      "note": 73,
      "start": 42.5849,
      "duration": 0.0989,
      "velocity": 127,
      "chip": "ym2612"
    },
    {
      "channel": 2,
      "note": 73,
      "start": 42.6845,
      "duration": 0.0994,
      "velocity": 127,
      "chip": "ym2612"
    },
    {
      "channel": 2,
      "note": 73,
      "start": 42.7846,
      "duration": 0.1005,
      "velocity": 127,
      "chip": "ym2612"
    },
    {
      "channel": 2,
      "note": 73,
      "start": 42.8858,
      "duration": 0.0983,
      "velocity": 127,
      "chip": "ym2612"
    },
    {
      "channel": 2,
      "note": 73,
      "start": 42.9849,
      "duration": 0.0994,
      "velocity": 127,
      "chip": "ym2612"
    },
    {
      "channel": 2,
      "note": 73,
      "start": 43.085,
      "duration": 0.0994,
      "velocity": 127,
      "chip": "ym2612"
    },
    {
      "channel": 2,
      "note": 73,
      "start": 43.1851,
      "duration": 0.1001,
      "velocity": 127,
      "chip": "ym2612"
    },
    {
      "channel": 2,
      "note": 73,
      "start": 43.286,
      "duration": 0.0993,
      "velocity": 127,
      "chip": "ym2612"
    },
    {
      "channel": 2,
      "note": 73,
      "start": 43.3859,
      "duration": 0.0989,
      "velocity": 127,
      "chip": "ym2612"
    },
    {
      "channel": 2,
      "note": 73,
      "start": 43.4855,
      "duration": 0.0994,
      "velocity": 127,
      "chip": "ym2612"
    },
    {
      "channel": 2,
      "note": 73,
      "start": 43.5856,
      "duration": 0.1005,
      "velocity": 127,
      "chip": "ym2612"
    },
    {
      "channel": 2,
      "note": 73,
      "start": 43.6868,
      "duration": 0.0983,
      "velocity": 127,
      "chip": "ym2612"
    },
    {
      "channel": 2,
      "note": 73,
      "start": 43.7859,
      "duration": 0.0994,
      "velocity": 127,
      "chip": "ym2612"
    },
    {
      "channel": 2,
      "note": 73,
      "start": 43.886,
      "duration": 0.0994,
      "velocity": 127,
      "chip": "ym2612"
    },
    {
      "channel": 2,
      "note": 73,
      "start": 43.9862,
      "duration": 0.1001,
      "velocity": 127,
      "chip": "ym2612"
    },
    {
      "channel": 2,
      "note": 73,
      "start": 44.087,
      "duration": 0.0992,
      "velocity": 127,
      "chip": "ym2612"
    },
    {
      "channel": 2,
      "note": 73,
      "start": 44.187,
      "duration": 0.0989,
      "velocity": 127,
      "chip": "ym2612"
    },
    {
      "channel": 2,
      "note": 73,
      "start": 44.2866,
      "duration": 0.0994,
      "velocity": 127,
      "chip": "ym2612"
    },
    {
      "channel": 2,
      "note": 73,
      "start": 44.3867,
      "duration": 0.1005,
      "velocity": 127,
      "chip": "ym2612"
    },
    {
      "channel": 2,
      "note": 73,
      "start": 44.4879,
      "duration": 0.0983,
      "velocity": 127,
      "chip": "ym2612"
    },
    {
      "channel": 2,
      "note": 73,
      "start": 44.5869,
      "duration": 0.0994,
      "velocity": 127,
      "chip": "ym2612"
    },
    {
      "channel": 2,
      "note": 73,
      "start": 44.6871,
      "duration": 0.0994,
      "velocity": 127,
      "chip": "ym2612"
    },
    {
      "channel": 2,
      "note": 73,
      "start": 44.7872,
      "duration": 0.1001,
      "velocity": 127,
      "chip": "ym2612"
    },
    {
      "channel": 2,
      "note": 73,
      "start": 44.888,
      "duration": 0.0992,
      "velocity": 127,
      "chip": "ym2612"
    },
    {
      "channel": 2,
      "note": 73,
      "start": 44.9879,
      "duration": 0.099,
      "velocity": 127,
      "chip": "ym2612"
    },
    {
      "channel": 2,
      "note": 73,
      "start": 45.0876,
      "duration": 0.0994,
      "velocity": 127,
      "chip": "ym2612"
    },
    {
      "channel": 2,
      "note": 73,
      "start": 45.1877,
      "duration": 0.0998,
      "velocity": 127,
      "chip": "ym2612"
    },
    {
      "channel": 0,
      "note": 91,
      "start": 45.5566,
      "duration": 0.1304,
      "velocity": 104,
      "chip": "ym2612"
    },
    {
      "channel": 1,
      "note": 55,
      "start": 45.5576,
      "duration": 0.13,
      "velocity": 112,
      "chip": "ym2612"
    },
    {
      "channel": 2,
      "note": 73,
      "start": 45.5583,
      "duration": 0.132,
      "velocity": 127,
      "chip": "ym2612"
    },
    {
      "channel": 4,
      "note": 91,
      "start": 45.5617,
      "duration": 0.1297,
      "velocity": 104,
      "chip": "ym2612"
    },
    {
      "channel": 0,
      "note": 91,
      "start": 45.6874,
      "duration": 2.9055,
      "velocity": 97,
      "chip": "ym2612"
    },
    {
      "channel": 1,
      "note": 55,
      "start": 45.688,
      "duration": 3.6044,
      "velocity": 112,
      "chip": "ym2612"
    },
    {
      "channel": 2,
      "note": 70,
      "start": 45.691,
      "duration": 2.4002,
      "velocity": 127,
      "chip": "ym2612"
    },
    {
      "channel": 4,
      "note": 91,
      "start": 45.6919,
      "duration": 2.9853,
      "velocity": 97,
      "chip": "ym2612"
    },
    {
      "channel": 0,
      "note": 89,
      "start": 48.5935,
      "duration": 0.0974,
      "velocity": 97,
      "chip": "ym2612"
    },
    {
      "channel": 4,
      "note": 89,
      "start": 48.6778,
      "duration": 0.0973,
      "velocity": 97,
      "chip": "ym2612"
    },
    {
      "channel": 0,
      "note": 88,
      "start": 48.6915,
      "duration": 0.0996,
      "velocity": 97,
      "chip": "ym2612"
    },
    {
      "channel": 4,
      "note": 88,
      "start": 48.7756,
      "duration": 0.0996,
      "velocity": 97,
      "chip": "ym2612"
    },
    {
      "channel": 0,
      "note": 86,
      "start": 48.7916,
      "duration": 0.0996,
      "velocity": 97,
      "chip": "ym2612"
    },
    {
      "channel": 4,
      "note": 86,
      "start": 48.8758,
      "duration": 0.0996,
      "velocity": 97,
      "chip": "ym2612"
    },
    {
      "channel": 0,
      "note": 84,
      "start": 48.8917,
      "duration": 0.0996,
      "velocity": 97,
      "chip": "ym2612"
    },
    {
      "channel": 4,
      "note": 84,
      "start": 48.9759,
      "duration": 0.0996,
      "velocity": 97,
      "chip": "ym2612"
    },
    {
      "channel": 0,
      "note": 83,
      "start": 48.9919,
      "duration": 0.0996,
      "velocity": 97,
      "chip": "ym2612"
    },
    {
      "channel": 4,
      "note": 83,
      "start": 49.076,
      "duration": 0.0996,
      "velocity": 97,
      "chip": "ym2612"
    },
    {
      "channel": 0,
      "note": 81,
      "start": 49.092,
      "duration": 0.0996,
      "velocity": 97,
      "chip": "ym2612"
    },
    {
      "channel": 4,
      "note": 81,
      "start": 49.1762,
      "duration": 0.0995,
      "velocity": 97,
      "chip": "ym2612"
    },
    {
      "channel": 0,
      "note": 79,
      "start": 49.1921,
      "duration": 0.0996,
      "velocity": 97,
      "chip": "ym2612"
    },
    {
      "channel": 4,
      "note": 79,
      "start": 49.2763,
      "duration": 0.0999,
      "velocity": 97,
      "chip": "ym2612"
    },
    {
      "channel": 0,
      "note": 81,
      "start": 49.2922,
      "duration": 0.6002,
      "velocity": 97,
      "chip": "ym2612"
    },
    {
      "channel": 1,
      "note": 62,
      "start": 49.2929,
      "duration": 0.8005,
      "velocity": 112,
      "chip": "ym2612"
    },
    {
      "channel": 2,
      "note": 70,
      "start": 49.2937,
      "duration": 0.8005,
      "velocity": 127,
      "chip": "ym2612"
    },
    {
      "channel": 4,
      "note": 81,
      "start": 49.3768,
      "duration": 0.6,
      "velocity": 97,
      "chip": "ym2612"
    },
    {
      "channel": 0,
      "note": 84,
      "start": 50.0933,
      "duration": 0.6002,
      "velocity": 97,
      "chip": "ym2612"
    },
    {
      "channel": 1,
      "note": 62,
      "start": 50.094,
      "duration": 0.8005,
      "velocity": 112,
      "chip": "ym2612"
    },
    {
      "channel": 2,
      "note": 70,
      "start": 50.0948,
      "duration": 0.8003,
      "velocity": 127,
      "chip": "ym2612"
    },
    {
      "channel": 4,
      "note": 84,
      "start": 50.1778,
      "duration": 0.6,
      "velocity": 97,
      "chip": "ym2612"
    },
    {
      "channel": 0,
      "note": 86,
      "start": 50.8943,
      "duration": 0.6002,
      "velocity": 97,
      "chip": "ym2612"
    },
    {
      "channel": 1,
      "note": 55,
      "start": 50.895,
      "duration": 0.8005,
      "velocity": 112,
      "chip": "ym2612"
    },
    {
      "channel": 2,
      "note": 70,
      "start": 50.8959,
      "duration": 0.8003,
      "velocity": 127,
      "chip": "ym2612"
    },
    {
      "channel": 4,
      "note": 86,
      "start": 50.9788,
      "duration": 0.6,
      "velocity": 97,
      "chip": "ym2612"
    },
    {
      "channel": 0,
      "note": 88,
      "start": 51.6954,
      "duration": 0.6002,
      "velocity": 97,
      "chip": "ym2612"
    },
    {
      "channel": 1,
      "note": 55,
      "start": 51.696,
      "duration": 0.8005,
      "velocity": 112,
      "chip": "ym2612"
    },
    {
      "channel": 2,
      "note": 70,
      "start": 51.6969,
      "duration": 0.8025,
      "velocity": 127,
      "chip": "ym2612"
    },
    {
      "channel": 4,
      "note": 88,
      "start": 51.7798,
      "duration": 0.6,
      "velocity": 97,
      "chip": "ym2612"
    },
    {
      "channel": 0,
      "note": 91,
      "start": 52.4964,
      "duration": 3.204,
      "velocity": 97,
      "chip": "ym2612"
    },
    {
      "channel": 1,
      "note": 60,
      "start": 52.4971,
      "duration": 3.2037,
      "velocity": 112,
      "chip": "ym2612"
    },
    {
      "channel": 2,
      "note": 73,
      "start": 52.5001,
      "duration": 0.0968,
      "velocity": 127,
      "chip": "ym2612"
    },
    {
      "channel": 3,
      "note": 59,
      "start": 52.5008,
      "duration": 0.097,
      "velocity": 103,
      "chip": "ym2612"
    },
    {
      "channel": 4,
      "note": 91,
      "start": 52.5811,
      "duration": 3.1246,
      "velocity": 97,
      "chip": "ym2612"
    },
    {
      "channel": 2,
      "note": 73,
      "start": 52.5977,
      "duration": 0.099,
      "velocity": 127,
      "chip": "ym2612"
    },
    {
      "channel": 3,
      "note": 60,
      "start": 52.5983,
      "duration": 0.0992,
      "velocity": 103,
      "chip": "ym2612"
    },
    {
      "channel": 5,
      "note": 59,
      "start": 52.6482,
      "duration": 0.0996,
      "velocity": 103,
      "chip": "ym2612"
    },
    {
      "channel": 2,
      "note": 73,
      "start": 52.6974,
      "duration": 0.0994,
      "velocity": 127,
      "chip": "ym2612"
    },
    {
      "channel": 3,
      "note": 64,
      "start": 52.6981,
      "duration": 0.0996,
      "velocity": 103,
      "chip": "ym2612"
    },
    {
      "channel": 5,
      "note": 60,
      "start": 52.7483,
      "duration": 0.0996,
      "velocity": 103,
      "chip": "ym2612"
    },
    {
      "channel": 2,
      "note": 73,
      "start": 52.7975,
      "duration": 0.0994,
      "velocity": 127,
      "chip": "ym2612"
    },
    {
      "channel": 3,
      "note": 67,
      "start": 52.7982,
      "duration": 0.0996,
      "velocity": 103,
      "chip": "ym2612"
    },
    {
      "channel": 5,
      "note": 64,
      "start": 52.8484,
      "duration": 0.0996,
      "velocity": 103,
      "chip": "ym2612"
    },
    {
      "channel": 2,
      "note": 73,
      "start": 52.8976,
      "duration": 0.0994,
      "velocity": 127,
      "chip": "ym2612"
    },
    {
      "channel": 3,
      "note": 71,
      "start": 52.8983,
      "duration": 0.8005,
      "velocity": 103,
      "chip": "ym2612"
    },
    {
      "channel": 5,
      "note": 67,
      "start": 52.9485,
      "duration": 0.0996,
      "velocity": 103,
      "chip": "ym2612"
    },
    {
      "channel": 2,
      "note": 73,
      "start": 52.9978,
      "duration": 0.0994,
      "velocity": 127,
      "chip": "ym2612"
    },
    {
      "channel": 5,
      "note": 71,
      "start": 53.0487,
      "duration": 0.8005,
      "velocity": 103,
      "chip": "ym2612"
    },
    {
      "channel": 2,
      "note": 73,
      "start": 53.0979,
      "duration": 0.0994,
      "velocity": 127,
      "chip": "ym2612"
    },
    {
      "channel": 2,
      "note": 73,
      "start": 53.198,
      "duration": 0.0998,
      "velocity": 127,
      "chip": "ym2612"
    },
    {
      "channel": 2,
      "note": 73,
      "start": 53.2986,
      "duration": 0.0995,
      "velocity": 127,
      "chip": "ym2612"
    },
    {
      "channel": 2,
      "note": 73,
      "start": 53.3988,
      "duration": 0.0989,
      "velocity": 127,
      "chip": "ym2612"
    },
    {
      "channel": 2,
      "note": 73,
      "start": 53.4984,
      "duration": 0.0994,
      "velocity": 127,
      "chip": "ym2612"
    },
    {
      "channel": 2,
      "note": 73,
      "start": 53.5985,
      "duration": 0.0994,
      "velocity": 127,
      "chip": "ym2612"
    },
    {
      "channel": 2,
      "note": 73,
      "start": 53.6987,
      "duration": 0.0994,
      "velocity": 127,
      "chip": "ym2612"
    },
    {
      "channel": 3,
      "note": 69,
      "start": 53.6994,
      "duration": 0.0996,
      "velocity": 103,
      "chip": "ym2612"
    },
    {
      "channel": 2,
      "note": 73,
      "start": 53.7988,
      "duration": 0.0994,
      "velocity": 127,
      "chip": "ym2612"
    },
    {
      "channel": 3,
      "note": 67,
      "start": 53.7995,
      "duration": 0.0996,
      "velocity": 103,
      "chip": "ym2612"
    },
    {
      "channel": 5,
      "note": 69,
      "start": 53.8497,
      "duration": 0.0996,
      "velocity": 103,
      "chip": "ym2612"
    },
    {
      "channel": 2,
      "note": 73,
      "start": 53.8989,
      "duration": 0.0994,
      "velocity": 127,
      "chip": "ym2612"
    },
    {
      "channel": 3,
      "note": 64,
      "start": 53.8996,
      "duration": 0.0996,
      "velocity": 103,
      "chip": "ym2612"
    },
    {
      "channel": 5,
      "note": 67,
      "start": 53.9498,
      "duration": 0.0996,
      "velocity": 103,
      "chip": "ym2612"
    },
    {
      "channel": 2,
      "note": 73,
      "start": 53.9991,
      "duration": 0.0998,
      "velocity": 127,
      "chip": "ym2612"
    },
    {
      "channel": 3,
      "note": 60,
      "start": 53.9998,
      "duration": 0.1,
      "velocity": 103,
      "chip": "ym2612"
    },
    {
      "channel": 5,
      "note": 64,
      "start": 54.05,
      "duration": 0.0996,
      "velocity": 103,
      "chip": "ym2612"
    },
    {
      "channel": 2,
      "note": 73,
      "start": 54.0996,
      "duration": 0.0995,
      "velocity": 127,
      "chip": "ym2612"
    },
    {
      "channel": 3,
      "note": 59,
      "start": 54.1003,
      "duration": 0.0996,
      "velocity": 103,
      "chip": "ym2612"
    },
    {
      "channel": 5,
      "note": 60,
      "start": 54.1501,
      "duration": 0.0996,
      "velocity": 103,
      "chip": "ym2612"
    },
    {
      "channel": 2,
      "note": 73,
      "start": 54.1998,
      "duration": 0.0989,
      "velocity": 127,
      "chip": "ym2612"
    },
    {
      "channel": 3,
      "note": 60,
      "start": 54.2005,
      "duration": 0.0996,
      "velocity": 103,
      "chip": "ym2612"
    },
    {
      "channel": 5,
      "note": 59,
      "start": 54.2502,
      "duration": 0.0996,
      "velocity": 103,
      "chip": "ym2612"
    },
    {
      "channel": 2,
      "note": 73,
      "start": 54.2995,
      "duration": 0.0994,
      "velocity": 127,
      "chip": "ym2612"
    },
    {
      "channel": 3,
      "note": 59,
      "start": 54.3006,
      "duration": 0.0991,
      "velocity": 103,
      "chip": "ym2612"
    },
    {
      "channel": 5,
      "note": 60,
      "start": 54.3503,
      "duration": 0.1001,
      "velocity": 103,
      "chip": "ym2612"
    },
    {
      "channel": 2,
      "note": 73,
      "start": 54.3996,
      "duration": 0.0994,
      "velocity": 127,
      "chip": "ym2612"
    },
    {
      "channel": 3,
      "note": 60,
      "start": 54.4003,
      "duration": 0.1,
      "velocity": 103,
      "chip": "ym2612"
    },
    {
      "channel": 5,
      "note": 59,
      "start": 54.451,
      "duration": 0.0991,
      "velocity": 103,
      "chip": "ym2612"
    },
    {
      "channel": 2,
      "note": 73,
      "start": 54.4997,
      "duration": 0.0994,
      "velocity": 127,
      "chip": "ym2612"
    },
    {
      "channel": 3,
      "note": 59,
      "start": 54.5009,
      "duration": 0.0991,
      "velocity": 103,
      "chip": "ym2612"
    },
    {
      "channel": 5,
      "note": 60,
      "start": 54.5506,
      "duration": 0.1001,
      "velocity": 103,
      "chip": "ym2612"
    },
    {
      "channel": 2,
      "note": 73,
      "start": 54.5998,
      "duration": 0.0994,
      "velocity": 127,
      "chip": "ym2612"
    },
    {
      "channel": 3,
      "note": 60,
      "start": 54.6005,
      "duration": 0.1001,
      "velocity": 103,
      "chip": "ym2612"
    },
    {
      "channel": 5,
      "note": 59,
      "start": 54.6512,
      "duration": 0.0991,
      "velocity": 103,
      "chip": "ym2612"
    },
    {
      "channel": 2,
      "note": 73,
      "start": 54.7,
      "duration": 0.0994,
      "velocity": 127,
      "chip": "ym2612"
    },
    {
      "channel": 3,
      "note": 59,
      "start": 54.7011,
      "duration": 0.0991,
      "velocity": 103,
      "chip": "ym2612"
    },
    {
      "channel": 5,
      "note": 60,
      "start": 54.7509,
      "duration": 0.1,
      "velocity": 103,
      "chip": "ym2612"
    },
    {
      "channel": 2,
      "note": 73,
      "start": 54.8001,
      "duration": 0.0998,
      "velocity": 127,
      "chip": "ym2612"
    },
    {
      "channel": 3,
      "note": 60,
      "start": 54.8008,
      "duration": 0.1005,
      "velocity": 103,
      "chip": "ym2612"
    },
    {
      "channel": 5,
      "note": 59,
      "start": 54.8515,
      "duration": 0.0991,
      "velocity": 103,
      "chip": "ym2612"
    },
    {
      "channel": 2,
      "note": 73,
      "start": 54.9006,
      "duration": 0.0995,
      "velocity": 127,
      "chip": "ym2612"
    },
    {
      "channel": 3,
      "note": 59,
      "start": 54.9018,
      "duration": 0.0992,
      "velocity": 103,
      "chip": "ym2612"
    },
    {
      "channel": 5,
      "note": 60,
      "start": 54.9511,
      "duration": 0.1001,
      "velocity": 103,
      "chip": "ym2612"
    },
    {
      "channel": 2,
      "note": 73,
      "start": 55.0008,
      "duration": 0.099,
      "velocity": 127,
      "chip": "ym2612"
    },
    {
      "channel": 3,
      "note": 60,
      "start": 55.0015,
      "duration": 0.0996,
      "velocity": 103,
      "chip": "ym2612"
    },
    {
      "channel": 5,
      "note": 59,
      "start": 55.0517,
      "duration": 0.0991,
      "velocity": 103,
      "chip": "ym2612"
    },
    {
      "channel": 2,
      "note": 73,
      "start": 55.1005,
      "duration": 0.0994,
      "velocity": 127,
      "chip": "ym2612"
    },
    {
      "channel": 3,
      "note": 59,
      "start": 55.1016,
      "duration": 0.0991,
      "velocity": 103,
      "chip": "ym2612"
    },
    {
      "channel": 5,
      "note": 60,
      "start": 55.1514,
      "duration": 0.1001,
      "velocity": 103,
      "chip": "ym2612"
    },
    {
      "channel": 2,
      "note": 73,
      "start": 55.2006,
      "duration": 0.0994,
      "velocity": 127,
      "chip": "ym2612"
    },
    {
      "channel": 3,
      "note": 60,
      "start": 55.2013,
      "duration": 0.1001,
      "velocity": 103,
      "chip": "ym2612"
    },
    {
      "channel": 5,
      "note": 59,
      "start": 55.252,
      "duration": 0.0991,
      "velocity": 103,
      "chip": "ym2612"
    },
    {
      "channel": 2,
      "note": 73,
      "start": 55.3007,
      "duration": 0.0994,
      "velocity": 127,
      "chip": "ym2612"
    },
    {
      "channel": 3,
      "note": 59,
      "start": 55.3019,
      "duration": 0.0991,
      "velocity": 103,
      "chip": "ym2612"
    },
    {
      "channel": 5,
      "note": 60,
      "start": 55.3516,
      "duration": 0.1001,
      "velocity": 103,
      "chip": "ym2612"
    },
    {
      "channel": 2,
      "note": 73,
      "start": 55.4009,
      "duration": 0.0994,
      "velocity": 127,
      "chip": "ym2612"
    },
    {
      "channel": 3,
      "note": 60,
      "start": 55.4015,
      "duration": 0.1001,
      "velocity": 103,
      "chip": "ym2612"
    },
    {
      "channel": 5,
      "note": 59,
      "start": 55.4522,
      "duration": 0.0991,
      "velocity": 103,
      "chip": "ym2612"
    },
    {
      "channel": 2,
      "note": 73,
      "start": 55.501,
      "duration": 0.0994,
      "velocity": 127,
      "chip": "ym2612"
    },
    {
      "channel": 3,
      "note": 59,
      "start": 55.5022,
      "duration": 0.0991,
      "velocity": 103,
      "chip": "ym2612"
    },
    {
      "channel": 5,
      "note": 60,
      "start": 55.5519,
      "duration": 0.1001,
      "velocity": 103,
      "chip": "ym2612"
    },
    {
      "channel": 2,
      "note": 73,
      "start": 55.6011,
      "duration": 0.1025,
      "velocity": 127,
      "chip": "ym2612"
    },
    {
      "channel": 3,
      "note": 60,
      "start": 55.6018,
      "duration": 0.1032,
      "velocity": 103,
      "chip": "ym2612"
    },
    {
      "channel": 5,
      "note": 59,
      "start": 55.6525,
      "duration": 0.098,
      "velocity": 103,
      "chip": "ym2612"
    },
    {
      "channel": 2,
      "note": 70,
      "start": 55.7044,
      "duration": 1.5977,
      "velocity": 127,
      "chip": "ym2612"
    },
    {
      "channel": 5,
      "note": 60,
      "start": 55.751,
      "duration": 0.1001,
      "velocity": 103,
      "chip": "ym2612"
    }
  ]
}