{
  "track_name": "24 - Unknown (Sound Test 19)",
  "duration_sec": 30.793,
  "sample_rate": 44100,
  "note_count": 899,
  "unique_pitches": 38,
  "pitch_range": 45,
  "avg_note_duration": 0.2021,
  "reconstruction_stats": {
    "notes_reconstructed": 899,
    "keyon_events": 899,
    "keyoff_events": 894,
    "orphan_keyons": 5,
    "unique_pitches": 38,
    "pitch_range": 45,
    "avg_duration_sec": 0.2021
  },
  "metadata": {
    "source": "S\\Splatterhouse 3\\24 - Unknown (Sound Test 19).vgz"
  },
  "notes": [
    {
      "channel": 0,
      "note": 59,
      "start": 0.0,
      "duration": 0.1946,
      "velocity": 103,
      "chip": "ym2612"
    },
    {
      "channel": 1,
      "note": 52,
      "start": 0.0026,
      "duration": 0.1929,
      "velocity": 99,
      "chip": "ym2612"
    },
    {
      "channel": 2,
      "note": 71,
      "start": 0.0062,
      "duration": 0.0878,
      "velocity": 87,
      "chip": "ym2612"
    },
    {
      "channel": 5,
      "note": 44,
      "start": 0.014,
      "duration": 0.1899,
      "velocity": 84,
      "chip": "ym2612"
    },
    {
      "channel": 2,
      "note": 67,
      "start": 0.0941,
      "duration": 0.1024,
      "velocity": 87,
      "chip": "ym2612"
    },
    {
      "channel": 0,
      "note": 71,
      "start": 0.1947,
      "duration": 0.3993,
      "velocity": 103,
      "chip": "ym2612"
    },
    {
      "channel": 1,
      "note": 52,
      "start": 0.1957,
      "duration": 0.1987,
      "velocity": 99,
      "chip": "ym2612"
    },
    {
      "channel": 2,
      "note": 66,
      "start": 0.1966,
      "duration": 0.0978,
      "velocity": 87,
      "chip": "ym2612"
    },
    {
      "channel": 4,
      "note": 59,
      "start": 0.2004,
      "duration": 0.1961,
      "velocity": 103,
      "chip": "ym2612"
    },
    {
      "channel": 5,
      "note": 59,
      "start": 0.2041,
      "duration": 0.0944,
      "velocity": 84,
      "chip": "ym2612"
    },
    {
      "channel": 2,
      "note": 64,
      "start": 0.2945,
      "duration": 0.1008,
      "velocity": 87,
      "chip": "ym2612"
    },
    {
      "channel": 5,
      "note": 59,
      "start": 0.2986,
      "duration": 0.1015,
      "velocity": 127,
      "chip": "ym2612"
    },
    {
      "channel": 1,
      "note": 52,
      "start": 0.3945,
      "duration": 0.2005,
      "velocity": 99,
      "chip": "ym2612"
    },
    {
      "channel": 2,
      "note": 71,
      "start": 0.3955,
      "duration": 0.0985,
      "velocity": 87,
      "chip": "ym2612"
    },
    {
      "channel": 4,
      "note": 71,
      "start": 0.3966,
      "duration": 0.4007,
      "velocity": 103,
      "chip": "ym2612"
    },
    {
      "channel": 5,
      "note": 54,
      "start": 0.4002,
      "duration": 0.1998,
      "velocity": 84,
      "chip": "ym2612"
    },
    {
      "channel": 2,
      "note": 67,
      "start": 0.4941,
      "duration": 0.1018,
      "velocity": 87,
      "chip": "ym2612"
    },
    {
      "channel": 0,
      "note": 67,
      "start": 0.5941,
      "duration": 0.2002,
      "velocity": 103,
      "chip": "ym2612"
    },
    {
      "channel": 1,
      "note": 52,
      "start": 0.5951,
      "duration": 0.2002,
      "velocity": 99,
      "chip": "ym2612"
    },
    {
      "channel": 2,
      "note": 66,
      "start": 0.596,
      "duration": 0.0983,
      "velocity": 87,
      "chip": "ym2612"
    },
    {
      "channel": 5,
      "note": 59,
      "start": 0.6001,
      "duration": 0.0983,
      "velocity": 84,
      "chip": "ym2612"
    },
    {
      "channel": 2,
      "note": 64,
      "start": 0.6944,
      "duration": 0.1018,
      "velocity": 87,
      "chip": "ym2612"
    },
    {
      "channel": 5,
      "note": 59,
      "start": 0.6985,
      "duration": 0.1024,
      "velocity": 103,
      "chip": "ym2612"
    },
    {
      "channel": 0,
      "note": 66,
      "start": 0.7944,
      "duration": 0.1997,
      "velocity": 103,
      "chip": "ym2612"
    },
    {
      "channel": 1,
      "note": 52,
      "start": 0.7954,
      "duration": 0.1997,
      "velocity": 99,
      "chip": "ym2612"
    },
    {
      "channel": 2,
      "note": 71,
      "start": 0.7963,
      "duration": 0.0977,
      "velocity": 87,
      "chip": "ym2612"
    },
    {
      "channel": 4,
      "note": 67,
      "start": 0.7974,
      "duration": 0.1998,
      "velocity": 103,
      "chip": "ym2612"
    },
    {
      "channel": 5,
      "note": 44,
      "start": 0.801,
      "duration": 0.1998,
      "velocity": 84,
      "chip": "ym2612"
    },
    {
      "channel": 2,
      "note": 67,
      "start": 0.8941,
      "duration": 0.1019,
      "velocity": 87,
      "chip": "ym2612"
    },
    {
      "channel": 0,
      "note": 64,
      "start": 0.9943,
      "duration": 0.1999,
      "velocity": 103,
      "chip": "ym2612"
    },
    {
      "channel": 1,
      "note": 52,
      "start": 0.9952,
      "duration": 0.1999,
      "velocity": 99,
      "chip": "ym2612"
    },
    {
      "channel": 2,
      "note": 66,
      "start": 0.9962,
      "duration": 0.0982,
      "velocity": 87,
      "chip": "ym2612"
    },
    {
      "channel": 4,
      "note": 66,
      "start": 0.9973,
      "duration": 0.1999,
      "velocity": 103,
      "chip": "ym2612"
    },
    {
      "channel": 5,
      "note": 59,
      "start": 1.0009,
      "duration": 0.0975,
      "velocity": 84,
      "chip": "ym2612"
    },
    {
      "channel": 2,
      "note": 64,
      "start": 1.0944,
      "duration": 0.1017,
      "velocity": 87,
      "chip": "ym2612"
    },
    {
      "channel": 5,
      "note": 59,
      "start": 1.0985,
      "duration": 0.1023,
      "velocity": 127,
      "chip": "ym2612"
    },
    {
      "channel": 0,
      "note": 66,
      "start": 1.1943,
      "duration": 0.1999,
      "velocity": 103,
      "chip": "ym2612"
    },
    {
      "channel": 1,
      "note": 52,
      "start": 1.1952,
      "duration": 0.1999,
      "velocity": 99,
      "chip": "ym2612"
    },
    {
      "channel": 2,
      "note": 71,
      "start": 1.1962,
      "duration": 0.0979,
      "velocity": 87,
      "chip": "ym2612"
    },
    {
      "channel": 4,
      "note": 64,
      "start": 1.1973,
      "duration": 0.1999,
      "velocity": 103,
      "chip": "ym2612"
    },
    {
      "channel": 5,
      "note": 54,
      "start": 1.2009,
      "duration": 0.1999,
      "velocity": 84,
      "chip": "ym2612"
    },
    {
      "channel": 2,
      "note": 67,
      "start": 1.2941,
      "duration": 0.1019,
      "velocity": 87,
      "chip": "ym2612"
    },
    {
      "channel": 0,
      "note": 67,
      "start": 1.3943,
      "duration": 0.2002,
      "velocity": 103,
      "chip": "ym2612"
    },
    {
      "channel": 1,
      "note": 52,
      "start": 1.3952,
      "duration": 0.099,
      "velocity": 99,
      "chip": "ym2612"
    },
    {
      "channel": 2,
      "note": 66,
      "start": 1.3962,
      "duration": 0.099,
      "velocity": 87,
      "chip": "ym2612"
    },
    {
      "channel": 4,
      "note": 66,
      "start": 1.3973,
      "duration": 0.2011,
      "velocity": 103,
      "chip": "ym2612"
    },
    {
      "channel": 5,
      "note": 59,
      "start": 1.4009,
      "duration": 0.0983,
      "velocity": 84,
      "chip": "ym2612"
    },
    {
      "channel": 1,
      "note": 52,
      "start": 1.4943,
      "duration": 0.1012,
      "velocity": 99,
      "chip": "ym2612"
    },
    {
      "channel": 2,
      "note": 64,
      "start": 1.4952,
      "duration": 0.1012,
      "velocity": 87,
      "chip": "ym2612"
    },
    {
      "channel": 5,
      "note": 59,
      "start": 1.4993,
      "duration": 0.1027,
      "velocity": 103,
      "chip": "ym2612"
    },
    {
      "channel": 0,
      "note": 60,
      "start": 1.5946,
      "duration": 0.9994,
      "velocity": 103,
      "chip": "ym2612"
    },
    {
      "channel": 1,
      "note": 48,
      "start": 1.5956,
      "duration": 0.1988,
      "velocity": 99,
      "chip": "ym2612"
    },
    {
      "channel": 2,
      "note": 72,
      "start": 1.5966,
      "duration": 0.0975,
      "velocity": 87,
      "chip": "ym2612"
    },
    {
      "channel": 3,
      "note": 74,
      "start": 1.5975,
      "duration": 0.7988,
      "velocity": 91,
      "chip": "ym2612"
    },
    {
      "channel": 4,
      "note": 67,
      "start": 1.5985,
      "duration": 0.1982,
      "velocity": 103,
      "chip": "ym2612"
    },
    {
      "channel": 5,
      "note": 44,
      "start": 1.6022,
      "duration": 0.1981,
      "velocity": 84,
      "chip": "ym2612"
    },
    {
      "channel": 2,
      "note": 67,
      "start": 1.6941,
      "duration": 0.1012,
      "velocity": 87,
      "chip": "ym2612"
    },
    {
      "channel": 1,
      "note": 48,
      "start": 1.7945,
      "duration": 0.1998,
      "velocity": 99,
      "chip": "ym2612"
    },
    {
      "channel": 2,
      "note": 64,
      "start": 1.7955,
      "duration": 0.099,
      "velocity": 87,
      "chip": "ym2612"
    },
    {
      "channel": 4,
      "note": 60,
      "start": 1.7967,
      "duration": 1.0007,
      "velocity": 103,
      "chip": "ym2612"
    },
    {
      "channel": 5,
      "note": 59,
      "start": 1.8004,
      "duration": 0.0983,
      "velocity": 84,
      "chip": "ym2612"
    },
    {
      "channel": 2,
      "note": 60,
      "start": 1.8945,
      "duration": 0.1008,
      "velocity": 87,
      "chip": "ym2612"
    },
    {
      "channel": 5,
      "note": 59,
      "start": 1.8988,
      "duration": 0.1007,
      "velocity": 127,
      "chip": "ym2612"
    },
    {
      "channel": 1,
      "note": 48,
      "start": 1.9944,
      "duration": 0.1997,
      "velocity": 99,
      "chip": "ym2612"
    },
    {
      "channel": 2,
      "note": 72,
      "start": 1.9954,
      "duration": 0.0987,
      "velocity": 87,
      "chip": "ym2612"
    },
    {
      "channel": 5,
      "note": 54,
      "start": 1.9997,
      "duration": 0.1996,
      "velocity": 84,
      "chip": "ym2612"
    },
    {
      "channel": 2,
      "note": 67,
      "start": 2.0942,
      "duration": 0.1009,
      "velocity": 87,
      "chip": "ym2612"
    },
    {
      "channel": 1,
      "note": 48,
      "start": 2.1943,
      "duration": 0.2001,
      "velocity": 99,
      "chip": "ym2612"
    },
    {
      "channel": 2,
      "note": 64,
      "start": 2.1952,
      "duration": 0.099,
      "velocity": 87,
      "chip": "ym2612"
    },
    {
      "channel": 5,
      "note": 59,
      "start": 2.1994,
      "duration": 0.099,
      "velocity": 84,
      "chip": "ym2612"
    },
    {
      "channel": 2,
      "note": 60,
      "start": 2.2944,
      "duration": 0.101,
      "velocity": 87,
      "chip": "ym2612"
    },
    {
      "channel": 5,
      "note": 59,
      "start": 2.2986,
      "duration": 0.1016,
      "velocity": 103,
      "chip": "ym2612"
    },
    {
      "channel": 1,
      "note": 48,
      "start": 2.3945,
      "duration": 0.2005,
      "velocity": 99,
      "chip": "ym2612"
    },
    {
      "channel": 2,
      "note": 72,
      "start": 2.3955,
      "duration": 0.0985,
      "velocity": 87,
      "chip": "ym2612"
    },
    {
      "channel": 3,
      "note": 72,
      "start": 2.3964,
      "duration": 0.801,
      "velocity": 91,
      "chip": "ym2612"
    },
    {
      "channel": 5,
      "note": 44,
      "start": 2.4003,
      "duration": 0.1999,
      "velocity": 84,
      "chip": "ym2612"
    },
    {
      "channel": 2,
      "note": 67,
      "start": 2.4941,
      "duration": 0.1019,
      "velocity": 87,
      "chip": "ym2612"
    },
    {
      "channel": 0,
      "note": 60,
      "start": 2.5942,
      "duration": 0.2001,
      "velocity": 103,
      "chip": "ym2612"
    },
    {
      "channel": 1,
      "note": 48,
      "start": 2.5951,
      "duration": 0.2001,
      "velocity": 99,
      "chip": "ym2612"
    },
    {
      "channel": 2,
      "note": 64,
      "start": 2.5961,
      "duration": 0.0983,
      "velocity": 87,
      "chip": "ym2612"
    },
    {
      "channel": 5,
      "note": 59,
      "start": 2.6003,
      "duration": 0.0983,
      "velocity": 84,
      "chip": "ym2612"
    },
    {
      "channel": 2,
      "note": 60,
      "start": 2.6945,
      "duration": 0.1017,
      "velocity": 87,
      "chip": "ym2612"
    },
    {
      "channel": 5,
      "note": 59,
      "start": 2.6987,
      "duration": 0.1024,
      "velocity": 127,
      "chip": "ym2612"
    },
    {
      "channel": 0,
      "note": 62,
      "start": 2.7944,
      "duration": 0.1998,
      "velocity": 103,
      "chip": "ym2612"
    },
    {
      "channel": 1,
      "note": 48,
      "start": 2.7954,
      "duration": 0.1998,
      "velocity": 99,
      "chip": "ym2612"
    },
    {
      "channel": 2,
      "note": 72,
      "start": 2.7963,
      "duration": 0.0981,
      "velocity": 87,
      "chip": "ym2612"
    },
    {
      "channel": 4,
      "note": 60,
      "start": 2.7976,
      "duration": 0.1997,
      "velocity": 103,
      "chip": "ym2612"
    },
    {
      "channel": 5,
      "note": 54,
      "start": 2.8012,
      "duration": 0.0976,
      "velocity": 127,
      "chip": "ym2612"
    },
    {
      "channel": 2,
      "note": 67,
      "start": 2.8946,
      "duration": 0.1015,
      "velocity": 87,
      "chip": "ym2612"
    },
    {
      "channel": 5,
      "note": 67,
      "start": 2.8989,
      "duration": 0.102,
      "velocity": 127,
      "chip": "ym2612"
    },
    {
      "channel": 0,
      "note": 64,
      "start": 2.9943,
      "duration": 0.2003,
      "velocity": 103,
      "chip": "ym2612"
    },
    {
      "channel": 1,
      "note": 48,
      "start": 2.9952,
      "duration": 0.2003,
      "velocity": 99,
      "chip": "ym2612"
    },
    {
      "channel": 2,
      "note": 64,
      "start": 2.9962,
      "duration": 0.0982,
      "velocity": 87,
      "chip": "ym2612"
    },
    {
      "channel": 4,
      "note": 62,
      "start": 2.9974,
      "duration": 0.201,
      "velocity": 103,
      "chip": "ym2612"
    },
    {
      "channel": 5,
      "note": 54,
      "start": 3.001,
      "duration": 0.0976,
      "velocity": 103,
      "chip": "ym2612"
    },
    {
      "channel": 2,
      "note": 60,
      "start": 3.0945,
      "duration": 0.102,
      "velocity": 87,
      "chip": "ym2612"
    },
    {
      "channel": 5,
      "note": 44,
      "start": 3.0987,
      "duration": 0.1033,
      "velocity": 103,
      "chip": "ym2612"
    },
    {
      "channel": 0,
      "note": 66,
      "start": 3.1946,
      "duration": 0.5994,
      "velocity": 103,
      "chip": "ym2612"
    },
    {
      "channel": 1,
      "note": 50,
      "start": 3.1956,
      "duration": 0.1988,
      "velocity": 99,
      "chip": "ym2612"
    },
    {
      "channel": 2,
      "note": 69,
      "start": 3.1966,
      "duration": 0.0975,
      "velocity": 87,
      "chip": "ym2612"
    },
    {
      "channel": 3,
      "note": 71,
      "start": 3.1976,
      "duration": 0.7998,
      "velocity": 91,
      "chip": "ym2612"
    },
    {
      "channel": 4,
      "note": 64,
      "start": 3.1985,
      "duration": 0.1982,
      "velocity": 103,
      "chip": "ym2612"
    },
    {
      "channel": 5,
      "note": 44,
      "start": 3.2022,
      "duration": 0.1981,
      "velocity": 84,
      "chip": "ym2612"
    },
    {
      "channel": 2,
      "note": 67,
      "start": 3.2942,
      "duration": 0.1012,
      "velocity": 87,
      "chip": "ym2612"
    },
    {
      "channel": 1,
      "note": 50,
      "start": 3.3945,
      "duration": 0.1998,
      "velocity": 99,
      "chip": "ym2612"
    },
    {
      "channel": 2,
      "note": 66,
      "start": 3.3955,
      "duration": 0.0989,
      "velocity": 87,
      "chip": "ym2612"
    },
    {
      "channel": 4,
      "note": 66,
      "start": 3.3967,
      "duration": 0.6016,
      "velocity": 103,
      "chip": "ym2612"
    },
    {
      "channel": 5,
      "note": 59,
      "start": 3.4004,
      "duration": 0.0983,
      "velocity": 84,
      "chip": "ym2612"
    },
    {
      "channel": 2,
      "note": 62,
      "start": 3.4945,
      "duration": 0.1007,
      "velocity": 87,
      "chip": "ym2612"
    },
    {
      "channel": 5,
      "note": 59,
      "start": 3.4988,
      "duration": 0.1007,
      "velocity": 127,
      "chip": "ym2612"
    },
    {
      "channel": 1,
      "note": 50,
      "start": 3.5944,
      "duration": 0.2006,
      "velocity": 99,
      "chip": "ym2612"
    },
    {
      "channel": 2,
      "note": 69,
      "start": 3.5954,
      "duration": 0.0987,
      "velocity": 87,
      "chip": "ym2612"
    },
    {
      "channel": 5,
      "note": 54,
      "start": 3.5997,
      "duration": 0.2005,
      "velocity": 84,
      "chip": "ym2612"
    },
    {
      "channel": 2,
      "note": 67,
      "start": 3.6941,
      "duration": 0.1019,
      "velocity": 87,
      "chip": "ym2612"
    },
    {
      "channel": 0,
      "note": 66,
      "start": 3.7941,
      "duration": 0.2003,
      "velocity": 103,
      "chip": "ym2612"
    },
    {
      "channel": 1,
      "note": 50,
      "start": 3.7951,
      "duration": 0.2003,
      "velocity": 99,
      "chip": "ym2612"
    },
    {
      "channel": 2,
      "note": 66,
      "start": 3.796,
      "duration": 0.0984,
      "velocity": 87,
      "chip": "ym2612"
    },
    {
      "channel": 5,
      "note": 59,
      "start": 3.8002,
      "duration": 0.0983,
      "velocity": 84,
      "chip": "ym2612"
    },
    {
      "channel": 2,
      "note": 62,
      "start": 3.8944,
      "duration": 0.1019,
      "velocity": 87,
      "chip": "ym2612"
    },
    {
      "channel": 5,
      "note": 59,
      "start": 3.8987,
      "duration": 0.1033,
      "velocity": 103,
      "chip": "ym2612"
    },
    {
      "channel": 0,
      "note": 67,
      "start": 3.9946,
      "duration": 0.3997,
      "velocity": 103,
      "chip": "ym2612"
    },
    {
      "channel": 1,
      "note": 50,
      "start": 3.9955,
      "duration": 0.1989,
      "velocity": 99,
      "chip": "ym2612"
    },
    {
      "channel": 2,
      "note": 69,
      "start": 3.9965,
      "duration": 0.0976,
      "velocity": 87,
      "chip": "ym2612"
    },
    {
      "channel": 3,
      "note": 69,
      "start": 3.9974,
      "duration": 0.3997,
      "velocity": 91,
      "chip": "ym2612"
    },
    {
      "channel": 4,
      "note": 66,
      "start": 3.9984,
      "duration": 0.1982,
      "velocity": 103,
      "chip": "ym2612"
    },
    {
      "channel": 5,
      "note": 44,
      "start": 4.0021,
      "duration": 0.1982,
      "velocity": 84,
      "chip": "ym2612"
    },
    {
      "channel": 2,
      "note": 67,
      "start": 4.0941,
      "duration": 0.1012,
      "velocity": 87,
      "chip": "ym2612"
    },
    {
      "channel": 1,
      "note": 50,
      "start": 4.1945,
      "duration": 0.2007,
      "velocity": 99,
      "chip": "ym2612"
    },
    {
      "channel": 2,
      "note": 66,
      "start": 4.1955,
      "duration": 0.099,
      "velocity": 87,
      "chip": "ym2612"
    },
    {
      "channel": 4,
      "note": 67,
      "start": 4.1967,
      "duration": 0.3999,
      "velocity": 103,
      "chip": "ym2612"
    },
    {
      "channel": 5,
      "note": 59,
      "start": 4.2004,
      "duration": 0.0983,
      "velocity": 84,
      "chip": "ym2612"
    },
    {
      "channel": 2,
      "note": 62,
      "start": 4.2945,
      "duration": 0.1017,
      "velocity": 87,
      "chip": "ym2612"
    },
    {
      "channel": 5,
      "note": 59,
      "start": 4.2988,
      "duration": 0.1023,
      "velocity": 127,
      "chip": "ym2612"
    },
    {
      "channel": 0,
      "note": 69,
      "start": 4.3944,
      "duration": 0.4,
      "velocity": 103,
      "chip": "ym2612"
    },
    {
      "channel": 1,
      "note": 50,
      "start": 4.3954,
      "duration": 0.199,
      "velocity": 99,
      "chip": "ym2612"
    },
    {
      "channel": 2,
      "note": 69,
      "start": 4.3963,
      "duration": 0.0978,
      "velocity": 87,
      "chip": "ym2612"
    },
    {
      "channel": 3,
      "note": 67,
      "start": 4.3973,
      "duration": 0.4,
      "velocity": 91,
      "chip": "ym2612"
    },
    {
      "channel": 5,
      "note": 54,
      "start": 4.4012,
      "duration": 0.199,
      "velocity": 84,
      "chip": "ym2612"
    },
    {
      "channel": 2,
      "note": 67,
      "start": 4.4942,
      "duration": 0.1012,
      "velocity": 87,
      "chip": "ym2612"
    },
    {
      "channel": 1,
      "note": 50,
      "start": 4.5944,
      "duration": 0.2009,
      "velocity": 99,
      "chip": "ym2612"
    },
    {
      "channel": 2,
      "note": 66,
      "start": 4.5954,
      "duration": 0.099,
      "velocity": 87,
      "chip": "ym2612"
    },
    {
      "channel": 4,
      "note": 69,
      "start": 4.5967,
      "duration": 0.3999,
      "velocity": 103,
      "chip": "ym2612"
    },
    {
      "channel": 5,
      "note": 59,
      "start": 4.6004,
      "duration": 0.0983,
      "velocity": 84,
      "chip": "ym2612"
    },
    {
      "channel": 2,
      "note": 62,
      "start": 4.6945,
      "duration": 0.1018,
      "velocity": 87,
      "chip": "ym2612"
    },
    {
      "channel": 5,
      "note": 59,
      "start": 4.6988,
      "duration": 0.1024,
      "velocity": 103,
      "chip": "ym2612"
    },
    {
      "channel": 0,
      "note": 71,
      "start": 4.7945,
      "duration": 0.3996,
      "velocity": 103,
      "chip": "ym2612"
    },
    {
      "channel": 1,
      "note": 51,
      "start": 4.7955,
      "duration": 0.1989,
      "velocity": 99,
      "chip": "ym2612"
    },
    {
      "channel": 2,
      "note": 71,
      "start": 4.7964,
      "duration": 0.0976,
      "velocity": 87,
      "chip": "ym2612"
    },
    {
      "channel": 3,
      "note": 66,
      "start": 4.7974,
      "duration": 0.8,
      "velocity": 91,
      "chip": "ym2612"
    },
    {
      "channel": 5,
      "note": 44,
      "start": 4.8013,
      "duration": 0.1989,
      "velocity": 84,
      "chip": "ym2612"
    },
    {
      "channel": 2,
      "note": 69,
      "start": 4.8941,
      "duration": 0.1012,
      "velocity": 87,
      "chip": "ym2612"
    },
    {
      "channel": 1,
      "note": 51,
      "start": 4.9944,
      "duration": 0.2006,
      "velocity": 99,
      "chip": "ym2612"
    },
    {
      "channel": 2,
      "note": 67,
      "start": 4.9954,
      "duration": 0.099,
      "velocity": 87,
      "chip": "ym2612"
    },
    {
      "channel": 4,
      "note": 71,
      "start": 4.9967,
      "duration": 0.4006,
      "velocity": 103,
      "chip": "ym2612"
    },
    {
      "channel": 5,
      "note": 59,
      "start": 5.0004,
      "duration": 0.0983,
      "velocity": 84,
      "chip": "ym2612"
    },
    {
      "channel": 2,
      "note": 66,
      "start": 5.0945,
      "duration": 0.1015,
      "velocity": 87,
      "chip": "ym2612"
    },
    {
      "channel": 5,
      "note": 59,
      "start": 5.0988,
      "duration": 0.1015,
      "velocity": 127,
      "chip": "ym2612"
    },
    {
      "channel": 0,
      "note": 69,
      "start": 5.1942,
      "duration": 0.2,
      "velocity": 103,
      "chip": "ym2612"
    },
    {
      "channel": 1,
      "note": 51,
      "start": 5.1951,
      "duration": 0.2,
      "velocity": 99,
      "chip": "ym2612"
    },
    {
      "channel": 2,
      "note": 71,
      "start": 5.1961,
      "duration": 0.098,
      "velocity": 87,
      "chip": "ym2612"
    },
    {
      "channel": 5,
      "note": 54,
      "start": 5.2004,
      "duration": 0.2005,
      "velocity": 84,
      "chip": "ym2612"
    },
    {
      "channel": 2,
      "note": 69,
      "start": 5.2941,
      "duration": 0.102,
      "velocity": 87,
      "chip": "ym2612"
    },
    {
      "channel": 0,
      "note": 67,
      "start": 5.3943,
      "duration": 0.2002,
      "velocity": 103,
      "chip": "ym2612"
    },
    {
      "channel": 1,
      "note": 51,
      "start": 5.3953,
      "duration": 0.2002,
      "velocity": 99,
      "chip": "ym2612"
    },
    {
      "channel": 2,
      "note": 67,
      "start": 5.3962,
      "duration": 0.0982,
      "velocity": 87,
      "chip": "ym2612"
    },
    {
      "channel": 4,
      "note": 69,
      "start": 5.3974,
      "duration": 0.201,
      "velocity": 103,
      "chip": "ym2612"
    },
    {
      "channel": 5,
      "note": 59,
      "start": 5.4011,
      "duration": 0.0975,
      "velocity": 84,
      "chip": "ym2612"
    },
    {
      "channel": 2,
      "note": 66,
      "start": 5.4945,
      "duration": 0.1019,
      "velocity": 87,
      "chip": "ym2612"
    },
    {
      "channel": 5,
      "note": 59,
      "start": 5.4987,
      "duration": 0.1034,
      "velocity": 103,
      "chip": "ym2612"
    },
    {
      "channel": 0,
      "note": 71,
      "start": 5.5946,
      "duration": 0.1996,
      "velocity": 103,
      "chip": "ym2612"
    },
    {
      "channel": 1,
      "note": 47,
      "start": 5.5956,
      "duration": 0.1996,
      "velocity": 99,
      "chip": "ym2612"
    },
    {
      "channel": 2,
      "note": 71,
      "start": 5.5966,
      "duration": 0.0975,
      "velocity": 87,
      "chip": "ym2612"
    },
    {
      "channel": 3,
      "note": 71,
      "start": 5.5975,
      "duration": 0.7999,
      "velocity": 91,
      "chip": "ym2612"
    },
    {
      "channel": 4,
      "note": 67,
      "start": 5.5985,
      "duration": 0.199,
      "velocity": 103,
      "chip": "ym2612"
    },
    {
      "channel": 5,
      "note": 44,
      "start": 5.6022,
      "duration": 0.199,
      "velocity": 84,
      "chip": "ym2612"
    },
    {
      "channel": 2,
      "note": 69,
      "start": 5.6941,
      "duration": 0.102,
      "velocity": 87,
      "chip": "ym2612"
    },
    {
      "channel": 0,
      "note": 72,
      "start": 5.7944,
      "duration": 0.1999,
      "velocity": 103,
      "chip": "ym2612"
    },
    {
      "channel": 1,
      "note": 47,
      "start": 5.7954,
      "duration": 0.1999,
      "velocity": 99,
      "chip": "ym2612"
    },
    {
      "channel": 2,
      "note": 67,
      "start": 5.7963,
      "duration": 0.0981,
      "velocity": 87,
      "chip": "ym2612"
    },
    {
      "channel": 4,
      "note": 71,
      "start": 5.7976,
      "duration": 0.1999,
      "velocity": 103,
      "chip": "ym2612"
    },
    {
      "channel": 5,
      "note": 59,
      "start": 5.8012,
      "duration": 0.0975,
      "velocity": 84,
      "chip": "ym2612"
    },
    {
      "channel": 2,
      "note": 66,
      "start": 5.8945,
      "duration": 0.1017,
      "velocity": 87,
      "chip": "ym2612"
    },
    {
      "channel": 5,
      "note": 59,
      "start": 5.8988,
      "duration": 0.1023,
      "velocity": 127,
      "chip": "ym2612"
    },
    {
      "channel": 0,
      "note": 73,
      "start": 5.9944,
      "duration": 0.1998,
      "velocity": 103,
      "chip": "ym2612"
    },
    {
      "channel": 1,
      "note": 47,
      "start": 5.9954,
      "duration": 0.1998,
      "velocity": 99,
      "chip": "ym2612"
    },
    {
      "channel": 2,
      "note": 67,
      "start": 5.9963,
      "duration": 0.0981,
      "velocity": 87,
      "chip": "ym2612"
    },
    {
      "channel": 4,
      "note": 72,
      "start": 5.9976,
      "duration": 0.1998,
      "velocity": 103,
      "chip": "ym2612"
    },
    {
      "channel": 5,
      "note": 54,
      "start": 6.0013,
      "duration": 0.0975,
      "velocity": 127,
      "chip": "ym2612"
    },
    {
      "channel": 2,
      "note": 66,
      "start": 6.0946,
      "duration": 0.1015,
      "velocity": 87,
      "chip": "ym2612"
    },
    {
      "channel": 5,
      "note": 67,
      "start": 6.0988,
      "duration": 0.1021,
      "velocity": 127,
      "chip": "ym2612"
    },
    {
      "channel": 0,
      "note": 75,
      "start": 6.1943,
      "duration": 0.2002,
      "velocity": 103,
      "chip": "ym2612"
    },
    {
      "channel": 1,
      "note": 47,
      "start": 6.1953,
      "duration": 0.2002,
      "velocity": 99,
      "chip": "ym2612"
    },
    {
      "channel": 2,
      "note": 64,
      "start": 6.1962,
      "duration": 0.0982,
      "velocity": 87,
      "chip": "ym2612"
    },
    {
      "channel": 4,
      "note": 73,
      "start": 6.1974,
      "duration": 0.201,
      "velocity": 103,
      "chip": "ym2612"
    },
    {
      "channel": 5,
      "note": 54,
      "start": 6.2011,
      "duration": 0.0975,
      "velocity": 103,
      "chip": "ym2612"
    },
    {
      "channel": 2,
      "note": 63,
      "start": 6.2945,
      "duration": 0.102,
      "velocity": 87,
      "chip": "ym2612"
    },
    {
      "channel": 5,
      "note": 44,
      "start": 6.2987,
      "duration": 0.1033,
      "velocity": 103,
      "chip": "ym2612"
    },
    {
      "channel": 0,
      "note": 59,
      "start": 6.3946,
      "duration": 0.1995,
      "velocity": 103,
      "chip": "ym2612"
    },
    {
      "channel": 1,
      "note": 52,
      "start": 6.3956,
      "duration": 0.1995,
      "velocity": 99,
      "chip": "ym2612"
    },
    {
      "channel": 2,
      "note": 71,
      "start": 6.3966,
      "duration": 0.0975,
      "velocity": 87,
      "chip": "ym2612"
    },
    {
      "channel": 3,
      "note": 71,
      "start": 6.3976,
      "duration": 1.1997,
      "velocity": 91,
      "chip": "ym2612"
    },
    {
      "channel": 4,
      "note": 75,
      "start": 6.3985,
      "duration": 0.1989,
      "velocity": 103,
      "chip": "ym2612"
    },
    {
      "channel": 5,
      "note": 44,
      "start": 6.4022,
      "duration": 0.1989,
      "velocity": 84,
      "chip": "ym2612"
    },
    {
      "channel": 2,
      "note": 67,
      "start": 6.4942,
      "duration": 0.1019,
      "velocity": 87,
      "chip": "ym2612"
    },
    {
      "channel": 0,
      "note": 71,
      "start": 6.5943,
      "duration": 0.3998,
      "velocity": 103,
      "chip": "ym2612"
    },
    {
      "channel": 1,
      "note": 52,
      "start": 6.5953,
      "duration": 0.1992,
      "velocity": 99,
      "chip": "ym2612"
    },
    {
      "channel": 2,
      "note": 66,
      "start": 6.5962,
      "duration": 0.0982,
      "velocity": 87,
      "chip": "ym2612"
    },
    {
      "channel": 4,
      "note": 59,
      "start": 6.5975,
      "duration": 0.1992,
      "velocity": 103,
      "chip": "ym2612"
    },
    {
      "channel": 5,
      "note": 59,
      "start": 6.6012,
      "duration": 0.0975,
      "velocity": 84,
      "chip": "ym2612"
    },
    {
      "channel": 2,
      "note": 64,
      "start": 6.6945,
      "duration": 0.1009,
      "velocity": 87,
      "chip": "ym2612"
    },
    {
      "channel": 5,
      "note": 59,
      "start": 6.6988,
      "duration": 0.1015,
      "velocity": 127,
      "chip": "ym2612"
    },
    {
      "channel": 1,
      "note": 52,
      "start": 6.7946,
      "duration": 0.2005,
      "velocity": 99,
      "chip": "ym2612"
    },
    {
      "channel": 2,
      "note": 71,
      "start": 6.7955,
      "duration": 0.0985,
      "velocity": 87,
      "chip": "ym2612"
    },
    {
      "channel": 4,
      "note": 71,
      "start": 6.7968,
      "duration": 0.4006,
      "velocity": 103,
      "chip": "ym2612"
    },
    {
      "channel": 5,
      "note": 54,
      "start": 6.8004,
      "duration": 0.1997,
      "velocity": 84,
      "chip": "ym2612"
    },
    {
      "channel": 2,
      "note": 67,
      "start": 6.8942,
      "duration": 0.1018,
      "velocity": 87,
      "chip": "ym2612"
    },
    {
      "channel": 0,
      "note": 67,
      "start": 6.9941,
      "duration": 0.2002,
      "velocity": 103,
      "chip": "ym2612"
    },
    {
      "channel": 1,
      "note": 52,
      "start": 6.9951,
      "duration": 0.2002,
      "velocity": 99,
      "chip": "ym2612"
    },
    {
      "channel": 2,
      "note": 66,
      "start": 6.996,
      "duration": 0.0984,
      "velocity": 87,
      "chip": "ym2612"
    },
    {
      "channel": 5,
      "note": 59,
      "start": 7.0002,
      "duration": 0.0983,
      "velocity": 84,
      "chip": "ym2612"
    },
    {
      "channel": 2,
      "note": 64,
      "start": 7.0944,
      "duration": 0.1018,
      "velocity": 87,
      "chip": "ym2612"
    },
    {
      "channel": 5,
      "note": 59,
      "start": 7.0987,
      "duration": 0.1024,
      "velocity": 103,
      "chip": "ym2612"
    },
    {
      "channel": 0,
      "note": 66,
      "start": 7.1944,
      "duration": 0.1998,
      "velocity": 103,
      "chip": "ym2612"
    },
    {
      "channel": 1,
      "note": 52,
      "start": 7.1954,
      "duration": 0.1998,
      "velocity": 99,
      "chip": "ym2612"
    },
    {
      "channel": 2,
      "note": 71,
      "start": 7.1963,
      "duration": 0.0978,
      "velocity": 87,
      "chip": "ym2612"
    },
    {
      "channel": 4,
      "note": 67,
      "start": 7.1975,
      "duration": 0.1998,
      "velocity": 103,
      "chip": "ym2612"
    },
    {
      "channel": 5,
      "note": 44,
      "start": 7.2011,
      "duration": 0.1998,
      "velocity": 84,
      "chip": "ym2612"
    },
    {
      "channel": 2,
      "note": 67,
      "start": 7.2941,
      "duration": 0.102,
      "velocity": 87,
      "chip": "ym2612"
    },
    {
      "channel": 0,
      "note": 64,
      "start": 7.3943,
      "duration": 0.2001,
      "velocity": 103,
      "chip": "ym2612"
    },
    {
      "channel": 1,
      "note": 52,
      "start": 7.3953,
      "duration": 0.2001,
      "velocity": 99,
      "chip": "ym2612"
    },
    {
      "channel": 2,
      "note": 66,
      "start": 7.3962,
      "duration": 0.0982,
      "velocity": 87,
      "chip": "ym2612"
    },
    {
      "channel": 4,
      "note": 66,
      "start": 7.3974,
      "duration": 0.2008,
      "velocity": 103,
      "chip": "ym2612"
    },
    {
      "channel": 5,
      "note": 59,
      "start": 7.4011,
      "duration": 0.0975,
      "velocity": 84,
      "chip": "ym2612"
    },
    {
      "channel": 2,
      "note": 64,
      "start": 7.4945,
      "duration": 0.1018,
      "velocity": 87,
      "chip": "ym2612"
    },
    {
      "channel": 5,
      "note": 59,
      "start": 7.4987,
      "duration": 0.1032,
      "velocity": 127,
      "chip": "ym2612"
    },
    {
      "channel": 0,
      "note": 66,
      "start": 7.5945,
      "duration": 0.1998,
      "velocity": 103,
      "chip": "ym2612"
    },
    {
      "channel": 1,
      "note": 52,
      "start": 7.5955,
      "duration": 0.1998,
      "velocity": 99,
      "chip": "ym2612"
    },
    {
      "channel": 2,
      "note": 71,
      "start": 7.5964,
      "duration": 0.0977,
      "velocity": 87,
      "chip": "ym2612"
    },
    {
      "channel": 3,
      "note": 72,
      "start": 7.5974,
      "duration": 0.1998,
      "velocity": 91,
      "chip": "ym2612"
    },
    {
      "channel": 4,
      "note": 64,
      "start": 7.5983,
      "duration": 0.1998,
      "velocity": 103,
      "chip": "ym2612"
    },
    {
      "channel": 5,
      "note": 54,
      "start": 7.602,
      "duration": 0.1998,
      "velocity": 84,
      "chip": "ym2612"
    },
    {
      "channel": 2,
      "note": 67,
      "start": 7.6942,
      "duration": 0.102,
      "velocity": 87,
      "chip": "ym2612"
    },
    {
      "channel": 0,
      "note": 67,
      "start": 7.7944,
      "duration": 0.2001,
      "velocity": 103,
      "chip": "ym2612"
    },
    {
      "channel": 1,
      "note": 52,
      "start": 7.7954,
      "duration": 0.2001,
      "velocity": 99,
      "chip": "ym2612"
    },
    {
      "channel": 2,
      "note": 66,
      "start": 7.7963,
      "duration": 0.0981,
      "velocity": 87,
      "chip": "ym2612"
    },
    {
      "channel": 3,
      "note": 74,
      "start": 7.7973,
      "duration": 0.2002,
      "velocity": 91,
      "chip": "ym2612"
    },
    {
      "channel": 4,
      "note": 66,
      "start": 7.7982,
      "duration": 0.2002,
      "velocity": 103,
      "chip": "ym2612"
    },
    {
      "channel": 5,
      "note": 59,
      "start": 7.8019,
      "duration": 0.0968,
      "velocity": 84,
      "chip": "ym2612"
    },
    {
      "channel": 2,
      "note": 64,
      "start": 7.8945,
      "duration": 0.1019,
      "velocity": 87,
      "chip": "ym2612"
    },
    {
      "channel": 5,
      "note": 59,
      "start": 7.8988,
      "duration": 0.1032,
      "velocity": 103,
      "chip": "ym2612"
    },
    {
      "channel": 0,
      "note": 72,
      "start": 7.9946,
      "duration": 0.1995,
      "velocity": 103,
      "chip": "ym2612"
    },
    {
      "channel": 1,
      "note": 48,
      "start": 7.9956,
      "duration": 0.1995,
      "velocity": 99,
      "chip": "ym2612"
    },
    {
      "channel": 2,
      "note": 72,
      "start": 7.9966,
      "duration": 0.0975,
      "velocity": 87,
      "chip": "ym2612"
    },
    {
      "channel": 3,
      "note": 72,
      "start": 7.9975,
      "duration": 0.7989,
      "velocity": 91,
      "chip": "ym2612"
    },
    {
      "channel": 4,
      "note": 67,
      "start": 7.9985,
      "duration": 0.1989,
      "velocity": 103,
      "chip": "ym2612"
    },
    {
      "channel": 5,
      "note": 44,
      "start": 8.0022,
      "duration": 0.1989,
      "velocity": 84,
      "chip": "ym2612"
    },
    {
      "channel": 2,
      "note": 67,
      "start": 8.0941,
      "duration": 0.102,
      "velocity": 87,
      "chip": "ym2612"
    },
    {
      "channel": 0,
      "note": 67,
      "start": 8.1943,
      "duration": 0.2,
      "velocity": 103,
      "chip": "ym2612"
    },
    {
      "channel": 1,
      "note": 48,
      "start": 8.1953,
      "duration": 0.2,
      "velocity": 99,
      "chip": "ym2612"
    },
    {
      "channel": 2,
      "note": 64,
      "start": 8.1962,
      "duration": 0.0982,
      "velocity": 87,
      "chip": "ym2612"
    },
    {
      "channel": 4,
      "note": 72,
      "start": 8.1975,
      "duration": 0.2,
      "velocity": 103,
      "chip": "ym2612"
    },
    {
      "channel": 5,
      "note": 59,
      "start": 8.2011,
      "duration": 0.0976,
      "velocity": 84,
      "chip": "ym2612"
    },
    {
      "channel": 2,
      "note": 60,
      "start": 8.2945,
      "duration": 0.1017,
      "velocity": 87,
      "chip": "ym2612"
    },
    {
      "channel": 5,
      "note": 59,
      "start": 8.2988,
      "duration": 0.1023,
      "velocity": 127,
      "chip": "ym2612"
    },
    {
      "channel": 0,
      "note": 76,
      "start": 8.3944,
      "duration": 1.2,
      "velocity": 103,
      "chip": "ym2612"
    },
    {
      "channel": 1,
      "note": 48,
      "start": 8.3954,
      "duration": 0.199,
      "velocity": 99,
      "chip": "ym2612"
    },
    {
      "channel": 2,
      "note": 72,
      "start": 8.3963,
      "duration": 0.0978,
      "velocity": 87,
      "chip": "ym2612"
    },
    {
      "channel": 4,
      "note": 67,
      "start": 8.3976,
      "duration": 0.1989,
      "velocity": 103,
      "chip": "ym2612"
    },
    {
      "channel": 5,
      "note": 54,
      "start": 8.4013,
      "duration": 0.1988,
      "velocity": 84,
      "chip": "ym2612"
    },
    {
      "channel": 2,
      "note": 67,
      "start": 8.4942,
      "duration": 0.1012,
      "velocity": 87,
      "chip": "ym2612"
    },
    {
      "channel": 1,
      "note": 48,
      "start": 8.5944,
      "duration": 0.2001,
      "velocity": 99,
      "chip": "ym2612"
    },
    {
      "channel": 2,
      "note": 64,
      "start": 8.5954,
      "duration": 0.099,
      "velocity": 87,
      "chip": "ym2612"
    },
    {
      "channel": 4,
      "note": 76,
      "start": 8.5966,
      "duration": 1.2008,
      "velocity": 103,
      "chip": "ym2612"
    },
    {
      "channel": 5,
      "note": 59,
      "start": 8.6002,
      "duration": 0.0983,
      "velocity": 84,
      "chip": "ym2612"
    },
    {
      "channel": 2,
      "note": 60,
      "start": 8.6944,
      "duration": 0.101,
      "velocity": 87,
      "chip": "ym2612"
    },
    {
      "channel": 5,
      "note": 59,
      "start": 8.6987,
      "duration": 0.1018,
      "velocity": 103,
      "chip": "ym2612"
    },
    {
      "channel": 1,
      "note": 48,
      "start": 8.7946,
      "duration": 0.1995,
      "velocity": 99,
      "chip": "ym2612"
    },
    {
      "channel": 2,
      "note": 72,
      "start": 8.7956,
      "duration": 0.0985,
      "velocity": 87,
      "chip": "ym2612"
    },
    {
      "channel": 3,
      "note": 71,
      "start": 8.7966,
      "duration": 0.8007,
      "velocity": 91,
      "chip": "ym2612"
    },
    {
      "channel": 5,
      "note": 44,
      "start": 8.8005,
      "duration": 0.1988,
      "velocity": 84,
      "chip": "ym2612"
    },
    {
      "channel": 2,
      "note": 67,
      "start": 8.8942,
      "duration": 0.1009,
      "velocity": 87,
      "chip": "ym2612"
    },
    {
      "channel": 1,
      "note": 48,
      "start": 8.9943,
      "duration": 0.1999,
      "velocity": 99,
      "chip": "ym2612"
    },
    {
      "channel": 2,
      "note": 64,
      "start": 8.9952,
      "duration": 0.0991,
      "velocity": 87,
      "chip": "ym2612"
    },
    {
      "channel": 5,
      "note": 59,
      "start": 8.9995,
      "duration": 0.0991,
      "velocity": 84,
      "chip": "ym2612"
    },
    {
      "channel": 2,
      "note": 60,
      "start": 9.0944,
      "duration": 0.1007,
      "velocity": 87,
      "chip": "ym2612"
    },
    {
      "channel": 5,
      "note": 59,
      "start": 9.0987,
      "duration": 0.1006,
      "velocity": 127,
      "chip": "ym2612"
    },
    {
      "channel": 1,
      "note": 48,
      "start": 9.1943,
      "duration": 0.1999,
      "velocity": 99,
      "chip": "ym2612"
    },
    {
      "channel": 2,
      "note": 72,
      "start": 9.1952,
      "duration": 0.0991,
      "velocity": 87,
      "chip": "ym2612"
    },
    {
      "channel": 5,
      "note": 54,
      "start": 9.1994,
      "duration": 0.0991,
      "velocity": 127,
      "chip": "ym2612"
    },
    {
      "channel": 2,
      "note": 67,
      "start": 9.2944,
      "duration": 0.1006,
      "velocity": 87,
      "chip": "ym2612"
    },
    {
      "channel": 5,
      "note": 67,
      "start": 9.2987,
      "duration": 0.1005,
      "velocity": 127,
      "chip": "ym2612"
    },
    {
      "channel": 1,
      "note": 48,
      "start": 9.3943,
      "duration": 0.2011,
      "velocity": 99,
      "chip": "ym2612"
    },
    {
      "channel": 2,
      "note": 64,
      "start": 9.3952,
      "duration": 0.099,
      "velocity": 87,
      "chip": "ym2612"
    },
    {
      "channel": 5,
      "note": 54,
      "start": 9.3993,
      "duration": 0.099,
      "velocity": 103,
      "chip": "ym2612"
    },
    {
      "channel": 2,
      "note": 60,
      "start": 9.4944,
      "duration": 0.1019,
      "velocity": 87,
      "chip": "ym2612"
    },
    {
      "channel": 5,
      "note": 44,
      "start": 9.4985,
      "duration": 0.1027,
      "velocity": 103,
      "chip": "ym2612"
    },
    {
      "channel": 0,
      "note": 74,
      "start": 9.5945,
      "duration": 0.1997,
      "velocity": 103,
      "chip": "ym2612"
    },
    {
      "channel": 1,
      "note": 50,
      "start": 9.5955,
      "duration": 0.1997,
      "velocity": 99,
      "chip": "ym2612"
    },
    {
      "channel": 2,
      "note": 69,
      "start": 9.5964,
      "duration": 0.0976,
      "velocity": 87,
      "chip": "ym2612"
    },
    {
      "channel": 3,
      "note": 69,
      "start": 9.5974,
      "duration": 1.2,
      "velocity": 91,
      "chip": "ym2612"
    },
    {
      "channel": 5,
      "note": 44,
      "start": 9.6013,
      "duration": 0.1998,
      "velocity": 84,
      "chip": "ym2612"
    },
    {
      "channel": 2,
      "note": 67,
      "start": 9.6941,
      "duration": 0.102,
      "velocity": 87,
      "chip": "ym2612"
    },
    {
      "channel": 0,
      "note": 69,
      "start": 9.7943,
      "duration": 0.3998,
      "velocity": 103,
      "chip": "ym2612"
    },
    {
      "channel": 1,
      "note": 50,
      "start": 9.7953,
      "duration": 0.1992,
      "velocity": 99,
      "chip": "ym2612"
    },
    {
      "channel": 2,
      "note": 66,
      "start": 9.7962,
      "duration": 0.0982,
      "velocity": 87,
      "chip": "ym2612"
    },
    {
      "channel": 4,
      "note": 74,
      "start": 9.7975,
      "duration": 0.1992,
      "velocity": 103,
      "chip": "ym2612"
    },
    {
      "channel": 5,
      "note": 59,
      "start": 9.8012,
      "duration": 0.0975,
      "velocity": 84,
      "chip": "ym2612"
    },
    {
      "channel": 2,
      "note": 62,
      "start": 9.8945,
      "duration": 0.1009,
      "velocity": 87,
      "chip": "ym2612"
    },
    {
      "channel": 5,
      "note": 59,
      "start": 9.8988,
      "duration": 0.1015,
      "velocity": 127,
      "chip": "ym2612"
    },
    {
      "channel": 1,
      "note": 50,
      "start": 9.9946,
      "duration": 0.2005,
      "velocity": 99,
      "chip": "ym2612"
    },
    {
      "channel": 2,
      "note": 69,
      "start": 9.9955,
      "duration": 0.0985,
      "velocity": 87,
      "chip": "ym2612"
    },
    {
      "channel": 4,
      "note": 69,
      "start": 9.9968,
      "duration": 0.4005,
      "velocity": 103,
      "chip": "ym2612"
    },
    {
      "channel": 5,
      "note": 54,
      "start": 10.0004,
      "duration": 0.1997,
      "velocity": 84,
      "chip": "ym2612"
    },
    {
      "channel": 2,
      "note": 67,
      "start": 10.0942,
      "duration": 0.1018,
      "velocity": 87,
      "chip": "ym2612"
    },
    {
      "channel": 0,
      "note": 67,
      "start": 10.1941,
      "duration": 0.2001,
      "velocity": 103,
      "chip": "ym2612"
    },
    {
      "channel": 1,
      "note": 50,
      "start": 10.1951,
      "duration": 0.2001,
      "velocity": 99,
      "chip": "ym2612"
    },
    {
      "channel": 2,
      "note": 66,
      "start": 10.196,
      "duration": 0.0984,
      "velocity": 87,
      "chip": "ym2612"
    },
    {
      "channel": 5,
      "note": 59,
      "start": 10.2002,
      "duration": 0.0983,
      "velocity": 84,
      "chip": "ym2612"
    },
    {
      "channel": 2,
      "note": 62,
      "start": 10.2944,
      "duration": 0.1017,
      "velocity": 87,
      "chip": "ym2612"
    },
    {
      "channel": 5,
      "note": 59,
      "start": 10.2987,
      "duration": 0.1023,
      "velocity": 103,
      "chip": "ym2612"
    },
    {
      "channel": 0,
      "note": 66,
      "start": 10.3944,
      "duration": 0.1998,
      "velocity": 103,
      "chip": "ym2612"
    },
    {
      "channel": 1,
      "note": 50,
      "start": 10.3954,
      "duration": 0.1998,
      "velocity": 99,
      "chip": "ym2612"
    },
    {
      "channel": 2,
      "note": 69,
      "start": 10.3963,
      "duration": 0.0978,
      "velocity": 87,
      "chip": "ym2612"
    },
    {
      "channel": 4,
      "note": 67,
      "start": 10.3974,
      "duration": 0.1998,
      "velocity": 103,
      "chip": "ym2612"
    },
    {
      "channel": 5,
      "note": 44,
      "start": 10.4011,
      "duration": 0.1998,
      "velocity": 84,
      "chip": "ym2612"
    },
    {
      "channel": 2,
      "note": 67,
      "start": 10.4941,
      "duration": 0.102,
      "velocity": 87,
      "chip": "ym2612"
    },
    {
      "channel": 0,
      "note": 69,
      "start": 10.5943,
      "duration": 0.2002,
      "velocity": 103,
      "chip": "ym2612"
    },
    {
      "channel": 1,
      "note": 50,
      "start": 10.5952,
      "duration": 0.2002,
      "velocity": 99,
      "chip": "ym2612"
    },
    {
      "channel": 2,
      "note": 66,
      "start": 10.5962,
      "duration": 0.0982,
      "velocity": 87,
      "chip": "ym2612"
    },
    {
      "channel": 4,
      "note": 66,
      "start": 10.5974,
      "duration": 0.2009,
      "velocity": 103,
      "chip": "ym2612"
    },
    {
      "channel": 5,
      "note": 59,
      "start": 10.601,
      "duration": 0.0976,
      "velocity": 84,
      "chip": "ym2612"
    },
    {
      "channel": 2,
      "note": 62,
      "start": 10.6945,
      "duration": 0.1019,
      "velocity": 87,
      "chip": "ym2612"
    },
    {
      "channel": 5,
      "note": 59,
      "start": 10.6987,
      "duration": 0.1032,
      "velocity": 103,
      "chip": "ym2612"
    },
    {
      "channel": 0,
      "note": 74,
      "start": 10.7946,
      "duration": 0.1996,
      "velocity": 103,
      "chip": "ym2612"
    },
    {
      "channel": 1,
      "note": 45,
      "start": 10.7955,
      "duration": 0.1996,
      "velocity": 99,
      "chip": "ym2612"
    },
    {
      "channel": 2,
      "note": 69,
      "start": 10.7965,
      "duration": 0.098,
      "velocity": 87,
      "chip": "ym2612"
    },
    {
      "channel": 3,
      "note": 66,
      "start": 10.7974,
      "duration": 0.3999,
      "velocity": 91,
      "chip": "ym2612"
    },
    {
      "channel": 4,
      "note": 69,
      "start": 10.7984,
      "duration": 0.199,
      "velocity": 103,
      "chip": "ym2612"
    },
    {
      "channel": 5,
      "note": 44,
      "start": 10.802,
      "duration": 0.0967,
      "velocity": 127,
      "chip": "ym2612"
    },
    {
      "channel": 2,
      "note": 67,
      "start": 10.8946,
      "duration": 0.1015,
      "velocity": 87,
      "chip": "ym2612"
    },
    {
      "channel": 5,
      "note": 67,
      "start": 10.8988,
      "duration": 0.1022,
      "velocity": 127,
      "chip": "ym2612"
    },
    {
      "channel": 0,
      "note": 78,
      "start": 10.9943,
      "duration": 0.2002,
      "velocity": 103,
      "chip": "ym2612"
    },
    {
      "channel": 1,
      "note": 45,
      "start": 10.9953,
      "duration": 0.2002,
      "velocity": 99,
      "chip": "ym2612"
    },
    {
      "channel": 2,
      "note": 66,
      "start": 10.9962,
      "duration": 0.0982,
      "velocity": 87,
      "chip": "ym2612"
    },
    {
      "channel": 4,
      "note": 74,
      "start": 10.9975,
      "duration": 0.2008,
      "velocity": 103,
      "chip": "ym2612"
    },
    {
      "channel": 5,
      "note": 67,
      "start": 11.0011,
      "duration": 0.0976,
      "velocity": 127,
      "chip": "ym2612"
    },
    {
      "channel": 2,
      "note": 62,
      "start": 11.0946,
      "duration": 0.1018,
      "velocity": 87,
      "chip": "ym2612"
    },
    {
      "channel": 5,
      "note": 67,
      "start": 11.0988,
      "duration": 0.1032,
      "velocity": 103,
      "chip": "ym2612"
    },
    {
      "channel": 0,
      "note": 79,
      "start": 11.1946,
      "duration": 0.1995,
      "velocity": 103,
      "chip": "ym2612"
    },
    {
      "channel": 1,
      "note": 52,
      "start": 11.1956,
      "duration": 0.1995,
      "velocity": 99,
      "chip": "ym2612"
    },
    {
      "channel": 2,
      "note": 67,
      "start": 11.1966,
      "duration": 0.0975,
      "velocity": 87,
      "chip": "ym2612"
    },
    {
      "channel": 3,
      "note": 67,
      "start": 11.1975,
      "duration": 0.7989,
      "velocity": 91,
      "chip": "ym2612"
    },
    {
      "channel": 4,
      "note": 78,
      "start": 11.1985,
      "duration": 0.1989,
      "velocity": 103,
      "chip": "ym2612"
    },
    {
      "channel": 5,
      "note": 44,
      "start": 11.2022,
      "duration": 0.1989,
      "velocity": 84,
      "chip": "ym2612"
    },
    {
      "channel": 2,
      "note": 69,
      "start": 11.2942,
      "duration": 0.1019,
      "velocity": 87,
      "chip": "ym2612"
    },
    {
      "channel": 0,
      "note": 78,
      "start": 11.3943,
      "duration": 0.1999,
      "velocity": 103,
      "chip": "ym2612"
    },
    {
      "channel": 1,
      "note": 52,
      "start": 11.3953,
      "duration": 0.1999,
      "velocity": 99,
      "chip": "ym2612"
    },
    {
      "channel": 2,
      "note": 66,
      "start": 11.3962,
      "duration": 0.0982,
      "velocity": 87,
      "chip": "ym2612"
    },
    {
      "channel": 4,
      "note": 79,
      "start": 11.3975,
      "duration": 0.1999,
      "velocity": 103,
      "chip": "ym2612"
    },
    {
      "channel": 5,
      "note": 59,
      "start": 11.4011,
      "duration": 0.0976,
      "velocity": 84,
      "chip": "ym2612"
    },
    {
      "channel": 2,
      "note": 67,
      "start": 11.4945,
      "duration": 0.1016,
      "velocity": 87,
      "chip": "ym2612"
    },
    {
      "channel": 5,
      "note": 59,
      "start": 11.4988,
      "duration": 0.1022,
      "velocity": 127,
      "chip": "ym2612"
    },
    {
      "channel": 0,
      "note": 79,
      "start": 11.5943,
      "duration": 0.5998,
      "velocity": 103,
      "chip": "ym2612"
    },
    {
      "channel": 1,
      "note": 52,
      "start": 11.5953,
      "duration": 0.199,
      "velocity": 99,
      "chip": "ym2612"
    },
    {
      "channel": 2,
      "note": 67,
      "start": 11.5962,
      "duration": 0.0978,
      "velocity": 87,
      "chip": "ym2612"
    },
    {
      "channel": 4,
      "note": 78,
      "start": 11.5975,
      "duration": 0.199,
      "velocity": 103,
      "chip": "ym2612"
    },
    {
      "channel": 5,
      "note": 54,
      "start": 11.6012,
      "duration": 0.1989,
      "velocity": 84,
      "chip": "ym2612"
    },
    {
      "channel": 2,
      "note": 69,
      "start": 11.6941,
      "duration": 0.1012,
      "velocity": 87,
      "chip": "ym2612"
    },
    {
      "channel": 1,
      "note": 52,
      "start": 11.7944,
      "duration": 0.2,
      "velocity": 99,
      "chip": "ym2612"
    },
    {
      "channel": 2,
      "note": 66,
      "start": 11.7954,
      "duration": 0.099,
      "velocity": 87,
      "chip": "ym2612"
    },
    {
      "channel": 4,
      "note": 79,
      "start": 11.7966,
      "duration": 0.6016,
      "velocity": 103,
      "chip": "ym2612"
    },
    {
      "channel": 5,
      "note": 59,
      "start": 11.8002,
      "duration": 0.0983,
      "velocity": 84,
      "chip": "ym2612"
    },
    {
      "channel": 2,
      "note": 67,
      "start": 11.8944,
      "duration": 0.101,
      "velocity": 87,
      "chip": "ym2612"
    },
    {
      "channel": 5,
      "note": 59,
      "start": 11.8987,
      "duration": 0.1017,
      "velocity": 103,
      "chip": "ym2612"
    },
    {
      "channel": 1,
      "note": 52,
      "start": 11.9946,
      "duration": 0.2005,
      "velocity": 99,
      "chip": "ym2612"
    },
    {
      "channel": 2,
      "note": 67,
      "start": 11.9955,
      "duration": 0.0985,
      "velocity": 87,
      "chip": "ym2612"
    },
    {
      "channel": 3,
      "note": 69,
      "start": 11.9965,
      "duration": 0.4008,
      "velocity": 91,
      "chip": "ym2612"
    },
    {
      "channel": 5,
      "note": 44,
      "start": 12.0005,
      "duration": 0.1998,
      "velocity": 84,
      "chip": "ym2612"
    },
    {
      "channel": 2,
      "note": 69,
      "start": 12.0942,
      "duration": 0.1018,
      "velocity": 87,
      "chip": "ym2612"
    },
    {
      "channel": 0,
      "note": 76,
      "start": 12.1942,
      "duration": 0.2002,
      "velocity": 103,
      "chip": "ym2612"
    },
    {
      "channel": 1,
      "note": 52,
      "start": 12.1951,
      "duration": 0.2002,
      "velocity": 99,
      "chip": "ym2612"
    },
    {
      "channel": 2,
      "note": 66,
      "start": 12.1961,
      "duration": 0.0983,
      "velocity": 87,
      "chip": "ym2612"
    },
    {
      "channel": 5,
      "note": 59,
      "start": 12.2004,
      "duration": 0.0983,
      "velocity": 84,
      "chip": "ym2612"
    },
    {
      "channel": 2,
      "note": 67,
      "start": 12.2945,
      "duration": 0.1018,
      "velocity": 87,
      "chip": "ym2612"
    },
    {
      "channel": 5,
      "note": 59,
      "start": 12.2988,
      "duration": 0.1031,
      "velocity": 127,
      "chip": "ym2612"
    },
    {
      "channel": 0,
      "note": 78,
      "start": 12.3945,
      "duration": 0.1997,
      "velocity": 103,
      "chip": "ym2612"
    },
    {
      "channel": 1,
      "note": 47,
      "start": 12.3955,
      "duration": 0.1997,
      "velocity": 99,
      "chip": "ym2612"
    },
    {
      "channel": 2,
      "note": 64,
      "start": 12.3964,
      "duration": 0.098,
      "velocity": 87,
      "chip": "ym2612"
    },
    {
      "channel": 3,
      "note": 71,
      "start": 12.3974,
      "duration": 0.4,
      "velocity": 91,
      "chip": "ym2612"
    },
    {
      "channel": 4,
      "note": 76,
      "start": 12.3983,
      "duration": 0.1991,
      "velocity": 103,
      "chip": "ym2612"
    },
    {
      "channel": 5,
      "note": 67,
      "start": 12.402,
      "duration": 0.0968,
      "velocity": 127,
      "chip": "ym2612"
    },
    {
      "channel": 2,
      "note": 59,
      "start": 12.4946,
      "duration": 0.1015,
      "velocity": 87,
      "chip": "ym2612"
    },
    {
      "channel": 5,
      "note": 67,
      "start": 12.4989,
      "duration": 0.1022,
      "velocity": 103,
      "chip": "ym2612"
    },
    {
      "channel": 0,
      "note": 79,
      "start": 12.5943,
      "duration": 0.2002,
      "velocity": 103,
      "chip": "ym2612"
    },
    {
      "channel": 1,
      "note": 47,
      "start": 12.5953,
      "duration": 0.2002,
      "velocity": 99,
      "chip": "ym2612"
    },
    {
      "channel": 2,
      "note": 55,
      "start": 12.5962,
      "duration": 0.0982,
      "velocity": 87,
      "chip": "ym2612"
    },
    {
      "channel": 4,
      "note": 78,
      "start": 12.5975,
      "duration": 0.2008,
      "velocity": 103,
      "chip": "ym2612"
    },
    {
      "channel": 5,
      "note": 44,
      "start": 12.6012,
      "duration": 0.0975,
      "velocity": 103,
      "chip": "ym2612"
    },
    {
      "channel": 2,
      "note": 52,
      "start": 12.6945,
      "duration": 0.1019,
      "velocity": 87,
      "chip": "ym2612"
    },
    {
      "channel": 5,
      "note": 44,
      "start": 12.6988,
      "duration": 0.1032,
      "velocity": 103,
      "chip": "ym2612"
    },
    {
      "channel": 0,
      "note": 76,
      "start": 12.7946,
      "duration": 0.1995,
      "velocity": 103,
      "chip": "ym2612"
    },
    {
      "channel": 1,
      "note": 48,
      "start": 12.7956,
      "duration": 0.1995,
      "velocity": 99,
      "chip": "ym2612"
    },
    {
      "channel": 2,
      "note": 67,
      "start": 12.7966,
      "duration": 0.0975,
      "velocity": 87,
      "chip": "ym2612"
    },
    {
      "channel": 3,
      "note": 64,
      "start": 12.7975,
      "duration": 0.7989,
      "velocity": 91,
      "chip": "ym2612"
    },
    {
      "channel": 4,
      "note": 79,
      "start": 12.7985,
      "duration": 0.199,
      "velocity": 103,
      "chip": "ym2612"
    },
    {
      "channel": 5,
      "note": 44,
      "start": 12.8021,
      "duration": 0.199,
      "velocity": 84,
      "chip": "ym2612"
    },
    {
      "channel": 2,
      "note": 69,
      "start": 12.8942,
      "duration": 0.1019,
      "velocity": 87,
      "chip": "ym2612"
    },
    {
      "channel": 0,
      "note": 75,
      "start": 12.9943,
      "duration": 0.1999,
      "velocity": 103,
      "chip": "ym2612"
    },
    {
      "channel": 1,
      "note": 48,
      "start": 12.9953,
      "duration": 0.1999,
      "velocity": 99,
      "chip": "ym2612"
    },
    {
      "channel": 2,
      "note": 66,
      "start": 12.9962,
      "duration": 0.0982,
      "velocity": 87,
      "chip": "ym2612"
    },
    {
      "channel": 4,
      "note": 76,
      "start": 12.9975,
      "duration": 0.1999,
      "velocity": 103,
      "chip": "ym2612"
    },
    {
      "channel": 5,
      "note": 59,
      "start": 13.0012,
      "duration": 0.0975,
      "velocity": 84,
      "chip": "ym2612"
    },
    {
      "channel": 2,
      "note": 67,
      "start": 13.0945,
      "duration": 0.1016,
      "velocity": 87,
      "chip": "ym2612"
    },
    {
      "channel": 5,
      "note": 59,
      "start": 13.0988,
      "duration": 0.1022,
      "velocity": 127,
      "chip": "ym2612"
    },
    {
      "channel": 0,
      "note": 76,
      "start": 13.1943,
      "duration": 0.5998,
      "velocity": 103,
      "chip": "ym2612"
    },
    {
      "channel": 1,
      "note": 48,
      "start": 13.1953,
      "duration": 0.1991,
      "velocity": 99,
      "chip": "ym2612"
    },
    {
      "channel": 2,
      "note": 67,
      "start": 13.1962,
      "duration": 0.0978,
      "velocity": 87,
      "chip": "ym2612"
    },
    {
      "channel": 4,
      "note": 75,
      "start": 13.1975,
      "duration": 0.199,
      "velocity": 103,
      "chip": "ym2612"
    },
    {
      "channel": 5,
      "note": 54,
      "start": 13.2011,
      "duration": 0.199,
      "velocity": 84,
      "chip": "ym2612"
    },
    {
      "channel": 2,
      "note": 69,
      "start": 13.2941,
      "duration": 0.1012,
      "velocity": 87,
      "chip": "ym2612"
    },
    {
      "channel": 1,
      "note": 48,
      "start": 13.3945,
      "duration": 0.1999,
      "velocity": 99,
      "chip": "ym2612"
    },
    {
      "channel": 2,
      "note": 66,
      "start": 13.3955,
      "duration": 0.0989,
      "velocity": 87,
      "chip": "ym2612"
    },
    {
      "channel": 4,
      "note": 76,
      "start": 13.3966,
      "duration": 0.6016,
      "velocity": 103,
      "chip": "ym2612"
    },
    {
      "channel": 5,
      "note": 59,
      "start": 13.4003,
      "duration": 0.0983,
      "velocity": 84,
      "chip": "ym2612"
    },
    {
      "channel": 2,
      "note": 67,
      "start": 13.4945,
      "duration": 0.1009,
      "velocity": 87,
      "chip": "ym2612"
    },
    {
      "channel": 5,
      "note": 59,
      "start": 13.4987,
      "duration": 0.1017,
      "velocity": 103,
      "chip": "ym2612"
    },
    {
      "channel": 1,
      "note": 48,
      "start": 13.5946,
      "duration": 0.2005,
      "velocity": 99,
      "chip": "ym2612"
    },
    {
      "channel": 2,
      "note": 67,
      "start": 13.5955,
      "duration": 0.0985,
      "velocity": 87,
      "chip": "ym2612"
    },
    {
      "channel": 3,
      "note": 66,
      "start": 13.5965,
      "duration": 0.4008,
      "velocity": 91,
      "chip": "ym2612"
    },
    {
      "channel": 5,
      "note": 44,
      "start": 13.6004,
      "duration": 0.1998,
      "velocity": 84,
      "chip": "ym2612"
    },
    {
      "channel": 2,
      "note": 69,
      "start": 13.6942,
      "duration": 0.1018,
      "velocity": 87,
      "chip": "ym2612"
    },
    {
      "channel": 0,
      "note": 72,
      "start": 13.7941,
      "duration": 0.2003,
      "velocity": 103,
      "chip": "ym2612"
    },
    {
      "channel": 1,
      "note": 48,
      "start": 13.7951,
      "duration": 0.2003,
      "velocity": 99,
      "chip": "ym2612"
    },
    {
      "channel": 2,
      "note": 66,
      "start": 13.796,
      "duration": 0.0984,
      "velocity": 87,
      "chip": "ym2612"
    },
    {
      "channel": 5,
      "note": 59,
      "start": 13.8004,
      "duration": 0.0983,
      "velocity": 84,
      "chip": "ym2612"
    },
    {
      "channel": 2,
      "note": 67,
      "start": 13.8945,
      "duration": 0.1018,
      "velocity": 87,
      "chip": "ym2612"
    },
    {
      "channel": 5,
      "note": 59,
      "start": 13.8988,
      "duration": 0.1031,
      "velocity": 127,
      "chip": "ym2612"
    },
    {
      "channel": 0,
      "note": 74,
      "start": 13.9945,
      "duration": 0.1997,
      "velocity": 103,
      "chip": "ym2612"
    },
    {
      "channel": 1,
      "note": 43,
      "start": 13.9955,
      "duration": 0.1997,
      "velocity": 99,
      "chip": "ym2612"
    },
    {
      "channel": 2,
      "note": 64,
      "start": 13.9964,
      "duration": 0.098,
      "velocity": 87,
      "chip": "ym2612"
    },
    {
      "channel": 3,
      "note": 67,
      "start": 13.9974,
      "duration": 0.4029,
      "velocity": 91,
      "chip": "ym2612"
    },
    {
      "channel": 4,
      "note": 72,
      "start": 13.9983,
      "duration": 0.199,
      "velocity": 103,
      "chip": "ym2612"
    },
    {
      "channel": 5,
      "note": 67,
      "start": 14.002,
      "duration": 0.0968,
      "velocity": 127,
      "chip": "ym2612"
    },
    {
      "channel": 2,
      "note": 60,
      "start": 14.0946,
      "duration": 0.1015,
      "velocity": 87,
      "chip": "ym2612"
    },
    {
      "channel": 5,
      "note": 67,
      "start": 14.0988,
      "duration": 0.1022,
      "velocity": 103,
      "chip": "ym2612"
    },
    {
      "channel": 0,
      "note": 76,
      "start": 14.1943,
      "duration": 0.2005,
      "velocity": 103,
      "chip": "ym2612"
    },
    {
      "channel": 1,
      "note": 43,
      "start": 14.1952,
      "duration": 0.2005,
      "velocity": 99,
      "chip": "ym2612"
    },
    {
      "channel": 2,
      "note": 55,
      "start": 14.1962,
      "duration": 0.0983,
      "velocity": 87,
      "chip": "ym2612"
    },
    {
      "channel": 4,
      "note": 74,
      "start": 14.1975,
      "duration": 0.2037,
      "velocity": 103,
      "chip": "ym2612"
    },
    {
      "channel": 5,
      "note": 44,
      "start": 14.2011,
      "duration": 0.0976,
      "velocity": 103,
      "chip": "ym2612"
    },
    {
      "channel": 2,
      "note": 52,
      "start": 14.2946,
      "duration": 0.1047,
      "velocity": 103,
      "chip": "ym2612"
    },
    {
      "channel": 5,
      "note": 44,
      "start": 14.2988,
      "duration": 0.106,
      "velocity": 127,
      "chip": "ym2612"
    },
    {
      "channel": 0,
      "note": 72,
      "start": 14.3948,
      "duration": 0.3993,
      "velocity": 103,
      "chip": "ym2612"
    },
    {
      "channel": 1,
      "note": 45,
      "start": 14.3958,
      "duration": 0.1981,
      "velocity": 99,
      "chip": "ym2612"
    },
    {
      "channel": 2,
      "note": 66,
      "start": 14.3993,
      "duration": 0.3967,
      "velocity": 103,
      "chip": "ym2612"
    },
    {
      "channel": 3,
      "note": 72,
      "start": 14.4003,
      "duration": 0.7968,
      "velocity": 91,
      "chip": "ym2612"
    },
    {
      "channel": 4,
      "note": 76,
      "start": 14.4013,
      "duration": 0.1942,
      "velocity": 103,
      "chip": "ym2612"
    },
    {
      "channel": 5,
      "note": 77,
      "start": 14.4049,
      "duration": 0.3954,
      "velocity": 127,
      "chip": "ym2612"
    },
    {
      "channel": 1,
      "note": 45,
      "start": 14.594,
      "duration": 0.2011,
      "velocity": 99,
      "chip": "ym2612"
    },
    {
      "channel": 4,
      "note": 72,
      "start": 14.5956,
      "duration": 0.3998,
      "velocity": 103,
      "chip": "ym2612"
    },
    {
      "channel": 0,
      "note": 71,
      "start": 14.7942,
      "duration": 0.2998,
      "velocity": 103,
      "chip": "ym2612"
    },
    {
      "channel": 1,
      "note": 45,
      "start": 14.7951,
      "duration": 0.1987,
      "velocity": 99,
      "chip": "ym2612"
    },
    {
      "channel": 2,
      "note": 66,
      "start": 14.7961,
      "duration": 0.2991,
      "velocity": 103,
      "chip": "ym2612"
    },
    {
      "channel": 5,
      "note": 77,
      "start": 14.8004,
      "duration": 0.299,
      "velocity": 103,
      "chip": "ym2612"
    },
    {
      "channel": 1,
      "note": 45,
      "start": 14.994,
      "duration": 0.2012,
      "velocity": 99,
      "chip": "ym2612"
    },
    {
      "channel": 4,
      "note": 71,
      "start": 14.9955,
      "duration": 0.2993,
      "velocity": 103,
      "chip": "ym2612"
    },
    {
      "channel": 0,
      "note": 76,
      "start": 15.0941,
      "duration": 0.1002,
      "velocity": 103,
      "chip": "ym2612"
    },
    {
      "channel": 2,
      "note": 71,
      "start": 15.0954,
      "duration": 0.1008,
      "velocity": 103,
      "chip": "ym2612"
    },
    {
      "channel": 5,
      "note": 44,
      "start": 15.0995,
      "duration": 0.1016,
      "velocity": 127,
      "chip": "ym2612"
    },
    {
      "channel": 0,
      "note": 76,
      "start": 15.1944,
      "duration": 0.3997,
      "velocity": 103,
      "chip": "ym2612"
    },
    {
      "channel": 1,
      "note": 47,
      "start": 15.1954,
      "duration": 0.1985,
      "velocity": 99,
      "chip": "ym2612"
    },
    {
      "channel": 2,
      "note": 71,
      "start": 15.1963,
      "duration": 0.3997,
      "velocity": 103,
      "chip": "ym2612"
    },
    {
      "channel": 3,
      "note": 71,
      "start": 15.1973,
      "duration": 0.7999,
      "velocity": 91,
      "chip": "ym2612"
    },
    {
      "channel": 5,
      "note": 73,
      "start": 15.2013,
      "duration": 0.399,
      "velocity": 127,
      "chip": "ym2612"
    },
    {
      "channel": 4,
      "note": 76,
      "start": 15.2948,
      "duration": 0.1007,
      "velocity": 103,
      "chip": "ym2612"
    },
    {
      "channel": 1,
      "note": 47,
      "start": 15.394,
      "duration": 0.201,
      "velocity": 99,
      "chip": "ym2612"
    },
    {
      "channel": 4,
      "note": 76,
      "start": 15.3956,
      "duration": 0.3998,
      "velocity": 103,
      "chip": "ym2612"
    },
    {
      "channel": 0,
      "note": 75,
      "start": 15.5942,
      "duration": 0.2997,
      "velocity": 103,
      "chip": "ym2612"
    },
    {
      "channel": 1,
      "note": 47,
      "start": 15.5951,
      "duration": 0.1987,
      "velocity": 99,
      "chip": "ym2612"
    },
    {
      "channel": 2,
      "note": 71,
      "start": 15.5961,
      "duration": 0.299,
      "velocity": 103,
      "chip": "ym2612"
    },
    {
      "channel": 5,
      "note": 73,
      "start": 15.6004,
      "duration": 0.2989,
      "velocity": 103,
      "chip": "ym2612"
    },
    {
      "channel": 1,
      "note": 47,
      "start": 15.7939,
      "duration": 0.2013,
      "velocity": 99,
      "chip": "ym2612"
    },
    {
      "channel": 4,
      "note": 75,
      "start": 15.7955,
      "duration": 0.2993,
      "velocity": 103,
      "chip": "ym2612"
    },
    {
      "channel": 0,
      "note": 79,
      "start": 15.894,
      "duration": 0.1002,
      "velocity": 103,
      "chip": "ym2612"
    },
    {
      "channel": 2,
      "note": 71,
      "start": 15.8953,
      "duration": 0.1009,
      "velocity": 103,
      "chip": "ym2612"
    },
    {
      "channel": 5,
      "note": 44,
      "start": 15.8995,
      "duration": 0.1017,
      "velocity": 103,
      "chip": "ym2612"
    },
    {
      "channel": 0,
      "note": 79,
      "start": 15.9944,
      "duration": 0.7999,
      "velocity": 103,
      "chip": "ym2612"
    },
    {
      "channel": 1,
      "note": 48,
      "start": 15.9954,
      "duration": 0.199,
      "velocity": 99,
      "chip": "ym2612"
    },
    {
      "channel": 2,
      "note": 76,
      "start": 15.9963,
      "duration": 0.7999,
      "velocity": 103,
      "chip": "ym2612"
    },
    {
      "channel": 3,
      "note": 70,
      "start": 15.9973,
      "duration": 0.7999,
      "velocity": 91,
      "chip": "ym2612"
    },
    {
      "channel": 5,
      "note": 44,
      "start": 16.0013,
      "duration": 0.1983,
      "velocity": 127,
      "chip": "ym2612"
    },
    {
      "channel": 4,
      "note": 79,
      "start": 16.0948,
      "duration": 0.1011,
      "velocity": 103,
      "chip": "ym2612"
    },
    {
      "channel": 1,
      "note": 48,
      "start": 16.1944,
      "duration": 0.1997,
      "velocity": 99,
      "chip": "ym2612"
    },
    {
      "channel": 4,
      "note": 79,
      "start": 16.196,
      "duration": 0.7999,
      "velocity": 103,
      "chip": "ym2612"
    },
    {
      "channel": 5,
      "note": 77,
      "start": 16.1997,
      "duration": 0.0982,
      "velocity": 127,
      "chip": "ym2612"
    },
    {
      "channel": 5,
      "note": 77,
      "start": 16.2981,
      "duration": 0.1007,
      "velocity": 127,
      "chip": "ym2612"
    },
    {
      "channel": 1,
      "note": 48,
      "start": 16.3943,
      "duration": 0.1998,
      "velocity": 99,
      "chip": "ym2612"
    },
    {
      "channel": 5,
      "note": 73,
      "start": 16.3988,
      "duration": 0.0991,
      "velocity": 127,
      "chip": "ym2612"
    },
    {
      "channel": 5,
      "note": 73,
      "start": 16.4981,
      "duration": 0.1003,
      "velocity": 127,
      "chip": "ym2612"
    },
    {
      "channel": 1,
      "note": 48,
      "start": 16.5941,
      "duration": 0.2012,
      "velocity": 99,
      "chip": "ym2612"
    },
    {
      "channel": 5,
      "note": 67,
      "start": 16.5985,
      "duration": 0.099,
      "velocity": 127,
      "chip": "ym2612"
    },
    {
      "channel": 5,
      "note": 67,
      "start": 16.6977,
      "duration": 0.1034,
      "velocity": 127,
      "chip": "ym2612"
    },
    {
      "channel": 0,
      "note": 78,
      "start": 16.7944,
      "duration": 0.803,
      "velocity": 67,
      "chip": "ym2612"
    },
    {
      "channel": 1,
      "note": 47,
      "start": 16.7954,
      "duration": 0.1989,
      "velocity": 99,
      "chip": "ym2612"
    },
    {
      "channel": 2,
      "note": 75,
      "start": 16.7963,
      "duration": 0.803,
      "velocity": 103,
      "chip": "ym2612"
    },
    {
      "channel": 3,
      "note": 71,
      "start": 16.7973,
      "duration": 0.8053,
      "velocity": 107,
      "chip": "ym2612"
    },
    {
      "channel": 5,
      "note": 73,
      "start": 16.8011,
      "duration": 0.0967,
      "velocity": 127,
      "chip": "ym2612"
    },
    {
      "channel": 5,
      "note": 73,
      "start": 16.898,
      "duration": 0.1016,
      "velocity": 127,
      "chip": "ym2612"
    },
    {
      "channel": 1,
      "note": 47,
      "start": 16.9944,
      "duration": 0.1997,
      "velocity": 99,
      "chip": "ym2612"
    },
    {
      "channel": 4,
      "note": 78,
      "start": 16.996,
      "duration": 0.8043,
      "velocity": 67,
      "chip": "ym2612"
    },
    {
      "channel": 5,
      "note": 54,
      "start": 16.9997,
      "duration": 0.0982,
      "velocity": 127,
      "chip": "ym2612"
    },
    {
      "channel": 5,
      "note": 54,
      "start": 17.098,
      "duration": 0.1008,
      "velocity": 127,
      "chip": "ym2612"
    },
    {
      "channel": 1,
      "note": 49,
      "start": 17.1943,
      "duration": 0.1997,
      "velocity": 99,
      "chip": "ym2612"
    },
    {
      "channel": 5,
      "note": 77,
      "start": 17.1988,
      "duration": 0.0991,
      "velocity": 127,
      "chip": "ym2612"
    },
    {
      "channel": 5,
      "note": 77,
      "start": 17.2981,
      "duration": 0.1002,
      "velocity": 127,
      "chip": "ym2612"
    },
    {
      "channel": 1,
      "note": 51,
      "start": 17.3941,
      "duration": 0.2042,
      "velocity": 99,
      "chip": "ym2612"
    },
    {
      "channel": 5,
      "note": 77,
      "start": 17.3985,
      "duration": 0.0992,
      "velocity": 127,
      "chip": "ym2612"
    },
    {
      "channel": 5,
      "note": 77,
      "start": 17.4978,
      "duration": 0.1087,
      "velocity": 103,
      "chip": "ym2612"
    },
    {
      "channel": 0,
      "note": 79,
      "start": 17.5975,
      "duration": 0.0959,
      "velocity": 67,
      "chip": "ym2612"
    },
    {
      "channel": 1,
      "note": 52,
      "start": 17.5985,
      "duration": 0.1969,
      "velocity": 99,
      "chip": "ym2612"
    },
    {
      "channel": 2,
      "note": 67,
      "start": 17.5994,
      "duration": 0.9967,
      "velocity": 103,
      "chip": "ym2612"
    },
    {
      "channel": 5,
      "note": 44,
      "start": 17.6065,
      "duration": 0.1975,
      "velocity": 124,
      "chip": "ym2612"
    },
    {
      "channel": 0,
      "note": 81,
      "start": 17.6935,
      "duration": 0.101,
      "velocity": 67,
      "chip": "ym2612"
    },
    {
      "channel": 0,
      "note": 83,
      "start": 17.7945,
      "duration": 0.7997,
      "velocity": 67,
      "chip": "ym2612"
    },
    {
      "channel": 1,
      "note": 59,
      "start": 17.7955,
      "duration": 0.0987,
      "velocity": 99,
      "chip": "ym2612"
    },
    {
      "channel": 3,
      "note": 64,
      "start": 17.7967,
      "duration": 0.1989,
      "velocity": 107,
      "chip": "ym2612"
    },
    {
      "channel": 4,
      "note": 79,
      "start": 17.8004,
      "duration": 0.0954,
      "velocity": 67,
      "chip": "ym2612"
    },
    {
      "channel": 5,
      "note": 57,
      "start": 17.8041,
      "duration": 0.0954,
      "velocity": 124,
      "chip": "ym2612"
    },
    {
      "channel": 1,
      "note": 52,
      "start": 17.8943,
      "duration": 0.1001,
      "velocity": 99,
      "chip": "ym2612"
    },
    {
      "channel": 4,
      "note": 81,
      "start": 17.8959,
      "duration": 0.1008,
      "velocity": 67,
      "chip": "ym2612"
    },
    {
      "channel": 5,
      "note": 57,
      "start": 17.8996,
      "duration": 0.1007,
      "velocity": 86,
      "chip": "ym2612"
    },
    {
      "channel": 1,
      "note": 52,
      "start": 17.9945,
      "duration": 0.1997,
      "velocity": 99,
      "chip": "ym2612"
    },
    {
      "channel": 3,
      "note": 66,
      "start": 17.9958,
      "duration": 0.1996,
      "velocity": 107,
      "chip": "ym2612"
    },
    {
      "channel": 4,
      "note": 83,
      "start": 17.9967,
      "duration": 0.8014,
      "velocity": 67,
      "chip": "ym2612"
    },
    {
      "channel": 5,
      "note": 68,
      "start": 18.0004,
      "duration": 0.1989,
      "velocity": 124,
      "chip": "ym2612"
    },
    {
      "channel": 1,
      "note": 59,
      "start": 18.1943,
      "duration": 0.0998,
      "velocity": 99,
      "chip": "ym2612"
    },
    {
      "channel": 3,
      "note": 67,
      "start": 18.1955,
      "duration": 0.1999,
      "velocity": 107,
      "chip": "ym2612"
    },
    {
      "channel": 5,
      "note": 57,
      "start": 18.1995,
      "duration": 0.0991,
      "velocity": 124,
      "chip": "ym2612"
    },
    {
      "channel": 1,
      "note": 52,
      "start": 18.2942,
      "duration": 0.1,
      "velocity": 99,
      "chip": "ym2612"
    },
    {
      "channel": 5,
      "note": 57,
      "start": 18.2987,
      "duration": 0.1006,
      "velocity": 103,
      "chip": "ym2612"
    },
    {
      "channel": 1,
      "note": 52,
      "start": 18.3943,
      "duration": 0.2008,
      "velocity": 99,
      "chip": "ym2612"
    },
    {
      "channel": 3,
      "note": 71,
      "start": 18.3955,
      "duration": 0.2017,
      "velocity": 107,
      "chip": "ym2612"
    },
    {
      "channel": 5,
      "note": 44,
      "start": 18.3995,
      "duration": 0.2015,
      "velocity": 124,
      "chip": "ym2612"
    },
    {
      "channel": 0,
      "note": 79,
      "start": 18.5943,
      "duration": 0.2,
      "velocity": 67,
      "chip": "ym2612"
    },
    {
      "channel": 1,
      "note": 59,
      "start": 18.5953,
      "duration": 0.0988,
      "velocity": 99,
      "chip": "ym2612"
    },
    {
      "channel": 2,
      "note": 64,
      "start": 18.5962,
      "duration": 0.2,
      "velocity": 103,
      "chip": "ym2612"
    },
    {
      "channel": 3,
      "note": 67,
      "start": 18.5972,
      "duration": 0.2,
      "velocity": 107,
      "chip": "ym2612"
    },
    {
      "channel": 5,
      "note": 57,
      "start": 18.6011,
      "duration": 0.0975,
      "velocity": 124,
      "chip": "ym2612"
    },
    {
      "channel": 1,
      "note": 52,
      "start": 18.6942,
      "duration": 0.1011,
      "velocity": 99,
      "chip": "ym2612"
    },
    {
      "channel": 5,
      "note": 57,
      "start": 18.6987,
      "duration": 0.1031,
      "velocity": 86,
      "chip": "ym2612"
    },
    {
      "channel": 0,
      "note": 81,
      "start": 18.7944,
      "duration": 0.1999,
      "velocity": 67,
      "chip": "ym2612"
    },
    {
      "channel": 1,
      "note": 52,
      "start": 18.7954,
      "duration": 0.1999,
      "velocity": 99,
      "chip": "ym2612"
    },
    {
      "channel": 2,
      "note": 66,
      "start": 18.7964,
      "duration": 0.1999,
      "velocity": 103,
      "chip": "ym2612"
    },
    {
      "channel": 3,
      "note": 66,
      "start": 18.7973,
      "duration": 0.1999,
      "velocity": 107,
      "chip": "ym2612"
    },
    {
      "channel": 4,
      "note": 79,
      "start": 18.7983,
      "duration": 0.1999,
      "velocity": 67,
      "chip": "ym2612"
    },
    {
      "channel": 5,
      "note": 68,
      "start": 18.8019,
      "duration": 0.1999,
      "velocity": 124,
      "chip": "ym2612"
    },
    {
      "channel": 0,
      "note": 83,
      "start": 18.9944,
      "duration": 0.2,
      "velocity": 67,
      "chip": "ym2612"
    },
    {
      "channel": 1,
      "note": 59,
      "start": 18.9954,
      "duration": 0.0987,
      "velocity": 99,
      "chip": "ym2612"
    },
    {
      "channel": 2,
      "note": 67,
      "start": 18.9964,
      "duration": 0.1999,
      "velocity": 103,
      "chip": "ym2612"
    },
    {
      "channel": 3,
      "note": 64,
      "start": 18.9973,
      "duration": 0.1996,
      "velocity": 107,
      "chip": "ym2612"
    },
    {
      "channel": 4,
      "note": 81,
      "start": 18.9983,
      "duration": 0.1995,
      "velocity": 67,
      "chip": "ym2612"
    },
    {
      "channel": 5,
      "note": 57,
      "start": 19.0019,
      "duration": 0.0968,
      "velocity": 124,
      "chip": "ym2612"
    },
    {
      "channel": 1,
      "note": 52,
      "start": 19.0943,
      "duration": 0.1011,
      "velocity": 99,
      "chip": "ym2612"
    },
    {
      "channel": 5,
      "note": 57,
      "start": 19.0988,
      "duration": 0.1026,
      "velocity": 103,
      "chip": "ym2612"
    },
    {
      "channel": 0,
      "note": 82,
      "start": 19.1945,
      "duration": 0.1997,
      "velocity": 67,
      "chip": "ym2612"
    },
    {
      "channel": 1,
      "note": 48,
      "start": 19.1955,
      "duration": 0.1997,
      "velocity": 99,
      "chip": "ym2612"
    },
    {
      "channel": 2,
      "note": 60,
      "start": 19.1964,
      "duration": 0.3999,
      "velocity": 103,
      "chip": "ym2612"
    },
    {
      "channel": 4,
      "note": 83,
      "start": 19.1979,
      "duration": 0.1995,
      "velocity": 67,
      "chip": "ym2612"
    },
    {
      "channel": 5,
      "note": 44,
      "start": 19.2016,
      "duration": 0.1995,
      "velocity": 124,
      "chip": "ym2612"
    },
    {
      "channel": 0,
      "note": 79,
      "start": 19.3943,
      "duration": 0.2001,
      "velocity": 67,
      "chip": "ym2612"
    },
    {
      "channel": 1,
      "note": 58,
      "start": 19.3953,
      "duration": 0.0988,
      "velocity": 99,
      "chip": "ym2612"
    },
    {
      "channel": 3,
      "note": 60,
      "start": 19.3966,
      "duration": 0.2007,
      "velocity": 107,
      "chip": "ym2612"
    },
    {
      "channel": 4,
      "note": 82,
      "start": 19.3975,
      "duration": 0.2007,
      "velocity": 67,
      "chip": "ym2612"
    },
    {
      "channel": 5,
      "note": 57,
      "start": 19.4011,
      "duration": 0.0976,
      "velocity": 124,
      "chip": "ym2612"
    },
    {
      "channel": 1,
      "note": 48,
      "start": 19.4942,
      "duration": 0.1012,
      "velocity": 99,
      "chip": "ym2612"
    },
    {
      "channel": 5,
      "note": 57,
      "start": 19.4988,
      "duration": 0.103,
      "velocity": 86,
      "chip": "ym2612"
    },
    {
      "channel": 0,
      "note": 78,
      "start": 19.5944,
      "duration": 1.3996,
      "velocity": 67,
      "chip": "ym2612"
    },
    {
      "channel": 1,
      "note": 48,
      "start": 19.5954,
      "duration": 0.199,
      "velocity": 99,
      "chip": "ym2612"
    },
    {
      "channel": 2,
      "note": 64,
      "start": 19.5964,
      "duration": 0.399,
      "velocity": 103,
      "chip": "ym2612"
    },
    {
      "channel": 3,
      "note": 62,
      "start": 19.5973,
      "duration": 0.1983,
      "velocity": 107,
      "chip": "ym2612"
    },
    {
      "channel": 4,
      "note": 79,
      "start": 19.5983,
      "duration": 0.1983,
      "velocity": 67,
      "chip": "ym2612"
    },
    {
      "channel": 5,
      "note": 68,
      "start": 19.602,
      "duration": 0.1983,
      "velocity": 124,
      "chip": "ym2612"
    },
    {
      "channel": 1,
      "note": 58,
      "start": 19.7944,
      "duration": 0.0997,
      "velocity": 99,
      "chip": "ym2612"
    },
    {
      "channel": 3,
      "note": 64,
      "start": 19.7957,
      "duration": 0.2007,
      "velocity": 107,
      "chip": "ym2612"
    },
    {
      "channel": 4,
      "note": 78,
      "start": 19.7967,
      "duration": 1.3999,
      "velocity": 67,
      "chip": "ym2612"
    },
    {
      "channel": 5,
      "note": 57,
      "start": 19.8004,
      "duration": 0.0983,
      "velocity": 124,
      "chip": "ym2612"
    },
    {
      "channel": 1,
      "note": 48,
      "start": 19.8942,
      "duration": 0.1002,
      "velocity": 99,
      "chip": "ym2612"
    },
    {
      "channel": 5,
      "note": 57,
      "start": 19.8988,
      "duration": 0.1015,
      "velocity": 86,
      "chip": "ym2612"
    },
    {
      "channel": 1,
      "note": 48,
      "start": 19.9946,
      "duration": 0.1995,
      "velocity": 99,
      "chip": "ym2612"
    },
    {
      "channel": 2,
      "note": 67,
      "start": 19.9955,
      "duration": 0.3997,
      "velocity": 103,
      "chip": "ym2612"
    },
    {
      "channel": 3,
      "note": 66,
      "start": 19.9965,
      "duration": 0.1989,
      "velocity": 107,
      "chip": "ym2612"
    },
    {
      "channel": 5,
      "note": 68,
      "start": 20.0004,
      "duration": 0.0975,
      "velocity": 124,
      "chip": "ym2612"
    },
    {
      "channel": 5,
      "note": 57,
      "start": 20.098,
      "duration": 0.1014,
      "velocity": 86,
      "chip": "ym2612"
    },
    {
      "channel": 1,
      "note": 58,
      "start": 20.1943,
      "duration": 0.0998,
      "velocity": 99,
      "chip": "ym2612"
    },
    {
      "channel": 3,
      "note": 67,
      "start": 20.1955,
      "duration": 0.2006,
      "velocity": 107,
      "chip": "ym2612"
    },
    {
      "channel": 5,
      "note": 68,
      "start": 20.1995,
      "duration": 0.0991,
      "velocity": 86,
      "chip": "ym2612"
    },
    {
      "channel": 1,
      "note": 48,
      "start": 20.2941,
      "duration": 0.1002,
      "velocity": 99,
      "chip": "ym2612"
    },
    {
      "channel": 5,
      "note": 68,
      "start": 20.2987,
      "duration": 0.1013,
      "velocity": 86,
      "chip": "ym2612"
    },
    {
      "channel": 1,
      "note": 48,
      "start": 20.3944,
      "duration": 0.1997,
      "velocity": 99,
      "chip": "ym2612"
    },
    {
      "channel": 2,
      "note": 72,
      "start": 20.3954,
      "duration": 0.4,
      "velocity": 103,
      "chip": "ym2612"
    },
    {
      "channel": 3,
      "note": 69,
      "start": 20.3963,
      "duration": 0.1991,
      "velocity": 107,
      "chip": "ym2612"
    },
    {
      "channel": 5,
      "note": 68,
      "start": 20.4002,
      "duration": 0.1991,
      "velocity": 124,
      "chip": "ym2612"
    },
    {
      "channel": 1,
      "note": 58,
      "start": 20.5943,
      "duration": 0.0997,
      "velocity": 99,
      "chip": "ym2612"
    },
    {
      "channel": 3,
      "note": 72,
      "start": 20.5955,
      "duration": 0.2008,
      "velocity": 107,
      "chip": "ym2612"
    },
    {
      "channel": 5,
      "note": 57,
      "start": 20.5994,
      "duration": 0.099,
      "velocity": 124,
      "chip": "ym2612"
    },
    {
      "channel": 1,
      "note": 48,
      "start": 20.6941,
      "duration": 0.1004,
      "velocity": 99,
      "chip": "ym2612"
    },
    {
      "channel": 5,
      "note": 57,
      "start": 20.6986,
      "duration": 0.1017,
      "velocity": 103,
      "chip": "ym2612"
    },
    {
      "channel": 1,
      "note": 47,
      "start": 20.7946,
      "duration": 0.2004,
      "velocity": 99,
      "chip": "ym2612"
    },
    {
      "channel": 2,
      "note": 71,
      "start": 20.7955,
      "duration": 0.8008,
      "velocity": 103,
      "chip": "ym2612"
    },
    {
      "channel": 3,
      "note": 71,
      "start": 20.7965,
      "duration": 0.8008,
      "velocity": 107,
      "chip": "ym2612"
    },
    {
      "channel": 5,
      "note": 44,
      "start": 20.8004,
      "duration": 0.1991,
      "velocity": 124,
      "chip": "ym2612"
    },
    {
      "channel": 0,
      "note": 76,
      "start": 20.9941,
      "duration": 0.1999,
      "velocity": 67,
      "chip": "ym2612"
    },
    {
      "channel": 1,
      "note": 57,
      "start": 20.9951,
      "duration": 0.099,
      "velocity": 99,
      "chip": "ym2612"
    },
    {
      "channel": 5,
      "note": 57,
      "start": 20.9996,
      "duration": 0.099,
      "velocity": 124,
      "chip": "ym2612"
    },
    {
      "channel": 1,
      "note": 47,
      "start": 21.0941,
      "duration": 0.1008,
      "velocity": 99,
      "chip": "ym2612"
    },
    {
      "channel": 5,
      "note": 57,
      "start": 21.0987,
      "duration": 0.1016,
      "velocity": 86,
      "chip": "ym2612"
    },
    {
      "channel": 0,
      "note": 75,
      "start": 21.1941,
      "duration": 0.1999,
      "velocity": 67,
      "chip": "ym2612"
    },
    {
      "channel": 1,
      "note": 47,
      "start": 21.1951,
      "duration": 0.1999,
      "velocity": 99,
      "chip": "ym2612"
    },
    {
      "channel": 4,
      "note": 76,
      "start": 21.1967,
      "duration": 0.1997,
      "velocity": 67,
      "chip": "ym2612"
    },
    {
      "channel": 5,
      "note": 68,
      "start": 21.2004,
      "duration": 0.1996,
      "velocity": 124,
      "chip": "ym2612"
    },
    {
      "channel": 0,
      "note": 71,
      "start": 21.3941,
      "duration": 0.2003,
      "velocity": 67,
      "chip": "ym2612"
    },
    {
      "channel": 1,
      "note": 57,
      "start": 21.3951,
      "duration": 0.099,
      "velocity": 99,
      "chip": "ym2612"
    },
    {
      "channel": 4,
      "note": 75,
      "start": 21.3965,
      "duration": 0.2017,
      "velocity": 67,
      "chip": "ym2612"
    },
    {
      "channel": 5,
      "note": 57,
      "start": 21.4001,
      "duration": 0.0983,
      "velocity": 124,
      "chip": "ym2612"
    },
    {
      "channel": 1,
      "note": 47,
      "start": 21.4942,
      "duration": 0.1012,
      "velocity": 99,
      "chip": "ym2612"
    },
    {
      "channel": 5,
      "note": 57,
      "start": 21.4986,
      "duration": 0.1033,
      "velocity": 103,
      "chip": "ym2612"
    },
    {
      "channel": 0,
      "note": 69,
      "start": 21.5945,
      "duration": 0.1998,
      "velocity": 67,
      "chip": "ym2612"
    },
    {
      "channel": 1,
      "note": 47,
      "start": 21.5955,
      "duration": 0.1998,
      "velocity": 99,
      "chip": "ym2612"
    },
    {
      "channel": 2,
      "note": 69,
      "start": 21.5964,
      "duration": 0.1998,
      "velocity": 103,
      "chip": "ym2612"
    },
    {
      "channel": 3,
      "note": 69,
      "start": 21.5974,
      "duration": 0.1998,
      "velocity": 107,
      "chip": "ym2612"
    },
    {
      "channel": 4,
      "note": 71,
      "start": 21.5983,
      "duration": 0.1998,
      "velocity": 67,
      "chip": "ym2612"
    },
    {
      "channel": 5,
      "note": 44,
      "start": 21.602,
      "duration": 0.1998,
      "velocity": 124,
      "chip": "ym2612"
    },
    {
      "channel": 0,
      "note": 71,
      "start": 21.7944,
      "duration": 0.1999,
      "velocity": 67,
      "chip": "ym2612"
    },
    {
      "channel": 1,
      "note": 57,
      "start": 21.7954,
      "duration": 0.0987,
      "velocity": 99,
      "chip": "ym2612"
    },
    {
      "channel": 2,
      "note": 67,
      "start": 21.7964,
      "duration": 0.1999,
      "velocity": 103,
      "chip": "ym2612"
    },
    {
      "channel": 3,
      "note": 67,
      "start": 21.7973,
      "duration": 0.1999,
      "velocity": 107,
      "chip": "ym2612"
    },
    {
      "channel": 4,
      "note": 69,
      "start": 21.7983,
      "duration": 0.1999,
      "velocity": 67,
      "chip": "ym2612"
    },
    {
      "channel": 5,
      "note": 57,
      "start": 21.802,
      "duration": 0.0968,
      "velocity": 124,
      "chip": "ym2612"
    },
    {
      "channel": 1,
      "note": 47,
      "start": 21.8942,
      "duration": 0.1011,
      "velocity": 99,
      "chip": "ym2612"
    },
    {
      "channel": 5,
      "note": 57,
      "start": 21.8988,
      "duration": 0.1029,
      "velocity": 86,
      "chip": "ym2612"
    },
    {
      "channel": 0,
      "note": 75,
      "start": 21.9944,
      "duration": 0.1999,
      "velocity": 67,
      "chip": "ym2612"
    },
    {
      "channel": 1,
      "note": 47,
      "start": 21.9954,
      "duration": 0.1999,
      "velocity": 99,
      "chip": "ym2612"
    },
    {
      "channel": 2,
      "note": 66,
      "start": 21.9963,
      "duration": 0.1999,
      "velocity": 103,
      "chip": "ym2612"
    },
    {
      "channel": 3,
      "note": 66,
      "start": 21.9973,
      "duration": 0.1999,
      "velocity": 107,
      "chip": "ym2612"
    },
    {
      "channel": 4,
      "note": 71,
      "start": 21.9982,
      "duration": 0.1999,
      "velocity": 67,
      "chip": "ym2612"
    },
    {
      "channel": 5,
      "note": 68,
      "start": 22.0019,
      "duration": 0.1999,
      "velocity": 124,
      "chip": "ym2612"
    },
    {
      "channel": 0,
      "note": 78,
      "start": 22.1944,
      "duration": 0.2,
      "velocity": 67,
      "chip": "ym2612"
    },
    {
      "channel": 1,
      "note": 57,
      "start": 22.1954,
      "duration": 0.0988,
      "velocity": 99,
      "chip": "ym2612"
    },
    {
      "channel": 2,
      "note": 63,
      "start": 22.1963,
      "duration": 0.2001,
      "velocity": 103,
      "chip": "ym2612"
    },
    {
      "channel": 3,
      "note": 63,
      "start": 22.1973,
      "duration": 0.2001,
      "velocity": 107,
      "chip": "ym2612"
    },
    {
      "channel": 4,
      "note": 75,
      "start": 22.1982,
      "duration": 0.2001,
      "velocity": 67,
      "chip": "ym2612"
    },
    {
      "channel": 5,
      "note": 57,
      "start": 22.2019,
      "duration": 0.0968,
      "velocity": 124,
      "chip": "ym2612"
    },
    {
      "channel": 1,
      "note": 47,
      "start": 22.2942,
      "duration": 0.1012,
      "velocity": 99,
      "chip": "ym2612"
    },
    {
      "channel": 5,
      "note": 57,
      "start": 22.2988,
      "duration": 0.1031,
      "velocity": 103,
      "chip": "ym2612"
    },
    {
      "channel": 0,
      "note": 79,
      "start": 22.3946,
      "duration": 0.1996,
      "velocity": 67,
      "chip": "ym2612"
    },
    {
      "channel": 1,
      "note": 52,
      "start": 22.3955,
      "duration": 0.1996,
      "velocity": 99,
      "chip": "ym2612"
    },
    {
      "channel": 2,
      "note": 64,
      "start": 22.3965,
      "duration": 0.3998,
      "velocity": 103,
      "chip": "ym2612"
    },
    {
      "channel": 3,
      "note": 64,
      "start": 22.3974,
      "duration": 0.199,
      "velocity": 107,
      "chip": "ym2612"
    },
    {
      "channel": 4,
      "note": 78,
      "start": 22.3984,
      "duration": 0.199,
      "velocity": 67,
      "chip": "ym2612"
    },
    {
      "channel": 5,
      "note": 44,
      "start": 22.402,
      "duration": 0.199,
      "velocity": 124,
      "chip": "ym2612"
    },
    {
      "channel": 0,
      "note": 78,
      "start": 22.5943,
      "duration": 0.2,
      "velocity": 67,
      "chip": "ym2612"
    },
    {
      "channel": 1,
      "note": 59,
      "start": 22.5953,
      "duration": 0.0988,
      "velocity": 99,
      "chip": "ym2612"
    },
    {
      "channel": 3,
      "note": 59,
      "start": 22.5966,
      "duration": 0.2006,
      "velocity": 107,
      "chip": "ym2612"
    },
    {
      "channel": 4,
      "note": 79,
      "start": 22.5975,
      "duration": 0.2006,
      "velocity": 67,
      "chip": "ym2612"
    },
    {
      "channel": 5,
      "note": 57,
      "start": 22.6011,
      "duration": 0.0976,
      "velocity": 124,
      "chip": "ym2612"
    },
    {
      "channel": 1,
      "note": 52,
      "start": 22.6942,
      "duration": 0.1011,
      "velocity": 99,
      "chip": "ym2612"
    },
    {
      "channel": 5,
      "note": 57,
      "start": 22.6988,
      "duration": 0.1029,
      "velocity": 86,
      "chip": "ym2612"
    },
    {
      "channel": 0,
      "note": 76,
      "start": 22.7944,
      "duration": 0.1997,
      "velocity": 67,
      "chip": "ym2612"
    },
    {
      "channel": 1,
      "note": 52,
      "start": 22.7954,
      "duration": 0.1997,
      "velocity": 99,
      "chip": "ym2612"
    },
    {
      "channel": 2,
      "note": 66,
      "start": 22.7963,
      "duration": 0.4,
      "velocity": 103,
      "chip": "ym2612"
    },
    {
      "channel": 3,
      "note": 64,
      "start": 22.7973,
      "duration": 0.1991,
      "velocity": 107,
      "chip": "ym2612"
    },
    {
      "channel": 4,
      "note": 78,
      "start": 22.7983,
      "duration": 0.1991,
      "velocity": 67,
      "chip": "ym2612"
    },
    {
      "channel": 5,
      "note": 68,
      "start": 22.8019,
      "duration": 0.1991,
      "velocity": 124,
      "chip": "ym2612"
    },
    {
      "channel": 0,
      "note": 71,
      "start": 22.9943,
      "duration": 0.2001,
      "velocity": 67,
      "chip": "ym2612"
    },
    {
      "channel": 1,
      "note": 59,
      "start": 22.9952,
      "duration": 0.0989,
      "velocity": 99,
      "chip": "ym2612"
    },
    {
      "channel": 3,
      "note": 66,
      "start": 22.9965,
      "duration": 0.2008,
      "velocity": 107,
      "chip": "ym2612"
    },
    {
      "channel": 4,
      "note": 76,
      "start": 22.9974,
      "duration": 0.2008,
      "velocity": 67,
      "chip": "ym2612"
    },
    {
      "channel": 5,
      "note": 57,
      "start": 23.0011,
      "duration": 0.0976,
      "velocity": 124,
      "chip": "ym2612"
    },
    {
      "channel": 1,
      "note": 52,
      "start": 23.0942,
      "duration": 0.1012,
      "velocity": 99,
      "chip": "ym2612"
    },
    {
      "channel": 5,
      "note": 57,
      "start": 23.0988,
      "duration": 0.1031,
      "velocity": 86,
      "chip": "ym2612"
    },
    {
      "channel": 0,
      "note": 67,
      "start": 23.1945,
      "duration": 0.1997,
      "velocity": 67,
      "chip": "ym2612"
    },
    {
      "channel": 1,
      "note": 52,
      "start": 23.1955,
      "duration": 0.1997,
      "velocity": 99,
      "chip": "ym2612"
    },
    {
      "channel": 2,
      "note": 67,
      "start": 23.1964,
      "duration": 0.3999,
      "velocity": 103,
      "chip": "ym2612"
    },
    {
      "channel": 3,
      "note": 67,
      "start": 23.1974,
      "duration": 0.199,
      "velocity": 107,
      "chip": "ym2612"
    },
    {
      "channel": 4,
      "note": 71,
      "start": 23.1983,
      "duration": 0.199,
      "velocity": 67,
      "chip": "ym2612"
    },
    {
      "channel": 5,
      "note": 68,
      "start": 23.202,
      "duration": 0.0959,
      "velocity": 124,
      "chip": "ym2612"
    },
    {
      "channel": 5,
      "note": 57,
      "start": 23.298,
      "duration": 0.1031,
      "velocity": 86,
      "chip": "ym2612"
    },
    {
      "channel": 0,
      "note": 71,
      "start": 23.3943,
      "duration": 0.2001,
      "velocity": 67,
      "chip": "ym2612"
    },
    {
      "channel": 1,
      "note": 59,
      "start": 23.3953,
      "duration": 0.0988,
      "velocity": 99,
      "chip": "ym2612"
    },
    {
      "channel": 3,
      "note": 64,
      "start": 23.3966,
      "duration": 0.2007,
      "velocity": 107,
      "chip": "ym2612"
    },
    {
      "channel": 4,
      "note": 67,
      "start": 23.3975,
      "duration": 0.2007,
      "velocity": 67,
      "chip": "ym2612"
    },
    {
      "channel": 5,
      "note": 68,
      "start": 23.4011,
      "duration": 0.0976,
      "velocity": 86,
      "chip": "ym2612"
    },
    {
      "channel": 1,
      "note": 52,
      "start": 23.4942,
      "duration": 0.1012,
      "velocity": 99,
      "chip": "ym2612"
    },
    {
      "channel": 5,
      "note": 68,
      "start": 23.4988,
      "duration": 0.103,
      "velocity": 86,
      "chip": "ym2612"
    },
    {
      "channel": 0,
      "note": 66,
      "start": 23.5944,
      "duration": 0.1998,
      "velocity": 67,
      "chip": "ym2612"
    },
    {
      "channel": 1,
      "note": 47,
      "start": 23.5954,
      "duration": 0.1998,
      "velocity": 99,
      "chip": "ym2612"
    },
    {
      "channel": 2,
      "note": 70,
      "start": 23.5964,
      "duration": 0.3999,
      "velocity": 103,
      "chip": "ym2612"
    },
    {
      "channel": 3,
      "note": 67,
      "start": 23.5973,
      "duration": 0.1992,
      "velocity": 107,
      "chip": "ym2612"
    },
    {
      "channel": 4,
      "note": 71,
      "start": 23.5983,
      "duration": 0.1991,
      "velocity": 67,
      "chip": "ym2612"
    },
    {
      "channel": 5,
      "note": 68,
      "start": 23.602,
      "duration": 0.1991,
      "velocity": 124,
      "chip": "ym2612"
    },
    {
      "channel": 0,
      "note": 71,
      "start": 23.7943,
      "duration": 0.2,
      "velocity": 67,
      "chip": "ym2612"
    },
    {
      "channel": 1,
      "note": 47,
      "start": 23.7953,
      "duration": 0.0988,
      "velocity": 99,
      "chip": "ym2612"
    },
    {
      "channel": 3,
      "note": 71,
      "start": 23.7966,
      "duration": 0.2004,
      "velocity": 107,
      "chip": "ym2612"
    },
    {
      "channel": 4,
      "note": 66,
      "start": 23.7976,
      "duration": 0.2002,
      "velocity": 67,
      "chip": "ym2612"
    },
    {
      "channel": 5,
      "note": 57,
      "start": 23.8012,
      "duration": 0.0975,
      "velocity": 124,
      "chip": "ym2612"
    },
    {
      "channel": 1,
      "note": 47,
      "start": 23.8942,
      "duration": 0.1011,
      "velocity": 99,
      "chip": "ym2612"
    },
    {
      "channel": 5,
      "note": 57,
      "start": 23.8988,
      "duration": 0.1025,
      "velocity": 103,
      "chip": "ym2612"
    },
    {
      "channel": 0,
      "note": 79,
      "start": 23.9944,
      "duration": 0.0989,
      "velocity": 67,
      "chip": "ym2612"
    },
    {
      "channel": 1,
      "note": 52,
      "start": 23.9954,
      "duration": 0.1998,
      "velocity": 99,
      "chip": "ym2612"
    },
    {
      "channel": 2,
      "note": 71,
      "start": 23.9964,
      "duration": 0.9997,
      "velocity": 103,
      "chip": "ym2612"
    },
    {
      "channel": 4,
      "note": 71,
      "start": 23.9979,
      "duration": 0.1995,
      "velocity": 67,
      "chip": "ym2612"
    },
    {
      "channel": 5,
      "note": 44,
      "start": 24.0015,
      "duration": 0.1995,
      "velocity": 124,
      "chip": "ym2612"
    },
    {
      "channel": 0,
      "note": 81,
      "start": 24.0935,
      "duration": 0.1007,
      "velocity": 67,
      "chip": "ym2612"
    },
    {
      "channel": 0,
      "note": 83,
      "start": 24.1943,
      "duration": 0.7999,
      "velocity": 67,
      "chip": "ym2612"
    },
    {
      "channel": 1,
      "note": 59,
      "start": 24.1953,
      "duration": 0.0989,
      "velocity": 99,
      "chip": "ym2612"
    },
    {
      "channel": 3,
      "note": 59,
      "start": 24.1966,
      "duration": 0.1991,
      "velocity": 107,
      "chip": "ym2612"
    },
    {
      "channel": 4,
      "note": 79,
      "start": 24.1975,
      "duration": 0.0983,
      "velocity": 67,
      "chip": "ym2612"
    },
    {
      "channel": 5,
      "note": 57,
      "start": 24.2011,
      "duration": 0.0983,
      "velocity": 124,
      "chip": "ym2612"
    },
    {
      "channel": 1,
      "note": 52,
      "start": 24.2943,
      "duration": 0.1001,
      "velocity": 99,
      "chip": "ym2612"
    },
    {
      "channel": 4,
      "note": 81,
      "start": 24.2959,
      "duration": 0.1008,
      "velocity": 67,
      "chip": "ym2612"
    },
    {
      "channel": 5,
      "note": 57,
      "start": 24.2996,
      "duration": 0.1007,
      "velocity": 86,
      "chip": "ym2612"
    },
    {
      "channel": 1,
      "note": 52,
      "start": 24.3945,
      "duration": 0.1997,
      "velocity": 99,
      "chip": "ym2612"
    },
    {
      "channel": 3,
      "note": 62,
      "start": 24.3958,
      "duration": 0.1996,
      "velocity": 107,
      "chip": "ym2612"
    },
    {
      "channel": 4,
      "note": 83,
      "start": 24.3967,
      "duration": 0.8015,
      "velocity": 67,
      "chip": "ym2612"
    },
    {
      "channel": 5,
      "note": 68,
      "start": 24.4004,
      "duration": 0.1989,
      "velocity": 124,
      "chip": "ym2612"
    },
    {
      "channel": 1,
      "note": 59,
      "start": 24.5943,
      "duration": 0.0998,
      "velocity": 99,
      "chip": "ym2612"
    },
    {
      "channel": 3,
      "note": 60,
      "start": 24.5955,
      "duration": 0.2,
      "velocity": 107,
      "chip": "ym2612"
    },
    {
      "channel": 5,
      "note": 57,
      "start": 24.5995,
      "duration": 0.0991,
      "velocity": 124,
      "chip": "ym2612"
    },
    {
      "channel": 1,
      "note": 52,
      "start": 24.6942,
      "duration": 0.1001,
      "velocity": 99,
      "chip": "ym2612"
    },
    {
      "channel": 5,
      "note": 57,
      "start": 24.6987,
      "duration": 0.1007,
      "velocity": 103,
      "chip": "ym2612"
    },
    {
      "channel": 1,
      "note": 52,
      "start": 24.7944,
      "duration": 0.2007,
      "velocity": 99,
      "chip": "ym2612"
    },
    {
      "channel": 3,
      "note": 59,
      "start": 24.7956,
      "duration": 0.2015,
      "velocity": 107,
      "chip": "ym2612"
    },
    {
      "channel": 5,
      "note": 44,
      "start": 24.7995,
      "duration": 0.2014,
      "velocity": 124,
      "chip": "ym2612"
    },
    {
      "channel": 0,
      "note": 76,
      "start": 24.9943,
      "duration": 0.2,
      "velocity": 67,
      "chip": "ym2612"
    },
    {
      "channel": 1,
      "note": 59,
      "start": 24.9953,
      "duration": 0.0988,
      "velocity": 99,
      "chip": "ym2612"
    },
    {
      "channel": 2,
      "note": 71,
      "start": 24.9962,
      "duration": 0.2,
      "velocity": 103,
      "chip": "ym2612"
    },
    {
      "channel": 3,
      "note": 58,
      "start": 24.9972,
      "duration": 0.2001,
      "velocity": 107,
      "chip": "ym2612"
    },
    {
      "channel": 5,
      "note": 57,
      "start": 25.0011,
      "duration": 0.0975,
      "velocity": 124,
      "chip": "ym2612"
    },
    {
      "channel": 1,
      "note": 52,
      "start": 25.0941,
      "duration": 0.1012,
      "velocity": 99,
      "chip": "ym2612"
    },
    {
      "channel": 5,
      "note": 57,
      "start": 25.0987,
      "duration": 0.1032,
      "velocity": 86,
      "chip": "ym2612"
    },
    {
      "channel": 0,
      "note": 79,
      "start": 25.1944,
      "duration": 0.1998,
      "velocity": 67,
      "chip": "ym2612"
    },
    {
      "channel": 1,
      "note": 54,
      "start": 25.1954,
      "duration": 0.1998,
      "velocity": 99,
      "chip": "ym2612"
    },
    {
      "channel": 2,
      "note": 72,
      "start": 25.1964,
      "duration": 0.1998,
      "velocity": 103,
      "chip": "ym2612"
    },
    {
      "channel": 3,
      "note": 59,
      "start": 25.1973,
      "duration": 0.1999,
      "velocity": 107,
      "chip": "ym2612"
    },
    {
      "channel": 4,
      "note": 76,
      "start": 25.1983,
      "duration": 0.1999,
      "velocity": 67,
      "chip": "ym2612"
    },
    {
      "channel": 5,
      "note": 68,
      "start": 25.202,
      "duration": 0.1998,
      "velocity": 124,
      "chip": "ym2612"
    },
    {
      "channel": 0,
      "note": 83,
      "start": 25.3944,
      "duration": 0.1999,
      "velocity": 67,
      "chip": "ym2612"
    },
    {
      "channel": 1,
      "note": 55,
      "start": 25.3954,
      "duration": 0.1999,
      "velocity": 99,
      "chip": "ym2612"
    },
    {
      "channel": 2,
      "note": 74,
      "start": 25.3963,
      "duration": 0.1999,
      "velocity": 103,
      "chip": "ym2612"
    },
    {
      "channel": 3,
      "note": 55,
      "start": 25.3973,
      "duration": 0.1996,
      "velocity": 107,
      "chip": "ym2612"
    },
    {
      "channel": 4,
      "note": 79,
      "start": 25.3982,
      "duration": 0.1995,
      "velocity": 67,
      "chip": "ym2612"
    },
    {
      "channel": 5,
      "note": 57,
      "start": 25.4019,
      "duration": 0.096,
      "velocity": 124,
      "chip": "ym2612"
    },
    {
      "channel": 5,
      "note": 57,
      "start": 25.498,
      "duration": 0.1034,
      "velocity": 103,
      "chip": "ym2612"
    },
    {
      "channel": 0,
      "note": 82,
      "start": 25.5944,
      "duration": 0.2,
      "velocity": 67,
      "chip": "ym2612"
    },
    {
      "channel": 1,
      "note": 48,
      "start": 25.5954,
      "duration": 0.2,
      "velocity": 99,
      "chip": "ym2612"
    },
    {
      "channel": 2,
      "note": 72,
      "start": 25.5964,
      "duration": 0.0976,
      "velocity": 103,
      "chip": "ym2612"
    },
    {
      "channel": 4,
      "note": 83,
      "start": 25.5979,
      "duration": 0.2003,
      "velocity": 67,
      "chip": "ym2612"
    },
    {
      "channel": 5,
      "note": 44,
      "start": 25.6015,
      "duration": 0.2004,
      "velocity": 124,
      "chip": "ym2612"
    },
    {
      "channel": 2,
      "note": 71,
      "start": 25.6941,
      "duration": 0.1022,
      "velocity": 103,
      "chip": "ym2612"
    },
    {
      "channel": 0,
      "note": 79,
      "start": 25.7945,
      "duration": 0.1998,
      "velocity": 67,
      "chip": "ym2612"
    },
    {
      "channel": 1,
      "note": 58,
      "start": 25.7955,
      "duration": 0.0986,
      "velocity": 99,
      "chip": "ym2612"
    },
    {
      "channel": 2,
      "note": 70,
      "start": 25.7964,
      "duration": 0.9987,
      "velocity": 103,
      "chip": "ym2612"
    },
    {
      "channel": 3,
      "note": 64,
      "start": 25.7974,
      "duration": 0.1991,
      "velocity": 107,
      "chip": "ym2612"
    },
    {
      "channel": 4,
      "note": 82,
      "start": 25.7983,
      "duration": 0.1992,
      "velocity": 67,
      "chip": "ym2612"
    },
    {
      "channel": 5,
      "note": 57,
      "start": 25.802,
      "duration": 0.0968,
      "velocity": 124,
      "chip": "ym2612"
    },
    {
      "channel": 1,
      "note": 48,
      "start": 25.8942,
      "duration": 0.101,
      "velocity": 99,
      "chip": "ym2612"
    },
    {
      "channel": 5,
      "note": 57,
      "start": 25.8988,
      "duration": 0.1024,
      "velocity": 86,
      "chip": "ym2612"
    },
    {
      "channel": 0,
      "note": 78,
      "start": 25.9944,
      "duration": 1.1999,
      "velocity": 67,
      "chip": "ym2612"
    },
    {
      "channel": 1,
      "note": 48,
      "start": 25.9954,
      "duration": 0.199,
      "velocity": 99,
      "chip": "ym2612"
    },
    {
      "channel": 3,
      "note": 66,
      "start": 25.9966,
      "duration": 0.199,
      "velocity": 107,
      "chip": "ym2612"
    },
    {
      "channel": 4,
      "note": 79,
      "start": 25.9976,
      "duration": 0.199,
      "velocity": 67,
      "chip": "ym2612"
    },
    {
      "channel": 5,
      "note": 68,
      "start": 26.0013,
      "duration": 0.199,
      "velocity": 124,
      "chip": "ym2612"
    },
    {
      "channel": 1,
      "note": 58,
      "start": 26.1945,
      "duration": 0.0996,
      "velocity": 99,
      "chip": "ym2612"
    },
    {
      "channel": 3,
      "note": 67,
      "start": 26.1958,
      "duration": 0.1998,
      "velocity": 107,
      "chip": "ym2612"
    },
    {
      "channel": 4,
      "note": 78,
      "start": 26.1967,
      "duration": 1.2014,
      "velocity": 67,
      "chip": "ym2612"
    },
    {
      "channel": 5,
      "note": 57,
      "start": 26.2004,
      "duration": 0.0983,
      "velocity": 124,
      "chip": "ym2612"
    },
    {
      "channel": 1,
      "note": 48,
      "start": 26.2943,
      "duration": 0.1001,
      "velocity": 99,
      "chip": "ym2612"
    },
    {
      "channel": 5,
      "note": 57,
      "start": 26.2988,
      "duration": 0.1006,
      "velocity": 103,
      "chip": "ym2612"
    },
    {
      "channel": 1,
      "note": 48,
      "start": 26.3944,
      "duration": 0.1997,
      "velocity": 99,
      "chip": "ym2612"
    },
    {
      "channel": 3,
      "note": 70,
      "start": 26.3956,
      "duration": 0.1997,
      "velocity": 107,
      "chip": "ym2612"
    },
    {
      "channel": 5,
      "note": 44,
      "start": 26.3996,
      "duration": 0.1997,
      "velocity": 124,
      "chip": "ym2612"
    },
    {
      "channel": 1,
      "note": 58,
      "start": 26.5942,
      "duration": 0.0998,
      "velocity": 99,
      "chip": "ym2612"
    },
    {
      "channel": 3,
      "note": 67,
      "start": 26.5954,
      "duration": 0.2008,
      "velocity": 107,
      "chip": "ym2612"
    },
    {
      "channel": 5,
      "note": 57,
      "start": 26.5993,
      "duration": 0.0991,
      "velocity": 124,
      "chip": "ym2612"
    },
    {
      "channel": 1,
      "note": 48,
      "start": 26.6941,
      "duration": 0.1001,
      "velocity": 99,
      "chip": "ym2612"
    },
    {
      "channel": 5,
      "note": 57,
      "start": 26.6986,
      "duration": 0.1014,
      "velocity": 86,
      "chip": "ym2612"
    },
    {
      "channel": 1,
      "note": 50,
      "start": 26.7943,
      "duration": 0.1998,
      "velocity": 99,
      "chip": "ym2612"
    },
    {
      "channel": 2,
      "note": 76,
      "start": 26.7953,
      "duration": 0.4009,
      "velocity": 103,
      "chip": "ym2612"
    },
    {
      "channel": 3,
      "note": 66,
      "start": 26.7962,
      "duration": 0.1992,
      "velocity": 107,
      "chip": "ym2612"
    },
    {
      "channel": 5,
      "note": 68,
      "start": 26.8001,
      "duration": 0.0976,
      "velocity": 86,
      "chip": "ym2612"
    },
    {
      "channel": 5,
      "note": 68,
      "start": 26.8978,
      "duration": 0.1014,
      "velocity": 124,
      "chip": "ym2612"
    },
    {
      "channel": 1,
      "note": 52,
      "start": 26.9942,
      "duration": 0.201,
      "velocity": 99,
      "chip": "ym2612"
    },
    {
      "channel": 3,
      "note": 64,
      "start": 26.9955,
      "duration": 0.2017,
      "velocity": 107,
      "chip": "ym2612"
    },
    {
      "channel": 5,
      "note": 57,
      "start": 26.9993,
      "duration": 0.0983,
      "velocity": 124,
      "chip": "ym2612"
    },
    {
      "channel": 5,
      "note": 57,
      "start": 27.0978,
      "duration": 0.1032,
      "velocity": 103,
      "chip": "ym2612"
    },
    {
      "channel": 0,
      "note": 75,
      "start": 27.1943,
      "duration": 0.2,
      "velocity": 67,
      "chip": "ym2612"
    },
    {
      "channel": 1,
      "note": 51,
      "start": 27.1953,
      "duration": 0.2,
      "velocity": 99,
      "chip": "ym2612"
    },
    {
      "channel": 2,
      "note": 75,
      "start": 27.1962,
      "duration": 0.2,
      "velocity": 103,
      "chip": "ym2612"
    },
    {
      "channel": 3,
      "note": 66,
      "start": 27.1972,
      "duration": 0.2,
      "velocity": 107,
      "chip": "ym2612"
    },
    {
      "channel": 5,
      "note": 44,
      "start": 27.2011,
      "duration": 0.2008,
      "velocity": 124,
      "chip": "ym2612"
    },
    {
      "channel": 0,
      "note": 76,
      "start": 27.3944,
      "duration": 0.1999,
      "velocity": 67,
      "chip": "ym2612"
    },
    {
      "channel": 1,
      "note": 57,
      "start": 27.3954,
      "duration": 0.0987,
      "velocity": 99,
      "chip": "ym2612"
    },
    {
      "channel": 2,
      "note": 72,
      "start": 27.3964,
      "duration": 0.1999,
      "velocity": 103,
      "chip": "ym2612"
    },
    {
      "channel": 3,
      "note": 64,
      "start": 27.3973,
      "duration": 0.1999,
      "velocity": 107,
      "chip": "ym2612"
    },
    {
      "channel": 4,
      "note": 75,
      "start": 27.3983,
      "duration": 0.1999,
      "velocity": 67,
      "chip": "ym2612"
    },
    {
      "channel": 5,
      "note": 57,
      "start": 27.4019,
      "duration": 0.0968,
      "velocity": 124,
      "chip": "ym2612"
    },
    {
      "channel": 1,
      "note": 51,
      "start": 27.4943,
      "duration": 0.101,
      "velocity": 99,
      "chip": "ym2612"
    },
    {
      "channel": 5,
      "note": 57,
      "start": 27.4988,
      "duration": 0.103,
      "velocity": 86,
      "chip": "ym2612"
    },
    {
      "channel": 0,
      "note": 78,
      "start": 27.5944,
      "duration": 0.1999,
      "velocity": 67,
      "chip": "ym2612"
    },
    {
      "channel": 1,
      "note": 51,
      "start": 27.5954,
      "duration": 0.1999,
      "velocity": 99,
      "chip": "ym2612"
    },
    {
      "channel": 2,
      "note": 71,
      "start": 27.5964,
      "duration": 0.1999,
      "velocity": 103,
      "chip": "ym2612"
    },
    {
      "channel": 3,
      "note": 63,
      "start": 27.5973,
      "duration": 0.1999,
      "velocity": 107,
      "chip": "ym2612"
    },
    {
      "channel": 4,
      "note": 76,
      "start": 27.5983,
      "duration": 0.1999,
      "velocity": 67,
      "chip": "ym2612"
    },
    {
      "channel": 5,
      "note": 68,
      "start": 27.6019,
      "duration": 0.1999,
      "velocity": 124,
      "chip": "ym2612"
    },
    {
      "channel": 0,
      "note": 79,
      "start": 27.7944,
      "duration": 0.2,
      "velocity": 67,
      "chip": "ym2612"
    },
    {
      "channel": 1,
      "note": 57,
      "start": 27.7954,
      "duration": 0.0988,
      "velocity": 99,
      "chip": "ym2612"
    },
    {
      "channel": 2,
      "note": 69,
      "start": 27.7963,
      "duration": 0.2,
      "velocity": 103,
      "chip": "ym2612"
    },
    {
      "channel": 3,
      "note": 60,
      "start": 27.7973,
      "duration": 0.1999,
      "velocity": 107,
      "chip": "ym2612"
    },
    {
      "channel": 4,
      "note": 78,
      "start": 27.7983,
      "duration": 0.1999,
      "velocity": 67,
      "chip": "ym2612"
    },
    {
      "channel": 5,
      "note": 57,
      "start": 27.8019,
      "duration": 0.0968,
      "velocity": 124,
      "chip": "ym2612"
    },
    {
      "channel": 1,
      "note": 51,
      "start": 27.8943,
      "duration": 0.1011,
      "velocity": 99,
      "chip": "ym2612"
    },
    {
      "channel": 5,
      "note": 57,
      "start": 27.8988,
      "duration": 0.1031,
      "velocity": 103,
      "chip": "ym2612"
    },
    {
      "channel": 0,
      "note": 81,
      "start": 27.9945,
      "duration": 0.1999,
      "velocity": 67,
      "chip": "ym2612"
    },
    {
      "channel": 1,
      "note": 51,
      "start": 27.9955,
      "duration": 0.1999,
      "velocity": 99,
      "chip": "ym2612"
    },
    {
      "channel": 2,
      "note": 67,
      "start": 27.9964,
      "duration": 0.1999,
      "velocity": 103,
      "chip": "ym2612"
    },
    {
      "channel": 3,
      "note": 59,
      "start": 27.9974,
      "duration": 0.1999,
      "velocity": 107,
      "chip": "ym2612"
    },
    {
      "channel": 4,
      "note": 79,
      "start": 27.9983,
      "duration": 0.1999,
      "velocity": 67,
      "chip": "ym2612"
    },
    {
      "channel": 5,
      "note": 44,
      "start": 28.002,
      "duration": 0.1999,
      "velocity": 124,
      "chip": "ym2612"
    },
    {
      "channel": 0,
      "note": 83,
      "start": 28.1944,
      "duration": 0.1999,
      "velocity": 67,
      "chip": "ym2612"
    },
    {
      "channel": 1,
      "note": 57,
      "start": 28.1954,
      "duration": 0.0987,
      "velocity": 99,
      "chip": "ym2612"
    },
    {
      "channel": 2,
      "note": 66,
      "start": 28.1964,
      "duration": 0.1999,
      "velocity": 103,
      "chip": "ym2612"
    },
    {
      "channel": 3,
      "note": 57,
      "start": 28.1973,
      "duration": 0.1999,
      "velocity": 107,
      "chip": "ym2612"
    },
    {
      "channel": 4,
      "note": 81,
      "start": 28.1983,
      "duration": 0.1998,
      "velocity": 67,
      "chip": "ym2612"
    },
    {
      "channel": 5,
      "note": 57,
      "start": 28.202,
      "duration": 0.0968,
      "velocity": 124,
      "chip": "ym2612"
    },
    {
      "channel": 1,
      "note": 51,
      "start": 28.2943,
      "duration": 0.101,
      "velocity": 99,
      "chip": "ym2612"
    },
    {
      "channel": 5,
      "note": 57,
      "start": 28.2988,
      "duration": 0.103,
      "velocity": 86,
      "chip": "ym2612"
    },
    {
      "channel": 0,
      "note": 84,
      "start": 28.3944,
      "duration": 0.1998,
      "velocity": 67,
      "chip": "ym2612"
    },
    {
      "channel": 1,
      "note": 48,
      "start": 28.3954,
      "duration": 0.1998,
      "velocity": 99,
      "chip": "ym2612"
    },
    {
      "channel": 2,
      "note": 63,
      "start": 28.3964,
      "duration": 0.1998,
      "velocity": 103,
      "chip": "ym2612"
    },
    {
      "channel": 3,
      "note": 55,
      "start": 28.3973,
      "duration": 0.1998,
      "velocity": 107,
      "chip": "ym2612"
    },
    {
      "channel": 4,
      "note": 83,
      "start": 28.3983,
      "duration": 0.1999,
      "velocity": 67,
      "chip": "ym2612"
    },
    {
      "channel": 5,
      "note": 68,
      "start": 28.4019,
      "duration": 0.096,
      "velocity": 124,
      "chip": "ym2612"
    },
    {
      "channel": 5,
      "note": 57,
      "start": 28.498,
      "duration": 0.1038,
      "velocity": 124,
      "chip": "ym2612"
    },
    {
      "channel": 0,
      "note": 88,
      "start": 28.5944,
      "duration": 0.2,
      "velocity": 67,
      "chip": "ym2612"
    },
    {
      "channel": 1,
      "note": 48,
      "start": 28.5954,
      "duration": 0.2,
      "velocity": 99,
      "chip": "ym2612"
    },
    {
      "channel": 2,
      "note": 60,
      "start": 28.5963,
      "duration": 0.2,
      "velocity": 103,
      "chip": "ym2612"
    },
    {
      "channel": 3,
      "note": 54,
      "start": 28.5973,
      "duration": 0.2,
      "velocity": 107,
      "chip": "ym2612"
    },
    {
      "channel": 4,
      "note": 84,
      "start": 28.5982,
      "duration": 0.2,
      "velocity": 67,
      "chip": "ym2612"
    },
    {
      "channel": 5,
      "note": 57,
      "start": 28.6019,
      "duration": 0.0961,
      "velocity": 124,
      "chip": "ym2612"
    },
    {
      "channel": 5,
      "note": 57,
      "start": 28.698,
      "duration": 0.1039,
      "velocity": 103,
      "chip": "ym2612"
    },
    {
      "channel": 0,
      "note": 87,
      "start": 28.7945,
      "duration": 1.6032,
      "velocity": 103,
      "chip": "ym2612"
    },
    {
      "channel": 1,
      "note": 47,
      "start": 28.7955,
      "duration": 0.1989,
      "velocity": 99,
      "chip": "ym2612"
    },
    {
      "channel": 2,
      "note": 59,
      "start": 28.7964,
      "duration": 1.6059,
      "velocity": 87,
      "chip": "ym2612"
    },
    {
      "channel": 3,
      "note": 51,
      "start": 28.7974,
      "duration": 0.1983,
      "velocity": 107,
      "chip": "ym2612"
    },
    {
      "channel": 4,
      "note": 88,
      "start": 28.7983,
      "duration": 0.1983,
      "velocity": 67,
      "chip": "ym2612"
    },
    {
      "channel": 5,
      "note": 44,
      "start": 28.802,
      "duration": 0.1983,
      "velocity": 124,
      "chip": "ym2612"
    },
    {
      "channel": 1,
      "note": 59,
      "start": 28.9945,
      "duration": 0.0996,
      "velocity": 99,
      "chip": "ym2612"
    },
    {
      "channel": 3,
      "note": 52,
      "start": 28.9958,
      "duration": 0.1998,
      "velocity": 107,
      "chip": "ym2612"
    },
    {
      "channel": 4,
      "note": 87,
      "start": 28.9967,
      "duration": 1.6033,
      "velocity": 103,
      "chip": "ym2612"
    },
    {
      "channel": 5,
      "note": 57,
      "start": 29.0004,
      "duration": 0.0983,
      "velocity": 124,
      "chip": "ym2612"
    },
    {
      "channel": 1,
      "note": 47,
      "start": 29.0943,
      "duration": 0.1,
      "velocity": 99,
      "chip": "ym2612"
    },
    {
      "channel": 5,
      "note": 57,
      "start": 29.0988,
      "duration": 0.1007,
      "velocity": 86,
      "chip": "ym2612"
    },
    {
      "channel": 1,
      "note": 47,
      "start": 29.1944,
      "duration": 0.1997,
      "velocity": 99,
      "chip": "ym2612"
    },
    {
      "channel": 3,
      "note": 54,
      "start": 29.1957,
      "duration": 0.1996,
      "velocity": 107,
      "chip": "ym2612"
    },
    {
      "channel": 5,
      "note": 68,
      "start": 29.1996,
      "duration": 0.1997,
      "velocity": 124,
      "chip": "ym2612"
    },
    {
      "channel": 1,
      "note": 59,
      "start": 29.3943,
      "duration": 0.0997,
      "velocity": 99,
      "chip": "ym2612"
    },
    {
      "channel": 3,
      "note": 55,
      "start": 29.3954,
      "duration": 0.2,
      "velocity": 107,
      "chip": "ym2612"
    },
    {
      "channel": 5,
      "note": 57,
      "start": 29.3994,
      "duration": 0.099,
      "velocity": 124,
      "chip": "ym2612"
    },
    {
      "channel": 1,
      "note": 47,
      "start": 29.4941,
      "duration": 0.1,
      "velocity": 99,
      "chip": "ym2612"
    },
    {
      "channel": 5,
      "note": 57,
      "start": 29.4986,
      "duration": 0.1006,
      "velocity": 86,
      "chip": "ym2612"
    },
    {
      "channel": 1,
      "note": 47,
      "start": 29.5943,
      "duration": 0.1998,
      "velocity": 99,
      "chip": "ym2612"
    },
    {
      "channel": 3,
      "note": 57,
      "start": 29.5954,
      "duration": 0.1999,
      "velocity": 107,
      "chip": "ym2612"
    },
    {
      "channel": 5,
      "note": 68,
      "start": 29.5993,
      "duration": 0.0983,
      "velocity": 124,
      "chip": "ym2612"
    },
    {
      "channel": 5,
      "note": 57,
      "start": 29.6977,
      "duration": 0.1015,
      "velocity": 124,
      "chip": "ym2612"
    },
    {
      "channel": 1,
      "note": 59,
      "start": 29.7942,
      "duration": 0.0998,
      "velocity": 99,
      "chip": "ym2612"
    },
    {
      "channel": 3,
      "note": 59,
      "start": 29.7954,
      "duration": 0.1999,
      "velocity": 107,
      "chip": "ym2612"
    },
    {
      "channel": 5,
      "note": 57,
      "start": 29.7992,
      "duration": 0.0991,
      "velocity": 86,
      "chip": "ym2612"
    },
    {
      "channel": 1,
      "note": 47,
      "start": 29.8941,
      "duration": 0.1,
      "velocity": 99,
      "chip": "ym2612"
    },
    {
      "channel": 5,
      "note": 68,
      "start": 29.8985,
      "duration": 0.1007,
      "velocity": 86,
      "chip": "ym2612"
    },
    {
      "channel": 1,
      "note": 49,
      "start": 29.9942,
      "duration": 0.1999,
      "velocity": 99,
      "chip": "ym2612"
    },
    {
      "channel": 3,
      "note": 60,
      "start": 29.9954,
      "duration": 0.1999,
      "velocity": 107,
      "chip": "ym2612"
    },
    {
      "channel": 5,
      "note": 68,
      "start": 29.9992,
      "duration": 0.0983,
      "velocity": 86,
      "chip": "ym2612"
    },
    {
      "channel": 5,
      "note": 68,
      "start": 30.0976,
      "duration": 0.1015,
      "velocity": 127,
      "chip": "ym2612"
    },
    {
      "channel": 1,
      "note": 51,
      "start": 30.1942,
      "duration": 0.2045,
      "velocity": 99,
      "chip": "ym2612"
    },
    {
      "channel": 3,
      "note": 63,
      "start": 30.1954,
      "duration": 0.2103,
      "velocity": 91,
      "chip": "ym2612"
    },
    {
      "channel": 5,
      "note": 67,
      "start": 30.1992,
      "duration": 0.0984,
      "velocity": 127,
      "chip": "ym2612"
    },
    {
      "channel": 5,
      "note": 67,
      "start": 30.2977,
      "duration": 0.1122,
      "velocity": 103,
      "chip": "ym2612"
    },
    {
      "channel": 0,
      "note": 59,
      "start": 30.3979,
      "duration": 0.1965,
      "velocity": 103,
      "chip": "ym2612"
    },
    {
      "channel": 1,
      "note": 52,
      "start": 30.3988,
      "duration": 0.1965,
      "velocity": 99,
      "chip": "ym2612"
    },
    {
      "channel": 2,
      "note": 71,
      "start": 30.4025,
      "duration": 0.0915,
      "velocity": 87,
      "chip": "ym2612"
    },
    {
      "channel": 5,
      "note": 44,
      "start": 30.41,
      "duration": 0.1938,
      "velocity": 84,
      "chip": "ym2612"
    },
    {
      "channel": 2,
      "note": 67,
      "start": 30.4941,
      "duration": 0.1022,
      "velocity": 87,
      "chip": "ym2612"
    },
    {
      "channel": 0,
      "note": 71,
      "start": 30.5945,
      "duration": 0.1982,
      "velocity": 103,
      "chip": "ym2612"
    },
    {
      "channel": 1,
      "note": 52,
      "start": 30.5955,
      "duration": 0.1972,
      "velocity": 99,
      "chip": "ym2612"
    },
    {
      "channel": 2,
      "note": 66,
      "start": 30.5964,
      "duration": 0.0979,
      "velocity": 87,
      "chip": "ym2612"
    },
    {
      "channel": 4,
      "note": 59,
      "start": 30.6002,
      "duration": 0.1925,
      "velocity": 103,
      "chip": "ym2612"
    },
    {
      "channel": 5,
      "note": 59,
      "start": 30.6038,
      "duration": 0.0946,
      "velocity": 84,
      "chip": "ym2612"
    },
    {
      "channel": 2,
      "note": 64,
      "start": 30.6944,
      "duration": 0.0982,
      "velocity": 87,
      "chip": "ym2612"
    },
    {
      "channel": 5,
      "note": 59,
      "start": 30.6985,
      "duration": 0.0941,
      "velocity": 84,
      "chip": "ym2612"
    }
  ]
}