{
  "track_name": "24 - Failure Teaches Success",
  "duration_sec": 36.881,
  "sample_rate": 44100,
  "note_count": 466,
  "unique_pitches": 64,
  "pitch_range": 81,
  "avg_note_duration": 0.4399,
  "reconstruction_stats": {
    "notes_reconstructed": 466,
    "keyon_events": 466,
    "keyoff_events": 461,
    "orphan_keyons": 5,
    "unique_pitches": 64,
    "pitch_range": 81,
    "avg_duration_sec": 0.4399
  },
  "metadata": {
    "source": "P\\Pac-Man 2 - The New Adventures\\24 - Failure Teaches Success.vgz"
  },
  "notes": [
    {
      "channel": 0,
      "note": 90,
      "start": 0.0,
      "duration": 0.2556,
      "velocity": 100,
      "chip": "ym2612"
    },
    {
      "channel": 2,
      "note": 34,
      "start": 0.0,
      "duration": 0.1239,
      "velocity": 86,
      "chip": "ym2612"
    },
    {
      "channel": 5,
      "note": 34,
      "start": 0.008,
      "duration": 2.1408,
      "velocity": 100,
      "chip": "ym2612"
    },
    {
      "channel": 3,
      "note": 34,
      "start": 0.0621,
      "duration": 0.1333,
      "velocity": 86,
      "chip": "ym2612"
    },
    {
      "channel": 4,
      "note": 34,
      "start": 0.0963,
      "duration": 0.1293,
      "velocity": 86,
      "chip": "ym2612"
    },
    {
      "channel": 2,
      "note": 34,
      "start": 0.1239,
      "duration": 0.1338,
      "velocity": 86,
      "chip": "ym2612"
    },
    {
      "channel": 1,
      "note": 90,
      "start": 0.1936,
      "duration": 0.2625,
      "velocity": 100,
      "chip": "ym2612"
    },
    {
      "channel": 3,
      "note": 34,
      "start": 0.1954,
      "duration": 0.1291,
      "velocity": 86,
      "chip": "ym2612"
    },
    {
      "channel": 4,
      "note": 34,
      "start": 0.2256,
      "duration": 0.1332,
      "velocity": 86,
      "chip": "ym2612"
    },
    {
      "channel": 0,
      "note": 90,
      "start": 0.2556,
      "duration": 0.2666,
      "velocity": 100,
      "chip": "ym2612"
    },
    {
      "channel": 2,
      "note": 34,
      "start": 0.2577,
      "duration": 0.1331,
      "velocity": 86,
      "chip": "ym2612"
    },
    {
      "channel": 3,
      "note": 34,
      "start": 0.3246,
      "duration": 0.1334,
      "velocity": 86,
      "chip": "ym2612"
    },
    {
      "channel": 4,
      "note": 34,
      "start": 0.3589,
      "duration": 0.1333,
      "velocity": 86,
      "chip": "ym2612"
    },
    {
      "channel": 2,
      "note": 34,
      "start": 0.3909,
      "duration": 0.1335,
      "velocity": 86,
      "chip": "ym2612"
    },
    {
      "channel": 1,
      "note": 90,
      "start": 0.4561,
      "duration": 0.2666,
      "velocity": 100,
      "chip": "ym2612"
    },
    {
      "channel": 3,
      "note": 34,
      "start": 0.458,
      "duration": 0.1333,
      "velocity": 86,
      "chip": "ym2612"
    },
    {
      "channel": 4,
      "note": 34,
      "start": 0.4922,
      "duration": 0.1333,
      "velocity": 86,
      "chip": "ym2612"
    },
    {
      "channel": 0,
      "note": 90,
      "start": 0.5223,
      "duration": 0.2666,
      "velocity": 100,
      "chip": "ym2612"
    },
    {
      "channel": 2,
      "note": 34,
      "start": 0.5244,
      "duration": 0.1331,
      "velocity": 86,
      "chip": "ym2612"
    },
    {
      "channel": 3,
      "note": 34,
      "start": 0.5912,
      "duration": 0.1333,
      "velocity": 86,
      "chip": "ym2612"
    },
    {
      "channel": 4,
      "note": 34,
      "start": 0.6255,
      "duration": 0.1334,
      "velocity": 86,
      "chip": "ym2612"
    },
    {
      "channel": 2,
      "note": 34,
      "start": 0.6575,
      "duration": 0.1335,
      "velocity": 86,
      "chip": "ym2612"
    },
    {
      "channel": 1,
      "note": 90,
      "start": 0.7228,
      "duration": 0.2667,
      "velocity": 100,
      "chip": "ym2612"
    },
    {
      "channel": 3,
      "note": 34,
      "start": 0.7246,
      "duration": 0.1333,
      "velocity": 86,
      "chip": "ym2612"
    },
    {
      "channel": 4,
      "note": 34,
      "start": 0.7589,
      "duration": 0.1333,
      "velocity": 86,
      "chip": "ym2612"
    },
    {
      "channel": 0,
      "note": 90,
      "start": 0.7889,
      "duration": 0.2666,
      "velocity": 100,
      "chip": "ym2612"
    },
    {
      "channel": 2,
      "note": 34,
      "start": 0.791,
      "duration": 0.1331,
      "velocity": 86,
      "chip": "ym2612"
    },
    {
      "channel": 3,
      "note": 34,
      "start": 0.858,
      "duration": 0.1334,
      "velocity": 86,
      "chip": "ym2612"
    },
    {
      "channel": 4,
      "note": 34,
      "start": 0.8922,
      "duration": 0.1333,
      "velocity": 86,
      "chip": "ym2612"
    },
    {
      "channel": 2,
      "note": 34,
      "start": 0.9241,
      "duration": 0.1334,
      "velocity": 86,
      "chip": "ym2612"
    },
    {
      "channel": 1,
      "note": 90,
      "start": 0.9895,
      "duration": 0.2666,
      "velocity": 100,
      "chip": "ym2612"
    },
    {
      "channel": 3,
      "note": 34,
      "start": 0.9914,
      "duration": 0.1332,
      "velocity": 86,
      "chip": "ym2612"
    },
    {
      "channel": 4,
      "note": 34,
      "start": 1.0255,
      "duration": 0.1334,
      "velocity": 86,
      "chip": "ym2612"
    },
    {
      "channel": 0,
      "note": 90,
      "start": 1.0555,
      "duration": 0.2668,
      "velocity": 100,
      "chip": "ym2612"
    },
    {
      "channel": 2,
      "note": 34,
      "start": 1.0575,
      "duration": 0.1332,
      "velocity": 86,
      "chip": "ym2612"
    },
    {
      "channel": 3,
      "note": 34,
      "start": 1.1246,
      "duration": 0.1333,
      "velocity": 86,
      "chip": "ym2612"
    },
    {
      "channel": 4,
      "note": 34,
      "start": 1.1589,
      "duration": 0.1333,
      "velocity": 86,
      "chip": "ym2612"
    },
    {
      "channel": 2,
      "note": 34,
      "start": 1.1907,
      "duration": 0.1335,
      "velocity": 86,
      "chip": "ym2612"
    },
    {
      "channel": 1,
      "note": 90,
      "start": 1.2561,
      "duration": 0.2667,
      "velocity": 100,
      "chip": "ym2612"
    },
    {
      "channel": 3,
      "note": 34,
      "start": 1.258,
      "duration": 0.1333,
      "velocity": 86,
      "chip": "ym2612"
    },
    {
      "channel": 4,
      "note": 34,
      "start": 1.2923,
      "duration": 0.1332,
      "velocity": 86,
      "chip": "ym2612"
    },
    {
      "channel": 0,
      "note": 90,
      "start": 1.3223,
      "duration": 0.2667,
      "velocity": 100,
      "chip": "ym2612"
    },
    {
      "channel": 2,
      "note": 34,
      "start": 1.3242,
      "duration": 0.1333,
      "velocity": 86,
      "chip": "ym2612"
    },
    {
      "channel": 3,
      "note": 34,
      "start": 1.3912,
      "duration": 0.1334,
      "velocity": 86,
      "chip": "ym2612"
    },
    {
      "channel": 4,
      "note": 34,
      "start": 1.4255,
      "duration": 0.1334,
      "velocity": 86,
      "chip": "ym2612"
    },
    {
      "channel": 2,
      "note": 34,
      "start": 1.4575,
      "duration": 0.1337,
      "velocity": 86,
      "chip": "ym2612"
    },
    {
      "channel": 1,
      "note": 90,
      "start": 1.5228,
      "duration": 0.2666,
      "velocity": 100,
      "chip": "ym2612"
    },
    {
      "channel": 3,
      "note": 34,
      "start": 1.5246,
      "duration": 0.1333,
      "velocity": 86,
      "chip": "ym2612"
    },
    {
      "channel": 4,
      "note": 34,
      "start": 1.5589,
      "duration": 0.1333,
      "velocity": 86,
      "chip": "ym2612"
    },
    {
      "channel": 0,
      "note": 90,
      "start": 1.589,
      "duration": 0.2665,
      "velocity": 100,
      "chip": "ym2612"
    },
    {
      "channel": 2,
      "note": 34,
      "start": 1.5911,
      "duration": 0.1329,
      "velocity": 86,
      "chip": "ym2612"
    },
    {
      "channel": 3,
      "note": 34,
      "start": 1.658,
      "duration": 0.1333,
      "velocity": 86,
      "chip": "ym2612"
    },
    {
      "channel": 4,
      "note": 34,
      "start": 1.6923,
      "duration": 0.1332,
      "velocity": 86,
      "chip": "ym2612"
    },
    {
      "channel": 2,
      "note": 34,
      "start": 1.7241,
      "duration": 0.1333,
      "velocity": 86,
      "chip": "ym2612"
    },
    {
      "channel": 1,
      "note": 90,
      "start": 1.7894,
      "duration": 0.2667,
      "velocity": 100,
      "chip": "ym2612"
    },
    {
      "channel": 3,
      "note": 34,
      "start": 1.7912,
      "duration": 0.1334,
      "velocity": 86,
      "chip": "ym2612"
    },
    {
      "channel": 4,
      "note": 34,
      "start": 1.8255,
      "duration": 0.1334,
      "velocity": 86,
      "chip": "ym2612"
    },
    {
      "channel": 0,
      "note": 90,
      "start": 1.8556,
      "duration": 0.2667,
      "velocity": 100,
      "chip": "ym2612"
    },
    {
      "channel": 2,
      "note": 34,
      "start": 1.8575,
      "duration": 0.1333,
      "velocity": 86,
      "chip": "ym2612"
    },
    {
      "channel": 3,
      "note": 34,
      "start": 1.9246,
      "duration": 0.1333,
      "velocity": 86,
      "chip": "ym2612"
    },
    {
      "channel": 4,
      "note": 34,
      "start": 1.9589,
      "duration": 0.1334,
      "velocity": 86,
      "chip": "ym2612"
    },
    {
      "channel": 2,
      "note": 34,
      "start": 1.9907,
      "duration": 0.1414,
      "velocity": 86,
      "chip": "ym2612"
    },
    {
      "channel": 1,
      "note": 90,
      "start": 2.0562,
      "duration": 0.0709,
      "velocity": 100,
      "chip": "ym2612"
    },
    {
      "channel": 3,
      "note": 34,
      "start": 2.058,
      "duration": 0.0807,
      "velocity": 86,
      "chip": "ym2612"
    },
    {
      "channel": 4,
      "note": 34,
      "start": 2.0923,
      "duration": 0.0515,
      "velocity": 86,
      "chip": "ym2612"
    },
    {
      "channel": 0,
      "note": 48,
      "start": 2.1267,
      "duration": 0.1455,
      "velocity": 94,
      "chip": "ym2612"
    },
    {
      "channel": 1,
      "note": 72,
      "start": 2.1318,
      "duration": 0.1415,
      "velocity": 117,
      "chip": "ym2612"
    },
    {
      "channel": 2,
      "note": 78,
      "start": 2.1384,
      "duration": 0.1359,
      "velocity": 89,
      "chip": "ym2612"
    },
    {
      "channel": 3,
      "note": 53,
      "start": 2.1433,
      "duration": 0.1321,
      "velocity": 94,
      "chip": "ym2612"
    },
    {
      "channel": 4,
      "note": 102,
      "start": 2.1484,
      "duration": 0.128,
      "velocity": 98,
      "chip": "ym2612"
    },
    {
      "channel": 5,
      "note": 41,
      "start": 2.155,
      "duration": 0.1225,
      "velocity": 100,
      "chip": "ym2612"
    },
    {
      "channel": 0,
      "note": 49,
      "start": 2.2722,
      "duration": 0.1333,
      "velocity": 94,
      "chip": "ym2612"
    },
    {
      "channel": 1,
      "note": 73,
      "start": 2.2733,
      "duration": 0.1332,
      "velocity": 117,
      "chip": "ym2612"
    },
    {
      "channel": 2,
      "note": 79,
      "start": 2.2743,
      "duration": 0.1333,
      "velocity": 89,
      "chip": "ym2612"
    },
    {
      "channel": 3,
      "note": 52,
      "start": 2.2754,
      "duration": 0.1332,
      "velocity": 94,
      "chip": "ym2612"
    },
    {
      "channel": 4,
      "note": 103,
      "start": 2.2764,
      "duration": 0.1333,
      "velocity": 98,
      "chip": "ym2612"
    },
    {
      "channel": 5,
      "note": 40,
      "start": 2.2775,
      "duration": 0.1332,
      "velocity": 100,
      "chip": "ym2612"
    },
    {
      "channel": 0,
      "note": 50,
      "start": 2.4055,
      "duration": 0.2832,
      "velocity": 94,
      "chip": "ym2612"
    },
    {
      "channel": 1,
      "note": 74,
      "start": 2.4065,
      "duration": 0.349,
      "velocity": 117,
      "chip": "ym2612"
    },
    {
      "channel": 2,
      "note": 80,
      "start": 2.4076,
      "duration": 0.287,
      "velocity": 89,
      "chip": "ym2612"
    },
    {
      "channel": 3,
      "note": 51,
      "start": 2.4086,
      "duration": 0.3529,
      "velocity": 94,
      "chip": "ym2612"
    },
    {
      "channel": 4,
      "note": 104,
      "start": 2.4097,
      "duration": 0.2908,
      "velocity": 98,
      "chip": "ym2612"
    },
    {
      "channel": 5,
      "note": 39,
      "start": 2.4108,
      "duration": 0.2971,
      "velocity": 100,
      "chip": "ym2612"
    },
    {
      "channel": 0,
      "note": 83,
      "start": 2.6933,
      "duration": 0.1284,
      "velocity": 100,
      "chip": "ym2612"
    },
    {
      "channel": 2,
      "note": 37,
      "start": 2.6993,
      "duration": 0.2586,
      "velocity": 100,
      "chip": "ym2612"
    },
    {
      "channel": 4,
      "note": 49,
      "start": 2.7068,
      "duration": 0.253,
      "velocity": 106,
      "chip": "ym2612"
    },
    {
      "channel": 5,
      "note": 49,
      "start": 2.708,
      "duration": 0.2522,
      "velocity": 100,
      "chip": "ym2612"
    },
    {
      "channel": 1,
      "note": 83,
      "start": 2.7602,
      "duration": 0.1297,
      "velocity": 100,
      "chip": "ym2612"
    },
    {
      "channel": 3,
      "note": 49,
      "start": 2.7661,
      "duration": 0.2587,
      "velocity": 74,
      "chip": "ym2612"
    },
    {
      "channel": 0,
      "note": 83,
      "start": 2.8218,
      "duration": 0.1338,
      "velocity": 100,
      "chip": "ym2612"
    },
    {
      "channel": 1,
      "note": 83,
      "start": 2.8899,
      "duration": 0.1329,
      "velocity": 100,
      "chip": "ym2612"
    },
    {
      "channel": 0,
      "note": 83,
      "start": 2.9556,
      "duration": 0.1329,
      "velocity": 100,
      "chip": "ym2612"
    },
    {
      "channel": 2,
      "note": 26,
      "start": 2.9578,
      "duration": 2.3995,
      "velocity": 100,
      "chip": "ym2612"
    },
    {
      "channel": 4,
      "note": 38,
      "start": 2.9598,
      "duration": 2.9326,
      "velocity": 106,
      "chip": "ym2612"
    },
    {
      "channel": 5,
      "note": 38,
      "start": 2.9649,
      "duration": 7.1621,
      "velocity": 100,
      "chip": "ym2612"
    },
    {
      "channel": 1,
      "note": 83,
      "start": 3.0229,
      "duration": 0.1333,
      "velocity": 100,
      "chip": "ym2612"
    },
    {
      "channel": 3,
      "note": 50,
      "start": 3.0248,
      "duration": 2.3995,
      "velocity": 74,
      "chip": "ym2612"
    },
    {
      "channel": 0,
      "note": 83,
      "start": 3.0886,
      "duration": 0.1337,
      "velocity": 100,
      "chip": "ym2612"
    },
    {
      "channel": 1,
      "note": 83,
      "start": 3.1561,
      "duration": 0.1333,
      "velocity": 100,
      "chip": "ym2612"
    },
    {
      "channel": 0,
      "note": 83,
      "start": 3.2222,
      "duration": 0.1334,
      "velocity": 100,
      "chip": "ym2612"
    },
    {
      "channel": 1,
      "note": 83,
      "start": 3.2895,
      "duration": 0.1332,
      "velocity": 100,
      "chip": "ym2612"
    },
    {
      "channel": 0,
      "note": 83,
      "start": 3.3556,
      "duration": 0.1332,
      "velocity": 100,
      "chip": "ym2612"
    },
    {
      "channel": 1,
      "note": 83,
      "start": 3.4227,
      "duration": 0.1334,
      "velocity": 100,
      "chip": "ym2612"
    },
    {
      "channel": 0,
      "note": 83,
      "start": 3.4889,
      "duration": 0.1329,
      "velocity": 100,
      "chip": "ym2612"
    },
    {
      "channel": 1,
      "note": 83,
      "start": 3.5561,
      "duration": 0.1333,
      "velocity": 100,
      "chip": "ym2612"
    },
    {
      "channel": 0,
      "note": 83,
      "start": 3.6218,
      "duration": 0.1337,
      "velocity": 100,
      "chip": "ym2612"
    },
    {
      "channel": 1,
      "note": 83,
      "start": 3.6895,
      "duration": 0.1332,
      "velocity": 100,
      "chip": "ym2612"
    },
    {
      "channel": 0,
      "note": 83,
      "start": 3.7555,
      "duration": 0.1331,
      "velocity": 100,
      "chip": "ym2612"
    },
    {
      "channel": 1,
      "note": 83,
      "start": 3.8227,
      "duration": 0.1334,
      "velocity": 100,
      "chip": "ym2612"
    },
    {
      "channel": 0,
      "note": 83,
      "start": 3.8886,
      "duration": 0.1337,
      "velocity": 100,
      "chip": "ym2612"
    },
    {
      "channel": 1,
      "note": 83,
      "start": 3.9561,
      "duration": 0.1334,
      "velocity": 100,
      "chip": "ym2612"
    },
    {
      "channel": 0,
      "note": 83,
      "start": 4.0223,
      "duration": 0.1332,
      "velocity": 100,
      "chip": "ym2612"
    },
    {
      "channel": 1,
      "note": 83,
      "start": 4.0895,
      "duration": 0.1332,
      "velocity": 100,
      "chip": "ym2612"
    },
    {
      "channel": 0,
      "note": 83,
      "start": 4.1555,
      "duration": 0.1333,
      "velocity": 100,
      "chip": "ym2612"
    },
    {
      "channel": 1,
      "note": 83,
      "start": 4.2227,
      "duration": 0.1334,
      "velocity": 100,
      "chip": "ym2612"
    },
    {
      "channel": 0,
      "note": 83,
      "start": 4.2888,
      "duration": 0.1331,
      "velocity": 100,
      "chip": "ym2612"
    },
    {
      "channel": 1,
      "note": 83,
      "start": 4.3561,
      "duration": 0.1334,
      "velocity": 100,
      "chip": "ym2612"
    },
    {
      "channel": 0,
      "note": 83,
      "start": 4.4218,
      "duration": 0.1334,
      "velocity": 100,
      "chip": "ym2612"
    },
    {
      "channel": 1,
      "note": 83,
      "start": 4.4895,
      "duration": 0.1332,
      "velocity": 100,
      "chip": "ym2612"
    },
    {
      "channel": 0,
      "note": 83,
      "start": 4.5552,
      "duration": 0.1332,
      "velocity": 100,
      "chip": "ym2612"
    },
    {
      "channel": 1,
      "note": 83,
      "start": 4.6227,
      "duration": 0.1334,
      "velocity": 100,
      "chip": "ym2612"
    },
    {
      "channel": 0,
      "note": 83,
      "start": 4.6884,
      "duration": 0.1334,
      "velocity": 100,
      "chip": "ym2612"
    },
    {
      "channel": 1,
      "note": 83,
      "start": 4.7561,
      "duration": 0.1334,
      "velocity": 100,
      "chip": "ym2612"
    },
    {
      "channel": 0,
      "note": 83,
      "start": 4.8218,
      "duration": 0.1334,
      "velocity": 100,
      "chip": "ym2612"
    },
    {
      "channel": 1,
      "note": 83,
      "start": 4.8895,
      "duration": 0.1332,
      "velocity": 100,
      "chip": "ym2612"
    },
    {
      "channel": 0,
      "note": 83,
      "start": 4.9552,
      "duration": 0.1337,
      "velocity": 100,
      "chip": "ym2612"
    },
    {
      "channel": 1,
      "note": 83,
      "start": 5.0228,
      "duration": 0.1333,
      "velocity": 100,
      "chip": "ym2612"
    },
    {
      "channel": 0,
      "note": 83,
      "start": 5.0889,
      "duration": 0.1329,
      "velocity": 100,
      "chip": "ym2612"
    },
    {
      "channel": 1,
      "note": 83,
      "start": 5.1561,
      "duration": 0.1334,
      "velocity": 100,
      "chip": "ym2612"
    },
    {
      "channel": 0,
      "note": 83,
      "start": 5.2218,
      "duration": 0.134,
      "velocity": 100,
      "chip": "ym2612"
    },
    {
      "channel": 1,
      "note": 83,
      "start": 5.2895,
      "duration": 0.1334,
      "velocity": 100,
      "chip": "ym2612"
    },
    {
      "channel": 0,
      "note": 83,
      "start": 5.3559,
      "duration": 0.1326,
      "velocity": 100,
      "chip": "ym2612"
    },
    {
      "channel": 2,
      "note": 77,
      "start": 5.362,
      "duration": 6.6624,
      "velocity": 83,
      "chip": "ym2612"
    },
    {
      "channel": 1,
      "note": 83,
      "start": 5.4229,
      "duration": 0.1332,
      "velocity": 100,
      "chip": "ym2612"
    },
    {
      "channel": 3,
      "note": 78,
      "start": 5.429,
      "duration": 6.6952,
      "velocity": 83,
      "chip": "ym2612"
    },
    {
      "channel": 0,
      "note": 83,
      "start": 5.4886,
      "duration": 0.1333,
      "velocity": 100,
      "chip": "ym2612"
    },
    {
      "channel": 1,
      "note": 83,
      "start": 5.5561,
      "duration": 0.1334,
      "velocity": 100,
      "chip": "ym2612"
    },
    {
      "channel": 0,
      "note": 83,
      "start": 5.622,
      "duration": 0.1335,
      "velocity": 100,
      "chip": "ym2612"
    },
    {
      "channel": 1,
      "note": 83,
      "start": 5.6895,
      "duration": 0.1334,
      "velocity": 100,
      "chip": "ym2612"
    },
    {
      "channel": 0,
      "note": 83,
      "start": 5.7556,
      "duration": 0.1333,
      "velocity": 100,
      "chip": "ym2612"
    },
    {
      "channel": 1,
      "note": 83,
      "start": 5.8229,
      "duration": 0.1332,
      "velocity": 100,
      "chip": "ym2612"
    },
    {
      "channel": 0,
      "note": 83,
      "start": 5.8889,
      "duration": 0.1331,
      "velocity": 100,
      "chip": "ym2612"
    },
    {
      "channel": 4,
      "note": 86,
      "start": 5.8971,
      "duration": 0.2623,
      "velocity": 94,
      "chip": "ym2612"
    },
    {
      "channel": 1,
      "note": 83,
      "start": 5.9562,
      "duration": 0.1338,
      "velocity": 100,
      "chip": "ym2612"
    },
    {
      "channel": 0,
      "note": 83,
      "start": 6.022,
      "duration": 0.1334,
      "velocity": 100,
      "chip": "ym2612"
    },
    {
      "channel": 1,
      "note": 83,
      "start": 6.09,
      "duration": 0.1332,
      "velocity": 100,
      "chip": "ym2612"
    },
    {
      "channel": 0,
      "note": 83,
      "start": 6.1554,
      "duration": 0.1167,
      "velocity": 100,
      "chip": "ym2612"
    },
    {
      "channel": 4,
      "note": 87,
      "start": 6.1594,
      "duration": 0.1167,
      "velocity": 94,
      "chip": "ym2612"
    },
    {
      "channel": 1,
      "note": 83,
      "start": 6.2232,
      "duration": 0.0996,
      "velocity": 100,
      "chip": "ym2612"
    },
    {
      "channel": 0,
      "note": 83,
      "start": 6.272,
      "duration": 0.1169,
      "velocity": 100,
      "chip": "ym2612"
    },
    {
      "channel": 4,
      "note": 88,
      "start": 6.2761,
      "duration": 0.1173,
      "velocity": 94,
      "chip": "ym2612"
    },
    {
      "channel": 1,
      "note": 83,
      "start": 6.3229,
      "duration": 0.1167,
      "velocity": 100,
      "chip": "ym2612"
    },
    {
      "channel": 0,
      "note": 83,
      "start": 6.389,
      "duration": 0.1164,
      "velocity": 100,
      "chip": "ym2612"
    },
    {
      "channel": 4,
      "note": 94,
      "start": 6.3934,
      "duration": 0.116,
      "velocity": 94,
      "chip": "ym2612"
    },
    {
      "channel": 1,
      "note": 83,
      "start": 6.4395,
      "duration": 0.1333,
      "velocity": 100,
      "chip": "ym2612"
    },
    {
      "channel": 0,
      "note": 83,
      "start": 6.5054,
      "duration": 0.1169,
      "velocity": 100,
      "chip": "ym2612"
    },
    {
      "channel": 4,
      "note": 83,
      "start": 6.5094,
      "duration": 0.1173,
      "velocity": 94,
      "chip": "ym2612"
    },
    {
      "channel": 1,
      "note": 83,
      "start": 6.5729,
      "duration": 0.0999,
      "velocity": 100,
      "chip": "ym2612"
    },
    {
      "channel": 0,
      "note": 83,
      "start": 6.6223,
      "duration": 0.0996,
      "velocity": 100,
      "chip": "ym2612"
    },
    {
      "channel": 4,
      "note": 84,
      "start": 6.6267,
      "duration": 0.0993,
      "velocity": 94,
      "chip": "ym2612"
    },
    {
      "channel": 1,
      "note": 83,
      "start": 6.6729,
      "duration": 0.1166,
      "velocity": 100,
      "chip": "ym2612"
    },
    {
      "channel": 0,
      "note": 83,
      "start": 6.722,
      "duration": 0.133,
      "velocity": 100,
      "chip": "ym2612"
    },
    {
      "channel": 4,
      "note": 85,
      "start": 6.726,
      "duration": 0.1377,
      "velocity": 94,
      "chip": "ym2612"
    },
    {
      "channel": 1,
      "note": 83,
      "start": 6.7895,
      "duration": 0.3163,
      "velocity": 100,
      "chip": "ym2612"
    },
    {
      "channel": 0,
      "note": 83,
      "start": 6.8594,
      "duration": 0.4963,
      "velocity": 100,
      "chip": "ym2612"
    },
    {
      "channel": 4,
      "note": 78,
      "start": 6.8638,
      "duration": 0.25,
      "velocity": 94,
      "chip": "ym2612"
    },
    {
      "channel": 1,
      "note": 82,
      "start": 7.1104,
      "duration": 0.4795,
      "velocity": 100,
      "chip": "ym2612"
    },
    {
      "channel": 4,
      "note": 77,
      "start": 7.1138,
      "duration": 0.4789,
      "velocity": 94,
      "chip": "ym2612"
    },
    {
      "channel": 0,
      "note": 89,
      "start": 7.3557,
      "duration": 0.4667,
      "velocity": 100,
      "chip": "ym2612"
    },
    {
      "channel": 1,
      "note": 78,
      "start": 7.5899,
      "duration": 0.4669,
      "velocity": 100,
      "chip": "ym2612"
    },
    {
      "channel": 4,
      "note": 51,
      "start": 7.5973,
      "duration": 0.3288,
      "velocity": 74,
      "chip": "ym2612"
    },
    {
      "channel": 0,
      "note": 83,
      "start": 7.8225,
      "duration": 0.4499,
      "velocity": 100,
      "chip": "ym2612"
    },
    {
      "channel": 4,
      "note": 50,
      "start": 7.926,
      "duration": 0.5675,
      "velocity": 74,
      "chip": "ym2612"
    },
    {
      "channel": 1,
      "note": 82,
      "start": 8.0568,
      "duration": 0.4333,
      "velocity": 100,
      "chip": "ym2612"
    },
    {
      "channel": 0,
      "note": 89,
      "start": 8.2724,
      "duration": 0.4333,
      "velocity": 100,
      "chip": "ym2612"
    },
    {
      "channel": 1,
      "note": 78,
      "start": 8.4902,
      "duration": 0.4166,
      "velocity": 100,
      "chip": "ym2612"
    },
    {
      "channel": 4,
      "note": 49,
      "start": 8.4935,
      "duration": 0.7324,
      "velocity": 74,
      "chip": "ym2612"
    },
    {
      "channel": 0,
      "note": 83,
      "start": 8.7057,
      "duration": 0.4,
      "velocity": 100,
      "chip": "ym2612"
    },
    {
      "channel": 1,
      "note": 82,
      "start": 8.9067,
      "duration": 0.383,
      "velocity": 100,
      "chip": "ym2612"
    },
    {
      "channel": 0,
      "note": 89,
      "start": 9.1057,
      "duration": 0.3498,
      "velocity": 100,
      "chip": "ym2612"
    },
    {
      "channel": 4,
      "note": 48,
      "start": 9.226,
      "duration": 2.8044,
      "velocity": 74,
      "chip": "ym2612"
    },
    {
      "channel": 1,
      "note": 78,
      "start": 9.2897,
      "duration": 0.3334,
      "velocity": 100,
      "chip": "ym2612"
    },
    {
      "channel": 0,
      "note": 83,
      "start": 9.4555,
      "duration": 0.3333,
      "velocity": 100,
      "chip": "ym2612"
    },
    {
      "channel": 1,
      "note": 82,
      "start": 9.6231,
      "duration": 0.3333,
      "velocity": 100,
      "chip": "ym2612"
    },
    {
      "channel": 0,
      "note": 89,
      "start": 9.7889,
      "duration": 0.3335,
      "velocity": 100,
      "chip": "ym2612"
    },
    {
      "channel": 1,
      "note": 78,
      "start": 9.9565,
      "duration": 0.3332,
      "velocity": 100,
      "chip": "ym2612"
    },
    {
      "channel": 0,
      "note": 83,
      "start": 10.1224,
      "duration": 0.3331,
      "velocity": 100,
      "chip": "ym2612"
    },
    {
      "channel": 5,
      "note": 42,
      "start": 10.1316,
      "duration": 0.5286,
      "velocity": 103,
      "chip": "ym2612"
    },
    {
      "channel": 1,
      "note": 82,
      "start": 10.2897,
      "duration": 0.3334,
      "velocity": 100,
      "chip": "ym2612"
    },
    {
      "channel": 0,
      "note": 89,
      "start": 10.4555,
      "duration": 0.3167,
      "velocity": 100,
      "chip": "ym2612"
    },
    {
      "channel": 1,
      "note": 78,
      "start": 10.6231,
      "duration": 0.3,
      "velocity": 100,
      "chip": "ym2612"
    },
    {
      "channel": 5,
      "note": 42,
      "start": 10.6603,
      "duration": 0.3499,
      "velocity": 103,
      "chip": "ym2612"
    },
    {
      "channel": 0,
      "note": 83,
      "start": 10.7722,
      "duration": 0.2833,
      "velocity": 100,
      "chip": "ym2612"
    },
    {
      "channel": 1,
      "note": 82,
      "start": 10.9231,
      "duration": 0.2667,
      "velocity": 100,
      "chip": "ym2612"
    },
    {
      "channel": 5,
      "note": 42,
      "start": 11.0102,
      "duration": 0.2333,
      "velocity": 103,
      "chip": "ym2612"
    },
    {
      "channel": 0,
      "note": 89,
      "start": 11.0555,
      "duration": 0.2669,
      "velocity": 100,
      "chip": "ym2612"
    },
    {
      "channel": 1,
      "note": 78,
      "start": 11.1898,
      "duration": 0.2833,
      "velocity": 100,
      "chip": "ym2612"
    },
    {
      "channel": 5,
      "note": 42,
      "start": 11.2435,
      "duration": 0.1665,
      "velocity": 103,
      "chip": "ym2612"
    },
    {
      "channel": 0,
      "note": 83,
      "start": 11.3224,
      "duration": 0.3167,
      "velocity": 100,
      "chip": "ym2612"
    },
    {
      "channel": 5,
      "note": 42,
      "start": 11.4101,
      "duration": 0.2342,
      "velocity": 103,
      "chip": "ym2612"
    },
    {
      "channel": 1,
      "note": 82,
      "start": 11.4732,
      "duration": 0.3498,
      "velocity": 100,
      "chip": "ym2612"
    },
    {
      "channel": 0,
      "note": 89,
      "start": 11.6391,
      "duration": 0.3838,
      "velocity": 100,
      "chip": "ym2612"
    },
    {
      "channel": 5,
      "note": 42,
      "start": 11.6442,
      "duration": 0.1826,
      "velocity": 103,
      "chip": "ym2612"
    },
    {
      "channel": 1,
      "note": 78,
      "start": 11.823,
      "duration": 0.4166,
      "velocity": 100,
      "chip": "ym2612"
    },
    {
      "channel": 5,
      "note": 42,
      "start": 11.8268,
      "duration": 0.2327,
      "velocity": 103,
      "chip": "ym2612"
    },
    {
      "channel": 0,
      "note": 83,
      "start": 12.0229,
      "duration": 0.4495,
      "velocity": 100,
      "chip": "ym2612"
    },
    {
      "channel": 2,
      "note": 30,
      "start": 12.029,
      "duration": 0.2786,
      "velocity": 99,
      "chip": "ym2612"
    },
    {
      "channel": 4,
      "note": 35,
      "start": 12.0368,
      "duration": 0.2728,
      "velocity": 106,
      "chip": "ym2612"
    },
    {
      "channel": 5,
      "note": 35,
      "start": 12.0641,
      "duration": 0.3627,
      "velocity": 106,
      "chip": "ym2612"
    },
    {
      "channel": 3,
      "note": 30,
      "start": 12.1288,
      "duration": 0.2961,
      "velocity": 99,
      "chip": "ym2612"
    },
    {
      "channel": 1,
      "note": 82,
      "start": 12.2396,
      "duration": 0.4833,
      "velocity": 100,
      "chip": "ym2612"
    },
    {
      "channel": 2,
      "note": 31,
      "start": 12.3076,
      "duration": 0.3165,
      "velocity": 99,
      "chip": "ym2612"
    },
    {
      "channel": 4,
      "note": 43,
      "start": 12.3096,
      "duration": 0.1668,
      "velocity": 106,
      "chip": "ym2612"
    },
    {
      "channel": 3,
      "note": 31,
      "start": 12.4248,
      "duration": 0.35,
      "velocity": 99,
      "chip": "ym2612"
    },
    {
      "channel": 5,
      "note": 43,
      "start": 12.4269,
      "duration": 0.5671,
      "velocity": 106,
      "chip": "ym2612"
    },
    {
      "channel": 0,
      "note": 89,
      "start": 12.4724,
      "duration": 0.5169,
      "velocity": 100,
      "chip": "ym2612"
    },
    {
      "channel": 4,
      "note": 42,
      "start": 12.4765,
      "duration": 4.6182,
      "velocity": 106,
      "chip": "ym2612"
    },
    {
      "channel": 2,
      "note": 32,
      "start": 12.6241,
      "duration": 0.3675,
      "velocity": 99,
      "chip": "ym2612"
    },
    {
      "channel": 1,
      "note": 78,
      "start": 12.723,
      "duration": 0.3999,
      "velocity": 100,
      "chip": "ym2612"
    },
    {
      "channel": 3,
      "note": 32,
      "start": 12.7748,
      "duration": 0.2832,
      "velocity": 99,
      "chip": "ym2612"
    },
    {
      "channel": 0,
      "note": 83,
      "start": 12.9893,
      "duration": 0.1996,
      "velocity": 100,
      "chip": "ym2612"
    },
    {
      "channel": 2,
      "note": 24,
      "start": 12.9916,
      "duration": 0.3328,
      "velocity": 99,
      "chip": "ym2612"
    },
    {
      "channel": 5,
      "note": 35,
      "start": 12.9986,
      "duration": 4.1447,
      "velocity": 100,
      "chip": "ym2612"
    },
    {
      "channel": 3,
      "note": 24,
      "start": 13.058,
      "duration": 0.3334,
      "velocity": 99,
      "chip": "ym2612"
    },
    {
      "channel": 1,
      "note": 77,
      "start": 13.123,
      "duration": 0.2333,
      "velocity": 100,
      "chip": "ym2612"
    },
    {
      "channel": 0,
      "note": 77,
      "start": 13.189,
      "duration": 0.1334,
      "velocity": 100,
      "chip": "ym2612"
    },
    {
      "channel": 0,
      "note": 70,
      "start": 13.3224,
      "duration": 3.7508,
      "velocity": 100,
      "chip": "ym2612"
    },
    {
      "channel": 2,
      "note": 23,
      "start": 13.3244,
      "duration": 3.7587,
      "velocity": 99,
      "chip": "ym2612"
    },
    {
      "channel": 1,
      "note": 76,
      "start": 13.3563,
      "duration": 3.7219,
      "velocity": 100,
      "chip": "ym2612"
    },
    {
      "channel": 3,
      "note": 23,
      "start": 13.3914,
      "duration": 3.6983,
      "velocity": 99,
      "chip": "ym2612"
    },
    {
      "channel": 0,
      "note": 69,
      "start": 17.0778,
      "duration": 0.2443,
      "velocity": 74,
      "chip": "ym2612"
    },
    {
      "channel": 1,
      "note": 45,
      "start": 17.0828,
      "duration": 0.3405,
      "velocity": 95,
      "chip": "ym2612"
    },
    {
      "channel": 2,
      "note": 52,
      "start": 17.0893,
      "duration": 0.3017,
      "velocity": 94,
      "chip": "ym2612"
    },
    {
      "channel": 3,
      "note": 60,
      "start": 17.0944,
      "duration": 0.2977,
      "velocity": 74,
      "chip": "ym2612"
    },
    {
      "channel": 4,
      "note": 47,
      "start": 17.0993,
      "duration": 0.5766,
      "velocity": 92,
      "chip": "ym2612"
    },
    {
      "channel": 5,
      "note": 45,
      "start": 17.1479,
      "duration": 0.346,
      "velocity": 95,
      "chip": "ym2612"
    },
    {
      "channel": 0,
      "note": 72,
      "start": 17.6724,
      "duration": 0.2497,
      "velocity": 74,
      "chip": "ym2612"
    },
    {
      "channel": 1,
      "note": 48,
      "start": 17.6734,
      "duration": 0.3499,
      "velocity": 95,
      "chip": "ym2612"
    },
    {
      "channel": 2,
      "note": 57,
      "start": 17.6744,
      "duration": 0.3163,
      "velocity": 94,
      "chip": "ym2612"
    },
    {
      "channel": 3,
      "note": 64,
      "start": 17.6755,
      "duration": 0.3163,
      "velocity": 74,
      "chip": "ym2612"
    },
    {
      "channel": 4,
      "note": 38,
      "start": 17.6806,
      "duration": 0.5954,
      "velocity": 103,
      "chip": "ym2612"
    },
    {
      "channel": 5,
      "note": 48,
      "start": 17.744,
      "duration": 0.3499,
      "velocity": 95,
      "chip": "ym2612"
    },
    {
      "channel": 0,
      "note": 76,
      "start": 18.2724,
      "duration": 0.2497,
      "velocity": 74,
      "chip": "ym2612"
    },
    {
      "channel": 1,
      "note": 52,
      "start": 18.2734,
      "duration": 0.3497,
      "velocity": 95,
      "chip": "ym2612"
    },
    {
      "channel": 2,
      "note": 60,
      "start": 18.2744,
      "duration": 0.3164,
      "velocity": 94,
      "chip": "ym2612"
    },
    {
      "channel": 3,
      "note": 69,
      "start": 18.2755,
      "duration": 0.3163,
      "velocity": 74,
      "chip": "ym2612"
    },
    {
      "channel": 4,
      "note": 42,
      "start": 18.2806,
      "duration": 1.1955,
      "velocity": 100,
      "chip": "ym2612"
    },
    {
      "channel": 5,
      "note": 52,
      "start": 18.344,
      "duration": 0.3499,
      "velocity": 95,
      "chip": "ym2612"
    },
    {
      "channel": 0,
      "note": 78,
      "start": 19.4725,
      "duration": 0.1998,
      "velocity": 74,
      "chip": "ym2612"
    },
    {
      "channel": 1,
      "note": 53,
      "start": 19.4736,
      "duration": 0.1998,
      "velocity": 95,
      "chip": "ym2612"
    },
    {
      "channel": 2,
      "note": 62,
      "start": 19.4746,
      "duration": 0.3162,
      "velocity": 94,
      "chip": "ym2612"
    },
    {
      "channel": 3,
      "note": 65,
      "start": 19.4757,
      "duration": 0.3162,
      "velocity": 74,
      "chip": "ym2612"
    },
    {
      "channel": 4,
      "note": 52,
      "start": 19.4807,
      "duration": 0.5952,
      "velocity": 92,
      "chip": "ym2612"
    },
    {
      "channel": 5,
      "note": 54,
      "start": 19.544,
      "duration": 0.2,
      "velocity": 95,
      "chip": "ym2612"
    },
    {
      "channel": 0,
      "note": 77,
      "start": 19.6722,
      "duration": 0.2,
      "velocity": 74,
      "chip": "ym2612"
    },
    {
      "channel": 1,
      "note": 52,
      "start": 19.6733,
      "duration": 0.2,
      "velocity": 95,
      "chip": "ym2612"
    },
    {
      "channel": 5,
      "note": 53,
      "start": 19.744,
      "duration": 0.2,
      "velocity": 95,
      "chip": "ym2612"
    },
    {
      "channel": 0,
      "note": 75,
      "start": 19.8722,
      "duration": 0.2001,
      "velocity": 74,
      "chip": "ym2612"
    },
    {
      "channel": 1,
      "note": 50,
      "start": 19.8733,
      "duration": 0.2001,
      "velocity": 95,
      "chip": "ym2612"
    },
    {
      "channel": 5,
      "note": 51,
      "start": 19.944,
      "duration": 0.2,
      "velocity": 95,
      "chip": "ym2612"
    },
    {
      "channel": 0,
      "note": 82,
      "start": 20.0724,
      "duration": 0.2498,
      "velocity": 74,
      "chip": "ym2612"
    },
    {
      "channel": 1,
      "note": 57,
      "start": 20.0734,
      "duration": 0.2663,
      "velocity": 95,
      "chip": "ym2612"
    },
    {
      "channel": 2,
      "note": 64,
      "start": 20.0745,
      "duration": 0.3163,
      "velocity": 94,
      "chip": "ym2612"
    },
    {
      "channel": 3,
      "note": 69,
      "start": 20.0755,
      "duration": 0.3164,
      "velocity": 74,
      "chip": "ym2612"
    },
    {
      "channel": 4,
      "note": 43,
      "start": 20.0806,
      "duration": 0.5961,
      "velocity": 100,
      "chip": "ym2612"
    },
    {
      "channel": 5,
      "note": 58,
      "start": 20.144,
      "duration": 0.2333,
      "velocity": 95,
      "chip": "ym2612"
    },
    {
      "channel": 0,
      "note": 75,
      "start": 20.4723,
      "duration": 0.2001,
      "velocity": 74,
      "chip": "ym2612"
    },
    {
      "channel": 1,
      "note": 50,
      "start": 20.4733,
      "duration": 0.2001,
      "velocity": 95,
      "chip": "ym2612"
    },
    {
      "channel": 5,
      "note": 51,
      "start": 20.5439,
      "duration": 0.2,
      "velocity": 95,
      "chip": "ym2612"
    },
    {
      "channel": 0,
      "note": 77,
      "start": 20.6724,
      "duration": 0.2497,
      "velocity": 74,
      "chip": "ym2612"
    },
    {
      "channel": 1,
      "note": 52,
      "start": 20.6734,
      "duration": 0.2663,
      "velocity": 95,
      "chip": "ym2612"
    },
    {
      "channel": 2,
      "note": 60,
      "start": 20.6745,
      "duration": 0.3163,
      "velocity": 94,
      "chip": "ym2612"
    },
    {
      "channel": 3,
      "note": 64,
      "start": 20.6755,
      "duration": 0.3164,
      "velocity": 74,
      "chip": "ym2612"
    },
    {
      "channel": 4,
      "note": 47,
      "start": 20.6766,
      "duration": 1.2134,
      "velocity": 100,
      "chip": "ym2612"
    },
    {
      "channel": 5,
      "note": 53,
      "start": 20.7439,
      "duration": 0.2334,
      "velocity": 95,
      "chip": "ym2612"
    },
    {
      "channel": 0,
      "note": 79,
      "start": 21.8771,
      "duration": 0.1951,
      "velocity": 100,
      "chip": "ym2612"
    },
    {
      "channel": 1,
      "note": 72,
      "start": 21.882,
      "duration": 0.1912,
      "velocity": 94,
      "chip": "ym2612"
    },
    {
      "channel": 2,
      "note": 64,
      "start": 21.8886,
      "duration": 0.5857,
      "velocity": 89,
      "chip": "ym2612"
    },
    {
      "channel": 4,
      "note": 52,
      "start": 21.8947,
      "duration": 0.5812,
      "velocity": 92,
      "chip": "ym2612"
    },
    {
      "channel": 5,
      "note": 72,
      "start": 21.9479,
      "duration": 0.1961,
      "velocity": 94,
      "chip": "ym2612"
    },
    {
      "channel": 3,
      "note": 64,
      "start": 21.9793,
      "duration": 0.596,
      "velocity": 89,
      "chip": "ym2612"
    },
    {
      "channel": 0,
      "note": 78,
      "start": 22.0722,
      "duration": 0.2,
      "velocity": 100,
      "chip": "ym2612"
    },
    {
      "channel": 1,
      "note": 71,
      "start": 22.0732,
      "duration": 0.2,
      "velocity": 94,
      "chip": "ym2612"
    },
    {
      "channel": 5,
      "note": 71,
      "start": 22.1439,
      "duration": 0.1999,
      "velocity": 94,
      "chip": "ym2612"
    },
    {
      "channel": 0,
      "note": 76,
      "start": 22.2722,
      "duration": 0.2001,
      "velocity": 100,
      "chip": "ym2612"
    },
    {
      "channel": 1,
      "note": 69,
      "start": 22.2732,
      "duration": 0.2001,
      "velocity": 94,
      "chip": "ym2612"
    },
    {
      "channel": 5,
      "note": 69,
      "start": 22.3438,
      "duration": 0.2001,
      "velocity": 94,
      "chip": "ym2612"
    },
    {
      "channel": 0,
      "note": 83,
      "start": 22.4723,
      "duration": 0.3999,
      "velocity": 100,
      "chip": "ym2612"
    },
    {
      "channel": 1,
      "note": 76,
      "start": 22.4734,
      "duration": 0.3998,
      "velocity": 94,
      "chip": "ym2612"
    },
    {
      "channel": 2,
      "note": 63,
      "start": 22.4744,
      "duration": 0.6,
      "velocity": 89,
      "chip": "ym2612"
    },
    {
      "channel": 4,
      "note": 43,
      "start": 22.4805,
      "duration": 0.5954,
      "velocity": 100,
      "chip": "ym2612"
    },
    {
      "channel": 5,
      "note": 76,
      "start": 22.5439,
      "duration": 0.4,
      "velocity": 94,
      "chip": "ym2612"
    },
    {
      "channel": 3,
      "note": 63,
      "start": 22.5754,
      "duration": 0.6,
      "velocity": 89,
      "chip": "ym2612"
    },
    {
      "channel": 0,
      "note": 76,
      "start": 22.8722,
      "duration": 0.2001,
      "velocity": 100,
      "chip": "ym2612"
    },
    {
      "channel": 1,
      "note": 69,
      "start": 22.8732,
      "duration": 0.2001,
      "velocity": 94,
      "chip": "ym2612"
    },
    {
      "channel": 5,
      "note": 69,
      "start": 22.9439,
      "duration": 0.2,
      "velocity": 94,
      "chip": "ym2612"
    },
    {
      "channel": 0,
      "note": 79,
      "start": 23.0723,
      "duration": 0.1999,
      "velocity": 100,
      "chip": "ym2612"
    },
    {
      "channel": 1,
      "note": 72,
      "start": 23.0734,
      "duration": 0.1999,
      "velocity": 94,
      "chip": "ym2612"
    },
    {
      "channel": 2,
      "note": 64,
      "start": 23.0744,
      "duration": 0.6,
      "velocity": 89,
      "chip": "ym2612"
    },
    {
      "channel": 4,
      "note": 49,
      "start": 23.0805,
      "duration": 0.5954,
      "velocity": 92,
      "chip": "ym2612"
    },
    {
      "channel": 5,
      "note": 72,
      "start": 23.1439,
      "duration": 0.2,
      "velocity": 94,
      "chip": "ym2612"
    },
    {
      "channel": 3,
      "note": 64,
      "start": 23.1754,
      "duration": 0.6,
      "velocity": 89,
      "chip": "ym2612"
    },
    {
      "channel": 0,
      "note": 78,
      "start": 23.2722,
      "duration": 0.2,
      "velocity": 100,
      "chip": "ym2612"
    },
    {
      "channel": 1,
      "note": 71,
      "start": 23.2732,
      "duration": 0.1999,
      "velocity": 94,
      "chip": "ym2612"
    },
    {
      "channel": 5,
      "note": 71,
      "start": 23.3439,
      "duration": 0.1999,
      "velocity": 94,
      "chip": "ym2612"
    },
    {
      "channel": 0,
      "note": 77,
      "start": 23.4722,
      "duration": 0.2001,
      "velocity": 100,
      "chip": "ym2612"
    },
    {
      "channel": 1,
      "note": 70,
      "start": 23.4732,
      "duration": 0.2001,
      "velocity": 94,
      "chip": "ym2612"
    },
    {
      "channel": 5,
      "note": 70,
      "start": 23.5438,
      "duration": 0.2001,
      "velocity": 94,
      "chip": "ym2612"
    },
    {
      "channel": 0,
      "note": 86,
      "start": 23.6723,
      "duration": 0.3999,
      "velocity": 100,
      "chip": "ym2612"
    },
    {
      "channel": 1,
      "note": 79,
      "start": 23.6734,
      "duration": 0.3999,
      "velocity": 94,
      "chip": "ym2612"
    },
    {
      "channel": 2,
      "note": 65,
      "start": 23.6744,
      "duration": 0.6,
      "velocity": 89,
      "chip": "ym2612"
    },
    {
      "channel": 4,
      "note": 49,
      "start": 23.6804,
      "duration": 0.5955,
      "velocity": 103,
      "chip": "ym2612"
    },
    {
      "channel": 5,
      "note": 79,
      "start": 23.7439,
      "duration": 0.4,
      "velocity": 94,
      "chip": "ym2612"
    },
    {
      "channel": 3,
      "note": 65,
      "start": 23.7754,
      "duration": 0.5999,
      "velocity": 89,
      "chip": "ym2612"
    },
    {
      "channel": 0,
      "note": 80,
      "start": 24.0722,
      "duration": 0.2001,
      "velocity": 100,
      "chip": "ym2612"
    },
    {
      "channel": 1,
      "note": 73,
      "start": 24.0732,
      "duration": 0.2001,
      "velocity": 94,
      "chip": "ym2612"
    },
    {
      "channel": 5,
      "note": 73,
      "start": 24.1439,
      "duration": 0.2,
      "velocity": 94,
      "chip": "ym2612"
    },
    {
      "channel": 0,
      "note": 85,
      "start": 24.2723,
      "duration": 0.1999,
      "velocity": 100,
      "chip": "ym2612"
    },
    {
      "channel": 1,
      "note": 78,
      "start": 24.2734,
      "duration": 0.1999,
      "velocity": 94,
      "chip": "ym2612"
    },
    {
      "channel": 2,
      "note": 66,
      "start": 24.2744,
      "duration": 1.2038,
      "velocity": 89,
      "chip": "ym2612"
    },
    {
      "channel": 4,
      "note": 54,
      "start": 24.2805,
      "duration": 1.2056,
      "velocity": 92,
      "chip": "ym2612"
    },
    {
      "channel": 5,
      "note": 78,
      "start": 24.3439,
      "duration": 0.2,
      "velocity": 94,
      "chip": "ym2612"
    },
    {
      "channel": 3,
      "note": 66,
      "start": 24.3753,
      "duration": 1.2494,
      "velocity": 89,
      "chip": "ym2612"
    },
    {
      "channel": 0,
      "note": 85,
      "start": 24.4722,
      "duration": 0.2,
      "velocity": 100,
      "chip": "ym2612"
    },
    {
      "channel": 1,
      "note": 78,
      "start": 24.4732,
      "duration": 0.2,
      "velocity": 94,
      "chip": "ym2612"
    },
    {
      "channel": 5,
      "note": 78,
      "start": 24.5439,
      "duration": 0.1999,
      "velocity": 94,
      "chip": "ym2612"
    },
    {
      "channel": 0,
      "note": 85,
      "start": 24.6722,
      "duration": 0.1996,
      "velocity": 100,
      "chip": "ym2612"
    },
    {
      "channel": 1,
      "note": 78,
      "start": 24.6732,
      "duration": 0.2041,
      "velocity": 94,
      "chip": "ym2612"
    },
    {
      "channel": 5,
      "note": 78,
      "start": 24.7438,
      "duration": 0.2001,
      "velocity": 94,
      "chip": "ym2612"
    },
    {
      "channel": 0,
      "note": 85,
      "start": 24.8763,
      "duration": 1.1955,
      "velocity": 100,
      "chip": "ym2612"
    },
    {
      "channel": 1,
      "note": 78,
      "start": 24.8773,
      "duration": 0.5959,
      "velocity": 94,
      "chip": "ym2612"
    },
    {
      "channel": 5,
      "note": 78,
      "start": 24.944,
      "duration": 0.5993,
      "velocity": 94,
      "chip": "ym2612"
    },
    {
      "channel": 1,
      "note": 54,
      "start": 25.4779,
      "duration": 0.2955,
      "velocity": 95,
      "chip": "ym2612"
    },
    {
      "channel": 2,
      "note": 66,
      "start": 25.4829,
      "duration": 0.2916,
      "velocity": 82,
      "chip": "ym2612"
    },
    {
      "channel": 4,
      "note": 66,
      "start": 25.4907,
      "duration": 0.2022,
      "velocity": 74,
      "chip": "ym2612"
    },
    {
      "channel": 5,
      "note": 54,
      "start": 25.5479,
      "duration": 0.2959,
      "velocity": 92,
      "chip": "ym2612"
    },
    {
      "channel": 3,
      "note": 68,
      "start": 25.6293,
      "duration": 0.296,
      "velocity": 82,
      "chip": "ym2612"
    },
    {
      "channel": 1,
      "note": 52,
      "start": 25.7734,
      "duration": 0.3039,
      "velocity": 95,
      "chip": "ym2612"
    },
    {
      "channel": 2,
      "note": 70,
      "start": 25.7745,
      "duration": 0.3039,
      "velocity": 82,
      "chip": "ym2612"
    },
    {
      "channel": 4,
      "note": 64,
      "start": 25.7766,
      "duration": 0.2162,
      "velocity": 74,
      "chip": "ym2612"
    },
    {
      "channel": 5,
      "note": 52,
      "start": 25.8439,
      "duration": 0.3001,
      "velocity": 92,
      "chip": "ym2612"
    },
    {
      "channel": 3,
      "note": 71,
      "start": 25.9253,
      "duration": 0.3001,
      "velocity": 82,
      "chip": "ym2612"
    },
    {
      "channel": 0,
      "note": 78,
      "start": 26.0763,
      "duration": 0.296,
      "velocity": 100,
      "chip": "ym2612"
    },
    {
      "channel": 1,
      "note": 50,
      "start": 26.0774,
      "duration": 0.2959,
      "velocity": 95,
      "chip": "ym2612"
    },
    {
      "channel": 2,
      "note": 73,
      "start": 26.0784,
      "duration": 0.296,
      "velocity": 82,
      "chip": "ym2612"
    },
    {
      "channel": 4,
      "note": 62,
      "start": 26.0805,
      "duration": 0.2124,
      "velocity": 74,
      "chip": "ym2612"
    },
    {
      "channel": 5,
      "note": 50,
      "start": 26.144,
      "duration": 0.2999,
      "velocity": 92,
      "chip": "ym2612"
    },
    {
      "channel": 3,
      "note": 74,
      "start": 26.2254,
      "duration": 0.2999,
      "velocity": 82,
      "chip": "ym2612"
    },
    {
      "channel": 0,
      "note": 78,
      "start": 26.3723,
      "duration": 0.2998,
      "velocity": 100,
      "chip": "ym2612"
    },
    {
      "channel": 1,
      "note": 49,
      "start": 26.3733,
      "duration": 0.3043,
      "velocity": 95,
      "chip": "ym2612"
    },
    {
      "channel": 2,
      "note": 76,
      "start": 26.3744,
      "duration": 0.3043,
      "velocity": 82,
      "chip": "ym2612"
    },
    {
      "channel": 4,
      "note": 61,
      "start": 26.3765,
      "duration": 0.2163,
      "velocity": 74,
      "chip": "ym2612"
    },
    {
      "channel": 5,
      "note": 49,
      "start": 26.4439,
      "duration": 0.2429,
      "velocity": 92,
      "chip": "ym2612"
    },
    {
      "channel": 3,
      "note": 78,
      "start": 26.5253,
      "duration": 0.2999,
      "velocity": 82,
      "chip": "ym2612"
    },
    {
      "channel": 0,
      "note": 78,
      "start": 26.6766,
      "duration": 4.1952,
      "velocity": 100,
      "chip": "ym2612"
    },
    {
      "channel": 1,
      "note": 42,
      "start": 26.6776,
      "duration": 4.1998,
      "velocity": 95,
      "chip": "ym2612"
    },
    {
      "channel": 2,
      "note": 85,
      "start": 26.6786,
      "duration": 0.2957,
      "velocity": 82,
      "chip": "ym2612"
    },
    {
      "channel": 4,
      "note": 66,
      "start": 26.6866,
      "duration": 0.2901,
      "velocity": 100,
      "chip": "ym2612"
    },
    {
      "channel": 5,
      "note": 42,
      "start": 26.6913,
      "duration": 3.886,
      "velocity": 100,
      "chip": "ym2612"
    },
    {
      "channel": 3,
      "note": 79,
      "start": 26.8252,
      "duration": 0.3001,
      "velocity": 82,
      "chip": "ym2612"
    },
    {
      "channel": 2,
      "note": 82,
      "start": 26.9744,
      "duration": 0.2998,
      "velocity": 82,
      "chip": "ym2612"
    },
    {
      "channel": 4,
      "note": 54,
      "start": 26.9767,
      "duration": 0.5996,
      "velocity": 100,
      "chip": "ym2612"
    },
    {
      "channel": 3,
      "note": 76,
      "start": 27.1253,
      "duration": 0.3001,
      "velocity": 82,
      "chip": "ym2612"
    },
    {
      "channel": 2,
      "note": 85,
      "start": 27.2742,
      "duration": 0.2999,
      "velocity": 82,
      "chip": "ym2612"
    },
    {
      "channel": 3,
      "note": 79,
      "start": 27.4254,
      "duration": 0.2999,
      "velocity": 82,
      "chip": "ym2612"
    },
    {
      "channel": 2,
      "note": 82,
      "start": 27.5741,
      "duration": 0.3002,
      "velocity": 82,
      "chip": "ym2612"
    },
    {
      "channel": 4,
      "note": 42,
      "start": 27.5762,
      "duration": 0.2995,
      "velocity": 100,
      "chip": "ym2612"
    },
    {
      "channel": 3,
      "note": 76,
      "start": 27.7253,
      "duration": 0.2999,
      "velocity": 82,
      "chip": "ym2612"
    },
    {
      "channel": 2,
      "note": 84,
      "start": 27.8743,
      "duration": 0.2999,
      "velocity": 82,
      "chip": "ym2612"
    },
    {
      "channel": 4,
      "note": 54,
      "start": 27.8804,
      "duration": 0.596,
      "velocity": 92,
      "chip": "ym2612"
    },
    {
      "channel": 3,
      "note": 78,
      "start": 28.0252,
      "duration": 0.3001,
      "velocity": 82,
      "chip": "ym2612"
    },
    {
      "channel": 2,
      "note": 81,
      "start": 28.1743,
      "duration": 0.3001,
      "velocity": 82,
      "chip": "ym2612"
    },
    {
      "channel": 3,
      "note": 75,
      "start": 28.3254,
      "duration": 0.2999,
      "velocity": 82,
      "chip": "ym2612"
    },
    {
      "channel": 2,
      "note": 84,
      "start": 28.4744,
      "duration": 0.2999,
      "velocity": 82,
      "chip": "ym2612"
    },
    {
      "channel": 4,
      "note": 42,
      "start": 28.4765,
      "duration": 0.5994,
      "velocity": 92,
      "chip": "ym2612"
    },
    {
      "channel": 3,
      "note": 78,
      "start": 28.6253,
      "duration": 0.3,
      "velocity": 82,
      "chip": "ym2612"
    },
    {
      "channel": 2,
      "note": 81,
      "start": 28.7743,
      "duration": 0.3001,
      "velocity": 82,
      "chip": "ym2612"
    },
    {
      "channel": 3,
      "note": 75,
      "start": 28.9254,
      "duration": 0.2999,
      "velocity": 82,
      "chip": "ym2612"
    },
    {
      "channel": 2,
      "note": 89,
      "start": 29.0745,
      "duration": 0.2999,
      "velocity": 82,
      "chip": "ym2612"
    },
    {
      "channel": 4,
      "note": 66,
      "start": 29.0806,
      "duration": 0.2961,
      "velocity": 100,
      "chip": "ym2612"
    },
    {
      "channel": 3,
      "note": 83,
      "start": 29.2253,
      "duration": 0.3001,
      "velocity": 82,
      "chip": "ym2612"
    },
    {
      "channel": 2,
      "note": 86,
      "start": 29.3744,
      "duration": 0.2998,
      "velocity": 82,
      "chip": "ym2612"
    },
    {
      "channel": 4,
      "note": 54,
      "start": 29.3767,
      "duration": 0.5998,
      "velocity": 100,
      "chip": "ym2612"
    },
    {
      "channel": 3,
      "note": 80,
      "start": 29.5254,
      "duration": 0.2999,
      "velocity": 82,
      "chip": "ym2612"
    },
    {
      "channel": 2,
      "note": 89,
      "start": 29.6743,
      "duration": 0.3001,
      "velocity": 82,
      "chip": "ym2612"
    },
    {
      "channel": 3,
      "note": 83,
      "start": 29.8253,
      "duration": 0.3001,
      "velocity": 82,
      "chip": "ym2612"
    },
    {
      "channel": 2,
      "note": 86,
      "start": 29.9743,
      "duration": 0.3004,
      "velocity": 82,
      "chip": "ym2612"
    },
    {
      "channel": 4,
      "note": 42,
      "start": 29.9764,
      "duration": 0.2998,
      "velocity": 100,
      "chip": "ym2612"
    },
    {
      "channel": 3,
      "note": 80,
      "start": 30.1254,
      "duration": 0.2999,
      "velocity": 82,
      "chip": "ym2612"
    },
    {
      "channel": 2,
      "note": 88,
      "start": 30.2748,
      "duration": 0.2996,
      "velocity": 82,
      "chip": "ym2612"
    },
    {
      "channel": 4,
      "note": 54,
      "start": 30.2809,
      "duration": 0.5997,
      "velocity": 92,
      "chip": "ym2612"
    },
    {
      "channel": 3,
      "note": 82,
      "start": 30.4253,
      "duration": 0.3001,
      "velocity": 82,
      "chip": "ym2612"
    },
    {
      "channel": 2,
      "note": 85,
      "start": 30.5743,
      "duration": 0.3041,
      "velocity": 82,
      "chip": "ym2612"
    },
    {
      "channel": 3,
      "note": 79,
      "start": 30.7254,
      "duration": 0.2999,
      "velocity": 82,
      "chip": "ym2612"
    },
    {
      "channel": 0,
      "note": 78,
      "start": 30.8764,
      "duration": 0.2958,
      "velocity": 100,
      "chip": "ym2612"
    },
    {
      "channel": 1,
      "note": 42,
      "start": 30.8774,
      "duration": 0.2958,
      "velocity": 95,
      "chip": "ym2612"
    },
    {
      "channel": 2,
      "note": 88,
      "start": 30.8785,
      "duration": 0.2959,
      "velocity": 82,
      "chip": "ym2612"
    },
    {
      "channel": 4,
      "note": 42,
      "start": 30.8806,
      "duration": 0.5994,
      "velocity": 92,
      "chip": "ym2612"
    },
    {
      "channel": 5,
      "note": 42,
      "start": 30.8872,
      "duration": 0.2902,
      "velocity": 100,
      "chip": "ym2612"
    },
    {
      "channel": 3,
      "note": 82,
      "start": 31.0253,
      "duration": 0.2999,
      "velocity": 82,
      "chip": "ym2612"
    },
    {
      "channel": 0,
      "note": 78,
      "start": 31.1722,
      "duration": 0.2996,
      "velocity": 100,
      "chip": "ym2612"
    },
    {
      "channel": 1,
      "note": 42,
      "start": 31.1733,
      "duration": 0.3041,
      "velocity": 95,
      "chip": "ym2612"
    },
    {
      "channel": 2,
      "note": 85,
      "start": 31.1743,
      "duration": 0.3041,
      "velocity": 82,
      "chip": "ym2612"
    },
    {
      "channel": 5,
      "note": 42,
      "start": 31.1774,
      "duration": 0.3093,
      "velocity": 100,
      "chip": "ym2612"
    },
    {
      "channel": 3,
      "note": 79,
      "start": 31.3252,
      "duration": 0.3001,
      "velocity": 82,
      "chip": "ym2612"
    },
    {
      "channel": 0,
      "note": 78,
      "start": 31.4764,
      "duration": 4.7963,
      "velocity": 100,
      "chip": "ym2612"
    },
    {
      "channel": 1,
      "note": 42,
      "start": 31.4774,
      "duration": 3.5964,
      "velocity": 95,
      "chip": "ym2612"
    },
    {
      "channel": 2,
      "note": 92,
      "start": 31.4785,
      "duration": 0.2959,
      "velocity": 82,
      "chip": "ym2612"
    },
    {
      "channel": 4,
      "note": 66,
      "start": 31.4865,
      "duration": 0.2902,
      "velocity": 100,
      "chip": "ym2612"
    },
    {
      "channel": 5,
      "note": 42,
      "start": 31.4912,
      "duration": 4.8522,
      "velocity": 100,
      "chip": "ym2612"
    },
    {
      "channel": 3,
      "note": 86,
      "start": 31.6253,
      "duration": 0.2999,
      "velocity": 82,
      "chip": "ym2612"
    },
    {
      "channel": 2,
      "note": 89,
      "start": 31.7743,
      "duration": 0.2999,
      "velocity": 82,
      "chip": "ym2612"
    },
    {
      "channel": 4,
      "note": 54,
      "start": 31.7766,
      "duration": 0.5997,
      "velocity": 100,
      "chip": "ym2612"
    },
    {
      "channel": 3,
      "note": 83,
      "start": 31.9252,
      "duration": 0.3001,
      "velocity": 82,
      "chip": "ym2612"
    },
    {
      "channel": 2,
      "note": 92,
      "start": 32.0743,
      "duration": 0.2999,
      "velocity": 82,
      "chip": "ym2612"
    },
    {
      "channel": 3,
      "note": 86,
      "start": 32.2253,
      "duration": 0.2999,
      "velocity": 82,
      "chip": "ym2612"
    },
    {
      "channel": 2,
      "note": 89,
      "start": 32.3742,
      "duration": 0.3002,
      "velocity": 82,
      "chip": "ym2612"
    },
    {
      "channel": 4,
      "note": 42,
      "start": 32.3763,
      "duration": 0.2995,
      "velocity": 100,
      "chip": "ym2612"
    },
    {
      "channel": 3,
      "note": 83,
      "start": 32.5252,
      "duration": 0.3001,
      "velocity": 82,
      "chip": "ym2612"
    },
    {
      "channel": 2,
      "note": 91,
      "start": 32.6744,
      "duration": 0.2998,
      "velocity": 82,
      "chip": "ym2612"
    },
    {
      "channel": 4,
      "note": 54,
      "start": 32.6805,
      "duration": 0.5959,
      "velocity": 92,
      "chip": "ym2612"
    },
    {
      "channel": 3,
      "note": 85,
      "start": 32.8254,
      "duration": 0.2999,
      "velocity": 82,
      "chip": "ym2612"
    },
    {
      "channel": 2,
      "note": 88,
      "start": 32.9743,
      "duration": 0.3,
      "velocity": 82,
      "chip": "ym2612"
    },
    {
      "channel": 3,
      "note": 82,
      "start": 33.1253,
      "duration": 0.3,
      "velocity": 82,
      "chip": "ym2612"
    },
    {
      "channel": 2,
      "note": 91,
      "start": 33.2743,
      "duration": 0.2999,
      "velocity": 82,
      "chip": "ym2612"
    },
    {
      "channel": 4,
      "note": 42,
      "start": 33.2764,
      "duration": 0.5994,
      "velocity": 92,
      "chip": "ym2612"
    },
    {
      "channel": 3,
      "note": 85,
      "start": 33.4254,
      "duration": 0.2999,
      "velocity": 82,
      "chip": "ym2612"
    },
    {
      "channel": 2,
      "note": 88,
      "start": 33.5743,
      "duration": 0.3002,
      "velocity": 82,
      "chip": "ym2612"
    },
    {
      "channel": 3,
      "note": 82,
      "start": 33.7253,
      "duration": 0.3001,
      "velocity": 82,
      "chip": "ym2612"
    },
    {
      "channel": 2,
      "note": 97,
      "start": 33.8744,
      "duration": 0.2999,
      "velocity": 82,
      "chip": "ym2612"
    },
    {
      "channel": 4,
      "note": 66,
      "start": 33.8805,
      "duration": 0.2961,
      "velocity": 100,
      "chip": "ym2612"
    },
    {
      "channel": 3,
      "note": 91,
      "start": 34.0254,
      "duration": 0.2999,
      "velocity": 82,
      "chip": "ym2612"
    },
    {
      "channel": 2,
      "note": 94,
      "start": 34.1744,
      "duration": 0.3,
      "velocity": 82,
      "chip": "ym2612"
    },
    {
      "channel": 4,
      "note": 54,
      "start": 34.1766,
      "duration": 0.5997,
      "velocity": 100,
      "chip": "ym2612"
    },
    {
      "channel": 3,
      "note": 88,
      "start": 34.3253,
      "duration": 0.3001,
      "velocity": 82,
      "chip": "ym2612"
    },
    {
      "channel": 2,
      "note": 97,
      "start": 34.4743,
      "duration": 0.2999,
      "velocity": 82,
      "chip": "ym2612"
    },
    {
      "channel": 3,
      "note": 92,
      "start": 34.6254,
      "duration": 0.2999,
      "velocity": 82,
      "chip": "ym2612"
    },
    {
      "channel": 2,
      "note": 95,
      "start": 34.7743,
      "duration": 0.3006,
      "velocity": 82,
      "chip": "ym2612"
    },
    {
      "channel": 4,
      "note": 42,
      "start": 34.7763,
      "duration": 0.3,
      "velocity": 100,
      "chip": "ym2612"
    },
    {
      "channel": 3,
      "note": 89,
      "start": 34.9253,
      "duration": 0.3001,
      "velocity": 82,
      "chip": "ym2612"
    },
    {
      "channel": 1,
      "note": 54,
      "start": 35.0738,
      "duration": 0.2995,
      "velocity": 95,
      "chip": "ym2612"
    },
    {
      "channel": 2,
      "note": 97,
      "start": 35.0748,
      "duration": 0.2995,
      "velocity": 82,
      "chip": "ym2612"
    },
    {
      "channel": 4,
      "note": 54,
      "start": 35.0809,
      "duration": 0.2956,
      "velocity": 92,
      "chip": "ym2612"
    },
    {
      "channel": 3,
      "note": 94,
      "start": 35.2254,
      "duration": 0.2999,
      "velocity": 82,
      "chip": "ym2612"
    },
    {
      "channel": 1,
      "note": 52,
      "start": 35.3734,
      "duration": 0.2999,
      "velocity": 95,
      "chip": "ym2612"
    },
    {
      "channel": 2,
      "note": 90,
      "start": 35.3744,
      "duration": 0.3,
      "velocity": 82,
      "chip": "ym2612"
    },
    {
      "channel": 4,
      "note": 52,
      "start": 35.3765,
      "duration": 0.2999,
      "velocity": 92,
      "chip": "ym2612"
    },
    {
      "channel": 3,
      "note": 88,
      "start": 35.5253,
      "duration": 0.2999,
      "velocity": 82,
      "chip": "ym2612"
    },
    {
      "channel": 1,
      "note": 50,
      "start": 35.6733,
      "duration": 0.3004,
      "velocity": 95,
      "chip": "ym2612"
    },
    {
      "channel": 2,
      "note": 85,
      "start": 35.6743,
      "duration": 0.3004,
      "velocity": 82,
      "chip": "ym2612"
    },
    {
      "channel": 4,
      "note": 50,
      "start": 35.6764,
      "duration": 0.3005,
      "velocity": 92,
      "chip": "ym2612"
    },
    {
      "channel": 3,
      "note": 82,
      "start": 35.8252,
      "duration": 0.4586,
      "velocity": 82,
      "chip": "ym2612"
    },
    {
      "channel": 1,
      "note": 49,
      "start": 35.9737,
      "duration": 0.3047,
      "velocity": 95,
      "chip": "ym2612"
    },
    {
      "channel": 2,
      "note": 78,
      "start": 35.9748,
      "duration": 0.304,
      "velocity": 82,
      "chip": "ym2612"
    },
    {
      "channel": 4,
      "note": 49,
      "start": 35.9769,
      "duration": 0.3143,
      "velocity": 92,
      "chip": "ym2612"
    },
    {
      "channel": 0,
      "note": 69,
      "start": 36.2773,
      "duration": 0.2448,
      "velocity": 74,
      "chip": "ym2612"
    },
    {
      "channel": 1,
      "note": 45,
      "start": 36.2785,
      "duration": 0.3446,
      "velocity": 95,
      "chip": "ym2612"
    },
    {
      "channel": 2,
      "note": 52,
      "start": 36.2835,
      "duration": 0.3074,
      "velocity": 94,
      "chip": "ym2612"
    },
    {
      "channel": 3,
      "note": 60,
      "start": 36.29,
      "duration": 0.3018,
      "velocity": 74,
      "chip": "ym2612"
    },
    {
      "channel": 4,
      "note": 47,
      "start": 36.2912,
      "duration": 0.5847,
      "velocity": 92,
      "chip": "ym2612"
    },
    {
      "channel": 5,
      "note": 45,
      "start": 36.348,
      "duration": 0.346,
      "velocity": 95,
      "chip": "ym2612"
    },
    {
      "channel": 0,
      "note": 72,
      "start": 36.8724,
      "duration": 0.0083,
      "velocity": 74,
      "chip": "ym2612"
    },
    {
      "channel": 1,
      "note": 48,
      "start": 36.8734,
      "duration": 0.0072,
      "velocity": 95,
      "chip": "ym2612"
    },
    {
      "channel": 2,
      "note": 57,
      "start": 36.8745,
      "duration": 0.0061,
      "velocity": 94,
      "chip": "ym2612"
    },
    {
      "channel": 3,
      "note": 64,
      "start": 36.8755,
      "duration": 0.0051,
      "velocity": 74,
      "chip": "ym2612"
    },
    {
      "channel": 4,
      "note": 38,
      "start": 36.8806,
      "duration": 0.0,
      "velocity": 103,
      "chip": "ym2612"
    }
  ]
}