{
  "track_name": "24 - Halitosis the Dragon",
  "duration_sec": 35.244,
  "sample_rate": 44100,
  "note_count": 760,
  "unique_pitches": 55,
  "pitch_range": 75,
  "avg_note_duration": 0.1846,
  "reconstruction_stats": {
    "notes_reconstructed": 760,
    "keyon_events": 760,
    "keyoff_events": 736,
    "orphan_keyons": 4,
    "unique_pitches": 55,
    "pitch_range": 75,
    "avg_duration_sec": 0.1846
  },
  "metadata": {
    "source": "P\\Puggsy\\24 - Halitosis the Dragon.vgz"
  },
  "notes": [
    {
      "channel": 0,
      "note": 53,
      "start": 0.0524,
      "duration": 0.0844,
      "velocity": 103,
      "chip": "ym2612"
    },
    {
      "channel": 2,
      "note": 55,
      "start": 0.0547,
      "duration": 0.3612,
      "velocity": 96,
      "chip": "ym2612"
    },
    {
      "channel": 3,
      "note": 31,
      "start": 0.0568,
      "duration": 0.0807,
      "velocity": 92,
      "chip": "ym2612"
    },
    {
      "channel": 0,
      "note": 55,
      "start": 0.137,
      "duration": 0.1762,
      "velocity": 103,
      "chip": "ym2612"
    },
    {
      "channel": 3,
      "note": 31,
      "start": 0.1377,
      "duration": 0.0835,
      "velocity": 92,
      "chip": "ym2612"
    },
    {
      "channel": 3,
      "note": 31,
      "start": 0.2214,
      "duration": 0.3846,
      "velocity": 92,
      "chip": "ym2612"
    },
    {
      "channel": 0,
      "note": 53,
      "start": 0.3134,
      "duration": 0.0998,
      "velocity": 103,
      "chip": "ym2612"
    },
    {
      "channel": 0,
      "note": 55,
      "start": 0.4134,
      "duration": 0.192,
      "velocity": 103,
      "chip": "ym2612"
    },
    {
      "channel": 1,
      "note": 55,
      "start": 0.4155,
      "duration": 0.3627,
      "velocity": 97,
      "chip": "ym2612"
    },
    {
      "channel": 2,
      "note": 55,
      "start": 0.4161,
      "duration": 0.3627,
      "velocity": 96,
      "chip": "ym2612"
    },
    {
      "channel": 0,
      "note": 53,
      "start": 0.6055,
      "duration": 0.0842,
      "velocity": 103,
      "chip": "ym2612"
    },
    {
      "channel": 3,
      "note": 31,
      "start": 0.6062,
      "duration": 0.0842,
      "velocity": 92,
      "chip": "ym2612"
    },
    {
      "channel": 0,
      "note": 55,
      "start": 0.6899,
      "duration": 0.1802,
      "velocity": 103,
      "chip": "ym2612"
    },
    {
      "channel": 3,
      "note": 31,
      "start": 0.6906,
      "duration": 0.0888,
      "velocity": 92,
      "chip": "ym2612"
    },
    {
      "channel": 1,
      "note": 62,
      "start": 0.7784,
      "duration": 0.1922,
      "velocity": 97,
      "chip": "ym2612"
    },
    {
      "channel": 2,
      "note": 55,
      "start": 0.779,
      "duration": 0.3854,
      "velocity": 96,
      "chip": "ym2612"
    },
    {
      "channel": 3,
      "note": 31,
      "start": 0.7795,
      "duration": 0.1917,
      "velocity": 92,
      "chip": "ym2612"
    },
    {
      "channel": 0,
      "note": 53,
      "start": 0.8703,
      "duration": 0.0998,
      "velocity": 103,
      "chip": "ym2612"
    },
    {
      "channel": 0,
      "note": 55,
      "start": 0.9702,
      "duration": 0.193,
      "velocity": 103,
      "chip": "ym2612"
    },
    {
      "channel": 1,
      "note": 55,
      "start": 0.9708,
      "duration": 0.193,
      "velocity": 97,
      "chip": "ym2612"
    },
    {
      "channel": 3,
      "note": 29,
      "start": 0.9714,
      "duration": 0.092,
      "velocity": 92,
      "chip": "ym2612"
    },
    {
      "channel": 3,
      "note": 29,
      "start": 1.0636,
      "duration": 0.1014,
      "velocity": 92,
      "chip": "ym2612"
    },
    {
      "channel": 0,
      "note": 53,
      "start": 1.1634,
      "duration": 0.0879,
      "velocity": 103,
      "chip": "ym2612"
    },
    {
      "channel": 1,
      "note": 62,
      "start": 1.1639,
      "duration": 0.1761,
      "velocity": 97,
      "chip": "ym2612"
    },
    {
      "channel": 2,
      "note": 58,
      "start": 1.1645,
      "duration": 0.3688,
      "velocity": 96,
      "chip": "ym2612"
    },
    {
      "channel": 3,
      "note": 29,
      "start": 1.1651,
      "duration": 0.1756,
      "velocity": 92,
      "chip": "ym2612"
    },
    {
      "channel": 0,
      "note": 55,
      "start": 1.2515,
      "duration": 0.088,
      "velocity": 103,
      "chip": "ym2612"
    },
    {
      "channel": 0,
      "note": 61,
      "start": 1.3397,
      "duration": 0.0929,
      "velocity": 103,
      "chip": "ym2612"
    },
    {
      "channel": 1,
      "note": 61,
      "start": 1.3403,
      "duration": 2.0446,
      "velocity": 97,
      "chip": "ym2612"
    },
    {
      "channel": 3,
      "note": 26,
      "start": 1.3409,
      "duration": 0.193,
      "velocity": 92,
      "chip": "ym2612"
    },
    {
      "channel": 0,
      "note": 58,
      "start": 1.4329,
      "duration": 0.0998,
      "velocity": 103,
      "chip": "ym2612"
    },
    {
      "channel": 0,
      "note": 53,
      "start": 1.5329,
      "duration": 0.0884,
      "velocity": 103,
      "chip": "ym2612"
    },
    {
      "channel": 2,
      "note": 55,
      "start": 1.5335,
      "duration": 0.3648,
      "velocity": 96,
      "chip": "ym2612"
    },
    {
      "channel": 3,
      "note": 31,
      "start": 1.5341,
      "duration": 0.0879,
      "velocity": 92,
      "chip": "ym2612"
    },
    {
      "channel": 0,
      "note": 55,
      "start": 1.6214,
      "duration": 0.1763,
      "velocity": 103,
      "chip": "ym2612"
    },
    {
      "channel": 3,
      "note": 31,
      "start": 1.6221,
      "duration": 0.0856,
      "velocity": 92,
      "chip": "ym2612"
    },
    {
      "channel": 3,
      "note": 31,
      "start": 1.7079,
      "duration": 0.3875,
      "velocity": 92,
      "chip": "ym2612"
    },
    {
      "channel": 0,
      "note": 53,
      "start": 1.7979,
      "duration": 0.0998,
      "velocity": 103,
      "chip": "ym2612"
    },
    {
      "channel": 0,
      "note": 55,
      "start": 1.8979,
      "duration": 0.1968,
      "velocity": 103,
      "chip": "ym2612"
    },
    {
      "channel": 2,
      "note": 55,
      "start": 1.8985,
      "duration": 0.3692,
      "velocity": 96,
      "chip": "ym2612"
    },
    {
      "channel": 0,
      "note": 53,
      "start": 2.0949,
      "duration": 0.0842,
      "velocity": 103,
      "chip": "ym2612"
    },
    {
      "channel": 3,
      "note": 31,
      "start": 2.0956,
      "duration": 0.0842,
      "velocity": 92,
      "chip": "ym2612"
    },
    {
      "channel": 0,
      "note": 55,
      "start": 2.1793,
      "duration": 0.1832,
      "velocity": 103,
      "chip": "ym2612"
    },
    {
      "channel": 3,
      "note": 31,
      "start": 2.18,
      "duration": 0.0884,
      "velocity": 92,
      "chip": "ym2612"
    },
    {
      "channel": 2,
      "note": 55,
      "start": 2.2679,
      "duration": 0.3853,
      "velocity": 96,
      "chip": "ym2612"
    },
    {
      "channel": 3,
      "note": 31,
      "start": 2.2685,
      "duration": 0.1947,
      "velocity": 92,
      "chip": "ym2612"
    },
    {
      "channel": 0,
      "note": 53,
      "start": 2.3627,
      "duration": 0.0998,
      "velocity": 103,
      "chip": "ym2612"
    },
    {
      "channel": 0,
      "note": 55,
      "start": 2.4627,
      "duration": 0.19,
      "velocity": 103,
      "chip": "ym2612"
    },
    {
      "channel": 3,
      "note": 32,
      "start": 2.4634,
      "duration": 0.0895,
      "velocity": 92,
      "chip": "ym2612"
    },
    {
      "channel": 3,
      "note": 32,
      "start": 2.553,
      "duration": 0.1008,
      "velocity": 92,
      "chip": "ym2612"
    },
    {
      "channel": 0,
      "note": 53,
      "start": 2.6528,
      "duration": 0.0884,
      "velocity": 103,
      "chip": "ym2612"
    },
    {
      "channel": 2,
      "note": 53,
      "start": 2.6534,
      "duration": 0.3627,
      "velocity": 96,
      "chip": "ym2612"
    },
    {
      "channel": 3,
      "note": 29,
      "start": 2.654,
      "duration": 0.0879,
      "velocity": 92,
      "chip": "ym2612"
    },
    {
      "channel": 0,
      "note": 55,
      "start": 2.7414,
      "duration": 0.0839,
      "velocity": 103,
      "chip": "ym2612"
    },
    {
      "channel": 3,
      "note": 31,
      "start": 2.7421,
      "duration": 0.0839,
      "velocity": 92,
      "chip": "ym2612"
    },
    {
      "channel": 0,
      "note": 61,
      "start": 2.8256,
      "duration": 0.09,
      "velocity": 103,
      "chip": "ym2612"
    },
    {
      "channel": 3,
      "note": 26,
      "start": 2.8263,
      "duration": 0.09,
      "velocity": 92,
      "chip": "ym2612"
    },
    {
      "channel": 0,
      "note": 58,
      "start": 2.9157,
      "duration": 0.0998,
      "velocity": 103,
      "chip": "ym2612"
    },
    {
      "channel": 3,
      "note": 29,
      "start": 2.9164,
      "duration": 0.1003,
      "velocity": 92,
      "chip": "ym2612"
    },
    {
      "channel": 0,
      "note": 55,
      "start": 3.0157,
      "duration": 0.0883,
      "velocity": 103,
      "chip": "ym2612"
    },
    {
      "channel": 2,
      "note": 57,
      "start": 3.0163,
      "duration": 0.3691,
      "velocity": 96,
      "chip": "ym2612"
    },
    {
      "channel": 3,
      "note": 33,
      "start": 3.0169,
      "duration": 0.0877,
      "velocity": 92,
      "chip": "ym2612"
    },
    {
      "channel": 0,
      "note": 57,
      "start": 3.1041,
      "duration": 0.1801,
      "velocity": 103,
      "chip": "ym2612"
    },
    {
      "channel": 3,
      "note": 33,
      "start": 3.1048,
      "duration": 0.0895,
      "velocity": 92,
      "chip": "ym2612"
    },
    {
      "channel": 3,
      "note": 33,
      "start": 3.1945,
      "duration": 0.3837,
      "velocity": 92,
      "chip": "ym2612"
    },
    {
      "channel": 0,
      "note": 55,
      "start": 3.2845,
      "duration": 0.0998,
      "velocity": 103,
      "chip": "ym2612"
    },
    {
      "channel": 0,
      "note": 57,
      "start": 3.3845,
      "duration": 0.193,
      "velocity": 103,
      "chip": "ym2612"
    },
    {
      "channel": 1,
      "note": 57,
      "start": 3.385,
      "duration": 0.3693,
      "velocity": 97,
      "chip": "ym2612"
    },
    {
      "channel": 2,
      "note": 57,
      "start": 3.3856,
      "duration": 0.3693,
      "velocity": 96,
      "chip": "ym2612"
    },
    {
      "channel": 0,
      "note": 55,
      "start": 3.5776,
      "duration": 0.0841,
      "velocity": 103,
      "chip": "ym2612"
    },
    {
      "channel": 3,
      "note": 33,
      "start": 3.5783,
      "duration": 0.0841,
      "velocity": 92,
      "chip": "ym2612"
    },
    {
      "channel": 0,
      "note": 57,
      "start": 3.6619,
      "duration": 0.1872,
      "velocity": 103,
      "chip": "ym2612"
    },
    {
      "channel": 3,
      "note": 33,
      "start": 3.6626,
      "duration": 0.0929,
      "velocity": 92,
      "chip": "ym2612"
    },
    {
      "channel": 1,
      "note": 64,
      "start": 3.7545,
      "duration": 0.1951,
      "velocity": 97,
      "chip": "ym2612"
    },
    {
      "channel": 2,
      "note": 57,
      "start": 3.755,
      "duration": 0.3884,
      "velocity": 96,
      "chip": "ym2612"
    },
    {
      "channel": 3,
      "note": 33,
      "start": 3.7556,
      "duration": 0.1947,
      "velocity": 92,
      "chip": "ym2612"
    },
    {
      "channel": 0,
      "note": 55,
      "start": 3.8493,
      "duration": 0.0998,
      "velocity": 103,
      "chip": "ym2612"
    },
    {
      "channel": 0,
      "note": 57,
      "start": 3.9492,
      "duration": 0.193,
      "velocity": 103,
      "chip": "ym2612"
    },
    {
      "channel": 1,
      "note": 57,
      "start": 3.9498,
      "duration": 0.193,
      "velocity": 97,
      "chip": "ym2612"
    },
    {
      "channel": 3,
      "note": 33,
      "start": 3.9504,
      "duration": 0.092,
      "velocity": 92,
      "chip": "ym2612"
    },
    {
      "channel": 3,
      "note": 33,
      "start": 4.0425,
      "duration": 0.1014,
      "velocity": 92,
      "chip": "ym2612"
    },
    {
      "channel": 0,
      "note": 55,
      "start": 4.1424,
      "duration": 0.0857,
      "velocity": 103,
      "chip": "ym2612"
    },
    {
      "channel": 1,
      "note": 64,
      "start": 4.143,
      "duration": 0.1741,
      "velocity": 97,
      "chip": "ym2612"
    },
    {
      "channel": 2,
      "note": 63,
      "start": 4.1436,
      "duration": 0.3668,
      "velocity": 96,
      "chip": "ym2612"
    },
    {
      "channel": 3,
      "note": 31,
      "start": 4.1441,
      "duration": 0.1737,
      "velocity": 92,
      "chip": "ym2612"
    },
    {
      "channel": 0,
      "note": 57,
      "start": 4.2283,
      "duration": 0.0883,
      "velocity": 103,
      "chip": "ym2612"
    },
    {
      "channel": 0,
      "note": 63,
      "start": 4.3167,
      "duration": 0.0929,
      "velocity": 103,
      "chip": "ym2612"
    },
    {
      "channel": 1,
      "note": 63,
      "start": 4.3173,
      "duration": 1.6906,
      "velocity": 114,
      "chip": "ym2612"
    },
    {
      "channel": 3,
      "note": 28,
      "start": 4.3179,
      "duration": 0.193,
      "velocity": 92,
      "chip": "ym2612"
    },
    {
      "channel": 0,
      "note": 60,
      "start": 4.4099,
      "duration": 0.0998,
      "velocity": 103,
      "chip": "ym2612"
    },
    {
      "channel": 0,
      "note": 55,
      "start": 4.5099,
      "duration": 0.0882,
      "velocity": 103,
      "chip": "ym2612"
    },
    {
      "channel": 2,
      "note": 57,
      "start": 4.5105,
      "duration": 0.3685,
      "velocity": 96,
      "chip": "ym2612"
    },
    {
      "channel": 3,
      "note": 33,
      "start": 4.5111,
      "duration": 0.0877,
      "velocity": 92,
      "chip": "ym2612"
    },
    {
      "channel": 0,
      "note": 57,
      "start": 4.5983,
      "duration": 0.1801,
      "velocity": 103,
      "chip": "ym2612"
    },
    {
      "channel": 3,
      "note": 33,
      "start": 4.599,
      "duration": 0.0895,
      "velocity": 92,
      "chip": "ym2612"
    },
    {
      "channel": 3,
      "note": 33,
      "start": 4.6886,
      "duration": 0.3875,
      "velocity": 92,
      "chip": "ym2612"
    },
    {
      "channel": 0,
      "note": 55,
      "start": 4.7786,
      "duration": 0.0998,
      "velocity": 103,
      "chip": "ym2612"
    },
    {
      "channel": 0,
      "note": 57,
      "start": 4.8786,
      "duration": 0.1968,
      "velocity": 103,
      "chip": "ym2612"
    },
    {
      "channel": 2,
      "note": 57,
      "start": 4.8792,
      "duration": 0.3692,
      "velocity": 96,
      "chip": "ym2612"
    },
    {
      "channel": 0,
      "note": 55,
      "start": 5.0756,
      "duration": 0.0842,
      "velocity": 103,
      "chip": "ym2612"
    },
    {
      "channel": 3,
      "note": 33,
      "start": 5.0763,
      "duration": 0.0842,
      "velocity": 92,
      "chip": "ym2612"
    },
    {
      "channel": 0,
      "note": 57,
      "start": 5.16,
      "duration": 0.1823,
      "velocity": 103,
      "chip": "ym2612"
    },
    {
      "channel": 3,
      "note": 33,
      "start": 5.1607,
      "duration": 0.0883,
      "velocity": 92,
      "chip": "ym2612"
    },
    {
      "channel": 2,
      "note": 57,
      "start": 5.2485,
      "duration": 0.3846,
      "velocity": 96,
      "chip": "ym2612"
    },
    {
      "channel": 3,
      "note": 33,
      "start": 5.2491,
      "duration": 0.1938,
      "velocity": 92,
      "chip": "ym2612"
    },
    {
      "channel": 0,
      "note": 55,
      "start": 5.3425,
      "duration": 0.0998,
      "velocity": 103,
      "chip": "ym2612"
    },
    {
      "channel": 0,
      "note": 57,
      "start": 5.4425,
      "duration": 0.19,
      "velocity": 103,
      "chip": "ym2612"
    },
    {
      "channel": 3,
      "note": 33,
      "start": 5.4432,
      "duration": 0.0895,
      "velocity": 92,
      "chip": "ym2612"
    },
    {
      "channel": 3,
      "note": 33,
      "start": 5.5328,
      "duration": 0.1009,
      "velocity": 92,
      "chip": "ym2612"
    },
    {
      "channel": 0,
      "note": 55,
      "start": 5.6326,
      "duration": 0.092,
      "velocity": 103,
      "chip": "ym2612"
    },
    {
      "channel": 2,
      "note": 55,
      "start": 5.6333,
      "duration": 0.0014,
      "velocity": 96,
      "chip": "ym2612"
    },
    {
      "channel": 3,
      "note": 31,
      "start": 5.6338,
      "duration": 0.0915,
      "velocity": 92,
      "chip": "ym2612"
    },
    {
      "channel": 2,
      "note": 55,
      "start": 5.6346,
      "duration": 0.0116,
      "velocity": 96,
      "chip": "ym2612"
    },
    {
      "channel": 2,
      "note": 54,
      "start": 5.6463,
      "duration": 0.0158,
      "velocity": 96,
      "chip": "ym2612"
    },
    {
      "channel": 2,
      "note": 54,
      "start": 5.662,
      "duration": 0.0289,
      "velocity": 96,
      "chip": "ym2612"
    },
    {
      "channel": 2,
      "note": 54,
      "start": 5.6909,
      "duration": 0.0167,
      "velocity": 96,
      "chip": "ym2612"
    },
    {
      "channel": 2,
      "note": 53,
      "start": 5.7076,
      "duration": 0.0187,
      "velocity": 96,
      "chip": "ym2612"
    },
    {
      "channel": 0,
      "note": 57,
      "start": 5.7248,
      "duration": 0.092,
      "velocity": 103,
      "chip": "ym2612"
    },
    {
      "channel": 3,
      "note": 33,
      "start": 5.7255,
      "duration": 0.092,
      "velocity": 92,
      "chip": "ym2612"
    },
    {
      "channel": 2,
      "note": 53,
      "start": 5.7263,
      "duration": 0.012,
      "velocity": 96,
      "chip": "ym2612"
    },
    {
      "channel": 2,
      "note": 52,
      "start": 5.7383,
      "duration": 0.0157,
      "velocity": 96,
      "chip": "ym2612"
    },
    {
      "channel": 2,
      "note": 52,
      "start": 5.754,
      "duration": 0.0291,
      "velocity": 96,
      "chip": "ym2612"
    },
    {
      "channel": 2,
      "note": 51,
      "start": 5.7832,
      "duration": 0.0167,
      "velocity": 96,
      "chip": "ym2612"
    },
    {
      "channel": 2,
      "note": 51,
      "start": 5.7998,
      "duration": 0.0187,
      "velocity": 96,
      "chip": "ym2612"
    },
    {
      "channel": 0,
      "note": 63,
      "start": 5.817,
      "duration": 0.0946,
      "velocity": 103,
      "chip": "ym2612"
    },
    {
      "channel": 3,
      "note": 27,
      "start": 5.8177,
      "duration": 0.0946,
      "velocity": 92,
      "chip": "ym2612"
    },
    {
      "channel": 2,
      "note": 51,
      "start": 5.8185,
      "duration": 0.0139,
      "velocity": 96,
      "chip": "ym2612"
    },
    {
      "channel": 2,
      "note": 50,
      "start": 5.8324,
      "duration": 0.0137,
      "velocity": 96,
      "chip": "ym2612"
    },
    {
      "channel": 2,
      "note": 50,
      "start": 5.846,
      "duration": 0.0319,
      "velocity": 96,
      "chip": "ym2612"
    },
    {
      "channel": 2,
      "note": 49,
      "start": 5.8779,
      "duration": 0.0167,
      "velocity": 96,
      "chip": "ym2612"
    },
    {
      "channel": 2,
      "note": 49,
      "start": 5.8946,
      "duration": 0.0187,
      "velocity": 96,
      "chip": "ym2612"
    },
    {
      "channel": 0,
      "note": 60,
      "start": 5.9118,
      "duration": 0.094,
      "velocity": 103,
      "chip": "ym2612"
    },
    {
      "channel": 3,
      "note": 28,
      "start": 5.9125,
      "duration": 0.0997,
      "velocity": 111,
      "chip": "ym2612"
    },
    {
      "channel": 2,
      "note": 48,
      "start": 5.9133,
      "duration": 0.0138,
      "velocity": 96,
      "chip": "ym2612"
    },
    {
      "channel": 2,
      "note": 48,
      "start": 5.9271,
      "duration": 0.0157,
      "velocity": 96,
      "chip": "ym2612"
    },
    {
      "channel": 2,
      "note": 47,
      "start": 5.9428,
      "duration": 0.0291,
      "velocity": 96,
      "chip": "ym2612"
    },
    {
      "channel": 2,
      "note": 46,
      "start": 5.9719,
      "duration": 0.0167,
      "velocity": 96,
      "chip": "ym2612"
    },
    {
      "channel": 2,
      "note": 46,
      "start": 5.9886,
      "duration": 0.0215,
      "velocity": 111,
      "chip": "ym2612"
    },
    {
      "channel": 0,
      "note": 53,
      "start": 6.0059,
      "duration": 0.091,
      "velocity": 103,
      "chip": "ym2612"
    },
    {
      "channel": 1,
      "note": 67,
      "start": 6.0081,
      "duration": 0.1887,
      "velocity": 114,
      "chip": "ym2612"
    },
    {
      "channel": 2,
      "note": 70,
      "start": 6.0102,
      "duration": 1.4934,
      "velocity": 111,
      "chip": "ym2612"
    },
    {
      "channel": 3,
      "note": 74,
      "start": 6.0123,
      "duration": 1.4919,
      "velocity": 111,
      "chip": "ym2612"
    },
    {
      "channel": 0,
      "note": 55,
      "start": 6.097,
      "duration": 0.1997,
      "velocity": 103,
      "chip": "ym2612"
    },
    {
      "channel": 1,
      "note": 70,
      "start": 6.197,
      "duration": 0.1003,
      "velocity": 114,
      "chip": "ym2612"
    },
    {
      "channel": 0,
      "note": 53,
      "start": 6.2969,
      "duration": 0.0999,
      "velocity": 103,
      "chip": "ym2612"
    },
    {
      "channel": 1,
      "note": 74,
      "start": 6.2975,
      "duration": 0.1877,
      "velocity": 114,
      "chip": "ym2612"
    },
    {
      "channel": 0,
      "note": 55,
      "start": 6.397,
      "duration": 0.1722,
      "velocity": 103,
      "chip": "ym2612"
    },
    {
      "channel": 1,
      "note": 70,
      "start": 6.4854,
      "duration": 0.1703,
      "velocity": 114,
      "chip": "ym2612"
    },
    {
      "channel": 0,
      "note": 53,
      "start": 6.5693,
      "duration": 0.0858,
      "velocity": 103,
      "chip": "ym2612"
    },
    {
      "channel": 0,
      "note": 55,
      "start": 6.6553,
      "duration": 0.1887,
      "velocity": 103,
      "chip": "ym2612"
    },
    {
      "channel": 1,
      "note": 77,
      "start": 6.6559,
      "duration": 0.1887,
      "velocity": 114,
      "chip": "ym2612"
    },
    {
      "channel": 0,
      "note": 53,
      "start": 6.8442,
      "duration": 0.0997,
      "velocity": 103,
      "chip": "ym2612"
    },
    {
      "channel": 1,
      "note": 75,
      "start": 6.8447,
      "duration": 0.1993,
      "velocity": 114,
      "chip": "ym2612"
    },
    {
      "channel": 0,
      "note": 55,
      "start": 6.9441,
      "duration": 0.1929,
      "velocity": 103,
      "chip": "ym2612"
    },
    {
      "channel": 1,
      "note": 70,
      "start": 7.0442,
      "duration": 0.0933,
      "velocity": 114,
      "chip": "ym2612"
    },
    {
      "channel": 0,
      "note": 53,
      "start": 7.1372,
      "duration": 0.0841,
      "velocity": 103,
      "chip": "ym2612"
    },
    {
      "channel": 1,
      "note": 72,
      "start": 7.1377,
      "duration": 0.1682,
      "velocity": 114,
      "chip": "ym2612"
    },
    {
      "channel": 0,
      "note": 55,
      "start": 7.2214,
      "duration": 0.084,
      "velocity": 103,
      "chip": "ym2612"
    },
    {
      "channel": 0,
      "note": 61,
      "start": 7.3056,
      "duration": 0.0968,
      "velocity": 103,
      "chip": "ym2612"
    },
    {
      "channel": 1,
      "note": 74,
      "start": 7.3062,
      "duration": 0.1969,
      "velocity": 114,
      "chip": "ym2612"
    },
    {
      "channel": 0,
      "note": 58,
      "start": 7.4026,
      "duration": 0.0999,
      "velocity": 103,
      "chip": "ym2612"
    },
    {
      "channel": 0,
      "note": 53,
      "start": 7.5027,
      "duration": 0.0947,
      "velocity": 103,
      "chip": "ym2612"
    },
    {
      "channel": 1,
      "note": 67,
      "start": 7.5033,
      "duration": 0.194,
      "velocity": 114,
      "chip": "ym2612"
    },
    {
      "channel": 2,
      "note": 77,
      "start": 7.5038,
      "duration": 1.5061,
      "velocity": 111,
      "chip": "ym2612"
    },
    {
      "channel": 3,
      "note": 74,
      "start": 7.5043,
      "duration": 1.5062,
      "velocity": 111,
      "chip": "ym2612"
    },
    {
      "channel": 0,
      "note": 55,
      "start": 7.5976,
      "duration": 0.1997,
      "velocity": 103,
      "chip": "ym2612"
    },
    {
      "channel": 1,
      "note": 70,
      "start": 7.6975,
      "duration": 0.1003,
      "velocity": 114,
      "chip": "ym2612"
    },
    {
      "channel": 0,
      "note": 53,
      "start": 7.7974,
      "duration": 0.0999,
      "velocity": 103,
      "chip": "ym2612"
    },
    {
      "channel": 1,
      "note": 74,
      "start": 7.798,
      "duration": 0.1877,
      "velocity": 114,
      "chip": "ym2612"
    },
    {
      "channel": 0,
      "note": 55,
      "start": 7.8975,
      "duration": 0.1721,
      "velocity": 103,
      "chip": "ym2612"
    },
    {
      "channel": 1,
      "note": 70,
      "start": 7.9859,
      "duration": 0.1702,
      "velocity": 114,
      "chip": "ym2612"
    },
    {
      "channel": 0,
      "note": 53,
      "start": 8.0698,
      "duration": 0.0858,
      "velocity": 103,
      "chip": "ym2612"
    },
    {
      "channel": 0,
      "note": 55,
      "start": 8.1557,
      "duration": 0.19,
      "velocity": 103,
      "chip": "ym2612"
    },
    {
      "channel": 1,
      "note": 77,
      "start": 8.1563,
      "duration": 0.19,
      "velocity": 114,
      "chip": "ym2612"
    },
    {
      "channel": 0,
      "note": 53,
      "start": 8.3459,
      "duration": 0.0947,
      "velocity": 103,
      "chip": "ym2612"
    },
    {
      "channel": 1,
      "note": 75,
      "start": 8.3464,
      "duration": 0.1942,
      "velocity": 114,
      "chip": "ym2612"
    },
    {
      "channel": 0,
      "note": 55,
      "start": 8.4408,
      "duration": 0.1928,
      "velocity": 103,
      "chip": "ym2612"
    },
    {
      "channel": 1,
      "note": 70,
      "start": 8.5408,
      "duration": 0.0933,
      "velocity": 114,
      "chip": "ym2612"
    },
    {
      "channel": 0,
      "note": 53,
      "start": 8.6338,
      "duration": 0.0925,
      "velocity": 103,
      "chip": "ym2612"
    },
    {
      "channel": 1,
      "note": 72,
      "start": 8.6344,
      "duration": 0.181,
      "velocity": 114,
      "chip": "ym2612"
    },
    {
      "channel": 0,
      "note": 55,
      "start": 8.7265,
      "duration": 0.0883,
      "velocity": 103,
      "chip": "ym2612"
    },
    {
      "channel": 0,
      "note": 61,
      "start": 8.815,
      "duration": 0.0938,
      "velocity": 103,
      "chip": "ym2612"
    },
    {
      "channel": 1,
      "note": 74,
      "start": 8.8156,
      "duration": 0.1938,
      "velocity": 114,
      "chip": "ym2612"
    },
    {
      "channel": 0,
      "note": 58,
      "start": 8.909,
      "duration": 0.0999,
      "velocity": 103,
      "chip": "ym2612"
    },
    {
      "channel": 0,
      "note": 55,
      "start": 9.009,
      "duration": 0.0937,
      "velocity": 103,
      "chip": "ym2612"
    },
    {
      "channel": 1,
      "note": 69,
      "start": 9.0095,
      "duration": 0.1931,
      "velocity": 114,
      "chip": "ym2612"
    },
    {
      "channel": 2,
      "note": 72,
      "start": 9.0101,
      "duration": 1.5074,
      "velocity": 111,
      "chip": "ym2612"
    },
    {
      "channel": 3,
      "note": 76,
      "start": 9.0107,
      "duration": 1.5074,
      "velocity": 111,
      "chip": "ym2612"
    },
    {
      "channel": 0,
      "note": 57,
      "start": 9.1029,
      "duration": 0.1997,
      "velocity": 103,
      "chip": "ym2612"
    },
    {
      "channel": 1,
      "note": 72,
      "start": 9.2028,
      "duration": 0.1003,
      "velocity": 114,
      "chip": "ym2612"
    },
    {
      "channel": 0,
      "note": 55,
      "start": 9.3027,
      "duration": 0.0999,
      "velocity": 103,
      "chip": "ym2612"
    },
    {
      "channel": 1,
      "note": 76,
      "start": 9.3033,
      "duration": 0.1876,
      "velocity": 114,
      "chip": "ym2612"
    },
    {
      "channel": 0,
      "note": 57,
      "start": 9.4028,
      "duration": 0.172,
      "velocity": 103,
      "chip": "ym2612"
    },
    {
      "channel": 1,
      "note": 72,
      "start": 9.4911,
      "duration": 0.1724,
      "velocity": 114,
      "chip": "ym2612"
    },
    {
      "channel": 0,
      "note": 55,
      "start": 9.575,
      "duration": 0.0879,
      "velocity": 103,
      "chip": "ym2612"
    },
    {
      "channel": 0,
      "note": 57,
      "start": 9.6631,
      "duration": 0.1887,
      "velocity": 103,
      "chip": "ym2612"
    },
    {
      "channel": 1,
      "note": 79,
      "start": 9.6637,
      "duration": 0.1887,
      "velocity": 114,
      "chip": "ym2612"
    },
    {
      "channel": 0,
      "note": 55,
      "start": 9.852,
      "duration": 0.0997,
      "velocity": 103,
      "chip": "ym2612"
    },
    {
      "channel": 1,
      "note": 77,
      "start": 9.8526,
      "duration": 0.1993,
      "velocity": 114,
      "chip": "ym2612"
    },
    {
      "channel": 0,
      "note": 57,
      "start": 9.952,
      "duration": 0.1929,
      "velocity": 103,
      "chip": "ym2612"
    },
    {
      "channel": 1,
      "note": 72,
      "start": 10.0521,
      "duration": 0.0933,
      "velocity": 114,
      "chip": "ym2612"
    },
    {
      "channel": 0,
      "note": 55,
      "start": 10.145,
      "duration": 0.0922,
      "velocity": 103,
      "chip": "ym2612"
    },
    {
      "channel": 1,
      "note": 74,
      "start": 10.1456,
      "duration": 0.1764,
      "velocity": 114,
      "chip": "ym2612"
    },
    {
      "channel": 0,
      "note": 57,
      "start": 10.2374,
      "duration": 0.0841,
      "velocity": 103,
      "chip": "ym2612"
    },
    {
      "channel": 0,
      "note": 63,
      "start": 10.3216,
      "duration": 0.0946,
      "velocity": 103,
      "chip": "ym2612"
    },
    {
      "channel": 1,
      "note": 76,
      "start": 10.3222,
      "duration": 0.1947,
      "velocity": 114,
      "chip": "ym2612"
    },
    {
      "channel": 0,
      "note": 60,
      "start": 10.4165,
      "duration": 0.0999,
      "velocity": 103,
      "chip": "ym2612"
    },
    {
      "channel": 0,
      "note": 55,
      "start": 10.5165,
      "duration": 0.0937,
      "velocity": 103,
      "chip": "ym2612"
    },
    {
      "channel": 1,
      "note": 69,
      "start": 10.517,
      "duration": 0.1931,
      "velocity": 114,
      "chip": "ym2612"
    },
    {
      "channel": 2,
      "note": 79,
      "start": 10.5176,
      "duration": 1.5016,
      "velocity": 111,
      "chip": "ym2612"
    },
    {
      "channel": 3,
      "note": 76,
      "start": 10.5182,
      "duration": 1.5017,
      "velocity": 111,
      "chip": "ym2612"
    },
    {
      "channel": 0,
      "note": 57,
      "start": 10.6103,
      "duration": 0.1997,
      "velocity": 103,
      "chip": "ym2612"
    },
    {
      "channel": 1,
      "note": 72,
      "start": 10.7103,
      "duration": 0.1003,
      "velocity": 114,
      "chip": "ym2612"
    },
    {
      "channel": 0,
      "note": 55,
      "start": 10.8102,
      "duration": 0.0999,
      "velocity": 103,
      "chip": "ym2612"
    },
    {
      "channel": 1,
      "note": 76,
      "start": 10.8108,
      "duration": 0.1877,
      "velocity": 114,
      "chip": "ym2612"
    },
    {
      "channel": 0,
      "note": 57,
      "start": 10.9103,
      "duration": 0.1721,
      "velocity": 103,
      "chip": "ym2612"
    },
    {
      "channel": 1,
      "note": 72,
      "start": 10.9987,
      "duration": 0.1702,
      "velocity": 114,
      "chip": "ym2612"
    },
    {
      "channel": 0,
      "note": 55,
      "start": 11.0826,
      "duration": 0.0858,
      "velocity": 103,
      "chip": "ym2612"
    },
    {
      "channel": 0,
      "note": 57,
      "start": 11.1685,
      "duration": 0.1968,
      "velocity": 103,
      "chip": "ym2612"
    },
    {
      "channel": 1,
      "note": 79,
      "start": 11.1691,
      "duration": 0.1968,
      "velocity": 114,
      "chip": "ym2612"
    },
    {
      "channel": 0,
      "note": 55,
      "start": 11.3656,
      "duration": 0.0947,
      "velocity": 103,
      "chip": "ym2612"
    },
    {
      "channel": 1,
      "note": 77,
      "start": 11.3661,
      "duration": 0.1827,
      "velocity": 114,
      "chip": "ym2612"
    },
    {
      "channel": 0,
      "note": 57,
      "start": 11.4605,
      "duration": 0.1813,
      "velocity": 103,
      "chip": "ym2612"
    },
    {
      "channel": 1,
      "note": 72,
      "start": 11.549,
      "duration": 0.0933,
      "velocity": 114,
      "chip": "ym2612"
    },
    {
      "channel": 0,
      "note": 55,
      "start": 11.642,
      "duration": 0.0925,
      "velocity": 103,
      "chip": "ym2612"
    },
    {
      "channel": 1,
      "note": 74,
      "start": 11.6426,
      "duration": 0.181,
      "velocity": 114,
      "chip": "ym2612"
    },
    {
      "channel": 0,
      "note": 57,
      "start": 11.7347,
      "duration": 0.0883,
      "velocity": 103,
      "chip": "ym2612"
    },
    {
      "channel": 0,
      "note": 63,
      "start": 11.8232,
      "duration": 0.0947,
      "velocity": 103,
      "chip": "ym2612"
    },
    {
      "channel": 1,
      "note": 76,
      "start": 11.8238,
      "duration": 0.1948,
      "velocity": 114,
      "chip": "ym2612"
    },
    {
      "channel": 0,
      "note": 60,
      "start": 11.9181,
      "duration": 0.1,
      "velocity": 103,
      "chip": "ym2612"
    },
    {
      "channel": 0,
      "note": 53,
      "start": 12.0181,
      "duration": 0.0899,
      "velocity": 103,
      "chip": "ym2612"
    },
    {
      "channel": 1,
      "note": 67,
      "start": 12.0188,
      "duration": 0.1892,
      "velocity": 114,
      "chip": "ym2612"
    },
    {
      "channel": 2,
      "note": 70,
      "start": 12.0194,
      "duration": 1.4964,
      "velocity": 111,
      "chip": "ym2612"
    },
    {
      "channel": 3,
      "note": 74,
      "start": 12.02,
      "duration": 1.4963,
      "velocity": 111,
      "chip": "ym2612"
    },
    {
      "channel": 0,
      "note": 55,
      "start": 12.1082,
      "duration": 0.1997,
      "velocity": 103,
      "chip": "ym2612"
    },
    {
      "channel": 1,
      "note": 70,
      "start": 12.2082,
      "duration": 0.1003,
      "velocity": 114,
      "chip": "ym2612"
    },
    {
      "channel": 0,
      "note": 53,
      "start": 12.3081,
      "duration": 0.0999,
      "velocity": 103,
      "chip": "ym2612"
    },
    {
      "channel": 1,
      "note": 74,
      "start": 12.3087,
      "duration": 0.1877,
      "velocity": 114,
      "chip": "ym2612"
    },
    {
      "channel": 0,
      "note": 55,
      "start": 12.4082,
      "duration": 0.1722,
      "velocity": 103,
      "chip": "ym2612"
    },
    {
      "channel": 1,
      "note": 70,
      "start": 12.4966,
      "duration": 0.1703,
      "velocity": 114,
      "chip": "ym2612"
    },
    {
      "channel": 0,
      "note": 53,
      "start": 12.5805,
      "duration": 0.0858,
      "velocity": 103,
      "chip": "ym2612"
    },
    {
      "channel": 0,
      "note": 55,
      "start": 12.6665,
      "duration": 0.1887,
      "velocity": 103,
      "chip": "ym2612"
    },
    {
      "channel": 1,
      "note": 77,
      "start": 12.6671,
      "duration": 0.1887,
      "velocity": 114,
      "chip": "ym2612"
    },
    {
      "channel": 0,
      "note": 53,
      "start": 12.8554,
      "duration": 0.0997,
      "velocity": 103,
      "chip": "ym2612"
    },
    {
      "channel": 1,
      "note": 75,
      "start": 12.8559,
      "duration": 0.1993,
      "velocity": 114,
      "chip": "ym2612"
    },
    {
      "channel": 0,
      "note": 55,
      "start": 12.9553,
      "duration": 0.1929,
      "velocity": 103,
      "chip": "ym2612"
    },
    {
      "channel": 1,
      "note": 70,
      "start": 13.0554,
      "duration": 0.0933,
      "velocity": 114,
      "chip": "ym2612"
    },
    {
      "channel": 0,
      "note": 53,
      "start": 13.1484,
      "duration": 0.09,
      "velocity": 103,
      "chip": "ym2612"
    },
    {
      "channel": 1,
      "note": 72,
      "start": 13.1489,
      "duration": 0.176,
      "velocity": 114,
      "chip": "ym2612"
    },
    {
      "channel": 0,
      "note": 55,
      "start": 13.2385,
      "duration": 0.0859,
      "velocity": 103,
      "chip": "ym2612"
    },
    {
      "channel": 0,
      "note": 61,
      "start": 13.3246,
      "duration": 0.09,
      "velocity": 103,
      "chip": "ym2612"
    },
    {
      "channel": 1,
      "note": 74,
      "start": 13.3252,
      "duration": 0.19,
      "velocity": 114,
      "chip": "ym2612"
    },
    {
      "channel": 0,
      "note": 58,
      "start": 13.4148,
      "duration": 0.0999,
      "velocity": 103,
      "chip": "ym2612"
    },
    {
      "channel": 0,
      "note": 53,
      "start": 13.5148,
      "duration": 0.0937,
      "velocity": 103,
      "chip": "ym2612"
    },
    {
      "channel": 1,
      "note": 67,
      "start": 13.5153,
      "duration": 0.1931,
      "velocity": 114,
      "chip": "ym2612"
    },
    {
      "channel": 2,
      "note": 77,
      "start": 13.5159,
      "duration": 1.5053,
      "velocity": 111,
      "chip": "ym2612"
    },
    {
      "channel": 3,
      "note": 74,
      "start": 13.5165,
      "duration": 1.5053,
      "velocity": 111,
      "chip": "ym2612"
    },
    {
      "channel": 0,
      "note": 55,
      "start": 13.6087,
      "duration": 0.1997,
      "velocity": 103,
      "chip": "ym2612"
    },
    {
      "channel": 1,
      "note": 70,
      "start": 13.7086,
      "duration": 0.1003,
      "velocity": 114,
      "chip": "ym2612"
    },
    {
      "channel": 0,
      "note": 53,
      "start": 13.8085,
      "duration": 0.0999,
      "velocity": 103,
      "chip": "ym2612"
    },
    {
      "channel": 1,
      "note": 74,
      "start": 13.8091,
      "duration": 0.1875,
      "velocity": 114,
      "chip": "ym2612"
    },
    {
      "channel": 0,
      "note": 55,
      "start": 13.9086,
      "duration": 0.172,
      "velocity": 103,
      "chip": "ym2612"
    },
    {
      "channel": 1,
      "note": 70,
      "start": 13.9968,
      "duration": 0.1702,
      "velocity": 114,
      "chip": "ym2612"
    },
    {
      "channel": 0,
      "note": 53,
      "start": 14.0807,
      "duration": 0.0857,
      "velocity": 103,
      "chip": "ym2612"
    },
    {
      "channel": 0,
      "note": 55,
      "start": 14.1666,
      "duration": 0.19,
      "velocity": 103,
      "chip": "ym2612"
    },
    {
      "channel": 1,
      "note": 77,
      "start": 14.1672,
      "duration": 0.19,
      "velocity": 114,
      "chip": "ym2612"
    },
    {
      "channel": 0,
      "note": 53,
      "start": 14.3568,
      "duration": 0.0947,
      "velocity": 103,
      "chip": "ym2612"
    },
    {
      "channel": 1,
      "note": 75,
      "start": 14.3574,
      "duration": 0.1942,
      "velocity": 114,
      "chip": "ym2612"
    },
    {
      "channel": 0,
      "note": 55,
      "start": 14.4517,
      "duration": 0.1928,
      "velocity": 103,
      "chip": "ym2612"
    },
    {
      "channel": 1,
      "note": 70,
      "start": 14.5518,
      "duration": 0.0933,
      "velocity": 114,
      "chip": "ym2612"
    },
    {
      "channel": 0,
      "note": 53,
      "start": 14.6447,
      "duration": 0.0923,
      "velocity": 103,
      "chip": "ym2612"
    },
    {
      "channel": 1,
      "note": 72,
      "start": 14.6453,
      "duration": 0.1782,
      "velocity": 114,
      "chip": "ym2612"
    },
    {
      "channel": 0,
      "note": 55,
      "start": 14.7371,
      "duration": 0.0858,
      "velocity": 103,
      "chip": "ym2612"
    },
    {
      "channel": 0,
      "note": 61,
      "start": 14.8232,
      "duration": 0.0968,
      "velocity": 103,
      "chip": "ym2612"
    },
    {
      "channel": 1,
      "note": 74,
      "start": 14.8237,
      "duration": 0.1969,
      "velocity": 114,
      "chip": "ym2612"
    },
    {
      "channel": 0,
      "note": 58,
      "start": 14.9202,
      "duration": 0.0999,
      "velocity": 103,
      "chip": "ym2612"
    },
    {
      "channel": 0,
      "note": 55,
      "start": 15.0202,
      "duration": 0.0937,
      "velocity": 103,
      "chip": "ym2612"
    },
    {
      "channel": 1,
      "note": 69,
      "start": 15.0207,
      "duration": 0.1931,
      "velocity": 114,
      "chip": "ym2612"
    },
    {
      "channel": 2,
      "note": 72,
      "start": 15.0213,
      "duration": 1.5093,
      "velocity": 111,
      "chip": "ym2612"
    },
    {
      "channel": 3,
      "note": 76,
      "start": 15.0219,
      "duration": 1.5093,
      "velocity": 111,
      "chip": "ym2612"
    },
    {
      "channel": 0,
      "note": 57,
      "start": 15.114,
      "duration": 0.1997,
      "velocity": 103,
      "chip": "ym2612"
    },
    {
      "channel": 1,
      "note": 72,
      "start": 15.214,
      "duration": 0.1003,
      "velocity": 114,
      "chip": "ym2612"
    },
    {
      "channel": 0,
      "note": 55,
      "start": 15.3139,
      "duration": 0.0999,
      "velocity": 103,
      "chip": "ym2612"
    },
    {
      "channel": 1,
      "note": 76,
      "start": 15.3145,
      "duration": 0.1877,
      "velocity": 114,
      "chip": "ym2612"
    },
    {
      "channel": 0,
      "note": 57,
      "start": 15.414,
      "duration": 0.1722,
      "velocity": 103,
      "chip": "ym2612"
    },
    {
      "channel": 1,
      "note": 72,
      "start": 15.5024,
      "duration": 0.1724,
      "velocity": 114,
      "chip": "ym2612"
    },
    {
      "channel": 0,
      "note": 55,
      "start": 15.5863,
      "duration": 0.0879,
      "velocity": 103,
      "chip": "ym2612"
    },
    {
      "channel": 0,
      "note": 57,
      "start": 15.6744,
      "duration": 0.1905,
      "velocity": 103,
      "chip": "ym2612"
    },
    {
      "channel": 1,
      "note": 79,
      "start": 15.675,
      "duration": 0.1905,
      "velocity": 114,
      "chip": "ym2612"
    },
    {
      "channel": 0,
      "note": 55,
      "start": 15.8651,
      "duration": 0.0997,
      "velocity": 103,
      "chip": "ym2612"
    },
    {
      "channel": 1,
      "note": 77,
      "start": 15.8657,
      "duration": 0.1993,
      "velocity": 114,
      "chip": "ym2612"
    },
    {
      "channel": 0,
      "note": 57,
      "start": 15.9651,
      "duration": 0.1929,
      "velocity": 103,
      "chip": "ym2612"
    },
    {
      "channel": 1,
      "note": 72,
      "start": 16.0652,
      "duration": 0.0933,
      "velocity": 114,
      "chip": "ym2612"
    },
    {
      "channel": 0,
      "note": 55,
      "start": 16.1581,
      "duration": 0.0921,
      "velocity": 103,
      "chip": "ym2612"
    },
    {
      "channel": 1,
      "note": 74,
      "start": 16.1587,
      "duration": 0.1764,
      "velocity": 114,
      "chip": "ym2612"
    },
    {
      "channel": 0,
      "note": 57,
      "start": 16.2505,
      "duration": 0.0841,
      "velocity": 103,
      "chip": "ym2612"
    },
    {
      "channel": 0,
      "note": 63,
      "start": 16.3347,
      "duration": 0.0946,
      "velocity": 103,
      "chip": "ym2612"
    },
    {
      "channel": 1,
      "note": 76,
      "start": 16.3353,
      "duration": 0.1947,
      "velocity": 114,
      "chip": "ym2612"
    },
    {
      "channel": 0,
      "note": 60,
      "start": 16.4295,
      "duration": 0.0999,
      "velocity": 103,
      "chip": "ym2612"
    },
    {
      "channel": 0,
      "note": 55,
      "start": 16.5296,
      "duration": 0.0937,
      "velocity": 103,
      "chip": "ym2612"
    },
    {
      "channel": 1,
      "note": 69,
      "start": 16.5302,
      "duration": 0.1931,
      "velocity": 114,
      "chip": "ym2612"
    },
    {
      "channel": 2,
      "note": 79,
      "start": 16.5307,
      "duration": 1.5007,
      "velocity": 91,
      "chip": "ym2612"
    },
    {
      "channel": 3,
      "note": 76,
      "start": 16.5312,
      "duration": 1.5023,
      "velocity": 91,
      "chip": "ym2612"
    },
    {
      "channel": 0,
      "note": 57,
      "start": 16.6235,
      "duration": 0.1997,
      "velocity": 103,
      "chip": "ym2612"
    },
    {
      "channel": 1,
      "note": 72,
      "start": 16.7234,
      "duration": 0.1003,
      "velocity": 114,
      "chip": "ym2612"
    },
    {
      "channel": 0,
      "note": 55,
      "start": 16.8234,
      "duration": 0.0999,
      "velocity": 103,
      "chip": "ym2612"
    },
    {
      "channel": 1,
      "note": 76,
      "start": 16.8239,
      "duration": 0.1877,
      "velocity": 114,
      "chip": "ym2612"
    },
    {
      "channel": 0,
      "note": 57,
      "start": 16.9234,
      "duration": 0.1722,
      "velocity": 103,
      "chip": "ym2612"
    },
    {
      "channel": 1,
      "note": 72,
      "start": 17.0118,
      "duration": 0.1702,
      "velocity": 114,
      "chip": "ym2612"
    },
    {
      "channel": 0,
      "note": 55,
      "start": 17.0957,
      "duration": 0.0857,
      "velocity": 103,
      "chip": "ym2612"
    },
    {
      "channel": 0,
      "note": 57,
      "start": 17.1817,
      "duration": 0.19,
      "velocity": 103,
      "chip": "ym2612"
    },
    {
      "channel": 1,
      "note": 79,
      "start": 17.1822,
      "duration": 0.19,
      "velocity": 114,
      "chip": "ym2612"
    },
    {
      "channel": 0,
      "note": 55,
      "start": 17.3718,
      "duration": 0.0968,
      "velocity": 103,
      "chip": "ym2612"
    },
    {
      "channel": 1,
      "note": 77,
      "start": 17.3724,
      "duration": 0.1867,
      "velocity": 114,
      "chip": "ym2612"
    },
    {
      "channel": 0,
      "note": 57,
      "start": 17.4688,
      "duration": 0.1822,
      "velocity": 103,
      "chip": "ym2612"
    },
    {
      "channel": 1,
      "note": 72,
      "start": 17.5593,
      "duration": 0.0922,
      "velocity": 114,
      "chip": "ym2612"
    },
    {
      "channel": 0,
      "note": 55,
      "start": 17.6512,
      "duration": 0.0924,
      "velocity": 103,
      "chip": "ym2612"
    },
    {
      "channel": 1,
      "note": 74,
      "start": 17.6517,
      "duration": 0.181,
      "velocity": 114,
      "chip": "ym2612"
    },
    {
      "channel": 0,
      "note": 57,
      "start": 17.7438,
      "duration": 0.0883,
      "velocity": 103,
      "chip": "ym2612"
    },
    {
      "channel": 0,
      "note": 63,
      "start": 17.8323,
      "duration": 0.0947,
      "velocity": 103,
      "chip": "ym2612"
    },
    {
      "channel": 1,
      "note": 76,
      "start": 17.8329,
      "duration": 0.1963,
      "velocity": 114,
      "chip": "ym2612"
    },
    {
      "channel": 0,
      "note": 60,
      "start": 17.9272,
      "duration": 0.1014,
      "velocity": 127,
      "chip": "ym2612"
    },
    {
      "channel": 0,
      "note": 55,
      "start": 18.0288,
      "duration": 0.1894,
      "velocity": 127,
      "chip": "ym2612"
    },
    {
      "channel": 1,
      "note": 67,
      "start": 18.0294,
      "duration": 0.1893,
      "velocity": 114,
      "chip": "ym2612"
    },
    {
      "channel": 2,
      "note": 91,
      "start": 18.0316,
      "duration": 0.0868,
      "velocity": 91,
      "chip": "ym2612"
    },
    {
      "channel": 3,
      "note": 92,
      "start": 18.0337,
      "duration": 0.0853,
      "velocity": 91,
      "chip": "ym2612"
    },
    {
      "channel": 2,
      "note": 90,
      "start": 18.1186,
      "duration": 0.1008,
      "velocity": 91,
      "chip": "ym2612"
    },
    {
      "channel": 3,
      "note": 91,
      "start": 18.1191,
      "duration": 0.1008,
      "velocity": 91,
      "chip": "ym2612"
    },
    {
      "channel": 0,
      "note": 67,
      "start": 18.2184,
      "duration": 0.1999,
      "velocity": 127,
      "chip": "ym2612"
    },
    {
      "channel": 1,
      "note": 70,
      "start": 18.219,
      "duration": 0.0993,
      "velocity": 114,
      "chip": "ym2612"
    },
    {
      "channel": 2,
      "note": 87,
      "start": 18.2195,
      "duration": 0.0993,
      "velocity": 91,
      "chip": "ym2612"
    },
    {
      "channel": 3,
      "note": 90,
      "start": 18.2201,
      "duration": 0.0993,
      "velocity": 91,
      "chip": "ym2612"
    },
    {
      "channel": 1,
      "note": 74,
      "start": 18.3184,
      "duration": 0.19,
      "velocity": 114,
      "chip": "ym2612"
    },
    {
      "channel": 2,
      "note": 86,
      "start": 18.319,
      "duration": 0.0999,
      "velocity": 91,
      "chip": "ym2612"
    },
    {
      "channel": 3,
      "note": 87,
      "start": 18.3196,
      "duration": 0.0999,
      "velocity": 91,
      "chip": "ym2612"
    },
    {
      "channel": 0,
      "note": 57,
      "start": 18.4184,
      "duration": 0.176,
      "velocity": 127,
      "chip": "ym2612"
    },
    {
      "channel": 2,
      "note": 91,
      "start": 18.419,
      "duration": 0.09,
      "velocity": 91,
      "chip": "ym2612"
    },
    {
      "channel": 3,
      "note": 86,
      "start": 18.4196,
      "duration": 0.09,
      "velocity": 91,
      "chip": "ym2612"
    },
    {
      "channel": 1,
      "note": 70,
      "start": 18.5087,
      "duration": 0.17,
      "velocity": 114,
      "chip": "ym2612"
    },
    {
      "channel": 2,
      "note": 90,
      "start": 18.5092,
      "duration": 0.0859,
      "velocity": 91,
      "chip": "ym2612"
    },
    {
      "channel": 3,
      "note": 91,
      "start": 18.5098,
      "duration": 0.0859,
      "velocity": 91,
      "chip": "ym2612"
    },
    {
      "channel": 0,
      "note": 69,
      "start": 18.5946,
      "duration": 0.1783,
      "velocity": 127,
      "chip": "ym2612"
    },
    {
      "channel": 2,
      "note": 87,
      "start": 18.5953,
      "duration": 0.084,
      "velocity": 91,
      "chip": "ym2612"
    },
    {
      "channel": 3,
      "note": 90,
      "start": 18.5958,
      "duration": 0.084,
      "velocity": 91,
      "chip": "ym2612"
    },
    {
      "channel": 1,
      "note": 77,
      "start": 18.6789,
      "duration": 0.1864,
      "velocity": 114,
      "chip": "ym2612"
    },
    {
      "channel": 2,
      "note": 86,
      "start": 18.6795,
      "duration": 0.0941,
      "velocity": 91,
      "chip": "ym2612"
    },
    {
      "channel": 3,
      "note": 87,
      "start": 18.68,
      "duration": 0.0941,
      "velocity": 91,
      "chip": "ym2612"
    },
    {
      "channel": 0,
      "note": 58,
      "start": 18.7732,
      "duration": 0.192,
      "velocity": 127,
      "chip": "ym2612"
    },
    {
      "channel": 2,
      "note": 84,
      "start": 18.7738,
      "duration": 0.092,
      "velocity": 91,
      "chip": "ym2612"
    },
    {
      "channel": 3,
      "note": 86,
      "start": 18.7744,
      "duration": 0.092,
      "velocity": 91,
      "chip": "ym2612"
    },
    {
      "channel": 1,
      "note": 75,
      "start": 18.8654,
      "duration": 0.1998,
      "velocity": 114,
      "chip": "ym2612"
    },
    {
      "channel": 2,
      "note": 86,
      "start": 18.866,
      "duration": 0.0997,
      "velocity": 91,
      "chip": "ym2612"
    },
    {
      "channel": 3,
      "note": 84,
      "start": 18.8666,
      "duration": 0.0998,
      "velocity": 91,
      "chip": "ym2612"
    },
    {
      "channel": 0,
      "note": 70,
      "start": 18.9653,
      "duration": 0.1921,
      "velocity": 127,
      "chip": "ym2612"
    },
    {
      "channel": 2,
      "note": 87,
      "start": 18.966,
      "duration": 0.0999,
      "velocity": 91,
      "chip": "ym2612"
    },
    {
      "channel": 3,
      "note": 86,
      "start": 18.9665,
      "duration": 0.0999,
      "velocity": 91,
      "chip": "ym2612"
    },
    {
      "channel": 1,
      "note": 70,
      "start": 19.0654,
      "duration": 0.0925,
      "velocity": 114,
      "chip": "ym2612"
    },
    {
      "channel": 2,
      "note": 90,
      "start": 19.066,
      "duration": 0.0925,
      "velocity": 91,
      "chip": "ym2612"
    },
    {
      "channel": 3,
      "note": 87,
      "start": 19.0666,
      "duration": 0.0925,
      "velocity": 91,
      "chip": "ym2612"
    },
    {
      "channel": 0,
      "note": 59,
      "start": 19.1576,
      "duration": 0.172,
      "velocity": 127,
      "chip": "ym2612"
    },
    {
      "channel": 1,
      "note": 72,
      "start": 19.1581,
      "duration": 0.172,
      "velocity": 114,
      "chip": "ym2612"
    },
    {
      "channel": 2,
      "note": 84,
      "start": 19.1587,
      "duration": 0.0847,
      "velocity": 91,
      "chip": "ym2612"
    },
    {
      "channel": 3,
      "note": 90,
      "start": 19.1593,
      "duration": 0.0847,
      "velocity": 91,
      "chip": "ym2612"
    },
    {
      "channel": 2,
      "note": 86,
      "start": 19.2436,
      "duration": 0.0871,
      "velocity": 91,
      "chip": "ym2612"
    },
    {
      "channel": 3,
      "note": 84,
      "start": 19.2442,
      "duration": 0.0871,
      "velocity": 91,
      "chip": "ym2612"
    },
    {
      "channel": 0,
      "note": 71,
      "start": 19.3298,
      "duration": 0.1947,
      "velocity": 127,
      "chip": "ym2612"
    },
    {
      "channel": 1,
      "note": 74,
      "start": 19.3304,
      "duration": 0.1947,
      "velocity": 114,
      "chip": "ym2612"
    },
    {
      "channel": 2,
      "note": 87,
      "start": 19.3309,
      "duration": 0.0937,
      "velocity": 91,
      "chip": "ym2612"
    },
    {
      "channel": 3,
      "note": 86,
      "start": 19.3314,
      "duration": 0.0937,
      "velocity": 91,
      "chip": "ym2612"
    },
    {
      "channel": 2,
      "note": 90,
      "start": 19.4247,
      "duration": 0.1009,
      "velocity": 91,
      "chip": "ym2612"
    },
    {
      "channel": 3,
      "note": 87,
      "start": 19.4253,
      "duration": 0.1009,
      "velocity": 91,
      "chip": "ym2612"
    },
    {
      "channel": 0,
      "note": 60,
      "start": 19.5246,
      "duration": 0.1936,
      "velocity": 127,
      "chip": "ym2612"
    },
    {
      "channel": 1,
      "note": 67,
      "start": 19.5252,
      "duration": 0.1936,
      "velocity": 114,
      "chip": "ym2612"
    },
    {
      "channel": 2,
      "note": 94,
      "start": 19.5258,
      "duration": 0.0927,
      "velocity": 91,
      "chip": "ym2612"
    },
    {
      "channel": 3,
      "note": 90,
      "start": 19.5263,
      "duration": 0.0927,
      "velocity": 91,
      "chip": "ym2612"
    },
    {
      "channel": 2,
      "note": 93,
      "start": 19.6187,
      "duration": 0.1008,
      "velocity": 91,
      "chip": "ym2612"
    },
    {
      "channel": 3,
      "note": 94,
      "start": 19.6192,
      "duration": 0.1008,
      "velocity": 91,
      "chip": "ym2612"
    },
    {
      "channel": 0,
      "note": 72,
      "start": 19.7185,
      "duration": 0.1999,
      "velocity": 127,
      "chip": "ym2612"
    },
    {
      "channel": 1,
      "note": 70,
      "start": 19.719,
      "duration": 0.0993,
      "velocity": 114,
      "chip": "ym2612"
    },
    {
      "channel": 2,
      "note": 91,
      "start": 19.7196,
      "duration": 0.0993,
      "velocity": 91,
      "chip": "ym2612"
    },
    {
      "channel": 3,
      "note": 93,
      "start": 19.7202,
      "duration": 0.0993,
      "velocity": 91,
      "chip": "ym2612"
    },
    {
      "channel": 1,
      "note": 74,
      "start": 19.8185,
      "duration": 0.1863,
      "velocity": 114,
      "chip": "ym2612"
    },
    {
      "channel": 2,
      "note": 90,
      "start": 19.8191,
      "duration": 0.0999,
      "velocity": 91,
      "chip": "ym2612"
    },
    {
      "channel": 3,
      "note": 91,
      "start": 19.8197,
      "duration": 0.0999,
      "velocity": 91,
      "chip": "ym2612"
    },
    {
      "channel": 0,
      "note": 61,
      "start": 19.9185,
      "duration": 0.1722,
      "velocity": 127,
      "chip": "ym2612"
    },
    {
      "channel": 2,
      "note": 94,
      "start": 19.9192,
      "duration": 0.0862,
      "velocity": 91,
      "chip": "ym2612"
    },
    {
      "channel": 3,
      "note": 90,
      "start": 19.9198,
      "duration": 0.0862,
      "velocity": 91,
      "chip": "ym2612"
    },
    {
      "channel": 1,
      "note": 70,
      "start": 20.005,
      "duration": 0.1739,
      "velocity": 114,
      "chip": "ym2612"
    },
    {
      "channel": 2,
      "note": 93,
      "start": 20.0055,
      "duration": 0.0859,
      "velocity": 91,
      "chip": "ym2612"
    },
    {
      "channel": 3,
      "note": 94,
      "start": 20.0061,
      "duration": 0.0859,
      "velocity": 91,
      "chip": "ym2612"
    },
    {
      "channel": 0,
      "note": 73,
      "start": 20.091,
      "duration": 0.1801,
      "velocity": 127,
      "chip": "ym2612"
    },
    {
      "channel": 2,
      "note": 91,
      "start": 20.0916,
      "duration": 0.0879,
      "velocity": 91,
      "chip": "ym2612"
    },
    {
      "channel": 3,
      "note": 93,
      "start": 20.0922,
      "duration": 0.0879,
      "velocity": 91,
      "chip": "ym2612"
    },
    {
      "channel": 1,
      "note": 77,
      "start": 20.1791,
      "duration": 0.192,
      "velocity": 114,
      "chip": "ym2612"
    },
    {
      "channel": 2,
      "note": 90,
      "start": 20.1797,
      "duration": 0.092,
      "velocity": 91,
      "chip": "ym2612"
    },
    {
      "channel": 3,
      "note": 91,
      "start": 20.1803,
      "duration": 0.092,
      "velocity": 91,
      "chip": "ym2612"
    },
    {
      "channel": 0,
      "note": 62,
      "start": 20.2713,
      "duration": 0.192,
      "velocity": 127,
      "chip": "ym2612"
    },
    {
      "channel": 2,
      "note": 99,
      "start": 20.2719,
      "duration": 0.0999,
      "velocity": 91,
      "chip": "ym2612"
    },
    {
      "channel": 3,
      "note": 90,
      "start": 20.2724,
      "duration": 0.0999,
      "velocity": 91,
      "chip": "ym2612"
    },
    {
      "channel": 1,
      "note": 75,
      "start": 20.3713,
      "duration": 0.192,
      "velocity": 114,
      "chip": "ym2612"
    },
    {
      "channel": 2,
      "note": 98,
      "start": 20.3719,
      "duration": 0.092,
      "velocity": 91,
      "chip": "ym2612"
    },
    {
      "channel": 3,
      "note": 99,
      "start": 20.3725,
      "duration": 0.092,
      "velocity": 91,
      "chip": "ym2612"
    },
    {
      "channel": 0,
      "note": 74,
      "start": 20.4635,
      "duration": 0.1947,
      "velocity": 127,
      "chip": "ym2612"
    },
    {
      "channel": 2,
      "note": 96,
      "start": 20.4641,
      "duration": 0.0999,
      "velocity": 91,
      "chip": "ym2612"
    },
    {
      "channel": 3,
      "note": 98,
      "start": 20.4646,
      "duration": 0.0999,
      "velocity": 91,
      "chip": "ym2612"
    },
    {
      "channel": 1,
      "note": 70,
      "start": 20.5636,
      "duration": 0.0952,
      "velocity": 114,
      "chip": "ym2612"
    },
    {
      "channel": 2,
      "note": 94,
      "start": 20.5641,
      "duration": 0.0953,
      "velocity": 91,
      "chip": "ym2612"
    },
    {
      "channel": 3,
      "note": 96,
      "start": 20.5646,
      "duration": 0.0953,
      "velocity": 91,
      "chip": "ym2612"
    },
    {
      "channel": 0,
      "note": 54,
      "start": 20.6584,
      "duration": 0.1744,
      "velocity": 127,
      "chip": "ym2612"
    },
    {
      "channel": 1,
      "note": 72,
      "start": 20.659,
      "duration": 0.1744,
      "velocity": 114,
      "chip": "ym2612"
    },
    {
      "channel": 2,
      "note": 93,
      "start": 20.6596,
      "duration": 0.0891,
      "velocity": 91,
      "chip": "ym2612"
    },
    {
      "channel": 3,
      "note": 94,
      "start": 20.6601,
      "duration": 0.0892,
      "velocity": 91,
      "chip": "ym2612"
    },
    {
      "channel": 2,
      "note": 91,
      "start": 20.7489,
      "duration": 0.0851,
      "velocity": 91,
      "chip": "ym2612"
    },
    {
      "channel": 3,
      "note": 93,
      "start": 20.7495,
      "duration": 0.0851,
      "velocity": 91,
      "chip": "ym2612"
    },
    {
      "channel": 0,
      "note": 66,
      "start": 20.833,
      "duration": 0.193,
      "velocity": 127,
      "chip": "ym2612"
    },
    {
      "channel": 1,
      "note": 74,
      "start": 20.8336,
      "duration": 0.193,
      "velocity": 114,
      "chip": "ym2612"
    },
    {
      "channel": 2,
      "note": 90,
      "start": 20.8342,
      "duration": 0.092,
      "velocity": 91,
      "chip": "ym2612"
    },
    {
      "channel": 3,
      "note": 91,
      "start": 20.8348,
      "duration": 0.092,
      "velocity": 91,
      "chip": "ym2612"
    },
    {
      "channel": 2,
      "note": 86,
      "start": 20.9263,
      "duration": 0.1009,
      "velocity": 91,
      "chip": "ym2612"
    },
    {
      "channel": 3,
      "note": 90,
      "start": 20.9269,
      "duration": 0.1009,
      "velocity": 91,
      "chip": "ym2612"
    },
    {
      "channel": 0,
      "note": 57,
      "start": 21.0263,
      "duration": 0.1936,
      "velocity": 127,
      "chip": "ym2612"
    },
    {
      "channel": 1,
      "note": 69,
      "start": 21.0268,
      "duration": 0.1937,
      "velocity": 114,
      "chip": "ym2612"
    },
    {
      "channel": 2,
      "note": 96,
      "start": 21.0273,
      "duration": 0.0927,
      "velocity": 91,
      "chip": "ym2612"
    },
    {
      "channel": 3,
      "note": 86,
      "start": 21.0279,
      "duration": 0.0927,
      "velocity": 91,
      "chip": "ym2612"
    },
    {
      "channel": 2,
      "note": 95,
      "start": 21.1202,
      "duration": 0.1008,
      "velocity": 91,
      "chip": "ym2612"
    },
    {
      "channel": 3,
      "note": 96,
      "start": 21.1208,
      "duration": 0.1008,
      "velocity": 91,
      "chip": "ym2612"
    },
    {
      "channel": 0,
      "note": 69,
      "start": 21.2201,
      "duration": 0.1999,
      "velocity": 127,
      "chip": "ym2612"
    },
    {
      "channel": 1,
      "note": 72,
      "start": 21.2206,
      "duration": 0.0993,
      "velocity": 114,
      "chip": "ym2612"
    },
    {
      "channel": 2,
      "note": 94,
      "start": 21.2212,
      "duration": 0.0993,
      "velocity": 91,
      "chip": "ym2612"
    },
    {
      "channel": 3,
      "note": 95,
      "start": 21.2218,
      "duration": 0.0993,
      "velocity": 91,
      "chip": "ym2612"
    },
    {
      "channel": 1,
      "note": 76,
      "start": 21.3201,
      "duration": 0.1902,
      "velocity": 114,
      "chip": "ym2612"
    },
    {
      "channel": 2,
      "note": 93,
      "start": 21.3207,
      "duration": 0.0999,
      "velocity": 91,
      "chip": "ym2612"
    },
    {
      "channel": 3,
      "note": 94,
      "start": 21.3213,
      "duration": 0.0999,
      "velocity": 91,
      "chip": "ym2612"
    },
    {
      "channel": 0,
      "note": 59,
      "start": 21.4201,
      "duration": 0.1765,
      "velocity": 127,
      "chip": "ym2612"
    },
    {
      "channel": 2,
      "note": 96,
      "start": 21.4207,
      "duration": 0.0901,
      "velocity": 91,
      "chip": "ym2612"
    },
    {
      "channel": 3,
      "note": 93,
      "start": 21.4213,
      "duration": 0.0901,
      "velocity": 91,
      "chip": "ym2612"
    },
    {
      "channel": 1,
      "note": 72,
      "start": 21.5105,
      "duration": 0.1744,
      "velocity": 114,
      "chip": "ym2612"
    },
    {
      "channel": 2,
      "note": 95,
      "start": 21.511,
      "duration": 0.0862,
      "velocity": 91,
      "chip": "ym2612"
    },
    {
      "channel": 3,
      "note": 96,
      "start": 21.5115,
      "duration": 0.0863,
      "velocity": 91,
      "chip": "ym2612"
    },
    {
      "channel": 0,
      "note": 71,
      "start": 21.5968,
      "duration": 0.1861,
      "velocity": 127,
      "chip": "ym2612"
    },
    {
      "channel": 2,
      "note": 94,
      "start": 21.5975,
      "duration": 0.0879,
      "velocity": 91,
      "chip": "ym2612"
    },
    {
      "channel": 3,
      "note": 95,
      "start": 21.598,
      "duration": 0.0879,
      "velocity": 91,
      "chip": "ym2612"
    },
    {
      "channel": 1,
      "note": 79,
      "start": 21.685,
      "duration": 0.1901,
      "velocity": 114,
      "chip": "ym2612"
    },
    {
      "channel": 2,
      "note": 93,
      "start": 21.6856,
      "duration": 0.0979,
      "velocity": 91,
      "chip": "ym2612"
    },
    {
      "channel": 3,
      "note": 94,
      "start": 21.6862,
      "duration": 0.0979,
      "velocity": 91,
      "chip": "ym2612"
    },
    {
      "channel": 0,
      "note": 60,
      "start": 21.783,
      "duration": 0.192,
      "velocity": 127,
      "chip": "ym2612"
    },
    {
      "channel": 2,
      "note": 87,
      "start": 21.7837,
      "duration": 0.092,
      "velocity": 91,
      "chip": "ym2612"
    },
    {
      "channel": 3,
      "note": 93,
      "start": 21.7843,
      "duration": 0.092,
      "velocity": 91,
      "chip": "ym2612"
    },
    {
      "channel": 1,
      "note": 77,
      "start": 21.8753,
      "duration": 0.1998,
      "velocity": 114,
      "chip": "ym2612"
    },
    {
      "channel": 2,
      "note": 88,
      "start": 21.8759,
      "duration": 0.0998,
      "velocity": 91,
      "chip": "ym2612"
    },
    {
      "channel": 3,
      "note": 87,
      "start": 21.8764,
      "duration": 0.0998,
      "velocity": 91,
      "chip": "ym2612"
    },
    {
      "channel": 0,
      "note": 72,
      "start": 21.9752,
      "duration": 0.1918,
      "velocity": 127,
      "chip": "ym2612"
    },
    {
      "channel": 2,
      "note": 89,
      "start": 21.9759,
      "duration": 0.0999,
      "velocity": 91,
      "chip": "ym2612"
    },
    {
      "channel": 3,
      "note": 88,
      "start": 21.9764,
      "duration": 0.0999,
      "velocity": 91,
      "chip": "ym2612"
    },
    {
      "channel": 1,
      "note": 72,
      "start": 22.0753,
      "duration": 0.0922,
      "velocity": 114,
      "chip": "ym2612"
    },
    {
      "channel": 2,
      "note": 88,
      "start": 22.0759,
      "duration": 0.0923,
      "velocity": 91,
      "chip": "ym2612"
    },
    {
      "channel": 3,
      "note": 89,
      "start": 22.0764,
      "duration": 0.0923,
      "velocity": 91,
      "chip": "ym2612"
    },
    {
      "channel": 0,
      "note": 62,
      "start": 22.1672,
      "duration": 0.172,
      "velocity": 127,
      "chip": "ym2612"
    },
    {
      "channel": 1,
      "note": 74,
      "start": 22.1677,
      "duration": 0.1721,
      "velocity": 114,
      "chip": "ym2612"
    },
    {
      "channel": 2,
      "note": 87,
      "start": 22.1683,
      "duration": 0.087,
      "velocity": 91,
      "chip": "ym2612"
    },
    {
      "channel": 3,
      "note": 88,
      "start": 22.1688,
      "duration": 0.087,
      "velocity": 91,
      "chip": "ym2612"
    },
    {
      "channel": 2,
      "note": 88,
      "start": 22.2554,
      "duration": 0.085,
      "velocity": 91,
      "chip": "ym2612"
    },
    {
      "channel": 3,
      "note": 87,
      "start": 22.256,
      "duration": 0.085,
      "velocity": 91,
      "chip": "ym2612"
    },
    {
      "channel": 0,
      "note": 74,
      "start": 22.3394,
      "duration": 0.1937,
      "velocity": 127,
      "chip": "ym2612"
    },
    {
      "channel": 1,
      "note": 76,
      "start": 22.34,
      "duration": 0.1937,
      "velocity": 114,
      "chip": "ym2612"
    },
    {
      "channel": 2,
      "note": 89,
      "start": 22.3405,
      "duration": 0.0927,
      "velocity": 91,
      "chip": "ym2612"
    },
    {
      "channel": 3,
      "note": 88,
      "start": 22.341,
      "duration": 0.0927,
      "velocity": 91,
      "chip": "ym2612"
    },
    {
      "channel": 2,
      "note": 88,
      "start": 22.4333,
      "duration": 0.1009,
      "velocity": 91,
      "chip": "ym2612"
    },
    {
      "channel": 3,
      "note": 89,
      "start": 22.4339,
      "duration": 0.1009,
      "velocity": 91,
      "chip": "ym2612"
    },
    {
      "channel": 0,
      "note": 63,
      "start": 22.5332,
      "duration": 0.1936,
      "velocity": 127,
      "chip": "ym2612"
    },
    {
      "channel": 1,
      "note": 69,
      "start": 22.5338,
      "duration": 0.1936,
      "velocity": 114,
      "chip": "ym2612"
    },
    {
      "channel": 2,
      "note": 96,
      "start": 22.5343,
      "duration": 0.0927,
      "velocity": 91,
      "chip": "ym2612"
    },
    {
      "channel": 3,
      "note": 88,
      "start": 22.5349,
      "duration": 0.0927,
      "velocity": 91,
      "chip": "ym2612"
    },
    {
      "channel": 2,
      "note": 95,
      "start": 22.6271,
      "duration": 0.1008,
      "velocity": 91,
      "chip": "ym2612"
    },
    {
      "channel": 3,
      "note": 96,
      "start": 22.6277,
      "duration": 0.1008,
      "velocity": 91,
      "chip": "ym2612"
    },
    {
      "channel": 0,
      "note": 75,
      "start": 22.727,
      "duration": 0.1999,
      "velocity": 127,
      "chip": "ym2612"
    },
    {
      "channel": 1,
      "note": 72,
      "start": 22.7276,
      "duration": 0.0993,
      "velocity": 114,
      "chip": "ym2612"
    },
    {
      "channel": 2,
      "note": 94,
      "start": 22.7282,
      "duration": 0.0993,
      "velocity": 91,
      "chip": "ym2612"
    },
    {
      "channel": 3,
      "note": 95,
      "start": 22.7287,
      "duration": 0.0993,
      "velocity": 91,
      "chip": "ym2612"
    },
    {
      "channel": 1,
      "note": 76,
      "start": 22.8271,
      "duration": 0.1863,
      "velocity": 114,
      "chip": "ym2612"
    },
    {
      "channel": 2,
      "note": 93,
      "start": 22.8277,
      "duration": 0.0999,
      "velocity": 91,
      "chip": "ym2612"
    },
    {
      "channel": 3,
      "note": 94,
      "start": 22.8282,
      "duration": 0.0999,
      "velocity": 91,
      "chip": "ym2612"
    },
    {
      "channel": 0,
      "note": 64,
      "start": 22.9271,
      "duration": 0.1742,
      "velocity": 127,
      "chip": "ym2612"
    },
    {
      "channel": 2,
      "note": 96,
      "start": 22.9277,
      "duration": 0.0862,
      "velocity": 91,
      "chip": "ym2612"
    },
    {
      "channel": 3,
      "note": 93,
      "start": 22.9283,
      "duration": 0.0862,
      "velocity": 91,
      "chip": "ym2612"
    },
    {
      "channel": 1,
      "note": 72,
      "start": 23.0136,
      "duration": 0.1738,
      "velocity": 114,
      "chip": "ym2612"
    },
    {
      "channel": 2,
      "note": 95,
      "start": 23.0141,
      "duration": 0.0878,
      "velocity": 91,
      "chip": "ym2612"
    },
    {
      "channel": 3,
      "note": 96,
      "start": 23.0147,
      "duration": 0.0878,
      "velocity": 91,
      "chip": "ym2612"
    },
    {
      "channel": 0,
      "note": 76,
      "start": 23.1015,
      "duration": 0.178,
      "velocity": 127,
      "chip": "ym2612"
    },
    {
      "channel": 2,
      "note": 94,
      "start": 23.1021,
      "duration": 0.0859,
      "velocity": 91,
      "chip": "ym2612"
    },
    {
      "channel": 3,
      "note": 95,
      "start": 23.1026,
      "duration": 0.0859,
      "velocity": 91,
      "chip": "ym2612"
    },
    {
      "channel": 1,
      "note": 79,
      "start": 23.1875,
      "duration": 0.192,
      "velocity": 114,
      "chip": "ym2612"
    },
    {
      "channel": 2,
      "note": 93,
      "start": 23.1881,
      "duration": 0.092,
      "velocity": 91,
      "chip": "ym2612"
    },
    {
      "channel": 3,
      "note": 94,
      "start": 23.1887,
      "duration": 0.092,
      "velocity": 91,
      "chip": "ym2612"
    },
    {
      "channel": 0,
      "note": 65,
      "start": 23.2797,
      "duration": 0.1947,
      "velocity": 127,
      "chip": "ym2612"
    },
    {
      "channel": 2,
      "note": 101,
      "start": 23.2803,
      "duration": 0.0999,
      "velocity": 91,
      "chip": "ym2612"
    },
    {
      "channel": 3,
      "note": 93,
      "start": 23.2808,
      "duration": 0.0999,
      "velocity": 91,
      "chip": "ym2612"
    },
    {
      "channel": 1,
      "note": 77,
      "start": 23.3798,
      "duration": 0.1851,
      "velocity": 114,
      "chip": "ym2612"
    },
    {
      "channel": 2,
      "note": 100,
      "start": 23.3803,
      "duration": 0.0948,
      "velocity": 91,
      "chip": "ym2612"
    },
    {
      "channel": 3,
      "note": 101,
      "start": 23.3808,
      "duration": 0.0948,
      "velocity": 91,
      "chip": "ym2612"
    },
    {
      "channel": 0,
      "note": 77,
      "start": 23.4746,
      "duration": 0.182,
      "velocity": 127,
      "chip": "ym2612"
    },
    {
      "channel": 2,
      "note": 99,
      "start": 23.4752,
      "duration": 0.0902,
      "velocity": 91,
      "chip": "ym2612"
    },
    {
      "channel": 3,
      "note": 100,
      "start": 23.4758,
      "duration": 0.0902,
      "velocity": 91,
      "chip": "ym2612"
    },
    {
      "channel": 1,
      "note": 72,
      "start": 23.5651,
      "duration": 0.0921,
      "velocity": 114,
      "chip": "ym2612"
    },
    {
      "channel": 2,
      "note": 98,
      "start": 23.5656,
      "duration": 0.0921,
      "velocity": 91,
      "chip": "ym2612"
    },
    {
      "channel": 3,
      "note": 99,
      "start": 23.5661,
      "duration": 0.0922,
      "velocity": 91,
      "chip": "ym2612"
    },
    {
      "channel": 0,
      "note": 66,
      "start": 23.6568,
      "duration": 0.1782,
      "velocity": 127,
      "chip": "ym2612"
    },
    {
      "channel": 1,
      "note": 74,
      "start": 23.6574,
      "duration": 0.1781,
      "velocity": 114,
      "chip": "ym2612"
    },
    {
      "channel": 2,
      "note": 97,
      "start": 23.658,
      "duration": 0.0891,
      "velocity": 91,
      "chip": "ym2612"
    },
    {
      "channel": 3,
      "note": 98,
      "start": 23.6585,
      "duration": 0.0892,
      "velocity": 91,
      "chip": "ym2612"
    },
    {
      "channel": 2,
      "note": 96,
      "start": 23.7472,
      "duration": 0.0889,
      "velocity": 91,
      "chip": "ym2612"
    },
    {
      "channel": 3,
      "note": 97,
      "start": 23.7477,
      "duration": 0.089,
      "velocity": 91,
      "chip": "ym2612"
    },
    {
      "channel": 0,
      "note": 62,
      "start": 23.8351,
      "duration": 0.1917,
      "velocity": 127,
      "chip": "ym2612"
    },
    {
      "channel": 1,
      "note": 76,
      "start": 23.8357,
      "duration": 0.1917,
      "velocity": 114,
      "chip": "ym2612"
    },
    {
      "channel": 2,
      "note": 95,
      "start": 23.8362,
      "duration": 0.0906,
      "velocity": 91,
      "chip": "ym2612"
    },
    {
      "channel": 3,
      "note": 96,
      "start": 23.8368,
      "duration": 0.0906,
      "velocity": 91,
      "chip": "ym2612"
    },
    {
      "channel": 2,
      "note": 92,
      "start": 23.927,
      "duration": 0.101,
      "velocity": 91,
      "chip": "ym2612"
    },
    {
      "channel": 3,
      "note": 95,
      "start": 23.9276,
      "duration": 0.1011,
      "velocity": 91,
      "chip": "ym2612"
    },
    {
      "channel": 0,
      "note": 55,
      "start": 24.0269,
      "duration": 0.1898,
      "velocity": 127,
      "chip": "ym2612"
    },
    {
      "channel": 1,
      "note": 67,
      "start": 24.0276,
      "duration": 0.1898,
      "velocity": 114,
      "chip": "ym2612"
    },
    {
      "channel": 2,
      "note": 91,
      "start": 24.0282,
      "duration": 0.0888,
      "velocity": 91,
      "chip": "ym2612"
    },
    {
      "channel": 3,
      "note": 92,
      "start": 24.0288,
      "duration": 0.0887,
      "velocity": 91,
      "chip": "ym2612"
    },
    {
      "channel": 2,
      "note": 90,
      "start": 24.1172,
      "duration": 0.1008,
      "velocity": 91,
      "chip": "ym2612"
    },
    {
      "channel": 3,
      "note": 91,
      "start": 24.1177,
      "duration": 0.1008,
      "velocity": 91,
      "chip": "ym2612"
    },
    {
      "channel": 0,
      "note": 67,
      "start": 24.217,
      "duration": 0.1999,
      "velocity": 127,
      "chip": "ym2612"
    },
    {
      "channel": 1,
      "note": 70,
      "start": 24.2176,
      "duration": 0.0993,
      "velocity": 114,
      "chip": "ym2612"
    },
    {
      "channel": 2,
      "note": 87,
      "start": 24.2181,
      "duration": 0.0993,
      "velocity": 91,
      "chip": "ym2612"
    },
    {
      "channel": 3,
      "note": 90,
      "start": 24.2187,
      "duration": 0.0993,
      "velocity": 91,
      "chip": "ym2612"
    },
    {
      "channel": 1,
      "note": 74,
      "start": 24.317,
      "duration": 0.1902,
      "velocity": 114,
      "chip": "ym2612"
    },
    {
      "channel": 2,
      "note": 86,
      "start": 24.3176,
      "duration": 0.0999,
      "velocity": 91,
      "chip": "ym2612"
    },
    {
      "channel": 3,
      "note": 87,
      "start": 24.3182,
      "duration": 0.0999,
      "velocity": 91,
      "chip": "ym2612"
    },
    {
      "channel": 0,
      "note": 57,
      "start": 24.417,
      "duration": 0.1762,
      "velocity": 127,
      "chip": "ym2612"
    },
    {
      "channel": 2,
      "note": 91,
      "start": 24.4176,
      "duration": 0.0902,
      "velocity": 91,
      "chip": "ym2612"
    },
    {
      "channel": 3,
      "note": 86,
      "start": 24.4182,
      "duration": 0.0902,
      "velocity": 91,
      "chip": "ym2612"
    },
    {
      "channel": 1,
      "note": 70,
      "start": 24.5075,
      "duration": 0.1719,
      "velocity": 114,
      "chip": "ym2612"
    },
    {
      "channel": 2,
      "note": 90,
      "start": 24.508,
      "duration": 0.0859,
      "velocity": 91,
      "chip": "ym2612"
    },
    {
      "channel": 3,
      "note": 91,
      "start": 24.5085,
      "duration": 0.0859,
      "velocity": 91,
      "chip": "ym2612"
    },
    {
      "channel": 0,
      "note": 69,
      "start": 24.5934,
      "duration": 0.1818,
      "velocity": 127,
      "chip": "ym2612"
    },
    {
      "channel": 2,
      "note": 87,
      "start": 24.594,
      "duration": 0.0859,
      "velocity": 91,
      "chip": "ym2612"
    },
    {
      "channel": 3,
      "note": 90,
      "start": 24.5946,
      "duration": 0.0859,
      "velocity": 91,
      "chip": "ym2612"
    },
    {
      "channel": 1,
      "note": 77,
      "start": 24.6796,
      "duration": 0.188,
      "velocity": 114,
      "chip": "ym2612"
    },
    {
      "channel": 2,
      "note": 86,
      "start": 24.6801,
      "duration": 0.0958,
      "velocity": 91,
      "chip": "ym2612"
    },
    {
      "channel": 3,
      "note": 87,
      "start": 24.6807,
      "duration": 0.0958,
      "velocity": 91,
      "chip": "ym2612"
    },
    {
      "channel": 0,
      "note": 58,
      "start": 24.7754,
      "duration": 0.192,
      "velocity": 127,
      "chip": "ym2612"
    },
    {
      "channel": 2,
      "note": 84,
      "start": 24.7761,
      "duration": 0.092,
      "velocity": 91,
      "chip": "ym2612"
    },
    {
      "channel": 3,
      "note": 86,
      "start": 24.7767,
      "duration": 0.092,
      "velocity": 91,
      "chip": "ym2612"
    },
    {
      "channel": 1,
      "note": 75,
      "start": 24.8677,
      "duration": 0.1998,
      "velocity": 114,
      "chip": "ym2612"
    },
    {
      "channel": 2,
      "note": 86,
      "start": 24.8683,
      "duration": 0.0997,
      "velocity": 91,
      "chip": "ym2612"
    },
    {
      "channel": 3,
      "note": 84,
      "start": 24.8689,
      "duration": 0.0998,
      "velocity": 91,
      "chip": "ym2612"
    },
    {
      "channel": 0,
      "note": 70,
      "start": 24.9676,
      "duration": 0.1921,
      "velocity": 127,
      "chip": "ym2612"
    },
    {
      "channel": 2,
      "note": 87,
      "start": 24.9683,
      "duration": 0.0999,
      "velocity": 91,
      "chip": "ym2612"
    },
    {
      "channel": 3,
      "note": 86,
      "start": 24.9688,
      "duration": 0.0999,
      "velocity": 91,
      "chip": "ym2612"
    },
    {
      "channel": 1,
      "note": 70,
      "start": 25.0677,
      "duration": 0.0925,
      "velocity": 114,
      "chip": "ym2612"
    },
    {
      "channel": 2,
      "note": 90,
      "start": 25.0683,
      "duration": 0.0925,
      "velocity": 91,
      "chip": "ym2612"
    },
    {
      "channel": 3,
      "note": 87,
      "start": 25.0689,
      "duration": 0.0925,
      "velocity": 91,
      "chip": "ym2612"
    },
    {
      "channel": 0,
      "note": 59,
      "start": 25.1599,
      "duration": 0.1761,
      "velocity": 127,
      "chip": "ym2612"
    },
    {
      "channel": 1,
      "note": 72,
      "start": 25.1605,
      "duration": 0.1761,
      "velocity": 114,
      "chip": "ym2612"
    },
    {
      "channel": 2,
      "note": 84,
      "start": 25.161,
      "duration": 0.0892,
      "velocity": 91,
      "chip": "ym2612"
    },
    {
      "channel": 3,
      "note": 90,
      "start": 25.1615,
      "duration": 0.0893,
      "velocity": 91,
      "chip": "ym2612"
    },
    {
      "channel": 2,
      "note": 86,
      "start": 25.2504,
      "duration": 0.0867,
      "velocity": 91,
      "chip": "ym2612"
    },
    {
      "channel": 3,
      "note": 84,
      "start": 25.251,
      "duration": 0.0867,
      "velocity": 91,
      "chip": "ym2612"
    },
    {
      "channel": 0,
      "note": 71,
      "start": 25.3361,
      "duration": 0.193,
      "velocity": 127,
      "chip": "ym2612"
    },
    {
      "channel": 1,
      "note": 74,
      "start": 25.3367,
      "duration": 0.193,
      "velocity": 114,
      "chip": "ym2612"
    },
    {
      "channel": 2,
      "note": 87,
      "start": 25.3373,
      "duration": 0.092,
      "velocity": 91,
      "chip": "ym2612"
    },
    {
      "channel": 3,
      "note": 86,
      "start": 25.3379,
      "duration": 0.092,
      "velocity": 91,
      "chip": "ym2612"
    },
    {
      "channel": 2,
      "note": 90,
      "start": 25.4294,
      "duration": 0.1009,
      "velocity": 91,
      "chip": "ym2612"
    },
    {
      "channel": 3,
      "note": 87,
      "start": 25.43,
      "duration": 0.1009,
      "velocity": 91,
      "chip": "ym2612"
    },
    {
      "channel": 0,
      "note": 60,
      "start": 25.5294,
      "duration": 0.1937,
      "velocity": 127,
      "chip": "ym2612"
    },
    {
      "channel": 1,
      "note": 67,
      "start": 25.53,
      "duration": 0.1936,
      "velocity": 114,
      "chip": "ym2612"
    },
    {
      "channel": 2,
      "note": 94,
      "start": 25.5305,
      "duration": 0.0927,
      "velocity": 91,
      "chip": "ym2612"
    },
    {
      "channel": 3,
      "note": 90,
      "start": 25.531,
      "duration": 0.0928,
      "velocity": 91,
      "chip": "ym2612"
    },
    {
      "channel": 2,
      "note": 93,
      "start": 25.6234,
      "duration": 0.1008,
      "velocity": 91,
      "chip": "ym2612"
    },
    {
      "channel": 3,
      "note": 94,
      "start": 25.624,
      "duration": 0.1008,
      "velocity": 91,
      "chip": "ym2612"
    },
    {
      "channel": 0,
      "note": 72,
      "start": 25.7232,
      "duration": 0.1999,
      "velocity": 127,
      "chip": "ym2612"
    },
    {
      "channel": 1,
      "note": 70,
      "start": 25.7238,
      "duration": 0.0993,
      "velocity": 114,
      "chip": "ym2612"
    },
    {
      "channel": 2,
      "note": 91,
      "start": 25.7244,
      "duration": 0.0993,
      "velocity": 91,
      "chip": "ym2612"
    },
    {
      "channel": 3,
      "note": 93,
      "start": 25.7249,
      "duration": 0.0993,
      "velocity": 91,
      "chip": "ym2612"
    },
    {
      "channel": 1,
      "note": 74,
      "start": 25.8233,
      "duration": 0.1901,
      "velocity": 114,
      "chip": "ym2612"
    },
    {
      "channel": 2,
      "note": 90,
      "start": 25.8239,
      "duration": 0.0999,
      "velocity": 91,
      "chip": "ym2612"
    },
    {
      "channel": 3,
      "note": 91,
      "start": 25.8244,
      "duration": 0.0999,
      "velocity": 91,
      "chip": "ym2612"
    },
    {
      "channel": 0,
      "note": 61,
      "start": 25.9233,
      "duration": 0.1742,
      "velocity": 127,
      "chip": "ym2612"
    },
    {
      "channel": 2,
      "note": 94,
      "start": 25.9239,
      "duration": 0.0901,
      "velocity": 91,
      "chip": "ym2612"
    },
    {
      "channel": 3,
      "note": 90,
      "start": 25.9244,
      "duration": 0.0901,
      "velocity": 91,
      "chip": "ym2612"
    },
    {
      "channel": 1,
      "note": 70,
      "start": 26.0135,
      "duration": 0.17,
      "velocity": 114,
      "chip": "ym2612"
    },
    {
      "channel": 2,
      "note": 93,
      "start": 26.0141,
      "duration": 0.084,
      "velocity": 91,
      "chip": "ym2612"
    },
    {
      "channel": 3,
      "note": 94,
      "start": 26.0146,
      "duration": 0.084,
      "velocity": 91,
      "chip": "ym2612"
    },
    {
      "channel": 0,
      "note": 73,
      "start": 26.0976,
      "duration": 0.178,
      "velocity": 127,
      "chip": "ym2612"
    },
    {
      "channel": 2,
      "note": 91,
      "start": 26.0982,
      "duration": 0.0859,
      "velocity": 91,
      "chip": "ym2612"
    },
    {
      "channel": 3,
      "note": 93,
      "start": 26.0988,
      "duration": 0.0859,
      "velocity": 91,
      "chip": "ym2612"
    },
    {
      "channel": 1,
      "note": 77,
      "start": 26.1837,
      "duration": 0.192,
      "velocity": 114,
      "chip": "ym2612"
    },
    {
      "channel": 2,
      "note": 90,
      "start": 26.1843,
      "duration": 0.092,
      "velocity": 91,
      "chip": "ym2612"
    },
    {
      "channel": 3,
      "note": 91,
      "start": 26.1849,
      "duration": 0.092,
      "velocity": 91,
      "chip": "ym2612"
    },
    {
      "channel": 0,
      "note": 62,
      "start": 26.2759,
      "duration": 0.192,
      "velocity": 127,
      "chip": "ym2612"
    },
    {
      "channel": 2,
      "note": 99,
      "start": 26.2764,
      "duration": 0.0999,
      "velocity": 91,
      "chip": "ym2612"
    },
    {
      "channel": 3,
      "note": 90,
      "start": 26.277,
      "duration": 0.0999,
      "velocity": 91,
      "chip": "ym2612"
    },
    {
      "channel": 1,
      "note": 75,
      "start": 26.3759,
      "duration": 0.192,
      "velocity": 114,
      "chip": "ym2612"
    },
    {
      "channel": 2,
      "note": 98,
      "start": 26.3765,
      "duration": 0.092,
      "velocity": 91,
      "chip": "ym2612"
    },
    {
      "channel": 3,
      "note": 99,
      "start": 26.3771,
      "duration": 0.092,
      "velocity": 91,
      "chip": "ym2612"
    },
    {
      "channel": 0,
      "note": 74,
      "start": 26.4681,
      "duration": 0.1917,
      "velocity": 127,
      "chip": "ym2612"
    },
    {
      "channel": 2,
      "note": 96,
      "start": 26.4687,
      "duration": 0.0999,
      "velocity": 91,
      "chip": "ym2612"
    },
    {
      "channel": 3,
      "note": 98,
      "start": 26.4692,
      "duration": 0.0999,
      "velocity": 91,
      "chip": "ym2612"
    },
    {
      "channel": 1,
      "note": 70,
      "start": 26.5681,
      "duration": 0.0922,
      "velocity": 114,
      "chip": "ym2612"
    },
    {
      "channel": 2,
      "note": 94,
      "start": 26.5687,
      "duration": 0.0923,
      "velocity": 91,
      "chip": "ym2612"
    },
    {
      "channel": 3,
      "note": 96,
      "start": 26.5692,
      "duration": 0.0923,
      "velocity": 91,
      "chip": "ym2612"
    },
    {
      "channel": 0,
      "note": 54,
      "start": 26.66,
      "duration": 0.1745,
      "velocity": 127,
      "chip": "ym2612"
    },
    {
      "channel": 1,
      "note": 72,
      "start": 26.6606,
      "duration": 0.1745,
      "velocity": 114,
      "chip": "ym2612"
    },
    {
      "channel": 2,
      "note": 93,
      "start": 26.6611,
      "duration": 0.0892,
      "velocity": 91,
      "chip": "ym2612"
    },
    {
      "channel": 3,
      "note": 94,
      "start": 26.6616,
      "duration": 0.0893,
      "velocity": 91,
      "chip": "ym2612"
    },
    {
      "channel": 2,
      "note": 91,
      "start": 26.7505,
      "duration": 0.0851,
      "velocity": 91,
      "chip": "ym2612"
    },
    {
      "channel": 3,
      "note": 93,
      "start": 26.7511,
      "duration": 0.0851,
      "velocity": 91,
      "chip": "ym2612"
    },
    {
      "channel": 0,
      "note": 66,
      "start": 26.8347,
      "duration": 0.193,
      "velocity": 127,
      "chip": "ym2612"
    },
    {
      "channel": 1,
      "note": 74,
      "start": 26.8353,
      "duration": 0.193,
      "velocity": 114,
      "chip": "ym2612"
    },
    {
      "channel": 2,
      "note": 90,
      "start": 26.8358,
      "duration": 0.092,
      "velocity": 91,
      "chip": "ym2612"
    },
    {
      "channel": 3,
      "note": 91,
      "start": 26.8364,
      "duration": 0.092,
      "velocity": 91,
      "chip": "ym2612"
    },
    {
      "channel": 2,
      "note": 86,
      "start": 26.928,
      "duration": 0.1009,
      "velocity": 91,
      "chip": "ym2612"
    },
    {
      "channel": 3,
      "note": 90,
      "start": 26.9285,
      "duration": 0.1009,
      "velocity": 91,
      "chip": "ym2612"
    },
    {
      "channel": 0,
      "note": 57,
      "start": 27.0279,
      "duration": 0.1936,
      "velocity": 127,
      "chip": "ym2612"
    },
    {
      "channel": 1,
      "note": 69,
      "start": 27.0284,
      "duration": 0.1936,
      "velocity": 114,
      "chip": "ym2612"
    },
    {
      "channel": 2,
      "note": 96,
      "start": 27.029,
      "duration": 0.0927,
      "velocity": 91,
      "chip": "ym2612"
    },
    {
      "channel": 3,
      "note": 86,
      "start": 27.0295,
      "duration": 0.0927,
      "velocity": 91,
      "chip": "ym2612"
    },
    {
      "channel": 2,
      "note": 95,
      "start": 27.1219,
      "duration": 0.1008,
      "velocity": 91,
      "chip": "ym2612"
    },
    {
      "channel": 3,
      "note": 96,
      "start": 27.1224,
      "duration": 0.1008,
      "velocity": 91,
      "chip": "ym2612"
    },
    {
      "channel": 0,
      "note": 69,
      "start": 27.2217,
      "duration": 0.1999,
      "velocity": 127,
      "chip": "ym2612"
    },
    {
      "channel": 1,
      "note": 72,
      "start": 27.2222,
      "duration": 0.0993,
      "velocity": 114,
      "chip": "ym2612"
    },
    {
      "channel": 2,
      "note": 94,
      "start": 27.2228,
      "duration": 0.0993,
      "velocity": 91,
      "chip": "ym2612"
    },
    {
      "channel": 3,
      "note": 95,
      "start": 27.2234,
      "duration": 0.0993,
      "velocity": 91,
      "chip": "ym2612"
    },
    {
      "channel": 1,
      "note": 76,
      "start": 27.3217,
      "duration": 0.1902,
      "velocity": 114,
      "chip": "ym2612"
    },
    {
      "channel": 2,
      "note": 93,
      "start": 27.3223,
      "duration": 0.0999,
      "velocity": 91,
      "chip": "ym2612"
    },
    {
      "channel": 3,
      "note": 94,
      "start": 27.3229,
      "duration": 0.0999,
      "velocity": 91,
      "chip": "ym2612"
    },
    {
      "channel": 0,
      "note": 59,
      "start": 27.4217,
      "duration": 0.1762,
      "velocity": 127,
      "chip": "ym2612"
    },
    {
      "channel": 2,
      "note": 96,
      "start": 27.4223,
      "duration": 0.0902,
      "velocity": 91,
      "chip": "ym2612"
    },
    {
      "channel": 3,
      "note": 93,
      "start": 27.4229,
      "duration": 0.0902,
      "velocity": 91,
      "chip": "ym2612"
    },
    {
      "channel": 1,
      "note": 72,
      "start": 27.5122,
      "duration": 0.1719,
      "velocity": 114,
      "chip": "ym2612"
    },
    {
      "channel": 2,
      "note": 95,
      "start": 27.5127,
      "duration": 0.0859,
      "velocity": 91,
      "chip": "ym2612"
    },
    {
      "channel": 3,
      "note": 96,
      "start": 27.5132,
      "duration": 0.0859,
      "velocity": 91,
      "chip": "ym2612"
    },
    {
      "channel": 0,
      "note": 71,
      "start": 27.5981,
      "duration": 0.1818,
      "velocity": 127,
      "chip": "ym2612"
    },
    {
      "channel": 2,
      "note": 94,
      "start": 27.5987,
      "duration": 0.0859,
      "velocity": 91,
      "chip": "ym2612"
    },
    {
      "channel": 3,
      "note": 95,
      "start": 27.5993,
      "duration": 0.0859,
      "velocity": 91,
      "chip": "ym2612"
    },
    {
      "channel": 1,
      "note": 79,
      "start": 27.6843,
      "duration": 0.188,
      "velocity": 114,
      "chip": "ym2612"
    },
    {
      "channel": 2,
      "note": 93,
      "start": 27.6848,
      "duration": 0.0958,
      "velocity": 91,
      "chip": "ym2612"
    },
    {
      "channel": 3,
      "note": 94,
      "start": 27.6854,
      "duration": 0.0958,
      "velocity": 91,
      "chip": "ym2612"
    },
    {
      "channel": 0,
      "note": 60,
      "start": 27.7801,
      "duration": 0.192,
      "velocity": 127,
      "chip": "ym2612"
    },
    {
      "channel": 2,
      "note": 87,
      "start": 27.7808,
      "duration": 0.092,
      "velocity": 91,
      "chip": "ym2612"
    },
    {
      "channel": 3,
      "note": 93,
      "start": 27.7814,
      "duration": 0.092,
      "velocity": 91,
      "chip": "ym2612"
    },
    {
      "channel": 1,
      "note": 77,
      "start": 27.8724,
      "duration": 0.1998,
      "velocity": 114,
      "chip": "ym2612"
    },
    {
      "channel": 2,
      "note": 88,
      "start": 27.8729,
      "duration": 0.0998,
      "velocity": 91,
      "chip": "ym2612"
    },
    {
      "channel": 3,
      "note": 87,
      "start": 27.8735,
      "duration": 0.0998,
      "velocity": 91,
      "chip": "ym2612"
    },
    {
      "channel": 0,
      "note": 72,
      "start": 27.9723,
      "duration": 0.1918,
      "velocity": 127,
      "chip": "ym2612"
    },
    {
      "channel": 2,
      "note": 89,
      "start": 27.9729,
      "duration": 0.0999,
      "velocity": 91,
      "chip": "ym2612"
    },
    {
      "channel": 3,
      "note": 88,
      "start": 27.9735,
      "duration": 0.0999,
      "velocity": 91,
      "chip": "ym2612"
    },
    {
      "channel": 1,
      "note": 72,
      "start": 28.0724,
      "duration": 0.0923,
      "velocity": 114,
      "chip": "ym2612"
    },
    {
      "channel": 2,
      "note": 88,
      "start": 28.0729,
      "duration": 0.0923,
      "velocity": 91,
      "chip": "ym2612"
    },
    {
      "channel": 3,
      "note": 89,
      "start": 28.0735,
      "duration": 0.0923,
      "velocity": 91,
      "chip": "ym2612"
    },
    {
      "channel": 0,
      "note": 62,
      "start": 28.1643,
      "duration": 0.172,
      "velocity": 127,
      "chip": "ym2612"
    },
    {
      "channel": 1,
      "note": 74,
      "start": 28.1648,
      "duration": 0.172,
      "velocity": 114,
      "chip": "ym2612"
    },
    {
      "channel": 2,
      "note": 87,
      "start": 28.1654,
      "duration": 0.0847,
      "velocity": 91,
      "chip": "ym2612"
    },
    {
      "channel": 3,
      "note": 88,
      "start": 28.1659,
      "duration": 0.0847,
      "velocity": 91,
      "chip": "ym2612"
    },
    {
      "channel": 2,
      "note": 88,
      "start": 28.2502,
      "duration": 0.0871,
      "velocity": 91,
      "chip": "ym2612"
    },
    {
      "channel": 3,
      "note": 87,
      "start": 28.2508,
      "duration": 0.0871,
      "velocity": 91,
      "chip": "ym2612"
    },
    {
      "channel": 0,
      "note": 74,
      "start": 28.3364,
      "duration": 0.193,
      "velocity": 127,
      "chip": "ym2612"
    },
    {
      "channel": 1,
      "note": 76,
      "start": 28.337,
      "duration": 0.193,
      "velocity": 114,
      "chip": "ym2612"
    },
    {
      "channel": 2,
      "note": 89,
      "start": 28.3376,
      "duration": 0.092,
      "velocity": 91,
      "chip": "ym2612"
    },
    {
      "channel": 3,
      "note": 88,
      "start": 28.3381,
      "duration": 0.092,
      "velocity": 91,
      "chip": "ym2612"
    },
    {
      "channel": 2,
      "note": 88,
      "start": 28.4297,
      "duration": 0.1009,
      "velocity": 91,
      "chip": "ym2612"
    },
    {
      "channel": 3,
      "note": 89,
      "start": 28.4303,
      "duration": 0.1009,
      "velocity": 91,
      "chip": "ym2612"
    },
    {
      "channel": 0,
      "note": 63,
      "start": 28.5296,
      "duration": 0.1743,
      "velocity": 127,
      "chip": "ym2612"
    },
    {
      "channel": 1,
      "note": 69,
      "start": 28.5302,
      "duration": 0.1743,
      "velocity": 114,
      "chip": "ym2612"
    },
    {
      "channel": 2,
      "note": 96,
      "start": 28.5308,
      "duration": 0.0892,
      "velocity": 91,
      "chip": "ym2612"
    },
    {
      "channel": 3,
      "note": 88,
      "start": 28.5313,
      "duration": 0.0893,
      "velocity": 91,
      "chip": "ym2612"
    },
    {
      "channel": 2,
      "note": 95,
      "start": 28.6201,
      "duration": 0.0849,
      "velocity": 91,
      "chip": "ym2612"
    },
    {
      "channel": 3,
      "note": 96,
      "start": 28.6207,
      "duration": 0.0849,
      "velocity": 91,
      "chip": "ym2612"
    },
    {
      "channel": 0,
      "note": 75,
      "start": 28.7041,
      "duration": 0.1787,
      "velocity": 127,
      "chip": "ym2612"
    },
    {
      "channel": 1,
      "note": 72,
      "start": 28.7047,
      "duration": 0.0878,
      "velocity": 114,
      "chip": "ym2612"
    },
    {
      "channel": 2,
      "note": 94,
      "start": 28.7052,
      "duration": 0.0878,
      "velocity": 91,
      "chip": "ym2612"
    },
    {
      "channel": 3,
      "note": 95,
      "start": 28.7058,
      "duration": 0.0878,
      "velocity": 91,
      "chip": "ym2612"
    },
    {
      "channel": 1,
      "note": 76,
      "start": 28.7927,
      "duration": 0.1872,
      "velocity": 114,
      "chip": "ym2612"
    },
    {
      "channel": 2,
      "note": 93,
      "start": 28.7932,
      "duration": 0.0903,
      "velocity": 91,
      "chip": "ym2612"
    },
    {
      "channel": 3,
      "note": 94,
      "start": 28.7937,
      "duration": 0.0903,
      "velocity": 91,
      "chip": "ym2612"
    },
    {
      "channel": 0,
      "note": 64,
      "start": 28.883,
      "duration": 0.1968,
      "velocity": 127,
      "chip": "ym2612"
    },
    {
      "channel": 2,
      "note": 96,
      "start": 28.8836,
      "duration": 0.0968,
      "velocity": 91,
      "chip": "ym2612"
    },
    {
      "channel": 3,
      "note": 93,
      "start": 28.8841,
      "duration": 0.0968,
      "velocity": 91,
      "chip": "ym2612"
    },
    {
      "channel": 1,
      "note": 72,
      "start": 28.98,
      "duration": 0.1902,
      "velocity": 114,
      "chip": "ym2612"
    },
    {
      "channel": 2,
      "note": 95,
      "start": 28.9805,
      "duration": 0.0999,
      "velocity": 91,
      "chip": "ym2612"
    },
    {
      "channel": 3,
      "note": 96,
      "start": 28.9811,
      "duration": 0.0999,
      "velocity": 91,
      "chip": "ym2612"
    },
    {
      "channel": 0,
      "note": 76,
      "start": 29.08,
      "duration": 0.1763,
      "velocity": 127,
      "chip": "ym2612"
    },
    {
      "channel": 2,
      "note": 94,
      "start": 29.0805,
      "duration": 0.0902,
      "velocity": 91,
      "chip": "ym2612"
    },
    {
      "channel": 3,
      "note": 95,
      "start": 29.0811,
      "duration": 0.0902,
      "velocity": 91,
      "chip": "ym2612"
    },
    {
      "channel": 1,
      "note": 79,
      "start": 29.1704,
      "duration": 0.1722,
      "velocity": 114,
      "chip": "ym2612"
    },
    {
      "channel": 2,
      "note": 93,
      "start": 29.171,
      "duration": 0.0859,
      "velocity": 91,
      "chip": "ym2612"
    },
    {
      "channel": 3,
      "note": 94,
      "start": 29.1715,
      "duration": 0.0859,
      "velocity": 91,
      "chip": "ym2612"
    },
    {
      "channel": 0,
      "note": 65,
      "start": 29.2564,
      "duration": 0.1784,
      "velocity": 127,
      "chip": "ym2612"
    },
    {
      "channel": 2,
      "note": 101,
      "start": 29.2571,
      "duration": 0.0861,
      "velocity": 91,
      "chip": "ym2612"
    },
    {
      "channel": 3,
      "note": 93,
      "start": 29.2576,
      "duration": 0.0861,
      "velocity": 91,
      "chip": "ym2612"
    },
    {
      "channel": 1,
      "note": 77,
      "start": 29.3428,
      "duration": 0.187,
      "velocity": 114,
      "chip": "ym2612"
    },
    {
      "channel": 2,
      "note": 100,
      "start": 29.3433,
      "duration": 0.0922,
      "velocity": 91,
      "chip": "ym2612"
    },
    {
      "channel": 3,
      "note": 101,
      "start": 29.3439,
      "duration": 0.0922,
      "velocity": 91,
      "chip": "ym2612"
    },
    {
      "channel": 0,
      "note": 77,
      "start": 29.435,
      "duration": 0.1947,
      "velocity": 127,
      "chip": "ym2612"
    },
    {
      "channel": 2,
      "note": 99,
      "start": 29.4356,
      "duration": 0.0947,
      "velocity": 91,
      "chip": "ym2612"
    },
    {
      "channel": 3,
      "note": 100,
      "start": 29.4362,
      "duration": 0.0947,
      "velocity": 91,
      "chip": "ym2612"
    },
    {
      "channel": 1,
      "note": 72,
      "start": 29.5299,
      "duration": 0.1004,
      "velocity": 114,
      "chip": "ym2612"
    },
    {
      "channel": 2,
      "note": 98,
      "start": 29.5305,
      "duration": 0.1004,
      "velocity": 91,
      "chip": "ym2612"
    },
    {
      "channel": 3,
      "note": 99,
      "start": 29.531,
      "duration": 0.1004,
      "velocity": 91,
      "chip": "ym2612"
    },
    {
      "channel": 0,
      "note": 66,
      "start": 29.6299,
      "duration": 0.1741,
      "velocity": 127,
      "chip": "ym2612"
    },
    {
      "channel": 1,
      "note": 74,
      "start": 29.6304,
      "duration": 0.1741,
      "velocity": 114,
      "chip": "ym2612"
    },
    {
      "channel": 2,
      "note": 97,
      "start": 29.631,
      "duration": 0.087,
      "velocity": 91,
      "chip": "ym2612"
    },
    {
      "channel": 3,
      "note": 98,
      "start": 29.6315,
      "duration": 0.087,
      "velocity": 91,
      "chip": "ym2612"
    },
    {
      "channel": 2,
      "note": 96,
      "start": 29.7181,
      "duration": 0.087,
      "velocity": 91,
      "chip": "ym2612"
    },
    {
      "channel": 3,
      "note": 97,
      "start": 29.7187,
      "duration": 0.087,
      "velocity": 91,
      "chip": "ym2612"
    },
    {
      "channel": 0,
      "note": 62,
      "start": 29.8041,
      "duration": 0.1734,
      "velocity": 103,
      "chip": "ym2612"
    },
    {
      "channel": 1,
      "note": 76,
      "start": 29.8047,
      "duration": 0.1734,
      "velocity": 114,
      "chip": "ym2612"
    },
    {
      "channel": 2,
      "note": 95,
      "start": 29.8052,
      "duration": 0.0848,
      "velocity": 91,
      "chip": "ym2612"
    },
    {
      "channel": 3,
      "note": 96,
      "start": 29.8058,
      "duration": 0.0848,
      "velocity": 91,
      "chip": "ym2612"
    },
    {
      "channel": 2,
      "note": 92,
      "start": 29.8902,
      "duration": 0.09,
      "velocity": 111,
      "chip": "ym2612"
    },
    {
      "channel": 3,
      "note": 95,
      "start": 29.8908,
      "duration": 0.0916,
      "velocity": 111,
      "chip": "ym2612"
    },
    {
      "channel": 0,
      "note": 53,
      "start": 29.9776,
      "duration": 0.0915,
      "velocity": 103,
      "chip": "ym2612"
    },
    {
      "channel": 1,
      "note": 67,
      "start": 29.9782,
      "duration": 0.1908,
      "velocity": 114,
      "chip": "ym2612"
    },
    {
      "channel": 2,
      "note": 70,
      "start": 29.9804,
      "duration": 1.5066,
      "velocity": 111,
      "chip": "ym2612"
    },
    {
      "channel": 3,
      "note": 74,
      "start": 29.9825,
      "duration": 1.5051,
      "velocity": 111,
      "chip": "ym2612"
    },
    {
      "channel": 0,
      "note": 55,
      "start": 30.0693,
      "duration": 0.1997,
      "velocity": 103,
      "chip": "ym2612"
    },
    {
      "channel": 1,
      "note": 70,
      "start": 30.1693,
      "duration": 0.1003,
      "velocity": 114,
      "chip": "ym2612"
    },
    {
      "channel": 0,
      "note": 53,
      "start": 30.2692,
      "duration": 0.0999,
      "velocity": 103,
      "chip": "ym2612"
    },
    {
      "channel": 1,
      "note": 74,
      "start": 30.2698,
      "duration": 0.1877,
      "velocity": 114,
      "chip": "ym2612"
    },
    {
      "channel": 0,
      "note": 55,
      "start": 30.3693,
      "duration": 0.1722,
      "velocity": 103,
      "chip": "ym2612"
    },
    {
      "channel": 1,
      "note": 70,
      "start": 30.4576,
      "duration": 0.1724,
      "velocity": 114,
      "chip": "ym2612"
    },
    {
      "channel": 0,
      "note": 53,
      "start": 30.5415,
      "duration": 0.088,
      "velocity": 103,
      "chip": "ym2612"
    },
    {
      "channel": 0,
      "note": 55,
      "start": 30.6297,
      "duration": 0.1907,
      "velocity": 103,
      "chip": "ym2612"
    },
    {
      "channel": 1,
      "note": 77,
      "start": 30.6303,
      "duration": 0.1907,
      "velocity": 114,
      "chip": "ym2612"
    },
    {
      "channel": 0,
      "note": 53,
      "start": 30.8206,
      "duration": 0.0997,
      "velocity": 103,
      "chip": "ym2612"
    },
    {
      "channel": 1,
      "note": 75,
      "start": 30.8212,
      "duration": 0.1993,
      "velocity": 114,
      "chip": "ym2612"
    },
    {
      "channel": 0,
      "note": 55,
      "start": 30.9205,
      "duration": 0.1929,
      "velocity": 103,
      "chip": "ym2612"
    },
    {
      "channel": 1,
      "note": 70,
      "start": 31.0206,
      "duration": 0.0933,
      "velocity": 114,
      "chip": "ym2612"
    },
    {
      "channel": 0,
      "note": 53,
      "start": 31.1136,
      "duration": 0.0921,
      "velocity": 103,
      "chip": "ym2612"
    },
    {
      "channel": 1,
      "note": 72,
      "start": 31.1142,
      "duration": 0.1783,
      "velocity": 114,
      "chip": "ym2612"
    },
    {
      "channel": 0,
      "note": 55,
      "start": 31.2059,
      "duration": 0.0861,
      "velocity": 103,
      "chip": "ym2612"
    },
    {
      "channel": 0,
      "note": 61,
      "start": 31.2921,
      "duration": 0.0937,
      "velocity": 103,
      "chip": "ym2612"
    },
    {
      "channel": 1,
      "note": 74,
      "start": 31.2927,
      "duration": 0.1938,
      "velocity": 114,
      "chip": "ym2612"
    },
    {
      "channel": 0,
      "note": 58,
      "start": 31.386,
      "duration": 0.0999,
      "velocity": 103,
      "chip": "ym2612"
    },
    {
      "channel": 0,
      "note": 53,
      "start": 31.4861,
      "duration": 0.0937,
      "velocity": 103,
      "chip": "ym2612"
    },
    {
      "channel": 1,
      "note": 67,
      "start": 31.4866,
      "duration": 0.1931,
      "velocity": 114,
      "chip": "ym2612"
    },
    {
      "channel": 2,
      "note": 77,
      "start": 31.4871,
      "duration": 3.7569,
      "velocity": 111,
      "chip": "ym2612"
    },
    {
      "channel": 3,
      "note": 74,
      "start": 31.4877,
      "duration": 3.7563,
      "velocity": 111,
      "chip": "ym2612"
    },
    {
      "channel": 0,
      "note": 55,
      "start": 31.5799,
      "duration": 0.1997,
      "velocity": 103,
      "chip": "ym2612"
    },
    {
      "channel": 1,
      "note": 70,
      "start": 31.6799,
      "duration": 0.1003,
      "velocity": 114,
      "chip": "ym2612"
    },
    {
      "channel": 0,
      "note": 53,
      "start": 31.7798,
      "duration": 0.0999,
      "velocity": 103,
      "chip": "ym2612"
    },
    {
      "channel": 1,
      "note": 74,
      "start": 31.7804,
      "duration": 0.1877,
      "velocity": 114,
      "chip": "ym2612"
    },
    {
      "channel": 0,
      "note": 55,
      "start": 31.8799,
      "duration": 0.1722,
      "velocity": 103,
      "chip": "ym2612"
    },
    {
      "channel": 1,
      "note": 70,
      "start": 31.9683,
      "duration": 0.1725,
      "velocity": 114,
      "chip": "ym2612"
    },
    {
      "channel": 0,
      "note": 53,
      "start": 32.0522,
      "duration": 0.0881,
      "velocity": 103,
      "chip": "ym2612"
    },
    {
      "channel": 0,
      "note": 55,
      "start": 32.1405,
      "duration": 0.1968,
      "velocity": 103,
      "chip": "ym2612"
    },
    {
      "channel": 1,
      "note": 77,
      "start": 32.141,
      "duration": 0.1968,
      "velocity": 114,
      "chip": "ym2612"
    },
    {
      "channel": 0,
      "note": 53,
      "start": 32.3374,
      "duration": 0.09,
      "velocity": 103,
      "chip": "ym2612"
    },
    {
      "channel": 1,
      "note": 75,
      "start": 32.338,
      "duration": 0.1895,
      "velocity": 114,
      "chip": "ym2612"
    },
    {
      "channel": 0,
      "note": 55,
      "start": 32.4276,
      "duration": 0.1928,
      "velocity": 103,
      "chip": "ym2612"
    },
    {
      "channel": 1,
      "note": 70,
      "start": 32.5276,
      "duration": 0.0933,
      "velocity": 114,
      "chip": "ym2612"
    },
    {
      "channel": 0,
      "note": 53,
      "start": 32.6206,
      "duration": 0.0902,
      "velocity": 103,
      "chip": "ym2612"
    },
    {
      "channel": 1,
      "note": 72,
      "start": 32.6212,
      "duration": 0.1762,
      "velocity": 114,
      "chip": "ym2612"
    },
    {
      "channel": 0,
      "note": 55,
      "start": 32.711,
      "duration": 0.0858,
      "velocity": 103,
      "chip": "ym2612"
    },
    {
      "channel": 0,
      "note": 61,
      "start": 32.797,
      "duration": 0.0968,
      "velocity": 103,
      "chip": "ym2612"
    },
    {
      "channel": 1,
      "note": 74,
      "start": 32.7976,
      "duration": 2.4465,
      "velocity": 114,
      "chip": "ym2612"
    },
    {
      "channel": 0,
      "note": 58,
      "start": 32.894,
      "duration": 2.3501,
      "velocity": 103,
      "chip": "ym2612"
    }
  ]
}