{
  "track_name": "24 - Cutscene 15",
  "duration_sec": 45.686,
  "sample_rate": 44100,
  "note_count": 31,
  "unique_pitches": 5,
  "pitch_range": 48,
  "avg_note_duration": 7.3068,
  "reconstruction_stats": {
    "notes_reconstructed": 31,
    "keyon_events": 31,
    "keyoff_events": 22,
    "orphan_keyons": 5,
    "unique_pitches": 5,
    "pitch_range": 48,
    "avg_duration_sec": 7.3068
  },
  "metadata": {
    "source": "U\\Urusei Yatsura - Dear My Friends\\24 - Cutscene 15.vgz"
  },
  "notes": [
    {
      "channel": 2,
      "note": -1,
      "start": 0.0438,
      "duration": 0.1922,
      "velocity": 97,
      "chip": "ym2612"
    },
    {
      "channel": 0,
      "note": -1,
      "start": 0.2697,
      "duration": 0.2777,
      "velocity": 104,
      "chip": "ym2612"
    },
    {
      "channel": 1,
      "note": -1,
      "start": 0.2707,
      "duration": 0.2768,
      "velocity": 94,
      "chip": "ym2612"
    },
    {
      "channel": 2,
      "note": 51,
      "start": 0.2718,
      "duration": 0.2758,
      "velocity": 97,
      "chip": "ym2612"
    },
    {
      "channel": 3,
      "note": -1,
      "start": 0.2728,
      "duration": 0.275,
      "velocity": 102,
      "chip": "ym2612"
    },
    {
      "channel": 4,
      "note": -1,
      "start": 0.2739,
      "duration": 0.2741,
      "velocity": 102,
      "chip": "ym2612"
    },
    {
      "channel": 0,
      "note": 99,
      "start": 0.5814,
      "duration": 0.2611,
      "velocity": 104,
      "chip": "ym2612"
    },
    {
      "channel": 1,
      "note": 64,
      "start": 0.5824,
      "duration": 0.295,
      "velocity": 94,
      "chip": "ym2612"
    },
    {
      "channel": 2,
      "note": 51,
      "start": 0.5835,
      "duration": 0.2592,
      "velocity": 97,
      "chip": "ym2612"
    },
    {
      "channel": 3,
      "note": 82,
      "start": 0.5845,
      "duration": 0.2583,
      "velocity": 102,
      "chip": "ym2612"
    },
    {
      "channel": 4,
      "note": 87,
      "start": 0.5855,
      "duration": 0.2574,
      "velocity": 102,
      "chip": "ym2612"
    },
    {
      "channel": 0,
      "note": 99,
      "start": 0.8764,
      "duration": 0.278,
      "velocity": 104,
      "chip": "ym2612"
    },
    {
      "channel": 1,
      "note": 64,
      "start": 0.8774,
      "duration": 0.312,
      "velocity": 94,
      "chip": "ym2612"
    },
    {
      "channel": 2,
      "note": 51,
      "start": 0.8784,
      "duration": 0.2763,
      "velocity": 97,
      "chip": "ym2612"
    },
    {
      "channel": 3,
      "note": 82,
      "start": 0.8793,
      "duration": 0.2754,
      "velocity": 102,
      "chip": "ym2612"
    },
    {
      "channel": 4,
      "note": 87,
      "start": 0.8803,
      "duration": 0.2746,
      "velocity": 102,
      "chip": "ym2612"
    },
    {
      "channel": 0,
      "note": 99,
      "start": 1.1884,
      "duration": 0.2778,
      "velocity": 104,
      "chip": "ym2612"
    },
    {
      "channel": 1,
      "note": 64,
      "start": 1.1894,
      "duration": 0.3118,
      "velocity": 94,
      "chip": "ym2612"
    },
    {
      "channel": 2,
      "note": 51,
      "start": 1.1904,
      "duration": 0.2761,
      "velocity": 97,
      "chip": "ym2612"
    },
    {
      "channel": 3,
      "note": 82,
      "start": 1.1914,
      "duration": 0.2752,
      "velocity": 102,
      "chip": "ym2612"
    },
    {
      "channel": 4,
      "note": 87,
      "start": 1.1923,
      "duration": 0.2744,
      "velocity": 102,
      "chip": "ym2612"
    },
    {
      "channel": 0,
      "note": 99,
      "start": 1.5002,
      "duration": 0.2778,
      "velocity": 104,
      "chip": "ym2612"
    },
    {
      "channel": 1,
      "note": 64,
      "start": 1.5012,
      "duration": 0.3118,
      "velocity": 94,
      "chip": "ym2612"
    },
    {
      "channel": 2,
      "note": 51,
      "start": 1.5022,
      "duration": 0.2761,
      "velocity": 97,
      "chip": "ym2612"
    },
    {
      "channel": 3,
      "note": 82,
      "start": 1.5032,
      "duration": 0.2752,
      "velocity": 102,
      "chip": "ym2612"
    },
    {
      "channel": 4,
      "note": 87,
      "start": 1.5041,
      "duration": 0.2744,
      "velocity": 102,
      "chip": "ym2612"
    },
    {
      "channel": 0,
      "note": 99,
      "start": 1.8121,
      "duration": 43.8739,
      "velocity": 104,
      "chip": "ym2612"
    },
    {
      "channel": 1,
      "note": 64,
      "start": 1.813,
      "duration": 43.873,
      "velocity": 94,
      "chip": "ym2612"
    },
    {
      "channel": 2,
      "note": 51,
      "start": 1.814,
      "duration": 43.872,
      "velocity": 97,
      "chip": "ym2612"
    },
    {
      "channel": 3,
      "note": 82,
      "start": 1.815,
      "duration": 43.871,
      "velocity": 102,
      "chip": "ym2612"
    },
    {
      "channel": 4,
      "note": 87,
      "start": 1.8159,
      "duration": 43.87,
      "velocity": 102,
      "chip": "ym2612"
    }
  ]
}