{
  "track_name": "25 - Winner!",
  "duration_sec": 80.324,
  "sample_rate": 44100,
  "note_count": 412,
  "unique_pitches": 20,
  "pitch_range": 61,
  "avg_note_duration": 0.0225,
  "reconstruction_stats": {
    "notes_reconstructed": 412,
    "keyon_events": 412,
    "keyoff_events": 412,
    "orphan_keyons": 0,
    "unique_pitches": 20,
    "pitch_range": 61,
    "avg_duration_sec": 0.0225
  },
  "metadata": {
    "source": "S\\Skitchin'\\25 - Winner!.vgz"
  },
  "notes": [
    {
      "channel": 0,
      "note": 54,
      "start": 0.0,
      "duration": 0.0,
      "velocity": 88,
      "chip": "ym2612"
    },
    {
      "channel": 0,
      "note": 56,
      "start": 0.0,
      "duration": 0.0,
      "velocity": 88,
      "chip": "ym2612"
    },
    {
      "channel": 0,
      "note": 61,
      "start": 0.0,
      "duration": 0.0,
      "velocity": 88,
      "chip": "ym2612"
    },
    {
      "channel": 1,
      "note": 106,
      "start": 0.0,
      "duration": 0.0,
      "velocity": 114,
      "chip": "ym2612"
    },
    {
      "channel": 1,
      "note": 106,
      "start": 0.0,
      "duration": 0.0,
      "velocity": 127,
      "chip": "ym2612"
    },
    {
      "channel": 0,
      "note": 45,
      "start": 2.9327,
      "duration": 0.0008,
      "velocity": 88,
      "chip": "ym2612"
    },
    {
      "channel": 0,
      "note": 48,
      "start": 2.9337,
      "duration": 0.0358,
      "velocity": 88,
      "chip": "ym2612"
    },
    {
      "channel": 0,
      "note": 50,
      "start": 3.0695,
      "duration": 0.114,
      "velocity": 88,
      "chip": "ym2612"
    },
    {
      "channel": 0,
      "note": 53,
      "start": 3.1844,
      "duration": 0.0831,
      "velocity": 88,
      "chip": "ym2612"
    },
    {
      "channel": 0,
      "note": 55,
      "start": 3.3346,
      "duration": 0.0829,
      "velocity": 88,
      "chip": "ym2612"
    },
    {
      "channel": 0,
      "note": 56,
      "start": 3.4518,
      "duration": 0.0007,
      "velocity": 88,
      "chip": "ym2612"
    },
    {
      "channel": 0,
      "note": 55,
      "start": 3.4888,
      "duration": 0.1634,
      "velocity": 88,
      "chip": "ym2612"
    },
    {
      "channel": 0,
      "note": 53,
      "start": 3.7197,
      "duration": 0.0009,
      "velocity": 88,
      "chip": "ym2612"
    },
    {
      "channel": 0,
      "note": 50,
      "start": 3.7206,
      "duration": 0.0335,
      "velocity": 88,
      "chip": "ym2612"
    },
    {
      "channel": 0,
      "note": 48,
      "start": 3.7541,
      "duration": 0.1659,
      "velocity": 88,
      "chip": "ym2612"
    },
    {
      "channel": 0,
      "note": 50,
      "start": 3.9876,
      "duration": 0.0007,
      "velocity": 88,
      "chip": "ym2612"
    },
    {
      "channel": 0,
      "note": 50,
      "start": 4.0217,
      "duration": 0.0829,
      "velocity": 88,
      "chip": "ym2612"
    },
    {
      "channel": 0,
      "note": 52,
      "start": 4.2555,
      "duration": 0.0008,
      "velocity": 88,
      "chip": "ym2612"
    },
    {
      "channel": 0,
      "note": 53,
      "start": 4.2898,
      "duration": 0.0996,
      "velocity": 88,
      "chip": "ym2612"
    },
    {
      "channel": 0,
      "note": 50,
      "start": 4.4082,
      "duration": 0.1155,
      "velocity": 88,
      "chip": "ym2612"
    },
    {
      "channel": 0,
      "note": 50,
      "start": 4.5324,
      "duration": 0.0274,
      "velocity": 88,
      "chip": "ym2612"
    },
    {
      "channel": 0,
      "note": 45,
      "start": 4.6786,
      "duration": 0.0813,
      "velocity": 88,
      "chip": "ym2612"
    },
    {
      "channel": 0,
      "note": 48,
      "start": 4.7945,
      "duration": 0.0085,
      "velocity": 88,
      "chip": "ym2612"
    },
    {
      "channel": 0,
      "note": 45,
      "start": 4.8061,
      "duration": 0.0061,
      "velocity": 88,
      "chip": "ym2612"
    },
    {
      "channel": 0,
      "note": 48,
      "start": 4.8298,
      "duration": 0.0998,
      "velocity": 88,
      "chip": "ym2612"
    },
    {
      "channel": 0,
      "note": 45,
      "start": 4.9483,
      "duration": 0.066,
      "velocity": 88,
      "chip": "ym2612"
    },
    {
      "channel": 0,
      "note": 50,
      "start": 5.064,
      "duration": 0.0088,
      "velocity": 88,
      "chip": "ym2612"
    },
    {
      "channel": 0,
      "note": 50,
      "start": 5.0993,
      "duration": 0.0663,
      "velocity": 88,
      "chip": "ym2612"
    },
    {
      "channel": 0,
      "note": 52,
      "start": 5.3336,
      "duration": 0.0156,
      "velocity": 88,
      "chip": "ym2612"
    },
    {
      "channel": 0,
      "note": 53,
      "start": 5.369,
      "duration": 0.0843,
      "velocity": 88,
      "chip": "ym2612"
    },
    {
      "channel": 0,
      "note": 50,
      "start": 5.487,
      "duration": 0.1175,
      "velocity": 88,
      "chip": "ym2612"
    },
    {
      "channel": 0,
      "note": 50,
      "start": 5.6123,
      "duration": 0.0252,
      "velocity": 88,
      "chip": "ym2612"
    },
    {
      "channel": 0,
      "note": 45,
      "start": 5.7561,
      "duration": 0.0663,
      "velocity": 88,
      "chip": "ym2612"
    },
    {
      "channel": 0,
      "note": 48,
      "start": 5.872,
      "duration": 0.0072,
      "velocity": 88,
      "chip": "ym2612"
    },
    {
      "channel": 0,
      "note": 45,
      "start": 5.8824,
      "duration": 0.0054,
      "velocity": 88,
      "chip": "ym2612"
    },
    {
      "channel": 0,
      "note": 48,
      "start": 5.8923,
      "duration": 0.0089,
      "velocity": 88,
      "chip": "ym2612"
    },
    {
      "channel": 0,
      "note": 45,
      "start": 5.9013,
      "duration": 0.0082,
      "velocity": 88,
      "chip": "ym2612"
    },
    {
      "channel": 0,
      "note": 50,
      "start": 5.9125,
      "duration": 0.2773,
      "velocity": 88,
      "chip": "ym2612"
    },
    {
      "channel": 1,
      "note": 82,
      "start": 5.9143,
      "duration": 0.003,
      "velocity": 127,
      "chip": "ym2612"
    },
    {
      "channel": 0,
      "note": 50,
      "start": 6.7588,
      "duration": 0.0658,
      "velocity": 88,
      "chip": "ym2612"
    },
    {
      "channel": 0,
      "note": 45,
      "start": 6.8734,
      "duration": 0.0665,
      "velocity": 88,
      "chip": "ym2612"
    },
    {
      "channel": 0,
      "note": 50,
      "start": 6.9924,
      "duration": 0.0093,
      "velocity": 88,
      "chip": "ym2612"
    },
    {
      "channel": 0,
      "note": 50,
      "start": 7.028,
      "duration": 0.1477,
      "velocity": 88,
      "chip": "ym2612"
    },
    {
      "channel": 0,
      "note": 52,
      "start": 7.2617,
      "duration": 0.0162,
      "velocity": 88,
      "chip": "ym2612"
    },
    {
      "channel": 0,
      "note": 53,
      "start": 7.2973,
      "duration": 0.0993,
      "velocity": 88,
      "chip": "ym2612"
    },
    {
      "channel": 0,
      "note": 50,
      "start": 7.4122,
      "duration": 0.1184,
      "velocity": 88,
      "chip": "ym2612"
    },
    {
      "channel": 0,
      "note": 50,
      "start": 7.5398,
      "duration": 0.0083,
      "velocity": 88,
      "chip": "ym2612"
    },
    {
      "channel": 0,
      "note": 45,
      "start": 7.6813,
      "duration": 0.0663,
      "velocity": 88,
      "chip": "ym2612"
    },
    {
      "channel": 0,
      "note": 48,
      "start": 7.8003,
      "duration": 0.0056,
      "velocity": 88,
      "chip": "ym2612"
    },
    {
      "channel": 0,
      "note": 45,
      "start": 7.8097,
      "duration": 0.0045,
      "velocity": 88,
      "chip": "ym2612"
    },
    {
      "channel": 0,
      "note": 48,
      "start": 7.8357,
      "duration": 0.0657,
      "velocity": 88,
      "chip": "ym2612"
    },
    {
      "channel": 0,
      "note": 45,
      "start": 7.9501,
      "duration": 0.0662,
      "velocity": 88,
      "chip": "ym2612"
    },
    {
      "channel": 0,
      "note": 50,
      "start": 8.0692,
      "duration": 0.0072,
      "velocity": 88,
      "chip": "ym2612"
    },
    {
      "channel": 0,
      "note": 50,
      "start": 8.1047,
      "duration": 0.0808,
      "velocity": 88,
      "chip": "ym2612"
    },
    {
      "channel": 0,
      "note": 52,
      "start": 8.3385,
      "duration": 0.0126,
      "velocity": 88,
      "chip": "ym2612"
    },
    {
      "channel": 0,
      "note": 53,
      "start": 8.3739,
      "duration": 0.0669,
      "velocity": 88,
      "chip": "ym2612"
    },
    {
      "channel": 0,
      "note": 50,
      "start": 8.4888,
      "duration": 0.1187,
      "velocity": 88,
      "chip": "ym2612"
    },
    {
      "channel": 0,
      "note": 50,
      "start": 8.6159,
      "duration": 0.0077,
      "velocity": 88,
      "chip": "ym2612"
    },
    {
      "channel": 0,
      "note": 45,
      "start": 8.7434,
      "duration": 0.0812,
      "velocity": 88,
      "chip": "ym2612"
    },
    {
      "channel": 0,
      "note": 48,
      "start": 8.8593,
      "duration": 0.0054,
      "velocity": 88,
      "chip": "ym2612"
    },
    {
      "channel": 0,
      "note": 45,
      "start": 8.8678,
      "duration": 0.007,
      "velocity": 88,
      "chip": "ym2612"
    },
    {
      "channel": 0,
      "note": 48,
      "start": 8.8961,
      "duration": 0.008,
      "velocity": 88,
      "chip": "ym2612"
    },
    {
      "channel": 0,
      "note": 45,
      "start": 8.9071,
      "duration": 0.0079,
      "velocity": 88,
      "chip": "ym2612"
    },
    {
      "channel": 0,
      "note": 50,
      "start": 8.9183,
      "duration": 0.2768,
      "velocity": 88,
      "chip": "ym2612"
    },
    {
      "channel": 1,
      "note": 82,
      "start": 8.9186,
      "duration": 0.0033,
      "velocity": 127,
      "chip": "ym2612"
    },
    {
      "channel": 0,
      "note": 50,
      "start": 9.6455,
      "duration": 0.0025,
      "velocity": 88,
      "chip": "ym2612"
    },
    {
      "channel": 0,
      "note": 45,
      "start": 9.6555,
      "duration": 0.0037,
      "velocity": 88,
      "chip": "ym2612"
    },
    {
      "channel": 0,
      "note": 50,
      "start": 9.6827,
      "duration": 0.0093,
      "velocity": 88,
      "chip": "ym2612"
    },
    {
      "channel": 1,
      "note": 106,
      "start": 9.6846,
      "duration": 0.0154,
      "velocity": 127,
      "chip": "ym2612"
    },
    {
      "channel": 0,
      "note": 50,
      "start": 9.7028,
      "duration": 0.0146,
      "velocity": 88,
      "chip": "ym2612"
    },
    {
      "channel": 1,
      "note": 101,
      "start": 9.7047,
      "duration": 0.0044,
      "velocity": 114,
      "chip": "ym2612"
    },
    {
      "channel": 0,
      "note": 52,
      "start": 9.7257,
      "duration": 0.0153,
      "velocity": 88,
      "chip": "ym2612"
    },
    {
      "channel": 1,
      "note": 106,
      "start": 9.7276,
      "duration": 0.0337,
      "velocity": 114,
      "chip": "ym2612"
    },
    {
      "channel": 0,
      "note": 53,
      "start": 9.7594,
      "duration": 0.0988,
      "velocity": 88,
      "chip": "ym2612"
    },
    {
      "channel": 1,
      "note": 101,
      "start": 9.7613,
      "duration": 0.0326,
      "velocity": 114,
      "chip": "ym2612"
    },
    {
      "channel": 0,
      "note": 50,
      "start": 9.878,
      "duration": 0.0107,
      "velocity": 88,
      "chip": "ym2612"
    },
    {
      "channel": 1,
      "note": 106,
      "start": 9.8905,
      "duration": 0.0246,
      "velocity": 114,
      "chip": "ym2612"
    },
    {
      "channel": 0,
      "note": 50,
      "start": 9.9008,
      "duration": 0.0124,
      "velocity": 88,
      "chip": "ym2612"
    },
    {
      "channel": 1,
      "note": 101,
      "start": 9.9151,
      "duration": 0.0022,
      "velocity": 114,
      "chip": "ym2612"
    },
    {
      "channel": 0,
      "note": 45,
      "start": 9.9247,
      "duration": 0.0136,
      "velocity": 88,
      "chip": "ym2612"
    },
    {
      "channel": 0,
      "note": 48,
      "start": 10.0089,
      "duration": 0.0055,
      "velocity": 88,
      "chip": "ym2612"
    },
    {
      "channel": 1,
      "note": 106,
      "start": 10.0107,
      "duration": 0.0354,
      "velocity": 114,
      "chip": "ym2612"
    },
    {
      "channel": 0,
      "note": 45,
      "start": 10.0205,
      "duration": 0.0033,
      "velocity": 88,
      "chip": "ym2612"
    },
    {
      "channel": 0,
      "note": 48,
      "start": 10.0443,
      "duration": 0.0483,
      "velocity": 88,
      "chip": "ym2612"
    },
    {
      "channel": 1,
      "note": 101,
      "start": 10.0461,
      "duration": 0.0298,
      "velocity": 114,
      "chip": "ym2612"
    },
    {
      "channel": 0,
      "note": 45,
      "start": 10.1589,
      "duration": 0.0503,
      "velocity": 88,
      "chip": "ym2612"
    },
    {
      "channel": 0,
      "note": 50,
      "start": 10.2782,
      "duration": 0.0078,
      "velocity": 88,
      "chip": "ym2612"
    },
    {
      "channel": 1,
      "note": 106,
      "start": 10.28,
      "duration": 0.0208,
      "velocity": 114,
      "chip": "ym2612"
    },
    {
      "channel": 0,
      "note": 50,
      "start": 10.2991,
      "duration": 0.0112,
      "velocity": 88,
      "chip": "ym2612"
    },
    {
      "channel": 1,
      "note": 101,
      "start": 10.3009,
      "duration": 0.0046,
      "velocity": 114,
      "chip": "ym2612"
    },
    {
      "channel": 0,
      "note": 52,
      "start": 10.3211,
      "duration": 0.0181,
      "velocity": 88,
      "chip": "ym2612"
    },
    {
      "channel": 1,
      "note": 106,
      "start": 10.323,
      "duration": 0.0368,
      "velocity": 114,
      "chip": "ym2612"
    },
    {
      "channel": 0,
      "note": 53,
      "start": 10.358,
      "duration": 0.0985,
      "velocity": 88,
      "chip": "ym2612"
    },
    {
      "channel": 1,
      "note": 101,
      "start": 10.3598,
      "duration": 0.0634,
      "velocity": 114,
      "chip": "ym2612"
    },
    {
      "channel": 0,
      "note": 50,
      "start": 10.4731,
      "duration": 0.0096,
      "velocity": 88,
      "chip": "ym2612"
    },
    {
      "channel": 1,
      "note": 106,
      "start": 10.4866,
      "duration": 0.0195,
      "velocity": 127,
      "chip": "ym2612"
    },
    {
      "channel": 0,
      "note": 50,
      "start": 10.4955,
      "duration": 0.0129,
      "velocity": 88,
      "chip": "ym2612"
    },
    {
      "channel": 1,
      "note": 101,
      "start": 10.5103,
      "duration": 0.006,
      "velocity": 114,
      "chip": "ym2612"
    },
    {
      "channel": 0,
      "note": 45,
      "start": 10.5212,
      "duration": 0.03,
      "velocity": 88,
      "chip": "ym2612"
    },
    {
      "channel": 0,
      "note": 48,
      "start": 10.6043,
      "duration": 0.0061,
      "velocity": 88,
      "chip": "ym2612"
    },
    {
      "channel": 1,
      "note": 106,
      "start": 10.6062,
      "duration": 0.0158,
      "velocity": 127,
      "chip": "ym2612"
    },
    {
      "channel": 0,
      "note": 45,
      "start": 10.6154,
      "duration": 0.0065,
      "velocity": 88,
      "chip": "ym2612"
    },
    {
      "channel": 0,
      "note": 48,
      "start": 10.6381,
      "duration": 0.0096,
      "velocity": 88,
      "chip": "ym2612"
    },
    {
      "channel": 1,
      "note": 101,
      "start": 10.64,
      "duration": 0.0025,
      "velocity": 114,
      "chip": "ym2612"
    },
    {
      "channel": 0,
      "note": 45,
      "start": 10.6516,
      "duration": 0.0066,
      "velocity": 88,
      "chip": "ym2612"
    },
    {
      "channel": 0,
      "note": 50,
      "start": 10.6646,
      "duration": 0.2766,
      "velocity": 88,
      "chip": "ym2612"
    },
    {
      "channel": 1,
      "note": 82,
      "start": 10.6663,
      "duration": 0.0028,
      "velocity": 127,
      "chip": "ym2612"
    },
    {
      "channel": 1,
      "note": 106,
      "start": 10.9388,
      "duration": 0.0341,
      "velocity": 114,
      "chip": "ym2612"
    },
    {
      "channel": 1,
      "note": 101,
      "start": 10.9729,
      "duration": 0.0644,
      "velocity": 114,
      "chip": "ym2612"
    },
    {
      "channel": 1,
      "note": 106,
      "start": 11.2061,
      "duration": 0.0353,
      "velocity": 114,
      "chip": "ym2612"
    },
    {
      "channel": 1,
      "note": 101,
      "start": 11.2414,
      "duration": 0.0165,
      "velocity": 114,
      "chip": "ym2612"
    },
    {
      "channel": 1,
      "note": 106,
      "start": 11.4748,
      "duration": 0.0376,
      "velocity": 114,
      "chip": "ym2612"
    },
    {
      "channel": 0,
      "note": 50,
      "start": 11.5106,
      "duration": 0.032,
      "velocity": 88,
      "chip": "ym2612"
    },
    {
      "channel": 1,
      "note": 101,
      "start": 11.5125,
      "duration": 0.0303,
      "velocity": 114,
      "chip": "ym2612"
    },
    {
      "channel": 0,
      "note": 45,
      "start": 11.6276,
      "duration": 0.0329,
      "velocity": 88,
      "chip": "ym2612"
    },
    {
      "channel": 0,
      "note": 50,
      "start": 11.7446,
      "duration": 0.0113,
      "velocity": 88,
      "chip": "ym2612"
    },
    {
      "channel": 1,
      "note": 106,
      "start": 11.7464,
      "duration": 0.0239,
      "velocity": 114,
      "chip": "ym2612"
    },
    {
      "channel": 0,
      "note": 50,
      "start": 11.7685,
      "duration": 0.0147,
      "velocity": 88,
      "chip": "ym2612"
    },
    {
      "channel": 1,
      "note": 101,
      "start": 11.7705,
      "duration": 0.0052,
      "velocity": 114,
      "chip": "ym2612"
    },
    {
      "channel": 0,
      "note": 52,
      "start": 11.7913,
      "duration": 0.017,
      "velocity": 88,
      "chip": "ym2612"
    },
    {
      "channel": 1,
      "note": 106,
      "start": 11.7931,
      "duration": 0.036,
      "velocity": 114,
      "chip": "ym2612"
    },
    {
      "channel": 0,
      "note": 53,
      "start": 11.8273,
      "duration": 0.0985,
      "velocity": 88,
      "chip": "ym2612"
    },
    {
      "channel": 1,
      "note": 101,
      "start": 11.8292,
      "duration": 0.0302,
      "velocity": 114,
      "chip": "ym2612"
    },
    {
      "channel": 0,
      "note": 50,
      "start": 11.9449,
      "duration": 0.0103,
      "velocity": 88,
      "chip": "ym2612"
    },
    {
      "channel": 1,
      "note": 106,
      "start": 11.9571,
      "duration": 0.0185,
      "velocity": 127,
      "chip": "ym2612"
    },
    {
      "channel": 0,
      "note": 50,
      "start": 11.967,
      "duration": 0.0121,
      "velocity": 88,
      "chip": "ym2612"
    },
    {
      "channel": 1,
      "note": 101,
      "start": 11.981,
      "duration": 0.0038,
      "velocity": 114,
      "chip": "ym2612"
    },
    {
      "channel": 0,
      "note": 45,
      "start": 11.9925,
      "duration": 0.0119,
      "velocity": 88,
      "chip": "ym2612"
    },
    {
      "channel": 0,
      "note": 48,
      "start": 12.0726,
      "duration": 0.0074,
      "velocity": 88,
      "chip": "ym2612"
    },
    {
      "channel": 1,
      "note": 106,
      "start": 12.0745,
      "duration": 0.0356,
      "velocity": 114,
      "chip": "ym2612"
    },
    {
      "channel": 0,
      "note": 45,
      "start": 12.085,
      "duration": 0.0035,
      "velocity": 88,
      "chip": "ym2612"
    },
    {
      "channel": 0,
      "note": 48,
      "start": 12.1083,
      "duration": 0.05,
      "velocity": 88,
      "chip": "ym2612"
    },
    {
      "channel": 1,
      "note": 101,
      "start": 12.1102,
      "duration": 0.0299,
      "velocity": 114,
      "chip": "ym2612"
    },
    {
      "channel": 0,
      "note": 45,
      "start": 12.2253,
      "duration": 0.0482,
      "velocity": 88,
      "chip": "ym2612"
    },
    {
      "channel": 0,
      "note": 50,
      "start": 12.327,
      "duration": 0.008,
      "velocity": 88,
      "chip": "ym2612"
    },
    {
      "channel": 1,
      "note": 106,
      "start": 12.3288,
      "duration": 0.0162,
      "velocity": 127,
      "chip": "ym2612"
    },
    {
      "channel": 0,
      "note": 50,
      "start": 12.3476,
      "duration": 0.0118,
      "velocity": 88,
      "chip": "ym2612"
    },
    {
      "channel": 1,
      "note": 101,
      "start": 12.3494,
      "duration": 0.0051,
      "velocity": 114,
      "chip": "ym2612"
    },
    {
      "channel": 0,
      "note": 52,
      "start": 12.3701,
      "duration": 0.0162,
      "velocity": 88,
      "chip": "ym2612"
    },
    {
      "channel": 1,
      "note": 106,
      "start": 12.372,
      "duration": 0.0152,
      "velocity": 127,
      "chip": "ym2612"
    },
    {
      "channel": 0,
      "note": 53,
      "start": 12.4063,
      "duration": 0.0994,
      "velocity": 88,
      "chip": "ym2612"
    },
    {
      "channel": 1,
      "note": 101,
      "start": 12.4081,
      "duration": 0.0457,
      "velocity": 114,
      "chip": "ym2612"
    },
    {
      "channel": 0,
      "note": 50,
      "start": 12.5212,
      "duration": 0.0089,
      "velocity": 88,
      "chip": "ym2612"
    },
    {
      "channel": 1,
      "note": 106,
      "start": 12.5347,
      "duration": 0.0192,
      "velocity": 127,
      "chip": "ym2612"
    },
    {
      "channel": 0,
      "note": 50,
      "start": 12.5438,
      "duration": 0.0113,
      "velocity": 88,
      "chip": "ym2612"
    },
    {
      "channel": 1,
      "note": 101,
      "start": 12.5571,
      "duration": 0.0046,
      "velocity": 114,
      "chip": "ym2612"
    },
    {
      "channel": 0,
      "note": 45,
      "start": 12.5685,
      "duration": 0.0317,
      "velocity": 88,
      "chip": "ym2612"
    },
    {
      "channel": 0,
      "note": 48,
      "start": 12.6501,
      "duration": 0.0072,
      "velocity": 88,
      "chip": "ym2612"
    },
    {
      "channel": 1,
      "note": 106,
      "start": 12.652,
      "duration": 0.0184,
      "velocity": 127,
      "chip": "ym2612"
    },
    {
      "channel": 0,
      "note": 45,
      "start": 12.6623,
      "duration": 0.0057,
      "velocity": 88,
      "chip": "ym2612"
    },
    {
      "channel": 0,
      "note": 48,
      "start": 12.6857,
      "duration": 0.0095,
      "velocity": 88,
      "chip": "ym2612"
    },
    {
      "channel": 1,
      "note": 101,
      "start": 12.6876,
      "duration": 0.0025,
      "velocity": 114,
      "chip": "ym2612"
    },
    {
      "channel": 0,
      "note": 45,
      "start": 12.6986,
      "duration": 0.006,
      "velocity": 88,
      "chip": "ym2612"
    },
    {
      "channel": 0,
      "note": 50,
      "start": 12.7083,
      "duration": 0.2785,
      "velocity": 88,
      "chip": "ym2612"
    },
    {
      "channel": 1,
      "note": 82,
      "start": 12.7101,
      "duration": 0.0053,
      "velocity": 127,
      "chip": "ym2612"
    },
    {
      "channel": 1,
      "note": 106,
      "start": 12.984,
      "duration": 0.0346,
      "velocity": 114,
      "chip": "ym2612"
    },
    {
      "channel": 1,
      "note": 101,
      "start": 13.0187,
      "duration": 0.031,
      "velocity": 114,
      "chip": "ym2612"
    },
    {
      "channel": 1,
      "note": 106,
      "start": 13.2668,
      "duration": 0.0245,
      "velocity": 127,
      "chip": "ym2612"
    },
    {
      "channel": 1,
      "note": 101,
      "start": 13.3035,
      "duration": 0.0334,
      "velocity": 114,
      "chip": "ym2612"
    },
    {
      "channel": 1,
      "note": 106,
      "start": 13.5388,
      "duration": 0.0007,
      "velocity": 127,
      "chip": "ym2612"
    },
    {
      "channel": 0,
      "note": 50,
      "start": 13.5738,
      "duration": 0.0322,
      "velocity": 88,
      "chip": "ym2612"
    },
    {
      "channel": 1,
      "note": 106,
      "start": 13.5756,
      "duration": 0.2123,
      "velocity": 114,
      "chip": "ym2612"
    },
    {
      "channel": 0,
      "note": 45,
      "start": 13.688,
      "duration": 0.0329,
      "velocity": 88,
      "chip": "ym2612"
    },
    {
      "channel": 0,
      "note": 50,
      "start": 13.8083,
      "duration": 0.0084,
      "velocity": 88,
      "chip": "ym2612"
    },
    {
      "channel": 1,
      "note": 82,
      "start": 13.81,
      "duration": 0.0044,
      "velocity": 127,
      "chip": "ym2612"
    },
    {
      "channel": 0,
      "note": 50,
      "start": 13.8306,
      "duration": 0.0131,
      "velocity": 88,
      "chip": "ym2612"
    },
    {
      "channel": 0,
      "note": 52,
      "start": 13.8532,
      "duration": 0.0187,
      "velocity": 88,
      "chip": "ym2612"
    },
    {
      "channel": 1,
      "note": 106,
      "start": 13.855,
      "duration": 0.017,
      "velocity": 127,
      "chip": "ym2612"
    },
    {
      "channel": 0,
      "note": 53,
      "start": 13.8775,
      "duration": 0.0084,
      "velocity": 88,
      "chip": "ym2612"
    },
    {
      "channel": 1,
      "note": 101,
      "start": 13.8793,
      "duration": 0.0042,
      "velocity": 114,
      "chip": "ym2612"
    },
    {
      "channel": 0,
      "note": 50,
      "start": 13.8905,
      "duration": 0.0121,
      "velocity": 88,
      "chip": "ym2612"
    },
    {
      "channel": 1,
      "note": 106,
      "start": 13.9046,
      "duration": 0.0218,
      "velocity": 114,
      "chip": "ym2612"
    },
    {
      "channel": 0,
      "note": 50,
      "start": 13.9135,
      "duration": 0.0111,
      "velocity": 88,
      "chip": "ym2612"
    },
    {
      "channel": 1,
      "note": 101,
      "start": 13.9264,
      "duration": 0.003,
      "velocity": 114,
      "chip": "ym2612"
    },
    {
      "channel": 0,
      "note": 45,
      "start": 13.9354,
      "duration": 0.0159,
      "velocity": 88,
      "chip": "ym2612"
    },
    {
      "channel": 0,
      "note": 48,
      "start": 14.0014,
      "duration": 0.0091,
      "velocity": 88,
      "chip": "ym2612"
    },
    {
      "channel": 1,
      "note": 106,
      "start": 14.0032,
      "duration": 0.0427,
      "velocity": 114,
      "chip": "ym2612"
    },
    {
      "channel": 0,
      "note": 45,
      "start": 14.014,
      "duration": 0.0059,
      "velocity": 88,
      "chip": "ym2612"
    },
    {
      "channel": 0,
      "note": 48,
      "start": 14.0441,
      "duration": 0.0834,
      "velocity": 88,
      "chip": "ym2612"
    },
    {
      "channel": 1,
      "note": 101,
      "start": 14.0459,
      "duration": 0.0487,
      "velocity": 114,
      "chip": "ym2612"
    },
    {
      "channel": 0,
      "note": 45,
      "start": 14.1612,
      "duration": 0.0817,
      "velocity": 88,
      "chip": "ym2612"
    },
    {
      "channel": 0,
      "note": 50,
      "start": 14.2783,
      "duration": 0.0107,
      "velocity": 88,
      "chip": "ym2612"
    },
    {
      "channel": 1,
      "note": 106,
      "start": 14.2802,
      "duration": 0.0209,
      "velocity": 114,
      "chip": "ym2612"
    },
    {
      "channel": 0,
      "note": 50,
      "start": 14.2994,
      "duration": 0.0122,
      "velocity": 88,
      "chip": "ym2612"
    },
    {
      "channel": 1,
      "note": 101,
      "start": 14.3012,
      "duration": 0.0069,
      "velocity": 114,
      "chip": "ym2612"
    },
    {
      "channel": 0,
      "note": 52,
      "start": 14.3218,
      "duration": 0.0167,
      "velocity": 88,
      "chip": "ym2612"
    },
    {
      "channel": 1,
      "note": 106,
      "start": 14.3236,
      "duration": 0.0198,
      "velocity": 114,
      "chip": "ym2612"
    },
    {
      "channel": 0,
      "note": 53,
      "start": 14.3417,
      "duration": 0.0093,
      "velocity": 88,
      "chip": "ym2612"
    },
    {
      "channel": 1,
      "note": 101,
      "start": 14.3435,
      "duration": 0.0047,
      "velocity": 114,
      "chip": "ym2612"
    },
    {
      "channel": 0,
      "note": 50,
      "start": 14.3538,
      "duration": 0.0091,
      "velocity": 88,
      "chip": "ym2612"
    },
    {
      "channel": 1,
      "note": 106,
      "start": 14.3657,
      "duration": 0.022,
      "velocity": 127,
      "chip": "ym2612"
    },
    {
      "channel": 0,
      "note": 50,
      "start": 14.3754,
      "duration": 0.0123,
      "velocity": 88,
      "chip": "ym2612"
    },
    {
      "channel": 1,
      "note": 101,
      "start": 14.3906,
      "duration": 0.0045,
      "velocity": 114,
      "chip": "ym2612"
    },
    {
      "channel": 0,
      "note": 45,
      "start": 14.3995,
      "duration": 0.0493,
      "velocity": 88,
      "chip": "ym2612"
    },
    {
      "channel": 0,
      "note": 48,
      "start": 14.4839,
      "duration": 0.008,
      "velocity": 88,
      "chip": "ym2612"
    },
    {
      "channel": 1,
      "note": 106,
      "start": 14.4859,
      "duration": 0.0207,
      "velocity": 127,
      "chip": "ym2612"
    },
    {
      "channel": 0,
      "note": 45,
      "start": 14.4949,
      "duration": 0.007,
      "velocity": 88,
      "chip": "ym2612"
    },
    {
      "channel": 0,
      "note": 48,
      "start": 14.5266,
      "duration": 0.0108,
      "velocity": 88,
      "chip": "ym2612"
    },
    {
      "channel": 1,
      "note": 101,
      "start": 14.5284,
      "duration": 0.002,
      "velocity": 114,
      "chip": "ym2612"
    },
    {
      "channel": 0,
      "note": 45,
      "start": 14.5394,
      "duration": 0.0078,
      "velocity": 88,
      "chip": "ym2612"
    },
    {
      "channel": 0,
      "note": 50,
      "start": 14.5503,
      "duration": 0.0387,
      "velocity": 88,
      "chip": "ym2612"
    },
    {
      "channel": 1,
      "note": 82,
      "start": 14.552,
      "duration": 0.0036,
      "velocity": 127,
      "chip": "ym2612"
    },
    {
      "channel": 1,
      "note": 106,
      "start": 14.5856,
      "duration": 0.004,
      "velocity": 127,
      "chip": "ym2612"
    },
    {
      "channel": 1,
      "note": 101,
      "start": 14.6251,
      "duration": 0.0145,
      "velocity": 114,
      "chip": "ym2612"
    },
    {
      "channel": 1,
      "note": 106,
      "start": 14.8591,
      "duration": 0.0566,
      "velocity": 127,
      "chip": "ym2612"
    },
    {
      "channel": 1,
      "note": 101,
      "start": 14.918,
      "duration": 0.0005,
      "velocity": 114,
      "chip": "ym2612"
    },
    {
      "channel": 1,
      "note": 106,
      "start": 14.9536,
      "duration": 0.1755,
      "velocity": 114,
      "chip": "ym2612"
    },
    {
      "channel": 0,
      "note": 50,
      "start": 15.2319,
      "duration": 0.0077,
      "velocity": 88,
      "chip": "ym2612"
    },
    {
      "channel": 1,
      "note": 82,
      "start": 15.2337,
      "duration": 0.0113,
      "velocity": 127,
      "chip": "ym2612"
    },
    {
      "channel": 0,
      "note": 50,
      "start": 15.2545,
      "duration": 0.0134,
      "velocity": 88,
      "chip": "ym2612"
    },
    {
      "channel": 0,
      "note": 52,
      "start": 15.275,
      "duration": 0.015,
      "velocity": 88,
      "chip": "ym2612"
    },
    {
      "channel": 1,
      "note": 106,
      "start": 15.2769,
      "duration": 0.0191,
      "velocity": 114,
      "chip": "ym2612"
    },
    {
      "channel": 0,
      "note": 53,
      "start": 15.2941,
      "duration": 0.0081,
      "velocity": 88,
      "chip": "ym2612"
    },
    {
      "channel": 1,
      "note": 101,
      "start": 15.2961,
      "duration": 0.004,
      "velocity": 114,
      "chip": "ym2612"
    },
    {
      "channel": 0,
      "note": 50,
      "start": 15.3063,
      "duration": 0.0094,
      "velocity": 88,
      "chip": "ym2612"
    },
    {
      "channel": 1,
      "note": 106,
      "start": 15.3176,
      "duration": 0.024,
      "velocity": 114,
      "chip": "ym2612"
    },
    {
      "channel": 0,
      "note": 50,
      "start": 15.3276,
      "duration": 0.0121,
      "velocity": 88,
      "chip": "ym2612"
    },
    {
      "channel": 1,
      "note": 101,
      "start": 15.3417,
      "duration": 0.0037,
      "velocity": 114,
      "chip": "ym2612"
    },
    {
      "channel": 0,
      "note": 45,
      "start": 15.3499,
      "duration": 0.033,
      "velocity": 88,
      "chip": "ym2612"
    },
    {
      "channel": 0,
      "note": 48,
      "start": 15.4344,
      "duration": 0.0078,
      "velocity": 88,
      "chip": "ym2612"
    },
    {
      "channel": 1,
      "note": 106,
      "start": 15.4363,
      "duration": 0.0426,
      "velocity": 114,
      "chip": "ym2612"
    },
    {
      "channel": 0,
      "note": 45,
      "start": 15.4466,
      "duration": 0.0052,
      "velocity": 88,
      "chip": "ym2612"
    },
    {
      "channel": 0,
      "note": 48,
      "start": 15.4771,
      "duration": 0.0819,
      "velocity": 88,
      "chip": "ym2612"
    },
    {
      "channel": 1,
      "note": 101,
      "start": 15.4789,
      "duration": 0.0468,
      "velocity": 114,
      "chip": "ym2612"
    },
    {
      "channel": 0,
      "note": 45,
      "start": 15.5919,
      "duration": 0.0824,
      "velocity": 88,
      "chip": "ym2612"
    },
    {
      "channel": 0,
      "note": 50,
      "start": 15.7099,
      "duration": 0.0109,
      "velocity": 88,
      "chip": "ym2612"
    },
    {
      "channel": 1,
      "note": 106,
      "start": 15.7118,
      "duration": 0.0229,
      "velocity": 114,
      "chip": "ym2612"
    },
    {
      "channel": 0,
      "note": 50,
      "start": 15.7328,
      "duration": 0.0119,
      "velocity": 88,
      "chip": "ym2612"
    },
    {
      "channel": 1,
      "note": 101,
      "start": 15.7347,
      "duration": 0.0078,
      "velocity": 114,
      "chip": "ym2612"
    },
    {
      "channel": 0,
      "note": 52,
      "start": 15.7559,
      "duration": 0.0181,
      "velocity": 88,
      "chip": "ym2612"
    },
    {
      "channel": 1,
      "note": 106,
      "start": 15.7577,
      "duration": 0.0221,
      "velocity": 114,
      "chip": "ym2612"
    },
    {
      "channel": 0,
      "note": 53,
      "start": 15.7779,
      "duration": 0.0093,
      "velocity": 88,
      "chip": "ym2612"
    },
    {
      "channel": 1,
      "note": 101,
      "start": 15.7798,
      "duration": 0.0056,
      "velocity": 114,
      "chip": "ym2612"
    },
    {
      "channel": 0,
      "note": 50,
      "start": 15.7897,
      "duration": 0.01,
      "velocity": 88,
      "chip": "ym2612"
    },
    {
      "channel": 1,
      "note": 106,
      "start": 15.8042,
      "duration": 0.0156,
      "velocity": 127,
      "chip": "ym2612"
    },
    {
      "channel": 0,
      "note": 50,
      "start": 15.8132,
      "duration": 0.0066,
      "velocity": 88,
      "chip": "ym2612"
    },
    {
      "channel": 1,
      "note": 101,
      "start": 15.8233,
      "duration": 0.0054,
      "velocity": 114,
      "chip": "ym2612"
    },
    {
      "channel": 0,
      "note": 45,
      "start": 15.8331,
      "duration": 0.0497,
      "velocity": 88,
      "chip": "ym2612"
    },
    {
      "channel": 0,
      "note": 48,
      "start": 15.9177,
      "duration": 0.007,
      "velocity": 88,
      "chip": "ym2612"
    },
    {
      "channel": 1,
      "note": 106,
      "start": 15.9195,
      "duration": 0.0382,
      "velocity": 127,
      "chip": "ym2612"
    },
    {
      "channel": 0,
      "note": 45,
      "start": 15.9284,
      "duration": 0.0069,
      "velocity": 88,
      "chip": "ym2612"
    },
    {
      "channel": 0,
      "note": 48,
      "start": 15.9576,
      "duration": 0.0093,
      "velocity": 88,
      "chip": "ym2612"
    },
    {
      "channel": 0,
      "note": 45,
      "start": 15.9705,
      "duration": 0.0057,
      "velocity": 88,
      "chip": "ym2612"
    },
    {
      "channel": 0,
      "note": 50,
      "start": 15.9822,
      "duration": 0.1511,
      "velocity": 88,
      "chip": "ym2612"
    },
    {
      "channel": 1,
      "note": 82,
      "start": 15.9839,
      "duration": 0.0031,
      "velocity": 127,
      "chip": "ym2612"
    },
    {
      "channel": 0,
      "note": 53,
      "start": 16.546,
      "duration": 0.011,
      "velocity": 88,
      "chip": "ym2612"
    },
    {
      "channel": 1,
      "note": 82,
      "start": 16.5463,
      "duration": 0.0051,
      "velocity": 127,
      "chip": "ym2612"
    },
    {
      "channel": 0,
      "note": 55,
      "start": 16.5571,
      "duration": 0.0088,
      "velocity": 88,
      "chip": "ym2612"
    },
    {
      "channel": 1,
      "note": 84,
      "start": 16.5686,
      "duration": 0.0028,
      "velocity": 123,
      "chip": "ym2612"
    },
    {
      "channel": 0,
      "note": 55,
      "start": 16.6015,
      "duration": 0.0089,
      "velocity": 88,
      "chip": "ym2612"
    },
    {
      "channel": 1,
      "note": 84,
      "start": 16.6108,
      "duration": 0.0046,
      "velocity": 123,
      "chip": "ym2612"
    },
    {
      "channel": 0,
      "note": 53,
      "start": 16.64,
      "duration": 0.0077,
      "velocity": 88,
      "chip": "ym2612"
    },
    {
      "channel": 0,
      "note": 55,
      "start": 16.6509,
      "duration": 0.0149,
      "velocity": 88,
      "chip": "ym2612"
    },
    {
      "channel": 1,
      "note": 84,
      "start": 16.6513,
      "duration": 0.0071,
      "velocity": 123,
      "chip": "ym2612"
    },
    {
      "channel": 1,
      "note": 84,
      "start": 16.6893,
      "duration": 0.0051,
      "velocity": 123,
      "chip": "ym2612"
    },
    {
      "channel": 1,
      "note": 84,
      "start": 16.7257,
      "duration": 0.0051,
      "velocity": 123,
      "chip": "ym2612"
    },
    {
      "channel": 0,
      "note": 56,
      "start": 16.7625,
      "duration": 0.1159,
      "velocity": 88,
      "chip": "ym2612"
    },
    {
      "channel": 1,
      "note": 82,
      "start": 16.7643,
      "duration": 0.0027,
      "velocity": 127,
      "chip": "ym2612"
    },
    {
      "channel": 1,
      "note": 84,
      "start": 16.7854,
      "duration": 0.0022,
      "velocity": 123,
      "chip": "ym2612"
    },
    {
      "channel": 0,
      "note": 53,
      "start": 16.9293,
      "duration": 0.0102,
      "velocity": 88,
      "chip": "ym2612"
    },
    {
      "channel": 1,
      "note": 84,
      "start": 16.9296,
      "duration": 0.0036,
      "velocity": 123,
      "chip": "ym2612"
    },
    {
      "channel": 0,
      "note": 55,
      "start": 16.9425,
      "duration": 0.0091,
      "velocity": 88,
      "chip": "ym2612"
    },
    {
      "channel": 1,
      "note": 84,
      "start": 16.952,
      "duration": 0.0021,
      "velocity": 123,
      "chip": "ym2612"
    },
    {
      "channel": 0,
      "note": 55,
      "start": 16.9865,
      "duration": 0.0083,
      "velocity": 88,
      "chip": "ym2612"
    },
    {
      "channel": 1,
      "note": 84,
      "start": 16.9951,
      "duration": 0.0022,
      "velocity": 123,
      "chip": "ym2612"
    },
    {
      "channel": 0,
      "note": 53,
      "start": 17.0243,
      "duration": 0.0077,
      "velocity": 88,
      "chip": "ym2612"
    },
    {
      "channel": 0,
      "note": 55,
      "start": 17.0332,
      "duration": 0.0102,
      "velocity": 88,
      "chip": "ym2612"
    },
    {
      "channel": 1,
      "note": 84,
      "start": 17.0336,
      "duration": 0.0032,
      "velocity": 123,
      "chip": "ym2612"
    },
    {
      "channel": 0,
      "note": 53,
      "start": 17.0712,
      "duration": 0.0123,
      "velocity": 88,
      "chip": "ym2612"
    },
    {
      "channel": 1,
      "note": 84,
      "start": 17.0716,
      "duration": 0.0034,
      "velocity": 123,
      "chip": "ym2612"
    },
    {
      "channel": 0,
      "note": 54,
      "start": 17.0837,
      "duration": 0.0102,
      "velocity": 88,
      "chip": "ym2612"
    },
    {
      "channel": 1,
      "note": 84,
      "start": 17.0942,
      "duration": 0.0028,
      "velocity": 123,
      "chip": "ym2612"
    },
    {
      "channel": 0,
      "note": 55,
      "start": 17.1046,
      "duration": 0.0073,
      "velocity": 88,
      "chip": "ym2612"
    },
    {
      "channel": 0,
      "note": 56,
      "start": 17.1148,
      "duration": 0.0357,
      "velocity": 88,
      "chip": "ym2612"
    },
    {
      "channel": 1,
      "note": 82,
      "start": 17.1166,
      "duration": 0.0031,
      "velocity": 127,
      "chip": "ym2612"
    },
    {
      "channel": 1,
      "note": 82,
      "start": 17.1353,
      "duration": 0.0024,
      "velocity": 127,
      "chip": "ym2612"
    },
    {
      "channel": 0,
      "note": 55,
      "start": 17.1744,
      "duration": 0.0098,
      "velocity": 88,
      "chip": "ym2612"
    },
    {
      "channel": 1,
      "note": 84,
      "start": 17.1761,
      "duration": 0.0032,
      "velocity": 123,
      "chip": "ym2612"
    },
    {
      "channel": 0,
      "note": 54,
      "start": 17.1878,
      "duration": 0.0096,
      "velocity": 88,
      "chip": "ym2612"
    },
    {
      "channel": 1,
      "note": 84,
      "start": 17.1978,
      "duration": 0.0022,
      "velocity": 123,
      "chip": "ym2612"
    },
    {
      "channel": 0,
      "note": 52,
      "start": 17.2093,
      "duration": 0.007,
      "velocity": 88,
      "chip": "ym2612"
    },
    {
      "channel": 0,
      "note": 51,
      "start": 17.2199,
      "duration": 0.0125,
      "velocity": 88,
      "chip": "ym2612"
    },
    {
      "channel": 1,
      "note": 84,
      "start": 17.2202,
      "duration": 0.0071,
      "velocity": 123,
      "chip": "ym2612"
    },
    {
      "channel": 0,
      "note": 52,
      "start": 17.2413,
      "duration": 0.0062,
      "velocity": 88,
      "chip": "ym2612"
    },
    {
      "channel": 1,
      "note": 84,
      "start": 17.2416,
      "duration": 0.0027,
      "velocity": 123,
      "chip": "ym2612"
    },
    {
      "channel": 0,
      "note": 54,
      "start": 17.2525,
      "duration": 0.0089,
      "velocity": 88,
      "chip": "ym2612"
    },
    {
      "channel": 1,
      "note": 84,
      "start": 17.2617,
      "duration": 0.0028,
      "velocity": 123,
      "chip": "ym2612"
    },
    {
      "channel": 0,
      "note": 56,
      "start": 17.2734,
      "duration": 0.0062,
      "velocity": 88,
      "chip": "ym2612"
    },
    {
      "channel": 0,
      "note": 59,
      "start": 17.283,
      "duration": 0.01,
      "velocity": 88,
      "chip": "ym2612"
    },
    {
      "channel": 1,
      "note": 84,
      "start": 17.2833,
      "duration": 0.0048,
      "velocity": 123,
      "chip": "ym2612"
    },
    {
      "channel": 0,
      "note": 60,
      "start": 17.303,
      "duration": 0.0124,
      "velocity": 88,
      "chip": "ym2612"
    },
    {
      "channel": 1,
      "note": 82,
      "start": 17.3048,
      "duration": 0.005,
      "velocity": 127,
      "chip": "ym2612"
    },
    {
      "channel": 1,
      "note": 84,
      "start": 17.3244,
      "duration": 0.0271,
      "velocity": 123,
      "chip": "ym2612"
    },
    {
      "channel": 0,
      "note": 60,
      "start": 17.5538,
      "duration": 0.0085,
      "velocity": 88,
      "chip": "ym2612"
    },
    {
      "channel": 1,
      "note": 84,
      "start": 17.5541,
      "duration": 0.0061,
      "velocity": 123,
      "chip": "ym2612"
    },
    {
      "channel": 0,
      "note": 59,
      "start": 17.5636,
      "duration": 0.0083,
      "velocity": 88,
      "chip": "ym2612"
    },
    {
      "channel": 1,
      "note": 84,
      "start": 17.5743,
      "duration": 0.0051,
      "velocity": 123,
      "chip": "ym2612"
    },
    {
      "channel": 0,
      "note": 58,
      "start": 17.5833,
      "duration": 0.0078,
      "velocity": 88,
      "chip": "ym2612"
    },
    {
      "channel": 1,
      "note": 84,
      "start": 17.5938,
      "duration": 0.0055,
      "velocity": 123,
      "chip": "ym2612"
    },
    {
      "channel": 0,
      "note": 57,
      "start": 17.6025,
      "duration": 0.0077,
      "velocity": 88,
      "chip": "ym2612"
    },
    {
      "channel": 0,
      "note": 56,
      "start": 17.6127,
      "duration": 0.0084,
      "velocity": 88,
      "chip": "ym2612"
    },
    {
      "channel": 1,
      "note": 84,
      "start": 17.613,
      "duration": 0.0054,
      "velocity": 123,
      "chip": "ym2612"
    },
    {
      "channel": 0,
      "note": 55,
      "start": 17.632,
      "duration": 0.0094,
      "velocity": 88,
      "chip": "ym2612"
    },
    {
      "channel": 1,
      "note": 84,
      "start": 17.6323,
      "duration": 0.0062,
      "velocity": 123,
      "chip": "ym2612"
    },
    {
      "channel": 0,
      "note": 54,
      "start": 17.6426,
      "duration": 0.0082,
      "velocity": 88,
      "chip": "ym2612"
    },
    {
      "channel": 1,
      "note": 84,
      "start": 17.6532,
      "duration": 0.001,
      "velocity": 123,
      "chip": "ym2612"
    },
    {
      "channel": 0,
      "note": 53,
      "start": 17.6634,
      "duration": 0.0064,
      "velocity": 88,
      "chip": "ym2612"
    },
    {
      "channel": 0,
      "note": 52,
      "start": 17.6751,
      "duration": 0.0152,
      "velocity": 88,
      "chip": "ym2612"
    },
    {
      "channel": 1,
      "note": 82,
      "start": 17.6769,
      "duration": 0.0032,
      "velocity": 127,
      "chip": "ym2612"
    },
    {
      "channel": 0,
      "note": 53,
      "start": 17.8211,
      "duration": 0.0073,
      "velocity": 88,
      "chip": "ym2612"
    },
    {
      "channel": 1,
      "note": 84,
      "start": 17.8229,
      "duration": 0.0032,
      "velocity": 123,
      "chip": "ym2612"
    },
    {
      "channel": 0,
      "note": 55,
      "start": 17.8284,
      "duration": 0.001,
      "velocity": 88,
      "chip": "ym2612"
    },
    {
      "channel": 1,
      "note": 84,
      "start": 17.8301,
      "duration": 0.0005,
      "velocity": 123,
      "chip": "ym2612"
    },
    {
      "channel": 0,
      "note": 55,
      "start": 17.8712,
      "duration": 0.001,
      "velocity": 88,
      "chip": "ym2612"
    },
    {
      "channel": 1,
      "note": 84,
      "start": 17.8726,
      "duration": 0.0004,
      "velocity": 123,
      "chip": "ym2612"
    },
    {
      "channel": 0,
      "note": 53,
      "start": 17.9108,
      "duration": 0.001,
      "velocity": 88,
      "chip": "ym2612"
    },
    {
      "channel": 0,
      "note": 55,
      "start": 17.9124,
      "duration": 0.0026,
      "velocity": 88,
      "chip": "ym2612"
    },
    {
      "channel": 1,
      "note": 84,
      "start": 17.9127,
      "duration": 0.0018,
      "velocity": 123,
      "chip": "ym2612"
    },
    {
      "channel": 1,
      "note": 84,
      "start": 17.951,
      "duration": 0.0007,
      "velocity": 123,
      "chip": "ym2612"
    },
    {
      "channel": 1,
      "note": 84,
      "start": 17.9538,
      "duration": 0.0005,
      "velocity": 123,
      "chip": "ym2612"
    },
    {
      "channel": 0,
      "note": 56,
      "start": 17.9881,
      "duration": 0.0092,
      "velocity": 88,
      "chip": "ym2612"
    },
    {
      "channel": 1,
      "note": 82,
      "start": 17.9899,
      "duration": 0.0015,
      "velocity": 127,
      "chip": "ym2612"
    },
    {
      "channel": 1,
      "note": 84,
      "start": 17.994,
      "duration": 0.0005,
      "velocity": 123,
      "chip": "ym2612"
    },
    {
      "channel": 0,
      "note": 53,
      "start": 18.0004,
      "duration": 0.0026,
      "velocity": 88,
      "chip": "ym2612"
    },
    {
      "channel": 1,
      "note": 84,
      "start": 18.0007,
      "duration": 0.0017,
      "velocity": 123,
      "chip": "ym2612"
    },
    {
      "channel": 0,
      "note": 55,
      "start": 18.0036,
      "duration": 0.0021,
      "velocity": 88,
      "chip": "ym2612"
    },
    {
      "channel": 1,
      "note": 84,
      "start": 18.0061,
      "duration": 0.0021,
      "velocity": 123,
      "chip": "ym2612"
    },
    {
      "channel": 0,
      "note": 55,
      "start": 18.0473,
      "duration": 0.0022,
      "velocity": 88,
      "chip": "ym2612"
    },
    {
      "channel": 1,
      "note": 84,
      "start": 18.0498,
      "duration": 0.0005,
      "velocity": 123,
      "chip": "ym2612"
    },
    {
      "channel": 0,
      "note": 53,
      "start": 18.0856,
      "duration": 0.001,
      "velocity": 88,
      "chip": "ym2612"
    },
    {
      "channel": 0,
      "note": 55,
      "start": 18.0872,
      "duration": 0.0029,
      "velocity": 88,
      "chip": "ym2612"
    },
    {
      "channel": 1,
      "note": 84,
      "start": 18.0875,
      "duration": 0.0021,
      "velocity": 123,
      "chip": "ym2612"
    },
    {
      "channel": 0,
      "note": 53,
      "start": 18.109,
      "duration": 0.003,
      "velocity": 88,
      "chip": "ym2612"
    },
    {
      "channel": 1,
      "note": 84,
      "start": 18.1093,
      "duration": 0.0011,
      "velocity": 123,
      "chip": "ym2612"
    },
    {
      "channel": 0,
      "note": 54,
      "start": 18.1121,
      "duration": 0.0027,
      "velocity": 88,
      "chip": "ym2612"
    },
    {
      "channel": 1,
      "note": 84,
      "start": 18.1151,
      "duration": 0.0017,
      "velocity": 123,
      "chip": "ym2612"
    },
    {
      "channel": 0,
      "note": 55,
      "start": 18.1179,
      "duration": 0.0021,
      "velocity": 88,
      "chip": "ym2612"
    },
    {
      "channel": 0,
      "note": 56,
      "start": 18.1207,
      "duration": 0.0723,
      "velocity": 88,
      "chip": "ym2612"
    },
    {
      "channel": 1,
      "note": 82,
      "start": 18.1224,
      "duration": 0.0009,
      "velocity": 127,
      "chip": "ym2612"
    },
    {
      "channel": 0,
      "note": 53,
      "start": 18.2277,
      "duration": 0.0022,
      "velocity": 88,
      "chip": "ym2612"
    },
    {
      "channel": 0,
      "note": 52,
      "start": 18.2299,
      "duration": 0.0011,
      "velocity": 88,
      "chip": "ym2612"
    },
    {
      "channel": 0,
      "note": 51,
      "start": 18.2311,
      "duration": 0.0022,
      "velocity": 88,
      "chip": "ym2612"
    },
    {
      "channel": 0,
      "note": 50,
      "start": 18.2334,
      "duration": 0.0021,
      "velocity": 88,
      "chip": "ym2612"
    },
    {
      "channel": 0,
      "note": 53,
      "start": 18.3386,
      "duration": 0.0016,
      "velocity": 88,
      "chip": "ym2612"
    },
    {
      "channel": 0,
      "note": 52,
      "start": 18.3402,
      "duration": 0.0023,
      "velocity": 88,
      "chip": "ym2612"
    },
    {
      "channel": 0,
      "note": 51,
      "start": 18.3425,
      "duration": 0.0023,
      "velocity": 88,
      "chip": "ym2612"
    },
    {
      "channel": 0,
      "note": 50,
      "start": 18.3449,
      "duration": 0.0042,
      "velocity": 88,
      "chip": "ym2612"
    },
    {
      "channel": 0,
      "note": 53,
      "start": 18.4511,
      "duration": 0.0027,
      "velocity": 88,
      "chip": "ym2612"
    },
    {
      "channel": 0,
      "note": 52,
      "start": 18.4538,
      "duration": 0.0024,
      "velocity": 88,
      "chip": "ym2612"
    },
    {
      "channel": 0,
      "note": 51,
      "start": 18.4562,
      "duration": 0.0029,
      "velocity": 88,
      "chip": "ym2612"
    },
    {
      "channel": 0,
      "note": 52,
      "start": 18.4591,
      "duration": 0.0033,
      "velocity": 88,
      "chip": "ym2612"
    },
    {
      "channel": 0,
      "note": 53,
      "start": 18.4624,
      "duration": 0.0045,
      "velocity": 88,
      "chip": "ym2612"
    },
    {
      "channel": 0,
      "note": 52,
      "start": 18.467,
      "duration": 0.0023,
      "velocity": 88,
      "chip": "ym2612"
    },
    {
      "channel": 0,
      "note": 51,
      "start": 18.4693,
      "duration": 0.0024,
      "velocity": 88,
      "chip": "ym2612"
    },
    {
      "channel": 0,
      "note": 50,
      "start": 18.4717,
      "duration": 0.0022,
      "velocity": 88,
      "chip": "ym2612"
    },
    {
      "channel": 0,
      "note": 53,
      "start": 18.5746,
      "duration": 0.0024,
      "velocity": 88,
      "chip": "ym2612"
    },
    {
      "channel": 0,
      "note": 52,
      "start": 18.5771,
      "duration": 0.0011,
      "velocity": 88,
      "chip": "ym2612"
    },
    {
      "channel": 0,
      "note": 51,
      "start": 18.5782,
      "duration": 0.0022,
      "velocity": 88,
      "chip": "ym2612"
    },
    {
      "channel": 0,
      "note": 50,
      "start": 18.5805,
      "duration": 0.0041,
      "velocity": 88,
      "chip": "ym2612"
    },
    {
      "channel": 0,
      "note": 53,
      "start": 18.6866,
      "duration": 0.0028,
      "velocity": 88,
      "chip": "ym2612"
    },
    {
      "channel": 0,
      "note": 52,
      "start": 18.6894,
      "duration": 0.0024,
      "velocity": 88,
      "chip": "ym2612"
    },
    {
      "channel": 0,
      "note": 51,
      "start": 18.6917,
      "duration": 0.0053,
      "velocity": 88,
      "chip": "ym2612"
    },
    {
      "channel": 0,
      "note": 52,
      "start": 18.6971,
      "duration": 0.0022,
      "velocity": 88,
      "chip": "ym2612"
    },
    {
      "channel": 0,
      "note": 60,
      "start": 18.6993,
      "duration": 0.0087,
      "velocity": 88,
      "chip": "ym2612"
    },
    {
      "channel": 1,
      "note": 62,
      "start": 18.7012,
      "duration": 0.0033,
      "velocity": 120,
      "chip": "ym2612"
    },
    {
      "channel": 0,
      "note": 59,
      "start": 18.708,
      "duration": 0.0071,
      "velocity": 88,
      "chip": "ym2612"
    },
    {
      "channel": 1,
      "note": 62,
      "start": 18.7085,
      "duration": 0.0044,
      "velocity": 120,
      "chip": "ym2612"
    },
    {
      "channel": 0,
      "note": 58,
      "start": 18.7151,
      "duration": 0.0087,
      "velocity": 88,
      "chip": "ym2612"
    },
    {
      "channel": 1,
      "note": 59,
      "start": 18.7171,
      "duration": 0.0045,
      "velocity": 120,
      "chip": "ym2612"
    },
    {
      "channel": 0,
      "note": 53,
      "start": 18.7239,
      "duration": 0.0088,
      "velocity": 88,
      "chip": "ym2612"
    },
    {
      "channel": 1,
      "note": 59,
      "start": 18.7244,
      "duration": 0.0049,
      "velocity": 120,
      "chip": "ym2612"
    },
    {
      "channel": 0,
      "note": 52,
      "start": 18.7327,
      "duration": 0.0088,
      "velocity": 88,
      "chip": "ym2612"
    },
    {
      "channel": 1,
      "note": 55,
      "start": 18.7346,
      "duration": 0.0034,
      "velocity": 120,
      "chip": "ym2612"
    },
    {
      "channel": 0,
      "note": 51,
      "start": 18.7415,
      "duration": 0.0073,
      "velocity": 88,
      "chip": "ym2612"
    },
    {
      "channel": 1,
      "note": 55,
      "start": 18.742,
      "duration": 0.0045,
      "velocity": 120,
      "chip": "ym2612"
    },
    {
      "channel": 0,
      "note": 48,
      "start": 18.7488,
      "duration": 0.0111,
      "velocity": 88,
      "chip": "ym2612"
    },
    {
      "channel": 0,
      "note": 49,
      "start": 18.8626,
      "duration": 0.0024,
      "velocity": 88,
      "chip": "ym2612"
    },
    {
      "channel": 0,
      "note": 50,
      "start": 19.0086,
      "duration": 0.0038,
      "velocity": 88,
      "chip": "ym2612"
    },
    {
      "channel": 1,
      "note": 82,
      "start": 19.0104,
      "duration": 0.0009,
      "velocity": 127,
      "chip": "ym2612"
    },
    {
      "channel": 0,
      "note": 45,
      "start": 19.0124,
      "duration": 0.0023,
      "velocity": 88,
      "chip": "ym2612"
    },
    {
      "channel": 1,
      "note": 82,
      "start": 19.0127,
      "duration": 0.001,
      "velocity": 127,
      "chip": "ym2612"
    },
    {
      "channel": 0,
      "note": 50,
      "start": 19.0147,
      "duration": 0.0046,
      "velocity": 88,
      "chip": "ym2612"
    },
    {
      "channel": 1,
      "note": 82,
      "start": 19.015,
      "duration": 0.0022,
      "velocity": 127,
      "chip": "ym2612"
    },
    {
      "channel": 0,
      "note": 45,
      "start": 19.0193,
      "duration": 0.0021,
      "velocity": 88,
      "chip": "ym2612"
    },
    {
      "channel": 1,
      "note": 82,
      "start": 19.0196,
      "duration": 0.001,
      "velocity": 127,
      "chip": "ym2612"
    },
    {
      "channel": 0,
      "note": 50,
      "start": 19.022,
      "duration": 0.1052,
      "velocity": 88,
      "chip": "ym2612"
    },
    {
      "channel": 1,
      "note": 82,
      "start": 19.0224,
      "duration": 0.001,
      "velocity": 127,
      "chip": "ym2612"
    },
    {
      "channel": 1,
      "note": 55,
      "start": 19.0273,
      "duration": 0.0014,
      "velocity": 120,
      "chip": "ym2612"
    },
    {
      "channel": 1,
      "note": 62,
      "start": 19.0313,
      "duration": 0.0031,
      "velocity": 120,
      "chip": "ym2612"
    },
    {
      "channel": 1,
      "note": 59,
      "start": 19.0344,
      "duration": 0.0037,
      "velocity": 120,
      "chip": "ym2612"
    },
    {
      "channel": 1,
      "note": 55,
      "start": 19.0381,
      "duration": 0.0019,
      "velocity": 120,
      "chip": "ym2612"
    },
    {
      "channel": 1,
      "note": 62,
      "start": 19.0425,
      "duration": 0.0032,
      "velocity": 120,
      "chip": "ym2612"
    },
    {
      "channel": 1,
      "note": 59,
      "start": 19.0458,
      "duration": 0.0027,
      "velocity": 120,
      "chip": "ym2612"
    },
    {
      "channel": 1,
      "note": 55,
      "start": 19.0485,
      "duration": 0.0013,
      "velocity": 120,
      "chip": "ym2612"
    },
    {
      "channel": 1,
      "note": 62,
      "start": 19.0524,
      "duration": 0.0026,
      "velocity": 120,
      "chip": "ym2612"
    },
    {
      "channel": 1,
      "note": 59,
      "start": 19.0551,
      "duration": 0.0032,
      "velocity": 120,
      "chip": "ym2612"
    },
    {
      "channel": 1,
      "note": 55,
      "start": 19.0583,
      "duration": 0.0014,
      "velocity": 120,
      "chip": "ym2612"
    },
    {
      "channel": 1,
      "note": 62,
      "start": 19.0623,
      "duration": 0.0026,
      "velocity": 120,
      "chip": "ym2612"
    },
    {
      "channel": 1,
      "note": 59,
      "start": 19.065,
      "duration": 0.0032,
      "velocity": 120,
      "chip": "ym2612"
    },
    {
      "channel": 1,
      "note": 55,
      "start": 19.0681,
      "duration": 0.0014,
      "velocity": 120,
      "chip": "ym2612"
    },
    {
      "channel": 1,
      "note": 62,
      "start": 19.0731,
      "duration": 0.0026,
      "velocity": 120,
      "chip": "ym2612"
    },
    {
      "channel": 1,
      "note": 59,
      "start": 19.0758,
      "duration": 0.0032,
      "velocity": 120,
      "chip": "ym2612"
    },
    {
      "channel": 1,
      "note": 55,
      "start": 19.0789,
      "duration": 0.0014,
      "velocity": 120,
      "chip": "ym2612"
    },
    {
      "channel": 1,
      "note": 62,
      "start": 19.0872,
      "duration": 0.0024,
      "velocity": 120,
      "chip": "ym2612"
    },
    {
      "channel": 1,
      "note": 59,
      "start": 19.092,
      "duration": 0.004,
      "velocity": 120,
      "chip": "ym2612"
    },
    {
      "channel": 1,
      "note": 59,
      "start": 19.0982,
      "duration": 0.0032,
      "velocity": 120,
      "chip": "ym2612"
    },
    {
      "channel": 1,
      "note": 55,
      "start": 19.1045,
      "duration": 0.0021,
      "velocity": 120,
      "chip": "ym2612"
    },
    {
      "channel": 1,
      "note": 55,
      "start": 19.1098,
      "duration": 0.0021,
      "velocity": 120,
      "chip": "ym2612"
    },
    {
      "channel": 0,
      "note": 50,
      "start": 19.5552,
      "duration": 0.0032,
      "velocity": 88,
      "chip": "ym2612"
    },
    {
      "channel": 1,
      "note": 82,
      "start": 19.557,
      "duration": 0.001,
      "velocity": 127,
      "chip": "ym2612"
    },
    {
      "channel": 0,
      "note": 50,
      "start": 19.5592,
      "duration": 0.0176,
      "velocity": 88,
      "chip": "ym2612"
    },
    {
      "channel": 1,
      "note": 82,
      "start": 19.5595,
      "duration": 0.0022,
      "velocity": 127,
      "chip": "ym2612"
    }
  ]
}