{
  "track_name": "25 - Enough for One Day...",
  "duration_sec": 28.661,
  "sample_rate": 44100,
  "note_count": 215,
  "unique_pitches": 31,
  "pitch_range": 36,
  "avg_note_duration": 0.7956,
  "reconstruction_stats": {
    "notes_reconstructed": 215,
    "keyon_events": 215,
    "keyoff_events": 210,
    "orphan_keyons": 5,
    "unique_pitches": 31,
    "pitch_range": 36,
    "avg_duration_sec": 0.7956
  },
  "metadata": {
    "source": "S\\Shining Force II\\25 - Enough for One Day....vgz"
  },
  "notes": [
    {
      "channel": 0,
      "note": 56,
      "start": 0.0,
      "duration": 0.0,
      "velocity": 90,
      "chip": "ym2612"
    },
    {
      "channel": 1,
      "note": 76,
      "start": 0.0,
      "duration": 0.0,
      "velocity": 96,
      "chip": "ym2612"
    },
    {
      "channel": 4,
      "note": 62,
      "start": 0.0,
      "duration": 0.0,
      "velocity": 106,
      "chip": "ym2612"
    },
    {
      "channel": 4,
      "note": 59,
      "start": 0.0,
      "duration": 0.0,
      "velocity": 96,
      "chip": "ym2612"
    },
    {
      "channel": 5,
      "note": 74,
      "start": 0.0,
      "duration": 0.0,
      "velocity": 90,
      "chip": "ym2612"
    },
    {
      "channel": 5,
      "note": 76,
      "start": 0.0,
      "duration": 0.0,
      "velocity": 96,
      "chip": "ym2612"
    },
    {
      "channel": 0,
      "note": 56,
      "start": 0.0015,
      "duration": 3.5617,
      "velocity": 106,
      "chip": "ym2612"
    },
    {
      "channel": 1,
      "note": 77,
      "start": 0.0042,
      "duration": 0.3124,
      "velocity": 90,
      "chip": "ym2612"
    },
    {
      "channel": 4,
      "note": 76,
      "start": 0.2274,
      "duration": 0.426,
      "velocity": 106,
      "chip": "ym2612"
    },
    {
      "channel": 5,
      "note": 77,
      "start": 0.2311,
      "duration": 0.3106,
      "velocity": 90,
      "chip": "ym2612"
    },
    {
      "channel": 1,
      "note": 76,
      "start": 0.3355,
      "duration": 0.2802,
      "velocity": 90,
      "chip": "ym2612"
    },
    {
      "channel": 2,
      "note": 59,
      "start": 0.45,
      "duration": 0.8746,
      "velocity": 106,
      "chip": "ym2612"
    },
    {
      "channel": 5,
      "note": 76,
      "start": 0.5606,
      "duration": 0.2796,
      "velocity": 90,
      "chip": "ym2612"
    },
    {
      "channel": 1,
      "note": 74,
      "start": 0.6341,
      "duration": 0.2424,
      "velocity": 90,
      "chip": "ym2612"
    },
    {
      "channel": 4,
      "note": 56,
      "start": 0.6723,
      "duration": 0.4289,
      "velocity": 106,
      "chip": "ym2612"
    },
    {
      "channel": 5,
      "note": 74,
      "start": 0.8591,
      "duration": 0.2425,
      "velocity": 90,
      "chip": "ym2612"
    },
    {
      "channel": 1,
      "note": 73,
      "start": 0.8953,
      "duration": 1.3246,
      "velocity": 90,
      "chip": "ym2612"
    },
    {
      "channel": 3,
      "note": 78,
      "start": 0.8994,
      "duration": 1.769,
      "velocity": 106,
      "chip": "ym2612"
    },
    {
      "channel": 4,
      "note": 59,
      "start": 1.1201,
      "duration": 0.43,
      "velocity": 106,
      "chip": "ym2612"
    },
    {
      "channel": 5,
      "note": 73,
      "start": 1.1207,
      "duration": 1.3244,
      "velocity": 90,
      "chip": "ym2612"
    },
    {
      "channel": 2,
      "note": 65,
      "start": 1.3434,
      "duration": 1.7727,
      "velocity": 106,
      "chip": "ym2612"
    },
    {
      "channel": 4,
      "note": 62,
      "start": 1.568,
      "duration": 1.3246,
      "velocity": 106,
      "chip": "ym2612"
    },
    {
      "channel": 1,
      "note": 71,
      "start": 2.2388,
      "duration": 0.429,
      "velocity": 90,
      "chip": "ym2612"
    },
    {
      "channel": 5,
      "note": 71,
      "start": 2.4639,
      "duration": 0.429,
      "velocity": 90,
      "chip": "ym2612"
    },
    {
      "channel": 1,
      "note": 73,
      "start": 2.6866,
      "duration": 0.4293,
      "velocity": 90,
      "chip": "ym2612"
    },
    {
      "channel": 3,
      "note": 62,
      "start": 2.6874,
      "duration": 1.7722,
      "velocity": 106,
      "chip": "ym2612"
    },
    {
      "channel": 4,
      "note": 65,
      "start": 2.9113,
      "duration": 0.429,
      "velocity": 106,
      "chip": "ym2612"
    },
    {
      "channel": 5,
      "note": 73,
      "start": 2.912,
      "duration": 0.4286,
      "velocity": 90,
      "chip": "ym2612"
    },
    {
      "channel": 1,
      "note": 74,
      "start": 3.1344,
      "duration": 0.429,
      "velocity": 90,
      "chip": "ym2612"
    },
    {
      "channel": 2,
      "note": 59,
      "start": 3.1349,
      "duration": 0.8765,
      "velocity": 106,
      "chip": "ym2612"
    },
    {
      "channel": 4,
      "note": 62,
      "start": 3.3592,
      "duration": 0.4289,
      "velocity": 106,
      "chip": "ym2612"
    },
    {
      "channel": 5,
      "note": 74,
      "start": 3.3599,
      "duration": 0.4286,
      "velocity": 90,
      "chip": "ym2612"
    },
    {
      "channel": 0,
      "note": 56,
      "start": 3.5824,
      "duration": 3.5633,
      "velocity": 106,
      "chip": "ym2612"
    },
    {
      "channel": 1,
      "note": 76,
      "start": 3.5829,
      "duration": 0.3163,
      "velocity": 90,
      "chip": "ym2612"
    },
    {
      "channel": 4,
      "note": 59,
      "start": 3.807,
      "duration": 0.429,
      "velocity": 106,
      "chip": "ym2612"
    },
    {
      "channel": 5,
      "note": 76,
      "start": 3.8076,
      "duration": 0.3166,
      "velocity": 90,
      "chip": "ym2612"
    },
    {
      "channel": 1,
      "note": 77,
      "start": 3.9181,
      "duration": 0.2798,
      "velocity": 90,
      "chip": "ym2612"
    },
    {
      "channel": 2,
      "note": 59,
      "start": 4.0303,
      "duration": 0.8768,
      "velocity": 106,
      "chip": "ym2612"
    },
    {
      "channel": 5,
      "note": 77,
      "start": 4.1432,
      "duration": 0.2796,
      "velocity": 90,
      "chip": "ym2612"
    },
    {
      "channel": 1,
      "note": 85,
      "start": 4.2166,
      "duration": 0.2424,
      "velocity": 90,
      "chip": "ym2612"
    },
    {
      "channel": 4,
      "note": 56,
      "start": 4.2548,
      "duration": 0.429,
      "velocity": 106,
      "chip": "ym2612"
    },
    {
      "channel": 5,
      "note": 85,
      "start": 4.4417,
      "duration": 0.2424,
      "velocity": 90,
      "chip": "ym2612"
    },
    {
      "channel": 1,
      "note": 82,
      "start": 4.4779,
      "duration": 1.7725,
      "velocity": 90,
      "chip": "ym2612"
    },
    {
      "channel": 3,
      "note": 62,
      "start": 4.4787,
      "duration": 1.3243,
      "velocity": 106,
      "chip": "ym2612"
    },
    {
      "channel": 4,
      "note": 59,
      "start": 4.7026,
      "duration": 0.4295,
      "velocity": 106,
      "chip": "ym2612"
    },
    {
      "channel": 5,
      "note": 82,
      "start": 4.7033,
      "duration": 1.7721,
      "velocity": 90,
      "chip": "ym2612"
    },
    {
      "channel": 2,
      "note": 65,
      "start": 4.926,
      "duration": 1.3247,
      "velocity": 106,
      "chip": "ym2612"
    },
    {
      "channel": 4,
      "note": 62,
      "start": 5.1505,
      "duration": 0.8768,
      "velocity": 106,
      "chip": "ym2612"
    },
    {
      "channel": 3,
      "note": 62,
      "start": 5.822,
      "duration": 0.8771,
      "velocity": 106,
      "chip": "ym2612"
    },
    {
      "channel": 4,
      "note": 65,
      "start": 6.0461,
      "duration": 0.4289,
      "velocity": 106,
      "chip": "ym2612"
    },
    {
      "channel": 1,
      "note": 80,
      "start": 6.2692,
      "duration": 0.8768,
      "velocity": 90,
      "chip": "ym2612"
    },
    {
      "channel": 2,
      "note": 65,
      "start": 6.2697,
      "duration": 1.3244,
      "velocity": 106,
      "chip": "ym2612"
    },
    {
      "channel": 4,
      "note": 68,
      "start": 6.4939,
      "duration": 0.4289,
      "velocity": 106,
      "chip": "ym2612"
    },
    {
      "channel": 5,
      "note": 80,
      "start": 6.4946,
      "duration": 0.8765,
      "velocity": 90,
      "chip": "ym2612"
    },
    {
      "channel": 3,
      "note": 68,
      "start": 6.7176,
      "duration": 1.3246,
      "velocity": 106,
      "chip": "ym2612"
    },
    {
      "channel": 4,
      "note": 65,
      "start": 6.9417,
      "duration": 0.429,
      "velocity": 106,
      "chip": "ym2612"
    },
    {
      "channel": 0,
      "note": 55,
      "start": 7.1645,
      "duration": 1.7725,
      "velocity": 106,
      "chip": "ym2612"
    },
    {
      "channel": 1,
      "note": 83,
      "start": 7.1655,
      "duration": 1.3239,
      "velocity": 90,
      "chip": "ym2612"
    },
    {
      "channel": 4,
      "note": 62,
      "start": 7.3897,
      "duration": 0.4289,
      "velocity": 106,
      "chip": "ym2612"
    },
    {
      "channel": 5,
      "note": 83,
      "start": 7.3903,
      "duration": 1.3242,
      "velocity": 90,
      "chip": "ym2612"
    },
    {
      "channel": 2,
      "note": 62,
      "start": 7.6129,
      "duration": 1.7724,
      "velocity": 106,
      "chip": "ym2612"
    },
    {
      "channel": 4,
      "note": 55,
      "start": 7.8374,
      "duration": 0.4293,
      "velocity": 106,
      "chip": "ym2612"
    },
    {
      "channel": 3,
      "note": 62,
      "start": 8.061,
      "duration": 1.7724,
      "velocity": 106,
      "chip": "ym2612"
    },
    {
      "channel": 4,
      "note": 62,
      "start": 8.2852,
      "duration": 0.8768,
      "velocity": 106,
      "chip": "ym2612"
    },
    {
      "channel": 1,
      "note": 83,
      "start": 8.5083,
      "duration": 0.1304,
      "velocity": 90,
      "chip": "ym2612"
    },
    {
      "channel": 1,
      "note": 82,
      "start": 8.6575,
      "duration": 0.1305,
      "velocity": 90,
      "chip": "ym2612"
    },
    {
      "channel": 5,
      "note": 83,
      "start": 8.7338,
      "duration": 0.13,
      "velocity": 90,
      "chip": "ym2612"
    },
    {
      "channel": 1,
      "note": 81,
      "start": 8.8068,
      "duration": 0.1305,
      "velocity": 90,
      "chip": "ym2612"
    },
    {
      "channel": 5,
      "note": 82,
      "start": 8.8835,
      "duration": 0.1295,
      "velocity": 90,
      "chip": "ym2612"
    },
    {
      "channel": 0,
      "note": 61,
      "start": 8.9559,
      "duration": 1.7724,
      "velocity": 106,
      "chip": "ym2612"
    },
    {
      "channel": 1,
      "note": 80,
      "start": 8.9563,
      "duration": 0.4288,
      "velocity": 90,
      "chip": "ym2612"
    },
    {
      "channel": 5,
      "note": 81,
      "start": 9.0323,
      "duration": 0.1301,
      "velocity": 90,
      "chip": "ym2612"
    },
    {
      "channel": 4,
      "note": 65,
      "start": 9.1808,
      "duration": 0.429,
      "velocity": 106,
      "chip": "ym2612"
    },
    {
      "channel": 5,
      "note": 80,
      "start": 9.1815,
      "duration": 0.4287,
      "velocity": 90,
      "chip": "ym2612"
    },
    {
      "channel": 1,
      "note": 79,
      "start": 9.4039,
      "duration": 0.8768,
      "velocity": 90,
      "chip": "ym2612"
    },
    {
      "channel": 2,
      "note": 65,
      "start": 9.4044,
      "duration": 1.7722,
      "velocity": 106,
      "chip": "ym2612"
    },
    {
      "channel": 4,
      "note": 61,
      "start": 9.6287,
      "duration": 0.4289,
      "velocity": 106,
      "chip": "ym2612"
    },
    {
      "channel": 5,
      "note": 79,
      "start": 9.6293,
      "duration": 0.8765,
      "velocity": 90,
      "chip": "ym2612"
    },
    {
      "channel": 3,
      "note": 65,
      "start": 9.8523,
      "duration": 1.7724,
      "velocity": 106,
      "chip": "ym2612"
    },
    {
      "channel": 4,
      "note": 65,
      "start": 10.0765,
      "duration": 0.8768,
      "velocity": 106,
      "chip": "ym2612"
    },
    {
      "channel": 1,
      "note": 80,
      "start": 10.2995,
      "duration": 0.4291,
      "velocity": 90,
      "chip": "ym2612"
    },
    {
      "channel": 5,
      "note": 80,
      "start": 10.5247,
      "duration": 0.429,
      "velocity": 90,
      "chip": "ym2612"
    },
    {
      "channel": 0,
      "note": 55,
      "start": 10.7471,
      "duration": 1.7724,
      "velocity": 106,
      "chip": "ym2612"
    },
    {
      "channel": 1,
      "note": 81,
      "start": 10.7476,
      "duration": 0.3167,
      "velocity": 90,
      "chip": "ym2612"
    },
    {
      "channel": 4,
      "note": 71,
      "start": 10.9723,
      "duration": 0.4288,
      "velocity": 106,
      "chip": "ym2612"
    },
    {
      "channel": 5,
      "note": 81,
      "start": 10.9729,
      "duration": 0.3165,
      "velocity": 90,
      "chip": "ym2612"
    },
    {
      "channel": 1,
      "note": 82,
      "start": 11.0832,
      "duration": 0.2798,
      "velocity": 90,
      "chip": "ym2612"
    },
    {
      "channel": 2,
      "note": 62,
      "start": 11.1954,
      "duration": 1.7725,
      "velocity": 106,
      "chip": "ym2612"
    },
    {
      "channel": 5,
      "note": 82,
      "start": 11.3083,
      "duration": 0.2797,
      "velocity": 90,
      "chip": "ym2612"
    },
    {
      "channel": 1,
      "note": 85,
      "start": 11.3822,
      "duration": 0.2419,
      "velocity": 90,
      "chip": "ym2612"
    },
    {
      "channel": 4,
      "note": 55,
      "start": 11.42,
      "duration": 0.4293,
      "velocity": 106,
      "chip": "ym2612"
    },
    {
      "channel": 5,
      "note": 85,
      "start": 11.6068,
      "duration": 0.2428,
      "velocity": 90,
      "chip": "ym2612"
    },
    {
      "channel": 1,
      "note": 83,
      "start": 11.643,
      "duration": 0.6529,
      "velocity": 90,
      "chip": "ym2612"
    },
    {
      "channel": 3,
      "note": 71,
      "start": 11.6439,
      "duration": 1.7726,
      "velocity": 106,
      "chip": "ym2612"
    },
    {
      "channel": 4,
      "note": 62,
      "start": 11.8678,
      "duration": 0.8768,
      "velocity": 106,
      "chip": "ym2612"
    },
    {
      "channel": 5,
      "note": 83,
      "start": 11.8684,
      "duration": 0.6527,
      "velocity": 90,
      "chip": "ym2612"
    },
    {
      "channel": 1,
      "note": 81,
      "start": 12.3147,
      "duration": 0.0931,
      "velocity": 90,
      "chip": "ym2612"
    },
    {
      "channel": 1,
      "note": 80,
      "start": 12.4267,
      "duration": 0.0931,
      "velocity": 90,
      "chip": "ym2612"
    },
    {
      "channel": 0,
      "note": 61,
      "start": 12.5384,
      "duration": 1.7724,
      "velocity": 106,
      "chip": "ym2612"
    },
    {
      "channel": 1,
      "note": 79,
      "start": 12.5389,
      "duration": 0.4287,
      "velocity": 90,
      "chip": "ym2612"
    },
    {
      "channel": 5,
      "note": 81,
      "start": 12.5404,
      "duration": 0.0929,
      "velocity": 90,
      "chip": "ym2612"
    },
    {
      "channel": 5,
      "note": 80,
      "start": 12.6517,
      "duration": 0.0932,
      "velocity": 90,
      "chip": "ym2612"
    },
    {
      "channel": 4,
      "note": 65,
      "start": 12.7634,
      "duration": 0.429,
      "velocity": 106,
      "chip": "ym2612"
    },
    {
      "channel": 5,
      "note": 79,
      "start": 12.7641,
      "duration": 0.4287,
      "velocity": 90,
      "chip": "ym2612"
    },
    {
      "channel": 1,
      "note": 86,
      "start": 12.9881,
      "duration": 1.323,
      "velocity": 90,
      "chip": "ym2612"
    },
    {
      "channel": 2,
      "note": 65,
      "start": 12.9886,
      "duration": 1.7705,
      "velocity": 106,
      "chip": "ym2612"
    },
    {
      "channel": 4,
      "note": 61,
      "start": 13.2112,
      "duration": 0.4289,
      "velocity": 106,
      "chip": "ym2612"
    },
    {
      "channel": 5,
      "note": 86,
      "start": 13.2143,
      "duration": 1.322,
      "velocity": 90,
      "chip": "ym2612"
    },
    {
      "channel": 3,
      "note": 65,
      "start": 13.4349,
      "duration": 1.7724,
      "velocity": 106,
      "chip": "ym2612"
    },
    {
      "channel": 4,
      "note": 65,
      "start": 13.659,
      "duration": 0.8768,
      "velocity": 106,
      "chip": "ym2612"
    },
    {
      "channel": 0,
      "note": 53,
      "start": 14.3297,
      "duration": 2.6681,
      "velocity": 106,
      "chip": "ym2612"
    },
    {
      "channel": 1,
      "note": 81,
      "start": 14.3322,
      "duration": 0.3147,
      "velocity": 90,
      "chip": "ym2612"
    },
    {
      "channel": 4,
      "note": 71,
      "start": 14.5548,
      "duration": 0.4289,
      "velocity": 106,
      "chip": "ym2612"
    },
    {
      "channel": 5,
      "note": 81,
      "start": 14.5578,
      "duration": 0.3141,
      "velocity": 90,
      "chip": "ym2612"
    },
    {
      "channel": 1,
      "note": 79,
      "start": 14.6661,
      "duration": 0.2795,
      "velocity": 90,
      "chip": "ym2612"
    },
    {
      "channel": 2,
      "note": 60,
      "start": 14.7779,
      "duration": 0.8768,
      "velocity": 106,
      "chip": "ym2612"
    },
    {
      "channel": 5,
      "note": 79,
      "start": 14.8909,
      "duration": 0.2797,
      "velocity": 90,
      "chip": "ym2612"
    },
    {
      "channel": 1,
      "note": 77,
      "start": 14.9643,
      "duration": 0.2424,
      "velocity": 90,
      "chip": "ym2612"
    },
    {
      "channel": 4,
      "note": 53,
      "start": 15.0025,
      "duration": 0.429,
      "velocity": 106,
      "chip": "ym2612"
    },
    {
      "channel": 5,
      "note": 77,
      "start": 15.1894,
      "duration": 0.2428,
      "velocity": 90,
      "chip": "ym2612"
    },
    {
      "channel": 1,
      "note": 76,
      "start": 15.2256,
      "duration": 1.3246,
      "velocity": 90,
      "chip": "ym2612"
    },
    {
      "channel": 3,
      "note": 71,
      "start": 15.2264,
      "duration": 3.5634,
      "velocity": 106,
      "chip": "ym2612"
    },
    {
      "channel": 4,
      "note": 60,
      "start": 15.4503,
      "duration": 0.429,
      "velocity": 106,
      "chip": "ym2612"
    },
    {
      "channel": 5,
      "note": 76,
      "start": 15.451,
      "duration": 1.3244,
      "velocity": 90,
      "chip": "ym2612"
    },
    {
      "channel": 2,
      "note": 69,
      "start": 15.6736,
      "duration": 2.668,
      "velocity": 106,
      "chip": "ym2612"
    },
    {
      "channel": 4,
      "note": 65,
      "start": 15.8982,
      "duration": 1.3245,
      "velocity": 106,
      "chip": "ym2612"
    },
    {
      "channel": 1,
      "note": 74,
      "start": 16.569,
      "duration": 0.4291,
      "velocity": 90,
      "chip": "ym2612"
    },
    {
      "channel": 5,
      "note": 74,
      "start": 16.7941,
      "duration": 0.4291,
      "velocity": 90,
      "chip": "ym2612"
    },
    {
      "channel": 0,
      "note": 52,
      "start": 17.0166,
      "duration": 0.8768,
      "velocity": 106,
      "chip": "ym2612"
    },
    {
      "channel": 1,
      "note": 76,
      "start": 17.0171,
      "duration": 0.4288,
      "velocity": 90,
      "chip": "ym2612"
    },
    {
      "channel": 4,
      "note": 69,
      "start": 17.2416,
      "duration": 0.8767,
      "velocity": 106,
      "chip": "ym2612"
    },
    {
      "channel": 5,
      "note": 76,
      "start": 17.2423,
      "duration": 0.4286,
      "velocity": 90,
      "chip": "ym2612"
    },
    {
      "channel": 1,
      "note": 77,
      "start": 17.4646,
      "duration": 0.4291,
      "velocity": 90,
      "chip": "ym2612"
    },
    {
      "channel": 5,
      "note": 77,
      "start": 17.6898,
      "duration": 0.429,
      "velocity": 90,
      "chip": "ym2612"
    },
    {
      "channel": 0,
      "note": 50,
      "start": 17.9122,
      "duration": 2.6681,
      "velocity": 106,
      "chip": "ym2612"
    },
    {
      "channel": 1,
      "note": 68,
      "start": 17.9127,
      "duration": 0.3167,
      "velocity": 90,
      "chip": "ym2612"
    },
    {
      "channel": 4,
      "note": 52,
      "start": 18.1372,
      "duration": 0.4293,
      "velocity": 106,
      "chip": "ym2612"
    },
    {
      "channel": 5,
      "note": 68,
      "start": 18.1379,
      "duration": 0.3167,
      "velocity": 90,
      "chip": "ym2612"
    },
    {
      "channel": 1,
      "note": 69,
      "start": 18.2488,
      "duration": 0.2794,
      "velocity": 90,
      "chip": "ym2612"
    },
    {
      "channel": 2,
      "note": 57,
      "start": 18.3605,
      "duration": 0.8768,
      "velocity": 106,
      "chip": "ym2612"
    },
    {
      "channel": 5,
      "note": 69,
      "start": 18.4734,
      "duration": 0.2797,
      "velocity": 90,
      "chip": "ym2612"
    },
    {
      "channel": 1,
      "note": 76,
      "start": 18.5469,
      "duration": 0.2424,
      "velocity": 90,
      "chip": "ym2612"
    },
    {
      "channel": 4,
      "note": 50,
      "start": 18.5851,
      "duration": 0.4289,
      "velocity": 106,
      "chip": "ym2612"
    },
    {
      "channel": 5,
      "note": 76,
      "start": 18.772,
      "duration": 0.2424,
      "velocity": 90,
      "chip": "ym2612"
    },
    {
      "channel": 1,
      "note": 74,
      "start": 18.8082,
      "duration": 1.3246,
      "velocity": 90,
      "chip": "ym2612"
    },
    {
      "channel": 3,
      "note": 65,
      "start": 18.809,
      "duration": 3.5634,
      "velocity": 106,
      "chip": "ym2612"
    },
    {
      "channel": 4,
      "note": 57,
      "start": 19.0333,
      "duration": 0.4286,
      "velocity": 106,
      "chip": "ym2612"
    },
    {
      "channel": 5,
      "note": 74,
      "start": 19.034,
      "duration": 1.3239,
      "velocity": 90,
      "chip": "ym2612"
    },
    {
      "channel": 2,
      "note": 65,
      "start": 19.2562,
      "duration": 2.6681,
      "velocity": 106,
      "chip": "ym2612"
    },
    {
      "channel": 4,
      "note": 62,
      "start": 19.4807,
      "duration": 1.3246,
      "velocity": 106,
      "chip": "ym2612"
    },
    {
      "channel": 1,
      "note": 72,
      "start": 20.1516,
      "duration": 0.429,
      "velocity": 90,
      "chip": "ym2612"
    },
    {
      "channel": 5,
      "note": 72,
      "start": 20.3767,
      "duration": 0.4291,
      "velocity": 90,
      "chip": "ym2612"
    },
    {
      "channel": 0,
      "note": 60,
      "start": 20.5992,
      "duration": 0.8768,
      "velocity": 106,
      "chip": "ym2612"
    },
    {
      "channel": 1,
      "note": 74,
      "start": 20.5997,
      "duration": 0.4287,
      "velocity": 90,
      "chip": "ym2612"
    },
    {
      "channel": 4,
      "note": 65,
      "start": 20.8242,
      "duration": 0.8767,
      "velocity": 106,
      "chip": "ym2612"
    },
    {
      "channel": 5,
      "note": 74,
      "start": 20.8248,
      "duration": 0.4286,
      "velocity": 90,
      "chip": "ym2612"
    },
    {
      "channel": 1,
      "note": 76,
      "start": 21.0472,
      "duration": 0.429,
      "velocity": 90,
      "chip": "ym2612"
    },
    {
      "channel": 5,
      "note": 76,
      "start": 21.2724,
      "duration": 0.4289,
      "velocity": 90,
      "chip": "ym2612"
    },
    {
      "channel": 0,
      "note": 59,
      "start": 21.4948,
      "duration": 1.7724,
      "velocity": 106,
      "chip": "ym2612"
    },
    {
      "channel": 1,
      "note": 77,
      "start": 21.4953,
      "duration": 0.4287,
      "velocity": 90,
      "chip": "ym2612"
    },
    {
      "channel": 4,
      "note": 60,
      "start": 21.7198,
      "duration": 0.4293,
      "velocity": 106,
      "chip": "ym2612"
    },
    {
      "channel": 5,
      "note": 77,
      "start": 21.7205,
      "duration": 0.4291,
      "velocity": 90,
      "chip": "ym2612"
    },
    {
      "channel": 1,
      "note": 79,
      "start": 21.9429,
      "duration": 0.4289,
      "velocity": 90,
      "chip": "ym2612"
    },
    {
      "channel": 2,
      "note": 62,
      "start": 21.9434,
      "duration": 1.7726,
      "velocity": 106,
      "chip": "ym2612"
    },
    {
      "channel": 4,
      "note": 59,
      "start": 22.1676,
      "duration": 0.4289,
      "velocity": 106,
      "chip": "ym2612"
    },
    {
      "channel": 5,
      "note": 79,
      "start": 22.1683,
      "duration": 0.4287,
      "velocity": 90,
      "chip": "ym2612"
    },
    {
      "channel": 1,
      "note": 81,
      "start": 22.3907,
      "duration": 0.429,
      "velocity": 90,
      "chip": "ym2612"
    },
    {
      "channel": 3,
      "note": 62,
      "start": 22.3916,
      "duration": 1.7721,
      "velocity": 106,
      "chip": "ym2612"
    },
    {
      "channel": 4,
      "note": 62,
      "start": 22.6159,
      "duration": 0.8764,
      "velocity": 106,
      "chip": "ym2612"
    },
    {
      "channel": 5,
      "note": 81,
      "start": 22.6166,
      "duration": 0.4283,
      "velocity": 90,
      "chip": "ym2612"
    },
    {
      "channel": 1,
      "note": 84,
      "start": 22.8385,
      "duration": 0.429,
      "velocity": 90,
      "chip": "ym2612"
    },
    {
      "channel": 5,
      "note": 84,
      "start": 23.0636,
      "duration": 0.429,
      "velocity": 90,
      "chip": "ym2612"
    },
    {
      "channel": 0,
      "note": 52,
      "start": 23.2861,
      "duration": 1.7724,
      "velocity": 106,
      "chip": "ym2612"
    },
    {
      "channel": 1,
      "note": 83,
      "start": 23.2866,
      "duration": 0.4291,
      "velocity": 90,
      "chip": "ym2612"
    },
    {
      "channel": 4,
      "note": 65,
      "start": 23.5111,
      "duration": 0.4289,
      "velocity": 106,
      "chip": "ym2612"
    },
    {
      "channel": 5,
      "note": 83,
      "start": 23.5117,
      "duration": 0.4288,
      "velocity": 90,
      "chip": "ym2612"
    },
    {
      "channel": 1,
      "note": 81,
      "start": 23.7342,
      "duration": 0.429,
      "velocity": 90,
      "chip": "ym2612"
    },
    {
      "channel": 2,
      "note": 59,
      "start": 23.7347,
      "duration": 1.7721,
      "velocity": 106,
      "chip": "ym2612"
    },
    {
      "channel": 4,
      "note": 52,
      "start": 23.9589,
      "duration": 0.4289,
      "velocity": 106,
      "chip": "ym2612"
    },
    {
      "channel": 5,
      "note": 81,
      "start": 23.9596,
      "duration": 0.4287,
      "velocity": 90,
      "chip": "ym2612"
    },
    {
      "channel": 1,
      "note": 80,
      "start": 24.1824,
      "duration": 0.4285,
      "velocity": 90,
      "chip": "ym2612"
    },
    {
      "channel": 3,
      "note": 65,
      "start": 24.1832,
      "duration": 1.7718,
      "velocity": 106,
      "chip": "ym2612"
    },
    {
      "channel": 4,
      "note": 59,
      "start": 24.4067,
      "duration": 0.8768,
      "velocity": 106,
      "chip": "ym2612"
    },
    {
      "channel": 5,
      "note": 80,
      "start": 24.4074,
      "duration": 0.4286,
      "velocity": 90,
      "chip": "ym2612"
    },
    {
      "channel": 1,
      "note": 76,
      "start": 24.6298,
      "duration": 0.429,
      "velocity": 90,
      "chip": "ym2612"
    },
    {
      "channel": 5,
      "note": 76,
      "start": 24.8549,
      "duration": 0.429,
      "velocity": 90,
      "chip": "ym2612"
    },
    {
      "channel": 0,
      "note": 53,
      "start": 25.0774,
      "duration": 1.7724,
      "velocity": 106,
      "chip": "ym2612"
    },
    {
      "channel": 1,
      "note": 74,
      "start": 25.0778,
      "duration": 0.3168,
      "velocity": 90,
      "chip": "ym2612"
    },
    {
      "channel": 4,
      "note": 64,
      "start": 25.3024,
      "duration": 0.4289,
      "velocity": 106,
      "chip": "ym2612"
    },
    {
      "channel": 5,
      "note": 74,
      "start": 25.3031,
      "duration": 0.3166,
      "velocity": 90,
      "chip": "ym2612"
    },
    {
      "channel": 1,
      "note": 72,
      "start": 25.4134,
      "duration": 0.2798,
      "velocity": 90,
      "chip": "ym2612"
    },
    {
      "channel": 2,
      "note": 57,
      "start": 25.5256,
      "duration": 0.8768,
      "velocity": 106,
      "chip": "ym2612"
    },
    {
      "channel": 5,
      "note": 72,
      "start": 25.6385,
      "duration": 0.2798,
      "velocity": 90,
      "chip": "ym2612"
    },
    {
      "channel": 1,
      "note": 75,
      "start": 25.712,
      "duration": 0.2424,
      "velocity": 90,
      "chip": "ym2612"
    },
    {
      "channel": 4,
      "note": 53,
      "start": 25.7503,
      "duration": 0.4288,
      "velocity": 106,
      "chip": "ym2612"
    },
    {
      "channel": 5,
      "note": 75,
      "start": 25.9371,
      "duration": 0.2424,
      "velocity": 90,
      "chip": "ym2612"
    },
    {
      "channel": 1,
      "note": 74,
      "start": 25.9733,
      "duration": 0.2797,
      "velocity": 90,
      "chip": "ym2612"
    },
    {
      "channel": 3,
      "note": 64,
      "start": 25.9741,
      "duration": 1.3247,
      "velocity": 106,
      "chip": "ym2612"
    },
    {
      "channel": 4,
      "note": 57,
      "start": 26.198,
      "duration": 0.4289,
      "velocity": 106,
      "chip": "ym2612"
    },
    {
      "channel": 5,
      "note": 74,
      "start": 26.1991,
      "duration": 0.2788,
      "velocity": 90,
      "chip": "ym2612"
    },
    {
      "channel": 1,
      "note": 72,
      "start": 26.2718,
      "duration": 0.2797,
      "velocity": 90,
      "chip": "ym2612"
    },
    {
      "channel": 2,
      "note": 63,
      "start": 26.4213,
      "duration": 1.3248,
      "velocity": 106,
      "chip": "ym2612"
    },
    {
      "channel": 5,
      "note": 72,
      "start": 26.4969,
      "duration": 0.2797,
      "velocity": 90,
      "chip": "ym2612"
    },
    {
      "channel": 1,
      "note": 80,
      "start": 26.5703,
      "duration": 1.1754,
      "velocity": 90,
      "chip": "ym2612"
    },
    {
      "channel": 4,
      "note": 60,
      "start": 26.6459,
      "duration": 0.4289,
      "velocity": 106,
      "chip": "ym2612"
    },
    {
      "channel": 5,
      "note": 80,
      "start": 26.7954,
      "duration": 1.1753,
      "velocity": 90,
      "chip": "ym2612"
    },
    {
      "channel": 0,
      "note": 55,
      "start": 26.8687,
      "duration": 1.7724,
      "velocity": 106,
      "chip": "ym2612"
    },
    {
      "channel": 4,
      "note": 63,
      "start": 27.0937,
      "duration": 0.429,
      "velocity": 106,
      "chip": "ym2612"
    },
    {
      "channel": 3,
      "note": 60,
      "start": 27.3173,
      "duration": 1.3433,
      "velocity": 106,
      "chip": "ym2612"
    },
    {
      "channel": 4,
      "note": 55,
      "start": 27.5416,
      "duration": 0.4288,
      "velocity": 106,
      "chip": "ym2612"
    },
    {
      "channel": 1,
      "note": 79,
      "start": 27.7645,
      "duration": 0.8768,
      "velocity": 90,
      "chip": "ym2612"
    },
    {
      "channel": 2,
      "note": 62,
      "start": 27.7655,
      "duration": 0.8951,
      "velocity": 106,
      "chip": "ym2612"
    },
    {
      "channel": 4,
      "note": 59,
      "start": 27.9893,
      "duration": 0.6713,
      "velocity": 106,
      "chip": "ym2612"
    },
    {
      "channel": 5,
      "note": 79,
      "start": 27.99,
      "duration": 0.6706,
      "velocity": 90,
      "chip": "ym2612"
    },
    {
      "channel": 0,
      "note": 56,
      "start": 28.6601,
      "duration": 0.0005,
      "velocity": 106,
      "chip": "ym2612"
    }
  ]
}