{
  "track_name": "25 - Laughter",
  "duration_sec": 142.598,
  "sample_rate": 44100,
  "note_count": 2750,
  "unique_pitches": 32,
  "pitch_range": 52,
  "avg_note_duration": 0.2525,
  "reconstruction_stats": {
    "notes_reconstructed": 2750,
    "keyon_events": 2750,
    "keyoff_events": 2651,
    "orphan_keyons": 5,
    "unique_pitches": 32,
    "pitch_range": 52,
    "avg_duration_sec": 0.2525
  },
  "metadata": {
    "source": "P\\Phantasy Star IV\\25 - Laughter.vgm"
  },
  "notes": [
    {
      "channel": 1,
      "note": 49,
      "start": 0.0,
      "duration": 0.0977,
      "velocity": 103,
      "chip": "ym2612"
    },
    {
      "channel": 2,
      "note": 49,
      "start": 0.001,
      "duration": 0.0969,
      "velocity": 96,
      "chip": "ym2612"
    },
    {
      "channel": 1,
      "note": 50,
      "start": 0.0978,
      "duration": 0.0998,
      "velocity": 103,
      "chip": "ym2612"
    },
    {
      "channel": 2,
      "note": 50,
      "start": 0.0982,
      "duration": 0.0998,
      "velocity": 96,
      "chip": "ym2612"
    },
    {
      "channel": 1,
      "note": 49,
      "start": 0.1978,
      "duration": 0.0998,
      "velocity": 103,
      "chip": "ym2612"
    },
    {
      "channel": 2,
      "note": 49,
      "start": 0.1982,
      "duration": 0.0998,
      "velocity": 96,
      "chip": "ym2612"
    },
    {
      "channel": 1,
      "note": 52,
      "start": 0.2978,
      "duration": 0.0998,
      "velocity": 103,
      "chip": "ym2612"
    },
    {
      "channel": 2,
      "note": 52,
      "start": 0.2982,
      "duration": 0.0998,
      "velocity": 96,
      "chip": "ym2612"
    },
    {
      "channel": 1,
      "note": 49,
      "start": 0.3978,
      "duration": 0.0998,
      "velocity": 103,
      "chip": "ym2612"
    },
    {
      "channel": 2,
      "note": 49,
      "start": 0.3982,
      "duration": 0.0998,
      "velocity": 96,
      "chip": "ym2612"
    },
    {
      "channel": 1,
      "note": 54,
      "start": 0.4978,
      "duration": 0.0998,
      "velocity": 103,
      "chip": "ym2612"
    },
    {
      "channel": 2,
      "note": 54,
      "start": 0.4982,
      "duration": 0.0998,
      "velocity": 96,
      "chip": "ym2612"
    },
    {
      "channel": 1,
      "note": 49,
      "start": 0.5978,
      "duration": 0.0998,
      "velocity": 103,
      "chip": "ym2612"
    },
    {
      "channel": 2,
      "note": 49,
      "start": 0.5982,
      "duration": 0.0998,
      "velocity": 96,
      "chip": "ym2612"
    },
    {
      "channel": 1,
      "note": 56,
      "start": 0.6978,
      "duration": 0.0998,
      "velocity": 103,
      "chip": "ym2612"
    },
    {
      "channel": 2,
      "note": 56,
      "start": 0.6982,
      "duration": 0.0998,
      "velocity": 96,
      "chip": "ym2612"
    },
    {
      "channel": 1,
      "note": 49,
      "start": 0.7979,
      "duration": 0.0998,
      "velocity": 103,
      "chip": "ym2612"
    },
    {
      "channel": 2,
      "note": 49,
      "start": 0.7982,
      "duration": 0.0997,
      "velocity": 96,
      "chip": "ym2612"
    },
    {
      "channel": 1,
      "note": 50,
      "start": 0.8978,
      "duration": 0.0998,
      "velocity": 103,
      "chip": "ym2612"
    },
    {
      "channel": 2,
      "note": 50,
      "start": 0.8982,
      "duration": 0.0998,
      "velocity": 96,
      "chip": "ym2612"
    },
    {
      "channel": 1,
      "note": 49,
      "start": 0.9978,
      "duration": 0.0998,
      "velocity": 103,
      "chip": "ym2612"
    },
    {
      "channel": 2,
      "note": 49,
      "start": 0.9982,
      "duration": 0.0998,
      "velocity": 96,
      "chip": "ym2612"
    },
    {
      "channel": 1,
      "note": 52,
      "start": 1.0978,
      "duration": 0.0998,
      "velocity": 103,
      "chip": "ym2612"
    },
    {
      "channel": 2,
      "note": 52,
      "start": 1.0982,
      "duration": 0.0998,
      "velocity": 96,
      "chip": "ym2612"
    },
    {
      "channel": 1,
      "note": 49,
      "start": 1.1978,
      "duration": 0.0998,
      "velocity": 103,
      "chip": "ym2612"
    },
    {
      "channel": 2,
      "note": 49,
      "start": 1.1982,
      "duration": 0.0998,
      "velocity": 96,
      "chip": "ym2612"
    },
    {
      "channel": 1,
      "note": 54,
      "start": 1.2978,
      "duration": 0.0998,
      "velocity": 103,
      "chip": "ym2612"
    },
    {
      "channel": 2,
      "note": 54,
      "start": 1.2982,
      "duration": 0.0998,
      "velocity": 96,
      "chip": "ym2612"
    },
    {
      "channel": 1,
      "note": 49,
      "start": 1.3978,
      "duration": 0.0998,
      "velocity": 103,
      "chip": "ym2612"
    },
    {
      "channel": 2,
      "note": 49,
      "start": 1.3982,
      "duration": 0.0998,
      "velocity": 96,
      "chip": "ym2612"
    },
    {
      "channel": 1,
      "note": 56,
      "start": 1.4978,
      "duration": 0.1001,
      "velocity": 103,
      "chip": "ym2612"
    },
    {
      "channel": 2,
      "note": 56,
      "start": 1.4982,
      "duration": 0.1002,
      "velocity": 96,
      "chip": "ym2612"
    },
    {
      "channel": 1,
      "note": 49,
      "start": 1.5982,
      "duration": 0.0995,
      "velocity": 103,
      "chip": "ym2612"
    },
    {
      "channel": 2,
      "note": 49,
      "start": 1.5986,
      "duration": 0.0993,
      "velocity": 96,
      "chip": "ym2612"
    },
    {
      "channel": 1,
      "note": 50,
      "start": 1.6978,
      "duration": 0.0998,
      "velocity": 103,
      "chip": "ym2612"
    },
    {
      "channel": 2,
      "note": 50,
      "start": 1.6982,
      "duration": 0.0998,
      "velocity": 96,
      "chip": "ym2612"
    },
    {
      "channel": 1,
      "note": 49,
      "start": 1.7978,
      "duration": 0.0998,
      "velocity": 103,
      "chip": "ym2612"
    },
    {
      "channel": 2,
      "note": 49,
      "start": 1.7982,
      "duration": 0.0998,
      "velocity": 96,
      "chip": "ym2612"
    },
    {
      "channel": 1,
      "note": 52,
      "start": 1.8978,
      "duration": 0.0998,
      "velocity": 103,
      "chip": "ym2612"
    },
    {
      "channel": 2,
      "note": 52,
      "start": 1.8982,
      "duration": 0.0998,
      "velocity": 96,
      "chip": "ym2612"
    },
    {
      "channel": 1,
      "note": 49,
      "start": 1.9978,
      "duration": 0.0998,
      "velocity": 103,
      "chip": "ym2612"
    },
    {
      "channel": 2,
      "note": 49,
      "start": 1.9982,
      "duration": 0.0998,
      "velocity": 96,
      "chip": "ym2612"
    },
    {
      "channel": 1,
      "note": 54,
      "start": 2.0978,
      "duration": 0.0998,
      "velocity": 103,
      "chip": "ym2612"
    },
    {
      "channel": 2,
      "note": 54,
      "start": 2.0982,
      "duration": 0.0998,
      "velocity": 96,
      "chip": "ym2612"
    },
    {
      "channel": 1,
      "note": 49,
      "start": 2.1978,
      "duration": 0.0998,
      "velocity": 103,
      "chip": "ym2612"
    },
    {
      "channel": 2,
      "note": 49,
      "start": 2.1982,
      "duration": 0.0998,
      "velocity": 96,
      "chip": "ym2612"
    },
    {
      "channel": 1,
      "note": 56,
      "start": 2.2978,
      "duration": 0.0998,
      "velocity": 103,
      "chip": "ym2612"
    },
    {
      "channel": 2,
      "note": 56,
      "start": 2.2982,
      "duration": 0.0998,
      "velocity": 96,
      "chip": "ym2612"
    },
    {
      "channel": 1,
      "note": 49,
      "start": 2.3979,
      "duration": 0.0998,
      "velocity": 103,
      "chip": "ym2612"
    },
    {
      "channel": 2,
      "note": 49,
      "start": 2.3982,
      "duration": 0.0997,
      "velocity": 96,
      "chip": "ym2612"
    },
    {
      "channel": 1,
      "note": 50,
      "start": 2.4978,
      "duration": 0.0998,
      "velocity": 103,
      "chip": "ym2612"
    },
    {
      "channel": 2,
      "note": 50,
      "start": 2.4982,
      "duration": 0.0998,
      "velocity": 96,
      "chip": "ym2612"
    },
    {
      "channel": 1,
      "note": 49,
      "start": 2.5978,
      "duration": 0.0998,
      "velocity": 103,
      "chip": "ym2612"
    },
    {
      "channel": 2,
      "note": 49,
      "start": 2.5982,
      "duration": 0.0998,
      "velocity": 96,
      "chip": "ym2612"
    },
    {
      "channel": 1,
      "note": 52,
      "start": 2.6978,
      "duration": 0.0998,
      "velocity": 103,
      "chip": "ym2612"
    },
    {
      "channel": 2,
      "note": 52,
      "start": 2.6982,
      "duration": 0.0998,
      "velocity": 96,
      "chip": "ym2612"
    },
    {
      "channel": 1,
      "note": 49,
      "start": 2.7978,
      "duration": 0.0998,
      "velocity": 103,
      "chip": "ym2612"
    },
    {
      "channel": 2,
      "note": 49,
      "start": 2.7982,
      "duration": 0.0998,
      "velocity": 96,
      "chip": "ym2612"
    },
    {
      "channel": 1,
      "note": 54,
      "start": 2.8978,
      "duration": 0.0998,
      "velocity": 103,
      "chip": "ym2612"
    },
    {
      "channel": 2,
      "note": 54,
      "start": 2.8982,
      "duration": 0.0998,
      "velocity": 96,
      "chip": "ym2612"
    },
    {
      "channel": 1,
      "note": 49,
      "start": 2.9978,
      "duration": 0.0998,
      "velocity": 103,
      "chip": "ym2612"
    },
    {
      "channel": 2,
      "note": 49,
      "start": 2.9982,
      "duration": 0.0998,
      "velocity": 96,
      "chip": "ym2612"
    },
    {
      "channel": 1,
      "note": 56,
      "start": 3.0978,
      "duration": 0.1002,
      "velocity": 103,
      "chip": "ym2612"
    },
    {
      "channel": 2,
      "note": 56,
      "start": 3.0982,
      "duration": 0.1003,
      "velocity": 96,
      "chip": "ym2612"
    },
    {
      "channel": 0,
      "note": 49,
      "start": 3.1979,
      "duration": 1.5999,
      "velocity": 97,
      "chip": "ym2612"
    },
    {
      "channel": 1,
      "note": 49,
      "start": 3.1983,
      "duration": 0.0994,
      "velocity": 103,
      "chip": "ym2612"
    },
    {
      "channel": 2,
      "note": 49,
      "start": 3.1987,
      "duration": 0.0993,
      "velocity": 96,
      "chip": "ym2612"
    },
    {
      "channel": 3,
      "note": 49,
      "start": 3.199,
      "duration": 0.1993,
      "velocity": 96,
      "chip": "ym2612"
    },
    {
      "channel": 4,
      "note": 49,
      "start": 3.2651,
      "duration": 1.6,
      "velocity": 97,
      "chip": "ym2612"
    },
    {
      "channel": 1,
      "note": 50,
      "start": 3.2979,
      "duration": 0.0998,
      "velocity": 103,
      "chip": "ym2612"
    },
    {
      "channel": 2,
      "note": 50,
      "start": 3.2982,
      "duration": 0.0998,
      "velocity": 96,
      "chip": "ym2612"
    },
    {
      "channel": 1,
      "note": 49,
      "start": 3.3979,
      "duration": 0.0998,
      "velocity": 103,
      "chip": "ym2612"
    },
    {
      "channel": 2,
      "note": 49,
      "start": 3.3982,
      "duration": 0.0998,
      "velocity": 96,
      "chip": "ym2612"
    },
    {
      "channel": 3,
      "note": 49,
      "start": 3.3985,
      "duration": 0.0998,
      "velocity": 96,
      "chip": "ym2612"
    },
    {
      "channel": 1,
      "note": 52,
      "start": 3.4979,
      "duration": 0.0998,
      "velocity": 103,
      "chip": "ym2612"
    },
    {
      "channel": 2,
      "note": 52,
      "start": 3.4982,
      "duration": 0.0998,
      "velocity": 96,
      "chip": "ym2612"
    },
    {
      "channel": 3,
      "note": 49,
      "start": 3.4985,
      "duration": 0.1998,
      "velocity": 96,
      "chip": "ym2612"
    },
    {
      "channel": 1,
      "note": 49,
      "start": 3.5979,
      "duration": 0.0998,
      "velocity": 103,
      "chip": "ym2612"
    },
    {
      "channel": 2,
      "note": 49,
      "start": 3.5982,
      "duration": 0.0998,
      "velocity": 96,
      "chip": "ym2612"
    },
    {
      "channel": 1,
      "note": 54,
      "start": 3.6979,
      "duration": 0.0998,
      "velocity": 103,
      "chip": "ym2612"
    },
    {
      "channel": 2,
      "note": 54,
      "start": 3.6982,
      "duration": 0.0998,
      "velocity": 96,
      "chip": "ym2612"
    },
    {
      "channel": 3,
      "note": 49,
      "start": 3.6985,
      "duration": 0.0998,
      "velocity": 96,
      "chip": "ym2612"
    },
    {
      "channel": 1,
      "note": 49,
      "start": 3.7979,
      "duration": 0.0998,
      "velocity": 103,
      "chip": "ym2612"
    },
    {
      "channel": 2,
      "note": 49,
      "start": 3.7982,
      "duration": 0.0998,
      "velocity": 96,
      "chip": "ym2612"
    },
    {
      "channel": 3,
      "note": 49,
      "start": 3.7985,
      "duration": 0.1999,
      "velocity": 96,
      "chip": "ym2612"
    },
    {
      "channel": 1,
      "note": 56,
      "start": 3.8979,
      "duration": 0.0998,
      "velocity": 103,
      "chip": "ym2612"
    },
    {
      "channel": 2,
      "note": 56,
      "start": 3.8982,
      "duration": 0.0999,
      "velocity": 96,
      "chip": "ym2612"
    },
    {
      "channel": 1,
      "note": 49,
      "start": 3.998,
      "duration": 0.0998,
      "velocity": 103,
      "chip": "ym2612"
    },
    {
      "channel": 2,
      "note": 49,
      "start": 3.9983,
      "duration": 0.0997,
      "velocity": 96,
      "chip": "ym2612"
    },
    {
      "channel": 3,
      "note": 49,
      "start": 3.9986,
      "duration": 0.1997,
      "velocity": 96,
      "chip": "ym2612"
    },
    {
      "channel": 1,
      "note": 50,
      "start": 4.0979,
      "duration": 0.0998,
      "velocity": 103,
      "chip": "ym2612"
    },
    {
      "channel": 2,
      "note": 50,
      "start": 4.0982,
      "duration": 0.0998,
      "velocity": 96,
      "chip": "ym2612"
    },
    {
      "channel": 1,
      "note": 49,
      "start": 4.1979,
      "duration": 0.0998,
      "velocity": 103,
      "chip": "ym2612"
    },
    {
      "channel": 2,
      "note": 49,
      "start": 4.1982,
      "duration": 0.0998,
      "velocity": 96,
      "chip": "ym2612"
    },
    {
      "channel": 3,
      "note": 49,
      "start": 4.1985,
      "duration": 0.1998,
      "velocity": 96,
      "chip": "ym2612"
    },
    {
      "channel": 1,
      "note": 52,
      "start": 4.2979,
      "duration": 0.0998,
      "velocity": 103,
      "chip": "ym2612"
    },
    {
      "channel": 2,
      "note": 52,
      "start": 4.2982,
      "duration": 0.0998,
      "velocity": 96,
      "chip": "ym2612"
    },
    {
      "channel": 1,
      "note": 49,
      "start": 4.3979,
      "duration": 0.0998,
      "velocity": 103,
      "chip": "ym2612"
    },
    {
      "channel": 2,
      "note": 49,
      "start": 4.3982,
      "duration": 0.0998,
      "velocity": 96,
      "chip": "ym2612"
    },
    {
      "channel": 1,
      "note": 54,
      "start": 4.4979,
      "duration": 0.0998,
      "velocity": 103,
      "chip": "ym2612"
    },
    {
      "channel": 2,
      "note": 54,
      "start": 4.4982,
      "duration": 0.0998,
      "velocity": 96,
      "chip": "ym2612"
    },
    {
      "channel": 1,
      "note": 49,
      "start": 4.5979,
      "duration": 0.0998,
      "velocity": 103,
      "chip": "ym2612"
    },
    {
      "channel": 2,
      "note": 49,
      "start": 4.5982,
      "duration": 0.0998,
      "velocity": 96,
      "chip": "ym2612"
    },
    {
      "channel": 1,
      "note": 56,
      "start": 4.6979,
      "duration": 0.1001,
      "velocity": 103,
      "chip": "ym2612"
    },
    {
      "channel": 2,
      "note": 56,
      "start": 4.6982,
      "duration": 0.1002,
      "velocity": 96,
      "chip": "ym2612"
    },
    {
      "channel": 0,
      "note": 49,
      "start": 4.7978,
      "duration": 1.6,
      "velocity": 97,
      "chip": "ym2612"
    },
    {
      "channel": 1,
      "note": 49,
      "start": 4.7982,
      "duration": 0.0995,
      "velocity": 103,
      "chip": "ym2612"
    },
    {
      "channel": 2,
      "note": 49,
      "start": 4.7987,
      "duration": 0.0993,
      "velocity": 96,
      "chip": "ym2612"
    },
    {
      "channel": 3,
      "note": 49,
      "start": 4.799,
      "duration": 0.1993,
      "velocity": 96,
      "chip": "ym2612"
    },
    {
      "channel": 4,
      "note": 49,
      "start": 4.865,
      "duration": 1.6,
      "velocity": 97,
      "chip": "ym2612"
    },
    {
      "channel": 1,
      "note": 50,
      "start": 4.8979,
      "duration": 0.0998,
      "velocity": 103,
      "chip": "ym2612"
    },
    {
      "channel": 2,
      "note": 50,
      "start": 4.8982,
      "duration": 0.0998,
      "velocity": 96,
      "chip": "ym2612"
    },
    {
      "channel": 1,
      "note": 49,
      "start": 4.9979,
      "duration": 0.0998,
      "velocity": 103,
      "chip": "ym2612"
    },
    {
      "channel": 2,
      "note": 49,
      "start": 4.9982,
      "duration": 0.0998,
      "velocity": 96,
      "chip": "ym2612"
    },
    {
      "channel": 3,
      "note": 49,
      "start": 4.9985,
      "duration": 0.0998,
      "velocity": 96,
      "chip": "ym2612"
    },
    {
      "channel": 1,
      "note": 52,
      "start": 5.0979,
      "duration": 0.0998,
      "velocity": 103,
      "chip": "ym2612"
    },
    {
      "channel": 2,
      "note": 52,
      "start": 5.0982,
      "duration": 0.0998,
      "velocity": 96,
      "chip": "ym2612"
    },
    {
      "channel": 3,
      "note": 49,
      "start": 5.0985,
      "duration": 0.1998,
      "velocity": 96,
      "chip": "ym2612"
    },
    {
      "channel": 1,
      "note": 49,
      "start": 5.1979,
      "duration": 0.0998,
      "velocity": 103,
      "chip": "ym2612"
    },
    {
      "channel": 2,
      "note": 49,
      "start": 5.1982,
      "duration": 0.0998,
      "velocity": 96,
      "chip": "ym2612"
    },
    {
      "channel": 1,
      "note": 54,
      "start": 5.2979,
      "duration": 0.0998,
      "velocity": 103,
      "chip": "ym2612"
    },
    {
      "channel": 2,
      "note": 54,
      "start": 5.2982,
      "duration": 0.0998,
      "velocity": 96,
      "chip": "ym2612"
    },
    {
      "channel": 3,
      "note": 49,
      "start": 5.2985,
      "duration": 0.0998,
      "velocity": 96,
      "chip": "ym2612"
    },
    {
      "channel": 1,
      "note": 49,
      "start": 5.3979,
      "duration": 0.0998,
      "velocity": 103,
      "chip": "ym2612"
    },
    {
      "channel": 2,
      "note": 49,
      "start": 5.3982,
      "duration": 0.0998,
      "velocity": 96,
      "chip": "ym2612"
    },
    {
      "channel": 3,
      "note": 49,
      "start": 5.3985,
      "duration": 0.1999,
      "velocity": 96,
      "chip": "ym2612"
    },
    {
      "channel": 1,
      "note": 56,
      "start": 5.4979,
      "duration": 0.0998,
      "velocity": 103,
      "chip": "ym2612"
    },
    {
      "channel": 2,
      "note": 56,
      "start": 5.4982,
      "duration": 0.0999,
      "velocity": 96,
      "chip": "ym2612"
    },
    {
      "channel": 1,
      "note": 49,
      "start": 5.598,
      "duration": 0.0998,
      "velocity": 103,
      "chip": "ym2612"
    },
    {
      "channel": 2,
      "note": 49,
      "start": 5.5983,
      "duration": 0.0997,
      "velocity": 96,
      "chip": "ym2612"
    },
    {
      "channel": 3,
      "note": 49,
      "start": 5.5986,
      "duration": 0.1997,
      "velocity": 96,
      "chip": "ym2612"
    },
    {
      "channel": 1,
      "note": 50,
      "start": 5.6979,
      "duration": 0.0998,
      "velocity": 103,
      "chip": "ym2612"
    },
    {
      "channel": 2,
      "note": 50,
      "start": 5.6982,
      "duration": 0.0998,
      "velocity": 96,
      "chip": "ym2612"
    },
    {
      "channel": 1,
      "note": 49,
      "start": 5.7979,
      "duration": 0.0998,
      "velocity": 103,
      "chip": "ym2612"
    },
    {
      "channel": 2,
      "note": 49,
      "start": 5.7982,
      "duration": 0.0998,
      "velocity": 96,
      "chip": "ym2612"
    },
    {
      "channel": 3,
      "note": 49,
      "start": 5.7985,
      "duration": 0.1998,
      "velocity": 96,
      "chip": "ym2612"
    },
    {
      "channel": 1,
      "note": 52,
      "start": 5.8979,
      "duration": 0.0998,
      "velocity": 103,
      "chip": "ym2612"
    },
    {
      "channel": 2,
      "note": 52,
      "start": 5.8982,
      "duration": 0.0998,
      "velocity": 96,
      "chip": "ym2612"
    },
    {
      "channel": 1,
      "note": 49,
      "start": 5.9979,
      "duration": 0.0998,
      "velocity": 103,
      "chip": "ym2612"
    },
    {
      "channel": 2,
      "note": 49,
      "start": 5.9982,
      "duration": 0.0998,
      "velocity": 96,
      "chip": "ym2612"
    },
    {
      "channel": 1,
      "note": 54,
      "start": 6.0979,
      "duration": 0.0998,
      "velocity": 103,
      "chip": "ym2612"
    },
    {
      "channel": 2,
      "note": 54,
      "start": 6.0982,
      "duration": 0.0998,
      "velocity": 96,
      "chip": "ym2612"
    },
    {
      "channel": 1,
      "note": 49,
      "start": 6.1979,
      "duration": 0.0998,
      "velocity": 103,
      "chip": "ym2612"
    },
    {
      "channel": 2,
      "note": 49,
      "start": 6.1982,
      "duration": 0.0998,
      "velocity": 96,
      "chip": "ym2612"
    },
    {
      "channel": 1,
      "note": 56,
      "start": 6.2979,
      "duration": 0.1001,
      "velocity": 103,
      "chip": "ym2612"
    },
    {
      "channel": 2,
      "note": 56,
      "start": 6.2982,
      "duration": 0.1002,
      "velocity": 96,
      "chip": "ym2612"
    },
    {
      "channel": 0,
      "note": 49,
      "start": 6.3978,
      "duration": 1.6002,
      "velocity": 97,
      "chip": "ym2612"
    },
    {
      "channel": 1,
      "note": 49,
      "start": 6.3982,
      "duration": 0.0995,
      "velocity": 103,
      "chip": "ym2612"
    },
    {
      "channel": 2,
      "note": 49,
      "start": 6.3987,
      "duration": 0.0993,
      "velocity": 96,
      "chip": "ym2612"
    },
    {
      "channel": 3,
      "note": 49,
      "start": 6.399,
      "duration": 0.1993,
      "velocity": 96,
      "chip": "ym2612"
    },
    {
      "channel": 4,
      "note": 49,
      "start": 6.465,
      "duration": 1.5381,
      "velocity": 97,
      "chip": "ym2612"
    },
    {
      "channel": 1,
      "note": 50,
      "start": 6.4979,
      "duration": 0.0998,
      "velocity": 103,
      "chip": "ym2612"
    },
    {
      "channel": 2,
      "note": 50,
      "start": 6.4982,
      "duration": 0.0998,
      "velocity": 96,
      "chip": "ym2612"
    },
    {
      "channel": 1,
      "note": 49,
      "start": 6.5979,
      "duration": 0.0998,
      "velocity": 103,
      "chip": "ym2612"
    },
    {
      "channel": 2,
      "note": 49,
      "start": 6.5982,
      "duration": 0.0998,
      "velocity": 96,
      "chip": "ym2612"
    },
    {
      "channel": 3,
      "note": 49,
      "start": 6.5985,
      "duration": 0.0998,
      "velocity": 96,
      "chip": "ym2612"
    },
    {
      "channel": 1,
      "note": 52,
      "start": 6.6979,
      "duration": 0.0998,
      "velocity": 103,
      "chip": "ym2612"
    },
    {
      "channel": 2,
      "note": 52,
      "start": 6.6982,
      "duration": 0.0998,
      "velocity": 96,
      "chip": "ym2612"
    },
    {
      "channel": 3,
      "note": 49,
      "start": 6.6985,
      "duration": 0.1998,
      "velocity": 96,
      "chip": "ym2612"
    },
    {
      "channel": 1,
      "note": 49,
      "start": 6.7979,
      "duration": 0.0998,
      "velocity": 103,
      "chip": "ym2612"
    },
    {
      "channel": 2,
      "note": 49,
      "start": 6.7982,
      "duration": 0.0998,
      "velocity": 96,
      "chip": "ym2612"
    },
    {
      "channel": 1,
      "note": 54,
      "start": 6.8979,
      "duration": 0.0998,
      "velocity": 103,
      "chip": "ym2612"
    },
    {
      "channel": 2,
      "note": 54,
      "start": 6.8982,
      "duration": 0.0998,
      "velocity": 96,
      "chip": "ym2612"
    },
    {
      "channel": 3,
      "note": 49,
      "start": 6.8985,
      "duration": 0.0998,
      "velocity": 96,
      "chip": "ym2612"
    },
    {
      "channel": 1,
      "note": 49,
      "start": 6.9979,
      "duration": 0.0998,
      "velocity": 103,
      "chip": "ym2612"
    },
    {
      "channel": 2,
      "note": 49,
      "start": 6.9982,
      "duration": 0.0998,
      "velocity": 96,
      "chip": "ym2612"
    },
    {
      "channel": 3,
      "note": 49,
      "start": 6.9985,
      "duration": 0.1998,
      "velocity": 96,
      "chip": "ym2612"
    },
    {
      "channel": 1,
      "note": 56,
      "start": 7.0979,
      "duration": 0.0998,
      "velocity": 103,
      "chip": "ym2612"
    },
    {
      "channel": 2,
      "note": 56,
      "start": 7.0982,
      "duration": 0.0999,
      "velocity": 96,
      "chip": "ym2612"
    },
    {
      "channel": 1,
      "note": 49,
      "start": 7.198,
      "duration": 0.0998,
      "velocity": 103,
      "chip": "ym2612"
    },
    {
      "channel": 2,
      "note": 49,
      "start": 7.1983,
      "duration": 0.0997,
      "velocity": 96,
      "chip": "ym2612"
    },
    {
      "channel": 3,
      "note": 49,
      "start": 7.1986,
      "duration": 0.1997,
      "velocity": 96,
      "chip": "ym2612"
    },
    {
      "channel": 1,
      "note": 50,
      "start": 7.2979,
      "duration": 0.0998,
      "velocity": 103,
      "chip": "ym2612"
    },
    {
      "channel": 2,
      "note": 50,
      "start": 7.2982,
      "duration": 0.0998,
      "velocity": 96,
      "chip": "ym2612"
    },
    {
      "channel": 1,
      "note": 49,
      "start": 7.3979,
      "duration": 0.0998,
      "velocity": 103,
      "chip": "ym2612"
    },
    {
      "channel": 2,
      "note": 49,
      "start": 7.3982,
      "duration": 0.0998,
      "velocity": 96,
      "chip": "ym2612"
    },
    {
      "channel": 3,
      "note": 49,
      "start": 7.3985,
      "duration": 0.1998,
      "velocity": 96,
      "chip": "ym2612"
    },
    {
      "channel": 1,
      "note": 52,
      "start": 7.4979,
      "duration": 0.0998,
      "velocity": 103,
      "chip": "ym2612"
    },
    {
      "channel": 2,
      "note": 52,
      "start": 7.4982,
      "duration": 0.0998,
      "velocity": 96,
      "chip": "ym2612"
    },
    {
      "channel": 1,
      "note": 49,
      "start": 7.5979,
      "duration": 0.0998,
      "velocity": 103,
      "chip": "ym2612"
    },
    {
      "channel": 2,
      "note": 49,
      "start": 7.5982,
      "duration": 0.0998,
      "velocity": 96,
      "chip": "ym2612"
    },
    {
      "channel": 1,
      "note": 54,
      "start": 7.6979,
      "duration": 0.0998,
      "velocity": 103,
      "chip": "ym2612"
    },
    {
      "channel": 2,
      "note": 54,
      "start": 7.6982,
      "duration": 0.0998,
      "velocity": 96,
      "chip": "ym2612"
    },
    {
      "channel": 1,
      "note": 49,
      "start": 7.7979,
      "duration": 0.0998,
      "velocity": 103,
      "chip": "ym2612"
    },
    {
      "channel": 2,
      "note": 49,
      "start": 7.7982,
      "duration": 0.0998,
      "velocity": 96,
      "chip": "ym2612"
    },
    {
      "channel": 1,
      "note": 56,
      "start": 7.8979,
      "duration": 0.1003,
      "velocity": 103,
      "chip": "ym2612"
    },
    {
      "channel": 2,
      "note": 56,
      "start": 7.8982,
      "duration": 0.1002,
      "velocity": 96,
      "chip": "ym2612"
    },
    {
      "channel": 0,
      "note": 49,
      "start": 7.998,
      "duration": 0.5572,
      "velocity": 97,
      "chip": "ym2612"
    },
    {
      "channel": 1,
      "note": 49,
      "start": 7.9983,
      "duration": 0.0064,
      "velocity": 103,
      "chip": "ym2612"
    },
    {
      "channel": 2,
      "note": 49,
      "start": 7.9987,
      "duration": 0.0062,
      "velocity": 96,
      "chip": "ym2612"
    },
    {
      "channel": 3,
      "note": 49,
      "start": 7.9989,
      "duration": 0.0534,
      "velocity": 96,
      "chip": "ym2612"
    },
    {
      "channel": 4,
      "note": 49,
      "start": 8.0032,
      "duration": 0.5575,
      "velocity": 97,
      "chip": "ym2612"
    },
    {
      "channel": 1,
      "note": 50,
      "start": 8.0048,
      "duration": 0.0469,
      "velocity": 103,
      "chip": "ym2612"
    },
    {
      "channel": 2,
      "note": 50,
      "start": 8.0051,
      "duration": 0.0469,
      "velocity": 96,
      "chip": "ym2612"
    },
    {
      "channel": 1,
      "note": 49,
      "start": 8.0519,
      "duration": 0.0998,
      "velocity": 103,
      "chip": "ym2612"
    },
    {
      "channel": 2,
      "note": 49,
      "start": 8.0522,
      "duration": 0.0998,
      "velocity": 96,
      "chip": "ym2612"
    },
    {
      "channel": 3,
      "note": 49,
      "start": 8.0525,
      "duration": 0.0998,
      "velocity": 96,
      "chip": "ym2612"
    },
    {
      "channel": 1,
      "note": 52,
      "start": 8.1519,
      "duration": 0.0999,
      "velocity": 103,
      "chip": "ym2612"
    },
    {
      "channel": 2,
      "note": 52,
      "start": 8.1522,
      "duration": 0.0998,
      "velocity": 96,
      "chip": "ym2612"
    },
    {
      "channel": 3,
      "note": 49,
      "start": 8.1525,
      "duration": 0.1063,
      "velocity": 96,
      "chip": "ym2612"
    },
    {
      "channel": 1,
      "note": 49,
      "start": 8.252,
      "duration": 0.0064,
      "velocity": 103,
      "chip": "ym2612"
    },
    {
      "channel": 2,
      "note": 49,
      "start": 8.2523,
      "duration": 0.0064,
      "velocity": 96,
      "chip": "ym2612"
    },
    {
      "channel": 1,
      "note": 54,
      "start": 8.2586,
      "duration": 0.0474,
      "velocity": 103,
      "chip": "ym2612"
    },
    {
      "channel": 2,
      "note": 54,
      "start": 8.2588,
      "duration": 0.0474,
      "velocity": 96,
      "chip": "ym2612"
    },
    {
      "channel": 3,
      "note": 49,
      "start": 8.2591,
      "duration": 0.0475,
      "velocity": 96,
      "chip": "ym2612"
    },
    {
      "channel": 1,
      "note": 49,
      "start": 8.3062,
      "duration": 0.0998,
      "velocity": 103,
      "chip": "ym2612"
    },
    {
      "channel": 2,
      "note": 49,
      "start": 8.3065,
      "duration": 0.0998,
      "velocity": 96,
      "chip": "ym2612"
    },
    {
      "channel": 3,
      "note": 49,
      "start": 8.3068,
      "duration": 0.1999,
      "velocity": 96,
      "chip": "ym2612"
    },
    {
      "channel": 1,
      "note": 56,
      "start": 8.4062,
      "duration": 0.1001,
      "velocity": 103,
      "chip": "ym2612"
    },
    {
      "channel": 2,
      "note": 56,
      "start": 8.4065,
      "duration": 0.1001,
      "velocity": 96,
      "chip": "ym2612"
    },
    {
      "channel": 1,
      "note": 49,
      "start": 8.5065,
      "duration": 0.0065,
      "velocity": 103,
      "chip": "ym2612"
    },
    {
      "channel": 2,
      "note": 49,
      "start": 8.5066,
      "duration": 0.0067,
      "velocity": 96,
      "chip": "ym2612"
    },
    {
      "channel": 3,
      "note": 49,
      "start": 8.5069,
      "duration": 0.0128,
      "velocity": 96,
      "chip": "ym2612"
    },
    {
      "channel": 1,
      "note": 50,
      "start": 8.5132,
      "duration": 0.006,
      "velocity": 103,
      "chip": "ym2612"
    },
    {
      "channel": 2,
      "note": 50,
      "start": 8.5134,
      "duration": 0.006,
      "velocity": 96,
      "chip": "ym2612"
    },
    {
      "channel": 1,
      "note": 49,
      "start": 8.5194,
      "duration": 0.0063,
      "velocity": 103,
      "chip": "ym2612"
    },
    {
      "channel": 2,
      "note": 49,
      "start": 8.5197,
      "duration": 0.0063,
      "velocity": 96,
      "chip": "ym2612"
    },
    {
      "channel": 3,
      "note": 49,
      "start": 8.5199,
      "duration": 0.0131,
      "velocity": 96,
      "chip": "ym2612"
    },
    {
      "channel": 1,
      "note": 52,
      "start": 8.5259,
      "duration": 0.0066,
      "velocity": 103,
      "chip": "ym2612"
    },
    {
      "channel": 2,
      "note": 52,
      "start": 8.5261,
      "duration": 0.0066,
      "velocity": 96,
      "chip": "ym2612"
    },
    {
      "channel": 1,
      "note": 49,
      "start": 8.5327,
      "duration": 0.0057,
      "velocity": 103,
      "chip": "ym2612"
    },
    {
      "channel": 2,
      "note": 49,
      "start": 8.533,
      "duration": 0.0057,
      "velocity": 96,
      "chip": "ym2612"
    },
    {
      "channel": 1,
      "note": 54,
      "start": 8.5385,
      "duration": 0.0054,
      "velocity": 103,
      "chip": "ym2612"
    },
    {
      "channel": 2,
      "note": 54,
      "start": 8.5388,
      "duration": 0.0054,
      "velocity": 96,
      "chip": "ym2612"
    },
    {
      "channel": 1,
      "note": 49,
      "start": 8.5442,
      "duration": 0.0053,
      "velocity": 103,
      "chip": "ym2612"
    },
    {
      "channel": 2,
      "note": 49,
      "start": 8.5444,
      "duration": 0.0054,
      "velocity": 96,
      "chip": "ym2612"
    },
    {
      "channel": 1,
      "note": 56,
      "start": 8.5498,
      "duration": 0.0059,
      "velocity": 103,
      "chip": "ym2612"
    },
    {
      "channel": 2,
      "note": 56,
      "start": 8.55,
      "duration": 0.0059,
      "velocity": 96,
      "chip": "ym2612"
    },
    {
      "channel": 0,
      "note": 49,
      "start": 8.5555,
      "duration": 0.1898,
      "velocity": 97,
      "chip": "ym2612"
    },
    {
      "channel": 1,
      "note": 49,
      "start": 8.5558,
      "duration": 0.0067,
      "velocity": 103,
      "chip": "ym2612"
    },
    {
      "channel": 2,
      "note": 49,
      "start": 8.5561,
      "duration": 0.0067,
      "velocity": 96,
      "chip": "ym2612"
    },
    {
      "channel": 3,
      "note": 49,
      "start": 8.5563,
      "duration": 0.0542,
      "velocity": 96,
      "chip": "ym2612"
    },
    {
      "channel": 4,
      "note": 49,
      "start": 8.5609,
      "duration": 0.1897,
      "velocity": 97,
      "chip": "ym2612"
    },
    {
      "channel": 1,
      "note": 50,
      "start": 8.5627,
      "duration": 0.0473,
      "velocity": 103,
      "chip": "ym2612"
    },
    {
      "channel": 2,
      "note": 50,
      "start": 8.563,
      "duration": 0.0473,
      "velocity": 96,
      "chip": "ym2612"
    },
    {
      "channel": 1,
      "note": 49,
      "start": 8.6102,
      "duration": 0.0067,
      "velocity": 103,
      "chip": "ym2612"
    },
    {
      "channel": 2,
      "note": 49,
      "start": 8.6105,
      "duration": 0.0067,
      "velocity": 96,
      "chip": "ym2612"
    },
    {
      "channel": 3,
      "note": 49,
      "start": 8.6107,
      "duration": 0.0066,
      "velocity": 96,
      "chip": "ym2612"
    },
    {
      "channel": 1,
      "note": 52,
      "start": 8.6172,
      "duration": 0.0068,
      "velocity": 103,
      "chip": "ym2612"
    },
    {
      "channel": 2,
      "note": 52,
      "start": 8.6173,
      "duration": 0.0068,
      "velocity": 96,
      "chip": "ym2612"
    },
    {
      "channel": 3,
      "note": 49,
      "start": 8.6176,
      "duration": 0.014,
      "velocity": 96,
      "chip": "ym2612"
    },
    {
      "channel": 1,
      "note": 49,
      "start": 8.6241,
      "duration": 0.0069,
      "velocity": 103,
      "chip": "ym2612"
    },
    {
      "channel": 2,
      "note": 49,
      "start": 8.6244,
      "duration": 0.0069,
      "velocity": 96,
      "chip": "ym2612"
    },
    {
      "channel": 1,
      "note": 54,
      "start": 8.6312,
      "duration": 0.0071,
      "velocity": 103,
      "chip": "ym2612"
    },
    {
      "channel": 2,
      "note": 54,
      "start": 8.6315,
      "duration": 0.0071,
      "velocity": 96,
      "chip": "ym2612"
    },
    {
      "channel": 3,
      "note": 49,
      "start": 8.6317,
      "duration": 0.007,
      "velocity": 96,
      "chip": "ym2612"
    },
    {
      "channel": 1,
      "note": 49,
      "start": 8.6385,
      "duration": 0.0064,
      "velocity": 103,
      "chip": "ym2612"
    },
    {
      "channel": 2,
      "note": 49,
      "start": 8.6386,
      "duration": 0.0064,
      "velocity": 96,
      "chip": "ym2612"
    },
    {
      "channel": 3,
      "note": 49,
      "start": 8.6389,
      "duration": 0.0134,
      "velocity": 96,
      "chip": "ym2612"
    },
    {
      "channel": 1,
      "note": 56,
      "start": 8.645,
      "duration": 0.0068,
      "velocity": 103,
      "chip": "ym2612"
    },
    {
      "channel": 2,
      "note": 56,
      "start": 8.6453,
      "duration": 0.0068,
      "velocity": 96,
      "chip": "ym2612"
    },
    {
      "channel": 1,
      "note": 49,
      "start": 8.6519,
      "duration": 0.0067,
      "velocity": 103,
      "chip": "ym2612"
    },
    {
      "channel": 2,
      "note": 49,
      "start": 8.6522,
      "duration": 0.0067,
      "velocity": 96,
      "chip": "ym2612"
    },
    {
      "channel": 3,
      "note": 49,
      "start": 8.6524,
      "duration": 0.0546,
      "velocity": 96,
      "chip": "ym2612"
    },
    {
      "channel": 1,
      "note": 50,
      "start": 8.6588,
      "duration": 0.0478,
      "velocity": 103,
      "chip": "ym2612"
    },
    {
      "channel": 2,
      "note": 50,
      "start": 8.6592,
      "duration": 0.0476,
      "velocity": 96,
      "chip": "ym2612"
    },
    {
      "channel": 1,
      "note": 49,
      "start": 8.7067,
      "duration": 0.0066,
      "velocity": 103,
      "chip": "ym2612"
    },
    {
      "channel": 2,
      "note": 49,
      "start": 8.707,
      "duration": 0.0066,
      "velocity": 96,
      "chip": "ym2612"
    },
    {
      "channel": 3,
      "note": 49,
      "start": 8.7073,
      "duration": 0.0134,
      "velocity": 96,
      "chip": "ym2612"
    },
    {
      "channel": 1,
      "note": 52,
      "start": 8.7135,
      "duration": 0.0067,
      "velocity": 103,
      "chip": "ym2612"
    },
    {
      "channel": 2,
      "note": 52,
      "start": 8.7138,
      "duration": 0.0068,
      "velocity": 96,
      "chip": "ym2612"
    },
    {
      "channel": 1,
      "note": 49,
      "start": 8.7205,
      "duration": 0.0055,
      "velocity": 103,
      "chip": "ym2612"
    },
    {
      "channel": 2,
      "note": 49,
      "start": 8.7207,
      "duration": 0.0055,
      "velocity": 96,
      "chip": "ym2612"
    },
    {
      "channel": 1,
      "note": 54,
      "start": 8.7261,
      "duration": 0.0065,
      "velocity": 103,
      "chip": "ym2612"
    },
    {
      "channel": 2,
      "note": 54,
      "start": 8.7264,
      "duration": 0.0066,
      "velocity": 96,
      "chip": "ym2612"
    },
    {
      "channel": 1,
      "note": 49,
      "start": 8.7329,
      "duration": 0.0063,
      "velocity": 103,
      "chip": "ym2612"
    },
    {
      "channel": 2,
      "note": 49,
      "start": 8.7332,
      "duration": 0.0063,
      "velocity": 96,
      "chip": "ym2612"
    },
    {
      "channel": 1,
      "note": 56,
      "start": 8.7394,
      "duration": 0.0061,
      "velocity": 103,
      "chip": "ym2612"
    },
    {
      "channel": 2,
      "note": 56,
      "start": 8.7396,
      "duration": 0.0061,
      "velocity": 96,
      "chip": "ym2612"
    },
    {
      "channel": 0,
      "note": 49,
      "start": 8.7453,
      "duration": 0.1889,
      "velocity": 97,
      "chip": "ym2612"
    },
    {
      "channel": 1,
      "note": 49,
      "start": 8.7457,
      "duration": 0.0066,
      "velocity": 103,
      "chip": "ym2612"
    },
    {
      "channel": 2,
      "note": 49,
      "start": 8.7459,
      "duration": 0.0066,
      "velocity": 96,
      "chip": "ym2612"
    },
    {
      "channel": 3,
      "note": 49,
      "start": 8.7463,
      "duration": 0.0541,
      "velocity": 96,
      "chip": "ym2612"
    },
    {
      "channel": 4,
      "note": 49,
      "start": 8.7506,
      "duration": 0.1888,
      "velocity": 97,
      "chip": "ym2612"
    },
    {
      "channel": 1,
      "note": 50,
      "start": 8.7524,
      "duration": 0.0474,
      "velocity": 103,
      "chip": "ym2612"
    },
    {
      "channel": 2,
      "note": 50,
      "start": 8.7528,
      "duration": 0.0473,
      "velocity": 96,
      "chip": "ym2612"
    },
    {
      "channel": 1,
      "note": 49,
      "start": 8.7999,
      "duration": 0.0067,
      "velocity": 103,
      "chip": "ym2612"
    },
    {
      "channel": 2,
      "note": 49,
      "start": 8.8003,
      "duration": 0.0066,
      "velocity": 96,
      "chip": "ym2612"
    },
    {
      "channel": 3,
      "note": 49,
      "start": 8.8005,
      "duration": 0.0066,
      "velocity": 96,
      "chip": "ym2612"
    },
    {
      "channel": 1,
      "note": 52,
      "start": 8.8068,
      "duration": 0.0067,
      "velocity": 103,
      "chip": "ym2612"
    },
    {
      "channel": 2,
      "note": 52,
      "start": 8.807,
      "duration": 0.0068,
      "velocity": 96,
      "chip": "ym2612"
    },
    {
      "channel": 3,
      "note": 49,
      "start": 8.8073,
      "duration": 0.0134,
      "velocity": 96,
      "chip": "ym2612"
    },
    {
      "channel": 1,
      "note": 49,
      "start": 8.8138,
      "duration": 0.0064,
      "velocity": 103,
      "chip": "ym2612"
    },
    {
      "channel": 2,
      "note": 49,
      "start": 8.814,
      "duration": 0.0064,
      "velocity": 96,
      "chip": "ym2612"
    },
    {
      "channel": 1,
      "note": 54,
      "start": 8.8204,
      "duration": 0.0068,
      "velocity": 103,
      "chip": "ym2612"
    },
    {
      "channel": 2,
      "note": 54,
      "start": 8.8206,
      "duration": 0.0068,
      "velocity": 96,
      "chip": "ym2612"
    },
    {
      "channel": 3,
      "note": 49,
      "start": 8.8208,
      "duration": 0.0068,
      "velocity": 96,
      "chip": "ym2612"
    },
    {
      "channel": 1,
      "note": 49,
      "start": 8.8274,
      "duration": 0.0066,
      "velocity": 103,
      "chip": "ym2612"
    },
    {
      "channel": 2,
      "note": 49,
      "start": 8.8276,
      "duration": 0.0066,
      "velocity": 96,
      "chip": "ym2612"
    },
    {
      "channel": 3,
      "note": 49,
      "start": 8.8279,
      "duration": 0.0139,
      "velocity": 96,
      "chip": "ym2612"
    },
    {
      "channel": 1,
      "note": 56,
      "start": 8.8341,
      "duration": 0.0071,
      "velocity": 103,
      "chip": "ym2612"
    },
    {
      "channel": 2,
      "note": 56,
      "start": 8.8345,
      "duration": 0.007,
      "velocity": 96,
      "chip": "ym2612"
    },
    {
      "channel": 1,
      "note": 49,
      "start": 8.8414,
      "duration": 0.0064,
      "velocity": 103,
      "chip": "ym2612"
    },
    {
      "channel": 2,
      "note": 49,
      "start": 8.8417,
      "duration": 0.0065,
      "velocity": 96,
      "chip": "ym2612"
    },
    {
      "channel": 3,
      "note": 49,
      "start": 8.8419,
      "duration": 0.0541,
      "velocity": 96,
      "chip": "ym2612"
    },
    {
      "channel": 1,
      "note": 50,
      "start": 8.848,
      "duration": 0.0474,
      "velocity": 103,
      "chip": "ym2612"
    },
    {
      "channel": 2,
      "note": 50,
      "start": 8.8483,
      "duration": 0.0474,
      "velocity": 96,
      "chip": "ym2612"
    },
    {
      "channel": 1,
      "note": 49,
      "start": 8.8956,
      "duration": 0.0067,
      "velocity": 103,
      "chip": "ym2612"
    },
    {
      "channel": 2,
      "note": 49,
      "start": 8.8959,
      "duration": 0.0067,
      "velocity": 96,
      "chip": "ym2612"
    },
    {
      "channel": 3,
      "note": 49,
      "start": 8.8961,
      "duration": 0.0136,
      "velocity": 96,
      "chip": "ym2612"
    },
    {
      "channel": 1,
      "note": 52,
      "start": 8.9025,
      "duration": 0.0065,
      "velocity": 103,
      "chip": "ym2612"
    },
    {
      "channel": 2,
      "note": 52,
      "start": 8.9027,
      "duration": 0.0066,
      "velocity": 96,
      "chip": "ym2612"
    },
    {
      "channel": 1,
      "note": 49,
      "start": 8.9093,
      "duration": 0.0056,
      "velocity": 103,
      "chip": "ym2612"
    },
    {
      "channel": 2,
      "note": 49,
      "start": 8.9095,
      "duration": 0.0055,
      "velocity": 96,
      "chip": "ym2612"
    },
    {
      "channel": 1,
      "note": 54,
      "start": 8.9149,
      "duration": 0.0066,
      "velocity": 103,
      "chip": "ym2612"
    },
    {
      "channel": 2,
      "note": 54,
      "start": 8.9152,
      "duration": 0.0067,
      "velocity": 96,
      "chip": "ym2612"
    },
    {
      "channel": 1,
      "note": 49,
      "start": 8.9218,
      "duration": 0.0061,
      "velocity": 103,
      "chip": "ym2612"
    },
    {
      "channel": 2,
      "note": 49,
      "start": 8.9221,
      "duration": 0.0061,
      "velocity": 96,
      "chip": "ym2612"
    },
    {
      "channel": 1,
      "note": 56,
      "start": 8.9282,
      "duration": 0.0061,
      "velocity": 103,
      "chip": "ym2612"
    },
    {
      "channel": 2,
      "note": 56,
      "start": 8.9284,
      "duration": 0.0062,
      "velocity": 96,
      "chip": "ym2612"
    },
    {
      "channel": 0,
      "note": 49,
      "start": 8.9342,
      "duration": 0.1882,
      "velocity": 97,
      "chip": "ym2612"
    },
    {
      "channel": 1,
      "note": 49,
      "start": 8.9345,
      "duration": 0.0065,
      "velocity": 103,
      "chip": "ym2612"
    },
    {
      "channel": 2,
      "note": 49,
      "start": 8.9347,
      "duration": 0.0065,
      "velocity": 96,
      "chip": "ym2612"
    },
    {
      "channel": 3,
      "note": 49,
      "start": 8.9351,
      "duration": 0.0542,
      "velocity": 96,
      "chip": "ym2612"
    },
    {
      "channel": 4,
      "note": 49,
      "start": 8.9394,
      "duration": 0.1883,
      "velocity": 97,
      "chip": "ym2612"
    },
    {
      "channel": 1,
      "note": 50,
      "start": 8.9412,
      "duration": 0.0476,
      "velocity": 103,
      "chip": "ym2612"
    },
    {
      "channel": 2,
      "note": 50,
      "start": 8.9415,
      "duration": 0.0475,
      "velocity": 96,
      "chip": "ym2612"
    },
    {
      "channel": 1,
      "note": 49,
      "start": 8.9889,
      "duration": 0.0067,
      "velocity": 103,
      "chip": "ym2612"
    },
    {
      "channel": 2,
      "note": 49,
      "start": 8.9892,
      "duration": 0.0067,
      "velocity": 96,
      "chip": "ym2612"
    },
    {
      "channel": 3,
      "note": 49,
      "start": 8.9894,
      "duration": 0.0066,
      "velocity": 96,
      "chip": "ym2612"
    },
    {
      "channel": 1,
      "note": 52,
      "start": 8.9958,
      "duration": 0.0069,
      "velocity": 103,
      "chip": "ym2612"
    },
    {
      "channel": 2,
      "note": 52,
      "start": 8.996,
      "duration": 0.0069,
      "velocity": 96,
      "chip": "ym2612"
    },
    {
      "channel": 3,
      "note": 49,
      "start": 8.9963,
      "duration": 0.0137,
      "velocity": 96,
      "chip": "ym2612"
    },
    {
      "channel": 1,
      "note": 49,
      "start": 9.0028,
      "duration": 0.0067,
      "velocity": 103,
      "chip": "ym2612"
    },
    {
      "channel": 2,
      "note": 49,
      "start": 9.003,
      "duration": 0.0067,
      "velocity": 96,
      "chip": "ym2612"
    },
    {
      "channel": 1,
      "note": 54,
      "start": 9.0096,
      "duration": 0.0063,
      "velocity": 103,
      "chip": "ym2612"
    },
    {
      "channel": 2,
      "note": 54,
      "start": 9.0099,
      "duration": 0.0064,
      "velocity": 96,
      "chip": "ym2612"
    },
    {
      "channel": 3,
      "note": 49,
      "start": 9.0101,
      "duration": 0.0063,
      "velocity": 96,
      "chip": "ym2612"
    },
    {
      "channel": 1,
      "note": 49,
      "start": 9.0162,
      "duration": 0.0065,
      "velocity": 103,
      "chip": "ym2612"
    },
    {
      "channel": 2,
      "note": 49,
      "start": 9.0163,
      "duration": 0.0066,
      "velocity": 96,
      "chip": "ym2612"
    },
    {
      "channel": 3,
      "note": 49,
      "start": 9.0166,
      "duration": 0.0137,
      "velocity": 96,
      "chip": "ym2612"
    },
    {
      "channel": 1,
      "note": 56,
      "start": 9.0229,
      "duration": 0.0068,
      "velocity": 103,
      "chip": "ym2612"
    },
    {
      "channel": 2,
      "note": 56,
      "start": 9.0231,
      "duration": 0.0069,
      "velocity": 96,
      "chip": "ym2612"
    },
    {
      "channel": 1,
      "note": 49,
      "start": 9.0299,
      "duration": 0.0065,
      "velocity": 103,
      "chip": "ym2612"
    },
    {
      "channel": 2,
      "note": 49,
      "start": 9.0302,
      "duration": 0.0064,
      "velocity": 96,
      "chip": "ym2612"
    },
    {
      "channel": 3,
      "note": 49,
      "start": 9.0305,
      "duration": 0.0542,
      "velocity": 96,
      "chip": "ym2612"
    },
    {
      "channel": 1,
      "note": 50,
      "start": 9.0366,
      "duration": 0.0476,
      "velocity": 103,
      "chip": "ym2612"
    },
    {
      "channel": 2,
      "note": 50,
      "start": 9.0368,
      "duration": 0.0476,
      "velocity": 96,
      "chip": "ym2612"
    },
    {
      "channel": 1,
      "note": 49,
      "start": 9.0843,
      "duration": 0.0067,
      "velocity": 103,
      "chip": "ym2612"
    },
    {
      "channel": 2,
      "note": 49,
      "start": 9.0846,
      "duration": 0.0067,
      "velocity": 96,
      "chip": "ym2612"
    },
    {
      "channel": 3,
      "note": 49,
      "start": 9.0848,
      "duration": 0.0134,
      "velocity": 96,
      "chip": "ym2612"
    },
    {
      "channel": 1,
      "note": 52,
      "start": 9.0912,
      "duration": 0.0066,
      "velocity": 103,
      "chip": "ym2612"
    },
    {
      "channel": 2,
      "note": 52,
      "start": 9.0914,
      "duration": 0.0066,
      "velocity": 96,
      "chip": "ym2612"
    },
    {
      "channel": 1,
      "note": 49,
      "start": 9.0979,
      "duration": 0.0055,
      "velocity": 103,
      "chip": "ym2612"
    },
    {
      "channel": 2,
      "note": 49,
      "start": 9.0982,
      "duration": 0.0054,
      "velocity": 96,
      "chip": "ym2612"
    },
    {
      "channel": 1,
      "note": 54,
      "start": 9.1036,
      "duration": 0.0065,
      "velocity": 103,
      "chip": "ym2612"
    },
    {
      "channel": 2,
      "note": 54,
      "start": 9.1038,
      "duration": 0.0065,
      "velocity": 96,
      "chip": "ym2612"
    },
    {
      "channel": 1,
      "note": 49,
      "start": 9.1103,
      "duration": 0.0057,
      "velocity": 103,
      "chip": "ym2612"
    },
    {
      "channel": 2,
      "note": 49,
      "start": 9.1106,
      "duration": 0.0057,
      "velocity": 96,
      "chip": "ym2612"
    },
    {
      "channel": 1,
      "note": 56,
      "start": 9.1162,
      "duration": 0.0064,
      "velocity": 103,
      "chip": "ym2612"
    },
    {
      "channel": 2,
      "note": 56,
      "start": 9.1163,
      "duration": 0.0064,
      "velocity": 96,
      "chip": "ym2612"
    },
    {
      "channel": 0,
      "note": 49,
      "start": 9.1225,
      "duration": 0.1345,
      "velocity": 97,
      "chip": "ym2612"
    },
    {
      "channel": 1,
      "note": 49,
      "start": 9.1227,
      "duration": 0.0067,
      "velocity": 103,
      "chip": "ym2612"
    },
    {
      "channel": 2,
      "note": 49,
      "start": 9.123,
      "duration": 0.0067,
      "velocity": 96,
      "chip": "ym2612"
    },
    {
      "channel": 3,
      "note": 49,
      "start": 9.1233,
      "duration": 0.0127,
      "velocity": 96,
      "chip": "ym2612"
    },
    {
      "channel": 4,
      "note": 49,
      "start": 9.1277,
      "duration": 0.1364,
      "velocity": 97,
      "chip": "ym2612"
    },
    {
      "channel": 1,
      "note": 50,
      "start": 9.1296,
      "duration": 0.0059,
      "velocity": 103,
      "chip": "ym2612"
    },
    {
      "channel": 2,
      "note": 50,
      "start": 9.1299,
      "duration": 0.006,
      "velocity": 96,
      "chip": "ym2612"
    },
    {
      "channel": 1,
      "note": 49,
      "start": 9.1358,
      "duration": 0.0065,
      "velocity": 103,
      "chip": "ym2612"
    },
    {
      "channel": 2,
      "note": 49,
      "start": 9.136,
      "duration": 0.0065,
      "velocity": 96,
      "chip": "ym2612"
    },
    {
      "channel": 3,
      "note": 49,
      "start": 9.1362,
      "duration": 0.0066,
      "velocity": 96,
      "chip": "ym2612"
    },
    {
      "channel": 1,
      "note": 52,
      "start": 9.1425,
      "duration": 0.0066,
      "velocity": 103,
      "chip": "ym2612"
    },
    {
      "channel": 2,
      "note": 52,
      "start": 9.1428,
      "duration": 0.0066,
      "velocity": 96,
      "chip": "ym2612"
    },
    {
      "channel": 3,
      "note": 49,
      "start": 9.1431,
      "duration": 0.0132,
      "velocity": 96,
      "chip": "ym2612"
    },
    {
      "channel": 1,
      "note": 49,
      "start": 9.1493,
      "duration": 0.0063,
      "velocity": 103,
      "chip": "ym2612"
    },
    {
      "channel": 2,
      "note": 49,
      "start": 9.1495,
      "duration": 0.0064,
      "velocity": 96,
      "chip": "ym2612"
    },
    {
      "channel": 1,
      "note": 54,
      "start": 9.1558,
      "duration": 0.0064,
      "velocity": 103,
      "chip": "ym2612"
    },
    {
      "channel": 2,
      "note": 54,
      "start": 9.1561,
      "duration": 0.0063,
      "velocity": 96,
      "chip": "ym2612"
    },
    {
      "channel": 3,
      "note": 49,
      "start": 9.1564,
      "duration": 0.0063,
      "velocity": 96,
      "chip": "ym2612"
    },
    {
      "channel": 1,
      "note": 49,
      "start": 9.1623,
      "duration": 0.0062,
      "velocity": 103,
      "chip": "ym2612"
    },
    {
      "channel": 2,
      "note": 49,
      "start": 9.1626,
      "duration": 0.0062,
      "velocity": 96,
      "chip": "ym2612"
    },
    {
      "channel": 3,
      "note": 49,
      "start": 9.1628,
      "duration": 0.0433,
      "velocity": 96,
      "chip": "ym2612"
    },
    {
      "channel": 1,
      "note": 56,
      "start": 9.1687,
      "duration": 0.037,
      "velocity": 103,
      "chip": "ym2612"
    },
    {
      "channel": 2,
      "note": 56,
      "start": 9.1689,
      "duration": 0.037,
      "velocity": 96,
      "chip": "ym2612"
    },
    {
      "channel": 1,
      "note": 49,
      "start": 9.2058,
      "duration": 0.0068,
      "velocity": 103,
      "chip": "ym2612"
    },
    {
      "channel": 2,
      "note": 49,
      "start": 9.206,
      "duration": 0.0069,
      "velocity": 96,
      "chip": "ym2612"
    },
    {
      "channel": 3,
      "note": 49,
      "start": 9.2063,
      "duration": 0.0134,
      "velocity": 96,
      "chip": "ym2612"
    },
    {
      "channel": 1,
      "note": 50,
      "start": 9.2129,
      "duration": 0.0063,
      "velocity": 103,
      "chip": "ym2612"
    },
    {
      "channel": 2,
      "note": 50,
      "start": 9.2131,
      "duration": 0.0063,
      "velocity": 96,
      "chip": "ym2612"
    },
    {
      "channel": 1,
      "note": 49,
      "start": 9.2193,
      "duration": 0.0066,
      "velocity": 103,
      "chip": "ym2612"
    },
    {
      "channel": 2,
      "note": 49,
      "start": 9.2196,
      "duration": 0.0066,
      "velocity": 96,
      "chip": "ym2612"
    },
    {
      "channel": 3,
      "note": 49,
      "start": 9.2198,
      "duration": 0.0136,
      "velocity": 96,
      "chip": "ym2612"
    },
    {
      "channel": 1,
      "note": 52,
      "start": 9.2261,
      "duration": 0.0068,
      "velocity": 103,
      "chip": "ym2612"
    },
    {
      "channel": 2,
      "note": 52,
      "start": 9.2263,
      "duration": 0.0068,
      "velocity": 96,
      "chip": "ym2612"
    },
    {
      "channel": 1,
      "note": 49,
      "start": 9.2331,
      "duration": 0.0057,
      "velocity": 103,
      "chip": "ym2612"
    },
    {
      "channel": 2,
      "note": 49,
      "start": 9.2333,
      "duration": 0.0058,
      "velocity": 96,
      "chip": "ym2612"
    },
    {
      "channel": 1,
      "note": 54,
      "start": 9.2391,
      "duration": 0.0055,
      "velocity": 103,
      "chip": "ym2612"
    },
    {
      "channel": 2,
      "note": 54,
      "start": 9.2393,
      "duration": 0.0055,
      "velocity": 96,
      "chip": "ym2612"
    },
    {
      "channel": 1,
      "note": 49,
      "start": 9.2448,
      "duration": 0.0055,
      "velocity": 103,
      "chip": "ym2612"
    },
    {
      "channel": 2,
      "note": 49,
      "start": 9.245,
      "duration": 0.0056,
      "velocity": 96,
      "chip": "ym2612"
    },
    {
      "channel": 1,
      "note": 56,
      "start": 9.2506,
      "duration": 0.0068,
      "velocity": 103,
      "chip": "ym2612"
    },
    {
      "channel": 2,
      "note": 56,
      "start": 9.2508,
      "duration": 0.0076,
      "velocity": 97,
      "chip": "ym2612"
    },
    {
      "channel": 0,
      "note": 73,
      "start": 9.2572,
      "duration": 0.1696,
      "velocity": 97,
      "chip": "ym2612"
    },
    {
      "channel": 1,
      "note": 49,
      "start": 9.2575,
      "duration": 0.0085,
      "velocity": 103,
      "chip": "ym2612"
    },
    {
      "channel": 2,
      "note": 68,
      "start": 9.2586,
      "duration": 0.1687,
      "velocity": 97,
      "chip": "ym2612"
    },
    {
      "channel": 3,
      "note": 49,
      "start": 9.259,
      "duration": 0.0535,
      "velocity": 96,
      "chip": "ym2612"
    },
    {
      "channel": 4,
      "note": 73,
      "start": 9.2643,
      "duration": 0.1673,
      "velocity": 97,
      "chip": "ym2612"
    },
    {
      "channel": 1,
      "note": 50,
      "start": 9.2662,
      "duration": 0.0459,
      "velocity": 103,
      "chip": "ym2612"
    },
    {
      "channel": 1,
      "note": 49,
      "start": 9.3123,
      "duration": 0.0071,
      "velocity": 103,
      "chip": "ym2612"
    },
    {
      "channel": 3,
      "note": 49,
      "start": 9.3126,
      "duration": 0.0072,
      "velocity": 96,
      "chip": "ym2612"
    },
    {
      "channel": 1,
      "note": 52,
      "start": 9.3196,
      "duration": 0.0075,
      "velocity": 103,
      "chip": "ym2612"
    },
    {
      "channel": 3,
      "note": 49,
      "start": 9.3199,
      "duration": 0.0147,
      "velocity": 96,
      "chip": "ym2612"
    },
    {
      "channel": 1,
      "note": 49,
      "start": 9.3274,
      "duration": 0.0069,
      "velocity": 103,
      "chip": "ym2612"
    },
    {
      "channel": 1,
      "note": 54,
      "start": 9.3345,
      "duration": 0.0073,
      "velocity": 103,
      "chip": "ym2612"
    },
    {
      "channel": 3,
      "note": 49,
      "start": 9.3349,
      "duration": 0.0073,
      "velocity": 96,
      "chip": "ym2612"
    },
    {
      "channel": 1,
      "note": 49,
      "start": 9.342,
      "duration": 0.0073,
      "velocity": 103,
      "chip": "ym2612"
    },
    {
      "channel": 3,
      "note": 49,
      "start": 9.3423,
      "duration": 0.0147,
      "velocity": 96,
      "chip": "ym2612"
    },
    {
      "channel": 1,
      "note": 56,
      "start": 9.3495,
      "duration": 0.0072,
      "velocity": 103,
      "chip": "ym2612"
    },
    {
      "channel": 1,
      "note": 49,
      "start": 9.3568,
      "duration": 0.0071,
      "velocity": 103,
      "chip": "ym2612"
    },
    {
      "channel": 3,
      "note": 49,
      "start": 9.3572,
      "duration": 0.0552,
      "velocity": 96,
      "chip": "ym2612"
    },
    {
      "channel": 1,
      "note": 50,
      "start": 9.3641,
      "duration": 0.048,
      "velocity": 103,
      "chip": "ym2612"
    },
    {
      "channel": 1,
      "note": 49,
      "start": 9.4123,
      "duration": 0.0071,
      "velocity": 103,
      "chip": "ym2612"
    },
    {
      "channel": 3,
      "note": 49,
      "start": 9.4126,
      "duration": 0.015,
      "velocity": 96,
      "chip": "ym2612"
    },
    {
      "channel": 1,
      "note": 52,
      "start": 9.4197,
      "duration": 0.0074,
      "velocity": 103,
      "chip": "ym2612"
    },
    {
      "channel": 0,
      "note": 76,
      "start": 9.427,
      "duration": 0.0266,
      "velocity": 97,
      "chip": "ym2612"
    },
    {
      "channel": 1,
      "note": 49,
      "start": 9.4272,
      "duration": 0.0061,
      "velocity": 103,
      "chip": "ym2612"
    },
    {
      "channel": 2,
      "note": 71,
      "start": 9.4275,
      "duration": 0.0268,
      "velocity": 97,
      "chip": "ym2612"
    },
    {
      "channel": 4,
      "note": 76,
      "start": 9.4317,
      "duration": 0.0279,
      "velocity": 97,
      "chip": "ym2612"
    },
    {
      "channel": 1,
      "note": 54,
      "start": 9.4335,
      "duration": 0.0068,
      "velocity": 103,
      "chip": "ym2612"
    },
    {
      "channel": 1,
      "note": 49,
      "start": 9.4405,
      "duration": 0.0065,
      "velocity": 103,
      "chip": "ym2612"
    },
    {
      "channel": 1,
      "note": 56,
      "start": 9.4472,
      "duration": 0.0068,
      "velocity": 103,
      "chip": "ym2612"
    },
    {
      "channel": 0,
      "note": 75,
      "start": 9.4539,
      "duration": 0.1973,
      "velocity": 97,
      "chip": "ym2612"
    },
    {
      "channel": 1,
      "note": 49,
      "start": 9.4542,
      "duration": 0.0072,
      "velocity": 103,
      "chip": "ym2612"
    },
    {
      "channel": 2,
      "note": 70,
      "start": 9.4545,
      "duration": 0.1971,
      "velocity": 97,
      "chip": "ym2612"
    },
    {
      "channel": 3,
      "note": 49,
      "start": 9.4548,
      "duration": 0.0546,
      "velocity": 96,
      "chip": "ym2612"
    },
    {
      "channel": 4,
      "note": 75,
      "start": 9.4598,
      "duration": 0.1971,
      "velocity": 97,
      "chip": "ym2612"
    },
    {
      "channel": 1,
      "note": 50,
      "start": 9.4615,
      "duration": 0.0476,
      "velocity": 103,
      "chip": "ym2612"
    },
    {
      "channel": 1,
      "note": 49,
      "start": 9.5093,
      "duration": 0.0071,
      "velocity": 103,
      "chip": "ym2612"
    },
    {
      "channel": 3,
      "note": 49,
      "start": 9.5096,
      "duration": 0.0072,
      "velocity": 96,
      "chip": "ym2612"
    },
    {
      "channel": 1,
      "note": 52,
      "start": 9.5166,
      "duration": 0.0075,
      "velocity": 103,
      "chip": "ym2612"
    },
    {
      "channel": 3,
      "note": 49,
      "start": 9.5169,
      "duration": 0.0147,
      "velocity": 96,
      "chip": "ym2612"
    },
    {
      "channel": 1,
      "note": 49,
      "start": 9.5244,
      "duration": 0.0069,
      "velocity": 103,
      "chip": "ym2612"
    },
    {
      "channel": 1,
      "note": 54,
      "start": 9.5315,
      "duration": 0.0073,
      "velocity": 103,
      "chip": "ym2612"
    },
    {
      "channel": 3,
      "note": 49,
      "start": 9.5319,
      "duration": 0.0073,
      "velocity": 96,
      "chip": "ym2612"
    },
    {
      "channel": 1,
      "note": 49,
      "start": 9.539,
      "duration": 0.0073,
      "velocity": 103,
      "chip": "ym2612"
    },
    {
      "channel": 3,
      "note": 49,
      "start": 9.5393,
      "duration": 0.0148,
      "velocity": 96,
      "chip": "ym2612"
    },
    {
      "channel": 1,
      "note": 56,
      "start": 9.5465,
      "duration": 0.0072,
      "velocity": 103,
      "chip": "ym2612"
    },
    {
      "channel": 1,
      "note": 49,
      "start": 9.5539,
      "duration": 0.007,
      "velocity": 103,
      "chip": "ym2612"
    },
    {
      "channel": 3,
      "note": 49,
      "start": 9.5543,
      "duration": 0.0551,
      "velocity": 96,
      "chip": "ym2612"
    },
    {
      "channel": 1,
      "note": 50,
      "start": 9.5611,
      "duration": 0.048,
      "velocity": 103,
      "chip": "ym2612"
    },
    {
      "channel": 1,
      "note": 49,
      "start": 9.6093,
      "duration": 0.0071,
      "velocity": 103,
      "chip": "ym2612"
    },
    {
      "channel": 3,
      "note": 49,
      "start": 9.6095,
      "duration": 0.0146,
      "velocity": 96,
      "chip": "ym2612"
    },
    {
      "channel": 1,
      "note": 52,
      "start": 9.6166,
      "duration": 0.0073,
      "velocity": 103,
      "chip": "ym2612"
    },
    {
      "channel": 1,
      "note": 49,
      "start": 9.624,
      "duration": 0.0063,
      "velocity": 103,
      "chip": "ym2612"
    },
    {
      "channel": 1,
      "note": 54,
      "start": 9.6304,
      "duration": 0.0071,
      "velocity": 103,
      "chip": "ym2612"
    },
    {
      "channel": 1,
      "note": 49,
      "start": 9.6377,
      "duration": 0.0067,
      "velocity": 103,
      "chip": "ym2612"
    },
    {
      "channel": 1,
      "note": 56,
      "start": 9.6446,
      "duration": 0.0067,
      "velocity": 103,
      "chip": "ym2612"
    },
    {
      "channel": 0,
      "note": 75,
      "start": 9.6512,
      "duration": 0.0699,
      "velocity": 97,
      "chip": "ym2612"
    },
    {
      "channel": 1,
      "note": 49,
      "start": 9.6515,
      "duration": 0.0072,
      "velocity": 103,
      "chip": "ym2612"
    },
    {
      "channel": 2,
      "note": 70,
      "start": 9.6517,
      "duration": 0.0699,
      "velocity": 97,
      "chip": "ym2612"
    },
    {
      "channel": 3,
      "note": 49,
      "start": 9.652,
      "duration": 0.055,
      "velocity": 96,
      "chip": "ym2612"
    },
    {
      "channel": 4,
      "note": 75,
      "start": 9.6569,
      "duration": 0.0699,
      "velocity": 97,
      "chip": "ym2612"
    },
    {
      "channel": 1,
      "note": 50,
      "start": 9.6588,
      "duration": 0.0479,
      "velocity": 103,
      "chip": "ym2612"
    },
    {
      "channel": 1,
      "note": 49,
      "start": 9.7069,
      "duration": 0.0069,
      "velocity": 103,
      "chip": "ym2612"
    },
    {
      "channel": 3,
      "note": 49,
      "start": 9.7071,
      "duration": 0.007,
      "velocity": 96,
      "chip": "ym2612"
    },
    {
      "channel": 1,
      "note": 52,
      "start": 9.7139,
      "duration": 0.0074,
      "velocity": 103,
      "chip": "ym2612"
    },
    {
      "channel": 3,
      "note": 49,
      "start": 9.7143,
      "duration": 0.0149,
      "velocity": 96,
      "chip": "ym2612"
    },
    {
      "channel": 0,
      "note": 73,
      "start": 9.7213,
      "duration": 0.0295,
      "velocity": 97,
      "chip": "ym2612"
    },
    {
      "channel": 1,
      "note": 49,
      "start": 9.7215,
      "duration": 0.0073,
      "velocity": 103,
      "chip": "ym2612"
    },
    {
      "channel": 2,
      "note": 68,
      "start": 9.7217,
      "duration": 0.0297,
      "velocity": 97,
      "chip": "ym2612"
    },
    {
      "channel": 4,
      "note": 73,
      "start": 9.7269,
      "duration": 0.0295,
      "velocity": 97,
      "chip": "ym2612"
    },
    {
      "channel": 1,
      "note": 54,
      "start": 9.729,
      "duration": 0.0071,
      "velocity": 103,
      "chip": "ym2612"
    },
    {
      "channel": 3,
      "note": 49,
      "start": 9.7293,
      "duration": 0.0071,
      "velocity": 96,
      "chip": "ym2612"
    },
    {
      "channel": 1,
      "note": 49,
      "start": 9.7362,
      "duration": 0.0073,
      "velocity": 103,
      "chip": "ym2612"
    },
    {
      "channel": 3,
      "note": 49,
      "start": 9.7366,
      "duration": 0.0151,
      "velocity": 96,
      "chip": "ym2612"
    },
    {
      "channel": 1,
      "note": 56,
      "start": 9.7437,
      "duration": 0.0073,
      "velocity": 103,
      "chip": "ym2612"
    },
    {
      "channel": 0,
      "note": 76,
      "start": 9.751,
      "duration": 0.07,
      "velocity": 97,
      "chip": "ym2612"
    },
    {
      "channel": 1,
      "note": 49,
      "start": 9.7513,
      "duration": 0.0071,
      "velocity": 103,
      "chip": "ym2612"
    },
    {
      "channel": 2,
      "note": 71,
      "start": 9.7516,
      "duration": 0.0699,
      "velocity": 97,
      "chip": "ym2612"
    },
    {
      "channel": 3,
      "note": 49,
      "start": 9.7518,
      "duration": 0.0549,
      "velocity": 96,
      "chip": "ym2612"
    },
    {
      "channel": 4,
      "note": 76,
      "start": 9.7566,
      "duration": 0.069,
      "velocity": 97,
      "chip": "ym2612"
    },
    {
      "channel": 1,
      "note": 50,
      "start": 9.7586,
      "duration": 0.0478,
      "velocity": 103,
      "chip": "ym2612"
    },
    {
      "channel": 1,
      "note": 49,
      "start": 9.8065,
      "duration": 0.0071,
      "velocity": 103,
      "chip": "ym2612"
    },
    {
      "channel": 3,
      "note": 49,
      "start": 9.8068,
      "duration": 0.0149,
      "velocity": 96,
      "chip": "ym2612"
    },
    {
      "channel": 1,
      "note": 52,
      "start": 9.8139,
      "duration": 0.0073,
      "velocity": 103,
      "chip": "ym2612"
    },
    {
      "channel": 0,
      "note": 75,
      "start": 9.8211,
      "duration": 0.0269,
      "velocity": 97,
      "chip": "ym2612"
    },
    {
      "channel": 1,
      "note": 49,
      "start": 9.8215,
      "duration": 0.006,
      "velocity": 103,
      "chip": "ym2612"
    },
    {
      "channel": 2,
      "note": 70,
      "start": 9.8216,
      "duration": 0.027,
      "velocity": 97,
      "chip": "ym2612"
    },
    {
      "channel": 4,
      "note": 75,
      "start": 9.8258,
      "duration": 0.0277,
      "velocity": 97,
      "chip": "ym2612"
    },
    {
      "channel": 1,
      "note": 54,
      "start": 9.8276,
      "duration": 0.007,
      "velocity": 103,
      "chip": "ym2612"
    },
    {
      "channel": 1,
      "note": 49,
      "start": 9.8347,
      "duration": 0.0067,
      "velocity": 103,
      "chip": "ym2612"
    },
    {
      "channel": 1,
      "note": 56,
      "start": 9.8417,
      "duration": 0.0066,
      "velocity": 103,
      "chip": "ym2612"
    },
    {
      "channel": 0,
      "note": 72,
      "start": 9.8482,
      "duration": 0.0702,
      "velocity": 97,
      "chip": "ym2612"
    },
    {
      "channel": 1,
      "note": 49,
      "start": 9.8485,
      "duration": 0.0069,
      "velocity": 103,
      "chip": "ym2612"
    },
    {
      "channel": 2,
      "note": 68,
      "start": 9.8487,
      "duration": 0.0702,
      "velocity": 97,
      "chip": "ym2612"
    },
    {
      "channel": 3,
      "note": 49,
      "start": 9.849,
      "duration": 0.0548,
      "velocity": 96,
      "chip": "ym2612"
    },
    {
      "channel": 4,
      "note": 72,
      "start": 9.8537,
      "duration": 0.0702,
      "velocity": 97,
      "chip": "ym2612"
    },
    {
      "channel": 1,
      "note": 50,
      "start": 9.8557,
      "duration": 0.0478,
      "velocity": 103,
      "chip": "ym2612"
    },
    {
      "channel": 1,
      "note": 49,
      "start": 9.9036,
      "duration": 0.0072,
      "velocity": 103,
      "chip": "ym2612"
    },
    {
      "channel": 3,
      "note": 49,
      "start": 9.9039,
      "duration": 0.0073,
      "velocity": 96,
      "chip": "ym2612"
    },
    {
      "channel": 1,
      "note": 52,
      "start": 9.911,
      "duration": 0.0076,
      "velocity": 103,
      "chip": "ym2612"
    },
    {
      "channel": 3,
      "note": 49,
      "start": 9.9113,
      "duration": 0.0149,
      "velocity": 96,
      "chip": "ym2612"
    },
    {
      "channel": 0,
      "note": 81,
      "start": 9.9186,
      "duration": 0.0294,
      "velocity": 97,
      "chip": "ym2612"
    },
    {
      "channel": 1,
      "note": 49,
      "start": 9.9189,
      "duration": 0.0071,
      "velocity": 103,
      "chip": "ym2612"
    },
    {
      "channel": 2,
      "note": 76,
      "start": 9.919,
      "duration": 0.0296,
      "velocity": 97,
      "chip": "ym2612"
    },
    {
      "channel": 4,
      "note": 81,
      "start": 9.924,
      "duration": 0.0298,
      "velocity": 97,
      "chip": "ym2612"
    },
    {
      "channel": 1,
      "note": 54,
      "start": 9.9261,
      "duration": 0.0071,
      "velocity": 103,
      "chip": "ym2612"
    },
    {
      "channel": 3,
      "note": 49,
      "start": 9.9265,
      "duration": 0.007,
      "velocity": 96,
      "chip": "ym2612"
    },
    {
      "channel": 1,
      "note": 49,
      "start": 9.9334,
      "duration": 0.0073,
      "velocity": 103,
      "chip": "ym2612"
    },
    {
      "channel": 3,
      "note": 49,
      "start": 9.9336,
      "duration": 0.0152,
      "velocity": 96,
      "chip": "ym2612"
    },
    {
      "channel": 1,
      "note": 56,
      "start": 9.9409,
      "duration": 0.0075,
      "velocity": 103,
      "chip": "ym2612"
    },
    {
      "channel": 0,
      "note": 80,
      "start": 9.9483,
      "duration": 0.0701,
      "velocity": 97,
      "chip": "ym2612"
    },
    {
      "channel": 1,
      "note": 49,
      "start": 9.9486,
      "duration": 0.0071,
      "velocity": 103,
      "chip": "ym2612"
    },
    {
      "channel": 2,
      "note": 75,
      "start": 9.9488,
      "duration": 0.0701,
      "velocity": 97,
      "chip": "ym2612"
    },
    {
      "channel": 3,
      "note": 49,
      "start": 9.9491,
      "duration": 0.0549,
      "velocity": 96,
      "chip": "ym2612"
    },
    {
      "channel": 4,
      "note": 80,
      "start": 9.954,
      "duration": 0.069,
      "velocity": 97,
      "chip": "ym2612"
    },
    {
      "channel": 1,
      "note": 50,
      "start": 9.9558,
      "duration": 0.0479,
      "velocity": 103,
      "chip": "ym2612"
    },
    {
      "channel": 1,
      "note": 49,
      "start": 10.0039,
      "duration": 0.0071,
      "velocity": 103,
      "chip": "ym2612"
    },
    {
      "channel": 3,
      "note": 49,
      "start": 10.0042,
      "duration": 0.0149,
      "velocity": 96,
      "chip": "ym2612"
    },
    {
      "channel": 1,
      "note": 52,
      "start": 10.0112,
      "duration": 0.0073,
      "velocity": 103,
      "chip": "ym2612"
    },
    {
      "channel": 0,
      "note": 72,
      "start": 10.0185,
      "duration": 0.0269,
      "velocity": 97,
      "chip": "ym2612"
    },
    {
      "channel": 1,
      "note": 49,
      "start": 10.0188,
      "duration": 0.006,
      "velocity": 103,
      "chip": "ym2612"
    },
    {
      "channel": 2,
      "note": 68,
      "start": 10.019,
      "duration": 0.027,
      "velocity": 97,
      "chip": "ym2612"
    },
    {
      "channel": 4,
      "note": 72,
      "start": 10.0232,
      "duration": 0.028,
      "velocity": 97,
      "chip": "ym2612"
    },
    {
      "channel": 1,
      "note": 54,
      "start": 10.0249,
      "duration": 0.007,
      "velocity": 103,
      "chip": "ym2612"
    },
    {
      "channel": 1,
      "note": 49,
      "start": 10.0321,
      "duration": 0.0067,
      "velocity": 103,
      "chip": "ym2612"
    },
    {
      "channel": 1,
      "note": 56,
      "start": 10.039,
      "duration": 0.0067,
      "velocity": 103,
      "chip": "ym2612"
    },
    {
      "channel": 0,
      "note": 73,
      "start": 10.0456,
      "duration": 0.17,
      "velocity": 97,
      "chip": "ym2612"
    },
    {
      "channel": 1,
      "note": 49,
      "start": 10.0459,
      "duration": 0.0073,
      "velocity": 103,
      "chip": "ym2612"
    },
    {
      "channel": 2,
      "note": 68,
      "start": 10.0461,
      "duration": 0.17,
      "velocity": 97,
      "chip": "ym2612"
    },
    {
      "channel": 3,
      "note": 49,
      "start": 10.0465,
      "duration": 0.055,
      "velocity": 96,
      "chip": "ym2612"
    },
    {
      "channel": 4,
      "note": 73,
      "start": 10.0513,
      "duration": 0.1691,
      "velocity": 97,
      "chip": "ym2612"
    },
    {
      "channel": 1,
      "note": 50,
      "start": 10.0534,
      "duration": 0.0477,
      "velocity": 103,
      "chip": "ym2612"
    },
    {
      "channel": 1,
      "note": 49,
      "start": 10.1013,
      "duration": 0.0071,
      "velocity": 103,
      "chip": "ym2612"
    },
    {
      "channel": 3,
      "note": 49,
      "start": 10.1016,
      "duration": 0.0072,
      "velocity": 96,
      "chip": "ym2612"
    },
    {
      "channel": 1,
      "note": 52,
      "start": 10.1087,
      "duration": 0.0074,
      "velocity": 103,
      "chip": "ym2612"
    },
    {
      "channel": 3,
      "note": 49,
      "start": 10.109,
      "duration": 0.0147,
      "velocity": 96,
      "chip": "ym2612"
    },
    {
      "channel": 1,
      "note": 49,
      "start": 10.1163,
      "duration": 0.0069,
      "velocity": 103,
      "chip": "ym2612"
    },
    {
      "channel": 1,
      "note": 54,
      "start": 10.1234,
      "duration": 0.0073,
      "velocity": 103,
      "chip": "ym2612"
    },
    {
      "channel": 3,
      "note": 49,
      "start": 10.1238,
      "duration": 0.0073,
      "velocity": 96,
      "chip": "ym2612"
    },
    {
      "channel": 1,
      "note": 49,
      "start": 10.131,
      "duration": 0.0073,
      "velocity": 103,
      "chip": "ym2612"
    },
    {
      "channel": 3,
      "note": 49,
      "start": 10.1312,
      "duration": 0.0148,
      "velocity": 96,
      "chip": "ym2612"
    },
    {
      "channel": 1,
      "note": 56,
      "start": 10.1385,
      "duration": 0.0072,
      "velocity": 103,
      "chip": "ym2612"
    },
    {
      "channel": 1,
      "note": 49,
      "start": 10.1458,
      "duration": 0.007,
      "velocity": 103,
      "chip": "ym2612"
    },
    {
      "channel": 3,
      "note": 49,
      "start": 10.1462,
      "duration": 0.0551,
      "velocity": 96,
      "chip": "ym2612"
    },
    {
      "channel": 1,
      "note": 50,
      "start": 10.153,
      "duration": 0.048,
      "velocity": 103,
      "chip": "ym2612"
    },
    {
      "channel": 1,
      "note": 49,
      "start": 10.2012,
      "duration": 0.0071,
      "velocity": 103,
      "chip": "ym2612"
    },
    {
      "channel": 3,
      "note": 49,
      "start": 10.2015,
      "duration": 0.015,
      "velocity": 96,
      "chip": "ym2612"
    },
    {
      "channel": 1,
      "note": 52,
      "start": 10.2085,
      "duration": 0.0074,
      "velocity": 103,
      "chip": "ym2612"
    },
    {
      "channel": 0,
      "note": 76,
      "start": 10.2159,
      "duration": 0.0266,
      "velocity": 97,
      "chip": "ym2612"
    },
    {
      "channel": 1,
      "note": 49,
      "start": 10.2161,
      "duration": 0.0061,
      "velocity": 103,
      "chip": "ym2612"
    },
    {
      "channel": 2,
      "note": 71,
      "start": 10.2164,
      "duration": 0.0268,
      "velocity": 97,
      "chip": "ym2612"
    },
    {
      "channel": 4,
      "note": 76,
      "start": 10.2206,
      "duration": 0.0279,
      "velocity": 97,
      "chip": "ym2612"
    },
    {
      "channel": 1,
      "note": 54,
      "start": 10.2224,
      "duration": 0.0068,
      "velocity": 103,
      "chip": "ym2612"
    },
    {
      "channel": 1,
      "note": 49,
      "start": 10.2294,
      "duration": 0.0065,
      "velocity": 103,
      "chip": "ym2612"
    },
    {
      "channel": 1,
      "note": 56,
      "start": 10.2361,
      "duration": 0.0068,
      "velocity": 103,
      "chip": "ym2612"
    },
    {
      "channel": 0,
      "note": 75,
      "start": 10.2428,
      "duration": 0.1973,
      "velocity": 97,
      "chip": "ym2612"
    },
    {
      "channel": 1,
      "note": 49,
      "start": 10.2431,
      "duration": 0.0074,
      "velocity": 103,
      "chip": "ym2612"
    },
    {
      "channel": 2,
      "note": 70,
      "start": 10.2434,
      "duration": 0.1972,
      "velocity": 97,
      "chip": "ym2612"
    },
    {
      "channel": 3,
      "note": 49,
      "start": 10.2437,
      "duration": 0.0549,
      "velocity": 96,
      "chip": "ym2612"
    },
    {
      "channel": 4,
      "note": 75,
      "start": 10.2486,
      "duration": 0.1972,
      "velocity": 97,
      "chip": "ym2612"
    },
    {
      "channel": 1,
      "note": 50,
      "start": 10.2507,
      "duration": 0.0476,
      "velocity": 103,
      "chip": "ym2612"
    },
    {
      "channel": 1,
      "note": 49,
      "start": 10.2985,
      "duration": 0.0071,
      "velocity": 103,
      "chip": "ym2612"
    },
    {
      "channel": 3,
      "note": 49,
      "start": 10.2988,
      "duration": 0.0072,
      "velocity": 96,
      "chip": "ym2612"
    },
    {
      "channel": 1,
      "note": 52,
      "start": 10.3058,
      "duration": 0.0075,
      "velocity": 103,
      "chip": "ym2612"
    },
    {
      "channel": 3,
      "note": 49,
      "start": 10.3061,
      "duration": 0.0145,
      "velocity": 96,
      "chip": "ym2612"
    },
    {
      "channel": 1,
      "note": 49,
      "start": 10.3135,
      "duration": 0.0067,
      "velocity": 103,
      "chip": "ym2612"
    },
    {
      "channel": 1,
      "note": 54,
      "start": 10.3204,
      "duration": 0.0075,
      "velocity": 103,
      "chip": "ym2612"
    },
    {
      "channel": 3,
      "note": 49,
      "start": 10.3208,
      "duration": 0.0075,
      "velocity": 96,
      "chip": "ym2612"
    },
    {
      "channel": 1,
      "note": 49,
      "start": 10.328,
      "duration": 0.0074,
      "velocity": 103,
      "chip": "ym2612"
    },
    {
      "channel": 3,
      "note": 49,
      "start": 10.3283,
      "duration": 0.0149,
      "velocity": 96,
      "chip": "ym2612"
    },
    {
      "channel": 1,
      "note": 56,
      "start": 10.3356,
      "duration": 0.0072,
      "velocity": 103,
      "chip": "ym2612"
    },
    {
      "channel": 1,
      "note": 49,
      "start": 10.343,
      "duration": 0.007,
      "velocity": 103,
      "chip": "ym2612"
    },
    {
      "channel": 3,
      "note": 49,
      "start": 10.3434,
      "duration": 0.055,
      "velocity": 96,
      "chip": "ym2612"
    },
    {
      "channel": 1,
      "note": 50,
      "start": 10.3503,
      "duration": 0.0478,
      "velocity": 103,
      "chip": "ym2612"
    },
    {
      "channel": 1,
      "note": 49,
      "start": 10.3982,
      "duration": 0.0071,
      "velocity": 103,
      "chip": "ym2612"
    },
    {
      "channel": 3,
      "note": 49,
      "start": 10.3985,
      "duration": 0.0146,
      "velocity": 96,
      "chip": "ym2612"
    },
    {
      "channel": 1,
      "note": 52,
      "start": 10.4055,
      "duration": 0.0073,
      "velocity": 103,
      "chip": "ym2612"
    },
    {
      "channel": 1,
      "note": 49,
      "start": 10.4129,
      "duration": 0.0063,
      "velocity": 103,
      "chip": "ym2612"
    },
    {
      "channel": 1,
      "note": 54,
      "start": 10.4193,
      "duration": 0.0071,
      "velocity": 103,
      "chip": "ym2612"
    },
    {
      "channel": 1,
      "note": 49,
      "start": 10.4266,
      "duration": 0.0067,
      "velocity": 103,
      "chip": "ym2612"
    },
    {
      "channel": 1,
      "note": 56,
      "start": 10.4336,
      "duration": 0.0067,
      "velocity": 103,
      "chip": "ym2612"
    },
    {
      "channel": 0,
      "note": 75,
      "start": 10.4401,
      "duration": 0.0697,
      "velocity": 97,
      "chip": "ym2612"
    },
    {
      "channel": 1,
      "note": 49,
      "start": 10.4404,
      "duration": 0.0072,
      "velocity": 103,
      "chip": "ym2612"
    },
    {
      "channel": 2,
      "note": 70,
      "start": 10.4406,
      "duration": 0.0697,
      "velocity": 97,
      "chip": "ym2612"
    },
    {
      "channel": 3,
      "note": 49,
      "start": 10.441,
      "duration": 0.055,
      "velocity": 96,
      "chip": "ym2612"
    },
    {
      "channel": 4,
      "note": 75,
      "start": 10.4458,
      "duration": 0.0695,
      "velocity": 97,
      "chip": "ym2612"
    },
    {
      "channel": 1,
      "note": 50,
      "start": 10.4478,
      "duration": 0.0479,
      "velocity": 103,
      "chip": "ym2612"
    },
    {
      "channel": 1,
      "note": 49,
      "start": 10.4958,
      "duration": 0.0065,
      "velocity": 103,
      "chip": "ym2612"
    },
    {
      "channel": 3,
      "note": 49,
      "start": 10.4962,
      "duration": 0.0066,
      "velocity": 96,
      "chip": "ym2612"
    },
    {
      "channel": 1,
      "note": 52,
      "start": 10.5026,
      "duration": 0.0075,
      "velocity": 103,
      "chip": "ym2612"
    },
    {
      "channel": 3,
      "note": 49,
      "start": 10.5029,
      "duration": 0.0148,
      "velocity": 96,
      "chip": "ym2612"
    },
    {
      "channel": 0,
      "note": 73,
      "start": 10.51,
      "duration": 0.0292,
      "velocity": 97,
      "chip": "ym2612"
    },
    {
      "channel": 1,
      "note": 49,
      "start": 10.5102,
      "duration": 0.0071,
      "velocity": 103,
      "chip": "ym2612"
    },
    {
      "channel": 2,
      "note": 68,
      "start": 10.5104,
      "duration": 0.0294,
      "velocity": 97,
      "chip": "ym2612"
    },
    {
      "channel": 4,
      "note": 73,
      "start": 10.5155,
      "duration": 0.0295,
      "velocity": 97,
      "chip": "ym2612"
    },
    {
      "channel": 1,
      "note": 54,
      "start": 10.5175,
      "duration": 0.0073,
      "velocity": 103,
      "chip": "ym2612"
    },
    {
      "channel": 3,
      "note": 49,
      "start": 10.5178,
      "duration": 0.0073,
      "velocity": 96,
      "chip": "ym2612"
    },
    {
      "channel": 1,
      "note": 49,
      "start": 10.525,
      "duration": 0.0068,
      "velocity": 103,
      "chip": "ym2612"
    },
    {
      "channel": 3,
      "note": 49,
      "start": 10.5254,
      "duration": 0.0146,
      "velocity": 96,
      "chip": "ym2612"
    },
    {
      "channel": 1,
      "note": 56,
      "start": 10.532,
      "duration": 0.0075,
      "velocity": 103,
      "chip": "ym2612"
    },
    {
      "channel": 0,
      "note": 76,
      "start": 10.5394,
      "duration": 0.0701,
      "velocity": 97,
      "chip": "ym2612"
    },
    {
      "channel": 1,
      "note": 49,
      "start": 10.5398,
      "duration": 0.0071,
      "velocity": 103,
      "chip": "ym2612"
    },
    {
      "channel": 2,
      "note": 71,
      "start": 10.54,
      "duration": 0.0701,
      "velocity": 97,
      "chip": "ym2612"
    },
    {
      "channel": 3,
      "note": 49,
      "start": 10.5403,
      "duration": 0.0549,
      "velocity": 96,
      "chip": "ym2612"
    },
    {
      "channel": 4,
      "note": 76,
      "start": 10.5451,
      "duration": 0.069,
      "velocity": 97,
      "chip": "ym2612"
    },
    {
      "channel": 1,
      "note": 50,
      "start": 10.547,
      "duration": 0.0479,
      "velocity": 103,
      "chip": "ym2612"
    },
    {
      "channel": 1,
      "note": 49,
      "start": 10.5951,
      "duration": 0.0071,
      "velocity": 103,
      "chip": "ym2612"
    },
    {
      "channel": 3,
      "note": 49,
      "start": 10.5954,
      "duration": 0.0149,
      "velocity": 96,
      "chip": "ym2612"
    },
    {
      "channel": 1,
      "note": 52,
      "start": 10.6024,
      "duration": 0.0073,
      "velocity": 103,
      "chip": "ym2612"
    },
    {
      "channel": 0,
      "note": 75,
      "start": 10.6097,
      "duration": 0.0269,
      "velocity": 97,
      "chip": "ym2612"
    },
    {
      "channel": 1,
      "note": 49,
      "start": 10.61,
      "duration": 0.006,
      "velocity": 103,
      "chip": "ym2612"
    },
    {
      "channel": 2,
      "note": 70,
      "start": 10.6102,
      "duration": 0.027,
      "velocity": 97,
      "chip": "ym2612"
    },
    {
      "channel": 4,
      "note": 75,
      "start": 10.6143,
      "duration": 0.0277,
      "velocity": 97,
      "chip": "ym2612"
    },
    {
      "channel": 1,
      "note": 54,
      "start": 10.6161,
      "duration": 0.007,
      "velocity": 103,
      "chip": "ym2612"
    },
    {
      "channel": 1,
      "note": 49,
      "start": 10.6233,
      "duration": 0.0067,
      "velocity": 103,
      "chip": "ym2612"
    },
    {
      "channel": 1,
      "note": 56,
      "start": 10.6302,
      "duration": 0.0066,
      "velocity": 103,
      "chip": "ym2612"
    },
    {
      "channel": 0,
      "note": 78,
      "start": 10.6368,
      "duration": 0.0701,
      "velocity": 97,
      "chip": "ym2612"
    },
    {
      "channel": 1,
      "note": 49,
      "start": 10.6371,
      "duration": 0.0069,
      "velocity": 103,
      "chip": "ym2612"
    },
    {
      "channel": 2,
      "note": 73,
      "start": 10.6373,
      "duration": 0.0701,
      "velocity": 97,
      "chip": "ym2612"
    },
    {
      "channel": 3,
      "note": 49,
      "start": 10.6375,
      "duration": 0.0548,
      "velocity": 96,
      "chip": "ym2612"
    },
    {
      "channel": 4,
      "note": 78,
      "start": 10.6422,
      "duration": 0.0701,
      "velocity": 97,
      "chip": "ym2612"
    },
    {
      "channel": 1,
      "note": 50,
      "start": 10.6442,
      "duration": 0.0478,
      "velocity": 103,
      "chip": "ym2612"
    },
    {
      "channel": 1,
      "note": 49,
      "start": 10.6922,
      "duration": 0.0071,
      "velocity": 103,
      "chip": "ym2612"
    },
    {
      "channel": 3,
      "note": 49,
      "start": 10.6924,
      "duration": 0.0072,
      "velocity": 96,
      "chip": "ym2612"
    },
    {
      "channel": 1,
      "note": 52,
      "start": 10.6995,
      "duration": 0.0076,
      "velocity": 103,
      "chip": "ym2612"
    },
    {
      "channel": 3,
      "note": 49,
      "start": 10.6998,
      "duration": 0.0149,
      "velocity": 96,
      "chip": "ym2612"
    },
    {
      "channel": 0,
      "note": 76,
      "start": 10.7071,
      "duration": 0.0293,
      "velocity": 97,
      "chip": "ym2612"
    },
    {
      "channel": 1,
      "note": 49,
      "start": 10.7073,
      "duration": 0.0071,
      "velocity": 103,
      "chip": "ym2612"
    },
    {
      "channel": 2,
      "note": 71,
      "start": 10.7075,
      "duration": 0.0293,
      "velocity": 97,
      "chip": "ym2612"
    },
    {
      "channel": 4,
      "note": 76,
      "start": 10.7124,
      "duration": 0.0295,
      "velocity": 97,
      "chip": "ym2612"
    },
    {
      "channel": 1,
      "note": 54,
      "start": 10.7145,
      "duration": 0.0071,
      "velocity": 103,
      "chip": "ym2612"
    },
    {
      "channel": 3,
      "note": 49,
      "start": 10.7149,
      "duration": 0.007,
      "velocity": 96,
      "chip": "ym2612"
    },
    {
      "channel": 1,
      "note": 49,
      "start": 10.7218,
      "duration": 0.0073,
      "velocity": 103,
      "chip": "ym2612"
    },
    {
      "channel": 3,
      "note": 49,
      "start": 10.7221,
      "duration": 0.015,
      "velocity": 96,
      "chip": "ym2612"
    },
    {
      "channel": 1,
      "note": 56,
      "start": 10.7293,
      "duration": 0.0073,
      "velocity": 103,
      "chip": "ym2612"
    },
    {
      "channel": 0,
      "note": 81,
      "start": 10.7366,
      "duration": 0.07,
      "velocity": 97,
      "chip": "ym2612"
    },
    {
      "channel": 1,
      "note": 49,
      "start": 10.7367,
      "duration": 0.0071,
      "velocity": 103,
      "chip": "ym2612"
    },
    {
      "channel": 2,
      "note": 76,
      "start": 10.737,
      "duration": 0.0701,
      "velocity": 97,
      "chip": "ym2612"
    },
    {
      "channel": 3,
      "note": 49,
      "start": 10.7372,
      "duration": 0.055,
      "velocity": 96,
      "chip": "ym2612"
    },
    {
      "channel": 4,
      "note": 81,
      "start": 10.7421,
      "duration": 0.0695,
      "velocity": 97,
      "chip": "ym2612"
    },
    {
      "channel": 1,
      "note": 50,
      "start": 10.744,
      "duration": 0.0479,
      "velocity": 103,
      "chip": "ym2612"
    },
    {
      "channel": 1,
      "note": 49,
      "start": 10.7921,
      "duration": 0.0071,
      "velocity": 103,
      "chip": "ym2612"
    },
    {
      "channel": 3,
      "note": 49,
      "start": 10.7924,
      "duration": 0.0149,
      "velocity": 96,
      "chip": "ym2612"
    },
    {
      "channel": 1,
      "note": 52,
      "start": 10.7994,
      "duration": 0.0074,
      "velocity": 103,
      "chip": "ym2612"
    },
    {
      "channel": 0,
      "note": 80,
      "start": 10.8068,
      "duration": 0.0273,
      "velocity": 97,
      "chip": "ym2612"
    },
    {
      "channel": 1,
      "note": 49,
      "start": 10.8071,
      "duration": 0.0064,
      "velocity": 103,
      "chip": "ym2612"
    },
    {
      "channel": 2,
      "note": 75,
      "start": 10.8072,
      "duration": 0.0276,
      "velocity": 97,
      "chip": "ym2612"
    },
    {
      "channel": 4,
      "note": 80,
      "start": 10.8119,
      "duration": 0.0282,
      "velocity": 97,
      "chip": "ym2612"
    },
    {
      "channel": 1,
      "note": 54,
      "start": 10.8136,
      "duration": 0.0069,
      "velocity": 103,
      "chip": "ym2612"
    },
    {
      "channel": 1,
      "note": 49,
      "start": 10.8208,
      "duration": 0.0067,
      "velocity": 103,
      "chip": "ym2612"
    },
    {
      "channel": 1,
      "note": 56,
      "start": 10.8277,
      "duration": 0.0068,
      "velocity": 103,
      "chip": "ym2612"
    },
    {
      "channel": 0,
      "note": 80,
      "start": 10.8344,
      "duration": 0.1695,
      "velocity": 97,
      "chip": "ym2612"
    },
    {
      "channel": 1,
      "note": 50,
      "start": 10.8348,
      "duration": 0.0071,
      "velocity": 103,
      "chip": "ym2612"
    },
    {
      "channel": 2,
      "note": 76,
      "start": 10.835,
      "duration": 0.1695,
      "velocity": 97,
      "chip": "ym2612"
    },
    {
      "channel": 3,
      "note": 50,
      "start": 10.8354,
      "duration": 0.0546,
      "velocity": 96,
      "chip": "ym2612"
    },
    {
      "channel": 4,
      "note": 80,
      "start": 10.8402,
      "duration": 0.1684,
      "velocity": 97,
      "chip": "ym2612"
    },
    {
      "channel": 1,
      "note": 52,
      "start": 10.842,
      "duration": 0.0476,
      "velocity": 103,
      "chip": "ym2612"
    },
    {
      "channel": 1,
      "note": 50,
      "start": 10.8898,
      "duration": 0.0071,
      "velocity": 103,
      "chip": "ym2612"
    },
    {
      "channel": 3,
      "note": 50,
      "start": 10.8901,
      "duration": 0.0072,
      "velocity": 96,
      "chip": "ym2612"
    },
    {
      "channel": 1,
      "note": 54,
      "start": 10.8971,
      "duration": 0.0075,
      "velocity": 103,
      "chip": "ym2612"
    },
    {
      "channel": 3,
      "note": 50,
      "start": 10.8974,
      "duration": 0.0147,
      "velocity": 96,
      "chip": "ym2612"
    },
    {
      "channel": 1,
      "note": 50,
      "start": 10.9049,
      "duration": 0.0069,
      "velocity": 103,
      "chip": "ym2612"
    },
    {
      "channel": 1,
      "note": 56,
      "start": 10.912,
      "duration": 0.0073,
      "velocity": 103,
      "chip": "ym2612"
    },
    {
      "channel": 3,
      "note": 50,
      "start": 10.9123,
      "duration": 0.0073,
      "velocity": 96,
      "chip": "ym2612"
    },
    {
      "channel": 1,
      "note": 50,
      "start": 10.9194,
      "duration": 0.0071,
      "velocity": 103,
      "chip": "ym2612"
    },
    {
      "channel": 3,
      "note": 50,
      "start": 10.9197,
      "duration": 0.0146,
      "velocity": 96,
      "chip": "ym2612"
    },
    {
      "channel": 1,
      "note": 57,
      "start": 10.9266,
      "duration": 0.0073,
      "velocity": 103,
      "chip": "ym2612"
    },
    {
      "channel": 1,
      "note": 50,
      "start": 10.9341,
      "duration": 0.007,
      "velocity": 103,
      "chip": "ym2612"
    },
    {
      "channel": 3,
      "note": 50,
      "start": 10.9345,
      "duration": 0.0551,
      "velocity": 96,
      "chip": "ym2612"
    },
    {
      "channel": 1,
      "note": 52,
      "start": 10.9413,
      "duration": 0.048,
      "velocity": 103,
      "chip": "ym2612"
    },
    {
      "channel": 1,
      "note": 50,
      "start": 10.9895,
      "duration": 0.0071,
      "velocity": 103,
      "chip": "ym2612"
    },
    {
      "channel": 3,
      "note": 50,
      "start": 10.9898,
      "duration": 0.015,
      "velocity": 96,
      "chip": "ym2612"
    },
    {
      "channel": 1,
      "note": 54,
      "start": 10.9968,
      "duration": 0.0074,
      "velocity": 103,
      "chip": "ym2612"
    },
    {
      "channel": 0,
      "note": 81,
      "start": 11.0042,
      "duration": 0.0266,
      "velocity": 97,
      "chip": "ym2612"
    },
    {
      "channel": 1,
      "note": 50,
      "start": 11.0044,
      "duration": 0.0061,
      "velocity": 103,
      "chip": "ym2612"
    },
    {
      "channel": 2,
      "note": 78,
      "start": 11.0046,
      "duration": 0.0268,
      "velocity": 97,
      "chip": "ym2612"
    },
    {
      "channel": 4,
      "note": 81,
      "start": 11.0089,
      "duration": 0.0278,
      "velocity": 97,
      "chip": "ym2612"
    },
    {
      "channel": 1,
      "note": 56,
      "start": 11.0107,
      "duration": 0.0068,
      "velocity": 103,
      "chip": "ym2612"
    },
    {
      "channel": 1,
      "note": 50,
      "start": 11.0177,
      "duration": 0.0065,
      "velocity": 103,
      "chip": "ym2612"
    },
    {
      "channel": 1,
      "note": 57,
      "start": 11.0244,
      "duration": 0.0068,
      "velocity": 103,
      "chip": "ym2612"
    },
    {
      "channel": 0,
      "note": 78,
      "start": 11.031,
      "duration": 0.1972,
      "velocity": 97,
      "chip": "ym2612"
    },
    {
      "channel": 1,
      "note": 50,
      "start": 11.0314,
      "duration": 0.0071,
      "velocity": 103,
      "chip": "ym2612"
    },
    {
      "channel": 2,
      "note": 74,
      "start": 11.0317,
      "duration": 0.1971,
      "velocity": 97,
      "chip": "ym2612"
    },
    {
      "channel": 3,
      "note": 50,
      "start": 11.0319,
      "duration": 0.0546,
      "velocity": 96,
      "chip": "ym2612"
    },
    {
      "channel": 4,
      "note": 78,
      "start": 11.0368,
      "duration": 0.1973,
      "velocity": 97,
      "chip": "ym2612"
    },
    {
      "channel": 1,
      "note": 52,
      "start": 11.0386,
      "duration": 0.0476,
      "velocity": 103,
      "chip": "ym2612"
    },
    {
      "channel": 1,
      "note": 50,
      "start": 11.0864,
      "duration": 0.0071,
      "velocity": 103,
      "chip": "ym2612"
    },
    {
      "channel": 3,
      "note": 50,
      "start": 11.0866,
      "duration": 0.0072,
      "velocity": 96,
      "chip": "ym2612"
    },
    {
      "channel": 1,
      "note": 54,
      "start": 11.0937,
      "duration": 0.0075,
      "velocity": 103,
      "chip": "ym2612"
    },
    {
      "channel": 3,
      "note": 50,
      "start": 11.094,
      "duration": 0.0147,
      "velocity": 96,
      "chip": "ym2612"
    },
    {
      "channel": 1,
      "note": 50,
      "start": 11.1015,
      "duration": 0.0069,
      "velocity": 103,
      "chip": "ym2612"
    },
    {
      "channel": 1,
      "note": 56,
      "start": 11.1085,
      "duration": 0.0073,
      "velocity": 103,
      "chip": "ym2612"
    },
    {
      "channel": 3,
      "note": 50,
      "start": 11.1089,
      "duration": 0.0073,
      "velocity": 96,
      "chip": "ym2612"
    },
    {
      "channel": 1,
      "note": 50,
      "start": 11.1161,
      "duration": 0.0074,
      "velocity": 103,
      "chip": "ym2612"
    },
    {
      "channel": 3,
      "note": 50,
      "start": 11.1163,
      "duration": 0.0151,
      "velocity": 96,
      "chip": "ym2612"
    },
    {
      "channel": 1,
      "note": 57,
      "start": 11.1237,
      "duration": 0.0075,
      "velocity": 103,
      "chip": "ym2612"
    },
    {
      "channel": 1,
      "note": 50,
      "start": 11.1313,
      "duration": 0.0069,
      "velocity": 103,
      "chip": "ym2612"
    },
    {
      "channel": 3,
      "note": 50,
      "start": 11.1317,
      "duration": 0.0548,
      "velocity": 96,
      "chip": "ym2612"
    },
    {
      "channel": 1,
      "note": 52,
      "start": 11.1383,
      "duration": 0.0478,
      "velocity": 103,
      "chip": "ym2612"
    },
    {
      "channel": 1,
      "note": 50,
      "start": 11.1863,
      "duration": 0.0071,
      "velocity": 103,
      "chip": "ym2612"
    },
    {
      "channel": 3,
      "note": 50,
      "start": 11.1866,
      "duration": 0.0146,
      "velocity": 96,
      "chip": "ym2612"
    },
    {
      "channel": 1,
      "note": 54,
      "start": 11.1937,
      "duration": 0.0073,
      "velocity": 103,
      "chip": "ym2612"
    },
    {
      "channel": 1,
      "note": 50,
      "start": 11.2011,
      "duration": 0.0063,
      "velocity": 103,
      "chip": "ym2612"
    },
    {
      "channel": 1,
      "note": 56,
      "start": 11.2075,
      "duration": 0.0071,
      "velocity": 103,
      "chip": "ym2612"
    },
    {
      "channel": 1,
      "note": 50,
      "start": 11.2148,
      "duration": 0.0067,
      "velocity": 103,
      "chip": "ym2612"
    },
    {
      "channel": 1,
      "note": 57,
      "start": 11.2217,
      "duration": 0.0067,
      "velocity": 103,
      "chip": "ym2612"
    },
    {
      "channel": 0,
      "note": 78,
      "start": 11.2283,
      "duration": 0.0698,
      "velocity": 97,
      "chip": "ym2612"
    },
    {
      "channel": 1,
      "note": 50,
      "start": 11.2286,
      "duration": 0.0073,
      "velocity": 103,
      "chip": "ym2612"
    },
    {
      "channel": 2,
      "note": 74,
      "start": 11.2288,
      "duration": 0.0698,
      "velocity": 97,
      "chip": "ym2612"
    },
    {
      "channel": 3,
      "note": 50,
      "start": 11.2291,
      "duration": 0.0551,
      "velocity": 96,
      "chip": "ym2612"
    },
    {
      "channel": 4,
      "note": 78,
      "start": 11.2341,
      "duration": 0.0695,
      "velocity": 97,
      "chip": "ym2612"
    },
    {
      "channel": 1,
      "note": 52,
      "start": 11.2362,
      "duration": 0.0478,
      "velocity": 103,
      "chip": "ym2612"
    },
    {
      "channel": 1,
      "note": 50,
      "start": 11.2841,
      "duration": 0.0065,
      "velocity": 103,
      "chip": "ym2612"
    },
    {
      "channel": 3,
      "note": 50,
      "start": 11.2844,
      "duration": 0.0066,
      "velocity": 96,
      "chip": "ym2612"
    },
    {
      "channel": 1,
      "note": 54,
      "start": 11.2909,
      "duration": 0.0075,
      "velocity": 103,
      "chip": "ym2612"
    },
    {
      "channel": 3,
      "note": 50,
      "start": 11.2912,
      "duration": 0.0148,
      "velocity": 96,
      "chip": "ym2612"
    },
    {
      "channel": 0,
      "note": 81,
      "start": 11.2983,
      "duration": 0.0293,
      "velocity": 97,
      "chip": "ym2612"
    },
    {
      "channel": 1,
      "note": 50,
      "start": 11.2985,
      "duration": 0.0071,
      "velocity": 103,
      "chip": "ym2612"
    },
    {
      "channel": 2,
      "note": 78,
      "start": 11.2987,
      "duration": 0.0295,
      "velocity": 97,
      "chip": "ym2612"
    },
    {
      "channel": 4,
      "note": 81,
      "start": 11.3037,
      "duration": 0.0295,
      "velocity": 97,
      "chip": "ym2612"
    },
    {
      "channel": 1,
      "note": 56,
      "start": 11.3058,
      "duration": 0.0071,
      "velocity": 103,
      "chip": "ym2612"
    },
    {
      "channel": 3,
      "note": 50,
      "start": 11.3062,
      "duration": 0.0071,
      "velocity": 96,
      "chip": "ym2612"
    },
    {
      "channel": 1,
      "note": 50,
      "start": 11.3131,
      "duration": 0.0073,
      "velocity": 103,
      "chip": "ym2612"
    },
    {
      "channel": 3,
      "note": 50,
      "start": 11.3134,
      "duration": 0.0151,
      "velocity": 96,
      "chip": "ym2612"
    },
    {
      "channel": 1,
      "note": 57,
      "start": 11.3205,
      "duration": 0.0074,
      "velocity": 103,
      "chip": "ym2612"
    },
    {
      "channel": 0,
      "note": 80,
      "start": 11.3278,
      "duration": 0.07,
      "velocity": 97,
      "chip": "ym2612"
    },
    {
      "channel": 1,
      "note": 50,
      "start": 11.3282,
      "duration": 0.0072,
      "velocity": 103,
      "chip": "ym2612"
    },
    {
      "channel": 2,
      "note": 76,
      "start": 11.3284,
      "duration": 0.07,
      "velocity": 97,
      "chip": "ym2612"
    },
    {
      "channel": 3,
      "note": 50,
      "start": 11.3287,
      "duration": 0.0549,
      "velocity": 96,
      "chip": "ym2612"
    },
    {
      "channel": 4,
      "note": 80,
      "start": 11.3334,
      "duration": 0.0695,
      "velocity": 97,
      "chip": "ym2612"
    },
    {
      "channel": 1,
      "note": 52,
      "start": 11.3355,
      "duration": 0.0478,
      "velocity": 103,
      "chip": "ym2612"
    },
    {
      "channel": 1,
      "note": 50,
      "start": 11.3834,
      "duration": 0.0071,
      "velocity": 103,
      "chip": "ym2612"
    },
    {
      "channel": 3,
      "note": 50,
      "start": 11.3837,
      "duration": 0.0149,
      "velocity": 96,
      "chip": "ym2612"
    },
    {
      "channel": 1,
      "note": 54,
      "start": 11.3908,
      "duration": 0.0074,
      "velocity": 103,
      "chip": "ym2612"
    },
    {
      "channel": 0,
      "note": 78,
      "start": 11.3981,
      "duration": 0.0273,
      "velocity": 97,
      "chip": "ym2612"
    },
    {
      "channel": 1,
      "note": 50,
      "start": 11.3984,
      "duration": 0.0064,
      "velocity": 103,
      "chip": "ym2612"
    },
    {
      "channel": 2,
      "note": 74,
      "start": 11.3986,
      "duration": 0.0275,
      "velocity": 97,
      "chip": "ym2612"
    },
    {
      "channel": 4,
      "note": 78,
      "start": 11.4032,
      "duration": 0.0282,
      "velocity": 97,
      "chip": "ym2612"
    },
    {
      "channel": 1,
      "note": 56,
      "start": 11.405,
      "duration": 0.0069,
      "velocity": 103,
      "chip": "ym2612"
    },
    {
      "channel": 1,
      "note": 50,
      "start": 11.4121,
      "duration": 0.0067,
      "velocity": 103,
      "chip": "ym2612"
    },
    {
      "channel": 1,
      "note": 57,
      "start": 11.4191,
      "duration": 0.0068,
      "velocity": 103,
      "chip": "ym2612"
    },
    {
      "channel": 0,
      "note": 83,
      "start": 11.4258,
      "duration": 0.0702,
      "velocity": 97,
      "chip": "ym2612"
    },
    {
      "channel": 1,
      "note": 50,
      "start": 11.426,
      "duration": 0.0075,
      "velocity": 103,
      "chip": "ym2612"
    },
    {
      "channel": 2,
      "note": 80,
      "start": 11.4263,
      "duration": 0.0702,
      "velocity": 97,
      "chip": "ym2612"
    },
    {
      "channel": 3,
      "note": 50,
      "start": 11.4266,
      "duration": 0.0549,
      "velocity": 96,
      "chip": "ym2612"
    },
    {
      "channel": 4,
      "note": 83,
      "start": 11.4316,
      "duration": 0.0699,
      "velocity": 97,
      "chip": "ym2612"
    },
    {
      "channel": 1,
      "note": 52,
      "start": 11.4336,
      "duration": 0.0476,
      "velocity": 103,
      "chip": "ym2612"
    },
    {
      "channel": 1,
      "note": 50,
      "start": 11.4814,
      "duration": 0.0071,
      "velocity": 103,
      "chip": "ym2612"
    },
    {
      "channel": 3,
      "note": 50,
      "start": 11.4816,
      "duration": 0.0072,
      "velocity": 96,
      "chip": "ym2612"
    },
    {
      "channel": 1,
      "note": 54,
      "start": 11.4887,
      "duration": 0.0076,
      "velocity": 103,
      "chip": "ym2612"
    },
    {
      "channel": 3,
      "note": 50,
      "start": 11.489,
      "duration": 0.0149,
      "velocity": 96,
      "chip": "ym2612"
    },
    {
      "channel": 0,
      "note": 81,
      "start": 11.4963,
      "duration": 0.0295,
      "velocity": 97,
      "chip": "ym2612"
    },
    {
      "channel": 1,
      "note": 50,
      "start": 11.4965,
      "duration": 0.0071,
      "velocity": 103,
      "chip": "ym2612"
    },
    {
      "channel": 2,
      "note": 78,
      "start": 11.4967,
      "duration": 0.0296,
      "velocity": 97,
      "chip": "ym2612"
    },
    {
      "channel": 4,
      "note": 81,
      "start": 11.5016,
      "duration": 0.0298,
      "velocity": 97,
      "chip": "ym2612"
    },
    {
      "channel": 1,
      "note": 56,
      "start": 11.5037,
      "duration": 0.0071,
      "velocity": 103,
      "chip": "ym2612"
    },
    {
      "channel": 3,
      "note": 50,
      "start": 11.5041,
      "duration": 0.007,
      "velocity": 96,
      "chip": "ym2612"
    },
    {
      "channel": 1,
      "note": 50,
      "start": 11.511,
      "duration": 0.0073,
      "velocity": 103,
      "chip": "ym2612"
    },
    {
      "channel": 3,
      "note": 50,
      "start": 11.5113,
      "duration": 0.0153,
      "velocity": 96,
      "chip": "ym2612"
    },
    {
      "channel": 1,
      "note": 57,
      "start": 11.5185,
      "duration": 0.0075,
      "velocity": 103,
      "chip": "ym2612"
    },
    {
      "channel": 0,
      "note": 80,
      "start": 11.5259,
      "duration": 0.0703,
      "velocity": 97,
      "chip": "ym2612"
    },
    {
      "channel": 1,
      "note": 50,
      "start": 11.5262,
      "duration": 0.0074,
      "velocity": 103,
      "chip": "ym2612"
    },
    {
      "channel": 2,
      "note": 76,
      "start": 11.5265,
      "duration": 0.0703,
      "velocity": 97,
      "chip": "ym2612"
    },
    {
      "channel": 3,
      "note": 50,
      "start": 11.5267,
      "duration": 0.0552,
      "velocity": 96,
      "chip": "ym2612"
    },
    {
      "channel": 4,
      "note": 80,
      "start": 11.5315,
      "duration": 0.0698,
      "velocity": 97,
      "chip": "ym2612"
    },
    {
      "channel": 1,
      "note": 52,
      "start": 11.5339,
      "duration": 0.0478,
      "velocity": 103,
      "chip": "ym2612"
    },
    {
      "channel": 1,
      "note": 50,
      "start": 11.5818,
      "duration": 0.0071,
      "velocity": 103,
      "chip": "ym2612"
    },
    {
      "channel": 3,
      "note": 50,
      "start": 11.5821,
      "duration": 0.0149,
      "velocity": 96,
      "chip": "ym2612"
    },
    {
      "channel": 1,
      "note": 54,
      "start": 11.5891,
      "duration": 0.0074,
      "velocity": 103,
      "chip": "ym2612"
    },
    {
      "channel": 0,
      "note": 81,
      "start": 11.5965,
      "duration": 0.0273,
      "velocity": 97,
      "chip": "ym2612"
    },
    {
      "channel": 1,
      "note": 50,
      "start": 11.5968,
      "duration": 0.0064,
      "velocity": 103,
      "chip": "ym2612"
    },
    {
      "channel": 2,
      "note": 78,
      "start": 11.5969,
      "duration": 0.0276,
      "velocity": 97,
      "chip": "ym2612"
    },
    {
      "channel": 4,
      "note": 81,
      "start": 11.6016,
      "duration": 0.0281,
      "velocity": 97,
      "chip": "ym2612"
    },
    {
      "channel": 1,
      "note": 56,
      "start": 11.6033,
      "duration": 0.0069,
      "velocity": 103,
      "chip": "ym2612"
    },
    {
      "channel": 1,
      "note": 50,
      "start": 11.6105,
      "duration": 0.0067,
      "velocity": 103,
      "chip": "ym2612"
    },
    {
      "channel": 1,
      "note": 57,
      "start": 11.6174,
      "duration": 0.0068,
      "velocity": 103,
      "chip": "ym2612"
    },
    {
      "channel": 0,
      "note": 80,
      "start": 11.6241,
      "duration": 0.1698,
      "velocity": 97,
      "chip": "ym2612"
    },
    {
      "channel": 1,
      "note": 50,
      "start": 11.6244,
      "duration": 0.0072,
      "velocity": 103,
      "chip": "ym2612"
    },
    {
      "channel": 2,
      "note": 76,
      "start": 11.6247,
      "duration": 0.1697,
      "velocity": 97,
      "chip": "ym2612"
    },
    {
      "channel": 3,
      "note": 50,
      "start": 11.625,
      "duration": 0.0546,
      "velocity": 96,
      "chip": "ym2612"
    },
    {
      "channel": 4,
      "note": 80,
      "start": 11.6299,
      "duration": 0.1687,
      "velocity": 97,
      "chip": "ym2612"
    },
    {
      "channel": 1,
      "note": 52,
      "start": 11.6318,
      "duration": 0.0475,
      "velocity": 103,
      "chip": "ym2612"
    },
    {
      "channel": 1,
      "note": 50,
      "start": 11.6794,
      "duration": 0.0071,
      "velocity": 103,
      "chip": "ym2612"
    },
    {
      "channel": 3,
      "note": 50,
      "start": 11.6797,
      "duration": 0.0072,
      "velocity": 96,
      "chip": "ym2612"
    },
    {
      "channel": 1,
      "note": 54,
      "start": 11.6867,
      "duration": 0.0075,
      "velocity": 103,
      "chip": "ym2612"
    },
    {
      "channel": 3,
      "note": 50,
      "start": 11.687,
      "duration": 0.0147,
      "velocity": 96,
      "chip": "ym2612"
    },
    {
      "channel": 1,
      "note": 50,
      "start": 11.6945,
      "duration": 0.0069,
      "velocity": 103,
      "chip": "ym2612"
    },
    {
      "channel": 1,
      "note": 56,
      "start": 11.7016,
      "duration": 0.0073,
      "velocity": 103,
      "chip": "ym2612"
    },
    {
      "channel": 3,
      "note": 50,
      "start": 11.702,
      "duration": 0.0073,
      "velocity": 96,
      "chip": "ym2612"
    },
    {
      "channel": 1,
      "note": 50,
      "start": 11.7091,
      "duration": 0.0073,
      "velocity": 103,
      "chip": "ym2612"
    },
    {
      "channel": 3,
      "note": 50,
      "start": 11.7094,
      "duration": 0.0148,
      "velocity": 96,
      "chip": "ym2612"
    },
    {
      "channel": 1,
      "note": 57,
      "start": 11.7166,
      "duration": 0.0072,
      "velocity": 103,
      "chip": "ym2612"
    },
    {
      "channel": 1,
      "note": 50,
      "start": 11.724,
      "duration": 0.0071,
      "velocity": 103,
      "chip": "ym2612"
    },
    {
      "channel": 3,
      "note": 50,
      "start": 11.7244,
      "duration": 0.0552,
      "velocity": 96,
      "chip": "ym2612"
    },
    {
      "channel": 1,
      "note": 52,
      "start": 11.7312,
      "duration": 0.048,
      "velocity": 103,
      "chip": "ym2612"
    },
    {
      "channel": 1,
      "note": 50,
      "start": 11.7794,
      "duration": 0.0071,
      "velocity": 103,
      "chip": "ym2612"
    },
    {
      "channel": 3,
      "note": 50,
      "start": 11.7797,
      "duration": 0.015,
      "velocity": 96,
      "chip": "ym2612"
    },
    {
      "channel": 1,
      "note": 54,
      "start": 11.7868,
      "duration": 0.0074,
      "velocity": 103,
      "chip": "ym2612"
    },
    {
      "channel": 0,
      "note": 81,
      "start": 11.7941,
      "duration": 0.0266,
      "velocity": 97,
      "chip": "ym2612"
    },
    {
      "channel": 1,
      "note": 50,
      "start": 11.7943,
      "duration": 0.0061,
      "velocity": 103,
      "chip": "ym2612"
    },
    {
      "channel": 2,
      "note": 78,
      "start": 11.7946,
      "duration": 0.0268,
      "velocity": 97,
      "chip": "ym2612"
    },
    {
      "channel": 4,
      "note": 81,
      "start": 11.7988,
      "duration": 0.0278,
      "velocity": 97,
      "chip": "ym2612"
    },
    {
      "channel": 1,
      "note": 56,
      "start": 11.8006,
      "duration": 0.0068,
      "velocity": 103,
      "chip": "ym2612"
    },
    {
      "channel": 1,
      "note": 50,
      "start": 11.8076,
      "duration": 0.0065,
      "velocity": 103,
      "chip": "ym2612"
    },
    {
      "channel": 1,
      "note": 57,
      "start": 11.8143,
      "duration": 0.0068,
      "velocity": 103,
      "chip": "ym2612"
    },
    {
      "channel": 0,
      "note": 78,
      "start": 11.821,
      "duration": 0.1972,
      "velocity": 97,
      "chip": "ym2612"
    },
    {
      "channel": 1,
      "note": 50,
      "start": 11.8213,
      "duration": 0.0071,
      "velocity": 103,
      "chip": "ym2612"
    },
    {
      "channel": 2,
      "note": 74,
      "start": 11.8216,
      "duration": 0.1971,
      "velocity": 97,
      "chip": "ym2612"
    },
    {
      "channel": 3,
      "note": 50,
      "start": 11.8218,
      "duration": 0.0546,
      "velocity": 96,
      "chip": "ym2612"
    },
    {
      "channel": 4,
      "note": 78,
      "start": 11.8268,
      "duration": 0.1973,
      "velocity": 97,
      "chip": "ym2612"
    },
    {
      "channel": 1,
      "note": 52,
      "start": 11.8285,
      "duration": 0.0476,
      "velocity": 103,
      "chip": "ym2612"
    },
    {
      "channel": 1,
      "note": 50,
      "start": 11.8763,
      "duration": 0.0071,
      "velocity": 103,
      "chip": "ym2612"
    },
    {
      "channel": 3,
      "note": 50,
      "start": 11.8766,
      "duration": 0.0072,
      "velocity": 96,
      "chip": "ym2612"
    },
    {
      "channel": 1,
      "note": 54,
      "start": 11.8836,
      "duration": 0.0075,
      "velocity": 103,
      "chip": "ym2612"
    },
    {
      "channel": 3,
      "note": 50,
      "start": 11.8839,
      "duration": 0.0147,
      "velocity": 96,
      "chip": "ym2612"
    },
    {
      "channel": 1,
      "note": 50,
      "start": 11.8914,
      "duration": 0.0069,
      "velocity": 103,
      "chip": "ym2612"
    },
    {
      "channel": 1,
      "note": 56,
      "start": 11.8985,
      "duration": 0.0073,
      "velocity": 103,
      "chip": "ym2612"
    },
    {
      "channel": 3,
      "note": 50,
      "start": 11.8988,
      "duration": 0.0073,
      "velocity": 96,
      "chip": "ym2612"
    },
    {
      "channel": 1,
      "note": 50,
      "start": 11.906,
      "duration": 0.0073,
      "velocity": 103,
      "chip": "ym2612"
    },
    {
      "channel": 3,
      "note": 50,
      "start": 11.9063,
      "duration": 0.0148,
      "velocity": 96,
      "chip": "ym2612"
    },
    {
      "channel": 1,
      "note": 57,
      "start": 11.9135,
      "duration": 0.0072,
      "velocity": 103,
      "chip": "ym2612"
    },
    {
      "channel": 1,
      "note": 50,
      "start": 11.9209,
      "duration": 0.0071,
      "velocity": 103,
      "chip": "ym2612"
    },
    {
      "channel": 3,
      "note": 50,
      "start": 11.9213,
      "duration": 0.0555,
      "velocity": 96,
      "chip": "ym2612"
    },
    {
      "channel": 1,
      "note": 52,
      "start": 11.9282,
      "duration": 0.0482,
      "velocity": 103,
      "chip": "ym2612"
    },
    {
      "channel": 1,
      "note": 50,
      "start": 11.9766,
      "duration": 0.0068,
      "velocity": 103,
      "chip": "ym2612"
    },
    {
      "channel": 3,
      "note": 50,
      "start": 11.9769,
      "duration": 0.0142,
      "velocity": 96,
      "chip": "ym2612"
    },
    {
      "channel": 1,
      "note": 54,
      "start": 11.9836,
      "duration": 0.0073,
      "velocity": 103,
      "chip": "ym2612"
    },
    {
      "channel": 1,
      "note": 50,
      "start": 11.991,
      "duration": 0.0063,
      "velocity": 103,
      "chip": "ym2612"
    },
    {
      "channel": 1,
      "note": 56,
      "start": 11.9974,
      "duration": 0.0071,
      "velocity": 103,
      "chip": "ym2612"
    },
    {
      "channel": 1,
      "note": 50,
      "start": 12.0047,
      "duration": 0.0067,
      "velocity": 103,
      "chip": "ym2612"
    },
    {
      "channel": 1,
      "note": 57,
      "start": 12.0117,
      "duration": 0.0067,
      "velocity": 103,
      "chip": "ym2612"
    },
    {
      "channel": 0,
      "note": 78,
      "start": 12.0182,
      "duration": 0.0698,
      "velocity": 97,
      "chip": "ym2612"
    },
    {
      "channel": 1,
      "note": 50,
      "start": 12.0186,
      "duration": 0.0073,
      "velocity": 103,
      "chip": "ym2612"
    },
    {
      "channel": 2,
      "note": 74,
      "start": 12.0187,
      "duration": 0.0698,
      "velocity": 97,
      "chip": "ym2612"
    },
    {
      "channel": 3,
      "note": 50,
      "start": 12.019,
      "duration": 0.0551,
      "velocity": 96,
      "chip": "ym2612"
    },
    {
      "channel": 4,
      "note": 78,
      "start": 12.024,
      "duration": 0.0695,
      "velocity": 97,
      "chip": "ym2612"
    },
    {
      "channel": 1,
      "note": 52,
      "start": 12.0262,
      "duration": 0.0478,
      "velocity": 103,
      "chip": "ym2612"
    },
    {
      "channel": 1,
      "note": 50,
      "start": 12.074,
      "duration": 0.0065,
      "velocity": 103,
      "chip": "ym2612"
    },
    {
      "channel": 3,
      "note": 50,
      "start": 12.0744,
      "duration": 0.0066,
      "velocity": 96,
      "chip": "ym2612"
    },
    {
      "channel": 1,
      "note": 54,
      "start": 12.0808,
      "duration": 0.0075,
      "velocity": 103,
      "chip": "ym2612"
    },
    {
      "channel": 3,
      "note": 50,
      "start": 12.0811,
      "duration": 0.0148,
      "velocity": 96,
      "chip": "ym2612"
    },
    {
      "channel": 0,
      "note": 81,
      "start": 12.0883,
      "duration": 0.0293,
      "velocity": 97,
      "chip": "ym2612"
    },
    {
      "channel": 1,
      "note": 50,
      "start": 12.0885,
      "duration": 0.0071,
      "velocity": 103,
      "chip": "ym2612"
    },
    {
      "channel": 2,
      "note": 78,
      "start": 12.0886,
      "duration": 0.0295,
      "velocity": 97,
      "chip": "ym2612"
    },
    {
      "channel": 4,
      "note": 81,
      "start": 12.0937,
      "duration": 0.0295,
      "velocity": 97,
      "chip": "ym2612"
    },
    {
      "channel": 1,
      "note": 56,
      "start": 12.0957,
      "duration": 0.0071,
      "velocity": 103,
      "chip": "ym2612"
    },
    {
      "channel": 3,
      "note": 50,
      "start": 12.0961,
      "duration": 0.0071,
      "velocity": 96,
      "chip": "ym2612"
    },
    {
      "channel": 1,
      "note": 50,
      "start": 12.103,
      "duration": 0.0073,
      "velocity": 103,
      "chip": "ym2612"
    },
    {
      "channel": 3,
      "note": 50,
      "start": 12.1034,
      "duration": 0.015,
      "velocity": 96,
      "chip": "ym2612"
    },
    {
      "channel": 1,
      "note": 57,
      "start": 12.1105,
      "duration": 0.0073,
      "velocity": 103,
      "chip": "ym2612"
    },
    {
      "channel": 0,
      "note": 80,
      "start": 12.1178,
      "duration": 0.0696,
      "velocity": 97,
      "chip": "ym2612"
    },
    {
      "channel": 1,
      "note": 50,
      "start": 12.1181,
      "duration": 0.0072,
      "velocity": 103,
      "chip": "ym2612"
    },
    {
      "channel": 2,
      "note": 76,
      "start": 12.1183,
      "duration": 0.0695,
      "velocity": 97,
      "chip": "ym2612"
    },
    {
      "channel": 3,
      "note": 50,
      "start": 12.1186,
      "duration": 0.0549,
      "velocity": 96,
      "chip": "ym2612"
    },
    {
      "channel": 4,
      "note": 80,
      "start": 12.1234,
      "duration": 0.0691,
      "velocity": 97,
      "chip": "ym2612"
    },
    {
      "channel": 1,
      "note": 52,
      "start": 12.1254,
      "duration": 0.0478,
      "velocity": 103,
      "chip": "ym2612"
    },
    {
      "channel": 1,
      "note": 50,
      "start": 12.1734,
      "duration": 0.0069,
      "velocity": 103,
      "chip": "ym2612"
    },
    {
      "channel": 3,
      "note": 50,
      "start": 12.1736,
      "duration": 0.0145,
      "velocity": 96,
      "chip": "ym2612"
    },
    {
      "channel": 1,
      "note": 54,
      "start": 12.1805,
      "duration": 0.0072,
      "velocity": 103,
      "chip": "ym2612"
    },
    {
      "channel": 0,
      "note": 78,
      "start": 12.1876,
      "duration": 0.027,
      "velocity": 97,
      "chip": "ym2612"
    },
    {
      "channel": 1,
      "note": 50,
      "start": 12.1878,
      "duration": 0.0066,
      "velocity": 103,
      "chip": "ym2612"
    },
    {
      "channel": 2,
      "note": 74,
      "start": 12.188,
      "duration": 0.0272,
      "velocity": 97,
      "chip": "ym2612"
    },
    {
      "channel": 4,
      "note": 78,
      "start": 12.1927,
      "duration": 0.028,
      "velocity": 97,
      "chip": "ym2612"
    },
    {
      "channel": 1,
      "note": 56,
      "start": 12.1946,
      "duration": 0.0068,
      "velocity": 103,
      "chip": "ym2612"
    },
    {
      "channel": 1,
      "note": 50,
      "start": 12.2016,
      "duration": 0.0064,
      "velocity": 103,
      "chip": "ym2612"
    },
    {
      "channel": 1,
      "note": 57,
      "start": 12.2082,
      "duration": 0.0068,
      "velocity": 103,
      "chip": "ym2612"
    },
    {
      "channel": 0,
      "note": 85,
      "start": 12.2149,
      "duration": 0.0707,
      "velocity": 97,
      "chip": "ym2612"
    },
    {
      "channel": 1,
      "note": 50,
      "start": 12.2151,
      "duration": 0.0076,
      "velocity": 103,
      "chip": "ym2612"
    },
    {
      "channel": 2,
      "note": 80,
      "start": 12.2154,
      "duration": 0.0707,
      "velocity": 97,
      "chip": "ym2612"
    },
    {
      "channel": 3,
      "note": 50,
      "start": 12.2158,
      "duration": 0.0552,
      "velocity": 96,
      "chip": "ym2612"
    },
    {
      "channel": 4,
      "note": 85,
      "start": 12.2209,
      "duration": 0.0702,
      "velocity": 97,
      "chip": "ym2612"
    },
    {
      "channel": 1,
      "note": 52,
      "start": 12.2229,
      "duration": 0.0478,
      "velocity": 103,
      "chip": "ym2612"
    },
    {
      "channel": 1,
      "note": 50,
      "start": 12.2709,
      "duration": 0.0071,
      "velocity": 103,
      "chip": "ym2612"
    },
    {
      "channel": 3,
      "note": 50,
      "start": 12.2712,
      "duration": 0.0072,
      "velocity": 96,
      "chip": "ym2612"
    },
    {
      "channel": 1,
      "note": 54,
      "start": 12.2782,
      "duration": 0.0076,
      "velocity": 103,
      "chip": "ym2612"
    },
    {
      "channel": 3,
      "note": 50,
      "start": 12.2785,
      "duration": 0.0149,
      "velocity": 96,
      "chip": "ym2612"
    },
    {
      "channel": 0,
      "note": 83,
      "start": 12.2858,
      "duration": 0.0294,
      "velocity": 97,
      "chip": "ym2612"
    },
    {
      "channel": 1,
      "note": 50,
      "start": 12.2861,
      "duration": 0.0071,
      "velocity": 103,
      "chip": "ym2612"
    },
    {
      "channel": 2,
      "note": 78,
      "start": 12.2862,
      "duration": 0.0296,
      "velocity": 97,
      "chip": "ym2612"
    },
    {
      "channel": 4,
      "note": 83,
      "start": 12.2912,
      "duration": 0.0298,
      "velocity": 97,
      "chip": "ym2612"
    },
    {
      "channel": 1,
      "note": 56,
      "start": 12.2933,
      "duration": 0.0071,
      "velocity": 103,
      "chip": "ym2612"
    },
    {
      "channel": 3,
      "note": 50,
      "start": 12.2937,
      "duration": 0.007,
      "velocity": 96,
      "chip": "ym2612"
    },
    {
      "channel": 1,
      "note": 50,
      "start": 12.3006,
      "duration": 0.0073,
      "velocity": 103,
      "chip": "ym2612"
    },
    {
      "channel": 3,
      "note": 50,
      "start": 12.3008,
      "duration": 0.0152,
      "velocity": 96,
      "chip": "ym2612"
    },
    {
      "channel": 1,
      "note": 57,
      "start": 12.308,
      "duration": 0.0075,
      "velocity": 103,
      "chip": "ym2612"
    },
    {
      "channel": 0,
      "note": 81,
      "start": 12.3154,
      "duration": 0.0702,
      "velocity": 97,
      "chip": "ym2612"
    },
    {
      "channel": 1,
      "note": 50,
      "start": 12.3158,
      "duration": 0.0071,
      "velocity": 103,
      "chip": "ym2612"
    },
    {
      "channel": 2,
      "note": 76,
      "start": 12.316,
      "duration": 0.0703,
      "velocity": 97,
      "chip": "ym2612"
    },
    {
      "channel": 3,
      "note": 50,
      "start": 12.3163,
      "duration": 0.0549,
      "velocity": 96,
      "chip": "ym2612"
    },
    {
      "channel": 4,
      "note": 81,
      "start": 12.3212,
      "duration": 0.0691,
      "velocity": 97,
      "chip": "ym2612"
    },
    {
      "channel": 1,
      "note": 52,
      "start": 12.323,
      "duration": 0.0479,
      "velocity": 103,
      "chip": "ym2612"
    },
    {
      "channel": 1,
      "note": 50,
      "start": 12.3711,
      "duration": 0.0073,
      "velocity": 103,
      "chip": "ym2612"
    },
    {
      "channel": 3,
      "note": 50,
      "start": 12.3714,
      "duration": 0.015,
      "velocity": 96,
      "chip": "ym2612"
    },
    {
      "channel": 1,
      "note": 54,
      "start": 12.3786,
      "duration": 0.0074,
      "velocity": 103,
      "chip": "ym2612"
    },
    {
      "channel": 0,
      "note": 80,
      "start": 12.3859,
      "duration": 0.0269,
      "velocity": 97,
      "chip": "ym2612"
    },
    {
      "channel": 1,
      "note": 50,
      "start": 12.3862,
      "duration": 0.006,
      "velocity": 103,
      "chip": "ym2612"
    },
    {
      "channel": 2,
      "note": 78,
      "start": 12.3863,
      "duration": 0.0271,
      "velocity": 97,
      "chip": "ym2612"
    },
    {
      "channel": 4,
      "note": 80,
      "start": 12.3905,
      "duration": 0.0281,
      "velocity": 97,
      "chip": "ym2612"
    },
    {
      "channel": 1,
      "note": 56,
      "start": 12.3923,
      "duration": 0.007,
      "velocity": 103,
      "chip": "ym2612"
    },
    {
      "channel": 1,
      "note": 50,
      "start": 12.3995,
      "duration": 0.0067,
      "velocity": 103,
      "chip": "ym2612"
    },
    {
      "channel": 1,
      "note": 57,
      "start": 12.4064,
      "duration": 0.0067,
      "velocity": 103,
      "chip": "ym2612"
    },
    {
      "channel": 0,
      "note": 80,
      "start": 12.413,
      "duration": 0.1975,
      "velocity": 97,
      "chip": "ym2612"
    },
    {
      "channel": 1,
      "note": 49,
      "start": 12.4134,
      "duration": 0.0073,
      "velocity": 103,
      "chip": "ym2612"
    },
    {
      "channel": 2,
      "note": 74,
      "start": 12.4136,
      "duration": 0.1974,
      "velocity": 97,
      "chip": "ym2612"
    },
    {
      "channel": 3,
      "note": 49,
      "start": 12.414,
      "duration": 0.0549,
      "velocity": 96,
      "chip": "ym2612"
    },
    {
      "channel": 4,
      "note": 80,
      "start": 12.4188,
      "duration": 0.1973,
      "velocity": 97,
      "chip": "ym2612"
    },
    {
      "channel": 1,
      "note": 50,
      "start": 12.4209,
      "duration": 0.0477,
      "velocity": 103,
      "chip": "ym2612"
    },
    {
      "channel": 1,
      "note": 49,
      "start": 12.4688,
      "duration": 0.0071,
      "velocity": 103,
      "chip": "ym2612"
    },
    {
      "channel": 3,
      "note": 49,
      "start": 12.4691,
      "duration": 0.0072,
      "velocity": 96,
      "chip": "ym2612"
    },
    {
      "channel": 1,
      "note": 52,
      "start": 12.4761,
      "duration": 0.0075,
      "velocity": 103,
      "chip": "ym2612"
    },
    {
      "channel": 3,
      "note": 49,
      "start": 12.4764,
      "duration": 0.0147,
      "velocity": 96,
      "chip": "ym2612"
    },
    {
      "channel": 1,
      "note": 49,
      "start": 12.4839,
      "duration": 0.0069,
      "velocity": 103,
      "chip": "ym2612"
    },
    {
      "channel": 1,
      "note": 54,
      "start": 12.491,
      "duration": 0.0073,
      "velocity": 103,
      "chip": "ym2612"
    },
    {
      "channel": 3,
      "note": 49,
      "start": 12.4913,
      "duration": 0.0073,
      "velocity": 96,
      "chip": "ym2612"
    },
    {
      "channel": 1,
      "note": 49,
      "start": 12.4985,
      "duration": 0.0073,
      "velocity": 103,
      "chip": "ym2612"
    },
    {
      "channel": 3,
      "note": 49,
      "start": 12.4988,
      "duration": 0.0148,
      "velocity": 96,
      "chip": "ym2612"
    },
    {
      "channel": 1,
      "note": 56,
      "start": 12.506,
      "duration": 0.0072,
      "velocity": 103,
      "chip": "ym2612"
    },
    {
      "channel": 1,
      "note": 49,
      "start": 12.5134,
      "duration": 0.007,
      "velocity": 103,
      "chip": "ym2612"
    },
    {
      "channel": 3,
      "note": 49,
      "start": 12.5137,
      "duration": 0.0551,
      "velocity": 96,
      "chip": "ym2612"
    },
    {
      "channel": 1,
      "note": 50,
      "start": 12.5205,
      "duration": 0.048,
      "velocity": 103,
      "chip": "ym2612"
    },
    {
      "channel": 1,
      "note": 49,
      "start": 12.5687,
      "duration": 0.0071,
      "velocity": 103,
      "chip": "ym2612"
    },
    {
      "channel": 3,
      "note": 49,
      "start": 12.569,
      "duration": 0.0145,
      "velocity": 96,
      "chip": "ym2612"
    },
    {
      "channel": 1,
      "note": 52,
      "start": 12.5761,
      "duration": 0.0071,
      "velocity": 103,
      "chip": "ym2612"
    },
    {
      "channel": 1,
      "note": 49,
      "start": 12.5833,
      "duration": 0.0063,
      "velocity": 103,
      "chip": "ym2612"
    },
    {
      "channel": 1,
      "note": 54,
      "start": 12.5897,
      "duration": 0.0071,
      "velocity": 103,
      "chip": "ym2612"
    },
    {
      "channel": 1,
      "note": 49,
      "start": 12.597,
      "duration": 0.0067,
      "velocity": 103,
      "chip": "ym2612"
    },
    {
      "channel": 1,
      "note": 56,
      "start": 12.604,
      "duration": 0.0067,
      "velocity": 103,
      "chip": "ym2612"
    },
    {
      "channel": 0,
      "note": 79,
      "start": 12.6105,
      "duration": 0.1964,
      "velocity": 97,
      "chip": "ym2612"
    },
    {
      "channel": 1,
      "note": 49,
      "start": 12.6108,
      "duration": 0.0071,
      "velocity": 103,
      "chip": "ym2612"
    },
    {
      "channel": 2,
      "note": 74,
      "start": 12.611,
      "duration": 0.1962,
      "velocity": 97,
      "chip": "ym2612"
    },
    {
      "channel": 3,
      "note": 49,
      "start": 12.6114,
      "duration": 0.0549,
      "velocity": 96,
      "chip": "ym2612"
    },
    {
      "channel": 4,
      "note": 79,
      "start": 12.6161,
      "duration": 0.1963,
      "velocity": 97,
      "chip": "ym2612"
    },
    {
      "channel": 1,
      "note": 50,
      "start": 12.6181,
      "duration": 0.0479,
      "velocity": 103,
      "chip": "ym2612"
    },
    {
      "channel": 1,
      "note": 49,
      "start": 12.6661,
      "duration": 0.0065,
      "velocity": 103,
      "chip": "ym2612"
    },
    {
      "channel": 3,
      "note": 49,
      "start": 12.6664,
      "duration": 0.0066,
      "velocity": 96,
      "chip": "ym2612"
    },
    {
      "channel": 1,
      "note": 52,
      "start": 12.6729,
      "duration": 0.0074,
      "velocity": 103,
      "chip": "ym2612"
    },
    {
      "channel": 3,
      "note": 49,
      "start": 12.6732,
      "duration": 0.0145,
      "velocity": 96,
      "chip": "ym2612"
    },
    {
      "channel": 1,
      "note": 49,
      "start": 12.6806,
      "duration": 0.0067,
      "velocity": 103,
      "chip": "ym2612"
    },
    {
      "channel": 1,
      "note": 54,
      "start": 12.6875,
      "duration": 0.0072,
      "velocity": 103,
      "chip": "ym2612"
    },
    {
      "channel": 3,
      "note": 49,
      "start": 12.6879,
      "duration": 0.0072,
      "velocity": 96,
      "chip": "ym2612"
    },
    {
      "channel": 1,
      "note": 49,
      "start": 12.6949,
      "duration": 0.0068,
      "velocity": 103,
      "chip": "ym2612"
    },
    {
      "channel": 3,
      "note": 49,
      "start": 12.6952,
      "duration": 0.0145,
      "velocity": 96,
      "chip": "ym2612"
    },
    {
      "channel": 1,
      "note": 56,
      "start": 12.7019,
      "duration": 0.0075,
      "velocity": 103,
      "chip": "ym2612"
    },
    {
      "channel": 1,
      "note": 49,
      "start": 12.7095,
      "duration": 0.0073,
      "velocity": 103,
      "chip": "ym2612"
    },
    {
      "channel": 3,
      "note": 49,
      "start": 12.71,
      "duration": 0.0554,
      "velocity": 96,
      "chip": "ym2612"
    },
    {
      "channel": 1,
      "note": 50,
      "start": 12.7171,
      "duration": 0.048,
      "velocity": 103,
      "chip": "ym2612"
    },
    {
      "channel": 1,
      "note": 49,
      "start": 12.7652,
      "duration": 0.0068,
      "velocity": 103,
      "chip": "ym2612"
    },
    {
      "channel": 3,
      "note": 49,
      "start": 12.7655,
      "duration": 0.0143,
      "velocity": 96,
      "chip": "ym2612"
    },
    {
      "channel": 1,
      "note": 52,
      "start": 12.7722,
      "duration": 0.0073,
      "velocity": 103,
      "chip": "ym2612"
    },
    {
      "channel": 1,
      "note": 49,
      "start": 12.7797,
      "duration": 0.0062,
      "velocity": 103,
      "chip": "ym2612"
    },
    {
      "channel": 1,
      "note": 54,
      "start": 12.786,
      "duration": 0.0073,
      "velocity": 103,
      "chip": "ym2612"
    },
    {
      "channel": 1,
      "note": 49,
      "start": 12.7936,
      "duration": 0.0064,
      "velocity": 103,
      "chip": "ym2612"
    },
    {
      "channel": 1,
      "note": 56,
      "start": 12.8002,
      "duration": 0.0067,
      "velocity": 103,
      "chip": "ym2612"
    },
    {
      "channel": 0,
      "note": 79,
      "start": 12.8069,
      "duration": 0.1951,
      "velocity": 97,
      "chip": "ym2612"
    },
    {
      "channel": 1,
      "note": 49,
      "start": 12.8071,
      "duration": 0.007,
      "velocity": 103,
      "chip": "ym2612"
    },
    {
      "channel": 2,
      "note": 73,
      "start": 12.8074,
      "duration": 0.195,
      "velocity": 97,
      "chip": "ym2612"
    },
    {
      "channel": 3,
      "note": 49,
      "start": 12.8077,
      "duration": 0.0547,
      "velocity": 96,
      "chip": "ym2612"
    },
    {
      "channel": 4,
      "note": 79,
      "start": 12.8124,
      "duration": 0.1951,
      "velocity": 97,
      "chip": "ym2612"
    },
    {
      "channel": 1,
      "note": 50,
      "start": 12.8143,
      "duration": 0.0477,
      "velocity": 103,
      "chip": "ym2612"
    },
    {
      "channel": 1,
      "note": 49,
      "start": 12.8621,
      "duration": 0.0068,
      "velocity": 103,
      "chip": "ym2612"
    },
    {
      "channel": 3,
      "note": 49,
      "start": 12.8625,
      "duration": 0.0068,
      "velocity": 96,
      "chip": "ym2612"
    },
    {
      "channel": 1,
      "note": 52,
      "start": 12.8692,
      "duration": 0.0074,
      "velocity": 103,
      "chip": "ym2612"
    },
    {
      "channel": 3,
      "note": 49,
      "start": 12.8695,
      "duration": 0.0141,
      "velocity": 96,
      "chip": "ym2612"
    },
    {
      "channel": 1,
      "note": 49,
      "start": 12.8768,
      "duration": 0.0065,
      "velocity": 103,
      "chip": "ym2612"
    },
    {
      "channel": 1,
      "note": 54,
      "start": 12.8834,
      "duration": 0.0072,
      "velocity": 103,
      "chip": "ym2612"
    },
    {
      "channel": 3,
      "note": 49,
      "start": 12.8837,
      "duration": 0.0072,
      "velocity": 96,
      "chip": "ym2612"
    },
    {
      "channel": 1,
      "note": 49,
      "start": 12.8907,
      "duration": 0.0069,
      "velocity": 103,
      "chip": "ym2612"
    },
    {
      "channel": 3,
      "note": 49,
      "start": 12.8911,
      "duration": 0.0146,
      "velocity": 96,
      "chip": "ym2612"
    },
    {
      "channel": 1,
      "note": 56,
      "start": 12.8978,
      "duration": 0.0073,
      "velocity": 103,
      "chip": "ym2612"
    },
    {
      "channel": 1,
      "note": 49,
      "start": 12.9054,
      "duration": 0.007,
      "velocity": 103,
      "chip": "ym2612"
    },
    {
      "channel": 3,
      "note": 49,
      "start": 12.9057,
      "duration": 0.0551,
      "velocity": 96,
      "chip": "ym2612"
    },
    {
      "channel": 1,
      "note": 50,
      "start": 12.9126,
      "duration": 0.048,
      "velocity": 103,
      "chip": "ym2612"
    },
    {
      "channel": 1,
      "note": 49,
      "start": 12.9606,
      "duration": 0.0068,
      "velocity": 103,
      "chip": "ym2612"
    },
    {
      "channel": 3,
      "note": 49,
      "start": 12.961,
      "duration": 0.0142,
      "velocity": 96,
      "chip": "ym2612"
    },
    {
      "channel": 1,
      "note": 52,
      "start": 12.9676,
      "duration": 0.0073,
      "velocity": 103,
      "chip": "ym2612"
    },
    {
      "channel": 1,
      "note": 49,
      "start": 12.9751,
      "duration": 0.0062,
      "velocity": 103,
      "chip": "ym2612"
    },
    {
      "channel": 1,
      "note": 54,
      "start": 12.9815,
      "duration": 0.0073,
      "velocity": 103,
      "chip": "ym2612"
    },
    {
      "channel": 1,
      "note": 49,
      "start": 12.9889,
      "duration": 0.0063,
      "velocity": 103,
      "chip": "ym2612"
    },
    {
      "channel": 1,
      "note": 56,
      "start": 12.9954,
      "duration": 0.0067,
      "velocity": 103,
      "chip": "ym2612"
    },
    {
      "channel": 0,
      "note": 79,
      "start": 13.002,
      "duration": 0.1415,
      "velocity": 97,
      "chip": "ym2612"
    },
    {
      "channel": 1,
      "note": 49,
      "start": 13.0023,
      "duration": 0.0073,
      "velocity": 103,
      "chip": "ym2612"
    },
    {
      "channel": 2,
      "note": 73,
      "start": 13.0024,
      "duration": 0.1424,
      "velocity": 95,
      "chip": "ym2612"
    },
    {
      "channel": 3,
      "note": 49,
      "start": 13.0027,
      "duration": 0.0139,
      "velocity": 96,
      "chip": "ym2612"
    },
    {
      "channel": 4,
      "note": 79,
      "start": 13.0076,
      "duration": 0.1426,
      "velocity": 97,
      "chip": "ym2612"
    },
    {
      "channel": 1,
      "note": 50,
      "start": 13.0098,
      "duration": 0.0064,
      "velocity": 103,
      "chip": "ym2612"
    },
    {
      "channel": 1,
      "note": 49,
      "start": 13.0164,
      "duration": 0.0071,
      "velocity": 103,
      "chip": "ym2612"
    },
    {
      "channel": 3,
      "note": 49,
      "start": 13.0168,
      "duration": 0.0071,
      "velocity": 96,
      "chip": "ym2612"
    },
    {
      "channel": 1,
      "note": 52,
      "start": 13.0237,
      "duration": 0.007,
      "velocity": 103,
      "chip": "ym2612"
    },
    {
      "channel": 3,
      "note": 49,
      "start": 13.0241,
      "duration": 0.0139,
      "velocity": 96,
      "chip": "ym2612"
    },
    {
      "channel": 1,
      "note": 49,
      "start": 13.0309,
      "duration": 0.0067,
      "velocity": 103,
      "chip": "ym2612"
    },
    {
      "channel": 1,
      "note": 54,
      "start": 13.0377,
      "duration": 0.0069,
      "velocity": 103,
      "chip": "ym2612"
    },
    {
      "channel": 3,
      "note": 49,
      "start": 13.038,
      "duration": 0.007,
      "velocity": 96,
      "chip": "ym2612"
    },
    {
      "channel": 1,
      "note": 49,
      "start": 13.0448,
      "duration": 0.0066,
      "velocity": 103,
      "chip": "ym2612"
    },
    {
      "channel": 3,
      "note": 49,
      "start": 13.0451,
      "duration": 0.0439,
      "velocity": 96,
      "chip": "ym2612"
    },
    {
      "channel": 1,
      "note": 56,
      "start": 13.0516,
      "duration": 0.0371,
      "velocity": 103,
      "chip": "ym2612"
    },
    {
      "channel": 1,
      "note": 49,
      "start": 13.0888,
      "duration": 0.0068,
      "velocity": 103,
      "chip": "ym2612"
    },
    {
      "channel": 3,
      "note": 49,
      "start": 13.0892,
      "duration": 0.0142,
      "velocity": 96,
      "chip": "ym2612"
    },
    {
      "channel": 1,
      "note": 50,
      "start": 13.0959,
      "duration": 0.0071,
      "velocity": 103,
      "chip": "ym2612"
    },
    {
      "channel": 1,
      "note": 49,
      "start": 13.1032,
      "duration": 0.0073,
      "velocity": 103,
      "chip": "ym2612"
    },
    {
      "channel": 3,
      "note": 49,
      "start": 13.1035,
      "duration": 0.0144,
      "velocity": 96,
      "chip": "ym2612"
    },
    {
      "channel": 1,
      "note": 52,
      "start": 13.1106,
      "duration": 0.0068,
      "velocity": 103,
      "chip": "ym2612"
    },
    {
      "channel": 1,
      "note": 49,
      "start": 13.1176,
      "duration": 0.0066,
      "velocity": 103,
      "chip": "ym2612"
    },
    {
      "channel": 1,
      "note": 54,
      "start": 13.1244,
      "duration": 0.006,
      "velocity": 103,
      "chip": "ym2612"
    },
    {
      "channel": 1,
      "note": 49,
      "start": 13.1307,
      "duration": 0.0064,
      "velocity": 103,
      "chip": "ym2612"
    },
    {
      "channel": 1,
      "note": 56,
      "start": 13.1373,
      "duration": 0.0066,
      "velocity": 103,
      "chip": "ym2612"
    },
    {
      "channel": 0,
      "note": 73,
      "start": 13.1438,
      "duration": 0.1698,
      "velocity": 97,
      "chip": "ym2612"
    },
    {
      "channel": 1,
      "note": 49,
      "start": 13.144,
      "duration": 0.0082,
      "velocity": 103,
      "chip": "ym2612"
    },
    {
      "channel": 2,
      "note": 73,
      "start": 13.1451,
      "duration": 0.062,
      "velocity": 95,
      "chip": "ym2612"
    },
    {
      "channel": 3,
      "note": 49,
      "start": 13.1454,
      "duration": 0.0544,
      "velocity": 96,
      "chip": "ym2612"
    },
    {
      "channel": 4,
      "note": 73,
      "start": 13.1504,
      "duration": 0.1681,
      "velocity": 97,
      "chip": "ym2612"
    },
    {
      "channel": 1,
      "note": 50,
      "start": 13.1524,
      "duration": 0.047,
      "velocity": 103,
      "chip": "ym2612"
    },
    {
      "channel": 1,
      "note": 49,
      "start": 13.1996,
      "duration": 0.0072,
      "velocity": 103,
      "chip": "ym2612"
    },
    {
      "channel": 3,
      "note": 49,
      "start": 13.1999,
      "duration": 0.0075,
      "velocity": 96,
      "chip": "ym2612"
    },
    {
      "channel": 1,
      "note": 52,
      "start": 13.207,
      "duration": 0.0075,
      "velocity": 103,
      "chip": "ym2612"
    },
    {
      "channel": 2,
      "note": 75,
      "start": 13.2073,
      "duration": 0.022,
      "velocity": 95,
      "chip": "ym2612"
    },
    {
      "channel": 3,
      "note": 49,
      "start": 13.2075,
      "duration": 0.0142,
      "velocity": 96,
      "chip": "ym2612"
    },
    {
      "channel": 1,
      "note": 49,
      "start": 13.2147,
      "duration": 0.0066,
      "velocity": 103,
      "chip": "ym2612"
    },
    {
      "channel": 1,
      "note": 54,
      "start": 13.2215,
      "duration": 0.0076,
      "velocity": 103,
      "chip": "ym2612"
    },
    {
      "channel": 3,
      "note": 49,
      "start": 13.2219,
      "duration": 0.0077,
      "velocity": 96,
      "chip": "ym2612"
    },
    {
      "channel": 1,
      "note": 49,
      "start": 13.2293,
      "duration": 0.0072,
      "velocity": 103,
      "chip": "ym2612"
    },
    {
      "channel": 2,
      "note": 76,
      "start": 13.2295,
      "duration": 0.0148,
      "velocity": 95,
      "chip": "ym2612"
    },
    {
      "channel": 3,
      "note": 49,
      "start": 13.2297,
      "duration": 0.0149,
      "velocity": 96,
      "chip": "ym2612"
    },
    {
      "channel": 1,
      "note": 56,
      "start": 13.2368,
      "duration": 0.0072,
      "velocity": 103,
      "chip": "ym2612"
    },
    {
      "channel": 1,
      "note": 49,
      "start": 13.2442,
      "duration": 0.007,
      "velocity": 103,
      "chip": "ym2612"
    },
    {
      "channel": 2,
      "note": 80,
      "start": 13.2445,
      "duration": 0.0696,
      "velocity": 95,
      "chip": "ym2612"
    },
    {
      "channel": 3,
      "note": 49,
      "start": 13.2448,
      "duration": 0.0547,
      "velocity": 96,
      "chip": "ym2612"
    },
    {
      "channel": 1,
      "note": 50,
      "start": 13.2514,
      "duration": 0.0478,
      "velocity": 103,
      "chip": "ym2612"
    },
    {
      "channel": 1,
      "note": 49,
      "start": 13.2994,
      "duration": 0.0069,
      "velocity": 103,
      "chip": "ym2612"
    },
    {
      "channel": 3,
      "note": 49,
      "start": 13.2997,
      "duration": 0.0147,
      "velocity": 96,
      "chip": "ym2612"
    },
    {
      "channel": 1,
      "note": 52,
      "start": 13.3066,
      "duration": 0.0073,
      "velocity": 103,
      "chip": "ym2612"
    },
    {
      "channel": 0,
      "note": 76,
      "start": 13.3138,
      "duration": 0.0268,
      "velocity": 97,
      "chip": "ym2612"
    },
    {
      "channel": 1,
      "note": 49,
      "start": 13.3141,
      "duration": 0.0063,
      "velocity": 103,
      "chip": "ym2612"
    },
    {
      "channel": 2,
      "note": 83,
      "start": 13.3143,
      "duration": 0.0269,
      "velocity": 95,
      "chip": "ym2612"
    },
    {
      "channel": 4,
      "note": 76,
      "start": 13.3187,
      "duration": 0.0277,
      "velocity": 97,
      "chip": "ym2612"
    },
    {
      "channel": 1,
      "note": 54,
      "start": 13.3205,
      "duration": 0.0068,
      "velocity": 103,
      "chip": "ym2612"
    },
    {
      "channel": 1,
      "note": 49,
      "start": 13.3276,
      "duration": 0.0065,
      "velocity": 103,
      "chip": "ym2612"
    },
    {
      "channel": 1,
      "note": 56,
      "start": 13.3343,
      "duration": 0.0066,
      "velocity": 103,
      "chip": "ym2612"
    },
    {
      "channel": 0,
      "note": 75,
      "start": 13.3408,
      "duration": 0.1982,
      "velocity": 97,
      "chip": "ym2612"
    },
    {
      "channel": 1,
      "note": 49,
      "start": 13.3411,
      "duration": 0.0075,
      "velocity": 103,
      "chip": "ym2612"
    },
    {
      "channel": 2,
      "note": 82,
      "start": 13.3413,
      "duration": 0.1706,
      "velocity": 95,
      "chip": "ym2612"
    },
    {
      "channel": 3,
      "note": 49,
      "start": 13.3416,
      "duration": 0.0553,
      "velocity": 96,
      "chip": "ym2612"
    },
    {
      "channel": 4,
      "note": 75,
      "start": 13.3466,
      "duration": 0.1979,
      "velocity": 97,
      "chip": "ym2612"
    },
    {
      "channel": 1,
      "note": 50,
      "start": 13.3488,
      "duration": 0.0478,
      "velocity": 103,
      "chip": "ym2612"
    },
    {
      "channel": 1,
      "note": 49,
      "start": 13.3968,
      "duration": 0.0072,
      "velocity": 103,
      "chip": "ym2612"
    },
    {
      "channel": 3,
      "note": 49,
      "start": 13.397,
      "duration": 0.0073,
      "velocity": 96,
      "chip": "ym2612"
    },
    {
      "channel": 1,
      "note": 52,
      "start": 13.4041,
      "duration": 0.0073,
      "velocity": 103,
      "chip": "ym2612"
    },
    {
      "channel": 3,
      "note": 49,
      "start": 13.4046,
      "duration": 0.0145,
      "velocity": 96,
      "chip": "ym2612"
    },
    {
      "channel": 1,
      "note": 49,
      "start": 13.4116,
      "duration": 0.0071,
      "velocity": 103,
      "chip": "ym2612"
    },
    {
      "channel": 1,
      "note": 54,
      "start": 13.4189,
      "duration": 0.0074,
      "velocity": 103,
      "chip": "ym2612"
    },
    {
      "channel": 3,
      "note": 49,
      "start": 13.4193,
      "duration": 0.0075,
      "velocity": 96,
      "chip": "ym2612"
    },
    {
      "channel": 1,
      "note": 49,
      "start": 13.4266,
      "duration": 0.0075,
      "velocity": 103,
      "chip": "ym2612"
    },
    {
      "channel": 3,
      "note": 49,
      "start": 13.427,
      "duration": 0.0149,
      "velocity": 96,
      "chip": "ym2612"
    },
    {
      "channel": 1,
      "note": 56,
      "start": 13.4344,
      "duration": 0.0072,
      "velocity": 103,
      "chip": "ym2612"
    },
    {
      "channel": 1,
      "note": 49,
      "start": 13.4417,
      "duration": 0.0071,
      "velocity": 103,
      "chip": "ym2612"
    },
    {
      "channel": 3,
      "note": 49,
      "start": 13.442,
      "duration": 0.0552,
      "velocity": 96,
      "chip": "ym2612"
    },
    {
      "channel": 1,
      "note": 50,
      "start": 13.449,
      "duration": 0.0479,
      "velocity": 103,
      "chip": "ym2612"
    },
    {
      "channel": 1,
      "note": 49,
      "start": 13.4971,
      "duration": 0.0074,
      "velocity": 103,
      "chip": "ym2612"
    },
    {
      "channel": 3,
      "note": 49,
      "start": 13.4973,
      "duration": 0.0149,
      "velocity": 96,
      "chip": "ym2612"
    },
    {
      "channel": 1,
      "note": 52,
      "start": 13.5047,
      "duration": 0.007,
      "velocity": 103,
      "chip": "ym2612"
    },
    {
      "channel": 1,
      "note": 49,
      "start": 13.5118,
      "duration": 0.0064,
      "velocity": 103,
      "chip": "ym2612"
    },
    {
      "channel": 2,
      "note": 78,
      "start": 13.5122,
      "duration": 0.0272,
      "velocity": 95,
      "chip": "ym2612"
    },
    {
      "channel": 1,
      "note": 54,
      "start": 13.5184,
      "duration": 0.007,
      "velocity": 103,
      "chip": "ym2612"
    },
    {
      "channel": 1,
      "note": 49,
      "start": 13.5256,
      "duration": 0.0062,
      "velocity": 103,
      "chip": "ym2612"
    },
    {
      "channel": 1,
      "note": 56,
      "start": 13.532,
      "duration": 0.0071,
      "velocity": 103,
      "chip": "ym2612"
    },
    {
      "channel": 0,
      "note": 75,
      "start": 13.539,
      "duration": 0.0693,
      "velocity": 97,
      "chip": "ym2612"
    },
    {
      "channel": 1,
      "note": 49,
      "start": 13.5393,
      "duration": 0.0069,
      "velocity": 103,
      "chip": "ym2612"
    },
    {
      "channel": 2,
      "note": 80,
      "start": 13.5396,
      "duration": 0.1959,
      "velocity": 95,
      "chip": "ym2612"
    },
    {
      "channel": 3,
      "note": 49,
      "start": 13.5399,
      "duration": 0.0547,
      "velocity": 96,
      "chip": "ym2612"
    },
    {
      "channel": 4,
      "note": 75,
      "start": 13.5445,
      "duration": 0.0694,
      "velocity": 97,
      "chip": "ym2612"
    },
    {
      "channel": 1,
      "note": 50,
      "start": 13.5464,
      "duration": 0.0478,
      "velocity": 103,
      "chip": "ym2612"
    },
    {
      "channel": 1,
      "note": 49,
      "start": 13.5943,
      "duration": 0.0067,
      "velocity": 103,
      "chip": "ym2612"
    },
    {
      "channel": 3,
      "note": 49,
      "start": 13.5947,
      "duration": 0.0067,
      "velocity": 96,
      "chip": "ym2612"
    },
    {
      "channel": 1,
      "note": 52,
      "start": 13.6012,
      "duration": 0.0075,
      "velocity": 103,
      "chip": "ym2612"
    },
    {
      "channel": 3,
      "note": 49,
      "start": 13.6015,
      "duration": 0.0148,
      "velocity": 96,
      "chip": "ym2612"
    },
    {
      "channel": 0,
      "note": 73,
      "start": 13.6086,
      "duration": 0.0288,
      "velocity": 97,
      "chip": "ym2612"
    },
    {
      "channel": 1,
      "note": 49,
      "start": 13.6088,
      "duration": 0.0071,
      "velocity": 103,
      "chip": "ym2612"
    },
    {
      "channel": 4,
      "note": 73,
      "start": 13.6141,
      "duration": 0.029,
      "velocity": 97,
      "chip": "ym2612"
    },
    {
      "channel": 1,
      "note": 54,
      "start": 13.6161,
      "duration": 0.0072,
      "velocity": 103,
      "chip": "ym2612"
    },
    {
      "channel": 3,
      "note": 49,
      "start": 13.6165,
      "duration": 0.0072,
      "velocity": 96,
      "chip": "ym2612"
    },
    {
      "channel": 1,
      "note": 49,
      "start": 13.6235,
      "duration": 0.0068,
      "velocity": 103,
      "chip": "ym2612"
    },
    {
      "channel": 3,
      "note": 49,
      "start": 13.6239,
      "duration": 0.0142,
      "velocity": 96,
      "chip": "ym2612"
    },
    {
      "channel": 1,
      "note": 56,
      "start": 13.6305,
      "duration": 0.0072,
      "velocity": 103,
      "chip": "ym2612"
    },
    {
      "channel": 0,
      "note": 76,
      "start": 13.6376,
      "duration": 0.0703,
      "velocity": 97,
      "chip": "ym2612"
    },
    {
      "channel": 1,
      "note": 49,
      "start": 13.638,
      "duration": 0.0071,
      "velocity": 103,
      "chip": "ym2612"
    },
    {
      "channel": 3,
      "note": 49,
      "start": 13.6384,
      "duration": 0.0549,
      "velocity": 96,
      "chip": "ym2612"
    },
    {
      "channel": 4,
      "note": 76,
      "start": 13.6433,
      "duration": 0.0696,
      "velocity": 97,
      "chip": "ym2612"
    },
    {
      "channel": 1,
      "note": 50,
      "start": 13.6453,
      "duration": 0.0476,
      "velocity": 103,
      "chip": "ym2612"
    },
    {
      "channel": 1,
      "note": 49,
      "start": 13.6931,
      "duration": 0.0074,
      "velocity": 103,
      "chip": "ym2612"
    },
    {
      "channel": 3,
      "note": 49,
      "start": 13.6934,
      "duration": 0.0152,
      "velocity": 96,
      "chip": "ym2612"
    },
    {
      "channel": 1,
      "note": 52,
      "start": 13.7007,
      "duration": 0.0075,
      "velocity": 103,
      "chip": "ym2612"
    },
    {
      "channel": 0,
      "note": 75,
      "start": 13.7081,
      "duration": 0.0268,
      "velocity": 97,
      "chip": "ym2612"
    },
    {
      "channel": 1,
      "note": 49,
      "start": 13.7084,
      "duration": 0.0062,
      "velocity": 103,
      "chip": "ym2612"
    },
    {
      "channel": 4,
      "note": 75,
      "start": 13.713,
      "duration": 0.0277,
      "velocity": 97,
      "chip": "ym2612"
    },
    {
      "channel": 1,
      "note": 54,
      "start": 13.7148,
      "duration": 0.0068,
      "velocity": 103,
      "chip": "ym2612"
    },
    {
      "channel": 1,
      "note": 49,
      "start": 13.7218,
      "duration": 0.0066,
      "velocity": 103,
      "chip": "ym2612"
    },
    {
      "channel": 1,
      "note": 56,
      "start": 13.7286,
      "duration": 0.0066,
      "velocity": 103,
      "chip": "ym2612"
    },
    {
      "channel": 0,
      "note": 72,
      "start": 13.7351,
      "duration": 0.0701,
      "velocity": 97,
      "chip": "ym2612"
    },
    {
      "channel": 1,
      "note": 49,
      "start": 13.7354,
      "duration": 0.0073,
      "velocity": 103,
      "chip": "ym2612"
    },
    {
      "channel": 2,
      "note": 72,
      "start": 13.7356,
      "duration": 0.0846,
      "velocity": 95,
      "chip": "ym2612"
    },
    {
      "channel": 3,
      "note": 49,
      "start": 13.7359,
      "duration": 0.0549,
      "velocity": 96,
      "chip": "ym2612"
    },
    {
      "channel": 4,
      "note": 72,
      "start": 13.7409,
      "duration": 0.0696,
      "velocity": 97,
      "chip": "ym2612"
    },
    {
      "channel": 1,
      "note": 50,
      "start": 13.7429,
      "duration": 0.0476,
      "velocity": 103,
      "chip": "ym2612"
    },
    {
      "channel": 1,
      "note": 49,
      "start": 13.7907,
      "duration": 0.0072,
      "velocity": 103,
      "chip": "ym2612"
    },
    {
      "channel": 3,
      "note": 49,
      "start": 13.791,
      "duration": 0.0073,
      "velocity": 96,
      "chip": "ym2612"
    },
    {
      "channel": 1,
      "note": 52,
      "start": 13.7981,
      "duration": 0.0075,
      "velocity": 103,
      "chip": "ym2612"
    },
    {
      "channel": 3,
      "note": 49,
      "start": 13.7985,
      "duration": 0.0144,
      "velocity": 96,
      "chip": "ym2612"
    },
    {
      "channel": 0,
      "note": 81,
      "start": 13.8055,
      "duration": 0.0294,
      "velocity": 97,
      "chip": "ym2612"
    },
    {
      "channel": 1,
      "note": 49,
      "start": 13.8058,
      "duration": 0.0067,
      "velocity": 103,
      "chip": "ym2612"
    },
    {
      "channel": 4,
      "note": 81,
      "start": 13.8107,
      "duration": 0.0296,
      "velocity": 97,
      "chip": "ym2612"
    },
    {
      "channel": 1,
      "note": 54,
      "start": 13.8127,
      "duration": 0.0073,
      "velocity": 103,
      "chip": "ym2612"
    },
    {
      "channel": 3,
      "note": 49,
      "start": 13.8131,
      "duration": 0.0073,
      "velocity": 96,
      "chip": "ym2612"
    },
    {
      "channel": 1,
      "note": 49,
      "start": 13.8202,
      "duration": 0.0075,
      "velocity": 103,
      "chip": "ym2612"
    },
    {
      "channel": 2,
      "note": 73,
      "start": 13.8203,
      "duration": 0.0849,
      "velocity": 95,
      "chip": "ym2612"
    },
    {
      "channel": 3,
      "note": 49,
      "start": 13.8206,
      "duration": 0.015,
      "velocity": 96,
      "chip": "ym2612"
    },
    {
      "channel": 1,
      "note": 56,
      "start": 13.8279,
      "duration": 0.0073,
      "velocity": 103,
      "chip": "ym2612"
    },
    {
      "channel": 0,
      "note": 80,
      "start": 13.8351,
      "duration": 0.0695,
      "velocity": 97,
      "chip": "ym2612"
    },
    {
      "channel": 1,
      "note": 49,
      "start": 13.8354,
      "duration": 0.007,
      "velocity": 103,
      "chip": "ym2612"
    },
    {
      "channel": 3,
      "note": 49,
      "start": 13.8357,
      "duration": 0.0549,
      "velocity": 96,
      "chip": "ym2612"
    },
    {
      "channel": 4,
      "note": 80,
      "start": 13.8406,
      "duration": 0.0687,
      "velocity": 97,
      "chip": "ym2612"
    },
    {
      "channel": 1,
      "note": 50,
      "start": 13.8425,
      "duration": 0.0478,
      "velocity": 103,
      "chip": "ym2612"
    },
    {
      "channel": 1,
      "note": 49,
      "start": 13.8905,
      "duration": 0.007,
      "velocity": 103,
      "chip": "ym2612"
    },
    {
      "channel": 3,
      "note": 49,
      "start": 13.8907,
      "duration": 0.0147,
      "velocity": 96,
      "chip": "ym2612"
    },
    {
      "channel": 1,
      "note": 52,
      "start": 13.8977,
      "duration": 0.0072,
      "velocity": 103,
      "chip": "ym2612"
    },
    {
      "channel": 0,
      "note": 72,
      "start": 13.9049,
      "duration": 0.0268,
      "velocity": 97,
      "chip": "ym2612"
    },
    {
      "channel": 1,
      "note": 49,
      "start": 13.9052,
      "duration": 0.0061,
      "velocity": 103,
      "chip": "ym2612"
    },
    {
      "channel": 2,
      "note": 75,
      "start": 13.9054,
      "duration": 0.0268,
      "velocity": 95,
      "chip": "ym2612"
    },
    {
      "channel": 4,
      "note": 72,
      "start": 13.9094,
      "duration": 0.028,
      "velocity": 97,
      "chip": "ym2612"
    },
    {
      "channel": 1,
      "note": 54,
      "start": 13.9115,
      "duration": 0.007,
      "velocity": 103,
      "chip": "ym2612"
    },
    {
      "channel": 1,
      "note": 49,
      "start": 13.9187,
      "duration": 0.0064,
      "velocity": 103,
      "chip": "ym2612"
    },
    {
      "channel": 1,
      "note": 56,
      "start": 13.9254,
      "duration": 0.0066,
      "velocity": 103,
      "chip": "ym2612"
    },
    {
      "channel": 0,
      "note": 73,
      "start": 13.9319,
      "duration": 0.1707,
      "velocity": 97,
      "chip": "ym2612"
    },
    {
      "channel": 1,
      "note": 49,
      "start": 13.9321,
      "duration": 0.0075,
      "velocity": 103,
      "chip": "ym2612"
    },
    {
      "channel": 2,
      "note": 76,
      "start": 13.9324,
      "duration": 0.1984,
      "velocity": 95,
      "chip": "ym2612"
    },
    {
      "channel": 3,
      "note": 49,
      "start": 13.9326,
      "duration": 0.0553,
      "velocity": 96,
      "chip": "ym2612"
    },
    {
      "channel": 4,
      "note": 73,
      "start": 13.9377,
      "duration": 0.1697,
      "velocity": 97,
      "chip": "ym2612"
    },
    {
      "channel": 1,
      "note": 50,
      "start": 13.9399,
      "duration": 0.0478,
      "velocity": 103,
      "chip": "ym2612"
    },
    {
      "channel": 1,
      "note": 49,
      "start": 13.9878,
      "duration": 0.0072,
      "velocity": 103,
      "chip": "ym2612"
    },
    {
      "channel": 3,
      "note": 49,
      "start": 13.9881,
      "duration": 0.0073,
      "velocity": 96,
      "chip": "ym2612"
    },
    {
      "channel": 1,
      "note": 52,
      "start": 13.9952,
      "duration": 0.0073,
      "velocity": 103,
      "chip": "ym2612"
    },
    {
      "channel": 3,
      "note": 49,
      "start": 13.9956,
      "duration": 0.0145,
      "velocity": 96,
      "chip": "ym2612"
    },
    {
      "channel": 1,
      "note": 49,
      "start": 14.0027,
      "duration": 0.0071,
      "velocity": 103,
      "chip": "ym2612"
    },
    {
      "channel": 1,
      "note": 54,
      "start": 14.01,
      "duration": 0.0074,
      "velocity": 103,
      "chip": "ym2612"
    },
    {
      "channel": 3,
      "note": 49,
      "start": 14.0103,
      "duration": 0.0075,
      "velocity": 96,
      "chip": "ym2612"
    },
    {
      "channel": 1,
      "note": 49,
      "start": 14.0176,
      "duration": 0.0075,
      "velocity": 103,
      "chip": "ym2612"
    },
    {
      "channel": 3,
      "note": 49,
      "start": 14.018,
      "duration": 0.0149,
      "velocity": 96,
      "chip": "ym2612"
    },
    {
      "channel": 1,
      "note": 56,
      "start": 14.0254,
      "duration": 0.0072,
      "velocity": 103,
      "chip": "ym2612"
    },
    {
      "channel": 1,
      "note": 49,
      "start": 14.0328,
      "duration": 0.0071,
      "velocity": 103,
      "chip": "ym2612"
    },
    {
      "channel": 3,
      "note": 49,
      "start": 14.0331,
      "duration": 0.0552,
      "velocity": 96,
      "chip": "ym2612"
    },
    {
      "channel": 1,
      "note": 50,
      "start": 14.04,
      "duration": 0.0479,
      "velocity": 103,
      "chip": "ym2612"
    },
    {
      "channel": 1,
      "note": 49,
      "start": 14.0881,
      "duration": 0.0074,
      "velocity": 103,
      "chip": "ym2612"
    },
    {
      "channel": 3,
      "note": 49,
      "start": 14.0884,
      "duration": 0.0148,
      "velocity": 96,
      "chip": "ym2612"
    },
    {
      "channel": 1,
      "note": 52,
      "start": 14.0957,
      "duration": 0.0071,
      "velocity": 103,
      "chip": "ym2612"
    },
    {
      "channel": 0,
      "note": 76,
      "start": 14.1028,
      "duration": 0.0272,
      "velocity": 97,
      "chip": "ym2612"
    },
    {
      "channel": 1,
      "note": 49,
      "start": 14.103,
      "duration": 0.0061,
      "velocity": 103,
      "chip": "ym2612"
    },
    {
      "channel": 4,
      "note": 76,
      "start": 14.1076,
      "duration": 0.0285,
      "velocity": 97,
      "chip": "ym2612"
    },
    {
      "channel": 1,
      "note": 54,
      "start": 14.1093,
      "duration": 0.007,
      "velocity": 103,
      "chip": "ym2612"
    },
    {
      "channel": 1,
      "note": 49,
      "start": 14.1166,
      "duration": 0.0067,
      "velocity": 103,
      "chip": "ym2612"
    },
    {
      "channel": 1,
      "note": 56,
      "start": 14.1235,
      "duration": 0.0071,
      "velocity": 103,
      "chip": "ym2612"
    },
    {
      "channel": 0,
      "note": 75,
      "start": 14.1304,
      "duration": 0.1974,
      "velocity": 97,
      "chip": "ym2612"
    },
    {
      "channel": 1,
      "note": 49,
      "start": 14.1307,
      "duration": 0.0074,
      "velocity": 103,
      "chip": "ym2612"
    },
    {
      "channel": 2,
      "note": 78,
      "start": 14.131,
      "duration": 0.1,
      "velocity": 95,
      "chip": "ym2612"
    },
    {
      "channel": 3,
      "note": 49,
      "start": 14.1314,
      "duration": 0.0546,
      "velocity": 96,
      "chip": "ym2612"
    },
    {
      "channel": 4,
      "note": 75,
      "start": 14.1363,
      "duration": 0.1972,
      "velocity": 97,
      "chip": "ym2612"
    },
    {
      "channel": 1,
      "note": 50,
      "start": 14.1383,
      "duration": 0.0474,
      "velocity": 103,
      "chip": "ym2612"
    },
    {
      "channel": 1,
      "note": 49,
      "start": 14.1859,
      "duration": 0.0072,
      "velocity": 103,
      "chip": "ym2612"
    },
    {
      "channel": 3,
      "note": 49,
      "start": 14.1861,
      "duration": 0.0073,
      "velocity": 96,
      "chip": "ym2612"
    },
    {
      "channel": 1,
      "note": 52,
      "start": 14.1932,
      "duration": 0.0073,
      "velocity": 103,
      "chip": "ym2612"
    },
    {
      "channel": 3,
      "note": 49,
      "start": 14.1937,
      "duration": 0.0145,
      "velocity": 96,
      "chip": "ym2612"
    },
    {
      "channel": 1,
      "note": 49,
      "start": 14.2007,
      "duration": 0.0071,
      "velocity": 103,
      "chip": "ym2612"
    },
    {
      "channel": 1,
      "note": 54,
      "start": 14.208,
      "duration": 0.0074,
      "velocity": 103,
      "chip": "ym2612"
    },
    {
      "channel": 3,
      "note": 49,
      "start": 14.2084,
      "duration": 0.0075,
      "velocity": 96,
      "chip": "ym2612"
    },
    {
      "channel": 1,
      "note": 49,
      "start": 14.2157,
      "duration": 0.0075,
      "velocity": 103,
      "chip": "ym2612"
    },
    {
      "channel": 3,
      "note": 49,
      "start": 14.2161,
      "duration": 0.015,
      "velocity": 96,
      "chip": "ym2612"
    },
    {
      "channel": 1,
      "note": 56,
      "start": 14.2234,
      "duration": 0.0072,
      "velocity": 103,
      "chip": "ym2612"
    },
    {
      "channel": 1,
      "note": 49,
      "start": 14.2308,
      "duration": 0.007,
      "velocity": 103,
      "chip": "ym2612"
    },
    {
      "channel": 2,
      "note": 78,
      "start": 14.231,
      "duration": 0.0551,
      "velocity": 95,
      "chip": "ym2612"
    },
    {
      "channel": 3,
      "note": 49,
      "start": 14.2313,
      "duration": 0.0551,
      "velocity": 96,
      "chip": "ym2612"
    },
    {
      "channel": 1,
      "note": 50,
      "start": 14.238,
      "duration": 0.0479,
      "velocity": 103,
      "chip": "ym2612"
    },
    {
      "channel": 1,
      "note": 49,
      "start": 14.2861,
      "duration": 0.0069,
      "velocity": 103,
      "chip": "ym2612"
    },
    {
      "channel": 2,
      "note": 76,
      "start": 14.2863,
      "duration": 0.028,
      "velocity": 95,
      "chip": "ym2612"
    },
    {
      "channel": 3,
      "note": 49,
      "start": 14.2866,
      "duration": 0.0142,
      "velocity": 96,
      "chip": "ym2612"
    },
    {
      "channel": 1,
      "note": 52,
      "start": 14.2932,
      "duration": 0.0072,
      "velocity": 103,
      "chip": "ym2612"
    },
    {
      "channel": 1,
      "note": 49,
      "start": 14.3006,
      "duration": 0.0062,
      "velocity": 103,
      "chip": "ym2612"
    },
    {
      "channel": 1,
      "note": 54,
      "start": 14.307,
      "duration": 0.0071,
      "velocity": 103,
      "chip": "ym2612"
    },
    {
      "channel": 1,
      "note": 49,
      "start": 14.3143,
      "duration": 0.0067,
      "velocity": 103,
      "chip": "ym2612"
    },
    {
      "channel": 2,
      "note": 78,
      "start": 14.3145,
      "duration": 0.0138,
      "velocity": 95,
      "chip": "ym2612"
    },
    {
      "channel": 1,
      "note": 56,
      "start": 14.3212,
      "duration": 0.0067,
      "velocity": 103,
      "chip": "ym2612"
    },
    {
      "channel": 0,
      "note": 75,
      "start": 14.3278,
      "duration": 0.07,
      "velocity": 97,
      "chip": "ym2612"
    },
    {
      "channel": 1,
      "note": 49,
      "start": 14.3282,
      "duration": 0.0073,
      "velocity": 103,
      "chip": "ym2612"
    },
    {
      "channel": 2,
      "note": 80,
      "start": 14.3284,
      "duration": 0.1965,
      "velocity": 95,
      "chip": "ym2612"
    },
    {
      "channel": 3,
      "note": 49,
      "start": 14.3287,
      "duration": 0.0552,
      "velocity": 96,
      "chip": "ym2612"
    },
    {
      "channel": 4,
      "note": 75,
      "start": 14.3334,
      "duration": 0.0699,
      "velocity": 97,
      "chip": "ym2612"
    },
    {
      "channel": 1,
      "note": 50,
      "start": 14.3356,
      "duration": 0.048,
      "velocity": 103,
      "chip": "ym2612"
    },
    {
      "channel": 1,
      "note": 49,
      "start": 14.3837,
      "duration": 0.0067,
      "velocity": 103,
      "chip": "ym2612"
    },
    {
      "channel": 3,
      "note": 49,
      "start": 14.3841,
      "duration": 0.0067,
      "velocity": 96,
      "chip": "ym2612"
    },
    {
      "channel": 1,
      "note": 52,
      "start": 14.3907,
      "duration": 0.0075,
      "velocity": 103,
      "chip": "ym2612"
    },
    {
      "channel": 3,
      "note": 49,
      "start": 14.391,
      "duration": 0.0148,
      "velocity": 96,
      "chip": "ym2612"
    },
    {
      "channel": 0,
      "note": 73,
      "start": 14.398,
      "duration": 0.0288,
      "velocity": 97,
      "chip": "ym2612"
    },
    {
      "channel": 1,
      "note": 49,
      "start": 14.3983,
      "duration": 0.0071,
      "velocity": 103,
      "chip": "ym2612"
    },
    {
      "channel": 4,
      "note": 73,
      "start": 14.4035,
      "duration": 0.029,
      "velocity": 97,
      "chip": "ym2612"
    },
    {
      "channel": 1,
      "note": 54,
      "start": 14.4055,
      "duration": 0.0072,
      "velocity": 103,
      "chip": "ym2612"
    },
    {
      "channel": 3,
      "note": 49,
      "start": 14.4059,
      "duration": 0.0072,
      "velocity": 96,
      "chip": "ym2612"
    },
    {
      "channel": 1,
      "note": 49,
      "start": 14.4129,
      "duration": 0.0068,
      "velocity": 103,
      "chip": "ym2612"
    },
    {
      "channel": 3,
      "note": 49,
      "start": 14.4133,
      "duration": 0.0142,
      "velocity": 96,
      "chip": "ym2612"
    },
    {
      "channel": 1,
      "note": 56,
      "start": 14.4199,
      "duration": 0.0072,
      "velocity": 103,
      "chip": "ym2612"
    },
    {
      "channel": 0,
      "note": 76,
      "start": 14.427,
      "duration": 0.0703,
      "velocity": 97,
      "chip": "ym2612"
    },
    {
      "channel": 1,
      "note": 49,
      "start": 14.4274,
      "duration": 0.0071,
      "velocity": 103,
      "chip": "ym2612"
    },
    {
      "channel": 3,
      "note": 49,
      "start": 14.4278,
      "duration": 0.0549,
      "velocity": 96,
      "chip": "ym2612"
    },
    {
      "channel": 4,
      "note": 76,
      "start": 14.4327,
      "duration": 0.0696,
      "velocity": 97,
      "chip": "ym2612"
    },
    {
      "channel": 1,
      "note": 50,
      "start": 14.4347,
      "duration": 0.0476,
      "velocity": 103,
      "chip": "ym2612"
    },
    {
      "channel": 1,
      "note": 49,
      "start": 14.4825,
      "duration": 0.0074,
      "velocity": 103,
      "chip": "ym2612"
    },
    {
      "channel": 3,
      "note": 49,
      "start": 14.4828,
      "duration": 0.0152,
      "velocity": 96,
      "chip": "ym2612"
    },
    {
      "channel": 1,
      "note": 52,
      "start": 14.4901,
      "duration": 0.0075,
      "velocity": 103,
      "chip": "ym2612"
    },
    {
      "channel": 0,
      "note": 75,
      "start": 14.4975,
      "duration": 0.0268,
      "velocity": 97,
      "chip": "ym2612"
    },
    {
      "channel": 1,
      "note": 49,
      "start": 14.4978,
      "duration": 0.0062,
      "velocity": 103,
      "chip": "ym2612"
    },
    {
      "channel": 4,
      "note": 75,
      "start": 14.5024,
      "duration": 0.0279,
      "velocity": 97,
      "chip": "ym2612"
    },
    {
      "channel": 1,
      "note": 54,
      "start": 14.5042,
      "duration": 0.0068,
      "velocity": 103,
      "chip": "ym2612"
    },
    {
      "channel": 1,
      "note": 49,
      "start": 14.5112,
      "duration": 0.0066,
      "velocity": 103,
      "chip": "ym2612"
    },
    {
      "channel": 1,
      "note": 56,
      "start": 14.518,
      "duration": 0.0067,
      "velocity": 103,
      "chip": "ym2612"
    },
    {
      "channel": 0,
      "note": 78,
      "start": 14.5246,
      "duration": 0.0702,
      "velocity": 97,
      "chip": "ym2612"
    },
    {
      "channel": 1,
      "note": 49,
      "start": 14.5249,
      "duration": 0.0076,
      "velocity": 103,
      "chip": "ym2612"
    },
    {
      "channel": 2,
      "note": 88,
      "start": 14.5251,
      "duration": 0.1972,
      "velocity": 97,
      "chip": "ym2612"
    },
    {
      "channel": 3,
      "note": 49,
      "start": 14.5255,
      "duration": 0.0551,
      "velocity": 96,
      "chip": "ym2612"
    },
    {
      "channel": 4,
      "note": 78,
      "start": 14.5306,
      "duration": 0.0694,
      "velocity": 97,
      "chip": "ym2612"
    },
    {
      "channel": 1,
      "note": 50,
      "start": 14.5327,
      "duration": 0.0476,
      "velocity": 103,
      "chip": "ym2612"
    },
    {
      "channel": 1,
      "note": 49,
      "start": 14.5805,
      "duration": 0.0069,
      "velocity": 103,
      "chip": "ym2612"
    },
    {
      "channel": 3,
      "note": 49,
      "start": 14.5808,
      "duration": 0.007,
      "velocity": 96,
      "chip": "ym2612"
    },
    {
      "channel": 1,
      "note": 52,
      "start": 14.5876,
      "duration": 0.0075,
      "velocity": 103,
      "chip": "ym2612"
    },
    {
      "channel": 3,
      "note": 49,
      "start": 14.588,
      "duration": 0.0144,
      "velocity": 96,
      "chip": "ym2612"
    },
    {
      "channel": 0,
      "note": 76,
      "start": 14.595,
      "duration": 0.0285,
      "velocity": 97,
      "chip": "ym2612"
    },
    {
      "channel": 1,
      "note": 49,
      "start": 14.5953,
      "duration": 0.0067,
      "velocity": 103,
      "chip": "ym2612"
    },
    {
      "channel": 4,
      "note": 76,
      "start": 14.6002,
      "duration": 0.0291,
      "velocity": 97,
      "chip": "ym2612"
    },
    {
      "channel": 1,
      "note": 54,
      "start": 14.6022,
      "duration": 0.0073,
      "velocity": 103,
      "chip": "ym2612"
    },
    {
      "channel": 3,
      "note": 49,
      "start": 14.6026,
      "duration": 0.0073,
      "velocity": 96,
      "chip": "ym2612"
    },
    {
      "channel": 1,
      "note": 49,
      "start": 14.6097,
      "duration": 0.0068,
      "velocity": 103,
      "chip": "ym2612"
    },
    {
      "channel": 3,
      "note": 49,
      "start": 14.6101,
      "duration": 0.0142,
      "velocity": 96,
      "chip": "ym2612"
    },
    {
      "channel": 1,
      "note": 56,
      "start": 14.6167,
      "duration": 0.0072,
      "velocity": 103,
      "chip": "ym2612"
    },
    {
      "channel": 0,
      "note": 81,
      "start": 14.6238,
      "duration": 0.0703,
      "velocity": 97,
      "chip": "ym2612"
    },
    {
      "channel": 1,
      "note": 49,
      "start": 14.6241,
      "duration": 0.0071,
      "velocity": 103,
      "chip": "ym2612"
    },
    {
      "channel": 3,
      "note": 49,
      "start": 14.6246,
      "duration": 0.0549,
      "velocity": 96,
      "chip": "ym2612"
    },
    {
      "channel": 4,
      "note": 81,
      "start": 14.6295,
      "duration": 0.0696,
      "velocity": 97,
      "chip": "ym2612"
    },
    {
      "channel": 1,
      "note": 50,
      "start": 14.6315,
      "duration": 0.0476,
      "velocity": 103,
      "chip": "ym2612"
    },
    {
      "channel": 1,
      "note": 49,
      "start": 14.6793,
      "duration": 0.0074,
      "velocity": 103,
      "chip": "ym2612"
    },
    {
      "channel": 3,
      "note": 49,
      "start": 14.6796,
      "duration": 0.0152,
      "velocity": 96,
      "chip": "ym2612"
    },
    {
      "channel": 1,
      "note": 52,
      "start": 14.6869,
      "duration": 0.0075,
      "velocity": 103,
      "chip": "ym2612"
    },
    {
      "channel": 0,
      "note": 80,
      "start": 14.6943,
      "duration": 0.0268,
      "velocity": 97,
      "chip": "ym2612"
    },
    {
      "channel": 1,
      "note": 49,
      "start": 14.6946,
      "duration": 0.0062,
      "velocity": 103,
      "chip": "ym2612"
    },
    {
      "channel": 4,
      "note": 80,
      "start": 14.6992,
      "duration": 0.028,
      "velocity": 97,
      "chip": "ym2612"
    },
    {
      "channel": 1,
      "note": 54,
      "start": 14.701,
      "duration": 0.0068,
      "velocity": 103,
      "chip": "ym2612"
    },
    {
      "channel": 1,
      "note": 49,
      "start": 14.708,
      "duration": 0.0066,
      "velocity": 103,
      "chip": "ym2612"
    },
    {
      "channel": 1,
      "note": 56,
      "start": 14.7148,
      "duration": 0.0067,
      "velocity": 103,
      "chip": "ym2612"
    },
    {
      "channel": 0,
      "note": 80,
      "start": 14.7213,
      "duration": 0.17,
      "velocity": 97,
      "chip": "ym2612"
    },
    {
      "channel": 1,
      "note": 50,
      "start": 14.7216,
      "duration": 0.0077,
      "velocity": 103,
      "chip": "ym2612"
    },
    {
      "channel": 2,
      "note": 76,
      "start": 14.7225,
      "duration": 0.1693,
      "velocity": 97,
      "chip": "ym2612"
    },
    {
      "channel": 3,
      "note": 50,
      "start": 14.7228,
      "duration": 0.0541,
      "velocity": 96,
      "chip": "ym2612"
    },
    {
      "channel": 4,
      "note": 80,
      "start": 14.7274,
      "duration": 0.169,
      "velocity": 97,
      "chip": "ym2612"
    },
    {
      "channel": 1,
      "note": 52,
      "start": 14.7295,
      "duration": 0.0471,
      "velocity": 103,
      "chip": "ym2612"
    },
    {
      "channel": 1,
      "note": 50,
      "start": 14.7768,
      "duration": 0.0072,
      "velocity": 103,
      "chip": "ym2612"
    },
    {
      "channel": 3,
      "note": 50,
      "start": 14.7771,
      "duration": 0.0073,
      "velocity": 96,
      "chip": "ym2612"
    },
    {
      "channel": 1,
      "note": 54,
      "start": 14.7843,
      "duration": 0.0075,
      "velocity": 103,
      "chip": "ym2612"
    },
    {
      "channel": 3,
      "note": 50,
      "start": 14.7846,
      "duration": 0.0148,
      "velocity": 96,
      "chip": "ym2612"
    },
    {
      "channel": 1,
      "note": 50,
      "start": 14.792,
      "duration": 0.007,
      "velocity": 103,
      "chip": "ym2612"
    },
    {
      "channel": 1,
      "note": 56,
      "start": 14.7992,
      "duration": 0.0072,
      "velocity": 103,
      "chip": "ym2612"
    },
    {
      "channel": 3,
      "note": 50,
      "start": 14.7995,
      "duration": 0.0072,
      "velocity": 96,
      "chip": "ym2612"
    },
    {
      "channel": 1,
      "note": 50,
      "start": 14.8066,
      "duration": 0.0068,
      "velocity": 103,
      "chip": "ym2612"
    },
    {
      "channel": 3,
      "note": 50,
      "start": 14.8069,
      "duration": 0.0142,
      "velocity": 96,
      "chip": "ym2612"
    },
    {
      "channel": 1,
      "note": 57,
      "start": 14.8137,
      "duration": 0.0071,
      "velocity": 103,
      "chip": "ym2612"
    },
    {
      "channel": 1,
      "note": 50,
      "start": 14.821,
      "duration": 0.0071,
      "velocity": 103,
      "chip": "ym2612"
    },
    {
      "channel": 3,
      "note": 50,
      "start": 14.8213,
      "duration": 0.0553,
      "velocity": 96,
      "chip": "ym2612"
    },
    {
      "channel": 1,
      "note": 52,
      "start": 14.8282,
      "duration": 0.0481,
      "velocity": 103,
      "chip": "ym2612"
    },
    {
      "channel": 1,
      "note": 50,
      "start": 14.8765,
      "duration": 0.0074,
      "velocity": 103,
      "chip": "ym2612"
    },
    {
      "channel": 3,
      "note": 50,
      "start": 14.8767,
      "duration": 0.0153,
      "velocity": 96,
      "chip": "ym2612"
    },
    {
      "channel": 1,
      "note": 54,
      "start": 14.8841,
      "duration": 0.0076,
      "velocity": 103,
      "chip": "ym2612"
    },
    {
      "channel": 0,
      "note": 81,
      "start": 14.8915,
      "duration": 0.0269,
      "velocity": 97,
      "chip": "ym2612"
    },
    {
      "channel": 1,
      "note": 50,
      "start": 14.8918,
      "duration": 0.0063,
      "velocity": 103,
      "chip": "ym2612"
    },
    {
      "channel": 2,
      "note": 78,
      "start": 14.892,
      "duration": 0.027,
      "velocity": 97,
      "chip": "ym2612"
    },
    {
      "channel": 4,
      "note": 81,
      "start": 14.8966,
      "duration": 0.0275,
      "velocity": 97,
      "chip": "ym2612"
    },
    {
      "channel": 1,
      "note": 56,
      "start": 14.8982,
      "duration": 0.007,
      "velocity": 103,
      "chip": "ym2612"
    },
    {
      "channel": 1,
      "note": 50,
      "start": 14.9054,
      "duration": 0.0064,
      "velocity": 103,
      "chip": "ym2612"
    },
    {
      "channel": 1,
      "note": 57,
      "start": 14.9121,
      "duration": 0.0066,
      "velocity": 103,
      "chip": "ym2612"
    },
    {
      "channel": 0,
      "note": 78,
      "start": 14.9186,
      "duration": 0.1962,
      "velocity": 97,
      "chip": "ym2612"
    },
    {
      "channel": 1,
      "note": 50,
      "start": 14.9189,
      "duration": 0.0074,
      "velocity": 103,
      "chip": "ym2612"
    },
    {
      "channel": 2,
      "note": 74,
      "start": 14.9192,
      "duration": 0.1688,
      "velocity": 97,
      "chip": "ym2612"
    },
    {
      "channel": 3,
      "note": 50,
      "start": 14.9194,
      "duration": 0.0552,
      "velocity": 96,
      "chip": "ym2612"
    },
    {
      "channel": 4,
      "note": 78,
      "start": 14.9244,
      "duration": 0.1961,
      "velocity": 97,
      "chip": "ym2612"
    },
    {
      "channel": 1,
      "note": 52,
      "start": 14.9266,
      "duration": 0.0478,
      "velocity": 103,
      "chip": "ym2612"
    },
    {
      "channel": 1,
      "note": 50,
      "start": 14.9745,
      "duration": 0.0072,
      "velocity": 103,
      "chip": "ym2612"
    },
    {
      "channel": 3,
      "note": 50,
      "start": 14.9747,
      "duration": 0.0073,
      "velocity": 96,
      "chip": "ym2612"
    },
    {
      "channel": 1,
      "note": 54,
      "start": 14.9819,
      "duration": 0.0073,
      "velocity": 103,
      "chip": "ym2612"
    },
    {
      "channel": 3,
      "note": 50,
      "start": 14.9823,
      "duration": 0.0142,
      "velocity": 96,
      "chip": "ym2612"
    },
    {
      "channel": 1,
      "note": 50,
      "start": 14.9893,
      "duration": 0.0068,
      "velocity": 103,
      "chip": "ym2612"
    },
    {
      "channel": 1,
      "note": 56,
      "start": 14.9963,
      "duration": 0.007,
      "velocity": 103,
      "chip": "ym2612"
    },
    {
      "channel": 3,
      "note": 50,
      "start": 14.9967,
      "duration": 0.007,
      "velocity": 96,
      "chip": "ym2612"
    },
    {
      "channel": 1,
      "note": 50,
      "start": 15.0034,
      "duration": 0.0074,
      "velocity": 103,
      "chip": "ym2612"
    },
    {
      "channel": 3,
      "note": 50,
      "start": 15.0038,
      "duration": 0.0152,
      "velocity": 96,
      "chip": "ym2612"
    },
    {
      "channel": 1,
      "note": 57,
      "start": 15.0111,
      "duration": 0.0075,
      "velocity": 103,
      "chip": "ym2612"
    },
    {
      "channel": 1,
      "note": 50,
      "start": 15.0188,
      "duration": 0.0068,
      "velocity": 103,
      "chip": "ym2612"
    },
    {
      "channel": 3,
      "note": 50,
      "start": 15.0192,
      "duration": 0.0547,
      "velocity": 96,
      "chip": "ym2612"
    },
    {
      "channel": 1,
      "note": 52,
      "start": 15.0258,
      "duration": 0.0477,
      "velocity": 103,
      "chip": "ym2612"
    },
    {
      "channel": 1,
      "note": 50,
      "start": 15.0737,
      "duration": 0.0069,
      "velocity": 103,
      "chip": "ym2612"
    },
    {
      "channel": 3,
      "note": 50,
      "start": 15.074,
      "duration": 0.0142,
      "velocity": 96,
      "chip": "ym2612"
    },
    {
      "channel": 1,
      "note": 54,
      "start": 15.0807,
      "duration": 0.0069,
      "velocity": 103,
      "chip": "ym2612"
    },
    {
      "channel": 1,
      "note": 50,
      "start": 15.0879,
      "duration": 0.0064,
      "velocity": 103,
      "chip": "ym2612"
    },
    {
      "channel": 2,
      "note": 69,
      "start": 15.0882,
      "duration": 0.027,
      "velocity": 97,
      "chip": "ym2612"
    },
    {
      "channel": 1,
      "note": 56,
      "start": 15.0944,
      "duration": 0.007,
      "velocity": 103,
      "chip": "ym2612"
    },
    {
      "channel": 1,
      "note": 50,
      "start": 15.1017,
      "duration": 0.0064,
      "velocity": 103,
      "chip": "ym2612"
    },
    {
      "channel": 1,
      "note": 57,
      "start": 15.1083,
      "duration": 0.0066,
      "velocity": 103,
      "chip": "ym2612"
    },
    {
      "channel": 0,
      "note": 78,
      "start": 15.1148,
      "duration": 0.07,
      "velocity": 97,
      "chip": "ym2612"
    },
    {
      "channel": 1,
      "note": 50,
      "start": 15.1151,
      "duration": 0.0073,
      "velocity": 103,
      "chip": "ym2612"
    },
    {
      "channel": 2,
      "note": 74,
      "start": 15.1154,
      "duration": 0.07,
      "velocity": 97,
      "chip": "ym2612"
    },
    {
      "channel": 3,
      "note": 50,
      "start": 15.1156,
      "duration": 0.0553,
      "velocity": 96,
      "chip": "ym2612"
    },
    {
      "channel": 4,
      "note": 78,
      "start": 15.1205,
      "duration": 0.0698,
      "velocity": 97,
      "chip": "ym2612"
    },
    {
      "channel": 1,
      "note": 52,
      "start": 15.1226,
      "duration": 0.048,
      "velocity": 103,
      "chip": "ym2612"
    },
    {
      "channel": 1,
      "note": 50,
      "start": 15.1707,
      "duration": 0.0067,
      "velocity": 103,
      "chip": "ym2612"
    },
    {
      "channel": 3,
      "note": 50,
      "start": 15.171,
      "duration": 0.0067,
      "velocity": 96,
      "chip": "ym2612"
    },
    {
      "channel": 1,
      "note": 54,
      "start": 15.1776,
      "duration": 0.0075,
      "velocity": 103,
      "chip": "ym2612"
    },
    {
      "channel": 3,
      "note": 50,
      "start": 15.1779,
      "duration": 0.0147,
      "velocity": 96,
      "chip": "ym2612"
    },
    {
      "channel": 0,
      "note": 81,
      "start": 15.1851,
      "duration": 0.0289,
      "velocity": 97,
      "chip": "ym2612"
    },
    {
      "channel": 1,
      "note": 50,
      "start": 15.1853,
      "duration": 0.0069,
      "velocity": 103,
      "chip": "ym2612"
    },
    {
      "channel": 2,
      "note": 78,
      "start": 15.1855,
      "duration": 0.0291,
      "velocity": 97,
      "chip": "ym2612"
    },
    {
      "channel": 4,
      "note": 81,
      "start": 15.1904,
      "duration": 0.0294,
      "velocity": 97,
      "chip": "ym2612"
    },
    {
      "channel": 1,
      "note": 56,
      "start": 15.1924,
      "duration": 0.0069,
      "velocity": 103,
      "chip": "ym2612"
    },
    {
      "channel": 3,
      "note": 50,
      "start": 15.1928,
      "duration": 0.0068,
      "velocity": 96,
      "chip": "ym2612"
    },
    {
      "channel": 1,
      "note": 50,
      "start": 15.1994,
      "duration": 0.0075,
      "velocity": 103,
      "chip": "ym2612"
    },
    {
      "channel": 3,
      "note": 50,
      "start": 15.1998,
      "duration": 0.015,
      "velocity": 96,
      "chip": "ym2612"
    },
    {
      "channel": 1,
      "note": 57,
      "start": 15.2071,
      "duration": 0.0072,
      "velocity": 103,
      "chip": "ym2612"
    },
    {
      "channel": 0,
      "note": 80,
      "start": 15.2142,
      "duration": 0.07,
      "velocity": 97,
      "chip": "ym2612"
    },
    {
      "channel": 1,
      "note": 50,
      "start": 15.2145,
      "duration": 0.0074,
      "velocity": 103,
      "chip": "ym2612"
    },
    {
      "channel": 2,
      "note": 76,
      "start": 15.2147,
      "duration": 0.07,
      "velocity": 97,
      "chip": "ym2612"
    },
    {
      "channel": 3,
      "note": 50,
      "start": 15.215,
      "duration": 0.0552,
      "velocity": 96,
      "chip": "ym2612"
    },
    {
      "channel": 4,
      "note": 80,
      "start": 15.22,
      "duration": 0.0689,
      "velocity": 97,
      "chip": "ym2612"
    },
    {
      "channel": 1,
      "note": 52,
      "start": 15.2222,
      "duration": 0.0477,
      "velocity": 103,
      "chip": "ym2612"
    },
    {
      "channel": 1,
      "note": 50,
      "start": 15.27,
      "duration": 0.0069,
      "velocity": 103,
      "chip": "ym2612"
    },
    {
      "channel": 3,
      "note": 50,
      "start": 15.2703,
      "duration": 0.0146,
      "velocity": 96,
      "chip": "ym2612"
    },
    {
      "channel": 1,
      "note": 54,
      "start": 15.2772,
      "duration": 0.0072,
      "velocity": 103,
      "chip": "ym2612"
    },
    {
      "channel": 0,
      "note": 78,
      "start": 15.2844,
      "duration": 0.027,
      "velocity": 97,
      "chip": "ym2612"
    },
    {
      "channel": 1,
      "note": 50,
      "start": 15.2847,
      "duration": 0.0061,
      "velocity": 103,
      "chip": "ym2612"
    },
    {
      "channel": 2,
      "note": 74,
      "start": 15.2849,
      "duration": 0.0271,
      "velocity": 97,
      "chip": "ym2612"
    },
    {
      "channel": 4,
      "note": 78,
      "start": 15.2891,
      "duration": 0.0283,
      "velocity": 97,
      "chip": "ym2612"
    },
    {
      "channel": 1,
      "note": 56,
      "start": 15.291,
      "duration": 0.0068,
      "velocity": 103,
      "chip": "ym2612"
    },
    {
      "channel": 1,
      "note": 50,
      "start": 15.298,
      "duration": 0.0063,
      "velocity": 103,
      "chip": "ym2612"
    },
    {
      "channel": 1,
      "note": 57,
      "start": 15.3045,
      "duration": 0.0072,
      "velocity": 103,
      "chip": "ym2612"
    },
    {
      "channel": 0,
      "note": 83,
      "start": 15.3116,
      "duration": 0.0705,
      "velocity": 97,
      "chip": "ym2612"
    },
    {
      "channel": 1,
      "note": 50,
      "start": 15.3119,
      "duration": 0.0076,
      "velocity": 103,
      "chip": "ym2612"
    },
    {
      "channel": 2,
      "note": 80,
      "start": 15.3122,
      "duration": 0.0706,
      "velocity": 97,
      "chip": "ym2612"
    },
    {
      "channel": 3,
      "note": 50,
      "start": 15.3126,
      "duration": 0.0552,
      "velocity": 96,
      "chip": "ym2612"
    },
    {
      "channel": 4,
      "note": 83,
      "start": 15.3176,
      "duration": 0.0703,
      "velocity": 97,
      "chip": "ym2612"
    },
    {
      "channel": 1,
      "note": 52,
      "start": 15.3197,
      "duration": 0.0477,
      "velocity": 103,
      "chip": "ym2612"
    },
    {
      "channel": 1,
      "note": 50,
      "start": 15.3676,
      "duration": 0.0072,
      "velocity": 103,
      "chip": "ym2612"
    },
    {
      "channel": 3,
      "note": 50,
      "start": 15.3679,
      "duration": 0.0073,
      "velocity": 96,
      "chip": "ym2612"
    },
    {
      "channel": 1,
      "note": 54,
      "start": 15.375,
      "duration": 0.0075,
      "velocity": 103,
      "chip": "ym2612"
    },
    {
      "channel": 3,
      "note": 50,
      "start": 15.3754,
      "duration": 0.0147,
      "velocity": 96,
      "chip": "ym2612"
    },
    {
      "channel": 0,
      "note": 81,
      "start": 15.3824,
      "duration": 0.0291,
      "velocity": 97,
      "chip": "ym2612"
    },
    {
      "channel": 1,
      "note": 50,
      "start": 15.3827,
      "duration": 0.0071,
      "velocity": 103,
      "chip": "ym2612"
    },
    {
      "channel": 2,
      "note": 78,
      "start": 15.3829,
      "duration": 0.0292,
      "velocity": 97,
      "chip": "ym2612"
    },
    {
      "channel": 4,
      "note": 81,
      "start": 15.388,
      "duration": 0.0293,
      "velocity": 97,
      "chip": "ym2612"
    },
    {
      "channel": 1,
      "note": 56,
      "start": 15.3899,
      "duration": 0.0069,
      "velocity": 103,
      "chip": "ym2612"
    },
    {
      "channel": 3,
      "note": 50,
      "start": 15.3903,
      "duration": 0.0068,
      "velocity": 96,
      "chip": "ym2612"
    },
    {
      "channel": 1,
      "note": 50,
      "start": 15.3969,
      "duration": 0.0075,
      "velocity": 103,
      "chip": "ym2612"
    },
    {
      "channel": 3,
      "note": 50,
      "start": 15.3973,
      "duration": 0.015,
      "velocity": 96,
      "chip": "ym2612"
    },
    {
      "channel": 1,
      "note": 57,
      "start": 15.4046,
      "duration": 0.0072,
      "velocity": 103,
      "chip": "ym2612"
    },
    {
      "channel": 0,
      "note": 80,
      "start": 15.4117,
      "duration": 0.07,
      "velocity": 97,
      "chip": "ym2612"
    },
    {
      "channel": 1,
      "note": 50,
      "start": 15.412,
      "duration": 0.0074,
      "velocity": 103,
      "chip": "ym2612"
    },
    {
      "channel": 2,
      "note": 76,
      "start": 15.4122,
      "duration": 0.07,
      "velocity": 97,
      "chip": "ym2612"
    },
    {
      "channel": 3,
      "note": 50,
      "start": 15.4125,
      "duration": 0.0552,
      "velocity": 96,
      "chip": "ym2612"
    },
    {
      "channel": 4,
      "note": 80,
      "start": 15.4175,
      "duration": 0.0689,
      "velocity": 97,
      "chip": "ym2612"
    },
    {
      "channel": 1,
      "note": 52,
      "start": 15.4197,
      "duration": 0.0477,
      "velocity": 103,
      "chip": "ym2612"
    },
    {
      "channel": 1,
      "note": 50,
      "start": 15.4676,
      "duration": 0.0069,
      "velocity": 103,
      "chip": "ym2612"
    },
    {
      "channel": 3,
      "note": 50,
      "start": 15.4678,
      "duration": 0.0146,
      "velocity": 96,
      "chip": "ym2612"
    },
    {
      "channel": 1,
      "note": 54,
      "start": 15.4747,
      "duration": 0.0072,
      "velocity": 103,
      "chip": "ym2612"
    },
    {
      "channel": 0,
      "note": 81,
      "start": 15.4819,
      "duration": 0.027,
      "velocity": 97,
      "chip": "ym2612"
    },
    {
      "channel": 1,
      "note": 50,
      "start": 15.4822,
      "duration": 0.0061,
      "velocity": 103,
      "chip": "ym2612"
    },
    {
      "channel": 2,
      "note": 78,
      "start": 15.4824,
      "duration": 0.0272,
      "velocity": 97,
      "chip": "ym2612"
    },
    {
      "channel": 4,
      "note": 81,
      "start": 15.4866,
      "duration": 0.028,
      "velocity": 97,
      "chip": "ym2612"
    },
    {
      "channel": 1,
      "note": 56,
      "start": 15.4885,
      "duration": 0.0068,
      "velocity": 103,
      "chip": "ym2612"
    },
    {
      "channel": 1,
      "note": 50,
      "start": 15.4955,
      "duration": 0.0063,
      "velocity": 103,
      "chip": "ym2612"
    },
    {
      "channel": 1,
      "note": 57,
      "start": 15.502,
      "duration": 0.0073,
      "velocity": 103,
      "chip": "ym2612"
    },
    {
      "channel": 0,
      "note": 80,
      "start": 15.5092,
      "duration": 0.1705,
      "velocity": 97,
      "chip": "ym2612"
    },
    {
      "channel": 1,
      "note": 50,
      "start": 15.5095,
      "duration": 0.0073,
      "velocity": 103,
      "chip": "ym2612"
    },
    {
      "channel": 2,
      "note": 76,
      "start": 15.5098,
      "duration": 0.1704,
      "velocity": 97,
      "chip": "ym2612"
    },
    {
      "channel": 3,
      "note": 50,
      "start": 15.5099,
      "duration": 0.0551,
      "velocity": 96,
      "chip": "ym2612"
    },
    {
      "channel": 4,
      "note": 80,
      "start": 15.5148,
      "duration": 0.1696,
      "velocity": 97,
      "chip": "ym2612"
    },
    {
      "channel": 1,
      "note": 52,
      "start": 15.517,
      "duration": 0.0478,
      "velocity": 103,
      "chip": "ym2612"
    },
    {
      "channel": 1,
      "note": 50,
      "start": 15.5649,
      "duration": 0.0072,
      "velocity": 103,
      "chip": "ym2612"
    },
    {
      "channel": 3,
      "note": 50,
      "start": 15.5652,
      "duration": 0.0073,
      "velocity": 96,
      "chip": "ym2612"
    },
    {
      "channel": 1,
      "note": 54,
      "start": 15.5723,
      "duration": 0.0073,
      "velocity": 103,
      "chip": "ym2612"
    },
    {
      "channel": 3,
      "note": 50,
      "start": 15.5727,
      "duration": 0.0145,
      "velocity": 96,
      "chip": "ym2612"
    },
    {
      "channel": 1,
      "note": 50,
      "start": 15.5798,
      "duration": 0.0071,
      "velocity": 103,
      "chip": "ym2612"
    },
    {
      "channel": 1,
      "note": 56,
      "start": 15.5871,
      "duration": 0.0074,
      "velocity": 103,
      "chip": "ym2612"
    },
    {
      "channel": 3,
      "note": 50,
      "start": 15.5874,
      "duration": 0.0075,
      "velocity": 96,
      "chip": "ym2612"
    },
    {
      "channel": 1,
      "note": 50,
      "start": 15.5947,
      "duration": 0.0075,
      "velocity": 103,
      "chip": "ym2612"
    },
    {
      "channel": 3,
      "note": 50,
      "start": 15.5951,
      "duration": 0.0149,
      "velocity": 96,
      "chip": "ym2612"
    },
    {
      "channel": 1,
      "note": 57,
      "start": 15.6025,
      "duration": 0.0072,
      "velocity": 103,
      "chip": "ym2612"
    },
    {
      "channel": 1,
      "note": 50,
      "start": 15.6099,
      "duration": 0.0071,
      "velocity": 103,
      "chip": "ym2612"
    },
    {
      "channel": 3,
      "note": 50,
      "start": 15.6102,
      "duration": 0.0552,
      "velocity": 96,
      "chip": "ym2612"
    },
    {
      "channel": 1,
      "note": 52,
      "start": 15.6171,
      "duration": 0.0479,
      "velocity": 103,
      "chip": "ym2612"
    },
    {
      "channel": 1,
      "note": 50,
      "start": 15.6652,
      "duration": 0.0074,
      "velocity": 103,
      "chip": "ym2612"
    },
    {
      "channel": 3,
      "note": 50,
      "start": 15.6655,
      "duration": 0.015,
      "velocity": 96,
      "chip": "ym2612"
    },
    {
      "channel": 1,
      "note": 54,
      "start": 15.6728,
      "duration": 0.0071,
      "velocity": 103,
      "chip": "ym2612"
    },
    {
      "channel": 0,
      "note": 81,
      "start": 15.6799,
      "duration": 0.0271,
      "velocity": 97,
      "chip": "ym2612"
    },
    {
      "channel": 1,
      "note": 50,
      "start": 15.6801,
      "duration": 0.0062,
      "velocity": 103,
      "chip": "ym2612"
    },
    {
      "channel": 2,
      "note": 69,
      "start": 15.6805,
      "duration": 0.0271,
      "velocity": 97,
      "chip": "ym2612"
    },
    {
      "channel": 4,
      "note": 81,
      "start": 15.6846,
      "duration": 0.0282,
      "velocity": 97,
      "chip": "ym2612"
    },
    {
      "channel": 1,
      "note": 56,
      "start": 15.6865,
      "duration": 0.0069,
      "velocity": 103,
      "chip": "ym2612"
    },
    {
      "channel": 1,
      "note": 50,
      "start": 15.6937,
      "duration": 0.0063,
      "velocity": 103,
      "chip": "ym2612"
    },
    {
      "channel": 1,
      "note": 57,
      "start": 15.7001,
      "duration": 0.0072,
      "velocity": 103,
      "chip": "ym2612"
    },
    {
      "channel": 0,
      "note": 78,
      "start": 15.7073,
      "duration": 0.1976,
      "velocity": 97,
      "chip": "ym2612"
    },
    {
      "channel": 1,
      "note": 50,
      "start": 15.7075,
      "duration": 0.0074,
      "velocity": 103,
      "chip": "ym2612"
    },
    {
      "channel": 2,
      "note": 74,
      "start": 15.7078,
      "duration": 0.1977,
      "velocity": 97,
      "chip": "ym2612"
    },
    {
      "channel": 3,
      "note": 50,
      "start": 15.7081,
      "duration": 0.055,
      "velocity": 96,
      "chip": "ym2612"
    },
    {
      "channel": 4,
      "note": 78,
      "start": 15.7131,
      "duration": 0.1974,
      "velocity": 97,
      "chip": "ym2612"
    },
    {
      "channel": 1,
      "note": 52,
      "start": 15.7151,
      "duration": 0.0477,
      "velocity": 103,
      "chip": "ym2612"
    },
    {
      "channel": 1,
      "note": 50,
      "start": 15.7629,
      "duration": 0.0072,
      "velocity": 103,
      "chip": "ym2612"
    },
    {
      "channel": 3,
      "note": 50,
      "start": 15.7632,
      "duration": 0.0073,
      "velocity": 96,
      "chip": "ym2612"
    },
    {
      "channel": 1,
      "note": 54,
      "start": 15.7703,
      "duration": 0.0073,
      "velocity": 103,
      "chip": "ym2612"
    },
    {
      "channel": 3,
      "note": 50,
      "start": 15.7707,
      "duration": 0.0145,
      "velocity": 96,
      "chip": "ym2612"
    },
    {
      "channel": 1,
      "note": 50,
      "start": 15.7778,
      "duration": 0.0071,
      "velocity": 103,
      "chip": "ym2612"
    },
    {
      "channel": 1,
      "note": 56,
      "start": 15.7851,
      "duration": 0.0075,
      "velocity": 103,
      "chip": "ym2612"
    },
    {
      "channel": 3,
      "note": 50,
      "start": 15.7854,
      "duration": 0.0076,
      "velocity": 96,
      "chip": "ym2612"
    },
    {
      "channel": 1,
      "note": 50,
      "start": 15.7928,
      "duration": 0.0074,
      "velocity": 103,
      "chip": "ym2612"
    },
    {
      "channel": 3,
      "note": 50,
      "start": 15.7932,
      "duration": 0.0149,
      "velocity": 96,
      "chip": "ym2612"
    },
    {
      "channel": 1,
      "note": 57,
      "start": 15.8003,
      "duration": 0.0075,
      "velocity": 103,
      "chip": "ym2612"
    },
    {
      "channel": 1,
      "note": 50,
      "start": 15.808,
      "duration": 0.0069,
      "velocity": 103,
      "chip": "ym2612"
    },
    {
      "channel": 3,
      "note": 50,
      "start": 15.8084,
      "duration": 0.055,
      "velocity": 96,
      "chip": "ym2612"
    },
    {
      "channel": 1,
      "note": 52,
      "start": 15.8151,
      "duration": 0.048,
      "velocity": 103,
      "chip": "ym2612"
    },
    {
      "channel": 1,
      "note": 50,
      "start": 15.8632,
      "duration": 0.0069,
      "velocity": 103,
      "chip": "ym2612"
    },
    {
      "channel": 3,
      "note": 50,
      "start": 15.8636,
      "duration": 0.0144,
      "velocity": 96,
      "chip": "ym2612"
    },
    {
      "channel": 1,
      "note": 54,
      "start": 15.8703,
      "duration": 0.0073,
      "velocity": 103,
      "chip": "ym2612"
    },
    {
      "channel": 1,
      "note": 50,
      "start": 15.8778,
      "duration": 0.0061,
      "velocity": 103,
      "chip": "ym2612"
    },
    {
      "channel": 1,
      "note": 56,
      "start": 15.884,
      "duration": 0.007,
      "velocity": 103,
      "chip": "ym2612"
    },
    {
      "channel": 1,
      "note": 50,
      "start": 15.8913,
      "duration": 0.0068,
      "velocity": 103,
      "chip": "ym2612"
    },
    {
      "channel": 1,
      "note": 57,
      "start": 15.8982,
      "duration": 0.0068,
      "velocity": 103,
      "chip": "ym2612"
    },
    {
      "channel": 0,
      "note": 78,
      "start": 15.9049,
      "duration": 0.0693,
      "velocity": 97,
      "chip": "ym2612"
    },
    {
      "channel": 1,
      "note": 50,
      "start": 15.9053,
      "duration": 0.0071,
      "velocity": 103,
      "chip": "ym2612"
    },
    {
      "channel": 2,
      "note": 74,
      "start": 15.9055,
      "duration": 0.0693,
      "velocity": 97,
      "chip": "ym2612"
    },
    {
      "channel": 3,
      "note": 50,
      "start": 15.9057,
      "duration": 0.055,
      "velocity": 96,
      "chip": "ym2612"
    },
    {
      "channel": 4,
      "note": 78,
      "start": 15.9105,
      "duration": 0.0691,
      "velocity": 97,
      "chip": "ym2612"
    },
    {
      "channel": 1,
      "note": 52,
      "start": 15.9126,
      "duration": 0.0477,
      "velocity": 103,
      "chip": "ym2612"
    },
    {
      "channel": 1,
      "note": 50,
      "start": 15.9605,
      "duration": 0.0064,
      "velocity": 103,
      "chip": "ym2612"
    },
    {
      "channel": 3,
      "note": 50,
      "start": 15.9608,
      "duration": 0.0064,
      "velocity": 96,
      "chip": "ym2612"
    },
    {
      "channel": 1,
      "note": 54,
      "start": 15.9671,
      "duration": 0.0074,
      "velocity": 103,
      "chip": "ym2612"
    },
    {
      "channel": 3,
      "note": 50,
      "start": 15.9674,
      "duration": 0.0145,
      "velocity": 96,
      "chip": "ym2612"
    },
    {
      "channel": 0,
      "note": 81,
      "start": 15.9745,
      "duration": 0.029,
      "velocity": 97,
      "chip": "ym2612"
    },
    {
      "channel": 1,
      "note": 50,
      "start": 15.9747,
      "duration": 0.0069,
      "velocity": 103,
      "chip": "ym2612"
    },
    {
      "channel": 2,
      "note": 78,
      "start": 15.9749,
      "duration": 0.0291,
      "velocity": 97,
      "chip": "ym2612"
    },
    {
      "channel": 4,
      "note": 81,
      "start": 15.9797,
      "duration": 0.0294,
      "velocity": 97,
      "chip": "ym2612"
    },
    {
      "channel": 1,
      "note": 56,
      "start": 15.9817,
      "duration": 0.0069,
      "velocity": 103,
      "chip": "ym2612"
    },
    {
      "channel": 3,
      "note": 50,
      "start": 15.9821,
      "duration": 0.0068,
      "velocity": 96,
      "chip": "ym2612"
    },
    {
      "channel": 1,
      "note": 50,
      "start": 15.9887,
      "duration": 0.0075,
      "velocity": 103,
      "chip": "ym2612"
    },
    {
      "channel": 3,
      "note": 50,
      "start": 15.989,
      "duration": 0.0152,
      "velocity": 96,
      "chip": "ym2612"
    },
    {
      "channel": 1,
      "note": 57,
      "start": 15.9963,
      "duration": 0.0074,
      "velocity": 103,
      "chip": "ym2612"
    },
    {
      "channel": 0,
      "note": 80,
      "start": 16.0037,
      "duration": 0.0698,
      "velocity": 97,
      "chip": "ym2612"
    },
    {
      "channel": 1,
      "note": 50,
      "start": 16.0039,
      "duration": 0.0072,
      "velocity": 103,
      "chip": "ym2612"
    },
    {
      "channel": 2,
      "note": 76,
      "start": 16.0042,
      "duration": 0.0698,
      "velocity": 97,
      "chip": "ym2612"
    },
    {
      "channel": 3,
      "note": 50,
      "start": 16.0044,
      "duration": 0.055,
      "velocity": 96,
      "chip": "ym2612"
    },
    {
      "channel": 4,
      "note": 80,
      "start": 16.0093,
      "duration": 0.0689,
      "velocity": 97,
      "chip": "ym2612"
    },
    {
      "channel": 1,
      "note": 52,
      "start": 16.0113,
      "duration": 0.0478,
      "velocity": 103,
      "chip": "ym2612"
    },
    {
      "channel": 1,
      "note": 50,
      "start": 16.0593,
      "duration": 0.0069,
      "velocity": 103,
      "chip": "ym2612"
    },
    {
      "channel": 3,
      "note": 50,
      "start": 16.0596,
      "duration": 0.0146,
      "velocity": 96,
      "chip": "ym2612"
    },
    {
      "channel": 1,
      "note": 54,
      "start": 16.0665,
      "duration": 0.0072,
      "velocity": 103,
      "chip": "ym2612"
    },
    {
      "channel": 0,
      "note": 78,
      "start": 16.0737,
      "duration": 0.027,
      "velocity": 97,
      "chip": "ym2612"
    },
    {
      "channel": 1,
      "note": 50,
      "start": 16.0739,
      "duration": 0.0061,
      "velocity": 103,
      "chip": "ym2612"
    },
    {
      "channel": 2,
      "note": 74,
      "start": 16.0741,
      "duration": 0.0271,
      "velocity": 97,
      "chip": "ym2612"
    },
    {
      "channel": 4,
      "note": 78,
      "start": 16.0783,
      "duration": 0.0283,
      "velocity": 97,
      "chip": "ym2612"
    },
    {
      "channel": 1,
      "note": 56,
      "start": 16.0802,
      "duration": 0.0068,
      "velocity": 103,
      "chip": "ym2612"
    },
    {
      "channel": 1,
      "note": 50,
      "start": 16.0873,
      "duration": 0.0063,
      "velocity": 103,
      "chip": "ym2612"
    },
    {
      "channel": 1,
      "note": 57,
      "start": 16.0938,
      "duration": 0.0072,
      "velocity": 103,
      "chip": "ym2612"
    },
    {
      "channel": 0,
      "note": 85,
      "start": 16.1009,
      "duration": 0.0705,
      "velocity": 97,
      "chip": "ym2612"
    },
    {
      "channel": 1,
      "note": 50,
      "start": 16.1011,
      "duration": 0.0076,
      "velocity": 103,
      "chip": "ym2612"
    },
    {
      "channel": 2,
      "note": 80,
      "start": 16.1014,
      "duration": 0.0706,
      "velocity": 97,
      "chip": "ym2612"
    },
    {
      "channel": 3,
      "note": 50,
      "start": 16.1018,
      "duration": 0.0552,
      "velocity": 96,
      "chip": "ym2612"
    },
    {
      "channel": 4,
      "note": 85,
      "start": 16.1068,
      "duration": 0.0704,
      "velocity": 97,
      "chip": "ym2612"
    },
    {
      "channel": 1,
      "note": 52,
      "start": 16.109,
      "duration": 0.0477,
      "velocity": 103,
      "chip": "ym2612"
    },
    {
      "channel": 1,
      "note": 50,
      "start": 16.1568,
      "duration": 0.0072,
      "velocity": 103,
      "chip": "ym2612"
    },
    {
      "channel": 3,
      "note": 50,
      "start": 16.1571,
      "duration": 0.0073,
      "velocity": 96,
      "chip": "ym2612"
    },
    {
      "channel": 1,
      "note": 54,
      "start": 16.1642,
      "duration": 0.0075,
      "velocity": 103,
      "chip": "ym2612"
    },
    {
      "channel": 3,
      "note": 50,
      "start": 16.1647,
      "duration": 0.0148,
      "velocity": 96,
      "chip": "ym2612"
    },
    {
      "channel": 0,
      "note": 83,
      "start": 16.1717,
      "duration": 0.0296,
      "velocity": 97,
      "chip": "ym2612"
    },
    {
      "channel": 1,
      "note": 50,
      "start": 16.172,
      "duration": 0.0072,
      "velocity": 103,
      "chip": "ym2612"
    },
    {
      "channel": 2,
      "note": 78,
      "start": 16.1721,
      "duration": 0.0297,
      "velocity": 97,
      "chip": "ym2612"
    },
    {
      "channel": 4,
      "note": 83,
      "start": 16.1773,
      "duration": 0.0297,
      "velocity": 97,
      "chip": "ym2612"
    },
    {
      "channel": 1,
      "note": 56,
      "start": 16.1793,
      "duration": 0.0069,
      "velocity": 103,
      "chip": "ym2612"
    },
    {
      "channel": 3,
      "note": 50,
      "start": 16.1797,
      "duration": 0.0068,
      "velocity": 96,
      "chip": "ym2612"
    },
    {
      "channel": 1,
      "note": 50,
      "start": 16.1863,
      "duration": 0.0075,
      "velocity": 103,
      "chip": "ym2612"
    },
    {
      "channel": 3,
      "note": 50,
      "start": 16.1866,
      "duration": 0.0155,
      "velocity": 96,
      "chip": "ym2612"
    },
    {
      "channel": 1,
      "note": 57,
      "start": 16.194,
      "duration": 0.0075,
      "velocity": 103,
      "chip": "ym2612"
    },
    {
      "channel": 0,
      "note": 81,
      "start": 16.2015,
      "duration": 0.0698,
      "velocity": 97,
      "chip": "ym2612"
    },
    {
      "channel": 1,
      "note": 50,
      "start": 16.2018,
      "duration": 0.0073,
      "velocity": 103,
      "chip": "ym2612"
    },
    {
      "channel": 2,
      "note": 76,
      "start": 16.2021,
      "duration": 0.0698,
      "velocity": 97,
      "chip": "ym2612"
    },
    {
      "channel": 3,
      "note": 50,
      "start": 16.2023,
      "duration": 0.055,
      "velocity": 96,
      "chip": "ym2612"
    },
    {
      "channel": 4,
      "note": 81,
      "start": 16.2071,
      "duration": 0.0689,
      "velocity": 97,
      "chip": "ym2612"
    },
    {
      "channel": 1,
      "note": 52,
      "start": 16.2094,
      "duration": 0.0476,
      "velocity": 103,
      "chip": "ym2612"
    },
    {
      "channel": 1,
      "note": 50,
      "start": 16.2571,
      "duration": 0.0069,
      "velocity": 103,
      "chip": "ym2612"
    },
    {
      "channel": 3,
      "note": 50,
      "start": 16.2574,
      "duration": 0.0146,
      "velocity": 96,
      "chip": "ym2612"
    },
    {
      "channel": 1,
      "note": 54,
      "start": 16.2643,
      "duration": 0.0072,
      "velocity": 103,
      "chip": "ym2612"
    },
    {
      "channel": 0,
      "note": 80,
      "start": 16.2715,
      "duration": 0.027,
      "velocity": 97,
      "chip": "ym2612"
    },
    {
      "channel": 1,
      "note": 50,
      "start": 16.2717,
      "duration": 0.0061,
      "velocity": 103,
      "chip": "ym2612"
    },
    {
      "channel": 2,
      "note": 78,
      "start": 16.272,
      "duration": 0.0272,
      "velocity": 97,
      "chip": "ym2612"
    },
    {
      "channel": 4,
      "note": 80,
      "start": 16.2762,
      "duration": 0.028,
      "velocity": 97,
      "chip": "ym2612"
    },
    {
      "channel": 1,
      "note": 56,
      "start": 16.2781,
      "duration": 0.0068,
      "velocity": 103,
      "chip": "ym2612"
    },
    {
      "channel": 1,
      "note": 50,
      "start": 16.2851,
      "duration": 0.0063,
      "velocity": 103,
      "chip": "ym2612"
    },
    {
      "channel": 1,
      "note": 57,
      "start": 16.2916,
      "duration": 0.0073,
      "velocity": 103,
      "chip": "ym2612"
    },
    {
      "channel": 0,
      "note": 80,
      "start": 16.2987,
      "duration": 0.1979,
      "velocity": 97,
      "chip": "ym2612"
    },
    {
      "channel": 1,
      "note": 49,
      "start": 16.2991,
      "duration": 0.0073,
      "velocity": 103,
      "chip": "ym2612"
    },
    {
      "channel": 2,
      "note": 74,
      "start": 16.2993,
      "duration": 0.1976,
      "velocity": 97,
      "chip": "ym2612"
    },
    {
      "channel": 3,
      "note": 49,
      "start": 16.2995,
      "duration": 0.0551,
      "velocity": 96,
      "chip": "ym2612"
    },
    {
      "channel": 4,
      "note": 80,
      "start": 16.3044,
      "duration": 0.1978,
      "velocity": 97,
      "chip": "ym2612"
    },
    {
      "channel": 1,
      "note": 50,
      "start": 16.3066,
      "duration": 0.0478,
      "velocity": 103,
      "chip": "ym2612"
    },
    {
      "channel": 1,
      "note": 49,
      "start": 16.3545,
      "duration": 0.0072,
      "velocity": 103,
      "chip": "ym2612"
    },
    {
      "channel": 3,
      "note": 49,
      "start": 16.3548,
      "duration": 0.0073,
      "velocity": 96,
      "chip": "ym2612"
    },
    {
      "channel": 1,
      "note": 52,
      "start": 16.3619,
      "duration": 0.0073,
      "velocity": 103,
      "chip": "ym2612"
    },
    {
      "channel": 3,
      "note": 49,
      "start": 16.3623,
      "duration": 0.0145,
      "velocity": 96,
      "chip": "ym2612"
    },
    {
      "channel": 1,
      "note": 49,
      "start": 16.3694,
      "duration": 0.0071,
      "velocity": 103,
      "chip": "ym2612"
    },
    {
      "channel": 1,
      "note": 54,
      "start": 16.3767,
      "duration": 0.0074,
      "velocity": 103,
      "chip": "ym2612"
    },
    {
      "channel": 3,
      "note": 49,
      "start": 16.377,
      "duration": 0.0075,
      "velocity": 96,
      "chip": "ym2612"
    },
    {
      "channel": 1,
      "note": 49,
      "start": 16.3843,
      "duration": 0.0075,
      "velocity": 103,
      "chip": "ym2612"
    },
    {
      "channel": 3,
      "note": 49,
      "start": 16.3847,
      "duration": 0.015,
      "velocity": 96,
      "chip": "ym2612"
    },
    {
      "channel": 1,
      "note": 56,
      "start": 16.3921,
      "duration": 0.0072,
      "velocity": 103,
      "chip": "ym2612"
    },
    {
      "channel": 1,
      "note": 49,
      "start": 16.3995,
      "duration": 0.0069,
      "velocity": 103,
      "chip": "ym2612"
    },
    {
      "channel": 3,
      "note": 49,
      "start": 16.3999,
      "duration": 0.0549,
      "velocity": 96,
      "chip": "ym2612"
    },
    {
      "channel": 1,
      "note": 50,
      "start": 16.4066,
      "duration": 0.0478,
      "velocity": 103,
      "chip": "ym2612"
    },
    {
      "channel": 1,
      "note": 49,
      "start": 16.4546,
      "duration": 0.0074,
      "velocity": 103,
      "chip": "ym2612"
    },
    {
      "channel": 3,
      "note": 49,
      "start": 16.4549,
      "duration": 0.0146,
      "velocity": 96,
      "chip": "ym2612"
    },
    {
      "channel": 1,
      "note": 52,
      "start": 16.4622,
      "duration": 0.007,
      "velocity": 103,
      "chip": "ym2612"
    },
    {
      "channel": 1,
      "note": 49,
      "start": 16.4693,
      "duration": 0.0061,
      "velocity": 103,
      "chip": "ym2612"
    },
    {
      "channel": 1,
      "note": 54,
      "start": 16.4756,
      "duration": 0.0071,
      "velocity": 103,
      "chip": "ym2612"
    },
    {
      "channel": 1,
      "note": 49,
      "start": 16.4829,
      "duration": 0.0067,
      "velocity": 103,
      "chip": "ym2612"
    },
    {
      "channel": 1,
      "note": 56,
      "start": 16.4899,
      "duration": 0.0068,
      "velocity": 103,
      "chip": "ym2612"
    },
    {
      "channel": 0,
      "note": 79,
      "start": 16.4966,
      "duration": 0.1965,
      "velocity": 97,
      "chip": "ym2612"
    },
    {
      "channel": 1,
      "note": 49,
      "start": 16.4968,
      "duration": 0.0073,
      "velocity": 103,
      "chip": "ym2612"
    },
    {
      "channel": 2,
      "note": 74,
      "start": 16.497,
      "duration": 0.099,
      "velocity": 97,
      "chip": "ym2612"
    },
    {
      "channel": 3,
      "note": 49,
      "start": 16.4973,
      "duration": 0.0555,
      "velocity": 96,
      "chip": "ym2612"
    },
    {
      "channel": 4,
      "note": 79,
      "start": 16.5022,
      "duration": 0.1964,
      "velocity": 97,
      "chip": "ym2612"
    },
    {
      "channel": 1,
      "note": 50,
      "start": 16.5043,
      "duration": 0.0482,
      "velocity": 103,
      "chip": "ym2612"
    },
    {
      "channel": 1,
      "note": 49,
      "start": 16.5526,
      "duration": 0.0064,
      "velocity": 103,
      "chip": "ym2612"
    },
    {
      "channel": 3,
      "note": 49,
      "start": 16.5529,
      "duration": 0.0064,
      "velocity": 96,
      "chip": "ym2612"
    },
    {
      "channel": 1,
      "note": 52,
      "start": 16.5592,
      "duration": 0.0074,
      "velocity": 103,
      "chip": "ym2612"
    },
    {
      "channel": 3,
      "note": 49,
      "start": 16.5595,
      "duration": 0.0143,
      "velocity": 96,
      "chip": "ym2612"
    },
    {
      "channel": 1,
      "note": 49,
      "start": 16.5668,
      "duration": 0.0066,
      "velocity": 103,
      "chip": "ym2612"
    },
    {
      "channel": 1,
      "note": 54,
      "start": 16.5736,
      "duration": 0.0074,
      "velocity": 103,
      "chip": "ym2612"
    },
    {
      "channel": 3,
      "note": 49,
      "start": 16.574,
      "duration": 0.0075,
      "velocity": 96,
      "chip": "ym2612"
    },
    {
      "channel": 1,
      "note": 49,
      "start": 16.5812,
      "duration": 0.0071,
      "velocity": 103,
      "chip": "ym2612"
    },
    {
      "channel": 3,
      "note": 49,
      "start": 16.5816,
      "duration": 0.0144,
      "velocity": 96,
      "chip": "ym2612"
    },
    {
      "channel": 1,
      "note": 56,
      "start": 16.5885,
      "duration": 0.0071,
      "velocity": 103,
      "chip": "ym2612"
    },
    {
      "channel": 1,
      "note": 49,
      "start": 16.5958,
      "duration": 0.0067,
      "velocity": 103,
      "chip": "ym2612"
    },
    {
      "channel": 2,
      "note": 74,
      "start": 16.596,
      "duration": 0.055,
      "velocity": 97,
      "chip": "ym2612"
    },
    {
      "channel": 3,
      "note": 49,
      "start": 16.5962,
      "duration": 0.055,
      "velocity": 96,
      "chip": "ym2612"
    },
    {
      "channel": 1,
      "note": 50,
      "start": 16.6027,
      "duration": 0.0481,
      "velocity": 103,
      "chip": "ym2612"
    },
    {
      "channel": 1,
      "note": 49,
      "start": 16.6509,
      "duration": 0.0073,
      "velocity": 103,
      "chip": "ym2612"
    },
    {
      "channel": 2,
      "note": 76,
      "start": 16.6512,
      "duration": 0.0285,
      "velocity": 97,
      "chip": "ym2612"
    },
    {
      "channel": 3,
      "note": 49,
      "start": 16.6514,
      "duration": 0.0146,
      "velocity": 96,
      "chip": "ym2612"
    },
    {
      "channel": 1,
      "note": 52,
      "start": 16.6584,
      "duration": 0.0073,
      "velocity": 103,
      "chip": "ym2612"
    },
    {
      "channel": 1,
      "note": 49,
      "start": 16.6659,
      "duration": 0.0064,
      "velocity": 103,
      "chip": "ym2612"
    },
    {
      "channel": 1,
      "note": 54,
      "start": 16.6724,
      "duration": 0.0069,
      "velocity": 103,
      "chip": "ym2612"
    },
    {
      "channel": 1,
      "note": 49,
      "start": 16.6796,
      "duration": 0.0068,
      "velocity": 103,
      "chip": "ym2612"
    },
    {
      "channel": 2,
      "note": 74,
      "start": 16.6798,
      "duration": 0.0136,
      "velocity": 97,
      "chip": "ym2612"
    },
    {
      "channel": 1,
      "note": 56,
      "start": 16.6866,
      "duration": 0.0066,
      "velocity": 103,
      "chip": "ym2612"
    },
    {
      "channel": 0,
      "note": 79,
      "start": 16.6931,
      "duration": 0.1963,
      "velocity": 97,
      "chip": "ym2612"
    },
    {
      "channel": 1,
      "note": 49,
      "start": 16.6934,
      "duration": 0.0073,
      "velocity": 103,
      "chip": "ym2612"
    },
    {
      "channel": 2,
      "note": 73,
      "start": 16.6937,
      "duration": 0.1962,
      "velocity": 97,
      "chip": "ym2612"
    },
    {
      "channel": 3,
      "note": 49,
      "start": 16.6939,
      "duration": 0.0549,
      "velocity": 96,
      "chip": "ym2612"
    },
    {
      "channel": 4,
      "note": 79,
      "start": 16.6986,
      "duration": 0.1964,
      "velocity": 97,
      "chip": "ym2612"
    },
    {
      "channel": 1,
      "note": 50,
      "start": 16.7008,
      "duration": 0.0478,
      "velocity": 103,
      "chip": "ym2612"
    },
    {
      "channel": 1,
      "note": 49,
      "start": 16.7488,
      "duration": 0.007,
      "velocity": 103,
      "chip": "ym2612"
    },
    {
      "channel": 3,
      "note": 49,
      "start": 16.749,
      "duration": 0.007,
      "velocity": 96,
      "chip": "ym2612"
    },
    {
      "channel": 1,
      "note": 52,
      "start": 16.756,
      "duration": 0.0074,
      "velocity": 103,
      "chip": "ym2612"
    },
    {
      "channel": 3,
      "note": 49,
      "start": 16.7563,
      "duration": 0.0141,
      "velocity": 96,
      "chip": "ym2612"
    },
    {
      "channel": 1,
      "note": 49,
      "start": 16.7636,
      "duration": 0.0065,
      "velocity": 103,
      "chip": "ym2612"
    },
    {
      "channel": 1,
      "note": 54,
      "start": 16.7703,
      "duration": 0.0074,
      "velocity": 103,
      "chip": "ym2612"
    },
    {
      "channel": 3,
      "note": 49,
      "start": 16.7706,
      "duration": 0.0075,
      "velocity": 96,
      "chip": "ym2612"
    },
    {
      "channel": 1,
      "note": 49,
      "start": 16.7779,
      "duration": 0.0072,
      "velocity": 103,
      "chip": "ym2612"
    },
    {
      "channel": 3,
      "note": 49,
      "start": 16.7783,
      "duration": 0.0145,
      "velocity": 96,
      "chip": "ym2612"
    },
    {
      "channel": 1,
      "note": 56,
      "start": 16.7854,
      "duration": 0.0071,
      "velocity": 103,
      "chip": "ym2612"
    },
    {
      "channel": 1,
      "note": 49,
      "start": 16.7926,
      "duration": 0.0072,
      "velocity": 103,
      "chip": "ym2612"
    },
    {
      "channel": 3,
      "note": 49,
      "start": 16.7929,
      "duration": 0.0554,
      "velocity": 96,
      "chip": "ym2612"
    },
    {
      "channel": 1,
      "note": 50,
      "start": 16.8,
      "duration": 0.048,
      "velocity": 103,
      "chip": "ym2612"
    },
    {
      "channel": 1,
      "note": 49,
      "start": 16.8482,
      "duration": 0.0069,
      "velocity": 103,
      "chip": "ym2612"
    },
    {
      "channel": 3,
      "note": 49,
      "start": 16.8485,
      "duration": 0.014,
      "velocity": 96,
      "chip": "ym2612"
    },
    {
      "channel": 1,
      "note": 52,
      "start": 16.8553,
      "duration": 0.007,
      "velocity": 103,
      "chip": "ym2612"
    },
    {
      "channel": 1,
      "note": 49,
      "start": 16.8625,
      "duration": 0.0064,
      "velocity": 103,
      "chip": "ym2612"
    },
    {
      "channel": 1,
      "note": 54,
      "start": 16.869,
      "duration": 0.007,
      "velocity": 103,
      "chip": "ym2612"
    },
    {
      "channel": 1,
      "note": 49,
      "start": 16.8763,
      "duration": 0.0062,
      "velocity": 103,
      "chip": "ym2612"
    },
    {
      "channel": 1,
      "note": 56,
      "start": 16.8827,
      "duration": 0.0069,
      "velocity": 103,
      "chip": "ym2612"
    },
    {
      "channel": 0,
      "note": 79,
      "start": 16.8895,
      "duration": 0.1424,
      "velocity": 108,
      "chip": "ym2612"
    },
    {
      "channel": 1,
      "note": 49,
      "start": 16.8898,
      "duration": 0.0071,
      "velocity": 103,
      "chip": "ym2612"
    },
    {
      "channel": 2,
      "note": 73,
      "start": 16.8898,
      "duration": 0.1431,
      "velocity": 97,
      "chip": "ym2612"
    },
    {
      "channel": 3,
      "note": 49,
      "start": 16.8902,
      "duration": 0.0144,
      "velocity": 96,
      "chip": "ym2612"
    },
    {
      "channel": 4,
      "note": 79,
      "start": 16.895,
      "duration": 0.143,
      "velocity": 108,
      "chip": "ym2612"
    },
    {
      "channel": 1,
      "note": 50,
      "start": 16.8971,
      "duration": 0.007,
      "velocity": 103,
      "chip": "ym2612"
    },
    {
      "channel": 1,
      "note": 49,
      "start": 16.9043,
      "duration": 0.0069,
      "velocity": 103,
      "chip": "ym2612"
    },
    {
      "channel": 3,
      "note": 49,
      "start": 16.9047,
      "duration": 0.007,
      "velocity": 96,
      "chip": "ym2612"
    },
    {
      "channel": 1,
      "note": 52,
      "start": 16.9114,
      "duration": 0.0073,
      "velocity": 103,
      "chip": "ym2612"
    },
    {
      "channel": 3,
      "note": 49,
      "start": 16.9119,
      "duration": 0.0139,
      "velocity": 96,
      "chip": "ym2612"
    },
    {
      "channel": 1,
      "note": 49,
      "start": 16.9189,
      "duration": 0.0064,
      "velocity": 103,
      "chip": "ym2612"
    },
    {
      "channel": 1,
      "note": 54,
      "start": 16.9256,
      "duration": 0.0066,
      "velocity": 103,
      "chip": "ym2612"
    },
    {
      "channel": 3,
      "note": 49,
      "start": 16.9259,
      "duration": 0.0067,
      "velocity": 96,
      "chip": "ym2612"
    },
    {
      "channel": 1,
      "note": 49,
      "start": 16.9324,
      "duration": 0.0069,
      "velocity": 103,
      "chip": "ym2612"
    },
    {
      "channel": 3,
      "note": 49,
      "start": 16.9327,
      "duration": 0.0445,
      "velocity": 96,
      "chip": "ym2612"
    },
    {
      "channel": 1,
      "note": 56,
      "start": 16.9395,
      "duration": 0.0373,
      "velocity": 103,
      "chip": "ym2612"
    },
    {
      "channel": 1,
      "note": 49,
      "start": 16.977,
      "duration": 0.0064,
      "velocity": 103,
      "chip": "ym2612"
    },
    {
      "channel": 3,
      "note": 49,
      "start": 16.9773,
      "duration": 0.0136,
      "velocity": 96,
      "chip": "ym2612"
    },
    {
      "channel": 1,
      "note": 50,
      "start": 16.9836,
      "duration": 0.0068,
      "velocity": 103,
      "chip": "ym2612"
    },
    {
      "channel": 1,
      "note": 49,
      "start": 16.9906,
      "duration": 0.0071,
      "velocity": 103,
      "chip": "ym2612"
    },
    {
      "channel": 3,
      "note": 49,
      "start": 16.9911,
      "duration": 0.0144,
      "velocity": 96,
      "chip": "ym2612"
    },
    {
      "channel": 1,
      "note": 52,
      "start": 16.998,
      "duration": 0.007,
      "velocity": 103,
      "chip": "ym2612"
    },
    {
      "channel": 1,
      "note": 49,
      "start": 17.0052,
      "duration": 0.0064,
      "velocity": 103,
      "chip": "ym2612"
    },
    {
      "channel": 1,
      "note": 54,
      "start": 17.0117,
      "duration": 0.0062,
      "velocity": 103,
      "chip": "ym2612"
    },
    {
      "channel": 1,
      "note": 49,
      "start": 17.0182,
      "duration": 0.0061,
      "velocity": 103,
      "chip": "ym2612"
    },
    {
      "channel": 1,
      "note": 56,
      "start": 17.0246,
      "duration": 0.0074,
      "velocity": 103,
      "chip": "ym2612"
    },
    {
      "channel": 1,
      "note": 50,
      "start": 17.0321,
      "duration": 0.0073,
      "velocity": 103,
      "chip": "ym2612"
    },
    {
      "channel": 2,
      "note": 50,
      "start": 17.0331,
      "duration": 0.0694,
      "velocity": 97,
      "chip": "ym2612"
    },
    {
      "channel": 3,
      "note": 50,
      "start": 17.0334,
      "duration": 0.0517,
      "velocity": 96,
      "chip": "ym2612"
    },
    {
      "channel": 1,
      "note": 52,
      "start": 17.0395,
      "duration": 0.0451,
      "velocity": 103,
      "chip": "ym2612"
    },
    {
      "channel": 1,
      "note": 50,
      "start": 17.085,
      "duration": 0.0052,
      "velocity": 103,
      "chip": "ym2612"
    },
    {
      "channel": 3,
      "note": 50,
      "start": 17.0853,
      "duration": 0.0052,
      "velocity": 96,
      "chip": "ym2612"
    },
    {
      "channel": 1,
      "note": 54,
      "start": 17.0904,
      "duration": 0.0057,
      "velocity": 103,
      "chip": "ym2612"
    },
    {
      "channel": 3,
      "note": 50,
      "start": 17.0906,
      "duration": 0.0104,
      "velocity": 96,
      "chip": "ym2612"
    },
    {
      "channel": 1,
      "note": 50,
      "start": 17.0963,
      "duration": 0.0044,
      "velocity": 103,
      "chip": "ym2612"
    },
    {
      "channel": 1,
      "note": 56,
      "start": 17.1008,
      "duration": 0.006,
      "velocity": 103,
      "chip": "ym2612"
    },
    {
      "channel": 3,
      "note": 50,
      "start": 17.1011,
      "duration": 0.0061,
      "velocity": 96,
      "chip": "ym2612"
    },
    {
      "channel": 2,
      "note": 50,
      "start": 17.1026,
      "duration": 0.073,
      "velocity": 97,
      "chip": "ym2612"
    },
    {
      "channel": 1,
      "note": 50,
      "start": 17.1071,
      "duration": 0.0056,
      "velocity": 103,
      "chip": "ym2612"
    },
    {
      "channel": 3,
      "note": 50,
      "start": 17.1074,
      "duration": 0.0117,
      "velocity": 96,
      "chip": "ym2612"
    },
    {
      "channel": 1,
      "note": 57,
      "start": 17.1128,
      "duration": 0.0059,
      "velocity": 103,
      "chip": "ym2612"
    },
    {
      "channel": 1,
      "note": 50,
      "start": 17.119,
      "duration": 0.0049,
      "velocity": 103,
      "chip": "ym2612"
    },
    {
      "channel": 3,
      "note": 50,
      "start": 17.1193,
      "duration": 0.0528,
      "velocity": 96,
      "chip": "ym2612"
    },
    {
      "channel": 1,
      "note": 52,
      "start": 17.1241,
      "duration": 0.0476,
      "velocity": 103,
      "chip": "ym2612"
    },
    {
      "channel": 1,
      "note": 50,
      "start": 17.1719,
      "duration": 0.0059,
      "velocity": 103,
      "chip": "ym2612"
    },
    {
      "channel": 3,
      "note": 50,
      "start": 17.1723,
      "duration": 0.0117,
      "velocity": 96,
      "chip": "ym2612"
    },
    {
      "channel": 2,
      "note": 50,
      "start": 17.1756,
      "duration": 0.0298,
      "velocity": 97,
      "chip": "ym2612"
    },
    {
      "channel": 1,
      "note": 54,
      "start": 17.178,
      "duration": 0.0056,
      "velocity": 103,
      "chip": "ym2612"
    },
    {
      "channel": 1,
      "note": 50,
      "start": 17.1838,
      "duration": 0.004,
      "velocity": 103,
      "chip": "ym2612"
    },
    {
      "channel": 1,
      "note": 56,
      "start": 17.188,
      "duration": 0.0063,
      "velocity": 103,
      "chip": "ym2612"
    },
    {
      "channel": 1,
      "note": 50,
      "start": 17.1946,
      "duration": 0.005,
      "velocity": 103,
      "chip": "ym2612"
    },
    {
      "channel": 1,
      "note": 57,
      "start": 17.1998,
      "duration": 0.0052,
      "velocity": 103,
      "chip": "ym2612"
    },
    {
      "channel": 1,
      "note": 50,
      "start": 17.2051,
      "duration": 0.0054,
      "velocity": 103,
      "chip": "ym2612"
    },
    {
      "channel": 2,
      "note": 50,
      "start": 17.2054,
      "duration": 0.182,
      "velocity": 97,
      "chip": "ym2612"
    },
    {
      "channel": 3,
      "note": 50,
      "start": 17.2057,
      "duration": 0.0528,
      "velocity": 96,
      "chip": "ym2612"
    },
    {
      "channel": 1,
      "note": 52,
      "start": 17.2106,
      "duration": 0.0475,
      "velocity": 103,
      "chip": "ym2612"
    },
    {
      "channel": 1,
      "note": 50,
      "start": 17.2583,
      "duration": 0.0054,
      "velocity": 103,
      "chip": "ym2612"
    },
    {
      "channel": 3,
      "note": 50,
      "start": 17.2587,
      "duration": 0.0053,
      "velocity": 96,
      "chip": "ym2612"
    },
    {
      "channel": 1,
      "note": 54,
      "start": 17.2639,
      "duration": 0.0059,
      "velocity": 103,
      "chip": "ym2612"
    },
    {
      "channel": 3,
      "note": 50,
      "start": 17.2642,
      "duration": 0.0107,
      "velocity": 96,
      "chip": "ym2612"
    },
    {
      "channel": 1,
      "note": 50,
      "start": 17.2699,
      "duration": 0.0046,
      "velocity": 103,
      "chip": "ym2612"
    },
    {
      "channel": 1,
      "note": 56,
      "start": 17.2747,
      "duration": 0.006,
      "velocity": 103,
      "chip": "ym2612"
    },
    {
      "channel": 3,
      "note": 50,
      "start": 17.275,
      "duration": 0.006,
      "velocity": 96,
      "chip": "ym2612"
    },
    {
      "channel": 1,
      "note": 50,
      "start": 17.281,
      "duration": 0.0054,
      "velocity": 103,
      "chip": "ym2612"
    },
    {
      "channel": 3,
      "note": 50,
      "start": 17.2812,
      "duration": 0.0117,
      "velocity": 96,
      "chip": "ym2612"
    },
    {
      "channel": 1,
      "note": 57,
      "start": 17.2867,
      "duration": 0.006,
      "velocity": 103,
      "chip": "ym2612"
    },
    {
      "channel": 0,
      "note": 81,
      "start": 17.2926,
      "duration": 0.0061,
      "velocity": 108,
      "chip": "ym2612"
    },
    {
      "channel": 1,
      "note": 50,
      "start": 17.2928,
      "duration": 0.0062,
      "velocity": 103,
      "chip": "ym2612"
    },
    {
      "channel": 3,
      "note": 50,
      "start": 17.2932,
      "duration": 0.0542,
      "velocity": 96,
      "chip": "ym2612"
    },
    {
      "channel": 4,
      "note": 81,
      "start": 17.2971,
      "duration": 0.0167,
      "velocity": 108,
      "chip": "ym2612"
    },
    {
      "channel": 0,
      "note": 93,
      "start": 17.2989,
      "duration": 0.0478,
      "velocity": 108,
      "chip": "ym2612"
    },
    {
      "channel": 1,
      "note": 52,
      "start": 17.2991,
      "duration": 0.0478,
      "velocity": 103,
      "chip": "ym2612"
    },
    {
      "channel": 4,
      "note": 93,
      "start": 17.314,
      "duration": 0.0378,
      "velocity": 108,
      "chip": "ym2612"
    },
    {
      "channel": 0,
      "note": 85,
      "start": 17.3469,
      "duration": 0.0068,
      "velocity": 108,
      "chip": "ym2612"
    },
    {
      "channel": 1,
      "note": 50,
      "start": 17.3471,
      "duration": 0.0069,
      "velocity": 103,
      "chip": "ym2612"
    },
    {
      "channel": 3,
      "note": 50,
      "start": 17.3475,
      "duration": 0.0141,
      "velocity": 96,
      "chip": "ym2612"
    },
    {
      "channel": 4,
      "note": 85,
      "start": 17.3521,
      "duration": 0.0069,
      "velocity": 108,
      "chip": "ym2612"
    },
    {
      "channel": 0,
      "note": 78,
      "start": 17.354,
      "duration": 0.0068,
      "velocity": 108,
      "chip": "ym2612"
    },
    {
      "channel": 1,
      "note": 54,
      "start": 17.3543,
      "duration": 0.0069,
      "velocity": 103,
      "chip": "ym2612"
    },
    {
      "channel": 4,
      "note": 78,
      "start": 17.3592,
      "duration": 0.0061,
      "velocity": 108,
      "chip": "ym2612"
    },
    {
      "channel": 0,
      "note": 85,
      "start": 17.3611,
      "duration": 0.0057,
      "velocity": 108,
      "chip": "ym2612"
    },
    {
      "channel": 1,
      "note": 50,
      "start": 17.3614,
      "duration": 0.0057,
      "velocity": 103,
      "chip": "ym2612"
    },
    {
      "channel": 4,
      "note": 85,
      "start": 17.3654,
      "duration": 0.0057,
      "velocity": 108,
      "chip": "ym2612"
    },
    {
      "channel": 0,
      "note": 69,
      "start": 17.367,
      "duration": 0.0063,
      "velocity": 108,
      "chip": "ym2612"
    },
    {
      "channel": 1,
      "note": 56,
      "start": 17.3672,
      "duration": 0.0064,
      "velocity": 103,
      "chip": "ym2612"
    },
    {
      "channel": 4,
      "note": 69,
      "start": 17.3713,
      "duration": 0.0065,
      "velocity": 108,
      "chip": "ym2612"
    },
    {
      "channel": 0,
      "note": 76,
      "start": 17.3736,
      "duration": 0.0062,
      "velocity": 108,
      "chip": "ym2612"
    },
    {
      "channel": 1,
      "note": 50,
      "start": 17.3739,
      "duration": 0.0063,
      "velocity": 103,
      "chip": "ym2612"
    },
    {
      "channel": 4,
      "note": 76,
      "start": 17.3779,
      "duration": 0.0066,
      "velocity": 108,
      "chip": "ym2612"
    },
    {
      "channel": 0,
      "note": 88,
      "start": 17.3801,
      "duration": 0.0068,
      "velocity": 108,
      "chip": "ym2612"
    },
    {
      "channel": 1,
      "note": 57,
      "start": 17.3803,
      "duration": 0.0067,
      "velocity": 103,
      "chip": "ym2612"
    },
    {
      "channel": 4,
      "note": 88,
      "start": 17.3847,
      "duration": 0.0068,
      "velocity": 108,
      "chip": "ym2612"
    },
    {
      "channel": 1,
      "note": 50,
      "start": 17.3871,
      "duration": 0.0058,
      "velocity": 103,
      "chip": "ym2612"
    },
    {
      "channel": 2,
      "note": 50,
      "start": 17.3874,
      "duration": 0.1721,
      "velocity": 97,
      "chip": "ym2612"
    },
    {
      "channel": 3,
      "note": 50,
      "start": 17.3877,
      "duration": 0.0528,
      "velocity": 96,
      "chip": "ym2612"
    },
    {
      "channel": 1,
      "note": 52,
      "start": 17.393,
      "duration": 0.0471,
      "velocity": 103,
      "chip": "ym2612"
    },
    {
      "channel": 1,
      "note": 50,
      "start": 17.4404,
      "duration": 0.0051,
      "velocity": 103,
      "chip": "ym2612"
    },
    {
      "channel": 3,
      "note": 50,
      "start": 17.4407,
      "duration": 0.0052,
      "velocity": 96,
      "chip": "ym2612"
    },
    {
      "channel": 1,
      "note": 54,
      "start": 17.4458,
      "duration": 0.0057,
      "velocity": 103,
      "chip": "ym2612"
    },
    {
      "channel": 3,
      "note": 50,
      "start": 17.446,
      "duration": 0.0104,
      "velocity": 96,
      "chip": "ym2612"
    },
    {
      "channel": 1,
      "note": 50,
      "start": 17.4517,
      "duration": 0.0044,
      "velocity": 103,
      "chip": "ym2612"
    },
    {
      "channel": 1,
      "note": 56,
      "start": 17.4562,
      "duration": 0.0059,
      "velocity": 103,
      "chip": "ym2612"
    },
    {
      "channel": 3,
      "note": 50,
      "start": 17.4565,
      "duration": 0.0059,
      "velocity": 96,
      "chip": "ym2612"
    },
    {
      "channel": 1,
      "note": 50,
      "start": 17.4624,
      "duration": 0.0054,
      "velocity": 103,
      "chip": "ym2612"
    },
    {
      "channel": 3,
      "note": 50,
      "start": 17.4627,
      "duration": 0.0113,
      "velocity": 96,
      "chip": "ym2612"
    },
    {
      "channel": 1,
      "note": 57,
      "start": 17.468,
      "duration": 0.0055,
      "velocity": 103,
      "chip": "ym2612"
    },
    {
      "channel": 1,
      "note": 50,
      "start": 17.4737,
      "duration": 0.005,
      "velocity": 103,
      "chip": "ym2612"
    },
    {
      "channel": 3,
      "note": 50,
      "start": 17.4741,
      "duration": 0.0528,
      "velocity": 96,
      "chip": "ym2612"
    },
    {
      "channel": 1,
      "note": 52,
      "start": 17.4788,
      "duration": 0.0476,
      "velocity": 103,
      "chip": "ym2612"
    },
    {
      "channel": 1,
      "note": 50,
      "start": 17.5267,
      "duration": 0.0052,
      "velocity": 103,
      "chip": "ym2612"
    },
    {
      "channel": 3,
      "note": 50,
      "start": 17.5271,
      "duration": 0.0112,
      "velocity": 96,
      "chip": "ym2612"
    },
    {
      "channel": 1,
      "note": 54,
      "start": 17.5322,
      "duration": 0.0057,
      "velocity": 103,
      "chip": "ym2612"
    },
    {
      "channel": 1,
      "note": 50,
      "start": 17.538,
      "duration": 0.0042,
      "velocity": 103,
      "chip": "ym2612"
    },
    {
      "channel": 1,
      "note": 56,
      "start": 17.5424,
      "duration": 0.0061,
      "velocity": 103,
      "chip": "ym2612"
    },
    {
      "channel": 1,
      "note": 50,
      "start": 17.5487,
      "duration": 0.005,
      "velocity": 103,
      "chip": "ym2612"
    },
    {
      "channel": 1,
      "note": 57,
      "start": 17.5539,
      "duration": 0.0052,
      "velocity": 103,
      "chip": "ym2612"
    },
    {
      "channel": 1,
      "note": 50,
      "start": 17.5593,
      "duration": 0.0051,
      "velocity": 103,
      "chip": "ym2612"
    },
    {
      "channel": 2,
      "note": 50,
      "start": 17.5595,
      "duration": 0.1696,
      "velocity": 97,
      "chip": "ym2612"
    },
    {
      "channel": 3,
      "note": 50,
      "start": 17.5598,
      "duration": 0.0525,
      "velocity": 96,
      "chip": "ym2612"
    },
    {
      "channel": 1,
      "note": 52,
      "start": 17.5645,
      "duration": 0.0474,
      "velocity": 103,
      "chip": "ym2612"
    },
    {
      "channel": 1,
      "note": 50,
      "start": 17.6121,
      "duration": 0.0054,
      "velocity": 103,
      "chip": "ym2612"
    },
    {
      "channel": 3,
      "note": 50,
      "start": 17.6125,
      "duration": 0.0053,
      "velocity": 96,
      "chip": "ym2612"
    },
    {
      "channel": 1,
      "note": 54,
      "start": 17.6177,
      "duration": 0.0057,
      "velocity": 103,
      "chip": "ym2612"
    },
    {
      "channel": 3,
      "note": 50,
      "start": 17.618,
      "duration": 0.0107,
      "velocity": 96,
      "chip": "ym2612"
    },
    {
      "channel": 1,
      "note": 50,
      "start": 17.6236,
      "duration": 0.0047,
      "velocity": 103,
      "chip": "ym2612"
    },
    {
      "channel": 1,
      "note": 56,
      "start": 17.6285,
      "duration": 0.0061,
      "velocity": 103,
      "chip": "ym2612"
    },
    {
      "channel": 3,
      "note": 50,
      "start": 17.6289,
      "duration": 0.0061,
      "velocity": 96,
      "chip": "ym2612"
    },
    {
      "channel": 1,
      "note": 50,
      "start": 17.6348,
      "duration": 0.0056,
      "velocity": 103,
      "chip": "ym2612"
    },
    {
      "channel": 3,
      "note": 50,
      "start": 17.6352,
      "duration": 0.0117,
      "velocity": 96,
      "chip": "ym2612"
    },
    {
      "channel": 1,
      "note": 57,
      "start": 17.6406,
      "duration": 0.0059,
      "velocity": 103,
      "chip": "ym2612"
    },
    {
      "channel": 1,
      "note": 50,
      "start": 17.6467,
      "duration": 0.0052,
      "velocity": 103,
      "chip": "ym2612"
    },
    {
      "channel": 3,
      "note": 50,
      "start": 17.6471,
      "duration": 0.053,
      "velocity": 96,
      "chip": "ym2612"
    },
    {
      "channel": 1,
      "note": 52,
      "start": 17.652,
      "duration": 0.0476,
      "velocity": 103,
      "chip": "ym2612"
    },
    {
      "channel": 1,
      "note": 50,
      "start": 17.6998,
      "duration": 0.0054,
      "velocity": 103,
      "chip": "ym2612"
    },
    {
      "channel": 3,
      "note": 50,
      "start": 17.7002,
      "duration": 0.0111,
      "velocity": 96,
      "chip": "ym2612"
    },
    {
      "channel": 1,
      "note": 54,
      "start": 17.7055,
      "duration": 0.0055,
      "velocity": 103,
      "chip": "ym2612"
    },
    {
      "channel": 1,
      "note": 50,
      "start": 17.7112,
      "duration": 0.0038,
      "velocity": 103,
      "chip": "ym2612"
    },
    {
      "channel": 1,
      "note": 56,
      "start": 17.7151,
      "duration": 0.0061,
      "velocity": 103,
      "chip": "ym2612"
    },
    {
      "channel": 1,
      "note": 50,
      "start": 17.7214,
      "duration": 0.005,
      "velocity": 103,
      "chip": "ym2612"
    },
    {
      "channel": 1,
      "note": 57,
      "start": 17.7267,
      "duration": 0.0052,
      "velocity": 103,
      "chip": "ym2612"
    },
    {
      "channel": 1,
      "note": 47,
      "start": 17.732,
      "duration": 0.0054,
      "velocity": 103,
      "chip": "ym2612"
    },
    {
      "channel": 2,
      "note": 47,
      "start": 17.7324,
      "duration": 0.0702,
      "velocity": 97,
      "chip": "ym2612"
    },
    {
      "channel": 3,
      "note": 47,
      "start": 17.7327,
      "duration": 0.0524,
      "velocity": 96,
      "chip": "ym2612"
    },
    {
      "channel": 1,
      "note": 49,
      "start": 17.7375,
      "duration": 0.0472,
      "velocity": 103,
      "chip": "ym2612"
    },
    {
      "channel": 1,
      "note": 47,
      "start": 17.785,
      "duration": 0.0052,
      "velocity": 103,
      "chip": "ym2612"
    },
    {
      "channel": 3,
      "note": 47,
      "start": 17.7853,
      "duration": 0.0052,
      "velocity": 96,
      "chip": "ym2612"
    },
    {
      "channel": 1,
      "note": 50,
      "start": 17.7904,
      "duration": 0.0057,
      "velocity": 103,
      "chip": "ym2612"
    },
    {
      "channel": 3,
      "note": 47,
      "start": 17.7906,
      "duration": 0.0104,
      "velocity": 96,
      "chip": "ym2612"
    },
    {
      "channel": 1,
      "note": 47,
      "start": 17.7963,
      "duration": 0.0044,
      "velocity": 103,
      "chip": "ym2612"
    },
    {
      "channel": 1,
      "note": 52,
      "start": 17.8008,
      "duration": 0.006,
      "velocity": 103,
      "chip": "ym2612"
    },
    {
      "channel": 3,
      "note": 47,
      "start": 17.8011,
      "duration": 0.0061,
      "velocity": 96,
      "chip": "ym2612"
    },
    {
      "channel": 2,
      "note": 47,
      "start": 17.8026,
      "duration": 0.0732,
      "velocity": 97,
      "chip": "ym2612"
    },
    {
      "channel": 1,
      "note": 47,
      "start": 17.8071,
      "duration": 0.0056,
      "velocity": 103,
      "chip": "ym2612"
    },
    {
      "channel": 3,
      "note": 47,
      "start": 17.8074,
      "duration": 0.0117,
      "velocity": 96,
      "chip": "ym2612"
    },
    {
      "channel": 1,
      "note": 54,
      "start": 17.8128,
      "duration": 0.0059,
      "velocity": 103,
      "chip": "ym2612"
    },
    {
      "channel": 1,
      "note": 47,
      "start": 17.8189,
      "duration": 0.005,
      "velocity": 103,
      "chip": "ym2612"
    },
    {
      "channel": 3,
      "note": 47,
      "start": 17.8193,
      "duration": 0.053,
      "velocity": 96,
      "chip": "ym2612"
    },
    {
      "channel": 1,
      "note": 49,
      "start": 17.8241,
      "duration": 0.0478,
      "velocity": 103,
      "chip": "ym2612"
    },
    {
      "channel": 1,
      "note": 47,
      "start": 17.8721,
      "duration": 0.0058,
      "velocity": 103,
      "chip": "ym2612"
    },
    {
      "channel": 3,
      "note": 47,
      "start": 17.8725,
      "duration": 0.0114,
      "velocity": 96,
      "chip": "ym2612"
    },
    {
      "channel": 2,
      "note": 47,
      "start": 17.8757,
      "duration": 0.0292,
      "velocity": 97,
      "chip": "ym2612"
    },
    {
      "channel": 1,
      "note": 50,
      "start": 17.8781,
      "duration": 0.0054,
      "velocity": 103,
      "chip": "ym2612"
    },
    {
      "channel": 1,
      "note": 47,
      "start": 17.8837,
      "duration": 0.004,
      "velocity": 103,
      "chip": "ym2612"
    },
    {
      "channel": 1,
      "note": 52,
      "start": 17.8878,
      "duration": 0.0062,
      "velocity": 103,
      "chip": "ym2612"
    },
    {
      "channel": 1,
      "note": 47,
      "start": 17.8943,
      "duration": 0.005,
      "velocity": 103,
      "chip": "ym2612"
    },
    {
      "channel": 1,
      "note": 54,
      "start": 17.8995,
      "duration": 0.0051,
      "velocity": 103,
      "chip": "ym2612"
    },
    {
      "channel": 1,
      "note": 47,
      "start": 17.9047,
      "duration": 0.0055,
      "velocity": 103,
      "chip": "ym2612"
    },
    {
      "channel": 2,
      "note": 47,
      "start": 17.9049,
      "duration": 0.1825,
      "velocity": 97,
      "chip": "ym2612"
    },
    {
      "channel": 3,
      "note": 47,
      "start": 17.9053,
      "duration": 0.053,
      "velocity": 96,
      "chip": "ym2612"
    },
    {
      "channel": 1,
      "note": 49,
      "start": 17.9104,
      "duration": 0.0475,
      "velocity": 103,
      "chip": "ym2612"
    },
    {
      "channel": 1,
      "note": 47,
      "start": 17.9581,
      "duration": 0.0054,
      "velocity": 103,
      "chip": "ym2612"
    },
    {
      "channel": 3,
      "note": 47,
      "start": 17.9585,
      "duration": 0.0053,
      "velocity": 96,
      "chip": "ym2612"
    },
    {
      "channel": 1,
      "note": 50,
      "start": 17.9637,
      "duration": 0.0059,
      "velocity": 103,
      "chip": "ym2612"
    },
    {
      "channel": 3,
      "note": 47,
      "start": 17.964,
      "duration": 0.0107,
      "velocity": 96,
      "chip": "ym2612"
    },
    {
      "channel": 1,
      "note": 47,
      "start": 17.9697,
      "duration": 0.0046,
      "velocity": 103,
      "chip": "ym2612"
    },
    {
      "channel": 1,
      "note": 52,
      "start": 17.9745,
      "duration": 0.006,
      "velocity": 103,
      "chip": "ym2612"
    },
    {
      "channel": 3,
      "note": 47,
      "start": 17.9748,
      "duration": 0.006,
      "velocity": 96,
      "chip": "ym2612"
    },
    {
      "channel": 1,
      "note": 47,
      "start": 17.9808,
      "duration": 0.0054,
      "velocity": 103,
      "chip": "ym2612"
    },
    {
      "channel": 3,
      "note": 47,
      "start": 17.981,
      "duration": 0.0117,
      "velocity": 96,
      "chip": "ym2612"
    },
    {
      "channel": 1,
      "note": 54,
      "start": 17.9865,
      "duration": 0.006,
      "velocity": 103,
      "chip": "ym2612"
    },
    {
      "channel": 0,
      "note": 81,
      "start": 17.9924,
      "duration": 0.0061,
      "velocity": 108,
      "chip": "ym2612"
    },
    {
      "channel": 1,
      "note": 47,
      "start": 17.9926,
      "duration": 0.0062,
      "velocity": 103,
      "chip": "ym2612"
    },
    {
      "channel": 3,
      "note": 47,
      "start": 17.993,
      "duration": 0.0542,
      "velocity": 96,
      "chip": "ym2612"
    },
    {
      "channel": 4,
      "note": 81,
      "start": 17.9969,
      "duration": 0.0167,
      "velocity": 108,
      "chip": "ym2612"
    },
    {
      "channel": 0,
      "note": 93,
      "start": 17.9987,
      "duration": 0.0478,
      "velocity": 108,
      "chip": "ym2612"
    },
    {
      "channel": 1,
      "note": 49,
      "start": 17.9989,
      "duration": 0.0478,
      "velocity": 103,
      "chip": "ym2612"
    },
    {
      "channel": 4,
      "note": 93,
      "start": 18.0138,
      "duration": 0.0378,
      "velocity": 108,
      "chip": "ym2612"
    },
    {
      "channel": 0,
      "note": 85,
      "start": 18.0467,
      "duration": 0.0068,
      "velocity": 108,
      "chip": "ym2612"
    },
    {
      "channel": 1,
      "note": 47,
      "start": 18.0469,
      "duration": 0.0069,
      "velocity": 103,
      "chip": "ym2612"
    },
    {
      "channel": 3,
      "note": 47,
      "start": 18.0473,
      "duration": 0.0139,
      "velocity": 96,
      "chip": "ym2612"
    },
    {
      "channel": 4,
      "note": 85,
      "start": 18.0519,
      "duration": 0.0069,
      "velocity": 108,
      "chip": "ym2612"
    },
    {
      "channel": 0,
      "note": 78,
      "start": 18.0538,
      "duration": 0.0068,
      "velocity": 108,
      "chip": "ym2612"
    },
    {
      "channel": 1,
      "note": 50,
      "start": 18.0541,
      "duration": 0.0069,
      "velocity": 103,
      "chip": "ym2612"
    },
    {
      "channel": 4,
      "note": 78,
      "start": 18.059,
      "duration": 0.0059,
      "velocity": 108,
      "chip": "ym2612"
    },
    {
      "channel": 0,
      "note": 85,
      "start": 18.0609,
      "duration": 0.0056,
      "velocity": 108,
      "chip": "ym2612"
    },
    {
      "channel": 1,
      "note": 47,
      "start": 18.0611,
      "duration": 0.0057,
      "velocity": 103,
      "chip": "ym2612"
    },
    {
      "channel": 4,
      "note": 85,
      "start": 18.065,
      "duration": 0.0062,
      "velocity": 108,
      "chip": "ym2612"
    },
    {
      "channel": 0,
      "note": 69,
      "start": 18.0668,
      "duration": 0.0069,
      "velocity": 108,
      "chip": "ym2612"
    },
    {
      "channel": 1,
      "note": 52,
      "start": 18.0671,
      "duration": 0.0068,
      "velocity": 103,
      "chip": "ym2612"
    },
    {
      "channel": 4,
      "note": 69,
      "start": 18.0715,
      "duration": 0.0065,
      "velocity": 108,
      "chip": "ym2612"
    },
    {
      "channel": 0,
      "note": 76,
      "start": 18.0739,
      "duration": 0.006,
      "velocity": 108,
      "chip": "ym2612"
    },
    {
      "channel": 1,
      "note": 47,
      "start": 18.0741,
      "duration": 0.0061,
      "velocity": 103,
      "chip": "ym2612"
    },
    {
      "channel": 4,
      "note": 76,
      "start": 18.0783,
      "duration": 0.0062,
      "velocity": 108,
      "chip": "ym2612"
    },
    {
      "channel": 0,
      "note": 88,
      "start": 18.0801,
      "duration": 0.0068,
      "velocity": 108,
      "chip": "ym2612"
    },
    {
      "channel": 1,
      "note": 54,
      "start": 18.0804,
      "duration": 0.0067,
      "velocity": 103,
      "chip": "ym2612"
    },
    {
      "channel": 4,
      "note": 88,
      "start": 18.0847,
      "duration": 0.0069,
      "velocity": 108,
      "chip": "ym2612"
    },
    {
      "channel": 1,
      "note": 47,
      "start": 18.0873,
      "duration": 0.0057,
      "velocity": 103,
      "chip": "ym2612"
    },
    {
      "channel": 2,
      "note": 47,
      "start": 18.0875,
      "duration": 0.1732,
      "velocity": 97,
      "chip": "ym2612"
    },
    {
      "channel": 3,
      "note": 47,
      "start": 18.0877,
      "duration": 0.0529,
      "velocity": 96,
      "chip": "ym2612"
    },
    {
      "channel": 1,
      "note": 49,
      "start": 18.0932,
      "duration": 0.0471,
      "velocity": 103,
      "chip": "ym2612"
    },
    {
      "channel": 1,
      "note": 47,
      "start": 18.1405,
      "duration": 0.0052,
      "velocity": 103,
      "chip": "ym2612"
    },
    {
      "channel": 3,
      "note": 47,
      "start": 18.1408,
      "duration": 0.0052,
      "velocity": 96,
      "chip": "ym2612"
    },
    {
      "channel": 1,
      "note": 50,
      "start": 18.1459,
      "duration": 0.0057,
      "velocity": 103,
      "chip": "ym2612"
    },
    {
      "channel": 3,
      "note": 47,
      "start": 18.1461,
      "duration": 0.0104,
      "velocity": 96,
      "chip": "ym2612"
    },
    {
      "channel": 1,
      "note": 47,
      "start": 18.1518,
      "duration": 0.0044,
      "velocity": 103,
      "chip": "ym2612"
    },
    {
      "channel": 1,
      "note": 52,
      "start": 18.1563,
      "duration": 0.0059,
      "velocity": 103,
      "chip": "ym2612"
    },
    {
      "channel": 3,
      "note": 47,
      "start": 18.1566,
      "duration": 0.0059,
      "velocity": 96,
      "chip": "ym2612"
    },
    {
      "channel": 1,
      "note": 47,
      "start": 18.1625,
      "duration": 0.0054,
      "velocity": 103,
      "chip": "ym2612"
    },
    {
      "channel": 3,
      "note": 47,
      "start": 18.1628,
      "duration": 0.0113,
      "velocity": 96,
      "chip": "ym2612"
    },
    {
      "channel": 1,
      "note": 54,
      "start": 18.1682,
      "duration": 0.0055,
      "velocity": 103,
      "chip": "ym2612"
    },
    {
      "channel": 1,
      "note": 47,
      "start": 18.1739,
      "duration": 0.005,
      "velocity": 103,
      "chip": "ym2612"
    },
    {
      "channel": 3,
      "note": 47,
      "start": 18.1742,
      "duration": 0.0528,
      "velocity": 96,
      "chip": "ym2612"
    },
    {
      "channel": 1,
      "note": 49,
      "start": 18.179,
      "duration": 0.0476,
      "velocity": 103,
      "chip": "ym2612"
    },
    {
      "channel": 1,
      "note": 47,
      "start": 18.2268,
      "duration": 0.0052,
      "velocity": 103,
      "chip": "ym2612"
    },
    {
      "channel": 3,
      "note": 47,
      "start": 18.2272,
      "duration": 0.0112,
      "velocity": 96,
      "chip": "ym2612"
    },
    {
      "channel": 1,
      "note": 50,
      "start": 18.2323,
      "duration": 0.0057,
      "velocity": 103,
      "chip": "ym2612"
    },
    {
      "channel": 1,
      "note": 47,
      "start": 18.2382,
      "duration": 0.004,
      "velocity": 103,
      "chip": "ym2612"
    },
    {
      "channel": 1,
      "note": 52,
      "start": 18.2423,
      "duration": 0.0064,
      "velocity": 103,
      "chip": "ym2612"
    },
    {
      "channel": 1,
      "note": 47,
      "start": 18.249,
      "duration": 0.0054,
      "velocity": 103,
      "chip": "ym2612"
    },
    {
      "channel": 1,
      "note": 54,
      "start": 18.2547,
      "duration": 0.0056,
      "velocity": 103,
      "chip": "ym2612"
    },
    {
      "channel": 1,
      "note": 47,
      "start": 18.2605,
      "duration": 0.0052,
      "velocity": 103,
      "chip": "ym2612"
    },
    {
      "channel": 2,
      "note": 47,
      "start": 18.2607,
      "duration": 0.1703,
      "velocity": 97,
      "chip": "ym2612"
    },
    {
      "channel": 3,
      "note": 47,
      "start": 18.2611,
      "duration": 0.0528,
      "velocity": 96,
      "chip": "ym2612"
    },
    {
      "channel": 1,
      "note": 49,
      "start": 18.2659,
      "duration": 0.0475,
      "velocity": 103,
      "chip": "ym2612"
    },
    {
      "channel": 1,
      "note": 47,
      "start": 18.3136,
      "duration": 0.0054,
      "velocity": 103,
      "chip": "ym2612"
    },
    {
      "channel": 3,
      "note": 47,
      "start": 18.314,
      "duration": 0.0053,
      "velocity": 96,
      "chip": "ym2612"
    },
    {
      "channel": 1,
      "note": 50,
      "start": 18.3192,
      "duration": 0.0057,
      "velocity": 103,
      "chip": "ym2612"
    },
    {
      "channel": 3,
      "note": 47,
      "start": 18.3195,
      "duration": 0.0107,
      "velocity": 96,
      "chip": "ym2612"
    },
    {
      "channel": 1,
      "note": 47,
      "start": 18.3251,
      "duration": 0.0047,
      "velocity": 103,
      "chip": "ym2612"
    },
    {
      "channel": 1,
      "note": 52,
      "start": 18.33,
      "duration": 0.0061,
      "velocity": 103,
      "chip": "ym2612"
    },
    {
      "channel": 3,
      "note": 47,
      "start": 18.3304,
      "duration": 0.0061,
      "velocity": 96,
      "chip": "ym2612"
    },
    {
      "channel": 1,
      "note": 47,
      "start": 18.3363,
      "duration": 0.0056,
      "velocity": 103,
      "chip": "ym2612"
    },
    {
      "channel": 3,
      "note": 47,
      "start": 18.3367,
      "duration": 0.0117,
      "velocity": 96,
      "chip": "ym2612"
    },
    {
      "channel": 1,
      "note": 54,
      "start": 18.3421,
      "duration": 0.0059,
      "velocity": 103,
      "chip": "ym2612"
    },
    {
      "channel": 1,
      "note": 47,
      "start": 18.3482,
      "duration": 0.0052,
      "velocity": 103,
      "chip": "ym2612"
    },
    {
      "channel": 3,
      "note": 47,
      "start": 18.3485,
      "duration": 0.053,
      "velocity": 96,
      "chip": "ym2612"
    },
    {
      "channel": 1,
      "note": 49,
      "start": 18.3535,
      "duration": 0.0476,
      "velocity": 103,
      "chip": "ym2612"
    },
    {
      "channel": 1,
      "note": 47,
      "start": 18.4013,
      "duration": 0.0054,
      "velocity": 103,
      "chip": "ym2612"
    },
    {
      "channel": 3,
      "note": 47,
      "start": 18.4017,
      "duration": 0.0111,
      "velocity": 96,
      "chip": "ym2612"
    },
    {
      "channel": 1,
      "note": 50,
      "start": 18.407,
      "duration": 0.0055,
      "velocity": 103,
      "chip": "ym2612"
    },
    {
      "channel": 1,
      "note": 47,
      "start": 18.4127,
      "duration": 0.0039,
      "velocity": 103,
      "chip": "ym2612"
    },
    {
      "channel": 1,
      "note": 52,
      "start": 18.4167,
      "duration": 0.0063,
      "velocity": 103,
      "chip": "ym2612"
    },
    {
      "channel": 1,
      "note": 47,
      "start": 18.4232,
      "duration": 0.005,
      "velocity": 103,
      "chip": "ym2612"
    },
    {
      "channel": 1,
      "note": 54,
      "start": 18.4285,
      "duration": 0.0053,
      "velocity": 103,
      "chip": "ym2612"
    },
    {
      "channel": 1,
      "note": 50,
      "start": 18.434,
      "duration": 0.0052,
      "velocity": 103,
      "chip": "ym2612"
    },
    {
      "channel": 2,
      "note": 50,
      "start": 18.4343,
      "duration": 0.0702,
      "velocity": 97,
      "chip": "ym2612"
    },
    {
      "channel": 3,
      "note": 50,
      "start": 18.4346,
      "duration": 0.0524,
      "velocity": 96,
      "chip": "ym2612"
    },
    {
      "channel": 1,
      "note": 52,
      "start": 18.4393,
      "duration": 0.0473,
      "velocity": 103,
      "chip": "ym2612"
    },
    {
      "channel": 1,
      "note": 50,
      "start": 18.4869,
      "duration": 0.0052,
      "velocity": 103,
      "chip": "ym2612"
    },
    {
      "channel": 3,
      "note": 50,
      "start": 18.4872,
      "duration": 0.0052,
      "velocity": 96,
      "chip": "ym2612"
    },
    {
      "channel": 1,
      "note": 54,
      "start": 18.4923,
      "duration": 0.0057,
      "velocity": 103,
      "chip": "ym2612"
    },
    {
      "channel": 3,
      "note": 50,
      "start": 18.4925,
      "duration": 0.0104,
      "velocity": 96,
      "chip": "ym2612"
    },
    {
      "channel": 1,
      "note": 50,
      "start": 18.4982,
      "duration": 0.0044,
      "velocity": 103,
      "chip": "ym2612"
    },
    {
      "channel": 1,
      "note": 56,
      "start": 18.5027,
      "duration": 0.006,
      "velocity": 103,
      "chip": "ym2612"
    },
    {
      "channel": 3,
      "note": 50,
      "start": 18.503,
      "duration": 0.0061,
      "velocity": 96,
      "chip": "ym2612"
    },
    {
      "channel": 2,
      "note": 50,
      "start": 18.5045,
      "duration": 0.0732,
      "velocity": 97,
      "chip": "ym2612"
    },
    {
      "channel": 1,
      "note": 50,
      "start": 18.509,
      "duration": 0.0056,
      "velocity": 103,
      "chip": "ym2612"
    },
    {
      "channel": 3,
      "note": 50,
      "start": 18.5093,
      "duration": 0.0117,
      "velocity": 96,
      "chip": "ym2612"
    },
    {
      "channel": 1,
      "note": 57,
      "start": 18.5147,
      "duration": 0.0059,
      "velocity": 103,
      "chip": "ym2612"
    },
    {
      "channel": 1,
      "note": 50,
      "start": 18.5208,
      "duration": 0.005,
      "velocity": 103,
      "chip": "ym2612"
    },
    {
      "channel": 3,
      "note": 50,
      "start": 18.5212,
      "duration": 0.053,
      "velocity": 96,
      "chip": "ym2612"
    },
    {
      "channel": 1,
      "note": 52,
      "start": 18.526,
      "duration": 0.0478,
      "velocity": 103,
      "chip": "ym2612"
    },
    {
      "channel": 1,
      "note": 50,
      "start": 18.574,
      "duration": 0.0058,
      "velocity": 103,
      "chip": "ym2612"
    },
    {
      "channel": 3,
      "note": 50,
      "start": 18.5744,
      "duration": 0.0114,
      "velocity": 96,
      "chip": "ym2612"
    },
    {
      "channel": 2,
      "note": 50,
      "start": 18.5776,
      "duration": 0.0295,
      "velocity": 97,
      "chip": "ym2612"
    },
    {
      "channel": 1,
      "note": 54,
      "start": 18.58,
      "duration": 0.0054,
      "velocity": 103,
      "chip": "ym2612"
    },
    {
      "channel": 1,
      "note": 50,
      "start": 18.5856,
      "duration": 0.004,
      "velocity": 103,
      "chip": "ym2612"
    },
    {
      "channel": 1,
      "note": 56,
      "start": 18.5898,
      "duration": 0.0063,
      "velocity": 103,
      "chip": "ym2612"
    },
    {
      "channel": 1,
      "note": 50,
      "start": 18.5964,
      "duration": 0.005,
      "velocity": 103,
      "chip": "ym2612"
    },
    {
      "channel": 1,
      "note": 57,
      "start": 18.6016,
      "duration": 0.0052,
      "velocity": 103,
      "chip": "ym2612"
    },
    {
      "channel": 1,
      "note": 50,
      "start": 18.6069,
      "duration": 0.0054,
      "velocity": 103,
      "chip": "ym2612"
    },
    {
      "channel": 2,
      "note": 50,
      "start": 18.6071,
      "duration": 0.1823,
      "velocity": 97,
      "chip": "ym2612"
    },
    {
      "channel": 3,
      "note": 50,
      "start": 18.6075,
      "duration": 0.0528,
      "velocity": 96,
      "chip": "ym2612"
    },
    {
      "channel": 1,
      "note": 52,
      "start": 18.6124,
      "duration": 0.0475,
      "velocity": 103,
      "chip": "ym2612"
    },
    {
      "channel": 1,
      "note": 50,
      "start": 18.6601,
      "duration": 0.0054,
      "velocity": 103,
      "chip": "ym2612"
    },
    {
      "channel": 3,
      "note": 50,
      "start": 18.6605,
      "duration": 0.0053,
      "velocity": 96,
      "chip": "ym2612"
    },
    {
      "channel": 1,
      "note": 54,
      "start": 18.6657,
      "duration": 0.0059,
      "velocity": 103,
      "chip": "ym2612"
    },
    {
      "channel": 3,
      "note": 50,
      "start": 18.666,
      "duration": 0.0107,
      "velocity": 96,
      "chip": "ym2612"
    },
    {
      "channel": 1,
      "note": 50,
      "start": 18.6717,
      "duration": 0.0046,
      "velocity": 103,
      "chip": "ym2612"
    },
    {
      "channel": 1,
      "note": 56,
      "start": 18.6765,
      "duration": 0.006,
      "velocity": 103,
      "chip": "ym2612"
    },
    {
      "channel": 3,
      "note": 50,
      "start": 18.6768,
      "duration": 0.006,
      "velocity": 96,
      "chip": "ym2612"
    },
    {
      "channel": 1,
      "note": 50,
      "start": 18.6828,
      "duration": 0.0054,
      "velocity": 103,
      "chip": "ym2612"
    },
    {
      "channel": 3,
      "note": 50,
      "start": 18.683,
      "duration": 0.0117,
      "velocity": 96,
      "chip": "ym2612"
    },
    {
      "channel": 1,
      "note": 57,
      "start": 18.6885,
      "duration": 0.006,
      "velocity": 103,
      "chip": "ym2612"
    },
    {
      "channel": 0,
      "note": 81,
      "start": 18.6944,
      "duration": 0.0061,
      "velocity": 108,
      "chip": "ym2612"
    },
    {
      "channel": 1,
      "note": 50,
      "start": 18.6946,
      "duration": 0.0062,
      "velocity": 103,
      "chip": "ym2612"
    },
    {
      "channel": 3,
      "note": 50,
      "start": 18.695,
      "duration": 0.0542,
      "velocity": 96,
      "chip": "ym2612"
    },
    {
      "channel": 4,
      "note": 81,
      "start": 18.6989,
      "duration": 0.0167,
      "velocity": 108,
      "chip": "ym2612"
    },
    {
      "channel": 0,
      "note": 93,
      "start": 18.7007,
      "duration": 0.0478,
      "velocity": 108,
      "chip": "ym2612"
    },
    {
      "channel": 1,
      "note": 52,
      "start": 18.7009,
      "duration": 0.0478,
      "velocity": 103,
      "chip": "ym2612"
    },
    {
      "channel": 4,
      "note": 93,
      "start": 18.7158,
      "duration": 0.0378,
      "velocity": 108,
      "chip": "ym2612"
    },
    {
      "channel": 0,
      "note": 85,
      "start": 18.7487,
      "duration": 0.0068,
      "velocity": 108,
      "chip": "ym2612"
    },
    {
      "channel": 1,
      "note": 50,
      "start": 18.7489,
      "duration": 0.0069,
      "velocity": 103,
      "chip": "ym2612"
    },
    {
      "channel": 3,
      "note": 50,
      "start": 18.7493,
      "duration": 0.0139,
      "velocity": 96,
      "chip": "ym2612"
    },
    {
      "channel": 4,
      "note": 85,
      "start": 18.7539,
      "duration": 0.0069,
      "velocity": 108,
      "chip": "ym2612"
    },
    {
      "channel": 0,
      "note": 78,
      "start": 18.7558,
      "duration": 0.0068,
      "velocity": 108,
      "chip": "ym2612"
    },
    {
      "channel": 1,
      "note": 54,
      "start": 18.7561,
      "duration": 0.0069,
      "velocity": 103,
      "chip": "ym2612"
    },
    {
      "channel": 4,
      "note": 78,
      "start": 18.761,
      "duration": 0.0059,
      "velocity": 108,
      "chip": "ym2612"
    },
    {
      "channel": 0,
      "note": 85,
      "start": 18.7629,
      "duration": 0.0056,
      "velocity": 108,
      "chip": "ym2612"
    },
    {
      "channel": 1,
      "note": 50,
      "start": 18.7631,
      "duration": 0.0057,
      "velocity": 103,
      "chip": "ym2612"
    },
    {
      "channel": 4,
      "note": 85,
      "start": 18.767,
      "duration": 0.0062,
      "velocity": 108,
      "chip": "ym2612"
    },
    {
      "channel": 0,
      "note": 69,
      "start": 18.7688,
      "duration": 0.0069,
      "velocity": 108,
      "chip": "ym2612"
    },
    {
      "channel": 1,
      "note": 56,
      "start": 18.7691,
      "duration": 0.0068,
      "velocity": 103,
      "chip": "ym2612"
    },
    {
      "channel": 4,
      "note": 69,
      "start": 18.7735,
      "duration": 0.0065,
      "velocity": 108,
      "chip": "ym2612"
    },
    {
      "channel": 0,
      "note": 76,
      "start": 18.7759,
      "duration": 0.006,
      "velocity": 108,
      "chip": "ym2612"
    },
    {
      "channel": 1,
      "note": 50,
      "start": 18.7761,
      "duration": 0.0061,
      "velocity": 103,
      "chip": "ym2612"
    },
    {
      "channel": 4,
      "note": 76,
      "start": 18.7801,
      "duration": 0.0065,
      "velocity": 108,
      "chip": "ym2612"
    },
    {
      "channel": 0,
      "note": 88,
      "start": 18.7822,
      "duration": 0.0068,
      "velocity": 108,
      "chip": "ym2612"
    },
    {
      "channel": 1,
      "note": 57,
      "start": 18.7824,
      "duration": 0.0067,
      "velocity": 103,
      "chip": "ym2612"
    },
    {
      "channel": 4,
      "note": 88,
      "start": 18.7868,
      "duration": 0.0068,
      "velocity": 108,
      "chip": "ym2612"
    },
    {
      "channel": 1,
      "note": 50,
      "start": 18.7892,
      "duration": 0.0059,
      "velocity": 103,
      "chip": "ym2612"
    },
    {
      "channel": 2,
      "note": 50,
      "start": 18.7895,
      "duration": 0.1733,
      "velocity": 97,
      "chip": "ym2612"
    },
    {
      "channel": 3,
      "note": 50,
      "start": 18.7898,
      "duration": 0.0529,
      "velocity": 96,
      "chip": "ym2612"
    },
    {
      "channel": 1,
      "note": 52,
      "start": 18.7952,
      "duration": 0.0471,
      "velocity": 103,
      "chip": "ym2612"
    },
    {
      "channel": 1,
      "note": 50,
      "start": 18.8426,
      "duration": 0.0052,
      "velocity": 103,
      "chip": "ym2612"
    },
    {
      "channel": 3,
      "note": 50,
      "start": 18.8429,
      "duration": 0.0052,
      "velocity": 96,
      "chip": "ym2612"
    },
    {
      "channel": 1,
      "note": 54,
      "start": 18.848,
      "duration": 0.0057,
      "velocity": 103,
      "chip": "ym2612"
    },
    {
      "channel": 3,
      "note": 50,
      "start": 18.8482,
      "duration": 0.0104,
      "velocity": 96,
      "chip": "ym2612"
    },
    {
      "channel": 1,
      "note": 50,
      "start": 18.8539,
      "duration": 0.0044,
      "velocity": 103,
      "chip": "ym2612"
    },
    {
      "channel": 1,
      "note": 56,
      "start": 18.8584,
      "duration": 0.0059,
      "velocity": 103,
      "chip": "ym2612"
    },
    {
      "channel": 3,
      "note": 50,
      "start": 18.8587,
      "duration": 0.0059,
      "velocity": 96,
      "chip": "ym2612"
    },
    {
      "channel": 1,
      "note": 50,
      "start": 18.8646,
      "duration": 0.0054,
      "velocity": 103,
      "chip": "ym2612"
    },
    {
      "channel": 3,
      "note": 50,
      "start": 18.8649,
      "duration": 0.0113,
      "velocity": 96,
      "chip": "ym2612"
    },
    {
      "channel": 1,
      "note": 57,
      "start": 18.8703,
      "duration": 0.0055,
      "velocity": 103,
      "chip": "ym2612"
    },
    {
      "channel": 1,
      "note": 50,
      "start": 18.876,
      "duration": 0.005,
      "velocity": 103,
      "chip": "ym2612"
    },
    {
      "channel": 3,
      "note": 50,
      "start": 18.8763,
      "duration": 0.0528,
      "velocity": 96,
      "chip": "ym2612"
    },
    {
      "channel": 1,
      "note": 52,
      "start": 18.881,
      "duration": 0.0476,
      "velocity": 103,
      "chip": "ym2612"
    },
    {
      "channel": 1,
      "note": 50,
      "start": 18.9289,
      "duration": 0.0052,
      "velocity": 103,
      "chip": "ym2612"
    },
    {
      "channel": 3,
      "note": 50,
      "start": 18.9293,
      "duration": 0.0112,
      "velocity": 96,
      "chip": "ym2612"
    },
    {
      "channel": 1,
      "note": 54,
      "start": 18.9344,
      "duration": 0.0057,
      "velocity": 103,
      "chip": "ym2612"
    },
    {
      "channel": 1,
      "note": 50,
      "start": 18.9402,
      "duration": 0.004,
      "velocity": 103,
      "chip": "ym2612"
    },
    {
      "channel": 1,
      "note": 56,
      "start": 18.9444,
      "duration": 0.0064,
      "velocity": 103,
      "chip": "ym2612"
    },
    {
      "channel": 1,
      "note": 50,
      "start": 18.9511,
      "duration": 0.0054,
      "velocity": 103,
      "chip": "ym2612"
    },
    {
      "channel": 1,
      "note": 57,
      "start": 18.9568,
      "duration": 0.0056,
      "velocity": 103,
      "chip": "ym2612"
    },
    {
      "channel": 1,
      "note": 50,
      "start": 18.9626,
      "duration": 0.0055,
      "velocity": 103,
      "chip": "ym2612"
    },
    {
      "channel": 2,
      "note": 50,
      "start": 18.9628,
      "duration": 0.1706,
      "velocity": 97,
      "chip": "ym2612"
    },
    {
      "channel": 3,
      "note": 50,
      "start": 18.9631,
      "duration": 0.0531,
      "velocity": 96,
      "chip": "ym2612"
    },
    {
      "channel": 1,
      "note": 52,
      "start": 18.9683,
      "duration": 0.0475,
      "velocity": 103,
      "chip": "ym2612"
    },
    {
      "channel": 1,
      "note": 50,
      "start": 19.016,
      "duration": 0.0054,
      "velocity": 103,
      "chip": "ym2612"
    },
    {
      "channel": 3,
      "note": 50,
      "start": 19.0164,
      "duration": 0.0053,
      "velocity": 96,
      "chip": "ym2612"
    },
    {
      "channel": 1,
      "note": 54,
      "start": 19.0216,
      "duration": 0.0057,
      "velocity": 103,
      "chip": "ym2612"
    },
    {
      "channel": 3,
      "note": 50,
      "start": 19.0219,
      "duration": 0.0107,
      "velocity": 96,
      "chip": "ym2612"
    },
    {
      "channel": 1,
      "note": 50,
      "start": 19.0275,
      "duration": 0.0047,
      "velocity": 103,
      "chip": "ym2612"
    },
    {
      "channel": 1,
      "note": 56,
      "start": 19.0324,
      "duration": 0.0061,
      "velocity": 103,
      "chip": "ym2612"
    },
    {
      "channel": 3,
      "note": 50,
      "start": 19.0328,
      "duration": 0.0061,
      "velocity": 96,
      "chip": "ym2612"
    },
    {
      "channel": 1,
      "note": 50,
      "start": 19.0387,
      "duration": 0.0056,
      "velocity": 103,
      "chip": "ym2612"
    },
    {
      "channel": 3,
      "note": 50,
      "start": 19.039,
      "duration": 0.0117,
      "velocity": 96,
      "chip": "ym2612"
    },
    {
      "channel": 1,
      "note": 57,
      "start": 19.0445,
      "duration": 0.0059,
      "velocity": 103,
      "chip": "ym2612"
    },
    {
      "channel": 1,
      "note": 50,
      "start": 19.0505,
      "duration": 0.0052,
      "velocity": 103,
      "chip": "ym2612"
    },
    {
      "channel": 3,
      "note": 50,
      "start": 19.0509,
      "duration": 0.053,
      "velocity": 96,
      "chip": "ym2612"
    },
    {
      "channel": 1,
      "note": 52,
      "start": 19.0559,
      "duration": 0.0476,
      "velocity": 103,
      "chip": "ym2612"
    },
    {
      "channel": 1,
      "note": 50,
      "start": 19.1037,
      "duration": 0.0054,
      "velocity": 103,
      "chip": "ym2612"
    },
    {
      "channel": 3,
      "note": 50,
      "start": 19.1041,
      "duration": 0.0111,
      "velocity": 96,
      "chip": "ym2612"
    },
    {
      "channel": 1,
      "note": 54,
      "start": 19.1093,
      "duration": 0.0055,
      "velocity": 103,
      "chip": "ym2612"
    },
    {
      "channel": 1,
      "note": 50,
      "start": 19.115,
      "duration": 0.0039,
      "velocity": 103,
      "chip": "ym2612"
    },
    {
      "channel": 1,
      "note": 56,
      "start": 19.1191,
      "duration": 0.0063,
      "velocity": 103,
      "chip": "ym2612"
    },
    {
      "channel": 1,
      "note": 50,
      "start": 19.1256,
      "duration": 0.005,
      "velocity": 103,
      "chip": "ym2612"
    },
    {
      "channel": 1,
      "note": 57,
      "start": 19.1309,
      "duration": 0.0053,
      "velocity": 103,
      "chip": "ym2612"
    },
    {
      "channel": 1,
      "note": 53,
      "start": 19.1364,
      "duration": 0.0052,
      "velocity": 103,
      "chip": "ym2612"
    },
    {
      "channel": 2,
      "note": 53,
      "start": 19.1368,
      "duration": 0.0702,
      "velocity": 97,
      "chip": "ym2612"
    },
    {
      "channel": 3,
      "note": 41,
      "start": 19.1371,
      "duration": 0.0524,
      "velocity": 96,
      "chip": "ym2612"
    },
    {
      "channel": 1,
      "note": 54,
      "start": 19.1417,
      "duration": 0.0473,
      "velocity": 103,
      "chip": "ym2612"
    },
    {
      "channel": 1,
      "note": 53,
      "start": 19.1893,
      "duration": 0.0052,
      "velocity": 103,
      "chip": "ym2612"
    },
    {
      "channel": 3,
      "note": 41,
      "start": 19.1897,
      "duration": 0.0052,
      "velocity": 96,
      "chip": "ym2612"
    },
    {
      "channel": 1,
      "note": 56,
      "start": 19.1947,
      "duration": 0.0058,
      "velocity": 103,
      "chip": "ym2612"
    },
    {
      "channel": 3,
      "note": 41,
      "start": 19.1951,
      "duration": 0.0104,
      "velocity": 96,
      "chip": "ym2612"
    },
    {
      "channel": 1,
      "note": 53,
      "start": 19.2007,
      "duration": 0.0044,
      "velocity": 103,
      "chip": "ym2612"
    },
    {
      "channel": 1,
      "note": 57,
      "start": 19.2053,
      "duration": 0.006,
      "velocity": 103,
      "chip": "ym2612"
    },
    {
      "channel": 3,
      "note": 41,
      "start": 19.2056,
      "duration": 0.006,
      "velocity": 96,
      "chip": "ym2612"
    },
    {
      "channel": 2,
      "note": 53,
      "start": 19.207,
      "duration": 0.0731,
      "velocity": 97,
      "chip": "ym2612"
    },
    {
      "channel": 1,
      "note": 53,
      "start": 19.2115,
      "duration": 0.0056,
      "velocity": 103,
      "chip": "ym2612"
    },
    {
      "channel": 3,
      "note": 41,
      "start": 19.2118,
      "duration": 0.0117,
      "velocity": 96,
      "chip": "ym2612"
    },
    {
      "channel": 1,
      "note": 60,
      "start": 19.2172,
      "duration": 0.0059,
      "velocity": 103,
      "chip": "ym2612"
    },
    {
      "channel": 1,
      "note": 53,
      "start": 19.2233,
      "duration": 0.005,
      "velocity": 103,
      "chip": "ym2612"
    },
    {
      "channel": 3,
      "note": 41,
      "start": 19.2237,
      "duration": 0.053,
      "velocity": 96,
      "chip": "ym2612"
    },
    {
      "channel": 1,
      "note": 54,
      "start": 19.2285,
      "duration": 0.0478,
      "velocity": 103,
      "chip": "ym2612"
    },
    {
      "channel": 1,
      "note": 53,
      "start": 19.2765,
      "duration": 0.0058,
      "velocity": 103,
      "chip": "ym2612"
    },
    {
      "channel": 3,
      "note": 41,
      "start": 19.2769,
      "duration": 0.0114,
      "velocity": 96,
      "chip": "ym2612"
    },
    {
      "channel": 2,
      "note": 53,
      "start": 19.2801,
      "duration": 0.0295,
      "velocity": 97,
      "chip": "ym2612"
    },
    {
      "channel": 1,
      "note": 56,
      "start": 19.2825,
      "duration": 0.0054,
      "velocity": 103,
      "chip": "ym2612"
    },
    {
      "channel": 1,
      "note": 53,
      "start": 19.2881,
      "duration": 0.004,
      "velocity": 103,
      "chip": "ym2612"
    },
    {
      "channel": 1,
      "note": 57,
      "start": 19.2922,
      "duration": 0.0063,
      "velocity": 103,
      "chip": "ym2612"
    },
    {
      "channel": 1,
      "note": 53,
      "start": 19.2989,
      "duration": 0.005,
      "velocity": 103,
      "chip": "ym2612"
    },
    {
      "channel": 1,
      "note": 60,
      "start": 19.3041,
      "duration": 0.0052,
      "velocity": 103,
      "chip": "ym2612"
    },
    {
      "channel": 1,
      "note": 53,
      "start": 19.3094,
      "duration": 0.0054,
      "velocity": 103,
      "chip": "ym2612"
    },
    {
      "channel": 2,
      "note": 53,
      "start": 19.3096,
      "duration": 0.1822,
      "velocity": 97,
      "chip": "ym2612"
    },
    {
      "channel": 3,
      "note": 41,
      "start": 19.31,
      "duration": 0.0528,
      "velocity": 96,
      "chip": "ym2612"
    },
    {
      "channel": 1,
      "note": 54,
      "start": 19.3149,
      "duration": 0.0475,
      "velocity": 103,
      "chip": "ym2612"
    },
    {
      "channel": 1,
      "note": 53,
      "start": 19.3626,
      "duration": 0.0054,
      "velocity": 103,
      "chip": "ym2612"
    },
    {
      "channel": 3,
      "note": 41,
      "start": 19.363,
      "duration": 0.0053,
      "velocity": 96,
      "chip": "ym2612"
    },
    {
      "channel": 1,
      "note": 56,
      "start": 19.3682,
      "duration": 0.0059,
      "velocity": 103,
      "chip": "ym2612"
    },
    {
      "channel": 3,
      "note": 41,
      "start": 19.3685,
      "duration": 0.0107,
      "velocity": 96,
      "chip": "ym2612"
    },
    {
      "channel": 1,
      "note": 53,
      "start": 19.3742,
      "duration": 0.0046,
      "velocity": 103,
      "chip": "ym2612"
    },
    {
      "channel": 1,
      "note": 57,
      "start": 19.379,
      "duration": 0.006,
      "velocity": 103,
      "chip": "ym2612"
    },
    {
      "channel": 3,
      "note": 41,
      "start": 19.3793,
      "duration": 0.006,
      "velocity": 96,
      "chip": "ym2612"
    },
    {
      "channel": 1,
      "note": 53,
      "start": 19.3853,
      "duration": 0.0054,
      "velocity": 103,
      "chip": "ym2612"
    },
    {
      "channel": 3,
      "note": 41,
      "start": 19.3855,
      "duration": 0.0117,
      "velocity": 96,
      "chip": "ym2612"
    },
    {
      "channel": 1,
      "note": 60,
      "start": 19.391,
      "duration": 0.006,
      "velocity": 103,
      "chip": "ym2612"
    },
    {
      "channel": 0,
      "note": 81,
      "start": 19.3969,
      "duration": 0.0061,
      "velocity": 108,
      "chip": "ym2612"
    },
    {
      "channel": 1,
      "note": 53,
      "start": 19.3971,
      "duration": 0.0062,
      "velocity": 103,
      "chip": "ym2612"
    },
    {
      "channel": 3,
      "note": 41,
      "start": 19.3975,
      "duration": 0.0542,
      "velocity": 96,
      "chip": "ym2612"
    },
    {
      "channel": 4,
      "note": 81,
      "start": 19.4014,
      "duration": 0.0167,
      "velocity": 108,
      "chip": "ym2612"
    },
    {
      "channel": 0,
      "note": 93,
      "start": 19.4032,
      "duration": 0.0478,
      "velocity": 108,
      "chip": "ym2612"
    },
    {
      "channel": 1,
      "note": 54,
      "start": 19.4034,
      "duration": 0.0478,
      "velocity": 103,
      "chip": "ym2612"
    },
    {
      "channel": 4,
      "note": 93,
      "start": 19.4183,
      "duration": 0.0378,
      "velocity": 108,
      "chip": "ym2612"
    },
    {
      "channel": 0,
      "note": 85,
      "start": 19.4512,
      "duration": 0.0068,
      "velocity": 108,
      "chip": "ym2612"
    },
    {
      "channel": 1,
      "note": 53,
      "start": 19.4514,
      "duration": 0.0069,
      "velocity": 103,
      "chip": "ym2612"
    },
    {
      "channel": 3,
      "note": 41,
      "start": 19.4518,
      "duration": 0.0139,
      "velocity": 96,
      "chip": "ym2612"
    },
    {
      "channel": 4,
      "note": 85,
      "start": 19.4564,
      "duration": 0.0069,
      "velocity": 108,
      "chip": "ym2612"
    },
    {
      "channel": 0,
      "note": 78,
      "start": 19.4583,
      "duration": 0.0068,
      "velocity": 108,
      "chip": "ym2612"
    },
    {
      "channel": 1,
      "note": 56,
      "start": 19.4585,
      "duration": 0.0069,
      "velocity": 103,
      "chip": "ym2612"
    },
    {
      "channel": 4,
      "note": 78,
      "start": 19.4634,
      "duration": 0.0059,
      "velocity": 108,
      "chip": "ym2612"
    },
    {
      "channel": 0,
      "note": 85,
      "start": 19.4654,
      "duration": 0.0056,
      "velocity": 108,
      "chip": "ym2612"
    },
    {
      "channel": 1,
      "note": 53,
      "start": 19.4656,
      "duration": 0.0057,
      "velocity": 103,
      "chip": "ym2612"
    },
    {
      "channel": 4,
      "note": 85,
      "start": 19.4695,
      "duration": 0.0062,
      "velocity": 108,
      "chip": "ym2612"
    },
    {
      "channel": 0,
      "note": 69,
      "start": 19.4713,
      "duration": 0.0069,
      "velocity": 108,
      "chip": "ym2612"
    },
    {
      "channel": 1,
      "note": 57,
      "start": 19.4716,
      "duration": 0.0068,
      "velocity": 103,
      "chip": "ym2612"
    },
    {
      "channel": 4,
      "note": 69,
      "start": 19.476,
      "duration": 0.0065,
      "velocity": 108,
      "chip": "ym2612"
    },
    {
      "channel": 0,
      "note": 76,
      "start": 19.4784,
      "duration": 0.006,
      "velocity": 108,
      "chip": "ym2612"
    },
    {
      "channel": 1,
      "note": 53,
      "start": 19.4786,
      "duration": 0.0061,
      "velocity": 103,
      "chip": "ym2612"
    },
    {
      "channel": 4,
      "note": 76,
      "start": 19.4826,
      "duration": 0.0065,
      "velocity": 108,
      "chip": "ym2612"
    },
    {
      "channel": 0,
      "note": 88,
      "start": 19.4847,
      "duration": 0.0068,
      "velocity": 108,
      "chip": "ym2612"
    },
    {
      "channel": 1,
      "note": 60,
      "start": 19.4849,
      "duration": 0.0067,
      "velocity": 103,
      "chip": "ym2612"
    },
    {
      "channel": 4,
      "note": 88,
      "start": 19.4893,
      "duration": 0.007,
      "velocity": 108,
      "chip": "ym2612"
    },
    {
      "channel": 1,
      "note": 53,
      "start": 19.4917,
      "duration": 0.0059,
      "velocity": 103,
      "chip": "ym2612"
    },
    {
      "channel": 2,
      "note": 57,
      "start": 19.492,
      "duration": 0.0705,
      "velocity": 97,
      "chip": "ym2612"
    },
    {
      "channel": 3,
      "note": 41,
      "start": 19.4922,
      "duration": 0.0529,
      "velocity": 96,
      "chip": "ym2612"
    },
    {
      "channel": 1,
      "note": 54,
      "start": 19.4977,
      "duration": 0.047,
      "velocity": 103,
      "chip": "ym2612"
    },
    {
      "channel": 1,
      "note": 53,
      "start": 19.545,
      "duration": 0.0051,
      "velocity": 103,
      "chip": "ym2612"
    },
    {
      "channel": 3,
      "note": 41,
      "start": 19.5453,
      "duration": 0.0052,
      "velocity": 96,
      "chip": "ym2612"
    },
    {
      "channel": 1,
      "note": 56,
      "start": 19.5504,
      "duration": 0.0057,
      "velocity": 103,
      "chip": "ym2612"
    },
    {
      "channel": 3,
      "note": 41,
      "start": 19.5506,
      "duration": 0.0104,
      "velocity": 96,
      "chip": "ym2612"
    },
    {
      "channel": 1,
      "note": 53,
      "start": 19.5563,
      "duration": 0.0044,
      "velocity": 103,
      "chip": "ym2612"
    },
    {
      "channel": 1,
      "note": 57,
      "start": 19.5609,
      "duration": 0.006,
      "velocity": 103,
      "chip": "ym2612"
    },
    {
      "channel": 3,
      "note": 41,
      "start": 19.5612,
      "duration": 0.0061,
      "velocity": 96,
      "chip": "ym2612"
    },
    {
      "channel": 2,
      "note": 57,
      "start": 19.5626,
      "duration": 0.0731,
      "velocity": 97,
      "chip": "ym2612"
    },
    {
      "channel": 1,
      "note": 53,
      "start": 19.5671,
      "duration": 0.0056,
      "velocity": 103,
      "chip": "ym2612"
    },
    {
      "channel": 3,
      "note": 41,
      "start": 19.5674,
      "duration": 0.0117,
      "velocity": 96,
      "chip": "ym2612"
    },
    {
      "channel": 1,
      "note": 60,
      "start": 19.5729,
      "duration": 0.0059,
      "velocity": 103,
      "chip": "ym2612"
    },
    {
      "channel": 1,
      "note": 53,
      "start": 19.5789,
      "duration": 0.0052,
      "velocity": 103,
      "chip": "ym2612"
    },
    {
      "channel": 3,
      "note": 41,
      "start": 19.5793,
      "duration": 0.053,
      "velocity": 96,
      "chip": "ym2612"
    },
    {
      "channel": 1,
      "note": 54,
      "start": 19.5843,
      "duration": 0.0476,
      "velocity": 103,
      "chip": "ym2612"
    },
    {
      "channel": 1,
      "note": 53,
      "start": 19.6321,
      "duration": 0.0058,
      "velocity": 103,
      "chip": "ym2612"
    },
    {
      "channel": 3,
      "note": 41,
      "start": 19.6324,
      "duration": 0.0114,
      "velocity": 96,
      "chip": "ym2612"
    },
    {
      "channel": 2,
      "note": 57,
      "start": 19.6357,
      "duration": 0.0296,
      "velocity": 97,
      "chip": "ym2612"
    },
    {
      "channel": 1,
      "note": 56,
      "start": 19.6381,
      "duration": 0.0054,
      "velocity": 103,
      "chip": "ym2612"
    },
    {
      "channel": 1,
      "note": 53,
      "start": 19.6437,
      "duration": 0.004,
      "velocity": 103,
      "chip": "ym2612"
    },
    {
      "channel": 1,
      "note": 57,
      "start": 19.6478,
      "duration": 0.0063,
      "velocity": 103,
      "chip": "ym2612"
    },
    {
      "channel": 1,
      "note": 53,
      "start": 19.6544,
      "duration": 0.005,
      "velocity": 103,
      "chip": "ym2612"
    },
    {
      "channel": 1,
      "note": 60,
      "start": 19.6597,
      "duration": 0.0053,
      "velocity": 103,
      "chip": "ym2612"
    },
    {
      "channel": 1,
      "note": 53,
      "start": 19.6652,
      "duration": 0.0052,
      "velocity": 103,
      "chip": "ym2612"
    },
    {
      "channel": 2,
      "note": 57,
      "start": 19.6654,
      "duration": 0.1582,
      "velocity": 97,
      "chip": "ym2612"
    },
    {
      "channel": 3,
      "note": 41,
      "start": 19.6656,
      "duration": 0.0529,
      "velocity": 96,
      "chip": "ym2612"
    },
    {
      "channel": 1,
      "note": 54,
      "start": 19.6705,
      "duration": 0.0476,
      "velocity": 103,
      "chip": "ym2612"
    },
    {
      "channel": 1,
      "note": 53,
      "start": 19.7184,
      "duration": 0.0048,
      "velocity": 103,
      "chip": "ym2612"
    },
    {
      "channel": 3,
      "note": 41,
      "start": 19.7187,
      "duration": 0.0049,
      "velocity": 96,
      "chip": "ym2612"
    },
    {
      "channel": 1,
      "note": 56,
      "start": 19.7234,
      "duration": 0.0061,
      "velocity": 103,
      "chip": "ym2612"
    },
    {
      "channel": 3,
      "note": 41,
      "start": 19.7238,
      "duration": 0.0108,
      "velocity": 96,
      "chip": "ym2612"
    },
    {
      "channel": 1,
      "note": 53,
      "start": 19.7298,
      "duration": 0.0045,
      "velocity": 103,
      "chip": "ym2612"
    },
    {
      "channel": 1,
      "note": 57,
      "start": 19.7344,
      "duration": 0.0044,
      "velocity": 103,
      "chip": "ym2612"
    },
    {
      "channel": 3,
      "note": 41,
      "start": 19.7347,
      "duration": 0.0044,
      "velocity": 96,
      "chip": "ym2612"
    },
    {
      "channel": 1,
      "note": 53,
      "start": 19.7389,
      "duration": 0.0049,
      "velocity": 103,
      "chip": "ym2612"
    },
    {
      "channel": 3,
      "note": 41,
      "start": 19.7394,
      "duration": 0.0424,
      "velocity": 96,
      "chip": "ym2612"
    },
    {
      "channel": 1,
      "note": 60,
      "start": 19.7439,
      "duration": 0.0375,
      "velocity": 103,
      "chip": "ym2612"
    },
    {
      "channel": 1,
      "note": 53,
      "start": 19.7816,
      "duration": 0.0049,
      "velocity": 103,
      "chip": "ym2612"
    },
    {
      "channel": 3,
      "note": 41,
      "start": 19.7819,
      "duration": 0.0102,
      "velocity": 96,
      "chip": "ym2612"
    },
    {
      "channel": 1,
      "note": 54,
      "start": 19.7867,
      "duration": 0.0049,
      "velocity": 103,
      "chip": "ym2612"
    },
    {
      "channel": 1,
      "note": 53,
      "start": 19.7919,
      "duration": 0.0052,
      "velocity": 103,
      "chip": "ym2612"
    },
    {
      "channel": 3,
      "note": 41,
      "start": 19.7922,
      "duration": 0.0105,
      "velocity": 96,
      "chip": "ym2612"
    },
    {
      "channel": 1,
      "note": 56,
      "start": 19.7973,
      "duration": 0.0049,
      "velocity": 103,
      "chip": "ym2612"
    },
    {
      "channel": 1,
      "note": 53,
      "start": 19.8025,
      "duration": 0.0046,
      "velocity": 103,
      "chip": "ym2612"
    },
    {
      "channel": 1,
      "note": 57,
      "start": 19.8074,
      "duration": 0.0044,
      "velocity": 103,
      "chip": "ym2612"
    },
    {
      "channel": 1,
      "note": 53,
      "start": 19.8121,
      "duration": 0.0046,
      "velocity": 103,
      "chip": "ym2612"
    },
    {
      "channel": 1,
      "note": 60,
      "start": 19.8169,
      "duration": 0.0057,
      "velocity": 103,
      "chip": "ym2612"
    },
    {
      "channel": 0,
      "note": 70,
      "start": 19.8225,
      "duration": 0.1725,
      "velocity": 97,
      "chip": "ym2612"
    },
    {
      "channel": 1,
      "note": 46,
      "start": 19.8227,
      "duration": 0.0088,
      "velocity": 103,
      "chip": "ym2612"
    },
    {
      "channel": 2,
      "note": 70,
      "start": 19.8237,
      "duration": 0.2006,
      "velocity": 97,
      "chip": "ym2612"
    },
    {
      "channel": 3,
      "note": 46,
      "start": 19.824,
      "duration": 0.0537,
      "velocity": 96,
      "chip": "ym2612"
    },
    {
      "channel": 4,
      "note": 70,
      "start": 19.8296,
      "duration": 0.1706,
      "velocity": 97,
      "chip": "ym2612"
    },
    {
      "channel": 1,
      "note": 48,
      "start": 19.8316,
      "duration": 0.0458,
      "velocity": 103,
      "chip": "ym2612"
    },
    {
      "channel": 1,
      "note": 46,
      "start": 19.8776,
      "duration": 0.0072,
      "velocity": 103,
      "chip": "ym2612"
    },
    {
      "channel": 3,
      "note": 46,
      "start": 19.8778,
      "duration": 0.0073,
      "velocity": 96,
      "chip": "ym2612"
    },
    {
      "channel": 1,
      "note": 49,
      "start": 19.885,
      "duration": 0.0078,
      "velocity": 103,
      "chip": "ym2612"
    },
    {
      "channel": 3,
      "note": 46,
      "start": 19.8853,
      "duration": 0.0154,
      "velocity": 96,
      "chip": "ym2612"
    },
    {
      "channel": 1,
      "note": 46,
      "start": 19.8931,
      "duration": 0.0072,
      "velocity": 103,
      "chip": "ym2612"
    },
    {
      "channel": 1,
      "note": 51,
      "start": 19.9005,
      "duration": 0.0077,
      "velocity": 103,
      "chip": "ym2612"
    },
    {
      "channel": 3,
      "note": 46,
      "start": 19.9008,
      "duration": 0.0077,
      "velocity": 96,
      "chip": "ym2612"
    },
    {
      "channel": 1,
      "note": 46,
      "start": 19.9084,
      "duration": 0.0075,
      "velocity": 103,
      "chip": "ym2612"
    },
    {
      "channel": 3,
      "note": 46,
      "start": 19.9087,
      "duration": 0.0155,
      "velocity": 96,
      "chip": "ym2612"
    },
    {
      "channel": 1,
      "note": 53,
      "start": 19.9161,
      "duration": 0.0078,
      "velocity": 103,
      "chip": "ym2612"
    },
    {
      "channel": 1,
      "note": 46,
      "start": 19.924,
      "duration": 0.0076,
      "velocity": 103,
      "chip": "ym2612"
    },
    {
      "channel": 3,
      "note": 46,
      "start": 19.9244,
      "duration": 0.0557,
      "velocity": 96,
      "chip": "ym2612"
    },
    {
      "channel": 1,
      "note": 48,
      "start": 19.9318,
      "duration": 0.048,
      "velocity": 103,
      "chip": "ym2612"
    },
    {
      "channel": 1,
      "note": 46,
      "start": 19.9799,
      "duration": 0.0073,
      "velocity": 103,
      "chip": "ym2612"
    },
    {
      "channel": 3,
      "note": 46,
      "start": 19.9802,
      "duration": 0.0154,
      "velocity": 96,
      "chip": "ym2612"
    },
    {
      "channel": 1,
      "note": 49,
      "start": 19.9875,
      "duration": 0.0079,
      "velocity": 103,
      "chip": "ym2612"
    },
    {
      "channel": 0,
      "note": 73,
      "start": 19.9953,
      "duration": 0.0284,
      "velocity": 97,
      "chip": "ym2612"
    },
    {
      "channel": 1,
      "note": 46,
      "start": 19.9955,
      "duration": 0.0067,
      "velocity": 103,
      "chip": "ym2612"
    },
    {
      "channel": 4,
      "note": 73,
      "start": 20.0005,
      "duration": 0.0292,
      "velocity": 97,
      "chip": "ym2612"
    },
    {
      "channel": 1,
      "note": 51,
      "start": 20.0023,
      "duration": 0.0074,
      "velocity": 103,
      "chip": "ym2612"
    },
    {
      "channel": 1,
      "note": 46,
      "start": 20.0099,
      "duration": 0.0071,
      "velocity": 103,
      "chip": "ym2612"
    },
    {
      "channel": 1,
      "note": 53,
      "start": 20.0173,
      "duration": 0.0068,
      "velocity": 103,
      "chip": "ym2612"
    },
    {
      "channel": 0,
      "note": 72,
      "start": 20.0239,
      "duration": 0.2019,
      "velocity": 97,
      "chip": "ym2612"
    },
    {
      "channel": 1,
      "note": 46,
      "start": 20.0243,
      "duration": 0.0076,
      "velocity": 103,
      "chip": "ym2612"
    },
    {
      "channel": 2,
      "note": 70,
      "start": 20.0245,
      "duration": 0.173,
      "velocity": 97,
      "chip": "ym2612"
    },
    {
      "channel": 3,
      "note": 46,
      "start": 20.0246,
      "duration": 0.0558,
      "velocity": 96,
      "chip": "ym2612"
    },
    {
      "channel": 4,
      "note": 72,
      "start": 20.0298,
      "duration": 0.2017,
      "velocity": 97,
      "chip": "ym2612"
    },
    {
      "channel": 1,
      "note": 48,
      "start": 20.0321,
      "duration": 0.0481,
      "velocity": 103,
      "chip": "ym2612"
    },
    {
      "channel": 1,
      "note": 46,
      "start": 20.0803,
      "duration": 0.0072,
      "velocity": 103,
      "chip": "ym2612"
    },
    {
      "channel": 3,
      "note": 46,
      "start": 20.0806,
      "duration": 0.0073,
      "velocity": 96,
      "chip": "ym2612"
    },
    {
      "channel": 1,
      "note": 49,
      "start": 20.0878,
      "duration": 0.0078,
      "velocity": 103,
      "chip": "ym2612"
    },
    {
      "channel": 3,
      "note": 46,
      "start": 20.088,
      "duration": 0.0154,
      "velocity": 96,
      "chip": "ym2612"
    },
    {
      "channel": 1,
      "note": 46,
      "start": 20.0958,
      "duration": 0.0073,
      "velocity": 103,
      "chip": "ym2612"
    },
    {
      "channel": 1,
      "note": 51,
      "start": 20.1033,
      "duration": 0.0076,
      "velocity": 103,
      "chip": "ym2612"
    },
    {
      "channel": 3,
      "note": 46,
      "start": 20.1037,
      "duration": 0.0076,
      "velocity": 96,
      "chip": "ym2612"
    },
    {
      "channel": 1,
      "note": 46,
      "start": 20.1111,
      "duration": 0.0075,
      "velocity": 103,
      "chip": "ym2612"
    },
    {
      "channel": 3,
      "note": 46,
      "start": 20.1114,
      "duration": 0.0155,
      "velocity": 96,
      "chip": "ym2612"
    },
    {
      "channel": 1,
      "note": 53,
      "start": 20.1189,
      "duration": 0.0076,
      "velocity": 103,
      "chip": "ym2612"
    },
    {
      "channel": 1,
      "note": 46,
      "start": 20.1267,
      "duration": 0.0073,
      "velocity": 103,
      "chip": "ym2612"
    },
    {
      "channel": 3,
      "note": 46,
      "start": 20.1271,
      "duration": 0.0551,
      "velocity": 96,
      "chip": "ym2612"
    },
    {
      "channel": 1,
      "note": 48,
      "start": 20.1342,
      "duration": 0.0477,
      "velocity": 103,
      "chip": "ym2612"
    },
    {
      "channel": 1,
      "note": 46,
      "start": 20.182,
      "duration": 0.0073,
      "velocity": 103,
      "chip": "ym2612"
    },
    {
      "channel": 3,
      "note": 46,
      "start": 20.1823,
      "duration": 0.0154,
      "velocity": 96,
      "chip": "ym2612"
    },
    {
      "channel": 1,
      "note": 49,
      "start": 20.1896,
      "duration": 0.0076,
      "velocity": 103,
      "chip": "ym2612"
    },
    {
      "channel": 1,
      "note": 46,
      "start": 20.1974,
      "duration": 0.0066,
      "velocity": 103,
      "chip": "ym2612"
    },
    {
      "channel": 2,
      "note": 73,
      "start": 20.1977,
      "duration": 0.0284,
      "velocity": 97,
      "chip": "ym2612"
    },
    {
      "channel": 1,
      "note": 51,
      "start": 20.2042,
      "duration": 0.0075,
      "velocity": 103,
      "chip": "ym2612"
    },
    {
      "channel": 1,
      "note": 46,
      "start": 20.2119,
      "duration": 0.0071,
      "velocity": 103,
      "chip": "ym2612"
    },
    {
      "channel": 1,
      "note": 53,
      "start": 20.2193,
      "duration": 0.0066,
      "velocity": 103,
      "chip": "ym2612"
    },
    {
      "channel": 0,
      "note": 72,
      "start": 20.2258,
      "duration": 0.0707,
      "velocity": 97,
      "chip": "ym2612"
    },
    {
      "channel": 1,
      "note": 46,
      "start": 20.226,
      "duration": 0.0073,
      "velocity": 103,
      "chip": "ym2612"
    },
    {
      "channel": 2,
      "note": 72,
      "start": 20.2263,
      "duration": 0.2017,
      "velocity": 97,
      "chip": "ym2612"
    },
    {
      "channel": 3,
      "note": 46,
      "start": 20.2266,
      "duration": 0.0551,
      "velocity": 96,
      "chip": "ym2612"
    },
    {
      "channel": 4,
      "note": 72,
      "start": 20.2315,
      "duration": 0.071,
      "velocity": 97,
      "chip": "ym2612"
    },
    {
      "channel": 1,
      "note": 48,
      "start": 20.2336,
      "duration": 0.0479,
      "velocity": 103,
      "chip": "ym2612"
    },
    {
      "channel": 1,
      "note": 46,
      "start": 20.2815,
      "duration": 0.0072,
      "velocity": 103,
      "chip": "ym2612"
    },
    {
      "channel": 3,
      "note": 46,
      "start": 20.2819,
      "duration": 0.0072,
      "velocity": 96,
      "chip": "ym2612"
    },
    {
      "channel": 1,
      "note": 49,
      "start": 20.289,
      "duration": 0.0079,
      "velocity": 103,
      "chip": "ym2612"
    },
    {
      "channel": 3,
      "note": 46,
      "start": 20.2893,
      "duration": 0.0155,
      "velocity": 96,
      "chip": "ym2612"
    },
    {
      "channel": 0,
      "note": 70,
      "start": 20.2968,
      "duration": 0.031,
      "velocity": 97,
      "chip": "ym2612"
    },
    {
      "channel": 1,
      "note": 46,
      "start": 20.297,
      "duration": 0.0074,
      "velocity": 103,
      "chip": "ym2612"
    },
    {
      "channel": 4,
      "note": 70,
      "start": 20.3025,
      "duration": 0.0307,
      "velocity": 97,
      "chip": "ym2612"
    },
    {
      "channel": 1,
      "note": 51,
      "start": 20.3046,
      "duration": 0.0078,
      "velocity": 103,
      "chip": "ym2612"
    },
    {
      "channel": 3,
      "note": 46,
      "start": 20.3049,
      "duration": 0.0079,
      "velocity": 96,
      "chip": "ym2612"
    },
    {
      "channel": 1,
      "note": 46,
      "start": 20.3126,
      "duration": 0.0075,
      "velocity": 103,
      "chip": "ym2612"
    },
    {
      "channel": 3,
      "note": 46,
      "start": 20.313,
      "duration": 0.0154,
      "velocity": 96,
      "chip": "ym2612"
    },
    {
      "channel": 1,
      "note": 53,
      "start": 20.3203,
      "duration": 0.0078,
      "velocity": 103,
      "chip": "ym2612"
    },
    {
      "channel": 0,
      "note": 73,
      "start": 20.328,
      "duration": 0.071,
      "velocity": 97,
      "chip": "ym2612"
    },
    {
      "channel": 1,
      "note": 46,
      "start": 20.3283,
      "duration": 0.0071,
      "velocity": 103,
      "chip": "ym2612"
    },
    {
      "channel": 3,
      "note": 46,
      "start": 20.3286,
      "duration": 0.0554,
      "velocity": 96,
      "chip": "ym2612"
    },
    {
      "channel": 4,
      "note": 73,
      "start": 20.3334,
      "duration": 0.0706,
      "velocity": 97,
      "chip": "ym2612"
    },
    {
      "channel": 1,
      "note": 48,
      "start": 20.3357,
      "duration": 0.0481,
      "velocity": 103,
      "chip": "ym2612"
    },
    {
      "channel": 1,
      "note": 46,
      "start": 20.3839,
      "duration": 0.0073,
      "velocity": 103,
      "chip": "ym2612"
    },
    {
      "channel": 3,
      "note": 46,
      "start": 20.3842,
      "duration": 0.0155,
      "velocity": 96,
      "chip": "ym2612"
    },
    {
      "channel": 1,
      "note": 49,
      "start": 20.3915,
      "duration": 0.0078,
      "velocity": 103,
      "chip": "ym2612"
    },
    {
      "channel": 0,
      "note": 72,
      "start": 20.3993,
      "duration": 0.028,
      "velocity": 97,
      "chip": "ym2612"
    },
    {
      "channel": 1,
      "note": 46,
      "start": 20.3995,
      "duration": 0.0063,
      "velocity": 103,
      "chip": "ym2612"
    },
    {
      "channel": 4,
      "note": 72,
      "start": 20.4041,
      "duration": 0.0293,
      "velocity": 97,
      "chip": "ym2612"
    },
    {
      "channel": 1,
      "note": 51,
      "start": 20.4059,
      "duration": 0.0074,
      "velocity": 103,
      "chip": "ym2612"
    },
    {
      "channel": 1,
      "note": 46,
      "start": 20.4135,
      "duration": 0.0069,
      "velocity": 103,
      "chip": "ym2612"
    },
    {
      "channel": 1,
      "note": 53,
      "start": 20.4206,
      "duration": 0.0071,
      "velocity": 103,
      "chip": "ym2612"
    },
    {
      "channel": 0,
      "note": 69,
      "start": 20.4276,
      "duration": 0.0709,
      "velocity": 97,
      "chip": "ym2612"
    },
    {
      "channel": 1,
      "note": 46,
      "start": 20.4279,
      "duration": 0.0076,
      "velocity": 103,
      "chip": "ym2612"
    },
    {
      "channel": 2,
      "note": 69,
      "start": 20.4282,
      "duration": 0.0857,
      "velocity": 97,
      "chip": "ym2612"
    },
    {
      "channel": 3,
      "note": 46,
      "start": 20.4285,
      "duration": 0.055,
      "velocity": 96,
      "chip": "ym2612"
    },
    {
      "channel": 4,
      "note": 69,
      "start": 20.4337,
      "duration": 0.0702,
      "velocity": 97,
      "chip": "ym2612"
    },
    {
      "channel": 1,
      "note": 48,
      "start": 20.4357,
      "duration": 0.0476,
      "velocity": 103,
      "chip": "ym2612"
    },
    {
      "channel": 1,
      "note": 46,
      "start": 20.4834,
      "duration": 0.0072,
      "velocity": 103,
      "chip": "ym2612"
    },
    {
      "channel": 3,
      "note": 46,
      "start": 20.4837,
      "duration": 0.0073,
      "velocity": 96,
      "chip": "ym2612"
    },
    {
      "channel": 1,
      "note": 49,
      "start": 20.4909,
      "duration": 0.0079,
      "velocity": 103,
      "chip": "ym2612"
    },
    {
      "channel": 3,
      "note": 46,
      "start": 20.4912,
      "duration": 0.0152,
      "velocity": 96,
      "chip": "ym2612"
    },
    {
      "channel": 0,
      "note": 78,
      "start": 20.4988,
      "duration": 0.0302,
      "velocity": 97,
      "chip": "ym2612"
    },
    {
      "channel": 1,
      "note": 46,
      "start": 20.499,
      "duration": 0.007,
      "velocity": 103,
      "chip": "ym2612"
    },
    {
      "channel": 4,
      "note": 78,
      "start": 20.504,
      "duration": 0.0309,
      "velocity": 97,
      "chip": "ym2612"
    },
    {
      "channel": 1,
      "note": 51,
      "start": 20.5062,
      "duration": 0.0075,
      "velocity": 103,
      "chip": "ym2612"
    },
    {
      "channel": 3,
      "note": 46,
      "start": 20.5066,
      "duration": 0.0077,
      "velocity": 96,
      "chip": "ym2612"
    },
    {
      "channel": 1,
      "note": 46,
      "start": 20.5139,
      "duration": 0.0075,
      "velocity": 103,
      "chip": "ym2612"
    },
    {
      "channel": 2,
      "note": 70,
      "start": 20.5142,
      "duration": 0.0869,
      "velocity": 97,
      "chip": "ym2612"
    },
    {
      "channel": 3,
      "note": 46,
      "start": 20.5144,
      "duration": 0.0153,
      "velocity": 96,
      "chip": "ym2612"
    },
    {
      "channel": 1,
      "note": 53,
      "start": 20.5215,
      "duration": 0.0078,
      "velocity": 103,
      "chip": "ym2612"
    },
    {
      "channel": 0,
      "note": 77,
      "start": 20.5293,
      "duration": 0.0712,
      "velocity": 97,
      "chip": "ym2612"
    },
    {
      "channel": 1,
      "note": 46,
      "start": 20.5295,
      "duration": 0.0076,
      "velocity": 103,
      "chip": "ym2612"
    },
    {
      "channel": 3,
      "note": 46,
      "start": 20.5299,
      "duration": 0.0558,
      "velocity": 96,
      "chip": "ym2612"
    },
    {
      "channel": 4,
      "note": 77,
      "start": 20.5351,
      "duration": 0.0705,
      "velocity": 97,
      "chip": "ym2612"
    },
    {
      "channel": 1,
      "note": 48,
      "start": 20.5373,
      "duration": 0.048,
      "velocity": 103,
      "chip": "ym2612"
    },
    {
      "channel": 1,
      "note": 46,
      "start": 20.5855,
      "duration": 0.0073,
      "velocity": 103,
      "chip": "ym2612"
    },
    {
      "channel": 3,
      "note": 46,
      "start": 20.5858,
      "duration": 0.0155,
      "velocity": 96,
      "chip": "ym2612"
    },
    {
      "channel": 1,
      "note": 49,
      "start": 20.593,
      "duration": 0.0078,
      "velocity": 103,
      "chip": "ym2612"
    },
    {
      "channel": 0,
      "note": 69,
      "start": 20.6008,
      "duration": 0.0281,
      "velocity": 97,
      "chip": "ym2612"
    },
    {
      "channel": 1,
      "note": 46,
      "start": 20.601,
      "duration": 0.0066,
      "velocity": 103,
      "chip": "ym2612"
    },
    {
      "channel": 2,
      "note": 72,
      "start": 20.6012,
      "duration": 0.0285,
      "velocity": 97,
      "chip": "ym2612"
    },
    {
      "channel": 4,
      "note": 69,
      "start": 20.6059,
      "duration": 0.0293,
      "velocity": 97,
      "chip": "ym2612"
    },
    {
      "channel": 1,
      "note": 51,
      "start": 20.6078,
      "duration": 0.0074,
      "velocity": 103,
      "chip": "ym2612"
    },
    {
      "channel": 1,
      "note": 46,
      "start": 20.6155,
      "duration": 0.0065,
      "velocity": 103,
      "chip": "ym2612"
    },
    {
      "channel": 1,
      "note": 53,
      "start": 20.6223,
      "duration": 0.0072,
      "velocity": 103,
      "chip": "ym2612"
    },
    {
      "channel": 0,
      "note": 70,
      "start": 20.6293,
      "duration": 0.1733,
      "velocity": 97,
      "chip": "ym2612"
    },
    {
      "channel": 1,
      "note": 46,
      "start": 20.6296,
      "duration": 0.0077,
      "velocity": 103,
      "chip": "ym2612"
    },
    {
      "channel": 2,
      "note": 73,
      "start": 20.6299,
      "duration": 0.202,
      "velocity": 97,
      "chip": "ym2612"
    },
    {
      "channel": 3,
      "note": 46,
      "start": 20.6303,
      "duration": 0.0549,
      "velocity": 96,
      "chip": "ym2612"
    },
    {
      "channel": 4,
      "note": 70,
      "start": 20.6354,
      "duration": 0.1724,
      "velocity": 97,
      "chip": "ym2612"
    },
    {
      "channel": 1,
      "note": 48,
      "start": 20.6375,
      "duration": 0.0474,
      "velocity": 103,
      "chip": "ym2612"
    },
    {
      "channel": 1,
      "note": 46,
      "start": 20.6851,
      "duration": 0.0072,
      "velocity": 103,
      "chip": "ym2612"
    },
    {
      "channel": 3,
      "note": 46,
      "start": 20.6854,
      "duration": 0.0073,
      "velocity": 96,
      "chip": "ym2612"
    },
    {
      "channel": 1,
      "note": 49,
      "start": 20.6925,
      "duration": 0.0078,
      "velocity": 103,
      "chip": "ym2612"
    },
    {
      "channel": 3,
      "note": 46,
      "start": 20.6928,
      "duration": 0.0154,
      "velocity": 96,
      "chip": "ym2612"
    },
    {
      "channel": 1,
      "note": 46,
      "start": 20.7006,
      "duration": 0.0073,
      "velocity": 103,
      "chip": "ym2612"
    },
    {
      "channel": 1,
      "note": 51,
      "start": 20.708,
      "duration": 0.0077,
      "velocity": 103,
      "chip": "ym2612"
    },
    {
      "channel": 3,
      "note": 46,
      "start": 20.7084,
      "duration": 0.0077,
      "velocity": 96,
      "chip": "ym2612"
    },
    {
      "channel": 1,
      "note": 46,
      "start": 20.716,
      "duration": 0.0075,
      "velocity": 103,
      "chip": "ym2612"
    },
    {
      "channel": 3,
      "note": 46,
      "start": 20.7163,
      "duration": 0.0155,
      "velocity": 96,
      "chip": "ym2612"
    },
    {
      "channel": 1,
      "note": 53,
      "start": 20.7237,
      "duration": 0.0077,
      "velocity": 103,
      "chip": "ym2612"
    },
    {
      "channel": 1,
      "note": 46,
      "start": 20.7316,
      "duration": 0.0073,
      "velocity": 103,
      "chip": "ym2612"
    },
    {
      "channel": 3,
      "note": 46,
      "start": 20.732,
      "duration": 0.0557,
      "velocity": 96,
      "chip": "ym2612"
    },
    {
      "channel": 1,
      "note": 48,
      "start": 20.7391,
      "duration": 0.0482,
      "velocity": 103,
      "chip": "ym2612"
    },
    {
      "channel": 1,
      "note": 46,
      "start": 20.7875,
      "duration": 0.0073,
      "velocity": 103,
      "chip": "ym2612"
    },
    {
      "channel": 3,
      "note": 46,
      "start": 20.7878,
      "duration": 0.0154,
      "velocity": 96,
      "chip": "ym2612"
    },
    {
      "channel": 1,
      "note": 49,
      "start": 20.795,
      "duration": 0.0079,
      "velocity": 103,
      "chip": "ym2612"
    },
    {
      "channel": 0,
      "note": 73,
      "start": 20.8029,
      "duration": 0.0284,
      "velocity": 97,
      "chip": "ym2612"
    },
    {
      "channel": 1,
      "note": 46,
      "start": 20.803,
      "duration": 0.0067,
      "velocity": 103,
      "chip": "ym2612"
    },
    {
      "channel": 4,
      "note": 73,
      "start": 20.808,
      "duration": 0.0294,
      "velocity": 97,
      "chip": "ym2612"
    },
    {
      "channel": 1,
      "note": 51,
      "start": 20.8099,
      "duration": 0.0074,
      "velocity": 103,
      "chip": "ym2612"
    },
    {
      "channel": 1,
      "note": 46,
      "start": 20.8175,
      "duration": 0.0071,
      "velocity": 103,
      "chip": "ym2612"
    },
    {
      "channel": 1,
      "note": 53,
      "start": 20.8249,
      "duration": 0.0068,
      "velocity": 103,
      "chip": "ym2612"
    },
    {
      "channel": 0,
      "note": 72,
      "start": 20.8315,
      "duration": 0.2026,
      "velocity": 97,
      "chip": "ym2612"
    },
    {
      "channel": 1,
      "note": 46,
      "start": 20.8318,
      "duration": 0.0078,
      "velocity": 103,
      "chip": "ym2612"
    },
    {
      "channel": 2,
      "note": 75,
      "start": 20.832,
      "duration": 0.1028,
      "velocity": 97,
      "chip": "ym2612"
    },
    {
      "channel": 3,
      "note": 46,
      "start": 20.8324,
      "duration": 0.0558,
      "velocity": 96,
      "chip": "ym2612"
    },
    {
      "channel": 4,
      "note": 72,
      "start": 20.8376,
      "duration": 0.2023,
      "velocity": 97,
      "chip": "ym2612"
    },
    {
      "channel": 1,
      "note": 48,
      "start": 20.8398,
      "duration": 0.0481,
      "velocity": 103,
      "chip": "ym2612"
    },
    {
      "channel": 1,
      "note": 46,
      "start": 20.8881,
      "duration": 0.0072,
      "velocity": 103,
      "chip": "ym2612"
    },
    {
      "channel": 3,
      "note": 46,
      "start": 20.8883,
      "duration": 0.0073,
      "velocity": 96,
      "chip": "ym2612"
    },
    {
      "channel": 1,
      "note": 49,
      "start": 20.8955,
      "duration": 0.0078,
      "velocity": 103,
      "chip": "ym2612"
    },
    {
      "channel": 3,
      "note": 46,
      "start": 20.8958,
      "duration": 0.0154,
      "velocity": 96,
      "chip": "ym2612"
    },
    {
      "channel": 1,
      "note": 46,
      "start": 20.9036,
      "duration": 0.0073,
      "velocity": 103,
      "chip": "ym2612"
    },
    {
      "channel": 1,
      "note": 51,
      "start": 20.911,
      "duration": 0.0077,
      "velocity": 103,
      "chip": "ym2612"
    },
    {
      "channel": 3,
      "note": 46,
      "start": 20.9114,
      "duration": 0.0077,
      "velocity": 96,
      "chip": "ym2612"
    },
    {
      "channel": 1,
      "note": 46,
      "start": 20.919,
      "duration": 0.0075,
      "velocity": 103,
      "chip": "ym2612"
    },
    {
      "channel": 3,
      "note": 46,
      "start": 20.9193,
      "duration": 0.0156,
      "velocity": 96,
      "chip": "ym2612"
    },
    {
      "channel": 1,
      "note": 53,
      "start": 20.9267,
      "duration": 0.0078,
      "velocity": 103,
      "chip": "ym2612"
    },
    {
      "channel": 1,
      "note": 46,
      "start": 20.9346,
      "duration": 0.0074,
      "velocity": 103,
      "chip": "ym2612"
    },
    {
      "channel": 2,
      "note": 75,
      "start": 20.9348,
      "duration": 0.056,
      "velocity": 97,
      "chip": "ym2612"
    },
    {
      "channel": 3,
      "note": 46,
      "start": 20.935,
      "duration": 0.0561,
      "velocity": 96,
      "chip": "ym2612"
    },
    {
      "channel": 1,
      "note": 48,
      "start": 20.9422,
      "duration": 0.0484,
      "velocity": 103,
      "chip": "ym2612"
    },
    {
      "channel": 1,
      "note": 46,
      "start": 20.9908,
      "duration": 0.0072,
      "velocity": 103,
      "chip": "ym2612"
    },
    {
      "channel": 2,
      "note": 73,
      "start": 20.9911,
      "duration": 0.0293,
      "velocity": 97,
      "chip": "ym2612"
    },
    {
      "channel": 3,
      "note": 46,
      "start": 20.9913,
      "duration": 0.0148,
      "velocity": 96,
      "chip": "ym2612"
    },
    {
      "channel": 1,
      "note": 49,
      "start": 20.9983,
      "duration": 0.0075,
      "velocity": 103,
      "chip": "ym2612"
    },
    {
      "channel": 1,
      "note": 46,
      "start": 21.0059,
      "duration": 0.0064,
      "velocity": 103,
      "chip": "ym2612"
    },
    {
      "channel": 1,
      "note": 51,
      "start": 21.0124,
      "duration": 0.0076,
      "velocity": 103,
      "chip": "ym2612"
    },
    {
      "channel": 1,
      "note": 46,
      "start": 21.0203,
      "duration": 0.0068,
      "velocity": 103,
      "chip": "ym2612"
    },
    {
      "channel": 2,
      "note": 75,
      "start": 21.0206,
      "duration": 0.0139,
      "velocity": 97,
      "chip": "ym2612"
    },
    {
      "channel": 1,
      "note": 53,
      "start": 21.0273,
      "duration": 0.007,
      "velocity": 103,
      "chip": "ym2612"
    },
    {
      "channel": 0,
      "note": 72,
      "start": 21.0341,
      "duration": 0.0707,
      "velocity": 97,
      "chip": "ym2612"
    },
    {
      "channel": 1,
      "note": 46,
      "start": 21.0345,
      "duration": 0.0073,
      "velocity": 103,
      "chip": "ym2612"
    },
    {
      "channel": 2,
      "note": 77,
      "start": 21.0348,
      "duration": 0.2016,
      "velocity": 97,
      "chip": "ym2612"
    },
    {
      "channel": 3,
      "note": 46,
      "start": 21.0351,
      "duration": 0.055,
      "velocity": 96,
      "chip": "ym2612"
    },
    {
      "channel": 4,
      "note": 72,
      "start": 21.0399,
      "duration": 0.0708,
      "velocity": 97,
      "chip": "ym2612"
    },
    {
      "channel": 1,
      "note": 48,
      "start": 21.042,
      "duration": 0.0478,
      "velocity": 103,
      "chip": "ym2612"
    },
    {
      "channel": 1,
      "note": 46,
      "start": 21.0899,
      "duration": 0.0072,
      "velocity": 103,
      "chip": "ym2612"
    },
    {
      "channel": 3,
      "note": 46,
      "start": 21.0902,
      "duration": 0.0072,
      "velocity": 96,
      "chip": "ym2612"
    },
    {
      "channel": 1,
      "note": 49,
      "start": 21.0973,
      "duration": 0.0079,
      "velocity": 103,
      "chip": "ym2612"
    },
    {
      "channel": 3,
      "note": 46,
      "start": 21.0976,
      "duration": 0.0155,
      "velocity": 96,
      "chip": "ym2612"
    },
    {
      "channel": 0,
      "note": 70,
      "start": 21.1051,
      "duration": 0.0308,
      "velocity": 97,
      "chip": "ym2612"
    },
    {
      "channel": 1,
      "note": 46,
      "start": 21.1053,
      "duration": 0.0074,
      "velocity": 103,
      "chip": "ym2612"
    },
    {
      "channel": 4,
      "note": 70,
      "start": 21.1109,
      "duration": 0.0308,
      "velocity": 97,
      "chip": "ym2612"
    },
    {
      "channel": 1,
      "note": 51,
      "start": 21.1129,
      "duration": 0.0078,
      "velocity": 103,
      "chip": "ym2612"
    },
    {
      "channel": 3,
      "note": 46,
      "start": 21.1133,
      "duration": 0.0079,
      "velocity": 96,
      "chip": "ym2612"
    },
    {
      "channel": 1,
      "note": 46,
      "start": 21.1209,
      "duration": 0.0073,
      "velocity": 103,
      "chip": "ym2612"
    },
    {
      "channel": 3,
      "note": 46,
      "start": 21.1213,
      "duration": 0.0152,
      "velocity": 96,
      "chip": "ym2612"
    },
    {
      "channel": 1,
      "note": 53,
      "start": 21.1284,
      "duration": 0.0078,
      "velocity": 103,
      "chip": "ym2612"
    },
    {
      "channel": 0,
      "note": 73,
      "start": 21.1361,
      "duration": 0.0713,
      "velocity": 97,
      "chip": "ym2612"
    },
    {
      "channel": 1,
      "note": 46,
      "start": 21.1363,
      "duration": 0.0075,
      "velocity": 103,
      "chip": "ym2612"
    },
    {
      "channel": 3,
      "note": 46,
      "start": 21.1367,
      "duration": 0.0558,
      "velocity": 96,
      "chip": "ym2612"
    },
    {
      "channel": 4,
      "note": 73,
      "start": 21.1418,
      "duration": 0.0706,
      "velocity": 97,
      "chip": "ym2612"
    },
    {
      "channel": 1,
      "note": 48,
      "start": 21.144,
      "duration": 0.0481,
      "velocity": 103,
      "chip": "ym2612"
    },
    {
      "channel": 1,
      "note": 46,
      "start": 21.1923,
      "duration": 0.0073,
      "velocity": 103,
      "chip": "ym2612"
    },
    {
      "channel": 3,
      "note": 46,
      "start": 21.1926,
      "duration": 0.0155,
      "velocity": 96,
      "chip": "ym2612"
    },
    {
      "channel": 1,
      "note": 49,
      "start": 21.1998,
      "duration": 0.0078,
      "velocity": 103,
      "chip": "ym2612"
    },
    {
      "channel": 0,
      "note": 72,
      "start": 21.2076,
      "duration": 0.028,
      "velocity": 97,
      "chip": "ym2612"
    },
    {
      "channel": 1,
      "note": 46,
      "start": 21.2078,
      "duration": 0.0063,
      "velocity": 103,
      "chip": "ym2612"
    },
    {
      "channel": 4,
      "note": 72,
      "start": 21.2125,
      "duration": 0.0288,
      "velocity": 97,
      "chip": "ym2612"
    },
    {
      "channel": 1,
      "note": 51,
      "start": 21.2142,
      "duration": 0.0074,
      "velocity": 103,
      "chip": "ym2612"
    },
    {
      "channel": 1,
      "note": 46,
      "start": 21.2219,
      "duration": 0.0069,
      "velocity": 103,
      "chip": "ym2612"
    },
    {
      "channel": 1,
      "note": 53,
      "start": 21.229,
      "duration": 0.0071,
      "velocity": 103,
      "chip": "ym2612"
    },
    {
      "channel": 0,
      "note": 75,
      "start": 21.236,
      "duration": 0.0687,
      "velocity": 97,
      "chip": "ym2612"
    },
    {
      "channel": 1,
      "note": 46,
      "start": 21.2363,
      "duration": 0.007,
      "velocity": 103,
      "chip": "ym2612"
    },
    {
      "channel": 3,
      "note": 46,
      "start": 21.2367,
      "duration": 0.0543,
      "velocity": 96,
      "chip": "ym2612"
    },
    {
      "channel": 4,
      "note": 75,
      "start": 21.2415,
      "duration": 0.0678,
      "velocity": 97,
      "chip": "ym2612"
    },
    {
      "channel": 1,
      "note": 48,
      "start": 21.2434,
      "duration": 0.0474,
      "velocity": 103,
      "chip": "ym2612"
    },
    {
      "channel": 1,
      "note": 46,
      "start": 21.291,
      "duration": 0.0073,
      "velocity": 103,
      "chip": "ym2612"
    },
    {
      "channel": 3,
      "note": 46,
      "start": 21.2912,
      "duration": 0.0073,
      "velocity": 96,
      "chip": "ym2612"
    },
    {
      "channel": 1,
      "note": 49,
      "start": 21.2984,
      "duration": 0.0066,
      "velocity": 103,
      "chip": "ym2612"
    },
    {
      "channel": 3,
      "note": 46,
      "start": 21.2987,
      "duration": 0.0127,
      "velocity": 96,
      "chip": "ym2612"
    },
    {
      "channel": 0,
      "note": 73,
      "start": 21.3049,
      "duration": 0.0274,
      "velocity": 97,
      "chip": "ym2612"
    },
    {
      "channel": 1,
      "note": 46,
      "start": 21.3051,
      "duration": 0.0061,
      "velocity": 103,
      "chip": "ym2612"
    },
    {
      "channel": 4,
      "note": 73,
      "start": 21.3095,
      "duration": 0.0282,
      "velocity": 97,
      "chip": "ym2612"
    },
    {
      "channel": 1,
      "note": 51,
      "start": 21.3114,
      "duration": 0.0072,
      "velocity": 103,
      "chip": "ym2612"
    },
    {
      "channel": 3,
      "note": 46,
      "start": 21.3116,
      "duration": 0.0073,
      "velocity": 96,
      "chip": "ym2612"
    },
    {
      "channel": 1,
      "note": 46,
      "start": 21.3188,
      "duration": 0.0062,
      "velocity": 103,
      "chip": "ym2612"
    },
    {
      "channel": 3,
      "note": 46,
      "start": 21.3191,
      "duration": 0.0139,
      "velocity": 96,
      "chip": "ym2612"
    },
    {
      "channel": 1,
      "note": 53,
      "start": 21.3252,
      "duration": 0.0074,
      "velocity": 103,
      "chip": "ym2612"
    },
    {
      "channel": 0,
      "note": 78,
      "start": 21.3325,
      "duration": 0.0696,
      "velocity": 97,
      "chip": "ym2612"
    },
    {
      "channel": 1,
      "note": 46,
      "start": 21.3329,
      "duration": 0.007,
      "velocity": 103,
      "chip": "ym2612"
    },
    {
      "channel": 3,
      "note": 46,
      "start": 21.3331,
      "duration": 0.0546,
      "velocity": 96,
      "chip": "ym2612"
    },
    {
      "channel": 4,
      "note": 78,
      "start": 21.338,
      "duration": 0.0686,
      "velocity": 97,
      "chip": "ym2612"
    },
    {
      "channel": 1,
      "note": 48,
      "start": 21.34,
      "duration": 0.0476,
      "velocity": 103,
      "chip": "ym2612"
    },
    {
      "channel": 1,
      "note": 46,
      "start": 21.3877,
      "duration": 0.0073,
      "velocity": 103,
      "chip": "ym2612"
    },
    {
      "channel": 3,
      "note": 46,
      "start": 21.3879,
      "duration": 0.0148,
      "velocity": 96,
      "chip": "ym2612"
    },
    {
      "channel": 1,
      "note": 49,
      "start": 21.3951,
      "duration": 0.0073,
      "velocity": 103,
      "chip": "ym2612"
    },
    {
      "channel": 0,
      "note": 77,
      "start": 21.4024,
      "duration": 0.0266,
      "velocity": 97,
      "chip": "ym2612"
    },
    {
      "channel": 1,
      "note": 46,
      "start": 21.4026,
      "duration": 0.0056,
      "velocity": 103,
      "chip": "ym2612"
    },
    {
      "channel": 4,
      "note": 77,
      "start": 21.4067,
      "duration": 0.0285,
      "velocity": 97,
      "chip": "ym2612"
    },
    {
      "channel": 1,
      "note": 51,
      "start": 21.4085,
      "duration": 0.0073,
      "velocity": 103,
      "chip": "ym2612"
    },
    {
      "channel": 1,
      "note": 46,
      "start": 21.416,
      "duration": 0.0065,
      "velocity": 103,
      "chip": "ym2612"
    },
    {
      "channel": 1,
      "note": 53,
      "start": 21.4227,
      "duration": 0.0066,
      "velocity": 103,
      "chip": "ym2612"
    },
    {
      "channel": 0,
      "note": 77,
      "start": 21.4292,
      "duration": 0.1738,
      "velocity": 97,
      "chip": "ym2612"
    },
    {
      "channel": 1,
      "note": 47,
      "start": 21.4295,
      "duration": 0.0077,
      "velocity": 103,
      "chip": "ym2612"
    },
    {
      "channel": 2,
      "note": 73,
      "start": 21.4298,
      "duration": 0.1738,
      "velocity": 97,
      "chip": "ym2612"
    },
    {
      "channel": 3,
      "note": 47,
      "start": 21.4302,
      "duration": 0.0557,
      "velocity": 96,
      "chip": "ym2612"
    },
    {
      "channel": 4,
      "note": 77,
      "start": 21.4354,
      "duration": 0.1727,
      "velocity": 97,
      "chip": "ym2612"
    },
    {
      "channel": 1,
      "note": 49,
      "start": 21.4375,
      "duration": 0.0481,
      "velocity": 103,
      "chip": "ym2612"
    },
    {
      "channel": 1,
      "note": 47,
      "start": 21.4857,
      "duration": 0.0072,
      "velocity": 103,
      "chip": "ym2612"
    },
    {
      "channel": 3,
      "note": 47,
      "start": 21.486,
      "duration": 0.0073,
      "velocity": 96,
      "chip": "ym2612"
    },
    {
      "channel": 1,
      "note": 51,
      "start": 21.4932,
      "duration": 0.0078,
      "velocity": 103,
      "chip": "ym2612"
    },
    {
      "channel": 3,
      "note": 47,
      "start": 21.4934,
      "duration": 0.0154,
      "velocity": 96,
      "chip": "ym2612"
    },
    {
      "channel": 1,
      "note": 47,
      "start": 21.5012,
      "duration": 0.0073,
      "velocity": 103,
      "chip": "ym2612"
    },
    {
      "channel": 1,
      "note": 53,
      "start": 21.5087,
      "duration": 0.0077,
      "velocity": 103,
      "chip": "ym2612"
    },
    {
      "channel": 3,
      "note": 47,
      "start": 21.5091,
      "duration": 0.0077,
      "velocity": 96,
      "chip": "ym2612"
    },
    {
      "channel": 1,
      "note": 47,
      "start": 21.5166,
      "duration": 0.0075,
      "velocity": 103,
      "chip": "ym2612"
    },
    {
      "channel": 3,
      "note": 47,
      "start": 21.5169,
      "duration": 0.0155,
      "velocity": 96,
      "chip": "ym2612"
    },
    {
      "channel": 1,
      "note": 53,
      "start": 21.5243,
      "duration": 0.0078,
      "velocity": 103,
      "chip": "ym2612"
    },
    {
      "channel": 1,
      "note": 47,
      "start": 21.5322,
      "duration": 0.0073,
      "velocity": 103,
      "chip": "ym2612"
    },
    {
      "channel": 3,
      "note": 47,
      "start": 21.5326,
      "duration": 0.0557,
      "velocity": 96,
      "chip": "ym2612"
    },
    {
      "channel": 1,
      "note": 49,
      "start": 21.5398,
      "duration": 0.0482,
      "velocity": 103,
      "chip": "ym2612"
    },
    {
      "channel": 1,
      "note": 47,
      "start": 21.5882,
      "duration": 0.0073,
      "velocity": 103,
      "chip": "ym2612"
    },
    {
      "channel": 3,
      "note": 47,
      "start": 21.5884,
      "duration": 0.0154,
      "velocity": 96,
      "chip": "ym2612"
    },
    {
      "channel": 1,
      "note": 51,
      "start": 21.5957,
      "duration": 0.0077,
      "velocity": 103,
      "chip": "ym2612"
    },
    {
      "channel": 0,
      "note": 78,
      "start": 21.6034,
      "duration": 0.028,
      "velocity": 97,
      "chip": "ym2612"
    },
    {
      "channel": 1,
      "note": 47,
      "start": 21.6036,
      "duration": 0.0064,
      "velocity": 103,
      "chip": "ym2612"
    },
    {
      "channel": 2,
      "note": 75,
      "start": 21.6039,
      "duration": 0.0282,
      "velocity": 97,
      "chip": "ym2612"
    },
    {
      "channel": 4,
      "note": 78,
      "start": 21.6083,
      "duration": 0.0291,
      "velocity": 97,
      "chip": "ym2612"
    },
    {
      "channel": 1,
      "note": 53,
      "start": 21.6102,
      "duration": 0.0072,
      "velocity": 103,
      "chip": "ym2612"
    },
    {
      "channel": 1,
      "note": 47,
      "start": 21.6176,
      "duration": 0.0069,
      "velocity": 103,
      "chip": "ym2612"
    },
    {
      "channel": 1,
      "note": 53,
      "start": 21.6247,
      "duration": 0.0071,
      "velocity": 103,
      "chip": "ym2612"
    },
    {
      "channel": 0,
      "note": 75,
      "start": 21.6317,
      "duration": 0.2022,
      "velocity": 97,
      "chip": "ym2612"
    },
    {
      "channel": 1,
      "note": 47,
      "start": 21.632,
      "duration": 0.0075,
      "velocity": 103,
      "chip": "ym2612"
    },
    {
      "channel": 2,
      "note": 71,
      "start": 21.6322,
      "duration": 0.2023,
      "velocity": 97,
      "chip": "ym2612"
    },
    {
      "channel": 3,
      "note": 47,
      "start": 21.6325,
      "duration": 0.0552,
      "velocity": 96,
      "chip": "ym2612"
    },
    {
      "channel": 4,
      "note": 75,
      "start": 21.6376,
      "duration": 0.2021,
      "velocity": 97,
      "chip": "ym2612"
    },
    {
      "channel": 1,
      "note": 49,
      "start": 21.6396,
      "duration": 0.0478,
      "velocity": 103,
      "chip": "ym2612"
    },
    {
      "channel": 1,
      "note": 47,
      "start": 21.6875,
      "duration": 0.0072,
      "velocity": 103,
      "chip": "ym2612"
    },
    {
      "channel": 3,
      "note": 47,
      "start": 21.6878,
      "duration": 0.0073,
      "velocity": 96,
      "chip": "ym2612"
    },
    {
      "channel": 1,
      "note": 51,
      "start": 21.6949,
      "duration": 0.008,
      "velocity": 103,
      "chip": "ym2612"
    },
    {
      "channel": 3,
      "note": 47,
      "start": 21.6952,
      "duration": 0.0155,
      "velocity": 96,
      "chip": "ym2612"
    },
    {
      "channel": 1,
      "note": 47,
      "start": 21.7031,
      "duration": 0.0073,
      "velocity": 103,
      "chip": "ym2612"
    },
    {
      "channel": 1,
      "note": 53,
      "start": 21.7106,
      "duration": 0.0077,
      "velocity": 103,
      "chip": "ym2612"
    },
    {
      "channel": 3,
      "note": 47,
      "start": 21.711,
      "duration": 0.0077,
      "velocity": 96,
      "chip": "ym2612"
    },
    {
      "channel": 1,
      "note": 47,
      "start": 21.7185,
      "duration": 0.0075,
      "velocity": 103,
      "chip": "ym2612"
    },
    {
      "channel": 3,
      "note": 47,
      "start": 21.7188,
      "duration": 0.0155,
      "velocity": 96,
      "chip": "ym2612"
    },
    {
      "channel": 1,
      "note": 53,
      "start": 21.7262,
      "duration": 0.0078,
      "velocity": 103,
      "chip": "ym2612"
    },
    {
      "channel": 1,
      "note": 47,
      "start": 21.7341,
      "duration": 0.0073,
      "velocity": 103,
      "chip": "ym2612"
    },
    {
      "channel": 3,
      "note": 47,
      "start": 21.7345,
      "duration": 0.0558,
      "velocity": 96,
      "chip": "ym2612"
    },
    {
      "channel": 1,
      "note": 49,
      "start": 21.7416,
      "duration": 0.0484,
      "velocity": 103,
      "chip": "ym2612"
    },
    {
      "channel": 1,
      "note": 47,
      "start": 21.7902,
      "duration": 0.0073,
      "velocity": 103,
      "chip": "ym2612"
    },
    {
      "channel": 3,
      "note": 47,
      "start": 21.7904,
      "duration": 0.0153,
      "velocity": 96,
      "chip": "ym2612"
    },
    {
      "channel": 1,
      "note": 51,
      "start": 21.7976,
      "duration": 0.0078,
      "velocity": 103,
      "chip": "ym2612"
    },
    {
      "channel": 1,
      "note": 47,
      "start": 21.8056,
      "duration": 0.0066,
      "velocity": 103,
      "chip": "ym2612"
    },
    {
      "channel": 1,
      "note": 53,
      "start": 21.8123,
      "duration": 0.0075,
      "velocity": 103,
      "chip": "ym2612"
    },
    {
      "channel": 1,
      "note": 47,
      "start": 21.82,
      "duration": 0.0071,
      "velocity": 103,
      "chip": "ym2612"
    },
    {
      "channel": 1,
      "note": 53,
      "start": 21.8274,
      "duration": 0.0066,
      "velocity": 103,
      "chip": "ym2612"
    },
    {
      "channel": 0,
      "note": 75,
      "start": 21.8339,
      "duration": 0.071,
      "velocity": 97,
      "chip": "ym2612"
    },
    {
      "channel": 1,
      "note": 47,
      "start": 21.8342,
      "duration": 0.0075,
      "velocity": 103,
      "chip": "ym2612"
    },
    {
      "channel": 2,
      "note": 71,
      "start": 21.8345,
      "duration": 0.0709,
      "velocity": 97,
      "chip": "ym2612"
    },
    {
      "channel": 3,
      "note": 47,
      "start": 21.8348,
      "duration": 0.0555,
      "velocity": 96,
      "chip": "ym2612"
    },
    {
      "channel": 4,
      "note": 75,
      "start": 21.8398,
      "duration": 0.0708,
      "velocity": 97,
      "chip": "ym2612"
    },
    {
      "channel": 1,
      "note": 49,
      "start": 21.8419,
      "duration": 0.0481,
      "velocity": 103,
      "chip": "ym2612"
    },
    {
      "channel": 1,
      "note": 47,
      "start": 21.8901,
      "duration": 0.007,
      "velocity": 103,
      "chip": "ym2612"
    },
    {
      "channel": 3,
      "note": 47,
      "start": 21.8904,
      "duration": 0.007,
      "velocity": 96,
      "chip": "ym2612"
    },
    {
      "channel": 1,
      "note": 51,
      "start": 21.8973,
      "duration": 0.0079,
      "velocity": 103,
      "chip": "ym2612"
    },
    {
      "channel": 3,
      "note": 47,
      "start": 21.8976,
      "duration": 0.0154,
      "velocity": 96,
      "chip": "ym2612"
    },
    {
      "channel": 0,
      "note": 78,
      "start": 21.9051,
      "duration": 0.0307,
      "velocity": 97,
      "chip": "ym2612"
    },
    {
      "channel": 1,
      "note": 47,
      "start": 21.9054,
      "duration": 0.0072,
      "velocity": 103,
      "chip": "ym2612"
    },
    {
      "channel": 2,
      "note": 75,
      "start": 21.9055,
      "duration": 0.0309,
      "velocity": 97,
      "chip": "ym2612"
    },
    {
      "channel": 4,
      "note": 78,
      "start": 21.9107,
      "duration": 0.031,
      "velocity": 97,
      "chip": "ym2612"
    },
    {
      "channel": 1,
      "note": 53,
      "start": 21.9127,
      "duration": 0.0078,
      "velocity": 103,
      "chip": "ym2612"
    },
    {
      "channel": 3,
      "note": 47,
      "start": 21.9131,
      "duration": 0.0079,
      "velocity": 96,
      "chip": "ym2612"
    },
    {
      "channel": 1,
      "note": 47,
      "start": 21.9207,
      "duration": 0.0073,
      "velocity": 103,
      "chip": "ym2612"
    },
    {
      "channel": 3,
      "note": 47,
      "start": 21.9211,
      "duration": 0.0156,
      "velocity": 96,
      "chip": "ym2612"
    },
    {
      "channel": 1,
      "note": 53,
      "start": 21.9282,
      "duration": 0.0079,
      "velocity": 103,
      "chip": "ym2612"
    },
    {
      "channel": 0,
      "note": 77,
      "start": 21.936,
      "duration": 0.0707,
      "velocity": 97,
      "chip": "ym2612"
    },
    {
      "channel": 1,
      "note": 47,
      "start": 21.9363,
      "duration": 0.0074,
      "velocity": 103,
      "chip": "ym2612"
    },
    {
      "channel": 2,
      "note": 73,
      "start": 21.9366,
      "duration": 0.0707,
      "velocity": 97,
      "chip": "ym2612"
    },
    {
      "channel": 3,
      "note": 47,
      "start": 21.9369,
      "duration": 0.0549,
      "velocity": 96,
      "chip": "ym2612"
    },
    {
      "channel": 4,
      "note": 77,
      "start": 21.9418,
      "duration": 0.07,
      "velocity": 97,
      "chip": "ym2612"
    },
    {
      "channel": 1,
      "note": 49,
      "start": 21.9439,
      "duration": 0.0476,
      "velocity": 103,
      "chip": "ym2612"
    },
    {
      "channel": 1,
      "note": 47,
      "start": 21.9916,
      "duration": 0.0073,
      "velocity": 103,
      "chip": "ym2612"
    },
    {
      "channel": 3,
      "note": 47,
      "start": 21.9919,
      "duration": 0.0156,
      "velocity": 96,
      "chip": "ym2612"
    },
    {
      "channel": 1,
      "note": 51,
      "start": 21.9992,
      "duration": 0.0078,
      "velocity": 103,
      "chip": "ym2612"
    },
    {
      "channel": 0,
      "note": 75,
      "start": 22.0069,
      "duration": 0.0283,
      "velocity": 97,
      "chip": "ym2612"
    },
    {
      "channel": 1,
      "note": 47,
      "start": 22.0073,
      "duration": 0.0066,
      "velocity": 103,
      "chip": "ym2612"
    },
    {
      "channel": 2,
      "note": 71,
      "start": 22.0074,
      "duration": 0.0284,
      "velocity": 97,
      "chip": "ym2612"
    },
    {
      "channel": 4,
      "note": 75,
      "start": 22.0121,
      "duration": 0.0295,
      "velocity": 97,
      "chip": "ym2612"
    },
    {
      "channel": 1,
      "note": 53,
      "start": 22.014,
      "duration": 0.0072,
      "velocity": 103,
      "chip": "ym2612"
    },
    {
      "channel": 1,
      "note": 47,
      "start": 22.0214,
      "duration": 0.0069,
      "velocity": 103,
      "chip": "ym2612"
    },
    {
      "channel": 1,
      "note": 53,
      "start": 22.0285,
      "duration": 0.0071,
      "velocity": 103,
      "chip": "ym2612"
    },
    {
      "channel": 0,
      "note": 80,
      "start": 22.0355,
      "duration": 0.071,
      "velocity": 97,
      "chip": "ym2612"
    },
    {
      "channel": 1,
      "note": 47,
      "start": 22.0357,
      "duration": 0.008,
      "velocity": 103,
      "chip": "ym2612"
    },
    {
      "channel": 2,
      "note": 77,
      "start": 22.0361,
      "duration": 0.071,
      "velocity": 97,
      "chip": "ym2612"
    },
    {
      "channel": 3,
      "note": 47,
      "start": 22.0363,
      "duration": 0.0552,
      "velocity": 96,
      "chip": "ym2612"
    },
    {
      "channel": 4,
      "note": 80,
      "start": 22.0418,
      "duration": 0.0704,
      "velocity": 97,
      "chip": "ym2612"
    },
    {
      "channel": 1,
      "note": 49,
      "start": 22.0439,
      "duration": 0.0474,
      "velocity": 103,
      "chip": "ym2612"
    },
    {
      "channel": 1,
      "note": 47,
      "start": 22.0915,
      "duration": 0.0072,
      "velocity": 103,
      "chip": "ym2612"
    },
    {
      "channel": 3,
      "note": 47,
      "start": 22.0917,
      "duration": 0.0073,
      "velocity": 96,
      "chip": "ym2612"
    },
    {
      "channel": 1,
      "note": 51,
      "start": 22.0989,
      "duration": 0.0079,
      "velocity": 103,
      "chip": "ym2612"
    },
    {
      "channel": 3,
      "note": 47,
      "start": 22.0992,
      "duration": 0.0155,
      "velocity": 96,
      "chip": "ym2612"
    },
    {
      "channel": 0,
      "note": 78,
      "start": 22.1068,
      "duration": 0.0306,
      "velocity": 97,
      "chip": "ym2612"
    },
    {
      "channel": 1,
      "note": 47,
      "start": 22.107,
      "duration": 0.0073,
      "velocity": 103,
      "chip": "ym2612"
    },
    {
      "channel": 2,
      "note": 75,
      "start": 22.1072,
      "duration": 0.0307,
      "velocity": 97,
      "chip": "ym2612"
    },
    {
      "channel": 4,
      "note": 78,
      "start": 22.1123,
      "duration": 0.031,
      "velocity": 97,
      "chip": "ym2612"
    },
    {
      "channel": 1,
      "note": 53,
      "start": 22.1144,
      "duration": 0.0075,
      "velocity": 103,
      "chip": "ym2612"
    },
    {
      "channel": 3,
      "note": 47,
      "start": 22.1149,
      "duration": 0.0074,
      "velocity": 96,
      "chip": "ym2612"
    },
    {
      "channel": 1,
      "note": 47,
      "start": 22.1222,
      "duration": 0.0075,
      "velocity": 103,
      "chip": "ym2612"
    },
    {
      "channel": 3,
      "note": 47,
      "start": 22.1224,
      "duration": 0.0158,
      "velocity": 96,
      "chip": "ym2612"
    },
    {
      "channel": 1,
      "note": 53,
      "start": 22.1298,
      "duration": 0.0078,
      "velocity": 103,
      "chip": "ym2612"
    },
    {
      "channel": 0,
      "note": 77,
      "start": 22.1376,
      "duration": 0.071,
      "velocity": 97,
      "chip": "ym2612"
    },
    {
      "channel": 1,
      "note": 47,
      "start": 22.1378,
      "duration": 0.0073,
      "velocity": 103,
      "chip": "ym2612"
    },
    {
      "channel": 2,
      "note": 73,
      "start": 22.1381,
      "duration": 0.071,
      "velocity": 97,
      "chip": "ym2612"
    },
    {
      "channel": 3,
      "note": 47,
      "start": 22.1383,
      "duration": 0.0554,
      "velocity": 96,
      "chip": "ym2612"
    },
    {
      "channel": 4,
      "note": 77,
      "start": 22.1434,
      "duration": 0.0702,
      "velocity": 97,
      "chip": "ym2612"
    },
    {
      "channel": 1,
      "note": 49,
      "start": 22.1453,
      "duration": 0.048,
      "velocity": 103,
      "chip": "ym2612"
    },
    {
      "channel": 1,
      "note": 47,
      "start": 22.1935,
      "duration": 0.0073,
      "velocity": 103,
      "chip": "ym2612"
    },
    {
      "channel": 3,
      "note": 47,
      "start": 22.1938,
      "duration": 0.0155,
      "velocity": 96,
      "chip": "ym2612"
    },
    {
      "channel": 1,
      "note": 51,
      "start": 22.201,
      "duration": 0.0078,
      "velocity": 103,
      "chip": "ym2612"
    },
    {
      "channel": 0,
      "note": 78,
      "start": 22.2088,
      "duration": 0.0281,
      "velocity": 97,
      "chip": "ym2612"
    },
    {
      "channel": 1,
      "note": 47,
      "start": 22.2091,
      "duration": 0.0065,
      "velocity": 103,
      "chip": "ym2612"
    },
    {
      "channel": 2,
      "note": 75,
      "start": 22.2093,
      "duration": 0.0283,
      "velocity": 97,
      "chip": "ym2612"
    },
    {
      "channel": 4,
      "note": 78,
      "start": 22.2138,
      "duration": 0.0295,
      "velocity": 97,
      "chip": "ym2612"
    },
    {
      "channel": 1,
      "note": 53,
      "start": 22.2157,
      "duration": 0.0072,
      "velocity": 103,
      "chip": "ym2612"
    },
    {
      "channel": 1,
      "note": 47,
      "start": 22.2231,
      "duration": 0.0069,
      "velocity": 103,
      "chip": "ym2612"
    },
    {
      "channel": 1,
      "note": 53,
      "start": 22.2302,
      "duration": 0.0071,
      "velocity": 103,
      "chip": "ym2612"
    },
    {
      "channel": 0,
      "note": 77,
      "start": 22.2373,
      "duration": 0.1734,
      "velocity": 97,
      "chip": "ym2612"
    },
    {
      "channel": 1,
      "note": 47,
      "start": 22.2375,
      "duration": 0.0078,
      "velocity": 103,
      "chip": "ym2612"
    },
    {
      "channel": 2,
      "note": 73,
      "start": 22.2378,
      "duration": 0.1735,
      "velocity": 97,
      "chip": "ym2612"
    },
    {
      "channel": 3,
      "note": 47,
      "start": 22.238,
      "duration": 0.0552,
      "velocity": 96,
      "chip": "ym2612"
    },
    {
      "channel": 4,
      "note": 77,
      "start": 22.2435,
      "duration": 0.1721,
      "velocity": 97,
      "chip": "ym2612"
    },
    {
      "channel": 1,
      "note": 49,
      "start": 22.2455,
      "duration": 0.0474,
      "velocity": 103,
      "chip": "ym2612"
    },
    {
      "channel": 1,
      "note": 47,
      "start": 22.2931,
      "duration": 0.0072,
      "velocity": 103,
      "chip": "ym2612"
    },
    {
      "channel": 3,
      "note": 47,
      "start": 22.2934,
      "duration": 0.0073,
      "velocity": 96,
      "chip": "ym2612"
    },
    {
      "channel": 1,
      "note": 51,
      "start": 22.3005,
      "duration": 0.0078,
      "velocity": 103,
      "chip": "ym2612"
    },
    {
      "channel": 3,
      "note": 47,
      "start": 22.3008,
      "duration": 0.0154,
      "velocity": 96,
      "chip": "ym2612"
    },
    {
      "channel": 1,
      "note": 47,
      "start": 22.3086,
      "duration": 0.0073,
      "velocity": 103,
      "chip": "ym2612"
    },
    {
      "channel": 1,
      "note": 53,
      "start": 22.3161,
      "duration": 0.0077,
      "velocity": 103,
      "chip": "ym2612"
    },
    {
      "channel": 3,
      "note": 47,
      "start": 22.3164,
      "duration": 0.0077,
      "velocity": 96,
      "chip": "ym2612"
    },
    {
      "channel": 1,
      "note": 47,
      "start": 22.324,
      "duration": 0.0075,
      "velocity": 103,
      "chip": "ym2612"
    },
    {
      "channel": 3,
      "note": 47,
      "start": 22.3243,
      "duration": 0.0155,
      "velocity": 96,
      "chip": "ym2612"
    },
    {
      "channel": 1,
      "note": 53,
      "start": 22.3317,
      "duration": 0.0078,
      "velocity": 103,
      "chip": "ym2612"
    },
    {
      "channel": 1,
      "note": 47,
      "start": 22.3396,
      "duration": 0.0073,
      "velocity": 103,
      "chip": "ym2612"
    },
    {
      "channel": 3,
      "note": 47,
      "start": 22.34,
      "duration": 0.0558,
      "velocity": 96,
      "chip": "ym2612"
    },
    {
      "channel": 1,
      "note": 49,
      "start": 22.3471,
      "duration": 0.0484,
      "velocity": 103,
      "chip": "ym2612"
    },
    {
      "channel": 1,
      "note": 47,
      "start": 22.3956,
      "duration": 0.0073,
      "velocity": 103,
      "chip": "ym2612"
    },
    {
      "channel": 3,
      "note": 47,
      "start": 22.3959,
      "duration": 0.0156,
      "velocity": 96,
      "chip": "ym2612"
    },
    {
      "channel": 1,
      "note": 51,
      "start": 22.4032,
      "duration": 0.0079,
      "velocity": 103,
      "chip": "ym2612"
    },
    {
      "channel": 0,
      "note": 78,
      "start": 22.411,
      "duration": 0.0279,
      "velocity": 97,
      "chip": "ym2612"
    },
    {
      "channel": 1,
      "note": 47,
      "start": 22.4112,
      "duration": 0.0064,
      "velocity": 103,
      "chip": "ym2612"
    },
    {
      "channel": 2,
      "note": 75,
      "start": 22.4115,
      "duration": 0.0281,
      "velocity": 97,
      "chip": "ym2612"
    },
    {
      "channel": 4,
      "note": 78,
      "start": 22.4158,
      "duration": 0.0294,
      "velocity": 97,
      "chip": "ym2612"
    },
    {
      "channel": 1,
      "note": 53,
      "start": 22.4178,
      "duration": 0.0074,
      "velocity": 103,
      "chip": "ym2612"
    },
    {
      "channel": 1,
      "note": 47,
      "start": 22.4254,
      "duration": 0.0065,
      "velocity": 103,
      "chip": "ym2612"
    },
    {
      "channel": 1,
      "note": 53,
      "start": 22.4322,
      "duration": 0.0071,
      "velocity": 103,
      "chip": "ym2612"
    },
    {
      "channel": 0,
      "note": 75,
      "start": 22.4393,
      "duration": 0.2019,
      "velocity": 97,
      "chip": "ym2612"
    },
    {
      "channel": 1,
      "note": 47,
      "start": 22.4395,
      "duration": 0.0078,
      "velocity": 103,
      "chip": "ym2612"
    },
    {
      "channel": 2,
      "note": 71,
      "start": 22.4397,
      "duration": 0.202,
      "velocity": 97,
      "chip": "ym2612"
    },
    {
      "channel": 3,
      "note": 47,
      "start": 22.44,
      "duration": 0.0552,
      "velocity": 96,
      "chip": "ym2612"
    },
    {
      "channel": 4,
      "note": 75,
      "start": 22.4455,
      "duration": 0.2012,
      "velocity": 97,
      "chip": "ym2612"
    },
    {
      "channel": 1,
      "note": 49,
      "start": 22.4475,
      "duration": 0.0474,
      "velocity": 103,
      "chip": "ym2612"
    },
    {
      "channel": 1,
      "note": 47,
      "start": 22.4951,
      "duration": 0.0072,
      "velocity": 103,
      "chip": "ym2612"
    },
    {
      "channel": 3,
      "note": 47,
      "start": 22.4953,
      "duration": 0.0073,
      "velocity": 96,
      "chip": "ym2612"
    },
    {
      "channel": 1,
      "note": 51,
      "start": 22.5025,
      "duration": 0.0078,
      "velocity": 103,
      "chip": "ym2612"
    },
    {
      "channel": 3,
      "note": 47,
      "start": 22.5028,
      "duration": 0.0154,
      "velocity": 96,
      "chip": "ym2612"
    },
    {
      "channel": 1,
      "note": 47,
      "start": 22.5106,
      "duration": 0.0073,
      "velocity": 103,
      "chip": "ym2612"
    },
    {
      "channel": 1,
      "note": 53,
      "start": 22.518,
      "duration": 0.0077,
      "velocity": 103,
      "chip": "ym2612"
    },
    {
      "channel": 3,
      "note": 47,
      "start": 22.5184,
      "duration": 0.0077,
      "velocity": 96,
      "chip": "ym2612"
    },
    {
      "channel": 1,
      "note": 47,
      "start": 22.526,
      "duration": 0.0075,
      "velocity": 103,
      "chip": "ym2612"
    },
    {
      "channel": 3,
      "note": 47,
      "start": 22.5262,
      "duration": 0.0155,
      "velocity": 96,
      "chip": "ym2612"
    },
    {
      "channel": 1,
      "note": 53,
      "start": 22.5337,
      "duration": 0.0078,
      "velocity": 103,
      "chip": "ym2612"
    },
    {
      "channel": 1,
      "note": 47,
      "start": 22.5416,
      "duration": 0.0073,
      "velocity": 103,
      "chip": "ym2612"
    },
    {
      "channel": 3,
      "note": 47,
      "start": 22.542,
      "duration": 0.0558,
      "velocity": 96,
      "chip": "ym2612"
    },
    {
      "channel": 1,
      "note": 49,
      "start": 22.5491,
      "duration": 0.0484,
      "velocity": 103,
      "chip": "ym2612"
    },
    {
      "channel": 1,
      "note": 47,
      "start": 22.5976,
      "duration": 0.0073,
      "velocity": 103,
      "chip": "ym2612"
    },
    {
      "channel": 3,
      "note": 47,
      "start": 22.5979,
      "duration": 0.0153,
      "velocity": 96,
      "chip": "ym2612"
    },
    {
      "channel": 1,
      "note": 51,
      "start": 22.6051,
      "duration": 0.0076,
      "velocity": 103,
      "chip": "ym2612"
    },
    {
      "channel": 1,
      "note": 47,
      "start": 22.613,
      "duration": 0.0063,
      "velocity": 103,
      "chip": "ym2612"
    },
    {
      "channel": 1,
      "note": 53,
      "start": 22.6194,
      "duration": 0.0076,
      "velocity": 103,
      "chip": "ym2612"
    },
    {
      "channel": 1,
      "note": 47,
      "start": 22.6272,
      "duration": 0.0069,
      "velocity": 103,
      "chip": "ym2612"
    },
    {
      "channel": 1,
      "note": 53,
      "start": 22.6343,
      "duration": 0.007,
      "velocity": 103,
      "chip": "ym2612"
    },
    {
      "channel": 0,
      "note": 75,
      "start": 22.6411,
      "duration": 0.0708,
      "velocity": 97,
      "chip": "ym2612"
    },
    {
      "channel": 1,
      "note": 47,
      "start": 22.6415,
      "duration": 0.0073,
      "velocity": 103,
      "chip": "ym2612"
    },
    {
      "channel": 2,
      "note": 71,
      "start": 22.6417,
      "duration": 0.0708,
      "velocity": 97,
      "chip": "ym2612"
    },
    {
      "channel": 3,
      "note": 47,
      "start": 22.642,
      "duration": 0.0554,
      "velocity": 96,
      "chip": "ym2612"
    },
    {
      "channel": 4,
      "note": 75,
      "start": 22.6467,
      "duration": 0.0709,
      "velocity": 97,
      "chip": "ym2612"
    },
    {
      "channel": 1,
      "note": 49,
      "start": 22.649,
      "duration": 0.048,
      "velocity": 103,
      "chip": "ym2612"
    },
    {
      "channel": 1,
      "note": 47,
      "start": 22.6971,
      "duration": 0.007,
      "velocity": 103,
      "chip": "ym2612"
    },
    {
      "channel": 3,
      "note": 47,
      "start": 22.6975,
      "duration": 0.007,
      "velocity": 96,
      "chip": "ym2612"
    },
    {
      "channel": 1,
      "note": 51,
      "start": 22.7044,
      "duration": 0.0079,
      "velocity": 103,
      "chip": "ym2612"
    },
    {
      "channel": 3,
      "note": 47,
      "start": 22.7046,
      "duration": 0.0154,
      "velocity": 96,
      "chip": "ym2612"
    },
    {
      "channel": 0,
      "note": 78,
      "start": 22.7122,
      "duration": 0.0307,
      "velocity": 97,
      "chip": "ym2612"
    },
    {
      "channel": 1,
      "note": 47,
      "start": 22.7124,
      "duration": 0.0072,
      "velocity": 103,
      "chip": "ym2612"
    },
    {
      "channel": 2,
      "note": 75,
      "start": 22.7126,
      "duration": 0.0309,
      "velocity": 97,
      "chip": "ym2612"
    },
    {
      "channel": 4,
      "note": 78,
      "start": 22.7178,
      "duration": 0.031,
      "velocity": 97,
      "chip": "ym2612"
    },
    {
      "channel": 1,
      "note": 53,
      "start": 22.7198,
      "duration": 0.0078,
      "velocity": 103,
      "chip": "ym2612"
    },
    {
      "channel": 3,
      "note": 47,
      "start": 22.7202,
      "duration": 0.0079,
      "velocity": 96,
      "chip": "ym2612"
    },
    {
      "channel": 1,
      "note": 47,
      "start": 22.7278,
      "duration": 0.0073,
      "velocity": 103,
      "chip": "ym2612"
    },
    {
      "channel": 3,
      "note": 47,
      "start": 22.7282,
      "duration": 0.0156,
      "velocity": 96,
      "chip": "ym2612"
    },
    {
      "channel": 1,
      "note": 53,
      "start": 22.7353,
      "duration": 0.0079,
      "velocity": 103,
      "chip": "ym2612"
    },
    {
      "channel": 0,
      "note": 77,
      "start": 22.7431,
      "duration": 0.0707,
      "velocity": 97,
      "chip": "ym2612"
    },
    {
      "channel": 1,
      "note": 47,
      "start": 22.7434,
      "duration": 0.0074,
      "velocity": 103,
      "chip": "ym2612"
    },
    {
      "channel": 2,
      "note": 73,
      "start": 22.7437,
      "duration": 0.0706,
      "velocity": 97,
      "chip": "ym2612"
    },
    {
      "channel": 3,
      "note": 47,
      "start": 22.7439,
      "duration": 0.0549,
      "velocity": 96,
      "chip": "ym2612"
    },
    {
      "channel": 4,
      "note": 77,
      "start": 22.7489,
      "duration": 0.0699,
      "velocity": 97,
      "chip": "ym2612"
    },
    {
      "channel": 1,
      "note": 49,
      "start": 22.7509,
      "duration": 0.0476,
      "velocity": 103,
      "chip": "ym2612"
    },
    {
      "channel": 1,
      "note": 47,
      "start": 22.7987,
      "duration": 0.0073,
      "velocity": 103,
      "chip": "ym2612"
    },
    {
      "channel": 3,
      "note": 47,
      "start": 22.799,
      "duration": 0.0155,
      "velocity": 96,
      "chip": "ym2612"
    },
    {
      "channel": 1,
      "note": 51,
      "start": 22.8062,
      "duration": 0.0078,
      "velocity": 103,
      "chip": "ym2612"
    },
    {
      "channel": 0,
      "note": 75,
      "start": 22.814,
      "duration": 0.0284,
      "velocity": 97,
      "chip": "ym2612"
    },
    {
      "channel": 1,
      "note": 47,
      "start": 22.8142,
      "duration": 0.0065,
      "velocity": 103,
      "chip": "ym2612"
    },
    {
      "channel": 2,
      "note": 71,
      "start": 22.8144,
      "duration": 0.0285,
      "velocity": 97,
      "chip": "ym2612"
    },
    {
      "channel": 4,
      "note": 75,
      "start": 22.819,
      "duration": 0.0295,
      "velocity": 97,
      "chip": "ym2612"
    },
    {
      "channel": 1,
      "note": 53,
      "start": 22.8209,
      "duration": 0.0074,
      "velocity": 103,
      "chip": "ym2612"
    },
    {
      "channel": 1,
      "note": 47,
      "start": 22.8285,
      "duration": 0.0071,
      "velocity": 103,
      "chip": "ym2612"
    },
    {
      "channel": 1,
      "note": 53,
      "start": 22.8358,
      "duration": 0.0069,
      "velocity": 103,
      "chip": "ym2612"
    },
    {
      "channel": 0,
      "note": 82,
      "start": 22.8426,
      "duration": 0.0713,
      "velocity": 97,
      "chip": "ym2612"
    },
    {
      "channel": 1,
      "note": 47,
      "start": 22.8428,
      "duration": 0.0077,
      "velocity": 103,
      "chip": "ym2612"
    },
    {
      "channel": 2,
      "note": 77,
      "start": 22.8432,
      "duration": 0.0712,
      "velocity": 97,
      "chip": "ym2612"
    },
    {
      "channel": 3,
      "note": 47,
      "start": 22.8435,
      "duration": 0.0554,
      "velocity": 96,
      "chip": "ym2612"
    },
    {
      "channel": 4,
      "note": 82,
      "start": 22.8487,
      "duration": 0.0708,
      "velocity": 97,
      "chip": "ym2612"
    },
    {
      "channel": 1,
      "note": 49,
      "start": 22.8507,
      "duration": 0.048,
      "velocity": 103,
      "chip": "ym2612"
    },
    {
      "channel": 1,
      "note": 47,
      "start": 22.8988,
      "duration": 0.0072,
      "velocity": 103,
      "chip": "ym2612"
    },
    {
      "channel": 3,
      "note": 47,
      "start": 22.8991,
      "duration": 0.0073,
      "velocity": 96,
      "chip": "ym2612"
    },
    {
      "channel": 1,
      "note": 51,
      "start": 22.9062,
      "duration": 0.0079,
      "velocity": 103,
      "chip": "ym2612"
    },
    {
      "channel": 3,
      "note": 47,
      "start": 22.9065,
      "duration": 0.0155,
      "velocity": 96,
      "chip": "ym2612"
    },
    {
      "channel": 0,
      "note": 80,
      "start": 22.9141,
      "duration": 0.0306,
      "velocity": 97,
      "chip": "ym2612"
    },
    {
      "channel": 1,
      "note": 47,
      "start": 22.9144,
      "duration": 0.0073,
      "velocity": 103,
      "chip": "ym2612"
    },
    {
      "channel": 2,
      "note": 75,
      "start": 22.9145,
      "duration": 0.0307,
      "velocity": 97,
      "chip": "ym2612"
    },
    {
      "channel": 4,
      "note": 80,
      "start": 22.9196,
      "duration": 0.031,
      "velocity": 97,
      "chip": "ym2612"
    },
    {
      "channel": 1,
      "note": 53,
      "start": 22.9218,
      "duration": 0.0075,
      "velocity": 103,
      "chip": "ym2612"
    },
    {
      "channel": 3,
      "note": 47,
      "start": 22.9222,
      "duration": 0.0074,
      "velocity": 96,
      "chip": "ym2612"
    },
    {
      "channel": 1,
      "note": 47,
      "start": 22.9295,
      "duration": 0.0075,
      "velocity": 103,
      "chip": "ym2612"
    },
    {
      "channel": 3,
      "note": 47,
      "start": 22.9298,
      "duration": 0.0158,
      "velocity": 96,
      "chip": "ym2612"
    },
    {
      "channel": 1,
      "note": 53,
      "start": 22.9372,
      "duration": 0.0078,
      "velocity": 103,
      "chip": "ym2612"
    },
    {
      "channel": 0,
      "note": 78,
      "start": 22.9449,
      "duration": 0.071,
      "velocity": 97,
      "chip": "ym2612"
    },
    {
      "channel": 1,
      "note": 47,
      "start": 22.9452,
      "duration": 0.0073,
      "velocity": 103,
      "chip": "ym2612"
    },
    {
      "channel": 2,
      "note": 73,
      "start": 22.9454,
      "duration": 0.071,
      "velocity": 97,
      "chip": "ym2612"
    },
    {
      "channel": 3,
      "note": 47,
      "start": 22.9456,
      "duration": 0.0554,
      "velocity": 96,
      "chip": "ym2612"
    },
    {
      "channel": 4,
      "note": 78,
      "start": 22.9507,
      "duration": 0.0702,
      "velocity": 97,
      "chip": "ym2612"
    },
    {
      "channel": 1,
      "note": 49,
      "start": 22.9527,
      "duration": 0.048,
      "velocity": 103,
      "chip": "ym2612"
    },
    {
      "channel": 1,
      "note": 47,
      "start": 23.0009,
      "duration": 0.0073,
      "velocity": 103,
      "chip": "ym2612"
    },
    {
      "channel": 3,
      "note": 47,
      "start": 23.0011,
      "duration": 0.0155,
      "velocity": 96,
      "chip": "ym2612"
    },
    {
      "channel": 1,
      "note": 51,
      "start": 23.0084,
      "duration": 0.0078,
      "velocity": 103,
      "chip": "ym2612"
    },
    {
      "channel": 0,
      "note": 77,
      "start": 23.0162,
      "duration": 0.0282,
      "velocity": 97,
      "chip": "ym2612"
    },
    {
      "channel": 1,
      "note": 47,
      "start": 23.0164,
      "duration": 0.0065,
      "velocity": 103,
      "chip": "ym2612"
    },
    {
      "channel": 2,
      "note": 75,
      "start": 23.0166,
      "duration": 0.0284,
      "velocity": 97,
      "chip": "ym2612"
    },
    {
      "channel": 4,
      "note": 77,
      "start": 23.0212,
      "duration": 0.0292,
      "velocity": 97,
      "chip": "ym2612"
    },
    {
      "channel": 1,
      "note": 53,
      "start": 23.023,
      "duration": 0.0074,
      "velocity": 103,
      "chip": "ym2612"
    },
    {
      "channel": 1,
      "note": 47,
      "start": 23.0307,
      "duration": 0.0071,
      "velocity": 103,
      "chip": "ym2612"
    },
    {
      "channel": 1,
      "note": 53,
      "start": 23.038,
      "duration": 0.0068,
      "velocity": 103,
      "chip": "ym2612"
    },
    {
      "channel": 0,
      "note": 77,
      "start": 23.0446,
      "duration": 0.2022,
      "velocity": 97,
      "chip": "ym2612"
    },
    {
      "channel": 1,
      "note": 46,
      "start": 23.0449,
      "duration": 0.0076,
      "velocity": 103,
      "chip": "ym2612"
    },
    {
      "channel": 2,
      "note": 71,
      "start": 23.0451,
      "duration": 0.2021,
      "velocity": 97,
      "chip": "ym2612"
    },
    {
      "channel": 3,
      "note": 46,
      "start": 23.0454,
      "duration": 0.0558,
      "velocity": 96,
      "chip": "ym2612"
    },
    {
      "channel": 4,
      "note": 77,
      "start": 23.0506,
      "duration": 0.2021,
      "velocity": 97,
      "chip": "ym2612"
    },
    {
      "channel": 1,
      "note": 48,
      "start": 23.0527,
      "duration": 0.0481,
      "velocity": 103,
      "chip": "ym2612"
    },
    {
      "channel": 1,
      "note": 46,
      "start": 23.101,
      "duration": 0.0072,
      "velocity": 103,
      "chip": "ym2612"
    },
    {
      "channel": 3,
      "note": 46,
      "start": 23.1012,
      "duration": 0.0073,
      "velocity": 96,
      "chip": "ym2612"
    },
    {
      "channel": 1,
      "note": 49,
      "start": 23.1084,
      "duration": 0.0078,
      "velocity": 103,
      "chip": "ym2612"
    },
    {
      "channel": 3,
      "note": 46,
      "start": 23.1087,
      "duration": 0.0154,
      "velocity": 96,
      "chip": "ym2612"
    },
    {
      "channel": 1,
      "note": 46,
      "start": 23.1165,
      "duration": 0.0073,
      "velocity": 103,
      "chip": "ym2612"
    },
    {
      "channel": 1,
      "note": 51,
      "start": 23.1239,
      "duration": 0.0077,
      "velocity": 103,
      "chip": "ym2612"
    },
    {
      "channel": 3,
      "note": 46,
      "start": 23.1243,
      "duration": 0.0077,
      "velocity": 96,
      "chip": "ym2612"
    },
    {
      "channel": 1,
      "note": 46,
      "start": 23.1319,
      "duration": 0.0075,
      "velocity": 103,
      "chip": "ym2612"
    },
    {
      "channel": 3,
      "note": 46,
      "start": 23.1322,
      "duration": 0.0155,
      "velocity": 96,
      "chip": "ym2612"
    },
    {
      "channel": 1,
      "note": 53,
      "start": 23.1396,
      "duration": 0.0078,
      "velocity": 103,
      "chip": "ym2612"
    },
    {
      "channel": 1,
      "note": 46,
      "start": 23.1475,
      "duration": 0.0073,
      "velocity": 103,
      "chip": "ym2612"
    },
    {
      "channel": 3,
      "note": 46,
      "start": 23.1479,
      "duration": 0.0557,
      "velocity": 96,
      "chip": "ym2612"
    },
    {
      "channel": 1,
      "note": 48,
      "start": 23.155,
      "duration": 0.0482,
      "velocity": 103,
      "chip": "ym2612"
    },
    {
      "channel": 1,
      "note": 46,
      "start": 23.2034,
      "duration": 0.0073,
      "velocity": 103,
      "chip": "ym2612"
    },
    {
      "channel": 3,
      "note": 46,
      "start": 23.2037,
      "duration": 0.0153,
      "velocity": 96,
      "chip": "ym2612"
    },
    {
      "channel": 1,
      "note": 49,
      "start": 23.211,
      "duration": 0.0076,
      "velocity": 103,
      "chip": "ym2612"
    },
    {
      "channel": 1,
      "note": 46,
      "start": 23.2188,
      "duration": 0.0063,
      "velocity": 103,
      "chip": "ym2612"
    },
    {
      "channel": 1,
      "note": 51,
      "start": 23.2252,
      "duration": 0.0075,
      "velocity": 103,
      "chip": "ym2612"
    },
    {
      "channel": 1,
      "note": 46,
      "start": 23.2329,
      "duration": 0.0069,
      "velocity": 103,
      "chip": "ym2612"
    },
    {
      "channel": 1,
      "note": 53,
      "start": 23.24,
      "duration": 0.0069,
      "velocity": 103,
      "chip": "ym2612"
    },
    {
      "channel": 0,
      "note": 77,
      "start": 23.2468,
      "duration": 0.2018,
      "velocity": 97,
      "chip": "ym2612"
    },
    {
      "channel": 1,
      "note": 46,
      "start": 23.2471,
      "duration": 0.0077,
      "velocity": 103,
      "chip": "ym2612"
    },
    {
      "channel": 2,
      "note": 71,
      "start": 23.2472,
      "duration": 0.2018,
      "velocity": 97,
      "chip": "ym2612"
    },
    {
      "channel": 3,
      "note": 46,
      "start": 23.2476,
      "duration": 0.0558,
      "velocity": 96,
      "chip": "ym2612"
    },
    {
      "channel": 4,
      "note": 77,
      "start": 23.2527,
      "duration": 0.2017,
      "velocity": 97,
      "chip": "ym2612"
    },
    {
      "channel": 1,
      "note": 48,
      "start": 23.255,
      "duration": 0.0481,
      "velocity": 103,
      "chip": "ym2612"
    },
    {
      "channel": 1,
      "note": 46,
      "start": 23.3032,
      "duration": 0.007,
      "velocity": 103,
      "chip": "ym2612"
    },
    {
      "channel": 3,
      "note": 46,
      "start": 23.3035,
      "duration": 0.007,
      "velocity": 96,
      "chip": "ym2612"
    },
    {
      "channel": 1,
      "note": 49,
      "start": 23.3104,
      "duration": 0.0078,
      "velocity": 103,
      "chip": "ym2612"
    },
    {
      "channel": 3,
      "note": 46,
      "start": 23.3107,
      "duration": 0.0154,
      "velocity": 96,
      "chip": "ym2612"
    },
    {
      "channel": 1,
      "note": 46,
      "start": 23.3185,
      "duration": 0.0073,
      "velocity": 103,
      "chip": "ym2612"
    },
    {
      "channel": 1,
      "note": 51,
      "start": 23.3259,
      "duration": 0.0076,
      "velocity": 103,
      "chip": "ym2612"
    },
    {
      "channel": 3,
      "note": 46,
      "start": 23.3263,
      "duration": 0.0076,
      "velocity": 96,
      "chip": "ym2612"
    },
    {
      "channel": 1,
      "note": 46,
      "start": 23.3337,
      "duration": 0.0073,
      "velocity": 103,
      "chip": "ym2612"
    },
    {
      "channel": 3,
      "note": 46,
      "start": 23.334,
      "duration": 0.0153,
      "velocity": 96,
      "chip": "ym2612"
    },
    {
      "channel": 1,
      "note": 53,
      "start": 23.3412,
      "duration": 0.0078,
      "velocity": 103,
      "chip": "ym2612"
    },
    {
      "channel": 1,
      "note": 46,
      "start": 23.3491,
      "duration": 0.0077,
      "velocity": 103,
      "chip": "ym2612"
    },
    {
      "channel": 3,
      "note": 46,
      "start": 23.3495,
      "duration": 0.0559,
      "velocity": 96,
      "chip": "ym2612"
    },
    {
      "channel": 1,
      "note": 48,
      "start": 23.357,
      "duration": 0.0481,
      "velocity": 103,
      "chip": "ym2612"
    },
    {
      "channel": 1,
      "note": 46,
      "start": 23.4052,
      "duration": 0.0073,
      "velocity": 103,
      "chip": "ym2612"
    },
    {
      "channel": 3,
      "note": 46,
      "start": 23.4055,
      "duration": 0.0151,
      "velocity": 96,
      "chip": "ym2612"
    },
    {
      "channel": 1,
      "note": 49,
      "start": 23.4127,
      "duration": 0.0076,
      "velocity": 103,
      "chip": "ym2612"
    },
    {
      "channel": 1,
      "note": 46,
      "start": 23.4204,
      "duration": 0.0063,
      "velocity": 103,
      "chip": "ym2612"
    },
    {
      "channel": 1,
      "note": 51,
      "start": 23.4269,
      "duration": 0.0075,
      "velocity": 103,
      "chip": "ym2612"
    },
    {
      "channel": 1,
      "note": 46,
      "start": 23.4347,
      "duration": 0.007,
      "velocity": 103,
      "chip": "ym2612"
    },
    {
      "channel": 1,
      "note": 53,
      "start": 23.442,
      "duration": 0.0068,
      "velocity": 103,
      "chip": "ym2612"
    },
    {
      "channel": 0,
      "note": 77,
      "start": 23.4486,
      "duration": 0.2013,
      "velocity": 97,
      "chip": "ym2612"
    },
    {
      "channel": 1,
      "note": 46,
      "start": 23.4489,
      "duration": 0.0074,
      "velocity": 103,
      "chip": "ym2612"
    },
    {
      "channel": 2,
      "note": 70,
      "start": 23.4493,
      "duration": 0.2011,
      "velocity": 97,
      "chip": "ym2612"
    },
    {
      "channel": 3,
      "note": 46,
      "start": 23.4495,
      "duration": 0.0552,
      "velocity": 96,
      "chip": "ym2612"
    },
    {
      "channel": 4,
      "note": 77,
      "start": 23.4545,
      "duration": 0.2013,
      "velocity": 97,
      "chip": "ym2612"
    },
    {
      "channel": 1,
      "note": 48,
      "start": 23.4566,
      "duration": 0.0479,
      "velocity": 103,
      "chip": "ym2612"
    },
    {
      "channel": 1,
      "note": 46,
      "start": 23.5046,
      "duration": 0.0071,
      "velocity": 103,
      "chip": "ym2612"
    },
    {
      "channel": 3,
      "note": 46,
      "start": 23.5049,
      "duration": 0.0071,
      "velocity": 96,
      "chip": "ym2612"
    },
    {
      "channel": 1,
      "note": 49,
      "start": 23.5119,
      "duration": 0.0079,
      "velocity": 103,
      "chip": "ym2612"
    },
    {
      "channel": 3,
      "note": 46,
      "start": 23.5123,
      "duration": 0.015,
      "velocity": 96,
      "chip": "ym2612"
    },
    {
      "channel": 1,
      "note": 46,
      "start": 23.52,
      "duration": 0.0068,
      "velocity": 103,
      "chip": "ym2612"
    },
    {
      "channel": 1,
      "note": 51,
      "start": 23.5271,
      "duration": 0.0076,
      "velocity": 103,
      "chip": "ym2612"
    },
    {
      "channel": 3,
      "note": 46,
      "start": 23.5274,
      "duration": 0.0076,
      "velocity": 96,
      "chip": "ym2612"
    },
    {
      "channel": 1,
      "note": 46,
      "start": 23.5348,
      "duration": 0.0074,
      "velocity": 103,
      "chip": "ym2612"
    },
    {
      "channel": 3,
      "note": 46,
      "start": 23.5351,
      "duration": 0.0154,
      "velocity": 96,
      "chip": "ym2612"
    },
    {
      "channel": 1,
      "note": 53,
      "start": 23.5424,
      "duration": 0.0077,
      "velocity": 103,
      "chip": "ym2612"
    },
    {
      "channel": 1,
      "note": 46,
      "start": 23.5503,
      "duration": 0.0072,
      "velocity": 103,
      "chip": "ym2612"
    },
    {
      "channel": 3,
      "note": 46,
      "start": 23.5507,
      "duration": 0.0555,
      "velocity": 96,
      "chip": "ym2612"
    },
    {
      "channel": 1,
      "note": 48,
      "start": 23.5577,
      "duration": 0.0482,
      "velocity": 103,
      "chip": "ym2612"
    },
    {
      "channel": 1,
      "note": 46,
      "start": 23.606,
      "duration": 0.0076,
      "velocity": 103,
      "chip": "ym2612"
    },
    {
      "channel": 3,
      "note": 46,
      "start": 23.6063,
      "duration": 0.0154,
      "velocity": 96,
      "chip": "ym2612"
    },
    {
      "channel": 1,
      "note": 49,
      "start": 23.6138,
      "duration": 0.0077,
      "velocity": 103,
      "chip": "ym2612"
    },
    {
      "channel": 1,
      "note": 46,
      "start": 23.6216,
      "duration": 0.0065,
      "velocity": 103,
      "chip": "ym2612"
    },
    {
      "channel": 1,
      "note": 51,
      "start": 23.6283,
      "duration": 0.0075,
      "velocity": 103,
      "chip": "ym2612"
    },
    {
      "channel": 1,
      "note": 46,
      "start": 23.636,
      "duration": 0.0066,
      "velocity": 103,
      "chip": "ym2612"
    },
    {
      "channel": 1,
      "note": 53,
      "start": 23.6428,
      "duration": 0.0072,
      "velocity": 103,
      "chip": "ym2612"
    },
    {
      "channel": 0,
      "note": 77,
      "start": 23.6499,
      "duration": 0.1489,
      "velocity": 97,
      "chip": "ym2612"
    },
    {
      "channel": 1,
      "note": 46,
      "start": 23.6502,
      "duration": 0.0076,
      "velocity": 103,
      "chip": "ym2612"
    },
    {
      "channel": 2,
      "note": 70,
      "start": 23.6503,
      "duration": 0.1498,
      "velocity": 97,
      "chip": "ym2612"
    },
    {
      "channel": 3,
      "note": 46,
      "start": 23.6507,
      "duration": 0.0144,
      "velocity": 96,
      "chip": "ym2612"
    },
    {
      "channel": 4,
      "note": 77,
      "start": 23.6557,
      "duration": 0.1507,
      "velocity": 97,
      "chip": "ym2612"
    },
    {
      "channel": 1,
      "note": 48,
      "start": 23.6579,
      "duration": 0.0068,
      "velocity": 103,
      "chip": "ym2612"
    },
    {
      "channel": 1,
      "note": 46,
      "start": 23.6649,
      "duration": 0.0078,
      "velocity": 103,
      "chip": "ym2612"
    },
    {
      "channel": 3,
      "note": 46,
      "start": 23.6652,
      "duration": 0.008,
      "velocity": 96,
      "chip": "ym2612"
    },
    {
      "channel": 1,
      "note": 49,
      "start": 23.6729,
      "duration": 0.0072,
      "velocity": 103,
      "chip": "ym2612"
    },
    {
      "channel": 3,
      "note": 46,
      "start": 23.6734,
      "duration": 0.0147,
      "velocity": 96,
      "chip": "ym2612"
    },
    {
      "channel": 1,
      "note": 46,
      "start": 23.6802,
      "duration": 0.0074,
      "velocity": 103,
      "chip": "ym2612"
    },
    {
      "channel": 1,
      "note": 51,
      "start": 23.6878,
      "duration": 0.0072,
      "velocity": 103,
      "chip": "ym2612"
    },
    {
      "channel": 3,
      "note": 46,
      "start": 23.6882,
      "duration": 0.0072,
      "velocity": 96,
      "chip": "ym2612"
    },
    {
      "channel": 1,
      "note": 46,
      "start": 23.6952,
      "duration": 0.0075,
      "velocity": 103,
      "chip": "ym2612"
    },
    {
      "channel": 3,
      "note": 46,
      "start": 23.6955,
      "duration": 0.0455,
      "velocity": 96,
      "chip": "ym2612"
    },
    {
      "channel": 1,
      "note": 53,
      "start": 23.7029,
      "duration": 0.0378,
      "velocity": 103,
      "chip": "ym2612"
    },
    {
      "channel": 1,
      "note": 46,
      "start": 23.7409,
      "duration": 0.0073,
      "velocity": 103,
      "chip": "ym2612"
    },
    {
      "channel": 3,
      "note": 46,
      "start": 23.7412,
      "duration": 0.0156,
      "velocity": 96,
      "chip": "ym2612"
    },
    {
      "channel": 1,
      "note": 48,
      "start": 23.7483,
      "duration": 0.008,
      "velocity": 103,
      "chip": "ym2612"
    },
    {
      "channel": 1,
      "note": 46,
      "start": 23.7565,
      "duration": 0.0077,
      "velocity": 103,
      "chip": "ym2612"
    },
    {
      "channel": 3,
      "note": 46,
      "start": 23.757,
      "duration": 0.0153,
      "velocity": 96,
      "chip": "ym2612"
    },
    {
      "channel": 1,
      "note": 49,
      "start": 23.7644,
      "duration": 0.0074,
      "velocity": 103,
      "chip": "ym2612"
    },
    {
      "channel": 1,
      "note": 46,
      "start": 23.772,
      "duration": 0.0064,
      "velocity": 103,
      "chip": "ym2612"
    },
    {
      "channel": 1,
      "note": 51,
      "start": 23.7786,
      "duration": 0.0065,
      "velocity": 103,
      "chip": "ym2612"
    },
    {
      "channel": 1,
      "note": 46,
      "start": 23.7853,
      "duration": 0.0061,
      "velocity": 103,
      "chip": "ym2612"
    },
    {
      "channel": 1,
      "note": 53,
      "start": 23.7916,
      "duration": 0.0075,
      "velocity": 103,
      "chip": "ym2612"
    },
    {
      "channel": 0,
      "note": 73,
      "start": 23.799,
      "duration": 0.1695,
      "velocity": 97,
      "chip": "ym2612"
    },
    {
      "channel": 1,
      "note": 49,
      "start": 23.7993,
      "duration": 0.0091,
      "velocity": 103,
      "chip": "ym2612"
    },
    {
      "channel": 2,
      "note": 68,
      "start": 23.8003,
      "duration": 0.1688,
      "velocity": 97,
      "chip": "ym2612"
    },
    {
      "channel": 3,
      "note": 49,
      "start": 23.8006,
      "duration": 0.054,
      "velocity": 96,
      "chip": "ym2612"
    },
    {
      "channel": 4,
      "note": 73,
      "start": 23.8066,
      "duration": 0.1667,
      "velocity": 97,
      "chip": "ym2612"
    },
    {
      "channel": 1,
      "note": 50,
      "start": 23.8085,
      "duration": 0.0458,
      "velocity": 103,
      "chip": "ym2612"
    },
    {
      "channel": 1,
      "note": 49,
      "start": 23.8544,
      "duration": 0.0069,
      "velocity": 103,
      "chip": "ym2612"
    },
    {
      "channel": 3,
      "note": 49,
      "start": 23.8548,
      "duration": 0.007,
      "velocity": 96,
      "chip": "ym2612"
    },
    {
      "channel": 1,
      "note": 52,
      "start": 23.8616,
      "duration": 0.0074,
      "velocity": 103,
      "chip": "ym2612"
    },
    {
      "channel": 3,
      "note": 49,
      "start": 23.8619,
      "duration": 0.0145,
      "velocity": 96,
      "chip": "ym2612"
    },
    {
      "channel": 1,
      "note": 49,
      "start": 23.8692,
      "duration": 0.0069,
      "velocity": 103,
      "chip": "ym2612"
    },
    {
      "channel": 1,
      "note": 54,
      "start": 23.8763,
      "duration": 0.0073,
      "velocity": 103,
      "chip": "ym2612"
    },
    {
      "channel": 3,
      "note": 49,
      "start": 23.8766,
      "duration": 0.0073,
      "velocity": 96,
      "chip": "ym2612"
    },
    {
      "channel": 1,
      "note": 49,
      "start": 23.8838,
      "duration": 0.0073,
      "velocity": 103,
      "chip": "ym2612"
    },
    {
      "channel": 3,
      "note": 49,
      "start": 23.8841,
      "duration": 0.0147,
      "velocity": 96,
      "chip": "ym2612"
    },
    {
      "channel": 1,
      "note": 56,
      "start": 23.8913,
      "duration": 0.0072,
      "velocity": 103,
      "chip": "ym2612"
    },
    {
      "channel": 1,
      "note": 49,
      "start": 23.8986,
      "duration": 0.0071,
      "velocity": 103,
      "chip": "ym2612"
    },
    {
      "channel": 3,
      "note": 49,
      "start": 23.899,
      "duration": 0.0552,
      "velocity": 96,
      "chip": "ym2612"
    },
    {
      "channel": 1,
      "note": 50,
      "start": 23.9059,
      "duration": 0.048,
      "velocity": 103,
      "chip": "ym2612"
    },
    {
      "channel": 1,
      "note": 49,
      "start": 23.9541,
      "duration": 0.0071,
      "velocity": 103,
      "chip": "ym2612"
    },
    {
      "channel": 3,
      "note": 49,
      "start": 23.9544,
      "duration": 0.015,
      "velocity": 96,
      "chip": "ym2612"
    },
    {
      "channel": 1,
      "note": 52,
      "start": 23.9615,
      "duration": 0.0074,
      "velocity": 103,
      "chip": "ym2612"
    },
    {
      "channel": 0,
      "note": 76,
      "start": 23.9688,
      "duration": 0.0266,
      "velocity": 97,
      "chip": "ym2612"
    },
    {
      "channel": 1,
      "note": 49,
      "start": 23.969,
      "duration": 0.0061,
      "velocity": 103,
      "chip": "ym2612"
    },
    {
      "channel": 2,
      "note": 71,
      "start": 23.9693,
      "duration": 0.0268,
      "velocity": 97,
      "chip": "ym2612"
    },
    {
      "channel": 4,
      "note": 76,
      "start": 23.9735,
      "duration": 0.0279,
      "velocity": 97,
      "chip": "ym2612"
    },
    {
      "channel": 1,
      "note": 54,
      "start": 23.9753,
      "duration": 0.0068,
      "velocity": 103,
      "chip": "ym2612"
    },
    {
      "channel": 1,
      "note": 49,
      "start": 23.9823,
      "duration": 0.0065,
      "velocity": 103,
      "chip": "ym2612"
    },
    {
      "channel": 1,
      "note": 56,
      "start": 23.989,
      "duration": 0.0068,
      "velocity": 103,
      "chip": "ym2612"
    },
    {
      "channel": 0,
      "note": 75,
      "start": 23.9957,
      "duration": 0.196,
      "velocity": 97,
      "chip": "ym2612"
    },
    {
      "channel": 1,
      "note": 49,
      "start": 23.996,
      "duration": 0.0072,
      "velocity": 103,
      "chip": "ym2612"
    },
    {
      "channel": 2,
      "note": 70,
      "start": 23.9963,
      "duration": 0.1959,
      "velocity": 97,
      "chip": "ym2612"
    },
    {
      "channel": 3,
      "note": 49,
      "start": 23.9966,
      "duration": 0.0546,
      "velocity": 96,
      "chip": "ym2612"
    },
    {
      "channel": 4,
      "note": 75,
      "start": 24.0016,
      "duration": 0.1958,
      "velocity": 97,
      "chip": "ym2612"
    },
    {
      "channel": 1,
      "note": 50,
      "start": 24.0033,
      "duration": 0.0476,
      "velocity": 103,
      "chip": "ym2612"
    },
    {
      "channel": 1,
      "note": 49,
      "start": 24.0511,
      "duration": 0.007,
      "velocity": 103,
      "chip": "ym2612"
    },
    {
      "channel": 3,
      "note": 49,
      "start": 24.0514,
      "duration": 0.0071,
      "velocity": 96,
      "chip": "ym2612"
    },
    {
      "channel": 1,
      "note": 52,
      "start": 24.0583,
      "duration": 0.0073,
      "velocity": 103,
      "chip": "ym2612"
    },
    {
      "channel": 3,
      "note": 49,
      "start": 24.0588,
      "duration": 0.0144,
      "velocity": 96,
      "chip": "ym2612"
    },
    {
      "channel": 1,
      "note": 49,
      "start": 24.0658,
      "duration": 0.007,
      "velocity": 103,
      "chip": "ym2612"
    },
    {
      "channel": 1,
      "note": 54,
      "start": 24.073,
      "duration": 0.007,
      "velocity": 103,
      "chip": "ym2612"
    },
    {
      "channel": 3,
      "note": 49,
      "start": 24.0734,
      "duration": 0.007,
      "velocity": 96,
      "chip": "ym2612"
    },
    {
      "channel": 1,
      "note": 49,
      "start": 24.0802,
      "duration": 0.0072,
      "velocity": 103,
      "chip": "ym2612"
    },
    {
      "channel": 3,
      "note": 49,
      "start": 24.0805,
      "duration": 0.0147,
      "velocity": 96,
      "chip": "ym2612"
    },
    {
      "channel": 1,
      "note": 56,
      "start": 24.0876,
      "duration": 0.0072,
      "velocity": 103,
      "chip": "ym2612"
    },
    {
      "channel": 1,
      "note": 49,
      "start": 24.0949,
      "duration": 0.007,
      "velocity": 103,
      "chip": "ym2612"
    },
    {
      "channel": 3,
      "note": 49,
      "start": 24.0953,
      "duration": 0.055,
      "velocity": 96,
      "chip": "ym2612"
    },
    {
      "channel": 1,
      "note": 50,
      "start": 24.1022,
      "duration": 0.0478,
      "velocity": 103,
      "chip": "ym2612"
    },
    {
      "channel": 1,
      "note": 49,
      "start": 24.1501,
      "duration": 0.0071,
      "velocity": 103,
      "chip": "ym2612"
    },
    {
      "channel": 3,
      "note": 49,
      "start": 24.1504,
      "duration": 0.0146,
      "velocity": 96,
      "chip": "ym2612"
    },
    {
      "channel": 1,
      "note": 52,
      "start": 24.1575,
      "duration": 0.0072,
      "velocity": 103,
      "chip": "ym2612"
    },
    {
      "channel": 1,
      "note": 49,
      "start": 24.1648,
      "duration": 0.0061,
      "velocity": 103,
      "chip": "ym2612"
    },
    {
      "channel": 1,
      "note": 54,
      "start": 24.171,
      "duration": 0.0069,
      "velocity": 103,
      "chip": "ym2612"
    },
    {
      "channel": 1,
      "note": 49,
      "start": 24.1782,
      "duration": 0.0067,
      "velocity": 103,
      "chip": "ym2612"
    },
    {
      "channel": 1,
      "note": 56,
      "start": 24.1851,
      "duration": 0.0067,
      "velocity": 103,
      "chip": "ym2612"
    },
    {
      "channel": 0,
      "note": 75,
      "start": 24.1917,
      "duration": 0.07,
      "velocity": 97,
      "chip": "ym2612"
    },
    {
      "channel": 1,
      "note": 49,
      "start": 24.192,
      "duration": 0.0072,
      "velocity": 103,
      "chip": "ym2612"
    },
    {
      "channel": 2,
      "note": 70,
      "start": 24.1922,
      "duration": 0.0702,
      "velocity": 97,
      "chip": "ym2612"
    },
    {
      "channel": 3,
      "note": 49,
      "start": 24.1925,
      "duration": 0.055,
      "velocity": 96,
      "chip": "ym2612"
    },
    {
      "channel": 4,
      "note": 75,
      "start": 24.1974,
      "duration": 0.07,
      "velocity": 97,
      "chip": "ym2612"
    },
    {
      "channel": 1,
      "note": 50,
      "start": 24.1993,
      "duration": 0.0479,
      "velocity": 103,
      "chip": "ym2612"
    },
    {
      "channel": 1,
      "note": 49,
      "start": 24.2474,
      "duration": 0.0066,
      "velocity": 103,
      "chip": "ym2612"
    },
    {
      "channel": 3,
      "note": 49,
      "start": 24.2477,
      "duration": 0.0066,
      "velocity": 96,
      "chip": "ym2612"
    },
    {
      "channel": 1,
      "note": 52,
      "start": 24.2542,
      "duration": 0.0078,
      "velocity": 103,
      "chip": "ym2612"
    },
    {
      "channel": 3,
      "note": 49,
      "start": 24.2545,
      "duration": 0.0154,
      "velocity": 96,
      "chip": "ym2612"
    },
    {
      "channel": 0,
      "note": 73,
      "start": 24.262,
      "duration": 0.0292,
      "velocity": 97,
      "chip": "ym2612"
    },
    {
      "channel": 1,
      "note": 49,
      "start": 24.2623,
      "duration": 0.0073,
      "velocity": 103,
      "chip": "ym2612"
    },
    {
      "channel": 2,
      "note": 68,
      "start": 24.2624,
      "duration": 0.0293,
      "velocity": 97,
      "chip": "ym2612"
    },
    {
      "channel": 4,
      "note": 73,
      "start": 24.2676,
      "duration": 0.0295,
      "velocity": 97,
      "chip": "ym2612"
    },
    {
      "channel": 1,
      "note": 54,
      "start": 24.2697,
      "duration": 0.0068,
      "velocity": 103,
      "chip": "ym2612"
    },
    {
      "channel": 3,
      "note": 49,
      "start": 24.2701,
      "duration": 0.0068,
      "velocity": 96,
      "chip": "ym2612"
    },
    {
      "channel": 1,
      "note": 49,
      "start": 24.2768,
      "duration": 0.0072,
      "velocity": 103,
      "chip": "ym2612"
    },
    {
      "channel": 3,
      "note": 49,
      "start": 24.277,
      "duration": 0.0149,
      "velocity": 96,
      "chip": "ym2612"
    },
    {
      "channel": 1,
      "note": 56,
      "start": 24.2841,
      "duration": 0.0073,
      "velocity": 103,
      "chip": "ym2612"
    },
    {
      "channel": 0,
      "note": 76,
      "start": 24.2913,
      "duration": 0.0702,
      "velocity": 97,
      "chip": "ym2612"
    },
    {
      "channel": 1,
      "note": 49,
      "start": 24.2917,
      "duration": 0.0074,
      "velocity": 103,
      "chip": "ym2612"
    },
    {
      "channel": 2,
      "note": 71,
      "start": 24.2919,
      "duration": 0.0702,
      "velocity": 97,
      "chip": "ym2612"
    },
    {
      "channel": 3,
      "note": 49,
      "start": 24.2922,
      "duration": 0.055,
      "velocity": 96,
      "chip": "ym2612"
    },
    {
      "channel": 4,
      "note": 76,
      "start": 24.2972,
      "duration": 0.0689,
      "velocity": 97,
      "chip": "ym2612"
    },
    {
      "channel": 1,
      "note": 50,
      "start": 24.2993,
      "duration": 0.0477,
      "velocity": 103,
      "chip": "ym2612"
    },
    {
      "channel": 1,
      "note": 49,
      "start": 24.3471,
      "duration": 0.0071,
      "velocity": 103,
      "chip": "ym2612"
    },
    {
      "channel": 3,
      "note": 49,
      "start": 24.3474,
      "duration": 0.0149,
      "velocity": 96,
      "chip": "ym2612"
    },
    {
      "channel": 1,
      "note": 52,
      "start": 24.3544,
      "duration": 0.0073,
      "velocity": 103,
      "chip": "ym2612"
    },
    {
      "channel": 0,
      "note": 75,
      "start": 24.3617,
      "duration": 0.0269,
      "velocity": 97,
      "chip": "ym2612"
    },
    {
      "channel": 1,
      "note": 49,
      "start": 24.362,
      "duration": 0.006,
      "velocity": 103,
      "chip": "ym2612"
    },
    {
      "channel": 2,
      "note": 70,
      "start": 24.3622,
      "duration": 0.027,
      "velocity": 97,
      "chip": "ym2612"
    },
    {
      "channel": 4,
      "note": 75,
      "start": 24.3663,
      "duration": 0.0277,
      "velocity": 97,
      "chip": "ym2612"
    },
    {
      "channel": 1,
      "note": 54,
      "start": 24.3681,
      "duration": 0.007,
      "velocity": 103,
      "chip": "ym2612"
    },
    {
      "channel": 1,
      "note": 49,
      "start": 24.3753,
      "duration": 0.0067,
      "velocity": 103,
      "chip": "ym2612"
    },
    {
      "channel": 1,
      "note": 56,
      "start": 24.3822,
      "duration": 0.0066,
      "velocity": 103,
      "chip": "ym2612"
    },
    {
      "channel": 0,
      "note": 72,
      "start": 24.3888,
      "duration": 118.2094,
      "velocity": 97,
      "chip": "ym2612"
    },
    {
      "channel": 1,
      "note": 49,
      "start": 24.3891,
      "duration": 0.0069,
      "velocity": 103,
      "chip": "ym2612"
    },
    {
      "channel": 2,
      "note": 68,
      "start": 24.3893,
      "duration": 118.2088,
      "velocity": 97,
      "chip": "ym2612"
    },
    {
      "channel": 3,
      "note": 49,
      "start": 24.3895,
      "duration": 118.2086,
      "velocity": 96,
      "chip": "ym2612"
    },
    {
      "channel": 4,
      "note": 72,
      "start": 24.3942,
      "duration": 118.2039,
      "velocity": 97,
      "chip": "ym2612"
    },
    {
      "channel": 1,
      "note": 50,
      "start": 24.3963,
      "duration": 0.0479,
      "velocity": 103,
      "chip": "ym2612"
    },
    {
      "channel": 1,
      "note": 49,
      "start": 24.4444,
      "duration": 118.1537,
      "velocity": 103,
      "chip": "ym2612"
    }
  ]
}