{
  "track_name": "25 - Ending (Jennifer + David Alive)",
  "duration_sec": 32.522,
  "sample_rate": 44100,
  "note_count": 799,
  "unique_pitches": 46,
  "pitch_range": 56,
  "avg_note_duration": 0.2335,
  "reconstruction_stats": {
    "notes_reconstructed": 799,
    "keyon_events": 799,
    "keyoff_events": 793,
    "orphan_keyons": 6,
    "unique_pitches": 46,
    "pitch_range": 56,
    "avg_duration_sec": 0.2335
  },
  "metadata": {
    "source": "S\\Splatterhouse 3\\25 - Ending (Jennifer + David Alive).vgz"
  },
  "notes": [
    {
      "channel": 0,
      "note": 58,
      "start": 0.0,
      "duration": 0.0442,
      "velocity": 104,
      "chip": "ym2612"
    },
    {
      "channel": 1,
      "note": 58,
      "start": 0.0028,
      "duration": 0.0424,
      "velocity": 51,
      "chip": "ym2612"
    },
    {
      "channel": 2,
      "note": 50,
      "start": 0.0064,
      "duration": 0.0397,
      "velocity": 51,
      "chip": "ym2612"
    },
    {
      "channel": 0,
      "note": 60,
      "start": 0.0443,
      "duration": 0.0675,
      "velocity": 104,
      "chip": "ym2612"
    },
    {
      "channel": 1,
      "note": 60,
      "start": 0.0453,
      "duration": 0.0675,
      "velocity": 51,
      "chip": "ym2612"
    },
    {
      "channel": 2,
      "note": 51,
      "start": 0.0462,
      "duration": 0.0675,
      "velocity": 51,
      "chip": "ym2612"
    },
    {
      "channel": 0,
      "note": 62,
      "start": 0.112,
      "duration": 0.0495,
      "velocity": 104,
      "chip": "ym2612"
    },
    {
      "channel": 1,
      "note": 62,
      "start": 0.1129,
      "duration": 0.0495,
      "velocity": 51,
      "chip": "ym2612"
    },
    {
      "channel": 2,
      "note": 53,
      "start": 0.1139,
      "duration": 0.0495,
      "velocity": 51,
      "chip": "ym2612"
    },
    {
      "channel": 4,
      "note": 58,
      "start": 0.1176,
      "duration": 0.0468,
      "velocity": 51,
      "chip": "ym2612"
    },
    {
      "channel": 5,
      "note": 80,
      "start": 0.1212,
      "duration": 0.0468,
      "velocity": 127,
      "chip": "ym2612"
    },
    {
      "channel": 0,
      "note": 63,
      "start": 0.1615,
      "duration": 0.0672,
      "velocity": 104,
      "chip": "ym2612"
    },
    {
      "channel": 1,
      "note": 63,
      "start": 0.1624,
      "duration": 0.0672,
      "velocity": 51,
      "chip": "ym2612"
    },
    {
      "channel": 2,
      "note": 55,
      "start": 0.1634,
      "duration": 0.0672,
      "velocity": 51,
      "chip": "ym2612"
    },
    {
      "channel": 4,
      "note": 60,
      "start": 0.1645,
      "duration": 0.0707,
      "velocity": 51,
      "chip": "ym2612"
    },
    {
      "channel": 5,
      "note": 80,
      "start": 0.1682,
      "duration": 0.0707,
      "velocity": 127,
      "chip": "ym2612"
    },
    {
      "channel": 0,
      "note": 65,
      "start": 0.2287,
      "duration": 0.0496,
      "velocity": 104,
      "chip": "ym2612"
    },
    {
      "channel": 1,
      "note": 65,
      "start": 0.2297,
      "duration": 0.0496,
      "velocity": 51,
      "chip": "ym2612"
    },
    {
      "channel": 2,
      "note": 56,
      "start": 0.2307,
      "duration": 0.0495,
      "velocity": 51,
      "chip": "ym2612"
    },
    {
      "channel": 3,
      "note": 50,
      "start": 0.2343,
      "duration": 0.0468,
      "velocity": 51,
      "chip": "ym2612"
    },
    {
      "channel": 4,
      "note": 62,
      "start": 0.2353,
      "duration": 0.0468,
      "velocity": 51,
      "chip": "ym2612"
    },
    {
      "channel": 5,
      "note": 80,
      "start": 0.2389,
      "duration": 0.0469,
      "velocity": 127,
      "chip": "ym2612"
    },
    {
      "channel": 0,
      "note": 67,
      "start": 0.2784,
      "duration": 0.0666,
      "velocity": 104,
      "chip": "ym2612"
    },
    {
      "channel": 1,
      "note": 67,
      "start": 0.2794,
      "duration": 0.0666,
      "velocity": 51,
      "chip": "ym2612"
    },
    {
      "channel": 2,
      "note": 58,
      "start": 0.2803,
      "duration": 0.0666,
      "velocity": 51,
      "chip": "ym2612"
    },
    {
      "channel": 3,
      "note": 51,
      "start": 0.2813,
      "duration": 0.0666,
      "velocity": 51,
      "chip": "ym2612"
    },
    {
      "channel": 4,
      "note": 63,
      "start": 0.2822,
      "duration": 0.0666,
      "velocity": 51,
      "chip": "ym2612"
    },
    {
      "channel": 5,
      "note": 80,
      "start": 0.2859,
      "duration": 0.0666,
      "velocity": 127,
      "chip": "ym2612"
    },
    {
      "channel": 0,
      "note": 68,
      "start": 0.3451,
      "duration": 0.0499,
      "velocity": 104,
      "chip": "ym2612"
    },
    {
      "channel": 1,
      "note": 68,
      "start": 0.3461,
      "duration": 0.0499,
      "velocity": 51,
      "chip": "ym2612"
    },
    {
      "channel": 2,
      "note": 60,
      "start": 0.3471,
      "duration": 0.05,
      "velocity": 51,
      "chip": "ym2612"
    },
    {
      "channel": 3,
      "note": 53,
      "start": 0.348,
      "duration": 0.05,
      "velocity": 51,
      "chip": "ym2612"
    },
    {
      "channel": 4,
      "note": 65,
      "start": 0.349,
      "duration": 0.05,
      "velocity": 51,
      "chip": "ym2612"
    },
    {
      "channel": 5,
      "note": 80,
      "start": 0.3527,
      "duration": 0.0499,
      "velocity": 127,
      "chip": "ym2612"
    },
    {
      "channel": 0,
      "note": 70,
      "start": 0.3951,
      "duration": 0.0666,
      "velocity": 104,
      "chip": "ym2612"
    },
    {
      "channel": 1,
      "note": 70,
      "start": 0.3961,
      "duration": 0.0666,
      "velocity": 51,
      "chip": "ym2612"
    },
    {
      "channel": 2,
      "note": 62,
      "start": 0.3971,
      "duration": 0.0666,
      "velocity": 51,
      "chip": "ym2612"
    },
    {
      "channel": 3,
      "note": 55,
      "start": 0.398,
      "duration": 0.0666,
      "velocity": 51,
      "chip": "ym2612"
    },
    {
      "channel": 4,
      "note": 67,
      "start": 0.399,
      "duration": 0.0665,
      "velocity": 51,
      "chip": "ym2612"
    },
    {
      "channel": 5,
      "note": 80,
      "start": 0.4027,
      "duration": 0.0665,
      "velocity": 127,
      "chip": "ym2612"
    },
    {
      "channel": 0,
      "note": 72,
      "start": 0.4617,
      "duration": 0.0499,
      "velocity": 104,
      "chip": "ym2612"
    },
    {
      "channel": 1,
      "note": 72,
      "start": 0.4627,
      "duration": 0.0499,
      "velocity": 51,
      "chip": "ym2612"
    },
    {
      "channel": 2,
      "note": 63,
      "start": 0.4637,
      "duration": 0.0499,
      "velocity": 51,
      "chip": "ym2612"
    },
    {
      "channel": 3,
      "note": 56,
      "start": 0.4647,
      "duration": 0.0498,
      "velocity": 51,
      "chip": "ym2612"
    },
    {
      "channel": 4,
      "note": 68,
      "start": 0.4656,
      "duration": 0.0498,
      "velocity": 51,
      "chip": "ym2612"
    },
    {
      "channel": 5,
      "note": 80,
      "start": 0.4693,
      "duration": 0.0499,
      "velocity": 127,
      "chip": "ym2612"
    },
    {
      "channel": 0,
      "note": 74,
      "start": 0.5117,
      "duration": 0.0666,
      "velocity": 104,
      "chip": "ym2612"
    },
    {
      "channel": 1,
      "note": 74,
      "start": 0.5127,
      "duration": 0.0666,
      "velocity": 51,
      "chip": "ym2612"
    },
    {
      "channel": 2,
      "note": 65,
      "start": 0.5137,
      "duration": 0.0666,
      "velocity": 51,
      "chip": "ym2612"
    },
    {
      "channel": 3,
      "note": 58,
      "start": 0.5146,
      "duration": 0.0666,
      "velocity": 51,
      "chip": "ym2612"
    },
    {
      "channel": 4,
      "note": 70,
      "start": 0.5156,
      "duration": 0.0666,
      "velocity": 51,
      "chip": "ym2612"
    },
    {
      "channel": 5,
      "note": 80,
      "start": 0.5193,
      "duration": 0.0666,
      "velocity": 127,
      "chip": "ym2612"
    },
    {
      "channel": 0,
      "note": 75,
      "start": 0.5785,
      "duration": 0.0499,
      "velocity": 104,
      "chip": "ym2612"
    },
    {
      "channel": 1,
      "note": 75,
      "start": 0.5794,
      "duration": 0.0499,
      "velocity": 51,
      "chip": "ym2612"
    },
    {
      "channel": 2,
      "note": 67,
      "start": 0.5804,
      "duration": 0.0499,
      "velocity": 51,
      "chip": "ym2612"
    },
    {
      "channel": 3,
      "note": 60,
      "start": 0.5813,
      "duration": 0.0499,
      "velocity": 51,
      "chip": "ym2612"
    },
    {
      "channel": 4,
      "note": 72,
      "start": 0.5823,
      "duration": 0.0499,
      "velocity": 51,
      "chip": "ym2612"
    },
    {
      "channel": 5,
      "note": 80,
      "start": 0.586,
      "duration": 0.0498,
      "velocity": 127,
      "chip": "ym2612"
    },
    {
      "channel": 0,
      "note": 77,
      "start": 0.6284,
      "duration": 0.0666,
      "velocity": 104,
      "chip": "ym2612"
    },
    {
      "channel": 1,
      "note": 77,
      "start": 0.6294,
      "duration": 0.0666,
      "velocity": 51,
      "chip": "ym2612"
    },
    {
      "channel": 2,
      "note": 68,
      "start": 0.6303,
      "duration": 0.0665,
      "velocity": 51,
      "chip": "ym2612"
    },
    {
      "channel": 3,
      "note": 62,
      "start": 0.6313,
      "duration": 0.0665,
      "velocity": 51,
      "chip": "ym2612"
    },
    {
      "channel": 4,
      "note": 74,
      "start": 0.6323,
      "duration": 0.0665,
      "velocity": 51,
      "chip": "ym2612"
    },
    {
      "channel": 5,
      "note": 80,
      "start": 0.6359,
      "duration": 0.0665,
      "velocity": 127,
      "chip": "ym2612"
    },
    {
      "channel": 0,
      "note": 79,
      "start": 0.695,
      "duration": 0.0499,
      "velocity": 104,
      "chip": "ym2612"
    },
    {
      "channel": 1,
      "note": 79,
      "start": 0.696,
      "duration": 0.0499,
      "velocity": 51,
      "chip": "ym2612"
    },
    {
      "channel": 2,
      "note": 70,
      "start": 0.6969,
      "duration": 0.0499,
      "velocity": 51,
      "chip": "ym2612"
    },
    {
      "channel": 3,
      "note": 63,
      "start": 0.698,
      "duration": 0.0499,
      "velocity": 51,
      "chip": "ym2612"
    },
    {
      "channel": 4,
      "note": 75,
      "start": 0.6989,
      "duration": 0.0499,
      "velocity": 51,
      "chip": "ym2612"
    },
    {
      "channel": 5,
      "note": 80,
      "start": 0.7025,
      "duration": 0.0499,
      "velocity": 127,
      "chip": "ym2612"
    },
    {
      "channel": 0,
      "note": 80,
      "start": 0.7451,
      "duration": 0.0667,
      "velocity": 104,
      "chip": "ym2612"
    },
    {
      "channel": 1,
      "note": 80,
      "start": 0.746,
      "duration": 0.0667,
      "velocity": 51,
      "chip": "ym2612"
    },
    {
      "channel": 2,
      "note": 72,
      "start": 0.747,
      "duration": 0.0667,
      "velocity": 51,
      "chip": "ym2612"
    },
    {
      "channel": 3,
      "note": 65,
      "start": 0.748,
      "duration": 0.0667,
      "velocity": 51,
      "chip": "ym2612"
    },
    {
      "channel": 4,
      "note": 77,
      "start": 0.7489,
      "duration": 0.0667,
      "velocity": 51,
      "chip": "ym2612"
    },
    {
      "channel": 5,
      "note": 80,
      "start": 0.7526,
      "duration": 0.0667,
      "velocity": 127,
      "chip": "ym2612"
    },
    {
      "channel": 0,
      "note": 82,
      "start": 0.8119,
      "duration": 0.0498,
      "velocity": 104,
      "chip": "ym2612"
    },
    {
      "channel": 1,
      "note": 82,
      "start": 0.8128,
      "duration": 0.0498,
      "velocity": 51,
      "chip": "ym2612"
    },
    {
      "channel": 2,
      "note": 74,
      "start": 0.8138,
      "duration": 0.0498,
      "velocity": 51,
      "chip": "ym2612"
    },
    {
      "channel": 3,
      "note": 67,
      "start": 0.8147,
      "duration": 0.0498,
      "velocity": 51,
      "chip": "ym2612"
    },
    {
      "channel": 4,
      "note": 79,
      "start": 0.8157,
      "duration": 0.0498,
      "velocity": 51,
      "chip": "ym2612"
    },
    {
      "channel": 5,
      "note": 80,
      "start": 0.8194,
      "duration": 0.0497,
      "velocity": 127,
      "chip": "ym2612"
    },
    {
      "channel": 0,
      "note": 84,
      "start": 0.8617,
      "duration": 0.0667,
      "velocity": 104,
      "chip": "ym2612"
    },
    {
      "channel": 1,
      "note": 84,
      "start": 0.8627,
      "duration": 0.0667,
      "velocity": 51,
      "chip": "ym2612"
    },
    {
      "channel": 2,
      "note": 75,
      "start": 0.8636,
      "duration": 0.0667,
      "velocity": 51,
      "chip": "ym2612"
    },
    {
      "channel": 3,
      "note": 68,
      "start": 0.8646,
      "duration": 0.0666,
      "velocity": 51,
      "chip": "ym2612"
    },
    {
      "channel": 4,
      "note": 80,
      "start": 0.8656,
      "duration": 0.0666,
      "velocity": 51,
      "chip": "ym2612"
    },
    {
      "channel": 5,
      "note": 80,
      "start": 0.8692,
      "duration": 0.0666,
      "velocity": 127,
      "chip": "ym2612"
    },
    {
      "channel": 0,
      "note": 86,
      "start": 0.9284,
      "duration": 0.0499,
      "velocity": 104,
      "chip": "ym2612"
    },
    {
      "channel": 1,
      "note": 86,
      "start": 0.9294,
      "duration": 0.0499,
      "velocity": 51,
      "chip": "ym2612"
    },
    {
      "channel": 2,
      "note": 77,
      "start": 0.9303,
      "duration": 0.0499,
      "velocity": 51,
      "chip": "ym2612"
    },
    {
      "channel": 3,
      "note": 70,
      "start": 0.9313,
      "duration": 0.0498,
      "velocity": 51,
      "chip": "ym2612"
    },
    {
      "channel": 4,
      "note": 82,
      "start": 0.9323,
      "duration": 0.0498,
      "velocity": 51,
      "chip": "ym2612"
    },
    {
      "channel": 5,
      "note": 80,
      "start": 0.9359,
      "duration": 0.0499,
      "velocity": 127,
      "chip": "ym2612"
    },
    {
      "channel": 0,
      "note": 87,
      "start": 0.9784,
      "duration": 0.0667,
      "velocity": 104,
      "chip": "ym2612"
    },
    {
      "channel": 1,
      "note": 87,
      "start": 0.9794,
      "duration": 0.0667,
      "velocity": 51,
      "chip": "ym2612"
    },
    {
      "channel": 2,
      "note": 79,
      "start": 0.9803,
      "duration": 0.0667,
      "velocity": 51,
      "chip": "ym2612"
    },
    {
      "channel": 3,
      "note": 72,
      "start": 0.9813,
      "duration": 0.0667,
      "velocity": 51,
      "chip": "ym2612"
    },
    {
      "channel": 4,
      "note": 84,
      "start": 0.9822,
      "duration": 0.0667,
      "velocity": 51,
      "chip": "ym2612"
    },
    {
      "channel": 5,
      "note": 80,
      "start": 0.9859,
      "duration": 0.0667,
      "velocity": 127,
      "chip": "ym2612"
    },
    {
      "channel": 0,
      "note": 89,
      "start": 1.0452,
      "duration": 0.0498,
      "velocity": 104,
      "chip": "ym2612"
    },
    {
      "channel": 1,
      "note": 89,
      "start": 1.0462,
      "duration": 0.0498,
      "velocity": 51,
      "chip": "ym2612"
    },
    {
      "channel": 2,
      "note": 68,
      "start": 1.0471,
      "duration": 0.0498,
      "velocity": 51,
      "chip": "ym2612"
    },
    {
      "channel": 3,
      "note": 74,
      "start": 1.0481,
      "duration": 0.0498,
      "velocity": 51,
      "chip": "ym2612"
    },
    {
      "channel": 4,
      "note": 86,
      "start": 1.049,
      "duration": 0.0498,
      "velocity": 51,
      "chip": "ym2612"
    },
    {
      "channel": 5,
      "note": 80,
      "start": 1.0527,
      "duration": 0.0497,
      "velocity": 127,
      "chip": "ym2612"
    },
    {
      "channel": 0,
      "note": 91,
      "start": 1.095,
      "duration": 0.0666,
      "velocity": 104,
      "chip": "ym2612"
    },
    {
      "channel": 1,
      "note": 91,
      "start": 1.096,
      "duration": 0.0666,
      "velocity": 51,
      "chip": "ym2612"
    },
    {
      "channel": 2,
      "note": 70,
      "start": 1.0969,
      "duration": 0.0666,
      "velocity": 51,
      "chip": "ym2612"
    },
    {
      "channel": 3,
      "note": 75,
      "start": 1.098,
      "duration": 0.0665,
      "velocity": 51,
      "chip": "ym2612"
    },
    {
      "channel": 4,
      "note": 87,
      "start": 1.0989,
      "duration": 0.0665,
      "velocity": 51,
      "chip": "ym2612"
    },
    {
      "channel": 5,
      "note": 80,
      "start": 1.1025,
      "duration": 0.0665,
      "velocity": 127,
      "chip": "ym2612"
    },
    {
      "channel": 0,
      "note": 92,
      "start": 1.1617,
      "duration": 0.0499,
      "velocity": 104,
      "chip": "ym2612"
    },
    {
      "channel": 1,
      "note": 92,
      "start": 1.1627,
      "duration": 0.0499,
      "velocity": 51,
      "chip": "ym2612"
    },
    {
      "channel": 2,
      "note": 72,
      "start": 1.1636,
      "duration": 0.0499,
      "velocity": 51,
      "chip": "ym2612"
    },
    {
      "channel": 3,
      "note": 77,
      "start": 1.1646,
      "duration": 0.0499,
      "velocity": 51,
      "chip": "ym2612"
    },
    {
      "channel": 4,
      "note": 89,
      "start": 1.1656,
      "duration": 0.0499,
      "velocity": 51,
      "chip": "ym2612"
    },
    {
      "channel": 5,
      "note": 80,
      "start": 1.1692,
      "duration": 0.0499,
      "velocity": 127,
      "chip": "ym2612"
    },
    {
      "channel": 0,
      "note": 94,
      "start": 1.2117,
      "duration": 0.0679,
      "velocity": 104,
      "chip": "ym2612"
    },
    {
      "channel": 1,
      "note": 94,
      "start": 1.2127,
      "duration": 0.0705,
      "velocity": 101,
      "chip": "ym2612"
    },
    {
      "channel": 2,
      "note": 74,
      "start": 1.2137,
      "duration": 0.0728,
      "velocity": 102,
      "chip": "ym2612"
    },
    {
      "channel": 3,
      "note": 79,
      "start": 1.2146,
      "duration": 0.0754,
      "velocity": 102,
      "chip": "ym2612"
    },
    {
      "channel": 4,
      "note": 91,
      "start": 1.2156,
      "duration": 0.0754,
      "velocity": 51,
      "chip": "ym2612"
    },
    {
      "channel": 5,
      "note": 80,
      "start": 1.2192,
      "duration": 0.0756,
      "velocity": 28,
      "chip": "ym2612"
    },
    {
      "channel": 0,
      "note": 63,
      "start": 1.2797,
      "duration": 0.1643,
      "velocity": 104,
      "chip": "ym2612"
    },
    {
      "channel": 1,
      "note": 79,
      "start": 1.2833,
      "duration": 1.3955,
      "velocity": 101,
      "chip": "ym2612"
    },
    {
      "channel": 3,
      "note": 70,
      "start": 1.2901,
      "duration": 1.3906,
      "velocity": 102,
      "chip": "ym2612"
    },
    {
      "channel": 4,
      "note": 92,
      "start": 1.2911,
      "duration": 0.0372,
      "velocity": 51,
      "chip": "ym2612"
    },
    {
      "channel": 4,
      "note": 94,
      "start": 1.3285,
      "duration": 0.0662,
      "velocity": 51,
      "chip": "ym2612"
    },
    {
      "channel": 0,
      "note": 70,
      "start": 1.4441,
      "duration": 0.1501,
      "velocity": 104,
      "chip": "ym2612"
    },
    {
      "channel": 4,
      "note": 79,
      "start": 1.5153,
      "duration": 1.3969,
      "velocity": 101,
      "chip": "ym2612"
    },
    {
      "channel": 5,
      "note": 70,
      "start": 1.5189,
      "duration": 1.3943,
      "velocity": 102,
      "chip": "ym2612"
    },
    {
      "channel": 0,
      "note": 75,
      "start": 1.5942,
      "duration": 0.1501,
      "velocity": 104,
      "chip": "ym2612"
    },
    {
      "channel": 0,
      "note": 77,
      "start": 1.7444,
      "duration": 0.1663,
      "velocity": 104,
      "chip": "ym2612"
    },
    {
      "channel": 2,
      "note": 55,
      "start": 1.7457,
      "duration": 0.4663,
      "velocity": 102,
      "chip": "ym2612"
    },
    {
      "channel": 0,
      "note": 75,
      "start": 1.9109,
      "duration": 0.1499,
      "velocity": 104,
      "chip": "ym2612"
    },
    {
      "channel": 0,
      "note": 70,
      "start": 2.0609,
      "duration": 0.15,
      "velocity": 104,
      "chip": "ym2612"
    },
    {
      "channel": 0,
      "note": 67,
      "start": 2.211,
      "duration": 0.1664,
      "velocity": 104,
      "chip": "ym2612"
    },
    {
      "channel": 2,
      "note": 58,
      "start": 2.2121,
      "duration": 0.4676,
      "velocity": 102,
      "chip": "ym2612"
    },
    {
      "channel": 0,
      "note": 70,
      "start": 2.3775,
      "duration": 0.1499,
      "velocity": 104,
      "chip": "ym2612"
    },
    {
      "channel": 0,
      "note": 75,
      "start": 2.5275,
      "duration": 0.1504,
      "velocity": 104,
      "chip": "ym2612"
    },
    {
      "channel": 0,
      "note": 77,
      "start": 2.678,
      "duration": 0.1661,
      "velocity": 104,
      "chip": "ym2612"
    },
    {
      "channel": 1,
      "note": 70,
      "start": 2.6789,
      "duration": 0.4665,
      "velocity": 101,
      "chip": "ym2612"
    },
    {
      "channel": 2,
      "note": 63,
      "start": 2.6799,
      "duration": 1.3999,
      "velocity": 102,
      "chip": "ym2612"
    },
    {
      "channel": 3,
      "note": 67,
      "start": 2.6808,
      "duration": 0.466,
      "velocity": 102,
      "chip": "ym2612"
    },
    {
      "channel": 0,
      "note": 75,
      "start": 2.8442,
      "duration": 0.1499,
      "velocity": 104,
      "chip": "ym2612"
    },
    {
      "channel": 4,
      "note": 70,
      "start": 2.9123,
      "duration": 0.4665,
      "velocity": 101,
      "chip": "ym2612"
    },
    {
      "channel": 5,
      "note": 67,
      "start": 2.9132,
      "duration": 0.4665,
      "velocity": 102,
      "chip": "ym2612"
    },
    {
      "channel": 0,
      "note": 70,
      "start": 2.9942,
      "duration": 0.1503,
      "velocity": 104,
      "chip": "ym2612"
    },
    {
      "channel": 0,
      "note": 68,
      "start": 3.1446,
      "duration": 0.1661,
      "velocity": 104,
      "chip": "ym2612"
    },
    {
      "channel": 1,
      "note": 68,
      "start": 3.1456,
      "duration": 0.4664,
      "velocity": 101,
      "chip": "ym2612"
    },
    {
      "channel": 3,
      "note": 63,
      "start": 3.1469,
      "duration": 0.4663,
      "velocity": 102,
      "chip": "ym2612"
    },
    {
      "channel": 0,
      "note": 71,
      "start": 3.3109,
      "duration": 0.1499,
      "velocity": 104,
      "chip": "ym2612"
    },
    {
      "channel": 4,
      "note": 68,
      "start": 3.3788,
      "duration": 0.4666,
      "velocity": 101,
      "chip": "ym2612"
    },
    {
      "channel": 5,
      "note": 63,
      "start": 3.3798,
      "duration": 0.4665,
      "velocity": 102,
      "chip": "ym2612"
    },
    {
      "channel": 0,
      "note": 75,
      "start": 3.4609,
      "duration": 0.1501,
      "velocity": 104,
      "chip": "ym2612"
    },
    {
      "channel": 0,
      "note": 77,
      "start": 3.6112,
      "duration": 0.1662,
      "velocity": 104,
      "chip": "ym2612"
    },
    {
      "channel": 1,
      "note": 71,
      "start": 3.6121,
      "duration": 0.4667,
      "velocity": 101,
      "chip": "ym2612"
    },
    {
      "channel": 3,
      "note": 68,
      "start": 3.6133,
      "duration": 0.4674,
      "velocity": 102,
      "chip": "ym2612"
    },
    {
      "channel": 0,
      "note": 75,
      "start": 3.7775,
      "duration": 0.1499,
      "velocity": 104,
      "chip": "ym2612"
    },
    {
      "channel": 4,
      "note": 71,
      "start": 3.8455,
      "duration": 0.4667,
      "velocity": 101,
      "chip": "ym2612"
    },
    {
      "channel": 5,
      "note": 68,
      "start": 3.8464,
      "duration": 0.4667,
      "velocity": 102,
      "chip": "ym2612"
    },
    {
      "channel": 0,
      "note": 71,
      "start": 3.9275,
      "duration": 0.1503,
      "velocity": 104,
      "chip": "ym2612"
    },
    {
      "channel": 0,
      "note": 68,
      "start": 4.078,
      "duration": 0.1661,
      "velocity": 104,
      "chip": "ym2612"
    },
    {
      "channel": 1,
      "note": 79,
      "start": 4.0789,
      "duration": 0.4664,
      "velocity": 101,
      "chip": "ym2612"
    },
    {
      "channel": 2,
      "note": 65,
      "start": 4.0799,
      "duration": 0.4664,
      "velocity": 102,
      "chip": "ym2612"
    },
    {
      "channel": 3,
      "note": 71,
      "start": 4.0808,
      "duration": 0.9326,
      "velocity": 102,
      "chip": "ym2612"
    },
    {
      "channel": 0,
      "note": 71,
      "start": 4.2442,
      "duration": 0.1499,
      "velocity": 104,
      "chip": "ym2612"
    },
    {
      "channel": 4,
      "note": 79,
      "start": 4.3123,
      "duration": 0.4662,
      "velocity": 101,
      "chip": "ym2612"
    },
    {
      "channel": 5,
      "note": 71,
      "start": 4.3133,
      "duration": 0.9331,
      "velocity": 102,
      "chip": "ym2612"
    },
    {
      "channel": 0,
      "note": 75,
      "start": 4.3943,
      "duration": 0.1501,
      "velocity": 104,
      "chip": "ym2612"
    },
    {
      "channel": 0,
      "note": 80,
      "start": 4.5445,
      "duration": 0.1662,
      "velocity": 104,
      "chip": "ym2612"
    },
    {
      "channel": 1,
      "note": 77,
      "start": 4.5455,
      "duration": 0.4667,
      "velocity": 101,
      "chip": "ym2612"
    },
    {
      "channel": 2,
      "note": 63,
      "start": 4.5464,
      "duration": 0.9324,
      "velocity": 102,
      "chip": "ym2612"
    },
    {
      "channel": 0,
      "note": 75,
      "start": 4.7109,
      "duration": 0.1499,
      "velocity": 104,
      "chip": "ym2612"
    },
    {
      "channel": 4,
      "note": 77,
      "start": 4.7787,
      "duration": 0.4667,
      "velocity": 101,
      "chip": "ym2612"
    },
    {
      "channel": 0,
      "note": 71,
      "start": 4.8609,
      "duration": 0.1503,
      "velocity": 104,
      "chip": "ym2612"
    },
    {
      "channel": 0,
      "note": 63,
      "start": 5.0113,
      "duration": 0.1661,
      "velocity": 104,
      "chip": "ym2612"
    },
    {
      "channel": 1,
      "note": 75,
      "start": 5.0123,
      "duration": 0.9332,
      "velocity": 101,
      "chip": "ym2612"
    },
    {
      "channel": 3,
      "note": 67,
      "start": 5.0135,
      "duration": 0.9338,
      "velocity": 102,
      "chip": "ym2612"
    },
    {
      "channel": 0,
      "note": 70,
      "start": 5.1775,
      "duration": 0.1499,
      "velocity": 104,
      "chip": "ym2612"
    },
    {
      "channel": 4,
      "note": 75,
      "start": 5.2455,
      "duration": 0.9333,
      "velocity": 101,
      "chip": "ym2612"
    },
    {
      "channel": 5,
      "note": 67,
      "start": 5.2465,
      "duration": 0.9333,
      "velocity": 102,
      "chip": "ym2612"
    },
    {
      "channel": 0,
      "note": 75,
      "start": 5.3276,
      "duration": 0.15,
      "velocity": 104,
      "chip": "ym2612"
    },
    {
      "channel": 0,
      "note": 77,
      "start": 5.4777,
      "duration": 0.1663,
      "velocity": 104,
      "chip": "ym2612"
    },
    {
      "channel": 2,
      "note": 63,
      "start": 5.479,
      "duration": 0.4674,
      "velocity": 102,
      "chip": "ym2612"
    },
    {
      "channel": 0,
      "note": 75,
      "start": 5.6442,
      "duration": 0.1499,
      "velocity": 104,
      "chip": "ym2612"
    },
    {
      "channel": 0,
      "note": 70,
      "start": 5.7942,
      "duration": 0.1503,
      "velocity": 104,
      "chip": "ym2612"
    },
    {
      "channel": 0,
      "note": 67,
      "start": 5.9446,
      "duration": 0.1661,
      "velocity": 104,
      "chip": "ym2612"
    },
    {
      "channel": 1,
      "note": 74,
      "start": 5.9456,
      "duration": 0.4665,
      "velocity": 101,
      "chip": "ym2612"
    },
    {
      "channel": 2,
      "note": 58,
      "start": 5.9466,
      "duration": 0.4665,
      "velocity": 102,
      "chip": "ym2612"
    },
    {
      "channel": 3,
      "note": 66,
      "start": 5.9475,
      "duration": 0.4665,
      "velocity": 102,
      "chip": "ym2612"
    },
    {
      "channel": 0,
      "note": 70,
      "start": 6.1109,
      "duration": 0.1499,
      "velocity": 104,
      "chip": "ym2612"
    },
    {
      "channel": 4,
      "note": 74,
      "start": 6.1789,
      "duration": 0.4666,
      "velocity": 101,
      "chip": "ym2612"
    },
    {
      "channel": 5,
      "note": 66,
      "start": 6.1799,
      "duration": 0.4666,
      "velocity": 102,
      "chip": "ym2612"
    },
    {
      "channel": 0,
      "note": 75,
      "start": 6.2609,
      "duration": 0.1502,
      "velocity": 104,
      "chip": "ym2612"
    },
    {
      "channel": 0,
      "note": 77,
      "start": 6.4113,
      "duration": 0.1661,
      "velocity": 104,
      "chip": "ym2612"
    },
    {
      "channel": 1,
      "note": 72,
      "start": 6.4123,
      "duration": 0.4667,
      "velocity": 101,
      "chip": "ym2612"
    },
    {
      "channel": 2,
      "note": 55,
      "start": 6.4132,
      "duration": 0.4667,
      "velocity": 102,
      "chip": "ym2612"
    },
    {
      "channel": 3,
      "note": 68,
      "start": 6.4142,
      "duration": 0.4667,
      "velocity": 102,
      "chip": "ym2612"
    },
    {
      "channel": 0,
      "note": 75,
      "start": 6.5775,
      "duration": 0.1499,
      "velocity": 104,
      "chip": "ym2612"
    },
    {
      "channel": 4,
      "note": 72,
      "start": 6.6457,
      "duration": 0.4665,
      "velocity": 101,
      "chip": "ym2612"
    },
    {
      "channel": 5,
      "note": 68,
      "start": 6.6466,
      "duration": 0.4665,
      "velocity": 102,
      "chip": "ym2612"
    },
    {
      "channel": 0,
      "note": 70,
      "start": 6.7276,
      "duration": 0.1504,
      "velocity": 104,
      "chip": "ym2612"
    },
    {
      "channel": 0,
      "note": 63,
      "start": 6.8781,
      "duration": 0.166,
      "velocity": 104,
      "chip": "ym2612"
    },
    {
      "channel": 1,
      "note": 70,
      "start": 6.879,
      "duration": 0.815,
      "velocity": 101,
      "chip": "ym2612"
    },
    {
      "channel": 2,
      "note": 51,
      "start": 6.88,
      "duration": 0.4655,
      "velocity": 102,
      "chip": "ym2612"
    },
    {
      "channel": 3,
      "note": 67,
      "start": 6.881,
      "duration": 1.3998,
      "velocity": 102,
      "chip": "ym2612"
    },
    {
      "channel": 0,
      "note": 70,
      "start": 7.0442,
      "duration": 0.1499,
      "velocity": 104,
      "chip": "ym2612"
    },
    {
      "channel": 4,
      "note": 70,
      "start": 7.1123,
      "duration": 0.8158,
      "velocity": 101,
      "chip": "ym2612"
    },
    {
      "channel": 5,
      "note": 67,
      "start": 7.1133,
      "duration": 1.3999,
      "velocity": 102,
      "chip": "ym2612"
    },
    {
      "channel": 0,
      "note": 75,
      "start": 7.1943,
      "duration": 0.15,
      "velocity": 104,
      "chip": "ym2612"
    },
    {
      "channel": 0,
      "note": 77,
      "start": 7.3443,
      "duration": 0.1664,
      "velocity": 104,
      "chip": "ym2612"
    },
    {
      "channel": 2,
      "note": 55,
      "start": 7.3456,
      "duration": 0.4674,
      "velocity": 102,
      "chip": "ym2612"
    },
    {
      "channel": 0,
      "note": 75,
      "start": 7.5109,
      "duration": 0.1499,
      "velocity": 104,
      "chip": "ym2612"
    },
    {
      "channel": 0,
      "note": 70,
      "start": 7.6609,
      "duration": 0.1502,
      "velocity": 104,
      "chip": "ym2612"
    },
    {
      "channel": 0,
      "note": 63,
      "start": 7.8111,
      "duration": 0.1662,
      "velocity": 104,
      "chip": "ym2612"
    },
    {
      "channel": 1,
      "note": 70,
      "start": 7.8121,
      "duration": 0.4668,
      "velocity": 101,
      "chip": "ym2612"
    },
    {
      "channel": 2,
      "note": 58,
      "start": 7.813,
      "duration": 0.4668,
      "velocity": 102,
      "chip": "ym2612"
    },
    {
      "channel": 0,
      "note": 67,
      "start": 7.9775,
      "duration": 0.1499,
      "velocity": 104,
      "chip": "ym2612"
    },
    {
      "channel": 4,
      "note": 70,
      "start": 8.0454,
      "duration": 0.4668,
      "velocity": 101,
      "chip": "ym2612"
    },
    {
      "channel": 0,
      "note": 70,
      "start": 8.1275,
      "duration": 0.1504,
      "velocity": 104,
      "chip": "ym2612"
    },
    {
      "channel": 0,
      "note": 75,
      "start": 8.278,
      "duration": 0.1661,
      "velocity": 104,
      "chip": "ym2612"
    },
    {
      "channel": 1,
      "note": 72,
      "start": 8.2789,
      "duration": 0.4667,
      "velocity": 101,
      "chip": "ym2612"
    },
    {
      "channel": 2,
      "note": 63,
      "start": 8.2799,
      "duration": 0.4667,
      "velocity": 102,
      "chip": "ym2612"
    },
    {
      "channel": 3,
      "note": 63,
      "start": 8.2808,
      "duration": 0.4667,
      "velocity": 102,
      "chip": "ym2612"
    },
    {
      "channel": 0,
      "note": 70,
      "start": 8.4443,
      "duration": 0.1498,
      "velocity": 104,
      "chip": "ym2612"
    },
    {
      "channel": 4,
      "note": 72,
      "start": 8.5123,
      "duration": 0.4673,
      "velocity": 101,
      "chip": "ym2612"
    },
    {
      "channel": 5,
      "note": 63,
      "start": 8.5133,
      "duration": 0.4673,
      "velocity": 102,
      "chip": "ym2612"
    },
    {
      "channel": 0,
      "note": 67,
      "start": 8.5942,
      "duration": 0.1505,
      "velocity": 104,
      "chip": "ym2612"
    },
    {
      "channel": 0,
      "note": 64,
      "start": 8.7448,
      "duration": 0.166,
      "velocity": 104,
      "chip": "ym2612"
    },
    {
      "channel": 1,
      "note": 73,
      "start": 8.7457,
      "duration": 0.4663,
      "velocity": 101,
      "chip": "ym2612"
    },
    {
      "channel": 2,
      "note": 61,
      "start": 8.7467,
      "duration": 0.2317,
      "velocity": 102,
      "chip": "ym2612"
    },
    {
      "channel": 3,
      "note": 64,
      "start": 8.7476,
      "duration": 0.9331,
      "velocity": 102,
      "chip": "ym2612"
    },
    {
      "channel": 0,
      "note": 67,
      "start": 8.9109,
      "duration": 0.1499,
      "velocity": 104,
      "chip": "ym2612"
    },
    {
      "channel": 2,
      "note": 61,
      "start": 8.9785,
      "duration": 0.2345,
      "velocity": 102,
      "chip": "ym2612"
    },
    {
      "channel": 4,
      "note": 73,
      "start": 8.9798,
      "duration": 0.4663,
      "velocity": 101,
      "chip": "ym2612"
    },
    {
      "channel": 5,
      "note": 64,
      "start": 8.9807,
      "duration": 0.9333,
      "velocity": 102,
      "chip": "ym2612"
    },
    {
      "channel": 0,
      "note": 72,
      "start": 9.0609,
      "duration": 0.1502,
      "velocity": 104,
      "chip": "ym2612"
    },
    {
      "channel": 0,
      "note": 76,
      "start": 9.2112,
      "duration": 0.1663,
      "velocity": 104,
      "chip": "ym2612"
    },
    {
      "channel": 1,
      "note": 72,
      "start": 9.2121,
      "duration": 0.4667,
      "velocity": 101,
      "chip": "ym2612"
    },
    {
      "channel": 2,
      "note": 64,
      "start": 9.2131,
      "duration": 0.2317,
      "velocity": 102,
      "chip": "ym2612"
    },
    {
      "channel": 0,
      "note": 72,
      "start": 9.3775,
      "duration": 0.1499,
      "velocity": 104,
      "chip": "ym2612"
    },
    {
      "channel": 2,
      "note": 64,
      "start": 9.445,
      "duration": 0.2349,
      "velocity": 102,
      "chip": "ym2612"
    },
    {
      "channel": 4,
      "note": 72,
      "start": 9.4461,
      "duration": 0.4669,
      "velocity": 101,
      "chip": "ym2612"
    },
    {
      "channel": 0,
      "note": 67,
      "start": 9.5275,
      "duration": 0.1504,
      "velocity": 104,
      "chip": "ym2612"
    },
    {
      "channel": 0,
      "note": 64,
      "start": 9.678,
      "duration": 0.1661,
      "velocity": 104,
      "chip": "ym2612"
    },
    {
      "channel": 1,
      "note": 71,
      "start": 9.6789,
      "duration": 0.4664,
      "velocity": 101,
      "chip": "ym2612"
    },
    {
      "channel": 2,
      "note": 67,
      "start": 9.6799,
      "duration": 0.2318,
      "velocity": 102,
      "chip": "ym2612"
    },
    {
      "channel": 3,
      "note": 60,
      "start": 9.6809,
      "duration": 0.9333,
      "velocity": 102,
      "chip": "ym2612"
    },
    {
      "channel": 0,
      "note": 67,
      "start": 9.8442,
      "duration": 0.1499,
      "velocity": 104,
      "chip": "ym2612"
    },
    {
      "channel": 2,
      "note": 67,
      "start": 9.9118,
      "duration": 0.2345,
      "velocity": 102,
      "chip": "ym2612"
    },
    {
      "channel": 4,
      "note": 71,
      "start": 9.9131,
      "duration": 0.4663,
      "velocity": 101,
      "chip": "ym2612"
    },
    {
      "channel": 5,
      "note": 60,
      "start": 9.914,
      "duration": 0.9332,
      "velocity": 102,
      "chip": "ym2612"
    },
    {
      "channel": 0,
      "note": 72,
      "start": 9.9943,
      "duration": 0.1501,
      "velocity": 104,
      "chip": "ym2612"
    },
    {
      "channel": 0,
      "note": 79,
      "start": 10.1445,
      "duration": 0.1662,
      "velocity": 104,
      "chip": "ym2612"
    },
    {
      "channel": 1,
      "note": 72,
      "start": 10.1455,
      "duration": 0.4668,
      "velocity": 101,
      "chip": "ym2612"
    },
    {
      "channel": 2,
      "note": 70,
      "start": 10.1464,
      "duration": 0.2318,
      "velocity": 102,
      "chip": "ym2612"
    },
    {
      "channel": 0,
      "note": 72,
      "start": 10.3109,
      "duration": 0.1499,
      "velocity": 104,
      "chip": "ym2612"
    },
    {
      "channel": 2,
      "note": 70,
      "start": 10.3783,
      "duration": 0.2349,
      "velocity": 102,
      "chip": "ym2612"
    },
    {
      "channel": 4,
      "note": 72,
      "start": 10.3795,
      "duration": 0.4668,
      "velocity": 101,
      "chip": "ym2612"
    },
    {
      "channel": 0,
      "note": 70,
      "start": 10.4609,
      "duration": 0.1505,
      "velocity": 104,
      "chip": "ym2612"
    },
    {
      "channel": 0,
      "note": 65,
      "start": 10.6114,
      "duration": 0.166,
      "velocity": 104,
      "chip": "ym2612"
    },
    {
      "channel": 1,
      "note": 70,
      "start": 10.6124,
      "duration": 0.4663,
      "velocity": 101,
      "chip": "ym2612"
    },
    {
      "channel": 2,
      "note": 65,
      "start": 10.6133,
      "duration": 0.2317,
      "velocity": 102,
      "chip": "ym2612"
    },
    {
      "channel": 3,
      "note": 65,
      "start": 10.6143,
      "duration": 0.9331,
      "velocity": 102,
      "chip": "ym2612"
    },
    {
      "channel": 0,
      "note": 68,
      "start": 10.7775,
      "duration": 0.1499,
      "velocity": 104,
      "chip": "ym2612"
    },
    {
      "channel": 2,
      "note": 65,
      "start": 10.8451,
      "duration": 0.2345,
      "velocity": 102,
      "chip": "ym2612"
    },
    {
      "channel": 4,
      "note": 70,
      "start": 10.8464,
      "duration": 0.4663,
      "velocity": 101,
      "chip": "ym2612"
    },
    {
      "channel": 5,
      "note": 65,
      "start": 10.8474,
      "duration": 0.9333,
      "velocity": 102,
      "chip": "ym2612"
    },
    {
      "channel": 0,
      "note": 72,
      "start": 10.9275,
      "duration": 0.1502,
      "velocity": 104,
      "chip": "ym2612"
    },
    {
      "channel": 0,
      "note": 77,
      "start": 11.0778,
      "duration": 0.1663,
      "velocity": 104,
      "chip": "ym2612"
    },
    {
      "channel": 1,
      "note": 68,
      "start": 11.0788,
      "duration": 0.4667,
      "velocity": 101,
      "chip": "ym2612"
    },
    {
      "channel": 2,
      "note": 65,
      "start": 11.0798,
      "duration": 0.2317,
      "velocity": 102,
      "chip": "ym2612"
    },
    {
      "channel": 0,
      "note": 72,
      "start": 11.2442,
      "duration": 0.1499,
      "velocity": 104,
      "chip": "ym2612"
    },
    {
      "channel": 2,
      "note": 65,
      "start": 11.3116,
      "duration": 0.2349,
      "velocity": 102,
      "chip": "ym2612"
    },
    {
      "channel": 4,
      "note": 68,
      "start": 11.3128,
      "duration": 0.4669,
      "velocity": 101,
      "chip": "ym2612"
    },
    {
      "channel": 0,
      "note": 68,
      "start": 11.3942,
      "duration": 0.1504,
      "velocity": 104,
      "chip": "ym2612"
    },
    {
      "channel": 0,
      "note": 65,
      "start": 11.5446,
      "duration": 0.1661,
      "velocity": 104,
      "chip": "ym2612"
    },
    {
      "channel": 1,
      "note": 79,
      "start": 11.5456,
      "duration": 0.4665,
      "velocity": 101,
      "chip": "ym2612"
    },
    {
      "channel": 2,
      "note": 60,
      "start": 11.5466,
      "duration": 0.2318,
      "velocity": 102,
      "chip": "ym2612"
    },
    {
      "channel": 3,
      "note": 60,
      "start": 11.5475,
      "duration": 0.4665,
      "velocity": 102,
      "chip": "ym2612"
    },
    {
      "channel": 0,
      "note": 68,
      "start": 11.7109,
      "duration": 0.1499,
      "velocity": 104,
      "chip": "ym2612"
    },
    {
      "channel": 2,
      "note": 60,
      "start": 11.7785,
      "duration": 0.2346,
      "velocity": 102,
      "chip": "ym2612"
    },
    {
      "channel": 4,
      "note": 79,
      "start": 11.7798,
      "duration": 0.4666,
      "velocity": 101,
      "chip": "ym2612"
    },
    {
      "channel": 5,
      "note": 60,
      "start": 11.7808,
      "duration": 0.4665,
      "velocity": 102,
      "chip": "ym2612"
    },
    {
      "channel": 0,
      "note": 72,
      "start": 11.8609,
      "duration": 0.1502,
      "velocity": 104,
      "chip": "ym2612"
    },
    {
      "channel": 0,
      "note": 80,
      "start": 12.0113,
      "duration": 0.1661,
      "velocity": 104,
      "chip": "ym2612"
    },
    {
      "channel": 1,
      "note": 77,
      "start": 12.0123,
      "duration": 0.4667,
      "velocity": 101,
      "chip": "ym2612"
    },
    {
      "channel": 2,
      "note": 56,
      "start": 12.0132,
      "duration": 0.2318,
      "velocity": 102,
      "chip": "ym2612"
    },
    {
      "channel": 3,
      "note": 56,
      "start": 12.0142,
      "duration": 0.4662,
      "velocity": 102,
      "chip": "ym2612"
    },
    {
      "channel": 0,
      "note": 77,
      "start": 12.1775,
      "duration": 0.1499,
      "velocity": 104,
      "chip": "ym2612"
    },
    {
      "channel": 2,
      "note": 56,
      "start": 12.2451,
      "duration": 0.2344,
      "velocity": 102,
      "chip": "ym2612"
    },
    {
      "channel": 4,
      "note": 77,
      "start": 12.2464,
      "duration": 0.4655,
      "velocity": 101,
      "chip": "ym2612"
    },
    {
      "channel": 5,
      "note": 56,
      "start": 12.2474,
      "duration": 0.4655,
      "velocity": 102,
      "chip": "ym2612"
    },
    {
      "channel": 0,
      "note": 72,
      "start": 12.3275,
      "duration": 0.1505,
      "velocity": 104,
      "chip": "ym2612"
    },
    {
      "channel": 0,
      "note": 68,
      "start": 12.478,
      "duration": 0.166,
      "velocity": 104,
      "chip": "ym2612"
    },
    {
      "channel": 1,
      "note": 75,
      "start": 12.479,
      "duration": 1.8665,
      "velocity": 101,
      "chip": "ym2612"
    },
    {
      "channel": 3,
      "note": 58,
      "start": 12.4805,
      "duration": 2.7994,
      "velocity": 102,
      "chip": "ym2612"
    },
    {
      "channel": 0,
      "note": 71,
      "start": 12.6441,
      "duration": 0.15,
      "velocity": 104,
      "chip": "ym2612"
    },
    {
      "channel": 4,
      "note": 75,
      "start": 12.7121,
      "duration": 1.8674,
      "velocity": 101,
      "chip": "ym2612"
    },
    {
      "channel": 5,
      "note": 58,
      "start": 12.713,
      "duration": 2.8076,
      "velocity": 102,
      "chip": "ym2612"
    },
    {
      "channel": 0,
      "note": 75,
      "start": 12.7942,
      "duration": 0.15,
      "velocity": 104,
      "chip": "ym2612"
    },
    {
      "channel": 0,
      "note": 77,
      "start": 12.9443,
      "duration": 0.1665,
      "velocity": 104,
      "chip": "ym2612"
    },
    {
      "channel": 2,
      "note": 58,
      "start": 12.9456,
      "duration": 0.2323,
      "velocity": 102,
      "chip": "ym2612"
    },
    {
      "channel": 0,
      "note": 75,
      "start": 13.1109,
      "duration": 0.1499,
      "velocity": 104,
      "chip": "ym2612"
    },
    {
      "channel": 2,
      "note": 60,
      "start": 13.178,
      "duration": 0.234,
      "velocity": 102,
      "chip": "ym2612"
    },
    {
      "channel": 0,
      "note": 71,
      "start": 13.2609,
      "duration": 0.15,
      "velocity": 104,
      "chip": "ym2612"
    },
    {
      "channel": 0,
      "note": 68,
      "start": 13.411,
      "duration": 0.1664,
      "velocity": 104,
      "chip": "ym2612"
    },
    {
      "channel": 2,
      "note": 62,
      "start": 13.4121,
      "duration": 0.2324,
      "velocity": 102,
      "chip": "ym2612"
    },
    {
      "channel": 0,
      "note": 71,
      "start": 13.5775,
      "duration": 0.1499,
      "velocity": 104,
      "chip": "ym2612"
    },
    {
      "channel": 2,
      "note": 63,
      "start": 13.6446,
      "duration": 0.234,
      "velocity": 102,
      "chip": "ym2612"
    },
    {
      "channel": 0,
      "note": 75,
      "start": 13.7275,
      "duration": 0.15,
      "velocity": 104,
      "chip": "ym2612"
    },
    {
      "channel": 0,
      "note": 80,
      "start": 13.8776,
      "duration": 0.1665,
      "velocity": 104,
      "chip": "ym2612"
    },
    {
      "channel": 2,
      "note": 65,
      "start": 13.8788,
      "duration": 0.2324,
      "velocity": 102,
      "chip": "ym2612"
    },
    {
      "channel": 0,
      "note": 75,
      "start": 14.0441,
      "duration": 0.1499,
      "velocity": 104,
      "chip": "ym2612"
    },
    {
      "channel": 2,
      "note": 67,
      "start": 14.1114,
      "duration": 0.2351,
      "velocity": 102,
      "chip": "ym2612"
    },
    {
      "channel": 0,
      "note": 71,
      "start": 14.1942,
      "duration": 0.1504,
      "velocity": 104,
      "chip": "ym2612"
    },
    {
      "channel": 0,
      "note": 70,
      "start": 14.3446,
      "duration": 0.1661,
      "velocity": 104,
      "chip": "ym2612"
    },
    {
      "channel": 1,
      "note": 74,
      "start": 14.3456,
      "duration": 1.1692,
      "velocity": 85,
      "chip": "ym2612"
    },
    {
      "channel": 2,
      "note": 68,
      "start": 14.3466,
      "duration": 0.2317,
      "velocity": 102,
      "chip": "ym2612"
    },
    {
      "channel": 0,
      "note": 74,
      "start": 14.5109,
      "duration": 0.1499,
      "velocity": 104,
      "chip": "ym2612"
    },
    {
      "channel": 2,
      "note": 70,
      "start": 14.5784,
      "duration": 0.2338,
      "velocity": 102,
      "chip": "ym2612"
    },
    {
      "channel": 4,
      "note": 74,
      "start": 14.5796,
      "duration": 1.1724,
      "velocity": 85,
      "chip": "ym2612"
    },
    {
      "channel": 0,
      "note": 77,
      "start": 14.6609,
      "duration": 0.1501,
      "velocity": 104,
      "chip": "ym2612"
    },
    {
      "channel": 0,
      "note": 80,
      "start": 14.811,
      "duration": 0.1664,
      "velocity": 104,
      "chip": "ym2612"
    },
    {
      "channel": 2,
      "note": 72,
      "start": 14.8123,
      "duration": 0.2323,
      "velocity": 102,
      "chip": "ym2612"
    },
    {
      "channel": 0,
      "note": 77,
      "start": 14.9775,
      "duration": 0.1499,
      "velocity": 104,
      "chip": "ym2612"
    },
    {
      "channel": 2,
      "note": 74,
      "start": 15.0447,
      "duration": 0.2343,
      "velocity": 102,
      "chip": "ym2612"
    },
    {
      "channel": 0,
      "note": 74,
      "start": 15.1275,
      "duration": 0.1503,
      "velocity": 104,
      "chip": "ym2612"
    },
    {
      "channel": 0,
      "note": 70,
      "start": 15.278,
      "duration": 0.1662,
      "velocity": 104,
      "chip": "ym2612"
    },
    {
      "channel": 2,
      "note": 75,
      "start": 15.2791,
      "duration": 0.2366,
      "velocity": 102,
      "chip": "ym2612"
    },
    {
      "channel": 3,
      "note": 62,
      "start": 15.2801,
      "duration": 0.2394,
      "velocity": 51,
      "chip": "ym2612"
    },
    {
      "channel": 0,
      "note": 74,
      "start": 15.4443,
      "duration": 0.1498,
      "velocity": 104,
      "chip": "ym2612"
    },
    {
      "channel": 1,
      "note": 77,
      "start": 15.5149,
      "duration": 0.2315,
      "velocity": 85,
      "chip": "ym2612"
    },
    {
      "channel": 2,
      "note": 77,
      "start": 15.5159,
      "duration": 0.2315,
      "velocity": 102,
      "chip": "ym2612"
    },
    {
      "channel": 3,
      "note": 89,
      "start": 15.5196,
      "duration": 0.0588,
      "velocity": 51,
      "chip": "ym2612"
    },
    {
      "channel": 5,
      "note": 62,
      "start": 15.5207,
      "duration": 0.235,
      "velocity": 51,
      "chip": "ym2612"
    },
    {
      "channel": 3,
      "note": 87,
      "start": 15.5785,
      "duration": 0.0832,
      "velocity": 51,
      "chip": "ym2612"
    },
    {
      "channel": 0,
      "note": 77,
      "start": 15.5943,
      "duration": 0.1513,
      "velocity": 104,
      "chip": "ym2612"
    },
    {
      "channel": 3,
      "note": 86,
      "start": 15.6618,
      "duration": 0.0866,
      "velocity": 51,
      "chip": "ym2612"
    },
    {
      "channel": 0,
      "note": 82,
      "start": 15.7456,
      "duration": 0.1653,
      "velocity": 104,
      "chip": "ym2612"
    },
    {
      "channel": 1,
      "note": 79,
      "start": 15.7466,
      "duration": 0.2319,
      "velocity": 85,
      "chip": "ym2612"
    },
    {
      "channel": 2,
      "note": 79,
      "start": 15.7475,
      "duration": 0.2319,
      "velocity": 102,
      "chip": "ym2612"
    },
    {
      "channel": 3,
      "note": 84,
      "start": 15.7485,
      "duration": 0.0634,
      "velocity": 51,
      "chip": "ym2612"
    },
    {
      "channel": 4,
      "note": 77,
      "start": 15.7522,
      "duration": 0.2291,
      "velocity": 85,
      "chip": "ym2612"
    },
    {
      "channel": 5,
      "note": 89,
      "start": 15.7558,
      "duration": 0.0574,
      "velocity": 51,
      "chip": "ym2612"
    },
    {
      "channel": 3,
      "note": 82,
      "start": 15.812,
      "duration": 0.0831,
      "velocity": 51,
      "chip": "ym2612"
    },
    {
      "channel": 5,
      "note": 87,
      "start": 15.8133,
      "duration": 0.0832,
      "velocity": 51,
      "chip": "ym2612"
    },
    {
      "channel": 3,
      "note": 80,
      "start": 15.8953,
      "duration": 0.0851,
      "velocity": 51,
      "chip": "ym2612"
    },
    {
      "channel": 5,
      "note": 86,
      "start": 15.8966,
      "duration": 0.0857,
      "velocity": 51,
      "chip": "ym2612"
    },
    {
      "channel": 0,
      "note": 80,
      "start": 15.911,
      "duration": 0.1498,
      "velocity": 104,
      "chip": "ym2612"
    },
    {
      "channel": 1,
      "note": 80,
      "start": 15.9785,
      "duration": 0.2341,
      "velocity": 85,
      "chip": "ym2612"
    },
    {
      "channel": 2,
      "note": 80,
      "start": 15.9795,
      "duration": 0.2341,
      "velocity": 102,
      "chip": "ym2612"
    },
    {
      "channel": 3,
      "note": 79,
      "start": 15.9805,
      "duration": 0.0648,
      "velocity": 51,
      "chip": "ym2612"
    },
    {
      "channel": 4,
      "note": 79,
      "start": 15.9814,
      "duration": 0.2337,
      "velocity": 85,
      "chip": "ym2612"
    },
    {
      "channel": 5,
      "note": 84,
      "start": 15.9824,
      "duration": 0.0641,
      "velocity": 51,
      "chip": "ym2612"
    },
    {
      "channel": 3,
      "note": 77,
      "start": 16.0454,
      "duration": 0.0831,
      "velocity": 51,
      "chip": "ym2612"
    },
    {
      "channel": 5,
      "note": 82,
      "start": 16.0466,
      "duration": 0.0831,
      "velocity": 51,
      "chip": "ym2612"
    },
    {
      "channel": 0,
      "note": 77,
      "start": 16.0609,
      "duration": 0.1508,
      "velocity": 104,
      "chip": "ym2612"
    },
    {
      "channel": 3,
      "note": 75,
      "start": 16.1286,
      "duration": 0.0856,
      "velocity": 51,
      "chip": "ym2612"
    },
    {
      "channel": 5,
      "note": 80,
      "start": 16.1299,
      "duration": 0.0862,
      "velocity": 51,
      "chip": "ym2612"
    },
    {
      "channel": 0,
      "note": 87,
      "start": 16.2118,
      "duration": 0.1656,
      "velocity": 104,
      "chip": "ym2612"
    },
    {
      "channel": 1,
      "note": 82,
      "start": 16.2128,
      "duration": 2.3328,
      "velocity": 85,
      "chip": "ym2612"
    },
    {
      "channel": 2,
      "note": 63,
      "start": 16.2137,
      "duration": 0.932,
      "velocity": 102,
      "chip": "ym2612"
    },
    {
      "channel": 4,
      "note": 80,
      "start": 16.2152,
      "duration": 0.231,
      "velocity": 85,
      "chip": "ym2612"
    },
    {
      "channel": 5,
      "note": 79,
      "start": 16.2161,
      "duration": 0.0626,
      "velocity": 51,
      "chip": "ym2612"
    },
    {
      "channel": 5,
      "note": 77,
      "start": 16.2789,
      "duration": 0.0833,
      "velocity": 51,
      "chip": "ym2612"
    },
    {
      "channel": 5,
      "note": 75,
      "start": 16.3622,
      "duration": 0.0847,
      "velocity": 51,
      "chip": "ym2612"
    },
    {
      "channel": 0,
      "note": 82,
      "start": 16.3775,
      "duration": 0.1499,
      "velocity": 104,
      "chip": "ym2612"
    },
    {
      "channel": 3,
      "note": 75,
      "start": 16.4454,
      "duration": 0.1163,
      "velocity": 51,
      "chip": "ym2612"
    },
    {
      "channel": 4,
      "note": 82,
      "start": 16.4463,
      "duration": 2.3331,
      "velocity": 85,
      "chip": "ym2612"
    },
    {
      "channel": 0,
      "note": 79,
      "start": 16.5275,
      "duration": 0.1502,
      "velocity": 104,
      "chip": "ym2612"
    },
    {
      "channel": 3,
      "note": 75,
      "start": 16.5617,
      "duration": 0.1176,
      "velocity": 51,
      "chip": "ym2612"
    },
    {
      "channel": 0,
      "note": 75,
      "start": 16.6779,
      "duration": 0.1661,
      "velocity": 104,
      "chip": "ym2612"
    },
    {
      "channel": 3,
      "note": 79,
      "start": 16.6795,
      "duration": 0.1156,
      "velocity": 51,
      "chip": "ym2612"
    },
    {
      "channel": 5,
      "note": 75,
      "start": 16.6808,
      "duration": 0.1157,
      "velocity": 51,
      "chip": "ym2612"
    },
    {
      "channel": 3,
      "note": 79,
      "start": 16.7953,
      "duration": 0.1163,
      "velocity": 51,
      "chip": "ym2612"
    },
    {
      "channel": 5,
      "note": 75,
      "start": 16.7966,
      "duration": 0.1163,
      "velocity": 51,
      "chip": "ym2612"
    },
    {
      "channel": 0,
      "note": 79,
      "start": 16.8442,
      "duration": 0.1499,
      "velocity": 104,
      "chip": "ym2612"
    },
    {
      "channel": 3,
      "note": 82,
      "start": 16.9117,
      "duration": 0.1165,
      "velocity": 51,
      "chip": "ym2612"
    },
    {
      "channel": 5,
      "note": 79,
      "start": 16.913,
      "duration": 0.1165,
      "velocity": 51,
      "chip": "ym2612"
    },
    {
      "channel": 0,
      "note": 82,
      "start": 16.9942,
      "duration": 0.1504,
      "velocity": 104,
      "chip": "ym2612"
    },
    {
      "channel": 3,
      "note": 82,
      "start": 17.0284,
      "duration": 0.1183,
      "velocity": 51,
      "chip": "ym2612"
    },
    {
      "channel": 5,
      "note": 79,
      "start": 17.0296,
      "duration": 0.1183,
      "velocity": 51,
      "chip": "ym2612"
    },
    {
      "channel": 0,
      "note": 87,
      "start": 17.1447,
      "duration": 0.166,
      "velocity": 104,
      "chip": "ym2612"
    },
    {
      "channel": 2,
      "note": 55,
      "start": 17.1459,
      "duration": 0.4665,
      "velocity": 102,
      "chip": "ym2612"
    },
    {
      "channel": 3,
      "note": 79,
      "start": 17.1468,
      "duration": 0.1149,
      "velocity": 51,
      "chip": "ym2612"
    },
    {
      "channel": 5,
      "note": 82,
      "start": 17.148,
      "duration": 0.1149,
      "velocity": 51,
      "chip": "ym2612"
    },
    {
      "channel": 3,
      "note": 79,
      "start": 17.2618,
      "duration": 0.1166,
      "velocity": 51,
      "chip": "ym2612"
    },
    {
      "channel": 5,
      "note": 82,
      "start": 17.263,
      "duration": 0.1166,
      "velocity": 51,
      "chip": "ym2612"
    },
    {
      "channel": 0,
      "note": 82,
      "start": 17.3109,
      "duration": 0.1499,
      "velocity": 104,
      "chip": "ym2612"
    },
    {
      "channel": 3,
      "note": 82,
      "start": 17.3785,
      "duration": 0.1166,
      "velocity": 51,
      "chip": "ym2612"
    },
    {
      "channel": 5,
      "note": 79,
      "start": 17.3796,
      "duration": 0.1166,
      "velocity": 51,
      "chip": "ym2612"
    },
    {
      "channel": 0,
      "note": 79,
      "start": 17.4609,
      "duration": 0.1503,
      "velocity": 104,
      "chip": "ym2612"
    },
    {
      "channel": 3,
      "note": 82,
      "start": 17.4951,
      "duration": 0.1182,
      "velocity": 51,
      "chip": "ym2612"
    },
    {
      "channel": 5,
      "note": 79,
      "start": 17.4963,
      "duration": 0.1181,
      "velocity": 51,
      "chip": "ym2612"
    },
    {
      "channel": 0,
      "note": 75,
      "start": 17.6113,
      "duration": 0.1661,
      "velocity": 104,
      "chip": "ym2612"
    },
    {
      "channel": 2,
      "note": 63,
      "start": 17.6124,
      "duration": 0.4666,
      "velocity": 102,
      "chip": "ym2612"
    },
    {
      "channel": 3,
      "note": 87,
      "start": 17.6134,
      "duration": 0.115,
      "velocity": 51,
      "chip": "ym2612"
    },
    {
      "channel": 5,
      "note": 82,
      "start": 17.6146,
      "duration": 0.1149,
      "velocity": 51,
      "chip": "ym2612"
    },
    {
      "channel": 3,
      "note": 87,
      "start": 17.7285,
      "duration": 0.1162,
      "velocity": 51,
      "chip": "ym2612"
    },
    {
      "channel": 5,
      "note": 82,
      "start": 17.7297,
      "duration": 0.116,
      "velocity": 51,
      "chip": "ym2612"
    },
    {
      "channel": 0,
      "note": 79,
      "start": 17.7775,
      "duration": 0.1499,
      "velocity": 104,
      "chip": "ym2612"
    },
    {
      "channel": 5,
      "note": 87,
      "start": 17.8459,
      "duration": 0.116,
      "velocity": 51,
      "chip": "ym2612"
    },
    {
      "channel": 0,
      "note": 82,
      "start": 17.9275,
      "duration": 0.1505,
      "velocity": 104,
      "chip": "ym2612"
    },
    {
      "channel": 5,
      "note": 87,
      "start": 17.962,
      "duration": 0.1185,
      "velocity": 51,
      "chip": "ym2612"
    },
    {
      "channel": 0,
      "note": 88,
      "start": 18.078,
      "duration": 0.166,
      "velocity": 104,
      "chip": "ym2612"
    },
    {
      "channel": 2,
      "note": 64,
      "start": 18.0792,
      "duration": 0.9341,
      "velocity": 102,
      "chip": "ym2612"
    },
    {
      "channel": 0,
      "note": 82,
      "start": 18.2441,
      "duration": 0.1499,
      "velocity": 104,
      "chip": "ym2612"
    },
    {
      "channel": 3,
      "note": 76,
      "start": 18.3119,
      "duration": 0.1163,
      "velocity": 51,
      "chip": "ym2612"
    },
    {
      "channel": 0,
      "note": 79,
      "start": 18.3941,
      "duration": 0.1505,
      "velocity": 104,
      "chip": "ym2612"
    },
    {
      "channel": 3,
      "note": 76,
      "start": 18.4283,
      "duration": 0.1185,
      "velocity": 51,
      "chip": "ym2612"
    },
    {
      "channel": 0,
      "note": 76,
      "start": 18.5447,
      "duration": 0.166,
      "velocity": 104,
      "chip": "ym2612"
    },
    {
      "channel": 1,
      "note": 82,
      "start": 18.5457,
      "duration": 0.4667,
      "velocity": 85,
      "chip": "ym2612"
    },
    {
      "channel": 3,
      "note": 79,
      "start": 18.5469,
      "duration": 0.1149,
      "velocity": 51,
      "chip": "ym2612"
    },
    {
      "channel": 5,
      "note": 76,
      "start": 18.5481,
      "duration": 0.1149,
      "velocity": 51,
      "chip": "ym2612"
    },
    {
      "channel": 3,
      "note": 79,
      "start": 18.662,
      "duration": 0.1165,
      "velocity": 51,
      "chip": "ym2612"
    },
    {
      "channel": 5,
      "note": 76,
      "start": 18.6632,
      "duration": 0.1173,
      "velocity": 51,
      "chip": "ym2612"
    },
    {
      "channel": 0,
      "note": 79,
      "start": 18.7109,
      "duration": 0.1499,
      "velocity": 104,
      "chip": "ym2612"
    },
    {
      "channel": 3,
      "note": 82,
      "start": 18.7786,
      "duration": 0.1164,
      "velocity": 51,
      "chip": "ym2612"
    },
    {
      "channel": 4,
      "note": 82,
      "start": 18.7796,
      "duration": 0.4667,
      "velocity": 85,
      "chip": "ym2612"
    },
    {
      "channel": 5,
      "note": 79,
      "start": 18.7805,
      "duration": 0.1158,
      "velocity": 51,
      "chip": "ym2612"
    },
    {
      "channel": 0,
      "note": 82,
      "start": 18.8609,
      "duration": 0.1505,
      "velocity": 104,
      "chip": "ym2612"
    },
    {
      "channel": 3,
      "note": 82,
      "start": 18.8951,
      "duration": 0.1191,
      "velocity": 51,
      "chip": "ym2612"
    },
    {
      "channel": 5,
      "note": 79,
      "start": 18.8964,
      "duration": 0.1192,
      "velocity": 51,
      "chip": "ym2612"
    },
    {
      "channel": 0,
      "note": 88,
      "start": 19.0115,
      "duration": 0.166,
      "velocity": 104,
      "chip": "ym2612"
    },
    {
      "channel": 1,
      "note": 84,
      "start": 19.0124,
      "duration": 0.4666,
      "velocity": 85,
      "chip": "ym2612"
    },
    {
      "channel": 2,
      "note": 55,
      "start": 19.0134,
      "duration": 0.4666,
      "velocity": 102,
      "chip": "ym2612"
    },
    {
      "channel": 3,
      "note": 79,
      "start": 19.0144,
      "duration": 0.1141,
      "velocity": 51,
      "chip": "ym2612"
    },
    {
      "channel": 5,
      "note": 82,
      "start": 19.0156,
      "duration": 0.1141,
      "velocity": 51,
      "chip": "ym2612"
    },
    {
      "channel": 3,
      "note": 79,
      "start": 19.1286,
      "duration": 0.1167,
      "velocity": 51,
      "chip": "ym2612"
    },
    {
      "channel": 5,
      "note": 82,
      "start": 19.1299,
      "duration": 0.1174,
      "velocity": 51,
      "chip": "ym2612"
    },
    {
      "channel": 0,
      "note": 82,
      "start": 19.1776,
      "duration": 0.1499,
      "velocity": 104,
      "chip": "ym2612"
    },
    {
      "channel": 3,
      "note": 82,
      "start": 19.2455,
      "duration": 0.1163,
      "velocity": 51,
      "chip": "ym2612"
    },
    {
      "channel": 4,
      "note": 84,
      "start": 19.2464,
      "duration": 0.466,
      "velocity": 85,
      "chip": "ym2612"
    },
    {
      "channel": 5,
      "note": 79,
      "start": 19.2474,
      "duration": 0.1157,
      "velocity": 51,
      "chip": "ym2612"
    },
    {
      "channel": 0,
      "note": 79,
      "start": 19.3275,
      "duration": 0.1505,
      "velocity": 104,
      "chip": "ym2612"
    },
    {
      "channel": 3,
      "note": 82,
      "start": 19.362,
      "duration": 0.119,
      "velocity": 51,
      "chip": "ym2612"
    },
    {
      "channel": 5,
      "note": 79,
      "start": 19.3632,
      "duration": 0.119,
      "velocity": 51,
      "chip": "ym2612"
    },
    {
      "channel": 0,
      "note": 76,
      "start": 19.4782,
      "duration": 0.166,
      "velocity": 104,
      "chip": "ym2612"
    },
    {
      "channel": 1,
      "note": 85,
      "start": 19.4791,
      "duration": 0.4665,
      "velocity": 85,
      "chip": "ym2612"
    },
    {
      "channel": 2,
      "note": 64,
      "start": 19.4801,
      "duration": 0.4665,
      "velocity": 102,
      "chip": "ym2612"
    },
    {
      "channel": 3,
      "note": 88,
      "start": 19.481,
      "duration": 0.1141,
      "velocity": 51,
      "chip": "ym2612"
    },
    {
      "channel": 5,
      "note": 82,
      "start": 19.4823,
      "duration": 0.1141,
      "velocity": 51,
      "chip": "ym2612"
    },
    {
      "channel": 3,
      "note": 88,
      "start": 19.5953,
      "duration": 0.1163,
      "velocity": 51,
      "chip": "ym2612"
    },
    {
      "channel": 5,
      "note": 82,
      "start": 19.5966,
      "duration": 0.1169,
      "velocity": 51,
      "chip": "ym2612"
    },
    {
      "channel": 0,
      "note": 79,
      "start": 19.6443,
      "duration": 0.1498,
      "velocity": 104,
      "chip": "ym2612"
    },
    {
      "channel": 4,
      "note": 85,
      "start": 19.7126,
      "duration": 0.467,
      "velocity": 85,
      "chip": "ym2612"
    },
    {
      "channel": 5,
      "note": 88,
      "start": 19.7135,
      "duration": 0.1152,
      "velocity": 51,
      "chip": "ym2612"
    },
    {
      "channel": 0,
      "note": 82,
      "start": 19.7942,
      "duration": 0.1505,
      "velocity": 104,
      "chip": "ym2612"
    },
    {
      "channel": 5,
      "note": 88,
      "start": 19.8289,
      "duration": 0.1192,
      "velocity": 51,
      "chip": "ym2612"
    },
    {
      "channel": 0,
      "note": 89,
      "start": 19.9448,
      "duration": 0.166,
      "velocity": 104,
      "chip": "ym2612"
    },
    {
      "channel": 1,
      "note": 84,
      "start": 19.9457,
      "duration": 1.8666,
      "velocity": 85,
      "chip": "ym2612"
    },
    {
      "channel": 2,
      "note": 65,
      "start": 19.9467,
      "duration": 0.4659,
      "velocity": 102,
      "chip": "ym2612"
    },
    {
      "channel": 0,
      "note": 84,
      "start": 20.1108,
      "duration": 0.1499,
      "velocity": 104,
      "chip": "ym2612"
    },
    {
      "channel": 3,
      "note": 77,
      "start": 20.1787,
      "duration": 0.1163,
      "velocity": 51,
      "chip": "ym2612"
    },
    {
      "channel": 4,
      "note": 84,
      "start": 20.1797,
      "duration": 1.8655,
      "velocity": 85,
      "chip": "ym2612"
    },
    {
      "channel": 0,
      "note": 80,
      "start": 20.2609,
      "duration": 0.1505,
      "velocity": 104,
      "chip": "ym2612"
    },
    {
      "channel": 3,
      "note": 77,
      "start": 20.2951,
      "duration": 0.1185,
      "velocity": 51,
      "chip": "ym2612"
    },
    {
      "channel": 0,
      "note": 77,
      "start": 20.4114,
      "duration": 0.166,
      "velocity": 104,
      "chip": "ym2612"
    },
    {
      "channel": 2,
      "note": 60,
      "start": 20.4127,
      "duration": 0.4663,
      "velocity": 102,
      "chip": "ym2612"
    },
    {
      "channel": 3,
      "note": 80,
      "start": 20.4137,
      "duration": 0.1148,
      "velocity": 51,
      "chip": "ym2612"
    },
    {
      "channel": 5,
      "note": 77,
      "start": 20.4149,
      "duration": 0.1148,
      "velocity": 51,
      "chip": "ym2612"
    },
    {
      "channel": 3,
      "note": 80,
      "start": 20.5286,
      "duration": 0.1165,
      "velocity": 51,
      "chip": "ym2612"
    },
    {
      "channel": 5,
      "note": 77,
      "start": 20.5299,
      "duration": 0.1165,
      "velocity": 51,
      "chip": "ym2612"
    },
    {
      "channel": 0,
      "note": 80,
      "start": 20.5776,
      "duration": 0.1498,
      "velocity": 104,
      "chip": "ym2612"
    },
    {
      "channel": 3,
      "note": 84,
      "start": 20.6451,
      "duration": 0.1166,
      "velocity": 51,
      "chip": "ym2612"
    },
    {
      "channel": 5,
      "note": 80,
      "start": 20.6465,
      "duration": 0.1165,
      "velocity": 51,
      "chip": "ym2612"
    },
    {
      "channel": 0,
      "note": 84,
      "start": 20.7275,
      "duration": 0.1504,
      "velocity": 104,
      "chip": "ym2612"
    },
    {
      "channel": 3,
      "note": 84,
      "start": 20.7618,
      "duration": 0.1182,
      "velocity": 51,
      "chip": "ym2612"
    },
    {
      "channel": 5,
      "note": 80,
      "start": 20.7631,
      "duration": 0.1181,
      "velocity": 51,
      "chip": "ym2612"
    },
    {
      "channel": 0,
      "note": 89,
      "start": 20.878,
      "duration": 0.1661,
      "velocity": 104,
      "chip": "ym2612"
    },
    {
      "channel": 2,
      "note": 56,
      "start": 20.8792,
      "duration": 0.4665,
      "velocity": 102,
      "chip": "ym2612"
    },
    {
      "channel": 3,
      "note": 80,
      "start": 20.8801,
      "duration": 0.1149,
      "velocity": 51,
      "chip": "ym2612"
    },
    {
      "channel": 5,
      "note": 84,
      "start": 20.8813,
      "duration": 0.1149,
      "velocity": 51,
      "chip": "ym2612"
    },
    {
      "channel": 3,
      "note": 80,
      "start": 20.9951,
      "duration": 0.1166,
      "velocity": 51,
      "chip": "ym2612"
    },
    {
      "channel": 5,
      "note": 84,
      "start": 20.9963,
      "duration": 0.1166,
      "velocity": 51,
      "chip": "ym2612"
    },
    {
      "channel": 0,
      "note": 84,
      "start": 21.0442,
      "duration": 0.1499,
      "velocity": 104,
      "chip": "ym2612"
    },
    {
      "channel": 3,
      "note": 84,
      "start": 21.1118,
      "duration": 0.1166,
      "velocity": 51,
      "chip": "ym2612"
    },
    {
      "channel": 5,
      "note": 80,
      "start": 21.113,
      "duration": 0.1166,
      "velocity": 51,
      "chip": "ym2612"
    },
    {
      "channel": 0,
      "note": 80,
      "start": 21.1942,
      "duration": 0.1503,
      "velocity": 104,
      "chip": "ym2612"
    },
    {
      "channel": 3,
      "note": 84,
      "start": 21.2285,
      "duration": 0.1181,
      "velocity": 51,
      "chip": "ym2612"
    },
    {
      "channel": 5,
      "note": 80,
      "start": 21.2297,
      "duration": 0.1181,
      "velocity": 51,
      "chip": "ym2612"
    },
    {
      "channel": 0,
      "note": 77,
      "start": 21.3446,
      "duration": 0.1661,
      "velocity": 104,
      "chip": "ym2612"
    },
    {
      "channel": 2,
      "note": 53,
      "start": 21.3458,
      "duration": 0.4674,
      "velocity": 102,
      "chip": "ym2612"
    },
    {
      "channel": 3,
      "note": 89,
      "start": 21.3467,
      "duration": 0.115,
      "velocity": 51,
      "chip": "ym2612"
    },
    {
      "channel": 5,
      "note": 84,
      "start": 21.348,
      "duration": 0.1149,
      "velocity": 51,
      "chip": "ym2612"
    },
    {
      "channel": 3,
      "note": 89,
      "start": 21.4618,
      "duration": 0.1162,
      "velocity": 51,
      "chip": "ym2612"
    },
    {
      "channel": 5,
      "note": 84,
      "start": 21.463,
      "duration": 0.1161,
      "velocity": 51,
      "chip": "ym2612"
    },
    {
      "channel": 0,
      "note": 80,
      "start": 21.5109,
      "duration": 0.1498,
      "velocity": 104,
      "chip": "ym2612"
    },
    {
      "channel": 5,
      "note": 89,
      "start": 21.5792,
      "duration": 0.116,
      "velocity": 51,
      "chip": "ym2612"
    },
    {
      "channel": 0,
      "note": 84,
      "start": 21.6608,
      "duration": 0.1505,
      "velocity": 104,
      "chip": "ym2612"
    },
    {
      "channel": 5,
      "note": 89,
      "start": 21.6953,
      "duration": 0.1193,
      "velocity": 51,
      "chip": "ym2612"
    },
    {
      "channel": 0,
      "note": 83,
      "start": 21.8114,
      "duration": 0.1659,
      "velocity": 104,
      "chip": "ym2612"
    },
    {
      "channel": 1,
      "note": 83,
      "start": 21.8123,
      "duration": 0.4665,
      "velocity": 85,
      "chip": "ym2612"
    },
    {
      "channel": 2,
      "note": 56,
      "start": 21.8133,
      "duration": 0.4665,
      "velocity": 102,
      "chip": "ym2612"
    },
    {
      "channel": 0,
      "note": 80,
      "start": 21.9774,
      "duration": 0.15,
      "velocity": 104,
      "chip": "ym2612"
    },
    {
      "channel": 4,
      "note": 83,
      "start": 22.0453,
      "duration": 0.4677,
      "velocity": 85,
      "chip": "ym2612"
    },
    {
      "channel": 0,
      "note": 77,
      "start": 22.1275,
      "duration": 0.1505,
      "velocity": 104,
      "chip": "ym2612"
    },
    {
      "channel": 0,
      "note": 71,
      "start": 22.278,
      "duration": 0.166,
      "velocity": 104,
      "chip": "ym2612"
    },
    {
      "channel": 1,
      "note": 80,
      "start": 22.279,
      "duration": 0.4667,
      "velocity": 85,
      "chip": "ym2612"
    },
    {
      "channel": 2,
      "note": 59,
      "start": 22.28,
      "duration": 0.4667,
      "velocity": 102,
      "chip": "ym2612"
    },
    {
      "channel": 3,
      "note": 74,
      "start": 22.2809,
      "duration": 0.0641,
      "velocity": 51,
      "chip": "ym2612"
    },
    {
      "channel": 3,
      "note": 75,
      "start": 22.3451,
      "duration": 0.0832,
      "velocity": 51,
      "chip": "ym2612"
    },
    {
      "channel": 3,
      "note": 77,
      "start": 22.4285,
      "duration": 0.0835,
      "velocity": 51,
      "chip": "ym2612"
    },
    {
      "channel": 0,
      "note": 68,
      "start": 22.4442,
      "duration": 0.1499,
      "velocity": 104,
      "chip": "ym2612"
    },
    {
      "channel": 3,
      "note": 79,
      "start": 22.5121,
      "duration": 0.0664,
      "velocity": 51,
      "chip": "ym2612"
    },
    {
      "channel": 4,
      "note": 80,
      "start": 22.513,
      "duration": 0.4666,
      "velocity": 85,
      "chip": "ym2612"
    },
    {
      "channel": 5,
      "note": 74,
      "start": 22.514,
      "duration": 0.0658,
      "velocity": 51,
      "chip": "ym2612"
    },
    {
      "channel": 3,
      "note": 80,
      "start": 22.5786,
      "duration": 0.0832,
      "velocity": 51,
      "chip": "ym2612"
    },
    {
      "channel": 5,
      "note": 75,
      "start": 22.5799,
      "duration": 0.0832,
      "velocity": 51,
      "chip": "ym2612"
    },
    {
      "channel": 0,
      "note": 65,
      "start": 22.5942,
      "duration": 0.1505,
      "velocity": 104,
      "chip": "ym2612"
    },
    {
      "channel": 3,
      "note": 82,
      "start": 22.662,
      "duration": 0.0856,
      "velocity": 51,
      "chip": "ym2612"
    },
    {
      "channel": 5,
      "note": 77,
      "start": 22.6632,
      "duration": 0.0857,
      "velocity": 51,
      "chip": "ym2612"
    },
    {
      "channel": 0,
      "note": 59,
      "start": 22.7448,
      "duration": 0.1659,
      "velocity": 104,
      "chip": "ym2612"
    },
    {
      "channel": 1,
      "note": 83,
      "start": 22.7458,
      "duration": 0.4665,
      "velocity": 85,
      "chip": "ym2612"
    },
    {
      "channel": 2,
      "note": 63,
      "start": 22.7467,
      "duration": 0.4665,
      "velocity": 102,
      "chip": "ym2612"
    },
    {
      "channel": 3,
      "note": 84,
      "start": 22.7477,
      "duration": 0.0641,
      "velocity": 51,
      "chip": "ym2612"
    },
    {
      "channel": 5,
      "note": 79,
      "start": 22.749,
      "duration": 0.0642,
      "velocity": 51,
      "chip": "ym2612"
    },
    {
      "channel": 3,
      "note": 86,
      "start": 22.812,
      "duration": 0.0832,
      "velocity": 51,
      "chip": "ym2612"
    },
    {
      "channel": 5,
      "note": 80,
      "start": 22.8132,
      "duration": 0.0833,
      "velocity": 51,
      "chip": "ym2612"
    },
    {
      "channel": 3,
      "note": 87,
      "start": 22.8953,
      "duration": 0.0834,
      "velocity": 51,
      "chip": "ym2612"
    },
    {
      "channel": 5,
      "note": 82,
      "start": 22.8966,
      "duration": 0.084,
      "velocity": 51,
      "chip": "ym2612"
    },
    {
      "channel": 0,
      "note": 63,
      "start": 22.9109,
      "duration": 0.1499,
      "velocity": 104,
      "chip": "ym2612"
    },
    {
      "channel": 3,
      "note": 89,
      "start": 22.9788,
      "duration": 0.0664,
      "velocity": 51,
      "chip": "ym2612"
    },
    {
      "channel": 4,
      "note": 83,
      "start": 22.9798,
      "duration": 0.4666,
      "velocity": 85,
      "chip": "ym2612"
    },
    {
      "channel": 5,
      "note": 84,
      "start": 22.9807,
      "duration": 0.0658,
      "velocity": 51,
      "chip": "ym2612"
    },
    {
      "channel": 3,
      "note": 91,
      "start": 23.0454,
      "duration": 0.0831,
      "velocity": 51,
      "chip": "ym2612"
    },
    {
      "channel": 5,
      "note": 86,
      "start": 23.0466,
      "duration": 0.0831,
      "velocity": 51,
      "chip": "ym2612"
    },
    {
      "channel": 0,
      "note": 65,
      "start": 23.0609,
      "duration": 0.1504,
      "velocity": 104,
      "chip": "ym2612"
    },
    {
      "channel": 3,
      "note": 92,
      "start": 23.1286,
      "duration": 0.0856,
      "velocity": 51,
      "chip": "ym2612"
    },
    {
      "channel": 5,
      "note": 87,
      "start": 23.1299,
      "duration": 0.0856,
      "velocity": 51,
      "chip": "ym2612"
    },
    {
      "channel": 0,
      "note": 68,
      "start": 23.2114,
      "duration": 0.166,
      "velocity": 104,
      "chip": "ym2612"
    },
    {
      "channel": 1,
      "note": 86,
      "start": 23.2124,
      "duration": 0.4696,
      "velocity": 101,
      "chip": "ym2612"
    },
    {
      "channel": 2,
      "note": 62,
      "start": 23.2133,
      "duration": 0.4696,
      "velocity": 102,
      "chip": "ym2612"
    },
    {
      "channel": 3,
      "note": 94,
      "start": 23.2143,
      "duration": 0.0642,
      "velocity": 51,
      "chip": "ym2612"
    },
    {
      "channel": 5,
      "note": 89,
      "start": 23.2156,
      "duration": 0.0642,
      "velocity": 51,
      "chip": "ym2612"
    },
    {
      "channel": 3,
      "note": 96,
      "start": 23.2786,
      "duration": 0.0832,
      "velocity": 51,
      "chip": "ym2612"
    },
    {
      "channel": 5,
      "note": 91,
      "start": 23.2799,
      "duration": 0.0833,
      "velocity": 51,
      "chip": "ym2612"
    },
    {
      "channel": 3,
      "note": 98,
      "start": 23.362,
      "duration": 0.0834,
      "velocity": 51,
      "chip": "ym2612"
    },
    {
      "channel": 5,
      "note": 92,
      "start": 23.3632,
      "duration": 0.084,
      "velocity": 51,
      "chip": "ym2612"
    },
    {
      "channel": 0,
      "note": 71,
      "start": 23.3775,
      "duration": 0.1499,
      "velocity": 104,
      "chip": "ym2612"
    },
    {
      "channel": 3,
      "note": 99,
      "start": 23.4455,
      "duration": 0.0663,
      "velocity": 51,
      "chip": "ym2612"
    },
    {
      "channel": 4,
      "note": 86,
      "start": 23.4464,
      "duration": 0.4695,
      "velocity": 101,
      "chip": "ym2612"
    },
    {
      "channel": 5,
      "note": 94,
      "start": 23.4474,
      "duration": 0.0657,
      "velocity": 51,
      "chip": "ym2612"
    },
    {
      "channel": 3,
      "note": 101,
      "start": 23.512,
      "duration": 0.0832,
      "velocity": 51,
      "chip": "ym2612"
    },
    {
      "channel": 5,
      "note": 96,
      "start": 23.5132,
      "duration": 0.0833,
      "velocity": 51,
      "chip": "ym2612"
    },
    {
      "channel": 0,
      "note": 74,
      "start": 23.5275,
      "duration": 0.1509,
      "velocity": 104,
      "chip": "ym2612"
    },
    {
      "channel": 3,
      "note": 103,
      "start": 23.5953,
      "duration": 0.0883,
      "velocity": 51,
      "chip": "ym2612"
    },
    {
      "channel": 5,
      "note": 98,
      "start": 23.5966,
      "duration": 0.0882,
      "velocity": 51,
      "chip": "ym2612"
    },
    {
      "channel": 0,
      "note": 75,
      "start": 23.6785,
      "duration": 0.1656,
      "velocity": 104,
      "chip": "ym2612"
    },
    {
      "channel": 1,
      "note": 75,
      "start": 23.6821,
      "duration": 1.1625,
      "velocity": 101,
      "chip": "ym2612"
    },
    {
      "channel": 2,
      "note": 63,
      "start": 23.6831,
      "duration": 0.4628,
      "velocity": 102,
      "chip": "ym2612"
    },
    {
      "channel": 5,
      "note": 99,
      "start": 23.6849,
      "duration": 0.0605,
      "velocity": 51,
      "chip": "ym2612"
    },
    {
      "channel": 5,
      "note": 101,
      "start": 23.7455,
      "duration": 0.0832,
      "velocity": 51,
      "chip": "ym2612"
    },
    {
      "channel": 5,
      "note": 103,
      "start": 23.8289,
      "duration": 0.0877,
      "velocity": 51,
      "chip": "ym2612"
    },
    {
      "channel": 0,
      "note": 70,
      "start": 23.8442,
      "duration": 0.1499,
      "velocity": 104,
      "chip": "ym2612"
    },
    {
      "channel": 3,
      "note": 99,
      "start": 23.9124,
      "duration": 0.116,
      "velocity": 51,
      "chip": "ym2612"
    },
    {
      "channel": 4,
      "note": 75,
      "start": 23.916,
      "duration": 1.1659,
      "velocity": 101,
      "chip": "ym2612"
    },
    {
      "channel": 0,
      "note": 67,
      "start": 23.9941,
      "duration": 0.1505,
      "velocity": 104,
      "chip": "ym2612"
    },
    {
      "channel": 3,
      "note": 94,
      "start": 24.0285,
      "duration": 0.1183,
      "velocity": 51,
      "chip": "ym2612"
    },
    {
      "channel": 0,
      "note": 63,
      "start": 24.1447,
      "duration": 0.1661,
      "velocity": 104,
      "chip": "ym2612"
    },
    {
      "channel": 2,
      "note": 58,
      "start": 24.146,
      "duration": 0.4663,
      "velocity": 102,
      "chip": "ym2612"
    },
    {
      "channel": 3,
      "note": 94,
      "start": 24.1469,
      "duration": 0.1149,
      "velocity": 51,
      "chip": "ym2612"
    },
    {
      "channel": 5,
      "note": 99,
      "start": 24.1482,
      "duration": 0.1149,
      "velocity": 51,
      "chip": "ym2612"
    },
    {
      "channel": 3,
      "note": 91,
      "start": 24.262,
      "duration": 0.1164,
      "velocity": 51,
      "chip": "ym2612"
    },
    {
      "channel": 5,
      "note": 94,
      "start": 24.2633,
      "duration": 0.1164,
      "velocity": 51,
      "chip": "ym2612"
    },
    {
      "channel": 0,
      "note": 67,
      "start": 24.3109,
      "duration": 0.1499,
      "velocity": 104,
      "chip": "ym2612"
    },
    {
      "channel": 3,
      "note": 91,
      "start": 24.3785,
      "duration": 0.1166,
      "velocity": 51,
      "chip": "ym2612"
    },
    {
      "channel": 5,
      "note": 94,
      "start": 24.3798,
      "duration": 0.1166,
      "velocity": 51,
      "chip": "ym2612"
    },
    {
      "channel": 0,
      "note": 70,
      "start": 24.4609,
      "duration": 0.1502,
      "velocity": 104,
      "chip": "ym2612"
    },
    {
      "channel": 3,
      "note": 87,
      "start": 24.4952,
      "duration": 0.1181,
      "velocity": 51,
      "chip": "ym2612"
    },
    {
      "channel": 5,
      "note": 91,
      "start": 24.4965,
      "duration": 0.1179,
      "velocity": 51,
      "chip": "ym2612"
    },
    {
      "channel": 0,
      "note": 75,
      "start": 24.6112,
      "duration": 0.1662,
      "velocity": 104,
      "chip": "ym2612"
    },
    {
      "channel": 2,
      "note": 55,
      "start": 24.6124,
      "duration": 0.4676,
      "velocity": 102,
      "chip": "ym2612"
    },
    {
      "channel": 3,
      "note": 87,
      "start": 24.6134,
      "duration": 0.115,
      "velocity": 51,
      "chip": "ym2612"
    },
    {
      "channel": 5,
      "note": 91,
      "start": 24.6146,
      "duration": 0.1149,
      "velocity": 51,
      "chip": "ym2612"
    },
    {
      "channel": 3,
      "note": 91,
      "start": 24.7284,
      "duration": 0.1175,
      "velocity": 51,
      "chip": "ym2612"
    },
    {
      "channel": 5,
      "note": 87,
      "start": 24.7296,
      "duration": 0.1175,
      "velocity": 51,
      "chip": "ym2612"
    },
    {
      "channel": 0,
      "note": 70,
      "start": 24.7775,
      "duration": 0.1499,
      "velocity": 104,
      "chip": "ym2612"
    },
    {
      "channel": 1,
      "note": 75,
      "start": 24.8448,
      "duration": 0.2343,
      "velocity": 101,
      "chip": "ym2612"
    },
    {
      "channel": 3,
      "note": 91,
      "start": 24.846,
      "duration": 0.1158,
      "velocity": 51,
      "chip": "ym2612"
    },
    {
      "channel": 5,
      "note": 87,
      "start": 24.8473,
      "duration": 0.1158,
      "velocity": 51,
      "chip": "ym2612"
    },
    {
      "channel": 0,
      "note": 67,
      "start": 24.9275,
      "duration": 0.1506,
      "velocity": 104,
      "chip": "ym2612"
    },
    {
      "channel": 3,
      "note": 94,
      "start": 24.962,
      "duration": 0.119,
      "velocity": 51,
      "chip": "ym2612"
    },
    {
      "channel": 5,
      "note": 91,
      "start": 24.9632,
      "duration": 0.1197,
      "velocity": 51,
      "chip": "ym2612"
    },
    {
      "channel": 0,
      "note": 63,
      "start": 25.0782,
      "duration": 0.1659,
      "velocity": 104,
      "chip": "ym2612"
    },
    {
      "channel": 1,
      "note": 77,
      "start": 25.0792,
      "duration": 0.2322,
      "velocity": 101,
      "chip": "ym2612"
    },
    {
      "channel": 2,
      "note": 51,
      "start": 25.0801,
      "duration": 0.4666,
      "velocity": 102,
      "chip": "ym2612"
    },
    {
      "channel": 3,
      "note": 94,
      "start": 25.0811,
      "duration": 0.1141,
      "velocity": 51,
      "chip": "ym2612"
    },
    {
      "channel": 4,
      "note": 75,
      "start": 25.082,
      "duration": 0.2312,
      "velocity": 101,
      "chip": "ym2612"
    },
    {
      "channel": 5,
      "note": 91,
      "start": 25.083,
      "duration": 0.1135,
      "velocity": 51,
      "chip": "ym2612"
    },
    {
      "channel": 3,
      "note": 99,
      "start": 25.1954,
      "duration": 0.117,
      "velocity": 51,
      "chip": "ym2612"
    },
    {
      "channel": 5,
      "note": 94,
      "start": 25.1966,
      "duration": 0.1176,
      "velocity": 51,
      "chip": "ym2612"
    },
    {
      "channel": 0,
      "note": 58,
      "start": 25.2443,
      "duration": 0.1498,
      "velocity": 104,
      "chip": "ym2612"
    },
    {
      "channel": 1,
      "note": 79,
      "start": 25.3115,
      "duration": 0.2343,
      "velocity": 101,
      "chip": "ym2612"
    },
    {
      "channel": 4,
      "note": 77,
      "start": 25.3133,
      "duration": 0.2349,
      "velocity": 101,
      "chip": "ym2612"
    },
    {
      "channel": 5,
      "note": 94,
      "start": 25.3143,
      "duration": 0.1144,
      "velocity": 51,
      "chip": "ym2612"
    },
    {
      "channel": 0,
      "note": 55,
      "start": 25.3942,
      "duration": 0.1506,
      "velocity": 104,
      "chip": "ym2612"
    },
    {
      "channel": 5,
      "note": 99,
      "start": 25.4289,
      "duration": 0.12,
      "velocity": 51,
      "chip": "ym2612"
    },
    {
      "channel": 0,
      "note": 67,
      "start": 25.5449,
      "duration": 0.1658,
      "velocity": 104,
      "chip": "ym2612"
    },
    {
      "channel": 1,
      "note": 86,
      "start": 25.5459,
      "duration": 0.9331,
      "velocity": 101,
      "chip": "ym2612"
    },
    {
      "channel": 2,
      "note": 62,
      "start": 25.5468,
      "duration": 0.4657,
      "velocity": 102,
      "chip": "ym2612"
    },
    {
      "channel": 4,
      "note": 79,
      "start": 25.5483,
      "duration": 0.2312,
      "velocity": 101,
      "chip": "ym2612"
    },
    {
      "channel": 0,
      "note": 63,
      "start": 25.7108,
      "duration": 0.1499,
      "velocity": 104,
      "chip": "ym2612"
    },
    {
      "channel": 3,
      "note": 100,
      "start": 25.7787,
      "duration": 0.1163,
      "velocity": 51,
      "chip": "ym2612"
    },
    {
      "channel": 4,
      "note": 86,
      "start": 25.7797,
      "duration": 0.9333,
      "velocity": 101,
      "chip": "ym2612"
    },
    {
      "channel": 0,
      "note": 58,
      "start": 25.8609,
      "duration": 0.1504,
      "velocity": 104,
      "chip": "ym2612"
    },
    {
      "channel": 3,
      "note": 94,
      "start": 25.8951,
      "duration": 0.1183,
      "velocity": 51,
      "chip": "ym2612"
    },
    {
      "channel": 0,
      "note": 55,
      "start": 26.0113,
      "duration": 0.1661,
      "velocity": 104,
      "chip": "ym2612"
    },
    {
      "channel": 2,
      "note": 58,
      "start": 26.0126,
      "duration": 0.4673,
      "velocity": 102,
      "chip": "ym2612"
    },
    {
      "channel": 3,
      "note": 94,
      "start": 26.0136,
      "duration": 0.1149,
      "velocity": 51,
      "chip": "ym2612"
    },
    {
      "channel": 5,
      "note": 100,
      "start": 26.0149,
      "duration": 0.1149,
      "velocity": 51,
      "chip": "ym2612"
    },
    {
      "channel": 3,
      "note": 91,
      "start": 26.1287,
      "duration": 0.1164,
      "velocity": 51,
      "chip": "ym2612"
    },
    {
      "channel": 5,
      "note": 94,
      "start": 26.13,
      "duration": 0.1164,
      "velocity": 51,
      "chip": "ym2612"
    },
    {
      "channel": 0,
      "note": 58,
      "start": 26.1776,
      "duration": 0.1499,
      "velocity": 104,
      "chip": "ym2612"
    },
    {
      "channel": 3,
      "note": 91,
      "start": 26.2451,
      "duration": 0.1166,
      "velocity": 51,
      "chip": "ym2612"
    },
    {
      "channel": 5,
      "note": 94,
      "start": 26.2465,
      "duration": 0.1165,
      "velocity": 51,
      "chip": "ym2612"
    },
    {
      "channel": 0,
      "note": 63,
      "start": 26.3276,
      "duration": 0.1504,
      "velocity": 104,
      "chip": "ym2612"
    },
    {
      "channel": 3,
      "note": 88,
      "start": 26.3618,
      "duration": 0.119,
      "velocity": 51,
      "chip": "ym2612"
    },
    {
      "channel": 5,
      "note": 91,
      "start": 26.3631,
      "duration": 0.119,
      "velocity": 51,
      "chip": "ym2612"
    },
    {
      "channel": 0,
      "note": 67,
      "start": 26.4781,
      "duration": 0.166,
      "velocity": 104,
      "chip": "ym2612"
    },
    {
      "channel": 1,
      "note": 84,
      "start": 26.479,
      "duration": 0.4666,
      "velocity": 101,
      "chip": "ym2612"
    },
    {
      "channel": 2,
      "note": 55,
      "start": 26.48,
      "duration": 0.4666,
      "velocity": 102,
      "chip": "ym2612"
    },
    {
      "channel": 3,
      "note": 88,
      "start": 26.481,
      "duration": 0.1142,
      "velocity": 51,
      "chip": "ym2612"
    },
    {
      "channel": 5,
      "note": 91,
      "start": 26.4822,
      "duration": 0.1141,
      "velocity": 51,
      "chip": "ym2612"
    },
    {
      "channel": 3,
      "note": 91,
      "start": 26.5953,
      "duration": 0.1167,
      "velocity": 51,
      "chip": "ym2612"
    },
    {
      "channel": 5,
      "note": 88,
      "start": 26.5964,
      "duration": 0.1175,
      "velocity": 51,
      "chip": "ym2612"
    },
    {
      "channel": 0,
      "note": 63,
      "start": 26.6442,
      "duration": 0.1499,
      "velocity": 104,
      "chip": "ym2612"
    },
    {
      "channel": 3,
      "note": 91,
      "start": 26.7121,
      "duration": 0.1165,
      "velocity": 51,
      "chip": "ym2612"
    },
    {
      "channel": 4,
      "note": 84,
      "start": 26.713,
      "duration": 0.4661,
      "velocity": 101,
      "chip": "ym2612"
    },
    {
      "channel": 5,
      "note": 88,
      "start": 26.714,
      "duration": 0.1158,
      "velocity": 51,
      "chip": "ym2612"
    },
    {
      "channel": 0,
      "note": 58,
      "start": 26.7943,
      "duration": 0.1504,
      "velocity": 104,
      "chip": "ym2612"
    },
    {
      "channel": 3,
      "note": 94,
      "start": 26.8287,
      "duration": 0.1188,
      "velocity": 51,
      "chip": "ym2612"
    },
    {
      "channel": 5,
      "note": 91,
      "start": 26.83,
      "duration": 0.1188,
      "velocity": 51,
      "chip": "ym2612"
    },
    {
      "channel": 0,
      "note": 63,
      "start": 26.9448,
      "duration": 0.166,
      "velocity": 104,
      "chip": "ym2612"
    },
    {
      "channel": 1,
      "note": 86,
      "start": 26.9457,
      "duration": 0.4666,
      "velocity": 101,
      "chip": "ym2612"
    },
    {
      "channel": 2,
      "note": 50,
      "start": 26.9467,
      "duration": 0.4666,
      "velocity": 102,
      "chip": "ym2612"
    },
    {
      "channel": 3,
      "note": 94,
      "start": 26.9476,
      "duration": 0.1142,
      "velocity": 51,
      "chip": "ym2612"
    },
    {
      "channel": 5,
      "note": 91,
      "start": 26.9489,
      "duration": 0.1142,
      "velocity": 51,
      "chip": "ym2612"
    },
    {
      "channel": 3,
      "note": 88,
      "start": 27.062,
      "duration": 0.1163,
      "velocity": 51,
      "chip": "ym2612"
    },
    {
      "channel": 5,
      "note": 94,
      "start": 27.0632,
      "duration": 0.1168,
      "velocity": 51,
      "chip": "ym2612"
    },
    {
      "channel": 0,
      "note": 67,
      "start": 27.1109,
      "duration": 0.1499,
      "velocity": 104,
      "chip": "ym2612"
    },
    {
      "channel": 4,
      "note": 86,
      "start": 27.1793,
      "duration": 0.4671,
      "velocity": 101,
      "chip": "ym2612"
    },
    {
      "channel": 5,
      "note": 94,
      "start": 27.1802,
      "duration": 0.1152,
      "velocity": 51,
      "chip": "ym2612"
    },
    {
      "channel": 0,
      "note": 70,
      "start": 27.2609,
      "duration": 0.1505,
      "velocity": 104,
      "chip": "ym2612"
    },
    {
      "channel": 5,
      "note": 88,
      "start": 27.2955,
      "duration": 0.1192,
      "velocity": 51,
      "chip": "ym2612"
    },
    {
      "channel": 0,
      "note": 56,
      "start": 27.4114,
      "duration": 0.166,
      "velocity": 104,
      "chip": "ym2612"
    },
    {
      "channel": 1,
      "note": 87,
      "start": 27.4124,
      "duration": 1.8668,
      "velocity": 101,
      "chip": "ym2612"
    },
    {
      "channel": 2,
      "note": 48,
      "start": 27.4133,
      "duration": 0.466,
      "velocity": 102,
      "chip": "ym2612"
    },
    {
      "channel": 0,
      "note": 51,
      "start": 27.5775,
      "duration": 0.1499,
      "velocity": 104,
      "chip": "ym2612"
    },
    {
      "channel": 3,
      "note": 99,
      "start": 27.6455,
      "duration": 0.0662,
      "velocity": 51,
      "chip": "ym2612"
    },
    {
      "channel": 4,
      "note": 87,
      "start": 27.6464,
      "duration": 1.8674,
      "velocity": 101,
      "chip": "ym2612"
    },
    {
      "channel": 3,
      "note": 96,
      "start": 27.7117,
      "duration": 0.0833,
      "velocity": 51,
      "chip": "ym2612"
    },
    {
      "channel": 0,
      "note": 56,
      "start": 27.7275,
      "duration": 0.1506,
      "velocity": 104,
      "chip": "ym2612"
    },
    {
      "channel": 3,
      "note": 92,
      "start": 27.7951,
      "duration": 0.0852,
      "velocity": 51,
      "chip": "ym2612"
    },
    {
      "channel": 0,
      "note": 60,
      "start": 27.8781,
      "duration": 0.166,
      "velocity": 104,
      "chip": "ym2612"
    },
    {
      "channel": 2,
      "note": 51,
      "start": 27.8794,
      "duration": 0.4663,
      "velocity": 102,
      "chip": "ym2612"
    },
    {
      "channel": 3,
      "note": 87,
      "start": 27.8803,
      "duration": 0.0648,
      "velocity": 51,
      "chip": "ym2612"
    },
    {
      "channel": 5,
      "note": 99,
      "start": 27.8817,
      "duration": 0.0648,
      "velocity": 51,
      "chip": "ym2612"
    },
    {
      "channel": 3,
      "note": 84,
      "start": 27.9453,
      "duration": 0.0831,
      "velocity": 51,
      "chip": "ym2612"
    },
    {
      "channel": 5,
      "note": 96,
      "start": 27.9466,
      "duration": 0.0831,
      "velocity": 51,
      "chip": "ym2612"
    },
    {
      "channel": 3,
      "note": 80,
      "start": 28.0285,
      "duration": 0.0833,
      "velocity": 51,
      "chip": "ym2612"
    },
    {
      "channel": 5,
      "note": 92,
      "start": 28.0298,
      "duration": 0.0833,
      "velocity": 51,
      "chip": "ym2612"
    },
    {
      "channel": 0,
      "note": 56,
      "start": 28.0442,
      "duration": 0.1499,
      "velocity": 104,
      "chip": "ym2612"
    },
    {
      "channel": 3,
      "note": 75,
      "start": 28.112,
      "duration": 0.0665,
      "velocity": 51,
      "chip": "ym2612"
    },
    {
      "channel": 5,
      "note": 87,
      "start": 28.1132,
      "duration": 0.0665,
      "velocity": 51,
      "chip": "ym2612"
    },
    {
      "channel": 3,
      "note": 72,
      "start": 28.1785,
      "duration": 0.0832,
      "velocity": 51,
      "chip": "ym2612"
    },
    {
      "channel": 5,
      "note": 84,
      "start": 28.1798,
      "duration": 0.083,
      "velocity": 51,
      "chip": "ym2612"
    },
    {
      "channel": 0,
      "note": 60,
      "start": 28.1942,
      "duration": 0.1503,
      "velocity": 104,
      "chip": "ym2612"
    },
    {
      "channel": 3,
      "note": 70,
      "start": 28.2618,
      "duration": 0.0849,
      "velocity": 51,
      "chip": "ym2612"
    },
    {
      "channel": 5,
      "note": 80,
      "start": 28.263,
      "duration": 0.0849,
      "velocity": 51,
      "chip": "ym2612"
    },
    {
      "channel": 0,
      "note": 63,
      "start": 28.3446,
      "duration": 0.1661,
      "velocity": 104,
      "chip": "ym2612"
    },
    {
      "channel": 2,
      "note": 56,
      "start": 28.3458,
      "duration": 0.4666,
      "velocity": 102,
      "chip": "ym2612"
    },
    {
      "channel": 3,
      "note": 72,
      "start": 28.3467,
      "duration": 0.065,
      "velocity": 51,
      "chip": "ym2612"
    },
    {
      "channel": 5,
      "note": 75,
      "start": 28.348,
      "duration": 0.0649,
      "velocity": 51,
      "chip": "ym2612"
    },
    {
      "channel": 3,
      "note": 74,
      "start": 28.4118,
      "duration": 0.0832,
      "velocity": 51,
      "chip": "ym2612"
    },
    {
      "channel": 5,
      "note": 72,
      "start": 28.413,
      "duration": 0.0832,
      "velocity": 51,
      "chip": "ym2612"
    },
    {
      "channel": 3,
      "note": 75,
      "start": 28.4951,
      "duration": 0.0833,
      "velocity": 51,
      "chip": "ym2612"
    },
    {
      "channel": 5,
      "note": 70,
      "start": 28.4963,
      "duration": 0.0833,
      "velocity": 51,
      "chip": "ym2612"
    },
    {
      "channel": 0,
      "note": 60,
      "start": 28.5109,
      "duration": 0.1499,
      "velocity": 104,
      "chip": "ym2612"
    },
    {
      "channel": 3,
      "note": 77,
      "start": 28.5785,
      "duration": 0.0665,
      "velocity": 51,
      "chip": "ym2612"
    },
    {
      "channel": 5,
      "note": 72,
      "start": 28.5797,
      "duration": 0.0666,
      "velocity": 51,
      "chip": "ym2612"
    },
    {
      "channel": 3,
      "note": 79,
      "start": 28.6451,
      "duration": 0.0832,
      "velocity": 51,
      "chip": "ym2612"
    },
    {
      "channel": 5,
      "note": 74,
      "start": 28.6463,
      "duration": 0.0832,
      "velocity": 51,
      "chip": "ym2612"
    },
    {
      "channel": 0,
      "note": 63,
      "start": 28.6609,
      "duration": 0.1503,
      "velocity": 104,
      "chip": "ym2612"
    },
    {
      "channel": 3,
      "note": 80,
      "start": 28.7285,
      "duration": 0.0849,
      "velocity": 51,
      "chip": "ym2612"
    },
    {
      "channel": 5,
      "note": 75,
      "start": 28.7296,
      "duration": 0.0849,
      "velocity": 51,
      "chip": "ym2612"
    },
    {
      "channel": 0,
      "note": 68,
      "start": 28.8113,
      "duration": 0.1661,
      "velocity": 104,
      "chip": "ym2612"
    },
    {
      "channel": 2,
      "note": 60,
      "start": 28.8124,
      "duration": 0.4677,
      "velocity": 102,
      "chip": "ym2612"
    },
    {
      "channel": 3,
      "note": 82,
      "start": 28.8134,
      "duration": 0.065,
      "velocity": 51,
      "chip": "ym2612"
    },
    {
      "channel": 5,
      "note": 77,
      "start": 28.8146,
      "duration": 0.0649,
      "velocity": 51,
      "chip": "ym2612"
    },
    {
      "channel": 3,
      "note": 84,
      "start": 28.8785,
      "duration": 0.0832,
      "velocity": 51,
      "chip": "ym2612"
    },
    {
      "channel": 5,
      "note": 79,
      "start": 28.8796,
      "duration": 0.0833,
      "velocity": 51,
      "chip": "ym2612"
    },
    {
      "channel": 3,
      "note": 86,
      "start": 28.9618,
      "duration": 0.0832,
      "velocity": 51,
      "chip": "ym2612"
    },
    {
      "channel": 5,
      "note": 80,
      "start": 28.963,
      "duration": 0.0832,
      "velocity": 51,
      "chip": "ym2612"
    },
    {
      "channel": 0,
      "note": 63,
      "start": 28.9775,
      "duration": 0.1499,
      "velocity": 104,
      "chip": "ym2612"
    },
    {
      "channel": 3,
      "note": 87,
      "start": 29.0451,
      "duration": 0.0666,
      "velocity": 51,
      "chip": "ym2612"
    },
    {
      "channel": 5,
      "note": 82,
      "start": 29.0463,
      "duration": 0.0666,
      "velocity": 51,
      "chip": "ym2612"
    },
    {
      "channel": 3,
      "note": 89,
      "start": 29.1118,
      "duration": 0.0832,
      "velocity": 51,
      "chip": "ym2612"
    },
    {
      "channel": 5,
      "note": 84,
      "start": 29.113,
      "duration": 0.0832,
      "velocity": 51,
      "chip": "ym2612"
    },
    {
      "channel": 0,
      "note": 68,
      "start": 29.1275,
      "duration": 0.1507,
      "velocity": 104,
      "chip": "ym2612"
    },
    {
      "channel": 3,
      "note": 91,
      "start": 29.1951,
      "duration": 0.0859,
      "velocity": 51,
      "chip": "ym2612"
    },
    {
      "channel": 5,
      "note": 86,
      "start": 29.1963,
      "duration": 0.0859,
      "velocity": 51,
      "chip": "ym2612"
    },
    {
      "channel": 0,
      "note": 58,
      "start": 29.2784,
      "duration": 0.1657,
      "velocity": 104,
      "chip": "ym2612"
    },
    {
      "channel": 1,
      "note": 86,
      "start": 29.2793,
      "duration": 1.87,
      "velocity": 101,
      "chip": "ym2612"
    },
    {
      "channel": 2,
      "note": 62,
      "start": 29.2803,
      "duration": 0.2316,
      "velocity": 102,
      "chip": "ym2612"
    },
    {
      "channel": 3,
      "note": 104,
      "start": 29.2812,
      "duration": 0.0639,
      "velocity": 51,
      "chip": "ym2612"
    },
    {
      "channel": 5,
      "note": 87,
      "start": 29.2824,
      "duration": 0.0639,
      "velocity": 51,
      "chip": "ym2612"
    },
    {
      "channel": 3,
      "note": 101,
      "start": 29.3453,
      "duration": 0.0832,
      "velocity": 51,
      "chip": "ym2612"
    },
    {
      "channel": 5,
      "note": 89,
      "start": 29.3464,
      "duration": 0.0833,
      "velocity": 51,
      "chip": "ym2612"
    },
    {
      "channel": 3,
      "note": 98,
      "start": 29.4286,
      "duration": 0.0842,
      "velocity": 51,
      "chip": "ym2612"
    },
    {
      "channel": 5,
      "note": 91,
      "start": 29.4298,
      "duration": 0.0849,
      "velocity": 51,
      "chip": "ym2612"
    },
    {
      "channel": 0,
      "note": 62,
      "start": 29.4442,
      "duration": 0.1499,
      "velocity": 104,
      "chip": "ym2612"
    },
    {
      "channel": 2,
      "note": 58,
      "start": 29.512,
      "duration": 0.234,
      "velocity": 102,
      "chip": "ym2612"
    },
    {
      "channel": 3,
      "note": 101,
      "start": 29.513,
      "duration": 0.0655,
      "velocity": 51,
      "chip": "ym2612"
    },
    {
      "channel": 4,
      "note": 86,
      "start": 29.5139,
      "duration": 1.868,
      "velocity": 101,
      "chip": "ym2612"
    },
    {
      "channel": 5,
      "note": 104,
      "start": 29.5149,
      "duration": 0.0649,
      "velocity": 51,
      "chip": "ym2612"
    },
    {
      "channel": 3,
      "note": 98,
      "start": 29.5786,
      "duration": 0.0833,
      "velocity": 51,
      "chip": "ym2612"
    },
    {
      "channel": 5,
      "note": 101,
      "start": 29.5799,
      "duration": 0.0833,
      "velocity": 51,
      "chip": "ym2612"
    },
    {
      "channel": 0,
      "note": 65,
      "start": 29.5942,
      "duration": 0.1505,
      "velocity": 104,
      "chip": "ym2612"
    },
    {
      "channel": 3,
      "note": 94,
      "start": 29.662,
      "duration": 0.0849,
      "velocity": 51,
      "chip": "ym2612"
    },
    {
      "channel": 5,
      "note": 98,
      "start": 29.6633,
      "duration": 0.0849,
      "velocity": 51,
      "chip": "ym2612"
    },
    {
      "channel": 0,
      "note": 68,
      "start": 29.7448,
      "duration": 0.166,
      "velocity": 104,
      "chip": "ym2612"
    },
    {
      "channel": 2,
      "note": 56,
      "start": 29.746,
      "duration": 0.2322,
      "velocity": 102,
      "chip": "ym2612"
    },
    {
      "channel": 3,
      "note": 98,
      "start": 29.747,
      "duration": 0.0649,
      "velocity": 51,
      "chip": "ym2612"
    },
    {
      "channel": 5,
      "note": 101,
      "start": 29.7483,
      "duration": 0.0649,
      "velocity": 51,
      "chip": "ym2612"
    },
    {
      "channel": 3,
      "note": 94,
      "start": 29.812,
      "duration": 0.0831,
      "velocity": 51,
      "chip": "ym2612"
    },
    {
      "channel": 5,
      "note": 98,
      "start": 29.8133,
      "duration": 0.0831,
      "velocity": 51,
      "chip": "ym2612"
    },
    {
      "channel": 3,
      "note": 89,
      "start": 29.8952,
      "duration": 0.084,
      "velocity": 51,
      "chip": "ym2612"
    },
    {
      "channel": 5,
      "note": 94,
      "start": 29.8965,
      "duration": 0.084,
      "velocity": 51,
      "chip": "ym2612"
    },
    {
      "channel": 0,
      "note": 65,
      "start": 29.9109,
      "duration": 0.1498,
      "velocity": 104,
      "chip": "ym2612"
    },
    {
      "channel": 2,
      "note": 55,
      "start": 29.9783,
      "duration": 0.234,
      "velocity": 102,
      "chip": "ym2612"
    },
    {
      "channel": 3,
      "note": 94,
      "start": 29.9793,
      "duration": 0.0658,
      "velocity": 51,
      "chip": "ym2612"
    },
    {
      "channel": 5,
      "note": 98,
      "start": 29.9806,
      "duration": 0.0658,
      "velocity": 51,
      "chip": "ym2612"
    },
    {
      "channel": 3,
      "note": 89,
      "start": 30.0452,
      "duration": 0.0832,
      "velocity": 51,
      "chip": "ym2612"
    },
    {
      "channel": 5,
      "note": 94,
      "start": 30.0465,
      "duration": 0.0831,
      "velocity": 51,
      "chip": "ym2612"
    },
    {
      "channel": 0,
      "note": 62,
      "start": 30.0608,
      "duration": 0.1504,
      "velocity": 104,
      "chip": "ym2612"
    },
    {
      "channel": 3,
      "note": 86,
      "start": 30.1285,
      "duration": 0.0848,
      "velocity": 51,
      "chip": "ym2612"
    },
    {
      "channel": 5,
      "note": 89,
      "start": 30.1296,
      "duration": 0.0849,
      "velocity": 51,
      "chip": "ym2612"
    },
    {
      "channel": 0,
      "note": 58,
      "start": 30.2112,
      "duration": 0.0664,
      "velocity": 104,
      "chip": "ym2612"
    },
    {
      "channel": 2,
      "note": 53,
      "start": 30.2124,
      "duration": 0.2332,
      "velocity": 102,
      "chip": "ym2612"
    },
    {
      "channel": 3,
      "note": 89,
      "start": 30.2134,
      "duration": 0.0658,
      "velocity": 51,
      "chip": "ym2612"
    },
    {
      "channel": 5,
      "note": 94,
      "start": 30.2146,
      "duration": 0.0658,
      "velocity": 51,
      "chip": "ym2612"
    },
    {
      "channel": 0,
      "note": 60,
      "start": 30.2778,
      "duration": 0.0833,
      "velocity": 104,
      "chip": "ym2612"
    },
    {
      "channel": 3,
      "note": 86,
      "start": 30.2793,
      "duration": 0.0832,
      "velocity": 51,
      "chip": "ym2612"
    },
    {
      "channel": 5,
      "note": 89,
      "start": 30.2805,
      "duration": 0.0833,
      "velocity": 51,
      "chip": "ym2612"
    },
    {
      "channel": 0,
      "note": 62,
      "start": 30.3611,
      "duration": 0.0834,
      "velocity": 104,
      "chip": "ym2612"
    },
    {
      "channel": 3,
      "note": 82,
      "start": 30.3627,
      "duration": 0.084,
      "velocity": 51,
      "chip": "ym2612"
    },
    {
      "channel": 5,
      "note": 86,
      "start": 30.3638,
      "duration": 0.084,
      "velocity": 51,
      "chip": "ym2612"
    },
    {
      "channel": 0,
      "note": 63,
      "start": 30.4446,
      "duration": 0.0664,
      "velocity": 104,
      "chip": "ym2612"
    },
    {
      "channel": 2,
      "note": 51,
      "start": 30.4458,
      "duration": 0.2332,
      "velocity": 102,
      "chip": "ym2612"
    },
    {
      "channel": 3,
      "note": 86,
      "start": 30.4467,
      "duration": 0.0659,
      "velocity": 51,
      "chip": "ym2612"
    },
    {
      "channel": 5,
      "note": 89,
      "start": 30.448,
      "duration": 0.0658,
      "velocity": 51,
      "chip": "ym2612"
    },
    {
      "channel": 0,
      "note": 65,
      "start": 30.5112,
      "duration": 0.0832,
      "velocity": 104,
      "chip": "ym2612"
    },
    {
      "channel": 3,
      "note": 82,
      "start": 30.5127,
      "duration": 0.0832,
      "velocity": 51,
      "chip": "ym2612"
    },
    {
      "channel": 5,
      "note": 86,
      "start": 30.5139,
      "duration": 0.0832,
      "velocity": 51,
      "chip": "ym2612"
    },
    {
      "channel": 0,
      "note": 67,
      "start": 30.5944,
      "duration": 0.0834,
      "velocity": 104,
      "chip": "ym2612"
    },
    {
      "channel": 3,
      "note": 77,
      "start": 30.5959,
      "duration": 0.084,
      "velocity": 51,
      "chip": "ym2612"
    },
    {
      "channel": 5,
      "note": 82,
      "start": 30.5971,
      "duration": 0.084,
      "velocity": 51,
      "chip": "ym2612"
    },
    {
      "channel": 0,
      "note": 68,
      "start": 30.678,
      "duration": 0.0663,
      "velocity": 104,
      "chip": "ym2612"
    },
    {
      "channel": 2,
      "note": 49,
      "start": 30.6791,
      "duration": 0.2332,
      "velocity": 102,
      "chip": "ym2612"
    },
    {
      "channel": 3,
      "note": 82,
      "start": 30.6801,
      "duration": 0.0657,
      "velocity": 51,
      "chip": "ym2612"
    },
    {
      "channel": 5,
      "note": 86,
      "start": 30.6813,
      "duration": 0.0657,
      "velocity": 51,
      "chip": "ym2612"
    },
    {
      "channel": 0,
      "note": 70,
      "start": 30.7444,
      "duration": 0.0832,
      "velocity": 104,
      "chip": "ym2612"
    },
    {
      "channel": 3,
      "note": 77,
      "start": 30.7459,
      "duration": 0.0833,
      "velocity": 51,
      "chip": "ym2612"
    },
    {
      "channel": 5,
      "note": 82,
      "start": 30.7471,
      "duration": 0.0832,
      "velocity": 51,
      "chip": "ym2612"
    },
    {
      "channel": 0,
      "note": 72,
      "start": 30.8278,
      "duration": 0.0834,
      "velocity": 104,
      "chip": "ym2612"
    },
    {
      "channel": 3,
      "note": 74,
      "start": 30.8293,
      "duration": 0.084,
      "velocity": 51,
      "chip": "ym2612"
    },
    {
      "channel": 5,
      "note": 77,
      "start": 30.8305,
      "duration": 0.084,
      "velocity": 51,
      "chip": "ym2612"
    },
    {
      "channel": 0,
      "note": 74,
      "start": 30.9112,
      "duration": 0.0664,
      "velocity": 104,
      "chip": "ym2612"
    },
    {
      "channel": 2,
      "note": 48,
      "start": 30.9124,
      "duration": 0.2401,
      "velocity": 102,
      "chip": "ym2612"
    },
    {
      "channel": 3,
      "note": 77,
      "start": 30.9134,
      "duration": 0.0657,
      "velocity": 51,
      "chip": "ym2612"
    },
    {
      "channel": 5,
      "note": 82,
      "start": 30.9146,
      "duration": 0.0658,
      "velocity": 51,
      "chip": "ym2612"
    },
    {
      "channel": 0,
      "note": 75,
      "start": 30.9777,
      "duration": 0.0833,
      "velocity": 104,
      "chip": "ym2612"
    },
    {
      "channel": 3,
      "note": 74,
      "start": 30.9793,
      "duration": 0.0833,
      "velocity": 51,
      "chip": "ym2612"
    },
    {
      "channel": 5,
      "note": 77,
      "start": 30.9804,
      "duration": 0.0833,
      "velocity": 51,
      "chip": "ym2612"
    },
    {
      "channel": 0,
      "note": 77,
      "start": 31.0611,
      "duration": 0.0846,
      "velocity": 104,
      "chip": "ym2612"
    },
    {
      "channel": 3,
      "note": 70,
      "start": 31.0627,
      "duration": 0.0935,
      "velocity": 102,
      "chip": "ym2612"
    },
    {
      "channel": 5,
      "note": 74,
      "start": 31.0638,
      "duration": 0.0935,
      "velocity": 51,
      "chip": "ym2612"
    },
    {
      "channel": 0,
      "note": 63,
      "start": 31.1458,
      "duration": 0.1649,
      "velocity": 104,
      "chip": "ym2612"
    },
    {
      "channel": 1,
      "note": 79,
      "start": 31.1494,
      "duration": 1.373,
      "velocity": 101,
      "chip": "ym2612"
    },
    {
      "channel": 3,
      "note": 70,
      "start": 31.1562,
      "duration": 1.3662,
      "velocity": 102,
      "chip": "ym2612"
    },
    {
      "channel": 5,
      "note": 77,
      "start": 31.1574,
      "duration": 0.0546,
      "velocity": 51,
      "chip": "ym2612"
    },
    {
      "channel": 5,
      "note": 74,
      "start": 31.2121,
      "duration": 0.0833,
      "velocity": 51,
      "chip": "ym2612"
    },
    {
      "channel": 5,
      "note": 70,
      "start": 31.2954,
      "duration": 0.0902,
      "velocity": 102,
      "chip": "ym2612"
    },
    {
      "channel": 0,
      "note": 70,
      "start": 31.3108,
      "duration": 0.15,
      "velocity": 104,
      "chip": "ym2612"
    },
    {
      "channel": 4,
      "note": 79,
      "start": 31.382,
      "duration": 1.1404,
      "velocity": 101,
      "chip": "ym2612"
    },
    {
      "channel": 5,
      "note": 70,
      "start": 31.3857,
      "duration": 1.1368,
      "velocity": 102,
      "chip": "ym2612"
    },
    {
      "channel": 0,
      "note": 75,
      "start": 31.4609,
      "duration": 0.1501,
      "velocity": 104,
      "chip": "ym2612"
    },
    {
      "channel": 0,
      "note": 77,
      "start": 31.611,
      "duration": 0.1664,
      "velocity": 104,
      "chip": "ym2612"
    },
    {
      "channel": 2,
      "note": 55,
      "start": 31.6123,
      "duration": 0.4664,
      "velocity": 102,
      "chip": "ym2612"
    },
    {
      "channel": 0,
      "note": 75,
      "start": 31.7775,
      "duration": 0.1499,
      "velocity": 104,
      "chip": "ym2612"
    },
    {
      "channel": 0,
      "note": 70,
      "start": 31.9275,
      "duration": 0.15,
      "velocity": 104,
      "chip": "ym2612"
    },
    {
      "channel": 0,
      "note": 67,
      "start": 32.0777,
      "duration": 0.1664,
      "velocity": 104,
      "chip": "ym2612"
    },
    {
      "channel": 2,
      "note": 58,
      "start": 32.0788,
      "duration": 0.4437,
      "velocity": 102,
      "chip": "ym2612"
    },
    {
      "channel": 0,
      "note": 70,
      "start": 32.2442,
      "duration": 0.1499,
      "velocity": 104,
      "chip": "ym2612"
    },
    {
      "channel": 0,
      "note": 75,
      "start": 32.3942,
      "duration": 0.1283,
      "velocity": 104,
      "chip": "ym2612"
    }
  ]
}