{
  "track_name": "25 - Laya's Temple",
  "duration_sec": 18.543,
  "sample_rate": 44100,
  "note_count": 162,
  "unique_pitches": 19,
  "pitch_range": 36,
  "avg_note_duration": 0.5664,
  "reconstruction_stats": {
    "notes_reconstructed": 162,
    "keyon_events": 162,
    "keyoff_events": 157,
    "orphan_keyons": 5,
    "unique_pitches": 19,
    "pitch_range": 36,
    "avg_duration_sec": 0.5664
  },
  "metadata": {
    "source": "P\\Phantasy Star III\\25 - Laya's Temple.vgz"
  },
  "notes": [
    {
      "channel": 5,
      "note": 54,
      "start": 0.0,
      "duration": 0.5474,
      "velocity": 109,
      "chip": "ym2612"
    },
    {
      "channel": 4,
      "note": 54,
      "start": 0.0282,
      "duration": 0.5665,
      "velocity": 90,
      "chip": "ym2612"
    },
    {
      "channel": 1,
      "note": 90,
      "start": 0.2609,
      "duration": 0.5712,
      "velocity": 109,
      "chip": "ym2612"
    },
    {
      "channel": 3,
      "note": 90,
      "start": 0.2617,
      "duration": 0.5712,
      "velocity": 96,
      "chip": "ym2612"
    },
    {
      "channel": 0,
      "note": 90,
      "start": 0.3086,
      "duration": 0.5707,
      "velocity": 109,
      "chip": "ym2612"
    },
    {
      "channel": 5,
      "note": 54,
      "start": 0.5479,
      "duration": 0.5711,
      "velocity": 109,
      "chip": "ym2612"
    },
    {
      "channel": 4,
      "note": 54,
      "start": 0.5953,
      "duration": 0.5709,
      "velocity": 90,
      "chip": "ym2612"
    },
    {
      "channel": 1,
      "note": 88,
      "start": 0.8327,
      "duration": 0.5709,
      "velocity": 109,
      "chip": "ym2612"
    },
    {
      "channel": 3,
      "note": 88,
      "start": 0.8334,
      "duration": 0.5709,
      "velocity": 96,
      "chip": "ym2612"
    },
    {
      "channel": 0,
      "note": 88,
      "start": 0.8799,
      "duration": 0.571,
      "velocity": 109,
      "chip": "ym2612"
    },
    {
      "channel": 5,
      "note": 54,
      "start": 1.1196,
      "duration": 0.5709,
      "velocity": 109,
      "chip": "ym2612"
    },
    {
      "channel": 4,
      "note": 54,
      "start": 1.1668,
      "duration": 0.5709,
      "velocity": 90,
      "chip": "ym2612"
    },
    {
      "channel": 1,
      "note": 86,
      "start": 1.4041,
      "duration": 0.571,
      "velocity": 109,
      "chip": "ym2612"
    },
    {
      "channel": 3,
      "note": 86,
      "start": 1.4049,
      "duration": 0.571,
      "velocity": 96,
      "chip": "ym2612"
    },
    {
      "channel": 0,
      "note": 86,
      "start": 1.4515,
      "duration": 0.5709,
      "velocity": 109,
      "chip": "ym2612"
    },
    {
      "channel": 5,
      "note": 54,
      "start": 1.6911,
      "duration": 0.5709,
      "velocity": 109,
      "chip": "ym2612"
    },
    {
      "channel": 4,
      "note": 54,
      "start": 1.7383,
      "duration": 0.571,
      "velocity": 90,
      "chip": "ym2612"
    },
    {
      "channel": 1,
      "note": 88,
      "start": 1.9757,
      "duration": 0.5709,
      "velocity": 109,
      "chip": "ym2612"
    },
    {
      "channel": 3,
      "note": 88,
      "start": 1.9764,
      "duration": 0.5709,
      "velocity": 96,
      "chip": "ym2612"
    },
    {
      "channel": 0,
      "note": 88,
      "start": 2.0229,
      "duration": 0.5709,
      "velocity": 109,
      "chip": "ym2612"
    },
    {
      "channel": 5,
      "note": 54,
      "start": 2.2626,
      "duration": 0.5709,
      "velocity": 109,
      "chip": "ym2612"
    },
    {
      "channel": 4,
      "note": 54,
      "start": 2.3098,
      "duration": 0.5709,
      "velocity": 90,
      "chip": "ym2612"
    },
    {
      "channel": 1,
      "note": 85,
      "start": 2.5472,
      "duration": 0.5709,
      "velocity": 109,
      "chip": "ym2612"
    },
    {
      "channel": 3,
      "note": 85,
      "start": 2.548,
      "duration": 0.5709,
      "velocity": 96,
      "chip": "ym2612"
    },
    {
      "channel": 0,
      "note": 85,
      "start": 2.5945,
      "duration": 0.5709,
      "velocity": 109,
      "chip": "ym2612"
    },
    {
      "channel": 5,
      "note": 54,
      "start": 2.8341,
      "duration": 0.5709,
      "velocity": 109,
      "chip": "ym2612"
    },
    {
      "channel": 4,
      "note": 54,
      "start": 2.8813,
      "duration": 0.571,
      "velocity": 90,
      "chip": "ym2612"
    },
    {
      "channel": 1,
      "note": 86,
      "start": 3.1187,
      "duration": 0.5709,
      "velocity": 109,
      "chip": "ym2612"
    },
    {
      "channel": 3,
      "note": 86,
      "start": 3.1195,
      "duration": 0.5709,
      "velocity": 96,
      "chip": "ym2612"
    },
    {
      "channel": 0,
      "note": 86,
      "start": 3.166,
      "duration": 0.5709,
      "velocity": 109,
      "chip": "ym2612"
    },
    {
      "channel": 5,
      "note": 54,
      "start": 3.4056,
      "duration": 0.5709,
      "velocity": 109,
      "chip": "ym2612"
    },
    {
      "channel": 4,
      "note": 54,
      "start": 3.4529,
      "duration": 0.5709,
      "velocity": 90,
      "chip": "ym2612"
    },
    {
      "channel": 1,
      "note": 84,
      "start": 3.6902,
      "duration": 0.5709,
      "velocity": 109,
      "chip": "ym2612"
    },
    {
      "channel": 3,
      "note": 84,
      "start": 3.691,
      "duration": 0.5709,
      "velocity": 96,
      "chip": "ym2612"
    },
    {
      "channel": 0,
      "note": 84,
      "start": 3.7375,
      "duration": 0.5709,
      "velocity": 109,
      "chip": "ym2612"
    },
    {
      "channel": 5,
      "note": 54,
      "start": 3.9771,
      "duration": 0.571,
      "velocity": 109,
      "chip": "ym2612"
    },
    {
      "channel": 4,
      "note": 54,
      "start": 4.0245,
      "duration": 0.5709,
      "velocity": 90,
      "chip": "ym2612"
    },
    {
      "channel": 1,
      "note": 85,
      "start": 4.2617,
      "duration": 0.5709,
      "velocity": 109,
      "chip": "ym2612"
    },
    {
      "channel": 3,
      "note": 85,
      "start": 4.2625,
      "duration": 0.5709,
      "velocity": 96,
      "chip": "ym2612"
    },
    {
      "channel": 0,
      "note": 85,
      "start": 4.309,
      "duration": 0.5709,
      "velocity": 109,
      "chip": "ym2612"
    },
    {
      "channel": 5,
      "note": 54,
      "start": 4.5486,
      "duration": 0.5709,
      "velocity": 109,
      "chip": "ym2612"
    },
    {
      "channel": 4,
      "note": 54,
      "start": 4.5959,
      "duration": 0.5709,
      "velocity": 90,
      "chip": "ym2612"
    },
    {
      "channel": 1,
      "note": 81,
      "start": 4.8332,
      "duration": 0.5709,
      "velocity": 109,
      "chip": "ym2612"
    },
    {
      "channel": 3,
      "note": 81,
      "start": 4.8339,
      "duration": 0.5709,
      "velocity": 96,
      "chip": "ym2612"
    },
    {
      "channel": 0,
      "note": 81,
      "start": 4.8805,
      "duration": 0.5709,
      "velocity": 109,
      "chip": "ym2612"
    },
    {
      "channel": 5,
      "note": 54,
      "start": 5.1201,
      "duration": 0.571,
      "velocity": 109,
      "chip": "ym2612"
    },
    {
      "channel": 4,
      "note": 54,
      "start": 5.1673,
      "duration": 0.5709,
      "velocity": 90,
      "chip": "ym2612"
    },
    {
      "channel": 1,
      "note": 83,
      "start": 5.4047,
      "duration": 0.571,
      "velocity": 109,
      "chip": "ym2612"
    },
    {
      "channel": 3,
      "note": 83,
      "start": 5.4055,
      "duration": 0.5709,
      "velocity": 96,
      "chip": "ym2612"
    },
    {
      "channel": 0,
      "note": 83,
      "start": 5.452,
      "duration": 0.571,
      "velocity": 109,
      "chip": "ym2612"
    },
    {
      "channel": 5,
      "note": 54,
      "start": 5.6917,
      "duration": 0.5709,
      "velocity": 109,
      "chip": "ym2612"
    },
    {
      "channel": 4,
      "note": 54,
      "start": 5.7388,
      "duration": 0.571,
      "velocity": 90,
      "chip": "ym2612"
    },
    {
      "channel": 1,
      "note": 80,
      "start": 5.9763,
      "duration": 0.5709,
      "velocity": 109,
      "chip": "ym2612"
    },
    {
      "channel": 3,
      "note": 80,
      "start": 5.9771,
      "duration": 0.5709,
      "velocity": 96,
      "chip": "ym2612"
    },
    {
      "channel": 0,
      "note": 80,
      "start": 6.0236,
      "duration": 0.5709,
      "velocity": 109,
      "chip": "ym2612"
    },
    {
      "channel": 5,
      "note": 54,
      "start": 6.2631,
      "duration": 0.5709,
      "velocity": 109,
      "chip": "ym2612"
    },
    {
      "channel": 4,
      "note": 54,
      "start": 6.3104,
      "duration": 0.571,
      "velocity": 90,
      "chip": "ym2612"
    },
    {
      "channel": 1,
      "note": 78,
      "start": 6.5478,
      "duration": 0.5709,
      "velocity": 109,
      "chip": "ym2612"
    },
    {
      "channel": 3,
      "note": 78,
      "start": 6.5486,
      "duration": 0.5709,
      "velocity": 96,
      "chip": "ym2612"
    },
    {
      "channel": 0,
      "note": 78,
      "start": 6.5951,
      "duration": 0.5709,
      "velocity": 109,
      "chip": "ym2612"
    },
    {
      "channel": 5,
      "note": 54,
      "start": 6.8346,
      "duration": 0.5709,
      "velocity": 109,
      "chip": "ym2612"
    },
    {
      "channel": 4,
      "note": 54,
      "start": 6.882,
      "duration": 0.5709,
      "velocity": 90,
      "chip": "ym2612"
    },
    {
      "channel": 1,
      "note": 78,
      "start": 7.1194,
      "duration": 0.5708,
      "velocity": 109,
      "chip": "ym2612"
    },
    {
      "channel": 3,
      "note": 78,
      "start": 7.1201,
      "duration": 0.5709,
      "velocity": 96,
      "chip": "ym2612"
    },
    {
      "channel": 0,
      "note": 78,
      "start": 7.1665,
      "duration": 0.5709,
      "velocity": 109,
      "chip": "ym2612"
    },
    {
      "channel": 5,
      "note": 54,
      "start": 7.4061,
      "duration": 0.5709,
      "velocity": 109,
      "chip": "ym2612"
    },
    {
      "channel": 4,
      "note": 54,
      "start": 7.4534,
      "duration": 0.5709,
      "velocity": 90,
      "chip": "ym2612"
    },
    {
      "channel": 1,
      "note": 77,
      "start": 7.6908,
      "duration": 0.5709,
      "velocity": 109,
      "chip": "ym2612"
    },
    {
      "channel": 3,
      "note": 77,
      "start": 7.6916,
      "duration": 0.5709,
      "velocity": 96,
      "chip": "ym2612"
    },
    {
      "channel": 0,
      "note": 77,
      "start": 7.738,
      "duration": 0.5709,
      "velocity": 109,
      "chip": "ym2612"
    },
    {
      "channel": 5,
      "note": 54,
      "start": 7.9776,
      "duration": 0.5709,
      "velocity": 109,
      "chip": "ym2612"
    },
    {
      "channel": 4,
      "note": 54,
      "start": 8.025,
      "duration": 0.5709,
      "velocity": 90,
      "chip": "ym2612"
    },
    {
      "channel": 1,
      "note": 74,
      "start": 8.2623,
      "duration": 0.5709,
      "velocity": 109,
      "chip": "ym2612"
    },
    {
      "channel": 3,
      "note": 74,
      "start": 8.263,
      "duration": 0.5709,
      "velocity": 96,
      "chip": "ym2612"
    },
    {
      "channel": 0,
      "note": 74,
      "start": 8.3096,
      "duration": 0.5709,
      "velocity": 109,
      "chip": "ym2612"
    },
    {
      "channel": 5,
      "note": 54,
      "start": 8.5492,
      "duration": 0.5709,
      "velocity": 109,
      "chip": "ym2612"
    },
    {
      "channel": 4,
      "note": 54,
      "start": 8.5964,
      "duration": 0.5709,
      "velocity": 90,
      "chip": "ym2612"
    },
    {
      "channel": 1,
      "note": 73,
      "start": 8.8338,
      "duration": 0.571,
      "velocity": 109,
      "chip": "ym2612"
    },
    {
      "channel": 3,
      "note": 73,
      "start": 8.8346,
      "duration": 0.5709,
      "velocity": 96,
      "chip": "ym2612"
    },
    {
      "channel": 0,
      "note": 73,
      "start": 8.8812,
      "duration": 0.5709,
      "velocity": 109,
      "chip": "ym2612"
    },
    {
      "channel": 5,
      "note": 54,
      "start": 9.1207,
      "duration": 0.571,
      "velocity": 109,
      "chip": "ym2612"
    },
    {
      "channel": 4,
      "note": 54,
      "start": 9.1679,
      "duration": 0.5711,
      "velocity": 90,
      "chip": "ym2612"
    },
    {
      "channel": 1,
      "note": 69,
      "start": 9.4054,
      "duration": 0.5708,
      "velocity": 109,
      "chip": "ym2612"
    },
    {
      "channel": 3,
      "note": 69,
      "start": 9.4061,
      "duration": 0.5708,
      "velocity": 96,
      "chip": "ym2612"
    },
    {
      "channel": 0,
      "note": 69,
      "start": 9.4527,
      "duration": 0.571,
      "velocity": 109,
      "chip": "ym2612"
    },
    {
      "channel": 5,
      "note": 54,
      "start": 9.6923,
      "duration": 0.5709,
      "velocity": 109,
      "chip": "ym2612"
    },
    {
      "channel": 4,
      "note": 54,
      "start": 9.7395,
      "duration": 0.5709,
      "velocity": 90,
      "chip": "ym2612"
    },
    {
      "channel": 1,
      "note": 66,
      "start": 9.9768,
      "duration": 0.5711,
      "velocity": 109,
      "chip": "ym2612"
    },
    {
      "channel": 3,
      "note": 66,
      "start": 9.9775,
      "duration": 0.571,
      "velocity": 96,
      "chip": "ym2612"
    },
    {
      "channel": 0,
      "note": 66,
      "start": 10.0243,
      "duration": 0.5708,
      "velocity": 109,
      "chip": "ym2612"
    },
    {
      "channel": 5,
      "note": 54,
      "start": 10.2638,
      "duration": 0.5709,
      "velocity": 109,
      "chip": "ym2612"
    },
    {
      "channel": 4,
      "note": 54,
      "start": 10.311,
      "duration": 0.5709,
      "velocity": 90,
      "chip": "ym2612"
    },
    {
      "channel": 1,
      "note": 68,
      "start": 10.5484,
      "duration": 0.571,
      "velocity": 109,
      "chip": "ym2612"
    },
    {
      "channel": 3,
      "note": 68,
      "start": 10.5491,
      "duration": 0.571,
      "velocity": 96,
      "chip": "ym2612"
    },
    {
      "channel": 0,
      "note": 68,
      "start": 10.5956,
      "duration": 0.5709,
      "velocity": 109,
      "chip": "ym2612"
    },
    {
      "channel": 5,
      "note": 54,
      "start": 10.8352,
      "duration": 0.5709,
      "velocity": 109,
      "chip": "ym2612"
    },
    {
      "channel": 4,
      "note": 54,
      "start": 10.8825,
      "duration": 0.571,
      "velocity": 90,
      "chip": "ym2612"
    },
    {
      "channel": 1,
      "note": 69,
      "start": 11.12,
      "duration": 0.5709,
      "velocity": 109,
      "chip": "ym2612"
    },
    {
      "channel": 3,
      "note": 69,
      "start": 11.1207,
      "duration": 0.5709,
      "velocity": 96,
      "chip": "ym2612"
    },
    {
      "channel": 0,
      "note": 69,
      "start": 11.1672,
      "duration": 0.5709,
      "velocity": 109,
      "chip": "ym2612"
    },
    {
      "channel": 5,
      "note": 54,
      "start": 11.4067,
      "duration": 0.571,
      "velocity": 109,
      "chip": "ym2612"
    },
    {
      "channel": 4,
      "note": 54,
      "start": 11.4541,
      "duration": 0.571,
      "velocity": 90,
      "chip": "ym2612"
    },
    {
      "channel": 1,
      "note": 71,
      "start": 11.6915,
      "duration": 0.5709,
      "velocity": 109,
      "chip": "ym2612"
    },
    {
      "channel": 3,
      "note": 71,
      "start": 11.6922,
      "duration": 0.5708,
      "velocity": 96,
      "chip": "ym2612"
    },
    {
      "channel": 0,
      "note": 71,
      "start": 11.7387,
      "duration": 0.5709,
      "velocity": 109,
      "chip": "ym2612"
    },
    {
      "channel": 5,
      "note": 54,
      "start": 11.9783,
      "duration": 0.5709,
      "velocity": 109,
      "chip": "ym2612"
    },
    {
      "channel": 4,
      "note": 54,
      "start": 12.0256,
      "duration": 0.5708,
      "velocity": 90,
      "chip": "ym2612"
    },
    {
      "channel": 1,
      "note": 74,
      "start": 12.2629,
      "duration": 0.5709,
      "velocity": 109,
      "chip": "ym2612"
    },
    {
      "channel": 3,
      "note": 74,
      "start": 12.2637,
      "duration": 0.5709,
      "velocity": 96,
      "chip": "ym2612"
    },
    {
      "channel": 0,
      "note": 74,
      "start": 12.3102,
      "duration": 0.571,
      "velocity": 109,
      "chip": "ym2612"
    },
    {
      "channel": 5,
      "note": 54,
      "start": 12.5497,
      "duration": 0.5709,
      "velocity": 109,
      "chip": "ym2612"
    },
    {
      "channel": 4,
      "note": 54,
      "start": 12.597,
      "duration": 0.5709,
      "velocity": 90,
      "chip": "ym2612"
    },
    {
      "channel": 1,
      "note": 73,
      "start": 12.8345,
      "duration": 0.571,
      "velocity": 109,
      "chip": "ym2612"
    },
    {
      "channel": 3,
      "note": 73,
      "start": 12.8351,
      "duration": 0.5711,
      "velocity": 96,
      "chip": "ym2612"
    },
    {
      "channel": 0,
      "note": 73,
      "start": 12.8817,
      "duration": 0.5709,
      "velocity": 109,
      "chip": "ym2612"
    },
    {
      "channel": 5,
      "note": 54,
      "start": 13.1212,
      "duration": 0.571,
      "velocity": 109,
      "chip": "ym2612"
    },
    {
      "channel": 4,
      "note": 54,
      "start": 13.1685,
      "duration": 0.5711,
      "velocity": 90,
      "chip": "ym2612"
    },
    {
      "channel": 1,
      "note": 69,
      "start": 13.4061,
      "duration": 0.5708,
      "velocity": 109,
      "chip": "ym2612"
    },
    {
      "channel": 3,
      "note": 69,
      "start": 13.4068,
      "duration": 0.5708,
      "velocity": 96,
      "chip": "ym2612"
    },
    {
      "channel": 0,
      "note": 69,
      "start": 13.4532,
      "duration": 0.5711,
      "velocity": 109,
      "chip": "ym2612"
    },
    {
      "channel": 5,
      "note": 54,
      "start": 13.6928,
      "duration": 0.571,
      "velocity": 109,
      "chip": "ym2612"
    },
    {
      "channel": 4,
      "note": 54,
      "start": 13.7401,
      "duration": 0.5709,
      "velocity": 90,
      "chip": "ym2612"
    },
    {
      "channel": 1,
      "note": 71,
      "start": 13.9775,
      "duration": 0.5709,
      "velocity": 109,
      "chip": "ym2612"
    },
    {
      "channel": 3,
      "note": 71,
      "start": 13.9782,
      "duration": 0.5709,
      "velocity": 96,
      "chip": "ym2612"
    },
    {
      "channel": 0,
      "note": 71,
      "start": 14.0249,
      "duration": 0.5708,
      "velocity": 109,
      "chip": "ym2612"
    },
    {
      "channel": 5,
      "note": 54,
      "start": 14.2644,
      "duration": 0.5709,
      "velocity": 109,
      "chip": "ym2612"
    },
    {
      "channel": 4,
      "note": 54,
      "start": 14.3116,
      "duration": 0.5709,
      "velocity": 90,
      "chip": "ym2612"
    },
    {
      "channel": 1,
      "note": 68,
      "start": 14.549,
      "duration": 0.5709,
      "velocity": 109,
      "chip": "ym2612"
    },
    {
      "channel": 3,
      "note": 68,
      "start": 14.5497,
      "duration": 0.5709,
      "velocity": 96,
      "chip": "ym2612"
    },
    {
      "channel": 0,
      "note": 68,
      "start": 14.5962,
      "duration": 0.5709,
      "velocity": 109,
      "chip": "ym2612"
    },
    {
      "channel": 5,
      "note": 54,
      "start": 14.8358,
      "duration": 0.5709,
      "velocity": 109,
      "chip": "ym2612"
    },
    {
      "channel": 4,
      "note": 54,
      "start": 14.8831,
      "duration": 0.571,
      "velocity": 90,
      "chip": "ym2612"
    },
    {
      "channel": 1,
      "note": 66,
      "start": 15.1204,
      "duration": 0.5711,
      "velocity": 109,
      "chip": "ym2612"
    },
    {
      "channel": 3,
      "note": 66,
      "start": 15.1212,
      "duration": 0.5711,
      "velocity": 96,
      "chip": "ym2612"
    },
    {
      "channel": 0,
      "note": 66,
      "start": 15.1677,
      "duration": 0.5709,
      "velocity": 109,
      "chip": "ym2612"
    },
    {
      "channel": 5,
      "note": 54,
      "start": 15.4074,
      "duration": 0.5709,
      "velocity": 109,
      "chip": "ym2612"
    },
    {
      "channel": 4,
      "note": 54,
      "start": 15.4547,
      "duration": 0.5709,
      "velocity": 90,
      "chip": "ym2612"
    },
    {
      "channel": 1,
      "note": 65,
      "start": 15.6921,
      "duration": 0.5709,
      "velocity": 109,
      "chip": "ym2612"
    },
    {
      "channel": 3,
      "note": 65,
      "start": 15.6928,
      "duration": 0.5709,
      "velocity": 96,
      "chip": "ym2612"
    },
    {
      "channel": 0,
      "note": 65,
      "start": 15.7392,
      "duration": 0.571,
      "velocity": 109,
      "chip": "ym2612"
    },
    {
      "channel": 5,
      "note": 54,
      "start": 15.9788,
      "duration": 0.571,
      "velocity": 109,
      "chip": "ym2612"
    },
    {
      "channel": 4,
      "note": 54,
      "start": 16.0261,
      "duration": 0.5709,
      "velocity": 90,
      "chip": "ym2612"
    },
    {
      "channel": 1,
      "note": 66,
      "start": 16.2635,
      "duration": 0.5709,
      "velocity": 109,
      "chip": "ym2612"
    },
    {
      "channel": 3,
      "note": 66,
      "start": 16.2642,
      "duration": 0.5709,
      "velocity": 96,
      "chip": "ym2612"
    },
    {
      "channel": 0,
      "note": 66,
      "start": 16.3108,
      "duration": 0.5709,
      "velocity": 109,
      "chip": "ym2612"
    },
    {
      "channel": 5,
      "note": 54,
      "start": 16.5504,
      "duration": 0.5709,
      "velocity": 109,
      "chip": "ym2612"
    },
    {
      "channel": 4,
      "note": 54,
      "start": 16.5976,
      "duration": 0.5711,
      "velocity": 90,
      "chip": "ym2612"
    },
    {
      "channel": 1,
      "note": 65,
      "start": 16.835,
      "duration": 0.571,
      "velocity": 109,
      "chip": "ym2612"
    },
    {
      "channel": 3,
      "note": 65,
      "start": 16.8357,
      "duration": 0.5709,
      "velocity": 96,
      "chip": "ym2612"
    },
    {
      "channel": 0,
      "note": 65,
      "start": 16.8823,
      "duration": 0.5709,
      "velocity": 109,
      "chip": "ym2612"
    },
    {
      "channel": 5,
      "note": 54,
      "start": 17.1219,
      "duration": 0.5709,
      "velocity": 109,
      "chip": "ym2612"
    },
    {
      "channel": 4,
      "note": 54,
      "start": 17.1692,
      "duration": 0.5709,
      "velocity": 90,
      "chip": "ym2612"
    },
    {
      "channel": 1,
      "note": 66,
      "start": 17.4065,
      "duration": 0.571,
      "velocity": 109,
      "chip": "ym2612"
    },
    {
      "channel": 3,
      "note": 66,
      "start": 17.4072,
      "duration": 0.571,
      "velocity": 96,
      "chip": "ym2612"
    },
    {
      "channel": 0,
      "note": 66,
      "start": 17.4539,
      "duration": 0.5709,
      "velocity": 109,
      "chip": "ym2612"
    },
    {
      "channel": 5,
      "note": 54,
      "start": 17.6934,
      "duration": 0.571,
      "velocity": 109,
      "chip": "ym2612"
    },
    {
      "channel": 4,
      "note": 54,
      "start": 17.7407,
      "duration": 0.5709,
      "velocity": 90,
      "chip": "ym2612"
    },
    {
      "channel": 1,
      "note": 61,
      "start": 17.9781,
      "duration": 0.5647,
      "velocity": 109,
      "chip": "ym2612"
    },
    {
      "channel": 3,
      "note": 61,
      "start": 17.9788,
      "duration": 0.564,
      "velocity": 96,
      "chip": "ym2612"
    },
    {
      "channel": 0,
      "note": 61,
      "start": 18.0254,
      "duration": 0.5175,
      "velocity": 109,
      "chip": "ym2612"
    },
    {
      "channel": 5,
      "note": 54,
      "start": 18.2649,
      "duration": 0.2779,
      "velocity": 109,
      "chip": "ym2612"
    },
    {
      "channel": 4,
      "note": 54,
      "start": 18.3122,
      "duration": 0.2306,
      "velocity": 90,
      "chip": "ym2612"
    }
  ]
}