{
  "track_name": "27 - Secret Society",
  "duration_sec": 67.811,
  "sample_rate": 44100,
  "note_count": 1004,
  "unique_pitches": 26,
  "pitch_range": 53,
  "avg_note_duration": 0.3352,
  "reconstruction_stats": {
    "notes_reconstructed": 1004,
    "keyon_events": 1004,
    "keyoff_events": 999,
    "orphan_keyons": 5,
    "unique_pitches": 26,
    "pitch_range": 53,
    "avg_duration_sec": 0.3352
  },
  "metadata": {
    "source": "P\\Pier Solar and the Great Architects\\27 - Secret Society.vgz"
  },
  "notes": [
    {
      "channel": 0,
      "note": 40,
      "start": 0.1057,
      "duration": 8.2417,
      "velocity": 87,
      "chip": "ym2612"
    },
    {
      "channel": 1,
      "note": 45,
      "start": 0.1071,
      "duration": 8.2403,
      "velocity": 87,
      "chip": "ym2612"
    },
    {
      "channel": 2,
      "note": 52,
      "start": 0.1085,
      "duration": 8.239,
      "velocity": 87,
      "chip": "ym2612"
    },
    {
      "channel": 3,
      "note": 57,
      "start": 0.11,
      "duration": 8.2376,
      "velocity": 87,
      "chip": "ym2612"
    },
    {
      "channel": 4,
      "note": 45,
      "start": 0.1103,
      "duration": 1.0558,
      "velocity": 114,
      "chip": "ym2612"
    },
    {
      "channel": 4,
      "note": 45,
      "start": 1.1662,
      "duration": 1.2046,
      "velocity": 114,
      "chip": "ym2612"
    },
    {
      "channel": 4,
      "note": 45,
      "start": 2.3709,
      "duration": 1.0613,
      "velocity": 114,
      "chip": "ym2612"
    },
    {
      "channel": 4,
      "note": 45,
      "start": 3.4324,
      "duration": 0.5367,
      "velocity": 114,
      "chip": "ym2612"
    },
    {
      "channel": 4,
      "note": 43,
      "start": 3.9692,
      "duration": 0.515,
      "velocity": 114,
      "chip": "ym2612"
    },
    {
      "channel": 4,
      "note": 45,
      "start": 4.4843,
      "duration": 1.0621,
      "velocity": 114,
      "chip": "ym2612"
    },
    {
      "channel": 4,
      "note": 45,
      "start": 5.5465,
      "duration": 1.2034,
      "velocity": 114,
      "chip": "ym2612"
    },
    {
      "channel": 4,
      "note": 45,
      "start": 6.75,
      "duration": 1.0617,
      "velocity": 114,
      "chip": "ym2612"
    },
    {
      "channel": 4,
      "note": 45,
      "start": 7.8118,
      "duration": 0.5359,
      "velocity": 114,
      "chip": "ym2612"
    },
    {
      "channel": 4,
      "note": 43,
      "start": 8.3479,
      "duration": 0.5171,
      "velocity": 114,
      "chip": "ym2612"
    },
    {
      "channel": 1,
      "note": 84,
      "start": 8.4439,
      "duration": 0.2089,
      "velocity": 97,
      "chip": "ym2612"
    },
    {
      "channel": 1,
      "note": 83,
      "start": 8.6529,
      "duration": 0.1064,
      "velocity": 97,
      "chip": "ym2612"
    },
    {
      "channel": 0,
      "note": 84,
      "start": 8.7592,
      "duration": 0.1479,
      "velocity": 97,
      "chip": "ym2612"
    },
    {
      "channel": 1,
      "note": 82,
      "start": 8.7594,
      "duration": 0.1037,
      "velocity": 97,
      "chip": "ym2612"
    },
    {
      "channel": 1,
      "note": 81,
      "start": 8.8633,
      "duration": 0.1491,
      "velocity": 97,
      "chip": "ym2612"
    },
    {
      "channel": 3,
      "note": 69,
      "start": 8.8649,
      "duration": 0.3584,
      "velocity": 119,
      "chip": "ym2612"
    },
    {
      "channel": 4,
      "note": 45,
      "start": 8.8651,
      "duration": 0.7627,
      "velocity": 114,
      "chip": "ym2612"
    },
    {
      "channel": 0,
      "note": 83,
      "start": 8.9072,
      "duration": 0.105,
      "velocity": 97,
      "chip": "ym2612"
    },
    {
      "channel": 0,
      "note": 82,
      "start": 9.0123,
      "duration": 0.105,
      "velocity": 97,
      "chip": "ym2612"
    },
    {
      "channel": 1,
      "note": 81,
      "start": 9.0128,
      "duration": 0.2098,
      "velocity": 97,
      "chip": "ym2612"
    },
    {
      "channel": 2,
      "note": 84,
      "start": 9.0142,
      "duration": 0.2088,
      "velocity": 97,
      "chip": "ym2612"
    },
    {
      "channel": 0,
      "note": 81,
      "start": 9.1175,
      "duration": 0.1186,
      "velocity": 97,
      "chip": "ym2612"
    },
    {
      "channel": 1,
      "note": 81,
      "start": 9.2229,
      "duration": 0.0253,
      "velocity": 97,
      "chip": "ym2612"
    },
    {
      "channel": 2,
      "note": 83,
      "start": 9.2231,
      "duration": 0.0134,
      "velocity": 97,
      "chip": "ym2612"
    },
    {
      "channel": 3,
      "note": 72,
      "start": 9.2234,
      "duration": 0.0255,
      "velocity": 119,
      "chip": "ym2612"
    },
    {
      "channel": 0,
      "note": 81,
      "start": 9.2364,
      "duration": 0.0576,
      "velocity": 97,
      "chip": "ym2612"
    },
    {
      "channel": 2,
      "note": 82,
      "start": 9.2367,
      "duration": 0.0119,
      "velocity": 97,
      "chip": "ym2612"
    },
    {
      "channel": 1,
      "note": 81,
      "start": 9.2485,
      "duration": 0.1507,
      "velocity": 97,
      "chip": "ym2612"
    },
    {
      "channel": 2,
      "note": 81,
      "start": 9.2488,
      "duration": 0.1509,
      "velocity": 97,
      "chip": "ym2612"
    },
    {
      "channel": 3,
      "note": 74,
      "start": 9.2491,
      "duration": 0.1774,
      "velocity": 119,
      "chip": "ym2612"
    },
    {
      "channel": 0,
      "note": 81,
      "start": 9.2944,
      "duration": 0.119,
      "velocity": 97,
      "chip": "ym2612"
    },
    {
      "channel": 1,
      "note": 81,
      "start": 9.3996,
      "duration": 0.0259,
      "velocity": 97,
      "chip": "ym2612"
    },
    {
      "channel": 2,
      "note": 81,
      "start": 9.4001,
      "duration": 0.0259,
      "velocity": 97,
      "chip": "ym2612"
    },
    {
      "channel": 0,
      "note": 81,
      "start": 9.4138,
      "duration": 0.1076,
      "velocity": 97,
      "chip": "ym2612"
    },
    {
      "channel": 1,
      "note": 81,
      "start": 9.4259,
      "duration": 0.2007,
      "velocity": 97,
      "chip": "ym2612"
    },
    {
      "channel": 2,
      "note": 81,
      "start": 9.4263,
      "duration": 0.2007,
      "velocity": 97,
      "chip": "ym2612"
    },
    {
      "channel": 3,
      "note": 72,
      "start": 9.4266,
      "duration": 0.2009,
      "velocity": 119,
      "chip": "ym2612"
    },
    {
      "channel": 0,
      "note": 81,
      "start": 9.5217,
      "duration": 0.1489,
      "velocity": 97,
      "chip": "ym2612"
    },
    {
      "channel": 1,
      "note": 81,
      "start": 9.6269,
      "duration": 0.1489,
      "velocity": 97,
      "chip": "ym2612"
    },
    {
      "channel": 2,
      "note": 81,
      "start": 9.6274,
      "duration": 0.1489,
      "velocity": 97,
      "chip": "ym2612"
    },
    {
      "channel": 3,
      "note": 74,
      "start": 9.6277,
      "duration": 0.1491,
      "velocity": 119,
      "chip": "ym2612"
    },
    {
      "channel": 4,
      "note": 45,
      "start": 9.6279,
      "duration": 0.2983,
      "velocity": 114,
      "chip": "ym2612"
    },
    {
      "channel": 0,
      "note": 81,
      "start": 9.671,
      "duration": 0.1489,
      "velocity": 97,
      "chip": "ym2612"
    },
    {
      "channel": 1,
      "note": 81,
      "start": 9.7762,
      "duration": 0.1489,
      "velocity": 97,
      "chip": "ym2612"
    },
    {
      "channel": 2,
      "note": 81,
      "start": 9.7766,
      "duration": 0.1489,
      "velocity": 97,
      "chip": "ym2612"
    },
    {
      "channel": 3,
      "note": 72,
      "start": 9.7769,
      "duration": 0.149,
      "velocity": 119,
      "chip": "ym2612"
    },
    {
      "channel": 0,
      "note": 81,
      "start": 9.8202,
      "duration": 0.1489,
      "velocity": 97,
      "chip": "ym2612"
    },
    {
      "channel": 1,
      "note": 83,
      "start": 9.9254,
      "duration": 0.1489,
      "velocity": 97,
      "chip": "ym2612"
    },
    {
      "channel": 2,
      "note": 81,
      "start": 9.9259,
      "duration": 0.1489,
      "velocity": 97,
      "chip": "ym2612"
    },
    {
      "channel": 3,
      "note": 69,
      "start": 9.9261,
      "duration": 0.3593,
      "velocity": 119,
      "chip": "ym2612"
    },
    {
      "channel": 4,
      "note": 45,
      "start": 9.9264,
      "duration": 1.204,
      "velocity": 114,
      "chip": "ym2612"
    },
    {
      "channel": 0,
      "note": 81,
      "start": 9.9694,
      "duration": 0.2099,
      "velocity": 97,
      "chip": "ym2612"
    },
    {
      "channel": 1,
      "note": 83,
      "start": 10.0746,
      "duration": 0.2099,
      "velocity": 97,
      "chip": "ym2612"
    },
    {
      "channel": 2,
      "note": 81,
      "start": 10.0751,
      "duration": 0.2099,
      "velocity": 97,
      "chip": "ym2612"
    },
    {
      "channel": 0,
      "note": 83,
      "start": 10.1797,
      "duration": 0.1184,
      "velocity": 97,
      "chip": "ym2612"
    },
    {
      "channel": 1,
      "note": 83,
      "start": 10.2849,
      "duration": 0.025,
      "velocity": 97,
      "chip": "ym2612"
    },
    {
      "channel": 2,
      "note": 81,
      "start": 10.2854,
      "duration": 0.025,
      "velocity": 97,
      "chip": "ym2612"
    },
    {
      "channel": 3,
      "note": 72,
      "start": 10.2856,
      "duration": 0.0251,
      "velocity": 119,
      "chip": "ym2612"
    },
    {
      "channel": 0,
      "note": 83,
      "start": 10.2984,
      "duration": 0.0574,
      "velocity": 97,
      "chip": "ym2612"
    },
    {
      "channel": 1,
      "note": 83,
      "start": 10.3102,
      "duration": 0.1508,
      "velocity": 97,
      "chip": "ym2612"
    },
    {
      "channel": 2,
      "note": 83,
      "start": 10.3107,
      "duration": 0.1508,
      "velocity": 97,
      "chip": "ym2612"
    },
    {
      "channel": 3,
      "note": 74,
      "start": 10.311,
      "duration": 0.2392,
      "velocity": 119,
      "chip": "ym2612"
    },
    {
      "channel": 0,
      "note": 83,
      "start": 10.3562,
      "duration": 0.1182,
      "velocity": 97,
      "chip": "ym2612"
    },
    {
      "channel": 1,
      "note": 84,
      "start": 10.4614,
      "duration": 0.0878,
      "velocity": 97,
      "chip": "ym2612"
    },
    {
      "channel": 2,
      "note": 83,
      "start": 10.4618,
      "duration": 0.0878,
      "velocity": 97,
      "chip": "ym2612"
    },
    {
      "channel": 0,
      "note": 83,
      "start": 10.4747,
      "duration": 0.1796,
      "velocity": 97,
      "chip": "ym2612"
    },
    {
      "channel": 1,
      "note": 84,
      "start": 10.5496,
      "duration": 0.2099,
      "velocity": 97,
      "chip": "ym2612"
    },
    {
      "channel": 2,
      "note": 83,
      "start": 10.55,
      "duration": 0.2099,
      "velocity": 97,
      "chip": "ym2612"
    },
    {
      "channel": 3,
      "note": 69,
      "start": 10.5503,
      "duration": 0.2101,
      "velocity": 119,
      "chip": "ym2612"
    },
    {
      "channel": 0,
      "note": 84,
      "start": 10.6546,
      "duration": 0.1591,
      "velocity": 97,
      "chip": "ym2612"
    },
    {
      "channel": 1,
      "note": 84,
      "start": 10.7598,
      "duration": 0.1591,
      "velocity": 97,
      "chip": "ym2612"
    },
    {
      "channel": 2,
      "note": 83,
      "start": 10.7603,
      "duration": 0.1591,
      "velocity": 97,
      "chip": "ym2612"
    },
    {
      "channel": 3,
      "note": 74,
      "start": 10.7606,
      "duration": 0.3695,
      "velocity": 119,
      "chip": "ym2612"
    },
    {
      "channel": 0,
      "note": 84,
      "start": 10.8141,
      "duration": 0.2099,
      "velocity": 97,
      "chip": "ym2612"
    },
    {
      "channel": 1,
      "note": 84,
      "start": 10.9193,
      "duration": 0.2099,
      "velocity": 97,
      "chip": "ym2612"
    },
    {
      "channel": 2,
      "note": 84,
      "start": 10.9197,
      "duration": 0.2099,
      "velocity": 97,
      "chip": "ym2612"
    },
    {
      "channel": 0,
      "note": 84,
      "start": 11.0243,
      "duration": 0.1489,
      "velocity": 97,
      "chip": "ym2612"
    },
    {
      "channel": 1,
      "note": 81,
      "start": 11.1295,
      "duration": 0.149,
      "velocity": 97,
      "chip": "ym2612"
    },
    {
      "channel": 2,
      "note": 84,
      "start": 11.13,
      "duration": 0.1489,
      "velocity": 97,
      "chip": "ym2612"
    },
    {
      "channel": 3,
      "note": 72,
      "start": 11.1302,
      "duration": 0.3594,
      "velocity": 119,
      "chip": "ym2612"
    },
    {
      "channel": 4,
      "note": 45,
      "start": 11.1305,
      "duration": 0.7631,
      "velocity": 114,
      "chip": "ym2612"
    },
    {
      "channel": 0,
      "note": 84,
      "start": 11.1736,
      "duration": 0.21,
      "velocity": 97,
      "chip": "ym2612"
    },
    {
      "channel": 1,
      "note": 81,
      "start": 11.2788,
      "duration": 0.2099,
      "velocity": 97,
      "chip": "ym2612"
    },
    {
      "channel": 2,
      "note": 84,
      "start": 11.2793,
      "duration": 0.2099,
      "velocity": 97,
      "chip": "ym2612"
    },
    {
      "channel": 0,
      "note": 81,
      "start": 11.3839,
      "duration": 0.1183,
      "velocity": 97,
      "chip": "ym2612"
    },
    {
      "channel": 1,
      "note": 81,
      "start": 11.4891,
      "duration": 0.025,
      "velocity": 97,
      "chip": "ym2612"
    },
    {
      "channel": 2,
      "note": 84,
      "start": 11.4895,
      "duration": 0.025,
      "velocity": 97,
      "chip": "ym2612"
    },
    {
      "channel": 3,
      "note": 69,
      "start": 11.4898,
      "duration": 0.0252,
      "velocity": 119,
      "chip": "ym2612"
    },
    {
      "channel": 0,
      "note": 81,
      "start": 11.5026,
      "duration": 0.0574,
      "velocity": 97,
      "chip": "ym2612"
    },
    {
      "channel": 1,
      "note": 81,
      "start": 11.5144,
      "duration": 0.1507,
      "velocity": 97,
      "chip": "ym2612"
    },
    {
      "channel": 2,
      "note": 81,
      "start": 11.5149,
      "duration": 0.1507,
      "velocity": 97,
      "chip": "ym2612"
    },
    {
      "channel": 3,
      "note": 72,
      "start": 11.5152,
      "duration": 0.1771,
      "velocity": 119,
      "chip": "ym2612"
    },
    {
      "channel": 0,
      "note": 81,
      "start": 11.5603,
      "duration": 0.1189,
      "velocity": 97,
      "chip": "ym2612"
    },
    {
      "channel": 1,
      "note": 81,
      "start": 11.6654,
      "duration": 0.026,
      "velocity": 97,
      "chip": "ym2612"
    },
    {
      "channel": 2,
      "note": 81,
      "start": 11.6659,
      "duration": 0.026,
      "velocity": 97,
      "chip": "ym2612"
    },
    {
      "channel": 0,
      "note": 81,
      "start": 11.6795,
      "duration": 0.1078,
      "velocity": 97,
      "chip": "ym2612"
    },
    {
      "channel": 1,
      "note": 81,
      "start": 11.6917,
      "duration": 0.2007,
      "velocity": 97,
      "chip": "ym2612"
    },
    {
      "channel": 2,
      "note": 81,
      "start": 11.6922,
      "duration": 0.2007,
      "velocity": 97,
      "chip": "ym2612"
    },
    {
      "channel": 3,
      "note": 76,
      "start": 11.6925,
      "duration": 0.2009,
      "velocity": 119,
      "chip": "ym2612"
    },
    {
      "channel": 0,
      "note": 81,
      "start": 11.7876,
      "duration": 0.1488,
      "velocity": 97,
      "chip": "ym2612"
    },
    {
      "channel": 1,
      "note": 81,
      "start": 11.8928,
      "duration": 0.1488,
      "velocity": 97,
      "chip": "ym2612"
    },
    {
      "channel": 2,
      "note": 81,
      "start": 11.8932,
      "duration": 0.1489,
      "velocity": 97,
      "chip": "ym2612"
    },
    {
      "channel": 3,
      "note": 69,
      "start": 11.8935,
      "duration": 0.2983,
      "velocity": 119,
      "chip": "ym2612"
    },
    {
      "channel": 4,
      "note": 45,
      "start": 11.8938,
      "duration": 0.2983,
      "velocity": 114,
      "chip": "ym2612"
    },
    {
      "channel": 0,
      "note": 81,
      "start": 11.9368,
      "duration": 0.1489,
      "velocity": 97,
      "chip": "ym2612"
    },
    {
      "channel": 1,
      "note": 81,
      "start": 12.042,
      "duration": 0.1489,
      "velocity": 97,
      "chip": "ym2612"
    },
    {
      "channel": 2,
      "note": 81,
      "start": 12.0424,
      "duration": 0.1489,
      "velocity": 97,
      "chip": "ym2612"
    },
    {
      "channel": 0,
      "note": 81,
      "start": 12.086,
      "duration": 0.1489,
      "velocity": 97,
      "chip": "ym2612"
    },
    {
      "channel": 1,
      "note": 79,
      "start": 12.1912,
      "duration": 0.1489,
      "velocity": 97,
      "chip": "ym2612"
    },
    {
      "channel": 2,
      "note": 81,
      "start": 12.1917,
      "duration": 0.1489,
      "velocity": 97,
      "chip": "ym2612"
    },
    {
      "channel": 3,
      "note": 72,
      "start": 12.1919,
      "duration": 0.3593,
      "velocity": 119,
      "chip": "ym2612"
    },
    {
      "channel": 4,
      "note": 41,
      "start": 12.1922,
      "duration": 0.5356,
      "velocity": 114,
      "chip": "ym2612"
    },
    {
      "channel": 0,
      "note": 81,
      "start": 12.2352,
      "duration": 0.2099,
      "velocity": 97,
      "chip": "ym2612"
    },
    {
      "channel": 1,
      "note": 79,
      "start": 12.3405,
      "duration": 0.2099,
      "velocity": 97,
      "chip": "ym2612"
    },
    {
      "channel": 2,
      "note": 81,
      "start": 12.3409,
      "duration": 0.2099,
      "velocity": 97,
      "chip": "ym2612"
    },
    {
      "channel": 0,
      "note": 79,
      "start": 12.4455,
      "duration": 0.1183,
      "velocity": 97,
      "chip": "ym2612"
    },
    {
      "channel": 1,
      "note": 77,
      "start": 12.5507,
      "duration": 0.0249,
      "velocity": 97,
      "chip": "ym2612"
    },
    {
      "channel": 2,
      "note": 81,
      "start": 12.5511,
      "duration": 0.0249,
      "velocity": 97,
      "chip": "ym2612"
    },
    {
      "channel": 3,
      "note": 69,
      "start": 12.5514,
      "duration": 0.0251,
      "velocity": 119,
      "chip": "ym2612"
    },
    {
      "channel": 0,
      "note": 79,
      "start": 12.5642,
      "duration": 0.0574,
      "velocity": 97,
      "chip": "ym2612"
    },
    {
      "channel": 1,
      "note": 77,
      "start": 12.576,
      "duration": 0.1508,
      "velocity": 97,
      "chip": "ym2612"
    },
    {
      "channel": 2,
      "note": 79,
      "start": 12.5764,
      "duration": 0.1508,
      "velocity": 97,
      "chip": "ym2612"
    },
    {
      "channel": 3,
      "note": 72,
      "start": 12.5767,
      "duration": 0.1773,
      "velocity": 119,
      "chip": "ym2612"
    },
    {
      "channel": 0,
      "note": 77,
      "start": 12.6219,
      "duration": 0.1192,
      "velocity": 97,
      "chip": "ym2612"
    },
    {
      "channel": 1,
      "note": 76,
      "start": 12.7271,
      "duration": 0.0259,
      "velocity": 97,
      "chip": "ym2612"
    },
    {
      "channel": 2,
      "note": 79,
      "start": 12.7276,
      "duration": 0.026,
      "velocity": 97,
      "chip": "ym2612"
    },
    {
      "channel": 4,
      "note": 40,
      "start": 12.7279,
      "duration": 0.5167,
      "velocity": 114,
      "chip": "ym2612"
    },
    {
      "channel": 0,
      "note": 77,
      "start": 12.7414,
      "duration": 0.0241,
      "velocity": 97,
      "chip": "ym2612"
    },
    {
      "channel": 1,
      "note": 76,
      "start": 12.7534,
      "duration": 0.0683,
      "velocity": 97,
      "chip": "ym2612"
    },
    {
      "channel": 2,
      "note": 77,
      "start": 12.7539,
      "duration": 0.0683,
      "velocity": 97,
      "chip": "ym2612"
    },
    {
      "channel": 3,
      "note": 76,
      "start": 12.7542,
      "duration": 0.0685,
      "velocity": 119,
      "chip": "ym2612"
    },
    {
      "channel": 0,
      "note": 76,
      "start": 12.7658,
      "duration": 0.161,
      "velocity": 97,
      "chip": "ym2612"
    },
    {
      "channel": 1,
      "note": 76,
      "start": 12.8221,
      "duration": 0.2099,
      "velocity": 97,
      "chip": "ym2612"
    },
    {
      "channel": 2,
      "note": 77,
      "start": 12.8226,
      "duration": 0.2099,
      "velocity": 97,
      "chip": "ym2612"
    },
    {
      "channel": 3,
      "note": 69,
      "start": 12.8229,
      "duration": 0.4203,
      "velocity": 119,
      "chip": "ym2612"
    },
    {
      "channel": 0,
      "note": 76,
      "start": 12.9272,
      "duration": 0.2099,
      "velocity": 97,
      "chip": "ym2612"
    },
    {
      "channel": 1,
      "note": 76,
      "start": 13.0324,
      "duration": 0.2099,
      "velocity": 97,
      "chip": "ym2612"
    },
    {
      "channel": 2,
      "note": 76,
      "start": 13.0328,
      "duration": 0.2099,
      "velocity": 97,
      "chip": "ym2612"
    },
    {
      "channel": 0,
      "note": 76,
      "start": 13.1374,
      "duration": 0.1489,
      "velocity": 97,
      "chip": "ym2612"
    },
    {
      "channel": 1,
      "note": 81,
      "start": 13.2426,
      "duration": 0.1489,
      "velocity": 97,
      "chip": "ym2612"
    },
    {
      "channel": 2,
      "note": 76,
      "start": 13.2431,
      "duration": 0.1489,
      "velocity": 97,
      "chip": "ym2612"
    },
    {
      "channel": 3,
      "note": 69,
      "start": 13.2445,
      "duration": 0.3581,
      "velocity": 119,
      "chip": "ym2612"
    },
    {
      "channel": 4,
      "note": 45,
      "start": 13.2448,
      "duration": 0.7619,
      "velocity": 114,
      "chip": "ym2612"
    },
    {
      "channel": 0,
      "note": 76,
      "start": 13.2866,
      "duration": 0.2099,
      "velocity": 97,
      "chip": "ym2612"
    },
    {
      "channel": 1,
      "note": 81,
      "start": 13.3918,
      "duration": 0.2099,
      "velocity": 97,
      "chip": "ym2612"
    },
    {
      "channel": 2,
      "note": 76,
      "start": 13.3923,
      "duration": 0.2099,
      "velocity": 97,
      "chip": "ym2612"
    },
    {
      "channel": 0,
      "note": 81,
      "start": 13.4969,
      "duration": 0.1184,
      "velocity": 97,
      "chip": "ym2612"
    },
    {
      "channel": 1,
      "note": 81,
      "start": 13.6021,
      "duration": 0.0251,
      "velocity": 97,
      "chip": "ym2612"
    },
    {
      "channel": 2,
      "note": 76,
      "start": 13.6025,
      "duration": 0.0251,
      "velocity": 97,
      "chip": "ym2612"
    },
    {
      "channel": 3,
      "note": 72,
      "start": 13.6028,
      "duration": 0.0253,
      "velocity": 119,
      "chip": "ym2612"
    },
    {
      "channel": 0,
      "note": 81,
      "start": 13.6156,
      "duration": 0.0574,
      "velocity": 97,
      "chip": "ym2612"
    },
    {
      "channel": 1,
      "note": 81,
      "start": 13.6276,
      "duration": 0.1507,
      "velocity": 97,
      "chip": "ym2612"
    },
    {
      "channel": 2,
      "note": 81,
      "start": 13.628,
      "duration": 0.1507,
      "velocity": 97,
      "chip": "ym2612"
    },
    {
      "channel": 3,
      "note": 74,
      "start": 13.6283,
      "duration": 0.1771,
      "velocity": 119,
      "chip": "ym2612"
    },
    {
      "channel": 0,
      "note": 81,
      "start": 13.6734,
      "duration": 0.1189,
      "velocity": 97,
      "chip": "ym2612"
    },
    {
      "channel": 1,
      "note": 81,
      "start": 13.7785,
      "duration": 0.0259,
      "velocity": 97,
      "chip": "ym2612"
    },
    {
      "channel": 2,
      "note": 81,
      "start": 13.779,
      "duration": 0.0259,
      "velocity": 97,
      "chip": "ym2612"
    },
    {
      "channel": 0,
      "note": 81,
      "start": 13.7926,
      "duration": 0.1077,
      "velocity": 97,
      "chip": "ym2612"
    },
    {
      "channel": 1,
      "note": 81,
      "start": 13.8048,
      "duration": 0.2007,
      "velocity": 97,
      "chip": "ym2612"
    },
    {
      "channel": 2,
      "note": 81,
      "start": 13.8053,
      "duration": 0.2007,
      "velocity": 97,
      "chip": "ym2612"
    },
    {
      "channel": 3,
      "note": 72,
      "start": 13.8055,
      "duration": 0.2009,
      "velocity": 119,
      "chip": "ym2612"
    },
    {
      "channel": 0,
      "note": 81,
      "start": 13.9007,
      "duration": 0.1488,
      "velocity": 97,
      "chip": "ym2612"
    },
    {
      "channel": 1,
      "note": 81,
      "start": 14.0058,
      "duration": 0.1489,
      "velocity": 97,
      "chip": "ym2612"
    },
    {
      "channel": 2,
      "note": 81,
      "start": 14.0063,
      "duration": 0.1489,
      "velocity": 97,
      "chip": "ym2612"
    },
    {
      "channel": 3,
      "note": 74,
      "start": 14.0066,
      "duration": 0.149,
      "velocity": 119,
      "chip": "ym2612"
    },
    {
      "channel": 4,
      "note": 45,
      "start": 14.0068,
      "duration": 0.2983,
      "velocity": 114,
      "chip": "ym2612"
    },
    {
      "channel": 0,
      "note": 81,
      "start": 14.0498,
      "duration": 0.1489,
      "velocity": 97,
      "chip": "ym2612"
    },
    {
      "channel": 1,
      "note": 81,
      "start": 14.155,
      "duration": 0.1489,
      "velocity": 97,
      "chip": "ym2612"
    },
    {
      "channel": 2,
      "note": 81,
      "start": 14.1555,
      "duration": 0.1489,
      "velocity": 97,
      "chip": "ym2612"
    },
    {
      "channel": 3,
      "note": 72,
      "start": 14.1558,
      "duration": 0.1491,
      "velocity": 119,
      "chip": "ym2612"
    },
    {
      "channel": 0,
      "note": 81,
      "start": 14.199,
      "duration": 0.1489,
      "velocity": 97,
      "chip": "ym2612"
    },
    {
      "channel": 1,
      "note": 83,
      "start": 14.3042,
      "duration": 0.1489,
      "velocity": 97,
      "chip": "ym2612"
    },
    {
      "channel": 2,
      "note": 81,
      "start": 14.3047,
      "duration": 0.1489,
      "velocity": 97,
      "chip": "ym2612"
    },
    {
      "channel": 3,
      "note": 69,
      "start": 14.305,
      "duration": 0.3593,
      "velocity": 119,
      "chip": "ym2612"
    },
    {
      "channel": 4,
      "note": 45,
      "start": 14.3052,
      "duration": 1.2039,
      "velocity": 114,
      "chip": "ym2612"
    },
    {
      "channel": 0,
      "note": 81,
      "start": 14.3483,
      "duration": 0.2099,
      "velocity": 97,
      "chip": "ym2612"
    },
    {
      "channel": 1,
      "note": 83,
      "start": 14.4535,
      "duration": 0.2099,
      "velocity": 97,
      "chip": "ym2612"
    },
    {
      "channel": 2,
      "note": 81,
      "start": 14.4539,
      "duration": 0.2099,
      "velocity": 97,
      "chip": "ym2612"
    },
    {
      "channel": 0,
      "note": 83,
      "start": 14.5585,
      "duration": 0.1184,
      "velocity": 97,
      "chip": "ym2612"
    },
    {
      "channel": 1,
      "note": 83,
      "start": 14.6638,
      "duration": 0.0249,
      "velocity": 97,
      "chip": "ym2612"
    },
    {
      "channel": 2,
      "note": 81,
      "start": 14.6642,
      "duration": 0.025,
      "velocity": 97,
      "chip": "ym2612"
    },
    {
      "channel": 3,
      "note": 72,
      "start": 14.6645,
      "duration": 0.0251,
      "velocity": 119,
      "chip": "ym2612"
    },
    {
      "channel": 0,
      "note": 83,
      "start": 14.6773,
      "duration": 0.0574,
      "velocity": 97,
      "chip": "ym2612"
    },
    {
      "channel": 1,
      "note": 83,
      "start": 14.689,
      "duration": 0.1508,
      "velocity": 97,
      "chip": "ym2612"
    },
    {
      "channel": 2,
      "note": 83,
      "start": 14.6895,
      "duration": 0.1508,
      "velocity": 97,
      "chip": "ym2612"
    },
    {
      "channel": 3,
      "note": 74,
      "start": 14.6898,
      "duration": 0.2392,
      "velocity": 119,
      "chip": "ym2612"
    },
    {
      "channel": 0,
      "note": 83,
      "start": 14.735,
      "duration": 0.1181,
      "velocity": 97,
      "chip": "ym2612"
    },
    {
      "channel": 1,
      "note": 84,
      "start": 14.8402,
      "duration": 0.0879,
      "velocity": 97,
      "chip": "ym2612"
    },
    {
      "channel": 2,
      "note": 83,
      "start": 14.8406,
      "duration": 0.0879,
      "velocity": 97,
      "chip": "ym2612"
    },
    {
      "channel": 0,
      "note": 83,
      "start": 14.8534,
      "duration": 0.1797,
      "velocity": 97,
      "chip": "ym2612"
    },
    {
      "channel": 1,
      "note": 84,
      "start": 14.9284,
      "duration": 0.2099,
      "velocity": 97,
      "chip": "ym2612"
    },
    {
      "channel": 2,
      "note": 83,
      "start": 14.9288,
      "duration": 0.2099,
      "velocity": 97,
      "chip": "ym2612"
    },
    {
      "channel": 3,
      "note": 69,
      "start": 14.9291,
      "duration": 0.2101,
      "velocity": 119,
      "chip": "ym2612"
    },
    {
      "channel": 0,
      "note": 84,
      "start": 15.0334,
      "duration": 0.1591,
      "velocity": 97,
      "chip": "ym2612"
    },
    {
      "channel": 1,
      "note": 84,
      "start": 15.1386,
      "duration": 0.1591,
      "velocity": 97,
      "chip": "ym2612"
    },
    {
      "channel": 2,
      "note": 83,
      "start": 15.1391,
      "duration": 0.159,
      "velocity": 97,
      "chip": "ym2612"
    },
    {
      "channel": 3,
      "note": 74,
      "start": 15.1394,
      "duration": 0.3695,
      "velocity": 119,
      "chip": "ym2612"
    },
    {
      "channel": 0,
      "note": 84,
      "start": 15.1929,
      "duration": 0.2099,
      "velocity": 97,
      "chip": "ym2612"
    },
    {
      "channel": 1,
      "note": 84,
      "start": 15.298,
      "duration": 0.2099,
      "velocity": 97,
      "chip": "ym2612"
    },
    {
      "channel": 2,
      "note": 84,
      "start": 15.2985,
      "duration": 0.2099,
      "velocity": 97,
      "chip": "ym2612"
    },
    {
      "channel": 0,
      "note": 84,
      "start": 15.4031,
      "duration": 0.1489,
      "velocity": 97,
      "chip": "ym2612"
    },
    {
      "channel": 1,
      "note": 88,
      "start": 15.5083,
      "duration": 0.1489,
      "velocity": 97,
      "chip": "ym2612"
    },
    {
      "channel": 2,
      "note": 84,
      "start": 15.5087,
      "duration": 0.1489,
      "velocity": 97,
      "chip": "ym2612"
    },
    {
      "channel": 3,
      "note": 72,
      "start": 15.509,
      "duration": 0.3593,
      "velocity": 119,
      "chip": "ym2612"
    },
    {
      "channel": 4,
      "note": 45,
      "start": 15.5093,
      "duration": 0.7631,
      "velocity": 114,
      "chip": "ym2612"
    },
    {
      "channel": 0,
      "note": 84,
      "start": 15.5523,
      "duration": 0.21,
      "velocity": 97,
      "chip": "ym2612"
    },
    {
      "channel": 1,
      "note": 88,
      "start": 15.6575,
      "duration": 0.2099,
      "velocity": 97,
      "chip": "ym2612"
    },
    {
      "channel": 2,
      "note": 84,
      "start": 15.658,
      "duration": 0.2099,
      "velocity": 97,
      "chip": "ym2612"
    },
    {
      "channel": 0,
      "note": 88,
      "start": 15.7626,
      "duration": 0.1184,
      "velocity": 97,
      "chip": "ym2612"
    },
    {
      "channel": 1,
      "note": 88,
      "start": 15.8678,
      "duration": 0.0251,
      "velocity": 97,
      "chip": "ym2612"
    },
    {
      "channel": 2,
      "note": 84,
      "start": 15.8682,
      "duration": 0.0251,
      "velocity": 97,
      "chip": "ym2612"
    },
    {
      "channel": 3,
      "note": 69,
      "start": 15.8685,
      "duration": 0.0253,
      "velocity": 119,
      "chip": "ym2612"
    },
    {
      "channel": 0,
      "note": 88,
      "start": 15.8813,
      "duration": 0.0574,
      "velocity": 97,
      "chip": "ym2612"
    },
    {
      "channel": 1,
      "note": 88,
      "start": 15.8933,
      "duration": 0.1506,
      "velocity": 97,
      "chip": "ym2612"
    },
    {
      "channel": 2,
      "note": 88,
      "start": 15.8937,
      "duration": 0.1506,
      "velocity": 97,
      "chip": "ym2612"
    },
    {
      "channel": 3,
      "note": 72,
      "start": 15.894,
      "duration": 0.177,
      "velocity": 119,
      "chip": "ym2612"
    },
    {
      "channel": 0,
      "note": 88,
      "start": 15.939,
      "duration": 0.119,
      "velocity": 97,
      "chip": "ym2612"
    },
    {
      "channel": 1,
      "note": 93,
      "start": 16.0442,
      "duration": 0.0259,
      "velocity": 97,
      "chip": "ym2612"
    },
    {
      "channel": 2,
      "note": 88,
      "start": 16.0447,
      "duration": 0.0259,
      "velocity": 97,
      "chip": "ym2612"
    },
    {
      "channel": 0,
      "note": 88,
      "start": 16.0584,
      "duration": 0.1076,
      "velocity": 97,
      "chip": "ym2612"
    },
    {
      "channel": 1,
      "note": 93,
      "start": 16.0705,
      "duration": 0.2007,
      "velocity": 97,
      "chip": "ym2612"
    },
    {
      "channel": 2,
      "note": 88,
      "start": 16.0709,
      "duration": 0.2007,
      "velocity": 97,
      "chip": "ym2612"
    },
    {
      "channel": 3,
      "note": 76,
      "start": 16.0712,
      "duration": 0.2009,
      "velocity": 119,
      "chip": "ym2612"
    },
    {
      "channel": 0,
      "note": 93,
      "start": 16.1663,
      "duration": 0.149,
      "velocity": 97,
      "chip": "ym2612"
    },
    {
      "channel": 1,
      "note": 93,
      "start": 16.2715,
      "duration": 0.1489,
      "velocity": 97,
      "chip": "ym2612"
    },
    {
      "channel": 2,
      "note": 88,
      "start": 16.272,
      "duration": 0.1489,
      "velocity": 97,
      "chip": "ym2612"
    },
    {
      "channel": 3,
      "note": 69,
      "start": 16.2722,
      "duration": 0.2983,
      "velocity": 119,
      "chip": "ym2612"
    },
    {
      "channel": 4,
      "note": 45,
      "start": 16.2725,
      "duration": 0.2983,
      "velocity": 114,
      "chip": "ym2612"
    },
    {
      "channel": 0,
      "note": 93,
      "start": 16.3156,
      "duration": 0.1489,
      "velocity": 97,
      "chip": "ym2612"
    },
    {
      "channel": 1,
      "note": 93,
      "start": 16.4208,
      "duration": 0.1489,
      "velocity": 97,
      "chip": "ym2612"
    },
    {
      "channel": 2,
      "note": 93,
      "start": 16.4212,
      "duration": 0.1489,
      "velocity": 97,
      "chip": "ym2612"
    },
    {
      "channel": 0,
      "note": 93,
      "start": 16.4648,
      "duration": 0.1489,
      "velocity": 97,
      "chip": "ym2612"
    },
    {
      "channel": 1,
      "note": 91,
      "start": 16.57,
      "duration": 0.1489,
      "velocity": 97,
      "chip": "ym2612"
    },
    {
      "channel": 2,
      "note": 93,
      "start": 16.5705,
      "duration": 0.1489,
      "velocity": 97,
      "chip": "ym2612"
    },
    {
      "channel": 3,
      "note": 72,
      "start": 16.5707,
      "duration": 0.3593,
      "velocity": 119,
      "chip": "ym2612"
    },
    {
      "channel": 4,
      "note": 41,
      "start": 16.571,
      "duration": 0.5356,
      "velocity": 114,
      "chip": "ym2612"
    },
    {
      "channel": 0,
      "note": 93,
      "start": 16.614,
      "duration": 0.2099,
      "velocity": 97,
      "chip": "ym2612"
    },
    {
      "channel": 1,
      "note": 91,
      "start": 16.7193,
      "duration": 0.2099,
      "velocity": 97,
      "chip": "ym2612"
    },
    {
      "channel": 2,
      "note": 93,
      "start": 16.7197,
      "duration": 0.2099,
      "velocity": 97,
      "chip": "ym2612"
    },
    {
      "channel": 0,
      "note": 91,
      "start": 16.8243,
      "duration": 0.1183,
      "velocity": 97,
      "chip": "ym2612"
    },
    {
      "channel": 1,
      "note": 89,
      "start": 16.9295,
      "duration": 0.0249,
      "velocity": 97,
      "chip": "ym2612"
    },
    {
      "channel": 2,
      "note": 93,
      "start": 16.9299,
      "duration": 0.0249,
      "velocity": 97,
      "chip": "ym2612"
    },
    {
      "channel": 3,
      "note": 69,
      "start": 16.9302,
      "duration": 0.0251,
      "velocity": 119,
      "chip": "ym2612"
    },
    {
      "channel": 0,
      "note": 91,
      "start": 16.943,
      "duration": 0.0574,
      "velocity": 97,
      "chip": "ym2612"
    },
    {
      "channel": 1,
      "note": 89,
      "start": 16.9547,
      "duration": 0.1508,
      "velocity": 97,
      "chip": "ym2612"
    },
    {
      "channel": 2,
      "note": 91,
      "start": 16.9552,
      "duration": 0.1508,
      "velocity": 97,
      "chip": "ym2612"
    },
    {
      "channel": 3,
      "note": 72,
      "start": 16.9555,
      "duration": 0.1773,
      "velocity": 119,
      "chip": "ym2612"
    },
    {
      "channel": 0,
      "note": 89,
      "start": 17.0007,
      "duration": 0.1192,
      "velocity": 97,
      "chip": "ym2612"
    },
    {
      "channel": 1,
      "note": 88,
      "start": 17.1059,
      "duration": 0.0259,
      "velocity": 97,
      "chip": "ym2612"
    },
    {
      "channel": 2,
      "note": 91,
      "start": 17.1063,
      "duration": 0.0259,
      "velocity": 97,
      "chip": "ym2612"
    },
    {
      "channel": 4,
      "note": 40,
      "start": 17.1067,
      "duration": 0.5169,
      "velocity": 114,
      "chip": "ym2612"
    },
    {
      "channel": 0,
      "note": 89,
      "start": 17.1202,
      "duration": 0.024,
      "velocity": 97,
      "chip": "ym2612"
    },
    {
      "channel": 1,
      "note": 88,
      "start": 17.1322,
      "duration": 0.0683,
      "velocity": 97,
      "chip": "ym2612"
    },
    {
      "channel": 2,
      "note": 89,
      "start": 17.1326,
      "duration": 0.0683,
      "velocity": 97,
      "chip": "ym2612"
    },
    {
      "channel": 3,
      "note": 76,
      "start": 17.1329,
      "duration": 0.0685,
      "velocity": 119,
      "chip": "ym2612"
    },
    {
      "channel": 0,
      "note": 88,
      "start": 17.1446,
      "duration": 0.161,
      "velocity": 97,
      "chip": "ym2612"
    },
    {
      "channel": 1,
      "note": 88,
      "start": 17.2009,
      "duration": 0.2099,
      "velocity": 97,
      "chip": "ym2612"
    },
    {
      "channel": 2,
      "note": 89,
      "start": 17.2013,
      "duration": 0.2099,
      "velocity": 97,
      "chip": "ym2612"
    },
    {
      "channel": 3,
      "note": 69,
      "start": 17.2016,
      "duration": 0.4205,
      "velocity": 119,
      "chip": "ym2612"
    },
    {
      "channel": 0,
      "note": 88,
      "start": 17.3059,
      "duration": 0.2099,
      "velocity": 97,
      "chip": "ym2612"
    },
    {
      "channel": 1,
      "note": 88,
      "start": 17.4111,
      "duration": 0.2101,
      "velocity": 97,
      "chip": "ym2612"
    },
    {
      "channel": 2,
      "note": 76,
      "start": 17.4116,
      "duration": 0.2101,
      "velocity": 97,
      "chip": "ym2612"
    },
    {
      "channel": 0,
      "note": 76,
      "start": 17.5162,
      "duration": 0.1489,
      "velocity": 97,
      "chip": "ym2612"
    },
    {
      "channel": 1,
      "note": 81,
      "start": 17.6215,
      "duration": 0.1487,
      "velocity": 97,
      "chip": "ym2612"
    },
    {
      "channel": 2,
      "note": 88,
      "start": 17.622,
      "duration": 0.1488,
      "velocity": 97,
      "chip": "ym2612"
    },
    {
      "channel": 3,
      "note": 69,
      "start": 17.6234,
      "duration": 0.358,
      "velocity": 119,
      "chip": "ym2612"
    },
    {
      "channel": 4,
      "note": 45,
      "start": 17.6237,
      "duration": 0.7617,
      "velocity": 114,
      "chip": "ym2612"
    },
    {
      "channel": 0,
      "note": 88,
      "start": 17.6654,
      "duration": 0.2099,
      "velocity": 97,
      "chip": "ym2612"
    },
    {
      "channel": 1,
      "note": 81,
      "start": 17.7706,
      "duration": 0.2099,
      "velocity": 97,
      "chip": "ym2612"
    },
    {
      "channel": 2,
      "note": 88,
      "start": 17.7711,
      "duration": 0.2099,
      "velocity": 97,
      "chip": "ym2612"
    },
    {
      "channel": 0,
      "note": 81,
      "start": 17.8757,
      "duration": 0.1184,
      "velocity": 97,
      "chip": "ym2612"
    },
    {
      "channel": 1,
      "note": 81,
      "start": 17.9809,
      "duration": 0.0251,
      "velocity": 97,
      "chip": "ym2612"
    },
    {
      "channel": 2,
      "note": 88,
      "start": 17.9813,
      "duration": 0.0251,
      "velocity": 97,
      "chip": "ym2612"
    },
    {
      "channel": 3,
      "note": 72,
      "start": 17.9816,
      "duration": 0.0253,
      "velocity": 119,
      "chip": "ym2612"
    },
    {
      "channel": 0,
      "note": 81,
      "start": 17.9944,
      "duration": 0.0574,
      "velocity": 97,
      "chip": "ym2612"
    },
    {
      "channel": 1,
      "note": 81,
      "start": 18.0063,
      "duration": 0.1506,
      "velocity": 97,
      "chip": "ym2612"
    },
    {
      "channel": 2,
      "note": 81,
      "start": 18.0068,
      "duration": 0.1506,
      "velocity": 97,
      "chip": "ym2612"
    },
    {
      "channel": 3,
      "note": 74,
      "start": 18.0071,
      "duration": 0.177,
      "velocity": 119,
      "chip": "ym2612"
    },
    {
      "channel": 0,
      "note": 81,
      "start": 18.0521,
      "duration": 0.119,
      "velocity": 97,
      "chip": "ym2612"
    },
    {
      "channel": 1,
      "note": 81,
      "start": 18.1573,
      "duration": 0.0259,
      "velocity": 97,
      "chip": "ym2612"
    },
    {
      "channel": 2,
      "note": 81,
      "start": 18.1578,
      "duration": 0.0259,
      "velocity": 97,
      "chip": "ym2612"
    },
    {
      "channel": 0,
      "note": 81,
      "start": 18.1715,
      "duration": 0.1076,
      "velocity": 97,
      "chip": "ym2612"
    },
    {
      "channel": 1,
      "note": 81,
      "start": 18.1835,
      "duration": 0.2007,
      "velocity": 97,
      "chip": "ym2612"
    },
    {
      "channel": 2,
      "note": 81,
      "start": 18.1839,
      "duration": 0.2007,
      "velocity": 97,
      "chip": "ym2612"
    },
    {
      "channel": 3,
      "note": 72,
      "start": 18.1842,
      "duration": 0.2009,
      "velocity": 119,
      "chip": "ym2612"
    },
    {
      "channel": 0,
      "note": 81,
      "start": 18.2793,
      "duration": 0.1489,
      "velocity": 97,
      "chip": "ym2612"
    },
    {
      "channel": 1,
      "note": 81,
      "start": 18.3845,
      "duration": 0.1489,
      "velocity": 97,
      "chip": "ym2612"
    },
    {
      "channel": 2,
      "note": 81,
      "start": 18.385,
      "duration": 0.1489,
      "velocity": 97,
      "chip": "ym2612"
    },
    {
      "channel": 3,
      "note": 74,
      "start": 18.3853,
      "duration": 0.1491,
      "velocity": 119,
      "chip": "ym2612"
    },
    {
      "channel": 4,
      "note": 45,
      "start": 18.3855,
      "duration": 0.2984,
      "velocity": 114,
      "chip": "ym2612"
    },
    {
      "channel": 0,
      "note": 81,
      "start": 18.4286,
      "duration": 0.1489,
      "velocity": 97,
      "chip": "ym2612"
    },
    {
      "channel": 1,
      "note": 81,
      "start": 18.5338,
      "duration": 0.1489,
      "velocity": 97,
      "chip": "ym2612"
    },
    {
      "channel": 2,
      "note": 81,
      "start": 18.5342,
      "duration": 0.1489,
      "velocity": 97,
      "chip": "ym2612"
    },
    {
      "channel": 3,
      "note": 72,
      "start": 18.5345,
      "duration": 0.1491,
      "velocity": 119,
      "chip": "ym2612"
    },
    {
      "channel": 0,
      "note": 81,
      "start": 18.5779,
      "duration": 0.1489,
      "velocity": 97,
      "chip": "ym2612"
    },
    {
      "channel": 1,
      "note": 83,
      "start": 18.6831,
      "duration": 0.1489,
      "velocity": 97,
      "chip": "ym2612"
    },
    {
      "channel": 2,
      "note": 81,
      "start": 18.6835,
      "duration": 0.1489,
      "velocity": 97,
      "chip": "ym2612"
    },
    {
      "channel": 3,
      "note": 69,
      "start": 18.6838,
      "duration": 0.3593,
      "velocity": 119,
      "chip": "ym2612"
    },
    {
      "channel": 4,
      "note": 45,
      "start": 18.6841,
      "duration": 1.204,
      "velocity": 114,
      "chip": "ym2612"
    },
    {
      "channel": 0,
      "note": 81,
      "start": 18.7271,
      "duration": 0.2099,
      "velocity": 97,
      "chip": "ym2612"
    },
    {
      "channel": 1,
      "note": 83,
      "start": 18.8323,
      "duration": 0.2099,
      "velocity": 97,
      "chip": "ym2612"
    },
    {
      "channel": 2,
      "note": 81,
      "start": 18.8327,
      "duration": 0.2099,
      "velocity": 97,
      "chip": "ym2612"
    },
    {
      "channel": 0,
      "note": 83,
      "start": 18.9373,
      "duration": 0.1184,
      "velocity": 97,
      "chip": "ym2612"
    },
    {
      "channel": 1,
      "note": 83,
      "start": 19.0425,
      "duration": 0.0249,
      "velocity": 97,
      "chip": "ym2612"
    },
    {
      "channel": 2,
      "note": 81,
      "start": 19.043,
      "duration": 0.0249,
      "velocity": 97,
      "chip": "ym2612"
    },
    {
      "channel": 3,
      "note": 72,
      "start": 19.0433,
      "duration": 0.0251,
      "velocity": 119,
      "chip": "ym2612"
    },
    {
      "channel": 0,
      "note": 83,
      "start": 19.056,
      "duration": 0.0574,
      "velocity": 97,
      "chip": "ym2612"
    },
    {
      "channel": 1,
      "note": 83,
      "start": 19.0678,
      "duration": 0.1508,
      "velocity": 97,
      "chip": "ym2612"
    },
    {
      "channel": 2,
      "note": 83,
      "start": 19.0683,
      "duration": 0.1508,
      "velocity": 97,
      "chip": "ym2612"
    },
    {
      "channel": 3,
      "note": 74,
      "start": 19.0685,
      "duration": 0.2392,
      "velocity": 119,
      "chip": "ym2612"
    },
    {
      "channel": 0,
      "note": 83,
      "start": 19.1137,
      "duration": 0.1181,
      "velocity": 97,
      "chip": "ym2612"
    },
    {
      "channel": 1,
      "note": 84,
      "start": 19.2189,
      "duration": 0.0879,
      "velocity": 97,
      "chip": "ym2612"
    },
    {
      "channel": 2,
      "note": 83,
      "start": 19.2194,
      "duration": 0.0879,
      "velocity": 97,
      "chip": "ym2612"
    },
    {
      "channel": 0,
      "note": 83,
      "start": 19.2322,
      "duration": 0.1796,
      "velocity": 97,
      "chip": "ym2612"
    },
    {
      "channel": 1,
      "note": 84,
      "start": 19.3071,
      "duration": 0.2099,
      "velocity": 97,
      "chip": "ym2612"
    },
    {
      "channel": 2,
      "note": 83,
      "start": 19.3076,
      "duration": 0.2099,
      "velocity": 97,
      "chip": "ym2612"
    },
    {
      "channel": 3,
      "note": 69,
      "start": 19.3079,
      "duration": 0.2101,
      "velocity": 119,
      "chip": "ym2612"
    },
    {
      "channel": 0,
      "note": 84,
      "start": 19.4122,
      "duration": 0.1591,
      "velocity": 97,
      "chip": "ym2612"
    },
    {
      "channel": 1,
      "note": 84,
      "start": 19.5174,
      "duration": 0.159,
      "velocity": 97,
      "chip": "ym2612"
    },
    {
      "channel": 2,
      "note": 83,
      "start": 19.5179,
      "duration": 0.159,
      "velocity": 97,
      "chip": "ym2612"
    },
    {
      "channel": 3,
      "note": 74,
      "start": 19.5181,
      "duration": 0.3696,
      "velocity": 119,
      "chip": "ym2612"
    },
    {
      "channel": 0,
      "note": 84,
      "start": 19.5716,
      "duration": 0.2099,
      "velocity": 97,
      "chip": "ym2612"
    },
    {
      "channel": 1,
      "note": 84,
      "start": 19.6768,
      "duration": 0.2101,
      "velocity": 97,
      "chip": "ym2612"
    },
    {
      "channel": 2,
      "note": 84,
      "start": 19.6772,
      "duration": 0.2101,
      "velocity": 97,
      "chip": "ym2612"
    },
    {
      "channel": 0,
      "note": 84,
      "start": 19.7818,
      "duration": 0.1489,
      "velocity": 97,
      "chip": "ym2612"
    },
    {
      "channel": 1,
      "note": 81,
      "start": 19.8872,
      "duration": 0.1487,
      "velocity": 97,
      "chip": "ym2612"
    },
    {
      "channel": 2,
      "note": 84,
      "start": 19.8877,
      "duration": 0.1487,
      "velocity": 97,
      "chip": "ym2612"
    },
    {
      "channel": 3,
      "note": 72,
      "start": 19.8879,
      "duration": 0.3592,
      "velocity": 119,
      "chip": "ym2612"
    },
    {
      "channel": 4,
      "note": 45,
      "start": 19.8882,
      "duration": 0.7627,
      "velocity": 114,
      "chip": "ym2612"
    },
    {
      "channel": 0,
      "note": 84,
      "start": 19.9311,
      "duration": 0.2099,
      "velocity": 97,
      "chip": "ym2612"
    },
    {
      "channel": 1,
      "note": 81,
      "start": 20.0363,
      "duration": 0.2099,
      "velocity": 97,
      "chip": "ym2612"
    },
    {
      "channel": 2,
      "note": 84,
      "start": 20.0367,
      "duration": 0.2099,
      "velocity": 97,
      "chip": "ym2612"
    },
    {
      "channel": 0,
      "note": 81,
      "start": 20.1413,
      "duration": 0.1183,
      "velocity": 97,
      "chip": "ym2612"
    },
    {
      "channel": 1,
      "note": 81,
      "start": 20.2465,
      "duration": 0.025,
      "velocity": 97,
      "chip": "ym2612"
    },
    {
      "channel": 2,
      "note": 84,
      "start": 20.247,
      "duration": 0.025,
      "velocity": 97,
      "chip": "ym2612"
    },
    {
      "channel": 3,
      "note": 69,
      "start": 20.2473,
      "duration": 0.0252,
      "velocity": 119,
      "chip": "ym2612"
    },
    {
      "channel": 0,
      "note": 81,
      "start": 20.26,
      "duration": 0.0573,
      "velocity": 97,
      "chip": "ym2612"
    },
    {
      "channel": 1,
      "note": 81,
      "start": 20.2719,
      "duration": 0.1507,
      "velocity": 97,
      "chip": "ym2612"
    },
    {
      "channel": 2,
      "note": 81,
      "start": 20.2723,
      "duration": 0.1507,
      "velocity": 97,
      "chip": "ym2612"
    },
    {
      "channel": 3,
      "note": 72,
      "start": 20.2726,
      "duration": 0.1771,
      "velocity": 119,
      "chip": "ym2612"
    },
    {
      "channel": 0,
      "note": 81,
      "start": 20.3177,
      "duration": 0.119,
      "velocity": 97,
      "chip": "ym2612"
    },
    {
      "channel": 1,
      "note": 81,
      "start": 20.4229,
      "duration": 0.0259,
      "velocity": 97,
      "chip": "ym2612"
    },
    {
      "channel": 2,
      "note": 81,
      "start": 20.4233,
      "duration": 0.0259,
      "velocity": 97,
      "chip": "ym2612"
    },
    {
      "channel": 0,
      "note": 81,
      "start": 20.437,
      "duration": 0.1076,
      "velocity": 97,
      "chip": "ym2612"
    },
    {
      "channel": 1,
      "note": 81,
      "start": 20.4491,
      "duration": 0.2007,
      "velocity": 97,
      "chip": "ym2612"
    },
    {
      "channel": 2,
      "note": 81,
      "start": 20.4495,
      "duration": 0.2007,
      "velocity": 97,
      "chip": "ym2612"
    },
    {
      "channel": 3,
      "note": 76,
      "start": 20.4498,
      "duration": 0.2008,
      "velocity": 119,
      "chip": "ym2612"
    },
    {
      "channel": 0,
      "note": 81,
      "start": 20.5449,
      "duration": 0.1489,
      "velocity": 97,
      "chip": "ym2612"
    },
    {
      "channel": 1,
      "note": 81,
      "start": 20.6501,
      "duration": 0.1489,
      "velocity": 97,
      "chip": "ym2612"
    },
    {
      "channel": 2,
      "note": 81,
      "start": 20.6505,
      "duration": 0.1489,
      "velocity": 97,
      "chip": "ym2612"
    },
    {
      "channel": 3,
      "note": 69,
      "start": 20.6508,
      "duration": 0.2983,
      "velocity": 119,
      "chip": "ym2612"
    },
    {
      "channel": 4,
      "note": 45,
      "start": 20.6511,
      "duration": 0.2983,
      "velocity": 114,
      "chip": "ym2612"
    },
    {
      "channel": 0,
      "note": 81,
      "start": 20.6941,
      "duration": 0.149,
      "velocity": 97,
      "chip": "ym2612"
    },
    {
      "channel": 1,
      "note": 81,
      "start": 20.7993,
      "duration": 0.1489,
      "velocity": 97,
      "chip": "ym2612"
    },
    {
      "channel": 2,
      "note": 81,
      "start": 20.7998,
      "duration": 0.1489,
      "velocity": 97,
      "chip": "ym2612"
    },
    {
      "channel": 0,
      "note": 81,
      "start": 20.8434,
      "duration": 0.1489,
      "velocity": 97,
      "chip": "ym2612"
    },
    {
      "channel": 1,
      "note": 79,
      "start": 20.9486,
      "duration": 0.1489,
      "velocity": 97,
      "chip": "ym2612"
    },
    {
      "channel": 2,
      "note": 81,
      "start": 20.949,
      "duration": 0.1489,
      "velocity": 97,
      "chip": "ym2612"
    },
    {
      "channel": 3,
      "note": 72,
      "start": 20.9493,
      "duration": 0.3594,
      "velocity": 119,
      "chip": "ym2612"
    },
    {
      "channel": 4,
      "note": 41,
      "start": 20.9496,
      "duration": 0.5356,
      "velocity": 114,
      "chip": "ym2612"
    },
    {
      "channel": 0,
      "note": 81,
      "start": 20.9927,
      "duration": 0.2099,
      "velocity": 97,
      "chip": "ym2612"
    },
    {
      "channel": 1,
      "note": 79,
      "start": 21.0979,
      "duration": 0.2099,
      "velocity": 97,
      "chip": "ym2612"
    },
    {
      "channel": 2,
      "note": 81,
      "start": 21.0983,
      "duration": 0.2099,
      "velocity": 97,
      "chip": "ym2612"
    },
    {
      "channel": 0,
      "note": 79,
      "start": 21.2029,
      "duration": 0.1184,
      "velocity": 97,
      "chip": "ym2612"
    },
    {
      "channel": 1,
      "note": 77,
      "start": 21.3081,
      "duration": 0.025,
      "velocity": 97,
      "chip": "ym2612"
    },
    {
      "channel": 2,
      "note": 81,
      "start": 21.3086,
      "duration": 0.025,
      "velocity": 97,
      "chip": "ym2612"
    },
    {
      "channel": 3,
      "note": 69,
      "start": 21.3089,
      "duration": 0.0251,
      "velocity": 119,
      "chip": "ym2612"
    },
    {
      "channel": 0,
      "note": 79,
      "start": 21.3217,
      "duration": 0.0573,
      "velocity": 97,
      "chip": "ym2612"
    },
    {
      "channel": 1,
      "note": 77,
      "start": 21.3334,
      "duration": 0.1507,
      "velocity": 97,
      "chip": "ym2612"
    },
    {
      "channel": 2,
      "note": 79,
      "start": 21.3339,
      "duration": 0.1507,
      "velocity": 97,
      "chip": "ym2612"
    },
    {
      "channel": 3,
      "note": 72,
      "start": 21.3342,
      "duration": 0.1773,
      "velocity": 119,
      "chip": "ym2612"
    },
    {
      "channel": 0,
      "note": 77,
      "start": 21.3793,
      "duration": 0.1192,
      "velocity": 97,
      "chip": "ym2612"
    },
    {
      "channel": 1,
      "note": 76,
      "start": 21.4845,
      "duration": 0.026,
      "velocity": 97,
      "chip": "ym2612"
    },
    {
      "channel": 2,
      "note": 79,
      "start": 21.485,
      "duration": 0.026,
      "velocity": 97,
      "chip": "ym2612"
    },
    {
      "channel": 4,
      "note": 40,
      "start": 21.4853,
      "duration": 0.517,
      "velocity": 114,
      "chip": "ym2612"
    },
    {
      "channel": 0,
      "note": 77,
      "start": 21.4988,
      "duration": 0.0242,
      "velocity": 97,
      "chip": "ym2612"
    },
    {
      "channel": 1,
      "note": 76,
      "start": 21.5109,
      "duration": 0.0684,
      "velocity": 97,
      "chip": "ym2612"
    },
    {
      "channel": 2,
      "note": 77,
      "start": 21.5113,
      "duration": 0.0684,
      "velocity": 97,
      "chip": "ym2612"
    },
    {
      "channel": 3,
      "note": 76,
      "start": 21.5116,
      "duration": 0.0686,
      "velocity": 119,
      "chip": "ym2612"
    },
    {
      "channel": 0,
      "note": 76,
      "start": 21.5234,
      "duration": 0.161,
      "velocity": 97,
      "chip": "ym2612"
    },
    {
      "channel": 1,
      "note": 76,
      "start": 21.5796,
      "duration": 0.2099,
      "velocity": 97,
      "chip": "ym2612"
    },
    {
      "channel": 2,
      "note": 77,
      "start": 21.5801,
      "duration": 0.2099,
      "velocity": 97,
      "chip": "ym2612"
    },
    {
      "channel": 3,
      "note": 69,
      "start": 21.5804,
      "duration": 0.4205,
      "velocity": 119,
      "chip": "ym2612"
    },
    {
      "channel": 0,
      "note": 76,
      "start": 21.6847,
      "duration": 0.2099,
      "velocity": 97,
      "chip": "ym2612"
    },
    {
      "channel": 1,
      "note": 76,
      "start": 21.7899,
      "duration": 0.2101,
      "velocity": 97,
      "chip": "ym2612"
    },
    {
      "channel": 2,
      "note": 76,
      "start": 21.7903,
      "duration": 0.2101,
      "velocity": 97,
      "chip": "ym2612"
    },
    {
      "channel": 0,
      "note": 76,
      "start": 21.8949,
      "duration": 0.1489,
      "velocity": 97,
      "chip": "ym2612"
    },
    {
      "channel": 1,
      "note": 81,
      "start": 22.0003,
      "duration": 0.1488,
      "velocity": 97,
      "chip": "ym2612"
    },
    {
      "channel": 2,
      "note": 76,
      "start": 22.0007,
      "duration": 0.1487,
      "velocity": 97,
      "chip": "ym2612"
    },
    {
      "channel": 3,
      "note": 69,
      "start": 22.0022,
      "duration": 0.358,
      "velocity": 119,
      "chip": "ym2612"
    },
    {
      "channel": 4,
      "note": 45,
      "start": 22.0025,
      "duration": 0.7618,
      "velocity": 114,
      "chip": "ym2612"
    },
    {
      "channel": 0,
      "note": 76,
      "start": 22.0442,
      "duration": 0.2099,
      "velocity": 97,
      "chip": "ym2612"
    },
    {
      "channel": 1,
      "note": 81,
      "start": 22.1494,
      "duration": 0.2099,
      "velocity": 97,
      "chip": "ym2612"
    },
    {
      "channel": 2,
      "note": 76,
      "start": 22.1498,
      "duration": 0.2099,
      "velocity": 97,
      "chip": "ym2612"
    },
    {
      "channel": 0,
      "note": 81,
      "start": 22.2544,
      "duration": 0.1184,
      "velocity": 97,
      "chip": "ym2612"
    },
    {
      "channel": 1,
      "note": 81,
      "start": 22.3597,
      "duration": 0.0251,
      "velocity": 97,
      "chip": "ym2612"
    },
    {
      "channel": 2,
      "note": 76,
      "start": 22.3601,
      "duration": 0.025,
      "velocity": 97,
      "chip": "ym2612"
    },
    {
      "channel": 3,
      "note": 72,
      "start": 22.3604,
      "duration": 0.0252,
      "velocity": 119,
      "chip": "ym2612"
    },
    {
      "channel": 0,
      "note": 81,
      "start": 22.3732,
      "duration": 0.0574,
      "velocity": 97,
      "chip": "ym2612"
    },
    {
      "channel": 1,
      "note": 81,
      "start": 22.3851,
      "duration": 0.1507,
      "velocity": 97,
      "chip": "ym2612"
    },
    {
      "channel": 2,
      "note": 81,
      "start": 22.3855,
      "duration": 0.1507,
      "velocity": 97,
      "chip": "ym2612"
    },
    {
      "channel": 3,
      "note": 74,
      "start": 22.3858,
      "duration": 0.1772,
      "velocity": 119,
      "chip": "ym2612"
    },
    {
      "channel": 0,
      "note": 81,
      "start": 22.4309,
      "duration": 0.1189,
      "velocity": 97,
      "chip": "ym2612"
    },
    {
      "channel": 1,
      "note": 81,
      "start": 22.5361,
      "duration": 0.026,
      "velocity": 97,
      "chip": "ym2612"
    },
    {
      "channel": 2,
      "note": 81,
      "start": 22.5365,
      "duration": 0.026,
      "velocity": 97,
      "chip": "ym2612"
    },
    {
      "channel": 0,
      "note": 81,
      "start": 22.5502,
      "duration": 0.1077,
      "velocity": 97,
      "chip": "ym2612"
    },
    {
      "channel": 1,
      "note": 81,
      "start": 22.5624,
      "duration": 0.2007,
      "velocity": 97,
      "chip": "ym2612"
    },
    {
      "channel": 2,
      "note": 81,
      "start": 22.5628,
      "duration": 0.2007,
      "velocity": 97,
      "chip": "ym2612"
    },
    {
      "channel": 3,
      "note": 72,
      "start": 22.5631,
      "duration": 0.2009,
      "velocity": 119,
      "chip": "ym2612"
    },
    {
      "channel": 0,
      "note": 81,
      "start": 22.6582,
      "duration": 0.1489,
      "velocity": 97,
      "chip": "ym2612"
    },
    {
      "channel": 1,
      "note": 81,
      "start": 22.7634,
      "duration": 0.1489,
      "velocity": 97,
      "chip": "ym2612"
    },
    {
      "channel": 2,
      "note": 81,
      "start": 22.7639,
      "duration": 0.1489,
      "velocity": 97,
      "chip": "ym2612"
    },
    {
      "channel": 3,
      "note": 74,
      "start": 22.7641,
      "duration": 0.149,
      "velocity": 119,
      "chip": "ym2612"
    },
    {
      "channel": 4,
      "note": 45,
      "start": 22.7644,
      "duration": 0.2983,
      "velocity": 114,
      "chip": "ym2612"
    },
    {
      "channel": 0,
      "note": 81,
      "start": 22.8074,
      "duration": 0.1489,
      "velocity": 97,
      "chip": "ym2612"
    },
    {
      "channel": 1,
      "note": 81,
      "start": 22.9126,
      "duration": 0.1489,
      "velocity": 97,
      "chip": "ym2612"
    },
    {
      "channel": 2,
      "note": 81,
      "start": 22.9131,
      "duration": 0.1489,
      "velocity": 97,
      "chip": "ym2612"
    },
    {
      "channel": 3,
      "note": 72,
      "start": 22.9134,
      "duration": 0.149,
      "velocity": 119,
      "chip": "ym2612"
    },
    {
      "channel": 0,
      "note": 81,
      "start": 22.9567,
      "duration": 0.1489,
      "velocity": 97,
      "chip": "ym2612"
    },
    {
      "channel": 1,
      "note": 83,
      "start": 23.0618,
      "duration": 0.1489,
      "velocity": 97,
      "chip": "ym2612"
    },
    {
      "channel": 2,
      "note": 81,
      "start": 23.0623,
      "duration": 0.1489,
      "velocity": 97,
      "chip": "ym2612"
    },
    {
      "channel": 3,
      "note": 69,
      "start": 23.0626,
      "duration": 0.3593,
      "velocity": 119,
      "chip": "ym2612"
    },
    {
      "channel": 4,
      "note": 45,
      "start": 23.0628,
      "duration": 1.2041,
      "velocity": 114,
      "chip": "ym2612"
    },
    {
      "channel": 0,
      "note": 81,
      "start": 23.1059,
      "duration": 0.2099,
      "velocity": 97,
      "chip": "ym2612"
    },
    {
      "channel": 1,
      "note": 83,
      "start": 23.2111,
      "duration": 0.2099,
      "velocity": 97,
      "chip": "ym2612"
    },
    {
      "channel": 2,
      "note": 81,
      "start": 23.2116,
      "duration": 0.2099,
      "velocity": 97,
      "chip": "ym2612"
    },
    {
      "channel": 0,
      "note": 83,
      "start": 23.3162,
      "duration": 0.1184,
      "velocity": 97,
      "chip": "ym2612"
    },
    {
      "channel": 1,
      "note": 83,
      "start": 23.4214,
      "duration": 0.025,
      "velocity": 97,
      "chip": "ym2612"
    },
    {
      "channel": 2,
      "note": 81,
      "start": 23.4218,
      "duration": 0.025,
      "velocity": 97,
      "chip": "ym2612"
    },
    {
      "channel": 3,
      "note": 72,
      "start": 23.4221,
      "duration": 0.0251,
      "velocity": 119,
      "chip": "ym2612"
    },
    {
      "channel": 0,
      "note": 83,
      "start": 23.4349,
      "duration": 0.0574,
      "velocity": 97,
      "chip": "ym2612"
    },
    {
      "channel": 1,
      "note": 83,
      "start": 23.4467,
      "duration": 0.1508,
      "velocity": 97,
      "chip": "ym2612"
    },
    {
      "channel": 2,
      "note": 83,
      "start": 23.4471,
      "duration": 0.1508,
      "velocity": 97,
      "chip": "ym2612"
    },
    {
      "channel": 3,
      "note": 74,
      "start": 23.4474,
      "duration": 0.2392,
      "velocity": 119,
      "chip": "ym2612"
    },
    {
      "channel": 0,
      "note": 83,
      "start": 23.4927,
      "duration": 0.1181,
      "velocity": 97,
      "chip": "ym2612"
    },
    {
      "channel": 1,
      "note": 84,
      "start": 23.5978,
      "duration": 0.0879,
      "velocity": 97,
      "chip": "ym2612"
    },
    {
      "channel": 2,
      "note": 83,
      "start": 23.5983,
      "duration": 0.0878,
      "velocity": 97,
      "chip": "ym2612"
    },
    {
      "channel": 0,
      "note": 83,
      "start": 23.6111,
      "duration": 0.1796,
      "velocity": 97,
      "chip": "ym2612"
    },
    {
      "channel": 1,
      "note": 84,
      "start": 23.686,
      "duration": 0.2099,
      "velocity": 97,
      "chip": "ym2612"
    },
    {
      "channel": 2,
      "note": 83,
      "start": 23.6865,
      "duration": 0.2099,
      "velocity": 97,
      "chip": "ym2612"
    },
    {
      "channel": 3,
      "note": 69,
      "start": 23.6868,
      "duration": 0.2101,
      "velocity": 119,
      "chip": "ym2612"
    },
    {
      "channel": 0,
      "note": 84,
      "start": 23.7911,
      "duration": 0.1591,
      "velocity": 97,
      "chip": "ym2612"
    },
    {
      "channel": 1,
      "note": 84,
      "start": 23.8963,
      "duration": 0.1591,
      "velocity": 97,
      "chip": "ym2612"
    },
    {
      "channel": 2,
      "note": 83,
      "start": 23.8967,
      "duration": 0.1591,
      "velocity": 97,
      "chip": "ym2612"
    },
    {
      "channel": 3,
      "note": 74,
      "start": 23.897,
      "duration": 0.3697,
      "velocity": 119,
      "chip": "ym2612"
    },
    {
      "channel": 0,
      "note": 84,
      "start": 23.9505,
      "duration": 0.2099,
      "velocity": 97,
      "chip": "ym2612"
    },
    {
      "channel": 1,
      "note": 84,
      "start": 24.0557,
      "duration": 0.2101,
      "velocity": 97,
      "chip": "ym2612"
    },
    {
      "channel": 2,
      "note": 84,
      "start": 24.0562,
      "duration": 0.21,
      "velocity": 97,
      "chip": "ym2612"
    },
    {
      "channel": 0,
      "note": 84,
      "start": 24.1608,
      "duration": 0.1489,
      "velocity": 97,
      "chip": "ym2612"
    },
    {
      "channel": 1,
      "note": 88,
      "start": 24.2661,
      "duration": 0.1488,
      "velocity": 97,
      "chip": "ym2612"
    },
    {
      "channel": 2,
      "note": 84,
      "start": 24.2666,
      "duration": 0.1488,
      "velocity": 97,
      "chip": "ym2612"
    },
    {
      "channel": 3,
      "note": 72,
      "start": 24.2668,
      "duration": 0.3592,
      "velocity": 119,
      "chip": "ym2612"
    },
    {
      "channel": 4,
      "note": 45,
      "start": 24.2671,
      "duration": 0.7629,
      "velocity": 114,
      "chip": "ym2612"
    },
    {
      "channel": 0,
      "note": 84,
      "start": 24.31,
      "duration": 0.2099,
      "velocity": 97,
      "chip": "ym2612"
    },
    {
      "channel": 1,
      "note": 88,
      "start": 24.4152,
      "duration": 0.21,
      "velocity": 97,
      "chip": "ym2612"
    },
    {
      "channel": 2,
      "note": 84,
      "start": 24.4157,
      "duration": 0.2099,
      "velocity": 97,
      "chip": "ym2612"
    },
    {
      "channel": 0,
      "note": 88,
      "start": 24.5203,
      "duration": 0.1184,
      "velocity": 97,
      "chip": "ym2612"
    },
    {
      "channel": 1,
      "note": 88,
      "start": 24.6255,
      "duration": 0.0251,
      "velocity": 97,
      "chip": "ym2612"
    },
    {
      "channel": 2,
      "note": 84,
      "start": 24.626,
      "duration": 0.025,
      "velocity": 97,
      "chip": "ym2612"
    },
    {
      "channel": 3,
      "note": 69,
      "start": 24.6262,
      "duration": 0.0252,
      "velocity": 119,
      "chip": "ym2612"
    },
    {
      "channel": 0,
      "note": 88,
      "start": 24.639,
      "duration": 0.0574,
      "velocity": 97,
      "chip": "ym2612"
    },
    {
      "channel": 1,
      "note": 88,
      "start": 24.6509,
      "duration": 0.1507,
      "velocity": 97,
      "chip": "ym2612"
    },
    {
      "channel": 2,
      "note": 88,
      "start": 24.6513,
      "duration": 0.1507,
      "velocity": 97,
      "chip": "ym2612"
    },
    {
      "channel": 3,
      "note": 72,
      "start": 24.6516,
      "duration": 0.177,
      "velocity": 119,
      "chip": "ym2612"
    },
    {
      "channel": 0,
      "note": 88,
      "start": 24.6967,
      "duration": 0.1189,
      "velocity": 97,
      "chip": "ym2612"
    },
    {
      "channel": 1,
      "note": 84,
      "start": 24.8019,
      "duration": 0.0259,
      "velocity": 97,
      "chip": "ym2612"
    },
    {
      "channel": 2,
      "note": 88,
      "start": 24.8024,
      "duration": 0.0259,
      "velocity": 97,
      "chip": "ym2612"
    },
    {
      "channel": 0,
      "note": 88,
      "start": 24.8159,
      "duration": 0.1077,
      "velocity": 97,
      "chip": "ym2612"
    },
    {
      "channel": 1,
      "note": 84,
      "start": 24.8281,
      "duration": 0.2007,
      "velocity": 97,
      "chip": "ym2612"
    },
    {
      "channel": 2,
      "note": 88,
      "start": 24.8285,
      "duration": 0.2007,
      "velocity": 97,
      "chip": "ym2612"
    },
    {
      "channel": 3,
      "note": 76,
      "start": 24.8288,
      "duration": 0.2009,
      "velocity": 119,
      "chip": "ym2612"
    },
    {
      "channel": 0,
      "note": 84,
      "start": 24.9239,
      "duration": 0.1489,
      "velocity": 97,
      "chip": "ym2612"
    },
    {
      "channel": 1,
      "note": 84,
      "start": 25.0291,
      "duration": 0.1489,
      "velocity": 97,
      "chip": "ym2612"
    },
    {
      "channel": 2,
      "note": 88,
      "start": 25.0296,
      "duration": 0.1489,
      "velocity": 97,
      "chip": "ym2612"
    },
    {
      "channel": 3,
      "note": 69,
      "start": 25.0299,
      "duration": 0.2983,
      "velocity": 119,
      "chip": "ym2612"
    },
    {
      "channel": 4,
      "note": 45,
      "start": 25.0301,
      "duration": 0.2984,
      "velocity": 114,
      "chip": "ym2612"
    },
    {
      "channel": 0,
      "note": 84,
      "start": 25.0732,
      "duration": 0.1489,
      "velocity": 97,
      "chip": "ym2612"
    },
    {
      "channel": 1,
      "note": 84,
      "start": 25.1783,
      "duration": 0.1489,
      "velocity": 97,
      "chip": "ym2612"
    },
    {
      "channel": 2,
      "note": 84,
      "start": 25.1788,
      "duration": 0.1489,
      "velocity": 97,
      "chip": "ym2612"
    },
    {
      "channel": 0,
      "note": 84,
      "start": 25.2224,
      "duration": 0.1489,
      "velocity": 97,
      "chip": "ym2612"
    },
    {
      "channel": 1,
      "note": 91,
      "start": 25.3276,
      "duration": 0.1489,
      "velocity": 97,
      "chip": "ym2612"
    },
    {
      "channel": 2,
      "note": 84,
      "start": 25.328,
      "duration": 0.1489,
      "velocity": 97,
      "chip": "ym2612"
    },
    {
      "channel": 3,
      "note": 72,
      "start": 25.3283,
      "duration": 0.3593,
      "velocity": 119,
      "chip": "ym2612"
    },
    {
      "channel": 4,
      "note": 41,
      "start": 25.3286,
      "duration": 0.5356,
      "velocity": 114,
      "chip": "ym2612"
    },
    {
      "channel": 0,
      "note": 84,
      "start": 25.3716,
      "duration": 0.21,
      "velocity": 97,
      "chip": "ym2612"
    },
    {
      "channel": 1,
      "note": 91,
      "start": 25.4768,
      "duration": 0.2099,
      "velocity": 97,
      "chip": "ym2612"
    },
    {
      "channel": 2,
      "note": 84,
      "start": 25.4773,
      "duration": 0.2099,
      "velocity": 97,
      "chip": "ym2612"
    },
    {
      "channel": 0,
      "note": 91,
      "start": 25.5819,
      "duration": 0.1184,
      "velocity": 97,
      "chip": "ym2612"
    },
    {
      "channel": 1,
      "note": 91,
      "start": 25.6871,
      "duration": 0.0249,
      "velocity": 97,
      "chip": "ym2612"
    },
    {
      "channel": 2,
      "note": 84,
      "start": 25.6876,
      "duration": 0.0249,
      "velocity": 97,
      "chip": "ym2612"
    },
    {
      "channel": 3,
      "note": 69,
      "start": 25.6878,
      "duration": 0.0251,
      "velocity": 119,
      "chip": "ym2612"
    },
    {
      "channel": 0,
      "note": 91,
      "start": 25.7006,
      "duration": 0.0574,
      "velocity": 97,
      "chip": "ym2612"
    },
    {
      "channel": 1,
      "note": 91,
      "start": 25.7124,
      "duration": 0.1508,
      "velocity": 97,
      "chip": "ym2612"
    },
    {
      "channel": 2,
      "note": 91,
      "start": 25.7128,
      "duration": 0.1508,
      "velocity": 97,
      "chip": "ym2612"
    },
    {
      "channel": 3,
      "note": 72,
      "start": 25.7131,
      "duration": 0.1774,
      "velocity": 119,
      "chip": "ym2612"
    },
    {
      "channel": 0,
      "note": 91,
      "start": 25.7583,
      "duration": 0.1192,
      "velocity": 97,
      "chip": "ym2612"
    },
    {
      "channel": 1,
      "note": 89,
      "start": 25.8636,
      "duration": 0.026,
      "velocity": 97,
      "chip": "ym2612"
    },
    {
      "channel": 2,
      "note": 91,
      "start": 25.864,
      "duration": 0.026,
      "velocity": 97,
      "chip": "ym2612"
    },
    {
      "channel": 4,
      "note": 40,
      "start": 25.8643,
      "duration": 0.517,
      "velocity": 114,
      "chip": "ym2612"
    },
    {
      "channel": 0,
      "note": 91,
      "start": 25.8779,
      "duration": 0.0241,
      "velocity": 97,
      "chip": "ym2612"
    },
    {
      "channel": 1,
      "note": 89,
      "start": 25.8899,
      "duration": 0.0684,
      "velocity": 97,
      "chip": "ym2612"
    },
    {
      "channel": 2,
      "note": 91,
      "start": 25.8903,
      "duration": 0.0684,
      "velocity": 97,
      "chip": "ym2612"
    },
    {
      "channel": 3,
      "note": 76,
      "start": 25.8906,
      "duration": 0.0685,
      "velocity": 119,
      "chip": "ym2612"
    },
    {
      "channel": 0,
      "note": 89,
      "start": 25.9024,
      "duration": 0.161,
      "velocity": 97,
      "chip": "ym2612"
    },
    {
      "channel": 1,
      "note": 89,
      "start": 25.9586,
      "duration": 0.2099,
      "velocity": 97,
      "chip": "ym2612"
    },
    {
      "channel": 2,
      "note": 91,
      "start": 25.959,
      "duration": 0.2099,
      "velocity": 97,
      "chip": "ym2612"
    },
    {
      "channel": 3,
      "note": 69,
      "start": 25.9593,
      "duration": 0.4205,
      "velocity": 119,
      "chip": "ym2612"
    },
    {
      "channel": 0,
      "note": 89,
      "start": 26.0637,
      "duration": 0.2099,
      "velocity": 97,
      "chip": "ym2612"
    },
    {
      "channel": 1,
      "note": 89,
      "start": 26.1689,
      "duration": 0.21,
      "velocity": 97,
      "chip": "ym2612"
    },
    {
      "channel": 2,
      "note": 89,
      "start": 26.1693,
      "duration": 0.2101,
      "velocity": 97,
      "chip": "ym2612"
    },
    {
      "channel": 0,
      "note": 89,
      "start": 26.2739,
      "duration": 0.1488,
      "velocity": 97,
      "chip": "ym2612"
    },
    {
      "channel": 1,
      "note": 86,
      "start": 26.3793,
      "duration": 0.1488,
      "velocity": 97,
      "chip": "ym2612"
    },
    {
      "channel": 2,
      "note": 89,
      "start": 26.3797,
      "duration": 0.1487,
      "velocity": 97,
      "chip": "ym2612"
    },
    {
      "channel": 3,
      "note": 81,
      "start": 26.3812,
      "duration": 0.358,
      "velocity": 119,
      "chip": "ym2612"
    },
    {
      "channel": 4,
      "note": 50,
      "start": 26.3815,
      "duration": 2.2642,
      "velocity": 114,
      "chip": "ym2612"
    },
    {
      "channel": 0,
      "note": 89,
      "start": 26.4231,
      "duration": 0.21,
      "velocity": 97,
      "chip": "ym2612"
    },
    {
      "channel": 1,
      "note": 86,
      "start": 26.5284,
      "duration": 0.2099,
      "velocity": 97,
      "chip": "ym2612"
    },
    {
      "channel": 2,
      "note": 89,
      "start": 26.5288,
      "duration": 0.2099,
      "velocity": 97,
      "chip": "ym2612"
    },
    {
      "channel": 0,
      "note": 86,
      "start": 26.6334,
      "duration": 0.1184,
      "velocity": 97,
      "chip": "ym2612"
    },
    {
      "channel": 1,
      "note": 86,
      "start": 26.7386,
      "duration": 0.0251,
      "velocity": 97,
      "chip": "ym2612"
    },
    {
      "channel": 2,
      "note": 89,
      "start": 26.739,
      "duration": 0.0251,
      "velocity": 97,
      "chip": "ym2612"
    },
    {
      "channel": 3,
      "note": 84,
      "start": 26.7393,
      "duration": 0.0253,
      "velocity": 119,
      "chip": "ym2612"
    },
    {
      "channel": 0,
      "note": 86,
      "start": 26.7521,
      "duration": 0.0574,
      "velocity": 97,
      "chip": "ym2612"
    },
    {
      "channel": 1,
      "note": 86,
      "start": 26.7641,
      "duration": 0.1506,
      "velocity": 97,
      "chip": "ym2612"
    },
    {
      "channel": 2,
      "note": 86,
      "start": 26.7645,
      "duration": 0.1506,
      "velocity": 97,
      "chip": "ym2612"
    },
    {
      "channel": 3,
      "note": 86,
      "start": 26.7648,
      "duration": 0.1769,
      "velocity": 119,
      "chip": "ym2612"
    },
    {
      "channel": 0,
      "note": 86,
      "start": 26.8098,
      "duration": 0.1189,
      "velocity": 97,
      "chip": "ym2612"
    },
    {
      "channel": 1,
      "note": 86,
      "start": 26.915,
      "duration": 0.0258,
      "velocity": 97,
      "chip": "ym2612"
    },
    {
      "channel": 2,
      "note": 86,
      "start": 26.9155,
      "duration": 0.0258,
      "velocity": 97,
      "chip": "ym2612"
    },
    {
      "channel": 0,
      "note": 86,
      "start": 26.9291,
      "duration": 0.1076,
      "velocity": 97,
      "chip": "ym2612"
    },
    {
      "channel": 1,
      "note": 86,
      "start": 26.9412,
      "duration": 0.2007,
      "velocity": 97,
      "chip": "ym2612"
    },
    {
      "channel": 2,
      "note": 86,
      "start": 26.9416,
      "duration": 0.2007,
      "velocity": 97,
      "chip": "ym2612"
    },
    {
      "channel": 3,
      "note": 84,
      "start": 26.9419,
      "duration": 0.2009,
      "velocity": 119,
      "chip": "ym2612"
    },
    {
      "channel": 0,
      "note": 86,
      "start": 27.037,
      "duration": 0.1489,
      "velocity": 97,
      "chip": "ym2612"
    },
    {
      "channel": 1,
      "note": 86,
      "start": 27.1422,
      "duration": 0.1489,
      "velocity": 97,
      "chip": "ym2612"
    },
    {
      "channel": 2,
      "note": 86,
      "start": 27.1427,
      "duration": 0.1489,
      "velocity": 97,
      "chip": "ym2612"
    },
    {
      "channel": 3,
      "note": 86,
      "start": 27.1429,
      "duration": 0.149,
      "velocity": 119,
      "chip": "ym2612"
    },
    {
      "channel": 0,
      "note": 86,
      "start": 27.1862,
      "duration": 0.1489,
      "velocity": 97,
      "chip": "ym2612"
    },
    {
      "channel": 1,
      "note": 86,
      "start": 27.2914,
      "duration": 0.1489,
      "velocity": 97,
      "chip": "ym2612"
    },
    {
      "channel": 2,
      "note": 86,
      "start": 27.2919,
      "duration": 0.1489,
      "velocity": 97,
      "chip": "ym2612"
    },
    {
      "channel": 3,
      "note": 84,
      "start": 27.2922,
      "duration": 0.149,
      "velocity": 119,
      "chip": "ym2612"
    },
    {
      "channel": 0,
      "note": 86,
      "start": 27.3355,
      "duration": 0.1489,
      "velocity": 97,
      "chip": "ym2612"
    },
    {
      "channel": 1,
      "note": 81,
      "start": 27.4407,
      "duration": 0.1489,
      "velocity": 97,
      "chip": "ym2612"
    },
    {
      "channel": 2,
      "note": 86,
      "start": 27.4411,
      "duration": 0.1489,
      "velocity": 97,
      "chip": "ym2612"
    },
    {
      "channel": 3,
      "note": 81,
      "start": 27.4414,
      "duration": 0.3593,
      "velocity": 119,
      "chip": "ym2612"
    },
    {
      "channel": 0,
      "note": 86,
      "start": 27.4847,
      "duration": 0.2099,
      "velocity": 97,
      "chip": "ym2612"
    },
    {
      "channel": 1,
      "note": 81,
      "start": 27.5899,
      "duration": 0.2099,
      "velocity": 97,
      "chip": "ym2612"
    },
    {
      "channel": 2,
      "note": 86,
      "start": 27.5903,
      "duration": 0.2099,
      "velocity": 97,
      "chip": "ym2612"
    },
    {
      "channel": 0,
      "note": 81,
      "start": 27.6949,
      "duration": 0.1183,
      "velocity": 97,
      "chip": "ym2612"
    },
    {
      "channel": 1,
      "note": 81,
      "start": 27.8001,
      "duration": 0.0249,
      "velocity": 97,
      "chip": "ym2612"
    },
    {
      "channel": 2,
      "note": 86,
      "start": 27.8006,
      "duration": 0.0249,
      "velocity": 97,
      "chip": "ym2612"
    },
    {
      "channel": 3,
      "note": 84,
      "start": 27.8009,
      "duration": 0.0251,
      "velocity": 119,
      "chip": "ym2612"
    },
    {
      "channel": 0,
      "note": 81,
      "start": 27.8136,
      "duration": 0.0573,
      "velocity": 97,
      "chip": "ym2612"
    },
    {
      "channel": 1,
      "note": 81,
      "start": 27.8254,
      "duration": 0.1508,
      "velocity": 97,
      "chip": "ym2612"
    },
    {
      "channel": 2,
      "note": 81,
      "start": 27.8258,
      "duration": 0.1508,
      "velocity": 97,
      "chip": "ym2612"
    },
    {
      "channel": 3,
      "note": 86,
      "start": 27.8261,
      "duration": 0.2392,
      "velocity": 119,
      "chip": "ym2612"
    },
    {
      "channel": 0,
      "note": 81,
      "start": 27.8713,
      "duration": 0.1182,
      "velocity": 97,
      "chip": "ym2612"
    },
    {
      "channel": 1,
      "note": 86,
      "start": 27.9765,
      "duration": 0.0879,
      "velocity": 97,
      "chip": "ym2612"
    },
    {
      "channel": 2,
      "note": 81,
      "start": 27.9769,
      "duration": 0.0879,
      "velocity": 97,
      "chip": "ym2612"
    },
    {
      "channel": 0,
      "note": 81,
      "start": 27.9898,
      "duration": 0.1797,
      "velocity": 97,
      "chip": "ym2612"
    },
    {
      "channel": 1,
      "note": 86,
      "start": 28.0647,
      "duration": 0.2099,
      "velocity": 97,
      "chip": "ym2612"
    },
    {
      "channel": 2,
      "note": 81,
      "start": 28.0652,
      "duration": 0.2099,
      "velocity": 97,
      "chip": "ym2612"
    },
    {
      "channel": 3,
      "note": 81,
      "start": 28.0655,
      "duration": 0.2101,
      "velocity": 119,
      "chip": "ym2612"
    },
    {
      "channel": 0,
      "note": 86,
      "start": 28.1698,
      "duration": 0.159,
      "velocity": 97,
      "chip": "ym2612"
    },
    {
      "channel": 1,
      "note": 86,
      "start": 28.275,
      "duration": 0.159,
      "velocity": 97,
      "chip": "ym2612"
    },
    {
      "channel": 2,
      "note": 81,
      "start": 28.2754,
      "duration": 0.159,
      "velocity": 97,
      "chip": "ym2612"
    },
    {
      "channel": 3,
      "note": 86,
      "start": 28.2757,
      "duration": 0.3696,
      "velocity": 119,
      "chip": "ym2612"
    },
    {
      "channel": 0,
      "note": 86,
      "start": 28.3292,
      "duration": 0.2099,
      "velocity": 97,
      "chip": "ym2612"
    },
    {
      "channel": 1,
      "note": 86,
      "start": 28.4344,
      "duration": 0.21,
      "velocity": 97,
      "chip": "ym2612"
    },
    {
      "channel": 2,
      "note": 86,
      "start": 28.4348,
      "duration": 0.21,
      "velocity": 97,
      "chip": "ym2612"
    },
    {
      "channel": 0,
      "note": 86,
      "start": 28.5394,
      "duration": 0.1489,
      "velocity": 97,
      "chip": "ym2612"
    },
    {
      "channel": 1,
      "note": 84,
      "start": 28.6448,
      "duration": 0.1487,
      "velocity": 97,
      "chip": "ym2612"
    },
    {
      "channel": 2,
      "note": 86,
      "start": 28.6452,
      "duration": 0.1487,
      "velocity": 97,
      "chip": "ym2612"
    },
    {
      "channel": 3,
      "note": 84,
      "start": 28.6455,
      "duration": 0.3592,
      "velocity": 119,
      "chip": "ym2612"
    },
    {
      "channel": 4,
      "note": 48,
      "start": 28.6458,
      "duration": 2.114,
      "velocity": 114,
      "chip": "ym2612"
    },
    {
      "channel": 0,
      "note": 86,
      "start": 28.6886,
      "duration": 0.2099,
      "velocity": 97,
      "chip": "ym2612"
    },
    {
      "channel": 1,
      "note": 84,
      "start": 28.7938,
      "duration": 0.2099,
      "velocity": 97,
      "chip": "ym2612"
    },
    {
      "channel": 2,
      "note": 86,
      "start": 28.7943,
      "duration": 0.2099,
      "velocity": 97,
      "chip": "ym2612"
    },
    {
      "channel": 0,
      "note": 84,
      "start": 28.8989,
      "duration": 0.1184,
      "velocity": 97,
      "chip": "ym2612"
    },
    {
      "channel": 1,
      "note": 84,
      "start": 29.0041,
      "duration": 0.0251,
      "velocity": 97,
      "chip": "ym2612"
    },
    {
      "channel": 2,
      "note": 86,
      "start": 29.0046,
      "duration": 0.0251,
      "velocity": 97,
      "chip": "ym2612"
    },
    {
      "channel": 3,
      "note": 81,
      "start": 29.0049,
      "duration": 0.0253,
      "velocity": 119,
      "chip": "ym2612"
    },
    {
      "channel": 0,
      "note": 84,
      "start": 29.0176,
      "duration": 0.0574,
      "velocity": 97,
      "chip": "ym2612"
    },
    {
      "channel": 1,
      "note": 84,
      "start": 29.0295,
      "duration": 0.1507,
      "velocity": 97,
      "chip": "ym2612"
    },
    {
      "channel": 2,
      "note": 84,
      "start": 29.03,
      "duration": 0.1507,
      "velocity": 97,
      "chip": "ym2612"
    },
    {
      "channel": 3,
      "note": 84,
      "start": 29.0303,
      "duration": 0.177,
      "velocity": 119,
      "chip": "ym2612"
    },
    {
      "channel": 0,
      "note": 84,
      "start": 29.0753,
      "duration": 0.1189,
      "velocity": 97,
      "chip": "ym2612"
    },
    {
      "channel": 1,
      "note": 84,
      "start": 29.1805,
      "duration": 0.0259,
      "velocity": 97,
      "chip": "ym2612"
    },
    {
      "channel": 2,
      "note": 84,
      "start": 29.181,
      "duration": 0.0259,
      "velocity": 97,
      "chip": "ym2612"
    },
    {
      "channel": 0,
      "note": 84,
      "start": 29.1946,
      "duration": 0.1076,
      "velocity": 97,
      "chip": "ym2612"
    },
    {
      "channel": 1,
      "note": 84,
      "start": 29.2067,
      "duration": 0.2007,
      "velocity": 97,
      "chip": "ym2612"
    },
    {
      "channel": 2,
      "note": 84,
      "start": 29.2072,
      "duration": 0.2007,
      "velocity": 97,
      "chip": "ym2612"
    },
    {
      "channel": 3,
      "note": 88,
      "start": 29.2075,
      "duration": 0.2009,
      "velocity": 119,
      "chip": "ym2612"
    },
    {
      "channel": 0,
      "note": 84,
      "start": 29.3025,
      "duration": 0.1489,
      "velocity": 97,
      "chip": "ym2612"
    },
    {
      "channel": 1,
      "note": 83,
      "start": 29.4078,
      "duration": 0.1489,
      "velocity": 97,
      "chip": "ym2612"
    },
    {
      "channel": 2,
      "note": 84,
      "start": 29.4082,
      "duration": 0.1489,
      "velocity": 97,
      "chip": "ym2612"
    },
    {
      "channel": 3,
      "note": 81,
      "start": 29.4085,
      "duration": 0.2982,
      "velocity": 119,
      "chip": "ym2612"
    },
    {
      "channel": 0,
      "note": 84,
      "start": 29.4518,
      "duration": 0.1488,
      "velocity": 97,
      "chip": "ym2612"
    },
    {
      "channel": 1,
      "note": 83,
      "start": 29.557,
      "duration": 0.1488,
      "velocity": 97,
      "chip": "ym2612"
    },
    {
      "channel": 2,
      "note": 84,
      "start": 29.5574,
      "duration": 0.1488,
      "velocity": 97,
      "chip": "ym2612"
    },
    {
      "channel": 0,
      "note": 83,
      "start": 29.601,
      "duration": 0.1489,
      "velocity": 97,
      "chip": "ym2612"
    },
    {
      "channel": 1,
      "note": 84,
      "start": 29.7061,
      "duration": 0.1489,
      "velocity": 97,
      "chip": "ym2612"
    },
    {
      "channel": 2,
      "note": 84,
      "start": 29.7066,
      "duration": 0.1489,
      "velocity": 97,
      "chip": "ym2612"
    },
    {
      "channel": 3,
      "note": 84,
      "start": 29.7069,
      "duration": 0.3594,
      "velocity": 119,
      "chip": "ym2612"
    },
    {
      "channel": 0,
      "note": 83,
      "start": 29.7502,
      "duration": 0.2099,
      "velocity": 97,
      "chip": "ym2612"
    },
    {
      "channel": 1,
      "note": 84,
      "start": 29.8554,
      "duration": 0.2099,
      "velocity": 97,
      "chip": "ym2612"
    },
    {
      "channel": 2,
      "note": 83,
      "start": 29.8558,
      "duration": 0.2099,
      "velocity": 97,
      "chip": "ym2612"
    },
    {
      "channel": 0,
      "note": 84,
      "start": 29.9604,
      "duration": 0.1184,
      "velocity": 97,
      "chip": "ym2612"
    },
    {
      "channel": 1,
      "note": 83,
      "start": 30.0656,
      "duration": 0.0249,
      "velocity": 97,
      "chip": "ym2612"
    },
    {
      "channel": 2,
      "note": 83,
      "start": 30.0661,
      "duration": 0.0249,
      "velocity": 97,
      "chip": "ym2612"
    },
    {
      "channel": 3,
      "note": 81,
      "start": 30.0664,
      "duration": 0.0251,
      "velocity": 119,
      "chip": "ym2612"
    },
    {
      "channel": 0,
      "note": 84,
      "start": 30.0791,
      "duration": 0.0574,
      "velocity": 97,
      "chip": "ym2612"
    },
    {
      "channel": 1,
      "note": 83,
      "start": 30.0909,
      "duration": 0.1508,
      "velocity": 97,
      "chip": "ym2612"
    },
    {
      "channel": 2,
      "note": 84,
      "start": 30.0913,
      "duration": 0.1508,
      "velocity": 97,
      "chip": "ym2612"
    },
    {
      "channel": 3,
      "note": 84,
      "start": 30.0916,
      "duration": 0.1771,
      "velocity": 119,
      "chip": "ym2612"
    },
    {
      "channel": 0,
      "note": 83,
      "start": 30.1369,
      "duration": 0.1189,
      "velocity": 97,
      "chip": "ym2612"
    },
    {
      "channel": 1,
      "note": 79,
      "start": 30.2421,
      "duration": 0.0257,
      "velocity": 97,
      "chip": "ym2612"
    },
    {
      "channel": 2,
      "note": 84,
      "start": 30.2425,
      "duration": 0.0257,
      "velocity": 97,
      "chip": "ym2612"
    },
    {
      "channel": 0,
      "note": 83,
      "start": 30.2561,
      "duration": 0.0241,
      "velocity": 97,
      "chip": "ym2612"
    },
    {
      "channel": 1,
      "note": 79,
      "start": 30.2681,
      "duration": 0.0686,
      "velocity": 97,
      "chip": "ym2612"
    },
    {
      "channel": 2,
      "note": 83,
      "start": 30.2685,
      "duration": 0.0686,
      "velocity": 97,
      "chip": "ym2612"
    },
    {
      "channel": 3,
      "note": 88,
      "start": 30.2688,
      "duration": 0.0688,
      "velocity": 119,
      "chip": "ym2612"
    },
    {
      "channel": 0,
      "note": 79,
      "start": 30.2805,
      "duration": 0.1613,
      "velocity": 97,
      "chip": "ym2612"
    },
    {
      "channel": 1,
      "note": 83,
      "start": 30.3371,
      "duration": 0.2099,
      "velocity": 97,
      "chip": "ym2612"
    },
    {
      "channel": 2,
      "note": 83,
      "start": 30.3375,
      "duration": 0.2099,
      "velocity": 97,
      "chip": "ym2612"
    },
    {
      "channel": 3,
      "note": 81,
      "start": 30.3378,
      "duration": 0.4205,
      "velocity": 119,
      "chip": "ym2612"
    },
    {
      "channel": 0,
      "note": 79,
      "start": 30.4422,
      "duration": 0.2099,
      "velocity": 97,
      "chip": "ym2612"
    },
    {
      "channel": 1,
      "note": 83,
      "start": 30.5473,
      "duration": 0.2101,
      "velocity": 97,
      "chip": "ym2612"
    },
    {
      "channel": 2,
      "note": 79,
      "start": 30.5478,
      "duration": 0.2101,
      "velocity": 97,
      "chip": "ym2612"
    },
    {
      "channel": 0,
      "note": 83,
      "start": 30.6524,
      "duration": 0.1489,
      "velocity": 97,
      "chip": "ym2612"
    },
    {
      "channel": 1,
      "note": 86,
      "start": 30.7578,
      "duration": 0.1487,
      "velocity": 97,
      "chip": "ym2612"
    },
    {
      "channel": 2,
      "note": 79,
      "start": 30.7582,
      "duration": 0.1487,
      "velocity": 97,
      "chip": "ym2612"
    },
    {
      "channel": 3,
      "note": 81,
      "start": 30.7597,
      "duration": 0.358,
      "velocity": 119,
      "chip": "ym2612"
    },
    {
      "channel": 4,
      "note": 47,
      "start": 30.7599,
      "duration": 2.2642,
      "velocity": 114,
      "chip": "ym2612"
    },
    {
      "channel": 0,
      "note": 83,
      "start": 30.8016,
      "duration": 0.2099,
      "velocity": 97,
      "chip": "ym2612"
    },
    {
      "channel": 1,
      "note": 86,
      "start": 30.9068,
      "duration": 0.2099,
      "velocity": 97,
      "chip": "ym2612"
    },
    {
      "channel": 2,
      "note": 83,
      "start": 30.9072,
      "duration": 0.2099,
      "velocity": 97,
      "chip": "ym2612"
    },
    {
      "channel": 0,
      "note": 86,
      "start": 31.0119,
      "duration": 0.1184,
      "velocity": 97,
      "chip": "ym2612"
    },
    {
      "channel": 1,
      "note": 86,
      "start": 31.1171,
      "duration": 0.0251,
      "velocity": 97,
      "chip": "ym2612"
    },
    {
      "channel": 2,
      "note": 83,
      "start": 31.1175,
      "duration": 0.0251,
      "velocity": 97,
      "chip": "ym2612"
    },
    {
      "channel": 3,
      "note": 84,
      "start": 31.1178,
      "duration": 0.0253,
      "velocity": 119,
      "chip": "ym2612"
    },
    {
      "channel": 0,
      "note": 86,
      "start": 31.1306,
      "duration": 0.0574,
      "velocity": 97,
      "chip": "ym2612"
    },
    {
      "channel": 1,
      "note": 86,
      "start": 31.1425,
      "duration": 0.1506,
      "velocity": 97,
      "chip": "ym2612"
    },
    {
      "channel": 2,
      "note": 86,
      "start": 31.143,
      "duration": 0.1506,
      "velocity": 97,
      "chip": "ym2612"
    },
    {
      "channel": 3,
      "note": 86,
      "start": 31.1433,
      "duration": 0.1769,
      "velocity": 119,
      "chip": "ym2612"
    },
    {
      "channel": 0,
      "note": 86,
      "start": 31.1883,
      "duration": 0.119,
      "velocity": 97,
      "chip": "ym2612"
    },
    {
      "channel": 1,
      "note": 86,
      "start": 31.2935,
      "duration": 0.0258,
      "velocity": 97,
      "chip": "ym2612"
    },
    {
      "channel": 2,
      "note": 86,
      "start": 31.2939,
      "duration": 0.0258,
      "velocity": 97,
      "chip": "ym2612"
    },
    {
      "channel": 0,
      "note": 86,
      "start": 31.3076,
      "duration": 0.1076,
      "velocity": 97,
      "chip": "ym2612"
    },
    {
      "channel": 1,
      "note": 86,
      "start": 31.3197,
      "duration": 0.2007,
      "velocity": 97,
      "chip": "ym2612"
    },
    {
      "channel": 2,
      "note": 86,
      "start": 31.3201,
      "duration": 0.2007,
      "velocity": 97,
      "chip": "ym2612"
    },
    {
      "channel": 3,
      "note": 84,
      "start": 31.3204,
      "duration": 0.2009,
      "velocity": 119,
      "chip": "ym2612"
    },
    {
      "channel": 0,
      "note": 86,
      "start": 31.4155,
      "duration": 0.1489,
      "velocity": 97,
      "chip": "ym2612"
    },
    {
      "channel": 1,
      "note": 86,
      "start": 31.5207,
      "duration": 0.1489,
      "velocity": 97,
      "chip": "ym2612"
    },
    {
      "channel": 2,
      "note": 86,
      "start": 31.5211,
      "duration": 0.1489,
      "velocity": 97,
      "chip": "ym2612"
    },
    {
      "channel": 3,
      "note": 86,
      "start": 31.5214,
      "duration": 0.149,
      "velocity": 119,
      "chip": "ym2612"
    },
    {
      "channel": 0,
      "note": 86,
      "start": 31.5647,
      "duration": 0.1489,
      "velocity": 97,
      "chip": "ym2612"
    },
    {
      "channel": 1,
      "note": 86,
      "start": 31.6699,
      "duration": 0.1489,
      "velocity": 97,
      "chip": "ym2612"
    },
    {
      "channel": 2,
      "note": 86,
      "start": 31.6703,
      "duration": 0.1489,
      "velocity": 97,
      "chip": "ym2612"
    },
    {
      "channel": 3,
      "note": 84,
      "start": 31.6706,
      "duration": 0.149,
      "velocity": 119,
      "chip": "ym2612"
    },
    {
      "channel": 0,
      "note": 86,
      "start": 31.7139,
      "duration": 0.1489,
      "velocity": 97,
      "chip": "ym2612"
    },
    {
      "channel": 1,
      "note": 81,
      "start": 31.8191,
      "duration": 0.1489,
      "velocity": 97,
      "chip": "ym2612"
    },
    {
      "channel": 2,
      "note": 86,
      "start": 31.8195,
      "duration": 0.1489,
      "velocity": 97,
      "chip": "ym2612"
    },
    {
      "channel": 3,
      "note": 81,
      "start": 31.8198,
      "duration": 0.3593,
      "velocity": 119,
      "chip": "ym2612"
    },
    {
      "channel": 0,
      "note": 86,
      "start": 31.8631,
      "duration": 0.2099,
      "velocity": 97,
      "chip": "ym2612"
    },
    {
      "channel": 1,
      "note": 81,
      "start": 31.9683,
      "duration": 0.2099,
      "velocity": 97,
      "chip": "ym2612"
    },
    {
      "channel": 2,
      "note": 86,
      "start": 31.9688,
      "duration": 0.2099,
      "velocity": 97,
      "chip": "ym2612"
    },
    {
      "channel": 0,
      "note": 81,
      "start": 32.0734,
      "duration": 0.1183,
      "velocity": 97,
      "chip": "ym2612"
    },
    {
      "channel": 1,
      "note": 81,
      "start": 32.1786,
      "duration": 0.0249,
      "velocity": 97,
      "chip": "ym2612"
    },
    {
      "channel": 2,
      "note": 86,
      "start": 32.179,
      "duration": 0.0249,
      "velocity": 97,
      "chip": "ym2612"
    },
    {
      "channel": 3,
      "note": 84,
      "start": 32.1793,
      "duration": 0.0251,
      "velocity": 119,
      "chip": "ym2612"
    },
    {
      "channel": 0,
      "note": 81,
      "start": 32.192,
      "duration": 0.0574,
      "velocity": 97,
      "chip": "ym2612"
    },
    {
      "channel": 1,
      "note": 81,
      "start": 32.2039,
      "duration": 0.1508,
      "velocity": 97,
      "chip": "ym2612"
    },
    {
      "channel": 2,
      "note": 81,
      "start": 32.2043,
      "duration": 0.1508,
      "velocity": 97,
      "chip": "ym2612"
    },
    {
      "channel": 3,
      "note": 86,
      "start": 32.2046,
      "duration": 0.2392,
      "velocity": 119,
      "chip": "ym2612"
    },
    {
      "channel": 0,
      "note": 81,
      "start": 32.2498,
      "duration": 0.1182,
      "velocity": 97,
      "chip": "ym2612"
    },
    {
      "channel": 1,
      "note": 86,
      "start": 32.355,
      "duration": 0.0879,
      "velocity": 97,
      "chip": "ym2612"
    },
    {
      "channel": 2,
      "note": 81,
      "start": 32.3555,
      "duration": 0.0879,
      "velocity": 97,
      "chip": "ym2612"
    },
    {
      "channel": 0,
      "note": 81,
      "start": 32.3683,
      "duration": 0.1797,
      "velocity": 97,
      "chip": "ym2612"
    },
    {
      "channel": 1,
      "note": 86,
      "start": 32.4432,
      "duration": 0.2099,
      "velocity": 97,
      "chip": "ym2612"
    },
    {
      "channel": 2,
      "note": 81,
      "start": 32.4437,
      "duration": 0.2099,
      "velocity": 97,
      "chip": "ym2612"
    },
    {
      "channel": 3,
      "note": 81,
      "start": 32.444,
      "duration": 0.2101,
      "velocity": 119,
      "chip": "ym2612"
    },
    {
      "channel": 0,
      "note": 86,
      "start": 32.5483,
      "duration": 0.1591,
      "velocity": 97,
      "chip": "ym2612"
    },
    {
      "channel": 1,
      "note": 86,
      "start": 32.6535,
      "duration": 0.159,
      "velocity": 97,
      "chip": "ym2612"
    },
    {
      "channel": 2,
      "note": 81,
      "start": 32.654,
      "duration": 0.159,
      "velocity": 97,
      "chip": "ym2612"
    },
    {
      "channel": 3,
      "note": 86,
      "start": 32.6542,
      "duration": 0.3696,
      "velocity": 119,
      "chip": "ym2612"
    },
    {
      "channel": 0,
      "note": 86,
      "start": 32.7077,
      "duration": 0.2099,
      "velocity": 97,
      "chip": "ym2612"
    },
    {
      "channel": 1,
      "note": 86,
      "start": 32.8129,
      "duration": 0.21,
      "velocity": 97,
      "chip": "ym2612"
    },
    {
      "channel": 2,
      "note": 86,
      "start": 32.8134,
      "duration": 0.21,
      "velocity": 97,
      "chip": "ym2612"
    },
    {
      "channel": 0,
      "note": 86,
      "start": 32.918,
      "duration": 0.1489,
      "velocity": 97,
      "chip": "ym2612"
    },
    {
      "channel": 1,
      "note": 89,
      "start": 33.0233,
      "duration": 0.1488,
      "velocity": 97,
      "chip": "ym2612"
    },
    {
      "channel": 2,
      "note": 86,
      "start": 33.0238,
      "duration": 0.1488,
      "velocity": 97,
      "chip": "ym2612"
    },
    {
      "channel": 3,
      "note": 84,
      "start": 33.024,
      "duration": 0.3592,
      "velocity": 119,
      "chip": "ym2612"
    },
    {
      "channel": 4,
      "note": 53,
      "start": 33.0243,
      "duration": 2.1139,
      "velocity": 114,
      "chip": "ym2612"
    },
    {
      "channel": 0,
      "note": 86,
      "start": 33.0672,
      "duration": 0.2099,
      "velocity": 97,
      "chip": "ym2612"
    },
    {
      "channel": 1,
      "note": 89,
      "start": 33.1724,
      "duration": 0.2099,
      "velocity": 97,
      "chip": "ym2612"
    },
    {
      "channel": 2,
      "note": 86,
      "start": 33.1729,
      "duration": 0.2099,
      "velocity": 97,
      "chip": "ym2612"
    },
    {
      "channel": 0,
      "note": 89,
      "start": 33.2775,
      "duration": 0.1184,
      "velocity": 97,
      "chip": "ym2612"
    },
    {
      "channel": 1,
      "note": 89,
      "start": 33.3827,
      "duration": 0.0251,
      "velocity": 97,
      "chip": "ym2612"
    },
    {
      "channel": 2,
      "note": 86,
      "start": 33.3831,
      "duration": 0.0251,
      "velocity": 97,
      "chip": "ym2612"
    },
    {
      "channel": 3,
      "note": 81,
      "start": 33.3834,
      "duration": 0.0253,
      "velocity": 119,
      "chip": "ym2612"
    },
    {
      "channel": 0,
      "note": 89,
      "start": 33.3962,
      "duration": 0.0574,
      "velocity": 97,
      "chip": "ym2612"
    },
    {
      "channel": 1,
      "note": 89,
      "start": 33.4081,
      "duration": 0.1507,
      "velocity": 97,
      "chip": "ym2612"
    },
    {
      "channel": 2,
      "note": 89,
      "start": 33.4086,
      "duration": 0.1507,
      "velocity": 97,
      "chip": "ym2612"
    },
    {
      "channel": 3,
      "note": 84,
      "start": 33.4089,
      "duration": 0.1769,
      "velocity": 119,
      "chip": "ym2612"
    },
    {
      "channel": 0,
      "note": 89,
      "start": 33.4539,
      "duration": 0.1189,
      "velocity": 97,
      "chip": "ym2612"
    },
    {
      "channel": 1,
      "note": 89,
      "start": 33.5591,
      "duration": 0.0258,
      "velocity": 97,
      "chip": "ym2612"
    },
    {
      "channel": 2,
      "note": 89,
      "start": 33.5596,
      "duration": 0.0258,
      "velocity": 97,
      "chip": "ym2612"
    },
    {
      "channel": 0,
      "note": 89,
      "start": 33.5732,
      "duration": 0.1076,
      "velocity": 97,
      "chip": "ym2612"
    },
    {
      "channel": 1,
      "note": 89,
      "start": 33.5852,
      "duration": 0.2007,
      "velocity": 97,
      "chip": "ym2612"
    },
    {
      "channel": 2,
      "note": 89,
      "start": 33.5857,
      "duration": 0.2007,
      "velocity": 97,
      "chip": "ym2612"
    },
    {
      "channel": 3,
      "note": 88,
      "start": 33.586,
      "duration": 0.2009,
      "velocity": 119,
      "chip": "ym2612"
    },
    {
      "channel": 0,
      "note": 89,
      "start": 33.681,
      "duration": 0.1489,
      "velocity": 97,
      "chip": "ym2612"
    },
    {
      "channel": 1,
      "note": 88,
      "start": 33.7863,
      "duration": 0.1489,
      "velocity": 97,
      "chip": "ym2612"
    },
    {
      "channel": 2,
      "note": 89,
      "start": 33.7867,
      "duration": 0.1489,
      "velocity": 97,
      "chip": "ym2612"
    },
    {
      "channel": 3,
      "note": 81,
      "start": 33.787,
      "duration": 0.2983,
      "velocity": 119,
      "chip": "ym2612"
    },
    {
      "channel": 0,
      "note": 89,
      "start": 33.8303,
      "duration": 0.1489,
      "velocity": 97,
      "chip": "ym2612"
    },
    {
      "channel": 1,
      "note": 88,
      "start": 33.9355,
      "duration": 0.1489,
      "velocity": 97,
      "chip": "ym2612"
    },
    {
      "channel": 2,
      "note": 89,
      "start": 33.9359,
      "duration": 0.1488,
      "velocity": 97,
      "chip": "ym2612"
    },
    {
      "channel": 0,
      "note": 88,
      "start": 33.9795,
      "duration": 0.1489,
      "velocity": 97,
      "chip": "ym2612"
    },
    {
      "channel": 1,
      "note": 89,
      "start": 34.0847,
      "duration": 0.1489,
      "velocity": 97,
      "chip": "ym2612"
    },
    {
      "channel": 2,
      "note": 89,
      "start": 34.0851,
      "duration": 0.1489,
      "velocity": 97,
      "chip": "ym2612"
    },
    {
      "channel": 3,
      "note": 84,
      "start": 34.0854,
      "duration": 0.3593,
      "velocity": 119,
      "chip": "ym2612"
    },
    {
      "channel": 0,
      "note": 88,
      "start": 34.1287,
      "duration": 0.2099,
      "velocity": 97,
      "chip": "ym2612"
    },
    {
      "channel": 1,
      "note": 89,
      "start": 34.2339,
      "duration": 0.2099,
      "velocity": 97,
      "chip": "ym2612"
    },
    {
      "channel": 2,
      "note": 88,
      "start": 34.2344,
      "duration": 0.2099,
      "velocity": 97,
      "chip": "ym2612"
    },
    {
      "channel": 0,
      "note": 89,
      "start": 34.339,
      "duration": 0.1184,
      "velocity": 97,
      "chip": "ym2612"
    },
    {
      "channel": 1,
      "note": 88,
      "start": 34.4442,
      "duration": 0.0249,
      "velocity": 97,
      "chip": "ym2612"
    },
    {
      "channel": 2,
      "note": 88,
      "start": 34.4446,
      "duration": 0.0249,
      "velocity": 97,
      "chip": "ym2612"
    },
    {
      "channel": 3,
      "note": 81,
      "start": 34.4449,
      "duration": 0.0251,
      "velocity": 119,
      "chip": "ym2612"
    },
    {
      "channel": 0,
      "note": 89,
      "start": 34.4577,
      "duration": 0.0573,
      "velocity": 97,
      "chip": "ym2612"
    },
    {
      "channel": 1,
      "note": 88,
      "start": 34.4694,
      "duration": 0.1507,
      "velocity": 97,
      "chip": "ym2612"
    },
    {
      "channel": 2,
      "note": 89,
      "start": 34.4699,
      "duration": 0.1507,
      "velocity": 97,
      "chip": "ym2612"
    },
    {
      "channel": 3,
      "note": 84,
      "start": 34.4702,
      "duration": 0.177,
      "velocity": 119,
      "chip": "ym2612"
    },
    {
      "channel": 0,
      "note": 88,
      "start": 34.5153,
      "duration": 0.1189,
      "velocity": 97,
      "chip": "ym2612"
    },
    {
      "channel": 1,
      "note": 84,
      "start": 34.6205,
      "duration": 0.0257,
      "velocity": 97,
      "chip": "ym2612"
    },
    {
      "channel": 2,
      "note": 89,
      "start": 34.621,
      "duration": 0.0258,
      "velocity": 97,
      "chip": "ym2612"
    },
    {
      "channel": 0,
      "note": 88,
      "start": 34.6346,
      "duration": 0.0241,
      "velocity": 97,
      "chip": "ym2612"
    },
    {
      "channel": 1,
      "note": 84,
      "start": 34.6466,
      "duration": 0.0685,
      "velocity": 97,
      "chip": "ym2612"
    },
    {
      "channel": 2,
      "note": 88,
      "start": 34.6471,
      "duration": 0.0685,
      "velocity": 97,
      "chip": "ym2612"
    },
    {
      "channel": 3,
      "note": 88,
      "start": 34.6473,
      "duration": 0.0687,
      "velocity": 119,
      "chip": "ym2612"
    },
    {
      "channel": 0,
      "note": 84,
      "start": 34.659,
      "duration": 0.1612,
      "velocity": 97,
      "chip": "ym2612"
    },
    {
      "channel": 1,
      "note": 85,
      "start": 34.7155,
      "duration": 0.2099,
      "velocity": 97,
      "chip": "ym2612"
    },
    {
      "channel": 2,
      "note": 88,
      "start": 34.7159,
      "duration": 0.2099,
      "velocity": 97,
      "chip": "ym2612"
    },
    {
      "channel": 3,
      "note": 81,
      "start": 34.7162,
      "duration": 0.4205,
      "velocity": 119,
      "chip": "ym2612"
    },
    {
      "channel": 0,
      "note": 84,
      "start": 34.8205,
      "duration": 0.21,
      "velocity": 97,
      "chip": "ym2612"
    },
    {
      "channel": 1,
      "note": 85,
      "start": 34.9258,
      "duration": 0.21,
      "velocity": 97,
      "chip": "ym2612"
    },
    {
      "channel": 2,
      "note": 84,
      "start": 34.9262,
      "duration": 0.21,
      "velocity": 97,
      "chip": "ym2612"
    },
    {
      "channel": 0,
      "note": 85,
      "start": 35.0308,
      "duration": 0.1489,
      "velocity": 97,
      "chip": "ym2612"
    },
    {
      "channel": 1,
      "note": 86,
      "start": 35.1361,
      "duration": 0.1488,
      "velocity": 97,
      "chip": "ym2612"
    },
    {
      "channel": 2,
      "note": 84,
      "start": 35.1366,
      "duration": 0.1488,
      "velocity": 97,
      "chip": "ym2612"
    },
    {
      "channel": 3,
      "note": 81,
      "start": 35.1381,
      "duration": 0.358,
      "velocity": 119,
      "chip": "ym2612"
    },
    {
      "channel": 4,
      "note": 50,
      "start": 35.1383,
      "duration": 2.2646,
      "velocity": 114,
      "chip": "ym2612"
    },
    {
      "channel": 0,
      "note": 85,
      "start": 35.1801,
      "duration": 0.2099,
      "velocity": 97,
      "chip": "ym2612"
    },
    {
      "channel": 1,
      "note": 86,
      "start": 35.2853,
      "duration": 0.2099,
      "velocity": 97,
      "chip": "ym2612"
    },
    {
      "channel": 2,
      "note": 85,
      "start": 35.2857,
      "duration": 0.2099,
      "velocity": 97,
      "chip": "ym2612"
    },
    {
      "channel": 0,
      "note": 86,
      "start": 35.3903,
      "duration": 0.1183,
      "velocity": 97,
      "chip": "ym2612"
    },
    {
      "channel": 1,
      "note": 86,
      "start": 35.4955,
      "duration": 0.025,
      "velocity": 97,
      "chip": "ym2612"
    },
    {
      "channel": 2,
      "note": 85,
      "start": 35.496,
      "duration": 0.025,
      "velocity": 97,
      "chip": "ym2612"
    },
    {
      "channel": 3,
      "note": 84,
      "start": 35.4963,
      "duration": 0.0252,
      "velocity": 119,
      "chip": "ym2612"
    },
    {
      "channel": 0,
      "note": 86,
      "start": 35.509,
      "duration": 0.0574,
      "velocity": 97,
      "chip": "ym2612"
    },
    {
      "channel": 1,
      "note": 86,
      "start": 35.5209,
      "duration": 0.1507,
      "velocity": 97,
      "chip": "ym2612"
    },
    {
      "channel": 2,
      "note": 86,
      "start": 35.5213,
      "duration": 0.1507,
      "velocity": 97,
      "chip": "ym2612"
    },
    {
      "channel": 3,
      "note": 86,
      "start": 35.5216,
      "duration": 0.1773,
      "velocity": 119,
      "chip": "ym2612"
    },
    {
      "channel": 0,
      "note": 86,
      "start": 35.5668,
      "duration": 0.119,
      "velocity": 97,
      "chip": "ym2612"
    },
    {
      "channel": 1,
      "note": 86,
      "start": 35.672,
      "duration": 0.026,
      "velocity": 97,
      "chip": "ym2612"
    },
    {
      "channel": 2,
      "note": 86,
      "start": 35.6724,
      "duration": 0.026,
      "velocity": 97,
      "chip": "ym2612"
    },
    {
      "channel": 0,
      "note": 86,
      "start": 35.6861,
      "duration": 0.1077,
      "velocity": 97,
      "chip": "ym2612"
    },
    {
      "channel": 1,
      "note": 86,
      "start": 35.6983,
      "duration": 0.2007,
      "velocity": 97,
      "chip": "ym2612"
    },
    {
      "channel": 2,
      "note": 86,
      "start": 35.6988,
      "duration": 0.2007,
      "velocity": 97,
      "chip": "ym2612"
    },
    {
      "channel": 3,
      "note": 84,
      "start": 35.699,
      "duration": 0.2009,
      "velocity": 119,
      "chip": "ym2612"
    },
    {
      "channel": 0,
      "note": 86,
      "start": 35.7941,
      "duration": 0.1489,
      "velocity": 97,
      "chip": "ym2612"
    },
    {
      "channel": 1,
      "note": 86,
      "start": 35.8993,
      "duration": 0.1489,
      "velocity": 97,
      "chip": "ym2612"
    },
    {
      "channel": 2,
      "note": 86,
      "start": 35.8998,
      "duration": 0.1489,
      "velocity": 97,
      "chip": "ym2612"
    },
    {
      "channel": 3,
      "note": 86,
      "start": 35.9001,
      "duration": 0.1491,
      "velocity": 119,
      "chip": "ym2612"
    },
    {
      "channel": 0,
      "note": 86,
      "start": 35.9434,
      "duration": 0.1489,
      "velocity": 97,
      "chip": "ym2612"
    },
    {
      "channel": 1,
      "note": 86,
      "start": 36.0486,
      "duration": 0.1489,
      "velocity": 97,
      "chip": "ym2612"
    },
    {
      "channel": 2,
      "note": 86,
      "start": 36.049,
      "duration": 0.1489,
      "velocity": 97,
      "chip": "ym2612"
    },
    {
      "channel": 3,
      "note": 84,
      "start": 36.0493,
      "duration": 0.1491,
      "velocity": 119,
      "chip": "ym2612"
    },
    {
      "channel": 0,
      "note": 86,
      "start": 36.0927,
      "duration": 0.1489,
      "velocity": 97,
      "chip": "ym2612"
    },
    {
      "channel": 1,
      "note": 81,
      "start": 36.1978,
      "duration": 0.1489,
      "velocity": 97,
      "chip": "ym2612"
    },
    {
      "channel": 2,
      "note": 86,
      "start": 36.1983,
      "duration": 0.1489,
      "velocity": 97,
      "chip": "ym2612"
    },
    {
      "channel": 3,
      "note": 81,
      "start": 36.1986,
      "duration": 0.3593,
      "velocity": 119,
      "chip": "ym2612"
    },
    {
      "channel": 0,
      "note": 86,
      "start": 36.2419,
      "duration": 0.2099,
      "velocity": 97,
      "chip": "ym2612"
    },
    {
      "channel": 1,
      "note": 81,
      "start": 36.3471,
      "duration": 0.21,
      "velocity": 97,
      "chip": "ym2612"
    },
    {
      "channel": 2,
      "note": 86,
      "start": 36.3475,
      "duration": 0.2099,
      "velocity": 97,
      "chip": "ym2612"
    },
    {
      "channel": 0,
      "note": 81,
      "start": 36.4521,
      "duration": 0.1184,
      "velocity": 97,
      "chip": "ym2612"
    },
    {
      "channel": 1,
      "note": 81,
      "start": 36.5573,
      "duration": 0.025,
      "velocity": 97,
      "chip": "ym2612"
    },
    {
      "channel": 2,
      "note": 86,
      "start": 36.5578,
      "duration": 0.025,
      "velocity": 97,
      "chip": "ym2612"
    },
    {
      "channel": 3,
      "note": 84,
      "start": 36.5581,
      "duration": 0.0251,
      "velocity": 119,
      "chip": "ym2612"
    },
    {
      "channel": 0,
      "note": 81,
      "start": 36.5709,
      "duration": 0.0574,
      "velocity": 97,
      "chip": "ym2612"
    },
    {
      "channel": 1,
      "note": 81,
      "start": 36.5827,
      "duration": 0.1508,
      "velocity": 97,
      "chip": "ym2612"
    },
    {
      "channel": 2,
      "note": 81,
      "start": 36.5831,
      "duration": 0.1508,
      "velocity": 97,
      "chip": "ym2612"
    },
    {
      "channel": 3,
      "note": 86,
      "start": 36.5834,
      "duration": 0.2392,
      "velocity": 119,
      "chip": "ym2612"
    },
    {
      "channel": 0,
      "note": 81,
      "start": 36.6286,
      "duration": 0.1181,
      "velocity": 97,
      "chip": "ym2612"
    },
    {
      "channel": 1,
      "note": 86,
      "start": 36.7338,
      "duration": 0.0878,
      "velocity": 97,
      "chip": "ym2612"
    },
    {
      "channel": 2,
      "note": 81,
      "start": 36.7343,
      "duration": 0.0878,
      "velocity": 97,
      "chip": "ym2612"
    },
    {
      "channel": 0,
      "note": 81,
      "start": 36.7471,
      "duration": 0.1797,
      "velocity": 97,
      "chip": "ym2612"
    },
    {
      "channel": 1,
      "note": 86,
      "start": 36.822,
      "duration": 0.2099,
      "velocity": 97,
      "chip": "ym2612"
    },
    {
      "channel": 2,
      "note": 81,
      "start": 36.8224,
      "duration": 0.2099,
      "velocity": 97,
      "chip": "ym2612"
    },
    {
      "channel": 3,
      "note": 81,
      "start": 36.8227,
      "duration": 0.2101,
      "velocity": 119,
      "chip": "ym2612"
    },
    {
      "channel": 0,
      "note": 86,
      "start": 36.9271,
      "duration": 0.1591,
      "velocity": 97,
      "chip": "ym2612"
    },
    {
      "channel": 1,
      "note": 86,
      "start": 37.0322,
      "duration": 0.1591,
      "velocity": 97,
      "chip": "ym2612"
    },
    {
      "channel": 2,
      "note": 81,
      "start": 37.0327,
      "duration": 0.1591,
      "velocity": 97,
      "chip": "ym2612"
    },
    {
      "channel": 3,
      "note": 86,
      "start": 37.033,
      "duration": 0.3697,
      "velocity": 119,
      "chip": "ym2612"
    },
    {
      "channel": 0,
      "note": 86,
      "start": 37.0865,
      "duration": 0.2099,
      "velocity": 97,
      "chip": "ym2612"
    },
    {
      "channel": 1,
      "note": 86,
      "start": 37.1917,
      "duration": 0.2101,
      "velocity": 97,
      "chip": "ym2612"
    },
    {
      "channel": 2,
      "note": 86,
      "start": 37.1921,
      "duration": 0.2101,
      "velocity": 97,
      "chip": "ym2612"
    },
    {
      "channel": 0,
      "note": 86,
      "start": 37.2967,
      "duration": 0.1489,
      "velocity": 97,
      "chip": "ym2612"
    },
    {
      "channel": 1,
      "note": 84,
      "start": 37.4021,
      "duration": 0.1488,
      "velocity": 97,
      "chip": "ym2612"
    },
    {
      "channel": 2,
      "note": 86,
      "start": 37.4025,
      "duration": 0.1488,
      "velocity": 97,
      "chip": "ym2612"
    },
    {
      "channel": 3,
      "note": 84,
      "start": 37.4028,
      "duration": 0.3592,
      "velocity": 119,
      "chip": "ym2612"
    },
    {
      "channel": 4,
      "note": 48,
      "start": 37.4031,
      "duration": 2.1143,
      "velocity": 114,
      "chip": "ym2612"
    },
    {
      "channel": 0,
      "note": 86,
      "start": 37.446,
      "duration": 0.2099,
      "velocity": 97,
      "chip": "ym2612"
    },
    {
      "channel": 1,
      "note": 84,
      "start": 37.5512,
      "duration": 0.2099,
      "velocity": 97,
      "chip": "ym2612"
    },
    {
      "channel": 2,
      "note": 86,
      "start": 37.5517,
      "duration": 0.2099,
      "velocity": 97,
      "chip": "ym2612"
    },
    {
      "channel": 0,
      "note": 84,
      "start": 37.6563,
      "duration": 0.1183,
      "velocity": 97,
      "chip": "ym2612"
    },
    {
      "channel": 1,
      "note": 84,
      "start": 37.7615,
      "duration": 0.0251,
      "velocity": 97,
      "chip": "ym2612"
    },
    {
      "channel": 2,
      "note": 86,
      "start": 37.7619,
      "duration": 0.025,
      "velocity": 97,
      "chip": "ym2612"
    },
    {
      "channel": 3,
      "note": 81,
      "start": 37.7622,
      "duration": 0.0252,
      "velocity": 119,
      "chip": "ym2612"
    },
    {
      "channel": 0,
      "note": 84,
      "start": 37.7749,
      "duration": 0.0574,
      "velocity": 97,
      "chip": "ym2612"
    },
    {
      "channel": 1,
      "note": 84,
      "start": 37.7868,
      "duration": 0.1507,
      "velocity": 97,
      "chip": "ym2612"
    },
    {
      "channel": 2,
      "note": 84,
      "start": 37.7873,
      "duration": 0.1507,
      "velocity": 97,
      "chip": "ym2612"
    },
    {
      "channel": 3,
      "note": 84,
      "start": 37.7876,
      "duration": 0.1772,
      "velocity": 119,
      "chip": "ym2612"
    },
    {
      "channel": 0,
      "note": 84,
      "start": 37.8327,
      "duration": 0.1189,
      "velocity": 97,
      "chip": "ym2612"
    },
    {
      "channel": 1,
      "note": 84,
      "start": 37.9379,
      "duration": 0.026,
      "velocity": 97,
      "chip": "ym2612"
    },
    {
      "channel": 2,
      "note": 84,
      "start": 37.9383,
      "duration": 0.026,
      "velocity": 97,
      "chip": "ym2612"
    },
    {
      "channel": 0,
      "note": 84,
      "start": 37.952,
      "duration": 0.1077,
      "velocity": 97,
      "chip": "ym2612"
    },
    {
      "channel": 1,
      "note": 84,
      "start": 37.9642,
      "duration": 0.2007,
      "velocity": 97,
      "chip": "ym2612"
    },
    {
      "channel": 2,
      "note": 84,
      "start": 37.9646,
      "duration": 0.2007,
      "velocity": 97,
      "chip": "ym2612"
    },
    {
      "channel": 3,
      "note": 88,
      "start": 37.9649,
      "duration": 0.2009,
      "velocity": 119,
      "chip": "ym2612"
    },
    {
      "channel": 0,
      "note": 84,
      "start": 38.06,
      "duration": 0.1489,
      "velocity": 97,
      "chip": "ym2612"
    },
    {
      "channel": 1,
      "note": 83,
      "start": 38.1652,
      "duration": 0.1489,
      "velocity": 97,
      "chip": "ym2612"
    },
    {
      "channel": 2,
      "note": 84,
      "start": 38.1656,
      "duration": 0.1489,
      "velocity": 97,
      "chip": "ym2612"
    },
    {
      "channel": 3,
      "note": 81,
      "start": 38.1659,
      "duration": 0.2983,
      "velocity": 119,
      "chip": "ym2612"
    },
    {
      "channel": 0,
      "note": 84,
      "start": 38.2093,
      "duration": 0.1489,
      "velocity": 97,
      "chip": "ym2612"
    },
    {
      "channel": 1,
      "note": 83,
      "start": 38.3144,
      "duration": 0.1489,
      "velocity": 97,
      "chip": "ym2612"
    },
    {
      "channel": 2,
      "note": 84,
      "start": 38.3149,
      "duration": 0.1489,
      "velocity": 97,
      "chip": "ym2612"
    },
    {
      "channel": 0,
      "note": 83,
      "start": 38.3585,
      "duration": 0.1489,
      "velocity": 97,
      "chip": "ym2612"
    },
    {
      "channel": 1,
      "note": 84,
      "start": 38.4637,
      "duration": 0.1489,
      "velocity": 97,
      "chip": "ym2612"
    },
    {
      "channel": 2,
      "note": 84,
      "start": 38.4641,
      "duration": 0.1489,
      "velocity": 97,
      "chip": "ym2612"
    },
    {
      "channel": 3,
      "note": 84,
      "start": 38.4644,
      "duration": 0.3593,
      "velocity": 119,
      "chip": "ym2612"
    },
    {
      "channel": 0,
      "note": 83,
      "start": 38.5077,
      "duration": 0.2099,
      "velocity": 97,
      "chip": "ym2612"
    },
    {
      "channel": 1,
      "note": 84,
      "start": 38.6129,
      "duration": 0.2099,
      "velocity": 97,
      "chip": "ym2612"
    },
    {
      "channel": 2,
      "note": 83,
      "start": 38.6134,
      "duration": 0.2099,
      "velocity": 97,
      "chip": "ym2612"
    },
    {
      "channel": 0,
      "note": 84,
      "start": 38.718,
      "duration": 0.1183,
      "velocity": 97,
      "chip": "ym2612"
    },
    {
      "channel": 1,
      "note": 83,
      "start": 38.8232,
      "duration": 0.0249,
      "velocity": 97,
      "chip": "ym2612"
    },
    {
      "channel": 2,
      "note": 83,
      "start": 38.8236,
      "duration": 0.0249,
      "velocity": 97,
      "chip": "ym2612"
    },
    {
      "channel": 3,
      "note": 81,
      "start": 38.8239,
      "duration": 0.0251,
      "velocity": 119,
      "chip": "ym2612"
    },
    {
      "channel": 0,
      "note": 84,
      "start": 38.8367,
      "duration": 0.0573,
      "velocity": 97,
      "chip": "ym2612"
    },
    {
      "channel": 1,
      "note": 83,
      "start": 38.8484,
      "duration": 0.1508,
      "velocity": 97,
      "chip": "ym2612"
    },
    {
      "channel": 2,
      "note": 84,
      "start": 38.8489,
      "duration": 0.1507,
      "velocity": 97,
      "chip": "ym2612"
    },
    {
      "channel": 3,
      "note": 84,
      "start": 38.8491,
      "duration": 0.1771,
      "velocity": 119,
      "chip": "ym2612"
    },
    {
      "channel": 0,
      "note": 83,
      "start": 38.8943,
      "duration": 0.119,
      "velocity": 97,
      "chip": "ym2612"
    },
    {
      "channel": 1,
      "note": 79,
      "start": 38.9995,
      "duration": 0.0258,
      "velocity": 97,
      "chip": "ym2612"
    },
    {
      "channel": 2,
      "note": 84,
      "start": 39.0,
      "duration": 0.0257,
      "velocity": 97,
      "chip": "ym2612"
    },
    {
      "channel": 0,
      "note": 83,
      "start": 39.0136,
      "duration": 0.0241,
      "velocity": 97,
      "chip": "ym2612"
    },
    {
      "channel": 1,
      "note": 79,
      "start": 39.0256,
      "duration": 0.0687,
      "velocity": 97,
      "chip": "ym2612"
    },
    {
      "channel": 2,
      "note": 83,
      "start": 39.0261,
      "duration": 0.0687,
      "velocity": 97,
      "chip": "ym2612"
    },
    {
      "channel": 3,
      "note": 88,
      "start": 39.0263,
      "duration": 0.0689,
      "velocity": 119,
      "chip": "ym2612"
    },
    {
      "channel": 0,
      "note": 79,
      "start": 39.0381,
      "duration": 0.1612,
      "velocity": 97,
      "chip": "ym2612"
    },
    {
      "channel": 1,
      "note": 83,
      "start": 39.0946,
      "duration": 0.2099,
      "velocity": 97,
      "chip": "ym2612"
    },
    {
      "channel": 2,
      "note": 83,
      "start": 39.0951,
      "duration": 0.2099,
      "velocity": 97,
      "chip": "ym2612"
    },
    {
      "channel": 3,
      "note": 81,
      "start": 39.0954,
      "duration": 0.4205,
      "velocity": 119,
      "chip": "ym2612"
    },
    {
      "channel": 0,
      "note": 79,
      "start": 39.1997,
      "duration": 0.21,
      "velocity": 97,
      "chip": "ym2612"
    },
    {
      "channel": 1,
      "note": 83,
      "start": 39.3049,
      "duration": 0.2101,
      "velocity": 97,
      "chip": "ym2612"
    },
    {
      "channel": 2,
      "note": 79,
      "start": 39.3054,
      "duration": 0.2101,
      "velocity": 97,
      "chip": "ym2612"
    },
    {
      "channel": 0,
      "note": 83,
      "start": 39.41,
      "duration": 0.1489,
      "velocity": 97,
      "chip": "ym2612"
    },
    {
      "channel": 1,
      "note": 83,
      "start": 39.5153,
      "duration": 0.1488,
      "velocity": 97,
      "chip": "ym2612"
    },
    {
      "channel": 2,
      "note": 79,
      "start": 39.5158,
      "duration": 0.1488,
      "velocity": 97,
      "chip": "ym2612"
    },
    {
      "channel": 3,
      "note": 81,
      "start": 39.5172,
      "duration": 0.358,
      "velocity": 119,
      "chip": "ym2612"
    },
    {
      "channel": 4,
      "note": 47,
      "start": 39.5175,
      "duration": 2.2646,
      "velocity": 114,
      "chip": "ym2612"
    },
    {
      "channel": 0,
      "note": 83,
      "start": 39.5592,
      "duration": 0.2099,
      "velocity": 97,
      "chip": "ym2612"
    },
    {
      "channel": 1,
      "note": 83,
      "start": 39.6644,
      "duration": 0.2099,
      "velocity": 97,
      "chip": "ym2612"
    },
    {
      "channel": 2,
      "note": 83,
      "start": 39.6649,
      "duration": 0.2099,
      "velocity": 97,
      "chip": "ym2612"
    },
    {
      "channel": 0,
      "note": 83,
      "start": 39.7695,
      "duration": 0.1184,
      "velocity": 97,
      "chip": "ym2612"
    },
    {
      "channel": 1,
      "note": 83,
      "start": 39.8747,
      "duration": 0.0251,
      "velocity": 97,
      "chip": "ym2612"
    },
    {
      "channel": 2,
      "note": 83,
      "start": 39.8751,
      "duration": 0.0251,
      "velocity": 97,
      "chip": "ym2612"
    },
    {
      "channel": 3,
      "note": 84,
      "start": 39.8754,
      "duration": 0.0253,
      "velocity": 119,
      "chip": "ym2612"
    },
    {
      "channel": 0,
      "note": 83,
      "start": 39.8882,
      "duration": 0.0574,
      "velocity": 97,
      "chip": "ym2612"
    },
    {
      "channel": 1,
      "note": 83,
      "start": 39.9001,
      "duration": 0.1507,
      "velocity": 97,
      "chip": "ym2612"
    },
    {
      "channel": 2,
      "note": 83,
      "start": 39.9005,
      "duration": 0.1507,
      "velocity": 97,
      "chip": "ym2612"
    },
    {
      "channel": 3,
      "note": 86,
      "start": 39.9008,
      "duration": 0.1772,
      "velocity": 119,
      "chip": "ym2612"
    },
    {
      "channel": 0,
      "note": 83,
      "start": 39.9459,
      "duration": 0.119,
      "velocity": 97,
      "chip": "ym2612"
    },
    {
      "channel": 1,
      "note": 83,
      "start": 40.0511,
      "duration": 0.026,
      "velocity": 97,
      "chip": "ym2612"
    },
    {
      "channel": 2,
      "note": 83,
      "start": 40.0516,
      "duration": 0.026,
      "velocity": 97,
      "chip": "ym2612"
    },
    {
      "channel": 0,
      "note": 83,
      "start": 40.0652,
      "duration": 0.1077,
      "velocity": 97,
      "chip": "ym2612"
    },
    {
      "channel": 1,
      "note": 83,
      "start": 40.0775,
      "duration": 0.2007,
      "velocity": 97,
      "chip": "ym2612"
    },
    {
      "channel": 2,
      "note": 83,
      "start": 40.0779,
      "duration": 0.2007,
      "velocity": 97,
      "chip": "ym2612"
    },
    {
      "channel": 3,
      "note": 84,
      "start": 40.0782,
      "duration": 0.2009,
      "velocity": 119,
      "chip": "ym2612"
    },
    {
      "channel": 0,
      "note": 83,
      "start": 40.1733,
      "duration": 0.1489,
      "velocity": 97,
      "chip": "ym2612"
    },
    {
      "channel": 1,
      "note": 83,
      "start": 40.2785,
      "duration": 0.1489,
      "velocity": 97,
      "chip": "ym2612"
    },
    {
      "channel": 2,
      "note": 83,
      "start": 40.2789,
      "duration": 0.1489,
      "velocity": 97,
      "chip": "ym2612"
    },
    {
      "channel": 3,
      "note": 86,
      "start": 40.2792,
      "duration": 0.1491,
      "velocity": 119,
      "chip": "ym2612"
    },
    {
      "channel": 0,
      "note": 83,
      "start": 40.3225,
      "duration": 0.1489,
      "velocity": 97,
      "chip": "ym2612"
    },
    {
      "channel": 1,
      "note": 83,
      "start": 40.4277,
      "duration": 0.1489,
      "velocity": 97,
      "chip": "ym2612"
    },
    {
      "channel": 2,
      "note": 83,
      "start": 40.4282,
      "duration": 0.1489,
      "velocity": 97,
      "chip": "ym2612"
    },
    {
      "channel": 3,
      "note": 84,
      "start": 40.4285,
      "duration": 0.149,
      "velocity": 119,
      "chip": "ym2612"
    },
    {
      "channel": 0,
      "note": 83,
      "start": 40.4718,
      "duration": 0.1489,
      "velocity": 97,
      "chip": "ym2612"
    },
    {
      "channel": 1,
      "note": 81,
      "start": 40.577,
      "duration": 0.1489,
      "velocity": 97,
      "chip": "ym2612"
    },
    {
      "channel": 2,
      "note": 83,
      "start": 40.5774,
      "duration": 0.1489,
      "velocity": 97,
      "chip": "ym2612"
    },
    {
      "channel": 3,
      "note": 81,
      "start": 40.5777,
      "duration": 0.3594,
      "velocity": 119,
      "chip": "ym2612"
    },
    {
      "channel": 0,
      "note": 83,
      "start": 40.621,
      "duration": 0.2099,
      "velocity": 97,
      "chip": "ym2612"
    },
    {
      "channel": 1,
      "note": 81,
      "start": 40.7262,
      "duration": 0.21,
      "velocity": 97,
      "chip": "ym2612"
    },
    {
      "channel": 2,
      "note": 83,
      "start": 40.7266,
      "duration": 0.2099,
      "velocity": 97,
      "chip": "ym2612"
    },
    {
      "channel": 0,
      "note": 81,
      "start": 40.8313,
      "duration": 0.1184,
      "velocity": 97,
      "chip": "ym2612"
    },
    {
      "channel": 1,
      "note": 81,
      "start": 40.9365,
      "duration": 0.0249,
      "velocity": 97,
      "chip": "ym2612"
    },
    {
      "channel": 2,
      "note": 83,
      "start": 40.9369,
      "duration": 0.025,
      "velocity": 97,
      "chip": "ym2612"
    },
    {
      "channel": 3,
      "note": 84,
      "start": 40.9372,
      "duration": 0.0251,
      "velocity": 119,
      "chip": "ym2612"
    },
    {
      "channel": 0,
      "note": 81,
      "start": 40.95,
      "duration": 0.0574,
      "velocity": 97,
      "chip": "ym2612"
    },
    {
      "channel": 1,
      "note": 81,
      "start": 40.9618,
      "duration": 0.1508,
      "velocity": 97,
      "chip": "ym2612"
    },
    {
      "channel": 2,
      "note": 81,
      "start": 40.9622,
      "duration": 0.1508,
      "velocity": 97,
      "chip": "ym2612"
    },
    {
      "channel": 3,
      "note": 86,
      "start": 40.9625,
      "duration": 0.2392,
      "velocity": 119,
      "chip": "ym2612"
    },
    {
      "channel": 0,
      "note": 81,
      "start": 41.0077,
      "duration": 0.1181,
      "velocity": 97,
      "chip": "ym2612"
    },
    {
      "channel": 1,
      "note": 79,
      "start": 41.1129,
      "duration": 0.0879,
      "velocity": 97,
      "chip": "ym2612"
    },
    {
      "channel": 2,
      "note": 81,
      "start": 41.1133,
      "duration": 0.0879,
      "velocity": 97,
      "chip": "ym2612"
    },
    {
      "channel": 0,
      "note": 81,
      "start": 41.1262,
      "duration": 0.1797,
      "velocity": 97,
      "chip": "ym2612"
    },
    {
      "channel": 1,
      "note": 79,
      "start": 41.2011,
      "duration": 0.2099,
      "velocity": 97,
      "chip": "ym2612"
    },
    {
      "channel": 2,
      "note": 81,
      "start": 41.2016,
      "duration": 0.2099,
      "velocity": 97,
      "chip": "ym2612"
    },
    {
      "channel": 3,
      "note": 81,
      "start": 41.2019,
      "duration": 0.2101,
      "velocity": 119,
      "chip": "ym2612"
    },
    {
      "channel": 0,
      "note": 79,
      "start": 41.3062,
      "duration": 0.1591,
      "velocity": 97,
      "chip": "ym2612"
    },
    {
      "channel": 1,
      "note": 79,
      "start": 41.4114,
      "duration": 0.1591,
      "velocity": 97,
      "chip": "ym2612"
    },
    {
      "channel": 2,
      "note": 81,
      "start": 41.4118,
      "duration": 0.159,
      "velocity": 97,
      "chip": "ym2612"
    },
    {
      "channel": 3,
      "note": 86,
      "start": 41.4121,
      "duration": 0.3697,
      "velocity": 119,
      "chip": "ym2612"
    },
    {
      "channel": 0,
      "note": 79,
      "start": 41.4656,
      "duration": 0.2099,
      "velocity": 97,
      "chip": "ym2612"
    },
    {
      "channel": 1,
      "note": 79,
      "start": 41.5708,
      "duration": 0.2101,
      "velocity": 97,
      "chip": "ym2612"
    },
    {
      "channel": 2,
      "note": 79,
      "start": 41.5712,
      "duration": 0.2101,
      "velocity": 97,
      "chip": "ym2612"
    },
    {
      "channel": 0,
      "note": 79,
      "start": 41.6759,
      "duration": 0.1489,
      "velocity": 97,
      "chip": "ym2612"
    },
    {
      "channel": 1,
      "note": 81,
      "start": 41.7812,
      "duration": 0.1488,
      "velocity": 97,
      "chip": "ym2612"
    },
    {
      "channel": 2,
      "note": 79,
      "start": 41.7817,
      "duration": 0.1488,
      "velocity": 97,
      "chip": "ym2612"
    },
    {
      "channel": 3,
      "note": 84,
      "start": 41.782,
      "duration": 0.3592,
      "velocity": 119,
      "chip": "ym2612"
    },
    {
      "channel": 4,
      "note": 57,
      "start": 41.7822,
      "duration": 2.1139,
      "velocity": 114,
      "chip": "ym2612"
    },
    {
      "channel": 0,
      "note": 79,
      "start": 41.8251,
      "duration": 0.21,
      "velocity": 97,
      "chip": "ym2612"
    },
    {
      "channel": 1,
      "note": 81,
      "start": 41.9303,
      "duration": 0.2099,
      "velocity": 97,
      "chip": "ym2612"
    },
    {
      "channel": 2,
      "note": 79,
      "start": 41.9307,
      "duration": 0.2099,
      "velocity": 97,
      "chip": "ym2612"
    },
    {
      "channel": 0,
      "note": 81,
      "start": 42.0354,
      "duration": 0.1183,
      "velocity": 97,
      "chip": "ym2612"
    },
    {
      "channel": 1,
      "note": 81,
      "start": 42.1406,
      "duration": 0.025,
      "velocity": 97,
      "chip": "ym2612"
    },
    {
      "channel": 2,
      "note": 79,
      "start": 42.141,
      "duration": 0.025,
      "velocity": 97,
      "chip": "ym2612"
    },
    {
      "channel": 3,
      "note": 81,
      "start": 42.1413,
      "duration": 0.0252,
      "velocity": 119,
      "chip": "ym2612"
    },
    {
      "channel": 0,
      "note": 81,
      "start": 42.1541,
      "duration": 0.0574,
      "velocity": 97,
      "chip": "ym2612"
    },
    {
      "channel": 1,
      "note": 81,
      "start": 42.1659,
      "duration": 0.1507,
      "velocity": 97,
      "chip": "ym2612"
    },
    {
      "channel": 2,
      "note": 81,
      "start": 42.1664,
      "duration": 0.1507,
      "velocity": 97,
      "chip": "ym2612"
    },
    {
      "channel": 3,
      "note": 84,
      "start": 42.1667,
      "duration": 0.1771,
      "velocity": 119,
      "chip": "ym2612"
    },
    {
      "channel": 0,
      "note": 81,
      "start": 42.2118,
      "duration": 0.1189,
      "velocity": 97,
      "chip": "ym2612"
    },
    {
      "channel": 1,
      "note": 81,
      "start": 42.3169,
      "duration": 0.026,
      "velocity": 97,
      "chip": "ym2612"
    },
    {
      "channel": 2,
      "note": 81,
      "start": 42.3174,
      "duration": 0.026,
      "velocity": 97,
      "chip": "ym2612"
    },
    {
      "channel": 0,
      "note": 81,
      "start": 42.331,
      "duration": 0.1078,
      "velocity": 97,
      "chip": "ym2612"
    },
    {
      "channel": 1,
      "note": 81,
      "start": 42.3432,
      "duration": 0.2007,
      "velocity": 97,
      "chip": "ym2612"
    },
    {
      "channel": 2,
      "note": 81,
      "start": 42.3437,
      "duration": 0.2007,
      "velocity": 97,
      "chip": "ym2612"
    },
    {
      "channel": 3,
      "note": 88,
      "start": 42.344,
      "duration": 0.2009,
      "velocity": 119,
      "chip": "ym2612"
    },
    {
      "channel": 0,
      "note": 81,
      "start": 42.4391,
      "duration": 0.1489,
      "velocity": 97,
      "chip": "ym2612"
    },
    {
      "channel": 1,
      "note": 83,
      "start": 42.5443,
      "duration": 0.1489,
      "velocity": 97,
      "chip": "ym2612"
    },
    {
      "channel": 2,
      "note": 81,
      "start": 42.5447,
      "duration": 0.1489,
      "velocity": 97,
      "chip": "ym2612"
    },
    {
      "channel": 3,
      "note": 81,
      "start": 42.545,
      "duration": 0.2983,
      "velocity": 119,
      "chip": "ym2612"
    },
    {
      "channel": 0,
      "note": 81,
      "start": 42.5883,
      "duration": 0.1489,
      "velocity": 97,
      "chip": "ym2612"
    },
    {
      "channel": 1,
      "note": 83,
      "start": 42.6935,
      "duration": 0.1489,
      "velocity": 97,
      "chip": "ym2612"
    },
    {
      "channel": 2,
      "note": 81,
      "start": 42.6939,
      "duration": 0.1489,
      "velocity": 97,
      "chip": "ym2612"
    },
    {
      "channel": 0,
      "note": 83,
      "start": 42.7375,
      "duration": 0.1489,
      "velocity": 97,
      "chip": "ym2612"
    },
    {
      "channel": 1,
      "note": 84,
      "start": 42.8427,
      "duration": 0.1489,
      "velocity": 97,
      "chip": "ym2612"
    },
    {
      "channel": 2,
      "note": 81,
      "start": 42.8432,
      "duration": 0.1489,
      "velocity": 97,
      "chip": "ym2612"
    },
    {
      "channel": 3,
      "note": 84,
      "start": 42.8435,
      "duration": 0.3593,
      "velocity": 119,
      "chip": "ym2612"
    },
    {
      "channel": 0,
      "note": 83,
      "start": 42.8868,
      "duration": 0.2099,
      "velocity": 97,
      "chip": "ym2612"
    },
    {
      "channel": 1,
      "note": 84,
      "start": 42.992,
      "duration": 0.2099,
      "velocity": 97,
      "chip": "ym2612"
    },
    {
      "channel": 2,
      "note": 83,
      "start": 42.9924,
      "duration": 0.2099,
      "velocity": 97,
      "chip": "ym2612"
    },
    {
      "channel": 0,
      "note": 84,
      "start": 43.097,
      "duration": 0.1183,
      "velocity": 97,
      "chip": "ym2612"
    },
    {
      "channel": 1,
      "note": 83,
      "start": 43.2022,
      "duration": 0.0249,
      "velocity": 97,
      "chip": "ym2612"
    },
    {
      "channel": 2,
      "note": 83,
      "start": 43.2027,
      "duration": 0.0249,
      "velocity": 97,
      "chip": "ym2612"
    },
    {
      "channel": 3,
      "note": 81,
      "start": 43.2029,
      "duration": 0.0251,
      "velocity": 119,
      "chip": "ym2612"
    },
    {
      "channel": 0,
      "note": 84,
      "start": 43.2157,
      "duration": 0.0574,
      "velocity": 97,
      "chip": "ym2612"
    },
    {
      "channel": 1,
      "note": 83,
      "start": 43.2275,
      "duration": 0.1508,
      "velocity": 97,
      "chip": "ym2612"
    },
    {
      "channel": 2,
      "note": 84,
      "start": 43.2279,
      "duration": 0.1508,
      "velocity": 97,
      "chip": "ym2612"
    },
    {
      "channel": 3,
      "note": 84,
      "start": 43.2282,
      "duration": 0.1771,
      "velocity": 119,
      "chip": "ym2612"
    },
    {
      "channel": 0,
      "note": 83,
      "start": 43.2734,
      "duration": 0.1189,
      "velocity": 97,
      "chip": "ym2612"
    },
    {
      "channel": 1,
      "note": 88,
      "start": 43.3787,
      "duration": 0.0258,
      "velocity": 97,
      "chip": "ym2612"
    },
    {
      "channel": 2,
      "note": 84,
      "start": 43.3791,
      "duration": 0.0258,
      "velocity": 97,
      "chip": "ym2612"
    },
    {
      "channel": 0,
      "note": 83,
      "start": 43.3927,
      "duration": 0.0242,
      "velocity": 97,
      "chip": "ym2612"
    },
    {
      "channel": 1,
      "note": 88,
      "start": 43.4048,
      "duration": 0.0687,
      "velocity": 97,
      "chip": "ym2612"
    },
    {
      "channel": 2,
      "note": 83,
      "start": 43.4052,
      "duration": 0.0687,
      "velocity": 97,
      "chip": "ym2612"
    },
    {
      "channel": 3,
      "note": 88,
      "start": 43.4055,
      "duration": 0.0689,
      "velocity": 119,
      "chip": "ym2612"
    },
    {
      "channel": 0,
      "note": 88,
      "start": 43.4173,
      "duration": 0.1612,
      "velocity": 97,
      "chip": "ym2612"
    },
    {
      "channel": 1,
      "note": 84,
      "start": 43.4738,
      "duration": 0.2099,
      "velocity": 97,
      "chip": "ym2612"
    },
    {
      "channel": 2,
      "note": 83,
      "start": 43.4742,
      "duration": 0.2097,
      "velocity": 97,
      "chip": "ym2612"
    },
    {
      "channel": 3,
      "note": 81,
      "start": 43.4745,
      "duration": 0.4201,
      "velocity": 119,
      "chip": "ym2612"
    },
    {
      "channel": 0,
      "note": 88,
      "start": 43.5788,
      "duration": 0.2099,
      "velocity": 97,
      "chip": "ym2612"
    },
    {
      "channel": 1,
      "note": 83,
      "start": 43.6838,
      "duration": 0.1054,
      "velocity": 97,
      "chip": "ym2612"
    },
    {
      "channel": 2,
      "note": 88,
      "start": 43.6843,
      "duration": 0.2099,
      "velocity": 97,
      "chip": "ym2612"
    },
    {
      "channel": 0,
      "note": 84,
      "start": 43.7891,
      "duration": 0.1489,
      "velocity": 97,
      "chip": "ym2612"
    },
    {
      "channel": 1,
      "note": 82,
      "start": 43.7893,
      "duration": 0.1046,
      "velocity": 97,
      "chip": "ym2612"
    },
    {
      "channel": 1,
      "note": 81,
      "start": 43.8941,
      "duration": 0.1493,
      "velocity": 97,
      "chip": "ym2612"
    },
    {
      "channel": 2,
      "note": 88,
      "start": 43.8946,
      "duration": 0.1493,
      "velocity": 97,
      "chip": "ym2612"
    },
    {
      "channel": 3,
      "note": 69,
      "start": 43.896,
      "duration": 0.3582,
      "velocity": 119,
      "chip": "ym2612"
    },
    {
      "channel": 4,
      "note": 45,
      "start": 43.8963,
      "duration": 23.9148,
      "velocity": 114,
      "chip": "ym2612"
    },
    {
      "channel": 0,
      "note": 83,
      "start": 43.9382,
      "duration": 0.105,
      "velocity": 97,
      "chip": "ym2612"
    },
    {
      "channel": 0,
      "note": 82,
      "start": 44.0433,
      "duration": 0.105,
      "velocity": 97,
      "chip": "ym2612"
    },
    {
      "channel": 1,
      "note": 81,
      "start": 44.0437,
      "duration": 0.2097,
      "velocity": 97,
      "chip": "ym2612"
    },
    {
      "channel": 2,
      "note": 84,
      "start": 44.0442,
      "duration": 0.2098,
      "velocity": 97,
      "chip": "ym2612"
    },
    {
      "channel": 0,
      "note": 81,
      "start": 44.1484,
      "duration": 23.6627,
      "velocity": 97,
      "chip": "ym2612"
    },
    {
      "channel": 1,
      "note": 81,
      "start": 44.2538,
      "duration": 23.5573,
      "velocity": 97,
      "chip": "ym2612"
    },
    {
      "channel": 2,
      "note": 83,
      "start": 44.2541,
      "duration": 23.557,
      "velocity": 97,
      "chip": "ym2612"
    },
    {
      "channel": 3,
      "note": 72,
      "start": 44.2544,
      "duration": 23.5567,
      "velocity": 119,
      "chip": "ym2612"
    }
  ]
}