{
  "track_name": "27 - Mega Man 2- Staff Roll",
  "duration_sec": 63.916,
  "sample_rate": 44100,
  "note_count": 1244,
  "unique_pitches": 38,
  "pitch_range": 61,
  "avg_note_duration": 0.1993,
  "reconstruction_stats": {
    "notes_reconstructed": 1244,
    "keyon_events": 1244,
    "keyoff_events": 1243,
    "orphan_keyons": 1,
    "unique_pitches": 38,
    "pitch_range": 61,
    "avg_duration_sec": 0.1993
  },
  "metadata": {
    "source": "M\\Mega Man - The Wily Wars\\27 - Mega Man 2- Staff Roll.vgm"
  },
  "notes": [
    {
      "channel": 0,
      "note": 59,
      "start": 0.0,
      "duration": 0.0638,
      "velocity": 106,
      "chip": "ym2612"
    },
    {
      "channel": 2,
      "note": 55,
      "start": 0.0057,
      "duration": 0.059,
      "velocity": 106,
      "chip": "ym2612"
    },
    {
      "channel": 3,
      "note": 50,
      "start": 0.0088,
      "duration": 0.0566,
      "velocity": 106,
      "chip": "ym2612"
    },
    {
      "channel": 5,
      "note": 32,
      "start": 0.0128,
      "duration": 0.1343,
      "velocity": 114,
      "chip": "ym2612"
    },
    {
      "channel": 0,
      "note": 62,
      "start": 0.0644,
      "duration": 0.0852,
      "velocity": 106,
      "chip": "ym2612"
    },
    {
      "channel": 2,
      "note": 59,
      "start": 0.0653,
      "duration": 0.0852,
      "velocity": 106,
      "chip": "ym2612"
    },
    {
      "channel": 3,
      "note": 55,
      "start": 0.0661,
      "duration": 0.0852,
      "velocity": 106,
      "chip": "ym2612"
    },
    {
      "channel": 4,
      "note": 59,
      "start": 0.0669,
      "duration": 0.0852,
      "velocity": 106,
      "chip": "ym2612"
    },
    {
      "channel": 0,
      "note": 67,
      "start": 0.1503,
      "duration": 0.0827,
      "velocity": 106,
      "chip": "ym2612"
    },
    {
      "channel": 2,
      "note": 62,
      "start": 0.1512,
      "duration": 0.0827,
      "velocity": 106,
      "chip": "ym2612"
    },
    {
      "channel": 3,
      "note": 59,
      "start": 0.152,
      "duration": 0.0827,
      "velocity": 106,
      "chip": "ym2612"
    },
    {
      "channel": 4,
      "note": 62,
      "start": 0.1528,
      "duration": 0.0827,
      "velocity": 106,
      "chip": "ym2612"
    },
    {
      "channel": 5,
      "note": 75,
      "start": 0.1535,
      "duration": 0.0769,
      "velocity": 120,
      "chip": "ym2612"
    },
    {
      "channel": 0,
      "note": 71,
      "start": 0.2337,
      "duration": 0.0826,
      "velocity": 106,
      "chip": "ym2612"
    },
    {
      "channel": 2,
      "note": 67,
      "start": 0.2345,
      "duration": 0.0827,
      "velocity": 106,
      "chip": "ym2612"
    },
    {
      "channel": 3,
      "note": 62,
      "start": 0.2354,
      "duration": 0.0827,
      "velocity": 106,
      "chip": "ym2612"
    },
    {
      "channel": 4,
      "note": 67,
      "start": 0.2362,
      "duration": 0.0826,
      "velocity": 106,
      "chip": "ym2612"
    },
    {
      "channel": 5,
      "note": 75,
      "start": 0.2369,
      "duration": 0.0768,
      "velocity": 120,
      "chip": "ym2612"
    },
    {
      "channel": 0,
      "note": 62,
      "start": 0.317,
      "duration": 0.0802,
      "velocity": 106,
      "chip": "ym2612"
    },
    {
      "channel": 2,
      "note": 59,
      "start": 0.3178,
      "duration": 0.0802,
      "velocity": 106,
      "chip": "ym2612"
    },
    {
      "channel": 3,
      "note": 55,
      "start": 0.3187,
      "duration": 0.0801,
      "velocity": 106,
      "chip": "ym2612"
    },
    {
      "channel": 4,
      "note": 71,
      "start": 0.3194,
      "duration": 0.0802,
      "velocity": 106,
      "chip": "ym2612"
    },
    {
      "channel": 5,
      "note": 75,
      "start": 0.3202,
      "duration": 0.1602,
      "velocity": 120,
      "chip": "ym2612"
    },
    {
      "channel": 0,
      "note": 67,
      "start": 0.3978,
      "duration": 0.0852,
      "velocity": 106,
      "chip": "ym2612"
    },
    {
      "channel": 2,
      "note": 62,
      "start": 0.3986,
      "duration": 0.0852,
      "velocity": 106,
      "chip": "ym2612"
    },
    {
      "channel": 3,
      "note": 59,
      "start": 0.3995,
      "duration": 0.0853,
      "velocity": 106,
      "chip": "ym2612"
    },
    {
      "channel": 4,
      "note": 62,
      "start": 0.4002,
      "duration": 0.0852,
      "velocity": 106,
      "chip": "ym2612"
    },
    {
      "channel": 0,
      "note": 71,
      "start": 0.4836,
      "duration": 0.0827,
      "velocity": 106,
      "chip": "ym2612"
    },
    {
      "channel": 2,
      "note": 67,
      "start": 0.4845,
      "duration": 0.0827,
      "velocity": 106,
      "chip": "ym2612"
    },
    {
      "channel": 3,
      "note": 62,
      "start": 0.4854,
      "duration": 0.0827,
      "velocity": 106,
      "chip": "ym2612"
    },
    {
      "channel": 4,
      "note": 67,
      "start": 0.4862,
      "duration": 0.0826,
      "velocity": 106,
      "chip": "ym2612"
    },
    {
      "channel": 5,
      "note": 32,
      "start": 0.4869,
      "duration": 0.0768,
      "velocity": 114,
      "chip": "ym2612"
    },
    {
      "channel": 0,
      "note": 74,
      "start": 0.567,
      "duration": 0.0827,
      "velocity": 106,
      "chip": "ym2612"
    },
    {
      "channel": 2,
      "note": 71,
      "start": 0.5678,
      "duration": 0.0827,
      "velocity": 106,
      "chip": "ym2612"
    },
    {
      "channel": 3,
      "note": 67,
      "start": 0.5687,
      "duration": 0.0826,
      "velocity": 106,
      "chip": "ym2612"
    },
    {
      "channel": 4,
      "note": 71,
      "start": 0.5695,
      "duration": 0.0826,
      "velocity": 106,
      "chip": "ym2612"
    },
    {
      "channel": 5,
      "note": 75,
      "start": 0.5702,
      "duration": 0.0768,
      "velocity": 120,
      "chip": "ym2612"
    },
    {
      "channel": 0,
      "note": 67,
      "start": 0.6503,
      "duration": 0.0802,
      "velocity": 106,
      "chip": "ym2612"
    },
    {
      "channel": 2,
      "note": 62,
      "start": 0.6512,
      "duration": 0.0802,
      "velocity": 106,
      "chip": "ym2612"
    },
    {
      "channel": 3,
      "note": 59,
      "start": 0.652,
      "duration": 0.0801,
      "velocity": 106,
      "chip": "ym2612"
    },
    {
      "channel": 4,
      "note": 74,
      "start": 0.6528,
      "duration": 0.0802,
      "velocity": 106,
      "chip": "ym2612"
    },
    {
      "channel": 5,
      "note": 32,
      "start": 0.6536,
      "duration": 0.1434,
      "velocity": 114,
      "chip": "ym2612"
    },
    {
      "channel": 0,
      "note": 71,
      "start": 0.7311,
      "duration": 0.0686,
      "velocity": 106,
      "chip": "ym2612"
    },
    {
      "channel": 2,
      "note": 67,
      "start": 0.732,
      "duration": 0.0686,
      "velocity": 106,
      "chip": "ym2612"
    },
    {
      "channel": 3,
      "note": 62,
      "start": 0.7328,
      "duration": 0.0686,
      "velocity": 106,
      "chip": "ym2612"
    },
    {
      "channel": 4,
      "note": 67,
      "start": 0.7336,
      "duration": 0.0686,
      "velocity": 106,
      "chip": "ym2612"
    },
    {
      "channel": 0,
      "note": 74,
      "start": 0.8004,
      "duration": 0.0826,
      "velocity": 106,
      "chip": "ym2612"
    },
    {
      "channel": 2,
      "note": 71,
      "start": 0.8012,
      "duration": 0.0827,
      "velocity": 106,
      "chip": "ym2612"
    },
    {
      "channel": 3,
      "note": 67,
      "start": 0.802,
      "duration": 0.0827,
      "velocity": 106,
      "chip": "ym2612"
    },
    {
      "channel": 4,
      "note": 71,
      "start": 0.8028,
      "duration": 0.0826,
      "velocity": 106,
      "chip": "ym2612"
    },
    {
      "channel": 5,
      "note": 75,
      "start": 0.8035,
      "duration": 0.0768,
      "velocity": 120,
      "chip": "ym2612"
    },
    {
      "channel": 0,
      "note": 79,
      "start": 0.8837,
      "duration": 0.0826,
      "velocity": 106,
      "chip": "ym2612"
    },
    {
      "channel": 2,
      "note": 74,
      "start": 0.8845,
      "duration": 0.0827,
      "velocity": 106,
      "chip": "ym2612"
    },
    {
      "channel": 3,
      "note": 71,
      "start": 0.8854,
      "duration": 0.0827,
      "velocity": 106,
      "chip": "ym2612"
    },
    {
      "channel": 4,
      "note": 74,
      "start": 0.8862,
      "duration": 0.0826,
      "velocity": 106,
      "chip": "ym2612"
    },
    {
      "channel": 5,
      "note": 75,
      "start": 0.8869,
      "duration": 0.0768,
      "velocity": 120,
      "chip": "ym2612"
    },
    {
      "channel": 0,
      "note": 71,
      "start": 0.967,
      "duration": 0.0801,
      "velocity": 106,
      "chip": "ym2612"
    },
    {
      "channel": 2,
      "note": 79,
      "start": 0.9678,
      "duration": 0.0802,
      "velocity": 106,
      "chip": "ym2612"
    },
    {
      "channel": 3,
      "note": 62,
      "start": 0.9687,
      "duration": 0.0801,
      "velocity": 106,
      "chip": "ym2612"
    },
    {
      "channel": 4,
      "note": 79,
      "start": 0.9695,
      "duration": 0.0801,
      "velocity": 106,
      "chip": "ym2612"
    },
    {
      "channel": 5,
      "note": 75,
      "start": 0.9702,
      "duration": 0.1602,
      "velocity": 120,
      "chip": "ym2612"
    },
    {
      "channel": 0,
      "note": 74,
      "start": 1.0478,
      "duration": 0.0852,
      "velocity": 106,
      "chip": "ym2612"
    },
    {
      "channel": 2,
      "note": 71,
      "start": 1.0486,
      "duration": 0.0852,
      "velocity": 106,
      "chip": "ym2612"
    },
    {
      "channel": 3,
      "note": 67,
      "start": 1.0495,
      "duration": 0.0853,
      "velocity": 106,
      "chip": "ym2612"
    },
    {
      "channel": 4,
      "note": 71,
      "start": 1.0503,
      "duration": 0.0852,
      "velocity": 106,
      "chip": "ym2612"
    },
    {
      "channel": 0,
      "note": 79,
      "start": 1.1336,
      "duration": 0.0827,
      "velocity": 106,
      "chip": "ym2612"
    },
    {
      "channel": 2,
      "note": 74,
      "start": 1.1345,
      "duration": 0.0827,
      "velocity": 106,
      "chip": "ym2612"
    },
    {
      "channel": 3,
      "note": 71,
      "start": 1.1354,
      "duration": 0.0827,
      "velocity": 106,
      "chip": "ym2612"
    },
    {
      "channel": 4,
      "note": 74,
      "start": 1.1362,
      "duration": 0.0826,
      "velocity": 106,
      "chip": "ym2612"
    },
    {
      "channel": 5,
      "note": 32,
      "start": 1.137,
      "duration": 0.0767,
      "velocity": 114,
      "chip": "ym2612"
    },
    {
      "channel": 0,
      "note": 83,
      "start": 1.217,
      "duration": 0.0827,
      "velocity": 106,
      "chip": "ym2612"
    },
    {
      "channel": 2,
      "note": 79,
      "start": 1.2178,
      "duration": 0.0835,
      "velocity": 106,
      "chip": "ym2612"
    },
    {
      "channel": 3,
      "note": 74,
      "start": 1.2187,
      "duration": 0.0835,
      "velocity": 106,
      "chip": "ym2612"
    },
    {
      "channel": 4,
      "note": 79,
      "start": 1.2195,
      "duration": 0.0842,
      "velocity": 106,
      "chip": "ym2612"
    },
    {
      "channel": 5,
      "note": 75,
      "start": 1.2202,
      "duration": 0.0768,
      "velocity": 120,
      "chip": "ym2612"
    },
    {
      "channel": 0,
      "note": 76,
      "start": 1.3004,
      "duration": 0.3159,
      "velocity": 106,
      "chip": "ym2612"
    },
    {
      "channel": 1,
      "note": 55,
      "start": 1.3012,
      "duration": 0.1656,
      "velocity": 101,
      "chip": "ym2612"
    },
    {
      "channel": 2,
      "note": 73,
      "start": 1.3021,
      "duration": 0.3149,
      "velocity": 106,
      "chip": "ym2612"
    },
    {
      "channel": 3,
      "note": 69,
      "start": 1.3029,
      "duration": 0.3144,
      "velocity": 106,
      "chip": "ym2612"
    },
    {
      "channel": 4,
      "note": 64,
      "start": 1.3043,
      "duration": 0.3134,
      "velocity": 106,
      "chip": "ym2612"
    },
    {
      "channel": 5,
      "note": 32,
      "start": 1.3051,
      "duration": 0.1586,
      "velocity": 114,
      "chip": "ym2612"
    },
    {
      "channel": 1,
      "note": 57,
      "start": 1.4674,
      "duration": 0.1493,
      "velocity": 101,
      "chip": "ym2612"
    },
    {
      "channel": 5,
      "note": 32,
      "start": 1.4696,
      "duration": 0.1441,
      "velocity": 114,
      "chip": "ym2612"
    },
    {
      "channel": 5,
      "note": 75,
      "start": 1.6185,
      "duration": 0.1618,
      "velocity": 120,
      "chip": "ym2612"
    },
    {
      "channel": 1,
      "note": 57,
      "start": 1.7837,
      "duration": 0.1635,
      "velocity": 101,
      "chip": "ym2612"
    },
    {
      "channel": 5,
      "note": 32,
      "start": 1.7847,
      "duration": 0.2128,
      "velocity": 114,
      "chip": "ym2612"
    },
    {
      "channel": 1,
      "note": 55,
      "start": 2.267,
      "duration": 0.1661,
      "velocity": 101,
      "chip": "ym2612"
    },
    {
      "channel": 5,
      "note": 75,
      "start": 2.268,
      "duration": 0.1624,
      "velocity": 120,
      "chip": "ym2612"
    },
    {
      "channel": 1,
      "note": 57,
      "start": 2.4337,
      "duration": 0.1635,
      "velocity": 101,
      "chip": "ym2612"
    },
    {
      "channel": 5,
      "note": 32,
      "start": 2.4347,
      "duration": 0.2128,
      "velocity": 114,
      "chip": "ym2612"
    },
    {
      "channel": 1,
      "note": 57,
      "start": 2.767,
      "duration": 0.166,
      "velocity": 101,
      "chip": "ym2612"
    },
    {
      "channel": 5,
      "note": 32,
      "start": 2.768,
      "duration": 0.1623,
      "velocity": 114,
      "chip": "ym2612"
    },
    {
      "channel": 5,
      "note": 75,
      "start": 2.9343,
      "duration": 0.1461,
      "velocity": 120,
      "chip": "ym2612"
    },
    {
      "channel": 1,
      "note": 55,
      "start": 3.0836,
      "duration": 0.1661,
      "velocity": 101,
      "chip": "ym2612"
    },
    {
      "channel": 5,
      "note": 32,
      "start": 3.0847,
      "duration": 0.1623,
      "velocity": 114,
      "chip": "ym2612"
    },
    {
      "channel": 1,
      "note": 57,
      "start": 3.2504,
      "duration": 0.1661,
      "velocity": 101,
      "chip": "ym2612"
    },
    {
      "channel": 5,
      "note": 32,
      "start": 3.2514,
      "duration": 0.1623,
      "velocity": 114,
      "chip": "ym2612"
    },
    {
      "channel": 1,
      "note": 60,
      "start": 3.417,
      "duration": 0.1668,
      "velocity": 101,
      "chip": "ym2612"
    },
    {
      "channel": 5,
      "note": 32,
      "start": 3.418,
      "duration": 0.1623,
      "velocity": 114,
      "chip": "ym2612"
    },
    {
      "channel": 0,
      "note": 88,
      "start": 3.5837,
      "duration": 0.166,
      "velocity": 106,
      "chip": "ym2612"
    },
    {
      "channel": 2,
      "note": 85,
      "start": 3.5848,
      "duration": 0.1656,
      "velocity": 106,
      "chip": "ym2612"
    },
    {
      "channel": 3,
      "note": 81,
      "start": 3.5857,
      "duration": 0.1654,
      "velocity": 106,
      "chip": "ym2612"
    },
    {
      "channel": 4,
      "note": 76,
      "start": 3.5865,
      "duration": 0.1652,
      "velocity": 106,
      "chip": "ym2612"
    },
    {
      "channel": 5,
      "note": 75,
      "start": 3.5872,
      "duration": 0.1599,
      "velocity": 120,
      "chip": "ym2612"
    },
    {
      "channel": 0,
      "note": 88,
      "start": 3.7502,
      "duration": 0.1496,
      "velocity": 106,
      "chip": "ym2612"
    },
    {
      "channel": 2,
      "note": 85,
      "start": 3.7509,
      "duration": 0.1501,
      "velocity": 106,
      "chip": "ym2612"
    },
    {
      "channel": 3,
      "note": 81,
      "start": 3.7516,
      "duration": 0.1497,
      "velocity": 106,
      "chip": "ym2612"
    },
    {
      "channel": 4,
      "note": 76,
      "start": 3.7522,
      "duration": 0.1494,
      "velocity": 106,
      "chip": "ym2612"
    },
    {
      "channel": 5,
      "note": 75,
      "start": 3.7529,
      "duration": 0.1443,
      "velocity": 120,
      "chip": "ym2612"
    },
    {
      "channel": 1,
      "note": 55,
      "start": 3.9007,
      "duration": 0.1657,
      "velocity": 101,
      "chip": "ym2612"
    },
    {
      "channel": 5,
      "note": 32,
      "start": 3.9025,
      "duration": 0.1612,
      "velocity": 114,
      "chip": "ym2612"
    },
    {
      "channel": 1,
      "note": 57,
      "start": 4.067,
      "duration": 0.1661,
      "velocity": 101,
      "chip": "ym2612"
    },
    {
      "channel": 5,
      "note": 32,
      "start": 4.068,
      "duration": 0.1623,
      "velocity": 114,
      "chip": "ym2612"
    },
    {
      "channel": 5,
      "note": 75,
      "start": 4.2343,
      "duration": 0.1628,
      "velocity": 120,
      "chip": "ym2612"
    },
    {
      "channel": 1,
      "note": 57,
      "start": 4.4004,
      "duration": 0.1468,
      "velocity": 101,
      "chip": "ym2612"
    },
    {
      "channel": 5,
      "note": 32,
      "start": 4.4014,
      "duration": 0.2128,
      "velocity": 114,
      "chip": "ym2612"
    },
    {
      "channel": 1,
      "note": 55,
      "start": 4.8836,
      "duration": 0.1661,
      "velocity": 101,
      "chip": "ym2612"
    },
    {
      "channel": 5,
      "note": 75,
      "start": 4.8846,
      "duration": 0.1624,
      "velocity": 120,
      "chip": "ym2612"
    },
    {
      "channel": 1,
      "note": 57,
      "start": 5.0503,
      "duration": 0.1635,
      "velocity": 101,
      "chip": "ym2612"
    },
    {
      "channel": 5,
      "note": 32,
      "start": 5.0514,
      "duration": 0.2128,
      "velocity": 114,
      "chip": "ym2612"
    },
    {
      "channel": 1,
      "note": 57,
      "start": 5.367,
      "duration": 0.166,
      "velocity": 101,
      "chip": "ym2612"
    },
    {
      "channel": 5,
      "note": 32,
      "start": 5.368,
      "duration": 0.1623,
      "velocity": 114,
      "chip": "ym2612"
    },
    {
      "channel": 5,
      "note": 75,
      "start": 5.5343,
      "duration": 0.1628,
      "velocity": 120,
      "chip": "ym2612"
    },
    {
      "channel": 1,
      "note": 55,
      "start": 5.7003,
      "duration": 0.1668,
      "velocity": 101,
      "chip": "ym2612"
    },
    {
      "channel": 5,
      "note": 32,
      "start": 5.7014,
      "duration": 0.1623,
      "velocity": 114,
      "chip": "ym2612"
    },
    {
      "channel": 0,
      "note": 76,
      "start": 5.867,
      "duration": 0.1493,
      "velocity": 106,
      "chip": "ym2612"
    },
    {
      "channel": 1,
      "note": 57,
      "start": 5.8677,
      "duration": 0.1494,
      "velocity": 101,
      "chip": "ym2612"
    },
    {
      "channel": 2,
      "note": 73,
      "start": 5.8685,
      "duration": 0.1494,
      "velocity": 106,
      "chip": "ym2612"
    },
    {
      "channel": 3,
      "note": 69,
      "start": 5.8693,
      "duration": 0.1494,
      "velocity": 106,
      "chip": "ym2612"
    },
    {
      "channel": 4,
      "note": 64,
      "start": 5.8701,
      "duration": 0.1493,
      "velocity": 106,
      "chip": "ym2612"
    },
    {
      "channel": 5,
      "note": 32,
      "start": 5.871,
      "duration": 0.1427,
      "velocity": 114,
      "chip": "ym2612"
    },
    {
      "channel": 0,
      "note": 75,
      "start": 6.017,
      "duration": 0.4994,
      "velocity": 106,
      "chip": "ym2612"
    },
    {
      "channel": 1,
      "note": 60,
      "start": 6.0177,
      "duration": 0.1658,
      "velocity": 101,
      "chip": "ym2612"
    },
    {
      "channel": 2,
      "note": 72,
      "start": 6.0185,
      "duration": 0.4996,
      "velocity": 106,
      "chip": "ym2612"
    },
    {
      "channel": 3,
      "note": 68,
      "start": 6.0193,
      "duration": 0.4995,
      "velocity": 106,
      "chip": "ym2612"
    },
    {
      "channel": 4,
      "note": 63,
      "start": 6.0201,
      "duration": 0.4995,
      "velocity": 106,
      "chip": "ym2612"
    },
    {
      "channel": 5,
      "note": 32,
      "start": 6.021,
      "duration": 0.1594,
      "velocity": 114,
      "chip": "ym2612"
    },
    {
      "channel": 5,
      "note": 75,
      "start": 6.1859,
      "duration": 0.1612,
      "velocity": 120,
      "chip": "ym2612"
    },
    {
      "channel": 5,
      "note": 75,
      "start": 6.3523,
      "duration": 0.1616,
      "velocity": 120,
      "chip": "ym2612"
    },
    {
      "channel": 0,
      "note": 74,
      "start": 6.5171,
      "duration": 0.3159,
      "velocity": 106,
      "chip": "ym2612"
    },
    {
      "channel": 1,
      "note": 50,
      "start": 6.5179,
      "duration": 0.1656,
      "velocity": 101,
      "chip": "ym2612"
    },
    {
      "channel": 2,
      "note": 71,
      "start": 6.5187,
      "duration": 0.3149,
      "velocity": 106,
      "chip": "ym2612"
    },
    {
      "channel": 3,
      "note": 67,
      "start": 6.5195,
      "duration": 0.3144,
      "velocity": 106,
      "chip": "ym2612"
    },
    {
      "channel": 4,
      "note": 62,
      "start": 6.5203,
      "duration": 0.314,
      "velocity": 106,
      "chip": "ym2612"
    },
    {
      "channel": 5,
      "note": 32,
      "start": 6.5212,
      "duration": 0.1592,
      "velocity": 114,
      "chip": "ym2612"
    },
    {
      "channel": 1,
      "note": 55,
      "start": 6.6841,
      "duration": 0.1493,
      "velocity": 101,
      "chip": "ym2612"
    },
    {
      "channel": 5,
      "note": 32,
      "start": 6.6863,
      "duration": 0.1441,
      "velocity": 114,
      "chip": "ym2612"
    },
    {
      "channel": 5,
      "note": 75,
      "start": 6.8352,
      "duration": 0.1618,
      "velocity": 120,
      "chip": "ym2612"
    },
    {
      "channel": 1,
      "note": 55,
      "start": 7.0003,
      "duration": 0.1635,
      "velocity": 101,
      "chip": "ym2612"
    },
    {
      "channel": 5,
      "note": 32,
      "start": 7.0014,
      "duration": 0.2128,
      "velocity": 114,
      "chip": "ym2612"
    },
    {
      "channel": 1,
      "note": 50,
      "start": 7.5003,
      "duration": 0.1494,
      "velocity": 101,
      "chip": "ym2612"
    },
    {
      "channel": 5,
      "note": 75,
      "start": 7.5013,
      "duration": 0.1457,
      "velocity": 120,
      "chip": "ym2612"
    },
    {
      "channel": 1,
      "note": 55,
      "start": 7.6503,
      "duration": 0.1641,
      "velocity": 101,
      "chip": "ym2612"
    },
    {
      "channel": 5,
      "note": 32,
      "start": 7.6514,
      "duration": 0.2141,
      "velocity": 114,
      "chip": "ym2612"
    },
    {
      "channel": 1,
      "note": 55,
      "start": 7.9839,
      "duration": 0.1661,
      "velocity": 101,
      "chip": "ym2612"
    },
    {
      "channel": 5,
      "note": 32,
      "start": 7.986,
      "duration": 0.1611,
      "velocity": 114,
      "chip": "ym2612"
    },
    {
      "channel": 5,
      "note": 75,
      "start": 8.1521,
      "duration": 0.1449,
      "velocity": 120,
      "chip": "ym2612"
    },
    {
      "channel": 1,
      "note": 50,
      "start": 8.3006,
      "duration": 0.1663,
      "velocity": 101,
      "chip": "ym2612"
    },
    {
      "channel": 5,
      "note": 32,
      "start": 8.3027,
      "duration": 0.1611,
      "velocity": 114,
      "chip": "ym2612"
    },
    {
      "channel": 1,
      "note": 55,
      "start": 8.4675,
      "duration": 0.1663,
      "velocity": 101,
      "chip": "ym2612"
    },
    {
      "channel": 5,
      "note": 32,
      "start": 8.4701,
      "duration": 0.1602,
      "velocity": 114,
      "chip": "ym2612"
    },
    {
      "channel": 0,
      "note": 84,
      "start": 8.6337,
      "duration": 0.166,
      "velocity": 106,
      "chip": "ym2612"
    },
    {
      "channel": 1,
      "note": 60,
      "start": 8.6344,
      "duration": 0.1661,
      "velocity": 101,
      "chip": "ym2612"
    },
    {
      "channel": 2,
      "note": 81,
      "start": 8.6351,
      "duration": 0.1656,
      "velocity": 106,
      "chip": "ym2612"
    },
    {
      "channel": 3,
      "note": 77,
      "start": 8.636,
      "duration": 0.1656,
      "velocity": 106,
      "chip": "ym2612"
    },
    {
      "channel": 4,
      "note": 72,
      "start": 8.6368,
      "duration": 0.1656,
      "velocity": 106,
      "chip": "ym2612"
    },
    {
      "channel": 5,
      "note": 32,
      "start": 8.6376,
      "duration": 0.1594,
      "velocity": 114,
      "chip": "ym2612"
    },
    {
      "channel": 0,
      "note": 84,
      "start": 8.8004,
      "duration": 0.166,
      "velocity": 106,
      "chip": "ym2612"
    },
    {
      "channel": 2,
      "note": 81,
      "start": 8.8014,
      "duration": 0.1658,
      "velocity": 106,
      "chip": "ym2612"
    },
    {
      "channel": 3,
      "note": 77,
      "start": 8.8023,
      "duration": 0.1658,
      "velocity": 106,
      "chip": "ym2612"
    },
    {
      "channel": 4,
      "note": 72,
      "start": 8.8031,
      "duration": 0.1658,
      "velocity": 106,
      "chip": "ym2612"
    },
    {
      "channel": 5,
      "note": 75,
      "start": 8.8038,
      "duration": 0.1599,
      "velocity": 120,
      "chip": "ym2612"
    },
    {
      "channel": 0,
      "note": 86,
      "start": 8.967,
      "duration": 0.1494,
      "velocity": 106,
      "chip": "ym2612"
    },
    {
      "channel": 2,
      "note": 83,
      "start": 8.9679,
      "duration": 0.1497,
      "velocity": 106,
      "chip": "ym2612"
    },
    {
      "channel": 3,
      "note": 79,
      "start": 8.9687,
      "duration": 0.1492,
      "velocity": 106,
      "chip": "ym2612"
    },
    {
      "channel": 4,
      "note": 74,
      "start": 8.9695,
      "duration": 0.1487,
      "velocity": 106,
      "chip": "ym2612"
    },
    {
      "channel": 5,
      "note": 75,
      "start": 8.9703,
      "duration": 0.1436,
      "velocity": 120,
      "chip": "ym2612"
    },
    {
      "channel": 1,
      "note": 50,
      "start": 9.1174,
      "duration": 0.1657,
      "velocity": 101,
      "chip": "ym2612"
    },
    {
      "channel": 5,
      "note": 32,
      "start": 9.1192,
      "duration": 0.1612,
      "velocity": 114,
      "chip": "ym2612"
    },
    {
      "channel": 1,
      "note": 55,
      "start": 9.2836,
      "duration": 0.1661,
      "velocity": 101,
      "chip": "ym2612"
    },
    {
      "channel": 5,
      "note": 32,
      "start": 9.2847,
      "duration": 0.1623,
      "velocity": 114,
      "chip": "ym2612"
    },
    {
      "channel": 5,
      "note": 75,
      "start": 9.4509,
      "duration": 0.1628,
      "velocity": 120,
      "chip": "ym2612"
    },
    {
      "channel": 1,
      "note": 55,
      "start": 9.617,
      "duration": 0.1635,
      "velocity": 101,
      "chip": "ym2612"
    },
    {
      "channel": 5,
      "note": 32,
      "start": 9.618,
      "duration": 0.2128,
      "velocity": 114,
      "chip": "ym2612"
    },
    {
      "channel": 1,
      "note": 50,
      "start": 10.1003,
      "duration": 0.1661,
      "velocity": 101,
      "chip": "ym2612"
    },
    {
      "channel": 5,
      "note": 75,
      "start": 10.1013,
      "duration": 0.1624,
      "velocity": 120,
      "chip": "ym2612"
    },
    {
      "channel": 1,
      "note": 55,
      "start": 10.267,
      "duration": 0.1635,
      "velocity": 101,
      "chip": "ym2612"
    },
    {
      "channel": 5,
      "note": 32,
      "start": 10.268,
      "duration": 0.2128,
      "velocity": 114,
      "chip": "ym2612"
    },
    {
      "channel": 1,
      "note": 55,
      "start": 10.5836,
      "duration": 0.1661,
      "velocity": 101,
      "chip": "ym2612"
    },
    {
      "channel": 5,
      "note": 32,
      "start": 10.5847,
      "duration": 0.1623,
      "velocity": 114,
      "chip": "ym2612"
    },
    {
      "channel": 5,
      "note": 75,
      "start": 10.7509,
      "duration": 0.1628,
      "velocity": 120,
      "chip": "ym2612"
    },
    {
      "channel": 1,
      "note": 50,
      "start": 10.917,
      "duration": 0.1668,
      "velocity": 101,
      "chip": "ym2612"
    },
    {
      "channel": 5,
      "note": 32,
      "start": 10.918,
      "duration": 0.1623,
      "velocity": 114,
      "chip": "ym2612"
    },
    {
      "channel": 0,
      "note": 74,
      "start": 11.0837,
      "duration": 0.316,
      "velocity": 106,
      "chip": "ym2612"
    },
    {
      "channel": 1,
      "note": 55,
      "start": 11.0844,
      "duration": 0.1658,
      "velocity": 101,
      "chip": "ym2612"
    },
    {
      "channel": 2,
      "note": 71,
      "start": 11.0851,
      "duration": 0.3156,
      "velocity": 106,
      "chip": "ym2612"
    },
    {
      "channel": 3,
      "note": 67,
      "start": 11.086,
      "duration": 0.3156,
      "velocity": 106,
      "chip": "ym2612"
    },
    {
      "channel": 4,
      "note": 62,
      "start": 11.0868,
      "duration": 0.3156,
      "velocity": 106,
      "chip": "ym2612"
    },
    {
      "channel": 5,
      "note": 32,
      "start": 11.0876,
      "duration": 0.0761,
      "velocity": 114,
      "chip": "ym2612"
    },
    {
      "channel": 5,
      "note": 75,
      "start": 11.1686,
      "duration": 0.0784,
      "velocity": 120,
      "chip": "ym2612"
    },
    {
      "channel": 1,
      "note": 60,
      "start": 11.2507,
      "duration": 0.1498,
      "velocity": 101,
      "chip": "ym2612"
    },
    {
      "channel": 5,
      "note": 32,
      "start": 11.253,
      "duration": 0.1441,
      "velocity": 114,
      "chip": "ym2612"
    },
    {
      "channel": 0,
      "note": 75,
      "start": 11.4003,
      "duration": 0.3329,
      "velocity": 106,
      "chip": "ym2612"
    },
    {
      "channel": 2,
      "note": 72,
      "start": 11.4014,
      "duration": 0.3336,
      "velocity": 106,
      "chip": "ym2612"
    },
    {
      "channel": 3,
      "note": 68,
      "start": 11.4023,
      "duration": 0.3337,
      "velocity": 106,
      "chip": "ym2612"
    },
    {
      "channel": 4,
      "note": 63,
      "start": 11.403,
      "duration": 0.3338,
      "velocity": 106,
      "chip": "ym2612"
    },
    {
      "channel": 5,
      "note": 75,
      "start": 11.4037,
      "duration": 0.16,
      "velocity": 120,
      "chip": "ym2612"
    },
    {
      "channel": 5,
      "note": 75,
      "start": 11.5689,
      "duration": 0.0781,
      "velocity": 120,
      "chip": "ym2612"
    },
    {
      "channel": 5,
      "note": 75,
      "start": 11.6523,
      "duration": 0.0782,
      "velocity": 120,
      "chip": "ym2612"
    },
    {
      "channel": 0,
      "note": 76,
      "start": 11.7339,
      "duration": 0.3158,
      "velocity": 106,
      "chip": "ym2612"
    },
    {
      "channel": 1,
      "note": 55,
      "start": 11.7348,
      "duration": 0.1654,
      "velocity": 101,
      "chip": "ym2612"
    },
    {
      "channel": 2,
      "note": 73,
      "start": 11.7357,
      "duration": 0.3146,
      "velocity": 106,
      "chip": "ym2612"
    },
    {
      "channel": 3,
      "note": 69,
      "start": 11.7366,
      "duration": 0.314,
      "velocity": 106,
      "chip": "ym2612"
    },
    {
      "channel": 4,
      "note": 64,
      "start": 11.7375,
      "duration": 0.3135,
      "velocity": 106,
      "chip": "ym2612"
    },
    {
      "channel": 5,
      "note": 32,
      "start": 11.7383,
      "duration": 0.1587,
      "velocity": 114,
      "chip": "ym2612"
    },
    {
      "channel": 1,
      "note": 57,
      "start": 11.9007,
      "duration": 0.1493,
      "velocity": 101,
      "chip": "ym2612"
    },
    {
      "channel": 5,
      "note": 32,
      "start": 11.903,
      "duration": 0.1441,
      "velocity": 114,
      "chip": "ym2612"
    },
    {
      "channel": 5,
      "note": 75,
      "start": 12.0519,
      "duration": 0.1618,
      "velocity": 120,
      "chip": "ym2612"
    },
    {
      "channel": 1,
      "note": 57,
      "start": 12.217,
      "duration": 0.1635,
      "velocity": 101,
      "chip": "ym2612"
    },
    {
      "channel": 5,
      "note": 32,
      "start": 12.218,
      "duration": 0.2128,
      "velocity": 114,
      "chip": "ym2612"
    },
    {
      "channel": 1,
      "note": 55,
      "start": 12.717,
      "duration": 0.1494,
      "velocity": 101,
      "chip": "ym2612"
    },
    {
      "channel": 5,
      "note": 75,
      "start": 12.718,
      "duration": 0.1457,
      "velocity": 120,
      "chip": "ym2612"
    },
    {
      "channel": 1,
      "note": 57,
      "start": 12.867,
      "duration": 0.1635,
      "velocity": 101,
      "chip": "ym2612"
    },
    {
      "channel": 5,
      "note": 32,
      "start": 12.868,
      "duration": 0.2128,
      "velocity": 114,
      "chip": "ym2612"
    },
    {
      "channel": 1,
      "note": 57,
      "start": 13.2004,
      "duration": 0.166,
      "velocity": 101,
      "chip": "ym2612"
    },
    {
      "channel": 5,
      "note": 32,
      "start": 13.2014,
      "duration": 0.1623,
      "velocity": 114,
      "chip": "ym2612"
    },
    {
      "channel": 5,
      "note": 75,
      "start": 13.3676,
      "duration": 0.1628,
      "velocity": 120,
      "chip": "ym2612"
    },
    {
      "channel": 1,
      "note": 55,
      "start": 13.5336,
      "duration": 0.1495,
      "velocity": 101,
      "chip": "ym2612"
    },
    {
      "channel": 5,
      "note": 32,
      "start": 13.5347,
      "duration": 0.1457,
      "velocity": 114,
      "chip": "ym2612"
    },
    {
      "channel": 1,
      "note": 57,
      "start": 13.6837,
      "duration": 0.1661,
      "velocity": 101,
      "chip": "ym2612"
    },
    {
      "channel": 5,
      "note": 32,
      "start": 13.6847,
      "duration": 0.1623,
      "velocity": 114,
      "chip": "ym2612"
    },
    {
      "channel": 1,
      "note": 60,
      "start": 13.8504,
      "duration": 0.1668,
      "velocity": 101,
      "chip": "ym2612"
    },
    {
      "channel": 5,
      "note": 32,
      "start": 13.8514,
      "duration": 0.1623,
      "velocity": 114,
      "chip": "ym2612"
    },
    {
      "channel": 0,
      "note": 88,
      "start": 14.017,
      "duration": 0.166,
      "velocity": 106,
      "chip": "ym2612"
    },
    {
      "channel": 2,
      "note": 85,
      "start": 14.0182,
      "duration": 0.1656,
      "velocity": 106,
      "chip": "ym2612"
    },
    {
      "channel": 3,
      "note": 81,
      "start": 14.019,
      "duration": 0.1654,
      "velocity": 106,
      "chip": "ym2612"
    },
    {
      "channel": 4,
      "note": 76,
      "start": 14.0198,
      "duration": 0.1652,
      "velocity": 106,
      "chip": "ym2612"
    },
    {
      "channel": 5,
      "note": 75,
      "start": 14.0205,
      "duration": 0.1599,
      "velocity": 120,
      "chip": "ym2612"
    },
    {
      "channel": 0,
      "note": 88,
      "start": 14.1835,
      "duration": 0.1496,
      "velocity": 106,
      "chip": "ym2612"
    },
    {
      "channel": 2,
      "note": 85,
      "start": 14.1842,
      "duration": 0.1501,
      "velocity": 106,
      "chip": "ym2612"
    },
    {
      "channel": 3,
      "note": 81,
      "start": 14.1849,
      "duration": 0.1497,
      "velocity": 106,
      "chip": "ym2612"
    },
    {
      "channel": 4,
      "note": 76,
      "start": 14.1855,
      "duration": 0.1494,
      "velocity": 106,
      "chip": "ym2612"
    },
    {
      "channel": 5,
      "note": 75,
      "start": 14.1862,
      "duration": 0.1443,
      "velocity": 120,
      "chip": "ym2612"
    },
    {
      "channel": 1,
      "note": 55,
      "start": 14.3341,
      "duration": 0.1657,
      "velocity": 101,
      "chip": "ym2612"
    },
    {
      "channel": 5,
      "note": 32,
      "start": 14.3359,
      "duration": 0.1612,
      "velocity": 114,
      "chip": "ym2612"
    },
    {
      "channel": 1,
      "note": 57,
      "start": 14.5004,
      "duration": 0.166,
      "velocity": 101,
      "chip": "ym2612"
    },
    {
      "channel": 5,
      "note": 32,
      "start": 14.5014,
      "duration": 0.1623,
      "velocity": 114,
      "chip": "ym2612"
    },
    {
      "channel": 5,
      "note": 75,
      "start": 14.6676,
      "duration": 0.1628,
      "velocity": 120,
      "chip": "ym2612"
    },
    {
      "channel": 1,
      "note": 57,
      "start": 14.8336,
      "duration": 0.1635,
      "velocity": 101,
      "chip": "ym2612"
    },
    {
      "channel": 5,
      "note": 32,
      "start": 14.8347,
      "duration": 0.2128,
      "velocity": 114,
      "chip": "ym2612"
    },
    {
      "channel": 1,
      "note": 55,
      "start": 15.317,
      "duration": 0.1661,
      "velocity": 101,
      "chip": "ym2612"
    },
    {
      "channel": 5,
      "note": 75,
      "start": 15.318,
      "duration": 0.1624,
      "velocity": 120,
      "chip": "ym2612"
    },
    {
      "channel": 1,
      "note": 57,
      "start": 15.4836,
      "duration": 0.1635,
      "velocity": 101,
      "chip": "ym2612"
    },
    {
      "channel": 5,
      "note": 32,
      "start": 15.4847,
      "duration": 0.2128,
      "velocity": 114,
      "chip": "ym2612"
    },
    {
      "channel": 1,
      "note": 57,
      "start": 15.8004,
      "duration": 0.1661,
      "velocity": 101,
      "chip": "ym2612"
    },
    {
      "channel": 5,
      "note": 32,
      "start": 15.8014,
      "duration": 0.1623,
      "velocity": 114,
      "chip": "ym2612"
    },
    {
      "channel": 5,
      "note": 75,
      "start": 15.9676,
      "duration": 0.1628,
      "velocity": 120,
      "chip": "ym2612"
    },
    {
      "channel": 1,
      "note": 55,
      "start": 16.1336,
      "duration": 0.1668,
      "velocity": 101,
      "chip": "ym2612"
    },
    {
      "channel": 5,
      "note": 32,
      "start": 16.1347,
      "duration": 0.1623,
      "velocity": 114,
      "chip": "ym2612"
    },
    {
      "channel": 0,
      "note": 76,
      "start": 16.3004,
      "duration": 0.166,
      "velocity": 106,
      "chip": "ym2612"
    },
    {
      "channel": 1,
      "note": 57,
      "start": 16.301,
      "duration": 0.1661,
      "velocity": 101,
      "chip": "ym2612"
    },
    {
      "channel": 2,
      "note": 73,
      "start": 16.3018,
      "duration": 0.166,
      "velocity": 106,
      "chip": "ym2612"
    },
    {
      "channel": 3,
      "note": 69,
      "start": 16.3027,
      "duration": 0.166,
      "velocity": 106,
      "chip": "ym2612"
    },
    {
      "channel": 4,
      "note": 64,
      "start": 16.3035,
      "duration": 0.166,
      "velocity": 106,
      "chip": "ym2612"
    },
    {
      "channel": 5,
      "note": 32,
      "start": 16.3043,
      "duration": 0.1594,
      "velocity": 114,
      "chip": "ym2612"
    },
    {
      "channel": 0,
      "note": 75,
      "start": 16.467,
      "duration": 0.4827,
      "velocity": 106,
      "chip": "ym2612"
    },
    {
      "channel": 1,
      "note": 60,
      "start": 16.4677,
      "duration": 0.149,
      "velocity": 101,
      "chip": "ym2612"
    },
    {
      "channel": 2,
      "note": 72,
      "start": 16.4685,
      "duration": 0.4829,
      "velocity": 106,
      "chip": "ym2612"
    },
    {
      "channel": 3,
      "note": 68,
      "start": 16.4693,
      "duration": 0.4829,
      "velocity": 106,
      "chip": "ym2612"
    },
    {
      "channel": 4,
      "note": 63,
      "start": 16.4701,
      "duration": 0.4829,
      "velocity": 106,
      "chip": "ym2612"
    },
    {
      "channel": 5,
      "note": 32,
      "start": 16.471,
      "duration": 0.1427,
      "velocity": 114,
      "chip": "ym2612"
    },
    {
      "channel": 5,
      "note": 75,
      "start": 16.619,
      "duration": 0.1613,
      "velocity": 120,
      "chip": "ym2612"
    },
    {
      "channel": 5,
      "note": 75,
      "start": 16.7855,
      "duration": 0.1617,
      "velocity": 120,
      "chip": "ym2612"
    },
    {
      "channel": 0,
      "note": 74,
      "start": 16.9504,
      "duration": 0.3326,
      "velocity": 106,
      "chip": "ym2612"
    },
    {
      "channel": 1,
      "note": 50,
      "start": 16.9512,
      "duration": 0.1656,
      "velocity": 101,
      "chip": "ym2612"
    },
    {
      "channel": 2,
      "note": 71,
      "start": 16.9521,
      "duration": 0.3316,
      "velocity": 106,
      "chip": "ym2612"
    },
    {
      "channel": 3,
      "note": 67,
      "start": 16.9528,
      "duration": 0.3311,
      "velocity": 106,
      "chip": "ym2612"
    },
    {
      "channel": 4,
      "note": 62,
      "start": 16.9537,
      "duration": 0.3307,
      "velocity": 106,
      "chip": "ym2612"
    },
    {
      "channel": 5,
      "note": 32,
      "start": 16.9545,
      "duration": 0.1592,
      "velocity": 114,
      "chip": "ym2612"
    },
    {
      "channel": 1,
      "note": 55,
      "start": 17.1174,
      "duration": 0.1659,
      "velocity": 101,
      "chip": "ym2612"
    },
    {
      "channel": 5,
      "note": 32,
      "start": 17.1196,
      "duration": 0.1607,
      "velocity": 114,
      "chip": "ym2612"
    },
    {
      "channel": 5,
      "note": 75,
      "start": 17.2852,
      "duration": 0.1452,
      "velocity": 120,
      "chip": "ym2612"
    },
    {
      "channel": 1,
      "note": 55,
      "start": 17.4336,
      "duration": 0.1635,
      "velocity": 101,
      "chip": "ym2612"
    },
    {
      "channel": 5,
      "note": 32,
      "start": 17.4347,
      "duration": 0.2128,
      "velocity": 114,
      "chip": "ym2612"
    },
    {
      "channel": 1,
      "note": 50,
      "start": 17.9336,
      "duration": 0.1494,
      "velocity": 101,
      "chip": "ym2612"
    },
    {
      "channel": 5,
      "note": 75,
      "start": 17.9346,
      "duration": 0.1457,
      "velocity": 120,
      "chip": "ym2612"
    },
    {
      "channel": 1,
      "note": 55,
      "start": 18.0836,
      "duration": 0.1641,
      "velocity": 101,
      "chip": "ym2612"
    },
    {
      "channel": 5,
      "note": 32,
      "start": 18.0847,
      "duration": 0.2308,
      "velocity": 114,
      "chip": "ym2612"
    },
    {
      "channel": 1,
      "note": 55,
      "start": 18.4173,
      "duration": 0.1661,
      "velocity": 101,
      "chip": "ym2612"
    },
    {
      "channel": 5,
      "note": 32,
      "start": 18.4193,
      "duration": 0.1611,
      "velocity": 114,
      "chip": "ym2612"
    },
    {
      "channel": 5,
      "note": 75,
      "start": 18.5855,
      "duration": 0.1616,
      "velocity": 120,
      "chip": "ym2612"
    },
    {
      "channel": 1,
      "note": 50,
      "start": 18.7506,
      "duration": 0.1497,
      "velocity": 101,
      "chip": "ym2612"
    },
    {
      "channel": 5,
      "note": 32,
      "start": 18.7527,
      "duration": 0.1444,
      "velocity": 114,
      "chip": "ym2612"
    },
    {
      "channel": 1,
      "note": 55,
      "start": 18.9009,
      "duration": 0.1663,
      "velocity": 101,
      "chip": "ym2612"
    },
    {
      "channel": 5,
      "note": 32,
      "start": 18.9035,
      "duration": 0.1602,
      "velocity": 114,
      "chip": "ym2612"
    },
    {
      "channel": 0,
      "note": 84,
      "start": 19.067,
      "duration": 0.166,
      "velocity": 106,
      "chip": "ym2612"
    },
    {
      "channel": 1,
      "note": 60,
      "start": 19.0677,
      "duration": 0.1661,
      "velocity": 101,
      "chip": "ym2612"
    },
    {
      "channel": 2,
      "note": 81,
      "start": 19.0685,
      "duration": 0.1656,
      "velocity": 106,
      "chip": "ym2612"
    },
    {
      "channel": 3,
      "note": 77,
      "start": 19.0693,
      "duration": 0.1656,
      "velocity": 106,
      "chip": "ym2612"
    },
    {
      "channel": 4,
      "note": 72,
      "start": 19.0701,
      "duration": 0.1656,
      "velocity": 106,
      "chip": "ym2612"
    },
    {
      "channel": 5,
      "note": 32,
      "start": 19.071,
      "duration": 0.1594,
      "velocity": 114,
      "chip": "ym2612"
    },
    {
      "channel": 0,
      "note": 84,
      "start": 19.2337,
      "duration": 0.166,
      "velocity": 106,
      "chip": "ym2612"
    },
    {
      "channel": 2,
      "note": 81,
      "start": 19.2348,
      "duration": 0.1658,
      "velocity": 106,
      "chip": "ym2612"
    },
    {
      "channel": 3,
      "note": 77,
      "start": 19.2356,
      "duration": 0.1658,
      "velocity": 106,
      "chip": "ym2612"
    },
    {
      "channel": 4,
      "note": 72,
      "start": 19.2364,
      "duration": 0.1658,
      "velocity": 106,
      "chip": "ym2612"
    },
    {
      "channel": 5,
      "note": 75,
      "start": 19.2371,
      "duration": 0.1599,
      "velocity": 120,
      "chip": "ym2612"
    },
    {
      "channel": 0,
      "note": 86,
      "start": 19.4004,
      "duration": 0.1661,
      "velocity": 106,
      "chip": "ym2612"
    },
    {
      "channel": 2,
      "note": 83,
      "start": 19.4012,
      "duration": 0.1663,
      "velocity": 106,
      "chip": "ym2612"
    },
    {
      "channel": 3,
      "note": 79,
      "start": 19.402,
      "duration": 0.1659,
      "velocity": 106,
      "chip": "ym2612"
    },
    {
      "channel": 4,
      "note": 74,
      "start": 19.4028,
      "duration": 0.1654,
      "velocity": 106,
      "chip": "ym2612"
    },
    {
      "channel": 5,
      "note": 75,
      "start": 19.4036,
      "duration": 0.1602,
      "velocity": 120,
      "chip": "ym2612"
    },
    {
      "channel": 1,
      "note": 50,
      "start": 19.5674,
      "duration": 0.149,
      "velocity": 101,
      "chip": "ym2612"
    },
    {
      "channel": 5,
      "note": 32,
      "start": 19.5692,
      "duration": 0.1446,
      "velocity": 114,
      "chip": "ym2612"
    },
    {
      "channel": 1,
      "note": 55,
      "start": 19.717,
      "duration": 0.166,
      "velocity": 101,
      "chip": "ym2612"
    },
    {
      "channel": 5,
      "note": 32,
      "start": 19.7181,
      "duration": 0.1623,
      "velocity": 114,
      "chip": "ym2612"
    },
    {
      "channel": 5,
      "note": 75,
      "start": 19.8843,
      "duration": 0.1628,
      "velocity": 120,
      "chip": "ym2612"
    },
    {
      "channel": 1,
      "note": 55,
      "start": 20.0503,
      "duration": 0.1635,
      "velocity": 101,
      "chip": "ym2612"
    },
    {
      "channel": 5,
      "note": 32,
      "start": 20.0514,
      "duration": 0.2128,
      "velocity": 114,
      "chip": "ym2612"
    },
    {
      "channel": 1,
      "note": 50,
      "start": 20.5336,
      "duration": 0.1661,
      "velocity": 101,
      "chip": "ym2612"
    },
    {
      "channel": 5,
      "note": 75,
      "start": 20.5346,
      "duration": 0.1624,
      "velocity": 120,
      "chip": "ym2612"
    },
    {
      "channel": 1,
      "note": 55,
      "start": 20.7003,
      "duration": 0.1635,
      "velocity": 101,
      "chip": "ym2612"
    },
    {
      "channel": 5,
      "note": 32,
      "start": 20.7014,
      "duration": 0.2129,
      "velocity": 114,
      "chip": "ym2612"
    },
    {
      "channel": 1,
      "note": 55,
      "start": 21.0336,
      "duration": 0.1494,
      "velocity": 101,
      "chip": "ym2612"
    },
    {
      "channel": 5,
      "note": 32,
      "start": 21.0347,
      "duration": 0.1457,
      "velocity": 114,
      "chip": "ym2612"
    },
    {
      "channel": 5,
      "note": 75,
      "start": 21.1843,
      "duration": 0.1628,
      "velocity": 120,
      "chip": "ym2612"
    },
    {
      "channel": 1,
      "note": 50,
      "start": 21.3503,
      "duration": 0.1668,
      "velocity": 101,
      "chip": "ym2612"
    },
    {
      "channel": 5,
      "note": 32,
      "start": 21.3514,
      "duration": 0.1624,
      "velocity": 114,
      "chip": "ym2612"
    },
    {
      "channel": 0,
      "note": 74,
      "start": 21.517,
      "duration": 0.316,
      "velocity": 106,
      "chip": "ym2612"
    },
    {
      "channel": 1,
      "note": 55,
      "start": 21.5177,
      "duration": 0.1658,
      "velocity": 101,
      "chip": "ym2612"
    },
    {
      "channel": 2,
      "note": 71,
      "start": 21.5185,
      "duration": 0.3156,
      "velocity": 106,
      "chip": "ym2612"
    },
    {
      "channel": 3,
      "note": 67,
      "start": 21.5193,
      "duration": 0.3156,
      "velocity": 106,
      "chip": "ym2612"
    },
    {
      "channel": 4,
      "note": 62,
      "start": 21.5201,
      "duration": 0.3156,
      "velocity": 106,
      "chip": "ym2612"
    },
    {
      "channel": 5,
      "note": 32,
      "start": 21.521,
      "duration": 0.0761,
      "velocity": 114,
      "chip": "ym2612"
    },
    {
      "channel": 5,
      "note": 75,
      "start": 21.602,
      "duration": 0.0784,
      "velocity": 120,
      "chip": "ym2612"
    },
    {
      "channel": 1,
      "note": 60,
      "start": 21.6841,
      "duration": 0.1498,
      "velocity": 101,
      "chip": "ym2612"
    },
    {
      "channel": 5,
      "note": 32,
      "start": 21.6863,
      "duration": 0.1441,
      "velocity": 114,
      "chip": "ym2612"
    },
    {
      "channel": 0,
      "note": 75,
      "start": 21.8336,
      "duration": 0.3329,
      "velocity": 106,
      "chip": "ym2612"
    },
    {
      "channel": 2,
      "note": 72,
      "start": 21.8348,
      "duration": 0.3337,
      "velocity": 106,
      "chip": "ym2612"
    },
    {
      "channel": 3,
      "note": 68,
      "start": 21.8356,
      "duration": 0.3337,
      "velocity": 106,
      "chip": "ym2612"
    },
    {
      "channel": 4,
      "note": 63,
      "start": 21.8363,
      "duration": 0.3339,
      "velocity": 106,
      "chip": "ym2612"
    },
    {
      "channel": 5,
      "note": 75,
      "start": 21.8371,
      "duration": 0.16,
      "velocity": 120,
      "chip": "ym2612"
    },
    {
      "channel": 5,
      "note": 75,
      "start": 22.0023,
      "duration": 0.0781,
      "velocity": 120,
      "chip": "ym2612"
    },
    {
      "channel": 5,
      "note": 75,
      "start": 22.0856,
      "duration": 0.0782,
      "velocity": 120,
      "chip": "ym2612"
    },
    {
      "channel": 0,
      "note": 76,
      "start": 22.1672,
      "duration": 0.3325,
      "velocity": 106,
      "chip": "ym2612"
    },
    {
      "channel": 1,
      "note": 57,
      "start": 22.1682,
      "duration": 0.3319,
      "velocity": 101,
      "chip": "ym2612"
    },
    {
      "channel": 2,
      "note": 73,
      "start": 22.169,
      "duration": 0.3314,
      "velocity": 106,
      "chip": "ym2612"
    },
    {
      "channel": 3,
      "note": 69,
      "start": 22.17,
      "duration": 0.3308,
      "velocity": 106,
      "chip": "ym2612"
    },
    {
      "channel": 4,
      "note": 64,
      "start": 22.1708,
      "duration": 0.3303,
      "velocity": 106,
      "chip": "ym2612"
    },
    {
      "channel": 5,
      "note": 32,
      "start": 22.1717,
      "duration": 0.211,
      "velocity": 114,
      "chip": "ym2612"
    },
    {
      "channel": 5,
      "note": 75,
      "start": 22.5021,
      "duration": 0.145,
      "velocity": 120,
      "chip": "ym2612"
    },
    {
      "channel": 5,
      "note": 32,
      "start": 22.6507,
      "duration": 0.2135,
      "velocity": 114,
      "chip": "ym2612"
    },
    {
      "channel": 5,
      "note": 32,
      "start": 22.9841,
      "duration": 0.1629,
      "velocity": 114,
      "chip": "ym2612"
    },
    {
      "channel": 5,
      "note": 75,
      "start": 23.1507,
      "duration": 0.313,
      "velocity": 120,
      "chip": "ym2612"
    },
    {
      "channel": 5,
      "note": 32,
      "start": 23.4701,
      "duration": 0.2124,
      "velocity": 114,
      "chip": "ym2612"
    },
    {
      "channel": 5,
      "note": 75,
      "start": 23.8021,
      "duration": 0.1616,
      "velocity": 120,
      "chip": "ym2612"
    },
    {
      "channel": 5,
      "note": 32,
      "start": 23.9689,
      "duration": 0.1448,
      "velocity": 114,
      "chip": "ym2612"
    },
    {
      "channel": 5,
      "note": 32,
      "start": 24.1189,
      "duration": 0.1615,
      "velocity": 114,
      "chip": "ym2612"
    },
    {
      "channel": 5,
      "note": 32,
      "start": 24.2856,
      "duration": 0.1615,
      "velocity": 114,
      "chip": "ym2612"
    },
    {
      "channel": 5,
      "note": 75,
      "start": 24.4521,
      "duration": 0.1616,
      "velocity": 120,
      "chip": "ym2612"
    },
    {
      "channel": 5,
      "note": 32,
      "start": 24.6189,
      "duration": 0.1616,
      "velocity": 114,
      "chip": "ym2612"
    },
    {
      "channel": 5,
      "note": 32,
      "start": 24.7857,
      "duration": 0.2134,
      "velocity": 114,
      "chip": "ym2612"
    },
    {
      "channel": 5,
      "note": 75,
      "start": 25.1021,
      "duration": 0.1616,
      "velocity": 120,
      "chip": "ym2612"
    },
    {
      "channel": 5,
      "note": 32,
      "start": 25.2689,
      "duration": 0.2135,
      "velocity": 114,
      "chip": "ym2612"
    },
    {
      "channel": 5,
      "note": 32,
      "start": 25.6023,
      "duration": 0.1448,
      "velocity": 114,
      "chip": "ym2612"
    },
    {
      "channel": 5,
      "note": 75,
      "start": 25.7521,
      "duration": 0.3283,
      "velocity": 120,
      "chip": "ym2612"
    },
    {
      "channel": 5,
      "note": 32,
      "start": 26.0866,
      "duration": 0.2125,
      "velocity": 114,
      "chip": "ym2612"
    },
    {
      "channel": 5,
      "note": 75,
      "start": 26.4021,
      "duration": 0.1616,
      "velocity": 120,
      "chip": "ym2612"
    },
    {
      "channel": 5,
      "note": 32,
      "start": 26.5689,
      "duration": 0.1615,
      "velocity": 114,
      "chip": "ym2612"
    },
    {
      "channel": 5,
      "note": 32,
      "start": 26.736,
      "duration": 0.161,
      "velocity": 114,
      "chip": "ym2612"
    },
    {
      "channel": 0,
      "note": 74,
      "start": 26.9004,
      "duration": 0.166,
      "velocity": 106,
      "chip": "ym2612"
    },
    {
      "channel": 2,
      "note": 69,
      "start": 26.9015,
      "duration": 0.166,
      "velocity": 106,
      "chip": "ym2612"
    },
    {
      "channel": 5,
      "note": 32,
      "start": 26.9031,
      "duration": 0.1606,
      "velocity": 114,
      "chip": "ym2612"
    },
    {
      "channel": 0,
      "note": 75,
      "start": 27.067,
      "duration": 0.1493,
      "velocity": 106,
      "chip": "ym2612"
    },
    {
      "channel": 2,
      "note": 70,
      "start": 27.0681,
      "duration": 0.1494,
      "velocity": 106,
      "chip": "ym2612"
    },
    {
      "channel": 5,
      "note": 75,
      "start": 27.0696,
      "duration": 0.1441,
      "velocity": 120,
      "chip": "ym2612"
    },
    {
      "channel": 0,
      "note": 76,
      "start": 27.217,
      "duration": 0.1661,
      "velocity": 106,
      "chip": "ym2612"
    },
    {
      "channel": 2,
      "note": 71,
      "start": 27.2181,
      "duration": 0.1662,
      "velocity": 106,
      "chip": "ym2612"
    },
    {
      "channel": 5,
      "note": 32,
      "start": 27.2198,
      "duration": 0.1607,
      "velocity": 114,
      "chip": "ym2612"
    },
    {
      "channel": 0,
      "note": 79,
      "start": 27.3837,
      "duration": 0.1634,
      "velocity": 106,
      "chip": "ym2612"
    },
    {
      "channel": 2,
      "note": 74,
      "start": 27.3849,
      "duration": 0.1631,
      "velocity": 106,
      "chip": "ym2612"
    },
    {
      "channel": 3,
      "note": 64,
      "start": 27.3859,
      "duration": 2.616,
      "velocity": 106,
      "chip": "ym2612"
    },
    {
      "channel": 4,
      "note": 57,
      "start": 27.3867,
      "duration": 2.6157,
      "velocity": 106,
      "chip": "ym2612"
    },
    {
      "channel": 5,
      "note": 32,
      "start": 27.3876,
      "duration": 0.2111,
      "velocity": 114,
      "chip": "ym2612"
    },
    {
      "channel": 0,
      "note": 81,
      "start": 27.5478,
      "duration": 0.1686,
      "velocity": 106,
      "chip": "ym2612"
    },
    {
      "channel": 2,
      "note": 76,
      "start": 27.5486,
      "duration": 0.1687,
      "velocity": 106,
      "chip": "ym2612"
    },
    {
      "channel": 1,
      "note": 45,
      "start": 27.7172,
      "duration": 0.3141,
      "velocity": 101,
      "chip": "ym2612"
    },
    {
      "channel": 5,
      "note": 75,
      "start": 27.7189,
      "duration": 0.1448,
      "velocity": 120,
      "chip": "ym2612"
    },
    {
      "channel": 0,
      "note": 79,
      "start": 27.867,
      "duration": 0.1635,
      "velocity": 106,
      "chip": "ym2612"
    },
    {
      "channel": 2,
      "note": 74,
      "start": 27.8681,
      "duration": 0.1635,
      "velocity": 106,
      "chip": "ym2612"
    },
    {
      "channel": 5,
      "note": 32,
      "start": 27.8699,
      "duration": 0.2289,
      "velocity": 114,
      "chip": "ym2612"
    },
    {
      "channel": 0,
      "note": 81,
      "start": 28.0311,
      "duration": 0.3352,
      "velocity": 106,
      "chip": "ym2612"
    },
    {
      "channel": 2,
      "note": 76,
      "start": 28.0322,
      "duration": 0.3356,
      "velocity": 106,
      "chip": "ym2612"
    },
    {
      "channel": 5,
      "note": 32,
      "start": 28.2023,
      "duration": 0.1614,
      "velocity": 114,
      "chip": "ym2612"
    },
    {
      "channel": 0,
      "note": 79,
      "start": 28.367,
      "duration": 0.1634,
      "velocity": 106,
      "chip": "ym2612"
    },
    {
      "channel": 1,
      "note": 45,
      "start": 28.3677,
      "duration": 0.3156,
      "velocity": 101,
      "chip": "ym2612"
    },
    {
      "channel": 2,
      "note": 74,
      "start": 28.3685,
      "duration": 0.1631,
      "velocity": 106,
      "chip": "ym2612"
    },
    {
      "channel": 5,
      "note": 75,
      "start": 28.3701,
      "duration": 0.3102,
      "velocity": 120,
      "chip": "ym2612"
    },
    {
      "channel": 0,
      "note": 81,
      "start": 28.5311,
      "duration": 0.1519,
      "velocity": 106,
      "chip": "ym2612"
    },
    {
      "channel": 2,
      "note": 76,
      "start": 28.5322,
      "duration": 0.1514,
      "velocity": 106,
      "chip": "ym2612"
    },
    {
      "channel": 5,
      "note": 32,
      "start": 28.6855,
      "duration": 0.2133,
      "velocity": 114,
      "chip": "ym2612"
    },
    {
      "channel": 0,
      "note": 76,
      "start": 28.8478,
      "duration": 0.1686,
      "velocity": 106,
      "chip": "ym2612"
    },
    {
      "channel": 2,
      "note": 71,
      "start": 28.8486,
      "duration": 0.1692,
      "velocity": 106,
      "chip": "ym2612"
    },
    {
      "channel": 0,
      "note": 79,
      "start": 29.017,
      "duration": 0.166,
      "velocity": 106,
      "chip": "ym2612"
    },
    {
      "channel": 1,
      "note": 45,
      "start": 29.0177,
      "duration": 0.3328,
      "velocity": 101,
      "chip": "ym2612"
    },
    {
      "channel": 2,
      "note": 74,
      "start": 29.0185,
      "duration": 0.1656,
      "velocity": 106,
      "chip": "ym2612"
    },
    {
      "channel": 5,
      "note": 75,
      "start": 29.0201,
      "duration": 0.1602,
      "velocity": 120,
      "chip": "ym2612"
    },
    {
      "channel": 0,
      "note": 81,
      "start": 29.1837,
      "duration": 0.166,
      "velocity": 106,
      "chip": "ym2612"
    },
    {
      "channel": 2,
      "note": 76,
      "start": 29.1848,
      "duration": 0.166,
      "velocity": 106,
      "chip": "ym2612"
    },
    {
      "channel": 5,
      "note": 32,
      "start": 29.1866,
      "duration": 0.1605,
      "velocity": 114,
      "chip": "ym2612"
    },
    {
      "channel": 0,
      "note": 84,
      "start": 29.3504,
      "duration": 0.1493,
      "velocity": 106,
      "chip": "ym2612"
    },
    {
      "channel": 2,
      "note": 79,
      "start": 29.3514,
      "duration": 0.1491,
      "velocity": 106,
      "chip": "ym2612"
    },
    {
      "channel": 5,
      "note": 32,
      "start": 29.3532,
      "duration": 0.1438,
      "velocity": 114,
      "chip": "ym2612"
    },
    {
      "channel": 0,
      "note": 83,
      "start": 29.5004,
      "duration": 0.166,
      "velocity": 106,
      "chip": "ym2612"
    },
    {
      "channel": 2,
      "note": 78,
      "start": 29.5012,
      "duration": 0.1666,
      "velocity": 106,
      "chip": "ym2612"
    },
    {
      "channel": 5,
      "note": 32,
      "start": 29.503,
      "duration": 0.1607,
      "velocity": 114,
      "chip": "ym2612"
    },
    {
      "channel": 0,
      "note": 81,
      "start": 29.667,
      "duration": 0.166,
      "velocity": 106,
      "chip": "ym2612"
    },
    {
      "channel": 1,
      "note": 45,
      "start": 29.6677,
      "duration": 0.1661,
      "velocity": 101,
      "chip": "ym2612"
    },
    {
      "channel": 2,
      "note": 76,
      "start": 29.6685,
      "duration": 0.1659,
      "velocity": 106,
      "chip": "ym2612"
    },
    {
      "channel": 5,
      "note": 75,
      "start": 29.6701,
      "duration": 0.1602,
      "velocity": 120,
      "chip": "ym2612"
    },
    {
      "channel": 0,
      "note": 79,
      "start": 29.8336,
      "duration": 0.1661,
      "velocity": 106,
      "chip": "ym2612"
    },
    {
      "channel": 1,
      "note": 45,
      "start": 29.8342,
      "duration": 0.1665,
      "velocity": 101,
      "chip": "ym2612"
    },
    {
      "channel": 2,
      "note": 74,
      "start": 29.835,
      "duration": 0.166,
      "velocity": 106,
      "chip": "ym2612"
    },
    {
      "channel": 5,
      "note": 32,
      "start": 29.8367,
      "duration": 0.1604,
      "velocity": 114,
      "chip": "ym2612"
    },
    {
      "channel": 0,
      "note": 79,
      "start": 30.0004,
      "duration": 0.1467,
      "velocity": 106,
      "chip": "ym2612"
    },
    {
      "channel": 2,
      "note": 74,
      "start": 30.0016,
      "duration": 0.1464,
      "velocity": 106,
      "chip": "ym2612"
    },
    {
      "channel": 3,
      "note": 64,
      "start": 30.0023,
      "duration": 2.5997,
      "velocity": 106,
      "chip": "ym2612"
    },
    {
      "channel": 4,
      "note": 57,
      "start": 30.003,
      "duration": 2.5994,
      "velocity": 106,
      "chip": "ym2612"
    },
    {
      "channel": 5,
      "note": 32,
      "start": 30.0038,
      "duration": 0.2115,
      "velocity": 114,
      "chip": "ym2612"
    },
    {
      "channel": 0,
      "note": 81,
      "start": 30.1478,
      "duration": 0.1686,
      "velocity": 106,
      "chip": "ym2612"
    },
    {
      "channel": 2,
      "note": 76,
      "start": 30.1486,
      "duration": 0.1687,
      "velocity": 106,
      "chip": "ym2612"
    },
    {
      "channel": 1,
      "note": 45,
      "start": 30.3172,
      "duration": 0.3307,
      "velocity": 101,
      "chip": "ym2612"
    },
    {
      "channel": 5,
      "note": 75,
      "start": 30.3189,
      "duration": 0.1615,
      "velocity": 120,
      "chip": "ym2612"
    },
    {
      "channel": 0,
      "note": 79,
      "start": 30.4836,
      "duration": 0.1635,
      "velocity": 106,
      "chip": "ym2612"
    },
    {
      "channel": 2,
      "note": 74,
      "start": 30.4848,
      "duration": 0.1635,
      "velocity": 106,
      "chip": "ym2612"
    },
    {
      "channel": 5,
      "note": 32,
      "start": 30.4866,
      "duration": 0.2123,
      "velocity": 114,
      "chip": "ym2612"
    },
    {
      "channel": 0,
      "note": 81,
      "start": 30.6478,
      "duration": 0.3186,
      "velocity": 106,
      "chip": "ym2612"
    },
    {
      "channel": 2,
      "note": 76,
      "start": 30.6489,
      "duration": 0.319,
      "velocity": 106,
      "chip": "ym2612"
    },
    {
      "channel": 5,
      "note": 32,
      "start": 30.819,
      "duration": 0.1447,
      "velocity": 114,
      "chip": "ym2612"
    },
    {
      "channel": 0,
      "note": 79,
      "start": 30.967,
      "duration": 0.1634,
      "velocity": 106,
      "chip": "ym2612"
    },
    {
      "channel": 1,
      "note": 45,
      "start": 30.9677,
      "duration": 0.3323,
      "velocity": 101,
      "chip": "ym2612"
    },
    {
      "channel": 2,
      "note": 74,
      "start": 30.9685,
      "duration": 0.1631,
      "velocity": 106,
      "chip": "ym2612"
    },
    {
      "channel": 5,
      "note": 75,
      "start": 30.9701,
      "duration": 0.3269,
      "velocity": 120,
      "chip": "ym2612"
    },
    {
      "channel": 0,
      "note": 81,
      "start": 31.1311,
      "duration": 0.1686,
      "velocity": 106,
      "chip": "ym2612"
    },
    {
      "channel": 2,
      "note": 76,
      "start": 31.1322,
      "duration": 0.1681,
      "velocity": 106,
      "chip": "ym2612"
    },
    {
      "channel": 5,
      "note": 32,
      "start": 31.3022,
      "duration": 0.2133,
      "velocity": 114,
      "chip": "ym2612"
    },
    {
      "channel": 0,
      "note": 74,
      "start": 31.4644,
      "duration": 0.1519,
      "velocity": 106,
      "chip": "ym2612"
    },
    {
      "channel": 2,
      "note": 69,
      "start": 31.4653,
      "duration": 0.152,
      "velocity": 106,
      "chip": "ym2612"
    },
    {
      "channel": 1,
      "note": 45,
      "start": 31.6172,
      "duration": 0.3333,
      "velocity": 101,
      "chip": "ym2612"
    },
    {
      "channel": 5,
      "note": 75,
      "start": 31.6192,
      "duration": 0.1612,
      "velocity": 120,
      "chip": "ym2612"
    },
    {
      "channel": 0,
      "note": 74,
      "start": 31.7837,
      "duration": 0.166,
      "velocity": 106,
      "chip": "ym2612"
    },
    {
      "channel": 2,
      "note": 69,
      "start": 31.7848,
      "duration": 0.166,
      "velocity": 106,
      "chip": "ym2612"
    },
    {
      "channel": 5,
      "note": 32,
      "start": 31.7866,
      "duration": 0.1605,
      "velocity": 114,
      "chip": "ym2612"
    },
    {
      "channel": 0,
      "note": 74,
      "start": 31.9504,
      "duration": 0.166,
      "velocity": 106,
      "chip": "ym2612"
    },
    {
      "channel": 2,
      "note": 69,
      "start": 31.9514,
      "duration": 0.1658,
      "velocity": 106,
      "chip": "ym2612"
    },
    {
      "channel": 5,
      "note": 32,
      "start": 31.9532,
      "duration": 0.1606,
      "velocity": 114,
      "chip": "ym2612"
    },
    {
      "channel": 0,
      "note": 75,
      "start": 32.117,
      "duration": 0.166,
      "velocity": 106,
      "chip": "ym2612"
    },
    {
      "channel": 2,
      "note": 70,
      "start": 32.1178,
      "duration": 0.1667,
      "velocity": 106,
      "chip": "ym2612"
    },
    {
      "channel": 5,
      "note": 32,
      "start": 32.1196,
      "duration": 0.1607,
      "velocity": 114,
      "chip": "ym2612"
    },
    {
      "channel": 0,
      "note": 76,
      "start": 32.2836,
      "duration": 0.1494,
      "velocity": 106,
      "chip": "ym2612"
    },
    {
      "channel": 1,
      "note": 45,
      "start": 32.2844,
      "duration": 0.1494,
      "velocity": 101,
      "chip": "ym2612"
    },
    {
      "channel": 2,
      "note": 71,
      "start": 32.2851,
      "duration": 0.1492,
      "velocity": 106,
      "chip": "ym2612"
    },
    {
      "channel": 5,
      "note": 75,
      "start": 32.2868,
      "duration": 0.1436,
      "velocity": 120,
      "chip": "ym2612"
    },
    {
      "channel": 0,
      "note": 79,
      "start": 32.4337,
      "duration": 0.1661,
      "velocity": 106,
      "chip": "ym2612"
    },
    {
      "channel": 1,
      "note": 45,
      "start": 32.4342,
      "duration": 0.1666,
      "velocity": 101,
      "chip": "ym2612"
    },
    {
      "channel": 2,
      "note": 74,
      "start": 32.435,
      "duration": 0.1661,
      "velocity": 106,
      "chip": "ym2612"
    },
    {
      "channel": 5,
      "note": 32,
      "start": 32.4367,
      "duration": 0.1604,
      "velocity": 114,
      "chip": "ym2612"
    },
    {
      "channel": 0,
      "note": 79,
      "start": 32.6005,
      "duration": 0.1632,
      "velocity": 106,
      "chip": "ym2612"
    },
    {
      "channel": 2,
      "note": 74,
      "start": 32.6019,
      "duration": 0.1628,
      "velocity": 106,
      "chip": "ym2612"
    },
    {
      "channel": 5,
      "note": 32,
      "start": 32.6033,
      "duration": 0.2115,
      "velocity": 114,
      "chip": "ym2612"
    },
    {
      "channel": 0,
      "note": 81,
      "start": 32.7644,
      "duration": 0.1686,
      "velocity": 106,
      "chip": "ym2612"
    },
    {
      "channel": 2,
      "note": 76,
      "start": 32.7653,
      "duration": 0.1687,
      "velocity": 106,
      "chip": "ym2612"
    },
    {
      "channel": 1,
      "note": 45,
      "start": 32.9339,
      "duration": 0.3141,
      "velocity": 101,
      "chip": "ym2612"
    },
    {
      "channel": 3,
      "note": 64,
      "start": 32.935,
      "duration": 0.3141,
      "velocity": 106,
      "chip": "ym2612"
    },
    {
      "channel": 4,
      "note": 57,
      "start": 32.9358,
      "duration": 0.3136,
      "velocity": 106,
      "chip": "ym2612"
    },
    {
      "channel": 5,
      "note": 75,
      "start": 32.9365,
      "duration": 0.1606,
      "velocity": 120,
      "chip": "ym2612"
    },
    {
      "channel": 0,
      "note": 79,
      "start": 33.1003,
      "duration": 0.1468,
      "velocity": 106,
      "chip": "ym2612"
    },
    {
      "channel": 2,
      "note": 74,
      "start": 33.1014,
      "duration": 0.1468,
      "velocity": 106,
      "chip": "ym2612"
    },
    {
      "channel": 5,
      "note": 32,
      "start": 33.103,
      "duration": 0.2118,
      "velocity": 114,
      "chip": "ym2612"
    },
    {
      "channel": 0,
      "note": 81,
      "start": 33.2478,
      "duration": 0.3352,
      "velocity": 106,
      "chip": "ym2612"
    },
    {
      "channel": 2,
      "note": 76,
      "start": 33.2489,
      "duration": 0.3356,
      "velocity": 106,
      "chip": "ym2612"
    },
    {
      "channel": 5,
      "note": 32,
      "start": 33.4182,
      "duration": 0.1622,
      "velocity": 114,
      "chip": "ym2612"
    },
    {
      "channel": 0,
      "note": 79,
      "start": 33.5837,
      "duration": 0.1634,
      "velocity": 106,
      "chip": "ym2612"
    },
    {
      "channel": 1,
      "note": 45,
      "start": 33.5844,
      "duration": 0.3156,
      "velocity": 101,
      "chip": "ym2612"
    },
    {
      "channel": 2,
      "note": 74,
      "start": 33.5851,
      "duration": 0.1631,
      "velocity": 106,
      "chip": "ym2612"
    },
    {
      "channel": 3,
      "note": 64,
      "start": 33.586,
      "duration": 0.3146,
      "velocity": 106,
      "chip": "ym2612"
    },
    {
      "channel": 4,
      "note": 57,
      "start": 33.5867,
      "duration": 0.3142,
      "velocity": 106,
      "chip": "ym2612"
    },
    {
      "channel": 5,
      "note": 75,
      "start": 33.5875,
      "duration": 0.3095,
      "velocity": 120,
      "chip": "ym2612"
    },
    {
      "channel": 0,
      "note": 81,
      "start": 33.7478,
      "duration": 0.1519,
      "velocity": 106,
      "chip": "ym2612"
    },
    {
      "channel": 2,
      "note": 76,
      "start": 33.7489,
      "duration": 0.1514,
      "velocity": 106,
      "chip": "ym2612"
    },
    {
      "channel": 5,
      "note": 32,
      "start": 33.902,
      "duration": 0.2295,
      "velocity": 114,
      "chip": "ym2612"
    },
    {
      "channel": 0,
      "note": 76,
      "start": 34.0644,
      "duration": 0.1686,
      "velocity": 106,
      "chip": "ym2612"
    },
    {
      "channel": 2,
      "note": 71,
      "start": 34.0653,
      "duration": 0.1692,
      "velocity": 106,
      "chip": "ym2612"
    },
    {
      "channel": 0,
      "note": 79,
      "start": 34.2337,
      "duration": 0.166,
      "velocity": 106,
      "chip": "ym2612"
    },
    {
      "channel": 1,
      "note": 45,
      "start": 34.2344,
      "duration": 0.3328,
      "velocity": 101,
      "chip": "ym2612"
    },
    {
      "channel": 2,
      "note": 74,
      "start": 34.2351,
      "duration": 0.1656,
      "velocity": 106,
      "chip": "ym2612"
    },
    {
      "channel": 3,
      "note": 64,
      "start": 34.236,
      "duration": 0.3323,
      "velocity": 106,
      "chip": "ym2612"
    },
    {
      "channel": 4,
      "note": 57,
      "start": 34.2367,
      "duration": 0.3319,
      "velocity": 106,
      "chip": "ym2612"
    },
    {
      "channel": 5,
      "note": 75,
      "start": 34.2374,
      "duration": 0.1596,
      "velocity": 120,
      "chip": "ym2612"
    },
    {
      "channel": 0,
      "note": 81,
      "start": 34.4004,
      "duration": 0.166,
      "velocity": 106,
      "chip": "ym2612"
    },
    {
      "channel": 2,
      "note": 76,
      "start": 34.4014,
      "duration": 0.166,
      "velocity": 106,
      "chip": "ym2612"
    },
    {
      "channel": 5,
      "note": 32,
      "start": 34.403,
      "duration": 0.1607,
      "velocity": 114,
      "chip": "ym2612"
    },
    {
      "channel": 0,
      "note": 84,
      "start": 34.567,
      "duration": 0.1494,
      "velocity": 106,
      "chip": "ym2612"
    },
    {
      "channel": 2,
      "note": 79,
      "start": 34.5681,
      "duration": 0.1492,
      "velocity": 106,
      "chip": "ym2612"
    },
    {
      "channel": 5,
      "note": 32,
      "start": 34.5696,
      "duration": 0.1442,
      "velocity": 114,
      "chip": "ym2612"
    },
    {
      "channel": 0,
      "note": 83,
      "start": 34.717,
      "duration": 0.166,
      "velocity": 106,
      "chip": "ym2612"
    },
    {
      "channel": 2,
      "note": 78,
      "start": 34.7179,
      "duration": 0.1666,
      "velocity": 106,
      "chip": "ym2612"
    },
    {
      "channel": 5,
      "note": 32,
      "start": 34.7189,
      "duration": 0.1615,
      "velocity": 114,
      "chip": "ym2612"
    },
    {
      "channel": 0,
      "note": 81,
      "start": 34.8837,
      "duration": 0.166,
      "velocity": 106,
      "chip": "ym2612"
    },
    {
      "channel": 1,
      "note": 45,
      "start": 34.8844,
      "duration": 0.1661,
      "velocity": 101,
      "chip": "ym2612"
    },
    {
      "channel": 2,
      "note": 76,
      "start": 34.8851,
      "duration": 0.1659,
      "velocity": 106,
      "chip": "ym2612"
    },
    {
      "channel": 3,
      "note": 64,
      "start": 34.886,
      "duration": 0.1658,
      "velocity": 106,
      "chip": "ym2612"
    },
    {
      "channel": 4,
      "note": 57,
      "start": 34.8868,
      "duration": 0.1656,
      "velocity": 106,
      "chip": "ym2612"
    },
    {
      "channel": 5,
      "note": 75,
      "start": 34.8875,
      "duration": 0.1595,
      "velocity": 120,
      "chip": "ym2612"
    },
    {
      "channel": 0,
      "note": 79,
      "start": 35.0503,
      "duration": 0.1661,
      "velocity": 106,
      "chip": "ym2612"
    },
    {
      "channel": 1,
      "note": 45,
      "start": 35.0509,
      "duration": 0.1665,
      "velocity": 101,
      "chip": "ym2612"
    },
    {
      "channel": 2,
      "note": 74,
      "start": 35.0517,
      "duration": 0.166,
      "velocity": 106,
      "chip": "ym2612"
    },
    {
      "channel": 3,
      "note": 64,
      "start": 35.0523,
      "duration": 0.1661,
      "velocity": 106,
      "chip": "ym2612"
    },
    {
      "channel": 4,
      "note": 57,
      "start": 35.053,
      "duration": 0.1658,
      "velocity": 106,
      "chip": "ym2612"
    },
    {
      "channel": 5,
      "note": 32,
      "start": 35.0538,
      "duration": 0.16,
      "velocity": 114,
      "chip": "ym2612"
    },
    {
      "channel": 0,
      "note": 79,
      "start": 35.2171,
      "duration": 0.1634,
      "velocity": 106,
      "chip": "ym2612"
    },
    {
      "channel": 2,
      "note": 74,
      "start": 35.2183,
      "duration": 0.163,
      "velocity": 106,
      "chip": "ym2612"
    },
    {
      "channel": 5,
      "note": 32,
      "start": 35.2198,
      "duration": 0.2117,
      "velocity": 114,
      "chip": "ym2612"
    },
    {
      "channel": 0,
      "note": 81,
      "start": 35.3811,
      "duration": 0.1519,
      "velocity": 106,
      "chip": "ym2612"
    },
    {
      "channel": 2,
      "note": 76,
      "start": 35.382,
      "duration": 0.152,
      "velocity": 106,
      "chip": "ym2612"
    },
    {
      "channel": 1,
      "note": 45,
      "start": 35.5339,
      "duration": 0.3307,
      "velocity": 101,
      "chip": "ym2612"
    },
    {
      "channel": 3,
      "note": 64,
      "start": 35.535,
      "duration": 0.3308,
      "velocity": 106,
      "chip": "ym2612"
    },
    {
      "channel": 4,
      "note": 57,
      "start": 35.5358,
      "duration": 0.3303,
      "velocity": 106,
      "chip": "ym2612"
    },
    {
      "channel": 5,
      "note": 75,
      "start": 35.5365,
      "duration": 0.1606,
      "velocity": 120,
      "chip": "ym2612"
    },
    {
      "channel": 0,
      "note": 79,
      "start": 35.7003,
      "duration": 0.1635,
      "velocity": 106,
      "chip": "ym2612"
    },
    {
      "channel": 2,
      "note": 74,
      "start": 35.7014,
      "duration": 0.1635,
      "velocity": 106,
      "chip": "ym2612"
    },
    {
      "channel": 5,
      "note": 32,
      "start": 35.703,
      "duration": 0.2118,
      "velocity": 114,
      "chip": "ym2612"
    },
    {
      "channel": 0,
      "note": 81,
      "start": 35.8644,
      "duration": 0.3186,
      "velocity": 106,
      "chip": "ym2612"
    },
    {
      "channel": 2,
      "note": 76,
      "start": 35.8656,
      "duration": 0.319,
      "velocity": 106,
      "chip": "ym2612"
    },
    {
      "channel": 5,
      "note": 32,
      "start": 36.0349,
      "duration": 0.1455,
      "velocity": 114,
      "chip": "ym2612"
    },
    {
      "channel": 0,
      "note": 79,
      "start": 36.1837,
      "duration": 0.1634,
      "velocity": 106,
      "chip": "ym2612"
    },
    {
      "channel": 1,
      "note": 45,
      "start": 36.1844,
      "duration": 0.3323,
      "velocity": 101,
      "chip": "ym2612"
    },
    {
      "channel": 2,
      "note": 74,
      "start": 36.1851,
      "duration": 0.1631,
      "velocity": 106,
      "chip": "ym2612"
    },
    {
      "channel": 3,
      "note": 64,
      "start": 36.186,
      "duration": 0.3313,
      "velocity": 106,
      "chip": "ym2612"
    },
    {
      "channel": 4,
      "note": 57,
      "start": 36.1867,
      "duration": 0.3309,
      "velocity": 106,
      "chip": "ym2612"
    },
    {
      "channel": 5,
      "note": 75,
      "start": 36.1875,
      "duration": 0.3262,
      "velocity": 120,
      "chip": "ym2612"
    },
    {
      "channel": 0,
      "note": 81,
      "start": 36.3478,
      "duration": 0.1686,
      "velocity": 106,
      "chip": "ym2612"
    },
    {
      "channel": 2,
      "note": 76,
      "start": 36.3489,
      "duration": 0.1681,
      "velocity": 106,
      "chip": "ym2612"
    },
    {
      "channel": 5,
      "note": 32,
      "start": 36.5186,
      "duration": 0.2128,
      "velocity": 114,
      "chip": "ym2612"
    },
    {
      "channel": 0,
      "note": 74,
      "start": 36.6811,
      "duration": 0.1686,
      "velocity": 106,
      "chip": "ym2612"
    },
    {
      "channel": 2,
      "note": 69,
      "start": 36.682,
      "duration": 0.1687,
      "velocity": 106,
      "chip": "ym2612"
    },
    {
      "channel": 1,
      "note": 45,
      "start": 36.8505,
      "duration": 0.3166,
      "velocity": 101,
      "chip": "ym2612"
    },
    {
      "channel": 3,
      "note": 64,
      "start": 36.8516,
      "duration": 0.3171,
      "velocity": 106,
      "chip": "ym2612"
    },
    {
      "channel": 4,
      "note": 57,
      "start": 36.8524,
      "duration": 0.3166,
      "velocity": 106,
      "chip": "ym2612"
    },
    {
      "channel": 5,
      "note": 75,
      "start": 36.8532,
      "duration": 0.1439,
      "velocity": 120,
      "chip": "ym2612"
    },
    {
      "channel": 0,
      "note": 74,
      "start": 37.0003,
      "duration": 0.166,
      "velocity": 106,
      "chip": "ym2612"
    },
    {
      "channel": 2,
      "note": 69,
      "start": 37.0014,
      "duration": 0.1664,
      "velocity": 106,
      "chip": "ym2612"
    },
    {
      "channel": 5,
      "note": 32,
      "start": 37.003,
      "duration": 0.1607,
      "velocity": 114,
      "chip": "ym2612"
    },
    {
      "channel": 0,
      "note": 74,
      "start": 37.167,
      "duration": 0.166,
      "velocity": 106,
      "chip": "ym2612"
    },
    {
      "channel": 1,
      "note": 45,
      "start": 37.1677,
      "duration": 0.1661,
      "velocity": 101,
      "chip": "ym2612"
    },
    {
      "channel": 2,
      "note": 69,
      "start": 37.1685,
      "duration": 0.166,
      "velocity": 106,
      "chip": "ym2612"
    },
    {
      "channel": 5,
      "note": 32,
      "start": 37.17,
      "duration": 0.1604,
      "velocity": 114,
      "chip": "ym2612"
    },
    {
      "channel": 0,
      "note": 75,
      "start": 37.3337,
      "duration": 0.166,
      "velocity": 106,
      "chip": "ym2612"
    },
    {
      "channel": 1,
      "note": 57,
      "start": 37.3344,
      "duration": 0.1661,
      "velocity": 101,
      "chip": "ym2612"
    },
    {
      "channel": 2,
      "note": 70,
      "start": 37.3351,
      "duration": 0.166,
      "velocity": 106,
      "chip": "ym2612"
    },
    {
      "channel": 5,
      "note": 32,
      "start": 37.3362,
      "duration": 0.1609,
      "velocity": 114,
      "chip": "ym2612"
    },
    {
      "channel": 0,
      "note": 76,
      "start": 37.5003,
      "duration": 0.1494,
      "velocity": 106,
      "chip": "ym2612"
    },
    {
      "channel": 1,
      "note": 43,
      "start": 37.501,
      "duration": 0.1495,
      "velocity": 101,
      "chip": "ym2612"
    },
    {
      "channel": 2,
      "note": 71,
      "start": 37.5018,
      "duration": 0.1494,
      "velocity": 106,
      "chip": "ym2612"
    },
    {
      "channel": 3,
      "note": 62,
      "start": 37.5027,
      "duration": 0.3163,
      "velocity": 106,
      "chip": "ym2612"
    },
    {
      "channel": 4,
      "note": 55,
      "start": 37.5034,
      "duration": 0.3163,
      "velocity": 106,
      "chip": "ym2612"
    },
    {
      "channel": 5,
      "note": 75,
      "start": 37.5041,
      "duration": 0.1429,
      "velocity": 120,
      "chip": "ym2612"
    },
    {
      "channel": 0,
      "note": 79,
      "start": 37.6503,
      "duration": 0.1663,
      "velocity": 106,
      "chip": "ym2612"
    },
    {
      "channel": 1,
      "note": 55,
      "start": 37.651,
      "duration": 0.1667,
      "velocity": 101,
      "chip": "ym2612"
    },
    {
      "channel": 2,
      "note": 74,
      "start": 37.6518,
      "duration": 0.1668,
      "velocity": 106,
      "chip": "ym2612"
    },
    {
      "channel": 5,
      "note": 32,
      "start": 37.6533,
      "duration": 0.1605,
      "velocity": 114,
      "chip": "ym2612"
    },
    {
      "channel": 0,
      "note": 77,
      "start": 37.8173,
      "duration": 0.6492,
      "velocity": 106,
      "chip": "ym2612"
    },
    {
      "channel": 1,
      "note": 53,
      "start": 37.8184,
      "duration": 0.1626,
      "velocity": 101,
      "chip": "ym2612"
    },
    {
      "channel": 3,
      "note": 60,
      "start": 37.8196,
      "duration": 1.316,
      "velocity": 106,
      "chip": "ym2612"
    },
    {
      "channel": 4,
      "note": 57,
      "start": 37.8204,
      "duration": 1.3155,
      "velocity": 106,
      "chip": "ym2612"
    },
    {
      "channel": 5,
      "note": 32,
      "start": 37.8212,
      "duration": 0.2111,
      "velocity": 114,
      "chip": "ym2612"
    },
    {
      "channel": 1,
      "note": 53,
      "start": 37.9813,
      "duration": 0.0855,
      "velocity": 101,
      "chip": "ym2612"
    },
    {
      "channel": 2,
      "note": 77,
      "start": 37.9827,
      "duration": 0.6492,
      "velocity": 106,
      "chip": "ym2612"
    },
    {
      "channel": 1,
      "note": 53,
      "start": 38.0672,
      "duration": 0.083,
      "velocity": 101,
      "chip": "ym2612"
    },
    {
      "channel": 5,
      "note": 32,
      "start": 38.0691,
      "duration": 0.0779,
      "velocity": 114,
      "chip": "ym2612"
    },
    {
      "channel": 1,
      "note": 53,
      "start": 38.1508,
      "duration": 0.1635,
      "velocity": 101,
      "chip": "ym2612"
    },
    {
      "channel": 5,
      "note": 75,
      "start": 38.1527,
      "duration": 0.2444,
      "velocity": 120,
      "chip": "ym2612"
    },
    {
      "channel": 1,
      "note": 53,
      "start": 38.3147,
      "duration": 0.0855,
      "velocity": 101,
      "chip": "ym2612"
    },
    {
      "channel": 1,
      "note": 53,
      "start": 38.4005,
      "duration": 0.0666,
      "velocity": 101,
      "chip": "ym2612"
    },
    {
      "channel": 5,
      "note": 32,
      "start": 38.4028,
      "duration": 0.061,
      "velocity": 114,
      "chip": "ym2612"
    },
    {
      "channel": 0,
      "note": 77,
      "start": 38.467,
      "duration": 0.1635,
      "velocity": 106,
      "chip": "ym2612"
    },
    {
      "channel": 1,
      "note": 53,
      "start": 38.4677,
      "duration": 0.1636,
      "velocity": 101,
      "chip": "ym2612"
    },
    {
      "channel": 5,
      "note": 32,
      "start": 38.47,
      "duration": 0.2125,
      "velocity": 114,
      "chip": "ym2612"
    },
    {
      "channel": 0,
      "note": 81,
      "start": 38.6311,
      "duration": 0.1686,
      "velocity": 106,
      "chip": "ym2612"
    },
    {
      "channel": 1,
      "note": 53,
      "start": 38.6317,
      "duration": 0.0851,
      "velocity": 101,
      "chip": "ym2612"
    },
    {
      "channel": 2,
      "note": 77,
      "start": 38.6323,
      "duration": 0.1685,
      "velocity": 106,
      "chip": "ym2612"
    },
    {
      "channel": 1,
      "note": 53,
      "start": 38.7171,
      "duration": 0.083,
      "velocity": 101,
      "chip": "ym2612"
    },
    {
      "channel": 5,
      "note": 32,
      "start": 38.7192,
      "duration": 0.0779,
      "velocity": 114,
      "chip": "ym2612"
    },
    {
      "channel": 1,
      "note": 53,
      "start": 38.8007,
      "duration": 0.1639,
      "velocity": 101,
      "chip": "ym2612"
    },
    {
      "channel": 2,
      "note": 81,
      "start": 38.8014,
      "duration": 0.1637,
      "velocity": 106,
      "chip": "ym2612"
    },
    {
      "channel": 5,
      "note": 75,
      "start": 38.8031,
      "duration": 0.244,
      "velocity": 120,
      "chip": "ym2612"
    },
    {
      "channel": 0,
      "note": 81,
      "start": 38.9644,
      "duration": 0.1687,
      "velocity": 106,
      "chip": "ym2612"
    },
    {
      "channel": 1,
      "note": 53,
      "start": 38.965,
      "duration": 0.0851,
      "velocity": 101,
      "chip": "ym2612"
    },
    {
      "channel": 1,
      "note": 53,
      "start": 39.0504,
      "duration": 0.0836,
      "velocity": 101,
      "chip": "ym2612"
    },
    {
      "channel": 5,
      "note": 32,
      "start": 39.0523,
      "duration": 0.0782,
      "velocity": 114,
      "chip": "ym2612"
    },
    {
      "channel": 0,
      "note": 84,
      "start": 39.1337,
      "duration": 0.0634,
      "velocity": 106,
      "chip": "ym2612"
    },
    {
      "channel": 1,
      "note": 53,
      "start": 39.1346,
      "duration": 0.1467,
      "velocity": 101,
      "chip": "ym2612"
    },
    {
      "channel": 2,
      "note": 81,
      "start": 39.1354,
      "duration": 0.1464,
      "velocity": 106,
      "chip": "ym2612"
    },
    {
      "channel": 5,
      "note": 32,
      "start": 39.1369,
      "duration": 0.2115,
      "velocity": 114,
      "chip": "ym2612"
    },
    {
      "channel": 0,
      "note": 81,
      "start": 39.1978,
      "duration": 0.0827,
      "velocity": 106,
      "chip": "ym2612"
    },
    {
      "channel": 0,
      "note": 81,
      "start": 39.2811,
      "duration": 0.0852,
      "velocity": 106,
      "chip": "ym2612"
    },
    {
      "channel": 1,
      "note": 53,
      "start": 39.2817,
      "duration": 0.0855,
      "velocity": 101,
      "chip": "ym2612"
    },
    {
      "channel": 2,
      "note": 84,
      "start": 39.2825,
      "duration": 0.0852,
      "velocity": 106,
      "chip": "ym2612"
    },
    {
      "channel": 0,
      "note": 84,
      "start": 39.367,
      "duration": 0.0826,
      "velocity": 106,
      "chip": "ym2612"
    },
    {
      "channel": 1,
      "note": 53,
      "start": 39.3675,
      "duration": 0.083,
      "velocity": 101,
      "chip": "ym2612"
    },
    {
      "channel": 2,
      "note": 81,
      "start": 39.3684,
      "duration": 0.0829,
      "velocity": 106,
      "chip": "ym2612"
    },
    {
      "channel": 5,
      "note": 32,
      "start": 39.3694,
      "duration": 0.0777,
      "velocity": 114,
      "chip": "ym2612"
    },
    {
      "channel": 0,
      "note": 77,
      "start": 39.4503,
      "duration": 0.0802,
      "velocity": 106,
      "chip": "ym2612"
    },
    {
      "channel": 1,
      "note": 53,
      "start": 39.4511,
      "duration": 0.1635,
      "velocity": 101,
      "chip": "ym2612"
    },
    {
      "channel": 2,
      "note": 81,
      "start": 39.452,
      "duration": 0.0796,
      "velocity": 106,
      "chip": "ym2612"
    },
    {
      "channel": 3,
      "note": 60,
      "start": 39.4527,
      "duration": 0.4796,
      "velocity": 106,
      "chip": "ym2612"
    },
    {
      "channel": 4,
      "note": 57,
      "start": 39.4535,
      "duration": 0.4794,
      "velocity": 106,
      "chip": "ym2612"
    },
    {
      "channel": 5,
      "note": 75,
      "start": 39.4542,
      "duration": 0.2428,
      "velocity": 120,
      "chip": "ym2612"
    },
    {
      "channel": 0,
      "note": 81,
      "start": 39.5311,
      "duration": 0.0827,
      "velocity": 106,
      "chip": "ym2612"
    },
    {
      "channel": 2,
      "note": 84,
      "start": 39.5322,
      "duration": 0.0829,
      "velocity": 106,
      "chip": "ym2612"
    },
    {
      "channel": 0,
      "note": 84,
      "start": 39.6144,
      "duration": 0.0852,
      "velocity": 106,
      "chip": "ym2612"
    },
    {
      "channel": 1,
      "note": 53,
      "start": 39.615,
      "duration": 0.0855,
      "velocity": 101,
      "chip": "ym2612"
    },
    {
      "channel": 2,
      "note": 77,
      "start": 39.6158,
      "duration": 0.0852,
      "velocity": 106,
      "chip": "ym2612"
    },
    {
      "channel": 0,
      "note": 89,
      "start": 39.7004,
      "duration": 0.0827,
      "velocity": 106,
      "chip": "ym2612"
    },
    {
      "channel": 1,
      "note": 53,
      "start": 39.7009,
      "duration": 0.0832,
      "velocity": 101,
      "chip": "ym2612"
    },
    {
      "channel": 2,
      "note": 81,
      "start": 39.7017,
      "duration": 0.083,
      "velocity": 106,
      "chip": "ym2612"
    },
    {
      "channel": 5,
      "note": 32,
      "start": 39.7032,
      "duration": 0.0773,
      "velocity": 114,
      "chip": "ym2612"
    },
    {
      "channel": 0,
      "note": 84,
      "start": 39.7837,
      "duration": 0.6494,
      "velocity": 106,
      "chip": "ym2612"
    },
    {
      "channel": 1,
      "note": 53,
      "start": 39.7846,
      "duration": 0.1463,
      "velocity": 101,
      "chip": "ym2612"
    },
    {
      "channel": 2,
      "note": 84,
      "start": 39.7854,
      "duration": 0.0791,
      "velocity": 106,
      "chip": "ym2612"
    },
    {
      "channel": 5,
      "note": 32,
      "start": 39.7869,
      "duration": 0.2121,
      "velocity": 114,
      "chip": "ym2612"
    },
    {
      "channel": 2,
      "note": 89,
      "start": 39.8651,
      "duration": 0.0663,
      "velocity": 106,
      "chip": "ym2612"
    },
    {
      "channel": 1,
      "note": 53,
      "start": 39.9313,
      "duration": 0.0854,
      "velocity": 101,
      "chip": "ym2612"
    },
    {
      "channel": 2,
      "note": 84,
      "start": 39.9322,
      "duration": 0.666,
      "velocity": 106,
      "chip": "ym2612"
    },
    {
      "channel": 3,
      "note": 60,
      "start": 39.9328,
      "duration": 0.5024,
      "velocity": 106,
      "chip": "ym2612"
    },
    {
      "channel": 4,
      "note": 57,
      "start": 39.9334,
      "duration": 0.5026,
      "velocity": 106,
      "chip": "ym2612"
    },
    {
      "channel": 1,
      "note": 53,
      "start": 40.0172,
      "duration": 0.083,
      "velocity": 101,
      "chip": "ym2612"
    },
    {
      "channel": 5,
      "note": 32,
      "start": 40.019,
      "duration": 0.078,
      "velocity": 114,
      "chip": "ym2612"
    },
    {
      "channel": 1,
      "note": 53,
      "start": 40.1008,
      "duration": 0.1634,
      "velocity": 101,
      "chip": "ym2612"
    },
    {
      "channel": 5,
      "note": 75,
      "start": 40.1027,
      "duration": 0.2444,
      "velocity": 120,
      "chip": "ym2612"
    },
    {
      "channel": 1,
      "note": 53,
      "start": 40.2647,
      "duration": 0.0854,
      "velocity": 101,
      "chip": "ym2612"
    },
    {
      "channel": 1,
      "note": 53,
      "start": 40.3505,
      "duration": 0.0835,
      "velocity": 101,
      "chip": "ym2612"
    },
    {
      "channel": 5,
      "note": 32,
      "start": 40.3525,
      "duration": 0.078,
      "velocity": 114,
      "chip": "ym2612"
    },
    {
      "channel": 0,
      "note": 79,
      "start": 40.4337,
      "duration": 0.6494,
      "velocity": 106,
      "chip": "ym2612"
    },
    {
      "channel": 1,
      "note": 55,
      "start": 40.4346,
      "duration": 0.163,
      "velocity": 101,
      "chip": "ym2612"
    },
    {
      "channel": 3,
      "note": 62,
      "start": 40.4359,
      "duration": 1.2994,
      "velocity": 106,
      "chip": "ym2612"
    },
    {
      "channel": 4,
      "note": 59,
      "start": 40.4367,
      "duration": 1.2989,
      "velocity": 106,
      "chip": "ym2612"
    },
    {
      "channel": 5,
      "note": 32,
      "start": 40.4375,
      "duration": 0.2115,
      "velocity": 114,
      "chip": "ym2612"
    },
    {
      "channel": 1,
      "note": 55,
      "start": 40.598,
      "duration": 0.0688,
      "velocity": 101,
      "chip": "ym2612"
    },
    {
      "channel": 2,
      "note": 79,
      "start": 40.5988,
      "duration": 0.6497,
      "velocity": 106,
      "chip": "ym2612"
    },
    {
      "channel": 1,
      "note": 55,
      "start": 40.6672,
      "duration": 0.083,
      "velocity": 101,
      "chip": "ym2612"
    },
    {
      "channel": 5,
      "note": 32,
      "start": 40.669,
      "duration": 0.078,
      "velocity": 114,
      "chip": "ym2612"
    },
    {
      "channel": 1,
      "note": 55,
      "start": 40.7508,
      "duration": 0.1634,
      "velocity": 101,
      "chip": "ym2612"
    },
    {
      "channel": 5,
      "note": 75,
      "start": 40.7527,
      "duration": 0.2444,
      "velocity": 120,
      "chip": "ym2612"
    },
    {
      "channel": 1,
      "note": 55,
      "start": 40.9147,
      "duration": 0.0854,
      "velocity": 101,
      "chip": "ym2612"
    },
    {
      "channel": 1,
      "note": 55,
      "start": 41.0005,
      "duration": 0.0833,
      "velocity": 101,
      "chip": "ym2612"
    },
    {
      "channel": 5,
      "note": 32,
      "start": 41.0027,
      "duration": 0.0778,
      "velocity": 114,
      "chip": "ym2612"
    },
    {
      "channel": 0,
      "note": 79,
      "start": 41.0836,
      "duration": 0.1635,
      "velocity": 106,
      "chip": "ym2612"
    },
    {
      "channel": 1,
      "note": 55,
      "start": 41.0844,
      "duration": 0.1636,
      "velocity": 101,
      "chip": "ym2612"
    },
    {
      "channel": 5,
      "note": 32,
      "start": 41.0866,
      "duration": 0.2125,
      "velocity": 114,
      "chip": "ym2612"
    },
    {
      "channel": 0,
      "note": 83,
      "start": 41.2478,
      "duration": 0.316,
      "velocity": 106,
      "chip": "ym2612"
    },
    {
      "channel": 1,
      "note": 55,
      "start": 41.2483,
      "duration": 0.0851,
      "velocity": 101,
      "chip": "ym2612"
    },
    {
      "channel": 2,
      "note": 79,
      "start": 41.249,
      "duration": 0.152,
      "velocity": 106,
      "chip": "ym2612"
    },
    {
      "channel": 1,
      "note": 55,
      "start": 41.3337,
      "duration": 0.0665,
      "velocity": 101,
      "chip": "ym2612"
    },
    {
      "channel": 5,
      "note": 32,
      "start": 41.3359,
      "duration": 0.0612,
      "velocity": 114,
      "chip": "ym2612"
    },
    {
      "channel": 1,
      "note": 55,
      "start": 41.4008,
      "duration": 0.1638,
      "velocity": 101,
      "chip": "ym2612"
    },
    {
      "channel": 2,
      "note": 83,
      "start": 41.4016,
      "duration": 0.3328,
      "velocity": 106,
      "chip": "ym2612"
    },
    {
      "channel": 5,
      "note": 75,
      "start": 41.4032,
      "duration": 0.2438,
      "velocity": 120,
      "chip": "ym2612"
    },
    {
      "channel": 0,
      "note": 91,
      "start": 41.5644,
      "duration": 0.5019,
      "velocity": 106,
      "chip": "ym2612"
    },
    {
      "channel": 1,
      "note": 55,
      "start": 41.565,
      "duration": 0.0851,
      "velocity": 101,
      "chip": "ym2612"
    },
    {
      "channel": 1,
      "note": 55,
      "start": 41.6504,
      "duration": 0.0833,
      "velocity": 101,
      "chip": "ym2612"
    },
    {
      "channel": 5,
      "note": 32,
      "start": 41.6527,
      "duration": 0.0778,
      "velocity": 114,
      "chip": "ym2612"
    },
    {
      "channel": 1,
      "note": 55,
      "start": 41.7343,
      "duration": 0.1634,
      "velocity": 101,
      "chip": "ym2612"
    },
    {
      "channel": 2,
      "note": 91,
      "start": 41.7351,
      "duration": 0.4797,
      "velocity": 106,
      "chip": "ym2612"
    },
    {
      "channel": 5,
      "note": 32,
      "start": 41.7366,
      "duration": 0.212,
      "velocity": 114,
      "chip": "ym2612"
    },
    {
      "channel": 1,
      "note": 55,
      "start": 41.898,
      "duration": 0.0855,
      "velocity": 101,
      "chip": "ym2612"
    },
    {
      "channel": 1,
      "note": 55,
      "start": 41.9839,
      "duration": 0.0834,
      "velocity": 101,
      "chip": "ym2612"
    },
    {
      "channel": 5,
      "note": 32,
      "start": 41.9854,
      "duration": 0.0784,
      "velocity": 114,
      "chip": "ym2612"
    },
    {
      "channel": 0,
      "note": 89,
      "start": 42.067,
      "duration": 0.3161,
      "velocity": 106,
      "chip": "ym2612"
    },
    {
      "channel": 1,
      "note": 55,
      "start": 42.0678,
      "duration": 0.1464,
      "velocity": 101,
      "chip": "ym2612"
    },
    {
      "channel": 3,
      "note": 62,
      "start": 42.0691,
      "duration": 0.4798,
      "velocity": 106,
      "chip": "ym2612"
    },
    {
      "channel": 4,
      "note": 59,
      "start": 42.07,
      "duration": 0.4796,
      "velocity": 106,
      "chip": "ym2612"
    },
    {
      "channel": 5,
      "note": 75,
      "start": 42.0707,
      "duration": 0.2264,
      "velocity": 120,
      "chip": "ym2612"
    },
    {
      "channel": 1,
      "note": 55,
      "start": 42.2147,
      "duration": 0.0854,
      "velocity": 101,
      "chip": "ym2612"
    },
    {
      "channel": 2,
      "note": 89,
      "start": 42.2155,
      "duration": 0.3326,
      "velocity": 106,
      "chip": "ym2612"
    },
    {
      "channel": 1,
      "note": 55,
      "start": 42.3005,
      "duration": 0.0835,
      "velocity": 101,
      "chip": "ym2612"
    },
    {
      "channel": 5,
      "note": 32,
      "start": 42.3024,
      "duration": 0.0781,
      "velocity": 114,
      "chip": "ym2612"
    },
    {
      "channel": 0,
      "note": 88,
      "start": 42.3837,
      "duration": 0.3326,
      "velocity": 106,
      "chip": "ym2612"
    },
    {
      "channel": 1,
      "note": 55,
      "start": 42.3846,
      "duration": 0.163,
      "velocity": 101,
      "chip": "ym2612"
    },
    {
      "channel": 5,
      "note": 32,
      "start": 42.3866,
      "duration": 0.2124,
      "velocity": 114,
      "chip": "ym2612"
    },
    {
      "channel": 1,
      "note": 55,
      "start": 42.548,
      "duration": 0.0855,
      "velocity": 101,
      "chip": "ym2612"
    },
    {
      "channel": 2,
      "note": 88,
      "start": 42.5488,
      "duration": 0.3327,
      "velocity": 106,
      "chip": "ym2612"
    },
    {
      "channel": 3,
      "note": 62,
      "start": 42.5495,
      "duration": 0.4857,
      "velocity": 106,
      "chip": "ym2612"
    },
    {
      "channel": 4,
      "note": 59,
      "start": 42.5501,
      "duration": 0.4859,
      "velocity": 106,
      "chip": "ym2612"
    },
    {
      "channel": 1,
      "note": 55,
      "start": 42.6339,
      "duration": 0.0833,
      "velocity": 101,
      "chip": "ym2612"
    },
    {
      "channel": 5,
      "note": 32,
      "start": 42.6358,
      "duration": 0.0779,
      "velocity": 114,
      "chip": "ym2612"
    },
    {
      "channel": 0,
      "note": 86,
      "start": 42.717,
      "duration": 0.3161,
      "velocity": 106,
      "chip": "ym2612"
    },
    {
      "channel": 1,
      "note": 55,
      "start": 42.7178,
      "duration": 0.1632,
      "velocity": 101,
      "chip": "ym2612"
    },
    {
      "channel": 5,
      "note": 75,
      "start": 42.7197,
      "duration": 0.2274,
      "velocity": 120,
      "chip": "ym2612"
    },
    {
      "channel": 1,
      "note": 55,
      "start": 42.8813,
      "duration": 0.0688,
      "velocity": 101,
      "chip": "ym2612"
    },
    {
      "channel": 2,
      "note": 86,
      "start": 42.8822,
      "duration": 0.316,
      "velocity": 106,
      "chip": "ym2612"
    },
    {
      "channel": 1,
      "note": 55,
      "start": 42.9505,
      "duration": 0.0835,
      "velocity": 101,
      "chip": "ym2612"
    },
    {
      "channel": 5,
      "note": 32,
      "start": 42.9524,
      "duration": 0.0781,
      "velocity": 114,
      "chip": "ym2612"
    },
    {
      "channel": 0,
      "note": 77,
      "start": 43.0337,
      "duration": 0.6494,
      "velocity": 106,
      "chip": "ym2612"
    },
    {
      "channel": 1,
      "note": 53,
      "start": 43.0346,
      "duration": 0.163,
      "velocity": 101,
      "chip": "ym2612"
    },
    {
      "channel": 3,
      "note": 60,
      "start": 43.0359,
      "duration": 1.3163,
      "velocity": 106,
      "chip": "ym2612"
    },
    {
      "channel": 4,
      "note": 57,
      "start": 43.0366,
      "duration": 1.3159,
      "velocity": 106,
      "chip": "ym2612"
    },
    {
      "channel": 5,
      "note": 32,
      "start": 43.0374,
      "duration": 0.2116,
      "velocity": 114,
      "chip": "ym2612"
    },
    {
      "channel": 1,
      "note": 53,
      "start": 43.198,
      "duration": 0.0855,
      "velocity": 101,
      "chip": "ym2612"
    },
    {
      "channel": 2,
      "note": 77,
      "start": 43.1988,
      "duration": 0.6497,
      "velocity": 106,
      "chip": "ym2612"
    },
    {
      "channel": 1,
      "note": 53,
      "start": 43.2839,
      "duration": 0.083,
      "velocity": 101,
      "chip": "ym2612"
    },
    {
      "channel": 5,
      "note": 32,
      "start": 43.2858,
      "duration": 0.0779,
      "velocity": 114,
      "chip": "ym2612"
    },
    {
      "channel": 1,
      "note": 53,
      "start": 43.3675,
      "duration": 0.1635,
      "velocity": 101,
      "chip": "ym2612"
    },
    {
      "channel": 5,
      "note": 75,
      "start": 43.3694,
      "duration": 0.2444,
      "velocity": 120,
      "chip": "ym2612"
    },
    {
      "channel": 1,
      "note": 53,
      "start": 43.5313,
      "duration": 0.0855,
      "velocity": 101,
      "chip": "ym2612"
    },
    {
      "channel": 1,
      "note": 53,
      "start": 43.6172,
      "duration": 0.0666,
      "velocity": 101,
      "chip": "ym2612"
    },
    {
      "channel": 5,
      "note": 32,
      "start": 43.6195,
      "duration": 0.061,
      "velocity": 114,
      "chip": "ym2612"
    },
    {
      "channel": 0,
      "note": 77,
      "start": 43.6836,
      "duration": 0.1635,
      "velocity": 106,
      "chip": "ym2612"
    },
    {
      "channel": 1,
      "note": 53,
      "start": 43.6844,
      "duration": 0.1636,
      "velocity": 101,
      "chip": "ym2612"
    },
    {
      "channel": 5,
      "note": 32,
      "start": 43.6866,
      "duration": 0.2291,
      "velocity": 114,
      "chip": "ym2612"
    },
    {
      "channel": 0,
      "note": 81,
      "start": 43.8478,
      "duration": 0.1686,
      "velocity": 106,
      "chip": "ym2612"
    },
    {
      "channel": 1,
      "note": 53,
      "start": 43.8483,
      "duration": 0.0851,
      "velocity": 101,
      "chip": "ym2612"
    },
    {
      "channel": 2,
      "note": 77,
      "start": 43.849,
      "duration": 0.1685,
      "velocity": 106,
      "chip": "ym2612"
    },
    {
      "channel": 1,
      "note": 53,
      "start": 43.9337,
      "duration": 0.083,
      "velocity": 101,
      "chip": "ym2612"
    },
    {
      "channel": 5,
      "note": 32,
      "start": 43.9359,
      "duration": 0.0779,
      "velocity": 114,
      "chip": "ym2612"
    },
    {
      "channel": 1,
      "note": 53,
      "start": 44.0173,
      "duration": 0.1639,
      "velocity": 101,
      "chip": "ym2612"
    },
    {
      "channel": 2,
      "note": 81,
      "start": 44.0181,
      "duration": 0.1637,
      "velocity": 106,
      "chip": "ym2612"
    },
    {
      "channel": 5,
      "note": 75,
      "start": 44.0198,
      "duration": 0.244,
      "velocity": 120,
      "chip": "ym2612"
    },
    {
      "channel": 0,
      "note": 81,
      "start": 44.1811,
      "duration": 0.1687,
      "velocity": 106,
      "chip": "ym2612"
    },
    {
      "channel": 1,
      "note": 53,
      "start": 44.1817,
      "duration": 0.0851,
      "velocity": 101,
      "chip": "ym2612"
    },
    {
      "channel": 1,
      "note": 53,
      "start": 44.2671,
      "duration": 0.0836,
      "velocity": 101,
      "chip": "ym2612"
    },
    {
      "channel": 5,
      "note": 32,
      "start": 44.2689,
      "duration": 0.0782,
      "velocity": 114,
      "chip": "ym2612"
    },
    {
      "channel": 0,
      "note": 84,
      "start": 44.3504,
      "duration": 0.0634,
      "velocity": 106,
      "chip": "ym2612"
    },
    {
      "channel": 1,
      "note": 53,
      "start": 44.3512,
      "duration": 0.1467,
      "velocity": 101,
      "chip": "ym2612"
    },
    {
      "channel": 2,
      "note": 81,
      "start": 44.3521,
      "duration": 0.1464,
      "velocity": 106,
      "chip": "ym2612"
    },
    {
      "channel": 5,
      "note": 32,
      "start": 44.3535,
      "duration": 0.2115,
      "velocity": 114,
      "chip": "ym2612"
    },
    {
      "channel": 0,
      "note": 81,
      "start": 44.4144,
      "duration": 0.0827,
      "velocity": 106,
      "chip": "ym2612"
    },
    {
      "channel": 0,
      "note": 81,
      "start": 44.4978,
      "duration": 0.0852,
      "velocity": 106,
      "chip": "ym2612"
    },
    {
      "channel": 1,
      "note": 53,
      "start": 44.4983,
      "duration": 0.0855,
      "velocity": 101,
      "chip": "ym2612"
    },
    {
      "channel": 2,
      "note": 84,
      "start": 44.4991,
      "duration": 0.0852,
      "velocity": 106,
      "chip": "ym2612"
    },
    {
      "channel": 0,
      "note": 84,
      "start": 44.5837,
      "duration": 0.0826,
      "velocity": 106,
      "chip": "ym2612"
    },
    {
      "channel": 1,
      "note": 53,
      "start": 44.5842,
      "duration": 0.083,
      "velocity": 101,
      "chip": "ym2612"
    },
    {
      "channel": 2,
      "note": 81,
      "start": 44.585,
      "duration": 0.0829,
      "velocity": 106,
      "chip": "ym2612"
    },
    {
      "channel": 5,
      "note": 32,
      "start": 44.586,
      "duration": 0.0777,
      "velocity": 114,
      "chip": "ym2612"
    },
    {
      "channel": 0,
      "note": 89,
      "start": 44.667,
      "duration": 0.0801,
      "velocity": 106,
      "chip": "ym2612"
    },
    {
      "channel": 1,
      "note": 53,
      "start": 44.6678,
      "duration": 0.1635,
      "velocity": 101,
      "chip": "ym2612"
    },
    {
      "channel": 2,
      "note": 81,
      "start": 44.6686,
      "duration": 0.0796,
      "velocity": 106,
      "chip": "ym2612"
    },
    {
      "channel": 3,
      "note": 60,
      "start": 44.6694,
      "duration": 0.4964,
      "velocity": 106,
      "chip": "ym2612"
    },
    {
      "channel": 4,
      "note": 57,
      "start": 44.6702,
      "duration": 0.4962,
      "velocity": 106,
      "chip": "ym2612"
    },
    {
      "channel": 5,
      "note": 75,
      "start": 44.6709,
      "duration": 0.2428,
      "velocity": 120,
      "chip": "ym2612"
    },
    {
      "channel": 0,
      "note": 81,
      "start": 44.7478,
      "duration": 0.0827,
      "velocity": 106,
      "chip": "ym2612"
    },
    {
      "channel": 2,
      "note": 84,
      "start": 44.7489,
      "duration": 0.0829,
      "velocity": 106,
      "chip": "ym2612"
    },
    {
      "channel": 0,
      "note": 84,
      "start": 44.8311,
      "duration": 0.0852,
      "velocity": 106,
      "chip": "ym2612"
    },
    {
      "channel": 1,
      "note": 53,
      "start": 44.8317,
      "duration": 0.0855,
      "velocity": 101,
      "chip": "ym2612"
    },
    {
      "channel": 2,
      "note": 89,
      "start": 44.8325,
      "duration": 0.0852,
      "velocity": 106,
      "chip": "ym2612"
    },
    {
      "channel": 0,
      "note": 89,
      "start": 44.917,
      "duration": 0.0828,
      "velocity": 106,
      "chip": "ym2612"
    },
    {
      "channel": 1,
      "note": 53,
      "start": 44.9175,
      "duration": 0.0833,
      "velocity": 101,
      "chip": "ym2612"
    },
    {
      "channel": 2,
      "note": 81,
      "start": 44.9184,
      "duration": 0.0831,
      "velocity": 106,
      "chip": "ym2612"
    },
    {
      "channel": 5,
      "note": 32,
      "start": 44.9199,
      "duration": 0.0773,
      "velocity": 114,
      "chip": "ym2612"
    },
    {
      "channel": 0,
      "note": 84,
      "start": 45.0005,
      "duration": 0.6492,
      "velocity": 106,
      "chip": "ym2612"
    },
    {
      "channel": 1,
      "note": 53,
      "start": 45.0014,
      "duration": 0.1629,
      "velocity": 101,
      "chip": "ym2612"
    },
    {
      "channel": 2,
      "note": 84,
      "start": 45.0021,
      "duration": 0.079,
      "velocity": 106,
      "chip": "ym2612"
    },
    {
      "channel": 5,
      "note": 32,
      "start": 45.0037,
      "duration": 0.212,
      "velocity": 114,
      "chip": "ym2612"
    },
    {
      "channel": 2,
      "note": 89,
      "start": 45.0818,
      "duration": 0.0832,
      "velocity": 106,
      "chip": "ym2612"
    },
    {
      "channel": 1,
      "note": 53,
      "start": 45.1647,
      "duration": 0.0688,
      "velocity": 101,
      "chip": "ym2612"
    },
    {
      "channel": 2,
      "note": 84,
      "start": 45.1656,
      "duration": 0.4863,
      "velocity": 106,
      "chip": "ym2612"
    },
    {
      "channel": 3,
      "note": 60,
      "start": 45.1663,
      "duration": 0.4864,
      "velocity": 106,
      "chip": "ym2612"
    },
    {
      "channel": 4,
      "note": 57,
      "start": 45.1669,
      "duration": 0.4865,
      "velocity": 106,
      "chip": "ym2612"
    },
    {
      "channel": 1,
      "note": 53,
      "start": 45.2339,
      "duration": 0.083,
      "velocity": 101,
      "chip": "ym2612"
    },
    {
      "channel": 5,
      "note": 32,
      "start": 45.2357,
      "duration": 0.078,
      "velocity": 114,
      "chip": "ym2612"
    },
    {
      "channel": 1,
      "note": 53,
      "start": 45.3175,
      "duration": 0.1634,
      "velocity": 101,
      "chip": "ym2612"
    },
    {
      "channel": 5,
      "note": 75,
      "start": 45.3193,
      "duration": 0.2444,
      "velocity": 120,
      "chip": "ym2612"
    },
    {
      "channel": 1,
      "note": 53,
      "start": 45.4813,
      "duration": 0.0854,
      "velocity": 101,
      "chip": "ym2612"
    },
    {
      "channel": 1,
      "note": 53,
      "start": 45.5672,
      "duration": 0.0835,
      "velocity": 101,
      "chip": "ym2612"
    },
    {
      "channel": 5,
      "note": 32,
      "start": 45.5692,
      "duration": 0.078,
      "velocity": 114,
      "chip": "ym2612"
    },
    {
      "channel": 0,
      "note": 79,
      "start": 45.6504,
      "duration": 0.6494,
      "velocity": 106,
      "chip": "ym2612"
    },
    {
      "channel": 1,
      "note": 55,
      "start": 45.6512,
      "duration": 0.163,
      "velocity": 101,
      "chip": "ym2612"
    },
    {
      "channel": 2,
      "note": 74,
      "start": 45.6524,
      "duration": 0.6487,
      "velocity": 106,
      "chip": "ym2612"
    },
    {
      "channel": 3,
      "note": 59,
      "start": 45.6533,
      "duration": 0.6485,
      "velocity": 106,
      "chip": "ym2612"
    },
    {
      "channel": 4,
      "note": 52,
      "start": 45.6541,
      "duration": 0.0777,
      "velocity": 106,
      "chip": "ym2612"
    },
    {
      "channel": 5,
      "note": 32,
      "start": 45.6549,
      "duration": 0.2109,
      "velocity": 114,
      "chip": "ym2612"
    },
    {
      "channel": 4,
      "note": 55,
      "start": 45.7325,
      "duration": 0.0832,
      "velocity": 106,
      "chip": "ym2612"
    },
    {
      "channel": 1,
      "note": 55,
      "start": 45.8147,
      "duration": 0.0855,
      "velocity": 101,
      "chip": "ym2612"
    },
    {
      "channel": 4,
      "note": 59,
      "start": 45.8163,
      "duration": 0.0852,
      "velocity": 106,
      "chip": "ym2612"
    },
    {
      "channel": 1,
      "note": 55,
      "start": 45.9005,
      "duration": 0.0663,
      "velocity": 101,
      "chip": "ym2612"
    },
    {
      "channel": 4,
      "note": 62,
      "start": 45.9022,
      "duration": 0.0662,
      "velocity": 106,
      "chip": "ym2612"
    },
    {
      "channel": 5,
      "note": 32,
      "start": 45.903,
      "duration": 0.0607,
      "velocity": 114,
      "chip": "ym2612"
    },
    {
      "channel": 1,
      "note": 55,
      "start": 45.9675,
      "duration": 0.1634,
      "velocity": 101,
      "chip": "ym2612"
    },
    {
      "channel": 4,
      "note": 52,
      "start": 45.969,
      "duration": 0.0797,
      "velocity": 106,
      "chip": "ym2612"
    },
    {
      "channel": 5,
      "note": 75,
      "start": 45.9698,
      "duration": 0.244,
      "velocity": 120,
      "chip": "ym2612"
    },
    {
      "channel": 4,
      "note": 55,
      "start": 46.0493,
      "duration": 0.083,
      "velocity": 106,
      "chip": "ym2612"
    },
    {
      "channel": 1,
      "note": 55,
      "start": 46.1313,
      "duration": 0.0854,
      "velocity": 101,
      "chip": "ym2612"
    },
    {
      "channel": 4,
      "note": 59,
      "start": 46.133,
      "duration": 0.0852,
      "velocity": 106,
      "chip": "ym2612"
    },
    {
      "channel": 1,
      "note": 55,
      "start": 46.2172,
      "duration": 0.0833,
      "velocity": 101,
      "chip": "ym2612"
    },
    {
      "channel": 4,
      "note": 62,
      "start": 46.2189,
      "duration": 0.0835,
      "velocity": 106,
      "chip": "ym2612"
    },
    {
      "channel": 5,
      "note": 32,
      "start": 46.2198,
      "duration": 0.0774,
      "velocity": 114,
      "chip": "ym2612"
    },
    {
      "channel": 0,
      "note": 79,
      "start": 46.3003,
      "duration": 0.216,
      "velocity": 106,
      "chip": "ym2612"
    },
    {
      "channel": 1,
      "note": 55,
      "start": 46.301,
      "duration": 0.1632,
      "velocity": 101,
      "chip": "ym2612"
    },
    {
      "channel": 2,
      "note": 74,
      "start": 46.3017,
      "duration": 0.2158,
      "velocity": 106,
      "chip": "ym2612"
    },
    {
      "channel": 3,
      "note": 59,
      "start": 46.3023,
      "duration": 0.2159,
      "velocity": 106,
      "chip": "ym2612"
    },
    {
      "channel": 4,
      "note": 52,
      "start": 46.3032,
      "duration": 0.0787,
      "velocity": 106,
      "chip": "ym2612"
    },
    {
      "channel": 5,
      "note": 75,
      "start": 46.3039,
      "duration": 0.1099,
      "velocity": 120,
      "chip": "ym2612"
    },
    {
      "channel": 4,
      "note": 55,
      "start": 46.3825,
      "duration": 0.0832,
      "velocity": 106,
      "chip": "ym2612"
    },
    {
      "channel": 5,
      "note": 32,
      "start": 46.4187,
      "duration": 0.095,
      "velocity": 114,
      "chip": "ym2612"
    },
    {
      "channel": 1,
      "note": 55,
      "start": 46.4647,
      "duration": 0.0828,
      "velocity": 101,
      "chip": "ym2612"
    },
    {
      "channel": 4,
      "note": 59,
      "start": 46.4663,
      "duration": 0.0824,
      "velocity": 106,
      "chip": "ym2612"
    },
    {
      "channel": 0,
      "note": 76,
      "start": 46.517,
      "duration": 0.216,
      "velocity": 106,
      "chip": "ym2612"
    },
    {
      "channel": 2,
      "note": 71,
      "start": 46.5181,
      "duration": 0.216,
      "velocity": 106,
      "chip": "ym2612"
    },
    {
      "channel": 3,
      "note": 55,
      "start": 46.5189,
      "duration": 0.216,
      "velocity": 106,
      "chip": "ym2612"
    },
    {
      "channel": 5,
      "note": 75,
      "start": 46.52,
      "duration": 0.1104,
      "velocity": 120,
      "chip": "ym2612"
    },
    {
      "channel": 1,
      "note": 55,
      "start": 46.5479,
      "duration": 0.0856,
      "velocity": 101,
      "chip": "ym2612"
    },
    {
      "channel": 4,
      "note": 62,
      "start": 46.5493,
      "duration": 0.0855,
      "velocity": 106,
      "chip": "ym2612"
    },
    {
      "channel": 1,
      "note": 55,
      "start": 46.634,
      "duration": 0.1468,
      "velocity": 101,
      "chip": "ym2612"
    },
    {
      "channel": 4,
      "note": 52,
      "start": 46.6355,
      "duration": 0.0632,
      "velocity": 106,
      "chip": "ym2612"
    },
    {
      "channel": 5,
      "note": 32,
      "start": 46.6363,
      "duration": 0.0941,
      "velocity": 114,
      "chip": "ym2612"
    },
    {
      "channel": 4,
      "note": 55,
      "start": 46.6993,
      "duration": 0.0827,
      "velocity": 106,
      "chip": "ym2612"
    },
    {
      "channel": 0,
      "note": 79,
      "start": 46.7336,
      "duration": 0.216,
      "velocity": 106,
      "chip": "ym2612"
    },
    {
      "channel": 2,
      "note": 74,
      "start": 46.7348,
      "duration": 0.2165,
      "velocity": 106,
      "chip": "ym2612"
    },
    {
      "channel": 3,
      "note": 59,
      "start": 46.7356,
      "duration": 0.2165,
      "velocity": 106,
      "chip": "ym2612"
    },
    {
      "channel": 5,
      "note": 75,
      "start": 46.7366,
      "duration": 0.1104,
      "velocity": 120,
      "chip": "ym2612"
    },
    {
      "channel": 1,
      "note": 55,
      "start": 46.7812,
      "duration": 0.0829,
      "velocity": 101,
      "chip": "ym2612"
    },
    {
      "channel": 4,
      "note": 59,
      "start": 46.7827,
      "duration": 0.0827,
      "velocity": 106,
      "chip": "ym2612"
    },
    {
      "channel": 5,
      "note": 32,
      "start": 46.8521,
      "duration": 0.095,
      "velocity": 114,
      "chip": "ym2612"
    },
    {
      "channel": 1,
      "note": 55,
      "start": 46.8645,
      "duration": 0.086,
      "velocity": 101,
      "chip": "ym2612"
    },
    {
      "channel": 4,
      "note": 62,
      "start": 46.866,
      "duration": 0.0868,
      "velocity": 106,
      "chip": "ym2612"
    },
    {
      "channel": 0,
      "note": 80,
      "start": 46.9504,
      "duration": 1.2993,
      "velocity": 106,
      "chip": "ym2612"
    },
    {
      "channel": 1,
      "note": 56,
      "start": 46.9511,
      "duration": 0.1632,
      "velocity": 101,
      "chip": "ym2612"
    },
    {
      "channel": 2,
      "note": 76,
      "start": 46.952,
      "duration": 0.649,
      "velocity": 106,
      "chip": "ym2612"
    },
    {
      "channel": 3,
      "note": 56,
      "start": 46.9527,
      "duration": 0.0813,
      "velocity": 106,
      "chip": "ym2612"
    },
    {
      "channel": 4,
      "note": 52,
      "start": 46.9535,
      "duration": 0.0813,
      "velocity": 106,
      "chip": "ym2612"
    },
    {
      "channel": 5,
      "note": 32,
      "start": 46.9543,
      "duration": 0.0761,
      "velocity": 114,
      "chip": "ym2612"
    },
    {
      "channel": 3,
      "note": 59,
      "start": 47.0346,
      "duration": 0.0807,
      "velocity": 106,
      "chip": "ym2612"
    },
    {
      "channel": 4,
      "note": 56,
      "start": 47.0355,
      "duration": 0.0806,
      "velocity": 106,
      "chip": "ym2612"
    },
    {
      "channel": 5,
      "note": 75,
      "start": 47.0362,
      "duration": 0.1609,
      "velocity": 120,
      "chip": "ym2612"
    },
    {
      "channel": 1,
      "note": 56,
      "start": 47.1147,
      "duration": 0.0855,
      "velocity": 101,
      "chip": "ym2612"
    },
    {
      "channel": 3,
      "note": 64,
      "start": 47.1159,
      "duration": 0.0852,
      "velocity": 106,
      "chip": "ym2612"
    },
    {
      "channel": 4,
      "note": 59,
      "start": 47.1168,
      "duration": 0.0853,
      "velocity": 106,
      "chip": "ym2612"
    },
    {
      "channel": 1,
      "note": 56,
      "start": 47.2005,
      "duration": 0.083,
      "velocity": 101,
      "chip": "ym2612"
    },
    {
      "channel": 3,
      "note": 68,
      "start": 47.2019,
      "duration": 0.0829,
      "velocity": 106,
      "chip": "ym2612"
    },
    {
      "channel": 4,
      "note": 64,
      "start": 47.2027,
      "duration": 0.0829,
      "velocity": 106,
      "chip": "ym2612"
    },
    {
      "channel": 5,
      "note": 32,
      "start": 47.2035,
      "duration": 0.0769,
      "velocity": 114,
      "chip": "ym2612"
    },
    {
      "channel": 1,
      "note": 56,
      "start": 47.2841,
      "duration": 0.1468,
      "velocity": 101,
      "chip": "ym2612"
    },
    {
      "channel": 3,
      "note": 59,
      "start": 47.2854,
      "duration": 0.0797,
      "velocity": 106,
      "chip": "ym2612"
    },
    {
      "channel": 4,
      "note": 56,
      "start": 47.2862,
      "duration": 0.0796,
      "velocity": 106,
      "chip": "ym2612"
    },
    {
      "channel": 5,
      "note": 75,
      "start": 47.2869,
      "duration": 0.2268,
      "velocity": 120,
      "chip": "ym2612"
    },
    {
      "channel": 3,
      "note": 64,
      "start": 47.3658,
      "duration": 0.0661,
      "velocity": 106,
      "chip": "ym2612"
    },
    {
      "channel": 4,
      "note": 59,
      "start": 47.3665,
      "duration": 0.0662,
      "velocity": 106,
      "chip": "ym2612"
    },
    {
      "channel": 1,
      "note": 56,
      "start": 47.4313,
      "duration": 0.0854,
      "velocity": 101,
      "chip": "ym2612"
    },
    {
      "channel": 3,
      "note": 68,
      "start": 47.4325,
      "duration": 0.0852,
      "velocity": 106,
      "chip": "ym2612"
    },
    {
      "channel": 4,
      "note": 64,
      "start": 47.4334,
      "duration": 0.0852,
      "velocity": 106,
      "chip": "ym2612"
    },
    {
      "channel": 1,
      "note": 56,
      "start": 47.5172,
      "duration": 0.083,
      "velocity": 101,
      "chip": "ym2612"
    },
    {
      "channel": 3,
      "note": 71,
      "start": 47.5185,
      "duration": 0.0833,
      "velocity": 106,
      "chip": "ym2612"
    },
    {
      "channel": 4,
      "note": 68,
      "start": 47.5193,
      "duration": 0.0833,
      "velocity": 106,
      "chip": "ym2612"
    },
    {
      "channel": 5,
      "note": 32,
      "start": 47.5201,
      "duration": 0.077,
      "velocity": 114,
      "chip": "ym2612"
    },
    {
      "channel": 1,
      "note": 56,
      "start": 47.6008,
      "duration": 0.166,
      "velocity": 101,
      "chip": "ym2612"
    },
    {
      "channel": 2,
      "note": 74,
      "start": 47.6016,
      "duration": 0.6498,
      "velocity": 106,
      "chip": "ym2612"
    },
    {
      "channel": 3,
      "note": 68,
      "start": 47.6024,
      "duration": 0.0817,
      "velocity": 106,
      "chip": "ym2612"
    },
    {
      "channel": 4,
      "note": 62,
      "start": 47.6032,
      "duration": 0.0817,
      "velocity": 106,
      "chip": "ym2612"
    },
    {
      "channel": 5,
      "note": 75,
      "start": 47.6039,
      "duration": 0.0765,
      "velocity": 120,
      "chip": "ym2612"
    },
    {
      "channel": 3,
      "note": 71,
      "start": 47.6848,
      "duration": 0.0831,
      "velocity": 106,
      "chip": "ym2612"
    },
    {
      "channel": 4,
      "note": 64,
      "start": 47.6856,
      "duration": 0.083,
      "velocity": 106,
      "chip": "ym2612"
    },
    {
      "channel": 5,
      "note": 75,
      "start": 47.6863,
      "duration": 0.0774,
      "velocity": 120,
      "chip": "ym2612"
    },
    {
      "channel": 1,
      "note": 56,
      "start": 47.7672,
      "duration": 0.0829,
      "velocity": 101,
      "chip": "ym2612"
    },
    {
      "channel": 3,
      "note": 74,
      "start": 47.7685,
      "duration": 0.0827,
      "velocity": 106,
      "chip": "ym2612"
    },
    {
      "channel": 4,
      "note": 68,
      "start": 47.7693,
      "duration": 0.0826,
      "velocity": 106,
      "chip": "ym2612"
    },
    {
      "channel": 5,
      "note": 75,
      "start": 47.77,
      "duration": 0.0771,
      "velocity": 120,
      "chip": "ym2612"
    },
    {
      "channel": 1,
      "note": 56,
      "start": 47.8505,
      "duration": 0.083,
      "velocity": 101,
      "chip": "ym2612"
    },
    {
      "channel": 3,
      "note": 80,
      "start": 47.8518,
      "duration": 0.0829,
      "velocity": 106,
      "chip": "ym2612"
    },
    {
      "channel": 4,
      "note": 71,
      "start": 47.8527,
      "duration": 0.0829,
      "velocity": 106,
      "chip": "ym2612"
    },
    {
      "channel": 5,
      "note": 75,
      "start": 47.8533,
      "duration": 0.0771,
      "velocity": 120,
      "chip": "ym2612"
    },
    {
      "channel": 1,
      "note": 56,
      "start": 47.9341,
      "duration": 0.166,
      "velocity": 101,
      "chip": "ym2612"
    },
    {
      "channel": 3,
      "note": 71,
      "start": 47.9354,
      "duration": 0.0822,
      "velocity": 106,
      "chip": "ym2612"
    },
    {
      "channel": 4,
      "note": 68,
      "start": 47.9362,
      "duration": 0.0822,
      "velocity": 106,
      "chip": "ym2612"
    },
    {
      "channel": 5,
      "note": 75,
      "start": 47.9369,
      "duration": 0.0768,
      "velocity": 120,
      "chip": "ym2612"
    },
    {
      "channel": 3,
      "note": 74,
      "start": 48.0183,
      "duration": 0.0829,
      "velocity": 106,
      "chip": "ym2612"
    },
    {
      "channel": 4,
      "note": 71,
      "start": 48.019,
      "duration": 0.0829,
      "velocity": 106,
      "chip": "ym2612"
    },
    {
      "channel": 5,
      "note": 75,
      "start": 48.0198,
      "duration": 0.0772,
      "velocity": 120,
      "chip": "ym2612"
    },
    {
      "channel": 1,
      "note": 56,
      "start": 48.1005,
      "duration": 0.0829,
      "velocity": 101,
      "chip": "ym2612"
    },
    {
      "channel": 3,
      "note": 80,
      "start": 48.1018,
      "duration": 0.0827,
      "velocity": 106,
      "chip": "ym2612"
    },
    {
      "channel": 4,
      "note": 74,
      "start": 48.1027,
      "duration": 0.0827,
      "velocity": 106,
      "chip": "ym2612"
    },
    {
      "channel": 5,
      "note": 75,
      "start": 48.1033,
      "duration": 0.0771,
      "velocity": 120,
      "chip": "ym2612"
    },
    {
      "channel": 1,
      "note": 56,
      "start": 48.1839,
      "duration": 0.0667,
      "velocity": 101,
      "chip": "ym2612"
    },
    {
      "channel": 3,
      "note": 83,
      "start": 48.1851,
      "duration": 0.0672,
      "velocity": 106,
      "chip": "ym2612"
    },
    {
      "channel": 4,
      "note": 80,
      "start": 48.186,
      "duration": 0.0677,
      "velocity": 106,
      "chip": "ym2612"
    },
    {
      "channel": 5,
      "note": 75,
      "start": 48.1867,
      "duration": 0.0603,
      "velocity": 120,
      "chip": "ym2612"
    },
    {
      "channel": 0,
      "note": 81,
      "start": 48.2504,
      "duration": 0.1634,
      "velocity": 106,
      "chip": "ym2612"
    },
    {
      "channel": 1,
      "note": 57,
      "start": 48.2512,
      "duration": 0.1632,
      "velocity": 101,
      "chip": "ym2612"
    },
    {
      "channel": 2,
      "note": 76,
      "start": 48.252,
      "duration": 0.163,
      "velocity": 106,
      "chip": "ym2612"
    },
    {
      "channel": 3,
      "note": 72,
      "start": 48.253,
      "duration": 0.1627,
      "velocity": 106,
      "chip": "ym2612"
    },
    {
      "channel": 4,
      "note": 84,
      "start": 48.2544,
      "duration": 1.1457,
      "velocity": 106,
      "chip": "ym2612"
    },
    {
      "channel": 5,
      "note": 32,
      "start": 48.2552,
      "duration": 0.2104,
      "velocity": 114,
      "chip": "ym2612"
    },
    {
      "channel": 0,
      "note": 81,
      "start": 48.4143,
      "duration": 0.0854,
      "velocity": 106,
      "chip": "ym2612"
    },
    {
      "channel": 1,
      "note": 57,
      "start": 48.4149,
      "duration": 0.0854,
      "velocity": 101,
      "chip": "ym2612"
    },
    {
      "channel": 2,
      "note": 76,
      "start": 48.4155,
      "duration": 0.0854,
      "velocity": 106,
      "chip": "ym2612"
    },
    {
      "channel": 3,
      "note": 72,
      "start": 48.4161,
      "duration": 0.0854,
      "velocity": 106,
      "chip": "ym2612"
    },
    {
      "channel": 0,
      "note": 81,
      "start": 48.5002,
      "duration": 0.0828,
      "velocity": 106,
      "chip": "ym2612"
    },
    {
      "channel": 1,
      "note": 57,
      "start": 48.5007,
      "duration": 0.083,
      "velocity": 101,
      "chip": "ym2612"
    },
    {
      "channel": 2,
      "note": 76,
      "start": 48.5014,
      "duration": 0.0831,
      "velocity": 106,
      "chip": "ym2612"
    },
    {
      "channel": 3,
      "note": 72,
      "start": 48.502,
      "duration": 0.0831,
      "velocity": 106,
      "chip": "ym2612"
    },
    {
      "channel": 5,
      "note": 32,
      "start": 48.5033,
      "duration": 0.0771,
      "velocity": 114,
      "chip": "ym2612"
    },
    {
      "channel": 0,
      "note": 81,
      "start": 48.5835,
      "duration": 0.1636,
      "velocity": 106,
      "chip": "ym2612"
    },
    {
      "channel": 1,
      "note": 57,
      "start": 48.5843,
      "duration": 0.1634,
      "velocity": 101,
      "chip": "ym2612"
    },
    {
      "channel": 2,
      "note": 76,
      "start": 48.585,
      "duration": 0.1634,
      "velocity": 106,
      "chip": "ym2612"
    },
    {
      "channel": 3,
      "note": 72,
      "start": 48.5856,
      "duration": 0.1634,
      "velocity": 106,
      "chip": "ym2612"
    },
    {
      "channel": 5,
      "note": 75,
      "start": 48.5868,
      "duration": 0.2436,
      "velocity": 120,
      "chip": "ym2612"
    },
    {
      "channel": 0,
      "note": 81,
      "start": 48.7476,
      "duration": 0.0854,
      "velocity": 106,
      "chip": "ym2612"
    },
    {
      "channel": 1,
      "note": 57,
      "start": 48.7481,
      "duration": 0.0855,
      "velocity": 101,
      "chip": "ym2612"
    },
    {
      "channel": 2,
      "note": 76,
      "start": 48.7488,
      "duration": 0.0854,
      "velocity": 106,
      "chip": "ym2612"
    },
    {
      "channel": 3,
      "note": 72,
      "start": 48.7495,
      "duration": 0.0854,
      "velocity": 106,
      "chip": "ym2612"
    },
    {
      "channel": 0,
      "note": 81,
      "start": 48.8335,
      "duration": 0.0828,
      "velocity": 106,
      "chip": "ym2612"
    },
    {
      "channel": 1,
      "note": 57,
      "start": 48.8341,
      "duration": 0.083,
      "velocity": 101,
      "chip": "ym2612"
    },
    {
      "channel": 2,
      "note": 76,
      "start": 48.8347,
      "duration": 0.0831,
      "velocity": 106,
      "chip": "ym2612"
    },
    {
      "channel": 3,
      "note": 72,
      "start": 48.8354,
      "duration": 0.0831,
      "velocity": 106,
      "chip": "ym2612"
    },
    {
      "channel": 5,
      "note": 32,
      "start": 48.8366,
      "duration": 0.0771,
      "velocity": 114,
      "chip": "ym2612"
    },
    {
      "channel": 0,
      "note": 81,
      "start": 48.9168,
      "duration": 0.1495,
      "velocity": 106,
      "chip": "ym2612"
    },
    {
      "channel": 1,
      "note": 57,
      "start": 48.9177,
      "duration": 0.1495,
      "velocity": 101,
      "chip": "ym2612"
    },
    {
      "channel": 2,
      "note": 76,
      "start": 48.9183,
      "duration": 0.1494,
      "velocity": 106,
      "chip": "ym2612"
    },
    {
      "channel": 3,
      "note": 72,
      "start": 48.9189,
      "duration": 0.1495,
      "velocity": 106,
      "chip": "ym2612"
    },
    {
      "channel": 5,
      "note": 32,
      "start": 48.9205,
      "duration": 0.1433,
      "velocity": 114,
      "chip": "ym2612"
    },
    {
      "channel": 0,
      "note": 83,
      "start": 49.067,
      "duration": 0.166,
      "velocity": 106,
      "chip": "ym2612"
    },
    {
      "channel": 1,
      "note": 57,
      "start": 49.0675,
      "duration": 0.0799,
      "velocity": 101,
      "chip": "ym2612"
    },
    {
      "channel": 2,
      "note": 76,
      "start": 49.0684,
      "duration": 0.1658,
      "velocity": 106,
      "chip": "ym2612"
    },
    {
      "channel": 3,
      "note": 72,
      "start": 49.0692,
      "duration": 0.1653,
      "velocity": 106,
      "chip": "ym2612"
    },
    {
      "channel": 5,
      "note": 32,
      "start": 49.0705,
      "duration": 0.1599,
      "velocity": 114,
      "chip": "ym2612"
    },
    {
      "channel": 1,
      "note": 57,
      "start": 49.1479,
      "duration": 0.0856,
      "velocity": 101,
      "chip": "ym2612"
    },
    {
      "channel": 1,
      "note": 57,
      "start": 49.234,
      "duration": 0.1639,
      "velocity": 101,
      "chip": "ym2612"
    },
    {
      "channel": 5,
      "note": 75,
      "start": 49.2358,
      "duration": 0.328,
      "velocity": 120,
      "chip": "ym2612"
    },
    {
      "channel": 0,
      "note": 79,
      "start": 49.3978,
      "duration": 1.2994,
      "velocity": 106,
      "chip": "ym2612"
    },
    {
      "channel": 1,
      "note": 57,
      "start": 49.3983,
      "duration": 0.0824,
      "velocity": 101,
      "chip": "ym2612"
    },
    {
      "channel": 2,
      "note": 74,
      "start": 49.3991,
      "duration": 1.2992,
      "velocity": 106,
      "chip": "ym2612"
    },
    {
      "channel": 3,
      "note": 71,
      "start": 49.4,
      "duration": 1.299,
      "velocity": 106,
      "chip": "ym2612"
    },
    {
      "channel": 4,
      "note": 83,
      "start": 49.4008,
      "duration": 0.3149,
      "velocity": 106,
      "chip": "ym2612"
    },
    {
      "channel": 1,
      "note": 57,
      "start": 49.4812,
      "duration": 0.0858,
      "velocity": 101,
      "chip": "ym2612"
    },
    {
      "channel": 1,
      "note": 57,
      "start": 49.5676,
      "duration": 0.1466,
      "velocity": 101,
      "chip": "ym2612"
    },
    {
      "channel": 5,
      "note": 32,
      "start": 49.5696,
      "duration": 0.213,
      "velocity": 114,
      "chip": "ym2612"
    },
    {
      "channel": 1,
      "note": 57,
      "start": 49.7147,
      "duration": 0.0854,
      "velocity": 101,
      "chip": "ym2612"
    },
    {
      "channel": 4,
      "note": 74,
      "start": 49.7164,
      "duration": 0.1688,
      "velocity": 106,
      "chip": "ym2612"
    },
    {
      "channel": 1,
      "note": 57,
      "start": 49.8005,
      "duration": 0.083,
      "velocity": 101,
      "chip": "ym2612"
    },
    {
      "channel": 5,
      "note": 32,
      "start": 49.8027,
      "duration": 0.0777,
      "velocity": 114,
      "chip": "ym2612"
    },
    {
      "channel": 1,
      "note": 57,
      "start": 49.8841,
      "duration": 0.1634,
      "velocity": 101,
      "chip": "ym2612"
    },
    {
      "channel": 4,
      "note": 79,
      "start": 49.8859,
      "duration": 0.1632,
      "velocity": 106,
      "chip": "ym2612"
    },
    {
      "channel": 5,
      "note": 75,
      "start": 49.8866,
      "duration": 0.2438,
      "velocity": 120,
      "chip": "ym2612"
    },
    {
      "channel": 1,
      "note": 57,
      "start": 50.048,
      "duration": 0.0854,
      "velocity": 101,
      "chip": "ym2612"
    },
    {
      "channel": 4,
      "note": 86,
      "start": 50.0497,
      "duration": 0.1688,
      "velocity": 106,
      "chip": "ym2612"
    },
    {
      "channel": 1,
      "note": 57,
      "start": 50.1339,
      "duration": 0.083,
      "velocity": 101,
      "chip": "ym2612"
    },
    {
      "channel": 5,
      "note": 32,
      "start": 50.136,
      "duration": 0.0777,
      "velocity": 114,
      "chip": "ym2612"
    },
    {
      "channel": 1,
      "note": 57,
      "start": 50.2175,
      "duration": 0.166,
      "velocity": 101,
      "chip": "ym2612"
    },
    {
      "channel": 5,
      "note": 32,
      "start": 50.2195,
      "duration": 0.1609,
      "velocity": 114,
      "chip": "ym2612"
    },
    {
      "channel": 1,
      "note": 57,
      "start": 50.3839,
      "duration": 0.0637,
      "velocity": 101,
      "chip": "ym2612"
    },
    {
      "channel": 4,
      "note": 83,
      "start": 50.3856,
      "duration": 0.1495,
      "velocity": 106,
      "chip": "ym2612"
    },
    {
      "channel": 5,
      "note": 32,
      "start": 50.3864,
      "duration": 0.144,
      "velocity": 114,
      "chip": "ym2612"
    },
    {
      "channel": 1,
      "note": 57,
      "start": 50.448,
      "duration": 0.0856,
      "velocity": 101,
      "chip": "ym2612"
    },
    {
      "channel": 1,
      "note": 57,
      "start": 50.5341,
      "duration": 0.1636,
      "velocity": 101,
      "chip": "ym2612"
    },
    {
      "channel": 5,
      "note": 75,
      "start": 50.5361,
      "duration": 0.3277,
      "velocity": 120,
      "chip": "ym2612"
    },
    {
      "channel": 0,
      "note": 79,
      "start": 50.6976,
      "duration": 0.1688,
      "velocity": 106,
      "chip": "ym2612"
    },
    {
      "channel": 1,
      "note": 57,
      "start": 50.6981,
      "duration": 0.0827,
      "velocity": 101,
      "chip": "ym2612"
    },
    {
      "channel": 2,
      "note": 74,
      "start": 50.6988,
      "duration": 0.1693,
      "velocity": 106,
      "chip": "ym2612"
    },
    {
      "channel": 3,
      "note": 71,
      "start": 50.6995,
      "duration": 0.1694,
      "velocity": 106,
      "chip": "ym2612"
    },
    {
      "channel": 4,
      "note": 83,
      "start": 50.7003,
      "duration": 0.1694,
      "velocity": 106,
      "chip": "ym2612"
    },
    {
      "channel": 1,
      "note": 57,
      "start": 50.7812,
      "duration": 0.0861,
      "velocity": 101,
      "chip": "ym2612"
    },
    {
      "channel": 0,
      "note": 77,
      "start": 50.8671,
      "duration": 0.1634,
      "velocity": 106,
      "chip": "ym2612"
    },
    {
      "channel": 1,
      "note": 57,
      "start": 50.8679,
      "duration": 0.1632,
      "velocity": 101,
      "chip": "ym2612"
    },
    {
      "channel": 2,
      "note": 72,
      "start": 50.8687,
      "duration": 0.1629,
      "velocity": 106,
      "chip": "ym2612"
    },
    {
      "channel": 3,
      "note": 69,
      "start": 50.8696,
      "duration": 0.1627,
      "velocity": 106,
      "chip": "ym2612"
    },
    {
      "channel": 4,
      "note": 84,
      "start": 50.8704,
      "duration": 1.1297,
      "velocity": 106,
      "chip": "ym2612"
    },
    {
      "channel": 5,
      "note": 32,
      "start": 50.8712,
      "duration": 0.211,
      "velocity": 114,
      "chip": "ym2612"
    },
    {
      "channel": 0,
      "note": 77,
      "start": 51.031,
      "duration": 0.0854,
      "velocity": 106,
      "chip": "ym2612"
    },
    {
      "channel": 1,
      "note": 57,
      "start": 51.0315,
      "duration": 0.0854,
      "velocity": 101,
      "chip": "ym2612"
    },
    {
      "channel": 2,
      "note": 72,
      "start": 51.0322,
      "duration": 0.0854,
      "velocity": 106,
      "chip": "ym2612"
    },
    {
      "channel": 3,
      "note": 69,
      "start": 51.0328,
      "duration": 0.0854,
      "velocity": 106,
      "chip": "ym2612"
    },
    {
      "channel": 0,
      "note": 77,
      "start": 51.1168,
      "duration": 0.0828,
      "velocity": 106,
      "chip": "ym2612"
    },
    {
      "channel": 1,
      "note": 57,
      "start": 51.1174,
      "duration": 0.083,
      "velocity": 101,
      "chip": "ym2612"
    },
    {
      "channel": 2,
      "note": 72,
      "start": 51.118,
      "duration": 0.0831,
      "velocity": 106,
      "chip": "ym2612"
    },
    {
      "channel": 3,
      "note": 69,
      "start": 51.1187,
      "duration": 0.0831,
      "velocity": 106,
      "chip": "ym2612"
    },
    {
      "channel": 5,
      "note": 32,
      "start": 51.12,
      "duration": 0.0771,
      "velocity": 114,
      "chip": "ym2612"
    },
    {
      "channel": 0,
      "note": 77,
      "start": 51.2002,
      "duration": 0.147,
      "velocity": 106,
      "chip": "ym2612"
    },
    {
      "channel": 1,
      "note": 57,
      "start": 51.201,
      "duration": 0.1469,
      "velocity": 101,
      "chip": "ym2612"
    },
    {
      "channel": 2,
      "note": 72,
      "start": 51.2016,
      "duration": 0.1468,
      "velocity": 106,
      "chip": "ym2612"
    },
    {
      "channel": 3,
      "note": 69,
      "start": 51.2023,
      "duration": 0.147,
      "velocity": 106,
      "chip": "ym2612"
    },
    {
      "channel": 5,
      "note": 75,
      "start": 51.2035,
      "duration": 0.2269,
      "velocity": 120,
      "chip": "ym2612"
    },
    {
      "channel": 0,
      "note": 74,
      "start": 51.3478,
      "duration": 0.1686,
      "velocity": 106,
      "chip": "ym2612"
    },
    {
      "channel": 1,
      "note": 57,
      "start": 51.3483,
      "duration": 0.0851,
      "velocity": 101,
      "chip": "ym2612"
    },
    {
      "channel": 2,
      "note": 71,
      "start": 51.3491,
      "duration": 0.1683,
      "velocity": 106,
      "chip": "ym2612"
    },
    {
      "channel": 3,
      "note": 69,
      "start": 51.3499,
      "duration": 0.1679,
      "velocity": 106,
      "chip": "ym2612"
    },
    {
      "channel": 1,
      "note": 57,
      "start": 51.4337,
      "duration": 0.083,
      "velocity": 101,
      "chip": "ym2612"
    },
    {
      "channel": 5,
      "note": 32,
      "start": 51.4358,
      "duration": 0.078,
      "velocity": 114,
      "chip": "ym2612"
    },
    {
      "channel": 1,
      "note": 57,
      "start": 51.5173,
      "duration": 0.1665,
      "velocity": 101,
      "chip": "ym2612"
    },
    {
      "channel": 5,
      "note": 32,
      "start": 51.5194,
      "duration": 0.161,
      "velocity": 114,
      "chip": "ym2612"
    },
    {
      "channel": 0,
      "note": 74,
      "start": 51.6837,
      "duration": 0.3134,
      "velocity": 106,
      "chip": "ym2612"
    },
    {
      "channel": 1,
      "note": 57,
      "start": 51.6842,
      "duration": 0.0799,
      "velocity": 101,
      "chip": "ym2612"
    },
    {
      "channel": 2,
      "note": 71,
      "start": 51.685,
      "duration": 0.3135,
      "velocity": 106,
      "chip": "ym2612"
    },
    {
      "channel": 3,
      "note": 69,
      "start": 51.6859,
      "duration": 0.3135,
      "velocity": 106,
      "chip": "ym2612"
    },
    {
      "channel": 5,
      "note": 32,
      "start": 51.6871,
      "duration": 0.1599,
      "velocity": 114,
      "chip": "ym2612"
    },
    {
      "channel": 1,
      "note": 57,
      "start": 51.7645,
      "duration": 0.0857,
      "velocity": 101,
      "chip": "ym2612"
    },
    {
      "channel": 1,
      "note": 57,
      "start": 51.8508,
      "duration": 0.1471,
      "velocity": 101,
      "chip": "ym2612"
    },
    {
      "channel": 5,
      "note": 75,
      "start": 51.8528,
      "duration": 0.311,
      "velocity": 120,
      "chip": "ym2612"
    },
    {
      "channel": 0,
      "note": 76,
      "start": 51.9978,
      "duration": 0.666,
      "velocity": 106,
      "chip": "ym2612"
    },
    {
      "channel": 1,
      "note": 57,
      "start": 51.9983,
      "duration": 0.0824,
      "velocity": 101,
      "chip": "ym2612"
    },
    {
      "channel": 2,
      "note": 73,
      "start": 51.9991,
      "duration": 0.6659,
      "velocity": 106,
      "chip": "ym2612"
    },
    {
      "channel": 3,
      "note": 69,
      "start": 52.0,
      "duration": 0.6656,
      "velocity": 106,
      "chip": "ym2612"
    },
    {
      "channel": 4,
      "note": 81,
      "start": 52.0008,
      "duration": 1.4689,
      "velocity": 106,
      "chip": "ym2612"
    },
    {
      "channel": 1,
      "note": 57,
      "start": 52.0812,
      "duration": 0.0858,
      "velocity": 101,
      "chip": "ym2612"
    },
    {
      "channel": 1,
      "note": 57,
      "start": 52.1676,
      "duration": 0.1634,
      "velocity": 101,
      "chip": "ym2612"
    },
    {
      "channel": 5,
      "note": 32,
      "start": 52.1698,
      "duration": 0.2129,
      "velocity": 114,
      "chip": "ym2612"
    },
    {
      "channel": 1,
      "note": 57,
      "start": 52.3313,
      "duration": 0.0855,
      "velocity": 101,
      "chip": "ym2612"
    },
    {
      "channel": 1,
      "note": 57,
      "start": 52.4173,
      "duration": 0.0829,
      "velocity": 101,
      "chip": "ym2612"
    },
    {
      "channel": 5,
      "note": 32,
      "start": 52.4194,
      "duration": 0.0776,
      "velocity": 114,
      "chip": "ym2612"
    },
    {
      "channel": 1,
      "note": 57,
      "start": 52.5008,
      "duration": 0.1636,
      "velocity": 101,
      "chip": "ym2612"
    },
    {
      "channel": 5,
      "note": 75,
      "start": 52.503,
      "duration": 0.2274,
      "velocity": 120,
      "chip": "ym2612"
    },
    {
      "channel": 0,
      "note": 76,
      "start": 52.6643,
      "duration": 0.152,
      "velocity": 106,
      "chip": "ym2612"
    },
    {
      "channel": 1,
      "note": 57,
      "start": 52.6648,
      "duration": 0.0686,
      "velocity": 101,
      "chip": "ym2612"
    },
    {
      "channel": 2,
      "note": 73,
      "start": 52.6654,
      "duration": 0.1526,
      "velocity": 106,
      "chip": "ym2612"
    },
    {
      "channel": 3,
      "note": 69,
      "start": 52.6661,
      "duration": 0.1526,
      "velocity": 106,
      "chip": "ym2612"
    },
    {
      "channel": 1,
      "note": 57,
      "start": 52.7337,
      "duration": 0.0835,
      "velocity": 101,
      "chip": "ym2612"
    },
    {
      "channel": 5,
      "note": 32,
      "start": 52.7357,
      "duration": 0.078,
      "velocity": 114,
      "chip": "ym2612"
    },
    {
      "channel": 0,
      "note": 77,
      "start": 52.817,
      "duration": 0.166,
      "velocity": 106,
      "chip": "ym2612"
    },
    {
      "channel": 1,
      "note": 57,
      "start": 52.8178,
      "duration": 0.166,
      "velocity": 101,
      "chip": "ym2612"
    },
    {
      "channel": 2,
      "note": 72,
      "start": 52.8186,
      "duration": 0.1658,
      "velocity": 106,
      "chip": "ym2612"
    },
    {
      "channel": 3,
      "note": 69,
      "start": 52.8194,
      "duration": 0.1658,
      "velocity": 106,
      "chip": "ym2612"
    },
    {
      "channel": 5,
      "note": 32,
      "start": 52.8207,
      "duration": 0.1597,
      "velocity": 114,
      "chip": "ym2612"
    },
    {
      "channel": 0,
      "note": 79,
      "start": 52.9837,
      "duration": 0.4827,
      "velocity": 106,
      "chip": "ym2612"
    },
    {
      "channel": 1,
      "note": 57,
      "start": 52.9842,
      "duration": 0.0799,
      "velocity": 101,
      "chip": "ym2612"
    },
    {
      "channel": 2,
      "note": 74,
      "start": 52.985,
      "duration": 0.4831,
      "velocity": 106,
      "chip": "ym2612"
    },
    {
      "channel": 3,
      "note": 71,
      "start": 52.9859,
      "duration": 0.483,
      "velocity": 106,
      "chip": "ym2612"
    },
    {
      "channel": 5,
      "note": 32,
      "start": 52.9871,
      "duration": 0.1599,
      "velocity": 114,
      "chip": "ym2612"
    },
    {
      "channel": 1,
      "note": 57,
      "start": 53.0645,
      "duration": 0.0857,
      "velocity": 101,
      "chip": "ym2612"
    },
    {
      "channel": 1,
      "note": 57,
      "start": 53.1508,
      "duration": 0.1635,
      "velocity": 101,
      "chip": "ym2612"
    },
    {
      "channel": 5,
      "note": 75,
      "start": 53.1528,
      "duration": 0.311,
      "velocity": 120,
      "chip": "ym2612"
    },
    {
      "channel": 1,
      "note": 57,
      "start": 53.3147,
      "duration": 0.0829,
      "velocity": 101,
      "chip": "ym2612"
    },
    {
      "channel": 1,
      "note": 57,
      "start": 53.398,
      "duration": 0.0693,
      "velocity": 101,
      "chip": "ym2612"
    },
    {
      "channel": 0,
      "note": 81,
      "start": 53.4671,
      "duration": 0.1634,
      "velocity": 106,
      "chip": "ym2612"
    },
    {
      "channel": 1,
      "note": 57,
      "start": 53.4679,
      "duration": 0.1632,
      "velocity": 101,
      "chip": "ym2612"
    },
    {
      "channel": 2,
      "note": 76,
      "start": 53.4687,
      "duration": 0.1629,
      "velocity": 106,
      "chip": "ym2612"
    },
    {
      "channel": 3,
      "note": 72,
      "start": 53.4696,
      "duration": 0.1627,
      "velocity": 106,
      "chip": "ym2612"
    },
    {
      "channel": 4,
      "note": 84,
      "start": 53.4704,
      "duration": 1.1464,
      "velocity": 106,
      "chip": "ym2612"
    },
    {
      "channel": 5,
      "note": 32,
      "start": 53.4712,
      "duration": 0.2278,
      "velocity": 114,
      "chip": "ym2612"
    },
    {
      "channel": 0,
      "note": 81,
      "start": 53.631,
      "duration": 0.0854,
      "velocity": 106,
      "chip": "ym2612"
    },
    {
      "channel": 1,
      "note": 57,
      "start": 53.6315,
      "duration": 0.0855,
      "velocity": 101,
      "chip": "ym2612"
    },
    {
      "channel": 2,
      "note": 76,
      "start": 53.6321,
      "duration": 0.0854,
      "velocity": 106,
      "chip": "ym2612"
    },
    {
      "channel": 3,
      "note": 72,
      "start": 53.6328,
      "duration": 0.0854,
      "velocity": 106,
      "chip": "ym2612"
    },
    {
      "channel": 0,
      "note": 81,
      "start": 53.7168,
      "duration": 0.0828,
      "velocity": 106,
      "chip": "ym2612"
    },
    {
      "channel": 1,
      "note": 57,
      "start": 53.7174,
      "duration": 0.083,
      "velocity": 101,
      "chip": "ym2612"
    },
    {
      "channel": 2,
      "note": 76,
      "start": 53.718,
      "duration": 0.0831,
      "velocity": 106,
      "chip": "ym2612"
    },
    {
      "channel": 3,
      "note": 72,
      "start": 53.7187,
      "duration": 0.0831,
      "velocity": 106,
      "chip": "ym2612"
    },
    {
      "channel": 5,
      "note": 32,
      "start": 53.72,
      "duration": 0.0771,
      "velocity": 114,
      "chip": "ym2612"
    },
    {
      "channel": 0,
      "note": 81,
      "start": 53.8002,
      "duration": 0.1636,
      "velocity": 106,
      "chip": "ym2612"
    },
    {
      "channel": 1,
      "note": 57,
      "start": 53.801,
      "duration": 0.1634,
      "velocity": 101,
      "chip": "ym2612"
    },
    {
      "channel": 2,
      "note": 76,
      "start": 53.8016,
      "duration": 0.1634,
      "velocity": 106,
      "chip": "ym2612"
    },
    {
      "channel": 3,
      "note": 72,
      "start": 53.8023,
      "duration": 0.1634,
      "velocity": 106,
      "chip": "ym2612"
    },
    {
      "channel": 5,
      "note": 75,
      "start": 53.8035,
      "duration": 0.2436,
      "velocity": 120,
      "chip": "ym2612"
    },
    {
      "channel": 0,
      "note": 81,
      "start": 53.9643,
      "duration": 0.0854,
      "velocity": 106,
      "chip": "ym2612"
    },
    {
      "channel": 1,
      "note": 57,
      "start": 53.9648,
      "duration": 0.0855,
      "velocity": 101,
      "chip": "ym2612"
    },
    {
      "channel": 2,
      "note": 76,
      "start": 53.9654,
      "duration": 0.0854,
      "velocity": 106,
      "chip": "ym2612"
    },
    {
      "channel": 3,
      "note": 72,
      "start": 53.9661,
      "duration": 0.0854,
      "velocity": 106,
      "chip": "ym2612"
    },
    {
      "channel": 0,
      "note": 81,
      "start": 54.0502,
      "duration": 0.0828,
      "velocity": 106,
      "chip": "ym2612"
    },
    {
      "channel": 1,
      "note": 57,
      "start": 54.0507,
      "duration": 0.083,
      "velocity": 101,
      "chip": "ym2612"
    },
    {
      "channel": 2,
      "note": 76,
      "start": 54.0514,
      "duration": 0.0831,
      "velocity": 106,
      "chip": "ym2612"
    },
    {
      "channel": 3,
      "note": 72,
      "start": 54.052,
      "duration": 0.0831,
      "velocity": 106,
      "chip": "ym2612"
    },
    {
      "channel": 5,
      "note": 32,
      "start": 54.0533,
      "duration": 0.0771,
      "velocity": 114,
      "chip": "ym2612"
    },
    {
      "channel": 0,
      "note": 81,
      "start": 54.1335,
      "duration": 0.1495,
      "velocity": 106,
      "chip": "ym2612"
    },
    {
      "channel": 1,
      "note": 57,
      "start": 54.1343,
      "duration": 0.1495,
      "velocity": 101,
      "chip": "ym2612"
    },
    {
      "channel": 2,
      "note": 76,
      "start": 54.135,
      "duration": 0.1494,
      "velocity": 106,
      "chip": "ym2612"
    },
    {
      "channel": 3,
      "note": 72,
      "start": 54.1356,
      "duration": 0.1495,
      "velocity": 106,
      "chip": "ym2612"
    },
    {
      "channel": 5,
      "note": 32,
      "start": 54.1371,
      "duration": 0.1433,
      "velocity": 114,
      "chip": "ym2612"
    },
    {
      "channel": 0,
      "note": 83,
      "start": 54.2837,
      "duration": 0.166,
      "velocity": 106,
      "chip": "ym2612"
    },
    {
      "channel": 1,
      "note": 57,
      "start": 54.2842,
      "duration": 0.0799,
      "velocity": 101,
      "chip": "ym2612"
    },
    {
      "channel": 2,
      "note": 76,
      "start": 54.285,
      "duration": 0.1658,
      "velocity": 106,
      "chip": "ym2612"
    },
    {
      "channel": 3,
      "note": 72,
      "start": 54.2859,
      "duration": 0.1653,
      "velocity": 106,
      "chip": "ym2612"
    },
    {
      "channel": 5,
      "note": 32,
      "start": 54.2871,
      "duration": 0.1599,
      "velocity": 114,
      "chip": "ym2612"
    },
    {
      "channel": 1,
      "note": 57,
      "start": 54.3645,
      "duration": 0.0856,
      "velocity": 101,
      "chip": "ym2612"
    },
    {
      "channel": 1,
      "note": 57,
      "start": 54.4507,
      "duration": 0.1639,
      "velocity": 101,
      "chip": "ym2612"
    },
    {
      "channel": 5,
      "note": 75,
      "start": 54.4524,
      "duration": 0.328,
      "velocity": 120,
      "chip": "ym2612"
    },
    {
      "channel": 0,
      "note": 79,
      "start": 54.6144,
      "duration": 1.4687,
      "velocity": 106,
      "chip": "ym2612"
    },
    {
      "channel": 1,
      "note": 57,
      "start": 54.615,
      "duration": 0.0824,
      "velocity": 101,
      "chip": "ym2612"
    },
    {
      "channel": 2,
      "note": 74,
      "start": 54.6158,
      "duration": 1.4689,
      "velocity": 106,
      "chip": "ym2612"
    },
    {
      "channel": 3,
      "note": 71,
      "start": 54.6166,
      "duration": 1.4689,
      "velocity": 106,
      "chip": "ym2612"
    },
    {
      "channel": 4,
      "note": 83,
      "start": 54.6175,
      "duration": 0.3316,
      "velocity": 106,
      "chip": "ym2612"
    },
    {
      "channel": 1,
      "note": 57,
      "start": 54.6979,
      "duration": 0.086,
      "velocity": 101,
      "chip": "ym2612"
    },
    {
      "channel": 1,
      "note": 57,
      "start": 54.7844,
      "duration": 0.1632,
      "velocity": 101,
      "chip": "ym2612"
    },
    {
      "channel": 5,
      "note": 32,
      "start": 54.7869,
      "duration": 0.2123,
      "velocity": 114,
      "chip": "ym2612"
    },
    {
      "channel": 1,
      "note": 57,
      "start": 54.948,
      "duration": 0.0688,
      "velocity": 101,
      "chip": "ym2612"
    },
    {
      "channel": 4,
      "note": 74,
      "start": 54.9498,
      "duration": 0.152,
      "velocity": 106,
      "chip": "ym2612"
    },
    {
      "channel": 1,
      "note": 57,
      "start": 55.0172,
      "duration": 0.083,
      "velocity": 101,
      "chip": "ym2612"
    },
    {
      "channel": 5,
      "note": 32,
      "start": 55.0193,
      "duration": 0.0777,
      "velocity": 114,
      "chip": "ym2612"
    },
    {
      "channel": 1,
      "note": 57,
      "start": 55.1008,
      "duration": 0.1634,
      "velocity": 101,
      "chip": "ym2612"
    },
    {
      "channel": 4,
      "note": 79,
      "start": 55.1025,
      "duration": 0.1632,
      "velocity": 106,
      "chip": "ym2612"
    },
    {
      "channel": 5,
      "note": 75,
      "start": 55.1032,
      "duration": 0.2438,
      "velocity": 120,
      "chip": "ym2612"
    },
    {
      "channel": 1,
      "note": 57,
      "start": 55.2647,
      "duration": 0.0854,
      "velocity": 101,
      "chip": "ym2612"
    },
    {
      "channel": 4,
      "note": 86,
      "start": 55.2664,
      "duration": 0.1688,
      "velocity": 106,
      "chip": "ym2612"
    },
    {
      "channel": 1,
      "note": 57,
      "start": 55.3505,
      "duration": 0.083,
      "velocity": 101,
      "chip": "ym2612"
    },
    {
      "channel": 5,
      "note": 32,
      "start": 55.3527,
      "duration": 0.0777,
      "velocity": 114,
      "chip": "ym2612"
    },
    {
      "channel": 1,
      "note": 57,
      "start": 55.4341,
      "duration": 0.166,
      "velocity": 101,
      "chip": "ym2612"
    },
    {
      "channel": 5,
      "note": 32,
      "start": 55.4362,
      "duration": 0.1609,
      "velocity": 114,
      "chip": "ym2612"
    },
    {
      "channel": 1,
      "note": 57,
      "start": 55.6005,
      "duration": 0.0803,
      "velocity": 101,
      "chip": "ym2612"
    },
    {
      "channel": 4,
      "note": 83,
      "start": 55.6023,
      "duration": 0.1495,
      "velocity": 106,
      "chip": "ym2612"
    },
    {
      "channel": 5,
      "note": 32,
      "start": 55.6031,
      "duration": 0.144,
      "velocity": 114,
      "chip": "ym2612"
    },
    {
      "channel": 1,
      "note": 57,
      "start": 55.6813,
      "duration": 0.0689,
      "velocity": 101,
      "chip": "ym2612"
    },
    {
      "channel": 1,
      "note": 57,
      "start": 55.7508,
      "duration": 0.1634,
      "velocity": 101,
      "chip": "ym2612"
    },
    {
      "channel": 5,
      "note": 75,
      "start": 55.7528,
      "duration": 0.3277,
      "velocity": 120,
      "chip": "ym2612"
    },
    {
      "channel": 1,
      "note": 57,
      "start": 55.9147,
      "duration": 0.0829,
      "velocity": 101,
      "chip": "ym2612"
    },
    {
      "channel": 4,
      "note": 83,
      "start": 55.9164,
      "duration": 0.17,
      "velocity": 106,
      "chip": "ym2612"
    },
    {
      "channel": 1,
      "note": 57,
      "start": 55.998,
      "duration": 0.086,
      "velocity": 101,
      "chip": "ym2612"
    },
    {
      "channel": 0,
      "note": 76,
      "start": 56.0837,
      "duration": 0.1659,
      "velocity": 106,
      "chip": "ym2612"
    },
    {
      "channel": 1,
      "note": 57,
      "start": 56.0846,
      "duration": 0.1659,
      "velocity": 101,
      "chip": "ym2612"
    },
    {
      "channel": 2,
      "note": 73,
      "start": 56.0854,
      "duration": 0.1656,
      "velocity": 106,
      "chip": "ym2612"
    },
    {
      "channel": 3,
      "note": 69,
      "start": 56.0862,
      "duration": 0.1656,
      "velocity": 106,
      "chip": "ym2612"
    },
    {
      "channel": 4,
      "note": 81,
      "start": 56.087,
      "duration": 3.916,
      "velocity": 106,
      "chip": "ym2612"
    },
    {
      "channel": 5,
      "note": 32,
      "start": 56.0878,
      "duration": 0.1592,
      "velocity": 114,
      "chip": "ym2612"
    },
    {
      "channel": 0,
      "note": 76,
      "start": 56.2503,
      "duration": 0.166,
      "velocity": 106,
      "chip": "ym2612"
    },
    {
      "channel": 1,
      "note": 57,
      "start": 56.2509,
      "duration": 0.1663,
      "velocity": 101,
      "chip": "ym2612"
    },
    {
      "channel": 2,
      "note": 73,
      "start": 56.2517,
      "duration": 0.1661,
      "velocity": 106,
      "chip": "ym2612"
    },
    {
      "channel": 3,
      "note": 69,
      "start": 56.2525,
      "duration": 0.1662,
      "velocity": 106,
      "chip": "ym2612"
    },
    {
      "channel": 5,
      "note": 75,
      "start": 56.2536,
      "duration": 0.1601,
      "velocity": 120,
      "chip": "ym2612"
    },
    {
      "channel": 0,
      "note": 78,
      "start": 56.417,
      "duration": 0.1493,
      "velocity": 106,
      "chip": "ym2612"
    },
    {
      "channel": 1,
      "note": 59,
      "start": 56.4177,
      "duration": 0.1494,
      "velocity": 101,
      "chip": "ym2612"
    },
    {
      "channel": 2,
      "note": 74,
      "start": 56.4185,
      "duration": 0.1494,
      "velocity": 106,
      "chip": "ym2612"
    },
    {
      "channel": 3,
      "note": 71,
      "start": 56.4193,
      "duration": 0.1494,
      "velocity": 106,
      "chip": "ym2612"
    },
    {
      "channel": 5,
      "note": 75,
      "start": 56.4205,
      "duration": 0.1432,
      "velocity": 120,
      "chip": "ym2612"
    },
    {
      "channel": 0,
      "note": 81,
      "start": 56.567,
      "duration": 0.1634,
      "velocity": 106,
      "chip": "ym2612"
    },
    {
      "channel": 1,
      "note": 61,
      "start": 56.5677,
      "duration": 0.1631,
      "velocity": 101,
      "chip": "ym2612"
    },
    {
      "channel": 2,
      "note": 76,
      "start": 56.5685,
      "duration": 0.1626,
      "velocity": 106,
      "chip": "ym2612"
    },
    {
      "channel": 3,
      "note": 73,
      "start": 56.5693,
      "duration": 0.1621,
      "velocity": 106,
      "chip": "ym2612"
    },
    {
      "channel": 5,
      "note": 75,
      "start": 56.5705,
      "duration": 0.3265,
      "velocity": 120,
      "chip": "ym2612"
    },
    {
      "channel": 0,
      "note": 76,
      "start": 56.9004,
      "duration": 0.166,
      "velocity": 106,
      "chip": "ym2612"
    },
    {
      "channel": 1,
      "note": 57,
      "start": 56.901,
      "duration": 0.1661,
      "velocity": 101,
      "chip": "ym2612"
    },
    {
      "channel": 2,
      "note": 73,
      "start": 56.9018,
      "duration": 0.166,
      "velocity": 106,
      "chip": "ym2612"
    },
    {
      "channel": 3,
      "note": 69,
      "start": 56.9027,
      "duration": 0.166,
      "velocity": 106,
      "chip": "ym2612"
    },
    {
      "channel": 5,
      "note": 75,
      "start": 56.9039,
      "duration": 0.1599,
      "velocity": 120,
      "chip": "ym2612"
    },
    {
      "channel": 0,
      "note": 78,
      "start": 57.067,
      "duration": 0.1494,
      "velocity": 106,
      "chip": "ym2612"
    },
    {
      "channel": 1,
      "note": 59,
      "start": 57.0677,
      "duration": 0.1494,
      "velocity": 101,
      "chip": "ym2612"
    },
    {
      "channel": 2,
      "note": 74,
      "start": 57.0685,
      "duration": 0.1494,
      "velocity": 106,
      "chip": "ym2612"
    },
    {
      "channel": 3,
      "note": 71,
      "start": 57.0693,
      "duration": 0.1494,
      "velocity": 106,
      "chip": "ym2612"
    },
    {
      "channel": 5,
      "note": 75,
      "start": 57.0705,
      "duration": 0.1433,
      "velocity": 120,
      "chip": "ym2612"
    },
    {
      "channel": 0,
      "note": 81,
      "start": 57.217,
      "duration": 0.1634,
      "velocity": 106,
      "chip": "ym2612"
    },
    {
      "channel": 1,
      "note": 61,
      "start": 57.2177,
      "duration": 0.1631,
      "velocity": 101,
      "chip": "ym2612"
    },
    {
      "channel": 2,
      "note": 76,
      "start": 57.2185,
      "duration": 0.1625,
      "velocity": 106,
      "chip": "ym2612"
    },
    {
      "channel": 3,
      "note": 73,
      "start": 57.2193,
      "duration": 0.1621,
      "velocity": 106,
      "chip": "ym2612"
    },
    {
      "channel": 5,
      "note": 75,
      "start": 57.2205,
      "duration": 0.3265,
      "velocity": 120,
      "chip": "ym2612"
    },
    {
      "channel": 0,
      "note": 76,
      "start": 57.5504,
      "duration": 0.166,
      "velocity": 106,
      "chip": "ym2612"
    },
    {
      "channel": 1,
      "note": 57,
      "start": 57.551,
      "duration": 0.1661,
      "velocity": 101,
      "chip": "ym2612"
    },
    {
      "channel": 2,
      "note": 73,
      "start": 57.5518,
      "duration": 0.166,
      "velocity": 106,
      "chip": "ym2612"
    },
    {
      "channel": 3,
      "note": 69,
      "start": 57.5527,
      "duration": 0.166,
      "velocity": 106,
      "chip": "ym2612"
    },
    {
      "channel": 5,
      "note": 75,
      "start": 57.5539,
      "duration": 0.1599,
      "velocity": 120,
      "chip": "ym2612"
    },
    {
      "channel": 0,
      "note": 78,
      "start": 57.717,
      "duration": 0.166,
      "velocity": 106,
      "chip": "ym2612"
    },
    {
      "channel": 1,
      "note": 59,
      "start": 57.7177,
      "duration": 0.1661,
      "velocity": 101,
      "chip": "ym2612"
    },
    {
      "channel": 2,
      "note": 74,
      "start": 57.7185,
      "duration": 0.166,
      "velocity": 106,
      "chip": "ym2612"
    },
    {
      "channel": 3,
      "note": 71,
      "start": 57.7193,
      "duration": 0.166,
      "velocity": 106,
      "chip": "ym2612"
    },
    {
      "channel": 5,
      "note": 75,
      "start": 57.7205,
      "duration": 0.1599,
      "velocity": 120,
      "chip": "ym2612"
    },
    {
      "channel": 0,
      "note": 81,
      "start": 57.8837,
      "duration": 0.1468,
      "velocity": 106,
      "chip": "ym2612"
    },
    {
      "channel": 1,
      "note": 61,
      "start": 57.8844,
      "duration": 0.1464,
      "velocity": 101,
      "chip": "ym2612"
    },
    {
      "channel": 2,
      "note": 76,
      "start": 57.8851,
      "duration": 0.1459,
      "velocity": 106,
      "chip": "ym2612"
    },
    {
      "channel": 3,
      "note": 73,
      "start": 57.886,
      "duration": 0.1454,
      "velocity": 106,
      "chip": "ym2612"
    },
    {
      "channel": 5,
      "note": 75,
      "start": 57.8872,
      "duration": 0.3099,
      "velocity": 120,
      "chip": "ym2612"
    },
    {
      "channel": 0,
      "note": 76,
      "start": 58.2004,
      "duration": 0.166,
      "velocity": 106,
      "chip": "ym2612"
    },
    {
      "channel": 1,
      "note": 57,
      "start": 58.201,
      "duration": 0.1661,
      "velocity": 101,
      "chip": "ym2612"
    },
    {
      "channel": 2,
      "note": 73,
      "start": 58.2018,
      "duration": 0.166,
      "velocity": 106,
      "chip": "ym2612"
    },
    {
      "channel": 3,
      "note": 69,
      "start": 58.2027,
      "duration": 0.166,
      "velocity": 106,
      "chip": "ym2612"
    },
    {
      "channel": 5,
      "note": 75,
      "start": 58.2039,
      "duration": 0.1599,
      "velocity": 120,
      "chip": "ym2612"
    },
    {
      "channel": 0,
      "note": 78,
      "start": 58.367,
      "duration": 0.166,
      "velocity": 106,
      "chip": "ym2612"
    },
    {
      "channel": 1,
      "note": 59,
      "start": 58.3677,
      "duration": 0.1661,
      "velocity": 101,
      "chip": "ym2612"
    },
    {
      "channel": 2,
      "note": 74,
      "start": 58.3685,
      "duration": 0.1661,
      "velocity": 106,
      "chip": "ym2612"
    },
    {
      "channel": 3,
      "note": 71,
      "start": 58.3693,
      "duration": 0.166,
      "velocity": 106,
      "chip": "ym2612"
    },
    {
      "channel": 5,
      "note": 75,
      "start": 58.3705,
      "duration": 0.1599,
      "velocity": 120,
      "chip": "ym2612"
    },
    {
      "channel": 0,
      "note": 81,
      "start": 58.5337,
      "duration": 1.466,
      "velocity": 106,
      "chip": "ym2612"
    },
    {
      "channel": 1,
      "note": 61,
      "start": 58.5344,
      "duration": 1.4661,
      "velocity": 101,
      "chip": "ym2612"
    },
    {
      "channel": 2,
      "note": 76,
      "start": 58.5352,
      "duration": 1.466,
      "velocity": 106,
      "chip": "ym2612"
    },
    {
      "channel": 3,
      "note": 73,
      "start": 58.536,
      "duration": 1.466,
      "velocity": 106,
      "chip": "ym2612"
    },
    {
      "channel": 5,
      "note": 75,
      "start": 58.5372,
      "duration": 0.1599,
      "velocity": 120,
      "chip": "ym2612"
    },
    {
      "channel": 5,
      "note": 75,
      "start": 58.7033,
      "duration": 0.4793,
      "velocity": 120,
      "chip": "ym2612"
    },
    {
      "channel": 0,
      "note": 93,
      "start": 60.0004,
      "duration": 0.166,
      "velocity": 106,
      "chip": "ym2612"
    },
    {
      "channel": 1,
      "note": 57,
      "start": 60.001,
      "duration": 0.1659,
      "velocity": 101,
      "chip": "ym2612"
    },
    {
      "channel": 2,
      "note": 88,
      "start": 60.0019,
      "duration": 0.1656,
      "velocity": 106,
      "chip": "ym2612"
    },
    {
      "channel": 3,
      "note": 85,
      "start": 60.0027,
      "duration": 0.1655,
      "velocity": 106,
      "chip": "ym2612"
    },
    {
      "channel": 5,
      "note": 75,
      "start": 60.0039,
      "duration": 0.1599,
      "velocity": 120,
      "chip": "ym2612"
    },
    {
      "channel": 0,
      "note": 93,
      "start": 60.1668,
      "duration": 0.1476,
      "velocity": 106,
      "chip": "ym2612"
    },
    {
      "channel": 1,
      "note": 57,
      "start": 60.1674,
      "duration": 0.1477,
      "velocity": 101,
      "chip": "ym2612"
    },
    {
      "channel": 2,
      "note": 88,
      "start": 60.168,
      "duration": 0.1478,
      "velocity": 106,
      "chip": "ym2612"
    },
    {
      "channel": 3,
      "note": 85,
      "start": 60.1687,
      "duration": 0.1481,
      "velocity": 106,
      "chip": "ym2612"
    },
    {
      "channel": 5,
      "note": 75,
      "start": 60.1694,
      "duration": 0.1444,
      "velocity": 120,
      "chip": "ym2612"
    },
    {
      "channel": 0,
      "note": 93,
      "start": 60.3149,
      "duration": 0.1655,
      "velocity": 106,
      "chip": "ym2612"
    },
    {
      "channel": 2,
      "note": 88,
      "start": 60.3163,
      "duration": 0.1648,
      "velocity": 106,
      "chip": "ym2612"
    },
    {
      "channel": 3,
      "note": 85,
      "start": 60.3173,
      "duration": 0.1644,
      "velocity": 106,
      "chip": "ym2612"
    },
    {
      "channel": 0,
      "note": 93,
      "start": 60.4809,
      "duration": 0.1669,
      "velocity": 106,
      "chip": "ym2612"
    },
    {
      "channel": 2,
      "note": 88,
      "start": 60.4816,
      "duration": 0.1678,
      "velocity": 106,
      "chip": "ym2612"
    },
    {
      "channel": 3,
      "note": 85,
      "start": 60.4822,
      "duration": 0.1688,
      "velocity": 106,
      "chip": "ym2612"
    },
    {
      "channel": 0,
      "note": 93,
      "start": 60.6485,
      "duration": 0.1653,
      "velocity": 106,
      "chip": "ym2612"
    },
    {
      "channel": 2,
      "note": 88,
      "start": 60.6501,
      "duration": 0.1643,
      "velocity": 106,
      "chip": "ym2612"
    },
    {
      "channel": 3,
      "note": 85,
      "start": 60.6517,
      "duration": 0.1634,
      "velocity": 106,
      "chip": "ym2612"
    },
    {
      "channel": 0,
      "note": 93,
      "start": 60.8142,
      "duration": 0.1666,
      "velocity": 106,
      "chip": "ym2612"
    },
    {
      "channel": 2,
      "note": 88,
      "start": 60.8149,
      "duration": 0.1669,
      "velocity": 106,
      "chip": "ym2612"
    },
    {
      "channel": 3,
      "note": 85,
      "start": 60.8156,
      "duration": 0.1673,
      "velocity": 106,
      "chip": "ym2612"
    },
    {
      "channel": 0,
      "note": 93,
      "start": 60.9813,
      "duration": 0.1491,
      "velocity": 106,
      "chip": "ym2612"
    },
    {
      "channel": 2,
      "note": 88,
      "start": 60.9824,
      "duration": 0.1487,
      "velocity": 106,
      "chip": "ym2612"
    },
    {
      "channel": 3,
      "note": 85,
      "start": 60.9834,
      "duration": 0.1483,
      "velocity": 106,
      "chip": "ym2612"
    },
    {
      "channel": 0,
      "note": 93,
      "start": 61.1309,
      "duration": 0.1671,
      "velocity": 106,
      "chip": "ym2612"
    },
    {
      "channel": 2,
      "note": 88,
      "start": 61.1316,
      "duration": 0.168,
      "velocity": 106,
      "chip": "ym2612"
    },
    {
      "channel": 3,
      "note": 85,
      "start": 61.1322,
      "duration": 0.1691,
      "velocity": 106,
      "chip": "ym2612"
    },
    {
      "channel": 0,
      "note": 93,
      "start": 61.2986,
      "duration": 0.1651,
      "velocity": 106,
      "chip": "ym2612"
    },
    {
      "channel": 2,
      "note": 88,
      "start": 61.3003,
      "duration": 0.1641,
      "velocity": 106,
      "chip": "ym2612"
    },
    {
      "channel": 3,
      "note": 85,
      "start": 61.302,
      "duration": 0.163,
      "velocity": 106,
      "chip": "ym2612"
    },
    {
      "channel": 0,
      "note": 93,
      "start": 61.4642,
      "duration": 0.1666,
      "velocity": 106,
      "chip": "ym2612"
    },
    {
      "channel": 2,
      "note": 88,
      "start": 61.4649,
      "duration": 0.1669,
      "velocity": 106,
      "chip": "ym2612"
    },
    {
      "channel": 3,
      "note": 85,
      "start": 61.4656,
      "duration": 0.1673,
      "velocity": 106,
      "chip": "ym2612"
    },
    {
      "channel": 0,
      "note": 93,
      "start": 61.6313,
      "duration": 0.1492,
      "velocity": 106,
      "chip": "ym2612"
    },
    {
      "channel": 2,
      "note": 88,
      "start": 61.6324,
      "duration": 0.1487,
      "velocity": 106,
      "chip": "ym2612"
    },
    {
      "channel": 3,
      "note": 85,
      "start": 61.6334,
      "duration": 0.1483,
      "velocity": 106,
      "chip": "ym2612"
    },
    {
      "channel": 0,
      "note": 93,
      "start": 61.7809,
      "duration": 0.1671,
      "velocity": 106,
      "chip": "ym2612"
    },
    {
      "channel": 2,
      "note": 88,
      "start": 61.7816,
      "duration": 0.168,
      "velocity": 106,
      "chip": "ym2612"
    },
    {
      "channel": 3,
      "note": 85,
      "start": 61.7822,
      "duration": 0.1691,
      "velocity": 106,
      "chip": "ym2612"
    },
    {
      "channel": 0,
      "note": 93,
      "start": 61.9486,
      "duration": 0.1651,
      "velocity": 106,
      "chip": "ym2612"
    },
    {
      "channel": 2,
      "note": 88,
      "start": 61.9503,
      "duration": 0.1641,
      "velocity": 106,
      "chip": "ym2612"
    },
    {
      "channel": 3,
      "note": 85,
      "start": 61.952,
      "duration": 0.163,
      "velocity": 106,
      "chip": "ym2612"
    },
    {
      "channel": 0,
      "note": 93,
      "start": 62.1142,
      "duration": 0.1666,
      "velocity": 106,
      "chip": "ym2612"
    },
    {
      "channel": 2,
      "note": 88,
      "start": 62.1149,
      "duration": 0.1669,
      "velocity": 106,
      "chip": "ym2612"
    },
    {
      "channel": 3,
      "note": 85,
      "start": 62.1156,
      "duration": 0.1673,
      "velocity": 106,
      "chip": "ym2612"
    },
    {
      "channel": 0,
      "note": 93,
      "start": 62.2813,
      "duration": 0.1658,
      "velocity": 106,
      "chip": "ym2612"
    },
    {
      "channel": 2,
      "note": 88,
      "start": 62.2824,
      "duration": 0.1654,
      "velocity": 106,
      "chip": "ym2612"
    },
    {
      "channel": 3,
      "note": 85,
      "start": 62.2834,
      "duration": 0.165,
      "velocity": 106,
      "chip": "ym2612"
    },
    {
      "channel": 0,
      "note": 93,
      "start": 62.4476,
      "duration": 0.1504,
      "velocity": 106,
      "chip": "ym2612"
    },
    {
      "channel": 2,
      "note": 88,
      "start": 62.4483,
      "duration": 0.1513,
      "velocity": 106,
      "chip": "ym2612"
    },
    {
      "channel": 3,
      "note": 85,
      "start": 62.4489,
      "duration": 0.1524,
      "velocity": 106,
      "chip": "ym2612"
    },
    {
      "channel": 0,
      "note": 93,
      "start": 62.5986,
      "duration": 0.1652,
      "velocity": 106,
      "chip": "ym2612"
    },
    {
      "channel": 2,
      "note": 88,
      "start": 62.6003,
      "duration": 0.1641,
      "velocity": 106,
      "chip": "ym2612"
    },
    {
      "channel": 3,
      "note": 85,
      "start": 62.602,
      "duration": 0.163,
      "velocity": 106,
      "chip": "ym2612"
    },
    {
      "channel": 0,
      "note": 93,
      "start": 62.7642,
      "duration": 0.1666,
      "velocity": 106,
      "chip": "ym2612"
    },
    {
      "channel": 2,
      "note": 88,
      "start": 62.7649,
      "duration": 0.1669,
      "velocity": 106,
      "chip": "ym2612"
    },
    {
      "channel": 3,
      "note": 85,
      "start": 62.7656,
      "duration": 0.1673,
      "velocity": 106,
      "chip": "ym2612"
    },
    {
      "channel": 0,
      "note": 93,
      "start": 62.9313,
      "duration": 0.1658,
      "velocity": 106,
      "chip": "ym2612"
    },
    {
      "channel": 2,
      "note": 88,
      "start": 62.9324,
      "duration": 0.1654,
      "velocity": 106,
      "chip": "ym2612"
    },
    {
      "channel": 3,
      "note": 85,
      "start": 62.9334,
      "duration": 0.165,
      "velocity": 106,
      "chip": "ym2612"
    },
    {
      "channel": 0,
      "note": 93,
      "start": 63.0976,
      "duration": 0.1504,
      "velocity": 106,
      "chip": "ym2612"
    },
    {
      "channel": 2,
      "note": 88,
      "start": 63.0983,
      "duration": 0.1513,
      "velocity": 106,
      "chip": "ym2612"
    },
    {
      "channel": 3,
      "note": 85,
      "start": 63.0989,
      "duration": 0.1524,
      "velocity": 106,
      "chip": "ym2612"
    },
    {
      "channel": 0,
      "note": 93,
      "start": 63.2486,
      "duration": 0.1652,
      "velocity": 106,
      "chip": "ym2612"
    },
    {
      "channel": 2,
      "note": 88,
      "start": 63.2503,
      "duration": 0.1641,
      "velocity": 106,
      "chip": "ym2612"
    },
    {
      "channel": 3,
      "note": 85,
      "start": 63.252,
      "duration": 0.163,
      "velocity": 106,
      "chip": "ym2612"
    },
    {
      "channel": 0,
      "note": 93,
      "start": 63.4142,
      "duration": 0.1666,
      "velocity": 106,
      "chip": "ym2612"
    },
    {
      "channel": 2,
      "note": 88,
      "start": 63.4149,
      "duration": 0.1669,
      "velocity": 106,
      "chip": "ym2612"
    },
    {
      "channel": 3,
      "note": 85,
      "start": 63.4156,
      "duration": 0.1673,
      "velocity": 106,
      "chip": "ym2612"
    },
    {
      "channel": 0,
      "note": 93,
      "start": 63.5813,
      "duration": 0.1658,
      "velocity": 106,
      "chip": "ym2612"
    },
    {
      "channel": 2,
      "note": 88,
      "start": 63.5824,
      "duration": 0.1654,
      "velocity": 106,
      "chip": "ym2612"
    },
    {
      "channel": 3,
      "note": 85,
      "start": 63.5834,
      "duration": 0.165,
      "velocity": 106,
      "chip": "ym2612"
    },
    {
      "channel": 0,
      "note": 93,
      "start": 63.7476,
      "duration": 0.1667,
      "velocity": 106,
      "chip": "ym2612"
    },
    {
      "channel": 2,
      "note": 88,
      "start": 63.7483,
      "duration": 0.1668,
      "velocity": 106,
      "chip": "ym2612"
    },
    {
      "channel": 3,
      "note": 85,
      "start": 63.7489,
      "duration": 0.1671,
      "velocity": 106,
      "chip": "ym2612"
    }
  ]
}