{
  "track_name": "27 - Unknown Song 1",
  "duration_sec": 58.068,
  "sample_rate": 44100,
  "note_count": 835,
  "unique_pitches": 41,
  "pitch_range": 46,
  "avg_note_duration": 0.2151,
  "reconstruction_stats": {
    "notes_reconstructed": 835,
    "keyon_events": 835,
    "keyoff_events": 832,
    "orphan_keyons": 3,
    "unique_pitches": 41,
    "pitch_range": 46,
    "avg_duration_sec": 0.2151
  },
  "metadata": {
    "source": "L\\Light Crusader\\27 - Unknown Song 1.vgz"
  },
  "notes": [
    {
      "channel": 1,
      "note": 54,
      "start": 0.0013,
      "duration": 0.0045,
      "velocity": 106,
      "chip": "ym2612"
    },
    {
      "channel": 2,
      "note": 66,
      "start": 0.0025,
      "duration": 0.0034,
      "velocity": 107,
      "chip": "ym2612"
    },
    {
      "channel": 1,
      "note": 49,
      "start": 0.0605,
      "duration": 0.0028,
      "velocity": 106,
      "chip": "ym2612"
    },
    {
      "channel": 2,
      "note": 61,
      "start": 0.0608,
      "duration": 0.0025,
      "velocity": 107,
      "chip": "ym2612"
    },
    {
      "channel": 1,
      "note": 52,
      "start": 0.2532,
      "duration": 0.0019,
      "velocity": 106,
      "chip": "ym2612"
    },
    {
      "channel": 2,
      "note": 64,
      "start": 0.2535,
      "duration": 0.0017,
      "velocity": 107,
      "chip": "ym2612"
    },
    {
      "channel": 0,
      "note": 74,
      "start": 0.4285,
      "duration": 0.003,
      "velocity": 112,
      "chip": "ym2612"
    },
    {
      "channel": 1,
      "note": 47,
      "start": 0.4288,
      "duration": 0.0038,
      "velocity": 106,
      "chip": "ym2612"
    },
    {
      "channel": 2,
      "note": 59,
      "start": 0.4292,
      "duration": 0.0035,
      "velocity": 107,
      "chip": "ym2612"
    },
    {
      "channel": 3,
      "note": 71,
      "start": 0.4295,
      "duration": 0.0022,
      "velocity": 112,
      "chip": "ym2612"
    },
    {
      "channel": 0,
      "note": 74,
      "start": 0.4325,
      "duration": 0.0734,
      "velocity": 112,
      "chip": "ym2612"
    },
    {
      "channel": 3,
      "note": 71,
      "start": 0.4329,
      "duration": 0.0734,
      "velocity": 112,
      "chip": "ym2612"
    },
    {
      "channel": 0,
      "note": 76,
      "start": 0.5062,
      "duration": 0.0664,
      "velocity": 112,
      "chip": "ym2612"
    },
    {
      "channel": 3,
      "note": 73,
      "start": 0.5066,
      "duration": 0.0663,
      "velocity": 112,
      "chip": "ym2612"
    },
    {
      "channel": 0,
      "note": 78,
      "start": 0.623,
      "duration": 0.083,
      "velocity": 112,
      "chip": "ym2612"
    },
    {
      "channel": 3,
      "note": 74,
      "start": 0.6234,
      "duration": 0.0829,
      "velocity": 112,
      "chip": "ym2612"
    },
    {
      "channel": 0,
      "note": 76,
      "start": 0.7398,
      "duration": 0.0035,
      "velocity": 112,
      "chip": "ym2612"
    },
    {
      "channel": 3,
      "note": 73,
      "start": 0.7403,
      "duration": 0.0033,
      "velocity": 112,
      "chip": "ym2612"
    },
    {
      "channel": 4,
      "note": 74,
      "start": 0.7406,
      "duration": 0.0023,
      "velocity": 112,
      "chip": "ym2612"
    },
    {
      "channel": 0,
      "note": 78,
      "start": 0.7435,
      "duration": 0.0025,
      "velocity": 112,
      "chip": "ym2612"
    },
    {
      "channel": 3,
      "note": 74,
      "start": 0.7438,
      "duration": 0.0023,
      "velocity": 112,
      "chip": "ym2612"
    },
    {
      "channel": 4,
      "note": 74,
      "start": 0.7441,
      "duration": 0.003,
      "velocity": 112,
      "chip": "ym2612"
    },
    {
      "channel": 0,
      "note": 80,
      "start": 0.7468,
      "duration": 0.0024,
      "velocity": 112,
      "chip": "ym2612"
    },
    {
      "channel": 3,
      "note": 76,
      "start": 0.747,
      "duration": 0.0022,
      "velocity": 112,
      "chip": "ym2612"
    },
    {
      "channel": 4,
      "note": 76,
      "start": 0.7473,
      "duration": 0.002,
      "velocity": 112,
      "chip": "ym2612"
    },
    {
      "channel": 0,
      "note": 81,
      "start": 0.7498,
      "duration": 0.0021,
      "velocity": 112,
      "chip": "ym2612"
    },
    {
      "channel": 3,
      "note": 78,
      "start": 0.7501,
      "duration": 0.0019,
      "velocity": 112,
      "chip": "ym2612"
    },
    {
      "channel": 4,
      "note": 78,
      "start": 0.7503,
      "duration": 0.0017,
      "velocity": 112,
      "chip": "ym2612"
    },
    {
      "channel": 1,
      "note": 54,
      "start": 0.7545,
      "duration": 0.0044,
      "velocity": 106,
      "chip": "ym2612"
    },
    {
      "channel": 2,
      "note": 66,
      "start": 0.755,
      "duration": 0.0041,
      "velocity": 107,
      "chip": "ym2612"
    },
    {
      "channel": 4,
      "note": 76,
      "start": 0.7556,
      "duration": 0.0036,
      "velocity": 112,
      "chip": "ym2612"
    },
    {
      "channel": 4,
      "note": 78,
      "start": 0.7594,
      "duration": 0.0232,
      "velocity": 112,
      "chip": "ym2612"
    },
    {
      "channel": 1,
      "note": 49,
      "start": 0.8162,
      "duration": 0.0032,
      "velocity": 106,
      "chip": "ym2612"
    },
    {
      "channel": 2,
      "note": 61,
      "start": 0.8165,
      "duration": 0.0029,
      "velocity": 107,
      "chip": "ym2612"
    },
    {
      "channel": 4,
      "note": 80,
      "start": 0.8169,
      "duration": 0.0021,
      "velocity": 112,
      "chip": "ym2612"
    },
    {
      "channel": 4,
      "note": 81,
      "start": 0.8198,
      "duration": 0.0231,
      "velocity": 112,
      "chip": "ym2612"
    },
    {
      "channel": 1,
      "note": 52,
      "start": 1.0098,
      "duration": 0.0018,
      "velocity": 106,
      "chip": "ym2612"
    },
    {
      "channel": 2,
      "note": 64,
      "start": 1.0101,
      "duration": 0.0016,
      "velocity": 107,
      "chip": "ym2612"
    },
    {
      "channel": 1,
      "note": 47,
      "start": 1.185,
      "duration": 0.0023,
      "velocity": 106,
      "chip": "ym2612"
    },
    {
      "channel": 2,
      "note": 59,
      "start": 1.1854,
      "duration": 0.0021,
      "velocity": 107,
      "chip": "ym2612"
    },
    {
      "channel": 1,
      "note": 54,
      "start": 1.4972,
      "duration": 0.0026,
      "velocity": 106,
      "chip": "ym2612"
    },
    {
      "channel": 2,
      "note": 66,
      "start": 1.4976,
      "duration": 0.0022,
      "velocity": 107,
      "chip": "ym2612"
    },
    {
      "channel": 1,
      "note": 49,
      "start": 1.5559,
      "duration": 0.0025,
      "velocity": 106,
      "chip": "ym2612"
    },
    {
      "channel": 2,
      "note": 61,
      "start": 1.5563,
      "duration": 0.0023,
      "velocity": 107,
      "chip": "ym2612"
    },
    {
      "channel": 1,
      "note": 52,
      "start": 1.7484,
      "duration": 0.0021,
      "velocity": 106,
      "chip": "ym2612"
    },
    {
      "channel": 2,
      "note": 64,
      "start": 1.7487,
      "duration": 0.0018,
      "velocity": 107,
      "chip": "ym2612"
    },
    {
      "channel": 0,
      "note": 74,
      "start": 1.9405,
      "duration": 0.0028,
      "velocity": 112,
      "chip": "ym2612"
    },
    {
      "channel": 1,
      "note": 47,
      "start": 1.9408,
      "duration": 0.0039,
      "velocity": 106,
      "chip": "ym2612"
    },
    {
      "channel": 2,
      "note": 59,
      "start": 1.9411,
      "duration": 0.0036,
      "velocity": 107,
      "chip": "ym2612"
    },
    {
      "channel": 3,
      "note": 71,
      "start": 1.9416,
      "duration": 0.0018,
      "velocity": 112,
      "chip": "ym2612"
    },
    {
      "channel": 0,
      "note": 74,
      "start": 1.9445,
      "duration": 0.0569,
      "velocity": 112,
      "chip": "ym2612"
    },
    {
      "channel": 3,
      "note": 71,
      "start": 1.9451,
      "duration": 0.0568,
      "velocity": 112,
      "chip": "ym2612"
    },
    {
      "channel": 0,
      "note": 76,
      "start": 2.0017,
      "duration": 0.0831,
      "velocity": 112,
      "chip": "ym2612"
    },
    {
      "channel": 3,
      "note": 73,
      "start": 2.0021,
      "duration": 0.083,
      "velocity": 112,
      "chip": "ym2612"
    },
    {
      "channel": 0,
      "note": 78,
      "start": 2.1184,
      "duration": 0.0831,
      "velocity": 112,
      "chip": "ym2612"
    },
    {
      "channel": 3,
      "note": 74,
      "start": 2.1188,
      "duration": 0.083,
      "velocity": 112,
      "chip": "ym2612"
    },
    {
      "channel": 0,
      "note": 76,
      "start": 2.2353,
      "duration": 0.0035,
      "velocity": 112,
      "chip": "ym2612"
    },
    {
      "channel": 3,
      "note": 73,
      "start": 2.2358,
      "duration": 0.0033,
      "velocity": 112,
      "chip": "ym2612"
    },
    {
      "channel": 4,
      "note": 74,
      "start": 2.2361,
      "duration": 0.0022,
      "velocity": 112,
      "chip": "ym2612"
    },
    {
      "channel": 0,
      "note": 78,
      "start": 2.239,
      "duration": 0.002,
      "velocity": 112,
      "chip": "ym2612"
    },
    {
      "channel": 3,
      "note": 74,
      "start": 2.2393,
      "duration": 0.0018,
      "velocity": 112,
      "chip": "ym2612"
    },
    {
      "channel": 4,
      "note": 74,
      "start": 2.2395,
      "duration": 0.0029,
      "velocity": 112,
      "chip": "ym2612"
    },
    {
      "channel": 0,
      "note": 80,
      "start": 2.2421,
      "duration": 0.0023,
      "velocity": 112,
      "chip": "ym2612"
    },
    {
      "channel": 3,
      "note": 76,
      "start": 2.2423,
      "duration": 0.0021,
      "velocity": 112,
      "chip": "ym2612"
    },
    {
      "channel": 4,
      "note": 76,
      "start": 2.2426,
      "duration": 0.002,
      "velocity": 112,
      "chip": "ym2612"
    },
    {
      "channel": 0,
      "note": 81,
      "start": 2.2451,
      "duration": 0.0023,
      "velocity": 112,
      "chip": "ym2612"
    },
    {
      "channel": 3,
      "note": 78,
      "start": 2.2455,
      "duration": 0.0022,
      "velocity": 112,
      "chip": "ym2612"
    },
    {
      "channel": 4,
      "note": 78,
      "start": 2.2457,
      "duration": 0.002,
      "velocity": 112,
      "chip": "ym2612"
    },
    {
      "channel": 1,
      "note": 54,
      "start": 2.2497,
      "duration": 0.0039,
      "velocity": 106,
      "chip": "ym2612"
    },
    {
      "channel": 2,
      "note": 66,
      "start": 2.2501,
      "duration": 0.0036,
      "velocity": 107,
      "chip": "ym2612"
    },
    {
      "channel": 4,
      "note": 76,
      "start": 2.2508,
      "duration": 0.003,
      "velocity": 112,
      "chip": "ym2612"
    },
    {
      "channel": 4,
      "note": 78,
      "start": 2.254,
      "duration": 0.0231,
      "velocity": 112,
      "chip": "ym2612"
    },
    {
      "channel": 1,
      "note": 49,
      "start": 2.3273,
      "duration": 0.003,
      "velocity": 106,
      "chip": "ym2612"
    },
    {
      "channel": 2,
      "note": 61,
      "start": 2.3277,
      "duration": 0.0027,
      "velocity": 107,
      "chip": "ym2612"
    },
    {
      "channel": 4,
      "note": 80,
      "start": 2.328,
      "duration": 0.0018,
      "velocity": 112,
      "chip": "ym2612"
    },
    {
      "channel": 4,
      "note": 81,
      "start": 2.3307,
      "duration": 0.023,
      "velocity": 112,
      "chip": "ym2612"
    },
    {
      "channel": 1,
      "note": 52,
      "start": 2.504,
      "duration": 0.0019,
      "velocity": 106,
      "chip": "ym2612"
    },
    {
      "channel": 2,
      "note": 64,
      "start": 2.5043,
      "duration": 0.0016,
      "velocity": 107,
      "chip": "ym2612"
    },
    {
      "channel": 1,
      "note": 47,
      "start": 2.5077,
      "duration": 0.0024,
      "velocity": 106,
      "chip": "ym2612"
    },
    {
      "channel": 2,
      "note": 59,
      "start": 2.5081,
      "duration": 0.0021,
      "velocity": 107,
      "chip": "ym2612"
    },
    {
      "channel": 1,
      "note": 52,
      "start": 2.8167,
      "duration": 0.0014,
      "velocity": 106,
      "chip": "ym2612"
    },
    {
      "channel": 1,
      "note": 54,
      "start": 2.8183,
      "duration": 0.0006,
      "velocity": 106,
      "chip": "ym2612"
    },
    {
      "channel": 1,
      "note": 56,
      "start": 2.8192,
      "duration": 0.0023,
      "velocity": 106,
      "chip": "ym2612"
    },
    {
      "channel": 1,
      "note": 58,
      "start": 2.8219,
      "duration": 0.004,
      "velocity": 106,
      "chip": "ym2612"
    },
    {
      "channel": 1,
      "note": 60,
      "start": 2.826,
      "duration": 0.93,
      "velocity": 106,
      "chip": "ym2612"
    },
    {
      "channel": 2,
      "note": 58,
      "start": 2.8276,
      "duration": 0.9288,
      "velocity": 97,
      "chip": "ym2612"
    },
    {
      "channel": 3,
      "note": 58,
      "start": 3.1372,
      "duration": 0.9288,
      "velocity": 97,
      "chip": "ym2612"
    },
    {
      "channel": 1,
      "note": 63,
      "start": 3.7562,
      "duration": 0.309,
      "velocity": 106,
      "chip": "ym2612"
    },
    {
      "channel": 2,
      "note": 65,
      "start": 3.7566,
      "duration": 0.309,
      "velocity": 97,
      "chip": "ym2612"
    },
    {
      "channel": 1,
      "note": 60,
      "start": 4.0655,
      "duration": 1.2254,
      "velocity": 106,
      "chip": "ym2612"
    },
    {
      "channel": 2,
      "note": 58,
      "start": 4.0659,
      "duration": 1.3141,
      "velocity": 97,
      "chip": "ym2612"
    },
    {
      "channel": 3,
      "note": 65,
      "start": 4.0662,
      "duration": 0.2922,
      "velocity": 97,
      "chip": "ym2612"
    },
    {
      "channel": 0,
      "note": 64,
      "start": 4.358,
      "duration": 0.3098,
      "velocity": 50,
      "chip": "ym2612"
    },
    {
      "channel": 3,
      "note": 58,
      "start": 4.3585,
      "duration": 1.023,
      "velocity": 97,
      "chip": "ym2612"
    },
    {
      "channel": 0,
      "note": 76,
      "start": 4.668,
      "duration": 0.311,
      "velocity": 50,
      "chip": "ym2612"
    },
    {
      "channel": 4,
      "note": 64,
      "start": 4.6685,
      "duration": 0.3111,
      "velocity": 50,
      "chip": "ym2612"
    },
    {
      "channel": 0,
      "note": 71,
      "start": 4.9793,
      "duration": 0.3113,
      "velocity": 50,
      "chip": "ym2612"
    },
    {
      "channel": 4,
      "note": 76,
      "start": 4.9798,
      "duration": 0.3116,
      "velocity": 50,
      "chip": "ym2612"
    },
    {
      "channel": 0,
      "note": 73,
      "start": 5.2908,
      "duration": 0.0884,
      "velocity": 50,
      "chip": "ym2612"
    },
    {
      "channel": 1,
      "note": 53,
      "start": 5.2911,
      "duration": 0.0049,
      "velocity": 106,
      "chip": "ym2612"
    },
    {
      "channel": 4,
      "note": 71,
      "start": 5.2918,
      "duration": 0.0899,
      "velocity": 50,
      "chip": "ym2612"
    },
    {
      "channel": 1,
      "note": 56,
      "start": 5.2963,
      "duration": 0.0089,
      "velocity": 106,
      "chip": "ym2612"
    },
    {
      "channel": 1,
      "note": 58,
      "start": 5.3054,
      "duration": 0.0741,
      "velocity": 106,
      "chip": "ym2612"
    },
    {
      "channel": 0,
      "note": 75,
      "start": 5.3795,
      "duration": 1.5437,
      "velocity": 50,
      "chip": "ym2612"
    },
    {
      "channel": 1,
      "note": 60,
      "start": 5.3798,
      "duration": 0.9198,
      "velocity": 106,
      "chip": "ym2612"
    },
    {
      "channel": 2,
      "note": 58,
      "start": 5.3802,
      "duration": 0.9198,
      "velocity": 97,
      "chip": "ym2612"
    },
    {
      "channel": 4,
      "note": 73,
      "start": 5.3819,
      "duration": 0.2947,
      "velocity": 50,
      "chip": "ym2612"
    },
    {
      "channel": 3,
      "note": 58,
      "start": 5.6765,
      "duration": 0.9356,
      "velocity": 97,
      "chip": "ym2612"
    },
    {
      "channel": 4,
      "note": 75,
      "start": 5.6769,
      "duration": 1.5419,
      "velocity": 50,
      "chip": "ym2612"
    },
    {
      "channel": 1,
      "note": 63,
      "start": 6.2997,
      "duration": 0.3117,
      "velocity": 106,
      "chip": "ym2612"
    },
    {
      "channel": 2,
      "note": 65,
      "start": 6.3001,
      "duration": 0.3116,
      "velocity": 97,
      "chip": "ym2612"
    },
    {
      "channel": 1,
      "note": 60,
      "start": 6.6116,
      "duration": 0.9541,
      "velocity": 106,
      "chip": "ym2612"
    },
    {
      "channel": 2,
      "note": 58,
      "start": 6.612,
      "duration": 0.955,
      "velocity": 101,
      "chip": "ym2612"
    },
    {
      "channel": 3,
      "note": 65,
      "start": 6.6123,
      "duration": 0.3114,
      "velocity": 97,
      "chip": "ym2612"
    },
    {
      "channel": 0,
      "note": 64,
      "start": 6.9234,
      "duration": 0.2947,
      "velocity": 50,
      "chip": "ym2612"
    },
    {
      "channel": 3,
      "note": 58,
      "start": 6.924,
      "duration": 0.6443,
      "velocity": 94,
      "chip": "ym2612"
    },
    {
      "channel": 0,
      "note": 76,
      "start": 7.2184,
      "duration": 0.3113,
      "velocity": 50,
      "chip": "ym2612"
    },
    {
      "channel": 4,
      "note": 64,
      "start": 7.219,
      "duration": 0.3113,
      "velocity": 50,
      "chip": "ym2612"
    },
    {
      "channel": 0,
      "note": 71,
      "start": 7.53,
      "duration": 0.0171,
      "velocity": 50,
      "chip": "ym2612"
    },
    {
      "channel": 4,
      "note": 76,
      "start": 7.5306,
      "duration": 0.0172,
      "velocity": 50,
      "chip": "ym2612"
    },
    {
      "channel": 0,
      "note": 73,
      "start": 7.5474,
      "duration": 0.0179,
      "velocity": 94,
      "chip": "ym2612"
    },
    {
      "channel": 4,
      "note": 71,
      "start": 7.5481,
      "duration": 0.0205,
      "velocity": 50,
      "chip": "ym2612"
    },
    {
      "channel": 0,
      "note": 75,
      "start": 7.5656,
      "duration": 0.0075,
      "velocity": 94,
      "chip": "ym2612"
    },
    {
      "channel": 2,
      "note": 68,
      "start": 7.5672,
      "duration": 0.0063,
      "velocity": 101,
      "chip": "ym2612"
    },
    {
      "channel": 3,
      "note": 71,
      "start": 7.5685,
      "duration": 0.0052,
      "velocity": 94,
      "chip": "ym2612"
    },
    {
      "channel": 4,
      "note": 73,
      "start": 7.5688,
      "duration": 0.3112,
      "velocity": 94,
      "chip": "ym2612"
    },
    {
      "channel": 1,
      "note": 49,
      "start": 7.5734,
      "duration": 0.138,
      "velocity": 106,
      "chip": "ym2612"
    },
    {
      "channel": 2,
      "note": 64,
      "start": 7.5737,
      "duration": 0.138,
      "velocity": 101,
      "chip": "ym2612"
    },
    {
      "channel": 1,
      "note": 52,
      "start": 7.7117,
      "duration": 0.1665,
      "velocity": 106,
      "chip": "ym2612"
    },
    {
      "channel": 2,
      "note": 68,
      "start": 7.712,
      "duration": 0.1664,
      "velocity": 101,
      "chip": "ym2612"
    },
    {
      "channel": 1,
      "note": 56,
      "start": 7.8783,
      "duration": 0.1498,
      "velocity": 106,
      "chip": "ym2612"
    },
    {
      "channel": 2,
      "note": 71,
      "start": 7.8786,
      "duration": 0.1498,
      "velocity": 101,
      "chip": "ym2612"
    },
    {
      "channel": 4,
      "note": 75,
      "start": 7.8803,
      "duration": 0.1485,
      "velocity": 94,
      "chip": "ym2612"
    },
    {
      "channel": 1,
      "note": 52,
      "start": 8.0284,
      "duration": 0.1667,
      "velocity": 106,
      "chip": "ym2612"
    },
    {
      "channel": 2,
      "note": 68,
      "start": 8.0286,
      "duration": 0.1667,
      "velocity": 101,
      "chip": "ym2612"
    },
    {
      "channel": 0,
      "note": 75,
      "start": 8.195,
      "duration": 0.15,
      "velocity": 94,
      "chip": "ym2612"
    },
    {
      "channel": 1,
      "note": 49,
      "start": 8.1952,
      "duration": 0.15,
      "velocity": 106,
      "chip": "ym2612"
    },
    {
      "channel": 2,
      "note": 64,
      "start": 8.1956,
      "duration": 0.1501,
      "velocity": 101,
      "chip": "ym2612"
    },
    {
      "channel": 3,
      "note": 71,
      "start": 8.1959,
      "duration": 0.1501,
      "velocity": 94,
      "chip": "ym2612"
    },
    {
      "channel": 0,
      "note": 76,
      "start": 8.3452,
      "duration": 0.0038,
      "velocity": 94,
      "chip": "ym2612"
    },
    {
      "channel": 1,
      "note": 59,
      "start": 8.3455,
      "duration": 0.0111,
      "velocity": 106,
      "chip": "ym2612"
    },
    {
      "channel": 2,
      "note": 75,
      "start": 8.3459,
      "duration": 0.0112,
      "velocity": 101,
      "chip": "ym2612"
    },
    {
      "channel": 3,
      "note": 73,
      "start": 8.3463,
      "duration": 0.0029,
      "velocity": 94,
      "chip": "ym2612"
    },
    {
      "channel": 4,
      "note": 75,
      "start": 8.352,
      "duration": 0.0054,
      "velocity": 94,
      "chip": "ym2612"
    },
    {
      "channel": 1,
      "note": 56,
      "start": 8.357,
      "duration": 0.311,
      "velocity": 106,
      "chip": "ym2612"
    },
    {
      "channel": 2,
      "note": 71,
      "start": 8.3573,
      "duration": 0.311,
      "velocity": 101,
      "chip": "ym2612"
    },
    {
      "channel": 4,
      "note": 76,
      "start": 8.3576,
      "duration": 0.0043,
      "velocity": 94,
      "chip": "ym2612"
    },
    {
      "channel": 0,
      "note": 76,
      "start": 8.5011,
      "duration": 0.1667,
      "velocity": 94,
      "chip": "ym2612"
    },
    {
      "channel": 3,
      "note": 73,
      "start": 8.5016,
      "duration": 0.1668,
      "velocity": 94,
      "chip": "ym2612"
    },
    {
      "channel": 0,
      "note": 78,
      "start": 8.6679,
      "duration": 0.0033,
      "velocity": 94,
      "chip": "ym2612"
    },
    {
      "channel": 3,
      "note": 75,
      "start": 8.6686,
      "duration": 0.0033,
      "velocity": 94,
      "chip": "ym2612"
    },
    {
      "channel": 1,
      "note": 49,
      "start": 8.6716,
      "duration": 0.1394,
      "velocity": 106,
      "chip": "ym2612"
    },
    {
      "channel": 2,
      "note": 64,
      "start": 8.6718,
      "duration": 0.1394,
      "velocity": 101,
      "chip": "ym2612"
    },
    {
      "channel": 1,
      "note": 52,
      "start": 8.8112,
      "duration": 0.1665,
      "velocity": 106,
      "chip": "ym2612"
    },
    {
      "channel": 2,
      "note": 68,
      "start": 8.8115,
      "duration": 0.1664,
      "velocity": 101,
      "chip": "ym2612"
    },
    {
      "channel": 4,
      "note": 76,
      "start": 8.8119,
      "duration": 0.1664,
      "velocity": 94,
      "chip": "ym2612"
    },
    {
      "channel": 1,
      "note": 56,
      "start": 8.9779,
      "duration": 0.1498,
      "velocity": 106,
      "chip": "ym2612"
    },
    {
      "channel": 2,
      "note": 71,
      "start": 8.9782,
      "duration": 0.1498,
      "velocity": 101,
      "chip": "ym2612"
    },
    {
      "channel": 4,
      "note": 78,
      "start": 8.9785,
      "duration": 0.1498,
      "velocity": 94,
      "chip": "ym2612"
    },
    {
      "channel": 1,
      "note": 52,
      "start": 9.1279,
      "duration": 0.1667,
      "velocity": 106,
      "chip": "ym2612"
    },
    {
      "channel": 2,
      "note": 68,
      "start": 9.1282,
      "duration": 0.1667,
      "velocity": 101,
      "chip": "ym2612"
    },
    {
      "channel": 0,
      "note": 78,
      "start": 9.2945,
      "duration": 0.0373,
      "velocity": 94,
      "chip": "ym2612"
    },
    {
      "channel": 1,
      "note": 49,
      "start": 9.2949,
      "duration": 0.0374,
      "velocity": 106,
      "chip": "ym2612"
    },
    {
      "channel": 2,
      "note": 64,
      "start": 9.2951,
      "duration": 0.0375,
      "velocity": 101,
      "chip": "ym2612"
    },
    {
      "channel": 3,
      "note": 75,
      "start": 9.2954,
      "duration": 0.0375,
      "velocity": 94,
      "chip": "ym2612"
    },
    {
      "channel": 0,
      "note": 80,
      "start": 9.3322,
      "duration": 0.0038,
      "velocity": 94,
      "chip": "ym2612"
    },
    {
      "channel": 1,
      "note": 59,
      "start": 9.3325,
      "duration": 0.0093,
      "velocity": 106,
      "chip": "ym2612"
    },
    {
      "channel": 2,
      "note": 75,
      "start": 9.3329,
      "duration": 0.0091,
      "velocity": 101,
      "chip": "ym2612"
    },
    {
      "channel": 3,
      "note": 76,
      "start": 9.3332,
      "duration": 0.0031,
      "velocity": 94,
      "chip": "ym2612"
    },
    {
      "channel": 4,
      "note": 78,
      "start": 9.3388,
      "duration": 0.0035,
      "velocity": 94,
      "chip": "ym2612"
    },
    {
      "channel": 1,
      "note": 56,
      "start": 9.3419,
      "duration": 0.4502,
      "velocity": 106,
      "chip": "ym2612"
    },
    {
      "channel": 2,
      "note": 71,
      "start": 9.3422,
      "duration": 0.4502,
      "velocity": 101,
      "chip": "ym2612"
    },
    {
      "channel": 4,
      "note": 80,
      "start": 9.3425,
      "duration": 0.1327,
      "velocity": 94,
      "chip": "ym2612"
    },
    {
      "channel": 0,
      "note": 80,
      "start": 9.6418,
      "duration": 0.15,
      "velocity": 94,
      "chip": "ym2612"
    },
    {
      "channel": 3,
      "note": 76,
      "start": 9.6424,
      "duration": 0.1502,
      "velocity": 94,
      "chip": "ym2612"
    },
    {
      "channel": 0,
      "note": 81,
      "start": 9.792,
      "duration": 0.5426,
      "velocity": 94,
      "chip": "ym2612"
    },
    {
      "channel": 3,
      "note": 78,
      "start": 9.7928,
      "duration": 0.5423,
      "velocity": 94,
      "chip": "ym2612"
    },
    {
      "channel": 1,
      "note": 47,
      "start": 9.7953,
      "duration": 0.1395,
      "velocity": 106,
      "chip": "ym2612"
    },
    {
      "channel": 2,
      "note": 64,
      "start": 9.7956,
      "duration": 0.1395,
      "velocity": 101,
      "chip": "ym2612"
    },
    {
      "channel": 1,
      "note": 52,
      "start": 9.935,
      "duration": 0.1665,
      "velocity": 106,
      "chip": "ym2612"
    },
    {
      "channel": 2,
      "note": 68,
      "start": 9.9353,
      "duration": 0.1664,
      "velocity": 101,
      "chip": "ym2612"
    },
    {
      "channel": 4,
      "note": 80,
      "start": 9.9356,
      "duration": 0.1665,
      "velocity": 94,
      "chip": "ym2612"
    },
    {
      "channel": 1,
      "note": 56,
      "start": 10.1017,
      "duration": 0.1665,
      "velocity": 106,
      "chip": "ym2612"
    },
    {
      "channel": 2,
      "note": 71,
      "start": 10.102,
      "duration": 0.1664,
      "velocity": 101,
      "chip": "ym2612"
    },
    {
      "channel": 4,
      "note": 81,
      "start": 10.1023,
      "duration": 0.4903,
      "velocity": 94,
      "chip": "ym2612"
    },
    {
      "channel": 1,
      "note": 52,
      "start": 10.2683,
      "duration": 0.1499,
      "velocity": 106,
      "chip": "ym2612"
    },
    {
      "channel": 2,
      "note": 68,
      "start": 10.2686,
      "duration": 0.1499,
      "velocity": 101,
      "chip": "ym2612"
    },
    {
      "channel": 0,
      "note": 80,
      "start": 10.3349,
      "duration": 0.0831,
      "velocity": 94,
      "chip": "ym2612"
    },
    {
      "channel": 3,
      "note": 76,
      "start": 10.3354,
      "duration": 0.0834,
      "velocity": 94,
      "chip": "ym2612"
    },
    {
      "channel": 0,
      "note": 81,
      "start": 10.4182,
      "duration": 0.0831,
      "velocity": 94,
      "chip": "ym2612"
    },
    {
      "channel": 1,
      "note": 47,
      "start": 10.4184,
      "duration": 0.1667,
      "velocity": 106,
      "chip": "ym2612"
    },
    {
      "channel": 2,
      "note": 64,
      "start": 10.4188,
      "duration": 0.1667,
      "velocity": 101,
      "chip": "ym2612"
    },
    {
      "channel": 3,
      "note": 78,
      "start": 10.419,
      "duration": 0.0827,
      "velocity": 94,
      "chip": "ym2612"
    },
    {
      "channel": 0,
      "note": 80,
      "start": 10.5015,
      "duration": 0.0833,
      "velocity": 94,
      "chip": "ym2612"
    },
    {
      "channel": 3,
      "note": 76,
      "start": 10.502,
      "duration": 0.0838,
      "velocity": 94,
      "chip": "ym2612"
    },
    {
      "channel": 0,
      "note": 78,
      "start": 10.5851,
      "duration": 0.0776,
      "velocity": 94,
      "chip": "ym2612"
    },
    {
      "channel": 1,
      "note": 59,
      "start": 10.5854,
      "duration": 0.0155,
      "velocity": 106,
      "chip": "ym2612"
    },
    {
      "channel": 2,
      "note": 75,
      "start": 10.5857,
      "duration": 0.0154,
      "velocity": 101,
      "chip": "ym2612"
    },
    {
      "channel": 3,
      "note": 75,
      "start": 10.5862,
      "duration": 0.077,
      "velocity": 94,
      "chip": "ym2612"
    },
    {
      "channel": 4,
      "note": 80,
      "start": 10.5928,
      "duration": 0.0021,
      "velocity": 94,
      "chip": "ym2612"
    },
    {
      "channel": 4,
      "note": 81,
      "start": 10.5951,
      "duration": 0.0028,
      "velocity": 94,
      "chip": "ym2612"
    },
    {
      "channel": 4,
      "note": 80,
      "start": 10.5981,
      "duration": 0.0034,
      "velocity": 94,
      "chip": "ym2612"
    },
    {
      "channel": 1,
      "note": 56,
      "start": 10.6011,
      "duration": 0.2956,
      "velocity": 106,
      "chip": "ym2612"
    },
    {
      "channel": 2,
      "note": 71,
      "start": 10.6014,
      "duration": 0.2955,
      "velocity": 101,
      "chip": "ym2612"
    },
    {
      "channel": 4,
      "note": 78,
      "start": 10.6018,
      "duration": 0.3717,
      "velocity": 94,
      "chip": "ym2612"
    },
    {
      "channel": 0,
      "note": 76,
      "start": 10.663,
      "duration": 0.0831,
      "velocity": 94,
      "chip": "ym2612"
    },
    {
      "channel": 3,
      "note": 73,
      "start": 10.6635,
      "duration": 0.0831,
      "velocity": 94,
      "chip": "ym2612"
    },
    {
      "channel": 0,
      "note": 78,
      "start": 10.7463,
      "duration": 0.0831,
      "velocity": 94,
      "chip": "ym2612"
    },
    {
      "channel": 3,
      "note": 75,
      "start": 10.7468,
      "duration": 0.0831,
      "velocity": 94,
      "chip": "ym2612"
    },
    {
      "channel": 0,
      "note": 76,
      "start": 10.8297,
      "duration": 0.0667,
      "velocity": 94,
      "chip": "ym2612"
    },
    {
      "channel": 3,
      "note": 73,
      "start": 10.8302,
      "duration": 0.0669,
      "velocity": 94,
      "chip": "ym2612"
    },
    {
      "channel": 0,
      "note": 75,
      "start": 10.8966,
      "duration": 0.5598,
      "velocity": 94,
      "chip": "ym2612"
    },
    {
      "channel": 3,
      "note": 71,
      "start": 10.8973,
      "duration": 0.5596,
      "velocity": 94,
      "chip": "ym2612"
    },
    {
      "channel": 1,
      "note": 47,
      "start": 10.9006,
      "duration": 0.156,
      "velocity": 106,
      "chip": "ym2612"
    },
    {
      "channel": 2,
      "note": 64,
      "start": 10.9008,
      "duration": 0.1561,
      "velocity": 101,
      "chip": "ym2612"
    },
    {
      "channel": 4,
      "note": 76,
      "start": 10.9737,
      "duration": 0.0835,
      "velocity": 94,
      "chip": "ym2612"
    },
    {
      "channel": 1,
      "note": 52,
      "start": 11.0568,
      "duration": 0.1498,
      "velocity": 106,
      "chip": "ym2612"
    },
    {
      "channel": 2,
      "note": 68,
      "start": 11.0571,
      "duration": 0.1498,
      "velocity": 101,
      "chip": "ym2612"
    },
    {
      "channel": 4,
      "note": 78,
      "start": 11.0574,
      "duration": 0.0661,
      "velocity": 94,
      "chip": "ym2612"
    },
    {
      "channel": 4,
      "note": 76,
      "start": 11.1237,
      "duration": 0.0835,
      "velocity": 94,
      "chip": "ym2612"
    },
    {
      "channel": 1,
      "note": 56,
      "start": 11.2068,
      "duration": 0.1665,
      "velocity": 106,
      "chip": "ym2612"
    },
    {
      "channel": 2,
      "note": 71,
      "start": 11.2071,
      "duration": 0.1664,
      "velocity": 101,
      "chip": "ym2612"
    },
    {
      "channel": 4,
      "note": 75,
      "start": 11.2074,
      "duration": 0.3793,
      "velocity": 94,
      "chip": "ym2612"
    },
    {
      "channel": 1,
      "note": 52,
      "start": 11.3735,
      "duration": 0.1499,
      "velocity": 106,
      "chip": "ym2612"
    },
    {
      "channel": 2,
      "note": 68,
      "start": 11.3738,
      "duration": 0.1499,
      "velocity": 101,
      "chip": "ym2612"
    },
    {
      "channel": 0,
      "note": 73,
      "start": 11.4567,
      "duration": 0.0664,
      "velocity": 94,
      "chip": "ym2612"
    },
    {
      "channel": 3,
      "note": 69,
      "start": 11.4572,
      "duration": 0.0668,
      "velocity": 94,
      "chip": "ym2612"
    },
    {
      "channel": 0,
      "note": 75,
      "start": 11.5233,
      "duration": 0.0516,
      "velocity": 94,
      "chip": "ym2612"
    },
    {
      "channel": 1,
      "note": 47,
      "start": 11.5236,
      "duration": 0.0547,
      "velocity": 106,
      "chip": "ym2612"
    },
    {
      "channel": 2,
      "note": 64,
      "start": 11.5239,
      "duration": 0.0548,
      "velocity": 101,
      "chip": "ym2612"
    },
    {
      "channel": 3,
      "note": 71,
      "start": 11.5242,
      "duration": 0.0512,
      "velocity": 94,
      "chip": "ym2612"
    },
    {
      "channel": 0,
      "note": 73,
      "start": 11.5752,
      "duration": 0.0028,
      "velocity": 94,
      "chip": "ym2612"
    },
    {
      "channel": 3,
      "note": 69,
      "start": 11.5756,
      "duration": 0.0034,
      "velocity": 94,
      "chip": "ym2612"
    },
    {
      "channel": 0,
      "note": 71,
      "start": 11.5783,
      "duration": 0.0346,
      "velocity": 94,
      "chip": "ym2612"
    },
    {
      "channel": 1,
      "note": 59,
      "start": 11.5786,
      "duration": 0.0163,
      "velocity": 106,
      "chip": "ym2612"
    },
    {
      "channel": 2,
      "note": 75,
      "start": 11.579,
      "duration": 0.0162,
      "velocity": 101,
      "chip": "ym2612"
    },
    {
      "channel": 3,
      "note": 68,
      "start": 11.5792,
      "duration": 0.0346,
      "velocity": 94,
      "chip": "ym2612"
    },
    {
      "channel": 4,
      "note": 73,
      "start": 11.5869,
      "duration": 0.0021,
      "velocity": 94,
      "chip": "ym2612"
    },
    {
      "channel": 4,
      "note": 75,
      "start": 11.5893,
      "duration": 0.0032,
      "velocity": 94,
      "chip": "ym2612"
    },
    {
      "channel": 4,
      "note": 73,
      "start": 11.5927,
      "duration": 0.0027,
      "velocity": 94,
      "chip": "ym2612"
    },
    {
      "channel": 1,
      "note": 56,
      "start": 11.5951,
      "duration": 0.0183,
      "velocity": 106,
      "chip": "ym2612"
    },
    {
      "channel": 2,
      "note": 71,
      "start": 11.5954,
      "duration": 0.0182,
      "velocity": 101,
      "chip": "ym2612"
    },
    {
      "channel": 4,
      "note": 71,
      "start": 11.5957,
      "duration": 0.3117,
      "velocity": 94,
      "chip": "ym2612"
    },
    {
      "channel": 0,
      "note": 75,
      "start": 11.6133,
      "duration": 0.0037,
      "velocity": 94,
      "chip": "ym2612"
    },
    {
      "channel": 3,
      "note": 69,
      "start": 11.614,
      "duration": 0.0038,
      "velocity": 94,
      "chip": "ym2612"
    },
    {
      "channel": 1,
      "note": 57,
      "start": 11.6174,
      "duration": 0.1394,
      "velocity": 106,
      "chip": "ym2612"
    },
    {
      "channel": 2,
      "note": 64,
      "start": 11.6177,
      "duration": 0.1394,
      "velocity": 101,
      "chip": "ym2612"
    },
    {
      "channel": 1,
      "note": 52,
      "start": 11.757,
      "duration": 0.1498,
      "velocity": 106,
      "chip": "ym2612"
    },
    {
      "channel": 2,
      "note": 68,
      "start": 11.7573,
      "duration": 0.1498,
      "velocity": 101,
      "chip": "ym2612"
    },
    {
      "channel": 1,
      "note": 49,
      "start": 11.907,
      "duration": 0.1665,
      "velocity": 106,
      "chip": "ym2612"
    },
    {
      "channel": 2,
      "note": 71,
      "start": 11.9073,
      "duration": 0.1665,
      "velocity": 101,
      "chip": "ym2612"
    },
    {
      "channel": 4,
      "note": 75,
      "start": 11.9077,
      "duration": 0.1664,
      "velocity": 94,
      "chip": "ym2612"
    },
    {
      "channel": 1,
      "note": 52,
      "start": 12.0737,
      "duration": 0.1667,
      "velocity": 106,
      "chip": "ym2612"
    },
    {
      "channel": 2,
      "note": 68,
      "start": 12.074,
      "duration": 0.1667,
      "velocity": 101,
      "chip": "ym2612"
    },
    {
      "channel": 0,
      "note": 75,
      "start": 12.2403,
      "duration": 0.0369,
      "velocity": 94,
      "chip": "ym2612"
    },
    {
      "channel": 1,
      "note": 56,
      "start": 12.2406,
      "duration": 0.0368,
      "velocity": 106,
      "chip": "ym2612"
    },
    {
      "channel": 2,
      "note": 64,
      "start": 12.2409,
      "duration": 0.037,
      "velocity": 101,
      "chip": "ym2612"
    },
    {
      "channel": 3,
      "note": 69,
      "start": 12.2412,
      "duration": 0.037,
      "velocity": 94,
      "chip": "ym2612"
    },
    {
      "channel": 0,
      "note": 76,
      "start": 12.2774,
      "duration": 0.0043,
      "velocity": 94,
      "chip": "ym2612"
    },
    {
      "channel": 1,
      "note": 59,
      "start": 12.2777,
      "duration": 0.0112,
      "velocity": 106,
      "chip": "ym2612"
    },
    {
      "channel": 2,
      "note": 75,
      "start": 12.2781,
      "duration": 0.0111,
      "velocity": 101,
      "chip": "ym2612"
    },
    {
      "channel": 3,
      "note": 71,
      "start": 12.2784,
      "duration": 0.0035,
      "velocity": 94,
      "chip": "ym2612"
    },
    {
      "channel": 4,
      "note": 75,
      "start": 12.2843,
      "duration": 0.0053,
      "velocity": 94,
      "chip": "ym2612"
    },
    {
      "channel": 1,
      "note": 56,
      "start": 12.2892,
      "duration": 0.3106,
      "velocity": 106,
      "chip": "ym2612"
    },
    {
      "channel": 2,
      "note": 71,
      "start": 12.2895,
      "duration": 0.3106,
      "velocity": 101,
      "chip": "ym2612"
    },
    {
      "channel": 4,
      "note": 76,
      "start": 12.2898,
      "duration": 0.0039,
      "velocity": 94,
      "chip": "ym2612"
    },
    {
      "channel": 0,
      "note": 76,
      "start": 12.4329,
      "duration": 0.1667,
      "velocity": 94,
      "chip": "ym2612"
    },
    {
      "channel": 3,
      "note": 71,
      "start": 12.4334,
      "duration": 0.1668,
      "velocity": 94,
      "chip": "ym2612"
    },
    {
      "channel": 0,
      "note": 78,
      "start": 12.5998,
      "duration": 0.0029,
      "velocity": 94,
      "chip": "ym2612"
    },
    {
      "channel": 3,
      "note": 73,
      "start": 12.6005,
      "duration": 0.0027,
      "velocity": 94,
      "chip": "ym2612"
    },
    {
      "channel": 1,
      "note": 57,
      "start": 12.603,
      "duration": 0.1396,
      "velocity": 106,
      "chip": "ym2612"
    },
    {
      "channel": 2,
      "note": 64,
      "start": 12.6032,
      "duration": 0.1396,
      "velocity": 101,
      "chip": "ym2612"
    },
    {
      "channel": 1,
      "note": 52,
      "start": 12.7428,
      "duration": 0.1665,
      "velocity": 106,
      "chip": "ym2612"
    },
    {
      "channel": 2,
      "note": 68,
      "start": 12.7431,
      "duration": 0.1664,
      "velocity": 101,
      "chip": "ym2612"
    },
    {
      "channel": 4,
      "note": 76,
      "start": 12.7435,
      "duration": 0.1664,
      "velocity": 94,
      "chip": "ym2612"
    },
    {
      "channel": 1,
      "note": 49,
      "start": 12.9094,
      "duration": 0.1498,
      "velocity": 106,
      "chip": "ym2612"
    },
    {
      "channel": 2,
      "note": 71,
      "start": 12.9098,
      "duration": 0.1498,
      "velocity": 101,
      "chip": "ym2612"
    },
    {
      "channel": 4,
      "note": 78,
      "start": 12.9101,
      "duration": 0.1498,
      "velocity": 94,
      "chip": "ym2612"
    },
    {
      "channel": 1,
      "note": 52,
      "start": 13.0595,
      "duration": 0.1667,
      "velocity": 106,
      "chip": "ym2612"
    },
    {
      "channel": 2,
      "note": 68,
      "start": 13.0598,
      "duration": 0.1667,
      "velocity": 101,
      "chip": "ym2612"
    },
    {
      "channel": 0,
      "note": 78,
      "start": 13.2261,
      "duration": 0.037,
      "velocity": 94,
      "chip": "ym2612"
    },
    {
      "channel": 1,
      "note": 56,
      "start": 13.2264,
      "duration": 0.0371,
      "velocity": 106,
      "chip": "ym2612"
    },
    {
      "channel": 2,
      "note": 64,
      "start": 13.2267,
      "duration": 0.0372,
      "velocity": 101,
      "chip": "ym2612"
    },
    {
      "channel": 3,
      "note": 73,
      "start": 13.227,
      "duration": 0.0372,
      "velocity": 94,
      "chip": "ym2612"
    },
    {
      "channel": 0,
      "note": 87,
      "start": 13.2633,
      "duration": 0.0045,
      "velocity": 94,
      "chip": "ym2612"
    },
    {
      "channel": 1,
      "note": 59,
      "start": 13.2638,
      "duration": 0.01,
      "velocity": 106,
      "chip": "ym2612"
    },
    {
      "channel": 2,
      "note": 75,
      "start": 13.2641,
      "duration": 0.0098,
      "velocity": 101,
      "chip": "ym2612"
    },
    {
      "channel": 3,
      "note": 81,
      "start": 13.2644,
      "duration": 0.0035,
      "velocity": 94,
      "chip": "ym2612"
    },
    {
      "channel": 4,
      "note": 78,
      "start": 13.2709,
      "duration": 0.0033,
      "velocity": 94,
      "chip": "ym2612"
    },
    {
      "channel": 1,
      "note": 56,
      "start": 13.2739,
      "duration": 0.4662,
      "velocity": 106,
      "chip": "ym2612"
    },
    {
      "channel": 2,
      "note": 71,
      "start": 13.2742,
      "duration": 0.4662,
      "velocity": 101,
      "chip": "ym2612"
    },
    {
      "channel": 4,
      "note": 87,
      "start": 13.2743,
      "duration": 0.1489,
      "velocity": 94,
      "chip": "ym2612"
    },
    {
      "channel": 0,
      "note": 87,
      "start": 13.5731,
      "duration": 0.1667,
      "velocity": 94,
      "chip": "ym2612"
    },
    {
      "channel": 3,
      "note": 81,
      "start": 13.5737,
      "duration": 0.167,
      "velocity": 94,
      "chip": "ym2612"
    },
    {
      "channel": 0,
      "note": 85,
      "start": 13.74,
      "duration": 0.6705,
      "velocity": 94,
      "chip": "ym2612"
    },
    {
      "channel": 2,
      "note": 72,
      "start": 13.7406,
      "duration": 0.311,
      "velocity": 101,
      "chip": "ym2612"
    },
    {
      "channel": 3,
      "note": 80,
      "start": 13.7409,
      "duration": 0.67,
      "velocity": 94,
      "chip": "ym2612"
    },
    {
      "channel": 1,
      "note": 59,
      "start": 13.7454,
      "duration": 0.1393,
      "velocity": 106,
      "chip": "ym2612"
    },
    {
      "channel": 1,
      "note": 61,
      "start": 13.8849,
      "duration": 0.1665,
      "velocity": 106,
      "chip": "ym2612"
    },
    {
      "channel": 4,
      "note": 87,
      "start": 13.8854,
      "duration": 0.1666,
      "velocity": 94,
      "chip": "ym2612"
    },
    {
      "channel": 1,
      "note": 63,
      "start": 14.0515,
      "duration": 0.1498,
      "velocity": 106,
      "chip": "ym2612"
    },
    {
      "channel": 2,
      "note": 68,
      "start": 14.0518,
      "duration": 0.1498,
      "velocity": 101,
      "chip": "ym2612"
    },
    {
      "channel": 4,
      "note": 85,
      "start": 14.0522,
      "duration": 0.3747,
      "velocity": 94,
      "chip": "ym2612"
    },
    {
      "channel": 1,
      "note": 61,
      "start": 14.2015,
      "duration": 0.1665,
      "velocity": 106,
      "chip": "ym2612"
    },
    {
      "channel": 1,
      "note": 59,
      "start": 14.3682,
      "duration": 0.0374,
      "velocity": 106,
      "chip": "ym2612"
    },
    {
      "channel": 1,
      "note": 58,
      "start": 14.4059,
      "duration": 0.0146,
      "velocity": 106,
      "chip": "ym2612"
    },
    {
      "channel": 2,
      "note": 72,
      "start": 14.4063,
      "duration": 0.0146,
      "velocity": 101,
      "chip": "ym2612"
    },
    {
      "channel": 0,
      "note": 78,
      "start": 14.4108,
      "duration": 0.005,
      "velocity": 94,
      "chip": "ym2612"
    },
    {
      "channel": 0,
      "note": 83,
      "start": 14.4159,
      "duration": 0.0043,
      "velocity": 94,
      "chip": "ym2612"
    },
    {
      "channel": 0,
      "note": 85,
      "start": 14.4205,
      "duration": 0.0061,
      "velocity": 94,
      "chip": "ym2612"
    },
    {
      "channel": 1,
      "note": 56,
      "start": 14.4208,
      "duration": 0.3121,
      "velocity": 106,
      "chip": "ym2612"
    },
    {
      "channel": 2,
      "note": 68,
      "start": 14.421,
      "duration": 0.0058,
      "velocity": 101,
      "chip": "ym2612"
    },
    {
      "channel": 0,
      "note": 90,
      "start": 14.4268,
      "duration": 0.1556,
      "velocity": 94,
      "chip": "ym2612"
    },
    {
      "channel": 4,
      "note": 78,
      "start": 14.4271,
      "duration": 0.1557,
      "velocity": 94,
      "chip": "ym2612"
    },
    {
      "channel": 0,
      "note": 88,
      "start": 14.5826,
      "duration": 0.15,
      "velocity": 94,
      "chip": "ym2612"
    },
    {
      "channel": 4,
      "note": 83,
      "start": 14.5831,
      "duration": 0.1506,
      "velocity": 94,
      "chip": "ym2612"
    },
    {
      "channel": 0,
      "note": 87,
      "start": 14.7328,
      "duration": 0.0055,
      "velocity": 94,
      "chip": "ym2612"
    },
    {
      "channel": 1,
      "note": 54,
      "start": 14.7331,
      "duration": 0.311,
      "velocity": 106,
      "chip": "ym2612"
    },
    {
      "channel": 2,
      "note": 70,
      "start": 14.7335,
      "duration": 0.3109,
      "velocity": 101,
      "chip": "ym2612"
    },
    {
      "channel": 4,
      "note": 85,
      "start": 14.7339,
      "duration": 0.0048,
      "velocity": 94,
      "chip": "ym2612"
    },
    {
      "channel": 0,
      "note": 77,
      "start": 14.7385,
      "duration": 0.1387,
      "velocity": 94,
      "chip": "ym2612"
    },
    {
      "channel": 4,
      "note": 90,
      "start": 14.7389,
      "duration": 0.1389,
      "velocity": 94,
      "chip": "ym2612"
    },
    {
      "channel": 0,
      "note": 84,
      "start": 14.8775,
      "duration": 0.537,
      "velocity": 94,
      "chip": "ym2612"
    },
    {
      "channel": 4,
      "note": 88,
      "start": 14.878,
      "duration": 0.1667,
      "velocity": 94,
      "chip": "ym2612"
    },
    {
      "channel": 1,
      "note": 59,
      "start": 15.0443,
      "duration": 0.3705,
      "velocity": 106,
      "chip": "ym2612"
    },
    {
      "channel": 2,
      "note": 73,
      "start": 15.0446,
      "duration": 0.1661,
      "velocity": 101,
      "chip": "ym2612"
    },
    {
      "channel": 4,
      "note": 87,
      "start": 15.0449,
      "duration": 0.1661,
      "velocity": 94,
      "chip": "ym2612"
    },
    {
      "channel": 4,
      "note": 77,
      "start": 15.2112,
      "duration": 0.1497,
      "velocity": 94,
      "chip": "ym2612"
    },
    {
      "channel": 4,
      "note": 84,
      "start": 15.3612,
      "duration": 0.0693,
      "velocity": 94,
      "chip": "ym2612"
    },
    {
      "channel": 0,
      "note": 80,
      "start": 15.4147,
      "duration": 0.0045,
      "velocity": 94,
      "chip": "ym2612"
    },
    {
      "channel": 1,
      "note": 61,
      "start": 15.415,
      "duration": 0.0148,
      "velocity": 106,
      "chip": "ym2612"
    },
    {
      "channel": 2,
      "note": 72,
      "start": 15.4154,
      "duration": 0.0148,
      "velocity": 101,
      "chip": "ym2612"
    },
    {
      "channel": 0,
      "note": 85,
      "start": 15.4194,
      "duration": 0.0049,
      "velocity": 94,
      "chip": "ym2612"
    },
    {
      "channel": 0,
      "note": 88,
      "start": 15.4246,
      "duration": 0.0049,
      "velocity": 94,
      "chip": "ym2612"
    },
    {
      "channel": 0,
      "note": 92,
      "start": 15.4298,
      "duration": 0.0128,
      "velocity": 97,
      "chip": "ym2612"
    },
    {
      "channel": 1,
      "note": 51,
      "start": 15.4301,
      "duration": 0.0125,
      "velocity": 106,
      "chip": "ym2612"
    },
    {
      "channel": 2,
      "note": 68,
      "start": 15.4303,
      "duration": 0.0045,
      "velocity": 101,
      "chip": "ym2612"
    },
    {
      "channel": 4,
      "note": 80,
      "start": 15.4307,
      "duration": 0.0042,
      "velocity": 94,
      "chip": "ym2612"
    },
    {
      "channel": 4,
      "note": 85,
      "start": 15.4351,
      "duration": 0.0036,
      "velocity": 94,
      "chip": "ym2612"
    },
    {
      "channel": 4,
      "note": 88,
      "start": 15.4388,
      "duration": 0.0067,
      "velocity": 94,
      "chip": "ym2612"
    },
    {
      "channel": 1,
      "note": 54,
      "start": 15.4428,
      "duration": 0.4501,
      "velocity": 106,
      "chip": "ym2612"
    },
    {
      "channel": 4,
      "note": 92,
      "start": 15.4457,
      "duration": 0.4498,
      "velocity": 97,
      "chip": "ym2612"
    },
    {
      "channel": 0,
      "note": 80,
      "start": 15.576,
      "duration": 0.0831,
      "velocity": 97,
      "chip": "ym2612"
    },
    {
      "channel": 2,
      "note": 76,
      "start": 15.5764,
      "duration": 0.0829,
      "velocity": 97,
      "chip": "ym2612"
    },
    {
      "channel": 3,
      "note": 76,
      "start": 15.5766,
      "duration": 0.0828,
      "velocity": 97,
      "chip": "ym2612"
    },
    {
      "channel": 0,
      "note": 80,
      "start": 15.7427,
      "duration": 0.0664,
      "velocity": 97,
      "chip": "ym2612"
    },
    {
      "channel": 2,
      "note": 76,
      "start": 15.743,
      "duration": 0.0663,
      "velocity": 97,
      "chip": "ym2612"
    },
    {
      "channel": 3,
      "note": 76,
      "start": 15.7433,
      "duration": 0.0662,
      "velocity": 97,
      "chip": "ym2612"
    },
    {
      "channel": 0,
      "note": 80,
      "start": 15.8929,
      "duration": 0.0829,
      "velocity": 97,
      "chip": "ym2612"
    },
    {
      "channel": 1,
      "note": 49,
      "start": 15.8932,
      "duration": 0.9664,
      "velocity": 106,
      "chip": "ym2612"
    },
    {
      "channel": 2,
      "note": 77,
      "start": 15.8936,
      "duration": 0.0824,
      "velocity": 97,
      "chip": "ym2612"
    },
    {
      "channel": 3,
      "note": 77,
      "start": 15.894,
      "duration": 0.0821,
      "velocity": 97,
      "chip": "ym2612"
    },
    {
      "channel": 0,
      "note": 80,
      "start": 16.0593,
      "duration": 0.0831,
      "velocity": 97,
      "chip": "ym2612"
    },
    {
      "channel": 2,
      "note": 77,
      "start": 16.0596,
      "duration": 0.083,
      "velocity": 97,
      "chip": "ym2612"
    },
    {
      "channel": 3,
      "note": 77,
      "start": 16.06,
      "duration": 0.0828,
      "velocity": 97,
      "chip": "ym2612"
    },
    {
      "channel": 4,
      "note": 80,
      "start": 16.0603,
      "duration": 0.0827,
      "velocity": 97,
      "chip": "ym2612"
    },
    {
      "channel": 0,
      "note": 80,
      "start": 16.2093,
      "duration": 0.0831,
      "velocity": 97,
      "chip": "ym2612"
    },
    {
      "channel": 2,
      "note": 77,
      "start": 16.2096,
      "duration": 0.083,
      "velocity": 97,
      "chip": "ym2612"
    },
    {
      "channel": 3,
      "note": 77,
      "start": 16.21,
      "duration": 0.0828,
      "velocity": 97,
      "chip": "ym2612"
    },
    {
      "channel": 4,
      "note": 80,
      "start": 16.2102,
      "duration": 0.0828,
      "velocity": 97,
      "chip": "ym2612"
    },
    {
      "channel": 0,
      "note": 80,
      "start": 16.3762,
      "duration": 0.0829,
      "velocity": 97,
      "chip": "ym2612"
    },
    {
      "channel": 2,
      "note": 76,
      "start": 16.3767,
      "duration": 0.0826,
      "velocity": 97,
      "chip": "ym2612"
    },
    {
      "channel": 3,
      "note": 76,
      "start": 16.3771,
      "duration": 0.0824,
      "velocity": 97,
      "chip": "ym2612"
    },
    {
      "channel": 4,
      "note": 80,
      "start": 16.3775,
      "duration": 0.0821,
      "velocity": 97,
      "chip": "ym2612"
    },
    {
      "channel": 0,
      "note": 80,
      "start": 16.5427,
      "duration": 0.0664,
      "velocity": 97,
      "chip": "ym2612"
    },
    {
      "channel": 2,
      "note": 76,
      "start": 16.543,
      "duration": 0.0663,
      "velocity": 97,
      "chip": "ym2612"
    },
    {
      "channel": 3,
      "note": 76,
      "start": 16.5433,
      "duration": 0.0662,
      "velocity": 97,
      "chip": "ym2612"
    },
    {
      "channel": 4,
      "note": 80,
      "start": 16.5435,
      "duration": 0.0661,
      "velocity": 97,
      "chip": "ym2612"
    },
    {
      "channel": 0,
      "note": 80,
      "start": 16.6927,
      "duration": 0.0831,
      "velocity": 97,
      "chip": "ym2612"
    },
    {
      "channel": 2,
      "note": 76,
      "start": 16.693,
      "duration": 0.083,
      "velocity": 97,
      "chip": "ym2612"
    },
    {
      "channel": 3,
      "note": 76,
      "start": 16.6933,
      "duration": 0.0828,
      "velocity": 97,
      "chip": "ym2612"
    },
    {
      "channel": 4,
      "note": 80,
      "start": 16.6935,
      "duration": 0.0828,
      "velocity": 97,
      "chip": "ym2612"
    },
    {
      "channel": 0,
      "note": 80,
      "start": 16.8595,
      "duration": 0.0829,
      "velocity": 97,
      "chip": "ym2612"
    },
    {
      "channel": 1,
      "note": 56,
      "start": 16.8598,
      "duration": 0.4831,
      "velocity": 106,
      "chip": "ym2612"
    },
    {
      "channel": 2,
      "note": 77,
      "start": 16.8603,
      "duration": 0.0824,
      "velocity": 97,
      "chip": "ym2612"
    },
    {
      "channel": 3,
      "note": 77,
      "start": 16.8607,
      "duration": 0.0821,
      "velocity": 97,
      "chip": "ym2612"
    },
    {
      "channel": 4,
      "note": 80,
      "start": 16.8611,
      "duration": 0.0819,
      "velocity": 97,
      "chip": "ym2612"
    },
    {
      "channel": 0,
      "note": 80,
      "start": 17.0093,
      "duration": 0.0831,
      "velocity": 97,
      "chip": "ym2612"
    },
    {
      "channel": 2,
      "note": 77,
      "start": 17.0096,
      "duration": 0.083,
      "velocity": 97,
      "chip": "ym2612"
    },
    {
      "channel": 3,
      "note": 77,
      "start": 17.01,
      "duration": 0.0828,
      "velocity": 97,
      "chip": "ym2612"
    },
    {
      "channel": 4,
      "note": 80,
      "start": 17.0102,
      "duration": 0.0828,
      "velocity": 97,
      "chip": "ym2612"
    },
    {
      "channel": 0,
      "note": 80,
      "start": 17.176,
      "duration": 0.0831,
      "velocity": 97,
      "chip": "ym2612"
    },
    {
      "channel": 2,
      "note": 77,
      "start": 17.1763,
      "duration": 0.083,
      "velocity": 97,
      "chip": "ym2612"
    },
    {
      "channel": 3,
      "note": 77,
      "start": 17.1766,
      "duration": 0.0828,
      "velocity": 97,
      "chip": "ym2612"
    },
    {
      "channel": 4,
      "note": 80,
      "start": 17.1769,
      "duration": 0.0828,
      "velocity": 97,
      "chip": "ym2612"
    },
    {
      "channel": 1,
      "note": 55,
      "start": 17.3431,
      "duration": 0.1496,
      "velocity": 106,
      "chip": "ym2612"
    },
    {
      "channel": 4,
      "note": 80,
      "start": 17.3454,
      "duration": 0.0639,
      "velocity": 97,
      "chip": "ym2612"
    },
    {
      "channel": 0,
      "note": 80,
      "start": 17.4927,
      "duration": 0.0831,
      "velocity": 97,
      "chip": "ym2612"
    },
    {
      "channel": 1,
      "note": 53,
      "start": 17.4929,
      "duration": 0.1665,
      "velocity": 106,
      "chip": "ym2612"
    },
    {
      "channel": 2,
      "note": 76,
      "start": 17.4932,
      "duration": 0.0828,
      "velocity": 97,
      "chip": "ym2612"
    },
    {
      "channel": 3,
      "note": 76,
      "start": 17.4935,
      "duration": 0.0826,
      "velocity": 97,
      "chip": "ym2612"
    },
    {
      "channel": 4,
      "note": 80,
      "start": 17.4939,
      "duration": 0.0824,
      "velocity": 97,
      "chip": "ym2612"
    },
    {
      "channel": 0,
      "note": 80,
      "start": 17.6593,
      "duration": 0.0831,
      "velocity": 97,
      "chip": "ym2612"
    },
    {
      "channel": 1,
      "note": 49,
      "start": 17.6596,
      "duration": 0.15,
      "velocity": 106,
      "chip": "ym2612"
    },
    {
      "channel": 2,
      "note": 76,
      "start": 17.6599,
      "duration": 0.0828,
      "velocity": 97,
      "chip": "ym2612"
    },
    {
      "channel": 3,
      "note": 76,
      "start": 17.6602,
      "duration": 0.0826,
      "velocity": 97,
      "chip": "ym2612"
    },
    {
      "channel": 4,
      "note": 80,
      "start": 17.6605,
      "duration": 0.0825,
      "velocity": 97,
      "chip": "ym2612"
    },
    {
      "channel": 0,
      "note": 80,
      "start": 17.8095,
      "duration": 0.0829,
      "velocity": 97,
      "chip": "ym2612"
    },
    {
      "channel": 1,
      "note": 46,
      "start": 17.8098,
      "duration": 1.4497,
      "velocity": 106,
      "chip": "ym2612"
    },
    {
      "channel": 2,
      "note": 77,
      "start": 17.8103,
      "duration": 0.0824,
      "velocity": 97,
      "chip": "ym2612"
    },
    {
      "channel": 3,
      "note": 77,
      "start": 17.8107,
      "duration": 0.0821,
      "velocity": 97,
      "chip": "ym2612"
    },
    {
      "channel": 0,
      "note": 80,
      "start": 17.976,
      "duration": 0.0831,
      "velocity": 97,
      "chip": "ym2612"
    },
    {
      "channel": 2,
      "note": 77,
      "start": 17.9763,
      "duration": 0.083,
      "velocity": 97,
      "chip": "ym2612"
    },
    {
      "channel": 3,
      "note": 77,
      "start": 17.9766,
      "duration": 0.0828,
      "velocity": 97,
      "chip": "ym2612"
    },
    {
      "channel": 4,
      "note": 80,
      "start": 17.9769,
      "duration": 0.0827,
      "velocity": 97,
      "chip": "ym2612"
    },
    {
      "channel": 0,
      "note": 80,
      "start": 18.1427,
      "duration": 0.0664,
      "velocity": 97,
      "chip": "ym2612"
    },
    {
      "channel": 2,
      "note": 77,
      "start": 18.143,
      "duration": 0.0663,
      "velocity": 97,
      "chip": "ym2612"
    },
    {
      "channel": 3,
      "note": 77,
      "start": 18.1433,
      "duration": 0.0662,
      "velocity": 97,
      "chip": "ym2612"
    },
    {
      "channel": 4,
      "note": 80,
      "start": 18.1435,
      "duration": 0.0661,
      "velocity": 97,
      "chip": "ym2612"
    },
    {
      "channel": 0,
      "note": 80,
      "start": 18.2929,
      "duration": 0.0829,
      "velocity": 97,
      "chip": "ym2612"
    },
    {
      "channel": 2,
      "note": 76,
      "start": 18.2934,
      "duration": 0.0826,
      "velocity": 97,
      "chip": "ym2612"
    },
    {
      "channel": 3,
      "note": 76,
      "start": 18.2937,
      "duration": 0.0824,
      "velocity": 97,
      "chip": "ym2612"
    },
    {
      "channel": 4,
      "note": 80,
      "start": 18.2942,
      "duration": 0.0821,
      "velocity": 97,
      "chip": "ym2612"
    },
    {
      "channel": 0,
      "note": 80,
      "start": 18.4593,
      "duration": 0.0831,
      "velocity": 97,
      "chip": "ym2612"
    },
    {
      "channel": 2,
      "note": 76,
      "start": 18.4596,
      "duration": 0.083,
      "velocity": 97,
      "chip": "ym2612"
    },
    {
      "channel": 3,
      "note": 76,
      "start": 18.46,
      "duration": 0.0828,
      "velocity": 97,
      "chip": "ym2612"
    },
    {
      "channel": 4,
      "note": 80,
      "start": 18.4602,
      "duration": 0.0828,
      "velocity": 97,
      "chip": "ym2612"
    },
    {
      "channel": 0,
      "note": 80,
      "start": 18.6093,
      "duration": 0.0831,
      "velocity": 97,
      "chip": "ym2612"
    },
    {
      "channel": 2,
      "note": 76,
      "start": 18.6096,
      "duration": 0.083,
      "velocity": 97,
      "chip": "ym2612"
    },
    {
      "channel": 3,
      "note": 76,
      "start": 18.61,
      "duration": 0.0828,
      "velocity": 97,
      "chip": "ym2612"
    },
    {
      "channel": 4,
      "note": 80,
      "start": 18.6102,
      "duration": 0.0828,
      "velocity": 97,
      "chip": "ym2612"
    },
    {
      "channel": 0,
      "note": 80,
      "start": 18.7762,
      "duration": 0.0829,
      "velocity": 97,
      "chip": "ym2612"
    },
    {
      "channel": 2,
      "note": 77,
      "start": 18.7767,
      "duration": 0.0826,
      "velocity": 97,
      "chip": "ym2612"
    },
    {
      "channel": 3,
      "note": 77,
      "start": 18.7771,
      "duration": 0.0824,
      "velocity": 97,
      "chip": "ym2612"
    },
    {
      "channel": 4,
      "note": 80,
      "start": 18.7775,
      "duration": 0.0821,
      "velocity": 97,
      "chip": "ym2612"
    },
    {
      "channel": 0,
      "note": 80,
      "start": 18.9427,
      "duration": 0.0664,
      "velocity": 97,
      "chip": "ym2612"
    },
    {
      "channel": 2,
      "note": 77,
      "start": 18.943,
      "duration": 0.0663,
      "velocity": 97,
      "chip": "ym2612"
    },
    {
      "channel": 3,
      "note": 77,
      "start": 18.9433,
      "duration": 0.0662,
      "velocity": 97,
      "chip": "ym2612"
    },
    {
      "channel": 4,
      "note": 80,
      "start": 18.9435,
      "duration": 0.0661,
      "velocity": 97,
      "chip": "ym2612"
    },
    {
      "channel": 0,
      "note": 80,
      "start": 19.0927,
      "duration": 0.0831,
      "velocity": 97,
      "chip": "ym2612"
    },
    {
      "channel": 2,
      "note": 77,
      "start": 19.093,
      "duration": 0.083,
      "velocity": 97,
      "chip": "ym2612"
    },
    {
      "channel": 3,
      "note": 77,
      "start": 19.0933,
      "duration": 0.0828,
      "velocity": 97,
      "chip": "ym2612"
    },
    {
      "channel": 4,
      "note": 80,
      "start": 19.0935,
      "duration": 0.0828,
      "velocity": 97,
      "chip": "ym2612"
    },
    {
      "channel": 1,
      "note": 47,
      "start": 19.2598,
      "duration": 0.4831,
      "velocity": 106,
      "chip": "ym2612"
    },
    {
      "channel": 4,
      "note": 80,
      "start": 19.2621,
      "duration": 0.0805,
      "velocity": 97,
      "chip": "ym2612"
    },
    {
      "channel": 0,
      "note": 80,
      "start": 19.4093,
      "duration": 0.0831,
      "velocity": 97,
      "chip": "ym2612"
    },
    {
      "channel": 2,
      "note": 76,
      "start": 19.4097,
      "duration": 0.0829,
      "velocity": 97,
      "chip": "ym2612"
    },
    {
      "channel": 3,
      "note": 76,
      "start": 19.41,
      "duration": 0.0828,
      "velocity": 97,
      "chip": "ym2612"
    },
    {
      "channel": 4,
      "note": 80,
      "start": 19.4103,
      "duration": 0.0827,
      "velocity": 97,
      "chip": "ym2612"
    },
    {
      "channel": 0,
      "note": 80,
      "start": 19.576,
      "duration": 0.0831,
      "velocity": 97,
      "chip": "ym2612"
    },
    {
      "channel": 2,
      "note": 76,
      "start": 19.5763,
      "duration": 0.083,
      "velocity": 97,
      "chip": "ym2612"
    },
    {
      "channel": 3,
      "note": 76,
      "start": 19.5766,
      "duration": 0.0828,
      "velocity": 97,
      "chip": "ym2612"
    },
    {
      "channel": 4,
      "note": 80,
      "start": 19.5769,
      "duration": 0.0828,
      "velocity": 97,
      "chip": "ym2612"
    },
    {
      "channel": 0,
      "note": 80,
      "start": 19.7429,
      "duration": 0.0662,
      "velocity": 97,
      "chip": "ym2612"
    },
    {
      "channel": 1,
      "note": 48,
      "start": 19.7431,
      "duration": 0.4665,
      "velocity": 106,
      "chip": "ym2612"
    },
    {
      "channel": 2,
      "note": 77,
      "start": 19.7436,
      "duration": 0.0657,
      "velocity": 97,
      "chip": "ym2612"
    },
    {
      "channel": 3,
      "note": 77,
      "start": 19.7439,
      "duration": 0.0655,
      "velocity": 97,
      "chip": "ym2612"
    },
    {
      "channel": 0,
      "note": 80,
      "start": 19.8927,
      "duration": 0.0831,
      "velocity": 97,
      "chip": "ym2612"
    },
    {
      "channel": 2,
      "note": 77,
      "start": 19.893,
      "duration": 0.083,
      "velocity": 97,
      "chip": "ym2612"
    },
    {
      "channel": 3,
      "note": 77,
      "start": 19.8933,
      "duration": 0.0828,
      "velocity": 97,
      "chip": "ym2612"
    },
    {
      "channel": 4,
      "note": 80,
      "start": 19.8935,
      "duration": 0.0828,
      "velocity": 97,
      "chip": "ym2612"
    },
    {
      "channel": 0,
      "note": 80,
      "start": 20.0593,
      "duration": 0.0831,
      "velocity": 97,
      "chip": "ym2612"
    },
    {
      "channel": 2,
      "note": 77,
      "start": 20.0596,
      "duration": 0.083,
      "velocity": 97,
      "chip": "ym2612"
    },
    {
      "channel": 3,
      "note": 77,
      "start": 20.06,
      "duration": 0.0828,
      "velocity": 97,
      "chip": "ym2612"
    },
    {
      "channel": 4,
      "note": 80,
      "start": 20.0602,
      "duration": 0.0828,
      "velocity": 97,
      "chip": "ym2612"
    },
    {
      "channel": 0,
      "note": 80,
      "start": 20.2095,
      "duration": 0.0829,
      "velocity": 97,
      "chip": "ym2612"
    },
    {
      "channel": 1,
      "note": 49,
      "start": 20.2098,
      "duration": 0.4831,
      "velocity": 106,
      "chip": "ym2612"
    },
    {
      "channel": 2,
      "note": 76,
      "start": 20.2103,
      "duration": 0.0824,
      "velocity": 97,
      "chip": "ym2612"
    },
    {
      "channel": 3,
      "note": 76,
      "start": 20.2106,
      "duration": 0.0822,
      "velocity": 97,
      "chip": "ym2612"
    },
    {
      "channel": 4,
      "note": 80,
      "start": 20.2111,
      "duration": 0.0819,
      "velocity": 97,
      "chip": "ym2612"
    },
    {
      "channel": 0,
      "note": 80,
      "start": 20.376,
      "duration": 0.0831,
      "velocity": 97,
      "chip": "ym2612"
    },
    {
      "channel": 2,
      "note": 76,
      "start": 20.3763,
      "duration": 0.083,
      "velocity": 97,
      "chip": "ym2612"
    },
    {
      "channel": 3,
      "note": 76,
      "start": 20.3766,
      "duration": 0.0828,
      "velocity": 97,
      "chip": "ym2612"
    },
    {
      "channel": 4,
      "note": 80,
      "start": 20.3769,
      "duration": 0.0828,
      "velocity": 97,
      "chip": "ym2612"
    },
    {
      "channel": 0,
      "note": 80,
      "start": 20.5427,
      "duration": 0.0664,
      "velocity": 97,
      "chip": "ym2612"
    },
    {
      "channel": 2,
      "note": 76,
      "start": 20.543,
      "duration": 0.0663,
      "velocity": 97,
      "chip": "ym2612"
    },
    {
      "channel": 3,
      "note": 76,
      "start": 20.5433,
      "duration": 0.0662,
      "velocity": 97,
      "chip": "ym2612"
    },
    {
      "channel": 4,
      "note": 80,
      "start": 20.5435,
      "duration": 0.0661,
      "velocity": 97,
      "chip": "ym2612"
    },
    {
      "channel": 0,
      "note": 80,
      "start": 20.6929,
      "duration": 0.0829,
      "velocity": 97,
      "chip": "ym2612"
    },
    {
      "channel": 1,
      "note": 56,
      "start": 20.6931,
      "duration": 0.4831,
      "velocity": 106,
      "chip": "ym2612"
    },
    {
      "channel": 2,
      "note": 77,
      "start": 20.6936,
      "duration": 0.0824,
      "velocity": 97,
      "chip": "ym2612"
    },
    {
      "channel": 3,
      "note": 77,
      "start": 20.6939,
      "duration": 0.0822,
      "velocity": 97,
      "chip": "ym2612"
    },
    {
      "channel": 4,
      "note": 80,
      "start": 20.6944,
      "duration": 0.0819,
      "velocity": 97,
      "chip": "ym2612"
    },
    {
      "channel": 0,
      "note": 80,
      "start": 20.8593,
      "duration": 0.0831,
      "velocity": 97,
      "chip": "ym2612"
    },
    {
      "channel": 2,
      "note": 77,
      "start": 20.8596,
      "duration": 0.083,
      "velocity": 97,
      "chip": "ym2612"
    },
    {
      "channel": 3,
      "note": 77,
      "start": 20.86,
      "duration": 0.0828,
      "velocity": 97,
      "chip": "ym2612"
    },
    {
      "channel": 4,
      "note": 80,
      "start": 20.8602,
      "duration": 0.0828,
      "velocity": 97,
      "chip": "ym2612"
    },
    {
      "channel": 0,
      "note": 80,
      "start": 21.0093,
      "duration": 0.0831,
      "velocity": 97,
      "chip": "ym2612"
    },
    {
      "channel": 2,
      "note": 77,
      "start": 21.0096,
      "duration": 0.083,
      "velocity": 97,
      "chip": "ym2612"
    },
    {
      "channel": 3,
      "note": 77,
      "start": 21.01,
      "duration": 0.0828,
      "velocity": 97,
      "chip": "ym2612"
    },
    {
      "channel": 4,
      "note": 80,
      "start": 21.0102,
      "duration": 0.0828,
      "velocity": 97,
      "chip": "ym2612"
    },
    {
      "channel": 1,
      "note": 57,
      "start": 21.1764,
      "duration": 0.9665,
      "velocity": 106,
      "chip": "ym2612"
    },
    {
      "channel": 4,
      "note": 80,
      "start": 21.1787,
      "duration": 0.0805,
      "velocity": 97,
      "chip": "ym2612"
    },
    {
      "channel": 0,
      "note": 80,
      "start": 21.3427,
      "duration": 0.0664,
      "velocity": 97,
      "chip": "ym2612"
    },
    {
      "channel": 2,
      "note": 76,
      "start": 21.343,
      "duration": 0.0663,
      "velocity": 97,
      "chip": "ym2612"
    },
    {
      "channel": 3,
      "note": 76,
      "start": 21.3433,
      "duration": 0.0662,
      "velocity": 97,
      "chip": "ym2612"
    },
    {
      "channel": 4,
      "note": 80,
      "start": 21.3436,
      "duration": 0.066,
      "velocity": 97,
      "chip": "ym2612"
    },
    {
      "channel": 0,
      "note": 80,
      "start": 21.4927,
      "duration": 0.0831,
      "velocity": 97,
      "chip": "ym2612"
    },
    {
      "channel": 2,
      "note": 76,
      "start": 21.493,
      "duration": 0.083,
      "velocity": 97,
      "chip": "ym2612"
    },
    {
      "channel": 3,
      "note": 76,
      "start": 21.4933,
      "duration": 0.0828,
      "velocity": 97,
      "chip": "ym2612"
    },
    {
      "channel": 4,
      "note": 80,
      "start": 21.4935,
      "duration": 0.0828,
      "velocity": 97,
      "chip": "ym2612"
    },
    {
      "channel": 0,
      "note": 80,
      "start": 21.6595,
      "duration": 0.0829,
      "velocity": 97,
      "chip": "ym2612"
    },
    {
      "channel": 2,
      "note": 77,
      "start": 21.66,
      "duration": 0.0826,
      "velocity": 97,
      "chip": "ym2612"
    },
    {
      "channel": 3,
      "note": 77,
      "start": 21.6604,
      "duration": 0.0824,
      "velocity": 97,
      "chip": "ym2612"
    },
    {
      "channel": 0,
      "note": 80,
      "start": 21.8093,
      "duration": 0.0831,
      "velocity": 97,
      "chip": "ym2612"
    },
    {
      "channel": 2,
      "note": 77,
      "start": 21.8096,
      "duration": 0.083,
      "velocity": 97,
      "chip": "ym2612"
    },
    {
      "channel": 3,
      "note": 77,
      "start": 21.81,
      "duration": 0.0828,
      "velocity": 97,
      "chip": "ym2612"
    },
    {
      "channel": 4,
      "note": 80,
      "start": 21.8103,
      "duration": 0.0827,
      "velocity": 97,
      "chip": "ym2612"
    },
    {
      "channel": 0,
      "note": 80,
      "start": 21.976,
      "duration": 0.0831,
      "velocity": 97,
      "chip": "ym2612"
    },
    {
      "channel": 2,
      "note": 77,
      "start": 21.9763,
      "duration": 0.083,
      "velocity": 97,
      "chip": "ym2612"
    },
    {
      "channel": 3,
      "note": 77,
      "start": 21.9766,
      "duration": 0.0828,
      "velocity": 97,
      "chip": "ym2612"
    },
    {
      "channel": 4,
      "note": 80,
      "start": 21.9769,
      "duration": 0.0828,
      "velocity": 97,
      "chip": "ym2612"
    },
    {
      "channel": 0,
      "note": 80,
      "start": 22.1429,
      "duration": 0.0662,
      "velocity": 97,
      "chip": "ym2612"
    },
    {
      "channel": 1,
      "note": 56,
      "start": 22.1431,
      "duration": 0.951,
      "velocity": 106,
      "chip": "ym2612"
    },
    {
      "channel": 2,
      "note": 76,
      "start": 22.1436,
      "duration": 0.0657,
      "velocity": 97,
      "chip": "ym2612"
    },
    {
      "channel": 3,
      "note": 76,
      "start": 22.1439,
      "duration": 0.0655,
      "velocity": 97,
      "chip": "ym2612"
    },
    {
      "channel": 4,
      "note": 80,
      "start": 22.1444,
      "duration": 0.0652,
      "velocity": 97,
      "chip": "ym2612"
    },
    {
      "channel": 0,
      "note": 80,
      "start": 22.2927,
      "duration": 0.0831,
      "velocity": 97,
      "chip": "ym2612"
    },
    {
      "channel": 2,
      "note": 76,
      "start": 22.293,
      "duration": 0.083,
      "velocity": 97,
      "chip": "ym2612"
    },
    {
      "channel": 3,
      "note": 76,
      "start": 22.2933,
      "duration": 0.0828,
      "velocity": 97,
      "chip": "ym2612"
    },
    {
      "channel": 4,
      "note": 80,
      "start": 22.2935,
      "duration": 0.0828,
      "velocity": 97,
      "chip": "ym2612"
    },
    {
      "channel": 0,
      "note": 80,
      "start": 22.4593,
      "duration": 0.0831,
      "velocity": 97,
      "chip": "ym2612"
    },
    {
      "channel": 2,
      "note": 76,
      "start": 22.4596,
      "duration": 0.083,
      "velocity": 97,
      "chip": "ym2612"
    },
    {
      "channel": 3,
      "note": 76,
      "start": 22.46,
      "duration": 0.0828,
      "velocity": 97,
      "chip": "ym2612"
    },
    {
      "channel": 4,
      "note": 80,
      "start": 22.4602,
      "duration": 0.0828,
      "velocity": 97,
      "chip": "ym2612"
    },
    {
      "channel": 0,
      "note": 80,
      "start": 22.6095,
      "duration": 0.0829,
      "velocity": 97,
      "chip": "ym2612"
    },
    {
      "channel": 2,
      "note": 77,
      "start": 22.61,
      "duration": 0.0826,
      "velocity": 97,
      "chip": "ym2612"
    },
    {
      "channel": 3,
      "note": 77,
      "start": 22.6104,
      "duration": 0.0824,
      "velocity": 97,
      "chip": "ym2612"
    },
    {
      "channel": 4,
      "note": 80,
      "start": 22.6108,
      "duration": 0.0821,
      "velocity": 97,
      "chip": "ym2612"
    },
    {
      "channel": 0,
      "note": 80,
      "start": 22.776,
      "duration": 0.0831,
      "velocity": 97,
      "chip": "ym2612"
    },
    {
      "channel": 2,
      "note": 77,
      "start": 22.7763,
      "duration": 0.083,
      "velocity": 97,
      "chip": "ym2612"
    },
    {
      "channel": 3,
      "note": 77,
      "start": 22.7766,
      "duration": 0.0828,
      "velocity": 97,
      "chip": "ym2612"
    },
    {
      "channel": 4,
      "note": 80,
      "start": 22.7769,
      "duration": 0.0828,
      "velocity": 97,
      "chip": "ym2612"
    },
    {
      "channel": 0,
      "note": 80,
      "start": 22.9427,
      "duration": 0.0664,
      "velocity": 97,
      "chip": "ym2612"
    },
    {
      "channel": 2,
      "note": 77,
      "start": 22.943,
      "duration": 0.0663,
      "velocity": 97,
      "chip": "ym2612"
    },
    {
      "channel": 3,
      "note": 77,
      "start": 22.9433,
      "duration": 0.0662,
      "velocity": 97,
      "chip": "ym2612"
    },
    {
      "channel": 4,
      "note": 80,
      "start": 22.9435,
      "duration": 0.0661,
      "velocity": 97,
      "chip": "ym2612"
    },
    {
      "channel": 0,
      "note": 78,
      "start": 23.094,
      "duration": 0.6329,
      "velocity": 103,
      "chip": "ym2612"
    },
    {
      "channel": 1,
      "note": 55,
      "start": 23.0944,
      "duration": 0.7674,
      "velocity": 106,
      "chip": "ym2612"
    },
    {
      "channel": 2,
      "note": 76,
      "start": 23.0958,
      "duration": 0.6312,
      "velocity": 103,
      "chip": "ym2612"
    },
    {
      "channel": 4,
      "note": 80,
      "start": 23.0976,
      "duration": 0.0027,
      "velocity": 97,
      "chip": "ym2612"
    },
    {
      "channel": 4,
      "note": 80,
      "start": 23.1023,
      "duration": 0.071,
      "velocity": 97,
      "chip": "ym2612"
    },
    {
      "channel": 3,
      "note": 76,
      "start": 23.1733,
      "duration": 0.6052,
      "velocity": 103,
      "chip": "ym2612"
    },
    {
      "channel": 4,
      "note": 80,
      "start": 23.24,
      "duration": 0.0832,
      "velocity": 97,
      "chip": "ym2612"
    },
    {
      "channel": 4,
      "note": 78,
      "start": 23.408,
      "duration": 0.6211,
      "velocity": 103,
      "chip": "ym2612"
    },
    {
      "channel": 0,
      "note": 78,
      "start": 23.7292,
      "duration": 0.1323,
      "velocity": 103,
      "chip": "ym2612"
    },
    {
      "channel": 2,
      "note": 76,
      "start": 23.7294,
      "duration": 0.1327,
      "velocity": 103,
      "chip": "ym2612"
    },
    {
      "channel": 0,
      "note": 78,
      "start": 23.8617,
      "duration": 0.0831,
      "velocity": 103,
      "chip": "ym2612"
    },
    {
      "channel": 1,
      "note": 55,
      "start": 23.862,
      "duration": 0.1664,
      "velocity": 106,
      "chip": "ym2612"
    },
    {
      "channel": 2,
      "note": 76,
      "start": 23.8624,
      "duration": 0.0827,
      "velocity": 103,
      "chip": "ym2612"
    },
    {
      "channel": 3,
      "note": 76,
      "start": 23.9454,
      "duration": 0.1664,
      "velocity": 103,
      "chip": "ym2612"
    },
    {
      "channel": 0,
      "note": 78,
      "start": 24.0284,
      "duration": 0.0831,
      "velocity": 103,
      "chip": "ym2612"
    },
    {
      "channel": 1,
      "note": 55,
      "start": 24.0286,
      "duration": 0.1513,
      "velocity": 106,
      "chip": "ym2612"
    },
    {
      "channel": 2,
      "note": 76,
      "start": 24.029,
      "duration": 0.0828,
      "velocity": 103,
      "chip": "ym2612"
    },
    {
      "channel": 3,
      "note": 76,
      "start": 24.1121,
      "duration": 0.0683,
      "velocity": 103,
      "chip": "ym2612"
    },
    {
      "channel": 0,
      "note": 78,
      "start": 24.1797,
      "duration": 0.6326,
      "velocity": 103,
      "chip": "ym2612"
    },
    {
      "channel": 1,
      "note": 54,
      "start": 24.1801,
      "duration": 0.6239,
      "velocity": 106,
      "chip": "ym2612"
    },
    {
      "channel": 2,
      "note": 74,
      "start": 24.1804,
      "duration": 0.6321,
      "velocity": 103,
      "chip": "ym2612"
    },
    {
      "channel": 4,
      "note": 78,
      "start": 24.1808,
      "duration": 0.0051,
      "velocity": 103,
      "chip": "ym2612"
    },
    {
      "channel": 3,
      "note": 76,
      "start": 24.1834,
      "duration": 0.0024,
      "velocity": 103,
      "chip": "ym2612"
    },
    {
      "channel": 4,
      "note": 78,
      "start": 24.1861,
      "duration": 0.0717,
      "velocity": 103,
      "chip": "ym2612"
    },
    {
      "channel": 3,
      "note": 74,
      "start": 24.2576,
      "duration": 0.6227,
      "velocity": 103,
      "chip": "ym2612"
    },
    {
      "channel": 4,
      "note": 78,
      "start": 24.341,
      "duration": 0.0665,
      "velocity": 103,
      "chip": "ym2612"
    },
    {
      "channel": 4,
      "note": 78,
      "start": 24.4924,
      "duration": 0.6215,
      "velocity": 103,
      "chip": "ym2612"
    },
    {
      "channel": 1,
      "note": 62,
      "start": 24.8042,
      "duration": 0.0099,
      "velocity": 106,
      "chip": "ym2612"
    },
    {
      "channel": 0,
      "note": 78,
      "start": 24.814,
      "duration": 0.1326,
      "velocity": 103,
      "chip": "ym2612"
    },
    {
      "channel": 1,
      "note": 66,
      "start": 24.8143,
      "duration": 0.4674,
      "velocity": 106,
      "chip": "ym2612"
    },
    {
      "channel": 2,
      "note": 74,
      "start": 24.8145,
      "duration": 0.1324,
      "velocity": 103,
      "chip": "ym2612"
    },
    {
      "channel": 0,
      "note": 78,
      "start": 24.9468,
      "duration": 0.0831,
      "velocity": 103,
      "chip": "ym2612"
    },
    {
      "channel": 2,
      "note": 74,
      "start": 24.9472,
      "duration": 0.0829,
      "velocity": 103,
      "chip": "ym2612"
    },
    {
      "channel": 3,
      "note": 74,
      "start": 25.0305,
      "duration": 0.1664,
      "velocity": 103,
      "chip": "ym2612"
    },
    {
      "channel": 0,
      "note": 78,
      "start": 25.1135,
      "duration": 0.0831,
      "velocity": 103,
      "chip": "ym2612"
    },
    {
      "channel": 2,
      "note": 74,
      "start": 25.1138,
      "duration": 0.083,
      "velocity": 103,
      "chip": "ym2612"
    },
    {
      "channel": 3,
      "note": 74,
      "start": 25.1972,
      "duration": 0.0849,
      "velocity": 103,
      "chip": "ym2612"
    },
    {
      "channel": 0,
      "note": 78,
      "start": 25.2815,
      "duration": 0.6151,
      "velocity": 103,
      "chip": "ym2612"
    },
    {
      "channel": 1,
      "note": 65,
      "start": 25.2819,
      "duration": 0.2938,
      "velocity": 106,
      "chip": "ym2612"
    },
    {
      "channel": 2,
      "note": 73,
      "start": 25.2821,
      "duration": 0.6145,
      "velocity": 103,
      "chip": "ym2612"
    },
    {
      "channel": 4,
      "note": 78,
      "start": 25.2825,
      "duration": 0.0047,
      "velocity": 103,
      "chip": "ym2612"
    },
    {
      "channel": 3,
      "note": 74,
      "start": 25.2847,
      "duration": 0.0025,
      "velocity": 103,
      "chip": "ym2612"
    },
    {
      "channel": 4,
      "note": 78,
      "start": 25.2873,
      "duration": 0.0553,
      "velocity": 103,
      "chip": "ym2612"
    },
    {
      "channel": 3,
      "note": 73,
      "start": 25.3426,
      "duration": 0.6218,
      "velocity": 103,
      "chip": "ym2612"
    },
    {
      "channel": 4,
      "note": 78,
      "start": 25.426,
      "duration": 0.0832,
      "velocity": 103,
      "chip": "ym2612"
    },
    {
      "channel": 1,
      "note": 61,
      "start": 25.5759,
      "duration": 0.3122,
      "velocity": 106,
      "chip": "ym2612"
    },
    {
      "channel": 4,
      "note": 78,
      "start": 25.5776,
      "duration": 0.6205,
      "velocity": 103,
      "chip": "ym2612"
    },
    {
      "channel": 1,
      "note": 56,
      "start": 25.8883,
      "duration": 0.0101,
      "velocity": 106,
      "chip": "ym2612"
    },
    {
      "channel": 0,
      "note": 78,
      "start": 25.8982,
      "duration": 0.1491,
      "velocity": 103,
      "chip": "ym2612"
    },
    {
      "channel": 1,
      "note": 53,
      "start": 25.8985,
      "duration": 0.466,
      "velocity": 106,
      "chip": "ym2612"
    },
    {
      "channel": 2,
      "note": 73,
      "start": 25.8988,
      "duration": 0.1488,
      "velocity": 103,
      "chip": "ym2612"
    },
    {
      "channel": 0,
      "note": 78,
      "start": 26.0476,
      "duration": 0.0664,
      "velocity": 103,
      "chip": "ym2612"
    },
    {
      "channel": 2,
      "note": 73,
      "start": 26.0479,
      "duration": 0.0663,
      "velocity": 103,
      "chip": "ym2612"
    },
    {
      "channel": 3,
      "note": 73,
      "start": 26.1146,
      "duration": 0.1664,
      "velocity": 103,
      "chip": "ym2612"
    },
    {
      "channel": 0,
      "note": 78,
      "start": 26.1976,
      "duration": 0.0831,
      "velocity": 103,
      "chip": "ym2612"
    },
    {
      "channel": 2,
      "note": 71,
      "start": 26.1979,
      "duration": 0.083,
      "velocity": 103,
      "chip": "ym2612"
    },
    {
      "channel": 3,
      "note": 73,
      "start": 26.2813,
      "duration": 0.0838,
      "velocity": 103,
      "chip": "ym2612"
    },
    {
      "channel": 0,
      "note": 78,
      "start": 26.3645,
      "duration": 0.7339,
      "velocity": 112,
      "chip": "ym2612"
    },
    {
      "channel": 1,
      "note": 52,
      "start": 26.3648,
      "duration": 0.607,
      "velocity": 106,
      "chip": "ym2612"
    },
    {
      "channel": 2,
      "note": 70,
      "start": 26.3651,
      "duration": 0.607,
      "velocity": 103,
      "chip": "ym2612"
    },
    {
      "channel": 4,
      "note": 78,
      "start": 26.3656,
      "duration": 0.0047,
      "velocity": 103,
      "chip": "ym2612"
    },
    {
      "channel": 3,
      "note": 71,
      "start": 26.3685,
      "duration": 0.0017,
      "velocity": 103,
      "chip": "ym2612"
    },
    {
      "channel": 4,
      "note": 78,
      "start": 26.3705,
      "duration": 0.0559,
      "velocity": 103,
      "chip": "ym2612"
    },
    {
      "channel": 3,
      "note": 70,
      "start": 26.4263,
      "duration": 0.5531,
      "velocity": 103,
      "chip": "ym2612"
    },
    {
      "channel": 4,
      "note": 78,
      "start": 26.5098,
      "duration": 0.0832,
      "velocity": 103,
      "chip": "ym2612"
    },
    {
      "channel": 4,
      "note": 78,
      "start": 26.6766,
      "duration": 0.7355,
      "velocity": 112,
      "chip": "ym2612"
    },
    {
      "channel": 1,
      "note": 54,
      "start": 26.972,
      "duration": 0.0143,
      "velocity": 106,
      "chip": "ym2612"
    },
    {
      "channel": 2,
      "note": 71,
      "start": 26.9723,
      "duration": 0.0141,
      "velocity": 103,
      "chip": "ym2612"
    },
    {
      "channel": 3,
      "note": 71,
      "start": 26.9797,
      "duration": 0.11,
      "velocity": 103,
      "chip": "ym2612"
    },
    {
      "channel": 1,
      "note": 56,
      "start": 26.9863,
      "duration": 0.1137,
      "velocity": 106,
      "chip": "ym2612"
    },
    {
      "channel": 2,
      "note": 73,
      "start": 26.9866,
      "duration": 0.1149,
      "velocity": 103,
      "chip": "ym2612"
    },
    {
      "channel": 3,
      "note": 73,
      "start": 27.0899,
      "duration": 0.0717,
      "velocity": 103,
      "chip": "ym2612"
    },
    {
      "channel": 0,
      "note": 74,
      "start": 27.0987,
      "duration": 0.0046,
      "velocity": 112,
      "chip": "ym2612"
    },
    {
      "channel": 1,
      "note": 47,
      "start": 27.1002,
      "duration": 0.0038,
      "velocity": 106,
      "chip": "ym2612"
    },
    {
      "channel": 0,
      "note": 74,
      "start": 27.1039,
      "duration": 0.0559,
      "velocity": 112,
      "chip": "ym2612"
    },
    {
      "channel": 0,
      "note": 76,
      "start": 27.1601,
      "duration": 0.0831,
      "velocity": 112,
      "chip": "ym2612"
    },
    {
      "channel": 1,
      "note": 47,
      "start": 27.1604,
      "duration": 0.2594,
      "velocity": 106,
      "chip": "ym2612"
    },
    {
      "channel": 0,
      "note": 78,
      "start": 27.2934,
      "duration": 0.0664,
      "velocity": 112,
      "chip": "ym2612"
    },
    {
      "channel": 0,
      "note": 76,
      "start": 27.4103,
      "duration": 0.0053,
      "velocity": 112,
      "chip": "ym2612"
    },
    {
      "channel": 2,
      "note": 71,
      "start": 27.4107,
      "duration": 0.0188,
      "velocity": 103,
      "chip": "ym2612"
    },
    {
      "channel": 4,
      "note": 74,
      "start": 27.4123,
      "duration": 0.0028,
      "velocity": 112,
      "chip": "ym2612"
    },
    {
      "channel": 0,
      "note": 78,
      "start": 27.4158,
      "duration": 0.0031,
      "velocity": 112,
      "chip": "ym2612"
    },
    {
      "channel": 4,
      "note": 74,
      "start": 27.4162,
      "duration": 0.0041,
      "velocity": 112,
      "chip": "ym2612"
    },
    {
      "channel": 0,
      "note": 80,
      "start": 27.4198,
      "duration": 0.0035,
      "velocity": 112,
      "chip": "ym2612"
    },
    {
      "channel": 1,
      "note": 57,
      "start": 27.42,
      "duration": 0.0043,
      "velocity": 106,
      "chip": "ym2612"
    },
    {
      "channel": 4,
      "note": 76,
      "start": 27.4206,
      "duration": 0.0029,
      "velocity": 112,
      "chip": "ym2612"
    },
    {
      "channel": 0,
      "note": 81,
      "start": 27.4242,
      "duration": 0.0038,
      "velocity": 112,
      "chip": "ym2612"
    },
    {
      "channel": 1,
      "note": 59,
      "start": 27.4245,
      "duration": 0.0048,
      "velocity": 106,
      "chip": "ym2612"
    },
    {
      "channel": 4,
      "note": 78,
      "start": 27.425,
      "duration": 0.0032,
      "velocity": 112,
      "chip": "ym2612"
    },
    {
      "channel": 0,
      "note": 74,
      "start": 27.4293,
      "duration": 0.0034,
      "velocity": 112,
      "chip": "ym2612"
    },
    {
      "channel": 1,
      "note": 57,
      "start": 27.4295,
      "duration": 0.1787,
      "velocity": 106,
      "chip": "ym2612"
    },
    {
      "channel": 2,
      "note": 73,
      "start": 27.4298,
      "duration": 0.2954,
      "velocity": 103,
      "chip": "ym2612"
    },
    {
      "channel": 4,
      "note": 76,
      "start": 27.4302,
      "duration": 0.0043,
      "velocity": 112,
      "chip": "ym2612"
    },
    {
      "channel": 0,
      "note": 74,
      "start": 27.4342,
      "duration": 0.057,
      "velocity": 112,
      "chip": "ym2612"
    },
    {
      "channel": 4,
      "note": 78,
      "start": 27.4347,
      "duration": 0.0236,
      "velocity": 112,
      "chip": "ym2612"
    },
    {
      "channel": 0,
      "note": 76,
      "start": 27.4915,
      "duration": 0.0831,
      "velocity": 112,
      "chip": "ym2612"
    },
    {
      "channel": 3,
      "note": 71,
      "start": 27.492,
      "duration": 0.2415,
      "velocity": 103,
      "chip": "ym2612"
    },
    {
      "channel": 4,
      "note": 80,
      "start": 27.4922,
      "duration": 0.0828,
      "velocity": 112,
      "chip": "ym2612"
    },
    {
      "channel": 0,
      "note": 78,
      "start": 27.6081,
      "duration": 0.0831,
      "velocity": 112,
      "chip": "ym2612"
    },
    {
      "channel": 1,
      "note": 56,
      "start": 27.6085,
      "duration": 0.1245,
      "velocity": 106,
      "chip": "ym2612"
    },
    {
      "channel": 4,
      "note": 81,
      "start": 27.6089,
      "duration": 0.0828,
      "velocity": 112,
      "chip": "ym2612"
    },
    {
      "channel": 0,
      "note": 76,
      "start": 27.7251,
      "duration": 0.0043,
      "velocity": 112,
      "chip": "ym2612"
    },
    {
      "channel": 2,
      "note": 74,
      "start": 27.7254,
      "duration": 0.0702,
      "velocity": 103,
      "chip": "ym2612"
    },
    {
      "channel": 4,
      "note": 74,
      "start": 27.7258,
      "duration": 0.0027,
      "velocity": 112,
      "chip": "ym2612"
    },
    {
      "channel": 0,
      "note": 78,
      "start": 27.7296,
      "duration": 0.0019,
      "velocity": 112,
      "chip": "ym2612"
    },
    {
      "channel": 4,
      "note": 74,
      "start": 27.7299,
      "duration": 0.0038,
      "velocity": 112,
      "chip": "ym2612"
    },
    {
      "channel": 0,
      "note": 80,
      "start": 27.7329,
      "duration": 0.0039,
      "velocity": 112,
      "chip": "ym2612"
    },
    {
      "channel": 1,
      "note": 54,
      "start": 27.7332,
      "duration": 0.0621,
      "velocity": 106,
      "chip": "ym2612"
    },
    {
      "channel": 3,
      "note": 73,
      "start": 27.7336,
      "duration": 0.0706,
      "velocity": 103,
      "chip": "ym2612"
    },
    {
      "channel": 4,
      "note": 76,
      "start": 27.7339,
      "duration": 0.0032,
      "velocity": 112,
      "chip": "ym2612"
    },
    {
      "channel": 0,
      "note": 81,
      "start": 27.7378,
      "duration": 0.0236,
      "velocity": 112,
      "chip": "ym2612"
    },
    {
      "channel": 4,
      "note": 78,
      "start": 27.7381,
      "duration": 0.0237,
      "velocity": 112,
      "chip": "ym2612"
    },
    {
      "channel": 0,
      "note": 74,
      "start": 27.7952,
      "duration": 0.0034,
      "velocity": 112,
      "chip": "ym2612"
    },
    {
      "channel": 1,
      "note": 55,
      "start": 27.7956,
      "duration": 0.0122,
      "velocity": 106,
      "chip": "ym2612"
    },
    {
      "channel": 2,
      "note": 76,
      "start": 27.7958,
      "duration": 0.0164,
      "velocity": 103,
      "chip": "ym2612"
    },
    {
      "channel": 4,
      "note": 76,
      "start": 27.7963,
      "duration": 0.0036,
      "velocity": 112,
      "chip": "ym2612"
    },
    {
      "channel": 0,
      "note": 74,
      "start": 27.7997,
      "duration": 0.004,
      "velocity": 112,
      "chip": "ym2612"
    },
    {
      "channel": 4,
      "note": 78,
      "start": 27.8001,
      "duration": 0.0027,
      "velocity": 112,
      "chip": "ym2612"
    },
    {
      "channel": 0,
      "note": 76,
      "start": 27.8039,
      "duration": 0.0024,
      "velocity": 112,
      "chip": "ym2612"
    },
    {
      "channel": 3,
      "note": 74,
      "start": 27.8044,
      "duration": 0.0706,
      "velocity": 103,
      "chip": "ym2612"
    },
    {
      "channel": 4,
      "note": 80,
      "start": 27.8047,
      "duration": 0.0018,
      "velocity": 112,
      "chip": "ym2612"
    },
    {
      "channel": 0,
      "note": 78,
      "start": 27.8077,
      "duration": 0.0034,
      "velocity": 112,
      "chip": "ym2612"
    },
    {
      "channel": 1,
      "note": 52,
      "start": 27.808,
      "duration": 0.0666,
      "velocity": 106,
      "chip": "ym2612"
    },
    {
      "channel": 4,
      "note": 81,
      "start": 27.8085,
      "duration": 0.0029,
      "velocity": 112,
      "chip": "ym2612"
    },
    {
      "channel": 0,
      "note": 74,
      "start": 27.8122,
      "duration": 0.0038,
      "velocity": 112,
      "chip": "ym2612"
    },
    {
      "channel": 2,
      "note": 78,
      "start": 27.8125,
      "duration": 0.3123,
      "velocity": 103,
      "chip": "ym2612"
    },
    {
      "channel": 4,
      "note": 74,
      "start": 27.8129,
      "duration": 0.0033,
      "velocity": 112,
      "chip": "ym2612"
    },
    {
      "channel": 0,
      "note": 74,
      "start": 27.8168,
      "duration": 0.0574,
      "velocity": 112,
      "chip": "ym2612"
    },
    {
      "channel": 4,
      "note": 74,
      "start": 27.8173,
      "duration": 0.058,
      "velocity": 112,
      "chip": "ym2612"
    },
    {
      "channel": 0,
      "note": 76,
      "start": 27.8745,
      "duration": 0.0831,
      "velocity": 112,
      "chip": "ym2612"
    },
    {
      "channel": 1,
      "note": 54,
      "start": 27.8748,
      "duration": 0.2544,
      "velocity": 106,
      "chip": "ym2612"
    },
    {
      "channel": 3,
      "note": 76,
      "start": 27.8752,
      "duration": 0.258,
      "velocity": 103,
      "chip": "ym2612"
    },
    {
      "channel": 4,
      "note": 76,
      "start": 27.8756,
      "duration": 0.0824,
      "velocity": 112,
      "chip": "ym2612"
    },
    {
      "channel": 0,
      "note": 78,
      "start": 28.0078,
      "duration": 0.0664,
      "velocity": 112,
      "chip": "ym2612"
    },
    {
      "channel": 4,
      "note": 78,
      "start": 28.0084,
      "duration": 0.0663,
      "velocity": 112,
      "chip": "ym2612"
    },
    {
      "channel": 0,
      "note": 76,
      "start": 28.1247,
      "duration": 0.0042,
      "velocity": 112,
      "chip": "ym2612"
    },
    {
      "channel": 2,
      "note": 80,
      "start": 28.1251,
      "duration": 0.0185,
      "velocity": 103,
      "chip": "ym2612"
    },
    {
      "channel": 4,
      "note": 74,
      "start": 28.1255,
      "duration": 0.0029,
      "velocity": 112,
      "chip": "ym2612"
    },
    {
      "channel": 0,
      "note": 78,
      "start": 28.1291,
      "duration": 0.0028,
      "velocity": 112,
      "chip": "ym2612"
    },
    {
      "channel": 1,
      "note": 49,
      "start": 28.1293,
      "duration": 0.014,
      "velocity": 106,
      "chip": "ym2612"
    },
    {
      "channel": 4,
      "note": 74,
      "start": 28.1297,
      "duration": 0.0037,
      "velocity": 112,
      "chip": "ym2612"
    },
    {
      "channel": 0,
      "note": 80,
      "start": 28.1329,
      "duration": 0.0032,
      "velocity": 112,
      "chip": "ym2612"
    },
    {
      "channel": 3,
      "note": 78,
      "start": 28.1333,
      "duration": 0.0724,
      "velocity": 103,
      "chip": "ym2612"
    },
    {
      "channel": 4,
      "note": 76,
      "start": 28.1337,
      "duration": 0.0027,
      "velocity": 112,
      "chip": "ym2612"
    },
    {
      "channel": 0,
      "note": 81,
      "start": 28.1378,
      "duration": 0.0037,
      "velocity": 112,
      "chip": "ym2612"
    },
    {
      "channel": 4,
      "note": 78,
      "start": 28.1384,
      "duration": 0.0033,
      "velocity": 112,
      "chip": "ym2612"
    },
    {
      "channel": 0,
      "note": 83,
      "start": 28.1432,
      "duration": 0.1455,
      "velocity": 112,
      "chip": "ym2612"
    },
    {
      "channel": 1,
      "note": 47,
      "start": 28.1435,
      "duration": 0.0049,
      "velocity": 106,
      "chip": "ym2612"
    },
    {
      "channel": 2,
      "note": 78,
      "start": 28.1438,
      "duration": 0.0026,
      "velocity": 103,
      "chip": "ym2612"
    },
    {
      "channel": 4,
      "note": 76,
      "start": 28.1443,
      "duration": 0.0046,
      "velocity": 112,
      "chip": "ym2612"
    },
    {
      "channel": 2,
      "note": 80,
      "start": 28.1466,
      "duration": 0.0031,
      "velocity": 103,
      "chip": "ym2612"
    },
    {
      "channel": 1,
      "note": 50,
      "start": 28.1486,
      "duration": 0.0569,
      "velocity": 106,
      "chip": "ym2612"
    },
    {
      "channel": 4,
      "note": 78,
      "start": 28.1491,
      "duration": 0.0232,
      "velocity": 112,
      "chip": "ym2612"
    },
    {
      "channel": 2,
      "note": 81,
      "start": 28.15,
      "duration": 0.3589,
      "velocity": 103,
      "chip": "ym2612"
    },
    {
      "channel": 3,
      "note": 80,
      "start": 28.206,
      "duration": 0.2409,
      "velocity": 103,
      "chip": "ym2612"
    },
    {
      "channel": 4,
      "note": 80,
      "start": 28.2063,
      "duration": 0.0829,
      "velocity": 112,
      "chip": "ym2612"
    },
    {
      "channel": 0,
      "note": 81,
      "start": 28.2889,
      "duration": 0.0831,
      "velocity": 112,
      "chip": "ym2612"
    },
    {
      "channel": 1,
      "note": 59,
      "start": 28.3224,
      "duration": 0.1168,
      "velocity": 106,
      "chip": "ym2612"
    },
    {
      "channel": 4,
      "note": 81,
      "start": 28.3229,
      "duration": 0.0828,
      "velocity": 112,
      "chip": "ym2612"
    },
    {
      "channel": 0,
      "note": 80,
      "start": 28.3722,
      "duration": 0.0667,
      "velocity": 112,
      "chip": "ym2612"
    },
    {
      "channel": 0,
      "note": 81,
      "start": 28.4391,
      "duration": 0.0886,
      "velocity": 112,
      "chip": "ym2612"
    },
    {
      "channel": 4,
      "note": 83,
      "start": 28.4398,
      "duration": 0.0105,
      "velocity": 112,
      "chip": "ym2612"
    },
    {
      "channel": 1,
      "note": 54,
      "start": 28.4437,
      "duration": 0.0028,
      "velocity": 106,
      "chip": "ym2612"
    },
    {
      "channel": 3,
      "note": 78,
      "start": 28.4471,
      "duration": 0.003,
      "velocity": 103,
      "chip": "ym2612"
    },
    {
      "channel": 3,
      "note": 80,
      "start": 28.4503,
      "duration": 0.002,
      "velocity": 103,
      "chip": "ym2612"
    },
    {
      "channel": 4,
      "note": 81,
      "start": 28.4504,
      "duration": 0.0022,
      "velocity": 112,
      "chip": "ym2612"
    },
    {
      "channel": 3,
      "note": 81,
      "start": 28.4526,
      "duration": 0.0785,
      "velocity": 112,
      "chip": "ym2612"
    },
    {
      "channel": 4,
      "note": 80,
      "start": 28.4528,
      "duration": 0.0566,
      "velocity": 112,
      "chip": "ym2612"
    },
    {
      "channel": 1,
      "note": 57,
      "start": 28.5088,
      "duration": 0.0046,
      "velocity": 106,
      "chip": "ym2612"
    },
    {
      "channel": 2,
      "note": 83,
      "start": 28.5091,
      "duration": 0.0084,
      "velocity": 103,
      "chip": "ym2612"
    },
    {
      "channel": 4,
      "note": 81,
      "start": 28.5096,
      "duration": 0.1612,
      "velocity": 112,
      "chip": "ym2612"
    },
    {
      "channel": 2,
      "note": 81,
      "start": 28.5178,
      "duration": 0.0026,
      "velocity": 103,
      "chip": "ym2612"
    },
    {
      "channel": 2,
      "note": 80,
      "start": 28.5205,
      "duration": 0.0037,
      "velocity": 103,
      "chip": "ym2612"
    },
    {
      "channel": 2,
      "note": 78,
      "start": 28.5243,
      "duration": 0.0053,
      "velocity": 107,
      "chip": "ym2612"
    },
    {
      "channel": 0,
      "note": 74,
      "start": 28.528,
      "duration": 0.0057,
      "velocity": 112,
      "chip": "ym2612"
    },
    {
      "channel": 1,
      "note": 54,
      "start": 28.5284,
      "duration": 0.0065,
      "velocity": 106,
      "chip": "ym2612"
    },
    {
      "channel": 2,
      "note": 66,
      "start": 28.5298,
      "duration": 0.0069,
      "velocity": 107,
      "chip": "ym2612"
    },
    {
      "channel": 3,
      "note": 71,
      "start": 28.5312,
      "duration": 0.0028,
      "velocity": 112,
      "chip": "ym2612"
    },
    {
      "channel": 0,
      "note": 74,
      "start": 28.5348,
      "duration": 0.0558,
      "velocity": 112,
      "chip": "ym2612"
    },
    {
      "channel": 3,
      "note": 71,
      "start": 28.5352,
      "duration": 0.0563,
      "velocity": 112,
      "chip": "ym2612"
    },
    {
      "channel": 0,
      "note": 76,
      "start": 28.5908,
      "duration": 0.0037,
      "velocity": 112,
      "chip": "ym2612"
    },
    {
      "channel": 1,
      "note": 49,
      "start": 28.5911,
      "duration": 0.0048,
      "velocity": 106,
      "chip": "ym2612"
    },
    {
      "channel": 2,
      "note": 61,
      "start": 28.5915,
      "duration": 0.0046,
      "velocity": 107,
      "chip": "ym2612"
    },
    {
      "channel": 3,
      "note": 73,
      "start": 28.5919,
      "duration": 0.0029,
      "velocity": 112,
      "chip": "ym2612"
    },
    {
      "channel": 0,
      "note": 78,
      "start": 28.5958,
      "duration": 0.0229,
      "velocity": 112,
      "chip": "ym2612"
    },
    {
      "channel": 3,
      "note": 74,
      "start": 28.5964,
      "duration": 0.0227,
      "velocity": 112,
      "chip": "ym2612"
    },
    {
      "channel": 0,
      "note": 76,
      "start": 28.6691,
      "duration": 0.1166,
      "velocity": 112,
      "chip": "ym2612"
    },
    {
      "channel": 3,
      "note": 73,
      "start": 28.6695,
      "duration": 0.1171,
      "velocity": 112,
      "chip": "ym2612"
    },
    {
      "channel": 4,
      "note": 74,
      "start": 28.671,
      "duration": 0.0814,
      "velocity": 112,
      "chip": "ym2612"
    },
    {
      "channel": 0,
      "note": 78,
      "start": 28.7859,
      "duration": 0.0042,
      "velocity": 112,
      "chip": "ym2612"
    },
    {
      "channel": 1,
      "note": 52,
      "start": 28.7862,
      "duration": 0.0051,
      "velocity": 106,
      "chip": "ym2612"
    },
    {
      "channel": 2,
      "note": 64,
      "start": 28.7866,
      "duration": 0.0049,
      "velocity": 107,
      "chip": "ym2612"
    },
    {
      "channel": 3,
      "note": 74,
      "start": 28.7869,
      "duration": 0.0034,
      "velocity": 112,
      "chip": "ym2612"
    },
    {
      "channel": 4,
      "note": 74,
      "start": 28.7873,
      "duration": 0.0044,
      "velocity": 112,
      "chip": "ym2612"
    },
    {
      "channel": 0,
      "note": 80,
      "start": 28.7913,
      "duration": 0.0237,
      "velocity": 112,
      "chip": "ym2612"
    },
    {
      "channel": 3,
      "note": 76,
      "start": 28.7916,
      "duration": 0.0237,
      "velocity": 112,
      "chip": "ym2612"
    },
    {
      "channel": 4,
      "note": 76,
      "start": 28.7919,
      "duration": 0.0236,
      "velocity": 112,
      "chip": "ym2612"
    },
    {
      "channel": 0,
      "note": 81,
      "start": 28.8486,
      "duration": 0.0831,
      "velocity": 112,
      "chip": "ym2612"
    },
    {
      "channel": 3,
      "note": 78,
      "start": 28.849,
      "duration": 0.083,
      "velocity": 112,
      "chip": "ym2612"
    },
    {
      "channel": 4,
      "note": 78,
      "start": 28.8493,
      "duration": 0.0828,
      "velocity": 112,
      "chip": "ym2612"
    },
    {
      "channel": 0,
      "note": 74,
      "start": 28.9822,
      "duration": 0.0033,
      "velocity": 112,
      "chip": "ym2612"
    },
    {
      "channel": 1,
      "note": 47,
      "start": 28.9825,
      "duration": 0.0047,
      "velocity": 106,
      "chip": "ym2612"
    },
    {
      "channel": 2,
      "note": 59,
      "start": 28.9829,
      "duration": 0.0045,
      "velocity": 107,
      "chip": "ym2612"
    },
    {
      "channel": 3,
      "note": 71,
      "start": 28.9832,
      "duration": 0.0025,
      "velocity": 112,
      "chip": "ym2612"
    },
    {
      "channel": 4,
      "note": 76,
      "start": 28.9836,
      "duration": 0.0042,
      "velocity": 112,
      "chip": "ym2612"
    },
    {
      "channel": 0,
      "note": 74,
      "start": 28.9871,
      "duration": 0.0576,
      "velocity": 112,
      "chip": "ym2612"
    },
    {
      "channel": 3,
      "note": 71,
      "start": 28.9877,
      "duration": 0.0574,
      "velocity": 112,
      "chip": "ym2612"
    },
    {
      "channel": 4,
      "note": 78,
      "start": 28.988,
      "duration": 0.0238,
      "velocity": 112,
      "chip": "ym2612"
    },
    {
      "channel": 0,
      "note": 76,
      "start": 29.045,
      "duration": 0.0831,
      "velocity": 112,
      "chip": "ym2612"
    },
    {
      "channel": 3,
      "note": 73,
      "start": 29.0454,
      "duration": 0.083,
      "velocity": 112,
      "chip": "ym2612"
    },
    {
      "channel": 4,
      "note": 80,
      "start": 29.0457,
      "duration": 0.0828,
      "velocity": 112,
      "chip": "ym2612"
    },
    {
      "channel": 0,
      "note": 78,
      "start": 29.1617,
      "duration": 0.0831,
      "velocity": 112,
      "chip": "ym2612"
    },
    {
      "channel": 3,
      "note": 74,
      "start": 29.162,
      "duration": 0.083,
      "velocity": 112,
      "chip": "ym2612"
    },
    {
      "channel": 4,
      "note": 81,
      "start": 29.1624,
      "duration": 0.0828,
      "velocity": 112,
      "chip": "ym2612"
    },
    {
      "channel": 0,
      "note": 76,
      "start": 29.2786,
      "duration": 0.0036,
      "velocity": 112,
      "chip": "ym2612"
    },
    {
      "channel": 3,
      "note": 73,
      "start": 29.279,
      "duration": 0.0035,
      "velocity": 112,
      "chip": "ym2612"
    },
    {
      "channel": 4,
      "note": 74,
      "start": 29.2794,
      "duration": 0.0023,
      "velocity": 112,
      "chip": "ym2612"
    },
    {
      "channel": 0,
      "note": 78,
      "start": 29.2824,
      "duration": 0.0021,
      "velocity": 112,
      "chip": "ym2612"
    },
    {
      "channel": 3,
      "note": 74,
      "start": 29.2826,
      "duration": 0.002,
      "velocity": 112,
      "chip": "ym2612"
    },
    {
      "channel": 4,
      "note": 74,
      "start": 29.2829,
      "duration": 0.003,
      "velocity": 112,
      "chip": "ym2612"
    },
    {
      "channel": 0,
      "note": 80,
      "start": 29.2856,
      "duration": 0.0028,
      "velocity": 112,
      "chip": "ym2612"
    },
    {
      "channel": 3,
      "note": 76,
      "start": 29.2858,
      "duration": 0.0027,
      "velocity": 112,
      "chip": "ym2612"
    },
    {
      "channel": 4,
      "note": 76,
      "start": 29.2861,
      "duration": 0.0025,
      "velocity": 112,
      "chip": "ym2612"
    },
    {
      "channel": 0,
      "note": 81,
      "start": 29.2891,
      "duration": 0.0025,
      "velocity": 112,
      "chip": "ym2612"
    },
    {
      "channel": 3,
      "note": 78,
      "start": 29.2894,
      "duration": 0.0024,
      "velocity": 112,
      "chip": "ym2612"
    },
    {
      "channel": 4,
      "note": 78,
      "start": 29.2896,
      "duration": 0.0021,
      "velocity": 112,
      "chip": "ym2612"
    },
    {
      "channel": 0,
      "note": 74,
      "start": 29.2923,
      "duration": 0.0659,
      "velocity": 112,
      "chip": "ym2612"
    },
    {
      "channel": 1,
      "note": 55,
      "start": 29.2925,
      "duration": 0.3496,
      "velocity": 106,
      "chip": "ym2612"
    },
    {
      "channel": 3,
      "note": 71,
      "start": 29.2929,
      "duration": 0.0656,
      "velocity": 112,
      "chip": "ym2612"
    },
    {
      "channel": 4,
      "note": 76,
      "start": 29.2932,
      "duration": 0.099,
      "velocity": 112,
      "chip": "ym2612"
    },
    {
      "channel": 0,
      "note": 74,
      "start": 29.3918,
      "duration": 0.1332,
      "velocity": 112,
      "chip": "ym2612"
    },
    {
      "channel": 3,
      "note": 71,
      "start": 29.3922,
      "duration": 0.1333,
      "velocity": 112,
      "chip": "ym2612"
    },
    {
      "channel": 4,
      "note": 78,
      "start": 29.3925,
      "duration": 0.0827,
      "velocity": 112,
      "chip": "ym2612"
    },
    {
      "channel": 0,
      "note": 76,
      "start": 29.5252,
      "duration": 0.0663,
      "velocity": 112,
      "chip": "ym2612"
    },
    {
      "channel": 3,
      "note": 73,
      "start": 29.5257,
      "duration": 0.0662,
      "velocity": 112,
      "chip": "ym2612"
    },
    {
      "channel": 4,
      "note": 80,
      "start": 29.5259,
      "duration": 0.066,
      "velocity": 112,
      "chip": "ym2612"
    },
    {
      "channel": 0,
      "note": 78,
      "start": 29.642,
      "duration": 0.0028,
      "velocity": 112,
      "chip": "ym2612"
    },
    {
      "channel": 1,
      "note": 52,
      "start": 29.6423,
      "duration": 0.0644,
      "velocity": 106,
      "chip": "ym2612"
    },
    {
      "channel": 3,
      "note": 74,
      "start": 29.6427,
      "duration": 0.0023,
      "velocity": 112,
      "chip": "ym2612"
    },
    {
      "channel": 4,
      "note": 81,
      "start": 29.643,
      "duration": 0.0021,
      "velocity": 112,
      "chip": "ym2612"
    },
    {
      "channel": 0,
      "note": 74,
      "start": 29.646,
      "duration": 0.0028,
      "velocity": 112,
      "chip": "ym2612"
    },
    {
      "channel": 3,
      "note": 71,
      "start": 29.6464,
      "duration": 0.0024,
      "velocity": 112,
      "chip": "ym2612"
    },
    {
      "channel": 4,
      "note": 74,
      "start": 29.6468,
      "duration": 0.0021,
      "velocity": 112,
      "chip": "ym2612"
    },
    {
      "channel": 0,
      "note": 74,
      "start": 29.6494,
      "duration": 0.057,
      "velocity": 112,
      "chip": "ym2612"
    },
    {
      "channel": 3,
      "note": 71,
      "start": 29.6497,
      "duration": 0.0573,
      "velocity": 112,
      "chip": "ym2612"
    },
    {
      "channel": 4,
      "note": 74,
      "start": 29.6499,
      "duration": 0.0575,
      "velocity": 112,
      "chip": "ym2612"
    },
    {
      "channel": 0,
      "note": 76,
      "start": 29.7066,
      "duration": 0.0032,
      "velocity": 112,
      "chip": "ym2612"
    },
    {
      "channel": 1,
      "note": 53,
      "start": 29.7069,
      "duration": 0.0082,
      "velocity": 106,
      "chip": "ym2612"
    },
    {
      "channel": 3,
      "note": 73,
      "start": 29.7073,
      "duration": 0.0026,
      "velocity": 112,
      "chip": "ym2612"
    },
    {
      "channel": 4,
      "note": 76,
      "start": 29.7077,
      "duration": 0.0022,
      "velocity": 112,
      "chip": "ym2612"
    },
    {
      "channel": 0,
      "note": 78,
      "start": 29.7109,
      "duration": 0.0027,
      "velocity": 112,
      "chip": "ym2612"
    },
    {
      "channel": 3,
      "note": 74,
      "start": 29.7113,
      "duration": 0.0023,
      "velocity": 112,
      "chip": "ym2612"
    },
    {
      "channel": 4,
      "note": 78,
      "start": 29.7117,
      "duration": 0.0022,
      "velocity": 112,
      "chip": "ym2612"
    },
    {
      "channel": 0,
      "note": 76,
      "start": 29.715,
      "duration": 0.0049,
      "velocity": 112,
      "chip": "ym2612"
    },
    {
      "channel": 1,
      "note": 54,
      "start": 29.7154,
      "duration": 0.0049,
      "velocity": 106,
      "chip": "ym2612"
    },
    {
      "channel": 2,
      "note": 66,
      "start": 29.7157,
      "duration": 0.0046,
      "velocity": 107,
      "chip": "ym2612"
    },
    {
      "channel": 3,
      "note": 73,
      "start": 29.7161,
      "duration": 0.0044,
      "velocity": 112,
      "chip": "ym2612"
    },
    {
      "channel": 4,
      "note": 74,
      "start": 29.7164,
      "duration": 0.0031,
      "velocity": 112,
      "chip": "ym2612"
    },
    {
      "channel": 0,
      "note": 78,
      "start": 29.7201,
      "duration": 0.0232,
      "velocity": 112,
      "chip": "ym2612"
    },
    {
      "channel": 3,
      "note": 74,
      "start": 29.7207,
      "duration": 0.023,
      "velocity": 112,
      "chip": "ym2612"
    },
    {
      "channel": 4,
      "note": 74,
      "start": 29.7209,
      "duration": 0.0574,
      "velocity": 112,
      "chip": "ym2612"
    },
    {
      "channel": 0,
      "note": 80,
      "start": 29.7772,
      "duration": 0.0043,
      "velocity": 112,
      "chip": "ym2612"
    },
    {
      "channel": 1,
      "note": 49,
      "start": 29.7775,
      "duration": 0.0051,
      "velocity": 106,
      "chip": "ym2612"
    },
    {
      "channel": 2,
      "note": 61,
      "start": 29.7778,
      "duration": 0.0048,
      "velocity": 107,
      "chip": "ym2612"
    },
    {
      "channel": 3,
      "note": 76,
      "start": 29.7782,
      "duration": 0.0035,
      "velocity": 112,
      "chip": "ym2612"
    },
    {
      "channel": 4,
      "note": 76,
      "start": 29.7785,
      "duration": 0.0033,
      "velocity": 112,
      "chip": "ym2612"
    },
    {
      "channel": 0,
      "note": 81,
      "start": 29.7825,
      "duration": 0.0241,
      "velocity": 112,
      "chip": "ym2612"
    },
    {
      "channel": 3,
      "note": 78,
      "start": 29.7829,
      "duration": 0.024,
      "velocity": 112,
      "chip": "ym2612"
    },
    {
      "channel": 4,
      "note": 78,
      "start": 29.7832,
      "duration": 0.0238,
      "velocity": 112,
      "chip": "ym2612"
    },
    {
      "channel": 0,
      "note": 83,
      "start": 29.8568,
      "duration": 0.1452,
      "velocity": 112,
      "chip": "ym2612"
    },
    {
      "channel": 3,
      "note": 80,
      "start": 29.8573,
      "duration": 0.1451,
      "velocity": 112,
      "chip": "ym2612"
    },
    {
      "channel": 4,
      "note": 76,
      "start": 29.8577,
      "duration": 0.1166,
      "velocity": 112,
      "chip": "ym2612"
    },
    {
      "channel": 1,
      "note": 52,
      "start": 29.9737,
      "duration": 0.0047,
      "velocity": 106,
      "chip": "ym2612"
    },
    {
      "channel": 2,
      "note": 64,
      "start": 29.9741,
      "duration": 0.0044,
      "velocity": 107,
      "chip": "ym2612"
    },
    {
      "channel": 4,
      "note": 78,
      "start": 29.9745,
      "duration": 0.003,
      "velocity": 112,
      "chip": "ym2612"
    },
    {
      "channel": 4,
      "note": 80,
      "start": 29.9788,
      "duration": 0.0239,
      "velocity": 112,
      "chip": "ym2612"
    },
    {
      "channel": 0,
      "note": 81,
      "start": 30.0023,
      "duration": 0.0831,
      "velocity": 112,
      "chip": "ym2612"
    },
    {
      "channel": 3,
      "note": 78,
      "start": 30.0027,
      "duration": 0.0831,
      "velocity": 112,
      "chip": "ym2612"
    },
    {
      "channel": 4,
      "note": 81,
      "start": 30.0359,
      "duration": 0.0831,
      "velocity": 112,
      "chip": "ym2612"
    },
    {
      "channel": 0,
      "note": 80,
      "start": 30.0856,
      "duration": 0.0667,
      "velocity": 112,
      "chip": "ym2612"
    },
    {
      "channel": 3,
      "note": 76,
      "start": 30.086,
      "duration": 0.0674,
      "velocity": 112,
      "chip": "ym2612"
    },
    {
      "channel": 0,
      "note": 81,
      "start": 30.1525,
      "duration": 0.3273,
      "velocity": 112,
      "chip": "ym2612"
    },
    {
      "channel": 1,
      "note": 47,
      "start": 30.1528,
      "duration": 0.0054,
      "velocity": 106,
      "chip": "ym2612"
    },
    {
      "channel": 2,
      "note": 59,
      "start": 30.1532,
      "duration": 0.0051,
      "velocity": 107,
      "chip": "ym2612"
    },
    {
      "channel": 3,
      "note": 78,
      "start": 30.1536,
      "duration": 0.3306,
      "velocity": 112,
      "chip": "ym2612"
    },
    {
      "channel": 4,
      "note": 83,
      "start": 30.1539,
      "duration": 0.1606,
      "velocity": 112,
      "chip": "ym2612"
    },
    {
      "channel": 4,
      "note": 81,
      "start": 30.3148,
      "duration": 0.0664,
      "velocity": 112,
      "chip": "ym2612"
    },
    {
      "channel": 4,
      "note": 80,
      "start": 30.3814,
      "duration": 0.0833,
      "velocity": 112,
      "chip": "ym2612"
    },
    {
      "channel": 4,
      "note": 81,
      "start": 30.4649,
      "duration": 0.156,
      "velocity": 112,
      "chip": "ym2612"
    },
    {
      "channel": 1,
      "note": 54,
      "start": 30.4812,
      "duration": 0.0057,
      "velocity": 106,
      "chip": "ym2612"
    },
    {
      "channel": 2,
      "note": 66,
      "start": 30.4826,
      "duration": 0.0044,
      "velocity": 107,
      "chip": "ym2612"
    },
    {
      "channel": 1,
      "note": 49,
      "start": 30.5424,
      "duration": 0.0036,
      "velocity": 106,
      "chip": "ym2612"
    },
    {
      "channel": 2,
      "note": 61,
      "start": 30.5428,
      "duration": 0.0034,
      "velocity": 107,
      "chip": "ym2612"
    },
    {
      "channel": 1,
      "note": 52,
      "start": 30.7361,
      "duration": 0.0018,
      "velocity": 106,
      "chip": "ym2612"
    },
    {
      "channel": 2,
      "note": 64,
      "start": 30.7364,
      "duration": 0.0016,
      "velocity": 107,
      "chip": "ym2612"
    },
    {
      "channel": 0,
      "note": 74,
      "start": 30.9282,
      "duration": 0.0027,
      "velocity": 112,
      "chip": "ym2612"
    },
    {
      "channel": 1,
      "note": 47,
      "start": 30.9284,
      "duration": 0.0036,
      "velocity": 106,
      "chip": "ym2612"
    },
    {
      "channel": 2,
      "note": 59,
      "start": 30.9288,
      "duration": 0.0034,
      "velocity": 107,
      "chip": "ym2612"
    },
    {
      "channel": 3,
      "note": 71,
      "start": 30.9293,
      "duration": 0.0017,
      "velocity": 112,
      "chip": "ym2612"
    },
    {
      "channel": 0,
      "note": 74,
      "start": 30.9319,
      "duration": 0.0568,
      "velocity": 112,
      "chip": "ym2612"
    },
    {
      "channel": 3,
      "note": 71,
      "start": 30.9324,
      "duration": 0.0567,
      "velocity": 112,
      "chip": "ym2612"
    },
    {
      "channel": 0,
      "note": 76,
      "start": 30.989,
      "duration": 0.0831,
      "velocity": 112,
      "chip": "ym2612"
    },
    {
      "channel": 3,
      "note": 73,
      "start": 30.9894,
      "duration": 0.083,
      "velocity": 112,
      "chip": "ym2612"
    },
    {
      "channel": 0,
      "note": 78,
      "start": 31.1057,
      "duration": 0.0831,
      "velocity": 112,
      "chip": "ym2612"
    },
    {
      "channel": 3,
      "note": 74,
      "start": 31.1061,
      "duration": 0.083,
      "velocity": 112,
      "chip": "ym2612"
    },
    {
      "channel": 0,
      "note": 76,
      "start": 31.2226,
      "duration": 26.8453,
      "velocity": 112,
      "chip": "ym2612"
    },
    {
      "channel": 3,
      "note": 73,
      "start": 31.223,
      "duration": 26.8449,
      "velocity": 112,
      "chip": "ym2612"
    },
    {
      "channel": 4,
      "note": 74,
      "start": 31.2234,
      "duration": 26.8445,
      "velocity": 112,
      "chip": "ym2612"
    }
  ]
}