{
  "track_name": "28 - Wanderers From Ys",
  "duration_sec": 484.923,
  "sample_rate": 44100,
  "note_count": 7617,
  "unique_pitches": 54,
  "pitch_range": 72,
  "avg_note_duration": 0.0702,
  "reconstruction_stats": {
    "notes_reconstructed": 7617,
    "keyon_events": 7617,
    "keyoff_events": 7513,
    "orphan_keyons": 0,
    "unique_pitches": 54,
    "pitch_range": 72,
    "avg_duration_sec": 0.0702
  },
  "metadata": {
    "source": "Y\\Ys III - Wanderers From Ys (MD)\\28 - Wanderers From Ys.vgz"
  },
  "notes": [
    {
      "channel": 0,
      "note": 52,
      "start": 0.259,
      "duration": 0.1171,
      "velocity": 97,
      "chip": "ym2612"
    },
    {
      "channel": 1,
      "note": 47,
      "start": 0.2628,
      "duration": 0.1136,
      "velocity": 97,
      "chip": "ym2612"
    },
    {
      "channel": 2,
      "note": 42,
      "start": 0.2667,
      "duration": 3.8148,
      "velocity": 97,
      "chip": "ym2612"
    },
    {
      "channel": 3,
      "note": 76,
      "start": 0.2722,
      "duration": 0.1048,
      "velocity": 99,
      "chip": "ym2612"
    },
    {
      "channel": 4,
      "note": 73,
      "start": 0.3308,
      "duration": 0.1143,
      "velocity": 99,
      "chip": "ym2612"
    },
    {
      "channel": 0,
      "note": 54,
      "start": 0.3932,
      "duration": 0.1196,
      "velocity": 97,
      "chip": "ym2612"
    },
    {
      "channel": 1,
      "note": 49,
      "start": 0.3937,
      "duration": 0.1193,
      "velocity": 97,
      "chip": "ym2612"
    },
    {
      "channel": 3,
      "note": 64,
      "start": 0.3945,
      "duration": 0.119,
      "velocity": 99,
      "chip": "ym2612"
    },
    {
      "channel": 4,
      "note": 64,
      "start": 0.4626,
      "duration": 0.1199,
      "velocity": 99,
      "chip": "ym2612"
    },
    {
      "channel": 0,
      "note": 61,
      "start": 0.5302,
      "duration": 0.1198,
      "velocity": 97,
      "chip": "ym2612"
    },
    {
      "channel": 1,
      "note": 54,
      "start": 0.5307,
      "duration": 0.1196,
      "velocity": 97,
      "chip": "ym2612"
    },
    {
      "channel": 3,
      "note": 66,
      "start": 0.5315,
      "duration": 0.1193,
      "velocity": 99,
      "chip": "ym2612"
    },
    {
      "channel": 4,
      "note": 66,
      "start": 0.5998,
      "duration": 0.1199,
      "velocity": 99,
      "chip": "ym2612"
    },
    {
      "channel": 0,
      "note": 59,
      "start": 0.8046,
      "duration": 0.8061,
      "velocity": 97,
      "chip": "ym2612"
    },
    {
      "channel": 1,
      "note": 52,
      "start": 0.8051,
      "duration": 0.8059,
      "velocity": 97,
      "chip": "ym2612"
    },
    {
      "channel": 3,
      "note": 73,
      "start": 0.806,
      "duration": 0.1193,
      "velocity": 99,
      "chip": "ym2612"
    },
    {
      "channel": 4,
      "note": 73,
      "start": 0.8743,
      "duration": 0.1199,
      "velocity": 99,
      "chip": "ym2612"
    },
    {
      "channel": 3,
      "note": 71,
      "start": 0.9432,
      "duration": 0.1193,
      "velocity": 99,
      "chip": "ym2612"
    },
    {
      "channel": 4,
      "note": 71,
      "start": 1.0115,
      "duration": 0.1198,
      "velocity": 99,
      "chip": "ym2612"
    },
    {
      "channel": 3,
      "note": 73,
      "start": 1.0799,
      "duration": 0.1199,
      "velocity": 99,
      "chip": "ym2612"
    },
    {
      "channel": 4,
      "note": 73,
      "start": 1.1487,
      "duration": 0.1199,
      "velocity": 99,
      "chip": "ym2612"
    },
    {
      "channel": 3,
      "note": 76,
      "start": 1.2172,
      "duration": 0.1199,
      "velocity": 99,
      "chip": "ym2612"
    },
    {
      "channel": 4,
      "note": 76,
      "start": 1.2861,
      "duration": 0.1199,
      "velocity": 99,
      "chip": "ym2612"
    },
    {
      "channel": 3,
      "note": 80,
      "start": 1.3544,
      "duration": 0.2572,
      "velocity": 99,
      "chip": "ym2612"
    },
    {
      "channel": 4,
      "note": 80,
      "start": 1.4233,
      "duration": 0.2571,
      "velocity": 99,
      "chip": "ym2612"
    },
    {
      "channel": 0,
      "note": 64,
      "start": 1.628,
      "duration": 0.5318,
      "velocity": 97,
      "chip": "ym2612"
    },
    {
      "channel": 1,
      "note": 59,
      "start": 1.6285,
      "duration": 0.5317,
      "velocity": 97,
      "chip": "ym2612"
    },
    {
      "channel": 3,
      "note": 83,
      "start": 1.6294,
      "duration": 0.2565,
      "velocity": 99,
      "chip": "ym2612"
    },
    {
      "channel": 4,
      "note": 83,
      "start": 1.6977,
      "duration": 0.2571,
      "velocity": 99,
      "chip": "ym2612"
    },
    {
      "channel": 3,
      "note": 80,
      "start": 1.9033,
      "duration": 0.2574,
      "velocity": 99,
      "chip": "ym2612"
    },
    {
      "channel": 4,
      "note": 80,
      "start": 1.9721,
      "duration": 0.2571,
      "velocity": 99,
      "chip": "ym2612"
    },
    {
      "channel": 0,
      "note": 68,
      "start": 2.177,
      "duration": 0.2571,
      "velocity": 97,
      "chip": "ym2612"
    },
    {
      "channel": 1,
      "note": 64,
      "start": 2.1775,
      "duration": 0.2569,
      "velocity": 97,
      "chip": "ym2612"
    },
    {
      "channel": 3,
      "note": 76,
      "start": 2.1783,
      "duration": 0.2566,
      "velocity": 99,
      "chip": "ym2612"
    },
    {
      "channel": 4,
      "note": 76,
      "start": 2.2466,
      "duration": 0.2572,
      "velocity": 99,
      "chip": "ym2612"
    },
    {
      "channel": 0,
      "note": 66,
      "start": 2.4515,
      "duration": 1.6295,
      "velocity": 97,
      "chip": "ym2612"
    },
    {
      "channel": 1,
      "note": 61,
      "start": 2.4519,
      "duration": 1.6293,
      "velocity": 97,
      "chip": "ym2612"
    },
    {
      "channel": 3,
      "note": 71,
      "start": 2.4529,
      "duration": 0.0505,
      "velocity": 99,
      "chip": "ym2612"
    },
    {
      "channel": 3,
      "note": 73,
      "start": 2.5208,
      "duration": 0.0513,
      "velocity": 99,
      "chip": "ym2612"
    },
    {
      "channel": 4,
      "note": 71,
      "start": 2.5216,
      "duration": 0.0507,
      "velocity": 99,
      "chip": "ym2612"
    },
    {
      "channel": 3,
      "note": 74,
      "start": 2.5896,
      "duration": 0.0511,
      "velocity": 99,
      "chip": "ym2612"
    },
    {
      "channel": 4,
      "note": 85,
      "start": 2.5902,
      "duration": 0.0508,
      "velocity": 99,
      "chip": "ym2612"
    },
    {
      "channel": 3,
      "note": 73,
      "start": 2.6581,
      "duration": 0.0519,
      "velocity": 99,
      "chip": "ym2612"
    },
    {
      "channel": 4,
      "note": 86,
      "start": 2.6592,
      "duration": 0.0511,
      "velocity": 99,
      "chip": "ym2612"
    },
    {
      "channel": 3,
      "note": 74,
      "start": 2.7273,
      "duration": 0.0505,
      "velocity": 99,
      "chip": "ym2612"
    },
    {
      "channel": 4,
      "note": 85,
      "start": 2.728,
      "duration": 0.0502,
      "velocity": 99,
      "chip": "ym2612"
    },
    {
      "channel": 3,
      "note": 73,
      "start": 2.7953,
      "duration": 0.0513,
      "velocity": 99,
      "chip": "ym2612"
    },
    {
      "channel": 4,
      "note": 86,
      "start": 2.7961,
      "duration": 0.0508,
      "velocity": 99,
      "chip": "ym2612"
    },
    {
      "channel": 3,
      "note": 74,
      "start": 2.8641,
      "duration": 0.0511,
      "velocity": 99,
      "chip": "ym2612"
    },
    {
      "channel": 4,
      "note": 85,
      "start": 2.8648,
      "duration": 0.0508,
      "velocity": 99,
      "chip": "ym2612"
    },
    {
      "channel": 3,
      "note": 73,
      "start": 2.9326,
      "duration": 0.0512,
      "velocity": 99,
      "chip": "ym2612"
    },
    {
      "channel": 4,
      "note": 86,
      "start": 2.9334,
      "duration": 0.0508,
      "velocity": 99,
      "chip": "ym2612"
    },
    {
      "channel": 3,
      "note": 74,
      "start": 3.0014,
      "duration": 0.0511,
      "velocity": 99,
      "chip": "ym2612"
    },
    {
      "channel": 4,
      "note": 85,
      "start": 3.002,
      "duration": 0.0508,
      "velocity": 99,
      "chip": "ym2612"
    },
    {
      "channel": 3,
      "note": 73,
      "start": 3.0698,
      "duration": 0.0512,
      "velocity": 99,
      "chip": "ym2612"
    },
    {
      "channel": 4,
      "note": 86,
      "start": 3.0706,
      "duration": 0.0508,
      "velocity": 99,
      "chip": "ym2612"
    },
    {
      "channel": 3,
      "note": 74,
      "start": 3.1386,
      "duration": 0.0512,
      "velocity": 99,
      "chip": "ym2612"
    },
    {
      "channel": 4,
      "note": 85,
      "start": 3.1393,
      "duration": 0.0509,
      "velocity": 99,
      "chip": "ym2612"
    },
    {
      "channel": 3,
      "note": 73,
      "start": 3.2071,
      "duration": 0.0513,
      "velocity": 99,
      "chip": "ym2612"
    },
    {
      "channel": 4,
      "note": 86,
      "start": 3.2079,
      "duration": 0.0507,
      "velocity": 99,
      "chip": "ym2612"
    },
    {
      "channel": 3,
      "note": 74,
      "start": 3.2765,
      "duration": 0.0507,
      "velocity": 99,
      "chip": "ym2612"
    },
    {
      "channel": 4,
      "note": 85,
      "start": 3.2771,
      "duration": 0.0504,
      "velocity": 99,
      "chip": "ym2612"
    },
    {
      "channel": 3,
      "note": 73,
      "start": 3.3443,
      "duration": 0.0513,
      "velocity": 99,
      "chip": "ym2612"
    },
    {
      "channel": 4,
      "note": 86,
      "start": 3.3451,
      "duration": 0.0508,
      "velocity": 99,
      "chip": "ym2612"
    },
    {
      "channel": 3,
      "note": 74,
      "start": 3.413,
      "duration": 0.0511,
      "velocity": 99,
      "chip": "ym2612"
    },
    {
      "channel": 4,
      "note": 85,
      "start": 3.4137,
      "duration": 0.0508,
      "velocity": 99,
      "chip": "ym2612"
    },
    {
      "channel": 3,
      "note": 73,
      "start": 3.4815,
      "duration": 0.0513,
      "velocity": 99,
      "chip": "ym2612"
    },
    {
      "channel": 4,
      "note": 86,
      "start": 3.4823,
      "duration": 0.0509,
      "velocity": 99,
      "chip": "ym2612"
    },
    {
      "channel": 3,
      "note": 74,
      "start": 3.5503,
      "duration": 0.0511,
      "velocity": 99,
      "chip": "ym2612"
    },
    {
      "channel": 4,
      "note": 85,
      "start": 3.551,
      "duration": 0.0507,
      "velocity": 99,
      "chip": "ym2612"
    },
    {
      "channel": 3,
      "note": 73,
      "start": 3.6188,
      "duration": 0.0512,
      "velocity": 99,
      "chip": "ym2612"
    },
    {
      "channel": 4,
      "note": 86,
      "start": 3.6196,
      "duration": 0.0508,
      "velocity": 99,
      "chip": "ym2612"
    },
    {
      "channel": 3,
      "note": 74,
      "start": 3.6875,
      "duration": 0.0511,
      "velocity": 99,
      "chip": "ym2612"
    },
    {
      "channel": 4,
      "note": 85,
      "start": 3.6882,
      "duration": 0.0509,
      "velocity": 99,
      "chip": "ym2612"
    },
    {
      "channel": 3,
      "note": 73,
      "start": 3.756,
      "duration": 0.0512,
      "velocity": 99,
      "chip": "ym2612"
    },
    {
      "channel": 4,
      "note": 86,
      "start": 3.7568,
      "duration": 0.0508,
      "velocity": 99,
      "chip": "ym2612"
    },
    {
      "channel": 3,
      "note": 74,
      "start": 3.8248,
      "duration": 0.0517,
      "velocity": 99,
      "chip": "ym2612"
    },
    {
      "channel": 4,
      "note": 85,
      "start": 3.8258,
      "duration": 0.0511,
      "velocity": 99,
      "chip": "ym2612"
    },
    {
      "channel": 3,
      "note": 73,
      "start": 3.8939,
      "duration": 0.0506,
      "velocity": 99,
      "chip": "ym2612"
    },
    {
      "channel": 4,
      "note": 86,
      "start": 3.8947,
      "duration": 0.0501,
      "velocity": 99,
      "chip": "ym2612"
    },
    {
      "channel": 3,
      "note": 74,
      "start": 3.962,
      "duration": 0.0512,
      "velocity": 99,
      "chip": "ym2612"
    },
    {
      "channel": 4,
      "note": 85,
      "start": 3.9627,
      "duration": 0.0508,
      "velocity": 99,
      "chip": "ym2612"
    },
    {
      "channel": 3,
      "note": 73,
      "start": 4.0305,
      "duration": 0.0514,
      "velocity": 99,
      "chip": "ym2612"
    },
    {
      "channel": 4,
      "note": 86,
      "start": 4.0313,
      "duration": 0.0509,
      "velocity": 99,
      "chip": "ym2612"
    },
    {
      "channel": 0,
      "note": 68,
      "start": 4.0983,
      "duration": 0.5315,
      "velocity": 97,
      "chip": "ym2612"
    },
    {
      "channel": 1,
      "note": 61,
      "start": 4.0987,
      "duration": 0.5314,
      "velocity": 97,
      "chip": "ym2612"
    },
    {
      "channel": 2,
      "note": 40,
      "start": 4.0992,
      "duration": 0.5312,
      "velocity": 97,
      "chip": "ym2612"
    },
    {
      "channel": 3,
      "note": 74,
      "start": 4.1,
      "duration": 0.0502,
      "velocity": 99,
      "chip": "ym2612"
    },
    {
      "channel": 4,
      "note": 85,
      "start": 4.1006,
      "duration": 0.0499,
      "velocity": 99,
      "chip": "ym2612"
    },
    {
      "channel": 3,
      "note": 73,
      "start": 4.1676,
      "duration": 0.0513,
      "velocity": 99,
      "chip": "ym2612"
    },
    {
      "channel": 4,
      "note": 86,
      "start": 4.1684,
      "duration": 0.0508,
      "velocity": 99,
      "chip": "ym2612"
    },
    {
      "channel": 3,
      "note": 74,
      "start": 4.2364,
      "duration": 0.0511,
      "velocity": 99,
      "chip": "ym2612"
    },
    {
      "channel": 4,
      "note": 85,
      "start": 4.237,
      "duration": 0.0508,
      "velocity": 99,
      "chip": "ym2612"
    },
    {
      "channel": 3,
      "note": 73,
      "start": 4.3049,
      "duration": 0.0511,
      "velocity": 99,
      "chip": "ym2612"
    },
    {
      "channel": 4,
      "note": 86,
      "start": 4.3056,
      "duration": 0.0508,
      "velocity": 99,
      "chip": "ym2612"
    },
    {
      "channel": 3,
      "note": 74,
      "start": 4.3736,
      "duration": 0.1202,
      "velocity": 99,
      "chip": "ym2612"
    },
    {
      "channel": 4,
      "note": 85,
      "start": 4.3742,
      "duration": 0.0507,
      "velocity": 99,
      "chip": "ym2612"
    },
    {
      "channel": 4,
      "note": 86,
      "start": 4.4431,
      "duration": 0.1192,
      "velocity": 99,
      "chip": "ym2612"
    },
    {
      "channel": 3,
      "note": 76,
      "start": 4.5109,
      "duration": 0.1199,
      "velocity": 99,
      "chip": "ym2612"
    },
    {
      "channel": 4,
      "note": 76,
      "start": 4.5797,
      "duration": 0.1197,
      "velocity": 99,
      "chip": "ym2612"
    },
    {
      "channel": 0,
      "note": 69,
      "start": 4.6472,
      "duration": 1.9039,
      "velocity": 97,
      "chip": "ym2612"
    },
    {
      "channel": 1,
      "note": 66,
      "start": 4.6477,
      "duration": 1.9037,
      "velocity": 97,
      "chip": "ym2612"
    },
    {
      "channel": 2,
      "note": 38,
      "start": 4.6482,
      "duration": 2.1786,
      "velocity": 97,
      "chip": "ym2612"
    },
    {
      "channel": 3,
      "note": 78,
      "start": 4.6488,
      "duration": 0.119,
      "velocity": 99,
      "chip": "ym2612"
    },
    {
      "channel": 4,
      "note": 78,
      "start": 4.7168,
      "duration": 0.1198,
      "velocity": 99,
      "chip": "ym2612"
    },
    {
      "channel": 3,
      "note": 78,
      "start": 4.7852,
      "duration": 0.1198,
      "velocity": 99,
      "chip": "ym2612"
    },
    {
      "channel": 4,
      "note": 78,
      "start": 4.8541,
      "duration": 0.1199,
      "velocity": 99,
      "chip": "ym2612"
    },
    {
      "channel": 3,
      "note": 76,
      "start": 4.9224,
      "duration": 0.1205,
      "velocity": 99,
      "chip": "ym2612"
    },
    {
      "channel": 4,
      "note": 76,
      "start": 4.9913,
      "duration": 0.1199,
      "velocity": 99,
      "chip": "ym2612"
    },
    {
      "channel": 3,
      "note": 80,
      "start": 5.0603,
      "duration": 0.1193,
      "velocity": 99,
      "chip": "ym2612"
    },
    {
      "channel": 4,
      "note": 80,
      "start": 5.1287,
      "duration": 0.1198,
      "velocity": 99,
      "chip": "ym2612"
    },
    {
      "channel": 3,
      "note": 78,
      "start": 5.197,
      "duration": 0.1198,
      "velocity": 99,
      "chip": "ym2612"
    },
    {
      "channel": 4,
      "note": 78,
      "start": 5.2658,
      "duration": 0.1201,
      "velocity": 99,
      "chip": "ym2612"
    },
    {
      "channel": 3,
      "note": 81,
      "start": 5.3342,
      "duration": 0.1198,
      "velocity": 99,
      "chip": "ym2612"
    },
    {
      "channel": 4,
      "note": 81,
      "start": 5.4031,
      "duration": 0.1199,
      "velocity": 99,
      "chip": "ym2612"
    },
    {
      "channel": 3,
      "note": 80,
      "start": 5.4714,
      "duration": 0.1198,
      "velocity": 99,
      "chip": "ym2612"
    },
    {
      "channel": 4,
      "note": 80,
      "start": 5.5403,
      "duration": 0.1203,
      "velocity": 99,
      "chip": "ym2612"
    },
    {
      "channel": 3,
      "note": 83,
      "start": 5.6087,
      "duration": 0.12,
      "velocity": 99,
      "chip": "ym2612"
    },
    {
      "channel": 4,
      "note": 83,
      "start": 5.6777,
      "duration": 0.1197,
      "velocity": 99,
      "chip": "ym2612"
    },
    {
      "channel": 3,
      "note": 81,
      "start": 5.7459,
      "duration": 0.1199,
      "velocity": 99,
      "chip": "ym2612"
    },
    {
      "channel": 4,
      "note": 81,
      "start": 5.8148,
      "duration": 0.1199,
      "velocity": 99,
      "chip": "ym2612"
    },
    {
      "channel": 3,
      "note": 80,
      "start": 5.8831,
      "duration": 0.1199,
      "velocity": 99,
      "chip": "ym2612"
    },
    {
      "channel": 4,
      "note": 80,
      "start": 5.952,
      "duration": 0.12,
      "velocity": 99,
      "chip": "ym2612"
    },
    {
      "channel": 3,
      "note": 81,
      "start": 6.0204,
      "duration": 0.1198,
      "velocity": 99,
      "chip": "ym2612"
    },
    {
      "channel": 4,
      "note": 81,
      "start": 6.0893,
      "duration": 0.1204,
      "velocity": 99,
      "chip": "ym2612"
    },
    {
      "channel": 3,
      "note": 78,
      "start": 6.1576,
      "duration": 0.1199,
      "velocity": 99,
      "chip": "ym2612"
    },
    {
      "channel": 4,
      "note": 78,
      "start": 6.2272,
      "duration": 0.1192,
      "velocity": 99,
      "chip": "ym2612"
    },
    {
      "channel": 3,
      "note": 80,
      "start": 6.2949,
      "duration": 0.12,
      "velocity": 99,
      "chip": "ym2612"
    },
    {
      "channel": 4,
      "note": 80,
      "start": 6.3638,
      "duration": 0.1198,
      "velocity": 99,
      "chip": "ym2612"
    },
    {
      "channel": 3,
      "note": 76,
      "start": 6.4321,
      "duration": 0.3951,
      "velocity": 99,
      "chip": "ym2612"
    },
    {
      "channel": 4,
      "note": 76,
      "start": 6.501,
      "duration": 0.3942,
      "velocity": 99,
      "chip": "ym2612"
    },
    {
      "channel": 0,
      "note": 68,
      "start": 6.5684,
      "duration": 0.1199,
      "velocity": 97,
      "chip": "ym2612"
    },
    {
      "channel": 1,
      "note": 64,
      "start": 6.569,
      "duration": 0.1197,
      "velocity": 97,
      "chip": "ym2612"
    },
    {
      "channel": 0,
      "note": 69,
      "start": 6.7057,
      "duration": 0.1205,
      "velocity": 97,
      "chip": "ym2612"
    },
    {
      "channel": 1,
      "note": 66,
      "start": 6.7062,
      "duration": 0.1203,
      "velocity": 97,
      "chip": "ym2612"
    },
    {
      "channel": 0,
      "note": 71,
      "start": 6.8432,
      "duration": 2.1782,
      "velocity": 97,
      "chip": "ym2612"
    },
    {
      "channel": 1,
      "note": 68,
      "start": 6.8437,
      "duration": 2.178,
      "velocity": 97,
      "chip": "ym2612"
    },
    {
      "channel": 2,
      "note": 40,
      "start": 6.8442,
      "duration": 2.1778,
      "velocity": 97,
      "chip": "ym2612"
    },
    {
      "channel": 3,
      "note": 78,
      "start": 6.8449,
      "duration": 0.1187,
      "velocity": 99,
      "chip": "ym2612"
    },
    {
      "channel": 4,
      "note": 78,
      "start": 6.9126,
      "duration": 0.1199,
      "velocity": 99,
      "chip": "ym2612"
    },
    {
      "channel": 3,
      "note": 80,
      "start": 6.981,
      "duration": 0.1198,
      "velocity": 99,
      "chip": "ym2612"
    },
    {
      "channel": 4,
      "note": 80,
      "start": 7.0499,
      "duration": 0.1198,
      "velocity": 99,
      "chip": "ym2612"
    },
    {
      "channel": 3,
      "note": 71,
      "start": 7.1182,
      "duration": 0.1199,
      "velocity": 99,
      "chip": "ym2612"
    },
    {
      "channel": 4,
      "note": 71,
      "start": 7.1871,
      "duration": 0.12,
      "velocity": 99,
      "chip": "ym2612"
    },
    {
      "channel": 3,
      "note": 76,
      "start": 7.2555,
      "duration": 0.12,
      "velocity": 99,
      "chip": "ym2612"
    },
    {
      "channel": 4,
      "note": 76,
      "start": 7.3244,
      "duration": 0.1199,
      "velocity": 99,
      "chip": "ym2612"
    },
    {
      "channel": 3,
      "note": 78,
      "start": 7.3934,
      "duration": 0.1192,
      "velocity": 99,
      "chip": "ym2612"
    },
    {
      "channel": 4,
      "note": 78,
      "start": 7.4616,
      "duration": 0.12,
      "velocity": 99,
      "chip": "ym2612"
    },
    {
      "channel": 3,
      "note": 80,
      "start": 7.53,
      "duration": 0.1199,
      "velocity": 99,
      "chip": "ym2612"
    },
    {
      "channel": 4,
      "note": 80,
      "start": 7.5988,
      "duration": 0.1199,
      "velocity": 99,
      "chip": "ym2612"
    },
    {
      "channel": 3,
      "note": 78,
      "start": 7.6672,
      "duration": 0.1198,
      "velocity": 99,
      "chip": "ym2612"
    },
    {
      "channel": 4,
      "note": 78,
      "start": 7.7361,
      "duration": 0.1198,
      "velocity": 99,
      "chip": "ym2612"
    },
    {
      "channel": 3,
      "note": 80,
      "start": 7.8045,
      "duration": 0.12,
      "velocity": 99,
      "chip": "ym2612"
    },
    {
      "channel": 4,
      "note": 80,
      "start": 7.8734,
      "duration": 0.1204,
      "velocity": 99,
      "chip": "ym2612"
    },
    {
      "channel": 3,
      "note": 81,
      "start": 7.9417,
      "duration": 0.1199,
      "velocity": 99,
      "chip": "ym2612"
    },
    {
      "channel": 4,
      "note": 81,
      "start": 8.0109,
      "duration": 0.1195,
      "velocity": 99,
      "chip": "ym2612"
    },
    {
      "channel": 3,
      "note": 83,
      "start": 8.0789,
      "duration": 0.1198,
      "velocity": 99,
      "chip": "ym2612"
    },
    {
      "channel": 4,
      "note": 83,
      "start": 8.1478,
      "duration": 0.12,
      "velocity": 99,
      "chip": "ym2612"
    },
    {
      "channel": 3,
      "note": 71,
      "start": 8.2162,
      "duration": 0.1198,
      "velocity": 99,
      "chip": "ym2612"
    },
    {
      "channel": 4,
      "note": 71,
      "start": 8.2851,
      "duration": 0.1198,
      "velocity": 99,
      "chip": "ym2612"
    },
    {
      "channel": 3,
      "note": 76,
      "start": 8.3534,
      "duration": 0.1199,
      "velocity": 99,
      "chip": "ym2612"
    },
    {
      "channel": 4,
      "note": 76,
      "start": 8.4223,
      "duration": 0.1202,
      "velocity": 99,
      "chip": "ym2612"
    },
    {
      "channel": 3,
      "note": 80,
      "start": 8.4906,
      "duration": 0.12,
      "velocity": 99,
      "chip": "ym2612"
    },
    {
      "channel": 4,
      "note": 80,
      "start": 8.5602,
      "duration": 0.1192,
      "velocity": 99,
      "chip": "ym2612"
    },
    {
      "channel": 3,
      "note": 83,
      "start": 8.6279,
      "duration": 0.1198,
      "velocity": 99,
      "chip": "ym2612"
    },
    {
      "channel": 4,
      "note": 83,
      "start": 8.6968,
      "duration": 0.1198,
      "velocity": 99,
      "chip": "ym2612"
    },
    {
      "channel": 3,
      "note": 76,
      "start": 8.7651,
      "duration": 0.1198,
      "velocity": 99,
      "chip": "ym2612"
    },
    {
      "channel": 4,
      "note": 76,
      "start": 8.834,
      "duration": 0.12,
      "velocity": 99,
      "chip": "ym2612"
    },
    {
      "channel": 3,
      "note": 80,
      "start": 8.9024,
      "duration": 0.12,
      "velocity": 99,
      "chip": "ym2612"
    },
    {
      "channel": 4,
      "note": 80,
      "start": 8.9712,
      "duration": 0.1198,
      "velocity": 99,
      "chip": "ym2612"
    },
    {
      "channel": 0,
      "note": 73,
      "start": 9.0388,
      "duration": 4.3743,
      "velocity": 97,
      "chip": "ym2612"
    },
    {
      "channel": 1,
      "note": 70,
      "start": 9.0393,
      "duration": 2.1781,
      "velocity": 97,
      "chip": "ym2612"
    },
    {
      "channel": 2,
      "note": 54,
      "start": 9.0436,
      "duration": 0.116,
      "velocity": 91,
      "chip": "ym2612"
    },
    {
      "channel": 3,
      "note": 83,
      "start": 9.0444,
      "duration": 0.0463,
      "velocity": 99,
      "chip": "ym2612"
    },
    {
      "channel": 3,
      "note": 85,
      "start": 9.1081,
      "duration": 0.0519,
      "velocity": 99,
      "chip": "ym2612"
    },
    {
      "channel": 4,
      "note": 83,
      "start": 9.1095,
      "duration": 0.051,
      "velocity": 99,
      "chip": "ym2612"
    },
    {
      "channel": 3,
      "note": 86,
      "start": 9.1774,
      "duration": 0.0506,
      "velocity": 99,
      "chip": "ym2612"
    },
    {
      "channel": 4,
      "note": 97,
      "start": 9.178,
      "duration": 0.0502,
      "velocity": 99,
      "chip": "ym2612"
    },
    {
      "channel": 3,
      "note": 85,
      "start": 9.2453,
      "duration": 0.0513,
      "velocity": 99,
      "chip": "ym2612"
    },
    {
      "channel": 4,
      "note": 98,
      "start": 9.2461,
      "duration": 0.0508,
      "velocity": 99,
      "chip": "ym2612"
    },
    {
      "channel": 2,
      "note": 54,
      "start": 9.3136,
      "duration": 0.12,
      "velocity": 91,
      "chip": "ym2612"
    },
    {
      "channel": 3,
      "note": 86,
      "start": 9.3144,
      "duration": 0.0508,
      "velocity": 99,
      "chip": "ym2612"
    },
    {
      "channel": 4,
      "note": 97,
      "start": 9.315,
      "duration": 0.0505,
      "velocity": 99,
      "chip": "ym2612"
    },
    {
      "channel": 3,
      "note": 85,
      "start": 9.3826,
      "duration": 0.0513,
      "velocity": 99,
      "chip": "ym2612"
    },
    {
      "channel": 4,
      "note": 98,
      "start": 9.3834,
      "duration": 0.0509,
      "velocity": 99,
      "chip": "ym2612"
    },
    {
      "channel": 3,
      "note": 86,
      "start": 9.4515,
      "duration": 0.051,
      "velocity": 99,
      "chip": "ym2612"
    },
    {
      "channel": 4,
      "note": 97,
      "start": 9.4522,
      "duration": 0.0506,
      "velocity": 99,
      "chip": "ym2612"
    },
    {
      "channel": 3,
      "note": 85,
      "start": 9.5198,
      "duration": 0.0513,
      "velocity": 99,
      "chip": "ym2612"
    },
    {
      "channel": 4,
      "note": 98,
      "start": 9.5207,
      "duration": 0.0508,
      "velocity": 99,
      "chip": "ym2612"
    },
    {
      "channel": 2,
      "note": 54,
      "start": 9.5882,
      "duration": 0.1199,
      "velocity": 91,
      "chip": "ym2612"
    },
    {
      "channel": 3,
      "note": 86,
      "start": 9.5889,
      "duration": 0.0508,
      "velocity": 99,
      "chip": "ym2612"
    },
    {
      "channel": 4,
      "note": 97,
      "start": 9.5895,
      "duration": 0.0506,
      "velocity": 99,
      "chip": "ym2612"
    },
    {
      "channel": 3,
      "note": 85,
      "start": 9.6571,
      "duration": 0.0513,
      "velocity": 99,
      "chip": "ym2612"
    },
    {
      "channel": 4,
      "note": 98,
      "start": 9.6579,
      "duration": 0.051,
      "velocity": 99,
      "chip": "ym2612"
    },
    {
      "channel": 2,
      "note": 54,
      "start": 9.7256,
      "duration": 0.1197,
      "velocity": 91,
      "chip": "ym2612"
    },
    {
      "channel": 3,
      "note": 86,
      "start": 9.7267,
      "duration": 0.0506,
      "velocity": 99,
      "chip": "ym2612"
    },
    {
      "channel": 4,
      "note": 97,
      "start": 9.7274,
      "duration": 0.0502,
      "velocity": 99,
      "chip": "ym2612"
    },
    {
      "channel": 3,
      "note": 85,
      "start": 9.7943,
      "duration": 0.0513,
      "velocity": 99,
      "chip": "ym2612"
    },
    {
      "channel": 4,
      "note": 98,
      "start": 9.7951,
      "duration": 0.0508,
      "velocity": 99,
      "chip": "ym2612"
    },
    {
      "channel": 2,
      "note": 54,
      "start": 9.8627,
      "duration": 0.1199,
      "velocity": 91,
      "chip": "ym2612"
    },
    {
      "channel": 3,
      "note": 86,
      "start": 9.8634,
      "duration": 0.0507,
      "velocity": 99,
      "chip": "ym2612"
    },
    {
      "channel": 4,
      "note": 97,
      "start": 9.8641,
      "duration": 0.0505,
      "velocity": 99,
      "chip": "ym2612"
    },
    {
      "channel": 3,
      "note": 85,
      "start": 9.9315,
      "duration": 0.0513,
      "velocity": 99,
      "chip": "ym2612"
    },
    {
      "channel": 4,
      "note": 98,
      "start": 9.9324,
      "duration": 0.0508,
      "velocity": 99,
      "chip": "ym2612"
    },
    {
      "channel": 2,
      "note": 54,
      "start": 9.9999,
      "duration": 0.1199,
      "velocity": 91,
      "chip": "ym2612"
    },
    {
      "channel": 3,
      "note": 86,
      "start": 10.0006,
      "duration": 0.0507,
      "velocity": 99,
      "chip": "ym2612"
    },
    {
      "channel": 4,
      "note": 97,
      "start": 10.0013,
      "duration": 0.0505,
      "velocity": 99,
      "chip": "ym2612"
    },
    {
      "channel": 3,
      "note": 85,
      "start": 10.0688,
      "duration": 0.0513,
      "velocity": 99,
      "chip": "ym2612"
    },
    {
      "channel": 4,
      "note": 98,
      "start": 10.0697,
      "duration": 0.0508,
      "velocity": 99,
      "chip": "ym2612"
    },
    {
      "channel": 2,
      "note": 54,
      "start": 10.1371,
      "duration": 0.1199,
      "velocity": 91,
      "chip": "ym2612"
    },
    {
      "channel": 3,
      "note": 86,
      "start": 10.1378,
      "duration": 0.0508,
      "velocity": 99,
      "chip": "ym2612"
    },
    {
      "channel": 4,
      "note": 97,
      "start": 10.1385,
      "duration": 0.0505,
      "velocity": 99,
      "chip": "ym2612"
    },
    {
      "channel": 3,
      "note": 85,
      "start": 10.206,
      "duration": 0.0513,
      "velocity": 99,
      "chip": "ym2612"
    },
    {
      "channel": 4,
      "note": 98,
      "start": 10.2068,
      "duration": 0.0508,
      "velocity": 99,
      "chip": "ym2612"
    },
    {
      "channel": 3,
      "note": 86,
      "start": 10.2749,
      "duration": 0.0515,
      "velocity": 99,
      "chip": "ym2612"
    },
    {
      "channel": 4,
      "note": 97,
      "start": 10.2761,
      "duration": 0.0507,
      "velocity": 99,
      "chip": "ym2612"
    },
    {
      "channel": 3,
      "note": 85,
      "start": 10.3439,
      "duration": 0.0507,
      "velocity": 99,
      "chip": "ym2612"
    },
    {
      "channel": 4,
      "note": 98,
      "start": 10.3446,
      "duration": 0.0502,
      "velocity": 99,
      "chip": "ym2612"
    },
    {
      "channel": 2,
      "note": 54,
      "start": 10.4116,
      "duration": 0.1199,
      "velocity": 91,
      "chip": "ym2612"
    },
    {
      "channel": 3,
      "note": 86,
      "start": 10.4123,
      "duration": 0.0508,
      "velocity": 99,
      "chip": "ym2612"
    },
    {
      "channel": 4,
      "note": 97,
      "start": 10.413,
      "duration": 0.0506,
      "velocity": 99,
      "chip": "ym2612"
    },
    {
      "channel": 3,
      "note": 85,
      "start": 10.4805,
      "duration": 0.0513,
      "velocity": 99,
      "chip": "ym2612"
    },
    {
      "channel": 4,
      "note": 98,
      "start": 10.4813,
      "duration": 0.0508,
      "velocity": 99,
      "chip": "ym2612"
    },
    {
      "channel": 3,
      "note": 86,
      "start": 10.5494,
      "duration": 0.051,
      "velocity": 99,
      "chip": "ym2612"
    },
    {
      "channel": 4,
      "note": 97,
      "start": 10.5501,
      "duration": 0.0506,
      "velocity": 99,
      "chip": "ym2612"
    },
    {
      "channel": 3,
      "note": 85,
      "start": 10.6177,
      "duration": 0.0512,
      "velocity": 99,
      "chip": "ym2612"
    },
    {
      "channel": 4,
      "note": 98,
      "start": 10.6185,
      "duration": 0.0508,
      "velocity": 99,
      "chip": "ym2612"
    },
    {
      "channel": 3,
      "note": 86,
      "start": 10.6865,
      "duration": 0.0511,
      "velocity": 99,
      "chip": "ym2612"
    },
    {
      "channel": 4,
      "note": 97,
      "start": 10.6871,
      "duration": 0.0508,
      "velocity": 99,
      "chip": "ym2612"
    },
    {
      "channel": 3,
      "note": 85,
      "start": 10.755,
      "duration": 0.0513,
      "velocity": 99,
      "chip": "ym2612"
    },
    {
      "channel": 4,
      "note": 98,
      "start": 10.7558,
      "duration": 0.0509,
      "velocity": 99,
      "chip": "ym2612"
    },
    {
      "channel": 3,
      "note": 86,
      "start": 10.8238,
      "duration": 0.051,
      "velocity": 99,
      "chip": "ym2612"
    },
    {
      "channel": 4,
      "note": 97,
      "start": 10.8244,
      "duration": 0.0507,
      "velocity": 99,
      "chip": "ym2612"
    },
    {
      "channel": 3,
      "note": 85,
      "start": 10.8926,
      "duration": 0.0512,
      "velocity": 99,
      "chip": "ym2612"
    },
    {
      "channel": 4,
      "note": 98,
      "start": 10.8936,
      "duration": 0.0505,
      "velocity": 99,
      "chip": "ym2612"
    },
    {
      "channel": 3,
      "note": 86,
      "start": 10.9611,
      "duration": 0.0511,
      "velocity": 99,
      "chip": "ym2612"
    },
    {
      "channel": 4,
      "note": 97,
      "start": 10.9617,
      "duration": 0.0508,
      "velocity": 99,
      "chip": "ym2612"
    },
    {
      "channel": 3,
      "note": 85,
      "start": 11.0295,
      "duration": 0.0513,
      "velocity": 99,
      "chip": "ym2612"
    },
    {
      "channel": 4,
      "note": 98,
      "start": 11.0303,
      "duration": 0.0508,
      "velocity": 99,
      "chip": "ym2612"
    },
    {
      "channel": 3,
      "note": 86,
      "start": 11.0982,
      "duration": 0.0512,
      "velocity": 99,
      "chip": "ym2612"
    },
    {
      "channel": 4,
      "note": 97,
      "start": 11.0989,
      "duration": 0.0509,
      "velocity": 99,
      "chip": "ym2612"
    },
    {
      "channel": 3,
      "note": 85,
      "start": 11.1667,
      "duration": 0.0513,
      "velocity": 99,
      "chip": "ym2612"
    },
    {
      "channel": 4,
      "note": 98,
      "start": 11.1675,
      "duration": 0.0509,
      "velocity": 99,
      "chip": "ym2612"
    },
    {
      "channel": 1,
      "note": 69,
      "start": 11.2348,
      "duration": 1.3739,
      "velocity": 97,
      "chip": "ym2612"
    },
    {
      "channel": 2,
      "note": 54,
      "start": 11.2385,
      "duration": 0.1163,
      "velocity": 91,
      "chip": "ym2612"
    },
    {
      "channel": 3,
      "note": 86,
      "start": 11.2393,
      "duration": 0.0473,
      "velocity": 99,
      "chip": "ym2612"
    },
    {
      "channel": 4,
      "note": 97,
      "start": 11.2399,
      "duration": 0.0469,
      "velocity": 99,
      "chip": "ym2612"
    },
    {
      "channel": 3,
      "note": 85,
      "start": 11.3039,
      "duration": 0.0513,
      "velocity": 99,
      "chip": "ym2612"
    },
    {
      "channel": 4,
      "note": 98,
      "start": 11.3047,
      "duration": 0.0508,
      "velocity": 99,
      "chip": "ym2612"
    },
    {
      "channel": 3,
      "note": 86,
      "start": 11.3728,
      "duration": 0.051,
      "velocity": 99,
      "chip": "ym2612"
    },
    {
      "channel": 4,
      "note": 97,
      "start": 11.3734,
      "duration": 0.0507,
      "velocity": 99,
      "chip": "ym2612"
    },
    {
      "channel": 3,
      "note": 85,
      "start": 11.4412,
      "duration": 0.0518,
      "velocity": 99,
      "chip": "ym2612"
    },
    {
      "channel": 4,
      "note": 98,
      "start": 11.4419,
      "duration": 0.0515,
      "velocity": 99,
      "chip": "ym2612"
    },
    {
      "channel": 2,
      "note": 54,
      "start": 11.51,
      "duration": 0.1193,
      "velocity": 91,
      "chip": "ym2612"
    },
    {
      "channel": 3,
      "note": 86,
      "start": 11.5107,
      "duration": 0.0502,
      "velocity": 99,
      "chip": "ym2612"
    },
    {
      "channel": 4,
      "note": 97,
      "start": 11.5114,
      "duration": 0.0499,
      "velocity": 99,
      "chip": "ym2612"
    },
    {
      "channel": 3,
      "note": 85,
      "start": 11.5784,
      "duration": 0.0513,
      "velocity": 99,
      "chip": "ym2612"
    },
    {
      "channel": 4,
      "note": 98,
      "start": 11.5791,
      "duration": 0.0508,
      "velocity": 99,
      "chip": "ym2612"
    },
    {
      "channel": 3,
      "note": 86,
      "start": 11.6473,
      "duration": 0.051,
      "velocity": 99,
      "chip": "ym2612"
    },
    {
      "channel": 4,
      "note": 97,
      "start": 11.6479,
      "duration": 0.0506,
      "velocity": 99,
      "chip": "ym2612"
    },
    {
      "channel": 3,
      "note": 85,
      "start": 11.7156,
      "duration": 0.0513,
      "velocity": 99,
      "chip": "ym2612"
    },
    {
      "channel": 4,
      "note": 98,
      "start": 11.7165,
      "duration": 0.0508,
      "velocity": 99,
      "chip": "ym2612"
    },
    {
      "channel": 2,
      "note": 54,
      "start": 11.784,
      "duration": 0.1198,
      "velocity": 91,
      "chip": "ym2612"
    },
    {
      "channel": 3,
      "note": 86,
      "start": 11.7847,
      "duration": 0.0509,
      "velocity": 99,
      "chip": "ym2612"
    },
    {
      "channel": 4,
      "note": 97,
      "start": 11.7853,
      "duration": 0.0506,
      "velocity": 99,
      "chip": "ym2612"
    },
    {
      "channel": 3,
      "note": 85,
      "start": 11.8529,
      "duration": 0.0512,
      "velocity": 99,
      "chip": "ym2612"
    },
    {
      "channel": 4,
      "note": 98,
      "start": 11.8537,
      "duration": 0.0508,
      "velocity": 99,
      "chip": "ym2612"
    },
    {
      "channel": 2,
      "note": 54,
      "start": 11.9212,
      "duration": 0.1199,
      "velocity": 91,
      "chip": "ym2612"
    },
    {
      "channel": 3,
      "note": 86,
      "start": 11.922,
      "duration": 0.0508,
      "velocity": 99,
      "chip": "ym2612"
    },
    {
      "channel": 4,
      "note": 97,
      "start": 11.9226,
      "duration": 0.0506,
      "velocity": 99,
      "chip": "ym2612"
    },
    {
      "channel": 3,
      "note": 85,
      "start": 11.9901,
      "duration": 0.0513,
      "velocity": 99,
      "chip": "ym2612"
    },
    {
      "channel": 4,
      "note": 98,
      "start": 11.9909,
      "duration": 0.0508,
      "velocity": 99,
      "chip": "ym2612"
    },
    {
      "channel": 2,
      "note": 54,
      "start": 12.0585,
      "duration": 0.1198,
      "velocity": 91,
      "chip": "ym2612"
    },
    {
      "channel": 3,
      "note": 86,
      "start": 12.0597,
      "duration": 0.0506,
      "velocity": 99,
      "chip": "ym2612"
    },
    {
      "channel": 4,
      "note": 97,
      "start": 12.0604,
      "duration": 0.0502,
      "velocity": 99,
      "chip": "ym2612"
    },
    {
      "channel": 3,
      "note": 85,
      "start": 12.1273,
      "duration": 0.0513,
      "velocity": 99,
      "chip": "ym2612"
    },
    {
      "channel": 4,
      "note": 98,
      "start": 12.1282,
      "duration": 0.0508,
      "velocity": 99,
      "chip": "ym2612"
    },
    {
      "channel": 2,
      "note": 54,
      "start": 12.1956,
      "duration": 0.12,
      "velocity": 91,
      "chip": "ym2612"
    },
    {
      "channel": 3,
      "note": 86,
      "start": 12.1964,
      "duration": 0.0508,
      "velocity": 99,
      "chip": "ym2612"
    },
    {
      "channel": 4,
      "note": 97,
      "start": 12.197,
      "duration": 0.0505,
      "velocity": 99,
      "chip": "ym2612"
    },
    {
      "channel": 3,
      "note": 85,
      "start": 12.2646,
      "duration": 0.0513,
      "velocity": 99,
      "chip": "ym2612"
    },
    {
      "channel": 4,
      "note": 98,
      "start": 12.2654,
      "duration": 0.0509,
      "velocity": 99,
      "chip": "ym2612"
    },
    {
      "channel": 2,
      "note": 54,
      "start": 12.3329,
      "duration": 0.1198,
      "velocity": 91,
      "chip": "ym2612"
    },
    {
      "channel": 3,
      "note": 86,
      "start": 12.3337,
      "duration": 0.1194,
      "velocity": 99,
      "chip": "ym2612"
    },
    {
      "channel": 4,
      "note": 97,
      "start": 12.3343,
      "duration": 0.0504,
      "velocity": 99,
      "chip": "ym2612"
    },
    {
      "channel": 4,
      "note": 98,
      "start": 12.4022,
      "duration": 0.1198,
      "velocity": 99,
      "chip": "ym2612"
    },
    {
      "channel": 3,
      "note": 85,
      "start": 12.4705,
      "duration": 0.1198,
      "velocity": 99,
      "chip": "ym2612"
    },
    {
      "channel": 4,
      "note": 85,
      "start": 12.5393,
      "duration": 0.1204,
      "velocity": 99,
      "chip": "ym2612"
    },
    {
      "channel": 1,
      "note": 69,
      "start": 12.6086,
      "duration": 0.2745,
      "velocity": 97,
      "chip": "ym2612"
    },
    {
      "channel": 2,
      "note": 54,
      "start": 12.6098,
      "duration": 0.1174,
      "velocity": 91,
      "chip": "ym2612"
    },
    {
      "channel": 3,
      "note": 83,
      "start": 12.6104,
      "duration": 0.1172,
      "velocity": 99,
      "chip": "ym2612"
    },
    {
      "channel": 4,
      "note": 83,
      "start": 12.6771,
      "duration": 0.1193,
      "velocity": 99,
      "chip": "ym2612"
    },
    {
      "channel": 3,
      "note": 81,
      "start": 12.745,
      "duration": 0.1198,
      "velocity": 99,
      "chip": "ym2612"
    },
    {
      "channel": 4,
      "note": 81,
      "start": 12.8137,
      "duration": 0.1199,
      "velocity": 99,
      "chip": "ym2612"
    },
    {
      "channel": 1,
      "note": 69,
      "start": 12.8831,
      "duration": 0.2745,
      "velocity": 97,
      "chip": "ym2612"
    },
    {
      "channel": 3,
      "note": 80,
      "start": 12.884,
      "duration": 0.118,
      "velocity": 99,
      "chip": "ym2612"
    },
    {
      "channel": 4,
      "note": 80,
      "start": 12.951,
      "duration": 0.1198,
      "velocity": 99,
      "chip": "ym2612"
    },
    {
      "channel": 3,
      "note": 83,
      "start": 13.0193,
      "duration": 0.1198,
      "velocity": 99,
      "chip": "ym2612"
    },
    {
      "channel": 4,
      "note": 83,
      "start": 13.0882,
      "duration": 0.1199,
      "velocity": 99,
      "chip": "ym2612"
    },
    {
      "channel": 1,
      "note": 69,
      "start": 13.1576,
      "duration": 0.276,
      "velocity": 97,
      "chip": "ym2612"
    },
    {
      "channel": 3,
      "note": 81,
      "start": 13.1585,
      "duration": 0.1186,
      "velocity": 99,
      "chip": "ym2612"
    },
    {
      "channel": 4,
      "note": 81,
      "start": 13.2258,
      "duration": 0.1195,
      "velocity": 99,
      "chip": "ym2612"
    },
    {
      "channel": 3,
      "note": 80,
      "start": 13.2942,
      "duration": 0.1197,
      "velocity": 99,
      "chip": "ym2612"
    },
    {
      "channel": 4,
      "note": 80,
      "start": 13.3627,
      "duration": 0.1199,
      "velocity": 99,
      "chip": "ym2612"
    },
    {
      "channel": 0,
      "note": 73,
      "start": 13.4131,
      "duration": 3.8255,
      "velocity": 97,
      "chip": "ym2612"
    },
    {
      "channel": 1,
      "note": 54,
      "start": 13.4337,
      "duration": 0.0481,
      "velocity": 97,
      "chip": "ym2612"
    },
    {
      "channel": 2,
      "note": 54,
      "start": 13.4374,
      "duration": 0.1132,
      "velocity": 91,
      "chip": "ym2612"
    },
    {
      "channel": 3,
      "note": 78,
      "start": 13.4381,
      "duration": 0.0442,
      "velocity": 99,
      "chip": "ym2612"
    },
    {
      "channel": 1,
      "note": 54,
      "start": 13.499,
      "duration": 0.0513,
      "velocity": 97,
      "chip": "ym2612"
    },
    {
      "channel": 3,
      "note": 73,
      "start": 13.4999,
      "duration": 0.051,
      "velocity": 99,
      "chip": "ym2612"
    },
    {
      "channel": 4,
      "note": 78,
      "start": 13.5007,
      "duration": 0.0506,
      "velocity": 99,
      "chip": "ym2612"
    },
    {
      "channel": 1,
      "note": 54,
      "start": 13.5677,
      "duration": 0.0513,
      "velocity": 97,
      "chip": "ym2612"
    },
    {
      "channel": 3,
      "note": 74,
      "start": 13.5688,
      "duration": 0.0508,
      "velocity": 99,
      "chip": "ym2612"
    },
    {
      "channel": 4,
      "note": 81,
      "start": 13.5694,
      "duration": 0.0505,
      "velocity": 99,
      "chip": "ym2612"
    },
    {
      "channel": 1,
      "note": 54,
      "start": 13.6363,
      "duration": 0.0513,
      "velocity": 97,
      "chip": "ym2612"
    },
    {
      "channel": 3,
      "note": 73,
      "start": 13.6371,
      "duration": 0.051,
      "velocity": 99,
      "chip": "ym2612"
    },
    {
      "channel": 4,
      "note": 83,
      "start": 13.6379,
      "duration": 0.0506,
      "velocity": 99,
      "chip": "ym2612"
    },
    {
      "channel": 1,
      "note": 54,
      "start": 13.7065,
      "duration": 0.0498,
      "velocity": 97,
      "chip": "ym2612"
    },
    {
      "channel": 2,
      "note": 54,
      "start": 13.707,
      "duration": 0.1181,
      "velocity": 91,
      "chip": "ym2612"
    },
    {
      "channel": 3,
      "note": 74,
      "start": 13.7078,
      "duration": 0.049,
      "velocity": 99,
      "chip": "ym2612"
    },
    {
      "channel": 4,
      "note": 81,
      "start": 13.7084,
      "duration": 0.0487,
      "velocity": 99,
      "chip": "ym2612"
    },
    {
      "channel": 1,
      "note": 54,
      "start": 13.7735,
      "duration": 0.0513,
      "velocity": 97,
      "chip": "ym2612"
    },
    {
      "channel": 3,
      "note": 73,
      "start": 13.7744,
      "duration": 0.0514,
      "velocity": 99,
      "chip": "ym2612"
    },
    {
      "channel": 4,
      "note": 83,
      "start": 13.7751,
      "duration": 0.0513,
      "velocity": 99,
      "chip": "ym2612"
    },
    {
      "channel": 1,
      "note": 54,
      "start": 13.8427,
      "duration": 0.0508,
      "velocity": 97,
      "chip": "ym2612"
    },
    {
      "channel": 3,
      "note": 74,
      "start": 13.8439,
      "duration": 0.0502,
      "velocity": 99,
      "chip": "ym2612"
    },
    {
      "channel": 4,
      "note": 81,
      "start": 13.8445,
      "duration": 0.0499,
      "velocity": 99,
      "chip": "ym2612"
    },
    {
      "channel": 1,
      "note": 54,
      "start": 13.9109,
      "duration": 0.0512,
      "velocity": 97,
      "chip": "ym2612"
    },
    {
      "channel": 3,
      "note": 73,
      "start": 13.9116,
      "duration": 0.051,
      "velocity": 99,
      "chip": "ym2612"
    },
    {
      "channel": 4,
      "note": 83,
      "start": 13.9125,
      "duration": 0.0506,
      "velocity": 99,
      "chip": "ym2612"
    },
    {
      "channel": 1,
      "note": 54,
      "start": 13.981,
      "duration": 0.0497,
      "velocity": 97,
      "chip": "ym2612"
    },
    {
      "channel": 2,
      "note": 54,
      "start": 13.9815,
      "duration": 0.1181,
      "velocity": 91,
      "chip": "ym2612"
    },
    {
      "channel": 3,
      "note": 74,
      "start": 13.9823,
      "duration": 0.0489,
      "velocity": 99,
      "chip": "ym2612"
    },
    {
      "channel": 4,
      "note": 81,
      "start": 13.9829,
      "duration": 0.0486,
      "velocity": 99,
      "chip": "ym2612"
    },
    {
      "channel": 1,
      "note": 54,
      "start": 14.048,
      "duration": 0.0513,
      "velocity": 97,
      "chip": "ym2612"
    },
    {
      "channel": 3,
      "note": 73,
      "start": 14.0488,
      "duration": 0.051,
      "velocity": 99,
      "chip": "ym2612"
    },
    {
      "channel": 4,
      "note": 83,
      "start": 14.0496,
      "duration": 0.0506,
      "velocity": 99,
      "chip": "ym2612"
    },
    {
      "channel": 1,
      "note": 54,
      "start": 14.1167,
      "duration": 0.0512,
      "velocity": 97,
      "chip": "ym2612"
    },
    {
      "channel": 2,
      "note": 54,
      "start": 14.1172,
      "duration": 0.1197,
      "velocity": 91,
      "chip": "ym2612"
    },
    {
      "channel": 3,
      "note": 74,
      "start": 14.1179,
      "duration": 0.0505,
      "velocity": 99,
      "chip": "ym2612"
    },
    {
      "channel": 4,
      "note": 81,
      "start": 14.1186,
      "duration": 0.0502,
      "velocity": 99,
      "chip": "ym2612"
    },
    {
      "channel": 1,
      "note": 54,
      "start": 14.1853,
      "duration": 0.0513,
      "velocity": 97,
      "chip": "ym2612"
    },
    {
      "channel": 3,
      "note": 73,
      "start": 14.1861,
      "duration": 0.0511,
      "velocity": 99,
      "chip": "ym2612"
    },
    {
      "channel": 4,
      "note": 83,
      "start": 14.1869,
      "duration": 0.0506,
      "velocity": 99,
      "chip": "ym2612"
    },
    {
      "channel": 1,
      "note": 54,
      "start": 14.2555,
      "duration": 0.0497,
      "velocity": 97,
      "chip": "ym2612"
    },
    {
      "channel": 2,
      "note": 54,
      "start": 14.2559,
      "duration": 0.1181,
      "velocity": 91,
      "chip": "ym2612"
    },
    {
      "channel": 3,
      "note": 74,
      "start": 14.2567,
      "duration": 0.049,
      "velocity": 99,
      "chip": "ym2612"
    },
    {
      "channel": 4,
      "note": 81,
      "start": 14.2573,
      "duration": 0.0487,
      "velocity": 99,
      "chip": "ym2612"
    },
    {
      "channel": 1,
      "note": 54,
      "start": 14.3226,
      "duration": 0.0512,
      "velocity": 97,
      "chip": "ym2612"
    },
    {
      "channel": 3,
      "note": 73,
      "start": 14.3234,
      "duration": 0.051,
      "velocity": 99,
      "chip": "ym2612"
    },
    {
      "channel": 4,
      "note": 83,
      "start": 14.3242,
      "duration": 0.0505,
      "velocity": 99,
      "chip": "ym2612"
    },
    {
      "channel": 1,
      "note": 54,
      "start": 14.3912,
      "duration": 0.0518,
      "velocity": 97,
      "chip": "ym2612"
    },
    {
      "channel": 2,
      "note": 54,
      "start": 14.3917,
      "duration": 0.1197,
      "velocity": 91,
      "chip": "ym2612"
    },
    {
      "channel": 3,
      "note": 74,
      "start": 14.3929,
      "duration": 0.0506,
      "velocity": 99,
      "chip": "ym2612"
    },
    {
      "channel": 4,
      "note": 81,
      "start": 14.3936,
      "duration": 0.0502,
      "velocity": 99,
      "chip": "ym2612"
    },
    {
      "channel": 1,
      "note": 54,
      "start": 14.46,
      "duration": 0.051,
      "velocity": 97,
      "chip": "ym2612"
    },
    {
      "channel": 3,
      "note": 73,
      "start": 14.4609,
      "duration": 0.0508,
      "velocity": 99,
      "chip": "ym2612"
    },
    {
      "channel": 4,
      "note": 83,
      "start": 14.4616,
      "duration": 0.0503,
      "velocity": 99,
      "chip": "ym2612"
    },
    {
      "channel": 1,
      "note": 54,
      "start": 14.53,
      "duration": 0.0497,
      "velocity": 97,
      "chip": "ym2612"
    },
    {
      "channel": 2,
      "note": 54,
      "start": 14.5305,
      "duration": 0.118,
      "velocity": 91,
      "chip": "ym2612"
    },
    {
      "channel": 3,
      "note": 74,
      "start": 14.5312,
      "duration": 0.049,
      "velocity": 99,
      "chip": "ym2612"
    },
    {
      "channel": 4,
      "note": 81,
      "start": 14.5319,
      "duration": 0.0487,
      "velocity": 99,
      "chip": "ym2612"
    },
    {
      "channel": 1,
      "note": 54,
      "start": 14.597,
      "duration": 0.0513,
      "velocity": 97,
      "chip": "ym2612"
    },
    {
      "channel": 3,
      "note": 73,
      "start": 14.5978,
      "duration": 0.051,
      "velocity": 99,
      "chip": "ym2612"
    },
    {
      "channel": 4,
      "note": 83,
      "start": 14.5986,
      "duration": 0.0506,
      "velocity": 99,
      "chip": "ym2612"
    },
    {
      "channel": 1,
      "note": 54,
      "start": 14.6656,
      "duration": 0.0513,
      "velocity": 97,
      "chip": "ym2612"
    },
    {
      "channel": 3,
      "note": 74,
      "start": 14.6667,
      "duration": 0.0507,
      "velocity": 99,
      "chip": "ym2612"
    },
    {
      "channel": 4,
      "note": 81,
      "start": 14.6674,
      "duration": 0.0504,
      "velocity": 99,
      "chip": "ym2612"
    },
    {
      "channel": 1,
      "note": 54,
      "start": 14.7343,
      "duration": 0.0512,
      "velocity": 97,
      "chip": "ym2612"
    },
    {
      "channel": 3,
      "note": 73,
      "start": 14.7351,
      "duration": 0.051,
      "velocity": 99,
      "chip": "ym2612"
    },
    {
      "channel": 4,
      "note": 83,
      "start": 14.7359,
      "duration": 0.0505,
      "velocity": 99,
      "chip": "ym2612"
    },
    {
      "channel": 1,
      "note": 54,
      "start": 14.8044,
      "duration": 0.0498,
      "velocity": 97,
      "chip": "ym2612"
    },
    {
      "channel": 2,
      "note": 54,
      "start": 14.8049,
      "duration": 0.1181,
      "velocity": 91,
      "chip": "ym2612"
    },
    {
      "channel": 3,
      "note": 74,
      "start": 14.8056,
      "duration": 0.049,
      "velocity": 99,
      "chip": "ym2612"
    },
    {
      "channel": 4,
      "note": 81,
      "start": 14.8063,
      "duration": 0.0487,
      "velocity": 99,
      "chip": "ym2612"
    },
    {
      "channel": 1,
      "note": 54,
      "start": 14.8714,
      "duration": 0.0513,
      "velocity": 97,
      "chip": "ym2612"
    },
    {
      "channel": 3,
      "note": 73,
      "start": 14.8723,
      "duration": 0.051,
      "velocity": 99,
      "chip": "ym2612"
    },
    {
      "channel": 4,
      "note": 83,
      "start": 14.873,
      "duration": 0.0506,
      "velocity": 99,
      "chip": "ym2612"
    },
    {
      "channel": 1,
      "note": 54,
      "start": 14.9401,
      "duration": 0.0512,
      "velocity": 97,
      "chip": "ym2612"
    },
    {
      "channel": 3,
      "note": 74,
      "start": 14.9412,
      "duration": 0.0508,
      "velocity": 99,
      "chip": "ym2612"
    },
    {
      "channel": 4,
      "note": 81,
      "start": 14.9418,
      "duration": 0.051,
      "velocity": 99,
      "chip": "ym2612"
    },
    {
      "channel": 1,
      "note": 54,
      "start": 15.0089,
      "duration": 0.0511,
      "velocity": 97,
      "chip": "ym2612"
    },
    {
      "channel": 3,
      "note": 73,
      "start": 15.0102,
      "duration": 0.0504,
      "velocity": 99,
      "chip": "ym2612"
    },
    {
      "channel": 4,
      "note": 83,
      "start": 15.0109,
      "duration": 0.0499,
      "velocity": 99,
      "chip": "ym2612"
    },
    {
      "channel": 1,
      "note": 54,
      "start": 15.0789,
      "duration": 0.0498,
      "velocity": 97,
      "chip": "ym2612"
    },
    {
      "channel": 3,
      "note": 74,
      "start": 15.0798,
      "duration": 0.0493,
      "velocity": 99,
      "chip": "ym2612"
    },
    {
      "channel": 4,
      "note": 81,
      "start": 15.0805,
      "duration": 0.049,
      "velocity": 99,
      "chip": "ym2612"
    },
    {
      "channel": 1,
      "note": 54,
      "start": 15.146,
      "duration": 0.0512,
      "velocity": 97,
      "chip": "ym2612"
    },
    {
      "channel": 3,
      "note": 73,
      "start": 15.1468,
      "duration": 0.0509,
      "velocity": 99,
      "chip": "ym2612"
    },
    {
      "channel": 4,
      "note": 83,
      "start": 15.1476,
      "duration": 0.0505,
      "velocity": 99,
      "chip": "ym2612"
    },
    {
      "channel": 1,
      "note": 54,
      "start": 15.2146,
      "duration": 0.0513,
      "velocity": 97,
      "chip": "ym2612"
    },
    {
      "channel": 3,
      "note": 74,
      "start": 15.2155,
      "duration": 0.0509,
      "velocity": 99,
      "chip": "ym2612"
    },
    {
      "channel": 4,
      "note": 81,
      "start": 15.2161,
      "duration": 0.0506,
      "velocity": 99,
      "chip": "ym2612"
    },
    {
      "channel": 1,
      "note": 54,
      "start": 15.2832,
      "duration": 0.0513,
      "velocity": 97,
      "chip": "ym2612"
    },
    {
      "channel": 3,
      "note": 73,
      "start": 15.284,
      "duration": 0.0511,
      "velocity": 99,
      "chip": "ym2612"
    },
    {
      "channel": 4,
      "note": 83,
      "start": 15.2848,
      "duration": 0.0506,
      "velocity": 99,
      "chip": "ym2612"
    },
    {
      "channel": 1,
      "note": 54,
      "start": 15.3534,
      "duration": 0.0497,
      "velocity": 97,
      "chip": "ym2612"
    },
    {
      "channel": 3,
      "note": 74,
      "start": 15.3544,
      "duration": 0.0493,
      "velocity": 99,
      "chip": "ym2612"
    },
    {
      "channel": 4,
      "note": 81,
      "start": 15.3551,
      "duration": 0.0489,
      "velocity": 99,
      "chip": "ym2612"
    },
    {
      "channel": 1,
      "note": 54,
      "start": 15.4204,
      "duration": 0.0513,
      "velocity": 97,
      "chip": "ym2612"
    },
    {
      "channel": 3,
      "note": 73,
      "start": 15.4213,
      "duration": 0.0509,
      "velocity": 99,
      "chip": "ym2612"
    },
    {
      "channel": 4,
      "note": 83,
      "start": 15.4221,
      "duration": 0.0505,
      "velocity": 99,
      "chip": "ym2612"
    },
    {
      "channel": 1,
      "note": 54,
      "start": 15.489,
      "duration": 0.0513,
      "velocity": 97,
      "chip": "ym2612"
    },
    {
      "channel": 3,
      "note": 74,
      "start": 15.49,
      "duration": 0.0508,
      "velocity": 99,
      "chip": "ym2612"
    },
    {
      "channel": 4,
      "note": 81,
      "start": 15.4906,
      "duration": 0.0506,
      "velocity": 99,
      "chip": "ym2612"
    },
    {
      "channel": 1,
      "note": 54,
      "start": 15.5576,
      "duration": 0.0519,
      "velocity": 97,
      "chip": "ym2612"
    },
    {
      "channel": 3,
      "note": 73,
      "start": 15.5585,
      "duration": 0.0517,
      "velocity": 99,
      "chip": "ym2612"
    },
    {
      "channel": 4,
      "note": 83,
      "start": 15.5599,
      "duration": 0.0505,
      "velocity": 99,
      "chip": "ym2612"
    },
    {
      "channel": 1,
      "note": 54,
      "start": 15.6283,
      "duration": 0.2551,
      "velocity": 97,
      "chip": "ym2612"
    },
    {
      "channel": 2,
      "note": 54,
      "start": 15.6321,
      "duration": 0.1143,
      "velocity": 91,
      "chip": "ym2612"
    },
    {
      "channel": 3,
      "note": 74,
      "start": 15.6328,
      "duration": 0.1139,
      "velocity": 99,
      "chip": "ym2612"
    },
    {
      "channel": 4,
      "note": 81,
      "start": 15.6334,
      "duration": 0.045,
      "velocity": 99,
      "chip": "ym2612"
    },
    {
      "channel": 4,
      "note": 83,
      "start": 15.6959,
      "duration": 0.1197,
      "velocity": 99,
      "chip": "ym2612"
    },
    {
      "channel": 3,
      "note": 73,
      "start": 15.7642,
      "duration": 0.1198,
      "velocity": 99,
      "chip": "ym2612"
    },
    {
      "channel": 4,
      "note": 85,
      "start": 15.8329,
      "duration": 0.1199,
      "velocity": 99,
      "chip": "ym2612"
    },
    {
      "channel": 1,
      "note": 49,
      "start": 15.9007,
      "duration": 0.2571,
      "velocity": 97,
      "chip": "ym2612"
    },
    {
      "channel": 2,
      "note": 54,
      "start": 15.9013,
      "duration": 0.1196,
      "velocity": 91,
      "chip": "ym2612"
    },
    {
      "channel": 3,
      "note": 74,
      "start": 15.9018,
      "duration": 0.1193,
      "velocity": 99,
      "chip": "ym2612"
    },
    {
      "channel": 4,
      "note": 86,
      "start": 15.9702,
      "duration": 0.1198,
      "velocity": 99,
      "chip": "ym2612"
    },
    {
      "channel": 3,
      "note": 71,
      "start": 16.0387,
      "duration": 0.1197,
      "velocity": 99,
      "chip": "ym2612"
    },
    {
      "channel": 4,
      "note": 83,
      "start": 16.1074,
      "duration": 0.1202,
      "velocity": 99,
      "chip": "ym2612"
    },
    {
      "channel": 1,
      "note": 54,
      "start": 16.1752,
      "duration": 0.2571,
      "velocity": 97,
      "chip": "ym2612"
    },
    {
      "channel": 2,
      "note": 54,
      "start": 16.1763,
      "duration": 0.1191,
      "velocity": 91,
      "chip": "ym2612"
    },
    {
      "channel": 3,
      "note": 73,
      "start": 16.1769,
      "duration": 0.1187,
      "velocity": 99,
      "chip": "ym2612"
    },
    {
      "channel": 4,
      "note": 85,
      "start": 16.2446,
      "duration": 0.1198,
      "velocity": 99,
      "chip": "ym2612"
    },
    {
      "channel": 2,
      "note": 54,
      "start": 16.3127,
      "duration": 0.1199,
      "velocity": 91,
      "chip": "ym2612"
    },
    {
      "channel": 3,
      "note": 76,
      "start": 16.3132,
      "duration": 0.1197,
      "velocity": 99,
      "chip": "ym2612"
    },
    {
      "channel": 4,
      "note": 88,
      "start": 16.3819,
      "duration": 0.1199,
      "velocity": 99,
      "chip": "ym2612"
    },
    {
      "channel": 1,
      "note": 49,
      "start": 16.4497,
      "duration": 0.2571,
      "velocity": 97,
      "chip": "ym2612"
    },
    {
      "channel": 2,
      "note": 54,
      "start": 16.4502,
      "duration": 0.1196,
      "velocity": 91,
      "chip": "ym2612"
    },
    {
      "channel": 3,
      "note": 74,
      "start": 16.4507,
      "duration": 0.1193,
      "velocity": 99,
      "chip": "ym2612"
    },
    {
      "channel": 4,
      "note": 86,
      "start": 16.5191,
      "duration": 0.1199,
      "velocity": 99,
      "chip": "ym2612"
    },
    {
      "channel": 2,
      "note": 54,
      "start": 16.5871,
      "duration": 0.1199,
      "velocity": 91,
      "chip": "ym2612"
    },
    {
      "channel": 3,
      "note": 73,
      "start": 16.5877,
      "duration": 0.1196,
      "velocity": 99,
      "chip": "ym2612"
    },
    {
      "channel": 4,
      "note": 85,
      "start": 16.6563,
      "duration": 0.0513,
      "velocity": 99,
      "chip": "ym2612"
    },
    {
      "channel": 1,
      "note": 54,
      "start": 16.7242,
      "duration": 0.2571,
      "velocity": 97,
      "chip": "ym2612"
    },
    {
      "channel": 2,
      "note": 54,
      "start": 16.7247,
      "duration": 0.1196,
      "velocity": 91,
      "chip": "ym2612"
    },
    {
      "channel": 3,
      "note": 71,
      "start": 16.7256,
      "duration": 0.0508,
      "velocity": 99,
      "chip": "ym2612"
    },
    {
      "channel": 4,
      "note": 83,
      "start": 16.7268,
      "duration": 0.0501,
      "velocity": 99,
      "chip": "ym2612"
    },
    {
      "channel": 3,
      "note": 73,
      "start": 16.7939,
      "duration": 0.0507,
      "velocity": 99,
      "chip": "ym2612"
    },
    {
      "channel": 4,
      "note": 81,
      "start": 16.7945,
      "duration": 0.0504,
      "velocity": 99,
      "chip": "ym2612"
    },
    {
      "channel": 3,
      "note": 74,
      "start": 16.8622,
      "duration": 0.051,
      "velocity": 99,
      "chip": "ym2612"
    },
    {
      "channel": 4,
      "note": 83,
      "start": 16.863,
      "duration": 0.0506,
      "velocity": 99,
      "chip": "ym2612"
    },
    {
      "channel": 3,
      "note": 73,
      "start": 16.9305,
      "duration": 0.0513,
      "velocity": 99,
      "chip": "ym2612"
    },
    {
      "channel": 4,
      "note": 81,
      "start": 16.9312,
      "duration": 0.051,
      "velocity": 99,
      "chip": "ym2612"
    },
    {
      "channel": 1,
      "note": 49,
      "start": 16.9987,
      "duration": 0.2611,
      "velocity": 97,
      "chip": "ym2612"
    },
    {
      "channel": 2,
      "note": 54,
      "start": 16.9991,
      "duration": 0.1196,
      "velocity": 91,
      "chip": "ym2612"
    },
    {
      "channel": 3,
      "note": 74,
      "start": 16.9999,
      "duration": 0.0505,
      "velocity": 99,
      "chip": "ym2612"
    },
    {
      "channel": 4,
      "note": 83,
      "start": 17.0007,
      "duration": 0.05,
      "velocity": 99,
      "chip": "ym2612"
    },
    {
      "channel": 3,
      "note": 73,
      "start": 17.0678,
      "duration": 0.0512,
      "velocity": 99,
      "chip": "ym2612"
    },
    {
      "channel": 4,
      "note": 81,
      "start": 17.0684,
      "duration": 0.051,
      "velocity": 99,
      "chip": "ym2612"
    },
    {
      "channel": 3,
      "note": 74,
      "start": 17.1367,
      "duration": 0.0509,
      "velocity": 99,
      "chip": "ym2612"
    },
    {
      "channel": 4,
      "note": 83,
      "start": 17.1375,
      "duration": 0.0505,
      "velocity": 99,
      "chip": "ym2612"
    },
    {
      "channel": 3,
      "note": 73,
      "start": 17.205,
      "duration": 0.0553,
      "velocity": 99,
      "chip": "ym2612"
    },
    {
      "channel": 4,
      "note": 81,
      "start": 17.2056,
      "duration": 0.055,
      "velocity": 99,
      "chip": "ym2612"
    },
    {
      "channel": 0,
      "note": 61,
      "start": 17.2594,
      "duration": 0.0967,
      "velocity": 102,
      "chip": "ym2612"
    },
    {
      "channel": 1,
      "note": 54,
      "start": 17.273,
      "duration": 0.0412,
      "velocity": 97,
      "chip": "ym2612"
    },
    {
      "channel": 3,
      "note": 74,
      "start": 17.274,
      "duration": 0.0091,
      "velocity": 99,
      "chip": "ym2612"
    },
    {
      "channel": 4,
      "note": 83,
      "start": 17.2748,
      "duration": 0.0086,
      "velocity": 99,
      "chip": "ym2612"
    },
    {
      "channel": 3,
      "note": 73,
      "start": 17.287,
      "duration": 0.0085,
      "velocity": 99,
      "chip": "ym2612"
    },
    {
      "channel": 4,
      "note": 81,
      "start": 17.2877,
      "duration": 0.0081,
      "velocity": 99,
      "chip": "ym2612"
    },
    {
      "channel": 3,
      "note": 74,
      "start": 17.298,
      "duration": 0.0073,
      "velocity": 99,
      "chip": "ym2612"
    },
    {
      "channel": 4,
      "note": 83,
      "start": 17.2988,
      "duration": 0.0069,
      "velocity": 99,
      "chip": "ym2612"
    },
    {
      "channel": 3,
      "note": 73,
      "start": 17.3078,
      "duration": 0.0071,
      "velocity": 99,
      "chip": "ym2612"
    },
    {
      "channel": 4,
      "note": 81,
      "start": 17.3084,
      "duration": 0.0067,
      "velocity": 99,
      "chip": "ym2612"
    },
    {
      "channel": 1,
      "note": 49,
      "start": 17.3168,
      "duration": 0.057,
      "velocity": 97,
      "chip": "ym2612"
    },
    {
      "channel": 3,
      "note": 74,
      "start": 17.3177,
      "duration": 0.0082,
      "velocity": 99,
      "chip": "ym2612"
    },
    {
      "channel": 4,
      "note": 83,
      "start": 17.3186,
      "duration": 0.0077,
      "velocity": 99,
      "chip": "ym2612"
    },
    {
      "channel": 3,
      "note": 73,
      "start": 17.3284,
      "duration": 0.0072,
      "velocity": 99,
      "chip": "ym2612"
    },
    {
      "channel": 4,
      "note": 81,
      "start": 17.329,
      "duration": 0.0069,
      "velocity": 99,
      "chip": "ym2612"
    },
    {
      "channel": 3,
      "note": 74,
      "start": 17.3382,
      "duration": 0.0095,
      "velocity": 99,
      "chip": "ym2612"
    },
    {
      "channel": 3,
      "note": 73,
      "start": 17.3501,
      "duration": 0.0244,
      "velocity": 99,
      "chip": "ym2612"
    },
    {
      "channel": 0,
      "note": 66,
      "start": 17.3735,
      "duration": 0.2613,
      "velocity": 102,
      "chip": "ym2612"
    },
    {
      "channel": 2,
      "note": 54,
      "start": 17.3984,
      "duration": 0.0223,
      "velocity": 91,
      "chip": "ym2612"
    },
    {
      "channel": 1,
      "note": 66,
      "start": 17.441,
      "duration": 0.3027,
      "velocity": 102,
      "chip": "ym2612"
    },
    {
      "channel": 2,
      "note": 54,
      "start": 17.4415,
      "duration": 0.0158,
      "velocity": 91,
      "chip": "ym2612"
    },
    {
      "channel": 2,
      "note": 54,
      "start": 17.4795,
      "duration": 0.0197,
      "velocity": 91,
      "chip": "ym2612"
    },
    {
      "channel": 3,
      "note": 74,
      "start": 17.4824,
      "duration": 0.0772,
      "velocity": 99,
      "chip": "ym2612"
    },
    {
      "channel": 4,
      "note": 83,
      "start": 17.483,
      "duration": 0.077,
      "velocity": 99,
      "chip": "ym2612"
    },
    {
      "channel": 2,
      "note": 54,
      "start": 17.5022,
      "duration": 0.0182,
      "velocity": 91,
      "chip": "ym2612"
    },
    {
      "channel": 2,
      "note": 54,
      "start": 17.5229,
      "duration": 0.0163,
      "velocity": 91,
      "chip": "ym2612"
    },
    {
      "channel": 2,
      "note": 54,
      "start": 17.5426,
      "duration": 0.0167,
      "velocity": 91,
      "chip": "ym2612"
    },
    {
      "channel": 2,
      "note": 54,
      "start": 17.562,
      "duration": 0.0165,
      "velocity": 91,
      "chip": "ym2612"
    },
    {
      "channel": 3,
      "note": 73,
      "start": 17.5625,
      "duration": 0.0757,
      "velocity": 99,
      "chip": "ym2612"
    },
    {
      "channel": 4,
      "note": 69,
      "start": 17.5632,
      "duration": 0.0754,
      "velocity": 99,
      "chip": "ym2612"
    },
    {
      "channel": 2,
      "note": 54,
      "start": 17.6028,
      "duration": 0.0158,
      "velocity": 91,
      "chip": "ym2612"
    },
    {
      "channel": 0,
      "note": 68,
      "start": 17.6374,
      "duration": 0.0882,
      "velocity": 102,
      "chip": "ym2612"
    },
    {
      "channel": 3,
      "note": 78,
      "start": 17.6408,
      "duration": 0.1035,
      "velocity": 99,
      "chip": "ym2612"
    },
    {
      "channel": 4,
      "note": 73,
      "start": 17.6415,
      "duration": 0.1032,
      "velocity": 99,
      "chip": "ym2612"
    },
    {
      "channel": 0,
      "note": 69,
      "start": 17.7434,
      "duration": 0.0937,
      "velocity": 102,
      "chip": "ym2612"
    },
    {
      "channel": 1,
      "note": 68,
      "start": 17.7604,
      "duration": 0.0943,
      "velocity": 102,
      "chip": "ym2612"
    },
    {
      "channel": 3,
      "note": 76,
      "start": 17.7612,
      "duration": 0.0941,
      "velocity": 99,
      "chip": "ym2612"
    },
    {
      "channel": 4,
      "note": 71,
      "start": 17.7619,
      "duration": 0.0938,
      "velocity": 99,
      "chip": "ym2612"
    },
    {
      "channel": 0,
      "note": 68,
      "start": 17.8544,
      "duration": 0.1304,
      "velocity": 102,
      "chip": "ym2612"
    },
    {
      "channel": 1,
      "note": 69,
      "start": 17.8718,
      "duration": 0.0367,
      "velocity": 102,
      "chip": "ym2612"
    },
    {
      "channel": 2,
      "note": 52,
      "start": 17.8723,
      "duration": 0.0174,
      "velocity": 91,
      "chip": "ym2612"
    },
    {
      "channel": 3,
      "note": 78,
      "start": 17.8729,
      "duration": 0.158,
      "velocity": 99,
      "chip": "ym2612"
    },
    {
      "channel": 4,
      "note": 73,
      "start": 17.8735,
      "duration": 0.1577,
      "velocity": 99,
      "chip": "ym2612"
    },
    {
      "channel": 1,
      "note": 68,
      "start": 17.9136,
      "duration": 0.1167,
      "velocity": 102,
      "chip": "ym2612"
    },
    {
      "channel": 2,
      "note": 52,
      "start": 17.9141,
      "duration": 0.0157,
      "velocity": 91,
      "chip": "ym2612"
    },
    {
      "channel": 2,
      "note": 52,
      "start": 17.9516,
      "duration": 0.0161,
      "velocity": 91,
      "chip": "ym2612"
    },
    {
      "channel": 2,
      "note": 52,
      "start": 17.971,
      "duration": 0.0168,
      "velocity": 91,
      "chip": "ym2612"
    },
    {
      "channel": 0,
      "note": 59,
      "start": 17.9872,
      "duration": 0.0403,
      "velocity": 102,
      "chip": "ym2612"
    },
    {
      "channel": 2,
      "note": 52,
      "start": 17.9924,
      "duration": 0.0189,
      "velocity": 91,
      "chip": "ym2612"
    },
    {
      "channel": 2,
      "note": 52,
      "start": 18.0138,
      "duration": 0.0167,
      "velocity": 91,
      "chip": "ym2612"
    },
    {
      "channel": 0,
      "note": 64,
      "start": 18.0299,
      "duration": 0.0784,
      "velocity": 102,
      "chip": "ym2612"
    },
    {
      "channel": 1,
      "note": 59,
      "start": 18.0351,
      "duration": 0.0341,
      "velocity": 102,
      "chip": "ym2612"
    },
    {
      "channel": 2,
      "note": 52,
      "start": 18.0355,
      "duration": 0.0163,
      "velocity": 91,
      "chip": "ym2612"
    },
    {
      "channel": 3,
      "note": 76,
      "start": 18.0361,
      "duration": 0.2955,
      "velocity": 99,
      "chip": "ym2612"
    },
    {
      "channel": 4,
      "note": 71,
      "start": 18.0368,
      "duration": 0.2954,
      "velocity": 99,
      "chip": "ym2612"
    },
    {
      "channel": 1,
      "note": 64,
      "start": 18.0732,
      "duration": 0.1432,
      "velocity": 102,
      "chip": "ym2612"
    },
    {
      "channel": 2,
      "note": 52,
      "start": 18.0737,
      "duration": 0.019,
      "velocity": 91,
      "chip": "ym2612"
    },
    {
      "channel": 0,
      "note": 61,
      "start": 18.1108,
      "duration": 0.2027,
      "velocity": 102,
      "chip": "ym2612"
    },
    {
      "channel": 1,
      "note": 61,
      "start": 18.2337,
      "duration": 0.1495,
      "velocity": 102,
      "chip": "ym2612"
    },
    {
      "channel": 0,
      "note": 66,
      "start": 18.3308,
      "duration": 0.2514,
      "velocity": 102,
      "chip": "ym2612"
    },
    {
      "channel": 2,
      "note": 54,
      "start": 18.3485,
      "duration": 0.0167,
      "velocity": 91,
      "chip": "ym2612"
    },
    {
      "channel": 1,
      "note": 66,
      "start": 18.3857,
      "duration": 0.3053,
      "velocity": 102,
      "chip": "ym2612"
    },
    {
      "channel": 2,
      "note": 54,
      "start": 18.3862,
      "duration": 0.0167,
      "velocity": 91,
      "chip": "ym2612"
    },
    {
      "channel": 2,
      "note": 54,
      "start": 18.427,
      "duration": 0.0167,
      "velocity": 91,
      "chip": "ym2612"
    },
    {
      "channel": 3,
      "note": 80,
      "start": 18.4276,
      "duration": 0.0787,
      "velocity": 99,
      "chip": "ym2612"
    },
    {
      "channel": 4,
      "note": 76,
      "start": 18.4282,
      "duration": 0.0784,
      "velocity": 99,
      "chip": "ym2612"
    },
    {
      "channel": 2,
      "note": 54,
      "start": 18.447,
      "duration": 0.0162,
      "velocity": 91,
      "chip": "ym2612"
    },
    {
      "channel": 2,
      "note": 54,
      "start": 18.4664,
      "duration": 0.0162,
      "velocity": 91,
      "chip": "ym2612"
    },
    {
      "channel": 2,
      "note": 54,
      "start": 18.4865,
      "duration": 0.0194,
      "velocity": 91,
      "chip": "ym2612"
    },
    {
      "channel": 2,
      "note": 54,
      "start": 18.5098,
      "duration": 0.0169,
      "velocity": 91,
      "chip": "ym2612"
    },
    {
      "channel": 3,
      "note": 73,
      "start": 18.5104,
      "duration": 0.0752,
      "velocity": 99,
      "chip": "ym2612"
    },
    {
      "channel": 4,
      "note": 69,
      "start": 18.511,
      "duration": 0.075,
      "velocity": 99,
      "chip": "ym2612"
    },
    {
      "channel": 2,
      "note": 54,
      "start": 18.5481,
      "duration": 0.0158,
      "velocity": 91,
      "chip": "ym2612"
    },
    {
      "channel": 0,
      "note": 68,
      "start": 18.5848,
      "duration": 0.0885,
      "velocity": 102,
      "chip": "ym2612"
    },
    {
      "channel": 3,
      "note": 78,
      "start": 18.5882,
      "duration": 0.1034,
      "velocity": 99,
      "chip": "ym2612"
    },
    {
      "channel": 4,
      "note": 73,
      "start": 18.5889,
      "duration": 0.1031,
      "velocity": 99,
      "chip": "ym2612"
    },
    {
      "channel": 0,
      "note": 69,
      "start": 18.6907,
      "duration": 0.0936,
      "velocity": 102,
      "chip": "ym2612"
    },
    {
      "channel": 1,
      "note": 68,
      "start": 18.7081,
      "duration": 0.0945,
      "velocity": 102,
      "chip": "ym2612"
    },
    {
      "channel": 3,
      "note": 76,
      "start": 18.7089,
      "duration": 0.0943,
      "velocity": 99,
      "chip": "ym2612"
    },
    {
      "channel": 4,
      "note": 71,
      "start": 18.7095,
      "duration": 0.0941,
      "velocity": 99,
      "chip": "ym2612"
    },
    {
      "channel": 0,
      "note": 71,
      "start": 18.8017,
      "duration": 0.131,
      "velocity": 102,
      "chip": "ym2612"
    },
    {
      "channel": 1,
      "note": 69,
      "start": 18.8196,
      "duration": 0.0353,
      "velocity": 102,
      "chip": "ym2612"
    },
    {
      "channel": 2,
      "note": 52,
      "start": 18.8201,
      "duration": 0.017,
      "velocity": 91,
      "chip": "ym2612"
    },
    {
      "channel": 3,
      "note": 78,
      "start": 18.8208,
      "duration": 0.1557,
      "velocity": 99,
      "chip": "ym2612"
    },
    {
      "channel": 4,
      "note": 73,
      "start": 18.8214,
      "duration": 0.1555,
      "velocity": 99,
      "chip": "ym2612"
    },
    {
      "channel": 1,
      "note": 71,
      "start": 18.8582,
      "duration": 0.1177,
      "velocity": 102,
      "chip": "ym2612"
    },
    {
      "channel": 2,
      "note": 52,
      "start": 18.8586,
      "duration": 0.0159,
      "velocity": 91,
      "chip": "ym2612"
    },
    {
      "channel": 2,
      "note": 52,
      "start": 18.8983,
      "duration": 0.0183,
      "velocity": 91,
      "chip": "ym2612"
    },
    {
      "channel": 2,
      "note": 52,
      "start": 18.9191,
      "duration": 0.0166,
      "velocity": 91,
      "chip": "ym2612"
    },
    {
      "channel": 0,
      "note": 68,
      "start": 18.9351,
      "duration": 0.038,
      "velocity": 102,
      "chip": "ym2612"
    },
    {
      "channel": 2,
      "note": 52,
      "start": 18.9397,
      "duration": 0.0165,
      "velocity": 91,
      "chip": "ym2612"
    },
    {
      "channel": 2,
      "note": 52,
      "start": 18.9597,
      "duration": 0.0164,
      "velocity": 91,
      "chip": "ym2612"
    },
    {
      "channel": 0,
      "note": 68,
      "start": 18.9756,
      "duration": 0.0778,
      "velocity": 102,
      "chip": "ym2612"
    },
    {
      "channel": 1,
      "note": 68,
      "start": 18.9807,
      "duration": 0.0374,
      "velocity": 102,
      "chip": "ym2612"
    },
    {
      "channel": 2,
      "note": 52,
      "start": 18.9812,
      "duration": 0.0192,
      "velocity": 91,
      "chip": "ym2612"
    },
    {
      "channel": 3,
      "note": 80,
      "start": 18.9818,
      "duration": 0.2956,
      "velocity": 99,
      "chip": "ym2612"
    },
    {
      "channel": 4,
      "note": 76,
      "start": 18.983,
      "duration": 0.2948,
      "velocity": 99,
      "chip": "ym2612"
    },
    {
      "channel": 1,
      "note": 68,
      "start": 19.0216,
      "duration": 0.1443,
      "velocity": 102,
      "chip": "ym2612"
    },
    {
      "channel": 2,
      "note": 52,
      "start": 19.0221,
      "duration": 0.0162,
      "velocity": 91,
      "chip": "ym2612"
    },
    {
      "channel": 0,
      "note": 61,
      "start": 19.0562,
      "duration": 0.203,
      "velocity": 102,
      "chip": "ym2612"
    },
    {
      "channel": 1,
      "note": 61,
      "start": 19.1832,
      "duration": 0.1474,
      "velocity": 102,
      "chip": "ym2612"
    },
    {
      "channel": 0,
      "note": 66,
      "start": 19.2766,
      "duration": 0.2498,
      "velocity": 102,
      "chip": "ym2612"
    },
    {
      "channel": 2,
      "note": 54,
      "start": 19.2943,
      "duration": 0.0175,
      "velocity": 91,
      "chip": "ym2612"
    },
    {
      "channel": 1,
      "note": 66,
      "start": 19.3341,
      "duration": 0.3014,
      "velocity": 102,
      "chip": "ym2612"
    },
    {
      "channel": 2,
      "note": 54,
      "start": 19.3346,
      "duration": 0.0158,
      "velocity": 91,
      "chip": "ym2612"
    },
    {
      "channel": 2,
      "note": 54,
      "start": 19.3724,
      "duration": 0.0162,
      "velocity": 91,
      "chip": "ym2612"
    },
    {
      "channel": 3,
      "note": 76,
      "start": 19.373,
      "duration": 0.0766,
      "velocity": 99,
      "chip": "ym2612"
    },
    {
      "channel": 4,
      "note": 71,
      "start": 19.3736,
      "duration": 0.0764,
      "velocity": 99,
      "chip": "ym2612"
    },
    {
      "channel": 2,
      "note": 54,
      "start": 19.3922,
      "duration": 0.0187,
      "velocity": 91,
      "chip": "ym2612"
    },
    {
      "channel": 2,
      "note": 54,
      "start": 19.4133,
      "duration": 0.0163,
      "velocity": 91,
      "chip": "ym2612"
    },
    {
      "channel": 2,
      "note": 54,
      "start": 19.433,
      "duration": 0.0164,
      "velocity": 91,
      "chip": "ym2612"
    },
    {
      "channel": 2,
      "note": 54,
      "start": 19.4537,
      "duration": 0.0166,
      "velocity": 91,
      "chip": "ym2612"
    },
    {
      "channel": 3,
      "note": 73,
      "start": 19.4543,
      "duration": 0.0754,
      "velocity": 99,
      "chip": "ym2612"
    },
    {
      "channel": 4,
      "note": 69,
      "start": 19.4549,
      "duration": 0.0751,
      "velocity": 99,
      "chip": "ym2612"
    },
    {
      "channel": 2,
      "note": 54,
      "start": 19.4942,
      "duration": 0.0161,
      "velocity": 91,
      "chip": "ym2612"
    },
    {
      "channel": 0,
      "note": 68,
      "start": 19.5288,
      "duration": 0.0885,
      "velocity": 102,
      "chip": "ym2612"
    },
    {
      "channel": 3,
      "note": 78,
      "start": 19.5322,
      "duration": 0.1039,
      "velocity": 99,
      "chip": "ym2612"
    },
    {
      "channel": 4,
      "note": 73,
      "start": 19.5329,
      "duration": 0.1036,
      "velocity": 99,
      "chip": "ym2612"
    },
    {
      "channel": 0,
      "note": 69,
      "start": 19.6351,
      "duration": 0.0934,
      "velocity": 102,
      "chip": "ym2612"
    },
    {
      "channel": 1,
      "note": 68,
      "start": 19.6523,
      "duration": 0.0939,
      "velocity": 102,
      "chip": "ym2612"
    },
    {
      "channel": 3,
      "note": 76,
      "start": 19.6531,
      "duration": 0.0937,
      "velocity": 99,
      "chip": "ym2612"
    },
    {
      "channel": 4,
      "note": 71,
      "start": 19.6538,
      "duration": 0.0934,
      "velocity": 99,
      "chip": "ym2612"
    },
    {
      "channel": 0,
      "note": 68,
      "start": 19.7459,
      "duration": 0.1302,
      "velocity": 102,
      "chip": "ym2612"
    },
    {
      "channel": 1,
      "note": 69,
      "start": 19.7632,
      "duration": 0.0349,
      "velocity": 102,
      "chip": "ym2612"
    },
    {
      "channel": 2,
      "note": 52,
      "start": 19.7638,
      "duration": 0.0162,
      "velocity": 91,
      "chip": "ym2612"
    },
    {
      "channel": 3,
      "note": 78,
      "start": 19.7643,
      "duration": 0.1574,
      "velocity": 99,
      "chip": "ym2612"
    },
    {
      "channel": 4,
      "note": 73,
      "start": 19.765,
      "duration": 0.1572,
      "velocity": 99,
      "chip": "ym2612"
    },
    {
      "channel": 1,
      "note": 68,
      "start": 19.8026,
      "duration": 0.1185,
      "velocity": 102,
      "chip": "ym2612"
    },
    {
      "channel": 2,
      "note": 52,
      "start": 19.8037,
      "duration": 0.0171,
      "velocity": 91,
      "chip": "ym2612"
    },
    {
      "channel": 2,
      "note": 52,
      "start": 19.8427,
      "duration": 0.0165,
      "velocity": 91,
      "chip": "ym2612"
    },
    {
      "channel": 2,
      "note": 52,
      "start": 19.8625,
      "duration": 0.0166,
      "velocity": 91,
      "chip": "ym2612"
    },
    {
      "channel": 0,
      "note": 59,
      "start": 19.8786,
      "duration": 0.0398,
      "velocity": 102,
      "chip": "ym2612"
    },
    {
      "channel": 2,
      "note": 52,
      "start": 19.8836,
      "duration": 0.0189,
      "velocity": 91,
      "chip": "ym2612"
    },
    {
      "channel": 2,
      "note": 52,
      "start": 19.9049,
      "duration": 0.0165,
      "velocity": 91,
      "chip": "ym2612"
    },
    {
      "channel": 0,
      "note": 64,
      "start": 19.9208,
      "duration": 0.0772,
      "velocity": 102,
      "chip": "ym2612"
    },
    {
      "channel": 1,
      "note": 59,
      "start": 19.9254,
      "duration": 0.0342,
      "velocity": 102,
      "chip": "ym2612"
    },
    {
      "channel": 2,
      "note": 52,
      "start": 19.9259,
      "duration": 0.0159,
      "velocity": 91,
      "chip": "ym2612"
    },
    {
      "channel": 3,
      "note": 76,
      "start": 19.9265,
      "duration": 0.0752,
      "velocity": 99,
      "chip": "ym2612"
    },
    {
      "channel": 4,
      "note": 71,
      "start": 19.9271,
      "duration": 0.0749,
      "velocity": 99,
      "chip": "ym2612"
    },
    {
      "channel": 1,
      "note": 64,
      "start": 19.9636,
      "duration": 0.144,
      "velocity": 102,
      "chip": "ym2612"
    },
    {
      "channel": 2,
      "note": 52,
      "start": 19.9641,
      "duration": 0.0187,
      "velocity": 91,
      "chip": "ym2612"
    },
    {
      "channel": 0,
      "note": 62,
      "start": 20.0008,
      "duration": 0.0891,
      "velocity": 102,
      "chip": "ym2612"
    },
    {
      "channel": 3,
      "note": 80,
      "start": 20.0042,
      "duration": 0.104,
      "velocity": 99,
      "chip": "ym2612"
    },
    {
      "channel": 4,
      "note": 76,
      "start": 20.0048,
      "duration": 0.1037,
      "velocity": 99,
      "chip": "ym2612"
    },
    {
      "channel": 0,
      "note": 64,
      "start": 20.1073,
      "duration": 0.0957,
      "velocity": 102,
      "chip": "ym2612"
    },
    {
      "channel": 1,
      "note": 62,
      "start": 20.1247,
      "duration": 0.0959,
      "velocity": 102,
      "chip": "ym2612"
    },
    {
      "channel": 3,
      "note": 78,
      "start": 20.1256,
      "duration": 0.0957,
      "velocity": 99,
      "chip": "ym2612"
    },
    {
      "channel": 4,
      "note": 74,
      "start": 20.1262,
      "duration": 0.0954,
      "velocity": 99,
      "chip": "ym2612"
    },
    {
      "channel": 0,
      "note": 66,
      "start": 20.2203,
      "duration": 0.2144,
      "velocity": 102,
      "chip": "ym2612"
    },
    {
      "channel": 1,
      "note": 64,
      "start": 20.2377,
      "duration": 0.0347,
      "velocity": 102,
      "chip": "ym2612"
    },
    {
      "channel": 2,
      "note": 50,
      "start": 20.2383,
      "duration": 0.0164,
      "velocity": 91,
      "chip": "ym2612"
    },
    {
      "channel": 3,
      "note": 80,
      "start": 20.2389,
      "duration": 0.2397,
      "velocity": 99,
      "chip": "ym2612"
    },
    {
      "channel": 4,
      "note": 76,
      "start": 20.2395,
      "duration": 0.2395,
      "velocity": 99,
      "chip": "ym2612"
    },
    {
      "channel": 1,
      "note": 66,
      "start": 20.276,
      "duration": 0.1614,
      "velocity": 102,
      "chip": "ym2612"
    },
    {
      "channel": 2,
      "note": 50,
      "start": 20.2765,
      "duration": 0.0163,
      "velocity": 91,
      "chip": "ym2612"
    },
    {
      "channel": 2,
      "note": 50,
      "start": 20.3172,
      "duration": 0.0162,
      "velocity": 91,
      "chip": "ym2612"
    },
    {
      "channel": 2,
      "note": 50,
      "start": 20.3366,
      "duration": 0.0171,
      "velocity": 91,
      "chip": "ym2612"
    },
    {
      "channel": 2,
      "note": 50,
      "start": 20.3579,
      "duration": 0.0172,
      "velocity": 91,
      "chip": "ym2612"
    },
    {
      "channel": 2,
      "note": 50,
      "start": 20.378,
      "duration": 0.02,
      "velocity": 91,
      "chip": "ym2612"
    },
    {
      "channel": 2,
      "note": 50,
      "start": 20.402,
      "duration": 0.0166,
      "velocity": 91,
      "chip": "ym2612"
    },
    {
      "channel": 0,
      "note": 62,
      "start": 20.4371,
      "duration": 0.0376,
      "velocity": 102,
      "chip": "ym2612"
    },
    {
      "channel": 1,
      "note": 66,
      "start": 20.44,
      "duration": 0.0381,
      "velocity": 102,
      "chip": "ym2612"
    },
    {
      "channel": 2,
      "note": 50,
      "start": 20.4405,
      "duration": 0.0163,
      "velocity": 91,
      "chip": "ym2612"
    },
    {
      "channel": 0,
      "note": 64,
      "start": 20.4778,
      "duration": 0.0886,
      "velocity": 102,
      "chip": "ym2612"
    },
    {
      "channel": 1,
      "note": 62,
      "start": 20.4807,
      "duration": 0.1034,
      "velocity": 102,
      "chip": "ym2612"
    },
    {
      "channel": 3,
      "note": 81,
      "start": 20.4815,
      "duration": 0.1031,
      "velocity": 99,
      "chip": "ym2612"
    },
    {
      "channel": 4,
      "note": 78,
      "start": 20.4822,
      "duration": 0.1029,
      "velocity": 99,
      "chip": "ym2612"
    },
    {
      "channel": 0,
      "note": 66,
      "start": 20.5837,
      "duration": 0.0941,
      "velocity": 102,
      "chip": "ym2612"
    },
    {
      "channel": 1,
      "note": 64,
      "start": 20.6011,
      "duration": 0.0944,
      "velocity": 102,
      "chip": "ym2612"
    },
    {
      "channel": 2,
      "note": 50,
      "start": 20.6016,
      "duration": 0.0947,
      "velocity": 91,
      "chip": "ym2612"
    },
    {
      "channel": 3,
      "note": 80,
      "start": 20.6022,
      "duration": 0.0945,
      "velocity": 99,
      "chip": "ym2612"
    },
    {
      "channel": 4,
      "note": 76,
      "start": 20.6028,
      "duration": 0.0942,
      "velocity": 99,
      "chip": "ym2612"
    },
    {
      "channel": 0,
      "note": 68,
      "start": 20.6952,
      "duration": 0.17,
      "velocity": 102,
      "chip": "ym2612"
    },
    {
      "channel": 1,
      "note": 66,
      "start": 20.7132,
      "duration": 0.0347,
      "velocity": 102,
      "chip": "ym2612"
    },
    {
      "channel": 2,
      "note": 52,
      "start": 20.7137,
      "duration": 0.017,
      "velocity": 91,
      "chip": "ym2612"
    },
    {
      "channel": 3,
      "note": 81,
      "start": 20.7143,
      "duration": 0.1543,
      "velocity": 99,
      "chip": "ym2612"
    },
    {
      "channel": 4,
      "note": 78,
      "start": 20.7149,
      "duration": 0.1541,
      "velocity": 99,
      "chip": "ym2612"
    },
    {
      "channel": 1,
      "note": 68,
      "start": 20.7512,
      "duration": 0.1592,
      "velocity": 102,
      "chip": "ym2612"
    },
    {
      "channel": 2,
      "note": 52,
      "start": 20.7517,
      "duration": 0.0158,
      "velocity": 91,
      "chip": "ym2612"
    },
    {
      "channel": 2,
      "note": 52,
      "start": 20.7908,
      "duration": 0.0185,
      "velocity": 91,
      "chip": "ym2612"
    },
    {
      "channel": 2,
      "note": 52,
      "start": 20.8119,
      "duration": 0.0172,
      "velocity": 91,
      "chip": "ym2612"
    },
    {
      "channel": 2,
      "note": 52,
      "start": 20.8316,
      "duration": 0.0168,
      "velocity": 91,
      "chip": "ym2612"
    },
    {
      "channel": 2,
      "note": 52,
      "start": 20.8513,
      "duration": 0.017,
      "velocity": 91,
      "chip": "ym2612"
    },
    {
      "channel": 0,
      "note": 64,
      "start": 20.8677,
      "duration": 0.2825,
      "velocity": 102,
      "chip": "ym2612"
    },
    {
      "channel": 2,
      "note": 52,
      "start": 20.8724,
      "duration": 0.0203,
      "velocity": 91,
      "chip": "ym2612"
    },
    {
      "channel": 3,
      "note": 83,
      "start": 20.873,
      "duration": 0.2955,
      "velocity": 99,
      "chip": "ym2612"
    },
    {
      "channel": 4,
      "note": 80,
      "start": 20.8736,
      "duration": 0.2953,
      "velocity": 99,
      "chip": "ym2612"
    },
    {
      "channel": 1,
      "note": 64,
      "start": 20.9136,
      "duration": 0.309,
      "velocity": 102,
      "chip": "ym2612"
    },
    {
      "channel": 2,
      "note": 52,
      "start": 20.9141,
      "duration": 0.0153,
      "velocity": 91,
      "chip": "ym2612"
    },
    {
      "channel": 2,
      "note": 56,
      "start": 21.0741,
      "duration": 0.0941,
      "velocity": 91,
      "chip": "ym2612"
    },
    {
      "channel": 0,
      "note": 66,
      "start": 21.1676,
      "duration": 0.7352,
      "velocity": 102,
      "chip": "ym2612"
    },
    {
      "channel": 2,
      "note": 54,
      "start": 21.1852,
      "duration": 0.0179,
      "velocity": 91,
      "chip": "ym2612"
    },
    {
      "channel": 3,
      "note": 88,
      "start": 21.1858,
      "duration": 0.4593,
      "velocity": 99,
      "chip": "ym2612"
    },
    {
      "channel": 4,
      "note": 83,
      "start": 21.1864,
      "duration": 0.4591,
      "velocity": 99,
      "chip": "ym2612"
    },
    {
      "channel": 1,
      "note": 66,
      "start": 21.2255,
      "duration": 0.7778,
      "velocity": 102,
      "chip": "ym2612"
    },
    {
      "channel": 2,
      "note": 54,
      "start": 21.226,
      "duration": 0.0132,
      "velocity": 91,
      "chip": "ym2612"
    },
    {
      "channel": 2,
      "note": 54,
      "start": 21.2428,
      "duration": 0.0092,
      "velocity": 91,
      "chip": "ym2612"
    },
    {
      "channel": 2,
      "note": 54,
      "start": 21.2552,
      "duration": 0.0071,
      "velocity": 91,
      "chip": "ym2612"
    },
    {
      "channel": 2,
      "note": 54,
      "start": 21.2662,
      "duration": 0.0165,
      "velocity": 91,
      "chip": "ym2612"
    },
    {
      "channel": 2,
      "note": 54,
      "start": 21.3091,
      "duration": 0.0145,
      "velocity": 91,
      "chip": "ym2612"
    },
    {
      "channel": 2,
      "note": 54,
      "start": 21.3264,
      "duration": 0.0095,
      "velocity": 91,
      "chip": "ym2612"
    },
    {
      "channel": 2,
      "note": 54,
      "start": 21.339,
      "duration": 0.0076,
      "velocity": 91,
      "chip": "ym2612"
    },
    {
      "channel": 2,
      "note": 54,
      "start": 21.3503,
      "duration": 0.0166,
      "velocity": 91,
      "chip": "ym2612"
    },
    {
      "channel": 2,
      "note": 54,
      "start": 21.3932,
      "duration": 0.0166,
      "velocity": 91,
      "chip": "ym2612"
    },
    {
      "channel": 2,
      "note": 52,
      "start": 21.5514,
      "duration": 0.0934,
      "velocity": 91,
      "chip": "ym2612"
    },
    {
      "channel": 2,
      "note": 54,
      "start": 21.6621,
      "duration": 0.017,
      "velocity": 91,
      "chip": "ym2612"
    },
    {
      "channel": 3,
      "note": 85,
      "start": 21.6627,
      "duration": 0.3962,
      "velocity": 99,
      "chip": "ym2612"
    },
    {
      "channel": 4,
      "note": 81,
      "start": 21.6633,
      "duration": 0.3959,
      "velocity": 99,
      "chip": "ym2612"
    },
    {
      "channel": 2,
      "note": 54,
      "start": 21.7013,
      "duration": 0.0156,
      "velocity": 91,
      "chip": "ym2612"
    },
    {
      "channel": 2,
      "note": 54,
      "start": 21.7195,
      "duration": 0.0095,
      "velocity": 91,
      "chip": "ym2612"
    },
    {
      "channel": 2,
      "note": 54,
      "start": 21.7321,
      "duration": 0.0076,
      "velocity": 91,
      "chip": "ym2612"
    },
    {
      "channel": 2,
      "note": 54,
      "start": 21.7433,
      "duration": 0.0169,
      "velocity": 91,
      "chip": "ym2612"
    },
    {
      "channel": 2,
      "note": 54,
      "start": 21.7825,
      "duration": 0.0175,
      "velocity": 91,
      "chip": "ym2612"
    },
    {
      "channel": 2,
      "note": 54,
      "start": 21.8045,
      "duration": 0.0095,
      "velocity": 91,
      "chip": "ym2612"
    },
    {
      "channel": 2,
      "note": 54,
      "start": 21.817,
      "duration": 0.0076,
      "velocity": 91,
      "chip": "ym2612"
    },
    {
      "channel": 2,
      "note": 54,
      "start": 21.8283,
      "duration": 0.0776,
      "velocity": 91,
      "chip": "ym2612"
    },
    {
      "channel": 0,
      "note": 61,
      "start": 21.9054,
      "duration": 0.1502,
      "velocity": 102,
      "chip": "ym2612"
    },
    {
      "channel": 2,
      "note": 52,
      "start": 21.9097,
      "duration": 0.1489,
      "velocity": 91,
      "chip": "ym2612"
    },
    {
      "channel": 1,
      "note": 61,
      "start": 22.0207,
      "duration": 0.0741,
      "velocity": 102,
      "chip": "ym2612"
    },
    {
      "channel": 0,
      "note": 66,
      "start": 22.0581,
      "duration": 0.2373,
      "velocity": 102,
      "chip": "ym2612"
    },
    {
      "channel": 2,
      "note": 54,
      "start": 22.0613,
      "duration": 0.0162,
      "velocity": 91,
      "chip": "ym2612"
    },
    {
      "channel": 1,
      "note": 66,
      "start": 22.0988,
      "duration": 0.3072,
      "velocity": 102,
      "chip": "ym2612"
    },
    {
      "channel": 2,
      "note": 54,
      "start": 22.0994,
      "duration": 0.0161,
      "velocity": 91,
      "chip": "ym2612"
    },
    {
      "channel": 2,
      "note": 54,
      "start": 22.1404,
      "duration": 0.0166,
      "velocity": 91,
      "chip": "ym2612"
    },
    {
      "channel": 3,
      "note": 85,
      "start": 22.141,
      "duration": 0.0784,
      "velocity": 99,
      "chip": "ym2612"
    },
    {
      "channel": 4,
      "note": 81,
      "start": 22.1417,
      "duration": 0.0781,
      "velocity": 99,
      "chip": "ym2612"
    },
    {
      "channel": 2,
      "note": 54,
      "start": 22.16,
      "duration": 0.0166,
      "velocity": 91,
      "chip": "ym2612"
    },
    {
      "channel": 2,
      "note": 54,
      "start": 22.1796,
      "duration": 0.0162,
      "velocity": 91,
      "chip": "ym2612"
    },
    {
      "channel": 2,
      "note": 54,
      "start": 22.1993,
      "duration": 0.0198,
      "velocity": 91,
      "chip": "ym2612"
    },
    {
      "channel": 2,
      "note": 54,
      "start": 22.2234,
      "duration": 0.0173,
      "velocity": 91,
      "chip": "ym2612"
    },
    {
      "channel": 3,
      "note": 73,
      "start": 22.224,
      "duration": 0.0761,
      "velocity": 99,
      "chip": "ym2612"
    },
    {
      "channel": 4,
      "note": 69,
      "start": 22.2246,
      "duration": 0.0758,
      "velocity": 99,
      "chip": "ym2612"
    },
    {
      "channel": 2,
      "note": 54,
      "start": 22.2618,
      "duration": 0.0161,
      "velocity": 91,
      "chip": "ym2612"
    },
    {
      "channel": 0,
      "note": 68,
      "start": 22.2991,
      "duration": 0.0892,
      "velocity": 102,
      "chip": "ym2612"
    },
    {
      "channel": 3,
      "note": 78,
      "start": 22.3031,
      "duration": 0.1035,
      "velocity": 99,
      "chip": "ym2612"
    },
    {
      "channel": 4,
      "note": 73,
      "start": 22.3037,
      "duration": 0.1032,
      "velocity": 99,
      "chip": "ym2612"
    },
    {
      "channel": 0,
      "note": 69,
      "start": 22.4057,
      "duration": 0.0933,
      "velocity": 102,
      "chip": "ym2612"
    },
    {
      "channel": 1,
      "note": 68,
      "start": 22.4231,
      "duration": 0.0936,
      "velocity": 102,
      "chip": "ym2612"
    },
    {
      "channel": 3,
      "note": 76,
      "start": 22.4239,
      "duration": 0.094,
      "velocity": 99,
      "chip": "ym2612"
    },
    {
      "channel": 4,
      "note": 71,
      "start": 22.4245,
      "duration": 0.0938,
      "velocity": 99,
      "chip": "ym2612"
    },
    {
      "channel": 0,
      "note": 68,
      "start": 22.5164,
      "duration": 0.1307,
      "velocity": 102,
      "chip": "ym2612"
    },
    {
      "channel": 1,
      "note": 69,
      "start": 22.5339,
      "duration": 0.0352,
      "velocity": 102,
      "chip": "ym2612"
    },
    {
      "channel": 2,
      "note": 52,
      "start": 22.5348,
      "duration": 0.0173,
      "velocity": 91,
      "chip": "ym2612"
    },
    {
      "channel": 3,
      "note": 78,
      "start": 22.5354,
      "duration": 0.1557,
      "velocity": 99,
      "chip": "ym2612"
    },
    {
      "channel": 4,
      "note": 73,
      "start": 22.5361,
      "duration": 0.1555,
      "velocity": 99,
      "chip": "ym2612"
    },
    {
      "channel": 1,
      "note": 68,
      "start": 22.5723,
      "duration": 0.1182,
      "velocity": 102,
      "chip": "ym2612"
    },
    {
      "channel": 2,
      "note": 52,
      "start": 22.5729,
      "duration": 0.0161,
      "velocity": 91,
      "chip": "ym2612"
    },
    {
      "channel": 2,
      "note": 52,
      "start": 22.6116,
      "duration": 0.0186,
      "velocity": 91,
      "chip": "ym2612"
    },
    {
      "channel": 2,
      "note": 52,
      "start": 22.6328,
      "duration": 0.0174,
      "velocity": 91,
      "chip": "ym2612"
    },
    {
      "channel": 0,
      "note": 59,
      "start": 22.6497,
      "duration": 0.0381,
      "velocity": 102,
      "chip": "ym2612"
    },
    {
      "channel": 2,
      "note": 52,
      "start": 22.6542,
      "duration": 0.0169,
      "velocity": 91,
      "chip": "ym2612"
    },
    {
      "channel": 2,
      "note": 52,
      "start": 22.6742,
      "duration": 0.0166,
      "velocity": 91,
      "chip": "ym2612"
    },
    {
      "channel": 0,
      "note": 64,
      "start": 22.6902,
      "duration": 0.0776,
      "velocity": 102,
      "chip": "ym2612"
    },
    {
      "channel": 1,
      "note": 59,
      "start": 22.6949,
      "duration": 0.0371,
      "velocity": 102,
      "chip": "ym2612"
    },
    {
      "channel": 2,
      "note": 52,
      "start": 22.6954,
      "duration": 0.0197,
      "velocity": 91,
      "chip": "ym2612"
    },
    {
      "channel": 3,
      "note": 76,
      "start": 22.696,
      "duration": 0.2947,
      "velocity": 99,
      "chip": "ym2612"
    },
    {
      "channel": 4,
      "note": 71,
      "start": 22.6966,
      "duration": 0.2945,
      "velocity": 99,
      "chip": "ym2612"
    },
    {
      "channel": 1,
      "note": 64,
      "start": 22.7355,
      "duration": 0.1434,
      "velocity": 102,
      "chip": "ym2612"
    },
    {
      "channel": 2,
      "note": 52,
      "start": 22.736,
      "duration": 0.0158,
      "velocity": 91,
      "chip": "ym2612"
    },
    {
      "channel": 0,
      "note": 61,
      "start": 22.7703,
      "duration": 0.2022,
      "velocity": 102,
      "chip": "ym2612"
    },
    {
      "channel": 1,
      "note": 61,
      "start": 22.8963,
      "duration": 0.1474,
      "velocity": 102,
      "chip": "ym2612"
    },
    {
      "channel": 0,
      "note": 66,
      "start": 22.9898,
      "duration": 0.2498,
      "velocity": 102,
      "chip": "ym2612"
    },
    {
      "channel": 2,
      "note": 54,
      "start": 23.0076,
      "duration": 0.0164,
      "velocity": 91,
      "chip": "ym2612"
    },
    {
      "channel": 1,
      "note": 66,
      "start": 23.0472,
      "duration": 0.3012,
      "velocity": 102,
      "chip": "ym2612"
    },
    {
      "channel": 2,
      "note": 54,
      "start": 23.0477,
      "duration": 0.0153,
      "velocity": 91,
      "chip": "ym2612"
    },
    {
      "channel": 2,
      "note": 54,
      "start": 23.0852,
      "duration": 0.0167,
      "velocity": 91,
      "chip": "ym2612"
    },
    {
      "channel": 3,
      "note": 80,
      "start": 23.0858,
      "duration": 0.0777,
      "velocity": 99,
      "chip": "ym2612"
    },
    {
      "channel": 4,
      "note": 76,
      "start": 23.0864,
      "duration": 0.0775,
      "velocity": 99,
      "chip": "ym2612"
    },
    {
      "channel": 2,
      "note": 54,
      "start": 23.1049,
      "duration": 0.0191,
      "velocity": 91,
      "chip": "ym2612"
    },
    {
      "channel": 2,
      "note": 54,
      "start": 23.1266,
      "duration": 0.0162,
      "velocity": 91,
      "chip": "ym2612"
    },
    {
      "channel": 2,
      "note": 54,
      "start": 23.1462,
      "duration": 0.017,
      "velocity": 91,
      "chip": "ym2612"
    },
    {
      "channel": 2,
      "note": 54,
      "start": 23.1675,
      "duration": 0.0166,
      "velocity": 91,
      "chip": "ym2612"
    },
    {
      "channel": 3,
      "note": 73,
      "start": 23.1681,
      "duration": 0.0748,
      "velocity": 99,
      "chip": "ym2612"
    },
    {
      "channel": 4,
      "note": 69,
      "start": 23.1687,
      "duration": 0.0746,
      "velocity": 99,
      "chip": "ym2612"
    },
    {
      "channel": 2,
      "note": 54,
      "start": 23.2083,
      "duration": 0.0158,
      "velocity": 91,
      "chip": "ym2612"
    },
    {
      "channel": 0,
      "note": 68,
      "start": 23.2421,
      "duration": 0.0885,
      "velocity": 102,
      "chip": "ym2612"
    },
    {
      "channel": 3,
      "note": 78,
      "start": 23.2456,
      "duration": 0.1038,
      "velocity": 99,
      "chip": "ym2612"
    },
    {
      "channel": 4,
      "note": 73,
      "start": 23.2462,
      "duration": 0.1035,
      "velocity": 99,
      "chip": "ym2612"
    },
    {
      "channel": 0,
      "note": 69,
      "start": 23.3479,
      "duration": 0.0944,
      "velocity": 102,
      "chip": "ym2612"
    },
    {
      "channel": 1,
      "note": 68,
      "start": 23.3659,
      "duration": 0.0941,
      "velocity": 102,
      "chip": "ym2612"
    },
    {
      "channel": 3,
      "note": 76,
      "start": 23.3668,
      "duration": 0.0938,
      "velocity": 99,
      "chip": "ym2612"
    },
    {
      "channel": 4,
      "note": 71,
      "start": 23.3674,
      "duration": 0.0935,
      "velocity": 99,
      "chip": "ym2612"
    },
    {
      "channel": 0,
      "note": 71,
      "start": 23.4597,
      "duration": 0.1317,
      "velocity": 102,
      "chip": "ym2612"
    },
    {
      "channel": 1,
      "note": 69,
      "start": 23.477,
      "duration": 0.0357,
      "velocity": 102,
      "chip": "ym2612"
    },
    {
      "channel": 2,
      "note": 52,
      "start": 23.4775,
      "duration": 0.0166,
      "velocity": 91,
      "chip": "ym2612"
    },
    {
      "channel": 3,
      "note": 78,
      "start": 23.4781,
      "duration": 0.1606,
      "velocity": 99,
      "chip": "ym2612"
    },
    {
      "channel": 4,
      "note": 73,
      "start": 23.4788,
      "duration": 0.1604,
      "velocity": 99,
      "chip": "ym2612"
    },
    {
      "channel": 1,
      "note": 71,
      "start": 23.5172,
      "duration": 0.1209,
      "velocity": 102,
      "chip": "ym2612"
    },
    {
      "channel": 2,
      "note": 52,
      "start": 23.5178,
      "duration": 0.0178,
      "velocity": 91,
      "chip": "ym2612"
    },
    {
      "channel": 2,
      "note": 52,
      "start": 23.5578,
      "duration": 0.0166,
      "velocity": 91,
      "chip": "ym2612"
    },
    {
      "channel": 2,
      "note": 52,
      "start": 23.5774,
      "duration": 0.0175,
      "velocity": 91,
      "chip": "ym2612"
    },
    {
      "channel": 0,
      "note": 68,
      "start": 23.5943,
      "duration": 0.0411,
      "velocity": 102,
      "chip": "ym2612"
    },
    {
      "channel": 2,
      "note": 52,
      "start": 23.5992,
      "duration": 0.0201,
      "velocity": 91,
      "chip": "ym2612"
    },
    {
      "channel": 2,
      "note": 52,
      "start": 23.622,
      "duration": 0.0164,
      "velocity": 91,
      "chip": "ym2612"
    },
    {
      "channel": 0,
      "note": 68,
      "start": 23.6378,
      "duration": 0.0775,
      "velocity": 102,
      "chip": "ym2612"
    },
    {
      "channel": 1,
      "note": 68,
      "start": 23.6424,
      "duration": 0.035,
      "velocity": 102,
      "chip": "ym2612"
    },
    {
      "channel": 2,
      "note": 52,
      "start": 23.6429,
      "duration": 0.0164,
      "velocity": 91,
      "chip": "ym2612"
    },
    {
      "channel": 3,
      "note": 80,
      "start": 23.6434,
      "duration": 0.2956,
      "velocity": 99,
      "chip": "ym2612"
    },
    {
      "channel": 4,
      "note": 76,
      "start": 23.6441,
      "duration": 0.2954,
      "velocity": 99,
      "chip": "ym2612"
    },
    {
      "channel": 1,
      "note": 68,
      "start": 23.6814,
      "duration": 0.143,
      "velocity": 102,
      "chip": "ym2612"
    },
    {
      "channel": 2,
      "note": 52,
      "start": 23.6819,
      "duration": 0.018,
      "velocity": 91,
      "chip": "ym2612"
    },
    {
      "channel": 0,
      "note": 61,
      "start": 23.7178,
      "duration": 0.2031,
      "velocity": 102,
      "chip": "ym2612"
    },
    {
      "channel": 1,
      "note": 61,
      "start": 23.8417,
      "duration": 0.1477,
      "velocity": 102,
      "chip": "ym2612"
    },
    {
      "channel": 0,
      "note": 66,
      "start": 23.9382,
      "duration": 0.2494,
      "velocity": 102,
      "chip": "ym2612"
    },
    {
      "channel": 2,
      "note": 54,
      "start": 23.956,
      "duration": 0.0158,
      "velocity": 91,
      "chip": "ym2612"
    },
    {
      "channel": 1,
      "note": 66,
      "start": 23.9935,
      "duration": 0.3045,
      "velocity": 102,
      "chip": "ym2612"
    },
    {
      "channel": 2,
      "note": 54,
      "start": 23.994,
      "duration": 0.0154,
      "velocity": 91,
      "chip": "ym2612"
    },
    {
      "channel": 2,
      "note": 54,
      "start": 24.0338,
      "duration": 0.0165,
      "velocity": 91,
      "chip": "ym2612"
    },
    {
      "channel": 3,
      "note": 76,
      "start": 24.0344,
      "duration": 0.0784,
      "velocity": 99,
      "chip": "ym2612"
    },
    {
      "channel": 4,
      "note": 71,
      "start": 24.035,
      "duration": 0.0781,
      "velocity": 99,
      "chip": "ym2612"
    },
    {
      "channel": 2,
      "note": 54,
      "start": 24.0533,
      "duration": 0.0158,
      "velocity": 91,
      "chip": "ym2612"
    },
    {
      "channel": 2,
      "note": 54,
      "start": 24.0722,
      "duration": 0.0163,
      "velocity": 91,
      "chip": "ym2612"
    },
    {
      "channel": 2,
      "note": 54,
      "start": 24.092,
      "duration": 0.0204,
      "velocity": 91,
      "chip": "ym2612"
    },
    {
      "channel": 2,
      "note": 54,
      "start": 24.1167,
      "duration": 0.0169,
      "velocity": 91,
      "chip": "ym2612"
    },
    {
      "channel": 3,
      "note": 73,
      "start": 24.1174,
      "duration": 0.0746,
      "velocity": 99,
      "chip": "ym2612"
    },
    {
      "channel": 4,
      "note": 69,
      "start": 24.118,
      "duration": 0.0744,
      "velocity": 99,
      "chip": "ym2612"
    },
    {
      "channel": 2,
      "note": 54,
      "start": 24.1546,
      "duration": 0.0159,
      "velocity": 91,
      "chip": "ym2612"
    },
    {
      "channel": 0,
      "note": 68,
      "start": 24.191,
      "duration": 0.0894,
      "velocity": 102,
      "chip": "ym2612"
    },
    {
      "channel": 3,
      "note": 78,
      "start": 24.1949,
      "duration": 0.1036,
      "velocity": 99,
      "chip": "ym2612"
    },
    {
      "channel": 4,
      "note": 73,
      "start": 24.1956,
      "duration": 0.1033,
      "velocity": 99,
      "chip": "ym2612"
    },
    {
      "channel": 0,
      "note": 69,
      "start": 24.2977,
      "duration": 0.0942,
      "velocity": 102,
      "chip": "ym2612"
    },
    {
      "channel": 1,
      "note": 68,
      "start": 24.3151,
      "duration": 0.0945,
      "velocity": 102,
      "chip": "ym2612"
    },
    {
      "channel": 3,
      "note": 76,
      "start": 24.3159,
      "duration": 0.0943,
      "velocity": 99,
      "chip": "ym2612"
    },
    {
      "channel": 4,
      "note": 71,
      "start": 24.3166,
      "duration": 0.0946,
      "velocity": 99,
      "chip": "ym2612"
    },
    {
      "channel": 0,
      "note": 68,
      "start": 24.4093,
      "duration": 0.1302,
      "velocity": 102,
      "chip": "ym2612"
    },
    {
      "channel": 1,
      "note": 69,
      "start": 24.4266,
      "duration": 0.0357,
      "velocity": 102,
      "chip": "ym2612"
    },
    {
      "channel": 2,
      "note": 52,
      "start": 24.4278,
      "duration": 0.0175,
      "velocity": 91,
      "chip": "ym2612"
    },
    {
      "channel": 3,
      "note": 78,
      "start": 24.4284,
      "duration": 0.1557,
      "velocity": 99,
      "chip": "ym2612"
    },
    {
      "channel": 4,
      "note": 73,
      "start": 24.429,
      "duration": 0.1554,
      "velocity": 99,
      "chip": "ym2612"
    },
    {
      "channel": 1,
      "note": 68,
      "start": 24.4654,
      "duration": 0.118,
      "velocity": 102,
      "chip": "ym2612"
    },
    {
      "channel": 2,
      "note": 52,
      "start": 24.4659,
      "duration": 0.0153,
      "velocity": 91,
      "chip": "ym2612"
    },
    {
      "channel": 2,
      "note": 52,
      "start": 24.5039,
      "duration": 0.019,
      "velocity": 91,
      "chip": "ym2612"
    },
    {
      "channel": 2,
      "note": 52,
      "start": 24.5259,
      "duration": 0.0167,
      "velocity": 91,
      "chip": "ym2612"
    },
    {
      "channel": 0,
      "note": 59,
      "start": 24.542,
      "duration": 0.0383,
      "velocity": 102,
      "chip": "ym2612"
    },
    {
      "channel": 2,
      "note": 52,
      "start": 24.5465,
      "duration": 0.0169,
      "velocity": 91,
      "chip": "ym2612"
    },
    {
      "channel": 2,
      "note": 52,
      "start": 24.5666,
      "duration": 0.0172,
      "velocity": 91,
      "chip": "ym2612"
    },
    {
      "channel": 0,
      "note": 64,
      "start": 24.5831,
      "duration": 0.077,
      "velocity": 102,
      "chip": "ym2612"
    },
    {
      "channel": 1,
      "note": 59,
      "start": 24.5878,
      "duration": 0.0371,
      "velocity": 102,
      "chip": "ym2612"
    },
    {
      "channel": 2,
      "note": 52,
      "start": 24.5883,
      "duration": 0.0192,
      "velocity": 91,
      "chip": "ym2612"
    },
    {
      "channel": 3,
      "note": 76,
      "start": 24.5888,
      "duration": 0.0745,
      "velocity": 99,
      "chip": "ym2612"
    },
    {
      "channel": 4,
      "note": 71,
      "start": 24.5895,
      "duration": 0.0742,
      "velocity": 99,
      "chip": "ym2612"
    },
    {
      "channel": 1,
      "note": 64,
      "start": 24.6283,
      "duration": 0.1441,
      "velocity": 102,
      "chip": "ym2612"
    },
    {
      "channel": 2,
      "note": 52,
      "start": 24.6288,
      "duration": 0.0157,
      "velocity": 91,
      "chip": "ym2612"
    },
    {
      "channel": 0,
      "note": 62,
      "start": 24.6626,
      "duration": 0.0922,
      "velocity": 102,
      "chip": "ym2612"
    },
    {
      "channel": 3,
      "note": 80,
      "start": 24.6659,
      "duration": 0.1071,
      "velocity": 99,
      "chip": "ym2612"
    },
    {
      "channel": 4,
      "note": 76,
      "start": 24.6666,
      "duration": 0.1068,
      "velocity": 99,
      "chip": "ym2612"
    },
    {
      "channel": 0,
      "note": 64,
      "start": 24.7721,
      "duration": 0.094,
      "velocity": 102,
      "chip": "ym2612"
    },
    {
      "channel": 1,
      "note": 62,
      "start": 24.7895,
      "duration": 0.0943,
      "velocity": 102,
      "chip": "ym2612"
    },
    {
      "channel": 3,
      "note": 78,
      "start": 24.7903,
      "duration": 0.0941,
      "velocity": 99,
      "chip": "ym2612"
    },
    {
      "channel": 4,
      "note": 74,
      "start": 24.7909,
      "duration": 0.0938,
      "velocity": 99,
      "chip": "ym2612"
    },
    {
      "channel": 0,
      "note": 66,
      "start": 24.8834,
      "duration": 0.2146,
      "velocity": 102,
      "chip": "ym2612"
    },
    {
      "channel": 1,
      "note": 64,
      "start": 24.9009,
      "duration": 0.0378,
      "velocity": 102,
      "chip": "ym2612"
    },
    {
      "channel": 2,
      "note": 50,
      "start": 24.9015,
      "duration": 0.0174,
      "velocity": 91,
      "chip": "ym2612"
    },
    {
      "channel": 3,
      "note": 80,
      "start": 24.9021,
      "duration": 0.2397,
      "velocity": 99,
      "chip": "ym2612"
    },
    {
      "channel": 4,
      "note": 76,
      "start": 24.9027,
      "duration": 0.2395,
      "velocity": 99,
      "chip": "ym2612"
    },
    {
      "channel": 1,
      "note": 66,
      "start": 24.9416,
      "duration": 0.1601,
      "velocity": 102,
      "chip": "ym2612"
    },
    {
      "channel": 2,
      "note": 50,
      "start": 24.9421,
      "duration": 0.0158,
      "velocity": 91,
      "chip": "ym2612"
    },
    {
      "channel": 2,
      "note": 50,
      "start": 24.9803,
      "duration": 0.0161,
      "velocity": 91,
      "chip": "ym2612"
    },
    {
      "channel": 2,
      "note": 50,
      "start": 24.9998,
      "duration": 0.0203,
      "velocity": 91,
      "chip": "ym2612"
    },
    {
      "channel": 2,
      "note": 50,
      "start": 25.0241,
      "duration": 0.0168,
      "velocity": 91,
      "chip": "ym2612"
    },
    {
      "channel": 2,
      "note": 50,
      "start": 25.0438,
      "duration": 0.0168,
      "velocity": 91,
      "chip": "ym2612"
    },
    {
      "channel": 2,
      "note": 50,
      "start": 25.0632,
      "duration": 0.0168,
      "velocity": 91,
      "chip": "ym2612"
    },
    {
      "channel": 0,
      "note": 62,
      "start": 25.1014,
      "duration": 0.0368,
      "velocity": 102,
      "chip": "ym2612"
    },
    {
      "channel": 1,
      "note": 66,
      "start": 25.1062,
      "duration": 0.0351,
      "velocity": 102,
      "chip": "ym2612"
    },
    {
      "channel": 2,
      "note": 50,
      "start": 25.1067,
      "duration": 0.0158,
      "velocity": 91,
      "chip": "ym2612"
    },
    {
      "channel": 0,
      "note": 64,
      "start": 25.141,
      "duration": 0.0887,
      "velocity": 102,
      "chip": "ym2612"
    },
    {
      "channel": 1,
      "note": 62,
      "start": 25.1438,
      "duration": 0.1035,
      "velocity": 102,
      "chip": "ym2612"
    },
    {
      "channel": 3,
      "note": 81,
      "start": 25.1447,
      "duration": 0.1038,
      "velocity": 99,
      "chip": "ym2612"
    },
    {
      "channel": 4,
      "note": 78,
      "start": 25.1453,
      "duration": 0.1035,
      "velocity": 99,
      "chip": "ym2612"
    },
    {
      "channel": 0,
      "note": 66,
      "start": 25.247,
      "duration": 0.0941,
      "velocity": 102,
      "chip": "ym2612"
    },
    {
      "channel": 1,
      "note": 64,
      "start": 25.2647,
      "duration": 0.0941,
      "velocity": 102,
      "chip": "ym2612"
    },
    {
      "channel": 2,
      "note": 50,
      "start": 25.2654,
      "duration": 0.0937,
      "velocity": 91,
      "chip": "ym2612"
    },
    {
      "channel": 3,
      "note": 80,
      "start": 25.2661,
      "duration": 0.0933,
      "velocity": 99,
      "chip": "ym2612"
    },
    {
      "channel": 4,
      "note": 76,
      "start": 25.2667,
      "duration": 0.093,
      "velocity": 99,
      "chip": "ym2612"
    },
    {
      "channel": 0,
      "note": 68,
      "start": 25.3585,
      "duration": 0.1751,
      "velocity": 102,
      "chip": "ym2612"
    },
    {
      "channel": 1,
      "note": 66,
      "start": 25.3759,
      "duration": 0.0349,
      "velocity": 102,
      "chip": "ym2612"
    },
    {
      "channel": 2,
      "note": 52,
      "start": 25.3764,
      "duration": 0.0162,
      "velocity": 91,
      "chip": "ym2612"
    },
    {
      "channel": 3,
      "note": 81,
      "start": 25.377,
      "duration": 0.1601,
      "velocity": 99,
      "chip": "ym2612"
    },
    {
      "channel": 4,
      "note": 78,
      "start": 25.3777,
      "duration": 0.1598,
      "velocity": 99,
      "chip": "ym2612"
    },
    {
      "channel": 1,
      "note": 68,
      "start": 25.4152,
      "duration": 0.1597,
      "velocity": 102,
      "chip": "ym2612"
    },
    {
      "channel": 2,
      "note": 52,
      "start": 25.4157,
      "duration": 0.018,
      "velocity": 91,
      "chip": "ym2612"
    },
    {
      "channel": 2,
      "note": 52,
      "start": 25.4556,
      "duration": 0.016,
      "velocity": 91,
      "chip": "ym2612"
    },
    {
      "channel": 2,
      "note": 52,
      "start": 25.475,
      "duration": 0.0169,
      "velocity": 91,
      "chip": "ym2612"
    },
    {
      "channel": 2,
      "note": 52,
      "start": 25.4948,
      "duration": 0.0207,
      "velocity": 91,
      "chip": "ym2612"
    },
    {
      "channel": 2,
      "note": 52,
      "start": 25.5202,
      "duration": 0.0166,
      "velocity": 91,
      "chip": "ym2612"
    },
    {
      "channel": 0,
      "note": 64,
      "start": 25.5362,
      "duration": 0.2816,
      "velocity": 102,
      "chip": "ym2612"
    },
    {
      "channel": 2,
      "note": 52,
      "start": 25.5408,
      "duration": 0.0165,
      "velocity": 91,
      "chip": "ym2612"
    },
    {
      "channel": 3,
      "note": 83,
      "start": 25.5414,
      "duration": 0.2946,
      "velocity": 99,
      "chip": "ym2612"
    },
    {
      "channel": 4,
      "note": 80,
      "start": 25.5421,
      "duration": 0.2944,
      "velocity": 99,
      "chip": "ym2612"
    },
    {
      "channel": 1,
      "note": 64,
      "start": 25.5786,
      "duration": 0.3091,
      "velocity": 102,
      "chip": "ym2612"
    },
    {
      "channel": 2,
      "note": 52,
      "start": 25.5791,
      "duration": 0.0184,
      "velocity": 91,
      "chip": "ym2612"
    },
    {
      "channel": 2,
      "note": 56,
      "start": 25.7395,
      "duration": 0.0963,
      "velocity": 91,
      "chip": "ym2612"
    },
    {
      "channel": 0,
      "note": 66,
      "start": 25.8352,
      "duration": 0.7386,
      "velocity": 102,
      "chip": "ym2612"
    },
    {
      "channel": 2,
      "note": 54,
      "start": 25.8529,
      "duration": 0.0169,
      "velocity": 91,
      "chip": "ym2612"
    },
    {
      "channel": 3,
      "note": 88,
      "start": 25.8534,
      "duration": 0.4581,
      "velocity": 99,
      "chip": "ym2612"
    },
    {
      "channel": 4,
      "note": 83,
      "start": 25.8541,
      "duration": 0.4578,
      "velocity": 99,
      "chip": "ym2612"
    },
    {
      "channel": 1,
      "note": 66,
      "start": 25.8912,
      "duration": 0.6885,
      "velocity": 102,
      "chip": "ym2612"
    },
    {
      "channel": 2,
      "note": 54,
      "start": 25.8917,
      "duration": 0.0136,
      "velocity": 91,
      "chip": "ym2612"
    },
    {
      "channel": 2,
      "note": 54,
      "start": 25.9087,
      "duration": 0.0124,
      "velocity": 91,
      "chip": "ym2612"
    },
    {
      "channel": 2,
      "note": 54,
      "start": 25.9249,
      "duration": 0.0071,
      "velocity": 91,
      "chip": "ym2612"
    },
    {
      "channel": 2,
      "note": 54,
      "start": 25.9359,
      "duration": 0.0163,
      "velocity": 91,
      "chip": "ym2612"
    },
    {
      "channel": 2,
      "note": 54,
      "start": 25.9745,
      "duration": 0.0142,
      "velocity": 91,
      "chip": "ym2612"
    },
    {
      "channel": 2,
      "note": 54,
      "start": 25.9916,
      "duration": 0.0101,
      "velocity": 91,
      "chip": "ym2612"
    },
    {
      "channel": 2,
      "note": 54,
      "start": 26.0053,
      "duration": 0.009,
      "velocity": 91,
      "chip": "ym2612"
    },
    {
      "channel": 2,
      "note": 54,
      "start": 26.0181,
      "duration": 0.0167,
      "velocity": 91,
      "chip": "ym2612"
    },
    {
      "channel": 2,
      "note": 54,
      "start": 26.0564,
      "duration": 0.0168,
      "velocity": 91,
      "chip": "ym2612"
    },
    {
      "channel": 2,
      "note": 52,
      "start": 26.2174,
      "duration": 0.0939,
      "velocity": 91,
      "chip": "ym2612"
    },
    {
      "channel": 2,
      "note": 54,
      "start": 26.3285,
      "duration": 0.0216,
      "velocity": 91,
      "chip": "ym2612"
    },
    {
      "channel": 3,
      "note": 85,
      "start": 26.3297,
      "duration": 0.0207,
      "velocity": 99,
      "chip": "ym2612"
    },
    {
      "channel": 4,
      "note": 81,
      "start": 26.3439,
      "duration": 0.0165,
      "velocity": 99,
      "chip": "ym2612"
    },
    {
      "channel": 3,
      "note": 66,
      "start": 26.353,
      "duration": 0.0168,
      "velocity": 99,
      "chip": "ym2612"
    },
    {
      "channel": 4,
      "note": 66,
      "start": 26.3629,
      "duration": 0.0172,
      "velocity": 99,
      "chip": "ym2612"
    },
    {
      "channel": 2,
      "note": 54,
      "start": 26.3723,
      "duration": 0.0148,
      "velocity": 91,
      "chip": "ym2612"
    },
    {
      "channel": 3,
      "note": 68,
      "start": 26.3728,
      "duration": 0.017,
      "velocity": 99,
      "chip": "ym2612"
    },
    {
      "channel": 4,
      "note": 68,
      "start": 26.3827,
      "duration": 0.0171,
      "velocity": 99,
      "chip": "ym2612"
    },
    {
      "channel": 2,
      "note": 54,
      "start": 26.3895,
      "duration": 0.0097,
      "velocity": 91,
      "chip": "ym2612"
    },
    {
      "channel": 3,
      "note": 69,
      "start": 26.3928,
      "duration": 0.0173,
      "velocity": 99,
      "chip": "ym2612"
    },
    {
      "channel": 2,
      "note": 54,
      "start": 26.402,
      "duration": 0.0078,
      "velocity": 91,
      "chip": "ym2612"
    },
    {
      "channel": 4,
      "note": 69,
      "start": 26.4029,
      "duration": 0.0209,
      "velocity": 99,
      "chip": "ym2612"
    },
    {
      "channel": 2,
      "note": 54,
      "start": 26.4134,
      "duration": 0.0203,
      "velocity": 91,
      "chip": "ym2612"
    },
    {
      "channel": 3,
      "note": 73,
      "start": 26.4139,
      "duration": 0.02,
      "velocity": 99,
      "chip": "ym2612"
    },
    {
      "channel": 4,
      "note": 73,
      "start": 26.4269,
      "duration": 0.0167,
      "velocity": 99,
      "chip": "ym2612"
    },
    {
      "channel": 3,
      "note": 78,
      "start": 26.4366,
      "duration": 0.0164,
      "velocity": 99,
      "chip": "ym2612"
    },
    {
      "channel": 4,
      "note": 78,
      "start": 26.4465,
      "duration": 0.0183,
      "velocity": 99,
      "chip": "ym2612"
    },
    {
      "channel": 2,
      "note": 54,
      "start": 26.4564,
      "duration": 0.0153,
      "velocity": 91,
      "chip": "ym2612"
    },
    {
      "channel": 3,
      "note": 80,
      "start": 26.457,
      "duration": 0.0176,
      "velocity": 99,
      "chip": "ym2612"
    },
    {
      "channel": 4,
      "note": 80,
      "start": 26.4673,
      "duration": 0.0176,
      "velocity": 99,
      "chip": "ym2612"
    },
    {
      "channel": 2,
      "note": 54,
      "start": 26.4742,
      "duration": 0.01,
      "velocity": 91,
      "chip": "ym2612"
    },
    {
      "channel": 3,
      "note": 81,
      "start": 26.4778,
      "duration": 0.0174,
      "velocity": 99,
      "chip": "ym2612"
    },
    {
      "channel": 2,
      "note": 54,
      "start": 26.4874,
      "duration": 0.0074,
      "velocity": 91,
      "chip": "ym2612"
    },
    {
      "channel": 4,
      "note": 81,
      "start": 26.4883,
      "duration": 0.0188,
      "velocity": 99,
      "chip": "ym2612"
    },
    {
      "channel": 2,
      "note": 54,
      "start": 26.4986,
      "duration": 0.0814,
      "velocity": 91,
      "chip": "ym2612"
    },
    {
      "channel": 3,
      "note": 85,
      "start": 26.4992,
      "duration": 0.0196,
      "velocity": 99,
      "chip": "ym2612"
    },
    {
      "channel": 4,
      "note": 85,
      "start": 26.5107,
      "duration": 0.018,
      "velocity": 99,
      "chip": "ym2612"
    },
    {
      "channel": 3,
      "note": 78,
      "start": 26.5213,
      "duration": 0.0163,
      "velocity": 99,
      "chip": "ym2612"
    },
    {
      "channel": 4,
      "note": 78,
      "start": 26.5312,
      "duration": 0.0179,
      "velocity": 99,
      "chip": "ym2612"
    },
    {
      "channel": 3,
      "note": 80,
      "start": 26.5413,
      "duration": 0.0168,
      "velocity": 99,
      "chip": "ym2612"
    },
    {
      "channel": 4,
      "note": 80,
      "start": 26.5517,
      "duration": 0.0162,
      "velocity": 99,
      "chip": "ym2612"
    },
    {
      "channel": 3,
      "note": 81,
      "start": 26.5606,
      "duration": 0.0197,
      "velocity": 99,
      "chip": "ym2612"
    },
    {
      "channel": 4,
      "note": 81,
      "start": 26.5703,
      "duration": 0.0245,
      "velocity": 99,
      "chip": "ym2612"
    },
    {
      "channel": 0,
      "note": 80,
      "start": 26.5794,
      "duration": 0.0836,
      "velocity": 98,
      "chip": "ym2612"
    },
    {
      "channel": 1,
      "note": 71,
      "start": 26.586,
      "duration": 0.0946,
      "velocity": 98,
      "chip": "ym2612"
    },
    {
      "channel": 2,
      "note": 52,
      "start": 26.5865,
      "duration": 0.1463,
      "velocity": 91,
      "chip": "ym2612"
    },
    {
      "channel": 3,
      "note": 85,
      "start": 26.5877,
      "duration": 0.0178,
      "velocity": 99,
      "chip": "ym2612"
    },
    {
      "channel": 4,
      "note": 85,
      "start": 26.5973,
      "duration": 0.0194,
      "velocity": 99,
      "chip": "ym2612"
    },
    {
      "channel": 3,
      "note": 90,
      "start": 26.6089,
      "duration": 0.0722,
      "velocity": 99,
      "chip": "ym2612"
    },
    {
      "channel": 4,
      "note": 90,
      "start": 26.6299,
      "duration": 0.0758,
      "velocity": 99,
      "chip": "ym2612"
    },
    {
      "channel": 0,
      "note": 81,
      "start": 26.6803,
      "duration": 0.0495,
      "velocity": 98,
      "chip": "ym2612"
    },
    {
      "channel": 1,
      "note": 73,
      "start": 26.6977,
      "duration": 0.0348,
      "velocity": 98,
      "chip": "ym2612"
    },
    {
      "channel": 3,
      "note": 92,
      "start": 26.6985,
      "duration": 0.0158,
      "velocity": 99,
      "chip": "ym2612"
    },
    {
      "channel": 4,
      "note": 92,
      "start": 26.708,
      "duration": 0.0155,
      "velocity": 99,
      "chip": "ym2612"
    },
    {
      "channel": 3,
      "note": 93,
      "start": 26.7168,
      "duration": 0.0164,
      "velocity": 99,
      "chip": "ym2612"
    },
    {
      "channel": 4,
      "note": 93,
      "start": 26.7261,
      "duration": 0.018,
      "velocity": 99,
      "chip": "ym2612"
    },
    {
      "channel": 0,
      "note": 83,
      "start": 26.7322,
      "duration": 0.1974,
      "velocity": 98,
      "chip": "ym2612"
    },
    {
      "channel": 1,
      "note": 78,
      "start": 26.7356,
      "duration": 0.1981,
      "velocity": 98,
      "chip": "ym2612"
    },
    {
      "channel": 2,
      "note": 50,
      "start": 26.7361,
      "duration": 0.0164,
      "velocity": 91,
      "chip": "ym2612"
    },
    {
      "channel": 3,
      "note": 97,
      "start": 26.7366,
      "duration": 0.0734,
      "velocity": 99,
      "chip": "ym2612"
    },
    {
      "channel": 4,
      "note": 97,
      "start": 26.7465,
      "duration": 0.0754,
      "velocity": 99,
      "chip": "ym2612"
    },
    {
      "channel": 2,
      "note": 50,
      "start": 26.7759,
      "duration": 0.0158,
      "velocity": 91,
      "chip": "ym2612"
    },
    {
      "channel": 2,
      "note": 50,
      "start": 26.8139,
      "duration": 0.0167,
      "velocity": 91,
      "chip": "ym2612"
    },
    {
      "channel": 3,
      "note": 74,
      "start": 26.8145,
      "duration": 0.079,
      "velocity": 99,
      "chip": "ym2612"
    },
    {
      "channel": 4,
      "note": 74,
      "start": 26.8245,
      "duration": 0.0795,
      "velocity": 99,
      "chip": "ym2612"
    },
    {
      "channel": 2,
      "note": 50,
      "start": 26.8332,
      "duration": 0.0193,
      "velocity": 91,
      "chip": "ym2612"
    },
    {
      "channel": 2,
      "note": 50,
      "start": 26.8573,
      "duration": 0.0163,
      "velocity": 91,
      "chip": "ym2612"
    },
    {
      "channel": 2,
      "note": 50,
      "start": 26.877,
      "duration": 0.0162,
      "velocity": 91,
      "chip": "ym2612"
    },
    {
      "channel": 2,
      "note": 50,
      "start": 26.8959,
      "duration": 0.0171,
      "velocity": 91,
      "chip": "ym2612"
    },
    {
      "channel": 3,
      "note": 78,
      "start": 26.8965,
      "duration": 0.078,
      "velocity": 99,
      "chip": "ym2612"
    },
    {
      "channel": 4,
      "note": 78,
      "start": 26.9069,
      "duration": 0.0793,
      "velocity": 99,
      "chip": "ym2612"
    },
    {
      "channel": 0,
      "note": 85,
      "start": 26.9333,
      "duration": 0.038,
      "velocity": 98,
      "chip": "ym2612"
    },
    {
      "channel": 1,
      "note": 80,
      "start": 26.9364,
      "duration": 0.0375,
      "velocity": 98,
      "chip": "ym2612"
    },
    {
      "channel": 2,
      "note": 50,
      "start": 26.9369,
      "duration": 0.0137,
      "velocity": 91,
      "chip": "ym2612"
    },
    {
      "channel": 2,
      "note": 50,
      "start": 26.9541,
      "duration": 0.0093,
      "velocity": 91,
      "chip": "ym2612"
    },
    {
      "channel": 2,
      "note": 50,
      "start": 26.9669,
      "duration": 0.0072,
      "velocity": 91,
      "chip": "ym2612"
    },
    {
      "channel": 0,
      "note": 86,
      "start": 26.9736,
      "duration": 0.0371,
      "velocity": 98,
      "chip": "ym2612"
    },
    {
      "channel": 1,
      "note": 81,
      "start": 26.9775,
      "duration": 0.0366,
      "velocity": 98,
      "chip": "ym2612"
    },
    {
      "channel": 2,
      "note": 50,
      "start": 26.978,
      "duration": 0.0173,
      "velocity": 91,
      "chip": "ym2612"
    },
    {
      "channel": 3,
      "note": 85,
      "start": 26.9786,
      "duration": 0.1554,
      "velocity": 99,
      "chip": "ym2612"
    },
    {
      "channel": 4,
      "note": 85,
      "start": 26.989,
      "duration": 0.1561,
      "velocity": 99,
      "chip": "ym2612"
    },
    {
      "channel": 0,
      "note": 78,
      "start": 27.0138,
      "duration": 0.0369,
      "velocity": 98,
      "chip": "ym2612"
    },
    {
      "channel": 1,
      "note": 74,
      "start": 27.0183,
      "duration": 0.0352,
      "velocity": 98,
      "chip": "ym2612"
    },
    {
      "channel": 2,
      "note": 50,
      "start": 27.0193,
      "duration": 0.0344,
      "velocity": 91,
      "chip": "ym2612"
    },
    {
      "channel": 0,
      "note": 80,
      "start": 27.0531,
      "duration": 0.1611,
      "velocity": 98,
      "chip": "ym2612"
    },
    {
      "channel": 1,
      "note": 76,
      "start": 27.0572,
      "duration": 0.1599,
      "velocity": 98,
      "chip": "ym2612"
    },
    {
      "channel": 2,
      "note": 52,
      "start": 27.0577,
      "duration": 0.016,
      "velocity": 91,
      "chip": "ym2612"
    },
    {
      "channel": 2,
      "note": 52,
      "start": 27.0956,
      "duration": 0.019,
      "velocity": 91,
      "chip": "ym2612"
    },
    {
      "channel": 2,
      "note": 52,
      "start": 27.1366,
      "duration": 0.0173,
      "velocity": 91,
      "chip": "ym2612"
    },
    {
      "channel": 3,
      "note": 83,
      "start": 27.1372,
      "duration": 0.0805,
      "velocity": 99,
      "chip": "ym2612"
    },
    {
      "channel": 4,
      "note": 83,
      "start": 27.1477,
      "duration": 0.0818,
      "velocity": 99,
      "chip": "ym2612"
    },
    {
      "channel": 2,
      "note": 52,
      "start": 27.158,
      "duration": 0.017,
      "velocity": 91,
      "chip": "ym2612"
    },
    {
      "channel": 2,
      "note": 52,
      "start": 27.1781,
      "duration": 0.0193,
      "velocity": 91,
      "chip": "ym2612"
    },
    {
      "channel": 2,
      "note": 52,
      "start": 27.2004,
      "duration": 0.0169,
      "velocity": 91,
      "chip": "ym2612"
    },
    {
      "channel": 0,
      "note": 76,
      "start": 27.2167,
      "duration": 0.0799,
      "velocity": 98,
      "chip": "ym2612"
    },
    {
      "channel": 1,
      "note": 71,
      "start": 27.2212,
      "duration": 0.0782,
      "velocity": 98,
      "chip": "ym2612"
    },
    {
      "channel": 2,
      "note": 52,
      "start": 27.2217,
      "duration": 0.0162,
      "velocity": 91,
      "chip": "ym2612"
    },
    {
      "channel": 3,
      "note": 80,
      "start": 27.2223,
      "duration": 0.0778,
      "velocity": 99,
      "chip": "ym2612"
    },
    {
      "channel": 4,
      "note": 80,
      "start": 27.2319,
      "duration": 0.0796,
      "velocity": 99,
      "chip": "ym2612"
    },
    {
      "channel": 2,
      "note": 52,
      "start": 27.2601,
      "duration": 0.0144,
      "velocity": 91,
      "chip": "ym2612"
    },
    {
      "channel": 2,
      "note": 52,
      "start": 27.2796,
      "duration": 0.0101,
      "velocity": 91,
      "chip": "ym2612"
    },
    {
      "channel": 2,
      "note": 52,
      "start": 27.2921,
      "duration": 0.0076,
      "velocity": 91,
      "chip": "ym2612"
    },
    {
      "channel": 0,
      "note": 71,
      "start": 27.2991,
      "duration": 0.0363,
      "velocity": 98,
      "chip": "ym2612"
    },
    {
      "channel": 1,
      "note": 68,
      "start": 27.3028,
      "duration": 0.0352,
      "velocity": 98,
      "chip": "ym2612"
    },
    {
      "channel": 2,
      "note": 52,
      "start": 27.3034,
      "duration": 0.017,
      "velocity": 91,
      "chip": "ym2612"
    },
    {
      "channel": 3,
      "note": 76,
      "start": 27.304,
      "duration": 0.0743,
      "velocity": 99,
      "chip": "ym2612"
    },
    {
      "channel": 4,
      "note": 76,
      "start": 27.314,
      "duration": 0.0763,
      "velocity": 99,
      "chip": "ym2612"
    },
    {
      "channel": 0,
      "note": 74,
      "start": 27.3377,
      "duration": 0.0373,
      "velocity": 98,
      "chip": "ym2612"
    },
    {
      "channel": 1,
      "note": 71,
      "start": 27.3415,
      "duration": 0.0362,
      "velocity": 98,
      "chip": "ym2612"
    },
    {
      "channel": 2,
      "note": 59,
      "start": 27.342,
      "duration": 0.0359,
      "velocity": 91,
      "chip": "ym2612"
    },
    {
      "channel": 0,
      "note": 73,
      "start": 27.3775,
      "duration": 0.1991,
      "velocity": 98,
      "chip": "ym2612"
    },
    {
      "channel": 1,
      "note": 69,
      "start": 27.3814,
      "duration": 0.1979,
      "velocity": 98,
      "chip": "ym2612"
    },
    {
      "channel": 2,
      "note": 57,
      "start": 27.3819,
      "duration": 0.0169,
      "velocity": 91,
      "chip": "ym2612"
    },
    {
      "channel": 3,
      "note": 71,
      "start": 27.3824,
      "duration": 0.0752,
      "velocity": 99,
      "chip": "ym2612"
    },
    {
      "channel": 4,
      "note": 71,
      "start": 27.3928,
      "duration": 0.0765,
      "velocity": 99,
      "chip": "ym2612"
    },
    {
      "channel": 2,
      "note": 57,
      "start": 27.4201,
      "duration": 0.0158,
      "velocity": 91,
      "chip": "ym2612"
    },
    {
      "channel": 2,
      "note": 57,
      "start": 27.4609,
      "duration": 0.0171,
      "velocity": 91,
      "chip": "ym2612"
    },
    {
      "channel": 3,
      "note": 73,
      "start": 27.4615,
      "duration": 0.0781,
      "velocity": 99,
      "chip": "ym2612"
    },
    {
      "channel": 4,
      "note": 73,
      "start": 27.4719,
      "duration": 0.0802,
      "velocity": 99,
      "chip": "ym2612"
    },
    {
      "channel": 2,
      "note": 57,
      "start": 27.4806,
      "duration": 0.0166,
      "velocity": 91,
      "chip": "ym2612"
    },
    {
      "channel": 2,
      "note": 57,
      "start": 27.5002,
      "duration": 0.0161,
      "velocity": 91,
      "chip": "ym2612"
    },
    {
      "channel": 2,
      "note": 57,
      "start": 27.5198,
      "duration": 0.0195,
      "velocity": 91,
      "chip": "ym2612"
    },
    {
      "channel": 2,
      "note": 57,
      "start": 27.544,
      "duration": 0.0167,
      "velocity": 91,
      "chip": "ym2612"
    },
    {
      "channel": 3,
      "note": 76,
      "start": 27.5446,
      "duration": 0.0774,
      "velocity": 99,
      "chip": "ym2612"
    },
    {
      "channel": 4,
      "note": 76,
      "start": 27.5546,
      "duration": 0.08,
      "velocity": 99,
      "chip": "ym2612"
    },
    {
      "channel": 0,
      "note": 69,
      "start": 27.579,
      "duration": 0.0385,
      "velocity": 98,
      "chip": "ym2612"
    },
    {
      "channel": 1,
      "note": 64,
      "start": 27.5818,
      "duration": 0.039,
      "velocity": 98,
      "chip": "ym2612"
    },
    {
      "channel": 2,
      "note": 57,
      "start": 27.5823,
      "duration": 0.0131,
      "velocity": 91,
      "chip": "ym2612"
    },
    {
      "channel": 2,
      "note": 57,
      "start": 27.5989,
      "duration": 0.0096,
      "velocity": 91,
      "chip": "ym2612"
    },
    {
      "channel": 2,
      "note": 57,
      "start": 27.6119,
      "duration": 0.0095,
      "velocity": 91,
      "chip": "ym2612"
    },
    {
      "channel": 0,
      "note": 73,
      "start": 27.6204,
      "duration": 0.0375,
      "velocity": 98,
      "chip": "ym2612"
    },
    {
      "channel": 1,
      "note": 69,
      "start": 27.6257,
      "duration": 0.0352,
      "velocity": 98,
      "chip": "ym2612"
    },
    {
      "channel": 2,
      "note": 57,
      "start": 27.6262,
      "duration": 0.0168,
      "velocity": 91,
      "chip": "ym2612"
    },
    {
      "channel": 3,
      "note": 80,
      "start": 27.6268,
      "duration": 0.0718,
      "velocity": 99,
      "chip": "ym2612"
    },
    {
      "channel": 4,
      "note": 80,
      "start": 27.6371,
      "duration": 0.0765,
      "velocity": 99,
      "chip": "ym2612"
    },
    {
      "channel": 0,
      "note": 80,
      "start": 27.6606,
      "duration": 0.0343,
      "velocity": 98,
      "chip": "ym2612"
    },
    {
      "channel": 1,
      "note": 76,
      "start": 27.6639,
      "duration": 0.0342,
      "velocity": 98,
      "chip": "ym2612"
    },
    {
      "channel": 2,
      "note": 56,
      "start": 27.6644,
      "duration": 0.0339,
      "velocity": 91,
      "chip": "ym2612"
    },
    {
      "channel": 0,
      "note": 78,
      "start": 27.6977,
      "duration": 0.2439,
      "velocity": 98,
      "chip": "ym2612"
    },
    {
      "channel": 1,
      "note": 73,
      "start": 27.7028,
      "duration": 0.2416,
      "velocity": 98,
      "chip": "ym2612"
    },
    {
      "channel": 2,
      "note": 54,
      "start": 27.7032,
      "duration": 0.0188,
      "velocity": 91,
      "chip": "ym2612"
    },
    {
      "channel": 3,
      "note": 81,
      "start": 27.7044,
      "duration": 0.0737,
      "velocity": 99,
      "chip": "ym2612"
    },
    {
      "channel": 4,
      "note": 81,
      "start": 27.7161,
      "duration": 0.0762,
      "velocity": 99,
      "chip": "ym2612"
    },
    {
      "channel": 2,
      "note": 54,
      "start": 27.7427,
      "duration": 0.0162,
      "velocity": 91,
      "chip": "ym2612"
    },
    {
      "channel": 2,
      "note": 54,
      "start": 27.7819,
      "duration": 0.0205,
      "velocity": 91,
      "chip": "ym2612"
    },
    {
      "channel": 3,
      "note": 78,
      "start": 27.7824,
      "duration": 0.08,
      "velocity": 99,
      "chip": "ym2612"
    },
    {
      "channel": 4,
      "note": 78,
      "start": 27.7954,
      "duration": 0.0776,
      "velocity": 99,
      "chip": "ym2612"
    },
    {
      "channel": 2,
      "note": 54,
      "start": 27.8067,
      "duration": 0.0162,
      "velocity": 91,
      "chip": "ym2612"
    },
    {
      "channel": 2,
      "note": 54,
      "start": 27.8261,
      "duration": 0.0159,
      "velocity": 91,
      "chip": "ym2612"
    },
    {
      "channel": 2,
      "note": 54,
      "start": 27.8454,
      "duration": 0.0167,
      "velocity": 91,
      "chip": "ym2612"
    },
    {
      "channel": 2,
      "note": 54,
      "start": 27.8648,
      "duration": 0.0198,
      "velocity": 91,
      "chip": "ym2612"
    },
    {
      "channel": 3,
      "note": 80,
      "start": 27.8653,
      "duration": 0.0381,
      "velocity": 99,
      "chip": "ym2612"
    },
    {
      "channel": 4,
      "note": 80,
      "start": 27.8761,
      "duration": 0.0395,
      "velocity": 99,
      "chip": "ym2612"
    },
    {
      "channel": 2,
      "note": 49,
      "start": 27.9076,
      "duration": 0.0371,
      "velocity": 91,
      "chip": "ym2612"
    },
    {
      "channel": 3,
      "note": 81,
      "start": 27.9082,
      "duration": 0.0368,
      "velocity": 99,
      "chip": "ym2612"
    },
    {
      "channel": 4,
      "note": 81,
      "start": 27.9181,
      "duration": 0.0384,
      "velocity": 99,
      "chip": "ym2612"
    },
    {
      "channel": 0,
      "note": 74,
      "start": 27.9441,
      "duration": 0.0379,
      "velocity": 98,
      "chip": "ym2612"
    },
    {
      "channel": 1,
      "note": 71,
      "start": 27.9482,
      "duration": 0.0368,
      "velocity": 98,
      "chip": "ym2612"
    },
    {
      "channel": 2,
      "note": 50,
      "start": 27.9488,
      "duration": 0.0365,
      "velocity": 91,
      "chip": "ym2612"
    },
    {
      "channel": 3,
      "note": 69,
      "start": 27.9493,
      "duration": 0.0362,
      "velocity": 99,
      "chip": "ym2612"
    },
    {
      "channel": 4,
      "note": 69,
      "start": 27.9589,
      "duration": 0.0375,
      "velocity": 99,
      "chip": "ym2612"
    },
    {
      "channel": 0,
      "note": 76,
      "start": 27.9847,
      "duration": 0.0349,
      "velocity": 98,
      "chip": "ym2612"
    },
    {
      "channel": 1,
      "note": 73,
      "start": 27.9882,
      "duration": 0.0344,
      "velocity": 98,
      "chip": "ym2612"
    },
    {
      "channel": 2,
      "note": 52,
      "start": 27.9887,
      "duration": 0.0341,
      "velocity": 91,
      "chip": "ym2612"
    },
    {
      "channel": 3,
      "note": 71,
      "start": 27.9893,
      "duration": 0.0338,
      "velocity": 99,
      "chip": "ym2612"
    },
    {
      "channel": 4,
      "note": 71,
      "start": 27.9988,
      "duration": 0.0363,
      "velocity": 99,
      "chip": "ym2612"
    },
    {
      "channel": 0,
      "note": 78,
      "start": 28.0223,
      "duration": 0.1204,
      "velocity": 98,
      "chip": "ym2612"
    },
    {
      "channel": 1,
      "note": 74,
      "start": 28.0265,
      "duration": 0.119,
      "velocity": 98,
      "chip": "ym2612"
    },
    {
      "channel": 2,
      "note": 50,
      "start": 28.027,
      "duration": 0.0168,
      "velocity": 91,
      "chip": "ym2612"
    },
    {
      "channel": 3,
      "note": 73,
      "start": 28.0276,
      "duration": 0.0768,
      "velocity": 99,
      "chip": "ym2612"
    },
    {
      "channel": 4,
      "note": 73,
      "start": 28.0375,
      "duration": 0.0787,
      "velocity": 99,
      "chip": "ym2612"
    },
    {
      "channel": 2,
      "note": 50,
      "start": 28.0669,
      "duration": 0.0132,
      "velocity": 91,
      "chip": "ym2612"
    },
    {
      "channel": 2,
      "note": 50,
      "start": 28.0839,
      "duration": 0.0094,
      "velocity": 91,
      "chip": "ym2612"
    },
    {
      "channel": 2,
      "note": 50,
      "start": 28.0964,
      "duration": 0.0076,
      "velocity": 91,
      "chip": "ym2612"
    },
    {
      "channel": 2,
      "note": 50,
      "start": 28.1078,
      "duration": 0.0171,
      "velocity": 91,
      "chip": "ym2612"
    },
    {
      "channel": 3,
      "note": 74,
      "start": 28.1084,
      "duration": 0.0793,
      "velocity": 99,
      "chip": "ym2612"
    },
    {
      "channel": 4,
      "note": 74,
      "start": 28.1188,
      "duration": 0.0804,
      "velocity": 99,
      "chip": "ym2612"
    },
    {
      "channel": 0,
      "note": 69,
      "start": 28.1453,
      "duration": 0.0392,
      "velocity": 98,
      "chip": "ym2612"
    },
    {
      "channel": 1,
      "note": 66,
      "start": 28.15,
      "duration": 0.0372,
      "velocity": 98,
      "chip": "ym2612"
    },
    {
      "channel": 2,
      "note": 50,
      "start": 28.1505,
      "duration": 0.0136,
      "velocity": 91,
      "chip": "ym2612"
    },
    {
      "channel": 2,
      "note": 50,
      "start": 28.1675,
      "duration": 0.0091,
      "velocity": 91,
      "chip": "ym2612"
    },
    {
      "channel": 2,
      "note": 50,
      "start": 28.1801,
      "duration": 0.0073,
      "velocity": 91,
      "chip": "ym2612"
    },
    {
      "channel": 0,
      "note": 78,
      "start": 28.1869,
      "duration": 0.0788,
      "velocity": 98,
      "chip": "ym2612"
    },
    {
      "channel": 1,
      "note": 74,
      "start": 28.1909,
      "duration": 0.0776,
      "velocity": 98,
      "chip": "ym2612"
    },
    {
      "channel": 2,
      "note": 50,
      "start": 28.1914,
      "duration": 0.0162,
      "velocity": 91,
      "chip": "ym2612"
    },
    {
      "channel": 3,
      "note": 69,
      "start": 28.192,
      "duration": 0.0771,
      "velocity": 99,
      "chip": "ym2612"
    },
    {
      "channel": 4,
      "note": 69,
      "start": 28.2016,
      "duration": 0.079,
      "velocity": 99,
      "chip": "ym2612"
    },
    {
      "channel": 2,
      "note": 54,
      "start": 28.232,
      "duration": 0.0368,
      "velocity": 91,
      "chip": "ym2612"
    },
    {
      "channel": 0,
      "note": 74,
      "start": 28.2681,
      "duration": 0.0353,
      "velocity": 98,
      "chip": "ym2612"
    },
    {
      "channel": 1,
      "note": 69,
      "start": 28.2722,
      "duration": 0.0344,
      "velocity": 98,
      "chip": "ym2612"
    },
    {
      "channel": 2,
      "note": 57,
      "start": 28.2727,
      "duration": 0.0341,
      "velocity": 91,
      "chip": "ym2612"
    },
    {
      "channel": 3,
      "note": 74,
      "start": 28.2733,
      "duration": 0.0739,
      "velocity": 99,
      "chip": "ym2612"
    },
    {
      "channel": 4,
      "note": 74,
      "start": 28.283,
      "duration": 0.076,
      "velocity": 99,
      "chip": "ym2612"
    },
    {
      "channel": 0,
      "note": 76,
      "start": 28.3063,
      "duration": 0.0376,
      "velocity": 98,
      "chip": "ym2612"
    },
    {
      "channel": 1,
      "note": 73,
      "start": 28.3109,
      "duration": 0.0357,
      "velocity": 98,
      "chip": "ym2612"
    },
    {
      "channel": 2,
      "note": 61,
      "start": 28.3117,
      "duration": 0.0351,
      "velocity": 91,
      "chip": "ym2612"
    },
    {
      "channel": 0,
      "note": 78,
      "start": 28.3463,
      "duration": 0.1193,
      "velocity": 98,
      "chip": "ym2612"
    },
    {
      "channel": 1,
      "note": 75,
      "start": 28.3502,
      "duration": 0.1186,
      "velocity": 98,
      "chip": "ym2612"
    },
    {
      "channel": 2,
      "note": 60,
      "start": 28.3507,
      "duration": 0.0167,
      "velocity": 91,
      "chip": "ym2612"
    },
    {
      "channel": 3,
      "note": 73,
      "start": 28.3513,
      "duration": 0.1629,
      "velocity": 99,
      "chip": "ym2612"
    },
    {
      "channel": 4,
      "note": 73,
      "start": 28.3615,
      "duration": 0.164,
      "velocity": 99,
      "chip": "ym2612"
    },
    {
      "channel": 2,
      "note": 60,
      "start": 28.3887,
      "duration": 0.0166,
      "velocity": 91,
      "chip": "ym2612"
    },
    {
      "channel": 2,
      "note": 60,
      "start": 28.409,
      "duration": 0.0093,
      "velocity": 91,
      "chip": "ym2612"
    },
    {
      "channel": 2,
      "note": 60,
      "start": 28.4215,
      "duration": 0.0076,
      "velocity": 91,
      "chip": "ym2612"
    },
    {
      "channel": 2,
      "note": 60,
      "start": 28.4329,
      "duration": 0.0171,
      "velocity": 91,
      "chip": "ym2612"
    },
    {
      "channel": 0,
      "note": 69,
      "start": 28.4685,
      "duration": 0.0425,
      "velocity": 98,
      "chip": "ym2612"
    },
    {
      "channel": 1,
      "note": 66,
      "start": 28.473,
      "duration": 0.0406,
      "velocity": 98,
      "chip": "ym2612"
    },
    {
      "channel": 2,
      "note": 60,
      "start": 28.4735,
      "duration": 0.0168,
      "velocity": 91,
      "chip": "ym2612"
    },
    {
      "channel": 2,
      "note": 60,
      "start": 28.4937,
      "duration": 0.0096,
      "velocity": 91,
      "chip": "ym2612"
    },
    {
      "channel": 2,
      "note": 60,
      "start": 28.5062,
      "duration": 0.0077,
      "velocity": 91,
      "chip": "ym2612"
    },
    {
      "channel": 0,
      "note": 78,
      "start": 28.5133,
      "duration": 0.0788,
      "velocity": 98,
      "chip": "ym2612"
    },
    {
      "channel": 1,
      "note": 75,
      "start": 28.5173,
      "duration": 0.0776,
      "velocity": 98,
      "chip": "ym2612"
    },
    {
      "channel": 2,
      "note": 60,
      "start": 28.5178,
      "duration": 0.0162,
      "velocity": 91,
      "chip": "ym2612"
    },
    {
      "channel": 3,
      "note": 72,
      "start": 28.5184,
      "duration": 0.1556,
      "velocity": 99,
      "chip": "ym2612"
    },
    {
      "channel": 4,
      "note": 66,
      "start": 28.528,
      "duration": 0.1574,
      "velocity": 99,
      "chip": "ym2612"
    },
    {
      "channel": 2,
      "note": 54,
      "start": 28.5554,
      "duration": 0.0398,
      "velocity": 91,
      "chip": "ym2612"
    },
    {
      "channel": 0,
      "note": 80,
      "start": 28.5946,
      "duration": 0.0357,
      "velocity": 98,
      "chip": "ym2612"
    },
    {
      "channel": 1,
      "note": 75,
      "start": 28.5987,
      "duration": 0.0344,
      "velocity": 98,
      "chip": "ym2612"
    },
    {
      "channel": 2,
      "note": 57,
      "start": 28.5992,
      "duration": 0.0341,
      "velocity": 91,
      "chip": "ym2612"
    },
    {
      "channel": 0,
      "note": 81,
      "start": 28.6327,
      "duration": 0.038,
      "velocity": 98,
      "chip": "ym2612"
    },
    {
      "channel": 1,
      "note": 78,
      "start": 28.6366,
      "duration": 0.0368,
      "velocity": 98,
      "chip": "ym2612"
    },
    {
      "channel": 2,
      "note": 48,
      "start": 28.6371,
      "duration": 0.0365,
      "velocity": 91,
      "chip": "ym2612"
    },
    {
      "channel": 0,
      "note": 83,
      "start": 28.6732,
      "duration": 0.2424,
      "velocity": 98,
      "chip": "ym2612"
    },
    {
      "channel": 1,
      "note": 80,
      "start": 28.6765,
      "duration": 0.2424,
      "velocity": 98,
      "chip": "ym2612"
    },
    {
      "channel": 2,
      "note": 49,
      "start": 28.677,
      "duration": 0.0169,
      "velocity": 91,
      "chip": "ym2612"
    },
    {
      "channel": 3,
      "note": 75,
      "start": 28.6776,
      "duration": 0.0777,
      "velocity": 99,
      "chip": "ym2612"
    },
    {
      "channel": 4,
      "note": 72,
      "start": 28.688,
      "duration": 0.0788,
      "velocity": 99,
      "chip": "ym2612"
    },
    {
      "channel": 2,
      "note": 49,
      "start": 28.7146,
      "duration": 0.0132,
      "velocity": 91,
      "chip": "ym2612"
    },
    {
      "channel": 2,
      "note": 49,
      "start": 28.732,
      "duration": 0.0108,
      "velocity": 91,
      "chip": "ym2612"
    },
    {
      "channel": 2,
      "note": 49,
      "start": 28.7471,
      "duration": 0.0079,
      "velocity": 91,
      "chip": "ym2612"
    },
    {
      "channel": 2,
      "note": 49,
      "start": 28.7584,
      "duration": 0.0171,
      "velocity": 91,
      "chip": "ym2612"
    },
    {
      "channel": 3,
      "note": 73,
      "start": 28.7589,
      "duration": 0.0789,
      "velocity": 99,
      "chip": "ym2612"
    },
    {
      "channel": 4,
      "note": 68,
      "start": 28.7693,
      "duration": 0.0805,
      "velocity": 99,
      "chip": "ym2612"
    },
    {
      "channel": 2,
      "note": 49,
      "start": 28.7966,
      "duration": 0.0145,
      "velocity": 91,
      "chip": "ym2612"
    },
    {
      "channel": 2,
      "note": 49,
      "start": 28.8143,
      "duration": 0.0097,
      "velocity": 91,
      "chip": "ym2612"
    },
    {
      "channel": 2,
      "note": 49,
      "start": 28.8277,
      "duration": 0.0098,
      "velocity": 91,
      "chip": "ym2612"
    },
    {
      "channel": 2,
      "note": 49,
      "start": 28.8415,
      "duration": 0.0171,
      "velocity": 91,
      "chip": "ym2612"
    },
    {
      "channel": 3,
      "note": 77,
      "start": 28.8421,
      "duration": 0.078,
      "velocity": 99,
      "chip": "ym2612"
    },
    {
      "channel": 4,
      "note": 71,
      "start": 28.8524,
      "duration": 0.0802,
      "velocity": 99,
      "chip": "ym2612"
    },
    {
      "channel": 2,
      "note": 49,
      "start": 28.8798,
      "duration": 0.0394,
      "velocity": 91,
      "chip": "ym2612"
    },
    {
      "channel": 0,
      "note": 81,
      "start": 28.9186,
      "duration": 0.0198,
      "velocity": 98,
      "chip": "ym2612"
    },
    {
      "channel": 1,
      "note": 77,
      "start": 28.9233,
      "duration": 0.0177,
      "velocity": 98,
      "chip": "ym2612"
    },
    {
      "channel": 2,
      "note": 53,
      "start": 28.9243,
      "duration": 0.0347,
      "velocity": 91,
      "chip": "ym2612"
    },
    {
      "channel": 3,
      "note": 80,
      "start": 28.9249,
      "duration": 0.0712,
      "velocity": 99,
      "chip": "ym2612"
    },
    {
      "channel": 4,
      "note": 73,
      "start": 28.935,
      "duration": 0.0764,
      "velocity": 99,
      "chip": "ym2612"
    },
    {
      "channel": 0,
      "note": 83,
      "start": 28.9407,
      "duration": 0.0153,
      "velocity": 98,
      "chip": "ym2612"
    },
    {
      "channel": 1,
      "note": 80,
      "start": 28.9434,
      "duration": 0.0153,
      "velocity": 98,
      "chip": "ym2612"
    },
    {
      "channel": 0,
      "note": 81,
      "start": 28.9584,
      "duration": 0.0344,
      "velocity": 98,
      "chip": "ym2612"
    },
    {
      "channel": 1,
      "note": 77,
      "start": 28.9614,
      "duration": 0.0341,
      "velocity": 98,
      "chip": "ym2612"
    },
    {
      "channel": 2,
      "note": 56,
      "start": 28.962,
      "duration": 0.0338,
      "velocity": 91,
      "chip": "ym2612"
    },
    {
      "channel": 0,
      "note": 80,
      "start": 28.9952,
      "duration": 0.0227,
      "velocity": 98,
      "chip": "ym2612"
    },
    {
      "channel": 1,
      "note": 77,
      "start": 29.0003,
      "duration": 0.0205,
      "velocity": 98,
      "chip": "ym2612"
    },
    {
      "channel": 2,
      "note": 61,
      "start": 29.0008,
      "duration": 0.0202,
      "velocity": 91,
      "chip": "ym2612"
    },
    {
      "channel": 3,
      "note": 83,
      "start": 29.0018,
      "duration": 0.0791,
      "velocity": 99,
      "chip": "ym2612"
    },
    {
      "channel": 4,
      "note": 77,
      "start": 29.0143,
      "duration": 0.0792,
      "velocity": 99,
      "chip": "ym2612"
    },
    {
      "channel": 0,
      "note": 78,
      "start": 29.0205,
      "duration": 0.0154,
      "velocity": 98,
      "chip": "ym2612"
    },
    {
      "channel": 1,
      "note": 73,
      "start": 29.0232,
      "duration": 0.0154,
      "velocity": 98,
      "chip": "ym2612"
    },
    {
      "channel": 0,
      "note": 83,
      "start": 29.0383,
      "duration": 0.0178,
      "velocity": 98,
      "chip": "ym2612"
    },
    {
      "channel": 1,
      "note": 80,
      "start": 29.0424,
      "duration": 0.0178,
      "velocity": 98,
      "chip": "ym2612"
    },
    {
      "channel": 2,
      "note": 61,
      "start": 29.043,
      "duration": 0.0135,
      "velocity": 91,
      "chip": "ym2612"
    },
    {
      "channel": 0,
      "note": 81,
      "start": 29.0599,
      "duration": 0.0177,
      "velocity": 98,
      "chip": "ym2612"
    },
    {
      "channel": 2,
      "note": 61,
      "start": 29.0607,
      "duration": 0.0094,
      "velocity": 91,
      "chip": "ym2612"
    },
    {
      "channel": 1,
      "note": 78,
      "start": 29.0632,
      "duration": 0.0171,
      "velocity": 98,
      "chip": "ym2612"
    },
    {
      "channel": 2,
      "note": 61,
      "start": 29.0733,
      "duration": 0.0073,
      "velocity": 91,
      "chip": "ym2612"
    },
    {
      "channel": 0,
      "note": 80,
      "start": 29.08,
      "duration": 0.0214,
      "velocity": 98,
      "chip": "ym2612"
    },
    {
      "channel": 1,
      "note": 77,
      "start": 29.0841,
      "duration": 0.0202,
      "velocity": 98,
      "chip": "ym2612"
    },
    {
      "channel": 2,
      "note": 61,
      "start": 29.0846,
      "duration": 0.0199,
      "velocity": 91,
      "chip": "ym2612"
    },
    {
      "channel": 3,
      "note": 85,
      "start": 29.0851,
      "duration": 0.079,
      "velocity": 99,
      "chip": "ym2612"
    },
    {
      "channel": 4,
      "note": 80,
      "start": 29.0973,
      "duration": 0.0784,
      "velocity": 99,
      "chip": "ym2612"
    },
    {
      "channel": 0,
      "note": 78,
      "start": 29.1039,
      "duration": 0.0159,
      "velocity": 98,
      "chip": "ym2612"
    },
    {
      "channel": 1,
      "note": 73,
      "start": 29.1067,
      "duration": 0.0157,
      "velocity": 98,
      "chip": "ym2612"
    },
    {
      "channel": 0,
      "note": 77,
      "start": 29.1222,
      "duration": 0.0179,
      "velocity": 98,
      "chip": "ym2612"
    },
    {
      "channel": 1,
      "note": 71,
      "start": 29.1265,
      "duration": 0.0173,
      "velocity": 98,
      "chip": "ym2612"
    },
    {
      "channel": 2,
      "note": 61,
      "start": 29.127,
      "duration": 0.0135,
      "velocity": 91,
      "chip": "ym2612"
    },
    {
      "channel": 0,
      "note": 71,
      "start": 29.1436,
      "duration": 0.0173,
      "velocity": 98,
      "chip": "ym2612"
    },
    {
      "channel": 2,
      "note": 61,
      "start": 29.1443,
      "duration": 0.0095,
      "velocity": 91,
      "chip": "ym2612"
    },
    {
      "channel": 1,
      "note": 68,
      "start": 29.1469,
      "duration": 0.0397,
      "velocity": 98,
      "chip": "ym2612"
    },
    {
      "channel": 2,
      "note": 61,
      "start": 29.1566,
      "duration": 0.0072,
      "velocity": 91,
      "chip": "ym2612"
    },
    {
      "channel": 0,
      "note": 73,
      "start": 29.1633,
      "duration": 0.0195,
      "velocity": 98,
      "chip": "ym2612"
    },
    {
      "channel": 2,
      "note": 61,
      "start": 29.1675,
      "duration": 0.0195,
      "velocity": 91,
      "chip": "ym2612"
    },
    {
      "channel": 3,
      "note": 89,
      "start": 29.1681,
      "duration": 0.0782,
      "velocity": 99,
      "chip": "ym2612"
    },
    {
      "channel": 4,
      "note": 83,
      "start": 29.1781,
      "duration": 0.0796,
      "velocity": 99,
      "chip": "ym2612"
    },
    {
      "channel": 0,
      "note": 77,
      "start": 29.186,
      "duration": 0.0174,
      "velocity": 98,
      "chip": "ym2612"
    },
    {
      "channel": 1,
      "note": 71,
      "start": 29.1893,
      "duration": 0.017,
      "velocity": 98,
      "chip": "ym2612"
    },
    {
      "channel": 0,
      "note": 80,
      "start": 29.2061,
      "duration": 0.0165,
      "velocity": 98,
      "chip": "ym2612"
    },
    {
      "channel": 1,
      "note": 73,
      "start": 29.2089,
      "duration": 0.0174,
      "velocity": 98,
      "chip": "ym2612"
    },
    {
      "channel": 2,
      "note": 49,
      "start": 29.2094,
      "duration": 0.1171,
      "velocity": 91,
      "chip": "ym2612"
    },
    {
      "channel": 0,
      "note": 83,
      "start": 29.226,
      "duration": 0.017,
      "velocity": 98,
      "chip": "ym2612"
    },
    {
      "channel": 1,
      "note": 77,
      "start": 29.229,
      "duration": 0.0168,
      "velocity": 98,
      "chip": "ym2612"
    },
    {
      "channel": 0,
      "note": 85,
      "start": 29.2454,
      "duration": 0.018,
      "velocity": 98,
      "chip": "ym2612"
    },
    {
      "channel": 1,
      "note": 80,
      "start": 29.2497,
      "duration": 0.017,
      "velocity": 98,
      "chip": "ym2612"
    },
    {
      "channel": 3,
      "note": 92,
      "start": 29.2505,
      "duration": 0.0763,
      "velocity": 99,
      "chip": "ym2612"
    },
    {
      "channel": 4,
      "note": 85,
      "start": 29.2601,
      "duration": 0.0866,
      "velocity": 99,
      "chip": "ym2612"
    },
    {
      "channel": 0,
      "note": 89,
      "start": 29.2664,
      "duration": 0.0177,
      "velocity": 98,
      "chip": "ym2612"
    },
    {
      "channel": 1,
      "note": 83,
      "start": 29.2697,
      "duration": 0.0171,
      "velocity": 98,
      "chip": "ym2612"
    },
    {
      "channel": 0,
      "note": 92,
      "start": 29.2865,
      "duration": 0.0339,
      "velocity": 98,
      "chip": "ym2612"
    },
    {
      "channel": 1,
      "note": 85,
      "start": 29.2892,
      "duration": 0.0371,
      "velocity": 98,
      "chip": "ym2612"
    },
    {
      "channel": 0,
      "note": 59,
      "start": 29.3259,
      "duration": 0.0297,
      "velocity": 87,
      "chip": "ym2612"
    },
    {
      "channel": 2,
      "note": 42,
      "start": 29.336,
      "duration": 0.9593,
      "velocity": 97,
      "chip": "ym2612"
    },
    {
      "channel": 3,
      "note": 97,
      "start": 29.3391,
      "duration": 0.0197,
      "velocity": 99,
      "chip": "ym2612"
    },
    {
      "channel": 4,
      "note": 89,
      "start": 29.3516,
      "duration": 0.0192,
      "velocity": 99,
      "chip": "ym2612"
    },
    {
      "channel": 0,
      "note": 61,
      "start": 29.358,
      "duration": 0.0194,
      "velocity": 87,
      "chip": "ym2612"
    },
    {
      "channel": 3,
      "note": 93,
      "start": 29.3615,
      "duration": 0.0194,
      "velocity": 99,
      "chip": "ym2612"
    },
    {
      "channel": 4,
      "note": 93,
      "start": 29.3736,
      "duration": 0.0168,
      "velocity": 99,
      "chip": "ym2612"
    },
    {
      "channel": 0,
      "note": 62,
      "start": 29.3801,
      "duration": 0.0162,
      "velocity": 87,
      "chip": "ym2612"
    },
    {
      "channel": 1,
      "note": 59,
      "start": 29.3828,
      "duration": 0.0161,
      "velocity": 87,
      "chip": "ym2612"
    },
    {
      "channel": 3,
      "note": 92,
      "start": 29.3837,
      "duration": 0.0158,
      "velocity": 99,
      "chip": "ym2612"
    },
    {
      "channel": 4,
      "note": 92,
      "start": 29.3929,
      "duration": 0.0167,
      "velocity": 99,
      "chip": "ym2612"
    },
    {
      "channel": 0,
      "note": 66,
      "start": 29.3987,
      "duration": 0.0573,
      "velocity": 87,
      "chip": "ym2612"
    },
    {
      "channel": 1,
      "note": 61,
      "start": 29.4015,
      "duration": 0.0722,
      "velocity": 87,
      "chip": "ym2612"
    },
    {
      "channel": 3,
      "note": 90,
      "start": 29.4023,
      "duration": 0.072,
      "velocity": 99,
      "chip": "ym2612"
    },
    {
      "channel": 4,
      "note": 90,
      "start": 29.4229,
      "duration": 0.1198,
      "velocity": 99,
      "chip": "ym2612"
    },
    {
      "channel": 0,
      "note": 71,
      "start": 29.4734,
      "duration": 0.8041,
      "velocity": 87,
      "chip": "ym2612"
    },
    {
      "channel": 1,
      "note": 62,
      "start": 29.4907,
      "duration": 0.1198,
      "velocity": 87,
      "chip": "ym2612"
    },
    {
      "channel": 3,
      "note": 85,
      "start": 29.4917,
      "duration": 0.1195,
      "velocity": 99,
      "chip": "ym2612"
    },
    {
      "channel": 4,
      "note": 85,
      "start": 29.5627,
      "duration": 0.1174,
      "velocity": 99,
      "chip": "ym2612"
    },
    {
      "channel": 1,
      "note": 66,
      "start": 29.6279,
      "duration": 0.1203,
      "velocity": 87,
      "chip": "ym2612"
    },
    {
      "channel": 3,
      "note": 93,
      "start": 29.6288,
      "duration": 0.12,
      "velocity": 99,
      "chip": "ym2612"
    },
    {
      "channel": 4,
      "note": 93,
      "start": 29.698,
      "duration": 0.0756,
      "velocity": 99,
      "chip": "ym2612"
    },
    {
      "channel": 1,
      "note": 71,
      "start": 29.7652,
      "duration": 0.6432,
      "velocity": 87,
      "chip": "ym2612"
    },
    {
      "channel": 3,
      "note": 92,
      "start": 29.766,
      "duration": 0.0164,
      "velocity": 99,
      "chip": "ym2612"
    },
    {
      "channel": 4,
      "note": 92,
      "start": 29.776,
      "duration": 0.0163,
      "velocity": 99,
      "chip": "ym2612"
    },
    {
      "channel": 3,
      "note": 90,
      "start": 29.785,
      "duration": 0.0749,
      "velocity": 99,
      "chip": "ym2612"
    },
    {
      "channel": 4,
      "note": 90,
      "start": 29.8089,
      "duration": 0.0761,
      "velocity": 99,
      "chip": "ym2612"
    },
    {
      "channel": 3,
      "note": 85,
      "start": 29.8774,
      "duration": 0.0194,
      "velocity": 99,
      "chip": "ym2612"
    },
    {
      "channel": 4,
      "note": 85,
      "start": 29.89,
      "duration": 0.0169,
      "velocity": 99,
      "chip": "ym2612"
    },
    {
      "channel": 3,
      "note": 93,
      "start": 29.8993,
      "duration": 0.019,
      "velocity": 99,
      "chip": "ym2612"
    },
    {
      "channel": 4,
      "note": 93,
      "start": 29.9094,
      "duration": 0.0198,
      "velocity": 99,
      "chip": "ym2612"
    },
    {
      "channel": 3,
      "note": 92,
      "start": 29.9215,
      "duration": 0.0167,
      "velocity": 99,
      "chip": "ym2612"
    },
    {
      "channel": 4,
      "note": 92,
      "start": 29.9317,
      "duration": 0.0209,
      "velocity": 99,
      "chip": "ym2612"
    },
    {
      "channel": 3,
      "note": 90,
      "start": 29.9407,
      "duration": 0.0801,
      "velocity": 99,
      "chip": "ym2612"
    },
    {
      "channel": 4,
      "note": 90,
      "start": 29.97,
      "duration": 0.1198,
      "velocity": 99,
      "chip": "ym2612"
    },
    {
      "channel": 3,
      "note": 85,
      "start": 30.0385,
      "duration": 0.1197,
      "velocity": 99,
      "chip": "ym2612"
    },
    {
      "channel": 4,
      "note": 85,
      "start": 30.1096,
      "duration": 0.1174,
      "velocity": 99,
      "chip": "ym2612"
    },
    {
      "channel": 3,
      "note": 93,
      "start": 30.1756,
      "duration": 0.1201,
      "velocity": 99,
      "chip": "ym2612"
    },
    {
      "channel": 4,
      "note": 93,
      "start": 30.2444,
      "duration": 0.0779,
      "velocity": 99,
      "chip": "ym2612"
    },
    {
      "channel": 0,
      "note": 73,
      "start": 30.2947,
      "duration": 0.0344,
      "velocity": 87,
      "chip": "ym2612"
    },
    {
      "channel": 2,
      "note": 42,
      "start": 30.3124,
      "duration": 0.0962,
      "velocity": 97,
      "chip": "ym2612"
    },
    {
      "channel": 3,
      "note": 92,
      "start": 30.3133,
      "duration": 0.019,
      "velocity": 99,
      "chip": "ym2612"
    },
    {
      "channel": 4,
      "note": 92,
      "start": 30.3252,
      "duration": 0.0165,
      "velocity": 99,
      "chip": "ym2612"
    },
    {
      "channel": 0,
      "note": 74,
      "start": 30.3315,
      "duration": 0.0592,
      "velocity": 87,
      "chip": "ym2612"
    },
    {
      "channel": 3,
      "note": 90,
      "start": 30.3348,
      "duration": 0.0741,
      "velocity": 99,
      "chip": "ym2612"
    },
    {
      "channel": 4,
      "note": 90,
      "start": 30.3576,
      "duration": 0.0768,
      "velocity": 99,
      "chip": "ym2612"
    },
    {
      "channel": 0,
      "note": 76,
      "start": 30.408,
      "duration": 0.419,
      "velocity": 87,
      "chip": "ym2612"
    },
    {
      "channel": 1,
      "note": 73,
      "start": 30.4254,
      "duration": 0.0174,
      "velocity": 87,
      "chip": "ym2612"
    },
    {
      "channel": 2,
      "note": 40,
      "start": 30.4259,
      "duration": 0.6685,
      "velocity": 97,
      "chip": "ym2612"
    },
    {
      "channel": 3,
      "note": 85,
      "start": 30.4268,
      "duration": 0.0166,
      "velocity": 99,
      "chip": "ym2612"
    },
    {
      "channel": 4,
      "note": 85,
      "start": 30.4371,
      "duration": 0.0157,
      "velocity": 99,
      "chip": "ym2612"
    },
    {
      "channel": 1,
      "note": 74,
      "start": 30.4452,
      "duration": 0.0162,
      "velocity": 87,
      "chip": "ym2612"
    },
    {
      "channel": 3,
      "note": 92,
      "start": 30.4461,
      "duration": 0.0159,
      "velocity": 99,
      "chip": "ym2612"
    },
    {
      "channel": 4,
      "note": 92,
      "start": 30.4556,
      "duration": 0.0185,
      "velocity": 99,
      "chip": "ym2612"
    },
    {
      "channel": 1,
      "note": 76,
      "start": 30.4642,
      "duration": 0.4942,
      "velocity": 87,
      "chip": "ym2612"
    },
    {
      "channel": 3,
      "note": 90,
      "start": 30.465,
      "duration": 0.0193,
      "velocity": 99,
      "chip": "ym2612"
    },
    {
      "channel": 4,
      "note": 90,
      "start": 30.4772,
      "duration": 0.0249,
      "velocity": 99,
      "chip": "ym2612"
    },
    {
      "channel": 3,
      "note": 88,
      "start": 30.4868,
      "duration": 0.0838,
      "velocity": 99,
      "chip": "ym2612"
    },
    {
      "channel": 4,
      "note": 88,
      "start": 30.5196,
      "duration": 0.1198,
      "velocity": 99,
      "chip": "ym2612"
    },
    {
      "channel": 3,
      "note": 83,
      "start": 30.5881,
      "duration": 0.1197,
      "velocity": 99,
      "chip": "ym2612"
    },
    {
      "channel": 4,
      "note": 83,
      "start": 30.6569,
      "duration": 0.1198,
      "velocity": 99,
      "chip": "ym2612"
    },
    {
      "channel": 3,
      "note": 92,
      "start": 30.7251,
      "duration": 0.1202,
      "velocity": 99,
      "chip": "ym2612"
    },
    {
      "channel": 4,
      "note": 92,
      "start": 30.7941,
      "duration": 0.0761,
      "velocity": 99,
      "chip": "ym2612"
    },
    {
      "channel": 0,
      "note": 74,
      "start": 30.8444,
      "duration": 0.0964,
      "velocity": 87,
      "chip": "ym2612"
    },
    {
      "channel": 3,
      "note": 90,
      "start": 30.8624,
      "duration": 0.0198,
      "velocity": 99,
      "chip": "ym2612"
    },
    {
      "channel": 4,
      "note": 90,
      "start": 30.8734,
      "duration": 0.0184,
      "velocity": 99,
      "chip": "ym2612"
    },
    {
      "channel": 3,
      "note": 88,
      "start": 30.8848,
      "duration": 0.0743,
      "velocity": 99,
      "chip": "ym2612"
    },
    {
      "channel": 4,
      "note": 88,
      "start": 30.9078,
      "duration": 0.0759,
      "velocity": 99,
      "chip": "ym2612"
    },
    {
      "channel": 0,
      "note": 73,
      "start": 30.9582,
      "duration": 0.1766,
      "velocity": 87,
      "chip": "ym2612"
    },
    {
      "channel": 1,
      "note": 74,
      "start": 30.9756,
      "duration": 0.0356,
      "velocity": 87,
      "chip": "ym2612"
    },
    {
      "channel": 3,
      "note": 83,
      "start": 30.9765,
      "duration": 0.0166,
      "velocity": 99,
      "chip": "ym2612"
    },
    {
      "channel": 4,
      "note": 83,
      "start": 30.9863,
      "duration": 0.0166,
      "velocity": 99,
      "chip": "ym2612"
    },
    {
      "channel": 3,
      "note": 92,
      "start": 30.9955,
      "duration": 0.0162,
      "velocity": 99,
      "chip": "ym2612"
    },
    {
      "channel": 4,
      "note": 92,
      "start": 31.0053,
      "duration": 0.0166,
      "velocity": 99,
      "chip": "ym2612"
    },
    {
      "channel": 1,
      "note": 73,
      "start": 31.0139,
      "duration": 0.1663,
      "velocity": 87,
      "chip": "ym2612"
    },
    {
      "channel": 3,
      "note": 90,
      "start": 31.0148,
      "duration": 0.018,
      "velocity": 99,
      "chip": "ym2612"
    },
    {
      "channel": 4,
      "note": 90,
      "start": 31.0245,
      "duration": 0.0202,
      "velocity": 99,
      "chip": "ym2612"
    },
    {
      "channel": 3,
      "note": 88,
      "start": 31.0368,
      "duration": 0.0178,
      "velocity": 99,
      "chip": "ym2612"
    },
    {
      "channel": 4,
      "note": 88,
      "start": 31.0473,
      "duration": 0.0185,
      "velocity": 99,
      "chip": "ym2612"
    },
    {
      "channel": 3,
      "note": 83,
      "start": 31.0586,
      "duration": 0.0171,
      "velocity": 99,
      "chip": "ym2612"
    },
    {
      "channel": 4,
      "note": 83,
      "start": 31.0685,
      "duration": 0.0168,
      "velocity": 99,
      "chip": "ym2612"
    },
    {
      "channel": 3,
      "note": 92,
      "start": 31.0782,
      "duration": 0.0166,
      "velocity": 99,
      "chip": "ym2612"
    },
    {
      "channel": 4,
      "note": 92,
      "start": 31.0878,
      "duration": 0.0188,
      "velocity": 99,
      "chip": "ym2612"
    },
    {
      "channel": 2,
      "note": 40,
      "start": 31.0983,
      "duration": 0.0396,
      "velocity": 97,
      "chip": "ym2612"
    },
    {
      "channel": 3,
      "note": 90,
      "start": 31.0989,
      "duration": 0.017,
      "velocity": 99,
      "chip": "ym2612"
    },
    {
      "channel": 4,
      "note": 90,
      "start": 31.1091,
      "duration": 0.0194,
      "velocity": 99,
      "chip": "ym2612"
    },
    {
      "channel": 3,
      "note": 88,
      "start": 31.119,
      "duration": 0.0192,
      "velocity": 99,
      "chip": "ym2612"
    },
    {
      "channel": 4,
      "note": 88,
      "start": 31.1314,
      "duration": 0.0213,
      "velocity": 99,
      "chip": "ym2612"
    },
    {
      "channel": 0,
      "note": 59,
      "start": 31.1373,
      "duration": 0.0215,
      "velocity": 87,
      "chip": "ym2612"
    },
    {
      "channel": 2,
      "note": 42,
      "start": 31.1443,
      "duration": 0.9572,
      "velocity": 97,
      "chip": "ym2612"
    },
    {
      "channel": 3,
      "note": 83,
      "start": 31.1451,
      "duration": 0.017,
      "velocity": 99,
      "chip": "ym2612"
    },
    {
      "channel": 4,
      "note": 83,
      "start": 31.1554,
      "duration": 0.0163,
      "velocity": 99,
      "chip": "ym2612"
    },
    {
      "channel": 0,
      "note": 61,
      "start": 31.1613,
      "duration": 0.0164,
      "velocity": 87,
      "chip": "ym2612"
    },
    {
      "channel": 3,
      "note": 93,
      "start": 31.1649,
      "duration": 0.016,
      "velocity": 99,
      "chip": "ym2612"
    },
    {
      "channel": 4,
      "note": 93,
      "start": 31.1742,
      "duration": 0.0162,
      "velocity": 99,
      "chip": "ym2612"
    },
    {
      "channel": 0,
      "note": 62,
      "start": 31.18,
      "duration": 0.0166,
      "velocity": 87,
      "chip": "ym2612"
    },
    {
      "channel": 1,
      "note": 59,
      "start": 31.1828,
      "duration": 0.0165,
      "velocity": 87,
      "chip": "ym2612"
    },
    {
      "channel": 3,
      "note": 92,
      "start": 31.1836,
      "duration": 0.0163,
      "velocity": 99,
      "chip": "ym2612"
    },
    {
      "channel": 4,
      "note": 92,
      "start": 31.1932,
      "duration": 0.022,
      "velocity": 99,
      "chip": "ym2612"
    },
    {
      "channel": 0,
      "note": 66,
      "start": 31.199,
      "duration": 0.0668,
      "velocity": 87,
      "chip": "ym2612"
    },
    {
      "channel": 1,
      "note": 61,
      "start": 31.2022,
      "duration": 0.0812,
      "velocity": 87,
      "chip": "ym2612"
    },
    {
      "channel": 3,
      "note": 90,
      "start": 31.203,
      "duration": 0.0808,
      "velocity": 99,
      "chip": "ym2612"
    },
    {
      "channel": 4,
      "note": 90,
      "start": 31.233,
      "duration": 0.1192,
      "velocity": 99,
      "chip": "ym2612"
    },
    {
      "channel": 0,
      "note": 71,
      "start": 31.283,
      "duration": 0.8005,
      "velocity": 87,
      "chip": "ym2612"
    },
    {
      "channel": 1,
      "note": 62,
      "start": 31.3002,
      "duration": 0.1199,
      "velocity": 87,
      "chip": "ym2612"
    },
    {
      "channel": 3,
      "note": 85,
      "start": 31.3012,
      "duration": 0.1195,
      "velocity": 99,
      "chip": "ym2612"
    },
    {
      "channel": 4,
      "note": 85,
      "start": 31.3698,
      "duration": 0.1198,
      "velocity": 99,
      "chip": "ym2612"
    },
    {
      "channel": 1,
      "note": 66,
      "start": 31.4374,
      "duration": 0.1199,
      "velocity": 87,
      "chip": "ym2612"
    },
    {
      "channel": 3,
      "note": 93,
      "start": 31.4382,
      "duration": 0.1197,
      "velocity": 99,
      "chip": "ym2612"
    },
    {
      "channel": 4,
      "note": 93,
      "start": 31.5069,
      "duration": 0.0762,
      "velocity": 99,
      "chip": "ym2612"
    },
    {
      "channel": 1,
      "note": 71,
      "start": 31.5747,
      "duration": 0.6381,
      "velocity": 87,
      "chip": "ym2612"
    },
    {
      "channel": 3,
      "note": 92,
      "start": 31.5755,
      "duration": 0.0165,
      "velocity": 99,
      "chip": "ym2612"
    },
    {
      "channel": 4,
      "note": 92,
      "start": 31.5856,
      "duration": 0.0159,
      "velocity": 99,
      "chip": "ym2612"
    },
    {
      "channel": 3,
      "note": 90,
      "start": 31.5945,
      "duration": 0.0747,
      "velocity": 99,
      "chip": "ym2612"
    },
    {
      "channel": 4,
      "note": 90,
      "start": 31.6176,
      "duration": 0.0764,
      "velocity": 99,
      "chip": "ym2612"
    },
    {
      "channel": 3,
      "note": 85,
      "start": 31.6866,
      "duration": 0.0167,
      "velocity": 99,
      "chip": "ym2612"
    },
    {
      "channel": 4,
      "note": 85,
      "start": 31.6966,
      "duration": 0.0165,
      "velocity": 99,
      "chip": "ym2612"
    },
    {
      "channel": 3,
      "note": 93,
      "start": 31.706,
      "duration": 0.0166,
      "velocity": 99,
      "chip": "ym2612"
    },
    {
      "channel": 4,
      "note": 93,
      "start": 31.7157,
      "duration": 0.0166,
      "velocity": 99,
      "chip": "ym2612"
    },
    {
      "channel": 3,
      "note": 92,
      "start": 31.7251,
      "duration": 0.0167,
      "velocity": 99,
      "chip": "ym2612"
    },
    {
      "channel": 4,
      "note": 92,
      "start": 31.7353,
      "duration": 0.0233,
      "velocity": 99,
      "chip": "ym2612"
    },
    {
      "channel": 3,
      "note": 90,
      "start": 31.7443,
      "duration": 0.0827,
      "velocity": 99,
      "chip": "ym2612"
    },
    {
      "channel": 4,
      "note": 90,
      "start": 31.776,
      "duration": 0.1201,
      "velocity": 99,
      "chip": "ym2612"
    },
    {
      "channel": 3,
      "note": 85,
      "start": 31.8451,
      "duration": 0.1191,
      "velocity": 99,
      "chip": "ym2612"
    },
    {
      "channel": 4,
      "note": 85,
      "start": 31.9134,
      "duration": 0.1197,
      "velocity": 99,
      "chip": "ym2612"
    },
    {
      "channel": 3,
      "note": 93,
      "start": 31.9816,
      "duration": 0.1202,
      "velocity": 99,
      "chip": "ym2612"
    },
    {
      "channel": 4,
      "note": 93,
      "start": 32.0505,
      "duration": 0.0761,
      "velocity": 99,
      "chip": "ym2612"
    },
    {
      "channel": 0,
      "note": 73,
      "start": 32.1008,
      "duration": 0.0316,
      "velocity": 87,
      "chip": "ym2612"
    },
    {
      "channel": 2,
      "note": 42,
      "start": 32.1185,
      "duration": 0.0946,
      "velocity": 97,
      "chip": "ym2612"
    },
    {
      "channel": 3,
      "note": 92,
      "start": 32.119,
      "duration": 0.0166,
      "velocity": 99,
      "chip": "ym2612"
    },
    {
      "channel": 4,
      "note": 92,
      "start": 32.129,
      "duration": 0.0164,
      "velocity": 99,
      "chip": "ym2612"
    },
    {
      "channel": 0,
      "note": 74,
      "start": 32.1348,
      "duration": 0.0602,
      "velocity": 87,
      "chip": "ym2612"
    },
    {
      "channel": 3,
      "note": 90,
      "start": 32.1381,
      "duration": 0.0753,
      "velocity": 99,
      "chip": "ym2612"
    },
    {
      "channel": 4,
      "note": 90,
      "start": 32.1619,
      "duration": 0.0788,
      "velocity": 99,
      "chip": "ym2612"
    },
    {
      "channel": 0,
      "note": 76,
      "start": 32.2125,
      "duration": 0.4179,
      "velocity": 87,
      "chip": "ym2612"
    },
    {
      "channel": 1,
      "note": 73,
      "start": 32.2297,
      "duration": 0.0199,
      "velocity": 87,
      "chip": "ym2612"
    },
    {
      "channel": 2,
      "note": 40,
      "start": 32.2302,
      "duration": 0.6684,
      "velocity": 97,
      "chip": "ym2612"
    },
    {
      "channel": 3,
      "note": 85,
      "start": 32.2315,
      "duration": 0.0187,
      "velocity": 99,
      "chip": "ym2612"
    },
    {
      "channel": 4,
      "note": 85,
      "start": 32.2439,
      "duration": 0.0161,
      "velocity": 99,
      "chip": "ym2612"
    },
    {
      "channel": 1,
      "note": 74,
      "start": 32.2523,
      "duration": 0.0162,
      "velocity": 87,
      "chip": "ym2612"
    },
    {
      "channel": 3,
      "note": 92,
      "start": 32.2532,
      "duration": 0.0159,
      "velocity": 99,
      "chip": "ym2612"
    },
    {
      "channel": 4,
      "note": 92,
      "start": 32.2628,
      "duration": 0.0158,
      "velocity": 99,
      "chip": "ym2612"
    },
    {
      "channel": 1,
      "note": 76,
      "start": 32.2709,
      "duration": 0.4882,
      "velocity": 87,
      "chip": "ym2612"
    },
    {
      "channel": 3,
      "note": 90,
      "start": 32.2718,
      "duration": 0.0159,
      "velocity": 99,
      "chip": "ym2612"
    },
    {
      "channel": 4,
      "note": 90,
      "start": 32.2813,
      "duration": 0.0242,
      "velocity": 99,
      "chip": "ym2612"
    },
    {
      "channel": 3,
      "note": 88,
      "start": 32.2905,
      "duration": 0.0834,
      "velocity": 99,
      "chip": "ym2612"
    },
    {
      "channel": 4,
      "note": 88,
      "start": 32.323,
      "duration": 0.1198,
      "velocity": 99,
      "chip": "ym2612"
    },
    {
      "channel": 3,
      "note": 83,
      "start": 32.3915,
      "duration": 0.12,
      "velocity": 99,
      "chip": "ym2612"
    },
    {
      "channel": 4,
      "note": 83,
      "start": 32.4609,
      "duration": 0.1192,
      "velocity": 99,
      "chip": "ym2612"
    },
    {
      "channel": 3,
      "note": 92,
      "start": 32.5285,
      "duration": 0.12,
      "velocity": 99,
      "chip": "ym2612"
    },
    {
      "channel": 4,
      "note": 92,
      "start": 32.5975,
      "duration": 0.0756,
      "velocity": 99,
      "chip": "ym2612"
    },
    {
      "channel": 0,
      "note": 78,
      "start": 32.6478,
      "duration": 0.0938,
      "velocity": 87,
      "chip": "ym2612"
    },
    {
      "channel": 3,
      "note": 90,
      "start": 32.6657,
      "duration": 0.0163,
      "velocity": 99,
      "chip": "ym2612"
    },
    {
      "channel": 4,
      "note": 90,
      "start": 32.6756,
      "duration": 0.0163,
      "velocity": 99,
      "chip": "ym2612"
    },
    {
      "channel": 3,
      "note": 88,
      "start": 32.6845,
      "duration": 0.0753,
      "velocity": 99,
      "chip": "ym2612"
    },
    {
      "channel": 4,
      "note": 88,
      "start": 32.7085,
      "duration": 0.0759,
      "velocity": 99,
      "chip": "ym2612"
    },
    {
      "channel": 0,
      "note": 73,
      "start": 32.7588,
      "duration": 0.1758,
      "velocity": 87,
      "chip": "ym2612"
    },
    {
      "channel": 1,
      "note": 78,
      "start": 32.7763,
      "duration": 0.0378,
      "velocity": 87,
      "chip": "ym2612"
    },
    {
      "channel": 3,
      "note": 83,
      "start": 32.7772,
      "duration": 0.0183,
      "velocity": 99,
      "chip": "ym2612"
    },
    {
      "channel": 4,
      "note": 83,
      "start": 32.787,
      "duration": 0.0188,
      "velocity": 99,
      "chip": "ym2612"
    },
    {
      "channel": 3,
      "note": 92,
      "start": 32.7987,
      "duration": 0.0159,
      "velocity": 99,
      "chip": "ym2612"
    },
    {
      "channel": 4,
      "note": 92,
      "start": 32.8083,
      "duration": 0.0181,
      "velocity": 99,
      "chip": "ym2612"
    },
    {
      "channel": 1,
      "note": 73,
      "start": 32.8179,
      "duration": 0.1669,
      "velocity": 87,
      "chip": "ym2612"
    },
    {
      "channel": 3,
      "note": 90,
      "start": 32.8187,
      "duration": 0.017,
      "velocity": 99,
      "chip": "ym2612"
    },
    {
      "channel": 4,
      "note": 90,
      "start": 32.8289,
      "duration": 0.0169,
      "velocity": 99,
      "chip": "ym2612"
    },
    {
      "channel": 3,
      "note": 88,
      "start": 32.8385,
      "duration": 0.0175,
      "velocity": 99,
      "chip": "ym2612"
    },
    {
      "channel": 4,
      "note": 88,
      "start": 32.8491,
      "duration": 0.0185,
      "velocity": 99,
      "chip": "ym2612"
    },
    {
      "channel": 3,
      "note": 83,
      "start": 32.86,
      "duration": 0.017,
      "velocity": 99,
      "chip": "ym2612"
    },
    {
      "channel": 4,
      "note": 83,
      "start": 32.8703,
      "duration": 0.0193,
      "velocity": 99,
      "chip": "ym2612"
    },
    {
      "channel": 3,
      "note": 92,
      "start": 32.8803,
      "duration": 0.0187,
      "velocity": 99,
      "chip": "ym2612"
    },
    {
      "channel": 4,
      "note": 92,
      "start": 32.8921,
      "duration": 0.0177,
      "velocity": 99,
      "chip": "ym2612"
    },
    {
      "channel": 2,
      "note": 40,
      "start": 32.9019,
      "duration": 0.0358,
      "velocity": 97,
      "chip": "ym2612"
    },
    {
      "channel": 3,
      "note": 90,
      "start": 32.9024,
      "duration": 0.0163,
      "velocity": 99,
      "chip": "ym2612"
    },
    {
      "channel": 4,
      "note": 90,
      "start": 32.9123,
      "duration": 0.0159,
      "velocity": 99,
      "chip": "ym2612"
    },
    {
      "channel": 3,
      "note": 88,
      "start": 32.9213,
      "duration": 0.0168,
      "velocity": 99,
      "chip": "ym2612"
    },
    {
      "channel": 4,
      "note": 88,
      "start": 32.9308,
      "duration": 0.0231,
      "velocity": 99,
      "chip": "ym2612"
    },
    {
      "channel": 0,
      "note": 59,
      "start": 32.9371,
      "duration": 0.023,
      "velocity": 87,
      "chip": "ym2612"
    },
    {
      "channel": 2,
      "note": 42,
      "start": 32.9448,
      "duration": 0.9621,
      "velocity": 97,
      "chip": "ym2612"
    },
    {
      "channel": 3,
      "note": 83,
      "start": 32.9457,
      "duration": 0.0177,
      "velocity": 99,
      "chip": "ym2612"
    },
    {
      "channel": 4,
      "note": 83,
      "start": 32.9567,
      "duration": 0.0184,
      "velocity": 99,
      "chip": "ym2612"
    },
    {
      "channel": 0,
      "note": 61,
      "start": 32.9625,
      "duration": 0.0196,
      "velocity": 87,
      "chip": "ym2612"
    },
    {
      "channel": 3,
      "note": 93,
      "start": 32.9658,
      "duration": 0.0196,
      "velocity": 99,
      "chip": "ym2612"
    },
    {
      "channel": 4,
      "note": 93,
      "start": 32.9782,
      "duration": 0.0168,
      "velocity": 99,
      "chip": "ym2612"
    },
    {
      "channel": 0,
      "note": 62,
      "start": 32.9845,
      "duration": 0.0163,
      "velocity": 87,
      "chip": "ym2612"
    },
    {
      "channel": 1,
      "note": 59,
      "start": 32.9874,
      "duration": 0.0161,
      "velocity": 87,
      "chip": "ym2612"
    },
    {
      "channel": 3,
      "note": 92,
      "start": 32.9882,
      "duration": 0.0158,
      "velocity": 99,
      "chip": "ym2612"
    },
    {
      "channel": 4,
      "note": 92,
      "start": 32.9974,
      "duration": 0.0198,
      "velocity": 99,
      "chip": "ym2612"
    },
    {
      "channel": 0,
      "note": 66,
      "start": 33.0032,
      "duration": 0.0645,
      "velocity": 87,
      "chip": "ym2612"
    },
    {
      "channel": 1,
      "note": 61,
      "start": 33.0059,
      "duration": 0.0794,
      "velocity": 87,
      "chip": "ym2612"
    },
    {
      "channel": 3,
      "note": 90,
      "start": 33.0067,
      "duration": 0.0791,
      "velocity": 99,
      "chip": "ym2612"
    },
    {
      "channel": 4,
      "note": 90,
      "start": 33.0346,
      "duration": 0.1198,
      "velocity": 99,
      "chip": "ym2612"
    },
    {
      "channel": 0,
      "note": 71,
      "start": 33.085,
      "duration": 0.8039,
      "velocity": 87,
      "chip": "ym2612"
    },
    {
      "channel": 1,
      "note": 62,
      "start": 33.1024,
      "duration": 0.1199,
      "velocity": 87,
      "chip": "ym2612"
    },
    {
      "channel": 3,
      "note": 85,
      "start": 33.1033,
      "duration": 0.1195,
      "velocity": 99,
      "chip": "ym2612"
    },
    {
      "channel": 4,
      "note": 85,
      "start": 33.172,
      "duration": 0.1198,
      "velocity": 99,
      "chip": "ym2612"
    },
    {
      "channel": 1,
      "note": 66,
      "start": 33.2396,
      "duration": 0.1206,
      "velocity": 87,
      "chip": "ym2612"
    },
    {
      "channel": 3,
      "note": 93,
      "start": 33.2404,
      "duration": 0.1203,
      "velocity": 99,
      "chip": "ym2612"
    },
    {
      "channel": 4,
      "note": 93,
      "start": 33.3094,
      "duration": 0.0756,
      "velocity": 99,
      "chip": "ym2612"
    },
    {
      "channel": 1,
      "note": 71,
      "start": 33.3771,
      "duration": 0.6423,
      "velocity": 87,
      "chip": "ym2612"
    },
    {
      "channel": 3,
      "note": 92,
      "start": 33.3779,
      "duration": 0.0164,
      "velocity": 99,
      "chip": "ym2612"
    },
    {
      "channel": 4,
      "note": 92,
      "start": 33.3875,
      "duration": 0.0167,
      "velocity": 99,
      "chip": "ym2612"
    },
    {
      "channel": 3,
      "note": 90,
      "start": 33.3969,
      "duration": 0.0747,
      "velocity": 99,
      "chip": "ym2612"
    },
    {
      "channel": 4,
      "note": 90,
      "start": 33.4205,
      "duration": 0.0758,
      "velocity": 99,
      "chip": "ym2612"
    },
    {
      "channel": 3,
      "note": 85,
      "start": 33.4891,
      "duration": 0.0163,
      "velocity": 99,
      "chip": "ym2612"
    },
    {
      "channel": 4,
      "note": 85,
      "start": 33.499,
      "duration": 0.0161,
      "velocity": 99,
      "chip": "ym2612"
    },
    {
      "channel": 3,
      "note": 93,
      "start": 33.508,
      "duration": 0.0182,
      "velocity": 99,
      "chip": "ym2612"
    },
    {
      "channel": 4,
      "note": 93,
      "start": 33.5177,
      "duration": 0.0204,
      "velocity": 99,
      "chip": "ym2612"
    },
    {
      "channel": 3,
      "note": 92,
      "start": 33.5297,
      "duration": 0.0175,
      "velocity": 99,
      "chip": "ym2612"
    },
    {
      "channel": 4,
      "note": 92,
      "start": 33.5407,
      "duration": 0.0235,
      "velocity": 99,
      "chip": "ym2612"
    },
    {
      "channel": 3,
      "note": 90,
      "start": 33.5497,
      "duration": 0.0828,
      "velocity": 99,
      "chip": "ym2612"
    },
    {
      "channel": 4,
      "note": 90,
      "start": 33.5815,
      "duration": 0.1198,
      "velocity": 99,
      "chip": "ym2612"
    },
    {
      "channel": 3,
      "note": 85,
      "start": 33.65,
      "duration": 0.1198,
      "velocity": 99,
      "chip": "ym2612"
    },
    {
      "channel": 4,
      "note": 85,
      "start": 33.7189,
      "duration": 0.1196,
      "velocity": 99,
      "chip": "ym2612"
    },
    {
      "channel": 3,
      "note": 93,
      "start": 33.7871,
      "duration": 0.1202,
      "velocity": 99,
      "chip": "ym2612"
    },
    {
      "channel": 4,
      "note": 93,
      "start": 33.856,
      "duration": 0.0782,
      "velocity": 99,
      "chip": "ym2612"
    },
    {
      "channel": 0,
      "note": 73,
      "start": 33.9063,
      "duration": 0.0339,
      "velocity": 87,
      "chip": "ym2612"
    },
    {
      "channel": 2,
      "note": 42,
      "start": 33.9239,
      "duration": 0.0958,
      "velocity": 97,
      "chip": "ym2612"
    },
    {
      "channel": 3,
      "note": 92,
      "start": 33.9245,
      "duration": 0.0189,
      "velocity": 99,
      "chip": "ym2612"
    },
    {
      "channel": 4,
      "note": 92,
      "start": 33.9367,
      "duration": 0.0161,
      "velocity": 99,
      "chip": "ym2612"
    },
    {
      "channel": 0,
      "note": 74,
      "start": 33.9426,
      "duration": 0.0592,
      "velocity": 87,
      "chip": "ym2612"
    },
    {
      "channel": 3,
      "note": 90,
      "start": 33.9459,
      "duration": 0.0742,
      "velocity": 99,
      "chip": "ym2612"
    },
    {
      "channel": 4,
      "note": 90,
      "start": 33.9688,
      "duration": 0.0763,
      "velocity": 99,
      "chip": "ym2612"
    },
    {
      "channel": 0,
      "note": 76,
      "start": 34.0191,
      "duration": 0.4188,
      "velocity": 87,
      "chip": "ym2612"
    },
    {
      "channel": 1,
      "note": 73,
      "start": 34.0365,
      "duration": 0.0173,
      "velocity": 87,
      "chip": "ym2612"
    },
    {
      "channel": 2,
      "note": 40,
      "start": 34.037,
      "duration": 0.6671,
      "velocity": 97,
      "chip": "ym2612"
    },
    {
      "channel": 3,
      "note": 85,
      "start": 34.0378,
      "duration": 0.0165,
      "velocity": 99,
      "chip": "ym2612"
    },
    {
      "channel": 4,
      "note": 85,
      "start": 34.0478,
      "duration": 0.0161,
      "velocity": 99,
      "chip": "ym2612"
    },
    {
      "channel": 1,
      "note": 74,
      "start": 34.0563,
      "duration": 0.016,
      "velocity": 87,
      "chip": "ym2612"
    },
    {
      "channel": 3,
      "note": 92,
      "start": 34.0571,
      "duration": 0.0158,
      "velocity": 99,
      "chip": "ym2612"
    },
    {
      "channel": 4,
      "note": 92,
      "start": 34.0663,
      "duration": 0.0179,
      "velocity": 99,
      "chip": "ym2612"
    },
    {
      "channel": 1,
      "note": 76,
      "start": 34.0748,
      "duration": 0.4944,
      "velocity": 87,
      "chip": "ym2612"
    },
    {
      "channel": 3,
      "note": 90,
      "start": 34.0756,
      "duration": 0.0193,
      "velocity": 99,
      "chip": "ym2612"
    },
    {
      "channel": 4,
      "note": 90,
      "start": 34.0876,
      "duration": 0.0254,
      "velocity": 99,
      "chip": "ym2612"
    },
    {
      "channel": 3,
      "note": 88,
      "start": 34.0978,
      "duration": 0.0836,
      "velocity": 99,
      "chip": "ym2612"
    },
    {
      "channel": 4,
      "note": 88,
      "start": 34.1305,
      "duration": 0.1198,
      "velocity": 99,
      "chip": "ym2612"
    },
    {
      "channel": 3,
      "note": 83,
      "start": 34.1989,
      "duration": 0.1197,
      "velocity": 99,
      "chip": "ym2612"
    },
    {
      "channel": 4,
      "note": 83,
      "start": 34.2678,
      "duration": 0.1198,
      "velocity": 99,
      "chip": "ym2612"
    },
    {
      "channel": 3,
      "note": 92,
      "start": 34.336,
      "duration": 0.1201,
      "velocity": 99,
      "chip": "ym2612"
    },
    {
      "channel": 4,
      "note": 92,
      "start": 34.4049,
      "duration": 0.0756,
      "velocity": 99,
      "chip": "ym2612"
    },
    {
      "channel": 0,
      "note": 74,
      "start": 34.4553,
      "duration": 0.0962,
      "velocity": 87,
      "chip": "ym2612"
    },
    {
      "channel": 3,
      "note": 90,
      "start": 34.4732,
      "duration": 0.0189,
      "velocity": 99,
      "chip": "ym2612"
    },
    {
      "channel": 4,
      "note": 90,
      "start": 34.4833,
      "duration": 0.0191,
      "velocity": 99,
      "chip": "ym2612"
    },
    {
      "channel": 3,
      "note": 88,
      "start": 34.4954,
      "duration": 0.0744,
      "velocity": 99,
      "chip": "ym2612"
    },
    {
      "channel": 4,
      "note": 88,
      "start": 34.5185,
      "duration": 0.0758,
      "velocity": 99,
      "chip": "ym2612"
    },
    {
      "channel": 0,
      "note": 73,
      "start": 34.5689,
      "duration": 0.093,
      "velocity": 87,
      "chip": "ym2612"
    },
    {
      "channel": 1,
      "note": 74,
      "start": 34.5863,
      "duration": 0.0351,
      "velocity": 87,
      "chip": "ym2612"
    },
    {
      "channel": 3,
      "note": 83,
      "start": 34.5872,
      "duration": 0.0165,
      "velocity": 99,
      "chip": "ym2612"
    },
    {
      "channel": 4,
      "note": 83,
      "start": 34.597,
      "duration": 0.0161,
      "velocity": 99,
      "chip": "ym2612"
    },
    {
      "channel": 3,
      "note": 92,
      "start": 34.6061,
      "duration": 0.0158,
      "velocity": 99,
      "chip": "ym2612"
    },
    {
      "channel": 4,
      "note": 92,
      "start": 34.6155,
      "duration": 0.017,
      "velocity": 99,
      "chip": "ym2612"
    },
    {
      "channel": 1,
      "note": 73,
      "start": 34.6241,
      "duration": 0.0798,
      "velocity": 87,
      "chip": "ym2612"
    },
    {
      "channel": 3,
      "note": 90,
      "start": 34.6249,
      "duration": 0.0178,
      "velocity": 99,
      "chip": "ym2612"
    },
    {
      "channel": 4,
      "note": 90,
      "start": 34.635,
      "duration": 0.0201,
      "velocity": 99,
      "chip": "ym2612"
    },
    {
      "channel": 3,
      "note": 88,
      "start": 34.6468,
      "duration": 0.0183,
      "velocity": 99,
      "chip": "ym2612"
    },
    {
      "channel": 4,
      "note": 88,
      "start": 34.6576,
      "duration": 0.0188,
      "velocity": 99,
      "chip": "ym2612"
    },
    {
      "channel": 0,
      "note": 69,
      "start": 34.6643,
      "duration": 0.0778,
      "velocity": 87,
      "chip": "ym2612"
    },
    {
      "channel": 3,
      "note": 83,
      "start": 34.6689,
      "duration": 0.0169,
      "velocity": 99,
      "chip": "ym2612"
    },
    {
      "channel": 4,
      "note": 83,
      "start": 34.6791,
      "duration": 0.0165,
      "velocity": 99,
      "chip": "ym2612"
    },
    {
      "channel": 3,
      "note": 80,
      "start": 34.6882,
      "duration": 0.0163,
      "velocity": 99,
      "chip": "ym2612"
    },
    {
      "channel": 4,
      "note": 80,
      "start": 34.6981,
      "duration": 0.0167,
      "velocity": 99,
      "chip": "ym2612"
    },
    {
      "channel": 1,
      "note": 69,
      "start": 34.7066,
      "duration": 0.0782,
      "velocity": 87,
      "chip": "ym2612"
    },
    {
      "channel": 2,
      "note": 40,
      "start": 34.7072,
      "duration": 0.0379,
      "velocity": 97,
      "chip": "ym2612"
    },
    {
      "channel": 3,
      "note": 83,
      "start": 34.7077,
      "duration": 0.0158,
      "velocity": 99,
      "chip": "ym2612"
    },
    {
      "channel": 4,
      "note": 83,
      "start": 34.7172,
      "duration": 0.0181,
      "velocity": 99,
      "chip": "ym2612"
    },
    {
      "channel": 3,
      "note": 88,
      "start": 34.726,
      "duration": 0.0194,
      "velocity": 99,
      "chip": "ym2612"
    },
    {
      "channel": 4,
      "note": 88,
      "start": 34.7383,
      "duration": 0.0194,
      "velocity": 99,
      "chip": "ym2612"
    },
    {
      "channel": 0,
      "note": 67,
      "start": 34.7445,
      "duration": 0.2055,
      "velocity": 87,
      "chip": "ym2612"
    },
    {
      "channel": 2,
      "note": 38,
      "start": 34.7494,
      "duration": 0.0357,
      "velocity": 97,
      "chip": "ym2612"
    },
    {
      "channel": 3,
      "note": 92,
      "start": 34.7501,
      "duration": 0.0167,
      "velocity": 99,
      "chip": "ym2612"
    },
    {
      "channel": 4,
      "note": 92,
      "start": 34.7602,
      "duration": 0.0163,
      "velocity": 99,
      "chip": "ym2612"
    },
    {
      "channel": 3,
      "note": 90,
      "start": 34.7693,
      "duration": 0.0161,
      "velocity": 99,
      "chip": "ym2612"
    },
    {
      "channel": 4,
      "note": 90,
      "start": 34.779,
      "duration": 0.0182,
      "velocity": 99,
      "chip": "ym2612"
    },
    {
      "channel": 1,
      "note": 67,
      "start": 34.7891,
      "duration": 0.1639,
      "velocity": 87,
      "chip": "ym2612"
    },
    {
      "channel": 2,
      "note": 38,
      "start": 34.7895,
      "duration": 0.014,
      "velocity": 97,
      "chip": "ym2612"
    },
    {
      "channel": 3,
      "note": 88,
      "start": 34.7902,
      "duration": 0.0165,
      "velocity": 99,
      "chip": "ym2612"
    },
    {
      "channel": 4,
      "note": 88,
      "start": 34.7997,
      "duration": 0.0172,
      "velocity": 99,
      "chip": "ym2612"
    },
    {
      "channel": 2,
      "note": 38,
      "start": 34.8063,
      "duration": 0.01,
      "velocity": 97,
      "chip": "ym2612"
    },
    {
      "channel": 3,
      "note": 86,
      "start": 34.8094,
      "duration": 0.0202,
      "velocity": 99,
      "chip": "ym2612"
    },
    {
      "channel": 2,
      "note": 38,
      "start": 34.82,
      "duration": 0.0094,
      "velocity": 97,
      "chip": "ym2612"
    },
    {
      "channel": 4,
      "note": 86,
      "start": 34.8215,
      "duration": 0.0195,
      "velocity": 99,
      "chip": "ym2612"
    },
    {
      "channel": 2,
      "note": 38,
      "start": 34.8331,
      "duration": 0.0354,
      "velocity": 97,
      "chip": "ym2612"
    },
    {
      "channel": 3,
      "note": 81,
      "start": 34.8339,
      "duration": 0.0165,
      "velocity": 99,
      "chip": "ym2612"
    },
    {
      "channel": 4,
      "note": 81,
      "start": 34.844,
      "duration": 0.0158,
      "velocity": 99,
      "chip": "ym2612"
    },
    {
      "channel": 3,
      "note": 90,
      "start": 34.8528,
      "duration": 0.016,
      "velocity": 99,
      "chip": "ym2612"
    },
    {
      "channel": 4,
      "note": 90,
      "start": 34.8624,
      "duration": 0.0182,
      "velocity": 99,
      "chip": "ym2612"
    },
    {
      "channel": 2,
      "note": 38,
      "start": 34.8727,
      "duration": 0.0144,
      "velocity": 97,
      "chip": "ym2612"
    },
    {
      "channel": 3,
      "note": 88,
      "start": 34.8732,
      "duration": 0.0169,
      "velocity": 99,
      "chip": "ym2612"
    },
    {
      "channel": 4,
      "note": 88,
      "start": 34.8832,
      "duration": 0.0168,
      "velocity": 99,
      "chip": "ym2612"
    },
    {
      "channel": 2,
      "note": 38,
      "start": 34.8897,
      "duration": 0.0097,
      "velocity": 97,
      "chip": "ym2612"
    },
    {
      "channel": 3,
      "note": 86,
      "start": 34.8929,
      "duration": 0.0193,
      "velocity": 99,
      "chip": "ym2612"
    },
    {
      "channel": 2,
      "note": 38,
      "start": 34.9022,
      "duration": 0.0095,
      "velocity": 97,
      "chip": "ym2612"
    },
    {
      "channel": 4,
      "note": 86,
      "start": 34.903,
      "duration": 0.0215,
      "velocity": 99,
      "chip": "ym2612"
    },
    {
      "channel": 2,
      "note": 38,
      "start": 34.9162,
      "duration": 0.0372,
      "velocity": 97,
      "chip": "ym2612"
    },
    {
      "channel": 3,
      "note": 81,
      "start": 34.9169,
      "duration": 0.0168,
      "velocity": 99,
      "chip": "ym2612"
    },
    {
      "channel": 4,
      "note": 81,
      "start": 34.9272,
      "duration": 0.0164,
      "velocity": 99,
      "chip": "ym2612"
    },
    {
      "channel": 3,
      "note": 90,
      "start": 34.9362,
      "duration": 0.0174,
      "velocity": 99,
      "chip": "ym2612"
    },
    {
      "channel": 4,
      "note": 90,
      "start": 34.9465,
      "duration": 0.0182,
      "velocity": 99,
      "chip": "ym2612"
    },
    {
      "channel": 0,
      "note": 66,
      "start": 34.9527,
      "duration": 0.0388,
      "velocity": 87,
      "chip": "ym2612"
    },
    {
      "channel": 1,
      "note": 67,
      "start": 34.9561,
      "duration": 0.0384,
      "velocity": 87,
      "chip": "ym2612"
    },
    {
      "channel": 2,
      "note": 38,
      "start": 34.9566,
      "duration": 0.0143,
      "velocity": 97,
      "chip": "ym2612"
    },
    {
      "channel": 3,
      "note": 88,
      "start": 34.9572,
      "duration": 0.0172,
      "velocity": 99,
      "chip": "ym2612"
    },
    {
      "channel": 4,
      "note": 88,
      "start": 34.9671,
      "duration": 0.017,
      "velocity": 99,
      "chip": "ym2612"
    },
    {
      "channel": 2,
      "note": 38,
      "start": 34.9741,
      "duration": 0.0094,
      "velocity": 97,
      "chip": "ym2612"
    },
    {
      "channel": 3,
      "note": 86,
      "start": 34.9772,
      "duration": 0.0178,
      "velocity": 99,
      "chip": "ym2612"
    },
    {
      "channel": 2,
      "note": 38,
      "start": 34.9866,
      "duration": 0.0082,
      "velocity": 97,
      "chip": "ym2612"
    },
    {
      "channel": 4,
      "note": 86,
      "start": 34.9875,
      "duration": 0.0214,
      "velocity": 99,
      "chip": "ym2612"
    },
    {
      "channel": 0,
      "note": 67,
      "start": 34.9942,
      "duration": 0.0389,
      "velocity": 87,
      "chip": "ym2612"
    },
    {
      "channel": 1,
      "note": 66,
      "start": 34.9986,
      "duration": 0.0371,
      "velocity": 87,
      "chip": "ym2612"
    },
    {
      "channel": 2,
      "note": 38,
      "start": 34.9993,
      "duration": 0.0366,
      "velocity": 97,
      "chip": "ym2612"
    },
    {
      "channel": 3,
      "note": 81,
      "start": 35.0004,
      "duration": 0.0173,
      "velocity": 99,
      "chip": "ym2612"
    },
    {
      "channel": 4,
      "note": 81,
      "start": 35.0115,
      "duration": 0.0158,
      "velocity": 99,
      "chip": "ym2612"
    },
    {
      "channel": 3,
      "note": 85,
      "start": 35.0201,
      "duration": 0.0161,
      "velocity": 99,
      "chip": "ym2612"
    },
    {
      "channel": 4,
      "note": 85,
      "start": 35.0296,
      "duration": 0.0181,
      "velocity": 99,
      "chip": "ym2612"
    },
    {
      "channel": 0,
      "note": 71,
      "start": 35.0354,
      "duration": 0.0364,
      "velocity": 87,
      "chip": "ym2612"
    },
    {
      "channel": 1,
      "note": 67,
      "start": 35.0395,
      "duration": 0.035,
      "velocity": 87,
      "chip": "ym2612"
    },
    {
      "channel": 2,
      "note": 38,
      "start": 35.04,
      "duration": 0.0347,
      "velocity": 97,
      "chip": "ym2612"
    },
    {
      "channel": 3,
      "note": 86,
      "start": 35.0406,
      "duration": 0.0161,
      "velocity": 99,
      "chip": "ym2612"
    },
    {
      "channel": 4,
      "note": 86,
      "start": 35.0501,
      "duration": 0.0159,
      "velocity": 99,
      "chip": "ym2612"
    },
    {
      "channel": 3,
      "note": 88,
      "start": 35.0592,
      "duration": 0.0159,
      "velocity": 99,
      "chip": "ym2612"
    },
    {
      "channel": 4,
      "note": 88,
      "start": 35.0684,
      "duration": 0.0202,
      "velocity": 99,
      "chip": "ym2612"
    },
    {
      "channel": 0,
      "note": 73,
      "start": 35.0741,
      "duration": 0.1658,
      "velocity": 87,
      "chip": "ym2612"
    },
    {
      "channel": 1,
      "note": 71,
      "start": 35.0775,
      "duration": 0.0387,
      "velocity": 87,
      "chip": "ym2612"
    },
    {
      "channel": 2,
      "note": 40,
      "start": 35.078,
      "duration": 0.0384,
      "velocity": 97,
      "chip": "ym2612"
    },
    {
      "channel": 3,
      "note": 90,
      "start": 35.0788,
      "duration": 0.0196,
      "velocity": 99,
      "chip": "ym2612"
    },
    {
      "channel": 4,
      "note": 90,
      "start": 35.0918,
      "duration": 0.0161,
      "velocity": 99,
      "chip": "ym2612"
    },
    {
      "channel": 3,
      "note": 92,
      "start": 35.1008,
      "duration": 0.0159,
      "velocity": 99,
      "chip": "ym2612"
    },
    {
      "channel": 4,
      "note": 92,
      "start": 35.1104,
      "duration": 0.0185,
      "velocity": 99,
      "chip": "ym2612"
    },
    {
      "channel": 1,
      "note": 73,
      "start": 35.1199,
      "duration": 0.1655,
      "velocity": 87,
      "chip": "ym2612"
    },
    {
      "channel": 2,
      "note": 40,
      "start": 35.1204,
      "duration": 0.0151,
      "velocity": 97,
      "chip": "ym2612"
    },
    {
      "channel": 3,
      "note": 90,
      "start": 35.121,
      "duration": 0.0175,
      "velocity": 99,
      "chip": "ym2612"
    },
    {
      "channel": 4,
      "note": 90,
      "start": 35.1313,
      "duration": 0.0172,
      "velocity": 99,
      "chip": "ym2612"
    },
    {
      "channel": 2,
      "note": 40,
      "start": 35.1381,
      "duration": 0.0098,
      "velocity": 97,
      "chip": "ym2612"
    },
    {
      "channel": 3,
      "note": 88,
      "start": 35.1413,
      "duration": 0.0177,
      "velocity": 99,
      "chip": "ym2612"
    },
    {
      "channel": 2,
      "note": 40,
      "start": 35.151,
      "duration": 0.0077,
      "velocity": 97,
      "chip": "ym2612"
    },
    {
      "channel": 4,
      "note": 88,
      "start": 35.1519,
      "duration": 0.0189,
      "velocity": 99,
      "chip": "ym2612"
    },
    {
      "channel": 2,
      "note": 40,
      "start": 35.1625,
      "duration": 0.0391,
      "velocity": 97,
      "chip": "ym2612"
    },
    {
      "channel": 3,
      "note": 83,
      "start": 35.1632,
      "duration": 0.0194,
      "velocity": 99,
      "chip": "ym2612"
    },
    {
      "channel": 4,
      "note": 83,
      "start": 35.1745,
      "duration": 0.0181,
      "velocity": 99,
      "chip": "ym2612"
    },
    {
      "channel": 3,
      "note": 92,
      "start": 35.1855,
      "duration": 0.0164,
      "velocity": 99,
      "chip": "ym2612"
    },
    {
      "channel": 4,
      "note": 92,
      "start": 35.1954,
      "duration": 0.0176,
      "velocity": 99,
      "chip": "ym2612"
    },
    {
      "channel": 2,
      "note": 40,
      "start": 35.2051,
      "duration": 0.0148,
      "velocity": 97,
      "chip": "ym2612"
    },
    {
      "channel": 3,
      "note": 90,
      "start": 35.2057,
      "duration": 0.017,
      "velocity": 99,
      "chip": "ym2612"
    },
    {
      "channel": 4,
      "note": 90,
      "start": 35.216,
      "duration": 0.017,
      "velocity": 99,
      "chip": "ym2612"
    },
    {
      "channel": 2,
      "note": 40,
      "start": 35.2224,
      "duration": 0.01,
      "velocity": 97,
      "chip": "ym2612"
    },
    {
      "channel": 3,
      "note": 88,
      "start": 35.226,
      "duration": 0.0172,
      "velocity": 99,
      "chip": "ym2612"
    },
    {
      "channel": 2,
      "note": 40,
      "start": 35.2352,
      "duration": 0.0077,
      "velocity": 97,
      "chip": "ym2612"
    },
    {
      "channel": 4,
      "note": 88,
      "start": 35.2361,
      "duration": 0.0183,
      "velocity": 99,
      "chip": "ym2612"
    },
    {
      "channel": 0,
      "note": 69,
      "start": 35.2424,
      "duration": 0.1639,
      "velocity": 87,
      "chip": "ym2612"
    },
    {
      "channel": 2,
      "note": 40,
      "start": 35.2461,
      "duration": 0.0397,
      "velocity": 97,
      "chip": "ym2612"
    },
    {
      "channel": 3,
      "note": 83,
      "start": 35.2468,
      "duration": 0.0189,
      "velocity": 99,
      "chip": "ym2612"
    },
    {
      "channel": 4,
      "note": 83,
      "start": 35.2574,
      "duration": 0.0193,
      "velocity": 99,
      "chip": "ym2612"
    },
    {
      "channel": 3,
      "note": 92,
      "start": 35.2693,
      "duration": 0.0168,
      "velocity": 99,
      "chip": "ym2612"
    },
    {
      "channel": 4,
      "note": 92,
      "start": 35.2792,
      "duration": 0.0187,
      "velocity": 99,
      "chip": "ym2612"
    },
    {
      "channel": 1,
      "note": 69,
      "start": 35.2894,
      "duration": 0.1665,
      "velocity": 87,
      "chip": "ym2612"
    },
    {
      "channel": 2,
      "note": 40,
      "start": 35.2899,
      "duration": 0.0144,
      "velocity": 97,
      "chip": "ym2612"
    },
    {
      "channel": 3,
      "note": 90,
      "start": 35.2904,
      "duration": 0.0169,
      "velocity": 99,
      "chip": "ym2612"
    },
    {
      "channel": 4,
      "note": 90,
      "start": 35.3004,
      "duration": 0.017,
      "velocity": 99,
      "chip": "ym2612"
    },
    {
      "channel": 2,
      "note": 40,
      "start": 35.307,
      "duration": 0.0098,
      "velocity": 97,
      "chip": "ym2612"
    },
    {
      "channel": 3,
      "note": 88,
      "start": 35.3101,
      "duration": 0.0173,
      "velocity": 99,
      "chip": "ym2612"
    },
    {
      "channel": 2,
      "note": 40,
      "start": 35.3198,
      "duration": 0.0072,
      "velocity": 97,
      "chip": "ym2612"
    },
    {
      "channel": 4,
      "note": 88,
      "start": 35.3207,
      "duration": 0.0179,
      "velocity": 99,
      "chip": "ym2612"
    },
    {
      "channel": 2,
      "note": 40,
      "start": 35.3308,
      "duration": 0.0785,
      "velocity": 97,
      "chip": "ym2612"
    },
    {
      "channel": 3,
      "note": 90,
      "start": 35.3314,
      "duration": 0.016,
      "velocity": 99,
      "chip": "ym2612"
    },
    {
      "channel": 4,
      "note": 90,
      "start": 35.341,
      "duration": 0.0191,
      "velocity": 99,
      "chip": "ym2612"
    },
    {
      "channel": 3,
      "note": 92,
      "start": 35.3505,
      "duration": 0.0189,
      "velocity": 99,
      "chip": "ym2612"
    },
    {
      "channel": 4,
      "note": 92,
      "start": 35.3626,
      "duration": 0.0186,
      "velocity": 99,
      "chip": "ym2612"
    },
    {
      "channel": 3,
      "note": 93,
      "start": 35.3735,
      "duration": 0.0167,
      "velocity": 99,
      "chip": "ym2612"
    },
    {
      "channel": 4,
      "note": 93,
      "start": 35.3837,
      "duration": 0.0162,
      "velocity": 99,
      "chip": "ym2612"
    },
    {
      "channel": 3,
      "note": 95,
      "start": 35.3927,
      "duration": 0.0171,
      "velocity": 99,
      "chip": "ym2612"
    },
    {
      "channel": 4,
      "note": 95,
      "start": 35.4026,
      "duration": 0.0228,
      "velocity": 99,
      "chip": "ym2612"
    },
    {
      "channel": 0,
      "note": 71,
      "start": 35.4089,
      "duration": 0.2563,
      "velocity": 87,
      "chip": "ym2612"
    },
    {
      "channel": 2,
      "note": 42,
      "start": 35.4164,
      "duration": 0.3371,
      "velocity": 97,
      "chip": "ym2612"
    },
    {
      "channel": 3,
      "note": 92,
      "start": 35.4172,
      "duration": 0.0174,
      "velocity": 99,
      "chip": "ym2612"
    },
    {
      "channel": 4,
      "note": 93,
      "start": 35.4279,
      "duration": 0.0182,
      "velocity": 99,
      "chip": "ym2612"
    },
    {
      "channel": 3,
      "note": 93,
      "start": 35.4371,
      "duration": 0.0193,
      "velocity": 99,
      "chip": "ym2612"
    },
    {
      "channel": 4,
      "note": 92,
      "start": 35.4493,
      "duration": 0.0195,
      "velocity": 99,
      "chip": "ym2612"
    },
    {
      "channel": 1,
      "note": 71,
      "start": 35.4604,
      "duration": 0.2484,
      "velocity": 87,
      "chip": "ym2612"
    },
    {
      "channel": 3,
      "note": 92,
      "start": 35.4613,
      "duration": 0.0164,
      "velocity": 99,
      "chip": "ym2612"
    },
    {
      "channel": 4,
      "note": 85,
      "start": 35.4714,
      "duration": 0.0172,
      "velocity": 99,
      "chip": "ym2612"
    },
    {
      "channel": 3,
      "note": 85,
      "start": 35.4809,
      "duration": 0.0169,
      "velocity": 99,
      "chip": "ym2612"
    },
    {
      "channel": 4,
      "note": 93,
      "start": 35.491,
      "duration": 0.0171,
      "velocity": 99,
      "chip": "ym2612"
    },
    {
      "channel": 3,
      "note": 93,
      "start": 35.5002,
      "duration": 0.0168,
      "velocity": 99,
      "chip": "ym2612"
    },
    {
      "channel": 4,
      "note": 92,
      "start": 35.5106,
      "duration": 0.0169,
      "velocity": 99,
      "chip": "ym2612"
    },
    {
      "channel": 3,
      "note": 92,
      "start": 35.52,
      "duration": 0.0197,
      "velocity": 99,
      "chip": "ym2612"
    },
    {
      "channel": 4,
      "note": 85,
      "start": 35.5309,
      "duration": 0.0209,
      "velocity": 99,
      "chip": "ym2612"
    },
    {
      "channel": 3,
      "note": 85,
      "start": 35.5442,
      "duration": 0.0171,
      "velocity": 99,
      "chip": "ym2612"
    },
    {
      "channel": 4,
      "note": 93,
      "start": 35.5544,
      "duration": 0.0182,
      "velocity": 99,
      "chip": "ym2612"
    },
    {
      "channel": 3,
      "note": 93,
      "start": 35.5651,
      "duration": 0.0174,
      "velocity": 99,
      "chip": "ym2612"
    },
    {
      "channel": 4,
      "note": 92,
      "start": 35.5755,
      "duration": 0.0185,
      "velocity": 99,
      "chip": "ym2612"
    },
    {
      "channel": 3,
      "note": 92,
      "start": 35.5866,
      "duration": 0.0166,
      "velocity": 99,
      "chip": "ym2612"
    },
    {
      "channel": 4,
      "note": 85,
      "start": 35.5967,
      "duration": 0.0168,
      "velocity": 99,
      "chip": "ym2612"
    },
    {
      "channel": 3,
      "note": 85,
      "start": 35.6061,
      "duration": 0.0178,
      "velocity": 99,
      "chip": "ym2612"
    },
    {
      "channel": 4,
      "note": 93,
      "start": 35.6164,
      "duration": 0.0214,
      "velocity": 99,
      "chip": "ym2612"
    },
    {
      "channel": 3,
      "note": 93,
      "start": 35.6291,
      "duration": 0.0181,
      "velocity": 99,
      "chip": "ym2612"
    },
    {
      "channel": 4,
      "note": 92,
      "start": 35.6403,
      "duration": 0.0185,
      "velocity": 99,
      "chip": "ym2612"
    },
    {
      "channel": 3,
      "note": 92,
      "start": 35.651,
      "duration": 0.0174,
      "velocity": 99,
      "chip": "ym2612"
    },
    {
      "channel": 4,
      "note": 85,
      "start": 35.6615,
      "duration": 0.0183,
      "velocity": 99,
      "chip": "ym2612"
    },
    {
      "channel": 0,
      "note": 78,
      "start": 35.6676,
      "duration": 0.083,
      "velocity": 87,
      "chip": "ym2612"
    },
    {
      "channel": 3,
      "note": 85,
      "start": 35.6721,
      "duration": 0.0166,
      "velocity": 99,
      "chip": "ym2612"
    },
    {
      "channel": 4,
      "note": 93,
      "start": 35.6823,
      "duration": 0.0173,
      "velocity": 99,
      "chip": "ym2612"
    },
    {
      "channel": 3,
      "note": 93,
      "start": 35.6916,
      "duration": 0.0178,
      "velocity": 99,
      "chip": "ym2612"
    },
    {
      "channel": 4,
      "note": 92,
      "start": 35.7021,
      "duration": 0.0204,
      "velocity": 99,
      "chip": "ym2612"
    },
    {
      "channel": 1,
      "note": 78,
      "start": 35.7119,
      "duration": 0.081,
      "velocity": 87,
      "chip": "ym2612"
    },
    {
      "channel": 3,
      "note": 92,
      "start": 35.7127,
      "duration": 0.0191,
      "velocity": 99,
      "chip": "ym2612"
    },
    {
      "channel": 4,
      "note": 85,
      "start": 35.7253,
      "duration": 0.0188,
      "velocity": 99,
      "chip": "ym2612"
    },
    {
      "channel": 3,
      "note": 85,
      "start": 35.7361,
      "duration": 0.0178,
      "velocity": 99,
      "chip": "ym2612"
    },
    {
      "channel": 4,
      "note": 93,
      "start": 35.7468,
      "duration": 0.0185,
      "velocity": 99,
      "chip": "ym2612"
    },
    {
      "channel": 0,
      "note": 73,
      "start": 35.753,
      "duration": 0.246,
      "velocity": 87,
      "chip": "ym2612"
    },
    {
      "channel": 2,
      "note": 40,
      "start": 35.7573,
      "duration": 0.3279,
      "velocity": 97,
      "chip": "ym2612"
    },
    {
      "channel": 3,
      "note": 93,
      "start": 35.758,
      "duration": 0.016,
      "velocity": 99,
      "chip": "ym2612"
    },
    {
      "channel": 4,
      "note": 92,
      "start": 35.7677,
      "duration": 0.0168,
      "velocity": 99,
      "chip": "ym2612"
    },
    {
      "channel": 3,
      "note": 92,
      "start": 35.777,
      "duration": 0.0164,
      "velocity": 99,
      "chip": "ym2612"
    },
    {
      "channel": 4,
      "note": 85,
      "start": 35.7871,
      "duration": 0.0182,
      "velocity": 99,
      "chip": "ym2612"
    },
    {
      "channel": 1,
      "note": 73,
      "start": 35.7956,
      "duration": 0.2454,
      "velocity": 87,
      "chip": "ym2612"
    },
    {
      "channel": 3,
      "note": 85,
      "start": 35.7966,
      "duration": 0.0198,
      "velocity": 99,
      "chip": "ym2612"
    },
    {
      "channel": 4,
      "note": 93,
      "start": 35.8089,
      "duration": 0.0177,
      "velocity": 99,
      "chip": "ym2612"
    },
    {
      "channel": 3,
      "note": 93,
      "start": 35.8189,
      "duration": 0.0166,
      "velocity": 99,
      "chip": "ym2612"
    },
    {
      "channel": 4,
      "note": 92,
      "start": 35.829,
      "duration": 0.0168,
      "velocity": 99,
      "chip": "ym2612"
    },
    {
      "channel": 3,
      "note": 92,
      "start": 35.8381,
      "duration": 0.0168,
      "velocity": 99,
      "chip": "ym2612"
    },
    {
      "channel": 4,
      "note": 85,
      "start": 35.8484,
      "duration": 0.0174,
      "velocity": 99,
      "chip": "ym2612"
    },
    {
      "channel": 3,
      "note": 85,
      "start": 35.8579,
      "duration": 0.017,
      "velocity": 99,
      "chip": "ym2612"
    },
    {
      "channel": 4,
      "note": 93,
      "start": 35.8684,
      "duration": 0.0184,
      "velocity": 99,
      "chip": "ym2612"
    },
    {
      "channel": 3,
      "note": 93,
      "start": 35.8789,
      "duration": 0.0193,
      "velocity": 99,
      "chip": "ym2612"
    },
    {
      "channel": 4,
      "note": 92,
      "start": 35.8893,
      "duration": 0.0199,
      "velocity": 99,
      "chip": "ym2612"
    },
    {
      "channel": 3,
      "note": 92,
      "start": 35.9017,
      "duration": 0.0168,
      "velocity": 99,
      "chip": "ym2612"
    },
    {
      "channel": 4,
      "note": 85,
      "start": 35.9119,
      "duration": 0.0178,
      "velocity": 99,
      "chip": "ym2612"
    },
    {
      "channel": 3,
      "note": 85,
      "start": 35.9221,
      "duration": 0.0168,
      "velocity": 99,
      "chip": "ym2612"
    },
    {
      "channel": 4,
      "note": 93,
      "start": 35.9325,
      "duration": 0.0166,
      "velocity": 99,
      "chip": "ym2612"
    },
    {
      "channel": 3,
      "note": 93,
      "start": 35.9416,
      "duration": 0.0166,
      "velocity": 99,
      "chip": "ym2612"
    },
    {
      "channel": 4,
      "note": 92,
      "start": 35.9517,
      "duration": 0.0185,
      "velocity": 99,
      "chip": "ym2612"
    },
    {
      "channel": 3,
      "note": 92,
      "start": 35.9626,
      "duration": 0.0173,
      "velocity": 99,
      "chip": "ym2612"
    },
    {
      "channel": 4,
      "note": 85,
      "start": 35.9728,
      "duration": 0.0201,
      "velocity": 99,
      "chip": "ym2612"
    },
    {
      "channel": 3,
      "note": 85,
      "start": 35.9838,
      "duration": 0.0185,
      "velocity": 99,
      "chip": "ym2612"
    },
    {
      "channel": 4,
      "note": 93,
      "start": 35.9954,
      "duration": 0.0171,
      "velocity": 99,
      "chip": "ym2612"
    },
    {
      "channel": 0,
      "note": 69,
      "start": 36.0014,
      "duration": 0.081,
      "velocity": 87,
      "chip": "ym2612"
    },
    {
      "channel": 3,
      "note": 93,
      "start": 36.0052,
      "duration": 0.0166,
      "velocity": 99,
      "chip": "ym2612"
    },
    {
      "channel": 4,
      "note": 92,
      "start": 36.0151,
      "duration": 0.0174,
      "velocity": 99,
      "chip": "ym2612"
    },
    {
      "channel": 3,
      "note": 92,
      "start": 36.0249,
      "duration": 0.0168,
      "velocity": 99,
      "chip": "ym2612"
    },
    {
      "channel": 4,
      "note": 85,
      "start": 36.0351,
      "duration": 0.0187,
      "velocity": 99,
      "chip": "ym2612"
    },
    {
      "channel": 1,
      "note": 69,
      "start": 36.0453,
      "duration": 0.0795,
      "velocity": 87,
      "chip": "ym2612"
    },
    {
      "channel": 3,
      "note": 85,
      "start": 36.0463,
      "duration": 0.0165,
      "velocity": 99,
      "chip": "ym2612"
    },
    {
      "channel": 4,
      "note": 93,
      "start": 36.0563,
      "duration": 0.0189,
      "velocity": 99,
      "chip": "ym2612"
    },
    {
      "channel": 3,
      "note": 93,
      "start": 36.0655,
      "duration": 0.0201,
      "velocity": 99,
      "chip": "ym2612"
    },
    {
      "channel": 4,
      "note": 92,
      "start": 36.0784,
      "duration": 0.0188,
      "velocity": 99,
      "chip": "ym2612"
    },
    {
      "channel": 0,
      "note": 71,
      "start": 36.0848,
      "duration": 0.2498,
      "velocity": 87,
      "chip": "ym2612"
    },
    {
      "channel": 2,
      "note": 38,
      "start": 36.0888,
      "duration": 0.3349,
      "velocity": 97,
      "chip": "ym2612"
    },
    {
      "channel": 3,
      "note": 92,
      "start": 36.0894,
      "duration": 0.0165,
      "velocity": 99,
      "chip": "ym2612"
    },
    {
      "channel": 4,
      "note": 85,
      "start": 36.0997,
      "duration": 0.0163,
      "velocity": 99,
      "chip": "ym2612"
    },
    {
      "channel": 3,
      "note": 85,
      "start": 36.1089,
      "duration": 0.0164,
      "velocity": 99,
      "chip": "ym2612"
    },
    {
      "channel": 4,
      "note": 93,
      "start": 36.1185,
      "duration": 0.017,
      "velocity": 99,
      "chip": "ym2612"
    },
    {
      "channel": 1,
      "note": 71,
      "start": 36.1275,
      "duration": 0.2544,
      "velocity": 87,
      "chip": "ym2612"
    },
    {
      "channel": 3,
      "note": 93,
      "start": 36.1283,
      "duration": 0.0158,
      "velocity": 99,
      "chip": "ym2612"
    },
    {
      "channel": 4,
      "note": 92,
      "start": 36.1379,
      "duration": 0.0173,
      "velocity": 99,
      "chip": "ym2612"
    },
    {
      "channel": 3,
      "note": 92,
      "start": 36.1473,
      "duration": 0.0199,
      "velocity": 99,
      "chip": "ym2612"
    },
    {
      "channel": 4,
      "note": 85,
      "start": 36.159,
      "duration": 0.0206,
      "velocity": 99,
      "chip": "ym2612"
    },
    {
      "channel": 3,
      "note": 85,
      "start": 36.1718,
      "duration": 0.0167,
      "velocity": 99,
      "chip": "ym2612"
    },
    {
      "channel": 4,
      "note": 93,
      "start": 36.182,
      "duration": 0.0171,
      "velocity": 99,
      "chip": "ym2612"
    },
    {
      "channel": 3,
      "note": 93,
      "start": 36.1912,
      "duration": 0.0176,
      "velocity": 99,
      "chip": "ym2612"
    },
    {
      "channel": 4,
      "note": 92,
      "start": 36.2016,
      "duration": 0.0188,
      "velocity": 99,
      "chip": "ym2612"
    },
    {
      "channel": 3,
      "note": 92,
      "start": 36.2129,
      "duration": 0.0167,
      "velocity": 99,
      "chip": "ym2612"
    },
    {
      "channel": 4,
      "note": 85,
      "start": 36.223,
      "duration": 0.0167,
      "velocity": 99,
      "chip": "ym2612"
    },
    {
      "channel": 3,
      "note": 85,
      "start": 36.2323,
      "duration": 0.0189,
      "velocity": 99,
      "chip": "ym2612"
    },
    {
      "channel": 4,
      "note": 93,
      "start": 36.2422,
      "duration": 0.0218,
      "velocity": 99,
      "chip": "ym2612"
    },
    {
      "channel": 3,
      "note": 93,
      "start": 36.2559,
      "duration": 0.0173,
      "velocity": 99,
      "chip": "ym2612"
    },
    {
      "channel": 4,
      "note": 92,
      "start": 36.2666,
      "duration": 0.0181,
      "velocity": 99,
      "chip": "ym2612"
    },
    {
      "channel": 3,
      "note": 92,
      "start": 36.2773,
      "duration": 0.0171,
      "velocity": 99,
      "chip": "ym2612"
    },
    {
      "channel": 4,
      "note": 85,
      "start": 36.2878,
      "duration": 0.0186,
      "velocity": 99,
      "chip": "ym2612"
    },
    {
      "channel": 3,
      "note": 85,
      "start": 36.2989,
      "duration": 0.0168,
      "velocity": 99,
      "chip": "ym2612"
    },
    {
      "channel": 4,
      "note": 93,
      "start": 36.3093,
      "duration": 0.0185,
      "velocity": 99,
      "chip": "ym2612"
    },
    {
      "channel": 3,
      "note": 93,
      "start": 36.3203,
      "duration": 0.0175,
      "velocity": 99,
      "chip": "ym2612"
    },
    {
      "channel": 4,
      "note": 92,
      "start": 36.3307,
      "duration": 0.0216,
      "velocity": 99,
      "chip": "ym2612"
    },
    {
      "channel": 0,
      "note": 74,
      "start": 36.337,
      "duration": 0.0834,
      "velocity": 87,
      "chip": "ym2612"
    },
    {
      "channel": 3,
      "note": 92,
      "start": 36.3424,
      "duration": 0.0191,
      "velocity": 99,
      "chip": "ym2612"
    },
    {
      "channel": 4,
      "note": 85,
      "start": 36.3551,
      "duration": 0.0183,
      "velocity": 99,
      "chip": "ym2612"
    },
    {
      "channel": 3,
      "note": 85,
      "start": 36.3661,
      "duration": 0.0163,
      "velocity": 99,
      "chip": "ym2612"
    },
    {
      "channel": 4,
      "note": 93,
      "start": 36.3759,
      "duration": 0.0185,
      "velocity": 99,
      "chip": "ym2612"
    },
    {
      "channel": 1,
      "note": 74,
      "start": 36.3859,
      "duration": 0.0828,
      "velocity": 87,
      "chip": "ym2612"
    },
    {
      "channel": 3,
      "note": 93,
      "start": 36.3867,
      "duration": 0.0169,
      "velocity": 99,
      "chip": "ym2612"
    },
    {
      "channel": 4,
      "note": 92,
      "start": 36.3968,
      "duration": 0.0175,
      "velocity": 99,
      "chip": "ym2612"
    },
    {
      "channel": 3,
      "note": 92,
      "start": 36.4066,
      "duration": 0.0175,
      "velocity": 99,
      "chip": "ym2612"
    },
    {
      "channel": 4,
      "note": 85,
      "start": 36.417,
      "duration": 0.0209,
      "velocity": 99,
      "chip": "ym2612"
    },
    {
      "channel": 0,
      "note": 73,
      "start": 36.4232,
      "duration": 0.2528,
      "velocity": 87,
      "chip": "ym2612"
    },
    {
      "channel": 2,
      "note": 37,
      "start": 36.4276,
      "duration": 0.3376,
      "velocity": 97,
      "chip": "ym2612"
    },
    {
      "channel": 3,
      "note": 85,
      "start": 36.4284,
      "duration": 0.0201,
      "velocity": 99,
      "chip": "ym2612"
    },
    {
      "channel": 4,
      "note": 93,
      "start": 36.441,
      "duration": 0.0194,
      "velocity": 99,
      "chip": "ym2612"
    },
    {
      "channel": 3,
      "note": 93,
      "start": 36.4532,
      "duration": 0.016,
      "velocity": 99,
      "chip": "ym2612"
    },
    {
      "channel": 4,
      "note": 92,
      "start": 36.4628,
      "duration": 0.0169,
      "velocity": 99,
      "chip": "ym2612"
    },
    {
      "channel": 1,
      "note": 73,
      "start": 36.4715,
      "duration": 0.252,
      "velocity": 87,
      "chip": "ym2612"
    },
    {
      "channel": 3,
      "note": 92,
      "start": 36.4723,
      "duration": 0.0163,
      "velocity": 99,
      "chip": "ym2612"
    },
    {
      "channel": 4,
      "note": 85,
      "start": 36.4823,
      "duration": 0.0176,
      "velocity": 99,
      "chip": "ym2612"
    },
    {
      "channel": 3,
      "note": 85,
      "start": 36.4918,
      "duration": 0.017,
      "velocity": 99,
      "chip": "ym2612"
    },
    {
      "channel": 4,
      "note": 93,
      "start": 36.5024,
      "duration": 0.0172,
      "velocity": 99,
      "chip": "ym2612"
    },
    {
      "channel": 3,
      "note": 93,
      "start": 36.5114,
      "duration": 0.0201,
      "velocity": 99,
      "chip": "ym2612"
    },
    {
      "channel": 4,
      "note": 92,
      "start": 36.5226,
      "duration": 0.0195,
      "velocity": 99,
      "chip": "ym2612"
    },
    {
      "channel": 3,
      "note": 92,
      "start": 36.5346,
      "duration": 0.017,
      "velocity": 99,
      "chip": "ym2612"
    },
    {
      "channel": 4,
      "note": 85,
      "start": 36.5448,
      "duration": 0.0182,
      "velocity": 99,
      "chip": "ym2612"
    },
    {
      "channel": 3,
      "note": 85,
      "start": 36.5554,
      "duration": 0.0166,
      "velocity": 99,
      "chip": "ym2612"
    },
    {
      "channel": 4,
      "note": 93,
      "start": 36.5655,
      "duration": 0.0186,
      "velocity": 99,
      "chip": "ym2612"
    },
    {
      "channel": 3,
      "note": 93,
      "start": 36.5763,
      "duration": 0.0176,
      "velocity": 99,
      "chip": "ym2612"
    },
    {
      "channel": 4,
      "note": 92,
      "start": 36.5866,
      "duration": 0.0188,
      "velocity": 99,
      "chip": "ym2612"
    },
    {
      "channel": 3,
      "note": 92,
      "start": 36.598,
      "duration": 0.0181,
      "velocity": 99,
      "chip": "ym2612"
    },
    {
      "channel": 4,
      "note": 85,
      "start": 36.6081,
      "duration": 0.021,
      "velocity": 99,
      "chip": "ym2612"
    },
    {
      "channel": 3,
      "note": 85,
      "start": 36.6201,
      "duration": 0.0184,
      "velocity": 99,
      "chip": "ym2612"
    },
    {
      "channel": 4,
      "note": 93,
      "start": 36.6321,
      "duration": 0.0173,
      "velocity": 99,
      "chip": "ym2612"
    },
    {
      "channel": 3,
      "note": 93,
      "start": 36.6418,
      "duration": 0.0169,
      "velocity": 99,
      "chip": "ym2612"
    },
    {
      "channel": 4,
      "note": 92,
      "start": 36.6519,
      "duration": 0.0175,
      "velocity": 99,
      "chip": "ym2612"
    },
    {
      "channel": 3,
      "note": 92,
      "start": 36.6619,
      "duration": 0.0174,
      "velocity": 99,
      "chip": "ym2612"
    },
    {
      "channel": 4,
      "note": 85,
      "start": 36.6721,
      "duration": 0.0186,
      "velocity": 99,
      "chip": "ym2612"
    },
    {
      "channel": 0,
      "note": 66,
      "start": 36.6785,
      "duration": 0.0834,
      "velocity": 87,
      "chip": "ym2612"
    },
    {
      "channel": 3,
      "note": 85,
      "start": 36.6833,
      "duration": 0.0171,
      "velocity": 99,
      "chip": "ym2612"
    },
    {
      "channel": 4,
      "note": 83,
      "start": 36.6936,
      "duration": 0.0201,
      "velocity": 99,
      "chip": "ym2612"
    },
    {
      "channel": 3,
      "note": 83,
      "start": 36.7039,
      "duration": 0.0201,
      "velocity": 99,
      "chip": "ym2612"
    },
    {
      "channel": 4,
      "note": 85,
      "start": 36.7166,
      "duration": 0.0195,
      "velocity": 99,
      "chip": "ym2612"
    },
    {
      "channel": 1,
      "note": 66,
      "start": 36.7273,
      "duration": 0.0848,
      "velocity": 87,
      "chip": "ym2612"
    },
    {
      "channel": 3,
      "note": 85,
      "start": 36.7281,
      "duration": 0.0169,
      "velocity": 99,
      "chip": "ym2612"
    },
    {
      "channel": 4,
      "note": 89,
      "start": 36.7387,
      "duration": 0.0171,
      "velocity": 99,
      "chip": "ym2612"
    },
    {
      "channel": 3,
      "note": 89,
      "start": 36.748,
      "duration": 0.0175,
      "velocity": 99,
      "chip": "ym2612"
    },
    {
      "channel": 4,
      "note": 92,
      "start": 36.7584,
      "duration": 0.0231,
      "velocity": 99,
      "chip": "ym2612"
    },
    {
      "channel": 0,
      "note": 71,
      "start": 36.7646,
      "duration": 0.2572,
      "velocity": 87,
      "chip": "ym2612"
    },
    {
      "channel": 2,
      "note": 42,
      "start": 36.7724,
      "duration": 0.3378,
      "velocity": 97,
      "chip": "ym2612"
    },
    {
      "channel": 3,
      "note": 92,
      "start": 36.7731,
      "duration": 0.0175,
      "velocity": 99,
      "chip": "ym2612"
    },
    {
      "channel": 4,
      "note": 93,
      "start": 36.7839,
      "duration": 0.0178,
      "velocity": 99,
      "chip": "ym2612"
    },
    {
      "channel": 3,
      "note": 93,
      "start": 36.7936,
      "duration": 0.0191,
      "velocity": 99,
      "chip": "ym2612"
    },
    {
      "channel": 4,
      "note": 92,
      "start": 36.8054,
      "duration": 0.0193,
      "velocity": 99,
      "chip": "ym2612"
    },
    {
      "channel": 1,
      "note": 71,
      "start": 36.8167,
      "duration": 0.2485,
      "velocity": 87,
      "chip": "ym2612"
    },
    {
      "channel": 3,
      "note": 92,
      "start": 36.8176,
      "duration": 0.0168,
      "velocity": 99,
      "chip": "ym2612"
    },
    {
      "channel": 4,
      "note": 85,
      "start": 36.8272,
      "duration": 0.0175,
      "velocity": 99,
      "chip": "ym2612"
    },
    {
      "channel": 3,
      "note": 85,
      "start": 36.8374,
      "duration": 0.0162,
      "velocity": 99,
      "chip": "ym2612"
    },
    {
      "channel": 4,
      "note": 93,
      "start": 36.8472,
      "duration": 0.0167,
      "velocity": 99,
      "chip": "ym2612"
    },
    {
      "channel": 3,
      "note": 93,
      "start": 36.8561,
      "duration": 0.0167,
      "velocity": 99,
      "chip": "ym2612"
    },
    {
      "channel": 4,
      "note": 92,
      "start": 36.8664,
      "duration": 0.0178,
      "velocity": 99,
      "chip": "ym2612"
    },
    {
      "channel": 3,
      "note": 92,
      "start": 36.8758,
      "duration": 0.0201,
      "velocity": 99,
      "chip": "ym2612"
    },
    {
      "channel": 4,
      "note": 85,
      "start": 36.887,
      "duration": 0.0219,
      "velocity": 99,
      "chip": "ym2612"
    },
    {
      "channel": 3,
      "note": 85,
      "start": 36.9006,
      "duration": 0.0175,
      "velocity": 99,
      "chip": "ym2612"
    },
    {
      "channel": 4,
      "note": 93,
      "start": 36.9115,
      "duration": 0.018,
      "velocity": 99,
      "chip": "ym2612"
    },
    {
      "channel": 3,
      "note": 93,
      "start": 36.9217,
      "duration": 0.0173,
      "velocity": 99,
      "chip": "ym2612"
    },
    {
      "channel": 4,
      "note": 92,
      "start": 36.9321,
      "duration": 0.0185,
      "velocity": 99,
      "chip": "ym2612"
    },
    {
      "channel": 3,
      "note": 92,
      "start": 36.9432,
      "duration": 0.0166,
      "velocity": 99,
      "chip": "ym2612"
    },
    {
      "channel": 4,
      "note": 85,
      "start": 36.9532,
      "duration": 0.0171,
      "velocity": 99,
      "chip": "ym2612"
    },
    {
      "channel": 3,
      "note": 85,
      "start": 36.9624,
      "duration": 0.0178,
      "velocity": 99,
      "chip": "ym2612"
    },
    {
      "channel": 4,
      "note": 93,
      "start": 36.9728,
      "duration": 0.0216,
      "velocity": 99,
      "chip": "ym2612"
    },
    {
      "channel": 3,
      "note": 93,
      "start": 36.9855,
      "duration": 0.018,
      "velocity": 99,
      "chip": "ym2612"
    },
    {
      "channel": 4,
      "note": 92,
      "start": 36.9971,
      "duration": 0.0185,
      "velocity": 99,
      "chip": "ym2612"
    },
    {
      "channel": 3,
      "note": 92,
      "start": 37.0076,
      "duration": 0.0175,
      "velocity": 99,
      "chip": "ym2612"
    },
    {
      "channel": 4,
      "note": 85,
      "start": 37.0183,
      "duration": 0.0184,
      "velocity": 99,
      "chip": "ym2612"
    },
    {
      "channel": 0,
      "note": 78,
      "start": 37.0243,
      "duration": 0.0826,
      "velocity": 87,
      "chip": "ym2612"
    },
    {
      "channel": 3,
      "note": 85,
      "start": 37.0289,
      "duration": 0.0174,
      "velocity": 99,
      "chip": "ym2612"
    },
    {
      "channel": 4,
      "note": 93,
      "start": 37.0395,
      "duration": 0.0173,
      "velocity": 99,
      "chip": "ym2612"
    },
    {
      "channel": 3,
      "note": 93,
      "start": 37.0495,
      "duration": 0.0163,
      "velocity": 99,
      "chip": "ym2612"
    },
    {
      "channel": 4,
      "note": 92,
      "start": 37.0594,
      "duration": 0.0193,
      "velocity": 99,
      "chip": "ym2612"
    },
    {
      "channel": 1,
      "note": 78,
      "start": 37.0683,
      "duration": 0.0811,
      "velocity": 87,
      "chip": "ym2612"
    },
    {
      "channel": 3,
      "note": 92,
      "start": 37.0691,
      "duration": 0.0193,
      "velocity": 99,
      "chip": "ym2612"
    },
    {
      "channel": 4,
      "note": 85,
      "start": 37.0819,
      "duration": 0.019,
      "velocity": 99,
      "chip": "ym2612"
    },
    {
      "channel": 3,
      "note": 85,
      "start": 37.0932,
      "duration": 0.0173,
      "velocity": 99,
      "chip": "ym2612"
    },
    {
      "channel": 4,
      "note": 93,
      "start": 37.1034,
      "duration": 0.0185,
      "velocity": 99,
      "chip": "ym2612"
    },
    {
      "channel": 0,
      "note": 73,
      "start": 37.1096,
      "duration": 0.25,
      "velocity": 87,
      "chip": "ym2612"
    },
    {
      "channel": 2,
      "note": 40,
      "start": 37.114,
      "duration": 0.3299,
      "velocity": 97,
      "chip": "ym2612"
    },
    {
      "channel": 3,
      "note": 93,
      "start": 37.1146,
      "duration": 0.016,
      "velocity": 99,
      "chip": "ym2612"
    },
    {
      "channel": 4,
      "note": 92,
      "start": 37.1244,
      "duration": 0.0166,
      "velocity": 99,
      "chip": "ym2612"
    },
    {
      "channel": 3,
      "note": 92,
      "start": 37.1337,
      "duration": 0.0162,
      "velocity": 99,
      "chip": "ym2612"
    },
    {
      "channel": 4,
      "note": 85,
      "start": 37.1436,
      "duration": 0.0173,
      "velocity": 99,
      "chip": "ym2612"
    },
    {
      "channel": 1,
      "note": 73,
      "start": 37.152,
      "duration": 0.2492,
      "velocity": 87,
      "chip": "ym2612"
    },
    {
      "channel": 3,
      "note": 85,
      "start": 37.1531,
      "duration": 0.0195,
      "velocity": 99,
      "chip": "ym2612"
    },
    {
      "channel": 4,
      "note": 93,
      "start": 37.1644,
      "duration": 0.0187,
      "velocity": 99,
      "chip": "ym2612"
    },
    {
      "channel": 3,
      "note": 93,
      "start": 37.1751,
      "duration": 0.017,
      "velocity": 99,
      "chip": "ym2612"
    },
    {
      "channel": 4,
      "note": 92,
      "start": 37.1857,
      "duration": 0.0173,
      "velocity": 99,
      "chip": "ym2612"
    },
    {
      "channel": 3,
      "note": 92,
      "start": 37.1947,
      "duration": 0.0171,
      "velocity": 99,
      "chip": "ym2612"
    },
    {
      "channel": 4,
      "note": 85,
      "start": 37.2055,
      "duration": 0.0177,
      "velocity": 99,
      "chip": "ym2612"
    },
    {
      "channel": 3,
      "note": 85,
      "start": 37.2149,
      "duration": 0.0177,
      "velocity": 99,
      "chip": "ym2612"
    },
    {
      "channel": 4,
      "note": 93,
      "start": 37.2258,
      "duration": 0.0188,
      "velocity": 99,
      "chip": "ym2612"
    },
    {
      "channel": 3,
      "note": 93,
      "start": 37.2367,
      "duration": 0.0195,
      "velocity": 99,
      "chip": "ym2612"
    },
    {
      "channel": 4,
      "note": 92,
      "start": 37.2471,
      "duration": 0.0206,
      "velocity": 99,
      "chip": "ym2612"
    },
    {
      "channel": 3,
      "note": 92,
      "start": 37.2594,
      "duration": 0.0178,
      "velocity": 99,
      "chip": "ym2612"
    },
    {
      "channel": 4,
      "note": 85,
      "start": 37.2703,
      "duration": 0.0179,
      "velocity": 99,
      "chip": "ym2612"
    },
    {
      "channel": 3,
      "note": 85,
      "start": 37.2808,
      "duration": 0.0165,
      "velocity": 99,
      "chip": "ym2612"
    },
    {
      "channel": 4,
      "note": 93,
      "start": 37.2907,
      "duration": 0.0168,
      "velocity": 99,
      "chip": "ym2612"
    },
    {
      "channel": 3,
      "note": 93,
      "start": 37.3,
      "duration": 0.0166,
      "velocity": 99,
      "chip": "ym2612"
    },
    {
      "channel": 4,
      "note": 92,
      "start": 37.31,
      "duration": 0.0189,
      "velocity": 99,
      "chip": "ym2612"
    },
    {
      "channel": 3,
      "note": 92,
      "start": 37.3206,
      "duration": 0.0178,
      "velocity": 99,
      "chip": "ym2612"
    },
    {
      "channel": 4,
      "note": 85,
      "start": 37.3316,
      "duration": 0.0214,
      "velocity": 99,
      "chip": "ym2612"
    },
    {
      "channel": 3,
      "note": 85,
      "start": 37.3436,
      "duration": 0.0193,
      "velocity": 99,
      "chip": "ym2612"
    },
    {
      "channel": 4,
      "note": 93,
      "start": 37.356,
      "duration": 0.0171,
      "velocity": 99,
      "chip": "ym2612"
    },
    {
      "channel": 0,
      "note": 69,
      "start": 37.362,
      "duration": 0.0789,
      "velocity": 87,
      "chip": "ym2612"
    },
    {
      "channel": 3,
      "note": 93,
      "start": 37.3658,
      "duration": 0.0162,
      "velocity": 99,
      "chip": "ym2612"
    },
    {
      "channel": 4,
      "note": 92,
      "start": 37.3756,
      "duration": 0.0172,
      "velocity": 99,
      "chip": "ym2612"
    },
    {
      "channel": 3,
      "note": 92,
      "start": 37.385,
      "duration": 0.0168,
      "velocity": 99,
      "chip": "ym2612"
    },
    {
      "channel": 4,
      "note": 85,
      "start": 37.3954,
      "duration": 0.0166,
      "velocity": 99,
      "chip": "ym2612"
    },
    {
      "channel": 1,
      "note": 69,
      "start": 37.4037,
      "duration": 0.0798,
      "velocity": 87,
      "chip": "ym2612"
    },
    {
      "channel": 3,
      "note": 85,
      "start": 37.4047,
      "duration": 0.0164,
      "velocity": 99,
      "chip": "ym2612"
    },
    {
      "channel": 4,
      "note": 93,
      "start": 37.4148,
      "duration": 0.0188,
      "velocity": 99,
      "chip": "ym2612"
    },
    {
      "channel": 3,
      "note": 93,
      "start": 37.4239,
      "duration": 0.0203,
      "velocity": 99,
      "chip": "ym2612"
    },
    {
      "channel": 4,
      "note": 92,
      "start": 37.4367,
      "duration": 0.0192,
      "velocity": 99,
      "chip": "ym2612"
    },
    {
      "channel": 0,
      "note": 71,
      "start": 37.4434,
      "duration": 0.1218,
      "velocity": 87,
      "chip": "ym2612"
    },
    {
      "channel": 2,
      "note": 38,
      "start": 37.4479,
      "duration": 0.3296,
      "velocity": 97,
      "chip": "ym2612"
    },
    {
      "channel": 3,
      "note": 92,
      "start": 37.4485,
      "duration": 0.0163,
      "velocity": 99,
      "chip": "ym2612"
    },
    {
      "channel": 4,
      "note": 85,
      "start": 37.4585,
      "duration": 0.0168,
      "velocity": 99,
      "chip": "ym2612"
    },
    {
      "channel": 3,
      "note": 85,
      "start": 37.4678,
      "duration": 0.0163,
      "velocity": 99,
      "chip": "ym2612"
    },
    {
      "channel": 4,
      "note": 93,
      "start": 37.4777,
      "duration": 0.0165,
      "velocity": 99,
      "chip": "ym2612"
    },
    {
      "channel": 1,
      "note": 71,
      "start": 37.4863,
      "duration": 0.123,
      "velocity": 87,
      "chip": "ym2612"
    },
    {
      "channel": 3,
      "note": 93,
      "start": 37.4871,
      "duration": 0.0161,
      "velocity": 99,
      "chip": "ym2612"
    },
    {
      "channel": 4,
      "note": 92,
      "start": 37.4966,
      "duration": 0.0172,
      "velocity": 99,
      "chip": "ym2612"
    },
    {
      "channel": 3,
      "note": 92,
      "start": 37.5064,
      "duration": 0.0192,
      "velocity": 99,
      "chip": "ym2612"
    },
    {
      "channel": 4,
      "note": 85,
      "start": 37.5172,
      "duration": 0.0209,
      "velocity": 99,
      "chip": "ym2612"
    },
    {
      "channel": 3,
      "note": 85,
      "start": 37.5304,
      "duration": 0.0166,
      "velocity": 99,
      "chip": "ym2612"
    },
    {
      "channel": 4,
      "note": 93,
      "start": 37.5407,
      "duration": 0.0185,
      "velocity": 99,
      "chip": "ym2612"
    },
    {
      "channel": 3,
      "note": 93,
      "start": 37.5513,
      "duration": 0.0172,
      "velocity": 99,
      "chip": "ym2612"
    },
    {
      "channel": 4,
      "note": 92,
      "start": 37.5617,
      "duration": 0.0183,
      "velocity": 99,
      "chip": "ym2612"
    },
    {
      "channel": 0,
      "note": 62,
      "start": 37.5677,
      "duration": 0.0382,
      "velocity": 87,
      "chip": "ym2612"
    },
    {
      "channel": 3,
      "note": 92,
      "start": 37.5722,
      "duration": 0.0168,
      "velocity": 99,
      "chip": "ym2612"
    },
    {
      "channel": 4,
      "note": 85,
      "start": 37.5827,
      "duration": 0.0168,
      "velocity": 99,
      "chip": "ym2612"
    },
    {
      "channel": 3,
      "note": 85,
      "start": 37.592,
      "duration": 0.0184,
      "velocity": 99,
      "chip": "ym2612"
    },
    {
      "channel": 4,
      "note": 93,
      "start": 37.6019,
      "duration": 0.0214,
      "velocity": 99,
      "chip": "ym2612"
    },
    {
      "channel": 0,
      "note": 66,
      "start": 37.6089,
      "duration": 0.0412,
      "velocity": 87,
      "chip": "ym2612"
    },
    {
      "channel": 1,
      "note": 62,
      "start": 37.614,
      "duration": 0.0388,
      "velocity": 87,
      "chip": "ym2612"
    },
    {
      "channel": 3,
      "note": 93,
      "start": 37.6153,
      "duration": 0.0167,
      "velocity": 99,
      "chip": "ym2612"
    },
    {
      "channel": 4,
      "note": 92,
      "start": 37.6257,
      "duration": 0.018,
      "velocity": 99,
      "chip": "ym2612"
    },
    {
      "channel": 3,
      "note": 92,
      "start": 37.6361,
      "duration": 0.0173,
      "velocity": 99,
      "chip": "ym2612"
    },
    {
      "channel": 4,
      "note": 85,
      "start": 37.6463,
      "duration": 0.019,
      "velocity": 99,
      "chip": "ym2612"
    },
    {
      "channel": 0,
      "note": 67,
      "start": 37.6525,
      "duration": 0.0384,
      "velocity": 87,
      "chip": "ym2612"
    },
    {
      "channel": 1,
      "note": 66,
      "start": 37.6568,
      "duration": 0.0367,
      "velocity": 87,
      "chip": "ym2612"
    },
    {
      "channel": 3,
      "note": 85,
      "start": 37.6578,
      "duration": 0.0168,
      "velocity": 99,
      "chip": "ym2612"
    },
    {
      "channel": 4,
      "note": 93,
      "start": 37.6679,
      "duration": 0.0171,
      "velocity": 99,
      "chip": "ym2612"
    },
    {
      "channel": 3,
      "note": 93,
      "start": 37.6775,
      "duration": 0.0166,
      "velocity": 99,
      "chip": "ym2612"
    },
    {
      "channel": 4,
      "note": 92,
      "start": 37.6874,
      "duration": 0.0196,
      "velocity": 99,
      "chip": "ym2612"
    },
    {
      "channel": 0,
      "note": 71,
      "start": 37.6933,
      "duration": 0.0407,
      "velocity": 87,
      "chip": "ym2612"
    },
    {
      "channel": 1,
      "note": 67,
      "start": 37.6966,
      "duration": 0.0402,
      "velocity": 87,
      "chip": "ym2612"
    },
    {
      "channel": 3,
      "note": 92,
      "start": 37.6974,
      "duration": 0.0189,
      "velocity": 99,
      "chip": "ym2612"
    },
    {
      "channel": 4,
      "note": 85,
      "start": 37.7099,
      "duration": 0.018,
      "velocity": 99,
      "chip": "ym2612"
    },
    {
      "channel": 3,
      "note": 85,
      "start": 37.7207,
      "duration": 0.0166,
      "velocity": 99,
      "chip": "ym2612"
    },
    {
      "channel": 4,
      "note": 93,
      "start": 37.7307,
      "duration": 0.0181,
      "velocity": 99,
      "chip": "ym2612"
    },
    {
      "channel": 0,
      "note": 76,
      "start": 37.7364,
      "duration": 0.0381,
      "velocity": 87,
      "chip": "ym2612"
    },
    {
      "channel": 1,
      "note": 71,
      "start": 37.7408,
      "duration": 0.0364,
      "velocity": 87,
      "chip": "ym2612"
    },
    {
      "channel": 3,
      "note": 93,
      "start": 37.7417,
      "duration": 0.0163,
      "velocity": 99,
      "chip": "ym2612"
    },
    {
      "channel": 4,
      "note": 92,
      "start": 37.7518,
      "duration": 0.0167,
      "velocity": 99,
      "chip": "ym2612"
    },
    {
      "channel": 3,
      "note": 92,
      "start": 37.7613,
      "duration": 0.0165,
      "velocity": 99,
      "chip": "ym2612"
    },
    {
      "channel": 4,
      "note": 85,
      "start": 37.7712,
      "duration": 0.02,
      "velocity": 99,
      "chip": "ym2612"
    },
    {
      "channel": 0,
      "note": 73,
      "start": 37.7769,
      "duration": 0.2476,
      "velocity": 87,
      "chip": "ym2612"
    },
    {
      "channel": 1,
      "note": 76,
      "start": 37.7814,
      "duration": 0.0406,
      "velocity": 87,
      "chip": "ym2612"
    },
    {
      "channel": 2,
      "note": 37,
      "start": 37.7819,
      "duration": 0.3883,
      "velocity": 97,
      "chip": "ym2612"
    },
    {
      "channel": 3,
      "note": 85,
      "start": 37.7827,
      "duration": 0.0192,
      "velocity": 99,
      "chip": "ym2612"
    },
    {
      "channel": 4,
      "note": 93,
      "start": 37.7947,
      "duration": 0.0187,
      "velocity": 99,
      "chip": "ym2612"
    },
    {
      "channel": 3,
      "note": 93,
      "start": 37.8063,
      "duration": 0.0161,
      "velocity": 99,
      "chip": "ym2612"
    },
    {
      "channel": 4,
      "note": 92,
      "start": 37.8158,
      "duration": 0.0172,
      "velocity": 99,
      "chip": "ym2612"
    },
    {
      "channel": 1,
      "note": 73,
      "start": 37.825,
      "duration": 0.2478,
      "velocity": 87,
      "chip": "ym2612"
    },
    {
      "channel": 3,
      "note": 92,
      "start": 37.8258,
      "duration": 0.0161,
      "velocity": 99,
      "chip": "ym2612"
    },
    {
      "channel": 4,
      "note": 85,
      "start": 37.8356,
      "duration": 0.0168,
      "velocity": 99,
      "chip": "ym2612"
    },
    {
      "channel": 3,
      "note": 85,
      "start": 37.8451,
      "duration": 0.0166,
      "velocity": 99,
      "chip": "ym2612"
    },
    {
      "channel": 4,
      "note": 93,
      "start": 37.8549,
      "duration": 0.017,
      "velocity": 99,
      "chip": "ym2612"
    },
    {
      "channel": 3,
      "note": 93,
      "start": 37.8646,
      "duration": 0.0189,
      "velocity": 99,
      "chip": "ym2612"
    },
    {
      "channel": 4,
      "note": 92,
      "start": 37.8744,
      "duration": 0.0201,
      "velocity": 99,
      "chip": "ym2612"
    },
    {
      "channel": 3,
      "note": 92,
      "start": 37.887,
      "duration": 0.0171,
      "velocity": 99,
      "chip": "ym2612"
    },
    {
      "channel": 4,
      "note": 85,
      "start": 37.8972,
      "duration": 0.0182,
      "velocity": 99,
      "chip": "ym2612"
    },
    {
      "channel": 3,
      "note": 85,
      "start": 37.9077,
      "duration": 0.0168,
      "velocity": 99,
      "chip": "ym2612"
    },
    {
      "channel": 4,
      "note": 93,
      "start": 37.918,
      "duration": 0.0165,
      "velocity": 99,
      "chip": "ym2612"
    },
    {
      "channel": 3,
      "note": 93,
      "start": 37.927,
      "duration": 0.0166,
      "velocity": 99,
      "chip": "ym2612"
    },
    {
      "channel": 4,
      "note": 92,
      "start": 37.937,
      "duration": 0.0183,
      "velocity": 99,
      "chip": "ym2612"
    },
    {
      "channel": 3,
      "note": 92,
      "start": 37.9475,
      "duration": 0.0176,
      "velocity": 99,
      "chip": "ym2612"
    },
    {
      "channel": 4,
      "note": 85,
      "start": 37.958,
      "duration": 0.02,
      "velocity": 99,
      "chip": "ym2612"
    },
    {
      "channel": 3,
      "note": 85,
      "start": 37.9691,
      "duration": 0.0183,
      "velocity": 99,
      "chip": "ym2612"
    },
    {
      "channel": 4,
      "note": 93,
      "start": 37.9805,
      "duration": 0.0179,
      "velocity": 99,
      "chip": "ym2612"
    },
    {
      "channel": 3,
      "note": 93,
      "start": 37.9909,
      "duration": 0.0165,
      "velocity": 99,
      "chip": "ym2612"
    },
    {
      "channel": 4,
      "note": 92,
      "start": 38.0009,
      "duration": 0.0171,
      "velocity": 99,
      "chip": "ym2612"
    },
    {
      "channel": 3,
      "note": 92,
      "start": 38.0102,
      "duration": 0.0206,
      "velocity": 99,
      "chip": "ym2612"
    },
    {
      "channel": 4,
      "note": 85,
      "start": 38.0206,
      "duration": 0.0205,
      "velocity": 99,
      "chip": "ym2612"
    },
    {
      "channel": 3,
      "note": 85,
      "start": 38.0334,
      "duration": 0.017,
      "velocity": 99,
      "chip": "ym2612"
    },
    {
      "channel": 4,
      "note": 83,
      "start": 38.0437,
      "duration": 0.0193,
      "velocity": 99,
      "chip": "ym2612"
    },
    {
      "channel": 3,
      "note": 83,
      "start": 38.0533,
      "duration": 0.0201,
      "velocity": 99,
      "chip": "ym2612"
    },
    {
      "channel": 4,
      "note": 85,
      "start": 38.0662,
      "duration": 0.021,
      "velocity": 99,
      "chip": "ym2612"
    },
    {
      "channel": 0,
      "note": 61,
      "start": 38.0725,
      "duration": 0.0798,
      "velocity": 98,
      "chip": "ym2612"
    },
    {
      "channel": 3,
      "note": 85,
      "start": 38.0799,
      "duration": 0.0161,
      "velocity": 99,
      "chip": "ym2612"
    },
    {
      "channel": 4,
      "note": 89,
      "start": 38.0896,
      "duration": 0.0157,
      "velocity": 99,
      "chip": "ym2612"
    },
    {
      "channel": 3,
      "note": 89,
      "start": 38.0984,
      "duration": 0.0721,
      "velocity": 99,
      "chip": "ym2612"
    },
    {
      "channel": 0,
      "note": 73,
      "start": 38.1696,
      "duration": 0.4187,
      "velocity": 98,
      "chip": "ym2612"
    },
    {
      "channel": 1,
      "note": 61,
      "start": 38.187,
      "duration": 0.0411,
      "velocity": 98,
      "chip": "ym2612"
    },
    {
      "channel": 2,
      "note": 47,
      "start": 38.1908,
      "duration": 0.1406,
      "velocity": 91,
      "chip": "ym2612"
    },
    {
      "channel": 3,
      "note": 92,
      "start": 38.1915,
      "duration": 1.3992,
      "velocity": 99,
      "chip": "ym2612"
    },
    {
      "channel": 4,
      "note": 92,
      "start": 38.2106,
      "duration": 1.5176,
      "velocity": 99,
      "chip": "ym2612"
    },
    {
      "channel": 1,
      "note": 73,
      "start": 38.2305,
      "duration": 0.6496,
      "velocity": 98,
      "chip": "ym2612"
    },
    {
      "channel": 2,
      "note": 47,
      "start": 38.3488,
      "duration": 0.5316,
      "velocity": 91,
      "chip": "ym2612"
    },
    {
      "channel": 0,
      "note": 71,
      "start": 38.6056,
      "duration": 0.8061,
      "velocity": 98,
      "chip": "ym2612"
    },
    {
      "channel": 1,
      "note": 71,
      "start": 38.8975,
      "duration": 0.5834,
      "velocity": 98,
      "chip": "ym2612"
    },
    {
      "channel": 2,
      "note": 47,
      "start": 38.898,
      "duration": 0.5316,
      "velocity": 91,
      "chip": "ym2612"
    },
    {
      "channel": 0,
      "note": 66,
      "start": 39.429,
      "duration": 0.6927,
      "velocity": 98,
      "chip": "ym2612"
    },
    {
      "channel": 2,
      "note": 47,
      "start": 39.4467,
      "duration": 0.1437,
      "velocity": 91,
      "chip": "ym2612"
    },
    {
      "channel": 1,
      "note": 66,
      "start": 39.4833,
      "duration": 0.3814,
      "velocity": 98,
      "chip": "ym2612"
    },
    {
      "channel": 2,
      "note": 47,
      "start": 39.6079,
      "duration": 0.5317,
      "velocity": 91,
      "chip": "ym2612"
    },
    {
      "channel": 1,
      "note": 66,
      "start": 39.882,
      "duration": 0.3089,
      "velocity": 98,
      "chip": "ym2612"
    },
    {
      "channel": 0,
      "note": 57,
      "start": 40.1391,
      "duration": 0.0676,
      "velocity": 98,
      "chip": "ym2612"
    },
    {
      "channel": 2,
      "note": 47,
      "start": 40.1567,
      "duration": 0.0754,
      "velocity": 91,
      "chip": "ym2612"
    },
    {
      "channel": 3,
      "note": 78,
      "start": 40.1572,
      "duration": 0.0539,
      "velocity": 99,
      "chip": "ym2612"
    },
    {
      "channel": 4,
      "note": 78,
      "start": 40.1759,
      "duration": 0.0569,
      "velocity": 99,
      "chip": "ym2612"
    },
    {
      "channel": 1,
      "note": 57,
      "start": 40.1932,
      "duration": 0.0568,
      "velocity": 98,
      "chip": "ym2612"
    },
    {
      "channel": 0,
      "note": 59,
      "start": 40.2098,
      "duration": 0.0556,
      "velocity": 98,
      "chip": "ym2612"
    },
    {
      "channel": 3,
      "note": 66,
      "start": 40.216,
      "duration": 0.053,
      "velocity": 99,
      "chip": "ym2612"
    },
    {
      "channel": 2,
      "note": 47,
      "start": 40.2345,
      "duration": 0.0753,
      "velocity": 91,
      "chip": "ym2612"
    },
    {
      "channel": 4,
      "note": 66,
      "start": 40.2354,
      "duration": 0.0535,
      "velocity": 99,
      "chip": "ym2612"
    },
    {
      "channel": 1,
      "note": 59,
      "start": 40.2524,
      "duration": 0.0572,
      "velocity": 98,
      "chip": "ym2612"
    },
    {
      "channel": 0,
      "note": 61,
      "start": 40.2682,
      "duration": 0.0568,
      "velocity": 98,
      "chip": "ym2612"
    },
    {
      "channel": 3,
      "note": 68,
      "start": 40.2729,
      "duration": 0.0553,
      "velocity": 99,
      "chip": "ym2612"
    },
    {
      "channel": 4,
      "note": 68,
      "start": 40.292,
      "duration": 0.0567,
      "velocity": 99,
      "chip": "ym2612"
    },
    {
      "channel": 1,
      "note": 61,
      "start": 40.312,
      "duration": 0.0537,
      "velocity": 98,
      "chip": "ym2612"
    },
    {
      "channel": 2,
      "note": 47,
      "start": 40.3125,
      "duration": 0.0748,
      "velocity": 91,
      "chip": "ym2612"
    },
    {
      "channel": 0,
      "note": 62,
      "start": 40.3274,
      "duration": 0.0569,
      "velocity": 98,
      "chip": "ym2612"
    },
    {
      "channel": 3,
      "note": 69,
      "start": 40.332,
      "duration": 0.0556,
      "velocity": 99,
      "chip": "ym2612"
    },
    {
      "channel": 4,
      "note": 69,
      "start": 40.3512,
      "duration": 0.0579,
      "velocity": 99,
      "chip": "ym2612"
    },
    {
      "channel": 1,
      "note": 62,
      "start": 40.3682,
      "duration": 0.058,
      "velocity": 98,
      "chip": "ym2612"
    },
    {
      "channel": 0,
      "note": 64,
      "start": 40.3867,
      "duration": 0.4028,
      "velocity": 98,
      "chip": "ym2612"
    },
    {
      "channel": 2,
      "note": 45,
      "start": 40.3923,
      "duration": 0.1411,
      "velocity": 91,
      "chip": "ym2612"
    },
    {
      "channel": 3,
      "note": 71,
      "start": 40.3928,
      "duration": 1.7873,
      "velocity": 99,
      "chip": "ym2612"
    },
    {
      "channel": 4,
      "note": 71,
      "start": 40.4115,
      "duration": 1.9062,
      "velocity": 99,
      "chip": "ym2612"
    },
    {
      "channel": 1,
      "note": 64,
      "start": 40.4289,
      "duration": 0.6526,
      "velocity": 98,
      "chip": "ym2612"
    },
    {
      "channel": 2,
      "note": 45,
      "start": 40.5507,
      "duration": 0.531,
      "velocity": 91,
      "chip": "ym2612"
    },
    {
      "channel": 0,
      "note": 56,
      "start": 40.8069,
      "duration": 0.8061,
      "velocity": 98,
      "chip": "ym2612"
    },
    {
      "channel": 1,
      "note": 56,
      "start": 41.0988,
      "duration": 0.8061,
      "velocity": 98,
      "chip": "ym2612"
    },
    {
      "channel": 2,
      "note": 45,
      "start": 41.0999,
      "duration": 0.531,
      "velocity": 91,
      "chip": "ym2612"
    },
    {
      "channel": 0,
      "note": 68,
      "start": 41.6304,
      "duration": 0.5316,
      "velocity": 98,
      "chip": "ym2612"
    },
    {
      "channel": 2,
      "note": 45,
      "start": 41.648,
      "duration": 0.5318,
      "velocity": 91,
      "chip": "ym2612"
    },
    {
      "channel": 1,
      "note": 68,
      "start": 41.9222,
      "duration": 0.5316,
      "velocity": 98,
      "chip": "ym2612"
    },
    {
      "channel": 0,
      "note": 61,
      "start": 42.1793,
      "duration": 0.9516,
      "velocity": 98,
      "chip": "ym2612"
    },
    {
      "channel": 2,
      "note": 45,
      "start": 42.197,
      "duration": 0.5315,
      "velocity": 91,
      "chip": "ym2612"
    },
    {
      "channel": 1,
      "note": 61,
      "start": 42.4711,
      "duration": 0.7021,
      "velocity": 98,
      "chip": "ym2612"
    },
    {
      "channel": 2,
      "note": 45,
      "start": 42.7459,
      "duration": 0.3087,
      "velocity": 91,
      "chip": "ym2612"
    },
    {
      "channel": 3,
      "note": 73,
      "start": 42.7465,
      "duration": 0.2568,
      "velocity": 99,
      "chip": "ym2612"
    },
    {
      "channel": 4,
      "note": 73,
      "start": 42.8843,
      "duration": 0.1526,
      "velocity": 99,
      "chip": "ym2612"
    },
    {
      "channel": 3,
      "note": 71,
      "start": 43.0207,
      "duration": 0.0342,
      "velocity": 99,
      "chip": "ym2612"
    },
    {
      "channel": 4,
      "note": 71,
      "start": 43.0394,
      "duration": 0.0362,
      "velocity": 99,
      "chip": "ym2612"
    },
    {
      "channel": 2,
      "note": 45,
      "start": 43.0579,
      "duration": 0.0758,
      "velocity": 91,
      "chip": "ym2612"
    },
    {
      "channel": 3,
      "note": 73,
      "start": 43.0585,
      "duration": 0.0557,
      "velocity": 99,
      "chip": "ym2612"
    },
    {
      "channel": 4,
      "note": 73,
      "start": 43.0793,
      "duration": 0.055,
      "velocity": 99,
      "chip": "ym2612"
    },
    {
      "channel": 3,
      "note": 80,
      "start": 43.1173,
      "duration": 0.0564,
      "velocity": 99,
      "chip": "ym2612"
    },
    {
      "channel": 2,
      "note": 45,
      "start": 43.1363,
      "duration": 0.0745,
      "velocity": 91,
      "chip": "ym2612"
    },
    {
      "channel": 4,
      "note": 80,
      "start": 43.1372,
      "duration": 0.0557,
      "velocity": 99,
      "chip": "ym2612"
    },
    {
      "channel": 0,
      "note": 61,
      "start": 43.1729,
      "duration": 0.0349,
      "velocity": 98,
      "chip": "ym2612"
    },
    {
      "channel": 3,
      "note": 78,
      "start": 43.1768,
      "duration": 0.0344,
      "velocity": 99,
      "chip": "ym2612"
    },
    {
      "channel": 4,
      "note": 78,
      "start": 43.1954,
      "duration": 0.0363,
      "velocity": 99,
      "chip": "ym2612"
    },
    {
      "channel": 0,
      "note": 73,
      "start": 43.2102,
      "duration": 0.4049,
      "velocity": 98,
      "chip": "ym2612"
    },
    {
      "channel": 1,
      "note": 61,
      "start": 43.2144,
      "duration": 0.0369,
      "velocity": 98,
      "chip": "ym2612"
    },
    {
      "channel": 2,
      "note": 47,
      "start": 43.215,
      "duration": 0.1433,
      "velocity": 91,
      "chip": "ym2612"
    },
    {
      "channel": 3,
      "note": 73,
      "start": 43.2156,
      "duration": 0.692,
      "velocity": 99,
      "chip": "ym2612"
    },
    {
      "channel": 4,
      "note": 73,
      "start": 43.2341,
      "duration": 0.7079,
      "velocity": 99,
      "chip": "ym2612"
    },
    {
      "channel": 1,
      "note": 73,
      "start": 43.2537,
      "duration": 0.6532,
      "velocity": 98,
      "chip": "ym2612"
    },
    {
      "channel": 2,
      "note": 47,
      "start": 43.3756,
      "duration": 0.5316,
      "velocity": 91,
      "chip": "ym2612"
    },
    {
      "channel": 0,
      "note": 71,
      "start": 43.6324,
      "duration": 0.4182,
      "velocity": 98,
      "chip": "ym2612"
    },
    {
      "channel": 1,
      "note": 71,
      "start": 43.9243,
      "duration": 0.4182,
      "velocity": 98,
      "chip": "ym2612"
    },
    {
      "channel": 2,
      "note": 47,
      "start": 43.9248,
      "duration": 0.1438,
      "velocity": 91,
      "chip": "ym2612"
    },
    {
      "channel": 3,
      "note": 71,
      "start": 43.9254,
      "duration": 0.0346,
      "velocity": 99,
      "chip": "ym2612"
    },
    {
      "channel": 4,
      "note": 71,
      "start": 43.9446,
      "duration": 0.0366,
      "velocity": 99,
      "chip": "ym2612"
    },
    {
      "channel": 3,
      "note": 71,
      "start": 43.963,
      "duration": 0.1059,
      "velocity": 99,
      "chip": "ym2612"
    },
    {
      "channel": 4,
      "note": 71,
      "start": 43.9837,
      "duration": 0.2224,
      "velocity": 99,
      "chip": "ym2612"
    },
    {
      "channel": 0,
      "note": 66,
      "start": 44.068,
      "duration": 0.7341,
      "velocity": 98,
      "chip": "ym2612"
    },
    {
      "channel": 2,
      "note": 47,
      "start": 44.0856,
      "duration": 0.3129,
      "velocity": 91,
      "chip": "ym2612"
    },
    {
      "channel": 3,
      "note": 61,
      "start": 44.0862,
      "duration": 0.2569,
      "velocity": 99,
      "chip": "ym2612"
    },
    {
      "channel": 4,
      "note": 61,
      "start": 44.2235,
      "duration": 0.157,
      "velocity": 99,
      "chip": "ym2612"
    },
    {
      "channel": 1,
      "note": 66,
      "start": 44.3598,
      "duration": 0.7344,
      "velocity": 98,
      "chip": "ym2612"
    },
    {
      "channel": 3,
      "note": 62,
      "start": 44.3606,
      "duration": 0.0383,
      "velocity": 99,
      "chip": "ym2612"
    },
    {
      "channel": 4,
      "note": 62,
      "start": 44.383,
      "duration": 0.0359,
      "velocity": 99,
      "chip": "ym2612"
    },
    {
      "channel": 2,
      "note": 50,
      "start": 44.4019,
      "duration": 0.1434,
      "velocity": 91,
      "chip": "ym2612"
    },
    {
      "channel": 3,
      "note": 66,
      "start": 44.4025,
      "duration": 0.6924,
      "velocity": 99,
      "chip": "ym2612"
    },
    {
      "channel": 4,
      "note": 66,
      "start": 44.4214,
      "duration": 0.7069,
      "velocity": 99,
      "chip": "ym2612"
    },
    {
      "channel": 2,
      "note": 50,
      "start": 44.5626,
      "duration": 0.5319,
      "velocity": 91,
      "chip": "ym2612"
    },
    {
      "channel": 0,
      "note": 57,
      "start": 44.8194,
      "duration": 0.2571,
      "velocity": 98,
      "chip": "ym2612"
    },
    {
      "channel": 0,
      "note": 61,
      "start": 45.0939,
      "duration": 0.0487,
      "velocity": 98,
      "chip": "ym2612"
    },
    {
      "channel": 1,
      "note": 57,
      "start": 45.1112,
      "duration": 0.0343,
      "velocity": 98,
      "chip": "ym2612"
    },
    {
      "channel": 2,
      "note": 50,
      "start": 45.1117,
      "duration": 0.074,
      "velocity": 91,
      "chip": "ym2612"
    },
    {
      "channel": 3,
      "note": 71,
      "start": 45.1124,
      "duration": 0.0337,
      "velocity": 99,
      "chip": "ym2612"
    },
    {
      "channel": 4,
      "note": 71,
      "start": 45.1307,
      "duration": 0.0349,
      "velocity": 99,
      "chip": "ym2612"
    },
    {
      "channel": 0,
      "note": 62,
      "start": 45.1452,
      "duration": 0.0376,
      "velocity": 98,
      "chip": "ym2612"
    },
    {
      "channel": 1,
      "note": 61,
      "start": 45.1491,
      "duration": 0.0364,
      "velocity": 98,
      "chip": "ym2612"
    },
    {
      "channel": 3,
      "note": 71,
      "start": 45.15,
      "duration": 0.0361,
      "velocity": 99,
      "chip": "ym2612"
    },
    {
      "channel": 4,
      "note": 71,
      "start": 45.1679,
      "duration": 0.0365,
      "velocity": 99,
      "chip": "ym2612"
    },
    {
      "channel": 0,
      "note": 64,
      "start": 45.1852,
      "duration": 0.0892,
      "velocity": 98,
      "chip": "ym2612"
    },
    {
      "channel": 1,
      "note": 62,
      "start": 45.188,
      "duration": 0.104,
      "velocity": 98,
      "chip": "ym2612"
    },
    {
      "channel": 2,
      "note": 50,
      "start": 45.1886,
      "duration": 0.1585,
      "velocity": 91,
      "chip": "ym2612"
    },
    {
      "channel": 3,
      "note": 69,
      "start": 45.1891,
      "duration": 0.1034,
      "velocity": 99,
      "chip": "ym2612"
    },
    {
      "channel": 4,
      "note": 69,
      "start": 45.2069,
      "duration": 0.1195,
      "velocity": 99,
      "chip": "ym2612"
    },
    {
      "channel": 0,
      "note": 61,
      "start": 45.2917,
      "duration": 2.4869,
      "velocity": 98,
      "chip": "ym2612"
    },
    {
      "channel": 1,
      "note": 64,
      "start": 45.3091,
      "duration": 0.0378,
      "velocity": 98,
      "chip": "ym2612"
    },
    {
      "channel": 3,
      "note": 71,
      "start": 45.3099,
      "duration": 2.0662,
      "velocity": 99,
      "chip": "ym2612"
    },
    {
      "channel": 4,
      "note": 71,
      "start": 45.3289,
      "duration": 2.1852,
      "velocity": 99,
      "chip": "ym2612"
    },
    {
      "channel": 1,
      "note": 61,
      "start": 45.3493,
      "duration": 2.4727,
      "velocity": 98,
      "chip": "ym2612"
    },
    {
      "channel": 2,
      "note": 45,
      "start": 45.35,
      "duration": 0.3793,
      "velocity": 91,
      "chip": "ym2612"
    },
    {
      "channel": 2,
      "note": 45,
      "start": 45.747,
      "duration": 0.531,
      "velocity": 91,
      "chip": "ym2612"
    },
    {
      "channel": 2,
      "note": 45,
      "start": 46.2952,
      "duration": 0.5316,
      "velocity": 91,
      "chip": "ym2612"
    },
    {
      "channel": 2,
      "note": 45,
      "start": 46.8443,
      "duration": 0.5315,
      "velocity": 91,
      "chip": "ym2612"
    },
    {
      "channel": 2,
      "note": 45,
      "start": 47.3933,
      "duration": 0.3089,
      "velocity": 91,
      "chip": "ym2612"
    },
    {
      "channel": 3,
      "note": 69,
      "start": 47.3939,
      "duration": 0.2567,
      "velocity": 99,
      "chip": "ym2612"
    },
    {
      "channel": 4,
      "note": 69,
      "start": 47.5312,
      "duration": 0.1528,
      "velocity": 99,
      "chip": "ym2612"
    },
    {
      "channel": 3,
      "note": 109,
      "start": 47.6679,
      "duration": 0.0346,
      "velocity": 99,
      "chip": "ym2612"
    },
    {
      "channel": 4,
      "note": 109,
      "start": 47.6866,
      "duration": 0.0379,
      "velocity": 99,
      "chip": "ym2612"
    },
    {
      "channel": 2,
      "note": 45,
      "start": 47.7055,
      "duration": 0.076,
      "velocity": 91,
      "chip": "ym2612"
    },
    {
      "channel": 3,
      "note": 104,
      "start": 47.7061,
      "duration": 0.0371,
      "velocity": 99,
      "chip": "ym2612"
    },
    {
      "channel": 4,
      "note": 104,
      "start": 47.7277,
      "duration": 0.0352,
      "velocity": 99,
      "chip": "ym2612"
    },
    {
      "channel": 3,
      "note": 102,
      "start": 47.7462,
      "duration": 0.0356,
      "velocity": 99,
      "chip": "ym2612"
    },
    {
      "channel": 4,
      "note": 102,
      "start": 47.7654,
      "duration": 0.0362,
      "velocity": 99,
      "chip": "ym2612"
    },
    {
      "channel": 2,
      "note": 45,
      "start": 47.7847,
      "duration": 0.0754,
      "velocity": 91,
      "chip": "ym2612"
    },
    {
      "channel": 3,
      "note": 107,
      "start": 47.7852,
      "duration": 0.0373,
      "velocity": 99,
      "chip": "ym2612"
    },
    {
      "channel": 4,
      "note": 107,
      "start": 47.8047,
      "duration": 0.0373,
      "velocity": 99,
      "chip": "ym2612"
    },
    {
      "channel": 3,
      "note": 97,
      "start": 47.8259,
      "duration": 0.0345,
      "velocity": 99,
      "chip": "ym2612"
    },
    {
      "channel": 4,
      "note": 97,
      "start": 47.8444,
      "duration": 0.0362,
      "velocity": 99,
      "chip": "ym2612"
    },
    {
      "channel": 2,
      "note": 45,
      "start": 47.8641,
      "duration": 0.1453,
      "velocity": 91,
      "chip": "ym2612"
    },
    {
      "channel": 0,
      "note": 61,
      "start": 47.901,
      "duration": 0.0904,
      "velocity": 98,
      "chip": "ym2612"
    },
    {
      "channel": 0,
      "note": 73,
      "start": 48.0088,
      "duration": 0.4189,
      "velocity": 98,
      "chip": "ym2612"
    },
    {
      "channel": 1,
      "note": 61,
      "start": 48.0261,
      "duration": 0.0401,
      "velocity": 98,
      "chip": "ym2612"
    },
    {
      "channel": 2,
      "note": 47,
      "start": 48.0269,
      "duration": 0.1439,
      "velocity": 91,
      "chip": "ym2612"
    },
    {
      "channel": 3,
      "note": 104,
      "start": 48.0275,
      "duration": 1.7907,
      "velocity": 99,
      "chip": "ym2612"
    },
    {
      "channel": 4,
      "note": 104,
      "start": 48.049,
      "duration": 1.9065,
      "velocity": 99,
      "chip": "ym2612"
    },
    {
      "channel": 1,
      "note": 73,
      "start": 48.0691,
      "duration": 0.6504,
      "velocity": 98,
      "chip": "ym2612"
    },
    {
      "channel": 2,
      "note": 47,
      "start": 48.1883,
      "duration": 0.5315,
      "velocity": 91,
      "chip": "ym2612"
    },
    {
      "channel": 0,
      "note": 71,
      "start": 48.4451,
      "duration": 0.806,
      "velocity": 98,
      "chip": "ym2612"
    },
    {
      "channel": 1,
      "note": 71,
      "start": 48.7368,
      "duration": 0.806,
      "velocity": 98,
      "chip": "ym2612"
    },
    {
      "channel": 2,
      "note": 47,
      "start": 48.7373,
      "duration": 0.5316,
      "velocity": 91,
      "chip": "ym2612"
    },
    {
      "channel": 0,
      "note": 66,
      "start": 49.2685,
      "duration": 0.5316,
      "velocity": 98,
      "chip": "ym2612"
    },
    {
      "channel": 2,
      "note": 47,
      "start": 49.2861,
      "duration": 0.5318,
      "velocity": 91,
      "chip": "ym2612"
    },
    {
      "channel": 1,
      "note": 66,
      "start": 49.5603,
      "duration": 0.5316,
      "velocity": 98,
      "chip": "ym2612"
    },
    {
      "channel": 0,
      "note": 59,
      "start": 49.8174,
      "duration": 0.5316,
      "velocity": 98,
      "chip": "ym2612"
    },
    {
      "channel": 2,
      "note": 47,
      "start": 49.8351,
      "duration": 0.5317,
      "velocity": 91,
      "chip": "ym2612"
    },
    {
      "channel": 1,
      "note": 59,
      "start": 50.1092,
      "duration": 0.3093,
      "velocity": 98,
      "chip": "ym2612"
    },
    {
      "channel": 0,
      "note": 61,
      "start": 50.3664,
      "duration": 0.0676,
      "velocity": 98,
      "chip": "ym2612"
    },
    {
      "channel": 2,
      "note": 47,
      "start": 50.3839,
      "duration": 0.0739,
      "velocity": 91,
      "chip": "ym2612"
    },
    {
      "channel": 3,
      "note": 71,
      "start": 50.3845,
      "duration": 0.0532,
      "velocity": 99,
      "chip": "ym2612"
    },
    {
      "channel": 4,
      "note": 71,
      "start": 50.4032,
      "duration": 0.0553,
      "velocity": 99,
      "chip": "ym2612"
    },
    {
      "channel": 1,
      "note": 61,
      "start": 50.421,
      "duration": 0.0549,
      "velocity": 98,
      "chip": "ym2612"
    },
    {
      "channel": 0,
      "note": 62,
      "start": 50.4369,
      "duration": 0.054,
      "velocity": 98,
      "chip": "ym2612"
    },
    {
      "channel": 3,
      "note": 66,
      "start": 50.4411,
      "duration": 0.053,
      "velocity": 99,
      "chip": "ym2612"
    },
    {
      "channel": 2,
      "note": 47,
      "start": 50.4607,
      "duration": 0.0739,
      "velocity": 91,
      "chip": "ym2612"
    },
    {
      "channel": 4,
      "note": 66,
      "start": 50.4616,
      "duration": 0.0523,
      "velocity": 99,
      "chip": "ym2612"
    },
    {
      "channel": 1,
      "note": 62,
      "start": 50.4783,
      "duration": 0.0561,
      "velocity": 98,
      "chip": "ym2612"
    },
    {
      "channel": 0,
      "note": 64,
      "start": 50.4933,
      "duration": 0.0564,
      "velocity": 98,
      "chip": "ym2612"
    },
    {
      "channel": 3,
      "note": 68,
      "start": 50.4978,
      "duration": 0.0551,
      "velocity": 99,
      "chip": "ym2612"
    },
    {
      "channel": 4,
      "note": 68,
      "start": 50.5163,
      "duration": 0.0564,
      "velocity": 99,
      "chip": "ym2612"
    },
    {
      "channel": 1,
      "note": 64,
      "start": 50.5368,
      "duration": 0.0534,
      "velocity": 98,
      "chip": "ym2612"
    },
    {
      "channel": 2,
      "note": 47,
      "start": 50.5373,
      "duration": 0.0746,
      "velocity": 91,
      "chip": "ym2612"
    },
    {
      "channel": 0,
      "note": 66,
      "start": 50.5521,
      "duration": 0.0558,
      "velocity": 98,
      "chip": "ym2612"
    },
    {
      "channel": 3,
      "note": 69,
      "start": 50.5567,
      "duration": 0.0556,
      "velocity": 99,
      "chip": "ym2612"
    },
    {
      "channel": 4,
      "note": 69,
      "start": 50.5751,
      "duration": 0.0586,
      "velocity": 99,
      "chip": "ym2612"
    },
    {
      "channel": 1,
      "note": 66,
      "start": 50.5929,
      "duration": 0.0575,
      "velocity": 98,
      "chip": "ym2612"
    },
    {
      "channel": 0,
      "note": 68,
      "start": 50.6115,
      "duration": 0.4027,
      "velocity": 98,
      "chip": "ym2612"
    },
    {
      "channel": 2,
      "note": 49,
      "start": 50.6169,
      "duration": 0.1404,
      "velocity": 91,
      "chip": "ym2612"
    },
    {
      "channel": 3,
      "note": 71,
      "start": 50.6175,
      "duration": 0.6894,
      "velocity": 99,
      "chip": "ym2612"
    },
    {
      "channel": 4,
      "note": 71,
      "start": 50.6362,
      "duration": 0.7071,
      "velocity": 99,
      "chip": "ym2612"
    },
    {
      "channel": 1,
      "note": 68,
      "start": 50.6528,
      "duration": 0.6535,
      "velocity": 98,
      "chip": "ym2612"
    },
    {
      "channel": 2,
      "note": 49,
      "start": 50.7753,
      "duration": 0.5312,
      "velocity": 91,
      "chip": "ym2612"
    },
    {
      "channel": 0,
      "note": 61,
      "start": 51.0316,
      "duration": 0.2571,
      "velocity": 98,
      "chip": "ym2612"
    },
    {
      "channel": 0,
      "note": 64,
      "start": 51.306,
      "duration": 0.0698,
      "velocity": 98,
      "chip": "ym2612"
    },
    {
      "channel": 1,
      "note": 61,
      "start": 51.3234,
      "duration": 0.0374,
      "velocity": 98,
      "chip": "ym2612"
    },
    {
      "channel": 2,
      "note": 49,
      "start": 51.3239,
      "duration": 0.0748,
      "velocity": 91,
      "chip": "ym2612"
    },
    {
      "channel": 3,
      "note": 76,
      "start": 51.3251,
      "duration": 0.0539,
      "velocity": 99,
      "chip": "ym2612"
    },
    {
      "channel": 4,
      "note": 76,
      "start": 51.3461,
      "duration": 0.0531,
      "velocity": 99,
      "chip": "ym2612"
    },
    {
      "channel": 1,
      "note": 64,
      "start": 51.3632,
      "duration": 0.0571,
      "velocity": 98,
      "chip": "ym2612"
    },
    {
      "channel": 0,
      "note": 61,
      "start": 51.3782,
      "duration": 0.0579,
      "velocity": 98,
      "chip": "ym2612"
    },
    {
      "channel": 3,
      "note": 80,
      "start": 51.3829,
      "duration": 0.0563,
      "velocity": 99,
      "chip": "ym2612"
    },
    {
      "channel": 2,
      "note": 49,
      "start": 51.4011,
      "duration": 0.0752,
      "velocity": 91,
      "chip": "ym2612"
    },
    {
      "channel": 4,
      "note": 80,
      "start": 51.4019,
      "duration": 0.0568,
      "velocity": 99,
      "chip": "ym2612"
    },
    {
      "channel": 1,
      "note": 61,
      "start": 51.423,
      "duration": 0.053,
      "velocity": 98,
      "chip": "ym2612"
    },
    {
      "channel": 0,
      "note": 69,
      "start": 51.4385,
      "duration": 0.7255,
      "velocity": 98,
      "chip": "ym2612"
    },
    {
      "channel": 3,
      "note": 78,
      "start": 51.4431,
      "duration": 0.4173,
      "velocity": 99,
      "chip": "ym2612"
    },
    {
      "channel": 4,
      "note": 78,
      "start": 51.4612,
      "duration": 0.4346,
      "velocity": 99,
      "chip": "ym2612"
    },
    {
      "channel": 1,
      "note": 69,
      "start": 51.4785,
      "duration": 0.758,
      "velocity": 98,
      "chip": "ym2612"
    },
    {
      "channel": 2,
      "note": 54,
      "start": 51.479,
      "duration": 0.381,
      "velocity": 91,
      "chip": "ym2612"
    },
    {
      "channel": 2,
      "note": 54,
      "start": 51.8774,
      "duration": 0.1436,
      "velocity": 91,
      "chip": "ym2612"
    },
    {
      "channel": 3,
      "note": 73,
      "start": 51.878,
      "duration": 0.1433,
      "velocity": 99,
      "chip": "ym2612"
    },
    {
      "channel": 4,
      "note": 73,
      "start": 51.8993,
      "duration": 0.1564,
      "velocity": 99,
      "chip": "ym2612"
    },
    {
      "channel": 2,
      "note": 53,
      "start": 52.0383,
      "duration": 0.1435,
      "velocity": 91,
      "chip": "ym2612"
    },
    {
      "channel": 3,
      "note": 81,
      "start": 52.0389,
      "duration": 0.1432,
      "velocity": 99,
      "chip": "ym2612"
    },
    {
      "channel": 4,
      "note": 81,
      "start": 52.0586,
      "duration": 0.1568,
      "velocity": 99,
      "chip": "ym2612"
    },
    {
      "channel": 0,
      "note": 71,
      "start": 52.1812,
      "duration": 0.0521,
      "velocity": 98,
      "chip": "ym2612"
    },
    {
      "channel": 2,
      "note": 52,
      "start": 52.1989,
      "duration": 0.1434,
      "velocity": 91,
      "chip": "ym2612"
    },
    {
      "channel": 3,
      "note": 83,
      "start": 52.1995,
      "duration": 0.143,
      "velocity": 99,
      "chip": "ym2612"
    },
    {
      "channel": 4,
      "note": 83,
      "start": 52.2183,
      "duration": 0.1586,
      "velocity": 99,
      "chip": "ym2612"
    },
    {
      "channel": 0,
      "note": 73,
      "start": 52.2362,
      "duration": 0.5256,
      "velocity": 98,
      "chip": "ym2612"
    },
    {
      "channel": 1,
      "note": 71,
      "start": 52.2389,
      "duration": 0.1031,
      "velocity": 98,
      "chip": "ym2612"
    },
    {
      "channel": 1,
      "note": 73,
      "start": 52.3593,
      "duration": 0.4746,
      "velocity": 98,
      "chip": "ym2612"
    },
    {
      "channel": 2,
      "note": 51,
      "start": 52.3598,
      "duration": 0.1452,
      "velocity": 91,
      "chip": "ym2612"
    },
    {
      "channel": 3,
      "note": 80,
      "start": 52.3604,
      "duration": 0.4195,
      "velocity": 99,
      "chip": "ym2612"
    },
    {
      "channel": 4,
      "note": 80,
      "start": 52.3793,
      "duration": 0.4363,
      "velocity": 99,
      "chip": "ym2612"
    },
    {
      "channel": 2,
      "note": 51,
      "start": 52.5224,
      "duration": 0.3119,
      "velocity": 91,
      "chip": "ym2612"
    },
    {
      "channel": 0,
      "note": 66,
      "start": 52.7792,
      "duration": 0.1318,
      "velocity": 98,
      "chip": "ym2612"
    },
    {
      "channel": 3,
      "note": 81,
      "start": 52.7974,
      "duration": 0.0371,
      "velocity": 99,
      "chip": "ym2612"
    },
    {
      "channel": 4,
      "note": 81,
      "start": 52.8182,
      "duration": 0.0366,
      "velocity": 99,
      "chip": "ym2612"
    },
    {
      "channel": 1,
      "note": 66,
      "start": 52.8368,
      "duration": 0.1154,
      "velocity": 98,
      "chip": "ym2612"
    },
    {
      "channel": 2,
      "note": 51,
      "start": 52.8373,
      "duration": 0.0766,
      "velocity": 91,
      "chip": "ym2612"
    },
    {
      "channel": 3,
      "note": 69,
      "start": 52.8379,
      "duration": 0.0342,
      "velocity": 99,
      "chip": "ym2612"
    },
    {
      "channel": 4,
      "note": 69,
      "start": 52.8571,
      "duration": 0.0381,
      "velocity": 99,
      "chip": "ym2612"
    },
    {
      "channel": 3,
      "note": 72,
      "start": 52.8762,
      "duration": 0.0381,
      "velocity": 99,
      "chip": "ym2612"
    },
    {
      "channel": 4,
      "note": 72,
      "start": 52.8981,
      "duration": 0.0361,
      "velocity": 99,
      "chip": "ym2612"
    },
    {
      "channel": 0,
      "note": 71,
      "start": 52.9134,
      "duration": 0.0361,
      "velocity": 98,
      "chip": "ym2612"
    },
    {
      "channel": 2,
      "note": 51,
      "start": 52.9169,
      "duration": 0.0759,
      "velocity": 91,
      "chip": "ym2612"
    },
    {
      "channel": 3,
      "note": 75,
      "start": 52.9175,
      "duration": 0.0354,
      "velocity": 99,
      "chip": "ym2612"
    },
    {
      "channel": 4,
      "note": 75,
      "start": 52.9367,
      "duration": 0.0388,
      "velocity": 99,
      "chip": "ym2612"
    },
    {
      "channel": 0,
      "note": 73,
      "start": 52.952,
      "duration": 0.4046,
      "velocity": 98,
      "chip": "ym2612"
    },
    {
      "channel": 1,
      "note": 71,
      "start": 52.9558,
      "duration": 0.0368,
      "velocity": 98,
      "chip": "ym2612"
    },
    {
      "channel": 3,
      "note": 78,
      "start": 52.9566,
      "duration": 0.4182,
      "velocity": 99,
      "chip": "ym2612"
    },
    {
      "channel": 4,
      "note": 78,
      "start": 52.9779,
      "duration": 0.5341,
      "velocity": 99,
      "chip": "ym2612"
    },
    {
      "channel": 1,
      "note": 73,
      "start": 52.995,
      "duration": 0.6535,
      "velocity": 98,
      "chip": "ym2612"
    },
    {
      "channel": 2,
      "note": 52,
      "start": 52.9955,
      "duration": 0.379,
      "velocity": 91,
      "chip": "ym2612"
    },
    {
      "channel": 0,
      "note": 71,
      "start": 53.374,
      "duration": 0.5997,
      "velocity": 98,
      "chip": "ym2612"
    },
    {
      "channel": 2,
      "note": 52,
      "start": 53.3916,
      "duration": 0.5315,
      "velocity": 91,
      "chip": "ym2612"
    },
    {
      "channel": 3,
      "note": 81,
      "start": 53.3922,
      "duration": 0.5847,
      "velocity": 99,
      "chip": "ym2612"
    },
    {
      "channel": 4,
      "note": 81,
      "start": 53.5294,
      "duration": 0.4666,
      "velocity": 99,
      "chip": "ym2612"
    },
    {
      "channel": 1,
      "note": 71,
      "start": 53.6658,
      "duration": 0.4178,
      "velocity": 98,
      "chip": "ym2612"
    },
    {
      "channel": 2,
      "note": 53,
      "start": 53.9406,
      "duration": 0.1433,
      "velocity": 91,
      "chip": "ym2612"
    },
    {
      "channel": 0,
      "note": 74,
      "start": 53.9761,
      "duration": 0.6391,
      "velocity": 98,
      "chip": "ym2612"
    },
    {
      "channel": 3,
      "note": 80,
      "start": 53.9795,
      "duration": 0.6576,
      "velocity": 99,
      "chip": "ym2612"
    },
    {
      "channel": 4,
      "note": 80,
      "start": 53.9986,
      "duration": 0.676,
      "velocity": 99,
      "chip": "ym2612"
    },
    {
      "channel": 1,
      "note": 74,
      "start": 54.1009,
      "duration": 0.5357,
      "velocity": 98,
      "chip": "ym2612"
    },
    {
      "channel": 2,
      "note": 53,
      "start": 54.1014,
      "duration": 0.5354,
      "velocity": 91,
      "chip": "ym2612"
    },
    {
      "channel": 0,
      "note": 52,
      "start": 54.6363,
      "duration": 0.0343,
      "velocity": 97,
      "chip": "ym2612"
    },
    {
      "channel": 1,
      "note": 47,
      "start": 54.6533,
      "duration": 0.0204,
      "velocity": 97,
      "chip": "ym2612"
    },
    {
      "channel": 2,
      "note": 42,
      "start": 54.6569,
      "duration": 0.6276,
      "velocity": 97,
      "chip": "ym2612"
    },
    {
      "channel": 3,
      "note": 83,
      "start": 54.6575,
      "duration": 0.0167,
      "velocity": 99,
      "chip": "ym2612"
    },
    {
      "channel": 0,
      "note": 54,
      "start": 54.6734,
      "duration": 0.0164,
      "velocity": 97,
      "chip": "ym2612"
    },
    {
      "channel": 1,
      "note": 49,
      "start": 54.6761,
      "duration": 0.0163,
      "velocity": 97,
      "chip": "ym2612"
    },
    {
      "channel": 3,
      "note": 64,
      "start": 54.677,
      "duration": 0.016,
      "velocity": 99,
      "chip": "ym2612"
    },
    {
      "channel": 4,
      "note": 83,
      "start": 54.6776,
      "duration": 0.0158,
      "velocity": 99,
      "chip": "ym2612"
    },
    {
      "channel": 0,
      "note": 61,
      "start": 54.6922,
      "duration": 0.0173,
      "velocity": 97,
      "chip": "ym2612"
    },
    {
      "channel": 1,
      "note": 54,
      "start": 54.6955,
      "duration": 0.0169,
      "velocity": 97,
      "chip": "ym2612"
    },
    {
      "channel": 3,
      "note": 66,
      "start": 54.6963,
      "duration": 0.0166,
      "velocity": 99,
      "chip": "ym2612"
    },
    {
      "channel": 4,
      "note": 64,
      "start": 54.6969,
      "duration": 0.0163,
      "velocity": 99,
      "chip": "ym2612"
    },
    {
      "channel": 4,
      "note": 66,
      "start": 54.7159,
      "duration": 0.0171,
      "velocity": 99,
      "chip": "ym2612"
    },
    {
      "channel": 0,
      "note": 59,
      "start": 54.7311,
      "duration": 0.1215,
      "velocity": 97,
      "chip": "ym2612"
    },
    {
      "channel": 1,
      "note": 52,
      "start": 54.7352,
      "duration": 0.1203,
      "velocity": 97,
      "chip": "ym2612"
    },
    {
      "channel": 3,
      "note": 73,
      "start": 54.7367,
      "duration": 0.0175,
      "velocity": 99,
      "chip": "ym2612"
    },
    {
      "channel": 3,
      "note": 71,
      "start": 54.7568,
      "duration": 0.0168,
      "velocity": 99,
      "chip": "ym2612"
    },
    {
      "channel": 4,
      "note": 73,
      "start": 54.7574,
      "duration": 0.0165,
      "velocity": 99,
      "chip": "ym2612"
    },
    {
      "channel": 3,
      "note": 73,
      "start": 54.7766,
      "duration": 0.0169,
      "velocity": 99,
      "chip": "ym2612"
    },
    {
      "channel": 4,
      "note": 71,
      "start": 54.7772,
      "duration": 0.0166,
      "velocity": 99,
      "chip": "ym2612"
    },
    {
      "channel": 3,
      "note": 76,
      "start": 54.7967,
      "duration": 0.0164,
      "velocity": 99,
      "chip": "ym2612"
    },
    {
      "channel": 4,
      "note": 73,
      "start": 54.7973,
      "duration": 0.0161,
      "velocity": 99,
      "chip": "ym2612"
    },
    {
      "channel": 3,
      "note": 80,
      "start": 54.8179,
      "duration": 0.0382,
      "velocity": 99,
      "chip": "ym2612"
    },
    {
      "channel": 4,
      "note": 76,
      "start": 54.8191,
      "duration": 0.0188,
      "velocity": 99,
      "chip": "ym2612"
    },
    {
      "channel": 4,
      "note": 80,
      "start": 54.8403,
      "duration": 0.0362,
      "velocity": 99,
      "chip": "ym2612"
    },
    {
      "channel": 0,
      "note": 64,
      "start": 54.8552,
      "duration": 0.0759,
      "velocity": 97,
      "chip": "ym2612"
    },
    {
      "channel": 1,
      "note": 59,
      "start": 54.8592,
      "duration": 0.0748,
      "velocity": 97,
      "chip": "ym2612"
    },
    {
      "channel": 3,
      "note": 83,
      "start": 54.86,
      "duration": 0.0345,
      "velocity": 99,
      "chip": "ym2612"
    },
    {
      "channel": 4,
      "note": 83,
      "start": 54.879,
      "duration": 0.0372,
      "velocity": 99,
      "chip": "ym2612"
    },
    {
      "channel": 3,
      "note": 80,
      "start": 54.8969,
      "duration": 0.0376,
      "velocity": 99,
      "chip": "ym2612"
    },
    {
      "channel": 4,
      "note": 80,
      "start": 54.9189,
      "duration": 0.0346,
      "velocity": 99,
      "chip": "ym2612"
    },
    {
      "channel": 0,
      "note": 68,
      "start": 54.9337,
      "duration": 0.0346,
      "velocity": 97,
      "chip": "ym2612"
    },
    {
      "channel": 1,
      "note": 64,
      "start": 54.9368,
      "duration": 0.0342,
      "velocity": 97,
      "chip": "ym2612"
    },
    {
      "channel": 3,
      "note": 76,
      "start": 54.9376,
      "duration": 0.0339,
      "velocity": 99,
      "chip": "ym2612"
    },
    {
      "channel": 4,
      "note": 76,
      "start": 54.9559,
      "duration": 0.0407,
      "velocity": 99,
      "chip": "ym2612"
    },
    {
      "channel": 0,
      "note": 66,
      "start": 54.9707,
      "duration": 0.3108,
      "velocity": 97,
      "chip": "ym2612"
    },
    {
      "channel": 1,
      "note": 61,
      "start": 54.9748,
      "duration": 0.3095,
      "velocity": 97,
      "chip": "ym2612"
    },
    {
      "channel": 3,
      "note": 71,
      "start": 54.9759,
      "duration": 0.0076,
      "velocity": 99,
      "chip": "ym2612"
    },
    {
      "channel": 3,
      "note": 73,
      "start": 54.9867,
      "duration": 0.0096,
      "velocity": 99,
      "chip": "ym2612"
    },
    {
      "channel": 3,
      "note": 74,
      "start": 55.0007,
      "duration": 0.0101,
      "velocity": 99,
      "chip": "ym2612"
    },
    {
      "channel": 4,
      "note": 71,
      "start": 55.0039,
      "duration": 0.0073,
      "velocity": 99,
      "chip": "ym2612"
    },
    {
      "channel": 3,
      "note": 73,
      "start": 55.0145,
      "duration": 0.0075,
      "velocity": 99,
      "chip": "ym2612"
    },
    {
      "channel": 4,
      "note": 85,
      "start": 55.0152,
      "duration": 0.0072,
      "velocity": 99,
      "chip": "ym2612"
    },
    {
      "channel": 3,
      "note": 74,
      "start": 55.0256,
      "duration": 0.01,
      "velocity": 99,
      "chip": "ym2612"
    },
    {
      "channel": 4,
      "note": 86,
      "start": 55.0287,
      "duration": 0.0073,
      "velocity": 99,
      "chip": "ym2612"
    },
    {
      "channel": 3,
      "note": 73,
      "start": 55.0381,
      "duration": 0.0076,
      "velocity": 99,
      "chip": "ym2612"
    },
    {
      "channel": 4,
      "note": 85,
      "start": 55.0388,
      "duration": 0.0072,
      "velocity": 99,
      "chip": "ym2612"
    },
    {
      "channel": 3,
      "note": 74,
      "start": 55.0492,
      "duration": 0.0103,
      "velocity": 99,
      "chip": "ym2612"
    },
    {
      "channel": 4,
      "note": 86,
      "start": 55.0523,
      "duration": 0.0075,
      "velocity": 99,
      "chip": "ym2612"
    },
    {
      "channel": 3,
      "note": 73,
      "start": 55.0636,
      "duration": 0.008,
      "velocity": 99,
      "chip": "ym2612"
    },
    {
      "channel": 4,
      "note": 85,
      "start": 55.0642,
      "duration": 0.0077,
      "velocity": 99,
      "chip": "ym2612"
    },
    {
      "channel": 3,
      "note": 74,
      "start": 55.0751,
      "duration": 0.0113,
      "velocity": 99,
      "chip": "ym2612"
    },
    {
      "channel": 4,
      "note": 86,
      "start": 55.0781,
      "duration": 0.0085,
      "velocity": 99,
      "chip": "ym2612"
    },
    {
      "channel": 3,
      "note": 73,
      "start": 55.0902,
      "duration": 0.0089,
      "velocity": 99,
      "chip": "ym2612"
    },
    {
      "channel": 4,
      "note": 85,
      "start": 55.0908,
      "duration": 0.0086,
      "velocity": 99,
      "chip": "ym2612"
    },
    {
      "channel": 3,
      "note": 74,
      "start": 55.1036,
      "duration": 0.0115,
      "velocity": 99,
      "chip": "ym2612"
    },
    {
      "channel": 4,
      "note": 86,
      "start": 55.1068,
      "duration": 0.0087,
      "velocity": 99,
      "chip": "ym2612"
    },
    {
      "channel": 3,
      "note": 73,
      "start": 55.1192,
      "duration": 0.008,
      "velocity": 99,
      "chip": "ym2612"
    },
    {
      "channel": 4,
      "note": 85,
      "start": 55.1198,
      "duration": 0.0077,
      "velocity": 99,
      "chip": "ym2612"
    },
    {
      "channel": 3,
      "note": 74,
      "start": 55.1305,
      "duration": 0.0101,
      "velocity": 99,
      "chip": "ym2612"
    },
    {
      "channel": 4,
      "note": 86,
      "start": 55.1336,
      "duration": 0.0075,
      "velocity": 99,
      "chip": "ym2612"
    },
    {
      "channel": 3,
      "note": 73,
      "start": 55.1448,
      "duration": 0.0078,
      "velocity": 99,
      "chip": "ym2612"
    },
    {
      "channel": 4,
      "note": 85,
      "start": 55.1454,
      "duration": 0.0075,
      "velocity": 99,
      "chip": "ym2612"
    },
    {
      "channel": 3,
      "note": 74,
      "start": 55.1559,
      "duration": 0.0109,
      "velocity": 99,
      "chip": "ym2612"
    },
    {
      "channel": 4,
      "note": 86,
      "start": 55.1589,
      "duration": 0.0082,
      "velocity": 99,
      "chip": "ym2612"
    },
    {
      "channel": 3,
      "note": 73,
      "start": 55.1709,
      "duration": 0.0077,
      "velocity": 99,
      "chip": "ym2612"
    },
    {
      "channel": 4,
      "note": 85,
      "start": 55.1715,
      "duration": 0.0074,
      "velocity": 99,
      "chip": "ym2612"
    },
    {
      "channel": 3,
      "note": 74,
      "start": 55.1819,
      "duration": 0.0108,
      "velocity": 99,
      "chip": "ym2612"
    },
    {
      "channel": 4,
      "note": 86,
      "start": 55.185,
      "duration": 0.008,
      "velocity": 99,
      "chip": "ym2612"
    },
    {
      "channel": 3,
      "note": 73,
      "start": 55.1968,
      "duration": 0.0079,
      "velocity": 99,
      "chip": "ym2612"
    },
    {
      "channel": 4,
      "note": 85,
      "start": 55.1974,
      "duration": 0.0077,
      "velocity": 99,
      "chip": "ym2612"
    },
    {
      "channel": 3,
      "note": 74,
      "start": 55.2082,
      "duration": 0.0128,
      "velocity": 99,
      "chip": "ym2612"
    },
    {
      "channel": 4,
      "note": 86,
      "start": 55.2119,
      "duration": 0.0094,
      "velocity": 99,
      "chip": "ym2612"
    },
    {
      "channel": 3,
      "note": 73,
      "start": 55.2255,
      "duration": 0.0081,
      "velocity": 99,
      "chip": "ym2612"
    },
    {
      "channel": 4,
      "note": 85,
      "start": 55.2262,
      "duration": 0.0078,
      "velocity": 99,
      "chip": "ym2612"
    },
    {
      "channel": 3,
      "note": 74,
      "start": 55.2364,
      "duration": 0.0103,
      "velocity": 99,
      "chip": "ym2612"
    },
    {
      "channel": 4,
      "note": 86,
      "start": 55.2396,
      "duration": 0.0075,
      "velocity": 99,
      "chip": "ym2612"
    },
    {
      "channel": 3,
      "note": 73,
      "start": 55.2508,
      "duration": 0.008,
      "velocity": 99,
      "chip": "ym2612"
    },
    {
      "channel": 4,
      "note": 85,
      "start": 55.2514,
      "duration": 0.0078,
      "velocity": 99,
      "chip": "ym2612"
    },
    {
      "channel": 3,
      "note": 74,
      "start": 55.2622,
      "duration": 0.0105,
      "velocity": 99,
      "chip": "ym2612"
    },
    {
      "channel": 4,
      "note": 86,
      "start": 55.2653,
      "duration": 0.0078,
      "velocity": 99,
      "chip": "ym2612"
    },
    {
      "channel": 3,
      "note": 73,
      "start": 55.2769,
      "duration": 0.008,
      "velocity": 99,
      "chip": "ym2612"
    },
    {
      "channel": 4,
      "note": 85,
      "start": 55.2775,
      "duration": 0.0078,
      "velocity": 99,
      "chip": "ym2612"
    },
    {
      "channel": 0,
      "note": 68,
      "start": 55.284,
      "duration": 0.0926,
      "velocity": 97,
      "chip": "ym2612"
    },
    {
      "channel": 1,
      "note": 61,
      "start": 55.2871,
      "duration": 0.0924,
      "velocity": 97,
      "chip": "ym2612"
    },
    {
      "channel": 2,
      "note": 40,
      "start": 55.2875,
      "duration": 0.0922,
      "velocity": 97,
      "chip": "ym2612"
    },
    {
      "channel": 3,
      "note": 74,
      "start": 55.2883,
      "duration": 0.01,
      "velocity": 99,
      "chip": "ym2612"
    },
    {
      "channel": 4,
      "note": 86,
      "start": 55.2914,
      "duration": 0.0072,
      "velocity": 99,
      "chip": "ym2612"
    },
    {
      "channel": 3,
      "note": 73,
      "start": 55.3021,
      "duration": 0.0073,
      "velocity": 99,
      "chip": "ym2612"
    },
    {
      "channel": 4,
      "note": 85,
      "start": 55.3027,
      "duration": 0.0071,
      "velocity": 99,
      "chip": "ym2612"
    },
    {
      "channel": 3,
      "note": 74,
      "start": 55.3132,
      "duration": 0.0109,
      "velocity": 99,
      "chip": "ym2612"
    },
    {
      "channel": 4,
      "note": 86,
      "start": 55.3169,
      "duration": 0.0075,
      "velocity": 99,
      "chip": "ym2612"
    },
    {
      "channel": 3,
      "note": 73,
      "start": 55.3273,
      "duration": 0.0091,
      "velocity": 99,
      "chip": "ym2612"
    },
    {
      "channel": 4,
      "note": 85,
      "start": 55.3286,
      "duration": 0.0082,
      "velocity": 99,
      "chip": "ym2612"
    },
    {
      "channel": 3,
      "note": 74,
      "start": 55.3402,
      "duration": 0.0192,
      "velocity": 99,
      "chip": "ym2612"
    },
    {
      "channel": 4,
      "note": 86,
      "start": 55.3434,
      "duration": 0.007,
      "velocity": 99,
      "chip": "ym2612"
    },
    {
      "channel": 4,
      "note": 85,
      "start": 55.3531,
      "duration": 0.0066,
      "velocity": 99,
      "chip": "ym2612"
    },
    {
      "channel": 3,
      "note": 76,
      "start": 55.3632,
      "duration": 0.0169,
      "velocity": 99,
      "chip": "ym2612"
    },
    {
      "channel": 4,
      "note": 86,
      "start": 55.3639,
      "duration": 0.0166,
      "velocity": 99,
      "chip": "ym2612"
    },
    {
      "channel": 0,
      "note": 69,
      "start": 55.3791,
      "duration": 0.2939,
      "velocity": 97,
      "chip": "ym2612"
    },
    {
      "channel": 1,
      "note": 66,
      "start": 55.3837,
      "duration": 0.2509,
      "velocity": 97,
      "chip": "ym2612"
    },
    {
      "channel": 2,
      "note": 38,
      "start": 55.3841,
      "duration": 0.3314,
      "velocity": 97,
      "chip": "ym2612"
    },
    {
      "channel": 3,
      "note": 78,
      "start": 55.3848,
      "duration": 0.0162,
      "velocity": 99,
      "chip": "ym2612"
    },
    {
      "channel": 4,
      "note": 76,
      "start": 55.3854,
      "duration": 0.0159,
      "velocity": 99,
      "chip": "ym2612"
    },
    {
      "channel": 3,
      "note": 78,
      "start": 55.4039,
      "duration": 0.0172,
      "velocity": 99,
      "chip": "ym2612"
    },
    {
      "channel": 4,
      "note": 78,
      "start": 55.4046,
      "duration": 0.0172,
      "velocity": 99,
      "chip": "ym2612"
    },
    {
      "channel": 3,
      "note": 76,
      "start": 55.4253,
      "duration": 0.0167,
      "velocity": 99,
      "chip": "ym2612"
    },
    {
      "channel": 4,
      "note": 78,
      "start": 55.4259,
      "duration": 0.0164,
      "velocity": 99,
      "chip": "ym2612"
    },
    {
      "channel": 3,
      "note": 80,
      "start": 55.4449,
      "duration": 0.0171,
      "velocity": 99,
      "chip": "ym2612"
    },
    {
      "channel": 4,
      "note": 76,
      "start": 55.4456,
      "duration": 0.0169,
      "velocity": 99,
      "chip": "ym2612"
    },
    {
      "channel": 3,
      "note": 78,
      "start": 55.4663,
      "duration": 0.0173,
      "velocity": 99,
      "chip": "ym2612"
    },
    {
      "channel": 4,
      "note": 80,
      "start": 55.4669,
      "duration": 0.0169,
      "velocity": 99,
      "chip": "ym2612"
    },
    {
      "channel": 3,
      "note": 81,
      "start": 55.4863,
      "duration": 0.0169,
      "velocity": 99,
      "chip": "ym2612"
    },
    {
      "channel": 4,
      "note": 78,
      "start": 55.4869,
      "duration": 0.0166,
      "velocity": 99,
      "chip": "ym2612"
    },
    {
      "channel": 3,
      "note": 80,
      "start": 55.5079,
      "duration": 0.0193,
      "velocity": 99,
      "chip": "ym2612"
    },
    {
      "channel": 4,
      "note": 81,
      "start": 55.5092,
      "duration": 0.0184,
      "velocity": 99,
      "chip": "ym2612"
    },
    {
      "channel": 3,
      "note": 83,
      "start": 55.531,
      "duration": 0.0173,
      "velocity": 99,
      "chip": "ym2612"
    },
    {
      "channel": 4,
      "note": 80,
      "start": 55.5317,
      "duration": 0.017,
      "velocity": 99,
      "chip": "ym2612"
    },
    {
      "channel": 3,
      "note": 81,
      "start": 55.5524,
      "duration": 0.0163,
      "velocity": 99,
      "chip": "ym2612"
    },
    {
      "channel": 4,
      "note": 83,
      "start": 55.553,
      "duration": 0.0161,
      "velocity": 99,
      "chip": "ym2612"
    },
    {
      "channel": 3,
      "note": 80,
      "start": 55.5717,
      "duration": 0.0169,
      "velocity": 99,
      "chip": "ym2612"
    },
    {
      "channel": 4,
      "note": 81,
      "start": 55.5724,
      "duration": 0.0165,
      "velocity": 99,
      "chip": "ym2612"
    },
    {
      "channel": 3,
      "note": 81,
      "start": 55.5926,
      "duration": 0.0207,
      "velocity": 99,
      "chip": "ym2612"
    },
    {
      "channel": 4,
      "note": 80,
      "start": 55.5932,
      "duration": 0.0204,
      "velocity": 99,
      "chip": "ym2612"
    },
    {
      "channel": 3,
      "note": 78,
      "start": 55.6178,
      "duration": 0.0173,
      "velocity": 99,
      "chip": "ym2612"
    },
    {
      "channel": 4,
      "note": 81,
      "start": 55.6184,
      "duration": 0.017,
      "velocity": 99,
      "chip": "ym2612"
    },
    {
      "channel": 1,
      "note": 66,
      "start": 55.6386,
      "duration": 0.0371,
      "velocity": 97,
      "chip": "ym2612"
    },
    {
      "channel": 3,
      "note": 80,
      "start": 55.6394,
      "duration": 0.0169,
      "velocity": 99,
      "chip": "ym2612"
    },
    {
      "channel": 4,
      "note": 78,
      "start": 55.6401,
      "duration": 0.0166,
      "velocity": 99,
      "chip": "ym2612"
    },
    {
      "channel": 3,
      "note": 76,
      "start": 55.659,
      "duration": 0.0568,
      "velocity": 99,
      "chip": "ym2612"
    },
    {
      "channel": 4,
      "note": 80,
      "start": 55.6597,
      "duration": 0.0169,
      "velocity": 99,
      "chip": "ym2612"
    },
    {
      "channel": 0,
      "note": 68,
      "start": 55.6754,
      "duration": 0.0179,
      "velocity": 97,
      "chip": "ym2612"
    },
    {
      "channel": 1,
      "note": 64,
      "start": 55.6782,
      "duration": 0.0188,
      "velocity": 97,
      "chip": "ym2612"
    },
    {
      "channel": 4,
      "note": 76,
      "start": 55.6793,
      "duration": 0.0555,
      "velocity": 99,
      "chip": "ym2612"
    },
    {
      "channel": 0,
      "note": 69,
      "start": 55.6967,
      "duration": 0.0158,
      "velocity": 97,
      "chip": "ym2612"
    },
    {
      "channel": 1,
      "note": 66,
      "start": 55.6999,
      "duration": 0.0154,
      "velocity": 97,
      "chip": "ym2612"
    },
    {
      "channel": 0,
      "note": 71,
      "start": 55.7149,
      "duration": 0.3312,
      "velocity": 97,
      "chip": "ym2612"
    },
    {
      "channel": 1,
      "note": 68,
      "start": 55.7181,
      "duration": 0.3321,
      "velocity": 97,
      "chip": "ym2612"
    },
    {
      "channel": 2,
      "note": 40,
      "start": 55.7186,
      "duration": 0.3319,
      "velocity": 97,
      "chip": "ym2612"
    },
    {
      "channel": 3,
      "note": 78,
      "start": 55.7192,
      "duration": 0.0153,
      "velocity": 99,
      "chip": "ym2612"
    },
    {
      "channel": 3,
      "note": 80,
      "start": 55.7382,
      "duration": 0.0161,
      "velocity": 99,
      "chip": "ym2612"
    },
    {
      "channel": 4,
      "note": 78,
      "start": 55.7388,
      "duration": 0.0158,
      "velocity": 99,
      "chip": "ym2612"
    },
    {
      "channel": 3,
      "note": 71,
      "start": 55.7574,
      "duration": 0.0167,
      "velocity": 99,
      "chip": "ym2612"
    },
    {
      "channel": 4,
      "note": 80,
      "start": 55.7581,
      "duration": 0.017,
      "velocity": 99,
      "chip": "ym2612"
    },
    {
      "channel": 3,
      "note": 76,
      "start": 55.7789,
      "duration": 0.0187,
      "velocity": 99,
      "chip": "ym2612"
    },
    {
      "channel": 4,
      "note": 71,
      "start": 55.7796,
      "duration": 0.0184,
      "velocity": 99,
      "chip": "ym2612"
    },
    {
      "channel": 3,
      "note": 78,
      "start": 55.8014,
      "duration": 0.0173,
      "velocity": 99,
      "chip": "ym2612"
    },
    {
      "channel": 4,
      "note": 76,
      "start": 55.802,
      "duration": 0.017,
      "velocity": 99,
      "chip": "ym2612"
    },
    {
      "channel": 3,
      "note": 80,
      "start": 55.8213,
      "duration": 0.0165,
      "velocity": 99,
      "chip": "ym2612"
    },
    {
      "channel": 4,
      "note": 78,
      "start": 55.822,
      "duration": 0.0163,
      "velocity": 99,
      "chip": "ym2612"
    },
    {
      "channel": 3,
      "note": 78,
      "start": 55.8419,
      "duration": 0.0172,
      "velocity": 99,
      "chip": "ym2612"
    },
    {
      "channel": 4,
      "note": 80,
      "start": 55.8425,
      "duration": 0.017,
      "velocity": 99,
      "chip": "ym2612"
    },
    {
      "channel": 3,
      "note": 80,
      "start": 55.8624,
      "duration": 0.0195,
      "velocity": 99,
      "chip": "ym2612"
    },
    {
      "channel": 4,
      "note": 78,
      "start": 55.8636,
      "duration": 0.0187,
      "velocity": 99,
      "chip": "ym2612"
    },
    {
      "channel": 3,
      "note": 81,
      "start": 55.8854,
      "duration": 0.0166,
      "velocity": 99,
      "chip": "ym2612"
    },
    {
      "channel": 4,
      "note": 80,
      "start": 55.886,
      "duration": 0.0164,
      "velocity": 99,
      "chip": "ym2612"
    },
    {
      "channel": 3,
      "note": 83,
      "start": 55.905,
      "duration": 0.0173,
      "velocity": 99,
      "chip": "ym2612"
    },
    {
      "channel": 4,
      "note": 81,
      "start": 55.9056,
      "duration": 0.0169,
      "velocity": 99,
      "chip": "ym2612"
    },
    {
      "channel": 3,
      "note": 71,
      "start": 55.9264,
      "duration": 0.0166,
      "velocity": 99,
      "chip": "ym2612"
    },
    {
      "channel": 4,
      "note": 83,
      "start": 55.927,
      "duration": 0.0163,
      "velocity": 99,
      "chip": "ym2612"
    },
    {
      "channel": 3,
      "note": 76,
      "start": 55.9456,
      "duration": 0.0207,
      "velocity": 99,
      "chip": "ym2612"
    },
    {
      "channel": 4,
      "note": 71,
      "start": 55.9463,
      "duration": 0.0205,
      "velocity": 99,
      "chip": "ym2612"
    },
    {
      "channel": 3,
      "note": 80,
      "start": 55.9705,
      "duration": 0.0165,
      "velocity": 99,
      "chip": "ym2612"
    },
    {
      "channel": 4,
      "note": 76,
      "start": 55.9712,
      "duration": 0.0163,
      "velocity": 99,
      "chip": "ym2612"
    },
    {
      "channel": 3,
      "note": 83,
      "start": 55.9898,
      "duration": 0.0175,
      "velocity": 99,
      "chip": "ym2612"
    },
    {
      "channel": 4,
      "note": 80,
      "start": 55.9904,
      "duration": 0.0172,
      "velocity": 99,
      "chip": "ym2612"
    },
    {
      "channel": 3,
      "note": 76,
      "start": 56.0116,
      "duration": 0.0169,
      "velocity": 99,
      "chip": "ym2612"
    },
    {
      "channel": 4,
      "note": 83,
      "start": 56.0122,
      "duration": 0.0166,
      "velocity": 99,
      "chip": "ym2612"
    },
    {
      "channel": 3,
      "note": 80,
      "start": 56.0313,
      "duration": 0.0196,
      "velocity": 99,
      "chip": "ym2612"
    },
    {
      "channel": 4,
      "note": 76,
      "start": 56.0319,
      "duration": 0.0193,
      "velocity": 99,
      "chip": "ym2612"
    },
    {
      "channel": 0,
      "note": 73,
      "start": 56.0496,
      "duration": 0.7328,
      "velocity": 97,
      "chip": "ym2612"
    },
    {
      "channel": 1,
      "note": 70,
      "start": 56.0545,
      "duration": 0.3655,
      "velocity": 97,
      "chip": "ym2612"
    },
    {
      "channel": 2,
      "note": 54,
      "start": 56.0582,
      "duration": 0.0178,
      "velocity": 91,
      "chip": "ym2612"
    },
    {
      "channel": 3,
      "note": 83,
      "start": 56.059,
      "duration": 0.0075,
      "velocity": 99,
      "chip": "ym2612"
    },
    {
      "channel": 4,
      "note": 80,
      "start": 56.0596,
      "duration": 0.0171,
      "velocity": 99,
      "chip": "ym2612"
    },
    {
      "channel": 3,
      "note": 85,
      "start": 56.0693,
      "duration": 0.0071,
      "velocity": 99,
      "chip": "ym2612"
    },
    {
      "channel": 3,
      "note": 86,
      "start": 56.0805,
      "duration": 0.0076,
      "velocity": 99,
      "chip": "ym2612"
    },
    {
      "channel": 4,
      "note": 83,
      "start": 56.0813,
      "duration": 0.0071,
      "velocity": 99,
      "chip": "ym2612"
    },
    {
      "channel": 3,
      "note": 85,
      "start": 56.0915,
      "duration": 0.0073,
      "velocity": 99,
      "chip": "ym2612"
    },
    {
      "channel": 4,
      "note": 97,
      "start": 56.0921,
      "duration": 0.0071,
      "velocity": 99,
      "chip": "ym2612"
    },
    {
      "channel": 2,
      "note": 54,
      "start": 56.1021,
      "duration": 0.0184,
      "velocity": 91,
      "chip": "ym2612"
    },
    {
      "channel": 3,
      "note": 86,
      "start": 56.1029,
      "duration": 0.0076,
      "velocity": 99,
      "chip": "ym2612"
    },
    {
      "channel": 4,
      "note": 98,
      "start": 56.1037,
      "duration": 0.0071,
      "velocity": 99,
      "chip": "ym2612"
    },
    {
      "channel": 3,
      "note": 85,
      "start": 56.1133,
      "duration": 0.0075,
      "velocity": 99,
      "chip": "ym2612"
    },
    {
      "channel": 4,
      "note": 97,
      "start": 56.114,
      "duration": 0.0072,
      "velocity": 99,
      "chip": "ym2612"
    },
    {
      "channel": 3,
      "note": 86,
      "start": 56.1245,
      "duration": 0.0078,
      "velocity": 99,
      "chip": "ym2612"
    },
    {
      "channel": 4,
      "note": 98,
      "start": 56.1254,
      "duration": 0.0073,
      "velocity": 99,
      "chip": "ym2612"
    },
    {
      "channel": 3,
      "note": 85,
      "start": 56.1355,
      "duration": 0.0088,
      "velocity": 99,
      "chip": "ym2612"
    },
    {
      "channel": 4,
      "note": 97,
      "start": 56.1361,
      "duration": 0.0085,
      "velocity": 99,
      "chip": "ym2612"
    },
    {
      "channel": 2,
      "note": 54,
      "start": 56.148,
      "duration": 0.023,
      "velocity": 91,
      "chip": "ym2612"
    },
    {
      "channel": 3,
      "note": 86,
      "start": 56.1493,
      "duration": 0.0096,
      "velocity": 99,
      "chip": "ym2612"
    },
    {
      "channel": 4,
      "note": 98,
      "start": 56.1502,
      "duration": 0.0091,
      "velocity": 99,
      "chip": "ym2612"
    },
    {
      "channel": 3,
      "note": 85,
      "start": 56.1634,
      "duration": 0.0079,
      "velocity": 99,
      "chip": "ym2612"
    },
    {
      "channel": 4,
      "note": 97,
      "start": 56.1641,
      "duration": 0.0076,
      "velocity": 99,
      "chip": "ym2612"
    },
    {
      "channel": 2,
      "note": 54,
      "start": 56.1742,
      "duration": 0.0186,
      "velocity": 91,
      "chip": "ym2612"
    },
    {
      "channel": 3,
      "note": 86,
      "start": 56.1749,
      "duration": 0.008,
      "velocity": 99,
      "chip": "ym2612"
    },
    {
      "channel": 4,
      "note": 98,
      "start": 56.1757,
      "duration": 0.0075,
      "velocity": 99,
      "chip": "ym2612"
    },
    {
      "channel": 3,
      "note": 85,
      "start": 56.1855,
      "duration": 0.0075,
      "velocity": 99,
      "chip": "ym2612"
    },
    {
      "channel": 4,
      "note": 97,
      "start": 56.1862,
      "duration": 0.0073,
      "velocity": 99,
      "chip": "ym2612"
    },
    {
      "channel": 2,
      "note": 54,
      "start": 56.1961,
      "duration": 0.019,
      "velocity": 91,
      "chip": "ym2612"
    },
    {
      "channel": 3,
      "note": 86,
      "start": 56.1968,
      "duration": 0.0082,
      "velocity": 99,
      "chip": "ym2612"
    },
    {
      "channel": 4,
      "note": 98,
      "start": 56.1977,
      "duration": 0.0077,
      "velocity": 99,
      "chip": "ym2612"
    },
    {
      "channel": 3,
      "note": 85,
      "start": 56.2078,
      "duration": 0.0076,
      "velocity": 99,
      "chip": "ym2612"
    },
    {
      "channel": 4,
      "note": 97,
      "start": 56.2084,
      "duration": 0.0073,
      "velocity": 99,
      "chip": "ym2612"
    },
    {
      "channel": 2,
      "note": 54,
      "start": 56.2183,
      "duration": 0.0187,
      "velocity": 91,
      "chip": "ym2612"
    },
    {
      "channel": 3,
      "note": 86,
      "start": 56.219,
      "duration": 0.0079,
      "velocity": 99,
      "chip": "ym2612"
    },
    {
      "channel": 4,
      "note": 98,
      "start": 56.2198,
      "duration": 0.0073,
      "velocity": 99,
      "chip": "ym2612"
    },
    {
      "channel": 3,
      "note": 85,
      "start": 56.2296,
      "duration": 0.0076,
      "velocity": 99,
      "chip": "ym2612"
    },
    {
      "channel": 4,
      "note": 97,
      "start": 56.2302,
      "duration": 0.0073,
      "velocity": 99,
      "chip": "ym2612"
    },
    {
      "channel": 2,
      "note": 54,
      "start": 56.2402,
      "duration": 0.0221,
      "velocity": 91,
      "chip": "ym2612"
    },
    {
      "channel": 3,
      "note": 86,
      "start": 56.2409,
      "duration": 0.0103,
      "velocity": 99,
      "chip": "ym2612"
    },
    {
      "channel": 4,
      "note": 98,
      "start": 56.2423,
      "duration": 0.0093,
      "velocity": 99,
      "chip": "ym2612"
    },
    {
      "channel": 3,
      "note": 85,
      "start": 56.2545,
      "duration": 0.0081,
      "velocity": 99,
      "chip": "ym2612"
    },
    {
      "channel": 4,
      "note": 97,
      "start": 56.2551,
      "duration": 0.0078,
      "velocity": 99,
      "chip": "ym2612"
    },
    {
      "channel": 3,
      "note": 86,
      "start": 56.2656,
      "duration": 0.0078,
      "velocity": 99,
      "chip": "ym2612"
    },
    {
      "channel": 4,
      "note": 98,
      "start": 56.2664,
      "duration": 0.0074,
      "velocity": 99,
      "chip": "ym2612"
    },
    {
      "channel": 3,
      "note": 85,
      "start": 56.2762,
      "duration": 0.0079,
      "velocity": 99,
      "chip": "ym2612"
    },
    {
      "channel": 4,
      "note": 97,
      "start": 56.2769,
      "duration": 0.0076,
      "velocity": 99,
      "chip": "ym2612"
    },
    {
      "channel": 2,
      "note": 54,
      "start": 56.2871,
      "duration": 0.0185,
      "velocity": 91,
      "chip": "ym2612"
    },
    {
      "channel": 3,
      "note": 86,
      "start": 56.2878,
      "duration": 0.0079,
      "velocity": 99,
      "chip": "ym2612"
    },
    {
      "channel": 4,
      "note": 98,
      "start": 56.2886,
      "duration": 0.0074,
      "velocity": 99,
      "chip": "ym2612"
    },
    {
      "channel": 3,
      "note": 85,
      "start": 56.2984,
      "duration": 0.0075,
      "velocity": 99,
      "chip": "ym2612"
    },
    {
      "channel": 4,
      "note": 97,
      "start": 56.299,
      "duration": 0.0072,
      "velocity": 99,
      "chip": "ym2612"
    },
    {
      "channel": 3,
      "note": 86,
      "start": 56.3094,
      "duration": 0.0078,
      "velocity": 99,
      "chip": "ym2612"
    },
    {
      "channel": 4,
      "note": 98,
      "start": 56.3102,
      "duration": 0.0075,
      "velocity": 99,
      "chip": "ym2612"
    },
    {
      "channel": 3,
      "note": 85,
      "start": 56.3203,
      "duration": 0.0079,
      "velocity": 99,
      "chip": "ym2612"
    },
    {
      "channel": 4,
      "note": 97,
      "start": 56.321,
      "duration": 0.0076,
      "velocity": 99,
      "chip": "ym2612"
    },
    {
      "channel": 3,
      "note": 86,
      "start": 56.3316,
      "duration": 0.009,
      "velocity": 99,
      "chip": "ym2612"
    },
    {
      "channel": 4,
      "note": 98,
      "start": 56.3325,
      "duration": 0.0084,
      "velocity": 99,
      "chip": "ym2612"
    },
    {
      "channel": 3,
      "note": 85,
      "start": 56.3445,
      "duration": 0.0097,
      "velocity": 99,
      "chip": "ym2612"
    },
    {
      "channel": 4,
      "note": 97,
      "start": 56.3454,
      "duration": 0.009,
      "velocity": 99,
      "chip": "ym2612"
    },
    {
      "channel": 3,
      "note": 86,
      "start": 56.3573,
      "duration": 0.0078,
      "velocity": 99,
      "chip": "ym2612"
    },
    {
      "channel": 4,
      "note": 98,
      "start": 56.358,
      "duration": 0.0073,
      "velocity": 99,
      "chip": "ym2612"
    },
    {
      "channel": 3,
      "note": 85,
      "start": 56.368,
      "duration": 0.0076,
      "velocity": 99,
      "chip": "ym2612"
    },
    {
      "channel": 4,
      "note": 97,
      "start": 56.3687,
      "duration": 0.0073,
      "velocity": 99,
      "chip": "ym2612"
    },
    {
      "channel": 3,
      "note": 86,
      "start": 56.3792,
      "duration": 0.0088,
      "velocity": 99,
      "chip": "ym2612"
    },
    {
      "channel": 4,
      "note": 98,
      "start": 56.38,
      "duration": 0.0082,
      "velocity": 99,
      "chip": "ym2612"
    },
    {
      "channel": 3,
      "note": 85,
      "start": 56.3907,
      "duration": 0.008,
      "velocity": 99,
      "chip": "ym2612"
    },
    {
      "channel": 4,
      "note": 97,
      "start": 56.3913,
      "duration": 0.0077,
      "velocity": 99,
      "chip": "ym2612"
    },
    {
      "channel": 3,
      "note": 86,
      "start": 56.4021,
      "duration": 0.0081,
      "velocity": 99,
      "chip": "ym2612"
    },
    {
      "channel": 4,
      "note": 98,
      "start": 56.4028,
      "duration": 0.0077,
      "velocity": 99,
      "chip": "ym2612"
    },
    {
      "channel": 3,
      "note": 85,
      "start": 56.4129,
      "duration": 0.0077,
      "velocity": 99,
      "chip": "ym2612"
    },
    {
      "channel": 4,
      "note": 97,
      "start": 56.4136,
      "duration": 0.0074,
      "velocity": 99,
      "chip": "ym2612"
    },
    {
      "channel": 1,
      "note": 69,
      "start": 56.4234,
      "duration": 0.1929,
      "velocity": 97,
      "chip": "ym2612"
    },
    {
      "channel": 2,
      "note": 54,
      "start": 56.4278,
      "duration": 0.0206,
      "velocity": 91,
      "chip": "ym2612"
    },
    {
      "channel": 3,
      "note": 86,
      "start": 56.4285,
      "duration": 0.0081,
      "velocity": 99,
      "chip": "ym2612"
    },
    {
      "channel": 4,
      "note": 98,
      "start": 56.4293,
      "duration": 0.0076,
      "velocity": 99,
      "chip": "ym2612"
    },
    {
      "channel": 3,
      "note": 85,
      "start": 56.4394,
      "duration": 0.0098,
      "velocity": 99,
      "chip": "ym2612"
    },
    {
      "channel": 4,
      "note": 97,
      "start": 56.44,
      "duration": 0.0096,
      "velocity": 99,
      "chip": "ym2612"
    },
    {
      "channel": 3,
      "note": 86,
      "start": 56.4536,
      "duration": 0.0082,
      "velocity": 99,
      "chip": "ym2612"
    },
    {
      "channel": 4,
      "note": 98,
      "start": 56.4544,
      "duration": 0.0077,
      "velocity": 99,
      "chip": "ym2612"
    },
    {
      "channel": 3,
      "note": 85,
      "start": 56.4665,
      "duration": 0.0075,
      "velocity": 99,
      "chip": "ym2612"
    },
    {
      "channel": 4,
      "note": 97,
      "start": 56.4672,
      "duration": 0.0072,
      "velocity": 99,
      "chip": "ym2612"
    },
    {
      "channel": 2,
      "note": 54,
      "start": 56.4771,
      "duration": 0.0189,
      "velocity": 91,
      "chip": "ym2612"
    },
    {
      "channel": 3,
      "note": 86,
      "start": 56.4778,
      "duration": 0.0081,
      "velocity": 99,
      "chip": "ym2612"
    },
    {
      "channel": 4,
      "note": 98,
      "start": 56.4786,
      "duration": 0.0077,
      "velocity": 99,
      "chip": "ym2612"
    },
    {
      "channel": 3,
      "note": 85,
      "start": 56.4887,
      "duration": 0.0075,
      "velocity": 99,
      "chip": "ym2612"
    },
    {
      "channel": 4,
      "note": 97,
      "start": 56.4894,
      "duration": 0.0072,
      "velocity": 99,
      "chip": "ym2612"
    },
    {
      "channel": 3,
      "note": 86,
      "start": 56.5,
      "duration": 0.0078,
      "velocity": 99,
      "chip": "ym2612"
    },
    {
      "channel": 4,
      "note": 98,
      "start": 56.5008,
      "duration": 0.0073,
      "velocity": 99,
      "chip": "ym2612"
    },
    {
      "channel": 3,
      "note": 85,
      "start": 56.5107,
      "duration": 0.0076,
      "velocity": 99,
      "chip": "ym2612"
    },
    {
      "channel": 4,
      "note": 97,
      "start": 56.5113,
      "duration": 0.0073,
      "velocity": 99,
      "chip": "ym2612"
    },
    {
      "channel": 2,
      "note": 54,
      "start": 56.5212,
      "duration": 0.0199,
      "velocity": 91,
      "chip": "ym2612"
    },
    {
      "channel": 3,
      "note": 86,
      "start": 56.522,
      "duration": 0.0079,
      "velocity": 99,
      "chip": "ym2612"
    },
    {
      "channel": 4,
      "note": 98,
      "start": 56.5228,
      "duration": 0.0075,
      "velocity": 99,
      "chip": "ym2612"
    },
    {
      "channel": 3,
      "note": 85,
      "start": 56.5329,
      "duration": 0.0086,
      "velocity": 99,
      "chip": "ym2612"
    },
    {
      "channel": 4,
      "note": 97,
      "start": 56.5336,
      "duration": 0.0083,
      "velocity": 99,
      "chip": "ym2612"
    },
    {
      "channel": 2,
      "note": 54,
      "start": 56.5452,
      "duration": 0.0225,
      "velocity": 91,
      "chip": "ym2612"
    },
    {
      "channel": 3,
      "note": 86,
      "start": 56.5464,
      "duration": 0.0095,
      "velocity": 99,
      "chip": "ym2612"
    },
    {
      "channel": 4,
      "note": 98,
      "start": 56.5473,
      "duration": 0.0089,
      "velocity": 99,
      "chip": "ym2612"
    },
    {
      "channel": 3,
      "note": 85,
      "start": 56.5605,
      "duration": 0.0075,
      "velocity": 99,
      "chip": "ym2612"
    },
    {
      "channel": 4,
      "note": 97,
      "start": 56.5611,
      "duration": 0.0073,
      "velocity": 99,
      "chip": "ym2612"
    },
    {
      "channel": 2,
      "note": 54,
      "start": 56.5708,
      "duration": 0.019,
      "velocity": 91,
      "chip": "ym2612"
    },
    {
      "channel": 3,
      "note": 86,
      "start": 56.5715,
      "duration": 0.0083,
      "velocity": 99,
      "chip": "ym2612"
    },
    {
      "channel": 4,
      "note": 98,
      "start": 56.5724,
      "duration": 0.0077,
      "velocity": 99,
      "chip": "ym2612"
    },
    {
      "channel": 3,
      "note": 85,
      "start": 56.5825,
      "duration": 0.0077,
      "velocity": 99,
      "chip": "ym2612"
    },
    {
      "channel": 4,
      "note": 97,
      "start": 56.5831,
      "duration": 0.0074,
      "velocity": 99,
      "chip": "ym2612"
    },
    {
      "channel": 2,
      "note": 54,
      "start": 56.5931,
      "duration": 0.0193,
      "velocity": 91,
      "chip": "ym2612"
    },
    {
      "channel": 3,
      "note": 86,
      "start": 56.5938,
      "duration": 0.0078,
      "velocity": 99,
      "chip": "ym2612"
    },
    {
      "channel": 4,
      "note": 98,
      "start": 56.5946,
      "duration": 0.0073,
      "velocity": 99,
      "chip": "ym2612"
    },
    {
      "channel": 3,
      "note": 85,
      "start": 56.6047,
      "duration": 0.008,
      "velocity": 99,
      "chip": "ym2612"
    },
    {
      "channel": 4,
      "note": 97,
      "start": 56.6053,
      "duration": 0.0077,
      "velocity": 99,
      "chip": "ym2612"
    },
    {
      "channel": 1,
      "note": 69,
      "start": 56.6163,
      "duration": 0.0461,
      "velocity": 97,
      "chip": "ym2612"
    },
    {
      "channel": 2,
      "note": 54,
      "start": 56.6168,
      "duration": 0.0166,
      "velocity": 91,
      "chip": "ym2612"
    },
    {
      "channel": 3,
      "note": 86,
      "start": 56.6175,
      "duration": 0.0162,
      "velocity": 99,
      "chip": "ym2612"
    },
    {
      "channel": 4,
      "note": 98,
      "start": 56.6183,
      "duration": 0.0068,
      "velocity": 99,
      "chip": "ym2612"
    },
    {
      "channel": 4,
      "note": 97,
      "start": 56.6276,
      "duration": 0.0066,
      "velocity": 99,
      "chip": "ym2612"
    },
    {
      "channel": 3,
      "note": 85,
      "start": 56.637,
      "duration": 0.0197,
      "velocity": 99,
      "chip": "ym2612"
    },
    {
      "channel": 4,
      "note": 98,
      "start": 56.6377,
      "duration": 0.0193,
      "velocity": 99,
      "chip": "ym2612"
    },
    {
      "channel": 1,
      "note": 69,
      "start": 56.6624,
      "duration": 0.041,
      "velocity": 97,
      "chip": "ym2612"
    },
    {
      "channel": 2,
      "note": 54,
      "start": 56.6629,
      "duration": 0.017,
      "velocity": 91,
      "chip": "ym2612"
    },
    {
      "channel": 3,
      "note": 83,
      "start": 56.6635,
      "duration": 0.0168,
      "velocity": 99,
      "chip": "ym2612"
    },
    {
      "channel": 4,
      "note": 85,
      "start": 56.6641,
      "duration": 0.0165,
      "velocity": 99,
      "chip": "ym2612"
    },
    {
      "channel": 3,
      "note": 81,
      "start": 56.6829,
      "duration": 0.0163,
      "velocity": 99,
      "chip": "ym2612"
    },
    {
      "channel": 4,
      "note": 83,
      "start": 56.6835,
      "duration": 0.016,
      "velocity": 99,
      "chip": "ym2612"
    },
    {
      "channel": 1,
      "note": 69,
      "start": 56.7034,
      "duration": 0.0437,
      "velocity": 97,
      "chip": "ym2612"
    },
    {
      "channel": 3,
      "note": 80,
      "start": 56.7042,
      "duration": 0.0159,
      "velocity": 99,
      "chip": "ym2612"
    },
    {
      "channel": 4,
      "note": 81,
      "start": 56.7048,
      "duration": 0.0156,
      "velocity": 99,
      "chip": "ym2612"
    },
    {
      "channel": 3,
      "note": 83,
      "start": 56.7231,
      "duration": 0.0194,
      "velocity": 99,
      "chip": "ym2612"
    },
    {
      "channel": 4,
      "note": 80,
      "start": 56.7237,
      "duration": 0.0191,
      "velocity": 99,
      "chip": "ym2612"
    },
    {
      "channel": 1,
      "note": 69,
      "start": 56.7471,
      "duration": 0.0437,
      "velocity": 97,
      "chip": "ym2612"
    },
    {
      "channel": 3,
      "note": 81,
      "start": 56.748,
      "duration": 0.0169,
      "velocity": 99,
      "chip": "ym2612"
    },
    {
      "channel": 4,
      "note": 83,
      "start": 56.7486,
      "duration": 0.0166,
      "velocity": 99,
      "chip": "ym2612"
    },
    {
      "channel": 3,
      "note": 80,
      "start": 56.7689,
      "duration": 0.0165,
      "velocity": 99,
      "chip": "ym2612"
    },
    {
      "channel": 4,
      "note": 81,
      "start": 56.7695,
      "duration": 0.0163,
      "velocity": 99,
      "chip": "ym2612"
    },
    {
      "channel": 0,
      "note": 73,
      "start": 56.7824,
      "duration": 0.6492,
      "velocity": 97,
      "chip": "ym2612"
    },
    {
      "channel": 1,
      "note": 54,
      "start": 56.7908,
      "duration": 0.0121,
      "velocity": 97,
      "chip": "ym2612"
    },
    {
      "channel": 2,
      "note": 54,
      "start": 56.7946,
      "duration": 0.0183,
      "velocity": 91,
      "chip": "ym2612"
    },
    {
      "channel": 3,
      "note": 78,
      "start": 56.7953,
      "duration": 0.0081,
      "velocity": 99,
      "chip": "ym2612"
    },
    {
      "channel": 4,
      "note": 80,
      "start": 56.7966,
      "duration": 0.017,
      "velocity": 99,
      "chip": "ym2612"
    },
    {
      "channel": 1,
      "note": 54,
      "start": 56.8052,
      "duration": 0.0074,
      "velocity": 97,
      "chip": "ym2612"
    },
    {
      "channel": 3,
      "note": 73,
      "start": 56.8061,
      "duration": 0.0071,
      "velocity": 99,
      "chip": "ym2612"
    },
    {
      "channel": 1,
      "note": 54,
      "start": 56.8163,
      "duration": 0.0081,
      "velocity": 97,
      "chip": "ym2612"
    },
    {
      "channel": 3,
      "note": 74,
      "start": 56.8173,
      "duration": 0.0076,
      "velocity": 99,
      "chip": "ym2612"
    },
    {
      "channel": 4,
      "note": 78,
      "start": 56.8181,
      "duration": 0.0072,
      "velocity": 99,
      "chip": "ym2612"
    },
    {
      "channel": 1,
      "note": 54,
      "start": 56.8272,
      "duration": 0.0093,
      "velocity": 97,
      "chip": "ym2612"
    },
    {
      "channel": 3,
      "note": 73,
      "start": 56.828,
      "duration": 0.009,
      "velocity": 99,
      "chip": "ym2612"
    },
    {
      "channel": 4,
      "note": 81,
      "start": 56.8286,
      "duration": 0.0093,
      "velocity": 99,
      "chip": "ym2612"
    },
    {
      "channel": 1,
      "note": 54,
      "start": 56.8424,
      "duration": 0.0089,
      "velocity": 97,
      "chip": "ym2612"
    },
    {
      "channel": 2,
      "note": 54,
      "start": 56.8429,
      "duration": 0.0208,
      "velocity": 91,
      "chip": "ym2612"
    },
    {
      "channel": 3,
      "note": 74,
      "start": 56.8437,
      "duration": 0.0081,
      "velocity": 99,
      "chip": "ym2612"
    },
    {
      "channel": 4,
      "note": 83,
      "start": 56.8444,
      "duration": 0.0076,
      "velocity": 99,
      "chip": "ym2612"
    },
    {
      "channel": 1,
      "note": 54,
      "start": 56.8558,
      "duration": 0.0077,
      "velocity": 97,
      "chip": "ym2612"
    },
    {
      "channel": 3,
      "note": 73,
      "start": 56.8566,
      "duration": 0.0075,
      "velocity": 99,
      "chip": "ym2612"
    },
    {
      "channel": 4,
      "note": 81,
      "start": 56.8573,
      "duration": 0.0072,
      "velocity": 99,
      "chip": "ym2612"
    },
    {
      "channel": 1,
      "note": 54,
      "start": 56.8671,
      "duration": 0.0083,
      "velocity": 97,
      "chip": "ym2612"
    },
    {
      "channel": 3,
      "note": 74,
      "start": 56.8682,
      "duration": 0.0078,
      "velocity": 99,
      "chip": "ym2612"
    },
    {
      "channel": 4,
      "note": 83,
      "start": 56.869,
      "duration": 0.0073,
      "velocity": 99,
      "chip": "ym2612"
    },
    {
      "channel": 1,
      "note": 54,
      "start": 56.878,
      "duration": 0.0078,
      "velocity": 97,
      "chip": "ym2612"
    },
    {
      "channel": 3,
      "note": 73,
      "start": 56.8789,
      "duration": 0.0076,
      "velocity": 99,
      "chip": "ym2612"
    },
    {
      "channel": 4,
      "note": 81,
      "start": 56.8795,
      "duration": 0.0073,
      "velocity": 99,
      "chip": "ym2612"
    },
    {
      "channel": 1,
      "note": 54,
      "start": 56.8905,
      "duration": 0.0085,
      "velocity": 97,
      "chip": "ym2612"
    },
    {
      "channel": 2,
      "note": 54,
      "start": 56.891,
      "duration": 0.019,
      "velocity": 91,
      "chip": "ym2612"
    },
    {
      "channel": 3,
      "note": 74,
      "start": 56.8917,
      "duration": 0.0078,
      "velocity": 99,
      "chip": "ym2612"
    },
    {
      "channel": 4,
      "note": 83,
      "start": 56.8926,
      "duration": 0.0073,
      "velocity": 99,
      "chip": "ym2612"
    },
    {
      "channel": 1,
      "note": 54,
      "start": 56.9021,
      "duration": 0.0077,
      "velocity": 97,
      "chip": "ym2612"
    },
    {
      "channel": 3,
      "note": 73,
      "start": 56.9029,
      "duration": 0.0074,
      "velocity": 99,
      "chip": "ym2612"
    },
    {
      "channel": 4,
      "note": 81,
      "start": 56.9036,
      "duration": 0.0072,
      "velocity": 99,
      "chip": "ym2612"
    },
    {
      "channel": 1,
      "note": 54,
      "start": 56.913,
      "duration": 0.0085,
      "velocity": 97,
      "chip": "ym2612"
    },
    {
      "channel": 2,
      "note": 54,
      "start": 56.9134,
      "duration": 0.0188,
      "velocity": 91,
      "chip": "ym2612"
    },
    {
      "channel": 3,
      "note": 74,
      "start": 56.9142,
      "duration": 0.0078,
      "velocity": 99,
      "chip": "ym2612"
    },
    {
      "channel": 4,
      "note": 83,
      "start": 56.915,
      "duration": 0.0073,
      "velocity": 99,
      "chip": "ym2612"
    },
    {
      "channel": 1,
      "note": 54,
      "start": 56.924,
      "duration": 0.008,
      "velocity": 97,
      "chip": "ym2612"
    },
    {
      "channel": 3,
      "note": 73,
      "start": 56.9248,
      "duration": 0.0078,
      "velocity": 99,
      "chip": "ym2612"
    },
    {
      "channel": 4,
      "note": 81,
      "start": 56.9254,
      "duration": 0.0075,
      "velocity": 99,
      "chip": "ym2612"
    },
    {
      "channel": 1,
      "note": 54,
      "start": 56.9379,
      "duration": 0.0103,
      "velocity": 97,
      "chip": "ym2612"
    },
    {
      "channel": 2,
      "note": 54,
      "start": 56.9384,
      "duration": 0.0227,
      "velocity": 91,
      "chip": "ym2612"
    },
    {
      "channel": 3,
      "note": 74,
      "start": 56.9392,
      "duration": 0.0096,
      "velocity": 99,
      "chip": "ym2612"
    },
    {
      "channel": 4,
      "note": 83,
      "start": 56.94,
      "duration": 0.0092,
      "velocity": 99,
      "chip": "ym2612"
    },
    {
      "channel": 1,
      "note": 54,
      "start": 56.953,
      "duration": 0.0079,
      "velocity": 97,
      "chip": "ym2612"
    },
    {
      "channel": 3,
      "note": 73,
      "start": 56.9539,
      "duration": 0.0076,
      "velocity": 99,
      "chip": "ym2612"
    },
    {
      "channel": 4,
      "note": 81,
      "start": 56.9545,
      "duration": 0.0073,
      "velocity": 99,
      "chip": "ym2612"
    },
    {
      "channel": 1,
      "note": 54,
      "start": 56.9636,
      "duration": 0.0085,
      "velocity": 97,
      "chip": "ym2612"
    },
    {
      "channel": 2,
      "note": 54,
      "start": 56.9641,
      "duration": 0.0185,
      "velocity": 91,
      "chip": "ym2612"
    },
    {
      "channel": 3,
      "note": 74,
      "start": 56.9649,
      "duration": 0.0077,
      "velocity": 99,
      "chip": "ym2612"
    },
    {
      "channel": 4,
      "note": 83,
      "start": 56.9657,
      "duration": 0.0073,
      "velocity": 99,
      "chip": "ym2612"
    },
    {
      "channel": 1,
      "note": 54,
      "start": 56.9746,
      "duration": 0.0078,
      "velocity": 97,
      "chip": "ym2612"
    },
    {
      "channel": 3,
      "note": 73,
      "start": 56.9754,
      "duration": 0.0075,
      "velocity": 99,
      "chip": "ym2612"
    },
    {
      "channel": 4,
      "note": 81,
      "start": 56.9761,
      "duration": 0.0072,
      "velocity": 99,
      "chip": "ym2612"
    },
    {
      "channel": 1,
      "note": 54,
      "start": 56.987,
      "duration": 0.0085,
      "velocity": 97,
      "chip": "ym2612"
    },
    {
      "channel": 2,
      "note": 54,
      "start": 56.9874,
      "duration": 0.0188,
      "velocity": 91,
      "chip": "ym2612"
    },
    {
      "channel": 3,
      "note": 74,
      "start": 56.9882,
      "duration": 0.0078,
      "velocity": 99,
      "chip": "ym2612"
    },
    {
      "channel": 4,
      "note": 83,
      "start": 56.989,
      "duration": 0.0073,
      "velocity": 99,
      "chip": "ym2612"
    },
    {
      "channel": 1,
      "note": 54,
      "start": 56.9981,
      "duration": 0.0078,
      "velocity": 97,
      "chip": "ym2612"
    },
    {
      "channel": 3,
      "note": 73,
      "start": 56.999,
      "duration": 0.0075,
      "velocity": 99,
      "chip": "ym2612"
    },
    {
      "channel": 4,
      "note": 81,
      "start": 56.9996,
      "duration": 0.0072,
      "velocity": 99,
      "chip": "ym2612"
    },
    {
      "channel": 1,
      "note": 54,
      "start": 57.009,
      "duration": 0.0082,
      "velocity": 97,
      "chip": "ym2612"
    },
    {
      "channel": 3,
      "note": 74,
      "start": 57.01,
      "duration": 0.0077,
      "velocity": 99,
      "chip": "ym2612"
    },
    {
      "channel": 4,
      "note": 83,
      "start": 57.0108,
      "duration": 0.0073,
      "velocity": 99,
      "chip": "ym2612"
    },
    {
      "channel": 1,
      "note": 54,
      "start": 57.0199,
      "duration": 0.0078,
      "velocity": 97,
      "chip": "ym2612"
    },
    {
      "channel": 3,
      "note": 73,
      "start": 57.0208,
      "duration": 0.0075,
      "velocity": 99,
      "chip": "ym2612"
    },
    {
      "channel": 4,
      "note": 81,
      "start": 57.0214,
      "duration": 0.0072,
      "velocity": 99,
      "chip": "ym2612"
    },
    {
      "channel": 1,
      "note": 54,
      "start": 57.0323,
      "duration": 0.0099,
      "velocity": 97,
      "chip": "ym2612"
    },
    {
      "channel": 2,
      "note": 54,
      "start": 57.033,
      "duration": 0.0224,
      "velocity": 91,
      "chip": "ym2612"
    },
    {
      "channel": 3,
      "note": 74,
      "start": 57.0341,
      "duration": 0.0086,
      "velocity": 99,
      "chip": "ym2612"
    },
    {
      "channel": 4,
      "note": 83,
      "start": 57.0349,
      "duration": 0.0085,
      "velocity": 99,
      "chip": "ym2612"
    },
    {
      "channel": 1,
      "note": 54,
      "start": 57.0455,
      "duration": 0.0097,
      "velocity": 97,
      "chip": "ym2612"
    },
    {
      "channel": 3,
      "note": 73,
      "start": 57.0468,
      "duration": 0.0089,
      "velocity": 99,
      "chip": "ym2612"
    },
    {
      "channel": 4,
      "note": 81,
      "start": 57.0476,
      "duration": 0.0085,
      "velocity": 99,
      "chip": "ym2612"
    },
    {
      "channel": 1,
      "note": 54,
      "start": 57.0577,
      "duration": 0.0086,
      "velocity": 97,
      "chip": "ym2612"
    },
    {
      "channel": 3,
      "note": 74,
      "start": 57.0587,
      "duration": 0.0081,
      "velocity": 99,
      "chip": "ym2612"
    },
    {
      "channel": 4,
      "note": 83,
      "start": 57.0595,
      "duration": 0.0077,
      "velocity": 99,
      "chip": "ym2612"
    },
    {
      "channel": 1,
      "note": 54,
      "start": 57.0689,
      "duration": 0.0078,
      "velocity": 97,
      "chip": "ym2612"
    },
    {
      "channel": 3,
      "note": 73,
      "start": 57.0697,
      "duration": 0.0075,
      "velocity": 99,
      "chip": "ym2612"
    },
    {
      "channel": 4,
      "note": 81,
      "start": 57.0704,
      "duration": 0.0072,
      "velocity": 99,
      "chip": "ym2612"
    },
    {
      "channel": 1,
      "note": 54,
      "start": 57.0814,
      "duration": 0.0082,
      "velocity": 97,
      "chip": "ym2612"
    },
    {
      "channel": 3,
      "note": 74,
      "start": 57.0823,
      "duration": 0.0077,
      "velocity": 99,
      "chip": "ym2612"
    },
    {
      "channel": 4,
      "note": 83,
      "start": 57.0832,
      "duration": 0.0073,
      "velocity": 99,
      "chip": "ym2612"
    },
    {
      "channel": 1,
      "note": 54,
      "start": 57.0925,
      "duration": 0.0078,
      "velocity": 97,
      "chip": "ym2612"
    },
    {
      "channel": 3,
      "note": 73,
      "start": 57.0933,
      "duration": 0.0074,
      "velocity": 99,
      "chip": "ym2612"
    },
    {
      "channel": 4,
      "note": 81,
      "start": 57.094,
      "duration": 0.0072,
      "velocity": 99,
      "chip": "ym2612"
    },
    {
      "channel": 1,
      "note": 54,
      "start": 57.1034,
      "duration": 0.0081,
      "velocity": 97,
      "chip": "ym2612"
    },
    {
      "channel": 3,
      "note": 74,
      "start": 57.1043,
      "duration": 0.0077,
      "velocity": 99,
      "chip": "ym2612"
    },
    {
      "channel": 4,
      "note": 83,
      "start": 57.1051,
      "duration": 0.0073,
      "velocity": 99,
      "chip": "ym2612"
    },
    {
      "channel": 1,
      "note": 54,
      "start": 57.1143,
      "duration": 0.0081,
      "velocity": 97,
      "chip": "ym2612"
    },
    {
      "channel": 3,
      "note": 73,
      "start": 57.1151,
      "duration": 0.0079,
      "velocity": 99,
      "chip": "ym2612"
    },
    {
      "channel": 4,
      "note": 81,
      "start": 57.1158,
      "duration": 0.0076,
      "velocity": 99,
      "chip": "ym2612"
    },
    {
      "channel": 1,
      "note": 54,
      "start": 57.1272,
      "duration": 0.0092,
      "velocity": 97,
      "chip": "ym2612"
    },
    {
      "channel": 3,
      "note": 74,
      "start": 57.1281,
      "duration": 0.0088,
      "velocity": 99,
      "chip": "ym2612"
    },
    {
      "channel": 4,
      "note": 83,
      "start": 57.1295,
      "duration": 0.0078,
      "velocity": 99,
      "chip": "ym2612"
    },
    {
      "channel": 1,
      "note": 54,
      "start": 57.1395,
      "duration": 0.01,
      "velocity": 97,
      "chip": "ym2612"
    },
    {
      "channel": 3,
      "note": 73,
      "start": 57.1404,
      "duration": 0.01,
      "velocity": 99,
      "chip": "ym2612"
    },
    {
      "channel": 4,
      "note": 81,
      "start": 57.1415,
      "duration": 0.0092,
      "velocity": 99,
      "chip": "ym2612"
    },
    {
      "channel": 1,
      "note": 54,
      "start": 57.1535,
      "duration": 0.0084,
      "velocity": 97,
      "chip": "ym2612"
    },
    {
      "channel": 3,
      "note": 74,
      "start": 57.1544,
      "duration": 0.008,
      "velocity": 99,
      "chip": "ym2612"
    },
    {
      "channel": 4,
      "note": 83,
      "start": 57.1553,
      "duration": 0.0075,
      "velocity": 99,
      "chip": "ym2612"
    },
    {
      "channel": 1,
      "note": 54,
      "start": 57.1658,
      "duration": 0.0078,
      "velocity": 97,
      "chip": "ym2612"
    },
    {
      "channel": 3,
      "note": 73,
      "start": 57.1666,
      "duration": 0.0076,
      "velocity": 99,
      "chip": "ym2612"
    },
    {
      "channel": 4,
      "note": 81,
      "start": 57.1672,
      "duration": 0.0073,
      "velocity": 99,
      "chip": "ym2612"
    },
    {
      "channel": 1,
      "note": 54,
      "start": 57.1781,
      "duration": 0.0419,
      "velocity": 97,
      "chip": "ym2612"
    },
    {
      "channel": 2,
      "note": 54,
      "start": 57.1819,
      "duration": 0.0179,
      "velocity": 91,
      "chip": "ym2612"
    },
    {
      "channel": 3,
      "note": 74,
      "start": 57.1826,
      "duration": 0.0175,
      "velocity": 99,
      "chip": "ym2612"
    },
    {
      "channel": 4,
      "note": 83,
      "start": 57.1833,
      "duration": 0.0076,
      "velocity": 99,
      "chip": "ym2612"
    },
    {
      "channel": 4,
      "note": 81,
      "start": 57.1934,
      "duration": 0.007,
      "velocity": 99,
      "chip": "ym2612"
    },
    {
      "channel": 3,
      "note": 73,
      "start": 57.204,
      "duration": 0.0165,
      "velocity": 99,
      "chip": "ym2612"
    },
    {
      "channel": 4,
      "note": 83,
      "start": 57.2048,
      "duration": 0.0161,
      "velocity": 99,
      "chip": "ym2612"
    },
    {
      "channel": 1,
      "note": 49,
      "start": 57.2226,
      "duration": 0.0384,
      "velocity": 97,
      "chip": "ym2612"
    },
    {
      "channel": 2,
      "note": 54,
      "start": 57.2231,
      "duration": 0.0168,
      "velocity": 91,
      "chip": "ym2612"
    },
    {
      "channel": 3,
      "note": 74,
      "start": 57.2237,
      "duration": 0.0166,
      "velocity": 99,
      "chip": "ym2612"
    },
    {
      "channel": 4,
      "note": 85,
      "start": 57.2244,
      "duration": 0.0163,
      "velocity": 99,
      "chip": "ym2612"
    },
    {
      "channel": 3,
      "note": 71,
      "start": 57.2444,
      "duration": 0.0172,
      "velocity": 99,
      "chip": "ym2612"
    },
    {
      "channel": 4,
      "note": 86,
      "start": 57.2451,
      "duration": 0.0168,
      "velocity": 99,
      "chip": "ym2612"
    },
    {
      "channel": 1,
      "note": 54,
      "start": 57.2652,
      "duration": 0.036,
      "velocity": 97,
      "chip": "ym2612"
    },
    {
      "channel": 2,
      "note": 54,
      "start": 57.2657,
      "duration": 0.0163,
      "velocity": 91,
      "chip": "ym2612"
    },
    {
      "channel": 3,
      "note": 73,
      "start": 57.2663,
      "duration": 0.016,
      "velocity": 99,
      "chip": "ym2612"
    },
    {
      "channel": 4,
      "note": 83,
      "start": 57.267,
      "duration": 0.0158,
      "velocity": 99,
      "chip": "ym2612"
    },
    {
      "channel": 2,
      "note": 54,
      "start": 57.2851,
      "duration": 0.0164,
      "velocity": 91,
      "chip": "ym2612"
    },
    {
      "channel": 3,
      "note": 76,
      "start": 57.2858,
      "duration": 0.016,
      "velocity": 99,
      "chip": "ym2612"
    },
    {
      "channel": 4,
      "note": 85,
      "start": 57.2864,
      "duration": 0.0158,
      "velocity": 99,
      "chip": "ym2612"
    },
    {
      "channel": 1,
      "note": 49,
      "start": 57.3038,
      "duration": 0.0392,
      "velocity": 97,
      "chip": "ym2612"
    },
    {
      "channel": 2,
      "note": 54,
      "start": 57.3043,
      "duration": 0.0163,
      "velocity": 91,
      "chip": "ym2612"
    },
    {
      "channel": 3,
      "note": 74,
      "start": 57.3049,
      "duration": 0.016,
      "velocity": 99,
      "chip": "ym2612"
    },
    {
      "channel": 4,
      "note": 88,
      "start": 57.3055,
      "duration": 0.0157,
      "velocity": 99,
      "chip": "ym2612"
    },
    {
      "channel": 2,
      "note": 54,
      "start": 57.3233,
      "duration": 0.0199,
      "velocity": 91,
      "chip": "ym2612"
    },
    {
      "channel": 3,
      "note": 73,
      "start": 57.3239,
      "duration": 0.0196,
      "velocity": 99,
      "chip": "ym2612"
    },
    {
      "channel": 4,
      "note": 86,
      "start": 57.3251,
      "duration": 0.0188,
      "velocity": 99,
      "chip": "ym2612"
    },
    {
      "channel": 1,
      "note": 54,
      "start": 57.3467,
      "duration": 0.0406,
      "velocity": 97,
      "chip": "ym2612"
    },
    {
      "channel": 2,
      "note": 54,
      "start": 57.3473,
      "duration": 0.0178,
      "velocity": 91,
      "chip": "ym2612"
    },
    {
      "channel": 3,
      "note": 71,
      "start": 57.348,
      "duration": 0.0076,
      "velocity": 99,
      "chip": "ym2612"
    },
    {
      "channel": 4,
      "note": 85,
      "start": 57.3486,
      "duration": 0.0171,
      "velocity": 99,
      "chip": "ym2612"
    },
    {
      "channel": 3,
      "note": 73,
      "start": 57.3583,
      "duration": 0.0071,
      "velocity": 99,
      "chip": "ym2612"
    },
    {
      "channel": 3,
      "note": 74,
      "start": 57.3694,
      "duration": 0.0077,
      "velocity": 99,
      "chip": "ym2612"
    },
    {
      "channel": 4,
      "note": 83,
      "start": 57.3702,
      "duration": 0.0073,
      "velocity": 99,
      "chip": "ym2612"
    },
    {
      "channel": 3,
      "note": 73,
      "start": 57.3801,
      "duration": 0.0078,
      "velocity": 99,
      "chip": "ym2612"
    },
    {
      "channel": 4,
      "note": 81,
      "start": 57.3807,
      "duration": 0.0076,
      "velocity": 99,
      "chip": "ym2612"
    },
    {
      "channel": 1,
      "note": 49,
      "start": 57.3912,
      "duration": 0.0497,
      "velocity": 97,
      "chip": "ym2612"
    },
    {
      "channel": 2,
      "note": 54,
      "start": 57.3917,
      "duration": 0.0201,
      "velocity": 91,
      "chip": "ym2612"
    },
    {
      "channel": 3,
      "note": 74,
      "start": 57.3924,
      "duration": 0.0078,
      "velocity": 99,
      "chip": "ym2612"
    },
    {
      "channel": 4,
      "note": 83,
      "start": 57.3933,
      "duration": 0.0073,
      "velocity": 99,
      "chip": "ym2612"
    },
    {
      "channel": 3,
      "note": 73,
      "start": 57.4044,
      "duration": 0.0078,
      "velocity": 99,
      "chip": "ym2612"
    },
    {
      "channel": 4,
      "note": 81,
      "start": 57.405,
      "duration": 0.0076,
      "velocity": 99,
      "chip": "ym2612"
    },
    {
      "channel": 3,
      "note": 74,
      "start": 57.4159,
      "duration": 0.0089,
      "velocity": 99,
      "chip": "ym2612"
    },
    {
      "channel": 4,
      "note": 83,
      "start": 57.4167,
      "duration": 0.0084,
      "velocity": 99,
      "chip": "ym2612"
    },
    {
      "channel": 3,
      "note": 73,
      "start": 57.4287,
      "duration": 0.0127,
      "velocity": 99,
      "chip": "ym2612"
    },
    {
      "channel": 4,
      "note": 81,
      "start": 57.4296,
      "duration": 0.0121,
      "velocity": 99,
      "chip": "ym2612"
    },
    {
      "channel": 0,
      "note": 61,
      "start": 57.438,
      "duration": 0.1109,
      "velocity": 102,
      "chip": "ym2612"
    },
    {
      "channel": 1,
      "note": 54,
      "start": 57.4433,
      "duration": 0.0371,
      "velocity": 97,
      "chip": "ym2612"
    },
    {
      "channel": 3,
      "note": 74,
      "start": 57.4442,
      "duration": 0.008,
      "velocity": 99,
      "chip": "ym2612"
    },
    {
      "channel": 4,
      "note": 83,
      "start": 57.4451,
      "duration": 0.0075,
      "velocity": 99,
      "chip": "ym2612"
    },
    {
      "channel": 3,
      "note": 73,
      "start": 57.4546,
      "duration": 0.007,
      "velocity": 99,
      "chip": "ym2612"
    },
    {
      "channel": 4,
      "note": 81,
      "start": 57.4553,
      "duration": 0.0067,
      "velocity": 99,
      "chip": "ym2612"
    },
    {
      "channel": 3,
      "note": 74,
      "start": 57.4642,
      "duration": 0.0073,
      "velocity": 99,
      "chip": "ym2612"
    },
    {
      "channel": 4,
      "note": 83,
      "start": 57.465,
      "duration": 0.0068,
      "velocity": 99,
      "chip": "ym2612"
    },
    {
      "channel": 3,
      "note": 73,
      "start": 57.4739,
      "duration": 0.0071,
      "velocity": 99,
      "chip": "ym2612"
    },
    {
      "channel": 4,
      "note": 81,
      "start": 57.4745,
      "duration": 0.0067,
      "velocity": 99,
      "chip": "ym2612"
    },
    {
      "channel": 1,
      "note": 49,
      "start": 57.4828,
      "duration": 0.1006,
      "velocity": 97,
      "chip": "ym2612"
    },
    {
      "channel": 3,
      "note": 74,
      "start": 57.4838,
      "duration": 0.0074,
      "velocity": 99,
      "chip": "ym2612"
    },
    {
      "channel": 4,
      "note": 83,
      "start": 57.4846,
      "duration": 0.0069,
      "velocity": 99,
      "chip": "ym2612"
    },
    {
      "channel": 3,
      "note": 73,
      "start": 57.4938,
      "duration": 0.0076,
      "velocity": 99,
      "chip": "ym2612"
    },
    {
      "channel": 4,
      "note": 81,
      "start": 57.4944,
      "duration": 0.0073,
      "velocity": 99,
      "chip": "ym2612"
    },
    {
      "channel": 3,
      "note": 74,
      "start": 57.504,
      "duration": 0.0114,
      "velocity": 99,
      "chip": "ym2612"
    },
    {
      "channel": 4,
      "note": 83,
      "start": 57.5048,
      "duration": 0.0109,
      "velocity": 99,
      "chip": "ym2612"
    },
    {
      "channel": 3,
      "note": 73,
      "start": 57.5327,
      "duration": 0.0518,
      "velocity": 99,
      "chip": "ym2612"
    },
    {
      "channel": 4,
      "note": 81,
      "start": 57.5334,
      "duration": 0.0515,
      "velocity": 99,
      "chip": "ym2612"
    },
    {
      "channel": 0,
      "note": 66,
      "start": 57.5664,
      "duration": 0.2521,
      "velocity": 102,
      "chip": "ym2612"
    },
    {
      "channel": 2,
      "note": 54,
      "start": 57.6084,
      "duration": 0.0194,
      "velocity": 91,
      "chip": "ym2612"
    },
    {
      "channel": 1,
      "note": 66,
      "start": 57.645,
      "duration": 0.2912,
      "velocity": 102,
      "chip": "ym2612"
    },
    {
      "channel": 2,
      "note": 54,
      "start": 57.6455,
      "duration": 0.0134,
      "velocity": 91,
      "chip": "ym2612"
    },
    {
      "channel": 2,
      "note": 54,
      "start": 57.6784,
      "duration": 0.0194,
      "velocity": 91,
      "chip": "ym2612"
    },
    {
      "channel": 3,
      "note": 74,
      "start": 57.6819,
      "duration": 0.0712,
      "velocity": 99,
      "chip": "ym2612"
    },
    {
      "channel": 4,
      "note": 83,
      "start": 57.6826,
      "duration": 0.0709,
      "velocity": 99,
      "chip": "ym2612"
    },
    {
      "channel": 2,
      "note": 54,
      "start": 57.702,
      "duration": 0.0142,
      "velocity": 91,
      "chip": "ym2612"
    },
    {
      "channel": 2,
      "note": 54,
      "start": 57.72,
      "duration": 0.0143,
      "velocity": 91,
      "chip": "ym2612"
    },
    {
      "channel": 2,
      "note": 54,
      "start": 57.7385,
      "duration": 0.0143,
      "velocity": 91,
      "chip": "ym2612"
    },
    {
      "channel": 2,
      "note": 54,
      "start": 57.7559,
      "duration": 0.0183,
      "velocity": 91,
      "chip": "ym2612"
    },
    {
      "channel": 3,
      "note": 73,
      "start": 57.7566,
      "duration": 0.0669,
      "velocity": 99,
      "chip": "ym2612"
    },
    {
      "channel": 4,
      "note": 69,
      "start": 57.7572,
      "duration": 0.0666,
      "velocity": 99,
      "chip": "ym2612"
    },
    {
      "channel": 2,
      "note": 54,
      "start": 57.7931,
      "duration": 0.0139,
      "velocity": 91,
      "chip": "ym2612"
    },
    {
      "channel": 0,
      "note": 68,
      "start": 57.8207,
      "duration": 0.0809,
      "velocity": 102,
      "chip": "ym2612"
    },
    {
      "channel": 3,
      "note": 78,
      "start": 57.8258,
      "duration": 0.111,
      "velocity": 99,
      "chip": "ym2612"
    },
    {
      "channel": 4,
      "note": 73,
      "start": 57.8264,
      "duration": 0.1107,
      "velocity": 99,
      "chip": "ym2612"
    },
    {
      "channel": 0,
      "note": 69,
      "start": 57.919,
      "duration": 0.0942,
      "velocity": 102,
      "chip": "ym2612"
    },
    {
      "channel": 1,
      "note": 68,
      "start": 57.9535,
      "duration": 0.0942,
      "velocity": 102,
      "chip": "ym2612"
    },
    {
      "channel": 3,
      "note": 76,
      "start": 57.9543,
      "duration": 0.0941,
      "velocity": 99,
      "chip": "ym2612"
    },
    {
      "channel": 4,
      "note": 71,
      "start": 57.955,
      "duration": 0.0937,
      "velocity": 99,
      "chip": "ym2612"
    },
    {
      "channel": 0,
      "note": 68,
      "start": 58.0305,
      "duration": 0.1335,
      "velocity": 102,
      "chip": "ym2612"
    },
    {
      "channel": 1,
      "note": 69,
      "start": 58.0651,
      "duration": 0.0328,
      "velocity": 102,
      "chip": "ym2612"
    },
    {
      "channel": 2,
      "note": 52,
      "start": 58.0656,
      "duration": 0.0151,
      "velocity": 91,
      "chip": "ym2612"
    },
    {
      "channel": 3,
      "note": 78,
      "start": 58.0662,
      "duration": 0.1391,
      "velocity": 99,
      "chip": "ym2612"
    },
    {
      "channel": 4,
      "note": 73,
      "start": 58.0668,
      "duration": 0.1388,
      "velocity": 99,
      "chip": "ym2612"
    },
    {
      "channel": 1,
      "note": 68,
      "start": 58.1002,
      "duration": 0.1044,
      "velocity": 102,
      "chip": "ym2612"
    },
    {
      "channel": 2,
      "note": 52,
      "start": 58.1007,
      "duration": 0.0137,
      "velocity": 91,
      "chip": "ym2612"
    },
    {
      "channel": 2,
      "note": 52,
      "start": 58.1332,
      "duration": 0.0146,
      "velocity": 91,
      "chip": "ym2612"
    },
    {
      "channel": 2,
      "note": 52,
      "start": 58.1514,
      "duration": 0.0174,
      "velocity": 91,
      "chip": "ym2612"
    },
    {
      "channel": 0,
      "note": 59,
      "start": 58.1663,
      "duration": 0.0339,
      "velocity": 102,
      "chip": "ym2612"
    },
    {
      "channel": 2,
      "note": 52,
      "start": 58.1728,
      "duration": 0.014,
      "velocity": 91,
      "chip": "ym2612"
    },
    {
      "channel": 2,
      "note": 52,
      "start": 58.1903,
      "duration": 0.0146,
      "velocity": 91,
      "chip": "ym2612"
    },
    {
      "channel": 0,
      "note": 64,
      "start": 58.2024,
      "duration": 0.0658,
      "velocity": 102,
      "chip": "ym2612"
    },
    {
      "channel": 1,
      "note": 59,
      "start": 58.2078,
      "duration": 0.0323,
      "velocity": 102,
      "chip": "ym2612"
    },
    {
      "channel": 2,
      "note": 52,
      "start": 58.2083,
      "duration": 0.0142,
      "velocity": 91,
      "chip": "ym2612"
    },
    {
      "channel": 3,
      "note": 76,
      "start": 58.2089,
      "duration": 0.287,
      "velocity": 99,
      "chip": "ym2612"
    },
    {
      "channel": 4,
      "note": 71,
      "start": 58.2095,
      "duration": 0.2867,
      "velocity": 99,
      "chip": "ym2612"
    },
    {
      "channel": 1,
      "note": 64,
      "start": 58.2424,
      "duration": 0.142,
      "velocity": 102,
      "chip": "ym2612"
    },
    {
      "channel": 2,
      "note": 52,
      "start": 58.2429,
      "duration": 0.0138,
      "velocity": 91,
      "chip": "ym2612"
    },
    {
      "channel": 0,
      "note": 61,
      "start": 58.2703,
      "duration": 0.1904,
      "velocity": 102,
      "chip": "ym2612"
    },
    {
      "channel": 1,
      "note": 61,
      "start": 58.4019,
      "duration": 0.14,
      "velocity": 102,
      "chip": "ym2612"
    },
    {
      "channel": 0,
      "note": 66,
      "start": 58.4781,
      "duration": 0.2405,
      "velocity": 102,
      "chip": "ym2612"
    },
    {
      "channel": 2,
      "note": 54,
      "start": 58.513,
      "duration": 0.0137,
      "velocity": 91,
      "chip": "ym2612"
    },
    {
      "channel": 1,
      "note": 66,
      "start": 58.5458,
      "duration": 0.2876,
      "velocity": 102,
      "chip": "ym2612"
    },
    {
      "channel": 2,
      "note": 54,
      "start": 58.5469,
      "duration": 0.015,
      "velocity": 91,
      "chip": "ym2612"
    },
    {
      "channel": 2,
      "note": 54,
      "start": 58.5824,
      "duration": 0.0151,
      "velocity": 91,
      "chip": "ym2612"
    },
    {
      "channel": 3,
      "note": 80,
      "start": 58.5831,
      "duration": 0.0702,
      "velocity": 99,
      "chip": "ym2612"
    },
    {
      "channel": 4,
      "note": 76,
      "start": 58.5837,
      "duration": 0.07,
      "velocity": 99,
      "chip": "ym2612"
    },
    {
      "channel": 2,
      "note": 54,
      "start": 58.6008,
      "duration": 0.0142,
      "velocity": 91,
      "chip": "ym2612"
    },
    {
      "channel": 2,
      "note": 54,
      "start": 58.6184,
      "duration": 0.0167,
      "velocity": 91,
      "chip": "ym2612"
    },
    {
      "channel": 2,
      "note": 54,
      "start": 58.6385,
      "duration": 0.0144,
      "velocity": 91,
      "chip": "ym2612"
    },
    {
      "channel": 2,
      "note": 54,
      "start": 58.6559,
      "duration": 0.0151,
      "velocity": 91,
      "chip": "ym2612"
    },
    {
      "channel": 3,
      "note": 73,
      "start": 58.6564,
      "duration": 0.0676,
      "velocity": 99,
      "chip": "ym2612"
    },
    {
      "channel": 4,
      "note": 69,
      "start": 58.6571,
      "duration": 0.0673,
      "velocity": 99,
      "chip": "ym2612"
    },
    {
      "channel": 2,
      "note": 54,
      "start": 58.6899,
      "duration": 0.0168,
      "velocity": 91,
      "chip": "ym2612"
    },
    {
      "channel": 0,
      "note": 68,
      "start": 58.7208,
      "duration": 0.0781,
      "velocity": 102,
      "chip": "ym2612"
    },
    {
      "channel": 3,
      "note": 78,
      "start": 58.7268,
      "duration": 0.1073,
      "velocity": 99,
      "chip": "ym2612"
    },
    {
      "channel": 4,
      "note": 73,
      "start": 58.7274,
      "duration": 0.107,
      "velocity": 99,
      "chip": "ym2612"
    },
    {
      "channel": 0,
      "note": 69,
      "start": 58.8162,
      "duration": 0.0962,
      "velocity": 102,
      "chip": "ym2612"
    },
    {
      "channel": 1,
      "note": 68,
      "start": 58.8508,
      "duration": 0.0962,
      "velocity": 102,
      "chip": "ym2612"
    },
    {
      "channel": 3,
      "note": 76,
      "start": 58.8517,
      "duration": 0.0959,
      "velocity": 99,
      "chip": "ym2612"
    },
    {
      "channel": 4,
      "note": 71,
      "start": 58.8523,
      "duration": 0.0956,
      "velocity": 99,
      "chip": "ym2612"
    },
    {
      "channel": 0,
      "note": 71,
      "start": 58.9298,
      "duration": 0.1316,
      "velocity": 102,
      "chip": "ym2612"
    },
    {
      "channel": 1,
      "note": 69,
      "start": 58.9643,
      "duration": 0.0302,
      "velocity": 102,
      "chip": "ym2612"
    },
    {
      "channel": 2,
      "note": 52,
      "start": 58.9648,
      "duration": 0.0146,
      "velocity": 91,
      "chip": "ym2612"
    },
    {
      "channel": 3,
      "note": 78,
      "start": 58.9655,
      "duration": 0.1394,
      "velocity": 99,
      "chip": "ym2612"
    },
    {
      "channel": 4,
      "note": 73,
      "start": 58.9661,
      "duration": 0.1392,
      "velocity": 99,
      "chip": "ym2612"
    },
    {
      "channel": 1,
      "note": 71,
      "start": 58.9974,
      "duration": 0.1069,
      "velocity": 102,
      "chip": "ym2612"
    },
    {
      "channel": 2,
      "note": 52,
      "start": 58.9978,
      "duration": 0.0143,
      "velocity": 91,
      "chip": "ym2612"
    },
    {
      "channel": 2,
      "note": 52,
      "start": 59.0334,
      "duration": 0.0145,
      "velocity": 91,
      "chip": "ym2612"
    },
    {
      "channel": 2,
      "note": 52,
      "start": 59.0513,
      "duration": 0.0147,
      "velocity": 91,
      "chip": "ym2612"
    },
    {
      "channel": 0,
      "note": 68,
      "start": 59.0635,
      "duration": 0.0362,
      "velocity": 102,
      "chip": "ym2612"
    },
    {
      "channel": 2,
      "note": 52,
      "start": 59.0685,
      "duration": 0.0148,
      "velocity": 91,
      "chip": "ym2612"
    },
    {
      "channel": 2,
      "note": 52,
      "start": 59.0868,
      "duration": 0.0178,
      "velocity": 91,
      "chip": "ym2612"
    },
    {
      "channel": 0,
      "note": 68,
      "start": 59.1019,
      "duration": 0.0663,
      "velocity": 102,
      "chip": "ym2612"
    },
    {
      "channel": 1,
      "note": 68,
      "start": 59.1088,
      "duration": 0.0298,
      "velocity": 102,
      "chip": "ym2612"
    },
    {
      "channel": 2,
      "note": 52,
      "start": 59.1093,
      "duration": 0.0141,
      "velocity": 91,
      "chip": "ym2612"
    },
    {
      "channel": 3,
      "note": 80,
      "start": 59.1099,
      "duration": 0.2861,
      "velocity": 99,
      "chip": "ym2612"
    },
    {
      "channel": 4,
      "note": 76,
      "start": 59.1105,
      "duration": 0.2864,
      "velocity": 99,
      "chip": "ym2612"
    },
    {
      "channel": 1,
      "note": 68,
      "start": 59.1416,
      "duration": 0.1426,
      "velocity": 102,
      "chip": "ym2612"
    },
    {
      "channel": 2,
      "note": 52,
      "start": 59.1421,
      "duration": 0.0134,
      "velocity": 91,
      "chip": "ym2612"
    },
    {
      "channel": 0,
      "note": 61,
      "start": 59.1712,
      "duration": 0.1895,
      "velocity": 102,
      "chip": "ym2612"
    },
    {
      "channel": 1,
      "note": 61,
      "start": 59.3016,
      "duration": 0.1429,
      "velocity": 102,
      "chip": "ym2612"
    },
    {
      "channel": 0,
      "note": 66,
      "start": 59.3781,
      "duration": 0.2396,
      "velocity": 102,
      "chip": "ym2612"
    },
    {
      "channel": 2,
      "note": 54,
      "start": 59.4137,
      "duration": 0.0153,
      "velocity": 91,
      "chip": "ym2612"
    },
    {
      "channel": 1,
      "note": 66,
      "start": 59.4472,
      "duration": 0.2884,
      "velocity": 102,
      "chip": "ym2612"
    },
    {
      "channel": 2,
      "note": 54,
      "start": 59.4477,
      "duration": 0.0138,
      "velocity": 91,
      "chip": "ym2612"
    },
    {
      "channel": 2,
      "note": 54,
      "start": 59.481,
      "duration": 0.017,
      "velocity": 91,
      "chip": "ym2612"
    },
    {
      "channel": 3,
      "note": 76,
      "start": 59.4816,
      "duration": 0.07,
      "velocity": 99,
      "chip": "ym2612"
    },
    {
      "channel": 4,
      "note": 71,
      "start": 59.4828,
      "duration": 0.0692,
      "velocity": 99,
      "chip": "ym2612"
    },
    {
      "channel": 2,
      "note": 54,
      "start": 59.5008,
      "duration": 0.0147,
      "velocity": 91,
      "chip": "ym2612"
    },
    {
      "channel": 2,
      "note": 54,
      "start": 59.5188,
      "duration": 0.0143,
      "velocity": 91,
      "chip": "ym2612"
    },
    {
      "channel": 2,
      "note": 54,
      "start": 59.5369,
      "duration": 0.0144,
      "velocity": 91,
      "chip": "ym2612"
    },
    {
      "channel": 2,
      "note": 54,
      "start": 59.5541,
      "duration": 0.0177,
      "velocity": 91,
      "chip": "ym2612"
    },
    {
      "channel": 3,
      "note": 73,
      "start": 59.5547,
      "duration": 0.068,
      "velocity": 99,
      "chip": "ym2612"
    },
    {
      "channel": 4,
      "note": 69,
      "start": 59.5554,
      "duration": 0.0678,
      "velocity": 99,
      "chip": "ym2612"
    },
    {
      "channel": 2,
      "note": 54,
      "start": 59.5915,
      "duration": 0.0142,
      "velocity": 91,
      "chip": "ym2612"
    },
    {
      "channel": 0,
      "note": 68,
      "start": 59.6199,
      "duration": 0.0812,
      "velocity": 102,
      "chip": "ym2612"
    },
    {
      "channel": 3,
      "note": 78,
      "start": 59.6251,
      "duration": 0.1111,
      "velocity": 99,
      "chip": "ym2612"
    },
    {
      "channel": 4,
      "note": 73,
      "start": 59.6257,
      "duration": 0.1108,
      "velocity": 99,
      "chip": "ym2612"
    },
    {
      "channel": 0,
      "note": 69,
      "start": 59.7184,
      "duration": 0.0943,
      "velocity": 102,
      "chip": "ym2612"
    },
    {
      "channel": 1,
      "note": 68,
      "start": 59.7529,
      "duration": 0.0943,
      "velocity": 102,
      "chip": "ym2612"
    },
    {
      "channel": 3,
      "note": 76,
      "start": 59.7538,
      "duration": 0.094,
      "velocity": 99,
      "chip": "ym2612"
    },
    {
      "channel": 4,
      "note": 71,
      "start": 59.7545,
      "duration": 0.0937,
      "velocity": 99,
      "chip": "ym2612"
    },
    {
      "channel": 0,
      "note": 68,
      "start": 59.83,
      "duration": 0.1339,
      "velocity": 102,
      "chip": "ym2612"
    },
    {
      "channel": 1,
      "note": 69,
      "start": 59.8646,
      "duration": 0.0318,
      "velocity": 102,
      "chip": "ym2612"
    },
    {
      "channel": 2,
      "note": 52,
      "start": 59.8651,
      "duration": 0.0145,
      "velocity": 91,
      "chip": "ym2612"
    },
    {
      "channel": 3,
      "note": 78,
      "start": 59.8657,
      "duration": 0.14,
      "velocity": 99,
      "chip": "ym2612"
    },
    {
      "channel": 4,
      "note": 73,
      "start": 59.8663,
      "duration": 0.1398,
      "velocity": 99,
      "chip": "ym2612"
    },
    {
      "channel": 1,
      "note": 68,
      "start": 59.8988,
      "duration": 0.1063,
      "velocity": 102,
      "chip": "ym2612"
    },
    {
      "channel": 2,
      "note": 52,
      "start": 59.8993,
      "duration": 0.0138,
      "velocity": 91,
      "chip": "ym2612"
    },
    {
      "channel": 2,
      "note": 52,
      "start": 59.932,
      "duration": 0.0149,
      "velocity": 91,
      "chip": "ym2612"
    },
    {
      "channel": 2,
      "note": 52,
      "start": 59.9507,
      "duration": 0.018,
      "velocity": 91,
      "chip": "ym2612"
    },
    {
      "channel": 0,
      "note": 59,
      "start": 59.9661,
      "duration": 0.0345,
      "velocity": 102,
      "chip": "ym2612"
    },
    {
      "channel": 2,
      "note": 52,
      "start": 59.9727,
      "duration": 0.0144,
      "velocity": 91,
      "chip": "ym2612"
    },
    {
      "channel": 2,
      "note": 52,
      "start": 59.9906,
      "duration": 0.0147,
      "velocity": 91,
      "chip": "ym2612"
    },
    {
      "channel": 0,
      "note": 64,
      "start": 60.0027,
      "duration": 0.0665,
      "velocity": 102,
      "chip": "ym2612"
    },
    {
      "channel": 1,
      "note": 59,
      "start": 60.0078,
      "duration": 0.0329,
      "velocity": 102,
      "chip": "ym2612"
    },
    {
      "channel": 2,
      "note": 52,
      "start": 60.0083,
      "duration": 0.0149,
      "velocity": 91,
      "chip": "ym2612"
    },
    {
      "channel": 3,
      "note": 76,
      "start": 60.0089,
      "duration": 0.0652,
      "velocity": 99,
      "chip": "ym2612"
    },
    {
      "channel": 4,
      "note": 71,
      "start": 60.0095,
      "duration": 0.065,
      "velocity": 99,
      "chip": "ym2612"
    },
    {
      "channel": 1,
      "note": 64,
      "start": 60.0435,
      "duration": 0.1412,
      "velocity": 102,
      "chip": "ym2612"
    },
    {
      "channel": 2,
      "note": 52,
      "start": 60.044,
      "duration": 0.0135,
      "velocity": 91,
      "chip": "ym2612"
    },
    {
      "channel": 0,
      "note": 62,
      "start": 60.0715,
      "duration": 0.0787,
      "velocity": 102,
      "chip": "ym2612"
    },
    {
      "channel": 3,
      "note": 80,
      "start": 60.0764,
      "duration": 0.1095,
      "velocity": 99,
      "chip": "ym2612"
    },
    {
      "channel": 4,
      "note": 76,
      "start": 60.0771,
      "duration": 0.1091,
      "velocity": 99,
      "chip": "ym2612"
    },
    {
      "channel": 0,
      "note": 64,
      "start": 60.1675,
      "duration": 0.0935,
      "velocity": 102,
      "chip": "ym2612"
    },
    {
      "channel": 1,
      "note": 62,
      "start": 60.2026,
      "duration": 0.0929,
      "velocity": 102,
      "chip": "ym2612"
    },
    {
      "channel": 3,
      "note": 78,
      "start": 60.2034,
      "duration": 0.0926,
      "velocity": 99,
      "chip": "ym2612"
    },
    {
      "channel": 4,
      "note": 74,
      "start": 60.2041,
      "duration": 0.0923,
      "velocity": 99,
      "chip": "ym2612"
    },
    {
      "channel": 0,
      "note": 66,
      "start": 60.2783,
      "duration": 0.203,
      "velocity": 102,
      "chip": "ym2612"
    },
    {
      "channel": 1,
      "note": 64,
      "start": 60.3128,
      "duration": 0.0303,
      "velocity": 102,
      "chip": "ym2612"
    },
    {
      "channel": 2,
      "note": 50,
      "start": 60.3135,
      "duration": 0.0145,
      "velocity": 91,
      "chip": "ym2612"
    },
    {
      "channel": 3,
      "note": 80,
      "start": 60.314,
      "duration": 0.2085,
      "velocity": 99,
      "chip": "ym2612"
    },
    {
      "channel": 4,
      "note": 76,
      "start": 60.3147,
      "duration": 0.2083,
      "velocity": 99,
      "chip": "ym2612"
    },
    {
      "channel": 1,
      "note": 66,
      "start": 60.3465,
      "duration": 0.1393,
      "velocity": 102,
      "chip": "ym2612"
    },
    {
      "channel": 2,
      "note": 50,
      "start": 60.3469,
      "duration": 0.0157,
      "velocity": 91,
      "chip": "ym2612"
    },
    {
      "channel": 2,
      "note": 50,
      "start": 60.381,
      "duration": 0.0141,
      "velocity": 91,
      "chip": "ym2612"
    },
    {
      "channel": 2,
      "note": 50,
      "start": 60.3986,
      "duration": 0.0153,
      "velocity": 91,
      "chip": "ym2612"
    },
    {
      "channel": 2,
      "note": 50,
      "start": 60.4167,
      "duration": 0.0178,
      "velocity": 91,
      "chip": "ym2612"
    },
    {
      "channel": 2,
      "note": 50,
      "start": 60.437,
      "duration": 0.0151,
      "velocity": 91,
      "chip": "ym2612"
    },
    {
      "channel": 2,
      "note": 50,
      "start": 60.4549,
      "duration": 0.0144,
      "velocity": 91,
      "chip": "ym2612"
    },
    {
      "channel": 0,
      "note": 62,
      "start": 60.4835,
      "duration": 0.0342,
      "velocity": 102,
      "chip": "ym2612"
    },
    {
      "channel": 1,
      "note": 66,
      "start": 60.489,
      "duration": 0.033,
      "velocity": 102,
      "chip": "ym2612"
    },
    {
      "channel": 2,
      "note": 50,
      "start": 60.4896,
      "duration": 0.0165,
      "velocity": 91,
      "chip": "ym2612"
    },
    {
      "channel": 0,
      "note": 64,
      "start": 60.5199,
      "duration": 0.078,
      "velocity": 102,
      "chip": "ym2612"
    },
    {
      "channel": 1,
      "note": 62,
      "start": 60.5243,
      "duration": 0.108,
      "velocity": 102,
      "chip": "ym2612"
    },
    {
      "channel": 3,
      "note": 81,
      "start": 60.5251,
      "duration": 0.1078,
      "velocity": 99,
      "chip": "ym2612"
    },
    {
      "channel": 4,
      "note": 78,
      "start": 60.5258,
      "duration": 0.1075,
      "velocity": 99,
      "chip": "ym2612"
    },
    {
      "channel": 0,
      "note": 66,
      "start": 60.6151,
      "duration": 0.0961,
      "velocity": 102,
      "chip": "ym2612"
    },
    {
      "channel": 1,
      "note": 64,
      "start": 60.6497,
      "duration": 0.0961,
      "velocity": 102,
      "chip": "ym2612"
    },
    {
      "channel": 2,
      "note": 50,
      "start": 60.6502,
      "duration": 0.0958,
      "velocity": 91,
      "chip": "ym2612"
    },
    {
      "channel": 3,
      "note": 80,
      "start": 60.6508,
      "duration": 0.0956,
      "velocity": 99,
      "chip": "ym2612"
    },
    {
      "channel": 4,
      "note": 76,
      "start": 60.6514,
      "duration": 0.0953,
      "velocity": 99,
      "chip": "ym2612"
    },
    {
      "channel": 0,
      "note": 68,
      "start": 60.7286,
      "duration": 0.1712,
      "velocity": 102,
      "chip": "ym2612"
    },
    {
      "channel": 1,
      "note": 66,
      "start": 60.7631,
      "duration": 0.0305,
      "velocity": 102,
      "chip": "ym2612"
    },
    {
      "channel": 2,
      "note": 52,
      "start": 60.7637,
      "duration": 0.0152,
      "velocity": 91,
      "chip": "ym2612"
    },
    {
      "channel": 3,
      "note": 81,
      "start": 60.7642,
      "duration": 0.1411,
      "velocity": 99,
      "chip": "ym2612"
    },
    {
      "channel": 4,
      "note": 78,
      "start": 60.7649,
      "duration": 0.1408,
      "velocity": 99,
      "chip": "ym2612"
    },
    {
      "channel": 1,
      "note": 68,
      "start": 60.7966,
      "duration": 0.1425,
      "velocity": 102,
      "chip": "ym2612"
    },
    {
      "channel": 2,
      "note": 52,
      "start": 60.7971,
      "duration": 0.0143,
      "velocity": 91,
      "chip": "ym2612"
    },
    {
      "channel": 2,
      "note": 52,
      "start": 60.8342,
      "duration": 0.0146,
      "velocity": 91,
      "chip": "ym2612"
    },
    {
      "channel": 2,
      "note": 52,
      "start": 60.8523,
      "duration": 0.0145,
      "velocity": 91,
      "chip": "ym2612"
    },
    {
      "channel": 2,
      "note": 52,
      "start": 60.8696,
      "duration": 0.0148,
      "velocity": 91,
      "chip": "ym2612"
    },
    {
      "channel": 2,
      "note": 52,
      "start": 60.8875,
      "duration": 0.0175,
      "velocity": 91,
      "chip": "ym2612"
    },
    {
      "channel": 0,
      "note": 64,
      "start": 60.9024,
      "duration": 0.2597,
      "velocity": 102,
      "chip": "ym2612"
    },
    {
      "channel": 2,
      "note": 52,
      "start": 60.9093,
      "duration": 0.0148,
      "velocity": 91,
      "chip": "ym2612"
    },
    {
      "channel": 3,
      "note": 83,
      "start": 60.9098,
      "duration": 0.2874,
      "velocity": 99,
      "chip": "ym2612"
    },
    {
      "channel": 4,
      "note": 80,
      "start": 60.9105,
      "duration": 0.2876,
      "velocity": 99,
      "chip": "ym2612"
    },
    {
      "channel": 1,
      "note": 64,
      "start": 60.9419,
      "duration": 0.3049,
      "velocity": 102,
      "chip": "ym2612"
    },
    {
      "channel": 2,
      "note": 52,
      "start": 60.9424,
      "duration": 0.0136,
      "velocity": 91,
      "chip": "ym2612"
    },
    {
      "channel": 2,
      "note": 56,
      "start": 61.1026,
      "duration": 0.0943,
      "velocity": 91,
      "chip": "ym2612"
    },
    {
      "channel": 0,
      "note": 66,
      "start": 61.1796,
      "duration": 0.6999,
      "velocity": 102,
      "chip": "ym2612"
    },
    {
      "channel": 2,
      "note": 54,
      "start": 61.2146,
      "duration": 0.0159,
      "velocity": 91,
      "chip": "ym2612"
    },
    {
      "channel": 3,
      "note": 88,
      "start": 61.2154,
      "duration": 0.4358,
      "velocity": 99,
      "chip": "ym2612"
    },
    {
      "channel": 4,
      "note": 83,
      "start": 61.2161,
      "duration": 0.4355,
      "velocity": 99,
      "chip": "ym2612"
    },
    {
      "channel": 1,
      "note": 66,
      "start": 61.2507,
      "duration": 0.7302,
      "velocity": 102,
      "chip": "ym2612"
    },
    {
      "channel": 2,
      "note": 54,
      "start": 61.2512,
      "duration": 0.0117,
      "velocity": 91,
      "chip": "ym2612"
    },
    {
      "channel": 2,
      "note": 54,
      "start": 61.2666,
      "duration": 0.0082,
      "velocity": 91,
      "chip": "ym2612"
    },
    {
      "channel": 2,
      "note": 54,
      "start": 61.2774,
      "duration": 0.0063,
      "velocity": 91,
      "chip": "ym2612"
    },
    {
      "channel": 2,
      "note": 54,
      "start": 61.2866,
      "duration": 0.0173,
      "velocity": 91,
      "chip": "ym2612"
    },
    {
      "channel": 2,
      "note": 54,
      "start": 61.3235,
      "duration": 0.0126,
      "velocity": 91,
      "chip": "ym2612"
    },
    {
      "channel": 2,
      "note": 54,
      "start": 61.3388,
      "duration": 0.0084,
      "velocity": 91,
      "chip": "ym2612"
    },
    {
      "channel": 2,
      "note": 54,
      "start": 61.3496,
      "duration": 0.0064,
      "velocity": 91,
      "chip": "ym2612"
    },
    {
      "channel": 2,
      "note": 54,
      "start": 61.3589,
      "duration": 0.0177,
      "velocity": 91,
      "chip": "ym2612"
    },
    {
      "channel": 2,
      "note": 54,
      "start": 61.3956,
      "duration": 0.0144,
      "velocity": 91,
      "chip": "ym2612"
    },
    {
      "channel": 2,
      "note": 52,
      "start": 61.5571,
      "duration": 0.0938,
      "velocity": 91,
      "chip": "ym2612"
    },
    {
      "channel": 2,
      "note": 54,
      "start": 61.6683,
      "duration": 0.015,
      "velocity": 91,
      "chip": "ym2612"
    },
    {
      "channel": 3,
      "note": 85,
      "start": 61.6688,
      "duration": 0.3619,
      "velocity": 99,
      "chip": "ym2612"
    },
    {
      "channel": 4,
      "note": 81,
      "start": 61.6695,
      "duration": 0.3617,
      "velocity": 99,
      "chip": "ym2612"
    },
    {
      "channel": 2,
      "note": 54,
      "start": 61.705,
      "duration": 0.0123,
      "velocity": 91,
      "chip": "ym2612"
    },
    {
      "channel": 2,
      "note": 54,
      "start": 61.7207,
      "duration": 0.0087,
      "velocity": 91,
      "chip": "ym2612"
    },
    {
      "channel": 2,
      "note": 54,
      "start": 61.7318,
      "duration": 0.0064,
      "velocity": 91,
      "chip": "ym2612"
    },
    {
      "channel": 2,
      "note": 54,
      "start": 61.7414,
      "duration": 0.0151,
      "velocity": 91,
      "chip": "ym2612"
    },
    {
      "channel": 2,
      "note": 54,
      "start": 61.7785,
      "duration": 0.0125,
      "velocity": 91,
      "chip": "ym2612"
    },
    {
      "channel": 2,
      "note": 54,
      "start": 61.7942,
      "duration": 0.0087,
      "velocity": 91,
      "chip": "ym2612"
    },
    {
      "channel": 2,
      "note": 54,
      "start": 61.8053,
      "duration": 0.0065,
      "velocity": 91,
      "chip": "ym2612"
    },
    {
      "channel": 2,
      "note": 54,
      "start": 61.8146,
      "duration": 0.0698,
      "velocity": 91,
      "chip": "ym2612"
    },
    {
      "channel": 0,
      "note": 61,
      "start": 61.8819,
      "duration": 0.1439,
      "velocity": 102,
      "chip": "ym2612"
    },
    {
      "channel": 2,
      "note": 52,
      "start": 61.8875,
      "duration": 0.143,
      "velocity": 91,
      "chip": "ym2612"
    },
    {
      "channel": 1,
      "note": 61,
      "start": 61.9988,
      "duration": 0.0642,
      "velocity": 102,
      "chip": "ym2612"
    },
    {
      "channel": 0,
      "note": 66,
      "start": 62.028,
      "duration": 0.2118,
      "velocity": 102,
      "chip": "ym2612"
    },
    {
      "channel": 2,
      "note": 54,
      "start": 62.0337,
      "duration": 0.0141,
      "velocity": 91,
      "chip": "ym2612"
    },
    {
      "channel": 1,
      "note": 66,
      "start": 62.0667,
      "duration": 0.2875,
      "velocity": 102,
      "chip": "ym2612"
    },
    {
      "channel": 2,
      "note": 54,
      "start": 62.0672,
      "duration": 0.0156,
      "velocity": 91,
      "chip": "ym2612"
    },
    {
      "channel": 2,
      "note": 54,
      "start": 62.1036,
      "duration": 0.0144,
      "velocity": 91,
      "chip": "ym2612"
    },
    {
      "channel": 3,
      "note": 85,
      "start": 62.1043,
      "duration": 0.0705,
      "velocity": 99,
      "chip": "ym2612"
    },
    {
      "channel": 4,
      "note": 81,
      "start": 62.1049,
      "duration": 0.0702,
      "velocity": 99,
      "chip": "ym2612"
    },
    {
      "channel": 2,
      "note": 54,
      "start": 62.1213,
      "duration": 0.0139,
      "velocity": 91,
      "chip": "ym2612"
    },
    {
      "channel": 2,
      "note": 54,
      "start": 62.1386,
      "duration": 0.0177,
      "velocity": 91,
      "chip": "ym2612"
    },
    {
      "channel": 2,
      "note": 54,
      "start": 62.1596,
      "duration": 0.0148,
      "velocity": 91,
      "chip": "ym2612"
    },
    {
      "channel": 2,
      "note": 54,
      "start": 62.1772,
      "duration": 0.0149,
      "velocity": 91,
      "chip": "ym2612"
    },
    {
      "channel": 3,
      "note": 73,
      "start": 62.1778,
      "duration": 0.0669,
      "velocity": 99,
      "chip": "ym2612"
    },
    {
      "channel": 4,
      "note": 69,
      "start": 62.1784,
      "duration": 0.0666,
      "velocity": 99,
      "chip": "ym2612"
    },
    {
      "channel": 2,
      "note": 54,
      "start": 62.2107,
      "duration": 0.0166,
      "velocity": 91,
      "chip": "ym2612"
    },
    {
      "channel": 0,
      "note": 68,
      "start": 62.2419,
      "duration": 0.0778,
      "velocity": 102,
      "chip": "ym2612"
    },
    {
      "channel": 3,
      "note": 78,
      "start": 62.247,
      "duration": 0.1078,
      "velocity": 99,
      "chip": "ym2612"
    },
    {
      "channel": 4,
      "note": 73,
      "start": 62.2476,
      "duration": 0.1075,
      "velocity": 99,
      "chip": "ym2612"
    },
    {
      "channel": 0,
      "note": 69,
      "start": 62.337,
      "duration": 0.0964,
      "velocity": 102,
      "chip": "ym2612"
    },
    {
      "channel": 1,
      "note": 68,
      "start": 62.3716,
      "duration": 0.0964,
      "velocity": 102,
      "chip": "ym2612"
    },
    {
      "channel": 3,
      "note": 76,
      "start": 62.3724,
      "duration": 0.0961,
      "velocity": 99,
      "chip": "ym2612"
    },
    {
      "channel": 4,
      "note": 71,
      "start": 62.373,
      "duration": 0.0959,
      "velocity": 99,
      "chip": "ym2612"
    },
    {
      "channel": 0,
      "note": 68,
      "start": 62.4508,
      "duration": 0.1326,
      "velocity": 102,
      "chip": "ym2612"
    },
    {
      "channel": 1,
      "note": 69,
      "start": 62.4852,
      "duration": 0.0299,
      "velocity": 102,
      "chip": "ym2612"
    },
    {
      "channel": 2,
      "note": 52,
      "start": 62.4858,
      "duration": 0.0146,
      "velocity": 91,
      "chip": "ym2612"
    },
    {
      "channel": 3,
      "note": 78,
      "start": 62.4864,
      "duration": 0.1396,
      "velocity": 99,
      "chip": "ym2612"
    },
    {
      "channel": 4,
      "note": 73,
      "start": 62.487,
      "duration": 0.1394,
      "velocity": 99,
      "chip": "ym2612"
    },
    {
      "channel": 1,
      "note": 68,
      "start": 62.5181,
      "duration": 0.1073,
      "velocity": 102,
      "chip": "ym2612"
    },
    {
      "channel": 2,
      "note": 52,
      "start": 62.5185,
      "duration": 0.0135,
      "velocity": 91,
      "chip": "ym2612"
    },
    {
      "channel": 2,
      "note": 52,
      "start": 62.5553,
      "duration": 0.0146,
      "velocity": 91,
      "chip": "ym2612"
    },
    {
      "channel": 2,
      "note": 52,
      "start": 62.5734,
      "duration": 0.015,
      "velocity": 91,
      "chip": "ym2612"
    },
    {
      "channel": 0,
      "note": 59,
      "start": 62.5855,
      "duration": 0.0345,
      "velocity": 102,
      "chip": "ym2612"
    },
    {
      "channel": 2,
      "note": 52,
      "start": 62.5913,
      "duration": 0.014,
      "velocity": 91,
      "chip": "ym2612"
    },
    {
      "channel": 2,
      "note": 52,
      "start": 62.6087,
      "duration": 0.0169,
      "velocity": 91,
      "chip": "ym2612"
    },
    {
      "channel": 0,
      "note": 64,
      "start": 62.6231,
      "duration": 0.0671,
      "velocity": 102,
      "chip": "ym2612"
    },
    {
      "channel": 1,
      "note": 59,
      "start": 62.63,
      "duration": 0.0305,
      "velocity": 102,
      "chip": "ym2612"
    },
    {
      "channel": 2,
      "note": 52,
      "start": 62.6305,
      "duration": 0.0146,
      "velocity": 91,
      "chip": "ym2612"
    },
    {
      "channel": 3,
      "note": 76,
      "start": 62.6311,
      "duration": 0.2877,
      "velocity": 99,
      "chip": "ym2612"
    },
    {
      "channel": 4,
      "note": 71,
      "start": 62.6317,
      "duration": 0.2876,
      "velocity": 99,
      "chip": "ym2612"
    },
    {
      "channel": 1,
      "note": 64,
      "start": 62.6639,
      "duration": 0.1433,
      "velocity": 102,
      "chip": "ym2612"
    },
    {
      "channel": 2,
      "note": 52,
      "start": 62.6644,
      "duration": 0.0134,
      "velocity": 91,
      "chip": "ym2612"
    },
    {
      "channel": 0,
      "note": 61,
      "start": 62.693,
      "duration": 0.1908,
      "velocity": 102,
      "chip": "ym2612"
    },
    {
      "channel": 1,
      "note": 61,
      "start": 62.8246,
      "duration": 0.1429,
      "velocity": 102,
      "chip": "ym2612"
    },
    {
      "channel": 0,
      "note": 66,
      "start": 62.9012,
      "duration": 0.2393,
      "velocity": 102,
      "chip": "ym2612"
    },
    {
      "channel": 2,
      "note": 54,
      "start": 62.936,
      "duration": 0.0161,
      "velocity": 91,
      "chip": "ym2612"
    },
    {
      "channel": 1,
      "note": 66,
      "start": 62.9706,
      "duration": 0.2878,
      "velocity": 102,
      "chip": "ym2612"
    },
    {
      "channel": 2,
      "note": 54,
      "start": 62.9711,
      "duration": 0.0143,
      "velocity": 91,
      "chip": "ym2612"
    },
    {
      "channel": 2,
      "note": 54,
      "start": 63.0043,
      "duration": 0.0172,
      "velocity": 91,
      "chip": "ym2612"
    },
    {
      "channel": 3,
      "note": 80,
      "start": 63.0049,
      "duration": 0.0702,
      "velocity": 99,
      "chip": "ym2612"
    },
    {
      "channel": 4,
      "note": 76,
      "start": 63.0059,
      "duration": 0.0696,
      "velocity": 99,
      "chip": "ym2612"
    },
    {
      "channel": 2,
      "note": 54,
      "start": 63.0241,
      "duration": 0.0143,
      "velocity": 91,
      "chip": "ym2612"
    },
    {
      "channel": 2,
      "note": 54,
      "start": 63.0419,
      "duration": 0.0143,
      "velocity": 91,
      "chip": "ym2612"
    },
    {
      "channel": 2,
      "note": 54,
      "start": 63.06,
      "duration": 0.0148,
      "velocity": 91,
      "chip": "ym2612"
    },
    {
      "channel": 2,
      "note": 54,
      "start": 63.0776,
      "duration": 0.018,
      "velocity": 91,
      "chip": "ym2612"
    },
    {
      "channel": 3,
      "note": 73,
      "start": 63.0782,
      "duration": 0.0677,
      "velocity": 99,
      "chip": "ym2612"
    },
    {
      "channel": 4,
      "note": 69,
      "start": 63.0788,
      "duration": 0.0674,
      "velocity": 99,
      "chip": "ym2612"
    },
    {
      "channel": 2,
      "note": 54,
      "start": 63.1146,
      "duration": 0.0142,
      "velocity": 91,
      "chip": "ym2612"
    },
    {
      "channel": 0,
      "note": 68,
      "start": 63.1431,
      "duration": 0.0807,
      "velocity": 102,
      "chip": "ym2612"
    },
    {
      "channel": 3,
      "note": 78,
      "start": 63.1482,
      "duration": 0.1107,
      "velocity": 99,
      "chip": "ym2612"
    },
    {
      "channel": 4,
      "note": 73,
      "start": 63.1488,
      "duration": 0.1105,
      "velocity": 99,
      "chip": "ym2612"
    },
    {
      "channel": 0,
      "note": 69,
      "start": 63.2411,
      "duration": 0.0941,
      "velocity": 102,
      "chip": "ym2612"
    },
    {
      "channel": 1,
      "note": 68,
      "start": 63.2757,
      "duration": 0.0941,
      "velocity": 102,
      "chip": "ym2612"
    },
    {
      "channel": 3,
      "note": 76,
      "start": 63.2766,
      "duration": 0.0938,
      "velocity": 99,
      "chip": "ym2612"
    },
    {
      "channel": 4,
      "note": 71,
      "start": 63.2772,
      "duration": 0.0935,
      "velocity": 99,
      "chip": "ym2612"
    },
    {
      "channel": 0,
      "note": 71,
      "start": 63.3526,
      "duration": 0.1334,
      "velocity": 102,
      "chip": "ym2612"
    },
    {
      "channel": 1,
      "note": 69,
      "start": 63.3871,
      "duration": 0.0322,
      "velocity": 102,
      "chip": "ym2612"
    },
    {
      "channel": 2,
      "note": 52,
      "start": 63.3876,
      "duration": 0.0143,
      "velocity": 91,
      "chip": "ym2612"
    },
    {
      "channel": 3,
      "note": 78,
      "start": 63.3882,
      "duration": 0.1402,
      "velocity": 99,
      "chip": "ym2612"
    },
    {
      "channel": 4,
      "note": 73,
      "start": 63.3888,
      "duration": 0.14,
      "velocity": 99,
      "chip": "ym2612"
    },
    {
      "channel": 1,
      "note": 71,
      "start": 63.4216,
      "duration": 0.1062,
      "velocity": 102,
      "chip": "ym2612"
    },
    {
      "channel": 2,
      "note": 52,
      "start": 63.4221,
      "duration": 0.0135,
      "velocity": 91,
      "chip": "ym2612"
    },
    {
      "channel": 2,
      "note": 52,
      "start": 63.4546,
      "duration": 0.0145,
      "velocity": 91,
      "chip": "ym2612"
    },
    {
      "channel": 2,
      "note": 52,
      "start": 63.473,
      "duration": 0.0183,
      "velocity": 91,
      "chip": "ym2612"
    },
    {
      "channel": 0,
      "note": 68,
      "start": 63.4883,
      "duration": 0.035,
      "velocity": 102,
      "chip": "ym2612"
    },
    {
      "channel": 2,
      "note": 52,
      "start": 63.4954,
      "duration": 0.0141,
      "velocity": 91,
      "chip": "ym2612"
    },
    {
      "channel": 2,
      "note": 52,
      "start": 63.5134,
      "duration": 0.0147,
      "velocity": 91,
      "chip": "ym2612"
    },
    {
      "channel": 0,
      "note": 68,
      "start": 63.5256,
      "duration": 0.0671,
      "velocity": 102,
      "chip": "ym2612"
    },
    {
      "channel": 1,
      "note": 68,
      "start": 63.5306,
      "duration": 0.0327,
      "velocity": 102,
      "chip": "ym2612"
    },
    {
      "channel": 2,
      "note": 52,
      "start": 63.5311,
      "duration": 0.015,
      "velocity": 91,
      "chip": "ym2612"
    },
    {
      "channel": 3,
      "note": 80,
      "start": 63.5317,
      "duration": 0.2894,
      "velocity": 99,
      "chip": "ym2612"
    },
    {
      "channel": 4,
      "note": 76,
      "start": 63.5323,
      "duration": 0.2892,
      "velocity": 99,
      "chip": "ym2612"
    },
    {
      "channel": 1,
      "note": 68,
      "start": 63.5666,
      "duration": 0.1418,
      "velocity": 102,
      "chip": "ym2612"
    },
    {
      "channel": 2,
      "note": 52,
      "start": 63.5671,
      "duration": 0.014,
      "velocity": 91,
      "chip": "ym2612"
    },
    {
      "channel": 0,
      "note": 61,
      "start": 63.5949,
      "duration": 0.1912,
      "velocity": 102,
      "chip": "ym2612"
    },
    {
      "channel": 1,
      "note": 61,
      "start": 63.7258,
      "duration": 0.1423,
      "velocity": 102,
      "chip": "ym2612"
    },
    {
      "channel": 0,
      "note": 66,
      "start": 63.8034,
      "duration": 0.2422,
      "velocity": 102,
      "chip": "ym2612"
    },
    {
      "channel": 2,
      "note": 54,
      "start": 63.8383,
      "duration": 0.0146,
      "velocity": 91,
      "chip": "ym2612"
    },
    {
      "channel": 1,
      "note": 66,
      "start": 63.8714,
      "duration": 0.2898,
      "velocity": 102,
      "chip": "ym2612"
    },
    {
      "channel": 2,
      "note": 54,
      "start": 63.8719,
      "duration": 0.0163,
      "velocity": 91,
      "chip": "ym2612"
    },
    {
      "channel": 2,
      "note": 54,
      "start": 63.9083,
      "duration": 0.0147,
      "velocity": 91,
      "chip": "ym2612"
    },
    {
      "channel": 3,
      "note": 76,
      "start": 63.9088,
      "duration": 0.0722,
      "velocity": 99,
      "chip": "ym2612"
    },
    {
      "channel": 4,
      "note": 71,
      "start": 63.9095,
      "duration": 0.072,
      "velocity": 99,
      "chip": "ym2612"
    },
    {
      "channel": 2,
      "note": 54,
      "start": 63.9267,
      "duration": 0.0147,
      "velocity": 91,
      "chip": "ym2612"
    },
    {
      "channel": 2,
      "note": 54,
      "start": 63.9451,
      "duration": 0.0173,
      "velocity": 91,
      "chip": "ym2612"
    },
    {
      "channel": 2,
      "note": 54,
      "start": 63.9661,
      "duration": 0.0146,
      "velocity": 91,
      "chip": "ym2612"
    },
    {
      "channel": 2,
      "note": 54,
      "start": 63.9835,
      "duration": 0.0151,
      "velocity": 91,
      "chip": "ym2612"
    },
    {
      "channel": 3,
      "note": 73,
      "start": 63.9841,
      "duration": 0.0664,
      "velocity": 99,
      "chip": "ym2612"
    },
    {
      "channel": 4,
      "note": 69,
      "start": 63.9847,
      "duration": 0.0661,
      "velocity": 99,
      "chip": "ym2612"
    },
    {
      "channel": 2,
      "note": 54,
      "start": 64.0171,
      "duration": 0.0162,
      "velocity": 91,
      "chip": "ym2612"
    },
    {
      "channel": 0,
      "note": 68,
      "start": 64.0478,
      "duration": 0.0789,
      "velocity": 102,
      "chip": "ym2612"
    },
    {
      "channel": 3,
      "note": 78,
      "start": 64.0532,
      "duration": 0.1086,
      "velocity": 99,
      "chip": "ym2612"
    },
    {
      "channel": 4,
      "note": 73,
      "start": 64.0539,
      "duration": 0.1083,
      "velocity": 99,
      "chip": "ym2612"
    },
    {
      "channel": 0,
      "note": 69,
      "start": 64.1441,
      "duration": 0.0965,
      "velocity": 102,
      "chip": "ym2612"
    },
    {
      "channel": 1,
      "note": 68,
      "start": 64.1785,
      "duration": 0.0965,
      "velocity": 102,
      "chip": "ym2612"
    },
    {
      "channel": 3,
      "note": 76,
      "start": 64.1794,
      "duration": 0.0963,
      "velocity": 99,
      "chip": "ym2612"
    },
    {
      "channel": 4,
      "note": 71,
      "start": 64.1801,
      "duration": 0.0959,
      "velocity": 99,
      "chip": "ym2612"
    },
    {
      "channel": 0,
      "note": 68,
      "start": 64.2579,
      "duration": 0.1329,
      "velocity": 102,
      "chip": "ym2612"
    },
    {
      "channel": 1,
      "note": 69,
      "start": 64.2924,
      "duration": 0.0298,
      "velocity": 102,
      "chip": "ym2612"
    },
    {
      "channel": 2,
      "note": 52,
      "start": 64.2929,
      "duration": 0.0146,
      "velocity": 91,
      "chip": "ym2612"
    },
    {
      "channel": 3,
      "note": 78,
      "start": 64.2935,
      "duration": 0.1403,
      "velocity": 99,
      "chip": "ym2612"
    },
    {
      "channel": 4,
      "note": 73,
      "start": 64.2941,
      "duration": 0.1401,
      "velocity": 99,
      "chip": "ym2612"
    },
    {
      "channel": 1,
      "note": 68,
      "start": 64.3251,
      "duration": 0.1081,
      "velocity": 102,
      "chip": "ym2612"
    },
    {
      "channel": 2,
      "note": 52,
      "start": 64.3256,
      "duration": 0.014,
      "velocity": 91,
      "chip": "ym2612"
    },
    {
      "channel": 2,
      "note": 52,
      "start": 64.3629,
      "duration": 0.0142,
      "velocity": 91,
      "chip": "ym2612"
    },
    {
      "channel": 2,
      "note": 52,
      "start": 64.3805,
      "duration": 0.0149,
      "velocity": 91,
      "chip": "ym2612"
    },
    {
      "channel": 0,
      "note": 59,
      "start": 64.3929,
      "duration": 0.0342,
      "velocity": 102,
      "chip": "ym2612"
    },
    {
      "channel": 2,
      "note": 52,
      "start": 64.3983,
      "duration": 0.0142,
      "velocity": 91,
      "chip": "ym2612"
    },
    {
      "channel": 2,
      "note": 52,
      "start": 64.4162,
      "duration": 0.0173,
      "velocity": 91,
      "chip": "ym2612"
    },
    {
      "channel": 0,
      "note": 64,
      "start": 64.4305,
      "duration": 0.0662,
      "velocity": 102,
      "chip": "ym2612"
    },
    {
      "channel": 1,
      "note": 59,
      "start": 64.4379,
      "duration": 0.0301,
      "velocity": 102,
      "chip": "ym2612"
    },
    {
      "channel": 2,
      "note": 52,
      "start": 64.4384,
      "duration": 0.0144,
      "velocity": 91,
      "chip": "ym2612"
    },
    {
      "channel": 3,
      "note": 76,
      "start": 64.439,
      "duration": 0.0644,
      "velocity": 99,
      "chip": "ym2612"
    },
    {
      "channel": 4,
      "note": 71,
      "start": 64.4396,
      "duration": 0.0642,
      "velocity": 99,
      "chip": "ym2612"
    },
    {
      "channel": 1,
      "note": 64,
      "start": 64.471,
      "duration": 0.1436,
      "velocity": 102,
      "chip": "ym2612"
    },
    {
      "channel": 2,
      "note": 52,
      "start": 64.4715,
      "duration": 0.0135,
      "velocity": 91,
      "chip": "ym2612"
    },
    {
      "channel": 0,
      "note": 62,
      "start": 64.4994,
      "duration": 0.0806,
      "velocity": 102,
      "chip": "ym2612"
    },
    {
      "channel": 3,
      "note": 80,
      "start": 64.5063,
      "duration": 0.1089,
      "velocity": 99,
      "chip": "ym2612"
    },
    {
      "channel": 4,
      "note": 76,
      "start": 64.5069,
      "duration": 0.1086,
      "velocity": 99,
      "chip": "ym2612"
    },
    {
      "channel": 0,
      "note": 64,
      "start": 64.5974,
      "duration": 0.0936,
      "velocity": 102,
      "chip": "ym2612"
    },
    {
      "channel": 1,
      "note": 62,
      "start": 64.632,
      "duration": 0.0936,
      "velocity": 102,
      "chip": "ym2612"
    },
    {
      "channel": 3,
      "note": 78,
      "start": 64.6328,
      "duration": 0.0933,
      "velocity": 99,
      "chip": "ym2612"
    },
    {
      "channel": 4,
      "note": 74,
      "start": 64.6334,
      "duration": 0.0931,
      "velocity": 99,
      "chip": "ym2612"
    },
    {
      "channel": 0,
      "note": 66,
      "start": 64.7083,
      "duration": 0.2053,
      "velocity": 102,
      "chip": "ym2612"
    },
    {
      "channel": 1,
      "note": 64,
      "start": 64.7428,
      "duration": 0.0318,
      "velocity": 102,
      "chip": "ym2612"
    },
    {
      "channel": 2,
      "note": 50,
      "start": 64.7435,
      "duration": 0.0164,
      "velocity": 91,
      "chip": "ym2612"
    },
    {
      "channel": 3,
      "note": 80,
      "start": 64.7447,
      "duration": 0.2073,
      "velocity": 99,
      "chip": "ym2612"
    },
    {
      "channel": 4,
      "note": 76,
      "start": 64.7453,
      "duration": 0.2071,
      "velocity": 99,
      "chip": "ym2612"
    },
    {
      "channel": 1,
      "note": 66,
      "start": 64.7767,
      "duration": 0.1417,
      "velocity": 102,
      "chip": "ym2612"
    },
    {
      "channel": 2,
      "note": 50,
      "start": 64.7773,
      "duration": 0.0143,
      "velocity": 91,
      "chip": "ym2612"
    },
    {
      "channel": 2,
      "note": 50,
      "start": 64.8101,
      "duration": 0.0176,
      "velocity": 91,
      "chip": "ym2612"
    },
    {
      "channel": 2,
      "note": 50,
      "start": 64.831,
      "duration": 0.0152,
      "velocity": 91,
      "chip": "ym2612"
    },
    {
      "channel": 2,
      "note": 50,
      "start": 64.8493,
      "duration": 0.0144,
      "velocity": 91,
      "chip": "ym2612"
    },
    {
      "channel": 2,
      "note": 50,
      "start": 64.8668,
      "duration": 0.0144,
      "velocity": 91,
      "chip": "ym2612"
    },
    {
      "channel": 2,
      "note": 50,
      "start": 64.8839,
      "duration": 0.0175,
      "velocity": 91,
      "chip": "ym2612"
    },
    {
      "channel": 0,
      "note": 62,
      "start": 64.9158,
      "duration": 0.0308,
      "velocity": 102,
      "chip": "ym2612"
    },
    {
      "channel": 1,
      "note": 66,
      "start": 64.9211,
      "duration": 0.0304,
      "velocity": 102,
      "chip": "ym2612"
    },
    {
      "channel": 2,
      "note": 50,
      "start": 64.9216,
      "duration": 0.0139,
      "velocity": 91,
      "chip": "ym2612"
    },
    {
      "channel": 0,
      "note": 64,
      "start": 64.9489,
      "duration": 0.0808,
      "velocity": 102,
      "chip": "ym2612"
    },
    {
      "channel": 1,
      "note": 62,
      "start": 64.9538,
      "duration": 0.1105,
      "velocity": 102,
      "chip": "ym2612"
    },
    {
      "channel": 3,
      "note": 81,
      "start": 64.9546,
      "duration": 0.1103,
      "velocity": 99,
      "chip": "ym2612"
    },
    {
      "channel": 4,
      "note": 78,
      "start": 64.9553,
      "duration": 0.11,
      "velocity": 99,
      "chip": "ym2612"
    },
    {
      "channel": 0,
      "note": 66,
      "start": 65.0471,
      "duration": 0.0939,
      "velocity": 102,
      "chip": "ym2612"
    },
    {
      "channel": 1,
      "note": 64,
      "start": 65.0816,
      "duration": 0.0939,
      "velocity": 102,
      "chip": "ym2612"
    },
    {
      "channel": 2,
      "note": 50,
      "start": 65.0821,
      "duration": 0.0937,
      "velocity": 91,
      "chip": "ym2612"
    },
    {
      "channel": 3,
      "note": 80,
      "start": 65.0827,
      "duration": 0.0934,
      "velocity": 99,
      "chip": "ym2612"
    },
    {
      "channel": 4,
      "note": 76,
      "start": 65.0833,
      "duration": 0.0931,
      "velocity": 99,
      "chip": "ym2612"
    },
    {
      "channel": 0,
      "note": 68,
      "start": 65.1584,
      "duration": 0.1703,
      "velocity": 102,
      "chip": "ym2612"
    },
    {
      "channel": 1,
      "note": 66,
      "start": 65.1929,
      "duration": 0.0319,
      "velocity": 102,
      "chip": "ym2612"
    },
    {
      "channel": 2,
      "note": 52,
      "start": 65.1934,
      "duration": 0.0142,
      "velocity": 91,
      "chip": "ym2612"
    },
    {
      "channel": 3,
      "note": 81,
      "start": 65.194,
      "duration": 0.1398,
      "velocity": 99,
      "chip": "ym2612"
    },
    {
      "channel": 4,
      "note": 78,
      "start": 65.1946,
      "duration": 0.1396,
      "velocity": 99,
      "chip": "ym2612"
    },
    {
      "channel": 1,
      "note": 68,
      "start": 65.2272,
      "duration": 0.1408,
      "velocity": 102,
      "chip": "ym2612"
    },
    {
      "channel": 2,
      "note": 52,
      "start": 65.2277,
      "duration": 0.0143,
      "velocity": 91,
      "chip": "ym2612"
    },
    {
      "channel": 2,
      "note": 52,
      "start": 65.2606,
      "duration": 0.015,
      "velocity": 91,
      "chip": "ym2612"
    },
    {
      "channel": 2,
      "note": 52,
      "start": 65.2789,
      "duration": 0.0176,
      "velocity": 91,
      "chip": "ym2612"
    },
    {
      "channel": 2,
      "note": 52,
      "start": 65.3011,
      "duration": 0.0144,
      "velocity": 91,
      "chip": "ym2612"
    },
    {
      "channel": 2,
      "note": 52,
      "start": 65.3189,
      "duration": 0.0147,
      "velocity": 91,
      "chip": "ym2612"
    },
    {
      "channel": 0,
      "note": 64,
      "start": 65.331,
      "duration": 0.259,
      "velocity": 102,
      "chip": "ym2612"
    },
    {
      "channel": 2,
      "note": 52,
      "start": 65.3361,
      "duration": 0.0146,
      "velocity": 91,
      "chip": "ym2612"
    },
    {
      "channel": 3,
      "note": 83,
      "start": 65.3366,
      "duration": 0.2885,
      "velocity": 99,
      "chip": "ym2612"
    },
    {
      "channel": 4,
      "note": 80,
      "start": 65.3373,
      "duration": 0.2883,
      "velocity": 99,
      "chip": "ym2612"
    },
    {
      "channel": 1,
      "note": 64,
      "start": 65.3717,
      "duration": 0.3005,
      "velocity": 102,
      "chip": "ym2612"
    },
    {
      "channel": 2,
      "note": 52,
      "start": 65.3722,
      "duration": 0.0139,
      "velocity": 91,
      "chip": "ym2612"
    },
    {
      "channel": 2,
      "note": 56,
      "start": 65.5306,
      "duration": 0.0942,
      "velocity": 91,
      "chip": "ym2612"
    },
    {
      "channel": 0,
      "note": 66,
      "start": 65.6073,
      "duration": 0.7033,
      "velocity": 102,
      "chip": "ym2612"
    },
    {
      "channel": 2,
      "note": 54,
      "start": 65.6422,
      "duration": 0.0146,
      "velocity": 91,
      "chip": "ym2612"
    },
    {
      "channel": 3,
      "note": 88,
      "start": 65.6428,
      "duration": 0.4371,
      "velocity": 99,
      "chip": "ym2612"
    },
    {
      "channel": 4,
      "note": 83,
      "start": 65.6434,
      "duration": 0.4369,
      "velocity": 99,
      "chip": "ym2612"
    },
    {
      "channel": 1,
      "note": 66,
      "start": 65.6749,
      "duration": 0.6445,
      "velocity": 102,
      "chip": "ym2612"
    },
    {
      "channel": 2,
      "note": 54,
      "start": 65.6754,
      "duration": 0.0151,
      "velocity": 91,
      "chip": "ym2612"
    },
    {
      "channel": 2,
      "note": 54,
      "start": 65.6933,
      "duration": 0.0082,
      "velocity": 91,
      "chip": "ym2612"
    },
    {
      "channel": 2,
      "note": 54,
      "start": 65.7041,
      "duration": 0.0066,
      "velocity": 91,
      "chip": "ym2612"
    },
    {
      "channel": 2,
      "note": 54,
      "start": 65.7137,
      "duration": 0.0146,
      "velocity": 91,
      "chip": "ym2612"
    },
    {
      "channel": 2,
      "note": 54,
      "start": 65.7488,
      "duration": 0.015,
      "velocity": 91,
      "chip": "ym2612"
    },
    {
      "channel": 2,
      "note": 54,
      "start": 65.7666,
      "duration": 0.0085,
      "velocity": 91,
      "chip": "ym2612"
    },
    {
      "channel": 2,
      "note": 54,
      "start": 65.7788,
      "duration": 0.0063,
      "velocity": 91,
      "chip": "ym2612"
    },
    {
      "channel": 2,
      "note": 54,
      "start": 65.7884,
      "duration": 0.0148,
      "velocity": 91,
      "chip": "ym2612"
    },
    {
      "channel": 2,
      "note": 54,
      "start": 65.8229,
      "duration": 0.0158,
      "velocity": 91,
      "chip": "ym2612"
    },
    {
      "channel": 2,
      "note": 52,
      "start": 65.9838,
      "duration": 0.0958,
      "velocity": 91,
      "chip": "ym2612"
    },
    {
      "channel": 2,
      "note": 54,
      "start": 66.097,
      "duration": 0.0175,
      "velocity": 91,
      "chip": "ym2612"
    },
    {
      "channel": 3,
      "note": 85,
      "start": 66.0975,
      "duration": 0.0172,
      "velocity": 99,
      "chip": "ym2612"
    },
    {
      "channel": 4,
      "note": 81,
      "start": 66.1087,
      "duration": 0.0146,
      "velocity": 99,
      "chip": "ym2612"
    },
    {
      "channel": 3,
      "note": 66,
      "start": 66.1171,
      "duration": 0.0142,
      "velocity": 99,
      "chip": "ym2612"
    },
    {
      "channel": 4,
      "note": 66,
      "start": 66.1255,
      "duration": 0.0149,
      "velocity": 99,
      "chip": "ym2612"
    },
    {
      "channel": 2,
      "note": 54,
      "start": 66.1334,
      "duration": 0.0128,
      "velocity": 91,
      "chip": "ym2612"
    },
    {
      "channel": 3,
      "note": 68,
      "start": 66.1339,
      "duration": 0.0155,
      "velocity": 99,
      "chip": "ym2612"
    },
    {
      "channel": 4,
      "note": 68,
      "start": 66.1426,
      "duration": 0.0177,
      "velocity": 99,
      "chip": "ym2612"
    },
    {
      "channel": 2,
      "note": 54,
      "start": 66.1491,
      "duration": 0.01,
      "velocity": 91,
      "chip": "ym2612"
    },
    {
      "channel": 3,
      "note": 69,
      "start": 66.152,
      "duration": 0.0195,
      "velocity": 99,
      "chip": "ym2612"
    },
    {
      "channel": 2,
      "note": 54,
      "start": 66.1642,
      "duration": 0.007,
      "velocity": 91,
      "chip": "ym2612"
    },
    {
      "channel": 4,
      "note": 69,
      "start": 66.1651,
      "duration": 0.018,
      "velocity": 99,
      "chip": "ym2612"
    },
    {
      "channel": 2,
      "note": 54,
      "start": 66.1756,
      "duration": 0.0154,
      "velocity": 91,
      "chip": "ym2612"
    },
    {
      "channel": 3,
      "note": 73,
      "start": 66.1762,
      "duration": 0.0151,
      "velocity": 99,
      "chip": "ym2612"
    },
    {
      "channel": 4,
      "note": 73,
      "start": 66.1853,
      "duration": 0.0151,
      "velocity": 99,
      "chip": "ym2612"
    },
    {
      "channel": 3,
      "note": 78,
      "start": 66.1937,
      "duration": 0.0145,
      "velocity": 99,
      "chip": "ym2612"
    },
    {
      "channel": 4,
      "note": 78,
      "start": 66.2025,
      "duration": 0.0156,
      "velocity": 99,
      "chip": "ym2612"
    },
    {
      "channel": 2,
      "note": 54,
      "start": 66.2109,
      "duration": 0.0128,
      "velocity": 91,
      "chip": "ym2612"
    },
    {
      "channel": 3,
      "note": 80,
      "start": 66.2115,
      "duration": 0.0149,
      "velocity": 99,
      "chip": "ym2612"
    },
    {
      "channel": 4,
      "note": 80,
      "start": 66.2202,
      "duration": 0.0157,
      "velocity": 99,
      "chip": "ym2612"
    },
    {
      "channel": 2,
      "note": 54,
      "start": 66.2261,
      "duration": 0.0093,
      "velocity": 91,
      "chip": "ym2612"
    },
    {
      "channel": 3,
      "note": 81,
      "start": 66.229,
      "duration": 0.0184,
      "velocity": 99,
      "chip": "ym2612"
    },
    {
      "channel": 2,
      "note": 54,
      "start": 66.2382,
      "duration": 0.0089,
      "velocity": 91,
      "chip": "ym2612"
    },
    {
      "channel": 4,
      "note": 81,
      "start": 66.2397,
      "duration": 0.0171,
      "velocity": 99,
      "chip": "ym2612"
    },
    {
      "channel": 2,
      "note": 54,
      "start": 66.2498,
      "duration": 0.0699,
      "velocity": 91,
      "chip": "ym2612"
    },
    {
      "channel": 3,
      "note": 85,
      "start": 66.2503,
      "duration": 0.0147,
      "velocity": 99,
      "chip": "ym2612"
    },
    {
      "channel": 4,
      "note": 85,
      "start": 66.2594,
      "duration": 0.014,
      "velocity": 99,
      "chip": "ym2612"
    },
    {
      "channel": 3,
      "note": 78,
      "start": 66.2672,
      "duration": 0.014,
      "velocity": 99,
      "chip": "ym2612"
    },
    {
      "channel": 4,
      "note": 78,
      "start": 66.2757,
      "duration": 0.0151,
      "velocity": 99,
      "chip": "ym2612"
    },
    {
      "channel": 3,
      "note": 80,
      "start": 66.2842,
      "duration": 0.0147,
      "velocity": 99,
      "chip": "ym2612"
    },
    {
      "channel": 4,
      "note": 80,
      "start": 66.2933,
      "duration": 0.0141,
      "velocity": 99,
      "chip": "ym2612"
    },
    {
      "channel": 3,
      "note": 81,
      "start": 66.3012,
      "duration": 0.0191,
      "velocity": 99,
      "chip": "ym2612"
    },
    {
      "channel": 4,
      "note": 81,
      "start": 66.3097,
      "duration": 0.0254,
      "velocity": 99,
      "chip": "ym2612"
    },
    {
      "channel": 0,
      "note": 80,
      "start": 66.3171,
      "duration": 0.0666,
      "velocity": 98,
      "chip": "ym2612"
    },
    {
      "channel": 1,
      "note": 71,
      "start": 66.3269,
      "duration": 0.0913,
      "velocity": 98,
      "chip": "ym2612"
    },
    {
      "channel": 2,
      "note": 52,
      "start": 66.3275,
      "duration": 0.1395,
      "velocity": 91,
      "chip": "ym2612"
    },
    {
      "channel": 3,
      "note": 85,
      "start": 66.328,
      "duration": 0.0149,
      "velocity": 99,
      "chip": "ym2612"
    },
    {
      "channel": 4,
      "note": 85,
      "start": 66.3372,
      "duration": 0.0143,
      "velocity": 99,
      "chip": "ym2612"
    },
    {
      "channel": 3,
      "note": 90,
      "start": 66.3451,
      "duration": 0.0737,
      "velocity": 99,
      "chip": "ym2612"
    },
    {
      "channel": 4,
      "note": 90,
      "start": 66.3678,
      "duration": 0.0749,
      "velocity": 99,
      "chip": "ym2612"
    },
    {
      "channel": 0,
      "note": 81,
      "start": 66.4011,
      "duration": 0.0614,
      "velocity": 98,
      "chip": "ym2612"
    },
    {
      "channel": 1,
      "note": 73,
      "start": 66.4356,
      "duration": 0.0312,
      "velocity": 98,
      "chip": "ym2612"
    },
    {
      "channel": 3,
      "note": 92,
      "start": 66.4364,
      "duration": 0.0142,
      "velocity": 99,
      "chip": "ym2612"
    },
    {
      "channel": 4,
      "note": 92,
      "start": 66.4448,
      "duration": 0.0145,
      "velocity": 99,
      "chip": "ym2612"
    },
    {
      "channel": 3,
      "note": 93,
      "start": 66.4528,
      "duration": 0.0145,
      "velocity": 99,
      "chip": "ym2612"
    },
    {
      "channel": 4,
      "note": 93,
      "start": 66.4615,
      "duration": 0.0188,
      "velocity": 99,
      "chip": "ym2612"
    },
    {
      "channel": 0,
      "note": 83,
      "start": 66.4646,
      "duration": 0.1753,
      "velocity": 98,
      "chip": "ym2612"
    },
    {
      "channel": 1,
      "note": 78,
      "start": 66.4707,
      "duration": 0.1737,
      "velocity": 98,
      "chip": "ym2612"
    },
    {
      "channel": 2,
      "note": 50,
      "start": 66.4711,
      "duration": 0.0166,
      "velocity": 91,
      "chip": "ym2612"
    },
    {
      "channel": 3,
      "note": 97,
      "start": 66.4723,
      "duration": 0.0628,
      "velocity": 99,
      "chip": "ym2612"
    },
    {
      "channel": 4,
      "note": 97,
      "start": 66.4825,
      "duration": 0.0643,
      "velocity": 99,
      "chip": "ym2612"
    },
    {
      "channel": 2,
      "note": 50,
      "start": 66.505,
      "duration": 0.0135,
      "velocity": 91,
      "chip": "ym2612"
    },
    {
      "channel": 2,
      "note": 50,
      "start": 66.5378,
      "duration": 0.0181,
      "velocity": 91,
      "chip": "ym2612"
    },
    {
      "channel": 3,
      "note": 74,
      "start": 66.5384,
      "duration": 0.0702,
      "velocity": 99,
      "chip": "ym2612"
    },
    {
      "channel": 4,
      "note": 74,
      "start": 66.5499,
      "duration": 0.0683,
      "velocity": 99,
      "chip": "ym2612"
    },
    {
      "channel": 2,
      "note": 50,
      "start": 66.5581,
      "duration": 0.014,
      "velocity": 91,
      "chip": "ym2612"
    },
    {
      "channel": 2,
      "note": 50,
      "start": 66.5755,
      "duration": 0.0146,
      "velocity": 91,
      "chip": "ym2612"
    },
    {
      "channel": 2,
      "note": 50,
      "start": 66.5938,
      "duration": 0.0145,
      "velocity": 91,
      "chip": "ym2612"
    },
    {
      "channel": 2,
      "note": 50,
      "start": 66.6112,
      "duration": 0.0171,
      "velocity": 91,
      "chip": "ym2612"
    },
    {
      "channel": 3,
      "note": 78,
      "start": 66.6117,
      "duration": 0.0689,
      "velocity": 99,
      "chip": "ym2612"
    },
    {
      "channel": 4,
      "note": 78,
      "start": 66.6205,
      "duration": 0.0702,
      "velocity": 99,
      "chip": "ym2612"
    },
    {
      "channel": 0,
      "note": 85,
      "start": 66.6421,
      "duration": 0.0337,
      "velocity": 98,
      "chip": "ym2612"
    },
    {
      "channel": 1,
      "note": 80,
      "start": 66.6472,
      "duration": 0.0329,
      "velocity": 98,
      "chip": "ym2612"
    },
    {
      "channel": 2,
      "note": 50,
      "start": 66.6477,
      "duration": 0.0116,
      "velocity": 91,
      "chip": "ym2612"
    },
    {
      "channel": 2,
      "note": 50,
      "start": 66.6628,
      "duration": 0.0083,
      "velocity": 91,
      "chip": "ym2612"
    },
    {
      "channel": 2,
      "note": 50,
      "start": 66.6739,
      "duration": 0.0065,
      "velocity": 91,
      "chip": "ym2612"
    },
    {
      "channel": 0,
      "note": 86,
      "start": 66.6779,
      "duration": 0.0337,
      "velocity": 98,
      "chip": "ym2612"
    },
    {
      "channel": 1,
      "note": 81,
      "start": 66.6833,
      "duration": 0.0328,
      "velocity": 98,
      "chip": "ym2612"
    },
    {
      "channel": 2,
      "note": 50,
      "start": 66.6837,
      "duration": 0.0146,
      "velocity": 91,
      "chip": "ym2612"
    },
    {
      "channel": 3,
      "note": 85,
      "start": 66.6844,
      "duration": 0.1353,
      "velocity": 99,
      "chip": "ym2612"
    },
    {
      "channel": 4,
      "note": 85,
      "start": 66.6929,
      "duration": 0.1381,
      "velocity": 99,
      "chip": "ym2612"
    },
    {
      "channel": 0,
      "note": 78,
      "start": 66.7137,
      "duration": 0.031,
      "velocity": 98,
      "chip": "ym2612"
    },
    {
      "channel": 1,
      "note": 74,
      "start": 66.7198,
      "duration": 0.0292,
      "velocity": 98,
      "chip": "ym2612"
    },
    {
      "channel": 2,
      "note": 50,
      "start": 66.7202,
      "duration": 0.029,
      "velocity": 91,
      "chip": "ym2612"
    },
    {
      "channel": 0,
      "note": 80,
      "start": 66.7468,
      "duration": 0.1422,
      "velocity": 98,
      "chip": "ym2612"
    },
    {
      "channel": 1,
      "note": 76,
      "start": 66.752,
      "duration": 0.1414,
      "velocity": 98,
      "chip": "ym2612"
    },
    {
      "channel": 2,
      "note": 52,
      "start": 66.7526,
      "duration": 0.0139,
      "velocity": 91,
      "chip": "ym2612"
    },
    {
      "channel": 2,
      "note": 52,
      "start": 66.7891,
      "duration": 0.0139,
      "velocity": 91,
      "chip": "ym2612"
    },
    {
      "channel": 2,
      "note": 52,
      "start": 66.8234,
      "duration": 0.0156,
      "velocity": 91,
      "chip": "ym2612"
    },
    {
      "channel": 3,
      "note": 83,
      "start": 66.824,
      "duration": 0.0701,
      "velocity": 99,
      "chip": "ym2612"
    },
    {
      "channel": 4,
      "note": 83,
      "start": 66.8333,
      "duration": 0.0708,
      "velocity": 99,
      "chip": "ym2612"
    },
    {
      "channel": 2,
      "note": 52,
      "start": 66.8418,
      "duration": 0.0166,
      "velocity": 91,
      "chip": "ym2612"
    },
    {
      "channel": 2,
      "note": 52,
      "start": 66.8618,
      "duration": 0.014,
      "velocity": 91,
      "chip": "ym2612"
    },
    {
      "channel": 2,
      "note": 52,
      "start": 66.8793,
      "duration": 0.0146,
      "velocity": 91,
      "chip": "ym2612"
    },
    {
      "channel": 0,
      "note": 76,
      "start": 66.8912,
      "duration": 0.0693,
      "velocity": 98,
      "chip": "ym2612"
    },
    {
      "channel": 1,
      "note": 71,
      "start": 66.8961,
      "duration": 0.0688,
      "velocity": 98,
      "chip": "ym2612"
    },
    {
      "channel": 2,
      "note": 52,
      "start": 66.8967,
      "duration": 0.0147,
      "velocity": 91,
      "chip": "ym2612"
    },
    {
      "channel": 3,
      "note": 80,
      "start": 66.8972,
      "duration": 0.0683,
      "velocity": 99,
      "chip": "ym2612"
    },
    {
      "channel": 4,
      "note": 80,
      "start": 66.9062,
      "duration": 0.0688,
      "velocity": 99,
      "chip": "ym2612"
    },
    {
      "channel": 2,
      "note": 52,
      "start": 66.9323,
      "duration": 0.0124,
      "velocity": 91,
      "chip": "ym2612"
    },
    {
      "channel": 2,
      "note": 52,
      "start": 66.948,
      "duration": 0.0082,
      "velocity": 91,
      "chip": "ym2612"
    },
    {
      "channel": 2,
      "note": 52,
      "start": 66.9586,
      "duration": 0.0066,
      "velocity": 91,
      "chip": "ym2612"
    },
    {
      "channel": 0,
      "note": 71,
      "start": 66.9627,
      "duration": 0.0321,
      "velocity": 98,
      "chip": "ym2612"
    },
    {
      "channel": 1,
      "note": 68,
      "start": 66.9676,
      "duration": 0.0318,
      "velocity": 98,
      "chip": "ym2612"
    },
    {
      "channel": 2,
      "note": 52,
      "start": 66.968,
      "duration": 0.0147,
      "velocity": 91,
      "chip": "ym2612"
    },
    {
      "channel": 3,
      "note": 76,
      "start": 66.9686,
      "duration": 0.0669,
      "velocity": 99,
      "chip": "ym2612"
    },
    {
      "channel": 4,
      "note": 76,
      "start": 66.9772,
      "duration": 0.0687,
      "velocity": 99,
      "chip": "ym2612"
    },
    {
      "channel": 0,
      "note": 74,
      "start": 66.9969,
      "duration": 0.0333,
      "velocity": 98,
      "chip": "ym2612"
    },
    {
      "channel": 1,
      "note": 71,
      "start": 67.0024,
      "duration": 0.0326,
      "velocity": 98,
      "chip": "ym2612"
    },
    {
      "channel": 2,
      "note": 59,
      "start": 67.0029,
      "duration": 0.0324,
      "velocity": 91,
      "chip": "ym2612"
    },
    {
      "channel": 0,
      "note": 73,
      "start": 67.0324,
      "duration": 0.1751,
      "velocity": 98,
      "chip": "ym2612"
    },
    {
      "channel": 1,
      "note": 69,
      "start": 67.038,
      "duration": 0.1739,
      "velocity": 98,
      "chip": "ym2612"
    },
    {
      "channel": 2,
      "note": 57,
      "start": 67.0385,
      "duration": 0.0147,
      "velocity": 91,
      "chip": "ym2612"
    },
    {
      "channel": 3,
      "note": 71,
      "start": 67.0391,
      "duration": 0.0657,
      "velocity": 99,
      "chip": "ym2612"
    },
    {
      "channel": 4,
      "note": 71,
      "start": 67.048,
      "duration": 0.0665,
      "velocity": 99,
      "chip": "ym2612"
    },
    {
      "channel": 2,
      "note": 57,
      "start": 67.0711,
      "duration": 0.0168,
      "velocity": 91,
      "chip": "ym2612"
    },
    {
      "channel": 2,
      "note": 57,
      "start": 67.107,
      "duration": 0.0155,
      "velocity": 91,
      "chip": "ym2612"
    },
    {
      "channel": 3,
      "note": 73,
      "start": 67.1076,
      "duration": 0.0708,
      "velocity": 99,
      "chip": "ym2612"
    },
    {
      "channel": 4,
      "note": 73,
      "start": 67.1168,
      "duration": 0.0716,
      "velocity": 99,
      "chip": "ym2612"
    },
    {
      "channel": 2,
      "note": 57,
      "start": 67.1253,
      "duration": 0.0139,
      "velocity": 91,
      "chip": "ym2612"
    },
    {
      "channel": 2,
      "note": 57,
      "start": 67.1426,
      "duration": 0.017,
      "velocity": 91,
      "chip": "ym2612"
    },
    {
      "channel": 2,
      "note": 57,
      "start": 67.1634,
      "duration": 0.0146,
      "velocity": 91,
      "chip": "ym2612"
    },
    {
      "channel": 2,
      "note": 57,
      "start": 67.1807,
      "duration": 0.0152,
      "velocity": 91,
      "chip": "ym2612"
    },
    {
      "channel": 3,
      "note": 76,
      "start": 67.1813,
      "duration": 0.0693,
      "velocity": 99,
      "chip": "ym2612"
    },
    {
      "channel": 4,
      "note": 76,
      "start": 67.1906,
      "duration": 0.0702,
      "velocity": 99,
      "chip": "ym2612"
    },
    {
      "channel": 0,
      "note": 69,
      "start": 67.2097,
      "duration": 0.0361,
      "velocity": 98,
      "chip": "ym2612"
    },
    {
      "channel": 1,
      "note": 64,
      "start": 67.2154,
      "duration": 0.0347,
      "velocity": 98,
      "chip": "ym2612"
    },
    {
      "channel": 2,
      "note": 57,
      "start": 67.2159,
      "duration": 0.0124,
      "velocity": 91,
      "chip": "ym2612"
    },
    {
      "channel": 2,
      "note": 57,
      "start": 67.2322,
      "duration": 0.0094,
      "velocity": 91,
      "chip": "ym2612"
    },
    {
      "channel": 2,
      "note": 57,
      "start": 67.2438,
      "duration": 0.0066,
      "velocity": 91,
      "chip": "ym2612"
    },
    {
      "channel": 0,
      "note": 73,
      "start": 67.2479,
      "duration": 0.0313,
      "velocity": 98,
      "chip": "ym2612"
    },
    {
      "channel": 1,
      "note": 69,
      "start": 67.2532,
      "duration": 0.0302,
      "velocity": 98,
      "chip": "ym2612"
    },
    {
      "channel": 2,
      "note": 57,
      "start": 67.2537,
      "duration": 0.0147,
      "velocity": 91,
      "chip": "ym2612"
    },
    {
      "channel": 3,
      "note": 80,
      "start": 67.2543,
      "duration": 0.0655,
      "velocity": 99,
      "chip": "ym2612"
    },
    {
      "channel": 4,
      "note": 80,
      "start": 67.2632,
      "duration": 0.0662,
      "velocity": 99,
      "chip": "ym2612"
    },
    {
      "channel": 0,
      "note": 80,
      "start": 67.2813,
      "duration": 0.0335,
      "velocity": 98,
      "chip": "ym2612"
    },
    {
      "channel": 1,
      "note": 76,
      "start": 67.286,
      "duration": 0.0333,
      "velocity": 98,
      "chip": "ym2612"
    },
    {
      "channel": 2,
      "note": 56,
      "start": 67.2864,
      "duration": 0.0332,
      "velocity": 91,
      "chip": "ym2612"
    },
    {
      "channel": 0,
      "note": 78,
      "start": 67.317,
      "duration": 0.2092,
      "velocity": 98,
      "chip": "ym2612"
    },
    {
      "channel": 1,
      "note": 73,
      "start": 67.3218,
      "duration": 0.2094,
      "velocity": 98,
      "chip": "ym2612"
    },
    {
      "channel": 2,
      "note": 54,
      "start": 67.3223,
      "duration": 0.0144,
      "velocity": 91,
      "chip": "ym2612"
    },
    {
      "channel": 3,
      "note": 81,
      "start": 67.3229,
      "duration": 0.0646,
      "velocity": 99,
      "chip": "ym2612"
    },
    {
      "channel": 4,
      "note": 81,
      "start": 67.3315,
      "duration": 0.0654,
      "velocity": 99,
      "chip": "ym2612"
    },
    {
      "channel": 2,
      "note": 54,
      "start": 67.3545,
      "duration": 0.014,
      "velocity": 91,
      "chip": "ym2612"
    },
    {
      "channel": 2,
      "note": 54,
      "start": 67.3895,
      "duration": 0.0151,
      "velocity": 91,
      "chip": "ym2612"
    },
    {
      "channel": 3,
      "note": 78,
      "start": 67.39,
      "duration": 0.07,
      "velocity": 99,
      "chip": "ym2612"
    },
    {
      "channel": 4,
      "note": 78,
      "start": 67.3992,
      "duration": 0.071,
      "velocity": 99,
      "chip": "ym2612"
    },
    {
      "channel": 2,
      "note": 54,
      "start": 67.4074,
      "duration": 0.0139,
      "velocity": 91,
      "chip": "ym2612"
    },
    {
      "channel": 2,
      "note": 54,
      "start": 67.4247,
      "duration": 0.0144,
      "velocity": 91,
      "chip": "ym2612"
    },
    {
      "channel": 2,
      "note": 54,
      "start": 67.4427,
      "duration": 0.0171,
      "velocity": 91,
      "chip": "ym2612"
    },
    {
      "channel": 2,
      "note": 54,
      "start": 67.463,
      "duration": 0.0148,
      "velocity": 91,
      "chip": "ym2612"
    },
    {
      "channel": 3,
      "note": 80,
      "start": 67.4636,
      "duration": 0.0304,
      "velocity": 99,
      "chip": "ym2612"
    },
    {
      "channel": 4,
      "note": 80,
      "start": 67.4724,
      "duration": 0.0322,
      "velocity": 99,
      "chip": "ym2612"
    },
    {
      "channel": 2,
      "note": 49,
      "start": 67.4971,
      "duration": 0.0344,
      "velocity": 91,
      "chip": "ym2612"
    },
    {
      "channel": 3,
      "note": 81,
      "start": 67.4976,
      "duration": 0.0341,
      "velocity": 99,
      "chip": "ym2612"
    },
    {
      "channel": 4,
      "note": 81,
      "start": 67.5068,
      "duration": 0.0372,
      "velocity": 99,
      "chip": "ym2612"
    },
    {
      "channel": 0,
      "note": 74,
      "start": 67.5283,
      "duration": 0.0347,
      "velocity": 98,
      "chip": "ym2612"
    },
    {
      "channel": 1,
      "note": 71,
      "start": 67.5348,
      "duration": 0.0326,
      "velocity": 98,
      "chip": "ym2612"
    },
    {
      "channel": 2,
      "note": 50,
      "start": 67.5359,
      "duration": 0.0317,
      "velocity": 91,
      "chip": "ym2612"
    },
    {
      "channel": 3,
      "note": 69,
      "start": 67.5366,
      "duration": 0.0314,
      "velocity": 99,
      "chip": "ym2612"
    },
    {
      "channel": 4,
      "note": 69,
      "start": 67.5465,
      "duration": 0.032,
      "velocity": 99,
      "chip": "ym2612"
    },
    {
      "channel": 0,
      "note": 76,
      "start": 67.5652,
      "duration": 0.0317,
      "velocity": 98,
      "chip": "ym2612"
    },
    {
      "channel": 1,
      "note": 73,
      "start": 67.5711,
      "duration": 0.03,
      "velocity": 98,
      "chip": "ym2612"
    },
    {
      "channel": 2,
      "note": 52,
      "start": 67.5716,
      "duration": 0.0298,
      "velocity": 91,
      "chip": "ym2612"
    },
    {
      "channel": 3,
      "note": 71,
      "start": 67.5722,
      "duration": 0.0295,
      "velocity": 99,
      "chip": "ym2612"
    },
    {
      "channel": 4,
      "note": 71,
      "start": 67.5806,
      "duration": 0.0337,
      "velocity": 99,
      "chip": "ym2612"
    },
    {
      "channel": 0,
      "note": 78,
      "start": 67.5989,
      "duration": 0.1058,
      "velocity": 98,
      "chip": "ym2612"
    },
    {
      "channel": 1,
      "note": 74,
      "start": 67.6041,
      "duration": 0.1052,
      "velocity": 98,
      "chip": "ym2612"
    },
    {
      "channel": 2,
      "note": 50,
      "start": 67.6046,
      "duration": 0.0178,
      "velocity": 91,
      "chip": "ym2612"
    },
    {
      "channel": 3,
      "note": 73,
      "start": 67.6053,
      "duration": 0.0676,
      "velocity": 99,
      "chip": "ym2612"
    },
    {
      "channel": 4,
      "note": 73,
      "start": 67.6169,
      "duration": 0.0668,
      "velocity": 99,
      "chip": "ym2612"
    },
    {
      "channel": 2,
      "note": 50,
      "start": 67.6396,
      "duration": 0.0115,
      "velocity": 91,
      "chip": "ym2612"
    },
    {
      "channel": 2,
      "note": 50,
      "start": 67.6552,
      "duration": 0.0082,
      "velocity": 91,
      "chip": "ym2612"
    },
    {
      "channel": 2,
      "note": 50,
      "start": 67.6659,
      "duration": 0.0068,
      "velocity": 91,
      "chip": "ym2612"
    },
    {
      "channel": 2,
      "note": 50,
      "start": 67.6755,
      "duration": 0.0179,
      "velocity": 91,
      "chip": "ym2612"
    },
    {
      "channel": 3,
      "note": 74,
      "start": 67.6761,
      "duration": 0.0693,
      "velocity": 99,
      "chip": "ym2612"
    },
    {
      "channel": 4,
      "note": 74,
      "start": 67.6871,
      "duration": 0.0678,
      "velocity": 99,
      "chip": "ym2612"
    },
    {
      "channel": 0,
      "note": 69,
      "start": 67.7072,
      "duration": 0.0333,
      "velocity": 98,
      "chip": "ym2612"
    },
    {
      "channel": 1,
      "note": 66,
      "start": 67.7121,
      "duration": 0.0326,
      "velocity": 98,
      "chip": "ym2612"
    },
    {
      "channel": 2,
      "note": 50,
      "start": 67.7127,
      "duration": 0.0116,
      "velocity": 91,
      "chip": "ym2612"
    },
    {
      "channel": 2,
      "note": 50,
      "start": 67.7276,
      "duration": 0.008,
      "velocity": 91,
      "chip": "ym2612"
    },
    {
      "channel": 2,
      "note": 50,
      "start": 67.7385,
      "duration": 0.0065,
      "velocity": 91,
      "chip": "ym2612"
    },
    {
      "channel": 0,
      "note": 78,
      "start": 67.7425,
      "duration": 0.0703,
      "velocity": 98,
      "chip": "ym2612"
    },
    {
      "channel": 1,
      "note": 74,
      "start": 67.7474,
      "duration": 0.07,
      "velocity": 98,
      "chip": "ym2612"
    },
    {
      "channel": 2,
      "note": 50,
      "start": 67.7479,
      "duration": 0.0164,
      "velocity": 91,
      "chip": "ym2612"
    },
    {
      "channel": 3,
      "note": 69,
      "start": 67.7485,
      "duration": 0.0695,
      "velocity": 99,
      "chip": "ym2612"
    },
    {
      "channel": 4,
      "note": 69,
      "start": 67.7571,
      "duration": 0.071,
      "velocity": 99,
      "chip": "ym2612"
    },
    {
      "channel": 2,
      "note": 54,
      "start": 67.7838,
      "duration": 0.0339,
      "velocity": 91,
      "chip": "ym2612"
    },
    {
      "channel": 0,
      "note": 74,
      "start": 67.8151,
      "duration": 0.0334,
      "velocity": 98,
      "chip": "ym2612"
    },
    {
      "channel": 1,
      "note": 69,
      "start": 67.8203,
      "duration": 0.0325,
      "velocity": 98,
      "chip": "ym2612"
    },
    {
      "channel": 2,
      "note": 57,
      "start": 67.8208,
      "duration": 0.0322,
      "velocity": 91,
      "chip": "ym2612"
    },
    {
      "channel": 3,
      "note": 74,
      "start": 67.8213,
      "duration": 0.0656,
      "velocity": 99,
      "chip": "ym2612"
    },
    {
      "channel": 4,
      "note": 74,
      "start": 67.8302,
      "duration": 0.0672,
      "velocity": 99,
      "chip": "ym2612"
    },
    {
      "channel": 0,
      "note": 76,
      "start": 67.8506,
      "duration": 0.0314,
      "velocity": 98,
      "chip": "ym2612"
    },
    {
      "channel": 1,
      "note": 73,
      "start": 67.8565,
      "duration": 0.0298,
      "velocity": 98,
      "chip": "ym2612"
    },
    {
      "channel": 2,
      "note": 61,
      "start": 67.857,
      "duration": 0.0296,
      "velocity": 91,
      "chip": "ym2612"
    },
    {
      "channel": 0,
      "note": 78,
      "start": 67.8841,
      "duration": 0.1035,
      "velocity": 98,
      "chip": "ym2612"
    },
    {
      "channel": 1,
      "note": 75,
      "start": 67.8898,
      "duration": 0.104,
      "velocity": 98,
      "chip": "ym2612"
    },
    {
      "channel": 2,
      "note": 60,
      "start": 67.8903,
      "duration": 0.0148,
      "velocity": 91,
      "chip": "ym2612"
    },
    {
      "channel": 3,
      "note": 73,
      "start": 67.8909,
      "duration": 0.1397,
      "velocity": 99,
      "chip": "ym2612"
    },
    {
      "channel": 4,
      "note": 73,
      "start": 67.9,
      "duration": 0.1407,
      "velocity": 99,
      "chip": "ym2612"
    },
    {
      "channel": 2,
      "note": 60,
      "start": 67.9247,
      "duration": 0.0116,
      "velocity": 91,
      "chip": "ym2612"
    },
    {
      "channel": 2,
      "note": 60,
      "start": 67.94,
      "duration": 0.0081,
      "velocity": 91,
      "chip": "ym2612"
    },
    {
      "channel": 2,
      "note": 60,
      "start": 67.9508,
      "duration": 0.0064,
      "velocity": 91,
      "chip": "ym2612"
    },
    {
      "channel": 2,
      "note": 60,
      "start": 67.9601,
      "duration": 0.0147,
      "velocity": 91,
      "chip": "ym2612"
    },
    {
      "channel": 0,
      "note": 69,
      "start": 67.9907,
      "duration": 0.0346,
      "velocity": 98,
      "chip": "ym2612"
    },
    {
      "channel": 1,
      "note": 66,
      "start": 67.997,
      "duration": 0.033,
      "velocity": 98,
      "chip": "ym2612"
    },
    {
      "channel": 2,
      "note": 60,
      "start": 67.9975,
      "duration": 0.0123,
      "velocity": 91,
      "chip": "ym2612"
    },
    {
      "channel": 2,
      "note": 60,
      "start": 68.0127,
      "duration": 0.008,
      "velocity": 91,
      "chip": "ym2612"
    },
    {
      "channel": 2,
      "note": 60,
      "start": 68.0234,
      "duration": 0.0069,
      "velocity": 91,
      "chip": "ym2612"
    },
    {
      "channel": 0,
      "note": 78,
      "start": 68.0278,
      "duration": 0.0685,
      "velocity": 98,
      "chip": "ym2612"
    },
    {
      "channel": 1,
      "note": 75,
      "start": 68.0328,
      "duration": 0.068,
      "velocity": 98,
      "chip": "ym2612"
    },
    {
      "channel": 2,
      "note": 60,
      "start": 68.0333,
      "duration": 0.015,
      "velocity": 91,
      "chip": "ym2612"
    },
    {
      "channel": 3,
      "note": 72,
      "start": 68.0339,
      "duration": 0.1366,
      "velocity": 99,
      "chip": "ym2612"
    },
    {
      "channel": 4,
      "note": 66,
      "start": 68.0428,
      "duration": 0.1389,
      "velocity": 99,
      "chip": "ym2612"
    },
    {
      "channel": 2,
      "note": 54,
      "start": 68.0685,
      "duration": 0.0326,
      "velocity": 91,
      "chip": "ym2612"
    },
    {
      "channel": 0,
      "note": 80,
      "start": 68.0985,
      "duration": 0.0314,
      "velocity": 98,
      "chip": "ym2612"
    },
    {
      "channel": 1,
      "note": 75,
      "start": 68.1037,
      "duration": 0.0305,
      "velocity": 98,
      "chip": "ym2612"
    },
    {
      "channel": 2,
      "note": 57,
      "start": 68.1042,
      "duration": 0.0303,
      "velocity": 91,
      "chip": "ym2612"
    },
    {
      "channel": 0,
      "note": 81,
      "start": 68.132,
      "duration": 0.0335,
      "velocity": 98,
      "chip": "ym2612"
    },
    {
      "channel": 1,
      "note": 78,
      "start": 68.1371,
      "duration": 0.0328,
      "velocity": 98,
      "chip": "ym2612"
    },
    {
      "channel": 2,
      "note": 48,
      "start": 68.1376,
      "duration": 0.0326,
      "velocity": 91,
      "chip": "ym2612"
    },
    {
      "channel": 0,
      "note": 83,
      "start": 68.1677,
      "duration": 0.2177,
      "velocity": 98,
      "chip": "ym2612"
    },
    {
      "channel": 1,
      "note": 80,
      "start": 68.1737,
      "duration": 0.2161,
      "velocity": 98,
      "chip": "ym2612"
    },
    {
      "channel": 2,
      "note": 49,
      "start": 68.1742,
      "duration": 0.0149,
      "velocity": 91,
      "chip": "ym2612"
    },
    {
      "channel": 3,
      "note": 75,
      "start": 68.1748,
      "duration": 0.0685,
      "velocity": 99,
      "chip": "ym2612"
    },
    {
      "channel": 4,
      "note": 72,
      "start": 68.184,
      "duration": 0.0691,
      "velocity": 99,
      "chip": "ym2612"
    },
    {
      "channel": 2,
      "note": 49,
      "start": 68.2075,
      "duration": 0.0143,
      "velocity": 91,
      "chip": "ym2612"
    },
    {
      "channel": 2,
      "note": 49,
      "start": 68.2257,
      "duration": 0.0085,
      "velocity": 91,
      "chip": "ym2612"
    },
    {
      "channel": 2,
      "note": 49,
      "start": 68.2367,
      "duration": 0.0063,
      "velocity": 91,
      "chip": "ym2612"
    },
    {
      "channel": 2,
      "note": 49,
      "start": 68.2459,
      "duration": 0.0147,
      "velocity": 91,
      "chip": "ym2612"
    },
    {
      "channel": 3,
      "note": 73,
      "start": 68.2465,
      "duration": 0.071,
      "velocity": 99,
      "chip": "ym2612"
    },
    {
      "channel": 4,
      "note": 68,
      "start": 68.2553,
      "duration": 0.0718,
      "velocity": 99,
      "chip": "ym2612"
    },
    {
      "channel": 2,
      "note": 49,
      "start": 68.2802,
      "duration": 0.0138,
      "velocity": 91,
      "chip": "ym2612"
    },
    {
      "channel": 2,
      "note": 49,
      "start": 68.2982,
      "duration": 0.0087,
      "velocity": 91,
      "chip": "ym2612"
    },
    {
      "channel": 2,
      "note": 49,
      "start": 68.3107,
      "duration": 0.0065,
      "velocity": 91,
      "chip": "ym2612"
    },
    {
      "channel": 2,
      "note": 49,
      "start": 68.32,
      "duration": 0.0148,
      "velocity": 91,
      "chip": "ym2612"
    },
    {
      "channel": 3,
      "note": 77,
      "start": 68.3205,
      "duration": 0.0699,
      "velocity": 99,
      "chip": "ym2612"
    },
    {
      "channel": 4,
      "note": 71,
      "start": 68.3294,
      "duration": 0.0711,
      "velocity": 99,
      "chip": "ym2612"
    },
    {
      "channel": 2,
      "note": 49,
      "start": 68.3541,
      "duration": 0.036,
      "velocity": 91,
      "chip": "ym2612"
    },
    {
      "channel": 0,
      "note": 81,
      "start": 68.3877,
      "duration": 0.016,
      "velocity": 98,
      "chip": "ym2612"
    },
    {
      "channel": 1,
      "note": 77,
      "start": 68.3927,
      "duration": 0.0153,
      "velocity": 98,
      "chip": "ym2612"
    },
    {
      "channel": 2,
      "note": 53,
      "start": 68.3932,
      "duration": 0.0305,
      "velocity": 91,
      "chip": "ym2612"
    },
    {
      "channel": 3,
      "note": 80,
      "start": 68.3937,
      "duration": 0.0663,
      "velocity": 99,
      "chip": "ym2612"
    },
    {
      "channel": 4,
      "note": 73,
      "start": 68.4027,
      "duration": 0.0673,
      "velocity": 99,
      "chip": "ym2612"
    },
    {
      "channel": 0,
      "note": 83,
      "start": 68.4058,
      "duration": 0.0134,
      "velocity": 98,
      "chip": "ym2612"
    },
    {
      "channel": 1,
      "note": 80,
      "start": 68.41,
      "duration": 0.0134,
      "velocity": 98,
      "chip": "ym2612"
    },
    {
      "channel": 0,
      "note": 81,
      "start": 68.4212,
      "duration": 0.0338,
      "velocity": 98,
      "chip": "ym2612"
    },
    {
      "channel": 1,
      "note": 77,
      "start": 68.4271,
      "duration": 0.0324,
      "velocity": 98,
      "chip": "ym2612"
    },
    {
      "channel": 2,
      "note": 56,
      "start": 68.4275,
      "duration": 0.0322,
      "velocity": 91,
      "chip": "ym2612"
    },
    {
      "channel": 0,
      "note": 80,
      "start": 68.4572,
      "duration": 0.0163,
      "velocity": 98,
      "chip": "ym2612"
    },
    {
      "channel": 1,
      "note": 77,
      "start": 68.462,
      "duration": 0.0158,
      "velocity": 98,
      "chip": "ym2612"
    },
    {
      "channel": 2,
      "note": 61,
      "start": 68.4625,
      "duration": 0.0156,
      "velocity": 91,
      "chip": "ym2612"
    },
    {
      "channel": 3,
      "note": 83,
      "start": 68.463,
      "duration": 0.0702,
      "velocity": 99,
      "chip": "ym2612"
    },
    {
      "channel": 4,
      "note": 77,
      "start": 68.4721,
      "duration": 0.0726,
      "velocity": 99,
      "chip": "ym2612"
    },
    {
      "channel": 0,
      "note": 78,
      "start": 68.4756,
      "duration": 0.0139,
      "velocity": 98,
      "chip": "ym2612"
    },
    {
      "channel": 1,
      "note": 73,
      "start": 68.4802,
      "duration": 0.0134,
      "velocity": 98,
      "chip": "ym2612"
    },
    {
      "channel": 0,
      "note": 83,
      "start": 68.4915,
      "duration": 0.0154,
      "velocity": 98,
      "chip": "ym2612"
    },
    {
      "channel": 1,
      "note": 80,
      "start": 68.4973,
      "duration": 0.0151,
      "velocity": 98,
      "chip": "ym2612"
    },
    {
      "channel": 2,
      "note": 61,
      "start": 68.4977,
      "duration": 0.0118,
      "velocity": 91,
      "chip": "ym2612"
    },
    {
      "channel": 0,
      "note": 81,
      "start": 68.509,
      "duration": 0.0182,
      "velocity": 98,
      "chip": "ym2612"
    },
    {
      "channel": 2,
      "note": 61,
      "start": 68.5128,
      "duration": 0.0088,
      "velocity": 91,
      "chip": "ym2612"
    },
    {
      "channel": 1,
      "note": 78,
      "start": 68.5154,
      "duration": 0.0172,
      "velocity": 98,
      "chip": "ym2612"
    },
    {
      "channel": 2,
      "note": 61,
      "start": 68.5246,
      "duration": 0.0082,
      "velocity": 91,
      "chip": "ym2612"
    },
    {
      "channel": 0,
      "note": 80,
      "start": 68.5304,
      "duration": 0.0174,
      "velocity": 98,
      "chip": "ym2612"
    },
    {
      "channel": 1,
      "note": 77,
      "start": 68.5372,
      "duration": 0.0149,
      "velocity": 98,
      "chip": "ym2612"
    },
    {
      "channel": 2,
      "note": 61,
      "start": 68.5377,
      "duration": 0.0146,
      "velocity": 91,
      "chip": "ym2612"
    },
    {
      "channel": 3,
      "note": 85,
      "start": 68.5383,
      "duration": 0.0695,
      "velocity": 99,
      "chip": "ym2612"
    },
    {
      "channel": 4,
      "note": 80,
      "start": 68.5468,
      "duration": 0.0713,
      "velocity": 99,
      "chip": "ym2612"
    },
    {
      "channel": 0,
      "note": 78,
      "start": 68.5499,
      "duration": 0.0136,
      "velocity": 98,
      "chip": "ym2612"
    },
    {
      "channel": 1,
      "note": 73,
      "start": 68.5541,
      "duration": 0.0135,
      "velocity": 98,
      "chip": "ym2612"
    },
    {
      "channel": 0,
      "note": 77,
      "start": 68.5655,
      "duration": 0.0159,
      "velocity": 98,
      "chip": "ym2612"
    },
    {
      "channel": 1,
      "note": 71,
      "start": 68.5717,
      "duration": 0.0154,
      "velocity": 98,
      "chip": "ym2612"
    },
    {
      "channel": 2,
      "note": 61,
      "start": 68.5721,
      "duration": 0.012,
      "velocity": 91,
      "chip": "ym2612"
    },
    {
      "channel": 0,
      "note": 71,
      "start": 68.5835,
      "duration": 0.0175,
      "velocity": 98,
      "chip": "ym2612"
    },
    {
      "channel": 2,
      "note": 61,
      "start": 68.5875,
      "duration": 0.0085,
      "velocity": 91,
      "chip": "ym2612"
    },
    {
      "channel": 1,
      "note": 68,
      "start": 68.5898,
      "duration": 0.0358,
      "velocity": 98,
      "chip": "ym2612"
    },
    {
      "channel": 2,
      "note": 61,
      "start": 68.5985,
      "duration": 0.0088,
      "velocity": 91,
      "chip": "ym2612"
    },
    {
      "channel": 0,
      "note": 73,
      "start": 68.6037,
      "duration": 0.0175,
      "velocity": 98,
      "chip": "ym2612"
    },
    {
      "channel": 2,
      "note": 61,
      "start": 68.6108,
      "duration": 0.015,
      "velocity": 91,
      "chip": "ym2612"
    },
    {
      "channel": 3,
      "note": 89,
      "start": 68.6114,
      "duration": 0.0671,
      "velocity": 99,
      "chip": "ym2612"
    },
    {
      "channel": 4,
      "note": 83,
      "start": 68.6203,
      "duration": 0.0709,
      "velocity": 99,
      "chip": "ym2612"
    },
    {
      "channel": 0,
      "note": 77,
      "start": 68.6234,
      "duration": 0.0139,
      "velocity": 98,
      "chip": "ym2612"
    },
    {
      "channel": 1,
      "note": 71,
      "start": 68.6277,
      "duration": 0.0138,
      "velocity": 98,
      "chip": "ym2612"
    },
    {
      "channel": 0,
      "note": 80,
      "start": 68.6394,
      "duration": 0.0152,
      "velocity": 98,
      "chip": "ym2612"
    },
    {
      "channel": 1,
      "note": 73,
      "start": 68.6448,
      "duration": 0.0151,
      "velocity": 98,
      "chip": "ym2612"
    },
    {
      "channel": 2,
      "note": 49,
      "start": 68.6453,
      "duration": 0.1076,
      "velocity": 91,
      "chip": "ym2612"
    },
    {
      "channel": 0,
      "note": 83,
      "start": 68.6566,
      "duration": 0.0164,
      "velocity": 98,
      "chip": "ym2612"
    },
    {
      "channel": 1,
      "note": 77,
      "start": 68.6622,
      "duration": 0.0157,
      "velocity": 98,
      "chip": "ym2612"
    },
    {
      "channel": 0,
      "note": 85,
      "start": 68.6752,
      "duration": 0.0191,
      "velocity": 98,
      "chip": "ym2612"
    },
    {
      "channel": 1,
      "note": 80,
      "start": 68.6816,
      "duration": 0.017,
      "velocity": 98,
      "chip": "ym2612"
    },
    {
      "channel": 3,
      "note": 92,
      "start": 68.683,
      "duration": 0.0702,
      "velocity": 99,
      "chip": "ym2612"
    },
    {
      "channel": 4,
      "note": 85,
      "start": 68.6933,
      "duration": 0.0812,
      "velocity": 99,
      "chip": "ym2612"
    },
    {
      "channel": 0,
      "note": 89,
      "start": 68.6964,
      "duration": 0.0145,
      "velocity": 98,
      "chip": "ym2612"
    },
    {
      "channel": 1,
      "note": 83,
      "start": 68.7007,
      "duration": 0.0144,
      "velocity": 98,
      "chip": "ym2612"
    },
    {
      "channel": 0,
      "note": 92,
      "start": 68.713,
      "duration": 0.0311,
      "velocity": 98,
      "chip": "ym2612"
    },
    {
      "channel": 1,
      "note": 85,
      "start": 68.7184,
      "duration": 0.0342,
      "velocity": 98,
      "chip": "ym2612"
    },
    {
      "channel": 0,
      "note": 59,
      "start": 68.7503,
      "duration": 0.0305,
      "velocity": 87,
      "chip": "ym2612"
    },
    {
      "channel": 2,
      "note": 42,
      "start": 68.7632,
      "duration": 0.9578,
      "velocity": 97,
      "chip": "ym2612"
    },
    {
      "channel": 3,
      "note": 97,
      "start": 68.7663,
      "duration": 0.0193,
      "velocity": 99,
      "chip": "ym2612"
    },
    {
      "channel": 4,
      "note": 89,
      "start": 68.7798,
      "duration": 0.0139,
      "velocity": 99,
      "chip": "ym2612"
    },
    {
      "channel": 0,
      "note": 61,
      "start": 68.7829,
      "duration": 0.0138,
      "velocity": 87,
      "chip": "ym2612"
    },
    {
      "channel": 3,
      "note": 93,
      "start": 68.7878,
      "duration": 0.0138,
      "velocity": 99,
      "chip": "ym2612"
    },
    {
      "channel": 4,
      "note": 93,
      "start": 68.7958,
      "duration": 0.0141,
      "velocity": 99,
      "chip": "ym2612"
    },
    {
      "channel": 0,
      "note": 62,
      "start": 68.7989,
      "duration": 0.0146,
      "velocity": 87,
      "chip": "ym2612"
    },
    {
      "channel": 1,
      "note": 59,
      "start": 68.8032,
      "duration": 0.0146,
      "velocity": 87,
      "chip": "ym2612"
    },
    {
      "channel": 3,
      "note": 92,
      "start": 68.804,
      "duration": 0.0143,
      "velocity": 99,
      "chip": "ym2612"
    },
    {
      "channel": 4,
      "note": 92,
      "start": 68.8125,
      "duration": 0.018,
      "velocity": 99,
      "chip": "ym2612"
    },
    {
      "channel": 0,
      "note": 66,
      "start": 68.8156,
      "duration": 0.0482,
      "velocity": 87,
      "chip": "ym2612"
    },
    {
      "channel": 1,
      "note": 61,
      "start": 68.8199,
      "duration": 0.0784,
      "velocity": 87,
      "chip": "ym2612"
    },
    {
      "channel": 3,
      "note": 90,
      "start": 68.8207,
      "duration": 0.0782,
      "velocity": 99,
      "chip": "ym2612"
    },
    {
      "channel": 4,
      "note": 90,
      "start": 68.8479,
      "duration": 0.1199,
      "velocity": 99,
      "chip": "ym2612"
    },
    {
      "channel": 0,
      "note": 71,
      "start": 68.8812,
      "duration": 0.8051,
      "velocity": 87,
      "chip": "ym2612"
    },
    {
      "channel": 1,
      "note": 62,
      "start": 68.9157,
      "duration": 0.1204,
      "velocity": 87,
      "chip": "ym2612"
    },
    {
      "channel": 3,
      "note": 85,
      "start": 68.9166,
      "duration": 0.1199,
      "velocity": 99,
      "chip": "ym2612"
    },
    {
      "channel": 4,
      "note": 85,
      "start": 68.9882,
      "duration": 0.1168,
      "velocity": 99,
      "chip": "ym2612"
    },
    {
      "channel": 1,
      "note": 66,
      "start": 69.053,
      "duration": 0.1198,
      "velocity": 87,
      "chip": "ym2612"
    },
    {
      "channel": 3,
      "note": 93,
      "start": 69.0539,
      "duration": 0.1195,
      "velocity": 99,
      "chip": "ym2612"
    },
    {
      "channel": 4,
      "note": 93,
      "start": 69.1224,
      "duration": 0.0754,
      "velocity": 99,
      "chip": "ym2612"
    },
    {
      "channel": 1,
      "note": 71,
      "start": 69.1902,
      "duration": 0.6419,
      "velocity": 87,
      "chip": "ym2612"
    },
    {
      "channel": 3,
      "note": 92,
      "start": 69.191,
      "duration": 0.0145,
      "velocity": 99,
      "chip": "ym2612"
    },
    {
      "channel": 4,
      "note": 92,
      "start": 69.1998,
      "duration": 0.0167,
      "velocity": 99,
      "chip": "ym2612"
    },
    {
      "channel": 3,
      "note": 90,
      "start": 69.2077,
      "duration": 0.0773,
      "velocity": 99,
      "chip": "ym2612"
    },
    {
      "channel": 4,
      "note": 90,
      "start": 69.2339,
      "duration": 0.0753,
      "velocity": 99,
      "chip": "ym2612"
    },
    {
      "channel": 3,
      "note": 85,
      "start": 69.3024,
      "duration": 0.0198,
      "velocity": 99,
      "chip": "ym2612"
    },
    {
      "channel": 4,
      "note": 85,
      "start": 69.3149,
      "duration": 0.0176,
      "velocity": 99,
      "chip": "ym2612"
    },
    {
      "channel": 3,
      "note": 93,
      "start": 69.3251,
      "duration": 0.0152,
      "velocity": 99,
      "chip": "ym2612"
    },
    {
      "channel": 4,
      "note": 93,
      "start": 69.3346,
      "duration": 0.0143,
      "velocity": 99,
      "chip": "ym2612"
    },
    {
      "channel": 3,
      "note": 92,
      "start": 69.3425,
      "duration": 0.0143,
      "velocity": 99,
      "chip": "ym2612"
    },
    {
      "channel": 4,
      "note": 92,
      "start": 69.3511,
      "duration": 0.0275,
      "velocity": 99,
      "chip": "ym2612"
    },
    {
      "channel": 3,
      "note": 90,
      "start": 69.359,
      "duration": 0.0878,
      "velocity": 99,
      "chip": "ym2612"
    },
    {
      "channel": 4,
      "note": 90,
      "start": 69.3959,
      "duration": 0.1198,
      "velocity": 99,
      "chip": "ym2612"
    },
    {
      "channel": 3,
      "note": 85,
      "start": 69.4644,
      "duration": 0.1198,
      "velocity": 99,
      "chip": "ym2612"
    },
    {
      "channel": 4,
      "note": 85,
      "start": 69.5361,
      "duration": 0.1174,
      "velocity": 99,
      "chip": "ym2612"
    },
    {
      "channel": 3,
      "note": 93,
      "start": 69.6015,
      "duration": 0.1199,
      "velocity": 99,
      "chip": "ym2612"
    },
    {
      "channel": 4,
      "note": 93,
      "start": 69.6706,
      "duration": 0.0751,
      "velocity": 99,
      "chip": "ym2612"
    },
    {
      "channel": 0,
      "note": 73,
      "start": 69.7035,
      "duration": 0.0454,
      "velocity": 87,
      "chip": "ym2612"
    },
    {
      "channel": 2,
      "note": 42,
      "start": 69.7383,
      "duration": 0.094,
      "velocity": 97,
      "chip": "ym2612"
    },
    {
      "channel": 3,
      "note": 92,
      "start": 69.7389,
      "duration": 0.0148,
      "velocity": 99,
      "chip": "ym2612"
    },
    {
      "channel": 4,
      "note": 92,
      "start": 69.748,
      "duration": 0.0163,
      "velocity": 99,
      "chip": "ym2612"
    },
    {
      "channel": 0,
      "note": 74,
      "start": 69.751,
      "duration": 0.0465,
      "velocity": 87,
      "chip": "ym2612"
    },
    {
      "channel": 3,
      "note": 90,
      "start": 69.7559,
      "duration": 0.0767,
      "velocity": 99,
      "chip": "ym2612"
    },
    {
      "channel": 4,
      "note": 90,
      "start": 69.7816,
      "duration": 0.0762,
      "velocity": 99,
      "chip": "ym2612"
    },
    {
      "channel": 0,
      "note": 76,
      "start": 69.8149,
      "duration": 0.4181,
      "velocity": 87,
      "chip": "ym2612"
    },
    {
      "channel": 1,
      "note": 73,
      "start": 69.8495,
      "duration": 0.0158,
      "velocity": 87,
      "chip": "ym2612"
    },
    {
      "channel": 2,
      "note": 40,
      "start": 69.8499,
      "duration": 0.6522,
      "velocity": 97,
      "chip": "ym2612"
    },
    {
      "channel": 3,
      "note": 85,
      "start": 69.8508,
      "duration": 0.0149,
      "velocity": 99,
      "chip": "ym2612"
    },
    {
      "channel": 4,
      "note": 85,
      "start": 69.8603,
      "duration": 0.0155,
      "velocity": 99,
      "chip": "ym2612"
    },
    {
      "channel": 1,
      "note": 74,
      "start": 69.8674,
      "duration": 0.0165,
      "velocity": 87,
      "chip": "ym2612"
    },
    {
      "channel": 3,
      "note": 92,
      "start": 69.8682,
      "duration": 0.0162,
      "velocity": 99,
      "chip": "ym2612"
    },
    {
      "channel": 4,
      "note": 92,
      "start": 69.8787,
      "duration": 0.0141,
      "velocity": 99,
      "chip": "ym2612"
    },
    {
      "channel": 1,
      "note": 76,
      "start": 69.8861,
      "duration": 0.4923,
      "velocity": 87,
      "chip": "ym2612"
    },
    {
      "channel": 3,
      "note": 90,
      "start": 69.8869,
      "duration": 0.0137,
      "velocity": 99,
      "chip": "ym2612"
    },
    {
      "channel": 4,
      "note": 90,
      "start": 69.895,
      "duration": 0.0303,
      "velocity": 99,
      "chip": "ym2612"
    },
    {
      "channel": 3,
      "note": 88,
      "start": 69.9028,
      "duration": 0.0909,
      "velocity": 99,
      "chip": "ym2612"
    },
    {
      "channel": 4,
      "note": 88,
      "start": 69.9427,
      "duration": 0.1198,
      "velocity": 99,
      "chip": "ym2612"
    },
    {
      "channel": 3,
      "note": 83,
      "start": 70.0112,
      "duration": 0.1197,
      "velocity": 99,
      "chip": "ym2612"
    },
    {
      "channel": 4,
      "note": 83,
      "start": 70.0801,
      "duration": 0.1198,
      "velocity": 99,
      "chip": "ym2612"
    },
    {
      "channel": 3,
      "note": 92,
      "start": 70.1483,
      "duration": 0.1205,
      "velocity": 99,
      "chip": "ym2612"
    },
    {
      "channel": 4,
      "note": 92,
      "start": 70.2171,
      "duration": 0.0752,
      "velocity": 99,
      "chip": "ym2612"
    },
    {
      "channel": 0,
      "note": 74,
      "start": 70.2504,
      "duration": 0.0935,
      "velocity": 87,
      "chip": "ym2612"
    },
    {
      "channel": 3,
      "note": 90,
      "start": 70.2858,
      "duration": 0.0144,
      "velocity": 99,
      "chip": "ym2612"
    },
    {
      "channel": 4,
      "note": 90,
      "start": 70.2946,
      "duration": 0.0161,
      "velocity": 99,
      "chip": "ym2612"
    },
    {
      "channel": 3,
      "note": 88,
      "start": 70.3024,
      "duration": 0.0767,
      "velocity": 99,
      "chip": "ym2612"
    },
    {
      "channel": 4,
      "note": 88,
      "start": 70.328,
      "duration": 0.0755,
      "velocity": 99,
      "chip": "ym2612"
    },
    {
      "channel": 0,
      "note": 73,
      "start": 70.3612,
      "duration": 0.1741,
      "velocity": 87,
      "chip": "ym2612"
    },
    {
      "channel": 1,
      "note": 74,
      "start": 70.3957,
      "duration": 0.033,
      "velocity": 87,
      "chip": "ym2612"
    },
    {
      "channel": 3,
      "note": 83,
      "start": 70.3967,
      "duration": 0.0151,
      "velocity": 99,
      "chip": "ym2612"
    },
    {
      "channel": 4,
      "note": 83,
      "start": 70.4059,
      "duration": 0.0146,
      "velocity": 99,
      "chip": "ym2612"
    },
    {
      "channel": 3,
      "note": 92,
      "start": 70.4139,
      "duration": 0.0153,
      "velocity": 99,
      "chip": "ym2612"
    },
    {
      "channel": 4,
      "note": 92,
      "start": 70.4226,
      "duration": 0.0191,
      "velocity": 99,
      "chip": "ym2612"
    },
    {
      "channel": 1,
      "note": 73,
      "start": 70.4327,
      "duration": 0.1459,
      "velocity": 87,
      "chip": "ym2612"
    },
    {
      "channel": 3,
      "note": 90,
      "start": 70.4342,
      "duration": 0.0156,
      "velocity": 99,
      "chip": "ym2612"
    },
    {
      "channel": 4,
      "note": 90,
      "start": 70.4439,
      "duration": 0.0146,
      "velocity": 99,
      "chip": "ym2612"
    },
    {
      "channel": 3,
      "note": 88,
      "start": 70.4524,
      "duration": 0.0151,
      "velocity": 99,
      "chip": "ym2612"
    },
    {
      "channel": 4,
      "note": 88,
      "start": 70.4611,
      "duration": 0.016,
      "velocity": 99,
      "chip": "ym2612"
    },
    {
      "channel": 3,
      "note": 83,
      "start": 70.4706,
      "duration": 0.0148,
      "velocity": 99,
      "chip": "ym2612"
    },
    {
      "channel": 4,
      "note": 83,
      "start": 70.4794,
      "duration": 0.015,
      "velocity": 99,
      "chip": "ym2612"
    },
    {
      "channel": 3,
      "note": 92,
      "start": 70.4877,
      "duration": 0.0147,
      "velocity": 99,
      "chip": "ym2612"
    },
    {
      "channel": 4,
      "note": 92,
      "start": 70.4967,
      "duration": 0.0178,
      "velocity": 99,
      "chip": "ym2612"
    },
    {
      "channel": 2,
      "note": 40,
      "start": 70.505,
      "duration": 0.035,
      "velocity": 97,
      "chip": "ym2612"
    },
    {
      "channel": 3,
      "note": 90,
      "start": 70.5056,
      "duration": 0.0173,
      "velocity": 99,
      "chip": "ym2612"
    },
    {
      "channel": 4,
      "note": 90,
      "start": 70.5172,
      "duration": 0.0146,
      "velocity": 99,
      "chip": "ym2612"
    },
    {
      "channel": 3,
      "note": 88,
      "start": 70.5251,
      "duration": 0.0151,
      "velocity": 99,
      "chip": "ym2612"
    },
    {
      "channel": 4,
      "note": 88,
      "start": 70.534,
      "duration": 0.0188,
      "velocity": 99,
      "chip": "ym2612"
    },
    {
      "channel": 0,
      "note": 59,
      "start": 70.5376,
      "duration": 0.0192,
      "velocity": 87,
      "chip": "ym2612"
    },
    {
      "channel": 2,
      "note": 42,
      "start": 70.5455,
      "duration": 0.9647,
      "velocity": 97,
      "chip": "ym2612"
    },
    {
      "channel": 3,
      "note": 83,
      "start": 70.5463,
      "duration": 0.0154,
      "velocity": 99,
      "chip": "ym2612"
    },
    {
      "channel": 4,
      "note": 83,
      "start": 70.5553,
      "duration": 0.0153,
      "velocity": 99,
      "chip": "ym2612"
    },
    {
      "channel": 0,
      "note": 61,
      "start": 70.5589,
      "duration": 0.015,
      "velocity": 87,
      "chip": "ym2612"
    },
    {
      "channel": 3,
      "note": 93,
      "start": 70.5639,
      "duration": 0.0154,
      "velocity": 99,
      "chip": "ym2612"
    },
    {
      "channel": 4,
      "note": 93,
      "start": 70.5729,
      "duration": 0.0154,
      "velocity": 99,
      "chip": "ym2612"
    },
    {
      "channel": 0,
      "note": 62,
      "start": 70.5764,
      "duration": 0.0163,
      "velocity": 87,
      "chip": "ym2612"
    },
    {
      "channel": 1,
      "note": 59,
      "start": 70.5808,
      "duration": 0.017,
      "velocity": 87,
      "chip": "ym2612"
    },
    {
      "channel": 3,
      "note": 92,
      "start": 70.5817,
      "duration": 0.0168,
      "velocity": 99,
      "chip": "ym2612"
    },
    {
      "channel": 4,
      "note": 92,
      "start": 70.5917,
      "duration": 0.0268,
      "velocity": 99,
      "chip": "ym2612"
    },
    {
      "channel": 0,
      "note": 66,
      "start": 70.5956,
      "duration": 0.0562,
      "velocity": 87,
      "chip": "ym2612"
    },
    {
      "channel": 1,
      "note": 61,
      "start": 70.6001,
      "duration": 0.0863,
      "velocity": 87,
      "chip": "ym2612"
    },
    {
      "channel": 3,
      "note": 90,
      "start": 70.6009,
      "duration": 0.086,
      "velocity": 99,
      "chip": "ym2612"
    },
    {
      "channel": 4,
      "note": 90,
      "start": 70.6359,
      "duration": 0.1199,
      "velocity": 99,
      "chip": "ym2612"
    },
    {
      "channel": 0,
      "note": 71,
      "start": 70.6692,
      "duration": 0.8061,
      "velocity": 87,
      "chip": "ym2612"
    },
    {
      "channel": 1,
      "note": 62,
      "start": 70.7038,
      "duration": 0.1198,
      "velocity": 87,
      "chip": "ym2612"
    },
    {
      "channel": 3,
      "note": 85,
      "start": 70.7047,
      "duration": 0.1195,
      "velocity": 99,
      "chip": "ym2612"
    },
    {
      "channel": 4,
      "note": 85,
      "start": 70.7734,
      "duration": 0.1197,
      "velocity": 99,
      "chip": "ym2612"
    },
    {
      "channel": 1,
      "note": 66,
      "start": 70.841,
      "duration": 0.1199,
      "velocity": 87,
      "chip": "ym2612"
    },
    {
      "channel": 3,
      "note": 93,
      "start": 70.8418,
      "duration": 0.1196,
      "velocity": 99,
      "chip": "ym2612"
    },
    {
      "channel": 4,
      "note": 93,
      "start": 70.9104,
      "duration": 0.075,
      "velocity": 99,
      "chip": "ym2612"
    },
    {
      "channel": 1,
      "note": 71,
      "start": 70.9782,
      "duration": 0.6451,
      "velocity": 87,
      "chip": "ym2612"
    },
    {
      "channel": 3,
      "note": 92,
      "start": 70.979,
      "duration": 0.0167,
      "velocity": 99,
      "chip": "ym2612"
    },
    {
      "channel": 4,
      "note": 92,
      "start": 70.9876,
      "duration": 0.0194,
      "velocity": 99,
      "chip": "ym2612"
    },
    {
      "channel": 3,
      "note": 90,
      "start": 70.9984,
      "duration": 0.077,
      "velocity": 99,
      "chip": "ym2612"
    },
    {
      "channel": 4,
      "note": 90,
      "start": 71.0244,
      "duration": 0.0749,
      "velocity": 99,
      "chip": "ym2612"
    },
    {
      "channel": 3,
      "note": 85,
      "start": 71.0929,
      "duration": 0.0143,
      "velocity": 99,
      "chip": "ym2612"
    },
    {
      "channel": 4,
      "note": 85,
      "start": 71.1017,
      "duration": 0.0142,
      "velocity": 99,
      "chip": "ym2612"
    },
    {
      "channel": 3,
      "note": 93,
      "start": 71.1095,
      "duration": 0.0142,
      "velocity": 99,
      "chip": "ym2612"
    },
    {
      "channel": 4,
      "note": 93,
      "start": 71.118,
      "duration": 0.0151,
      "velocity": 99,
      "chip": "ym2612"
    },
    {
      "channel": 3,
      "note": 92,
      "start": 71.1263,
      "duration": 0.0153,
      "velocity": 99,
      "chip": "ym2612"
    },
    {
      "channel": 4,
      "note": 92,
      "start": 71.1354,
      "duration": 0.0326,
      "velocity": 99,
      "chip": "ym2612"
    },
    {
      "channel": 3,
      "note": 90,
      "start": 71.145,
      "duration": 0.091,
      "velocity": 99,
      "chip": "ym2612"
    },
    {
      "channel": 4,
      "note": 90,
      "start": 71.185,
      "duration": 0.1198,
      "velocity": 99,
      "chip": "ym2612"
    },
    {
      "channel": 3,
      "note": 85,
      "start": 71.2535,
      "duration": 0.1198,
      "velocity": 99,
      "chip": "ym2612"
    },
    {
      "channel": 4,
      "note": 85,
      "start": 71.3223,
      "duration": 0.1198,
      "velocity": 99,
      "chip": "ym2612"
    },
    {
      "channel": 3,
      "note": 93,
      "start": 71.3906,
      "duration": 0.1199,
      "velocity": 99,
      "chip": "ym2612"
    },
    {
      "channel": 4,
      "note": 93,
      "start": 71.4595,
      "duration": 0.0753,
      "velocity": 99,
      "chip": "ym2612"
    },
    {
      "channel": 0,
      "note": 73,
      "start": 71.4927,
      "duration": 0.0453,
      "velocity": 87,
      "chip": "ym2612"
    },
    {
      "channel": 2,
      "note": 42,
      "start": 71.5274,
      "duration": 0.0961,
      "velocity": 97,
      "chip": "ym2612"
    },
    {
      "channel": 3,
      "note": 92,
      "start": 71.528,
      "duration": 0.0152,
      "velocity": 99,
      "chip": "ym2612"
    },
    {
      "channel": 4,
      "note": 92,
      "start": 71.537,
      "duration": 0.019,
      "velocity": 99,
      "chip": "ym2612"
    },
    {
      "channel": 0,
      "note": 74,
      "start": 71.5405,
      "duration": 0.0486,
      "velocity": 87,
      "chip": "ym2612"
    },
    {
      "channel": 3,
      "note": 90,
      "start": 71.5454,
      "duration": 0.0785,
      "velocity": 99,
      "chip": "ym2612"
    },
    {
      "channel": 4,
      "note": 90,
      "start": 71.5734,
      "duration": 0.0748,
      "velocity": 99,
      "chip": "ym2612"
    },
    {
      "channel": 0,
      "note": 76,
      "start": 71.6091,
      "duration": 0.4141,
      "velocity": 87,
      "chip": "ym2612"
    },
    {
      "channel": 1,
      "note": 73,
      "start": 71.6406,
      "duration": 0.0157,
      "velocity": 87,
      "chip": "ym2612"
    },
    {
      "channel": 2,
      "note": 40,
      "start": 71.6411,
      "duration": 0.6514,
      "velocity": 97,
      "chip": "ym2612"
    },
    {
      "channel": 3,
      "note": 85,
      "start": 71.642,
      "duration": 0.015,
      "velocity": 99,
      "chip": "ym2612"
    },
    {
      "channel": 4,
      "note": 85,
      "start": 71.6507,
      "duration": 0.0153,
      "velocity": 99,
      "chip": "ym2612"
    },
    {
      "channel": 1,
      "note": 74,
      "start": 71.6585,
      "duration": 0.015,
      "velocity": 87,
      "chip": "ym2612"
    },
    {
      "channel": 3,
      "note": 92,
      "start": 71.6593,
      "duration": 0.0147,
      "velocity": 99,
      "chip": "ym2612"
    },
    {
      "channel": 4,
      "note": 92,
      "start": 71.6682,
      "duration": 0.0143,
      "velocity": 99,
      "chip": "ym2612"
    },
    {
      "channel": 1,
      "note": 76,
      "start": 71.6757,
      "duration": 0.4933,
      "velocity": 87,
      "chip": "ym2612"
    },
    {
      "channel": 3,
      "note": 90,
      "start": 71.6765,
      "duration": 0.014,
      "velocity": 99,
      "chip": "ym2612"
    },
    {
      "channel": 4,
      "note": 90,
      "start": 71.6846,
      "duration": 0.0308,
      "velocity": 99,
      "chip": "ym2612"
    },
    {
      "channel": 3,
      "note": 88,
      "start": 71.6927,
      "duration": 0.0916,
      "velocity": 99,
      "chip": "ym2612"
    },
    {
      "channel": 4,
      "note": 88,
      "start": 71.7335,
      "duration": 0.1192,
      "velocity": 99,
      "chip": "ym2612"
    },
    {
      "channel": 3,
      "note": 83,
      "start": 71.8015,
      "duration": 0.1196,
      "velocity": 99,
      "chip": "ym2612"
    },
    {
      "channel": 4,
      "note": 83,
      "start": 71.8703,
      "duration": 0.1198,
      "velocity": 99,
      "chip": "ym2612"
    },
    {
      "channel": 3,
      "note": 92,
      "start": 71.9385,
      "duration": 0.1198,
      "velocity": 99,
      "chip": "ym2612"
    },
    {
      "channel": 4,
      "note": 92,
      "start": 72.0073,
      "duration": 0.0749,
      "velocity": 99,
      "chip": "ym2612"
    },
    {
      "channel": 0,
      "note": 78,
      "start": 72.0406,
      "duration": 0.094,
      "velocity": 87,
      "chip": "ym2612"
    },
    {
      "channel": 3,
      "note": 90,
      "start": 72.0757,
      "duration": 0.0144,
      "velocity": 99,
      "chip": "ym2612"
    },
    {
      "channel": 4,
      "note": 90,
      "start": 72.0845,
      "duration": 0.0168,
      "velocity": 99,
      "chip": "ym2612"
    },
    {
      "channel": 3,
      "note": 88,
      "start": 72.0923,
      "duration": 0.078,
      "velocity": 99,
      "chip": "ym2612"
    },
    {
      "channel": 4,
      "note": 88,
      "start": 72.1187,
      "duration": 0.0766,
      "velocity": 99,
      "chip": "ym2612"
    },
    {
      "channel": 0,
      "note": 73,
      "start": 72.1519,
      "duration": 0.1694,
      "velocity": 87,
      "chip": "ym2612"
    },
    {
      "channel": 1,
      "note": 78,
      "start": 72.1869,
      "duration": 0.0324,
      "velocity": 87,
      "chip": "ym2612"
    },
    {
      "channel": 3,
      "note": 83,
      "start": 72.188,
      "duration": 0.0154,
      "velocity": 99,
      "chip": "ym2612"
    },
    {
      "channel": 4,
      "note": 83,
      "start": 72.1976,
      "duration": 0.0144,
      "velocity": 99,
      "chip": "ym2612"
    },
    {
      "channel": 3,
      "note": 92,
      "start": 72.2055,
      "duration": 0.0143,
      "velocity": 99,
      "chip": "ym2612"
    },
    {
      "channel": 4,
      "note": 92,
      "start": 72.2142,
      "duration": 0.0155,
      "velocity": 99,
      "chip": "ym2612"
    },
    {
      "channel": 1,
      "note": 73,
      "start": 72.2221,
      "duration": 0.1456,
      "velocity": 87,
      "chip": "ym2612"
    },
    {
      "channel": 3,
      "note": 90,
      "start": 72.223,
      "duration": 0.0151,
      "velocity": 99,
      "chip": "ym2612"
    },
    {
      "channel": 4,
      "note": 90,
      "start": 72.232,
      "duration": 0.0147,
      "velocity": 99,
      "chip": "ym2612"
    },
    {
      "channel": 3,
      "note": 88,
      "start": 72.2406,
      "duration": 0.0147,
      "velocity": 99,
      "chip": "ym2612"
    },
    {
      "channel": 4,
      "note": 88,
      "start": 72.2494,
      "duration": 0.0185,
      "velocity": 99,
      "chip": "ym2612"
    },
    {
      "channel": 3,
      "note": 83,
      "start": 72.2592,
      "duration": 0.0167,
      "velocity": 99,
      "chip": "ym2612"
    },
    {
      "channel": 4,
      "note": 83,
      "start": 72.2703,
      "duration": 0.0141,
      "velocity": 99,
      "chip": "ym2612"
    },
    {
      "channel": 3,
      "note": 92,
      "start": 72.2781,
      "duration": 0.0146,
      "velocity": 99,
      "chip": "ym2612"
    },
    {
      "channel": 4,
      "note": 92,
      "start": 72.2867,
      "duration": 0.0152,
      "velocity": 99,
      "chip": "ym2612"
    },
    {
      "channel": 2,
      "note": 40,
      "start": 72.2948,
      "duration": 0.0316,
      "velocity": 97,
      "chip": "ym2612"
    },
    {
      "channel": 3,
      "note": 90,
      "start": 72.2954,
      "duration": 0.0143,
      "velocity": 99,
      "chip": "ym2612"
    },
    {
      "channel": 4,
      "note": 90,
      "start": 72.3041,
      "duration": 0.0139,
      "velocity": 99,
      "chip": "ym2612"
    },
    {
      "channel": 3,
      "note": 88,
      "start": 72.3119,
      "duration": 0.0147,
      "velocity": 99,
      "chip": "ym2612"
    },
    {
      "channel": 4,
      "note": 88,
      "start": 72.3203,
      "duration": 0.022,
      "velocity": 99,
      "chip": "ym2612"
    },
    {
      "channel": 0,
      "note": 59,
      "start": 72.3235,
      "duration": 0.0231,
      "velocity": 87,
      "chip": "ym2612"
    },
    {
      "channel": 2,
      "note": 42,
      "start": 72.3331,
      "duration": 0.9607,
      "velocity": 97,
      "chip": "ym2612"
    },
    {
      "channel": 3,
      "note": 83,
      "start": 72.334,
      "duration": 0.0179,
      "velocity": 99,
      "chip": "ym2612"
    },
    {
      "channel": 4,
      "note": 83,
      "start": 72.3454,
      "duration": 0.0148,
      "velocity": 99,
      "chip": "ym2612"
    },
    {
      "channel": 0,
      "note": 61,
      "start": 72.3488,
      "duration": 0.0146,
      "velocity": 87,
      "chip": "ym2612"
    },
    {
      "channel": 3,
      "note": 93,
      "start": 72.3541,
      "duration": 0.0142,
      "velocity": 99,
      "chip": "ym2612"
    },
    {
      "channel": 4,
      "note": 93,
      "start": 72.3624,
      "duration": 0.0147,
      "velocity": 99,
      "chip": "ym2612"
    },
    {
      "channel": 0,
      "note": 62,
      "start": 72.3656,
      "duration": 0.0147,
      "velocity": 87,
      "chip": "ym2612"
    },
    {
      "channel": 1,
      "note": 59,
      "start": 72.37,
      "duration": 0.0145,
      "velocity": 87,
      "chip": "ym2612"
    },
    {
      "channel": 3,
      "note": 92,
      "start": 72.3708,
      "duration": 0.0143,
      "velocity": 99,
      "chip": "ym2612"
    },
    {
      "channel": 4,
      "note": 92,
      "start": 72.3793,
      "duration": 0.0258,
      "velocity": 99,
      "chip": "ym2612"
    },
    {
      "channel": 0,
      "note": 66,
      "start": 72.3824,
      "duration": 0.0561,
      "velocity": 87,
      "chip": "ym2612"
    },
    {
      "channel": 1,
      "note": 61,
      "start": 72.3866,
      "duration": 0.0863,
      "velocity": 87,
      "chip": "ym2612"
    },
    {
      "channel": 3,
      "note": 90,
      "start": 72.3875,
      "duration": 0.086,
      "velocity": 99,
      "chip": "ym2612"
    },
    {
      "channel": 4,
      "note": 90,
      "start": 72.4225,
      "duration": 0.1198,
      "velocity": 99,
      "chip": "ym2612"
    },
    {
      "channel": 0,
      "note": 71,
      "start": 72.4558,
      "duration": 0.8034,
      "velocity": 87,
      "chip": "ym2612"
    },
    {
      "channel": 1,
      "note": 62,
      "start": 72.4903,
      "duration": 0.1203,
      "velocity": 87,
      "chip": "ym2612"
    },
    {
      "channel": 3,
      "note": 85,
      "start": 72.4913,
      "duration": 0.12,
      "velocity": 99,
      "chip": "ym2612"
    },
    {
      "channel": 4,
      "note": 85,
      "start": 72.5602,
      "duration": 0.1194,
      "velocity": 99,
      "chip": "ym2612"
    },
    {
      "channel": 1,
      "note": 66,
      "start": 72.6278,
      "duration": 0.1195,
      "velocity": 87,
      "chip": "ym2612"
    },
    {
      "channel": 3,
      "note": 93,
      "start": 72.6287,
      "duration": 0.1192,
      "velocity": 99,
      "chip": "ym2612"
    },
    {
      "channel": 4,
      "note": 93,
      "start": 72.697,
      "duration": 0.075,
      "velocity": 99,
      "chip": "ym2612"
    },
    {
      "channel": 1,
      "note": 71,
      "start": 72.7647,
      "duration": 0.6406,
      "velocity": 87,
      "chip": "ym2612"
    },
    {
      "channel": 3,
      "note": 92,
      "start": 72.7656,
      "duration": 0.0142,
      "velocity": 99,
      "chip": "ym2612"
    },
    {
      "channel": 4,
      "note": 92,
      "start": 72.7742,
      "duration": 0.0164,
      "velocity": 99,
      "chip": "ym2612"
    },
    {
      "channel": 3,
      "note": 90,
      "start": 72.782,
      "duration": 0.0771,
      "velocity": 99,
      "chip": "ym2612"
    },
    {
      "channel": 4,
      "note": 90,
      "start": 72.808,
      "duration": 0.0749,
      "velocity": 99,
      "chip": "ym2612"
    },
    {
      "channel": 3,
      "note": 85,
      "start": 72.8764,
      "duration": 0.0154,
      "velocity": 99,
      "chip": "ym2612"
    },
    {
      "channel": 4,
      "note": 85,
      "start": 72.8856,
      "duration": 0.0168,
      "velocity": 99,
      "chip": "ym2612"
    },
    {
      "channel": 3,
      "note": 93,
      "start": 72.8953,
      "duration": 0.0149,
      "velocity": 99,
      "chip": "ym2612"
    },
    {
      "channel": 4,
      "note": 93,
      "start": 72.9046,
      "duration": 0.0143,
      "velocity": 99,
      "chip": "ym2612"
    },
    {
      "channel": 3,
      "note": 92,
      "start": 72.9125,
      "duration": 0.0147,
      "velocity": 99,
      "chip": "ym2612"
    },
    {
      "channel": 4,
      "note": 92,
      "start": 72.9212,
      "duration": 0.0302,
      "velocity": 99,
      "chip": "ym2612"
    },
    {
      "channel": 3,
      "note": 90,
      "start": 72.9299,
      "duration": 0.0898,
      "velocity": 99,
      "chip": "ym2612"
    },
    {
      "channel": 4,
      "note": 90,
      "start": 72.9687,
      "duration": 0.1199,
      "velocity": 99,
      "chip": "ym2612"
    },
    {
      "channel": 3,
      "note": 85,
      "start": 73.0373,
      "duration": 0.1198,
      "velocity": 99,
      "chip": "ym2612"
    },
    {
      "channel": 4,
      "note": 85,
      "start": 73.1061,
      "duration": 0.1204,
      "velocity": 99,
      "chip": "ym2612"
    },
    {
      "channel": 3,
      "note": 93,
      "start": 73.1743,
      "duration": 0.1199,
      "velocity": 99,
      "chip": "ym2612"
    },
    {
      "channel": 4,
      "note": 93,
      "start": 73.2436,
      "duration": 0.0746,
      "velocity": 99,
      "chip": "ym2612"
    },
    {
      "channel": 0,
      "note": 73,
      "start": 73.2764,
      "duration": 0.045,
      "velocity": 87,
      "chip": "ym2612"
    },
    {
      "channel": 2,
      "note": 42,
      "start": 73.3112,
      "duration": 0.0944,
      "velocity": 97,
      "chip": "ym2612"
    },
    {
      "channel": 3,
      "note": 92,
      "start": 73.3117,
      "duration": 0.0148,
      "velocity": 99,
      "chip": "ym2612"
    },
    {
      "channel": 4,
      "note": 92,
      "start": 73.3204,
      "duration": 0.0171,
      "velocity": 99,
      "chip": "ym2612"
    },
    {
      "channel": 0,
      "note": 74,
      "start": 73.3239,
      "duration": 0.0469,
      "velocity": 87,
      "chip": "ym2612"
    },
    {
      "channel": 3,
      "note": 90,
      "start": 73.3288,
      "duration": 0.0771,
      "velocity": 99,
      "chip": "ym2612"
    },
    {
      "channel": 4,
      "note": 90,
      "start": 73.3549,
      "duration": 0.0758,
      "velocity": 99,
      "chip": "ym2612"
    },
    {
      "channel": 0,
      "note": 76,
      "start": 73.3881,
      "duration": 0.4186,
      "velocity": 87,
      "chip": "ym2612"
    },
    {
      "channel": 1,
      "note": 73,
      "start": 73.4227,
      "duration": 0.0154,
      "velocity": 87,
      "chip": "ym2612"
    },
    {
      "channel": 2,
      "note": 40,
      "start": 73.4232,
      "duration": 0.6529,
      "velocity": 97,
      "chip": "ym2612"
    },
    {
      "channel": 3,
      "note": 85,
      "start": 73.424,
      "duration": 0.0145,
      "velocity": 99,
      "chip": "ym2612"
    },
    {
      "channel": 4,
      "note": 85,
      "start": 73.4331,
      "duration": 0.0147,
      "velocity": 99,
      "chip": "ym2612"
    },
    {
      "channel": 1,
      "note": 74,
      "start": 73.4401,
      "duration": 0.0171,
      "velocity": 87,
      "chip": "ym2612"
    },
    {
      "channel": 3,
      "note": 92,
      "start": 73.441,
      "duration": 0.0168,
      "velocity": 99,
      "chip": "ym2612"
    },
    {
      "channel": 4,
      "note": 92,
      "start": 73.4512,
      "duration": 0.0154,
      "velocity": 99,
      "chip": "ym2612"
    },
    {
      "channel": 1,
      "note": 76,
      "start": 73.4594,
      "duration": 0.4936,
      "velocity": 87,
      "chip": "ym2612"
    },
    {
      "channel": 3,
      "note": 90,
      "start": 73.4602,
      "duration": 0.014,
      "velocity": 99,
      "chip": "ym2612"
    },
    {
      "channel": 4,
      "note": 90,
      "start": 73.4687,
      "duration": 0.0302,
      "velocity": 99,
      "chip": "ym2612"
    },
    {
      "channel": 3,
      "note": 88,
      "start": 73.4765,
      "duration": 0.0909,
      "velocity": 99,
      "chip": "ym2612"
    },
    {
      "channel": 4,
      "note": 88,
      "start": 73.5163,
      "duration": 0.1198,
      "velocity": 99,
      "chip": "ym2612"
    },
    {
      "channel": 3,
      "note": 83,
      "start": 73.5848,
      "duration": 0.1197,
      "velocity": 99,
      "chip": "ym2612"
    },
    {
      "channel": 4,
      "note": 83,
      "start": 73.6537,
      "duration": 0.1198,
      "velocity": 99,
      "chip": "ym2612"
    },
    {
      "channel": 3,
      "note": 92,
      "start": 73.722,
      "duration": 0.1204,
      "velocity": 99,
      "chip": "ym2612"
    },
    {
      "channel": 4,
      "note": 92,
      "start": 73.7908,
      "duration": 0.0756,
      "velocity": 99,
      "chip": "ym2612"
    },
    {
      "channel": 0,
      "note": 74,
      "start": 73.824,
      "duration": 0.0945,
      "velocity": 87,
      "chip": "ym2612"
    },
    {
      "channel": 3,
      "note": 90,
      "start": 73.8597,
      "duration": 0.0149,
      "velocity": 99,
      "chip": "ym2612"
    },
    {
      "channel": 4,
      "note": 90,
      "start": 73.869,
      "duration": 0.0163,
      "velocity": 99,
      "chip": "ym2612"
    },
    {
      "channel": 3,
      "note": 88,
      "start": 73.8772,
      "duration": 0.0764,
      "velocity": 99,
      "chip": "ym2612"
    },
    {
      "channel": 4,
      "note": 88,
      "start": 73.9027,
      "duration": 0.0751,
      "velocity": 99,
      "chip": "ym2612"
    },
    {
      "channel": 0,
      "note": 73,
      "start": 73.9359,
      "duration": 0.1019,
      "velocity": 87,
      "chip": "ym2612"
    },
    {
      "channel": 1,
      "note": 74,
      "start": 73.9704,
      "duration": 0.0317,
      "velocity": 87,
      "chip": "ym2612"
    },
    {
      "channel": 3,
      "note": 83,
      "start": 73.9713,
      "duration": 0.0147,
      "velocity": 99,
      "chip": "ym2612"
    },
    {
      "channel": 4,
      "note": 83,
      "start": 73.9801,
      "duration": 0.0146,
      "velocity": 99,
      "chip": "ym2612"
    },
    {
      "channel": 3,
      "note": 92,
      "start": 73.9885,
      "duration": 0.014,
      "velocity": 99,
      "chip": "ym2612"
    },
    {
      "channel": 4,
      "note": 92,
      "start": 73.9968,
      "duration": 0.0185,
      "velocity": 99,
      "chip": "ym2612"
    },
    {
      "channel": 1,
      "note": 73,
      "start": 74.0062,
      "duration": 0.0695,
      "velocity": 87,
      "chip": "ym2612"
    },
    {
      "channel": 3,
      "note": 90,
      "start": 74.0077,
      "duration": 0.0175,
      "velocity": 99,
      "chip": "ym2612"
    },
    {
      "channel": 4,
      "note": 90,
      "start": 74.0175,
      "duration": 0.0164,
      "velocity": 99,
      "chip": "ym2612"
    },
    {
      "channel": 3,
      "note": 88,
      "start": 74.0277,
      "duration": 0.015,
      "velocity": 99,
      "chip": "ym2612"
    },
    {
      "channel": 4,
      "note": 88,
      "start": 74.0365,
      "duration": 0.0154,
      "velocity": 99,
      "chip": "ym2612"
    },
    {
      "channel": 0,
      "note": 69,
      "start": 74.04,
      "duration": 0.0689,
      "velocity": 87,
      "chip": "ym2612"
    },
    {
      "channel": 3,
      "note": 83,
      "start": 74.0455,
      "duration": 0.0141,
      "velocity": 99,
      "chip": "ym2612"
    },
    {
      "channel": 4,
      "note": 83,
      "start": 74.0541,
      "duration": 0.0144,
      "velocity": 99,
      "chip": "ym2612"
    },
    {
      "channel": 3,
      "note": 80,
      "start": 74.0622,
      "duration": 0.0141,
      "velocity": 99,
      "chip": "ym2612"
    },
    {
      "channel": 4,
      "note": 80,
      "start": 74.0707,
      "duration": 0.0183,
      "velocity": 99,
      "chip": "ym2612"
    },
    {
      "channel": 1,
      "note": 69,
      "start": 74.0792,
      "duration": 0.0684,
      "velocity": 87,
      "chip": "ym2612"
    },
    {
      "channel": 2,
      "note": 40,
      "start": 74.0797,
      "duration": 0.0337,
      "velocity": 97,
      "chip": "ym2612"
    },
    {
      "channel": 3,
      "note": 83,
      "start": 74.0803,
      "duration": 0.0171,
      "velocity": 99,
      "chip": "ym2612"
    },
    {
      "channel": 4,
      "note": 83,
      "start": 74.0919,
      "duration": 0.0139,
      "velocity": 99,
      "chip": "ym2612"
    },
    {
      "channel": 3,
      "note": 88,
      "start": 74.0996,
      "duration": 0.0141,
      "velocity": 99,
      "chip": "ym2612"
    },
    {
      "channel": 4,
      "note": 88,
      "start": 74.1079,
      "duration": 0.0156,
      "velocity": 99,
      "chip": "ym2612"
    },
    {
      "channel": 0,
      "note": 67,
      "start": 74.1111,
      "duration": 0.1837,
      "velocity": 87,
      "chip": "ym2612"
    },
    {
      "channel": 2,
      "note": 38,
      "start": 74.1163,
      "duration": 0.0316,
      "velocity": 97,
      "chip": "ym2612"
    },
    {
      "channel": 3,
      "note": 92,
      "start": 74.1171,
      "duration": 0.0146,
      "velocity": 99,
      "chip": "ym2612"
    },
    {
      "channel": 4,
      "note": 92,
      "start": 74.1259,
      "duration": 0.0144,
      "velocity": 99,
      "chip": "ym2612"
    },
    {
      "channel": 3,
      "note": 90,
      "start": 74.1338,
      "duration": 0.0144,
      "velocity": 99,
      "chip": "ym2612"
    },
    {
      "channel": 4,
      "note": 90,
      "start": 74.1426,
      "duration": 0.0161,
      "velocity": 99,
      "chip": "ym2612"
    },
    {
      "channel": 1,
      "note": 67,
      "start": 74.151,
      "duration": 0.148,
      "velocity": 87,
      "chip": "ym2612"
    },
    {
      "channel": 2,
      "note": 38,
      "start": 74.1515,
      "duration": 0.0149,
      "velocity": 97,
      "chip": "ym2612"
    },
    {
      "channel": 3,
      "note": 88,
      "start": 74.1521,
      "duration": 0.0177,
      "velocity": 99,
      "chip": "ym2612"
    },
    {
      "channel": 4,
      "note": 88,
      "start": 74.162,
      "duration": 0.0169,
      "velocity": 99,
      "chip": "ym2612"
    },
    {
      "channel": 2,
      "note": 38,
      "start": 74.1695,
      "duration": 0.0089,
      "velocity": 97,
      "chip": "ym2612"
    },
    {
      "channel": 3,
      "note": 86,
      "start": 74.1724,
      "duration": 0.0167,
      "velocity": 99,
      "chip": "ym2612"
    },
    {
      "channel": 2,
      "note": 38,
      "start": 74.1822,
      "duration": 0.0065,
      "velocity": 97,
      "chip": "ym2612"
    },
    {
      "channel": 4,
      "note": 86,
      "start": 74.1831,
      "duration": 0.0156,
      "velocity": 99,
      "chip": "ym2612"
    },
    {
      "channel": 2,
      "note": 38,
      "start": 74.1915,
      "duration": 0.0315,
      "velocity": 97,
      "chip": "ym2612"
    },
    {
      "channel": 3,
      "note": 81,
      "start": 74.1923,
      "duration": 0.0143,
      "velocity": 99,
      "chip": "ym2612"
    },
    {
      "channel": 4,
      "note": 81,
      "start": 74.201,
      "duration": 0.0144,
      "velocity": 99,
      "chip": "ym2612"
    },
    {
      "channel": 3,
      "note": 90,
      "start": 74.2089,
      "duration": 0.0145,
      "velocity": 99,
      "chip": "ym2612"
    },
    {
      "channel": 4,
      "note": 90,
      "start": 74.2177,
      "duration": 0.0162,
      "velocity": 99,
      "chip": "ym2612"
    },
    {
      "channel": 2,
      "note": 38,
      "start": 74.2263,
      "duration": 0.0144,
      "velocity": 97,
      "chip": "ym2612"
    },
    {
      "channel": 3,
      "note": 88,
      "start": 74.2269,
      "duration": 0.0178,
      "velocity": 99,
      "chip": "ym2612"
    },
    {
      "channel": 4,
      "note": 88,
      "start": 74.2361,
      "duration": 0.0186,
      "velocity": 99,
      "chip": "ym2612"
    },
    {
      "channel": 2,
      "note": 38,
      "start": 74.2443,
      "duration": 0.0099,
      "velocity": 97,
      "chip": "ym2612"
    },
    {
      "channel": 3,
      "note": 86,
      "start": 74.2479,
      "duration": 0.0169,
      "velocity": 99,
      "chip": "ym2612"
    },
    {
      "channel": 2,
      "note": 38,
      "start": 74.258,
      "duration": 0.0065,
      "velocity": 97,
      "chip": "ym2612"
    },
    {
      "channel": 4,
      "note": 86,
      "start": 74.2588,
      "duration": 0.0156,
      "velocity": 99,
      "chip": "ym2612"
    },
    {
      "channel": 2,
      "note": 38,
      "start": 74.2672,
      "duration": 0.0322,
      "velocity": 97,
      "chip": "ym2612"
    },
    {
      "channel": 3,
      "note": 81,
      "start": 74.268,
      "duration": 0.0145,
      "velocity": 99,
      "chip": "ym2612"
    },
    {
      "channel": 4,
      "note": 81,
      "start": 74.2767,
      "duration": 0.0145,
      "velocity": 99,
      "chip": "ym2612"
    },
    {
      "channel": 3,
      "note": 90,
      "start": 74.2851,
      "duration": 0.0146,
      "velocity": 99,
      "chip": "ym2612"
    },
    {
      "channel": 4,
      "note": 90,
      "start": 74.2938,
      "duration": 0.0156,
      "velocity": 99,
      "chip": "ym2612"
    },
    {
      "channel": 0,
      "note": 66,
      "start": 74.2969,
      "duration": 0.0387,
      "velocity": 87,
      "chip": "ym2612"
    },
    {
      "channel": 1,
      "note": 67,
      "start": 74.3021,
      "duration": 0.0378,
      "velocity": 87,
      "chip": "ym2612"
    },
    {
      "channel": 2,
      "note": 38,
      "start": 74.3026,
      "duration": 0.0126,
      "velocity": 97,
      "chip": "ym2612"
    },
    {
      "channel": 3,
      "note": 88,
      "start": 74.3032,
      "duration": 0.0151,
      "velocity": 99,
      "chip": "ym2612"
    },
    {
      "channel": 4,
      "note": 88,
      "start": 74.312,
      "duration": 0.0175,
      "velocity": 99,
      "chip": "ym2612"
    },
    {
      "channel": 2,
      "note": 38,
      "start": 74.318,
      "duration": 0.011,
      "velocity": 97,
      "chip": "ym2612"
    },
    {
      "channel": 3,
      "note": 86,
      "start": 74.3214,
      "duration": 0.0191,
      "velocity": 99,
      "chip": "ym2612"
    },
    {
      "channel": 2,
      "note": 38,
      "start": 74.3334,
      "duration": 0.0068,
      "velocity": 97,
      "chip": "ym2612"
    },
    {
      "channel": 4,
      "note": 86,
      "start": 74.3343,
      "duration": 0.016,
      "velocity": 99,
      "chip": "ym2612"
    },
    {
      "channel": 0,
      "note": 67,
      "start": 74.3377,
      "duration": 0.0318,
      "velocity": 87,
      "chip": "ym2612"
    },
    {
      "channel": 1,
      "note": 66,
      "start": 74.3427,
      "duration": 0.0314,
      "velocity": 87,
      "chip": "ym2612"
    },
    {
      "channel": 2,
      "note": 38,
      "start": 74.3432,
      "duration": 0.0312,
      "velocity": 97,
      "chip": "ym2612"
    },
    {
      "channel": 3,
      "note": 81,
      "start": 74.3439,
      "duration": 0.014,
      "velocity": 99,
      "chip": "ym2612"
    },
    {
      "channel": 4,
      "note": 81,
      "start": 74.3525,
      "duration": 0.0139,
      "velocity": 99,
      "chip": "ym2612"
    },
    {
      "channel": 3,
      "note": 85,
      "start": 74.36,
      "duration": 0.0147,
      "velocity": 99,
      "chip": "ym2612"
    },
    {
      "channel": 4,
      "note": 85,
      "start": 74.3685,
      "duration": 0.0164,
      "velocity": 99,
      "chip": "ym2612"
    },
    {
      "channel": 0,
      "note": 71,
      "start": 74.3716,
      "duration": 0.0345,
      "velocity": 87,
      "chip": "ym2612"
    },
    {
      "channel": 1,
      "note": 67,
      "start": 74.3775,
      "duration": 0.033,
      "velocity": 87,
      "chip": "ym2612"
    },
    {
      "channel": 2,
      "note": 38,
      "start": 74.378,
      "duration": 0.0327,
      "velocity": 97,
      "chip": "ym2612"
    },
    {
      "channel": 3,
      "note": 86,
      "start": 74.3786,
      "duration": 0.0138,
      "velocity": 99,
      "chip": "ym2612"
    },
    {
      "channel": 4,
      "note": 86,
      "start": 74.387,
      "duration": 0.0151,
      "velocity": 99,
      "chip": "ym2612"
    },
    {
      "channel": 3,
      "note": 88,
      "start": 74.3946,
      "duration": 0.0164,
      "velocity": 99,
      "chip": "ym2612"
    },
    {
      "channel": 4,
      "note": 88,
      "start": 74.4049,
      "duration": 0.0189,
      "velocity": 99,
      "chip": "ym2612"
    },
    {
      "channel": 0,
      "note": 73,
      "start": 74.4083,
      "duration": 0.1557,
      "velocity": 87,
      "chip": "ym2612"
    },
    {
      "channel": 1,
      "note": 71,
      "start": 74.4135,
      "duration": 0.04,
      "velocity": 87,
      "chip": "ym2612"
    },
    {
      "channel": 2,
      "note": 40,
      "start": 74.4166,
      "duration": 0.0371,
      "velocity": 97,
      "chip": "ym2612"
    },
    {
      "channel": 3,
      "note": 90,
      "start": 74.4174,
      "duration": 0.0209,
      "velocity": 99,
      "chip": "ym2612"
    },
    {
      "channel": 4,
      "note": 90,
      "start": 74.4329,
      "duration": 0.0135,
      "velocity": 99,
      "chip": "ym2612"
    },
    {
      "channel": 3,
      "note": 92,
      "start": 74.4405,
      "duration": 0.0136,
      "velocity": 99,
      "chip": "ym2612"
    },
    {
      "channel": 4,
      "note": 92,
      "start": 74.4486,
      "duration": 0.0199,
      "velocity": 99,
      "chip": "ym2612"
    },
    {
      "channel": 1,
      "note": 73,
      "start": 74.4611,
      "duration": 0.1433,
      "velocity": 87,
      "chip": "ym2612"
    },
    {
      "channel": 2,
      "note": 40,
      "start": 74.4616,
      "duration": 0.0123,
      "velocity": 97,
      "chip": "ym2612"
    },
    {
      "channel": 3,
      "note": 90,
      "start": 74.4622,
      "duration": 0.0143,
      "velocity": 99,
      "chip": "ym2612"
    },
    {
      "channel": 4,
      "note": 90,
      "start": 74.4706,
      "duration": 0.0147,
      "velocity": 99,
      "chip": "ym2612"
    },
    {
      "channel": 2,
      "note": 40,
      "start": 74.4761,
      "duration": 0.0087,
      "velocity": 97,
      "chip": "ym2612"
    },
    {
      "channel": 3,
      "note": 88,
      "start": 74.479,
      "duration": 0.0174,
      "velocity": 99,
      "chip": "ym2612"
    },
    {
      "channel": 2,
      "note": 40,
      "start": 74.4876,
      "duration": 0.0085,
      "velocity": 97,
      "chip": "ym2612"
    },
    {
      "channel": 4,
      "note": 88,
      "start": 74.489,
      "duration": 0.0173,
      "velocity": 99,
      "chip": "ym2612"
    },
    {
      "channel": 2,
      "note": 40,
      "start": 74.4992,
      "duration": 0.0322,
      "velocity": 97,
      "chip": "ym2612"
    },
    {
      "channel": 3,
      "note": 83,
      "start": 74.5,
      "duration": 0.0146,
      "velocity": 99,
      "chip": "ym2612"
    },
    {
      "channel": 4,
      "note": 83,
      "start": 74.5086,
      "duration": 0.0148,
      "velocity": 99,
      "chip": "ym2612"
    },
    {
      "channel": 3,
      "note": 92,
      "start": 74.5168,
      "duration": 0.0149,
      "velocity": 99,
      "chip": "ym2612"
    },
    {
      "channel": 4,
      "note": 92,
      "start": 74.5256,
      "duration": 0.0159,
      "velocity": 99,
      "chip": "ym2612"
    },
    {
      "channel": 2,
      "note": 40,
      "start": 74.5342,
      "duration": 0.0133,
      "velocity": 97,
      "chip": "ym2612"
    },
    {
      "channel": 3,
      "note": 90,
      "start": 74.5349,
      "duration": 0.0154,
      "velocity": 99,
      "chip": "ym2612"
    },
    {
      "channel": 4,
      "note": 90,
      "start": 74.5437,
      "duration": 0.0157,
      "velocity": 99,
      "chip": "ym2612"
    },
    {
      "channel": 2,
      "note": 40,
      "start": 74.5499,
      "duration": 0.009,
      "velocity": 97,
      "chip": "ym2612"
    },
    {
      "channel": 3,
      "note": 88,
      "start": 74.5528,
      "duration": 0.017,
      "velocity": 99,
      "chip": "ym2612"
    },
    {
      "channel": 2,
      "note": 40,
      "start": 74.5611,
      "duration": 0.0084,
      "velocity": 97,
      "chip": "ym2612"
    },
    {
      "channel": 4,
      "note": 88,
      "start": 74.562,
      "duration": 0.019,
      "velocity": 99,
      "chip": "ym2612"
    },
    {
      "channel": 0,
      "note": 69,
      "start": 74.5665,
      "duration": 0.1408,
      "velocity": 87,
      "chip": "ym2612"
    },
    {
      "channel": 2,
      "note": 40,
      "start": 74.5731,
      "duration": 0.0316,
      "velocity": 97,
      "chip": "ym2612"
    },
    {
      "channel": 3,
      "note": 83,
      "start": 74.5739,
      "duration": 0.015,
      "velocity": 99,
      "chip": "ym2612"
    },
    {
      "channel": 4,
      "note": 83,
      "start": 74.5833,
      "duration": 0.0137,
      "velocity": 99,
      "chip": "ym2612"
    },
    {
      "channel": 3,
      "note": 92,
      "start": 74.5911,
      "duration": 0.0139,
      "velocity": 99,
      "chip": "ym2612"
    },
    {
      "channel": 4,
      "note": 92,
      "start": 74.5992,
      "duration": 0.0158,
      "velocity": 99,
      "chip": "ym2612"
    },
    {
      "channel": 1,
      "note": 69,
      "start": 74.6076,
      "duration": 0.1045,
      "velocity": 87,
      "chip": "ym2612"
    },
    {
      "channel": 2,
      "note": 40,
      "start": 74.608,
      "duration": 0.0127,
      "velocity": 97,
      "chip": "ym2612"
    },
    {
      "channel": 3,
      "note": 90,
      "start": 74.6087,
      "duration": 0.0152,
      "velocity": 99,
      "chip": "ym2612"
    },
    {
      "channel": 4,
      "note": 90,
      "start": 74.6175,
      "duration": 0.0151,
      "velocity": 99,
      "chip": "ym2612"
    },
    {
      "channel": 2,
      "note": 40,
      "start": 74.6235,
      "duration": 0.0084,
      "velocity": 97,
      "chip": "ym2612"
    },
    {
      "channel": 3,
      "note": 88,
      "start": 74.6263,
      "duration": 0.0148,
      "velocity": 99,
      "chip": "ym2612"
    },
    {
      "channel": 2,
      "note": 40,
      "start": 74.6343,
      "duration": 0.0065,
      "velocity": 97,
      "chip": "ym2612"
    },
    {
      "channel": 4,
      "note": 88,
      "start": 74.6352,
      "duration": 0.0178,
      "velocity": 99,
      "chip": "ym2612"
    },
    {
      "channel": 2,
      "note": 40,
      "start": 74.6436,
      "duration": 0.0336,
      "velocity": 97,
      "chip": "ym2612"
    },
    {
      "channel": 3,
      "note": 90,
      "start": 74.6442,
      "duration": 0.0166,
      "velocity": 99,
      "chip": "ym2612"
    },
    {
      "channel": 4,
      "note": 90,
      "start": 74.6552,
      "duration": 0.0144,
      "velocity": 99,
      "chip": "ym2612"
    },
    {
      "channel": 3,
      "note": 92,
      "start": 74.6631,
      "duration": 0.0143,
      "velocity": 99,
      "chip": "ym2612"
    },
    {
      "channel": 4,
      "note": 92,
      "start": 74.6718,
      "duration": 0.0157,
      "velocity": 99,
      "chip": "ym2612"
    },
    {
      "channel": 2,
      "note": 40,
      "start": 74.68,
      "duration": 0.0324,
      "velocity": 97,
      "chip": "ym2612"
    },
    {
      "channel": 3,
      "note": 93,
      "start": 74.6805,
      "duration": 0.0151,
      "velocity": 99,
      "chip": "ym2612"
    },
    {
      "channel": 4,
      "note": 93,
      "start": 74.6897,
      "duration": 0.0144,
      "velocity": 99,
      "chip": "ym2612"
    },
    {
      "channel": 3,
      "note": 95,
      "start": 74.6979,
      "duration": 0.0147,
      "velocity": 99,
      "chip": "ym2612"
    },
    {
      "channel": 4,
      "note": 95,
      "start": 74.7063,
      "duration": 0.0249,
      "velocity": 99,
      "chip": "ym2612"
    },
    {
      "channel": 0,
      "note": 71,
      "start": 74.7095,
      "duration": 0.538,
      "velocity": 87,
      "chip": "ym2612"
    },
    {
      "channel": 1,
      "note": 54,
      "start": 74.7186,
      "duration": 0.0114,
      "velocity": 97,
      "chip": "ym2612"
    },
    {
      "channel": 2,
      "note": 42,
      "start": 74.7191,
      "duration": 0.0378,
      "velocity": 97,
      "chip": "ym2612"
    },
    {
      "channel": 3,
      "note": 92,
      "start": 74.7238,
      "duration": 0.0171,
      "velocity": 99,
      "chip": "ym2612"
    },
    {
      "channel": 1,
      "note": 54,
      "start": 74.7328,
      "duration": 0.0075,
      "velocity": 97,
      "chip": "ym2612"
    },
    {
      "channel": 4,
      "note": 92,
      "start": 74.7345,
      "duration": 0.0148,
      "velocity": 99,
      "chip": "ym2612"
    },
    {
      "channel": 1,
      "note": 54,
      "start": 74.7424,
      "duration": 0.0061,
      "velocity": 97,
      "chip": "ym2612"
    },
    {
      "channel": 3,
      "note": 93,
      "start": 74.7433,
      "duration": 0.0139,
      "velocity": 99,
      "chip": "ym2612"
    },
    {
      "channel": 1,
      "note": 54,
      "start": 74.7507,
      "duration": 0.006,
      "velocity": 97,
      "chip": "ym2612"
    },
    {
      "channel": 4,
      "note": 93,
      "start": 74.7518,
      "duration": 0.0164,
      "velocity": 99,
      "chip": "ym2612"
    },
    {
      "channel": 1,
      "note": 54,
      "start": 74.7603,
      "duration": 0.007,
      "velocity": 97,
      "chip": "ym2612"
    },
    {
      "channel": 2,
      "note": 42,
      "start": 74.7608,
      "duration": 0.0134,
      "velocity": 97,
      "chip": "ym2612"
    },
    {
      "channel": 3,
      "note": 92,
      "start": 74.7615,
      "duration": 0.0157,
      "velocity": 99,
      "chip": "ym2612"
    },
    {
      "channel": 1,
      "note": 54,
      "start": 74.7695,
      "duration": 0.0069,
      "velocity": 97,
      "chip": "ym2612"
    },
    {
      "channel": 4,
      "note": 92,
      "start": 74.7705,
      "duration": 0.0155,
      "velocity": 99,
      "chip": "ym2612"
    },
    {
      "channel": 2,
      "note": 42,
      "start": 74.7768,
      "duration": 0.0086,
      "velocity": 97,
      "chip": "ym2612"
    },
    {
      "channel": 1,
      "note": 54,
      "start": 74.7792,
      "duration": 0.006,
      "velocity": 97,
      "chip": "ym2612"
    },
    {
      "channel": 3,
      "note": 90,
      "start": 74.78,
      "duration": 0.0168,
      "velocity": 99,
      "chip": "ym2612"
    },
    {
      "channel": 1,
      "note": 54,
      "start": 74.7891,
      "duration": 0.0071,
      "velocity": 97,
      "chip": "ym2612"
    },
    {
      "channel": 2,
      "note": 42,
      "start": 74.7896,
      "duration": 0.0069,
      "velocity": 97,
      "chip": "ym2612"
    },
    {
      "channel": 4,
      "note": 90,
      "start": 74.7905,
      "duration": 0.0179,
      "velocity": 99,
      "chip": "ym2612"
    },
    {
      "channel": 1,
      "note": 54,
      "start": 74.8002,
      "duration": 0.0074,
      "velocity": 97,
      "chip": "ym2612"
    },
    {
      "channel": 2,
      "note": 42,
      "start": 74.8007,
      "duration": 0.0351,
      "velocity": 97,
      "chip": "ym2612"
    },
    {
      "channel": 3,
      "note": 85,
      "start": 74.8013,
      "duration": 0.0175,
      "velocity": 99,
      "chip": "ym2612"
    },
    {
      "channel": 1,
      "note": 54,
      "start": 74.8098,
      "duration": 0.0084,
      "velocity": 97,
      "chip": "ym2612"
    },
    {
      "channel": 4,
      "note": 85,
      "start": 74.8111,
      "duration": 0.017,
      "velocity": 99,
      "chip": "ym2612"
    },
    {
      "channel": 1,
      "note": 54,
      "start": 74.8207,
      "duration": 0.0066,
      "velocity": 97,
      "chip": "ym2612"
    },
    {
      "channel": 3,
      "note": 83,
      "start": 74.8216,
      "duration": 0.0146,
      "velocity": 99,
      "chip": "ym2612"
    },
    {
      "channel": 1,
      "note": 54,
      "start": 74.8295,
      "duration": 0.0061,
      "velocity": 97,
      "chip": "ym2612"
    },
    {
      "channel": 4,
      "note": 83,
      "start": 74.8305,
      "duration": 0.0164,
      "velocity": 99,
      "chip": "ym2612"
    },
    {
      "channel": 1,
      "note": 54,
      "start": 74.8394,
      "duration": 0.0068,
      "velocity": 97,
      "chip": "ym2612"
    },
    {
      "channel": 2,
      "note": 42,
      "start": 74.8398,
      "duration": 0.0129,
      "velocity": 97,
      "chip": "ym2612"
    },
    {
      "channel": 3,
      "note": 85,
      "start": 74.8405,
      "duration": 0.0149,
      "velocity": 99,
      "chip": "ym2612"
    },
    {
      "channel": 1,
      "note": 54,
      "start": 74.8483,
      "duration": 0.0063,
      "velocity": 97,
      "chip": "ym2612"
    },
    {
      "channel": 4,
      "note": 85,
      "start": 74.8494,
      "duration": 0.0149,
      "velocity": 99,
      "chip": "ym2612"
    },
    {
      "channel": 2,
      "note": 42,
      "start": 74.8551,
      "duration": 0.0087,
      "velocity": 97,
      "chip": "ym2612"
    },
    {
      "channel": 1,
      "note": 54,
      "start": 74.8574,
      "duration": 0.0061,
      "velocity": 97,
      "chip": "ym2612"
    },
    {
      "channel": 3,
      "note": 80,
      "start": 74.8582,
      "duration": 0.0165,
      "velocity": 99,
      "chip": "ym2612"
    },
    {
      "channel": 1,
      "note": 54,
      "start": 74.8673,
      "duration": 0.0068,
      "velocity": 97,
      "chip": "ym2612"
    },
    {
      "channel": 2,
      "note": 42,
      "start": 74.8678,
      "duration": 0.0065,
      "velocity": 97,
      "chip": "ym2612"
    },
    {
      "channel": 4,
      "note": 80,
      "start": 74.8687,
      "duration": 0.0174,
      "velocity": 99,
      "chip": "ym2612"
    },
    {
      "channel": 1,
      "note": 54,
      "start": 74.8781,
      "duration": 0.0073,
      "velocity": 97,
      "chip": "ym2612"
    },
    {
      "channel": 2,
      "note": 42,
      "start": 74.8786,
      "duration": 0.0353,
      "velocity": 97,
      "chip": "ym2612"
    },
    {
      "channel": 3,
      "note": 81,
      "start": 74.8792,
      "duration": 0.0157,
      "velocity": 99,
      "chip": "ym2612"
    },
    {
      "channel": 1,
      "note": 54,
      "start": 74.8876,
      "duration": 0.0069,
      "velocity": 97,
      "chip": "ym2612"
    },
    {
      "channel": 4,
      "note": 81,
      "start": 74.8886,
      "duration": 0.0172,
      "velocity": 99,
      "chip": "ym2612"
    },
    {
      "channel": 1,
      "note": 54,
      "start": 74.8971,
      "duration": 0.0078,
      "velocity": 97,
      "chip": "ym2612"
    },
    {
      "channel": 3,
      "note": 78,
      "start": 74.8987,
      "duration": 0.0155,
      "velocity": 99,
      "chip": "ym2612"
    },
    {
      "channel": 1,
      "note": 54,
      "start": 74.9075,
      "duration": 0.0061,
      "velocity": 97,
      "chip": "ym2612"
    },
    {
      "channel": 4,
      "note": 78,
      "start": 74.9086,
      "duration": 0.0179,
      "velocity": 99,
      "chip": "ym2612"
    },
    {
      "channel": 1,
      "note": 54,
      "start": 74.9189,
      "duration": 0.0068,
      "velocity": 97,
      "chip": "ym2612"
    },
    {
      "channel": 2,
      "note": 42,
      "start": 74.9195,
      "duration": 0.0128,
      "velocity": 97,
      "chip": "ym2612"
    },
    {
      "channel": 3,
      "note": 73,
      "start": 74.92,
      "duration": 0.0149,
      "velocity": 99,
      "chip": "ym2612"
    },
    {
      "channel": 1,
      "note": 54,
      "start": 74.9279,
      "duration": 0.0062,
      "velocity": 97,
      "chip": "ym2612"
    },
    {
      "channel": 4,
      "note": 73,
      "start": 74.929,
      "duration": 0.0153,
      "velocity": 99,
      "chip": "ym2612"
    },
    {
      "channel": 2,
      "note": 42,
      "start": 74.9346,
      "duration": 0.0091,
      "velocity": 97,
      "chip": "ym2612"
    },
    {
      "channel": 1,
      "note": 54,
      "start": 74.9373,
      "duration": 0.0062,
      "velocity": 97,
      "chip": "ym2612"
    },
    {
      "channel": 3,
      "note": 71,
      "start": 74.9381,
      "duration": 0.0167,
      "velocity": 99,
      "chip": "ym2612"
    },
    {
      "channel": 1,
      "note": 54,
      "start": 74.9476,
      "duration": 0.0067,
      "velocity": 97,
      "chip": "ym2612"
    },
    {
      "channel": 2,
      "note": 42,
      "start": 74.948,
      "duration": 0.0065,
      "velocity": 97,
      "chip": "ym2612"
    },
    {
      "channel": 4,
      "note": 71,
      "start": 74.9489,
      "duration": 0.0158,
      "velocity": 99,
      "chip": "ym2612"
    },
    {
      "channel": 1,
      "note": 54,
      "start": 74.9571,
      "duration": 0.0067,
      "velocity": 97,
      "chip": "ym2612"
    },
    {
      "channel": 2,
      "note": 42,
      "start": 74.9577,
      "duration": 0.0347,
      "velocity": 97,
      "chip": "ym2612"
    },
    {
      "channel": 3,
      "note": 73,
      "start": 74.9583,
      "duration": 0.0143,
      "velocity": 99,
      "chip": "ym2612"
    },
    {
      "channel": 1,
      "note": 54,
      "start": 74.966,
      "duration": 0.0061,
      "velocity": 97,
      "chip": "ym2612"
    },
    {
      "channel": 4,
      "note": 73,
      "start": 74.9671,
      "duration": 0.0165,
      "velocity": 99,
      "chip": "ym2612"
    },
    {
      "channel": 1,
      "note": 54,
      "start": 74.9742,
      "duration": 0.0079,
      "velocity": 97,
      "chip": "ym2612"
    },
    {
      "channel": 3,
      "note": 71,
      "start": 74.975,
      "duration": 0.0176,
      "velocity": 99,
      "chip": "ym2612"
    },
    {
      "channel": 1,
      "note": 54,
      "start": 74.9856,
      "duration": 0.0065,
      "velocity": 97,
      "chip": "ym2612"
    },
    {
      "channel": 4,
      "note": 71,
      "start": 74.9867,
      "duration": 0.0169,
      "velocity": 99,
      "chip": "ym2612"
    },
    {
      "channel": 1,
      "note": 54,
      "start": 74.9961,
      "duration": 0.0067,
      "velocity": 97,
      "chip": "ym2612"
    },
    {
      "channel": 2,
      "note": 40,
      "start": 74.9966,
      "duration": 0.0317,
      "velocity": 97,
      "chip": "ym2612"
    },
    {
      "channel": 3,
      "note": 69,
      "start": 74.9971,
      "duration": 0.0144,
      "velocity": 99,
      "chip": "ym2612"
    },
    {
      "channel": 1,
      "note": 54,
      "start": 75.0049,
      "duration": 0.0061,
      "velocity": 97,
      "chip": "ym2612"
    },
    {
      "channel": 4,
      "note": 69,
      "start": 75.006,
      "duration": 0.0141,
      "velocity": 99,
      "chip": "ym2612"
    },
    {
      "channel": 1,
      "note": 54,
      "start": 75.0132,
      "duration": 0.0061,
      "velocity": 97,
      "chip": "ym2612"
    },
    {
      "channel": 3,
      "note": 68,
      "start": 75.014,
      "duration": 0.0145,
      "velocity": 99,
      "chip": "ym2612"
    },
    {
      "channel": 1,
      "note": 54,
      "start": 75.0215,
      "duration": 0.0065,
      "velocity": 97,
      "chip": "ym2612"
    },
    {
      "channel": 4,
      "note": 68,
      "start": 75.0226,
      "duration": 0.0158,
      "velocity": 99,
      "chip": "ym2612"
    },
    {
      "channel": 1,
      "note": 54,
      "start": 75.0304,
      "duration": 0.0345,
      "velocity": 97,
      "chip": "ym2612"
    },
    {
      "channel": 2,
      "note": 42,
      "start": 75.0309,
      "duration": 0.0342,
      "velocity": 97,
      "chip": "ym2612"
    },
    {
      "channel": 3,
      "note": 69,
      "start": 75.0315,
      "duration": 0.0149,
      "velocity": 99,
      "chip": "ym2612"
    },
    {
      "channel": 4,
      "note": 69,
      "start": 75.0409,
      "duration": 0.0138,
      "velocity": 99,
      "chip": "ym2612"
    },
    {
      "channel": 3,
      "note": 66,
      "start": 75.0486,
      "duration": 0.0168,
      "velocity": 99,
      "chip": "ym2612"
    },
    {
      "channel": 4,
      "note": 66,
      "start": 75.0581,
      "duration": 0.0192,
      "velocity": 99,
      "chip": "ym2612"
    },
    {
      "channel": 1,
      "note": 49,
      "start": 75.0698,
      "duration": 0.0327,
      "velocity": 97,
      "chip": "ym2612"
    },
    {
      "channel": 2,
      "note": 42,
      "start": 75.0703,
      "duration": 0.0124,
      "velocity": 97,
      "chip": "ym2612"
    },
    {
      "channel": 3,
      "note": 68,
      "start": 75.0709,
      "duration": 0.0149,
      "velocity": 99,
      "chip": "ym2612"
    },
    {
      "channel": 4,
      "note": 68,
      "start": 75.0794,
      "duration": 0.0151,
      "velocity": 99,
      "chip": "ym2612"
    },
    {
      "channel": 2,
      "note": 42,
      "start": 75.0855,
      "duration": 0.0084,
      "velocity": 97,
      "chip": "ym2612"
    },
    {
      "channel": 3,
      "note": 69,
      "start": 75.0883,
      "duration": 0.0147,
      "velocity": 99,
      "chip": "ym2612"
    },
    {
      "channel": 2,
      "note": 42,
      "start": 75.0962,
      "duration": 0.0065,
      "velocity": 97,
      "chip": "ym2612"
    },
    {
      "channel": 4,
      "note": 69,
      "start": 75.0971,
      "duration": 0.0157,
      "velocity": 99,
      "chip": "ym2612"
    },
    {
      "channel": 1,
      "note": 54,
      "start": 75.1053,
      "duration": 0.0324,
      "velocity": 97,
      "chip": "ym2612"
    },
    {
      "channel": 2,
      "note": 42,
      "start": 75.1059,
      "duration": 0.0324,
      "velocity": 97,
      "chip": "ym2612"
    },
    {
      "channel": 3,
      "note": 73,
      "start": 75.1064,
      "duration": 0.0141,
      "velocity": 99,
      "chip": "ym2612"
    },
    {
      "channel": 4,
      "note": 73,
      "start": 75.115,
      "duration": 0.0138,
      "velocity": 99,
      "chip": "ym2612"
    },
    {
      "channel": 3,
      "note": 78,
      "start": 75.1227,
      "duration": 0.0162,
      "velocity": 99,
      "chip": "ym2612"
    },
    {
      "channel": 4,
      "note": 78,
      "start": 75.1309,
      "duration": 0.0194,
      "velocity": 99,
      "chip": "ym2612"
    },
    {
      "channel": 1,
      "note": 49,
      "start": 75.1423,
      "duration": 0.0343,
      "velocity": 97,
      "chip": "ym2612"
    },
    {
      "channel": 2,
      "note": 42,
      "start": 75.1428,
      "duration": 0.0131,
      "velocity": 97,
      "chip": "ym2612"
    },
    {
      "channel": 3,
      "note": 80,
      "start": 75.1434,
      "duration": 0.0164,
      "velocity": 99,
      "chip": "ym2612"
    },
    {
      "channel": 4,
      "note": 80,
      "start": 75.1526,
      "duration": 0.0159,
      "velocity": 99,
      "chip": "ym2612"
    },
    {
      "channel": 2,
      "note": 42,
      "start": 75.1595,
      "duration": 0.0083,
      "velocity": 97,
      "chip": "ym2612"
    },
    {
      "channel": 3,
      "note": 81,
      "start": 75.1623,
      "duration": 0.0149,
      "velocity": 99,
      "chip": "ym2612"
    },
    {
      "channel": 2,
      "note": 42,
      "start": 75.1703,
      "duration": 0.0066,
      "velocity": 97,
      "chip": "ym2612"
    },
    {
      "channel": 4,
      "note": 81,
      "start": 75.1712,
      "duration": 0.0158,
      "velocity": 99,
      "chip": "ym2612"
    },
    {
      "channel": 1,
      "note": 54,
      "start": 75.1795,
      "duration": 0.0315,
      "velocity": 97,
      "chip": "ym2612"
    },
    {
      "channel": 2,
      "note": 42,
      "start": 75.18,
      "duration": 0.0312,
      "velocity": 97,
      "chip": "ym2612"
    },
    {
      "channel": 3,
      "note": 85,
      "start": 75.1805,
      "duration": 0.0141,
      "velocity": 99,
      "chip": "ym2612"
    },
    {
      "channel": 4,
      "note": 85,
      "start": 75.1891,
      "duration": 0.0138,
      "velocity": 99,
      "chip": "ym2612"
    },
    {
      "channel": 3,
      "note": 90,
      "start": 75.1968,
      "duration": 0.0147,
      "velocity": 99,
      "chip": "ym2612"
    },
    {
      "channel": 4,
      "note": 90,
      "start": 75.2051,
      "duration": 0.0196,
      "velocity": 99,
      "chip": "ym2612"
    },
    {
      "channel": 1,
      "note": 49,
      "start": 75.215,
      "duration": 0.04,
      "velocity": 97,
      "chip": "ym2612"
    },
    {
      "channel": 2,
      "note": 42,
      "start": 75.2155,
      "duration": 0.0153,
      "velocity": 97,
      "chip": "ym2612"
    },
    {
      "channel": 3,
      "note": 92,
      "start": 75.2167,
      "duration": 0.018,
      "velocity": 99,
      "chip": "ym2612"
    },
    {
      "channel": 4,
      "note": 92,
      "start": 75.2273,
      "duration": 0.0163,
      "velocity": 99,
      "chip": "ym2612"
    },
    {
      "channel": 2,
      "note": 42,
      "start": 75.2344,
      "duration": 0.0087,
      "velocity": 97,
      "chip": "ym2612"
    },
    {
      "channel": 3,
      "note": 93,
      "start": 75.2377,
      "duration": 0.0179,
      "velocity": 99,
      "chip": "ym2612"
    },
    {
      "channel": 2,
      "note": 42,
      "start": 75.2454,
      "duration": 0.0098,
      "velocity": 97,
      "chip": "ym2612"
    },
    {
      "channel": 4,
      "note": 93,
      "start": 75.2463,
      "duration": 0.019,
      "velocity": 99,
      "chip": "ym2612"
    },
    {
      "channel": 0,
      "note": 61,
      "start": 75.2528,
      "duration": 0.0683,
      "velocity": 102,
      "chip": "ym2612"
    },
    {
      "channel": 1,
      "note": 54,
      "start": 75.2579,
      "duration": 0.0309,
      "velocity": 97,
      "chip": "ym2612"
    },
    {
      "channel": 2,
      "note": 42,
      "start": 75.2584,
      "duration": 0.0307,
      "velocity": 97,
      "chip": "ym2612"
    },
    {
      "channel": 3,
      "note": 97,
      "start": 75.259,
      "duration": 0.0142,
      "velocity": 99,
      "chip": "ym2612"
    },
    {
      "channel": 4,
      "note": 97,
      "start": 75.2675,
      "duration": 0.0143,
      "velocity": 99,
      "chip": "ym2612"
    },
    {
      "channel": 3,
      "note": 95,
      "start": 75.2754,
      "duration": 0.0141,
      "velocity": 99,
      "chip": "ym2612"
    },
    {
      "channel": 4,
      "note": 95,
      "start": 75.2839,
      "duration": 0.0168,
      "velocity": 99,
      "chip": "ym2612"
    },
    {
      "channel": 1,
      "note": 49,
      "start": 75.291,
      "duration": 0.0345,
      "velocity": 97,
      "chip": "ym2612"
    },
    {
      "channel": 2,
      "note": 42,
      "start": 75.2915,
      "duration": 0.0343,
      "velocity": 97,
      "chip": "ym2612"
    },
    {
      "channel": 3,
      "note": 93,
      "start": 75.2921,
      "duration": 0.0175,
      "velocity": 99,
      "chip": "ym2612"
    },
    {
      "channel": 4,
      "note": 93,
      "start": 75.3034,
      "duration": 0.0147,
      "velocity": 99,
      "chip": "ym2612"
    },
    {
      "channel": 3,
      "note": 92,
      "start": 75.3117,
      "duration": 0.0144,
      "velocity": 99,
      "chip": "ym2612"
    },
    {
      "channel": 0,
      "note": 66,
      "start": 75.3233,
      "duration": 0.2276,
      "velocity": 102,
      "chip": "ym2612"
    },
    {
      "channel": 2,
      "note": 54,
      "start": 75.3357,
      "duration": 0.0197,
      "velocity": 91,
      "chip": "ym2612"
    },
    {
      "channel": 1,
      "note": 66,
      "start": 75.3741,
      "duration": 0.2909,
      "velocity": 102,
      "chip": "ym2612"
    },
    {
      "channel": 2,
      "note": 54,
      "start": 75.3746,
      "duration": 0.0167,
      "velocity": 91,
      "chip": "ym2612"
    },
    {
      "channel": 2,
      "note": 54,
      "start": 75.4114,
      "duration": 0.0171,
      "velocity": 91,
      "chip": "ym2612"
    },
    {
      "channel": 3,
      "note": 88,
      "start": 75.4142,
      "duration": 0.0707,
      "velocity": 99,
      "chip": "ym2612"
    },
    {
      "channel": 4,
      "note": 92,
      "start": 75.4149,
      "duration": 0.0704,
      "velocity": 99,
      "chip": "ym2612"
    },
    {
      "channel": 2,
      "note": 54,
      "start": 75.4312,
      "duration": 0.0139,
      "velocity": 91,
      "chip": "ym2612"
    },
    {
      "channel": 2,
      "note": 54,
      "start": 75.4485,
      "duration": 0.0148,
      "velocity": 91,
      "chip": "ym2612"
    },
    {
      "channel": 2,
      "note": 54,
      "start": 75.4683,
      "duration": 0.0163,
      "velocity": 91,
      "chip": "ym2612"
    },
    {
      "channel": 2,
      "note": 54,
      "start": 75.4885,
      "duration": 0.0154,
      "velocity": 91,
      "chip": "ym2612"
    },
    {
      "channel": 3,
      "note": 73,
      "start": 75.4891,
      "duration": 0.0668,
      "velocity": 99,
      "chip": "ym2612"
    },
    {
      "channel": 4,
      "note": 69,
      "start": 75.4898,
      "duration": 0.0665,
      "velocity": 99,
      "chip": "ym2612"
    },
    {
      "channel": 2,
      "note": 54,
      "start": 75.5218,
      "duration": 0.0146,
      "velocity": 91,
      "chip": "ym2612"
    },
    {
      "channel": 0,
      "note": 68,
      "start": 75.5531,
      "duration": 0.0774,
      "velocity": 102,
      "chip": "ym2612"
    },
    {
      "channel": 3,
      "note": 78,
      "start": 75.5582,
      "duration": 0.1075,
      "velocity": 99,
      "chip": "ym2612"
    },
    {
      "channel": 4,
      "note": 73,
      "start": 75.5588,
      "duration": 0.1072,
      "velocity": 99,
      "chip": "ym2612"
    },
    {
      "channel": 0,
      "note": 69,
      "start": 75.6479,
      "duration": 0.0943,
      "velocity": 102,
      "chip": "ym2612"
    },
    {
      "channel": 1,
      "note": 68,
      "start": 75.6824,
      "duration": 0.0943,
      "velocity": 102,
      "chip": "ym2612"
    },
    {
      "channel": 3,
      "note": 76,
      "start": 75.6832,
      "duration": 0.094,
      "velocity": 99,
      "chip": "ym2612"
    },
    {
      "channel": 4,
      "note": 71,
      "start": 75.6839,
      "duration": 0.0937,
      "velocity": 99,
      "chip": "ym2612"
    },
    {
      "channel": 0,
      "note": 68,
      "start": 75.7597,
      "duration": 0.1289,
      "velocity": 102,
      "chip": "ym2612"
    },
    {
      "channel": 1,
      "note": 69,
      "start": 75.7939,
      "duration": 0.0296,
      "velocity": 102,
      "chip": "ym2612"
    },
    {
      "channel": 2,
      "note": 52,
      "start": 75.7944,
      "duration": 0.0143,
      "velocity": 91,
      "chip": "ym2612"
    },
    {
      "channel": 3,
      "note": 78,
      "start": 75.795,
      "duration": 0.1347,
      "velocity": 99,
      "chip": "ym2612"
    },
    {
      "channel": 4,
      "note": 73,
      "start": 75.7957,
      "duration": 0.1351,
      "velocity": 99,
      "chip": "ym2612"
    },
    {
      "channel": 1,
      "note": 68,
      "start": 75.8263,
      "duration": 0.1028,
      "velocity": 102,
      "chip": "ym2612"
    },
    {
      "channel": 2,
      "note": 52,
      "start": 75.8268,
      "duration": 0.0135,
      "velocity": 91,
      "chip": "ym2612"
    },
    {
      "channel": 2,
      "note": 52,
      "start": 75.8616,
      "duration": 0.0141,
      "velocity": 91,
      "chip": "ym2612"
    },
    {
      "channel": 2,
      "note": 52,
      "start": 75.8787,
      "duration": 0.0146,
      "velocity": 91,
      "chip": "ym2612"
    },
    {
      "channel": 0,
      "note": 59,
      "start": 75.8909,
      "duration": 0.0328,
      "velocity": 102,
      "chip": "ym2612"
    },
    {
      "channel": 2,
      "note": 52,
      "start": 75.8959,
      "duration": 0.0149,
      "velocity": 91,
      "chip": "ym2612"
    },
    {
      "channel": 2,
      "note": 52,
      "start": 75.9141,
      "duration": 0.0153,
      "velocity": 91,
      "chip": "ym2612"
    },
    {
      "channel": 0,
      "note": 64,
      "start": 75.9263,
      "duration": 0.0666,
      "velocity": 102,
      "chip": "ym2612"
    },
    {
      "channel": 1,
      "note": 59,
      "start": 75.9326,
      "duration": 0.0315,
      "velocity": 102,
      "chip": "ym2612"
    },
    {
      "channel": 2,
      "note": 52,
      "start": 75.9336,
      "duration": 0.0157,
      "velocity": 91,
      "chip": "ym2612"
    },
    {
      "channel": 3,
      "note": 76,
      "start": 75.9342,
      "duration": 0.2873,
      "velocity": 99,
      "chip": "ym2612"
    },
    {
      "channel": 4,
      "note": 71,
      "start": 75.9349,
      "duration": 0.2871,
      "velocity": 99,
      "chip": "ym2612"
    },
    {
      "channel": 1,
      "note": 64,
      "start": 75.9666,
      "duration": 0.1436,
      "velocity": 102,
      "chip": "ym2612"
    },
    {
      "channel": 2,
      "note": 52,
      "start": 75.9671,
      "duration": 0.0141,
      "velocity": 91,
      "chip": "ym2612"
    },
    {
      "channel": 0,
      "note": 61,
      "start": 75.9951,
      "duration": 0.1914,
      "velocity": 102,
      "chip": "ym2612"
    },
    {
      "channel": 1,
      "note": 61,
      "start": 76.1275,
      "duration": 0.1433,
      "velocity": 102,
      "chip": "ym2612"
    },
    {
      "channel": 0,
      "note": 66,
      "start": 76.2039,
      "duration": 0.238,
      "velocity": 102,
      "chip": "ym2612"
    },
    {
      "channel": 2,
      "note": 54,
      "start": 76.2387,
      "duration": 0.017,
      "velocity": 91,
      "chip": "ym2612"
    },
    {
      "channel": 1,
      "note": 66,
      "start": 76.2735,
      "duration": 0.2834,
      "velocity": 102,
      "chip": "ym2612"
    },
    {
      "channel": 2,
      "note": 54,
      "start": 76.274,
      "duration": 0.0139,
      "velocity": 91,
      "chip": "ym2612"
    },
    {
      "channel": 2,
      "note": 54,
      "start": 76.3065,
      "duration": 0.0159,
      "velocity": 91,
      "chip": "ym2612"
    },
    {
      "channel": 3,
      "note": 80,
      "start": 76.3071,
      "duration": 0.0702,
      "velocity": 99,
      "chip": "ym2612"
    },
    {
      "channel": 4,
      "note": 76,
      "start": 76.3077,
      "duration": 0.0699,
      "velocity": 99,
      "chip": "ym2612"
    },
    {
      "channel": 2,
      "note": 54,
      "start": 76.3265,
      "duration": 0.0149,
      "velocity": 91,
      "chip": "ym2612"
    },
    {
      "channel": 2,
      "note": 54,
      "start": 76.3441,
      "duration": 0.0139,
      "velocity": 91,
      "chip": "ym2612"
    },
    {
      "channel": 2,
      "note": 54,
      "start": 76.3622,
      "duration": 0.0147,
      "velocity": 91,
      "chip": "ym2612"
    },
    {
      "channel": 2,
      "note": 54,
      "start": 76.3797,
      "duration": 0.0147,
      "velocity": 91,
      "chip": "ym2612"
    },
    {
      "channel": 3,
      "note": 73,
      "start": 76.3803,
      "duration": 0.0665,
      "velocity": 99,
      "chip": "ym2612"
    },
    {
      "channel": 4,
      "note": 69,
      "start": 76.3809,
      "duration": 0.0663,
      "velocity": 99,
      "chip": "ym2612"
    },
    {
      "channel": 2,
      "note": 54,
      "start": 76.4159,
      "duration": 0.0143,
      "velocity": 91,
      "chip": "ym2612"
    },
    {
      "channel": 0,
      "note": 68,
      "start": 76.444,
      "duration": 0.0787,
      "velocity": 102,
      "chip": "ym2612"
    },
    {
      "channel": 3,
      "note": 78,
      "start": 76.4491,
      "duration": 0.1084,
      "velocity": 99,
      "chip": "ym2612"
    },
    {
      "channel": 4,
      "note": 73,
      "start": 76.4498,
      "duration": 0.1081,
      "velocity": 99,
      "chip": "ym2612"
    },
    {
      "channel": 0,
      "note": 69,
      "start": 76.5398,
      "duration": 0.094,
      "velocity": 102,
      "chip": "ym2612"
    },
    {
      "channel": 1,
      "note": 68,
      "start": 76.5742,
      "duration": 0.094,
      "velocity": 102,
      "chip": "ym2612"
    },
    {
      "channel": 3,
      "note": 76,
      "start": 76.5751,
      "duration": 0.0938,
      "velocity": 99,
      "chip": "ym2612"
    },
    {
      "channel": 4,
      "note": 71,
      "start": 76.5757,
      "duration": 0.0934,
      "velocity": 99,
      "chip": "ym2612"
    },
    {
      "channel": 0,
      "note": 71,
      "start": 76.6511,
      "duration": 0.1315,
      "velocity": 102,
      "chip": "ym2612"
    },
    {
      "channel": 1,
      "note": 69,
      "start": 76.6856,
      "duration": 0.0327,
      "velocity": 102,
      "chip": "ym2612"
    },
    {
      "channel": 2,
      "note": 52,
      "start": 76.6861,
      "duration": 0.0146,
      "velocity": 91,
      "chip": "ym2612"
    },
    {
      "channel": 3,
      "note": 78,
      "start": 76.6867,
      "duration": 0.138,
      "velocity": 99,
      "chip": "ym2612"
    },
    {
      "channel": 4,
      "note": 73,
      "start": 76.6873,
      "duration": 0.1378,
      "velocity": 99,
      "chip": "ym2612"
    },
    {
      "channel": 1,
      "note": 71,
      "start": 76.7213,
      "duration": 0.1029,
      "velocity": 102,
      "chip": "ym2612"
    },
    {
      "channel": 2,
      "note": 52,
      "start": 76.7218,
      "duration": 0.0139,
      "velocity": 91,
      "chip": "ym2612"
    },
    {
      "channel": 2,
      "note": 52,
      "start": 76.7549,
      "duration": 0.0141,
      "velocity": 91,
      "chip": "ym2612"
    },
    {
      "channel": 2,
      "note": 52,
      "start": 76.7724,
      "duration": 0.0162,
      "velocity": 91,
      "chip": "ym2612"
    },
    {
      "channel": 0,
      "note": 68,
      "start": 76.7854,
      "duration": 0.0343,
      "velocity": 102,
      "chip": "ym2612"
    },
    {
      "channel": 2,
      "note": 52,
      "start": 76.7923,
      "duration": 0.015,
      "velocity": 91,
      "chip": "ym2612"
    },
    {
      "channel": 2,
      "note": 52,
      "start": 76.8101,
      "duration": 0.0143,
      "velocity": 91,
      "chip": "ym2612"
    },
    {
      "channel": 0,
      "note": 68,
      "start": 76.8219,
      "duration": 0.0663,
      "velocity": 102,
      "chip": "ym2612"
    },
    {
      "channel": 1,
      "note": 68,
      "start": 76.8268,
      "duration": 0.0298,
      "velocity": 102,
      "chip": "ym2612"
    },
    {
      "channel": 2,
      "note": 52,
      "start": 76.8273,
      "duration": 0.0142,
      "velocity": 91,
      "chip": "ym2612"
    },
    {
      "channel": 3,
      "note": 80,
      "start": 76.828,
      "duration": 0.2897,
      "velocity": 99,
      "chip": "ym2612"
    },
    {
      "channel": 4,
      "note": 76,
      "start": 76.8286,
      "duration": 0.2895,
      "velocity": 99,
      "chip": "ym2612"
    },
    {
      "channel": 1,
      "note": 68,
      "start": 76.8599,
      "duration": 0.1432,
      "velocity": 102,
      "chip": "ym2612"
    },
    {
      "channel": 2,
      "note": 52,
      "start": 76.8604,
      "duration": 0.016,
      "velocity": 91,
      "chip": "ym2612"
    },
    {
      "channel": 0,
      "note": 61,
      "start": 76.8904,
      "duration": 0.1922,
      "velocity": 102,
      "chip": "ym2612"
    },
    {
      "channel": 1,
      "note": 61,
      "start": 77.0205,
      "duration": 0.1437,
      "velocity": 102,
      "chip": "ym2612"
    },
    {
      "channel": 0,
      "note": 66,
      "start": 77.0999,
      "duration": 0.2417,
      "velocity": 102,
      "chip": "ym2612"
    },
    {
      "channel": 2,
      "note": 54,
      "start": 77.1348,
      "duration": 0.0141,
      "velocity": 91,
      "chip": "ym2612"
    },
    {
      "channel": 1,
      "note": 66,
      "start": 77.1674,
      "duration": 0.2887,
      "velocity": 102,
      "chip": "ym2612"
    },
    {
      "channel": 2,
      "note": 54,
      "start": 77.168,
      "duration": 0.0162,
      "velocity": 91,
      "chip": "ym2612"
    },
    {
      "channel": 2,
      "note": 54,
      "start": 77.2048,
      "duration": 0.0152,
      "velocity": 91,
      "chip": "ym2612"
    },
    {
      "channel": 3,
      "note": 76,
      "start": 77.2054,
      "duration": 0.0708,
      "velocity": 99,
      "chip": "ym2612"
    },
    {
      "channel": 4,
      "note": 71,
      "start": 77.2061,
      "duration": 0.0705,
      "velocity": 99,
      "chip": "ym2612"
    },
    {
      "channel": 2,
      "note": 54,
      "start": 77.2232,
      "duration": 0.0143,
      "velocity": 91,
      "chip": "ym2612"
    },
    {
      "channel": 2,
      "note": 54,
      "start": 77.2408,
      "duration": 0.0149,
      "velocity": 91,
      "chip": "ym2612"
    },
    {
      "channel": 2,
      "note": 54,
      "start": 77.2606,
      "duration": 0.0153,
      "velocity": 91,
      "chip": "ym2612"
    },
    {
      "channel": 2,
      "note": 54,
      "start": 77.2798,
      "duration": 0.0151,
      "velocity": 91,
      "chip": "ym2612"
    },
    {
      "channel": 3,
      "note": 73,
      "start": 77.2804,
      "duration": 0.0661,
      "velocity": 99,
      "chip": "ym2612"
    },
    {
      "channel": 4,
      "note": 69,
      "start": 77.281,
      "duration": 0.0659,
      "velocity": 99,
      "chip": "ym2612"
    },
    {
      "channel": 2,
      "note": 54,
      "start": 77.3127,
      "duration": 0.0139,
      "velocity": 91,
      "chip": "ym2612"
    },
    {
      "channel": 0,
      "note": 68,
      "start": 77.3438,
      "duration": 0.0777,
      "velocity": 102,
      "chip": "ym2612"
    },
    {
      "channel": 3,
      "note": 78,
      "start": 77.3489,
      "duration": 0.1078,
      "velocity": 99,
      "chip": "ym2612"
    },
    {
      "channel": 4,
      "note": 73,
      "start": 77.3496,
      "duration": 0.1075,
      "velocity": 99,
      "chip": "ym2612"
    },
    {
      "channel": 0,
      "note": 69,
      "start": 77.439,
      "duration": 0.0942,
      "velocity": 102,
      "chip": "ym2612"
    },
    {
      "channel": 1,
      "note": 68,
      "start": 77.4734,
      "duration": 0.0944,
      "velocity": 102,
      "chip": "ym2612"
    },
    {
      "channel": 3,
      "note": 76,
      "start": 77.4743,
      "duration": 0.0941,
      "velocity": 99,
      "chip": "ym2612"
    },
    {
      "channel": 4,
      "note": 71,
      "start": 77.475,
      "duration": 0.0938,
      "velocity": 99,
      "chip": "ym2612"
    },
    {
      "channel": 0,
      "note": 68,
      "start": 77.5511,
      "duration": 0.1307,
      "velocity": 102,
      "chip": "ym2612"
    },
    {
      "channel": 1,
      "note": 69,
      "start": 77.585,
      "duration": 0.0303,
      "velocity": 102,
      "chip": "ym2612"
    },
    {
      "channel": 2,
      "note": 52,
      "start": 77.5855,
      "duration": 0.0147,
      "velocity": 91,
      "chip": "ym2612"
    },
    {
      "channel": 3,
      "note": 78,
      "start": 77.5861,
      "duration": 0.1367,
      "velocity": 99,
      "chip": "ym2612"
    },
    {
      "channel": 4,
      "note": 73,
      "start": 77.5868,
      "duration": 0.1365,
      "velocity": 99,
      "chip": "ym2612"
    },
    {
      "channel": 1,
      "note": 68,
      "start": 77.6181,
      "duration": 0.1041,
      "velocity": 102,
      "chip": "ym2612"
    },
    {
      "channel": 2,
      "note": 52,
      "start": 77.6187,
      "duration": 0.0139,
      "velocity": 91,
      "chip": "ym2612"
    },
    {
      "channel": 2,
      "note": 52,
      "start": 77.6542,
      "duration": 0.0146,
      "velocity": 91,
      "chip": "ym2612"
    },
    {
      "channel": 2,
      "note": 52,
      "start": 77.6716,
      "duration": 0.015,
      "velocity": 91,
      "chip": "ym2612"
    },
    {
      "channel": 0,
      "note": 59,
      "start": 77.684,
      "duration": 0.0331,
      "velocity": 102,
      "chip": "ym2612"
    },
    {
      "channel": 2,
      "note": 52,
      "start": 77.689,
      "duration": 0.0147,
      "velocity": 91,
      "chip": "ym2612"
    },
    {
      "channel": 2,
      "note": 52,
      "start": 77.7071,
      "duration": 0.0154,
      "velocity": 91,
      "chip": "ym2612"
    },
    {
      "channel": 0,
      "note": 64,
      "start": 77.7194,
      "duration": 0.066,
      "velocity": 102,
      "chip": "ym2612"
    },
    {
      "channel": 1,
      "note": 59,
      "start": 77.7256,
      "duration": 0.0319,
      "velocity": 102,
      "chip": "ym2612"
    },
    {
      "channel": 2,
      "note": 52,
      "start": 77.7263,
      "duration": 0.0159,
      "velocity": 91,
      "chip": "ym2612"
    },
    {
      "channel": 3,
      "note": 76,
      "start": 77.7273,
      "duration": 0.063,
      "velocity": 99,
      "chip": "ym2612"
    },
    {
      "channel": 4,
      "note": 71,
      "start": 77.7279,
      "duration": 0.0627,
      "velocity": 99,
      "chip": "ym2612"
    },
    {
      "channel": 1,
      "note": 64,
      "start": 77.76,
      "duration": 0.1437,
      "velocity": 102,
      "chip": "ym2612"
    },
    {
      "channel": 2,
      "note": 52,
      "start": 77.7604,
      "duration": 0.0136,
      "velocity": 91,
      "chip": "ym2612"
    },
    {
      "channel": 0,
      "note": 62,
      "start": 77.7876,
      "duration": 0.0815,
      "velocity": 102,
      "chip": "ym2612"
    },
    {
      "channel": 3,
      "note": 80,
      "start": 77.7926,
      "duration": 0.1117,
      "velocity": 99,
      "chip": "ym2612"
    },
    {
      "channel": 4,
      "note": 76,
      "start": 77.7933,
      "duration": 0.1114,
      "velocity": 99,
      "chip": "ym2612"
    },
    {
      "channel": 0,
      "note": 64,
      "start": 77.8865,
      "duration": 0.0943,
      "velocity": 102,
      "chip": "ym2612"
    },
    {
      "channel": 1,
      "note": 62,
      "start": 77.921,
      "duration": 0.0943,
      "velocity": 102,
      "chip": "ym2612"
    },
    {
      "channel": 3,
      "note": 78,
      "start": 77.9219,
      "duration": 0.0941,
      "velocity": 99,
      "chip": "ym2612"
    },
    {
      "channel": 4,
      "note": 74,
      "start": 77.9225,
      "duration": 0.0938,
      "velocity": 99,
      "chip": "ym2612"
    },
    {
      "channel": 0,
      "note": 66,
      "start": 77.9982,
      "duration": 0.2066,
      "velocity": 102,
      "chip": "ym2612"
    },
    {
      "channel": 1,
      "note": 64,
      "start": 78.0327,
      "duration": 0.0333,
      "velocity": 102,
      "chip": "ym2612"
    },
    {
      "channel": 2,
      "note": 50,
      "start": 78.0333,
      "duration": 0.0175,
      "velocity": 91,
      "chip": "ym2612"
    },
    {
      "channel": 3,
      "note": 80,
      "start": 78.0339,
      "duration": 0.2094,
      "velocity": 99,
      "chip": "ym2612"
    },
    {
      "channel": 4,
      "note": 76,
      "start": 78.0345,
      "duration": 0.2091,
      "velocity": 99,
      "chip": "ym2612"
    },
    {
      "channel": 1,
      "note": 66,
      "start": 78.0681,
      "duration": 0.1416,
      "velocity": 102,
      "chip": "ym2612"
    },
    {
      "channel": 2,
      "note": 50,
      "start": 78.0686,
      "duration": 0.0136,
      "velocity": 91,
      "chip": "ym2612"
    },
    {
      "channel": 2,
      "note": 50,
      "start": 78.1012,
      "duration": 0.0157,
      "velocity": 91,
      "chip": "ym2612"
    },
    {
      "channel": 2,
      "note": 50,
      "start": 78.1216,
      "duration": 0.0157,
      "velocity": 91,
      "chip": "ym2612"
    },
    {
      "channel": 2,
      "note": 50,
      "start": 78.1412,
      "duration": 0.0145,
      "velocity": 91,
      "chip": "ym2612"
    },
    {
      "channel": 2,
      "note": 50,
      "start": 78.1588,
      "duration": 0.0147,
      "velocity": 91,
      "chip": "ym2612"
    },
    {
      "channel": 2,
      "note": 50,
      "start": 78.1762,
      "duration": 0.0143,
      "velocity": 91,
      "chip": "ym2612"
    },
    {
      "channel": 0,
      "note": 62,
      "start": 78.2074,
      "duration": 0.0309,
      "velocity": 102,
      "chip": "ym2612"
    },
    {
      "channel": 1,
      "note": 66,
      "start": 78.2123,
      "duration": 0.0304,
      "velocity": 102,
      "chip": "ym2612"
    },
    {
      "channel": 2,
      "note": 50,
      "start": 78.2128,
      "duration": 0.0143,
      "velocity": 91,
      "chip": "ym2612"
    },
    {
      "channel": 0,
      "note": 64,
      "start": 78.2405,
      "duration": 0.0786,
      "velocity": 102,
      "chip": "ym2612"
    },
    {
      "channel": 1,
      "note": 62,
      "start": 78.245,
      "duration": 0.1084,
      "velocity": 102,
      "chip": "ym2612"
    },
    {
      "channel": 3,
      "note": 81,
      "start": 78.2458,
      "duration": 0.1082,
      "velocity": 99,
      "chip": "ym2612"
    },
    {
      "channel": 4,
      "note": 78,
      "start": 78.2465,
      "duration": 0.1079,
      "velocity": 99,
      "chip": "ym2612"
    },
    {
      "channel": 0,
      "note": 66,
      "start": 78.3364,
      "duration": 0.0937,
      "velocity": 102,
      "chip": "ym2612"
    },
    {
      "channel": 1,
      "note": 64,
      "start": 78.3707,
      "duration": 0.0939,
      "velocity": 102,
      "chip": "ym2612"
    },
    {
      "channel": 2,
      "note": 50,
      "start": 78.3712,
      "duration": 0.0937,
      "velocity": 91,
      "chip": "ym2612"
    },
    {
      "channel": 3,
      "note": 80,
      "start": 78.3718,
      "duration": 0.0934,
      "velocity": 99,
      "chip": "ym2612"
    },
    {
      "channel": 4,
      "note": 76,
      "start": 78.3724,
      "duration": 0.0931,
      "velocity": 99,
      "chip": "ym2612"
    },
    {
      "channel": 0,
      "note": 68,
      "start": 78.4475,
      "duration": 0.1688,
      "velocity": 102,
      "chip": "ym2612"
    },
    {
      "channel": 1,
      "note": 66,
      "start": 78.482,
      "duration": 0.0327,
      "velocity": 102,
      "chip": "ym2612"
    },
    {
      "channel": 2,
      "note": 52,
      "start": 78.4825,
      "duration": 0.0143,
      "velocity": 91,
      "chip": "ym2612"
    },
    {
      "channel": 3,
      "note": 81,
      "start": 78.4831,
      "duration": 0.1387,
      "velocity": 99,
      "chip": "ym2612"
    },
    {
      "channel": 4,
      "note": 78,
      "start": 78.4837,
      "duration": 0.1385,
      "velocity": 99,
      "chip": "ym2612"
    },
    {
      "channel": 1,
      "note": 68,
      "start": 78.518,
      "duration": 0.1356,
      "velocity": 102,
      "chip": "ym2612"
    },
    {
      "channel": 2,
      "note": 52,
      "start": 78.5185,
      "duration": 0.0139,
      "velocity": 91,
      "chip": "ym2612"
    },
    {
      "channel": 2,
      "note": 52,
      "start": 78.5516,
      "duration": 0.0142,
      "velocity": 91,
      "chip": "ym2612"
    },
    {
      "channel": 2,
      "note": 52,
      "start": 78.5695,
      "duration": 0.0149,
      "velocity": 91,
      "chip": "ym2612"
    },
    {
      "channel": 2,
      "note": 52,
      "start": 78.5884,
      "duration": 0.0151,
      "velocity": 91,
      "chip": "ym2612"
    },
    {
      "channel": 2,
      "note": 52,
      "start": 78.6061,
      "duration": 0.0154,
      "velocity": 91,
      "chip": "ym2612"
    },
    {
      "channel": 0,
      "note": 64,
      "start": 78.6186,
      "duration": 0.2619,
      "velocity": 102,
      "chip": "ym2612"
    },
    {
      "channel": 2,
      "note": 52,
      "start": 78.624,
      "duration": 0.0146,
      "velocity": 91,
      "chip": "ym2612"
    },
    {
      "channel": 3,
      "note": 83,
      "start": 78.6245,
      "duration": 0.291,
      "velocity": 99,
      "chip": "ym2612"
    },
    {
      "channel": 4,
      "note": 80,
      "start": 78.6252,
      "duration": 0.2908,
      "velocity": 99,
      "chip": "ym2612"
    },
    {
      "channel": 1,
      "note": 64,
      "start": 78.6569,
      "duration": 0.3054,
      "velocity": 102,
      "chip": "ym2612"
    },
    {
      "channel": 2,
      "note": 52,
      "start": 78.6574,
      "duration": 0.0168,
      "velocity": 91,
      "chip": "ym2612"
    },
    {
      "channel": 2,
      "note": 56,
      "start": 78.8186,
      "duration": 0.0967,
      "velocity": 91,
      "chip": "ym2612"
    },
    {
      "channel": 0,
      "note": 66,
      "start": 78.8978,
      "duration": 0.6977,
      "velocity": 102,
      "chip": "ym2612"
    },
    {
      "channel": 2,
      "note": 54,
      "start": 78.9326,
      "duration": 0.0146,
      "velocity": 91,
      "chip": "ym2612"
    },
    {
      "channel": 3,
      "note": 88,
      "start": 78.9332,
      "duration": 0.4377,
      "velocity": 99,
      "chip": "ym2612"
    },
    {
      "channel": 4,
      "note": 83,
      "start": 78.9338,
      "duration": 0.4374,
      "velocity": 99,
      "chip": "ym2612"
    },
    {
      "channel": 1,
      "note": 66,
      "start": 78.965,
      "duration": 0.7363,
      "velocity": 102,
      "chip": "ym2612"
    },
    {
      "channel": 2,
      "note": 54,
      "start": 78.9655,
      "duration": 0.0126,
      "velocity": 91,
      "chip": "ym2612"
    },
    {
      "channel": 2,
      "note": 54,
      "start": 78.9827,
      "duration": 0.009,
      "velocity": 91,
      "chip": "ym2612"
    },
    {
      "channel": 2,
      "note": 54,
      "start": 78.9959,
      "duration": 0.0063,
      "velocity": 91,
      "chip": "ym2612"
    },
    {
      "channel": 2,
      "note": 54,
      "start": 79.0052,
      "duration": 0.0142,
      "velocity": 91,
      "chip": "ym2612"
    },
    {
      "channel": 2,
      "note": 54,
      "start": 79.0396,
      "duration": 0.0129,
      "velocity": 91,
      "chip": "ym2612"
    },
    {
      "channel": 2,
      "note": 54,
      "start": 79.0555,
      "duration": 0.0111,
      "velocity": 91,
      "chip": "ym2612"
    },
    {
      "channel": 2,
      "note": 54,
      "start": 79.0708,
      "duration": 0.0064,
      "velocity": 91,
      "chip": "ym2612"
    },
    {
      "channel": 2,
      "note": 54,
      "start": 79.08,
      "duration": 0.0143,
      "velocity": 91,
      "chip": "ym2612"
    },
    {
      "channel": 2,
      "note": 54,
      "start": 79.1146,
      "duration": 0.0148,
      "velocity": 91,
      "chip": "ym2612"
    },
    {
      "channel": 2,
      "note": 52,
      "start": 79.276,
      "duration": 0.0946,
      "velocity": 91,
      "chip": "ym2612"
    },
    {
      "channel": 2,
      "note": 54,
      "start": 79.3876,
      "duration": 0.0146,
      "velocity": 91,
      "chip": "ym2612"
    },
    {
      "channel": 3,
      "note": 85,
      "start": 79.3882,
      "duration": 0.3626,
      "velocity": 99,
      "chip": "ym2612"
    },
    {
      "channel": 4,
      "note": 81,
      "start": 79.3888,
      "duration": 0.3623,
      "velocity": 99,
      "chip": "ym2612"
    },
    {
      "channel": 2,
      "note": 54,
      "start": 79.422,
      "duration": 0.0127,
      "velocity": 91,
      "chip": "ym2612"
    },
    {
      "channel": 2,
      "note": 54,
      "start": 79.438,
      "duration": 0.0087,
      "velocity": 91,
      "chip": "ym2612"
    },
    {
      "channel": 2,
      "note": 54,
      "start": 79.4491,
      "duration": 0.0082,
      "velocity": 91,
      "chip": "ym2612"
    },
    {
      "channel": 2,
      "note": 54,
      "start": 79.4614,
      "duration": 0.0151,
      "velocity": 91,
      "chip": "ym2612"
    },
    {
      "channel": 2,
      "note": 54,
      "start": 79.4965,
      "duration": 0.0129,
      "velocity": 91,
      "chip": "ym2612"
    },
    {
      "channel": 2,
      "note": 54,
      "start": 79.5122,
      "duration": 0.0087,
      "velocity": 91,
      "chip": "ym2612"
    },
    {
      "channel": 2,
      "note": 54,
      "start": 79.5233,
      "duration": 0.0064,
      "velocity": 91,
      "chip": "ym2612"
    },
    {
      "channel": 2,
      "note": 54,
      "start": 79.5331,
      "duration": 0.0673,
      "velocity": 91,
      "chip": "ym2612"
    },
    {
      "channel": 0,
      "note": 61,
      "start": 79.5979,
      "duration": 0.1475,
      "velocity": 102,
      "chip": "ym2612"
    },
    {
      "channel": 2,
      "note": 52,
      "start": 79.6041,
      "duration": 0.1463,
      "velocity": 91,
      "chip": "ym2612"
    },
    {
      "channel": 1,
      "note": 61,
      "start": 79.7186,
      "duration": 0.0681,
      "velocity": 102,
      "chip": "ym2612"
    },
    {
      "channel": 0,
      "note": 66,
      "start": 79.7479,
      "duration": 0.2099,
      "velocity": 102,
      "chip": "ym2612"
    },
    {
      "channel": 2,
      "note": 54,
      "start": 79.7544,
      "duration": 0.0162,
      "velocity": 91,
      "chip": "ym2612"
    },
    {
      "channel": 1,
      "note": 66,
      "start": 79.7894,
      "duration": 0.2841,
      "velocity": 102,
      "chip": "ym2612"
    },
    {
      "channel": 2,
      "note": 54,
      "start": 79.7899,
      "duration": 0.0139,
      "velocity": 91,
      "chip": "ym2612"
    },
    {
      "channel": 2,
      "note": 54,
      "start": 79.8222,
      "duration": 0.015,
      "velocity": 91,
      "chip": "ym2612"
    },
    {
      "channel": 3,
      "note": 85,
      "start": 79.8229,
      "duration": 0.0698,
      "velocity": 99,
      "chip": "ym2612"
    },
    {
      "channel": 4,
      "note": 81,
      "start": 79.8235,
      "duration": 0.0695,
      "velocity": 99,
      "chip": "ym2612"
    },
    {
      "channel": 2,
      "note": 54,
      "start": 79.8417,
      "duration": 0.0152,
      "velocity": 91,
      "chip": "ym2612"
    },
    {
      "channel": 2,
      "note": 54,
      "start": 79.86,
      "duration": 0.0139,
      "velocity": 91,
      "chip": "ym2612"
    },
    {
      "channel": 2,
      "note": 54,
      "start": 79.878,
      "duration": 0.0143,
      "velocity": 91,
      "chip": "ym2612"
    },
    {
      "channel": 2,
      "note": 54,
      "start": 79.8952,
      "duration": 0.0146,
      "velocity": 91,
      "chip": "ym2612"
    },
    {
      "channel": 3,
      "note": 73,
      "start": 79.8958,
      "duration": 0.067,
      "velocity": 99,
      "chip": "ym2612"
    },
    {
      "channel": 4,
      "note": 69,
      "start": 79.8964,
      "duration": 0.0668,
      "velocity": 99,
      "chip": "ym2612"
    },
    {
      "channel": 2,
      "note": 54,
      "start": 79.9319,
      "duration": 0.0143,
      "velocity": 91,
      "chip": "ym2612"
    },
    {
      "channel": 0,
      "note": 68,
      "start": 79.96,
      "duration": 0.0788,
      "velocity": 102,
      "chip": "ym2612"
    },
    {
      "channel": 3,
      "note": 78,
      "start": 79.9652,
      "duration": 0.109,
      "velocity": 99,
      "chip": "ym2612"
    },
    {
      "channel": 4,
      "note": 73,
      "start": 79.9658,
      "duration": 0.1086,
      "velocity": 99,
      "chip": "ym2612"
    },
    {
      "channel": 0,
      "note": 69,
      "start": 80.0566,
      "duration": 0.094,
      "velocity": 102,
      "chip": "ym2612"
    },
    {
      "channel": 1,
      "note": 68,
      "start": 80.0907,
      "duration": 0.0945,
      "velocity": 102,
      "chip": "ym2612"
    },
    {
      "channel": 3,
      "note": 76,
      "start": 80.0916,
      "duration": 0.0942,
      "velocity": 99,
      "chip": "ym2612"
    },
    {
      "channel": 4,
      "note": 71,
      "start": 80.0922,
      "duration": 0.094,
      "velocity": 99,
      "chip": "ym2612"
    },
    {
      "channel": 0,
      "note": 68,
      "start": 80.168,
      "duration": 0.1342,
      "velocity": 102,
      "chip": "ym2612"
    },
    {
      "channel": 1,
      "note": 69,
      "start": 80.2025,
      "duration": 0.0326,
      "velocity": 102,
      "chip": "ym2612"
    },
    {
      "channel": 2,
      "note": 52,
      "start": 80.203,
      "duration": 0.0154,
      "velocity": 91,
      "chip": "ym2612"
    },
    {
      "channel": 3,
      "note": 78,
      "start": 80.2036,
      "duration": 0.141,
      "velocity": 99,
      "chip": "ym2612"
    },
    {
      "channel": 4,
      "note": 73,
      "start": 80.2042,
      "duration": 0.1408,
      "velocity": 99,
      "chip": "ym2612"
    },
    {
      "channel": 1,
      "note": 68,
      "start": 80.2388,
      "duration": 0.1051,
      "velocity": 102,
      "chip": "ym2612"
    },
    {
      "channel": 2,
      "note": 52,
      "start": 80.2394,
      "duration": 0.0138,
      "velocity": 91,
      "chip": "ym2612"
    },
    {
      "channel": 2,
      "note": 52,
      "start": 80.2736,
      "duration": 0.0145,
      "velocity": 91,
      "chip": "ym2612"
    },
    {
      "channel": 2,
      "note": 52,
      "start": 80.292,
      "duration": 0.0157,
      "velocity": 91,
      "chip": "ym2612"
    },
    {
      "channel": 0,
      "note": 59,
      "start": 80.3044,
      "duration": 0.0352,
      "velocity": 102,
      "chip": "ym2612"
    },
    {
      "channel": 2,
      "note": 52,
      "start": 80.3106,
      "duration": 0.0162,
      "velocity": 91,
      "chip": "ym2612"
    },
    {
      "channel": 2,
      "note": 52,
      "start": 80.3295,
      "duration": 0.0147,
      "velocity": 91,
      "chip": "ym2612"
    },
    {
      "channel": 0,
      "note": 64,
      "start": 80.3417,
      "duration": 0.0664,
      "velocity": 102,
      "chip": "ym2612"
    },
    {
      "channel": 1,
      "note": 59,
      "start": 80.3467,
      "duration": 0.0298,
      "velocity": 102,
      "chip": "ym2612"
    },
    {
      "channel": 2,
      "note": 52,
      "start": 80.3473,
      "duration": 0.0145,
      "velocity": 91,
      "chip": "ym2612"
    },
    {
      "channel": 3,
      "note": 76,
      "start": 80.3479,
      "duration": 0.2899,
      "velocity": 99,
      "chip": "ym2612"
    },
    {
      "channel": 4,
      "note": 71,
      "start": 80.3485,
      "duration": 0.2896,
      "velocity": 99,
      "chip": "ym2612"
    },
    {
      "channel": 1,
      "note": 64,
      "start": 80.3795,
      "duration": 0.1436,
      "velocity": 102,
      "chip": "ym2612"
    },
    {
      "channel": 2,
      "note": 52,
      "start": 80.38,
      "duration": 0.0164,
      "velocity": 91,
      "chip": "ym2612"
    },
    {
      "channel": 0,
      "note": 61,
      "start": 80.4103,
      "duration": 0.1924,
      "velocity": 102,
      "chip": "ym2612"
    },
    {
      "channel": 1,
      "note": 61,
      "start": 80.5405,
      "duration": 0.1436,
      "velocity": 102,
      "chip": "ym2612"
    },
    {
      "channel": 0,
      "note": 66,
      "start": 80.62,
      "duration": 0.2406,
      "velocity": 102,
      "chip": "ym2612"
    },
    {
      "channel": 2,
      "note": 54,
      "start": 80.6549,
      "duration": 0.0142,
      "velocity": 91,
      "chip": "ym2612"
    },
    {
      "channel": 1,
      "note": 66,
      "start": 80.6874,
      "duration": 0.2876,
      "velocity": 102,
      "chip": "ym2612"
    },
    {
      "channel": 2,
      "note": 54,
      "start": 80.6878,
      "duration": 0.0148,
      "velocity": 91,
      "chip": "ym2612"
    },
    {
      "channel": 2,
      "note": 54,
      "start": 80.7242,
      "duration": 0.0148,
      "velocity": 91,
      "chip": "ym2612"
    },
    {
      "channel": 3,
      "note": 80,
      "start": 80.7248,
      "duration": 0.0698,
      "velocity": 99,
      "chip": "ym2612"
    },
    {
      "channel": 4,
      "note": 76,
      "start": 80.7255,
      "duration": 0.0696,
      "velocity": 99,
      "chip": "ym2612"
    },
    {
      "channel": 2,
      "note": 54,
      "start": 80.7423,
      "duration": 0.0139,
      "velocity": 91,
      "chip": "ym2612"
    },
    {
      "channel": 2,
      "note": 54,
      "start": 80.7596,
      "duration": 0.0139,
      "velocity": 91,
      "chip": "ym2612"
    },
    {
      "channel": 2,
      "note": 54,
      "start": 80.7778,
      "duration": 0.0165,
      "velocity": 91,
      "chip": "ym2612"
    },
    {
      "channel": 2,
      "note": 54,
      "start": 80.7983,
      "duration": 0.0155,
      "velocity": 91,
      "chip": "ym2612"
    },
    {
      "channel": 3,
      "note": 73,
      "start": 80.7989,
      "duration": 0.0668,
      "velocity": 99,
      "chip": "ym2612"
    },
    {
      "channel": 4,
      "note": 69,
      "start": 80.7995,
      "duration": 0.0666,
      "velocity": 99,
      "chip": "ym2612"
    },
    {
      "channel": 2,
      "note": 54,
      "start": 80.8319,
      "duration": 0.0139,
      "velocity": 91,
      "chip": "ym2612"
    },
    {
      "channel": 0,
      "note": 68,
      "start": 80.8629,
      "duration": 0.0775,
      "velocity": 102,
      "chip": "ym2612"
    },
    {
      "channel": 3,
      "note": 78,
      "start": 80.868,
      "duration": 0.1075,
      "velocity": 99,
      "chip": "ym2612"
    },
    {
      "channel": 4,
      "note": 73,
      "start": 80.8686,
      "duration": 0.1073,
      "velocity": 99,
      "chip": "ym2612"
    },
    {
      "channel": 0,
      "note": 69,
      "start": 80.9578,
      "duration": 0.0948,
      "velocity": 102,
      "chip": "ym2612"
    },
    {
      "channel": 1,
      "note": 68,
      "start": 80.9923,
      "duration": 0.0953,
      "velocity": 102,
      "chip": "ym2612"
    },
    {
      "channel": 3,
      "note": 76,
      "start": 80.9932,
      "duration": 0.0951,
      "velocity": 99,
      "chip": "ym2612"
    },
    {
      "channel": 4,
      "note": 71,
      "start": 80.9938,
      "duration": 0.0948,
      "velocity": 99,
      "chip": "ym2612"
    },
    {
      "channel": 0,
      "note": 71,
      "start": 81.07,
      "duration": 0.1322,
      "velocity": 102,
      "chip": "ym2612"
    },
    {
      "channel": 1,
      "note": 69,
      "start": 81.1048,
      "duration": 0.0302,
      "velocity": 102,
      "chip": "ym2612"
    },
    {
      "channel": 2,
      "note": 52,
      "start": 81.1052,
      "duration": 0.0143,
      "velocity": 91,
      "chip": "ym2612"
    },
    {
      "channel": 3,
      "note": 78,
      "start": 81.1059,
      "duration": 0.1368,
      "velocity": 99,
      "chip": "ym2612"
    },
    {
      "channel": 4,
      "note": 73,
      "start": 81.1065,
      "duration": 0.1365,
      "velocity": 99,
      "chip": "ym2612"
    },
    {
      "channel": 1,
      "note": 71,
      "start": 81.1377,
      "duration": 0.1044,
      "velocity": 102,
      "chip": "ym2612"
    },
    {
      "channel": 2,
      "note": 52,
      "start": 81.1382,
      "duration": 0.0143,
      "velocity": 91,
      "chip": "ym2612"
    },
    {
      "channel": 2,
      "note": 52,
      "start": 81.1733,
      "duration": 0.0156,
      "velocity": 91,
      "chip": "ym2612"
    },
    {
      "channel": 2,
      "note": 52,
      "start": 81.1918,
      "duration": 0.0151,
      "velocity": 91,
      "chip": "ym2612"
    },
    {
      "channel": 0,
      "note": 68,
      "start": 81.2044,
      "duration": 0.0332,
      "velocity": 102,
      "chip": "ym2612"
    },
    {
      "channel": 2,
      "note": 52,
      "start": 81.2093,
      "duration": 0.0149,
      "velocity": 91,
      "chip": "ym2612"
    },
    {
      "channel": 2,
      "note": 52,
      "start": 81.2276,
      "duration": 0.0147,
      "velocity": 91,
      "chip": "ym2612"
    },
    {
      "channel": 0,
      "note": 68,
      "start": 81.2398,
      "duration": 0.0666,
      "velocity": 102,
      "chip": "ym2612"
    },
    {
      "channel": 1,
      "note": 68,
      "start": 81.2454,
      "duration": 0.0327,
      "velocity": 102,
      "chip": "ym2612"
    },
    {
      "channel": 2,
      "note": 52,
      "start": 81.2459,
      "duration": 0.0171,
      "velocity": 91,
      "chip": "ym2612"
    },
    {
      "channel": 3,
      "note": 80,
      "start": 81.2468,
      "duration": 0.2896,
      "velocity": 99,
      "chip": "ym2612"
    },
    {
      "channel": 4,
      "note": 76,
      "start": 81.2478,
      "duration": 0.2891,
      "velocity": 99,
      "chip": "ym2612"
    },
    {
      "channel": 1,
      "note": 68,
      "start": 81.2807,
      "duration": 0.1433,
      "velocity": 102,
      "chip": "ym2612"
    },
    {
      "channel": 2,
      "note": 52,
      "start": 81.2812,
      "duration": 0.0134,
      "velocity": 91,
      "chip": "ym2612"
    },
    {
      "channel": 0,
      "note": 61,
      "start": 81.3086,
      "duration": 0.1927,
      "velocity": 102,
      "chip": "ym2612"
    },
    {
      "channel": 1,
      "note": 61,
      "start": 81.4414,
      "duration": 0.1443,
      "velocity": 102,
      "chip": "ym2612"
    },
    {
      "channel": 0,
      "note": 66,
      "start": 81.5187,
      "duration": 0.2415,
      "velocity": 102,
      "chip": "ym2612"
    },
    {
      "channel": 2,
      "note": 54,
      "start": 81.5536,
      "duration": 0.016,
      "velocity": 91,
      "chip": "ym2612"
    },
    {
      "channel": 1,
      "note": 66,
      "start": 81.5887,
      "duration": 0.2875,
      "velocity": 102,
      "chip": "ym2612"
    },
    {
      "channel": 2,
      "note": 54,
      "start": 81.5892,
      "duration": 0.0141,
      "velocity": 91,
      "chip": "ym2612"
    },
    {
      "channel": 2,
      "note": 54,
      "start": 81.6223,
      "duration": 0.015,
      "velocity": 91,
      "chip": "ym2612"
    },
    {
      "channel": 3,
      "note": 76,
      "start": 81.6228,
      "duration": 0.0709,
      "velocity": 99,
      "chip": "ym2612"
    },
    {
      "channel": 4,
      "note": 71,
      "start": 81.6235,
      "duration": 0.0707,
      "velocity": 99,
      "chip": "ym2612"
    },
    {
      "channel": 2,
      "note": 54,
      "start": 81.6414,
      "duration": 0.0159,
      "velocity": 91,
      "chip": "ym2612"
    },
    {
      "channel": 2,
      "note": 54,
      "start": 81.66,
      "duration": 0.0147,
      "velocity": 91,
      "chip": "ym2612"
    },
    {
      "channel": 2,
      "note": 54,
      "start": 81.6788,
      "duration": 0.0146,
      "velocity": 91,
      "chip": "ym2612"
    },
    {
      "channel": 2,
      "note": 54,
      "start": 81.6964,
      "duration": 0.0155,
      "velocity": 91,
      "chip": "ym2612"
    },
    {
      "channel": 3,
      "note": 73,
      "start": 81.697,
      "duration": 0.069,
      "velocity": 99,
      "chip": "ym2612"
    },
    {
      "channel": 4,
      "note": 69,
      "start": 81.6976,
      "duration": 0.0687,
      "velocity": 99,
      "chip": "ym2612"
    },
    {
      "channel": 2,
      "note": 54,
      "start": 81.7336,
      "duration": 0.0146,
      "velocity": 91,
      "chip": "ym2612"
    },
    {
      "channel": 0,
      "note": 68,
      "start": 81.7628,
      "duration": 0.0785,
      "velocity": 102,
      "chip": "ym2612"
    },
    {
      "channel": 3,
      "note": 78,
      "start": 81.7683,
      "duration": 0.1085,
      "velocity": 99,
      "chip": "ym2612"
    },
    {
      "channel": 4,
      "note": 73,
      "start": 81.7689,
      "duration": 0.1082,
      "velocity": 99,
      "chip": "ym2612"
    },
    {
      "channel": 0,
      "note": 69,
      "start": 81.8592,
      "duration": 0.0939,
      "velocity": 102,
      "chip": "ym2612"
    },
    {
      "channel": 1,
      "note": 68,
      "start": 81.8932,
      "duration": 0.0944,
      "velocity": 102,
      "chip": "ym2612"
    },
    {
      "channel": 3,
      "note": 76,
      "start": 81.894,
      "duration": 0.0941,
      "velocity": 99,
      "chip": "ym2612"
    },
    {
      "channel": 4,
      "note": 71,
      "start": 81.8946,
      "duration": 0.0939,
      "velocity": 99,
      "chip": "ym2612"
    },
    {
      "channel": 0,
      "note": 68,
      "start": 81.9704,
      "duration": 0.1313,
      "velocity": 102,
      "chip": "ym2612"
    },
    {
      "channel": 1,
      "note": 69,
      "start": 82.0049,
      "duration": 0.0311,
      "velocity": 102,
      "chip": "ym2612"
    },
    {
      "channel": 2,
      "note": 52,
      "start": 82.0054,
      "duration": 0.0146,
      "velocity": 91,
      "chip": "ym2612"
    },
    {
      "channel": 3,
      "note": 78,
      "start": 82.006,
      "duration": 0.1378,
      "velocity": 99,
      "chip": "ym2612"
    },
    {
      "channel": 4,
      "note": 73,
      "start": 82.0066,
      "duration": 0.1375,
      "velocity": 99,
      "chip": "ym2612"
    },
    {
      "channel": 1,
      "note": 68,
      "start": 82.0402,
      "duration": 0.1029,
      "velocity": 102,
      "chip": "ym2612"
    },
    {
      "channel": 2,
      "note": 52,
      "start": 82.0406,
      "duration": 0.0137,
      "velocity": 91,
      "chip": "ym2612"
    },
    {
      "channel": 2,
      "note": 52,
      "start": 82.073,
      "duration": 0.0149,
      "velocity": 91,
      "chip": "ym2612"
    },
    {
      "channel": 2,
      "note": 52,
      "start": 82.0914,
      "duration": 0.0154,
      "velocity": 91,
      "chip": "ym2612"
    },
    {
      "channel": 0,
      "note": 59,
      "start": 82.1039,
      "duration": 0.0348,
      "velocity": 102,
      "chip": "ym2612"
    },
    {
      "channel": 2,
      "note": 52,
      "start": 82.1097,
      "duration": 0.0162,
      "velocity": 91,
      "chip": "ym2612"
    },
    {
      "channel": 2,
      "note": 52,
      "start": 82.1287,
      "duration": 0.0147,
      "velocity": 91,
      "chip": "ym2612"
    },
    {
      "channel": 0,
      "note": 64,
      "start": 82.1409,
      "duration": 0.0676,
      "velocity": 102,
      "chip": "ym2612"
    },
    {
      "channel": 1,
      "note": 59,
      "start": 82.1459,
      "duration": 0.0302,
      "velocity": 102,
      "chip": "ym2612"
    },
    {
      "channel": 2,
      "note": 52,
      "start": 82.1464,
      "duration": 0.015,
      "velocity": 91,
      "chip": "ym2612"
    },
    {
      "channel": 3,
      "note": 76,
      "start": 82.147,
      "duration": 0.0663,
      "velocity": 99,
      "chip": "ym2612"
    },
    {
      "channel": 4,
      "note": 71,
      "start": 82.1476,
      "duration": 0.0661,
      "velocity": 99,
      "chip": "ym2612"
    },
    {
      "channel": 1,
      "note": 64,
      "start": 82.1792,
      "duration": 0.1448,
      "velocity": 102,
      "chip": "ym2612"
    },
    {
      "channel": 2,
      "note": 52,
      "start": 82.1796,
      "duration": 0.0172,
      "velocity": 91,
      "chip": "ym2612"
    },
    {
      "channel": 0,
      "note": 62,
      "start": 82.2107,
      "duration": 0.0787,
      "velocity": 102,
      "chip": "ym2612"
    },
    {
      "channel": 3,
      "note": 80,
      "start": 82.2159,
      "duration": 0.1085,
      "velocity": 99,
      "chip": "ym2612"
    },
    {
      "channel": 4,
      "note": 76,
      "start": 82.2166,
      "duration": 0.1082,
      "velocity": 99,
      "chip": "ym2612"
    },
    {
      "channel": 0,
      "note": 64,
      "start": 82.3067,
      "duration": 0.0968,
      "velocity": 102,
      "chip": "ym2612"
    },
    {
      "channel": 1,
      "note": 62,
      "start": 82.3413,
      "duration": 0.0968,
      "velocity": 102,
      "chip": "ym2612"
    },
    {
      "channel": 3,
      "note": 78,
      "start": 82.3421,
      "duration": 0.0965,
      "velocity": 99,
      "chip": "ym2612"
    },
    {
      "channel": 4,
      "note": 74,
      "start": 82.3427,
      "duration": 0.0963,
      "velocity": 99,
      "chip": "ym2612"
    },
    {
      "channel": 0,
      "note": 66,
      "start": 82.4209,
      "duration": 0.2037,
      "velocity": 102,
      "chip": "ym2612"
    },
    {
      "channel": 1,
      "note": 64,
      "start": 82.4554,
      "duration": 0.0303,
      "velocity": 102,
      "chip": "ym2612"
    },
    {
      "channel": 2,
      "note": 50,
      "start": 82.456,
      "duration": 0.0145,
      "velocity": 91,
      "chip": "ym2612"
    },
    {
      "channel": 3,
      "note": 80,
      "start": 82.4566,
      "duration": 0.2098,
      "velocity": 99,
      "chip": "ym2612"
    },
    {
      "channel": 4,
      "note": 76,
      "start": 82.4572,
      "duration": 0.2095,
      "velocity": 99,
      "chip": "ym2612"
    },
    {
      "channel": 1,
      "note": 66,
      "start": 82.4889,
      "duration": 0.1401,
      "velocity": 102,
      "chip": "ym2612"
    },
    {
      "channel": 2,
      "note": 50,
      "start": 82.4894,
      "duration": 0.0142,
      "velocity": 91,
      "chip": "ym2612"
    },
    {
      "channel": 2,
      "note": 50,
      "start": 82.5239,
      "duration": 0.0142,
      "velocity": 91,
      "chip": "ym2612"
    },
    {
      "channel": 2,
      "note": 50,
      "start": 82.5417,
      "duration": 0.0147,
      "velocity": 91,
      "chip": "ym2612"
    },
    {
      "channel": 2,
      "note": 50,
      "start": 82.5591,
      "duration": 0.0148,
      "velocity": 91,
      "chip": "ym2612"
    },
    {
      "channel": 2,
      "note": 50,
      "start": 82.5772,
      "duration": 0.0167,
      "velocity": 91,
      "chip": "ym2612"
    },
    {
      "channel": 2,
      "note": 50,
      "start": 82.5981,
      "duration": 0.0144,
      "velocity": 91,
      "chip": "ym2612"
    },
    {
      "channel": 0,
      "note": 62,
      "start": 82.6268,
      "duration": 0.034,
      "velocity": 102,
      "chip": "ym2612"
    },
    {
      "channel": 1,
      "note": 66,
      "start": 82.6323,
      "duration": 0.0335,
      "velocity": 102,
      "chip": "ym2612"
    },
    {
      "channel": 2,
      "note": 50,
      "start": 82.6328,
      "duration": 0.0142,
      "velocity": 91,
      "chip": "ym2612"
    },
    {
      "channel": 0,
      "note": 64,
      "start": 82.6636,
      "duration": 0.0777,
      "velocity": 102,
      "chip": "ym2612"
    },
    {
      "channel": 1,
      "note": 62,
      "start": 82.6681,
      "duration": 0.1078,
      "velocity": 102,
      "chip": "ym2612"
    },
    {
      "channel": 3,
      "note": 81,
      "start": 82.6689,
      "duration": 0.1076,
      "velocity": 99,
      "chip": "ym2612"
    },
    {
      "channel": 4,
      "note": 78,
      "start": 82.6695,
      "duration": 0.1073,
      "velocity": 99,
      "chip": "ym2612"
    },
    {
      "channel": 0,
      "note": 66,
      "start": 82.7587,
      "duration": 0.0937,
      "velocity": 102,
      "chip": "ym2612"
    },
    {
      "channel": 1,
      "note": 64,
      "start": 82.7932,
      "duration": 0.094,
      "velocity": 102,
      "chip": "ym2612"
    },
    {
      "channel": 2,
      "note": 50,
      "start": 82.7937,
      "duration": 0.094,
      "velocity": 91,
      "chip": "ym2612"
    },
    {
      "channel": 3,
      "note": 80,
      "start": 82.7944,
      "duration": 0.0937,
      "velocity": 99,
      "chip": "ym2612"
    },
    {
      "channel": 4,
      "note": 76,
      "start": 82.795,
      "duration": 0.0935,
      "velocity": 99,
      "chip": "ym2612"
    },
    {
      "channel": 0,
      "note": 68,
      "start": 82.8697,
      "duration": 0.1654,
      "velocity": 102,
      "chip": "ym2612"
    },
    {
      "channel": 1,
      "note": 66,
      "start": 82.9047,
      "duration": 0.0299,
      "velocity": 102,
      "chip": "ym2612"
    },
    {
      "channel": 2,
      "note": 52,
      "start": 82.9052,
      "duration": 0.0146,
      "velocity": 91,
      "chip": "ym2612"
    },
    {
      "channel": 3,
      "note": 81,
      "start": 82.9058,
      "duration": 0.1345,
      "velocity": 99,
      "chip": "ym2612"
    },
    {
      "channel": 4,
      "note": 78,
      "start": 82.9064,
      "duration": 0.1343,
      "velocity": 99,
      "chip": "ym2612"
    },
    {
      "channel": 1,
      "note": 68,
      "start": 82.9371,
      "duration": 0.1385,
      "velocity": 102,
      "chip": "ym2612"
    },
    {
      "channel": 2,
      "note": 52,
      "start": 82.9375,
      "duration": 0.0143,
      "velocity": 91,
      "chip": "ym2612"
    },
    {
      "channel": 2,
      "note": 52,
      "start": 82.9715,
      "duration": 0.016,
      "velocity": 91,
      "chip": "ym2612"
    },
    {
      "channel": 2,
      "note": 52,
      "start": 82.9903,
      "duration": 0.0145,
      "velocity": 91,
      "chip": "ym2612"
    },
    {
      "channel": 2,
      "note": 52,
      "start": 83.0076,
      "duration": 0.0147,
      "velocity": 91,
      "chip": "ym2612"
    },
    {
      "channel": 2,
      "note": 52,
      "start": 83.0254,
      "duration": 0.0146,
      "velocity": 91,
      "chip": "ym2612"
    },
    {
      "channel": 0,
      "note": 64,
      "start": 83.0375,
      "duration": 0.2641,
      "velocity": 102,
      "chip": "ym2612"
    },
    {
      "channel": 2,
      "note": 52,
      "start": 83.0425,
      "duration": 0.0175,
      "velocity": 91,
      "chip": "ym2612"
    },
    {
      "channel": 3,
      "note": 83,
      "start": 83.0431,
      "duration": 0.2936,
      "velocity": 99,
      "chip": "ym2612"
    },
    {
      "channel": 4,
      "note": 80,
      "start": 83.0443,
      "duration": 0.2927,
      "velocity": 99,
      "chip": "ym2612"
    },
    {
      "channel": 1,
      "note": 64,
      "start": 83.0795,
      "duration": 0.3066,
      "velocity": 102,
      "chip": "ym2612"
    },
    {
      "channel": 2,
      "note": 52,
      "start": 83.08,
      "duration": 0.014,
      "velocity": 91,
      "chip": "ym2612"
    },
    {
      "channel": 2,
      "note": 56,
      "start": 83.2426,
      "duration": 0.0937,
      "velocity": 91,
      "chip": "ym2612"
    },
    {
      "channel": 0,
      "note": 66,
      "start": 83.3189,
      "duration": 0.7032,
      "velocity": 102,
      "chip": "ym2612"
    },
    {
      "channel": 2,
      "note": 54,
      "start": 83.3537,
      "duration": 0.0165,
      "velocity": 91,
      "chip": "ym2612"
    },
    {
      "channel": 3,
      "note": 88,
      "start": 83.3542,
      "duration": 0.4338,
      "velocity": 99,
      "chip": "ym2612"
    },
    {
      "channel": 4,
      "note": 83,
      "start": 83.3549,
      "duration": 0.4336,
      "velocity": 99,
      "chip": "ym2612"
    },
    {
      "channel": 1,
      "note": 66,
      "start": 83.39,
      "duration": 0.6396,
      "velocity": 102,
      "chip": "ym2612"
    },
    {
      "channel": 2,
      "note": 54,
      "start": 83.3905,
      "duration": 0.0116,
      "velocity": 91,
      "chip": "ym2612"
    },
    {
      "channel": 2,
      "note": 54,
      "start": 83.4054,
      "duration": 0.0082,
      "velocity": 91,
      "chip": "ym2612"
    },
    {
      "channel": 2,
      "note": 54,
      "start": 83.4163,
      "duration": 0.0063,
      "velocity": 91,
      "chip": "ym2612"
    },
    {
      "channel": 2,
      "note": 54,
      "start": 83.4254,
      "duration": 0.0143,
      "velocity": 91,
      "chip": "ym2612"
    },
    {
      "channel": 2,
      "note": 54,
      "start": 83.4619,
      "duration": 0.0124,
      "velocity": 91,
      "chip": "ym2612"
    },
    {
      "channel": 2,
      "note": 54,
      "start": 83.4774,
      "duration": 0.0084,
      "velocity": 91,
      "chip": "ym2612"
    },
    {
      "channel": 2,
      "note": 54,
      "start": 83.4882,
      "duration": 0.0068,
      "velocity": 91,
      "chip": "ym2612"
    },
    {
      "channel": 2,
      "note": 54,
      "start": 83.4978,
      "duration": 0.0144,
      "velocity": 91,
      "chip": "ym2612"
    },
    {
      "channel": 2,
      "note": 54,
      "start": 83.5339,
      "duration": 0.0156,
      "velocity": 91,
      "chip": "ym2612"
    },
    {
      "channel": 2,
      "note": 52,
      "start": 83.6941,
      "duration": 0.0936,
      "velocity": 91,
      "chip": "ym2612"
    },
    {
      "channel": 2,
      "note": 54,
      "start": 83.8051,
      "duration": 0.0171,
      "velocity": 91,
      "chip": "ym2612"
    },
    {
      "channel": 3,
      "note": 85,
      "start": 83.8057,
      "duration": 0.0168,
      "velocity": 99,
      "chip": "ym2612"
    },
    {
      "channel": 4,
      "note": 81,
      "start": 83.8169,
      "duration": 0.0145,
      "velocity": 99,
      "chip": "ym2612"
    },
    {
      "channel": 3,
      "note": 66,
      "start": 83.8252,
      "duration": 0.0153,
      "velocity": 99,
      "chip": "ym2612"
    },
    {
      "channel": 4,
      "note": 66,
      "start": 83.8336,
      "duration": 0.0177,
      "velocity": 99,
      "chip": "ym2612"
    },
    {
      "channel": 2,
      "note": 54,
      "start": 83.8436,
      "duration": 0.0134,
      "velocity": 91,
      "chip": "ym2612"
    },
    {
      "channel": 3,
      "note": 68,
      "start": 83.8441,
      "duration": 0.0169,
      "velocity": 99,
      "chip": "ym2612"
    },
    {
      "channel": 4,
      "note": 68,
      "start": 83.8536,
      "duration": 0.0166,
      "velocity": 99,
      "chip": "ym2612"
    },
    {
      "channel": 2,
      "note": 54,
      "start": 83.8606,
      "duration": 0.009,
      "velocity": 91,
      "chip": "ym2612"
    },
    {
      "channel": 3,
      "note": 69,
      "start": 83.8639,
      "duration": 0.0148,
      "velocity": 99,
      "chip": "ym2612"
    },
    {
      "channel": 2,
      "note": 54,
      "start": 83.8718,
      "duration": 0.0066,
      "velocity": 91,
      "chip": "ym2612"
    },
    {
      "channel": 4,
      "note": 69,
      "start": 83.8727,
      "duration": 0.0156,
      "velocity": 99,
      "chip": "ym2612"
    },
    {
      "channel": 2,
      "note": 54,
      "start": 83.8812,
      "duration": 0.0146,
      "velocity": 91,
      "chip": "ym2612"
    },
    {
      "channel": 3,
      "note": 73,
      "start": 83.8817,
      "duration": 0.0143,
      "velocity": 99,
      "chip": "ym2612"
    },
    {
      "channel": 4,
      "note": 73,
      "start": 83.8905,
      "duration": 0.015,
      "velocity": 99,
      "chip": "ym2612"
    },
    {
      "channel": 3,
      "note": 78,
      "start": 83.8988,
      "duration": 0.0145,
      "velocity": 99,
      "chip": "ym2612"
    },
    {
      "channel": 4,
      "note": 78,
      "start": 83.9077,
      "duration": 0.018,
      "velocity": 99,
      "chip": "ym2612"
    },
    {
      "channel": 2,
      "note": 54,
      "start": 83.9163,
      "duration": 0.0159,
      "velocity": 91,
      "chip": "ym2612"
    },
    {
      "channel": 3,
      "note": 80,
      "start": 83.9169,
      "duration": 0.0199,
      "velocity": 99,
      "chip": "ym2612"
    },
    {
      "channel": 4,
      "note": 80,
      "start": 83.9284,
      "duration": 0.0179,
      "velocity": 99,
      "chip": "ym2612"
    },
    {
      "channel": 2,
      "note": 54,
      "start": 83.9365,
      "duration": 0.0093,
      "velocity": 91,
      "chip": "ym2612"
    },
    {
      "channel": 3,
      "note": 81,
      "start": 83.9393,
      "duration": 0.0157,
      "velocity": 99,
      "chip": "ym2612"
    },
    {
      "channel": 2,
      "note": 54,
      "start": 83.9481,
      "duration": 0.0066,
      "velocity": 91,
      "chip": "ym2612"
    },
    {
      "channel": 4,
      "note": 81,
      "start": 83.949,
      "duration": 0.0154,
      "velocity": 99,
      "chip": "ym2612"
    },
    {
      "channel": 2,
      "note": 54,
      "start": 83.9573,
      "duration": 0.0726,
      "velocity": 91,
      "chip": "ym2612"
    },
    {
      "channel": 3,
      "note": 85,
      "start": 83.9579,
      "duration": 0.0148,
      "velocity": 99,
      "chip": "ym2612"
    },
    {
      "channel": 4,
      "note": 85,
      "start": 83.9666,
      "duration": 0.0144,
      "velocity": 99,
      "chip": "ym2612"
    },
    {
      "channel": 3,
      "note": 78,
      "start": 83.9749,
      "duration": 0.0144,
      "velocity": 99,
      "chip": "ym2612"
    },
    {
      "channel": 4,
      "note": 78,
      "start": 83.9832,
      "duration": 0.0173,
      "velocity": 99,
      "chip": "ym2612"
    },
    {
      "channel": 3,
      "note": 80,
      "start": 83.9925,
      "duration": 0.0175,
      "velocity": 99,
      "chip": "ym2612"
    },
    {
      "channel": 4,
      "note": 80,
      "start": 84.0033,
      "duration": 0.0153,
      "velocity": 99,
      "chip": "ym2612"
    },
    {
      "channel": 3,
      "note": 81,
      "start": 84.0122,
      "duration": 0.018,
      "velocity": 99,
      "chip": "ym2612"
    },
    {
      "channel": 4,
      "note": 81,
      "start": 84.0208,
      "duration": 0.0228,
      "velocity": 99,
      "chip": "ym2612"
    },
    {
      "channel": 0,
      "note": 80,
      "start": 84.0274,
      "duration": 0.0651,
      "velocity": 98,
      "chip": "ym2612"
    },
    {
      "channel": 1,
      "note": 71,
      "start": 84.0355,
      "duration": 0.0916,
      "velocity": 98,
      "chip": "ym2612"
    },
    {
      "channel": 2,
      "note": 52,
      "start": 84.036,
      "duration": 0.1422,
      "velocity": 91,
      "chip": "ym2612"
    },
    {
      "channel": 3,
      "note": 85,
      "start": 84.0366,
      "duration": 0.015,
      "velocity": 99,
      "chip": "ym2612"
    },
    {
      "channel": 4,
      "note": 85,
      "start": 84.0458,
      "duration": 0.014,
      "velocity": 99,
      "chip": "ym2612"
    },
    {
      "channel": 3,
      "note": 90,
      "start": 84.0538,
      "duration": 0.0738,
      "velocity": 99,
      "chip": "ym2612"
    },
    {
      "channel": 4,
      "note": 90,
      "start": 84.0766,
      "duration": 0.0753,
      "velocity": 99,
      "chip": "ym2612"
    },
    {
      "channel": 0,
      "note": 81,
      "start": 84.1099,
      "duration": 0.0637,
      "velocity": 98,
      "chip": "ym2612"
    },
    {
      "channel": 1,
      "note": 73,
      "start": 84.1444,
      "duration": 0.0336,
      "velocity": 98,
      "chip": "ym2612"
    },
    {
      "channel": 3,
      "note": 92,
      "start": 84.1452,
      "duration": 0.0167,
      "velocity": 99,
      "chip": "ym2612"
    },
    {
      "channel": 4,
      "note": 92,
      "start": 84.154,
      "duration": 0.0165,
      "velocity": 99,
      "chip": "ym2612"
    },
    {
      "channel": 3,
      "note": 93,
      "start": 84.1644,
      "duration": 0.0142,
      "velocity": 99,
      "chip": "ym2612"
    },
    {
      "channel": 4,
      "note": 93,
      "start": 84.1726,
      "duration": 0.0163,
      "velocity": 99,
      "chip": "ym2612"
    },
    {
      "channel": 0,
      "note": 83,
      "start": 84.1757,
      "duration": 0.1744,
      "velocity": 98,
      "chip": "ym2612"
    },
    {
      "channel": 1,
      "note": 78,
      "start": 84.181,
      "duration": 0.1736,
      "velocity": 98,
      "chip": "ym2612"
    },
    {
      "channel": 2,
      "note": 50,
      "start": 84.1815,
      "duration": 0.0151,
      "velocity": 91,
      "chip": "ym2612"
    },
    {
      "channel": 3,
      "note": 97,
      "start": 84.182,
      "duration": 0.0662,
      "velocity": 99,
      "chip": "ym2612"
    },
    {
      "channel": 4,
      "note": 97,
      "start": 84.1914,
      "duration": 0.0665,
      "velocity": 99,
      "chip": "ym2612"
    },
    {
      "channel": 2,
      "note": 50,
      "start": 84.2147,
      "duration": 0.0145,
      "velocity": 91,
      "chip": "ym2612"
    },
    {
      "channel": 2,
      "note": 50,
      "start": 84.2504,
      "duration": 0.0151,
      "velocity": 91,
      "chip": "ym2612"
    },
    {
      "channel": 3,
      "note": 74,
      "start": 84.251,
      "duration": 0.0701,
      "velocity": 99,
      "chip": "ym2612"
    },
    {
      "channel": 4,
      "note": 74,
      "start": 84.2601,
      "duration": 0.0701,
      "velocity": 99,
      "chip": "ym2612"
    },
    {
      "channel": 2,
      "note": 50,
      "start": 84.2683,
      "duration": 0.014,
      "velocity": 91,
      "chip": "ym2612"
    },
    {
      "channel": 2,
      "note": 50,
      "start": 84.2857,
      "duration": 0.0144,
      "velocity": 91,
      "chip": "ym2612"
    },
    {
      "channel": 2,
      "note": 50,
      "start": 84.3038,
      "duration": 0.017,
      "velocity": 91,
      "chip": "ym2612"
    },
    {
      "channel": 2,
      "note": 50,
      "start": 84.3232,
      "duration": 0.0151,
      "velocity": 91,
      "chip": "ym2612"
    },
    {
      "channel": 3,
      "note": 78,
      "start": 84.3237,
      "duration": 0.071,
      "velocity": 99,
      "chip": "ym2612"
    },
    {
      "channel": 4,
      "note": 78,
      "start": 84.3325,
      "duration": 0.074,
      "velocity": 99,
      "chip": "ym2612"
    },
    {
      "channel": 0,
      "note": 85,
      "start": 84.3523,
      "duration": 0.0361,
      "velocity": 98,
      "chip": "ym2612"
    },
    {
      "channel": 1,
      "note": 80,
      "start": 84.358,
      "duration": 0.0361,
      "velocity": 98,
      "chip": "ym2612"
    },
    {
      "channel": 2,
      "note": 50,
      "start": 84.3585,
      "duration": 0.0119,
      "velocity": 91,
      "chip": "ym2612"
    },
    {
      "channel": 2,
      "note": 50,
      "start": 84.3739,
      "duration": 0.0086,
      "velocity": 91,
      "chip": "ym2612"
    },
    {
      "channel": 2,
      "note": 50,
      "start": 84.3859,
      "duration": 0.0085,
      "velocity": 91,
      "chip": "ym2612"
    },
    {
      "channel": 0,
      "note": 86,
      "start": 84.3919,
      "duration": 0.0328,
      "velocity": 98,
      "chip": "ym2612"
    },
    {
      "channel": 1,
      "note": 81,
      "start": 84.3986,
      "duration": 0.0307,
      "velocity": 98,
      "chip": "ym2612"
    },
    {
      "channel": 2,
      "note": 50,
      "start": 84.3991,
      "duration": 0.0147,
      "velocity": 91,
      "chip": "ym2612"
    },
    {
      "channel": 3,
      "note": 85,
      "start": 84.3997,
      "duration": 0.1328,
      "velocity": 99,
      "chip": "ym2612"
    },
    {
      "channel": 4,
      "note": 85,
      "start": 84.4087,
      "duration": 0.1376,
      "velocity": 99,
      "chip": "ym2612"
    },
    {
      "channel": 0,
      "note": 78,
      "start": 84.4272,
      "duration": 0.0301,
      "velocity": 98,
      "chip": "ym2612"
    },
    {
      "channel": 1,
      "note": 74,
      "start": 84.4318,
      "duration": 0.031,
      "velocity": 98,
      "chip": "ym2612"
    },
    {
      "channel": 2,
      "note": 50,
      "start": 84.4322,
      "duration": 0.0313,
      "velocity": 91,
      "chip": "ym2612"
    },
    {
      "channel": 0,
      "note": 80,
      "start": 84.46,
      "duration": 0.1417,
      "velocity": 98,
      "chip": "ym2612"
    },
    {
      "channel": 1,
      "note": 76,
      "start": 84.4672,
      "duration": 0.1394,
      "velocity": 98,
      "chip": "ym2612"
    },
    {
      "channel": 2,
      "note": 52,
      "start": 84.4677,
      "duration": 0.0144,
      "velocity": 91,
      "chip": "ym2612"
    },
    {
      "channel": 2,
      "note": 52,
      "start": 84.5014,
      "duration": 0.014,
      "velocity": 91,
      "chip": "ym2612"
    },
    {
      "channel": 2,
      "note": 52,
      "start": 84.5369,
      "duration": 0.0171,
      "velocity": 91,
      "chip": "ym2612"
    },
    {
      "channel": 3,
      "note": 83,
      "start": 84.538,
      "duration": 0.0691,
      "velocity": 99,
      "chip": "ym2612"
    },
    {
      "channel": 4,
      "note": 83,
      "start": 84.5487,
      "duration": 0.0703,
      "velocity": 99,
      "chip": "ym2612"
    },
    {
      "channel": 2,
      "note": 52,
      "start": 84.5562,
      "duration": 0.014,
      "velocity": 91,
      "chip": "ym2612"
    },
    {
      "channel": 2,
      "note": 52,
      "start": 84.5735,
      "duration": 0.0139,
      "velocity": 91,
      "chip": "ym2612"
    },
    {
      "channel": 2,
      "note": 52,
      "start": 84.5912,
      "duration": 0.0157,
      "velocity": 91,
      "chip": "ym2612"
    },
    {
      "channel": 0,
      "note": 76,
      "start": 84.6039,
      "duration": 0.0697,
      "velocity": 98,
      "chip": "ym2612"
    },
    {
      "channel": 1,
      "note": 71,
      "start": 84.6092,
      "duration": 0.0693,
      "velocity": 98,
      "chip": "ym2612"
    },
    {
      "channel": 2,
      "note": 52,
      "start": 84.6097,
      "duration": 0.0176,
      "velocity": 91,
      "chip": "ym2612"
    },
    {
      "channel": 3,
      "note": 80,
      "start": 84.6103,
      "duration": 0.0688,
      "velocity": 99,
      "chip": "ym2612"
    },
    {
      "channel": 4,
      "note": 80,
      "start": 84.6217,
      "duration": 0.0671,
      "velocity": 99,
      "chip": "ym2612"
    },
    {
      "channel": 2,
      "note": 52,
      "start": 84.6448,
      "duration": 0.012,
      "velocity": 91,
      "chip": "ym2612"
    },
    {
      "channel": 2,
      "note": 52,
      "start": 84.6607,
      "duration": 0.0085,
      "velocity": 91,
      "chip": "ym2612"
    },
    {
      "channel": 2,
      "note": 52,
      "start": 84.6717,
      "duration": 0.007,
      "velocity": 91,
      "chip": "ym2612"
    },
    {
      "channel": 0,
      "note": 71,
      "start": 84.6762,
      "duration": 0.0341,
      "velocity": 98,
      "chip": "ym2612"
    },
    {
      "channel": 1,
      "note": 68,
      "start": 84.681,
      "duration": 0.0335,
      "velocity": 98,
      "chip": "ym2612"
    },
    {
      "channel": 2,
      "note": 52,
      "start": 84.6815,
      "duration": 0.0175,
      "velocity": 91,
      "chip": "ym2612"
    },
    {
      "channel": 3,
      "note": 76,
      "start": 84.6821,
      "duration": 0.0663,
      "velocity": 99,
      "chip": "ym2612"
    },
    {
      "channel": 4,
      "note": 76,
      "start": 84.6919,
      "duration": 0.0671,
      "velocity": 99,
      "chip": "ym2612"
    },
    {
      "channel": 0,
      "note": 74,
      "start": 84.7124,
      "duration": 0.0311,
      "velocity": 98,
      "chip": "ym2612"
    },
    {
      "channel": 1,
      "note": 71,
      "start": 84.7183,
      "duration": 0.0296,
      "velocity": 98,
      "chip": "ym2612"
    },
    {
      "channel": 2,
      "note": 59,
      "start": 84.7187,
      "duration": 0.0294,
      "velocity": 91,
      "chip": "ym2612"
    },
    {
      "channel": 0,
      "note": 73,
      "start": 84.7457,
      "duration": 0.1748,
      "velocity": 98,
      "chip": "ym2612"
    },
    {
      "channel": 1,
      "note": 69,
      "start": 84.751,
      "duration": 0.1746,
      "velocity": 98,
      "chip": "ym2612"
    },
    {
      "channel": 2,
      "note": 57,
      "start": 84.7514,
      "duration": 0.0156,
      "velocity": 91,
      "chip": "ym2612"
    },
    {
      "channel": 3,
      "note": 71,
      "start": 84.7521,
      "duration": 0.0642,
      "velocity": 99,
      "chip": "ym2612"
    },
    {
      "channel": 4,
      "note": 71,
      "start": 84.7611,
      "duration": 0.0654,
      "velocity": 99,
      "chip": "ym2612"
    },
    {
      "channel": 2,
      "note": 57,
      "start": 84.7862,
      "duration": 0.0135,
      "velocity": 91,
      "chip": "ym2612"
    },
    {
      "channel": 2,
      "note": 57,
      "start": 84.8194,
      "duration": 0.0147,
      "velocity": 91,
      "chip": "ym2612"
    },
    {
      "channel": 3,
      "note": 73,
      "start": 84.82,
      "duration": 0.0696,
      "velocity": 99,
      "chip": "ym2612"
    },
    {
      "channel": 4,
      "note": 73,
      "start": 84.8288,
      "duration": 0.0706,
      "velocity": 99,
      "chip": "ym2612"
    },
    {
      "channel": 2,
      "note": 57,
      "start": 84.8375,
      "duration": 0.0164,
      "velocity": 91,
      "chip": "ym2612"
    },
    {
      "channel": 2,
      "note": 57,
      "start": 84.8566,
      "duration": 0.0144,
      "velocity": 91,
      "chip": "ym2612"
    },
    {
      "channel": 2,
      "note": 57,
      "start": 84.8747,
      "duration": 0.0146,
      "velocity": 91,
      "chip": "ym2612"
    },
    {
      "channel": 2,
      "note": 57,
      "start": 84.8922,
      "duration": 0.0152,
      "velocity": 91,
      "chip": "ym2612"
    },
    {
      "channel": 3,
      "note": 76,
      "start": 84.8928,
      "duration": 0.07,
      "velocity": 99,
      "chip": "ym2612"
    },
    {
      "channel": 4,
      "note": 76,
      "start": 84.902,
      "duration": 0.0708,
      "velocity": 99,
      "chip": "ym2612"
    },
    {
      "channel": 0,
      "note": 69,
      "start": 84.9234,
      "duration": 0.0345,
      "velocity": 98,
      "chip": "ym2612"
    },
    {
      "channel": 1,
      "note": 64,
      "start": 84.9288,
      "duration": 0.0334,
      "velocity": 98,
      "chip": "ym2612"
    },
    {
      "channel": 2,
      "note": 57,
      "start": 84.9293,
      "duration": 0.0119,
      "velocity": 91,
      "chip": "ym2612"
    },
    {
      "channel": 2,
      "note": 57,
      "start": 84.9445,
      "duration": 0.0085,
      "velocity": 91,
      "chip": "ym2612"
    },
    {
      "channel": 2,
      "note": 57,
      "start": 84.9559,
      "duration": 0.0066,
      "velocity": 91,
      "chip": "ym2612"
    },
    {
      "channel": 0,
      "note": 73,
      "start": 84.96,
      "duration": 0.032,
      "velocity": 98,
      "chip": "ym2612"
    },
    {
      "channel": 1,
      "note": 69,
      "start": 84.9653,
      "duration": 0.0326,
      "velocity": 98,
      "chip": "ym2612"
    },
    {
      "channel": 2,
      "note": 57,
      "start": 84.9658,
      "duration": 0.0143,
      "velocity": 91,
      "chip": "ym2612"
    },
    {
      "channel": 3,
      "note": 80,
      "start": 84.9664,
      "duration": 0.0658,
      "velocity": 99,
      "chip": "ym2612"
    },
    {
      "channel": 4,
      "note": 80,
      "start": 84.9749,
      "duration": 0.0669,
      "velocity": 99,
      "chip": "ym2612"
    },
    {
      "channel": 0,
      "note": 80,
      "start": 84.9946,
      "duration": 0.0326,
      "velocity": 98,
      "chip": "ym2612"
    },
    {
      "channel": 1,
      "note": 76,
      "start": 85.0009,
      "duration": 0.0307,
      "velocity": 98,
      "chip": "ym2612"
    },
    {
      "channel": 2,
      "note": 56,
      "start": 85.0014,
      "duration": 0.0305,
      "velocity": 91,
      "chip": "ym2612"
    },
    {
      "channel": 0,
      "note": 78,
      "start": 85.0294,
      "duration": 0.2115,
      "velocity": 98,
      "chip": "ym2612"
    },
    {
      "channel": 1,
      "note": 73,
      "start": 85.0343,
      "duration": 0.2113,
      "velocity": 98,
      "chip": "ym2612"
    },
    {
      "channel": 2,
      "note": 54,
      "start": 85.0348,
      "duration": 0.0144,
      "velocity": 91,
      "chip": "ym2612"
    },
    {
      "channel": 3,
      "note": 81,
      "start": 85.0354,
      "duration": 0.065,
      "velocity": 99,
      "chip": "ym2612"
    },
    {
      "channel": 4,
      "note": 81,
      "start": 85.0441,
      "duration": 0.0655,
      "velocity": 99,
      "chip": "ym2612"
    },
    {
      "channel": 2,
      "note": 54,
      "start": 85.0684,
      "duration": 0.0154,
      "velocity": 91,
      "chip": "ym2612"
    },
    {
      "channel": 2,
      "note": 54,
      "start": 85.1023,
      "duration": 0.0148,
      "velocity": 91,
      "chip": "ym2612"
    },
    {
      "channel": 3,
      "note": 78,
      "start": 85.103,
      "duration": 0.0701,
      "velocity": 99,
      "chip": "ym2612"
    },
    {
      "channel": 4,
      "note": 78,
      "start": 85.1118,
      "duration": 0.0713,
      "velocity": 99,
      "chip": "ym2612"
    },
    {
      "channel": 2,
      "note": 54,
      "start": 85.12,
      "duration": 0.0144,
      "velocity": 91,
      "chip": "ym2612"
    },
    {
      "channel": 2,
      "note": 54,
      "start": 85.138,
      "duration": 0.017,
      "velocity": 91,
      "chip": "ym2612"
    },
    {
      "channel": 2,
      "note": 54,
      "start": 85.1582,
      "duration": 0.0146,
      "velocity": 91,
      "chip": "ym2612"
    },
    {
      "channel": 2,
      "note": 54,
      "start": 85.1757,
      "duration": 0.0152,
      "velocity": 91,
      "chip": "ym2612"
    },
    {
      "channel": 3,
      "note": 80,
      "start": 85.1762,
      "duration": 0.0308,
      "velocity": 99,
      "chip": "ym2612"
    },
    {
      "channel": 4,
      "note": 80,
      "start": 85.1854,
      "duration": 0.0333,
      "velocity": 99,
      "chip": "ym2612"
    },
    {
      "channel": 2,
      "note": 49,
      "start": 85.2105,
      "duration": 0.0354,
      "velocity": 91,
      "chip": "ym2612"
    },
    {
      "channel": 3,
      "note": 81,
      "start": 85.2112,
      "duration": 0.035,
      "velocity": 99,
      "chip": "ym2612"
    },
    {
      "channel": 4,
      "note": 81,
      "start": 85.2221,
      "duration": 0.034,
      "velocity": 99,
      "chip": "ym2612"
    },
    {
      "channel": 0,
      "note": 74,
      "start": 85.2435,
      "duration": 0.0306,
      "velocity": 98,
      "chip": "ym2612"
    },
    {
      "channel": 1,
      "note": 71,
      "start": 85.2486,
      "duration": 0.0296,
      "velocity": 98,
      "chip": "ym2612"
    },
    {
      "channel": 2,
      "note": 50,
      "start": 85.2492,
      "duration": 0.0293,
      "velocity": 91,
      "chip": "ym2612"
    },
    {
      "channel": 3,
      "note": 69,
      "start": 85.2497,
      "duration": 0.0291,
      "velocity": 99,
      "chip": "ym2612"
    },
    {
      "channel": 4,
      "note": 69,
      "start": 85.2582,
      "duration": 0.0306,
      "velocity": 99,
      "chip": "ym2612"
    },
    {
      "channel": 0,
      "note": 76,
      "start": 85.2761,
      "duration": 0.0337,
      "velocity": 98,
      "chip": "ym2612"
    },
    {
      "channel": 1,
      "note": 73,
      "start": 85.281,
      "duration": 0.0331,
      "velocity": 98,
      "chip": "ym2612"
    },
    {
      "channel": 2,
      "note": 52,
      "start": 85.2815,
      "duration": 0.0328,
      "velocity": 91,
      "chip": "ym2612"
    },
    {
      "channel": 3,
      "note": 71,
      "start": 85.2822,
      "duration": 0.0325,
      "velocity": 99,
      "chip": "ym2612"
    },
    {
      "channel": 4,
      "note": 71,
      "start": 85.2909,
      "duration": 0.0346,
      "velocity": 99,
      "chip": "ym2612"
    },
    {
      "channel": 0,
      "note": 78,
      "start": 85.3119,
      "duration": 0.1067,
      "velocity": 98,
      "chip": "ym2612"
    },
    {
      "channel": 1,
      "note": 74,
      "start": 85.3179,
      "duration": 0.1051,
      "velocity": 98,
      "chip": "ym2612"
    },
    {
      "channel": 2,
      "note": 50,
      "start": 85.3184,
      "duration": 0.0148,
      "velocity": 91,
      "chip": "ym2612"
    },
    {
      "channel": 3,
      "note": 73,
      "start": 85.319,
      "duration": 0.07,
      "velocity": 99,
      "chip": "ym2612"
    },
    {
      "channel": 4,
      "note": 73,
      "start": 85.3277,
      "duration": 0.071,
      "velocity": 99,
      "chip": "ym2612"
    },
    {
      "channel": 2,
      "note": 50,
      "start": 85.3512,
      "duration": 0.0119,
      "velocity": 91,
      "chip": "ym2612"
    },
    {
      "channel": 2,
      "note": 50,
      "start": 85.3669,
      "duration": 0.011,
      "velocity": 91,
      "chip": "ym2612"
    },
    {
      "channel": 2,
      "note": 50,
      "start": 85.3823,
      "duration": 0.0065,
      "velocity": 91,
      "chip": "ym2612"
    },
    {
      "channel": 2,
      "note": 50,
      "start": 85.3915,
      "duration": 0.0151,
      "velocity": 91,
      "chip": "ym2612"
    },
    {
      "channel": 3,
      "note": 74,
      "start": 85.3921,
      "duration": 0.0703,
      "velocity": 99,
      "chip": "ym2612"
    },
    {
      "channel": 4,
      "note": 74,
      "start": 85.4012,
      "duration": 0.0726,
      "velocity": 99,
      "chip": "ym2612"
    },
    {
      "channel": 0,
      "note": 69,
      "start": 85.4208,
      "duration": 0.0365,
      "velocity": 98,
      "chip": "ym2612"
    },
    {
      "channel": 1,
      "note": 66,
      "start": 85.4265,
      "duration": 0.0354,
      "velocity": 98,
      "chip": "ym2612"
    },
    {
      "channel": 2,
      "note": 50,
      "start": 85.427,
      "duration": 0.0115,
      "velocity": 91,
      "chip": "ym2612"
    },
    {
      "channel": 2,
      "note": 50,
      "start": 85.442,
      "duration": 0.0093,
      "velocity": 91,
      "chip": "ym2612"
    },
    {
      "channel": 2,
      "note": 50,
      "start": 85.4551,
      "duration": 0.0071,
      "velocity": 91,
      "chip": "ym2612"
    },
    {
      "channel": 0,
      "note": 78,
      "start": 85.4596,
      "duration": 0.0688,
      "velocity": 98,
      "chip": "ym2612"
    },
    {
      "channel": 1,
      "note": 74,
      "start": 85.4663,
      "duration": 0.068,
      "velocity": 98,
      "chip": "ym2612"
    },
    {
      "channel": 2,
      "note": 50,
      "start": 85.4668,
      "duration": 0.0147,
      "velocity": 91,
      "chip": "ym2612"
    },
    {
      "channel": 3,
      "note": 69,
      "start": 85.4674,
      "duration": 0.0675,
      "velocity": 99,
      "chip": "ym2612"
    },
    {
      "channel": 4,
      "note": 69,
      "start": 85.4764,
      "duration": 0.0678,
      "velocity": 99,
      "chip": "ym2612"
    },
    {
      "channel": 2,
      "note": 54,
      "start": 85.4996,
      "duration": 0.035,
      "velocity": 91,
      "chip": "ym2612"
    },
    {
      "channel": 0,
      "note": 74,
      "start": 85.5315,
      "duration": 0.0314,
      "velocity": 98,
      "chip": "ym2612"
    },
    {
      "channel": 1,
      "note": 69,
      "start": 85.5367,
      "duration": 0.0308,
      "velocity": 98,
      "chip": "ym2612"
    },
    {
      "channel": 2,
      "note": 57,
      "start": 85.5372,
      "duration": 0.0305,
      "velocity": 91,
      "chip": "ym2612"
    },
    {
      "channel": 3,
      "note": 74,
      "start": 85.5378,
      "duration": 0.0645,
      "velocity": 99,
      "chip": "ym2612"
    },
    {
      "channel": 4,
      "note": 74,
      "start": 85.5463,
      "duration": 0.0674,
      "velocity": 99,
      "chip": "ym2612"
    },
    {
      "channel": 0,
      "note": 76,
      "start": 85.5653,
      "duration": 0.0305,
      "velocity": 98,
      "chip": "ym2612"
    },
    {
      "channel": 1,
      "note": 73,
      "start": 85.57,
      "duration": 0.0314,
      "velocity": 98,
      "chip": "ym2612"
    },
    {
      "channel": 2,
      "note": 61,
      "start": 85.5705,
      "duration": 0.0312,
      "velocity": 91,
      "chip": "ym2612"
    },
    {
      "channel": 0,
      "note": 78,
      "start": 85.5986,
      "duration": 0.1045,
      "velocity": 98,
      "chip": "ym2612"
    },
    {
      "channel": 1,
      "note": 75,
      "start": 85.6058,
      "duration": 0.1018,
      "velocity": 98,
      "chip": "ym2612"
    },
    {
      "channel": 2,
      "note": 60,
      "start": 85.6063,
      "duration": 0.0151,
      "velocity": 91,
      "chip": "ym2612"
    },
    {
      "channel": 3,
      "note": 73,
      "start": 85.6069,
      "duration": 0.1368,
      "velocity": 99,
      "chip": "ym2612"
    },
    {
      "channel": 4,
      "note": 73,
      "start": 85.6159,
      "duration": 0.1392,
      "velocity": 99,
      "chip": "ym2612"
    },
    {
      "channel": 2,
      "note": 60,
      "start": 85.6389,
      "duration": 0.0115,
      "velocity": 91,
      "chip": "ym2612"
    },
    {
      "channel": 2,
      "note": 60,
      "start": 85.6542,
      "duration": 0.0081,
      "velocity": 91,
      "chip": "ym2612"
    },
    {
      "channel": 2,
      "note": 60,
      "start": 85.6649,
      "duration": 0.0063,
      "velocity": 91,
      "chip": "ym2612"
    },
    {
      "channel": 2,
      "note": 60,
      "start": 85.6747,
      "duration": 0.0168,
      "velocity": 91,
      "chip": "ym2612"
    },
    {
      "channel": 0,
      "note": 69,
      "start": 85.7054,
      "duration": 0.0334,
      "velocity": 98,
      "chip": "ym2612"
    },
    {
      "channel": 1,
      "note": 66,
      "start": 85.71,
      "duration": 0.0331,
      "velocity": 98,
      "chip": "ym2612"
    },
    {
      "channel": 2,
      "note": 60,
      "start": 85.7105,
      "duration": 0.0123,
      "velocity": 91,
      "chip": "ym2612"
    },
    {
      "channel": 2,
      "note": 60,
      "start": 85.7259,
      "duration": 0.008,
      "velocity": 91,
      "chip": "ym2612"
    },
    {
      "channel": 2,
      "note": 60,
      "start": 85.7368,
      "duration": 0.0066,
      "velocity": 91,
      "chip": "ym2612"
    },
    {
      "channel": 0,
      "note": 78,
      "start": 85.7409,
      "duration": 0.0691,
      "velocity": 98,
      "chip": "ym2612"
    },
    {
      "channel": 1,
      "note": 75,
      "start": 85.7459,
      "duration": 0.0686,
      "velocity": 98,
      "chip": "ym2612"
    },
    {
      "channel": 2,
      "note": 60,
      "start": 85.7464,
      "duration": 0.0181,
      "velocity": 91,
      "chip": "ym2612"
    },
    {
      "channel": 3,
      "note": 72,
      "start": 85.7469,
      "duration": 0.1385,
      "velocity": 99,
      "chip": "ym2612"
    },
    {
      "channel": 4,
      "note": 66,
      "start": 85.7582,
      "duration": 0.1368,
      "velocity": 99,
      "chip": "ym2612"
    },
    {
      "channel": 2,
      "note": 54,
      "start": 85.7817,
      "duration": 0.0331,
      "velocity": 91,
      "chip": "ym2612"
    },
    {
      "channel": 0,
      "note": 80,
      "start": 85.8122,
      "duration": 0.0334,
      "velocity": 98,
      "chip": "ym2612"
    },
    {
      "channel": 1,
      "note": 75,
      "start": 85.8173,
      "duration": 0.0336,
      "velocity": 98,
      "chip": "ym2612"
    },
    {
      "channel": 2,
      "note": 57,
      "start": 85.8178,
      "duration": 0.0333,
      "velocity": 91,
      "chip": "ym2612"
    },
    {
      "channel": 0,
      "note": 81,
      "start": 85.8482,
      "duration": 0.0323,
      "velocity": 98,
      "chip": "ym2612"
    },
    {
      "channel": 1,
      "note": 78,
      "start": 85.8544,
      "duration": 0.0305,
      "velocity": 98,
      "chip": "ym2612"
    },
    {
      "channel": 2,
      "note": 48,
      "start": 85.8549,
      "duration": 0.0303,
      "velocity": 91,
      "chip": "ym2612"
    },
    {
      "channel": 0,
      "note": 83,
      "start": 85.8827,
      "duration": 0.2146,
      "velocity": 98,
      "chip": "ym2612"
    },
    {
      "channel": 1,
      "note": 80,
      "start": 85.8873,
      "duration": 0.2148,
      "velocity": 98,
      "chip": "ym2612"
    },
    {
      "channel": 2,
      "note": 49,
      "start": 85.8879,
      "duration": 0.0154,
      "velocity": 91,
      "chip": "ym2612"
    },
    {
      "channel": 3,
      "note": 75,
      "start": 85.8884,
      "duration": 0.0678,
      "velocity": 99,
      "chip": "ym2612"
    },
    {
      "channel": 4,
      "note": 72,
      "start": 85.8972,
      "duration": 0.0688,
      "velocity": 99,
      "chip": "ym2612"
    },
    {
      "channel": 2,
      "note": 49,
      "start": 85.9227,
      "duration": 0.012,
      "velocity": 91,
      "chip": "ym2612"
    },
    {
      "channel": 2,
      "note": 49,
      "start": 85.9388,
      "duration": 0.0081,
      "velocity": 91,
      "chip": "ym2612"
    },
    {
      "channel": 2,
      "note": 49,
      "start": 85.9496,
      "duration": 0.0064,
      "velocity": 91,
      "chip": "ym2612"
    },
    {
      "channel": 2,
      "note": 49,
      "start": 85.9588,
      "duration": 0.0151,
      "velocity": 91,
      "chip": "ym2612"
    },
    {
      "channel": 3,
      "note": 73,
      "start": 85.9594,
      "duration": 0.0695,
      "velocity": 99,
      "chip": "ym2612"
    },
    {
      "channel": 4,
      "note": 68,
      "start": 85.9682,
      "duration": 0.0702,
      "velocity": 99,
      "chip": "ym2612"
    },
    {
      "channel": 2,
      "note": 49,
      "start": 85.9956,
      "duration": 0.0124,
      "velocity": 91,
      "chip": "ym2612"
    },
    {
      "channel": 2,
      "note": 49,
      "start": 86.0114,
      "duration": 0.0082,
      "velocity": 91,
      "chip": "ym2612"
    },
    {
      "channel": 2,
      "note": 49,
      "start": 86.0221,
      "duration": 0.0064,
      "velocity": 91,
      "chip": "ym2612"
    },
    {
      "channel": 2,
      "note": 49,
      "start": 86.0313,
      "duration": 0.0152,
      "velocity": 91,
      "chip": "ym2612"
    },
    {
      "channel": 3,
      "note": 77,
      "start": 86.0319,
      "duration": 0.0709,
      "velocity": 99,
      "chip": "ym2612"
    },
    {
      "channel": 4,
      "note": 71,
      "start": 86.0411,
      "duration": 0.0713,
      "velocity": 99,
      "chip": "ym2612"
    },
    {
      "channel": 2,
      "note": 49,
      "start": 86.0692,
      "duration": 0.0333,
      "velocity": 91,
      "chip": "ym2612"
    },
    {
      "channel": 0,
      "note": 81,
      "start": 86.0995,
      "duration": 0.016,
      "velocity": 98,
      "chip": "ym2612"
    },
    {
      "channel": 1,
      "note": 77,
      "start": 86.1049,
      "duration": 0.0148,
      "velocity": 98,
      "chip": "ym2612"
    },
    {
      "channel": 2,
      "note": 53,
      "start": 86.1054,
      "duration": 0.0322,
      "velocity": 91,
      "chip": "ym2612"
    },
    {
      "channel": 3,
      "note": 80,
      "start": 86.106,
      "duration": 0.0659,
      "velocity": 99,
      "chip": "ym2612"
    },
    {
      "channel": 4,
      "note": 73,
      "start": 86.1145,
      "duration": 0.067,
      "velocity": 99,
      "chip": "ym2612"
    },
    {
      "channel": 0,
      "note": 83,
      "start": 86.1176,
      "duration": 0.0138,
      "velocity": 98,
      "chip": "ym2612"
    },
    {
      "channel": 1,
      "note": 80,
      "start": 86.1219,
      "duration": 0.0152,
      "velocity": 98,
      "chip": "ym2612"
    },
    {
      "channel": 0,
      "note": 81,
      "start": 86.134,
      "duration": 0.0327,
      "velocity": 98,
      "chip": "ym2612"
    },
    {
      "channel": 1,
      "note": 77,
      "start": 86.1418,
      "duration": 0.0296,
      "velocity": 98,
      "chip": "ym2612"
    },
    {
      "channel": 2,
      "note": 56,
      "start": 86.1423,
      "duration": 0.0294,
      "velocity": 91,
      "chip": "ym2612"
    },
    {
      "channel": 0,
      "note": 80,
      "start": 86.1692,
      "duration": 0.0155,
      "velocity": 98,
      "chip": "ym2612"
    },
    {
      "channel": 1,
      "note": 77,
      "start": 86.174,
      "duration": 0.015,
      "velocity": 98,
      "chip": "ym2612"
    },
    {
      "channel": 2,
      "note": 61,
      "start": 86.1744,
      "duration": 0.0148,
      "velocity": 91,
      "chip": "ym2612"
    },
    {
      "channel": 3,
      "note": 83,
      "start": 86.1751,
      "duration": 0.0701,
      "velocity": 99,
      "chip": "ym2612"
    },
    {
      "channel": 4,
      "note": 77,
      "start": 86.1837,
      "duration": 0.0715,
      "velocity": 99,
      "chip": "ym2612"
    },
    {
      "channel": 0,
      "note": 78,
      "start": 86.1868,
      "duration": 0.0136,
      "velocity": 98,
      "chip": "ym2612"
    },
    {
      "channel": 1,
      "note": 73,
      "start": 86.191,
      "duration": 0.0141,
      "velocity": 98,
      "chip": "ym2612"
    },
    {
      "channel": 0,
      "note": 83,
      "start": 86.2025,
      "duration": 0.0192,
      "velocity": 98,
      "chip": "ym2612"
    },
    {
      "channel": 1,
      "note": 80,
      "start": 86.2093,
      "duration": 0.0172,
      "velocity": 98,
      "chip": "ym2612"
    },
    {
      "channel": 2,
      "note": 61,
      "start": 86.2101,
      "duration": 0.0142,
      "velocity": 91,
      "chip": "ym2612"
    },
    {
      "channel": 0,
      "note": 81,
      "start": 86.2238,
      "duration": 0.0164,
      "velocity": 98,
      "chip": "ym2612"
    },
    {
      "channel": 2,
      "note": 61,
      "start": 86.2269,
      "duration": 0.0085,
      "velocity": 91,
      "chip": "ym2612"
    },
    {
      "channel": 1,
      "note": 78,
      "start": 86.2292,
      "duration": 0.0154,
      "velocity": 98,
      "chip": "ym2612"
    },
    {
      "channel": 2,
      "note": 61,
      "start": 86.238,
      "duration": 0.0068,
      "velocity": 91,
      "chip": "ym2612"
    },
    {
      "channel": 0,
      "note": 80,
      "start": 86.2424,
      "duration": 0.016,
      "velocity": 98,
      "chip": "ym2612"
    },
    {
      "channel": 1,
      "note": 77,
      "start": 86.2473,
      "duration": 0.0152,
      "velocity": 98,
      "chip": "ym2612"
    },
    {
      "channel": 2,
      "note": 61,
      "start": 86.2478,
      "duration": 0.015,
      "velocity": 91,
      "chip": "ym2612"
    },
    {
      "channel": 3,
      "note": 85,
      "start": 86.2483,
      "duration": 0.0702,
      "velocity": 99,
      "chip": "ym2612"
    },
    {
      "channel": 4,
      "note": 80,
      "start": 86.2573,
      "duration": 0.0711,
      "velocity": 99,
      "chip": "ym2612"
    },
    {
      "channel": 0,
      "note": 78,
      "start": 86.2604,
      "duration": 0.0142,
      "velocity": 98,
      "chip": "ym2612"
    },
    {
      "channel": 1,
      "note": 73,
      "start": 86.2647,
      "duration": 0.0142,
      "velocity": 98,
      "chip": "ym2612"
    },
    {
      "channel": 0,
      "note": 77,
      "start": 86.2767,
      "duration": 0.0187,
      "velocity": 98,
      "chip": "ym2612"
    },
    {
      "channel": 1,
      "note": 71,
      "start": 86.2825,
      "duration": 0.0178,
      "velocity": 98,
      "chip": "ym2612"
    },
    {
      "channel": 2,
      "note": 61,
      "start": 86.283,
      "duration": 0.0151,
      "velocity": 91,
      "chip": "ym2612"
    },
    {
      "channel": 0,
      "note": 71,
      "start": 86.2976,
      "duration": 0.0161,
      "velocity": 98,
      "chip": "ym2612"
    },
    {
      "channel": 2,
      "note": 61,
      "start": 86.3007,
      "duration": 0.0086,
      "velocity": 91,
      "chip": "ym2612"
    },
    {
      "channel": 1,
      "note": 68,
      "start": 86.3034,
      "duration": 0.0324,
      "velocity": 98,
      "chip": "ym2612"
    },
    {
      "channel": 2,
      "note": 61,
      "start": 86.3118,
      "duration": 0.0064,
      "velocity": 91,
      "chip": "ym2612"
    },
    {
      "channel": 0,
      "note": 73,
      "start": 86.3158,
      "duration": 0.0158,
      "velocity": 98,
      "chip": "ym2612"
    },
    {
      "channel": 2,
      "note": 61,
      "start": 86.3213,
      "duration": 0.0147,
      "velocity": 91,
      "chip": "ym2612"
    },
    {
      "channel": 3,
      "note": 89,
      "start": 86.322,
      "duration": 0.0693,
      "velocity": 99,
      "chip": "ym2612"
    },
    {
      "channel": 4,
      "note": 83,
      "start": 86.3306,
      "duration": 0.0705,
      "velocity": 99,
      "chip": "ym2612"
    },
    {
      "channel": 0,
      "note": 77,
      "start": 86.3337,
      "duration": 0.0139,
      "velocity": 98,
      "chip": "ym2612"
    },
    {
      "channel": 1,
      "note": 71,
      "start": 86.3383,
      "duration": 0.0136,
      "velocity": 98,
      "chip": "ym2612"
    },
    {
      "channel": 0,
      "note": 80,
      "start": 86.3497,
      "duration": 0.0173,
      "velocity": 98,
      "chip": "ym2612"
    },
    {
      "channel": 1,
      "note": 73,
      "start": 86.3557,
      "duration": 0.0183,
      "velocity": 98,
      "chip": "ym2612"
    },
    {
      "channel": 2,
      "note": 49,
      "start": 86.3562,
      "duration": 0.1083,
      "velocity": 91,
      "chip": "ym2612"
    },
    {
      "channel": 0,
      "note": 83,
      "start": 86.3702,
      "duration": 0.0162,
      "velocity": 98,
      "chip": "ym2612"
    },
    {
      "channel": 1,
      "note": 77,
      "start": 86.3765,
      "duration": 0.0143,
      "velocity": 98,
      "chip": "ym2612"
    },
    {
      "channel": 0,
      "note": 85,
      "start": 86.3885,
      "duration": 0.0157,
      "velocity": 98,
      "chip": "ym2612"
    },
    {
      "channel": 1,
      "note": 80,
      "start": 86.3938,
      "duration": 0.0146,
      "velocity": 98,
      "chip": "ym2612"
    },
    {
      "channel": 3,
      "note": 92,
      "start": 86.3946,
      "duration": 0.0702,
      "velocity": 99,
      "chip": "ym2612"
    },
    {
      "channel": 4,
      "note": 85,
      "start": 86.4032,
      "duration": 0.0801,
      "velocity": 99,
      "chip": "ym2612"
    },
    {
      "channel": 0,
      "note": 89,
      "start": 86.4062,
      "duration": 0.0136,
      "velocity": 98,
      "chip": "ym2612"
    },
    {
      "channel": 1,
      "note": 83,
      "start": 86.4105,
      "duration": 0.0139,
      "velocity": 98,
      "chip": "ym2612"
    },
    {
      "channel": 0,
      "note": 92,
      "start": 86.422,
      "duration": 0.0347,
      "velocity": 98,
      "chip": "ym2612"
    },
    {
      "channel": 1,
      "note": 85,
      "start": 86.4288,
      "duration": 0.0354,
      "velocity": 98,
      "chip": "ym2612"
    },
    {
      "channel": 0,
      "note": 59,
      "start": 86.4619,
      "duration": 0.027,
      "velocity": 87,
      "chip": "ym2612"
    },
    {
      "channel": 2,
      "note": 42,
      "start": 86.4737,
      "duration": 0.9557,
      "velocity": 97,
      "chip": "ym2612"
    },
    {
      "channel": 3,
      "note": 97,
      "start": 86.4767,
      "duration": 0.017,
      "velocity": 99,
      "chip": "ym2612"
    },
    {
      "channel": 4,
      "note": 89,
      "start": 86.4878,
      "duration": 0.014,
      "velocity": 99,
      "chip": "ym2612"
    },
    {
      "channel": 0,
      "note": 61,
      "start": 86.491,
      "duration": 0.0139,
      "velocity": 87,
      "chip": "ym2612"
    },
    {
      "channel": 3,
      "note": 93,
      "start": 86.4958,
      "duration": 0.0141,
      "velocity": 99,
      "chip": "ym2612"
    },
    {
      "channel": 4,
      "note": 93,
      "start": 86.5039,
      "duration": 0.0145,
      "velocity": 99,
      "chip": "ym2612"
    },
    {
      "channel": 0,
      "note": 62,
      "start": 86.5073,
      "duration": 0.0141,
      "velocity": 87,
      "chip": "ym2612"
    },
    {
      "channel": 1,
      "note": 59,
      "start": 86.5115,
      "duration": 0.0141,
      "velocity": 87,
      "chip": "ym2612"
    },
    {
      "channel": 3,
      "note": 92,
      "start": 86.5124,
      "duration": 0.0139,
      "velocity": 99,
      "chip": "ym2612"
    },
    {
      "channel": 4,
      "note": 92,
      "start": 86.5205,
      "duration": 0.0215,
      "velocity": 99,
      "chip": "ym2612"
    },
    {
      "channel": 0,
      "note": 66,
      "start": 86.5236,
      "duration": 0.0513,
      "velocity": 87,
      "chip": "ym2612"
    },
    {
      "channel": 1,
      "note": 61,
      "start": 86.5284,
      "duration": 0.081,
      "velocity": 87,
      "chip": "ym2612"
    },
    {
      "channel": 3,
      "note": 90,
      "start": 86.5296,
      "duration": 0.0803,
      "velocity": 99,
      "chip": "ym2612"
    },
    {
      "channel": 4,
      "note": 90,
      "start": 86.5591,
      "duration": 0.1197,
      "velocity": 99,
      "chip": "ym2612"
    },
    {
      "channel": 0,
      "note": 71,
      "start": 86.5922,
      "duration": 0.8025,
      "velocity": 87,
      "chip": "ym2612"
    },
    {
      "channel": 1,
      "note": 62,
      "start": 86.6267,
      "duration": 0.1199,
      "velocity": 87,
      "chip": "ym2612"
    },
    {
      "channel": 3,
      "note": 85,
      "start": 86.6276,
      "duration": 0.1195,
      "velocity": 99,
      "chip": "ym2612"
    },
    {
      "channel": 4,
      "note": 85,
      "start": 86.6986,
      "duration": 0.1174,
      "velocity": 99,
      "chip": "ym2612"
    },
    {
      "channel": 1,
      "note": 66,
      "start": 86.7639,
      "duration": 0.1199,
      "velocity": 87,
      "chip": "ym2612"
    },
    {
      "channel": 3,
      "note": 93,
      "start": 86.7648,
      "duration": 0.1195,
      "velocity": 99,
      "chip": "ym2612"
    },
    {
      "channel": 4,
      "note": 93,
      "start": 86.8334,
      "duration": 0.0753,
      "velocity": 99,
      "chip": "ym2612"
    },
    {
      "channel": 1,
      "note": 71,
      "start": 86.9012,
      "duration": 0.6396,
      "velocity": 87,
      "chip": "ym2612"
    },
    {
      "channel": 3,
      "note": 92,
      "start": 86.902,
      "duration": 0.0144,
      "velocity": 99,
      "chip": "ym2612"
    },
    {
      "channel": 4,
      "note": 92,
      "start": 86.9108,
      "duration": 0.0181,
      "velocity": 99,
      "chip": "ym2612"
    },
    {
      "channel": 3,
      "note": 90,
      "start": 86.9187,
      "duration": 0.0782,
      "velocity": 99,
      "chip": "ym2612"
    },
    {
      "channel": 4,
      "note": 90,
      "start": 86.9464,
      "duration": 0.0746,
      "velocity": 99,
      "chip": "ym2612"
    },
    {
      "channel": 3,
      "note": 85,
      "start": 87.0143,
      "duration": 0.0174,
      "velocity": 99,
      "chip": "ym2612"
    },
    {
      "channel": 4,
      "note": 85,
      "start": 87.0261,
      "duration": 0.0146,
      "velocity": 99,
      "chip": "ym2612"
    },
    {
      "channel": 3,
      "note": 93,
      "start": 87.0343,
      "duration": 0.0146,
      "velocity": 99,
      "chip": "ym2612"
    },
    {
      "channel": 4,
      "note": 93,
      "start": 87.0432,
      "duration": 0.0143,
      "velocity": 99,
      "chip": "ym2612"
    },
    {
      "channel": 3,
      "note": 92,
      "start": 87.0512,
      "duration": 0.0143,
      "velocity": 99,
      "chip": "ym2612"
    },
    {
      "channel": 4,
      "note": 92,
      "start": 87.0598,
      "duration": 0.0272,
      "velocity": 99,
      "chip": "ym2612"
    },
    {
      "channel": 3,
      "note": 90,
      "start": 87.0678,
      "duration": 0.0882,
      "velocity": 99,
      "chip": "ym2612"
    },
    {
      "channel": 4,
      "note": 90,
      "start": 87.1043,
      "duration": 0.1198,
      "velocity": 99,
      "chip": "ym2612"
    },
    {
      "channel": 3,
      "note": 85,
      "start": 87.1731,
      "duration": 0.1195,
      "velocity": 99,
      "chip": "ym2612"
    },
    {
      "channel": 4,
      "note": 85,
      "start": 87.244,
      "duration": 0.1174,
      "velocity": 99,
      "chip": "ym2612"
    },
    {
      "channel": 3,
      "note": 93,
      "start": 87.3099,
      "duration": 0.1198,
      "velocity": 99,
      "chip": "ym2612"
    },
    {
      "channel": 4,
      "note": 93,
      "start": 87.3788,
      "duration": 0.0753,
      "velocity": 99,
      "chip": "ym2612"
    },
    {
      "channel": 0,
      "note": 73,
      "start": 87.4119,
      "duration": 0.0453,
      "velocity": 87,
      "chip": "ym2612"
    },
    {
      "channel": 2,
      "note": 42,
      "start": 87.4467,
      "duration": 0.0943,
      "velocity": 97,
      "chip": "ym2612"
    },
    {
      "channel": 3,
      "note": 92,
      "start": 87.4473,
      "duration": 0.0152,
      "velocity": 99,
      "chip": "ym2612"
    },
    {
      "channel": 4,
      "note": 92,
      "start": 87.4563,
      "duration": 0.0167,
      "velocity": 99,
      "chip": "ym2612"
    },
    {
      "channel": 0,
      "note": 74,
      "start": 87.4594,
      "duration": 0.0469,
      "velocity": 87,
      "chip": "ym2612"
    },
    {
      "channel": 3,
      "note": 90,
      "start": 87.4647,
      "duration": 0.0767,
      "velocity": 99,
      "chip": "ym2612"
    },
    {
      "channel": 4,
      "note": 90,
      "start": 87.4904,
      "duration": 0.0772,
      "velocity": 99,
      "chip": "ym2612"
    },
    {
      "channel": 0,
      "note": 76,
      "start": 87.5236,
      "duration": 0.4173,
      "velocity": 87,
      "chip": "ym2612"
    },
    {
      "channel": 1,
      "note": 73,
      "start": 87.5584,
      "duration": 0.0169,
      "velocity": 87,
      "chip": "ym2612"
    },
    {
      "channel": 2,
      "note": 40,
      "start": 87.5593,
      "duration": 0.6525,
      "velocity": 97,
      "chip": "ym2612"
    },
    {
      "channel": 3,
      "note": 85,
      "start": 87.5601,
      "duration": 0.0156,
      "velocity": 99,
      "chip": "ym2612"
    },
    {
      "channel": 4,
      "note": 85,
      "start": 87.57,
      "duration": 0.0142,
      "velocity": 99,
      "chip": "ym2612"
    },
    {
      "channel": 1,
      "note": 74,
      "start": 87.5773,
      "duration": 0.0138,
      "velocity": 87,
      "chip": "ym2612"
    },
    {
      "channel": 3,
      "note": 92,
      "start": 87.5782,
      "duration": 0.0135,
      "velocity": 99,
      "chip": "ym2612"
    },
    {
      "channel": 4,
      "note": 92,
      "start": 87.5863,
      "duration": 0.0141,
      "velocity": 99,
      "chip": "ym2612"
    },
    {
      "channel": 1,
      "note": 76,
      "start": 87.5933,
      "duration": 0.4934,
      "velocity": 87,
      "chip": "ym2612"
    },
    {
      "channel": 3,
      "note": 90,
      "start": 87.5941,
      "duration": 0.0144,
      "velocity": 99,
      "chip": "ym2612"
    },
    {
      "channel": 4,
      "note": 90,
      "start": 87.6026,
      "duration": 0.0307,
      "velocity": 99,
      "chip": "ym2612"
    },
    {
      "channel": 3,
      "note": 88,
      "start": 87.6107,
      "duration": 0.0909,
      "velocity": 99,
      "chip": "ym2612"
    },
    {
      "channel": 4,
      "note": 88,
      "start": 87.6506,
      "duration": 0.1204,
      "velocity": 99,
      "chip": "ym2612"
    },
    {
      "channel": 3,
      "note": 83,
      "start": 87.7191,
      "duration": 0.1197,
      "velocity": 99,
      "chip": "ym2612"
    },
    {
      "channel": 4,
      "note": 83,
      "start": 87.7885,
      "duration": 0.1193,
      "velocity": 99,
      "chip": "ym2612"
    },
    {
      "channel": 3,
      "note": 92,
      "start": 87.8562,
      "duration": 0.1198,
      "velocity": 99,
      "chip": "ym2612"
    },
    {
      "channel": 4,
      "note": 92,
      "start": 87.9252,
      "duration": 0.0748,
      "velocity": 99,
      "chip": "ym2612"
    },
    {
      "channel": 0,
      "note": 74,
      "start": 87.9583,
      "duration": 0.0938,
      "velocity": 87,
      "chip": "ym2612"
    },
    {
      "channel": 3,
      "note": 90,
      "start": 87.9934,
      "duration": 0.0147,
      "velocity": 99,
      "chip": "ym2612"
    },
    {
      "channel": 4,
      "note": 90,
      "start": 88.0022,
      "duration": 0.0167,
      "velocity": 99,
      "chip": "ym2612"
    },
    {
      "channel": 3,
      "note": 88,
      "start": 88.0103,
      "duration": 0.077,
      "velocity": 99,
      "chip": "ym2612"
    },
    {
      "channel": 4,
      "note": 88,
      "start": 88.0362,
      "duration": 0.0763,
      "velocity": 99,
      "chip": "ym2612"
    },
    {
      "channel": 0,
      "note": 73,
      "start": 88.0695,
      "duration": 0.1724,
      "velocity": 87,
      "chip": "ym2612"
    },
    {
      "channel": 1,
      "note": 74,
      "start": 88.1039,
      "duration": 0.0345,
      "velocity": 87,
      "chip": "ym2612"
    },
    {
      "channel": 3,
      "note": 83,
      "start": 88.105,
      "duration": 0.0176,
      "velocity": 99,
      "chip": "ym2612"
    },
    {
      "channel": 4,
      "note": 83,
      "start": 88.116,
      "duration": 0.0149,
      "velocity": 99,
      "chip": "ym2612"
    },
    {
      "channel": 3,
      "note": 92,
      "start": 88.1248,
      "duration": 0.0142,
      "velocity": 99,
      "chip": "ym2612"
    },
    {
      "channel": 4,
      "note": 92,
      "start": 88.1334,
      "duration": 0.0152,
      "velocity": 99,
      "chip": "ym2612"
    },
    {
      "channel": 1,
      "note": 73,
      "start": 88.1412,
      "duration": 0.1472,
      "velocity": 87,
      "chip": "ym2612"
    },
    {
      "channel": 3,
      "note": 90,
      "start": 88.1421,
      "duration": 0.015,
      "velocity": 99,
      "chip": "ym2612"
    },
    {
      "channel": 4,
      "note": 90,
      "start": 88.1507,
      "duration": 0.015,
      "velocity": 99,
      "chip": "ym2612"
    },
    {
      "channel": 3,
      "note": 88,
      "start": 88.1596,
      "duration": 0.0146,
      "velocity": 99,
      "chip": "ym2612"
    },
    {
      "channel": 4,
      "note": 88,
      "start": 88.1682,
      "duration": 0.016,
      "velocity": 99,
      "chip": "ym2612"
    },
    {
      "channel": 3,
      "note": 83,
      "start": 88.1777,
      "duration": 0.0172,
      "velocity": 99,
      "chip": "ym2612"
    },
    {
      "channel": 4,
      "note": 83,
      "start": 88.1869,
      "duration": 0.0172,
      "velocity": 99,
      "chip": "ym2612"
    },
    {
      "channel": 3,
      "note": 92,
      "start": 88.1978,
      "duration": 0.0144,
      "velocity": 99,
      "chip": "ym2612"
    },
    {
      "channel": 4,
      "note": 92,
      "start": 88.2064,
      "duration": 0.0148,
      "velocity": 99,
      "chip": "ym2612"
    },
    {
      "channel": 2,
      "note": 40,
      "start": 88.2141,
      "duration": 0.0323,
      "velocity": 97,
      "chip": "ym2612"
    },
    {
      "channel": 3,
      "note": 90,
      "start": 88.2147,
      "duration": 0.0147,
      "velocity": 99,
      "chip": "ym2612"
    },
    {
      "channel": 4,
      "note": 90,
      "start": 88.2235,
      "duration": 0.0147,
      "velocity": 99,
      "chip": "ym2612"
    },
    {
      "channel": 3,
      "note": 88,
      "start": 88.2317,
      "duration": 0.015,
      "velocity": 99,
      "chip": "ym2612"
    },
    {
      "channel": 4,
      "note": 88,
      "start": 88.2408,
      "duration": 0.0201,
      "velocity": 99,
      "chip": "ym2612"
    },
    {
      "channel": 0,
      "note": 59,
      "start": 88.244,
      "duration": 0.0204,
      "velocity": 87,
      "chip": "ym2612"
    },
    {
      "channel": 2,
      "note": 42,
      "start": 88.2526,
      "duration": 0.9617,
      "velocity": 97,
      "chip": "ym2612"
    },
    {
      "channel": 3,
      "note": 83,
      "start": 88.2538,
      "duration": 0.0161,
      "velocity": 99,
      "chip": "ym2612"
    },
    {
      "channel": 4,
      "note": 83,
      "start": 88.2634,
      "duration": 0.0172,
      "velocity": 99,
      "chip": "ym2612"
    },
    {
      "channel": 0,
      "note": 61,
      "start": 88.2666,
      "duration": 0.0172,
      "velocity": 87,
      "chip": "ym2612"
    },
    {
      "channel": 3,
      "note": 93,
      "start": 88.2732,
      "duration": 0.0158,
      "velocity": 99,
      "chip": "ym2612"
    },
    {
      "channel": 4,
      "note": 93,
      "start": 88.2828,
      "duration": 0.0146,
      "velocity": 99,
      "chip": "ym2612"
    },
    {
      "channel": 0,
      "note": 62,
      "start": 88.2863,
      "duration": 0.0143,
      "velocity": 87,
      "chip": "ym2612"
    },
    {
      "channel": 1,
      "note": 59,
      "start": 88.2906,
      "duration": 0.0141,
      "velocity": 87,
      "chip": "ym2612"
    },
    {
      "channel": 3,
      "note": 92,
      "start": 88.2915,
      "duration": 0.0139,
      "velocity": 99,
      "chip": "ym2612"
    },
    {
      "channel": 4,
      "note": 92,
      "start": 88.2996,
      "duration": 0.0259,
      "velocity": 99,
      "chip": "ym2612"
    },
    {
      "channel": 0,
      "note": 66,
      "start": 88.3027,
      "duration": 0.0561,
      "velocity": 87,
      "chip": "ym2612"
    },
    {
      "channel": 1,
      "note": 61,
      "start": 88.3069,
      "duration": 0.0863,
      "velocity": 87,
      "chip": "ym2612"
    },
    {
      "channel": 3,
      "note": 90,
      "start": 88.3077,
      "duration": 0.0861,
      "velocity": 99,
      "chip": "ym2612"
    },
    {
      "channel": 4,
      "note": 90,
      "start": 88.3428,
      "duration": 0.1198,
      "velocity": 99,
      "chip": "ym2612"
    },
    {
      "channel": 0,
      "note": 71,
      "start": 88.3761,
      "duration": 0.8032,
      "velocity": 87,
      "chip": "ym2612"
    },
    {
      "channel": 1,
      "note": 62,
      "start": 88.4105,
      "duration": 0.12,
      "velocity": 87,
      "chip": "ym2612"
    },
    {
      "channel": 3,
      "note": 85,
      "start": 88.4116,
      "duration": 0.1195,
      "velocity": 99,
      "chip": "ym2612"
    },
    {
      "channel": 4,
      "note": 85,
      "start": 88.4802,
      "duration": 0.1204,
      "velocity": 99,
      "chip": "ym2612"
    },
    {
      "channel": 1,
      "note": 66,
      "start": 88.5478,
      "duration": 0.1199,
      "velocity": 87,
      "chip": "ym2612"
    },
    {
      "channel": 3,
      "note": 93,
      "start": 88.5487,
      "duration": 0.1195,
      "velocity": 99,
      "chip": "ym2612"
    },
    {
      "channel": 4,
      "note": 93,
      "start": 88.6179,
      "duration": 0.0744,
      "velocity": 99,
      "chip": "ym2612"
    },
    {
      "channel": 1,
      "note": 71,
      "start": 88.6851,
      "duration": 0.6406,
      "velocity": 87,
      "chip": "ym2612"
    },
    {
      "channel": 3,
      "note": 92,
      "start": 88.6859,
      "duration": 0.0147,
      "velocity": 99,
      "chip": "ym2612"
    },
    {
      "channel": 4,
      "note": 92,
      "start": 88.6945,
      "duration": 0.0168,
      "velocity": 99,
      "chip": "ym2612"
    },
    {
      "channel": 3,
      "note": 90,
      "start": 88.7028,
      "duration": 0.077,
      "velocity": 99,
      "chip": "ym2612"
    },
    {
      "channel": 4,
      "note": 90,
      "start": 88.7287,
      "duration": 0.0749,
      "velocity": 99,
      "chip": "ym2612"
    },
    {
      "channel": 3,
      "note": 85,
      "start": 88.7972,
      "duration": 0.0144,
      "velocity": 99,
      "chip": "ym2612"
    },
    {
      "channel": 4,
      "note": 85,
      "start": 88.806,
      "duration": 0.0145,
      "velocity": 99,
      "chip": "ym2612"
    },
    {
      "channel": 3,
      "note": 93,
      "start": 88.8139,
      "duration": 0.017,
      "velocity": 99,
      "chip": "ym2612"
    },
    {
      "channel": 4,
      "note": 93,
      "start": 88.824,
      "duration": 0.016,
      "velocity": 99,
      "chip": "ym2612"
    },
    {
      "channel": 3,
      "note": 92,
      "start": 88.8336,
      "duration": 0.0144,
      "velocity": 99,
      "chip": "ym2612"
    },
    {
      "channel": 4,
      "note": 92,
      "start": 88.8422,
      "duration": 0.0294,
      "velocity": 99,
      "chip": "ym2612"
    },
    {
      "channel": 3,
      "note": 90,
      "start": 88.8503,
      "duration": 0.0896,
      "velocity": 99,
      "chip": "ym2612"
    },
    {
      "channel": 4,
      "note": 90,
      "start": 88.889,
      "duration": 0.1198,
      "velocity": 99,
      "chip": "ym2612"
    },
    {
      "channel": 3,
      "note": 85,
      "start": 88.9574,
      "duration": 0.1198,
      "velocity": 99,
      "chip": "ym2612"
    },
    {
      "channel": 4,
      "note": 85,
      "start": 89.0264,
      "duration": 0.1196,
      "velocity": 99,
      "chip": "ym2612"
    },
    {
      "channel": 3,
      "note": 93,
      "start": 89.0945,
      "duration": 0.1205,
      "velocity": 99,
      "chip": "ym2612"
    },
    {
      "channel": 4,
      "note": 93,
      "start": 89.1635,
      "duration": 0.0765,
      "velocity": 99,
      "chip": "ym2612"
    },
    {
      "channel": 0,
      "note": 73,
      "start": 89.1966,
      "duration": 0.0465,
      "velocity": 87,
      "chip": "ym2612"
    },
    {
      "channel": 2,
      "note": 42,
      "start": 89.232,
      "duration": 0.0939,
      "velocity": 97,
      "chip": "ym2612"
    },
    {
      "channel": 3,
      "note": 92,
      "start": 89.2326,
      "duration": 0.0153,
      "velocity": 99,
      "chip": "ym2612"
    },
    {
      "channel": 4,
      "note": 92,
      "start": 89.242,
      "duration": 0.0158,
      "velocity": 99,
      "chip": "ym2612"
    },
    {
      "channel": 0,
      "note": 74,
      "start": 89.2452,
      "duration": 0.046,
      "velocity": 87,
      "chip": "ym2612"
    },
    {
      "channel": 3,
      "note": 90,
      "start": 89.2501,
      "duration": 0.0761,
      "velocity": 99,
      "chip": "ym2612"
    },
    {
      "channel": 4,
      "note": 90,
      "start": 89.2752,
      "duration": 0.0754,
      "velocity": 99,
      "chip": "ym2612"
    },
    {
      "channel": 0,
      "note": 76,
      "start": 89.3122,
      "duration": 0.4143,
      "velocity": 87,
      "chip": "ym2612"
    },
    {
      "channel": 1,
      "note": 73,
      "start": 89.343,
      "duration": 0.0153,
      "velocity": 87,
      "chip": "ym2612"
    },
    {
      "channel": 2,
      "note": 40,
      "start": 89.3435,
      "duration": 0.6554,
      "velocity": 97,
      "chip": "ym2612"
    },
    {
      "channel": 3,
      "note": 85,
      "start": 89.3444,
      "duration": 0.0145,
      "velocity": 99,
      "chip": "ym2612"
    },
    {
      "channel": 4,
      "note": 85,
      "start": 89.3532,
      "duration": 0.0142,
      "velocity": 99,
      "chip": "ym2612"
    },
    {
      "channel": 1,
      "note": 74,
      "start": 89.3605,
      "duration": 0.0139,
      "velocity": 87,
      "chip": "ym2612"
    },
    {
      "channel": 3,
      "note": 92,
      "start": 89.3613,
      "duration": 0.0136,
      "velocity": 99,
      "chip": "ym2612"
    },
    {
      "channel": 4,
      "note": 92,
      "start": 89.3695,
      "duration": 0.0167,
      "velocity": 99,
      "chip": "ym2612"
    },
    {
      "channel": 1,
      "note": 76,
      "start": 89.3771,
      "duration": 0.4972,
      "velocity": 87,
      "chip": "ym2612"
    },
    {
      "channel": 3,
      "note": 90,
      "start": 89.3785,
      "duration": 0.0155,
      "velocity": 99,
      "chip": "ym2612"
    },
    {
      "channel": 4,
      "note": 90,
      "start": 89.3884,
      "duration": 0.0303,
      "velocity": 99,
      "chip": "ym2612"
    },
    {
      "channel": 3,
      "note": 88,
      "start": 89.3961,
      "duration": 0.091,
      "velocity": 99,
      "chip": "ym2612"
    },
    {
      "channel": 4,
      "note": 88,
      "start": 89.4361,
      "duration": 0.1198,
      "velocity": 99,
      "chip": "ym2612"
    },
    {
      "channel": 3,
      "note": 83,
      "start": 89.5045,
      "duration": 0.1198,
      "velocity": 99,
      "chip": "ym2612"
    },
    {
      "channel": 4,
      "note": 83,
      "start": 89.5735,
      "duration": 0.1198,
      "velocity": 99,
      "chip": "ym2612"
    },
    {
      "channel": 3,
      "note": 92,
      "start": 89.6417,
      "duration": 0.1199,
      "velocity": 99,
      "chip": "ym2612"
    },
    {
      "channel": 4,
      "note": 92,
      "start": 89.7106,
      "duration": 0.0768,
      "velocity": 99,
      "chip": "ym2612"
    },
    {
      "channel": 0,
      "note": 78,
      "start": 89.7438,
      "duration": 0.0959,
      "velocity": 87,
      "chip": "ym2612"
    },
    {
      "channel": 3,
      "note": 90,
      "start": 89.7789,
      "duration": 0.0173,
      "velocity": 99,
      "chip": "ym2612"
    },
    {
      "channel": 4,
      "note": 90,
      "start": 89.7902,
      "duration": 0.0162,
      "velocity": 99,
      "chip": "ym2612"
    },
    {
      "channel": 3,
      "note": 88,
      "start": 89.7985,
      "duration": 0.0763,
      "velocity": 99,
      "chip": "ym2612"
    },
    {
      "channel": 4,
      "note": 88,
      "start": 89.8239,
      "duration": 0.0754,
      "velocity": 99,
      "chip": "ym2612"
    },
    {
      "channel": 0,
      "note": 73,
      "start": 89.8571,
      "duration": 0.1748,
      "velocity": 87,
      "chip": "ym2612"
    },
    {
      "channel": 1,
      "note": 78,
      "start": 89.8915,
      "duration": 0.0318,
      "velocity": 87,
      "chip": "ym2612"
    },
    {
      "channel": 3,
      "note": 83,
      "start": 89.8925,
      "duration": 0.0151,
      "velocity": 99,
      "chip": "ym2612"
    },
    {
      "channel": 4,
      "note": 83,
      "start": 89.9016,
      "duration": 0.0146,
      "velocity": 99,
      "chip": "ym2612"
    },
    {
      "channel": 3,
      "note": 92,
      "start": 89.9097,
      "duration": 0.0141,
      "velocity": 99,
      "chip": "ym2612"
    },
    {
      "channel": 4,
      "note": 92,
      "start": 89.9183,
      "duration": 0.0158,
      "velocity": 99,
      "chip": "ym2612"
    },
    {
      "channel": 1,
      "note": 73,
      "start": 89.9269,
      "duration": 0.1481,
      "velocity": 87,
      "chip": "ym2612"
    },
    {
      "channel": 3,
      "note": 90,
      "start": 89.9278,
      "duration": 0.0174,
      "velocity": 99,
      "chip": "ym2612"
    },
    {
      "channel": 4,
      "note": 90,
      "start": 89.9368,
      "duration": 0.0174,
      "velocity": 99,
      "chip": "ym2612"
    },
    {
      "channel": 3,
      "note": 88,
      "start": 89.9481,
      "duration": 0.0159,
      "velocity": 99,
      "chip": "ym2612"
    },
    {
      "channel": 4,
      "note": 88,
      "start": 89.9579,
      "duration": 0.0159,
      "velocity": 99,
      "chip": "ym2612"
    },
    {
      "channel": 3,
      "note": 83,
      "start": 89.9675,
      "duration": 0.0149,
      "velocity": 99,
      "chip": "ym2612"
    },
    {
      "channel": 4,
      "note": 83,
      "start": 89.9762,
      "duration": 0.0146,
      "velocity": 99,
      "chip": "ym2612"
    },
    {
      "channel": 3,
      "note": 92,
      "start": 89.9846,
      "duration": 0.0146,
      "velocity": 99,
      "chip": "ym2612"
    },
    {
      "channel": 4,
      "note": 92,
      "start": 89.9931,
      "duration": 0.0159,
      "velocity": 99,
      "chip": "ym2612"
    },
    {
      "channel": 2,
      "note": 40,
      "start": 90.0018,
      "duration": 0.035,
      "velocity": 97,
      "chip": "ym2612"
    },
    {
      "channel": 3,
      "note": 90,
      "start": 90.0024,
      "duration": 0.0153,
      "velocity": 99,
      "chip": "ym2612"
    },
    {
      "channel": 4,
      "note": 90,
      "start": 90.0115,
      "duration": 0.0167,
      "velocity": 99,
      "chip": "ym2612"
    },
    {
      "channel": 3,
      "note": 88,
      "start": 90.0212,
      "duration": 0.016,
      "velocity": 99,
      "chip": "ym2612"
    },
    {
      "channel": 4,
      "note": 88,
      "start": 90.0305,
      "duration": 0.0196,
      "velocity": 99,
      "chip": "ym2612"
    },
    {
      "channel": 0,
      "note": 59,
      "start": 90.034,
      "duration": 0.0195,
      "velocity": 87,
      "chip": "ym2612"
    },
    {
      "channel": 2,
      "note": 42,
      "start": 90.0424,
      "duration": 0.9595,
      "velocity": 97,
      "chip": "ym2612"
    },
    {
      "channel": 3,
      "note": 83,
      "start": 90.0432,
      "duration": 0.0152,
      "velocity": 99,
      "chip": "ym2612"
    },
    {
      "channel": 4,
      "note": 83,
      "start": 90.0525,
      "duration": 0.0145,
      "velocity": 99,
      "chip": "ym2612"
    },
    {
      "channel": 0,
      "note": 61,
      "start": 90.0557,
      "duration": 0.0145,
      "velocity": 87,
      "chip": "ym2612"
    },
    {
      "channel": 3,
      "note": 93,
      "start": 90.0606,
      "duration": 0.0149,
      "velocity": 99,
      "chip": "ym2612"
    },
    {
      "channel": 4,
      "note": 93,
      "start": 90.0693,
      "duration": 0.0146,
      "velocity": 99,
      "chip": "ym2612"
    },
    {
      "channel": 0,
      "note": 62,
      "start": 90.0723,
      "duration": 0.0148,
      "velocity": 87,
      "chip": "ym2612"
    },
    {
      "channel": 1,
      "note": 59,
      "start": 90.0771,
      "duration": 0.0141,
      "velocity": 87,
      "chip": "ym2612"
    },
    {
      "channel": 3,
      "note": 92,
      "start": 90.078,
      "duration": 0.0139,
      "velocity": 99,
      "chip": "ym2612"
    },
    {
      "channel": 4,
      "note": 92,
      "start": 90.0861,
      "duration": 0.0282,
      "velocity": 99,
      "chip": "ym2612"
    },
    {
      "channel": 0,
      "note": 66,
      "start": 90.0892,
      "duration": 0.0579,
      "velocity": 87,
      "chip": "ym2612"
    },
    {
      "channel": 1,
      "note": 61,
      "start": 90.0934,
      "duration": 0.0881,
      "velocity": 87,
      "chip": "ym2612"
    },
    {
      "channel": 3,
      "note": 90,
      "start": 90.0943,
      "duration": 0.0878,
      "velocity": 99,
      "chip": "ym2612"
    },
    {
      "channel": 4,
      "note": 90,
      "start": 90.1315,
      "duration": 0.1195,
      "velocity": 99,
      "chip": "ym2612"
    },
    {
      "channel": 0,
      "note": 71,
      "start": 90.1644,
      "duration": 0.8027,
      "velocity": 87,
      "chip": "ym2612"
    },
    {
      "channel": 1,
      "note": 62,
      "start": 90.1988,
      "duration": 0.1199,
      "velocity": 87,
      "chip": "ym2612"
    },
    {
      "channel": 3,
      "note": 85,
      "start": 90.1999,
      "duration": 0.1195,
      "velocity": 99,
      "chip": "ym2612"
    },
    {
      "channel": 4,
      "note": 85,
      "start": 90.2685,
      "duration": 0.1197,
      "velocity": 99,
      "chip": "ym2612"
    },
    {
      "channel": 1,
      "note": 66,
      "start": 90.3361,
      "duration": 0.1199,
      "velocity": 87,
      "chip": "ym2612"
    },
    {
      "channel": 3,
      "note": 93,
      "start": 90.337,
      "duration": 0.1196,
      "velocity": 99,
      "chip": "ym2612"
    },
    {
      "channel": 4,
      "note": 93,
      "start": 90.4056,
      "duration": 0.075,
      "velocity": 99,
      "chip": "ym2612"
    },
    {
      "channel": 1,
      "note": 71,
      "start": 90.4733,
      "duration": 0.6391,
      "velocity": 87,
      "chip": "ym2612"
    },
    {
      "channel": 3,
      "note": 92,
      "start": 90.4742,
      "duration": 0.0143,
      "velocity": 99,
      "chip": "ym2612"
    },
    {
      "channel": 4,
      "note": 92,
      "start": 90.4829,
      "duration": 0.0171,
      "velocity": 99,
      "chip": "ym2612"
    },
    {
      "channel": 3,
      "note": 90,
      "start": 90.4907,
      "duration": 0.0775,
      "velocity": 99,
      "chip": "ym2612"
    },
    {
      "channel": 4,
      "note": 90,
      "start": 90.5178,
      "duration": 0.0751,
      "velocity": 99,
      "chip": "ym2612"
    },
    {
      "channel": 3,
      "note": 85,
      "start": 90.5857,
      "duration": 0.0151,
      "velocity": 99,
      "chip": "ym2612"
    },
    {
      "channel": 4,
      "note": 85,
      "start": 90.5952,
      "duration": 0.0142,
      "velocity": 99,
      "chip": "ym2612"
    },
    {
      "channel": 3,
      "note": 93,
      "start": 90.6031,
      "duration": 0.0146,
      "velocity": 99,
      "chip": "ym2612"
    },
    {
      "channel": 4,
      "note": 93,
      "start": 90.6117,
      "duration": 0.015,
      "velocity": 99,
      "chip": "ym2612"
    },
    {
      "channel": 3,
      "note": 92,
      "start": 90.62,
      "duration": 0.0147,
      "velocity": 99,
      "chip": "ym2612"
    },
    {
      "channel": 4,
      "note": 92,
      "start": 90.629,
      "duration": 0.0303,
      "velocity": 99,
      "chip": "ym2612"
    },
    {
      "channel": 3,
      "note": 90,
      "start": 90.6369,
      "duration": 0.0913,
      "velocity": 99,
      "chip": "ym2612"
    },
    {
      "channel": 4,
      "note": 90,
      "start": 90.6767,
      "duration": 0.1198,
      "velocity": 99,
      "chip": "ym2612"
    },
    {
      "channel": 3,
      "note": 85,
      "start": 90.7457,
      "duration": 0.1192,
      "velocity": 99,
      "chip": "ym2612"
    },
    {
      "channel": 4,
      "note": 85,
      "start": 90.8141,
      "duration": 0.1197,
      "velocity": 99,
      "chip": "ym2612"
    },
    {
      "channel": 3,
      "note": 93,
      "start": 90.8822,
      "duration": 0.12,
      "velocity": 99,
      "chip": "ym2612"
    },
    {
      "channel": 4,
      "note": 93,
      "start": 90.9512,
      "duration": 0.0749,
      "velocity": 99,
      "chip": "ym2612"
    },
    {
      "channel": 0,
      "note": 73,
      "start": 90.9844,
      "duration": 0.0449,
      "velocity": 87,
      "chip": "ym2612"
    },
    {
      "channel": 2,
      "note": 42,
      "start": 91.0191,
      "duration": 0.0936,
      "velocity": 97,
      "chip": "ym2612"
    },
    {
      "channel": 3,
      "note": 92,
      "start": 91.0197,
      "duration": 0.0144,
      "velocity": 99,
      "chip": "ym2612"
    },
    {
      "channel": 4,
      "note": 92,
      "start": 91.0282,
      "duration": 0.0165,
      "velocity": 99,
      "chip": "ym2612"
    },
    {
      "channel": 0,
      "note": 74,
      "start": 91.0313,
      "duration": 0.0466,
      "velocity": 87,
      "chip": "ym2612"
    },
    {
      "channel": 3,
      "note": 90,
      "start": 91.0362,
      "duration": 0.0768,
      "velocity": 99,
      "chip": "ym2612"
    },
    {
      "channel": 4,
      "note": 90,
      "start": 91.062,
      "duration": 0.0778,
      "velocity": 99,
      "chip": "ym2612"
    },
    {
      "channel": 0,
      "note": 76,
      "start": 91.0953,
      "duration": 0.4175,
      "velocity": 87,
      "chip": "ym2612"
    },
    {
      "channel": 1,
      "note": 73,
      "start": 91.1298,
      "duration": 0.0172,
      "velocity": 87,
      "chip": "ym2612"
    },
    {
      "channel": 2,
      "note": 40,
      "start": 91.1309,
      "duration": 0.6538,
      "velocity": 97,
      "chip": "ym2612"
    },
    {
      "channel": 3,
      "note": 85,
      "start": 91.1318,
      "duration": 0.0158,
      "velocity": 99,
      "chip": "ym2612"
    },
    {
      "channel": 4,
      "note": 85,
      "start": 91.1422,
      "duration": 0.0142,
      "velocity": 99,
      "chip": "ym2612"
    },
    {
      "channel": 1,
      "note": 74,
      "start": 91.1496,
      "duration": 0.0142,
      "velocity": 87,
      "chip": "ym2612"
    },
    {
      "channel": 3,
      "note": 92,
      "start": 91.1504,
      "duration": 0.0139,
      "velocity": 99,
      "chip": "ym2612"
    },
    {
      "channel": 4,
      "note": 92,
      "start": 91.1585,
      "duration": 0.0145,
      "velocity": 99,
      "chip": "ym2612"
    },
    {
      "channel": 1,
      "note": 76,
      "start": 91.1659,
      "duration": 0.4931,
      "velocity": 87,
      "chip": "ym2612"
    },
    {
      "channel": 3,
      "note": 90,
      "start": 91.1667,
      "duration": 0.0139,
      "velocity": 99,
      "chip": "ym2612"
    },
    {
      "channel": 4,
      "note": 90,
      "start": 91.1751,
      "duration": 0.03,
      "velocity": 99,
      "chip": "ym2612"
    },
    {
      "channel": 3,
      "note": 88,
      "start": 91.1829,
      "duration": 0.0906,
      "velocity": 99,
      "chip": "ym2612"
    },
    {
      "channel": 4,
      "note": 88,
      "start": 91.2225,
      "duration": 0.1204,
      "velocity": 99,
      "chip": "ym2612"
    },
    {
      "channel": 3,
      "note": 83,
      "start": 91.2909,
      "duration": 0.1198,
      "velocity": 99,
      "chip": "ym2612"
    },
    {
      "channel": 4,
      "note": 83,
      "start": 91.3605,
      "duration": 0.1192,
      "velocity": 99,
      "chip": "ym2612"
    },
    {
      "channel": 3,
      "note": 92,
      "start": 91.4281,
      "duration": 0.1198,
      "velocity": 99,
      "chip": "ym2612"
    },
    {
      "channel": 4,
      "note": 92,
      "start": 91.497,
      "duration": 0.0752,
      "velocity": 99,
      "chip": "ym2612"
    },
    {
      "channel": 0,
      "note": 74,
      "start": 91.5302,
      "duration": 0.0942,
      "velocity": 87,
      "chip": "ym2612"
    },
    {
      "channel": 3,
      "note": 90,
      "start": 91.5653,
      "duration": 0.0147,
      "velocity": 99,
      "chip": "ym2612"
    },
    {
      "channel": 4,
      "note": 90,
      "start": 91.5744,
      "duration": 0.0168,
      "velocity": 99,
      "chip": "ym2612"
    },
    {
      "channel": 3,
      "note": 88,
      "start": 91.5822,
      "duration": 0.0774,
      "velocity": 99,
      "chip": "ym2612"
    },
    {
      "channel": 4,
      "note": 88,
      "start": 91.6085,
      "duration": 0.0757,
      "velocity": 99,
      "chip": "ym2612"
    },
    {
      "channel": 0,
      "note": 73,
      "start": 91.6417,
      "duration": 0.1012,
      "velocity": 87,
      "chip": "ym2612"
    },
    {
      "channel": 1,
      "note": 74,
      "start": 91.6763,
      "duration": 0.0344,
      "velocity": 87,
      "chip": "ym2612"
    },
    {
      "channel": 3,
      "note": 83,
      "start": 91.6772,
      "duration": 0.017,
      "velocity": 99,
      "chip": "ym2612"
    },
    {
      "channel": 4,
      "note": 83,
      "start": 91.6877,
      "duration": 0.0149,
      "velocity": 99,
      "chip": "ym2612"
    },
    {
      "channel": 3,
      "note": 92,
      "start": 91.6965,
      "duration": 0.0146,
      "velocity": 99,
      "chip": "ym2612"
    },
    {
      "channel": 4,
      "note": 92,
      "start": 91.7048,
      "duration": 0.0164,
      "velocity": 99,
      "chip": "ym2612"
    },
    {
      "channel": 1,
      "note": 73,
      "start": 91.7135,
      "duration": 0.0708,
      "velocity": 87,
      "chip": "ym2612"
    },
    {
      "channel": 3,
      "note": 90,
      "start": 91.7144,
      "duration": 0.0152,
      "velocity": 99,
      "chip": "ym2612"
    },
    {
      "channel": 4,
      "note": 90,
      "start": 91.7234,
      "duration": 0.0153,
      "velocity": 99,
      "chip": "ym2612"
    },
    {
      "channel": 3,
      "note": 88,
      "start": 91.7321,
      "duration": 0.0157,
      "velocity": 99,
      "chip": "ym2612"
    },
    {
      "channel": 4,
      "note": 88,
      "start": 91.7412,
      "duration": 0.0158,
      "velocity": 99,
      "chip": "ym2612"
    },
    {
      "channel": 0,
      "note": 69,
      "start": 91.7451,
      "duration": 0.0693,
      "velocity": 87,
      "chip": "ym2612"
    },
    {
      "channel": 3,
      "note": 83,
      "start": 91.7506,
      "duration": 0.0167,
      "velocity": 99,
      "chip": "ym2612"
    },
    {
      "channel": 4,
      "note": 83,
      "start": 91.7594,
      "duration": 0.0171,
      "velocity": 99,
      "chip": "ym2612"
    },
    {
      "channel": 3,
      "note": 80,
      "start": 91.7701,
      "duration": 0.0149,
      "velocity": 99,
      "chip": "ym2612"
    },
    {
      "channel": 4,
      "note": 80,
      "start": 91.779,
      "duration": 0.0159,
      "velocity": 99,
      "chip": "ym2612"
    },
    {
      "channel": 1,
      "note": 69,
      "start": 91.7876,
      "duration": 0.0683,
      "velocity": 87,
      "chip": "ym2612"
    },
    {
      "channel": 2,
      "note": 40,
      "start": 91.7881,
      "duration": 0.0307,
      "velocity": 97,
      "chip": "ym2612"
    },
    {
      "channel": 3,
      "note": 83,
      "start": 91.7887,
      "duration": 0.0138,
      "velocity": 99,
      "chip": "ym2612"
    },
    {
      "channel": 4,
      "note": 83,
      "start": 91.7971,
      "duration": 0.0138,
      "velocity": 99,
      "chip": "ym2612"
    },
    {
      "channel": 3,
      "note": 88,
      "start": 91.8047,
      "duration": 0.0144,
      "velocity": 99,
      "chip": "ym2612"
    },
    {
      "channel": 4,
      "note": 88,
      "start": 91.8133,
      "duration": 0.0166,
      "velocity": 99,
      "chip": "ym2612"
    },
    {
      "channel": 0,
      "note": 67,
      "start": 91.8164,
      "duration": 0.1798,
      "velocity": 87,
      "chip": "ym2612"
    },
    {
      "channel": 2,
      "note": 38,
      "start": 91.8224,
      "duration": 0.0338,
      "velocity": 97,
      "chip": "ym2612"
    },
    {
      "channel": 3,
      "note": 92,
      "start": 91.8231,
      "duration": 0.0145,
      "velocity": 99,
      "chip": "ym2612"
    },
    {
      "channel": 4,
      "note": 92,
      "start": 91.8322,
      "duration": 0.0163,
      "velocity": 99,
      "chip": "ym2612"
    },
    {
      "channel": 3,
      "note": 90,
      "start": 91.8404,
      "duration": 0.016,
      "velocity": 99,
      "chip": "ym2612"
    },
    {
      "channel": 4,
      "note": 90,
      "start": 91.8508,
      "duration": 0.0154,
      "velocity": 99,
      "chip": "ym2612"
    },
    {
      "channel": 1,
      "note": 67,
      "start": 91.8588,
      "duration": 0.1433,
      "velocity": 87,
      "chip": "ym2612"
    },
    {
      "channel": 2,
      "note": 38,
      "start": 91.8593,
      "duration": 0.0124,
      "velocity": 97,
      "chip": "ym2612"
    },
    {
      "channel": 3,
      "note": 88,
      "start": 91.8599,
      "duration": 0.0147,
      "velocity": 99,
      "chip": "ym2612"
    },
    {
      "channel": 4,
      "note": 88,
      "start": 91.8683,
      "duration": 0.0149,
      "velocity": 99,
      "chip": "ym2612"
    },
    {
      "channel": 2,
      "note": 38,
      "start": 91.8742,
      "duration": 0.0085,
      "velocity": 97,
      "chip": "ym2612"
    },
    {
      "channel": 3,
      "note": 86,
      "start": 91.877,
      "duration": 0.0149,
      "velocity": 99,
      "chip": "ym2612"
    },
    {
      "channel": 2,
      "note": 38,
      "start": 91.8851,
      "duration": 0.0065,
      "velocity": 97,
      "chip": "ym2612"
    },
    {
      "channel": 4,
      "note": 86,
      "start": 91.886,
      "duration": 0.0156,
      "velocity": 99,
      "chip": "ym2612"
    },
    {
      "channel": 2,
      "note": 38,
      "start": 91.8944,
      "duration": 0.0341,
      "velocity": 97,
      "chip": "ym2612"
    },
    {
      "channel": 3,
      "note": 81,
      "start": 91.8951,
      "duration": 0.0144,
      "velocity": 99,
      "chip": "ym2612"
    },
    {
      "channel": 4,
      "note": 81,
      "start": 91.9039,
      "duration": 0.0162,
      "velocity": 99,
      "chip": "ym2612"
    },
    {
      "channel": 3,
      "note": 90,
      "start": 91.9117,
      "duration": 0.017,
      "velocity": 99,
      "chip": "ym2612"
    },
    {
      "channel": 4,
      "note": 90,
      "start": 91.9229,
      "duration": 0.0158,
      "velocity": 99,
      "chip": "ym2612"
    },
    {
      "channel": 2,
      "note": 38,
      "start": 91.9311,
      "duration": 0.0132,
      "velocity": 97,
      "chip": "ym2612"
    },
    {
      "channel": 3,
      "note": 88,
      "start": 91.9317,
      "duration": 0.0153,
      "velocity": 99,
      "chip": "ym2612"
    },
    {
      "channel": 4,
      "note": 88,
      "start": 91.9408,
      "duration": 0.0154,
      "velocity": 99,
      "chip": "ym2612"
    },
    {
      "channel": 2,
      "note": 38,
      "start": 91.9467,
      "duration": 0.0089,
      "velocity": 97,
      "chip": "ym2612"
    },
    {
      "channel": 3,
      "note": 86,
      "start": 91.9496,
      "duration": 0.0153,
      "velocity": 99,
      "chip": "ym2612"
    },
    {
      "channel": 2,
      "note": 38,
      "start": 91.9579,
      "duration": 0.0066,
      "velocity": 97,
      "chip": "ym2612"
    },
    {
      "channel": 4,
      "note": 86,
      "start": 91.9588,
      "duration": 0.0159,
      "velocity": 99,
      "chip": "ym2612"
    },
    {
      "channel": 2,
      "note": 38,
      "start": 91.9672,
      "duration": 0.0353,
      "velocity": 97,
      "chip": "ym2612"
    },
    {
      "channel": 3,
      "note": 81,
      "start": 91.9679,
      "duration": 0.0152,
      "velocity": 99,
      "chip": "ym2612"
    },
    {
      "channel": 4,
      "note": 81,
      "start": 91.9771,
      "duration": 0.0148,
      "velocity": 99,
      "chip": "ym2612"
    },
    {
      "channel": 3,
      "note": 90,
      "start": 91.9854,
      "duration": 0.0174,
      "velocity": 99,
      "chip": "ym2612"
    },
    {
      "channel": 4,
      "note": 90,
      "start": 91.9949,
      "duration": 0.0169,
      "velocity": 99,
      "chip": "ym2612"
    },
    {
      "channel": 0,
      "note": 66,
      "start": 91.999,
      "duration": 0.0338,
      "velocity": 87,
      "chip": "ym2612"
    },
    {
      "channel": 1,
      "note": 67,
      "start": 92.0045,
      "duration": 0.0325,
      "velocity": 87,
      "chip": "ym2612"
    },
    {
      "channel": 2,
      "note": 38,
      "start": 92.005,
      "duration": 0.0123,
      "velocity": 97,
      "chip": "ym2612"
    },
    {
      "channel": 3,
      "note": 88,
      "start": 92.0056,
      "duration": 0.0145,
      "velocity": 99,
      "chip": "ym2612"
    },
    {
      "channel": 4,
      "note": 88,
      "start": 92.014,
      "duration": 0.0146,
      "velocity": 99,
      "chip": "ym2612"
    },
    {
      "channel": 2,
      "note": 38,
      "start": 92.0198,
      "duration": 0.0083,
      "velocity": 97,
      "chip": "ym2612"
    },
    {
      "channel": 3,
      "note": 86,
      "start": 92.0226,
      "duration": 0.015,
      "velocity": 99,
      "chip": "ym2612"
    },
    {
      "channel": 2,
      "note": 38,
      "start": 92.0306,
      "duration": 0.0067,
      "velocity": 97,
      "chip": "ym2612"
    },
    {
      "channel": 4,
      "note": 86,
      "start": 92.0315,
      "duration": 0.0164,
      "velocity": 99,
      "chip": "ym2612"
    },
    {
      "channel": 0,
      "note": 67,
      "start": 92.0349,
      "duration": 0.0323,
      "velocity": 87,
      "chip": "ym2612"
    },
    {
      "channel": 1,
      "note": 66,
      "start": 92.0396,
      "duration": 0.0327,
      "velocity": 87,
      "chip": "ym2612"
    },
    {
      "channel": 2,
      "note": 38,
      "start": 92.0401,
      "duration": 0.0324,
      "velocity": 97,
      "chip": "ym2612"
    },
    {
      "channel": 3,
      "note": 81,
      "start": 92.0409,
      "duration": 0.015,
      "velocity": 99,
      "chip": "ym2612"
    },
    {
      "channel": 4,
      "note": 81,
      "start": 92.0502,
      "duration": 0.0139,
      "velocity": 99,
      "chip": "ym2612"
    },
    {
      "channel": 3,
      "note": 85,
      "start": 92.0581,
      "duration": 0.0147,
      "velocity": 99,
      "chip": "ym2612"
    },
    {
      "channel": 4,
      "note": 85,
      "start": 92.0662,
      "duration": 0.0187,
      "velocity": 99,
      "chip": "ym2612"
    },
    {
      "channel": 0,
      "note": 71,
      "start": 92.0695,
      "duration": 0.0354,
      "velocity": 87,
      "chip": "ym2612"
    },
    {
      "channel": 1,
      "note": 67,
      "start": 92.0764,
      "duration": 0.0327,
      "velocity": 87,
      "chip": "ym2612"
    },
    {
      "channel": 2,
      "note": 38,
      "start": 92.0773,
      "duration": 0.0321,
      "velocity": 97,
      "chip": "ym2612"
    },
    {
      "channel": 3,
      "note": 86,
      "start": 92.0779,
      "duration": 0.0149,
      "velocity": 99,
      "chip": "ym2612"
    },
    {
      "channel": 4,
      "note": 86,
      "start": 92.0871,
      "duration": 0.0144,
      "velocity": 99,
      "chip": "ym2612"
    },
    {
      "channel": 3,
      "note": 88,
      "start": 92.095,
      "duration": 0.0148,
      "velocity": 99,
      "chip": "ym2612"
    },
    {
      "channel": 4,
      "note": 88,
      "start": 92.1039,
      "duration": 0.0199,
      "velocity": 99,
      "chip": "ym2612"
    },
    {
      "channel": 0,
      "note": 73,
      "start": 92.107,
      "duration": 0.1641,
      "velocity": 87,
      "chip": "ym2612"
    },
    {
      "channel": 1,
      "note": 71,
      "start": 92.1121,
      "duration": 0.041,
      "velocity": 87,
      "chip": "ym2612"
    },
    {
      "channel": 2,
      "note": 40,
      "start": 92.1164,
      "duration": 0.0369,
      "velocity": 97,
      "chip": "ym2612"
    },
    {
      "channel": 3,
      "note": 90,
      "start": 92.1172,
      "duration": 0.0208,
      "velocity": 99,
      "chip": "ym2612"
    },
    {
      "channel": 4,
      "note": 90,
      "start": 92.1324,
      "duration": 0.0138,
      "velocity": 99,
      "chip": "ym2612"
    },
    {
      "channel": 3,
      "note": 92,
      "start": 92.1401,
      "duration": 0.0136,
      "velocity": 99,
      "chip": "ym2612"
    },
    {
      "channel": 4,
      "note": 92,
      "start": 92.1482,
      "duration": 0.0253,
      "velocity": 99,
      "chip": "ym2612"
    },
    {
      "channel": 1,
      "note": 73,
      "start": 92.1645,
      "duration": 0.1446,
      "velocity": 87,
      "chip": "ym2612"
    },
    {
      "channel": 2,
      "note": 40,
      "start": 92.165,
      "duration": 0.014,
      "velocity": 97,
      "chip": "ym2612"
    },
    {
      "channel": 3,
      "note": 90,
      "start": 92.1656,
      "duration": 0.0159,
      "velocity": 99,
      "chip": "ym2612"
    },
    {
      "channel": 4,
      "note": 90,
      "start": 92.1757,
      "duration": 0.0144,
      "velocity": 99,
      "chip": "ym2612"
    },
    {
      "channel": 2,
      "note": 40,
      "start": 92.1811,
      "duration": 0.0083,
      "velocity": 97,
      "chip": "ym2612"
    },
    {
      "channel": 3,
      "note": 88,
      "start": 92.184,
      "duration": 0.0148,
      "velocity": 99,
      "chip": "ym2612"
    },
    {
      "channel": 2,
      "note": 40,
      "start": 92.1919,
      "duration": 0.0066,
      "velocity": 97,
      "chip": "ym2612"
    },
    {
      "channel": 4,
      "note": 88,
      "start": 92.1928,
      "duration": 0.0156,
      "velocity": 99,
      "chip": "ym2612"
    },
    {
      "channel": 2,
      "note": 40,
      "start": 92.2013,
      "duration": 0.0315,
      "velocity": 97,
      "chip": "ym2612"
    },
    {
      "channel": 3,
      "note": 83,
      "start": 92.202,
      "duration": 0.0147,
      "velocity": 99,
      "chip": "ym2612"
    },
    {
      "channel": 4,
      "note": 83,
      "start": 92.2108,
      "duration": 0.0144,
      "velocity": 99,
      "chip": "ym2612"
    },
    {
      "channel": 3,
      "note": 92,
      "start": 92.219,
      "duration": 0.0141,
      "velocity": 99,
      "chip": "ym2612"
    },
    {
      "channel": 4,
      "note": 92,
      "start": 92.2274,
      "duration": 0.0174,
      "velocity": 99,
      "chip": "ym2612"
    },
    {
      "channel": 2,
      "note": 40,
      "start": 92.236,
      "duration": 0.0161,
      "velocity": 97,
      "chip": "ym2612"
    },
    {
      "channel": 3,
      "note": 90,
      "start": 92.2366,
      "duration": 0.0202,
      "velocity": 99,
      "chip": "ym2612"
    },
    {
      "channel": 4,
      "note": 90,
      "start": 92.2476,
      "duration": 0.0179,
      "velocity": 99,
      "chip": "ym2612"
    },
    {
      "channel": 2,
      "note": 40,
      "start": 92.2564,
      "duration": 0.0085,
      "velocity": 97,
      "chip": "ym2612"
    },
    {
      "channel": 3,
      "note": 88,
      "start": 92.2593,
      "duration": 0.0167,
      "velocity": 99,
      "chip": "ym2612"
    },
    {
      "channel": 2,
      "note": 40,
      "start": 92.2689,
      "duration": 0.0068,
      "velocity": 97,
      "chip": "ym2612"
    },
    {
      "channel": 4,
      "note": 88,
      "start": 92.2698,
      "duration": 0.0154,
      "velocity": 99,
      "chip": "ym2612"
    },
    {
      "channel": 0,
      "note": 69,
      "start": 92.2732,
      "duration": 0.1456,
      "velocity": 87,
      "chip": "ym2612"
    },
    {
      "channel": 2,
      "note": 40,
      "start": 92.2781,
      "duration": 0.0313,
      "velocity": 97,
      "chip": "ym2612"
    },
    {
      "channel": 3,
      "note": 83,
      "start": 92.2788,
      "duration": 0.0143,
      "velocity": 99,
      "chip": "ym2612"
    },
    {
      "channel": 4,
      "note": 83,
      "start": 92.2875,
      "duration": 0.0139,
      "velocity": 99,
      "chip": "ym2612"
    },
    {
      "channel": 3,
      "note": 92,
      "start": 92.2954,
      "duration": 0.0144,
      "velocity": 99,
      "chip": "ym2612"
    },
    {
      "channel": 4,
      "note": 92,
      "start": 92.3037,
      "duration": 0.0166,
      "velocity": 99,
      "chip": "ym2612"
    },
    {
      "channel": 1,
      "note": 69,
      "start": 92.3125,
      "duration": 0.1511,
      "velocity": 87,
      "chip": "ym2612"
    },
    {
      "channel": 2,
      "note": 40,
      "start": 92.313,
      "duration": 0.014,
      "velocity": 97,
      "chip": "ym2612"
    },
    {
      "channel": 3,
      "note": 90,
      "start": 92.3136,
      "duration": 0.0175,
      "velocity": 99,
      "chip": "ym2612"
    },
    {
      "channel": 4,
      "note": 90,
      "start": 92.3224,
      "duration": 0.0182,
      "velocity": 99,
      "chip": "ym2612"
    },
    {
      "channel": 2,
      "note": 40,
      "start": 92.3308,
      "duration": 0.0093,
      "velocity": 97,
      "chip": "ym2612"
    },
    {
      "channel": 3,
      "note": 88,
      "start": 92.3341,
      "duration": 0.0167,
      "velocity": 99,
      "chip": "ym2612"
    },
    {
      "channel": 2,
      "note": 40,
      "start": 92.3437,
      "duration": 0.0068,
      "velocity": 97,
      "chip": "ym2612"
    },
    {
      "channel": 4,
      "note": 88,
      "start": 92.3446,
      "duration": 0.0161,
      "velocity": 99,
      "chip": "ym2612"
    },
    {
      "channel": 2,
      "note": 40,
      "start": 92.3533,
      "duration": 0.0314,
      "velocity": 97,
      "chip": "ym2612"
    },
    {
      "channel": 3,
      "note": 90,
      "start": 92.3539,
      "duration": 0.0144,
      "velocity": 99,
      "chip": "ym2612"
    },
    {
      "channel": 4,
      "note": 90,
      "start": 92.3628,
      "duration": 0.014,
      "velocity": 99,
      "chip": "ym2612"
    },
    {
      "channel": 3,
      "note": 92,
      "start": 92.3706,
      "duration": 0.0144,
      "velocity": 99,
      "chip": "ym2612"
    },
    {
      "channel": 4,
      "note": 92,
      "start": 92.379,
      "duration": 0.0168,
      "velocity": 99,
      "chip": "ym2612"
    },
    {
      "channel": 2,
      "note": 40,
      "start": 92.3882,
      "duration": 0.0354,
      "velocity": 97,
      "chip": "ym2612"
    },
    {
      "channel": 3,
      "note": 93,
      "start": 92.3888,
      "duration": 0.0158,
      "velocity": 99,
      "chip": "ym2612"
    },
    {
      "channel": 4,
      "note": 93,
      "start": 92.398,
      "duration": 0.0171,
      "velocity": 99,
      "chip": "ym2612"
    },
    {
      "channel": 3,
      "note": 95,
      "start": 92.408,
      "duration": 0.0159,
      "velocity": 99,
      "chip": "ym2612"
    },
    {
      "channel": 4,
      "note": 95,
      "start": 92.4178,
      "duration": 0.0221,
      "velocity": 99,
      "chip": "ym2612"
    },
    {
      "channel": 0,
      "note": 71,
      "start": 92.4211,
      "duration": 0.5925,
      "velocity": 87,
      "chip": "ym2612"
    },
    {
      "channel": 2,
      "note": 42,
      "start": 92.4279,
      "duration": 0.2948,
      "velocity": 97,
      "chip": "ym2612"
    },
    {
      "channel": 3,
      "note": 92,
      "start": 92.4337,
      "duration": 0.014,
      "velocity": 99,
      "chip": "ym2612"
    },
    {
      "channel": 4,
      "note": 93,
      "start": 92.4421,
      "duration": 0.0143,
      "velocity": 99,
      "chip": "ym2612"
    },
    {
      "channel": 3,
      "note": 93,
      "start": 92.4499,
      "duration": 0.0143,
      "velocity": 99,
      "chip": "ym2612"
    },
    {
      "channel": 4,
      "note": 92,
      "start": 92.4586,
      "duration": 0.0162,
      "velocity": 99,
      "chip": "ym2612"
    },
    {
      "channel": 1,
      "note": 71,
      "start": 92.4677,
      "duration": 0.2932,
      "velocity": 87,
      "chip": "ym2612"
    },
    {
      "channel": 3,
      "note": 92,
      "start": 92.4685,
      "duration": 0.0145,
      "velocity": 99,
      "chip": "ym2612"
    },
    {
      "channel": 4,
      "note": 85,
      "start": 92.4771,
      "duration": 0.0172,
      "velocity": 99,
      "chip": "ym2612"
    },
    {
      "channel": 3,
      "note": 85,
      "start": 92.4858,
      "duration": 0.0169,
      "velocity": 99,
      "chip": "ym2612"
    },
    {
      "channel": 4,
      "note": 93,
      "start": 92.497,
      "duration": 0.0149,
      "velocity": 99,
      "chip": "ym2612"
    },
    {
      "channel": 3,
      "note": 93,
      "start": 92.5054,
      "duration": 0.0142,
      "velocity": 99,
      "chip": "ym2612"
    },
    {
      "channel": 4,
      "note": 92,
      "start": 92.514,
      "duration": 0.0155,
      "velocity": 99,
      "chip": "ym2612"
    },
    {
      "channel": 3,
      "note": 92,
      "start": 92.5229,
      "duration": 0.0146,
      "velocity": 99,
      "chip": "ym2612"
    },
    {
      "channel": 4,
      "note": 85,
      "start": 92.5319,
      "duration": 0.0153,
      "velocity": 99,
      "chip": "ym2612"
    },
    {
      "channel": 3,
      "note": 85,
      "start": 92.5402,
      "duration": 0.0153,
      "velocity": 99,
      "chip": "ym2612"
    },
    {
      "channel": 4,
      "note": 93,
      "start": 92.5494,
      "duration": 0.0157,
      "velocity": 99,
      "chip": "ym2612"
    },
    {
      "channel": 3,
      "note": 93,
      "start": 92.5582,
      "duration": 0.0174,
      "velocity": 99,
      "chip": "ym2612"
    },
    {
      "channel": 4,
      "note": 92,
      "start": 92.5685,
      "duration": 0.0181,
      "velocity": 99,
      "chip": "ym2612"
    },
    {
      "channel": 3,
      "note": 92,
      "start": 92.58,
      "duration": 0.0147,
      "velocity": 99,
      "chip": "ym2612"
    },
    {
      "channel": 4,
      "note": 85,
      "start": 92.5889,
      "duration": 0.0157,
      "velocity": 99,
      "chip": "ym2612"
    },
    {
      "channel": 3,
      "note": 85,
      "start": 92.5976,
      "duration": 0.0154,
      "velocity": 99,
      "chip": "ym2612"
    },
    {
      "channel": 4,
      "note": 93,
      "start": 92.6068,
      "duration": 0.0156,
      "velocity": 99,
      "chip": "ym2612"
    },
    {
      "channel": 3,
      "note": 93,
      "start": 92.6154,
      "duration": 0.0153,
      "velocity": 99,
      "chip": "ym2612"
    },
    {
      "channel": 4,
      "note": 92,
      "start": 92.6246,
      "duration": 0.0161,
      "velocity": 99,
      "chip": "ym2612"
    },
    {
      "channel": 3,
      "note": 92,
      "start": 92.6336,
      "duration": 0.0176,
      "velocity": 99,
      "chip": "ym2612"
    },
    {
      "channel": 4,
      "note": 85,
      "start": 92.643,
      "duration": 0.0183,
      "velocity": 99,
      "chip": "ym2612"
    },
    {
      "channel": 3,
      "note": 85,
      "start": 92.6542,
      "duration": 0.0151,
      "velocity": 99,
      "chip": "ym2612"
    },
    {
      "channel": 4,
      "note": 93,
      "start": 92.6635,
      "duration": 0.0162,
      "velocity": 99,
      "chip": "ym2612"
    },
    {
      "channel": 3,
      "note": 93,
      "start": 92.6732,
      "duration": 0.0145,
      "velocity": 99,
      "chip": "ym2612"
    },
    {
      "channel": 4,
      "note": 92,
      "start": 92.6819,
      "duration": 0.0153,
      "velocity": 99,
      "chip": "ym2612"
    },
    {
      "channel": 3,
      "note": 92,
      "start": 92.6902,
      "duration": 0.0151,
      "velocity": 99,
      "chip": "ym2612"
    },
    {
      "channel": 4,
      "note": 85,
      "start": 92.6996,
      "duration": 0.0154,
      "velocity": 99,
      "chip": "ym2612"
    },
    {
      "channel": 3,
      "note": 85,
      "start": 92.7083,
      "duration": 0.0147,
      "velocity": 99,
      "chip": "ym2612"
    },
    {
      "channel": 4,
      "note": 93,
      "start": 92.7173,
      "duration": 0.0176,
      "velocity": 99,
      "chip": "ym2612"
    },
    {
      "channel": 2,
      "note": 40,
      "start": 92.7257,
      "duration": 0.2923,
      "velocity": 97,
      "chip": "ym2612"
    },
    {
      "channel": 3,
      "note": 93,
      "start": 92.7269,
      "duration": 0.0161,
      "velocity": 99,
      "chip": "ym2612"
    },
    {
      "channel": 4,
      "note": 92,
      "start": 92.7374,
      "duration": 0.016,
      "velocity": 99,
      "chip": "ym2612"
    },
    {
      "channel": 3,
      "note": 92,
      "start": 92.747,
      "duration": 0.0145,
      "velocity": 99,
      "chip": "ym2612"
    },
    {
      "channel": 4,
      "note": 85,
      "start": 92.7558,
      "duration": 0.0152,
      "velocity": 99,
      "chip": "ym2612"
    },
    {
      "channel": 1,
      "note": 71,
      "start": 92.7636,
      "duration": 0.292,
      "velocity": 87,
      "chip": "ym2612"
    },
    {
      "channel": 3,
      "note": 85,
      "start": 92.7646,
      "duration": 0.0141,
      "velocity": 99,
      "chip": "ym2612"
    },
    {
      "channel": 4,
      "note": 93,
      "start": 92.7731,
      "duration": 0.0155,
      "velocity": 99,
      "chip": "ym2612"
    },
    {
      "channel": 3,
      "note": 93,
      "start": 92.7822,
      "duration": 0.0142,
      "velocity": 99,
      "chip": "ym2612"
    },
    {
      "channel": 4,
      "note": 92,
      "start": 92.7908,
      "duration": 0.0174,
      "velocity": 99,
      "chip": "ym2612"
    },
    {
      "channel": 3,
      "note": 92,
      "start": 92.7993,
      "duration": 0.0179,
      "velocity": 99,
      "chip": "ym2612"
    },
    {
      "channel": 4,
      "note": 85,
      "start": 92.8111,
      "duration": 0.0159,
      "velocity": 99,
      "chip": "ym2612"
    },
    {
      "channel": 3,
      "note": 85,
      "start": 92.82,
      "duration": 0.0153,
      "velocity": 99,
      "chip": "ym2612"
    },
    {
      "channel": 4,
      "note": 93,
      "start": 92.8293,
      "duration": 0.0155,
      "velocity": 99,
      "chip": "ym2612"
    },
    {
      "channel": 3,
      "note": 93,
      "start": 92.8377,
      "duration": 0.0154,
      "velocity": 99,
      "chip": "ym2612"
    },
    {
      "channel": 4,
      "note": 92,
      "start": 92.847,
      "duration": 0.0157,
      "velocity": 99,
      "chip": "ym2612"
    },
    {
      "channel": 3,
      "note": 92,
      "start": 92.856,
      "duration": 0.0148,
      "velocity": 99,
      "chip": "ym2612"
    },
    {
      "channel": 4,
      "note": 85,
      "start": 92.8651,
      "duration": 0.0147,
      "velocity": 99,
      "chip": "ym2612"
    },
    {
      "channel": 3,
      "note": 85,
      "start": 92.8732,
      "duration": 0.0174,
      "velocity": 99,
      "chip": "ym2612"
    },
    {
      "channel": 4,
      "note": 93,
      "start": 92.8831,
      "duration": 0.0175,
      "velocity": 99,
      "chip": "ym2612"
    },
    {
      "channel": 3,
      "note": 93,
      "start": 92.8935,
      "duration": 0.0154,
      "velocity": 99,
      "chip": "ym2612"
    },
    {
      "channel": 4,
      "note": 92,
      "start": 92.9027,
      "duration": 0.0155,
      "velocity": 99,
      "chip": "ym2612"
    },
    {
      "channel": 3,
      "note": 92,
      "start": 92.9112,
      "duration": 0.0154,
      "velocity": 99,
      "chip": "ym2612"
    },
    {
      "channel": 4,
      "note": 85,
      "start": 92.9206,
      "duration": 0.0156,
      "velocity": 99,
      "chip": "ym2612"
    },
    {
      "channel": 3,
      "note": 85,
      "start": 92.9296,
      "duration": 0.0151,
      "velocity": 99,
      "chip": "ym2612"
    },
    {
      "channel": 4,
      "note": 93,
      "start": 92.9385,
      "duration": 0.0152,
      "velocity": 99,
      "chip": "ym2612"
    },
    {
      "channel": 3,
      "note": 93,
      "start": 92.9471,
      "duration": 0.016,
      "velocity": 99,
      "chip": "ym2612"
    },
    {
      "channel": 4,
      "note": 92,
      "start": 92.9559,
      "duration": 0.0176,
      "velocity": 99,
      "chip": "ym2612"
    },
    {
      "channel": 3,
      "note": 92,
      "start": 92.9666,
      "duration": 0.0153,
      "velocity": 99,
      "chip": "ym2612"
    },
    {
      "channel": 4,
      "note": 85,
      "start": 92.9759,
      "duration": 0.0165,
      "velocity": 99,
      "chip": "ym2612"
    },
    {
      "channel": 3,
      "note": 85,
      "start": 92.9857,
      "duration": 0.0147,
      "velocity": 99,
      "chip": "ym2612"
    },
    {
      "channel": 4,
      "note": 93,
      "start": 92.9947,
      "duration": 0.0151,
      "velocity": 99,
      "chip": "ym2612"
    },
    {
      "channel": 3,
      "note": 93,
      "start": 93.0032,
      "duration": 0.0152,
      "velocity": 99,
      "chip": "ym2612"
    },
    {
      "channel": 4,
      "note": 92,
      "start": 93.0121,
      "duration": 0.0158,
      "velocity": 99,
      "chip": "ym2612"
    },
    {
      "channel": 0,
      "note": 71,
      "start": 93.0136,
      "duration": 0.2976,
      "velocity": 87,
      "chip": "ym2612"
    },
    {
      "channel": 2,
      "note": 38,
      "start": 93.0203,
      "duration": 0.2954,
      "velocity": 97,
      "chip": "ym2612"
    },
    {
      "channel": 3,
      "note": 92,
      "start": 93.0209,
      "duration": 0.0152,
      "velocity": 99,
      "chip": "ym2612"
    },
    {
      "channel": 4,
      "note": 85,
      "start": 93.0302,
      "duration": 0.0179,
      "velocity": 99,
      "chip": "ym2612"
    },
    {
      "channel": 3,
      "note": 85,
      "start": 93.0394,
      "duration": 0.0168,
      "velocity": 99,
      "chip": "ym2612"
    },
    {
      "channel": 4,
      "note": 93,
      "start": 93.0507,
      "duration": 0.0148,
      "velocity": 99,
      "chip": "ym2612"
    },
    {
      "channel": 1,
      "note": 71,
      "start": 93.0583,
      "duration": 0.147,
      "velocity": 87,
      "chip": "ym2612"
    },
    {
      "channel": 3,
      "note": 93,
      "start": 93.0592,
      "duration": 0.0143,
      "velocity": 99,
      "chip": "ym2612"
    },
    {
      "channel": 4,
      "note": 92,
      "start": 93.068,
      "duration": 0.0157,
      "velocity": 99,
      "chip": "ym2612"
    },
    {
      "channel": 3,
      "note": 92,
      "start": 93.0772,
      "duration": 0.0148,
      "velocity": 99,
      "chip": "ym2612"
    },
    {
      "channel": 4,
      "note": 85,
      "start": 93.0864,
      "duration": 0.0154,
      "velocity": 99,
      "chip": "ym2612"
    },
    {
      "channel": 3,
      "note": 85,
      "start": 93.0953,
      "duration": 0.0142,
      "velocity": 99,
      "chip": "ym2612"
    },
    {
      "channel": 4,
      "note": 93,
      "start": 93.104,
      "duration": 0.0176,
      "velocity": 99,
      "chip": "ym2612"
    },
    {
      "channel": 3,
      "note": 93,
      "start": 93.1132,
      "duration": 0.0176,
      "velocity": 99,
      "chip": "ym2612"
    },
    {
      "channel": 4,
      "note": 92,
      "start": 93.1244,
      "duration": 0.0174,
      "velocity": 99,
      "chip": "ym2612"
    },
    {
      "channel": 3,
      "note": 92,
      "start": 93.1352,
      "duration": 0.0147,
      "velocity": 99,
      "chip": "ym2612"
    },
    {
      "channel": 4,
      "note": 85,
      "start": 93.1442,
      "duration": 0.0156,
      "velocity": 99,
      "chip": "ym2612"
    },
    {
      "channel": 3,
      "note": 85,
      "start": 93.1528,
      "duration": 0.0154,
      "velocity": 99,
      "chip": "ym2612"
    },
    {
      "channel": 4,
      "note": 93,
      "start": 93.162,
      "duration": 0.0156,
      "velocity": 99,
      "chip": "ym2612"
    },
    {
      "channel": 3,
      "note": 93,
      "start": 93.1706,
      "duration": 0.015,
      "velocity": 99,
      "chip": "ym2612"
    },
    {
      "channel": 4,
      "note": 92,
      "start": 93.1798,
      "duration": 0.0157,
      "velocity": 99,
      "chip": "ym2612"
    },
    {
      "channel": 3,
      "note": 92,
      "start": 93.1885,
      "duration": 0.0175,
      "velocity": 99,
      "chip": "ym2612"
    },
    {
      "channel": 4,
      "note": 85,
      "start": 93.1979,
      "duration": 0.0196,
      "velocity": 99,
      "chip": "ym2612"
    },
    {
      "channel": 1,
      "note": 71,
      "start": 93.21,
      "duration": 0.142,
      "velocity": 87,
      "chip": "ym2612"
    },
    {
      "channel": 3,
      "note": 85,
      "start": 93.211,
      "duration": 0.0144,
      "velocity": 99,
      "chip": "ym2612"
    },
    {
      "channel": 4,
      "note": 93,
      "start": 93.2198,
      "duration": 0.0145,
      "velocity": 99,
      "chip": "ym2612"
    },
    {
      "channel": 3,
      "note": 93,
      "start": 93.2278,
      "duration": 0.0143,
      "velocity": 99,
      "chip": "ym2612"
    },
    {
      "channel": 4,
      "note": 92,
      "start": 93.2365,
      "duration": 0.0156,
      "velocity": 99,
      "chip": "ym2612"
    },
    {
      "channel": 3,
      "note": 92,
      "start": 93.2454,
      "duration": 0.0149,
      "velocity": 99,
      "chip": "ym2612"
    },
    {
      "channel": 4,
      "note": 85,
      "start": 93.2546,
      "duration": 0.0154,
      "velocity": 99,
      "chip": "ym2612"
    },
    {
      "channel": 3,
      "note": 85,
      "start": 93.2634,
      "duration": 0.0155,
      "velocity": 99,
      "chip": "ym2612"
    },
    {
      "channel": 4,
      "note": 93,
      "start": 93.2723,
      "duration": 0.0184,
      "velocity": 99,
      "chip": "ym2612"
    },
    {
      "channel": 3,
      "note": 93,
      "start": 93.2827,
      "duration": 0.0158,
      "velocity": 99,
      "chip": "ym2612"
    },
    {
      "channel": 4,
      "note": 92,
      "start": 93.2929,
      "duration": 0.0147,
      "velocity": 99,
      "chip": "ym2612"
    },
    {
      "channel": 3,
      "note": 92,
      "start": 93.3009,
      "duration": 0.0151,
      "velocity": 99,
      "chip": "ym2612"
    },
    {
      "channel": 4,
      "note": 85,
      "start": 93.31,
      "duration": 0.0171,
      "velocity": 99,
      "chip": "ym2612"
    },
    {
      "channel": 0,
      "note": 71,
      "start": 93.3112,
      "duration": 0.2993,
      "velocity": 87,
      "chip": "ym2612"
    },
    {
      "channel": 2,
      "note": 37,
      "start": 93.3195,
      "duration": 0.2985,
      "velocity": 97,
      "chip": "ym2612"
    },
    {
      "channel": 3,
      "note": 85,
      "start": 93.3202,
      "duration": 0.0147,
      "velocity": 99,
      "chip": "ym2612"
    },
    {
      "channel": 4,
      "note": 93,
      "start": 93.3293,
      "duration": 0.0153,
      "velocity": 99,
      "chip": "ym2612"
    },
    {
      "channel": 3,
      "note": 93,
      "start": 93.3378,
      "duration": 0.0149,
      "velocity": 99,
      "chip": "ym2612"
    },
    {
      "channel": 4,
      "note": 92,
      "start": 93.3467,
      "duration": 0.018,
      "velocity": 99,
      "chip": "ym2612"
    },
    {
      "channel": 1,
      "note": 71,
      "start": 93.3551,
      "duration": 0.1486,
      "velocity": 87,
      "chip": "ym2612"
    },
    {
      "channel": 3,
      "note": 92,
      "start": 93.356,
      "duration": 0.0173,
      "velocity": 99,
      "chip": "ym2612"
    },
    {
      "channel": 4,
      "note": 85,
      "start": 93.3673,
      "duration": 0.0152,
      "velocity": 99,
      "chip": "ym2612"
    },
    {
      "channel": 3,
      "note": 85,
      "start": 93.3761,
      "duration": 0.0146,
      "velocity": 99,
      "chip": "ym2612"
    },
    {
      "channel": 4,
      "note": 93,
      "start": 93.3851,
      "duration": 0.0154,
      "velocity": 99,
      "chip": "ym2612"
    },
    {
      "channel": 3,
      "note": 93,
      "start": 93.3939,
      "duration": 0.0151,
      "velocity": 99,
      "chip": "ym2612"
    },
    {
      "channel": 4,
      "note": 92,
      "start": 93.403,
      "duration": 0.0159,
      "velocity": 99,
      "chip": "ym2612"
    },
    {
      "channel": 3,
      "note": 92,
      "start": 93.4123,
      "duration": 0.015,
      "velocity": 99,
      "chip": "ym2612"
    },
    {
      "channel": 4,
      "note": 85,
      "start": 93.4217,
      "duration": 0.0158,
      "velocity": 99,
      "chip": "ym2612"
    },
    {
      "channel": 3,
      "note": 85,
      "start": 93.4302,
      "duration": 0.0182,
      "velocity": 99,
      "chip": "ym2612"
    },
    {
      "channel": 4,
      "note": 93,
      "start": 93.441,
      "duration": 0.019,
      "velocity": 99,
      "chip": "ym2612"
    },
    {
      "channel": 3,
      "note": 93,
      "start": 93.453,
      "duration": 0.0154,
      "velocity": 99,
      "chip": "ym2612"
    },
    {
      "channel": 4,
      "note": 92,
      "start": 93.4622,
      "duration": 0.0154,
      "velocity": 99,
      "chip": "ym2612"
    },
    {
      "channel": 3,
      "note": 92,
      "start": 93.471,
      "duration": 0.0151,
      "velocity": 99,
      "chip": "ym2612"
    },
    {
      "channel": 4,
      "note": 85,
      "start": 93.48,
      "duration": 0.016,
      "velocity": 99,
      "chip": "ym2612"
    },
    {
      "channel": 3,
      "note": 85,
      "start": 93.4889,
      "duration": 0.0155,
      "velocity": 99,
      "chip": "ym2612"
    },
    {
      "channel": 4,
      "note": 93,
      "start": 93.4986,
      "duration": 0.0154,
      "velocity": 99,
      "chip": "ym2612"
    },
    {
      "channel": 1,
      "note": 71,
      "start": 93.5063,
      "duration": 0.1469,
      "velocity": 87,
      "chip": "ym2612"
    },
    {
      "channel": 3,
      "note": 93,
      "start": 93.5071,
      "duration": 0.0171,
      "velocity": 99,
      "chip": "ym2612"
    },
    {
      "channel": 4,
      "note": 92,
      "start": 93.5163,
      "duration": 0.0185,
      "velocity": 99,
      "chip": "ym2612"
    },
    {
      "channel": 3,
      "note": 92,
      "start": 93.5277,
      "duration": 0.0151,
      "velocity": 99,
      "chip": "ym2612"
    },
    {
      "channel": 4,
      "note": 85,
      "start": 93.5371,
      "duration": 0.0161,
      "velocity": 99,
      "chip": "ym2612"
    },
    {
      "channel": 3,
      "note": 85,
      "start": 93.5468,
      "duration": 0.0146,
      "velocity": 99,
      "chip": "ym2612"
    },
    {
      "channel": 4,
      "note": 83,
      "start": 93.5555,
      "duration": 0.0161,
      "velocity": 99,
      "chip": "ym2612"
    },
    {
      "channel": 3,
      "note": 83,
      "start": 93.5646,
      "duration": 0.0152,
      "velocity": 99,
      "chip": "ym2612"
    },
    {
      "channel": 4,
      "note": 85,
      "start": 93.5738,
      "duration": 0.0153,
      "velocity": 99,
      "chip": "ym2612"
    },
    {
      "channel": 3,
      "note": 85,
      "start": 93.5824,
      "duration": 0.0149,
      "velocity": 99,
      "chip": "ym2612"
    },
    {
      "channel": 4,
      "note": 89,
      "start": 93.5913,
      "duration": 0.0182,
      "velocity": 99,
      "chip": "ym2612"
    },
    {
      "channel": 3,
      "note": 89,
      "start": 93.6015,
      "duration": 0.0167,
      "velocity": 99,
      "chip": "ym2612"
    },
    {
      "channel": 4,
      "note": 92,
      "start": 93.612,
      "duration": 0.0166,
      "velocity": 99,
      "chip": "ym2612"
    },
    {
      "channel": 0,
      "note": 71,
      "start": 93.6135,
      "duration": 0.2953,
      "velocity": 87,
      "chip": "ym2612"
    },
    {
      "channel": 2,
      "note": 42,
      "start": 93.6213,
      "duration": 0.2944,
      "velocity": 97,
      "chip": "ym2612"
    },
    {
      "channel": 3,
      "note": 92,
      "start": 93.622,
      "duration": 0.0144,
      "velocity": 99,
      "chip": "ym2612"
    },
    {
      "channel": 4,
      "note": 93,
      "start": 93.6308,
      "duration": 0.0151,
      "velocity": 99,
      "chip": "ym2612"
    },
    {
      "channel": 3,
      "note": 93,
      "start": 93.6392,
      "duration": 0.0146,
      "velocity": 99,
      "chip": "ym2612"
    },
    {
      "channel": 4,
      "note": 92,
      "start": 93.6482,
      "duration": 0.0156,
      "velocity": 99,
      "chip": "ym2612"
    },
    {
      "channel": 1,
      "note": 71,
      "start": 93.6563,
      "duration": 0.1488,
      "velocity": 87,
      "chip": "ym2612"
    },
    {
      "channel": 3,
      "note": 92,
      "start": 93.6571,
      "duration": 0.0149,
      "velocity": 99,
      "chip": "ym2612"
    },
    {
      "channel": 4,
      "note": 85,
      "start": 93.6661,
      "duration": 0.0181,
      "velocity": 99,
      "chip": "ym2612"
    },
    {
      "channel": 3,
      "note": 85,
      "start": 93.6754,
      "duration": 0.0177,
      "velocity": 99,
      "chip": "ym2612"
    },
    {
      "channel": 4,
      "note": 93,
      "start": 93.6871,
      "duration": 0.0171,
      "velocity": 99,
      "chip": "ym2612"
    },
    {
      "channel": 3,
      "note": 93,
      "start": 93.6977,
      "duration": 0.0142,
      "velocity": 99,
      "chip": "ym2612"
    },
    {
      "channel": 4,
      "note": 92,
      "start": 93.7063,
      "duration": 0.0155,
      "velocity": 99,
      "chip": "ym2612"
    },
    {
      "channel": 3,
      "note": 92,
      "start": 93.7152,
      "duration": 0.0147,
      "velocity": 99,
      "chip": "ym2612"
    },
    {
      "channel": 4,
      "note": 85,
      "start": 93.7242,
      "duration": 0.015,
      "velocity": 99,
      "chip": "ym2612"
    },
    {
      "channel": 3,
      "note": 85,
      "start": 93.7325,
      "duration": 0.015,
      "velocity": 99,
      "chip": "ym2612"
    },
    {
      "channel": 4,
      "note": 93,
      "start": 93.7418,
      "duration": 0.0151,
      "velocity": 99,
      "chip": "ym2612"
    },
    {
      "channel": 3,
      "note": 93,
      "start": 93.7502,
      "duration": 0.0173,
      "velocity": 99,
      "chip": "ym2612"
    },
    {
      "channel": 4,
      "note": 92,
      "start": 93.7602,
      "duration": 0.0187,
      "velocity": 99,
      "chip": "ym2612"
    },
    {
      "channel": 3,
      "note": 92,
      "start": 93.7719,
      "duration": 0.0155,
      "velocity": 99,
      "chip": "ym2612"
    },
    {
      "channel": 4,
      "note": 85,
      "start": 93.7817,
      "duration": 0.0157,
      "velocity": 99,
      "chip": "ym2612"
    },
    {
      "channel": 3,
      "note": 85,
      "start": 93.7907,
      "duration": 0.0151,
      "velocity": 99,
      "chip": "ym2612"
    },
    {
      "channel": 4,
      "note": 93,
      "start": 93.7996,
      "duration": 0.0157,
      "velocity": 99,
      "chip": "ym2612"
    },
    {
      "channel": 1,
      "note": 71,
      "start": 93.808,
      "duration": 0.1459,
      "velocity": 87,
      "chip": "ym2612"
    },
    {
      "channel": 3,
      "note": 93,
      "start": 93.8089,
      "duration": 0.0143,
      "velocity": 99,
      "chip": "ym2612"
    },
    {
      "channel": 4,
      "note": 92,
      "start": 93.8176,
      "duration": 0.0151,
      "velocity": 99,
      "chip": "ym2612"
    },
    {
      "channel": 3,
      "note": 92,
      "start": 93.8261,
      "duration": 0.0166,
      "velocity": 99,
      "chip": "ym2612"
    },
    {
      "channel": 4,
      "note": 85,
      "start": 93.835,
      "duration": 0.0187,
      "velocity": 99,
      "chip": "ym2612"
    },
    {
      "channel": 3,
      "note": 85,
      "start": 93.8465,
      "duration": 0.0155,
      "velocity": 99,
      "chip": "ym2612"
    },
    {
      "channel": 4,
      "note": 93,
      "start": 93.856,
      "duration": 0.0154,
      "velocity": 99,
      "chip": "ym2612"
    },
    {
      "channel": 3,
      "note": 93,
      "start": 93.8644,
      "duration": 0.0152,
      "velocity": 99,
      "chip": "ym2612"
    },
    {
      "channel": 4,
      "note": 92,
      "start": 93.8736,
      "duration": 0.0156,
      "velocity": 99,
      "chip": "ym2612"
    },
    {
      "channel": 3,
      "note": 92,
      "start": 93.8822,
      "duration": 0.0155,
      "velocity": 99,
      "chip": "ym2612"
    },
    {
      "channel": 4,
      "note": 85,
      "start": 93.8917,
      "duration": 0.0163,
      "velocity": 99,
      "chip": "ym2612"
    },
    {
      "channel": 3,
      "note": 85,
      "start": 93.9008,
      "duration": 0.0152,
      "velocity": 99,
      "chip": "ym2612"
    },
    {
      "channel": 4,
      "note": 93,
      "start": 93.9102,
      "duration": 0.019,
      "velocity": 99,
      "chip": "ym2612"
    },
    {
      "channel": 0,
      "note": 71,
      "start": 93.9113,
      "duration": 0.2949,
      "velocity": 87,
      "chip": "ym2612"
    },
    {
      "channel": 2,
      "note": 40,
      "start": 93.92,
      "duration": 0.2935,
      "velocity": 97,
      "chip": "ym2612"
    },
    {
      "channel": 3,
      "note": 93,
      "start": 93.9208,
      "duration": 0.0164,
      "velocity": 99,
      "chip": "ym2612"
    },
    {
      "channel": 4,
      "note": 92,
      "start": 93.9317,
      "duration": 0.0149,
      "velocity": 99,
      "chip": "ym2612"
    },
    {
      "channel": 3,
      "note": 92,
      "start": 93.9397,
      "duration": 0.0148,
      "velocity": 99,
      "chip": "ym2612"
    },
    {
      "channel": 4,
      "note": 85,
      "start": 93.9489,
      "duration": 0.0157,
      "velocity": 99,
      "chip": "ym2612"
    },
    {
      "channel": 1,
      "note": 71,
      "start": 93.957,
      "duration": 0.1441,
      "velocity": 87,
      "chip": "ym2612"
    },
    {
      "channel": 3,
      "note": 85,
      "start": 93.958,
      "duration": 0.0147,
      "velocity": 99,
      "chip": "ym2612"
    },
    {
      "channel": 4,
      "note": 93,
      "start": 93.9667,
      "duration": 0.0156,
      "velocity": 99,
      "chip": "ym2612"
    },
    {
      "channel": 3,
      "note": 93,
      "start": 93.9759,
      "duration": 0.0143,
      "velocity": 99,
      "chip": "ym2612"
    },
    {
      "channel": 4,
      "note": 92,
      "start": 93.9845,
      "duration": 0.0171,
      "velocity": 99,
      "chip": "ym2612"
    },
    {
      "channel": 3,
      "note": 92,
      "start": 93.9931,
      "duration": 0.0176,
      "velocity": 99,
      "chip": "ym2612"
    },
    {
      "channel": 4,
      "note": 85,
      "start": 94.0047,
      "duration": 0.0157,
      "velocity": 99,
      "chip": "ym2612"
    },
    {
      "channel": 3,
      "note": 85,
      "start": 94.0137,
      "duration": 0.0145,
      "velocity": 99,
      "chip": "ym2612"
    },
    {
      "channel": 4,
      "note": 93,
      "start": 94.0226,
      "duration": 0.0149,
      "velocity": 99,
      "chip": "ym2612"
    },
    {
      "channel": 3,
      "note": 93,
      "start": 94.0307,
      "duration": 0.0146,
      "velocity": 99,
      "chip": "ym2612"
    },
    {
      "channel": 4,
      "note": 92,
      "start": 94.0396,
      "duration": 0.0152,
      "velocity": 99,
      "chip": "ym2612"
    },
    {
      "channel": 3,
      "note": 92,
      "start": 94.0482,
      "duration": 0.0151,
      "velocity": 99,
      "chip": "ym2612"
    },
    {
      "channel": 4,
      "note": 85,
      "start": 94.0572,
      "duration": 0.0155,
      "velocity": 99,
      "chip": "ym2612"
    },
    {
      "channel": 3,
      "note": 85,
      "start": 94.0662,
      "duration": 0.0173,
      "velocity": 99,
      "chip": "ym2612"
    },
    {
      "channel": 4,
      "note": 93,
      "start": 94.0754,
      "duration": 0.0183,
      "velocity": 99,
      "chip": "ym2612"
    },
    {
      "channel": 3,
      "note": 93,
      "start": 94.0866,
      "duration": 0.0151,
      "velocity": 99,
      "chip": "ym2612"
    },
    {
      "channel": 4,
      "note": 92,
      "start": 94.0959,
      "duration": 0.0166,
      "velocity": 99,
      "chip": "ym2612"
    },
    {
      "channel": 1,
      "note": 71,
      "start": 94.1052,
      "duration": 0.146,
      "velocity": 87,
      "chip": "ym2612"
    },
    {
      "channel": 3,
      "note": 92,
      "start": 94.106,
      "duration": 0.0144,
      "velocity": 99,
      "chip": "ym2612"
    },
    {
      "channel": 4,
      "note": 85,
      "start": 94.1148,
      "duration": 0.0154,
      "velocity": 99,
      "chip": "ym2612"
    },
    {
      "channel": 3,
      "note": 85,
      "start": 94.1234,
      "duration": 0.0151,
      "velocity": 99,
      "chip": "ym2612"
    },
    {
      "channel": 4,
      "note": 93,
      "start": 94.1325,
      "duration": 0.0155,
      "velocity": 99,
      "chip": "ym2612"
    },
    {
      "channel": 3,
      "note": 93,
      "start": 94.1412,
      "duration": 0.0154,
      "velocity": 99,
      "chip": "ym2612"
    },
    {
      "channel": 4,
      "note": 92,
      "start": 94.1503,
      "duration": 0.0185,
      "velocity": 99,
      "chip": "ym2612"
    },
    {
      "channel": 3,
      "note": 92,
      "start": 94.161,
      "duration": 0.0158,
      "velocity": 99,
      "chip": "ym2612"
    },
    {
      "channel": 4,
      "note": 85,
      "start": 94.1711,
      "duration": 0.0165,
      "velocity": 99,
      "chip": "ym2612"
    },
    {
      "channel": 3,
      "note": 85,
      "start": 94.1806,
      "duration": 0.0152,
      "velocity": 99,
      "chip": "ym2612"
    },
    {
      "channel": 4,
      "note": 93,
      "start": 94.1898,
      "duration": 0.0156,
      "velocity": 99,
      "chip": "ym2612"
    },
    {
      "channel": 3,
      "note": 93,
      "start": 94.1987,
      "duration": 0.0152,
      "velocity": 99,
      "chip": "ym2612"
    },
    {
      "channel": 4,
      "note": 92,
      "start": 94.2076,
      "duration": 0.0156,
      "velocity": 99,
      "chip": "ym2612"
    },
    {
      "channel": 0,
      "note": 71,
      "start": 94.2088,
      "duration": 0.2939,
      "velocity": 87,
      "chip": "ym2612"
    },
    {
      "channel": 2,
      "note": 38,
      "start": 94.2157,
      "duration": 0.2943,
      "velocity": 97,
      "chip": "ym2612"
    },
    {
      "channel": 3,
      "note": 92,
      "start": 94.2163,
      "duration": 0.0148,
      "velocity": 99,
      "chip": "ym2612"
    },
    {
      "channel": 4,
      "note": 85,
      "start": 94.2256,
      "duration": 0.0175,
      "velocity": 99,
      "chip": "ym2612"
    },
    {
      "channel": 3,
      "note": 85,
      "start": 94.2343,
      "duration": 0.0175,
      "velocity": 99,
      "chip": "ym2612"
    },
    {
      "channel": 4,
      "note": 93,
      "start": 94.2458,
      "duration": 0.0149,
      "velocity": 99,
      "chip": "ym2612"
    },
    {
      "channel": 1,
      "note": 71,
      "start": 94.2536,
      "duration": 0.1451,
      "velocity": 87,
      "chip": "ym2612"
    },
    {
      "channel": 3,
      "note": 93,
      "start": 94.2544,
      "duration": 0.0144,
      "velocity": 99,
      "chip": "ym2612"
    },
    {
      "channel": 4,
      "note": 92,
      "start": 94.2629,
      "duration": 0.0157,
      "velocity": 99,
      "chip": "ym2612"
    },
    {
      "channel": 3,
      "note": 92,
      "start": 94.2722,
      "duration": 0.0144,
      "velocity": 99,
      "chip": "ym2612"
    },
    {
      "channel": 4,
      "note": 85,
      "start": 94.281,
      "duration": 0.0151,
      "velocity": 99,
      "chip": "ym2612"
    },
    {
      "channel": 3,
      "note": 85,
      "start": 94.2896,
      "duration": 0.0144,
      "velocity": 99,
      "chip": "ym2612"
    },
    {
      "channel": 4,
      "note": 93,
      "start": 94.2983,
      "duration": 0.0163,
      "velocity": 99,
      "chip": "ym2612"
    },
    {
      "channel": 3,
      "note": 93,
      "start": 94.3072,
      "duration": 0.0175,
      "velocity": 99,
      "chip": "ym2612"
    },
    {
      "channel": 4,
      "note": 92,
      "start": 94.3179,
      "duration": 0.0179,
      "velocity": 99,
      "chip": "ym2612"
    },
    {
      "channel": 3,
      "note": 92,
      "start": 94.3291,
      "duration": 0.0151,
      "velocity": 99,
      "chip": "ym2612"
    },
    {
      "channel": 4,
      "note": 85,
      "start": 94.3385,
      "duration": 0.0152,
      "velocity": 99,
      "chip": "ym2612"
    },
    {
      "channel": 3,
      "note": 85,
      "start": 94.3471,
      "duration": 0.0151,
      "velocity": 99,
      "chip": "ym2612"
    },
    {
      "channel": 4,
      "note": 93,
      "start": 94.356,
      "duration": 0.0155,
      "velocity": 99,
      "chip": "ym2612"
    },
    {
      "channel": 3,
      "note": 93,
      "start": 94.365,
      "duration": 0.0146,
      "velocity": 99,
      "chip": "ym2612"
    },
    {
      "channel": 4,
      "note": 92,
      "start": 94.3738,
      "duration": 0.0154,
      "velocity": 99,
      "chip": "ym2612"
    },
    {
      "channel": 3,
      "note": 92,
      "start": 94.3825,
      "duration": 0.0173,
      "velocity": 99,
      "chip": "ym2612"
    },
    {
      "channel": 4,
      "note": 85,
      "start": 94.3916,
      "duration": 0.0183,
      "velocity": 99,
      "chip": "ym2612"
    },
    {
      "channel": 1,
      "note": 71,
      "start": 94.4023,
      "duration": 0.144,
      "velocity": 87,
      "chip": "ym2612"
    },
    {
      "channel": 3,
      "note": 85,
      "start": 94.4033,
      "duration": 0.0148,
      "velocity": 99,
      "chip": "ym2612"
    },
    {
      "channel": 4,
      "note": 93,
      "start": 94.4121,
      "duration": 0.0167,
      "velocity": 99,
      "chip": "ym2612"
    },
    {
      "channel": 3,
      "note": 93,
      "start": 94.422,
      "duration": 0.015,
      "velocity": 99,
      "chip": "ym2612"
    },
    {
      "channel": 4,
      "note": 92,
      "start": 94.431,
      "duration": 0.0153,
      "velocity": 99,
      "chip": "ym2612"
    },
    {
      "channel": 3,
      "note": 92,
      "start": 94.4398,
      "duration": 0.0146,
      "velocity": 99,
      "chip": "ym2612"
    },
    {
      "channel": 4,
      "note": 85,
      "start": 94.4488,
      "duration": 0.0155,
      "velocity": 99,
      "chip": "ym2612"
    },
    {
      "channel": 3,
      "note": 85,
      "start": 94.4576,
      "duration": 0.0152,
      "velocity": 99,
      "chip": "ym2612"
    },
    {
      "channel": 4,
      "note": 93,
      "start": 94.4664,
      "duration": 0.0182,
      "velocity": 99,
      "chip": "ym2612"
    },
    {
      "channel": 3,
      "note": 93,
      "start": 94.4764,
      "duration": 0.0161,
      "velocity": 99,
      "chip": "ym2612"
    },
    {
      "channel": 4,
      "note": 92,
      "start": 94.4868,
      "duration": 0.0149,
      "velocity": 99,
      "chip": "ym2612"
    },
    {
      "channel": 3,
      "note": 92,
      "start": 94.495,
      "duration": 0.0154,
      "velocity": 99,
      "chip": "ym2612"
    },
    {
      "channel": 4,
      "note": 85,
      "start": 94.5041,
      "duration": 0.0175,
      "velocity": 99,
      "chip": "ym2612"
    },
    {
      "channel": 0,
      "note": 71,
      "start": 94.5053,
      "duration": 0.2946,
      "velocity": 87,
      "chip": "ym2612"
    },
    {
      "channel": 2,
      "note": 37,
      "start": 94.514,
      "duration": 0.293,
      "velocity": 97,
      "chip": "ym2612"
    },
    {
      "channel": 3,
      "note": 85,
      "start": 94.5147,
      "duration": 0.0149,
      "velocity": 99,
      "chip": "ym2612"
    },
    {
      "channel": 4,
      "note": 93,
      "start": 94.5237,
      "duration": 0.0153,
      "velocity": 99,
      "chip": "ym2612"
    },
    {
      "channel": 3,
      "note": 93,
      "start": 94.5327,
      "duration": 0.0141,
      "velocity": 99,
      "chip": "ym2612"
    },
    {
      "channel": 4,
      "note": 92,
      "start": 94.5412,
      "duration": 0.0176,
      "velocity": 99,
      "chip": "ym2612"
    },
    {
      "channel": 1,
      "note": 71,
      "start": 94.5494,
      "duration": 0.1443,
      "velocity": 87,
      "chip": "ym2612"
    },
    {
      "channel": 3,
      "note": 92,
      "start": 94.5502,
      "duration": 0.0176,
      "velocity": 99,
      "chip": "ym2612"
    },
    {
      "channel": 4,
      "note": 85,
      "start": 94.5618,
      "duration": 0.0152,
      "velocity": 99,
      "chip": "ym2612"
    },
    {
      "channel": 3,
      "note": 85,
      "start": 94.5706,
      "duration": 0.0142,
      "velocity": 99,
      "chip": "ym2612"
    },
    {
      "channel": 4,
      "note": 93,
      "start": 94.5792,
      "duration": 0.0153,
      "velocity": 99,
      "chip": "ym2612"
    },
    {
      "channel": 3,
      "note": 93,
      "start": 94.5877,
      "duration": 0.0151,
      "velocity": 99,
      "chip": "ym2612"
    },
    {
      "channel": 4,
      "note": 92,
      "start": 94.5968,
      "duration": 0.016,
      "velocity": 99,
      "chip": "ym2612"
    },
    {
      "channel": 3,
      "note": 92,
      "start": 94.6061,
      "duration": 0.0146,
      "velocity": 99,
      "chip": "ym2612"
    },
    {
      "channel": 4,
      "note": 85,
      "start": 94.6151,
      "duration": 0.0153,
      "velocity": 99,
      "chip": "ym2612"
    },
    {
      "channel": 3,
      "note": 85,
      "start": 94.6233,
      "duration": 0.0179,
      "velocity": 99,
      "chip": "ym2612"
    },
    {
      "channel": 4,
      "note": 93,
      "start": 94.6339,
      "duration": 0.0171,
      "velocity": 99,
      "chip": "ym2612"
    },
    {
      "channel": 3,
      "note": 93,
      "start": 94.6439,
      "duration": 0.0154,
      "velocity": 99,
      "chip": "ym2612"
    },
    {
      "channel": 4,
      "note": 92,
      "start": 94.6536,
      "duration": 0.0147,
      "velocity": 99,
      "chip": "ym2612"
    },
    {
      "channel": 3,
      "note": 92,
      "start": 94.6617,
      "duration": 0.0147,
      "velocity": 99,
      "chip": "ym2612"
    },
    {
      "channel": 4,
      "note": 85,
      "start": 94.6707,
      "duration": 0.0153,
      "velocity": 99,
      "chip": "ym2612"
    },
    {
      "channel": 3,
      "note": 85,
      "start": 94.6793,
      "duration": 0.015,
      "velocity": 99,
      "chip": "ym2612"
    },
    {
      "channel": 4,
      "note": 93,
      "start": 94.6885,
      "duration": 0.0151,
      "velocity": 99,
      "chip": "ym2612"
    },
    {
      "channel": 1,
      "note": 71,
      "start": 94.6962,
      "duration": 0.1497,
      "velocity": 87,
      "chip": "ym2612"
    },
    {
      "channel": 3,
      "note": 93,
      "start": 94.6971,
      "duration": 0.0166,
      "velocity": 99,
      "chip": "ym2612"
    },
    {
      "channel": 4,
      "note": 92,
      "start": 94.7062,
      "duration": 0.0186,
      "velocity": 99,
      "chip": "ym2612"
    },
    {
      "channel": 3,
      "note": 92,
      "start": 94.7174,
      "duration": 0.0158,
      "velocity": 99,
      "chip": "ym2612"
    },
    {
      "channel": 4,
      "note": 85,
      "start": 94.7275,
      "duration": 0.0148,
      "velocity": 99,
      "chip": "ym2612"
    },
    {
      "channel": 3,
      "note": 85,
      "start": 94.7355,
      "duration": 0.0151,
      "velocity": 99,
      "chip": "ym2612"
    },
    {
      "channel": 4,
      "note": 83,
      "start": 94.7446,
      "duration": 0.016,
      "velocity": 99,
      "chip": "ym2612"
    },
    {
      "channel": 3,
      "note": 83,
      "start": 94.7537,
      "duration": 0.0153,
      "velocity": 99,
      "chip": "ym2612"
    },
    {
      "channel": 4,
      "note": 85,
      "start": 94.7629,
      "duration": 0.0154,
      "velocity": 99,
      "chip": "ym2612"
    },
    {
      "channel": 3,
      "note": 85,
      "start": 94.7716,
      "duration": 0.015,
      "velocity": 99,
      "chip": "ym2612"
    },
    {
      "channel": 4,
      "note": 89,
      "start": 94.7809,
      "duration": 0.018,
      "velocity": 99,
      "chip": "ym2612"
    },
    {
      "channel": 3,
      "note": 89,
      "start": 94.7901,
      "duration": 0.0172,
      "velocity": 99,
      "chip": "ym2612"
    },
    {
      "channel": 4,
      "note": 92,
      "start": 94.8014,
      "duration": 0.0194,
      "velocity": 99,
      "chip": "ym2612"
    },
    {
      "channel": 0,
      "note": 71,
      "start": 94.8026,
      "duration": 0.2218,
      "velocity": 87,
      "chip": "ym2612"
    },
    {
      "channel": 2,
      "note": 54,
      "start": 94.8136,
      "duration": 0.0715,
      "velocity": 91,
      "chip": "ym2612"
    },
    {
      "channel": 3,
      "note": 92,
      "start": 94.8143,
      "duration": 0.0148,
      "velocity": 99,
      "chip": "ym2612"
    },
    {
      "channel": 4,
      "note": 93,
      "start": 94.8231,
      "duration": 0.0157,
      "velocity": 99,
      "chip": "ym2612"
    },
    {
      "channel": 3,
      "note": 93,
      "start": 94.8321,
      "duration": 0.0144,
      "velocity": 99,
      "chip": "ym2612"
    },
    {
      "channel": 4,
      "note": 92,
      "start": 94.841,
      "duration": 0.0152,
      "velocity": 99,
      "chip": "ym2612"
    },
    {
      "channel": 1,
      "note": 71,
      "start": 94.8491,
      "duration": 0.2203,
      "velocity": 87,
      "chip": "ym2612"
    },
    {
      "channel": 3,
      "note": 92,
      "start": 94.8499,
      "duration": 0.0145,
      "velocity": 99,
      "chip": "ym2612"
    },
    {
      "channel": 4,
      "note": 85,
      "start": 94.8585,
      "duration": 0.018,
      "velocity": 99,
      "chip": "ym2612"
    },
    {
      "channel": 3,
      "note": 85,
      "start": 94.8679,
      "duration": 0.0176,
      "velocity": 99,
      "chip": "ym2612"
    },
    {
      "channel": 4,
      "note": 93,
      "start": 94.8794,
      "duration": 0.0175,
      "velocity": 99,
      "chip": "ym2612"
    },
    {
      "channel": 2,
      "note": 54,
      "start": 94.8896,
      "duration": 0.071,
      "velocity": 91,
      "chip": "ym2612"
    },
    {
      "channel": 3,
      "note": 93,
      "start": 94.8902,
      "duration": 0.0145,
      "velocity": 99,
      "chip": "ym2612"
    },
    {
      "channel": 4,
      "note": 92,
      "start": 94.8992,
      "duration": 0.0153,
      "velocity": 99,
      "chip": "ym2612"
    },
    {
      "channel": 3,
      "note": 92,
      "start": 94.908,
      "duration": 0.0148,
      "velocity": 99,
      "chip": "ym2612"
    },
    {
      "channel": 4,
      "note": 85,
      "start": 94.9169,
      "duration": 0.0155,
      "velocity": 99,
      "chip": "ym2612"
    },
    {
      "channel": 3,
      "note": 85,
      "start": 94.9258,
      "duration": 0.0148,
      "velocity": 99,
      "chip": "ym2612"
    },
    {
      "channel": 4,
      "note": 93,
      "start": 94.9346,
      "duration": 0.0157,
      "velocity": 99,
      "chip": "ym2612"
    },
    {
      "channel": 3,
      "note": 93,
      "start": 94.9437,
      "duration": 0.0173,
      "velocity": 99,
      "chip": "ym2612"
    },
    {
      "channel": 4,
      "note": 92,
      "start": 94.9531,
      "duration": 0.0174,
      "velocity": 99,
      "chip": "ym2612"
    },
    {
      "channel": 2,
      "note": 54,
      "start": 94.9634,
      "duration": 0.0692,
      "velocity": 91,
      "chip": "ym2612"
    },
    {
      "channel": 3,
      "note": 92,
      "start": 94.9639,
      "duration": 0.0149,
      "velocity": 99,
      "chip": "ym2612"
    },
    {
      "channel": 4,
      "note": 85,
      "start": 94.9731,
      "duration": 0.0148,
      "velocity": 99,
      "chip": "ym2612"
    },
    {
      "channel": 3,
      "note": 85,
      "start": 94.9815,
      "duration": 0.0146,
      "velocity": 99,
      "chip": "ym2612"
    },
    {
      "channel": 4,
      "note": 93,
      "start": 94.9905,
      "duration": 0.0149,
      "velocity": 99,
      "chip": "ym2612"
    },
    {
      "channel": 3,
      "note": 93,
      "start": 94.9989,
      "duration": 0.0147,
      "velocity": 99,
      "chip": "ym2612"
    },
    {
      "channel": 4,
      "note": 92,
      "start": 95.008,
      "duration": 0.0156,
      "velocity": 99,
      "chip": "ym2612"
    },
    {
      "channel": 3,
      "note": 92,
      "start": 95.0168,
      "duration": 0.0161,
      "velocity": 99,
      "chip": "ym2612"
    },
    {
      "channel": 4,
      "note": 85,
      "start": 95.0259,
      "duration": 0.0197,
      "velocity": 99,
      "chip": "ym2612"
    },
    {
      "channel": 0,
      "note": 78,
      "start": 95.0271,
      "duration": 0.0712,
      "velocity": 87,
      "chip": "ym2612"
    },
    {
      "channel": 2,
      "note": 54,
      "start": 95.0377,
      "duration": 0.0674,
      "velocity": 91,
      "chip": "ym2612"
    },
    {
      "channel": 3,
      "note": 85,
      "start": 95.0385,
      "duration": 0.0147,
      "velocity": 99,
      "chip": "ym2612"
    },
    {
      "channel": 4,
      "note": 93,
      "start": 95.0477,
      "duration": 0.0144,
      "velocity": 99,
      "chip": "ym2612"
    },
    {
      "channel": 3,
      "note": 93,
      "start": 95.0557,
      "duration": 0.0143,
      "velocity": 99,
      "chip": "ym2612"
    },
    {
      "channel": 4,
      "note": 92,
      "start": 95.0644,
      "duration": 0.0152,
      "velocity": 99,
      "chip": "ym2612"
    },
    {
      "channel": 1,
      "note": 78,
      "start": 95.0724,
      "duration": 0.0697,
      "velocity": 87,
      "chip": "ym2612"
    },
    {
      "channel": 3,
      "note": 92,
      "start": 95.0733,
      "duration": 0.0142,
      "velocity": 99,
      "chip": "ym2612"
    },
    {
      "channel": 4,
      "note": 85,
      "start": 95.0819,
      "duration": 0.0154,
      "velocity": 99,
      "chip": "ym2612"
    },
    {
      "channel": 3,
      "note": 85,
      "start": 95.0909,
      "duration": 0.0144,
      "velocity": 99,
      "chip": "ym2612"
    },
    {
      "channel": 4,
      "note": 93,
      "start": 95.0996,
      "duration": 0.0173,
      "velocity": 99,
      "chip": "ym2612"
    },
    {
      "channel": 0,
      "note": 73,
      "start": 95.1008,
      "duration": 0.2168,
      "velocity": 87,
      "chip": "ym2612"
    },
    {
      "channel": 2,
      "note": 52,
      "start": 95.1076,
      "duration": 0.0698,
      "velocity": 91,
      "chip": "ym2612"
    },
    {
      "channel": 3,
      "note": 93,
      "start": 95.1082,
      "duration": 0.0168,
      "velocity": 99,
      "chip": "ym2612"
    },
    {
      "channel": 4,
      "note": 92,
      "start": 95.1196,
      "duration": 0.0147,
      "velocity": 99,
      "chip": "ym2612"
    },
    {
      "channel": 3,
      "note": 92,
      "start": 95.1279,
      "duration": 0.0148,
      "velocity": 99,
      "chip": "ym2612"
    },
    {
      "channel": 4,
      "note": 85,
      "start": 95.1367,
      "duration": 0.0157,
      "velocity": 99,
      "chip": "ym2612"
    },
    {
      "channel": 1,
      "note": 73,
      "start": 95.1451,
      "duration": 0.2185,
      "velocity": 87,
      "chip": "ym2612"
    },
    {
      "channel": 3,
      "note": 85,
      "start": 95.1461,
      "duration": 0.014,
      "velocity": 99,
      "chip": "ym2612"
    },
    {
      "channel": 4,
      "note": 93,
      "start": 95.1546,
      "duration": 0.0152,
      "velocity": 99,
      "chip": "ym2612"
    },
    {
      "channel": 3,
      "note": 93,
      "start": 95.1634,
      "duration": 0.0144,
      "velocity": 99,
      "chip": "ym2612"
    },
    {
      "channel": 4,
      "note": 92,
      "start": 95.1721,
      "duration": 0.0164,
      "velocity": 99,
      "chip": "ym2612"
    },
    {
      "channel": 2,
      "note": 52,
      "start": 95.1803,
      "duration": 0.0715,
      "velocity": 91,
      "chip": "ym2612"
    },
    {
      "channel": 3,
      "note": 92,
      "start": 95.181,
      "duration": 0.0178,
      "velocity": 99,
      "chip": "ym2612"
    },
    {
      "channel": 4,
      "note": 85,
      "start": 95.192,
      "duration": 0.0161,
      "velocity": 99,
      "chip": "ym2612"
    },
    {
      "channel": 3,
      "note": 85,
      "start": 95.2015,
      "duration": 0.0147,
      "velocity": 99,
      "chip": "ym2612"
    },
    {
      "channel": 4,
      "note": 93,
      "start": 95.2102,
      "duration": 0.0153,
      "velocity": 99,
      "chip": "ym2612"
    },
    {
      "channel": 3,
      "note": 93,
      "start": 95.219,
      "duration": 0.0147,
      "velocity": 99,
      "chip": "ym2612"
    },
    {
      "channel": 4,
      "note": 92,
      "start": 95.2277,
      "duration": 0.0159,
      "velocity": 99,
      "chip": "ym2612"
    },
    {
      "channel": 3,
      "note": 92,
      "start": 95.237,
      "duration": 0.0151,
      "velocity": 99,
      "chip": "ym2612"
    },
    {
      "channel": 4,
      "note": 85,
      "start": 95.2461,
      "duration": 0.0153,
      "velocity": 99,
      "chip": "ym2612"
    },
    {
      "channel": 2,
      "note": 52,
      "start": 95.2541,
      "duration": 0.0705,
      "velocity": 91,
      "chip": "ym2612"
    },
    {
      "channel": 3,
      "note": 85,
      "start": 95.2549,
      "duration": 0.0168,
      "velocity": 99,
      "chip": "ym2612"
    },
    {
      "channel": 4,
      "note": 93,
      "start": 95.2636,
      "duration": 0.0183,
      "velocity": 99,
      "chip": "ym2612"
    },
    {
      "channel": 3,
      "note": 93,
      "start": 95.275,
      "duration": 0.0148,
      "velocity": 99,
      "chip": "ym2612"
    },
    {
      "channel": 4,
      "note": 92,
      "start": 95.2841,
      "duration": 0.0145,
      "velocity": 99,
      "chip": "ym2612"
    },
    {
      "channel": 3,
      "note": 92,
      "start": 95.2922,
      "duration": 0.0145,
      "velocity": 99,
      "chip": "ym2612"
    },
    {
      "channel": 4,
      "note": 85,
      "start": 95.301,
      "duration": 0.0157,
      "velocity": 99,
      "chip": "ym2612"
    },
    {
      "channel": 3,
      "note": 85,
      "start": 95.31,
      "duration": 0.0149,
      "velocity": 99,
      "chip": "ym2612"
    },
    {
      "channel": 4,
      "note": 93,
      "start": 95.319,
      "duration": 0.0166,
      "velocity": 99,
      "chip": "ym2612"
    },
    {
      "channel": 0,
      "note": 69,
      "start": 95.3202,
      "duration": 0.072,
      "velocity": 87,
      "chip": "ym2612"
    },
    {
      "channel": 2,
      "note": 52,
      "start": 95.3285,
      "duration": 0.0707,
      "velocity": 91,
      "chip": "ym2612"
    },
    {
      "channel": 3,
      "note": 93,
      "start": 95.3291,
      "duration": 0.0146,
      "velocity": 99,
      "chip": "ym2612"
    },
    {
      "channel": 4,
      "note": 92,
      "start": 95.3376,
      "duration": 0.0187,
      "velocity": 99,
      "chip": "ym2612"
    },
    {
      "channel": 3,
      "note": 92,
      "start": 95.3481,
      "duration": 0.0161,
      "velocity": 99,
      "chip": "ym2612"
    },
    {
      "channel": 4,
      "note": 85,
      "start": 95.3586,
      "duration": 0.0146,
      "velocity": 99,
      "chip": "ym2612"
    },
    {
      "channel": 1,
      "note": 69,
      "start": 95.366,
      "duration": 0.0715,
      "velocity": 87,
      "chip": "ym2612"
    },
    {
      "channel": 3,
      "note": 85,
      "start": 95.3669,
      "duration": 0.0145,
      "velocity": 99,
      "chip": "ym2612"
    },
    {
      "channel": 4,
      "note": 93,
      "start": 95.3755,
      "duration": 0.0156,
      "velocity": 99,
      "chip": "ym2612"
    },
    {
      "channel": 3,
      "note": 93,
      "start": 95.3847,
      "duration": 0.015,
      "velocity": 99,
      "chip": "ym2612"
    },
    {
      "channel": 4,
      "note": 92,
      "start": 95.3934,
      "duration": 0.0156,
      "velocity": 99,
      "chip": "ym2612"
    },
    {
      "channel": 0,
      "note": 71,
      "start": 95.3946,
      "duration": 0.2197,
      "velocity": 87,
      "chip": "ym2612"
    },
    {
      "channel": 2,
      "note": 50,
      "start": 95.402,
      "duration": 0.0709,
      "velocity": 91,
      "chip": "ym2612"
    },
    {
      "channel": 3,
      "note": 92,
      "start": 95.4026,
      "duration": 0.0141,
      "velocity": 99,
      "chip": "ym2612"
    },
    {
      "channel": 4,
      "note": 85,
      "start": 95.4113,
      "duration": 0.0175,
      "velocity": 99,
      "chip": "ym2612"
    },
    {
      "channel": 3,
      "note": 85,
      "start": 95.42,
      "duration": 0.018,
      "velocity": 99,
      "chip": "ym2612"
    },
    {
      "channel": 4,
      "note": 93,
      "start": 95.4315,
      "duration": 0.0155,
      "velocity": 99,
      "chip": "ym2612"
    },
    {
      "channel": 1,
      "note": 71,
      "start": 95.4399,
      "duration": 0.2158,
      "velocity": 87,
      "chip": "ym2612"
    },
    {
      "channel": 3,
      "note": 93,
      "start": 95.4407,
      "duration": 0.0143,
      "velocity": 99,
      "chip": "ym2612"
    },
    {
      "channel": 4,
      "note": 92,
      "start": 95.4491,
      "duration": 0.0161,
      "velocity": 99,
      "chip": "ym2612"
    },
    {
      "channel": 3,
      "note": 92,
      "start": 95.4584,
      "duration": 0.0148,
      "velocity": 99,
      "chip": "ym2612"
    },
    {
      "channel": 4,
      "note": 85,
      "start": 95.4676,
      "duration": 0.0155,
      "velocity": 99,
      "chip": "ym2612"
    },
    {
      "channel": 2,
      "note": 50,
      "start": 95.4756,
      "duration": 0.0709,
      "velocity": 91,
      "chip": "ym2612"
    },
    {
      "channel": 3,
      "note": 85,
      "start": 95.4764,
      "duration": 0.0144,
      "velocity": 99,
      "chip": "ym2612"
    },
    {
      "channel": 4,
      "note": 93,
      "start": 95.4853,
      "duration": 0.0153,
      "velocity": 99,
      "chip": "ym2612"
    },
    {
      "channel": 3,
      "note": 93,
      "start": 95.4941,
      "duration": 0.0168,
      "velocity": 99,
      "chip": "ym2612"
    },
    {
      "channel": 4,
      "note": 92,
      "start": 95.504,
      "duration": 0.0158,
      "velocity": 99,
      "chip": "ym2612"
    },
    {
      "channel": 3,
      "note": 92,
      "start": 95.5133,
      "duration": 0.0149,
      "velocity": 99,
      "chip": "ym2612"
    },
    {
      "channel": 4,
      "note": 85,
      "start": 95.5222,
      "duration": 0.0163,
      "velocity": 99,
      "chip": "ym2612"
    },
    {
      "channel": 3,
      "note": 85,
      "start": 95.5314,
      "duration": 0.0154,
      "velocity": 99,
      "chip": "ym2612"
    },
    {
      "channel": 4,
      "note": 93,
      "start": 95.5407,
      "duration": 0.0153,
      "velocity": 99,
      "chip": "ym2612"
    },
    {
      "channel": 2,
      "note": 50,
      "start": 95.549,
      "duration": 0.0722,
      "velocity": 91,
      "chip": "ym2612"
    },
    {
      "channel": 3,
      "note": 93,
      "start": 95.5496,
      "duration": 0.0147,
      "velocity": 99,
      "chip": "ym2612"
    },
    {
      "channel": 4,
      "note": 92,
      "start": 95.5582,
      "duration": 0.0162,
      "velocity": 99,
      "chip": "ym2612"
    },
    {
      "channel": 3,
      "note": 92,
      "start": 95.5672,
      "duration": 0.0176,
      "velocity": 99,
      "chip": "ym2612"
    },
    {
      "channel": 4,
      "note": 85,
      "start": 95.5768,
      "duration": 0.0189,
      "velocity": 99,
      "chip": "ym2612"
    },
    {
      "channel": 3,
      "note": 85,
      "start": 95.5885,
      "duration": 0.0153,
      "velocity": 99,
      "chip": "ym2612"
    },
    {
      "channel": 4,
      "note": 93,
      "start": 95.5983,
      "duration": 0.0147,
      "velocity": 99,
      "chip": "ym2612"
    },
    {
      "channel": 3,
      "note": 93,
      "start": 95.6063,
      "duration": 0.0152,
      "velocity": 99,
      "chip": "ym2612"
    },
    {
      "channel": 4,
      "note": 92,
      "start": 95.6156,
      "duration": 0.015,
      "velocity": 99,
      "chip": "ym2612"
    },
    {
      "channel": 0,
      "note": 74,
      "start": 95.6168,
      "duration": 0.0705,
      "velocity": 87,
      "chip": "ym2612"
    },
    {
      "channel": 2,
      "note": 50,
      "start": 95.6235,
      "duration": 0.0707,
      "velocity": 91,
      "chip": "ym2612"
    },
    {
      "channel": 3,
      "note": 92,
      "start": 95.6241,
      "duration": 0.0148,
      "velocity": 99,
      "chip": "ym2612"
    },
    {
      "channel": 4,
      "note": 85,
      "start": 95.6333,
      "duration": 0.0152,
      "velocity": 99,
      "chip": "ym2612"
    },
    {
      "channel": 3,
      "note": 85,
      "start": 95.6422,
      "duration": 0.0141,
      "velocity": 99,
      "chip": "ym2612"
    },
    {
      "channel": 4,
      "note": 93,
      "start": 95.6507,
      "duration": 0.0178,
      "velocity": 99,
      "chip": "ym2612"
    },
    {
      "channel": 1,
      "note": 74,
      "start": 95.6593,
      "duration": 0.0697,
      "velocity": 87,
      "chip": "ym2612"
    },
    {
      "channel": 3,
      "note": 93,
      "start": 95.6607,
      "duration": 0.016,
      "velocity": 99,
      "chip": "ym2612"
    },
    {
      "channel": 4,
      "note": 92,
      "start": 95.6711,
      "duration": 0.0152,
      "velocity": 99,
      "chip": "ym2612"
    },
    {
      "channel": 3,
      "note": 92,
      "start": 95.6795,
      "duration": 0.0151,
      "velocity": 99,
      "chip": "ym2612"
    },
    {
      "channel": 4,
      "note": 85,
      "start": 95.6887,
      "duration": 0.0155,
      "velocity": 99,
      "chip": "ym2612"
    },
    {
      "channel": 0,
      "note": 73,
      "start": 95.6899,
      "duration": 0.2187,
      "velocity": 87,
      "chip": "ym2612"
    },
    {
      "channel": 2,
      "note": 49,
      "start": 95.6968,
      "duration": 0.0712,
      "velocity": 91,
      "chip": "ym2612"
    },
    {
      "channel": 3,
      "note": 85,
      "start": 95.6975,
      "duration": 0.0143,
      "velocity": 99,
      "chip": "ym2612"
    },
    {
      "channel": 4,
      "note": 93,
      "start": 95.7064,
      "duration": 0.0151,
      "velocity": 99,
      "chip": "ym2612"
    },
    {
      "channel": 3,
      "note": 93,
      "start": 95.7151,
      "duration": 0.0144,
      "velocity": 99,
      "chip": "ym2612"
    },
    {
      "channel": 4,
      "note": 92,
      "start": 95.7237,
      "duration": 0.0175,
      "velocity": 99,
      "chip": "ym2612"
    },
    {
      "channel": 1,
      "note": 73,
      "start": 95.7322,
      "duration": 0.2191,
      "velocity": 87,
      "chip": "ym2612"
    },
    {
      "channel": 3,
      "note": 92,
      "start": 95.733,
      "duration": 0.0177,
      "velocity": 99,
      "chip": "ym2612"
    },
    {
      "channel": 4,
      "note": 85,
      "start": 95.7442,
      "duration": 0.0159,
      "velocity": 99,
      "chip": "ym2612"
    },
    {
      "channel": 3,
      "note": 85,
      "start": 95.7534,
      "duration": 0.015,
      "velocity": 99,
      "chip": "ym2612"
    },
    {
      "channel": 4,
      "note": 93,
      "start": 95.7624,
      "duration": 0.016,
      "velocity": 99,
      "chip": "ym2612"
    },
    {
      "channel": 2,
      "note": 49,
      "start": 95.7709,
      "duration": 0.0719,
      "velocity": 91,
      "chip": "ym2612"
    },
    {
      "channel": 3,
      "note": 93,
      "start": 95.7715,
      "duration": 0.0149,
      "velocity": 99,
      "chip": "ym2612"
    },
    {
      "channel": 4,
      "note": 92,
      "start": 95.7805,
      "duration": 0.0156,
      "velocity": 99,
      "chip": "ym2612"
    },
    {
      "channel": 3,
      "note": 92,
      "start": 95.7897,
      "duration": 0.0148,
      "velocity": 99,
      "chip": "ym2612"
    },
    {
      "channel": 4,
      "note": 85,
      "start": 95.7985,
      "duration": 0.0154,
      "velocity": 99,
      "chip": "ym2612"
    },
    {
      "channel": 3,
      "note": 85,
      "start": 95.8075,
      "duration": 0.0171,
      "velocity": 99,
      "chip": "ym2612"
    },
    {
      "channel": 4,
      "note": 93,
      "start": 95.8166,
      "duration": 0.0185,
      "velocity": 99,
      "chip": "ym2612"
    },
    {
      "channel": 3,
      "note": 93,
      "start": 95.828,
      "duration": 0.0151,
      "velocity": 99,
      "chip": "ym2612"
    },
    {
      "channel": 4,
      "note": 92,
      "start": 95.8373,
      "duration": 0.0147,
      "velocity": 99,
      "chip": "ym2612"
    },
    {
      "channel": 2,
      "note": 49,
      "start": 95.845,
      "duration": 0.0707,
      "velocity": 91,
      "chip": "ym2612"
    },
    {
      "channel": 3,
      "note": 92,
      "start": 95.8456,
      "duration": 0.0144,
      "velocity": 99,
      "chip": "ym2612"
    },
    {
      "channel": 4,
      "note": 85,
      "start": 95.8544,
      "duration": 0.0152,
      "velocity": 99,
      "chip": "ym2612"
    },
    {
      "channel": 3,
      "note": 85,
      "start": 95.863,
      "duration": 0.0147,
      "velocity": 99,
      "chip": "ym2612"
    },
    {
      "channel": 4,
      "note": 93,
      "start": 95.8717,
      "duration": 0.0153,
      "velocity": 99,
      "chip": "ym2612"
    },
    {
      "channel": 3,
      "note": 93,
      "start": 95.8805,
      "duration": 0.0153,
      "velocity": 99,
      "chip": "ym2612"
    },
    {
      "channel": 4,
      "note": 92,
      "start": 95.8892,
      "duration": 0.0185,
      "velocity": 99,
      "chip": "ym2612"
    },
    {
      "channel": 3,
      "note": 92,
      "start": 95.9003,
      "duration": 0.0157,
      "velocity": 99,
      "chip": "ym2612"
    },
    {
      "channel": 4,
      "note": 85,
      "start": 95.9101,
      "duration": 0.016,
      "velocity": 99,
      "chip": "ym2612"
    },
    {
      "channel": 0,
      "note": 66,
      "start": 95.9113,
      "duration": 0.0718,
      "velocity": 87,
      "chip": "ym2612"
    },
    {
      "channel": 2,
      "note": 49,
      "start": 95.919,
      "duration": 0.0711,
      "velocity": 91,
      "chip": "ym2612"
    },
    {
      "channel": 3,
      "note": 85,
      "start": 95.9197,
      "duration": 0.0141,
      "velocity": 99,
      "chip": "ym2612"
    },
    {
      "channel": 4,
      "note": 83,
      "start": 95.9283,
      "duration": 0.0153,
      "velocity": 99,
      "chip": "ym2612"
    },
    {
      "channel": 3,
      "note": 83,
      "start": 95.9372,
      "duration": 0.0146,
      "velocity": 99,
      "chip": "ym2612"
    },
    {
      "channel": 4,
      "note": 85,
      "start": 95.9463,
      "duration": 0.0152,
      "velocity": 99,
      "chip": "ym2612"
    },
    {
      "channel": 1,
      "note": 66,
      "start": 95.9544,
      "duration": 0.0751,
      "velocity": 87,
      "chip": "ym2612"
    },
    {
      "channel": 3,
      "note": 85,
      "start": 95.9552,
      "duration": 0.0144,
      "velocity": 99,
      "chip": "ym2612"
    },
    {
      "channel": 4,
      "note": 89,
      "start": 95.964,
      "duration": 0.0179,
      "velocity": 99,
      "chip": "ym2612"
    },
    {
      "channel": 3,
      "note": 89,
      "start": 95.9729,
      "duration": 0.0176,
      "velocity": 99,
      "chip": "ym2612"
    },
    {
      "channel": 4,
      "note": 92,
      "start": 95.9846,
      "duration": 0.0196,
      "velocity": 99,
      "chip": "ym2612"
    },
    {
      "channel": 0,
      "note": 71,
      "start": 95.9859,
      "duration": 0.2244,
      "velocity": 87,
      "chip": "ym2612"
    },
    {
      "channel": 2,
      "note": 54,
      "start": 95.9971,
      "duration": 0.0722,
      "velocity": 91,
      "chip": "ym2612"
    },
    {
      "channel": 3,
      "note": 92,
      "start": 95.9978,
      "duration": 0.014,
      "velocity": 99,
      "chip": "ym2612"
    },
    {
      "channel": 4,
      "note": 93,
      "start": 96.0063,
      "duration": 0.0156,
      "velocity": 99,
      "chip": "ym2612"
    },
    {
      "channel": 3,
      "note": 93,
      "start": 96.0152,
      "duration": 0.0148,
      "velocity": 99,
      "chip": "ym2612"
    },
    {
      "channel": 4,
      "note": 92,
      "start": 96.0241,
      "duration": 0.0163,
      "velocity": 99,
      "chip": "ym2612"
    },
    {
      "channel": 1,
      "note": 71,
      "start": 96.0326,
      "duration": 0.2225,
      "velocity": 87,
      "chip": "ym2612"
    },
    {
      "channel": 3,
      "note": 92,
      "start": 96.0335,
      "duration": 0.0149,
      "velocity": 99,
      "chip": "ym2612"
    },
    {
      "channel": 4,
      "note": 85,
      "start": 96.0428,
      "duration": 0.017,
      "velocity": 99,
      "chip": "ym2612"
    },
    {
      "channel": 3,
      "note": 85,
      "start": 96.0519,
      "duration": 0.0178,
      "velocity": 99,
      "chip": "ym2612"
    },
    {
      "channel": 4,
      "note": 93,
      "start": 96.063,
      "duration": 0.0176,
      "velocity": 99,
      "chip": "ym2612"
    },
    {
      "channel": 2,
      "note": 54,
      "start": 96.0737,
      "duration": 0.0712,
      "velocity": 91,
      "chip": "ym2612"
    },
    {
      "channel": 3,
      "note": 93,
      "start": 96.0743,
      "duration": 0.0146,
      "velocity": 99,
      "chip": "ym2612"
    },
    {
      "channel": 4,
      "note": 92,
      "start": 96.0829,
      "duration": 0.0161,
      "velocity": 99,
      "chip": "ym2612"
    },
    {
      "channel": 3,
      "note": 92,
      "start": 96.0922,
      "duration": 0.0149,
      "velocity": 99,
      "chip": "ym2612"
    },
    {
      "channel": 4,
      "note": 85,
      "start": 96.1014,
      "duration": 0.0154,
      "velocity": 99,
      "chip": "ym2612"
    },
    {
      "channel": 3,
      "note": 85,
      "start": 96.1099,
      "duration": 0.0148,
      "velocity": 99,
      "chip": "ym2612"
    },
    {
      "channel": 4,
      "note": 93,
      "start": 96.1191,
      "duration": 0.0158,
      "velocity": 99,
      "chip": "ym2612"
    },
    {
      "channel": 3,
      "note": 93,
      "start": 96.1279,
      "duration": 0.0174,
      "velocity": 99,
      "chip": "ym2612"
    },
    {
      "channel": 4,
      "note": 92,
      "start": 96.1372,
      "duration": 0.018,
      "velocity": 99,
      "chip": "ym2612"
    },
    {
      "channel": 2,
      "note": 54,
      "start": 96.148,
      "duration": 0.0697,
      "velocity": 91,
      "chip": "ym2612"
    },
    {
      "channel": 3,
      "note": 92,
      "start": 96.1486,
      "duration": 0.0146,
      "velocity": 99,
      "chip": "ym2612"
    },
    {
      "channel": 4,
      "note": 85,
      "start": 96.1575,
      "duration": 0.015,
      "velocity": 99,
      "chip": "ym2612"
    },
    {
      "channel": 3,
      "note": 85,
      "start": 96.1657,
      "duration": 0.0151,
      "velocity": 99,
      "chip": "ym2612"
    },
    {
      "channel": 4,
      "note": 93,
      "start": 96.1747,
      "duration": 0.0161,
      "velocity": 99,
      "chip": "ym2612"
    },
    {
      "channel": 3,
      "note": 93,
      "start": 96.1836,
      "duration": 0.0155,
      "velocity": 99,
      "chip": "ym2612"
    },
    {
      "channel": 4,
      "note": 92,
      "start": 96.193,
      "duration": 0.0164,
      "velocity": 99,
      "chip": "ym2612"
    },
    {
      "channel": 3,
      "note": 92,
      "start": 96.2023,
      "duration": 0.0157,
      "velocity": 99,
      "chip": "ym2612"
    },
    {
      "channel": 4,
      "note": 85,
      "start": 96.2117,
      "duration": 0.019,
      "velocity": 99,
      "chip": "ym2612"
    },
    {
      "channel": 0,
      "note": 78,
      "start": 96.2129,
      "duration": 0.0713,
      "velocity": 87,
      "chip": "ym2612"
    },
    {
      "channel": 2,
      "note": 54,
      "start": 96.2221,
      "duration": 0.069,
      "velocity": 91,
      "chip": "ym2612"
    },
    {
      "channel": 3,
      "note": 85,
      "start": 96.2235,
      "duration": 0.015,
      "velocity": 99,
      "chip": "ym2612"
    },
    {
      "channel": 4,
      "note": 93,
      "start": 96.2329,
      "duration": 0.0145,
      "velocity": 99,
      "chip": "ym2612"
    },
    {
      "channel": 3,
      "note": 93,
      "start": 96.241,
      "duration": 0.0146,
      "velocity": 99,
      "chip": "ym2612"
    },
    {
      "channel": 4,
      "note": 92,
      "start": 96.2496,
      "duration": 0.0161,
      "velocity": 99,
      "chip": "ym2612"
    },
    {
      "channel": 1,
      "note": 78,
      "start": 96.2585,
      "duration": 0.0702,
      "velocity": 87,
      "chip": "ym2612"
    },
    {
      "channel": 3,
      "note": 92,
      "start": 96.2594,
      "duration": 0.0141,
      "velocity": 99,
      "chip": "ym2612"
    },
    {
      "channel": 4,
      "note": 85,
      "start": 96.268,
      "duration": 0.0153,
      "velocity": 99,
      "chip": "ym2612"
    },
    {
      "channel": 3,
      "note": 85,
      "start": 96.2768,
      "duration": 0.0145,
      "velocity": 99,
      "chip": "ym2612"
    },
    {
      "channel": 4,
      "note": 93,
      "start": 96.2856,
      "duration": 0.0173,
      "velocity": 99,
      "chip": "ym2612"
    },
    {
      "channel": 0,
      "note": 73,
      "start": 96.2867,
      "duration": 0.2181,
      "velocity": 87,
      "chip": "ym2612"
    },
    {
      "channel": 2,
      "note": 52,
      "start": 96.2936,
      "duration": 0.0711,
      "velocity": 91,
      "chip": "ym2612"
    },
    {
      "channel": 3,
      "note": 93,
      "start": 96.2941,
      "duration": 0.0176,
      "velocity": 99,
      "chip": "ym2612"
    },
    {
      "channel": 4,
      "note": 92,
      "start": 96.3057,
      "duration": 0.0151,
      "velocity": 99,
      "chip": "ym2612"
    },
    {
      "channel": 3,
      "note": 92,
      "start": 96.3145,
      "duration": 0.0147,
      "velocity": 99,
      "chip": "ym2612"
    },
    {
      "channel": 4,
      "note": 85,
      "start": 96.3232,
      "duration": 0.0158,
      "velocity": 99,
      "chip": "ym2612"
    },
    {
      "channel": 1,
      "note": 73,
      "start": 96.3317,
      "duration": 0.2198,
      "velocity": 87,
      "chip": "ym2612"
    },
    {
      "channel": 3,
      "note": 85,
      "start": 96.3327,
      "duration": 0.0143,
      "velocity": 99,
      "chip": "ym2612"
    },
    {
      "channel": 4,
      "note": 93,
      "start": 96.3412,
      "duration": 0.0159,
      "velocity": 99,
      "chip": "ym2612"
    },
    {
      "channel": 3,
      "note": 93,
      "start": 96.3503,
      "duration": 0.0147,
      "velocity": 99,
      "chip": "ym2612"
    },
    {
      "channel": 4,
      "note": 92,
      "start": 96.3594,
      "duration": 0.0154,
      "velocity": 99,
      "chip": "ym2612"
    },
    {
      "channel": 2,
      "note": 52,
      "start": 96.3674,
      "duration": 0.0703,
      "velocity": 91,
      "chip": "ym2612"
    },
    {
      "channel": 3,
      "note": 92,
      "start": 96.368,
      "duration": 0.0168,
      "velocity": 99,
      "chip": "ym2612"
    },
    {
      "channel": 4,
      "note": 85,
      "start": 96.3783,
      "duration": 0.0164,
      "velocity": 99,
      "chip": "ym2612"
    },
    {
      "channel": 3,
      "note": 85,
      "start": 96.3882,
      "duration": 0.0143,
      "velocity": 99,
      "chip": "ym2612"
    },
    {
      "channel": 4,
      "note": 93,
      "start": 96.3969,
      "duration": 0.015,
      "velocity": 99,
      "chip": "ym2612"
    },
    {
      "channel": 3,
      "note": 93,
      "start": 96.4054,
      "duration": 0.0144,
      "velocity": 99,
      "chip": "ym2612"
    },
    {
      "channel": 4,
      "note": 92,
      "start": 96.4141,
      "duration": 0.0158,
      "velocity": 99,
      "chip": "ym2612"
    },
    {
      "channel": 3,
      "note": 92,
      "start": 96.4229,
      "duration": 0.0151,
      "velocity": 99,
      "chip": "ym2612"
    },
    {
      "channel": 4,
      "note": 85,
      "start": 96.4324,
      "duration": 0.0149,
      "velocity": 99,
      "chip": "ym2612"
    },
    {
      "channel": 2,
      "note": 52,
      "start": 96.4401,
      "duration": 0.0716,
      "velocity": 91,
      "chip": "ym2612"
    },
    {
      "channel": 3,
      "note": 85,
      "start": 96.4408,
      "duration": 0.0167,
      "velocity": 99,
      "chip": "ym2612"
    },
    {
      "channel": 4,
      "note": 93,
      "start": 96.4495,
      "duration": 0.0188,
      "velocity": 99,
      "chip": "ym2612"
    },
    {
      "channel": 3,
      "note": 93,
      "start": 96.461,
      "duration": 0.0156,
      "velocity": 99,
      "chip": "ym2612"
    },
    {
      "channel": 4,
      "note": 92,
      "start": 96.4705,
      "duration": 0.015,
      "velocity": 99,
      "chip": "ym2612"
    },
    {
      "channel": 3,
      "note": 92,
      "start": 96.479,
      "duration": 0.0148,
      "velocity": 99,
      "chip": "ym2612"
    },
    {
      "channel": 4,
      "note": 85,
      "start": 96.4879,
      "duration": 0.016,
      "velocity": 99,
      "chip": "ym2612"
    },
    {
      "channel": 3,
      "note": 85,
      "start": 96.4972,
      "duration": 0.0149,
      "velocity": 99,
      "chip": "ym2612"
    },
    {
      "channel": 4,
      "note": 93,
      "start": 96.5061,
      "duration": 0.0169,
      "velocity": 99,
      "chip": "ym2612"
    },
    {
      "channel": 0,
      "note": 69,
      "start": 96.5073,
      "duration": 0.0732,
      "velocity": 87,
      "chip": "ym2612"
    },
    {
      "channel": 2,
      "note": 52,
      "start": 96.5156,
      "duration": 0.0718,
      "velocity": 91,
      "chip": "ym2612"
    },
    {
      "channel": 3,
      "note": 93,
      "start": 96.5162,
      "duration": 0.015,
      "velocity": 99,
      "chip": "ym2612"
    },
    {
      "channel": 4,
      "note": 92,
      "start": 96.5252,
      "duration": 0.0185,
      "velocity": 99,
      "chip": "ym2612"
    },
    {
      "channel": 3,
      "note": 92,
      "start": 96.535,
      "duration": 0.0171,
      "velocity": 99,
      "chip": "ym2612"
    },
    {
      "channel": 4,
      "note": 85,
      "start": 96.5465,
      "duration": 0.0147,
      "velocity": 99,
      "chip": "ym2612"
    },
    {
      "channel": 1,
      "note": 69,
      "start": 96.5538,
      "duration": 0.0719,
      "velocity": 87,
      "chip": "ym2612"
    },
    {
      "channel": 3,
      "note": 85,
      "start": 96.5548,
      "duration": 0.0145,
      "velocity": 99,
      "chip": "ym2612"
    },
    {
      "channel": 4,
      "note": 93,
      "start": 96.5637,
      "duration": 0.0156,
      "velocity": 99,
      "chip": "ym2612"
    },
    {
      "channel": 3,
      "note": 93,
      "start": 96.5728,
      "duration": 0.0149,
      "velocity": 99,
      "chip": "ym2612"
    },
    {
      "channel": 4,
      "note": 92,
      "start": 96.5819,
      "duration": 0.0156,
      "velocity": 99,
      "chip": "ym2612"
    },
    {
      "channel": 0,
      "note": 74,
      "start": 96.5831,
      "duration": 0.1797,
      "velocity": 87,
      "chip": "ym2612"
    },
    {
      "channel": 2,
      "note": 50,
      "start": 96.5904,
      "duration": 0.0707,
      "velocity": 91,
      "chip": "ym2612"
    },
    {
      "channel": 3,
      "note": 92,
      "start": 96.591,
      "duration": 0.0141,
      "velocity": 99,
      "chip": "ym2612"
    },
    {
      "channel": 4,
      "note": 85,
      "start": 96.5997,
      "duration": 0.0173,
      "velocity": 99,
      "chip": "ym2612"
    },
    {
      "channel": 3,
      "note": 85,
      "start": 96.6085,
      "duration": 0.0178,
      "velocity": 99,
      "chip": "ym2612"
    },
    {
      "channel": 4,
      "note": 93,
      "start": 96.6198,
      "duration": 0.0157,
      "velocity": 99,
      "chip": "ym2612"
    },
    {
      "channel": 1,
      "note": 74,
      "start": 96.6284,
      "duration": 0.1424,
      "velocity": 87,
      "chip": "ym2612"
    },
    {
      "channel": 3,
      "note": 93,
      "start": 96.6293,
      "duration": 0.0143,
      "velocity": 99,
      "chip": "ym2612"
    },
    {
      "channel": 4,
      "note": 92,
      "start": 96.6377,
      "duration": 0.0158,
      "velocity": 99,
      "chip": "ym2612"
    },
    {
      "channel": 3,
      "note": 92,
      "start": 96.647,
      "duration": 0.0144,
      "velocity": 99,
      "chip": "ym2612"
    },
    {
      "channel": 4,
      "note": 85,
      "start": 96.6558,
      "duration": 0.0152,
      "velocity": 99,
      "chip": "ym2612"
    },
    {
      "channel": 2,
      "note": 50,
      "start": 96.6639,
      "duration": 0.0704,
      "velocity": 91,
      "chip": "ym2612"
    },
    {
      "channel": 3,
      "note": 85,
      "start": 96.6646,
      "duration": 0.0141,
      "velocity": 99,
      "chip": "ym2612"
    },
    {
      "channel": 4,
      "note": 93,
      "start": 96.6733,
      "duration": 0.0151,
      "velocity": 99,
      "chip": "ym2612"
    },
    {
      "channel": 3,
      "note": 93,
      "start": 96.6819,
      "duration": 0.0169,
      "velocity": 99,
      "chip": "ym2612"
    },
    {
      "channel": 4,
      "note": 92,
      "start": 96.6913,
      "duration": 0.0173,
      "velocity": 99,
      "chip": "ym2612"
    },
    {
      "channel": 3,
      "note": 92,
      "start": 96.702,
      "duration": 0.0146,
      "velocity": 99,
      "chip": "ym2612"
    },
    {
      "channel": 4,
      "note": 85,
      "start": 96.711,
      "duration": 0.0153,
      "velocity": 99,
      "chip": "ym2612"
    },
    {
      "channel": 3,
      "note": 85,
      "start": 96.7195,
      "duration": 0.0151,
      "velocity": 99,
      "chip": "ym2612"
    },
    {
      "channel": 4,
      "note": 93,
      "start": 96.7285,
      "duration": 0.0156,
      "velocity": 99,
      "chip": "ym2612"
    },
    {
      "channel": 2,
      "note": 50,
      "start": 96.7367,
      "duration": 0.071,
      "velocity": 91,
      "chip": "ym2612"
    },
    {
      "channel": 3,
      "note": 93,
      "start": 96.7373,
      "duration": 0.0147,
      "velocity": 99,
      "chip": "ym2612"
    },
    {
      "channel": 4,
      "note": 92,
      "start": 96.7463,
      "duration": 0.0155,
      "velocity": 99,
      "chip": "ym2612"
    },
    {
      "channel": 3,
      "note": 92,
      "start": 96.7549,
      "duration": 0.0165,
      "velocity": 99,
      "chip": "ym2612"
    },
    {
      "channel": 4,
      "note": 85,
      "start": 96.7642,
      "duration": 0.0188,
      "velocity": 99,
      "chip": "ym2612"
    },
    {
      "channel": 0,
      "note": 73,
      "start": 96.7656,
      "duration": 0.0354,
      "velocity": 87,
      "chip": "ym2612"
    },
    {
      "channel": 1,
      "note": 74,
      "start": 96.7742,
      "duration": 0.0332,
      "velocity": 87,
      "chip": "ym2612"
    },
    {
      "channel": 3,
      "note": 85,
      "start": 96.7755,
      "duration": 0.0154,
      "velocity": 99,
      "chip": "ym2612"
    },
    {
      "channel": 4,
      "note": 93,
      "start": 96.7851,
      "duration": 0.0149,
      "velocity": 99,
      "chip": "ym2612"
    },
    {
      "channel": 3,
      "note": 93,
      "start": 96.7936,
      "duration": 0.0144,
      "velocity": 99,
      "chip": "ym2612"
    },
    {
      "channel": 4,
      "note": 92,
      "start": 96.8022,
      "duration": 0.0158,
      "velocity": 99,
      "chip": "ym2612"
    },
    {
      "channel": 0,
      "note": 74,
      "start": 96.8034,
      "duration": 0.0331,
      "velocity": 87,
      "chip": "ym2612"
    },
    {
      "channel": 1,
      "note": 73,
      "start": 96.8103,
      "duration": 0.0327,
      "velocity": 87,
      "chip": "ym2612"
    },
    {
      "channel": 2,
      "note": 50,
      "start": 96.8108,
      "duration": 0.0697,
      "velocity": 91,
      "chip": "ym2612"
    },
    {
      "channel": 3,
      "note": 92,
      "start": 96.8114,
      "duration": 0.0147,
      "velocity": 99,
      "chip": "ym2612"
    },
    {
      "channel": 4,
      "note": 85,
      "start": 96.8203,
      "duration": 0.0153,
      "velocity": 99,
      "chip": "ym2612"
    },
    {
      "channel": 3,
      "note": 85,
      "start": 96.8293,
      "duration": 0.0142,
      "velocity": 99,
      "chip": "ym2612"
    },
    {
      "channel": 4,
      "note": 93,
      "start": 96.8378,
      "duration": 0.0176,
      "velocity": 99,
      "chip": "ym2612"
    },
    {
      "channel": 0,
      "note": 76,
      "start": 96.839,
      "duration": 0.0346,
      "velocity": 87,
      "chip": "ym2612"
    },
    {
      "channel": 1,
      "note": 74,
      "start": 96.8459,
      "duration": 0.0343,
      "velocity": 87,
      "chip": "ym2612"
    },
    {
      "channel": 3,
      "note": 93,
      "start": 96.8466,
      "duration": 0.0168,
      "velocity": 99,
      "chip": "ym2612"
    },
    {
      "channel": 4,
      "note": 92,
      "start": 96.858,
      "duration": 0.0147,
      "velocity": 99,
      "chip": "ym2612"
    },
    {
      "channel": 3,
      "note": 92,
      "start": 96.8663,
      "duration": 0.0145,
      "velocity": 99,
      "chip": "ym2612"
    },
    {
      "channel": 4,
      "note": 85,
      "start": 96.875,
      "duration": 0.0156,
      "velocity": 99,
      "chip": "ym2612"
    },
    {
      "channel": 0,
      "note": 78,
      "start": 96.8761,
      "duration": 0.1453,
      "velocity": 87,
      "chip": "ym2612"
    },
    {
      "channel": 1,
      "note": 76,
      "start": 96.8828,
      "duration": 0.0323,
      "velocity": 87,
      "chip": "ym2612"
    },
    {
      "channel": 2,
      "note": 49,
      "start": 96.8833,
      "duration": 0.0711,
      "velocity": 91,
      "chip": "ym2612"
    },
    {
      "channel": 3,
      "note": 85,
      "start": 96.8841,
      "duration": 0.0143,
      "velocity": 99,
      "chip": "ym2612"
    },
    {
      "channel": 4,
      "note": 93,
      "start": 96.893,
      "duration": 0.0145,
      "velocity": 99,
      "chip": "ym2612"
    },
    {
      "channel": 3,
      "note": 93,
      "start": 96.9012,
      "duration": 0.0144,
      "velocity": 99,
      "chip": "ym2612"
    },
    {
      "channel": 4,
      "note": 92,
      "start": 96.9097,
      "duration": 0.0172,
      "velocity": 99,
      "chip": "ym2612"
    },
    {
      "channel": 1,
      "note": 78,
      "start": 96.9185,
      "duration": 0.1505,
      "velocity": 87,
      "chip": "ym2612"
    },
    {
      "channel": 3,
      "note": 92,
      "start": 96.9193,
      "duration": 0.0176,
      "velocity": 99,
      "chip": "ym2612"
    },
    {
      "channel": 4,
      "note": 85,
      "start": 96.9303,
      "duration": 0.0162,
      "velocity": 99,
      "chip": "ym2612"
    },
    {
      "channel": 3,
      "note": 85,
      "start": 96.9397,
      "duration": 0.0151,
      "velocity": 99,
      "chip": "ym2612"
    },
    {
      "channel": 4,
      "note": 93,
      "start": 96.9491,
      "duration": 0.0154,
      "velocity": 99,
      "chip": "ym2612"
    },
    {
      "channel": 2,
      "note": 49,
      "start": 96.9571,
      "duration": 0.0716,
      "velocity": 91,
      "chip": "ym2612"
    },
    {
      "channel": 3,
      "note": 93,
      "start": 96.9577,
      "duration": 0.0146,
      "velocity": 99,
      "chip": "ym2612"
    },
    {
      "channel": 4,
      "note": 92,
      "start": 96.9668,
      "duration": 0.0158,
      "velocity": 99,
      "chip": "ym2612"
    },
    {
      "channel": 3,
      "note": 92,
      "start": 96.9758,
      "duration": 0.0147,
      "velocity": 99,
      "chip": "ym2612"
    },
    {
      "channel": 4,
      "note": 85,
      "start": 96.9849,
      "duration": 0.015,
      "velocity": 99,
      "chip": "ym2612"
    },
    {
      "channel": 3,
      "note": 85,
      "start": 96.9935,
      "duration": 0.0168,
      "velocity": 99,
      "chip": "ym2612"
    },
    {
      "channel": 4,
      "note": 93,
      "start": 97.0022,
      "duration": 0.0183,
      "velocity": 99,
      "chip": "ym2612"
    },
    {
      "channel": 3,
      "note": 93,
      "start": 97.0138,
      "duration": 0.0153,
      "velocity": 99,
      "chip": "ym2612"
    },
    {
      "channel": 4,
      "note": 92,
      "start": 97.0228,
      "duration": 0.0168,
      "velocity": 99,
      "chip": "ym2612"
    },
    {
      "channel": 0,
      "note": 78,
      "start": 97.024,
      "duration": 0.0167,
      "velocity": 87,
      "chip": "ym2612"
    },
    {
      "channel": 2,
      "note": 49,
      "start": 97.0323,
      "duration": 0.0791,
      "velocity": 91,
      "chip": "ym2612"
    },
    {
      "channel": 3,
      "note": 92,
      "start": 97.0329,
      "duration": 0.0184,
      "velocity": 99,
      "chip": "ym2612"
    },
    {
      "channel": 4,
      "note": 85,
      "start": 97.0421,
      "duration": 0.0193,
      "velocity": 99,
      "chip": "ym2612"
    },
    {
      "channel": 0,
      "note": 61,
      "start": 97.0463,
      "duration": 0.0161,
      "velocity": 98,
      "chip": "ym2612"
    },
    {
      "channel": 3,
      "note": 85,
      "start": 97.0546,
      "duration": 0.0149,
      "velocity": 99,
      "chip": "ym2612"
    },
    {
      "channel": 4,
      "note": 93,
      "start": 97.0637,
      "duration": 0.0187,
      "velocity": 99,
      "chip": "ym2612"
    },
    {
      "channel": 0,
      "note": 63,
      "start": 97.0649,
      "duration": 0.0185,
      "velocity": 98,
      "chip": "ym2612"
    },
    {
      "channel": 1,
      "note": 61,
      "start": 97.0747,
      "duration": 0.0156,
      "velocity": 98,
      "chip": "ym2612"
    },
    {
      "channel": 3,
      "note": 93,
      "start": 97.0755,
      "duration": 0.0154,
      "velocity": 99,
      "chip": "ym2612"
    },
    {
      "channel": 4,
      "note": 92,
      "start": 97.0846,
      "duration": 0.0188,
      "velocity": 99,
      "chip": "ym2612"
    },
    {
      "channel": 0,
      "note": 65,
      "start": 97.0857,
      "duration": 0.0187,
      "velocity": 98,
      "chip": "ym2612"
    },
    {
      "channel": 1,
      "note": 63,
      "start": 97.0945,
      "duration": 0.0166,
      "velocity": 98,
      "chip": "ym2612"
    },
    {
      "channel": 3,
      "note": 92,
      "start": 97.0959,
      "duration": 0.0158,
      "velocity": 99,
      "chip": "ym2612"
    },
    {
      "channel": 4,
      "note": 85,
      "start": 97.1058,
      "duration": 0.0164,
      "velocity": 99,
      "chip": "ym2612"
    },
    {
      "channel": 0,
      "note": 66,
      "start": 97.107,
      "duration": 0.0161,
      "velocity": 98,
      "chip": "ym2612"
    },
    {
      "channel": 1,
      "note": 65,
      "start": 97.1146,
      "duration": 0.015,
      "velocity": 98,
      "chip": "ym2612"
    },
    {
      "channel": 2,
      "note": 49,
      "start": 97.1151,
      "duration": 0.0707,
      "velocity": 91,
      "chip": "ym2612"
    },
    {
      "channel": 3,
      "note": 85,
      "start": 97.1158,
      "duration": 0.0143,
      "velocity": 99,
      "chip": "ym2612"
    },
    {
      "channel": 4,
      "note": 83,
      "start": 97.1244,
      "duration": 0.015,
      "velocity": 99,
      "chip": "ym2612"
    },
    {
      "channel": 0,
      "note": 68,
      "start": 97.1256,
      "duration": 0.0147,
      "velocity": 98,
      "chip": "ym2612"
    },
    {
      "channel": 1,
      "note": 66,
      "start": 97.1323,
      "duration": 0.0146,
      "velocity": 98,
      "chip": "ym2612"
    },
    {
      "channel": 3,
      "note": 83,
      "start": 97.1331,
      "duration": 0.0143,
      "velocity": 99,
      "chip": "ym2612"
    },
    {
      "channel": 4,
      "note": 85,
      "start": 97.1416,
      "duration": 0.0154,
      "velocity": 99,
      "chip": "ym2612"
    },
    {
      "channel": 0,
      "note": 69,
      "start": 97.1428,
      "duration": 0.0152,
      "velocity": 98,
      "chip": "ym2612"
    },
    {
      "channel": 1,
      "note": 68,
      "start": 97.1496,
      "duration": 0.0148,
      "velocity": 98,
      "chip": "ym2612"
    },
    {
      "channel": 3,
      "note": 85,
      "start": 97.1504,
      "duration": 0.0146,
      "velocity": 99,
      "chip": "ym2612"
    },
    {
      "channel": 4,
      "note": 89,
      "start": 97.1592,
      "duration": 0.0179,
      "velocity": 99,
      "chip": "ym2612"
    },
    {
      "channel": 0,
      "note": 71,
      "start": 97.1604,
      "duration": 0.0184,
      "velocity": 98,
      "chip": "ym2612"
    },
    {
      "channel": 1,
      "note": 69,
      "start": 97.1676,
      "duration": 0.018,
      "velocity": 98,
      "chip": "ym2612"
    },
    {
      "channel": 3,
      "note": 89,
      "start": 97.1684,
      "duration": 0.0178,
      "velocity": 99,
      "chip": "ym2612"
    },
    {
      "channel": 4,
      "note": 92,
      "start": 97.1803,
      "duration": 0.0199,
      "velocity": 99,
      "chip": "ym2612"
    },
    {
      "channel": 0,
      "note": 73,
      "start": 97.1815,
      "duration": 0.219,
      "velocity": 98,
      "chip": "ym2612"
    },
    {
      "channel": 1,
      "note": 71,
      "start": 97.1893,
      "duration": 0.0354,
      "velocity": 98,
      "chip": "ym2612"
    },
    {
      "channel": 2,
      "note": 54,
      "start": 97.1931,
      "duration": 0.0709,
      "velocity": 91,
      "chip": "ym2612"
    },
    {
      "channel": 3,
      "note": 92,
      "start": 97.1938,
      "duration": 0.014,
      "velocity": 99,
      "chip": "ym2612"
    },
    {
      "channel": 4,
      "note": 93,
      "start": 97.2024,
      "duration": 0.0153,
      "velocity": 99,
      "chip": "ym2612"
    },
    {
      "channel": 3,
      "note": 93,
      "start": 97.2114,
      "duration": 0.0138,
      "velocity": 99,
      "chip": "ym2612"
    },
    {
      "channel": 4,
      "note": 92,
      "start": 97.2198,
      "duration": 0.0154,
      "velocity": 99,
      "chip": "ym2612"
    },
    {
      "channel": 1,
      "note": 73,
      "start": 97.228,
      "duration": 0.2177,
      "velocity": 98,
      "chip": "ym2612"
    },
    {
      "channel": 3,
      "note": 92,
      "start": 97.2289,
      "duration": 0.0146,
      "velocity": 99,
      "chip": "ym2612"
    },
    {
      "channel": 4,
      "note": 85,
      "start": 97.2379,
      "duration": 0.0158,
      "velocity": 99,
      "chip": "ym2612"
    },
    {
      "channel": 3,
      "note": 85,
      "start": 97.2471,
      "duration": 0.0173,
      "velocity": 99,
      "chip": "ym2612"
    },
    {
      "channel": 4,
      "note": 93,
      "start": 97.2572,
      "duration": 0.0163,
      "velocity": 99,
      "chip": "ym2612"
    },
    {
      "channel": 2,
      "note": 54,
      "start": 97.2662,
      "duration": 0.0702,
      "velocity": 91,
      "chip": "ym2612"
    },
    {
      "channel": 3,
      "note": 93,
      "start": 97.2668,
      "duration": 0.0144,
      "velocity": 99,
      "chip": "ym2612"
    },
    {
      "channel": 4,
      "note": 92,
      "start": 97.2757,
      "duration": 0.0153,
      "velocity": 99,
      "chip": "ym2612"
    },
    {
      "channel": 3,
      "note": 92,
      "start": 97.2845,
      "duration": 0.0144,
      "velocity": 99,
      "chip": "ym2612"
    },
    {
      "channel": 4,
      "note": 85,
      "start": 97.2934,
      "duration": 0.0153,
      "velocity": 99,
      "chip": "ym2612"
    },
    {
      "channel": 3,
      "note": 85,
      "start": 97.3017,
      "duration": 0.0148,
      "velocity": 99,
      "chip": "ym2612"
    },
    {
      "channel": 4,
      "note": 93,
      "start": 97.3109,
      "duration": 0.0159,
      "velocity": 99,
      "chip": "ym2612"
    },
    {
      "channel": 3,
      "note": 93,
      "start": 97.3197,
      "duration": 0.0173,
      "velocity": 99,
      "chip": "ym2612"
    },
    {
      "channel": 4,
      "note": 92,
      "start": 97.329,
      "duration": 0.0183,
      "velocity": 99,
      "chip": "ym2612"
    },
    {
      "channel": 2,
      "note": 54,
      "start": 97.3398,
      "duration": 0.0677,
      "velocity": 91,
      "chip": "ym2612"
    },
    {
      "channel": 3,
      "note": 92,
      "start": 97.3404,
      "duration": 0.015,
      "velocity": 99,
      "chip": "ym2612"
    },
    {
      "channel": 4,
      "note": 85,
      "start": 97.3497,
      "duration": 0.0144,
      "velocity": 99,
      "chip": "ym2612"
    },
    {
      "channel": 3,
      "note": 85,
      "start": 97.3576,
      "duration": 0.0143,
      "velocity": 99,
      "chip": "ym2612"
    },
    {
      "channel": 4,
      "note": 93,
      "start": 97.3663,
      "duration": 0.0154,
      "velocity": 99,
      "chip": "ym2612"
    },
    {
      "channel": 3,
      "note": 93,
      "start": 97.3749,
      "duration": 0.0148,
      "velocity": 99,
      "chip": "ym2612"
    },
    {
      "channel": 4,
      "note": 92,
      "start": 97.384,
      "duration": 0.0156,
      "velocity": 99,
      "chip": "ym2612"
    },
    {
      "channel": 3,
      "note": 92,
      "start": 97.3929,
      "duration": 0.015,
      "velocity": 99,
      "chip": "ym2612"
    },
    {
      "channel": 4,
      "note": 85,
      "start": 97.402,
      "duration": 0.0193,
      "velocity": 99,
      "chip": "ym2612"
    },
    {
      "channel": 0,
      "note": 78,
      "start": 97.4032,
      "duration": 0.0717,
      "velocity": 98,
      "chip": "ym2612"
    },
    {
      "channel": 2,
      "note": 54,
      "start": 97.412,
      "duration": 0.0698,
      "velocity": 91,
      "chip": "ym2612"
    },
    {
      "channel": 3,
      "note": 85,
      "start": 97.4131,
      "duration": 0.0161,
      "velocity": 99,
      "chip": "ym2612"
    },
    {
      "channel": 4,
      "note": 93,
      "start": 97.4236,
      "duration": 0.0151,
      "velocity": 99,
      "chip": "ym2612"
    },
    {
      "channel": 3,
      "note": 93,
      "start": 97.4319,
      "duration": 0.0144,
      "velocity": 99,
      "chip": "ym2612"
    },
    {
      "channel": 4,
      "note": 92,
      "start": 97.4407,
      "duration": 0.0153,
      "velocity": 99,
      "chip": "ym2612"
    },
    {
      "channel": 1,
      "note": 78,
      "start": 97.4489,
      "duration": 0.0696,
      "velocity": 98,
      "chip": "ym2612"
    },
    {
      "channel": 3,
      "note": 92,
      "start": 97.4497,
      "duration": 0.0144,
      "velocity": 99,
      "chip": "ym2612"
    },
    {
      "channel": 4,
      "note": 85,
      "start": 97.4583,
      "duration": 0.0156,
      "velocity": 99,
      "chip": "ym2612"
    },
    {
      "channel": 3,
      "note": 85,
      "start": 97.4674,
      "duration": 0.0147,
      "velocity": 99,
      "chip": "ym2612"
    },
    {
      "channel": 4,
      "note": 93,
      "start": 97.4763,
      "duration": 0.0174,
      "velocity": 99,
      "chip": "ym2612"
    },
    {
      "channel": 0,
      "note": 80,
      "start": 97.4775,
      "duration": 0.1438,
      "velocity": 98,
      "chip": "ym2612"
    },
    {
      "channel": 2,
      "note": 52,
      "start": 97.4843,
      "duration": 0.0697,
      "velocity": 91,
      "chip": "ym2612"
    },
    {
      "channel": 3,
      "note": 93,
      "start": 97.485,
      "duration": 0.0173,
      "velocity": 99,
      "chip": "ym2612"
    },
    {
      "channel": 4,
      "note": 92,
      "start": 97.4965,
      "duration": 0.0148,
      "velocity": 99,
      "chip": "ym2612"
    },
    {
      "channel": 3,
      "note": 92,
      "start": 97.5049,
      "duration": 0.0141,
      "velocity": 99,
      "chip": "ym2612"
    },
    {
      "channel": 4,
      "note": 88,
      "start": 97.5135,
      "duration": 0.0152,
      "velocity": 99,
      "chip": "ym2612"
    },
    {
      "channel": 1,
      "note": 80,
      "start": 97.5216,
      "duration": 0.1447,
      "velocity": 98,
      "chip": "ym2612"
    },
    {
      "channel": 3,
      "note": 88,
      "start": 97.5225,
      "duration": 0.0142,
      "velocity": 99,
      "chip": "ym2612"
    },
    {
      "channel": 4,
      "note": 95,
      "start": 97.5311,
      "duration": 0.0154,
      "velocity": 99,
      "chip": "ym2612"
    },
    {
      "channel": 3,
      "note": 95,
      "start": 97.54,
      "duration": 0.0144,
      "velocity": 99,
      "chip": "ym2612"
    },
    {
      "channel": 4,
      "note": 92,
      "start": 97.5487,
      "duration": 0.0152,
      "velocity": 99,
      "chip": "ym2612"
    },
    {
      "channel": 2,
      "note": 52,
      "start": 97.5569,
      "duration": 0.0717,
      "velocity": 91,
      "chip": "ym2612"
    },
    {
      "channel": 3,
      "note": 92,
      "start": 97.5575,
      "duration": 0.0169,
      "velocity": 99,
      "chip": "ym2612"
    },
    {
      "channel": 4,
      "note": 88,
      "start": 97.5671,
      "duration": 0.0178,
      "velocity": 99,
      "chip": "ym2612"
    },
    {
      "channel": 3,
      "note": 88,
      "start": 97.578,
      "duration": 0.0151,
      "velocity": 99,
      "chip": "ym2612"
    },
    {
      "channel": 4,
      "note": 95,
      "start": 97.5872,
      "duration": 0.0151,
      "velocity": 99,
      "chip": "ym2612"
    },
    {
      "channel": 3,
      "note": 95,
      "start": 97.5957,
      "duration": 0.0148,
      "velocity": 99,
      "chip": "ym2612"
    },
    {
      "channel": 4,
      "note": 92,
      "start": 97.6045,
      "duration": 0.0159,
      "velocity": 99,
      "chip": "ym2612"
    },
    {
      "channel": 3,
      "note": 92,
      "start": 97.6138,
      "duration": 0.0152,
      "velocity": 99,
      "chip": "ym2612"
    },
    {
      "channel": 4,
      "note": 88,
      "start": 97.6227,
      "duration": 0.0155,
      "velocity": 99,
      "chip": "ym2612"
    },
    {
      "channel": 0,
      "note": 71,
      "start": 97.6239,
      "duration": 0.0714,
      "velocity": 98,
      "chip": "ym2612"
    },
    {
      "channel": 2,
      "note": 52,
      "start": 97.6309,
      "duration": 0.0714,
      "velocity": 91,
      "chip": "ym2612"
    },
    {
      "channel": 3,
      "note": 88,
      "start": 97.6314,
      "duration": 0.0161,
      "velocity": 99,
      "chip": "ym2612"
    },
    {
      "channel": 4,
      "note": 95,
      "start": 97.6406,
      "duration": 0.0184,
      "velocity": 99,
      "chip": "ym2612"
    },
    {
      "channel": 3,
      "note": 95,
      "start": 97.6515,
      "duration": 0.0154,
      "velocity": 99,
      "chip": "ym2612"
    },
    {
      "channel": 4,
      "note": 92,
      "start": 97.6612,
      "duration": 0.0147,
      "velocity": 99,
      "chip": "ym2612"
    },
    {
      "channel": 1,
      "note": 71,
      "start": 97.6688,
      "duration": 0.0703,
      "velocity": 98,
      "chip": "ym2612"
    },
    {
      "channel": 3,
      "note": 92,
      "start": 97.6697,
      "duration": 0.0144,
      "velocity": 99,
      "chip": "ym2612"
    },
    {
      "channel": 4,
      "note": 88,
      "start": 97.6781,
      "duration": 0.0162,
      "velocity": 99,
      "chip": "ym2612"
    },
    {
      "channel": 3,
      "note": 88,
      "start": 97.6875,
      "duration": 0.0151,
      "velocity": 99,
      "chip": "ym2612"
    },
    {
      "channel": 4,
      "note": 95,
      "start": 97.6967,
      "duration": 0.0149,
      "velocity": 99,
      "chip": "ym2612"
    },
    {
      "channel": 0,
      "note": 74,
      "start": 97.6979,
      "duration": 0.0707,
      "velocity": 98,
      "chip": "ym2612"
    },
    {
      "channel": 2,
      "note": 52,
      "start": 97.7048,
      "duration": 0.0716,
      "velocity": 91,
      "chip": "ym2612"
    },
    {
      "channel": 3,
      "note": 95,
      "start": 97.7053,
      "duration": 0.0139,
      "velocity": 99,
      "chip": "ym2612"
    },
    {
      "channel": 4,
      "note": 92,
      "start": 97.7138,
      "duration": 0.0178,
      "velocity": 99,
      "chip": "ym2612"
    },
    {
      "channel": 3,
      "note": 92,
      "start": 97.7229,
      "duration": 0.0168,
      "velocity": 99,
      "chip": "ym2612"
    },
    {
      "channel": 4,
      "note": 88,
      "start": 97.7341,
      "duration": 0.015,
      "velocity": 99,
      "chip": "ym2612"
    },
    {
      "channel": 1,
      "note": 74,
      "start": 97.7416,
      "duration": 0.0718,
      "velocity": 98,
      "chip": "ym2612"
    },
    {
      "channel": 3,
      "note": 88,
      "start": 97.7424,
      "duration": 0.0147,
      "velocity": 99,
      "chip": "ym2612"
    },
    {
      "channel": 4,
      "note": 95,
      "start": 97.7513,
      "duration": 0.0164,
      "velocity": 99,
      "chip": "ym2612"
    },
    {
      "channel": 3,
      "note": 95,
      "start": 97.7604,
      "duration": 0.0162,
      "velocity": 99,
      "chip": "ym2612"
    },
    {
      "channel": 4,
      "note": 92,
      "start": 97.7701,
      "duration": 0.0158,
      "velocity": 99,
      "chip": "ym2612"
    },
    {
      "channel": 0,
      "note": 73,
      "start": 97.7717,
      "duration": 0.1445,
      "velocity": 98,
      "chip": "ym2612"
    },
    {
      "channel": 2,
      "note": 50,
      "start": 97.7788,
      "duration": 0.0704,
      "velocity": 91,
      "chip": "ym2612"
    },
    {
      "channel": 3,
      "note": 92,
      "start": 97.7794,
      "duration": 0.0144,
      "velocity": 99,
      "chip": "ym2612"
    },
    {
      "channel": 4,
      "note": 93,
      "start": 97.788,
      "duration": 0.0166,
      "velocity": 99,
      "chip": "ym2612"
    },
    {
      "channel": 3,
      "note": 93,
      "start": 97.7972,
      "duration": 0.0167,
      "velocity": 99,
      "chip": "ym2612"
    },
    {
      "channel": 4,
      "note": 90,
      "start": 97.8078,
      "duration": 0.0155,
      "velocity": 99,
      "chip": "ym2612"
    },
    {
      "channel": 1,
      "note": 73,
      "start": 97.8161,
      "duration": 0.1414,
      "velocity": 98,
      "chip": "ym2612"
    },
    {
      "channel": 3,
      "note": 90,
      "start": 97.817,
      "duration": 0.0144,
      "velocity": 99,
      "chip": "ym2612"
    },
    {
      "channel": 4,
      "note": 85,
      "start": 97.8258,
      "duration": 0.0155,
      "velocity": 99,
      "chip": "ym2612"
    },
    {
      "channel": 3,
      "note": 85,
      "start": 97.8348,
      "duration": 0.0148,
      "velocity": 99,
      "chip": "ym2612"
    },
    {
      "channel": 4,
      "note": 93,
      "start": 97.8439,
      "duration": 0.0152,
      "velocity": 99,
      "chip": "ym2612"
    },
    {
      "channel": 2,
      "note": 50,
      "start": 97.8521,
      "duration": 0.0714,
      "velocity": 91,
      "chip": "ym2612"
    },
    {
      "channel": 3,
      "note": 93,
      "start": 97.8527,
      "duration": 0.0145,
      "velocity": 99,
      "chip": "ym2612"
    },
    {
      "channel": 4,
      "note": 90,
      "start": 97.8617,
      "duration": 0.0154,
      "velocity": 99,
      "chip": "ym2612"
    },
    {
      "channel": 3,
      "note": 90,
      "start": 97.8706,
      "duration": 0.0171,
      "velocity": 99,
      "chip": "ym2612"
    },
    {
      "channel": 4,
      "note": 85,
      "start": 97.8797,
      "duration": 0.0179,
      "velocity": 99,
      "chip": "ym2612"
    },
    {
      "channel": 3,
      "note": 85,
      "start": 97.891,
      "duration": 0.0144,
      "velocity": 99,
      "chip": "ym2612"
    },
    {
      "channel": 4,
      "note": 93,
      "start": 97.8999,
      "duration": 0.0153,
      "velocity": 99,
      "chip": "ym2612"
    },
    {
      "channel": 3,
      "note": 93,
      "start": 97.9083,
      "duration": 0.0156,
      "velocity": 99,
      "chip": "ym2612"
    },
    {
      "channel": 4,
      "note": 90,
      "start": 97.9175,
      "duration": 0.0151,
      "velocity": 99,
      "chip": "ym2612"
    },
    {
      "channel": 0,
      "note": 69,
      "start": 97.9187,
      "duration": 0.0522,
      "velocity": 98,
      "chip": "ym2612"
    },
    {
      "channel": 2,
      "note": 50,
      "start": 97.9257,
      "duration": 0.0686,
      "velocity": 91,
      "chip": "ym2612"
    },
    {
      "channel": 3,
      "note": 90,
      "start": 97.9263,
      "duration": 0.0142,
      "velocity": 99,
      "chip": "ym2612"
    },
    {
      "channel": 4,
      "note": 85,
      "start": 97.9349,
      "duration": 0.0152,
      "velocity": 99,
      "chip": "ym2612"
    },
    {
      "channel": 3,
      "note": 85,
      "start": 97.9437,
      "duration": 0.0144,
      "velocity": 99,
      "chip": "ym2612"
    },
    {
      "channel": 4,
      "note": 93,
      "start": 97.9522,
      "duration": 0.0177,
      "velocity": 99,
      "chip": "ym2612"
    },
    {
      "channel": 1,
      "note": 69,
      "start": 97.9612,
      "duration": 0.05,
      "velocity": 98,
      "chip": "ym2612"
    },
    {
      "channel": 3,
      "note": 93,
      "start": 97.9627,
      "duration": 0.0151,
      "velocity": 99,
      "chip": "ym2612"
    },
    {
      "channel": 4,
      "note": 90,
      "start": 97.9721,
      "duration": 0.0146,
      "velocity": 99,
      "chip": "ym2612"
    },
    {
      "channel": 0,
      "note": 71,
      "start": 97.9732,
      "duration": 0.0502,
      "velocity": 98,
      "chip": "ym2612"
    },
    {
      "channel": 3,
      "note": 90,
      "start": 97.9804,
      "duration": 0.0142,
      "velocity": 99,
      "chip": "ym2612"
    },
    {
      "channel": 4,
      "note": 85,
      "start": 97.989,
      "duration": 0.0152,
      "velocity": 99,
      "chip": "ym2612"
    },
    {
      "channel": 2,
      "note": 50,
      "start": 97.9974,
      "duration": 0.0718,
      "velocity": 91,
      "chip": "ym2612"
    },
    {
      "channel": 3,
      "note": 85,
      "start": 97.9979,
      "duration": 0.0139,
      "velocity": 99,
      "chip": "ym2612"
    },
    {
      "channel": 4,
      "note": 93,
      "start": 98.0063,
      "duration": 0.0162,
      "velocity": 99,
      "chip": "ym2612"
    },
    {
      "channel": 1,
      "note": 71,
      "start": 98.0147,
      "duration": 0.0541,
      "velocity": 98,
      "chip": "ym2612"
    },
    {
      "channel": 3,
      "note": 93,
      "start": 98.0155,
      "duration": 0.0153,
      "velocity": 99,
      "chip": "ym2612"
    },
    {
      "channel": 4,
      "note": 90,
      "start": 98.0247,
      "duration": 0.0175,
      "velocity": 99,
      "chip": "ym2612"
    },
    {
      "channel": 0,
      "note": 73,
      "start": 98.0259,
      "duration": 0.0361,
      "velocity": 98,
      "chip": "ym2612"
    },
    {
      "channel": 3,
      "note": 90,
      "start": 98.0335,
      "duration": 0.0176,
      "velocity": 99,
      "chip": "ym2612"
    },
    {
      "channel": 4,
      "note": 85,
      "start": 98.0448,
      "duration": 0.0162,
      "velocity": 99,
      "chip": "ym2612"
    },
    {
      "channel": 3,
      "note": 85,
      "start": 98.0542,
      "duration": 0.0153,
      "velocity": 99,
      "chip": "ym2612"
    },
    {
      "channel": 4,
      "note": 93,
      "start": 98.0633,
      "duration": 0.0163,
      "velocity": 99,
      "chip": "ym2612"
    },
    {
      "channel": 0,
      "note": 71,
      "start": 98.0648,
      "duration": 0.0334,
      "velocity": 98,
      "chip": "ym2612"
    },
    {
      "channel": 1,
      "note": 73,
      "start": 98.0717,
      "duration": 0.0332,
      "velocity": 98,
      "chip": "ym2612"
    },
    {
      "channel": 2,
      "note": 49,
      "start": 98.0722,
      "duration": 0.0713,
      "velocity": 91,
      "chip": "ym2612"
    },
    {
      "channel": 3,
      "note": 93,
      "start": 98.0728,
      "duration": 0.0147,
      "velocity": 99,
      "chip": "ym2612"
    },
    {
      "channel": 4,
      "note": 92,
      "start": 98.0817,
      "duration": 0.0155,
      "velocity": 99,
      "chip": "ym2612"
    },
    {
      "channel": 3,
      "note": 92,
      "start": 98.0906,
      "duration": 0.0148,
      "velocity": 99,
      "chip": "ym2612"
    },
    {
      "channel": 4,
      "note": 90,
      "start": 98.0995,
      "duration": 0.0159,
      "velocity": 99,
      "chip": "ym2612"
    },
    {
      "channel": 1,
      "note": 71,
      "start": 98.1081,
      "duration": 0.0352,
      "velocity": 98,
      "chip": "ym2612"
    },
    {
      "channel": 3,
      "note": 90,
      "start": 98.1089,
      "duration": 0.0169,
      "velocity": 99,
      "chip": "ym2612"
    },
    {
      "channel": 4,
      "note": 89,
      "start": 98.1188,
      "duration": 0.0163,
      "velocity": 99,
      "chip": "ym2612"
    },
    {
      "channel": 0,
      "note": 71,
      "start": 98.12,
      "duration": 0.0164,
      "velocity": 98,
      "chip": "ym2612"
    },
    {
      "channel": 3,
      "note": 89,
      "start": 98.1286,
      "duration": 0.0152,
      "velocity": 99,
      "chip": "ym2612"
    },
    {
      "channel": 4,
      "note": 92,
      "start": 98.1376,
      "duration": 0.0159,
      "velocity": 99,
      "chip": "ym2612"
    },
    {
      "channel": 0,
      "note": 73,
      "start": 98.1392,
      "duration": 0.1068,
      "velocity": 98,
      "chip": "ym2612"
    },
    {
      "channel": 2,
      "note": 49,
      "start": 98.1467,
      "duration": 0.0709,
      "velocity": 91,
      "chip": "ym2612"
    },
    {
      "channel": 3,
      "note": 92,
      "start": 98.1473,
      "duration": 0.0139,
      "velocity": 99,
      "chip": "ym2612"
    },
    {
      "channel": 4,
      "note": 90,
      "start": 98.1557,
      "duration": 0.0154,
      "velocity": 99,
      "chip": "ym2612"
    },
    {
      "channel": 1,
      "note": 71,
      "start": 98.164,
      "duration": 0.0145,
      "velocity": 98,
      "chip": "ym2612"
    },
    {
      "channel": 3,
      "note": 90,
      "start": 98.1648,
      "duration": 0.0142,
      "velocity": 99,
      "chip": "ym2612"
    },
    {
      "channel": 4,
      "note": 89,
      "start": 98.1736,
      "duration": 0.0155,
      "velocity": 99,
      "chip": "ym2612"
    },
    {
      "channel": 1,
      "note": 73,
      "start": 98.1816,
      "duration": 0.071,
      "velocity": 98,
      "chip": "ym2612"
    },
    {
      "channel": 3,
      "note": 89,
      "start": 98.1824,
      "duration": 0.0166,
      "velocity": 99,
      "chip": "ym2612"
    },
    {
      "channel": 4,
      "note": 92,
      "start": 98.1912,
      "duration": 0.0188,
      "velocity": 99,
      "chip": "ym2612"
    },
    {
      "channel": 3,
      "note": 92,
      "start": 98.2031,
      "duration": 0.0149,
      "velocity": 99,
      "chip": "ym2612"
    },
    {
      "channel": 4,
      "note": 90,
      "start": 98.2123,
      "duration": 0.0149,
      "velocity": 99,
      "chip": "ym2612"
    },
    {
      "channel": 2,
      "note": 49,
      "start": 98.2198,
      "duration": 0.0711,
      "velocity": 91,
      "chip": "ym2612"
    },
    {
      "channel": 3,
      "note": 90,
      "start": 98.2204,
      "duration": 0.0145,
      "velocity": 99,
      "chip": "ym2612"
    },
    {
      "channel": 4,
      "note": 89,
      "start": 98.2294,
      "duration": 0.0156,
      "velocity": 99,
      "chip": "ym2612"
    },
    {
      "channel": 3,
      "note": 89,
      "start": 98.2383,
      "duration": 0.0148,
      "velocity": 99,
      "chip": "ym2612"
    },
    {
      "channel": 4,
      "note": 92,
      "start": 98.2473,
      "duration": 0.0153,
      "velocity": 99,
      "chip": "ym2612"
    },
    {
      "channel": 0,
      "note": 63,
      "start": 98.2485,
      "duration": 0.0151,
      "velocity": 98,
      "chip": "ym2612"
    },
    {
      "channel": 1,
      "note": 73,
      "start": 98.2551,
      "duration": 0.0149,
      "velocity": 98,
      "chip": "ym2612"
    },
    {
      "channel": 3,
      "note": 92,
      "start": 98.2559,
      "duration": 0.0147,
      "velocity": 99,
      "chip": "ym2612"
    },
    {
      "channel": 4,
      "note": 90,
      "start": 98.2649,
      "duration": 0.018,
      "velocity": 99,
      "chip": "ym2612"
    },
    {
      "channel": 0,
      "note": 65,
      "start": 98.2661,
      "duration": 0.0177,
      "velocity": 98,
      "chip": "ym2612"
    },
    {
      "channel": 1,
      "note": 63,
      "start": 98.2738,
      "duration": 0.0169,
      "velocity": 98,
      "chip": "ym2612"
    },
    {
      "channel": 3,
      "note": 90,
      "start": 98.2751,
      "duration": 0.0161,
      "velocity": 99,
      "chip": "ym2612"
    },
    {
      "channel": 4,
      "note": 89,
      "start": 98.2851,
      "duration": 0.017,
      "velocity": 99,
      "chip": "ym2612"
    },
    {
      "channel": 0,
      "note": 66,
      "start": 98.2863,
      "duration": 0.0167,
      "velocity": 98,
      "chip": "ym2612"
    },
    {
      "channel": 1,
      "note": 65,
      "start": 98.2944,
      "duration": 0.0155,
      "velocity": 98,
      "chip": "ym2612"
    },
    {
      "channel": 2,
      "note": 49,
      "start": 98.2949,
      "duration": 0.0717,
      "velocity": 91,
      "chip": "ym2612"
    },
    {
      "channel": 3,
      "note": 89,
      "start": 98.2954,
      "duration": 0.015,
      "velocity": 99,
      "chip": "ym2612"
    },
    {
      "channel": 4,
      "note": 92,
      "start": 98.3043,
      "duration": 0.0155,
      "velocity": 99,
      "chip": "ym2612"
    },
    {
      "channel": 0,
      "note": 68,
      "start": 98.3055,
      "duration": 0.0152,
      "velocity": 98,
      "chip": "ym2612"
    },
    {
      "channel": 1,
      "note": 66,
      "start": 98.3127,
      "duration": 0.0145,
      "velocity": 98,
      "chip": "ym2612"
    },
    {
      "channel": 3,
      "note": 92,
      "start": 98.3135,
      "duration": 0.0142,
      "velocity": 99,
      "chip": "ym2612"
    },
    {
      "channel": 4,
      "note": 90,
      "start": 98.322,
      "duration": 0.0154,
      "velocity": 99,
      "chip": "ym2612"
    },
    {
      "channel": 0,
      "note": 69,
      "start": 98.3232,
      "duration": 0.0152,
      "velocity": 98,
      "chip": "ym2612"
    },
    {
      "channel": 1,
      "note": 68,
      "start": 98.33,
      "duration": 0.0152,
      "velocity": 98,
      "chip": "ym2612"
    },
    {
      "channel": 3,
      "note": 90,
      "start": 98.3307,
      "duration": 0.015,
      "velocity": 99,
      "chip": "ym2612"
    },
    {
      "channel": 4,
      "note": 89,
      "start": 98.3396,
      "duration": 0.0183,
      "velocity": 99,
      "chip": "ym2612"
    },
    {
      "channel": 0,
      "note": 71,
      "start": 98.3407,
      "duration": 0.018,
      "velocity": 98,
      "chip": "ym2612"
    },
    {
      "channel": 1,
      "note": 69,
      "start": 98.3483,
      "duration": 0.018,
      "velocity": 98,
      "chip": "ym2612"
    },
    {
      "channel": 3,
      "note": 89,
      "start": 98.3491,
      "duration": 0.0178,
      "velocity": 99,
      "chip": "ym2612"
    },
    {
      "channel": 4,
      "note": 92,
      "start": 98.3607,
      "duration": 0.0211,
      "velocity": 99,
      "chip": "ym2612"
    },
    {
      "channel": 0,
      "note": 73,
      "start": 98.3622,
      "duration": 0.2189,
      "velocity": 98,
      "chip": "ym2612"
    },
    {
      "channel": 1,
      "note": 71,
      "start": 98.3705,
      "duration": 0.0362,
      "velocity": 98,
      "chip": "ym2612"
    },
    {
      "channel": 2,
      "note": 54,
      "start": 98.3743,
      "duration": 0.0709,
      "velocity": 91,
      "chip": "ym2612"
    },
    {
      "channel": 3,
      "note": 92,
      "start": 98.375,
      "duration": 0.0144,
      "velocity": 99,
      "chip": "ym2612"
    },
    {
      "channel": 4,
      "note": 93,
      "start": 98.3839,
      "duration": 0.0154,
      "velocity": 99,
      "chip": "ym2612"
    },
    {
      "channel": 3,
      "note": 93,
      "start": 98.3926,
      "duration": 0.0147,
      "velocity": 99,
      "chip": "ym2612"
    },
    {
      "channel": 4,
      "note": 92,
      "start": 98.4014,
      "duration": 0.0158,
      "velocity": 99,
      "chip": "ym2612"
    },
    {
      "channel": 1,
      "note": 73,
      "start": 98.41,
      "duration": 0.2149,
      "velocity": 98,
      "chip": "ym2612"
    },
    {
      "channel": 3,
      "note": 92,
      "start": 98.4109,
      "duration": 0.0144,
      "velocity": 99,
      "chip": "ym2612"
    },
    {
      "channel": 4,
      "note": 85,
      "start": 98.4194,
      "duration": 0.0156,
      "velocity": 99,
      "chip": "ym2612"
    },
    {
      "channel": 3,
      "note": 85,
      "start": 98.4286,
      "duration": 0.017,
      "velocity": 99,
      "chip": "ym2612"
    },
    {
      "channel": 4,
      "note": 93,
      "start": 98.4384,
      "duration": 0.0168,
      "velocity": 99,
      "chip": "ym2612"
    },
    {
      "channel": 2,
      "note": 54,
      "start": 98.4483,
      "duration": 0.0683,
      "velocity": 91,
      "chip": "ym2612"
    },
    {
      "channel": 3,
      "note": 93,
      "start": 98.4488,
      "duration": 0.0141,
      "velocity": 99,
      "chip": "ym2612"
    },
    {
      "channel": 4,
      "note": 92,
      "start": 98.4574,
      "duration": 0.0149,
      "velocity": 99,
      "chip": "ym2612"
    },
    {
      "channel": 3,
      "note": 92,
      "start": 98.4659,
      "duration": 0.0147,
      "velocity": 99,
      "chip": "ym2612"
    },
    {
      "channel": 4,
      "note": 85,
      "start": 98.4749,
      "duration": 0.0151,
      "velocity": 99,
      "chip": "ym2612"
    },
    {
      "channel": 3,
      "note": 85,
      "start": 98.4835,
      "duration": 0.0144,
      "velocity": 99,
      "chip": "ym2612"
    },
    {
      "channel": 4,
      "note": 93,
      "start": 98.4922,
      "duration": 0.0155,
      "velocity": 99,
      "chip": "ym2612"
    },
    {
      "channel": 3,
      "note": 93,
      "start": 98.5011,
      "duration": 0.0161,
      "velocity": 99,
      "chip": "ym2612"
    },
    {
      "channel": 4,
      "note": 92,
      "start": 98.51,
      "duration": 0.018,
      "velocity": 99,
      "chip": "ym2612"
    },
    {
      "channel": 2,
      "note": 54,
      "start": 98.5202,
      "duration": 0.0681,
      "velocity": 91,
      "chip": "ym2612"
    },
    {
      "channel": 3,
      "note": 92,
      "start": 98.5208,
      "duration": 0.015,
      "velocity": 99,
      "chip": "ym2612"
    },
    {
      "channel": 4,
      "note": 85,
      "start": 98.5302,
      "duration": 0.0145,
      "velocity": 99,
      "chip": "ym2612"
    },
    {
      "channel": 3,
      "note": 85,
      "start": 98.5382,
      "duration": 0.0147,
      "velocity": 99,
      "chip": "ym2612"
    },
    {
      "channel": 4,
      "note": 93,
      "start": 98.5469,
      "duration": 0.0154,
      "velocity": 99,
      "chip": "ym2612"
    },
    {
      "channel": 3,
      "note": 93,
      "start": 98.5559,
      "duration": 0.0144,
      "velocity": 99,
      "chip": "ym2612"
    },
    {
      "channel": 4,
      "note": 92,
      "start": 98.5646,
      "duration": 0.0155,
      "velocity": 99,
      "chip": "ym2612"
    },
    {
      "channel": 3,
      "note": 92,
      "start": 98.5735,
      "duration": 0.0152,
      "velocity": 99,
      "chip": "ym2612"
    },
    {
      "channel": 4,
      "note": 85,
      "start": 98.5824,
      "duration": 0.0178,
      "velocity": 99,
      "chip": "ym2612"
    },
    {
      "channel": 0,
      "note": 78,
      "start": 98.5836,
      "duration": 0.0702,
      "velocity": 98,
      "chip": "ym2612"
    },
    {
      "channel": 2,
      "note": 54,
      "start": 98.591,
      "duration": 0.0697,
      "velocity": 91,
      "chip": "ym2612"
    },
    {
      "channel": 3,
      "note": 85,
      "start": 98.5918,
      "duration": 0.0166,
      "velocity": 99,
      "chip": "ym2612"
    },
    {
      "channel": 4,
      "note": 93,
      "start": 98.6025,
      "duration": 0.0152,
      "velocity": 99,
      "chip": "ym2612"
    },
    {
      "channel": 3,
      "note": 93,
      "start": 98.6109,
      "duration": 0.0145,
      "velocity": 99,
      "chip": "ym2612"
    },
    {
      "channel": 4,
      "note": 92,
      "start": 98.6199,
      "duration": 0.0156,
      "velocity": 99,
      "chip": "ym2612"
    },
    {
      "channel": 1,
      "note": 78,
      "start": 98.628,
      "duration": 0.0696,
      "velocity": 98,
      "chip": "ym2612"
    },
    {
      "channel": 3,
      "note": 92,
      "start": 98.6288,
      "duration": 0.0143,
      "velocity": 99,
      "chip": "ym2612"
    },
    {
      "channel": 4,
      "note": 85,
      "start": 98.6376,
      "duration": 0.0153,
      "velocity": 99,
      "chip": "ym2612"
    },
    {
      "channel": 3,
      "note": 85,
      "start": 98.6464,
      "duration": 0.0146,
      "velocity": 99,
      "chip": "ym2612"
    },
    {
      "channel": 4,
      "note": 93,
      "start": 98.6551,
      "duration": 0.0168,
      "velocity": 99,
      "chip": "ym2612"
    },
    {
      "channel": 0,
      "note": 80,
      "start": 98.6563,
      "duration": 0.0528,
      "velocity": 98,
      "chip": "ym2612"
    },
    {
      "channel": 2,
      "note": 52,
      "start": 98.6634,
      "duration": 0.07,
      "velocity": 91,
      "chip": "ym2612"
    },
    {
      "channel": 3,
      "note": 93,
      "start": 98.664,
      "duration": 0.0168,
      "velocity": 99,
      "chip": "ym2612"
    },
    {
      "channel": 4,
      "note": 92,
      "start": 98.6749,
      "duration": 0.0151,
      "velocity": 99,
      "chip": "ym2612"
    },
    {
      "channel": 3,
      "note": 92,
      "start": 98.6836,
      "duration": 0.0145,
      "velocity": 99,
      "chip": "ym2612"
    },
    {
      "channel": 4,
      "note": 88,
      "start": 98.6922,
      "duration": 0.0159,
      "velocity": 99,
      "chip": "ym2612"
    },
    {
      "channel": 1,
      "note": 80,
      "start": 98.7007,
      "duration": 0.0526,
      "velocity": 98,
      "chip": "ym2612"
    },
    {
      "channel": 3,
      "note": 88,
      "start": 98.7015,
      "duration": 0.0146,
      "velocity": 99,
      "chip": "ym2612"
    },
    {
      "channel": 4,
      "note": 95,
      "start": 98.7104,
      "duration": 0.0153,
      "velocity": 99,
      "chip": "ym2612"
    },
    {
      "channel": 0,
      "note": 81,
      "start": 98.7116,
      "duration": 0.015,
      "velocity": 98,
      "chip": "ym2612"
    },
    {
      "channel": 3,
      "note": 95,
      "start": 98.7193,
      "duration": 0.0144,
      "velocity": 99,
      "chip": "ym2612"
    },
    {
      "channel": 4,
      "note": 92,
      "start": 98.7279,
      "duration": 0.0154,
      "velocity": 99,
      "chip": "ym2612"
    },
    {
      "channel": 0,
      "note": 83,
      "start": 98.7291,
      "duration": 0.1448,
      "velocity": 98,
      "chip": "ym2612"
    },
    {
      "channel": 2,
      "note": 52,
      "start": 98.7362,
      "duration": 0.0714,
      "velocity": 91,
      "chip": "ym2612"
    },
    {
      "channel": 3,
      "note": 92,
      "start": 98.7368,
      "duration": 0.017,
      "velocity": 99,
      "chip": "ym2612"
    },
    {
      "channel": 4,
      "note": 88,
      "start": 98.746,
      "duration": 0.0185,
      "velocity": 99,
      "chip": "ym2612"
    },
    {
      "channel": 1,
      "note": 81,
      "start": 98.7573,
      "duration": 0.0146,
      "velocity": 98,
      "chip": "ym2612"
    },
    {
      "channel": 3,
      "note": 88,
      "start": 98.7581,
      "duration": 0.0144,
      "velocity": 99,
      "chip": "ym2612"
    },
    {
      "channel": 4,
      "note": 95,
      "start": 98.767,
      "duration": 0.0148,
      "velocity": 99,
      "chip": "ym2612"
    },
    {
      "channel": 1,
      "note": 83,
      "start": 98.7746,
      "duration": 0.143,
      "velocity": 98,
      "chip": "ym2612"
    },
    {
      "channel": 3,
      "note": 95,
      "start": 98.7754,
      "duration": 0.0144,
      "velocity": 99,
      "chip": "ym2612"
    },
    {
      "channel": 4,
      "note": 92,
      "start": 98.7843,
      "duration": 0.0154,
      "velocity": 99,
      "chip": "ym2612"
    },
    {
      "channel": 3,
      "note": 92,
      "start": 98.7932,
      "duration": 0.0148,
      "velocity": 99,
      "chip": "ym2612"
    },
    {
      "channel": 4,
      "note": 88,
      "start": 98.8022,
      "duration": 0.0155,
      "velocity": 99,
      "chip": "ym2612"
    },
    {
      "channel": 2,
      "note": 52,
      "start": 98.8107,
      "duration": 0.07,
      "velocity": 91,
      "chip": "ym2612"
    },
    {
      "channel": 3,
      "note": 88,
      "start": 98.8113,
      "duration": 0.0147,
      "velocity": 99,
      "chip": "ym2612"
    },
    {
      "channel": 4,
      "note": 95,
      "start": 98.82,
      "duration": 0.0183,
      "velocity": 99,
      "chip": "ym2612"
    },
    {
      "channel": 3,
      "note": 95,
      "start": 98.8307,
      "duration": 0.0153,
      "velocity": 99,
      "chip": "ym2612"
    },
    {
      "channel": 4,
      "note": 92,
      "start": 98.8405,
      "duration": 0.0144,
      "velocity": 99,
      "chip": "ym2612"
    },
    {
      "channel": 3,
      "note": 92,
      "start": 98.8484,
      "duration": 0.0148,
      "velocity": 99,
      "chip": "ym2612"
    },
    {
      "channel": 4,
      "note": 88,
      "start": 98.8572,
      "duration": 0.0158,
      "velocity": 99,
      "chip": "ym2612"
    },
    {
      "channel": 3,
      "note": 88,
      "start": 98.8663,
      "duration": 0.0148,
      "velocity": 99,
      "chip": "ym2612"
    },
    {
      "channel": 4,
      "note": 95,
      "start": 98.8753,
      "duration": 0.0148,
      "velocity": 99,
      "chip": "ym2612"
    },
    {
      "channel": 0,
      "note": 81,
      "start": 98.8764,
      "duration": 0.0518,
      "velocity": 98,
      "chip": "ym2612"
    },
    {
      "channel": 2,
      "note": 52,
      "start": 98.8831,
      "duration": 0.0698,
      "velocity": 91,
      "chip": "ym2612"
    },
    {
      "channel": 3,
      "note": 95,
      "start": 98.8837,
      "duration": 0.0142,
      "velocity": 99,
      "chip": "ym2612"
    },
    {
      "channel": 4,
      "note": 92,
      "start": 98.8923,
      "duration": 0.0176,
      "velocity": 99,
      "chip": "ym2612"
    },
    {
      "channel": 3,
      "note": 92,
      "start": 98.9011,
      "duration": 0.0171,
      "velocity": 99,
      "chip": "ym2612"
    },
    {
      "channel": 4,
      "note": 88,
      "start": 98.9126,
      "duration": 0.0148,
      "velocity": 99,
      "chip": "ym2612"
    },
    {
      "channel": 1,
      "note": 81,
      "start": 98.9202,
      "duration": 0.0507,
      "velocity": 98,
      "chip": "ym2612"
    },
    {
      "channel": 3,
      "note": 88,
      "start": 98.921,
      "duration": 0.0144,
      "velocity": 99,
      "chip": "ym2612"
    },
    {
      "channel": 4,
      "note": 95,
      "start": 98.9296,
      "duration": 0.0151,
      "velocity": 99,
      "chip": "ym2612"
    },
    {
      "channel": 0,
      "note": 80,
      "start": 98.9308,
      "duration": 0.0149,
      "velocity": 98,
      "chip": "ym2612"
    },
    {
      "channel": 3,
      "note": 95,
      "start": 98.9384,
      "duration": 0.0149,
      "velocity": 99,
      "chip": "ym2612"
    },
    {
      "channel": 4,
      "note": 92,
      "start": 98.9471,
      "duration": 0.0163,
      "velocity": 99,
      "chip": "ym2612"
    },
    {
      "channel": 0,
      "note": 78,
      "start": 98.9483,
      "duration": 0.2203,
      "velocity": 98,
      "chip": "ym2612"
    },
    {
      "channel": 2,
      "note": 50,
      "start": 98.9556,
      "duration": 0.0711,
      "velocity": 91,
      "chip": "ym2612"
    },
    {
      "channel": 3,
      "note": 92,
      "start": 98.9562,
      "duration": 0.0152,
      "velocity": 99,
      "chip": "ym2612"
    },
    {
      "channel": 4,
      "note": 93,
      "start": 98.9655,
      "duration": 0.0161,
      "velocity": 99,
      "chip": "ym2612"
    },
    {
      "channel": 1,
      "note": 80,
      "start": 98.9742,
      "duration": 0.0171,
      "velocity": 98,
      "chip": "ym2612"
    },
    {
      "channel": 3,
      "note": 93,
      "start": 98.975,
      "duration": 0.0168,
      "velocity": 99,
      "chip": "ym2612"
    },
    {
      "channel": 4,
      "note": 90,
      "start": 98.985,
      "duration": 0.0164,
      "velocity": 99,
      "chip": "ym2612"
    },
    {
      "channel": 1,
      "note": 78,
      "start": 98.9938,
      "duration": 0.217,
      "velocity": 98,
      "chip": "ym2612"
    },
    {
      "channel": 3,
      "note": 90,
      "start": 98.9946,
      "duration": 0.0145,
      "velocity": 99,
      "chip": "ym2612"
    },
    {
      "channel": 4,
      "note": 85,
      "start": 99.0035,
      "duration": 0.0154,
      "velocity": 99,
      "chip": "ym2612"
    },
    {
      "channel": 3,
      "note": 85,
      "start": 99.0124,
      "duration": 0.0147,
      "velocity": 99,
      "chip": "ym2612"
    },
    {
      "channel": 4,
      "note": 93,
      "start": 99.0211,
      "duration": 0.016,
      "velocity": 99,
      "chip": "ym2612"
    },
    {
      "channel": 2,
      "note": 50,
      "start": 99.0297,
      "duration": 0.0717,
      "velocity": 91,
      "chip": "ym2612"
    },
    {
      "channel": 3,
      "note": 93,
      "start": 99.0302,
      "duration": 0.0146,
      "velocity": 99,
      "chip": "ym2612"
    },
    {
      "channel": 4,
      "note": 90,
      "start": 99.0393,
      "duration": 0.0155,
      "velocity": 99,
      "chip": "ym2612"
    },
    {
      "channel": 3,
      "note": 90,
      "start": 99.0483,
      "duration": 0.0166,
      "velocity": 99,
      "chip": "ym2612"
    },
    {
      "channel": 4,
      "note": 85,
      "start": 99.057,
      "duration": 0.0181,
      "velocity": 99,
      "chip": "ym2612"
    },
    {
      "channel": 3,
      "note": 85,
      "start": 99.0684,
      "duration": 0.0153,
      "velocity": 99,
      "chip": "ym2612"
    },
    {
      "channel": 4,
      "note": 93,
      "start": 99.0777,
      "duration": 0.0157,
      "velocity": 99,
      "chip": "ym2612"
    },
    {
      "channel": 3,
      "note": 93,
      "start": 99.0867,
      "duration": 0.015,
      "velocity": 99,
      "chip": "ym2612"
    },
    {
      "channel": 4,
      "note": 90,
      "start": 99.0959,
      "duration": 0.0151,
      "velocity": 99,
      "chip": "ym2612"
    },
    {
      "channel": 2,
      "note": 50,
      "start": 99.104,
      "duration": 0.072,
      "velocity": 91,
      "chip": "ym2612"
    },
    {
      "channel": 3,
      "note": 90,
      "start": 99.1046,
      "duration": 0.0144,
      "velocity": 99,
      "chip": "ym2612"
    },
    {
      "channel": 4,
      "note": 85,
      "start": 99.1133,
      "duration": 0.0155,
      "velocity": 99,
      "chip": "ym2612"
    },
    {
      "channel": 3,
      "note": 85,
      "start": 99.1219,
      "duration": 0.0155,
      "velocity": 99,
      "chip": "ym2612"
    },
    {
      "channel": 4,
      "note": 93,
      "start": 99.1314,
      "duration": 0.0183,
      "velocity": 99,
      "chip": "ym2612"
    },
    {
      "channel": 3,
      "note": 93,
      "start": 99.1416,
      "duration": 0.0164,
      "velocity": 99,
      "chip": "ym2612"
    },
    {
      "channel": 4,
      "note": 90,
      "start": 99.152,
      "duration": 0.0157,
      "velocity": 99,
      "chip": "ym2612"
    },
    {
      "channel": 3,
      "note": 90,
      "start": 99.1607,
      "duration": 0.0156,
      "velocity": 99,
      "chip": "ym2612"
    },
    {
      "channel": 4,
      "note": 85,
      "start": 99.17,
      "duration": 0.0157,
      "velocity": 99,
      "chip": "ym2612"
    },
    {
      "channel": 0,
      "note": 80,
      "start": 99.1711,
      "duration": 0.0533,
      "velocity": 98,
      "chip": "ym2612"
    },
    {
      "channel": 2,
      "note": 50,
      "start": 99.1782,
      "duration": 0.0705,
      "velocity": 91,
      "chip": "ym2612"
    },
    {
      "channel": 3,
      "note": 85,
      "start": 99.1788,
      "duration": 0.015,
      "velocity": 99,
      "chip": "ym2612"
    },
    {
      "channel": 4,
      "note": 93,
      "start": 99.1879,
      "duration": 0.0155,
      "velocity": 99,
      "chip": "ym2612"
    },
    {
      "channel": 3,
      "note": 93,
      "start": 99.197,
      "duration": 0.0143,
      "velocity": 99,
      "chip": "ym2612"
    },
    {
      "channel": 4,
      "note": 90,
      "start": 99.2057,
      "duration": 0.0176,
      "velocity": 99,
      "chip": "ym2612"
    },
    {
      "channel": 1,
      "note": 80,
      "start": 99.2138,
      "duration": 0.0521,
      "velocity": 98,
      "chip": "ym2612"
    },
    {
      "channel": 3,
      "note": 90,
      "start": 99.2146,
      "duration": 0.0172,
      "velocity": 99,
      "chip": "ym2612"
    },
    {
      "channel": 4,
      "note": 85,
      "start": 99.2261,
      "duration": 0.0147,
      "velocity": 99,
      "chip": "ym2612"
    },
    {
      "channel": 0,
      "note": 81,
      "start": 99.2274,
      "duration": 0.0144,
      "velocity": 98,
      "chip": "ym2612"
    },
    {
      "channel": 3,
      "note": 85,
      "start": 99.2345,
      "duration": 0.0146,
      "velocity": 99,
      "chip": "ym2612"
    },
    {
      "channel": 4,
      "note": 93,
      "start": 99.243,
      "duration": 0.0159,
      "velocity": 99,
      "chip": "ym2612"
    },
    {
      "channel": 0,
      "note": 80,
      "start": 99.2441,
      "duration": 0.1464,
      "velocity": 98,
      "chip": "ym2612"
    },
    {
      "channel": 2,
      "note": 49,
      "start": 99.2515,
      "duration": 0.0714,
      "velocity": 91,
      "chip": "ym2612"
    },
    {
      "channel": 3,
      "note": 93,
      "start": 99.2521,
      "duration": 0.0144,
      "velocity": 99,
      "chip": "ym2612"
    },
    {
      "channel": 4,
      "note": 92,
      "start": 99.261,
      "duration": 0.0158,
      "velocity": 99,
      "chip": "ym2612"
    },
    {
      "channel": 1,
      "note": 81,
      "start": 99.2693,
      "duration": 0.0146,
      "velocity": 98,
      "chip": "ym2612"
    },
    {
      "channel": 3,
      "note": 92,
      "start": 99.2701,
      "duration": 0.0143,
      "velocity": 99,
      "chip": "ym2612"
    },
    {
      "channel": 4,
      "note": 90,
      "start": 99.2789,
      "duration": 0.0154,
      "velocity": 99,
      "chip": "ym2612"
    },
    {
      "channel": 1,
      "note": 80,
      "start": 99.2868,
      "duration": 0.1466,
      "velocity": 98,
      "chip": "ym2612"
    },
    {
      "channel": 3,
      "note": 90,
      "start": 99.2877,
      "duration": 0.0172,
      "velocity": 99,
      "chip": "ym2612"
    },
    {
      "channel": 4,
      "note": 89,
      "start": 99.2976,
      "duration": 0.0174,
      "velocity": 99,
      "chip": "ym2612"
    },
    {
      "channel": 3,
      "note": 89,
      "start": 99.3085,
      "duration": 0.0148,
      "velocity": 99,
      "chip": "ym2612"
    },
    {
      "channel": 4,
      "note": 92,
      "start": 99.3171,
      "duration": 0.0159,
      "velocity": 99,
      "chip": "ym2612"
    },
    {
      "channel": 2,
      "note": 49,
      "start": 99.3256,
      "duration": 0.072,
      "velocity": 91,
      "chip": "ym2612"
    },
    {
      "channel": 3,
      "note": 92,
      "start": 99.3263,
      "duration": 0.0145,
      "velocity": 99,
      "chip": "ym2612"
    },
    {
      "channel": 4,
      "note": 90,
      "start": 99.3353,
      "duration": 0.0156,
      "velocity": 99,
      "chip": "ym2612"
    },
    {
      "channel": 3,
      "note": 90,
      "start": 99.3441,
      "duration": 0.0147,
      "velocity": 99,
      "chip": "ym2612"
    },
    {
      "channel": 4,
      "note": 89,
      "start": 99.3532,
      "duration": 0.0156,
      "velocity": 99,
      "chip": "ym2612"
    },
    {
      "channel": 3,
      "note": 89,
      "start": 99.3617,
      "duration": 0.0171,
      "velocity": 99,
      "chip": "ym2612"
    },
    {
      "channel": 4,
      "note": 92,
      "start": 99.3709,
      "duration": 0.0188,
      "velocity": 99,
      "chip": "ym2612"
    },
    {
      "channel": 3,
      "note": 92,
      "start": 99.3827,
      "duration": 0.0152,
      "velocity": 99,
      "chip": "ym2612"
    },
    {
      "channel": 4,
      "note": 90,
      "start": 99.392,
      "duration": 0.0163,
      "velocity": 99,
      "chip": "ym2612"
    },
    {
      "channel": 0,
      "note": 80,
      "start": 99.3932,
      "duration": 0.0338,
      "velocity": 98,
      "chip": "ym2612"
    },
    {
      "channel": 2,
      "note": 49,
      "start": 99.4013,
      "duration": 0.0707,
      "velocity": 91,
      "chip": "ym2612"
    },
    {
      "channel": 3,
      "note": 90,
      "start": 99.4019,
      "duration": 0.0146,
      "velocity": 99,
      "chip": "ym2612"
    },
    {
      "channel": 4,
      "note": 89,
      "start": 99.4109,
      "duration": 0.0151,
      "velocity": 99,
      "chip": "ym2612"
    },
    {
      "channel": 3,
      "note": 89,
      "start": 99.4197,
      "duration": 0.0144,
      "velocity": 99,
      "chip": "ym2612"
    },
    {
      "channel": 4,
      "note": 92,
      "start": 99.4283,
      "duration": 0.0151,
      "velocity": 99,
      "chip": "ym2612"
    },
    {
      "channel": 0,
      "note": 68,
      "start": 99.4295,
      "duration": 0.0149,
      "velocity": 98,
      "chip": "ym2612"
    },
    {
      "channel": 1,
      "note": 65,
      "start": 99.4363,
      "duration": 0.0145,
      "velocity": 98,
      "chip": "ym2612"
    },
    {
      "channel": 3,
      "note": 92,
      "start": 99.4371,
      "duration": 0.0142,
      "velocity": 99,
      "chip": "ym2612"
    },
    {
      "channel": 4,
      "note": 90,
      "start": 99.4456,
      "duration": 0.0183,
      "velocity": 99,
      "chip": "ym2612"
    },
    {
      "channel": 0,
      "note": 69,
      "start": 99.4467,
      "duration": 0.0185,
      "velocity": 98,
      "chip": "ym2612"
    },
    {
      "channel": 1,
      "note": 66,
      "start": 99.4546,
      "duration": 0.0172,
      "velocity": 98,
      "chip": "ym2612"
    },
    {
      "channel": 3,
      "note": 90,
      "start": 99.4556,
      "duration": 0.0167,
      "velocity": 99,
      "chip": "ym2612"
    },
    {
      "channel": 4,
      "note": 89,
      "start": 99.4666,
      "duration": 0.0166,
      "velocity": 99,
      "chip": "ym2612"
    },
    {
      "channel": 0,
      "note": 71,
      "start": 99.4678,
      "duration": 0.0164,
      "velocity": 98,
      "chip": "ym2612"
    },
    {
      "channel": 1,
      "note": 68,
      "start": 99.4755,
      "duration": 0.0151,
      "velocity": 98,
      "chip": "ym2612"
    },
    {
      "channel": 2,
      "note": 49,
      "start": 99.476,
      "duration": 0.0713,
      "velocity": 91,
      "chip": "ym2612"
    },
    {
      "channel": 3,
      "note": 89,
      "start": 99.4766,
      "duration": 0.0146,
      "velocity": 99,
      "chip": "ym2612"
    },
    {
      "channel": 4,
      "note": 92,
      "start": 99.4854,
      "duration": 0.0152,
      "velocity": 99,
      "chip": "ym2612"
    },
    {
      "channel": 0,
      "note": 73,
      "start": 99.4866,
      "duration": 0.0149,
      "velocity": 98,
      "chip": "ym2612"
    },
    {
      "channel": 1,
      "note": 69,
      "start": 99.4935,
      "duration": 0.0146,
      "velocity": 98,
      "chip": "ym2612"
    },
    {
      "channel": 3,
      "note": 92,
      "start": 99.4943,
      "duration": 0.0143,
      "velocity": 99,
      "chip": "ym2612"
    },
    {
      "channel": 4,
      "note": 90,
      "start": 99.5028,
      "duration": 0.0155,
      "velocity": 99,
      "chip": "ym2612"
    },
    {
      "channel": 0,
      "note": 75,
      "start": 99.504,
      "duration": 0.0152,
      "velocity": 98,
      "chip": "ym2612"
    },
    {
      "channel": 1,
      "note": 71,
      "start": 99.5108,
      "duration": 0.0149,
      "velocity": 98,
      "chip": "ym2612"
    },
    {
      "channel": 3,
      "note": 90,
      "start": 99.5116,
      "duration": 0.0146,
      "velocity": 99,
      "chip": "ym2612"
    },
    {
      "channel": 4,
      "note": 89,
      "start": 99.5205,
      "duration": 0.0176,
      "velocity": 99,
      "chip": "ym2612"
    },
    {
      "channel": 0,
      "note": 77,
      "start": 99.5216,
      "duration": 0.0174,
      "velocity": 98,
      "chip": "ym2612"
    },
    {
      "channel": 1,
      "note": 73,
      "start": 99.5288,
      "duration": 0.0183,
      "velocity": 98,
      "chip": "ym2612"
    },
    {
      "channel": 3,
      "note": 89,
      "start": 99.5297,
      "duration": 0.018,
      "velocity": 99,
      "chip": "ym2612"
    },
    {
      "channel": 4,
      "note": 92,
      "start": 99.5409,
      "duration": 0.0221,
      "velocity": 99,
      "chip": "ym2612"
    },
    {
      "channel": 0,
      "note": 81,
      "start": 99.5425,
      "duration": 0.2212,
      "velocity": 98,
      "chip": "ym2612"
    },
    {
      "channel": 1,
      "note": 73,
      "start": 99.5513,
      "duration": 0.2191,
      "velocity": 98,
      "chip": "ym2612"
    },
    {
      "channel": 2,
      "note": 54,
      "start": 99.5551,
      "duration": 0.0717,
      "velocity": 91,
      "chip": "ym2612"
    },
    {
      "channel": 3,
      "note": 92,
      "start": 99.5558,
      "duration": 0.0147,
      "velocity": 99,
      "chip": "ym2612"
    },
    {
      "channel": 4,
      "note": 93,
      "start": 99.5651,
      "duration": 0.0153,
      "velocity": 99,
      "chip": "ym2612"
    },
    {
      "channel": 3,
      "note": 93,
      "start": 99.5737,
      "duration": 0.0146,
      "velocity": 99,
      "chip": "ym2612"
    },
    {
      "channel": 4,
      "note": 92,
      "start": 99.5825,
      "duration": 0.0159,
      "velocity": 99,
      "chip": "ym2612"
    },
    {
      "channel": 3,
      "note": 92,
      "start": 99.5917,
      "duration": 0.0145,
      "velocity": 99,
      "chip": "ym2612"
    },
    {
      "channel": 4,
      "note": 85,
      "start": 99.6006,
      "duration": 0.0159,
      "velocity": 99,
      "chip": "ym2612"
    },
    {
      "channel": 3,
      "note": 85,
      "start": 99.6099,
      "duration": 0.0172,
      "velocity": 99,
      "chip": "ym2612"
    },
    {
      "channel": 4,
      "note": 93,
      "start": 99.6189,
      "duration": 0.0178,
      "velocity": 99,
      "chip": "ym2612"
    },
    {
      "channel": 2,
      "note": 54,
      "start": 99.6295,
      "duration": 0.0693,
      "velocity": 91,
      "chip": "ym2612"
    },
    {
      "channel": 3,
      "note": 93,
      "start": 99.6301,
      "duration": 0.0148,
      "velocity": 99,
      "chip": "ym2612"
    },
    {
      "channel": 4,
      "note": 92,
      "start": 99.6389,
      "duration": 0.0156,
      "velocity": 99,
      "chip": "ym2612"
    },
    {
      "channel": 3,
      "note": 92,
      "start": 99.6476,
      "duration": 0.0151,
      "velocity": 99,
      "chip": "ym2612"
    },
    {
      "channel": 4,
      "note": 85,
      "start": 99.6567,
      "duration": 0.0158,
      "velocity": 99,
      "chip": "ym2612"
    },
    {
      "channel": 3,
      "note": 85,
      "start": 99.6656,
      "duration": 0.0148,
      "velocity": 99,
      "chip": "ym2612"
    },
    {
      "channel": 4,
      "note": 93,
      "start": 99.6746,
      "duration": 0.0159,
      "velocity": 99,
      "chip": "ym2612"
    },
    {
      "channel": 3,
      "note": 93,
      "start": 99.6836,
      "duration": 0.0156,
      "velocity": 99,
      "chip": "ym2612"
    },
    {
      "channel": 4,
      "note": 92,
      "start": 99.6928,
      "duration": 0.0179,
      "velocity": 99,
      "chip": "ym2612"
    },
    {
      "channel": 2,
      "note": 54,
      "start": 99.7022,
      "duration": 0.0685,
      "velocity": 91,
      "chip": "ym2612"
    },
    {
      "channel": 3,
      "note": 92,
      "start": 99.7031,
      "duration": 0.0154,
      "velocity": 99,
      "chip": "ym2612"
    },
    {
      "channel": 4,
      "note": 85,
      "start": 99.7129,
      "duration": 0.0146,
      "velocity": 99,
      "chip": "ym2612"
    },
    {
      "channel": 3,
      "note": 85,
      "start": 99.7209,
      "duration": 0.0143,
      "velocity": 99,
      "chip": "ym2612"
    },
    {
      "channel": 4,
      "note": 93,
      "start": 99.7297,
      "duration": 0.0151,
      "velocity": 99,
      "chip": "ym2612"
    },
    {
      "channel": 3,
      "note": 93,
      "start": 99.7382,
      "duration": 0.0144,
      "velocity": 99,
      "chip": "ym2612"
    },
    {
      "channel": 4,
      "note": 92,
      "start": 99.747,
      "duration": 0.0155,
      "velocity": 99,
      "chip": "ym2612"
    },
    {
      "channel": 3,
      "note": 92,
      "start": 99.7558,
      "duration": 0.0152,
      "velocity": 99,
      "chip": "ym2612"
    },
    {
      "channel": 4,
      "note": 85,
      "start": 99.7651,
      "duration": 0.0178,
      "velocity": 99,
      "chip": "ym2612"
    },
    {
      "channel": 0,
      "note": 83,
      "start": 99.7662,
      "duration": 0.0526,
      "velocity": 98,
      "chip": "ym2612"
    },
    {
      "channel": 1,
      "note": 78,
      "start": 99.773,
      "duration": 0.0522,
      "velocity": 98,
      "chip": "ym2612"
    },
    {
      "channel": 2,
      "note": 54,
      "start": 99.7735,
      "duration": 0.0704,
      "velocity": 91,
      "chip": "ym2612"
    },
    {
      "channel": 3,
      "note": 85,
      "start": 99.7741,
      "duration": 0.0168,
      "velocity": 99,
      "chip": "ym2612"
    },
    {
      "channel": 4,
      "note": 93,
      "start": 99.7855,
      "duration": 0.0147,
      "velocity": 99,
      "chip": "ym2612"
    },
    {
      "channel": 3,
      "note": 93,
      "start": 99.7935,
      "duration": 0.0142,
      "velocity": 99,
      "chip": "ym2612"
    },
    {
      "channel": 4,
      "note": 92,
      "start": 99.8024,
      "duration": 0.0155,
      "velocity": 99,
      "chip": "ym2612"
    },
    {
      "channel": 3,
      "note": 92,
      "start": 99.8112,
      "duration": 0.0147,
      "velocity": 99,
      "chip": "ym2612"
    },
    {
      "channel": 4,
      "note": 85,
      "start": 99.8201,
      "duration": 0.0158,
      "velocity": 99,
      "chip": "ym2612"
    },
    {
      "channel": 0,
      "note": 85,
      "start": 99.8213,
      "duration": 0.0155,
      "velocity": 98,
      "chip": "ym2612"
    },
    {
      "channel": 1,
      "note": 78,
      "start": 99.8287,
      "duration": 0.015,
      "velocity": 98,
      "chip": "ym2612"
    },
    {
      "channel": 3,
      "note": 85,
      "start": 99.8295,
      "duration": 0.0147,
      "velocity": 99,
      "chip": "ym2612"
    },
    {
      "channel": 4,
      "note": 93,
      "start": 99.8381,
      "duration": 0.0168,
      "velocity": 99,
      "chip": "ym2612"
    },
    {
      "channel": 0,
      "note": 80,
      "start": 99.8393,
      "duration": 0.053,
      "velocity": 98,
      "chip": "ym2612"
    },
    {
      "channel": 1,
      "note": 71,
      "start": 99.8461,
      "duration": 0.0526,
      "velocity": 98,
      "chip": "ym2612"
    },
    {
      "channel": 2,
      "note": 52,
      "start": 99.8466,
      "duration": 0.0707,
      "velocity": 91,
      "chip": "ym2612"
    },
    {
      "channel": 3,
      "note": 93,
      "start": 99.8472,
      "duration": 0.0174,
      "velocity": 99,
      "chip": "ym2612"
    },
    {
      "channel": 4,
      "note": 92,
      "start": 99.8583,
      "duration": 0.0156,
      "velocity": 99,
      "chip": "ym2612"
    },
    {
      "channel": 3,
      "note": 92,
      "start": 99.8671,
      "duration": 0.0146,
      "velocity": 99,
      "chip": "ym2612"
    },
    {
      "channel": 4,
      "note": 88,
      "start": 99.876,
      "duration": 0.0154,
      "velocity": 99,
      "chip": "ym2612"
    },
    {
      "channel": 3,
      "note": 88,
      "start": 99.8851,
      "duration": 0.0144,
      "velocity": 99,
      "chip": "ym2612"
    },
    {
      "channel": 4,
      "note": 95,
      "start": 99.8936,
      "duration": 0.0159,
      "velocity": 99,
      "chip": "ym2612"
    },
    {
      "channel": 0,
      "note": 81,
      "start": 99.8948,
      "duration": 0.0156,
      "velocity": 98,
      "chip": "ym2612"
    },
    {
      "channel": 1,
      "note": 76,
      "start": 99.9021,
      "duration": 0.0149,
      "velocity": 98,
      "chip": "ym2612"
    },
    {
      "channel": 3,
      "note": 95,
      "start": 99.9029,
      "duration": 0.0147,
      "velocity": 99,
      "chip": "ym2612"
    },
    {
      "channel": 4,
      "note": 92,
      "start": 99.9117,
      "duration": 0.0153,
      "velocity": 99,
      "chip": "ym2612"
    },
    {
      "channel": 0,
      "note": 83,
      "start": 99.9129,
      "duration": 0.1451,
      "velocity": 98,
      "chip": "ym2612"
    },
    {
      "channel": 1,
      "note": 80,
      "start": 99.9196,
      "duration": 0.1452,
      "velocity": 98,
      "chip": "ym2612"
    },
    {
      "channel": 2,
      "note": 52,
      "start": 99.9201,
      "duration": 0.0707,
      "velocity": 91,
      "chip": "ym2612"
    },
    {
      "channel": 3,
      "note": 92,
      "start": 99.9207,
      "duration": 0.0162,
      "velocity": 99,
      "chip": "ym2612"
    },
    {
      "channel": 4,
      "note": 88,
      "start": 99.9291,
      "duration": 0.0183,
      "velocity": 99,
      "chip": "ym2612"
    },
    {
      "channel": 3,
      "note": 88,
      "start": 99.9407,
      "duration": 0.0142,
      "velocity": 99,
      "chip": "ym2612"
    },
    {
      "channel": 4,
      "note": 95,
      "start": 99.9495,
      "duration": 0.0149,
      "velocity": 99,
      "chip": "ym2612"
    },
    {
      "channel": 3,
      "note": 95,
      "start": 99.9577,
      "duration": 0.0147,
      "velocity": 99,
      "chip": "ym2612"
    },
    {
      "channel": 4,
      "note": 92,
      "start": 99.9665,
      "duration": 0.0162,
      "velocity": 99,
      "chip": "ym2612"
    },
    {
      "channel": 3,
      "note": 92,
      "start": 99.9761,
      "duration": 0.015,
      "velocity": 99,
      "chip": "ym2612"
    },
    {
      "channel": 4,
      "note": 88,
      "start": 99.9849,
      "duration": 0.0159,
      "velocity": 99,
      "chip": "ym2612"
    },
    {
      "channel": 2,
      "note": 52,
      "start": 99.9933,
      "duration": 0.0718,
      "velocity": 91,
      "chip": "ym2612"
    },
    {
      "channel": 3,
      "note": 88,
      "start": 99.9939,
      "duration": 0.0149,
      "velocity": 99,
      "chip": "ym2612"
    },
    {
      "channel": 4,
      "note": 95,
      "start": 100.003,
      "duration": 0.0177,
      "velocity": 99,
      "chip": "ym2612"
    },
    {
      "channel": 3,
      "note": 95,
      "start": 100.013,
      "duration": 0.0155,
      "velocity": 99,
      "chip": "ym2612"
    },
    {
      "channel": 4,
      "note": 92,
      "start": 100.023,
      "duration": 0.016,
      "velocity": 99,
      "chip": "ym2612"
    },
    {
      "channel": 3,
      "note": 92,
      "start": 100.0324,
      "duration": 0.0144,
      "velocity": 99,
      "chip": "ym2612"
    },
    {
      "channel": 4,
      "note": 88,
      "start": 100.0412,
      "duration": 0.0155,
      "velocity": 99,
      "chip": "ym2612"
    },
    {
      "channel": 3,
      "note": 88,
      "start": 100.0502,
      "duration": 0.0152,
      "velocity": 99,
      "chip": "ym2612"
    },
    {
      "channel": 4,
      "note": 95,
      "start": 100.0594,
      "duration": 0.015,
      "velocity": 99,
      "chip": "ym2612"
    },
    {
      "channel": 0,
      "note": 83,
      "start": 100.0606,
      "duration": 0.0343,
      "velocity": 98,
      "chip": "ym2612"
    },
    {
      "channel": 1,
      "note": 80,
      "start": 100.067,
      "duration": 0.0357,
      "velocity": 98,
      "chip": "ym2612"
    },
    {
      "channel": 2,
      "note": 52,
      "start": 100.0675,
      "duration": 0.0708,
      "velocity": 91,
      "chip": "ym2612"
    },
    {
      "channel": 3,
      "note": 95,
      "start": 100.068,
      "duration": 0.0139,
      "velocity": 99,
      "chip": "ym2612"
    },
    {
      "channel": 4,
      "note": 92,
      "start": 100.0765,
      "duration": 0.0172,
      "velocity": 99,
      "chip": "ym2612"
    },
    {
      "channel": 3,
      "note": 92,
      "start": 100.085,
      "duration": 0.0181,
      "velocity": 99,
      "chip": "ym2612"
    },
    {
      "channel": 4,
      "note": 88,
      "start": 100.0964,
      "duration": 0.0158,
      "velocity": 99,
      "chip": "ym2612"
    },
    {
      "channel": 0,
      "note": 81,
      "start": 100.0982,
      "duration": 0.015,
      "velocity": 98,
      "chip": "ym2612"
    },
    {
      "channel": 1,
      "note": 76,
      "start": 100.1051,
      "duration": 0.0146,
      "velocity": 98,
      "chip": "ym2612"
    },
    {
      "channel": 3,
      "note": 88,
      "start": 100.1059,
      "duration": 0.0143,
      "velocity": 99,
      "chip": "ym2612"
    },
    {
      "channel": 4,
      "note": 95,
      "start": 100.1145,
      "duration": 0.0155,
      "velocity": 99,
      "chip": "ym2612"
    },
    {
      "channel": 0,
      "note": 80,
      "start": 100.1156,
      "duration": 0.0153,
      "velocity": 98,
      "chip": "ym2612"
    },
    {
      "channel": 1,
      "note": 71,
      "start": 100.1227,
      "duration": 0.0153,
      "velocity": 98,
      "chip": "ym2612"
    },
    {
      "channel": 3,
      "note": 95,
      "start": 100.1235,
      "duration": 0.015,
      "velocity": 99,
      "chip": "ym2612"
    },
    {
      "channel": 4,
      "note": 92,
      "start": 100.1323,
      "duration": 0.016,
      "velocity": 99,
      "chip": "ym2612"
    },
    {
      "channel": 0,
      "note": 78,
      "start": 100.1335,
      "duration": 0.2192,
      "velocity": 98,
      "chip": "ym2612"
    },
    {
      "channel": 1,
      "note": 69,
      "start": 100.1404,
      "duration": 0.2189,
      "velocity": 98,
      "chip": "ym2612"
    },
    {
      "channel": 2,
      "note": 50,
      "start": 100.1409,
      "duration": 0.0711,
      "velocity": 91,
      "chip": "ym2612"
    },
    {
      "channel": 3,
      "note": 92,
      "start": 100.1415,
      "duration": 0.0147,
      "velocity": 99,
      "chip": "ym2612"
    },
    {
      "channel": 4,
      "note": 93,
      "start": 100.1504,
      "duration": 0.0156,
      "velocity": 99,
      "chip": "ym2612"
    },
    {
      "channel": 3,
      "note": 93,
      "start": 100.1598,
      "duration": 0.0162,
      "velocity": 99,
      "chip": "ym2612"
    },
    {
      "channel": 4,
      "note": 90,
      "start": 100.1693,
      "duration": 0.0173,
      "velocity": 99,
      "chip": "ym2612"
    },
    {
      "channel": 3,
      "note": 90,
      "start": 100.1794,
      "duration": 0.0148,
      "velocity": 99,
      "chip": "ym2612"
    },
    {
      "channel": 4,
      "note": 85,
      "start": 100.1886,
      "duration": 0.0157,
      "velocity": 99,
      "chip": "ym2612"
    },
    {
      "channel": 3,
      "note": 85,
      "start": 100.1978,
      "duration": 0.0146,
      "velocity": 99,
      "chip": "ym2612"
    },
    {
      "channel": 4,
      "note": 93,
      "start": 100.2066,
      "duration": 0.0151,
      "velocity": 99,
      "chip": "ym2612"
    },
    {
      "channel": 2,
      "note": 50,
      "start": 100.2145,
      "duration": 0.0711,
      "velocity": 91,
      "chip": "ym2612"
    },
    {
      "channel": 3,
      "note": 93,
      "start": 100.2152,
      "duration": 0.0143,
      "velocity": 99,
      "chip": "ym2612"
    },
    {
      "channel": 4,
      "note": 90,
      "start": 100.2239,
      "duration": 0.0155,
      "velocity": 99,
      "chip": "ym2612"
    },
    {
      "channel": 3,
      "note": 90,
      "start": 100.2325,
      "duration": 0.0167,
      "velocity": 99,
      "chip": "ym2612"
    },
    {
      "channel": 4,
      "note": 85,
      "start": 100.2416,
      "duration": 0.018,
      "velocity": 99,
      "chip": "ym2612"
    },
    {
      "channel": 3,
      "note": 85,
      "start": 100.2527,
      "duration": 0.0155,
      "velocity": 99,
      "chip": "ym2612"
    },
    {
      "channel": 4,
      "note": 93,
      "start": 100.2618,
      "duration": 0.0161,
      "velocity": 99,
      "chip": "ym2612"
    },
    {
      "channel": 3,
      "note": 93,
      "start": 100.2709,
      "duration": 0.0151,
      "velocity": 99,
      "chip": "ym2612"
    },
    {
      "channel": 4,
      "note": 90,
      "start": 100.2801,
      "duration": 0.0152,
      "velocity": 99,
      "chip": "ym2612"
    },
    {
      "channel": 2,
      "note": 50,
      "start": 100.2882,
      "duration": 0.0714,
      "velocity": 91,
      "chip": "ym2612"
    },
    {
      "channel": 3,
      "note": 90,
      "start": 100.2888,
      "duration": 0.0147,
      "velocity": 99,
      "chip": "ym2612"
    },
    {
      "channel": 4,
      "note": 85,
      "start": 100.2975,
      "duration": 0.0159,
      "velocity": 99,
      "chip": "ym2612"
    },
    {
      "channel": 3,
      "note": 85,
      "start": 100.3065,
      "duration": 0.015,
      "velocity": 99,
      "chip": "ym2612"
    },
    {
      "channel": 4,
      "note": 93,
      "start": 100.3156,
      "duration": 0.018,
      "velocity": 99,
      "chip": "ym2612"
    },
    {
      "channel": 3,
      "note": 93,
      "start": 100.325,
      "duration": 0.0168,
      "velocity": 99,
      "chip": "ym2612"
    },
    {
      "channel": 4,
      "note": 90,
      "start": 100.3363,
      "duration": 0.0151,
      "velocity": 99,
      "chip": "ym2612"
    },
    {
      "channel": 3,
      "note": 90,
      "start": 100.3448,
      "duration": 0.0152,
      "velocity": 99,
      "chip": "ym2612"
    },
    {
      "channel": 4,
      "note": 85,
      "start": 100.354,
      "duration": 0.0152,
      "velocity": 99,
      "chip": "ym2612"
    },
    {
      "channel": 0,
      "note": 78,
      "start": 100.3551,
      "duration": 0.0321,
      "velocity": 98,
      "chip": "ym2612"
    },
    {
      "channel": 1,
      "note": 69,
      "start": 100.3619,
      "duration": 0.0318,
      "velocity": 98,
      "chip": "ym2612"
    },
    {
      "channel": 2,
      "note": 50,
      "start": 100.3624,
      "duration": 0.0705,
      "velocity": 91,
      "chip": "ym2612"
    },
    {
      "channel": 3,
      "note": 85,
      "start": 100.363,
      "duration": 0.0138,
      "velocity": 99,
      "chip": "ym2612"
    },
    {
      "channel": 4,
      "note": 93,
      "start": 100.3714,
      "duration": 0.0149,
      "velocity": 99,
      "chip": "ym2612"
    },
    {
      "channel": 3,
      "note": 93,
      "start": 100.38,
      "duration": 0.0142,
      "velocity": 99,
      "chip": "ym2612"
    },
    {
      "channel": 4,
      "note": 90,
      "start": 100.3885,
      "duration": 0.0173,
      "velocity": 99,
      "chip": "ym2612"
    },
    {
      "channel": 0,
      "note": 80,
      "start": 100.3897,
      "duration": 0.0171,
      "velocity": 98,
      "chip": "ym2612"
    },
    {
      "channel": 1,
      "note": 71,
      "start": 100.3968,
      "duration": 0.0182,
      "velocity": 98,
      "chip": "ym2612"
    },
    {
      "channel": 3,
      "note": 90,
      "start": 100.3976,
      "duration": 0.0179,
      "velocity": 99,
      "chip": "ym2612"
    },
    {
      "channel": 4,
      "note": 85,
      "start": 100.4086,
      "duration": 0.0162,
      "velocity": 99,
      "chip": "ym2612"
    },
    {
      "channel": 0,
      "note": 81,
      "start": 100.4105,
      "duration": 0.0152,
      "velocity": 98,
      "chip": "ym2612"
    },
    {
      "channel": 1,
      "note": 73,
      "start": 100.4175,
      "duration": 0.0151,
      "velocity": 98,
      "chip": "ym2612"
    },
    {
      "channel": 3,
      "note": 85,
      "start": 100.4184,
      "duration": 0.0148,
      "velocity": 99,
      "chip": "ym2612"
    },
    {
      "channel": 4,
      "note": 93,
      "start": 100.427,
      "duration": 0.016,
      "velocity": 99,
      "chip": "ym2612"
    },
    {
      "channel": 0,
      "note": 80,
      "start": 100.4282,
      "duration": 0.0157,
      "velocity": 98,
      "chip": "ym2612"
    },
    {
      "channel": 1,
      "note": 71,
      "start": 100.4351,
      "duration": 0.0153,
      "velocity": 98,
      "chip": "ym2612"
    },
    {
      "channel": 2,
      "note": 49,
      "start": 100.4356,
      "duration": 0.0699,
      "velocity": 91,
      "chip": "ym2612"
    },
    {
      "channel": 3,
      "note": 93,
      "start": 100.4362,
      "duration": 0.0147,
      "velocity": 99,
      "chip": "ym2612"
    },
    {
      "channel": 4,
      "note": 92,
      "start": 100.4452,
      "duration": 0.0151,
      "velocity": 99,
      "chip": "ym2612"
    },
    {
      "channel": 0,
      "note": 78,
      "start": 100.4464,
      "duration": 0.0148,
      "velocity": 98,
      "chip": "ym2612"
    },
    {
      "channel": 1,
      "note": 69,
      "start": 100.4532,
      "duration": 0.0148,
      "velocity": 98,
      "chip": "ym2612"
    },
    {
      "channel": 3,
      "note": 92,
      "start": 100.454,
      "duration": 0.0146,
      "velocity": 99,
      "chip": "ym2612"
    },
    {
      "channel": 4,
      "note": 90,
      "start": 100.4625,
      "duration": 0.0154,
      "velocity": 99,
      "chip": "ym2612"
    },
    {
      "channel": 0,
      "note": 77,
      "start": 100.4637,
      "duration": 0.1478,
      "velocity": 98,
      "chip": "ym2612"
    },
    {
      "channel": 1,
      "note": 68,
      "start": 100.4708,
      "duration": 0.1472,
      "velocity": 98,
      "chip": "ym2612"
    },
    {
      "channel": 3,
      "note": 90,
      "start": 100.4716,
      "duration": 0.0164,
      "velocity": 99,
      "chip": "ym2612"
    },
    {
      "channel": 4,
      "note": 89,
      "start": 100.4801,
      "duration": 0.0181,
      "velocity": 99,
      "chip": "ym2612"
    },
    {
      "channel": 3,
      "note": 89,
      "start": 100.4918,
      "duration": 0.014,
      "velocity": 99,
      "chip": "ym2612"
    },
    {
      "channel": 4,
      "note": 92,
      "start": 100.5003,
      "duration": 0.0153,
      "velocity": 99,
      "chip": "ym2612"
    },
    {
      "channel": 2,
      "note": 49,
      "start": 100.5084,
      "duration": 0.0732,
      "velocity": 91,
      "chip": "ym2612"
    },
    {
      "channel": 3,
      "note": 92,
      "start": 100.509,
      "duration": 0.0147,
      "velocity": 99,
      "chip": "ym2612"
    },
    {
      "channel": 4,
      "note": 90,
      "start": 100.5178,
      "duration": 0.0161,
      "velocity": 99,
      "chip": "ym2612"
    },
    {
      "channel": 3,
      "note": 90,
      "start": 100.527,
      "duration": 0.0152,
      "velocity": 99,
      "chip": "ym2612"
    },
    {
      "channel": 4,
      "note": 89,
      "start": 100.5361,
      "duration": 0.0159,
      "velocity": 99,
      "chip": "ym2612"
    },
    {
      "channel": 3,
      "note": 89,
      "start": 100.5451,
      "duration": 0.0161,
      "velocity": 99,
      "chip": "ym2612"
    },
    {
      "channel": 4,
      "note": 92,
      "start": 100.5542,
      "duration": 0.0197,
      "velocity": 99,
      "chip": "ym2612"
    },
    {
      "channel": 3,
      "note": 92,
      "start": 100.5656,
      "duration": 0.0162,
      "velocity": 99,
      "chip": "ym2612"
    },
    {
      "channel": 4,
      "note": 90,
      "start": 100.5762,
      "duration": 0.0167,
      "velocity": 99,
      "chip": "ym2612"
    },
    {
      "channel": 2,
      "note": 49,
      "start": 100.5853,
      "duration": 0.0708,
      "velocity": 91,
      "chip": "ym2612"
    },
    {
      "channel": 3,
      "note": 90,
      "start": 100.5859,
      "duration": 0.0148,
      "velocity": 99,
      "chip": "ym2612"
    },
    {
      "channel": 4,
      "note": 89,
      "start": 100.595,
      "duration": 0.0154,
      "velocity": 99,
      "chip": "ym2612"
    },
    {
      "channel": 3,
      "note": 89,
      "start": 100.6036,
      "duration": 0.015,
      "velocity": 99,
      "chip": "ym2612"
    },
    {
      "channel": 4,
      "note": 92,
      "start": 100.6128,
      "duration": 0.0149,
      "velocity": 99,
      "chip": "ym2612"
    },
    {
      "channel": 0,
      "note": 77,
      "start": 100.614,
      "duration": 0.0147,
      "velocity": 98,
      "chip": "ym2612"
    },
    {
      "channel": 1,
      "note": 68,
      "start": 100.6206,
      "duration": 0.0146,
      "velocity": 98,
      "chip": "ym2612"
    },
    {
      "channel": 3,
      "note": 92,
      "start": 100.6215,
      "duration": 0.0143,
      "velocity": 99,
      "chip": "ym2612"
    },
    {
      "channel": 4,
      "note": 90,
      "start": 100.63,
      "duration": 0.018,
      "velocity": 99,
      "chip": "ym2612"
    },
    {
      "channel": 0,
      "note": 73,
      "start": 100.6312,
      "duration": 0.018,
      "velocity": 98,
      "chip": "ym2612"
    },
    {
      "channel": 1,
      "note": 65,
      "start": 100.6383,
      "duration": 0.0176,
      "velocity": 98,
      "chip": "ym2612"
    },
    {
      "channel": 3,
      "note": 90,
      "start": 100.6391,
      "duration": 0.0173,
      "velocity": 99,
      "chip": "ym2612"
    },
    {
      "channel": 4,
      "note": 89,
      "start": 100.6505,
      "duration": 0.0167,
      "velocity": 99,
      "chip": "ym2612"
    },
    {
      "channel": 0,
      "note": 75,
      "start": 100.6517,
      "duration": 0.0165,
      "velocity": 98,
      "chip": "ym2612"
    },
    {
      "channel": 1,
      "note": 66,
      "start": 100.6599,
      "duration": 0.0148,
      "velocity": 98,
      "chip": "ym2612"
    },
    {
      "channel": 2,
      "note": 49,
      "start": 100.6604,
      "duration": 0.0699,
      "velocity": 91,
      "chip": "ym2612"
    },
    {
      "channel": 3,
      "note": 89,
      "start": 100.661,
      "duration": 0.0142,
      "velocity": 99,
      "chip": "ym2612"
    },
    {
      "channel": 4,
      "note": 92,
      "start": 100.6695,
      "duration": 0.0151,
      "velocity": 99,
      "chip": "ym2612"
    },
    {
      "channel": 0,
      "note": 77,
      "start": 100.6706,
      "duration": 0.0148,
      "velocity": 98,
      "chip": "ym2612"
    },
    {
      "channel": 1,
      "note": 68,
      "start": 100.6774,
      "duration": 0.0145,
      "velocity": 98,
      "chip": "ym2612"
    },
    {
      "channel": 3,
      "note": 92,
      "start": 100.6782,
      "duration": 0.0142,
      "velocity": 99,
      "chip": "ym2612"
    },
    {
      "channel": 4,
      "note": 90,
      "start": 100.6867,
      "duration": 0.0151,
      "velocity": 99,
      "chip": "ym2612"
    },
    {
      "channel": 0,
      "note": 78,
      "start": 100.6879,
      "duration": 0.0149,
      "velocity": 98,
      "chip": "ym2612"
    },
    {
      "channel": 1,
      "note": 69,
      "start": 100.6947,
      "duration": 0.0145,
      "velocity": 98,
      "chip": "ym2612"
    },
    {
      "channel": 3,
      "note": 90,
      "start": 100.6955,
      "duration": 0.0143,
      "velocity": 99,
      "chip": "ym2612"
    },
    {
      "channel": 4,
      "note": 89,
      "start": 100.7041,
      "duration": 0.0163,
      "velocity": 99,
      "chip": "ym2612"
    },
    {
      "channel": 0,
      "note": 80,
      "start": 100.7052,
      "duration": 0.0168,
      "velocity": 98,
      "chip": "ym2612"
    },
    {
      "channel": 1,
      "note": 71,
      "start": 100.7123,
      "duration": 0.0177,
      "velocity": 98,
      "chip": "ym2612"
    },
    {
      "channel": 3,
      "note": 89,
      "start": 100.7132,
      "duration": 0.0175,
      "velocity": 99,
      "chip": "ym2612"
    },
    {
      "channel": 4,
      "note": 92,
      "start": 100.7239,
      "duration": 0.0213,
      "velocity": 99,
      "chip": "ym2612"
    },
    {
      "channel": 0,
      "note": 81,
      "start": 100.7254,
      "duration": 0.2211,
      "velocity": 98,
      "chip": "ym2612"
    },
    {
      "channel": 1,
      "note": 73,
      "start": 100.7344,
      "duration": 0.2188,
      "velocity": 98,
      "chip": "ym2612"
    },
    {
      "channel": 2,
      "note": 54,
      "start": 100.738,
      "duration": 0.0706,
      "velocity": 91,
      "chip": "ym2612"
    },
    {
      "channel": 3,
      "note": 92,
      "start": 100.7388,
      "duration": 0.0139,
      "velocity": 99,
      "chip": "ym2612"
    },
    {
      "channel": 4,
      "note": 93,
      "start": 100.7473,
      "duration": 0.0149,
      "velocity": 99,
      "chip": "ym2612"
    },
    {
      "channel": 3,
      "note": 93,
      "start": 100.756,
      "duration": 0.0142,
      "velocity": 99,
      "chip": "ym2612"
    },
    {
      "channel": 4,
      "note": 92,
      "start": 100.7644,
      "duration": 0.0159,
      "velocity": 99,
      "chip": "ym2612"
    },
    {
      "channel": 3,
      "note": 92,
      "start": 100.774,
      "duration": 0.0139,
      "velocity": 99,
      "chip": "ym2612"
    },
    {
      "channel": 4,
      "note": 85,
      "start": 100.7824,
      "duration": 0.0157,
      "velocity": 99,
      "chip": "ym2612"
    },
    {
      "channel": 3,
      "note": 85,
      "start": 100.7916,
      "duration": 0.0174,
      "velocity": 99,
      "chip": "ym2612"
    },
    {
      "channel": 4,
      "note": 93,
      "start": 100.8008,
      "duration": 0.0182,
      "velocity": 99,
      "chip": "ym2612"
    },
    {
      "channel": 2,
      "note": 54,
      "start": 100.8117,
      "duration": 0.0676,
      "velocity": 91,
      "chip": "ym2612"
    },
    {
      "channel": 3,
      "note": 93,
      "start": 100.8124,
      "duration": 0.0143,
      "velocity": 99,
      "chip": "ym2612"
    },
    {
      "channel": 4,
      "note": 92,
      "start": 100.8211,
      "duration": 0.0146,
      "velocity": 99,
      "chip": "ym2612"
    },
    {
      "channel": 3,
      "note": 92,
      "start": 100.8292,
      "duration": 0.0147,
      "velocity": 99,
      "chip": "ym2612"
    },
    {
      "channel": 4,
      "note": 85,
      "start": 100.8379,
      "duration": 0.0158,
      "velocity": 99,
      "chip": "ym2612"
    },
    {
      "channel": 3,
      "note": 85,
      "start": 100.8468,
      "duration": 0.0148,
      "velocity": 99,
      "chip": "ym2612"
    },
    {
      "channel": 4,
      "note": 93,
      "start": 100.8559,
      "duration": 0.0154,
      "velocity": 99,
      "chip": "ym2612"
    },
    {
      "channel": 3,
      "note": 93,
      "start": 100.8648,
      "duration": 0.0149,
      "velocity": 99,
      "chip": "ym2612"
    },
    {
      "channel": 4,
      "note": 92,
      "start": 100.8736,
      "duration": 0.0179,
      "velocity": 99,
      "chip": "ym2612"
    },
    {
      "channel": 2,
      "note": 54,
      "start": 100.8824,
      "duration": 0.071,
      "velocity": 91,
      "chip": "ym2612"
    },
    {
      "channel": 3,
      "note": 92,
      "start": 100.8836,
      "duration": 0.0161,
      "velocity": 99,
      "chip": "ym2612"
    },
    {
      "channel": 4,
      "note": 85,
      "start": 100.8937,
      "duration": 0.0153,
      "velocity": 99,
      "chip": "ym2612"
    },
    {
      "channel": 3,
      "note": 85,
      "start": 100.9021,
      "duration": 0.015,
      "velocity": 99,
      "chip": "ym2612"
    },
    {
      "channel": 4,
      "note": 93,
      "start": 100.9112,
      "duration": 0.0159,
      "velocity": 99,
      "chip": "ym2612"
    },
    {
      "channel": 3,
      "note": 93,
      "start": 100.92,
      "duration": 0.0153,
      "velocity": 99,
      "chip": "ym2612"
    },
    {
      "channel": 4,
      "note": 92,
      "start": 100.9292,
      "duration": 0.0163,
      "velocity": 99,
      "chip": "ym2612"
    },
    {
      "channel": 3,
      "note": 92,
      "start": 100.9385,
      "duration": 0.0153,
      "velocity": 99,
      "chip": "ym2612"
    },
    {
      "channel": 4,
      "note": 85,
      "start": 100.9478,
      "duration": 0.0173,
      "velocity": 99,
      "chip": "ym2612"
    },
    {
      "channel": 0,
      "note": 83,
      "start": 100.949,
      "duration": 0.052,
      "velocity": 98,
      "chip": "ym2612"
    },
    {
      "channel": 1,
      "note": 78,
      "start": 100.9554,
      "duration": 0.052,
      "velocity": 98,
      "chip": "ym2612"
    },
    {
      "channel": 2,
      "note": 54,
      "start": 100.9559,
      "duration": 0.0705,
      "velocity": 91,
      "chip": "ym2612"
    },
    {
      "channel": 3,
      "note": 85,
      "start": 100.9565,
      "duration": 0.0167,
      "velocity": 99,
      "chip": "ym2612"
    },
    {
      "channel": 4,
      "note": 93,
      "start": 100.9678,
      "duration": 0.0143,
      "velocity": 99,
      "chip": "ym2612"
    },
    {
      "channel": 3,
      "note": 93,
      "start": 100.9757,
      "duration": 0.0142,
      "velocity": 99,
      "chip": "ym2612"
    },
    {
      "channel": 4,
      "note": 92,
      "start": 100.9846,
      "duration": 0.0154,
      "velocity": 99,
      "chip": "ym2612"
    },
    {
      "channel": 3,
      "note": 92,
      "start": 100.9937,
      "duration": 0.0143,
      "velocity": 99,
      "chip": "ym2612"
    },
    {
      "channel": 4,
      "note": 85,
      "start": 101.0022,
      "duration": 0.0158,
      "velocity": 99,
      "chip": "ym2612"
    },
    {
      "channel": 0,
      "note": 85,
      "start": 101.0034,
      "duration": 0.0159,
      "velocity": 98,
      "chip": "ym2612"
    },
    {
      "channel": 1,
      "note": 78,
      "start": 101.0107,
      "duration": 0.0155,
      "velocity": 98,
      "chip": "ym2612"
    },
    {
      "channel": 3,
      "note": 85,
      "start": 101.0116,
      "duration": 0.0152,
      "velocity": 99,
      "chip": "ym2612"
    },
    {
      "channel": 4,
      "note": 93,
      "start": 101.0206,
      "duration": 0.0166,
      "velocity": 99,
      "chip": "ym2612"
    },
    {
      "channel": 0,
      "note": 80,
      "start": 101.0221,
      "duration": 0.0534,
      "velocity": 98,
      "chip": "ym2612"
    },
    {
      "channel": 1,
      "note": 71,
      "start": 101.0291,
      "duration": 0.0533,
      "velocity": 98,
      "chip": "ym2612"
    },
    {
      "channel": 2,
      "note": 52,
      "start": 101.0296,
      "duration": 0.0717,
      "velocity": 91,
      "chip": "ym2612"
    },
    {
      "channel": 3,
      "note": 93,
      "start": 101.0302,
      "duration": 0.0173,
      "velocity": 99,
      "chip": "ym2612"
    },
    {
      "channel": 4,
      "note": 92,
      "start": 101.0405,
      "duration": 0.0165,
      "velocity": 99,
      "chip": "ym2612"
    },
    {
      "channel": 3,
      "note": 92,
      "start": 101.0507,
      "duration": 0.0138,
      "velocity": 99,
      "chip": "ym2612"
    },
    {
      "channel": 4,
      "note": 88,
      "start": 101.0591,
      "duration": 0.0155,
      "velocity": 99,
      "chip": "ym2612"
    },
    {
      "channel": 3,
      "note": 88,
      "start": 101.0679,
      "duration": 0.0151,
      "velocity": 99,
      "chip": "ym2612"
    },
    {
      "channel": 4,
      "note": 95,
      "start": 101.0768,
      "duration": 0.0161,
      "velocity": 99,
      "chip": "ym2612"
    },
    {
      "channel": 0,
      "note": 81,
      "start": 101.078,
      "duration": 0.0159,
      "velocity": 98,
      "chip": "ym2612"
    },
    {
      "channel": 1,
      "note": 76,
      "start": 101.0858,
      "duration": 0.0154,
      "velocity": 98,
      "chip": "ym2612"
    },
    {
      "channel": 3,
      "note": 95,
      "start": 101.0866,
      "duration": 0.0151,
      "velocity": 99,
      "chip": "ym2612"
    },
    {
      "channel": 4,
      "note": 92,
      "start": 101.0951,
      "duration": 0.0158,
      "velocity": 99,
      "chip": "ym2612"
    },
    {
      "channel": 0,
      "note": 83,
      "start": 101.0967,
      "duration": 0.1442,
      "velocity": 98,
      "chip": "ym2612"
    },
    {
      "channel": 1,
      "note": 80,
      "start": 101.1036,
      "duration": 0.144,
      "velocity": 98,
      "chip": "ym2612"
    },
    {
      "channel": 2,
      "note": 52,
      "start": 101.1041,
      "duration": 0.0702,
      "velocity": 91,
      "chip": "ym2612"
    },
    {
      "channel": 3,
      "note": 92,
      "start": 101.1046,
      "duration": 0.0158,
      "velocity": 99,
      "chip": "ym2612"
    },
    {
      "channel": 4,
      "note": 88,
      "start": 101.1131,
      "duration": 0.0181,
      "velocity": 99,
      "chip": "ym2612"
    },
    {
      "channel": 3,
      "note": 88,
      "start": 101.1243,
      "duration": 0.0144,
      "velocity": 99,
      "chip": "ym2612"
    },
    {
      "channel": 4,
      "note": 95,
      "start": 101.1333,
      "duration": 0.015,
      "velocity": 99,
      "chip": "ym2612"
    },
    {
      "channel": 3,
      "note": 95,
      "start": 101.1416,
      "duration": 0.0149,
      "velocity": 99,
      "chip": "ym2612"
    },
    {
      "channel": 4,
      "note": 92,
      "start": 101.1505,
      "duration": 0.0161,
      "velocity": 99,
      "chip": "ym2612"
    },
    {
      "channel": 3,
      "note": 92,
      "start": 101.16,
      "duration": 0.0146,
      "velocity": 99,
      "chip": "ym2612"
    },
    {
      "channel": 4,
      "note": 88,
      "start": 101.1688,
      "duration": 0.0155,
      "velocity": 99,
      "chip": "ym2612"
    },
    {
      "channel": 2,
      "note": 52,
      "start": 101.1768,
      "duration": 0.0711,
      "velocity": 91,
      "chip": "ym2612"
    },
    {
      "channel": 3,
      "note": 88,
      "start": 101.1775,
      "duration": 0.015,
      "velocity": 99,
      "chip": "ym2612"
    },
    {
      "channel": 4,
      "note": 95,
      "start": 101.1866,
      "duration": 0.0183,
      "velocity": 99,
      "chip": "ym2612"
    },
    {
      "channel": 3,
      "note": 95,
      "start": 101.1961,
      "duration": 0.0167,
      "velocity": 99,
      "chip": "ym2612"
    },
    {
      "channel": 4,
      "note": 92,
      "start": 101.2072,
      "duration": 0.0147,
      "velocity": 99,
      "chip": "ym2612"
    },
    {
      "channel": 3,
      "note": 92,
      "start": 101.215,
      "duration": 0.0149,
      "velocity": 99,
      "chip": "ym2612"
    },
    {
      "channel": 4,
      "note": 88,
      "start": 101.2241,
      "duration": 0.0158,
      "velocity": 99,
      "chip": "ym2612"
    },
    {
      "channel": 3,
      "note": 88,
      "start": 101.233,
      "duration": 0.0152,
      "velocity": 99,
      "chip": "ym2612"
    },
    {
      "channel": 4,
      "note": 95,
      "start": 101.2423,
      "duration": 0.015,
      "velocity": 99,
      "chip": "ym2612"
    },
    {
      "channel": 0,
      "note": 81,
      "start": 101.2434,
      "duration": 0.0517,
      "velocity": 98,
      "chip": "ym2612"
    },
    {
      "channel": 1,
      "note": 78,
      "start": 101.2499,
      "duration": 0.0517,
      "velocity": 98,
      "chip": "ym2612"
    },
    {
      "channel": 2,
      "note": 52,
      "start": 101.2504,
      "duration": 0.0701,
      "velocity": 91,
      "chip": "ym2612"
    },
    {
      "channel": 3,
      "note": 95,
      "start": 101.251,
      "duration": 0.0139,
      "velocity": 99,
      "chip": "ym2612"
    },
    {
      "channel": 4,
      "note": 92,
      "start": 101.2594,
      "duration": 0.0169,
      "velocity": 99,
      "chip": "ym2612"
    },
    {
      "channel": 3,
      "note": 92,
      "start": 101.2681,
      "duration": 0.0167,
      "velocity": 99,
      "chip": "ym2612"
    },
    {
      "channel": 4,
      "note": 88,
      "start": 101.2791,
      "duration": 0.0147,
      "velocity": 99,
      "chip": "ym2612"
    },
    {
      "channel": 3,
      "note": 88,
      "start": 101.2876,
      "duration": 0.0147,
      "velocity": 99,
      "chip": "ym2612"
    },
    {
      "channel": 4,
      "note": 95,
      "start": 101.2964,
      "duration": 0.0162,
      "velocity": 99,
      "chip": "ym2612"
    },
    {
      "channel": 0,
      "note": 80,
      "start": 101.2976,
      "duration": 0.016,
      "velocity": 98,
      "chip": "ym2612"
    },
    {
      "channel": 1,
      "note": 76,
      "start": 101.3054,
      "duration": 0.0149,
      "velocity": 98,
      "chip": "ym2612"
    },
    {
      "channel": 3,
      "note": 95,
      "start": 101.3062,
      "duration": 0.0146,
      "velocity": 99,
      "chip": "ym2612"
    },
    {
      "channel": 4,
      "note": 92,
      "start": 101.3151,
      "duration": 0.0151,
      "velocity": 99,
      "chip": "ym2612"
    },
    {
      "channel": 0,
      "note": 78,
      "start": 101.3163,
      "duration": 0.0706,
      "velocity": 98,
      "chip": "ym2612"
    },
    {
      "channel": 1,
      "note": 74,
      "start": 101.3227,
      "duration": 0.0712,
      "velocity": 98,
      "chip": "ym2612"
    },
    {
      "channel": 2,
      "note": 50,
      "start": 101.3232,
      "duration": 0.071,
      "velocity": 91,
      "chip": "ym2612"
    },
    {
      "channel": 3,
      "note": 92,
      "start": 101.3237,
      "duration": 0.0143,
      "velocity": 99,
      "chip": "ym2612"
    },
    {
      "channel": 4,
      "note": 93,
      "start": 101.3327,
      "duration": 0.0149,
      "velocity": 99,
      "chip": "ym2612"
    },
    {
      "channel": 3,
      "note": 93,
      "start": 101.3412,
      "duration": 0.0166,
      "velocity": 99,
      "chip": "ym2612"
    },
    {
      "channel": 4,
      "note": 90,
      "start": 101.3499,
      "duration": 0.0178,
      "velocity": 99,
      "chip": "ym2612"
    },
    {
      "channel": 3,
      "note": 90,
      "start": 101.3615,
      "duration": 0.0141,
      "velocity": 99,
      "chip": "ym2612"
    },
    {
      "channel": 4,
      "note": 85,
      "start": 101.3699,
      "duration": 0.016,
      "velocity": 99,
      "chip": "ym2612"
    },
    {
      "channel": 3,
      "note": 85,
      "start": 101.379,
      "duration": 0.0155,
      "velocity": 99,
      "chip": "ym2612"
    },
    {
      "channel": 4,
      "note": 93,
      "start": 101.3882,
      "duration": 0.0155,
      "velocity": 99,
      "chip": "ym2612"
    },
    {
      "channel": 0,
      "note": 90,
      "start": 101.3894,
      "duration": 0.1783,
      "velocity": 98,
      "chip": "ym2612"
    },
    {
      "channel": 1,
      "note": 81,
      "start": 101.3963,
      "duration": 0.1425,
      "velocity": 98,
      "chip": "ym2612"
    },
    {
      "channel": 2,
      "note": 50,
      "start": 101.3968,
      "duration": 0.0698,
      "velocity": 91,
      "chip": "ym2612"
    },
    {
      "channel": 3,
      "note": 93,
      "start": 101.3974,
      "duration": 0.0142,
      "velocity": 99,
      "chip": "ym2612"
    },
    {
      "channel": 4,
      "note": 90,
      "start": 101.4058,
      "duration": 0.0153,
      "velocity": 99,
      "chip": "ym2612"
    },
    {
      "channel": 3,
      "note": 90,
      "start": 101.4148,
      "duration": 0.0145,
      "velocity": 99,
      "chip": "ym2612"
    },
    {
      "channel": 4,
      "note": 85,
      "start": 101.4233,
      "duration": 0.0178,
      "velocity": 99,
      "chip": "ym2612"
    },
    {
      "channel": 3,
      "note": 85,
      "start": 101.4338,
      "duration": 0.0151,
      "velocity": 99,
      "chip": "ym2612"
    },
    {
      "channel": 4,
      "note": 93,
      "start": 101.4433,
      "duration": 0.0156,
      "velocity": 99,
      "chip": "ym2612"
    },
    {
      "channel": 3,
      "note": 93,
      "start": 101.452,
      "duration": 0.0149,
      "velocity": 99,
      "chip": "ym2612"
    },
    {
      "channel": 4,
      "note": 90,
      "start": 101.4611,
      "duration": 0.0152,
      "velocity": 99,
      "chip": "ym2612"
    },
    {
      "channel": 2,
      "note": 50,
      "start": 101.4691,
      "duration": 0.07,
      "velocity": 91,
      "chip": "ym2612"
    },
    {
      "channel": 3,
      "note": 90,
      "start": 101.4697,
      "duration": 0.0144,
      "velocity": 99,
      "chip": "ym2612"
    },
    {
      "channel": 4,
      "note": 85,
      "start": 101.4784,
      "duration": 0.0152,
      "velocity": 99,
      "chip": "ym2612"
    },
    {
      "channel": 3,
      "note": 85,
      "start": 101.4871,
      "duration": 0.0151,
      "velocity": 99,
      "chip": "ym2612"
    },
    {
      "channel": 4,
      "note": 93,
      "start": 101.4959,
      "duration": 0.0183,
      "velocity": 99,
      "chip": "ym2612"
    },
    {
      "channel": 3,
      "note": 93,
      "start": 101.5052,
      "duration": 0.017,
      "velocity": 99,
      "chip": "ym2612"
    },
    {
      "channel": 4,
      "note": 90,
      "start": 101.5164,
      "duration": 0.015,
      "velocity": 99,
      "chip": "ym2612"
    },
    {
      "channel": 3,
      "note": 90,
      "start": 101.5248,
      "duration": 0.0147,
      "velocity": 99,
      "chip": "ym2612"
    },
    {
      "channel": 4,
      "note": 85,
      "start": 101.5336,
      "duration": 0.0157,
      "velocity": 99,
      "chip": "ym2612"
    },
    {
      "channel": 1,
      "note": 81,
      "start": 101.5415,
      "duration": 0.0327,
      "velocity": 98,
      "chip": "ym2612"
    },
    {
      "channel": 2,
      "note": 50,
      "start": 101.542,
      "duration": 0.071,
      "velocity": 91,
      "chip": "ym2612"
    },
    {
      "channel": 3,
      "note": 85,
      "start": 101.5426,
      "duration": 0.0149,
      "velocity": 99,
      "chip": "ym2612"
    },
    {
      "channel": 4,
      "note": 93,
      "start": 101.5515,
      "duration": 0.0152,
      "velocity": 99,
      "chip": "ym2612"
    },
    {
      "channel": 3,
      "note": 93,
      "start": 101.5604,
      "duration": 0.0143,
      "velocity": 99,
      "chip": "ym2612"
    },
    {
      "channel": 4,
      "note": 90,
      "start": 101.569,
      "duration": 0.0162,
      "velocity": 99,
      "chip": "ym2612"
    },
    {
      "channel": 0,
      "note": 88,
      "start": 101.5701,
      "duration": 0.0166,
      "velocity": 98,
      "chip": "ym2612"
    },
    {
      "channel": 1,
      "note": 83,
      "start": 101.577,
      "duration": 0.0177,
      "velocity": 98,
      "chip": "ym2612"
    },
    {
      "channel": 3,
      "note": 90,
      "start": 101.5778,
      "duration": 0.0175,
      "velocity": 99,
      "chip": "ym2612"
    },
    {
      "channel": 4,
      "note": 85,
      "start": 101.5887,
      "duration": 0.0163,
      "velocity": 99,
      "chip": "ym2612"
    },
    {
      "channel": 0,
      "note": 86,
      "start": 101.5902,
      "duration": 0.0161,
      "velocity": 98,
      "chip": "ym2612"
    },
    {
      "channel": 1,
      "note": 81,
      "start": 101.5976,
      "duration": 0.0151,
      "velocity": 98,
      "chip": "ym2612"
    },
    {
      "channel": 3,
      "note": 85,
      "start": 101.5985,
      "duration": 0.0148,
      "velocity": 99,
      "chip": "ym2612"
    },
    {
      "channel": 4,
      "note": 93,
      "start": 101.6075,
      "duration": 0.0156,
      "velocity": 99,
      "chip": "ym2612"
    },
    {
      "channel": 0,
      "note": 85,
      "start": 101.6087,
      "duration": 0.2206,
      "velocity": 98,
      "chip": "ym2612"
    },
    {
      "channel": 1,
      "note": 80,
      "start": 101.6156,
      "duration": 0.2213,
      "velocity": 98,
      "chip": "ym2612"
    },
    {
      "channel": 2,
      "note": 49,
      "start": 101.6161,
      "duration": 0.071,
      "velocity": 91,
      "chip": "ym2612"
    },
    {
      "channel": 3,
      "note": 93,
      "start": 101.6167,
      "duration": 0.0139,
      "velocity": 99,
      "chip": "ym2612"
    },
    {
      "channel": 4,
      "note": 92,
      "start": 101.6252,
      "duration": 0.0148,
      "velocity": 99,
      "chip": "ym2612"
    },
    {
      "channel": 3,
      "note": 92,
      "start": 101.6336,
      "duration": 0.0143,
      "velocity": 99,
      "chip": "ym2612"
    },
    {
      "channel": 4,
      "note": 90,
      "start": 101.6425,
      "duration": 0.0155,
      "velocity": 99,
      "chip": "ym2612"
    },
    {
      "channel": 3,
      "note": 90,
      "start": 101.6517,
      "duration": 0.0165,
      "velocity": 99,
      "chip": "ym2612"
    },
    {
      "channel": 4,
      "note": 89,
      "start": 101.6602,
      "duration": 0.0188,
      "velocity": 99,
      "chip": "ym2612"
    },
    {
      "channel": 3,
      "note": 89,
      "start": 101.6724,
      "duration": 0.015,
      "velocity": 99,
      "chip": "ym2612"
    },
    {
      "channel": 4,
      "note": 92,
      "start": 101.6817,
      "duration": 0.0164,
      "velocity": 99,
      "chip": "ym2612"
    },
    {
      "channel": 2,
      "note": 49,
      "start": 101.6909,
      "duration": 0.0705,
      "velocity": 91,
      "chip": "ym2612"
    },
    {
      "channel": 3,
      "note": 92,
      "start": 101.6915,
      "duration": 0.0144,
      "velocity": 99,
      "chip": "ym2612"
    },
    {
      "channel": 4,
      "note": 90,
      "start": 101.7003,
      "duration": 0.0156,
      "velocity": 99,
      "chip": "ym2612"
    },
    {
      "channel": 3,
      "note": 90,
      "start": 101.709,
      "duration": 0.0147,
      "velocity": 99,
      "chip": "ym2612"
    },
    {
      "channel": 4,
      "note": 89,
      "start": 101.718,
      "duration": 0.015,
      "velocity": 99,
      "chip": "ym2612"
    },
    {
      "channel": 3,
      "note": 89,
      "start": 101.7266,
      "duration": 0.0151,
      "velocity": 99,
      "chip": "ym2612"
    },
    {
      "channel": 4,
      "note": 92,
      "start": 101.7353,
      "duration": 0.0184,
      "velocity": 99,
      "chip": "ym2612"
    },
    {
      "channel": 3,
      "note": 92,
      "start": 101.7461,
      "duration": 0.0157,
      "velocity": 99,
      "chip": "ym2612"
    },
    {
      "channel": 4,
      "note": 90,
      "start": 101.756,
      "duration": 0.0163,
      "velocity": 99,
      "chip": "ym2612"
    },
    {
      "channel": 2,
      "note": 49,
      "start": 101.7651,
      "duration": 0.0721,
      "velocity": 91,
      "chip": "ym2612"
    },
    {
      "channel": 3,
      "note": 90,
      "start": 101.7657,
      "duration": 0.0147,
      "velocity": 99,
      "chip": "ym2612"
    },
    {
      "channel": 4,
      "note": 89,
      "start": 101.7744,
      "duration": 0.0156,
      "velocity": 99,
      "chip": "ym2612"
    },
    {
      "channel": 3,
      "note": 89,
      "start": 101.7834,
      "duration": 0.0144,
      "velocity": 99,
      "chip": "ym2612"
    },
    {
      "channel": 4,
      "note": 92,
      "start": 101.7921,
      "duration": 0.0156,
      "velocity": 99,
      "chip": "ym2612"
    },
    {
      "channel": 3,
      "note": 92,
      "start": 101.8007,
      "duration": 0.0148,
      "velocity": 99,
      "chip": "ym2612"
    },
    {
      "channel": 4,
      "note": 90,
      "start": 101.8099,
      "duration": 0.0178,
      "velocity": 99,
      "chip": "ym2612"
    },
    {
      "channel": 3,
      "note": 90,
      "start": 101.8187,
      "duration": 0.0189,
      "velocity": 99,
      "chip": "ym2612"
    },
    {
      "channel": 4,
      "note": 89,
      "start": 101.8307,
      "duration": 0.0177,
      "velocity": 99,
      "chip": "ym2612"
    },
    {
      "channel": 0,
      "note": 85,
      "start": 101.8323,
      "duration": 0.071,
      "velocity": 98,
      "chip": "ym2612"
    },
    {
      "channel": 1,
      "note": 80,
      "start": 101.8407,
      "duration": 0.0713,
      "velocity": 98,
      "chip": "ym2612"
    },
    {
      "channel": 2,
      "note": 49,
      "start": 101.8412,
      "duration": 0.071,
      "velocity": 91,
      "chip": "ym2612"
    },
    {
      "channel": 3,
      "note": 89,
      "start": 101.8418,
      "duration": 0.0146,
      "velocity": 99,
      "chip": "ym2612"
    },
    {
      "channel": 4,
      "note": 92,
      "start": 101.8506,
      "duration": 0.0157,
      "velocity": 99,
      "chip": "ym2612"
    },
    {
      "channel": 3,
      "note": 92,
      "start": 101.8596,
      "duration": 0.0146,
      "velocity": 99,
      "chip": "ym2612"
    },
    {
      "channel": 4,
      "note": 90,
      "start": 101.8684,
      "duration": 0.0154,
      "velocity": 99,
      "chip": "ym2612"
    },
    {
      "channel": 3,
      "note": 90,
      "start": 101.8776,
      "duration": 0.014,
      "velocity": 99,
      "chip": "ym2612"
    },
    {
      "channel": 4,
      "note": 89,
      "start": 101.886,
      "duration": 0.0157,
      "velocity": 99,
      "chip": "ym2612"
    },
    {
      "channel": 3,
      "note": 89,
      "start": 101.8952,
      "duration": 0.0174,
      "velocity": 99,
      "chip": "ym2612"
    },
    {
      "channel": 4,
      "note": 92,
      "start": 101.9053,
      "duration": 0.0217,
      "velocity": 99,
      "chip": "ym2612"
    },
    {
      "channel": 0,
      "note": 85,
      "start": 101.9064,
      "duration": 0.0753,
      "velocity": 98,
      "chip": "ym2612"
    },
    {
      "channel": 1,
      "note": 81,
      "start": 101.9161,
      "duration": 0.0739,
      "velocity": 98,
      "chip": "ym2612"
    },
    {
      "channel": 2,
      "note": 54,
      "start": 101.9198,
      "duration": 0.0707,
      "velocity": 91,
      "chip": "ym2612"
    },
    {
      "channel": 3,
      "note": 92,
      "start": 101.9206,
      "duration": 0.0143,
      "velocity": 99,
      "chip": "ym2612"
    },
    {
      "channel": 4,
      "note": 93,
      "start": 101.9295,
      "duration": 0.0152,
      "velocity": 99,
      "chip": "ym2612"
    },
    {
      "channel": 3,
      "note": 93,
      "start": 101.9384,
      "duration": 0.0139,
      "velocity": 99,
      "chip": "ym2612"
    },
    {
      "channel": 4,
      "note": 92,
      "start": 101.9469,
      "duration": 0.0151,
      "velocity": 99,
      "chip": "ym2612"
    },
    {
      "channel": 3,
      "note": 92,
      "start": 101.9557,
      "duration": 0.0141,
      "velocity": 99,
      "chip": "ym2612"
    },
    {
      "channel": 4,
      "note": 85,
      "start": 101.9641,
      "duration": 0.0162,
      "velocity": 99,
      "chip": "ym2612"
    },
    {
      "channel": 3,
      "note": 85,
      "start": 101.9738,
      "duration": 0.0175,
      "velocity": 99,
      "chip": "ym2612"
    },
    {
      "channel": 4,
      "note": 93,
      "start": 101.983,
      "duration": 0.0188,
      "velocity": 99,
      "chip": "ym2612"
    },
    {
      "channel": 0,
      "note": 78,
      "start": 101.9847,
      "duration": 0.1643,
      "velocity": 98,
      "chip": "ym2612"
    },
    {
      "channel": 1,
      "note": 73,
      "start": 101.9937,
      "duration": 0.1421,
      "velocity": 98,
      "chip": "ym2612"
    },
    {
      "channel": 2,
      "note": 54,
      "start": 101.9942,
      "duration": 0.0686,
      "velocity": 91,
      "chip": "ym2612"
    },
    {
      "channel": 3,
      "note": 93,
      "start": 101.9948,
      "duration": 0.0146,
      "velocity": 99,
      "chip": "ym2612"
    },
    {
      "channel": 4,
      "note": 92,
      "start": 102.0039,
      "duration": 0.0143,
      "velocity": 99,
      "chip": "ym2612"
    },
    {
      "channel": 3,
      "note": 92,
      "start": 102.012,
      "duration": 0.0143,
      "velocity": 99,
      "chip": "ym2612"
    },
    {
      "channel": 4,
      "note": 85,
      "start": 102.0208,
      "duration": 0.0159,
      "velocity": 99,
      "chip": "ym2612"
    },
    {
      "channel": 3,
      "note": 85,
      "start": 102.0296,
      "duration": 0.0149,
      "velocity": 99,
      "chip": "ym2612"
    },
    {
      "channel": 4,
      "note": 93,
      "start": 102.0389,
      "duration": 0.0158,
      "velocity": 99,
      "chip": "ym2612"
    },
    {
      "channel": 3,
      "note": 93,
      "start": 102.0481,
      "duration": 0.0149,
      "velocity": 99,
      "chip": "ym2612"
    },
    {
      "channel": 4,
      "note": 92,
      "start": 102.0569,
      "duration": 0.0181,
      "velocity": 99,
      "chip": "ym2612"
    },
    {
      "channel": 2,
      "note": 54,
      "start": 102.0658,
      "duration": 0.0703,
      "velocity": 91,
      "chip": "ym2612"
    },
    {
      "channel": 3,
      "note": 92,
      "start": 102.0669,
      "duration": 0.016,
      "velocity": 99,
      "chip": "ym2612"
    },
    {
      "channel": 4,
      "note": 85,
      "start": 102.0772,
      "duration": 0.0151,
      "velocity": 99,
      "chip": "ym2612"
    },
    {
      "channel": 3,
      "note": 85,
      "start": 102.0853,
      "duration": 0.0148,
      "velocity": 99,
      "chip": "ym2612"
    },
    {
      "channel": 4,
      "note": 93,
      "start": 102.0945,
      "duration": 0.0151,
      "velocity": 99,
      "chip": "ym2612"
    },
    {
      "channel": 3,
      "note": 93,
      "start": 102.103,
      "duration": 0.0148,
      "velocity": 99,
      "chip": "ym2612"
    },
    {
      "channel": 4,
      "note": 92,
      "start": 102.1117,
      "duration": 0.0162,
      "velocity": 99,
      "chip": "ym2612"
    },
    {
      "channel": 3,
      "note": 92,
      "start": 102.121,
      "duration": 0.0155,
      "velocity": 99,
      "chip": "ym2612"
    },
    {
      "channel": 4,
      "note": 85,
      "start": 102.1302,
      "duration": 0.0178,
      "velocity": 99,
      "chip": "ym2612"
    },
    {
      "channel": 1,
      "note": 73,
      "start": 102.1384,
      "duration": 0.018,
      "velocity": 98,
      "chip": "ym2612"
    },
    {
      "channel": 2,
      "note": 54,
      "start": 102.1388,
      "duration": 0.0737,
      "velocity": 91,
      "chip": "ym2612"
    },
    {
      "channel": 3,
      "note": 85,
      "start": 102.1395,
      "duration": 0.0175,
      "velocity": 99,
      "chip": "ym2612"
    },
    {
      "channel": 4,
      "note": 93,
      "start": 102.1509,
      "duration": 0.0171,
      "velocity": 99,
      "chip": "ym2612"
    },
    {
      "channel": 0,
      "note": 78,
      "start": 102.1523,
      "duration": 0.0166,
      "velocity": 98,
      "chip": "ym2612"
    },
    {
      "channel": 1,
      "note": 73,
      "start": 102.1609,
      "duration": 0.0325,
      "velocity": 98,
      "chip": "ym2612"
    },
    {
      "channel": 3,
      "note": 93,
      "start": 102.1617,
      "duration": 0.0145,
      "velocity": 99,
      "chip": "ym2612"
    },
    {
      "channel": 4,
      "note": 92,
      "start": 102.1702,
      "duration": 0.0154,
      "velocity": 99,
      "chip": "ym2612"
    },
    {
      "channel": 0,
      "note": 80,
      "start": 102.1717,
      "duration": 0.0149,
      "velocity": 98,
      "chip": "ym2612"
    },
    {
      "channel": 3,
      "note": 92,
      "start": 102.179,
      "duration": 0.015,
      "velocity": 99,
      "chip": "ym2612"
    },
    {
      "channel": 4,
      "note": 85,
      "start": 102.1879,
      "duration": 0.0161,
      "velocity": 99,
      "chip": "ym2612"
    },
    {
      "channel": 0,
      "note": 81,
      "start": 102.1894,
      "duration": 0.0155,
      "velocity": 98,
      "chip": "ym2612"
    },
    {
      "channel": 1,
      "note": 78,
      "start": 102.1967,
      "duration": 0.0155,
      "velocity": 98,
      "chip": "ym2612"
    },
    {
      "channel": 3,
      "note": 85,
      "start": 102.1976,
      "duration": 0.0153,
      "velocity": 99,
      "chip": "ym2612"
    },
    {
      "channel": 4,
      "note": 93,
      "start": 102.2063,
      "duration": 0.0168,
      "velocity": 99,
      "chip": "ym2612"
    },
    {
      "channel": 0,
      "note": 83,
      "start": 102.2078,
      "duration": 0.1103,
      "velocity": 98,
      "chip": "ym2612"
    },
    {
      "channel": 1,
      "note": 80,
      "start": 102.2149,
      "duration": 0.1099,
      "velocity": 98,
      "chip": "ym2612"
    },
    {
      "channel": 2,
      "note": 52,
      "start": 102.2154,
      "duration": 0.0712,
      "velocity": 91,
      "chip": "ym2612"
    },
    {
      "channel": 3,
      "note": 93,
      "start": 102.2159,
      "duration": 0.0173,
      "velocity": 99,
      "chip": "ym2612"
    },
    {
      "channel": 4,
      "note": 92,
      "start": 102.2257,
      "duration": 0.0171,
      "velocity": 99,
      "chip": "ym2612"
    },
    {
      "channel": 3,
      "note": 92,
      "start": 102.2365,
      "duration": 0.0139,
      "velocity": 99,
      "chip": "ym2612"
    },
    {
      "channel": 4,
      "note": 88,
      "start": 102.245,
      "duration": 0.0152,
      "velocity": 99,
      "chip": "ym2612"
    },
    {
      "channel": 3,
      "note": 88,
      "start": 102.2534,
      "duration": 0.0148,
      "velocity": 99,
      "chip": "ym2612"
    },
    {
      "channel": 4,
      "note": 95,
      "start": 102.2627,
      "duration": 0.0158,
      "velocity": 99,
      "chip": "ym2612"
    },
    {
      "channel": 3,
      "note": 95,
      "start": 102.272,
      "duration": 0.0149,
      "velocity": 99,
      "chip": "ym2612"
    },
    {
      "channel": 4,
      "note": 92,
      "start": 102.2807,
      "duration": 0.0155,
      "velocity": 99,
      "chip": "ym2612"
    },
    {
      "channel": 2,
      "note": 52,
      "start": 102.2891,
      "duration": 0.0726,
      "velocity": 91,
      "chip": "ym2612"
    },
    {
      "channel": 3,
      "note": 92,
      "start": 102.2897,
      "duration": 0.0157,
      "velocity": 99,
      "chip": "ym2612"
    },
    {
      "channel": 4,
      "note": 88,
      "start": 102.2988,
      "duration": 0.0183,
      "velocity": 99,
      "chip": "ym2612"
    },
    {
      "channel": 3,
      "note": 88,
      "start": 102.3095,
      "duration": 0.0158,
      "velocity": 99,
      "chip": "ym2612"
    },
    {
      "channel": 4,
      "note": 95,
      "start": 102.3195,
      "duration": 0.0164,
      "velocity": 99,
      "chip": "ym2612"
    },
    {
      "channel": 0,
      "note": 83,
      "start": 102.3206,
      "duration": 0.0166,
      "velocity": 98,
      "chip": "ym2612"
    },
    {
      "channel": 1,
      "note": 76,
      "start": 102.3284,
      "duration": 0.0331,
      "velocity": 98,
      "chip": "ym2612"
    },
    {
      "channel": 3,
      "note": 95,
      "start": 102.3292,
      "duration": 0.015,
      "velocity": 99,
      "chip": "ym2612"
    },
    {
      "channel": 4,
      "note": 92,
      "start": 102.3384,
      "duration": 0.0157,
      "velocity": 99,
      "chip": "ym2612"
    },
    {
      "channel": 0,
      "note": 81,
      "start": 102.3396,
      "duration": 0.0154,
      "velocity": 98,
      "chip": "ym2612"
    },
    {
      "channel": 3,
      "note": 92,
      "start": 102.3474,
      "duration": 0.0146,
      "velocity": 99,
      "chip": "ym2612"
    },
    {
      "channel": 4,
      "note": 88,
      "start": 102.3563,
      "duration": 0.0162,
      "velocity": 99,
      "chip": "ym2612"
    },
    {
      "channel": 0,
      "note": 80,
      "start": 102.3575,
      "duration": 0.1075,
      "velocity": 98,
      "chip": "ym2612"
    },
    {
      "channel": 1,
      "note": 71,
      "start": 102.3647,
      "duration": 0.1086,
      "velocity": 98,
      "chip": "ym2612"
    },
    {
      "channel": 2,
      "note": 52,
      "start": 102.3652,
      "duration": 0.0695,
      "velocity": 91,
      "chip": "ym2612"
    },
    {
      "channel": 3,
      "note": 88,
      "start": 102.3658,
      "duration": 0.0142,
      "velocity": 99,
      "chip": "ym2612"
    },
    {
      "channel": 4,
      "note": 95,
      "start": 102.3746,
      "duration": 0.0173,
      "velocity": 99,
      "chip": "ym2612"
    },
    {
      "channel": 3,
      "note": 95,
      "start": 102.3832,
      "duration": 0.0163,
      "velocity": 99,
      "chip": "ym2612"
    },
    {
      "channel": 4,
      "note": 92,
      "start": 102.3941,
      "duration": 0.0149,
      "velocity": 99,
      "chip": "ym2612"
    },
    {
      "channel": 3,
      "note": 92,
      "start": 102.4023,
      "duration": 0.0145,
      "velocity": 99,
      "chip": "ym2612"
    },
    {
      "channel": 4,
      "note": 88,
      "start": 102.4112,
      "duration": 0.0159,
      "velocity": 99,
      "chip": "ym2612"
    },
    {
      "channel": 3,
      "note": 88,
      "start": 102.4205,
      "duration": 0.0146,
      "velocity": 99,
      "chip": "ym2612"
    },
    {
      "channel": 4,
      "note": 95,
      "start": 102.4293,
      "duration": 0.0152,
      "velocity": 99,
      "chip": "ym2612"
    },
    {
      "channel": 2,
      "note": 52,
      "start": 102.4373,
      "duration": 0.0738,
      "velocity": 91,
      "chip": "ym2612"
    },
    {
      "channel": 3,
      "note": 95,
      "start": 102.438,
      "duration": 0.0147,
      "velocity": 99,
      "chip": "ym2612"
    },
    {
      "channel": 4,
      "note": 92,
      "start": 102.4467,
      "duration": 0.0171,
      "velocity": 99,
      "chip": "ym2612"
    },
    {
      "channel": 3,
      "note": 92,
      "start": 102.4556,
      "duration": 0.0183,
      "velocity": 99,
      "chip": "ym2612"
    },
    {
      "channel": 4,
      "note": 88,
      "start": 102.4669,
      "duration": 0.0182,
      "velocity": 99,
      "chip": "ym2612"
    },
    {
      "channel": 0,
      "note": 74,
      "start": 102.4684,
      "duration": 0.0176,
      "velocity": 98,
      "chip": "ym2612"
    },
    {
      "channel": 1,
      "note": 71,
      "start": 102.4776,
      "duration": 0.0332,
      "velocity": 98,
      "chip": "ym2612"
    },
    {
      "channel": 3,
      "note": 88,
      "start": 102.4785,
      "duration": 0.0145,
      "velocity": 99,
      "chip": "ym2612"
    },
    {
      "channel": 4,
      "note": 95,
      "start": 102.4873,
      "duration": 0.0156,
      "velocity": 99,
      "chip": "ym2612"
    },
    {
      "channel": 0,
      "note": 76,
      "start": 102.4885,
      "duration": 0.0154,
      "velocity": 98,
      "chip": "ym2612"
    },
    {
      "channel": 3,
      "note": 95,
      "start": 102.4961,
      "duration": 0.0153,
      "velocity": 99,
      "chip": "ym2612"
    },
    {
      "channel": 4,
      "note": 92,
      "start": 102.5052,
      "duration": 0.0158,
      "velocity": 99,
      "chip": "ym2612"
    },
    {
      "channel": 0,
      "note": 78,
      "start": 102.5064,
      "duration": 0.1059,
      "velocity": 98,
      "chip": "ym2612"
    },
    {
      "channel": 1,
      "note": 73,
      "start": 102.5135,
      "duration": 0.1057,
      "velocity": 98,
      "chip": "ym2612"
    },
    {
      "channel": 2,
      "note": 50,
      "start": 102.514,
      "duration": 0.0695,
      "velocity": 91,
      "chip": "ym2612"
    },
    {
      "channel": 3,
      "note": 92,
      "start": 102.5147,
      "duration": 0.0139,
      "velocity": 99,
      "chip": "ym2612"
    },
    {
      "channel": 4,
      "note": 93,
      "start": 102.5232,
      "duration": 0.0148,
      "velocity": 99,
      "chip": "ym2612"
    },
    {
      "channel": 3,
      "note": 93,
      "start": 102.5316,
      "duration": 0.0162,
      "velocity": 99,
      "chip": "ym2612"
    },
    {
      "channel": 4,
      "note": 90,
      "start": 102.5401,
      "duration": 0.0179,
      "velocity": 99,
      "chip": "ym2612"
    },
    {
      "channel": 3,
      "note": 90,
      "start": 102.5518,
      "duration": 0.0144,
      "velocity": 99,
      "chip": "ym2612"
    },
    {
      "channel": 4,
      "note": 85,
      "start": 102.5607,
      "duration": 0.0152,
      "velocity": 99,
      "chip": "ym2612"
    },
    {
      "channel": 3,
      "note": 85,
      "start": 102.5693,
      "duration": 0.0146,
      "velocity": 99,
      "chip": "ym2612"
    },
    {
      "channel": 4,
      "note": 93,
      "start": 102.5781,
      "duration": 0.0156,
      "velocity": 99,
      "chip": "ym2612"
    },
    {
      "channel": 2,
      "note": 50,
      "start": 102.5861,
      "duration": 0.0703,
      "velocity": 91,
      "chip": "ym2612"
    },
    {
      "channel": 3,
      "note": 93,
      "start": 102.5868,
      "duration": 0.0151,
      "velocity": 99,
      "chip": "ym2612"
    },
    {
      "channel": 4,
      "note": 90,
      "start": 102.5963,
      "duration": 0.0151,
      "velocity": 99,
      "chip": "ym2612"
    },
    {
      "channel": 3,
      "note": 90,
      "start": 102.6048,
      "duration": 0.015,
      "velocity": 99,
      "chip": "ym2612"
    },
    {
      "channel": 4,
      "note": 85,
      "start": 102.6137,
      "duration": 0.0176,
      "velocity": 99,
      "chip": "ym2612"
    },
    {
      "channel": 0,
      "note": 76,
      "start": 102.6148,
      "duration": 0.0173,
      "velocity": 98,
      "chip": "ym2612"
    },
    {
      "channel": 1,
      "note": 71,
      "start": 102.6224,
      "duration": 0.0163,
      "velocity": 98,
      "chip": "ym2612"
    },
    {
      "channel": 3,
      "note": 85,
      "start": 102.6238,
      "duration": 0.0154,
      "velocity": 99,
      "chip": "ym2612"
    },
    {
      "channel": 4,
      "note": 93,
      "start": 102.6334,
      "duration": 0.0153,
      "velocity": 99,
      "chip": "ym2612"
    },
    {
      "channel": 0,
      "note": 74,
      "start": 102.6346,
      "duration": 0.015,
      "velocity": 98,
      "chip": "ym2612"
    },
    {
      "channel": 1,
      "note": 69,
      "start": 102.6412,
      "duration": 0.015,
      "velocity": 98,
      "chip": "ym2612"
    },
    {
      "channel": 3,
      "note": 93,
      "start": 102.642,
      "duration": 0.0148,
      "velocity": 99,
      "chip": "ym2612"
    },
    {
      "channel": 4,
      "note": 90,
      "start": 102.6509,
      "duration": 0.0155,
      "velocity": 99,
      "chip": "ym2612"
    },
    {
      "channel": 0,
      "note": 78,
      "start": 102.6522,
      "duration": 0.0717,
      "velocity": 98,
      "chip": "ym2612"
    },
    {
      "channel": 1,
      "note": 73,
      "start": 102.6587,
      "duration": 0.0718,
      "velocity": 98,
      "chip": "ym2612"
    },
    {
      "channel": 2,
      "note": 50,
      "start": 102.6592,
      "duration": 0.0716,
      "velocity": 91,
      "chip": "ym2612"
    },
    {
      "channel": 3,
      "note": 90,
      "start": 102.6598,
      "duration": 0.015,
      "velocity": 99,
      "chip": "ym2612"
    },
    {
      "channel": 4,
      "note": 85,
      "start": 102.669,
      "duration": 0.0153,
      "velocity": 99,
      "chip": "ym2612"
    },
    {
      "channel": 3,
      "note": 85,
      "start": 102.678,
      "duration": 0.0142,
      "velocity": 99,
      "chip": "ym2612"
    },
    {
      "channel": 4,
      "note": 93,
      "start": 102.6868,
      "duration": 0.0179,
      "velocity": 99,
      "chip": "ym2612"
    },
    {
      "channel": 3,
      "note": 93,
      "start": 102.696,
      "duration": 0.017,
      "velocity": 99,
      "chip": "ym2612"
    },
    {
      "channel": 4,
      "note": 90,
      "start": 102.7074,
      "duration": 0.0156,
      "velocity": 99,
      "chip": "ym2612"
    },
    {
      "channel": 3,
      "note": 90,
      "start": 102.7161,
      "duration": 0.0151,
      "velocity": 99,
      "chip": "ym2612"
    },
    {
      "channel": 4,
      "note": 85,
      "start": 102.7252,
      "duration": 0.0154,
      "velocity": 99,
      "chip": "ym2612"
    },
    {
      "channel": 0,
      "note": 81,
      "start": 102.7264,
      "duration": 0.071,
      "velocity": 98,
      "chip": "ym2612"
    },
    {
      "channel": 1,
      "note": 78,
      "start": 102.7329,
      "duration": 0.0716,
      "velocity": 98,
      "chip": "ym2612"
    },
    {
      "channel": 2,
      "note": 50,
      "start": 102.7334,
      "duration": 0.0713,
      "velocity": 91,
      "chip": "ym2612"
    },
    {
      "channel": 3,
      "note": 85,
      "start": 102.734,
      "duration": 0.0142,
      "velocity": 99,
      "chip": "ym2612"
    },
    {
      "channel": 4,
      "note": 93,
      "start": 102.7428,
      "duration": 0.0154,
      "velocity": 99,
      "chip": "ym2612"
    },
    {
      "channel": 3,
      "note": 93,
      "start": 102.7515,
      "duration": 0.0146,
      "velocity": 99,
      "chip": "ym2612"
    },
    {
      "channel": 4,
      "note": 90,
      "start": 102.7604,
      "duration": 0.0154,
      "velocity": 99,
      "chip": "ym2612"
    },
    {
      "channel": 3,
      "note": 90,
      "start": 102.7695,
      "duration": 0.0167,
      "velocity": 99,
      "chip": "ym2612"
    },
    {
      "channel": 4,
      "note": 85,
      "start": 102.7792,
      "duration": 0.0173,
      "velocity": 99,
      "chip": "ym2612"
    },
    {
      "channel": 3,
      "note": 85,
      "start": 102.7899,
      "duration": 0.0152,
      "velocity": 99,
      "chip": "ym2612"
    },
    {
      "channel": 4,
      "note": 93,
      "start": 102.7987,
      "duration": 0.0157,
      "velocity": 99,
      "chip": "ym2612"
    },
    {
      "channel": 0,
      "note": 80,
      "start": 102.8003,
      "duration": 0.2209,
      "velocity": 98,
      "chip": "ym2612"
    },
    {
      "channel": 1,
      "note": 77,
      "start": 102.8069,
      "duration": 0.222,
      "velocity": 98,
      "chip": "ym2612"
    },
    {
      "channel": 2,
      "note": 49,
      "start": 102.8074,
      "duration": 0.0706,
      "velocity": 91,
      "chip": "ym2612"
    },
    {
      "channel": 3,
      "note": 93,
      "start": 102.808,
      "duration": 0.0143,
      "velocity": 99,
      "chip": "ym2612"
    },
    {
      "channel": 4,
      "note": 92,
      "start": 102.8165,
      "duration": 0.0151,
      "velocity": 99,
      "chip": "ym2612"
    },
    {
      "channel": 3,
      "note": 92,
      "start": 102.8253,
      "duration": 0.0138,
      "velocity": 99,
      "chip": "ym2612"
    },
    {
      "channel": 4,
      "note": 90,
      "start": 102.8338,
      "duration": 0.0151,
      "velocity": 99,
      "chip": "ym2612"
    },
    {
      "channel": 3,
      "note": 90,
      "start": 102.8425,
      "duration": 0.0164,
      "velocity": 99,
      "chip": "ym2612"
    },
    {
      "channel": 4,
      "note": 89,
      "start": 102.8511,
      "duration": 0.0189,
      "velocity": 99,
      "chip": "ym2612"
    },
    {
      "channel": 3,
      "note": 89,
      "start": 102.8633,
      "duration": 0.0151,
      "velocity": 99,
      "chip": "ym2612"
    },
    {
      "channel": 4,
      "note": 92,
      "start": 102.8726,
      "duration": 0.0169,
      "velocity": 99,
      "chip": "ym2612"
    },
    {
      "channel": 2,
      "note": 49,
      "start": 102.882,
      "duration": 0.0722,
      "velocity": 91,
      "chip": "ym2612"
    },
    {
      "channel": 3,
      "note": 92,
      "start": 102.8826,
      "duration": 0.0151,
      "velocity": 99,
      "chip": "ym2612"
    },
    {
      "channel": 4,
      "note": 90,
      "start": 102.8921,
      "duration": 0.0156,
      "velocity": 99,
      "chip": "ym2612"
    },
    {
      "channel": 3,
      "note": 90,
      "start": 102.9008,
      "duration": 0.0148,
      "velocity": 99,
      "chip": "ym2612"
    },
    {
      "channel": 4,
      "note": 89,
      "start": 102.91,
      "duration": 0.0151,
      "velocity": 99,
      "chip": "ym2612"
    },
    {
      "channel": 3,
      "note": 89,
      "start": 102.9186,
      "duration": 0.0152,
      "velocity": 99,
      "chip": "ym2612"
    },
    {
      "channel": 4,
      "note": 92,
      "start": 102.9277,
      "duration": 0.0187,
      "velocity": 99,
      "chip": "ym2612"
    },
    {
      "channel": 3,
      "note": 92,
      "start": 102.9379,
      "duration": 0.0166,
      "velocity": 99,
      "chip": "ym2612"
    },
    {
      "channel": 4,
      "note": 90,
      "start": 102.9487,
      "duration": 0.0161,
      "velocity": 99,
      "chip": "ym2612"
    },
    {
      "channel": 2,
      "note": 49,
      "start": 102.9578,
      "duration": 0.0714,
      "velocity": 91,
      "chip": "ym2612"
    },
    {
      "channel": 3,
      "note": 90,
      "start": 102.9584,
      "duration": 0.0144,
      "velocity": 99,
      "chip": "ym2612"
    },
    {
      "channel": 4,
      "note": 89,
      "start": 102.967,
      "duration": 0.0152,
      "velocity": 99,
      "chip": "ym2612"
    },
    {
      "channel": 3,
      "note": 89,
      "start": 102.9757,
      "duration": 0.0143,
      "velocity": 99,
      "chip": "ym2612"
    },
    {
      "channel": 4,
      "note": 92,
      "start": 102.9844,
      "duration": 0.0156,
      "velocity": 99,
      "chip": "ym2612"
    },
    {
      "channel": 3,
      "note": 92,
      "start": 102.9931,
      "duration": 0.0151,
      "velocity": 99,
      "chip": "ym2612"
    },
    {
      "channel": 4,
      "note": 90,
      "start": 103.0022,
      "duration": 0.0182,
      "velocity": 99,
      "chip": "ym2612"
    },
    {
      "channel": 3,
      "note": 90,
      "start": 103.0113,
      "duration": 0.0182,
      "velocity": 99,
      "chip": "ym2612"
    },
    {
      "channel": 4,
      "note": 89,
      "start": 103.0232,
      "duration": 0.0172,
      "velocity": 99,
      "chip": "ym2612"
    },
    {
      "channel": 0,
      "note": 80,
      "start": 103.0247,
      "duration": 0.034,
      "velocity": 98,
      "chip": "ym2612"
    },
    {
      "channel": 1,
      "note": 77,
      "start": 103.0329,
      "duration": 0.0322,
      "velocity": 98,
      "chip": "ym2612"
    },
    {
      "channel": 2,
      "note": 49,
      "start": 103.0335,
      "duration": 0.0708,
      "velocity": 91,
      "chip": "ym2612"
    },
    {
      "channel": 3,
      "note": 89,
      "start": 103.034,
      "duration": 0.0142,
      "velocity": 99,
      "chip": "ym2612"
    },
    {
      "channel": 4,
      "note": 92,
      "start": 103.0425,
      "duration": 0.0153,
      "velocity": 99,
      "chip": "ym2612"
    },
    {
      "channel": 3,
      "note": 92,
      "start": 103.0514,
      "duration": 0.0143,
      "velocity": 99,
      "chip": "ym2612"
    },
    {
      "channel": 4,
      "note": 90,
      "start": 103.0599,
      "duration": 0.0158,
      "velocity": 99,
      "chip": "ym2612"
    },
    {
      "channel": 0,
      "note": 81,
      "start": 103.0611,
      "duration": 0.0155,
      "velocity": 98,
      "chip": "ym2612"
    },
    {
      "channel": 1,
      "note": 78,
      "start": 103.0682,
      "duration": 0.0149,
      "velocity": 98,
      "chip": "ym2612"
    },
    {
      "channel": 3,
      "note": 90,
      "start": 103.069,
      "duration": 0.0146,
      "velocity": 99,
      "chip": "ym2612"
    },
    {
      "channel": 4,
      "note": 89,
      "start": 103.0779,
      "duration": 0.0156,
      "velocity": 99,
      "chip": "ym2612"
    },
    {
      "channel": 0,
      "note": 83,
      "start": 103.0791,
      "duration": 0.0159,
      "velocity": 98,
      "chip": "ym2612"
    },
    {
      "channel": 1,
      "note": 80,
      "start": 103.0862,
      "duration": 0.0178,
      "velocity": 98,
      "chip": "ym2612"
    },
    {
      "channel": 3,
      "note": 89,
      "start": 103.0871,
      "duration": 0.0176,
      "velocity": 99,
      "chip": "ym2612"
    },
    {
      "channel": 4,
      "note": 92,
      "start": 103.0968,
      "duration": 0.0227,
      "velocity": 99,
      "chip": "ym2612"
    },
    {
      "channel": 0,
      "note": 85,
      "start": 103.0981,
      "duration": 0.1138,
      "velocity": 98,
      "chip": "ym2612"
    },
    {
      "channel": 1,
      "note": 81,
      "start": 103.1086,
      "duration": 0.1102,
      "velocity": 98,
      "chip": "ym2612"
    },
    {
      "channel": 2,
      "note": 54,
      "start": 103.1123,
      "duration": 0.0695,
      "velocity": 91,
      "chip": "ym2612"
    },
    {
      "channel": 3,
      "note": 92,
      "start": 103.1131,
      "duration": 0.014,
      "velocity": 99,
      "chip": "ym2612"
    },
    {
      "channel": 4,
      "note": 93,
      "start": 103.1217,
      "duration": 0.015,
      "velocity": 99,
      "chip": "ym2612"
    },
    {
      "channel": 3,
      "note": 93,
      "start": 103.13,
      "duration": 0.0142,
      "velocity": 99,
      "chip": "ym2612"
    },
    {
      "channel": 4,
      "note": 92,
      "start": 103.1388,
      "duration": 0.0155,
      "velocity": 99,
      "chip": "ym2612"
    },
    {
      "channel": 3,
      "note": 92,
      "start": 103.1476,
      "duration": 0.0148,
      "velocity": 99,
      "chip": "ym2612"
    },
    {
      "channel": 4,
      "note": 85,
      "start": 103.1564,
      "duration": 0.0165,
      "velocity": 99,
      "chip": "ym2612"
    },
    {
      "channel": 3,
      "note": 85,
      "start": 103.166,
      "duration": 0.0164,
      "velocity": 99,
      "chip": "ym2612"
    },
    {
      "channel": 4,
      "note": 93,
      "start": 103.1752,
      "duration": 0.0185,
      "velocity": 99,
      "chip": "ym2612"
    },
    {
      "channel": 2,
      "note": 54,
      "start": 103.1856,
      "duration": 0.0683,
      "velocity": 91,
      "chip": "ym2612"
    },
    {
      "channel": 3,
      "note": 93,
      "start": 103.1862,
      "duration": 0.0154,
      "velocity": 99,
      "chip": "ym2612"
    },
    {
      "channel": 4,
      "note": 92,
      "start": 103.196,
      "duration": 0.0145,
      "velocity": 99,
      "chip": "ym2612"
    },
    {
      "channel": 3,
      "note": 92,
      "start": 103.204,
      "duration": 0.0154,
      "velocity": 99,
      "chip": "ym2612"
    },
    {
      "channel": 4,
      "note": 85,
      "start": 103.2132,
      "duration": 0.0152,
      "velocity": 99,
      "chip": "ym2612"
    },
    {
      "channel": 0,
      "note": 85,
      "start": 103.2143,
      "duration": 0.0324,
      "velocity": 98,
      "chip": "ym2612"
    },
    {
      "channel": 1,
      "note": 81,
      "start": 103.2213,
      "duration": 0.0324,
      "velocity": 98,
      "chip": "ym2612"
    },
    {
      "channel": 3,
      "note": 85,
      "start": 103.2221,
      "duration": 0.0139,
      "velocity": 99,
      "chip": "ym2612"
    },
    {
      "channel": 4,
      "note": 93,
      "start": 103.2305,
      "duration": 0.0153,
      "velocity": 99,
      "chip": "ym2612"
    },
    {
      "channel": 3,
      "note": 93,
      "start": 103.2394,
      "duration": 0.0148,
      "velocity": 99,
      "chip": "ym2612"
    },
    {
      "channel": 4,
      "note": 92,
      "start": 103.248,
      "duration": 0.0188,
      "velocity": 99,
      "chip": "ym2612"
    },
    {
      "channel": 0,
      "note": 90,
      "start": 103.2492,
      "duration": 0.1086,
      "velocity": 98,
      "chip": "ym2612"
    },
    {
      "channel": 1,
      "note": 85,
      "start": 103.2572,
      "duration": 0.1071,
      "velocity": 98,
      "chip": "ym2612"
    },
    {
      "channel": 2,
      "note": 54,
      "start": 103.2577,
      "duration": 0.0692,
      "velocity": 91,
      "chip": "ym2612"
    },
    {
      "channel": 3,
      "note": 92,
      "start": 103.2589,
      "duration": 0.0156,
      "velocity": 99,
      "chip": "ym2612"
    },
    {
      "channel": 4,
      "note": 85,
      "start": 103.2691,
      "duration": 0.0146,
      "velocity": 99,
      "chip": "ym2612"
    },
    {
      "channel": 3,
      "note": 85,
      "start": 103.2771,
      "duration": 0.0146,
      "velocity": 99,
      "chip": "ym2612"
    },
    {
      "channel": 4,
      "note": 93,
      "start": 103.2863,
      "duration": 0.0151,
      "velocity": 99,
      "chip": "ym2612"
    },
    {
      "channel": 3,
      "note": 93,
      "start": 103.295,
      "duration": 0.014,
      "velocity": 99,
      "chip": "ym2612"
    },
    {
      "channel": 4,
      "note": 92,
      "start": 103.3034,
      "duration": 0.0158,
      "velocity": 99,
      "chip": "ym2612"
    },
    {
      "channel": 3,
      "note": 92,
      "start": 103.3127,
      "duration": 0.0145,
      "velocity": 99,
      "chip": "ym2612"
    },
    {
      "channel": 4,
      "note": 85,
      "start": 103.3215,
      "duration": 0.0167,
      "velocity": 99,
      "chip": "ym2612"
    },
    {
      "channel": 2,
      "note": 54,
      "start": 103.3295,
      "duration": 0.0712,
      "velocity": 91,
      "chip": "ym2612"
    },
    {
      "channel": 3,
      "note": 85,
      "start": 103.3301,
      "duration": 0.0178,
      "velocity": 99,
      "chip": "ym2612"
    },
    {
      "channel": 4,
      "note": 93,
      "start": 103.3413,
      "duration": 0.0156,
      "velocity": 99,
      "chip": "ym2612"
    },
    {
      "channel": 3,
      "note": 93,
      "start": 103.3503,
      "duration": 0.0146,
      "velocity": 99,
      "chip": "ym2612"
    },
    {
      "channel": 4,
      "note": 92,
      "start": 103.3591,
      "duration": 0.0153,
      "velocity": 99,
      "chip": "ym2612"
    },
    {
      "channel": 0,
      "note": 92,
      "start": 103.3603,
      "duration": 0.0151,
      "velocity": 98,
      "chip": "ym2612"
    },
    {
      "channel": 1,
      "note": 85,
      "start": 103.3669,
      "duration": 0.0153,
      "velocity": 98,
      "chip": "ym2612"
    },
    {
      "channel": 3,
      "note": 92,
      "start": 103.3678,
      "duration": 0.015,
      "velocity": 99,
      "chip": "ym2612"
    },
    {
      "channel": 4,
      "note": 85,
      "start": 103.3766,
      "duration": 0.016,
      "velocity": 99,
      "chip": "ym2612"
    },
    {
      "channel": 0,
      "note": 93,
      "start": 103.3778,
      "duration": 0.0158,
      "velocity": 98,
      "chip": "ym2612"
    },
    {
      "channel": 1,
      "note": 90,
      "start": 103.3853,
      "duration": 0.0151,
      "velocity": 98,
      "chip": "ym2612"
    },
    {
      "channel": 3,
      "note": 85,
      "start": 103.3862,
      "duration": 0.0148,
      "velocity": 99,
      "chip": "ym2612"
    },
    {
      "channel": 4,
      "note": 93,
      "start": 103.3949,
      "duration": 0.0159,
      "velocity": 99,
      "chip": "ym2612"
    },
    {
      "channel": 0,
      "note": 95,
      "start": 103.3961,
      "duration": 0.1086,
      "velocity": 98,
      "chip": "ym2612"
    },
    {
      "channel": 1,
      "note": 88,
      "start": 103.4029,
      "duration": 0.1087,
      "velocity": 98,
      "chip": "ym2612"
    },
    {
      "channel": 2,
      "note": 52,
      "start": 103.4035,
      "duration": 0.0702,
      "velocity": 91,
      "chip": "ym2612"
    },
    {
      "channel": 3,
      "note": 93,
      "start": 103.404,
      "duration": 0.0167,
      "velocity": 99,
      "chip": "ym2612"
    },
    {
      "channel": 4,
      "note": 92,
      "start": 103.4129,
      "duration": 0.0176,
      "velocity": 99,
      "chip": "ym2612"
    },
    {
      "channel": 3,
      "note": 92,
      "start": 103.4243,
      "duration": 0.0142,
      "velocity": 99,
      "chip": "ym2612"
    },
    {
      "channel": 4,
      "note": 88,
      "start": 103.4327,
      "duration": 0.0151,
      "velocity": 99,
      "chip": "ym2612"
    },
    {
      "channel": 3,
      "note": 88,
      "start": 103.4415,
      "duration": 0.0144,
      "velocity": 99,
      "chip": "ym2612"
    },
    {
      "channel": 4,
      "note": 95,
      "start": 103.45,
      "duration": 0.0161,
      "velocity": 99,
      "chip": "ym2612"
    },
    {
      "channel": 3,
      "note": 95,
      "start": 103.4595,
      "duration": 0.0146,
      "velocity": 99,
      "chip": "ym2612"
    },
    {
      "channel": 4,
      "note": 92,
      "start": 103.4683,
      "duration": 0.0151,
      "velocity": 99,
      "chip": "ym2612"
    },
    {
      "channel": 2,
      "note": 52,
      "start": 103.4763,
      "duration": 0.0728,
      "velocity": 91,
      "chip": "ym2612"
    },
    {
      "channel": 3,
      "note": 92,
      "start": 103.4769,
      "duration": 0.0149,
      "velocity": 99,
      "chip": "ym2612"
    },
    {
      "channel": 4,
      "note": 88,
      "start": 103.4856,
      "duration": 0.0181,
      "velocity": 99,
      "chip": "ym2612"
    },
    {
      "channel": 3,
      "note": 88,
      "start": 103.4961,
      "duration": 0.0161,
      "velocity": 99,
      "chip": "ym2612"
    },
    {
      "channel": 4,
      "note": 95,
      "start": 103.506,
      "duration": 0.0168,
      "velocity": 99,
      "chip": "ym2612"
    },
    {
      "channel": 0,
      "note": 95,
      "start": 103.5076,
      "duration": 0.0348,
      "velocity": 98,
      "chip": "ym2612"
    },
    {
      "channel": 1,
      "note": 88,
      "start": 103.5157,
      "duration": 0.0332,
      "velocity": 98,
      "chip": "ym2612"
    },
    {
      "channel": 3,
      "note": 95,
      "start": 103.5165,
      "duration": 0.0143,
      "velocity": 99,
      "chip": "ym2612"
    },
    {
      "channel": 4,
      "note": 92,
      "start": 103.5253,
      "duration": 0.0157,
      "velocity": 99,
      "chip": "ym2612"
    },
    {
      "channel": 3,
      "note": 92,
      "start": 103.5346,
      "duration": 0.0147,
      "velocity": 99,
      "chip": "ym2612"
    },
    {
      "channel": 4,
      "note": 88,
      "start": 103.5436,
      "duration": 0.0154,
      "velocity": 99,
      "chip": "ym2612"
    },
    {
      "channel": 0,
      "note": 92,
      "start": 103.5447,
      "duration": 0.1439,
      "velocity": 98,
      "chip": "ym2612"
    },
    {
      "channel": 1,
      "note": 83,
      "start": 103.5516,
      "duration": 0.1443,
      "velocity": 98,
      "chip": "ym2612"
    },
    {
      "channel": 2,
      "note": 52,
      "start": 103.5521,
      "duration": 0.0703,
      "velocity": 91,
      "chip": "ym2612"
    },
    {
      "channel": 3,
      "note": 88,
      "start": 103.5527,
      "duration": 0.0138,
      "velocity": 99,
      "chip": "ym2612"
    },
    {
      "channel": 4,
      "note": 95,
      "start": 103.5611,
      "duration": 0.0173,
      "velocity": 99,
      "chip": "ym2612"
    },
    {
      "channel": 3,
      "note": 95,
      "start": 103.5697,
      "duration": 0.0172,
      "velocity": 99,
      "chip": "ym2612"
    },
    {
      "channel": 4,
      "note": 92,
      "start": 103.5811,
      "duration": 0.0149,
      "velocity": 99,
      "chip": "ym2612"
    },
    {
      "channel": 3,
      "note": 92,
      "start": 103.5897,
      "duration": 0.0141,
      "velocity": 99,
      "chip": "ym2612"
    },
    {
      "channel": 4,
      "note": 88,
      "start": 103.5982,
      "duration": 0.0161,
      "velocity": 99,
      "chip": "ym2612"
    },
    {
      "channel": 3,
      "note": 88,
      "start": 103.6074,
      "duration": 0.0153,
      "velocity": 99,
      "chip": "ym2612"
    },
    {
      "channel": 4,
      "note": 95,
      "start": 103.6166,
      "duration": 0.0155,
      "velocity": 99,
      "chip": "ym2612"
    },
    {
      "channel": 2,
      "note": 52,
      "start": 103.6249,
      "duration": 0.0714,
      "velocity": 91,
      "chip": "ym2612"
    },
    {
      "channel": 3,
      "note": 95,
      "start": 103.6255,
      "duration": 0.0147,
      "velocity": 99,
      "chip": "ym2612"
    },
    {
      "channel": 4,
      "note": 92,
      "start": 103.6343,
      "duration": 0.0162,
      "velocity": 99,
      "chip": "ym2612"
    },
    {
      "channel": 3,
      "note": 92,
      "start": 103.6433,
      "duration": 0.0172,
      "velocity": 99,
      "chip": "ym2612"
    },
    {
      "channel": 4,
      "note": 88,
      "start": 103.6539,
      "duration": 0.0159,
      "velocity": 99,
      "chip": "ym2612"
    },
    {
      "channel": 3,
      "note": 88,
      "start": 103.6628,
      "duration": 0.0149,
      "velocity": 99,
      "chip": "ym2612"
    },
    {
      "channel": 4,
      "note": 95,
      "start": 103.6719,
      "duration": 0.0158,
      "velocity": 99,
      "chip": "ym2612"
    },
    {
      "channel": 3,
      "note": 95,
      "start": 103.6807,
      "duration": 0.0159,
      "velocity": 99,
      "chip": "ym2612"
    },
    {
      "channel": 4,
      "note": 92,
      "start": 103.6901,
      "duration": 0.0172,
      "velocity": 99,
      "chip": "ym2612"
    },
    {
      "channel": 0,
      "note": 93,
      "start": 103.6913,
      "duration": 0.1081,
      "velocity": 98,
      "chip": "ym2612"
    },
    {
      "channel": 1,
      "note": 86,
      "start": 103.6998,
      "duration": 0.1071,
      "velocity": 98,
      "chip": "ym2612"
    },
    {
      "channel": 2,
      "note": 50,
      "start": 103.7004,
      "duration": 0.0703,
      "velocity": 91,
      "chip": "ym2612"
    },
    {
      "channel": 3,
      "note": 92,
      "start": 103.7009,
      "duration": 0.0143,
      "velocity": 99,
      "chip": "ym2612"
    },
    {
      "channel": 4,
      "note": 93,
      "start": 103.7095,
      "duration": 0.0156,
      "velocity": 99,
      "chip": "ym2612"
    },
    {
      "channel": 3,
      "note": 93,
      "start": 103.7184,
      "duration": 0.0165,
      "velocity": 99,
      "chip": "ym2612"
    },
    {
      "channel": 4,
      "note": 90,
      "start": 103.7272,
      "duration": 0.0184,
      "velocity": 99,
      "chip": "ym2612"
    },
    {
      "channel": 3,
      "note": 90,
      "start": 103.7389,
      "duration": 0.0145,
      "velocity": 99,
      "chip": "ym2612"
    },
    {
      "channel": 4,
      "note": 85,
      "start": 103.7478,
      "duration": 0.0152,
      "velocity": 99,
      "chip": "ym2612"
    },
    {
      "channel": 3,
      "note": 85,
      "start": 103.7564,
      "duration": 0.0145,
      "velocity": 99,
      "chip": "ym2612"
    },
    {
      "channel": 4,
      "note": 93,
      "start": 103.7652,
      "duration": 0.0155,
      "velocity": 99,
      "chip": "ym2612"
    },
    {
      "channel": 2,
      "note": 50,
      "start": 103.7732,
      "duration": 0.0713,
      "velocity": 91,
      "chip": "ym2612"
    },
    {
      "channel": 3,
      "note": 93,
      "start": 103.7737,
      "duration": 0.0151,
      "velocity": 99,
      "chip": "ym2612"
    },
    {
      "channel": 4,
      "note": 90,
      "start": 103.7829,
      "duration": 0.0156,
      "velocity": 99,
      "chip": "ym2612"
    },
    {
      "channel": 3,
      "note": 90,
      "start": 103.792,
      "duration": 0.0155,
      "velocity": 99,
      "chip": "ym2612"
    },
    {
      "channel": 4,
      "note": 85,
      "start": 103.8007,
      "duration": 0.0182,
      "velocity": 99,
      "chip": "ym2612"
    },
    {
      "channel": 0,
      "note": 92,
      "start": 103.8019,
      "duration": 0.0184,
      "velocity": 98,
      "chip": "ym2612"
    },
    {
      "channel": 1,
      "note": 85,
      "start": 103.81,
      "duration": 0.0167,
      "velocity": 98,
      "chip": "ym2612"
    },
    {
      "channel": 3,
      "note": 85,
      "start": 103.8115,
      "duration": 0.0158,
      "velocity": 99,
      "chip": "ym2612"
    },
    {
      "channel": 4,
      "note": 93,
      "start": 103.8215,
      "duration": 0.0149,
      "velocity": 99,
      "chip": "ym2612"
    },
    {
      "channel": 0,
      "note": 93,
      "start": 103.8227,
      "duration": 0.0151,
      "velocity": 98,
      "chip": "ym2612"
    },
    {
      "channel": 1,
      "note": 86,
      "start": 103.8292,
      "duration": 0.0151,
      "velocity": 98,
      "chip": "ym2612"
    },
    {
      "channel": 3,
      "note": 93,
      "start": 103.83,
      "duration": 0.0149,
      "velocity": 99,
      "chip": "ym2612"
    },
    {
      "channel": 4,
      "note": 90,
      "start": 103.8391,
      "duration": 0.0151,
      "velocity": 99,
      "chip": "ym2612"
    },
    {
      "channel": 0,
      "note": 95,
      "start": 103.8403,
      "duration": 0.106,
      "velocity": 98,
      "chip": "ym2612"
    },
    {
      "channel": 1,
      "note": 88,
      "start": 103.8468,
      "duration": 0.106,
      "velocity": 98,
      "chip": "ym2612"
    },
    {
      "channel": 2,
      "note": 50,
      "start": 103.8473,
      "duration": 0.0702,
      "velocity": 91,
      "chip": "ym2612"
    },
    {
      "channel": 3,
      "note": 90,
      "start": 103.8479,
      "duration": 0.0138,
      "velocity": 99,
      "chip": "ym2612"
    },
    {
      "channel": 4,
      "note": 85,
      "start": 103.8563,
      "duration": 0.0148,
      "velocity": 99,
      "chip": "ym2612"
    },
    {
      "channel": 3,
      "note": 85,
      "start": 103.8648,
      "duration": 0.0143,
      "velocity": 99,
      "chip": "ym2612"
    },
    {
      "channel": 4,
      "note": 93,
      "start": 103.8737,
      "duration": 0.0179,
      "velocity": 99,
      "chip": "ym2612"
    },
    {
      "channel": 3,
      "note": 93,
      "start": 103.8828,
      "duration": 0.0176,
      "velocity": 99,
      "chip": "ym2612"
    },
    {
      "channel": 4,
      "note": 90,
      "start": 103.8942,
      "duration": 0.0157,
      "velocity": 99,
      "chip": "ym2612"
    },
    {
      "channel": 3,
      "note": 90,
      "start": 103.9034,
      "duration": 0.0145,
      "velocity": 99,
      "chip": "ym2612"
    },
    {
      "channel": 4,
      "note": 85,
      "start": 103.9122,
      "duration": 0.0154,
      "velocity": 99,
      "chip": "ym2612"
    },
    {
      "channel": 2,
      "note": 50,
      "start": 103.9201,
      "duration": 0.0708,
      "velocity": 91,
      "chip": "ym2612"
    },
    {
      "channel": 3,
      "note": 85,
      "start": 103.9207,
      "duration": 0.0147,
      "velocity": 99,
      "chip": "ym2612"
    },
    {
      "channel": 4,
      "note": 93,
      "start": 103.9298,
      "duration": 0.0156,
      "velocity": 99,
      "chip": "ym2612"
    },
    {
      "channel": 3,
      "note": 93,
      "start": 103.9384,
      "duration": 0.0149,
      "velocity": 99,
      "chip": "ym2612"
    },
    {
      "channel": 4,
      "note": 90,
      "start": 103.9476,
      "duration": 0.0149,
      "velocity": 99,
      "chip": "ym2612"
    },
    {
      "channel": 0,
      "note": 93,
      "start": 103.9488,
      "duration": 0.0151,
      "velocity": 98,
      "chip": "ym2612"
    },
    {
      "channel": 1,
      "note": 86,
      "start": 103.9554,
      "duration": 0.0173,
      "velocity": 98,
      "chip": "ym2612"
    },
    {
      "channel": 3,
      "note": 90,
      "start": 103.9563,
      "duration": 0.017,
      "velocity": 99,
      "chip": "ym2612"
    },
    {
      "channel": 4,
      "note": 85,
      "start": 103.9657,
      "duration": 0.0175,
      "velocity": 99,
      "chip": "ym2612"
    },
    {
      "channel": 0,
      "note": 95,
      "start": 103.967,
      "duration": 0.0172,
      "velocity": 98,
      "chip": "ym2612"
    },
    {
      "channel": 1,
      "note": 88,
      "start": 103.9759,
      "duration": 0.0147,
      "velocity": 98,
      "chip": "ym2612"
    },
    {
      "channel": 3,
      "note": 85,
      "start": 103.9768,
      "duration": 0.0144,
      "velocity": 99,
      "chip": "ym2612"
    },
    {
      "channel": 4,
      "note": 93,
      "start": 103.9854,
      "duration": 0.0155,
      "velocity": 99,
      "chip": "ym2612"
    },
    {
      "channel": 0,
      "note": 97,
      "start": 103.9866,
      "duration": 0.2194,
      "velocity": 98,
      "chip": "ym2612"
    },
    {
      "channel": 1,
      "note": 89,
      "start": 103.993,
      "duration": 0.2212,
      "velocity": 98,
      "chip": "ym2612"
    },
    {
      "channel": 2,
      "note": 49,
      "start": 103.9935,
      "duration": 0.0708,
      "velocity": 91,
      "chip": "ym2612"
    },
    {
      "channel": 3,
      "note": 93,
      "start": 103.9941,
      "duration": 0.0143,
      "velocity": 99,
      "chip": "ym2612"
    },
    {
      "channel": 4,
      "note": 92,
      "start": 104.0031,
      "duration": 0.0151,
      "velocity": 99,
      "chip": "ym2612"
    },
    {
      "channel": 3,
      "note": 92,
      "start": 104.0115,
      "duration": 0.0145,
      "velocity": 99,
      "chip": "ym2612"
    },
    {
      "channel": 4,
      "note": 90,
      "start": 104.0203,
      "duration": 0.0159,
      "velocity": 99,
      "chip": "ym2612"
    },
    {
      "channel": 3,
      "note": 90,
      "start": 104.0295,
      "duration": 0.0159,
      "velocity": 99,
      "chip": "ym2612"
    },
    {
      "channel": 4,
      "note": 89,
      "start": 104.0384,
      "duration": 0.0182,
      "velocity": 99,
      "chip": "ym2612"
    },
    {
      "channel": 3,
      "note": 89,
      "start": 104.0497,
      "duration": 0.0149,
      "velocity": 99,
      "chip": "ym2612"
    },
    {
      "channel": 4,
      "note": 92,
      "start": 104.0588,
      "duration": 0.0166,
      "velocity": 99,
      "chip": "ym2612"
    },
    {
      "channel": 2,
      "note": 49,
      "start": 104.068,
      "duration": 0.071,
      "velocity": 91,
      "chip": "ym2612"
    },
    {
      "channel": 3,
      "note": 92,
      "start": 104.0685,
      "duration": 0.0151,
      "velocity": 99,
      "chip": "ym2612"
    },
    {
      "channel": 4,
      "note": 90,
      "start": 104.0777,
      "duration": 0.0154,
      "velocity": 99,
      "chip": "ym2612"
    },
    {
      "channel": 3,
      "note": 90,
      "start": 104.0866,
      "duration": 0.0146,
      "velocity": 99,
      "chip": "ym2612"
    },
    {
      "channel": 4,
      "note": 89,
      "start": 104.0953,
      "duration": 0.0154,
      "velocity": 99,
      "chip": "ym2612"
    },
    {
      "channel": 3,
      "note": 89,
      "start": 104.1042,
      "duration": 0.0144,
      "velocity": 99,
      "chip": "ym2612"
    },
    {
      "channel": 4,
      "note": 92,
      "start": 104.1129,
      "duration": 0.0179,
      "velocity": 99,
      "chip": "ym2612"
    },
    {
      "channel": 3,
      "note": 92,
      "start": 104.1223,
      "duration": 0.0171,
      "velocity": 99,
      "chip": "ym2612"
    },
    {
      "channel": 4,
      "note": 90,
      "start": 104.1336,
      "duration": 0.0166,
      "velocity": 99,
      "chip": "ym2612"
    },
    {
      "channel": 2,
      "note": 49,
      "start": 104.1427,
      "duration": 0.0717,
      "velocity": 91,
      "chip": "ym2612"
    },
    {
      "channel": 3,
      "note": 90,
      "start": 104.1433,
      "duration": 0.0155,
      "velocity": 99,
      "chip": "ym2612"
    },
    {
      "channel": 4,
      "note": 89,
      "start": 104.1527,
      "duration": 0.0157,
      "velocity": 99,
      "chip": "ym2612"
    },
    {
      "channel": 3,
      "note": 89,
      "start": 104.1619,
      "duration": 0.0144,
      "velocity": 99,
      "chip": "ym2612"
    },
    {
      "channel": 4,
      "note": 92,
      "start": 104.1706,
      "duration": 0.015,
      "velocity": 99,
      "chip": "ym2612"
    },
    {
      "channel": 3,
      "note": 92,
      "start": 104.1791,
      "duration": 0.0144,
      "velocity": 99,
      "chip": "ym2612"
    },
    {
      "channel": 4,
      "note": 90,
      "start": 104.1878,
      "duration": 0.0172,
      "velocity": 99,
      "chip": "ym2612"
    },
    {
      "channel": 3,
      "note": 90,
      "start": 104.1967,
      "duration": 0.0181,
      "velocity": 99,
      "chip": "ym2612"
    },
    {
      "channel": 4,
      "note": 89,
      "start": 104.2079,
      "duration": 0.0178,
      "velocity": 99,
      "chip": "ym2612"
    },
    {
      "channel": 0,
      "note": 85,
      "start": 104.2095,
      "duration": 0.0525,
      "velocity": 98,
      "chip": "ym2612"
    },
    {
      "channel": 1,
      "note": 89,
      "start": 104.2183,
      "duration": 0.0505,
      "velocity": 98,
      "chip": "ym2612"
    },
    {
      "channel": 2,
      "note": 49,
      "start": 104.2188,
      "duration": 0.0708,
      "velocity": 91,
      "chip": "ym2612"
    },
    {
      "channel": 3,
      "note": 89,
      "start": 104.2194,
      "duration": 0.0138,
      "velocity": 99,
      "chip": "ym2612"
    },
    {
      "channel": 4,
      "note": 92,
      "start": 104.2278,
      "duration": 0.0149,
      "velocity": 99,
      "chip": "ym2612"
    },
    {
      "channel": 3,
      "note": 92,
      "start": 104.2364,
      "duration": 0.0142,
      "velocity": 99,
      "chip": "ym2612"
    },
    {
      "channel": 4,
      "note": 90,
      "start": 104.2448,
      "duration": 0.0162,
      "velocity": 99,
      "chip": "ym2612"
    },
    {
      "channel": 3,
      "note": 90,
      "start": 104.2544,
      "duration": 0.015,
      "velocity": 99,
      "chip": "ym2612"
    },
    {
      "channel": 4,
      "note": 89,
      "start": 104.2632,
      "duration": 0.0162,
      "velocity": 99,
      "chip": "ym2612"
    },
    {
      "channel": 0,
      "note": 85,
      "start": 104.2644,
      "duration": 0.016,
      "velocity": 98,
      "chip": "ym2612"
    },
    {
      "channel": 1,
      "note": 89,
      "start": 104.2721,
      "duration": 0.0172,
      "velocity": 98,
      "chip": "ym2612"
    },
    {
      "channel": 3,
      "note": 89,
      "start": 104.273,
      "duration": 0.017,
      "velocity": 99,
      "chip": "ym2612"
    },
    {
      "channel": 4,
      "note": 92,
      "start": 104.2817,
      "duration": 0.0212,
      "velocity": 99,
      "chip": "ym2612"
    },
    {
      "channel": 0,
      "note": 90,
      "start": 104.2834,
      "duration": 0.2196,
      "velocity": 98,
      "chip": "ym2612"
    },
    {
      "channel": 2,
      "note": 54,
      "start": 104.2957,
      "duration": 0.0696,
      "velocity": 91,
      "chip": "ym2612"
    },
    {
      "channel": 3,
      "note": 92,
      "start": 104.2964,
      "duration": 0.0148,
      "velocity": 99,
      "chip": "ym2612"
    },
    {
      "channel": 4,
      "note": 93,
      "start": 104.3054,
      "duration": 0.0155,
      "velocity": 99,
      "chip": "ym2612"
    },
    {
      "channel": 3,
      "note": 93,
      "start": 104.3143,
      "duration": 0.0147,
      "velocity": 99,
      "chip": "ym2612"
    },
    {
      "channel": 4,
      "note": 92,
      "start": 104.3231,
      "duration": 0.0162,
      "velocity": 99,
      "chip": "ym2612"
    },
    {
      "channel": 1,
      "note": 90,
      "start": 104.3319,
      "duration": 0.2161,
      "velocity": 98,
      "chip": "ym2612"
    },
    {
      "channel": 3,
      "note": 92,
      "start": 104.3327,
      "duration": 0.0144,
      "velocity": 99,
      "chip": "ym2612"
    },
    {
      "channel": 4,
      "note": 85,
      "start": 104.3415,
      "duration": 0.0153,
      "velocity": 99,
      "chip": "ym2612"
    },
    {
      "channel": 3,
      "note": 85,
      "start": 104.3504,
      "duration": 0.0153,
      "velocity": 99,
      "chip": "ym2612"
    },
    {
      "channel": 4,
      "note": 93,
      "start": 104.3591,
      "duration": 0.0185,
      "velocity": 99,
      "chip": "ym2612"
    },
    {
      "channel": 2,
      "note": 54,
      "start": 104.3694,
      "duration": 0.0678,
      "velocity": 91,
      "chip": "ym2612"
    },
    {
      "channel": 3,
      "note": 93,
      "start": 104.37,
      "duration": 0.0152,
      "velocity": 99,
      "chip": "ym2612"
    },
    {
      "channel": 4,
      "note": 92,
      "start": 104.3797,
      "duration": 0.0146,
      "velocity": 99,
      "chip": "ym2612"
    },
    {
      "channel": 3,
      "note": 92,
      "start": 104.3879,
      "duration": 0.0143,
      "velocity": 99,
      "chip": "ym2612"
    },
    {
      "channel": 4,
      "note": 85,
      "start": 104.3967,
      "duration": 0.0151,
      "velocity": 99,
      "chip": "ym2612"
    },
    {
      "channel": 3,
      "note": 85,
      "start": 104.4051,
      "duration": 0.0145,
      "velocity": 99,
      "chip": "ym2612"
    },
    {
      "channel": 4,
      "note": 93,
      "start": 104.4139,
      "duration": 0.0155,
      "velocity": 99,
      "chip": "ym2612"
    },
    {
      "channel": 3,
      "note": 93,
      "start": 104.4228,
      "duration": 0.0146,
      "velocity": 99,
      "chip": "ym2612"
    },
    {
      "channel": 4,
      "note": 92,
      "start": 104.4317,
      "duration": 0.0175,
      "velocity": 99,
      "chip": "ym2612"
    },
    {
      "channel": 2,
      "note": 54,
      "start": 104.4397,
      "duration": 0.0703,
      "velocity": 91,
      "chip": "ym2612"
    },
    {
      "channel": 3,
      "note": 92,
      "start": 104.4402,
      "duration": 0.0171,
      "velocity": 99,
      "chip": "ym2612"
    },
    {
      "channel": 4,
      "note": 85,
      "start": 104.4517,
      "duration": 0.0148,
      "velocity": 99,
      "chip": "ym2612"
    },
    {
      "channel": 3,
      "note": 85,
      "start": 104.46,
      "duration": 0.0144,
      "velocity": 99,
      "chip": "ym2612"
    },
    {
      "channel": 4,
      "note": 93,
      "start": 104.4687,
      "duration": 0.0151,
      "velocity": 99,
      "chip": "ym2612"
    },
    {
      "channel": 3,
      "note": 93,
      "start": 104.4774,
      "duration": 0.0143,
      "velocity": 99,
      "chip": "ym2612"
    },
    {
      "channel": 4,
      "note": 92,
      "start": 104.486,
      "duration": 0.0161,
      "velocity": 99,
      "chip": "ym2612"
    },
    {
      "channel": 3,
      "note": 92,
      "start": 104.4954,
      "duration": 0.0149,
      "velocity": 99,
      "chip": "ym2612"
    },
    {
      "channel": 4,
      "note": 85,
      "start": 104.5044,
      "duration": 0.0153,
      "velocity": 99,
      "chip": "ym2612"
    },
    {
      "channel": 0,
      "note": 85,
      "start": 104.5056,
      "duration": 0.0542,
      "velocity": 98,
      "chip": "ym2612"
    },
    {
      "channel": 2,
      "note": 54,
      "start": 104.5122,
      "duration": 0.0725,
      "velocity": 91,
      "chip": "ym2612"
    },
    {
      "channel": 3,
      "note": 85,
      "start": 104.5128,
      "duration": 0.0177,
      "velocity": 99,
      "chip": "ym2612"
    },
    {
      "channel": 4,
      "note": 93,
      "start": 104.5231,
      "duration": 0.0176,
      "velocity": 99,
      "chip": "ym2612"
    },
    {
      "channel": 3,
      "note": 93,
      "start": 104.5338,
      "duration": 0.0146,
      "velocity": 99,
      "chip": "ym2612"
    },
    {
      "channel": 4,
      "note": 92,
      "start": 104.5428,
      "duration": 0.0155,
      "velocity": 99,
      "chip": "ym2612"
    },
    {
      "channel": 1,
      "note": 85,
      "start": 104.5509,
      "duration": 0.0525,
      "velocity": 98,
      "chip": "ym2612"
    },
    {
      "channel": 3,
      "note": 92,
      "start": 104.5518,
      "duration": 0.0154,
      "velocity": 99,
      "chip": "ym2612"
    },
    {
      "channel": 4,
      "note": 85,
      "start": 104.5611,
      "duration": 0.0156,
      "velocity": 99,
      "chip": "ym2612"
    },
    {
      "channel": 0,
      "note": 85,
      "start": 104.5622,
      "duration": 0.0154,
      "velocity": 98,
      "chip": "ym2612"
    },
    {
      "channel": 3,
      "note": 85,
      "start": 104.5703,
      "duration": 0.0148,
      "velocity": 99,
      "chip": "ym2612"
    },
    {
      "channel": 4,
      "note": 93,
      "start": 104.5789,
      "duration": 0.0157,
      "velocity": 99,
      "chip": "ym2612"
    },
    {
      "channel": 0,
      "note": 88,
      "start": 104.5801,
      "duration": 0.217,
      "velocity": 98,
      "chip": "ym2612"
    },
    {
      "channel": 2,
      "note": 52,
      "start": 104.5876,
      "duration": 0.0696,
      "velocity": 91,
      "chip": "ym2612"
    },
    {
      "channel": 3,
      "note": 93,
      "start": 104.5882,
      "duration": 0.0164,
      "velocity": 99,
      "chip": "ym2612"
    },
    {
      "channel": 4,
      "note": 92,
      "start": 104.5967,
      "duration": 0.0183,
      "velocity": 99,
      "chip": "ym2612"
    },
    {
      "channel": 1,
      "note": 85,
      "start": 104.6079,
      "duration": 0.0142,
      "velocity": 98,
      "chip": "ym2612"
    },
    {
      "channel": 3,
      "note": 92,
      "start": 104.6088,
      "duration": 0.0139,
      "velocity": 99,
      "chip": "ym2612"
    },
    {
      "channel": 4,
      "note": 88,
      "start": 104.6172,
      "duration": 0.0149,
      "velocity": 99,
      "chip": "ym2612"
    },
    {
      "channel": 1,
      "note": 88,
      "start": 104.6246,
      "duration": 0.2163,
      "velocity": 98,
      "chip": "ym2612"
    },
    {
      "channel": 3,
      "note": 88,
      "start": 104.6254,
      "duration": 0.0144,
      "velocity": 99,
      "chip": "ym2612"
    },
    {
      "channel": 4,
      "note": 95,
      "start": 104.6343,
      "duration": 0.0154,
      "velocity": 99,
      "chip": "ym2612"
    },
    {
      "channel": 3,
      "note": 95,
      "start": 104.6432,
      "duration": 0.0144,
      "velocity": 99,
      "chip": "ym2612"
    },
    {
      "channel": 4,
      "note": 92,
      "start": 104.6519,
      "duration": 0.0153,
      "velocity": 99,
      "chip": "ym2612"
    },
    {
      "channel": 2,
      "note": 52,
      "start": 104.6601,
      "duration": 0.0706,
      "velocity": 91,
      "chip": "ym2612"
    },
    {
      "channel": 3,
      "note": 92,
      "start": 104.6607,
      "duration": 0.0142,
      "velocity": 99,
      "chip": "ym2612"
    },
    {
      "channel": 4,
      "note": 88,
      "start": 104.6694,
      "duration": 0.0181,
      "velocity": 99,
      "chip": "ym2612"
    },
    {
      "channel": 3,
      "note": 88,
      "start": 104.6795,
      "duration": 0.0161,
      "velocity": 99,
      "chip": "ym2612"
    },
    {
      "channel": 4,
      "note": 95,
      "start": 104.6897,
      "duration": 0.0148,
      "velocity": 99,
      "chip": "ym2612"
    },
    {
      "channel": 3,
      "note": 95,
      "start": 104.698,
      "duration": 0.0145,
      "velocity": 99,
      "chip": "ym2612"
    },
    {
      "channel": 4,
      "note": 92,
      "start": 104.7068,
      "duration": 0.0158,
      "velocity": 99,
      "chip": "ym2612"
    },
    {
      "channel": 3,
      "note": 92,
      "start": 104.7156,
      "duration": 0.0154,
      "velocity": 99,
      "chip": "ym2612"
    },
    {
      "channel": 4,
      "note": 88,
      "start": 104.7249,
      "duration": 0.0154,
      "velocity": 99,
      "chip": "ym2612"
    },
    {
      "channel": 2,
      "note": 52,
      "start": 104.7333,
      "duration": 0.0707,
      "velocity": 91,
      "chip": "ym2612"
    },
    {
      "channel": 3,
      "note": 88,
      "start": 104.7338,
      "duration": 0.0147,
      "velocity": 99,
      "chip": "ym2612"
    },
    {
      "channel": 4,
      "note": 95,
      "start": 104.7425,
      "duration": 0.0178,
      "velocity": 99,
      "chip": "ym2612"
    },
    {
      "channel": 3,
      "note": 95,
      "start": 104.7514,
      "duration": 0.0175,
      "velocity": 99,
      "chip": "ym2612"
    },
    {
      "channel": 4,
      "note": 92,
      "start": 104.7631,
      "duration": 0.0145,
      "velocity": 99,
      "chip": "ym2612"
    },
    {
      "channel": 3,
      "note": 92,
      "start": 104.7712,
      "duration": 0.0147,
      "velocity": 99,
      "chip": "ym2612"
    },
    {
      "channel": 4,
      "note": 88,
      "start": 104.7802,
      "duration": 0.0156,
      "velocity": 99,
      "chip": "ym2612"
    },
    {
      "channel": 3,
      "note": 88,
      "start": 104.7892,
      "duration": 0.0152,
      "velocity": 99,
      "chip": "ym2612"
    },
    {
      "channel": 4,
      "note": 95,
      "start": 104.7984,
      "duration": 0.0149,
      "velocity": 99,
      "chip": "ym2612"
    },
    {
      "channel": 0,
      "note": 85,
      "start": 104.7996,
      "duration": 0.0525,
      "velocity": 98,
      "chip": "ym2612"
    },
    {
      "channel": 2,
      "note": 52,
      "start": 104.8062,
      "duration": 0.0701,
      "velocity": 91,
      "chip": "ym2612"
    },
    {
      "channel": 3,
      "note": 95,
      "start": 104.8068,
      "duration": 0.0147,
      "velocity": 99,
      "chip": "ym2612"
    },
    {
      "channel": 4,
      "note": 92,
      "start": 104.8159,
      "duration": 0.0151,
      "velocity": 99,
      "chip": "ym2612"
    },
    {
      "channel": 3,
      "note": 92,
      "start": 104.8247,
      "duration": 0.0167,
      "velocity": 99,
      "chip": "ym2612"
    },
    {
      "channel": 4,
      "note": 88,
      "start": 104.8344,
      "duration": 0.0168,
      "velocity": 99,
      "chip": "ym2612"
    },
    {
      "channel": 1,
      "note": 85,
      "start": 104.844,
      "duration": 0.049,
      "velocity": 98,
      "chip": "ym2612"
    },
    {
      "channel": 3,
      "note": 88,
      "start": 104.8449,
      "duration": 0.0143,
      "velocity": 99,
      "chip": "ym2612"
    },
    {
      "channel": 4,
      "note": 95,
      "start": 104.8533,
      "duration": 0.0152,
      "velocity": 99,
      "chip": "ym2612"
    },
    {
      "channel": 0,
      "note": 85,
      "start": 104.8546,
      "duration": 0.0149,
      "velocity": 98,
      "chip": "ym2612"
    },
    {
      "channel": 3,
      "note": 95,
      "start": 104.8621,
      "duration": 0.0145,
      "velocity": 99,
      "chip": "ym2612"
    },
    {
      "channel": 4,
      "note": 92,
      "start": 104.8709,
      "duration": 0.0151,
      "velocity": 99,
      "chip": "ym2612"
    },
    {
      "channel": 0,
      "note": 90,
      "start": 104.8721,
      "duration": 0.1435,
      "velocity": 98,
      "chip": "ym2612"
    },
    {
      "channel": 2,
      "note": 50,
      "start": 104.8789,
      "duration": 0.0695,
      "velocity": 91,
      "chip": "ym2612"
    },
    {
      "channel": 3,
      "note": 92,
      "start": 104.8796,
      "duration": 0.014,
      "velocity": 99,
      "chip": "ym2612"
    },
    {
      "channel": 4,
      "note": 93,
      "start": 104.8881,
      "duration": 0.0153,
      "velocity": 99,
      "chip": "ym2612"
    },
    {
      "channel": 1,
      "note": 85,
      "start": 104.8963,
      "duration": 0.0151,
      "velocity": 98,
      "chip": "ym2612"
    },
    {
      "channel": 3,
      "note": 93,
      "start": 104.8972,
      "duration": 0.0151,
      "velocity": 99,
      "chip": "ym2612"
    },
    {
      "channel": 4,
      "note": 90,
      "start": 104.9056,
      "duration": 0.0177,
      "velocity": 99,
      "chip": "ym2612"
    },
    {
      "channel": 1,
      "note": 90,
      "start": 104.9156,
      "duration": 0.1413,
      "velocity": 98,
      "chip": "ym2612"
    },
    {
      "channel": 3,
      "note": 90,
      "start": 104.9165,
      "duration": 0.0145,
      "velocity": 99,
      "chip": "ym2612"
    },
    {
      "channel": 4,
      "note": 85,
      "start": 104.9255,
      "duration": 0.0151,
      "velocity": 99,
      "chip": "ym2612"
    },
    {
      "channel": 3,
      "note": 85,
      "start": 104.9337,
      "duration": 0.0151,
      "velocity": 99,
      "chip": "ym2612"
    },
    {
      "channel": 4,
      "note": 93,
      "start": 104.9428,
      "duration": 0.016,
      "velocity": 99,
      "chip": "ym2612"
    },
    {
      "channel": 2,
      "note": 50,
      "start": 104.9513,
      "duration": 0.0716,
      "velocity": 91,
      "chip": "ym2612"
    },
    {
      "channel": 3,
      "note": 93,
      "start": 104.952,
      "duration": 0.0148,
      "velocity": 99,
      "chip": "ym2612"
    },
    {
      "channel": 4,
      "note": 90,
      "start": 104.961,
      "duration": 0.0156,
      "velocity": 99,
      "chip": "ym2612"
    },
    {
      "channel": 3,
      "note": 90,
      "start": 104.9701,
      "duration": 0.0147,
      "velocity": 99,
      "chip": "ym2612"
    },
    {
      "channel": 4,
      "note": 85,
      "start": 104.9788,
      "duration": 0.0184,
      "velocity": 99,
      "chip": "ym2612"
    },
    {
      "channel": 3,
      "note": 85,
      "start": 104.9883,
      "duration": 0.0171,
      "velocity": 99,
      "chip": "ym2612"
    },
    {
      "channel": 4,
      "note": 93,
      "start": 104.9994,
      "duration": 0.0153,
      "velocity": 99,
      "chip": "ym2612"
    },
    {
      "channel": 3,
      "note": 93,
      "start": 105.0081,
      "duration": 0.0152,
      "velocity": 99,
      "chip": "ym2612"
    },
    {
      "channel": 4,
      "note": 90,
      "start": 105.017,
      "duration": 0.015,
      "velocity": 99,
      "chip": "ym2612"
    },
    {
      "channel": 0,
      "note": 93,
      "start": 105.0185,
      "duration": 0.144,
      "velocity": 98,
      "chip": "ym2612"
    },
    {
      "channel": 2,
      "note": 50,
      "start": 105.0251,
      "duration": 0.0702,
      "velocity": 91,
      "chip": "ym2612"
    },
    {
      "channel": 3,
      "note": 90,
      "start": 105.0258,
      "duration": 0.0145,
      "velocity": 99,
      "chip": "ym2612"
    },
    {
      "channel": 4,
      "note": 85,
      "start": 105.0343,
      "duration": 0.0156,
      "velocity": 99,
      "chip": "ym2612"
    },
    {
      "channel": 3,
      "note": 85,
      "start": 105.0435,
      "duration": 0.0141,
      "velocity": 99,
      "chip": "ym2612"
    },
    {
      "channel": 4,
      "note": 93,
      "start": 105.052,
      "duration": 0.0171,
      "velocity": 99,
      "chip": "ym2612"
    },
    {
      "channel": 1,
      "note": 93,
      "start": 105.0602,
      "duration": 0.145,
      "velocity": 98,
      "chip": "ym2612"
    },
    {
      "channel": 3,
      "note": 93,
      "start": 105.061,
      "duration": 0.0173,
      "velocity": 99,
      "chip": "ym2612"
    },
    {
      "channel": 4,
      "note": 90,
      "start": 105.072,
      "duration": 0.0159,
      "velocity": 99,
      "chip": "ym2612"
    },
    {
      "channel": 3,
      "note": 90,
      "start": 105.0814,
      "duration": 0.0144,
      "velocity": 99,
      "chip": "ym2612"
    },
    {
      "channel": 4,
      "note": 85,
      "start": 105.0901,
      "duration": 0.0156,
      "velocity": 99,
      "chip": "ym2612"
    },
    {
      "channel": 2,
      "note": 50,
      "start": 105.0987,
      "duration": 0.0708,
      "velocity": 91,
      "chip": "ym2612"
    },
    {
      "channel": 3,
      "note": 85,
      "start": 105.0993,
      "duration": 0.0139,
      "velocity": 99,
      "chip": "ym2612"
    },
    {
      "channel": 4,
      "note": 93,
      "start": 105.1077,
      "duration": 0.0153,
      "velocity": 99,
      "chip": "ym2612"
    },
    {
      "channel": 3,
      "note": 93,
      "start": 105.1165,
      "duration": 0.0143,
      "velocity": 99,
      "chip": "ym2612"
    },
    {
      "channel": 4,
      "note": 90,
      "start": 105.1252,
      "duration": 0.0154,
      "velocity": 99,
      "chip": "ym2612"
    },
    {
      "channel": 3,
      "note": 90,
      "start": 105.1337,
      "duration": 0.0174,
      "velocity": 99,
      "chip": "ym2612"
    },
    {
      "channel": 4,
      "note": 85,
      "start": 105.143,
      "duration": 0.0186,
      "velocity": 99,
      "chip": "ym2612"
    },
    {
      "channel": 3,
      "note": 85,
      "start": 105.1546,
      "duration": 0.0153,
      "velocity": 99,
      "chip": "ym2612"
    },
    {
      "channel": 4,
      "note": 93,
      "start": 105.164,
      "duration": 0.0163,
      "velocity": 99,
      "chip": "ym2612"
    },
    {
      "channel": 0,
      "note": 92,
      "start": 105.1651,
      "duration": 0.2218,
      "velocity": 98,
      "chip": "ym2612"
    },
    {
      "channel": 2,
      "note": 49,
      "start": 105.1732,
      "duration": 0.0708,
      "velocity": 91,
      "chip": "ym2612"
    },
    {
      "channel": 3,
      "note": 93,
      "start": 105.1738,
      "duration": 0.0142,
      "velocity": 99,
      "chip": "ym2612"
    },
    {
      "channel": 4,
      "note": 92,
      "start": 105.1824,
      "duration": 0.0156,
      "velocity": 99,
      "chip": "ym2612"
    },
    {
      "channel": 3,
      "note": 92,
      "start": 105.1911,
      "duration": 0.0147,
      "velocity": 99,
      "chip": "ym2612"
    },
    {
      "channel": 4,
      "note": 90,
      "start": 105.2001,
      "duration": 0.0156,
      "velocity": 99,
      "chip": "ym2612"
    },
    {
      "channel": 1,
      "note": 92,
      "start": 105.2083,
      "duration": 0.2236,
      "velocity": 98,
      "chip": "ym2612"
    },
    {
      "channel": 3,
      "note": 90,
      "start": 105.2091,
      "duration": 0.015,
      "velocity": 99,
      "chip": "ym2612"
    },
    {
      "channel": 4,
      "note": 89,
      "start": 105.218,
      "duration": 0.0181,
      "velocity": 99,
      "chip": "ym2612"
    },
    {
      "channel": 3,
      "note": 89,
      "start": 105.2287,
      "duration": 0.0156,
      "velocity": 99,
      "chip": "ym2612"
    },
    {
      "channel": 4,
      "note": 92,
      "start": 105.2383,
      "duration": 0.0152,
      "velocity": 99,
      "chip": "ym2612"
    },
    {
      "channel": 2,
      "note": 49,
      "start": 105.2462,
      "duration": 0.0722,
      "velocity": 91,
      "chip": "ym2612"
    },
    {
      "channel": 3,
      "note": 92,
      "start": 105.2468,
      "duration": 0.0147,
      "velocity": 99,
      "chip": "ym2612"
    },
    {
      "channel": 4,
      "note": 90,
      "start": 105.2557,
      "duration": 0.016,
      "velocity": 99,
      "chip": "ym2612"
    },
    {
      "channel": 3,
      "note": 90,
      "start": 105.2649,
      "duration": 0.015,
      "velocity": 99,
      "chip": "ym2612"
    },
    {
      "channel": 4,
      "note": 89,
      "start": 105.2739,
      "duration": 0.0159,
      "velocity": 99,
      "chip": "ym2612"
    },
    {
      "channel": 3,
      "note": 89,
      "start": 105.2829,
      "duration": 0.0147,
      "velocity": 99,
      "chip": "ym2612"
    },
    {
      "channel": 4,
      "note": 92,
      "start": 105.292,
      "duration": 0.018,
      "velocity": 99,
      "chip": "ym2612"
    },
    {
      "channel": 3,
      "note": 92,
      "start": 105.301,
      "duration": 0.0178,
      "velocity": 99,
      "chip": "ym2612"
    },
    {
      "channel": 4,
      "note": 90,
      "start": 105.3126,
      "duration": 0.0175,
      "velocity": 99,
      "chip": "ym2612"
    },
    {
      "channel": 2,
      "note": 49,
      "start": 105.3222,
      "duration": 0.0732,
      "velocity": 91,
      "chip": "ym2612"
    },
    {
      "channel": 3,
      "note": 90,
      "start": 105.3228,
      "duration": 0.016,
      "velocity": 99,
      "chip": "ym2612"
    },
    {
      "channel": 4,
      "note": 89,
      "start": 105.3323,
      "duration": 0.0158,
      "velocity": 99,
      "chip": "ym2612"
    },
    {
      "channel": 3,
      "note": 89,
      "start": 105.3416,
      "duration": 0.0147,
      "velocity": 99,
      "chip": "ym2612"
    },
    {
      "channel": 4,
      "note": 92,
      "start": 105.3503,
      "duration": 0.0159,
      "velocity": 99,
      "chip": "ym2612"
    },
    {
      "channel": 3,
      "note": 92,
      "start": 105.3593,
      "duration": 0.0152,
      "velocity": 99,
      "chip": "ym2612"
    },
    {
      "channel": 4,
      "note": 90,
      "start": 105.3684,
      "duration": 0.017,
      "velocity": 99,
      "chip": "ym2612"
    },
    {
      "channel": 3,
      "note": 90,
      "start": 105.3778,
      "duration": 0.0179,
      "velocity": 99,
      "chip": "ym2612"
    },
    {
      "channel": 4,
      "note": 89,
      "start": 105.3889,
      "duration": 0.0177,
      "velocity": 99,
      "chip": "ym2612"
    },
    {
      "channel": 0,
      "note": 92,
      "start": 105.3902,
      "duration": 0.035,
      "velocity": 98,
      "chip": "ym2612"
    },
    {
      "channel": 2,
      "note": 49,
      "start": 105.3995,
      "duration": 0.0705,
      "velocity": 91,
      "chip": "ym2612"
    },
    {
      "channel": 3,
      "note": 89,
      "start": 105.4,
      "duration": 0.0143,
      "velocity": 99,
      "chip": "ym2612"
    },
    {
      "channel": 4,
      "note": 92,
      "start": 105.4088,
      "duration": 0.0155,
      "velocity": 99,
      "chip": "ym2612"
    },
    {
      "channel": 3,
      "note": 92,
      "start": 105.4179,
      "duration": 0.0145,
      "velocity": 99,
      "chip": "ym2612"
    },
    {
      "channel": 4,
      "note": 90,
      "start": 105.4265,
      "duration": 0.0156,
      "velocity": 99,
      "chip": "ym2612"
    },
    {
      "channel": 0,
      "note": 93,
      "start": 105.4277,
      "duration": 0.0153,
      "velocity": 98,
      "chip": "ym2612"
    },
    {
      "channel": 1,
      "note": 92,
      "start": 105.435,
      "duration": 0.0343,
      "velocity": 98,
      "chip": "ym2612"
    },
    {
      "channel": 3,
      "note": 90,
      "start": 105.4358,
      "duration": 0.0142,
      "velocity": 99,
      "chip": "ym2612"
    },
    {
      "channel": 4,
      "note": 89,
      "start": 105.4443,
      "duration": 0.0156,
      "velocity": 99,
      "chip": "ym2612"
    },
    {
      "channel": 0,
      "note": 95,
      "start": 105.4455,
      "duration": 0.0153,
      "velocity": 98,
      "chip": "ym2612"
    },
    {
      "channel": 3,
      "note": 89,
      "start": 105.4535,
      "duration": 0.0168,
      "velocity": 99,
      "chip": "ym2612"
    },
    {
      "channel": 4,
      "note": 92,
      "start": 105.462,
      "duration": 0.0225,
      "velocity": 99,
      "chip": "ym2612"
    },
    {
      "channel": 0,
      "note": 97,
      "start": 105.4639,
      "duration": 0.0741,
      "velocity": 98,
      "chip": "ym2612"
    },
    {
      "channel": 1,
      "note": 93,
      "start": 105.4731,
      "duration": 0.0188,
      "velocity": 98,
      "chip": "ym2612"
    },
    {
      "channel": 2,
      "note": 54,
      "start": 105.4769,
      "duration": 0.0682,
      "velocity": 91,
      "chip": "ym2612"
    },
    {
      "channel": 3,
      "note": 92,
      "start": 105.4778,
      "duration": 0.0146,
      "velocity": 99,
      "chip": "ym2612"
    },
    {
      "channel": 4,
      "note": 93,
      "start": 105.4866,
      "duration": 0.0149,
      "velocity": 99,
      "chip": "ym2612"
    },
    {
      "channel": 1,
      "note": 95,
      "start": 105.4943,
      "duration": 0.0142,
      "velocity": 98,
      "chip": "ym2612"
    },
    {
      "channel": 3,
      "note": 93,
      "start": 105.4951,
      "duration": 0.0139,
      "velocity": 99,
      "chip": "ym2612"
    },
    {
      "channel": 4,
      "note": 92,
      "start": 105.5036,
      "duration": 0.0151,
      "velocity": 99,
      "chip": "ym2612"
    },
    {
      "channel": 1,
      "note": 97,
      "start": 105.5115,
      "duration": 0.0708,
      "velocity": 98,
      "chip": "ym2612"
    },
    {
      "channel": 3,
      "note": 92,
      "start": 105.5124,
      "duration": 0.0143,
      "velocity": 99,
      "chip": "ym2612"
    },
    {
      "channel": 4,
      "note": 85,
      "start": 105.5208,
      "duration": 0.0162,
      "velocity": 99,
      "chip": "ym2612"
    },
    {
      "channel": 3,
      "note": 85,
      "start": 105.5302,
      "duration": 0.0153,
      "velocity": 99,
      "chip": "ym2612"
    },
    {
      "channel": 4,
      "note": 93,
      "start": 105.5393,
      "duration": 0.0179,
      "velocity": 99,
      "chip": "ym2612"
    },
    {
      "channel": 0,
      "note": 90,
      "start": 105.5405,
      "duration": 0.1449,
      "velocity": 98,
      "chip": "ym2612"
    },
    {
      "channel": 2,
      "note": 54,
      "start": 105.5483,
      "duration": 0.0705,
      "velocity": 91,
      "chip": "ym2612"
    },
    {
      "channel": 3,
      "note": 93,
      "start": 105.5495,
      "duration": 0.0156,
      "velocity": 99,
      "chip": "ym2612"
    },
    {
      "channel": 4,
      "note": 92,
      "start": 105.5593,
      "duration": 0.0155,
      "velocity": 99,
      "chip": "ym2612"
    },
    {
      "channel": 3,
      "note": 92,
      "start": 105.568,
      "duration": 0.0149,
      "velocity": 99,
      "chip": "ym2612"
    },
    {
      "channel": 4,
      "note": 85,
      "start": 105.5771,
      "duration": 0.0158,
      "velocity": 99,
      "chip": "ym2612"
    },
    {
      "channel": 1,
      "note": 90,
      "start": 105.5855,
      "duration": 0.1445,
      "velocity": 98,
      "chip": "ym2612"
    },
    {
      "channel": 3,
      "note": 85,
      "start": 105.5865,
      "duration": 0.0143,
      "velocity": 99,
      "chip": "ym2612"
    },
    {
      "channel": 4,
      "note": 93,
      "start": 105.5949,
      "duration": 0.0159,
      "velocity": 99,
      "chip": "ym2612"
    },
    {
      "channel": 3,
      "note": 93,
      "start": 105.6041,
      "duration": 0.015,
      "velocity": 99,
      "chip": "ym2612"
    },
    {
      "channel": 4,
      "note": 92,
      "start": 105.6131,
      "duration": 0.018,
      "velocity": 99,
      "chip": "ym2612"
    },
    {
      "channel": 2,
      "note": 54,
      "start": 105.6217,
      "duration": 0.0714,
      "velocity": 91,
      "chip": "ym2612"
    },
    {
      "channel": 3,
      "note": 92,
      "start": 105.6223,
      "duration": 0.0176,
      "velocity": 99,
      "chip": "ym2612"
    },
    {
      "channel": 4,
      "note": 85,
      "start": 105.6338,
      "duration": 0.0158,
      "velocity": 99,
      "chip": "ym2612"
    },
    {
      "channel": 3,
      "note": 85,
      "start": 105.6428,
      "duration": 0.0146,
      "velocity": 99,
      "chip": "ym2612"
    },
    {
      "channel": 4,
      "note": 93,
      "start": 105.6518,
      "duration": 0.0149,
      "velocity": 99,
      "chip": "ym2612"
    },
    {
      "channel": 3,
      "note": 93,
      "start": 105.6602,
      "duration": 0.0144,
      "velocity": 99,
      "chip": "ym2612"
    },
    {
      "channel": 4,
      "note": 92,
      "start": 105.669,
      "duration": 0.0155,
      "velocity": 99,
      "chip": "ym2612"
    },
    {
      "channel": 3,
      "note": 92,
      "start": 105.6779,
      "duration": 0.0156,
      "velocity": 99,
      "chip": "ym2612"
    },
    {
      "channel": 4,
      "note": 85,
      "start": 105.6868,
      "duration": 0.016,
      "velocity": 99,
      "chip": "ym2612"
    },
    {
      "channel": 0,
      "note": 90,
      "start": 105.6883,
      "duration": 0.016,
      "velocity": 98,
      "chip": "ym2612"
    },
    {
      "channel": 2,
      "note": 54,
      "start": 105.6954,
      "duration": 0.0712,
      "velocity": 91,
      "chip": "ym2612"
    },
    {
      "channel": 3,
      "note": 85,
      "start": 105.6961,
      "duration": 0.0176,
      "velocity": 99,
      "chip": "ym2612"
    },
    {
      "channel": 4,
      "note": 93,
      "start": 105.7062,
      "duration": 0.0165,
      "velocity": 99,
      "chip": "ym2612"
    },
    {
      "channel": 0,
      "note": 90,
      "start": 105.7074,
      "duration": 0.0162,
      "velocity": 98,
      "chip": "ym2612"
    },
    {
      "channel": 3,
      "note": 93,
      "start": 105.7164,
      "duration": 0.0143,
      "velocity": 99,
      "chip": "ym2612"
    },
    {
      "channel": 4,
      "note": 92,
      "start": 105.7249,
      "duration": 0.015,
      "velocity": 99,
      "chip": "ym2612"
    },
    {
      "channel": 0,
      "note": 92,
      "start": 105.726,
      "duration": 0.0152,
      "velocity": 98,
      "chip": "ym2612"
    },
    {
      "channel": 1,
      "note": 90,
      "start": 105.7327,
      "duration": 0.0153,
      "velocity": 98,
      "chip": "ym2612"
    },
    {
      "channel": 3,
      "note": 92,
      "start": 105.7336,
      "duration": 0.015,
      "velocity": 99,
      "chip": "ym2612"
    },
    {
      "channel": 4,
      "note": 85,
      "start": 105.7424,
      "duration": 0.0161,
      "velocity": 99,
      "chip": "ym2612"
    },
    {
      "channel": 0,
      "note": 93,
      "start": 105.7436,
      "duration": 0.0161,
      "velocity": 98,
      "chip": "ym2612"
    },
    {
      "channel": 1,
      "note": 90,
      "start": 105.7511,
      "duration": 0.0152,
      "velocity": 98,
      "chip": "ym2612"
    },
    {
      "channel": 3,
      "note": 85,
      "start": 105.752,
      "duration": 0.0148,
      "velocity": 99,
      "chip": "ym2612"
    },
    {
      "channel": 4,
      "note": 93,
      "start": 105.761,
      "duration": 0.0158,
      "velocity": 99,
      "chip": "ym2612"
    },
    {
      "channel": 0,
      "note": 95,
      "start": 105.7622,
      "duration": 0.0701,
      "velocity": 98,
      "chip": "ym2612"
    },
    {
      "channel": 1,
      "note": 92,
      "start": 105.7691,
      "duration": 0.016,
      "velocity": 98,
      "chip": "ym2612"
    },
    {
      "channel": 2,
      "note": 52,
      "start": 105.7696,
      "duration": 0.0695,
      "velocity": 91,
      "chip": "ym2612"
    },
    {
      "channel": 3,
      "note": 93,
      "start": 105.7704,
      "duration": 0.0156,
      "velocity": 99,
      "chip": "ym2612"
    },
    {
      "channel": 4,
      "note": 92,
      "start": 105.7789,
      "duration": 0.0177,
      "velocity": 99,
      "chip": "ym2612"
    },
    {
      "channel": 1,
      "note": 93,
      "start": 105.7892,
      "duration": 0.0145,
      "velocity": 98,
      "chip": "ym2612"
    },
    {
      "channel": 3,
      "note": 92,
      "start": 105.7901,
      "duration": 0.0141,
      "velocity": 99,
      "chip": "ym2612"
    },
    {
      "channel": 4,
      "note": 88,
      "start": 105.7988,
      "duration": 0.0145,
      "velocity": 99,
      "chip": "ym2612"
    },
    {
      "channel": 1,
      "note": 95,
      "start": 105.8061,
      "duration": 0.0701,
      "velocity": 98,
      "chip": "ym2612"
    },
    {
      "channel": 3,
      "note": 88,
      "start": 105.807,
      "duration": 0.0144,
      "velocity": 99,
      "chip": "ym2612"
    },
    {
      "channel": 4,
      "note": 95,
      "start": 105.8154,
      "duration": 0.016,
      "velocity": 99,
      "chip": "ym2612"
    },
    {
      "channel": 3,
      "note": 95,
      "start": 105.8249,
      "duration": 0.0145,
      "velocity": 99,
      "chip": "ym2612"
    },
    {
      "channel": 4,
      "note": 92,
      "start": 105.8336,
      "duration": 0.0149,
      "velocity": 99,
      "chip": "ym2612"
    },
    {
      "channel": 0,
      "note": 88,
      "start": 105.8348,
      "duration": 0.1454,
      "velocity": 98,
      "chip": "ym2612"
    },
    {
      "channel": 2,
      "note": 52,
      "start": 105.8416,
      "duration": 0.0693,
      "velocity": 91,
      "chip": "ym2612"
    },
    {
      "channel": 3,
      "note": 92,
      "start": 105.8422,
      "duration": 0.0139,
      "velocity": 99,
      "chip": "ym2612"
    },
    {
      "channel": 4,
      "note": 88,
      "start": 105.8507,
      "duration": 0.0182,
      "velocity": 99,
      "chip": "ym2612"
    },
    {
      "channel": 3,
      "note": 88,
      "start": 105.8602,
      "duration": 0.0165,
      "velocity": 99,
      "chip": "ym2612"
    },
    {
      "channel": 4,
      "note": 95,
      "start": 105.8711,
      "duration": 0.0149,
      "velocity": 99,
      "chip": "ym2612"
    },
    {
      "channel": 1,
      "note": 88,
      "start": 105.8787,
      "duration": 0.1461,
      "velocity": 98,
      "chip": "ym2612"
    },
    {
      "channel": 3,
      "note": 95,
      "start": 105.8797,
      "duration": 0.014,
      "velocity": 99,
      "chip": "ym2612"
    },
    {
      "channel": 4,
      "note": 92,
      "start": 105.8882,
      "duration": 0.0152,
      "velocity": 99,
      "chip": "ym2612"
    },
    {
      "channel": 3,
      "note": 92,
      "start": 105.8969,
      "duration": 0.0144,
      "velocity": 99,
      "chip": "ym2612"
    },
    {
      "channel": 4,
      "note": 88,
      "start": 105.9056,
      "duration": 0.0152,
      "velocity": 99,
      "chip": "ym2612"
    },
    {
      "channel": 2,
      "note": 52,
      "start": 105.9138,
      "duration": 0.0733,
      "velocity": 91,
      "chip": "ym2612"
    },
    {
      "channel": 3,
      "note": 88,
      "start": 105.9144,
      "duration": 0.0146,
      "velocity": 99,
      "chip": "ym2612"
    },
    {
      "channel": 4,
      "note": 95,
      "start": 105.9231,
      "duration": 0.0183,
      "velocity": 99,
      "chip": "ym2612"
    },
    {
      "channel": 3,
      "note": 95,
      "start": 105.9326,
      "duration": 0.018,
      "velocity": 99,
      "chip": "ym2612"
    },
    {
      "channel": 4,
      "note": 92,
      "start": 105.9442,
      "duration": 0.0174,
      "velocity": 99,
      "chip": "ym2612"
    },
    {
      "channel": 3,
      "note": 92,
      "start": 105.9551,
      "duration": 0.0144,
      "velocity": 99,
      "chip": "ym2612"
    },
    {
      "channel": 4,
      "note": 88,
      "start": 105.9638,
      "duration": 0.0155,
      "velocity": 99,
      "chip": "ym2612"
    },
    {
      "channel": 3,
      "note": 88,
      "start": 105.9727,
      "duration": 0.0149,
      "velocity": 99,
      "chip": "ym2612"
    },
    {
      "channel": 4,
      "note": 95,
      "start": 105.9816,
      "duration": 0.0154,
      "velocity": 99,
      "chip": "ym2612"
    },
    {
      "channel": 0,
      "note": 88,
      "start": 105.9828,
      "duration": 0.0151,
      "velocity": 98,
      "chip": "ym2612"
    },
    {
      "channel": 2,
      "note": 52,
      "start": 105.9895,
      "duration": 0.0718,
      "velocity": 91,
      "chip": "ym2612"
    },
    {
      "channel": 3,
      "note": 95,
      "start": 105.9902,
      "duration": 0.0148,
      "velocity": 99,
      "chip": "ym2612"
    },
    {
      "channel": 4,
      "note": 92,
      "start": 105.9993,
      "duration": 0.0153,
      "velocity": 99,
      "chip": "ym2612"
    },
    {
      "channel": 0,
      "note": 88,
      "start": 106.0004,
      "duration": 0.0153,
      "velocity": 98,
      "chip": "ym2612"
    },
    {
      "channel": 3,
      "note": 92,
      "start": 106.0078,
      "duration": 0.0176,
      "velocity": 99,
      "chip": "ym2612"
    },
    {
      "channel": 4,
      "note": 88,
      "start": 106.0172,
      "duration": 0.0179,
      "velocity": 99,
      "chip": "ym2612"
    },
    {
      "channel": 0,
      "note": 90,
      "start": 106.0188,
      "duration": 0.0175,
      "velocity": 98,
      "chip": "ym2612"
    },
    {
      "channel": 1,
      "note": 88,
      "start": 106.0279,
      "duration": 0.0149,
      "velocity": 98,
      "chip": "ym2612"
    },
    {
      "channel": 3,
      "note": 88,
      "start": 106.0288,
      "duration": 0.0146,
      "velocity": 99,
      "chip": "ym2612"
    },
    {
      "channel": 4,
      "note": 95,
      "start": 106.0376,
      "duration": 0.0158,
      "velocity": 99,
      "chip": "ym2612"
    },
    {
      "channel": 0,
      "note": 92,
      "start": 106.0388,
      "duration": 0.0154,
      "velocity": 98,
      "chip": "ym2612"
    },
    {
      "channel": 1,
      "note": 88,
      "start": 106.0459,
      "duration": 0.015,
      "velocity": 98,
      "chip": "ym2612"
    },
    {
      "channel": 3,
      "note": 95,
      "start": 106.0469,
      "duration": 0.0146,
      "velocity": 99,
      "chip": "ym2612"
    },
    {
      "channel": 4,
      "note": 92,
      "start": 106.0558,
      "duration": 0.0167,
      "velocity": 99,
      "chip": "ym2612"
    },
    {
      "channel": 0,
      "note": 93,
      "start": 106.057,
      "duration": 0.0722,
      "velocity": 98,
      "chip": "ym2612"
    },
    {
      "channel": 1,
      "note": 90,
      "start": 106.0648,
      "duration": 0.0151,
      "velocity": 98,
      "chip": "ym2612"
    },
    {
      "channel": 2,
      "note": 50,
      "start": 106.0653,
      "duration": 0.071,
      "velocity": 91,
      "chip": "ym2612"
    },
    {
      "channel": 3,
      "note": 92,
      "start": 106.0661,
      "duration": 0.0143,
      "velocity": 99,
      "chip": "ym2612"
    },
    {
      "channel": 4,
      "note": 93,
      "start": 106.0749,
      "duration": 0.0154,
      "velocity": 99,
      "chip": "ym2612"
    },
    {
      "channel": 1,
      "note": 92,
      "start": 106.0831,
      "duration": 0.0152,
      "velocity": 98,
      "chip": "ym2612"
    },
    {
      "channel": 3,
      "note": 93,
      "start": 106.084,
      "duration": 0.0149,
      "velocity": 99,
      "chip": "ym2612"
    },
    {
      "channel": 4,
      "note": 90,
      "start": 106.0924,
      "duration": 0.0184,
      "velocity": 99,
      "chip": "ym2612"
    },
    {
      "channel": 1,
      "note": 93,
      "start": 106.1023,
      "duration": 0.0695,
      "velocity": 98,
      "chip": "ym2612"
    },
    {
      "channel": 3,
      "note": 90,
      "start": 106.1035,
      "duration": 0.0152,
      "velocity": 99,
      "chip": "ym2612"
    },
    {
      "channel": 4,
      "note": 85,
      "start": 106.1132,
      "duration": 0.0151,
      "velocity": 99,
      "chip": "ym2612"
    },
    {
      "channel": 3,
      "note": 85,
      "start": 106.1215,
      "duration": 0.0152,
      "velocity": 99,
      "chip": "ym2612"
    },
    {
      "channel": 4,
      "note": 93,
      "start": 106.1305,
      "duration": 0.0155,
      "velocity": 99,
      "chip": "ym2612"
    },
    {
      "channel": 0,
      "note": 85,
      "start": 106.1317,
      "duration": 0.0712,
      "velocity": 98,
      "chip": "ym2612"
    },
    {
      "channel": 2,
      "note": 50,
      "start": 106.1388,
      "duration": 0.0709,
      "velocity": 91,
      "chip": "ym2612"
    },
    {
      "channel": 3,
      "note": 93,
      "start": 106.1394,
      "duration": 0.0147,
      "velocity": 99,
      "chip": "ym2612"
    },
    {
      "channel": 4,
      "note": 90,
      "start": 106.1482,
      "duration": 0.0158,
      "velocity": 99,
      "chip": "ym2612"
    },
    {
      "channel": 3,
      "note": 90,
      "start": 106.1576,
      "duration": 0.0147,
      "velocity": 99,
      "chip": "ym2612"
    },
    {
      "channel": 4,
      "note": 85,
      "start": 106.1663,
      "duration": 0.018,
      "velocity": 99,
      "chip": "ym2612"
    },
    {
      "channel": 1,
      "note": 85,
      "start": 106.1747,
      "duration": 0.07,
      "velocity": 98,
      "chip": "ym2612"
    },
    {
      "channel": 3,
      "note": 85,
      "start": 106.1756,
      "duration": 0.0168,
      "velocity": 99,
      "chip": "ym2612"
    },
    {
      "channel": 4,
      "note": 93,
      "start": 106.1865,
      "duration": 0.0155,
      "velocity": 99,
      "chip": "ym2612"
    },
    {
      "channel": 3,
      "note": 93,
      "start": 106.1951,
      "duration": 0.0149,
      "velocity": 99,
      "chip": "ym2612"
    },
    {
      "channel": 4,
      "note": 90,
      "start": 106.2042,
      "duration": 0.0151,
      "velocity": 99,
      "chip": "ym2612"
    },
    {
      "channel": 0,
      "note": 90,
      "start": 106.2054,
      "duration": 0.071,
      "velocity": 98,
      "chip": "ym2612"
    },
    {
      "channel": 2,
      "note": 50,
      "start": 106.2124,
      "duration": 0.0713,
      "velocity": 91,
      "chip": "ym2612"
    },
    {
      "channel": 3,
      "note": 90,
      "start": 106.213,
      "duration": 0.0141,
      "velocity": 99,
      "chip": "ym2612"
    },
    {
      "channel": 4,
      "note": 85,
      "start": 106.2216,
      "duration": 0.0156,
      "velocity": 99,
      "chip": "ym2612"
    },
    {
      "channel": 3,
      "note": 85,
      "start": 106.2305,
      "duration": 0.0147,
      "velocity": 99,
      "chip": "ym2612"
    },
    {
      "channel": 4,
      "note": 93,
      "start": 106.2393,
      "duration": 0.0166,
      "velocity": 99,
      "chip": "ym2612"
    },
    {
      "channel": 1,
      "note": 90,
      "start": 106.2477,
      "duration": 0.0715,
      "velocity": 98,
      "chip": "ym2612"
    },
    {
      "channel": 3,
      "note": 93,
      "start": 106.2485,
      "duration": 0.0175,
      "velocity": 99,
      "chip": "ym2612"
    },
    {
      "channel": 4,
      "note": 90,
      "start": 106.2593,
      "duration": 0.0161,
      "velocity": 99,
      "chip": "ym2612"
    },
    {
      "channel": 3,
      "note": 90,
      "start": 106.269,
      "duration": 0.0151,
      "velocity": 99,
      "chip": "ym2612"
    },
    {
      "channel": 4,
      "note": 85,
      "start": 106.2778,
      "duration": 0.0158,
      "velocity": 99,
      "chip": "ym2612"
    },
    {
      "channel": 0,
      "note": 98,
      "start": 106.279,
      "duration": 0.0726,
      "velocity": 98,
      "chip": "ym2612"
    },
    {
      "channel": 2,
      "note": 50,
      "start": 106.2862,
      "duration": 0.0721,
      "velocity": 91,
      "chip": "ym2612"
    },
    {
      "channel": 3,
      "note": 85,
      "start": 106.287,
      "duration": 0.0146,
      "velocity": 99,
      "chip": "ym2612"
    },
    {
      "channel": 4,
      "note": 93,
      "start": 106.2958,
      "duration": 0.0159,
      "velocity": 99,
      "chip": "ym2612"
    },
    {
      "channel": 3,
      "note": 93,
      "start": 106.3049,
      "duration": 0.0148,
      "velocity": 99,
      "chip": "ym2612"
    },
    {
      "channel": 4,
      "note": 90,
      "start": 106.3138,
      "duration": 0.016,
      "velocity": 99,
      "chip": "ym2612"
    },
    {
      "channel": 1,
      "note": 98,
      "start": 106.3224,
      "duration": 0.0713,
      "velocity": 98,
      "chip": "ym2612"
    },
    {
      "channel": 3,
      "note": 90,
      "start": 106.3232,
      "duration": 0.0169,
      "velocity": 99,
      "chip": "ym2612"
    },
    {
      "channel": 4,
      "note": 85,
      "start": 106.3322,
      "duration": 0.0185,
      "velocity": 99,
      "chip": "ym2612"
    },
    {
      "channel": 3,
      "note": 85,
      "start": 106.3442,
      "duration": 0.0146,
      "velocity": 99,
      "chip": "ym2612"
    },
    {
      "channel": 4,
      "note": 93,
      "start": 106.353,
      "duration": 0.0163,
      "velocity": 99,
      "chip": "ym2612"
    },
    {
      "channel": 0,
      "note": 97,
      "start": 106.3541,
      "duration": 0.0072,
      "velocity": 98,
      "chip": "ym2612"
    },
    {
      "channel": 2,
      "note": 49,
      "start": 106.362,
      "duration": 0.0703,
      "velocity": 91,
      "chip": "ym2612"
    },
    {
      "channel": 3,
      "note": 93,
      "start": 106.3626,
      "duration": 0.0149,
      "velocity": 99,
      "chip": "ym2612"
    },
    {
      "channel": 0,
      "note": 98,
      "start": 106.3645,
      "duration": 0.006,
      "velocity": 98,
      "chip": "ym2612"
    },
    {
      "channel": 4,
      "note": 92,
      "start": 106.3718,
      "duration": 0.0149,
      "velocity": 99,
      "chip": "ym2612"
    },
    {
      "channel": 0,
      "note": 97,
      "start": 106.373,
      "duration": 0.202,
      "velocity": 98,
      "chip": "ym2612"
    },
    {
      "channel": 3,
      "note": 92,
      "start": 106.3803,
      "duration": 0.0139,
      "velocity": 99,
      "chip": "ym2612"
    },
    {
      "channel": 4,
      "note": 90,
      "start": 106.3887,
      "duration": 0.0152,
      "velocity": 99,
      "chip": "ym2612"
    },
    {
      "channel": 1,
      "note": 97,
      "start": 106.3968,
      "duration": 0.0063,
      "velocity": 98,
      "chip": "ym2612"
    },
    {
      "channel": 3,
      "note": 90,
      "start": 106.3976,
      "duration": 0.0148,
      "velocity": 99,
      "chip": "ym2612"
    },
    {
      "channel": 1,
      "note": 98,
      "start": 106.4052,
      "duration": 0.0066,
      "velocity": 98,
      "chip": "ym2612"
    },
    {
      "channel": 4,
      "note": 89,
      "start": 106.4064,
      "duration": 0.0184,
      "velocity": 99,
      "chip": "ym2612"
    },
    {
      "channel": 1,
      "note": 97,
      "start": 106.4156,
      "duration": 0.1676,
      "velocity": 98,
      "chip": "ym2612"
    },
    {
      "channel": 3,
      "note": 89,
      "start": 106.4171,
      "duration": 0.0155,
      "velocity": 99,
      "chip": "ym2612"
    },
    {
      "channel": 4,
      "note": 93,
      "start": 106.4269,
      "duration": 0.0163,
      "velocity": 99,
      "chip": "ym2612"
    },
    {
      "channel": 2,
      "note": 49,
      "start": 106.4361,
      "duration": 0.0718,
      "velocity": 91,
      "chip": "ym2612"
    },
    {
      "channel": 3,
      "note": 93,
      "start": 106.4368,
      "duration": 0.0142,
      "velocity": 99,
      "chip": "ym2612"
    },
    {
      "channel": 4,
      "note": 92,
      "start": 106.4454,
      "duration": 0.0152,
      "velocity": 99,
      "chip": "ym2612"
    },
    {
      "channel": 3,
      "note": 92,
      "start": 106.4542,
      "duration": 0.0144,
      "velocity": 99,
      "chip": "ym2612"
    },
    {
      "channel": 4,
      "note": 90,
      "start": 106.4627,
      "duration": 0.016,
      "velocity": 99,
      "chip": "ym2612"
    },
    {
      "channel": 3,
      "note": 90,
      "start": 106.4719,
      "duration": 0.0147,
      "velocity": 99,
      "chip": "ym2612"
    },
    {
      "channel": 4,
      "note": 89,
      "start": 106.481,
      "duration": 0.018,
      "velocity": 99,
      "chip": "ym2612"
    },
    {
      "channel": 3,
      "note": 89,
      "start": 106.4898,
      "duration": 0.0185,
      "velocity": 99,
      "chip": "ym2612"
    },
    {
      "channel": 4,
      "note": 86,
      "start": 106.5016,
      "duration": 0.1448,
      "velocity": 99,
      "chip": "ym2612"
    },
    {
      "channel": 2,
      "note": 49,
      "start": 106.5123,
      "duration": 0.0712,
      "velocity": 91,
      "chip": "ym2612"
    },
    {
      "channel": 3,
      "note": 86,
      "start": 106.5129,
      "duration": 0.1437,
      "velocity": 99,
      "chip": "ym2612"
    },
    {
      "channel": 2,
      "note": 49,
      "start": 106.5859,
      "duration": 0.07,
      "velocity": 91,
      "chip": "ym2612"
    },
    {
      "channel": 0,
      "note": 61,
      "start": 107.1601,
      "duration": 0.1845,
      "velocity": 102,
      "chip": "ym2612"
    },
    {
      "channel": 1,
      "note": 61,
      "start": 107.3451,
      "duration": 0.1885,
      "velocity": 102,
      "chip": "ym2612"
    },
    {
      "channel": 0,
      "note": 61,
      "start": 107.3619,
      "duration": 0.1885,
      "velocity": 102,
      "chip": "ym2612"
    },
    {
      "channel": 1,
      "note": 61,
      "start": 107.5509,
      "duration": 0.1884,
      "velocity": 102,
      "chip": "ym2612"
    },
    {
      "channel": 0,
      "note": 61,
      "start": 107.5678,
      "duration": 0.1885,
      "velocity": 102,
      "chip": "ym2612"
    },
    {
      "channel": 1,
      "note": 61,
      "start": 107.7567,
      "duration": 0.1885,
      "velocity": 102,
      "chip": "ym2612"
    },
    {
      "channel": 0,
      "note": 66,
      "start": 107.7737,
      "duration": 0.6197,
      "velocity": 102,
      "chip": "ym2612"
    },
    {
      "channel": 1,
      "note": 66,
      "start": 107.9626,
      "duration": 0.4991,
      "velocity": 102,
      "chip": "ym2612"
    },
    {
      "channel": 0,
      "note": 66,
      "start": 108.3934,
      "duration": 0.1232,
      "velocity": 102,
      "chip": "ym2612"
    },
    {
      "channel": 2,
      "note": 54,
      "start": 108.4434,
      "duration": 0.0242,
      "velocity": 91,
      "chip": "ym2612"
    },
    {
      "channel": 3,
      "note": 85,
      "start": 108.444,
      "duration": 0.024,
      "velocity": 100,
      "chip": "ym2612"
    },
    {
      "channel": 4,
      "note": 85,
      "start": 108.4492,
      "duration": 0.0239,
      "velocity": 100,
      "chip": "ym2612"
    },
    {
      "channel": 1,
      "note": 66,
      "start": 108.4617,
      "duration": 0.0818,
      "velocity": 102,
      "chip": "ym2612"
    },
    {
      "channel": 2,
      "note": 54,
      "start": 108.4699,
      "duration": 0.0219,
      "velocity": 91,
      "chip": "ym2612"
    },
    {
      "channel": 3,
      "note": 66,
      "start": 108.4705,
      "duration": 0.0216,
      "velocity": 100,
      "chip": "ym2612"
    },
    {
      "channel": 4,
      "note": 61,
      "start": 108.4753,
      "duration": 0.0226,
      "velocity": 100,
      "chip": "ym2612"
    },
    {
      "channel": 2,
      "note": 54,
      "start": 108.4946,
      "duration": 0.0264,
      "velocity": 91,
      "chip": "ym2612"
    },
    {
      "channel": 3,
      "note": 66,
      "start": 108.4953,
      "duration": 0.0261,
      "velocity": 100,
      "chip": "ym2612"
    },
    {
      "channel": 4,
      "note": 61,
      "start": 108.5001,
      "duration": 0.0282,
      "velocity": 100,
      "chip": "ym2612"
    },
    {
      "channel": 0,
      "note": 66,
      "start": 108.5166,
      "duration": 0.3785,
      "velocity": 102,
      "chip": "ym2612"
    },
    {
      "channel": 2,
      "note": 54,
      "start": 108.5251,
      "duration": 0.0243,
      "velocity": 91,
      "chip": "ym2612"
    },
    {
      "channel": 3,
      "note": 66,
      "start": 108.5257,
      "duration": 0.024,
      "velocity": 100,
      "chip": "ym2612"
    },
    {
      "channel": 4,
      "note": 61,
      "start": 108.5306,
      "duration": 0.0393,
      "velocity": 100,
      "chip": "ym2612"
    },
    {
      "channel": 1,
      "note": 66,
      "start": 108.5435,
      "duration": 0.5402,
      "velocity": 102,
      "chip": "ym2612"
    },
    {
      "channel": 0,
      "note": 68,
      "start": 108.9137,
      "duration": 0.1869,
      "velocity": 102,
      "chip": "ym2612"
    },
    {
      "channel": 1,
      "note": 68,
      "start": 109.1026,
      "duration": 0.1869,
      "velocity": 102,
      "chip": "ym2612"
    },
    {
      "channel": 0,
      "note": 68,
      "start": 109.118,
      "duration": 0.1885,
      "velocity": 102,
      "chip": "ym2612"
    },
    {
      "channel": 1,
      "note": 68,
      "start": 109.307,
      "duration": 0.1885,
      "velocity": 102,
      "chip": "ym2612"
    },
    {
      "channel": 0,
      "note": 69,
      "start": 109.3239,
      "duration": 0.1884,
      "velocity": 102,
      "chip": "ym2612"
    },
    {
      "channel": 1,
      "note": 69,
      "start": 109.5127,
      "duration": 0.1885,
      "velocity": 102,
      "chip": "ym2612"
    },
    {
      "channel": 0,
      "note": 68,
      "start": 109.5297,
      "duration": 0.6192,
      "velocity": 102,
      "chip": "ym2612"
    },
    {
      "channel": 1,
      "note": 68,
      "start": 109.7187,
      "duration": 0.4988,
      "velocity": 102,
      "chip": "ym2612"
    },
    {
      "channel": 0,
      "note": 68,
      "start": 110.1489,
      "duration": 0.0931,
      "velocity": 102,
      "chip": "ym2612"
    },
    {
      "channel": 2,
      "note": 52,
      "start": 110.1992,
      "duration": 0.0246,
      "velocity": 91,
      "chip": "ym2612"
    },
    {
      "channel": 3,
      "note": 66,
      "start": 110.1998,
      "duration": 0.0243,
      "velocity": 100,
      "chip": "ym2612"
    },
    {
      "channel": 4,
      "note": 61,
      "start": 110.205,
      "duration": 0.0244,
      "velocity": 100,
      "chip": "ym2612"
    },
    {
      "channel": 1,
      "note": 68,
      "start": 110.2175,
      "duration": 0.0528,
      "velocity": 102,
      "chip": "ym2612"
    },
    {
      "channel": 2,
      "note": 52,
      "start": 110.2262,
      "duration": 0.0245,
      "velocity": 91,
      "chip": "ym2612"
    },
    {
      "channel": 3,
      "note": 64,
      "start": 110.2268,
      "duration": 0.0243,
      "velocity": 100,
      "chip": "ym2612"
    },
    {
      "channel": 4,
      "note": 59,
      "start": 110.2316,
      "duration": 0.027,
      "velocity": 100,
      "chip": "ym2612"
    },
    {
      "channel": 0,
      "note": 59,
      "start": 110.2456,
      "duration": 0.0263,
      "velocity": 102,
      "chip": "ym2612"
    },
    {
      "channel": 2,
      "note": 52,
      "start": 110.2541,
      "duration": 0.026,
      "velocity": 91,
      "chip": "ym2612"
    },
    {
      "channel": 3,
      "note": 64,
      "start": 110.2554,
      "duration": 0.0251,
      "velocity": 100,
      "chip": "ym2612"
    },
    {
      "channel": 4,
      "note": 59,
      "start": 110.2612,
      "duration": 0.0257,
      "velocity": 100,
      "chip": "ym2612"
    },
    {
      "channel": 1,
      "note": 59,
      "start": 110.2739,
      "duration": 0.0237,
      "velocity": 102,
      "chip": "ym2612"
    },
    {
      "channel": 0,
      "note": 64,
      "start": 110.2759,
      "duration": 0.3757,
      "velocity": 102,
      "chip": "ym2612"
    },
    {
      "channel": 2,
      "note": 52,
      "start": 110.2837,
      "duration": 0.0223,
      "velocity": 91,
      "chip": "ym2612"
    },
    {
      "channel": 3,
      "note": 64,
      "start": 110.2843,
      "duration": 0.022,
      "velocity": 100,
      "chip": "ym2612"
    },
    {
      "channel": 4,
      "note": 59,
      "start": 110.289,
      "duration": 0.0375,
      "velocity": 100,
      "chip": "ym2612"
    },
    {
      "channel": 1,
      "note": 64,
      "start": 110.3001,
      "duration": 0.5403,
      "velocity": 102,
      "chip": "ym2612"
    },
    {
      "channel": 0,
      "note": 61,
      "start": 110.6689,
      "duration": 0.1885,
      "velocity": 102,
      "chip": "ym2612"
    },
    {
      "channel": 1,
      "note": 61,
      "start": 110.8578,
      "duration": 0.1885,
      "velocity": 102,
      "chip": "ym2612"
    },
    {
      "channel": 0,
      "note": 61,
      "start": 110.8747,
      "duration": 0.1885,
      "velocity": 102,
      "chip": "ym2612"
    },
    {
      "channel": 1,
      "note": 61,
      "start": 111.0636,
      "duration": 0.1886,
      "velocity": 102,
      "chip": "ym2612"
    },
    {
      "channel": 0,
      "note": 61,
      "start": 111.0806,
      "duration": 0.1885,
      "velocity": 102,
      "chip": "ym2612"
    },
    {
      "channel": 1,
      "note": 61,
      "start": 111.2695,
      "duration": 0.1885,
      "velocity": 102,
      "chip": "ym2612"
    },
    {
      "channel": 0,
      "note": 66,
      "start": 111.2881,
      "duration": 0.6175,
      "velocity": 102,
      "chip": "ym2612"
    },
    {
      "channel": 1,
      "note": 66,
      "start": 111.4755,
      "duration": 0.4987,
      "velocity": 102,
      "chip": "ym2612"
    },
    {
      "channel": 0,
      "note": 66,
      "start": 111.9056,
      "duration": 0.1246,
      "velocity": 102,
      "chip": "ym2612"
    },
    {
      "channel": 2,
      "note": 54,
      "start": 111.9559,
      "duration": 0.0241,
      "velocity": 91,
      "chip": "ym2612"
    },
    {
      "channel": 3,
      "note": 64,
      "start": 111.9565,
      "duration": 0.0238,
      "velocity": 100,
      "chip": "ym2612"
    },
    {
      "channel": 4,
      "note": 59,
      "start": 111.9617,
      "duration": 0.0244,
      "velocity": 100,
      "chip": "ym2612"
    },
    {
      "channel": 1,
      "note": 66,
      "start": 111.9741,
      "duration": 0.0813,
      "velocity": 102,
      "chip": "ym2612"
    },
    {
      "channel": 2,
      "note": 54,
      "start": 111.9826,
      "duration": 0.0255,
      "velocity": 91,
      "chip": "ym2612"
    },
    {
      "channel": 3,
      "note": 66,
      "start": 111.9832,
      "duration": 0.0251,
      "velocity": 100,
      "chip": "ym2612"
    },
    {
      "channel": 4,
      "note": 61,
      "start": 111.9882,
      "duration": 0.0252,
      "velocity": 100,
      "chip": "ym2612"
    },
    {
      "channel": 2,
      "note": 54,
      "start": 112.0102,
      "duration": 0.0243,
      "velocity": 91,
      "chip": "ym2612"
    },
    {
      "channel": 3,
      "note": 66,
      "start": 112.0108,
      "duration": 0.0239,
      "velocity": 100,
      "chip": "ym2612"
    },
    {
      "channel": 4,
      "note": 61,
      "start": 112.0156,
      "duration": 0.0248,
      "velocity": 100,
      "chip": "ym2612"
    },
    {
      "channel": 0,
      "note": 66,
      "start": 112.0302,
      "duration": 0.3761,
      "velocity": 102,
      "chip": "ym2612"
    },
    {
      "channel": 2,
      "note": 54,
      "start": 112.0371,
      "duration": 0.0242,
      "velocity": 91,
      "chip": "ym2612"
    },
    {
      "channel": 3,
      "note": 66,
      "start": 112.0377,
      "duration": 0.0239,
      "velocity": 100,
      "chip": "ym2612"
    },
    {
      "channel": 4,
      "note": 61,
      "start": 112.0425,
      "duration": 0.0389,
      "velocity": 100,
      "chip": "ym2612"
    },
    {
      "channel": 1,
      "note": 66,
      "start": 112.0554,
      "duration": 0.5398,
      "velocity": 102,
      "chip": "ym2612"
    },
    {
      "channel": 0,
      "note": 68,
      "start": 112.4251,
      "duration": 0.187,
      "velocity": 102,
      "chip": "ym2612"
    },
    {
      "channel": 1,
      "note": 68,
      "start": 112.6141,
      "duration": 0.1869,
      "velocity": 102,
      "chip": "ym2612"
    },
    {
      "channel": 0,
      "note": 68,
      "start": 112.6295,
      "duration": 0.1885,
      "velocity": 102,
      "chip": "ym2612"
    },
    {
      "channel": 1,
      "note": 68,
      "start": 112.8184,
      "duration": 0.1885,
      "velocity": 102,
      "chip": "ym2612"
    },
    {
      "channel": 0,
      "note": 69,
      "start": 112.8354,
      "duration": 0.1885,
      "velocity": 102,
      "chip": "ym2612"
    },
    {
      "channel": 1,
      "note": 69,
      "start": 113.0243,
      "duration": 0.1884,
      "velocity": 102,
      "chip": "ym2612"
    },
    {
      "channel": 0,
      "note": 71,
      "start": 113.0413,
      "duration": 0.6191,
      "velocity": 102,
      "chip": "ym2612"
    },
    {
      "channel": 1,
      "note": 71,
      "start": 113.2302,
      "duration": 0.4995,
      "velocity": 102,
      "chip": "ym2612"
    },
    {
      "channel": 0,
      "note": 71,
      "start": 113.6604,
      "duration": 0.1202,
      "velocity": 102,
      "chip": "ym2612"
    },
    {
      "channel": 2,
      "note": 52,
      "start": 113.7107,
      "duration": 0.0266,
      "velocity": 91,
      "chip": "ym2612"
    },
    {
      "channel": 3,
      "note": 66,
      "start": 113.7112,
      "duration": 0.0264,
      "velocity": 100,
      "chip": "ym2612"
    },
    {
      "channel": 4,
      "note": 61,
      "start": 113.7164,
      "duration": 0.0266,
      "velocity": 100,
      "chip": "ym2612"
    },
    {
      "channel": 1,
      "note": 71,
      "start": 113.7297,
      "duration": 0.0492,
      "velocity": 102,
      "chip": "ym2612"
    },
    {
      "channel": 2,
      "note": 52,
      "start": 113.7398,
      "duration": 0.0224,
      "velocity": 91,
      "chip": "ym2612"
    },
    {
      "channel": 3,
      "note": 64,
      "start": 113.7405,
      "duration": 0.022,
      "velocity": 100,
      "chip": "ym2612"
    },
    {
      "channel": 4,
      "note": 59,
      "start": 113.7452,
      "duration": 0.0227,
      "velocity": 100,
      "chip": "ym2612"
    },
    {
      "channel": 2,
      "note": 52,
      "start": 113.7646,
      "duration": 0.0256,
      "velocity": 91,
      "chip": "ym2612"
    },
    {
      "channel": 3,
      "note": 64,
      "start": 113.7653,
      "duration": 0.0253,
      "velocity": 100,
      "chip": "ym2612"
    },
    {
      "channel": 4,
      "note": 59,
      "start": 113.77,
      "duration": 0.0261,
      "velocity": 100,
      "chip": "ym2612"
    },
    {
      "channel": 1,
      "note": 68,
      "start": 113.7826,
      "duration": 0.0248,
      "velocity": 102,
      "chip": "ym2612"
    },
    {
      "channel": 0,
      "note": 68,
      "start": 113.786,
      "duration": 0.3782,
      "velocity": 102,
      "chip": "ym2612"
    },
    {
      "channel": 2,
      "note": 52,
      "start": 113.7929,
      "duration": 0.0244,
      "velocity": 91,
      "chip": "ym2612"
    },
    {
      "channel": 3,
      "note": 64,
      "start": 113.7935,
      "duration": 0.0241,
      "velocity": 100,
      "chip": "ym2612"
    },
    {
      "channel": 4,
      "note": 59,
      "start": 113.7983,
      "duration": 0.041,
      "velocity": 100,
      "chip": "ym2612"
    },
    {
      "channel": 1,
      "note": 68,
      "start": 113.8101,
      "duration": 0.5435,
      "velocity": 102,
      "chip": "ym2612"
    },
    {
      "channel": 0,
      "note": 61,
      "start": 114.1815,
      "duration": 0.1889,
      "velocity": 102,
      "chip": "ym2612"
    },
    {
      "channel": 1,
      "note": 61,
      "start": 114.3709,
      "duration": 0.1881,
      "velocity": 102,
      "chip": "ym2612"
    },
    {
      "channel": 0,
      "note": 61,
      "start": 114.5933,
      "duration": 0.1885,
      "velocity": 102,
      "chip": "ym2612"
    },
    {
      "channel": 1,
      "note": 61,
      "start": 114.7822,
      "duration": 0.1887,
      "velocity": 102,
      "chip": "ym2612"
    },
    {
      "channel": 0,
      "note": 66,
      "start": 114.7992,
      "duration": 0.619,
      "velocity": 102,
      "chip": "ym2612"
    },
    {
      "channel": 1,
      "note": 66,
      "start": 114.9881,
      "duration": 0.5012,
      "velocity": 102,
      "chip": "ym2612"
    },
    {
      "channel": 0,
      "note": 66,
      "start": 115.4182,
      "duration": 0.1261,
      "velocity": 102,
      "chip": "ym2612"
    },
    {
      "channel": 2,
      "note": 54,
      "start": 115.4686,
      "duration": 0.0265,
      "velocity": 91,
      "chip": "ym2612"
    },
    {
      "channel": 3,
      "note": 64,
      "start": 115.4692,
      "duration": 0.0262,
      "velocity": 100,
      "chip": "ym2612"
    },
    {
      "channel": 4,
      "note": 59,
      "start": 115.4759,
      "duration": 0.0265,
      "velocity": 100,
      "chip": "ym2612"
    },
    {
      "channel": 1,
      "note": 66,
      "start": 115.4892,
      "duration": 0.0831,
      "velocity": 102,
      "chip": "ym2612"
    },
    {
      "channel": 2,
      "note": 54,
      "start": 115.4991,
      "duration": 0.0227,
      "velocity": 91,
      "chip": "ym2612"
    },
    {
      "channel": 3,
      "note": 66,
      "start": 115.4997,
      "duration": 0.0224,
      "velocity": 100,
      "chip": "ym2612"
    },
    {
      "channel": 4,
      "note": 61,
      "start": 115.5045,
      "duration": 0.0234,
      "velocity": 100,
      "chip": "ym2612"
    },
    {
      "channel": 2,
      "note": 54,
      "start": 115.5246,
      "duration": 0.0245,
      "velocity": 91,
      "chip": "ym2612"
    },
    {
      "channel": 3,
      "note": 66,
      "start": 115.5253,
      "duration": 0.0242,
      "velocity": 100,
      "chip": "ym2612"
    },
    {
      "channel": 4,
      "note": 61,
      "start": 115.53,
      "duration": 0.0265,
      "velocity": 100,
      "chip": "ym2612"
    },
    {
      "channel": 0,
      "note": 66,
      "start": 115.5443,
      "duration": 0.3809,
      "velocity": 102,
      "chip": "ym2612"
    },
    {
      "channel": 2,
      "note": 54,
      "start": 115.5521,
      "duration": 0.0269,
      "velocity": 91,
      "chip": "ym2612"
    },
    {
      "channel": 3,
      "note": 66,
      "start": 115.5533,
      "duration": 0.026,
      "velocity": 100,
      "chip": "ym2612"
    },
    {
      "channel": 4,
      "note": 61,
      "start": 115.5594,
      "duration": 0.0407,
      "velocity": 100,
      "chip": "ym2612"
    },
    {
      "channel": 1,
      "note": 66,
      "start": 115.5724,
      "duration": 0.5418,
      "velocity": 102,
      "chip": "ym2612"
    },
    {
      "channel": 0,
      "note": 68,
      "start": 115.9446,
      "duration": 0.1865,
      "velocity": 102,
      "chip": "ym2612"
    },
    {
      "channel": 1,
      "note": 68,
      "start": 116.133,
      "duration": 0.187,
      "velocity": 102,
      "chip": "ym2612"
    },
    {
      "channel": 0,
      "note": 68,
      "start": 116.1484,
      "duration": 0.1885,
      "velocity": 102,
      "chip": "ym2612"
    },
    {
      "channel": 1,
      "note": 68,
      "start": 116.3373,
      "duration": 0.1884,
      "velocity": 102,
      "chip": "ym2612"
    },
    {
      "channel": 0,
      "note": 69,
      "start": 116.3542,
      "duration": 0.1885,
      "velocity": 102,
      "chip": "ym2612"
    },
    {
      "channel": 1,
      "note": 69,
      "start": 116.5432,
      "duration": 0.1885,
      "velocity": 102,
      "chip": "ym2612"
    },
    {
      "channel": 0,
      "note": 68,
      "start": 116.5602,
      "duration": 0.6195,
      "velocity": 102,
      "chip": "ym2612"
    },
    {
      "channel": 1,
      "note": 68,
      "start": 116.749,
      "duration": 0.4992,
      "velocity": 102,
      "chip": "ym2612"
    },
    {
      "channel": 0,
      "note": 68,
      "start": 117.1797,
      "duration": 0.0931,
      "velocity": 102,
      "chip": "ym2612"
    },
    {
      "channel": 2,
      "note": 52,
      "start": 117.2296,
      "duration": 0.0246,
      "velocity": 91,
      "chip": "ym2612"
    },
    {
      "channel": 3,
      "note": 66,
      "start": 117.2302,
      "duration": 0.0244,
      "velocity": 100,
      "chip": "ym2612"
    },
    {
      "channel": 4,
      "note": 61,
      "start": 117.235,
      "duration": 0.0253,
      "velocity": 100,
      "chip": "ym2612"
    },
    {
      "channel": 1,
      "note": 68,
      "start": 117.2482,
      "duration": 0.0518,
      "velocity": 102,
      "chip": "ym2612"
    },
    {
      "channel": 2,
      "note": 52,
      "start": 117.2571,
      "duration": 0.0236,
      "velocity": 91,
      "chip": "ym2612"
    },
    {
      "channel": 3,
      "note": 64,
      "start": 117.2577,
      "duration": 0.0234,
      "velocity": 100,
      "chip": "ym2612"
    },
    {
      "channel": 4,
      "note": 59,
      "start": 117.2624,
      "duration": 0.0241,
      "velocity": 100,
      "chip": "ym2612"
    },
    {
      "channel": 0,
      "note": 59,
      "start": 117.2765,
      "duration": 0.0252,
      "velocity": 102,
      "chip": "ym2612"
    },
    {
      "channel": 2,
      "note": 52,
      "start": 117.2834,
      "duration": 0.025,
      "velocity": 91,
      "chip": "ym2612"
    },
    {
      "channel": 3,
      "note": 64,
      "start": 117.284,
      "duration": 0.0247,
      "velocity": 100,
      "chip": "ym2612"
    },
    {
      "channel": 4,
      "note": 59,
      "start": 117.2887,
      "duration": 0.0264,
      "velocity": 100,
      "chip": "ym2612"
    },
    {
      "channel": 1,
      "note": 59,
      "start": 117.3022,
      "duration": 0.0236,
      "velocity": 102,
      "chip": "ym2612"
    },
    {
      "channel": 0,
      "note": 64,
      "start": 117.3041,
      "duration": 0.3751,
      "velocity": 102,
      "chip": "ym2612"
    },
    {
      "channel": 2,
      "note": 52,
      "start": 117.3119,
      "duration": 0.0222,
      "velocity": 91,
      "chip": "ym2612"
    },
    {
      "channel": 3,
      "note": 64,
      "start": 117.3124,
      "duration": 0.0219,
      "velocity": 100,
      "chip": "ym2612"
    },
    {
      "channel": 4,
      "note": 59,
      "start": 117.3172,
      "duration": 0.0371,
      "velocity": 100,
      "chip": "ym2612"
    },
    {
      "channel": 1,
      "note": 64,
      "start": 117.3279,
      "duration": 0.4357,
      "velocity": 102,
      "chip": "ym2612"
    },
    {
      "channel": 0,
      "note": 62,
      "start": 117.6965,
      "duration": 0.0688,
      "velocity": 102,
      "chip": "ym2612"
    },
    {
      "channel": 2,
      "note": 52,
      "start": 117.7485,
      "duration": 0.0238,
      "velocity": 91,
      "chip": "ym2612"
    },
    {
      "channel": 3,
      "note": 64,
      "start": 117.7491,
      "duration": 0.0484,
      "velocity": 100,
      "chip": "ym2612"
    },
    {
      "channel": 4,
      "note": 59,
      "start": 117.7539,
      "duration": 0.079,
      "velocity": 100,
      "chip": "ym2612"
    },
    {
      "channel": 1,
      "note": 62,
      "start": 117.7657,
      "duration": 0.0227,
      "velocity": 102,
      "chip": "ym2612"
    },
    {
      "channel": 0,
      "note": 62,
      "start": 117.7676,
      "duration": 0.0224,
      "velocity": 102,
      "chip": "ym2612"
    },
    {
      "channel": 2,
      "note": 52,
      "start": 117.7744,
      "duration": 0.0228,
      "velocity": 91,
      "chip": "ym2612"
    },
    {
      "channel": 1,
      "note": 62,
      "start": 117.7905,
      "duration": 0.0267,
      "velocity": 102,
      "chip": "ym2612"
    },
    {
      "channel": 0,
      "note": 64,
      "start": 117.7924,
      "duration": 0.0265,
      "velocity": 102,
      "chip": "ym2612"
    },
    {
      "channel": 2,
      "note": 52,
      "start": 117.8004,
      "duration": 0.0258,
      "velocity": 91,
      "chip": "ym2612"
    },
    {
      "channel": 3,
      "note": 64,
      "start": 117.801,
      "duration": 0.0254,
      "velocity": 100,
      "chip": "ym2612"
    },
    {
      "channel": 1,
      "note": 64,
      "start": 117.8194,
      "duration": 0.0246,
      "velocity": 102,
      "chip": "ym2612"
    },
    {
      "channel": 0,
      "note": 66,
      "start": 117.8218,
      "duration": 0.188,
      "velocity": 102,
      "chip": "ym2612"
    },
    {
      "channel": 2,
      "note": 50,
      "start": 117.8297,
      "duration": 0.0473,
      "velocity": 91,
      "chip": "ym2612"
    },
    {
      "channel": 3,
      "note": 64,
      "start": 117.8303,
      "duration": 0.047,
      "velocity": 100,
      "chip": "ym2612"
    },
    {
      "channel": 4,
      "note": 59,
      "start": 117.8351,
      "duration": 0.0485,
      "velocity": 100,
      "chip": "ym2612"
    },
    {
      "channel": 1,
      "note": 66,
      "start": 117.8462,
      "duration": 0.2327,
      "velocity": 102,
      "chip": "ym2612"
    },
    {
      "channel": 0,
      "note": 66,
      "start": 118.0098,
      "duration": 0.23,
      "velocity": 102,
      "chip": "ym2612"
    },
    {
      "channel": 2,
      "note": 50,
      "start": 118.0601,
      "duration": 0.0505,
      "velocity": 91,
      "chip": "ym2612"
    },
    {
      "channel": 3,
      "note": 62,
      "start": 118.0607,
      "duration": 0.0244,
      "velocity": 100,
      "chip": "ym2612"
    },
    {
      "channel": 4,
      "note": 57,
      "start": 118.0656,
      "duration": 0.0239,
      "velocity": 100,
      "chip": "ym2612"
    },
    {
      "channel": 1,
      "note": 66,
      "start": 118.0789,
      "duration": 0.2296,
      "velocity": 102,
      "chip": "ym2612"
    },
    {
      "channel": 3,
      "note": 62,
      "start": 118.0872,
      "duration": 0.0237,
      "velocity": 100,
      "chip": "ym2612"
    },
    {
      "channel": 4,
      "note": 57,
      "start": 118.0917,
      "duration": 0.0244,
      "velocity": 100,
      "chip": "ym2612"
    },
    {
      "channel": 3,
      "note": 66,
      "start": 118.1137,
      "duration": 0.1593,
      "velocity": 100,
      "chip": "ym2612"
    },
    {
      "channel": 4,
      "note": 62,
      "start": 118.1193,
      "duration": 0.174,
      "velocity": 100,
      "chip": "ym2612"
    },
    {
      "channel": 0,
      "note": 66,
      "start": 118.2398,
      "duration": 0.4204,
      "velocity": 102,
      "chip": "ym2612"
    },
    {
      "channel": 2,
      "note": 50,
      "start": 118.2901,
      "duration": 0.2163,
      "velocity": 91,
      "chip": "ym2612"
    },
    {
      "channel": 3,
      "note": 69,
      "start": 118.2907,
      "duration": 0.0243,
      "velocity": 100,
      "chip": "ym2612"
    },
    {
      "channel": 4,
      "note": 66,
      "start": 118.2955,
      "duration": 0.0397,
      "velocity": 100,
      "chip": "ym2612"
    },
    {
      "channel": 1,
      "note": 66,
      "start": 118.3085,
      "duration": 0.4359,
      "velocity": 102,
      "chip": "ym2612"
    },
    {
      "channel": 3,
      "note": 66,
      "start": 118.318,
      "duration": 0.1887,
      "velocity": 100,
      "chip": "ym2612"
    },
    {
      "channel": 4,
      "note": 62,
      "start": 118.3527,
      "duration": 0.1885,
      "velocity": 100,
      "chip": "ym2612"
    },
    {
      "channel": 3,
      "note": 69,
      "start": 118.524,
      "duration": 0.1884,
      "velocity": 100,
      "chip": "ym2612"
    },
    {
      "channel": 4,
      "note": 66,
      "start": 118.5586,
      "duration": 0.1741,
      "velocity": 100,
      "chip": "ym2612"
    },
    {
      "channel": 0,
      "note": 62,
      "start": 118.679,
      "duration": 0.067,
      "velocity": 102,
      "chip": "ym2612"
    },
    {
      "channel": 2,
      "note": 50,
      "start": 118.7294,
      "duration": 0.0251,
      "velocity": 91,
      "chip": "ym2612"
    },
    {
      "channel": 3,
      "note": 73,
      "start": 118.73,
      "duration": 0.0517,
      "velocity": 100,
      "chip": "ym2612"
    },
    {
      "channel": 4,
      "note": 69,
      "start": 118.7351,
      "duration": 0.0779,
      "velocity": 100,
      "chip": "ym2612"
    },
    {
      "channel": 1,
      "note": 62,
      "start": 118.748,
      "duration": 0.0239,
      "velocity": 102,
      "chip": "ym2612"
    },
    {
      "channel": 0,
      "note": 64,
      "start": 118.75,
      "duration": 0.0242,
      "velocity": 102,
      "chip": "ym2612"
    },
    {
      "channel": 2,
      "note": 50,
      "start": 118.7569,
      "duration": 0.0245,
      "velocity": 91,
      "chip": "ym2612"
    },
    {
      "channel": 1,
      "note": 64,
      "start": 118.7746,
      "duration": 0.0235,
      "velocity": 102,
      "chip": "ym2612"
    },
    {
      "channel": 0,
      "note": 66,
      "start": 118.777,
      "duration": 0.0233,
      "velocity": 102,
      "chip": "ym2612"
    },
    {
      "channel": 2,
      "note": 50,
      "start": 118.7837,
      "duration": 0.0237,
      "velocity": 91,
      "chip": "ym2612"
    },
    {
      "channel": 3,
      "note": 74,
      "start": 118.7842,
      "duration": 0.0235,
      "velocity": 100,
      "chip": "ym2612"
    },
    {
      "channel": 1,
      "note": 66,
      "start": 118.8007,
      "duration": 0.0231,
      "velocity": 102,
      "chip": "ym2612"
    },
    {
      "channel": 0,
      "note": 68,
      "start": 118.8031,
      "duration": 0.1851,
      "velocity": 102,
      "chip": "ym2612"
    },
    {
      "channel": 2,
      "note": 52,
      "start": 118.8098,
      "duration": 0.0479,
      "velocity": 91,
      "chip": "ym2612"
    },
    {
      "channel": 3,
      "note": 74,
      "start": 118.8103,
      "duration": 0.0477,
      "velocity": 100,
      "chip": "ym2612"
    },
    {
      "channel": 4,
      "note": 69,
      "start": 118.8151,
      "duration": 0.0473,
      "velocity": 100,
      "chip": "ym2612"
    },
    {
      "channel": 1,
      "note": 68,
      "start": 118.8259,
      "duration": 0.2313,
      "velocity": 102,
      "chip": "ym2612"
    },
    {
      "channel": 0,
      "note": 68,
      "start": 118.9881,
      "duration": 0.2305,
      "velocity": 102,
      "chip": "ym2612"
    },
    {
      "channel": 2,
      "note": 52,
      "start": 119.0385,
      "duration": 0.0246,
      "velocity": 91,
      "chip": "ym2612"
    },
    {
      "channel": 3,
      "note": 64,
      "start": 119.0391,
      "duration": 0.0244,
      "velocity": 100,
      "chip": "ym2612"
    },
    {
      "channel": 4,
      "note": 59,
      "start": 119.044,
      "duration": 0.0251,
      "velocity": 100,
      "chip": "ym2612"
    },
    {
      "channel": 1,
      "note": 68,
      "start": 119.0572,
      "duration": 0.2298,
      "velocity": 102,
      "chip": "ym2612"
    },
    {
      "channel": 2,
      "note": 52,
      "start": 119.0657,
      "duration": 0.0251,
      "velocity": 91,
      "chip": "ym2612"
    },
    {
      "channel": 3,
      "note": 76,
      "start": 119.0662,
      "duration": 0.0249,
      "velocity": 100,
      "chip": "ym2612"
    },
    {
      "channel": 4,
      "note": 71,
      "start": 119.0725,
      "duration": 0.0234,
      "velocity": 100,
      "chip": "ym2612"
    },
    {
      "channel": 2,
      "note": 52,
      "start": 119.093,
      "duration": 0.1587,
      "velocity": 91,
      "chip": "ym2612"
    },
    {
      "channel": 3,
      "note": 78,
      "start": 119.0936,
      "duration": 0.1584,
      "velocity": 100,
      "chip": "ym2612"
    },
    {
      "channel": 4,
      "note": 71,
      "start": 119.0981,
      "duration": 0.1741,
      "velocity": 100,
      "chip": "ym2612"
    },
    {
      "channel": 0,
      "note": 68,
      "start": 119.2187,
      "duration": 0.4208,
      "velocity": 102,
      "chip": "ym2612"
    },
    {
      "channel": 2,
      "note": 52,
      "start": 119.269,
      "duration": 0.2165,
      "velocity": 91,
      "chip": "ym2612"
    },
    {
      "channel": 3,
      "note": 80,
      "start": 119.2696,
      "duration": 0.0246,
      "velocity": 100,
      "chip": "ym2612"
    },
    {
      "channel": 4,
      "note": 76,
      "start": 119.2744,
      "duration": 0.0406,
      "velocity": 100,
      "chip": "ym2612"
    },
    {
      "channel": 1,
      "note": 68,
      "start": 119.2871,
      "duration": 0.4041,
      "velocity": 102,
      "chip": "ym2612"
    },
    {
      "channel": 3,
      "note": 80,
      "start": 119.2976,
      "duration": 0.1882,
      "velocity": 100,
      "chip": "ym2612"
    },
    {
      "channel": 4,
      "note": 76,
      "start": 119.3325,
      "duration": 0.1878,
      "velocity": 100,
      "chip": "ym2612"
    },
    {
      "channel": 3,
      "note": 81,
      "start": 119.5033,
      "duration": 0.1884,
      "velocity": 100,
      "chip": "ym2612"
    },
    {
      "channel": 4,
      "note": 78,
      "start": 119.5378,
      "duration": 0.1759,
      "velocity": 100,
      "chip": "ym2612"
    },
    {
      "channel": 0,
      "note": 68,
      "start": 119.6585,
      "duration": 0.0687,
      "velocity": 102,
      "chip": "ym2612"
    },
    {
      "channel": 1,
      "note": 59,
      "start": 119.71,
      "duration": 0.0243,
      "velocity": 102,
      "chip": "ym2612"
    },
    {
      "channel": 2,
      "note": 52,
      "start": 119.7105,
      "duration": 0.0501,
      "velocity": 91,
      "chip": "ym2612"
    },
    {
      "channel": 3,
      "note": 83,
      "start": 119.7111,
      "duration": 0.0242,
      "velocity": 100,
      "chip": "ym2612"
    },
    {
      "channel": 4,
      "note": 80,
      "start": 119.7162,
      "duration": 0.0256,
      "velocity": 100,
      "chip": "ym2612"
    },
    {
      "channel": 3,
      "note": 83,
      "start": 119.7388,
      "duration": 0.0222,
      "velocity": 100,
      "chip": "ym2612"
    },
    {
      "channel": 4,
      "note": 80,
      "start": 119.7439,
      "duration": 0.0239,
      "velocity": 100,
      "chip": "ym2612"
    },
    {
      "channel": 0,
      "note": 68,
      "start": 119.7563,
      "duration": 0.0242,
      "velocity": 102,
      "chip": "ym2612"
    },
    {
      "channel": 1,
      "note": 59,
      "start": 119.7642,
      "duration": 0.0225,
      "velocity": 102,
      "chip": "ym2612"
    },
    {
      "channel": 3,
      "note": 81,
      "start": 119.7651,
      "duration": 0.0222,
      "velocity": 100,
      "chip": "ym2612"
    },
    {
      "channel": 4,
      "note": 78,
      "start": 119.7699,
      "duration": 0.0233,
      "velocity": 100,
      "chip": "ym2612"
    },
    {
      "channel": 0,
      "note": 69,
      "start": 119.7827,
      "duration": 0.1859,
      "velocity": 102,
      "chip": "ym2612"
    },
    {
      "channel": 1,
      "note": 66,
      "start": 119.7891,
      "duration": 0.2311,
      "velocity": 102,
      "chip": "ym2612"
    },
    {
      "channel": 2,
      "note": 54,
      "start": 119.7896,
      "duration": 0.0491,
      "velocity": 91,
      "chip": "ym2612"
    },
    {
      "channel": 3,
      "note": 80,
      "start": 119.7903,
      "duration": 0.0244,
      "velocity": 100,
      "chip": "ym2612"
    },
    {
      "channel": 4,
      "note": 76,
      "start": 119.7953,
      "duration": 0.0241,
      "velocity": 100,
      "chip": "ym2612"
    },
    {
      "channel": 3,
      "note": 69,
      "start": 119.8172,
      "duration": 0.0218,
      "velocity": 100,
      "chip": "ym2612"
    },
    {
      "channel": 4,
      "note": 66,
      "start": 119.8216,
      "duration": 0.022,
      "velocity": 100,
      "chip": "ym2612"
    },
    {
      "channel": 3,
      "note": 61,
      "start": 119.8413,
      "duration": 0.1606,
      "velocity": 100,
      "chip": "ym2612"
    },
    {
      "channel": 4,
      "note": 57,
      "start": 119.8481,
      "duration": 0.1764,
      "velocity": 100,
      "chip": "ym2612"
    },
    {
      "channel": 0,
      "note": 69,
      "start": 119.9686,
      "duration": 0.2291,
      "velocity": 102,
      "chip": "ym2612"
    },
    {
      "channel": 1,
      "note": 66,
      "start": 120.0203,
      "duration": 0.2291,
      "velocity": 102,
      "chip": "ym2612"
    },
    {
      "channel": 2,
      "note": 54,
      "start": 120.0208,
      "duration": 0.0483,
      "velocity": 91,
      "chip": "ym2612"
    },
    {
      "channel": 3,
      "note": 66,
      "start": 120.0214,
      "duration": 0.0243,
      "velocity": 100,
      "chip": "ym2612"
    },
    {
      "channel": 4,
      "note": 61,
      "start": 120.0267,
      "duration": 0.0234,
      "velocity": 100,
      "chip": "ym2612"
    },
    {
      "channel": 3,
      "note": 69,
      "start": 120.0479,
      "duration": 0.0215,
      "velocity": 100,
      "chip": "ym2612"
    },
    {
      "channel": 4,
      "note": 66,
      "start": 120.0522,
      "duration": 0.0217,
      "velocity": 100,
      "chip": "ym2612"
    },
    {
      "channel": 3,
      "note": 66,
      "start": 120.0716,
      "duration": 0.1593,
      "velocity": 100,
      "chip": "ym2612"
    },
    {
      "channel": 4,
      "note": 61,
      "start": 120.0771,
      "duration": 0.1767,
      "velocity": 100,
      "chip": "ym2612"
    },
    {
      "channel": 0,
      "note": 69,
      "start": 120.1977,
      "duration": 0.4223,
      "velocity": 102,
      "chip": "ym2612"
    },
    {
      "channel": 1,
      "note": 66,
      "start": 120.2494,
      "duration": 0.4223,
      "velocity": 102,
      "chip": "ym2612"
    },
    {
      "channel": 2,
      "note": 54,
      "start": 120.2499,
      "duration": 0.2162,
      "velocity": 91,
      "chip": "ym2612"
    },
    {
      "channel": 3,
      "note": 69,
      "start": 120.2509,
      "duration": 0.027,
      "velocity": 100,
      "chip": "ym2612"
    },
    {
      "channel": 4,
      "note": 66,
      "start": 120.256,
      "duration": 0.0565,
      "velocity": 100,
      "chip": "ym2612"
    },
    {
      "channel": 3,
      "note": 73,
      "start": 120.2779,
      "duration": 0.2083,
      "velocity": 100,
      "chip": "ym2612"
    },
    {
      "channel": 4,
      "note": 69,
      "start": 120.3125,
      "duration": 0.2083,
      "velocity": 100,
      "chip": "ym2612"
    },
    {
      "channel": 3,
      "note": 73,
      "start": 120.4863,
      "duration": 0.2114,
      "velocity": 100,
      "chip": "ym2612"
    },
    {
      "channel": 4,
      "note": 69,
      "start": 120.5208,
      "duration": 0.1845,
      "velocity": 100,
      "chip": "ym2612"
    },
    {
      "channel": 0,
      "note": 69,
      "start": 120.6405,
      "duration": 0.077,
      "velocity": 102,
      "chip": "ym2612"
    },
    {
      "channel": 1,
      "note": 66,
      "start": 120.6943,
      "duration": 0.0293,
      "velocity": 102,
      "chip": "ym2612"
    },
    {
      "channel": 2,
      "note": 54,
      "start": 120.6948,
      "duration": 0.0291,
      "velocity": 91,
      "chip": "ym2612"
    },
    {
      "channel": 3,
      "note": 73,
      "start": 120.6977,
      "duration": 0.0315,
      "velocity": 100,
      "chip": "ym2612"
    },
    {
      "channel": 4,
      "note": 69,
      "start": 120.7053,
      "duration": 0.0312,
      "velocity": 100,
      "chip": "ym2612"
    },
    {
      "channel": 0,
      "note": 71,
      "start": 120.7196,
      "duration": 0.0276,
      "velocity": 102,
      "chip": "ym2612"
    },
    {
      "channel": 1,
      "note": 68,
      "start": 120.7257,
      "duration": 0.0276,
      "velocity": 102,
      "chip": "ym2612"
    },
    {
      "channel": 2,
      "note": 54,
      "start": 120.7262,
      "duration": 0.0274,
      "velocity": 91,
      "chip": "ym2612"
    },
    {
      "channel": 3,
      "note": 73,
      "start": 120.7292,
      "duration": 0.0286,
      "velocity": 100,
      "chip": "ym2612"
    },
    {
      "channel": 4,
      "note": 69,
      "start": 120.7365,
      "duration": 0.0287,
      "velocity": 100,
      "chip": "ym2612"
    },
    {
      "channel": 0,
      "note": 73,
      "start": 120.7493,
      "duration": 0.0266,
      "velocity": 102,
      "chip": "ym2612"
    },
    {
      "channel": 1,
      "note": 69,
      "start": 120.7566,
      "duration": 0.0255,
      "velocity": 102,
      "chip": "ym2612"
    },
    {
      "channel": 2,
      "note": 54,
      "start": 120.7571,
      "duration": 0.0252,
      "velocity": 91,
      "chip": "ym2612"
    },
    {
      "channel": 3,
      "note": 73,
      "start": 120.7578,
      "duration": 0.0249,
      "velocity": 100,
      "chip": "ym2612"
    },
    {
      "channel": 4,
      "note": 69,
      "start": 120.7652,
      "duration": 0.0276,
      "velocity": 100,
      "chip": "ym2612"
    },
    {
      "channel": 0,
      "note": 71,
      "start": 120.7781,
      "duration": 0.1868,
      "velocity": 102,
      "chip": "ym2612"
    },
    {
      "channel": 1,
      "note": 68,
      "start": 120.7859,
      "duration": 0.2312,
      "velocity": 102,
      "chip": "ym2612"
    },
    {
      "channel": 2,
      "note": 52,
      "start": 120.7864,
      "duration": 0.053,
      "velocity": 91,
      "chip": "ym2612"
    },
    {
      "channel": 3,
      "note": 73,
      "start": 120.79,
      "duration": 0.0262,
      "velocity": 100,
      "chip": "ym2612"
    },
    {
      "channel": 4,
      "note": 69,
      "start": 120.7982,
      "duration": 0.0224,
      "velocity": 100,
      "chip": "ym2612"
    },
    {
      "channel": 3,
      "note": 71,
      "start": 120.8184,
      "duration": 0.0214,
      "velocity": 100,
      "chip": "ym2612"
    },
    {
      "channel": 4,
      "note": 68,
      "start": 120.8228,
      "duration": 0.0216,
      "velocity": 100,
      "chip": "ym2612"
    },
    {
      "channel": 3,
      "note": 59,
      "start": 120.8421,
      "duration": 0.1561,
      "velocity": 100,
      "chip": "ym2612"
    },
    {
      "channel": 4,
      "note": 56,
      "start": 120.8467,
      "duration": 0.1746,
      "velocity": 100,
      "chip": "ym2612"
    },
    {
      "channel": 0,
      "note": 71,
      "start": 120.9649,
      "duration": 0.0936,
      "velocity": 102,
      "chip": "ym2612"
    },
    {
      "channel": 1,
      "note": 68,
      "start": 121.0171,
      "duration": 0.0492,
      "velocity": 102,
      "chip": "ym2612"
    },
    {
      "channel": 2,
      "note": 52,
      "start": 121.0176,
      "duration": 0.0489,
      "velocity": 91,
      "chip": "ym2612"
    },
    {
      "channel": 3,
      "note": 64,
      "start": 121.0182,
      "duration": 0.0228,
      "velocity": 100,
      "chip": "ym2612"
    },
    {
      "channel": 4,
      "note": 59,
      "start": 121.024,
      "duration": 0.0213,
      "velocity": 100,
      "chip": "ym2612"
    },
    {
      "channel": 3,
      "note": 68,
      "start": 121.0431,
      "duration": 0.0237,
      "velocity": 100,
      "chip": "ym2612"
    },
    {
      "channel": 4,
      "note": 64,
      "start": 121.0475,
      "duration": 0.0258,
      "velocity": 100,
      "chip": "ym2612"
    },
    {
      "channel": 0,
      "note": 68,
      "start": 121.0621,
      "duration": 0.1117,
      "velocity": 102,
      "chip": "ym2612"
    },
    {
      "channel": 1,
      "note": 64,
      "start": 121.07,
      "duration": 0.1558,
      "velocity": 102,
      "chip": "ym2612"
    },
    {
      "channel": 3,
      "note": 64,
      "start": 121.071,
      "duration": 0.1557,
      "velocity": 100,
      "chip": "ym2612"
    },
    {
      "channel": 4,
      "note": 59,
      "start": 121.0754,
      "duration": 0.1718,
      "velocity": 100,
      "chip": "ym2612"
    },
    {
      "channel": 0,
      "note": 68,
      "start": 121.1912,
      "duration": 0.4215,
      "velocity": 102,
      "chip": "ym2612"
    },
    {
      "channel": 1,
      "note": 64,
      "start": 121.2433,
      "duration": 0.4211,
      "velocity": 102,
      "chip": "ym2612"
    },
    {
      "channel": 2,
      "note": 52,
      "start": 121.2438,
      "duration": 0.2148,
      "velocity": 91,
      "chip": "ym2612"
    },
    {
      "channel": 3,
      "note": 68,
      "start": 121.2445,
      "duration": 0.0259,
      "velocity": 100,
      "chip": "ym2612"
    },
    {
      "channel": 4,
      "note": 64,
      "start": 121.2497,
      "duration": 0.0553,
      "velocity": 100,
      "chip": "ym2612"
    },
    {
      "channel": 3,
      "note": 71,
      "start": 121.2704,
      "duration": 0.2083,
      "velocity": 100,
      "chip": "ym2612"
    },
    {
      "channel": 4,
      "note": 68,
      "start": 121.305,
      "duration": 0.2086,
      "velocity": 100,
      "chip": "ym2612"
    },
    {
      "channel": 3,
      "note": 71,
      "start": 121.4788,
      "duration": 0.2062,
      "velocity": 100,
      "chip": "ym2612"
    },
    {
      "channel": 4,
      "note": 68,
      "start": 121.5136,
      "duration": 0.1784,
      "velocity": 100,
      "chip": "ym2612"
    },
    {
      "channel": 0,
      "note": 68,
      "start": 121.6323,
      "duration": 0.0708,
      "velocity": 102,
      "chip": "ym2612"
    },
    {
      "channel": 1,
      "note": 64,
      "start": 121.6816,
      "duration": 0.0277,
      "velocity": 102,
      "chip": "ym2612"
    },
    {
      "channel": 2,
      "note": 52,
      "start": 121.6821,
      "duration": 0.0275,
      "velocity": 91,
      "chip": "ym2612"
    },
    {
      "channel": 3,
      "note": 71,
      "start": 121.685,
      "duration": 0.0308,
      "velocity": 100,
      "chip": "ym2612"
    },
    {
      "channel": 4,
      "note": 68,
      "start": 121.692,
      "duration": 0.0311,
      "velocity": 100,
      "chip": "ym2612"
    },
    {
      "channel": 2,
      "note": 52,
      "start": 121.7129,
      "duration": 0.0269,
      "velocity": 91,
      "chip": "ym2612"
    },
    {
      "channel": 3,
      "note": 71,
      "start": 121.7159,
      "duration": 0.0313,
      "velocity": 100,
      "chip": "ym2612"
    },
    {
      "channel": 4,
      "note": 68,
      "start": 121.7232,
      "duration": 0.0317,
      "velocity": 100,
      "chip": "ym2612"
    },
    {
      "channel": 0,
      "note": 68,
      "start": 121.7355,
      "duration": 0.0322,
      "velocity": 102,
      "chip": "ym2612"
    },
    {
      "channel": 1,
      "note": 64,
      "start": 121.743,
      "duration": 0.0312,
      "velocity": 102,
      "chip": "ym2612"
    },
    {
      "channel": 2,
      "note": 52,
      "start": 121.7435,
      "duration": 0.0309,
      "velocity": 91,
      "chip": "ym2612"
    },
    {
      "channel": 3,
      "note": 71,
      "start": 121.7472,
      "duration": 0.0276,
      "velocity": 100,
      "chip": "ym2612"
    },
    {
      "channel": 4,
      "note": 68,
      "start": 121.7548,
      "duration": 0.028,
      "velocity": 100,
      "chip": "ym2612"
    },
    {
      "channel": 0,
      "note": 69,
      "start": 121.7702,
      "duration": 0.1837,
      "velocity": 102,
      "chip": "ym2612"
    },
    {
      "channel": 1,
      "note": 66,
      "start": 121.7766,
      "duration": 0.2289,
      "velocity": 102,
      "chip": "ym2612"
    },
    {
      "channel": 2,
      "note": 50,
      "start": 121.7773,
      "duration": 0.0509,
      "velocity": 91,
      "chip": "ym2612"
    },
    {
      "channel": 3,
      "note": 71,
      "start": 121.7802,
      "duration": 0.0244,
      "velocity": 100,
      "chip": "ym2612"
    },
    {
      "channel": 4,
      "note": 68,
      "start": 121.7872,
      "duration": 0.0222,
      "velocity": 100,
      "chip": "ym2612"
    },
    {
      "channel": 3,
      "note": 69,
      "start": 121.8071,
      "duration": 0.0215,
      "velocity": 100,
      "chip": "ym2612"
    },
    {
      "channel": 4,
      "note": 66,
      "start": 121.8115,
      "duration": 0.0216,
      "velocity": 100,
      "chip": "ym2612"
    },
    {
      "channel": 3,
      "note": 61,
      "start": 121.8308,
      "duration": 0.1563,
      "velocity": 100,
      "chip": "ym2612"
    },
    {
      "channel": 4,
      "note": 57,
      "start": 121.8355,
      "duration": 0.1737,
      "velocity": 100,
      "chip": "ym2612"
    },
    {
      "channel": 0,
      "note": 69,
      "start": 121.9539,
      "duration": 0.2288,
      "velocity": 102,
      "chip": "ym2612"
    },
    {
      "channel": 1,
      "note": 66,
      "start": 122.0056,
      "duration": 0.2288,
      "velocity": 102,
      "chip": "ym2612"
    },
    {
      "channel": 2,
      "note": 50,
      "start": 122.0061,
      "duration": 0.0463,
      "velocity": 91,
      "chip": "ym2612"
    },
    {
      "channel": 3,
      "note": 66,
      "start": 122.0066,
      "duration": 0.022,
      "velocity": 100,
      "chip": "ym2612"
    },
    {
      "channel": 4,
      "note": 61,
      "start": 122.0114,
      "duration": 0.0218,
      "velocity": 100,
      "chip": "ym2612"
    },
    {
      "channel": 3,
      "note": 69,
      "start": 122.0309,
      "duration": 0.0218,
      "velocity": 100,
      "chip": "ym2612"
    },
    {
      "channel": 4,
      "note": 66,
      "start": 122.0353,
      "duration": 0.0225,
      "velocity": 100,
      "chip": "ym2612"
    },
    {
      "channel": 3,
      "note": 66,
      "start": 122.055,
      "duration": 0.161,
      "velocity": 100,
      "chip": "ym2612"
    },
    {
      "channel": 4,
      "note": 61,
      "start": 122.0627,
      "duration": 0.1755,
      "velocity": 100,
      "chip": "ym2612"
    },
    {
      "channel": 0,
      "note": 69,
      "start": 122.1827,
      "duration": 0.4194,
      "velocity": 102,
      "chip": "ym2612"
    },
    {
      "channel": 1,
      "note": 66,
      "start": 122.2344,
      "duration": 0.4194,
      "velocity": 102,
      "chip": "ym2612"
    },
    {
      "channel": 2,
      "note": 50,
      "start": 122.2349,
      "duration": 0.2134,
      "velocity": 91,
      "chip": "ym2612"
    },
    {
      "channel": 3,
      "note": 69,
      "start": 122.2356,
      "duration": 0.0244,
      "velocity": 100,
      "chip": "ym2612"
    },
    {
      "channel": 4,
      "note": 66,
      "start": 122.2404,
      "duration": 0.0542,
      "velocity": 100,
      "chip": "ym2612"
    },
    {
      "channel": 3,
      "note": 73,
      "start": 122.26,
      "duration": 0.2089,
      "velocity": 100,
      "chip": "ym2612"
    },
    {
      "channel": 4,
      "note": 69,
      "start": 122.2946,
      "duration": 0.2088,
      "velocity": 100,
      "chip": "ym2612"
    },
    {
      "channel": 3,
      "note": 73,
      "start": 122.4689,
      "duration": 0.2088,
      "velocity": 100,
      "chip": "ym2612"
    },
    {
      "channel": 4,
      "note": 69,
      "start": 122.5034,
      "duration": 0.1817,
      "velocity": 100,
      "chip": "ym2612"
    },
    {
      "channel": 0,
      "note": 69,
      "start": 122.6226,
      "duration": 0.0731,
      "velocity": 102,
      "chip": "ym2612"
    },
    {
      "channel": 1,
      "note": 66,
      "start": 122.6742,
      "duration": 0.0279,
      "velocity": 102,
      "chip": "ym2612"
    },
    {
      "channel": 2,
      "note": 50,
      "start": 122.6747,
      "duration": 0.0277,
      "velocity": 91,
      "chip": "ym2612"
    },
    {
      "channel": 3,
      "note": 73,
      "start": 122.6777,
      "duration": 0.03,
      "velocity": 100,
      "chip": "ym2612"
    },
    {
      "channel": 4,
      "note": 69,
      "start": 122.6851,
      "duration": 0.03,
      "velocity": 100,
      "chip": "ym2612"
    },
    {
      "channel": 0,
      "note": 71,
      "start": 122.6982,
      "duration": 0.0271,
      "velocity": 102,
      "chip": "ym2612"
    },
    {
      "channel": 1,
      "note": 68,
      "start": 122.7043,
      "duration": 0.0283,
      "velocity": 102,
      "chip": "ym2612"
    },
    {
      "channel": 2,
      "note": 50,
      "start": 122.7048,
      "duration": 0.0281,
      "velocity": 91,
      "chip": "ym2612"
    },
    {
      "channel": 3,
      "note": 73,
      "start": 122.7077,
      "duration": 0.0329,
      "velocity": 100,
      "chip": "ym2612"
    },
    {
      "channel": 4,
      "note": 69,
      "start": 122.7151,
      "duration": 0.0328,
      "velocity": 100,
      "chip": "ym2612"
    },
    {
      "channel": 0,
      "note": 73,
      "start": 122.7274,
      "duration": 0.0316,
      "velocity": 102,
      "chip": "ym2612"
    },
    {
      "channel": 1,
      "note": 69,
      "start": 122.737,
      "duration": 0.0282,
      "velocity": 102,
      "chip": "ym2612"
    },
    {
      "channel": 2,
      "note": 50,
      "start": 122.7376,
      "duration": 0.0279,
      "velocity": 91,
      "chip": "ym2612"
    },
    {
      "channel": 3,
      "note": 73,
      "start": 122.7406,
      "duration": 0.0252,
      "velocity": 100,
      "chip": "ym2612"
    },
    {
      "channel": 4,
      "note": 69,
      "start": 122.7479,
      "duration": 0.0256,
      "velocity": 100,
      "chip": "ym2612"
    },
    {
      "channel": 0,
      "note": 71,
      "start": 122.7612,
      "duration": 0.1859,
      "velocity": 102,
      "chip": "ym2612"
    },
    {
      "channel": 1,
      "note": 68,
      "start": 122.7675,
      "duration": 0.2313,
      "velocity": 102,
      "chip": "ym2612"
    },
    {
      "channel": 2,
      "note": 52,
      "start": 122.768,
      "duration": 0.0537,
      "velocity": 91,
      "chip": "ym2612"
    },
    {
      "channel": 3,
      "note": 73,
      "start": 122.7709,
      "duration": 0.0244,
      "velocity": 100,
      "chip": "ym2612"
    },
    {
      "channel": 4,
      "note": 69,
      "start": 122.778,
      "duration": 0.022,
      "velocity": 100,
      "chip": "ym2612"
    },
    {
      "channel": 3,
      "note": 71,
      "start": 122.7978,
      "duration": 0.0242,
      "velocity": 100,
      "chip": "ym2612"
    },
    {
      "channel": 4,
      "note": 68,
      "start": 122.8022,
      "duration": 0.0245,
      "velocity": 100,
      "chip": "ym2612"
    },
    {
      "channel": 3,
      "note": 64,
      "start": 122.8244,
      "duration": 0.1561,
      "velocity": 100,
      "chip": "ym2612"
    },
    {
      "channel": 4,
      "note": 59,
      "start": 122.8289,
      "duration": 0.1736,
      "velocity": 100,
      "chip": "ym2612"
    },
    {
      "channel": 0,
      "note": 71,
      "start": 122.9472,
      "duration": 0.093,
      "velocity": 102,
      "chip": "ym2612"
    },
    {
      "channel": 1,
      "note": 68,
      "start": 122.9988,
      "duration": 0.0507,
      "velocity": 102,
      "chip": "ym2612"
    },
    {
      "channel": 2,
      "note": 52,
      "start": 122.9993,
      "duration": 0.022,
      "velocity": 91,
      "chip": "ym2612"
    },
    {
      "channel": 3,
      "note": 68,
      "start": 123.0,
      "duration": 0.0217,
      "velocity": 100,
      "chip": "ym2612"
    },
    {
      "channel": 4,
      "note": 64,
      "start": 123.0046,
      "duration": 0.0217,
      "velocity": 100,
      "chip": "ym2612"
    },
    {
      "channel": 2,
      "note": 52,
      "start": 123.0235,
      "duration": 0.0263,
      "velocity": 91,
      "chip": "ym2612"
    },
    {
      "channel": 3,
      "note": 71,
      "start": 123.0241,
      "duration": 0.0261,
      "velocity": 100,
      "chip": "ym2612"
    },
    {
      "channel": 4,
      "note": 68,
      "start": 123.0285,
      "duration": 0.0282,
      "velocity": 100,
      "chip": "ym2612"
    },
    {
      "channel": 0,
      "note": 68,
      "start": 123.0451,
      "duration": 0.1122,
      "velocity": 102,
      "chip": "ym2612"
    },
    {
      "channel": 1,
      "note": 64,
      "start": 123.0533,
      "duration": 0.1557,
      "velocity": 102,
      "chip": "ym2612"
    },
    {
      "channel": 2,
      "note": 52,
      "start": 123.0538,
      "duration": 0.1554,
      "velocity": 91,
      "chip": "ym2612"
    },
    {
      "channel": 3,
      "note": 68,
      "start": 123.0544,
      "duration": 0.1552,
      "velocity": 100,
      "chip": "ym2612"
    },
    {
      "channel": 4,
      "note": 64,
      "start": 123.0588,
      "duration": 0.1713,
      "velocity": 100,
      "chip": "ym2612"
    },
    {
      "channel": 0,
      "note": 68,
      "start": 123.1746,
      "duration": 0.4193,
      "velocity": 102,
      "chip": "ym2612"
    },
    {
      "channel": 1,
      "note": 64,
      "start": 123.2263,
      "duration": 0.4191,
      "velocity": 102,
      "chip": "ym2612"
    },
    {
      "channel": 2,
      "note": 52,
      "start": 123.2268,
      "duration": 0.2132,
      "velocity": 91,
      "chip": "ym2612"
    },
    {
      "channel": 3,
      "note": 71,
      "start": 123.2275,
      "duration": 0.0242,
      "velocity": 100,
      "chip": "ym2612"
    },
    {
      "channel": 4,
      "note": 68,
      "start": 123.2327,
      "duration": 0.0536,
      "velocity": 100,
      "chip": "ym2612"
    },
    {
      "channel": 3,
      "note": 76,
      "start": 123.2517,
      "duration": 0.2083,
      "velocity": 100,
      "chip": "ym2612"
    },
    {
      "channel": 4,
      "note": 71,
      "start": 123.2863,
      "duration": 0.2083,
      "velocity": 100,
      "chip": "ym2612"
    },
    {
      "channel": 3,
      "note": 76,
      "start": 123.46,
      "duration": 0.2063,
      "velocity": 100,
      "chip": "ym2612"
    },
    {
      "channel": 4,
      "note": 71,
      "start": 123.4946,
      "duration": 0.1791,
      "velocity": 100,
      "chip": "ym2612"
    },
    {
      "channel": 0,
      "note": 68,
      "start": 123.6129,
      "duration": 0.0711,
      "velocity": 102,
      "chip": "ym2612"
    },
    {
      "channel": 1,
      "note": 64,
      "start": 123.6629,
      "duration": 0.0273,
      "velocity": 102,
      "chip": "ym2612"
    },
    {
      "channel": 2,
      "note": 52,
      "start": 123.6634,
      "duration": 0.0601,
      "velocity": 91,
      "chip": "ym2612"
    },
    {
      "channel": 3,
      "note": 76,
      "start": 123.6663,
      "duration": 0.0309,
      "velocity": 100,
      "chip": "ym2612"
    },
    {
      "channel": 4,
      "note": 71,
      "start": 123.6737,
      "duration": 0.0311,
      "velocity": 100,
      "chip": "ym2612"
    },
    {
      "channel": 3,
      "note": 76,
      "start": 123.6972,
      "duration": 0.0322,
      "velocity": 100,
      "chip": "ym2612"
    },
    {
      "channel": 4,
      "note": 71,
      "start": 123.7048,
      "duration": 0.0317,
      "velocity": 100,
      "chip": "ym2612"
    },
    {
      "channel": 0,
      "note": 68,
      "start": 123.7192,
      "duration": 0.0285,
      "velocity": 102,
      "chip": "ym2612"
    },
    {
      "channel": 1,
      "note": 64,
      "start": 123.7261,
      "duration": 0.0278,
      "velocity": 102,
      "chip": "ym2612"
    },
    {
      "channel": 3,
      "note": 76,
      "start": 123.7294,
      "duration": 0.025,
      "velocity": 100,
      "chip": "ym2612"
    },
    {
      "channel": 4,
      "note": 71,
      "start": 123.7366,
      "duration": 0.0265,
      "velocity": 100,
      "chip": "ym2612"
    },
    {
      "channel": 0,
      "note": 69,
      "start": 123.7498,
      "duration": 0.1873,
      "velocity": 102,
      "chip": "ym2612"
    },
    {
      "channel": 1,
      "note": 66,
      "start": 123.7571,
      "duration": 0.2316,
      "velocity": 102,
      "chip": "ym2612"
    },
    {
      "channel": 2,
      "note": 54,
      "start": 123.7576,
      "duration": 0.0541,
      "velocity": 91,
      "chip": "ym2612"
    },
    {
      "channel": 3,
      "note": 76,
      "start": 123.7605,
      "duration": 0.0243,
      "velocity": 100,
      "chip": "ym2612"
    },
    {
      "channel": 4,
      "note": 71,
      "start": 123.7675,
      "duration": 0.0226,
      "velocity": 100,
      "chip": "ym2612"
    },
    {
      "channel": 3,
      "note": 73,
      "start": 123.7873,
      "duration": 0.0247,
      "velocity": 100,
      "chip": "ym2612"
    },
    {
      "channel": 4,
      "note": 69,
      "start": 123.7935,
      "duration": 0.0231,
      "velocity": 100,
      "chip": "ym2612"
    },
    {
      "channel": 3,
      "note": 61,
      "start": 123.8143,
      "duration": 0.1561,
      "velocity": 100,
      "chip": "ym2612"
    },
    {
      "channel": 4,
      "note": 57,
      "start": 123.8189,
      "duration": 0.1734,
      "velocity": 100,
      "chip": "ym2612"
    },
    {
      "channel": 0,
      "note": 69,
      "start": 123.9371,
      "duration": 0.2282,
      "velocity": 102,
      "chip": "ym2612"
    },
    {
      "channel": 1,
      "note": 66,
      "start": 123.9887,
      "duration": 0.2282,
      "velocity": 102,
      "chip": "ym2612"
    },
    {
      "channel": 2,
      "note": 54,
      "start": 123.9892,
      "duration": 0.0474,
      "velocity": 91,
      "chip": "ym2612"
    },
    {
      "channel": 3,
      "note": 66,
      "start": 123.9898,
      "duration": 0.0216,
      "velocity": 100,
      "chip": "ym2612"
    },
    {
      "channel": 4,
      "note": 61,
      "start": 123.9945,
      "duration": 0.0231,
      "velocity": 100,
      "chip": "ym2612"
    },
    {
      "channel": 3,
      "note": 69,
      "start": 124.0147,
      "duration": 0.0224,
      "velocity": 100,
      "chip": "ym2612"
    },
    {
      "channel": 4,
      "note": 66,
      "start": 124.02,
      "duration": 0.0217,
      "velocity": 100,
      "chip": "ym2612"
    },
    {
      "channel": 3,
      "note": 66,
      "start": 124.0393,
      "duration": 0.1592,
      "velocity": 100,
      "chip": "ym2612"
    },
    {
      "channel": 4,
      "note": 61,
      "start": 124.0447,
      "duration": 0.1759,
      "velocity": 100,
      "chip": "ym2612"
    },
    {
      "channel": 0,
      "note": 69,
      "start": 124.1652,
      "duration": 0.4216,
      "velocity": 102,
      "chip": "ym2612"
    },
    {
      "channel": 1,
      "note": 66,
      "start": 124.2169,
      "duration": 0.4216,
      "velocity": 102,
      "chip": "ym2612"
    },
    {
      "channel": 2,
      "note": 54,
      "start": 124.2174,
      "duration": 0.2156,
      "velocity": 91,
      "chip": "ym2612"
    },
    {
      "channel": 3,
      "note": 69,
      "start": 124.218,
      "duration": 0.0238,
      "velocity": 100,
      "chip": "ym2612"
    },
    {
      "channel": 4,
      "note": 66,
      "start": 124.223,
      "duration": 0.0392,
      "velocity": 100,
      "chip": "ym2612"
    },
    {
      "channel": 3,
      "note": 73,
      "start": 124.2452,
      "duration": 0.188,
      "velocity": 100,
      "chip": "ym2612"
    },
    {
      "channel": 4,
      "note": 69,
      "start": 124.2793,
      "duration": 0.1885,
      "velocity": 100,
      "chip": "ym2612"
    },
    {
      "channel": 3,
      "note": 66,
      "start": 124.4506,
      "duration": 0.1885,
      "velocity": 100,
      "chip": "ym2612"
    },
    {
      "channel": 4,
      "note": 61,
      "start": 124.4852,
      "duration": 0.1781,
      "velocity": 100,
      "chip": "ym2612"
    },
    {
      "channel": 0,
      "note": 69,
      "start": 124.6073,
      "duration": 0.0691,
      "velocity": 102,
      "chip": "ym2612"
    },
    {
      "channel": 1,
      "note": 66,
      "start": 124.659,
      "duration": 0.0255,
      "velocity": 102,
      "chip": "ym2612"
    },
    {
      "channel": 2,
      "note": 54,
      "start": 124.6594,
      "duration": 0.0253,
      "velocity": 91,
      "chip": "ym2612"
    },
    {
      "channel": 3,
      "note": 69,
      "start": 124.66,
      "duration": 0.025,
      "velocity": 100,
      "chip": "ym2612"
    },
    {
      "channel": 4,
      "note": 66,
      "start": 124.6655,
      "duration": 0.0248,
      "velocity": 100,
      "chip": "ym2612"
    },
    {
      "channel": 0,
      "note": 71,
      "start": 124.6791,
      "duration": 0.0237,
      "velocity": 102,
      "chip": "ym2612"
    },
    {
      "channel": 1,
      "note": 68,
      "start": 124.6866,
      "duration": 0.0222,
      "velocity": 102,
      "chip": "ym2612"
    },
    {
      "channel": 2,
      "note": 54,
      "start": 124.6871,
      "duration": 0.022,
      "velocity": 91,
      "chip": "ym2612"
    },
    {
      "channel": 3,
      "note": 73,
      "start": 124.6877,
      "duration": 0.0217,
      "velocity": 100,
      "chip": "ym2612"
    },
    {
      "channel": 4,
      "note": 69,
      "start": 124.6924,
      "duration": 0.0224,
      "velocity": 100,
      "chip": "ym2612"
    },
    {
      "channel": 0,
      "note": 73,
      "start": 124.7048,
      "duration": 0.0225,
      "velocity": 102,
      "chip": "ym2612"
    },
    {
      "channel": 1,
      "note": 69,
      "start": 124.7111,
      "duration": 0.0223,
      "velocity": 102,
      "chip": "ym2612"
    },
    {
      "channel": 2,
      "note": 54,
      "start": 124.7117,
      "duration": 0.022,
      "velocity": 91,
      "chip": "ym2612"
    },
    {
      "channel": 3,
      "note": 74,
      "start": 124.7123,
      "duration": 0.0217,
      "velocity": 100,
      "chip": "ym2612"
    },
    {
      "channel": 4,
      "note": 71,
      "start": 124.717,
      "duration": 0.0225,
      "velocity": 100,
      "chip": "ym2612"
    },
    {
      "channel": 0,
      "note": 71,
      "start": 124.7295,
      "duration": 0.1854,
      "velocity": 102,
      "chip": "ym2612"
    },
    {
      "channel": 1,
      "note": 68,
      "start": 124.7358,
      "duration": 0.2307,
      "velocity": 102,
      "chip": "ym2612"
    },
    {
      "channel": 2,
      "note": 52,
      "start": 124.7363,
      "duration": 0.0484,
      "velocity": 91,
      "chip": "ym2612"
    },
    {
      "channel": 3,
      "note": 73,
      "start": 124.7369,
      "duration": 0.0238,
      "velocity": 100,
      "chip": "ym2612"
    },
    {
      "channel": 4,
      "note": 69,
      "start": 124.7416,
      "duration": 0.0234,
      "velocity": 100,
      "chip": "ym2612"
    },
    {
      "channel": 3,
      "note": 71,
      "start": 124.7629,
      "duration": 0.0221,
      "velocity": 100,
      "chip": "ym2612"
    },
    {
      "channel": 4,
      "note": 68,
      "start": 124.7672,
      "duration": 0.0224,
      "velocity": 100,
      "chip": "ym2612"
    },
    {
      "channel": 3,
      "note": 59,
      "start": 124.7873,
      "duration": 0.1608,
      "velocity": 100,
      "chip": "ym2612"
    },
    {
      "channel": 4,
      "note": 56,
      "start": 124.7942,
      "duration": 0.1766,
      "velocity": 100,
      "chip": "ym2612"
    },
    {
      "channel": 0,
      "note": 71,
      "start": 124.9148,
      "duration": 0.0949,
      "velocity": 102,
      "chip": "ym2612"
    },
    {
      "channel": 1,
      "note": 68,
      "start": 124.9665,
      "duration": 0.0514,
      "velocity": 102,
      "chip": "ym2612"
    },
    {
      "channel": 2,
      "note": 52,
      "start": 124.967,
      "duration": 0.0511,
      "velocity": 91,
      "chip": "ym2612"
    },
    {
      "channel": 3,
      "note": 64,
      "start": 124.9681,
      "duration": 0.0246,
      "velocity": 100,
      "chip": "ym2612"
    },
    {
      "channel": 4,
      "note": 59,
      "start": 124.9729,
      "duration": 0.0241,
      "velocity": 100,
      "chip": "ym2612"
    },
    {
      "channel": 3,
      "note": 68,
      "start": 124.9949,
      "duration": 0.0236,
      "velocity": 100,
      "chip": "ym2612"
    },
    {
      "channel": 4,
      "note": 64,
      "start": 124.9992,
      "duration": 0.0256,
      "velocity": 100,
      "chip": "ym2612"
    },
    {
      "channel": 0,
      "note": 68,
      "start": 125.0133,
      "duration": 0.1129,
      "velocity": 102,
      "chip": "ym2612"
    },
    {
      "channel": 1,
      "note": 64,
      "start": 125.0216,
      "duration": 0.1563,
      "velocity": 102,
      "chip": "ym2612"
    },
    {
      "channel": 3,
      "note": 64,
      "start": 125.0225,
      "duration": 0.1559,
      "velocity": 100,
      "chip": "ym2612"
    },
    {
      "channel": 4,
      "note": 59,
      "start": 125.0273,
      "duration": 0.1723,
      "velocity": 100,
      "chip": "ym2612"
    },
    {
      "channel": 0,
      "note": 68,
      "start": 125.1436,
      "duration": 0.4233,
      "velocity": 102,
      "chip": "ym2612"
    },
    {
      "channel": 1,
      "note": 64,
      "start": 125.1953,
      "duration": 0.4233,
      "velocity": 102,
      "chip": "ym2612"
    },
    {
      "channel": 2,
      "note": 52,
      "start": 125.1958,
      "duration": 0.2173,
      "velocity": 91,
      "chip": "ym2612"
    },
    {
      "channel": 3,
      "note": 68,
      "start": 125.1964,
      "duration": 0.0245,
      "velocity": 100,
      "chip": "ym2612"
    },
    {
      "channel": 4,
      "note": 64,
      "start": 125.2028,
      "duration": 0.0392,
      "velocity": 100,
      "chip": "ym2612"
    },
    {
      "channel": 3,
      "note": 71,
      "start": 125.2248,
      "duration": 0.1886,
      "velocity": 100,
      "chip": "ym2612"
    },
    {
      "channel": 4,
      "note": 68,
      "start": 125.2593,
      "duration": 0.1885,
      "velocity": 100,
      "chip": "ym2612"
    },
    {
      "channel": 3,
      "note": 68,
      "start": 125.4308,
      "duration": 0.1884,
      "velocity": 100,
      "chip": "ym2612"
    },
    {
      "channel": 4,
      "note": 64,
      "start": 125.4654,
      "duration": 0.1754,
      "velocity": 100,
      "chip": "ym2612"
    },
    {
      "channel": 0,
      "note": 68,
      "start": 125.5844,
      "duration": 0.0706,
      "velocity": 102,
      "chip": "ym2612"
    },
    {
      "channel": 1,
      "note": 64,
      "start": 125.636,
      "duration": 0.0251,
      "velocity": 102,
      "chip": "ym2612"
    },
    {
      "channel": 2,
      "note": 52,
      "start": 125.6365,
      "duration": 0.0248,
      "velocity": 91,
      "chip": "ym2612"
    },
    {
      "channel": 3,
      "note": 71,
      "start": 125.6377,
      "duration": 0.0239,
      "velocity": 100,
      "chip": "ym2612"
    },
    {
      "channel": 4,
      "note": 68,
      "start": 125.6436,
      "duration": 0.025,
      "velocity": 100,
      "chip": "ym2612"
    },
    {
      "channel": 0,
      "note": 68,
      "start": 125.657,
      "duration": 0.0244,
      "velocity": 102,
      "chip": "ym2612"
    },
    {
      "channel": 1,
      "note": 64,
      "start": 125.6645,
      "duration": 0.0229,
      "velocity": 102,
      "chip": "ym2612"
    },
    {
      "channel": 2,
      "note": 52,
      "start": 125.665,
      "duration": 0.0227,
      "velocity": 91,
      "chip": "ym2612"
    },
    {
      "channel": 3,
      "note": 76,
      "start": 125.6656,
      "duration": 0.0223,
      "velocity": 100,
      "chip": "ym2612"
    },
    {
      "channel": 4,
      "note": 71,
      "start": 125.6707,
      "duration": 0.0227,
      "velocity": 100,
      "chip": "ym2612"
    },
    {
      "channel": 0,
      "note": 68,
      "start": 125.6834,
      "duration": 0.0229,
      "velocity": 102,
      "chip": "ym2612"
    },
    {
      "channel": 1,
      "note": 64,
      "start": 125.6898,
      "duration": 0.0238,
      "velocity": 102,
      "chip": "ym2612"
    },
    {
      "channel": 2,
      "note": 52,
      "start": 125.6903,
      "duration": 0.0235,
      "velocity": 91,
      "chip": "ym2612"
    },
    {
      "channel": 3,
      "note": 74,
      "start": 125.6909,
      "duration": 0.0234,
      "velocity": 100,
      "chip": "ym2612"
    },
    {
      "channel": 4,
      "note": 68,
      "start": 125.6956,
      "duration": 0.0259,
      "velocity": 100,
      "chip": "ym2612"
    },
    {
      "channel": 0,
      "note": 69,
      "start": 125.7085,
      "duration": 0.1859,
      "velocity": 102,
      "chip": "ym2612"
    },
    {
      "channel": 1,
      "note": 66,
      "start": 125.7172,
      "duration": 0.2286,
      "velocity": 102,
      "chip": "ym2612"
    },
    {
      "channel": 2,
      "note": 50,
      "start": 125.7178,
      "duration": 0.0459,
      "velocity": 91,
      "chip": "ym2612"
    },
    {
      "channel": 3,
      "note": 76,
      "start": 125.7185,
      "duration": 0.0218,
      "velocity": 100,
      "chip": "ym2612"
    },
    {
      "channel": 4,
      "note": 71,
      "start": 125.7237,
      "duration": 0.021,
      "velocity": 100,
      "chip": "ym2612"
    },
    {
      "channel": 3,
      "note": 74,
      "start": 125.7425,
      "duration": 0.0215,
      "velocity": 100,
      "chip": "ym2612"
    },
    {
      "channel": 3,
      "note": 57,
      "start": 125.7663,
      "duration": 0.1614,
      "velocity": 100,
      "chip": "ym2612"
    },
    {
      "channel": 4,
      "note": 69,
      "start": 125.7734,
      "duration": 0.1761,
      "velocity": 100,
      "chip": "ym2612"
    },
    {
      "channel": 0,
      "note": 69,
      "start": 125.8944,
      "duration": 0.2283,
      "velocity": 102,
      "chip": "ym2612"
    },
    {
      "channel": 1,
      "note": 66,
      "start": 125.9458,
      "duration": 0.2279,
      "velocity": 102,
      "chip": "ym2612"
    },
    {
      "channel": 2,
      "note": 50,
      "start": 125.9463,
      "duration": 0.0465,
      "velocity": 91,
      "chip": "ym2612"
    },
    {
      "channel": 3,
      "note": 61,
      "start": 125.9469,
      "duration": 0.0223,
      "velocity": 100,
      "chip": "ym2612"
    },
    {
      "channel": 4,
      "note": 57,
      "start": 125.952,
      "duration": 0.0217,
      "velocity": 100,
      "chip": "ym2612"
    },
    {
      "channel": 3,
      "note": 62,
      "start": 125.9713,
      "duration": 0.0217,
      "velocity": 100,
      "chip": "ym2612"
    },
    {
      "channel": 4,
      "note": 57,
      "start": 125.9758,
      "duration": 0.022,
      "velocity": 100,
      "chip": "ym2612"
    },
    {
      "channel": 3,
      "note": 66,
      "start": 125.9954,
      "duration": 0.1599,
      "velocity": 100,
      "chip": "ym2612"
    },
    {
      "channel": 4,
      "note": 62,
      "start": 126.0015,
      "duration": 0.1763,
      "velocity": 100,
      "chip": "ym2612"
    },
    {
      "channel": 0,
      "note": 69,
      "start": 126.1227,
      "duration": 0.4193,
      "velocity": 102,
      "chip": "ym2612"
    },
    {
      "channel": 1,
      "note": 66,
      "start": 126.1737,
      "duration": 0.4195,
      "velocity": 102,
      "chip": "ym2612"
    },
    {
      "channel": 2,
      "note": 50,
      "start": 126.1742,
      "duration": 0.2134,
      "velocity": 91,
      "chip": "ym2612"
    },
    {
      "channel": 3,
      "note": 69,
      "start": 126.1748,
      "duration": 0.0216,
      "velocity": 100,
      "chip": "ym2612"
    },
    {
      "channel": 4,
      "note": 66,
      "start": 126.1799,
      "duration": 0.0367,
      "velocity": 100,
      "chip": "ym2612"
    },
    {
      "channel": 3,
      "note": 66,
      "start": 126.1994,
      "duration": 0.1886,
      "velocity": 100,
      "chip": "ym2612"
    },
    {
      "channel": 4,
      "note": 62,
      "start": 126.234,
      "duration": 0.1885,
      "velocity": 100,
      "chip": "ym2612"
    },
    {
      "channel": 3,
      "note": 69,
      "start": 126.4054,
      "duration": 0.1884,
      "velocity": 100,
      "chip": "ym2612"
    },
    {
      "channel": 4,
      "note": 66,
      "start": 126.44,
      "duration": 0.1762,
      "velocity": 100,
      "chip": "ym2612"
    },
    {
      "channel": 0,
      "note": 73,
      "start": 126.5605,
      "duration": 0.0688,
      "velocity": 102,
      "chip": "ym2612"
    },
    {
      "channel": 1,
      "note": 69,
      "start": 126.6121,
      "duration": 0.0233,
      "velocity": 102,
      "chip": "ym2612"
    },
    {
      "channel": 2,
      "note": 50,
      "start": 126.6125,
      "duration": 0.0232,
      "velocity": 91,
      "chip": "ym2612"
    },
    {
      "channel": 3,
      "note": 73,
      "start": 126.6132,
      "duration": 0.0765,
      "velocity": 100,
      "chip": "ym2612"
    },
    {
      "channel": 4,
      "note": 69,
      "start": 126.6183,
      "duration": 0.078,
      "velocity": 100,
      "chip": "ym2612"
    },
    {
      "channel": 0,
      "note": 71,
      "start": 126.6314,
      "duration": 0.0224,
      "velocity": 102,
      "chip": "ym2612"
    },
    {
      "channel": 1,
      "note": 66,
      "start": 126.638,
      "duration": 0.0219,
      "velocity": 102,
      "chip": "ym2612"
    },
    {
      "channel": 2,
      "note": 50,
      "start": 126.6385,
      "duration": 0.0217,
      "velocity": 91,
      "chip": "ym2612"
    },
    {
      "channel": 0,
      "note": 69,
      "start": 126.6558,
      "duration": 0.0266,
      "velocity": 102,
      "chip": "ym2612"
    },
    {
      "channel": 1,
      "note": 61,
      "start": 126.6629,
      "duration": 0.0262,
      "velocity": 102,
      "chip": "ym2612"
    },
    {
      "channel": 2,
      "note": 50,
      "start": 126.6634,
      "duration": 0.0259,
      "velocity": 91,
      "chip": "ym2612"
    },
    {
      "channel": 0,
      "note": 68,
      "start": 126.6846,
      "duration": 0.1867,
      "velocity": 102,
      "chip": "ym2612"
    },
    {
      "channel": 1,
      "note": 59,
      "start": 126.6926,
      "duration": 0.2304,
      "velocity": 102,
      "chip": "ym2612"
    },
    {
      "channel": 2,
      "note": 52,
      "start": 126.6931,
      "duration": 0.0464,
      "velocity": 91,
      "chip": "ym2612"
    },
    {
      "channel": 3,
      "note": 74,
      "start": 126.6938,
      "duration": 0.022,
      "velocity": 100,
      "chip": "ym2612"
    },
    {
      "channel": 4,
      "note": 69,
      "start": 126.6985,
      "duration": 0.0217,
      "velocity": 100,
      "chip": "ym2612"
    },
    {
      "channel": 3,
      "note": 76,
      "start": 126.718,
      "duration": 0.0218,
      "velocity": 100,
      "chip": "ym2612"
    },
    {
      "channel": 4,
      "note": 71,
      "start": 126.7224,
      "duration": 0.0227,
      "velocity": 100,
      "chip": "ym2612"
    },
    {
      "channel": 3,
      "note": 68,
      "start": 126.7422,
      "duration": 0.1624,
      "velocity": 100,
      "chip": "ym2612"
    },
    {
      "channel": 4,
      "note": 59,
      "start": 126.7515,
      "duration": 0.1752,
      "velocity": 100,
      "chip": "ym2612"
    },
    {
      "channel": 0,
      "note": 68,
      "start": 126.8713,
      "duration": 0.2305,
      "velocity": 102,
      "chip": "ym2612"
    },
    {
      "channel": 1,
      "note": 59,
      "start": 126.923,
      "duration": 0.2115,
      "velocity": 102,
      "chip": "ym2612"
    },
    {
      "channel": 2,
      "note": 52,
      "start": 126.9235,
      "duration": 0.023,
      "velocity": 91,
      "chip": "ym2612"
    },
    {
      "channel": 3,
      "note": 71,
      "start": 126.9241,
      "duration": 0.0227,
      "velocity": 100,
      "chip": "ym2612"
    },
    {
      "channel": 4,
      "note": 64,
      "start": 126.9292,
      "duration": 0.0224,
      "velocity": 100,
      "chip": "ym2612"
    },
    {
      "channel": 2,
      "note": 52,
      "start": 126.9486,
      "duration": 0.0224,
      "velocity": 91,
      "chip": "ym2612"
    },
    {
      "channel": 3,
      "note": 76,
      "start": 126.9493,
      "duration": 0.0221,
      "velocity": 100,
      "chip": "ym2612"
    },
    {
      "channel": 4,
      "note": 68,
      "start": 126.9537,
      "duration": 0.0244,
      "velocity": 100,
      "chip": "ym2612"
    },
    {
      "channel": 2,
      "note": 52,
      "start": 126.9739,
      "duration": 0.1609,
      "velocity": 91,
      "chip": "ym2612"
    },
    {
      "channel": 3,
      "note": 78,
      "start": 126.9751,
      "duration": 0.16,
      "velocity": 100,
      "chip": "ym2612"
    },
    {
      "channel": 4,
      "note": 71,
      "start": 126.9818,
      "duration": 0.1753,
      "velocity": 100,
      "chip": "ym2612"
    },
    {
      "channel": 0,
      "note": 68,
      "start": 127.1017,
      "duration": 0.4204,
      "velocity": 102,
      "chip": "ym2612"
    },
    {
      "channel": 1,
      "note": 59,
      "start": 127.1534,
      "duration": 0.4205,
      "velocity": 102,
      "chip": "ym2612"
    },
    {
      "channel": 2,
      "note": 53,
      "start": 127.1539,
      "duration": 0.2149,
      "velocity": 91,
      "chip": "ym2612"
    },
    {
      "channel": 3,
      "note": 80,
      "start": 127.1544,
      "duration": 0.0226,
      "velocity": 100,
      "chip": "ym2612"
    },
    {
      "channel": 4,
      "note": 76,
      "start": 127.1592,
      "duration": 0.038,
      "velocity": 100,
      "chip": "ym2612"
    },
    {
      "channel": 3,
      "note": 80,
      "start": 127.18,
      "duration": 0.1892,
      "velocity": 100,
      "chip": "ym2612"
    },
    {
      "channel": 4,
      "note": 77,
      "start": 127.2146,
      "duration": 0.1888,
      "velocity": 100,
      "chip": "ym2612"
    },
    {
      "channel": 3,
      "note": 81,
      "start": 127.3866,
      "duration": 0.1878,
      "velocity": 100,
      "chip": "ym2612"
    },
    {
      "channel": 4,
      "note": 78,
      "start": 127.4206,
      "duration": 0.1742,
      "velocity": 100,
      "chip": "ym2612"
    },
    {
      "channel": 0,
      "note": 74,
      "start": 127.541,
      "duration": 0.1187,
      "velocity": 102,
      "chip": "ym2612"
    },
    {
      "channel": 1,
      "note": 68,
      "start": 127.5912,
      "duration": 0.0779,
      "velocity": 102,
      "chip": "ym2612"
    },
    {
      "channel": 2,
      "note": 53,
      "start": 127.5917,
      "duration": 0.022,
      "velocity": 91,
      "chip": "ym2612"
    },
    {
      "channel": 3,
      "note": 83,
      "start": 127.5923,
      "duration": 0.0217,
      "velocity": 100,
      "chip": "ym2612"
    },
    {
      "channel": 4,
      "note": 80,
      "start": 127.597,
      "duration": 0.0225,
      "velocity": 100,
      "chip": "ym2612"
    },
    {
      "channel": 2,
      "note": 53,
      "start": 127.6164,
      "duration": 0.0245,
      "velocity": 91,
      "chip": "ym2612"
    },
    {
      "channel": 3,
      "note": 83,
      "start": 127.617,
      "duration": 0.0242,
      "velocity": 100,
      "chip": "ym2612"
    },
    {
      "channel": 4,
      "note": 80,
      "start": 127.6217,
      "duration": 0.0247,
      "velocity": 100,
      "chip": "ym2612"
    },
    {
      "channel": 2,
      "note": 53,
      "start": 127.6432,
      "duration": 0.0262,
      "velocity": 91,
      "chip": "ym2612"
    },
    {
      "channel": 3,
      "note": 85,
      "start": 127.6438,
      "duration": 0.0259,
      "velocity": 100,
      "chip": "ym2612"
    },
    {
      "channel": 4,
      "note": 81,
      "start": 127.6487,
      "duration": 0.0352,
      "velocity": 100,
      "chip": "ym2612"
    },
    {
      "channel": 0,
      "note": 52,
      "start": 127.6649,
      "duration": 0.029,
      "velocity": 97,
      "chip": "ym2612"
    },
    {
      "channel": 1,
      "note": 47,
      "start": 127.675,
      "duration": 0.0251,
      "velocity": 97,
      "chip": "ym2612"
    },
    {
      "channel": 2,
      "note": 54,
      "start": 127.6755,
      "duration": 0.2937,
      "velocity": 91,
      "chip": "ym2612"
    },
    {
      "channel": 3,
      "note": 86,
      "start": 127.6807,
      "duration": 0.0198,
      "velocity": 99,
      "chip": "ym2612"
    },
    {
      "channel": 4,
      "note": 83,
      "start": 127.6907,
      "duration": 0.0149,
      "velocity": 99,
      "chip": "ym2612"
    },
    {
      "channel": 0,
      "note": 54,
      "start": 127.696,
      "duration": 0.0149,
      "velocity": 97,
      "chip": "ym2612"
    },
    {
      "channel": 1,
      "note": 49,
      "start": 127.7022,
      "duration": 0.0149,
      "velocity": 97,
      "chip": "ym2612"
    },
    {
      "channel": 3,
      "note": 64,
      "start": 127.703,
      "duration": 0.0146,
      "velocity": 99,
      "chip": "ym2612"
    },
    {
      "channel": 4,
      "note": 64,
      "start": 127.7077,
      "duration": 0.0164,
      "velocity": 99,
      "chip": "ym2612"
    },
    {
      "channel": 0,
      "note": 61,
      "start": 127.7131,
      "duration": 0.0181,
      "velocity": 97,
      "chip": "ym2612"
    },
    {
      "channel": 1,
      "note": 54,
      "start": 127.7202,
      "duration": 0.0175,
      "velocity": 97,
      "chip": "ym2612"
    },
    {
      "channel": 3,
      "note": 66,
      "start": 127.721,
      "duration": 0.0173,
      "velocity": 99,
      "chip": "ym2612"
    },
    {
      "channel": 4,
      "note": 66,
      "start": 127.7275,
      "duration": 0.0151,
      "velocity": 99,
      "chip": "ym2612"
    },
    {
      "channel": 0,
      "note": 59,
      "start": 127.7495,
      "duration": 0.1068,
      "velocity": 97,
      "chip": "ym2612"
    },
    {
      "channel": 1,
      "note": 52,
      "start": 127.7566,
      "duration": 0.1059,
      "velocity": 97,
      "chip": "ym2612"
    },
    {
      "channel": 3,
      "note": 73,
      "start": 127.7575,
      "duration": 0.0144,
      "velocity": 99,
      "chip": "ym2612"
    },
    {
      "channel": 4,
      "note": 73,
      "start": 127.7623,
      "duration": 0.0156,
      "velocity": 99,
      "chip": "ym2612"
    },
    {
      "channel": 3,
      "note": 71,
      "start": 127.7752,
      "duration": 0.0144,
      "velocity": 99,
      "chip": "ym2612"
    },
    {
      "channel": 4,
      "note": 71,
      "start": 127.7803,
      "duration": 0.0155,
      "velocity": 99,
      "chip": "ym2612"
    },
    {
      "channel": 3,
      "note": 73,
      "start": 127.7931,
      "duration": 0.0175,
      "velocity": 99,
      "chip": "ym2612"
    },
    {
      "channel": 4,
      "note": 73,
      "start": 127.798,
      "duration": 0.0187,
      "velocity": 99,
      "chip": "ym2612"
    },
    {
      "channel": 3,
      "note": 76,
      "start": 127.814,
      "duration": 0.0154,
      "velocity": 99,
      "chip": "ym2612"
    },
    {
      "channel": 4,
      "note": 76,
      "start": 127.8194,
      "duration": 0.0155,
      "velocity": 99,
      "chip": "ym2612"
    },
    {
      "channel": 3,
      "note": 80,
      "start": 127.8322,
      "duration": 0.031,
      "velocity": 99,
      "chip": "ym2612"
    },
    {
      "channel": 4,
      "note": 80,
      "start": 127.8372,
      "duration": 0.0322,
      "velocity": 99,
      "chip": "ym2612"
    },
    {
      "channel": 0,
      "note": 64,
      "start": 127.8584,
      "duration": 0.0666,
      "velocity": 97,
      "chip": "ym2612"
    },
    {
      "channel": 1,
      "note": 59,
      "start": 127.8659,
      "duration": 0.0658,
      "velocity": 97,
      "chip": "ym2612"
    },
    {
      "channel": 3,
      "note": 83,
      "start": 127.8668,
      "duration": 0.0322,
      "velocity": 99,
      "chip": "ym2612"
    },
    {
      "channel": 4,
      "note": 83,
      "start": 127.8717,
      "duration": 0.0322,
      "velocity": 99,
      "chip": "ym2612"
    },
    {
      "channel": 3,
      "note": 80,
      "start": 127.9012,
      "duration": 0.0312,
      "velocity": 99,
      "chip": "ym2612"
    },
    {
      "channel": 4,
      "note": 80,
      "start": 127.9061,
      "duration": 0.0329,
      "velocity": 99,
      "chip": "ym2612"
    },
    {
      "channel": 0,
      "note": 68,
      "start": 127.9276,
      "duration": 0.0353,
      "velocity": 97,
      "chip": "ym2612"
    },
    {
      "channel": 1,
      "note": 64,
      "start": 127.9356,
      "duration": 0.0334,
      "velocity": 97,
      "chip": "ym2612"
    },
    {
      "channel": 3,
      "note": 76,
      "start": 127.9364,
      "duration": 0.0332,
      "velocity": 99,
      "chip": "ym2612"
    },
    {
      "channel": 4,
      "note": 76,
      "start": 127.9413,
      "duration": 0.035,
      "velocity": 99,
      "chip": "ym2612"
    },
    {
      "channel": 0,
      "note": 66,
      "start": 127.965,
      "duration": 0.2345,
      "velocity": 97,
      "chip": "ym2612"
    },
    {
      "channel": 1,
      "note": 61,
      "start": 127.9726,
      "duration": 0.2362,
      "velocity": 97,
      "chip": "ym2612"
    },
    {
      "channel": 2,
      "note": 54,
      "start": 127.9731,
      "duration": 0.2359,
      "velocity": 91,
      "chip": "ym2612"
    },
    {
      "channel": 3,
      "note": 71,
      "start": 127.9737,
      "duration": 0.0065,
      "velocity": 99,
      "chip": "ym2612"
    },
    {
      "channel": 4,
      "note": 71,
      "start": 127.9784,
      "duration": 0.0066,
      "velocity": 99,
      "chip": "ym2612"
    },
    {
      "channel": 3,
      "note": 73,
      "start": 127.9824,
      "duration": 0.0064,
      "velocity": 99,
      "chip": "ym2612"
    },
    {
      "channel": 4,
      "note": 85,
      "start": 127.9872,
      "duration": 0.007,
      "velocity": 99,
      "chip": "ym2612"
    },
    {
      "channel": 3,
      "note": 74,
      "start": 127.9916,
      "duration": 0.0064,
      "velocity": 99,
      "chip": "ym2612"
    },
    {
      "channel": 4,
      "note": 86,
      "start": 127.9963,
      "duration": 0.0075,
      "velocity": 99,
      "chip": "ym2612"
    },
    {
      "channel": 3,
      "note": 73,
      "start": 128.0012,
      "duration": 0.0067,
      "velocity": 99,
      "chip": "ym2612"
    },
    {
      "channel": 4,
      "note": 85,
      "start": 128.006,
      "duration": 0.0075,
      "velocity": 99,
      "chip": "ym2612"
    },
    {
      "channel": 3,
      "note": 74,
      "start": 128.0108,
      "duration": 0.0066,
      "velocity": 99,
      "chip": "ym2612"
    },
    {
      "channel": 4,
      "note": 86,
      "start": 128.0156,
      "duration": 0.0071,
      "velocity": 99,
      "chip": "ym2612"
    },
    {
      "channel": 3,
      "note": 73,
      "start": 128.0201,
      "duration": 0.0066,
      "velocity": 99,
      "chip": "ym2612"
    },
    {
      "channel": 4,
      "note": 85,
      "start": 128.025,
      "duration": 0.0075,
      "velocity": 99,
      "chip": "ym2612"
    },
    {
      "channel": 3,
      "note": 74,
      "start": 128.0293,
      "duration": 0.0085,
      "velocity": 99,
      "chip": "ym2612"
    },
    {
      "channel": 4,
      "note": 86,
      "start": 128.0354,
      "duration": 0.0089,
      "velocity": 99,
      "chip": "ym2612"
    },
    {
      "channel": 3,
      "note": 73,
      "start": 128.0411,
      "duration": 0.0076,
      "velocity": 99,
      "chip": "ym2612"
    },
    {
      "channel": 4,
      "note": 85,
      "start": 128.047,
      "duration": 0.0087,
      "velocity": 99,
      "chip": "ym2612"
    },
    {
      "channel": 3,
      "note": 74,
      "start": 128.053,
      "duration": 0.0071,
      "velocity": 99,
      "chip": "ym2612"
    },
    {
      "channel": 4,
      "note": 86,
      "start": 128.0583,
      "duration": 0.007,
      "velocity": 99,
      "chip": "ym2612"
    },
    {
      "channel": 3,
      "note": 73,
      "start": 128.0626,
      "duration": 0.0071,
      "velocity": 99,
      "chip": "ym2612"
    },
    {
      "channel": 4,
      "note": 85,
      "start": 128.0679,
      "duration": 0.0069,
      "velocity": 99,
      "chip": "ym2612"
    },
    {
      "channel": 3,
      "note": 74,
      "start": 128.0721,
      "duration": 0.0071,
      "velocity": 99,
      "chip": "ym2612"
    },
    {
      "channel": 4,
      "note": 86,
      "start": 128.0774,
      "duration": 0.007,
      "velocity": 99,
      "chip": "ym2612"
    },
    {
      "channel": 3,
      "note": 73,
      "start": 128.0817,
      "duration": 0.0068,
      "velocity": 99,
      "chip": "ym2612"
    },
    {
      "channel": 4,
      "note": 85,
      "start": 128.0866,
      "duration": 0.007,
      "velocity": 99,
      "chip": "ym2612"
    },
    {
      "channel": 3,
      "note": 74,
      "start": 128.0908,
      "duration": 0.0067,
      "velocity": 99,
      "chip": "ym2612"
    },
    {
      "channel": 4,
      "note": 86,
      "start": 128.0957,
      "duration": 0.0069,
      "velocity": 99,
      "chip": "ym2612"
    },
    {
      "channel": 3,
      "note": 73,
      "start": 128.1,
      "duration": 0.0068,
      "velocity": 99,
      "chip": "ym2612"
    },
    {
      "channel": 4,
      "note": 85,
      "start": 128.105,
      "duration": 0.007,
      "velocity": 99,
      "chip": "ym2612"
    },
    {
      "channel": 3,
      "note": 74,
      "start": 128.1092,
      "duration": 0.0071,
      "velocity": 99,
      "chip": "ym2612"
    },
    {
      "channel": 4,
      "note": 86,
      "start": 128.1146,
      "duration": 0.008,
      "velocity": 99,
      "chip": "ym2612"
    },
    {
      "channel": 3,
      "note": 73,
      "start": 128.119,
      "duration": 0.0093,
      "velocity": 99,
      "chip": "ym2612"
    },
    {
      "channel": 4,
      "note": 85,
      "start": 128.1258,
      "duration": 0.0096,
      "velocity": 99,
      "chip": "ym2612"
    },
    {
      "channel": 3,
      "note": 74,
      "start": 128.1328,
      "duration": 0.0068,
      "velocity": 99,
      "chip": "ym2612"
    },
    {
      "channel": 4,
      "note": 86,
      "start": 128.1377,
      "duration": 0.0084,
      "velocity": 99,
      "chip": "ym2612"
    },
    {
      "channel": 3,
      "note": 73,
      "start": 128.1434,
      "duration": 0.0068,
      "velocity": 99,
      "chip": "ym2612"
    },
    {
      "channel": 4,
      "note": 85,
      "start": 128.1484,
      "duration": 0.0072,
      "velocity": 99,
      "chip": "ym2612"
    },
    {
      "channel": 3,
      "note": 74,
      "start": 128.1526,
      "duration": 0.0076,
      "velocity": 99,
      "chip": "ym2612"
    },
    {
      "channel": 4,
      "note": 86,
      "start": 128.1583,
      "duration": 0.0074,
      "velocity": 99,
      "chip": "ym2612"
    },
    {
      "channel": 3,
      "note": 73,
      "start": 128.1627,
      "duration": 0.0076,
      "velocity": 99,
      "chip": "ym2612"
    },
    {
      "channel": 4,
      "note": 85,
      "start": 128.1684,
      "duration": 0.0069,
      "velocity": 99,
      "chip": "ym2612"
    },
    {
      "channel": 3,
      "note": 74,
      "start": 128.1726,
      "duration": 0.0068,
      "velocity": 99,
      "chip": "ym2612"
    },
    {
      "channel": 4,
      "note": 86,
      "start": 128.1775,
      "duration": 0.0073,
      "velocity": 99,
      "chip": "ym2612"
    },
    {
      "channel": 3,
      "note": 73,
      "start": 128.1817,
      "duration": 0.0072,
      "velocity": 99,
      "chip": "ym2612"
    },
    {
      "channel": 4,
      "note": 85,
      "start": 128.1871,
      "duration": 0.007,
      "velocity": 99,
      "chip": "ym2612"
    },
    {
      "channel": 3,
      "note": 74,
      "start": 128.1914,
      "duration": 0.0067,
      "velocity": 99,
      "chip": "ym2612"
    },
    {
      "channel": 4,
      "note": 86,
      "start": 128.1963,
      "duration": 0.008,
      "velocity": 99,
      "chip": "ym2612"
    },
    {
      "channel": 3,
      "note": 73,
      "start": 128.2006,
      "duration": 0.0088,
      "velocity": 99,
      "chip": "ym2612"
    },
    {
      "channel": 0,
      "note": 68,
      "start": 128.2031,
      "duration": 0.0779,
      "velocity": 97,
      "chip": "ym2612"
    },
    {
      "channel": 4,
      "note": 85,
      "start": 128.207,
      "duration": 0.0111,
      "velocity": 99,
      "chip": "ym2612"
    },
    {
      "channel": 1,
      "note": 61,
      "start": 128.2132,
      "duration": 0.0741,
      "velocity": 97,
      "chip": "ym2612"
    },
    {
      "channel": 2,
      "note": 52,
      "start": 128.2143,
      "duration": 0.0734,
      "velocity": 91,
      "chip": "ym2612"
    },
    {
      "channel": 3,
      "note": 74,
      "start": 128.2149,
      "duration": 0.0076,
      "velocity": 99,
      "chip": "ym2612"
    },
    {
      "channel": 4,
      "note": 86,
      "start": 128.2208,
      "duration": 0.0087,
      "velocity": 99,
      "chip": "ym2612"
    },
    {
      "channel": 3,
      "note": 73,
      "start": 128.2265,
      "duration": 0.0067,
      "velocity": 99,
      "chip": "ym2612"
    },
    {
      "channel": 4,
      "note": 85,
      "start": 128.2316,
      "duration": 0.0073,
      "velocity": 99,
      "chip": "ym2612"
    },
    {
      "channel": 3,
      "note": 74,
      "start": 128.2363,
      "duration": 0.0064,
      "velocity": 99,
      "chip": "ym2612"
    },
    {
      "channel": 4,
      "note": 86,
      "start": 128.2411,
      "duration": 0.0071,
      "velocity": 99,
      "chip": "ym2612"
    },
    {
      "channel": 3,
      "note": 73,
      "start": 128.2456,
      "duration": 0.0065,
      "velocity": 99,
      "chip": "ym2612"
    },
    {
      "channel": 4,
      "note": 85,
      "start": 128.2503,
      "duration": 0.0071,
      "velocity": 99,
      "chip": "ym2612"
    },
    {
      "channel": 3,
      "note": 74,
      "start": 128.2548,
      "duration": 0.0145,
      "velocity": 99,
      "chip": "ym2612"
    },
    {
      "channel": 4,
      "note": 86,
      "start": 128.2596,
      "duration": 0.0159,
      "velocity": 99,
      "chip": "ym2612"
    },
    {
      "channel": 3,
      "note": 76,
      "start": 128.2728,
      "duration": 0.0339,
      "velocity": 99,
      "chip": "ym2612"
    },
    {
      "channel": 4,
      "note": 88,
      "start": 128.2777,
      "duration": 0.0351,
      "velocity": 99,
      "chip": "ym2612"
    },
    {
      "channel": 0,
      "note": 69,
      "start": 128.2832,
      "duration": 0.2556,
      "velocity": 97,
      "chip": "ym2612"
    },
    {
      "channel": 1,
      "note": 66,
      "start": 128.2896,
      "duration": 0.2556,
      "velocity": 97,
      "chip": "ym2612"
    },
    {
      "channel": 2,
      "note": 50,
      "start": 128.2901,
      "duration": 0.288,
      "velocity": 91,
      "chip": "ym2612"
    },
    {
      "channel": 3,
      "note": 78,
      "start": 128.3102,
      "duration": 0.0139,
      "velocity": 99,
      "chip": "ym2612"
    },
    {
      "channel": 4,
      "note": 90,
      "start": 128.3149,
      "duration": 0.0151,
      "velocity": 99,
      "chip": "ym2612"
    },
    {
      "channel": 3,
      "note": 76,
      "start": 128.3274,
      "duration": 0.0143,
      "velocity": 99,
      "chip": "ym2612"
    },
    {
      "channel": 4,
      "note": 88,
      "start": 128.3322,
      "duration": 0.0155,
      "velocity": 99,
      "chip": "ym2612"
    },
    {
      "channel": 3,
      "note": 80,
      "start": 128.3451,
      "duration": 0.0147,
      "velocity": 99,
      "chip": "ym2612"
    },
    {
      "channel": 4,
      "note": 92,
      "start": 128.35,
      "duration": 0.0156,
      "velocity": 99,
      "chip": "ym2612"
    },
    {
      "channel": 3,
      "note": 78,
      "start": 128.3628,
      "duration": 0.0173,
      "velocity": 99,
      "chip": "ym2612"
    },
    {
      "channel": 4,
      "note": 90,
      "start": 128.3678,
      "duration": 0.0173,
      "velocity": 99,
      "chip": "ym2612"
    },
    {
      "channel": 3,
      "note": 81,
      "start": 128.3825,
      "duration": 0.0149,
      "velocity": 99,
      "chip": "ym2612"
    },
    {
      "channel": 4,
      "note": 93,
      "start": 128.3878,
      "duration": 0.0149,
      "velocity": 99,
      "chip": "ym2612"
    },
    {
      "channel": 3,
      "note": 80,
      "start": 128.4,
      "duration": 0.0153,
      "velocity": 99,
      "chip": "ym2612"
    },
    {
      "channel": 4,
      "note": 92,
      "start": 128.4053,
      "duration": 0.0156,
      "velocity": 99,
      "chip": "ym2612"
    },
    {
      "channel": 3,
      "note": 83,
      "start": 128.4183,
      "duration": 0.0146,
      "velocity": 99,
      "chip": "ym2612"
    },
    {
      "channel": 4,
      "note": 95,
      "start": 128.4232,
      "duration": 0.0149,
      "velocity": 99,
      "chip": "ym2612"
    },
    {
      "channel": 3,
      "note": 81,
      "start": 128.4354,
      "duration": 0.0169,
      "velocity": 99,
      "chip": "ym2612"
    },
    {
      "channel": 4,
      "note": 93,
      "start": 128.4404,
      "duration": 0.0182,
      "velocity": 99,
      "chip": "ym2612"
    },
    {
      "channel": 3,
      "note": 80,
      "start": 128.4558,
      "duration": 0.0147,
      "velocity": 99,
      "chip": "ym2612"
    },
    {
      "channel": 4,
      "note": 92,
      "start": 128.4608,
      "duration": 0.0164,
      "velocity": 99,
      "chip": "ym2612"
    },
    {
      "channel": 3,
      "note": 81,
      "start": 128.4742,
      "duration": 0.015,
      "velocity": 99,
      "chip": "ym2612"
    },
    {
      "channel": 4,
      "note": 93,
      "start": 128.4795,
      "duration": 0.0153,
      "velocity": 99,
      "chip": "ym2612"
    },
    {
      "channel": 3,
      "note": 78,
      "start": 128.4921,
      "duration": 0.0154,
      "velocity": 99,
      "chip": "ym2612"
    },
    {
      "channel": 4,
      "note": 90,
      "start": 128.4971,
      "duration": 0.0161,
      "velocity": 99,
      "chip": "ym2612"
    },
    {
      "channel": 3,
      "note": 80,
      "start": 128.5101,
      "duration": 0.0152,
      "velocity": 99,
      "chip": "ym2612"
    },
    {
      "channel": 4,
      "note": 92,
      "start": 128.5154,
      "duration": 0.0172,
      "velocity": 99,
      "chip": "ym2612"
    },
    {
      "channel": 3,
      "note": 76,
      "start": 128.5291,
      "duration": 0.0493,
      "velocity": 99,
      "chip": "ym2612"
    },
    {
      "channel": 4,
      "note": 88,
      "start": 128.5354,
      "duration": 0.0483,
      "velocity": 99,
      "chip": "ym2612"
    },
    {
      "channel": 0,
      "note": 68,
      "start": 128.541,
      "duration": 0.0141,
      "velocity": 97,
      "chip": "ym2612"
    },
    {
      "channel": 1,
      "note": 64,
      "start": 128.5477,
      "duration": 0.0135,
      "velocity": 97,
      "chip": "ym2612"
    },
    {
      "channel": 0,
      "note": 69,
      "start": 128.5572,
      "duration": 0.014,
      "velocity": 97,
      "chip": "ym2612"
    },
    {
      "channel": 1,
      "note": 66,
      "start": 128.5634,
      "duration": 0.0145,
      "velocity": 97,
      "chip": "ym2612"
    },
    {
      "channel": 0,
      "note": 71,
      "start": 128.5737,
      "duration": 0.2936,
      "velocity": 97,
      "chip": "ym2612"
    },
    {
      "channel": 1,
      "note": 68,
      "start": 128.5801,
      "duration": 0.2936,
      "velocity": 97,
      "chip": "ym2612"
    },
    {
      "channel": 2,
      "note": 52,
      "start": 128.5806,
      "duration": 0.2934,
      "velocity": 91,
      "chip": "ym2612"
    },
    {
      "channel": 3,
      "note": 78,
      "start": 128.5812,
      "duration": 0.0142,
      "velocity": 99,
      "chip": "ym2612"
    },
    {
      "channel": 4,
      "note": 90,
      "start": 128.5859,
      "duration": 0.0157,
      "velocity": 99,
      "chip": "ym2612"
    },
    {
      "channel": 3,
      "note": 80,
      "start": 128.5985,
      "duration": 0.0173,
      "velocity": 99,
      "chip": "ym2612"
    },
    {
      "channel": 4,
      "note": 92,
      "start": 128.6049,
      "duration": 0.0163,
      "velocity": 99,
      "chip": "ym2612"
    },
    {
      "channel": 3,
      "note": 71,
      "start": 128.6186,
      "duration": 0.0154,
      "velocity": 99,
      "chip": "ym2612"
    },
    {
      "channel": 4,
      "note": 83,
      "start": 128.6234,
      "duration": 0.0167,
      "velocity": 99,
      "chip": "ym2612"
    },
    {
      "channel": 3,
      "note": 76,
      "start": 128.6374,
      "duration": 0.015,
      "velocity": 99,
      "chip": "ym2612"
    },
    {
      "channel": 4,
      "note": 88,
      "start": 128.6424,
      "duration": 0.0154,
      "velocity": 99,
      "chip": "ym2612"
    },
    {
      "channel": 3,
      "note": 78,
      "start": 128.6551,
      "duration": 0.015,
      "velocity": 99,
      "chip": "ym2612"
    },
    {
      "channel": 4,
      "note": 90,
      "start": 128.6601,
      "duration": 0.0156,
      "velocity": 99,
      "chip": "ym2612"
    },
    {
      "channel": 3,
      "note": 80,
      "start": 128.673,
      "duration": 0.018,
      "velocity": 99,
      "chip": "ym2612"
    },
    {
      "channel": 4,
      "note": 92,
      "start": 128.6778,
      "duration": 0.0202,
      "velocity": 99,
      "chip": "ym2612"
    },
    {
      "channel": 3,
      "note": 78,
      "start": 128.6953,
      "duration": 0.0154,
      "velocity": 99,
      "chip": "ym2612"
    },
    {
      "channel": 4,
      "note": 90,
      "start": 128.7004,
      "duration": 0.0161,
      "velocity": 99,
      "chip": "ym2612"
    },
    {
      "channel": 3,
      "note": 80,
      "start": 128.7138,
      "duration": 0.015,
      "velocity": 99,
      "chip": "ym2612"
    },
    {
      "channel": 4,
      "note": 92,
      "start": 128.7186,
      "duration": 0.0153,
      "velocity": 99,
      "chip": "ym2612"
    },
    {
      "channel": 3,
      "note": 81,
      "start": 128.7312,
      "duration": 0.015,
      "velocity": 99,
      "chip": "ym2612"
    },
    {
      "channel": 4,
      "note": 93,
      "start": 128.7362,
      "duration": 0.0158,
      "velocity": 99,
      "chip": "ym2612"
    },
    {
      "channel": 3,
      "note": 83,
      "start": 128.7492,
      "duration": 0.0167,
      "velocity": 99,
      "chip": "ym2612"
    },
    {
      "channel": 4,
      "note": 95,
      "start": 128.7545,
      "duration": 0.0175,
      "velocity": 99,
      "chip": "ym2612"
    },
    {
      "channel": 3,
      "note": 71,
      "start": 128.769,
      "duration": 0.0149,
      "velocity": 99,
      "chip": "ym2612"
    },
    {
      "channel": 4,
      "note": 83,
      "start": 128.7744,
      "duration": 0.0147,
      "velocity": 99,
      "chip": "ym2612"
    },
    {
      "channel": 3,
      "note": 76,
      "start": 128.7863,
      "duration": 0.0149,
      "velocity": 99,
      "chip": "ym2612"
    },
    {
      "channel": 4,
      "note": 88,
      "start": 128.7913,
      "duration": 0.0156,
      "velocity": 99,
      "chip": "ym2612"
    },
    {
      "channel": 3,
      "note": 80,
      "start": 128.8039,
      "duration": 0.015,
      "velocity": 99,
      "chip": "ym2612"
    },
    {
      "channel": 4,
      "note": 92,
      "start": 128.8092,
      "duration": 0.0153,
      "velocity": 99,
      "chip": "ym2612"
    },
    {
      "channel": 3,
      "note": 83,
      "start": 128.8218,
      "duration": 0.0145,
      "velocity": 99,
      "chip": "ym2612"
    },
    {
      "channel": 4,
      "note": 95,
      "start": 128.8268,
      "duration": 0.0166,
      "velocity": 99,
      "chip": "ym2612"
    },
    {
      "channel": 3,
      "note": 76,
      "start": 128.8394,
      "duration": 0.0174,
      "velocity": 99,
      "chip": "ym2612"
    },
    {
      "channel": 4,
      "note": 88,
      "start": 128.8462,
      "duration": 0.0159,
      "velocity": 99,
      "chip": "ym2612"
    },
    {
      "channel": 3,
      "note": 80,
      "start": 128.8595,
      "duration": 0.0148,
      "velocity": 99,
      "chip": "ym2612"
    },
    {
      "channel": 4,
      "note": 92,
      "start": 128.8644,
      "duration": 0.0153,
      "velocity": 99,
      "chip": "ym2612"
    },
    {
      "channel": 0,
      "note": 73,
      "start": 128.8695,
      "duration": 0.3124,
      "velocity": 97,
      "chip": "ym2612"
    },
    {
      "channel": 1,
      "note": 70,
      "start": 128.876,
      "duration": 0.3125,
      "velocity": 97,
      "chip": "ym2612"
    },
    {
      "channel": 2,
      "note": 54,
      "start": 128.8765,
      "duration": 0.3123,
      "velocity": 91,
      "chip": "ym2612"
    },
    {
      "channel": 3,
      "note": 83,
      "start": 128.8771,
      "duration": 0.0065,
      "velocity": 99,
      "chip": "ym2612"
    },
    {
      "channel": 4,
      "note": 95,
      "start": 128.8818,
      "duration": 0.007,
      "velocity": 99,
      "chip": "ym2612"
    },
    {
      "channel": 3,
      "note": 85,
      "start": 128.8858,
      "duration": 0.0068,
      "velocity": 99,
      "chip": "ym2612"
    },
    {
      "channel": 4,
      "note": 94,
      "start": 128.891,
      "duration": 0.0071,
      "velocity": 99,
      "chip": "ym2612"
    },
    {
      "channel": 3,
      "note": 87,
      "start": 128.8954,
      "duration": 0.0064,
      "velocity": 99,
      "chip": "ym2612"
    },
    {
      "channel": 4,
      "note": 95,
      "start": 128.9001,
      "duration": 0.0071,
      "velocity": 99,
      "chip": "ym2612"
    },
    {
      "channel": 3,
      "note": 85,
      "start": 128.9046,
      "duration": 0.0065,
      "velocity": 99,
      "chip": "ym2612"
    },
    {
      "channel": 4,
      "note": 94,
      "start": 128.9093,
      "duration": 0.0077,
      "velocity": 99,
      "chip": "ym2612"
    },
    {
      "channel": 3,
      "note": 87,
      "start": 128.9138,
      "duration": 0.008,
      "velocity": 99,
      "chip": "ym2612"
    },
    {
      "channel": 4,
      "note": 95,
      "start": 128.9197,
      "duration": 0.0095,
      "velocity": 99,
      "chip": "ym2612"
    },
    {
      "channel": 3,
      "note": 85,
      "start": 128.9258,
      "duration": 0.0077,
      "velocity": 99,
      "chip": "ym2612"
    },
    {
      "channel": 4,
      "note": 94,
      "start": 128.9318,
      "duration": 0.0087,
      "velocity": 99,
      "chip": "ym2612"
    },
    {
      "channel": 3,
      "note": 87,
      "start": 128.9378,
      "duration": 0.0068,
      "velocity": 99,
      "chip": "ym2612"
    },
    {
      "channel": 4,
      "note": 95,
      "start": 128.9428,
      "duration": 0.007,
      "velocity": 99,
      "chip": "ym2612"
    },
    {
      "channel": 3,
      "note": 85,
      "start": 128.9471,
      "duration": 0.0067,
      "velocity": 99,
      "chip": "ym2612"
    },
    {
      "channel": 4,
      "note": 94,
      "start": 128.952,
      "duration": 0.0068,
      "velocity": 99,
      "chip": "ym2612"
    },
    {
      "channel": 3,
      "note": 87,
      "start": 128.9561,
      "duration": 0.0072,
      "velocity": 99,
      "chip": "ym2612"
    },
    {
      "channel": 4,
      "note": 95,
      "start": 128.9611,
      "duration": 0.0074,
      "velocity": 99,
      "chip": "ym2612"
    },
    {
      "channel": 3,
      "note": 85,
      "start": 128.9658,
      "duration": 0.0067,
      "velocity": 99,
      "chip": "ym2612"
    },
    {
      "channel": 4,
      "note": 94,
      "start": 128.9707,
      "duration": 0.0069,
      "velocity": 99,
      "chip": "ym2612"
    },
    {
      "channel": 3,
      "note": 87,
      "start": 128.9749,
      "duration": 0.0067,
      "velocity": 99,
      "chip": "ym2612"
    },
    {
      "channel": 4,
      "note": 95,
      "start": 128.9798,
      "duration": 0.0069,
      "velocity": 99,
      "chip": "ym2612"
    },
    {
      "channel": 3,
      "note": 85,
      "start": 128.984,
      "duration": 0.0068,
      "velocity": 99,
      "chip": "ym2612"
    },
    {
      "channel": 4,
      "note": 94,
      "start": 128.9889,
      "duration": 0.007,
      "velocity": 99,
      "chip": "ym2612"
    },
    {
      "channel": 3,
      "note": 87,
      "start": 128.9932,
      "duration": 0.0067,
      "velocity": 99,
      "chip": "ym2612"
    },
    {
      "channel": 4,
      "note": 95,
      "start": 128.9981,
      "duration": 0.0085,
      "velocity": 99,
      "chip": "ym2612"
    },
    {
      "channel": 3,
      "note": 85,
      "start": 129.0027,
      "duration": 0.009,
      "velocity": 99,
      "chip": "ym2612"
    },
    {
      "channel": 4,
      "note": 94,
      "start": 129.0096,
      "duration": 0.0094,
      "velocity": 99,
      "chip": "ym2612"
    },
    {
      "channel": 3,
      "note": 87,
      "start": 129.0163,
      "duration": 0.0068,
      "velocity": 99,
      "chip": "ym2612"
    },
    {
      "channel": 4,
      "note": 95,
      "start": 129.0212,
      "duration": 0.0085,
      "velocity": 99,
      "chip": "ym2612"
    },
    {
      "channel": 3,
      "note": 85,
      "start": 129.027,
      "duration": 0.0067,
      "velocity": 99,
      "chip": "ym2612"
    },
    {
      "channel": 4,
      "note": 94,
      "start": 129.0319,
      "duration": 0.0069,
      "velocity": 99,
      "chip": "ym2612"
    },
    {
      "channel": 3,
      "note": 87,
      "start": 129.0361,
      "duration": 0.0068,
      "velocity": 99,
      "chip": "ym2612"
    },
    {
      "channel": 4,
      "note": 95,
      "start": 129.041,
      "duration": 0.0071,
      "velocity": 99,
      "chip": "ym2612"
    },
    {
      "channel": 3,
      "note": 85,
      "start": 129.0454,
      "duration": 0.0071,
      "velocity": 99,
      "chip": "ym2612"
    },
    {
      "channel": 4,
      "note": 94,
      "start": 129.0507,
      "duration": 0.0069,
      "velocity": 99,
      "chip": "ym2612"
    },
    {
      "channel": 3,
      "note": 87,
      "start": 129.0549,
      "duration": 0.0072,
      "velocity": 99,
      "chip": "ym2612"
    },
    {
      "channel": 4,
      "note": 95,
      "start": 129.0602,
      "duration": 0.007,
      "velocity": 99,
      "chip": "ym2612"
    },
    {
      "channel": 3,
      "note": 85,
      "start": 129.0645,
      "duration": 0.0068,
      "velocity": 99,
      "chip": "ym2612"
    },
    {
      "channel": 4,
      "note": 94,
      "start": 129.0695,
      "duration": 0.0069,
      "velocity": 99,
      "chip": "ym2612"
    },
    {
      "channel": 3,
      "note": 87,
      "start": 129.0737,
      "duration": 0.0067,
      "velocity": 99,
      "chip": "ym2612"
    },
    {
      "channel": 4,
      "note": 95,
      "start": 129.0785,
      "duration": 0.0073,
      "velocity": 99,
      "chip": "ym2612"
    },
    {
      "channel": 3,
      "note": 85,
      "start": 129.0828,
      "duration": 0.0079,
      "velocity": 99,
      "chip": "ym2612"
    },
    {
      "channel": 4,
      "note": 94,
      "start": 129.0883,
      "duration": 0.0094,
      "velocity": 99,
      "chip": "ym2612"
    },
    {
      "channel": 3,
      "note": 87,
      "start": 129.0942,
      "duration": 0.0076,
      "velocity": 99,
      "chip": "ym2612"
    },
    {
      "channel": 4,
      "note": 95,
      "start": 129.1,
      "duration": 0.0086,
      "velocity": 99,
      "chip": "ym2612"
    },
    {
      "channel": 3,
      "note": 85,
      "start": 129.1059,
      "duration": 0.0067,
      "velocity": 99,
      "chip": "ym2612"
    },
    {
      "channel": 4,
      "note": 94,
      "start": 129.1108,
      "duration": 0.007,
      "velocity": 99,
      "chip": "ym2612"
    },
    {
      "channel": 3,
      "note": 87,
      "start": 129.1151,
      "duration": 0.0067,
      "velocity": 99,
      "chip": "ym2612"
    },
    {
      "channel": 4,
      "note": 95,
      "start": 129.12,
      "duration": 0.0073,
      "velocity": 99,
      "chip": "ym2612"
    },
    {
      "channel": 3,
      "note": 85,
      "start": 129.1243,
      "duration": 0.0072,
      "velocity": 99,
      "chip": "ym2612"
    },
    {
      "channel": 4,
      "note": 94,
      "start": 129.1297,
      "duration": 0.0069,
      "velocity": 99,
      "chip": "ym2612"
    },
    {
      "channel": 3,
      "note": 87,
      "start": 129.1339,
      "duration": 0.0072,
      "velocity": 99,
      "chip": "ym2612"
    },
    {
      "channel": 4,
      "note": 95,
      "start": 129.1392,
      "duration": 0.007,
      "velocity": 99,
      "chip": "ym2612"
    },
    {
      "channel": 3,
      "note": 85,
      "start": 129.1435,
      "duration": 0.0067,
      "velocity": 99,
      "chip": "ym2612"
    },
    {
      "channel": 4,
      "note": 94,
      "start": 129.1484,
      "duration": 0.007,
      "velocity": 99,
      "chip": "ym2612"
    },
    {
      "channel": 3,
      "note": 87,
      "start": 129.1526,
      "duration": 0.0068,
      "velocity": 99,
      "chip": "ym2612"
    },
    {
      "channel": 4,
      "note": 95,
      "start": 129.1576,
      "duration": 0.0073,
      "velocity": 99,
      "chip": "ym2612"
    },
    {
      "channel": 3,
      "note": 85,
      "start": 129.1619,
      "duration": 0.0071,
      "velocity": 99,
      "chip": "ym2612"
    },
    {
      "channel": 4,
      "note": 94,
      "start": 129.1671,
      "duration": 0.0077,
      "velocity": 99,
      "chip": "ym2612"
    },
    {
      "channel": 3,
      "note": 87,
      "start": 129.1712,
      "duration": 0.0093,
      "velocity": 99,
      "chip": "ym2612"
    },
    {
      "channel": 4,
      "note": 95,
      "start": 129.178,
      "duration": 0.0073,
      "velocity": 99,
      "chip": "ym2612"
    },
    {
      "channel": 0,
      "note": 66,
      "start": 129.4171,
      "duration": 0.0605,
      "velocity": 97,
      "chip": "ym2612"
    },
    {
      "channel": 1,
      "note": 61,
      "start": 129.4685,
      "duration": 0.0156,
      "velocity": 97,
      "chip": "ym2612"
    },
    {
      "channel": 2,
      "note": 54,
      "start": 129.469,
      "duration": 0.0153,
      "velocity": 91,
      "chip": "ym2612"
    },
    {
      "channel": 3,
      "note": 85,
      "start": 129.4696,
      "duration": 0.015,
      "velocity": 99,
      "chip": "ym2612"
    },
    {
      "channel": 4,
      "note": 94,
      "start": 129.4744,
      "duration": 0.0161,
      "velocity": 99,
      "chip": "ym2612"
    },
    {
      "channel": 0,
      "note": 66,
      "start": 129.4797,
      "duration": 0.0162,
      "velocity": 97,
      "chip": "ym2612"
    },
    {
      "channel": 1,
      "note": 61,
      "start": 129.4869,
      "duration": 0.0152,
      "velocity": 97,
      "chip": "ym2612"
    },
    {
      "channel": 2,
      "note": 54,
      "start": 129.4874,
      "duration": 0.0149,
      "velocity": 91,
      "chip": "ym2612"
    },
    {
      "channel": 3,
      "note": 90,
      "start": 129.488,
      "duration": 0.0147,
      "velocity": 99,
      "chip": "ym2612"
    },
    {
      "channel": 4,
      "note": 97,
      "start": 129.4927,
      "duration": 0.0159,
      "velocity": 99,
      "chip": "ym2612"
    },
    {
      "channel": 0,
      "note": 66,
      "start": 129.498,
      "duration": 0.0159,
      "velocity": 97,
      "chip": "ym2612"
    },
    {
      "channel": 1,
      "note": 61,
      "start": 129.5049,
      "duration": 0.0152,
      "velocity": 97,
      "chip": "ym2612"
    },
    {
      "channel": 2,
      "note": 54,
      "start": 129.5054,
      "duration": 0.0149,
      "velocity": 91,
      "chip": "ym2612"
    },
    {
      "channel": 3,
      "note": 90,
      "start": 129.506,
      "duration": 0.0145,
      "velocity": 99,
      "chip": "ym2612"
    },
    {
      "channel": 4,
      "note": 97,
      "start": 129.5107,
      "duration": 0.0162,
      "velocity": 99,
      "chip": "ym2612"
    },
    {
      "channel": 0,
      "note": 66,
      "start": 129.5161,
      "duration": 0.0158,
      "velocity": 97,
      "chip": "ym2612"
    },
    {
      "channel": 1,
      "note": 61,
      "start": 129.5232,
      "duration": 0.0165,
      "velocity": 97,
      "chip": "ym2612"
    },
    {
      "channel": 2,
      "note": 54,
      "start": 129.5237,
      "duration": 0.0166,
      "velocity": 91,
      "chip": "ym2612"
    },
    {
      "channel": 3,
      "note": 90,
      "start": 129.5243,
      "duration": 0.0163,
      "velocity": 99,
      "chip": "ym2612"
    },
    {
      "channel": 4,
      "note": 97,
      "start": 129.529,
      "duration": 0.0183,
      "velocity": 99,
      "chip": "ym2612"
    },
    {
      "channel": 0,
      "note": 66,
      "start": 129.5343,
      "duration": 0.0982,
      "velocity": 97,
      "chip": "ym2612"
    },
    {
      "channel": 1,
      "note": 61,
      "start": 129.5435,
      "duration": 0.1405,
      "velocity": 97,
      "chip": "ym2612"
    },
    {
      "channel": 2,
      "note": 54,
      "start": 129.544,
      "duration": 0.1403,
      "velocity": 91,
      "chip": "ym2612"
    },
    {
      "channel": 3,
      "note": 90,
      "start": 129.5446,
      "duration": 0.14,
      "velocity": 99,
      "chip": "ym2612"
    },
    {
      "channel": 4,
      "note": 97,
      "start": 129.5498,
      "duration": 0.169,
      "velocity": 99,
      "chip": "ym2612"
    }
  ]
}