{
  "track_name": "28 - Mega Man 3- Title Theme",
  "duration_sec": 57.785,
  "sample_rate": 44100,
  "note_count": 914,
  "unique_pitches": 34,
  "pitch_range": 54,
  "avg_note_duration": 0.2164,
  "reconstruction_stats": {
    "notes_reconstructed": 914,
    "keyon_events": 914,
    "keyoff_events": 913,
    "orphan_keyons": 1,
    "unique_pitches": 34,
    "pitch_range": 54,
    "avg_duration_sec": 0.2164
  },
  "metadata": {
    "source": "M\\Mega Man - The Wily Wars\\28 - Mega Man 3- Title Theme.vgm"
  },
  "notes": [
    {
      "channel": 0,
      "note": 70,
      "start": 0.0,
      "duration": 0.783,
      "velocity": 111,
      "chip": "ym2612"
    },
    {
      "channel": 1,
      "note": 66,
      "start": 0.0033,
      "duration": 0.9803,
      "velocity": 87,
      "chip": "ym2612"
    },
    {
      "channel": 4,
      "note": 63,
      "start": 0.0116,
      "duration": 1.5738,
      "velocity": 101,
      "chip": "ym2612"
    },
    {
      "channel": 0,
      "note": 63,
      "start": 0.9835,
      "duration": 0.1994,
      "velocity": 111,
      "chip": "ym2612"
    },
    {
      "channel": 0,
      "note": 70,
      "start": 1.1835,
      "duration": 0.1994,
      "velocity": 111,
      "chip": "ym2612"
    },
    {
      "channel": 1,
      "note": 66,
      "start": 1.1843,
      "duration": 0.1994,
      "velocity": 87,
      "chip": "ym2612"
    },
    {
      "channel": 0,
      "note": 68,
      "start": 1.3835,
      "duration": 0.1996,
      "velocity": 111,
      "chip": "ym2612"
    },
    {
      "channel": 1,
      "note": 63,
      "start": 1.3843,
      "duration": 0.1996,
      "velocity": 87,
      "chip": "ym2612"
    },
    {
      "channel": 0,
      "note": 70,
      "start": 1.5838,
      "duration": 1.0992,
      "velocity": 111,
      "chip": "ym2612"
    },
    {
      "channel": 1,
      "note": 65,
      "start": 1.5846,
      "duration": 0.7987,
      "velocity": 87,
      "chip": "ym2612"
    },
    {
      "channel": 4,
      "note": 61,
      "start": 1.5859,
      "duration": 1.3978,
      "velocity": 101,
      "chip": "ym2612"
    },
    {
      "channel": 1,
      "note": 66,
      "start": 2.3839,
      "duration": 0.266,
      "velocity": 87,
      "chip": "ym2612"
    },
    {
      "channel": 1,
      "note": 63,
      "start": 2.6506,
      "duration": 0.266,
      "velocity": 87,
      "chip": "ym2612"
    },
    {
      "channel": 0,
      "note": 73,
      "start": 2.7839,
      "duration": 0.3992,
      "velocity": 111,
      "chip": "ym2612"
    },
    {
      "channel": 1,
      "note": 61,
      "start": 2.9173,
      "duration": 0.2667,
      "velocity": 87,
      "chip": "ym2612"
    },
    {
      "channel": 4,
      "note": 63,
      "start": 2.9844,
      "duration": 0.201,
      "velocity": 101,
      "chip": "ym2612"
    },
    {
      "channel": 0,
      "note": 72,
      "start": 3.1838,
      "duration": 0.9995,
      "velocity": 111,
      "chip": "ym2612"
    },
    {
      "channel": 1,
      "note": 60,
      "start": 3.1846,
      "duration": 0.6987,
      "velocity": 87,
      "chip": "ym2612"
    },
    {
      "channel": 4,
      "note": 56,
      "start": 3.1859,
      "duration": 0.999,
      "velocity": 101,
      "chip": "ym2612"
    },
    {
      "channel": 1,
      "note": 60,
      "start": 3.9839,
      "duration": 0.2001,
      "velocity": 87,
      "chip": "ym2612"
    },
    {
      "channel": 0,
      "note": 70,
      "start": 4.1839,
      "duration": 0.199,
      "velocity": 111,
      "chip": "ym2612"
    },
    {
      "channel": 1,
      "note": 61,
      "start": 4.1847,
      "duration": 0.199,
      "velocity": 87,
      "chip": "ym2612"
    },
    {
      "channel": 4,
      "note": 58,
      "start": 4.1856,
      "duration": 0.199,
      "velocity": 101,
      "chip": "ym2612"
    },
    {
      "channel": 0,
      "note": 68,
      "start": 4.3835,
      "duration": 0.1998,
      "velocity": 111,
      "chip": "ym2612"
    },
    {
      "channel": 1,
      "note": 63,
      "start": 4.3843,
      "duration": 0.1998,
      "velocity": 87,
      "chip": "ym2612"
    },
    {
      "channel": 0,
      "note": 71,
      "start": 4.5839,
      "duration": 1.299,
      "velocity": 111,
      "chip": "ym2612"
    },
    {
      "channel": 1,
      "note": 66,
      "start": 4.5847,
      "duration": 0.9986,
      "velocity": 87,
      "chip": "ym2612"
    },
    {
      "channel": 4,
      "note": 59,
      "start": 4.5856,
      "duration": 1.5987,
      "velocity": 101,
      "chip": "ym2612"
    },
    {
      "channel": 1,
      "note": 65,
      "start": 5.5839,
      "duration": 0.8022,
      "velocity": 88,
      "chip": "ym2612"
    },
    {
      "channel": 0,
      "note": 70,
      "start": 5.9839,
      "duration": 0.199,
      "velocity": 111,
      "chip": "ym2612"
    },
    {
      "channel": 0,
      "note": 68,
      "start": 6.1835,
      "duration": 0.1996,
      "velocity": 111,
      "chip": "ym2612"
    },
    {
      "channel": 4,
      "note": 62,
      "start": 6.1849,
      "duration": 0.2024,
      "velocity": 101,
      "chip": "ym2612"
    },
    {
      "channel": 0,
      "note": 70,
      "start": 6.3838,
      "duration": 0.1992,
      "velocity": 111,
      "chip": "ym2612"
    },
    {
      "channel": 4,
      "note": 63,
      "start": 6.3878,
      "duration": 1.5971,
      "velocity": 101,
      "chip": "ym2612"
    },
    {
      "channel": 0,
      "note": 66,
      "start": 6.5835,
      "duration": 0.1994,
      "velocity": 111,
      "chip": "ym2612"
    },
    {
      "channel": 0,
      "note": 63,
      "start": 6.7835,
      "duration": 0.3994,
      "velocity": 111,
      "chip": "ym2612"
    },
    {
      "channel": 2,
      "note": 58,
      "start": 6.7847,
      "duration": 0.3991,
      "velocity": 88,
      "chip": "ym2612"
    },
    {
      "channel": 0,
      "note": 61,
      "start": 7.1835,
      "duration": 0.1994,
      "velocity": 111,
      "chip": "ym2612"
    },
    {
      "channel": 2,
      "note": 54,
      "start": 7.1843,
      "duration": 0.399,
      "velocity": 88,
      "chip": "ym2612"
    },
    {
      "channel": 0,
      "note": 63,
      "start": 7.3835,
      "duration": 0.3994,
      "velocity": 111,
      "chip": "ym2612"
    },
    {
      "channel": 2,
      "note": 56,
      "start": 7.5839,
      "duration": 0.3999,
      "velocity": 88,
      "chip": "ym2612"
    },
    {
      "channel": 0,
      "note": 66,
      "start": 7.7835,
      "duration": 0.3994,
      "velocity": 111,
      "chip": "ym2612"
    },
    {
      "channel": 2,
      "note": 51,
      "start": 7.9844,
      "duration": 0.399,
      "velocity": 88,
      "chip": "ym2612"
    },
    {
      "channel": 4,
      "note": 61,
      "start": 7.9854,
      "duration": 1.6006,
      "velocity": 101,
      "chip": "ym2612"
    },
    {
      "channel": 0,
      "note": 63,
      "start": 8.1835,
      "duration": 0.3994,
      "velocity": 111,
      "chip": "ym2612"
    },
    {
      "channel": 2,
      "note": 58,
      "start": 8.384,
      "duration": 0.3994,
      "velocity": 88,
      "chip": "ym2612"
    },
    {
      "channel": 0,
      "note": 66,
      "start": 8.5835,
      "duration": 0.3994,
      "velocity": 111,
      "chip": "ym2612"
    },
    {
      "channel": 2,
      "note": 54,
      "start": 8.7839,
      "duration": 0.3994,
      "velocity": 88,
      "chip": "ym2612"
    },
    {
      "channel": 0,
      "note": 68,
      "start": 8.9835,
      "duration": 0.2998,
      "velocity": 111,
      "chip": "ym2612"
    },
    {
      "channel": 2,
      "note": 56,
      "start": 9.1839,
      "duration": 0.4007,
      "velocity": 88,
      "chip": "ym2612"
    },
    {
      "channel": 0,
      "note": 67,
      "start": 9.2839,
      "duration": 0.0494,
      "velocity": 111,
      "chip": "ym2612"
    },
    {
      "channel": 0,
      "note": 68,
      "start": 9.3339,
      "duration": 0.0494,
      "velocity": 111,
      "chip": "ym2612"
    },
    {
      "channel": 0,
      "note": 69,
      "start": 9.3839,
      "duration": 0.1993,
      "velocity": 111,
      "chip": "ym2612"
    },
    {
      "channel": 0,
      "note": 68,
      "start": 9.5838,
      "duration": 0.1992,
      "velocity": 111,
      "chip": "ym2612"
    },
    {
      "channel": 3,
      "note": 47,
      "start": 9.5859,
      "duration": 0.0642,
      "velocity": 88,
      "chip": "ym2612"
    },
    {
      "channel": 4,
      "note": 59,
      "start": 9.5866,
      "duration": 2.347,
      "velocity": 101,
      "chip": "ym2612"
    },
    {
      "channel": 3,
      "note": 51,
      "start": 9.6507,
      "duration": 1.538,
      "velocity": 87,
      "chip": "ym2612"
    },
    {
      "channel": 2,
      "note": 54,
      "start": 9.7173,
      "duration": 1.1663,
      "velocity": 88,
      "chip": "ym2612"
    },
    {
      "channel": 0,
      "note": 66,
      "start": 9.7835,
      "duration": 0.1994,
      "velocity": 111,
      "chip": "ym2612"
    },
    {
      "channel": 1,
      "note": 58,
      "start": 9.7843,
      "duration": 1.4013,
      "velocity": 87,
      "chip": "ym2612"
    },
    {
      "channel": 0,
      "note": 63,
      "start": 9.9835,
      "duration": 0.1994,
      "velocity": 111,
      "chip": "ym2612"
    },
    {
      "channel": 0,
      "note": 66,
      "start": 10.1835,
      "duration": 0.9996,
      "velocity": 111,
      "chip": "ym2612"
    },
    {
      "channel": 1,
      "note": 70,
      "start": 11.9838,
      "duration": 0.1492,
      "velocity": 87,
      "chip": "ym2612"
    },
    {
      "channel": 3,
      "note": 63,
      "start": 11.9852,
      "duration": 0.1485,
      "velocity": 87,
      "chip": "ym2612"
    },
    {
      "channel": 4,
      "note": 59,
      "start": 11.9859,
      "duration": 0.1989,
      "velocity": 101,
      "chip": "ym2612"
    },
    {
      "channel": 1,
      "note": 70,
      "start": 12.1837,
      "duration": 0.5493,
      "velocity": 87,
      "chip": "ym2612"
    },
    {
      "channel": 3,
      "note": 65,
      "start": 12.1847,
      "duration": 0.549,
      "velocity": 87,
      "chip": "ym2612"
    },
    {
      "channel": 4,
      "note": 61,
      "start": 12.1855,
      "duration": 0.6,
      "velocity": 101,
      "chip": "ym2612"
    },
    {
      "channel": 1,
      "note": 63,
      "start": 12.7846,
      "duration": 1.599,
      "velocity": 87,
      "chip": "ym2612"
    },
    {
      "channel": 2,
      "note": 51,
      "start": 12.7853,
      "duration": 0.3988,
      "velocity": 88,
      "chip": "ym2612"
    },
    {
      "channel": 4,
      "note": 63,
      "start": 12.7861,
      "duration": 1.599,
      "velocity": 101,
      "chip": "ym2612"
    },
    {
      "channel": 0,
      "note": 63,
      "start": 12.9835,
      "duration": 0.1994,
      "velocity": 111,
      "chip": "ym2612"
    },
    {
      "channel": 0,
      "note": 65,
      "start": 13.1835,
      "duration": 0.1994,
      "velocity": 111,
      "chip": "ym2612"
    },
    {
      "channel": 2,
      "note": 58,
      "start": 13.1847,
      "duration": 0.3994,
      "velocity": 88,
      "chip": "ym2612"
    },
    {
      "channel": 0,
      "note": 66,
      "start": 13.3835,
      "duration": 0.1994,
      "velocity": 111,
      "chip": "ym2612"
    },
    {
      "channel": 0,
      "note": 68,
      "start": 13.5835,
      "duration": 0.1994,
      "velocity": 111,
      "chip": "ym2612"
    },
    {
      "channel": 2,
      "note": 54,
      "start": 13.5847,
      "duration": 0.3994,
      "velocity": 88,
      "chip": "ym2612"
    },
    {
      "channel": 0,
      "note": 70,
      "start": 13.7835,
      "duration": 0.1994,
      "velocity": 111,
      "chip": "ym2612"
    },
    {
      "channel": 0,
      "note": 73,
      "start": 13.9835,
      "duration": 0.1994,
      "velocity": 111,
      "chip": "ym2612"
    },
    {
      "channel": 2,
      "note": 56,
      "start": 13.9847,
      "duration": 0.3996,
      "velocity": 88,
      "chip": "ym2612"
    },
    {
      "channel": 0,
      "note": 75,
      "start": 14.1835,
      "duration": 0.3994,
      "velocity": 111,
      "chip": "ym2612"
    },
    {
      "channel": 1,
      "note": 66,
      "start": 14.3842,
      "duration": 1.5994,
      "velocity": 87,
      "chip": "ym2612"
    },
    {
      "channel": 2,
      "note": 49,
      "start": 14.3849,
      "duration": 0.3988,
      "velocity": 88,
      "chip": "ym2612"
    },
    {
      "channel": 4,
      "note": 61,
      "start": 14.3857,
      "duration": 1.1485,
      "velocity": 101,
      "chip": "ym2612"
    },
    {
      "channel": 0,
      "note": 70,
      "start": 14.5835,
      "duration": 0.3994,
      "velocity": 111,
      "chip": "ym2612"
    },
    {
      "channel": 2,
      "note": 56,
      "start": 14.7843,
      "duration": 0.3994,
      "velocity": 88,
      "chip": "ym2612"
    },
    {
      "channel": 0,
      "note": 73,
      "start": 14.9835,
      "duration": 0.3994,
      "velocity": 111,
      "chip": "ym2612"
    },
    {
      "channel": 2,
      "note": 58,
      "start": 15.1843,
      "duration": 0.3994,
      "velocity": 88,
      "chip": "ym2612"
    },
    {
      "channel": 0,
      "note": 75,
      "start": 15.3835,
      "duration": 0.3498,
      "velocity": 111,
      "chip": "ym2612"
    },
    {
      "channel": 2,
      "note": 54,
      "start": 15.5843,
      "duration": 0.4,
      "velocity": 88,
      "chip": "ym2612"
    },
    {
      "channel": 4,
      "note": 61,
      "start": 15.5851,
      "duration": 0.1998,
      "velocity": 101,
      "chip": "ym2612"
    },
    {
      "channel": 0,
      "note": 79,
      "start": 15.7339,
      "duration": 0.0494,
      "velocity": 111,
      "chip": "ym2612"
    },
    {
      "channel": 0,
      "note": 80,
      "start": 15.7839,
      "duration": 0.599,
      "velocity": 111,
      "chip": "ym2612"
    },
    {
      "channel": 4,
      "note": 63,
      "start": 15.7855,
      "duration": 0.1996,
      "velocity": 101,
      "chip": "ym2612"
    },
    {
      "channel": 1,
      "note": 70,
      "start": 15.9842,
      "duration": 1.5994,
      "velocity": 87,
      "chip": "ym2612"
    },
    {
      "channel": 2,
      "note": 47,
      "start": 15.9849,
      "duration": 0.3992,
      "velocity": 88,
      "chip": "ym2612"
    },
    {
      "channel": 4,
      "note": 56,
      "start": 15.9856,
      "duration": 1.3989,
      "velocity": 101,
      "chip": "ym2612"
    },
    {
      "channel": 0,
      "note": 78,
      "start": 16.3835,
      "duration": 0.3994,
      "velocity": 111,
      "chip": "ym2612"
    },
    {
      "channel": 2,
      "note": 54,
      "start": 16.3847,
      "duration": 0.3994,
      "velocity": 88,
      "chip": "ym2612"
    },
    {
      "channel": 0,
      "note": 75,
      "start": 16.7835,
      "duration": 0.1994,
      "velocity": 111,
      "chip": "ym2612"
    },
    {
      "channel": 2,
      "note": 51,
      "start": 16.7847,
      "duration": 0.399,
      "velocity": 88,
      "chip": "ym2612"
    },
    {
      "channel": 0,
      "note": 73,
      "start": 16.9835,
      "duration": 0.3994,
      "velocity": 111,
      "chip": "ym2612"
    },
    {
      "channel": 2,
      "note": 54,
      "start": 17.1843,
      "duration": 0.4,
      "velocity": 88,
      "chip": "ym2612"
    },
    {
      "channel": 0,
      "note": 75,
      "start": 17.3835,
      "duration": 0.3994,
      "velocity": 111,
      "chip": "ym2612"
    },
    {
      "channel": 4,
      "note": 57,
      "start": 17.3851,
      "duration": 0.2,
      "velocity": 101,
      "chip": "ym2612"
    },
    {
      "channel": 1,
      "note": 61,
      "start": 17.5842,
      "duration": 0.7991,
      "velocity": 87,
      "chip": "ym2612"
    },
    {
      "channel": 2,
      "note": 56,
      "start": 17.5849,
      "duration": 0.3992,
      "velocity": 88,
      "chip": "ym2612"
    },
    {
      "channel": 4,
      "note": 58,
      "start": 17.5857,
      "duration": 1.5994,
      "velocity": 101,
      "chip": "ym2612"
    },
    {
      "channel": 0,
      "note": 74,
      "start": 17.7835,
      "duration": 0.1994,
      "velocity": 111,
      "chip": "ym2612"
    },
    {
      "channel": 0,
      "note": 70,
      "start": 17.9835,
      "duration": 0.5994,
      "velocity": 111,
      "chip": "ym2612"
    },
    {
      "channel": 2,
      "note": 54,
      "start": 17.9847,
      "duration": 0.3994,
      "velocity": 88,
      "chip": "ym2612"
    },
    {
      "channel": 1,
      "note": 62,
      "start": 18.3839,
      "duration": 0.7996,
      "velocity": 87,
      "chip": "ym2612"
    },
    {
      "channel": 2,
      "note": 50,
      "start": 18.3846,
      "duration": 0.3995,
      "velocity": 88,
      "chip": "ym2612"
    },
    {
      "channel": 0,
      "note": 74,
      "start": 18.7835,
      "duration": 0.1994,
      "velocity": 111,
      "chip": "ym2612"
    },
    {
      "channel": 2,
      "note": 53,
      "start": 18.7847,
      "duration": 0.3996,
      "velocity": 88,
      "chip": "ym2612"
    },
    {
      "channel": 0,
      "note": 75,
      "start": 18.9835,
      "duration": 0.3498,
      "velocity": 111,
      "chip": "ym2612"
    },
    {
      "channel": 1,
      "note": 63,
      "start": 19.1842,
      "duration": 1.5998,
      "velocity": 87,
      "chip": "ym2612"
    },
    {
      "channel": 2,
      "note": 51,
      "start": 19.1849,
      "duration": 0.3992,
      "velocity": 88,
      "chip": "ym2612"
    },
    {
      "channel": 4,
      "note": 63,
      "start": 19.1857,
      "duration": 1.1485,
      "velocity": 101,
      "chip": "ym2612"
    },
    {
      "channel": 0,
      "note": 81,
      "start": 19.3339,
      "duration": 0.0494,
      "velocity": 111,
      "chip": "ym2612"
    },
    {
      "channel": 0,
      "note": 82,
      "start": 19.3839,
      "duration": 0.199,
      "velocity": 111,
      "chip": "ym2612"
    },
    {
      "channel": 0,
      "note": 78,
      "start": 19.5835,
      "duration": 0.1994,
      "velocity": 111,
      "chip": "ym2612"
    },
    {
      "channel": 2,
      "note": 58,
      "start": 19.5847,
      "duration": 0.3994,
      "velocity": 88,
      "chip": "ym2612"
    },
    {
      "channel": 0,
      "note": 75,
      "start": 19.7835,
      "duration": 0.1994,
      "velocity": 111,
      "chip": "ym2612"
    },
    {
      "channel": 0,
      "note": 70,
      "start": 19.9835,
      "duration": 0.1994,
      "velocity": 111,
      "chip": "ym2612"
    },
    {
      "channel": 2,
      "note": 54,
      "start": 19.9847,
      "duration": 0.3994,
      "velocity": 88,
      "chip": "ym2612"
    },
    {
      "channel": 0,
      "note": 63,
      "start": 20.1835,
      "duration": 0.1994,
      "velocity": 111,
      "chip": "ym2612"
    },
    {
      "channel": 0,
      "note": 66,
      "start": 20.3835,
      "duration": 0.1994,
      "velocity": 111,
      "chip": "ym2612"
    },
    {
      "channel": 2,
      "note": 56,
      "start": 20.3847,
      "duration": 0.4,
      "velocity": 88,
      "chip": "ym2612"
    },
    {
      "channel": 4,
      "note": 63,
      "start": 20.3855,
      "duration": 0.199,
      "velocity": 101,
      "chip": "ym2612"
    },
    {
      "channel": 0,
      "note": 70,
      "start": 20.5835,
      "duration": 0.1996,
      "velocity": 111,
      "chip": "ym2612"
    },
    {
      "channel": 4,
      "note": 62,
      "start": 20.5851,
      "duration": 0.2004,
      "velocity": 101,
      "chip": "ym2612"
    },
    {
      "channel": 0,
      "note": 68,
      "start": 20.7838,
      "duration": 0.2992,
      "velocity": 111,
      "chip": "ym2612"
    },
    {
      "channel": 1,
      "note": 66,
      "start": 20.7846,
      "duration": 1.5994,
      "velocity": 87,
      "chip": "ym2612"
    },
    {
      "channel": 2,
      "note": 49,
      "start": 20.7853,
      "duration": 0.3985,
      "velocity": 88,
      "chip": "ym2612"
    },
    {
      "channel": 4,
      "note": 61,
      "start": 20.7861,
      "duration": 1.1481,
      "velocity": 101,
      "chip": "ym2612"
    },
    {
      "channel": 0,
      "note": 70,
      "start": 21.0835,
      "duration": 0.2994,
      "velocity": 111,
      "chip": "ym2612"
    },
    {
      "channel": 2,
      "note": 56,
      "start": 21.1843,
      "duration": 0.3998,
      "velocity": 88,
      "chip": "ym2612"
    },
    {
      "channel": 0,
      "note": 73,
      "start": 21.3835,
      "duration": 0.1994,
      "velocity": 111,
      "chip": "ym2612"
    },
    {
      "channel": 0,
      "note": 75,
      "start": 21.5835,
      "duration": 0.2994,
      "velocity": 111,
      "chip": "ym2612"
    },
    {
      "channel": 2,
      "note": 58,
      "start": 21.5847,
      "duration": 0.399,
      "velocity": 88,
      "chip": "ym2612"
    },
    {
      "channel": 0,
      "note": 78,
      "start": 21.8835,
      "duration": 0.2994,
      "velocity": 111,
      "chip": "ym2612"
    },
    {
      "channel": 2,
      "note": 54,
      "start": 21.9843,
      "duration": 0.4008,
      "velocity": 88,
      "chip": "ym2612"
    },
    {
      "channel": 4,
      "note": 61,
      "start": 21.9851,
      "duration": 0.1994,
      "velocity": 101,
      "chip": "ym2612"
    },
    {
      "channel": 0,
      "note": 80,
      "start": 22.1835,
      "duration": 0.1996,
      "velocity": 111,
      "chip": "ym2612"
    },
    {
      "channel": 4,
      "note": 60,
      "start": 22.1851,
      "duration": 0.2018,
      "velocity": 101,
      "chip": "ym2612"
    },
    {
      "channel": 0,
      "note": 82,
      "start": 22.3838,
      "duration": 0.2659,
      "velocity": 111,
      "chip": "ym2612"
    },
    {
      "channel": 1,
      "note": 70,
      "start": 22.3846,
      "duration": 3.1529,
      "velocity": 111,
      "chip": "ym2612"
    },
    {
      "channel": 2,
      "note": 63,
      "start": 22.3857,
      "duration": 0.265,
      "velocity": 88,
      "chip": "ym2612"
    },
    {
      "channel": 3,
      "note": 66,
      "start": 22.3868,
      "duration": 0.2646,
      "velocity": 87,
      "chip": "ym2612"
    },
    {
      "channel": 4,
      "note": 59,
      "start": 22.3875,
      "duration": 1.5985,
      "velocity": 101,
      "chip": "ym2612"
    },
    {
      "channel": 0,
      "note": 80,
      "start": 22.6502,
      "duration": 0.2661,
      "velocity": 111,
      "chip": "ym2612"
    },
    {
      "channel": 2,
      "note": 61,
      "start": 22.6513,
      "duration": 0.2662,
      "velocity": 88,
      "chip": "ym2612"
    },
    {
      "channel": 3,
      "note": 65,
      "start": 22.652,
      "duration": 0.2662,
      "velocity": 87,
      "chip": "ym2612"
    },
    {
      "channel": 0,
      "note": 78,
      "start": 22.9169,
      "duration": 0.2661,
      "velocity": 111,
      "chip": "ym2612"
    },
    {
      "channel": 2,
      "note": 59,
      "start": 22.918,
      "duration": 0.2661,
      "velocity": 88,
      "chip": "ym2612"
    },
    {
      "channel": 3,
      "note": 63,
      "start": 22.9187,
      "duration": 0.2661,
      "velocity": 87,
      "chip": "ym2612"
    },
    {
      "channel": 0,
      "note": 75,
      "start": 23.1835,
      "duration": 0.2661,
      "velocity": 111,
      "chip": "ym2612"
    },
    {
      "channel": 2,
      "note": 56,
      "start": 23.1847,
      "duration": 0.2661,
      "velocity": 88,
      "chip": "ym2612"
    },
    {
      "channel": 3,
      "note": 59,
      "start": 23.1854,
      "duration": 0.2661,
      "velocity": 87,
      "chip": "ym2612"
    },
    {
      "channel": 0,
      "note": 78,
      "start": 23.4502,
      "duration": 0.2661,
      "velocity": 111,
      "chip": "ym2612"
    },
    {
      "channel": 2,
      "note": 63,
      "start": 23.4513,
      "duration": 0.2661,
      "velocity": 88,
      "chip": "ym2612"
    },
    {
      "channel": 3,
      "note": 63,
      "start": 23.452,
      "duration": 0.2661,
      "velocity": 87,
      "chip": "ym2612"
    },
    {
      "channel": 0,
      "note": 77,
      "start": 23.7169,
      "duration": 0.2663,
      "velocity": 111,
      "chip": "ym2612"
    },
    {
      "channel": 2,
      "note": 59,
      "start": 23.718,
      "duration": 0.2666,
      "velocity": 88,
      "chip": "ym2612"
    },
    {
      "channel": 3,
      "note": 58,
      "start": 23.7187,
      "duration": 0.2666,
      "velocity": 87,
      "chip": "ym2612"
    },
    {
      "channel": 0,
      "note": 70,
      "start": 23.9838,
      "duration": 0.2659,
      "velocity": 111,
      "chip": "ym2612"
    },
    {
      "channel": 2,
      "note": 50,
      "start": 23.9851,
      "duration": 0.0986,
      "velocity": 88,
      "chip": "ym2612"
    },
    {
      "channel": 3,
      "note": 53,
      "start": 23.9858,
      "duration": 0.0986,
      "velocity": 87,
      "chip": "ym2612"
    },
    {
      "channel": 4,
      "note": 70,
      "start": 23.9866,
      "duration": 1.5519,
      "velocity": 101,
      "chip": "ym2612"
    },
    {
      "channel": 2,
      "note": 53,
      "start": 24.0843,
      "duration": 0.0994,
      "velocity": 88,
      "chip": "ym2612"
    },
    {
      "channel": 3,
      "note": 56,
      "start": 24.085,
      "duration": 0.0994,
      "velocity": 87,
      "chip": "ym2612"
    },
    {
      "channel": 2,
      "note": 56,
      "start": 24.1843,
      "duration": 0.0994,
      "velocity": 88,
      "chip": "ym2612"
    },
    {
      "channel": 3,
      "note": 58,
      "start": 24.185,
      "duration": 0.0995,
      "velocity": 87,
      "chip": "ym2612"
    },
    {
      "channel": 0,
      "note": 74,
      "start": 24.2502,
      "duration": 0.2661,
      "velocity": 111,
      "chip": "ym2612"
    },
    {
      "channel": 2,
      "note": 58,
      "start": 24.2843,
      "duration": 0.0994,
      "velocity": 88,
      "chip": "ym2612"
    },
    {
      "channel": 3,
      "note": 62,
      "start": 24.2851,
      "duration": 0.0994,
      "velocity": 87,
      "chip": "ym2612"
    },
    {
      "channel": 2,
      "note": 56,
      "start": 24.3843,
      "duration": 0.0994,
      "velocity": 88,
      "chip": "ym2612"
    },
    {
      "channel": 3,
      "note": 58,
      "start": 24.385,
      "duration": 0.0994,
      "velocity": 87,
      "chip": "ym2612"
    },
    {
      "channel": 2,
      "note": 58,
      "start": 24.4843,
      "duration": 0.0994,
      "velocity": 88,
      "chip": "ym2612"
    },
    {
      "channel": 3,
      "note": 62,
      "start": 24.485,
      "duration": 0.0995,
      "velocity": 87,
      "chip": "ym2612"
    },
    {
      "channel": 0,
      "note": 77,
      "start": 24.5169,
      "duration": 0.2665,
      "velocity": 111,
      "chip": "ym2612"
    },
    {
      "channel": 2,
      "note": 62,
      "start": 24.5843,
      "duration": 0.0994,
      "velocity": 88,
      "chip": "ym2612"
    },
    {
      "channel": 3,
      "note": 65,
      "start": 24.5851,
      "duration": 0.0994,
      "velocity": 87,
      "chip": "ym2612"
    },
    {
      "channel": 2,
      "note": 65,
      "start": 24.6843,
      "duration": 0.1002,
      "velocity": 88,
      "chip": "ym2612"
    },
    {
      "channel": 3,
      "note": 68,
      "start": 24.685,
      "duration": 0.1002,
      "velocity": 87,
      "chip": "ym2612"
    },
    {
      "channel": 0,
      "note": 80,
      "start": 24.7839,
      "duration": 0.2661,
      "velocity": 111,
      "chip": "ym2612"
    },
    {
      "channel": 2,
      "note": 62,
      "start": 24.7851,
      "duration": 0.0987,
      "velocity": 88,
      "chip": "ym2612"
    },
    {
      "channel": 3,
      "note": 65,
      "start": 24.7858,
      "duration": 0.0987,
      "velocity": 87,
      "chip": "ym2612"
    },
    {
      "channel": 2,
      "note": 65,
      "start": 24.8843,
      "duration": 0.0994,
      "velocity": 88,
      "chip": "ym2612"
    },
    {
      "channel": 3,
      "note": 68,
      "start": 24.8851,
      "duration": 0.0994,
      "velocity": 87,
      "chip": "ym2612"
    },
    {
      "channel": 2,
      "note": 68,
      "start": 24.9843,
      "duration": 0.0994,
      "velocity": 88,
      "chip": "ym2612"
    },
    {
      "channel": 3,
      "note": 70,
      "start": 24.985,
      "duration": 0.0995,
      "velocity": 87,
      "chip": "ym2612"
    },
    {
      "channel": 0,
      "note": 82,
      "start": 25.0506,
      "duration": 0.2661,
      "velocity": 111,
      "chip": "ym2612"
    },
    {
      "channel": 2,
      "note": 70,
      "start": 25.0843,
      "duration": 0.0994,
      "velocity": 88,
      "chip": "ym2612"
    },
    {
      "channel": 3,
      "note": 74,
      "start": 25.0851,
      "duration": 0.0994,
      "velocity": 87,
      "chip": "ym2612"
    },
    {
      "channel": 2,
      "note": 68,
      "start": 25.1843,
      "duration": 0.0994,
      "velocity": 88,
      "chip": "ym2612"
    },
    {
      "channel": 3,
      "note": 70,
      "start": 25.1851,
      "duration": 0.0994,
      "velocity": 87,
      "chip": "ym2612"
    },
    {
      "channel": 2,
      "note": 70,
      "start": 25.2843,
      "duration": 0.0994,
      "velocity": 88,
      "chip": "ym2612"
    },
    {
      "channel": 3,
      "note": 74,
      "start": 25.2851,
      "duration": 0.0994,
      "velocity": 87,
      "chip": "ym2612"
    },
    {
      "channel": 0,
      "note": 86,
      "start": 25.3173,
      "duration": 0.2178,
      "velocity": 88,
      "chip": "ym2612"
    },
    {
      "channel": 2,
      "note": 74,
      "start": 25.3843,
      "duration": 0.0994,
      "velocity": 88,
      "chip": "ym2612"
    },
    {
      "channel": 3,
      "note": 77,
      "start": 25.3851,
      "duration": 0.0994,
      "velocity": 87,
      "chip": "ym2612"
    },
    {
      "channel": 2,
      "note": 77,
      "start": 25.4844,
      "duration": 0.0534,
      "velocity": 88,
      "chip": "ym2612"
    },
    {
      "channel": 3,
      "note": 80,
      "start": 25.4851,
      "duration": 0.1047,
      "velocity": 87,
      "chip": "ym2612"
    },
    {
      "channel": 0,
      "note": 70,
      "start": 25.5869,
      "duration": 0.0461,
      "velocity": 88,
      "chip": "ym2612"
    },
    {
      "channel": 1,
      "note": 63,
      "start": 25.5882,
      "duration": 0.0451,
      "velocity": 111,
      "chip": "ym2612"
    },
    {
      "channel": 2,
      "note": 66,
      "start": 25.5893,
      "duration": 0.0444,
      "velocity": 88,
      "chip": "ym2612"
    },
    {
      "channel": 4,
      "note": 59,
      "start": 25.5929,
      "duration": 0.0411,
      "velocity": 91,
      "chip": "ym2612"
    },
    {
      "channel": 5,
      "note": 75,
      "start": 25.5936,
      "duration": 0.0893,
      "velocity": 120,
      "chip": "ym2612"
    },
    {
      "channel": 0,
      "note": 70,
      "start": 25.6861,
      "duration": 0.0469,
      "velocity": 88,
      "chip": "ym2612"
    },
    {
      "channel": 1,
      "note": 63,
      "start": 25.6868,
      "duration": 0.0464,
      "velocity": 111,
      "chip": "ym2612"
    },
    {
      "channel": 2,
      "note": 66,
      "start": 25.6876,
      "duration": 0.046,
      "velocity": 88,
      "chip": "ym2612"
    },
    {
      "channel": 4,
      "note": 59,
      "start": 25.6884,
      "duration": 0.0456,
      "velocity": 91,
      "chip": "ym2612"
    },
    {
      "channel": 5,
      "note": 75,
      "start": 25.6891,
      "duration": 0.0938,
      "velocity": 120,
      "chip": "ym2612"
    },
    {
      "channel": 0,
      "note": 68,
      "start": 25.7861,
      "duration": 0.0469,
      "velocity": 88,
      "chip": "ym2612"
    },
    {
      "channel": 1,
      "note": 63,
      "start": 25.7868,
      "duration": 0.0464,
      "velocity": 111,
      "chip": "ym2612"
    },
    {
      "channel": 2,
      "note": 66,
      "start": 25.7876,
      "duration": 0.046,
      "velocity": 88,
      "chip": "ym2612"
    },
    {
      "channel": 4,
      "note": 59,
      "start": 25.7884,
      "duration": 0.0456,
      "velocity": 91,
      "chip": "ym2612"
    },
    {
      "channel": 5,
      "note": 75,
      "start": 25.7891,
      "duration": 0.0938,
      "velocity": 120,
      "chip": "ym2612"
    },
    {
      "channel": 0,
      "note": 70,
      "start": 25.8861,
      "duration": 0.097,
      "velocity": 88,
      "chip": "ym2612"
    },
    {
      "channel": 1,
      "note": 63,
      "start": 25.8868,
      "duration": 0.0966,
      "velocity": 111,
      "chip": "ym2612"
    },
    {
      "channel": 2,
      "note": 66,
      "start": 25.8876,
      "duration": 0.0961,
      "velocity": 88,
      "chip": "ym2612"
    },
    {
      "channel": 4,
      "note": 59,
      "start": 25.8884,
      "duration": 0.0957,
      "velocity": 91,
      "chip": "ym2612"
    },
    {
      "channel": 5,
      "note": 75,
      "start": 25.8891,
      "duration": 0.1938,
      "velocity": 120,
      "chip": "ym2612"
    },
    {
      "channel": 0,
      "note": 68,
      "start": 26.0861,
      "duration": 0.097,
      "velocity": 88,
      "chip": "ym2612"
    },
    {
      "channel": 1,
      "note": 63,
      "start": 26.0868,
      "duration": 0.0966,
      "velocity": 111,
      "chip": "ym2612"
    },
    {
      "channel": 2,
      "note": 66,
      "start": 26.0876,
      "duration": 0.0961,
      "velocity": 88,
      "chip": "ym2612"
    },
    {
      "channel": 4,
      "note": 59,
      "start": 26.0884,
      "duration": 0.0957,
      "velocity": 91,
      "chip": "ym2612"
    },
    {
      "channel": 5,
      "note": 75,
      "start": 26.0891,
      "duration": 0.1938,
      "velocity": 120,
      "chip": "ym2612"
    },
    {
      "channel": 0,
      "note": 70,
      "start": 26.2861,
      "duration": 0.097,
      "velocity": 88,
      "chip": "ym2612"
    },
    {
      "channel": 1,
      "note": 63,
      "start": 26.2868,
      "duration": 0.0966,
      "velocity": 111,
      "chip": "ym2612"
    },
    {
      "channel": 2,
      "note": 66,
      "start": 26.2876,
      "duration": 0.0961,
      "velocity": 88,
      "chip": "ym2612"
    },
    {
      "channel": 4,
      "note": 59,
      "start": 26.2884,
      "duration": 0.0958,
      "velocity": 91,
      "chip": "ym2612"
    },
    {
      "channel": 5,
      "note": 75,
      "start": 26.2891,
      "duration": 0.1938,
      "velocity": 120,
      "chip": "ym2612"
    },
    {
      "channel": 0,
      "note": 68,
      "start": 26.4861,
      "duration": 0.097,
      "velocity": 88,
      "chip": "ym2612"
    },
    {
      "channel": 1,
      "note": 63,
      "start": 26.4868,
      "duration": 0.0966,
      "velocity": 111,
      "chip": "ym2612"
    },
    {
      "channel": 2,
      "note": 66,
      "start": 26.4876,
      "duration": 0.0961,
      "velocity": 88,
      "chip": "ym2612"
    },
    {
      "channel": 4,
      "note": 59,
      "start": 26.4884,
      "duration": 0.0957,
      "velocity": 91,
      "chip": "ym2612"
    },
    {
      "channel": 5,
      "note": 75,
      "start": 26.4891,
      "duration": 0.1938,
      "velocity": 120,
      "chip": "ym2612"
    },
    {
      "channel": 0,
      "note": 70,
      "start": 26.6861,
      "duration": 0.0469,
      "velocity": 88,
      "chip": "ym2612"
    },
    {
      "channel": 1,
      "note": 63,
      "start": 26.6869,
      "duration": 0.0464,
      "velocity": 111,
      "chip": "ym2612"
    },
    {
      "channel": 2,
      "note": 66,
      "start": 26.6876,
      "duration": 0.046,
      "velocity": 88,
      "chip": "ym2612"
    },
    {
      "channel": 4,
      "note": 59,
      "start": 26.6884,
      "duration": 0.0455,
      "velocity": 91,
      "chip": "ym2612"
    },
    {
      "channel": 5,
      "note": 75,
      "start": 26.6891,
      "duration": 0.0938,
      "velocity": 120,
      "chip": "ym2612"
    },
    {
      "channel": 0,
      "note": 70,
      "start": 26.7861,
      "duration": 0.097,
      "velocity": 88,
      "chip": "ym2612"
    },
    {
      "channel": 1,
      "note": 63,
      "start": 26.7868,
      "duration": 0.0966,
      "velocity": 111,
      "chip": "ym2612"
    },
    {
      "channel": 2,
      "note": 66,
      "start": 26.7876,
      "duration": 0.0961,
      "velocity": 88,
      "chip": "ym2612"
    },
    {
      "channel": 4,
      "note": 59,
      "start": 26.7884,
      "duration": 0.0957,
      "velocity": 91,
      "chip": "ym2612"
    },
    {
      "channel": 5,
      "note": 75,
      "start": 26.7891,
      "duration": 0.1938,
      "velocity": 120,
      "chip": "ym2612"
    },
    {
      "channel": 0,
      "note": 68,
      "start": 26.9861,
      "duration": 0.097,
      "velocity": 88,
      "chip": "ym2612"
    },
    {
      "channel": 1,
      "note": 63,
      "start": 26.9868,
      "duration": 0.0966,
      "velocity": 111,
      "chip": "ym2612"
    },
    {
      "channel": 2,
      "note": 66,
      "start": 26.9876,
      "duration": 0.0961,
      "velocity": 88,
      "chip": "ym2612"
    },
    {
      "channel": 4,
      "note": 59,
      "start": 26.9884,
      "duration": 0.0957,
      "velocity": 91,
      "chip": "ym2612"
    },
    {
      "channel": 5,
      "note": 75,
      "start": 26.9891,
      "duration": 0.1939,
      "velocity": 120,
      "chip": "ym2612"
    },
    {
      "channel": 0,
      "note": 70,
      "start": 27.1865,
      "duration": 0.0464,
      "velocity": 88,
      "chip": "ym2612"
    },
    {
      "channel": 1,
      "note": 63,
      "start": 27.1875,
      "duration": 0.0458,
      "velocity": 111,
      "chip": "ym2612"
    },
    {
      "channel": 2,
      "note": 65,
      "start": 27.1882,
      "duration": 0.0454,
      "velocity": 88,
      "chip": "ym2612"
    },
    {
      "channel": 4,
      "note": 61,
      "start": 27.1915,
      "duration": 0.0425,
      "velocity": 91,
      "chip": "ym2612"
    },
    {
      "channel": 5,
      "note": 75,
      "start": 27.1922,
      "duration": 0.0907,
      "velocity": 120,
      "chip": "ym2612"
    },
    {
      "channel": 0,
      "note": 70,
      "start": 27.2861,
      "duration": 0.0469,
      "velocity": 88,
      "chip": "ym2612"
    },
    {
      "channel": 1,
      "note": 63,
      "start": 27.2869,
      "duration": 0.0464,
      "velocity": 111,
      "chip": "ym2612"
    },
    {
      "channel": 2,
      "note": 65,
      "start": 27.2876,
      "duration": 0.046,
      "velocity": 88,
      "chip": "ym2612"
    },
    {
      "channel": 4,
      "note": 61,
      "start": 27.2884,
      "duration": 0.0455,
      "velocity": 91,
      "chip": "ym2612"
    },
    {
      "channel": 5,
      "note": 75,
      "start": 27.2891,
      "duration": 0.0938,
      "velocity": 120,
      "chip": "ym2612"
    },
    {
      "channel": 0,
      "note": 68,
      "start": 27.3861,
      "duration": 0.0469,
      "velocity": 88,
      "chip": "ym2612"
    },
    {
      "channel": 1,
      "note": 63,
      "start": 27.3868,
      "duration": 0.0464,
      "velocity": 111,
      "chip": "ym2612"
    },
    {
      "channel": 2,
      "note": 65,
      "start": 27.3876,
      "duration": 0.046,
      "velocity": 88,
      "chip": "ym2612"
    },
    {
      "channel": 4,
      "note": 61,
      "start": 27.3884,
      "duration": 0.0456,
      "velocity": 91,
      "chip": "ym2612"
    },
    {
      "channel": 5,
      "note": 75,
      "start": 27.3891,
      "duration": 0.0938,
      "velocity": 120,
      "chip": "ym2612"
    },
    {
      "channel": 0,
      "note": 70,
      "start": 27.4861,
      "duration": 0.097,
      "velocity": 88,
      "chip": "ym2612"
    },
    {
      "channel": 1,
      "note": 63,
      "start": 27.4868,
      "duration": 0.0966,
      "velocity": 111,
      "chip": "ym2612"
    },
    {
      "channel": 2,
      "note": 65,
      "start": 27.4876,
      "duration": 0.0961,
      "velocity": 88,
      "chip": "ym2612"
    },
    {
      "channel": 4,
      "note": 61,
      "start": 27.4884,
      "duration": 0.0958,
      "velocity": 91,
      "chip": "ym2612"
    },
    {
      "channel": 5,
      "note": 75,
      "start": 27.4891,
      "duration": 0.1938,
      "velocity": 120,
      "chip": "ym2612"
    },
    {
      "channel": 0,
      "note": 68,
      "start": 27.6861,
      "duration": 0.097,
      "velocity": 88,
      "chip": "ym2612"
    },
    {
      "channel": 1,
      "note": 63,
      "start": 27.6868,
      "duration": 0.0966,
      "velocity": 111,
      "chip": "ym2612"
    },
    {
      "channel": 2,
      "note": 65,
      "start": 27.6876,
      "duration": 0.0961,
      "velocity": 88,
      "chip": "ym2612"
    },
    {
      "channel": 4,
      "note": 61,
      "start": 27.6884,
      "duration": 0.0957,
      "velocity": 91,
      "chip": "ym2612"
    },
    {
      "channel": 5,
      "note": 75,
      "start": 27.6891,
      "duration": 0.1938,
      "velocity": 120,
      "chip": "ym2612"
    },
    {
      "channel": 0,
      "note": 70,
      "start": 27.8861,
      "duration": 0.097,
      "velocity": 88,
      "chip": "ym2612"
    },
    {
      "channel": 1,
      "note": 63,
      "start": 27.8869,
      "duration": 0.0965,
      "velocity": 111,
      "chip": "ym2612"
    },
    {
      "channel": 2,
      "note": 65,
      "start": 27.8876,
      "duration": 0.0961,
      "velocity": 88,
      "chip": "ym2612"
    },
    {
      "channel": 4,
      "note": 61,
      "start": 27.8884,
      "duration": 0.0957,
      "velocity": 91,
      "chip": "ym2612"
    },
    {
      "channel": 5,
      "note": 75,
      "start": 27.8891,
      "duration": 0.1938,
      "velocity": 120,
      "chip": "ym2612"
    },
    {
      "channel": 0,
      "note": 68,
      "start": 28.0861,
      "duration": 0.097,
      "velocity": 88,
      "chip": "ym2612"
    },
    {
      "channel": 1,
      "note": 63,
      "start": 28.0868,
      "duration": 0.0966,
      "velocity": 111,
      "chip": "ym2612"
    },
    {
      "channel": 2,
      "note": 65,
      "start": 28.0876,
      "duration": 0.0961,
      "velocity": 88,
      "chip": "ym2612"
    },
    {
      "channel": 4,
      "note": 61,
      "start": 28.0884,
      "duration": 0.0958,
      "velocity": 91,
      "chip": "ym2612"
    },
    {
      "channel": 5,
      "note": 75,
      "start": 28.0891,
      "duration": 0.1938,
      "velocity": 120,
      "chip": "ym2612"
    },
    {
      "channel": 0,
      "note": 70,
      "start": 28.2861,
      "duration": 0.0469,
      "velocity": 88,
      "chip": "ym2612"
    },
    {
      "channel": 1,
      "note": 63,
      "start": 28.2868,
      "duration": 0.0464,
      "velocity": 111,
      "chip": "ym2612"
    },
    {
      "channel": 2,
      "note": 65,
      "start": 28.2876,
      "duration": 0.046,
      "velocity": 88,
      "chip": "ym2612"
    },
    {
      "channel": 4,
      "note": 61,
      "start": 28.2884,
      "duration": 0.0456,
      "velocity": 91,
      "chip": "ym2612"
    },
    {
      "channel": 5,
      "note": 75,
      "start": 28.2891,
      "duration": 0.0938,
      "velocity": 120,
      "chip": "ym2612"
    },
    {
      "channel": 0,
      "note": 70,
      "start": 28.3861,
      "duration": 0.097,
      "velocity": 88,
      "chip": "ym2612"
    },
    {
      "channel": 1,
      "note": 63,
      "start": 28.3868,
      "duration": 0.0966,
      "velocity": 111,
      "chip": "ym2612"
    },
    {
      "channel": 2,
      "note": 65,
      "start": 28.3876,
      "duration": 0.0961,
      "velocity": 88,
      "chip": "ym2612"
    },
    {
      "channel": 4,
      "note": 61,
      "start": 28.3884,
      "duration": 0.0958,
      "velocity": 91,
      "chip": "ym2612"
    },
    {
      "channel": 5,
      "note": 75,
      "start": 28.3891,
      "duration": 0.1938,
      "velocity": 120,
      "chip": "ym2612"
    },
    {
      "channel": 0,
      "note": 68,
      "start": 28.5861,
      "duration": 0.097,
      "velocity": 88,
      "chip": "ym2612"
    },
    {
      "channel": 1,
      "note": 63,
      "start": 28.5868,
      "duration": 0.0966,
      "velocity": 111,
      "chip": "ym2612"
    },
    {
      "channel": 2,
      "note": 65,
      "start": 28.5876,
      "duration": 0.0961,
      "velocity": 88,
      "chip": "ym2612"
    },
    {
      "channel": 4,
      "note": 61,
      "start": 28.5884,
      "duration": 0.0957,
      "velocity": 91,
      "chip": "ym2612"
    },
    {
      "channel": 5,
      "note": 75,
      "start": 28.5891,
      "duration": 0.1939,
      "velocity": 120,
      "chip": "ym2612"
    },
    {
      "channel": 0,
      "note": 66,
      "start": 28.7863,
      "duration": 0.0967,
      "velocity": 88,
      "chip": "ym2612"
    },
    {
      "channel": 1,
      "note": 63,
      "start": 28.7872,
      "duration": 0.0965,
      "velocity": 111,
      "chip": "ym2612"
    },
    {
      "channel": 2,
      "note": 59,
      "start": 28.7882,
      "duration": 0.0963,
      "velocity": 88,
      "chip": "ym2612"
    },
    {
      "channel": 4,
      "note": 63,
      "start": 28.7893,
      "duration": 0.2959,
      "velocity": 91,
      "chip": "ym2612"
    },
    {
      "channel": 5,
      "note": 75,
      "start": 28.79,
      "duration": 0.1929,
      "velocity": 120,
      "chip": "ym2612"
    },
    {
      "channel": 0,
      "note": 63,
      "start": 28.8835,
      "duration": 0.102,
      "velocity": 88,
      "chip": "ym2612"
    },
    {
      "channel": 1,
      "note": 59,
      "start": 28.8843,
      "duration": 0.1019,
      "velocity": 111,
      "chip": "ym2612"
    },
    {
      "channel": 2,
      "note": 56,
      "start": 28.885,
      "duration": 0.102,
      "velocity": 88,
      "chip": "ym2612"
    },
    {
      "channel": 0,
      "note": 65,
      "start": 28.9861,
      "duration": 0.0969,
      "velocity": 88,
      "chip": "ym2612"
    },
    {
      "channel": 1,
      "note": 61,
      "start": 28.9868,
      "duration": 0.0968,
      "velocity": 111,
      "chip": "ym2612"
    },
    {
      "channel": 2,
      "note": 58,
      "start": 28.9876,
      "duration": 0.0969,
      "velocity": 88,
      "chip": "ym2612"
    },
    {
      "channel": 5,
      "note": 32,
      "start": 28.9888,
      "duration": 0.1287,
      "velocity": 114,
      "chip": "ym2612"
    },
    {
      "channel": 0,
      "note": 66,
      "start": 29.0835,
      "duration": 0.102,
      "velocity": 88,
      "chip": "ym2612"
    },
    {
      "channel": 1,
      "note": 63,
      "start": 29.0843,
      "duration": 0.1019,
      "velocity": 111,
      "chip": "ym2612"
    },
    {
      "channel": 2,
      "note": 59,
      "start": 29.0851,
      "duration": 0.102,
      "velocity": 88,
      "chip": "ym2612"
    },
    {
      "channel": 0,
      "note": 68,
      "start": 29.1861,
      "duration": 0.0969,
      "velocity": 88,
      "chip": "ym2612"
    },
    {
      "channel": 1,
      "note": 65,
      "start": 29.1868,
      "duration": 0.0968,
      "velocity": 111,
      "chip": "ym2612"
    },
    {
      "channel": 2,
      "note": 62,
      "start": 29.1876,
      "duration": 0.0969,
      "velocity": 88,
      "chip": "ym2612"
    },
    {
      "channel": 4,
      "note": 65,
      "start": 29.1884,
      "duration": 0.2969,
      "velocity": 91,
      "chip": "ym2612"
    },
    {
      "channel": 5,
      "note": 75,
      "start": 29.1891,
      "duration": 0.1938,
      "velocity": 120,
      "chip": "ym2612"
    },
    {
      "channel": 0,
      "note": 65,
      "start": 29.2835,
      "duration": 0.102,
      "velocity": 88,
      "chip": "ym2612"
    },
    {
      "channel": 1,
      "note": 62,
      "start": 29.2843,
      "duration": 0.1019,
      "velocity": 111,
      "chip": "ym2612"
    },
    {
      "channel": 2,
      "note": 58,
      "start": 29.2851,
      "duration": 0.102,
      "velocity": 88,
      "chip": "ym2612"
    },
    {
      "channel": 0,
      "note": 66,
      "start": 29.3861,
      "duration": 0.0969,
      "velocity": 88,
      "chip": "ym2612"
    },
    {
      "channel": 1,
      "note": 63,
      "start": 29.3868,
      "duration": 0.0968,
      "velocity": 111,
      "chip": "ym2612"
    },
    {
      "channel": 2,
      "note": 60,
      "start": 29.3876,
      "duration": 0.0969,
      "velocity": 88,
      "chip": "ym2612"
    },
    {
      "channel": 5,
      "note": 32,
      "start": 29.3888,
      "duration": 0.1287,
      "velocity": 114,
      "chip": "ym2612"
    },
    {
      "channel": 0,
      "note": 68,
      "start": 29.4835,
      "duration": 0.102,
      "velocity": 88,
      "chip": "ym2612"
    },
    {
      "channel": 1,
      "note": 65,
      "start": 29.4843,
      "duration": 0.1019,
      "velocity": 111,
      "chip": "ym2612"
    },
    {
      "channel": 2,
      "note": 62,
      "start": 29.4851,
      "duration": 0.102,
      "velocity": 88,
      "chip": "ym2612"
    },
    {
      "channel": 0,
      "note": 70,
      "start": 29.5861,
      "duration": 0.0969,
      "velocity": 88,
      "chip": "ym2612"
    },
    {
      "channel": 1,
      "note": 66,
      "start": 29.5868,
      "duration": 0.0968,
      "velocity": 111,
      "chip": "ym2612"
    },
    {
      "channel": 2,
      "note": 63,
      "start": 29.5876,
      "duration": 0.0969,
      "velocity": 88,
      "chip": "ym2612"
    },
    {
      "channel": 4,
      "note": 66,
      "start": 29.5884,
      "duration": 0.2969,
      "velocity": 91,
      "chip": "ym2612"
    },
    {
      "channel": 5,
      "note": 75,
      "start": 29.5891,
      "duration": 0.1938,
      "velocity": 120,
      "chip": "ym2612"
    },
    {
      "channel": 0,
      "note": 66,
      "start": 29.6835,
      "duration": 0.102,
      "velocity": 88,
      "chip": "ym2612"
    },
    {
      "channel": 1,
      "note": 63,
      "start": 29.6843,
      "duration": 0.1019,
      "velocity": 111,
      "chip": "ym2612"
    },
    {
      "channel": 2,
      "note": 59,
      "start": 29.6851,
      "duration": 0.102,
      "velocity": 88,
      "chip": "ym2612"
    },
    {
      "channel": 0,
      "note": 68,
      "start": 29.7861,
      "duration": 0.0969,
      "velocity": 88,
      "chip": "ym2612"
    },
    {
      "channel": 1,
      "note": 65,
      "start": 29.7868,
      "duration": 0.0968,
      "velocity": 111,
      "chip": "ym2612"
    },
    {
      "channel": 2,
      "note": 61,
      "start": 29.7876,
      "duration": 0.0969,
      "velocity": 88,
      "chip": "ym2612"
    },
    {
      "channel": 5,
      "note": 32,
      "start": 29.7888,
      "duration": 0.1287,
      "velocity": 114,
      "chip": "ym2612"
    },
    {
      "channel": 0,
      "note": 70,
      "start": 29.8835,
      "duration": 0.102,
      "velocity": 88,
      "chip": "ym2612"
    },
    {
      "channel": 1,
      "note": 66,
      "start": 29.8843,
      "duration": 0.102,
      "velocity": 111,
      "chip": "ym2612"
    },
    {
      "channel": 2,
      "note": 63,
      "start": 29.8851,
      "duration": 0.102,
      "velocity": 88,
      "chip": "ym2612"
    },
    {
      "channel": 0,
      "note": 73,
      "start": 29.9861,
      "duration": 0.0969,
      "velocity": 88,
      "chip": "ym2612"
    },
    {
      "channel": 1,
      "note": 70,
      "start": 29.9869,
      "duration": 0.0968,
      "velocity": 111,
      "chip": "ym2612"
    },
    {
      "channel": 2,
      "note": 65,
      "start": 29.9876,
      "duration": 0.0969,
      "velocity": 88,
      "chip": "ym2612"
    },
    {
      "channel": 4,
      "note": 68,
      "start": 29.9888,
      "duration": 0.2964,
      "velocity": 91,
      "chip": "ym2612"
    },
    {
      "channel": 5,
      "note": 75,
      "start": 29.9895,
      "duration": 0.1934,
      "velocity": 120,
      "chip": "ym2612"
    },
    {
      "channel": 0,
      "note": 71,
      "start": 30.0835,
      "duration": 0.102,
      "velocity": 88,
      "chip": "ym2612"
    },
    {
      "channel": 1,
      "note": 68,
      "start": 30.0843,
      "duration": 0.1019,
      "velocity": 111,
      "chip": "ym2612"
    },
    {
      "channel": 2,
      "note": 63,
      "start": 30.0851,
      "duration": 0.102,
      "velocity": 88,
      "chip": "ym2612"
    },
    {
      "channel": 0,
      "note": 70,
      "start": 30.1861,
      "duration": 0.0969,
      "velocity": 88,
      "chip": "ym2612"
    },
    {
      "channel": 1,
      "note": 66,
      "start": 30.1868,
      "duration": 0.0968,
      "velocity": 111,
      "chip": "ym2612"
    },
    {
      "channel": 2,
      "note": 61,
      "start": 30.1876,
      "duration": 0.0969,
      "velocity": 88,
      "chip": "ym2612"
    },
    {
      "channel": 5,
      "note": 32,
      "start": 30.1888,
      "duration": 0.1287,
      "velocity": 114,
      "chip": "ym2612"
    },
    {
      "channel": 0,
      "note": 68,
      "start": 30.2835,
      "duration": 0.1025,
      "velocity": 88,
      "chip": "ym2612"
    },
    {
      "channel": 1,
      "note": 65,
      "start": 30.2843,
      "duration": 0.103,
      "velocity": 111,
      "chip": "ym2612"
    },
    {
      "channel": 2,
      "note": 59,
      "start": 30.2851,
      "duration": 0.0506,
      "velocity": 106,
      "chip": "ym2612"
    },
    {
      "channel": 0,
      "note": 77,
      "start": 30.3867,
      "duration": 0.0992,
      "velocity": 88,
      "chip": "ym2612"
    },
    {
      "channel": 1,
      "note": 70,
      "start": 30.388,
      "duration": 0.099,
      "velocity": 111,
      "chip": "ym2612"
    },
    {
      "channel": 2,
      "note": 58,
      "start": 30.3891,
      "duration": 0.3987,
      "velocity": 106,
      "chip": "ym2612"
    },
    {
      "channel": 3,
      "note": 81,
      "start": 30.3903,
      "duration": 0.0982,
      "velocity": 127,
      "chip": "ym2612"
    },
    {
      "channel": 4,
      "note": 58,
      "start": 30.3914,
      "duration": 1.6018,
      "velocity": 91,
      "chip": "ym2612"
    },
    {
      "channel": 5,
      "note": 75,
      "start": 30.3921,
      "duration": 0.0908,
      "velocity": 120,
      "chip": "ym2612"
    },
    {
      "channel": 0,
      "note": 75,
      "start": 30.4865,
      "duration": 0.099,
      "velocity": 88,
      "chip": "ym2612"
    },
    {
      "channel": 1,
      "note": 68,
      "start": 30.4876,
      "duration": 0.0987,
      "velocity": 111,
      "chip": "ym2612"
    },
    {
      "channel": 3,
      "note": 73,
      "start": 30.4891,
      "duration": 0.0983,
      "velocity": 127,
      "chip": "ym2612"
    },
    {
      "channel": 5,
      "note": 75,
      "start": 30.4902,
      "duration": 0.0927,
      "velocity": 120,
      "chip": "ym2612"
    },
    {
      "channel": 0,
      "note": 70,
      "start": 30.5861,
      "duration": 0.1001,
      "velocity": 88,
      "chip": "ym2612"
    },
    {
      "channel": 1,
      "note": 65,
      "start": 30.5869,
      "duration": 0.1007,
      "velocity": 111,
      "chip": "ym2612"
    },
    {
      "channel": 3,
      "note": 64,
      "start": 30.5879,
      "duration": 0.1013,
      "velocity": 127,
      "chip": "ym2612"
    },
    {
      "channel": 5,
      "note": 75,
      "start": 30.589,
      "duration": 0.0939,
      "velocity": 120,
      "chip": "ym2612"
    },
    {
      "channel": 0,
      "note": 77,
      "start": 30.6867,
      "duration": 0.0992,
      "velocity": 88,
      "chip": "ym2612"
    },
    {
      "channel": 1,
      "note": 70,
      "start": 30.6882,
      "duration": 0.0988,
      "velocity": 111,
      "chip": "ym2612"
    },
    {
      "channel": 3,
      "note": 81,
      "start": 30.6898,
      "duration": 0.099,
      "velocity": 127,
      "chip": "ym2612"
    },
    {
      "channel": 5,
      "note": 75,
      "start": 30.6909,
      "duration": 0.092,
      "velocity": 120,
      "chip": "ym2612"
    },
    {
      "channel": 0,
      "note": 75,
      "start": 30.7865,
      "duration": 0.099,
      "velocity": 88,
      "chip": "ym2612"
    },
    {
      "channel": 1,
      "note": 68,
      "start": 30.7876,
      "duration": 0.0987,
      "velocity": 111,
      "chip": "ym2612"
    },
    {
      "channel": 2,
      "note": 62,
      "start": 30.7883,
      "duration": 0.3993,
      "velocity": 106,
      "chip": "ym2612"
    },
    {
      "channel": 3,
      "note": 73,
      "start": 30.7894,
      "duration": 0.098,
      "velocity": 127,
      "chip": "ym2612"
    },
    {
      "channel": 5,
      "note": 75,
      "start": 30.7905,
      "duration": 0.0924,
      "velocity": 120,
      "chip": "ym2612"
    },
    {
      "channel": 0,
      "note": 70,
      "start": 30.8861,
      "duration": 0.1001,
      "velocity": 88,
      "chip": "ym2612"
    },
    {
      "channel": 1,
      "note": 65,
      "start": 30.8869,
      "duration": 0.1007,
      "velocity": 111,
      "chip": "ym2612"
    },
    {
      "channel": 3,
      "note": 64,
      "start": 30.8879,
      "duration": 0.1013,
      "velocity": 127,
      "chip": "ym2612"
    },
    {
      "channel": 5,
      "note": 75,
      "start": 30.889,
      "duration": 0.0939,
      "velocity": 120,
      "chip": "ym2612"
    },
    {
      "channel": 0,
      "note": 77,
      "start": 30.9867,
      "duration": 0.0992,
      "velocity": 88,
      "chip": "ym2612"
    },
    {
      "channel": 1,
      "note": 70,
      "start": 30.9882,
      "duration": 0.0988,
      "velocity": 111,
      "chip": "ym2612"
    },
    {
      "channel": 3,
      "note": 81,
      "start": 30.9898,
      "duration": 0.0987,
      "velocity": 127,
      "chip": "ym2612"
    },
    {
      "channel": 5,
      "note": 75,
      "start": 30.9909,
      "duration": 0.092,
      "velocity": 120,
      "chip": "ym2612"
    },
    {
      "channel": 0,
      "note": 75,
      "start": 31.0865,
      "duration": 0.0992,
      "velocity": 88,
      "chip": "ym2612"
    },
    {
      "channel": 1,
      "note": 68,
      "start": 31.0876,
      "duration": 0.0989,
      "velocity": 111,
      "chip": "ym2612"
    },
    {
      "channel": 3,
      "note": 73,
      "start": 31.0891,
      "duration": 0.0992,
      "velocity": 127,
      "chip": "ym2612"
    },
    {
      "channel": 5,
      "note": 75,
      "start": 31.0902,
      "duration": 0.0929,
      "velocity": 120,
      "chip": "ym2612"
    },
    {
      "channel": 0,
      "note": 70,
      "start": 31.1863,
      "duration": 0.0999,
      "velocity": 88,
      "chip": "ym2612"
    },
    {
      "channel": 1,
      "note": 65,
      "start": 31.1871,
      "duration": 0.1005,
      "velocity": 111,
      "chip": "ym2612"
    },
    {
      "channel": 2,
      "note": 65,
      "start": 31.1882,
      "duration": 0.3999,
      "velocity": 106,
      "chip": "ym2612"
    },
    {
      "channel": 3,
      "note": 64,
      "start": 31.1889,
      "duration": 0.1004,
      "velocity": 127,
      "chip": "ym2612"
    },
    {
      "channel": 5,
      "note": 75,
      "start": 31.19,
      "duration": 0.0929,
      "velocity": 120,
      "chip": "ym2612"
    },
    {
      "channel": 0,
      "note": 77,
      "start": 31.2867,
      "duration": 0.0992,
      "velocity": 88,
      "chip": "ym2612"
    },
    {
      "channel": 1,
      "note": 70,
      "start": 31.2882,
      "duration": 0.0988,
      "velocity": 111,
      "chip": "ym2612"
    },
    {
      "channel": 3,
      "note": 81,
      "start": 31.2898,
      "duration": 0.0987,
      "velocity": 127,
      "chip": "ym2612"
    },
    {
      "channel": 5,
      "note": 75,
      "start": 31.2909,
      "duration": 0.092,
      "velocity": 120,
      "chip": "ym2612"
    },
    {
      "channel": 0,
      "note": 75,
      "start": 31.3865,
      "duration": 0.099,
      "velocity": 88,
      "chip": "ym2612"
    },
    {
      "channel": 1,
      "note": 68,
      "start": 31.3876,
      "duration": 0.0987,
      "velocity": 111,
      "chip": "ym2612"
    },
    {
      "channel": 3,
      "note": 73,
      "start": 31.3891,
      "duration": 0.0983,
      "velocity": 127,
      "chip": "ym2612"
    },
    {
      "channel": 5,
      "note": 75,
      "start": 31.3902,
      "duration": 0.0927,
      "velocity": 120,
      "chip": "ym2612"
    },
    {
      "channel": 0,
      "note": 70,
      "start": 31.4861,
      "duration": 0.0996,
      "velocity": 88,
      "chip": "ym2612"
    },
    {
      "channel": 1,
      "note": 65,
      "start": 31.4869,
      "duration": 0.1001,
      "velocity": 111,
      "chip": "ym2612"
    },
    {
      "channel": 3,
      "note": 64,
      "start": 31.4879,
      "duration": 0.1014,
      "velocity": 127,
      "chip": "ym2612"
    },
    {
      "channel": 5,
      "note": 75,
      "start": 31.489,
      "duration": 0.0939,
      "velocity": 120,
      "chip": "ym2612"
    },
    {
      "channel": 0,
      "note": 77,
      "start": 31.5863,
      "duration": 0.0996,
      "velocity": 88,
      "chip": "ym2612"
    },
    {
      "channel": 1,
      "note": 70,
      "start": 31.5876,
      "duration": 0.0994,
      "velocity": 111,
      "chip": "ym2612"
    },
    {
      "channel": 2,
      "note": 70,
      "start": 31.5888,
      "duration": 0.4032,
      "velocity": 111,
      "chip": "ym2612"
    },
    {
      "channel": 3,
      "note": 81,
      "start": 31.5899,
      "duration": 0.0986,
      "velocity": 127,
      "chip": "ym2612"
    },
    {
      "channel": 5,
      "note": 75,
      "start": 31.591,
      "duration": 0.0919,
      "velocity": 120,
      "chip": "ym2612"
    },
    {
      "channel": 0,
      "note": 75,
      "start": 31.6865,
      "duration": 0.099,
      "velocity": 88,
      "chip": "ym2612"
    },
    {
      "channel": 1,
      "note": 68,
      "start": 31.6876,
      "duration": 0.0987,
      "velocity": 111,
      "chip": "ym2612"
    },
    {
      "channel": 3,
      "note": 73,
      "start": 31.6891,
      "duration": 0.0983,
      "velocity": 127,
      "chip": "ym2612"
    },
    {
      "channel": 5,
      "note": 75,
      "start": 31.6902,
      "duration": 0.0927,
      "velocity": 120,
      "chip": "ym2612"
    },
    {
      "channel": 0,
      "note": 74,
      "start": 31.7861,
      "duration": 0.0994,
      "velocity": 88,
      "chip": "ym2612"
    },
    {
      "channel": 1,
      "note": 65,
      "start": 31.7869,
      "duration": 0.0993,
      "velocity": 111,
      "chip": "ym2612"
    },
    {
      "channel": 3,
      "note": 64,
      "start": 31.7879,
      "duration": 0.0994,
      "velocity": 127,
      "chip": "ym2612"
    },
    {
      "channel": 5,
      "note": 75,
      "start": 31.789,
      "duration": 0.0939,
      "velocity": 120,
      "chip": "ym2612"
    },
    {
      "channel": 0,
      "note": 70,
      "start": 31.8861,
      "duration": 0.049,
      "velocity": 106,
      "chip": "ym2612"
    },
    {
      "channel": 1,
      "note": 62,
      "start": 31.8868,
      "duration": 0.1022,
      "velocity": 87,
      "chip": "ym2612"
    },
    {
      "channel": 3,
      "note": 57,
      "start": 31.8879,
      "duration": 0.1045,
      "velocity": 127,
      "chip": "ym2612"
    },
    {
      "channel": 5,
      "note": 75,
      "start": 31.889,
      "duration": 0.0941,
      "velocity": 120,
      "chip": "ym2612"
    },
    {
      "channel": 0,
      "note": 63,
      "start": 31.9868,
      "duration": 0.1971,
      "velocity": 106,
      "chip": "ym2612"
    },
    {
      "channel": 4,
      "note": 51,
      "start": 31.9938,
      "duration": 0.0899,
      "velocity": 91,
      "chip": "ym2612"
    },
    {
      "channel": 5,
      "note": 32,
      "start": 31.9946,
      "duration": 0.1223,
      "velocity": 114,
      "chip": "ym2612"
    },
    {
      "channel": 0,
      "note": 68,
      "start": 32.1846,
      "duration": 0.2013,
      "velocity": 106,
      "chip": "ym2612"
    },
    {
      "channel": 2,
      "note": 63,
      "start": 32.1853,
      "duration": 0.2014,
      "velocity": 111,
      "chip": "ym2612"
    },
    {
      "channel": 4,
      "note": 51,
      "start": 32.1861,
      "duration": 0.0476,
      "velocity": 91,
      "chip": "ym2612"
    },
    {
      "channel": 4,
      "note": 51,
      "start": 32.2849,
      "duration": 0.0489,
      "velocity": 91,
      "chip": "ym2612"
    },
    {
      "channel": 0,
      "note": 70,
      "start": 32.3866,
      "duration": 0.1973,
      "velocity": 106,
      "chip": "ym2612"
    },
    {
      "channel": 3,
      "note": 66,
      "start": 32.3876,
      "duration": 0.3994,
      "velocity": 127,
      "chip": "ym2612"
    },
    {
      "channel": 4,
      "note": 51,
      "start": 32.3883,
      "duration": 0.0956,
      "velocity": 91,
      "chip": "ym2612"
    },
    {
      "channel": 5,
      "note": 75,
      "start": 32.3891,
      "duration": 0.296,
      "velocity": 120,
      "chip": "ym2612"
    },
    {
      "channel": 2,
      "note": 63,
      "start": 32.5848,
      "duration": 0.2019,
      "velocity": 111,
      "chip": "ym2612"
    },
    {
      "channel": 4,
      "note": 51,
      "start": 32.5858,
      "duration": 0.0479,
      "velocity": 91,
      "chip": "ym2612"
    },
    {
      "channel": 4,
      "note": 51,
      "start": 32.6849,
      "duration": 0.0488,
      "velocity": 91,
      "chip": "ym2612"
    },
    {
      "channel": 0,
      "note": 73,
      "start": 32.7866,
      "duration": 0.1973,
      "velocity": 106,
      "chip": "ym2612"
    },
    {
      "channel": 4,
      "note": 51,
      "start": 32.7879,
      "duration": 0.0957,
      "velocity": 91,
      "chip": "ym2612"
    },
    {
      "channel": 5,
      "note": 32,
      "start": 32.7888,
      "duration": 0.1282,
      "velocity": 114,
      "chip": "ym2612"
    },
    {
      "channel": 2,
      "note": 63,
      "start": 32.9848,
      "duration": 0.2019,
      "velocity": 111,
      "chip": "ym2612"
    },
    {
      "channel": 4,
      "note": 51,
      "start": 32.9856,
      "duration": 0.0478,
      "velocity": 91,
      "chip": "ym2612"
    },
    {
      "channel": 4,
      "note": 51,
      "start": 33.0846,
      "duration": 0.0489,
      "velocity": 91,
      "chip": "ym2612"
    },
    {
      "channel": 0,
      "note": 72,
      "start": 33.1866,
      "duration": 0.1973,
      "velocity": 106,
      "chip": "ym2612"
    },
    {
      "channel": 3,
      "note": 66,
      "start": 33.1876,
      "duration": 0.3998,
      "velocity": 127,
      "chip": "ym2612"
    },
    {
      "channel": 4,
      "note": 51,
      "start": 33.1883,
      "duration": 0.0956,
      "velocity": 91,
      "chip": "ym2612"
    },
    {
      "channel": 5,
      "note": 75,
      "start": 33.1891,
      "duration": 0.296,
      "velocity": 120,
      "chip": "ym2612"
    },
    {
      "channel": 2,
      "note": 63,
      "start": 33.3848,
      "duration": 0.2022,
      "velocity": 111,
      "chip": "ym2612"
    },
    {
      "channel": 4,
      "note": 51,
      "start": 33.3858,
      "duration": 0.0479,
      "velocity": 91,
      "chip": "ym2612"
    },
    {
      "channel": 4,
      "note": 51,
      "start": 33.4849,
      "duration": 0.0488,
      "velocity": 91,
      "chip": "ym2612"
    },
    {
      "channel": 0,
      "note": 68,
      "start": 33.5868,
      "duration": 0.1971,
      "velocity": 106,
      "chip": "ym2612"
    },
    {
      "channel": 4,
      "note": 51,
      "start": 33.5885,
      "duration": 0.0951,
      "velocity": 91,
      "chip": "ym2612"
    },
    {
      "channel": 5,
      "note": 32,
      "start": 33.5894,
      "duration": 0.1276,
      "velocity": 114,
      "chip": "ym2612"
    },
    {
      "channel": 0,
      "note": 73,
      "start": 33.7846,
      "duration": 0.2013,
      "velocity": 106,
      "chip": "ym2612"
    },
    {
      "channel": 2,
      "note": 63,
      "start": 33.7853,
      "duration": 0.201,
      "velocity": 111,
      "chip": "ym2612"
    },
    {
      "channel": 4,
      "note": 51,
      "start": 33.7861,
      "duration": 0.0476,
      "velocity": 91,
      "chip": "ym2612"
    },
    {
      "channel": 4,
      "note": 51,
      "start": 33.8849,
      "duration": 0.0489,
      "velocity": 91,
      "chip": "ym2612"
    },
    {
      "channel": 3,
      "note": 66,
      "start": 33.9872,
      "duration": 0.3995,
      "velocity": 127,
      "chip": "ym2612"
    },
    {
      "channel": 4,
      "note": 51,
      "start": 33.9879,
      "duration": 0.0957,
      "velocity": 91,
      "chip": "ym2612"
    },
    {
      "channel": 5,
      "note": 75,
      "start": 33.9885,
      "duration": 0.2968,
      "velocity": 120,
      "chip": "ym2612"
    },
    {
      "channel": 0,
      "note": 72,
      "start": 34.1846,
      "duration": 0.2015,
      "velocity": 106,
      "chip": "ym2612"
    },
    {
      "channel": 2,
      "note": 63,
      "start": 34.1853,
      "duration": 0.201,
      "velocity": 111,
      "chip": "ym2612"
    },
    {
      "channel": 4,
      "note": 51,
      "start": 34.1863,
      "duration": 0.0476,
      "velocity": 91,
      "chip": "ym2612"
    },
    {
      "channel": 4,
      "note": 51,
      "start": 34.2851,
      "duration": 0.0489,
      "velocity": 91,
      "chip": "ym2612"
    },
    {
      "channel": 4,
      "note": 51,
      "start": 34.3876,
      "duration": 0.0958,
      "velocity": 91,
      "chip": "ym2612"
    },
    {
      "channel": 5,
      "note": 32,
      "start": 34.3884,
      "duration": 0.1283,
      "velocity": 114,
      "chip": "ym2612"
    },
    {
      "channel": 0,
      "note": 70,
      "start": 34.5846,
      "duration": 0.2013,
      "velocity": 106,
      "chip": "ym2612"
    },
    {
      "channel": 2,
      "note": 63,
      "start": 34.5853,
      "duration": 0.201,
      "velocity": 111,
      "chip": "ym2612"
    },
    {
      "channel": 4,
      "note": 51,
      "start": 34.5861,
      "duration": 0.0476,
      "velocity": 91,
      "chip": "ym2612"
    },
    {
      "channel": 4,
      "note": 51,
      "start": 34.6849,
      "duration": 0.0489,
      "velocity": 91,
      "chip": "ym2612"
    },
    {
      "channel": 3,
      "note": 66,
      "start": 34.7872,
      "duration": 0.4007,
      "velocity": 127,
      "chip": "ym2612"
    },
    {
      "channel": 4,
      "note": 51,
      "start": 34.7879,
      "duration": 0.0957,
      "velocity": 91,
      "chip": "ym2612"
    },
    {
      "channel": 5,
      "note": 75,
      "start": 34.7885,
      "duration": 0.2968,
      "velocity": 120,
      "chip": "ym2612"
    },
    {
      "channel": 0,
      "note": 68,
      "start": 34.9846,
      "duration": 0.2018,
      "velocity": 106,
      "chip": "ym2612"
    },
    {
      "channel": 2,
      "note": 63,
      "start": 34.9853,
      "duration": 0.202,
      "velocity": 111,
      "chip": "ym2612"
    },
    {
      "channel": 4,
      "note": 51,
      "start": 34.9863,
      "duration": 0.0476,
      "velocity": 91,
      "chip": "ym2612"
    },
    {
      "channel": 4,
      "note": 51,
      "start": 35.0851,
      "duration": 0.0489,
      "velocity": 91,
      "chip": "ym2612"
    },
    {
      "channel": 0,
      "note": 63,
      "start": 35.187,
      "duration": 0.197,
      "velocity": 106,
      "chip": "ym2612"
    },
    {
      "channel": 4,
      "note": 51,
      "start": 35.189,
      "duration": 0.0946,
      "velocity": 91,
      "chip": "ym2612"
    },
    {
      "channel": 5,
      "note": 32,
      "start": 35.1898,
      "duration": 0.1271,
      "velocity": 114,
      "chip": "ym2612"
    },
    {
      "channel": 0,
      "note": 68,
      "start": 35.3846,
      "duration": 0.2013,
      "velocity": 106,
      "chip": "ym2612"
    },
    {
      "channel": 2,
      "note": 63,
      "start": 35.3853,
      "duration": 0.2014,
      "velocity": 111,
      "chip": "ym2612"
    },
    {
      "channel": 4,
      "note": 51,
      "start": 35.3861,
      "duration": 0.0476,
      "velocity": 91,
      "chip": "ym2612"
    },
    {
      "channel": 4,
      "note": 51,
      "start": 35.4849,
      "duration": 0.0489,
      "velocity": 91,
      "chip": "ym2612"
    },
    {
      "channel": 0,
      "note": 70,
      "start": 35.5866,
      "duration": 0.1973,
      "velocity": 106,
      "chip": "ym2612"
    },
    {
      "channel": 3,
      "note": 66,
      "start": 35.5876,
      "duration": 0.3994,
      "velocity": 127,
      "chip": "ym2612"
    },
    {
      "channel": 4,
      "note": 51,
      "start": 35.5883,
      "duration": 0.0956,
      "velocity": 91,
      "chip": "ym2612"
    },
    {
      "channel": 5,
      "note": 75,
      "start": 35.5891,
      "duration": 0.296,
      "velocity": 120,
      "chip": "ym2612"
    },
    {
      "channel": 2,
      "note": 63,
      "start": 35.7848,
      "duration": 0.2019,
      "velocity": 111,
      "chip": "ym2612"
    },
    {
      "channel": 4,
      "note": 51,
      "start": 35.7858,
      "duration": 0.0479,
      "velocity": 91,
      "chip": "ym2612"
    },
    {
      "channel": 4,
      "note": 51,
      "start": 35.8849,
      "duration": 0.0488,
      "velocity": 91,
      "chip": "ym2612"
    },
    {
      "channel": 0,
      "note": 73,
      "start": 35.9866,
      "duration": 0.1973,
      "velocity": 106,
      "chip": "ym2612"
    },
    {
      "channel": 4,
      "note": 51,
      "start": 35.9879,
      "duration": 0.0957,
      "velocity": 91,
      "chip": "ym2612"
    },
    {
      "channel": 5,
      "note": 32,
      "start": 35.9888,
      "duration": 0.1282,
      "velocity": 114,
      "chip": "ym2612"
    },
    {
      "channel": 2,
      "note": 63,
      "start": 36.1848,
      "duration": 0.2019,
      "velocity": 111,
      "chip": "ym2612"
    },
    {
      "channel": 4,
      "note": 51,
      "start": 36.1856,
      "duration": 0.0479,
      "velocity": 91,
      "chip": "ym2612"
    },
    {
      "channel": 4,
      "note": 51,
      "start": 36.2846,
      "duration": 0.0489,
      "velocity": 91,
      "chip": "ym2612"
    },
    {
      "channel": 0,
      "note": 72,
      "start": 36.3866,
      "duration": 0.1973,
      "velocity": 106,
      "chip": "ym2612"
    },
    {
      "channel": 3,
      "note": 66,
      "start": 36.3876,
      "duration": 0.3998,
      "velocity": 127,
      "chip": "ym2612"
    },
    {
      "channel": 4,
      "note": 51,
      "start": 36.3883,
      "duration": 0.0956,
      "velocity": 91,
      "chip": "ym2612"
    },
    {
      "channel": 5,
      "note": 75,
      "start": 36.3891,
      "duration": 0.296,
      "velocity": 120,
      "chip": "ym2612"
    },
    {
      "channel": 2,
      "note": 63,
      "start": 36.5848,
      "duration": 0.2022,
      "velocity": 111,
      "chip": "ym2612"
    },
    {
      "channel": 4,
      "note": 51,
      "start": 36.5859,
      "duration": 0.0478,
      "velocity": 91,
      "chip": "ym2612"
    },
    {
      "channel": 4,
      "note": 51,
      "start": 36.6849,
      "duration": 0.0488,
      "velocity": 91,
      "chip": "ym2612"
    },
    {
      "channel": 0,
      "note": 68,
      "start": 36.7868,
      "duration": 0.1971,
      "velocity": 106,
      "chip": "ym2612"
    },
    {
      "channel": 4,
      "note": 51,
      "start": 36.7885,
      "duration": 0.0951,
      "velocity": 91,
      "chip": "ym2612"
    },
    {
      "channel": 5,
      "note": 32,
      "start": 36.7894,
      "duration": 0.1276,
      "velocity": 114,
      "chip": "ym2612"
    },
    {
      "channel": 0,
      "note": 73,
      "start": 36.9846,
      "duration": 0.2013,
      "velocity": 106,
      "chip": "ym2612"
    },
    {
      "channel": 2,
      "note": 63,
      "start": 36.9853,
      "duration": 0.201,
      "velocity": 111,
      "chip": "ym2612"
    },
    {
      "channel": 4,
      "note": 51,
      "start": 36.9861,
      "duration": 0.0476,
      "velocity": 91,
      "chip": "ym2612"
    },
    {
      "channel": 4,
      "note": 51,
      "start": 37.0849,
      "duration": 0.0489,
      "velocity": 91,
      "chip": "ym2612"
    },
    {
      "channel": 3,
      "note": 66,
      "start": 37.1872,
      "duration": 0.3996,
      "velocity": 127,
      "chip": "ym2612"
    },
    {
      "channel": 4,
      "note": 51,
      "start": 37.1879,
      "duration": 0.0957,
      "velocity": 91,
      "chip": "ym2612"
    },
    {
      "channel": 5,
      "note": 75,
      "start": 37.1885,
      "duration": 0.2968,
      "velocity": 120,
      "chip": "ym2612"
    },
    {
      "channel": 0,
      "note": 72,
      "start": 37.3846,
      "duration": 0.2015,
      "velocity": 106,
      "chip": "ym2612"
    },
    {
      "channel": 2,
      "note": 63,
      "start": 37.3853,
      "duration": 0.2012,
      "velocity": 111,
      "chip": "ym2612"
    },
    {
      "channel": 4,
      "note": 51,
      "start": 37.3863,
      "duration": 0.0476,
      "velocity": 91,
      "chip": "ym2612"
    },
    {
      "channel": 4,
      "note": 51,
      "start": 37.4851,
      "duration": 0.0489,
      "velocity": 91,
      "chip": "ym2612"
    },
    {
      "channel": 4,
      "note": 51,
      "start": 37.5877,
      "duration": 0.0957,
      "velocity": 91,
      "chip": "ym2612"
    },
    {
      "channel": 5,
      "note": 32,
      "start": 37.5885,
      "duration": 0.1282,
      "velocity": 114,
      "chip": "ym2612"
    },
    {
      "channel": 0,
      "note": 70,
      "start": 37.7846,
      "duration": 0.2013,
      "velocity": 106,
      "chip": "ym2612"
    },
    {
      "channel": 2,
      "note": 63,
      "start": 37.7853,
      "duration": 0.2014,
      "velocity": 111,
      "chip": "ym2612"
    },
    {
      "channel": 4,
      "note": 51,
      "start": 37.7861,
      "duration": 0.0476,
      "velocity": 91,
      "chip": "ym2612"
    },
    {
      "channel": 4,
      "note": 51,
      "start": 37.8849,
      "duration": 0.0489,
      "velocity": 91,
      "chip": "ym2612"
    },
    {
      "channel": 0,
      "note": 73,
      "start": 37.9866,
      "duration": 0.1973,
      "velocity": 106,
      "chip": "ym2612"
    },
    {
      "channel": 3,
      "note": 66,
      "start": 37.9876,
      "duration": 0.4002,
      "velocity": 127,
      "chip": "ym2612"
    },
    {
      "channel": 4,
      "note": 51,
      "start": 37.9883,
      "duration": 0.0956,
      "velocity": 91,
      "chip": "ym2612"
    },
    {
      "channel": 5,
      "note": 75,
      "start": 37.9891,
      "duration": 0.2962,
      "velocity": 120,
      "chip": "ym2612"
    },
    {
      "channel": 0,
      "note": 77,
      "start": 38.1846,
      "duration": 0.6013,
      "velocity": 106,
      "chip": "ym2612"
    },
    {
      "channel": 2,
      "note": 63,
      "start": 38.1853,
      "duration": 0.2016,
      "velocity": 111,
      "chip": "ym2612"
    },
    {
      "channel": 4,
      "note": 51,
      "start": 38.1863,
      "duration": 0.0476,
      "velocity": 91,
      "chip": "ym2612"
    },
    {
      "channel": 4,
      "note": 51,
      "start": 38.2851,
      "duration": 0.0489,
      "velocity": 91,
      "chip": "ym2612"
    },
    {
      "channel": 2,
      "note": 61,
      "start": 38.3875,
      "duration": 0.0965,
      "velocity": 111,
      "chip": "ym2612"
    },
    {
      "channel": 4,
      "note": 54,
      "start": 38.3889,
      "duration": 0.0958,
      "velocity": 91,
      "chip": "ym2612"
    },
    {
      "channel": 5,
      "note": 32,
      "start": 38.3898,
      "duration": 0.1275,
      "velocity": 114,
      "chip": "ym2612"
    },
    {
      "channel": 2,
      "note": 61,
      "start": 38.4846,
      "duration": 0.0998,
      "velocity": 111,
      "chip": "ym2612"
    },
    {
      "channel": 4,
      "note": 54,
      "start": 38.5854,
      "duration": 0.0482,
      "velocity": 91,
      "chip": "ym2612"
    },
    {
      "channel": 4,
      "note": 54,
      "start": 38.6847,
      "duration": 0.0488,
      "velocity": 91,
      "chip": "ym2612"
    },
    {
      "channel": 0,
      "note": 75,
      "start": 38.7866,
      "duration": 0.1973,
      "velocity": 106,
      "chip": "ym2612"
    },
    {
      "channel": 2,
      "note": 58,
      "start": 38.7877,
      "duration": 0.0962,
      "velocity": 111,
      "chip": "ym2612"
    },
    {
      "channel": 3,
      "note": 66,
      "start": 38.7884,
      "duration": 0.3995,
      "velocity": 127,
      "chip": "ym2612"
    },
    {
      "channel": 4,
      "note": 54,
      "start": 38.7891,
      "duration": 0.0958,
      "velocity": 91,
      "chip": "ym2612"
    },
    {
      "channel": 5,
      "note": 75,
      "start": 38.7898,
      "duration": 0.2952,
      "velocity": 120,
      "chip": "ym2612"
    },
    {
      "channel": 2,
      "note": 58,
      "start": 38.8844,
      "duration": 0.1003,
      "velocity": 111,
      "chip": "ym2612"
    },
    {
      "channel": 0,
      "note": 73,
      "start": 38.9846,
      "duration": 0.2015,
      "velocity": 106,
      "chip": "ym2612"
    },
    {
      "channel": 4,
      "note": 54,
      "start": 38.9859,
      "duration": 0.0478,
      "velocity": 91,
      "chip": "ym2612"
    },
    {
      "channel": 4,
      "note": 54,
      "start": 39.0849,
      "duration": 0.0489,
      "velocity": 91,
      "chip": "ym2612"
    },
    {
      "channel": 2,
      "note": 61,
      "start": 39.1877,
      "duration": 0.0959,
      "velocity": 111,
      "chip": "ym2612"
    },
    {
      "channel": 4,
      "note": 54,
      "start": 39.1887,
      "duration": 0.0957,
      "velocity": 91,
      "chip": "ym2612"
    },
    {
      "channel": 5,
      "note": 32,
      "start": 39.1895,
      "duration": 0.1274,
      "velocity": 114,
      "chip": "ym2612"
    },
    {
      "channel": 2,
      "note": 61,
      "start": 39.2842,
      "duration": 0.1006,
      "velocity": 111,
      "chip": "ym2612"
    },
    {
      "channel": 0,
      "note": 70,
      "start": 39.3846,
      "duration": 0.2013,
      "velocity": 106,
      "chip": "ym2612"
    },
    {
      "channel": 4,
      "note": 54,
      "start": 39.3857,
      "duration": 0.0478,
      "velocity": 91,
      "chip": "ym2612"
    },
    {
      "channel": 4,
      "note": 54,
      "start": 39.4846,
      "duration": 0.0489,
      "velocity": 91,
      "chip": "ym2612"
    },
    {
      "channel": 0,
      "note": 73,
      "start": 39.5866,
      "duration": 0.1973,
      "velocity": 106,
      "chip": "ym2612"
    },
    {
      "channel": 2,
      "note": 58,
      "start": 39.5877,
      "duration": 0.0962,
      "velocity": 111,
      "chip": "ym2612"
    },
    {
      "channel": 3,
      "note": 66,
      "start": 39.5884,
      "duration": 0.3998,
      "velocity": 127,
      "chip": "ym2612"
    },
    {
      "channel": 4,
      "note": 54,
      "start": 39.5891,
      "duration": 0.0958,
      "velocity": 91,
      "chip": "ym2612"
    },
    {
      "channel": 5,
      "note": 75,
      "start": 39.5898,
      "duration": 0.2952,
      "velocity": 120,
      "chip": "ym2612"
    },
    {
      "channel": 2,
      "note": 58,
      "start": 39.6844,
      "duration": 0.1003,
      "velocity": 111,
      "chip": "ym2612"
    },
    {
      "channel": 0,
      "note": 77,
      "start": 39.7846,
      "duration": 0.6013,
      "velocity": 106,
      "chip": "ym2612"
    },
    {
      "channel": 4,
      "note": 54,
      "start": 39.7859,
      "duration": 0.0478,
      "velocity": 91,
      "chip": "ym2612"
    },
    {
      "channel": 4,
      "note": 54,
      "start": 39.8849,
      "duration": 0.0489,
      "velocity": 91,
      "chip": "ym2612"
    },
    {
      "channel": 2,
      "note": 61,
      "start": 39.9879,
      "duration": 0.0961,
      "velocity": 111,
      "chip": "ym2612"
    },
    {
      "channel": 4,
      "note": 56,
      "start": 39.9889,
      "duration": 0.0958,
      "velocity": 91,
      "chip": "ym2612"
    },
    {
      "channel": 5,
      "note": 32,
      "start": 39.9898,
      "duration": 0.1275,
      "velocity": 114,
      "chip": "ym2612"
    },
    {
      "channel": 2,
      "note": 61,
      "start": 40.0846,
      "duration": 0.0998,
      "velocity": 111,
      "chip": "ym2612"
    },
    {
      "channel": 4,
      "note": 56,
      "start": 40.1854,
      "duration": 0.0482,
      "velocity": 91,
      "chip": "ym2612"
    },
    {
      "channel": 4,
      "note": 56,
      "start": 40.2847,
      "duration": 0.0488,
      "velocity": 91,
      "chip": "ym2612"
    },
    {
      "channel": 0,
      "note": 75,
      "start": 40.3866,
      "duration": 0.1973,
      "velocity": 106,
      "chip": "ym2612"
    },
    {
      "channel": 2,
      "note": 58,
      "start": 40.3877,
      "duration": 0.0962,
      "velocity": 111,
      "chip": "ym2612"
    },
    {
      "channel": 3,
      "note": 66,
      "start": 40.3884,
      "duration": 0.3994,
      "velocity": 127,
      "chip": "ym2612"
    },
    {
      "channel": 4,
      "note": 56,
      "start": 40.3891,
      "duration": 0.0958,
      "velocity": 91,
      "chip": "ym2612"
    },
    {
      "channel": 5,
      "note": 75,
      "start": 40.3898,
      "duration": 0.2952,
      "velocity": 120,
      "chip": "ym2612"
    },
    {
      "channel": 2,
      "note": 58,
      "start": 40.4844,
      "duration": 0.1003,
      "velocity": 111,
      "chip": "ym2612"
    },
    {
      "channel": 0,
      "note": 73,
      "start": 40.5846,
      "duration": 0.2015,
      "velocity": 106,
      "chip": "ym2612"
    },
    {
      "channel": 4,
      "note": 56,
      "start": 40.5859,
      "duration": 0.0478,
      "velocity": 91,
      "chip": "ym2612"
    },
    {
      "channel": 4,
      "note": 56,
      "start": 40.6849,
      "duration": 0.0489,
      "velocity": 91,
      "chip": "ym2612"
    },
    {
      "channel": 2,
      "note": 61,
      "start": 40.7876,
      "duration": 0.096,
      "velocity": 111,
      "chip": "ym2612"
    },
    {
      "channel": 4,
      "note": 56,
      "start": 40.7886,
      "duration": 0.0957,
      "velocity": 91,
      "chip": "ym2612"
    },
    {
      "channel": 5,
      "note": 32,
      "start": 40.7895,
      "duration": 0.1275,
      "velocity": 114,
      "chip": "ym2612"
    },
    {
      "channel": 2,
      "note": 61,
      "start": 40.8842,
      "duration": 0.1006,
      "velocity": 111,
      "chip": "ym2612"
    },
    {
      "channel": 0,
      "note": 72,
      "start": 40.9846,
      "duration": 0.2013,
      "velocity": 106,
      "chip": "ym2612"
    },
    {
      "channel": 4,
      "note": 56,
      "start": 40.9857,
      "duration": 0.0478,
      "velocity": 91,
      "chip": "ym2612"
    },
    {
      "channel": 4,
      "note": 56,
      "start": 41.0846,
      "duration": 0.0489,
      "velocity": 91,
      "chip": "ym2612"
    },
    {
      "channel": 2,
      "note": 58,
      "start": 41.1872,
      "duration": 0.0964,
      "velocity": 111,
      "chip": "ym2612"
    },
    {
      "channel": 3,
      "note": 66,
      "start": 41.1879,
      "duration": 0.4003,
      "velocity": 127,
      "chip": "ym2612"
    },
    {
      "channel": 4,
      "note": 56,
      "start": 41.1886,
      "duration": 0.096,
      "velocity": 91,
      "chip": "ym2612"
    },
    {
      "channel": 5,
      "note": 75,
      "start": 41.1894,
      "duration": 0.2957,
      "velocity": 120,
      "chip": "ym2612"
    },
    {
      "channel": 2,
      "note": 58,
      "start": 41.2842,
      "duration": 0.1006,
      "velocity": 111,
      "chip": "ym2612"
    },
    {
      "channel": 0,
      "note": 73,
      "start": 41.3846,
      "duration": 0.3994,
      "velocity": 106,
      "chip": "ym2612"
    },
    {
      "channel": 4,
      "note": 56,
      "start": 41.386,
      "duration": 0.0477,
      "velocity": 91,
      "chip": "ym2612"
    },
    {
      "channel": 4,
      "note": 56,
      "start": 41.4849,
      "duration": 0.0489,
      "velocity": 91,
      "chip": "ym2612"
    },
    {
      "channel": 2,
      "note": 63,
      "start": 41.5879,
      "duration": 0.0961,
      "velocity": 111,
      "chip": "ym2612"
    },
    {
      "channel": 4,
      "note": 58,
      "start": 41.5893,
      "duration": 0.0955,
      "velocity": 91,
      "chip": "ym2612"
    },
    {
      "channel": 5,
      "note": 32,
      "start": 41.5901,
      "duration": 0.1272,
      "velocity": 114,
      "chip": "ym2612"
    },
    {
      "channel": 2,
      "note": 63,
      "start": 41.6846,
      "duration": 0.1006,
      "velocity": 111,
      "chip": "ym2612"
    },
    {
      "channel": 0,
      "note": 72,
      "start": 41.7846,
      "duration": 0.2013,
      "velocity": 106,
      "chip": "ym2612"
    },
    {
      "channel": 2,
      "note": 58,
      "start": 41.7857,
      "duration": 0.0985,
      "velocity": 111,
      "chip": "ym2612"
    },
    {
      "channel": 4,
      "note": 58,
      "start": 41.7865,
      "duration": 0.0473,
      "velocity": 91,
      "chip": "ym2612"
    },
    {
      "channel": 2,
      "note": 58,
      "start": 41.8848,
      "duration": 0.1023,
      "velocity": 111,
      "chip": "ym2612"
    },
    {
      "channel": 4,
      "note": 58,
      "start": 41.8856,
      "duration": 0.0482,
      "velocity": 91,
      "chip": "ym2612"
    },
    {
      "channel": 0,
      "note": 70,
      "start": 41.9866,
      "duration": 0.1973,
      "velocity": 106,
      "chip": "ym2612"
    },
    {
      "channel": 2,
      "note": 61,
      "start": 41.9877,
      "duration": 0.0962,
      "velocity": 111,
      "chip": "ym2612"
    },
    {
      "channel": 3,
      "note": 66,
      "start": 41.9884,
      "duration": 0.3996,
      "velocity": 127,
      "chip": "ym2612"
    },
    {
      "channel": 4,
      "note": 58,
      "start": 41.9891,
      "duration": 0.0958,
      "velocity": 91,
      "chip": "ym2612"
    },
    {
      "channel": 5,
      "note": 75,
      "start": 41.9898,
      "duration": 0.296,
      "velocity": 120,
      "chip": "ym2612"
    },
    {
      "channel": 2,
      "note": 61,
      "start": 42.0844,
      "duration": 0.1002,
      "velocity": 111,
      "chip": "ym2612"
    },
    {
      "channel": 2,
      "note": 58,
      "start": 42.1852,
      "duration": 0.0988,
      "velocity": 111,
      "chip": "ym2612"
    },
    {
      "channel": 4,
      "note": 58,
      "start": 42.1862,
      "duration": 0.0475,
      "velocity": 91,
      "chip": "ym2612"
    },
    {
      "channel": 2,
      "note": 58,
      "start": 42.2846,
      "duration": 0.1027,
      "velocity": 111,
      "chip": "ym2612"
    },
    {
      "channel": 4,
      "note": 58,
      "start": 42.2856,
      "duration": 0.0481,
      "velocity": 91,
      "chip": "ym2612"
    },
    {
      "channel": 0,
      "note": 70,
      "start": 42.3866,
      "duration": 0.1973,
      "velocity": 106,
      "chip": "ym2612"
    },
    {
      "channel": 2,
      "note": 63,
      "start": 42.3879,
      "duration": 0.096,
      "velocity": 111,
      "chip": "ym2612"
    },
    {
      "channel": 4,
      "note": 58,
      "start": 42.3889,
      "duration": 0.0957,
      "velocity": 91,
      "chip": "ym2612"
    },
    {
      "channel": 5,
      "note": 32,
      "start": 42.3897,
      "duration": 0.1275,
      "velocity": 114,
      "chip": "ym2612"
    },
    {
      "channel": 2,
      "note": 63,
      "start": 42.4844,
      "duration": 0.1002,
      "velocity": 111,
      "chip": "ym2612"
    },
    {
      "channel": 2,
      "note": 58,
      "start": 42.5852,
      "duration": 0.0988,
      "velocity": 111,
      "chip": "ym2612"
    },
    {
      "channel": 4,
      "note": 58,
      "start": 42.5859,
      "duration": 0.0475,
      "velocity": 91,
      "chip": "ym2612"
    },
    {
      "channel": 2,
      "note": 58,
      "start": 42.6846,
      "duration": 0.1025,
      "velocity": 111,
      "chip": "ym2612"
    },
    {
      "channel": 4,
      "note": 58,
      "start": 42.6854,
      "duration": 0.0481,
      "velocity": 91,
      "chip": "ym2612"
    },
    {
      "channel": 0,
      "note": 68,
      "start": 42.7865,
      "duration": 0.1974,
      "velocity": 106,
      "chip": "ym2612"
    },
    {
      "channel": 2,
      "note": 61,
      "start": 42.7877,
      "duration": 0.0962,
      "velocity": 111,
      "chip": "ym2612"
    },
    {
      "channel": 3,
      "note": 66,
      "start": 42.7884,
      "duration": 0.3998,
      "velocity": 127,
      "chip": "ym2612"
    },
    {
      "channel": 4,
      "note": 58,
      "start": 42.7891,
      "duration": 0.0958,
      "velocity": 91,
      "chip": "ym2612"
    },
    {
      "channel": 5,
      "note": 75,
      "start": 42.7898,
      "duration": 0.296,
      "velocity": 120,
      "chip": "ym2612"
    },
    {
      "channel": 2,
      "note": 61,
      "start": 42.8844,
      "duration": 0.1002,
      "velocity": 111,
      "chip": "ym2612"
    },
    {
      "channel": 2,
      "note": 58,
      "start": 42.9852,
      "duration": 0.0988,
      "velocity": 111,
      "chip": "ym2612"
    },
    {
      "channel": 4,
      "note": 58,
      "start": 42.9862,
      "duration": 0.0475,
      "velocity": 91,
      "chip": "ym2612"
    },
    {
      "channel": 2,
      "note": 58,
      "start": 43.0846,
      "duration": 0.1029,
      "velocity": 111,
      "chip": "ym2612"
    },
    {
      "channel": 4,
      "note": 58,
      "start": 43.0856,
      "duration": 0.0481,
      "velocity": 91,
      "chip": "ym2612"
    },
    {
      "channel": 0,
      "note": 68,
      "start": 43.1868,
      "duration": 0.1971,
      "velocity": 106,
      "chip": "ym2612"
    },
    {
      "channel": 2,
      "note": 63,
      "start": 43.188,
      "duration": 0.0958,
      "velocity": 111,
      "chip": "ym2612"
    },
    {
      "channel": 4,
      "note": 58,
      "start": 43.1893,
      "duration": 0.0954,
      "velocity": 91,
      "chip": "ym2612"
    },
    {
      "channel": 5,
      "note": 32,
      "start": 43.1901,
      "duration": 0.1271,
      "velocity": 114,
      "chip": "ym2612"
    },
    {
      "channel": 2,
      "note": 63,
      "start": 43.2844,
      "duration": 0.1007,
      "velocity": 111,
      "chip": "ym2612"
    },
    {
      "channel": 0,
      "note": 70,
      "start": 43.3846,
      "duration": 0.2013,
      "velocity": 106,
      "chip": "ym2612"
    },
    {
      "channel": 2,
      "note": 58,
      "start": 43.3857,
      "duration": 0.0985,
      "velocity": 111,
      "chip": "ym2612"
    },
    {
      "channel": 4,
      "note": 58,
      "start": 43.3865,
      "duration": 0.0473,
      "velocity": 91,
      "chip": "ym2612"
    },
    {
      "channel": 2,
      "note": 58,
      "start": 43.4848,
      "duration": 0.1018,
      "velocity": 111,
      "chip": "ym2612"
    },
    {
      "channel": 4,
      "note": 58,
      "start": 43.4856,
      "duration": 0.0482,
      "velocity": 91,
      "chip": "ym2612"
    },
    {
      "channel": 2,
      "note": 65,
      "start": 43.5872,
      "duration": 0.0964,
      "velocity": 111,
      "chip": "ym2612"
    },
    {
      "channel": 3,
      "note": 66,
      "start": 43.5879,
      "duration": 0.4,
      "velocity": 127,
      "chip": "ym2612"
    },
    {
      "channel": 4,
      "note": 58,
      "start": 43.5886,
      "duration": 0.096,
      "velocity": 91,
      "chip": "ym2612"
    },
    {
      "channel": 5,
      "note": 75,
      "start": 43.5894,
      "duration": 0.2967,
      "velocity": 120,
      "chip": "ym2612"
    },
    {
      "channel": 2,
      "note": 65,
      "start": 43.6842,
      "duration": 0.101,
      "velocity": 111,
      "chip": "ym2612"
    },
    {
      "channel": 0,
      "note": 70,
      "start": 43.7846,
      "duration": 0.9484,
      "velocity": 106,
      "chip": "ym2612"
    },
    {
      "channel": 2,
      "note": 58,
      "start": 43.7857,
      "duration": 0.0985,
      "velocity": 111,
      "chip": "ym2612"
    },
    {
      "channel": 4,
      "note": 58,
      "start": 43.7867,
      "duration": 0.0473,
      "velocity": 91,
      "chip": "ym2612"
    },
    {
      "channel": 2,
      "note": 58,
      "start": 43.8848,
      "duration": 0.102,
      "velocity": 111,
      "chip": "ym2612"
    },
    {
      "channel": 4,
      "note": 58,
      "start": 43.8859,
      "duration": 0.0481,
      "velocity": 91,
      "chip": "ym2612"
    },
    {
      "channel": 2,
      "note": 63,
      "start": 43.9873,
      "duration": 0.0966,
      "velocity": 111,
      "chip": "ym2612"
    },
    {
      "channel": 3,
      "note": 81,
      "start": 43.9885,
      "duration": 0.0965,
      "velocity": 127,
      "chip": "ym2612"
    },
    {
      "channel": 4,
      "note": 58,
      "start": 43.9893,
      "duration": 0.0965,
      "velocity": 91,
      "chip": "ym2612"
    },
    {
      "channel": 5,
      "note": 32,
      "start": 43.9901,
      "duration": 0.1275,
      "velocity": 114,
      "chip": "ym2612"
    },
    {
      "channel": 2,
      "note": 63,
      "start": 44.0846,
      "duration": 0.1002,
      "velocity": 111,
      "chip": "ym2612"
    },
    {
      "channel": 3,
      "note": 81,
      "start": 44.0856,
      "duration": 0.0998,
      "velocity": 127,
      "chip": "ym2612"
    },
    {
      "channel": 2,
      "note": 58,
      "start": 44.1853,
      "duration": 0.0991,
      "velocity": 111,
      "chip": "ym2612"
    },
    {
      "channel": 3,
      "note": 73,
      "start": 44.186,
      "duration": 0.0991,
      "velocity": 127,
      "chip": "ym2612"
    },
    {
      "channel": 4,
      "note": 58,
      "start": 44.1867,
      "duration": 0.0473,
      "velocity": 91,
      "chip": "ym2612"
    },
    {
      "channel": 2,
      "note": 58,
      "start": 44.285,
      "duration": 0.1018,
      "velocity": 111,
      "chip": "ym2612"
    },
    {
      "channel": 4,
      "note": 58,
      "start": 44.286,
      "duration": 0.0478,
      "velocity": 91,
      "chip": "ym2612"
    },
    {
      "channel": 2,
      "note": 61,
      "start": 44.3873,
      "duration": 0.0966,
      "velocity": 111,
      "chip": "ym2612"
    },
    {
      "channel": 3,
      "note": 81,
      "start": 44.3886,
      "duration": 0.0964,
      "velocity": 127,
      "chip": "ym2612"
    },
    {
      "channel": 4,
      "note": 58,
      "start": 44.3894,
      "duration": 0.0964,
      "velocity": 91,
      "chip": "ym2612"
    },
    {
      "channel": 5,
      "note": 75,
      "start": 44.3901,
      "duration": 0.2961,
      "velocity": 120,
      "chip": "ym2612"
    },
    {
      "channel": 2,
      "note": 61,
      "start": 44.4846,
      "duration": 0.1002,
      "velocity": 111,
      "chip": "ym2612"
    },
    {
      "channel": 3,
      "note": 81,
      "start": 44.4856,
      "duration": 0.0998,
      "velocity": 127,
      "chip": "ym2612"
    },
    {
      "channel": 2,
      "note": 58,
      "start": 44.5853,
      "duration": 0.0991,
      "velocity": 111,
      "chip": "ym2612"
    },
    {
      "channel": 3,
      "note": 73,
      "start": 44.586,
      "duration": 0.0991,
      "velocity": 127,
      "chip": "ym2612"
    },
    {
      "channel": 4,
      "note": 58,
      "start": 44.5867,
      "duration": 0.0473,
      "velocity": 91,
      "chip": "ym2612"
    },
    {
      "channel": 2,
      "note": 58,
      "start": 44.685,
      "duration": 0.1024,
      "velocity": 111,
      "chip": "ym2612"
    },
    {
      "channel": 4,
      "note": 58,
      "start": 44.686,
      "duration": 0.0477,
      "velocity": 91,
      "chip": "ym2612"
    },
    {
      "channel": 0,
      "note": 70,
      "start": 44.7869,
      "duration": 0.1971,
      "velocity": 106,
      "chip": "ym2612"
    },
    {
      "channel": 2,
      "note": 65,
      "start": 44.788,
      "duration": 1.599,
      "velocity": 111,
      "chip": "ym2612"
    },
    {
      "channel": 4,
      "note": 54,
      "start": 44.7894,
      "duration": 0.0945,
      "velocity": 91,
      "chip": "ym2612"
    },
    {
      "channel": 5,
      "note": 32,
      "start": 44.7902,
      "duration": 0.127,
      "velocity": 114,
      "chip": "ym2612"
    },
    {
      "channel": 0,
      "note": 73,
      "start": 44.9847,
      "duration": 0.2012,
      "velocity": 106,
      "chip": "ym2612"
    },
    {
      "channel": 4,
      "note": 54,
      "start": 44.9858,
      "duration": 0.0479,
      "velocity": 91,
      "chip": "ym2612"
    },
    {
      "channel": 4,
      "note": 54,
      "start": 45.0849,
      "duration": 0.0489,
      "velocity": 91,
      "chip": "ym2612"
    },
    {
      "channel": 0,
      "note": 75,
      "start": 45.1866,
      "duration": 0.1973,
      "velocity": 106,
      "chip": "ym2612"
    },
    {
      "channel": 3,
      "note": 66,
      "start": 45.1876,
      "duration": 0.3994,
      "velocity": 127,
      "chip": "ym2612"
    },
    {
      "channel": 4,
      "note": 54,
      "start": 45.1884,
      "duration": 0.0958,
      "velocity": 91,
      "chip": "ym2612"
    },
    {
      "channel": 5,
      "note": 75,
      "start": 45.1891,
      "duration": 0.2962,
      "velocity": 120,
      "chip": "ym2612"
    },
    {
      "channel": 0,
      "note": 70,
      "start": 45.3846,
      "duration": 0.2013,
      "velocity": 106,
      "chip": "ym2612"
    },
    {
      "channel": 4,
      "note": 54,
      "start": 45.3859,
      "duration": 0.048,
      "velocity": 91,
      "chip": "ym2612"
    },
    {
      "channel": 4,
      "note": 54,
      "start": 45.4851,
      "duration": 0.0489,
      "velocity": 91,
      "chip": "ym2612"
    },
    {
      "channel": 0,
      "note": 80,
      "start": 45.5866,
      "duration": 0.1973,
      "velocity": 106,
      "chip": "ym2612"
    },
    {
      "channel": 4,
      "note": 54,
      "start": 45.5879,
      "duration": 0.0959,
      "velocity": 91,
      "chip": "ym2612"
    },
    {
      "channel": 5,
      "note": 32,
      "start": 45.5888,
      "duration": 0.1284,
      "velocity": 114,
      "chip": "ym2612"
    },
    {
      "channel": 0,
      "note": 70,
      "start": 45.7846,
      "duration": 0.2013,
      "velocity": 106,
      "chip": "ym2612"
    },
    {
      "channel": 4,
      "note": 54,
      "start": 45.7857,
      "duration": 0.048,
      "velocity": 91,
      "chip": "ym2612"
    },
    {
      "channel": 4,
      "note": 54,
      "start": 45.8849,
      "duration": 0.0489,
      "velocity": 91,
      "chip": "ym2612"
    },
    {
      "channel": 0,
      "note": 78,
      "start": 45.9866,
      "duration": 0.1973,
      "velocity": 106,
      "chip": "ym2612"
    },
    {
      "channel": 3,
      "note": 66,
      "start": 45.9876,
      "duration": 0.4001,
      "velocity": 127,
      "chip": "ym2612"
    },
    {
      "channel": 4,
      "note": 54,
      "start": 45.9884,
      "duration": 0.0957,
      "velocity": 91,
      "chip": "ym2612"
    },
    {
      "channel": 5,
      "note": 75,
      "start": 45.9891,
      "duration": 0.2962,
      "velocity": 120,
      "chip": "ym2612"
    },
    {
      "channel": 0,
      "note": 70,
      "start": 46.1846,
      "duration": 0.2017,
      "velocity": 106,
      "chip": "ym2612"
    },
    {
      "channel": 4,
      "note": 54,
      "start": 46.186,
      "duration": 0.048,
      "velocity": 91,
      "chip": "ym2612"
    },
    {
      "channel": 4,
      "note": 54,
      "start": 46.2851,
      "duration": 0.0489,
      "velocity": 91,
      "chip": "ym2612"
    },
    {
      "channel": 0,
      "note": 77,
      "start": 46.3868,
      "duration": 0.1971,
      "velocity": 106,
      "chip": "ym2612"
    },
    {
      "channel": 2,
      "note": 63,
      "start": 46.3876,
      "duration": 1.5991,
      "velocity": 111,
      "chip": "ym2612"
    },
    {
      "channel": 4,
      "note": 56,
      "start": 46.3886,
      "duration": 0.0953,
      "velocity": 91,
      "chip": "ym2612"
    },
    {
      "channel": 5,
      "note": 32,
      "start": 46.3895,
      "duration": 0.1277,
      "velocity": 114,
      "chip": "ym2612"
    },
    {
      "channel": 0,
      "note": 70,
      "start": 46.5846,
      "duration": 0.2013,
      "velocity": 106,
      "chip": "ym2612"
    },
    {
      "channel": 4,
      "note": 56,
      "start": 46.5857,
      "duration": 0.048,
      "velocity": 91,
      "chip": "ym2612"
    },
    {
      "channel": 4,
      "note": 56,
      "start": 46.6849,
      "duration": 0.0489,
      "velocity": 91,
      "chip": "ym2612"
    },
    {
      "channel": 0,
      "note": 75,
      "start": 46.7866,
      "duration": 0.1973,
      "velocity": 106,
      "chip": "ym2612"
    },
    {
      "channel": 3,
      "note": 66,
      "start": 46.7876,
      "duration": 0.3994,
      "velocity": 127,
      "chip": "ym2612"
    },
    {
      "channel": 4,
      "note": 56,
      "start": 46.7884,
      "duration": 0.0957,
      "velocity": 91,
      "chip": "ym2612"
    },
    {
      "channel": 5,
      "note": 75,
      "start": 46.7891,
      "duration": 0.2962,
      "velocity": 120,
      "chip": "ym2612"
    },
    {
      "channel": 0,
      "note": 70,
      "start": 46.9846,
      "duration": 0.2013,
      "velocity": 106,
      "chip": "ym2612"
    },
    {
      "channel": 4,
      "note": 56,
      "start": 46.9859,
      "duration": 0.048,
      "velocity": 91,
      "chip": "ym2612"
    },
    {
      "channel": 4,
      "note": 56,
      "start": 47.0851,
      "duration": 0.0489,
      "velocity": 91,
      "chip": "ym2612"
    },
    {
      "channel": 0,
      "note": 73,
      "start": 47.1866,
      "duration": 0.1974,
      "velocity": 106,
      "chip": "ym2612"
    },
    {
      "channel": 4,
      "note": 56,
      "start": 47.1879,
      "duration": 0.0959,
      "velocity": 91,
      "chip": "ym2612"
    },
    {
      "channel": 5,
      "note": 32,
      "start": 47.1888,
      "duration": 0.1284,
      "velocity": 114,
      "chip": "ym2612"
    },
    {
      "channel": 0,
      "note": 75,
      "start": 47.3847,
      "duration": 0.2012,
      "velocity": 106,
      "chip": "ym2612"
    },
    {
      "channel": 4,
      "note": 56,
      "start": 47.3858,
      "duration": 0.0479,
      "velocity": 91,
      "chip": "ym2612"
    },
    {
      "channel": 4,
      "note": 56,
      "start": 47.4849,
      "duration": 0.0489,
      "velocity": 91,
      "chip": "ym2612"
    },
    {
      "channel": 3,
      "note": 66,
      "start": 47.5872,
      "duration": 0.4004,
      "velocity": 127,
      "chip": "ym2612"
    },
    {
      "channel": 4,
      "note": 56,
      "start": 47.5879,
      "duration": 0.096,
      "velocity": 91,
      "chip": "ym2612"
    },
    {
      "channel": 5,
      "note": 75,
      "start": 47.5885,
      "duration": 0.2968,
      "velocity": 120,
      "chip": "ym2612"
    },
    {
      "channel": 0,
      "note": 77,
      "start": 47.7849,
      "duration": 0.3993,
      "velocity": 106,
      "chip": "ym2612"
    },
    {
      "channel": 4,
      "note": 56,
      "start": 47.7864,
      "duration": 0.0476,
      "velocity": 91,
      "chip": "ym2612"
    },
    {
      "channel": 4,
      "note": 56,
      "start": 47.8851,
      "duration": 0.0489,
      "velocity": 91,
      "chip": "ym2612"
    },
    {
      "channel": 2,
      "note": 65,
      "start": 47.9873,
      "duration": 2.3991,
      "velocity": 111,
      "chip": "ym2612"
    },
    {
      "channel": 4,
      "note": 58,
      "start": 47.9887,
      "duration": 0.0954,
      "velocity": 91,
      "chip": "ym2612"
    },
    {
      "channel": 5,
      "note": 32,
      "start": 47.9895,
      "duration": 0.1278,
      "velocity": 114,
      "chip": "ym2612"
    },
    {
      "channel": 0,
      "note": 73,
      "start": 48.1849,
      "duration": 0.201,
      "velocity": 106,
      "chip": "ym2612"
    },
    {
      "channel": 4,
      "note": 58,
      "start": 48.1861,
      "duration": 0.0476,
      "velocity": 91,
      "chip": "ym2612"
    },
    {
      "channel": 4,
      "note": 58,
      "start": 48.2849,
      "duration": 0.0489,
      "velocity": 91,
      "chip": "ym2612"
    },
    {
      "channel": 0,
      "note": 70,
      "start": 48.3866,
      "duration": 0.1973,
      "velocity": 106,
      "chip": "ym2612"
    },
    {
      "channel": 3,
      "note": 66,
      "start": 48.3876,
      "duration": 0.3994,
      "velocity": 127,
      "chip": "ym2612"
    },
    {
      "channel": 4,
      "note": 58,
      "start": 48.3884,
      "duration": 0.0957,
      "velocity": 91,
      "chip": "ym2612"
    },
    {
      "channel": 5,
      "note": 75,
      "start": 48.3891,
      "duration": 0.2962,
      "velocity": 120,
      "chip": "ym2612"
    },
    {
      "channel": 0,
      "note": 68,
      "start": 48.5846,
      "duration": 0.2013,
      "velocity": 106,
      "chip": "ym2612"
    },
    {
      "channel": 4,
      "note": 58,
      "start": 48.5859,
      "duration": 0.048,
      "velocity": 91,
      "chip": "ym2612"
    },
    {
      "channel": 4,
      "note": 58,
      "start": 48.6851,
      "duration": 0.0489,
      "velocity": 91,
      "chip": "ym2612"
    },
    {
      "channel": 0,
      "note": 70,
      "start": 48.7866,
      "duration": 0.1973,
      "velocity": 106,
      "chip": "ym2612"
    },
    {
      "channel": 4,
      "note": 58,
      "start": 48.788,
      "duration": 0.0959,
      "velocity": 91,
      "chip": "ym2612"
    },
    {
      "channel": 5,
      "note": 32,
      "start": 48.7888,
      "duration": 0.1284,
      "velocity": 114,
      "chip": "ym2612"
    },
    {
      "channel": 0,
      "note": 73,
      "start": 48.9846,
      "duration": 0.2013,
      "velocity": 106,
      "chip": "ym2612"
    },
    {
      "channel": 4,
      "note": 58,
      "start": 48.9857,
      "duration": 0.048,
      "velocity": 91,
      "chip": "ym2612"
    },
    {
      "channel": 4,
      "note": 58,
      "start": 49.0849,
      "duration": 0.0489,
      "velocity": 91,
      "chip": "ym2612"
    },
    {
      "channel": 3,
      "note": 66,
      "start": 49.1872,
      "duration": 0.4004,
      "velocity": 127,
      "chip": "ym2612"
    },
    {
      "channel": 4,
      "note": 58,
      "start": 49.1879,
      "duration": 0.096,
      "velocity": 91,
      "chip": "ym2612"
    },
    {
      "channel": 5,
      "note": 75,
      "start": 49.1885,
      "duration": 0.2968,
      "velocity": 120,
      "chip": "ym2612"
    },
    {
      "channel": 0,
      "note": 77,
      "start": 49.3846,
      "duration": 0.2017,
      "velocity": 106,
      "chip": "ym2612"
    },
    {
      "channel": 4,
      "note": 58,
      "start": 49.3859,
      "duration": 0.048,
      "velocity": 91,
      "chip": "ym2612"
    },
    {
      "channel": 4,
      "note": 58,
      "start": 49.4851,
      "duration": 0.0489,
      "velocity": 91,
      "chip": "ym2612"
    },
    {
      "channel": 0,
      "note": 73,
      "start": 49.5869,
      "duration": 0.197,
      "velocity": 106,
      "chip": "ym2612"
    },
    {
      "channel": 4,
      "note": 58,
      "start": 49.5885,
      "duration": 0.0953,
      "velocity": 91,
      "chip": "ym2612"
    },
    {
      "channel": 5,
      "note": 32,
      "start": 49.5894,
      "duration": 0.1278,
      "velocity": 114,
      "chip": "ym2612"
    },
    {
      "channel": 0,
      "note": 70,
      "start": 49.7846,
      "duration": 0.2013,
      "velocity": 106,
      "chip": "ym2612"
    },
    {
      "channel": 4,
      "note": 58,
      "start": 49.7858,
      "duration": 0.048,
      "velocity": 91,
      "chip": "ym2612"
    },
    {
      "channel": 4,
      "note": 58,
      "start": 49.8849,
      "duration": 0.0489,
      "velocity": 91,
      "chip": "ym2612"
    },
    {
      "channel": 0,
      "note": 68,
      "start": 49.9865,
      "duration": 0.1974,
      "velocity": 106,
      "chip": "ym2612"
    },
    {
      "channel": 3,
      "note": 66,
      "start": 49.9876,
      "duration": 0.3995,
      "velocity": 127,
      "chip": "ym2612"
    },
    {
      "channel": 4,
      "note": 58,
      "start": 49.9884,
      "duration": 0.0958,
      "velocity": 91,
      "chip": "ym2612"
    },
    {
      "channel": 5,
      "note": 75,
      "start": 49.9891,
      "duration": 0.2962,
      "velocity": 120,
      "chip": "ym2612"
    },
    {
      "channel": 0,
      "note": 70,
      "start": 50.1846,
      "duration": 0.3651,
      "velocity": 106,
      "chip": "ym2612"
    },
    {
      "channel": 4,
      "note": 58,
      "start": 50.186,
      "duration": 0.048,
      "velocity": 91,
      "chip": "ym2612"
    },
    {
      "channel": 4,
      "note": 58,
      "start": 50.2851,
      "duration": 0.0489,
      "velocity": 91,
      "chip": "ym2612"
    },
    {
      "channel": 2,
      "note": 63,
      "start": 50.387,
      "duration": 0.7998,
      "velocity": 111,
      "chip": "ym2612"
    },
    {
      "channel": 4,
      "note": 56,
      "start": 50.388,
      "duration": 0.0961,
      "velocity": 91,
      "chip": "ym2612"
    },
    {
      "channel": 5,
      "note": 32,
      "start": 50.3888,
      "duration": 0.1285,
      "velocity": 114,
      "chip": "ym2612"
    },
    {
      "channel": 0,
      "note": 70,
      "start": 50.5846,
      "duration": 0.2013,
      "velocity": 106,
      "chip": "ym2612"
    },
    {
      "channel": 4,
      "note": 56,
      "start": 50.5858,
      "duration": 0.048,
      "velocity": 91,
      "chip": "ym2612"
    },
    {
      "channel": 4,
      "note": 56,
      "start": 50.6849,
      "duration": 0.0489,
      "velocity": 91,
      "chip": "ym2612"
    },
    {
      "channel": 3,
      "note": 66,
      "start": 50.7872,
      "duration": 0.4004,
      "velocity": 127,
      "chip": "ym2612"
    },
    {
      "channel": 4,
      "note": 56,
      "start": 50.7879,
      "duration": 0.096,
      "velocity": 91,
      "chip": "ym2612"
    },
    {
      "channel": 5,
      "note": 75,
      "start": 50.7885,
      "duration": 0.2968,
      "velocity": 120,
      "chip": "ym2612"
    },
    {
      "channel": 0,
      "note": 70,
      "start": 50.9846,
      "duration": 0.3994,
      "velocity": 106,
      "chip": "ym2612"
    },
    {
      "channel": 4,
      "note": 56,
      "start": 50.986,
      "duration": 0.048,
      "velocity": 91,
      "chip": "ym2612"
    },
    {
      "channel": 4,
      "note": 56,
      "start": 51.0851,
      "duration": 0.0489,
      "velocity": 91,
      "chip": "ym2612"
    },
    {
      "channel": 2,
      "note": 61,
      "start": 51.1873,
      "duration": 1.5998,
      "velocity": 111,
      "chip": "ym2612"
    },
    {
      "channel": 4,
      "note": 54,
      "start": 51.1886,
      "duration": 0.0954,
      "velocity": 91,
      "chip": "ym2612"
    },
    {
      "channel": 5,
      "note": 32,
      "start": 51.1895,
      "duration": 0.1278,
      "velocity": 114,
      "chip": "ym2612"
    },
    {
      "channel": 0,
      "note": 73,
      "start": 51.3847,
      "duration": 0.2012,
      "velocity": 106,
      "chip": "ym2612"
    },
    {
      "channel": 4,
      "note": 54,
      "start": 51.3858,
      "duration": 0.0479,
      "velocity": 91,
      "chip": "ym2612"
    },
    {
      "channel": 4,
      "note": 54,
      "start": 51.4849,
      "duration": 0.0489,
      "velocity": 91,
      "chip": "ym2612"
    },
    {
      "channel": 0,
      "note": 75,
      "start": 51.5866,
      "duration": 0.1973,
      "velocity": 106,
      "chip": "ym2612"
    },
    {
      "channel": 3,
      "note": 66,
      "start": 51.5876,
      "duration": 0.3994,
      "velocity": 127,
      "chip": "ym2612"
    },
    {
      "channel": 4,
      "note": 54,
      "start": 51.5884,
      "duration": 0.0957,
      "velocity": 91,
      "chip": "ym2612"
    },
    {
      "channel": 5,
      "note": 75,
      "start": 51.5891,
      "duration": 0.2962,
      "velocity": 120,
      "chip": "ym2612"
    },
    {
      "channel": 0,
      "note": 70,
      "start": 51.7846,
      "duration": 0.2013,
      "velocity": 106,
      "chip": "ym2612"
    },
    {
      "channel": 4,
      "note": 54,
      "start": 51.7859,
      "duration": 0.048,
      "velocity": 91,
      "chip": "ym2612"
    },
    {
      "channel": 4,
      "note": 54,
      "start": 51.8851,
      "duration": 0.0489,
      "velocity": 91,
      "chip": "ym2612"
    },
    {
      "channel": 0,
      "note": 80,
      "start": 51.9866,
      "duration": 0.1973,
      "velocity": 106,
      "chip": "ym2612"
    },
    {
      "channel": 4,
      "note": 54,
      "start": 51.9879,
      "duration": 0.0959,
      "velocity": 91,
      "chip": "ym2612"
    },
    {
      "channel": 5,
      "note": 32,
      "start": 51.9888,
      "duration": 0.1284,
      "velocity": 114,
      "chip": "ym2612"
    },
    {
      "channel": 0,
      "note": 70,
      "start": 52.1846,
      "duration": 0.2013,
      "velocity": 106,
      "chip": "ym2612"
    },
    {
      "channel": 4,
      "note": 54,
      "start": 52.1858,
      "duration": 0.048,
      "velocity": 91,
      "chip": "ym2612"
    },
    {
      "channel": 4,
      "note": 54,
      "start": 52.2849,
      "duration": 0.0489,
      "velocity": 91,
      "chip": "ym2612"
    },
    {
      "channel": 0,
      "note": 78,
      "start": 52.3866,
      "duration": 0.1973,
      "velocity": 106,
      "chip": "ym2612"
    },
    {
      "channel": 3,
      "note": 66,
      "start": 52.3876,
      "duration": 0.4001,
      "velocity": 127,
      "chip": "ym2612"
    },
    {
      "channel": 4,
      "note": 54,
      "start": 52.3884,
      "duration": 0.0958,
      "velocity": 91,
      "chip": "ym2612"
    },
    {
      "channel": 5,
      "note": 75,
      "start": 52.3891,
      "duration": 0.2962,
      "velocity": 120,
      "chip": "ym2612"
    },
    {
      "channel": 0,
      "note": 70,
      "start": 52.5846,
      "duration": 0.2017,
      "velocity": 106,
      "chip": "ym2612"
    },
    {
      "channel": 4,
      "note": 54,
      "start": 52.5859,
      "duration": 0.048,
      "velocity": 91,
      "chip": "ym2612"
    },
    {
      "channel": 4,
      "note": 54,
      "start": 52.6851,
      "duration": 0.0489,
      "velocity": 91,
      "chip": "ym2612"
    },
    {
      "channel": 0,
      "note": 77,
      "start": 52.7868,
      "duration": 0.1971,
      "velocity": 106,
      "chip": "ym2612"
    },
    {
      "channel": 2,
      "note": 60,
      "start": 52.7876,
      "duration": 1.5998,
      "velocity": 111,
      "chip": "ym2612"
    },
    {
      "channel": 4,
      "note": 56,
      "start": 52.7886,
      "duration": 0.0952,
      "velocity": 91,
      "chip": "ym2612"
    },
    {
      "channel": 5,
      "note": 32,
      "start": 52.7895,
      "duration": 0.1277,
      "velocity": 114,
      "chip": "ym2612"
    },
    {
      "channel": 0,
      "note": 70,
      "start": 52.9846,
      "duration": 0.2013,
      "velocity": 106,
      "chip": "ym2612"
    },
    {
      "channel": 4,
      "note": 56,
      "start": 52.9857,
      "duration": 0.048,
      "velocity": 91,
      "chip": "ym2612"
    },
    {
      "channel": 4,
      "note": 56,
      "start": 53.0849,
      "duration": 0.0489,
      "velocity": 91,
      "chip": "ym2612"
    },
    {
      "channel": 0,
      "note": 75,
      "start": 53.1866,
      "duration": 0.1973,
      "velocity": 106,
      "chip": "ym2612"
    },
    {
      "channel": 3,
      "note": 66,
      "start": 53.1876,
      "duration": 0.3994,
      "velocity": 127,
      "chip": "ym2612"
    },
    {
      "channel": 4,
      "note": 56,
      "start": 53.1884,
      "duration": 0.0957,
      "velocity": 91,
      "chip": "ym2612"
    },
    {
      "channel": 5,
      "note": 75,
      "start": 53.1891,
      "duration": 0.2962,
      "velocity": 120,
      "chip": "ym2612"
    },
    {
      "channel": 0,
      "note": 70,
      "start": 53.3846,
      "duration": 0.2013,
      "velocity": 106,
      "chip": "ym2612"
    },
    {
      "channel": 4,
      "note": 56,
      "start": 53.386,
      "duration": 0.048,
      "velocity": 91,
      "chip": "ym2612"
    },
    {
      "channel": 4,
      "note": 56,
      "start": 53.4851,
      "duration": 0.0489,
      "velocity": 91,
      "chip": "ym2612"
    },
    {
      "channel": 0,
      "note": 73,
      "start": 53.5866,
      "duration": 0.1974,
      "velocity": 106,
      "chip": "ym2612"
    },
    {
      "channel": 4,
      "note": 56,
      "start": 53.5879,
      "duration": 0.096,
      "velocity": 91,
      "chip": "ym2612"
    },
    {
      "channel": 5,
      "note": 32,
      "start": 53.5888,
      "duration": 0.1284,
      "velocity": 114,
      "chip": "ym2612"
    },
    {
      "channel": 0,
      "note": 75,
      "start": 53.7847,
      "duration": 0.6015,
      "velocity": 106,
      "chip": "ym2612"
    },
    {
      "channel": 4,
      "note": 56,
      "start": 53.7858,
      "duration": 0.0479,
      "velocity": 91,
      "chip": "ym2612"
    },
    {
      "channel": 4,
      "note": 56,
      "start": 53.8849,
      "duration": 0.0489,
      "velocity": 91,
      "chip": "ym2612"
    },
    {
      "channel": 3,
      "note": 66,
      "start": 53.9873,
      "duration": 0.401,
      "velocity": 127,
      "chip": "ym2612"
    },
    {
      "channel": 4,
      "note": 56,
      "start": 53.988,
      "duration": 0.0963,
      "velocity": 91,
      "chip": "ym2612"
    },
    {
      "channel": 5,
      "note": 75,
      "start": 53.9888,
      "duration": 0.2967,
      "velocity": 120,
      "chip": "ym2612"
    },
    {
      "channel": 4,
      "note": 56,
      "start": 54.1856,
      "duration": 0.0484,
      "velocity": 91,
      "chip": "ym2612"
    },
    {
      "channel": 4,
      "note": 56,
      "start": 54.2853,
      "duration": 0.0488,
      "velocity": 91,
      "chip": "ym2612"
    },
    {
      "channel": 0,
      "note": 77,
      "start": 54.3869,
      "duration": 0.1461,
      "velocity": 106,
      "chip": "ym2612"
    },
    {
      "channel": 2,
      "note": 70,
      "start": 54.388,
      "duration": 0.1453,
      "velocity": 111,
      "chip": "ym2612"
    },
    {
      "channel": 4,
      "note": 58,
      "start": 54.3893,
      "duration": 0.0945,
      "velocity": 91,
      "chip": "ym2612"
    },
    {
      "channel": 5,
      "note": 32,
      "start": 54.3902,
      "duration": 0.127,
      "velocity": 114,
      "chip": "ym2612"
    },
    {
      "channel": 0,
      "note": 77,
      "start": 54.5846,
      "duration": 0.2013,
      "velocity": 106,
      "chip": "ym2612"
    },
    {
      "channel": 2,
      "note": 70,
      "start": 54.5853,
      "duration": 0.2014,
      "velocity": 111,
      "chip": "ym2612"
    },
    {
      "channel": 4,
      "note": 58,
      "start": 54.5861,
      "duration": 0.0476,
      "velocity": 91,
      "chip": "ym2612"
    },
    {
      "channel": 4,
      "note": 58,
      "start": 54.6849,
      "duration": 0.0489,
      "velocity": 91,
      "chip": "ym2612"
    },
    {
      "channel": 0,
      "note": 75,
      "start": 54.7866,
      "duration": 0.1973,
      "velocity": 106,
      "chip": "ym2612"
    },
    {
      "channel": 2,
      "note": 68,
      "start": 54.7873,
      "duration": 0.1975,
      "velocity": 111,
      "chip": "ym2612"
    },
    {
      "channel": 3,
      "note": 66,
      "start": 54.788,
      "duration": 0.3986,
      "velocity": 127,
      "chip": "ym2612"
    },
    {
      "channel": 4,
      "note": 58,
      "start": 54.7888,
      "duration": 0.0954,
      "velocity": 91,
      "chip": "ym2612"
    },
    {
      "channel": 5,
      "note": 75,
      "start": 54.7895,
      "duration": 0.2959,
      "velocity": 120,
      "chip": "ym2612"
    },
    {
      "channel": 0,
      "note": 77,
      "start": 54.9846,
      "duration": 0.2013,
      "velocity": 106,
      "chip": "ym2612"
    },
    {
      "channel": 2,
      "note": 70,
      "start": 54.9853,
      "duration": 0.201,
      "velocity": 111,
      "chip": "ym2612"
    },
    {
      "channel": 4,
      "note": 58,
      "start": 54.9863,
      "duration": 0.0476,
      "velocity": 91,
      "chip": "ym2612"
    },
    {
      "channel": 4,
      "note": 58,
      "start": 55.0851,
      "duration": 0.0489,
      "velocity": 91,
      "chip": "ym2612"
    },
    {
      "channel": 4,
      "note": 58,
      "start": 55.1875,
      "duration": 0.0959,
      "velocity": 91,
      "chip": "ym2612"
    },
    {
      "channel": 5,
      "note": 32,
      "start": 55.1883,
      "duration": 0.1284,
      "velocity": 114,
      "chip": "ym2612"
    },
    {
      "channel": 0,
      "note": 77,
      "start": 55.3846,
      "duration": 0.2013,
      "velocity": 106,
      "chip": "ym2612"
    },
    {
      "channel": 2,
      "note": 70,
      "start": 55.3853,
      "duration": 0.2014,
      "velocity": 111,
      "chip": "ym2612"
    },
    {
      "channel": 4,
      "note": 58,
      "start": 55.3861,
      "duration": 0.0476,
      "velocity": 91,
      "chip": "ym2612"
    },
    {
      "channel": 4,
      "note": 58,
      "start": 55.4849,
      "duration": 0.0489,
      "velocity": 91,
      "chip": "ym2612"
    },
    {
      "channel": 0,
      "note": 75,
      "start": 55.5866,
      "duration": 0.1973,
      "velocity": 106,
      "chip": "ym2612"
    },
    {
      "channel": 2,
      "note": 68,
      "start": 55.5873,
      "duration": 0.1975,
      "velocity": 111,
      "chip": "ym2612"
    },
    {
      "channel": 3,
      "note": 66,
      "start": 55.588,
      "duration": 0.3997,
      "velocity": 127,
      "chip": "ym2612"
    },
    {
      "channel": 4,
      "note": 58,
      "start": 55.5888,
      "duration": 0.0954,
      "velocity": 91,
      "chip": "ym2612"
    },
    {
      "channel": 5,
      "note": 75,
      "start": 55.5895,
      "duration": 0.2959,
      "velocity": 120,
      "chip": "ym2612"
    },
    {
      "channel": 0,
      "note": 77,
      "start": 55.7846,
      "duration": 0.2015,
      "velocity": 106,
      "chip": "ym2612"
    },
    {
      "channel": 2,
      "note": 70,
      "start": 55.7853,
      "duration": 0.2016,
      "velocity": 111,
      "chip": "ym2612"
    },
    {
      "channel": 4,
      "note": 58,
      "start": 55.7864,
      "duration": 0.0476,
      "velocity": 91,
      "chip": "ym2612"
    },
    {
      "channel": 4,
      "note": 58,
      "start": 55.8851,
      "duration": 0.0489,
      "velocity": 91,
      "chip": "ym2612"
    },
    {
      "channel": 0,
      "note": 82,
      "start": 55.9868,
      "duration": 0.1462,
      "velocity": 106,
      "chip": "ym2612"
    },
    {
      "channel": 2,
      "note": 77,
      "start": 55.9875,
      "duration": 0.1458,
      "velocity": 111,
      "chip": "ym2612"
    },
    {
      "channel": 4,
      "note": 58,
      "start": 55.9888,
      "duration": 0.0952,
      "velocity": 91,
      "chip": "ym2612"
    },
    {
      "channel": 5,
      "note": 32,
      "start": 55.9896,
      "duration": 0.1276,
      "velocity": 114,
      "chip": "ym2612"
    },
    {
      "channel": 0,
      "note": 82,
      "start": 56.1846,
      "duration": 0.2013,
      "velocity": 106,
      "chip": "ym2612"
    },
    {
      "channel": 2,
      "note": 77,
      "start": 56.1853,
      "duration": 0.2014,
      "velocity": 111,
      "chip": "ym2612"
    },
    {
      "channel": 4,
      "note": 58,
      "start": 56.1861,
      "duration": 0.0476,
      "velocity": 91,
      "chip": "ym2612"
    },
    {
      "channel": 4,
      "note": 58,
      "start": 56.2849,
      "duration": 0.0489,
      "velocity": 91,
      "chip": "ym2612"
    },
    {
      "channel": 0,
      "note": 80,
      "start": 56.3866,
      "duration": 0.1973,
      "velocity": 106,
      "chip": "ym2612"
    },
    {
      "channel": 2,
      "note": 75,
      "start": 56.3873,
      "duration": 0.1975,
      "velocity": 111,
      "chip": "ym2612"
    },
    {
      "channel": 3,
      "note": 66,
      "start": 56.388,
      "duration": 0.3985,
      "velocity": 127,
      "chip": "ym2612"
    },
    {
      "channel": 4,
      "note": 58,
      "start": 56.3888,
      "duration": 0.0954,
      "velocity": 91,
      "chip": "ym2612"
    },
    {
      "channel": 5,
      "note": 75,
      "start": 56.3895,
      "duration": 0.2959,
      "velocity": 120,
      "chip": "ym2612"
    },
    {
      "channel": 0,
      "note": 82,
      "start": 56.5846,
      "duration": 0.2013,
      "velocity": 106,
      "chip": "ym2612"
    },
    {
      "channel": 2,
      "note": 77,
      "start": 56.5853,
      "duration": 0.201,
      "velocity": 111,
      "chip": "ym2612"
    },
    {
      "channel": 4,
      "note": 58,
      "start": 56.5864,
      "duration": 0.0476,
      "velocity": 91,
      "chip": "ym2612"
    },
    {
      "channel": 4,
      "note": 58,
      "start": 56.6851,
      "duration": 0.0489,
      "velocity": 91,
      "chip": "ym2612"
    },
    {
      "channel": 4,
      "note": 58,
      "start": 56.7875,
      "duration": 0.0989,
      "velocity": 91,
      "chip": "ym2612"
    },
    {
      "channel": 5,
      "note": 32,
      "start": 56.7883,
      "duration": 0.0946,
      "velocity": 114,
      "chip": "ym2612"
    },
    {
      "channel": 3,
      "note": 81,
      "start": 56.8863,
      "duration": 0.1008,
      "velocity": 127,
      "chip": "ym2612"
    },
    {
      "channel": 5,
      "note": 75,
      "start": 56.8873,
      "duration": 0.0956,
      "velocity": 120,
      "chip": "ym2612"
    },
    {
      "channel": 0,
      "note": 80,
      "start": 56.9862,
      "duration": 0.1993,
      "velocity": 106,
      "chip": "ym2612"
    },
    {
      "channel": 2,
      "note": 75,
      "start": 56.9869,
      "duration": 0.1994,
      "velocity": 111,
      "chip": "ym2612"
    },
    {
      "channel": 4,
      "note": 58,
      "start": 56.988,
      "duration": 0.0457,
      "velocity": 91,
      "chip": "ym2612"
    },
    {
      "channel": 5,
      "note": 75,
      "start": 56.9887,
      "duration": 0.0942,
      "velocity": 120,
      "chip": "ym2612"
    },
    {
      "channel": 3,
      "note": 81,
      "start": 57.0868,
      "duration": 0.1007,
      "velocity": 127,
      "chip": "ym2612"
    },
    {
      "channel": 4,
      "note": 58,
      "start": 57.0875,
      "duration": 0.0466,
      "velocity": 91,
      "chip": "ym2612"
    },
    {
      "channel": 5,
      "note": 75,
      "start": 57.0882,
      "duration": 0.0947,
      "velocity": 120,
      "chip": "ym2612"
    },
    {
      "channel": 0,
      "note": 82,
      "start": 57.1861,
      "duration": 0.3998,
      "velocity": 106,
      "chip": "ym2612"
    },
    {
      "channel": 2,
      "note": 77,
      "start": 57.1869,
      "duration": 0.4024,
      "velocity": 111,
      "chip": "ym2612"
    },
    {
      "channel": 3,
      "note": 81,
      "start": 57.188,
      "duration": 0.0982,
      "velocity": 127,
      "chip": "ym2612"
    },
    {
      "channel": 4,
      "note": 58,
      "start": 57.1888,
      "duration": 0.0978,
      "velocity": 91,
      "chip": "ym2612"
    },
    {
      "channel": 5,
      "note": 75,
      "start": 57.1895,
      "duration": 0.0934,
      "velocity": 120,
      "chip": "ym2612"
    },
    {
      "channel": 5,
      "note": 75,
      "start": 57.2874,
      "duration": 0.0955,
      "velocity": 120,
      "chip": "ym2612"
    },
    {
      "channel": 3,
      "note": 81,
      "start": 57.3869,
      "duration": 0.0994,
      "velocity": 127,
      "chip": "ym2612"
    },
    {
      "channel": 4,
      "note": 58,
      "start": 57.3876,
      "duration": 0.0464,
      "velocity": 91,
      "chip": "ym2612"
    },
    {
      "channel": 5,
      "note": 75,
      "start": 57.3884,
      "duration": 0.0945,
      "velocity": 120,
      "chip": "ym2612"
    },
    {
      "channel": 3,
      "note": 81,
      "start": 57.4869,
      "duration": 0.1033,
      "velocity": 127,
      "chip": "ym2612"
    },
    {
      "channel": 4,
      "note": 58,
      "start": 57.4877,
      "duration": 0.0464,
      "velocity": 91,
      "chip": "ym2612"
    },
    {
      "channel": 5,
      "note": 75,
      "start": 57.4884,
      "duration": 0.0947,
      "velocity": 120,
      "chip": "ym2612"
    },
    {
      "channel": 0,
      "note": 63,
      "start": 57.5865,
      "duration": 0.1974,
      "velocity": 106,
      "chip": "ym2612"
    },
    {
      "channel": 4,
      "note": 51,
      "start": 57.5914,
      "duration": 0.0922,
      "velocity": 91,
      "chip": "ym2612"
    },
    {
      "channel": 5,
      "note": 32,
      "start": 57.5922,
      "duration": 0.1248,
      "velocity": 114,
      "chip": "ym2612"
    },
    {
      "channel": 0,
      "note": 68,
      "start": 57.7846,
      "duration": 0.0002,
      "velocity": 106,
      "chip": "ym2612"
    }
  ]
}