{
  "track_name": "28 - Lashute",
  "duration_sec": 55.234,
  "sample_rate": 44100,
  "note_count": 685,
  "unique_pitches": 30,
  "pitch_range": 60,
  "avg_note_duration": 0.4183,
  "reconstruction_stats": {
    "notes_reconstructed": 685,
    "keyon_events": 685,
    "keyoff_events": 680,
    "orphan_keyons": 5,
    "unique_pitches": 30,
    "pitch_range": 60,
    "avg_duration_sec": 0.4183
  },
  "metadata": {
    "source": "P\\Phantasy Star III\\28 - Lashute.vgz"
  },
  "notes": [
    {
      "channel": 1,
      "note": 23,
      "start": 0.0,
      "duration": 0.3749,
      "velocity": 112,
      "chip": "ym2612"
    },
    {
      "channel": 4,
      "note": 71,
      "start": 0.0051,
      "duration": 0.3705,
      "velocity": 109,
      "chip": "ym2612"
    },
    {
      "channel": 5,
      "note": 67,
      "start": 0.0084,
      "duration": 0.3679,
      "velocity": 109,
      "chip": "ym2612"
    },
    {
      "channel": 2,
      "note": 30,
      "start": 0.0093,
      "duration": 0.1734,
      "velocity": 119,
      "chip": "ym2612"
    },
    {
      "channel": 1,
      "note": 24,
      "start": 0.3754,
      "duration": 0.3805,
      "velocity": 112,
      "chip": "ym2612"
    },
    {
      "channel": 4,
      "note": 83,
      "start": 0.3762,
      "duration": 2.667,
      "velocity": 109,
      "chip": "ym2612"
    },
    {
      "channel": 5,
      "note": 79,
      "start": 0.377,
      "duration": 2.6671,
      "velocity": 109,
      "chip": "ym2612"
    },
    {
      "channel": 2,
      "note": 30,
      "start": 0.3778,
      "duration": 0.1858,
      "velocity": 119,
      "chip": "ym2612"
    },
    {
      "channel": 1,
      "note": 23,
      "start": 0.7565,
      "duration": 0.3803,
      "velocity": 112,
      "chip": "ym2612"
    },
    {
      "channel": 2,
      "note": 30,
      "start": 0.7581,
      "duration": 0.1864,
      "velocity": 119,
      "chip": "ym2612"
    },
    {
      "channel": 1,
      "note": 24,
      "start": 1.1373,
      "duration": 0.3806,
      "velocity": 112,
      "chip": "ym2612"
    },
    {
      "channel": 2,
      "note": 30,
      "start": 1.139,
      "duration": 0.1867,
      "velocity": 119,
      "chip": "ym2612"
    },
    {
      "channel": 1,
      "note": 23,
      "start": 1.5185,
      "duration": 0.3803,
      "velocity": 112,
      "chip": "ym2612"
    },
    {
      "channel": 2,
      "note": 30,
      "start": 1.5201,
      "duration": 0.1866,
      "velocity": 119,
      "chip": "ym2612"
    },
    {
      "channel": 1,
      "note": 24,
      "start": 1.8993,
      "duration": 0.3805,
      "velocity": 112,
      "chip": "ym2612"
    },
    {
      "channel": 2,
      "note": 30,
      "start": 1.9009,
      "duration": 0.1867,
      "velocity": 119,
      "chip": "ym2612"
    },
    {
      "channel": 1,
      "note": 23,
      "start": 2.2804,
      "duration": 0.3804,
      "velocity": 112,
      "chip": "ym2612"
    },
    {
      "channel": 2,
      "note": 30,
      "start": 2.2821,
      "duration": 0.1866,
      "velocity": 119,
      "chip": "ym2612"
    },
    {
      "channel": 1,
      "note": 24,
      "start": 2.6614,
      "duration": 0.3807,
      "velocity": 112,
      "chip": "ym2612"
    },
    {
      "channel": 2,
      "note": 30,
      "start": 2.663,
      "duration": 0.1866,
      "velocity": 119,
      "chip": "ym2612"
    },
    {
      "channel": 1,
      "note": 23,
      "start": 3.0427,
      "duration": 0.3802,
      "velocity": 112,
      "chip": "ym2612"
    },
    {
      "channel": 4,
      "note": 71,
      "start": 3.0439,
      "duration": 0.3798,
      "velocity": 109,
      "chip": "ym2612"
    },
    {
      "channel": 5,
      "note": 67,
      "start": 3.0447,
      "duration": 0.3798,
      "velocity": 109,
      "chip": "ym2612"
    },
    {
      "channel": 2,
      "note": 30,
      "start": 3.0455,
      "duration": 0.1852,
      "velocity": 119,
      "chip": "ym2612"
    },
    {
      "channel": 1,
      "note": 24,
      "start": 3.4234,
      "duration": 0.3804,
      "velocity": 112,
      "chip": "ym2612"
    },
    {
      "channel": 4,
      "note": 83,
      "start": 3.4243,
      "duration": 2.6681,
      "velocity": 109,
      "chip": "ym2612"
    },
    {
      "channel": 5,
      "note": 79,
      "start": 3.4252,
      "duration": 2.668,
      "velocity": 109,
      "chip": "ym2612"
    },
    {
      "channel": 2,
      "note": 30,
      "start": 3.426,
      "duration": 0.1858,
      "velocity": 119,
      "chip": "ym2612"
    },
    {
      "channel": 1,
      "note": 23,
      "start": 3.8044,
      "duration": 0.3804,
      "velocity": 112,
      "chip": "ym2612"
    },
    {
      "channel": 2,
      "note": 30,
      "start": 3.8061,
      "duration": 0.1868,
      "velocity": 119,
      "chip": "ym2612"
    },
    {
      "channel": 1,
      "note": 24,
      "start": 4.1854,
      "duration": 0.3805,
      "velocity": 112,
      "chip": "ym2612"
    },
    {
      "channel": 2,
      "note": 30,
      "start": 4.187,
      "duration": 0.1867,
      "velocity": 119,
      "chip": "ym2612"
    },
    {
      "channel": 1,
      "note": 23,
      "start": 4.5664,
      "duration": 0.3804,
      "velocity": 112,
      "chip": "ym2612"
    },
    {
      "channel": 2,
      "note": 30,
      "start": 4.5681,
      "duration": 0.1866,
      "velocity": 119,
      "chip": "ym2612"
    },
    {
      "channel": 1,
      "note": 24,
      "start": 4.9474,
      "duration": 0.3807,
      "velocity": 112,
      "chip": "ym2612"
    },
    {
      "channel": 2,
      "note": 30,
      "start": 4.949,
      "duration": 0.1867,
      "velocity": 119,
      "chip": "ym2612"
    },
    {
      "channel": 1,
      "note": 23,
      "start": 5.3287,
      "duration": 0.3803,
      "velocity": 112,
      "chip": "ym2612"
    },
    {
      "channel": 2,
      "note": 30,
      "start": 5.3303,
      "duration": 0.1864,
      "velocity": 119,
      "chip": "ym2612"
    },
    {
      "channel": 1,
      "note": 24,
      "start": 5.7096,
      "duration": 0.3811,
      "velocity": 112,
      "chip": "ym2612"
    },
    {
      "channel": 2,
      "note": 30,
      "start": 5.7112,
      "duration": 0.1866,
      "velocity": 119,
      "chip": "ym2612"
    },
    {
      "channel": 0,
      "note": 54,
      "start": 6.0905,
      "duration": 0.7613,
      "velocity": 112,
      "chip": "ym2612"
    },
    {
      "channel": 1,
      "note": 23,
      "start": 6.0913,
      "duration": 0.3798,
      "velocity": 112,
      "chip": "ym2612"
    },
    {
      "channel": 3,
      "note": 59,
      "start": 6.0922,
      "duration": 0.7607,
      "velocity": 109,
      "chip": "ym2612"
    },
    {
      "channel": 4,
      "note": 71,
      "start": 6.093,
      "duration": 0.3792,
      "velocity": 109,
      "chip": "ym2612"
    },
    {
      "channel": 5,
      "note": 67,
      "start": 6.0939,
      "duration": 0.3791,
      "velocity": 109,
      "chip": "ym2612"
    },
    {
      "channel": 2,
      "note": 30,
      "start": 6.0947,
      "duration": 0.1845,
      "velocity": 119,
      "chip": "ym2612"
    },
    {
      "channel": 1,
      "note": 24,
      "start": 6.4717,
      "duration": 0.3805,
      "velocity": 112,
      "chip": "ym2612"
    },
    {
      "channel": 4,
      "note": 83,
      "start": 6.4729,
      "duration": 2.6673,
      "velocity": 109,
      "chip": "ym2612"
    },
    {
      "channel": 5,
      "note": 79,
      "start": 6.4736,
      "duration": 2.6674,
      "velocity": 109,
      "chip": "ym2612"
    },
    {
      "channel": 2,
      "note": 30,
      "start": 6.4745,
      "duration": 0.1861,
      "velocity": 119,
      "chip": "ym2612"
    },
    {
      "channel": 1,
      "note": 23,
      "start": 6.8528,
      "duration": 0.3809,
      "velocity": 112,
      "chip": "ym2612"
    },
    {
      "channel": 2,
      "note": 30,
      "start": 6.8547,
      "duration": 0.1875,
      "velocity": 119,
      "chip": "ym2612"
    },
    {
      "channel": 0,
      "note": 52,
      "start": 7.0401,
      "duration": 0.1927,
      "velocity": 112,
      "chip": "ym2612"
    },
    {
      "channel": 3,
      "note": 57,
      "start": 7.0412,
      "duration": 0.1931,
      "velocity": 109,
      "chip": "ym2612"
    },
    {
      "channel": 0,
      "note": 54,
      "start": 7.2334,
      "duration": 0.187,
      "velocity": 112,
      "chip": "ym2612"
    },
    {
      "channel": 1,
      "note": 24,
      "start": 7.2342,
      "duration": 0.3805,
      "velocity": 112,
      "chip": "ym2612"
    },
    {
      "channel": 3,
      "note": 59,
      "start": 7.2349,
      "duration": 0.1866,
      "velocity": 109,
      "chip": "ym2612"
    },
    {
      "channel": 2,
      "note": 30,
      "start": 7.2365,
      "duration": 0.1866,
      "velocity": 119,
      "chip": "ym2612"
    },
    {
      "channel": 0,
      "note": 55,
      "start": 7.421,
      "duration": 0.1928,
      "velocity": 112,
      "chip": "ym2612"
    },
    {
      "channel": 3,
      "note": 60,
      "start": 7.4221,
      "duration": 0.1933,
      "velocity": 109,
      "chip": "ym2612"
    },
    {
      "channel": 0,
      "note": 57,
      "start": 7.6144,
      "duration": 0.7615,
      "velocity": 112,
      "chip": "ym2612"
    },
    {
      "channel": 1,
      "note": 23,
      "start": 7.6152,
      "duration": 0.3799,
      "velocity": 112,
      "chip": "ym2612"
    },
    {
      "channel": 3,
      "note": 62,
      "start": 7.616,
      "duration": 0.7615,
      "velocity": 109,
      "chip": "ym2612"
    },
    {
      "channel": 2,
      "note": 30,
      "start": 7.6175,
      "duration": 0.1858,
      "velocity": 119,
      "chip": "ym2612"
    },
    {
      "channel": 1,
      "note": 24,
      "start": 7.9957,
      "duration": 0.381,
      "velocity": 112,
      "chip": "ym2612"
    },
    {
      "channel": 2,
      "note": 30,
      "start": 7.9976,
      "duration": 0.1868,
      "velocity": 119,
      "chip": "ym2612"
    },
    {
      "channel": 0,
      "note": 55,
      "start": 8.3765,
      "duration": 0.5681,
      "velocity": 112,
      "chip": "ym2612"
    },
    {
      "channel": 1,
      "note": 23,
      "start": 8.3773,
      "duration": 0.3798,
      "velocity": 112,
      "chip": "ym2612"
    },
    {
      "channel": 3,
      "note": 60,
      "start": 8.3781,
      "duration": 0.5676,
      "velocity": 109,
      "chip": "ym2612"
    },
    {
      "channel": 2,
      "note": 30,
      "start": 8.3796,
      "duration": 0.1858,
      "velocity": 119,
      "chip": "ym2612"
    },
    {
      "channel": 1,
      "note": 24,
      "start": 8.7577,
      "duration": 0.381,
      "velocity": 112,
      "chip": "ym2612"
    },
    {
      "channel": 2,
      "note": 30,
      "start": 8.7597,
      "duration": 0.1875,
      "velocity": 119,
      "chip": "ym2612"
    },
    {
      "channel": 0,
      "note": 57,
      "start": 8.9452,
      "duration": 0.0946,
      "velocity": 112,
      "chip": "ym2612"
    },
    {
      "channel": 3,
      "note": 62,
      "start": 8.9463,
      "duration": 0.0946,
      "velocity": 109,
      "chip": "ym2612"
    },
    {
      "channel": 0,
      "note": 55,
      "start": 9.0404,
      "duration": 0.0975,
      "velocity": 112,
      "chip": "ym2612"
    },
    {
      "channel": 3,
      "note": 60,
      "start": 9.0415,
      "duration": 0.0979,
      "velocity": 109,
      "chip": "ym2612"
    },
    {
      "channel": 0,
      "note": 54,
      "start": 9.1385,
      "duration": 0.7615,
      "velocity": 112,
      "chip": "ym2612"
    },
    {
      "channel": 1,
      "note": 23,
      "start": 9.1393,
      "duration": 0.38,
      "velocity": 112,
      "chip": "ym2612"
    },
    {
      "channel": 3,
      "note": 59,
      "start": 9.14,
      "duration": 0.761,
      "velocity": 109,
      "chip": "ym2612"
    },
    {
      "channel": 4,
      "note": 71,
      "start": 9.1409,
      "duration": 0.3795,
      "velocity": 109,
      "chip": "ym2612"
    },
    {
      "channel": 5,
      "note": 67,
      "start": 9.1418,
      "duration": 0.3793,
      "velocity": 109,
      "chip": "ym2612"
    },
    {
      "channel": 2,
      "note": 30,
      "start": 9.1426,
      "duration": 0.1848,
      "velocity": 119,
      "chip": "ym2612"
    },
    {
      "channel": 1,
      "note": 24,
      "start": 9.5198,
      "duration": 0.3805,
      "velocity": 112,
      "chip": "ym2612"
    },
    {
      "channel": 4,
      "note": 83,
      "start": 9.521,
      "duration": 2.6673,
      "velocity": 109,
      "chip": "ym2612"
    },
    {
      "channel": 5,
      "note": 79,
      "start": 9.5217,
      "duration": 2.6674,
      "velocity": 109,
      "chip": "ym2612"
    },
    {
      "channel": 2,
      "note": 30,
      "start": 9.5226,
      "duration": 0.1859,
      "velocity": 119,
      "chip": "ym2612"
    },
    {
      "channel": 1,
      "note": 23,
      "start": 9.9009,
      "duration": 0.3807,
      "velocity": 112,
      "chip": "ym2612"
    },
    {
      "channel": 2,
      "note": 30,
      "start": 9.9028,
      "duration": 0.1874,
      "velocity": 119,
      "chip": "ym2612"
    },
    {
      "channel": 0,
      "note": 52,
      "start": 10.0882,
      "duration": 0.1926,
      "velocity": 112,
      "chip": "ym2612"
    },
    {
      "channel": 3,
      "note": 57,
      "start": 10.0893,
      "duration": 0.193,
      "velocity": 109,
      "chip": "ym2612"
    },
    {
      "channel": 0,
      "note": 54,
      "start": 10.2814,
      "duration": 0.1872,
      "velocity": 112,
      "chip": "ym2612"
    },
    {
      "channel": 1,
      "note": 24,
      "start": 10.2822,
      "duration": 0.3805,
      "velocity": 112,
      "chip": "ym2612"
    },
    {
      "channel": 3,
      "note": 59,
      "start": 10.2829,
      "duration": 0.1868,
      "velocity": 109,
      "chip": "ym2612"
    },
    {
      "channel": 2,
      "note": 30,
      "start": 10.2844,
      "duration": 0.1866,
      "velocity": 119,
      "chip": "ym2612"
    },
    {
      "channel": 0,
      "note": 55,
      "start": 10.4691,
      "duration": 0.1927,
      "velocity": 112,
      "chip": "ym2612"
    },
    {
      "channel": 3,
      "note": 60,
      "start": 10.4702,
      "duration": 0.1932,
      "velocity": 109,
      "chip": "ym2612"
    },
    {
      "channel": 0,
      "note": 54,
      "start": 10.6624,
      "duration": 0.7615,
      "velocity": 112,
      "chip": "ym2612"
    },
    {
      "channel": 1,
      "note": 23,
      "start": 10.6633,
      "duration": 0.38,
      "velocity": 112,
      "chip": "ym2612"
    },
    {
      "channel": 3,
      "note": 59,
      "start": 10.664,
      "duration": 0.7615,
      "velocity": 109,
      "chip": "ym2612"
    },
    {
      "channel": 2,
      "note": 30,
      "start": 10.6656,
      "duration": 0.1859,
      "velocity": 119,
      "chip": "ym2612"
    },
    {
      "channel": 1,
      "note": 24,
      "start": 11.0438,
      "duration": 0.381,
      "velocity": 112,
      "chip": "ym2612"
    },
    {
      "channel": 2,
      "note": 30,
      "start": 11.0457,
      "duration": 0.1867,
      "velocity": 119,
      "chip": "ym2612"
    },
    {
      "channel": 0,
      "note": 52,
      "start": 11.4245,
      "duration": 0.5681,
      "velocity": 112,
      "chip": "ym2612"
    },
    {
      "channel": 1,
      "note": 23,
      "start": 11.4254,
      "duration": 0.38,
      "velocity": 112,
      "chip": "ym2612"
    },
    {
      "channel": 3,
      "note": 57,
      "start": 11.4262,
      "duration": 0.5676,
      "velocity": 109,
      "chip": "ym2612"
    },
    {
      "channel": 2,
      "note": 30,
      "start": 11.4277,
      "duration": 0.1857,
      "velocity": 119,
      "chip": "ym2612"
    },
    {
      "channel": 1,
      "note": 24,
      "start": 11.8059,
      "duration": 0.3808,
      "velocity": 112,
      "chip": "ym2612"
    },
    {
      "channel": 2,
      "note": 30,
      "start": 11.8078,
      "duration": 0.1875,
      "velocity": 119,
      "chip": "ym2612"
    },
    {
      "channel": 0,
      "note": 54,
      "start": 11.9932,
      "duration": 0.0946,
      "velocity": 112,
      "chip": "ym2612"
    },
    {
      "channel": 3,
      "note": 59,
      "start": 11.9944,
      "duration": 0.0945,
      "velocity": 109,
      "chip": "ym2612"
    },
    {
      "channel": 0,
      "note": 52,
      "start": 12.0884,
      "duration": 0.0975,
      "velocity": 112,
      "chip": "ym2612"
    },
    {
      "channel": 3,
      "note": 57,
      "start": 12.0895,
      "duration": 0.098,
      "velocity": 109,
      "chip": "ym2612"
    },
    {
      "channel": 0,
      "note": 51,
      "start": 12.1866,
      "duration": 0.7615,
      "velocity": 112,
      "chip": "ym2612"
    },
    {
      "channel": 1,
      "note": 23,
      "start": 12.1873,
      "duration": 0.38,
      "velocity": 112,
      "chip": "ym2612"
    },
    {
      "channel": 3,
      "note": 55,
      "start": 12.1881,
      "duration": 0.7611,
      "velocity": 109,
      "chip": "ym2612"
    },
    {
      "channel": 4,
      "note": 71,
      "start": 12.1889,
      "duration": 0.3794,
      "velocity": 109,
      "chip": "ym2612"
    },
    {
      "channel": 5,
      "note": 67,
      "start": 12.1897,
      "duration": 0.3795,
      "velocity": 109,
      "chip": "ym2612"
    },
    {
      "channel": 2,
      "note": 30,
      "start": 12.1905,
      "duration": 0.1849,
      "velocity": 119,
      "chip": "ym2612"
    },
    {
      "channel": 1,
      "note": 24,
      "start": 12.5679,
      "duration": 0.3805,
      "velocity": 112,
      "chip": "ym2612"
    },
    {
      "channel": 4,
      "note": 83,
      "start": 12.569,
      "duration": 2.6676,
      "velocity": 109,
      "chip": "ym2612"
    },
    {
      "channel": 5,
      "note": 79,
      "start": 12.5698,
      "duration": 2.6676,
      "velocity": 109,
      "chip": "ym2612"
    },
    {
      "channel": 2,
      "note": 30,
      "start": 12.5706,
      "duration": 0.1859,
      "velocity": 119,
      "chip": "ym2612"
    },
    {
      "channel": 1,
      "note": 23,
      "start": 12.949,
      "duration": 0.3807,
      "velocity": 112,
      "chip": "ym2612"
    },
    {
      "channel": 2,
      "note": 30,
      "start": 12.9509,
      "duration": 0.1873,
      "velocity": 119,
      "chip": "ym2612"
    },
    {
      "channel": 0,
      "note": 49,
      "start": 13.1362,
      "duration": 0.1928,
      "velocity": 112,
      "chip": "ym2612"
    },
    {
      "channel": 3,
      "note": 53,
      "start": 13.1373,
      "duration": 0.1931,
      "velocity": 109,
      "chip": "ym2612"
    },
    {
      "channel": 0,
      "note": 51,
      "start": 13.3296,
      "duration": 0.1871,
      "velocity": 112,
      "chip": "ym2612"
    },
    {
      "channel": 1,
      "note": 24,
      "start": 13.3303,
      "duration": 0.3806,
      "velocity": 112,
      "chip": "ym2612"
    },
    {
      "channel": 3,
      "note": 55,
      "start": 13.331,
      "duration": 0.1868,
      "velocity": 109,
      "chip": "ym2612"
    },
    {
      "channel": 2,
      "note": 30,
      "start": 13.3325,
      "duration": 0.1867,
      "velocity": 119,
      "chip": "ym2612"
    },
    {
      "channel": 0,
      "note": 52,
      "start": 13.5173,
      "duration": 0.1928,
      "velocity": 112,
      "chip": "ym2612"
    },
    {
      "channel": 3,
      "note": 57,
      "start": 13.5183,
      "duration": 0.1933,
      "velocity": 109,
      "chip": "ym2612"
    },
    {
      "channel": 0,
      "note": 50,
      "start": 13.7107,
      "duration": 0.7614,
      "velocity": 112,
      "chip": "ym2612"
    },
    {
      "channel": 1,
      "note": 23,
      "start": 13.7115,
      "duration": 0.3798,
      "velocity": 112,
      "chip": "ym2612"
    },
    {
      "channel": 3,
      "note": 55,
      "start": 13.7122,
      "duration": 0.7613,
      "velocity": 109,
      "chip": "ym2612"
    },
    {
      "channel": 2,
      "note": 30,
      "start": 13.7138,
      "duration": 0.1857,
      "velocity": 119,
      "chip": "ym2612"
    },
    {
      "channel": 1,
      "note": 24,
      "start": 14.0919,
      "duration": 0.3809,
      "velocity": 112,
      "chip": "ym2612"
    },
    {
      "channel": 2,
      "note": 30,
      "start": 14.0938,
      "duration": 0.1866,
      "velocity": 119,
      "chip": "ym2612"
    },
    {
      "channel": 0,
      "note": 48,
      "start": 14.4726,
      "duration": 0.5681,
      "velocity": 112,
      "chip": "ym2612"
    },
    {
      "channel": 1,
      "note": 23,
      "start": 14.4734,
      "duration": 0.38,
      "velocity": 112,
      "chip": "ym2612"
    },
    {
      "channel": 3,
      "note": 53,
      "start": 14.4741,
      "duration": 0.5677,
      "velocity": 109,
      "chip": "ym2612"
    },
    {
      "channel": 2,
      "note": 30,
      "start": 14.4757,
      "duration": 0.1857,
      "velocity": 119,
      "chip": "ym2612"
    },
    {
      "channel": 1,
      "note": 24,
      "start": 14.854,
      "duration": 0.3809,
      "velocity": 112,
      "chip": "ym2612"
    },
    {
      "channel": 2,
      "note": 30,
      "start": 14.8559,
      "duration": 0.1875,
      "velocity": 119,
      "chip": "ym2612"
    },
    {
      "channel": 0,
      "note": 50,
      "start": 15.0413,
      "duration": 0.0946,
      "velocity": 112,
      "chip": "ym2612"
    },
    {
      "channel": 3,
      "note": 55,
      "start": 15.0425,
      "duration": 0.0946,
      "velocity": 109,
      "chip": "ym2612"
    },
    {
      "channel": 0,
      "note": 48,
      "start": 15.1366,
      "duration": 0.0975,
      "velocity": 112,
      "chip": "ym2612"
    },
    {
      "channel": 3,
      "note": 53,
      "start": 15.1376,
      "duration": 0.0981,
      "velocity": 109,
      "chip": "ym2612"
    },
    {
      "channel": 0,
      "note": 47,
      "start": 15.2347,
      "duration": 3.0475,
      "velocity": 112,
      "chip": "ym2612"
    },
    {
      "channel": 1,
      "note": 23,
      "start": 15.2355,
      "duration": 0.3799,
      "velocity": 112,
      "chip": "ym2612"
    },
    {
      "channel": 3,
      "note": 52,
      "start": 15.2363,
      "duration": 3.0475,
      "velocity": 109,
      "chip": "ym2612"
    },
    {
      "channel": 4,
      "note": 71,
      "start": 15.2371,
      "duration": 0.3793,
      "velocity": 109,
      "chip": "ym2612"
    },
    {
      "channel": 5,
      "note": 67,
      "start": 15.2379,
      "duration": 0.3792,
      "velocity": 109,
      "chip": "ym2612"
    },
    {
      "channel": 2,
      "note": 30,
      "start": 15.2388,
      "duration": 0.1847,
      "velocity": 119,
      "chip": "ym2612"
    },
    {
      "channel": 1,
      "note": 24,
      "start": 15.6159,
      "duration": 0.3806,
      "velocity": 112,
      "chip": "ym2612"
    },
    {
      "channel": 4,
      "note": 83,
      "start": 15.617,
      "duration": 2.6676,
      "velocity": 109,
      "chip": "ym2612"
    },
    {
      "channel": 5,
      "note": 79,
      "start": 15.6178,
      "duration": 2.6677,
      "velocity": 109,
      "chip": "ym2612"
    },
    {
      "channel": 2,
      "note": 30,
      "start": 15.6186,
      "duration": 0.1858,
      "velocity": 119,
      "chip": "ym2612"
    },
    {
      "channel": 1,
      "note": 23,
      "start": 15.9971,
      "duration": 0.3804,
      "velocity": 112,
      "chip": "ym2612"
    },
    {
      "channel": 2,
      "note": 30,
      "start": 15.9989,
      "duration": 0.1866,
      "velocity": 119,
      "chip": "ym2612"
    },
    {
      "channel": 1,
      "note": 24,
      "start": 16.378,
      "duration": 0.3807,
      "velocity": 112,
      "chip": "ym2612"
    },
    {
      "channel": 2,
      "note": 30,
      "start": 16.3799,
      "duration": 0.1866,
      "velocity": 119,
      "chip": "ym2612"
    },
    {
      "channel": 1,
      "note": 23,
      "start": 16.7593,
      "duration": 0.3801,
      "velocity": 112,
      "chip": "ym2612"
    },
    {
      "channel": 2,
      "note": 30,
      "start": 16.7611,
      "duration": 0.1864,
      "velocity": 119,
      "chip": "ym2612"
    },
    {
      "channel": 1,
      "note": 24,
      "start": 17.1399,
      "duration": 0.3805,
      "velocity": 112,
      "chip": "ym2612"
    },
    {
      "channel": 2,
      "note": 30,
      "start": 17.1419,
      "duration": 0.1866,
      "velocity": 119,
      "chip": "ym2612"
    },
    {
      "channel": 1,
      "note": 23,
      "start": 17.521,
      "duration": 0.3804,
      "velocity": 112,
      "chip": "ym2612"
    },
    {
      "channel": 2,
      "note": 30,
      "start": 17.5229,
      "duration": 0.1867,
      "velocity": 119,
      "chip": "ym2612"
    },
    {
      "channel": 1,
      "note": 24,
      "start": 17.902,
      "duration": 0.3809,
      "velocity": 112,
      "chip": "ym2612"
    },
    {
      "channel": 2,
      "note": 30,
      "start": 17.9039,
      "duration": 0.1866,
      "velocity": 119,
      "chip": "ym2612"
    },
    {
      "channel": 0,
      "note": 54,
      "start": 18.2827,
      "duration": 0.7614,
      "velocity": 112,
      "chip": "ym2612"
    },
    {
      "channel": 1,
      "note": 23,
      "start": 18.2836,
      "duration": 0.3798,
      "velocity": 112,
      "chip": "ym2612"
    },
    {
      "channel": 3,
      "note": 59,
      "start": 18.2844,
      "duration": 0.7609,
      "velocity": 109,
      "chip": "ym2612"
    },
    {
      "channel": 4,
      "note": 71,
      "start": 18.2852,
      "duration": 0.3792,
      "velocity": 109,
      "chip": "ym2612"
    },
    {
      "channel": 5,
      "note": 67,
      "start": 18.286,
      "duration": 0.3792,
      "velocity": 109,
      "chip": "ym2612"
    },
    {
      "channel": 2,
      "note": 30,
      "start": 18.2869,
      "duration": 0.1847,
      "velocity": 119,
      "chip": "ym2612"
    },
    {
      "channel": 1,
      "note": 24,
      "start": 18.664,
      "duration": 0.3805,
      "velocity": 112,
      "chip": "ym2612"
    },
    {
      "channel": 4,
      "note": 83,
      "start": 18.6651,
      "duration": 2.6674,
      "velocity": 109,
      "chip": "ym2612"
    },
    {
      "channel": 5,
      "note": 79,
      "start": 18.6658,
      "duration": 2.6675,
      "velocity": 109,
      "chip": "ym2612"
    },
    {
      "channel": 2,
      "note": 30,
      "start": 18.6666,
      "duration": 0.1859,
      "velocity": 119,
      "chip": "ym2612"
    },
    {
      "channel": 1,
      "note": 23,
      "start": 19.0451,
      "duration": 0.3808,
      "velocity": 112,
      "chip": "ym2612"
    },
    {
      "channel": 2,
      "note": 30,
      "start": 19.047,
      "duration": 0.1874,
      "velocity": 119,
      "chip": "ym2612"
    },
    {
      "channel": 0,
      "note": 52,
      "start": 19.2324,
      "duration": 0.1929,
      "velocity": 112,
      "chip": "ym2612"
    },
    {
      "channel": 3,
      "note": 57,
      "start": 19.2335,
      "duration": 0.1931,
      "velocity": 109,
      "chip": "ym2612"
    },
    {
      "channel": 0,
      "note": 54,
      "start": 19.4258,
      "duration": 0.187,
      "velocity": 112,
      "chip": "ym2612"
    },
    {
      "channel": 1,
      "note": 24,
      "start": 19.4265,
      "duration": 0.3804,
      "velocity": 112,
      "chip": "ym2612"
    },
    {
      "channel": 3,
      "note": 59,
      "start": 19.4272,
      "duration": 0.1867,
      "velocity": 109,
      "chip": "ym2612"
    },
    {
      "channel": 2,
      "note": 30,
      "start": 19.4288,
      "duration": 0.1866,
      "velocity": 119,
      "chip": "ym2612"
    },
    {
      "channel": 0,
      "note": 55,
      "start": 19.6134,
      "duration": 0.1927,
      "velocity": 112,
      "chip": "ym2612"
    },
    {
      "channel": 3,
      "note": 60,
      "start": 19.6145,
      "duration": 0.1931,
      "velocity": 109,
      "chip": "ym2612"
    },
    {
      "channel": 0,
      "note": 57,
      "start": 19.8067,
      "duration": 0.7615,
      "velocity": 112,
      "chip": "ym2612"
    },
    {
      "channel": 1,
      "note": 23,
      "start": 19.8075,
      "duration": 0.3804,
      "velocity": 112,
      "chip": "ym2612"
    },
    {
      "channel": 3,
      "note": 62,
      "start": 19.8083,
      "duration": 0.7614,
      "velocity": 109,
      "chip": "ym2612"
    },
    {
      "channel": 2,
      "note": 30,
      "start": 19.8098,
      "duration": 0.1858,
      "velocity": 119,
      "chip": "ym2612"
    },
    {
      "channel": 1,
      "note": 24,
      "start": 20.1884,
      "duration": 0.3805,
      "velocity": 112,
      "chip": "ym2612"
    },
    {
      "channel": 2,
      "note": 30,
      "start": 20.1903,
      "duration": 0.1864,
      "velocity": 119,
      "chip": "ym2612"
    },
    {
      "channel": 0,
      "note": 55,
      "start": 20.5687,
      "duration": 0.5681,
      "velocity": 112,
      "chip": "ym2612"
    },
    {
      "channel": 1,
      "note": 23,
      "start": 20.5696,
      "duration": 0.3799,
      "velocity": 112,
      "chip": "ym2612"
    },
    {
      "channel": 3,
      "note": 60,
      "start": 20.5703,
      "duration": 0.5676,
      "velocity": 109,
      "chip": "ym2612"
    },
    {
      "channel": 2,
      "note": 30,
      "start": 20.5719,
      "duration": 0.1857,
      "velocity": 119,
      "chip": "ym2612"
    },
    {
      "channel": 1,
      "note": 24,
      "start": 20.95,
      "duration": 0.381,
      "velocity": 112,
      "chip": "ym2612"
    },
    {
      "channel": 2,
      "note": 30,
      "start": 20.9519,
      "duration": 0.1875,
      "velocity": 119,
      "chip": "ym2612"
    },
    {
      "channel": 0,
      "note": 57,
      "start": 21.1374,
      "duration": 0.0947,
      "velocity": 112,
      "chip": "ym2612"
    },
    {
      "channel": 3,
      "note": 62,
      "start": 21.1385,
      "duration": 0.0946,
      "velocity": 109,
      "chip": "ym2612"
    },
    {
      "channel": 0,
      "note": 55,
      "start": 21.2327,
      "duration": 0.0974,
      "velocity": 112,
      "chip": "ym2612"
    },
    {
      "channel": 3,
      "note": 60,
      "start": 21.2337,
      "duration": 0.0979,
      "velocity": 109,
      "chip": "ym2612"
    },
    {
      "channel": 0,
      "note": 54,
      "start": 21.3307,
      "duration": 0.7615,
      "velocity": 112,
      "chip": "ym2612"
    },
    {
      "channel": 1,
      "note": 23,
      "start": 21.3315,
      "duration": 0.3802,
      "velocity": 112,
      "chip": "ym2612"
    },
    {
      "channel": 3,
      "note": 59,
      "start": 21.3323,
      "duration": 0.7611,
      "velocity": 109,
      "chip": "ym2612"
    },
    {
      "channel": 4,
      "note": 71,
      "start": 21.3331,
      "duration": 0.3796,
      "velocity": 109,
      "chip": "ym2612"
    },
    {
      "channel": 5,
      "note": 67,
      "start": 21.3339,
      "duration": 0.3795,
      "velocity": 109,
      "chip": "ym2612"
    },
    {
      "channel": 2,
      "note": 30,
      "start": 21.3348,
      "duration": 0.1849,
      "velocity": 119,
      "chip": "ym2612"
    },
    {
      "channel": 1,
      "note": 24,
      "start": 21.7122,
      "duration": 0.3804,
      "velocity": 112,
      "chip": "ym2612"
    },
    {
      "channel": 4,
      "note": 83,
      "start": 21.7133,
      "duration": 2.6672,
      "velocity": 109,
      "chip": "ym2612"
    },
    {
      "channel": 5,
      "note": 79,
      "start": 21.7141,
      "duration": 2.6673,
      "velocity": 109,
      "chip": "ym2612"
    },
    {
      "channel": 2,
      "note": 30,
      "start": 21.7149,
      "duration": 0.1857,
      "velocity": 119,
      "chip": "ym2612"
    },
    {
      "channel": 1,
      "note": 23,
      "start": 22.0932,
      "duration": 0.3808,
      "velocity": 112,
      "chip": "ym2612"
    },
    {
      "channel": 2,
      "note": 30,
      "start": 22.0951,
      "duration": 0.1873,
      "velocity": 119,
      "chip": "ym2612"
    },
    {
      "channel": 0,
      "note": 52,
      "start": 22.2804,
      "duration": 0.1928,
      "velocity": 112,
      "chip": "ym2612"
    },
    {
      "channel": 3,
      "note": 57,
      "start": 22.2815,
      "duration": 0.1932,
      "velocity": 109,
      "chip": "ym2612"
    },
    {
      "channel": 0,
      "note": 54,
      "start": 22.4738,
      "duration": 0.187,
      "velocity": 112,
      "chip": "ym2612"
    },
    {
      "channel": 1,
      "note": 24,
      "start": 22.4745,
      "duration": 0.3805,
      "velocity": 112,
      "chip": "ym2612"
    },
    {
      "channel": 3,
      "note": 59,
      "start": 22.4753,
      "duration": 0.1866,
      "velocity": 109,
      "chip": "ym2612"
    },
    {
      "channel": 2,
      "note": 30,
      "start": 22.4769,
      "duration": 0.1865,
      "velocity": 119,
      "chip": "ym2612"
    },
    {
      "channel": 0,
      "note": 55,
      "start": 22.6614,
      "duration": 0.1929,
      "velocity": 112,
      "chip": "ym2612"
    },
    {
      "channel": 3,
      "note": 60,
      "start": 22.6624,
      "duration": 0.1933,
      "velocity": 109,
      "chip": "ym2612"
    },
    {
      "channel": 0,
      "note": 54,
      "start": 22.8548,
      "duration": 0.7614,
      "velocity": 112,
      "chip": "ym2612"
    },
    {
      "channel": 1,
      "note": 23,
      "start": 22.8556,
      "duration": 0.3799,
      "velocity": 112,
      "chip": "ym2612"
    },
    {
      "channel": 3,
      "note": 59,
      "start": 22.8564,
      "duration": 0.7613,
      "velocity": 109,
      "chip": "ym2612"
    },
    {
      "channel": 2,
      "note": 30,
      "start": 22.858,
      "duration": 0.1857,
      "velocity": 119,
      "chip": "ym2612"
    },
    {
      "channel": 1,
      "note": 24,
      "start": 23.236,
      "duration": 0.3809,
      "velocity": 112,
      "chip": "ym2612"
    },
    {
      "channel": 2,
      "note": 30,
      "start": 23.2379,
      "duration": 0.1867,
      "velocity": 119,
      "chip": "ym2612"
    },
    {
      "channel": 0,
      "note": 52,
      "start": 23.6168,
      "duration": 0.5681,
      "velocity": 112,
      "chip": "ym2612"
    },
    {
      "channel": 1,
      "note": 23,
      "start": 23.6176,
      "duration": 0.38,
      "velocity": 112,
      "chip": "ym2612"
    },
    {
      "channel": 3,
      "note": 57,
      "start": 23.6183,
      "duration": 0.5676,
      "velocity": 109,
      "chip": "ym2612"
    },
    {
      "channel": 2,
      "note": 30,
      "start": 23.6199,
      "duration": 0.1858,
      "velocity": 119,
      "chip": "ym2612"
    },
    {
      "channel": 1,
      "note": 24,
      "start": 23.9981,
      "duration": 0.3809,
      "velocity": 112,
      "chip": "ym2612"
    },
    {
      "channel": 2,
      "note": 30,
      "start": 24.0,
      "duration": 0.1875,
      "velocity": 119,
      "chip": "ym2612"
    },
    {
      "channel": 0,
      "note": 54,
      "start": 24.1855,
      "duration": 0.0946,
      "velocity": 112,
      "chip": "ym2612"
    },
    {
      "channel": 3,
      "note": 59,
      "start": 24.1866,
      "duration": 0.0945,
      "velocity": 109,
      "chip": "ym2612"
    },
    {
      "channel": 0,
      "note": 52,
      "start": 24.2806,
      "duration": 0.0976,
      "velocity": 112,
      "chip": "ym2612"
    },
    {
      "channel": 3,
      "note": 57,
      "start": 24.2817,
      "duration": 0.098,
      "velocity": 109,
      "chip": "ym2612"
    },
    {
      "channel": 0,
      "note": 51,
      "start": 24.3788,
      "duration": 0.7614,
      "velocity": 112,
      "chip": "ym2612"
    },
    {
      "channel": 1,
      "note": 23,
      "start": 24.3796,
      "duration": 0.3801,
      "velocity": 112,
      "chip": "ym2612"
    },
    {
      "channel": 3,
      "note": 55,
      "start": 24.3804,
      "duration": 0.7611,
      "velocity": 109,
      "chip": "ym2612"
    },
    {
      "channel": 4,
      "note": 71,
      "start": 24.3812,
      "duration": 0.3795,
      "velocity": 109,
      "chip": "ym2612"
    },
    {
      "channel": 5,
      "note": 67,
      "start": 24.382,
      "duration": 0.3794,
      "velocity": 109,
      "chip": "ym2612"
    },
    {
      "channel": 2,
      "note": 30,
      "start": 24.3829,
      "duration": 0.1849,
      "velocity": 119,
      "chip": "ym2612"
    },
    {
      "channel": 1,
      "note": 24,
      "start": 24.7602,
      "duration": 0.3804,
      "velocity": 112,
      "chip": "ym2612"
    },
    {
      "channel": 4,
      "note": 83,
      "start": 24.7614,
      "duration": 2.6676,
      "velocity": 109,
      "chip": "ym2612"
    },
    {
      "channel": 5,
      "note": 79,
      "start": 24.7621,
      "duration": 2.6676,
      "velocity": 109,
      "chip": "ym2612"
    },
    {
      "channel": 2,
      "note": 30,
      "start": 24.7629,
      "duration": 0.1858,
      "velocity": 119,
      "chip": "ym2612"
    },
    {
      "channel": 1,
      "note": 23,
      "start": 25.1412,
      "duration": 0.3807,
      "velocity": 112,
      "chip": "ym2612"
    },
    {
      "channel": 2,
      "note": 30,
      "start": 25.1432,
      "duration": 0.1874,
      "velocity": 119,
      "chip": "ym2612"
    },
    {
      "channel": 0,
      "note": 49,
      "start": 25.3285,
      "duration": 0.1926,
      "velocity": 112,
      "chip": "ym2612"
    },
    {
      "channel": 3,
      "note": 53,
      "start": 25.3297,
      "duration": 0.1929,
      "velocity": 109,
      "chip": "ym2612"
    },
    {
      "channel": 0,
      "note": 51,
      "start": 25.5217,
      "duration": 0.1872,
      "velocity": 112,
      "chip": "ym2612"
    },
    {
      "channel": 1,
      "note": 24,
      "start": 25.5225,
      "duration": 0.3805,
      "velocity": 112,
      "chip": "ym2612"
    },
    {
      "channel": 3,
      "note": 55,
      "start": 25.5232,
      "duration": 0.1868,
      "velocity": 109,
      "chip": "ym2612"
    },
    {
      "channel": 2,
      "note": 30,
      "start": 25.5248,
      "duration": 0.1867,
      "velocity": 119,
      "chip": "ym2612"
    },
    {
      "channel": 0,
      "note": 52,
      "start": 25.7095,
      "duration": 0.1927,
      "velocity": 112,
      "chip": "ym2612"
    },
    {
      "channel": 3,
      "note": 57,
      "start": 25.7106,
      "duration": 0.1931,
      "velocity": 109,
      "chip": "ym2612"
    },
    {
      "channel": 0,
      "note": 50,
      "start": 25.9028,
      "duration": 0.7615,
      "velocity": 112,
      "chip": "ym2612"
    },
    {
      "channel": 1,
      "note": 23,
      "start": 25.9036,
      "duration": 0.3801,
      "velocity": 112,
      "chip": "ym2612"
    },
    {
      "channel": 3,
      "note": 55,
      "start": 25.9044,
      "duration": 0.7615,
      "velocity": 109,
      "chip": "ym2612"
    },
    {
      "channel": 2,
      "note": 30,
      "start": 25.9059,
      "duration": 0.1859,
      "velocity": 119,
      "chip": "ym2612"
    },
    {
      "channel": 1,
      "note": 24,
      "start": 26.2842,
      "duration": 0.3809,
      "velocity": 112,
      "chip": "ym2612"
    },
    {
      "channel": 2,
      "note": 30,
      "start": 26.2861,
      "duration": 0.1867,
      "velocity": 119,
      "chip": "ym2612"
    },
    {
      "channel": 0,
      "note": 48,
      "start": 26.6649,
      "duration": 0.5681,
      "velocity": 112,
      "chip": "ym2612"
    },
    {
      "channel": 1,
      "note": 23,
      "start": 26.6657,
      "duration": 0.38,
      "velocity": 112,
      "chip": "ym2612"
    },
    {
      "channel": 3,
      "note": 53,
      "start": 26.6664,
      "duration": 0.5676,
      "velocity": 109,
      "chip": "ym2612"
    },
    {
      "channel": 2,
      "note": 30,
      "start": 26.668,
      "duration": 0.1859,
      "velocity": 119,
      "chip": "ym2612"
    },
    {
      "channel": 1,
      "note": 24,
      "start": 27.0462,
      "duration": 0.381,
      "velocity": 112,
      "chip": "ym2612"
    },
    {
      "channel": 2,
      "note": 30,
      "start": 27.0481,
      "duration": 0.1875,
      "velocity": 119,
      "chip": "ym2612"
    },
    {
      "channel": 0,
      "note": 50,
      "start": 27.2336,
      "duration": 0.0946,
      "velocity": 112,
      "chip": "ym2612"
    },
    {
      "channel": 3,
      "note": 55,
      "start": 27.2346,
      "duration": 0.0946,
      "velocity": 109,
      "chip": "ym2612"
    },
    {
      "channel": 0,
      "note": 48,
      "start": 27.3287,
      "duration": 0.0977,
      "velocity": 112,
      "chip": "ym2612"
    },
    {
      "channel": 3,
      "note": 53,
      "start": 27.3298,
      "duration": 0.0983,
      "velocity": 109,
      "chip": "ym2612"
    },
    {
      "channel": 0,
      "note": 47,
      "start": 27.4271,
      "duration": 0.7612,
      "velocity": 112,
      "chip": "ym2612"
    },
    {
      "channel": 1,
      "note": 23,
      "start": 27.4278,
      "duration": 0.3798,
      "velocity": 112,
      "chip": "ym2612"
    },
    {
      "channel": 3,
      "note": 52,
      "start": 27.4287,
      "duration": 0.7611,
      "velocity": 109,
      "chip": "ym2612"
    },
    {
      "channel": 4,
      "note": 71,
      "start": 27.4295,
      "duration": 0.3793,
      "velocity": 109,
      "chip": "ym2612"
    },
    {
      "channel": 5,
      "note": 67,
      "start": 27.4303,
      "duration": 0.3793,
      "velocity": 109,
      "chip": "ym2612"
    },
    {
      "channel": 2,
      "note": 30,
      "start": 27.4311,
      "duration": 0.1847,
      "velocity": 119,
      "chip": "ym2612"
    },
    {
      "channel": 1,
      "note": 24,
      "start": 27.8083,
      "duration": 0.3807,
      "velocity": 112,
      "chip": "ym2612"
    },
    {
      "channel": 4,
      "note": 83,
      "start": 27.8095,
      "duration": 2.6675,
      "velocity": 109,
      "chip": "ym2612"
    },
    {
      "channel": 5,
      "note": 79,
      "start": 27.8102,
      "duration": 2.6676,
      "velocity": 109,
      "chip": "ym2612"
    },
    {
      "channel": 2,
      "note": 30,
      "start": 27.811,
      "duration": 0.1857,
      "velocity": 119,
      "chip": "ym2612"
    },
    {
      "channel": 0,
      "note": 47,
      "start": 28.1888,
      "duration": 0.0919,
      "velocity": 112,
      "chip": "ym2612"
    },
    {
      "channel": 1,
      "note": 23,
      "start": 28.1897,
      "duration": 0.3805,
      "velocity": 112,
      "chip": "ym2612"
    },
    {
      "channel": 3,
      "note": 52,
      "start": 28.1904,
      "duration": 0.0914,
      "velocity": 109,
      "chip": "ym2612"
    },
    {
      "channel": 2,
      "note": 30,
      "start": 28.192,
      "duration": 0.1867,
      "velocity": 119,
      "chip": "ym2612"
    },
    {
      "channel": 0,
      "note": 48,
      "start": 28.2813,
      "duration": 0.0948,
      "velocity": 112,
      "chip": "ym2612"
    },
    {
      "channel": 3,
      "note": 53,
      "start": 28.2824,
      "duration": 0.0949,
      "velocity": 109,
      "chip": "ym2612"
    },
    {
      "channel": 0,
      "note": 47,
      "start": 28.3766,
      "duration": 0.0946,
      "velocity": 112,
      "chip": "ym2612"
    },
    {
      "channel": 3,
      "note": 52,
      "start": 28.3778,
      "duration": 0.0945,
      "velocity": 109,
      "chip": "ym2612"
    },
    {
      "channel": 0,
      "note": 48,
      "start": 28.4718,
      "duration": 0.0976,
      "velocity": 112,
      "chip": "ym2612"
    },
    {
      "channel": 3,
      "note": 53,
      "start": 28.4729,
      "duration": 0.0981,
      "velocity": 109,
      "chip": "ym2612"
    },
    {
      "channel": 0,
      "note": 47,
      "start": 28.57,
      "duration": 0.0918,
      "velocity": 112,
      "chip": "ym2612"
    },
    {
      "channel": 1,
      "note": 24,
      "start": 28.5708,
      "duration": 0.3804,
      "velocity": 112,
      "chip": "ym2612"
    },
    {
      "channel": 3,
      "note": 52,
      "start": 28.5716,
      "duration": 0.0912,
      "velocity": 109,
      "chip": "ym2612"
    },
    {
      "channel": 2,
      "note": 30,
      "start": 28.5731,
      "duration": 0.1867,
      "velocity": 119,
      "chip": "ym2612"
    },
    {
      "channel": 0,
      "note": 48,
      "start": 28.6624,
      "duration": 0.0947,
      "velocity": 112,
      "chip": "ym2612"
    },
    {
      "channel": 3,
      "note": 53,
      "start": 28.6634,
      "duration": 0.0949,
      "velocity": 109,
      "chip": "ym2612"
    },
    {
      "channel": 0,
      "note": 47,
      "start": 28.7577,
      "duration": 0.0945,
      "velocity": 112,
      "chip": "ym2612"
    },
    {
      "channel": 3,
      "note": 52,
      "start": 28.7589,
      "duration": 0.0944,
      "velocity": 109,
      "chip": "ym2612"
    },
    {
      "channel": 0,
      "note": 48,
      "start": 28.8528,
      "duration": 0.0976,
      "velocity": 112,
      "chip": "ym2612"
    },
    {
      "channel": 3,
      "note": 53,
      "start": 28.8539,
      "duration": 0.0981,
      "velocity": 109,
      "chip": "ym2612"
    },
    {
      "channel": 0,
      "note": 47,
      "start": 28.951,
      "duration": 0.0918,
      "velocity": 112,
      "chip": "ym2612"
    },
    {
      "channel": 1,
      "note": 23,
      "start": 28.9517,
      "duration": 0.3804,
      "velocity": 112,
      "chip": "ym2612"
    },
    {
      "channel": 3,
      "note": 52,
      "start": 28.9526,
      "duration": 0.0913,
      "velocity": 109,
      "chip": "ym2612"
    },
    {
      "channel": 2,
      "note": 30,
      "start": 28.9542,
      "duration": 0.1866,
      "velocity": 119,
      "chip": "ym2612"
    },
    {
      "channel": 0,
      "note": 48,
      "start": 29.0434,
      "duration": 0.0948,
      "velocity": 112,
      "chip": "ym2612"
    },
    {
      "channel": 3,
      "note": 53,
      "start": 29.0444,
      "duration": 0.0948,
      "velocity": 109,
      "chip": "ym2612"
    },
    {
      "channel": 0,
      "note": 47,
      "start": 29.1387,
      "duration": 0.0945,
      "velocity": 112,
      "chip": "ym2612"
    },
    {
      "channel": 3,
      "note": 52,
      "start": 29.1399,
      "duration": 0.0944,
      "velocity": 109,
      "chip": "ym2612"
    },
    {
      "channel": 0,
      "note": 48,
      "start": 29.2338,
      "duration": 0.0976,
      "velocity": 112,
      "chip": "ym2612"
    },
    {
      "channel": 3,
      "note": 53,
      "start": 29.2349,
      "duration": 0.0981,
      "velocity": 109,
      "chip": "ym2612"
    },
    {
      "channel": 0,
      "note": 47,
      "start": 29.332,
      "duration": 0.0917,
      "velocity": 112,
      "chip": "ym2612"
    },
    {
      "channel": 1,
      "note": 24,
      "start": 29.3327,
      "duration": 0.3805,
      "velocity": 112,
      "chip": "ym2612"
    },
    {
      "channel": 3,
      "note": 52,
      "start": 29.3336,
      "duration": 0.0913,
      "velocity": 109,
      "chip": "ym2612"
    },
    {
      "channel": 2,
      "note": 30,
      "start": 29.3351,
      "duration": 0.1866,
      "velocity": 119,
      "chip": "ym2612"
    },
    {
      "channel": 0,
      "note": 48,
      "start": 29.4243,
      "duration": 0.0948,
      "velocity": 112,
      "chip": "ym2612"
    },
    {
      "channel": 3,
      "note": 53,
      "start": 29.4254,
      "duration": 0.0948,
      "velocity": 109,
      "chip": "ym2612"
    },
    {
      "channel": 0,
      "note": 47,
      "start": 29.5196,
      "duration": 0.0947,
      "velocity": 112,
      "chip": "ym2612"
    },
    {
      "channel": 3,
      "note": 52,
      "start": 29.5208,
      "duration": 0.0945,
      "velocity": 109,
      "chip": "ym2612"
    },
    {
      "channel": 0,
      "note": 48,
      "start": 29.6149,
      "duration": 0.0976,
      "velocity": 112,
      "chip": "ym2612"
    },
    {
      "channel": 3,
      "note": 53,
      "start": 29.6159,
      "duration": 0.0981,
      "velocity": 109,
      "chip": "ym2612"
    },
    {
      "channel": 0,
      "note": 47,
      "start": 29.7131,
      "duration": 0.0916,
      "velocity": 112,
      "chip": "ym2612"
    },
    {
      "channel": 1,
      "note": 23,
      "start": 29.7138,
      "duration": 0.3804,
      "velocity": 112,
      "chip": "ym2612"
    },
    {
      "channel": 3,
      "note": 52,
      "start": 29.7147,
      "duration": 0.0911,
      "velocity": 109,
      "chip": "ym2612"
    },
    {
      "channel": 2,
      "note": 30,
      "start": 29.7163,
      "duration": 0.1866,
      "velocity": 119,
      "chip": "ym2612"
    },
    {
      "channel": 0,
      "note": 48,
      "start": 29.8052,
      "duration": 0.0949,
      "velocity": 112,
      "chip": "ym2612"
    },
    {
      "channel": 3,
      "note": 53,
      "start": 29.8063,
      "duration": 0.095,
      "velocity": 109,
      "chip": "ym2612"
    },
    {
      "channel": 0,
      "note": 47,
      "start": 29.9007,
      "duration": 0.0946,
      "velocity": 112,
      "chip": "ym2612"
    },
    {
      "channel": 3,
      "note": 52,
      "start": 29.902,
      "duration": 0.0945,
      "velocity": 109,
      "chip": "ym2612"
    },
    {
      "channel": 0,
      "note": 48,
      "start": 29.9959,
      "duration": 0.0976,
      "velocity": 112,
      "chip": "ym2612"
    },
    {
      "channel": 3,
      "note": 53,
      "start": 29.997,
      "duration": 0.098,
      "velocity": 109,
      "chip": "ym2612"
    },
    {
      "channel": 0,
      "note": 47,
      "start": 30.0941,
      "duration": 0.0917,
      "velocity": 112,
      "chip": "ym2612"
    },
    {
      "channel": 1,
      "note": 24,
      "start": 30.0948,
      "duration": 0.3805,
      "velocity": 112,
      "chip": "ym2612"
    },
    {
      "channel": 3,
      "note": 52,
      "start": 30.0956,
      "duration": 0.0912,
      "velocity": 109,
      "chip": "ym2612"
    },
    {
      "channel": 2,
      "note": 30,
      "start": 30.0972,
      "duration": 0.1866,
      "velocity": 119,
      "chip": "ym2612"
    },
    {
      "channel": 0,
      "note": 48,
      "start": 30.1863,
      "duration": 0.0947,
      "velocity": 112,
      "chip": "ym2612"
    },
    {
      "channel": 3,
      "note": 53,
      "start": 30.1874,
      "duration": 0.0949,
      "velocity": 109,
      "chip": "ym2612"
    },
    {
      "channel": 0,
      "note": 47,
      "start": 30.2817,
      "duration": 0.0946,
      "velocity": 112,
      "chip": "ym2612"
    },
    {
      "channel": 3,
      "note": 52,
      "start": 30.2829,
      "duration": 0.0945,
      "velocity": 109,
      "chip": "ym2612"
    },
    {
      "channel": 0,
      "note": 48,
      "start": 30.3768,
      "duration": 0.0977,
      "velocity": 112,
      "chip": "ym2612"
    },
    {
      "channel": 3,
      "note": 53,
      "start": 30.3779,
      "duration": 0.0982,
      "velocity": 109,
      "chip": "ym2612"
    },
    {
      "channel": 0,
      "note": 54,
      "start": 30.4751,
      "duration": 0.7612,
      "velocity": 112,
      "chip": "ym2612"
    },
    {
      "channel": 1,
      "note": 23,
      "start": 30.4759,
      "duration": 0.3798,
      "velocity": 112,
      "chip": "ym2612"
    },
    {
      "channel": 3,
      "note": 59,
      "start": 30.4768,
      "duration": 0.7607,
      "velocity": 109,
      "chip": "ym2612"
    },
    {
      "channel": 4,
      "note": 71,
      "start": 30.4776,
      "duration": 0.3791,
      "velocity": 109,
      "chip": "ym2612"
    },
    {
      "channel": 5,
      "note": 67,
      "start": 30.4784,
      "duration": 0.3791,
      "velocity": 109,
      "chip": "ym2612"
    },
    {
      "channel": 2,
      "note": 30,
      "start": 30.4792,
      "duration": 0.1847,
      "velocity": 119,
      "chip": "ym2612"
    },
    {
      "channel": 1,
      "note": 24,
      "start": 30.8562,
      "duration": 0.3805,
      "velocity": 112,
      "chip": "ym2612"
    },
    {
      "channel": 4,
      "note": 83,
      "start": 30.8573,
      "duration": 2.6676,
      "velocity": 109,
      "chip": "ym2612"
    },
    {
      "channel": 5,
      "note": 79,
      "start": 30.8582,
      "duration": 2.6676,
      "velocity": 109,
      "chip": "ym2612"
    },
    {
      "channel": 2,
      "note": 30,
      "start": 30.859,
      "duration": 0.1859,
      "velocity": 119,
      "chip": "ym2612"
    },
    {
      "channel": 1,
      "note": 23,
      "start": 31.2373,
      "duration": 0.3808,
      "velocity": 112,
      "chip": "ym2612"
    },
    {
      "channel": 2,
      "note": 30,
      "start": 31.2392,
      "duration": 0.1876,
      "velocity": 119,
      "chip": "ym2612"
    },
    {
      "channel": 0,
      "note": 55,
      "start": 31.4247,
      "duration": 0.1926,
      "velocity": 112,
      "chip": "ym2612"
    },
    {
      "channel": 3,
      "note": 57,
      "start": 31.4259,
      "duration": 0.1929,
      "velocity": 109,
      "chip": "ym2612"
    },
    {
      "channel": 0,
      "note": 57,
      "start": 31.6179,
      "duration": 0.1872,
      "velocity": 112,
      "chip": "ym2612"
    },
    {
      "channel": 1,
      "note": 24,
      "start": 31.6186,
      "duration": 0.3806,
      "velocity": 112,
      "chip": "ym2612"
    },
    {
      "channel": 3,
      "note": 59,
      "start": 31.6194,
      "duration": 0.1868,
      "velocity": 109,
      "chip": "ym2612"
    },
    {
      "channel": 2,
      "note": 30,
      "start": 31.6209,
      "duration": 0.1868,
      "velocity": 119,
      "chip": "ym2612"
    },
    {
      "channel": 0,
      "note": 59,
      "start": 31.8057,
      "duration": 0.1927,
      "velocity": 112,
      "chip": "ym2612"
    },
    {
      "channel": 3,
      "note": 60,
      "start": 31.8068,
      "duration": 0.1932,
      "velocity": 109,
      "chip": "ym2612"
    },
    {
      "channel": 0,
      "note": 60,
      "start": 31.999,
      "duration": 0.3803,
      "velocity": 112,
      "chip": "ym2612"
    },
    {
      "channel": 1,
      "note": 23,
      "start": 31.9998,
      "duration": 0.3803,
      "velocity": 112,
      "chip": "ym2612"
    },
    {
      "channel": 3,
      "note": 62,
      "start": 32.0006,
      "duration": 0.7615,
      "velocity": 109,
      "chip": "ym2612"
    },
    {
      "channel": 2,
      "note": 30,
      "start": 32.0021,
      "duration": 0.1858,
      "velocity": 119,
      "chip": "ym2612"
    },
    {
      "channel": 0,
      "note": 59,
      "start": 32.3799,
      "duration": 0.3806,
      "velocity": 112,
      "chip": "ym2612"
    },
    {
      "channel": 1,
      "note": 24,
      "start": 32.3806,
      "duration": 0.3807,
      "velocity": 112,
      "chip": "ym2612"
    },
    {
      "channel": 2,
      "note": 30,
      "start": 32.3825,
      "duration": 0.1864,
      "velocity": 119,
      "chip": "ym2612"
    },
    {
      "channel": 0,
      "note": 62,
      "start": 32.7611,
      "duration": 0.3803,
      "velocity": 112,
      "chip": "ym2612"
    },
    {
      "channel": 1,
      "note": 23,
      "start": 32.7619,
      "duration": 0.3803,
      "velocity": 112,
      "chip": "ym2612"
    },
    {
      "channel": 3,
      "note": 60,
      "start": 32.7626,
      "duration": 0.5671,
      "velocity": 109,
      "chip": "ym2612"
    },
    {
      "channel": 2,
      "note": 30,
      "start": 32.7641,
      "duration": 0.1857,
      "velocity": 119,
      "chip": "ym2612"
    },
    {
      "channel": 0,
      "note": 59,
      "start": 33.142,
      "duration": 0.3803,
      "velocity": 112,
      "chip": "ym2612"
    },
    {
      "channel": 1,
      "note": 24,
      "start": 33.1427,
      "duration": 0.3805,
      "velocity": 112,
      "chip": "ym2612"
    },
    {
      "channel": 2,
      "note": 30,
      "start": 33.1446,
      "duration": 0.1866,
      "velocity": 119,
      "chip": "ym2612"
    },
    {
      "channel": 3,
      "note": 62,
      "start": 33.3304,
      "duration": 0.0947,
      "velocity": 109,
      "chip": "ym2612"
    },
    {
      "channel": 3,
      "note": 60,
      "start": 33.4257,
      "duration": 0.0983,
      "velocity": 109,
      "chip": "ym2612"
    },
    {
      "channel": 0,
      "note": 64,
      "start": 33.523,
      "duration": 0.7615,
      "velocity": 112,
      "chip": "ym2612"
    },
    {
      "channel": 1,
      "note": 23,
      "start": 33.5238,
      "duration": 0.38,
      "velocity": 112,
      "chip": "ym2612"
    },
    {
      "channel": 3,
      "note": 59,
      "start": 33.5246,
      "duration": 0.7613,
      "velocity": 109,
      "chip": "ym2612"
    },
    {
      "channel": 4,
      "note": 71,
      "start": 33.5255,
      "duration": 0.3793,
      "velocity": 109,
      "chip": "ym2612"
    },
    {
      "channel": 5,
      "note": 67,
      "start": 33.5264,
      "duration": 0.3792,
      "velocity": 109,
      "chip": "ym2612"
    },
    {
      "channel": 2,
      "note": 30,
      "start": 33.5272,
      "duration": 0.1847,
      "velocity": 119,
      "chip": "ym2612"
    },
    {
      "channel": 1,
      "note": 24,
      "start": 33.9043,
      "duration": 0.3809,
      "velocity": 112,
      "chip": "ym2612"
    },
    {
      "channel": 4,
      "note": 83,
      "start": 33.9054,
      "duration": 2.6675,
      "velocity": 109,
      "chip": "ym2612"
    },
    {
      "channel": 5,
      "note": 79,
      "start": 33.9062,
      "duration": 2.6676,
      "velocity": 109,
      "chip": "ym2612"
    },
    {
      "channel": 2,
      "note": 30,
      "start": 33.907,
      "duration": 0.1859,
      "velocity": 119,
      "chip": "ym2612"
    },
    {
      "channel": 0,
      "note": 66,
      "start": 34.285,
      "duration": 0.5681,
      "velocity": 112,
      "chip": "ym2612"
    },
    {
      "channel": 1,
      "note": 23,
      "start": 34.2859,
      "duration": 0.38,
      "velocity": 112,
      "chip": "ym2612"
    },
    {
      "channel": 2,
      "note": 30,
      "start": 34.2877,
      "duration": 0.1867,
      "velocity": 119,
      "chip": "ym2612"
    },
    {
      "channel": 3,
      "note": 57,
      "start": 34.4735,
      "duration": 0.193,
      "velocity": 109,
      "chip": "ym2612"
    },
    {
      "channel": 1,
      "note": 24,
      "start": 34.6663,
      "duration": 0.381,
      "velocity": 112,
      "chip": "ym2612"
    },
    {
      "channel": 3,
      "note": 59,
      "start": 34.6671,
      "duration": 0.1872,
      "velocity": 109,
      "chip": "ym2612"
    },
    {
      "channel": 2,
      "note": 30,
      "start": 34.6686,
      "duration": 0.1871,
      "velocity": 119,
      "chip": "ym2612"
    },
    {
      "channel": 0,
      "note": 64,
      "start": 34.8538,
      "duration": 0.1927,
      "velocity": 112,
      "chip": "ym2612"
    },
    {
      "channel": 3,
      "note": 60,
      "start": 34.8549,
      "duration": 0.1932,
      "velocity": 109,
      "chip": "ym2612"
    },
    {
      "channel": 0,
      "note": 63,
      "start": 35.0471,
      "duration": 0.7614,
      "velocity": 112,
      "chip": "ym2612"
    },
    {
      "channel": 1,
      "note": 23,
      "start": 35.0479,
      "duration": 0.3799,
      "velocity": 112,
      "chip": "ym2612"
    },
    {
      "channel": 3,
      "note": 62,
      "start": 35.0487,
      "duration": 0.7613,
      "velocity": 109,
      "chip": "ym2612"
    },
    {
      "channel": 2,
      "note": 30,
      "start": 35.0502,
      "duration": 0.1857,
      "velocity": 119,
      "chip": "ym2612"
    },
    {
      "channel": 1,
      "note": 24,
      "start": 35.4284,
      "duration": 0.3809,
      "velocity": 112,
      "chip": "ym2612"
    },
    {
      "channel": 2,
      "note": 30,
      "start": 35.4302,
      "duration": 0.1867,
      "velocity": 119,
      "chip": "ym2612"
    },
    {
      "channel": 0,
      "note": 60,
      "start": 35.8091,
      "duration": 0.187,
      "velocity": 112,
      "chip": "ym2612"
    },
    {
      "channel": 1,
      "note": 23,
      "start": 35.8099,
      "duration": 0.3804,
      "velocity": 112,
      "chip": "ym2612"
    },
    {
      "channel": 3,
      "note": 60,
      "start": 35.8107,
      "duration": 0.5672,
      "velocity": 109,
      "chip": "ym2612"
    },
    {
      "channel": 2,
      "note": 30,
      "start": 35.8122,
      "duration": 0.1861,
      "velocity": 119,
      "chip": "ym2612"
    },
    {
      "channel": 0,
      "note": 63,
      "start": 35.9967,
      "duration": 0.1929,
      "velocity": 112,
      "chip": "ym2612"
    },
    {
      "channel": 0,
      "note": 59,
      "start": 36.1901,
      "duration": 0.3804,
      "velocity": 112,
      "chip": "ym2612"
    },
    {
      "channel": 1,
      "note": 24,
      "start": 36.1908,
      "duration": 0.3805,
      "velocity": 112,
      "chip": "ym2612"
    },
    {
      "channel": 2,
      "note": 30,
      "start": 36.1928,
      "duration": 0.1866,
      "velocity": 119,
      "chip": "ym2612"
    },
    {
      "channel": 3,
      "note": 62,
      "start": 36.3785,
      "duration": 0.0947,
      "velocity": 109,
      "chip": "ym2612"
    },
    {
      "channel": 3,
      "note": 60,
      "start": 36.4737,
      "duration": 0.0984,
      "velocity": 109,
      "chip": "ym2612"
    },
    {
      "channel": 0,
      "note": 57,
      "start": 36.5711,
      "duration": 0.7615,
      "velocity": 112,
      "chip": "ym2612"
    },
    {
      "channel": 1,
      "note": 23,
      "start": 36.5719,
      "duration": 0.3802,
      "velocity": 112,
      "chip": "ym2612"
    },
    {
      "channel": 3,
      "note": 59,
      "start": 36.5727,
      "duration": 0.7613,
      "velocity": 109,
      "chip": "ym2612"
    },
    {
      "channel": 4,
      "note": 71,
      "start": 36.5736,
      "duration": 0.3795,
      "velocity": 109,
      "chip": "ym2612"
    },
    {
      "channel": 5,
      "note": 67,
      "start": 36.5744,
      "duration": 0.3795,
      "velocity": 109,
      "chip": "ym2612"
    },
    {
      "channel": 2,
      "note": 30,
      "start": 36.5753,
      "duration": 0.1847,
      "velocity": 119,
      "chip": "ym2612"
    },
    {
      "channel": 1,
      "note": 24,
      "start": 36.9526,
      "duration": 0.3807,
      "velocity": 112,
      "chip": "ym2612"
    },
    {
      "channel": 4,
      "note": 83,
      "start": 36.9537,
      "duration": 2.6674,
      "velocity": 109,
      "chip": "ym2612"
    },
    {
      "channel": 5,
      "note": 79,
      "start": 36.9545,
      "duration": 2.6674,
      "velocity": 109,
      "chip": "ym2612"
    },
    {
      "channel": 2,
      "note": 30,
      "start": 36.9553,
      "duration": 0.1858,
      "velocity": 119,
      "chip": "ym2612"
    },
    {
      "channel": 0,
      "note": 59,
      "start": 37.3331,
      "duration": 0.5681,
      "velocity": 112,
      "chip": "ym2612"
    },
    {
      "channel": 1,
      "note": 23,
      "start": 37.3339,
      "duration": 0.3799,
      "velocity": 112,
      "chip": "ym2612"
    },
    {
      "channel": 2,
      "note": 30,
      "start": 37.3358,
      "duration": 0.1866,
      "velocity": 119,
      "chip": "ym2612"
    },
    {
      "channel": 3,
      "note": 57,
      "start": 37.5215,
      "duration": 0.1931,
      "velocity": 109,
      "chip": "ym2612"
    },
    {
      "channel": 1,
      "note": 24,
      "start": 37.7144,
      "duration": 0.381,
      "velocity": 112,
      "chip": "ym2612"
    },
    {
      "channel": 3,
      "note": 59,
      "start": 37.7151,
      "duration": 0.1872,
      "velocity": 109,
      "chip": "ym2612"
    },
    {
      "channel": 2,
      "note": 30,
      "start": 37.7167,
      "duration": 0.1872,
      "velocity": 119,
      "chip": "ym2612"
    },
    {
      "channel": 0,
      "note": 55,
      "start": 37.9018,
      "duration": 0.1927,
      "velocity": 112,
      "chip": "ym2612"
    },
    {
      "channel": 3,
      "note": 60,
      "start": 37.9029,
      "duration": 0.1932,
      "velocity": 109,
      "chip": "ym2612"
    },
    {
      "channel": 0,
      "note": 54,
      "start": 38.0952,
      "duration": 0.7614,
      "velocity": 112,
      "chip": "ym2612"
    },
    {
      "channel": 1,
      "note": 23,
      "start": 38.096,
      "duration": 0.38,
      "velocity": 112,
      "chip": "ym2612"
    },
    {
      "channel": 3,
      "note": 62,
      "start": 38.0967,
      "duration": 0.7612,
      "velocity": 109,
      "chip": "ym2612"
    },
    {
      "channel": 2,
      "note": 30,
      "start": 38.0983,
      "duration": 0.1857,
      "velocity": 119,
      "chip": "ym2612"
    },
    {
      "channel": 1,
      "note": 24,
      "start": 38.4765,
      "duration": 0.3807,
      "velocity": 112,
      "chip": "ym2612"
    },
    {
      "channel": 2,
      "note": 30,
      "start": 38.4784,
      "duration": 0.1866,
      "velocity": 119,
      "chip": "ym2612"
    },
    {
      "channel": 0,
      "note": 54,
      "start": 38.857,
      "duration": 0.1872,
      "velocity": 112,
      "chip": "ym2612"
    },
    {
      "channel": 1,
      "note": 23,
      "start": 38.8578,
      "duration": 0.3805,
      "velocity": 112,
      "chip": "ym2612"
    },
    {
      "channel": 3,
      "note": 60,
      "start": 38.8586,
      "duration": 0.5674,
      "velocity": 109,
      "chip": "ym2612"
    },
    {
      "channel": 2,
      "note": 30,
      "start": 38.8601,
      "duration": 0.1863,
      "velocity": 119,
      "chip": "ym2612"
    },
    {
      "channel": 0,
      "note": 55,
      "start": 39.0448,
      "duration": 0.1927,
      "velocity": 112,
      "chip": "ym2612"
    },
    {
      "channel": 0,
      "note": 52,
      "start": 39.2381,
      "duration": 0.3805,
      "velocity": 112,
      "chip": "ym2612"
    },
    {
      "channel": 1,
      "note": 24,
      "start": 39.2388,
      "duration": 0.3806,
      "velocity": 112,
      "chip": "ym2612"
    },
    {
      "channel": 2,
      "note": 30,
      "start": 39.2407,
      "duration": 0.1868,
      "velocity": 119,
      "chip": "ym2612"
    },
    {
      "channel": 3,
      "note": 62,
      "start": 39.4266,
      "duration": 0.0945,
      "velocity": 109,
      "chip": "ym2612"
    },
    {
      "channel": 3,
      "note": 60,
      "start": 39.5217,
      "duration": 0.0985,
      "velocity": 109,
      "chip": "ym2612"
    },
    {
      "channel": 0,
      "note": 51,
      "start": 39.6192,
      "duration": 3.0474,
      "velocity": 112,
      "chip": "ym2612"
    },
    {
      "channel": 1,
      "note": 23,
      "start": 39.62,
      "duration": 0.3799,
      "velocity": 112,
      "chip": "ym2612"
    },
    {
      "channel": 3,
      "note": 59,
      "start": 39.6208,
      "duration": 0.7612,
      "velocity": 109,
      "chip": "ym2612"
    },
    {
      "channel": 4,
      "note": 71,
      "start": 39.6217,
      "duration": 0.3793,
      "velocity": 109,
      "chip": "ym2612"
    },
    {
      "channel": 5,
      "note": 67,
      "start": 39.6225,
      "duration": 0.3792,
      "velocity": 109,
      "chip": "ym2612"
    },
    {
      "channel": 2,
      "note": 30,
      "start": 39.6233,
      "duration": 0.1848,
      "velocity": 119,
      "chip": "ym2612"
    },
    {
      "channel": 1,
      "note": 24,
      "start": 40.0004,
      "duration": 0.381,
      "velocity": 112,
      "chip": "ym2612"
    },
    {
      "channel": 4,
      "note": 83,
      "start": 40.0016,
      "duration": 2.6675,
      "velocity": 109,
      "chip": "ym2612"
    },
    {
      "channel": 5,
      "note": 79,
      "start": 40.0023,
      "duration": 2.6676,
      "velocity": 109,
      "chip": "ym2612"
    },
    {
      "channel": 2,
      "note": 30,
      "start": 40.0032,
      "duration": 0.1859,
      "velocity": 119,
      "chip": "ym2612"
    },
    {
      "channel": 1,
      "note": 23,
      "start": 40.382,
      "duration": 0.38,
      "velocity": 112,
      "chip": "ym2612"
    },
    {
      "channel": 3,
      "note": 59,
      "start": 40.3827,
      "duration": 0.0909,
      "velocity": 109,
      "chip": "ym2612"
    },
    {
      "channel": 2,
      "note": 30,
      "start": 40.3843,
      "duration": 0.1863,
      "velocity": 119,
      "chip": "ym2612"
    },
    {
      "channel": 3,
      "note": 60,
      "start": 40.4743,
      "duration": 0.0947,
      "velocity": 109,
      "chip": "ym2612"
    },
    {
      "channel": 3,
      "note": 59,
      "start": 40.5696,
      "duration": 0.0946,
      "velocity": 109,
      "chip": "ym2612"
    },
    {
      "channel": 3,
      "note": 60,
      "start": 40.6648,
      "duration": 0.098,
      "velocity": 109,
      "chip": "ym2612"
    },
    {
      "channel": 1,
      "note": 24,
      "start": 40.7625,
      "duration": 0.3805,
      "velocity": 112,
      "chip": "ym2612"
    },
    {
      "channel": 3,
      "note": 59,
      "start": 40.7633,
      "duration": 0.0913,
      "velocity": 109,
      "chip": "ym2612"
    },
    {
      "channel": 2,
      "note": 30,
      "start": 40.7649,
      "duration": 0.1866,
      "velocity": 119,
      "chip": "ym2612"
    },
    {
      "channel": 3,
      "note": 60,
      "start": 40.8553,
      "duration": 0.0947,
      "velocity": 109,
      "chip": "ym2612"
    },
    {
      "channel": 3,
      "note": 59,
      "start": 40.9507,
      "duration": 0.0945,
      "velocity": 109,
      "chip": "ym2612"
    },
    {
      "channel": 3,
      "note": 60,
      "start": 41.0458,
      "duration": 0.0981,
      "velocity": 109,
      "chip": "ym2612"
    },
    {
      "channel": 1,
      "note": 23,
      "start": 41.1436,
      "duration": 0.3803,
      "velocity": 112,
      "chip": "ym2612"
    },
    {
      "channel": 3,
      "note": 59,
      "start": 41.1444,
      "duration": 0.0913,
      "velocity": 109,
      "chip": "ym2612"
    },
    {
      "channel": 2,
      "note": 30,
      "start": 41.146,
      "duration": 0.1866,
      "velocity": 119,
      "chip": "ym2612"
    },
    {
      "channel": 3,
      "note": 60,
      "start": 41.2363,
      "duration": 0.0947,
      "velocity": 109,
      "chip": "ym2612"
    },
    {
      "channel": 3,
      "note": 59,
      "start": 41.3317,
      "duration": 0.0946,
      "velocity": 109,
      "chip": "ym2612"
    },
    {
      "channel": 3,
      "note": 60,
      "start": 41.4268,
      "duration": 0.098,
      "velocity": 109,
      "chip": "ym2612"
    },
    {
      "channel": 1,
      "note": 24,
      "start": 41.5245,
      "duration": 0.3806,
      "velocity": 112,
      "chip": "ym2612"
    },
    {
      "channel": 3,
      "note": 59,
      "start": 41.5254,
      "duration": 0.0914,
      "velocity": 109,
      "chip": "ym2612"
    },
    {
      "channel": 2,
      "note": 30,
      "start": 41.5269,
      "duration": 0.1866,
      "velocity": 119,
      "chip": "ym2612"
    },
    {
      "channel": 3,
      "note": 60,
      "start": 41.6173,
      "duration": 0.0947,
      "velocity": 109,
      "chip": "ym2612"
    },
    {
      "channel": 3,
      "note": 59,
      "start": 41.7126,
      "duration": 0.0946,
      "velocity": 109,
      "chip": "ym2612"
    },
    {
      "channel": 3,
      "note": 60,
      "start": 41.8079,
      "duration": 0.098,
      "velocity": 109,
      "chip": "ym2612"
    },
    {
      "channel": 1,
      "note": 23,
      "start": 41.9056,
      "duration": 0.3804,
      "velocity": 112,
      "chip": "ym2612"
    },
    {
      "channel": 3,
      "note": 59,
      "start": 41.9065,
      "duration": 0.0913,
      "velocity": 109,
      "chip": "ym2612"
    },
    {
      "channel": 2,
      "note": 30,
      "start": 41.908,
      "duration": 0.1866,
      "velocity": 119,
      "chip": "ym2612"
    },
    {
      "channel": 3,
      "note": 60,
      "start": 41.9984,
      "duration": 0.0948,
      "velocity": 109,
      "chip": "ym2612"
    },
    {
      "channel": 3,
      "note": 59,
      "start": 42.0937,
      "duration": 0.0945,
      "velocity": 109,
      "chip": "ym2612"
    },
    {
      "channel": 3,
      "note": 60,
      "start": 42.1888,
      "duration": 0.098,
      "velocity": 109,
      "chip": "ym2612"
    },
    {
      "channel": 1,
      "note": 24,
      "start": 42.2866,
      "duration": 0.3808,
      "velocity": 112,
      "chip": "ym2612"
    },
    {
      "channel": 3,
      "note": 59,
      "start": 42.2874,
      "duration": 0.0913,
      "velocity": 109,
      "chip": "ym2612"
    },
    {
      "channel": 2,
      "note": 30,
      "start": 42.289,
      "duration": 0.1866,
      "velocity": 119,
      "chip": "ym2612"
    },
    {
      "channel": 3,
      "note": 60,
      "start": 42.3794,
      "duration": 0.0947,
      "velocity": 109,
      "chip": "ym2612"
    },
    {
      "channel": 3,
      "note": 59,
      "start": 42.4747,
      "duration": 0.0945,
      "velocity": 109,
      "chip": "ym2612"
    },
    {
      "channel": 3,
      "note": 60,
      "start": 42.5699,
      "duration": 0.0983,
      "velocity": 109,
      "chip": "ym2612"
    },
    {
      "channel": 0,
      "note": 47,
      "start": 42.6672,
      "duration": 0.3804,
      "velocity": 112,
      "chip": "ym2612"
    },
    {
      "channel": 1,
      "note": 23,
      "start": 42.668,
      "duration": 0.3803,
      "velocity": 112,
      "chip": "ym2612"
    },
    {
      "channel": 3,
      "note": 71,
      "start": 42.6689,
      "duration": 0.7612,
      "velocity": 109,
      "chip": "ym2612"
    },
    {
      "channel": 4,
      "note": 71,
      "start": 42.6697,
      "duration": 0.3797,
      "velocity": 109,
      "chip": "ym2612"
    },
    {
      "channel": 5,
      "note": 67,
      "start": 42.6705,
      "duration": 0.3796,
      "velocity": 109,
      "chip": "ym2612"
    },
    {
      "channel": 2,
      "note": 30,
      "start": 42.6713,
      "duration": 0.1848,
      "velocity": 119,
      "chip": "ym2612"
    },
    {
      "channel": 0,
      "note": 59,
      "start": 43.0482,
      "duration": 0.3804,
      "velocity": 112,
      "chip": "ym2612"
    },
    {
      "channel": 1,
      "note": 24,
      "start": 43.0489,
      "duration": 0.3805,
      "velocity": 112,
      "chip": "ym2612"
    },
    {
      "channel": 4,
      "note": 83,
      "start": 43.05,
      "duration": 2.6671,
      "velocity": 109,
      "chip": "ym2612"
    },
    {
      "channel": 5,
      "note": 79,
      "start": 43.0508,
      "duration": 2.6671,
      "velocity": 109,
      "chip": "ym2612"
    },
    {
      "channel": 2,
      "note": 30,
      "start": 43.0516,
      "duration": 0.1855,
      "velocity": 119,
      "chip": "ym2612"
    },
    {
      "channel": 0,
      "note": 51,
      "start": 43.4292,
      "duration": 0.3806,
      "velocity": 112,
      "chip": "ym2612"
    },
    {
      "channel": 1,
      "note": 23,
      "start": 43.43,
      "duration": 0.3805,
      "velocity": 112,
      "chip": "ym2612"
    },
    {
      "channel": 2,
      "note": 30,
      "start": 43.4318,
      "duration": 0.1867,
      "velocity": 119,
      "chip": "ym2612"
    },
    {
      "channel": 3,
      "note": 69,
      "start": 43.6177,
      "duration": 0.1936,
      "velocity": 109,
      "chip": "ym2612"
    },
    {
      "channel": 0,
      "note": 63,
      "start": 43.8103,
      "duration": 0.3803,
      "velocity": 112,
      "chip": "ym2612"
    },
    {
      "channel": 1,
      "note": 24,
      "start": 43.811,
      "duration": 0.3805,
      "velocity": 112,
      "chip": "ym2612"
    },
    {
      "channel": 3,
      "note": 71,
      "start": 43.8118,
      "duration": 0.1862,
      "velocity": 109,
      "chip": "ym2612"
    },
    {
      "channel": 2,
      "note": 30,
      "start": 43.8133,
      "duration": 0.1862,
      "velocity": 119,
      "chip": "ym2612"
    },
    {
      "channel": 3,
      "note": 72,
      "start": 43.9986,
      "duration": 0.1936,
      "velocity": 109,
      "chip": "ym2612"
    },
    {
      "channel": 0,
      "note": 52,
      "start": 44.1912,
      "duration": 0.3805,
      "velocity": 112,
      "chip": "ym2612"
    },
    {
      "channel": 1,
      "note": 23,
      "start": 44.1921,
      "duration": 0.3803,
      "velocity": 112,
      "chip": "ym2612"
    },
    {
      "channel": 3,
      "note": 74,
      "start": 44.1928,
      "duration": 0.7613,
      "velocity": 109,
      "chip": "ym2612"
    },
    {
      "channel": 2,
      "note": 30,
      "start": 44.1944,
      "duration": 0.1858,
      "velocity": 119,
      "chip": "ym2612"
    },
    {
      "channel": 0,
      "note": 64,
      "start": 44.5723,
      "duration": 0.3804,
      "velocity": 112,
      "chip": "ym2612"
    },
    {
      "channel": 1,
      "note": 24,
      "start": 44.573,
      "duration": 0.3805,
      "velocity": 112,
      "chip": "ym2612"
    },
    {
      "channel": 2,
      "note": 30,
      "start": 44.5749,
      "duration": 0.1862,
      "velocity": 119,
      "chip": "ym2612"
    },
    {
      "channel": 0,
      "note": 54,
      "start": 44.9533,
      "duration": 0.3803,
      "velocity": 112,
      "chip": "ym2612"
    },
    {
      "channel": 1,
      "note": 23,
      "start": 44.954,
      "duration": 0.3803,
      "velocity": 112,
      "chip": "ym2612"
    },
    {
      "channel": 2,
      "note": 30,
      "start": 44.9559,
      "duration": 0.1867,
      "velocity": 119,
      "chip": "ym2612"
    },
    {
      "channel": 3,
      "note": 72,
      "start": 45.1418,
      "duration": 0.0945,
      "velocity": 109,
      "chip": "ym2612"
    },
    {
      "channel": 3,
      "note": 74,
      "start": 45.2369,
      "duration": 0.0982,
      "velocity": 109,
      "chip": "ym2612"
    },
    {
      "channel": 0,
      "note": 66,
      "start": 45.3342,
      "duration": 0.3805,
      "velocity": 112,
      "chip": "ym2612"
    },
    {
      "channel": 1,
      "note": 24,
      "start": 45.3349,
      "duration": 0.3805,
      "velocity": 112,
      "chip": "ym2612"
    },
    {
      "channel": 3,
      "note": 72,
      "start": 45.3356,
      "duration": 0.3806,
      "velocity": 109,
      "chip": "ym2612"
    },
    {
      "channel": 2,
      "note": 30,
      "start": 45.3373,
      "duration": 0.1859,
      "velocity": 119,
      "chip": "ym2612"
    },
    {
      "channel": 0,
      "note": 55,
      "start": 45.7152,
      "duration": 0.3805,
      "velocity": 112,
      "chip": "ym2612"
    },
    {
      "channel": 1,
      "note": 23,
      "start": 45.716,
      "duration": 0.3805,
      "velocity": 112,
      "chip": "ym2612"
    },
    {
      "channel": 3,
      "note": 71,
      "start": 45.7169,
      "duration": 0.7615,
      "velocity": 109,
      "chip": "ym2612"
    },
    {
      "channel": 4,
      "note": 71,
      "start": 45.7177,
      "duration": 0.3798,
      "velocity": 109,
      "chip": "ym2612"
    },
    {
      "channel": 5,
      "note": 67,
      "start": 45.7185,
      "duration": 0.3798,
      "velocity": 109,
      "chip": "ym2612"
    },
    {
      "channel": 2,
      "note": 30,
      "start": 45.7194,
      "duration": 0.1849,
      "velocity": 119,
      "chip": "ym2612"
    },
    {
      "channel": 0,
      "note": 67,
      "start": 46.0963,
      "duration": 0.3805,
      "velocity": 112,
      "chip": "ym2612"
    },
    {
      "channel": 1,
      "note": 24,
      "start": 46.0971,
      "duration": 0.3805,
      "velocity": 112,
      "chip": "ym2612"
    },
    {
      "channel": 4,
      "note": 83,
      "start": 46.0982,
      "duration": 2.667,
      "velocity": 109,
      "chip": "ym2612"
    },
    {
      "channel": 5,
      "note": 79,
      "start": 46.099,
      "duration": 2.6671,
      "velocity": 109,
      "chip": "ym2612"
    },
    {
      "channel": 2,
      "note": 30,
      "start": 46.0998,
      "duration": 0.1854,
      "velocity": 119,
      "chip": "ym2612"
    },
    {
      "channel": 0,
      "note": 57,
      "start": 46.4774,
      "duration": 0.3803,
      "velocity": 112,
      "chip": "ym2612"
    },
    {
      "channel": 1,
      "note": 23,
      "start": 46.4781,
      "duration": 0.3804,
      "velocity": 112,
      "chip": "ym2612"
    },
    {
      "channel": 2,
      "note": 30,
      "start": 46.4801,
      "duration": 0.1865,
      "velocity": 119,
      "chip": "ym2612"
    },
    {
      "channel": 3,
      "note": 69,
      "start": 46.6657,
      "duration": 0.1936,
      "velocity": 109,
      "chip": "ym2612"
    },
    {
      "channel": 0,
      "note": 69,
      "start": 46.8584,
      "duration": 0.3803,
      "velocity": 112,
      "chip": "ym2612"
    },
    {
      "channel": 1,
      "note": 24,
      "start": 46.8591,
      "duration": 0.3804,
      "velocity": 112,
      "chip": "ym2612"
    },
    {
      "channel": 3,
      "note": 71,
      "start": 46.8598,
      "duration": 0.1865,
      "velocity": 109,
      "chip": "ym2612"
    },
    {
      "channel": 2,
      "note": 30,
      "start": 46.8614,
      "duration": 0.1864,
      "velocity": 119,
      "chip": "ym2612"
    },
    {
      "channel": 3,
      "note": 72,
      "start": 47.0468,
      "duration": 0.1934,
      "velocity": 109,
      "chip": "ym2612"
    },
    {
      "channel": 0,
      "note": 54,
      "start": 47.2393,
      "duration": 0.3804,
      "velocity": 112,
      "chip": "ym2612"
    },
    {
      "channel": 1,
      "note": 23,
      "start": 47.2401,
      "duration": 0.3803,
      "velocity": 112,
      "chip": "ym2612"
    },
    {
      "channel": 3,
      "note": 74,
      "start": 47.2409,
      "duration": 0.7614,
      "velocity": 109,
      "chip": "ym2612"
    },
    {
      "channel": 2,
      "note": 30,
      "start": 47.2425,
      "duration": 0.1857,
      "velocity": 119,
      "chip": "ym2612"
    },
    {
      "channel": 0,
      "note": 66,
      "start": 47.6203,
      "duration": 0.3805,
      "velocity": 112,
      "chip": "ym2612"
    },
    {
      "channel": 1,
      "note": 24,
      "start": 47.621,
      "duration": 0.3806,
      "velocity": 112,
      "chip": "ym2612"
    },
    {
      "channel": 2,
      "note": 30,
      "start": 47.6229,
      "duration": 0.1864,
      "velocity": 119,
      "chip": "ym2612"
    },
    {
      "channel": 0,
      "note": 64,
      "start": 48.0014,
      "duration": 0.1871,
      "velocity": 112,
      "chip": "ym2612"
    },
    {
      "channel": 1,
      "note": 23,
      "start": 48.0021,
      "duration": 0.3803,
      "velocity": 112,
      "chip": "ym2612"
    },
    {
      "channel": 2,
      "note": 30,
      "start": 48.004,
      "duration": 0.1871,
      "velocity": 119,
      "chip": "ym2612"
    },
    {
      "channel": 0,
      "note": 66,
      "start": 48.189,
      "duration": 0.1927,
      "velocity": 112,
      "chip": "ym2612"
    },
    {
      "channel": 3,
      "note": 72,
      "start": 48.1902,
      "duration": 0.0941,
      "velocity": 109,
      "chip": "ym2612"
    },
    {
      "channel": 3,
      "note": 74,
      "start": 48.2849,
      "duration": 0.0983,
      "velocity": 109,
      "chip": "ym2612"
    },
    {
      "channel": 0,
      "note": 63,
      "start": 48.3824,
      "duration": 0.3804,
      "velocity": 112,
      "chip": "ym2612"
    },
    {
      "channel": 1,
      "note": 24,
      "start": 48.383,
      "duration": 0.3805,
      "velocity": 112,
      "chip": "ym2612"
    },
    {
      "channel": 3,
      "note": 72,
      "start": 48.3838,
      "duration": 0.3805,
      "velocity": 109,
      "chip": "ym2612"
    },
    {
      "channel": 2,
      "note": 30,
      "start": 48.3853,
      "duration": 0.1859,
      "velocity": 119,
      "chip": "ym2612"
    },
    {
      "channel": 0,
      "note": 48,
      "start": 48.7633,
      "duration": 0.3805,
      "velocity": 112,
      "chip": "ym2612"
    },
    {
      "channel": 1,
      "note": 23,
      "start": 48.7641,
      "duration": 0.3804,
      "velocity": 112,
      "chip": "ym2612"
    },
    {
      "channel": 3,
      "note": 71,
      "start": 48.765,
      "duration": 0.7614,
      "velocity": 109,
      "chip": "ym2612"
    },
    {
      "channel": 4,
      "note": 71,
      "start": 48.7658,
      "duration": 0.3798,
      "velocity": 109,
      "chip": "ym2612"
    },
    {
      "channel": 5,
      "note": 67,
      "start": 48.7666,
      "duration": 0.3797,
      "velocity": 109,
      "chip": "ym2612"
    },
    {
      "channel": 2,
      "note": 30,
      "start": 48.7675,
      "duration": 0.1848,
      "velocity": 119,
      "chip": "ym2612"
    },
    {
      "channel": 0,
      "note": 60,
      "start": 49.1444,
      "duration": 0.3805,
      "velocity": 112,
      "chip": "ym2612"
    },
    {
      "channel": 1,
      "note": 24,
      "start": 49.1451,
      "duration": 0.3806,
      "velocity": 112,
      "chip": "ym2612"
    },
    {
      "channel": 4,
      "note": 83,
      "start": 49.1462,
      "duration": 2.6672,
      "velocity": 109,
      "chip": "ym2612"
    },
    {
      "channel": 5,
      "note": 79,
      "start": 49.147,
      "duration": 2.6672,
      "velocity": 109,
      "chip": "ym2612"
    },
    {
      "channel": 2,
      "note": 30,
      "start": 49.1478,
      "duration": 0.1854,
      "velocity": 119,
      "chip": "ym2612"
    },
    {
      "channel": 0,
      "note": 51,
      "start": 49.5255,
      "duration": 0.3803,
      "velocity": 112,
      "chip": "ym2612"
    },
    {
      "channel": 1,
      "note": 23,
      "start": 49.5262,
      "duration": 0.3803,
      "velocity": 112,
      "chip": "ym2612"
    },
    {
      "channel": 2,
      "note": 30,
      "start": 49.5281,
      "duration": 0.1866,
      "velocity": 119,
      "chip": "ym2612"
    },
    {
      "channel": 3,
      "note": 69,
      "start": 49.7138,
      "duration": 0.1935,
      "velocity": 109,
      "chip": "ym2612"
    },
    {
      "channel": 0,
      "note": 63,
      "start": 49.9065,
      "duration": 0.3804,
      "velocity": 112,
      "chip": "ym2612"
    },
    {
      "channel": 1,
      "note": 24,
      "start": 49.9072,
      "duration": 0.3805,
      "velocity": 112,
      "chip": "ym2612"
    },
    {
      "channel": 3,
      "note": 71,
      "start": 49.9079,
      "duration": 0.1863,
      "velocity": 109,
      "chip": "ym2612"
    },
    {
      "channel": 2,
      "note": 30,
      "start": 49.9095,
      "duration": 0.1862,
      "velocity": 119,
      "chip": "ym2612"
    },
    {
      "channel": 3,
      "note": 72,
      "start": 50.0948,
      "duration": 0.1936,
      "velocity": 109,
      "chip": "ym2612"
    },
    {
      "channel": 0,
      "note": 47,
      "start": 50.2874,
      "duration": 0.3803,
      "velocity": 112,
      "chip": "ym2612"
    },
    {
      "channel": 1,
      "note": 23,
      "start": 50.2882,
      "duration": 0.3803,
      "velocity": 112,
      "chip": "ym2612"
    },
    {
      "channel": 3,
      "note": 74,
      "start": 50.289,
      "duration": 0.7613,
      "velocity": 109,
      "chip": "ym2612"
    },
    {
      "channel": 2,
      "note": 30,
      "start": 50.2905,
      "duration": 0.1858,
      "velocity": 119,
      "chip": "ym2612"
    },
    {
      "channel": 0,
      "note": 59,
      "start": 50.6684,
      "duration": 0.3803,
      "velocity": 112,
      "chip": "ym2612"
    },
    {
      "channel": 1,
      "note": 24,
      "start": 50.6691,
      "duration": 0.3804,
      "velocity": 112,
      "chip": "ym2612"
    },
    {
      "channel": 2,
      "note": 30,
      "start": 50.671,
      "duration": 0.1863,
      "velocity": 119,
      "chip": "ym2612"
    },
    {
      "channel": 0,
      "note": 46,
      "start": 51.0493,
      "duration": 0.3805,
      "velocity": 112,
      "chip": "ym2612"
    },
    {
      "channel": 1,
      "note": 23,
      "start": 51.0502,
      "duration": 0.3804,
      "velocity": 112,
      "chip": "ym2612"
    },
    {
      "channel": 2,
      "note": 30,
      "start": 51.052,
      "duration": 0.1867,
      "velocity": 119,
      "chip": "ym2612"
    },
    {
      "channel": 3,
      "note": 72,
      "start": 51.2378,
      "duration": 0.0946,
      "velocity": 109,
      "chip": "ym2612"
    },
    {
      "channel": 3,
      "note": 74,
      "start": 51.333,
      "duration": 0.0983,
      "velocity": 109,
      "chip": "ym2612"
    },
    {
      "channel": 0,
      "note": 58,
      "start": 51.4304,
      "duration": 0.3805,
      "velocity": 112,
      "chip": "ym2612"
    },
    {
      "channel": 1,
      "note": 24,
      "start": 51.4311,
      "duration": 0.3806,
      "velocity": 112,
      "chip": "ym2612"
    },
    {
      "channel": 3,
      "note": 72,
      "start": 51.4319,
      "duration": 0.3807,
      "velocity": 109,
      "chip": "ym2612"
    },
    {
      "channel": 2,
      "note": 30,
      "start": 51.4334,
      "duration": 0.1859,
      "velocity": 119,
      "chip": "ym2612"
    },
    {
      "channel": 0,
      "note": 47,
      "start": 51.8115,
      "duration": 0.7613,
      "velocity": 112,
      "chip": "ym2612"
    },
    {
      "channel": 1,
      "note": 23,
      "start": 51.8124,
      "duration": 0.3798,
      "velocity": 112,
      "chip": "ym2612"
    },
    {
      "channel": 3,
      "note": 71,
      "start": 51.8132,
      "duration": 0.7612,
      "velocity": 109,
      "chip": "ym2612"
    },
    {
      "channel": 4,
      "note": 71,
      "start": 51.814,
      "duration": 0.3793,
      "velocity": 109,
      "chip": "ym2612"
    },
    {
      "channel": 5,
      "note": 67,
      "start": 51.8149,
      "duration": 0.3792,
      "velocity": 109,
      "chip": "ym2612"
    },
    {
      "channel": 2,
      "note": 30,
      "start": 51.8157,
      "duration": 0.1846,
      "velocity": 119,
      "chip": "ym2612"
    },
    {
      "channel": 1,
      "note": 24,
      "start": 52.1928,
      "duration": 0.3809,
      "velocity": 112,
      "chip": "ym2612"
    },
    {
      "channel": 4,
      "note": 83,
      "start": 52.1939,
      "duration": 2.6679,
      "velocity": 109,
      "chip": "ym2612"
    },
    {
      "channel": 5,
      "note": 79,
      "start": 52.1947,
      "duration": 2.668,
      "velocity": 109,
      "chip": "ym2612"
    },
    {
      "channel": 2,
      "note": 30,
      "start": 52.1955,
      "duration": 0.1858,
      "velocity": 119,
      "chip": "ym2612"
    },
    {
      "channel": 0,
      "note": 47,
      "start": 52.5735,
      "duration": 0.0917,
      "velocity": 112,
      "chip": "ym2612"
    },
    {
      "channel": 1,
      "note": 23,
      "start": 52.5743,
      "duration": 0.3804,
      "velocity": 112,
      "chip": "ym2612"
    },
    {
      "channel": 3,
      "note": 75,
      "start": 52.5751,
      "duration": 0.0912,
      "velocity": 109,
      "chip": "ym2612"
    },
    {
      "channel": 2,
      "note": 30,
      "start": 52.5766,
      "duration": 0.1867,
      "velocity": 119,
      "chip": "ym2612"
    },
    {
      "channel": 0,
      "note": 48,
      "start": 52.6658,
      "duration": 0.0948,
      "velocity": 112,
      "chip": "ym2612"
    },
    {
      "channel": 3,
      "note": 76,
      "start": 52.6669,
      "duration": 0.0949,
      "velocity": 109,
      "chip": "ym2612"
    },
    {
      "channel": 0,
      "note": 47,
      "start": 52.7612,
      "duration": 0.0946,
      "velocity": 112,
      "chip": "ym2612"
    },
    {
      "channel": 3,
      "note": 75,
      "start": 52.7624,
      "duration": 0.0945,
      "velocity": 109,
      "chip": "ym2612"
    },
    {
      "channel": 0,
      "note": 48,
      "start": 52.8564,
      "duration": 0.0975,
      "velocity": 112,
      "chip": "ym2612"
    },
    {
      "channel": 3,
      "note": 76,
      "start": 52.8575,
      "duration": 0.098,
      "velocity": 109,
      "chip": "ym2612"
    },
    {
      "channel": 0,
      "note": 47,
      "start": 52.9545,
      "duration": 0.0917,
      "velocity": 112,
      "chip": "ym2612"
    },
    {
      "channel": 1,
      "note": 24,
      "start": 52.9552,
      "duration": 0.3806,
      "velocity": 112,
      "chip": "ym2612"
    },
    {
      "channel": 3,
      "note": 75,
      "start": 52.9561,
      "duration": 0.0912,
      "velocity": 109,
      "chip": "ym2612"
    },
    {
      "channel": 2,
      "note": 30,
      "start": 52.9576,
      "duration": 0.1868,
      "velocity": 119,
      "chip": "ym2612"
    },
    {
      "channel": 0,
      "note": 48,
      "start": 53.0468,
      "duration": 0.0949,
      "velocity": 112,
      "chip": "ym2612"
    },
    {
      "channel": 3,
      "note": 76,
      "start": 53.0479,
      "duration": 0.095,
      "velocity": 109,
      "chip": "ym2612"
    },
    {
      "channel": 0,
      "note": 47,
      "start": 53.1423,
      "duration": 0.0945,
      "velocity": 112,
      "chip": "ym2612"
    },
    {
      "channel": 3,
      "note": 75,
      "start": 53.1435,
      "duration": 0.0944,
      "velocity": 109,
      "chip": "ym2612"
    },
    {
      "channel": 0,
      "note": 48,
      "start": 53.2373,
      "duration": 0.0977,
      "velocity": 112,
      "chip": "ym2612"
    },
    {
      "channel": 3,
      "note": 76,
      "start": 53.2384,
      "duration": 0.0982,
      "velocity": 109,
      "chip": "ym2612"
    },
    {
      "channel": 0,
      "note": 47,
      "start": 53.3355,
      "duration": 0.0917,
      "velocity": 112,
      "chip": "ym2612"
    },
    {
      "channel": 1,
      "note": 23,
      "start": 53.3363,
      "duration": 0.3803,
      "velocity": 112,
      "chip": "ym2612"
    },
    {
      "channel": 3,
      "note": 75,
      "start": 53.3372,
      "duration": 0.0912,
      "velocity": 109,
      "chip": "ym2612"
    },
    {
      "channel": 2,
      "note": 30,
      "start": 53.3388,
      "duration": 0.1866,
      "velocity": 119,
      "chip": "ym2612"
    },
    {
      "channel": 0,
      "note": 48,
      "start": 53.4278,
      "duration": 0.0947,
      "velocity": 112,
      "chip": "ym2612"
    },
    {
      "channel": 3,
      "note": 76,
      "start": 53.4289,
      "duration": 0.0949,
      "velocity": 109,
      "chip": "ym2612"
    },
    {
      "channel": 0,
      "note": 47,
      "start": 53.5232,
      "duration": 0.0946,
      "velocity": 112,
      "chip": "ym2612"
    },
    {
      "channel": 3,
      "note": 75,
      "start": 53.5244,
      "duration": 0.0945,
      "velocity": 109,
      "chip": "ym2612"
    },
    {
      "channel": 0,
      "note": 48,
      "start": 53.6184,
      "duration": 0.0976,
      "velocity": 112,
      "chip": "ym2612"
    },
    {
      "channel": 3,
      "note": 76,
      "start": 53.6195,
      "duration": 0.098,
      "velocity": 109,
      "chip": "ym2612"
    },
    {
      "channel": 0,
      "note": 47,
      "start": 53.7166,
      "duration": 0.0921,
      "velocity": 112,
      "chip": "ym2612"
    },
    {
      "channel": 1,
      "note": 24,
      "start": 53.7173,
      "duration": 0.3805,
      "velocity": 112,
      "chip": "ym2612"
    },
    {
      "channel": 3,
      "note": 75,
      "start": 53.7182,
      "duration": 0.0915,
      "velocity": 109,
      "chip": "ym2612"
    },
    {
      "channel": 2,
      "note": 30,
      "start": 53.7197,
      "duration": 0.1866,
      "velocity": 119,
      "chip": "ym2612"
    },
    {
      "channel": 0,
      "note": 48,
      "start": 53.8093,
      "duration": 0.0944,
      "velocity": 112,
      "chip": "ym2612"
    },
    {
      "channel": 3,
      "note": 76,
      "start": 53.8103,
      "duration": 0.0945,
      "velocity": 109,
      "chip": "ym2612"
    },
    {
      "channel": 0,
      "note": 47,
      "start": 53.9042,
      "duration": 0.0945,
      "velocity": 112,
      "chip": "ym2612"
    },
    {
      "channel": 3,
      "note": 75,
      "start": 53.9054,
      "duration": 0.0944,
      "velocity": 109,
      "chip": "ym2612"
    },
    {
      "channel": 0,
      "note": 48,
      "start": 53.9993,
      "duration": 0.0977,
      "velocity": 112,
      "chip": "ym2612"
    },
    {
      "channel": 3,
      "note": 76,
      "start": 54.0004,
      "duration": 0.0982,
      "velocity": 109,
      "chip": "ym2612"
    },
    {
      "channel": 0,
      "note": 47,
      "start": 54.0976,
      "duration": 0.0917,
      "velocity": 112,
      "chip": "ym2612"
    },
    {
      "channel": 1,
      "note": 23,
      "start": 54.0984,
      "duration": 0.3803,
      "velocity": 112,
      "chip": "ym2612"
    },
    {
      "channel": 3,
      "note": 75,
      "start": 54.0993,
      "duration": 0.0911,
      "velocity": 109,
      "chip": "ym2612"
    },
    {
      "channel": 2,
      "note": 30,
      "start": 54.1008,
      "duration": 0.1866,
      "velocity": 119,
      "chip": "ym2612"
    },
    {
      "channel": 0,
      "note": 48,
      "start": 54.1899,
      "duration": 0.0948,
      "velocity": 112,
      "chip": "ym2612"
    },
    {
      "channel": 3,
      "note": 76,
      "start": 54.1909,
      "duration": 0.0949,
      "velocity": 109,
      "chip": "ym2612"
    },
    {
      "channel": 0,
      "note": 47,
      "start": 54.2853,
      "duration": 0.0945,
      "velocity": 112,
      "chip": "ym2612"
    },
    {
      "channel": 3,
      "note": 75,
      "start": 54.2865,
      "duration": 0.0944,
      "velocity": 109,
      "chip": "ym2612"
    },
    {
      "channel": 0,
      "note": 48,
      "start": 54.3804,
      "duration": 0.0976,
      "velocity": 112,
      "chip": "ym2612"
    },
    {
      "channel": 3,
      "note": 76,
      "start": 54.3815,
      "duration": 0.0981,
      "velocity": 109,
      "chip": "ym2612"
    },
    {
      "channel": 0,
      "note": 47,
      "start": 54.4786,
      "duration": 0.0917,
      "velocity": 112,
      "chip": "ym2612"
    },
    {
      "channel": 1,
      "note": 24,
      "start": 54.4794,
      "duration": 0.3807,
      "velocity": 112,
      "chip": "ym2612"
    },
    {
      "channel": 3,
      "note": 75,
      "start": 54.4802,
      "duration": 0.0912,
      "velocity": 109,
      "chip": "ym2612"
    },
    {
      "channel": 2,
      "note": 30,
      "start": 54.4817,
      "duration": 0.1866,
      "velocity": 119,
      "chip": "ym2612"
    },
    {
      "channel": 0,
      "note": 48,
      "start": 54.5709,
      "duration": 0.0947,
      "velocity": 112,
      "chip": "ym2612"
    },
    {
      "channel": 3,
      "note": 76,
      "start": 54.572,
      "duration": 0.0949,
      "velocity": 109,
      "chip": "ym2612"
    },
    {
      "channel": 0,
      "note": 47,
      "start": 54.6662,
      "duration": 0.0946,
      "velocity": 112,
      "chip": "ym2612"
    },
    {
      "channel": 3,
      "note": 75,
      "start": 54.6674,
      "duration": 0.0945,
      "velocity": 109,
      "chip": "ym2612"
    },
    {
      "channel": 0,
      "note": 48,
      "start": 54.7614,
      "duration": 0.0979,
      "velocity": 112,
      "chip": "ym2612"
    },
    {
      "channel": 3,
      "note": 76,
      "start": 54.7624,
      "duration": 0.0986,
      "velocity": 109,
      "chip": "ym2612"
    },
    {
      "channel": 0,
      "note": 54,
      "start": 54.8598,
      "duration": 0.3737,
      "velocity": 112,
      "chip": "ym2612"
    },
    {
      "channel": 1,
      "note": 23,
      "start": 54.8607,
      "duration": 0.3729,
      "velocity": 112,
      "chip": "ym2612"
    },
    {
      "channel": 3,
      "note": 59,
      "start": 54.8616,
      "duration": 0.372,
      "velocity": 109,
      "chip": "ym2612"
    },
    {
      "channel": 4,
      "note": 71,
      "start": 54.8624,
      "duration": 0.3711,
      "velocity": 109,
      "chip": "ym2612"
    },
    {
      "channel": 5,
      "note": 67,
      "start": 54.8633,
      "duration": 0.3703,
      "velocity": 109,
      "chip": "ym2612"
    },
    {
      "channel": 2,
      "note": 30,
      "start": 54.8641,
      "duration": 0.1842,
      "velocity": 119,
      "chip": "ym2612"
    }
  ]
}