{
  "track_name": "28 - A Story Forever",
  "duration_sec": 420.151,
  "sample_rate": 44100,
  "note_count": 6265,
  "unique_pitches": 64,
  "pitch_range": 69,
  "avg_note_duration": 0.1373,
  "reconstruction_stats": {
    "notes_reconstructed": 6265,
    "keyon_events": 6265,
    "keyoff_events": 6265,
    "orphan_keyons": 0,
    "unique_pitches": 64,
    "pitch_range": 69,
    "avg_duration_sec": 0.1373
  },
  "metadata": {
    "source": "L\\Langrisser II\\28 - A Story Forever.vgz"
  },
  "notes": [
    {
      "channel": 0,
      "note": 86,
      "start": 0.0218,
      "duration": 0.0197,
      "velocity": 96,
      "chip": "ym2612"
    },
    {
      "channel": 1,
      "note": 88,
      "start": 0.0246,
      "duration": 3.5936,
      "velocity": 98,
      "chip": "ym2612"
    },
    {
      "channel": 4,
      "note": 35,
      "start": 0.0429,
      "duration": 0.006,
      "velocity": 96,
      "chip": "ym2612"
    },
    {
      "channel": 0,
      "note": 81,
      "start": 0.0476,
      "duration": 0.0059,
      "velocity": 96,
      "chip": "ym2612"
    },
    {
      "channel": 4,
      "note": 86,
      "start": 0.0551,
      "duration": 0.006,
      "velocity": 96,
      "chip": "ym2612"
    },
    {
      "channel": 0,
      "note": 76,
      "start": 0.0598,
      "duration": 0.0054,
      "velocity": 96,
      "chip": "ym2612"
    },
    {
      "channel": 4,
      "note": 81,
      "start": 0.0667,
      "duration": 0.0066,
      "velocity": 96,
      "chip": "ym2612"
    },
    {
      "channel": 0,
      "note": 86,
      "start": 0.0712,
      "duration": 0.0066,
      "velocity": 96,
      "chip": "ym2612"
    },
    {
      "channel": 2,
      "note": 88,
      "start": 0.0721,
      "duration": 3.7084,
      "velocity": 98,
      "chip": "ym2612"
    },
    {
      "channel": 4,
      "note": 76,
      "start": 0.0793,
      "duration": 0.0312,
      "velocity": 96,
      "chip": "ym2612"
    },
    {
      "channel": 0,
      "note": 81,
      "start": 0.1092,
      "duration": 0.031,
      "velocity": 96,
      "chip": "ym2612"
    },
    {
      "channel": 3,
      "note": 75,
      "start": 0.1415,
      "duration": 3.6764,
      "velocity": 98,
      "chip": "ym2612"
    },
    {
      "channel": 4,
      "note": 86,
      "start": 0.1429,
      "duration": 0.0307,
      "velocity": 96,
      "chip": "ym2612"
    },
    {
      "channel": 0,
      "note": 76,
      "start": 0.1717,
      "duration": 0.0311,
      "velocity": 96,
      "chip": "ym2612"
    },
    {
      "channel": 4,
      "note": 81,
      "start": 0.2046,
      "duration": 0.0329,
      "velocity": 96,
      "chip": "ym2612"
    },
    {
      "channel": 0,
      "note": 86,
      "start": 0.2359,
      "duration": 0.0293,
      "velocity": 96,
      "chip": "ym2612"
    },
    {
      "channel": 4,
      "note": 76,
      "start": 0.2694,
      "duration": 0.0288,
      "velocity": 96,
      "chip": "ym2612"
    },
    {
      "channel": 0,
      "note": 81,
      "start": 0.2966,
      "duration": 0.031,
      "velocity": 96,
      "chip": "ym2612"
    },
    {
      "channel": 4,
      "note": 86,
      "start": 0.3293,
      "duration": 0.0312,
      "velocity": 96,
      "chip": "ym2612"
    },
    {
      "channel": 0,
      "note": 76,
      "start": 0.3591,
      "duration": 0.031,
      "velocity": 96,
      "chip": "ym2612"
    },
    {
      "channel": 4,
      "note": 81,
      "start": 0.3918,
      "duration": 0.0318,
      "velocity": 96,
      "chip": "ym2612"
    },
    {
      "channel": 0,
      "note": 86,
      "start": 0.4217,
      "duration": 0.0309,
      "velocity": 96,
      "chip": "ym2612"
    },
    {
      "channel": 4,
      "note": 76,
      "start": 0.4543,
      "duration": 0.0312,
      "velocity": 96,
      "chip": "ym2612"
    },
    {
      "channel": 0,
      "note": 81,
      "start": 0.4841,
      "duration": 0.031,
      "velocity": 96,
      "chip": "ym2612"
    },
    {
      "channel": 4,
      "note": 86,
      "start": 0.5166,
      "duration": 0.0313,
      "velocity": 96,
      "chip": "ym2612"
    },
    {
      "channel": 0,
      "note": 76,
      "start": 0.5466,
      "duration": 0.031,
      "velocity": 96,
      "chip": "ym2612"
    },
    {
      "channel": 4,
      "note": 81,
      "start": 0.5792,
      "duration": 0.0328,
      "velocity": 96,
      "chip": "ym2612"
    },
    {
      "channel": 0,
      "note": 86,
      "start": 0.6108,
      "duration": 0.0293,
      "velocity": 96,
      "chip": "ym2612"
    },
    {
      "channel": 4,
      "note": 76,
      "start": 0.644,
      "duration": 0.0292,
      "velocity": 96,
      "chip": "ym2612"
    },
    {
      "channel": 0,
      "note": 81,
      "start": 0.6715,
      "duration": 0.031,
      "velocity": 96,
      "chip": "ym2612"
    },
    {
      "channel": 4,
      "note": 86,
      "start": 0.704,
      "duration": 0.0313,
      "velocity": 96,
      "chip": "ym2612"
    },
    {
      "channel": 0,
      "note": 76,
      "start": 0.734,
      "duration": 0.031,
      "velocity": 96,
      "chip": "ym2612"
    },
    {
      "channel": 4,
      "note": 81,
      "start": 0.7665,
      "duration": 0.0312,
      "velocity": 96,
      "chip": "ym2612"
    },
    {
      "channel": 0,
      "note": 86,
      "start": 0.7965,
      "duration": 0.031,
      "velocity": 96,
      "chip": "ym2612"
    },
    {
      "channel": 4,
      "note": 76,
      "start": 0.8289,
      "duration": 0.0312,
      "velocity": 96,
      "chip": "ym2612"
    },
    {
      "channel": 0,
      "note": 81,
      "start": 0.8589,
      "duration": 0.0313,
      "velocity": 96,
      "chip": "ym2612"
    },
    {
      "channel": 4,
      "note": 86,
      "start": 0.8917,
      "duration": 0.0311,
      "velocity": 96,
      "chip": "ym2612"
    },
    {
      "channel": 0,
      "note": 76,
      "start": 0.9214,
      "duration": 0.0311,
      "velocity": 96,
      "chip": "ym2612"
    },
    {
      "channel": 4,
      "note": 81,
      "start": 0.9539,
      "duration": 0.033,
      "velocity": 96,
      "chip": "ym2612"
    },
    {
      "channel": 0,
      "note": 86,
      "start": 0.9856,
      "duration": 0.0293,
      "velocity": 96,
      "chip": "ym2612"
    },
    {
      "channel": 4,
      "note": 76,
      "start": 1.0188,
      "duration": 0.0288,
      "velocity": 96,
      "chip": "ym2612"
    },
    {
      "channel": 0,
      "note": 81,
      "start": 1.0464,
      "duration": 0.031,
      "velocity": 96,
      "chip": "ym2612"
    },
    {
      "channel": 4,
      "note": 86,
      "start": 1.0788,
      "duration": 0.0313,
      "velocity": 96,
      "chip": "ym2612"
    },
    {
      "channel": 0,
      "note": 76,
      "start": 1.1089,
      "duration": 0.0313,
      "velocity": 96,
      "chip": "ym2612"
    },
    {
      "channel": 4,
      "note": 81,
      "start": 1.1416,
      "duration": 0.031,
      "velocity": 96,
      "chip": "ym2612"
    },
    {
      "channel": 0,
      "note": 86,
      "start": 1.1713,
      "duration": 0.0064,
      "velocity": 96,
      "chip": "ym2612"
    },
    {
      "channel": 4,
      "note": 76,
      "start": 1.1791,
      "duration": 0.0056,
      "velocity": 96,
      "chip": "ym2612"
    },
    {
      "channel": 0,
      "note": 81,
      "start": 1.1835,
      "duration": 0.0054,
      "velocity": 96,
      "chip": "ym2612"
    },
    {
      "channel": 4,
      "note": 86,
      "start": 1.1903,
      "duration": 0.0056,
      "velocity": 96,
      "chip": "ym2612"
    },
    {
      "channel": 0,
      "note": 76,
      "start": 1.1946,
      "duration": 0.0054,
      "velocity": 96,
      "chip": "ym2612"
    },
    {
      "channel": 4,
      "note": 81,
      "start": 1.2015,
      "duration": 0.0091,
      "velocity": 96,
      "chip": "ym2612"
    },
    {
      "channel": 0,
      "note": 86,
      "start": 1.2094,
      "duration": 0.0058,
      "velocity": 96,
      "chip": "ym2612"
    },
    {
      "channel": 4,
      "note": 76,
      "start": 1.2194,
      "duration": 0.006,
      "velocity": 96,
      "chip": "ym2612"
    },
    {
      "channel": 0,
      "note": 81,
      "start": 1.2242,
      "duration": 0.0058,
      "velocity": 96,
      "chip": "ym2612"
    },
    {
      "channel": 4,
      "note": 86,
      "start": 1.2315,
      "duration": 0.0056,
      "velocity": 96,
      "chip": "ym2612"
    },
    {
      "channel": 0,
      "note": 76,
      "start": 1.2358,
      "duration": 0.0055,
      "velocity": 96,
      "chip": "ym2612"
    },
    {
      "channel": 4,
      "note": 81,
      "start": 1.2428,
      "duration": 0.0056,
      "velocity": 96,
      "chip": "ym2612"
    },
    {
      "channel": 0,
      "note": 86,
      "start": 1.2471,
      "duration": 0.0191,
      "velocity": 96,
      "chip": "ym2612"
    },
    {
      "channel": 4,
      "note": 76,
      "start": 1.2677,
      "duration": 0.0312,
      "velocity": 96,
      "chip": "ym2612"
    },
    {
      "channel": 0,
      "note": 81,
      "start": 1.2977,
      "duration": 0.0312,
      "velocity": 96,
      "chip": "ym2612"
    },
    {
      "channel": 4,
      "note": 86,
      "start": 1.3306,
      "duration": 0.0308,
      "velocity": 96,
      "chip": "ym2612"
    },
    {
      "channel": 0,
      "note": 76,
      "start": 1.3602,
      "duration": 0.0311,
      "velocity": 96,
      "chip": "ym2612"
    },
    {
      "channel": 4,
      "note": 81,
      "start": 1.3927,
      "duration": 0.033,
      "velocity": 96,
      "chip": "ym2612"
    },
    {
      "channel": 0,
      "note": 86,
      "start": 1.4244,
      "duration": 0.0293,
      "velocity": 96,
      "chip": "ym2612"
    },
    {
      "channel": 4,
      "note": 76,
      "start": 1.4576,
      "duration": 0.0288,
      "velocity": 96,
      "chip": "ym2612"
    },
    {
      "channel": 0,
      "note": 81,
      "start": 1.4851,
      "duration": 0.031,
      "velocity": 96,
      "chip": "ym2612"
    },
    {
      "channel": 4,
      "note": 86,
      "start": 1.5176,
      "duration": 0.0313,
      "velocity": 96,
      "chip": "ym2612"
    },
    {
      "channel": 0,
      "note": 76,
      "start": 1.5476,
      "duration": 0.031,
      "velocity": 96,
      "chip": "ym2612"
    },
    {
      "channel": 4,
      "note": 81,
      "start": 1.5805,
      "duration": 0.0308,
      "velocity": 96,
      "chip": "ym2612"
    },
    {
      "channel": 0,
      "note": 86,
      "start": 1.6101,
      "duration": 0.031,
      "velocity": 96,
      "chip": "ym2612"
    },
    {
      "channel": 4,
      "note": 76,
      "start": 1.6425,
      "duration": 0.0313,
      "velocity": 96,
      "chip": "ym2612"
    },
    {
      "channel": 0,
      "note": 81,
      "start": 1.6726,
      "duration": 0.031,
      "velocity": 96,
      "chip": "ym2612"
    },
    {
      "channel": 4,
      "note": 86,
      "start": 1.705,
      "duration": 0.0312,
      "velocity": 96,
      "chip": "ym2612"
    },
    {
      "channel": 0,
      "note": 76,
      "start": 1.735,
      "duration": 0.031,
      "velocity": 96,
      "chip": "ym2612"
    },
    {
      "channel": 4,
      "note": 81,
      "start": 1.7675,
      "duration": 0.0332,
      "velocity": 96,
      "chip": "ym2612"
    },
    {
      "channel": 0,
      "note": 86,
      "start": 1.7995,
      "duration": 0.0291,
      "velocity": 96,
      "chip": "ym2612"
    },
    {
      "channel": 4,
      "note": 76,
      "start": 1.833,
      "duration": 0.0282,
      "velocity": 96,
      "chip": "ym2612"
    },
    {
      "channel": 0,
      "note": 81,
      "start": 1.86,
      "duration": 0.031,
      "velocity": 96,
      "chip": "ym2612"
    },
    {
      "channel": 4,
      "note": 86,
      "start": 1.8925,
      "duration": 0.0312,
      "velocity": 96,
      "chip": "ym2612"
    },
    {
      "channel": 0,
      "note": 76,
      "start": 1.9225,
      "duration": 0.0311,
      "velocity": 96,
      "chip": "ym2612"
    },
    {
      "channel": 4,
      "note": 81,
      "start": 1.9549,
      "duration": 0.0312,
      "velocity": 96,
      "chip": "ym2612"
    },
    {
      "channel": 0,
      "note": 86,
      "start": 1.985,
      "duration": 0.031,
      "velocity": 96,
      "chip": "ym2612"
    },
    {
      "channel": 4,
      "note": 76,
      "start": 2.0174,
      "duration": 0.0315,
      "velocity": 96,
      "chip": "ym2612"
    },
    {
      "channel": 0,
      "note": 81,
      "start": 2.0477,
      "duration": 0.0307,
      "velocity": 96,
      "chip": "ym2612"
    },
    {
      "channel": 4,
      "note": 86,
      "start": 2.08,
      "duration": 0.0311,
      "velocity": 96,
      "chip": "ym2612"
    },
    {
      "channel": 0,
      "note": 76,
      "start": 2.1099,
      "duration": 0.031,
      "velocity": 96,
      "chip": "ym2612"
    },
    {
      "channel": 4,
      "note": 81,
      "start": 2.1424,
      "duration": 0.0329,
      "velocity": 96,
      "chip": "ym2612"
    },
    {
      "channel": 0,
      "note": 86,
      "start": 2.1741,
      "duration": 0.0293,
      "velocity": 96,
      "chip": "ym2612"
    },
    {
      "channel": 4,
      "note": 76,
      "start": 2.2074,
      "duration": 0.0287,
      "velocity": 96,
      "chip": "ym2612"
    },
    {
      "channel": 0,
      "note": 81,
      "start": 2.2349,
      "duration": 0.031,
      "velocity": 96,
      "chip": "ym2612"
    },
    {
      "channel": 4,
      "note": 86,
      "start": 2.2673,
      "duration": 0.0315,
      "velocity": 96,
      "chip": "ym2612"
    },
    {
      "channel": 0,
      "note": 76,
      "start": 2.2973,
      "duration": 0.031,
      "velocity": 96,
      "chip": "ym2612"
    },
    {
      "channel": 4,
      "note": 81,
      "start": 2.3298,
      "duration": 0.0312,
      "velocity": 96,
      "chip": "ym2612"
    },
    {
      "channel": 0,
      "note": 86,
      "start": 2.3598,
      "duration": 0.0059,
      "velocity": 96,
      "chip": "ym2612"
    },
    {
      "channel": 4,
      "note": 76,
      "start": 2.3671,
      "duration": 0.0056,
      "velocity": 96,
      "chip": "ym2612"
    },
    {
      "channel": 0,
      "note": 81,
      "start": 2.3715,
      "duration": 0.0056,
      "velocity": 96,
      "chip": "ym2612"
    },
    {
      "channel": 4,
      "note": 86,
      "start": 2.3785,
      "duration": 0.0056,
      "velocity": 96,
      "chip": "ym2612"
    },
    {
      "channel": 0,
      "note": 76,
      "start": 2.3829,
      "duration": 0.0053,
      "velocity": 96,
      "chip": "ym2612"
    },
    {
      "channel": 4,
      "note": 81,
      "start": 2.3896,
      "duration": 0.0085,
      "velocity": 96,
      "chip": "ym2612"
    },
    {
      "channel": 0,
      "note": 86,
      "start": 2.3965,
      "duration": 0.0066,
      "velocity": 96,
      "chip": "ym2612"
    },
    {
      "channel": 4,
      "note": 76,
      "start": 2.4074,
      "duration": 0.0057,
      "velocity": 96,
      "chip": "ym2612"
    },
    {
      "channel": 0,
      "note": 81,
      "start": 2.4119,
      "duration": 0.0054,
      "velocity": 96,
      "chip": "ym2612"
    },
    {
      "channel": 4,
      "note": 86,
      "start": 2.4187,
      "duration": 0.0055,
      "velocity": 96,
      "chip": "ym2612"
    },
    {
      "channel": 0,
      "note": 76,
      "start": 2.423,
      "duration": 0.0054,
      "velocity": 96,
      "chip": "ym2612"
    },
    {
      "channel": 4,
      "note": 81,
      "start": 2.4298,
      "duration": 0.006,
      "velocity": 96,
      "chip": "ym2612"
    },
    {
      "channel": 0,
      "note": 86,
      "start": 2.4341,
      "duration": 0.0183,
      "velocity": 96,
      "chip": "ym2612"
    },
    {
      "channel": 4,
      "note": 76,
      "start": 2.4537,
      "duration": 0.0317,
      "velocity": 96,
      "chip": "ym2612"
    },
    {
      "channel": 0,
      "note": 81,
      "start": 2.4839,
      "duration": 0.0309,
      "velocity": 96,
      "chip": "ym2612"
    },
    {
      "channel": 4,
      "note": 86,
      "start": 2.5166,
      "duration": 0.0307,
      "velocity": 96,
      "chip": "ym2612"
    },
    {
      "channel": 0,
      "note": 76,
      "start": 2.5462,
      "duration": 0.031,
      "velocity": 96,
      "chip": "ym2612"
    },
    {
      "channel": 4,
      "note": 81,
      "start": 2.5785,
      "duration": 0.033,
      "velocity": 96,
      "chip": "ym2612"
    },
    {
      "channel": 0,
      "note": 86,
      "start": 2.6104,
      "duration": 0.0293,
      "velocity": 96,
      "chip": "ym2612"
    },
    {
      "channel": 4,
      "note": 76,
      "start": 2.6436,
      "duration": 0.0288,
      "velocity": 96,
      "chip": "ym2612"
    },
    {
      "channel": 0,
      "note": 81,
      "start": 2.6712,
      "duration": 0.0312,
      "velocity": 96,
      "chip": "ym2612"
    },
    {
      "channel": 4,
      "note": 86,
      "start": 2.7037,
      "duration": 0.0313,
      "velocity": 96,
      "chip": "ym2612"
    },
    {
      "channel": 0,
      "note": 76,
      "start": 2.7337,
      "duration": 0.031,
      "velocity": 96,
      "chip": "ym2612"
    },
    {
      "channel": 4,
      "note": 81,
      "start": 2.766,
      "duration": 0.0313,
      "velocity": 96,
      "chip": "ym2612"
    },
    {
      "channel": 0,
      "note": 86,
      "start": 2.7961,
      "duration": 0.031,
      "velocity": 96,
      "chip": "ym2612"
    },
    {
      "channel": 4,
      "note": 76,
      "start": 2.8285,
      "duration": 0.0313,
      "velocity": 96,
      "chip": "ym2612"
    },
    {
      "channel": 0,
      "note": 81,
      "start": 2.8586,
      "duration": 0.031,
      "velocity": 96,
      "chip": "ym2612"
    },
    {
      "channel": 4,
      "note": 86,
      "start": 2.8911,
      "duration": 0.0312,
      "velocity": 96,
      "chip": "ym2612"
    },
    {
      "channel": 0,
      "note": 76,
      "start": 2.9211,
      "duration": 0.0314,
      "velocity": 96,
      "chip": "ym2612"
    },
    {
      "channel": 4,
      "note": 81,
      "start": 2.9539,
      "duration": 0.033,
      "velocity": 96,
      "chip": "ym2612"
    },
    {
      "channel": 0,
      "note": 86,
      "start": 2.9857,
      "duration": 0.0289,
      "velocity": 96,
      "chip": "ym2612"
    },
    {
      "channel": 4,
      "note": 76,
      "start": 3.0187,
      "duration": 0.0286,
      "velocity": 96,
      "chip": "ym2612"
    },
    {
      "channel": 0,
      "note": 81,
      "start": 3.046,
      "duration": 0.031,
      "velocity": 96,
      "chip": "ym2612"
    },
    {
      "channel": 4,
      "note": 86,
      "start": 3.0785,
      "duration": 0.0313,
      "velocity": 96,
      "chip": "ym2612"
    },
    {
      "channel": 0,
      "note": 76,
      "start": 3.1085,
      "duration": 0.031,
      "velocity": 96,
      "chip": "ym2612"
    },
    {
      "channel": 4,
      "note": 81,
      "start": 3.141,
      "duration": 0.0312,
      "velocity": 96,
      "chip": "ym2612"
    },
    {
      "channel": 0,
      "note": 86,
      "start": 3.171,
      "duration": 0.031,
      "velocity": 96,
      "chip": "ym2612"
    },
    {
      "channel": 4,
      "note": 76,
      "start": 3.2038,
      "duration": 0.031,
      "velocity": 96,
      "chip": "ym2612"
    },
    {
      "channel": 0,
      "note": 81,
      "start": 3.2335,
      "duration": 0.031,
      "velocity": 96,
      "chip": "ym2612"
    },
    {
      "channel": 4,
      "note": 86,
      "start": 3.2659,
      "duration": 0.0312,
      "velocity": 96,
      "chip": "ym2612"
    },
    {
      "channel": 0,
      "note": 76,
      "start": 3.296,
      "duration": 0.031,
      "velocity": 96,
      "chip": "ym2612"
    },
    {
      "channel": 4,
      "note": 81,
      "start": 3.3284,
      "duration": 0.033,
      "velocity": 96,
      "chip": "ym2612"
    },
    {
      "channel": 0,
      "note": 86,
      "start": 3.3602,
      "duration": 0.0293,
      "velocity": 96,
      "chip": "ym2612"
    },
    {
      "channel": 4,
      "note": 76,
      "start": 3.3934,
      "duration": 0.0288,
      "velocity": 96,
      "chip": "ym2612"
    },
    {
      "channel": 0,
      "note": 81,
      "start": 3.4209,
      "duration": 0.0311,
      "velocity": 96,
      "chip": "ym2612"
    },
    {
      "channel": 4,
      "note": 86,
      "start": 3.4539,
      "duration": 0.0307,
      "velocity": 96,
      "chip": "ym2612"
    },
    {
      "channel": 0,
      "note": 76,
      "start": 3.4834,
      "duration": 0.031,
      "velocity": 96,
      "chip": "ym2612"
    },
    {
      "channel": 4,
      "note": 81,
      "start": 3.5158,
      "duration": 0.0313,
      "velocity": 96,
      "chip": "ym2612"
    },
    {
      "channel": 0,
      "note": 86,
      "start": 3.5459,
      "duration": 0.0058,
      "velocity": 96,
      "chip": "ym2612"
    },
    {
      "channel": 4,
      "note": 76,
      "start": 3.5531,
      "duration": 0.0056,
      "velocity": 96,
      "chip": "ym2612"
    },
    {
      "channel": 0,
      "note": 81,
      "start": 3.5574,
      "duration": 0.0054,
      "velocity": 96,
      "chip": "ym2612"
    },
    {
      "channel": 4,
      "note": 86,
      "start": 3.5642,
      "duration": 0.0057,
      "velocity": 96,
      "chip": "ym2612"
    },
    {
      "channel": 0,
      "note": 76,
      "start": 3.5687,
      "duration": 0.0057,
      "velocity": 96,
      "chip": "ym2612"
    },
    {
      "channel": 4,
      "note": 81,
      "start": 3.5762,
      "duration": 0.0086,
      "velocity": 96,
      "chip": "ym2612"
    },
    {
      "channel": 0,
      "note": 86,
      "start": 3.5831,
      "duration": 0.0063,
      "velocity": 96,
      "chip": "ym2612"
    },
    {
      "channel": 4,
      "note": 76,
      "start": 3.5934,
      "duration": 0.0061,
      "velocity": 96,
      "chip": "ym2612"
    },
    {
      "channel": 0,
      "note": 81,
      "start": 3.5982,
      "duration": 0.0055,
      "velocity": 96,
      "chip": "ym2612"
    },
    {
      "channel": 4,
      "note": 86,
      "start": 3.6051,
      "duration": 0.0057,
      "velocity": 96,
      "chip": "ym2612"
    },
    {
      "channel": 0,
      "note": 76,
      "start": 3.6096,
      "duration": 0.0054,
      "velocity": 96,
      "chip": "ym2612"
    },
    {
      "channel": 4,
      "note": 81,
      "start": 3.6163,
      "duration": 0.0066,
      "velocity": 96,
      "chip": "ym2612"
    },
    {
      "channel": 0,
      "note": 86,
      "start": 3.6208,
      "duration": 0.0185,
      "velocity": 96,
      "chip": "ym2612"
    },
    {
      "channel": 1,
      "note": 90,
      "start": 3.6214,
      "duration": 0.5439,
      "velocity": 98,
      "chip": "ym2612"
    },
    {
      "channel": 4,
      "note": 76,
      "start": 3.6413,
      "duration": 0.0308,
      "velocity": 96,
      "chip": "ym2612"
    },
    {
      "channel": 0,
      "note": 81,
      "start": 3.6707,
      "duration": 0.031,
      "velocity": 96,
      "chip": "ym2612"
    },
    {
      "channel": 4,
      "note": 86,
      "start": 3.7033,
      "duration": 0.0312,
      "velocity": 96,
      "chip": "ym2612"
    },
    {
      "channel": 0,
      "note": 76,
      "start": 3.7332,
      "duration": 0.031,
      "velocity": 96,
      "chip": "ym2612"
    },
    {
      "channel": 4,
      "note": 81,
      "start": 3.7658,
      "duration": 0.0339,
      "velocity": 96,
      "chip": "ym2612"
    },
    {
      "channel": 0,
      "note": 86,
      "start": 3.7974,
      "duration": 0.007,
      "velocity": 96,
      "chip": "ym2612"
    },
    {
      "channel": 2,
      "note": 90,
      "start": 3.7984,
      "duration": 0.3673,
      "velocity": 98,
      "chip": "ym2612"
    },
    {
      "channel": 4,
      "note": 76,
      "start": 3.8085,
      "duration": 0.0063,
      "velocity": 96,
      "chip": "ym2612"
    },
    {
      "channel": 0,
      "note": 81,
      "start": 3.8135,
      "duration": 0.0063,
      "velocity": 96,
      "chip": "ym2612"
    },
    {
      "channel": 3,
      "note": 90,
      "start": 3.8212,
      "duration": 0.3448,
      "velocity": 98,
      "chip": "ym2612"
    },
    {
      "channel": 4,
      "note": 86,
      "start": 3.8228,
      "duration": 0.006,
      "velocity": 96,
      "chip": "ym2612"
    },
    {
      "channel": 0,
      "note": 76,
      "start": 3.8274,
      "duration": 0.0058,
      "velocity": 96,
      "chip": "ym2612"
    },
    {
      "channel": 4,
      "note": 81,
      "start": 3.8348,
      "duration": 0.0061,
      "velocity": 96,
      "chip": "ym2612"
    },
    {
      "channel": 0,
      "note": 86,
      "start": 3.8395,
      "duration": 0.0148,
      "velocity": 96,
      "chip": "ym2612"
    },
    {
      "channel": 4,
      "note": 76,
      "start": 3.8559,
      "duration": 0.0312,
      "velocity": 96,
      "chip": "ym2612"
    },
    {
      "channel": 0,
      "note": 81,
      "start": 3.8857,
      "duration": 0.031,
      "velocity": 96,
      "chip": "ym2612"
    },
    {
      "channel": 4,
      "note": 86,
      "start": 3.9183,
      "duration": 0.0315,
      "velocity": 96,
      "chip": "ym2612"
    },
    {
      "channel": 0,
      "note": 76,
      "start": 3.9485,
      "duration": 0.0307,
      "velocity": 96,
      "chip": "ym2612"
    },
    {
      "channel": 4,
      "note": 81,
      "start": 3.9809,
      "duration": 0.0335,
      "velocity": 96,
      "chip": "ym2612"
    },
    {
      "channel": 0,
      "note": 86,
      "start": 4.0124,
      "duration": 0.0067,
      "velocity": 96,
      "chip": "ym2612"
    },
    {
      "channel": 4,
      "note": 76,
      "start": 4.0231,
      "duration": 0.0058,
      "velocity": 96,
      "chip": "ym2612"
    },
    {
      "channel": 0,
      "note": 81,
      "start": 4.0276,
      "duration": 0.0056,
      "velocity": 96,
      "chip": "ym2612"
    },
    {
      "channel": 4,
      "note": 86,
      "start": 4.0347,
      "duration": 0.0058,
      "velocity": 96,
      "chip": "ym2612"
    },
    {
      "channel": 0,
      "note": 76,
      "start": 4.0392,
      "duration": 0.0057,
      "velocity": 96,
      "chip": "ym2612"
    },
    {
      "channel": 4,
      "note": 81,
      "start": 4.0464,
      "duration": 0.008,
      "velocity": 96,
      "chip": "ym2612"
    },
    {
      "channel": 0,
      "note": 86,
      "start": 4.0523,
      "duration": 0.0076,
      "velocity": 96,
      "chip": "ym2612"
    },
    {
      "channel": 4,
      "note": 76,
      "start": 4.0614,
      "duration": 0.0066,
      "velocity": 96,
      "chip": "ym2612"
    },
    {
      "channel": 0,
      "note": 81,
      "start": 4.0666,
      "duration": 0.0056,
      "velocity": 96,
      "chip": "ym2612"
    },
    {
      "channel": 4,
      "note": 86,
      "start": 4.0742,
      "duration": 0.0061,
      "velocity": 96,
      "chip": "ym2612"
    },
    {
      "channel": 0,
      "note": 76,
      "start": 4.0789,
      "duration": 0.0058,
      "velocity": 96,
      "chip": "ym2612"
    },
    {
      "channel": 4,
      "note": 81,
      "start": 4.0863,
      "duration": 0.0077,
      "velocity": 96,
      "chip": "ym2612"
    },
    {
      "channel": 0,
      "note": 86,
      "start": 4.0926,
      "duration": 0.0061,
      "velocity": 96,
      "chip": "ym2612"
    },
    {
      "channel": 4,
      "note": 76,
      "start": 4.1029,
      "duration": 0.0066,
      "velocity": 96,
      "chip": "ym2612"
    },
    {
      "channel": 0,
      "note": 81,
      "start": 4.1078,
      "duration": 0.0063,
      "velocity": 96,
      "chip": "ym2612"
    },
    {
      "channel": 4,
      "note": 86,
      "start": 4.1156,
      "duration": 0.0066,
      "velocity": 96,
      "chip": "ym2612"
    },
    {
      "channel": 0,
      "note": 76,
      "start": 4.1209,
      "duration": 0.0055,
      "velocity": 96,
      "chip": "ym2612"
    },
    {
      "channel": 4,
      "note": 81,
      "start": 4.1278,
      "duration": 0.0055,
      "velocity": 96,
      "chip": "ym2612"
    },
    {
      "channel": 0,
      "note": 86,
      "start": 4.1322,
      "duration": 0.0059,
      "velocity": 96,
      "chip": "ym2612"
    },
    {
      "channel": 4,
      "note": 76,
      "start": 4.1395,
      "duration": 0.0056,
      "velocity": 96,
      "chip": "ym2612"
    },
    {
      "channel": 0,
      "note": 81,
      "start": 4.1439,
      "duration": 0.0055,
      "velocity": 96,
      "chip": "ym2612"
    },
    {
      "channel": 4,
      "note": 86,
      "start": 4.1508,
      "duration": 0.0066,
      "velocity": 96,
      "chip": "ym2612"
    },
    {
      "channel": 0,
      "note": 76,
      "start": 4.1558,
      "duration": 0.0061,
      "velocity": 96,
      "chip": "ym2612"
    },
    {
      "channel": 4,
      "note": 81,
      "start": 4.1633,
      "duration": 0.0001,
      "velocity": 96,
      "chip": "ym2612"
    },
    {
      "channel": 0,
      "note": 59,
      "start": 4.1707,
      "duration": 0.0188,
      "velocity": 99,
      "chip": "ym2612"
    },
    {
      "channel": 1,
      "note": 59,
      "start": 4.1713,
      "duration": 0.0153,
      "velocity": 98,
      "chip": "ym2612"
    },
    {
      "channel": 2,
      "note": 71,
      "start": 4.172,
      "duration": 0.0149,
      "velocity": 98,
      "chip": "ym2612"
    },
    {
      "channel": 0,
      "note": 60,
      "start": 4.1897,
      "duration": 0.0176,
      "velocity": 99,
      "chip": "ym2612"
    },
    {
      "channel": 1,
      "note": 60,
      "start": 4.1902,
      "duration": 0.0139,
      "velocity": 98,
      "chip": "ym2612"
    },
    {
      "channel": 2,
      "note": 72,
      "start": 4.1908,
      "duration": 0.0136,
      "velocity": 98,
      "chip": "ym2612"
    },
    {
      "channel": 0,
      "note": 61,
      "start": 4.2075,
      "duration": 0.0232,
      "velocity": 99,
      "chip": "ym2612"
    },
    {
      "channel": 1,
      "note": 61,
      "start": 4.2081,
      "duration": 0.0201,
      "velocity": 98,
      "chip": "ym2612"
    },
    {
      "channel": 2,
      "note": 73,
      "start": 4.2087,
      "duration": 0.0198,
      "velocity": 98,
      "chip": "ym2612"
    },
    {
      "channel": 3,
      "note": 90,
      "start": 4.2124,
      "duration": 0.0165,
      "velocity": 98,
      "chip": "ym2612"
    },
    {
      "channel": 4,
      "note": 76,
      "start": 4.2157,
      "duration": 0.0108,
      "velocity": 98,
      "chip": "ym2612"
    },
    {
      "channel": 3,
      "note": 59,
      "start": 4.232,
      "duration": 0.013,
      "velocity": 98,
      "chip": "ym2612"
    },
    {
      "channel": 4,
      "note": 71,
      "start": 4.2327,
      "duration": 0.01,
      "velocity": 98,
      "chip": "ym2612"
    },
    {
      "channel": 0,
      "note": 59,
      "start": 4.247,
      "duration": 0.0192,
      "velocity": 99,
      "chip": "ym2612"
    },
    {
      "channel": 1,
      "note": 59,
      "start": 4.2476,
      "duration": 0.0153,
      "velocity": 98,
      "chip": "ym2612"
    },
    {
      "channel": 2,
      "note": 71,
      "start": 4.2481,
      "duration": 0.0151,
      "velocity": 98,
      "chip": "ym2612"
    },
    {
      "channel": 3,
      "note": 60,
      "start": 4.2487,
      "duration": 0.0148,
      "velocity": 98,
      "chip": "ym2612"
    },
    {
      "channel": 4,
      "note": 72,
      "start": 4.2494,
      "duration": 0.0112,
      "velocity": 98,
      "chip": "ym2612"
    },
    {
      "channel": 0,
      "note": 60,
      "start": 4.2665,
      "duration": 0.0178,
      "velocity": 99,
      "chip": "ym2612"
    },
    {
      "channel": 1,
      "note": 60,
      "start": 4.267,
      "duration": 0.014,
      "velocity": 98,
      "chip": "ym2612"
    },
    {
      "channel": 2,
      "note": 72,
      "start": 4.2676,
      "duration": 0.0137,
      "velocity": 98,
      "chip": "ym2612"
    },
    {
      "channel": 0,
      "note": 61,
      "start": 4.2846,
      "duration": 0.017,
      "velocity": 99,
      "chip": "ym2612"
    },
    {
      "channel": 1,
      "note": 61,
      "start": 4.2851,
      "duration": 0.0142,
      "velocity": 98,
      "chip": "ym2612"
    },
    {
      "channel": 2,
      "note": 73,
      "start": 4.2856,
      "duration": 0.014,
      "velocity": 98,
      "chip": "ym2612"
    },
    {
      "channel": 3,
      "note": 61,
      "start": 4.2863,
      "duration": 0.0137,
      "velocity": 98,
      "chip": "ym2612"
    },
    {
      "channel": 4,
      "note": 73,
      "start": 4.2869,
      "duration": 0.0105,
      "velocity": 98,
      "chip": "ym2612"
    },
    {
      "channel": 3,
      "note": 59,
      "start": 4.3033,
      "duration": 0.0135,
      "velocity": 98,
      "chip": "ym2612"
    },
    {
      "channel": 4,
      "note": 71,
      "start": 4.3039,
      "duration": 0.0105,
      "velocity": 98,
      "chip": "ym2612"
    },
    {
      "channel": 0,
      "note": 64,
      "start": 4.3198,
      "duration": 0.034,
      "velocity": 99,
      "chip": "ym2612"
    },
    {
      "channel": 1,
      "note": 64,
      "start": 4.3204,
      "duration": 0.0302,
      "velocity": 98,
      "chip": "ym2612"
    },
    {
      "channel": 2,
      "note": 76,
      "start": 4.3209,
      "duration": 0.03,
      "velocity": 98,
      "chip": "ym2612"
    },
    {
      "channel": 3,
      "note": 60,
      "start": 4.3215,
      "duration": 0.0139,
      "velocity": 98,
      "chip": "ym2612"
    },
    {
      "channel": 4,
      "note": 72,
      "start": 4.3222,
      "duration": 0.011,
      "velocity": 98,
      "chip": "ym2612"
    },
    {
      "channel": 0,
      "note": 61,
      "start": 4.3541,
      "duration": 0.0327,
      "velocity": 99,
      "chip": "ym2612"
    },
    {
      "channel": 1,
      "note": 61,
      "start": 4.3546,
      "duration": 0.0622,
      "velocity": 98,
      "chip": "ym2612"
    },
    {
      "channel": 2,
      "note": 73,
      "start": 4.3551,
      "duration": 0.062,
      "velocity": 98,
      "chip": "ym2612"
    },
    {
      "channel": 3,
      "note": 61,
      "start": 4.3558,
      "duration": 0.0288,
      "velocity": 98,
      "chip": "ym2612"
    },
    {
      "channel": 4,
      "note": 73,
      "start": 4.3566,
      "duration": 0.0258,
      "velocity": 98,
      "chip": "ym2612"
    },
    {
      "channel": 0,
      "note": 61,
      "start": 4.387,
      "duration": 0.0339,
      "velocity": 99,
      "chip": "ym2612"
    },
    {
      "channel": 3,
      "note": 64,
      "start": 4.3881,
      "duration": 0.0641,
      "velocity": 98,
      "chip": "ym2612"
    },
    {
      "channel": 4,
      "note": 76,
      "start": 4.3888,
      "duration": 0.0602,
      "velocity": 98,
      "chip": "ym2612"
    },
    {
      "channel": 0,
      "note": 56,
      "start": 4.4212,
      "duration": 0.034,
      "velocity": 99,
      "chip": "ym2612"
    },
    {
      "channel": 1,
      "note": 68,
      "start": 4.4217,
      "duration": 0.0299,
      "velocity": 98,
      "chip": "ym2612"
    },
    {
      "channel": 2,
      "note": 80,
      "start": 4.4222,
      "duration": 0.0296,
      "velocity": 98,
      "chip": "ym2612"
    },
    {
      "channel": 0,
      "note": 61,
      "start": 4.4554,
      "duration": 0.0341,
      "velocity": 99,
      "chip": "ym2612"
    },
    {
      "channel": 1,
      "note": 61,
      "start": 4.456,
      "duration": 0.0304,
      "velocity": 98,
      "chip": "ym2612"
    },
    {
      "channel": 2,
      "note": 73,
      "start": 4.4565,
      "duration": 0.0301,
      "velocity": 98,
      "chip": "ym2612"
    },
    {
      "channel": 3,
      "note": 61,
      "start": 4.4571,
      "duration": 0.0298,
      "velocity": 98,
      "chip": "ym2612"
    },
    {
      "channel": 4,
      "note": 73,
      "start": 4.4578,
      "duration": 0.0263,
      "velocity": 98,
      "chip": "ym2612"
    },
    {
      "channel": 0,
      "note": 56,
      "start": 4.4898,
      "duration": 0.0363,
      "velocity": 99,
      "chip": "ym2612"
    },
    {
      "channel": 1,
      "note": 56,
      "start": 4.4921,
      "duration": 0.0213,
      "velocity": 98,
      "chip": "ym2612"
    },
    {
      "channel": 2,
      "note": 68,
      "start": 4.4949,
      "duration": 0.0188,
      "velocity": 98,
      "chip": "ym2612"
    },
    {
      "channel": 3,
      "note": 68,
      "start": 4.4955,
      "duration": 0.0285,
      "velocity": 98,
      "chip": "ym2612"
    },
    {
      "channel": 4,
      "note": 80,
      "start": 4.4962,
      "duration": 0.0254,
      "velocity": 98,
      "chip": "ym2612"
    },
    {
      "channel": 0,
      "note": 56,
      "start": 4.5263,
      "duration": 0.036,
      "velocity": 99,
      "chip": "ym2612"
    },
    {
      "channel": 1,
      "note": 56,
      "start": 4.529,
      "duration": 0.0212,
      "velocity": 98,
      "chip": "ym2612"
    },
    {
      "channel": 2,
      "note": 68,
      "start": 4.5312,
      "duration": 0.0192,
      "velocity": 98,
      "chip": "ym2612"
    },
    {
      "channel": 3,
      "note": 61,
      "start": 4.5318,
      "duration": 0.0287,
      "velocity": 98,
      "chip": "ym2612"
    },
    {
      "channel": 4,
      "note": 73,
      "start": 4.5325,
      "duration": 0.0257,
      "velocity": 98,
      "chip": "ym2612"
    },
    {
      "channel": 0,
      "note": 56,
      "start": 4.5626,
      "duration": 0.0338,
      "velocity": 99,
      "chip": "ym2612"
    },
    {
      "channel": 1,
      "note": 56,
      "start": 4.5631,
      "duration": 0.0201,
      "velocity": 98,
      "chip": "ym2612"
    },
    {
      "channel": 2,
      "note": 68,
      "start": 4.5637,
      "duration": 0.0198,
      "velocity": 98,
      "chip": "ym2612"
    },
    {
      "channel": 3,
      "note": 56,
      "start": 4.5643,
      "duration": 0.0293,
      "velocity": 98,
      "chip": "ym2612"
    },
    {
      "channel": 4,
      "note": 68,
      "start": 4.5649,
      "duration": 0.0263,
      "velocity": 98,
      "chip": "ym2612"
    },
    {
      "channel": 0,
      "note": 56,
      "start": 4.5966,
      "duration": 0.0367,
      "velocity": 99,
      "chip": "ym2612"
    },
    {
      "channel": 1,
      "note": 56,
      "start": 4.5989,
      "duration": 0.0212,
      "velocity": 98,
      "chip": "ym2612"
    },
    {
      "channel": 2,
      "note": 68,
      "start": 4.6012,
      "duration": 0.0192,
      "velocity": 98,
      "chip": "ym2612"
    },
    {
      "channel": 3,
      "note": 56,
      "start": 4.6018,
      "duration": 0.0298,
      "velocity": 98,
      "chip": "ym2612"
    },
    {
      "channel": 4,
      "note": 68,
      "start": 4.6024,
      "duration": 0.0266,
      "velocity": 98,
      "chip": "ym2612"
    },
    {
      "channel": 0,
      "note": 56,
      "start": 4.6335,
      "duration": 0.0352,
      "velocity": 99,
      "chip": "ym2612"
    },
    {
      "channel": 1,
      "note": 56,
      "start": 4.6341,
      "duration": 0.0207,
      "velocity": 98,
      "chip": "ym2612"
    },
    {
      "channel": 2,
      "note": 68,
      "start": 4.6346,
      "duration": 0.0204,
      "velocity": 98,
      "chip": "ym2612"
    },
    {
      "channel": 3,
      "note": 56,
      "start": 4.6352,
      "duration": 0.0304,
      "velocity": 98,
      "chip": "ym2612"
    },
    {
      "channel": 4,
      "note": 68,
      "start": 4.6359,
      "duration": 0.0271,
      "velocity": 98,
      "chip": "ym2612"
    },
    {
      "channel": 0,
      "note": 56,
      "start": 4.669,
      "duration": 0.0359,
      "velocity": 99,
      "chip": "ym2612"
    },
    {
      "channel": 1,
      "note": 56,
      "start": 4.6716,
      "duration": 0.0211,
      "velocity": 98,
      "chip": "ym2612"
    },
    {
      "channel": 2,
      "note": 68,
      "start": 4.6739,
      "duration": 0.0191,
      "velocity": 98,
      "chip": "ym2612"
    },
    {
      "channel": 3,
      "note": 56,
      "start": 4.6745,
      "duration": 0.0287,
      "velocity": 98,
      "chip": "ym2612"
    },
    {
      "channel": 4,
      "note": 68,
      "start": 4.6752,
      "duration": 0.0257,
      "velocity": 98,
      "chip": "ym2612"
    },
    {
      "channel": 0,
      "note": 56,
      "start": 4.7051,
      "duration": 0.0344,
      "velocity": 99,
      "chip": "ym2612"
    },
    {
      "channel": 1,
      "note": 56,
      "start": 4.7057,
      "duration": 0.0213,
      "velocity": 98,
      "chip": "ym2612"
    },
    {
      "channel": 2,
      "note": 68,
      "start": 4.7062,
      "duration": 0.0211,
      "velocity": 98,
      "chip": "ym2612"
    },
    {
      "channel": 3,
      "note": 56,
      "start": 4.7068,
      "duration": 0.0307,
      "velocity": 98,
      "chip": "ym2612"
    },
    {
      "channel": 4,
      "note": 68,
      "start": 4.7075,
      "duration": 0.0277,
      "velocity": 98,
      "chip": "ym2612"
    },
    {
      "channel": 0,
      "note": 61,
      "start": 4.7399,
      "duration": 0.0369,
      "velocity": 99,
      "chip": "ym2612"
    },
    {
      "channel": 1,
      "note": 88,
      "start": 4.7426,
      "duration": 0.0319,
      "velocity": 101,
      "chip": "ym2612"
    },
    {
      "channel": 2,
      "note": 85,
      "start": 4.7454,
      "duration": 0.0294,
      "velocity": 101,
      "chip": "ym2612"
    },
    {
      "channel": 0,
      "note": 61,
      "start": 4.7771,
      "duration": 0.1773,
      "velocity": 99,
      "chip": "ym2612"
    },
    {
      "channel": 3,
      "note": 56,
      "start": 4.7812,
      "duration": 0.1585,
      "velocity": 101,
      "chip": "ym2612"
    },
    {
      "channel": 4,
      "note": 68,
      "start": 4.7851,
      "duration": 0.1395,
      "velocity": 101,
      "chip": "ym2612"
    },
    {
      "channel": 0,
      "note": 61,
      "start": 4.9546,
      "duration": 0.0337,
      "velocity": 99,
      "chip": "ym2612"
    },
    {
      "channel": 1,
      "note": 86,
      "start": 4.9551,
      "duration": 0.0307,
      "velocity": 101,
      "chip": "ym2612"
    },
    {
      "channel": 2,
      "note": 83,
      "start": 4.9562,
      "duration": 0.03,
      "velocity": 101,
      "chip": "ym2612"
    },
    {
      "channel": 0,
      "note": 61,
      "start": 4.9886,
      "duration": 0.083,
      "velocity": 99,
      "chip": "ym2612"
    },
    {
      "channel": 1,
      "note": 87,
      "start": 4.9892,
      "duration": 0.1126,
      "velocity": 101,
      "chip": "ym2612"
    },
    {
      "channel": 2,
      "note": 83,
      "start": 4.9898,
      "duration": 0.1123,
      "velocity": 101,
      "chip": "ym2612"
    },
    {
      "channel": 3,
      "note": 88,
      "start": 4.9904,
      "duration": 0.0663,
      "velocity": 101,
      "chip": "ym2612"
    },
    {
      "channel": 4,
      "note": 85,
      "start": 4.9917,
      "duration": 0.0497,
      "velocity": 101,
      "chip": "ym2612"
    },
    {
      "channel": 0,
      "note": 61,
      "start": 5.0718,
      "duration": 0.0335,
      "velocity": 99,
      "chip": "ym2612"
    },
    {
      "channel": 3,
      "note": 88,
      "start": 5.073,
      "duration": 0.063,
      "velocity": 101,
      "chip": "ym2612"
    },
    {
      "channel": 4,
      "note": 85,
      "start": 5.0737,
      "duration": 0.0595,
      "velocity": 101,
      "chip": "ym2612"
    },
    {
      "channel": 0,
      "note": 61,
      "start": 5.1056,
      "duration": 0.0323,
      "velocity": 99,
      "chip": "ym2612"
    },
    {
      "channel": 1,
      "note": 83,
      "start": 5.1062,
      "duration": 0.0293,
      "velocity": 101,
      "chip": "ym2612"
    },
    {
      "channel": 0,
      "note": 61,
      "start": 5.1382,
      "duration": 0.0315,
      "velocity": 99,
      "chip": "ym2612"
    },
    {
      "channel": 1,
      "note": 85,
      "start": 5.1388,
      "duration": 0.0285,
      "velocity": 101,
      "chip": "ym2612"
    },
    {
      "channel": 3,
      "note": 87,
      "start": 5.1396,
      "duration": 0.0283,
      "velocity": 101,
      "chip": "ym2612"
    },
    {
      "channel": 0,
      "note": 61,
      "start": 5.17,
      "duration": 0.0847,
      "velocity": 99,
      "chip": "ym2612"
    },
    {
      "channel": 1,
      "note": 80,
      "start": 5.1708,
      "duration": 0.0685,
      "velocity": 101,
      "chip": "ym2612"
    },
    {
      "channel": 3,
      "note": 83,
      "start": 5.1717,
      "duration": 0.0683,
      "velocity": 101,
      "chip": "ym2612"
    },
    {
      "channel": 0,
      "note": 59,
      "start": 5.2549,
      "duration": 0.0336,
      "velocity": 99,
      "chip": "ym2612"
    },
    {
      "channel": 1,
      "note": 88,
      "start": 5.2555,
      "duration": 0.0306,
      "velocity": 101,
      "chip": "ym2612"
    },
    {
      "channel": 2,
      "note": 85,
      "start": 5.256,
      "duration": 0.0304,
      "velocity": 101,
      "chip": "ym2612"
    },
    {
      "channel": 3,
      "note": 85,
      "start": 5.2566,
      "duration": 0.03,
      "velocity": 101,
      "chip": "ym2612"
    },
    {
      "channel": 0,
      "note": 59,
      "start": 5.2888,
      "duration": 0.1814,
      "velocity": 99,
      "chip": "ym2612"
    },
    {
      "channel": 3,
      "note": 80,
      "start": 5.2901,
      "duration": 0.1653,
      "velocity": 101,
      "chip": "ym2612"
    },
    {
      "channel": 4,
      "note": 83,
      "start": 5.2907,
      "duration": 0.1492,
      "velocity": 101,
      "chip": "ym2612"
    },
    {
      "channel": 0,
      "note": 59,
      "start": 5.4704,
      "duration": 0.0322,
      "velocity": 99,
      "chip": "ym2612"
    },
    {
      "channel": 1,
      "note": 88,
      "start": 5.4709,
      "duration": 0.029,
      "velocity": 101,
      "chip": "ym2612"
    },
    {
      "channel": 2,
      "note": 85,
      "start": 5.4715,
      "duration": 0.0291,
      "velocity": 101,
      "chip": "ym2612"
    },
    {
      "channel": 0,
      "note": 59,
      "start": 5.5029,
      "duration": 0.0838,
      "velocity": 99,
      "chip": "ym2612"
    },
    {
      "channel": 1,
      "note": 87,
      "start": 5.5035,
      "duration": 0.1133,
      "velocity": 101,
      "chip": "ym2612"
    },
    {
      "channel": 2,
      "note": 83,
      "start": 5.5041,
      "duration": 0.1131,
      "velocity": 101,
      "chip": "ym2612"
    },
    {
      "channel": 3,
      "note": 88,
      "start": 5.5051,
      "duration": 0.0667,
      "velocity": 101,
      "chip": "ym2612"
    },
    {
      "channel": 4,
      "note": 85,
      "start": 5.5058,
      "duration": 0.0507,
      "velocity": 101,
      "chip": "ym2612"
    },
    {
      "channel": 0,
      "note": 59,
      "start": 5.5869,
      "duration": 0.0339,
      "velocity": 99,
      "chip": "ym2612"
    },
    {
      "channel": 3,
      "note": 88,
      "start": 5.588,
      "duration": 0.0629,
      "velocity": 101,
      "chip": "ym2612"
    },
    {
      "channel": 4,
      "note": 85,
      "start": 5.5887,
      "duration": 0.0599,
      "velocity": 101,
      "chip": "ym2612"
    },
    {
      "channel": 0,
      "note": 59,
      "start": 5.621,
      "duration": 0.0323,
      "velocity": 99,
      "chip": "ym2612"
    },
    {
      "channel": 1,
      "note": 83,
      "start": 5.6216,
      "duration": 0.0287,
      "velocity": 101,
      "chip": "ym2612"
    },
    {
      "channel": 0,
      "note": 59,
      "start": 5.6536,
      "duration": 0.0321,
      "velocity": 99,
      "chip": "ym2612"
    },
    {
      "channel": 1,
      "note": 85,
      "start": 5.6541,
      "duration": 0.0287,
      "velocity": 101,
      "chip": "ym2612"
    },
    {
      "channel": 3,
      "note": 87,
      "start": 5.655,
      "duration": 0.0286,
      "velocity": 101,
      "chip": "ym2612"
    },
    {
      "channel": 0,
      "note": 59,
      "start": 5.6859,
      "duration": 0.0844,
      "velocity": 99,
      "chip": "ym2612"
    },
    {
      "channel": 1,
      "note": 80,
      "start": 5.6865,
      "duration": 0.0684,
      "velocity": 101,
      "chip": "ym2612"
    },
    {
      "channel": 3,
      "note": 83,
      "start": 5.6873,
      "duration": 0.0682,
      "velocity": 101,
      "chip": "ym2612"
    },
    {
      "channel": 0,
      "note": 57,
      "start": 5.7705,
      "duration": 0.0335,
      "velocity": 99,
      "chip": "ym2612"
    },
    {
      "channel": 1,
      "note": 88,
      "start": 5.7711,
      "duration": 0.0306,
      "velocity": 101,
      "chip": "ym2612"
    },
    {
      "channel": 2,
      "note": 85,
      "start": 5.7716,
      "duration": 0.0303,
      "velocity": 101,
      "chip": "ym2612"
    },
    {
      "channel": 3,
      "note": 85,
      "start": 5.7722,
      "duration": 0.03,
      "velocity": 101,
      "chip": "ym2612"
    },
    {
      "channel": 0,
      "note": 57,
      "start": 5.8043,
      "duration": 0.1815,
      "velocity": 99,
      "chip": "ym2612"
    },
    {
      "channel": 3,
      "note": 80,
      "start": 5.8056,
      "duration": 0.1654,
      "velocity": 101,
      "chip": "ym2612"
    },
    {
      "channel": 4,
      "note": 83,
      "start": 5.8063,
      "duration": 0.1493,
      "velocity": 101,
      "chip": "ym2612"
    },
    {
      "channel": 0,
      "note": 57,
      "start": 5.9861,
      "duration": 0.0324,
      "velocity": 99,
      "chip": "ym2612"
    },
    {
      "channel": 1,
      "note": 88,
      "start": 5.9866,
      "duration": 0.0294,
      "velocity": 101,
      "chip": "ym2612"
    },
    {
      "channel": 2,
      "note": 85,
      "start": 5.9871,
      "duration": 0.0291,
      "velocity": 101,
      "chip": "ym2612"
    },
    {
      "channel": 0,
      "note": 57,
      "start": 6.0188,
      "duration": 0.0845,
      "velocity": 99,
      "chip": "ym2612"
    },
    {
      "channel": 1,
      "note": 87,
      "start": 6.0193,
      "duration": 0.1144,
      "velocity": 101,
      "chip": "ym2612"
    },
    {
      "channel": 2,
      "note": 83,
      "start": 6.0198,
      "duration": 0.1141,
      "velocity": 101,
      "chip": "ym2612"
    },
    {
      "channel": 3,
      "note": 88,
      "start": 6.0205,
      "duration": 0.0679,
      "velocity": 101,
      "chip": "ym2612"
    },
    {
      "channel": 4,
      "note": 85,
      "start": 6.0211,
      "duration": 0.0519,
      "velocity": 101,
      "chip": "ym2612"
    },
    {
      "channel": 0,
      "note": 57,
      "start": 6.1038,
      "duration": 0.0333,
      "velocity": 99,
      "chip": "ym2612"
    },
    {
      "channel": 3,
      "note": 88,
      "start": 6.1049,
      "duration": 0.0625,
      "velocity": 101,
      "chip": "ym2612"
    },
    {
      "channel": 4,
      "note": 85,
      "start": 6.1056,
      "duration": 0.0595,
      "velocity": 101,
      "chip": "ym2612"
    },
    {
      "channel": 0,
      "note": 57,
      "start": 6.1373,
      "duration": 0.032,
      "velocity": 99,
      "chip": "ym2612"
    },
    {
      "channel": 1,
      "note": 83,
      "start": 6.1378,
      "duration": 0.029,
      "velocity": 101,
      "chip": "ym2612"
    },
    {
      "channel": 0,
      "note": 57,
      "start": 6.1695,
      "duration": 0.0329,
      "velocity": 99,
      "chip": "ym2612"
    },
    {
      "channel": 1,
      "note": 80,
      "start": 6.17,
      "duration": 0.0134,
      "velocity": 101,
      "chip": "ym2612"
    },
    {
      "channel": 3,
      "note": 87,
      "start": 6.1709,
      "duration": 0.0297,
      "velocity": 101,
      "chip": "ym2612"
    },
    {
      "channel": 1,
      "note": 78,
      "start": 6.1863,
      "duration": 0.0137,
      "velocity": 101,
      "chip": "ym2612"
    },
    {
      "channel": 0,
      "note": 57,
      "start": 6.2027,
      "duration": 0.0829,
      "velocity": 99,
      "chip": "ym2612"
    },
    {
      "channel": 1,
      "note": 80,
      "start": 6.2032,
      "duration": 0.4774,
      "velocity": 101,
      "chip": "ym2612"
    },
    {
      "channel": 3,
      "note": 83,
      "start": 6.2041,
      "duration": 0.0129,
      "velocity": 101,
      "chip": "ym2612"
    },
    {
      "channel": 3,
      "note": 80,
      "start": 6.2199,
      "duration": 0.0512,
      "velocity": 101,
      "chip": "ym2612"
    },
    {
      "channel": 0,
      "note": 56,
      "start": 6.2859,
      "duration": 0.0325,
      "velocity": 99,
      "chip": "ym2612"
    },
    {
      "channel": 3,
      "note": 78,
      "start": 6.2876,
      "duration": 0.4259,
      "velocity": 101,
      "chip": "ym2612"
    },
    {
      "channel": 0,
      "note": 56,
      "start": 6.3186,
      "duration": 0.1817,
      "velocity": 99,
      "chip": "ym2612"
    },
    {
      "channel": 0,
      "note": 56,
      "start": 6.5006,
      "duration": 0.0346,
      "velocity": 99,
      "chip": "ym2612"
    },
    {
      "channel": 2,
      "note": 80,
      "start": 6.5033,
      "duration": 0.0836,
      "velocity": 95,
      "chip": "ym2612"
    },
    {
      "channel": 0,
      "note": 56,
      "start": 6.5355,
      "duration": 0.0818,
      "velocity": 99,
      "chip": "ym2612"
    },
    {
      "channel": 4,
      "note": 83,
      "start": 6.5396,
      "duration": 0.1054,
      "velocity": 95,
      "chip": "ym2612"
    },
    {
      "channel": 0,
      "note": 56,
      "start": 6.6175,
      "duration": 0.0329,
      "velocity": 99,
      "chip": "ym2612"
    },
    {
      "channel": 2,
      "note": 78,
      "start": 6.6183,
      "duration": 0.06,
      "velocity": 95,
      "chip": "ym2612"
    },
    {
      "channel": 0,
      "note": 56,
      "start": 6.6507,
      "duration": 0.0324,
      "velocity": 99,
      "chip": "ym2612"
    },
    {
      "channel": 4,
      "note": 80,
      "start": 6.6521,
      "duration": 0.0591,
      "velocity": 95,
      "chip": "ym2612"
    },
    {
      "channel": 0,
      "note": 56,
      "start": 6.6833,
      "duration": 0.032,
      "velocity": 99,
      "chip": "ym2612"
    },
    {
      "channel": 2,
      "note": 75,
      "start": 6.6842,
      "duration": 0.0852,
      "velocity": 95,
      "chip": "ym2612"
    },
    {
      "channel": 0,
      "note": 56,
      "start": 6.7156,
      "duration": 0.0846,
      "velocity": 99,
      "chip": "ym2612"
    },
    {
      "channel": 4,
      "note": 78,
      "start": 6.7171,
      "duration": 0.1105,
      "velocity": 95,
      "chip": "ym2612"
    },
    {
      "channel": 0,
      "note": 57,
      "start": 6.8004,
      "duration": 0.0316,
      "velocity": 99,
      "chip": "ym2612"
    },
    {
      "channel": 1,
      "note": 81,
      "start": 6.801,
      "duration": 0.1983,
      "velocity": 101,
      "chip": "ym2612"
    },
    {
      "channel": 2,
      "note": 76,
      "start": 6.8016,
      "duration": 0.4997,
      "velocity": 95,
      "chip": "ym2612"
    },
    {
      "channel": 0,
      "note": 57,
      "start": 6.8323,
      "duration": 0.1824,
      "velocity": 99,
      "chip": "ym2612"
    },
    {
      "channel": 3,
      "note": 80,
      "start": 6.8334,
      "duration": 0.2121,
      "velocity": 101,
      "chip": "ym2612"
    },
    {
      "channel": 4,
      "note": 75,
      "start": 6.834,
      "duration": 0.5107,
      "velocity": 95,
      "chip": "ym2612"
    },
    {
      "channel": 0,
      "note": 57,
      "start": 7.0149,
      "duration": 0.0324,
      "velocity": 99,
      "chip": "ym2612"
    },
    {
      "channel": 1,
      "note": 85,
      "start": 7.0155,
      "duration": 0.1015,
      "velocity": 101,
      "chip": "ym2612"
    },
    {
      "channel": 0,
      "note": 57,
      "start": 7.0475,
      "duration": 0.0848,
      "velocity": 99,
      "chip": "ym2612"
    },
    {
      "channel": 3,
      "note": 81,
      "start": 7.0487,
      "duration": 0.1141,
      "velocity": 101,
      "chip": "ym2612"
    },
    {
      "channel": 0,
      "note": 57,
      "start": 7.1325,
      "duration": 0.0329,
      "velocity": 99,
      "chip": "ym2612"
    },
    {
      "channel": 1,
      "note": 88,
      "start": 7.1331,
      "duration": 0.063,
      "velocity": 101,
      "chip": "ym2612"
    },
    {
      "channel": 0,
      "note": 57,
      "start": 7.1659,
      "duration": 0.0331,
      "velocity": 99,
      "chip": "ym2612"
    },
    {
      "channel": 3,
      "note": 85,
      "start": 7.1673,
      "duration": 0.0631,
      "velocity": 101,
      "chip": "ym2612"
    },
    {
      "channel": 0,
      "note": 57,
      "start": 7.1992,
      "duration": 0.0331,
      "velocity": 99,
      "chip": "ym2612"
    },
    {
      "channel": 1,
      "note": 92,
      "start": 7.1997,
      "duration": 0.03,
      "velocity": 101,
      "chip": "ym2612"
    },
    {
      "channel": 0,
      "note": 57,
      "start": 7.2325,
      "duration": 0.0839,
      "velocity": 99,
      "chip": "ym2612"
    },
    {
      "channel": 1,
      "note": 90,
      "start": 7.2331,
      "duration": 0.283,
      "velocity": 101,
      "chip": "ym2612"
    },
    {
      "channel": 3,
      "note": 88,
      "start": 7.234,
      "duration": 0.0677,
      "velocity": 101,
      "chip": "ym2612"
    },
    {
      "channel": 0,
      "note": 59,
      "start": 7.3167,
      "duration": 0.0324,
      "velocity": 99,
      "chip": "ym2612"
    },
    {
      "channel": 2,
      "note": 75,
      "start": 7.3175,
      "duration": 0.5026,
      "velocity": 95,
      "chip": "ym2612"
    },
    {
      "channel": 3,
      "note": 92,
      "start": 7.3181,
      "duration": 0.2444,
      "velocity": 101,
      "chip": "ym2612"
    },
    {
      "channel": 0,
      "note": 59,
      "start": 7.3494,
      "duration": 0.1821,
      "velocity": 99,
      "chip": "ym2612"
    },
    {
      "channel": 4,
      "note": 76,
      "start": 7.3509,
      "duration": 0.5162,
      "velocity": 95,
      "chip": "ym2612"
    },
    {
      "channel": 0,
      "note": 59,
      "start": 7.5317,
      "duration": 0.0327,
      "velocity": 99,
      "chip": "ym2612"
    },
    {
      "channel": 1,
      "note": 87,
      "start": 7.5322,
      "duration": 0.1022,
      "velocity": 101,
      "chip": "ym2612"
    },
    {
      "channel": 0,
      "note": 59,
      "start": 7.5646,
      "duration": 0.0852,
      "velocity": 99,
      "chip": "ym2612"
    },
    {
      "channel": 3,
      "note": 90,
      "start": 7.5657,
      "duration": 0.1149,
      "velocity": 101,
      "chip": "ym2612"
    },
    {
      "channel": 0,
      "note": 59,
      "start": 7.65,
      "duration": 0.0338,
      "velocity": 99,
      "chip": "ym2612"
    },
    {
      "channel": 1,
      "note": 85,
      "start": 7.6506,
      "duration": 0.0632,
      "velocity": 101,
      "chip": "ym2612"
    },
    {
      "channel": 0,
      "note": 59,
      "start": 7.684,
      "duration": 0.0333,
      "velocity": 99,
      "chip": "ym2612"
    },
    {
      "channel": 3,
      "note": 87,
      "start": 7.6852,
      "duration": 0.0637,
      "velocity": 101,
      "chip": "ym2612"
    },
    {
      "channel": 0,
      "note": 59,
      "start": 7.7176,
      "duration": 0.0332,
      "velocity": 99,
      "chip": "ym2612"
    },
    {
      "channel": 1,
      "note": 83,
      "start": 7.7181,
      "duration": 0.1017,
      "velocity": 101,
      "chip": "ym2612"
    },
    {
      "channel": 0,
      "note": 59,
      "start": 7.751,
      "duration": 0.0842,
      "velocity": 99,
      "chip": "ym2612"
    },
    {
      "channel": 3,
      "note": 85,
      "start": 7.7521,
      "duration": 0.1175,
      "velocity": 101,
      "chip": "ym2612"
    },
    {
      "channel": 0,
      "note": 57,
      "start": 7.8354,
      "duration": 0.0368,
      "velocity": 99,
      "chip": "ym2612"
    },
    {
      "channel": 1,
      "note": 81,
      "start": 7.836,
      "duration": 0.1016,
      "velocity": 101,
      "chip": "ym2612"
    },
    {
      "channel": 2,
      "note": 73,
      "start": 7.8383,
      "duration": 0.0996,
      "velocity": 101,
      "chip": "ym2612"
    },
    {
      "channel": 0,
      "note": 57,
      "start": 7.8724,
      "duration": 0.0349,
      "velocity": 99,
      "chip": "ym2612"
    },
    {
      "channel": 3,
      "note": 83,
      "start": 7.8735,
      "duration": 0.098,
      "velocity": 101,
      "chip": "ym2612"
    },
    {
      "channel": 4,
      "note": 75,
      "start": 7.877,
      "duration": 0.0922,
      "velocity": 101,
      "chip": "ym2612"
    },
    {
      "channel": 0,
      "note": 57,
      "start": 7.9077,
      "duration": 0.0327,
      "velocity": 99,
      "chip": "ym2612"
    },
    {
      "channel": 0,
      "note": 56,
      "start": 7.9407,
      "duration": 0.034,
      "velocity": 99,
      "chip": "ym2612"
    },
    {
      "channel": 1,
      "note": 83,
      "start": 7.9412,
      "duration": 0.0977,
      "velocity": 101,
      "chip": "ym2612"
    },
    {
      "channel": 2,
      "note": 75,
      "start": 7.9417,
      "duration": 0.0974,
      "velocity": 101,
      "chip": "ym2612"
    },
    {
      "channel": 0,
      "note": 56,
      "start": 7.9749,
      "duration": 0.0338,
      "velocity": 99,
      "chip": "ym2612"
    },
    {
      "channel": 3,
      "note": 81,
      "start": 7.976,
      "duration": 0.0968,
      "velocity": 101,
      "chip": "ym2612"
    },
    {
      "channel": 4,
      "note": 73,
      "start": 7.9767,
      "duration": 0.0939,
      "velocity": 101,
      "chip": "ym2612"
    },
    {
      "channel": 0,
      "note": 56,
      "start": 8.009,
      "duration": 0.0331,
      "velocity": 99,
      "chip": "ym2612"
    },
    {
      "channel": 0,
      "note": 54,
      "start": 8.0423,
      "duration": 0.0328,
      "velocity": 99,
      "chip": "ym2612"
    },
    {
      "channel": 1,
      "note": 85,
      "start": 8.0429,
      "duration": 0.0962,
      "velocity": 101,
      "chip": "ym2612"
    },
    {
      "channel": 2,
      "note": 76,
      "start": 8.0435,
      "duration": 0.0958,
      "velocity": 101,
      "chip": "ym2612"
    },
    {
      "channel": 0,
      "note": 54,
      "start": 8.0754,
      "duration": 0.0336,
      "velocity": 99,
      "chip": "ym2612"
    },
    {
      "channel": 3,
      "note": 83,
      "start": 8.0764,
      "duration": 0.0957,
      "velocity": 101,
      "chip": "ym2612"
    },
    {
      "channel": 4,
      "note": 75,
      "start": 8.0771,
      "duration": 0.0926,
      "velocity": 101,
      "chip": "ym2612"
    },
    {
      "channel": 0,
      "note": 54,
      "start": 8.1092,
      "duration": 0.0323,
      "velocity": 99,
      "chip": "ym2612"
    },
    {
      "channel": 0,
      "note": 56,
      "start": 8.1417,
      "duration": 0.0335,
      "velocity": 99,
      "chip": "ym2612"
    },
    {
      "channel": 1,
      "note": 87,
      "start": 8.1423,
      "duration": 0.0974,
      "velocity": 101,
      "chip": "ym2612"
    },
    {
      "channel": 2,
      "note": 78,
      "start": 8.1428,
      "duration": 0.0972,
      "velocity": 101,
      "chip": "ym2612"
    },
    {
      "channel": 0,
      "note": 56,
      "start": 8.1754,
      "duration": 0.0339,
      "velocity": 99,
      "chip": "ym2612"
    },
    {
      "channel": 3,
      "note": 85,
      "start": 8.1765,
      "duration": 0.0978,
      "velocity": 101,
      "chip": "ym2612"
    },
    {
      "channel": 4,
      "note": 76,
      "start": 8.1772,
      "duration": 0.0948,
      "velocity": 101,
      "chip": "ym2612"
    },
    {
      "channel": 0,
      "note": 56,
      "start": 8.2096,
      "duration": 0.0335,
      "velocity": 99,
      "chip": "ym2612"
    },
    {
      "channel": 0,
      "note": 57,
      "start": 8.2434,
      "duration": 0.0339,
      "velocity": 99,
      "chip": "ym2612"
    },
    {
      "channel": 1,
      "note": 88,
      "start": 8.2439,
      "duration": 0.0644,
      "velocity": 101,
      "chip": "ym2612"
    },
    {
      "channel": 2,
      "note": 80,
      "start": 8.2444,
      "duration": 0.0525,
      "velocity": 101,
      "chip": "ym2612"
    },
    {
      "channel": 0,
      "note": 57,
      "start": 8.2775,
      "duration": 0.034,
      "velocity": 99,
      "chip": "ym2612"
    },
    {
      "channel": 3,
      "note": 87,
      "start": 8.2786,
      "duration": 0.0636,
      "velocity": 101,
      "chip": "ym2612"
    },
    {
      "channel": 4,
      "note": 78,
      "start": 8.2793,
      "duration": 0.0494,
      "velocity": 101,
      "chip": "ym2612"
    },
    {
      "channel": 2,
      "note": 81,
      "start": 8.3,
      "duration": 0.0749,
      "velocity": 101,
      "chip": "ym2612"
    },
    {
      "channel": 0,
      "note": 56,
      "start": 8.3117,
      "duration": 0.033,
      "velocity": 99,
      "chip": "ym2612"
    },
    {
      "channel": 1,
      "note": 90,
      "start": 8.3123,
      "duration": 0.0624,
      "velocity": 101,
      "chip": "ym2612"
    },
    {
      "channel": 4,
      "note": 80,
      "start": 8.3343,
      "duration": 0.0001,
      "velocity": 101,
      "chip": "ym2612"
    },
    {
      "channel": 4,
      "note": 81,
      "start": 8.3396,
      "duration": 0.0001,
      "velocity": 101,
      "chip": "ym2612"
    },
    {
      "channel": 0,
      "note": 56,
      "start": 8.345,
      "duration": 0.0334,
      "velocity": 99,
      "chip": "ym2612"
    },
    {
      "channel": 3,
      "note": 88,
      "start": 8.3463,
      "duration": 0.0624,
      "velocity": 101,
      "chip": "ym2612"
    },
    {
      "channel": 4,
      "note": 82,
      "start": 8.347,
      "duration": 0.0594,
      "velocity": 101,
      "chip": "ym2612"
    },
    {
      "channel": 0,
      "note": 61,
      "start": 8.3786,
      "duration": 0.032,
      "velocity": 99,
      "chip": "ym2612"
    },
    {
      "channel": 1,
      "note": 88,
      "start": 8.3791,
      "duration": 0.0291,
      "velocity": 101,
      "chip": "ym2612"
    },
    {
      "channel": 2,
      "note": 85,
      "start": 8.3797,
      "duration": 0.0288,
      "velocity": 101,
      "chip": "ym2612"
    },
    {
      "channel": 0,
      "note": 61,
      "start": 8.4108,
      "duration": 0.1828,
      "velocity": 99,
      "chip": "ym2612"
    },
    {
      "channel": 3,
      "note": 90,
      "start": 8.4121,
      "duration": 0.1667,
      "velocity": 101,
      "chip": "ym2612"
    },
    {
      "channel": 4,
      "note": 83,
      "start": 8.4129,
      "duration": 0.1505,
      "velocity": 101,
      "chip": "ym2612"
    },
    {
      "channel": 0,
      "note": 61,
      "start": 8.5939,
      "duration": 0.0341,
      "velocity": 99,
      "chip": "ym2612"
    },
    {
      "channel": 1,
      "note": 86,
      "start": 8.5944,
      "duration": 0.0309,
      "velocity": 101,
      "chip": "ym2612"
    },
    {
      "channel": 2,
      "note": 83,
      "start": 8.5955,
      "duration": 0.0301,
      "velocity": 101,
      "chip": "ym2612"
    },
    {
      "channel": 0,
      "note": 61,
      "start": 8.6283,
      "duration": 0.0824,
      "velocity": 99,
      "chip": "ym2612"
    },
    {
      "channel": 1,
      "note": 87,
      "start": 8.6289,
      "duration": 0.1122,
      "velocity": 101,
      "chip": "ym2612"
    },
    {
      "channel": 2,
      "note": 83,
      "start": 8.6296,
      "duration": 0.1118,
      "velocity": 101,
      "chip": "ym2612"
    },
    {
      "channel": 3,
      "note": 88,
      "start": 8.6305,
      "duration": 0.0652,
      "velocity": 101,
      "chip": "ym2612"
    },
    {
      "channel": 4,
      "note": 85,
      "start": 8.6317,
      "duration": 0.0486,
      "velocity": 101,
      "chip": "ym2612"
    },
    {
      "channel": 0,
      "note": 61,
      "start": 8.7109,
      "duration": 0.0337,
      "velocity": 99,
      "chip": "ym2612"
    },
    {
      "channel": 3,
      "note": 88,
      "start": 8.712,
      "duration": 0.0631,
      "velocity": 101,
      "chip": "ym2612"
    },
    {
      "channel": 4,
      "note": 85,
      "start": 8.7128,
      "duration": 0.0601,
      "velocity": 101,
      "chip": "ym2612"
    },
    {
      "channel": 0,
      "note": 61,
      "start": 8.7448,
      "duration": 0.0322,
      "velocity": 99,
      "chip": "ym2612"
    },
    {
      "channel": 1,
      "note": 83,
      "start": 8.7454,
      "duration": 0.0293,
      "velocity": 101,
      "chip": "ym2612"
    },
    {
      "channel": 0,
      "note": 61,
      "start": 8.7773,
      "duration": 0.0325,
      "velocity": 99,
      "chip": "ym2612"
    },
    {
      "channel": 1,
      "note": 85,
      "start": 8.7778,
      "duration": 0.029,
      "velocity": 101,
      "chip": "ym2612"
    },
    {
      "channel": 3,
      "note": 87,
      "start": 8.7787,
      "duration": 0.0288,
      "velocity": 101,
      "chip": "ym2612"
    },
    {
      "channel": 0,
      "note": 61,
      "start": 8.81,
      "duration": 0.0837,
      "velocity": 99,
      "chip": "ym2612"
    },
    {
      "channel": 1,
      "note": 80,
      "start": 8.8106,
      "duration": 0.0676,
      "velocity": 101,
      "chip": "ym2612"
    },
    {
      "channel": 3,
      "note": 83,
      "start": 8.8115,
      "duration": 0.0673,
      "velocity": 101,
      "chip": "ym2612"
    },
    {
      "channel": 0,
      "note": 59,
      "start": 8.894,
      "duration": 0.0331,
      "velocity": 99,
      "chip": "ym2612"
    },
    {
      "channel": 1,
      "note": 88,
      "start": 8.8945,
      "duration": 0.0301,
      "velocity": 101,
      "chip": "ym2612"
    },
    {
      "channel": 2,
      "note": 85,
      "start": 8.8951,
      "duration": 0.0299,
      "velocity": 101,
      "chip": "ym2612"
    },
    {
      "channel": 3,
      "note": 85,
      "start": 8.8957,
      "duration": 0.0296,
      "velocity": 101,
      "chip": "ym2612"
    },
    {
      "channel": 0,
      "note": 59,
      "start": 8.9274,
      "duration": 0.1814,
      "velocity": 99,
      "chip": "ym2612"
    },
    {
      "channel": 3,
      "note": 80,
      "start": 8.9287,
      "duration": 0.1652,
      "velocity": 101,
      "chip": "ym2612"
    },
    {
      "channel": 4,
      "note": 83,
      "start": 8.9293,
      "duration": 0.1492,
      "velocity": 101,
      "chip": "ym2612"
    },
    {
      "channel": 0,
      "note": 59,
      "start": 9.109,
      "duration": 0.0326,
      "velocity": 99,
      "chip": "ym2612"
    },
    {
      "channel": 1,
      "note": 88,
      "start": 9.1095,
      "duration": 0.0296,
      "velocity": 101,
      "chip": "ym2612"
    },
    {
      "channel": 2,
      "note": 85,
      "start": 9.11,
      "duration": 0.0294,
      "velocity": 101,
      "chip": "ym2612"
    },
    {
      "channel": 0,
      "note": 59,
      "start": 9.1419,
      "duration": 0.0843,
      "velocity": 99,
      "chip": "ym2612"
    },
    {
      "channel": 1,
      "note": 87,
      "start": 9.1424,
      "duration": 0.1136,
      "velocity": 101,
      "chip": "ym2612"
    },
    {
      "channel": 2,
      "note": 83,
      "start": 9.1429,
      "duration": 0.1134,
      "velocity": 101,
      "chip": "ym2612"
    },
    {
      "channel": 3,
      "note": 88,
      "start": 9.1436,
      "duration": 0.0679,
      "velocity": 101,
      "chip": "ym2612"
    },
    {
      "channel": 4,
      "note": 85,
      "start": 9.1442,
      "duration": 0.0516,
      "velocity": 101,
      "chip": "ym2612"
    },
    {
      "channel": 0,
      "note": 59,
      "start": 9.2264,
      "duration": 0.0332,
      "velocity": 99,
      "chip": "ym2612"
    },
    {
      "channel": 3,
      "note": 88,
      "start": 9.2279,
      "duration": 0.0619,
      "velocity": 101,
      "chip": "ym2612"
    },
    {
      "channel": 4,
      "note": 85,
      "start": 9.2286,
      "duration": 0.059,
      "velocity": 101,
      "chip": "ym2612"
    },
    {
      "channel": 0,
      "note": 59,
      "start": 9.2598,
      "duration": 0.0323,
      "velocity": 99,
      "chip": "ym2612"
    },
    {
      "channel": 1,
      "note": 83,
      "start": 9.2604,
      "duration": 0.0289,
      "velocity": 101,
      "chip": "ym2612"
    },
    {
      "channel": 0,
      "note": 59,
      "start": 9.2924,
      "duration": 0.0319,
      "velocity": 99,
      "chip": "ym2612"
    },
    {
      "channel": 1,
      "note": 85,
      "start": 9.2929,
      "duration": 0.029,
      "velocity": 101,
      "chip": "ym2612"
    },
    {
      "channel": 3,
      "note": 87,
      "start": 9.2938,
      "duration": 0.0287,
      "velocity": 101,
      "chip": "ym2612"
    },
    {
      "channel": 0,
      "note": 59,
      "start": 9.3246,
      "duration": 0.0841,
      "velocity": 99,
      "chip": "ym2612"
    },
    {
      "channel": 1,
      "note": 80,
      "start": 9.3251,
      "duration": 0.0683,
      "velocity": 101,
      "chip": "ym2612"
    },
    {
      "channel": 3,
      "note": 83,
      "start": 9.326,
      "duration": 0.0685,
      "velocity": 101,
      "chip": "ym2612"
    },
    {
      "channel": 0,
      "note": 57,
      "start": 9.409,
      "duration": 0.0322,
      "velocity": 99,
      "chip": "ym2612"
    },
    {
      "channel": 1,
      "note": 88,
      "start": 9.4095,
      "duration": 0.0292,
      "velocity": 101,
      "chip": "ym2612"
    },
    {
      "channel": 2,
      "note": 85,
      "start": 9.4102,
      "duration": 0.0288,
      "velocity": 101,
      "chip": "ym2612"
    },
    {
      "channel": 3,
      "note": 85,
      "start": 9.4111,
      "duration": 0.0282,
      "velocity": 101,
      "chip": "ym2612"
    },
    {
      "channel": 0,
      "note": 57,
      "start": 9.4414,
      "duration": 0.1817,
      "velocity": 99,
      "chip": "ym2612"
    },
    {
      "channel": 3,
      "note": 80,
      "start": 9.4427,
      "duration": 0.1656,
      "velocity": 101,
      "chip": "ym2612"
    },
    {
      "channel": 4,
      "note": 83,
      "start": 9.4434,
      "duration": 0.1495,
      "velocity": 101,
      "chip": "ym2612"
    },
    {
      "channel": 0,
      "note": 57,
      "start": 9.6234,
      "duration": 0.0327,
      "velocity": 99,
      "chip": "ym2612"
    },
    {
      "channel": 1,
      "note": 88,
      "start": 9.6239,
      "duration": 0.0298,
      "velocity": 101,
      "chip": "ym2612"
    },
    {
      "channel": 2,
      "note": 85,
      "start": 9.6245,
      "duration": 0.0295,
      "velocity": 101,
      "chip": "ym2612"
    },
    {
      "channel": 0,
      "note": 57,
      "start": 9.6564,
      "duration": 0.0832,
      "velocity": 99,
      "chip": "ym2612"
    },
    {
      "channel": 1,
      "note": 87,
      "start": 9.6569,
      "duration": 0.1124,
      "velocity": 101,
      "chip": "ym2612"
    },
    {
      "channel": 2,
      "note": 83,
      "start": 9.6575,
      "duration": 0.1122,
      "velocity": 101,
      "chip": "ym2612"
    },
    {
      "channel": 3,
      "note": 88,
      "start": 9.6581,
      "duration": 0.0666,
      "velocity": 101,
      "chip": "ym2612"
    },
    {
      "channel": 4,
      "note": 85,
      "start": 9.6588,
      "duration": 0.0512,
      "velocity": 101,
      "chip": "ym2612"
    },
    {
      "channel": 0,
      "note": 57,
      "start": 9.7399,
      "duration": 0.033,
      "velocity": 99,
      "chip": "ym2612"
    },
    {
      "channel": 3,
      "note": 88,
      "start": 9.741,
      "duration": 0.0624,
      "velocity": 101,
      "chip": "ym2612"
    },
    {
      "channel": 4,
      "note": 85,
      "start": 9.7416,
      "duration": 0.0594,
      "velocity": 101,
      "chip": "ym2612"
    },
    {
      "channel": 0,
      "note": 57,
      "start": 9.7731,
      "duration": 0.0322,
      "velocity": 99,
      "chip": "ym2612"
    },
    {
      "channel": 1,
      "note": 83,
      "start": 9.7736,
      "duration": 0.0291,
      "velocity": 101,
      "chip": "ym2612"
    },
    {
      "channel": 0,
      "note": 57,
      "start": 9.8055,
      "duration": 0.0329,
      "velocity": 99,
      "chip": "ym2612"
    },
    {
      "channel": 1,
      "note": 80,
      "start": 9.8061,
      "duration": 0.0138,
      "velocity": 101,
      "chip": "ym2612"
    },
    {
      "channel": 3,
      "note": 87,
      "start": 9.8069,
      "duration": 0.0296,
      "velocity": 101,
      "chip": "ym2612"
    },
    {
      "channel": 1,
      "note": 78,
      "start": 9.8229,
      "duration": 0.0131,
      "velocity": 101,
      "chip": "ym2612"
    },
    {
      "channel": 0,
      "note": 57,
      "start": 9.8387,
      "duration": 0.0833,
      "velocity": 99,
      "chip": "ym2612"
    },
    {
      "channel": 1,
      "note": 80,
      "start": 9.8392,
      "duration": 0.4784,
      "velocity": 101,
      "chip": "ym2612"
    },
    {
      "channel": 3,
      "note": 83,
      "start": 9.8401,
      "duration": 0.0128,
      "velocity": 101,
      "chip": "ym2612"
    },
    {
      "channel": 3,
      "note": 80,
      "start": 9.8558,
      "duration": 0.0515,
      "velocity": 101,
      "chip": "ym2612"
    },
    {
      "channel": 0,
      "note": 56,
      "start": 9.9222,
      "duration": 0.0322,
      "velocity": 99,
      "chip": "ym2612"
    },
    {
      "channel": 3,
      "note": 78,
      "start": 9.9234,
      "duration": 0.4283,
      "velocity": 101,
      "chip": "ym2612"
    },
    {
      "channel": 0,
      "note": 56,
      "start": 9.9547,
      "duration": 0.1817,
      "velocity": 99,
      "chip": "ym2612"
    },
    {
      "channel": 0,
      "note": 56,
      "start": 10.1366,
      "duration": 0.0348,
      "velocity": 99,
      "chip": "ym2612"
    },
    {
      "channel": 2,
      "note": 80,
      "start": 10.1393,
      "duration": 0.0837,
      "velocity": 95,
      "chip": "ym2612"
    },
    {
      "channel": 0,
      "note": 56,
      "start": 10.1716,
      "duration": 0.0821,
      "velocity": 99,
      "chip": "ym2612"
    },
    {
      "channel": 4,
      "note": 83,
      "start": 10.1757,
      "duration": 0.1063,
      "velocity": 95,
      "chip": "ym2612"
    },
    {
      "channel": 0,
      "note": 56,
      "start": 10.254,
      "duration": 0.0333,
      "velocity": 99,
      "chip": "ym2612"
    },
    {
      "channel": 2,
      "note": 78,
      "start": 10.2548,
      "duration": 0.0605,
      "velocity": 95,
      "chip": "ym2612"
    },
    {
      "channel": 0,
      "note": 56,
      "start": 10.2876,
      "duration": 0.0325,
      "velocity": 99,
      "chip": "ym2612"
    },
    {
      "channel": 4,
      "note": 80,
      "start": 10.2895,
      "duration": 0.06,
      "velocity": 95,
      "chip": "ym2612"
    },
    {
      "channel": 0,
      "note": 56,
      "start": 10.3203,
      "duration": 0.0333,
      "velocity": 99,
      "chip": "ym2612"
    },
    {
      "channel": 2,
      "note": 75,
      "start": 10.3212,
      "duration": 0.0863,
      "velocity": 95,
      "chip": "ym2612"
    },
    {
      "channel": 0,
      "note": 56,
      "start": 10.3539,
      "duration": 0.0844,
      "velocity": 99,
      "chip": "ym2612"
    },
    {
      "channel": 4,
      "note": 78,
      "start": 10.3554,
      "duration": 0.1111,
      "velocity": 95,
      "chip": "ym2612"
    },
    {
      "channel": 0,
      "note": 57,
      "start": 10.4385,
      "duration": 0.0323,
      "velocity": 99,
      "chip": "ym2612"
    },
    {
      "channel": 1,
      "note": 81,
      "start": 10.4391,
      "duration": 0.1992,
      "velocity": 101,
      "chip": "ym2612"
    },
    {
      "channel": 2,
      "note": 76,
      "start": 10.4396,
      "duration": 0.485,
      "velocity": 95,
      "chip": "ym2612"
    },
    {
      "channel": 0,
      "note": 57,
      "start": 10.4711,
      "duration": 0.1825,
      "velocity": 99,
      "chip": "ym2612"
    },
    {
      "channel": 3,
      "note": 80,
      "start": 10.4722,
      "duration": 0.2122,
      "velocity": 101,
      "chip": "ym2612"
    },
    {
      "channel": 4,
      "note": 75,
      "start": 10.4729,
      "duration": 0.5111,
      "velocity": 95,
      "chip": "ym2612"
    },
    {
      "channel": 0,
      "note": 57,
      "start": 10.6539,
      "duration": 0.0324,
      "velocity": 99,
      "chip": "ym2612"
    },
    {
      "channel": 1,
      "note": 85,
      "start": 10.6544,
      "duration": 0.1021,
      "velocity": 101,
      "chip": "ym2612"
    },
    {
      "channel": 0,
      "note": 57,
      "start": 10.6865,
      "duration": 0.0854,
      "velocity": 99,
      "chip": "ym2612"
    },
    {
      "channel": 3,
      "note": 81,
      "start": 10.6876,
      "duration": 0.1149,
      "velocity": 101,
      "chip": "ym2612"
    },
    {
      "channel": 0,
      "note": 57,
      "start": 10.7722,
      "duration": 0.0339,
      "velocity": 99,
      "chip": "ym2612"
    },
    {
      "channel": 1,
      "note": 88,
      "start": 10.7727,
      "duration": 0.0624,
      "velocity": 101,
      "chip": "ym2612"
    },
    {
      "channel": 0,
      "note": 57,
      "start": 10.8063,
      "duration": 0.0312,
      "velocity": 99,
      "chip": "ym2612"
    },
    {
      "channel": 3,
      "note": 85,
      "start": 10.8074,
      "duration": 0.0607,
      "velocity": 101,
      "chip": "ym2612"
    },
    {
      "channel": 0,
      "note": 57,
      "start": 10.8378,
      "duration": 0.0323,
      "velocity": 99,
      "chip": "ym2612"
    },
    {
      "channel": 1,
      "note": 92,
      "start": 10.8387,
      "duration": 0.0289,
      "velocity": 101,
      "chip": "ym2612"
    },
    {
      "channel": 0,
      "note": 57,
      "start": 10.8703,
      "duration": 0.0851,
      "velocity": 99,
      "chip": "ym2612"
    },
    {
      "channel": 1,
      "note": 90,
      "start": 10.8708,
      "duration": 0.2843,
      "velocity": 101,
      "chip": "ym2612"
    },
    {
      "channel": 3,
      "note": 88,
      "start": 10.8717,
      "duration": 0.0688,
      "velocity": 101,
      "chip": "ym2612"
    },
    {
      "channel": 0,
      "note": 59,
      "start": 10.9556,
      "duration": 0.0324,
      "velocity": 99,
      "chip": "ym2612"
    },
    {
      "channel": 2,
      "note": 75,
      "start": 10.9564,
      "duration": 0.4843,
      "velocity": 95,
      "chip": "ym2612"
    },
    {
      "channel": 3,
      "note": 92,
      "start": 10.9571,
      "duration": 0.2444,
      "velocity": 101,
      "chip": "ym2612"
    },
    {
      "channel": 0,
      "note": 59,
      "start": 10.9883,
      "duration": 0.1822,
      "velocity": 99,
      "chip": "ym2612"
    },
    {
      "channel": 4,
      "note": 76,
      "start": 10.9898,
      "duration": 0.51,
      "velocity": 95,
      "chip": "ym2612"
    },
    {
      "channel": 0,
      "note": 59,
      "start": 11.1708,
      "duration": 0.0326,
      "velocity": 99,
      "chip": "ym2612"
    },
    {
      "channel": 1,
      "note": 87,
      "start": 11.1714,
      "duration": 0.1013,
      "velocity": 101,
      "chip": "ym2612"
    },
    {
      "channel": 0,
      "note": 59,
      "start": 11.2036,
      "duration": 0.0845,
      "velocity": 99,
      "chip": "ym2612"
    },
    {
      "channel": 3,
      "note": 90,
      "start": 11.2047,
      "duration": 0.114,
      "velocity": 101,
      "chip": "ym2612"
    },
    {
      "channel": 0,
      "note": 59,
      "start": 11.2883,
      "duration": 0.0337,
      "velocity": 99,
      "chip": "ym2612"
    },
    {
      "channel": 1,
      "note": 85,
      "start": 11.2889,
      "duration": 0.0627,
      "velocity": 101,
      "chip": "ym2612"
    },
    {
      "channel": 0,
      "note": 59,
      "start": 11.3223,
      "duration": 0.0321,
      "velocity": 99,
      "chip": "ym2612"
    },
    {
      "channel": 3,
      "note": 87,
      "start": 11.3234,
      "duration": 0.0611,
      "velocity": 101,
      "chip": "ym2612"
    },
    {
      "channel": 0,
      "note": 59,
      "start": 11.3547,
      "duration": 0.0316,
      "velocity": 99,
      "chip": "ym2612"
    },
    {
      "channel": 1,
      "note": 83,
      "start": 11.3552,
      "duration": 0.1009,
      "velocity": 101,
      "chip": "ym2612"
    },
    {
      "channel": 0,
      "note": 59,
      "start": 11.3866,
      "duration": 0.0849,
      "velocity": 99,
      "chip": "ym2612"
    },
    {
      "channel": 3,
      "note": 85,
      "start": 11.3877,
      "duration": 0.1143,
      "velocity": 101,
      "chip": "ym2612"
    },
    {
      "channel": 0,
      "note": 61,
      "start": 11.4717,
      "duration": 0.0321,
      "velocity": 99,
      "chip": "ym2612"
    },
    {
      "channel": 1,
      "note": 85,
      "start": 11.4723,
      "duration": 0.5005,
      "velocity": 101,
      "chip": "ym2612"
    },
    {
      "channel": 2,
      "note": 76,
      "start": 11.4728,
      "duration": 0.4846,
      "velocity": 95,
      "chip": "ym2612"
    },
    {
      "channel": 0,
      "note": 61,
      "start": 11.5041,
      "duration": 0.1821,
      "velocity": 99,
      "chip": "ym2612"
    },
    {
      "channel": 3,
      "note": 83,
      "start": 11.5052,
      "duration": 0.4682,
      "velocity": 101,
      "chip": "ym2612"
    },
    {
      "channel": 4,
      "note": 75,
      "start": 11.5059,
      "duration": 0.5214,
      "velocity": 95,
      "chip": "ym2612"
    },
    {
      "channel": 0,
      "note": 61,
      "start": 11.6865,
      "duration": 0.0325,
      "velocity": 99,
      "chip": "ym2612"
    },
    {
      "channel": 0,
      "note": 61,
      "start": 11.7193,
      "duration": 0.0842,
      "velocity": 99,
      "chip": "ym2612"
    },
    {
      "channel": 0,
      "note": 61,
      "start": 11.8037,
      "duration": 0.0337,
      "velocity": 99,
      "chip": "ym2612"
    },
    {
      "channel": 0,
      "note": 61,
      "start": 11.8376,
      "duration": 0.034,
      "velocity": 99,
      "chip": "ym2612"
    },
    {
      "channel": 0,
      "note": 61,
      "start": 11.8718,
      "duration": 0.0332,
      "velocity": 99,
      "chip": "ym2612"
    },
    {
      "channel": 0,
      "note": 61,
      "start": 11.9053,
      "duration": 0.0829,
      "velocity": 99,
      "chip": "ym2612"
    },
    {
      "channel": 0,
      "note": 59,
      "start": 11.9884,
      "duration": 0.0256,
      "velocity": 99,
      "chip": "ym2612"
    },
    {
      "channel": 3,
      "note": 85,
      "start": 11.9963,
      "duration": 0.0149,
      "velocity": 98,
      "chip": "ym2612"
    },
    {
      "channel": 0,
      "note": 60,
      "start": 12.0143,
      "duration": 0.0185,
      "velocity": 99,
      "chip": "ym2612"
    },
    {
      "channel": 3,
      "note": 59,
      "start": 12.0154,
      "duration": 0.0144,
      "velocity": 98,
      "chip": "ym2612"
    },
    {
      "channel": 0,
      "note": 61,
      "start": 12.033,
      "duration": 0.02,
      "velocity": 99,
      "chip": "ym2612"
    },
    {
      "channel": 1,
      "note": 80,
      "start": 12.0335,
      "duration": 0.0339,
      "velocity": 99,
      "chip": "ym2612"
    },
    {
      "channel": 3,
      "note": 60,
      "start": 12.0344,
      "duration": 0.0168,
      "velocity": 98,
      "chip": "ym2612"
    },
    {
      "channel": 4,
      "note": 76,
      "start": 12.0378,
      "duration": 0.011,
      "velocity": 98,
      "chip": "ym2612"
    },
    {
      "channel": 2,
      "note": 80,
      "start": 12.0433,
      "duration": 0.0326,
      "velocity": 99,
      "chip": "ym2612"
    },
    {
      "channel": 4,
      "note": 59,
      "start": 12.0548,
      "duration": 0.0109,
      "velocity": 98,
      "chip": "ym2612"
    },
    {
      "channel": 0,
      "note": 59,
      "start": 12.0707,
      "duration": 0.018,
      "velocity": 99,
      "chip": "ym2612"
    },
    {
      "channel": 1,
      "note": 85,
      "start": 12.0712,
      "duration": 0.0324,
      "velocity": 99,
      "chip": "ym2612"
    },
    {
      "channel": 3,
      "note": 61,
      "start": 12.072,
      "duration": 0.0144,
      "velocity": 98,
      "chip": "ym2612"
    },
    {
      "channel": 4,
      "note": 60,
      "start": 12.0727,
      "duration": 0.0115,
      "velocity": 98,
      "chip": "ym2612"
    },
    {
      "channel": 2,
      "note": 85,
      "start": 12.0786,
      "duration": 0.0336,
      "velocity": 99,
      "chip": "ym2612"
    },
    {
      "channel": 0,
      "note": 60,
      "start": 12.0889,
      "duration": 0.0177,
      "velocity": 99,
      "chip": "ym2612"
    },
    {
      "channel": 3,
      "note": 59,
      "start": 12.09,
      "duration": 0.0142,
      "velocity": 98,
      "chip": "ym2612"
    },
    {
      "channel": 0,
      "note": 61,
      "start": 12.1069,
      "duration": 0.0177,
      "velocity": 99,
      "chip": "ym2612"
    },
    {
      "channel": 1,
      "note": 88,
      "start": 12.1074,
      "duration": 0.0305,
      "velocity": 99,
      "chip": "ym2612"
    },
    {
      "channel": 3,
      "note": 60,
      "start": 12.1084,
      "duration": 0.0144,
      "velocity": 98,
      "chip": "ym2612"
    },
    {
      "channel": 4,
      "note": 61,
      "start": 12.1091,
      "duration": 0.0114,
      "velocity": 98,
      "chip": "ym2612"
    },
    {
      "channel": 2,
      "note": 88,
      "start": 12.1149,
      "duration": 0.033,
      "velocity": 99,
      "chip": "ym2612"
    },
    {
      "channel": 4,
      "note": 59,
      "start": 12.1262,
      "duration": 0.0101,
      "velocity": 98,
      "chip": "ym2612"
    },
    {
      "channel": 0,
      "note": 64,
      "start": 12.1427,
      "duration": 0.0339,
      "velocity": 99,
      "chip": "ym2612"
    },
    {
      "channel": 1,
      "note": 92,
      "start": 12.1432,
      "duration": 0.0303,
      "velocity": 99,
      "chip": "ym2612"
    },
    {
      "channel": 3,
      "note": 61,
      "start": 12.1441,
      "duration": 0.03,
      "velocity": 98,
      "chip": "ym2612"
    },
    {
      "channel": 4,
      "note": 60,
      "start": 12.1447,
      "duration": 0.0122,
      "velocity": 98,
      "chip": "ym2612"
    },
    {
      "channel": 2,
      "note": 92,
      "start": 12.1507,
      "duration": 0.0314,
      "velocity": 99,
      "chip": "ym2612"
    },
    {
      "channel": 0,
      "note": 61,
      "start": 12.1768,
      "duration": 0.0327,
      "velocity": 99,
      "chip": "ym2612"
    },
    {
      "channel": 1,
      "note": 90,
      "start": 12.1773,
      "duration": 0.0299,
      "velocity": 99,
      "chip": "ym2612"
    },
    {
      "channel": 3,
      "note": 64,
      "start": 12.1782,
      "duration": 0.0621,
      "velocity": 98,
      "chip": "ym2612"
    },
    {
      "channel": 4,
      "note": 61,
      "start": 12.1788,
      "duration": 0.0266,
      "velocity": 98,
      "chip": "ym2612"
    },
    {
      "channel": 2,
      "note": 90,
      "start": 12.1847,
      "duration": 0.0288,
      "velocity": 99,
      "chip": "ym2612"
    },
    {
      "channel": 0,
      "note": 61,
      "start": 12.2098,
      "duration": 0.0325,
      "velocity": 99,
      "chip": "ym2612"
    },
    {
      "channel": 1,
      "note": 88,
      "start": 12.2103,
      "duration": 0.0294,
      "velocity": 99,
      "chip": "ym2612"
    },
    {
      "channel": 4,
      "note": 64,
      "start": 12.2115,
      "duration": 0.0589,
      "velocity": 98,
      "chip": "ym2612"
    },
    {
      "channel": 2,
      "note": 88,
      "start": 12.2161,
      "duration": 0.0313,
      "velocity": 99,
      "chip": "ym2612"
    },
    {
      "channel": 0,
      "note": 59,
      "start": 12.2425,
      "duration": 0.0329,
      "velocity": 99,
      "chip": "ym2612"
    },
    {
      "channel": 1,
      "note": 85,
      "start": 12.243,
      "duration": 0.0292,
      "velocity": 99,
      "chip": "ym2612"
    },
    {
      "channel": 3,
      "note": 61,
      "start": 12.2439,
      "duration": 0.029,
      "velocity": 98,
      "chip": "ym2612"
    },
    {
      "channel": 2,
      "note": 85,
      "start": 12.2501,
      "duration": 0.0224,
      "velocity": 99,
      "chip": "ym2612"
    },
    {
      "channel": 0,
      "note": 57,
      "start": 12.2759,
      "duration": 0.0392,
      "velocity": 99,
      "chip": "ym2612"
    },
    {
      "channel": 1,
      "note": 80,
      "start": 12.2785,
      "duration": 0.4984,
      "velocity": 99,
      "chip": "ym2612"
    },
    {
      "channel": 4,
      "note": 61,
      "start": 12.2846,
      "duration": 0.0266,
      "velocity": 98,
      "chip": "ym2612"
    },
    {
      "channel": 0,
      "note": 57,
      "start": 12.3154,
      "duration": 0.1746,
      "velocity": 99,
      "chip": "ym2612"
    },
    {
      "channel": 2,
      "note": 80,
      "start": 12.3162,
      "duration": 0.5064,
      "velocity": 99,
      "chip": "ym2612"
    },
    {
      "channel": 3,
      "note": 59,
      "start": 12.3168,
      "duration": 0.1583,
      "velocity": 92,
      "chip": "ym2612"
    },
    {
      "channel": 0,
      "note": 57,
      "start": 12.4902,
      "duration": 0.0334,
      "velocity": 99,
      "chip": "ym2612"
    },
    {
      "channel": 3,
      "note": 64,
      "start": 12.4914,
      "duration": 0.0304,
      "velocity": 92,
      "chip": "ym2612"
    },
    {
      "channel": 4,
      "note": 59,
      "start": 12.492,
      "duration": 0.4844,
      "velocity": 99,
      "chip": "ym2612"
    },
    {
      "channel": 0,
      "note": 57,
      "start": 12.5238,
      "duration": 0.083,
      "velocity": 99,
      "chip": "ym2612"
    },
    {
      "channel": 3,
      "note": 73,
      "start": 12.525,
      "duration": 0.0673,
      "velocity": 92,
      "chip": "ym2612"
    },
    {
      "channel": 0,
      "note": 57,
      "start": 12.6071,
      "duration": 0.0347,
      "velocity": 99,
      "chip": "ym2612"
    },
    {
      "channel": 3,
      "note": 64,
      "start": 12.6086,
      "duration": 0.0298,
      "velocity": 92,
      "chip": "ym2612"
    },
    {
      "channel": 0,
      "note": 57,
      "start": 12.6421,
      "duration": 0.0335,
      "velocity": 99,
      "chip": "ym2612"
    },
    {
      "channel": 3,
      "note": 76,
      "start": 12.6432,
      "duration": 0.03,
      "velocity": 92,
      "chip": "ym2612"
    },
    {
      "channel": 0,
      "note": 57,
      "start": 12.6758,
      "duration": 0.034,
      "velocity": 99,
      "chip": "ym2612"
    },
    {
      "channel": 3,
      "note": 64,
      "start": 12.6769,
      "duration": 0.0309,
      "velocity": 92,
      "chip": "ym2612"
    },
    {
      "channel": 0,
      "note": 57,
      "start": 12.71,
      "duration": 0.0823,
      "velocity": 99,
      "chip": "ym2612"
    },
    {
      "channel": 3,
      "note": 73,
      "start": 12.7112,
      "duration": 0.0665,
      "velocity": 92,
      "chip": "ym2612"
    },
    {
      "channel": 0,
      "note": 59,
      "start": 12.7926,
      "duration": 0.0321,
      "velocity": 99,
      "chip": "ym2612"
    },
    {
      "channel": 1,
      "note": 78,
      "start": 12.7931,
      "duration": 0.315,
      "velocity": 99,
      "chip": "ym2612"
    },
    {
      "channel": 0,
      "note": 59,
      "start": 12.825,
      "duration": 0.1816,
      "velocity": 99,
      "chip": "ym2612"
    },
    {
      "channel": 2,
      "note": 78,
      "start": 12.8257,
      "duration": 0.3284,
      "velocity": 99,
      "chip": "ym2612"
    },
    {
      "channel": 3,
      "note": 64,
      "start": 12.8263,
      "duration": 0.1654,
      "velocity": 92,
      "chip": "ym2612"
    },
    {
      "channel": 0,
      "note": 59,
      "start": 13.0068,
      "duration": 0.0334,
      "velocity": 99,
      "chip": "ym2612"
    },
    {
      "channel": 3,
      "note": 63,
      "start": 13.008,
      "duration": 0.0305,
      "velocity": 92,
      "chip": "ym2612"
    },
    {
      "channel": 4,
      "note": 80,
      "start": 13.0086,
      "duration": 0.177,
      "velocity": 99,
      "chip": "ym2612"
    },
    {
      "channel": 0,
      "note": 59,
      "start": 13.0405,
      "duration": 0.083,
      "velocity": 99,
      "chip": "ym2612"
    },
    {
      "channel": 3,
      "note": 71,
      "start": 13.0417,
      "duration": 0.067,
      "velocity": 92,
      "chip": "ym2612"
    },
    {
      "channel": 0,
      "note": 59,
      "start": 13.1237,
      "duration": 0.0334,
      "velocity": 99,
      "chip": "ym2612"
    },
    {
      "channel": 1,
      "note": 83,
      "start": 13.1243,
      "duration": 0.1685,
      "velocity": 99,
      "chip": "ym2612"
    },
    {
      "channel": 3,
      "note": 63,
      "start": 13.1251,
      "duration": 0.0293,
      "velocity": 92,
      "chip": "ym2612"
    },
    {
      "channel": 0,
      "note": 59,
      "start": 13.1573,
      "duration": 0.0332,
      "velocity": 99,
      "chip": "ym2612"
    },
    {
      "channel": 2,
      "note": 83,
      "start": 13.1581,
      "duration": 0.1801,
      "velocity": 99,
      "chip": "ym2612"
    },
    {
      "channel": 3,
      "note": 75,
      "start": 13.1587,
      "duration": 0.0294,
      "velocity": 92,
      "chip": "ym2612"
    },
    {
      "channel": 0,
      "note": 59,
      "start": 13.1907,
      "duration": 0.0334,
      "velocity": 99,
      "chip": "ym2612"
    },
    {
      "channel": 3,
      "note": 63,
      "start": 13.1919,
      "duration": 0.0303,
      "velocity": 92,
      "chip": "ym2612"
    },
    {
      "channel": 4,
      "note": 78,
      "start": 13.1925,
      "duration": 0.3001,
      "velocity": 99,
      "chip": "ym2612"
    },
    {
      "channel": 0,
      "note": 57,
      "start": 13.2244,
      "duration": 0.0838,
      "velocity": 99,
      "chip": "ym2612"
    },
    {
      "channel": 3,
      "note": 71,
      "start": 13.2255,
      "duration": 0.0678,
      "velocity": 92,
      "chip": "ym2612"
    },
    {
      "channel": 0,
      "note": 56,
      "start": 13.3084,
      "duration": 0.0319,
      "velocity": 99,
      "chip": "ym2612"
    },
    {
      "channel": 1,
      "note": 75,
      "start": 13.3089,
      "duration": 0.029,
      "velocity": 99,
      "chip": "ym2612"
    },
    {
      "channel": 0,
      "note": 56,
      "start": 13.3407,
      "duration": 0.1822,
      "velocity": 99,
      "chip": "ym2612"
    },
    {
      "channel": 1,
      "note": 76,
      "start": 13.3412,
      "duration": 0.1662,
      "velocity": 99,
      "chip": "ym2612"
    },
    {
      "channel": 2,
      "note": 75,
      "start": 13.3422,
      "duration": 0.1656,
      "velocity": 99,
      "chip": "ym2612"
    },
    {
      "channel": 3,
      "note": 63,
      "start": 13.3428,
      "duration": 0.1653,
      "velocity": 92,
      "chip": "ym2612"
    },
    {
      "channel": 0,
      "note": 56,
      "start": 13.5231,
      "duration": 0.0334,
      "velocity": 99,
      "chip": "ym2612"
    },
    {
      "channel": 1,
      "note": 78,
      "start": 13.5236,
      "duration": 0.0303,
      "velocity": 99,
      "chip": "ym2612"
    },
    {
      "channel": 2,
      "note": 76,
      "start": 13.5242,
      "duration": 0.0301,
      "velocity": 99,
      "chip": "ym2612"
    },
    {
      "channel": 3,
      "note": 63,
      "start": 13.5248,
      "duration": 0.0298,
      "velocity": 92,
      "chip": "ym2612"
    },
    {
      "channel": 4,
      "note": 83,
      "start": 13.5255,
      "duration": 0.0268,
      "velocity": 99,
      "chip": "ym2612"
    },
    {
      "channel": 0,
      "note": 56,
      "start": 13.5567,
      "duration": 0.0838,
      "velocity": 99,
      "chip": "ym2612"
    },
    {
      "channel": 1,
      "note": 78,
      "start": 13.5572,
      "duration": 0.1131,
      "velocity": 99,
      "chip": "ym2612"
    },
    {
      "channel": 2,
      "note": 78,
      "start": 13.5578,
      "duration": 0.0675,
      "velocity": 99,
      "chip": "ym2612"
    },
    {
      "channel": 3,
      "note": 71,
      "start": 13.5584,
      "duration": 0.0672,
      "velocity": 92,
      "chip": "ym2612"
    },
    {
      "channel": 4,
      "note": 75,
      "start": 13.5591,
      "duration": 0.0512,
      "velocity": 99,
      "chip": "ym2612"
    },
    {
      "channel": 0,
      "note": 56,
      "start": 13.6407,
      "duration": 0.0333,
      "velocity": 99,
      "chip": "ym2612"
    },
    {
      "channel": 2,
      "note": 78,
      "start": 13.6415,
      "duration": 0.0629,
      "velocity": 99,
      "chip": "ym2612"
    },
    {
      "channel": 3,
      "note": 63,
      "start": 13.6421,
      "duration": 0.029,
      "velocity": 92,
      "chip": "ym2612"
    },
    {
      "channel": 4,
      "note": 76,
      "start": 13.6428,
      "duration": 0.0259,
      "velocity": 99,
      "chip": "ym2612"
    },
    {
      "channel": 0,
      "note": 56,
      "start": 13.6743,
      "duration": 0.0328,
      "velocity": 99,
      "chip": "ym2612"
    },
    {
      "channel": 1,
      "note": 80,
      "start": 13.6748,
      "duration": 0.0293,
      "velocity": 99,
      "chip": "ym2612"
    },
    {
      "channel": 3,
      "note": 75,
      "start": 13.6758,
      "duration": 0.029,
      "velocity": 92,
      "chip": "ym2612"
    },
    {
      "channel": 4,
      "note": 78,
      "start": 13.6769,
      "duration": 0.0596,
      "velocity": 99,
      "chip": "ym2612"
    },
    {
      "channel": 0,
      "note": 56,
      "start": 13.7073,
      "duration": 0.0334,
      "velocity": 99,
      "chip": "ym2612"
    },
    {
      "channel": 1,
      "note": 78,
      "start": 13.7079,
      "duration": 0.0199,
      "velocity": 99,
      "chip": "ym2612"
    },
    {
      "channel": 2,
      "note": 80,
      "start": 13.7084,
      "duration": 0.03,
      "velocity": 99,
      "chip": "ym2612"
    },
    {
      "channel": 3,
      "note": 63,
      "start": 13.709,
      "duration": 0.0297,
      "velocity": 92,
      "chip": "ym2612"
    },
    {
      "channel": 1,
      "note": 76,
      "start": 13.7305,
      "duration": 0.0193,
      "velocity": 99,
      "chip": "ym2612"
    },
    {
      "channel": 0,
      "note": 56,
      "start": 13.741,
      "duration": 0.0837,
      "velocity": 99,
      "chip": "ym2612"
    },
    {
      "channel": 2,
      "note": 78,
      "start": 13.7417,
      "duration": 0.0193,
      "velocity": 99,
      "chip": "ym2612"
    },
    {
      "channel": 3,
      "note": 71,
      "start": 13.7424,
      "duration": 0.0675,
      "velocity": 92,
      "chip": "ym2612"
    },
    {
      "channel": 4,
      "note": 78,
      "start": 13.743,
      "duration": 0.0515,
      "velocity": 99,
      "chip": "ym2612"
    },
    {
      "channel": 1,
      "note": 75,
      "start": 13.7525,
      "duration": 0.0568,
      "velocity": 99,
      "chip": "ym2612"
    },
    {
      "channel": 2,
      "note": 76,
      "start": 13.7641,
      "duration": 0.0704,
      "velocity": 99,
      "chip": "ym2612"
    },
    {
      "channel": 0,
      "note": 49,
      "start": 13.8249,
      "duration": 0.033,
      "velocity": 99,
      "chip": "ym2612"
    },
    {
      "channel": 1,
      "note": 73,
      "start": 13.8255,
      "duration": 0.5016,
      "velocity": 99,
      "chip": "ym2612"
    },
    {
      "channel": 4,
      "note": 80,
      "start": 13.8267,
      "duration": 0.016,
      "velocity": 99,
      "chip": "ym2612"
    },
    {
      "channel": 2,
      "note": 75,
      "start": 13.8372,
      "duration": 0.0183,
      "velocity": 99,
      "chip": "ym2612"
    },
    {
      "channel": 4,
      "note": 78,
      "start": 13.848,
      "duration": 0.0367,
      "velocity": 99,
      "chip": "ym2612"
    },
    {
      "channel": 0,
      "note": 61,
      "start": 13.8581,
      "duration": 0.1821,
      "velocity": 99,
      "chip": "ym2612"
    },
    {
      "channel": 2,
      "note": 73,
      "start": 13.8589,
      "duration": 0.5145,
      "velocity": 99,
      "chip": "ym2612"
    },
    {
      "channel": 3,
      "note": 63,
      "start": 13.8595,
      "duration": 0.1654,
      "velocity": 92,
      "chip": "ym2612"
    },
    {
      "channel": 4,
      "note": 76,
      "start": 13.9162,
      "duration": 0.0935,
      "velocity": 99,
      "chip": "ym2612"
    },
    {
      "channel": 0,
      "note": 51,
      "start": 14.0405,
      "duration": 0.0331,
      "velocity": 99,
      "chip": "ym2612"
    },
    {
      "channel": 3,
      "note": 64,
      "start": 14.0416,
      "duration": 0.0301,
      "velocity": 92,
      "chip": "ym2612"
    },
    {
      "channel": 4,
      "note": 75,
      "start": 14.0423,
      "duration": 0.4854,
      "velocity": 99,
      "chip": "ym2612"
    },
    {
      "channel": 0,
      "note": 63,
      "start": 14.0738,
      "duration": 0.0842,
      "velocity": 99,
      "chip": "ym2612"
    },
    {
      "channel": 3,
      "note": 73,
      "start": 14.0749,
      "duration": 0.0682,
      "velocity": 92,
      "chip": "ym2612"
    },
    {
      "channel": 0,
      "note": 52,
      "start": 14.1582,
      "duration": 0.0334,
      "velocity": 99,
      "chip": "ym2612"
    },
    {
      "channel": 3,
      "note": 64,
      "start": 14.1593,
      "duration": 0.03,
      "velocity": 92,
      "chip": "ym2612"
    },
    {
      "channel": 0,
      "note": 64,
      "start": 14.1918,
      "duration": 0.0331,
      "velocity": 99,
      "chip": "ym2612"
    },
    {
      "channel": 3,
      "note": 76,
      "start": 14.1929,
      "duration": 0.0295,
      "velocity": 92,
      "chip": "ym2612"
    },
    {
      "channel": 0,
      "note": 56,
      "start": 14.2251,
      "duration": 0.0336,
      "velocity": 99,
      "chip": "ym2612"
    },
    {
      "channel": 3,
      "note": 64,
      "start": 14.2266,
      "duration": 0.0302,
      "velocity": 92,
      "chip": "ym2612"
    },
    {
      "channel": 0,
      "note": 68,
      "start": 14.259,
      "duration": 0.0835,
      "velocity": 99,
      "chip": "ym2612"
    },
    {
      "channel": 3,
      "note": 73,
      "start": 14.2601,
      "duration": 0.0676,
      "velocity": 92,
      "chip": "ym2612"
    },
    {
      "channel": 0,
      "note": 57,
      "start": 14.3427,
      "duration": 0.0329,
      "velocity": 99,
      "chip": "ym2612"
    },
    {
      "channel": 1,
      "note": 69,
      "start": 14.3432,
      "duration": 0.3159,
      "velocity": 99,
      "chip": "ym2612"
    },
    {
      "channel": 0,
      "note": 57,
      "start": 14.3758,
      "duration": 0.1817,
      "velocity": 99,
      "chip": "ym2612"
    },
    {
      "channel": 2,
      "note": 69,
      "start": 14.3766,
      "duration": 0.3294,
      "velocity": 99,
      "chip": "ym2612"
    },
    {
      "channel": 3,
      "note": 64,
      "start": 14.3772,
      "duration": 0.1656,
      "velocity": 92,
      "chip": "ym2612"
    },
    {
      "channel": 0,
      "note": 57,
      "start": 14.5578,
      "duration": 0.0329,
      "velocity": 99,
      "chip": "ym2612"
    },
    {
      "channel": 3,
      "note": 64,
      "start": 14.559,
      "duration": 0.0298,
      "velocity": 92,
      "chip": "ym2612"
    },
    {
      "channel": 4,
      "note": 73,
      "start": 14.5597,
      "duration": 0.1771,
      "velocity": 99,
      "chip": "ym2612"
    },
    {
      "channel": 0,
      "note": 57,
      "start": 14.591,
      "duration": 0.0836,
      "velocity": 99,
      "chip": "ym2612"
    },
    {
      "channel": 3,
      "note": 73,
      "start": 14.5921,
      "duration": 0.0676,
      "velocity": 92,
      "chip": "ym2612"
    },
    {
      "channel": 0,
      "note": 57,
      "start": 14.6748,
      "duration": 0.0339,
      "velocity": 99,
      "chip": "ym2612"
    },
    {
      "channel": 1,
      "note": 80,
      "start": 14.6753,
      "duration": 0.1689,
      "velocity": 99,
      "chip": "ym2612"
    },
    {
      "channel": 3,
      "note": 64,
      "start": 14.6762,
      "duration": 0.0302,
      "velocity": 92,
      "chip": "ym2612"
    },
    {
      "channel": 0,
      "note": 57,
      "start": 14.709,
      "duration": 0.0337,
      "velocity": 99,
      "chip": "ym2612"
    },
    {
      "channel": 2,
      "note": 80,
      "start": 14.7097,
      "duration": 0.1808,
      "velocity": 99,
      "chip": "ym2612"
    },
    {
      "channel": 3,
      "note": 76,
      "start": 14.7103,
      "duration": 0.0291,
      "velocity": 92,
      "chip": "ym2612"
    },
    {
      "channel": 0,
      "note": 57,
      "start": 14.7429,
      "duration": 0.0327,
      "velocity": 99,
      "chip": "ym2612"
    },
    {
      "channel": 3,
      "note": 64,
      "start": 14.744,
      "duration": 0.0297,
      "velocity": 92,
      "chip": "ym2612"
    },
    {
      "channel": 4,
      "note": 69,
      "start": 14.7447,
      "duration": 0.3001,
      "velocity": 99,
      "chip": "ym2612"
    },
    {
      "channel": 0,
      "note": 57,
      "start": 14.7759,
      "duration": 0.0837,
      "velocity": 99,
      "chip": "ym2612"
    },
    {
      "channel": 3,
      "note": 73,
      "start": 14.777,
      "duration": 0.0678,
      "velocity": 92,
      "chip": "ym2612"
    },
    {
      "channel": 0,
      "note": 59,
      "start": 14.8598,
      "duration": 0.0328,
      "velocity": 99,
      "chip": "ym2612"
    },
    {
      "channel": 1,
      "note": 78,
      "start": 14.8604,
      "duration": 0.1992,
      "velocity": 99,
      "chip": "ym2612"
    },
    {
      "channel": 0,
      "note": 59,
      "start": 14.8929,
      "duration": 0.1821,
      "velocity": 99,
      "chip": "ym2612"
    },
    {
      "channel": 2,
      "note": 78,
      "start": 14.8937,
      "duration": 0.2122,
      "velocity": 99,
      "chip": "ym2612"
    },
    {
      "channel": 3,
      "note": 64,
      "start": 14.8943,
      "duration": 0.1659,
      "velocity": 92,
      "chip": "ym2612"
    },
    {
      "channel": 0,
      "note": 59,
      "start": 15.0752,
      "duration": 0.0329,
      "velocity": 99,
      "chip": "ym2612"
    },
    {
      "channel": 1,
      "note": 75,
      "start": 15.0758,
      "duration": 0.1011,
      "velocity": 99,
      "chip": "ym2612"
    },
    {
      "channel": 3,
      "note": 63,
      "start": 15.0766,
      "duration": 0.0296,
      "velocity": 92,
      "chip": "ym2612"
    },
    {
      "channel": 4,
      "note": 80,
      "start": 15.0773,
      "duration": 0.0847,
      "velocity": 99,
      "chip": "ym2612"
    },
    {
      "channel": 0,
      "note": 59,
      "start": 15.1083,
      "duration": 0.0839,
      "velocity": 99,
      "chip": "ym2612"
    },
    {
      "channel": 2,
      "note": 75,
      "start": 15.1094,
      "duration": 0.1138,
      "velocity": 99,
      "chip": "ym2612"
    },
    {
      "channel": 3,
      "note": 71,
      "start": 15.11,
      "duration": 0.0674,
      "velocity": 92,
      "chip": "ym2612"
    },
    {
      "channel": 0,
      "note": 59,
      "start": 15.1925,
      "duration": 0.0339,
      "velocity": 99,
      "chip": "ym2612"
    },
    {
      "channel": 1,
      "note": 76,
      "start": 15.193,
      "duration": 0.0635,
      "velocity": 99,
      "chip": "ym2612"
    },
    {
      "channel": 3,
      "note": 63,
      "start": 15.1939,
      "duration": 0.0296,
      "velocity": 92,
      "chip": "ym2612"
    },
    {
      "channel": 4,
      "note": 78,
      "start": 15.1945,
      "duration": 0.0603,
      "velocity": 99,
      "chip": "ym2612"
    },
    {
      "channel": 0,
      "note": 59,
      "start": 15.2266,
      "duration": 0.0324,
      "velocity": 99,
      "chip": "ym2612"
    },
    {
      "channel": 2,
      "note": 76,
      "start": 15.2274,
      "duration": 0.0618,
      "velocity": 99,
      "chip": "ym2612"
    },
    {
      "channel": 3,
      "note": 75,
      "start": 15.228,
      "duration": 0.0291,
      "velocity": 92,
      "chip": "ym2612"
    },
    {
      "channel": 0,
      "note": 59,
      "start": 15.2593,
      "duration": 0.0324,
      "velocity": 99,
      "chip": "ym2612"
    },
    {
      "channel": 1,
      "note": 78,
      "start": 15.2598,
      "duration": 0.1005,
      "velocity": 99,
      "chip": "ym2612"
    },
    {
      "channel": 3,
      "note": 63,
      "start": 15.2607,
      "duration": 0.0288,
      "velocity": 92,
      "chip": "ym2612"
    },
    {
      "channel": 4,
      "note": 75,
      "start": 15.2613,
      "duration": 0.0842,
      "velocity": 99,
      "chip": "ym2612"
    },
    {
      "channel": 0,
      "note": 59,
      "start": 15.2919,
      "duration": 0.0838,
      "velocity": 99,
      "chip": "ym2612"
    },
    {
      "channel": 2,
      "note": 78,
      "start": 15.2927,
      "duration": 0.1131,
      "velocity": 99,
      "chip": "ym2612"
    },
    {
      "channel": 3,
      "note": 71,
      "start": 15.2934,
      "duration": 0.0674,
      "velocity": 92,
      "chip": "ym2612"
    },
    {
      "channel": 0,
      "note": 52,
      "start": 15.376,
      "duration": 0.0319,
      "velocity": 99,
      "chip": "ym2612"
    },
    {
      "channel": 1,
      "note": 80,
      "start": 15.3765,
      "duration": 0.1989,
      "velocity": 99,
      "chip": "ym2612"
    },
    {
      "channel": 4,
      "note": 76,
      "start": 15.3778,
      "duration": 0.1828,
      "velocity": 99,
      "chip": "ym2612"
    },
    {
      "channel": 0,
      "note": 52,
      "start": 15.4081,
      "duration": 0.1827,
      "velocity": 99,
      "chip": "ym2612"
    },
    {
      "channel": 2,
      "note": 80,
      "start": 15.4089,
      "duration": 0.2128,
      "velocity": 99,
      "chip": "ym2612"
    },
    {
      "channel": 3,
      "note": 63,
      "start": 15.4095,
      "duration": 0.1665,
      "velocity": 92,
      "chip": "ym2612"
    },
    {
      "channel": 0,
      "note": 52,
      "start": 15.591,
      "duration": 0.0332,
      "velocity": 99,
      "chip": "ym2612"
    },
    {
      "channel": 1,
      "note": 83,
      "start": 15.5916,
      "duration": 0.0299,
      "velocity": 99,
      "chip": "ym2612"
    },
    {
      "channel": 3,
      "note": 64,
      "start": 15.5924,
      "duration": 0.0296,
      "velocity": 92,
      "chip": "ym2612"
    },
    {
      "channel": 4,
      "note": 78,
      "start": 15.5931,
      "duration": 0.0845,
      "velocity": 99,
      "chip": "ym2612"
    },
    {
      "channel": 0,
      "note": 52,
      "start": 15.6245,
      "duration": 0.0834,
      "velocity": 99,
      "chip": "ym2612"
    },
    {
      "channel": 1,
      "note": 80,
      "start": 15.625,
      "duration": 0.182,
      "velocity": 99,
      "chip": "ym2612"
    },
    {
      "channel": 2,
      "note": 83,
      "start": 15.6256,
      "duration": 0.0671,
      "velocity": 99,
      "chip": "ym2612"
    },
    {
      "channel": 3,
      "note": 71,
      "start": 15.6262,
      "duration": 0.0668,
      "velocity": 92,
      "chip": "ym2612"
    },
    {
      "channel": 0,
      "note": 52,
      "start": 15.7082,
      "duration": 0.0334,
      "velocity": 99,
      "chip": "ym2612"
    },
    {
      "channel": 2,
      "note": 80,
      "start": 15.709,
      "duration": 0.0984,
      "velocity": 99,
      "chip": "ym2612"
    },
    {
      "channel": 3,
      "note": 64,
      "start": 15.7096,
      "duration": 0.0293,
      "velocity": 92,
      "chip": "ym2612"
    },
    {
      "channel": 4,
      "note": 80,
      "start": 15.7102,
      "duration": 0.0263,
      "velocity": 99,
      "chip": "ym2612"
    },
    {
      "channel": 0,
      "note": 52,
      "start": 15.7419,
      "duration": 0.0339,
      "velocity": 99,
      "chip": "ym2612"
    },
    {
      "channel": 3,
      "note": 76,
      "start": 15.743,
      "duration": 0.03,
      "velocity": 92,
      "chip": "ym2612"
    },
    {
      "channel": 4,
      "note": 83,
      "start": 15.7437,
      "duration": 0.0611,
      "velocity": 99,
      "chip": "ym2612"
    },
    {
      "channel": 0,
      "note": 52,
      "start": 15.776,
      "duration": 0.0339,
      "velocity": 99,
      "chip": "ym2612"
    },
    {
      "channel": 3,
      "note": 64,
      "start": 15.7771,
      "duration": 0.0306,
      "velocity": 92,
      "chip": "ym2612"
    },
    {
      "channel": 0,
      "note": 56,
      "start": 15.8101,
      "duration": 0.2297,
      "velocity": 99,
      "chip": "ym2612"
    },
    {
      "channel": 1,
      "note": 95,
      "start": 15.8127,
      "duration": 0.2583,
      "velocity": 99,
      "chip": "ym2612"
    },
    {
      "channel": 3,
      "note": 71,
      "start": 15.8188,
      "duration": 0.4416,
      "velocity": 98,
      "chip": "ym2612"
    },
    {
      "channel": 4,
      "note": 80,
      "start": 15.8223,
      "duration": 0.4358,
      "velocity": 98,
      "chip": "ym2612"
    },
    {
      "channel": 2,
      "note": 95,
      "start": 15.8276,
      "duration": 0.2508,
      "velocity": 99,
      "chip": "ym2612"
    },
    {
      "channel": 0,
      "note": 56,
      "start": 16.0401,
      "duration": 0.0338,
      "velocity": 99,
      "chip": "ym2612"
    },
    {
      "channel": 0,
      "note": 56,
      "start": 16.0741,
      "duration": 0.0335,
      "velocity": 99,
      "chip": "ym2612"
    },
    {
      "channel": 1,
      "note": 93,
      "start": 16.0747,
      "duration": 0.1006,
      "velocity": 99,
      "chip": "ym2612"
    },
    {
      "channel": 2,
      "note": 93,
      "start": 16.0813,
      "duration": 0.1137,
      "velocity": 99,
      "chip": "ym2612"
    },
    {
      "channel": 0,
      "note": 56,
      "start": 16.1079,
      "duration": 0.0827,
      "velocity": 99,
      "chip": "ym2612"
    },
    {
      "channel": 0,
      "note": 56,
      "start": 16.1908,
      "duration": 0.018,
      "velocity": 99,
      "chip": "ym2612"
    },
    {
      "channel": 1,
      "note": 92,
      "start": 16.1913,
      "duration": 0.0685,
      "velocity": 99,
      "chip": "ym2612"
    },
    {
      "channel": 2,
      "note": 92,
      "start": 16.1979,
      "duration": 0.071,
      "velocity": 99,
      "chip": "ym2612"
    },
    {
      "channel": 0,
      "note": 68,
      "start": 16.209,
      "duration": 0.0177,
      "velocity": 99,
      "chip": "ym2612"
    },
    {
      "channel": 0,
      "note": 68,
      "start": 16.227,
      "duration": 0.019,
      "velocity": 99,
      "chip": "ym2612"
    },
    {
      "channel": 0,
      "note": 56,
      "start": 16.2463,
      "duration": 0.0175,
      "velocity": 99,
      "chip": "ym2612"
    },
    {
      "channel": 0,
      "note": 56,
      "start": 16.264,
      "duration": 0.0332,
      "velocity": 99,
      "chip": "ym2612"
    },
    {
      "channel": 1,
      "note": 90,
      "start": 16.2645,
      "duration": 0.1006,
      "velocity": 99,
      "chip": "ym2612"
    },
    {
      "channel": 3,
      "note": 56,
      "start": 16.2654,
      "duration": 0.1003,
      "velocity": 98,
      "chip": "ym2612"
    },
    {
      "channel": 4,
      "note": 63,
      "start": 16.266,
      "duration": 0.0846,
      "velocity": 98,
      "chip": "ym2612"
    },
    {
      "channel": 2,
      "note": 90,
      "start": 16.2718,
      "duration": 0.0936,
      "velocity": 99,
      "chip": "ym2612"
    },
    {
      "channel": 0,
      "note": 56,
      "start": 16.2974,
      "duration": 0.0831,
      "velocity": 99,
      "chip": "ym2612"
    },
    {
      "channel": 0,
      "note": 57,
      "start": 16.3807,
      "duration": 0.0347,
      "velocity": 99,
      "chip": "ym2612"
    },
    {
      "channel": 1,
      "note": 80,
      "start": 16.3834,
      "duration": 0.4983,
      "velocity": 99,
      "chip": "ym2612"
    },
    {
      "channel": 3,
      "note": 56,
      "start": 16.3848,
      "duration": 0.0062,
      "velocity": 98,
      "chip": "ym2612"
    },
    {
      "channel": 0,
      "note": 57,
      "start": 16.4156,
      "duration": 0.1788,
      "velocity": 99,
      "chip": "ym2612"
    },
    {
      "channel": 2,
      "note": 80,
      "start": 16.4184,
      "duration": 0.5092,
      "velocity": 99,
      "chip": "ym2612"
    },
    {
      "channel": 3,
      "note": 57,
      "start": 16.419,
      "duration": 0.0201,
      "velocity": 98,
      "chip": "ym2612"
    },
    {
      "channel": 4,
      "note": 63,
      "start": 16.4225,
      "duration": 0.5027,
      "velocity": 99,
      "chip": "ym2612"
    },
    {
      "channel": 0,
      "note": 69,
      "start": 16.5947,
      "duration": 0.0329,
      "velocity": 99,
      "chip": "ym2612"
    },
    {
      "channel": 3,
      "note": 57,
      "start": 16.5959,
      "duration": 0.0298,
      "velocity": 98,
      "chip": "ym2612"
    },
    {
      "channel": 0,
      "note": 57,
      "start": 16.6278,
      "duration": 0.0837,
      "velocity": 99,
      "chip": "ym2612"
    },
    {
      "channel": 3,
      "note": 57,
      "start": 16.6291,
      "duration": 0.0057,
      "velocity": 98,
      "chip": "ym2612"
    },
    {
      "channel": 0,
      "note": 57,
      "start": 16.7117,
      "duration": 0.0347,
      "velocity": 99,
      "chip": "ym2612"
    },
    {
      "channel": 3,
      "note": 57,
      "start": 16.7129,
      "duration": 0.006,
      "velocity": 98,
      "chip": "ym2612"
    },
    {
      "channel": 0,
      "note": 69,
      "start": 16.7467,
      "duration": 0.0333,
      "velocity": 99,
      "chip": "ym2612"
    },
    {
      "channel": 3,
      "note": 57,
      "start": 16.7483,
      "duration": 0.0296,
      "velocity": 98,
      "chip": "ym2612"
    },
    {
      "channel": 0,
      "note": 57,
      "start": 16.7803,
      "duration": 0.0339,
      "velocity": 99,
      "chip": "ym2612"
    },
    {
      "channel": 3,
      "note": 57,
      "start": 16.7816,
      "duration": 0.0062,
      "velocity": 98,
      "chip": "ym2612"
    },
    {
      "channel": 0,
      "note": 57,
      "start": 16.8145,
      "duration": 0.0826,
      "velocity": 99,
      "chip": "ym2612"
    },
    {
      "channel": 3,
      "note": 57,
      "start": 16.8157,
      "duration": 0.0057,
      "velocity": 98,
      "chip": "ym2612"
    },
    {
      "channel": 0,
      "note": 59,
      "start": 16.8973,
      "duration": 0.0328,
      "velocity": 99,
      "chip": "ym2612"
    },
    {
      "channel": 1,
      "note": 78,
      "start": 16.8979,
      "duration": 0.3168,
      "velocity": 99,
      "chip": "ym2612"
    },
    {
      "channel": 3,
      "note": 57,
      "start": 16.8988,
      "duration": 0.006,
      "velocity": 98,
      "chip": "ym2612"
    },
    {
      "channel": 0,
      "note": 59,
      "start": 16.9304,
      "duration": 0.1814,
      "velocity": 99,
      "chip": "ym2612"
    },
    {
      "channel": 2,
      "note": 78,
      "start": 16.9313,
      "duration": 0.3298,
      "velocity": 99,
      "chip": "ym2612"
    },
    {
      "channel": 3,
      "note": 59,
      "start": 16.9322,
      "duration": 0.0241,
      "velocity": 98,
      "chip": "ym2612"
    },
    {
      "channel": 4,
      "note": 80,
      "start": 16.9329,
      "duration": 0.326,
      "velocity": 99,
      "chip": "ym2612"
    },
    {
      "channel": 0,
      "note": 71,
      "start": 17.1121,
      "duration": 0.0331,
      "velocity": 99,
      "chip": "ym2612"
    },
    {
      "channel": 3,
      "note": 59,
      "start": 17.1133,
      "duration": 0.0299,
      "velocity": 98,
      "chip": "ym2612"
    },
    {
      "channel": 0,
      "note": 59,
      "start": 17.1454,
      "duration": 0.0846,
      "velocity": 99,
      "chip": "ym2612"
    },
    {
      "channel": 3,
      "note": 59,
      "start": 17.1467,
      "duration": 0.0057,
      "velocity": 98,
      "chip": "ym2612"
    },
    {
      "channel": 0,
      "note": 59,
      "start": 17.2303,
      "duration": 0.0338,
      "velocity": 99,
      "chip": "ym2612"
    },
    {
      "channel": 1,
      "note": 83,
      "start": 17.2308,
      "duration": 0.0976,
      "velocity": 99,
      "chip": "ym2612"
    },
    {
      "channel": 3,
      "note": 59,
      "start": 17.2317,
      "duration": 0.0058,
      "velocity": 98,
      "chip": "ym2612"
    },
    {
      "channel": 0,
      "note": 71,
      "start": 17.2643,
      "duration": 0.0329,
      "velocity": 99,
      "chip": "ym2612"
    },
    {
      "channel": 2,
      "note": 83,
      "start": 17.2651,
      "duration": 0.0973,
      "velocity": 99,
      "chip": "ym2612"
    },
    {
      "channel": 3,
      "note": 59,
      "start": 17.2658,
      "duration": 0.0286,
      "velocity": 98,
      "chip": "ym2612"
    },
    {
      "channel": 4,
      "note": 78,
      "start": 17.2666,
      "duration": 0.0939,
      "velocity": 99,
      "chip": "ym2612"
    },
    {
      "channel": 0,
      "note": 59,
      "start": 17.2975,
      "duration": 0.034,
      "velocity": 99,
      "chip": "ym2612"
    },
    {
      "channel": 3,
      "note": 59,
      "start": 17.2987,
      "duration": 0.0067,
      "velocity": 98,
      "chip": "ym2612"
    },
    {
      "channel": 0,
      "note": 60,
      "start": 17.3317,
      "duration": 0.2209,
      "velocity": 99,
      "chip": "ym2612"
    },
    {
      "channel": 1,
      "note": 83,
      "start": 17.3323,
      "duration": 0.2498,
      "velocity": 99,
      "chip": "ym2612"
    },
    {
      "channel": 3,
      "note": 59,
      "start": 17.3333,
      "duration": 0.2045,
      "velocity": 98,
      "chip": "ym2612"
    },
    {
      "channel": 2,
      "note": 83,
      "start": 17.3658,
      "duration": 0.2516,
      "velocity": 99,
      "chip": "ym2612"
    },
    {
      "channel": 4,
      "note": 83,
      "start": 17.3668,
      "duration": 0.2487,
      "velocity": 99,
      "chip": "ym2612"
    },
    {
      "channel": 0,
      "note": 60,
      "start": 17.5529,
      "duration": 0.0328,
      "velocity": 99,
      "chip": "ym2612"
    },
    {
      "channel": 3,
      "note": 60,
      "start": 17.554,
      "duration": 0.0287,
      "velocity": 98,
      "chip": "ym2612"
    },
    {
      "channel": 0,
      "note": 72,
      "start": 17.5859,
      "duration": 0.0339,
      "velocity": 99,
      "chip": "ym2612"
    },
    {
      "channel": 1,
      "note": 81,
      "start": 17.5868,
      "duration": 0.1015,
      "velocity": 99,
      "chip": "ym2612"
    },
    {
      "channel": 3,
      "note": 60,
      "start": 17.5877,
      "duration": 0.03,
      "velocity": 98,
      "chip": "ym2612"
    },
    {
      "channel": 0,
      "note": 60,
      "start": 17.6201,
      "duration": 0.0835,
      "velocity": 99,
      "chip": "ym2612"
    },
    {
      "channel": 2,
      "note": 81,
      "start": 17.6209,
      "duration": 0.1134,
      "velocity": 99,
      "chip": "ym2612"
    },
    {
      "channel": 3,
      "note": 60,
      "start": 17.6216,
      "duration": 0.0059,
      "velocity": 98,
      "chip": "ym2612"
    },
    {
      "channel": 4,
      "note": 83,
      "start": 17.6222,
      "duration": 0.1096,
      "velocity": 99,
      "chip": "ym2612"
    },
    {
      "channel": 0,
      "note": 60,
      "start": 17.7038,
      "duration": 0.0339,
      "velocity": 99,
      "chip": "ym2612"
    },
    {
      "channel": 1,
      "note": 80,
      "start": 17.7044,
      "duration": 0.0628,
      "velocity": 99,
      "chip": "ym2612"
    },
    {
      "channel": 3,
      "note": 60,
      "start": 17.7052,
      "duration": 0.0058,
      "velocity": 98,
      "chip": "ym2612"
    },
    {
      "channel": 0,
      "note": 72,
      "start": 17.738,
      "duration": 0.033,
      "velocity": 99,
      "chip": "ym2612"
    },
    {
      "channel": 2,
      "note": 80,
      "start": 17.7387,
      "duration": 0.063,
      "velocity": 99,
      "chip": "ym2612"
    },
    {
      "channel": 3,
      "note": 60,
      "start": 17.7394,
      "duration": 0.0286,
      "velocity": 98,
      "chip": "ym2612"
    },
    {
      "channel": 4,
      "note": 81,
      "start": 17.7401,
      "duration": 0.0593,
      "velocity": 99,
      "chip": "ym2612"
    },
    {
      "channel": 0,
      "note": 60,
      "start": 17.7712,
      "duration": 0.0328,
      "velocity": 99,
      "chip": "ym2612"
    },
    {
      "channel": 1,
      "note": 78,
      "start": 17.7719,
      "duration": 0.101,
      "velocity": 99,
      "chip": "ym2612"
    },
    {
      "channel": 3,
      "note": 60,
      "start": 17.7732,
      "duration": 0.0065,
      "velocity": 98,
      "chip": "ym2612"
    },
    {
      "channel": 0,
      "note": 60,
      "start": 17.8043,
      "duration": 0.0841,
      "velocity": 99,
      "chip": "ym2612"
    },
    {
      "channel": 2,
      "note": 78,
      "start": 17.805,
      "duration": 0.1138,
      "velocity": 99,
      "chip": "ym2612"
    },
    {
      "channel": 3,
      "note": 60,
      "start": 17.8057,
      "duration": 0.006,
      "velocity": 98,
      "chip": "ym2612"
    },
    {
      "channel": 4,
      "note": 80,
      "start": 17.8063,
      "duration": 0.1102,
      "velocity": 99,
      "chip": "ym2612"
    },
    {
      "channel": 0,
      "note": 61,
      "start": 17.8886,
      "duration": 0.0325,
      "velocity": 99,
      "chip": "ym2612"
    },
    {
      "channel": 1,
      "note": 76,
      "start": 17.8891,
      "duration": 0.0295,
      "velocity": 99,
      "chip": "ym2612"
    },
    {
      "channel": 3,
      "note": 60,
      "start": 17.89,
      "duration": 0.0057,
      "velocity": 98,
      "chip": "ym2612"
    },
    {
      "channel": 0,
      "note": 73,
      "start": 17.9214,
      "duration": 0.1819,
      "velocity": 99,
      "chip": "ym2612"
    },
    {
      "channel": 1,
      "note": 75,
      "start": 17.9219,
      "duration": 0.166,
      "velocity": 99,
      "chip": "ym2612"
    },
    {
      "channel": 2,
      "note": 76,
      "start": 17.9224,
      "duration": 0.1658,
      "velocity": 99,
      "chip": "ym2612"
    },
    {
      "channel": 3,
      "note": 61,
      "start": 17.9231,
      "duration": 0.0248,
      "velocity": 98,
      "chip": "ym2612"
    },
    {
      "channel": 4,
      "note": 78,
      "start": 17.9237,
      "duration": 0.1498,
      "velocity": 99,
      "chip": "ym2612"
    },
    {
      "channel": 0,
      "note": 61,
      "start": 18.1035,
      "duration": 0.0348,
      "velocity": 99,
      "chip": "ym2612"
    },
    {
      "channel": 1,
      "note": 76,
      "start": 18.1041,
      "duration": 0.0299,
      "velocity": 99,
      "chip": "ym2612"
    },
    {
      "channel": 2,
      "note": 75,
      "start": 18.1046,
      "duration": 0.0296,
      "velocity": 99,
      "chip": "ym2612"
    },
    {
      "channel": 3,
      "note": 61,
      "start": 18.1054,
      "duration": 0.0291,
      "velocity": 98,
      "chip": "ym2612"
    },
    {
      "channel": 4,
      "note": 76,
      "start": 18.1061,
      "duration": 0.0261,
      "velocity": 99,
      "chip": "ym2612"
    },
    {
      "channel": 0,
      "note": 59,
      "start": 18.1386,
      "duration": 0.2152,
      "velocity": 99,
      "chip": "ym2612"
    },
    {
      "channel": 1,
      "note": 78,
      "start": 18.1391,
      "duration": 0.1993,
      "velocity": 99,
      "chip": "ym2612"
    },
    {
      "channel": 2,
      "note": 76,
      "start": 18.1397,
      "duration": 0.0302,
      "velocity": 99,
      "chip": "ym2612"
    },
    {
      "channel": 3,
      "note": 61,
      "start": 18.1403,
      "duration": 0.1988,
      "velocity": 98,
      "chip": "ym2612"
    },
    {
      "channel": 4,
      "note": 75,
      "start": 18.141,
      "duration": 0.0267,
      "velocity": 99,
      "chip": "ym2612"
    },
    {
      "channel": 2,
      "note": 78,
      "start": 18.1728,
      "duration": 0.2115,
      "velocity": 99,
      "chip": "ym2612"
    },
    {
      "channel": 4,
      "note": 76,
      "start": 18.1737,
      "duration": 0.2083,
      "velocity": 99,
      "chip": "ym2612"
    },
    {
      "channel": 0,
      "note": 59,
      "start": 18.3541,
      "duration": 0.0325,
      "velocity": 99,
      "chip": "ym2612"
    },
    {
      "channel": 1,
      "note": 75,
      "start": 18.3546,
      "duration": 0.0294,
      "velocity": 99,
      "chip": "ym2612"
    },
    {
      "channel": 3,
      "note": 61,
      "start": 18.3556,
      "duration": 0.006,
      "velocity": 98,
      "chip": "ym2612"
    },
    {
      "channel": 0,
      "note": 59,
      "start": 18.3868,
      "duration": 0.033,
      "velocity": 99,
      "chip": "ym2612"
    },
    {
      "channel": 1,
      "note": 76,
      "start": 18.3874,
      "duration": 0.0299,
      "velocity": 99,
      "chip": "ym2612"
    },
    {
      "channel": 2,
      "note": 75,
      "start": 18.3879,
      "duration": 0.0297,
      "velocity": 99,
      "chip": "ym2612"
    },
    {
      "channel": 3,
      "note": 61,
      "start": 18.3886,
      "duration": 0.0293,
      "velocity": 98,
      "chip": "ym2612"
    },
    {
      "channel": 4,
      "note": 78,
      "start": 18.3893,
      "duration": 0.026,
      "velocity": 99,
      "chip": "ym2612"
    },
    {
      "channel": 0,
      "note": 59,
      "start": 18.4204,
      "duration": 0.0829,
      "velocity": 99,
      "chip": "ym2612"
    },
    {
      "channel": 1,
      "note": 78,
      "start": 18.4209,
      "duration": 0.067,
      "velocity": 99,
      "chip": "ym2612"
    },
    {
      "channel": 2,
      "note": 76,
      "start": 18.4215,
      "duration": 0.0668,
      "velocity": 99,
      "chip": "ym2612"
    },
    {
      "channel": 3,
      "note": 61,
      "start": 18.4222,
      "duration": 0.0061,
      "velocity": 98,
      "chip": "ym2612"
    },
    {
      "channel": 4,
      "note": 75,
      "start": 18.4228,
      "duration": 0.0503,
      "velocity": 99,
      "chip": "ym2612"
    },
    {
      "channel": 0,
      "note": 57,
      "start": 18.5036,
      "duration": 0.0332,
      "velocity": 99,
      "chip": "ym2612"
    },
    {
      "channel": 1,
      "note": 80,
      "start": 18.5041,
      "duration": 0.3155,
      "velocity": 99,
      "chip": "ym2612"
    },
    {
      "channel": 2,
      "note": 78,
      "start": 18.5046,
      "duration": 0.0299,
      "velocity": 99,
      "chip": "ym2612"
    },
    {
      "channel": 3,
      "note": 61,
      "start": 18.5053,
      "duration": 0.0063,
      "velocity": 98,
      "chip": "ym2612"
    },
    {
      "channel": 4,
      "note": 76,
      "start": 18.5059,
      "duration": 0.0263,
      "velocity": 99,
      "chip": "ym2612"
    },
    {
      "channel": 0,
      "note": 57,
      "start": 18.537,
      "duration": 0.1811,
      "velocity": 99,
      "chip": "ym2612"
    },
    {
      "channel": 2,
      "note": 80,
      "start": 18.5377,
      "duration": 0.3288,
      "velocity": 99,
      "chip": "ym2612"
    },
    {
      "channel": 3,
      "note": 57,
      "start": 18.5384,
      "duration": 0.0242,
      "velocity": 98,
      "chip": "ym2612"
    },
    {
      "channel": 4,
      "note": 78,
      "start": 18.539,
      "duration": 0.3252,
      "velocity": 99,
      "chip": "ym2612"
    },
    {
      "channel": 0,
      "note": 69,
      "start": 18.7183,
      "duration": 0.0322,
      "velocity": 99,
      "chip": "ym2612"
    },
    {
      "channel": 3,
      "note": 57,
      "start": 18.7195,
      "duration": 0.0291,
      "velocity": 98,
      "chip": "ym2612"
    },
    {
      "channel": 0,
      "note": 57,
      "start": 18.7507,
      "duration": 0.0843,
      "velocity": 99,
      "chip": "ym2612"
    },
    {
      "channel": 3,
      "note": 57,
      "start": 18.7524,
      "duration": 0.0061,
      "velocity": 98,
      "chip": "ym2612"
    },
    {
      "channel": 0,
      "note": 57,
      "start": 18.8353,
      "duration": 0.0339,
      "velocity": 99,
      "chip": "ym2612"
    },
    {
      "channel": 1,
      "note": 88,
      "start": 18.8358,
      "duration": 0.1673,
      "velocity": 99,
      "chip": "ym2612"
    },
    {
      "channel": 3,
      "note": 57,
      "start": 18.8367,
      "duration": 0.0062,
      "velocity": 98,
      "chip": "ym2612"
    },
    {
      "channel": 0,
      "note": 69,
      "start": 18.8694,
      "duration": 0.0325,
      "velocity": 99,
      "chip": "ym2612"
    },
    {
      "channel": 2,
      "note": 88,
      "start": 18.8702,
      "duration": 0.18,
      "velocity": 99,
      "chip": "ym2612"
    },
    {
      "channel": 3,
      "note": 57,
      "start": 18.8709,
      "duration": 0.0293,
      "velocity": 98,
      "chip": "ym2612"
    },
    {
      "channel": 4,
      "note": 80,
      "start": 18.8716,
      "duration": 0.1762,
      "velocity": 99,
      "chip": "ym2612"
    },
    {
      "channel": 0,
      "note": 57,
      "start": 18.9022,
      "duration": 0.0328,
      "velocity": 99,
      "chip": "ym2612"
    },
    {
      "channel": 3,
      "note": 57,
      "start": 18.9034,
      "duration": 0.006,
      "velocity": 98,
      "chip": "ym2612"
    },
    {
      "channel": 0,
      "note": 57,
      "start": 18.9353,
      "duration": 0.0832,
      "velocity": 99,
      "chip": "ym2612"
    },
    {
      "channel": 3,
      "note": 57,
      "start": 18.9364,
      "duration": 0.0059,
      "velocity": 98,
      "chip": "ym2612"
    },
    {
      "channel": 0,
      "note": 59,
      "start": 19.0187,
      "duration": 0.0338,
      "velocity": 99,
      "chip": "ym2612"
    },
    {
      "channel": 1,
      "note": 87,
      "start": 19.0193,
      "duration": 0.3166,
      "velocity": 99,
      "chip": "ym2612"
    },
    {
      "channel": 3,
      "note": 57,
      "start": 19.0201,
      "duration": 0.0064,
      "velocity": 98,
      "chip": "ym2612"
    },
    {
      "channel": 0,
      "note": 59,
      "start": 19.0527,
      "duration": 0.1812,
      "velocity": 99,
      "chip": "ym2612"
    },
    {
      "channel": 2,
      "note": 87,
      "start": 19.0535,
      "duration": 0.3292,
      "velocity": 99,
      "chip": "ym2612"
    },
    {
      "channel": 3,
      "note": 59,
      "start": 19.0541,
      "duration": 0.0244,
      "velocity": 98,
      "chip": "ym2612"
    },
    {
      "channel": 4,
      "note": 88,
      "start": 19.0548,
      "duration": 0.3256,
      "velocity": 99,
      "chip": "ym2612"
    },
    {
      "channel": 0,
      "note": 71,
      "start": 19.2342,
      "duration": 0.0329,
      "velocity": 99,
      "chip": "ym2612"
    },
    {
      "channel": 3,
      "note": 59,
      "start": 19.2355,
      "duration": 0.0298,
      "velocity": 98,
      "chip": "ym2612"
    },
    {
      "channel": 0,
      "note": 59,
      "start": 19.2674,
      "duration": 0.0838,
      "velocity": 99,
      "chip": "ym2612"
    },
    {
      "channel": 3,
      "note": 59,
      "start": 19.2687,
      "duration": 0.0061,
      "velocity": 98,
      "chip": "ym2612"
    },
    {
      "channel": 0,
      "note": 59,
      "start": 19.3517,
      "duration": 0.0349,
      "velocity": 99,
      "chip": "ym2612"
    },
    {
      "channel": 1,
      "note": 83,
      "start": 19.3523,
      "duration": 0.1695,
      "velocity": 99,
      "chip": "ym2612"
    },
    {
      "channel": 3,
      "note": 59,
      "start": 19.3532,
      "duration": 0.0062,
      "velocity": 98,
      "chip": "ym2612"
    },
    {
      "channel": 0,
      "note": 71,
      "start": 19.3868,
      "duration": 0.0334,
      "velocity": 99,
      "chip": "ym2612"
    },
    {
      "channel": 2,
      "note": 83,
      "start": 19.3876,
      "duration": 0.1825,
      "velocity": 99,
      "chip": "ym2612"
    },
    {
      "channel": 3,
      "note": 59,
      "start": 19.3883,
      "duration": 0.029,
      "velocity": 98,
      "chip": "ym2612"
    },
    {
      "channel": 4,
      "note": 87,
      "start": 19.389,
      "duration": 0.179,
      "velocity": 99,
      "chip": "ym2612"
    },
    {
      "channel": 0,
      "note": 59,
      "start": 19.4205,
      "duration": 0.0169,
      "velocity": 99,
      "chip": "ym2612"
    },
    {
      "channel": 3,
      "note": 59,
      "start": 19.4217,
      "duration": 0.0066,
      "velocity": 98,
      "chip": "ym2612"
    },
    {
      "channel": 0,
      "note": 66,
      "start": 19.4377,
      "duration": 0.0168,
      "velocity": 99,
      "chip": "ym2612"
    },
    {
      "channel": 0,
      "note": 59,
      "start": 19.4547,
      "duration": 0.0825,
      "velocity": 99,
      "chip": "ym2612"
    },
    {
      "channel": 3,
      "note": 59,
      "start": 19.4559,
      "duration": 0.0056,
      "velocity": 98,
      "chip": "ym2612"
    },
    {
      "channel": 0,
      "note": 59,
      "start": 19.5376,
      "duration": 0.0182,
      "velocity": 99,
      "chip": "ym2612"
    },
    {
      "channel": 1,
      "note": 85,
      "start": 19.5382,
      "duration": 1.098,
      "velocity": 99,
      "chip": "ym2612"
    },
    {
      "channel": 3,
      "note": 59,
      "start": 19.5395,
      "duration": 0.0145,
      "velocity": 98,
      "chip": "ym2612"
    },
    {
      "channel": 0,
      "note": 60,
      "start": 19.556,
      "duration": 0.0179,
      "velocity": 99,
      "chip": "ym2612"
    },
    {
      "channel": 3,
      "note": 59,
      "start": 19.5571,
      "duration": 0.0133,
      "velocity": 98,
      "chip": "ym2612"
    },
    {
      "channel": 0,
      "note": 61,
      "start": 19.5742,
      "duration": 0.0178,
      "velocity": 99,
      "chip": "ym2612"
    },
    {
      "channel": 2,
      "note": 85,
      "start": 19.5751,
      "duration": 1.0615,
      "velocity": 99,
      "chip": "ym2612"
    },
    {
      "channel": 3,
      "note": 60,
      "start": 19.5757,
      "duration": 0.0143,
      "velocity": 98,
      "chip": "ym2612"
    },
    {
      "channel": 4,
      "note": 83,
      "start": 19.5764,
      "duration": 1.0608,
      "velocity": 99,
      "chip": "ym2612"
    },
    {
      "channel": 0,
      "note": 59,
      "start": 19.6083,
      "duration": 0.0166,
      "velocity": 99,
      "chip": "ym2612"
    },
    {
      "channel": 3,
      "note": 61,
      "start": 19.6095,
      "duration": 0.0137,
      "velocity": 98,
      "chip": "ym2612"
    },
    {
      "channel": 0,
      "note": 60,
      "start": 19.6256,
      "duration": 0.0184,
      "velocity": 99,
      "chip": "ym2612"
    },
    {
      "channel": 3,
      "note": 59,
      "start": 19.6267,
      "duration": 0.0138,
      "velocity": 98,
      "chip": "ym2612"
    },
    {
      "channel": 0,
      "note": 61,
      "start": 19.6442,
      "duration": 0.0165,
      "velocity": 99,
      "chip": "ym2612"
    },
    {
      "channel": 3,
      "note": 60,
      "start": 19.6454,
      "duration": 0.0135,
      "velocity": 98,
      "chip": "ym2612"
    },
    {
      "channel": 0,
      "note": 64,
      "start": 19.6781,
      "duration": 0.0346,
      "velocity": 99,
      "chip": "ym2612"
    },
    {
      "channel": 3,
      "note": 61,
      "start": 19.6793,
      "duration": 0.0296,
      "velocity": 98,
      "chip": "ym2612"
    },
    {
      "channel": 0,
      "note": 61,
      "start": 19.713,
      "duration": 0.0339,
      "velocity": 99,
      "chip": "ym2612"
    },
    {
      "channel": 3,
      "note": 64,
      "start": 19.7141,
      "duration": 0.0635,
      "velocity": 98,
      "chip": "ym2612"
    },
    {
      "channel": 0,
      "note": 61,
      "start": 19.7471,
      "duration": 0.0339,
      "velocity": 99,
      "chip": "ym2612"
    },
    {
      "channel": 0,
      "note": 56,
      "start": 19.7812,
      "duration": 0.0337,
      "velocity": 99,
      "chip": "ym2612"
    },
    {
      "channel": 3,
      "note": 61,
      "start": 19.7824,
      "duration": 0.0296,
      "velocity": 98,
      "chip": "ym2612"
    },
    {
      "channel": 0,
      "note": 59,
      "start": 19.8154,
      "duration": 0.0192,
      "velocity": 99,
      "chip": "ym2612"
    },
    {
      "channel": 3,
      "note": 56,
      "start": 19.8179,
      "duration": 0.0149,
      "velocity": 98,
      "chip": "ym2612"
    },
    {
      "channel": 0,
      "note": 60,
      "start": 19.8349,
      "duration": 0.0171,
      "velocity": 99,
      "chip": "ym2612"
    },
    {
      "channel": 3,
      "note": 59,
      "start": 19.836,
      "duration": 0.0127,
      "velocity": 98,
      "chip": "ym2612"
    },
    {
      "channel": 0,
      "note": 61,
      "start": 19.8522,
      "duration": 0.0168,
      "velocity": 99,
      "chip": "ym2612"
    },
    {
      "channel": 3,
      "note": 60,
      "start": 19.8533,
      "duration": 0.0139,
      "velocity": 98,
      "chip": "ym2612"
    },
    {
      "channel": 0,
      "note": 59,
      "start": 19.8857,
      "duration": 0.0179,
      "velocity": 99,
      "chip": "ym2612"
    },
    {
      "channel": 3,
      "note": 61,
      "start": 19.8869,
      "duration": 0.0146,
      "velocity": 98,
      "chip": "ym2612"
    },
    {
      "channel": 0,
      "note": 60,
      "start": 19.9039,
      "duration": 0.0175,
      "velocity": 99,
      "chip": "ym2612"
    },
    {
      "channel": 3,
      "note": 59,
      "start": 19.9051,
      "duration": 0.0138,
      "velocity": 98,
      "chip": "ym2612"
    },
    {
      "channel": 0,
      "note": 61,
      "start": 19.9217,
      "duration": 0.0166,
      "velocity": 99,
      "chip": "ym2612"
    },
    {
      "channel": 3,
      "note": 60,
      "start": 19.9228,
      "duration": 0.0136,
      "velocity": 98,
      "chip": "ym2612"
    },
    {
      "channel": 0,
      "note": 64,
      "start": 19.9559,
      "duration": 0.0333,
      "velocity": 99,
      "chip": "ym2612"
    },
    {
      "channel": 3,
      "note": 61,
      "start": 19.957,
      "duration": 0.0298,
      "velocity": 98,
      "chip": "ym2612"
    },
    {
      "channel": 0,
      "note": 61,
      "start": 19.9895,
      "duration": 0.0331,
      "velocity": 99,
      "chip": "ym2612"
    },
    {
      "channel": 3,
      "note": 64,
      "start": 19.991,
      "duration": 0.0621,
      "velocity": 98,
      "chip": "ym2612"
    },
    {
      "channel": 0,
      "note": 61,
      "start": 20.0229,
      "duration": 0.0335,
      "velocity": 99,
      "chip": "ym2612"
    },
    {
      "channel": 0,
      "note": 56,
      "start": 20.0566,
      "duration": 0.0339,
      "velocity": 99,
      "chip": "ym2612"
    },
    {
      "channel": 3,
      "note": 61,
      "start": 20.0578,
      "duration": 0.0301,
      "velocity": 98,
      "chip": "ym2612"
    },
    {
      "channel": 0,
      "note": 59,
      "start": 20.0909,
      "duration": 0.0178,
      "velocity": 99,
      "chip": "ym2612"
    },
    {
      "channel": 3,
      "note": 56,
      "start": 20.0927,
      "duration": 0.0143,
      "velocity": 98,
      "chip": "ym2612"
    },
    {
      "channel": 0,
      "note": 60,
      "start": 20.109,
      "duration": 0.0185,
      "velocity": 99,
      "chip": "ym2612"
    },
    {
      "channel": 3,
      "note": 59,
      "start": 20.1101,
      "duration": 0.0135,
      "velocity": 98,
      "chip": "ym2612"
    },
    {
      "channel": 0,
      "note": 61,
      "start": 20.1278,
      "duration": 0.0172,
      "velocity": 99,
      "chip": "ym2612"
    },
    {
      "channel": 3,
      "note": 60,
      "start": 20.1294,
      "duration": 0.0138,
      "velocity": 98,
      "chip": "ym2612"
    },
    {
      "channel": 0,
      "note": 59,
      "start": 20.1607,
      "duration": 0.0174,
      "velocity": 99,
      "chip": "ym2612"
    },
    {
      "channel": 3,
      "note": 61,
      "start": 20.1619,
      "duration": 0.0145,
      "velocity": 98,
      "chip": "ym2612"
    },
    {
      "channel": 0,
      "note": 60,
      "start": 20.1784,
      "duration": 0.0176,
      "velocity": 99,
      "chip": "ym2612"
    },
    {
      "channel": 3,
      "note": 59,
      "start": 20.1795,
      "duration": 0.0129,
      "velocity": 98,
      "chip": "ym2612"
    },
    {
      "channel": 0,
      "note": 61,
      "start": 20.1962,
      "duration": 0.0168,
      "velocity": 99,
      "chip": "ym2612"
    },
    {
      "channel": 3,
      "note": 60,
      "start": 20.1974,
      "duration": 0.0138,
      "velocity": 98,
      "chip": "ym2612"
    },
    {
      "channel": 0,
      "note": 64,
      "start": 20.2304,
      "duration": 0.0339,
      "velocity": 99,
      "chip": "ym2612"
    },
    {
      "channel": 3,
      "note": 61,
      "start": 20.2316,
      "duration": 0.0299,
      "velocity": 98,
      "chip": "ym2612"
    },
    {
      "channel": 0,
      "note": 61,
      "start": 20.2646,
      "duration": 0.0332,
      "velocity": 99,
      "chip": "ym2612"
    },
    {
      "channel": 3,
      "note": 64,
      "start": 20.2657,
      "duration": 0.0625,
      "velocity": 98,
      "chip": "ym2612"
    },
    {
      "channel": 0,
      "note": 61,
      "start": 20.298,
      "duration": 0.0334,
      "velocity": 99,
      "chip": "ym2612"
    },
    {
      "channel": 0,
      "note": 56,
      "start": 20.3316,
      "duration": 0.0339,
      "velocity": 99,
      "chip": "ym2612"
    },
    {
      "channel": 3,
      "note": 61,
      "start": 20.3328,
      "duration": 0.0301,
      "velocity": 98,
      "chip": "ym2612"
    },
    {
      "channel": 0,
      "note": 59,
      "start": 20.3659,
      "duration": 0.0175,
      "velocity": 99,
      "chip": "ym2612"
    },
    {
      "channel": 3,
      "note": 56,
      "start": 20.3673,
      "duration": 0.0143,
      "velocity": 98,
      "chip": "ym2612"
    },
    {
      "channel": 0,
      "note": 60,
      "start": 20.3837,
      "duration": 0.019,
      "velocity": 99,
      "chip": "ym2612"
    },
    {
      "channel": 3,
      "note": 59,
      "start": 20.3848,
      "duration": 0.0142,
      "velocity": 98,
      "chip": "ym2612"
    },
    {
      "channel": 0,
      "note": 61,
      "start": 20.4029,
      "duration": 0.0166,
      "velocity": 99,
      "chip": "ym2612"
    },
    {
      "channel": 3,
      "note": 60,
      "start": 20.4041,
      "duration": 0.0136,
      "velocity": 98,
      "chip": "ym2612"
    },
    {
      "channel": 0,
      "note": 59,
      "start": 20.4363,
      "duration": 0.0179,
      "velocity": 99,
      "chip": "ym2612"
    },
    {
      "channel": 3,
      "note": 61,
      "start": 20.4377,
      "duration": 0.0146,
      "velocity": 98,
      "chip": "ym2612"
    },
    {
      "channel": 0,
      "note": 60,
      "start": 20.4544,
      "duration": 0.0166,
      "velocity": 99,
      "chip": "ym2612"
    },
    {
      "channel": 3,
      "note": 59,
      "start": 20.4556,
      "duration": 0.0132,
      "velocity": 98,
      "chip": "ym2612"
    },
    {
      "channel": 0,
      "note": 61,
      "start": 20.4713,
      "duration": 0.0177,
      "velocity": 99,
      "chip": "ym2612"
    },
    {
      "channel": 3,
      "note": 60,
      "start": 20.4725,
      "duration": 0.0143,
      "velocity": 98,
      "chip": "ym2612"
    },
    {
      "channel": 0,
      "note": 64,
      "start": 20.5055,
      "duration": 0.0335,
      "velocity": 99,
      "chip": "ym2612"
    },
    {
      "channel": 3,
      "note": 61,
      "start": 20.5067,
      "duration": 0.0299,
      "velocity": 98,
      "chip": "ym2612"
    },
    {
      "channel": 0,
      "note": 61,
      "start": 20.5393,
      "duration": 0.0333,
      "velocity": 99,
      "chip": "ym2612"
    },
    {
      "channel": 3,
      "note": 64,
      "start": 20.5405,
      "duration": 0.0623,
      "velocity": 98,
      "chip": "ym2612"
    },
    {
      "channel": 0,
      "note": 61,
      "start": 20.5729,
      "duration": 0.0329,
      "velocity": 99,
      "chip": "ym2612"
    },
    {
      "channel": 0,
      "note": 56,
      "start": 20.606,
      "duration": 0.0335,
      "velocity": 99,
      "chip": "ym2612"
    },
    {
      "channel": 3,
      "note": 61,
      "start": 20.6071,
      "duration": 0.0297,
      "velocity": 98,
      "chip": "ym2612"
    },
    {
      "channel": 0,
      "note": 59,
      "start": 20.6399,
      "duration": 0.0274,
      "velocity": 99,
      "chip": "ym2612"
    },
    {
      "channel": 1,
      "note": 97,
      "start": 20.6426,
      "duration": 0.0294,
      "velocity": 100,
      "chip": "ym2612"
    },
    {
      "channel": 2,
      "note": 71,
      "start": 20.6452,
      "duration": 0.0191,
      "velocity": 98,
      "chip": "ym2612"
    },
    {
      "channel": 3,
      "note": 56,
      "start": 20.6461,
      "duration": 0.0185,
      "velocity": 98,
      "chip": "ym2612"
    },
    {
      "channel": 4,
      "note": 85,
      "start": 20.6547,
      "duration": 0.0234,
      "velocity": 99,
      "chip": "ym2612"
    },
    {
      "channel": 0,
      "note": 60,
      "start": 20.6675,
      "duration": 0.0183,
      "velocity": 99,
      "chip": "ym2612"
    },
    {
      "channel": 2,
      "note": 72,
      "start": 20.6686,
      "duration": 0.014,
      "velocity": 98,
      "chip": "ym2612"
    },
    {
      "channel": 3,
      "note": 59,
      "start": 20.6692,
      "duration": 0.0137,
      "velocity": 98,
      "chip": "ym2612"
    },
    {
      "channel": 0,
      "note": 61,
      "start": 20.6861,
      "duration": 0.0175,
      "velocity": 99,
      "chip": "ym2612"
    },
    {
      "channel": 1,
      "note": 97,
      "start": 20.6866,
      "duration": 0.0039,
      "velocity": 100,
      "chip": "ym2612"
    },
    {
      "channel": 2,
      "note": 73,
      "start": 20.6871,
      "duration": 0.0139,
      "velocity": 98,
      "chip": "ym2612"
    },
    {
      "channel": 3,
      "note": 60,
      "start": 20.6878,
      "duration": 0.0135,
      "velocity": 98,
      "chip": "ym2612"
    },
    {
      "channel": 4,
      "note": 97,
      "start": 20.6916,
      "duration": 0.005,
      "velocity": 99,
      "chip": "ym2612"
    },
    {
      "channel": 1,
      "note": 97,
      "start": 20.7041,
      "duration": 0.0033,
      "velocity": 100,
      "chip": "ym2612"
    },
    {
      "channel": 4,
      "note": 97,
      "start": 20.7085,
      "duration": 0.0053,
      "velocity": 99,
      "chip": "ym2612"
    },
    {
      "channel": 0,
      "note": 59,
      "start": 20.7212,
      "duration": 0.0185,
      "velocity": 99,
      "chip": "ym2612"
    },
    {
      "channel": 1,
      "note": 97,
      "start": 20.7217,
      "duration": 0.0224,
      "velocity": 100,
      "chip": "ym2612"
    },
    {
      "channel": 2,
      "note": 71,
      "start": 20.7222,
      "duration": 0.0146,
      "velocity": 98,
      "chip": "ym2612"
    },
    {
      "channel": 3,
      "note": 61,
      "start": 20.7229,
      "duration": 0.0144,
      "velocity": 98,
      "chip": "ym2612"
    },
    {
      "channel": 4,
      "note": 97,
      "start": 20.7275,
      "duration": 0.0223,
      "velocity": 99,
      "chip": "ym2612"
    },
    {
      "channel": 0,
      "note": 60,
      "start": 20.7399,
      "duration": 0.0181,
      "velocity": 99,
      "chip": "ym2612"
    },
    {
      "channel": 2,
      "note": 72,
      "start": 20.7406,
      "duration": 0.0136,
      "velocity": 98,
      "chip": "ym2612"
    },
    {
      "channel": 3,
      "note": 59,
      "start": 20.7412,
      "duration": 0.0133,
      "velocity": 98,
      "chip": "ym2612"
    },
    {
      "channel": 0,
      "note": 61,
      "start": 20.7583,
      "duration": 0.0184,
      "velocity": 99,
      "chip": "ym2612"
    },
    {
      "channel": 1,
      "note": 97,
      "start": 20.7588,
      "duration": 0.0039,
      "velocity": 100,
      "chip": "ym2612"
    },
    {
      "channel": 2,
      "note": 73,
      "start": 20.7593,
      "duration": 0.0146,
      "velocity": 98,
      "chip": "ym2612"
    },
    {
      "channel": 3,
      "note": 60,
      "start": 20.76,
      "duration": 0.0143,
      "velocity": 98,
      "chip": "ym2612"
    },
    {
      "channel": 4,
      "note": 97,
      "start": 20.7641,
      "duration": 0.0054,
      "velocity": 99,
      "chip": "ym2612"
    },
    {
      "channel": 1,
      "note": 97,
      "start": 20.7773,
      "duration": 0.0033,
      "velocity": 100,
      "chip": "ym2612"
    },
    {
      "channel": 4,
      "note": 97,
      "start": 20.7816,
      "duration": 0.0051,
      "velocity": 99,
      "chip": "ym2612"
    },
    {
      "channel": 0,
      "note": 64,
      "start": 20.7933,
      "duration": 0.0354,
      "velocity": 99,
      "chip": "ym2612"
    },
    {
      "channel": 1,
      "note": 97,
      "start": 20.7938,
      "duration": 0.0216,
      "velocity": 100,
      "chip": "ym2612"
    },
    {
      "channel": 2,
      "note": 76,
      "start": 20.7944,
      "duration": 0.0312,
      "velocity": 98,
      "chip": "ym2612"
    },
    {
      "channel": 3,
      "note": 61,
      "start": 20.795,
      "duration": 0.0309,
      "velocity": 98,
      "chip": "ym2612"
    },
    {
      "channel": 4,
      "note": 97,
      "start": 20.7989,
      "duration": 0.0223,
      "velocity": 99,
      "chip": "ym2612"
    },
    {
      "channel": 0,
      "note": 61,
      "start": 20.829,
      "duration": 0.0348,
      "velocity": 99,
      "chip": "ym2612"
    },
    {
      "channel": 1,
      "note": 97,
      "start": 20.8295,
      "duration": 0.0039,
      "velocity": 100,
      "chip": "ym2612"
    },
    {
      "channel": 2,
      "note": 73,
      "start": 20.83,
      "duration": 0.0655,
      "velocity": 98,
      "chip": "ym2612"
    },
    {
      "channel": 3,
      "note": 64,
      "start": 20.8307,
      "duration": 0.0652,
      "velocity": 98,
      "chip": "ym2612"
    },
    {
      "channel": 4,
      "note": 97,
      "start": 20.8345,
      "duration": 0.005,
      "velocity": 99,
      "chip": "ym2612"
    },
    {
      "channel": 1,
      "note": 97,
      "start": 20.8468,
      "duration": 0.0029,
      "velocity": 100,
      "chip": "ym2612"
    },
    {
      "channel": 4,
      "note": 97,
      "start": 20.8508,
      "duration": 0.0053,
      "velocity": 99,
      "chip": "ym2612"
    },
    {
      "channel": 0,
      "note": 61,
      "start": 20.864,
      "duration": 0.0351,
      "velocity": 99,
      "chip": "ym2612"
    },
    {
      "channel": 1,
      "note": 97,
      "start": 20.8645,
      "duration": 0.0206,
      "velocity": 100,
      "chip": "ym2612"
    },
    {
      "channel": 4,
      "note": 97,
      "start": 20.8691,
      "duration": 0.0217,
      "velocity": 99,
      "chip": "ym2612"
    },
    {
      "channel": 0,
      "note": 56,
      "start": 20.8993,
      "duration": 0.0344,
      "velocity": 99,
      "chip": "ym2612"
    },
    {
      "channel": 1,
      "note": 97,
      "start": 20.9003,
      "duration": 0.0039,
      "velocity": 100,
      "chip": "ym2612"
    },
    {
      "channel": 2,
      "note": 68,
      "start": 20.9008,
      "duration": 0.0308,
      "velocity": 98,
      "chip": "ym2612"
    },
    {
      "channel": 3,
      "note": 61,
      "start": 20.9014,
      "duration": 0.0305,
      "velocity": 98,
      "chip": "ym2612"
    },
    {
      "channel": 4,
      "note": 97,
      "start": 20.9054,
      "duration": 0.0053,
      "velocity": 99,
      "chip": "ym2612"
    },
    {
      "channel": 1,
      "note": 97,
      "start": 20.9181,
      "duration": 0.0029,
      "velocity": 100,
      "chip": "ym2612"
    },
    {
      "channel": 4,
      "note": 97,
      "start": 20.9221,
      "duration": 0.0026,
      "velocity": 99,
      "chip": "ym2612"
    },
    {
      "channel": 0,
      "note": 59,
      "start": 20.9341,
      "duration": 0.0249,
      "velocity": 99,
      "chip": "ym2612"
    },
    {
      "channel": 1,
      "note": 97,
      "start": 20.9368,
      "duration": 0.027,
      "velocity": 100,
      "chip": "ym2612"
    },
    {
      "channel": 2,
      "note": 71,
      "start": 20.9375,
      "duration": 0.0182,
      "velocity": 98,
      "chip": "ym2612"
    },
    {
      "channel": 3,
      "note": 56,
      "start": 20.9383,
      "duration": 0.0177,
      "velocity": 98,
      "chip": "ym2612"
    },
    {
      "channel": 4,
      "note": 97,
      "start": 20.9458,
      "duration": 0.0237,
      "velocity": 99,
      "chip": "ym2612"
    },
    {
      "channel": 0,
      "note": 60,
      "start": 20.9593,
      "duration": 0.0179,
      "velocity": 99,
      "chip": "ym2612"
    },
    {
      "channel": 2,
      "note": 72,
      "start": 20.96,
      "duration": 0.014,
      "velocity": 98,
      "chip": "ym2612"
    },
    {
      "channel": 3,
      "note": 59,
      "start": 20.9607,
      "duration": 0.0137,
      "velocity": 98,
      "chip": "ym2612"
    },
    {
      "channel": 0,
      "note": 61,
      "start": 20.9774,
      "duration": 0.0179,
      "velocity": 99,
      "chip": "ym2612"
    },
    {
      "channel": 1,
      "note": 97,
      "start": 20.9779,
      "duration": 0.0039,
      "velocity": 100,
      "chip": "ym2612"
    },
    {
      "channel": 2,
      "note": 73,
      "start": 20.9785,
      "duration": 0.0139,
      "velocity": 98,
      "chip": "ym2612"
    },
    {
      "channel": 3,
      "note": 60,
      "start": 20.9791,
      "duration": 0.0135,
      "velocity": 98,
      "chip": "ym2612"
    },
    {
      "channel": 4,
      "note": 97,
      "start": 20.9829,
      "duration": 0.0049,
      "velocity": 99,
      "chip": "ym2612"
    },
    {
      "channel": 1,
      "note": 97,
      "start": 20.9959,
      "duration": 0.0032,
      "velocity": 100,
      "chip": "ym2612"
    },
    {
      "channel": 4,
      "note": 97,
      "start": 21.0005,
      "duration": 0.0054,
      "velocity": 99,
      "chip": "ym2612"
    },
    {
      "channel": 0,
      "note": 59,
      "start": 21.013,
      "duration": 0.0175,
      "velocity": 99,
      "chip": "ym2612"
    },
    {
      "channel": 1,
      "note": 97,
      "start": 21.0135,
      "duration": 0.0214,
      "velocity": 100,
      "chip": "ym2612"
    },
    {
      "channel": 2,
      "note": 71,
      "start": 21.014,
      "duration": 0.0138,
      "velocity": 98,
      "chip": "ym2612"
    },
    {
      "channel": 3,
      "note": 61,
      "start": 21.0147,
      "duration": 0.0134,
      "velocity": 98,
      "chip": "ym2612"
    },
    {
      "channel": 4,
      "note": 97,
      "start": 21.0185,
      "duration": 0.0222,
      "velocity": 99,
      "chip": "ym2612"
    },
    {
      "channel": 0,
      "note": 60,
      "start": 21.0307,
      "duration": 0.0185,
      "velocity": 99,
      "chip": "ym2612"
    },
    {
      "channel": 2,
      "note": 72,
      "start": 21.0315,
      "duration": 0.014,
      "velocity": 98,
      "chip": "ym2612"
    },
    {
      "channel": 3,
      "note": 59,
      "start": 21.0321,
      "duration": 0.0137,
      "velocity": 98,
      "chip": "ym2612"
    },
    {
      "channel": 0,
      "note": 61,
      "start": 21.0495,
      "duration": 0.018,
      "velocity": 99,
      "chip": "ym2612"
    },
    {
      "channel": 1,
      "note": 97,
      "start": 21.05,
      "duration": 0.0043,
      "velocity": 100,
      "chip": "ym2612"
    },
    {
      "channel": 2,
      "note": 73,
      "start": 21.0507,
      "duration": 0.0142,
      "velocity": 98,
      "chip": "ym2612"
    },
    {
      "channel": 3,
      "note": 60,
      "start": 21.0516,
      "duration": 0.0136,
      "velocity": 98,
      "chip": "ym2612"
    },
    {
      "channel": 4,
      "note": 97,
      "start": 21.0554,
      "duration": 0.0051,
      "velocity": 99,
      "chip": "ym2612"
    },
    {
      "channel": 1,
      "note": 97,
      "start": 21.0681,
      "duration": 0.0033,
      "velocity": 100,
      "chip": "ym2612"
    },
    {
      "channel": 4,
      "note": 97,
      "start": 21.0725,
      "duration": 0.0051,
      "velocity": 99,
      "chip": "ym2612"
    },
    {
      "channel": 0,
      "note": 64,
      "start": 21.0854,
      "duration": 0.0358,
      "velocity": 99,
      "chip": "ym2612"
    },
    {
      "channel": 1,
      "note": 97,
      "start": 21.086,
      "duration": 0.022,
      "velocity": 100,
      "chip": "ym2612"
    },
    {
      "channel": 2,
      "note": 76,
      "start": 21.0865,
      "duration": 0.0315,
      "velocity": 98,
      "chip": "ym2612"
    },
    {
      "channel": 3,
      "note": 61,
      "start": 21.0871,
      "duration": 0.0312,
      "velocity": 98,
      "chip": "ym2612"
    },
    {
      "channel": 4,
      "note": 97,
      "start": 21.0914,
      "duration": 0.0223,
      "velocity": 99,
      "chip": "ym2612"
    },
    {
      "channel": 0,
      "note": 61,
      "start": 21.1214,
      "duration": 0.0352,
      "velocity": 99,
      "chip": "ym2612"
    },
    {
      "channel": 1,
      "note": 97,
      "start": 21.122,
      "duration": 0.004,
      "velocity": 100,
      "chip": "ym2612"
    },
    {
      "channel": 2,
      "note": 73,
      "start": 21.1225,
      "duration": 0.0646,
      "velocity": 98,
      "chip": "ym2612"
    },
    {
      "channel": 3,
      "note": 64,
      "start": 21.1231,
      "duration": 0.0643,
      "velocity": 98,
      "chip": "ym2612"
    },
    {
      "channel": 4,
      "note": 97,
      "start": 21.1271,
      "duration": 0.005,
      "velocity": 99,
      "chip": "ym2612"
    },
    {
      "channel": 1,
      "note": 97,
      "start": 21.1402,
      "duration": 0.0032,
      "velocity": 100,
      "chip": "ym2612"
    },
    {
      "channel": 4,
      "note": 97,
      "start": 21.1446,
      "duration": 0.0053,
      "velocity": 99,
      "chip": "ym2612"
    },
    {
      "channel": 0,
      "note": 61,
      "start": 21.1569,
      "duration": 0.0342,
      "velocity": 99,
      "chip": "ym2612"
    },
    {
      "channel": 1,
      "note": 97,
      "start": 21.1574,
      "duration": 0.019,
      "velocity": 100,
      "chip": "ym2612"
    },
    {
      "channel": 4,
      "note": 97,
      "start": 21.1617,
      "duration": 0.0206,
      "velocity": 99,
      "chip": "ym2612"
    },
    {
      "channel": 0,
      "note": 56,
      "start": 21.1913,
      "duration": 0.0341,
      "velocity": 99,
      "chip": "ym2612"
    },
    {
      "channel": 1,
      "note": 97,
      "start": 21.1918,
      "duration": 0.0044,
      "velocity": 100,
      "chip": "ym2612"
    },
    {
      "channel": 2,
      "note": 68,
      "start": 21.1924,
      "duration": 0.0306,
      "velocity": 98,
      "chip": "ym2612"
    },
    {
      "channel": 3,
      "note": 61,
      "start": 21.193,
      "duration": 0.0303,
      "velocity": 98,
      "chip": "ym2612"
    },
    {
      "channel": 4,
      "note": 97,
      "start": 21.1973,
      "duration": 0.0049,
      "velocity": 99,
      "chip": "ym2612"
    },
    {
      "channel": 1,
      "note": 97,
      "start": 21.2096,
      "duration": 0.0029,
      "velocity": 100,
      "chip": "ym2612"
    },
    {
      "channel": 4,
      "note": 97,
      "start": 21.2136,
      "duration": 0.0026,
      "velocity": 99,
      "chip": "ym2612"
    },
    {
      "channel": 0,
      "note": 59,
      "start": 21.2258,
      "duration": 0.0249,
      "velocity": 99,
      "chip": "ym2612"
    },
    {
      "channel": 1,
      "note": 97,
      "start": 21.2285,
      "duration": 0.0266,
      "velocity": 100,
      "chip": "ym2612"
    },
    {
      "channel": 2,
      "note": 71,
      "start": 21.2292,
      "duration": 0.0188,
      "velocity": 98,
      "chip": "ym2612"
    },
    {
      "channel": 3,
      "note": 56,
      "start": 21.23,
      "duration": 0.0183,
      "velocity": 98,
      "chip": "ym2612"
    },
    {
      "channel": 4,
      "note": 97,
      "start": 21.2382,
      "duration": 0.0226,
      "velocity": 99,
      "chip": "ym2612"
    },
    {
      "channel": 0,
      "note": 60,
      "start": 21.251,
      "duration": 0.0175,
      "velocity": 99,
      "chip": "ym2612"
    },
    {
      "channel": 2,
      "note": 72,
      "start": 21.2517,
      "duration": 0.0134,
      "velocity": 98,
      "chip": "ym2612"
    },
    {
      "channel": 3,
      "note": 59,
      "start": 21.2524,
      "duration": 0.0131,
      "velocity": 98,
      "chip": "ym2612"
    },
    {
      "channel": 0,
      "note": 61,
      "start": 21.2687,
      "duration": 0.0186,
      "velocity": 99,
      "chip": "ym2612"
    },
    {
      "channel": 1,
      "note": 97,
      "start": 21.2692,
      "duration": 0.0039,
      "velocity": 100,
      "chip": "ym2612"
    },
    {
      "channel": 2,
      "note": 73,
      "start": 21.2698,
      "duration": 0.0141,
      "velocity": 98,
      "chip": "ym2612"
    },
    {
      "channel": 3,
      "note": 60,
      "start": 21.2704,
      "duration": 0.0138,
      "velocity": 98,
      "chip": "ym2612"
    },
    {
      "channel": 4,
      "note": 97,
      "start": 21.2742,
      "duration": 0.0049,
      "velocity": 99,
      "chip": "ym2612"
    },
    {
      "channel": 1,
      "note": 97,
      "start": 21.2878,
      "duration": 0.0037,
      "velocity": 100,
      "chip": "ym2612"
    },
    {
      "channel": 4,
      "note": 97,
      "start": 21.2926,
      "duration": 0.0051,
      "velocity": 99,
      "chip": "ym2612"
    },
    {
      "channel": 0,
      "note": 59,
      "start": 21.3056,
      "duration": 0.018,
      "velocity": 99,
      "chip": "ym2612"
    },
    {
      "channel": 1,
      "note": 97,
      "start": 21.3062,
      "duration": 0.0219,
      "velocity": 100,
      "chip": "ym2612"
    },
    {
      "channel": 2,
      "note": 71,
      "start": 21.3067,
      "duration": 0.0142,
      "velocity": 98,
      "chip": "ym2612"
    },
    {
      "channel": 3,
      "note": 61,
      "start": 21.3073,
      "duration": 0.0139,
      "velocity": 98,
      "chip": "ym2612"
    },
    {
      "channel": 4,
      "note": 97,
      "start": 21.3116,
      "duration": 0.0225,
      "velocity": 99,
      "chip": "ym2612"
    },
    {
      "channel": 0,
      "note": 60,
      "start": 21.3239,
      "duration": 0.0191,
      "velocity": 99,
      "chip": "ym2612"
    },
    {
      "channel": 2,
      "note": 72,
      "start": 21.3246,
      "duration": 0.0146,
      "velocity": 98,
      "chip": "ym2612"
    },
    {
      "channel": 3,
      "note": 59,
      "start": 21.3253,
      "duration": 0.0144,
      "velocity": 98,
      "chip": "ym2612"
    },
    {
      "channel": 0,
      "note": 61,
      "start": 21.3432,
      "duration": 0.0178,
      "velocity": 99,
      "chip": "ym2612"
    },
    {
      "channel": 1,
      "note": 97,
      "start": 21.3438,
      "duration": 0.0043,
      "velocity": 100,
      "chip": "ym2612"
    },
    {
      "channel": 2,
      "note": 73,
      "start": 21.3443,
      "duration": 0.0143,
      "velocity": 98,
      "chip": "ym2612"
    },
    {
      "channel": 3,
      "note": 60,
      "start": 21.3449,
      "duration": 0.0139,
      "velocity": 98,
      "chip": "ym2612"
    },
    {
      "channel": 4,
      "note": 97,
      "start": 21.3492,
      "duration": 0.005,
      "velocity": 99,
      "chip": "ym2612"
    },
    {
      "channel": 1,
      "note": 97,
      "start": 21.3617,
      "duration": 0.0033,
      "velocity": 100,
      "chip": "ym2612"
    },
    {
      "channel": 4,
      "note": 97,
      "start": 21.366,
      "duration": 0.005,
      "velocity": 99,
      "chip": "ym2612"
    },
    {
      "channel": 0,
      "note": 64,
      "start": 21.378,
      "duration": 0.0345,
      "velocity": 99,
      "chip": "ym2612"
    },
    {
      "channel": 1,
      "note": 97,
      "start": 21.3788,
      "duration": 0.0206,
      "velocity": 100,
      "chip": "ym2612"
    },
    {
      "channel": 2,
      "note": 76,
      "start": 21.3793,
      "duration": 0.0301,
      "velocity": 98,
      "chip": "ym2612"
    },
    {
      "channel": 3,
      "note": 61,
      "start": 21.38,
      "duration": 0.0298,
      "velocity": 98,
      "chip": "ym2612"
    },
    {
      "channel": 4,
      "note": 97,
      "start": 21.3839,
      "duration": 0.0212,
      "velocity": 99,
      "chip": "ym2612"
    },
    {
      "channel": 0,
      "note": 61,
      "start": 21.4127,
      "duration": 0.0354,
      "velocity": 99,
      "chip": "ym2612"
    },
    {
      "channel": 1,
      "note": 97,
      "start": 21.4133,
      "duration": 0.0039,
      "velocity": 100,
      "chip": "ym2612"
    },
    {
      "channel": 2,
      "note": 73,
      "start": 21.4138,
      "duration": 0.0649,
      "velocity": 98,
      "chip": "ym2612"
    },
    {
      "channel": 3,
      "note": 64,
      "start": 21.4144,
      "duration": 0.0646,
      "velocity": 98,
      "chip": "ym2612"
    },
    {
      "channel": 4,
      "note": 97,
      "start": 21.4183,
      "duration": 0.0054,
      "velocity": 99,
      "chip": "ym2612"
    },
    {
      "channel": 1,
      "note": 97,
      "start": 21.4321,
      "duration": 0.003,
      "velocity": 100,
      "chip": "ym2612"
    },
    {
      "channel": 4,
      "note": 97,
      "start": 21.4362,
      "duration": 0.005,
      "velocity": 99,
      "chip": "ym2612"
    },
    {
      "channel": 0,
      "note": 61,
      "start": 21.4483,
      "duration": 0.0339,
      "velocity": 99,
      "chip": "ym2612"
    },
    {
      "channel": 1,
      "note": 97,
      "start": 21.4489,
      "duration": 0.0186,
      "velocity": 100,
      "chip": "ym2612"
    },
    {
      "channel": 4,
      "note": 97,
      "start": 21.4533,
      "duration": 0.0206,
      "velocity": 99,
      "chip": "ym2612"
    },
    {
      "channel": 0,
      "note": 56,
      "start": 21.4824,
      "duration": 0.0346,
      "velocity": 99,
      "chip": "ym2612"
    },
    {
      "channel": 1,
      "note": 97,
      "start": 21.483,
      "duration": 0.004,
      "velocity": 100,
      "chip": "ym2612"
    },
    {
      "channel": 2,
      "note": 80,
      "start": 21.4835,
      "duration": 0.0305,
      "velocity": 98,
      "chip": "ym2612"
    },
    {
      "channel": 3,
      "note": 61,
      "start": 21.4841,
      "duration": 0.0306,
      "velocity": 98,
      "chip": "ym2612"
    },
    {
      "channel": 4,
      "note": 97,
      "start": 21.488,
      "duration": 0.0051,
      "velocity": 99,
      "chip": "ym2612"
    },
    {
      "channel": 1,
      "note": 97,
      "start": 21.5003,
      "duration": 0.0029,
      "velocity": 100,
      "chip": "ym2612"
    },
    {
      "channel": 4,
      "note": 97,
      "start": 21.5043,
      "duration": 0.0026,
      "velocity": 99,
      "chip": "ym2612"
    },
    {
      "channel": 0,
      "note": 61,
      "start": 21.5175,
      "duration": 0.0342,
      "velocity": 99,
      "chip": "ym2612"
    },
    {
      "channel": 1,
      "note": 97,
      "start": 21.5183,
      "duration": 0.02,
      "velocity": 100,
      "chip": "ym2612"
    },
    {
      "channel": 2,
      "note": 73,
      "start": 21.5188,
      "duration": 0.0295,
      "velocity": 98,
      "chip": "ym2612"
    },
    {
      "channel": 3,
      "note": 56,
      "start": 21.5199,
      "duration": 0.0287,
      "velocity": 98,
      "chip": "ym2612"
    },
    {
      "channel": 4,
      "note": 97,
      "start": 21.5207,
      "duration": 0.0207,
      "velocity": 99,
      "chip": "ym2612"
    },
    {
      "channel": 0,
      "note": 56,
      "start": 21.5519,
      "duration": 0.0369,
      "velocity": 99,
      "chip": "ym2612"
    },
    {
      "channel": 1,
      "note": 56,
      "start": 21.5543,
      "duration": 0.0216,
      "velocity": 98,
      "chip": "ym2612"
    },
    {
      "channel": 2,
      "note": 63,
      "start": 21.5568,
      "duration": 0.0194,
      "velocity": 98,
      "chip": "ym2612"
    },
    {
      "channel": 0,
      "note": 56,
      "start": 21.5891,
      "duration": 0.0421,
      "velocity": 99,
      "chip": "ym2612"
    },
    {
      "channel": 1,
      "note": 56,
      "start": 21.5913,
      "duration": 0.0268,
      "velocity": 98,
      "chip": "ym2612"
    },
    {
      "channel": 2,
      "note": 63,
      "start": 21.5936,
      "duration": 0.0249,
      "velocity": 98,
      "chip": "ym2612"
    },
    {
      "channel": 3,
      "note": 61,
      "start": 21.5971,
      "duration": 0.0218,
      "velocity": 98,
      "chip": "ym2612"
    },
    {
      "channel": 4,
      "note": 97,
      "start": 21.6008,
      "duration": 0.0212,
      "velocity": 98,
      "chip": "ym2612"
    },
    {
      "channel": 0,
      "note": 56,
      "start": 21.6315,
      "duration": 0.0372,
      "velocity": 99,
      "chip": "ym2612"
    },
    {
      "channel": 1,
      "note": 56,
      "start": 21.6337,
      "duration": 0.0211,
      "velocity": 98,
      "chip": "ym2612"
    },
    {
      "channel": 2,
      "note": 63,
      "start": 21.636,
      "duration": 0.0191,
      "velocity": 98,
      "chip": "ym2612"
    },
    {
      "channel": 3,
      "note": 56,
      "start": 21.6366,
      "duration": 0.0188,
      "velocity": 98,
      "chip": "ym2612"
    },
    {
      "channel": 4,
      "note": 56,
      "start": 21.6374,
      "duration": 0.0209,
      "velocity": 98,
      "chip": "ym2612"
    },
    {
      "channel": 0,
      "note": 56,
      "start": 21.6689,
      "duration": 0.0356,
      "velocity": 99,
      "chip": "ym2612"
    },
    {
      "channel": 1,
      "note": 56,
      "start": 21.6695,
      "duration": 0.0215,
      "velocity": 98,
      "chip": "ym2612"
    },
    {
      "channel": 2,
      "note": 63,
      "start": 21.67,
      "duration": 0.0212,
      "velocity": 98,
      "chip": "ym2612"
    },
    {
      "channel": 3,
      "note": 56,
      "start": 21.6706,
      "duration": 0.0209,
      "velocity": 98,
      "chip": "ym2612"
    },
    {
      "channel": 4,
      "note": 56,
      "start": 21.6714,
      "duration": 0.0229,
      "velocity": 98,
      "chip": "ym2612"
    },
    {
      "channel": 0,
      "note": 56,
      "start": 21.7047,
      "duration": 0.0388,
      "velocity": 99,
      "chip": "ym2612"
    },
    {
      "channel": 1,
      "note": 56,
      "start": 21.707,
      "duration": 0.0229,
      "velocity": 98,
      "chip": "ym2612"
    },
    {
      "channel": 2,
      "note": 63,
      "start": 21.7092,
      "duration": 0.021,
      "velocity": 98,
      "chip": "ym2612"
    },
    {
      "channel": 3,
      "note": 56,
      "start": 21.7098,
      "duration": 0.0206,
      "velocity": 98,
      "chip": "ym2612"
    },
    {
      "channel": 4,
      "note": 56,
      "start": 21.7105,
      "duration": 0.0227,
      "velocity": 98,
      "chip": "ym2612"
    },
    {
      "channel": 0,
      "note": 56,
      "start": 21.7438,
      "duration": 0.0346,
      "velocity": 99,
      "chip": "ym2612"
    },
    {
      "channel": 1,
      "note": 56,
      "start": 21.7443,
      "duration": 0.0215,
      "velocity": 98,
      "chip": "ym2612"
    },
    {
      "channel": 2,
      "note": 63,
      "start": 21.7449,
      "duration": 0.0212,
      "velocity": 98,
      "chip": "ym2612"
    },
    {
      "channel": 3,
      "note": 56,
      "start": 21.7455,
      "duration": 0.0209,
      "velocity": 98,
      "chip": "ym2612"
    },
    {
      "channel": 4,
      "note": 56,
      "start": 21.7461,
      "duration": 0.0232,
      "velocity": 98,
      "chip": "ym2612"
    },
    {
      "channel": 0,
      "note": 56,
      "start": 21.7787,
      "duration": 0.0379,
      "velocity": 99,
      "chip": "ym2612"
    },
    {
      "channel": 1,
      "note": 56,
      "start": 21.7809,
      "duration": 0.0217,
      "velocity": 98,
      "chip": "ym2612"
    },
    {
      "channel": 2,
      "note": 63,
      "start": 21.7832,
      "duration": 0.0197,
      "velocity": 98,
      "chip": "ym2612"
    },
    {
      "channel": 3,
      "note": 56,
      "start": 21.7838,
      "duration": 0.0194,
      "velocity": 98,
      "chip": "ym2612"
    },
    {
      "channel": 4,
      "note": 56,
      "start": 21.7845,
      "duration": 0.0219,
      "velocity": 98,
      "chip": "ym2612"
    },
    {
      "channel": 0,
      "note": 61,
      "start": 21.817,
      "duration": 0.0365,
      "velocity": 99,
      "chip": "ym2612"
    },
    {
      "channel": 1,
      "note": 88,
      "start": 21.8197,
      "duration": 0.0316,
      "velocity": 101,
      "chip": "ym2612"
    },
    {
      "channel": 2,
      "note": 85,
      "start": 21.8228,
      "duration": 0.0287,
      "velocity": 101,
      "chip": "ym2612"
    },
    {
      "channel": 0,
      "note": 61,
      "start": 21.8537,
      "duration": 0.1771,
      "velocity": 99,
      "chip": "ym2612"
    },
    {
      "channel": 3,
      "note": 56,
      "start": 21.8583,
      "duration": 0.1578,
      "velocity": 101,
      "chip": "ym2612"
    },
    {
      "channel": 4,
      "note": 56,
      "start": 21.8617,
      "duration": 0.1077,
      "velocity": 101,
      "chip": "ym2612"
    },
    {
      "channel": 0,
      "note": 61,
      "start": 22.0311,
      "duration": 0.0346,
      "velocity": 99,
      "chip": "ym2612"
    },
    {
      "channel": 1,
      "note": 86,
      "start": 22.0317,
      "duration": 0.0316,
      "velocity": 101,
      "chip": "ym2612"
    },
    {
      "channel": 2,
      "note": 83,
      "start": 22.0327,
      "duration": 0.0309,
      "velocity": 101,
      "chip": "ym2612"
    },
    {
      "channel": 0,
      "note": 61,
      "start": 22.066,
      "duration": 0.0823,
      "velocity": 99,
      "chip": "ym2612"
    },
    {
      "channel": 1,
      "note": 87,
      "start": 22.0666,
      "duration": 0.111,
      "velocity": 101,
      "chip": "ym2612"
    },
    {
      "channel": 2,
      "note": 83,
      "start": 22.0672,
      "duration": 0.111,
      "velocity": 101,
      "chip": "ym2612"
    },
    {
      "channel": 3,
      "note": 88,
      "start": 22.0678,
      "duration": 0.0656,
      "velocity": 101,
      "chip": "ym2612"
    },
    {
      "channel": 4,
      "note": 85,
      "start": 22.0691,
      "duration": 0.0219,
      "velocity": 101,
      "chip": "ym2612"
    },
    {
      "channel": 0,
      "note": 61,
      "start": 22.1486,
      "duration": 0.033,
      "velocity": 99,
      "chip": "ym2612"
    },
    {
      "channel": 3,
      "note": 88,
      "start": 22.1498,
      "duration": 0.0619,
      "velocity": 101,
      "chip": "ym2612"
    },
    {
      "channel": 4,
      "note": 85,
      "start": 22.1505,
      "duration": 0.0539,
      "velocity": 101,
      "chip": "ym2612"
    },
    {
      "channel": 0,
      "note": 61,
      "start": 22.1818,
      "duration": 0.0328,
      "velocity": 99,
      "chip": "ym2612"
    },
    {
      "channel": 1,
      "note": 83,
      "start": 22.1825,
      "duration": 0.0286,
      "velocity": 101,
      "chip": "ym2612"
    },
    {
      "channel": 0,
      "note": 61,
      "start": 22.2149,
      "duration": 0.0331,
      "velocity": 99,
      "chip": "ym2612"
    },
    {
      "channel": 1,
      "note": 85,
      "start": 22.2154,
      "duration": 0.0302,
      "velocity": 101,
      "chip": "ym2612"
    },
    {
      "channel": 3,
      "note": 87,
      "start": 22.2163,
      "duration": 0.0299,
      "velocity": 101,
      "chip": "ym2612"
    },
    {
      "channel": 0,
      "note": 61,
      "start": 22.2483,
      "duration": 0.0846,
      "velocity": 99,
      "chip": "ym2612"
    },
    {
      "channel": 1,
      "note": 80,
      "start": 22.2488,
      "duration": 0.0687,
      "velocity": 101,
      "chip": "ym2612"
    },
    {
      "channel": 3,
      "note": 83,
      "start": 22.2497,
      "duration": 0.0684,
      "velocity": 101,
      "chip": "ym2612"
    },
    {
      "channel": 0,
      "note": 59,
      "start": 22.3331,
      "duration": 0.0333,
      "velocity": 99,
      "chip": "ym2612"
    },
    {
      "channel": 1,
      "note": 88,
      "start": 22.3337,
      "duration": 0.03,
      "velocity": 101,
      "chip": "ym2612"
    },
    {
      "channel": 2,
      "note": 85,
      "start": 22.3342,
      "duration": 0.0297,
      "velocity": 101,
      "chip": "ym2612"
    },
    {
      "channel": 3,
      "note": 85,
      "start": 22.3348,
      "duration": 0.0294,
      "velocity": 101,
      "chip": "ym2612"
    },
    {
      "channel": 0,
      "note": 59,
      "start": 22.3667,
      "duration": 0.1816,
      "velocity": 99,
      "chip": "ym2612"
    },
    {
      "channel": 3,
      "note": 80,
      "start": 22.368,
      "duration": 0.1655,
      "velocity": 101,
      "chip": "ym2612"
    },
    {
      "channel": 4,
      "note": 83,
      "start": 22.3688,
      "duration": 0.118,
      "velocity": 101,
      "chip": "ym2612"
    },
    {
      "channel": 0,
      "note": 59,
      "start": 22.5485,
      "duration": 0.033,
      "velocity": 99,
      "chip": "ym2612"
    },
    {
      "channel": 1,
      "note": 88,
      "start": 22.549,
      "duration": 0.03,
      "velocity": 101,
      "chip": "ym2612"
    },
    {
      "channel": 2,
      "note": 85,
      "start": 22.5496,
      "duration": 0.0298,
      "velocity": 101,
      "chip": "ym2612"
    },
    {
      "channel": 0,
      "note": 59,
      "start": 22.5817,
      "duration": 0.0848,
      "velocity": 99,
      "chip": "ym2612"
    },
    {
      "channel": 1,
      "note": 87,
      "start": 22.5823,
      "duration": 0.1143,
      "velocity": 101,
      "chip": "ym2612"
    },
    {
      "channel": 2,
      "note": 83,
      "start": 22.5828,
      "duration": 0.114,
      "velocity": 101,
      "chip": "ym2612"
    },
    {
      "channel": 3,
      "note": 88,
      "start": 22.5834,
      "duration": 0.0683,
      "velocity": 101,
      "chip": "ym2612"
    },
    {
      "channel": 4,
      "note": 85,
      "start": 22.5841,
      "duration": 0.021,
      "velocity": 101,
      "chip": "ym2612"
    },
    {
      "channel": 0,
      "note": 59,
      "start": 22.6668,
      "duration": 0.0339,
      "velocity": 99,
      "chip": "ym2612"
    },
    {
      "channel": 3,
      "note": 88,
      "start": 22.6679,
      "duration": 0.0618,
      "velocity": 101,
      "chip": "ym2612"
    },
    {
      "channel": 4,
      "note": 85,
      "start": 22.6685,
      "duration": 0.0541,
      "velocity": 101,
      "chip": "ym2612"
    },
    {
      "channel": 0,
      "note": 59,
      "start": 22.7009,
      "duration": 0.0313,
      "velocity": 99,
      "chip": "ym2612"
    },
    {
      "channel": 1,
      "note": 83,
      "start": 22.7015,
      "duration": 0.0277,
      "velocity": 101,
      "chip": "ym2612"
    },
    {
      "channel": 0,
      "note": 59,
      "start": 22.7325,
      "duration": 0.0326,
      "velocity": 99,
      "chip": "ym2612"
    },
    {
      "channel": 1,
      "note": 85,
      "start": 22.7333,
      "duration": 0.0294,
      "velocity": 101,
      "chip": "ym2612"
    },
    {
      "channel": 3,
      "note": 87,
      "start": 22.7342,
      "duration": 0.0291,
      "velocity": 101,
      "chip": "ym2612"
    },
    {
      "channel": 0,
      "note": 59,
      "start": 22.7653,
      "duration": 0.0852,
      "velocity": 99,
      "chip": "ym2612"
    },
    {
      "channel": 1,
      "note": 80,
      "start": 22.7658,
      "duration": 0.0694,
      "velocity": 101,
      "chip": "ym2612"
    },
    {
      "channel": 3,
      "note": 83,
      "start": 22.7667,
      "duration": 0.0691,
      "velocity": 101,
      "chip": "ym2612"
    },
    {
      "channel": 0,
      "note": 57,
      "start": 22.8508,
      "duration": 0.0335,
      "velocity": 99,
      "chip": "ym2612"
    },
    {
      "channel": 1,
      "note": 88,
      "start": 22.8513,
      "duration": 0.0305,
      "velocity": 101,
      "chip": "ym2612"
    },
    {
      "channel": 2,
      "note": 85,
      "start": 22.8519,
      "duration": 0.0303,
      "velocity": 101,
      "chip": "ym2612"
    },
    {
      "channel": 3,
      "note": 85,
      "start": 22.8525,
      "duration": 0.03,
      "velocity": 101,
      "chip": "ym2612"
    },
    {
      "channel": 0,
      "note": 57,
      "start": 22.8845,
      "duration": 0.1811,
      "velocity": 99,
      "chip": "ym2612"
    },
    {
      "channel": 3,
      "note": 80,
      "start": 22.8859,
      "duration": 0.1653,
      "velocity": 101,
      "chip": "ym2612"
    },
    {
      "channel": 4,
      "note": 83,
      "start": 22.8865,
      "duration": 0.1177,
      "velocity": 101,
      "chip": "ym2612"
    },
    {
      "channel": 0,
      "note": 57,
      "start": 23.0659,
      "duration": 0.0318,
      "velocity": 99,
      "chip": "ym2612"
    },
    {
      "channel": 1,
      "note": 88,
      "start": 23.0665,
      "duration": 0.0288,
      "velocity": 101,
      "chip": "ym2612"
    },
    {
      "channel": 2,
      "note": 85,
      "start": 23.0671,
      "duration": 0.0285,
      "velocity": 101,
      "chip": "ym2612"
    },
    {
      "channel": 0,
      "note": 57,
      "start": 23.0979,
      "duration": 0.0854,
      "velocity": 99,
      "chip": "ym2612"
    },
    {
      "channel": 1,
      "note": 87,
      "start": 23.0985,
      "duration": 0.1152,
      "velocity": 101,
      "chip": "ym2612"
    },
    {
      "channel": 2,
      "note": 83,
      "start": 23.099,
      "duration": 0.115,
      "velocity": 101,
      "chip": "ym2612"
    },
    {
      "channel": 3,
      "note": 88,
      "start": 23.0996,
      "duration": 0.0688,
      "velocity": 101,
      "chip": "ym2612"
    },
    {
      "channel": 4,
      "note": 85,
      "start": 23.1003,
      "duration": 0.0216,
      "velocity": 101,
      "chip": "ym2612"
    },
    {
      "channel": 0,
      "note": 57,
      "start": 23.1835,
      "duration": 0.0339,
      "velocity": 99,
      "chip": "ym2612"
    },
    {
      "channel": 3,
      "note": 88,
      "start": 23.1846,
      "duration": 0.0626,
      "velocity": 101,
      "chip": "ym2612"
    },
    {
      "channel": 4,
      "note": 85,
      "start": 23.1853,
      "duration": 0.0544,
      "velocity": 101,
      "chip": "ym2612"
    },
    {
      "channel": 0,
      "note": 57,
      "start": 23.2177,
      "duration": 0.0317,
      "velocity": 99,
      "chip": "ym2612"
    },
    {
      "channel": 1,
      "note": 83,
      "start": 23.2182,
      "duration": 0.0284,
      "velocity": 101,
      "chip": "ym2612"
    },
    {
      "channel": 0,
      "note": 57,
      "start": 23.2496,
      "duration": 0.0323,
      "velocity": 99,
      "chip": "ym2612"
    },
    {
      "channel": 1,
      "note": 80,
      "start": 23.2502,
      "duration": 0.014,
      "velocity": 101,
      "chip": "ym2612"
    },
    {
      "channel": 3,
      "note": 87,
      "start": 23.251,
      "duration": 0.0291,
      "velocity": 101,
      "chip": "ym2612"
    },
    {
      "channel": 1,
      "note": 78,
      "start": 23.267,
      "duration": 0.0125,
      "velocity": 101,
      "chip": "ym2612"
    },
    {
      "channel": 0,
      "note": 57,
      "start": 23.2822,
      "duration": 0.084,
      "velocity": 99,
      "chip": "ym2612"
    },
    {
      "channel": 1,
      "note": 80,
      "start": 23.2827,
      "duration": 0.4797,
      "velocity": 101,
      "chip": "ym2612"
    },
    {
      "channel": 3,
      "note": 83,
      "start": 23.2836,
      "duration": 0.0141,
      "velocity": 101,
      "chip": "ym2612"
    },
    {
      "channel": 3,
      "note": 80,
      "start": 23.3005,
      "duration": 0.0509,
      "velocity": 101,
      "chip": "ym2612"
    },
    {
      "channel": 0,
      "note": 56,
      "start": 23.3664,
      "duration": 0.0322,
      "velocity": 99,
      "chip": "ym2612"
    },
    {
      "channel": 3,
      "note": 78,
      "start": 23.3676,
      "duration": 0.4286,
      "velocity": 101,
      "chip": "ym2612"
    },
    {
      "channel": 0,
      "note": 56,
      "start": 23.3988,
      "duration": 0.1823,
      "velocity": 99,
      "chip": "ym2612"
    },
    {
      "channel": 0,
      "note": 56,
      "start": 23.5814,
      "duration": 0.0337,
      "velocity": 99,
      "chip": "ym2612"
    },
    {
      "channel": 2,
      "note": 80,
      "start": 23.5841,
      "duration": 0.0835,
      "velocity": 95,
      "chip": "ym2612"
    },
    {
      "channel": 0,
      "note": 56,
      "start": 23.6157,
      "duration": 0.0826,
      "velocity": 99,
      "chip": "ym2612"
    },
    {
      "channel": 4,
      "note": 83,
      "start": 23.6198,
      "duration": 0.1017,
      "velocity": 95,
      "chip": "ym2612"
    },
    {
      "channel": 0,
      "note": 56,
      "start": 23.6985,
      "duration": 0.0335,
      "velocity": 99,
      "chip": "ym2612"
    },
    {
      "channel": 2,
      "note": 78,
      "start": 23.6993,
      "duration": 0.0606,
      "velocity": 95,
      "chip": "ym2612"
    },
    {
      "channel": 0,
      "note": 56,
      "start": 23.7323,
      "duration": 0.0339,
      "velocity": 99,
      "chip": "ym2612"
    },
    {
      "channel": 4,
      "note": 80,
      "start": 23.7337,
      "duration": 0.0551,
      "velocity": 95,
      "chip": "ym2612"
    },
    {
      "channel": 0,
      "note": 56,
      "start": 23.7664,
      "duration": 0.0316,
      "velocity": 99,
      "chip": "ym2612"
    },
    {
      "channel": 2,
      "note": 75,
      "start": 23.7673,
      "duration": 0.0851,
      "velocity": 95,
      "chip": "ym2612"
    },
    {
      "channel": 0,
      "note": 56,
      "start": 23.7983,
      "duration": 0.0849,
      "velocity": 99,
      "chip": "ym2612"
    },
    {
      "channel": 4,
      "note": 78,
      "start": 23.8003,
      "duration": 0.1062,
      "velocity": 95,
      "chip": "ym2612"
    },
    {
      "channel": 0,
      "note": 57,
      "start": 23.8834,
      "duration": 0.0321,
      "velocity": 99,
      "chip": "ym2612"
    },
    {
      "channel": 1,
      "note": 81,
      "start": 23.8839,
      "duration": 0.1993,
      "velocity": 101,
      "chip": "ym2612"
    },
    {
      "channel": 2,
      "note": 76,
      "start": 23.8846,
      "duration": 0.5014,
      "velocity": 95,
      "chip": "ym2612"
    },
    {
      "channel": 0,
      "note": 57,
      "start": 23.9157,
      "duration": 0.1829,
      "velocity": 99,
      "chip": "ym2612"
    },
    {
      "channel": 3,
      "note": 80,
      "start": 23.9168,
      "duration": 0.212,
      "velocity": 101,
      "chip": "ym2612"
    },
    {
      "channel": 4,
      "note": 75,
      "start": 23.9175,
      "duration": 0.5077,
      "velocity": 95,
      "chip": "ym2612"
    },
    {
      "channel": 0,
      "note": 57,
      "start": 24.0988,
      "duration": 0.0321,
      "velocity": 99,
      "chip": "ym2612"
    },
    {
      "channel": 1,
      "note": 85,
      "start": 24.0994,
      "duration": 0.1009,
      "velocity": 101,
      "chip": "ym2612"
    },
    {
      "channel": 0,
      "note": 57,
      "start": 24.1312,
      "duration": 0.0845,
      "velocity": 99,
      "chip": "ym2612"
    },
    {
      "channel": 3,
      "note": 81,
      "start": 24.1323,
      "duration": 0.1146,
      "velocity": 101,
      "chip": "ym2612"
    },
    {
      "channel": 0,
      "note": 57,
      "start": 24.2159,
      "duration": 0.0339,
      "velocity": 99,
      "chip": "ym2612"
    },
    {
      "channel": 1,
      "note": 88,
      "start": 24.2164,
      "duration": 0.0642,
      "velocity": 101,
      "chip": "ym2612"
    },
    {
      "channel": 0,
      "note": 57,
      "start": 24.25,
      "duration": 0.0339,
      "velocity": 99,
      "chip": "ym2612"
    },
    {
      "channel": 3,
      "note": 85,
      "start": 24.2511,
      "duration": 0.0646,
      "velocity": 101,
      "chip": "ym2612"
    },
    {
      "channel": 0,
      "note": 57,
      "start": 24.2841,
      "duration": 0.0339,
      "velocity": 99,
      "chip": "ym2612"
    },
    {
      "channel": 1,
      "note": 92,
      "start": 24.2847,
      "duration": 0.0304,
      "velocity": 101,
      "chip": "ym2612"
    },
    {
      "channel": 0,
      "note": 57,
      "start": 24.3183,
      "duration": 0.0829,
      "velocity": 99,
      "chip": "ym2612"
    },
    {
      "channel": 1,
      "note": 90,
      "start": 24.3188,
      "duration": 0.2822,
      "velocity": 101,
      "chip": "ym2612"
    },
    {
      "channel": 3,
      "note": 88,
      "start": 24.3197,
      "duration": 0.0667,
      "velocity": 101,
      "chip": "ym2612"
    },
    {
      "channel": 0,
      "note": 59,
      "start": 24.4018,
      "duration": 0.0324,
      "velocity": 99,
      "chip": "ym2612"
    },
    {
      "channel": 2,
      "note": 75,
      "start": 24.4025,
      "duration": 0.5,
      "velocity": 95,
      "chip": "ym2612"
    },
    {
      "channel": 3,
      "note": 92,
      "start": 24.4032,
      "duration": 0.2445,
      "velocity": 101,
      "chip": "ym2612"
    },
    {
      "channel": 0,
      "note": 59,
      "start": 24.4345,
      "duration": 0.1819,
      "velocity": 99,
      "chip": "ym2612"
    },
    {
      "channel": 4,
      "note": 76,
      "start": 24.4359,
      "duration": 0.5083,
      "velocity": 95,
      "chip": "ym2612"
    },
    {
      "channel": 0,
      "note": 59,
      "start": 24.6166,
      "duration": 0.033,
      "velocity": 99,
      "chip": "ym2612"
    },
    {
      "channel": 1,
      "note": 87,
      "start": 24.6171,
      "duration": 0.1012,
      "velocity": 101,
      "chip": "ym2612"
    },
    {
      "channel": 0,
      "note": 59,
      "start": 24.6498,
      "duration": 0.0837,
      "velocity": 99,
      "chip": "ym2612"
    },
    {
      "channel": 3,
      "note": 90,
      "start": 24.6509,
      "duration": 0.1136,
      "velocity": 101,
      "chip": "ym2612"
    },
    {
      "channel": 0,
      "note": 59,
      "start": 24.7338,
      "duration": 0.0331,
      "velocity": 99,
      "chip": "ym2612"
    },
    {
      "channel": 1,
      "note": 85,
      "start": 24.7343,
      "duration": 0.0632,
      "velocity": 101,
      "chip": "ym2612"
    },
    {
      "channel": 0,
      "note": 59,
      "start": 24.7672,
      "duration": 0.0336,
      "velocity": 99,
      "chip": "ym2612"
    },
    {
      "channel": 3,
      "note": 87,
      "start": 24.7683,
      "duration": 0.0643,
      "velocity": 101,
      "chip": "ym2612"
    },
    {
      "channel": 0,
      "note": 59,
      "start": 24.801,
      "duration": 0.0335,
      "velocity": 99,
      "chip": "ym2612"
    },
    {
      "channel": 1,
      "note": 83,
      "start": 24.8015,
      "duration": 0.1007,
      "velocity": 101,
      "chip": "ym2612"
    },
    {
      "channel": 0,
      "note": 59,
      "start": 24.8347,
      "duration": 0.0828,
      "velocity": 99,
      "chip": "ym2612"
    },
    {
      "channel": 3,
      "note": 85,
      "start": 24.8359,
      "duration": 0.1158,
      "velocity": 101,
      "chip": "ym2612"
    },
    {
      "channel": 0,
      "note": 57,
      "start": 24.9178,
      "duration": 0.0358,
      "velocity": 99,
      "chip": "ym2612"
    },
    {
      "channel": 1,
      "note": 81,
      "start": 24.9183,
      "duration": 0.1018,
      "velocity": 101,
      "chip": "ym2612"
    },
    {
      "channel": 2,
      "note": 73,
      "start": 24.9212,
      "duration": 0.0993,
      "velocity": 101,
      "chip": "ym2612"
    },
    {
      "channel": 0,
      "note": 57,
      "start": 24.9538,
      "duration": 0.0354,
      "velocity": 99,
      "chip": "ym2612"
    },
    {
      "channel": 3,
      "note": 83,
      "start": 24.9549,
      "duration": 0.0988,
      "velocity": 101,
      "chip": "ym2612"
    },
    {
      "channel": 4,
      "note": 75,
      "start": 24.9583,
      "duration": 0.0874,
      "velocity": 101,
      "chip": "ym2612"
    },
    {
      "channel": 0,
      "note": 57,
      "start": 24.9895,
      "duration": 0.0335,
      "velocity": 99,
      "chip": "ym2612"
    },
    {
      "channel": 0,
      "note": 56,
      "start": 25.0233,
      "duration": 0.034,
      "velocity": 99,
      "chip": "ym2612"
    },
    {
      "channel": 1,
      "note": 83,
      "start": 25.0238,
      "duration": 0.0975,
      "velocity": 101,
      "chip": "ym2612"
    },
    {
      "channel": 2,
      "note": 75,
      "start": 25.0243,
      "duration": 0.0972,
      "velocity": 101,
      "chip": "ym2612"
    },
    {
      "channel": 0,
      "note": 56,
      "start": 25.0575,
      "duration": 0.0334,
      "velocity": 99,
      "chip": "ym2612"
    },
    {
      "channel": 3,
      "note": 81,
      "start": 25.0586,
      "duration": 0.0972,
      "velocity": 101,
      "chip": "ym2612"
    },
    {
      "channel": 4,
      "note": 73,
      "start": 25.0593,
      "duration": 0.0891,
      "velocity": 101,
      "chip": "ym2612"
    },
    {
      "channel": 0,
      "note": 56,
      "start": 25.0911,
      "duration": 0.0334,
      "velocity": 99,
      "chip": "ym2612"
    },
    {
      "channel": 0,
      "note": 54,
      "start": 25.1247,
      "duration": 0.0338,
      "velocity": 99,
      "chip": "ym2612"
    },
    {
      "channel": 1,
      "note": 85,
      "start": 25.1253,
      "duration": 0.0963,
      "velocity": 101,
      "chip": "ym2612"
    },
    {
      "channel": 2,
      "note": 76,
      "start": 25.1258,
      "duration": 0.0961,
      "velocity": 101,
      "chip": "ym2612"
    },
    {
      "channel": 0,
      "note": 54,
      "start": 25.1588,
      "duration": 0.0336,
      "velocity": 99,
      "chip": "ym2612"
    },
    {
      "channel": 3,
      "note": 83,
      "start": 25.1598,
      "duration": 0.0952,
      "velocity": 101,
      "chip": "ym2612"
    },
    {
      "channel": 4,
      "note": 75,
      "start": 25.1605,
      "duration": 0.0872,
      "velocity": 101,
      "chip": "ym2612"
    },
    {
      "channel": 0,
      "note": 54,
      "start": 25.1926,
      "duration": 0.0314,
      "velocity": 99,
      "chip": "ym2612"
    },
    {
      "channel": 0,
      "note": 56,
      "start": 25.2244,
      "duration": 0.0326,
      "velocity": 99,
      "chip": "ym2612"
    },
    {
      "channel": 1,
      "note": 87,
      "start": 25.2249,
      "duration": 0.0975,
      "velocity": 101,
      "chip": "ym2612"
    },
    {
      "channel": 2,
      "note": 78,
      "start": 25.2258,
      "duration": 0.097,
      "velocity": 101,
      "chip": "ym2612"
    },
    {
      "channel": 0,
      "note": 56,
      "start": 25.2573,
      "duration": 0.0345,
      "velocity": 99,
      "chip": "ym2612"
    },
    {
      "channel": 3,
      "note": 85,
      "start": 25.2583,
      "duration": 0.0981,
      "velocity": 101,
      "chip": "ym2612"
    },
    {
      "channel": 4,
      "note": 76,
      "start": 25.259,
      "duration": 0.0898,
      "velocity": 101,
      "chip": "ym2612"
    },
    {
      "channel": 0,
      "note": 56,
      "start": 25.292,
      "duration": 0.0341,
      "velocity": 99,
      "chip": "ym2612"
    },
    {
      "channel": 0,
      "note": 57,
      "start": 25.3263,
      "duration": 0.0334,
      "velocity": 99,
      "chip": "ym2612"
    },
    {
      "channel": 1,
      "note": 88,
      "start": 25.3269,
      "duration": 0.0633,
      "velocity": 101,
      "chip": "ym2612"
    },
    {
      "channel": 2,
      "note": 80,
      "start": 25.3274,
      "duration": 0.0525,
      "velocity": 101,
      "chip": "ym2612"
    },
    {
      "channel": 0,
      "note": 57,
      "start": 25.36,
      "duration": 0.0329,
      "velocity": 99,
      "chip": "ym2612"
    },
    {
      "channel": 3,
      "note": 87,
      "start": 25.3612,
      "duration": 0.0633,
      "velocity": 101,
      "chip": "ym2612"
    },
    {
      "channel": 4,
      "note": 78,
      "start": 25.3618,
      "duration": 0.0441,
      "velocity": 101,
      "chip": "ym2612"
    },
    {
      "channel": 2,
      "note": 81,
      "start": 25.3827,
      "duration": 0.0746,
      "velocity": 101,
      "chip": "ym2612"
    },
    {
      "channel": 0,
      "note": 56,
      "start": 25.3932,
      "duration": 0.0336,
      "velocity": 99,
      "chip": "ym2612"
    },
    {
      "channel": 1,
      "note": 90,
      "start": 25.3937,
      "duration": 0.0633,
      "velocity": 101,
      "chip": "ym2612"
    },
    {
      "channel": 4,
      "note": 80,
      "start": 25.417,
      "duration": 0.0663,
      "velocity": 101,
      "chip": "ym2612"
    },
    {
      "channel": 0,
      "note": 56,
      "start": 25.427,
      "duration": 0.0341,
      "velocity": 99,
      "chip": "ym2612"
    },
    {
      "channel": 3,
      "note": 88,
      "start": 25.4281,
      "duration": 0.0629,
      "velocity": 101,
      "chip": "ym2612"
    },
    {
      "channel": 0,
      "note": 61,
      "start": 25.4613,
      "duration": 0.032,
      "velocity": 99,
      "chip": "ym2612"
    },
    {
      "channel": 1,
      "note": 88,
      "start": 25.4619,
      "duration": 0.0286,
      "velocity": 101,
      "chip": "ym2612"
    },
    {
      "channel": 2,
      "note": 85,
      "start": 25.4624,
      "duration": 0.0283,
      "velocity": 101,
      "chip": "ym2612"
    },
    {
      "channel": 0,
      "note": 61,
      "start": 25.4936,
      "duration": 0.1831,
      "velocity": 99,
      "chip": "ym2612"
    },
    {
      "channel": 3,
      "note": 90,
      "start": 25.4949,
      "duration": 0.1667,
      "velocity": 101,
      "chip": "ym2612"
    },
    {
      "channel": 4,
      "note": 83,
      "start": 25.4957,
      "duration": 0.1192,
      "velocity": 101,
      "chip": "ym2612"
    },
    {
      "channel": 0,
      "note": 61,
      "start": 25.6769,
      "duration": 0.0343,
      "velocity": 99,
      "chip": "ym2612"
    },
    {
      "channel": 1,
      "note": 86,
      "start": 25.6774,
      "duration": 0.0313,
      "velocity": 101,
      "chip": "ym2612"
    },
    {
      "channel": 2,
      "note": 83,
      "start": 25.6785,
      "duration": 0.0305,
      "velocity": 101,
      "chip": "ym2612"
    },
    {
      "channel": 0,
      "note": 61,
      "start": 25.7115,
      "duration": 0.0825,
      "velocity": 99,
      "chip": "ym2612"
    },
    {
      "channel": 1,
      "note": 87,
      "start": 25.7121,
      "duration": 0.112,
      "velocity": 101,
      "chip": "ym2612"
    },
    {
      "channel": 2,
      "note": 83,
      "start": 25.7127,
      "duration": 0.1116,
      "velocity": 101,
      "chip": "ym2612"
    },
    {
      "channel": 3,
      "note": 88,
      "start": 25.7133,
      "duration": 0.0658,
      "velocity": 101,
      "chip": "ym2612"
    },
    {
      "channel": 4,
      "note": 85,
      "start": 25.7146,
      "duration": 0.0222,
      "velocity": 101,
      "chip": "ym2612"
    },
    {
      "channel": 0,
      "note": 61,
      "start": 25.7943,
      "duration": 0.0335,
      "velocity": 99,
      "chip": "ym2612"
    },
    {
      "channel": 3,
      "note": 88,
      "start": 25.7954,
      "duration": 0.0621,
      "velocity": 101,
      "chip": "ym2612"
    },
    {
      "channel": 4,
      "note": 85,
      "start": 25.7962,
      "duration": 0.0538,
      "velocity": 101,
      "chip": "ym2612"
    },
    {
      "channel": 0,
      "note": 61,
      "start": 25.828,
      "duration": 0.0315,
      "velocity": 99,
      "chip": "ym2612"
    },
    {
      "channel": 1,
      "note": 83,
      "start": 25.8285,
      "duration": 0.0284,
      "velocity": 101,
      "chip": "ym2612"
    },
    {
      "channel": 0,
      "note": 61,
      "start": 25.8598,
      "duration": 0.0323,
      "velocity": 99,
      "chip": "ym2612"
    },
    {
      "channel": 1,
      "note": 85,
      "start": 25.8603,
      "duration": 0.0293,
      "velocity": 101,
      "chip": "ym2612"
    },
    {
      "channel": 3,
      "note": 87,
      "start": 25.8614,
      "duration": 0.0288,
      "velocity": 101,
      "chip": "ym2612"
    },
    {
      "channel": 0,
      "note": 61,
      "start": 25.8923,
      "duration": 0.0847,
      "velocity": 99,
      "chip": "ym2612"
    },
    {
      "channel": 1,
      "note": 80,
      "start": 25.8928,
      "duration": 0.0688,
      "velocity": 101,
      "chip": "ym2612"
    },
    {
      "channel": 3,
      "note": 83,
      "start": 25.8937,
      "duration": 0.0685,
      "velocity": 101,
      "chip": "ym2612"
    },
    {
      "channel": 0,
      "note": 59,
      "start": 25.9772,
      "duration": 0.0333,
      "velocity": 99,
      "chip": "ym2612"
    },
    {
      "channel": 1,
      "note": 88,
      "start": 25.9777,
      "duration": 0.0302,
      "velocity": 101,
      "chip": "ym2612"
    },
    {
      "channel": 2,
      "note": 85,
      "start": 25.9783,
      "duration": 0.03,
      "velocity": 101,
      "chip": "ym2612"
    },
    {
      "channel": 3,
      "note": 85,
      "start": 25.9789,
      "duration": 0.0296,
      "velocity": 101,
      "chip": "ym2612"
    },
    {
      "channel": 0,
      "note": 59,
      "start": 26.0108,
      "duration": 0.181,
      "velocity": 99,
      "chip": "ym2612"
    },
    {
      "channel": 3,
      "note": 80,
      "start": 26.0121,
      "duration": 0.165,
      "velocity": 101,
      "chip": "ym2612"
    },
    {
      "channel": 4,
      "note": 83,
      "start": 26.0127,
      "duration": 0.1176,
      "velocity": 101,
      "chip": "ym2612"
    },
    {
      "channel": 0,
      "note": 59,
      "start": 26.192,
      "duration": 0.0321,
      "velocity": 99,
      "chip": "ym2612"
    },
    {
      "channel": 1,
      "note": 88,
      "start": 26.1926,
      "duration": 0.0292,
      "velocity": 101,
      "chip": "ym2612"
    },
    {
      "channel": 2,
      "note": 85,
      "start": 26.1932,
      "duration": 0.0288,
      "velocity": 101,
      "chip": "ym2612"
    },
    {
      "channel": 0,
      "note": 59,
      "start": 26.2243,
      "duration": 0.0846,
      "velocity": 99,
      "chip": "ym2612"
    },
    {
      "channel": 1,
      "note": 87,
      "start": 26.2249,
      "duration": 0.114,
      "velocity": 101,
      "chip": "ym2612"
    },
    {
      "channel": 2,
      "note": 83,
      "start": 26.2254,
      "duration": 0.1138,
      "velocity": 101,
      "chip": "ym2612"
    },
    {
      "channel": 3,
      "note": 88,
      "start": 26.226,
      "duration": 0.068,
      "velocity": 101,
      "chip": "ym2612"
    },
    {
      "channel": 4,
      "note": 85,
      "start": 26.2267,
      "duration": 0.0208,
      "velocity": 101,
      "chip": "ym2612"
    },
    {
      "channel": 0,
      "note": 59,
      "start": 26.3092,
      "duration": 0.0321,
      "velocity": 99,
      "chip": "ym2612"
    },
    {
      "channel": 3,
      "note": 88,
      "start": 26.3103,
      "duration": 0.0608,
      "velocity": 101,
      "chip": "ym2612"
    },
    {
      "channel": 4,
      "note": 85,
      "start": 26.3109,
      "duration": 0.0524,
      "velocity": 101,
      "chip": "ym2612"
    },
    {
      "channel": 0,
      "note": 59,
      "start": 26.3415,
      "duration": 0.0322,
      "velocity": 99,
      "chip": "ym2612"
    },
    {
      "channel": 1,
      "note": 83,
      "start": 26.342,
      "duration": 0.0285,
      "velocity": 101,
      "chip": "ym2612"
    },
    {
      "channel": 0,
      "note": 59,
      "start": 26.374,
      "duration": 0.0316,
      "velocity": 99,
      "chip": "ym2612"
    },
    {
      "channel": 1,
      "note": 85,
      "start": 26.3745,
      "duration": 0.0286,
      "velocity": 101,
      "chip": "ym2612"
    },
    {
      "channel": 3,
      "note": 87,
      "start": 26.3754,
      "duration": 0.0283,
      "velocity": 101,
      "chip": "ym2612"
    },
    {
      "channel": 0,
      "note": 59,
      "start": 26.4059,
      "duration": 0.0849,
      "velocity": 99,
      "chip": "ym2612"
    },
    {
      "channel": 1,
      "note": 80,
      "start": 26.4064,
      "duration": 0.069,
      "velocity": 101,
      "chip": "ym2612"
    },
    {
      "channel": 3,
      "note": 83,
      "start": 26.4073,
      "duration": 0.0687,
      "velocity": 101,
      "chip": "ym2612"
    },
    {
      "channel": 0,
      "note": 57,
      "start": 26.491,
      "duration": 0.0329,
      "velocity": 99,
      "chip": "ym2612"
    },
    {
      "channel": 1,
      "note": 88,
      "start": 26.4915,
      "duration": 0.0299,
      "velocity": 101,
      "chip": "ym2612"
    },
    {
      "channel": 2,
      "note": 85,
      "start": 26.4921,
      "duration": 0.0297,
      "velocity": 101,
      "chip": "ym2612"
    },
    {
      "channel": 3,
      "note": 85,
      "start": 26.4927,
      "duration": 0.0293,
      "velocity": 101,
      "chip": "ym2612"
    },
    {
      "channel": 0,
      "note": 57,
      "start": 26.5242,
      "duration": 0.1818,
      "velocity": 99,
      "chip": "ym2612"
    },
    {
      "channel": 3,
      "note": 80,
      "start": 26.5255,
      "duration": 0.1656,
      "velocity": 101,
      "chip": "ym2612"
    },
    {
      "channel": 4,
      "note": 83,
      "start": 26.5262,
      "duration": 0.1186,
      "velocity": 101,
      "chip": "ym2612"
    },
    {
      "channel": 0,
      "note": 57,
      "start": 26.7062,
      "duration": 0.0324,
      "velocity": 99,
      "chip": "ym2612"
    },
    {
      "channel": 1,
      "note": 88,
      "start": 26.7067,
      "duration": 0.0294,
      "velocity": 101,
      "chip": "ym2612"
    },
    {
      "channel": 2,
      "note": 85,
      "start": 26.7073,
      "duration": 0.0291,
      "velocity": 101,
      "chip": "ym2612"
    },
    {
      "channel": 0,
      "note": 57,
      "start": 26.7389,
      "duration": 0.084,
      "velocity": 99,
      "chip": "ym2612"
    },
    {
      "channel": 1,
      "note": 87,
      "start": 26.7397,
      "duration": 0.1135,
      "velocity": 101,
      "chip": "ym2612"
    },
    {
      "channel": 2,
      "note": 83,
      "start": 26.7402,
      "duration": 0.1132,
      "velocity": 101,
      "chip": "ym2612"
    },
    {
      "channel": 3,
      "note": 88,
      "start": 26.7409,
      "duration": 0.0671,
      "velocity": 101,
      "chip": "ym2612"
    },
    {
      "channel": 4,
      "note": 85,
      "start": 26.7415,
      "duration": 0.0206,
      "velocity": 101,
      "chip": "ym2612"
    },
    {
      "channel": 0,
      "note": 57,
      "start": 26.8231,
      "duration": 0.0338,
      "velocity": 99,
      "chip": "ym2612"
    },
    {
      "channel": 3,
      "note": 88,
      "start": 26.8242,
      "duration": 0.063,
      "velocity": 101,
      "chip": "ym2612"
    },
    {
      "channel": 4,
      "note": 85,
      "start": 26.8249,
      "duration": 0.0547,
      "velocity": 101,
      "chip": "ym2612"
    },
    {
      "channel": 0,
      "note": 57,
      "start": 26.8571,
      "duration": 0.032,
      "velocity": 99,
      "chip": "ym2612"
    },
    {
      "channel": 1,
      "note": 83,
      "start": 26.8577,
      "duration": 0.029,
      "velocity": 101,
      "chip": "ym2612"
    },
    {
      "channel": 0,
      "note": 57,
      "start": 26.8894,
      "duration": 0.0326,
      "velocity": 99,
      "chip": "ym2612"
    },
    {
      "channel": 1,
      "note": 80,
      "start": 26.8899,
      "duration": 0.0135,
      "velocity": 101,
      "chip": "ym2612"
    },
    {
      "channel": 3,
      "note": 87,
      "start": 26.8908,
      "duration": 0.029,
      "velocity": 101,
      "chip": "ym2612"
    },
    {
      "channel": 1,
      "note": 78,
      "start": 26.9063,
      "duration": 0.0129,
      "velocity": 101,
      "chip": "ym2612"
    },
    {
      "channel": 0,
      "note": 57,
      "start": 26.9222,
      "duration": 0.0833,
      "velocity": 99,
      "chip": "ym2612"
    },
    {
      "channel": 1,
      "note": 80,
      "start": 26.9228,
      "duration": 0.4802,
      "velocity": 101,
      "chip": "ym2612"
    },
    {
      "channel": 3,
      "note": 83,
      "start": 26.9238,
      "duration": 0.0131,
      "velocity": 101,
      "chip": "ym2612"
    },
    {
      "channel": 3,
      "note": 80,
      "start": 26.9398,
      "duration": 0.0509,
      "velocity": 101,
      "chip": "ym2612"
    },
    {
      "channel": 0,
      "note": 56,
      "start": 27.0058,
      "duration": 0.0331,
      "velocity": 99,
      "chip": "ym2612"
    },
    {
      "channel": 3,
      "note": 78,
      "start": 27.007,
      "duration": 0.4306,
      "velocity": 101,
      "chip": "ym2612"
    },
    {
      "channel": 0,
      "note": 56,
      "start": 27.0391,
      "duration": 0.1818,
      "velocity": 99,
      "chip": "ym2612"
    },
    {
      "channel": 0,
      "note": 56,
      "start": 27.2211,
      "duration": 0.0347,
      "velocity": 99,
      "chip": "ym2612"
    },
    {
      "channel": 2,
      "note": 80,
      "start": 27.2238,
      "duration": 0.0833,
      "velocity": 95,
      "chip": "ym2612"
    },
    {
      "channel": 0,
      "note": 56,
      "start": 27.2561,
      "duration": 0.0819,
      "velocity": 99,
      "chip": "ym2612"
    },
    {
      "channel": 4,
      "note": 83,
      "start": 27.2606,
      "duration": 0.1014,
      "velocity": 95,
      "chip": "ym2612"
    },
    {
      "channel": 0,
      "note": 56,
      "start": 27.3382,
      "duration": 0.0337,
      "velocity": 99,
      "chip": "ym2612"
    },
    {
      "channel": 2,
      "note": 78,
      "start": 27.339,
      "duration": 0.0617,
      "velocity": 95,
      "chip": "ym2612"
    },
    {
      "channel": 0,
      "note": 56,
      "start": 27.3722,
      "duration": 0.0339,
      "velocity": 99,
      "chip": "ym2612"
    },
    {
      "channel": 4,
      "note": 80,
      "start": 27.3736,
      "duration": 0.0561,
      "velocity": 95,
      "chip": "ym2612"
    },
    {
      "channel": 0,
      "note": 56,
      "start": 27.4063,
      "duration": 0.0333,
      "velocity": 99,
      "chip": "ym2612"
    },
    {
      "channel": 2,
      "note": 75,
      "start": 27.4071,
      "duration": 0.085,
      "velocity": 95,
      "chip": "ym2612"
    },
    {
      "channel": 0,
      "note": 56,
      "start": 27.4398,
      "duration": 0.0832,
      "velocity": 99,
      "chip": "ym2612"
    },
    {
      "channel": 4,
      "note": 78,
      "start": 27.4413,
      "duration": 0.1051,
      "velocity": 95,
      "chip": "ym2612"
    },
    {
      "channel": 0,
      "note": 57,
      "start": 27.5232,
      "duration": 0.0321,
      "velocity": 99,
      "chip": "ym2612"
    },
    {
      "channel": 1,
      "note": 81,
      "start": 27.5241,
      "duration": 0.1984,
      "velocity": 101,
      "chip": "ym2612"
    },
    {
      "channel": 2,
      "note": 76,
      "start": 27.5246,
      "duration": 0.4814,
      "velocity": 95,
      "chip": "ym2612"
    },
    {
      "channel": 0,
      "note": 57,
      "start": 27.5556,
      "duration": 0.1822,
      "velocity": 99,
      "chip": "ym2612"
    },
    {
      "channel": 3,
      "note": 80,
      "start": 27.5567,
      "duration": 0.2117,
      "velocity": 101,
      "chip": "ym2612"
    },
    {
      "channel": 4,
      "note": 75,
      "start": 27.5573,
      "duration": 0.5023,
      "velocity": 95,
      "chip": "ym2612"
    },
    {
      "channel": 0,
      "note": 57,
      "start": 27.738,
      "duration": 0.0322,
      "velocity": 99,
      "chip": "ym2612"
    },
    {
      "channel": 1,
      "note": 85,
      "start": 27.7386,
      "duration": 0.1009,
      "velocity": 101,
      "chip": "ym2612"
    },
    {
      "channel": 0,
      "note": 57,
      "start": 27.7705,
      "duration": 0.0842,
      "velocity": 99,
      "chip": "ym2612"
    },
    {
      "channel": 3,
      "note": 81,
      "start": 27.7716,
      "duration": 0.1132,
      "velocity": 101,
      "chip": "ym2612"
    },
    {
      "channel": 0,
      "note": 57,
      "start": 27.855,
      "duration": 0.0329,
      "velocity": 99,
      "chip": "ym2612"
    },
    {
      "channel": 1,
      "note": 88,
      "start": 27.8555,
      "duration": 0.0626,
      "velocity": 101,
      "chip": "ym2612"
    },
    {
      "channel": 0,
      "note": 57,
      "start": 27.8881,
      "duration": 0.0324,
      "velocity": 99,
      "chip": "ym2612"
    },
    {
      "channel": 3,
      "note": 85,
      "start": 27.8893,
      "duration": 0.0619,
      "velocity": 101,
      "chip": "ym2612"
    },
    {
      "channel": 0,
      "note": 57,
      "start": 27.9207,
      "duration": 0.0322,
      "velocity": 99,
      "chip": "ym2612"
    },
    {
      "channel": 1,
      "note": 92,
      "start": 27.9213,
      "duration": 0.0292,
      "velocity": 101,
      "chip": "ym2612"
    },
    {
      "channel": 0,
      "note": 57,
      "start": 27.9532,
      "duration": 0.0835,
      "velocity": 99,
      "chip": "ym2612"
    },
    {
      "channel": 1,
      "note": 90,
      "start": 27.9538,
      "duration": 0.2819,
      "velocity": 101,
      "chip": "ym2612"
    },
    {
      "channel": 3,
      "note": 88,
      "start": 27.9546,
      "duration": 0.0672,
      "velocity": 101,
      "chip": "ym2612"
    },
    {
      "channel": 0,
      "note": 59,
      "start": 28.0369,
      "duration": 0.0317,
      "velocity": 99,
      "chip": "ym2612"
    },
    {
      "channel": 2,
      "note": 75,
      "start": 28.0377,
      "duration": 0.4844,
      "velocity": 95,
      "chip": "ym2612"
    },
    {
      "channel": 3,
      "note": 92,
      "start": 28.0383,
      "duration": 0.2444,
      "velocity": 101,
      "chip": "ym2612"
    },
    {
      "channel": 0,
      "note": 59,
      "start": 28.0689,
      "duration": 0.1821,
      "velocity": 99,
      "chip": "ym2612"
    },
    {
      "channel": 4,
      "note": 76,
      "start": 28.0703,
      "duration": 0.5051,
      "velocity": 95,
      "chip": "ym2612"
    },
    {
      "channel": 0,
      "note": 59,
      "start": 28.2513,
      "duration": 0.0333,
      "velocity": 99,
      "chip": "ym2612"
    },
    {
      "channel": 1,
      "note": 87,
      "start": 28.2518,
      "duration": 0.1014,
      "velocity": 101,
      "chip": "ym2612"
    },
    {
      "channel": 0,
      "note": 59,
      "start": 28.2848,
      "duration": 0.0839,
      "velocity": 99,
      "chip": "ym2612"
    },
    {
      "channel": 3,
      "note": 90,
      "start": 28.2859,
      "duration": 0.1124,
      "velocity": 101,
      "chip": "ym2612"
    },
    {
      "channel": 0,
      "note": 59,
      "start": 28.3689,
      "duration": 0.0328,
      "velocity": 99,
      "chip": "ym2612"
    },
    {
      "channel": 1,
      "note": 85,
      "start": 28.3694,
      "duration": 0.0621,
      "velocity": 101,
      "chip": "ym2612"
    },
    {
      "channel": 0,
      "note": 59,
      "start": 28.4019,
      "duration": 0.0332,
      "velocity": 99,
      "chip": "ym2612"
    },
    {
      "channel": 3,
      "note": 87,
      "start": 28.4034,
      "duration": 0.0629,
      "velocity": 101,
      "chip": "ym2612"
    },
    {
      "channel": 0,
      "note": 59,
      "start": 28.4353,
      "duration": 0.0328,
      "velocity": 99,
      "chip": "ym2612"
    },
    {
      "channel": 1,
      "note": 83,
      "start": 28.4359,
      "duration": 0.1017,
      "velocity": 101,
      "chip": "ym2612"
    },
    {
      "channel": 0,
      "note": 59,
      "start": 28.4683,
      "duration": 0.0846,
      "velocity": 99,
      "chip": "ym2612"
    },
    {
      "channel": 3,
      "note": 85,
      "start": 28.4695,
      "duration": 0.1133,
      "velocity": 101,
      "chip": "ym2612"
    },
    {
      "channel": 0,
      "note": 61,
      "start": 28.5532,
      "duration": 0.0314,
      "velocity": 99,
      "chip": "ym2612"
    },
    {
      "channel": 1,
      "note": 85,
      "start": 28.5537,
      "duration": 0.5008,
      "velocity": 101,
      "chip": "ym2612"
    },
    {
      "channel": 2,
      "note": 76,
      "start": 28.5542,
      "duration": 0.4849,
      "velocity": 95,
      "chip": "ym2612"
    },
    {
      "channel": 0,
      "note": 61,
      "start": 28.5848,
      "duration": 0.1826,
      "velocity": 99,
      "chip": "ym2612"
    },
    {
      "channel": 3,
      "note": 83,
      "start": 28.586,
      "duration": 0.4691,
      "velocity": 101,
      "chip": "ym2612"
    },
    {
      "channel": 4,
      "note": 75,
      "start": 28.5871,
      "duration": 0.5156,
      "velocity": 95,
      "chip": "ym2612"
    },
    {
      "channel": 0,
      "note": 61,
      "start": 28.7677,
      "duration": 0.0335,
      "velocity": 99,
      "chip": "ym2612"
    },
    {
      "channel": 0,
      "note": 61,
      "start": 28.8014,
      "duration": 0.084,
      "velocity": 99,
      "chip": "ym2612"
    },
    {
      "channel": 0,
      "note": 61,
      "start": 28.8857,
      "duration": 0.0338,
      "velocity": 99,
      "chip": "ym2612"
    },
    {
      "channel": 0,
      "note": 61,
      "start": 28.9197,
      "duration": 0.0328,
      "velocity": 99,
      "chip": "ym2612"
    },
    {
      "channel": 0,
      "note": 61,
      "start": 28.9527,
      "duration": 0.0337,
      "velocity": 99,
      "chip": "ym2612"
    },
    {
      "channel": 0,
      "note": 61,
      "start": 28.9866,
      "duration": 0.0833,
      "velocity": 99,
      "chip": "ym2612"
    },
    {
      "channel": 0,
      "note": 59,
      "start": 29.0701,
      "duration": 0.0244,
      "velocity": 99,
      "chip": "ym2612"
    },
    {
      "channel": 3,
      "note": 85,
      "start": 29.0785,
      "duration": 0.0139,
      "velocity": 98,
      "chip": "ym2612"
    },
    {
      "channel": 0,
      "note": 60,
      "start": 29.0948,
      "duration": 0.0178,
      "velocity": 99,
      "chip": "ym2612"
    },
    {
      "channel": 3,
      "note": 59,
      "start": 29.0959,
      "duration": 0.0148,
      "velocity": 98,
      "chip": "ym2612"
    },
    {
      "channel": 0,
      "note": 61,
      "start": 29.1129,
      "duration": 0.0205,
      "velocity": 99,
      "chip": "ym2612"
    },
    {
      "channel": 1,
      "note": 80,
      "start": 29.1134,
      "duration": 0.0333,
      "velocity": 99,
      "chip": "ym2612"
    },
    {
      "channel": 3,
      "note": 60,
      "start": 29.1143,
      "duration": 0.0173,
      "velocity": 98,
      "chip": "ym2612"
    },
    {
      "channel": 4,
      "note": 76,
      "start": 29.1182,
      "duration": 0.0063,
      "velocity": 98,
      "chip": "ym2612"
    },
    {
      "channel": 2,
      "note": 80,
      "start": 29.1238,
      "duration": 0.0315,
      "velocity": 99,
      "chip": "ym2612"
    },
    {
      "channel": 4,
      "note": 59,
      "start": 29.1349,
      "duration": 0.0051,
      "velocity": 98,
      "chip": "ym2612"
    },
    {
      "channel": 0,
      "note": 59,
      "start": 29.1496,
      "duration": 0.0193,
      "velocity": 99,
      "chip": "ym2612"
    },
    {
      "channel": 1,
      "note": 85,
      "start": 29.1505,
      "duration": 0.033,
      "velocity": 99,
      "chip": "ym2612"
    },
    {
      "channel": 3,
      "note": 61,
      "start": 29.1513,
      "duration": 0.0151,
      "velocity": 98,
      "chip": "ym2612"
    },
    {
      "channel": 4,
      "note": 60,
      "start": 29.152,
      "duration": 0.0069,
      "velocity": 98,
      "chip": "ym2612"
    },
    {
      "channel": 2,
      "note": 85,
      "start": 29.1582,
      "duration": 0.0342,
      "velocity": 99,
      "chip": "ym2612"
    },
    {
      "channel": 0,
      "note": 60,
      "start": 29.1691,
      "duration": 0.018,
      "velocity": 99,
      "chip": "ym2612"
    },
    {
      "channel": 3,
      "note": 59,
      "start": 29.1702,
      "duration": 0.0138,
      "velocity": 98,
      "chip": "ym2612"
    },
    {
      "channel": 0,
      "note": 61,
      "start": 29.1874,
      "duration": 0.0182,
      "velocity": 99,
      "chip": "ym2612"
    },
    {
      "channel": 1,
      "note": 88,
      "start": 29.1879,
      "duration": 0.0315,
      "velocity": 99,
      "chip": "ym2612"
    },
    {
      "channel": 3,
      "note": 60,
      "start": 29.1888,
      "duration": 0.0147,
      "velocity": 98,
      "chip": "ym2612"
    },
    {
      "channel": 4,
      "note": 61,
      "start": 29.1895,
      "duration": 0.0063,
      "velocity": 98,
      "chip": "ym2612"
    },
    {
      "channel": 2,
      "note": 88,
      "start": 29.1951,
      "duration": 0.034,
      "velocity": 99,
      "chip": "ym2612"
    },
    {
      "channel": 4,
      "note": 59,
      "start": 29.2071,
      "duration": 0.0056,
      "velocity": 98,
      "chip": "ym2612"
    },
    {
      "channel": 0,
      "note": 64,
      "start": 29.2242,
      "duration": 0.0339,
      "velocity": 99,
      "chip": "ym2612"
    },
    {
      "channel": 1,
      "note": 92,
      "start": 29.2248,
      "duration": 0.03,
      "velocity": 99,
      "chip": "ym2612"
    },
    {
      "channel": 3,
      "note": 61,
      "start": 29.2256,
      "duration": 0.0297,
      "velocity": 98,
      "chip": "ym2612"
    },
    {
      "channel": 4,
      "note": 60,
      "start": 29.2263,
      "duration": 0.0061,
      "velocity": 98,
      "chip": "ym2612"
    },
    {
      "channel": 2,
      "note": 92,
      "start": 29.2317,
      "duration": 0.0321,
      "velocity": 99,
      "chip": "ym2612"
    },
    {
      "channel": 0,
      "note": 61,
      "start": 29.2584,
      "duration": 0.0323,
      "velocity": 99,
      "chip": "ym2612"
    },
    {
      "channel": 1,
      "note": 90,
      "start": 29.2589,
      "duration": 0.0292,
      "velocity": 99,
      "chip": "ym2612"
    },
    {
      "channel": 3,
      "note": 64,
      "start": 29.2598,
      "duration": 0.0612,
      "velocity": 98,
      "chip": "ym2612"
    },
    {
      "channel": 4,
      "note": 61,
      "start": 29.2605,
      "duration": 0.0213,
      "velocity": 98,
      "chip": "ym2612"
    },
    {
      "channel": 2,
      "note": 90,
      "start": 29.2665,
      "duration": 0.0286,
      "velocity": 99,
      "chip": "ym2612"
    },
    {
      "channel": 0,
      "note": 61,
      "start": 29.291,
      "duration": 0.0333,
      "velocity": 99,
      "chip": "ym2612"
    },
    {
      "channel": 1,
      "note": 88,
      "start": 29.2916,
      "duration": 0.0288,
      "velocity": 99,
      "chip": "ym2612"
    },
    {
      "channel": 4,
      "note": 64,
      "start": 29.2931,
      "duration": 0.0552,
      "velocity": 98,
      "chip": "ym2612"
    },
    {
      "channel": 2,
      "note": 88,
      "start": 29.2978,
      "duration": 0.0313,
      "velocity": 99,
      "chip": "ym2612"
    },
    {
      "channel": 0,
      "note": 59,
      "start": 29.3245,
      "duration": 0.0338,
      "velocity": 99,
      "chip": "ym2612"
    },
    {
      "channel": 1,
      "note": 85,
      "start": 29.3251,
      "duration": 0.0299,
      "velocity": 99,
      "chip": "ym2612"
    },
    {
      "channel": 3,
      "note": 61,
      "start": 29.3259,
      "duration": 0.0296,
      "velocity": 98,
      "chip": "ym2612"
    },
    {
      "channel": 2,
      "note": 85,
      "start": 29.332,
      "duration": 0.0233,
      "velocity": 99,
      "chip": "ym2612"
    },
    {
      "channel": 0,
      "note": 57,
      "start": 29.3586,
      "duration": 0.0397,
      "velocity": 99,
      "chip": "ym2612"
    },
    {
      "channel": 1,
      "note": 80,
      "start": 29.3612,
      "duration": 0.4996,
      "velocity": 99,
      "chip": "ym2612"
    },
    {
      "channel": 4,
      "note": 61,
      "start": 29.3673,
      "duration": 0.0217,
      "velocity": 98,
      "chip": "ym2612"
    },
    {
      "channel": 0,
      "note": 57,
      "start": 29.3985,
      "duration": 0.1751,
      "velocity": 99,
      "chip": "ym2612"
    },
    {
      "channel": 2,
      "note": 80,
      "start": 29.3993,
      "duration": 0.5073,
      "velocity": 99,
      "chip": "ym2612"
    },
    {
      "channel": 3,
      "note": 59,
      "start": 29.3999,
      "duration": 0.159,
      "velocity": 92,
      "chip": "ym2612"
    },
    {
      "channel": 0,
      "note": 57,
      "start": 29.5739,
      "duration": 0.0326,
      "velocity": 99,
      "chip": "ym2612"
    },
    {
      "channel": 3,
      "note": 64,
      "start": 29.575,
      "duration": 0.0298,
      "velocity": 92,
      "chip": "ym2612"
    },
    {
      "channel": 4,
      "note": 59,
      "start": 29.5758,
      "duration": 0.4544,
      "velocity": 99,
      "chip": "ym2612"
    },
    {
      "channel": 0,
      "note": 57,
      "start": 29.6068,
      "duration": 0.0841,
      "velocity": 99,
      "chip": "ym2612"
    },
    {
      "channel": 3,
      "note": 73,
      "start": 29.6079,
      "duration": 0.0681,
      "velocity": 92,
      "chip": "ym2612"
    },
    {
      "channel": 0,
      "note": 57,
      "start": 29.6911,
      "duration": 0.0337,
      "velocity": 99,
      "chip": "ym2612"
    },
    {
      "channel": 3,
      "note": 64,
      "start": 29.6922,
      "duration": 0.0303,
      "velocity": 92,
      "chip": "ym2612"
    },
    {
      "channel": 0,
      "note": 57,
      "start": 29.725,
      "duration": 0.034,
      "velocity": 99,
      "chip": "ym2612"
    },
    {
      "channel": 3,
      "note": 76,
      "start": 29.7262,
      "duration": 0.0304,
      "velocity": 92,
      "chip": "ym2612"
    },
    {
      "channel": 0,
      "note": 57,
      "start": 29.7593,
      "duration": 0.0333,
      "velocity": 99,
      "chip": "ym2612"
    },
    {
      "channel": 3,
      "note": 64,
      "start": 29.7604,
      "duration": 0.0302,
      "velocity": 92,
      "chip": "ym2612"
    },
    {
      "channel": 0,
      "note": 57,
      "start": 29.7931,
      "duration": 0.0831,
      "velocity": 99,
      "chip": "ym2612"
    },
    {
      "channel": 3,
      "note": 73,
      "start": 29.7942,
      "duration": 0.0672,
      "velocity": 92,
      "chip": "ym2612"
    },
    {
      "channel": 0,
      "note": 59,
      "start": 29.8764,
      "duration": 0.0324,
      "velocity": 99,
      "chip": "ym2612"
    },
    {
      "channel": 1,
      "note": 78,
      "start": 29.8769,
      "duration": 0.3159,
      "velocity": 99,
      "chip": "ym2612"
    },
    {
      "channel": 0,
      "note": 59,
      "start": 29.909,
      "duration": 0.1822,
      "velocity": 99,
      "chip": "ym2612"
    },
    {
      "channel": 2,
      "note": 78,
      "start": 29.9098,
      "duration": 0.3297,
      "velocity": 99,
      "chip": "ym2612"
    },
    {
      "channel": 3,
      "note": 64,
      "start": 29.9104,
      "duration": 0.166,
      "velocity": 92,
      "chip": "ym2612"
    },
    {
      "channel": 0,
      "note": 59,
      "start": 30.0915,
      "duration": 0.0325,
      "velocity": 99,
      "chip": "ym2612"
    },
    {
      "channel": 3,
      "note": 63,
      "start": 30.0926,
      "duration": 0.0296,
      "velocity": 92,
      "chip": "ym2612"
    },
    {
      "channel": 4,
      "note": 80,
      "start": 30.0933,
      "duration": 0.1725,
      "velocity": 99,
      "chip": "ym2612"
    },
    {
      "channel": 0,
      "note": 59,
      "start": 30.1243,
      "duration": 0.0839,
      "velocity": 99,
      "chip": "ym2612"
    },
    {
      "channel": 3,
      "note": 71,
      "start": 30.1259,
      "duration": 0.0676,
      "velocity": 92,
      "chip": "ym2612"
    },
    {
      "channel": 0,
      "note": 59,
      "start": 30.2085,
      "duration": 0.0339,
      "velocity": 99,
      "chip": "ym2612"
    },
    {
      "channel": 1,
      "note": 83,
      "start": 30.209,
      "duration": 0.1688,
      "velocity": 99,
      "chip": "ym2612"
    },
    {
      "channel": 3,
      "note": 63,
      "start": 30.2099,
      "duration": 0.03,
      "velocity": 92,
      "chip": "ym2612"
    },
    {
      "channel": 0,
      "note": 59,
      "start": 30.2426,
      "duration": 0.0338,
      "velocity": 99,
      "chip": "ym2612"
    },
    {
      "channel": 2,
      "note": 83,
      "start": 30.2434,
      "duration": 0.1806,
      "velocity": 99,
      "chip": "ym2612"
    },
    {
      "channel": 3,
      "note": 75,
      "start": 30.244,
      "duration": 0.0297,
      "velocity": 92,
      "chip": "ym2612"
    },
    {
      "channel": 0,
      "note": 59,
      "start": 30.2766,
      "duration": 0.033,
      "velocity": 99,
      "chip": "ym2612"
    },
    {
      "channel": 3,
      "note": 63,
      "start": 30.2778,
      "duration": 0.0298,
      "velocity": 92,
      "chip": "ym2612"
    },
    {
      "channel": 4,
      "note": 78,
      "start": 30.2784,
      "duration": 0.2688,
      "velocity": 99,
      "chip": "ym2612"
    },
    {
      "channel": 0,
      "note": 57,
      "start": 30.3099,
      "duration": 0.0832,
      "velocity": 99,
      "chip": "ym2612"
    },
    {
      "channel": 3,
      "note": 71,
      "start": 30.3111,
      "duration": 0.0673,
      "velocity": 92,
      "chip": "ym2612"
    },
    {
      "channel": 0,
      "note": 56,
      "start": 30.3934,
      "duration": 0.0327,
      "velocity": 99,
      "chip": "ym2612"
    },
    {
      "channel": 1,
      "note": 75,
      "start": 30.394,
      "duration": 0.0297,
      "velocity": 99,
      "chip": "ym2612"
    },
    {
      "channel": 0,
      "note": 56,
      "start": 30.4264,
      "duration": 0.1823,
      "velocity": 99,
      "chip": "ym2612"
    },
    {
      "channel": 1,
      "note": 76,
      "start": 30.4269,
      "duration": 0.1663,
      "velocity": 99,
      "chip": "ym2612"
    },
    {
      "channel": 2,
      "note": 75,
      "start": 30.4275,
      "duration": 0.1661,
      "velocity": 99,
      "chip": "ym2612"
    },
    {
      "channel": 3,
      "note": 63,
      "start": 30.4281,
      "duration": 0.1658,
      "velocity": 92,
      "chip": "ym2612"
    },
    {
      "channel": 0,
      "note": 56,
      "start": 30.6089,
      "duration": 0.0334,
      "velocity": 99,
      "chip": "ym2612"
    },
    {
      "channel": 1,
      "note": 78,
      "start": 30.6094,
      "duration": 0.0304,
      "velocity": 99,
      "chip": "ym2612"
    },
    {
      "channel": 2,
      "note": 76,
      "start": 30.61,
      "duration": 0.0301,
      "velocity": 99,
      "chip": "ym2612"
    },
    {
      "channel": 3,
      "note": 63,
      "start": 30.6106,
      "duration": 0.0298,
      "velocity": 92,
      "chip": "ym2612"
    },
    {
      "channel": 4,
      "note": 83,
      "start": 30.6113,
      "duration": 0.0208,
      "velocity": 99,
      "chip": "ym2612"
    },
    {
      "channel": 0,
      "note": 56,
      "start": 30.6425,
      "duration": 0.0833,
      "velocity": 99,
      "chip": "ym2612"
    },
    {
      "channel": 1,
      "note": 78,
      "start": 30.6431,
      "duration": 0.1132,
      "velocity": 99,
      "chip": "ym2612"
    },
    {
      "channel": 2,
      "note": 78,
      "start": 30.6436,
      "duration": 0.0668,
      "velocity": 99,
      "chip": "ym2612"
    },
    {
      "channel": 3,
      "note": 71,
      "start": 30.6442,
      "duration": 0.0665,
      "velocity": 92,
      "chip": "ym2612"
    },
    {
      "channel": 4,
      "note": 75,
      "start": 30.6449,
      "duration": 0.0204,
      "velocity": 99,
      "chip": "ym2612"
    },
    {
      "channel": 0,
      "note": 56,
      "start": 30.7261,
      "duration": 0.0333,
      "velocity": 99,
      "chip": "ym2612"
    },
    {
      "channel": 2,
      "note": 78,
      "start": 30.7269,
      "duration": 0.0631,
      "velocity": 99,
      "chip": "ym2612"
    },
    {
      "channel": 3,
      "note": 63,
      "start": 30.7275,
      "duration": 0.0294,
      "velocity": 92,
      "chip": "ym2612"
    },
    {
      "channel": 4,
      "note": 76,
      "start": 30.7282,
      "duration": 0.0214,
      "velocity": 99,
      "chip": "ym2612"
    },
    {
      "channel": 0,
      "note": 56,
      "start": 30.7597,
      "duration": 0.0334,
      "velocity": 99,
      "chip": "ym2612"
    },
    {
      "channel": 1,
      "note": 80,
      "start": 30.7602,
      "duration": 0.0295,
      "velocity": 99,
      "chip": "ym2612"
    },
    {
      "channel": 3,
      "note": 75,
      "start": 30.761,
      "duration": 0.0293,
      "velocity": 92,
      "chip": "ym2612"
    },
    {
      "channel": 4,
      "note": 78,
      "start": 30.7617,
      "duration": 0.0557,
      "velocity": 99,
      "chip": "ym2612"
    },
    {
      "channel": 0,
      "note": 56,
      "start": 30.7934,
      "duration": 0.0338,
      "velocity": 99,
      "chip": "ym2612"
    },
    {
      "channel": 1,
      "note": 78,
      "start": 30.7939,
      "duration": 0.0195,
      "velocity": 99,
      "chip": "ym2612"
    },
    {
      "channel": 2,
      "note": 80,
      "start": 30.7944,
      "duration": 0.0305,
      "velocity": 99,
      "chip": "ym2612"
    },
    {
      "channel": 3,
      "note": 63,
      "start": 30.7951,
      "duration": 0.0301,
      "velocity": 92,
      "chip": "ym2612"
    },
    {
      "channel": 1,
      "note": 76,
      "start": 30.8162,
      "duration": 0.0201,
      "velocity": 99,
      "chip": "ym2612"
    },
    {
      "channel": 0,
      "note": 56,
      "start": 30.8274,
      "duration": 0.0826,
      "velocity": 99,
      "chip": "ym2612"
    },
    {
      "channel": 2,
      "note": 78,
      "start": 30.8281,
      "duration": 0.0188,
      "velocity": 99,
      "chip": "ym2612"
    },
    {
      "channel": 3,
      "note": 71,
      "start": 30.8288,
      "duration": 0.0667,
      "velocity": 92,
      "chip": "ym2612"
    },
    {
      "channel": 4,
      "note": 78,
      "start": 30.8294,
      "duration": 0.0209,
      "velocity": 99,
      "chip": "ym2612"
    },
    {
      "channel": 1,
      "note": 75,
      "start": 30.839,
      "duration": 0.0559,
      "velocity": 99,
      "chip": "ym2612"
    },
    {
      "channel": 2,
      "note": 76,
      "start": 30.8497,
      "duration": 0.0711,
      "velocity": 99,
      "chip": "ym2612"
    },
    {
      "channel": 0,
      "note": 49,
      "start": 30.9103,
      "duration": 0.0325,
      "velocity": 99,
      "chip": "ym2612"
    },
    {
      "channel": 1,
      "note": 73,
      "start": 30.9109,
      "duration": 0.5014,
      "velocity": 99,
      "chip": "ym2612"
    },
    {
      "channel": 4,
      "note": 80,
      "start": 30.9125,
      "duration": 0.0116,
      "velocity": 99,
      "chip": "ym2612"
    },
    {
      "channel": 2,
      "note": 75,
      "start": 30.9234,
      "duration": 0.0174,
      "velocity": 99,
      "chip": "ym2612"
    },
    {
      "channel": 4,
      "note": 78,
      "start": 30.9341,
      "duration": 0.0108,
      "velocity": 99,
      "chip": "ym2612"
    },
    {
      "channel": 0,
      "note": 61,
      "start": 30.9431,
      "duration": 0.1816,
      "velocity": 99,
      "chip": "ym2612"
    },
    {
      "channel": 2,
      "note": 73,
      "start": 30.9439,
      "duration": 0.5138,
      "velocity": 99,
      "chip": "ym2612"
    },
    {
      "channel": 3,
      "note": 63,
      "start": 30.9445,
      "duration": 0.1654,
      "velocity": 92,
      "chip": "ym2612"
    },
    {
      "channel": 4,
      "note": 76,
      "start": 31.0012,
      "duration": 0.0621,
      "velocity": 99,
      "chip": "ym2612"
    },
    {
      "channel": 0,
      "note": 51,
      "start": 31.125,
      "duration": 0.0334,
      "velocity": 99,
      "chip": "ym2612"
    },
    {
      "channel": 3,
      "note": 64,
      "start": 31.1261,
      "duration": 0.0305,
      "velocity": 92,
      "chip": "ym2612"
    },
    {
      "channel": 4,
      "note": 75,
      "start": 31.1268,
      "duration": 0.4539,
      "velocity": 99,
      "chip": "ym2612"
    },
    {
      "channel": 0,
      "note": 63,
      "start": 31.1586,
      "duration": 0.083,
      "velocity": 99,
      "chip": "ym2612"
    },
    {
      "channel": 3,
      "note": 73,
      "start": 31.1597,
      "duration": 0.0671,
      "velocity": 92,
      "chip": "ym2612"
    },
    {
      "channel": 0,
      "note": 52,
      "start": 31.2418,
      "duration": 0.0345,
      "velocity": 99,
      "chip": "ym2612"
    },
    {
      "channel": 3,
      "note": 64,
      "start": 31.243,
      "duration": 0.0297,
      "velocity": 92,
      "chip": "ym2612"
    },
    {
      "channel": 0,
      "note": 64,
      "start": 31.2766,
      "duration": 0.0339,
      "velocity": 99,
      "chip": "ym2612"
    },
    {
      "channel": 3,
      "note": 76,
      "start": 31.2778,
      "duration": 0.0305,
      "velocity": 92,
      "chip": "ym2612"
    },
    {
      "channel": 0,
      "note": 56,
      "start": 31.3108,
      "duration": 0.0341,
      "velocity": 99,
      "chip": "ym2612"
    },
    {
      "channel": 3,
      "note": 64,
      "start": 31.3119,
      "duration": 0.031,
      "velocity": 92,
      "chip": "ym2612"
    },
    {
      "channel": 0,
      "note": 68,
      "start": 31.3451,
      "duration": 0.0825,
      "velocity": 99,
      "chip": "ym2612"
    },
    {
      "channel": 3,
      "note": 73,
      "start": 31.3462,
      "duration": 0.0667,
      "velocity": 92,
      "chip": "ym2612"
    },
    {
      "channel": 0,
      "note": 57,
      "start": 31.4278,
      "duration": 0.0323,
      "velocity": 99,
      "chip": "ym2612"
    },
    {
      "channel": 1,
      "note": 69,
      "start": 31.4284,
      "duration": 0.3159,
      "velocity": 99,
      "chip": "ym2612"
    },
    {
      "channel": 0,
      "note": 57,
      "start": 31.4604,
      "duration": 0.1817,
      "velocity": 99,
      "chip": "ym2612"
    },
    {
      "channel": 2,
      "note": 69,
      "start": 31.4612,
      "duration": 0.3289,
      "velocity": 99,
      "chip": "ym2612"
    },
    {
      "channel": 3,
      "note": 64,
      "start": 31.4618,
      "duration": 0.1654,
      "velocity": 92,
      "chip": "ym2612"
    },
    {
      "channel": 0,
      "note": 57,
      "start": 31.6424,
      "duration": 0.0335,
      "velocity": 99,
      "chip": "ym2612"
    },
    {
      "channel": 3,
      "note": 64,
      "start": 31.6435,
      "duration": 0.0305,
      "velocity": 92,
      "chip": "ym2612"
    },
    {
      "channel": 4,
      "note": 73,
      "start": 31.6442,
      "duration": 0.1724,
      "velocity": 99,
      "chip": "ym2612"
    },
    {
      "channel": 0,
      "note": 57,
      "start": 31.6761,
      "duration": 0.0835,
      "velocity": 99,
      "chip": "ym2612"
    },
    {
      "channel": 3,
      "note": 73,
      "start": 31.6773,
      "duration": 0.0676,
      "velocity": 92,
      "chip": "ym2612"
    },
    {
      "channel": 0,
      "note": 57,
      "start": 31.7599,
      "duration": 0.0329,
      "velocity": 99,
      "chip": "ym2612"
    },
    {
      "channel": 1,
      "note": 80,
      "start": 31.7604,
      "duration": 0.1685,
      "velocity": 99,
      "chip": "ym2612"
    },
    {
      "channel": 3,
      "note": 64,
      "start": 31.7613,
      "duration": 0.0291,
      "velocity": 92,
      "chip": "ym2612"
    },
    {
      "channel": 0,
      "note": 57,
      "start": 31.7932,
      "duration": 0.0331,
      "velocity": 99,
      "chip": "ym2612"
    },
    {
      "channel": 2,
      "note": 80,
      "start": 31.7942,
      "duration": 0.18,
      "velocity": 99,
      "chip": "ym2612"
    },
    {
      "channel": 3,
      "note": 76,
      "start": 31.7949,
      "duration": 0.0291,
      "velocity": 92,
      "chip": "ym2612"
    },
    {
      "channel": 0,
      "note": 57,
      "start": 31.8265,
      "duration": 0.0335,
      "velocity": 99,
      "chip": "ym2612"
    },
    {
      "channel": 3,
      "note": 64,
      "start": 31.8276,
      "duration": 0.0304,
      "velocity": 92,
      "chip": "ym2612"
    },
    {
      "channel": 4,
      "note": 69,
      "start": 31.8283,
      "duration": 0.2695,
      "velocity": 99,
      "chip": "ym2612"
    },
    {
      "channel": 0,
      "note": 57,
      "start": 31.8602,
      "duration": 0.0841,
      "velocity": 99,
      "chip": "ym2612"
    },
    {
      "channel": 3,
      "note": 73,
      "start": 31.8614,
      "duration": 0.0682,
      "velocity": 92,
      "chip": "ym2612"
    },
    {
      "channel": 0,
      "note": 59,
      "start": 31.9446,
      "duration": 0.032,
      "velocity": 99,
      "chip": "ym2612"
    },
    {
      "channel": 1,
      "note": 78,
      "start": 31.9451,
      "duration": 0.1987,
      "velocity": 99,
      "chip": "ym2612"
    },
    {
      "channel": 0,
      "note": 59,
      "start": 31.9769,
      "duration": 0.1824,
      "velocity": 99,
      "chip": "ym2612"
    },
    {
      "channel": 2,
      "note": 78,
      "start": 31.9776,
      "duration": 0.2127,
      "velocity": 99,
      "chip": "ym2612"
    },
    {
      "channel": 3,
      "note": 64,
      "start": 31.9784,
      "duration": 0.1661,
      "velocity": 92,
      "chip": "ym2612"
    },
    {
      "channel": 0,
      "note": 59,
      "start": 32.1595,
      "duration": 0.033,
      "velocity": 99,
      "chip": "ym2612"
    },
    {
      "channel": 1,
      "note": 75,
      "start": 32.16,
      "duration": 0.1021,
      "velocity": 99,
      "chip": "ym2612"
    },
    {
      "channel": 3,
      "note": 63,
      "start": 32.1609,
      "duration": 0.0298,
      "velocity": 92,
      "chip": "ym2612"
    },
    {
      "channel": 4,
      "note": 80,
      "start": 32.1615,
      "duration": 0.0545,
      "velocity": 99,
      "chip": "ym2612"
    },
    {
      "channel": 0,
      "note": 59,
      "start": 32.1927,
      "duration": 0.0848,
      "velocity": 99,
      "chip": "ym2612"
    },
    {
      "channel": 2,
      "note": 75,
      "start": 32.1935,
      "duration": 0.1143,
      "velocity": 99,
      "chip": "ym2612"
    },
    {
      "channel": 3,
      "note": 71,
      "start": 32.1941,
      "duration": 0.0686,
      "velocity": 92,
      "chip": "ym2612"
    },
    {
      "channel": 0,
      "note": 59,
      "start": 32.2778,
      "duration": 0.0339,
      "velocity": 99,
      "chip": "ym2612"
    },
    {
      "channel": 1,
      "note": 76,
      "start": 32.2783,
      "duration": 0.063,
      "velocity": 99,
      "chip": "ym2612"
    },
    {
      "channel": 3,
      "note": 63,
      "start": 32.2791,
      "duration": 0.029,
      "velocity": 92,
      "chip": "ym2612"
    },
    {
      "channel": 4,
      "note": 78,
      "start": 32.2798,
      "duration": 0.0547,
      "velocity": 99,
      "chip": "ym2612"
    },
    {
      "channel": 0,
      "note": 59,
      "start": 32.3119,
      "duration": 0.0331,
      "velocity": 99,
      "chip": "ym2612"
    },
    {
      "channel": 2,
      "note": 76,
      "start": 32.3126,
      "duration": 0.0634,
      "velocity": 99,
      "chip": "ym2612"
    },
    {
      "channel": 3,
      "note": 75,
      "start": 32.3132,
      "duration": 0.0286,
      "velocity": 92,
      "chip": "ym2612"
    },
    {
      "channel": 0,
      "note": 59,
      "start": 32.3452,
      "duration": 0.0331,
      "velocity": 99,
      "chip": "ym2612"
    },
    {
      "channel": 1,
      "note": 78,
      "start": 32.3458,
      "duration": 0.1019,
      "velocity": 99,
      "chip": "ym2612"
    },
    {
      "channel": 3,
      "note": 63,
      "start": 32.3466,
      "duration": 0.0298,
      "velocity": 92,
      "chip": "ym2612"
    },
    {
      "channel": 4,
      "note": 75,
      "start": 32.3473,
      "duration": 0.0543,
      "velocity": 99,
      "chip": "ym2612"
    },
    {
      "channel": 0,
      "note": 59,
      "start": 32.3786,
      "duration": 0.0844,
      "velocity": 99,
      "chip": "ym2612"
    },
    {
      "channel": 2,
      "note": 78,
      "start": 32.3793,
      "duration": 0.114,
      "velocity": 99,
      "chip": "ym2612"
    },
    {
      "channel": 3,
      "note": 71,
      "start": 32.38,
      "duration": 0.0683,
      "velocity": 92,
      "chip": "ym2612"
    },
    {
      "channel": 0,
      "note": 52,
      "start": 32.4633,
      "duration": 0.0321,
      "velocity": 99,
      "chip": "ym2612"
    },
    {
      "channel": 1,
      "note": 80,
      "start": 32.4638,
      "duration": 0.1991,
      "velocity": 99,
      "chip": "ym2612"
    },
    {
      "channel": 4,
      "note": 76,
      "start": 32.4651,
      "duration": 0.1515,
      "velocity": 99,
      "chip": "ym2612"
    },
    {
      "channel": 0,
      "note": 52,
      "start": 32.4956,
      "duration": 0.1825,
      "velocity": 99,
      "chip": "ym2612"
    },
    {
      "channel": 2,
      "note": 80,
      "start": 32.4964,
      "duration": 0.213,
      "velocity": 99,
      "chip": "ym2612"
    },
    {
      "channel": 3,
      "note": 63,
      "start": 32.497,
      "duration": 0.1665,
      "velocity": 92,
      "chip": "ym2612"
    },
    {
      "channel": 0,
      "note": 52,
      "start": 32.6784,
      "duration": 0.0331,
      "velocity": 99,
      "chip": "ym2612"
    },
    {
      "channel": 1,
      "note": 83,
      "start": 32.6789,
      "duration": 0.0302,
      "velocity": 99,
      "chip": "ym2612"
    },
    {
      "channel": 3,
      "note": 64,
      "start": 32.6802,
      "duration": 0.0295,
      "velocity": 92,
      "chip": "ym2612"
    },
    {
      "channel": 4,
      "note": 78,
      "start": 32.6808,
      "duration": 0.0542,
      "velocity": 99,
      "chip": "ym2612"
    },
    {
      "channel": 0,
      "note": 52,
      "start": 32.7117,
      "duration": 0.0841,
      "velocity": 99,
      "chip": "ym2612"
    },
    {
      "channel": 1,
      "note": 80,
      "start": 32.7123,
      "duration": 0.1816,
      "velocity": 99,
      "chip": "ym2612"
    },
    {
      "channel": 2,
      "note": 83,
      "start": 32.7128,
      "duration": 0.0679,
      "velocity": 99,
      "chip": "ym2612"
    },
    {
      "channel": 3,
      "note": 71,
      "start": 32.7134,
      "duration": 0.0676,
      "velocity": 92,
      "chip": "ym2612"
    },
    {
      "channel": 0,
      "note": 52,
      "start": 32.7961,
      "duration": 0.0334,
      "velocity": 99,
      "chip": "ym2612"
    },
    {
      "channel": 2,
      "note": 80,
      "start": 32.7968,
      "duration": 0.0973,
      "velocity": 99,
      "chip": "ym2612"
    },
    {
      "channel": 3,
      "note": 64,
      "start": 32.7974,
      "duration": 0.0292,
      "velocity": 92,
      "chip": "ym2612"
    },
    {
      "channel": 4,
      "note": 80,
      "start": 32.7981,
      "duration": 0.0208,
      "velocity": 99,
      "chip": "ym2612"
    },
    {
      "channel": 0,
      "note": 52,
      "start": 32.8297,
      "duration": 0.0334,
      "velocity": 99,
      "chip": "ym2612"
    },
    {
      "channel": 3,
      "note": 76,
      "start": 32.8308,
      "duration": 0.0291,
      "velocity": 92,
      "chip": "ym2612"
    },
    {
      "channel": 4,
      "note": 83,
      "start": 32.8315,
      "duration": 0.0554,
      "velocity": 99,
      "chip": "ym2612"
    },
    {
      "channel": 0,
      "note": 52,
      "start": 32.8633,
      "duration": 0.0344,
      "velocity": 99,
      "chip": "ym2612"
    },
    {
      "channel": 3,
      "note": 64,
      "start": 32.8646,
      "duration": 0.0299,
      "velocity": 92,
      "chip": "ym2612"
    },
    {
      "channel": 0,
      "note": 56,
      "start": 32.898,
      "duration": 0.2307,
      "velocity": 99,
      "chip": "ym2612"
    },
    {
      "channel": 1,
      "note": 95,
      "start": 32.9006,
      "duration": 0.2588,
      "velocity": 99,
      "chip": "ym2612"
    },
    {
      "channel": 3,
      "note": 71,
      "start": 32.9063,
      "duration": 0.4435,
      "velocity": 98,
      "chip": "ym2612"
    },
    {
      "channel": 4,
      "note": 80,
      "start": 32.9098,
      "duration": 0.4318,
      "velocity": 98,
      "chip": "ym2612"
    },
    {
      "channel": 2,
      "note": 95,
      "start": 32.9159,
      "duration": 0.2517,
      "velocity": 99,
      "chip": "ym2612"
    },
    {
      "channel": 0,
      "note": 56,
      "start": 33.129,
      "duration": 0.0337,
      "velocity": 99,
      "chip": "ym2612"
    },
    {
      "channel": 0,
      "note": 56,
      "start": 33.1629,
      "duration": 0.033,
      "velocity": 99,
      "chip": "ym2612"
    },
    {
      "channel": 1,
      "note": 93,
      "start": 33.1635,
      "duration": 0.1008,
      "velocity": 99,
      "chip": "ym2612"
    },
    {
      "channel": 2,
      "note": 93,
      "start": 33.1705,
      "duration": 0.1132,
      "velocity": 99,
      "chip": "ym2612"
    },
    {
      "channel": 0,
      "note": 56,
      "start": 33.1962,
      "duration": 0.0834,
      "velocity": 99,
      "chip": "ym2612"
    },
    {
      "channel": 0,
      "note": 56,
      "start": 33.2799,
      "duration": 0.0186,
      "velocity": 99,
      "chip": "ym2612"
    },
    {
      "channel": 1,
      "note": 92,
      "start": 33.2805,
      "duration": 0.0687,
      "velocity": 99,
      "chip": "ym2612"
    },
    {
      "channel": 2,
      "note": 92,
      "start": 33.2866,
      "duration": 0.0702,
      "velocity": 99,
      "chip": "ym2612"
    },
    {
      "channel": 0,
      "note": 68,
      "start": 33.2988,
      "duration": 0.0179,
      "velocity": 99,
      "chip": "ym2612"
    },
    {
      "channel": 0,
      "note": 68,
      "start": 33.3169,
      "duration": 0.0175,
      "velocity": 99,
      "chip": "ym2612"
    },
    {
      "channel": 0,
      "note": 56,
      "start": 33.3346,
      "duration": 0.0173,
      "velocity": 99,
      "chip": "ym2612"
    },
    {
      "channel": 0,
      "note": 56,
      "start": 33.3522,
      "duration": 0.0324,
      "velocity": 99,
      "chip": "ym2612"
    },
    {
      "channel": 1,
      "note": 90,
      "start": 33.3528,
      "duration": 0.1005,
      "velocity": 99,
      "chip": "ym2612"
    },
    {
      "channel": 3,
      "note": 56,
      "start": 33.3536,
      "duration": 0.1003,
      "velocity": 98,
      "chip": "ym2612"
    },
    {
      "channel": 4,
      "note": 63,
      "start": 33.3543,
      "duration": 0.0529,
      "velocity": 98,
      "chip": "ym2612"
    },
    {
      "channel": 2,
      "note": 90,
      "start": 33.3596,
      "duration": 0.094,
      "velocity": 99,
      "chip": "ym2612"
    },
    {
      "channel": 0,
      "note": 56,
      "start": 33.3848,
      "duration": 0.0839,
      "velocity": 99,
      "chip": "ym2612"
    },
    {
      "channel": 0,
      "note": 57,
      "start": 33.4689,
      "duration": 0.0354,
      "velocity": 99,
      "chip": "ym2612"
    },
    {
      "channel": 1,
      "note": 80,
      "start": 33.4715,
      "duration": 0.4983,
      "velocity": 99,
      "chip": "ym2612"
    },
    {
      "channel": 3,
      "note": 56,
      "start": 33.4725,
      "duration": 0.0061,
      "velocity": 98,
      "chip": "ym2612"
    },
    {
      "channel": 0,
      "note": 57,
      "start": 33.5046,
      "duration": 0.1791,
      "velocity": 99,
      "chip": "ym2612"
    },
    {
      "channel": 2,
      "note": 80,
      "start": 33.5074,
      "duration": 0.5097,
      "velocity": 99,
      "chip": "ym2612"
    },
    {
      "channel": 3,
      "note": 57,
      "start": 33.508,
      "duration": 0.0202,
      "velocity": 98,
      "chip": "ym2612"
    },
    {
      "channel": 4,
      "note": 63,
      "start": 33.5115,
      "duration": 0.4985,
      "velocity": 99,
      "chip": "ym2612"
    },
    {
      "channel": 0,
      "note": 69,
      "start": 33.6839,
      "duration": 0.0325,
      "velocity": 99,
      "chip": "ym2612"
    },
    {
      "channel": 3,
      "note": 57,
      "start": 33.6851,
      "duration": 0.0292,
      "velocity": 98,
      "chip": "ym2612"
    },
    {
      "channel": 0,
      "note": 57,
      "start": 33.7167,
      "duration": 0.0838,
      "velocity": 99,
      "chip": "ym2612"
    },
    {
      "channel": 3,
      "note": 57,
      "start": 33.7181,
      "duration": 0.0061,
      "velocity": 98,
      "chip": "ym2612"
    },
    {
      "channel": 0,
      "note": 57,
      "start": 33.8007,
      "duration": 0.0336,
      "velocity": 99,
      "chip": "ym2612"
    },
    {
      "channel": 3,
      "note": 57,
      "start": 33.8019,
      "duration": 0.0062,
      "velocity": 98,
      "chip": "ym2612"
    },
    {
      "channel": 0,
      "note": 69,
      "start": 33.8346,
      "duration": 0.0335,
      "velocity": 99,
      "chip": "ym2612"
    },
    {
      "channel": 3,
      "note": 57,
      "start": 33.8359,
      "duration": 0.0298,
      "velocity": 98,
      "chip": "ym2612"
    },
    {
      "channel": 0,
      "note": 57,
      "start": 33.8684,
      "duration": 0.0344,
      "velocity": 99,
      "chip": "ym2612"
    },
    {
      "channel": 3,
      "note": 57,
      "start": 33.8696,
      "duration": 0.0067,
      "velocity": 98,
      "chip": "ym2612"
    },
    {
      "channel": 0,
      "note": 57,
      "start": 33.9031,
      "duration": 0.0824,
      "velocity": 99,
      "chip": "ym2612"
    },
    {
      "channel": 3,
      "note": 57,
      "start": 33.9042,
      "duration": 0.0061,
      "velocity": 98,
      "chip": "ym2612"
    },
    {
      "channel": 0,
      "note": 59,
      "start": 33.9857,
      "duration": 0.0336,
      "velocity": 99,
      "chip": "ym2612"
    },
    {
      "channel": 1,
      "note": 78,
      "start": 33.9862,
      "duration": 0.316,
      "velocity": 99,
      "chip": "ym2612"
    },
    {
      "channel": 3,
      "note": 57,
      "start": 33.9871,
      "duration": 0.0063,
      "velocity": 98,
      "chip": "ym2612"
    },
    {
      "channel": 0,
      "note": 59,
      "start": 34.0196,
      "duration": 0.181,
      "velocity": 99,
      "chip": "ym2612"
    },
    {
      "channel": 2,
      "note": 78,
      "start": 34.0203,
      "duration": 0.3285,
      "velocity": 99,
      "chip": "ym2612"
    },
    {
      "channel": 3,
      "note": 59,
      "start": 34.021,
      "duration": 0.0242,
      "velocity": 98,
      "chip": "ym2612"
    },
    {
      "channel": 4,
      "note": 80,
      "start": 34.0216,
      "duration": 0.3202,
      "velocity": 99,
      "chip": "ym2612"
    },
    {
      "channel": 0,
      "note": 71,
      "start": 34.2008,
      "duration": 0.0332,
      "velocity": 99,
      "chip": "ym2612"
    },
    {
      "channel": 3,
      "note": 59,
      "start": 34.202,
      "duration": 0.0298,
      "velocity": 98,
      "chip": "ym2612"
    },
    {
      "channel": 0,
      "note": 59,
      "start": 34.2343,
      "duration": 0.0832,
      "velocity": 99,
      "chip": "ym2612"
    },
    {
      "channel": 3,
      "note": 59,
      "start": 34.2356,
      "duration": 0.0058,
      "velocity": 98,
      "chip": "ym2612"
    },
    {
      "channel": 0,
      "note": 59,
      "start": 34.3178,
      "duration": 0.0348,
      "velocity": 99,
      "chip": "ym2612"
    },
    {
      "channel": 1,
      "note": 83,
      "start": 34.3187,
      "duration": 0.0991,
      "velocity": 99,
      "chip": "ym2612"
    },
    {
      "channel": 3,
      "note": 59,
      "start": 34.3196,
      "duration": 0.0062,
      "velocity": 98,
      "chip": "ym2612"
    },
    {
      "channel": 0,
      "note": 71,
      "start": 34.3528,
      "duration": 0.0338,
      "velocity": 99,
      "chip": "ym2612"
    },
    {
      "channel": 2,
      "note": 83,
      "start": 34.3535,
      "duration": 0.0976,
      "velocity": 99,
      "chip": "ym2612"
    },
    {
      "channel": 3,
      "note": 59,
      "start": 34.3543,
      "duration": 0.0295,
      "velocity": 98,
      "chip": "ym2612"
    },
    {
      "channel": 4,
      "note": 78,
      "start": 34.3549,
      "duration": 0.0889,
      "velocity": 99,
      "chip": "ym2612"
    },
    {
      "channel": 0,
      "note": 59,
      "start": 34.3868,
      "duration": 0.034,
      "velocity": 99,
      "chip": "ym2612"
    },
    {
      "channel": 3,
      "note": 59,
      "start": 34.388,
      "duration": 0.0065,
      "velocity": 98,
      "chip": "ym2612"
    },
    {
      "channel": 0,
      "note": 60,
      "start": 34.4211,
      "duration": 0.2206,
      "velocity": 99,
      "chip": "ym2612"
    },
    {
      "channel": 1,
      "note": 83,
      "start": 34.4216,
      "duration": 0.2507,
      "velocity": 99,
      "chip": "ym2612"
    },
    {
      "channel": 3,
      "note": 59,
      "start": 34.4226,
      "duration": 0.2043,
      "velocity": 98,
      "chip": "ym2612"
    },
    {
      "channel": 2,
      "note": 83,
      "start": 34.455,
      "duration": 0.2522,
      "velocity": 99,
      "chip": "ym2612"
    },
    {
      "channel": 4,
      "note": 83,
      "start": 34.456,
      "duration": 0.244,
      "velocity": 99,
      "chip": "ym2612"
    },
    {
      "channel": 0,
      "note": 60,
      "start": 34.642,
      "duration": 0.0339,
      "velocity": 99,
      "chip": "ym2612"
    },
    {
      "channel": 3,
      "note": 60,
      "start": 34.6431,
      "duration": 0.0299,
      "velocity": 98,
      "chip": "ym2612"
    },
    {
      "channel": 0,
      "note": 72,
      "start": 34.6761,
      "duration": 0.0336,
      "velocity": 99,
      "chip": "ym2612"
    },
    {
      "channel": 1,
      "note": 81,
      "start": 34.6766,
      "duration": 0.1002,
      "velocity": 99,
      "chip": "ym2612"
    },
    {
      "channel": 3,
      "note": 60,
      "start": 34.6776,
      "duration": 0.03,
      "velocity": 98,
      "chip": "ym2612"
    },
    {
      "channel": 0,
      "note": 60,
      "start": 34.7099,
      "duration": 0.0823,
      "velocity": 99,
      "chip": "ym2612"
    },
    {
      "channel": 2,
      "note": 81,
      "start": 34.7107,
      "duration": 0.1116,
      "velocity": 99,
      "chip": "ym2612"
    },
    {
      "channel": 3,
      "note": 60,
      "start": 34.7114,
      "duration": 0.0059,
      "velocity": 98,
      "chip": "ym2612"
    },
    {
      "channel": 4,
      "note": 83,
      "start": 34.7121,
      "duration": 0.1033,
      "velocity": 99,
      "chip": "ym2612"
    },
    {
      "channel": 0,
      "note": 60,
      "start": 34.7924,
      "duration": 0.033,
      "velocity": 99,
      "chip": "ym2612"
    },
    {
      "channel": 1,
      "note": 80,
      "start": 34.793,
      "duration": 0.0629,
      "velocity": 99,
      "chip": "ym2612"
    },
    {
      "channel": 3,
      "note": 60,
      "start": 34.7938,
      "duration": 0.0062,
      "velocity": 98,
      "chip": "ym2612"
    },
    {
      "channel": 0,
      "note": 72,
      "start": 34.8256,
      "duration": 0.0338,
      "velocity": 99,
      "chip": "ym2612"
    },
    {
      "channel": 2,
      "note": 80,
      "start": 34.8264,
      "duration": 0.0642,
      "velocity": 99,
      "chip": "ym2612"
    },
    {
      "channel": 3,
      "note": 60,
      "start": 34.8271,
      "duration": 0.0294,
      "velocity": 98,
      "chip": "ym2612"
    },
    {
      "channel": 4,
      "note": 81,
      "start": 34.8278,
      "duration": 0.0559,
      "velocity": 99,
      "chip": "ym2612"
    },
    {
      "channel": 0,
      "note": 60,
      "start": 34.8597,
      "duration": 0.0332,
      "velocity": 99,
      "chip": "ym2612"
    },
    {
      "channel": 1,
      "note": 78,
      "start": 34.8602,
      "duration": 0.1006,
      "velocity": 99,
      "chip": "ym2612"
    },
    {
      "channel": 3,
      "note": 60,
      "start": 34.8611,
      "duration": 0.0063,
      "velocity": 98,
      "chip": "ym2612"
    },
    {
      "channel": 0,
      "note": 60,
      "start": 34.8931,
      "duration": 0.083,
      "velocity": 99,
      "chip": "ym2612"
    },
    {
      "channel": 2,
      "note": 78,
      "start": 34.8939,
      "duration": 0.1121,
      "velocity": 99,
      "chip": "ym2612"
    },
    {
      "channel": 3,
      "note": 60,
      "start": 34.8945,
      "duration": 0.0058,
      "velocity": 98,
      "chip": "ym2612"
    },
    {
      "channel": 4,
      "note": 80,
      "start": 34.8952,
      "duration": 0.104,
      "velocity": 99,
      "chip": "ym2612"
    },
    {
      "channel": 0,
      "note": 61,
      "start": 34.9764,
      "duration": 0.0318,
      "velocity": 99,
      "chip": "ym2612"
    },
    {
      "channel": 1,
      "note": 76,
      "start": 34.977,
      "duration": 0.0288,
      "velocity": 99,
      "chip": "ym2612"
    },
    {
      "channel": 3,
      "note": 60,
      "start": 34.9778,
      "duration": 0.0059,
      "velocity": 98,
      "chip": "ym2612"
    },
    {
      "channel": 0,
      "note": 73,
      "start": 35.0085,
      "duration": 0.182,
      "velocity": 99,
      "chip": "ym2612"
    },
    {
      "channel": 1,
      "note": 75,
      "start": 35.0093,
      "duration": 0.1657,
      "velocity": 99,
      "chip": "ym2612"
    },
    {
      "channel": 2,
      "note": 76,
      "start": 35.0099,
      "duration": 0.1654,
      "velocity": 99,
      "chip": "ym2612"
    },
    {
      "channel": 3,
      "note": 61,
      "start": 35.0105,
      "duration": 0.0245,
      "velocity": 98,
      "chip": "ym2612"
    },
    {
      "channel": 4,
      "note": 78,
      "start": 35.0112,
      "duration": 0.1178,
      "velocity": 99,
      "chip": "ym2612"
    },
    {
      "channel": 0,
      "note": 61,
      "start": 35.1907,
      "duration": 0.0341,
      "velocity": 99,
      "chip": "ym2612"
    },
    {
      "channel": 1,
      "note": 76,
      "start": 35.1912,
      "duration": 0.0306,
      "velocity": 99,
      "chip": "ym2612"
    },
    {
      "channel": 2,
      "note": 75,
      "start": 35.1918,
      "duration": 0.0304,
      "velocity": 99,
      "chip": "ym2612"
    },
    {
      "channel": 3,
      "note": 61,
      "start": 35.1925,
      "duration": 0.03,
      "velocity": 98,
      "chip": "ym2612"
    },
    {
      "channel": 4,
      "note": 76,
      "start": 35.1932,
      "duration": 0.0221,
      "velocity": 99,
      "chip": "ym2612"
    },
    {
      "channel": 0,
      "note": 59,
      "start": 35.225,
      "duration": 0.2148,
      "velocity": 99,
      "chip": "ym2612"
    },
    {
      "channel": 1,
      "note": 78,
      "start": 35.2255,
      "duration": 0.199,
      "velocity": 99,
      "chip": "ym2612"
    },
    {
      "channel": 2,
      "note": 76,
      "start": 35.2261,
      "duration": 0.0302,
      "velocity": 99,
      "chip": "ym2612"
    },
    {
      "channel": 3,
      "note": 61,
      "start": 35.2267,
      "duration": 0.1987,
      "velocity": 98,
      "chip": "ym2612"
    },
    {
      "channel": 4,
      "note": 75,
      "start": 35.2274,
      "duration": 0.0213,
      "velocity": 99,
      "chip": "ym2612"
    },
    {
      "channel": 2,
      "note": 78,
      "start": 35.2592,
      "duration": 0.2106,
      "velocity": 99,
      "chip": "ym2612"
    },
    {
      "channel": 4,
      "note": 76,
      "start": 35.2602,
      "duration": 0.2028,
      "velocity": 99,
      "chip": "ym2612"
    },
    {
      "channel": 0,
      "note": 59,
      "start": 35.44,
      "duration": 0.0329,
      "velocity": 99,
      "chip": "ym2612"
    },
    {
      "channel": 1,
      "note": 75,
      "start": 35.4407,
      "duration": 0.0289,
      "velocity": 99,
      "chip": "ym2612"
    },
    {
      "channel": 3,
      "note": 61,
      "start": 35.4419,
      "duration": 0.006,
      "velocity": 98,
      "chip": "ym2612"
    },
    {
      "channel": 0,
      "note": 59,
      "start": 35.4732,
      "duration": 0.0343,
      "velocity": 99,
      "chip": "ym2612"
    },
    {
      "channel": 1,
      "note": 76,
      "start": 35.4737,
      "duration": 0.0312,
      "velocity": 99,
      "chip": "ym2612"
    },
    {
      "channel": 2,
      "note": 75,
      "start": 35.4742,
      "duration": 0.031,
      "velocity": 99,
      "chip": "ym2612"
    },
    {
      "channel": 3,
      "note": 61,
      "start": 35.475,
      "duration": 0.0306,
      "velocity": 98,
      "chip": "ym2612"
    },
    {
      "channel": 4,
      "note": 78,
      "start": 35.4756,
      "duration": 0.0227,
      "velocity": 99,
      "chip": "ym2612"
    },
    {
      "channel": 0,
      "note": 59,
      "start": 35.5077,
      "duration": 0.0831,
      "velocity": 99,
      "chip": "ym2612"
    },
    {
      "channel": 1,
      "note": 78,
      "start": 35.5083,
      "duration": 0.0671,
      "velocity": 99,
      "chip": "ym2612"
    },
    {
      "channel": 2,
      "note": 76,
      "start": 35.5088,
      "duration": 0.0668,
      "velocity": 99,
      "chip": "ym2612"
    },
    {
      "channel": 3,
      "note": 61,
      "start": 35.5095,
      "duration": 0.0057,
      "velocity": 98,
      "chip": "ym2612"
    },
    {
      "channel": 4,
      "note": 75,
      "start": 35.5102,
      "duration": 0.0212,
      "velocity": 99,
      "chip": "ym2612"
    },
    {
      "channel": 0,
      "note": 57,
      "start": 35.591,
      "duration": 0.0335,
      "velocity": 99,
      "chip": "ym2612"
    },
    {
      "channel": 1,
      "note": 80,
      "start": 35.5916,
      "duration": 0.3174,
      "velocity": 99,
      "chip": "ym2612"
    },
    {
      "channel": 2,
      "note": 78,
      "start": 35.5921,
      "duration": 0.0298,
      "velocity": 99,
      "chip": "ym2612"
    },
    {
      "channel": 3,
      "note": 61,
      "start": 35.5927,
      "duration": 0.0064,
      "velocity": 98,
      "chip": "ym2612"
    },
    {
      "channel": 4,
      "note": 76,
      "start": 35.5934,
      "duration": 0.021,
      "velocity": 99,
      "chip": "ym2612"
    },
    {
      "channel": 0,
      "note": 57,
      "start": 35.6248,
      "duration": 0.1814,
      "velocity": 99,
      "chip": "ym2612"
    },
    {
      "channel": 2,
      "note": 80,
      "start": 35.6256,
      "duration": 0.3304,
      "velocity": 99,
      "chip": "ym2612"
    },
    {
      "channel": 3,
      "note": 57,
      "start": 35.6262,
      "duration": 0.0246,
      "velocity": 98,
      "chip": "ym2612"
    },
    {
      "channel": 4,
      "note": 78,
      "start": 35.627,
      "duration": 0.3212,
      "velocity": 99,
      "chip": "ym2612"
    },
    {
      "channel": 0,
      "note": 69,
      "start": 35.8064,
      "duration": 0.033,
      "velocity": 99,
      "chip": "ym2612"
    },
    {
      "channel": 3,
      "note": 57,
      "start": 35.8076,
      "duration": 0.0299,
      "velocity": 98,
      "chip": "ym2612"
    },
    {
      "channel": 0,
      "note": 57,
      "start": 35.8397,
      "duration": 0.0847,
      "velocity": 99,
      "chip": "ym2612"
    },
    {
      "channel": 3,
      "note": 57,
      "start": 35.8409,
      "duration": 0.0058,
      "velocity": 98,
      "chip": "ym2612"
    },
    {
      "channel": 0,
      "note": 57,
      "start": 35.9246,
      "duration": 0.0354,
      "velocity": 99,
      "chip": "ym2612"
    },
    {
      "channel": 1,
      "note": 88,
      "start": 35.9251,
      "duration": 0.1708,
      "velocity": 99,
      "chip": "ym2612"
    },
    {
      "channel": 3,
      "note": 57,
      "start": 35.9261,
      "duration": 0.0059,
      "velocity": 98,
      "chip": "ym2612"
    },
    {
      "channel": 0,
      "note": 69,
      "start": 35.9603,
      "duration": 0.033,
      "velocity": 99,
      "chip": "ym2612"
    },
    {
      "channel": 2,
      "note": 88,
      "start": 35.961,
      "duration": 0.1821,
      "velocity": 99,
      "chip": "ym2612"
    },
    {
      "channel": 3,
      "note": 57,
      "start": 35.9617,
      "duration": 0.0285,
      "velocity": 98,
      "chip": "ym2612"
    },
    {
      "channel": 4,
      "note": 80,
      "start": 35.9624,
      "duration": 0.1733,
      "velocity": 99,
      "chip": "ym2612"
    },
    {
      "channel": 0,
      "note": 57,
      "start": 35.9935,
      "duration": 0.0337,
      "velocity": 99,
      "chip": "ym2612"
    },
    {
      "channel": 3,
      "note": 57,
      "start": 35.9951,
      "duration": 0.0068,
      "velocity": 98,
      "chip": "ym2612"
    },
    {
      "channel": 0,
      "note": 57,
      "start": 36.0275,
      "duration": 0.0838,
      "velocity": 99,
      "chip": "ym2612"
    },
    {
      "channel": 3,
      "note": 57,
      "start": 36.0286,
      "duration": 0.0055,
      "velocity": 98,
      "chip": "ym2612"
    },
    {
      "channel": 0,
      "note": 59,
      "start": 36.1115,
      "duration": 0.0339,
      "velocity": 99,
      "chip": "ym2612"
    },
    {
      "channel": 1,
      "note": 87,
      "start": 36.112,
      "duration": 0.3162,
      "velocity": 99,
      "chip": "ym2612"
    },
    {
      "channel": 3,
      "note": 57,
      "start": 36.1129,
      "duration": 0.0061,
      "velocity": 98,
      "chip": "ym2612"
    },
    {
      "channel": 0,
      "note": 59,
      "start": 36.1457,
      "duration": 0.1807,
      "velocity": 99,
      "chip": "ym2612"
    },
    {
      "channel": 2,
      "note": 87,
      "start": 36.1465,
      "duration": 0.3288,
      "velocity": 99,
      "chip": "ym2612"
    },
    {
      "channel": 3,
      "note": 59,
      "start": 36.1471,
      "duration": 0.0238,
      "velocity": 98,
      "chip": "ym2612"
    },
    {
      "channel": 4,
      "note": 88,
      "start": 36.1478,
      "duration": 0.32,
      "velocity": 99,
      "chip": "ym2612"
    },
    {
      "channel": 0,
      "note": 71,
      "start": 36.3266,
      "duration": 0.0324,
      "velocity": 99,
      "chip": "ym2612"
    },
    {
      "channel": 3,
      "note": 59,
      "start": 36.3283,
      "duration": 0.0288,
      "velocity": 98,
      "chip": "ym2612"
    },
    {
      "channel": 0,
      "note": 59,
      "start": 36.3592,
      "duration": 0.0844,
      "velocity": 99,
      "chip": "ym2612"
    },
    {
      "channel": 3,
      "note": 59,
      "start": 36.3605,
      "duration": 0.0061,
      "velocity": 98,
      "chip": "ym2612"
    },
    {
      "channel": 0,
      "note": 59,
      "start": 36.4439,
      "duration": 0.0353,
      "velocity": 99,
      "chip": "ym2612"
    },
    {
      "channel": 1,
      "note": 83,
      "start": 36.4445,
      "duration": 0.1702,
      "velocity": 99,
      "chip": "ym2612"
    },
    {
      "channel": 3,
      "note": 59,
      "start": 36.4454,
      "duration": 0.006,
      "velocity": 98,
      "chip": "ym2612"
    },
    {
      "channel": 0,
      "note": 71,
      "start": 36.4795,
      "duration": 0.0333,
      "velocity": 99,
      "chip": "ym2612"
    },
    {
      "channel": 2,
      "note": 83,
      "start": 36.4803,
      "duration": 0.1829,
      "velocity": 99,
      "chip": "ym2612"
    },
    {
      "channel": 3,
      "note": 59,
      "start": 36.481,
      "duration": 0.0286,
      "velocity": 98,
      "chip": "ym2612"
    },
    {
      "channel": 4,
      "note": 87,
      "start": 36.4817,
      "duration": 0.1745,
      "velocity": 99,
      "chip": "ym2612"
    },
    {
      "channel": 0,
      "note": 59,
      "start": 36.5131,
      "duration": 0.0171,
      "velocity": 99,
      "chip": "ym2612"
    },
    {
      "channel": 3,
      "note": 59,
      "start": 36.5143,
      "duration": 0.0068,
      "velocity": 98,
      "chip": "ym2612"
    },
    {
      "channel": 0,
      "note": 66,
      "start": 36.5304,
      "duration": 0.0158,
      "velocity": 99,
      "chip": "ym2612"
    },
    {
      "channel": 0,
      "note": 59,
      "start": 36.5465,
      "duration": 0.0836,
      "velocity": 99,
      "chip": "ym2612"
    },
    {
      "channel": 3,
      "note": 59,
      "start": 36.5476,
      "duration": 0.0059,
      "velocity": 98,
      "chip": "ym2612"
    },
    {
      "channel": 0,
      "note": 59,
      "start": 36.6303,
      "duration": 0.0178,
      "velocity": 99,
      "chip": "ym2612"
    },
    {
      "channel": 1,
      "note": 85,
      "start": 36.6309,
      "duration": 0.3148,
      "velocity": 99,
      "chip": "ym2612"
    },
    {
      "channel": 3,
      "note": 59,
      "start": 36.6319,
      "duration": 0.0144,
      "velocity": 98,
      "chip": "ym2612"
    },
    {
      "channel": 0,
      "note": 60,
      "start": 36.6484,
      "duration": 0.0174,
      "velocity": 99,
      "chip": "ym2612"
    },
    {
      "channel": 3,
      "note": 59,
      "start": 36.6499,
      "duration": 0.0136,
      "velocity": 98,
      "chip": "ym2612"
    },
    {
      "channel": 0,
      "note": 61,
      "start": 36.666,
      "duration": 0.0169,
      "velocity": 99,
      "chip": "ym2612"
    },
    {
      "channel": 2,
      "note": 85,
      "start": 36.6669,
      "duration": 0.2791,
      "velocity": 99,
      "chip": "ym2612"
    },
    {
      "channel": 3,
      "note": 60,
      "start": 36.6675,
      "duration": 0.0137,
      "velocity": 98,
      "chip": "ym2612"
    },
    {
      "channel": 4,
      "note": 83,
      "start": 36.6683,
      "duration": 0.2784,
      "velocity": 99,
      "chip": "ym2612"
    },
    {
      "channel": 0,
      "note": 59,
      "start": 36.7001,
      "duration": 0.017,
      "velocity": 99,
      "chip": "ym2612"
    },
    {
      "channel": 3,
      "note": 61,
      "start": 36.7012,
      "duration": 0.0141,
      "velocity": 98,
      "chip": "ym2612"
    },
    {
      "channel": 0,
      "note": 60,
      "start": 36.7174,
      "duration": 0.0175,
      "velocity": 99,
      "chip": "ym2612"
    },
    {
      "channel": 3,
      "note": 59,
      "start": 36.7185,
      "duration": 0.0129,
      "velocity": 98,
      "chip": "ym2612"
    },
    {
      "channel": 0,
      "note": 61,
      "start": 36.7355,
      "duration": 0.0173,
      "velocity": 99,
      "chip": "ym2612"
    },
    {
      "channel": 3,
      "note": 60,
      "start": 36.7367,
      "duration": 0.0144,
      "velocity": 98,
      "chip": "ym2612"
    },
    {
      "channel": 0,
      "note": 64,
      "start": 36.7691,
      "duration": 0.0332,
      "velocity": 99,
      "chip": "ym2612"
    },
    {
      "channel": 3,
      "note": 61,
      "start": 36.7703,
      "duration": 0.0297,
      "velocity": 98,
      "chip": "ym2612"
    },
    {
      "channel": 0,
      "note": 61,
      "start": 36.8026,
      "duration": 0.0338,
      "velocity": 99,
      "chip": "ym2612"
    },
    {
      "channel": 3,
      "note": 64,
      "start": 36.8037,
      "duration": 0.0625,
      "velocity": 98,
      "chip": "ym2612"
    },
    {
      "channel": 0,
      "note": 61,
      "start": 36.8366,
      "duration": 0.033,
      "velocity": 99,
      "chip": "ym2612"
    },
    {
      "channel": 0,
      "note": 56,
      "start": 36.8698,
      "duration": 0.0333,
      "velocity": 99,
      "chip": "ym2612"
    },
    {
      "channel": 3,
      "note": 61,
      "start": 36.8714,
      "duration": 0.0294,
      "velocity": 98,
      "chip": "ym2612"
    },
    {
      "channel": 0,
      "note": 61,
      "start": 36.9043,
      "duration": 0.0439,
      "velocity": 99,
      "chip": "ym2612"
    },
    {
      "channel": 3,
      "note": 56,
      "start": 36.9105,
      "duration": 0.0359,
      "velocity": 98,
      "chip": "ym2612"
    },
    {
      "channel": 0,
      "note": 56,
      "start": 36.9484,
      "duration": 0.037,
      "velocity": 99,
      "chip": "ym2612"
    },
    {
      "channel": 1,
      "note": 44,
      "start": 36.9508,
      "duration": 0.0212,
      "velocity": 98,
      "chip": "ym2612"
    },
    {
      "channel": 2,
      "note": 63,
      "start": 36.9533,
      "duration": 0.0189,
      "velocity": 98,
      "chip": "ym2612"
    },
    {
      "channel": 0,
      "note": 56,
      "start": 36.9856,
      "duration": 0.0416,
      "velocity": 99,
      "chip": "ym2612"
    },
    {
      "channel": 1,
      "note": 44,
      "start": 36.9878,
      "duration": 0.0266,
      "velocity": 98,
      "chip": "ym2612"
    },
    {
      "channel": 2,
      "note": 63,
      "start": 36.9901,
      "duration": 0.0246,
      "velocity": 98,
      "chip": "ym2612"
    },
    {
      "channel": 3,
      "note": 61,
      "start": 36.9939,
      "duration": 0.021,
      "velocity": 98,
      "chip": "ym2612"
    },
    {
      "channel": 4,
      "note": 85,
      "start": 36.9973,
      "duration": 0.0282,
      "velocity": 98,
      "chip": "ym2612"
    },
    {
      "channel": 0,
      "note": 56,
      "start": 37.0274,
      "duration": 0.0356,
      "velocity": 99,
      "chip": "ym2612"
    },
    {
      "channel": 1,
      "note": 44,
      "start": 37.0298,
      "duration": 0.021,
      "velocity": 98,
      "chip": "ym2612"
    },
    {
      "channel": 2,
      "note": 63,
      "start": 37.0324,
      "duration": 0.0186,
      "velocity": 98,
      "chip": "ym2612"
    },
    {
      "channel": 3,
      "note": 56,
      "start": 37.0331,
      "duration": 0.0183,
      "velocity": 98,
      "chip": "ym2612"
    },
    {
      "channel": 4,
      "note": 56,
      "start": 37.0337,
      "duration": 0.0278,
      "velocity": 98,
      "chip": "ym2612"
    },
    {
      "channel": 0,
      "note": 56,
      "start": 37.0632,
      "duration": 0.0359,
      "velocity": 99,
      "chip": "ym2612"
    },
    {
      "channel": 1,
      "note": 44,
      "start": 37.0638,
      "duration": 0.0223,
      "velocity": 98,
      "chip": "ym2612"
    },
    {
      "channel": 2,
      "note": 63,
      "start": 37.0643,
      "duration": 0.022,
      "velocity": 98,
      "chip": "ym2612"
    },
    {
      "channel": 3,
      "note": 56,
      "start": 37.0649,
      "duration": 0.0217,
      "velocity": 98,
      "chip": "ym2612"
    },
    {
      "channel": 4,
      "note": 56,
      "start": 37.0656,
      "duration": 0.031,
      "velocity": 98,
      "chip": "ym2612"
    },
    {
      "channel": 0,
      "note": 56,
      "start": 37.0994,
      "duration": 0.0392,
      "velocity": 99,
      "chip": "ym2612"
    },
    {
      "channel": 1,
      "note": 44,
      "start": 37.1017,
      "duration": 0.0229,
      "velocity": 98,
      "chip": "ym2612"
    },
    {
      "channel": 2,
      "note": 63,
      "start": 37.1039,
      "duration": 0.0209,
      "velocity": 98,
      "chip": "ym2612"
    },
    {
      "channel": 3,
      "note": 56,
      "start": 37.1045,
      "duration": 0.0206,
      "velocity": 98,
      "chip": "ym2612"
    },
    {
      "channel": 4,
      "note": 56,
      "start": 37.1052,
      "duration": 0.0304,
      "velocity": 98,
      "chip": "ym2612"
    },
    {
      "channel": 0,
      "note": 56,
      "start": 37.1388,
      "duration": 0.0343,
      "velocity": 99,
      "chip": "ym2612"
    },
    {
      "channel": 1,
      "note": 44,
      "start": 37.1394,
      "duration": 0.0201,
      "velocity": 98,
      "chip": "ym2612"
    },
    {
      "channel": 2,
      "note": 63,
      "start": 37.1399,
      "duration": 0.0199,
      "velocity": 98,
      "chip": "ym2612"
    },
    {
      "channel": 3,
      "note": 56,
      "start": 37.1405,
      "duration": 0.0196,
      "velocity": 98,
      "chip": "ym2612"
    },
    {
      "channel": 4,
      "note": 56,
      "start": 37.1412,
      "duration": 0.0296,
      "velocity": 98,
      "chip": "ym2612"
    },
    {
      "channel": 0,
      "note": 56,
      "start": 37.1734,
      "duration": 0.037,
      "velocity": 99,
      "chip": "ym2612"
    },
    {
      "channel": 1,
      "note": 44,
      "start": 37.1756,
      "duration": 0.0217,
      "velocity": 98,
      "chip": "ym2612"
    },
    {
      "channel": 2,
      "note": 63,
      "start": 37.1784,
      "duration": 0.0192,
      "velocity": 98,
      "chip": "ym2612"
    },
    {
      "channel": 3,
      "note": 56,
      "start": 37.179,
      "duration": 0.0189,
      "velocity": 98,
      "chip": "ym2612"
    },
    {
      "channel": 4,
      "note": 56,
      "start": 37.1797,
      "duration": 0.0284,
      "velocity": 98,
      "chip": "ym2612"
    },
    {
      "channel": 0,
      "note": 54,
      "start": 37.2106,
      "duration": 1.322,
      "velocity": 99,
      "chip": "ym2612"
    },
    {
      "channel": 2,
      "note": 54,
      "start": 37.2136,
      "duration": 1.3152,
      "velocity": 98,
      "chip": "ym2612"
    },
    {
      "channel": 3,
      "note": 56,
      "start": 37.2169,
      "duration": 1.3019,
      "velocity": 98,
      "chip": "ym2612"
    },
    {
      "channel": 4,
      "note": 56,
      "start": 37.2176,
      "duration": 0.0284,
      "velocity": 98,
      "chip": "ym2612"
    },
    {
      "channel": 1,
      "note": 85,
      "start": 37.4274,
      "duration": 0.1976,
      "velocity": 99,
      "chip": "ym2612"
    },
    {
      "channel": 4,
      "note": 56,
      "start": 37.4613,
      "duration": 0.2096,
      "velocity": 99,
      "chip": "ym2612"
    },
    {
      "channel": 1,
      "note": 84,
      "start": 37.6405,
      "duration": 0.1989,
      "velocity": 99,
      "chip": "ym2612"
    },
    {
      "channel": 4,
      "note": 85,
      "start": 37.6738,
      "duration": 0.2124,
      "velocity": 99,
      "chip": "ym2612"
    },
    {
      "channel": 1,
      "note": 82,
      "start": 37.8552,
      "duration": 0.03,
      "velocity": 99,
      "chip": "ym2612"
    },
    {
      "channel": 1,
      "note": 84,
      "start": 37.8882,
      "duration": 0.3806,
      "velocity": 99,
      "chip": "ym2612"
    },
    {
      "channel": 4,
      "note": 84,
      "start": 37.8894,
      "duration": 0.1661,
      "velocity": 99,
      "chip": "ym2612"
    },
    {
      "channel": 4,
      "note": 82,
      "start": 38.0717,
      "duration": 0.2443,
      "velocity": 99,
      "chip": "ym2612"
    },
    {
      "channel": 1,
      "note": 85,
      "start": 38.2846,
      "duration": 0.1993,
      "velocity": 99,
      "chip": "ym2612"
    },
    {
      "channel": 4,
      "note": 84,
      "start": 38.319,
      "duration": 0.2105,
      "velocity": 99,
      "chip": "ym2612"
    },
    {
      "channel": 1,
      "note": 84,
      "start": 38.4997,
      "duration": 0.0634,
      "velocity": 99,
      "chip": "ym2612"
    },
    {
      "channel": 0,
      "note": 54,
      "start": 38.5329,
      "duration": 0.0335,
      "velocity": 99,
      "chip": "ym2612"
    },
    {
      "channel": 2,
      "note": 54,
      "start": 38.5337,
      "duration": 0.0297,
      "velocity": 98,
      "chip": "ym2612"
    },
    {
      "channel": 3,
      "note": 61,
      "start": 38.5343,
      "duration": 0.0193,
      "velocity": 98,
      "chip": "ym2612"
    },
    {
      "channel": 4,
      "note": 85,
      "start": 38.535,
      "duration": 0.0622,
      "velocity": 99,
      "chip": "ym2612"
    },
    {
      "channel": 0,
      "note": 54,
      "start": 38.5667,
      "duration": 0.0673,
      "velocity": 99,
      "chip": "ym2612"
    },
    {
      "channel": 1,
      "note": 85,
      "start": 38.5672,
      "duration": 0.0622,
      "velocity": 99,
      "chip": "ym2612"
    },
    {
      "channel": 2,
      "note": 54,
      "start": 38.5678,
      "duration": 0.0619,
      "velocity": 98,
      "chip": "ym2612"
    },
    {
      "channel": 3,
      "note": 61,
      "start": 38.5684,
      "duration": 0.0509,
      "velocity": 98,
      "chip": "ym2612"
    },
    {
      "channel": 4,
      "note": 84,
      "start": 38.6017,
      "duration": 0.0664,
      "velocity": 99,
      "chip": "ym2612"
    },
    {
      "channel": 0,
      "note": 61,
      "start": 38.6342,
      "duration": 0.0738,
      "velocity": 99,
      "chip": "ym2612"
    },
    {
      "channel": 1,
      "note": 61,
      "start": 38.6368,
      "duration": 0.0095,
      "velocity": 96,
      "chip": "ym2612"
    },
    {
      "channel": 2,
      "note": 49,
      "start": 38.6374,
      "duration": 0.0066,
      "velocity": 98,
      "chip": "ym2612"
    },
    {
      "channel": 3,
      "note": 61,
      "start": 38.6383,
      "duration": 0.006,
      "velocity": 98,
      "chip": "ym2612"
    },
    {
      "channel": 1,
      "note": 66,
      "start": 38.649,
      "duration": 0.0076,
      "velocity": 96,
      "chip": "ym2612"
    },
    {
      "channel": 1,
      "note": 68,
      "start": 38.6593,
      "duration": 0.008,
      "velocity": 96,
      "chip": "ym2612"
    },
    {
      "channel": 1,
      "note": 73,
      "start": 38.6707,
      "duration": 0.0129,
      "velocity": 96,
      "chip": "ym2612"
    },
    {
      "channel": 2,
      "note": 49,
      "start": 38.6716,
      "duration": 0.0095,
      "velocity": 98,
      "chip": "ym2612"
    },
    {
      "channel": 3,
      "note": 61,
      "start": 38.6722,
      "duration": 0.0092,
      "velocity": 98,
      "chip": "ym2612"
    },
    {
      "channel": 4,
      "note": 85,
      "start": 38.6757,
      "duration": 0.0089,
      "velocity": 96,
      "chip": "ym2612"
    },
    {
      "channel": 1,
      "note": 78,
      "start": 38.6867,
      "duration": 0.008,
      "velocity": 96,
      "chip": "ym2612"
    },
    {
      "channel": 4,
      "note": 61,
      "start": 38.6878,
      "duration": 0.0077,
      "velocity": 96,
      "chip": "ym2612"
    },
    {
      "channel": 1,
      "note": 80,
      "start": 38.6976,
      "duration": 0.008,
      "velocity": 96,
      "chip": "ym2612"
    },
    {
      "channel": 4,
      "note": 66,
      "start": 38.6988,
      "duration": 0.0077,
      "velocity": 96,
      "chip": "ym2612"
    },
    {
      "channel": 1,
      "note": 85,
      "start": 38.7087,
      "duration": 0.0102,
      "velocity": 96,
      "chip": "ym2612"
    },
    {
      "channel": 2,
      "note": 64,
      "start": 38.7093,
      "duration": 0.032,
      "velocity": 98,
      "chip": "ym2612"
    },
    {
      "channel": 3,
      "note": 61,
      "start": 38.71,
      "duration": 0.0316,
      "velocity": 98,
      "chip": "ym2612"
    },
    {
      "channel": 4,
      "note": 68,
      "start": 38.7107,
      "duration": 0.0093,
      "velocity": 96,
      "chip": "ym2612"
    },
    {
      "channel": 1,
      "note": 90,
      "start": 38.722,
      "duration": 0.0083,
      "velocity": 96,
      "chip": "ym2612"
    },
    {
      "channel": 4,
      "note": 73,
      "start": 38.7235,
      "duration": 0.0076,
      "velocity": 96,
      "chip": "ym2612"
    },
    {
      "channel": 1,
      "note": 92,
      "start": 38.7331,
      "duration": 0.0079,
      "velocity": 96,
      "chip": "ym2612"
    },
    {
      "channel": 4,
      "note": 78,
      "start": 38.7342,
      "duration": 0.0077,
      "velocity": 96,
      "chip": "ym2612"
    },
    {
      "channel": 1,
      "note": 104,
      "start": 38.7456,
      "duration": 0.0096,
      "velocity": 96,
      "chip": "ym2612"
    },
    {
      "channel": 2,
      "note": 49,
      "start": 38.7462,
      "duration": 0.0067,
      "velocity": 98,
      "chip": "ym2612"
    },
    {
      "channel": 3,
      "note": 61,
      "start": 38.7469,
      "duration": 0.0063,
      "velocity": 98,
      "chip": "ym2612"
    },
    {
      "channel": 4,
      "note": 80,
      "start": 38.7476,
      "duration": 0.0085,
      "velocity": 96,
      "chip": "ym2612"
    },
    {
      "channel": 1,
      "note": 102,
      "start": 38.758,
      "duration": 0.0081,
      "velocity": 96,
      "chip": "ym2612"
    },
    {
      "channel": 4,
      "note": 85,
      "start": 38.7591,
      "duration": 0.0082,
      "velocity": 96,
      "chip": "ym2612"
    },
    {
      "channel": 1,
      "note": 97,
      "start": 38.7692,
      "duration": 0.0084,
      "velocity": 96,
      "chip": "ym2612"
    },
    {
      "channel": 4,
      "note": 90,
      "start": 38.7706,
      "duration": 0.0079,
      "velocity": 96,
      "chip": "ym2612"
    },
    {
      "channel": 1,
      "note": 92,
      "start": 38.7825,
      "duration": 0.0093,
      "velocity": 96,
      "chip": "ym2612"
    },
    {
      "channel": 2,
      "note": 49,
      "start": 38.783,
      "duration": 0.0064,
      "velocity": 98,
      "chip": "ym2612"
    },
    {
      "channel": 3,
      "note": 61,
      "start": 38.7836,
      "duration": 0.0061,
      "velocity": 98,
      "chip": "ym2612"
    },
    {
      "channel": 4,
      "note": 92,
      "start": 38.7843,
      "duration": 0.0083,
      "velocity": 96,
      "chip": "ym2612"
    },
    {
      "channel": 1,
      "note": 90,
      "start": 38.7945,
      "duration": 0.0081,
      "velocity": 96,
      "chip": "ym2612"
    },
    {
      "channel": 4,
      "note": 104,
      "start": 38.7957,
      "duration": 0.0078,
      "velocity": 96,
      "chip": "ym2612"
    },
    {
      "channel": 1,
      "note": 85,
      "start": 38.8054,
      "duration": 0.0085,
      "velocity": 96,
      "chip": "ym2612"
    },
    {
      "channel": 4,
      "note": 102,
      "start": 38.8065,
      "duration": 0.0086,
      "velocity": 96,
      "chip": "ym2612"
    },
    {
      "channel": 0,
      "note": 61,
      "start": 38.8182,
      "duration": 0.0362,
      "velocity": 99,
      "chip": "ym2612"
    },
    {
      "channel": 1,
      "note": 80,
      "start": 38.8187,
      "duration": 0.0107,
      "velocity": 96,
      "chip": "ym2612"
    },
    {
      "channel": 2,
      "note": 64,
      "start": 38.8195,
      "duration": 0.0316,
      "velocity": 98,
      "chip": "ym2612"
    },
    {
      "channel": 3,
      "note": 61,
      "start": 38.8202,
      "duration": 0.0312,
      "velocity": 98,
      "chip": "ym2612"
    },
    {
      "channel": 4,
      "note": 97,
      "start": 38.8213,
      "duration": 0.009,
      "velocity": 96,
      "chip": "ym2612"
    },
    {
      "channel": 1,
      "note": 78,
      "start": 38.8323,
      "duration": 0.0078,
      "velocity": 96,
      "chip": "ym2612"
    },
    {
      "channel": 4,
      "note": 92,
      "start": 38.8334,
      "duration": 0.0075,
      "velocity": 96,
      "chip": "ym2612"
    },
    {
      "channel": 1,
      "note": 73,
      "start": 38.8428,
      "duration": 0.008,
      "velocity": 96,
      "chip": "ym2612"
    },
    {
      "channel": 4,
      "note": 90,
      "start": 38.844,
      "duration": 0.0078,
      "velocity": 96,
      "chip": "ym2612"
    },
    {
      "channel": 1,
      "note": 68,
      "start": 38.855,
      "duration": 0.0098,
      "velocity": 96,
      "chip": "ym2612"
    },
    {
      "channel": 2,
      "note": 49,
      "start": 38.8556,
      "duration": 0.0066,
      "velocity": 98,
      "chip": "ym2612"
    },
    {
      "channel": 3,
      "note": 61,
      "start": 38.8563,
      "duration": 0.0065,
      "velocity": 98,
      "chip": "ym2612"
    },
    {
      "channel": 4,
      "note": 85,
      "start": 38.857,
      "duration": 0.0087,
      "velocity": 96,
      "chip": "ym2612"
    },
    {
      "channel": 1,
      "note": 66,
      "start": 38.8679,
      "duration": 0.0083,
      "velocity": 96,
      "chip": "ym2612"
    },
    {
      "channel": 4,
      "note": 80,
      "start": 38.8693,
      "duration": 0.0077,
      "velocity": 96,
      "chip": "ym2612"
    },
    {
      "channel": 1,
      "note": 73,
      "start": 38.8791,
      "duration": 0.0079,
      "velocity": 96,
      "chip": "ym2612"
    },
    {
      "channel": 4,
      "note": 78,
      "start": 38.8803,
      "duration": 0.0076,
      "velocity": 96,
      "chip": "ym2612"
    },
    {
      "channel": 0,
      "note": 61,
      "start": 38.8911,
      "duration": 0.074,
      "velocity": 99,
      "chip": "ym2612"
    },
    {
      "channel": 1,
      "note": 78,
      "start": 38.8917,
      "duration": 0.0096,
      "velocity": 96,
      "chip": "ym2612"
    },
    {
      "channel": 2,
      "note": 64,
      "start": 38.8923,
      "duration": 0.0682,
      "velocity": 98,
      "chip": "ym2612"
    },
    {
      "channel": 3,
      "note": 61,
      "start": 38.893,
      "duration": 0.0678,
      "velocity": 98,
      "chip": "ym2612"
    },
    {
      "channel": 4,
      "note": 73,
      "start": 38.8937,
      "duration": 0.0085,
      "velocity": 96,
      "chip": "ym2612"
    },
    {
      "channel": 1,
      "note": 80,
      "start": 38.9042,
      "duration": 0.0086,
      "velocity": 96,
      "chip": "ym2612"
    },
    {
      "channel": 4,
      "note": 68,
      "start": 38.9053,
      "duration": 0.0085,
      "velocity": 96,
      "chip": "ym2612"
    },
    {
      "channel": 1,
      "note": 85,
      "start": 38.916,
      "duration": 0.0086,
      "velocity": 96,
      "chip": "ym2612"
    },
    {
      "channel": 4,
      "note": 66,
      "start": 38.9173,
      "duration": 0.0082,
      "velocity": 96,
      "chip": "ym2612"
    },
    {
      "channel": 1,
      "note": 78,
      "start": 38.9292,
      "duration": 0.0087,
      "velocity": 96,
      "chip": "ym2612"
    },
    {
      "channel": 4,
      "note": 73,
      "start": 38.9304,
      "duration": 0.0083,
      "velocity": 96,
      "chip": "ym2612"
    },
    {
      "channel": 1,
      "note": 80,
      "start": 38.9407,
      "duration": 0.008,
      "velocity": 96,
      "chip": "ym2612"
    },
    {
      "channel": 4,
      "note": 78,
      "start": 38.9418,
      "duration": 0.0077,
      "velocity": 96,
      "chip": "ym2612"
    },
    {
      "channel": 1,
      "note": 85,
      "start": 38.9517,
      "duration": 0.0086,
      "velocity": 96,
      "chip": "ym2612"
    },
    {
      "channel": 4,
      "note": 80,
      "start": 38.9528,
      "duration": 0.0085,
      "velocity": 96,
      "chip": "ym2612"
    },
    {
      "channel": 0,
      "note": 61,
      "start": 38.9654,
      "duration": 0.0358,
      "velocity": 99,
      "chip": "ym2612"
    },
    {
      "channel": 1,
      "note": 90,
      "start": 38.9659,
      "duration": 0.0099,
      "velocity": 96,
      "chip": "ym2612"
    },
    {
      "channel": 2,
      "note": 49,
      "start": 38.9665,
      "duration": 0.0069,
      "velocity": 98,
      "chip": "ym2612"
    },
    {
      "channel": 3,
      "note": 61,
      "start": 38.9673,
      "duration": 0.0065,
      "velocity": 98,
      "chip": "ym2612"
    },
    {
      "channel": 4,
      "note": 85,
      "start": 38.9682,
      "duration": 0.0084,
      "velocity": 96,
      "chip": "ym2612"
    },
    {
      "channel": 1,
      "note": 92,
      "start": 38.9788,
      "duration": 0.0081,
      "velocity": 96,
      "chip": "ym2612"
    },
    {
      "channel": 4,
      "note": 78,
      "start": 38.9799,
      "duration": 0.0078,
      "velocity": 96,
      "chip": "ym2612"
    },
    {
      "channel": 1,
      "note": 97,
      "start": 38.9897,
      "duration": 0.008,
      "velocity": 96,
      "chip": "ym2612"
    },
    {
      "channel": 4,
      "note": 80,
      "start": 38.9908,
      "duration": 0.0078,
      "velocity": 96,
      "chip": "ym2612"
    },
    {
      "channel": 0,
      "note": 61,
      "start": 39.0014,
      "duration": 0.0368,
      "velocity": 99,
      "chip": "ym2612"
    },
    {
      "channel": 1,
      "note": 92,
      "start": 39.0019,
      "duration": 0.0107,
      "velocity": 96,
      "chip": "ym2612"
    },
    {
      "channel": 2,
      "note": 49,
      "start": 39.0026,
      "duration": 0.0321,
      "velocity": 98,
      "chip": "ym2612"
    },
    {
      "channel": 3,
      "note": 61,
      "start": 39.0033,
      "duration": 0.0317,
      "velocity": 98,
      "chip": "ym2612"
    },
    {
      "channel": 4,
      "note": 85,
      "start": 39.0039,
      "duration": 0.0095,
      "velocity": 96,
      "chip": "ym2612"
    },
    {
      "channel": 1,
      "note": 90,
      "start": 39.0155,
      "duration": 0.0081,
      "velocity": 96,
      "chip": "ym2612"
    },
    {
      "channel": 4,
      "note": 90,
      "start": 39.0168,
      "duration": 0.0076,
      "velocity": 96,
      "chip": "ym2612"
    },
    {
      "channel": 1,
      "note": 85,
      "start": 39.0265,
      "duration": 0.0079,
      "velocity": 96,
      "chip": "ym2612"
    },
    {
      "channel": 4,
      "note": 92,
      "start": 39.0276,
      "duration": 0.0077,
      "velocity": 96,
      "chip": "ym2612"
    },
    {
      "channel": 0,
      "note": 61,
      "start": 39.0384,
      "duration": 0.0363,
      "velocity": 99,
      "chip": "ym2612"
    },
    {
      "channel": 1,
      "note": 80,
      "start": 39.039,
      "duration": 0.0097,
      "velocity": 96,
      "chip": "ym2612"
    },
    {
      "channel": 2,
      "note": 49,
      "start": 39.0396,
      "duration": 0.0068,
      "velocity": 98,
      "chip": "ym2612"
    },
    {
      "channel": 3,
      "note": 61,
      "start": 39.0403,
      "duration": 0.0064,
      "velocity": 98,
      "chip": "ym2612"
    },
    {
      "channel": 4,
      "note": 97,
      "start": 39.041,
      "duration": 0.0085,
      "velocity": 96,
      "chip": "ym2612"
    },
    {
      "channel": 1,
      "note": 78,
      "start": 39.0517,
      "duration": 0.0086,
      "velocity": 96,
      "chip": "ym2612"
    },
    {
      "channel": 4,
      "note": 92,
      "start": 39.0528,
      "duration": 0.0083,
      "velocity": 96,
      "chip": "ym2612"
    },
    {
      "channel": 1,
      "note": 73,
      "start": 39.0631,
      "duration": 0.008,
      "velocity": 96,
      "chip": "ym2612"
    },
    {
      "channel": 4,
      "note": 90,
      "start": 39.0644,
      "duration": 0.0075,
      "velocity": 96,
      "chip": "ym2612"
    },
    {
      "channel": 0,
      "note": 64,
      "start": 39.075,
      "duration": 0.0349,
      "velocity": 99,
      "chip": "ym2612"
    },
    {
      "channel": 1,
      "note": 80,
      "start": 39.0756,
      "duration": 0.0101,
      "velocity": 96,
      "chip": "ym2612"
    },
    {
      "channel": 2,
      "note": 52,
      "start": 39.0763,
      "duration": 0.0315,
      "velocity": 98,
      "chip": "ym2612"
    },
    {
      "channel": 3,
      "note": 61,
      "start": 39.077,
      "duration": 0.0311,
      "velocity": 98,
      "chip": "ym2612"
    },
    {
      "channel": 4,
      "note": 85,
      "start": 39.0776,
      "duration": 0.0089,
      "velocity": 96,
      "chip": "ym2612"
    },
    {
      "channel": 1,
      "note": 78,
      "start": 39.0884,
      "duration": 0.0078,
      "velocity": 96,
      "chip": "ym2612"
    },
    {
      "channel": 4,
      "note": 80,
      "start": 39.0896,
      "duration": 0.0075,
      "velocity": 96,
      "chip": "ym2612"
    },
    {
      "channel": 1,
      "note": 73,
      "start": 39.0992,
      "duration": 0.0083,
      "velocity": 96,
      "chip": "ym2612"
    },
    {
      "channel": 4,
      "note": 78,
      "start": 39.1003,
      "duration": 0.0081,
      "velocity": 96,
      "chip": "ym2612"
    },
    {
      "channel": 1,
      "note": 68,
      "start": 39.1105,
      "duration": 0.0098,
      "velocity": 96,
      "chip": "ym2612"
    },
    {
      "channel": 4,
      "note": 73,
      "start": 39.112,
      "duration": 0.0092,
      "velocity": 96,
      "chip": "ym2612"
    },
    {
      "channel": 1,
      "note": 66,
      "start": 39.1232,
      "duration": 0.0082,
      "velocity": 96,
      "chip": "ym2612"
    },
    {
      "channel": 4,
      "note": 80,
      "start": 39.1243,
      "duration": 0.0079,
      "velocity": 96,
      "chip": "ym2612"
    },
    {
      "channel": 1,
      "note": 68,
      "start": 39.1341,
      "duration": 0.0082,
      "velocity": 96,
      "chip": "ym2612"
    },
    {
      "channel": 4,
      "note": 78,
      "start": 39.1353,
      "duration": 0.008,
      "velocity": 96,
      "chip": "ym2612"
    },
    {
      "channel": 0,
      "note": 52,
      "start": 39.1462,
      "duration": 0.07,
      "velocity": 99,
      "chip": "ym2612"
    },
    {
      "channel": 1,
      "note": 73,
      "start": 39.147,
      "duration": 0.0097,
      "velocity": 96,
      "chip": "ym2612"
    },
    {
      "channel": 2,
      "note": 52,
      "start": 39.1475,
      "duration": 0.0647,
      "velocity": 98,
      "chip": "ym2612"
    },
    {
      "channel": 3,
      "note": 59,
      "start": 39.1482,
      "duration": 0.0644,
      "velocity": 98,
      "chip": "ym2612"
    },
    {
      "channel": 4,
      "note": 73,
      "start": 39.1488,
      "duration": 0.0087,
      "velocity": 96,
      "chip": "ym2612"
    },
    {
      "channel": 1,
      "note": 78,
      "start": 39.1594,
      "duration": 0.0084,
      "velocity": 96,
      "chip": "ym2612"
    },
    {
      "channel": 4,
      "note": 68,
      "start": 39.1607,
      "duration": 0.0079,
      "velocity": 96,
      "chip": "ym2612"
    },
    {
      "channel": 1,
      "note": 80,
      "start": 39.1707,
      "duration": 0.0078,
      "velocity": 96,
      "chip": "ym2612"
    },
    {
      "channel": 4,
      "note": 66,
      "start": 39.1718,
      "duration": 0.0075,
      "velocity": 96,
      "chip": "ym2612"
    },
    {
      "channel": 1,
      "note": 85,
      "start": 39.1813,
      "duration": 0.0083,
      "velocity": 96,
      "chip": "ym2612"
    },
    {
      "channel": 4,
      "note": 68,
      "start": 39.1824,
      "duration": 0.0083,
      "velocity": 96,
      "chip": "ym2612"
    },
    {
      "channel": 1,
      "note": 90,
      "start": 39.1927,
      "duration": 0.0085,
      "velocity": 96,
      "chip": "ym2612"
    },
    {
      "channel": 4,
      "note": 73,
      "start": 39.1941,
      "duration": 0.0079,
      "velocity": 96,
      "chip": "ym2612"
    },
    {
      "channel": 1,
      "note": 92,
      "start": 39.2039,
      "duration": 0.008,
      "velocity": 96,
      "chip": "ym2612"
    },
    {
      "channel": 4,
      "note": 78,
      "start": 39.2052,
      "duration": 0.0077,
      "velocity": 96,
      "chip": "ym2612"
    },
    {
      "channel": 0,
      "note": 54,
      "start": 39.2164,
      "duration": 1.1736,
      "velocity": 99,
      "chip": "ym2612"
    },
    {
      "channel": 1,
      "note": 97,
      "start": 39.2171,
      "duration": 0.0144,
      "velocity": 96,
      "chip": "ym2612"
    },
    {
      "channel": 2,
      "note": 54,
      "start": 39.2176,
      "duration": 1.1702,
      "velocity": 98,
      "chip": "ym2612"
    },
    {
      "channel": 3,
      "note": 59,
      "start": 39.2183,
      "duration": 1.1699,
      "velocity": 98,
      "chip": "ym2612"
    },
    {
      "channel": 4,
      "note": 80,
      "start": 39.2189,
      "duration": 0.0079,
      "velocity": 96,
      "chip": "ym2612"
    },
    {
      "channel": 4,
      "note": 85,
      "start": 39.2297,
      "duration": 0.0079,
      "velocity": 96,
      "chip": "ym2612"
    },
    {
      "channel": 4,
      "note": 90,
      "start": 39.2405,
      "duration": 0.008,
      "velocity": 96,
      "chip": "ym2612"
    },
    {
      "channel": 4,
      "note": 92,
      "start": 39.2514,
      "duration": 0.0711,
      "velocity": 96,
      "chip": "ym2612"
    },
    {
      "channel": 1,
      "note": 85,
      "start": 39.4336,
      "duration": 0.1963,
      "velocity": 99,
      "chip": "ym2612"
    },
    {
      "channel": 4,
      "note": 97,
      "start": 39.4693,
      "duration": 0.2071,
      "velocity": 99,
      "chip": "ym2612"
    },
    {
      "channel": 1,
      "note": 84,
      "start": 39.6457,
      "duration": 0.1993,
      "velocity": 99,
      "chip": "ym2612"
    },
    {
      "channel": 4,
      "note": 85,
      "start": 39.6793,
      "duration": 0.2118,
      "velocity": 99,
      "chip": "ym2612"
    },
    {
      "channel": 1,
      "note": 82,
      "start": 39.8608,
      "duration": 0.0293,
      "velocity": 99,
      "chip": "ym2612"
    },
    {
      "channel": 1,
      "note": 84,
      "start": 39.8942,
      "duration": 0.2333,
      "velocity": 99,
      "chip": "ym2612"
    },
    {
      "channel": 4,
      "note": 84,
      "start": 39.8954,
      "duration": 0.0298,
      "velocity": 99,
      "chip": "ym2612"
    },
    {
      "channel": 4,
      "note": 82,
      "start": 39.9288,
      "duration": 0.245,
      "velocity": 99,
      "chip": "ym2612"
    },
    {
      "channel": 1,
      "note": 85,
      "start": 40.1434,
      "duration": 0.1986,
      "velocity": 99,
      "chip": "ym2612"
    },
    {
      "channel": 4,
      "note": 84,
      "start": 40.1771,
      "duration": 0.2114,
      "velocity": 99,
      "chip": "ym2612"
    },
    {
      "channel": 1,
      "note": 84,
      "start": 40.3577,
      "duration": 0.062,
      "velocity": 99,
      "chip": "ym2612"
    },
    {
      "channel": 0,
      "note": 54,
      "start": 40.3902,
      "duration": 0.0332,
      "velocity": 99,
      "chip": "ym2612"
    },
    {
      "channel": 2,
      "note": 54,
      "start": 40.391,
      "duration": 0.029,
      "velocity": 98,
      "chip": "ym2612"
    },
    {
      "channel": 3,
      "note": 61,
      "start": 40.3916,
      "duration": 0.0288,
      "velocity": 98,
      "chip": "ym2612"
    },
    {
      "channel": 4,
      "note": 85,
      "start": 40.3923,
      "duration": 0.0618,
      "velocity": 99,
      "chip": "ym2612"
    },
    {
      "channel": 0,
      "note": 56,
      "start": 40.4237,
      "duration": 0.0628,
      "velocity": 99,
      "chip": "ym2612"
    },
    {
      "channel": 1,
      "note": 85,
      "start": 40.4243,
      "duration": 0.0598,
      "velocity": 99,
      "chip": "ym2612"
    },
    {
      "channel": 2,
      "note": 56,
      "start": 40.4248,
      "duration": 0.0596,
      "velocity": 98,
      "chip": "ym2612"
    },
    {
      "channel": 3,
      "note": 61,
      "start": 40.4254,
      "duration": 0.0593,
      "velocity": 98,
      "chip": "ym2612"
    },
    {
      "channel": 4,
      "note": 84,
      "start": 40.4571,
      "duration": 0.0633,
      "velocity": 99,
      "chip": "ym2612"
    },
    {
      "channel": 0,
      "note": 57,
      "start": 40.4868,
      "duration": 0.0369,
      "velocity": 99,
      "chip": "ym2612"
    },
    {
      "channel": 1,
      "note": 87,
      "start": 40.4893,
      "duration": 0.0068,
      "velocity": 101,
      "chip": "ym2612"
    },
    {
      "channel": 2,
      "note": 57,
      "start": 40.49,
      "duration": 0.0068,
      "velocity": 98,
      "chip": "ym2612"
    },
    {
      "channel": 3,
      "note": 63,
      "start": 40.4907,
      "duration": 0.0064,
      "velocity": 98,
      "chip": "ym2612"
    },
    {
      "channel": 1,
      "note": 88,
      "start": 40.4964,
      "duration": 0.0988,
      "velocity": 101,
      "chip": "ym2612"
    },
    {
      "channel": 0,
      "note": 57,
      "start": 40.5239,
      "duration": 0.0365,
      "velocity": 99,
      "chip": "ym2612"
    },
    {
      "channel": 2,
      "note": 57,
      "start": 40.5247,
      "duration": 0.0092,
      "velocity": 98,
      "chip": "ym2612"
    },
    {
      "channel": 3,
      "note": 64,
      "start": 40.5253,
      "duration": 0.0089,
      "velocity": 98,
      "chip": "ym2612"
    },
    {
      "channel": 4,
      "note": 85,
      "start": 40.5288,
      "duration": 0.0032,
      "velocity": 101,
      "chip": "ym2612"
    },
    {
      "channel": 4,
      "note": 87,
      "start": 40.5348,
      "duration": 0.0907,
      "velocity": 101,
      "chip": "ym2612"
    },
    {
      "channel": 0,
      "note": 57,
      "start": 40.5607,
      "duration": 0.034,
      "velocity": 99,
      "chip": "ym2612"
    },
    {
      "channel": 2,
      "note": 64,
      "start": 40.5615,
      "duration": 0.0298,
      "velocity": 98,
      "chip": "ym2612"
    },
    {
      "channel": 3,
      "note": 64,
      "start": 40.5623,
      "duration": 0.0294,
      "velocity": 98,
      "chip": "ym2612"
    },
    {
      "channel": 0,
      "note": 57,
      "start": 40.5949,
      "duration": 0.0323,
      "velocity": 99,
      "chip": "ym2612"
    },
    {
      "channel": 1,
      "note": 85,
      "start": 40.5955,
      "duration": 0.2824,
      "velocity": 101,
      "chip": "ym2612"
    },
    {
      "channel": 2,
      "note": 57,
      "start": 40.5961,
      "duration": 0.0067,
      "velocity": 98,
      "chip": "ym2612"
    },
    {
      "channel": 3,
      "note": 69,
      "start": 40.5969,
      "duration": 0.0061,
      "velocity": 98,
      "chip": "ym2612"
    },
    {
      "channel": 0,
      "note": 57,
      "start": 40.6275,
      "duration": 0.1815,
      "velocity": 99,
      "chip": "ym2612"
    },
    {
      "channel": 2,
      "note": 57,
      "start": 40.6282,
      "duration": 0.0251,
      "velocity": 98,
      "chip": "ym2612"
    },
    {
      "channel": 3,
      "note": 64,
      "start": 40.6289,
      "duration": 0.0248,
      "velocity": 98,
      "chip": "ym2612"
    },
    {
      "channel": 4,
      "note": 88,
      "start": 40.6295,
      "duration": 0.2796,
      "velocity": 101,
      "chip": "ym2612"
    },
    {
      "channel": 0,
      "note": 57,
      "start": 40.8092,
      "duration": 0.0338,
      "velocity": 99,
      "chip": "ym2612"
    },
    {
      "channel": 2,
      "note": 64,
      "start": 40.8101,
      "duration": 0.0298,
      "velocity": 98,
      "chip": "ym2612"
    },
    {
      "channel": 3,
      "note": 64,
      "start": 40.8108,
      "duration": 0.0294,
      "velocity": 98,
      "chip": "ym2612"
    },
    {
      "channel": 0,
      "note": 57,
      "start": 40.8433,
      "duration": 0.034,
      "velocity": 99,
      "chip": "ym2612"
    },
    {
      "channel": 2,
      "note": 57,
      "start": 40.8442,
      "duration": 0.0067,
      "velocity": 98,
      "chip": "ym2612"
    },
    {
      "channel": 3,
      "note": 69,
      "start": 40.8449,
      "duration": 0.0063,
      "velocity": 98,
      "chip": "ym2612"
    },
    {
      "channel": 0,
      "note": 57,
      "start": 40.8776,
      "duration": 0.0344,
      "velocity": 99,
      "chip": "ym2612"
    },
    {
      "channel": 1,
      "note": 76,
      "start": 40.8781,
      "duration": 0.0089,
      "velocity": 101,
      "chip": "ym2612"
    },
    {
      "channel": 2,
      "note": 57,
      "start": 40.8787,
      "duration": 0.006,
      "velocity": 98,
      "chip": "ym2612"
    },
    {
      "channel": 3,
      "note": 64,
      "start": 40.8793,
      "duration": 0.0057,
      "velocity": 98,
      "chip": "ym2612"
    },
    {
      "channel": 1,
      "note": 81,
      "start": 40.8873,
      "duration": 0.0076,
      "velocity": 101,
      "chip": "ym2612"
    },
    {
      "channel": 1,
      "note": 85,
      "start": 40.8952,
      "duration": 0.0077,
      "velocity": 101,
      "chip": "ym2612"
    },
    {
      "channel": 1,
      "note": 88,
      "start": 40.9032,
      "duration": 0.0098,
      "velocity": 101,
      "chip": "ym2612"
    },
    {
      "channel": 0,
      "note": 59,
      "start": 40.9122,
      "duration": 0.0348,
      "velocity": 99,
      "chip": "ym2612"
    },
    {
      "channel": 1,
      "note": 90,
      "start": 40.9132,
      "duration": 0.1029,
      "velocity": 101,
      "chip": "ym2612"
    },
    {
      "channel": 2,
      "note": 59,
      "start": 40.9137,
      "duration": 0.0067,
      "velocity": 98,
      "chip": "ym2612"
    },
    {
      "channel": 3,
      "note": 64,
      "start": 40.9143,
      "duration": 0.0064,
      "velocity": 98,
      "chip": "ym2612"
    },
    {
      "channel": 4,
      "note": 85,
      "start": 40.915,
      "duration": 0.0061,
      "velocity": 101,
      "chip": "ym2612"
    },
    {
      "channel": 4,
      "note": 76,
      "start": 40.9243,
      "duration": 0.0052,
      "velocity": 101,
      "chip": "ym2612"
    },
    {
      "channel": 4,
      "note": 81,
      "start": 40.9324,
      "duration": 0.0052,
      "velocity": 101,
      "chip": "ym2612"
    },
    {
      "channel": 4,
      "note": 85,
      "start": 40.9404,
      "duration": 0.0051,
      "velocity": 101,
      "chip": "ym2612"
    },
    {
      "channel": 0,
      "note": 59,
      "start": 40.9472,
      "duration": 0.0339,
      "velocity": 99,
      "chip": "ym2612"
    },
    {
      "channel": 2,
      "note": 59,
      "start": 40.948,
      "duration": 0.0062,
      "velocity": 98,
      "chip": "ym2612"
    },
    {
      "channel": 3,
      "note": 66,
      "start": 40.9486,
      "duration": 0.0059,
      "velocity": 98,
      "chip": "ym2612"
    },
    {
      "channel": 4,
      "note": 88,
      "start": 40.9493,
      "duration": 0.0977,
      "velocity": 101,
      "chip": "ym2612"
    },
    {
      "channel": 0,
      "note": 59,
      "start": 40.9814,
      "duration": 0.034,
      "velocity": 99,
      "chip": "ym2612"
    },
    {
      "channel": 2,
      "note": 66,
      "start": 40.9823,
      "duration": 0.0304,
      "velocity": 98,
      "chip": "ym2612"
    },
    {
      "channel": 3,
      "note": 66,
      "start": 40.983,
      "duration": 0.03,
      "velocity": 98,
      "chip": "ym2612"
    },
    {
      "channel": 0,
      "note": 64,
      "start": 41.0157,
      "duration": 0.017,
      "velocity": 99,
      "chip": "ym2612"
    },
    {
      "channel": 1,
      "note": 87,
      "start": 41.0163,
      "duration": 0.249,
      "velocity": 101,
      "chip": "ym2612"
    },
    {
      "channel": 2,
      "note": 59,
      "start": 41.0169,
      "duration": 0.0063,
      "velocity": 98,
      "chip": "ym2612"
    },
    {
      "channel": 3,
      "note": 71,
      "start": 41.0176,
      "duration": 0.0059,
      "velocity": 98,
      "chip": "ym2612"
    },
    {
      "channel": 0,
      "note": 66,
      "start": 41.0329,
      "duration": 0.0156,
      "velocity": 99,
      "chip": "ym2612"
    },
    {
      "channel": 0,
      "note": 71,
      "start": 41.0488,
      "duration": 0.088,
      "velocity": 99,
      "chip": "ym2612"
    },
    {
      "channel": 2,
      "note": 59,
      "start": 41.0497,
      "duration": 0.0251,
      "velocity": 98,
      "chip": "ym2612"
    },
    {
      "channel": 3,
      "note": 66,
      "start": 41.0503,
      "duration": 0.0248,
      "velocity": 98,
      "chip": "ym2612"
    },
    {
      "channel": 4,
      "note": 90,
      "start": 41.0514,
      "duration": 0.2467,
      "velocity": 101,
      "chip": "ym2612"
    },
    {
      "channel": 0,
      "note": 66,
      "start": 41.137,
      "duration": 0.0935,
      "velocity": 99,
      "chip": "ym2612"
    },
    {
      "channel": 0,
      "note": 59,
      "start": 41.2307,
      "duration": 0.0339,
      "velocity": 99,
      "chip": "ym2612"
    },
    {
      "channel": 2,
      "note": 66,
      "start": 41.2317,
      "duration": 0.03,
      "velocity": 98,
      "chip": "ym2612"
    },
    {
      "channel": 3,
      "note": 66,
      "start": 41.2324,
      "duration": 0.0296,
      "velocity": 98,
      "chip": "ym2612"
    },
    {
      "channel": 0,
      "note": 59,
      "start": 41.2649,
      "duration": 0.0352,
      "velocity": 99,
      "chip": "ym2612"
    },
    {
      "channel": 1,
      "note": 95,
      "start": 41.2655,
      "duration": 0.0001,
      "velocity": 101,
      "chip": "ym2612"
    },
    {
      "channel": 1,
      "note": 97,
      "start": 41.2659,
      "duration": 0.134,
      "velocity": 101,
      "chip": "ym2612"
    },
    {
      "channel": 2,
      "note": 59,
      "start": 41.2667,
      "duration": 0.0069,
      "velocity": 98,
      "chip": "ym2612"
    },
    {
      "channel": 3,
      "note": 71,
      "start": 41.2674,
      "duration": 0.0065,
      "velocity": 98,
      "chip": "ym2612"
    },
    {
      "channel": 0,
      "note": 59,
      "start": 41.3004,
      "duration": 0.0339,
      "velocity": 99,
      "chip": "ym2612"
    },
    {
      "channel": 2,
      "note": 59,
      "start": 41.3011,
      "duration": 0.0068,
      "velocity": 98,
      "chip": "ym2612"
    },
    {
      "channel": 3,
      "note": 66,
      "start": 41.3017,
      "duration": 0.0066,
      "velocity": 98,
      "chip": "ym2612"
    },
    {
      "channel": 4,
      "note": 87,
      "start": 41.3024,
      "duration": 0.1281,
      "velocity": 101,
      "chip": "ym2612"
    },
    {
      "channel": 0,
      "note": 56,
      "start": 41.3345,
      "duration": 0.0322,
      "velocity": 99,
      "chip": "ym2612"
    },
    {
      "channel": 2,
      "note": 56,
      "start": 41.3354,
      "duration": 0.0292,
      "velocity": 98,
      "chip": "ym2612"
    },
    {
      "channel": 3,
      "note": 66,
      "start": 41.3361,
      "duration": 0.0288,
      "velocity": 98,
      "chip": "ym2612"
    },
    {
      "channel": 0,
      "note": 66,
      "start": 41.3669,
      "duration": 0.0324,
      "velocity": 99,
      "chip": "ym2612"
    },
    {
      "channel": 0,
      "note": 68,
      "start": 41.3996,
      "duration": 0.0338,
      "velocity": 99,
      "chip": "ym2612"
    },
    {
      "channel": 1,
      "note": 92,
      "start": 41.4002,
      "duration": 0.2,
      "velocity": 101,
      "chip": "ym2612"
    },
    {
      "channel": 0,
      "note": 56,
      "start": 41.4336,
      "duration": 0.034,
      "velocity": 99,
      "chip": "ym2612"
    },
    {
      "channel": 2,
      "note": 56,
      "start": 41.4344,
      "duration": 0.03,
      "velocity": 98,
      "chip": "ym2612"
    },
    {
      "channel": 3,
      "note": 63,
      "start": 41.435,
      "duration": 0.0297,
      "velocity": 98,
      "chip": "ym2612"
    },
    {
      "channel": 4,
      "note": 97,
      "start": 41.4357,
      "duration": 0.2332,
      "velocity": 101,
      "chip": "ym2612"
    },
    {
      "channel": 0,
      "note": 66,
      "start": 41.4678,
      "duration": 0.0309,
      "velocity": 99,
      "chip": "ym2612"
    },
    {
      "channel": 0,
      "note": 68,
      "start": 41.499,
      "duration": 0.0334,
      "velocity": 99,
      "chip": "ym2612"
    },
    {
      "channel": 0,
      "note": 56,
      "start": 41.5327,
      "duration": 0.034,
      "velocity": 99,
      "chip": "ym2612"
    },
    {
      "channel": 0,
      "note": 68,
      "start": 41.5669,
      "duration": 0.033,
      "velocity": 99,
      "chip": "ym2612"
    },
    {
      "channel": 2,
      "note": 56,
      "start": 41.5677,
      "duration": 0.0302,
      "velocity": 98,
      "chip": "ym2612"
    },
    {
      "channel": 3,
      "note": 63,
      "start": 41.5683,
      "duration": 0.0298,
      "velocity": 98,
      "chip": "ym2612"
    },
    {
      "channel": 0,
      "note": 68,
      "start": 41.6834,
      "duration": 0.039,
      "velocity": 99,
      "chip": "ym2612"
    },
    {
      "channel": 1,
      "note": 56,
      "start": 41.6863,
      "duration": 0.0237,
      "velocity": 98,
      "chip": "ym2612"
    },
    {
      "channel": 2,
      "note": 68,
      "start": 41.6886,
      "duration": 0.0216,
      "velocity": 98,
      "chip": "ym2612"
    },
    {
      "channel": 3,
      "note": 63,
      "start": 41.6918,
      "duration": 0.0187,
      "velocity": 98,
      "chip": "ym2612"
    },
    {
      "channel": 0,
      "note": 68,
      "start": 41.7226,
      "duration": 0.0397,
      "velocity": 99,
      "chip": "ym2612"
    },
    {
      "channel": 1,
      "note": 56,
      "start": 41.7249,
      "duration": 0.0253,
      "velocity": 98,
      "chip": "ym2612"
    },
    {
      "channel": 2,
      "note": 68,
      "start": 41.7254,
      "duration": 0.025,
      "velocity": 98,
      "chip": "ym2612"
    },
    {
      "channel": 3,
      "note": 63,
      "start": 41.7285,
      "duration": 0.0222,
      "velocity": 98,
      "chip": "ym2612"
    },
    {
      "channel": 4,
      "note": 92,
      "start": 41.7318,
      "duration": 0.029,
      "velocity": 98,
      "chip": "ym2612"
    },
    {
      "channel": 0,
      "note": 68,
      "start": 41.7625,
      "duration": 0.0337,
      "velocity": 99,
      "chip": "ym2612"
    },
    {
      "channel": 1,
      "note": 56,
      "start": 41.763,
      "duration": 0.0193,
      "velocity": 98,
      "chip": "ym2612"
    },
    {
      "channel": 2,
      "note": 68,
      "start": 41.7636,
      "duration": 0.0192,
      "velocity": 98,
      "chip": "ym2612"
    },
    {
      "channel": 3,
      "note": 63,
      "start": 41.7642,
      "duration": 0.0189,
      "velocity": 98,
      "chip": "ym2612"
    },
    {
      "channel": 4,
      "note": 56,
      "start": 41.7649,
      "duration": 0.0288,
      "velocity": 98,
      "chip": "ym2612"
    },
    {
      "channel": 0,
      "note": 68,
      "start": 41.7965,
      "duration": 0.0374,
      "velocity": 99,
      "chip": "ym2612"
    },
    {
      "channel": 1,
      "note": 56,
      "start": 41.7987,
      "duration": 0.022,
      "velocity": 98,
      "chip": "ym2612"
    },
    {
      "channel": 2,
      "note": 68,
      "start": 41.7993,
      "duration": 0.0217,
      "velocity": 98,
      "chip": "ym2612"
    },
    {
      "channel": 3,
      "note": 63,
      "start": 41.8025,
      "duration": 0.0188,
      "velocity": 98,
      "chip": "ym2612"
    },
    {
      "channel": 4,
      "note": 56,
      "start": 41.8035,
      "duration": 0.0285,
      "velocity": 98,
      "chip": "ym2612"
    },
    {
      "channel": 0,
      "note": 56,
      "start": 41.8341,
      "duration": 0.0333,
      "velocity": 99,
      "chip": "ym2612"
    },
    {
      "channel": 1,
      "note": 56,
      "start": 41.8346,
      "duration": 0.0195,
      "velocity": 98,
      "chip": "ym2612"
    },
    {
      "channel": 2,
      "note": 68,
      "start": 41.8351,
      "duration": 0.0192,
      "velocity": 98,
      "chip": "ym2612"
    },
    {
      "channel": 3,
      "note": 63,
      "start": 41.8359,
      "duration": 0.0188,
      "velocity": 98,
      "chip": "ym2612"
    },
    {
      "channel": 4,
      "note": 56,
      "start": 41.8366,
      "duration": 0.0283,
      "velocity": 98,
      "chip": "ym2612"
    },
    {
      "channel": 0,
      "note": 56,
      "start": 41.8676,
      "duration": 0.0385,
      "velocity": 99,
      "chip": "ym2612"
    },
    {
      "channel": 1,
      "note": 56,
      "start": 41.8699,
      "duration": 0.0232,
      "velocity": 98,
      "chip": "ym2612"
    },
    {
      "channel": 2,
      "note": 68,
      "start": 41.8704,
      "duration": 0.0229,
      "velocity": 98,
      "chip": "ym2612"
    },
    {
      "channel": 3,
      "note": 63,
      "start": 41.8735,
      "duration": 0.0202,
      "velocity": 98,
      "chip": "ym2612"
    },
    {
      "channel": 4,
      "note": 56,
      "start": 41.8742,
      "duration": 0.03,
      "velocity": 98,
      "chip": "ym2612"
    },
    {
      "channel": 0,
      "note": 56,
      "start": 41.9064,
      "duration": 0.0333,
      "velocity": 99,
      "chip": "ym2612"
    },
    {
      "channel": 1,
      "note": 56,
      "start": 41.9069,
      "duration": 0.02,
      "velocity": 98,
      "chip": "ym2612"
    },
    {
      "channel": 2,
      "note": 68,
      "start": 41.9075,
      "duration": 0.0197,
      "velocity": 98,
      "chip": "ym2612"
    },
    {
      "channel": 3,
      "note": 63,
      "start": 41.9081,
      "duration": 0.0194,
      "velocity": 98,
      "chip": "ym2612"
    },
    {
      "channel": 4,
      "note": 56,
      "start": 41.9088,
      "duration": 0.0292,
      "velocity": 98,
      "chip": "ym2612"
    },
    {
      "channel": 0,
      "note": 61,
      "start": 41.94,
      "duration": 0.1167,
      "velocity": 99,
      "chip": "ym2612"
    },
    {
      "channel": 1,
      "note": 88,
      "start": 41.9425,
      "duration": 0.0375,
      "velocity": 101,
      "chip": "ym2612"
    },
    {
      "channel": 2,
      "note": 85,
      "start": 41.9451,
      "duration": 0.0352,
      "velocity": 101,
      "chip": "ym2612"
    },
    {
      "channel": 3,
      "note": 63,
      "start": 41.9869,
      "duration": 0.0549,
      "velocity": 101,
      "chip": "ym2612"
    },
    {
      "channel": 4,
      "note": 56,
      "start": 41.9904,
      "duration": 0.0518,
      "velocity": 101,
      "chip": "ym2612"
    },
    {
      "channel": 1,
      "note": 86,
      "start": 42.0575,
      "duration": 0.1712,
      "velocity": 101,
      "chip": "ym2612"
    },
    {
      "channel": 2,
      "note": 83,
      "start": 42.0585,
      "duration": 0.1704,
      "velocity": 101,
      "chip": "ym2612"
    },
    {
      "channel": 1,
      "note": 87,
      "start": 42.2446,
      "duration": 0.359,
      "velocity": 101,
      "chip": "ym2612"
    },
    {
      "channel": 2,
      "note": 83,
      "start": 42.2452,
      "duration": 0.3587,
      "velocity": 101,
      "chip": "ym2612"
    },
    {
      "channel": 3,
      "note": 88,
      "start": 42.2458,
      "duration": 0.1708,
      "velocity": 101,
      "chip": "ym2612"
    },
    {
      "channel": 4,
      "note": 85,
      "start": 42.2471,
      "duration": 0.17,
      "velocity": 101,
      "chip": "ym2612"
    },
    {
      "channel": 3,
      "note": 88,
      "start": 42.4326,
      "duration": 0.3592,
      "velocity": 101,
      "chip": "ym2612"
    },
    {
      "channel": 4,
      "note": 85,
      "start": 42.4333,
      "duration": 0.3589,
      "velocity": 101,
      "chip": "ym2612"
    },
    {
      "channel": 1,
      "note": 83,
      "start": 42.6194,
      "duration": 0.1716,
      "velocity": 101,
      "chip": "ym2612"
    },
    {
      "channel": 0,
      "note": 61,
      "start": 42.8066,
      "duration": 0.0333,
      "velocity": 99,
      "chip": "ym2612"
    },
    {
      "channel": 1,
      "note": 85,
      "start": 42.8073,
      "duration": 0.0296,
      "velocity": 101,
      "chip": "ym2612"
    },
    {
      "channel": 3,
      "note": 87,
      "start": 42.8085,
      "duration": 0.0289,
      "velocity": 101,
      "chip": "ym2612"
    },
    {
      "channel": 0,
      "note": 61,
      "start": 42.8402,
      "duration": 0.0332,
      "velocity": 99,
      "chip": "ym2612"
    },
    {
      "channel": 1,
      "note": 80,
      "start": 42.8407,
      "duration": 0.0301,
      "velocity": 101,
      "chip": "ym2612"
    },
    {
      "channel": 3,
      "note": 83,
      "start": 42.8416,
      "duration": 0.0298,
      "velocity": 101,
      "chip": "ym2612"
    },
    {
      "channel": 1,
      "note": 88,
      "start": 42.874,
      "duration": 0.0687,
      "velocity": 101,
      "chip": "ym2612"
    },
    {
      "channel": 2,
      "note": 85,
      "start": 42.8745,
      "duration": 0.0684,
      "velocity": 101,
      "chip": "ym2612"
    },
    {
      "channel": 3,
      "note": 85,
      "start": 42.8751,
      "duration": 0.0681,
      "velocity": 101,
      "chip": "ym2612"
    },
    {
      "channel": 3,
      "note": 80,
      "start": 42.9592,
      "duration": 0.1716,
      "velocity": 101,
      "chip": "ym2612"
    },
    {
      "channel": 4,
      "note": 83,
      "start": 42.9599,
      "duration": 0.1713,
      "velocity": 101,
      "chip": "ym2612"
    },
    {
      "channel": 1,
      "note": 88,
      "start": 43.1459,
      "duration": 0.1716,
      "velocity": 101,
      "chip": "ym2612"
    },
    {
      "channel": 2,
      "note": 85,
      "start": 43.1465,
      "duration": 0.1714,
      "velocity": 101,
      "chip": "ym2612"
    },
    {
      "channel": 0,
      "note": 59,
      "start": 43.3332,
      "duration": 0.0334,
      "velocity": 99,
      "chip": "ym2612"
    },
    {
      "channel": 1,
      "note": 87,
      "start": 43.3337,
      "duration": 0.1024,
      "velocity": 101,
      "chip": "ym2612"
    },
    {
      "channel": 2,
      "note": 83,
      "start": 43.3342,
      "duration": 0.1022,
      "velocity": 101,
      "chip": "ym2612"
    },
    {
      "channel": 3,
      "note": 88,
      "start": 43.3349,
      "duration": 0.0298,
      "velocity": 101,
      "chip": "ym2612"
    },
    {
      "channel": 4,
      "note": 85,
      "start": 43.3355,
      "duration": 0.0295,
      "velocity": 101,
      "chip": "ym2612"
    },
    {
      "channel": 3,
      "note": 88,
      "start": 43.3677,
      "duration": 0.1147,
      "velocity": 101,
      "chip": "ym2612"
    },
    {
      "channel": 4,
      "note": 85,
      "start": 43.3684,
      "duration": 0.1144,
      "velocity": 101,
      "chip": "ym2612"
    },
    {
      "channel": 0,
      "note": 59,
      "start": 43.4518,
      "duration": 0.0326,
      "velocity": 99,
      "chip": "ym2612"
    },
    {
      "channel": 1,
      "note": 83,
      "start": 43.4523,
      "duration": 0.0295,
      "velocity": 101,
      "chip": "ym2612"
    },
    {
      "channel": 0,
      "note": 59,
      "start": 43.4847,
      "duration": 0.1169,
      "velocity": 99,
      "chip": "ym2612"
    },
    {
      "channel": 1,
      "note": 85,
      "start": 43.4852,
      "duration": 0.0289,
      "velocity": 101,
      "chip": "ym2612"
    },
    {
      "channel": 3,
      "note": 87,
      "start": 43.4861,
      "duration": 0.0286,
      "velocity": 101,
      "chip": "ym2612"
    },
    {
      "channel": 1,
      "note": 80,
      "start": 43.5173,
      "duration": 0.0689,
      "velocity": 101,
      "chip": "ym2612"
    },
    {
      "channel": 3,
      "note": 83,
      "start": 43.5181,
      "duration": 0.0687,
      "velocity": 101,
      "chip": "ym2612"
    },
    {
      "channel": 0,
      "note": 57,
      "start": 43.6018,
      "duration": 0.1169,
      "velocity": 99,
      "chip": "ym2612"
    },
    {
      "channel": 1,
      "note": 88,
      "start": 43.6023,
      "duration": 0.0304,
      "velocity": 101,
      "chip": "ym2612"
    },
    {
      "channel": 2,
      "note": 85,
      "start": 43.6029,
      "duration": 0.0301,
      "velocity": 101,
      "chip": "ym2612"
    },
    {
      "channel": 3,
      "note": 85,
      "start": 43.6035,
      "duration": 0.0298,
      "velocity": 101,
      "chip": "ym2612"
    },
    {
      "channel": 3,
      "note": 80,
      "start": 43.6365,
      "duration": 0.0675,
      "velocity": 101,
      "chip": "ym2612"
    },
    {
      "channel": 4,
      "note": 83,
      "start": 43.6372,
      "duration": 0.0671,
      "velocity": 101,
      "chip": "ym2612"
    },
    {
      "channel": 1,
      "note": 88,
      "start": 43.7193,
      "duration": 0.1715,
      "velocity": 101,
      "chip": "ym2612"
    },
    {
      "channel": 2,
      "note": 85,
      "start": 43.7198,
      "duration": 0.1716,
      "velocity": 101,
      "chip": "ym2612"
    },
    {
      "channel": 1,
      "note": 87,
      "start": 43.9067,
      "duration": 0.3589,
      "velocity": 101,
      "chip": "ym2612"
    },
    {
      "channel": 2,
      "note": 83,
      "start": 43.9072,
      "duration": 0.3587,
      "velocity": 101,
      "chip": "ym2612"
    },
    {
      "channel": 3,
      "note": 88,
      "start": 43.9082,
      "duration": 0.1705,
      "velocity": 101,
      "chip": "ym2612"
    },
    {
      "channel": 4,
      "note": 85,
      "start": 43.9088,
      "duration": 0.1702,
      "velocity": 101,
      "chip": "ym2612"
    },
    {
      "channel": 3,
      "note": 88,
      "start": 44.0946,
      "duration": 0.359,
      "velocity": 101,
      "chip": "ym2612"
    },
    {
      "channel": 4,
      "note": 85,
      "start": 44.0953,
      "duration": 0.3588,
      "velocity": 101,
      "chip": "ym2612"
    },
    {
      "channel": 1,
      "note": 83,
      "start": 44.2815,
      "duration": 0.1716,
      "velocity": 101,
      "chip": "ym2612"
    },
    {
      "channel": 0,
      "note": 57,
      "start": 44.4687,
      "duration": 0.0336,
      "velocity": 99,
      "chip": "ym2612"
    },
    {
      "channel": 1,
      "note": 80,
      "start": 44.4692,
      "duration": 0.0139,
      "velocity": 101,
      "chip": "ym2612"
    },
    {
      "channel": 3,
      "note": 87,
      "start": 44.47,
      "duration": 0.0294,
      "velocity": 101,
      "chip": "ym2612"
    },
    {
      "channel": 1,
      "note": 78,
      "start": 44.4858,
      "duration": 0.013,
      "velocity": 101,
      "chip": "ym2612"
    },
    {
      "channel": 0,
      "note": 57,
      "start": 44.5025,
      "duration": 0.0331,
      "velocity": 99,
      "chip": "ym2612"
    },
    {
      "channel": 1,
      "note": 80,
      "start": 44.503,
      "duration": 0.64,
      "velocity": 101,
      "chip": "ym2612"
    },
    {
      "channel": 3,
      "note": 83,
      "start": 44.504,
      "duration": 0.0138,
      "velocity": 101,
      "chip": "ym2612"
    },
    {
      "channel": 3,
      "note": 80,
      "start": 44.5206,
      "duration": 0.0131,
      "velocity": 101,
      "chip": "ym2612"
    },
    {
      "channel": 3,
      "note": 78,
      "start": 44.5368,
      "duration": 0.6427,
      "velocity": 101,
      "chip": "ym2612"
    },
    {
      "channel": 2,
      "note": 80,
      "start": 44.8095,
      "duration": 0.2157,
      "velocity": 95,
      "chip": "ym2612"
    },
    {
      "channel": 0,
      "note": 56,
      "start": 44.9945,
      "duration": 0.0356,
      "velocity": 99,
      "chip": "ym2612"
    },
    {
      "channel": 4,
      "note": 83,
      "start": 44.999,
      "duration": 0.098,
      "velocity": 95,
      "chip": "ym2612"
    },
    {
      "channel": 2,
      "note": 78,
      "start": 45.031,
      "duration": 0.1097,
      "velocity": 95,
      "chip": "ym2612"
    },
    {
      "channel": 0,
      "note": 56,
      "start": 45.1118,
      "duration": 0.0342,
      "velocity": 99,
      "chip": "ym2612"
    },
    {
      "channel": 4,
      "note": 80,
      "start": 45.1132,
      "duration": 0.0667,
      "velocity": 95,
      "chip": "ym2612"
    },
    {
      "channel": 0,
      "note": 56,
      "start": 45.1462,
      "duration": 0.0699,
      "velocity": 99,
      "chip": "ym2612"
    },
    {
      "channel": 2,
      "note": 75,
      "start": 45.1471,
      "duration": 0.0624,
      "velocity": 95,
      "chip": "ym2612"
    },
    {
      "channel": 4,
      "note": 78,
      "start": 45.1843,
      "duration": 0.0632,
      "velocity": 95,
      "chip": "ym2612"
    },
    {
      "channel": 0,
      "note": 57,
      "start": 45.2165,
      "duration": 0.1173,
      "velocity": 99,
      "chip": "ym2612"
    },
    {
      "channel": 1,
      "note": 81,
      "start": 45.2171,
      "duration": 0.1014,
      "velocity": 101,
      "chip": "ym2612"
    },
    {
      "channel": 2,
      "note": 76,
      "start": 45.218,
      "duration": 0.9312,
      "velocity": 95,
      "chip": "ym2612"
    },
    {
      "channel": 3,
      "note": 80,
      "start": 45.2501,
      "duration": 0.2563,
      "velocity": 101,
      "chip": "ym2612"
    },
    {
      "channel": 4,
      "note": 75,
      "start": 45.2508,
      "duration": 0.9695,
      "velocity": 95,
      "chip": "ym2612"
    },
    {
      "channel": 1,
      "note": 85,
      "start": 45.3344,
      "duration": 0.3589,
      "velocity": 101,
      "chip": "ym2612"
    },
    {
      "channel": 3,
      "note": 81,
      "start": 45.5222,
      "duration": 0.359,
      "velocity": 101,
      "chip": "ym2612"
    },
    {
      "channel": 1,
      "note": 88,
      "start": 45.7091,
      "duration": 0.359,
      "velocity": 101,
      "chip": "ym2612"
    },
    {
      "channel": 3,
      "note": 85,
      "start": 45.8971,
      "duration": 0.2183,
      "velocity": 101,
      "chip": "ym2612"
    },
    {
      "channel": 0,
      "note": 57,
      "start": 46.0838,
      "duration": 0.0341,
      "velocity": 99,
      "chip": "ym2612"
    },
    {
      "channel": 1,
      "note": 92,
      "start": 46.0843,
      "duration": 0.0305,
      "velocity": 101,
      "chip": "ym2612"
    },
    {
      "channel": 0,
      "note": 57,
      "start": 46.1181,
      "duration": 0.0337,
      "velocity": 99,
      "chip": "ym2612"
    },
    {
      "channel": 1,
      "note": 90,
      "start": 46.1187,
      "duration": 0.2883,
      "velocity": 101,
      "chip": "ym2612"
    },
    {
      "channel": 3,
      "note": 88,
      "start": 46.1195,
      "duration": 0.03,
      "velocity": 101,
      "chip": "ym2612"
    },
    {
      "channel": 2,
      "note": 75,
      "start": 46.1526,
      "duration": 0.4686,
      "velocity": 95,
      "chip": "ym2612"
    },
    {
      "channel": 3,
      "note": 92,
      "start": 46.1533,
      "duration": 0.3007,
      "velocity": 101,
      "chip": "ym2612"
    },
    {
      "channel": 4,
      "note": 76,
      "start": 46.2364,
      "duration": 0.423,
      "velocity": 95,
      "chip": "ym2612"
    },
    {
      "channel": 1,
      "note": 87,
      "start": 46.4228,
      "duration": 0.0638,
      "velocity": 101,
      "chip": "ym2612"
    },
    {
      "channel": 0,
      "note": 59,
      "start": 46.4568,
      "duration": 0.0322,
      "velocity": 99,
      "chip": "ym2612"
    },
    {
      "channel": 3,
      "note": 90,
      "start": 46.4579,
      "duration": 0.0607,
      "velocity": 101,
      "chip": "ym2612"
    },
    {
      "channel": 1,
      "note": 85,
      "start": 46.4896,
      "duration": 0.0624,
      "velocity": 101,
      "chip": "ym2612"
    },
    {
      "channel": 0,
      "note": 59,
      "start": 46.5223,
      "duration": 0.0331,
      "velocity": 99,
      "chip": "ym2612"
    },
    {
      "channel": 3,
      "note": 87,
      "start": 46.5239,
      "duration": 0.0646,
      "velocity": 101,
      "chip": "ym2612"
    },
    {
      "channel": 0,
      "note": 59,
      "start": 46.5557,
      "duration": 0.018,
      "velocity": 99,
      "chip": "ym2612"
    },
    {
      "channel": 1,
      "note": 83,
      "start": 46.5562,
      "duration": 0.0647,
      "velocity": 101,
      "chip": "ym2612"
    },
    {
      "channel": 0,
      "note": 71,
      "start": 46.5739,
      "duration": 0.0169,
      "velocity": 99,
      "chip": "ym2612"
    },
    {
      "channel": 0,
      "note": 59,
      "start": 46.591,
      "duration": 0.0338,
      "velocity": 99,
      "chip": "ym2612"
    },
    {
      "channel": 3,
      "note": 85,
      "start": 46.5921,
      "duration": 0.0666,
      "velocity": 101,
      "chip": "ym2612"
    },
    {
      "channel": 0,
      "note": 57,
      "start": 46.6251,
      "duration": 0.037,
      "velocity": 99,
      "chip": "ym2612"
    },
    {
      "channel": 1,
      "note": 81,
      "start": 46.6256,
      "duration": 0.1033,
      "velocity": 101,
      "chip": "ym2612"
    },
    {
      "channel": 2,
      "note": 73,
      "start": 46.6279,
      "duration": 0.1013,
      "velocity": 101,
      "chip": "ym2612"
    },
    {
      "channel": 0,
      "note": 57,
      "start": 46.6623,
      "duration": 0.0362,
      "velocity": 99,
      "chip": "ym2612"
    },
    {
      "channel": 3,
      "note": 83,
      "start": 46.6635,
      "duration": 0.0997,
      "velocity": 101,
      "chip": "ym2612"
    },
    {
      "channel": 4,
      "note": 75,
      "start": 46.6671,
      "duration": 0.0964,
      "velocity": 101,
      "chip": "ym2612"
    },
    {
      "channel": 0,
      "note": 57,
      "start": 46.6987,
      "duration": 0.0333,
      "velocity": 99,
      "chip": "ym2612"
    },
    {
      "channel": 0,
      "note": 56,
      "start": 46.7323,
      "duration": 0.0341,
      "velocity": 99,
      "chip": "ym2612"
    },
    {
      "channel": 1,
      "note": 83,
      "start": 46.7329,
      "duration": 0.097,
      "velocity": 101,
      "chip": "ym2612"
    },
    {
      "channel": 2,
      "note": 75,
      "start": 46.7334,
      "duration": 0.0968,
      "velocity": 101,
      "chip": "ym2612"
    },
    {
      "channel": 0,
      "note": 56,
      "start": 46.7667,
      "duration": 0.0338,
      "velocity": 99,
      "chip": "ym2612"
    },
    {
      "channel": 3,
      "note": 81,
      "start": 46.7678,
      "duration": 0.0969,
      "velocity": 101,
      "chip": "ym2612"
    },
    {
      "channel": 4,
      "note": 73,
      "start": 46.7684,
      "duration": 0.0966,
      "velocity": 101,
      "chip": "ym2612"
    },
    {
      "channel": 0,
      "note": 56,
      "start": 46.8007,
      "duration": 0.0331,
      "velocity": 99,
      "chip": "ym2612"
    },
    {
      "channel": 0,
      "note": 54,
      "start": 46.834,
      "duration": 0.0329,
      "velocity": 99,
      "chip": "ym2612"
    },
    {
      "channel": 1,
      "note": 85,
      "start": 46.8346,
      "duration": 0.0966,
      "velocity": 101,
      "chip": "ym2612"
    },
    {
      "channel": 2,
      "note": 76,
      "start": 46.8351,
      "duration": 0.0963,
      "velocity": 101,
      "chip": "ym2612"
    },
    {
      "channel": 0,
      "note": 54,
      "start": 46.8672,
      "duration": 0.0338,
      "velocity": 99,
      "chip": "ym2612"
    },
    {
      "channel": 3,
      "note": 83,
      "start": 46.8683,
      "duration": 0.0956,
      "velocity": 101,
      "chip": "ym2612"
    },
    {
      "channel": 4,
      "note": 75,
      "start": 46.869,
      "duration": 0.0953,
      "velocity": 101,
      "chip": "ym2612"
    },
    {
      "channel": 0,
      "note": 54,
      "start": 46.9013,
      "duration": 0.0322,
      "velocity": 99,
      "chip": "ym2612"
    },
    {
      "channel": 0,
      "note": 56,
      "start": 46.9337,
      "duration": 0.0329,
      "velocity": 99,
      "chip": "ym2612"
    },
    {
      "channel": 1,
      "note": 87,
      "start": 46.9343,
      "duration": 0.0967,
      "velocity": 101,
      "chip": "ym2612"
    },
    {
      "channel": 2,
      "note": 78,
      "start": 46.9348,
      "duration": 0.0964,
      "velocity": 101,
      "chip": "ym2612"
    },
    {
      "channel": 0,
      "note": 56,
      "start": 46.9669,
      "duration": 0.0334,
      "velocity": 99,
      "chip": "ym2612"
    },
    {
      "channel": 3,
      "note": 85,
      "start": 46.9683,
      "duration": 0.097,
      "velocity": 101,
      "chip": "ym2612"
    },
    {
      "channel": 4,
      "note": 76,
      "start": 46.969,
      "duration": 0.0968,
      "velocity": 101,
      "chip": "ym2612"
    },
    {
      "channel": 0,
      "note": 56,
      "start": 47.0006,
      "duration": 0.034,
      "velocity": 99,
      "chip": "ym2612"
    },
    {
      "channel": 0,
      "note": 57,
      "start": 47.0349,
      "duration": 0.0335,
      "velocity": 99,
      "chip": "ym2612"
    },
    {
      "channel": 1,
      "note": 88,
      "start": 47.0355,
      "duration": 0.0633,
      "velocity": 101,
      "chip": "ym2612"
    },
    {
      "channel": 2,
      "note": 80,
      "start": 47.036,
      "duration": 0.0521,
      "velocity": 101,
      "chip": "ym2612"
    },
    {
      "channel": 0,
      "note": 57,
      "start": 47.0687,
      "duration": 0.0335,
      "velocity": 99,
      "chip": "ym2612"
    },
    {
      "channel": 3,
      "note": 87,
      "start": 47.0698,
      "duration": 0.0632,
      "velocity": 101,
      "chip": "ym2612"
    },
    {
      "channel": 4,
      "note": 78,
      "start": 47.0704,
      "duration": 0.0522,
      "velocity": 101,
      "chip": "ym2612"
    },
    {
      "channel": 2,
      "note": 81,
      "start": 47.0909,
      "duration": 0.0741,
      "velocity": 101,
      "chip": "ym2612"
    },
    {
      "channel": 0,
      "note": 56,
      "start": 47.1024,
      "duration": 0.0326,
      "velocity": 99,
      "chip": "ym2612"
    },
    {
      "channel": 1,
      "note": 90,
      "start": 47.1029,
      "duration": 0.0618,
      "velocity": 101,
      "chip": "ym2612"
    },
    {
      "channel": 4,
      "note": 80,
      "start": 47.1254,
      "duration": 0.0025,
      "velocity": 101,
      "chip": "ym2612"
    },
    {
      "channel": 4,
      "note": 81,
      "start": 47.1307,
      "duration": 0.0027,
      "velocity": 101,
      "chip": "ym2612"
    },
    {
      "channel": 0,
      "note": 56,
      "start": 47.1353,
      "duration": 0.0335,
      "velocity": 99,
      "chip": "ym2612"
    },
    {
      "channel": 3,
      "note": 88,
      "start": 47.1364,
      "duration": 0.0629,
      "velocity": 101,
      "chip": "ym2612"
    },
    {
      "channel": 4,
      "note": 82,
      "start": 47.1371,
      "duration": 0.0626,
      "velocity": 101,
      "chip": "ym2612"
    },
    {
      "channel": 0,
      "note": 61,
      "start": 47.1691,
      "duration": 0.0322,
      "velocity": 99,
      "chip": "ym2612"
    },
    {
      "channel": 1,
      "note": 88,
      "start": 47.1696,
      "duration": 0.0291,
      "velocity": 101,
      "chip": "ym2612"
    },
    {
      "channel": 2,
      "note": 85,
      "start": 47.1702,
      "duration": 0.0288,
      "velocity": 101,
      "chip": "ym2612"
    },
    {
      "channel": 0,
      "note": 61,
      "start": 47.2015,
      "duration": 0.1824,
      "velocity": 99,
      "chip": "ym2612"
    },
    {
      "channel": 3,
      "note": 90,
      "start": 47.2028,
      "duration": 0.1663,
      "velocity": 101,
      "chip": "ym2612"
    },
    {
      "channel": 4,
      "note": 83,
      "start": 47.2036,
      "duration": 0.1659,
      "velocity": 101,
      "chip": "ym2612"
    },
    {
      "channel": 0,
      "note": 61,
      "start": 47.3842,
      "duration": 0.034,
      "velocity": 99,
      "chip": "ym2612"
    },
    {
      "channel": 1,
      "note": 86,
      "start": 47.3847,
      "duration": 0.0307,
      "velocity": 101,
      "chip": "ym2612"
    },
    {
      "channel": 2,
      "note": 83,
      "start": 47.3857,
      "duration": 0.0299,
      "velocity": 101,
      "chip": "ym2612"
    },
    {
      "channel": 0,
      "note": 61,
      "start": 47.4184,
      "duration": 0.0828,
      "velocity": 99,
      "chip": "ym2612"
    },
    {
      "channel": 1,
      "note": 87,
      "start": 47.419,
      "duration": 0.1129,
      "velocity": 101,
      "chip": "ym2612"
    },
    {
      "channel": 2,
      "note": 83,
      "start": 47.4196,
      "duration": 0.1125,
      "velocity": 101,
      "chip": "ym2612"
    },
    {
      "channel": 3,
      "note": 88,
      "start": 47.4203,
      "duration": 0.0661,
      "velocity": 101,
      "chip": "ym2612"
    },
    {
      "channel": 4,
      "note": 85,
      "start": 47.4215,
      "duration": 0.0652,
      "velocity": 101,
      "chip": "ym2612"
    },
    {
      "channel": 0,
      "note": 61,
      "start": 47.5015,
      "duration": 0.034,
      "velocity": 99,
      "chip": "ym2612"
    },
    {
      "channel": 3,
      "note": 88,
      "start": 47.5026,
      "duration": 0.0633,
      "velocity": 101,
      "chip": "ym2612"
    },
    {
      "channel": 4,
      "note": 85,
      "start": 47.5034,
      "duration": 0.0629,
      "velocity": 101,
      "chip": "ym2612"
    },
    {
      "channel": 0,
      "note": 61,
      "start": 47.5357,
      "duration": 0.0323,
      "velocity": 99,
      "chip": "ym2612"
    },
    {
      "channel": 1,
      "note": 83,
      "start": 47.5362,
      "duration": 0.0292,
      "velocity": 101,
      "chip": "ym2612"
    },
    {
      "channel": 0,
      "note": 61,
      "start": 47.5683,
      "duration": 0.0316,
      "velocity": 99,
      "chip": "ym2612"
    },
    {
      "channel": 1,
      "note": 85,
      "start": 47.5688,
      "duration": 0.0285,
      "velocity": 101,
      "chip": "ym2612"
    },
    {
      "channel": 3,
      "note": 87,
      "start": 47.5697,
      "duration": 0.0282,
      "velocity": 101,
      "chip": "ym2612"
    },
    {
      "channel": 0,
      "note": 61,
      "start": 47.6001,
      "duration": 0.0844,
      "velocity": 99,
      "chip": "ym2612"
    },
    {
      "channel": 1,
      "note": 80,
      "start": 47.601,
      "duration": 0.0681,
      "velocity": 101,
      "chip": "ym2612"
    },
    {
      "channel": 3,
      "note": 83,
      "start": 47.6019,
      "duration": 0.0679,
      "velocity": 101,
      "chip": "ym2612"
    },
    {
      "channel": 0,
      "note": 59,
      "start": 47.6848,
      "duration": 0.0336,
      "velocity": 99,
      "chip": "ym2612"
    },
    {
      "channel": 1,
      "note": 88,
      "start": 47.6853,
      "duration": 0.0306,
      "velocity": 101,
      "chip": "ym2612"
    },
    {
      "channel": 2,
      "note": 85,
      "start": 47.6859,
      "duration": 0.0303,
      "velocity": 101,
      "chip": "ym2612"
    },
    {
      "channel": 3,
      "note": 85,
      "start": 47.6865,
      "duration": 0.03,
      "velocity": 101,
      "chip": "ym2612"
    },
    {
      "channel": 0,
      "note": 59,
      "start": 47.7186,
      "duration": 0.1812,
      "velocity": 99,
      "chip": "ym2612"
    },
    {
      "channel": 3,
      "note": 80,
      "start": 47.7199,
      "duration": 0.1651,
      "velocity": 101,
      "chip": "ym2612"
    },
    {
      "channel": 4,
      "note": 83,
      "start": 47.7206,
      "duration": 0.1649,
      "velocity": 101,
      "chip": "ym2612"
    },
    {
      "channel": 0,
      "note": 59,
      "start": 47.9001,
      "duration": 0.0321,
      "velocity": 99,
      "chip": "ym2612"
    },
    {
      "channel": 1,
      "note": 88,
      "start": 47.9007,
      "duration": 0.0289,
      "velocity": 101,
      "chip": "ym2612"
    },
    {
      "channel": 2,
      "note": 85,
      "start": 47.9012,
      "duration": 0.0286,
      "velocity": 101,
      "chip": "ym2612"
    },
    {
      "channel": 0,
      "note": 59,
      "start": 47.9324,
      "duration": 0.0846,
      "velocity": 99,
      "chip": "ym2612"
    },
    {
      "channel": 1,
      "note": 87,
      "start": 47.933,
      "duration": 0.1141,
      "velocity": 101,
      "chip": "ym2612"
    },
    {
      "channel": 2,
      "note": 83,
      "start": 47.9336,
      "duration": 0.1138,
      "velocity": 101,
      "chip": "ym2612"
    },
    {
      "channel": 3,
      "note": 88,
      "start": 47.9346,
      "duration": 0.0675,
      "velocity": 101,
      "chip": "ym2612"
    },
    {
      "channel": 4,
      "note": 85,
      "start": 47.9353,
      "duration": 0.0672,
      "velocity": 101,
      "chip": "ym2612"
    },
    {
      "channel": 0,
      "note": 59,
      "start": 48.0172,
      "duration": 0.0339,
      "velocity": 99,
      "chip": "ym2612"
    },
    {
      "channel": 3,
      "note": 88,
      "start": 48.0183,
      "duration": 0.0627,
      "velocity": 101,
      "chip": "ym2612"
    },
    {
      "channel": 4,
      "note": 85,
      "start": 48.019,
      "duration": 0.0624,
      "velocity": 101,
      "chip": "ym2612"
    },
    {
      "channel": 0,
      "note": 59,
      "start": 48.0514,
      "duration": 0.0319,
      "velocity": 99,
      "chip": "ym2612"
    },
    {
      "channel": 1,
      "note": 83,
      "start": 48.0519,
      "duration": 0.0285,
      "velocity": 101,
      "chip": "ym2612"
    },
    {
      "channel": 0,
      "note": 59,
      "start": 48.0835,
      "duration": 0.0322,
      "velocity": 99,
      "chip": "ym2612"
    },
    {
      "channel": 1,
      "note": 85,
      "start": 48.0841,
      "duration": 0.0289,
      "velocity": 101,
      "chip": "ym2612"
    },
    {
      "channel": 3,
      "note": 87,
      "start": 48.0849,
      "duration": 0.0286,
      "velocity": 101,
      "chip": "ym2612"
    },
    {
      "channel": 0,
      "note": 59,
      "start": 48.116,
      "duration": 0.0846,
      "velocity": 99,
      "chip": "ym2612"
    },
    {
      "channel": 1,
      "note": 80,
      "start": 48.1165,
      "duration": 0.0687,
      "velocity": 101,
      "chip": "ym2612"
    },
    {
      "channel": 3,
      "note": 83,
      "start": 48.1174,
      "duration": 0.0685,
      "velocity": 101,
      "chip": "ym2612"
    },
    {
      "channel": 0,
      "note": 57,
      "start": 48.2009,
      "duration": 0.0326,
      "velocity": 99,
      "chip": "ym2612"
    },
    {
      "channel": 1,
      "note": 88,
      "start": 48.2014,
      "duration": 0.0295,
      "velocity": 101,
      "chip": "ym2612"
    },
    {
      "channel": 2,
      "note": 85,
      "start": 48.202,
      "duration": 0.0292,
      "velocity": 101,
      "chip": "ym2612"
    },
    {
      "channel": 3,
      "note": 85,
      "start": 48.2026,
      "duration": 0.0289,
      "velocity": 101,
      "chip": "ym2612"
    },
    {
      "channel": 0,
      "note": 57,
      "start": 48.2337,
      "duration": 0.1821,
      "velocity": 99,
      "chip": "ym2612"
    },
    {
      "channel": 3,
      "note": 80,
      "start": 48.2351,
      "duration": 0.1659,
      "velocity": 101,
      "chip": "ym2612"
    },
    {
      "channel": 4,
      "note": 83,
      "start": 48.2357,
      "duration": 0.1656,
      "velocity": 101,
      "chip": "ym2612"
    },
    {
      "channel": 0,
      "note": 57,
      "start": 48.416,
      "duration": 0.0331,
      "velocity": 99,
      "chip": "ym2612"
    },
    {
      "channel": 1,
      "note": 88,
      "start": 48.4166,
      "duration": 0.0299,
      "velocity": 101,
      "chip": "ym2612"
    },
    {
      "channel": 2,
      "note": 85,
      "start": 48.4171,
      "duration": 0.0297,
      "velocity": 101,
      "chip": "ym2612"
    },
    {
      "channel": 0,
      "note": 57,
      "start": 48.4494,
      "duration": 0.0833,
      "velocity": 99,
      "chip": "ym2612"
    },
    {
      "channel": 1,
      "note": 87,
      "start": 48.4499,
      "duration": 0.1128,
      "velocity": 101,
      "chip": "ym2612"
    },
    {
      "channel": 2,
      "note": 83,
      "start": 48.4505,
      "duration": 0.1125,
      "velocity": 101,
      "chip": "ym2612"
    },
    {
      "channel": 3,
      "note": 88,
      "start": 48.4511,
      "duration": 0.0668,
      "velocity": 101,
      "chip": "ym2612"
    },
    {
      "channel": 4,
      "note": 85,
      "start": 48.4518,
      "duration": 0.0665,
      "velocity": 101,
      "chip": "ym2612"
    },
    {
      "channel": 0,
      "note": 57,
      "start": 48.5329,
      "duration": 0.0332,
      "velocity": 99,
      "chip": "ym2612"
    },
    {
      "channel": 3,
      "note": 88,
      "start": 48.5343,
      "duration": 0.0625,
      "velocity": 101,
      "chip": "ym2612"
    },
    {
      "channel": 4,
      "note": 85,
      "start": 48.5349,
      "duration": 0.0622,
      "velocity": 101,
      "chip": "ym2612"
    },
    {
      "channel": 0,
      "note": 57,
      "start": 48.5664,
      "duration": 0.0324,
      "velocity": 99,
      "chip": "ym2612"
    },
    {
      "channel": 1,
      "note": 83,
      "start": 48.5669,
      "duration": 0.0293,
      "velocity": 101,
      "chip": "ym2612"
    },
    {
      "channel": 0,
      "note": 57,
      "start": 48.5991,
      "duration": 0.0328,
      "velocity": 99,
      "chip": "ym2612"
    },
    {
      "channel": 1,
      "note": 80,
      "start": 48.5996,
      "duration": 0.0135,
      "velocity": 101,
      "chip": "ym2612"
    },
    {
      "channel": 3,
      "note": 87,
      "start": 48.6005,
      "duration": 0.0296,
      "velocity": 101,
      "chip": "ym2612"
    },
    {
      "channel": 1,
      "note": 78,
      "start": 48.6158,
      "duration": 0.0137,
      "velocity": 101,
      "chip": "ym2612"
    },
    {
      "channel": 0,
      "note": 57,
      "start": 48.6322,
      "duration": 0.083,
      "velocity": 99,
      "chip": "ym2612"
    },
    {
      "channel": 1,
      "note": 80,
      "start": 48.6327,
      "duration": 0.4775,
      "velocity": 101,
      "chip": "ym2612"
    },
    {
      "channel": 3,
      "note": 83,
      "start": 48.6336,
      "duration": 0.0129,
      "velocity": 101,
      "chip": "ym2612"
    },
    {
      "channel": 3,
      "note": 80,
      "start": 48.6493,
      "duration": 0.0515,
      "velocity": 101,
      "chip": "ym2612"
    },
    {
      "channel": 0,
      "note": 56,
      "start": 48.7154,
      "duration": 0.0324,
      "velocity": 99,
      "chip": "ym2612"
    },
    {
      "channel": 3,
      "note": 78,
      "start": 48.7168,
      "duration": 0.4277,
      "velocity": 101,
      "chip": "ym2612"
    },
    {
      "channel": 0,
      "note": 56,
      "start": 48.7481,
      "duration": 0.1814,
      "velocity": 99,
      "chip": "ym2612"
    },
    {
      "channel": 0,
      "note": 56,
      "start": 48.9298,
      "duration": 0.0343,
      "velocity": 99,
      "chip": "ym2612"
    },
    {
      "channel": 2,
      "note": 80,
      "start": 48.9325,
      "duration": 0.083,
      "velocity": 95,
      "chip": "ym2612"
    },
    {
      "channel": 0,
      "note": 56,
      "start": 48.9644,
      "duration": 0.0817,
      "velocity": 99,
      "chip": "ym2612"
    },
    {
      "channel": 4,
      "note": 83,
      "start": 48.9685,
      "duration": 0.1088,
      "velocity": 95,
      "chip": "ym2612"
    },
    {
      "channel": 0,
      "note": 56,
      "start": 49.0463,
      "duration": 0.0328,
      "velocity": 99,
      "chip": "ym2612"
    },
    {
      "channel": 2,
      "note": 78,
      "start": 49.0471,
      "duration": 0.0606,
      "velocity": 95,
      "chip": "ym2612"
    },
    {
      "channel": 0,
      "note": 56,
      "start": 49.0794,
      "duration": 0.0339,
      "velocity": 99,
      "chip": "ym2612"
    },
    {
      "channel": 4,
      "note": 80,
      "start": 49.0808,
      "duration": 0.064,
      "velocity": 95,
      "chip": "ym2612"
    },
    {
      "channel": 0,
      "note": 56,
      "start": 49.1134,
      "duration": 0.0329,
      "velocity": 99,
      "chip": "ym2612"
    },
    {
      "channel": 2,
      "note": 75,
      "start": 49.1143,
      "duration": 0.0851,
      "velocity": 95,
      "chip": "ym2612"
    },
    {
      "channel": 0,
      "note": 56,
      "start": 49.1466,
      "duration": 0.0836,
      "velocity": 99,
      "chip": "ym2612"
    },
    {
      "channel": 4,
      "note": 78,
      "start": 49.1481,
      "duration": 0.1127,
      "velocity": 95,
      "chip": "ym2612"
    },
    {
      "channel": 0,
      "note": 57,
      "start": 49.2305,
      "duration": 0.0317,
      "velocity": 99,
      "chip": "ym2612"
    },
    {
      "channel": 1,
      "note": 81,
      "start": 49.231,
      "duration": 0.1984,
      "velocity": 101,
      "chip": "ym2612"
    },
    {
      "channel": 2,
      "note": 76,
      "start": 49.2315,
      "duration": 0.4847,
      "velocity": 95,
      "chip": "ym2612"
    },
    {
      "channel": 0,
      "note": 57,
      "start": 49.2624,
      "duration": 0.1824,
      "velocity": 99,
      "chip": "ym2612"
    },
    {
      "channel": 3,
      "note": 80,
      "start": 49.2638,
      "duration": 0.2117,
      "velocity": 101,
      "chip": "ym2612"
    },
    {
      "channel": 4,
      "note": 75,
      "start": 49.2645,
      "duration": 0.5131,
      "velocity": 95,
      "chip": "ym2612"
    },
    {
      "channel": 0,
      "note": 57,
      "start": 49.4451,
      "duration": 0.0323,
      "velocity": 99,
      "chip": "ym2612"
    },
    {
      "channel": 1,
      "note": 85,
      "start": 49.4456,
      "duration": 0.1016,
      "velocity": 101,
      "chip": "ym2612"
    },
    {
      "channel": 0,
      "note": 57,
      "start": 49.4776,
      "duration": 0.085,
      "velocity": 99,
      "chip": "ym2612"
    },
    {
      "channel": 3,
      "note": 81,
      "start": 49.4787,
      "duration": 0.1138,
      "velocity": 101,
      "chip": "ym2612"
    },
    {
      "channel": 0,
      "note": 57,
      "start": 49.5628,
      "duration": 0.0329,
      "velocity": 99,
      "chip": "ym2612"
    },
    {
      "channel": 1,
      "note": 88,
      "start": 49.5634,
      "duration": 0.062,
      "velocity": 101,
      "chip": "ym2612"
    },
    {
      "channel": 0,
      "note": 57,
      "start": 49.596,
      "duration": 0.0328,
      "velocity": 99,
      "chip": "ym2612"
    },
    {
      "channel": 3,
      "note": 85,
      "start": 49.5973,
      "duration": 0.0627,
      "velocity": 101,
      "chip": "ym2612"
    },
    {
      "channel": 0,
      "note": 57,
      "start": 49.629,
      "duration": 0.0328,
      "velocity": 99,
      "chip": "ym2612"
    },
    {
      "channel": 1,
      "note": 92,
      "start": 49.6296,
      "duration": 0.0298,
      "velocity": 101,
      "chip": "ym2612"
    },
    {
      "channel": 0,
      "note": 57,
      "start": 49.6621,
      "duration": 0.0849,
      "velocity": 99,
      "chip": "ym2612"
    },
    {
      "channel": 1,
      "note": 90,
      "start": 49.6626,
      "duration": 0.2841,
      "velocity": 101,
      "chip": "ym2612"
    },
    {
      "channel": 3,
      "note": 88,
      "start": 49.6635,
      "duration": 0.0686,
      "velocity": 101,
      "chip": "ym2612"
    },
    {
      "channel": 0,
      "note": 59,
      "start": 49.7473,
      "duration": 0.032,
      "velocity": 99,
      "chip": "ym2612"
    },
    {
      "channel": 2,
      "note": 75,
      "start": 49.748,
      "duration": 0.4868,
      "velocity": 95,
      "chip": "ym2612"
    },
    {
      "channel": 3,
      "note": 92,
      "start": 49.7487,
      "duration": 0.245,
      "velocity": 101,
      "chip": "ym2612"
    },
    {
      "channel": 0,
      "note": 59,
      "start": 49.7795,
      "duration": 0.1825,
      "velocity": 99,
      "chip": "ym2612"
    },
    {
      "channel": 4,
      "note": 76,
      "start": 49.781,
      "duration": 0.5159,
      "velocity": 95,
      "chip": "ym2612"
    },
    {
      "channel": 0,
      "note": 59,
      "start": 49.9623,
      "duration": 0.0331,
      "velocity": 99,
      "chip": "ym2612"
    },
    {
      "channel": 1,
      "note": 87,
      "start": 49.9629,
      "duration": 0.1021,
      "velocity": 101,
      "chip": "ym2612"
    },
    {
      "channel": 0,
      "note": 59,
      "start": 49.9957,
      "duration": 0.0847,
      "velocity": 99,
      "chip": "ym2612"
    },
    {
      "channel": 3,
      "note": 90,
      "start": 49.9968,
      "duration": 0.1142,
      "velocity": 101,
      "chip": "ym2612"
    },
    {
      "channel": 0,
      "note": 59,
      "start": 50.0806,
      "duration": 0.0339,
      "velocity": 99,
      "chip": "ym2612"
    },
    {
      "channel": 1,
      "note": 85,
      "start": 50.0812,
      "duration": 0.0627,
      "velocity": 101,
      "chip": "ym2612"
    },
    {
      "channel": 0,
      "note": 59,
      "start": 50.1148,
      "duration": 0.0328,
      "velocity": 99,
      "chip": "ym2612"
    },
    {
      "channel": 3,
      "note": 87,
      "start": 50.1159,
      "duration": 0.0629,
      "velocity": 101,
      "chip": "ym2612"
    },
    {
      "channel": 0,
      "note": 59,
      "start": 50.1482,
      "duration": 0.0325,
      "velocity": 99,
      "chip": "ym2612"
    },
    {
      "channel": 1,
      "note": 83,
      "start": 50.1488,
      "duration": 0.1015,
      "velocity": 101,
      "chip": "ym2612"
    },
    {
      "channel": 0,
      "note": 59,
      "start": 50.181,
      "duration": 0.0846,
      "velocity": 99,
      "chip": "ym2612"
    },
    {
      "channel": 3,
      "note": 85,
      "start": 50.1821,
      "duration": 0.1143,
      "velocity": 101,
      "chip": "ym2612"
    },
    {
      "channel": 0,
      "note": 61,
      "start": 50.2658,
      "duration": 0.0325,
      "velocity": 99,
      "chip": "ym2612"
    },
    {
      "channel": 1,
      "note": 85,
      "start": 50.2664,
      "duration": 0.5015,
      "velocity": 101,
      "chip": "ym2612"
    },
    {
      "channel": 2,
      "note": 76,
      "start": 50.2669,
      "duration": 0.4856,
      "velocity": 95,
      "chip": "ym2612"
    },
    {
      "channel": 0,
      "note": 61,
      "start": 50.2986,
      "duration": 0.1821,
      "velocity": 99,
      "chip": "ym2612"
    },
    {
      "channel": 3,
      "note": 83,
      "start": 50.2997,
      "duration": 0.4688,
      "velocity": 101,
      "chip": "ym2612"
    },
    {
      "channel": 4,
      "note": 75,
      "start": 50.3004,
      "duration": 0.5242,
      "velocity": 95,
      "chip": "ym2612"
    },
    {
      "channel": 0,
      "note": 61,
      "start": 50.481,
      "duration": 0.0329,
      "velocity": 99,
      "chip": "ym2612"
    },
    {
      "channel": 0,
      "note": 61,
      "start": 50.5141,
      "duration": 0.0842,
      "velocity": 99,
      "chip": "ym2612"
    },
    {
      "channel": 0,
      "note": 61,
      "start": 50.5986,
      "duration": 0.0339,
      "velocity": 99,
      "chip": "ym2612"
    },
    {
      "channel": 0,
      "note": 61,
      "start": 50.6327,
      "duration": 0.0333,
      "velocity": 99,
      "chip": "ym2612"
    },
    {
      "channel": 0,
      "note": 61,
      "start": 50.6663,
      "duration": 0.0333,
      "velocity": 99,
      "chip": "ym2612"
    },
    {
      "channel": 0,
      "note": 61,
      "start": 50.6999,
      "duration": 0.0834,
      "velocity": 99,
      "chip": "ym2612"
    },
    {
      "channel": 0,
      "note": 59,
      "start": 50.7835,
      "duration": 0.0248,
      "velocity": 99,
      "chip": "ym2612"
    },
    {
      "channel": 3,
      "note": 85,
      "start": 50.7914,
      "duration": 0.0144,
      "velocity": 98,
      "chip": "ym2612"
    },
    {
      "channel": 0,
      "note": 60,
      "start": 50.8085,
      "duration": 0.0188,
      "velocity": 99,
      "chip": "ym2612"
    },
    {
      "channel": 3,
      "note": 59,
      "start": 50.81,
      "duration": 0.0142,
      "velocity": 98,
      "chip": "ym2612"
    },
    {
      "channel": 0,
      "note": 61,
      "start": 50.8276,
      "duration": 0.0201,
      "velocity": 99,
      "chip": "ym2612"
    },
    {
      "channel": 1,
      "note": 80,
      "start": 50.8281,
      "duration": 0.0339,
      "velocity": 99,
      "chip": "ym2612"
    },
    {
      "channel": 3,
      "note": 60,
      "start": 50.829,
      "duration": 0.0169,
      "velocity": 98,
      "chip": "ym2612"
    },
    {
      "channel": 4,
      "note": 76,
      "start": 50.8325,
      "duration": 0.0138,
      "velocity": 98,
      "chip": "ym2612"
    },
    {
      "channel": 2,
      "note": 80,
      "start": 50.8381,
      "duration": 0.0329,
      "velocity": 99,
      "chip": "ym2612"
    },
    {
      "channel": 4,
      "note": 59,
      "start": 50.8493,
      "duration": 0.0137,
      "velocity": 98,
      "chip": "ym2612"
    },
    {
      "channel": 0,
      "note": 59,
      "start": 50.8654,
      "duration": 0.0185,
      "velocity": 99,
      "chip": "ym2612"
    },
    {
      "channel": 1,
      "note": 85,
      "start": 50.8659,
      "duration": 0.0324,
      "velocity": 99,
      "chip": "ym2612"
    },
    {
      "channel": 3,
      "note": 61,
      "start": 50.8668,
      "duration": 0.0147,
      "velocity": 98,
      "chip": "ym2612"
    },
    {
      "channel": 4,
      "note": 60,
      "start": 50.8675,
      "duration": 0.0144,
      "velocity": 98,
      "chip": "ym2612"
    },
    {
      "channel": 2,
      "note": 85,
      "start": 50.8737,
      "duration": 0.0343,
      "velocity": 99,
      "chip": "ym2612"
    },
    {
      "channel": 0,
      "note": 60,
      "start": 50.8841,
      "duration": 0.0184,
      "velocity": 99,
      "chip": "ym2612"
    },
    {
      "channel": 3,
      "note": 59,
      "start": 50.8852,
      "duration": 0.0137,
      "velocity": 98,
      "chip": "ym2612"
    },
    {
      "channel": 0,
      "note": 61,
      "start": 50.903,
      "duration": 0.0182,
      "velocity": 99,
      "chip": "ym2612"
    },
    {
      "channel": 1,
      "note": 88,
      "start": 50.9036,
      "duration": 0.0309,
      "velocity": 99,
      "chip": "ym2612"
    },
    {
      "channel": 3,
      "note": 60,
      "start": 50.9044,
      "duration": 0.015,
      "velocity": 98,
      "chip": "ym2612"
    },
    {
      "channel": 4,
      "note": 61,
      "start": 50.9051,
      "duration": 0.0147,
      "velocity": 98,
      "chip": "ym2612"
    },
    {
      "channel": 2,
      "note": 88,
      "start": 50.911,
      "duration": 0.0329,
      "velocity": 99,
      "chip": "ym2612"
    },
    {
      "channel": 4,
      "note": 59,
      "start": 50.9228,
      "duration": 0.0126,
      "velocity": 98,
      "chip": "ym2612"
    },
    {
      "channel": 0,
      "note": 64,
      "start": 50.939,
      "duration": 0.0337,
      "velocity": 99,
      "chip": "ym2612"
    },
    {
      "channel": 1,
      "note": 92,
      "start": 50.9396,
      "duration": 0.0301,
      "velocity": 99,
      "chip": "ym2612"
    },
    {
      "channel": 3,
      "note": 61,
      "start": 50.9404,
      "duration": 0.0298,
      "velocity": 98,
      "chip": "ym2612"
    },
    {
      "channel": 4,
      "note": 60,
      "start": 50.9411,
      "duration": 0.0138,
      "velocity": 98,
      "chip": "ym2612"
    },
    {
      "channel": 2,
      "note": 92,
      "start": 50.9466,
      "duration": 0.0317,
      "velocity": 99,
      "chip": "ym2612"
    },
    {
      "channel": 0,
      "note": 61,
      "start": 50.973,
      "duration": 0.0332,
      "velocity": 99,
      "chip": "ym2612"
    },
    {
      "channel": 1,
      "note": 90,
      "start": 50.9736,
      "duration": 0.0304,
      "velocity": 99,
      "chip": "ym2612"
    },
    {
      "channel": 3,
      "note": 64,
      "start": 50.9744,
      "duration": 0.0615,
      "velocity": 98,
      "chip": "ym2612"
    },
    {
      "channel": 4,
      "note": 61,
      "start": 50.9751,
      "duration": 0.0297,
      "velocity": 98,
      "chip": "ym2612"
    },
    {
      "channel": 2,
      "note": 90,
      "start": 50.981,
      "duration": 0.0292,
      "velocity": 99,
      "chip": "ym2612"
    },
    {
      "channel": 0,
      "note": 61,
      "start": 51.0064,
      "duration": 0.0313,
      "velocity": 99,
      "chip": "ym2612"
    },
    {
      "channel": 1,
      "note": 88,
      "start": 51.007,
      "duration": 0.028,
      "velocity": 99,
      "chip": "ym2612"
    },
    {
      "channel": 4,
      "note": 64,
      "start": 51.0081,
      "duration": 0.061,
      "velocity": 98,
      "chip": "ym2612"
    },
    {
      "channel": 2,
      "note": 88,
      "start": 51.0129,
      "duration": 0.03,
      "velocity": 99,
      "chip": "ym2612"
    },
    {
      "channel": 0,
      "note": 59,
      "start": 51.038,
      "duration": 0.0333,
      "velocity": 99,
      "chip": "ym2612"
    },
    {
      "channel": 1,
      "note": 85,
      "start": 51.0386,
      "duration": 0.0296,
      "velocity": 99,
      "chip": "ym2612"
    },
    {
      "channel": 3,
      "note": 61,
      "start": 51.0398,
      "duration": 0.0289,
      "velocity": 98,
      "chip": "ym2612"
    },
    {
      "channel": 2,
      "note": 85,
      "start": 51.046,
      "duration": 0.0224,
      "velocity": 99,
      "chip": "ym2612"
    },
    {
      "channel": 0,
      "note": 57,
      "start": 51.0715,
      "duration": 0.0394,
      "velocity": 99,
      "chip": "ym2612"
    },
    {
      "channel": 1,
      "note": 80,
      "start": 51.074,
      "duration": 0.4986,
      "velocity": 99,
      "chip": "ym2612"
    },
    {
      "channel": 4,
      "note": 61,
      "start": 51.0802,
      "duration": 0.0292,
      "velocity": 98,
      "chip": "ym2612"
    },
    {
      "channel": 0,
      "note": 57,
      "start": 51.1111,
      "duration": 0.1747,
      "velocity": 99,
      "chip": "ym2612"
    },
    {
      "channel": 2,
      "note": 80,
      "start": 51.1119,
      "duration": 0.5071,
      "velocity": 99,
      "chip": "ym2612"
    },
    {
      "channel": 3,
      "note": 59,
      "start": 51.1125,
      "duration": 0.1585,
      "velocity": 92,
      "chip": "ym2612"
    },
    {
      "channel": 0,
      "note": 57,
      "start": 51.2861,
      "duration": 0.0327,
      "velocity": 99,
      "chip": "ym2612"
    },
    {
      "channel": 3,
      "note": 64,
      "start": 51.2872,
      "duration": 0.0294,
      "velocity": 92,
      "chip": "ym2612"
    },
    {
      "channel": 4,
      "note": 59,
      "start": 51.2879,
      "duration": 0.5008,
      "velocity": 99,
      "chip": "ym2612"
    },
    {
      "channel": 0,
      "note": 57,
      "start": 51.3191,
      "duration": 0.0835,
      "velocity": 99,
      "chip": "ym2612"
    },
    {
      "channel": 3,
      "note": 73,
      "start": 51.3202,
      "duration": 0.0675,
      "velocity": 92,
      "chip": "ym2612"
    },
    {
      "channel": 0,
      "note": 57,
      "start": 51.4028,
      "duration": 0.0339,
      "velocity": 99,
      "chip": "ym2612"
    },
    {
      "channel": 3,
      "note": 64,
      "start": 51.404,
      "duration": 0.0304,
      "velocity": 92,
      "chip": "ym2612"
    },
    {
      "channel": 0,
      "note": 57,
      "start": 51.437,
      "duration": 0.0339,
      "velocity": 99,
      "chip": "ym2612"
    },
    {
      "channel": 3,
      "note": 76,
      "start": 51.4381,
      "duration": 0.0305,
      "velocity": 92,
      "chip": "ym2612"
    },
    {
      "channel": 0,
      "note": 57,
      "start": 51.4712,
      "duration": 0.0342,
      "velocity": 99,
      "chip": "ym2612"
    },
    {
      "channel": 3,
      "note": 64,
      "start": 51.4723,
      "duration": 0.0307,
      "velocity": 92,
      "chip": "ym2612"
    },
    {
      "channel": 0,
      "note": 57,
      "start": 51.5056,
      "duration": 0.0826,
      "velocity": 99,
      "chip": "ym2612"
    },
    {
      "channel": 3,
      "note": 73,
      "start": 51.5068,
      "duration": 0.0664,
      "velocity": 92,
      "chip": "ym2612"
    },
    {
      "channel": 0,
      "note": 59,
      "start": 51.5885,
      "duration": 0.0326,
      "velocity": 99,
      "chip": "ym2612"
    },
    {
      "channel": 1,
      "note": 78,
      "start": 51.5891,
      "duration": 0.3159,
      "velocity": 99,
      "chip": "ym2612"
    },
    {
      "channel": 0,
      "note": 59,
      "start": 51.6213,
      "duration": 0.1819,
      "velocity": 99,
      "chip": "ym2612"
    },
    {
      "channel": 2,
      "note": 78,
      "start": 51.6221,
      "duration": 0.329,
      "velocity": 99,
      "chip": "ym2612"
    },
    {
      "channel": 3,
      "note": 64,
      "start": 51.6227,
      "duration": 0.1656,
      "velocity": 92,
      "chip": "ym2612"
    },
    {
      "channel": 0,
      "note": 59,
      "start": 51.8035,
      "duration": 0.0333,
      "velocity": 99,
      "chip": "ym2612"
    },
    {
      "channel": 3,
      "note": 63,
      "start": 51.8046,
      "duration": 0.0303,
      "velocity": 92,
      "chip": "ym2612"
    },
    {
      "channel": 4,
      "note": 80,
      "start": 51.8053,
      "duration": 0.181,
      "velocity": 99,
      "chip": "ym2612"
    },
    {
      "channel": 0,
      "note": 59,
      "start": 51.837,
      "duration": 0.083,
      "velocity": 99,
      "chip": "ym2612"
    },
    {
      "channel": 3,
      "note": 71,
      "start": 51.8381,
      "duration": 0.0675,
      "velocity": 92,
      "chip": "ym2612"
    },
    {
      "channel": 0,
      "note": 59,
      "start": 51.9204,
      "duration": 0.0346,
      "velocity": 99,
      "chip": "ym2612"
    },
    {
      "channel": 1,
      "note": 83,
      "start": 51.9209,
      "duration": 0.1691,
      "velocity": 99,
      "chip": "ym2612"
    },
    {
      "channel": 3,
      "note": 63,
      "start": 51.9221,
      "duration": 0.0294,
      "velocity": 92,
      "chip": "ym2612"
    },
    {
      "channel": 0,
      "note": 59,
      "start": 51.9553,
      "duration": 0.0334,
      "velocity": 99,
      "chip": "ym2612"
    },
    {
      "channel": 2,
      "note": 83,
      "start": 51.956,
      "duration": 0.1796,
      "velocity": 99,
      "chip": "ym2612"
    },
    {
      "channel": 3,
      "note": 75,
      "start": 51.9566,
      "duration": 0.0292,
      "velocity": 92,
      "chip": "ym2612"
    },
    {
      "channel": 0,
      "note": 59,
      "start": 51.9889,
      "duration": 0.0335,
      "velocity": 99,
      "chip": "ym2612"
    },
    {
      "channel": 3,
      "note": 63,
      "start": 51.9901,
      "duration": 0.0304,
      "velocity": 92,
      "chip": "ym2612"
    },
    {
      "channel": 4,
      "note": 78,
      "start": 51.9907,
      "duration": 0.3147,
      "velocity": 99,
      "chip": "ym2612"
    },
    {
      "channel": 0,
      "note": 57,
      "start": 52.0227,
      "duration": 0.0827,
      "velocity": 99,
      "chip": "ym2612"
    },
    {
      "channel": 3,
      "note": 71,
      "start": 52.0239,
      "duration": 0.0669,
      "velocity": 92,
      "chip": "ym2612"
    },
    {
      "channel": 0,
      "note": 56,
      "start": 52.1056,
      "duration": 0.0321,
      "velocity": 99,
      "chip": "ym2612"
    },
    {
      "channel": 1,
      "note": 75,
      "start": 52.1062,
      "duration": 0.0292,
      "velocity": 99,
      "chip": "ym2612"
    },
    {
      "channel": 0,
      "note": 56,
      "start": 52.138,
      "duration": 0.1819,
      "velocity": 99,
      "chip": "ym2612"
    },
    {
      "channel": 1,
      "note": 76,
      "start": 52.1385,
      "duration": 0.1659,
      "velocity": 99,
      "chip": "ym2612"
    },
    {
      "channel": 2,
      "note": 75,
      "start": 52.1391,
      "duration": 0.1656,
      "velocity": 99,
      "chip": "ym2612"
    },
    {
      "channel": 3,
      "note": 63,
      "start": 52.1397,
      "duration": 0.1654,
      "velocity": 92,
      "chip": "ym2612"
    },
    {
      "channel": 0,
      "note": 56,
      "start": 52.3201,
      "duration": 0.0336,
      "velocity": 99,
      "chip": "ym2612"
    },
    {
      "channel": 1,
      "note": 78,
      "start": 52.3206,
      "duration": 0.0305,
      "velocity": 99,
      "chip": "ym2612"
    },
    {
      "channel": 2,
      "note": 76,
      "start": 52.3212,
      "duration": 0.0302,
      "velocity": 99,
      "chip": "ym2612"
    },
    {
      "channel": 3,
      "note": 63,
      "start": 52.3218,
      "duration": 0.03,
      "velocity": 92,
      "chip": "ym2612"
    },
    {
      "channel": 4,
      "note": 83,
      "start": 52.3225,
      "duration": 0.0296,
      "velocity": 99,
      "chip": "ym2612"
    },
    {
      "channel": 0,
      "note": 56,
      "start": 52.354,
      "duration": 0.0827,
      "velocity": 99,
      "chip": "ym2612"
    },
    {
      "channel": 1,
      "note": 78,
      "start": 52.3545,
      "duration": 0.1122,
      "velocity": 99,
      "chip": "ym2612"
    },
    {
      "channel": 2,
      "note": 78,
      "start": 52.3551,
      "duration": 0.0665,
      "velocity": 99,
      "chip": "ym2612"
    },
    {
      "channel": 3,
      "note": 71,
      "start": 52.3557,
      "duration": 0.0662,
      "velocity": 92,
      "chip": "ym2612"
    },
    {
      "channel": 4,
      "note": 75,
      "start": 52.3563,
      "duration": 0.0659,
      "velocity": 99,
      "chip": "ym2612"
    },
    {
      "channel": 0,
      "note": 56,
      "start": 52.4369,
      "duration": 0.0332,
      "velocity": 99,
      "chip": "ym2612"
    },
    {
      "channel": 2,
      "note": 78,
      "start": 52.4377,
      "duration": 0.0632,
      "velocity": 99,
      "chip": "ym2612"
    },
    {
      "channel": 3,
      "note": 63,
      "start": 52.4383,
      "duration": 0.029,
      "velocity": 92,
      "chip": "ym2612"
    },
    {
      "channel": 4,
      "note": 76,
      "start": 52.439,
      "duration": 0.0287,
      "velocity": 99,
      "chip": "ym2612"
    },
    {
      "channel": 0,
      "note": 56,
      "start": 52.4704,
      "duration": 0.0333,
      "velocity": 99,
      "chip": "ym2612"
    },
    {
      "channel": 1,
      "note": 80,
      "start": 52.4709,
      "duration": 0.0297,
      "velocity": 99,
      "chip": "ym2612"
    },
    {
      "channel": 3,
      "note": 75,
      "start": 52.4718,
      "duration": 0.0295,
      "velocity": 92,
      "chip": "ym2612"
    },
    {
      "channel": 4,
      "note": 78,
      "start": 52.4725,
      "duration": 0.0635,
      "velocity": 99,
      "chip": "ym2612"
    },
    {
      "channel": 0,
      "note": 56,
      "start": 52.504,
      "duration": 0.0337,
      "velocity": 99,
      "chip": "ym2612"
    },
    {
      "channel": 1,
      "note": 78,
      "start": 52.5045,
      "duration": 0.0202,
      "velocity": 99,
      "chip": "ym2612"
    },
    {
      "channel": 2,
      "note": 80,
      "start": 52.505,
      "duration": 0.0302,
      "velocity": 99,
      "chip": "ym2612"
    },
    {
      "channel": 3,
      "note": 63,
      "start": 52.5057,
      "duration": 0.0299,
      "velocity": 92,
      "chip": "ym2612"
    },
    {
      "channel": 1,
      "note": 76,
      "start": 52.5275,
      "duration": 0.0193,
      "velocity": 99,
      "chip": "ym2612"
    },
    {
      "channel": 0,
      "note": 56,
      "start": 52.5379,
      "duration": 0.0829,
      "velocity": 99,
      "chip": "ym2612"
    },
    {
      "channel": 2,
      "note": 78,
      "start": 52.5387,
      "duration": 0.0186,
      "velocity": 99,
      "chip": "ym2612"
    },
    {
      "channel": 3,
      "note": 71,
      "start": 52.5393,
      "duration": 0.0666,
      "velocity": 92,
      "chip": "ym2612"
    },
    {
      "channel": 4,
      "note": 78,
      "start": 52.54,
      "duration": 0.0663,
      "velocity": 99,
      "chip": "ym2612"
    },
    {
      "channel": 1,
      "note": 75,
      "start": 52.5496,
      "duration": 0.0558,
      "velocity": 99,
      "chip": "ym2612"
    },
    {
      "channel": 2,
      "note": 76,
      "start": 52.5603,
      "duration": 0.0705,
      "velocity": 99,
      "chip": "ym2612"
    },
    {
      "channel": 0,
      "note": 49,
      "start": 52.6211,
      "duration": 0.0324,
      "velocity": 99,
      "chip": "ym2612"
    },
    {
      "channel": 1,
      "note": 73,
      "start": 52.6216,
      "duration": 0.5005,
      "velocity": 99,
      "chip": "ym2612"
    },
    {
      "channel": 4,
      "note": 80,
      "start": 52.6229,
      "duration": 0.0185,
      "velocity": 99,
      "chip": "ym2612"
    },
    {
      "channel": 2,
      "note": 75,
      "start": 52.6334,
      "duration": 0.0178,
      "velocity": 99,
      "chip": "ym2612"
    },
    {
      "channel": 4,
      "note": 78,
      "start": 52.6442,
      "duration": 0.0517,
      "velocity": 99,
      "chip": "ym2612"
    },
    {
      "channel": 0,
      "note": 61,
      "start": 52.6537,
      "duration": 0.1818,
      "velocity": 99,
      "chip": "ym2612"
    },
    {
      "channel": 2,
      "note": 73,
      "start": 52.6548,
      "duration": 0.513,
      "velocity": 99,
      "chip": "ym2612"
    },
    {
      "channel": 3,
      "note": 63,
      "start": 52.6554,
      "duration": 0.1653,
      "velocity": 92,
      "chip": "ym2612"
    },
    {
      "channel": 4,
      "note": 76,
      "start": 52.7118,
      "duration": 0.1092,
      "velocity": 99,
      "chip": "ym2612"
    },
    {
      "channel": 0,
      "note": 51,
      "start": 52.8358,
      "duration": 0.0332,
      "velocity": 99,
      "chip": "ym2612"
    },
    {
      "channel": 3,
      "note": 64,
      "start": 52.8369,
      "duration": 0.0303,
      "velocity": 92,
      "chip": "ym2612"
    },
    {
      "channel": 4,
      "note": 75,
      "start": 52.8376,
      "duration": 0.5008,
      "velocity": 99,
      "chip": "ym2612"
    },
    {
      "channel": 0,
      "note": 63,
      "start": 52.8692,
      "duration": 0.0843,
      "velocity": 99,
      "chip": "ym2612"
    },
    {
      "channel": 3,
      "note": 73,
      "start": 52.8704,
      "duration": 0.0684,
      "velocity": 92,
      "chip": "ym2612"
    },
    {
      "channel": 0,
      "note": 52,
      "start": 52.9537,
      "duration": 0.0335,
      "velocity": 99,
      "chip": "ym2612"
    },
    {
      "channel": 3,
      "note": 64,
      "start": 52.9549,
      "duration": 0.0297,
      "velocity": 92,
      "chip": "ym2612"
    },
    {
      "channel": 0,
      "note": 64,
      "start": 52.9874,
      "duration": 0.0329,
      "velocity": 99,
      "chip": "ym2612"
    },
    {
      "channel": 3,
      "note": 76,
      "start": 52.9887,
      "duration": 0.0297,
      "velocity": 92,
      "chip": "ym2612"
    },
    {
      "channel": 0,
      "note": 56,
      "start": 53.0205,
      "duration": 0.0332,
      "velocity": 99,
      "chip": "ym2612"
    },
    {
      "channel": 3,
      "note": 64,
      "start": 53.0217,
      "duration": 0.03,
      "velocity": 92,
      "chip": "ym2612"
    },
    {
      "channel": 0,
      "note": 68,
      "start": 53.0539,
      "duration": 0.0835,
      "velocity": 99,
      "chip": "ym2612"
    },
    {
      "channel": 3,
      "note": 73,
      "start": 53.0551,
      "duration": 0.0677,
      "velocity": 92,
      "chip": "ym2612"
    },
    {
      "channel": 0,
      "note": 57,
      "start": 53.1377,
      "duration": 0.0326,
      "velocity": 99,
      "chip": "ym2612"
    },
    {
      "channel": 1,
      "note": 69,
      "start": 53.1383,
      "duration": 0.3173,
      "velocity": 99,
      "chip": "ym2612"
    },
    {
      "channel": 0,
      "note": 57,
      "start": 53.1706,
      "duration": 0.1825,
      "velocity": 99,
      "chip": "ym2612"
    },
    {
      "channel": 2,
      "note": 69,
      "start": 53.1713,
      "duration": 0.3309,
      "velocity": 99,
      "chip": "ym2612"
    },
    {
      "channel": 3,
      "note": 64,
      "start": 53.172,
      "duration": 0.166,
      "velocity": 92,
      "chip": "ym2612"
    },
    {
      "channel": 0,
      "note": 57,
      "start": 53.3533,
      "duration": 0.0331,
      "velocity": 99,
      "chip": "ym2612"
    },
    {
      "channel": 3,
      "note": 64,
      "start": 53.3545,
      "duration": 0.0301,
      "velocity": 92,
      "chip": "ym2612"
    },
    {
      "channel": 4,
      "note": 73,
      "start": 53.3551,
      "duration": 0.1808,
      "velocity": 99,
      "chip": "ym2612"
    },
    {
      "channel": 0,
      "note": 57,
      "start": 53.3866,
      "duration": 0.0843,
      "velocity": 99,
      "chip": "ym2612"
    },
    {
      "channel": 3,
      "note": 73,
      "start": 53.3878,
      "duration": 0.0684,
      "velocity": 92,
      "chip": "ym2612"
    },
    {
      "channel": 0,
      "note": 57,
      "start": 53.4712,
      "duration": 0.0339,
      "velocity": 99,
      "chip": "ym2612"
    },
    {
      "channel": 1,
      "note": 80,
      "start": 53.4717,
      "duration": 0.1691,
      "velocity": 99,
      "chip": "ym2612"
    },
    {
      "channel": 3,
      "note": 64,
      "start": 53.4727,
      "duration": 0.03,
      "velocity": 92,
      "chip": "ym2612"
    },
    {
      "channel": 0,
      "note": 57,
      "start": 53.5054,
      "duration": 0.0332,
      "velocity": 99,
      "chip": "ym2612"
    },
    {
      "channel": 2,
      "note": 80,
      "start": 53.5061,
      "duration": 0.1808,
      "velocity": 99,
      "chip": "ym2612"
    },
    {
      "channel": 3,
      "note": 76,
      "start": 53.5067,
      "duration": 0.0289,
      "velocity": 92,
      "chip": "ym2612"
    },
    {
      "channel": 0,
      "note": 57,
      "start": 53.5388,
      "duration": 0.0333,
      "velocity": 99,
      "chip": "ym2612"
    },
    {
      "channel": 3,
      "note": 64,
      "start": 53.5403,
      "duration": 0.0298,
      "velocity": 92,
      "chip": "ym2612"
    },
    {
      "channel": 4,
      "note": 69,
      "start": 53.5409,
      "duration": 0.3161,
      "velocity": 99,
      "chip": "ym2612"
    },
    {
      "channel": 0,
      "note": 57,
      "start": 53.5723,
      "duration": 0.0839,
      "velocity": 99,
      "chip": "ym2612"
    },
    {
      "channel": 3,
      "note": 73,
      "start": 53.5735,
      "duration": 0.068,
      "velocity": 92,
      "chip": "ym2612"
    },
    {
      "channel": 0,
      "note": 59,
      "start": 53.6565,
      "duration": 0.0325,
      "velocity": 99,
      "chip": "ym2612"
    },
    {
      "channel": 1,
      "note": 78,
      "start": 53.657,
      "duration": 0.1987,
      "velocity": 99,
      "chip": "ym2612"
    },
    {
      "channel": 0,
      "note": 59,
      "start": 53.6892,
      "duration": 0.1818,
      "velocity": 99,
      "chip": "ym2612"
    },
    {
      "channel": 2,
      "note": 78,
      "start": 53.69,
      "duration": 0.2117,
      "velocity": 99,
      "chip": "ym2612"
    },
    {
      "channel": 3,
      "note": 64,
      "start": 53.6906,
      "duration": 0.1657,
      "velocity": 92,
      "chip": "ym2612"
    },
    {
      "channel": 0,
      "note": 59,
      "start": 53.8713,
      "duration": 0.0325,
      "velocity": 99,
      "chip": "ym2612"
    },
    {
      "channel": 1,
      "note": 75,
      "start": 53.8718,
      "duration": 0.1013,
      "velocity": 99,
      "chip": "ym2612"
    },
    {
      "channel": 3,
      "note": 63,
      "start": 53.8728,
      "duration": 0.0292,
      "velocity": 92,
      "chip": "ym2612"
    },
    {
      "channel": 4,
      "note": 80,
      "start": 53.8738,
      "duration": 0.1003,
      "velocity": 99,
      "chip": "ym2612"
    },
    {
      "channel": 0,
      "note": 59,
      "start": 53.9041,
      "duration": 0.0844,
      "velocity": 99,
      "chip": "ym2612"
    },
    {
      "channel": 2,
      "note": 75,
      "start": 53.9049,
      "duration": 0.1146,
      "velocity": 99,
      "chip": "ym2612"
    },
    {
      "channel": 3,
      "note": 71,
      "start": 53.9055,
      "duration": 0.0683,
      "velocity": 92,
      "chip": "ym2612"
    },
    {
      "channel": 0,
      "note": 59,
      "start": 53.9888,
      "duration": 0.0339,
      "velocity": 99,
      "chip": "ym2612"
    },
    {
      "channel": 1,
      "note": 76,
      "start": 53.9893,
      "duration": 0.0631,
      "velocity": 99,
      "chip": "ym2612"
    },
    {
      "channel": 3,
      "note": 63,
      "start": 53.9902,
      "duration": 0.0297,
      "velocity": 92,
      "chip": "ym2612"
    },
    {
      "channel": 4,
      "note": 78,
      "start": 53.9908,
      "duration": 0.0627,
      "velocity": 99,
      "chip": "ym2612"
    },
    {
      "channel": 0,
      "note": 59,
      "start": 54.0229,
      "duration": 0.0324,
      "velocity": 99,
      "chip": "ym2612"
    },
    {
      "channel": 2,
      "note": 76,
      "start": 54.0237,
      "duration": 0.0617,
      "velocity": 99,
      "chip": "ym2612"
    },
    {
      "channel": 3,
      "note": 75,
      "start": 54.0243,
      "duration": 0.0287,
      "velocity": 92,
      "chip": "ym2612"
    },
    {
      "channel": 0,
      "note": 59,
      "start": 54.0556,
      "duration": 0.0321,
      "velocity": 99,
      "chip": "ym2612"
    },
    {
      "channel": 1,
      "note": 78,
      "start": 54.0561,
      "duration": 0.1005,
      "velocity": 99,
      "chip": "ym2612"
    },
    {
      "channel": 3,
      "note": 63,
      "start": 54.0569,
      "duration": 0.0288,
      "velocity": 92,
      "chip": "ym2612"
    },
    {
      "channel": 4,
      "note": 75,
      "start": 54.0577,
      "duration": 0.0998,
      "velocity": 99,
      "chip": "ym2612"
    },
    {
      "channel": 0,
      "note": 59,
      "start": 54.0879,
      "duration": 0.084,
      "velocity": 99,
      "chip": "ym2612"
    },
    {
      "channel": 2,
      "note": 78,
      "start": 54.0887,
      "duration": 0.1137,
      "velocity": 99,
      "chip": "ym2612"
    },
    {
      "channel": 3,
      "note": 71,
      "start": 54.0893,
      "duration": 0.0678,
      "velocity": 92,
      "chip": "ym2612"
    },
    {
      "channel": 0,
      "note": 52,
      "start": 54.1722,
      "duration": 0.0323,
      "velocity": 99,
      "chip": "ym2612"
    },
    {
      "channel": 1,
      "note": 80,
      "start": 54.1727,
      "duration": 0.1991,
      "velocity": 99,
      "chip": "ym2612"
    },
    {
      "channel": 4,
      "note": 76,
      "start": 54.174,
      "duration": 0.1988,
      "velocity": 99,
      "chip": "ym2612"
    },
    {
      "channel": 0,
      "note": 52,
      "start": 54.2048,
      "duration": 0.1825,
      "velocity": 99,
      "chip": "ym2612"
    },
    {
      "channel": 2,
      "note": 80,
      "start": 54.2055,
      "duration": 0.2124,
      "velocity": 99,
      "chip": "ym2612"
    },
    {
      "channel": 3,
      "note": 63,
      "start": 54.2061,
      "duration": 0.1663,
      "velocity": 92,
      "chip": "ym2612"
    },
    {
      "channel": 0,
      "note": 52,
      "start": 54.3875,
      "duration": 0.0327,
      "velocity": 99,
      "chip": "ym2612"
    },
    {
      "channel": 1,
      "note": 83,
      "start": 54.388,
      "duration": 0.0296,
      "velocity": 99,
      "chip": "ym2612"
    },
    {
      "channel": 3,
      "note": 64,
      "start": 54.3889,
      "duration": 0.0293,
      "velocity": 92,
      "chip": "ym2612"
    },
    {
      "channel": 4,
      "note": 78,
      "start": 54.3896,
      "duration": 0.1002,
      "velocity": 99,
      "chip": "ym2612"
    },
    {
      "channel": 0,
      "note": 52,
      "start": 54.4204,
      "duration": 0.0839,
      "velocity": 99,
      "chip": "ym2612"
    },
    {
      "channel": 1,
      "note": 80,
      "start": 54.4212,
      "duration": 0.1817,
      "velocity": 99,
      "chip": "ym2612"
    },
    {
      "channel": 2,
      "note": 83,
      "start": 54.4218,
      "duration": 0.0674,
      "velocity": 99,
      "chip": "ym2612"
    },
    {
      "channel": 3,
      "note": 71,
      "start": 54.4224,
      "duration": 0.067,
      "velocity": 92,
      "chip": "ym2612"
    },
    {
      "channel": 0,
      "note": 52,
      "start": 54.5045,
      "duration": 0.0338,
      "velocity": 99,
      "chip": "ym2612"
    },
    {
      "channel": 2,
      "note": 80,
      "start": 54.5053,
      "duration": 0.098,
      "velocity": 99,
      "chip": "ym2612"
    },
    {
      "channel": 3,
      "note": 64,
      "start": 54.5059,
      "duration": 0.0296,
      "velocity": 92,
      "chip": "ym2612"
    },
    {
      "channel": 4,
      "note": 80,
      "start": 54.5066,
      "duration": 0.0293,
      "velocity": 99,
      "chip": "ym2612"
    },
    {
      "channel": 0,
      "note": 52,
      "start": 54.5386,
      "duration": 0.0338,
      "velocity": 99,
      "chip": "ym2612"
    },
    {
      "channel": 3,
      "note": 76,
      "start": 54.5397,
      "duration": 0.0299,
      "velocity": 92,
      "chip": "ym2612"
    },
    {
      "channel": 4,
      "note": 83,
      "start": 54.5404,
      "duration": 0.0638,
      "velocity": 99,
      "chip": "ym2612"
    },
    {
      "channel": 0,
      "note": 52,
      "start": 54.5726,
      "duration": 0.0332,
      "velocity": 99,
      "chip": "ym2612"
    },
    {
      "channel": 3,
      "note": 64,
      "start": 54.5738,
      "duration": 0.0301,
      "velocity": 92,
      "chip": "ym2612"
    },
    {
      "channel": 0,
      "note": 56,
      "start": 54.6061,
      "duration": 0.2296,
      "velocity": 99,
      "chip": "ym2612"
    },
    {
      "channel": 1,
      "note": 95,
      "start": 54.6091,
      "duration": 0.2576,
      "velocity": 99,
      "chip": "ym2612"
    },
    {
      "channel": 3,
      "note": 71,
      "start": 54.6149,
      "duration": 0.4422,
      "velocity": 98,
      "chip": "ym2612"
    },
    {
      "channel": 4,
      "note": 80,
      "start": 54.6183,
      "duration": 0.4392,
      "velocity": 98,
      "chip": "ym2612"
    },
    {
      "channel": 2,
      "note": 95,
      "start": 54.6243,
      "duration": 0.2498,
      "velocity": 99,
      "chip": "ym2612"
    },
    {
      "channel": 0,
      "note": 56,
      "start": 54.8359,
      "duration": 0.0337,
      "velocity": 99,
      "chip": "ym2612"
    },
    {
      "channel": 0,
      "note": 56,
      "start": 54.8699,
      "duration": 0.0335,
      "velocity": 99,
      "chip": "ym2612"
    },
    {
      "channel": 1,
      "note": 93,
      "start": 54.8704,
      "duration": 0.1005,
      "velocity": 99,
      "chip": "ym2612"
    },
    {
      "channel": 2,
      "note": 93,
      "start": 54.8769,
      "duration": 0.1137,
      "velocity": 99,
      "chip": "ym2612"
    },
    {
      "channel": 0,
      "note": 56,
      "start": 54.9036,
      "duration": 0.0827,
      "velocity": 99,
      "chip": "ym2612"
    },
    {
      "channel": 0,
      "note": 56,
      "start": 54.9866,
      "duration": 0.0191,
      "velocity": 99,
      "chip": "ym2612"
    },
    {
      "channel": 1,
      "note": 92,
      "start": 54.9871,
      "duration": 0.0694,
      "velocity": 99,
      "chip": "ym2612"
    },
    {
      "channel": 2,
      "note": 92,
      "start": 54.9935,
      "duration": 0.072,
      "velocity": 99,
      "chip": "ym2612"
    },
    {
      "channel": 0,
      "note": 68,
      "start": 55.0059,
      "duration": 0.0175,
      "velocity": 99,
      "chip": "ym2612"
    },
    {
      "channel": 0,
      "note": 68,
      "start": 55.0237,
      "duration": 0.0185,
      "velocity": 99,
      "chip": "ym2612"
    },
    {
      "channel": 0,
      "note": 56,
      "start": 55.0424,
      "duration": 0.018,
      "velocity": 99,
      "chip": "ym2612"
    },
    {
      "channel": 0,
      "note": 56,
      "start": 55.0606,
      "duration": 0.0335,
      "velocity": 99,
      "chip": "ym2612"
    },
    {
      "channel": 1,
      "note": 90,
      "start": 55.0612,
      "duration": 0.1011,
      "velocity": 99,
      "chip": "ym2612"
    },
    {
      "channel": 3,
      "note": 56,
      "start": 55.062,
      "duration": 0.1008,
      "velocity": 98,
      "chip": "ym2612"
    },
    {
      "channel": 4,
      "note": 63,
      "start": 55.0627,
      "duration": 0.1006,
      "velocity": 98,
      "chip": "ym2612"
    },
    {
      "channel": 2,
      "note": 90,
      "start": 55.0684,
      "duration": 0.0941,
      "velocity": 99,
      "chip": "ym2612"
    },
    {
      "channel": 0,
      "note": 56,
      "start": 55.0944,
      "duration": 0.0831,
      "velocity": 99,
      "chip": "ym2612"
    },
    {
      "channel": 0,
      "note": 57,
      "start": 55.1777,
      "duration": 0.035,
      "velocity": 99,
      "chip": "ym2612"
    },
    {
      "channel": 1,
      "note": 80,
      "start": 55.1805,
      "duration": 0.4978,
      "velocity": 99,
      "chip": "ym2612"
    },
    {
      "channel": 3,
      "note": 56,
      "start": 55.1816,
      "duration": 0.0066,
      "velocity": 98,
      "chip": "ym2612"
    },
    {
      "channel": 0,
      "note": 57,
      "start": 55.2129,
      "duration": 0.1787,
      "velocity": 99,
      "chip": "ym2612"
    },
    {
      "channel": 2,
      "note": 80,
      "start": 55.2157,
      "duration": 0.5091,
      "velocity": 99,
      "chip": "ym2612"
    },
    {
      "channel": 3,
      "note": 57,
      "start": 55.2163,
      "duration": 0.0198,
      "velocity": 98,
      "chip": "ym2612"
    },
    {
      "channel": 4,
      "note": 63,
      "start": 55.2198,
      "duration": 0.5056,
      "velocity": 99,
      "chip": "ym2612"
    },
    {
      "channel": 0,
      "note": 69,
      "start": 55.3918,
      "duration": 0.0329,
      "velocity": 99,
      "chip": "ym2612"
    },
    {
      "channel": 3,
      "note": 57,
      "start": 55.3931,
      "duration": 0.0299,
      "velocity": 98,
      "chip": "ym2612"
    },
    {
      "channel": 0,
      "note": 57,
      "start": 55.425,
      "duration": 0.0834,
      "velocity": 99,
      "chip": "ym2612"
    },
    {
      "channel": 3,
      "note": 57,
      "start": 55.4263,
      "duration": 0.0057,
      "velocity": 98,
      "chip": "ym2612"
    },
    {
      "channel": 0,
      "note": 57,
      "start": 55.5086,
      "duration": 0.0344,
      "velocity": 99,
      "chip": "ym2612"
    },
    {
      "channel": 3,
      "note": 57,
      "start": 55.5099,
      "duration": 0.0064,
      "velocity": 98,
      "chip": "ym2612"
    },
    {
      "channel": 0,
      "note": 69,
      "start": 55.5432,
      "duration": 0.0339,
      "velocity": 99,
      "chip": "ym2612"
    },
    {
      "channel": 3,
      "note": 57,
      "start": 55.5445,
      "duration": 0.0303,
      "velocity": 98,
      "chip": "ym2612"
    },
    {
      "channel": 0,
      "note": 57,
      "start": 55.5774,
      "duration": 0.0341,
      "velocity": 99,
      "chip": "ym2612"
    },
    {
      "channel": 3,
      "note": 57,
      "start": 55.5786,
      "duration": 0.0066,
      "velocity": 98,
      "chip": "ym2612"
    },
    {
      "channel": 0,
      "note": 57,
      "start": 55.6118,
      "duration": 0.082,
      "velocity": 99,
      "chip": "ym2612"
    },
    {
      "channel": 3,
      "note": 57,
      "start": 55.6129,
      "duration": 0.0057,
      "velocity": 98,
      "chip": "ym2612"
    },
    {
      "channel": 0,
      "note": 59,
      "start": 55.6939,
      "duration": 0.0329,
      "velocity": 99,
      "chip": "ym2612"
    },
    {
      "channel": 1,
      "note": 78,
      "start": 55.6945,
      "duration": 0.3149,
      "velocity": 99,
      "chip": "ym2612"
    },
    {
      "channel": 3,
      "note": 57,
      "start": 55.6954,
      "duration": 0.0063,
      "velocity": 98,
      "chip": "ym2612"
    },
    {
      "channel": 0,
      "note": 59,
      "start": 55.7271,
      "duration": 0.1809,
      "velocity": 99,
      "chip": "ym2612"
    },
    {
      "channel": 2,
      "note": 78,
      "start": 55.7279,
      "duration": 0.3274,
      "velocity": 99,
      "chip": "ym2612"
    },
    {
      "channel": 3,
      "note": 59,
      "start": 55.7285,
      "duration": 0.0242,
      "velocity": 98,
      "chip": "ym2612"
    },
    {
      "channel": 4,
      "note": 80,
      "start": 55.7292,
      "duration": 0.3268,
      "velocity": 99,
      "chip": "ym2612"
    },
    {
      "channel": 0,
      "note": 71,
      "start": 55.9083,
      "duration": 0.0326,
      "velocity": 99,
      "chip": "ym2612"
    },
    {
      "channel": 3,
      "note": 59,
      "start": 55.9095,
      "duration": 0.0294,
      "velocity": 98,
      "chip": "ym2612"
    },
    {
      "channel": 0,
      "note": 59,
      "start": 55.9412,
      "duration": 0.0836,
      "velocity": 99,
      "chip": "ym2612"
    },
    {
      "channel": 3,
      "note": 59,
      "start": 55.9424,
      "duration": 0.0058,
      "velocity": 98,
      "chip": "ym2612"
    },
    {
      "channel": 0,
      "note": 59,
      "start": 56.025,
      "duration": 0.0327,
      "velocity": 99,
      "chip": "ym2612"
    },
    {
      "channel": 1,
      "note": 83,
      "start": 56.0255,
      "duration": 0.097,
      "velocity": 99,
      "chip": "ym2612"
    },
    {
      "channel": 3,
      "note": 59,
      "start": 56.0264,
      "duration": 0.0062,
      "velocity": 98,
      "chip": "ym2612"
    },
    {
      "channel": 0,
      "note": 71,
      "start": 56.0579,
      "duration": 0.0335,
      "velocity": 99,
      "chip": "ym2612"
    },
    {
      "channel": 2,
      "note": 83,
      "start": 56.059,
      "duration": 0.098,
      "velocity": 99,
      "chip": "ym2612"
    },
    {
      "channel": 3,
      "note": 59,
      "start": 56.0598,
      "duration": 0.0291,
      "velocity": 98,
      "chip": "ym2612"
    },
    {
      "channel": 4,
      "note": 78,
      "start": 56.0604,
      "duration": 0.0972,
      "velocity": 99,
      "chip": "ym2612"
    },
    {
      "channel": 0,
      "note": 59,
      "start": 56.0916,
      "duration": 0.0341,
      "velocity": 99,
      "chip": "ym2612"
    },
    {
      "channel": 3,
      "note": 59,
      "start": 56.0929,
      "duration": 0.0064,
      "velocity": 98,
      "chip": "ym2612"
    },
    {
      "channel": 0,
      "note": 60,
      "start": 56.126,
      "duration": 0.2213,
      "velocity": 99,
      "chip": "ym2612"
    },
    {
      "channel": 1,
      "note": 83,
      "start": 56.1265,
      "duration": 0.2507,
      "velocity": 99,
      "chip": "ym2612"
    },
    {
      "channel": 3,
      "note": 59,
      "start": 56.1275,
      "duration": 0.2053,
      "velocity": 98,
      "chip": "ym2612"
    },
    {
      "channel": 2,
      "note": 83,
      "start": 56.1606,
      "duration": 0.2515,
      "velocity": 99,
      "chip": "ym2612"
    },
    {
      "channel": 4,
      "note": 83,
      "start": 56.1615,
      "duration": 0.2512,
      "velocity": 99,
      "chip": "ym2612"
    },
    {
      "channel": 0,
      "note": 60,
      "start": 56.3475,
      "duration": 0.0328,
      "velocity": 99,
      "chip": "ym2612"
    },
    {
      "channel": 3,
      "note": 60,
      "start": 56.3488,
      "duration": 0.029,
      "velocity": 98,
      "chip": "ym2612"
    },
    {
      "channel": 0,
      "note": 72,
      "start": 56.3806,
      "duration": 0.0339,
      "velocity": 99,
      "chip": "ym2612"
    },
    {
      "channel": 1,
      "note": 81,
      "start": 56.3811,
      "duration": 0.1016,
      "velocity": 99,
      "chip": "ym2612"
    },
    {
      "channel": 3,
      "note": 60,
      "start": 56.3821,
      "duration": 0.0303,
      "velocity": 98,
      "chip": "ym2612"
    },
    {
      "channel": 0,
      "note": 60,
      "start": 56.4147,
      "duration": 0.0834,
      "velocity": 99,
      "chip": "ym2612"
    },
    {
      "channel": 2,
      "note": 81,
      "start": 56.4155,
      "duration": 0.1125,
      "velocity": 99,
      "chip": "ym2612"
    },
    {
      "channel": 3,
      "note": 60,
      "start": 56.4162,
      "duration": 0.0059,
      "velocity": 98,
      "chip": "ym2612"
    },
    {
      "channel": 4,
      "note": 83,
      "start": 56.4168,
      "duration": 0.1118,
      "velocity": 99,
      "chip": "ym2612"
    },
    {
      "channel": 0,
      "note": 60,
      "start": 56.4984,
      "duration": 0.0335,
      "velocity": 99,
      "chip": "ym2612"
    },
    {
      "channel": 1,
      "note": 80,
      "start": 56.4989,
      "duration": 0.0628,
      "velocity": 99,
      "chip": "ym2612"
    },
    {
      "channel": 3,
      "note": 60,
      "start": 56.4998,
      "duration": 0.0058,
      "velocity": 98,
      "chip": "ym2612"
    },
    {
      "channel": 0,
      "note": 72,
      "start": 56.5321,
      "duration": 0.0327,
      "velocity": 99,
      "chip": "ym2612"
    },
    {
      "channel": 2,
      "note": 80,
      "start": 56.5329,
      "duration": 0.0633,
      "velocity": 99,
      "chip": "ym2612"
    },
    {
      "channel": 3,
      "note": 60,
      "start": 56.5336,
      "duration": 0.0287,
      "velocity": 98,
      "chip": "ym2612"
    },
    {
      "channel": 4,
      "note": 81,
      "start": 56.5344,
      "duration": 0.0624,
      "velocity": 99,
      "chip": "ym2612"
    },
    {
      "channel": 0,
      "note": 60,
      "start": 56.5651,
      "duration": 0.0334,
      "velocity": 99,
      "chip": "ym2612"
    },
    {
      "channel": 1,
      "note": 78,
      "start": 56.5656,
      "duration": 0.1022,
      "velocity": 99,
      "chip": "ym2612"
    },
    {
      "channel": 3,
      "note": 60,
      "start": 56.5665,
      "duration": 0.0067,
      "velocity": 98,
      "chip": "ym2612"
    },
    {
      "channel": 0,
      "note": 60,
      "start": 56.5988,
      "duration": 0.0844,
      "velocity": 99,
      "chip": "ym2612"
    },
    {
      "channel": 2,
      "note": 78,
      "start": 56.5995,
      "duration": 0.114,
      "velocity": 99,
      "chip": "ym2612"
    },
    {
      "channel": 3,
      "note": 60,
      "start": 56.6001,
      "duration": 0.0058,
      "velocity": 98,
      "chip": "ym2612"
    },
    {
      "channel": 4,
      "note": 80,
      "start": 56.6008,
      "duration": 0.1134,
      "velocity": 99,
      "chip": "ym2612"
    },
    {
      "channel": 0,
      "note": 61,
      "start": 56.6834,
      "duration": 0.0327,
      "velocity": 99,
      "chip": "ym2612"
    },
    {
      "channel": 1,
      "note": 76,
      "start": 56.6839,
      "duration": 0.0294,
      "velocity": 99,
      "chip": "ym2612"
    },
    {
      "channel": 3,
      "note": 60,
      "start": 56.6848,
      "duration": 0.0057,
      "velocity": 98,
      "chip": "ym2612"
    },
    {
      "channel": 0,
      "note": 73,
      "start": 56.7163,
      "duration": 0.1823,
      "velocity": 99,
      "chip": "ym2612"
    },
    {
      "channel": 1,
      "note": 75,
      "start": 56.7168,
      "duration": 0.1664,
      "velocity": 99,
      "chip": "ym2612"
    },
    {
      "channel": 2,
      "note": 76,
      "start": 56.7173,
      "duration": 0.1661,
      "velocity": 99,
      "chip": "ym2612"
    },
    {
      "channel": 3,
      "note": 61,
      "start": 56.718,
      "duration": 0.0252,
      "velocity": 98,
      "chip": "ym2612"
    },
    {
      "channel": 4,
      "note": 78,
      "start": 56.7186,
      "duration": 0.1654,
      "velocity": 99,
      "chip": "ym2612"
    },
    {
      "channel": 0,
      "note": 61,
      "start": 56.8991,
      "duration": 0.0332,
      "velocity": 99,
      "chip": "ym2612"
    },
    {
      "channel": 1,
      "note": 76,
      "start": 56.8997,
      "duration": 0.0302,
      "velocity": 99,
      "chip": "ym2612"
    },
    {
      "channel": 2,
      "note": 75,
      "start": 56.9002,
      "duration": 0.03,
      "velocity": 99,
      "chip": "ym2612"
    },
    {
      "channel": 3,
      "note": 61,
      "start": 56.9009,
      "duration": 0.0296,
      "velocity": 98,
      "chip": "ym2612"
    },
    {
      "channel": 4,
      "note": 76,
      "start": 56.9016,
      "duration": 0.0293,
      "velocity": 99,
      "chip": "ym2612"
    },
    {
      "channel": 0,
      "note": 59,
      "start": 56.9326,
      "duration": 0.2147,
      "velocity": 99,
      "chip": "ym2612"
    },
    {
      "channel": 1,
      "note": 78,
      "start": 56.9332,
      "duration": 0.1988,
      "velocity": 99,
      "chip": "ym2612"
    },
    {
      "channel": 2,
      "note": 76,
      "start": 56.9337,
      "duration": 0.0297,
      "velocity": 99,
      "chip": "ym2612"
    },
    {
      "channel": 3,
      "note": 61,
      "start": 56.9343,
      "duration": 0.1982,
      "velocity": 98,
      "chip": "ym2612"
    },
    {
      "channel": 4,
      "note": 75,
      "start": 56.935,
      "duration": 0.029,
      "velocity": 99,
      "chip": "ym2612"
    },
    {
      "channel": 2,
      "note": 78,
      "start": 56.9663,
      "duration": 0.2108,
      "velocity": 99,
      "chip": "ym2612"
    },
    {
      "channel": 4,
      "note": 76,
      "start": 56.9673,
      "duration": 0.2105,
      "velocity": 99,
      "chip": "ym2612"
    },
    {
      "channel": 0,
      "note": 59,
      "start": 57.1476,
      "duration": 0.0317,
      "velocity": 99,
      "chip": "ym2612"
    },
    {
      "channel": 1,
      "note": 75,
      "start": 57.1481,
      "duration": 0.0284,
      "velocity": 99,
      "chip": "ym2612"
    },
    {
      "channel": 3,
      "note": 61,
      "start": 57.149,
      "duration": 0.0061,
      "velocity": 98,
      "chip": "ym2612"
    },
    {
      "channel": 0,
      "note": 59,
      "start": 57.1795,
      "duration": 0.0331,
      "velocity": 99,
      "chip": "ym2612"
    },
    {
      "channel": 1,
      "note": 76,
      "start": 57.1802,
      "duration": 0.0297,
      "velocity": 99,
      "chip": "ym2612"
    },
    {
      "channel": 2,
      "note": 75,
      "start": 57.181,
      "duration": 0.0292,
      "velocity": 99,
      "chip": "ym2612"
    },
    {
      "channel": 3,
      "note": 61,
      "start": 57.1817,
      "duration": 0.0288,
      "velocity": 98,
      "chip": "ym2612"
    },
    {
      "channel": 4,
      "note": 78,
      "start": 57.1824,
      "duration": 0.0285,
      "velocity": 99,
      "chip": "ym2612"
    },
    {
      "channel": 0,
      "note": 59,
      "start": 57.2128,
      "duration": 0.0833,
      "velocity": 99,
      "chip": "ym2612"
    },
    {
      "channel": 1,
      "note": 78,
      "start": 57.2133,
      "duration": 0.0674,
      "velocity": 99,
      "chip": "ym2612"
    },
    {
      "channel": 2,
      "note": 76,
      "start": 57.2139,
      "duration": 0.0672,
      "velocity": 99,
      "chip": "ym2612"
    },
    {
      "channel": 3,
      "note": 61,
      "start": 57.2146,
      "duration": 0.0061,
      "velocity": 98,
      "chip": "ym2612"
    },
    {
      "channel": 4,
      "note": 75,
      "start": 57.2153,
      "duration": 0.0664,
      "velocity": 99,
      "chip": "ym2612"
    },
    {
      "channel": 0,
      "note": 57,
      "start": 57.2964,
      "duration": 0.0335,
      "velocity": 99,
      "chip": "ym2612"
    },
    {
      "channel": 1,
      "note": 80,
      "start": 57.2969,
      "duration": 0.3162,
      "velocity": 99,
      "chip": "ym2612"
    },
    {
      "channel": 2,
      "note": 78,
      "start": 57.2975,
      "duration": 0.0301,
      "velocity": 99,
      "chip": "ym2612"
    },
    {
      "channel": 3,
      "note": 61,
      "start": 57.2981,
      "duration": 0.0063,
      "velocity": 98,
      "chip": "ym2612"
    },
    {
      "channel": 4,
      "note": 76,
      "start": 57.2988,
      "duration": 0.0294,
      "velocity": 99,
      "chip": "ym2612"
    },
    {
      "channel": 0,
      "note": 57,
      "start": 57.3302,
      "duration": 0.1811,
      "velocity": 99,
      "chip": "ym2612"
    },
    {
      "channel": 2,
      "note": 80,
      "start": 57.3309,
      "duration": 0.329,
      "velocity": 99,
      "chip": "ym2612"
    },
    {
      "channel": 3,
      "note": 57,
      "start": 57.3316,
      "duration": 0.0242,
      "velocity": 98,
      "chip": "ym2612"
    },
    {
      "channel": 4,
      "note": 78,
      "start": 57.3322,
      "duration": 0.3284,
      "velocity": 99,
      "chip": "ym2612"
    },
    {
      "channel": 0,
      "note": 69,
      "start": 57.5115,
      "duration": 0.0321,
      "velocity": 99,
      "chip": "ym2612"
    },
    {
      "channel": 3,
      "note": 57,
      "start": 57.5127,
      "duration": 0.0291,
      "velocity": 98,
      "chip": "ym2612"
    },
    {
      "channel": 0,
      "note": 57,
      "start": 57.5438,
      "duration": 0.0846,
      "velocity": 99,
      "chip": "ym2612"
    },
    {
      "channel": 3,
      "note": 57,
      "start": 57.5451,
      "duration": 0.0061,
      "velocity": 98,
      "chip": "ym2612"
    },
    {
      "channel": 0,
      "note": 57,
      "start": 57.6287,
      "duration": 0.0339,
      "velocity": 99,
      "chip": "ym2612"
    },
    {
      "channel": 1,
      "note": 88,
      "start": 57.6293,
      "duration": 0.1694,
      "velocity": 99,
      "chip": "ym2612"
    },
    {
      "channel": 3,
      "note": 57,
      "start": 57.6302,
      "duration": 0.0058,
      "velocity": 98,
      "chip": "ym2612"
    },
    {
      "channel": 0,
      "note": 69,
      "start": 57.6629,
      "duration": 0.0339,
      "velocity": 99,
      "chip": "ym2612"
    },
    {
      "channel": 2,
      "note": 88,
      "start": 57.6637,
      "duration": 0.1819,
      "velocity": 99,
      "chip": "ym2612"
    },
    {
      "channel": 3,
      "note": 57,
      "start": 57.6644,
      "duration": 0.0293,
      "velocity": 98,
      "chip": "ym2612"
    },
    {
      "channel": 4,
      "note": 80,
      "start": 57.665,
      "duration": 0.1811,
      "velocity": 99,
      "chip": "ym2612"
    },
    {
      "channel": 0,
      "note": 57,
      "start": 57.697,
      "duration": 0.0326,
      "velocity": 99,
      "chip": "ym2612"
    },
    {
      "channel": 3,
      "note": 57,
      "start": 57.6983,
      "duration": 0.0068,
      "velocity": 98,
      "chip": "ym2612"
    },
    {
      "channel": 0,
      "note": 57,
      "start": 57.7301,
      "duration": 0.0839,
      "velocity": 99,
      "chip": "ym2612"
    },
    {
      "channel": 3,
      "note": 57,
      "start": 57.7313,
      "duration": 0.006,
      "velocity": 98,
      "chip": "ym2612"
    },
    {
      "channel": 0,
      "note": 59,
      "start": 57.8143,
      "duration": 0.0335,
      "velocity": 99,
      "chip": "ym2612"
    },
    {
      "channel": 1,
      "note": 87,
      "start": 57.8149,
      "duration": 0.3157,
      "velocity": 99,
      "chip": "ym2612"
    },
    {
      "channel": 3,
      "note": 57,
      "start": 57.8158,
      "duration": 0.006,
      "velocity": 98,
      "chip": "ym2612"
    },
    {
      "channel": 0,
      "note": 59,
      "start": 57.8481,
      "duration": 0.1809,
      "velocity": 99,
      "chip": "ym2612"
    },
    {
      "channel": 2,
      "note": 87,
      "start": 57.8489,
      "duration": 0.3282,
      "velocity": 99,
      "chip": "ym2612"
    },
    {
      "channel": 3,
      "note": 59,
      "start": 57.8495,
      "duration": 0.0241,
      "velocity": 98,
      "chip": "ym2612"
    },
    {
      "channel": 4,
      "note": 88,
      "start": 57.8502,
      "duration": 0.3275,
      "velocity": 99,
      "chip": "ym2612"
    },
    {
      "channel": 0,
      "note": 71,
      "start": 58.0293,
      "duration": 0.0321,
      "velocity": 99,
      "chip": "ym2612"
    },
    {
      "channel": 3,
      "note": 59,
      "start": 58.0305,
      "duration": 0.029,
      "velocity": 98,
      "chip": "ym2612"
    },
    {
      "channel": 0,
      "note": 59,
      "start": 58.0617,
      "duration": 0.0842,
      "velocity": 99,
      "chip": "ym2612"
    },
    {
      "channel": 3,
      "note": 59,
      "start": 58.0633,
      "duration": 0.0061,
      "velocity": 98,
      "chip": "ym2612"
    },
    {
      "channel": 0,
      "note": 59,
      "start": 58.1462,
      "duration": 0.0336,
      "velocity": 99,
      "chip": "ym2612"
    },
    {
      "channel": 1,
      "note": 83,
      "start": 58.1467,
      "duration": 0.1685,
      "velocity": 99,
      "chip": "ym2612"
    },
    {
      "channel": 3,
      "note": 59,
      "start": 58.1476,
      "duration": 0.0059,
      "velocity": 98,
      "chip": "ym2612"
    },
    {
      "channel": 0,
      "note": 71,
      "start": 58.18,
      "duration": 0.0339,
      "velocity": 99,
      "chip": "ym2612"
    },
    {
      "channel": 2,
      "note": 83,
      "start": 58.1808,
      "duration": 0.1837,
      "velocity": 99,
      "chip": "ym2612"
    },
    {
      "channel": 3,
      "note": 59,
      "start": 58.1815,
      "duration": 0.0294,
      "velocity": 98,
      "chip": "ym2612"
    },
    {
      "channel": 4,
      "note": 87,
      "start": 58.1822,
      "duration": 0.1831,
      "velocity": 99,
      "chip": "ym2612"
    },
    {
      "channel": 0,
      "note": 59,
      "start": 58.2141,
      "duration": 0.0169,
      "velocity": 99,
      "chip": "ym2612"
    },
    {
      "channel": 3,
      "note": 59,
      "start": 58.2153,
      "duration": 0.0065,
      "velocity": 98,
      "chip": "ym2612"
    },
    {
      "channel": 0,
      "note": 66,
      "start": 58.2312,
      "duration": 0.0161,
      "velocity": 99,
      "chip": "ym2612"
    },
    {
      "channel": 0,
      "note": 59,
      "start": 58.2476,
      "duration": 0.083,
      "velocity": 99,
      "chip": "ym2612"
    },
    {
      "channel": 3,
      "note": 59,
      "start": 58.2488,
      "duration": 0.006,
      "velocity": 98,
      "chip": "ym2612"
    },
    {
      "channel": 0,
      "note": 59,
      "start": 58.331,
      "duration": 0.0192,
      "velocity": 99,
      "chip": "ym2612"
    },
    {
      "channel": 1,
      "note": 85,
      "start": 58.3316,
      "duration": 1.0953,
      "velocity": 99,
      "chip": "ym2612"
    },
    {
      "channel": 3,
      "note": 59,
      "start": 58.3328,
      "duration": 0.0156,
      "velocity": 98,
      "chip": "ym2612"
    },
    {
      "channel": 0,
      "note": 60,
      "start": 58.3505,
      "duration": 0.0177,
      "velocity": 99,
      "chip": "ym2612"
    },
    {
      "channel": 3,
      "note": 59,
      "start": 58.3516,
      "duration": 0.0133,
      "velocity": 98,
      "chip": "ym2612"
    },
    {
      "channel": 0,
      "note": 61,
      "start": 58.3684,
      "duration": 0.0169,
      "velocity": 99,
      "chip": "ym2612"
    },
    {
      "channel": 2,
      "note": 85,
      "start": 58.3692,
      "duration": 1.058,
      "velocity": 99,
      "chip": "ym2612"
    },
    {
      "channel": 3,
      "note": 60,
      "start": 58.3699,
      "duration": 0.0137,
      "velocity": 98,
      "chip": "ym2612"
    },
    {
      "channel": 4,
      "note": 83,
      "start": 58.3706,
      "duration": 1.0573,
      "velocity": 99,
      "chip": "ym2612"
    },
    {
      "channel": 0,
      "note": 59,
      "start": 58.4024,
      "duration": 0.0166,
      "velocity": 99,
      "chip": "ym2612"
    },
    {
      "channel": 3,
      "note": 61,
      "start": 58.4036,
      "duration": 0.0136,
      "velocity": 98,
      "chip": "ym2612"
    },
    {
      "channel": 0,
      "note": 60,
      "start": 58.4193,
      "duration": 0.0188,
      "velocity": 99,
      "chip": "ym2612"
    },
    {
      "channel": 3,
      "note": 59,
      "start": 58.4204,
      "duration": 0.0138,
      "velocity": 98,
      "chip": "ym2612"
    },
    {
      "channel": 0,
      "note": 61,
      "start": 58.4384,
      "duration": 0.0169,
      "velocity": 99,
      "chip": "ym2612"
    },
    {
      "channel": 3,
      "note": 60,
      "start": 58.4396,
      "duration": 0.014,
      "velocity": 98,
      "chip": "ym2612"
    },
    {
      "channel": 0,
      "note": 64,
      "start": 58.4721,
      "duration": 0.0331,
      "velocity": 99,
      "chip": "ym2612"
    },
    {
      "channel": 3,
      "note": 61,
      "start": 58.4732,
      "duration": 0.0298,
      "velocity": 98,
      "chip": "ym2612"
    },
    {
      "channel": 0,
      "note": 61,
      "start": 58.5054,
      "duration": 0.0339,
      "velocity": 99,
      "chip": "ym2612"
    },
    {
      "channel": 3,
      "note": 64,
      "start": 58.5066,
      "duration": 0.0631,
      "velocity": 98,
      "chip": "ym2612"
    },
    {
      "channel": 0,
      "note": 61,
      "start": 58.5395,
      "duration": 0.0337,
      "velocity": 99,
      "chip": "ym2612"
    },
    {
      "channel": 0,
      "note": 56,
      "start": 58.5735,
      "duration": 0.033,
      "velocity": 99,
      "chip": "ym2612"
    },
    {
      "channel": 3,
      "note": 61,
      "start": 58.5746,
      "duration": 0.0294,
      "velocity": 98,
      "chip": "ym2612"
    },
    {
      "channel": 0,
      "note": 59,
      "start": 58.607,
      "duration": 0.019,
      "velocity": 99,
      "chip": "ym2612"
    },
    {
      "channel": 3,
      "note": 56,
      "start": 58.6093,
      "duration": 0.0149,
      "velocity": 98,
      "chip": "ym2612"
    },
    {
      "channel": 0,
      "note": 60,
      "start": 58.6263,
      "duration": 0.0171,
      "velocity": 99,
      "chip": "ym2612"
    },
    {
      "channel": 3,
      "note": 59,
      "start": 58.6274,
      "duration": 0.0128,
      "velocity": 98,
      "chip": "ym2612"
    },
    {
      "channel": 0,
      "note": 61,
      "start": 58.6436,
      "duration": 0.0172,
      "velocity": 99,
      "chip": "ym2612"
    },
    {
      "channel": 3,
      "note": 60,
      "start": 58.6447,
      "duration": 0.014,
      "velocity": 98,
      "chip": "ym2612"
    },
    {
      "channel": 0,
      "note": 59,
      "start": 58.6765,
      "duration": 0.0168,
      "velocity": 99,
      "chip": "ym2612"
    },
    {
      "channel": 3,
      "note": 61,
      "start": 58.6777,
      "duration": 0.0135,
      "velocity": 98,
      "chip": "ym2612"
    },
    {
      "channel": 0,
      "note": 60,
      "start": 58.6935,
      "duration": 0.0182,
      "velocity": 99,
      "chip": "ym2612"
    },
    {
      "channel": 3,
      "note": 59,
      "start": 58.6947,
      "duration": 0.0143,
      "velocity": 98,
      "chip": "ym2612"
    },
    {
      "channel": 0,
      "note": 61,
      "start": 58.712,
      "duration": 0.0166,
      "velocity": 99,
      "chip": "ym2612"
    },
    {
      "channel": 3,
      "note": 60,
      "start": 58.7131,
      "duration": 0.0136,
      "velocity": 98,
      "chip": "ym2612"
    },
    {
      "channel": 0,
      "note": 64,
      "start": 58.7456,
      "duration": 0.0344,
      "velocity": 99,
      "chip": "ym2612"
    },
    {
      "channel": 3,
      "note": 61,
      "start": 58.7469,
      "duration": 0.0292,
      "velocity": 98,
      "chip": "ym2612"
    },
    {
      "channel": 0,
      "note": 61,
      "start": 58.7802,
      "duration": 0.0334,
      "velocity": 99,
      "chip": "ym2612"
    },
    {
      "channel": 3,
      "note": 64,
      "start": 58.7814,
      "duration": 0.063,
      "velocity": 98,
      "chip": "ym2612"
    },
    {
      "channel": 0,
      "note": 61,
      "start": 58.8139,
      "duration": 0.0339,
      "velocity": 99,
      "chip": "ym2612"
    },
    {
      "channel": 0,
      "note": 56,
      "start": 58.8481,
      "duration": 0.0339,
      "velocity": 99,
      "chip": "ym2612"
    },
    {
      "channel": 3,
      "note": 61,
      "start": 58.8492,
      "duration": 0.0297,
      "velocity": 98,
      "chip": "ym2612"
    },
    {
      "channel": 0,
      "note": 59,
      "start": 58.8823,
      "duration": 0.0184,
      "velocity": 99,
      "chip": "ym2612"
    },
    {
      "channel": 3,
      "note": 56,
      "start": 58.8841,
      "duration": 0.0148,
      "velocity": 98,
      "chip": "ym2612"
    },
    {
      "channel": 0,
      "note": 60,
      "start": 58.901,
      "duration": 0.018,
      "velocity": 99,
      "chip": "ym2612"
    },
    {
      "channel": 3,
      "note": 59,
      "start": 58.9021,
      "duration": 0.0133,
      "velocity": 98,
      "chip": "ym2612"
    },
    {
      "channel": 0,
      "note": 61,
      "start": 58.9192,
      "duration": 0.0177,
      "velocity": 99,
      "chip": "ym2612"
    },
    {
      "channel": 3,
      "note": 60,
      "start": 58.9207,
      "duration": 0.0144,
      "velocity": 98,
      "chip": "ym2612"
    },
    {
      "channel": 0,
      "note": 59,
      "start": 58.9527,
      "duration": 0.0171,
      "velocity": 99,
      "chip": "ym2612"
    },
    {
      "channel": 3,
      "note": 61,
      "start": 58.9538,
      "duration": 0.0139,
      "velocity": 98,
      "chip": "ym2612"
    },
    {
      "channel": 0,
      "note": 60,
      "start": 58.9701,
      "duration": 0.0164,
      "velocity": 99,
      "chip": "ym2612"
    },
    {
      "channel": 3,
      "note": 59,
      "start": 58.9713,
      "duration": 0.0133,
      "velocity": 98,
      "chip": "ym2612"
    },
    {
      "channel": 0,
      "note": 61,
      "start": 58.9867,
      "duration": 0.0165,
      "velocity": 99,
      "chip": "ym2612"
    },
    {
      "channel": 3,
      "note": 60,
      "start": 58.9878,
      "duration": 0.0136,
      "velocity": 98,
      "chip": "ym2612"
    },
    {
      "channel": 0,
      "note": 64,
      "start": 59.0206,
      "duration": 0.0334,
      "velocity": 99,
      "chip": "ym2612"
    },
    {
      "channel": 3,
      "note": 61,
      "start": 59.0218,
      "duration": 0.0298,
      "velocity": 98,
      "chip": "ym2612"
    },
    {
      "channel": 0,
      "note": 61,
      "start": 59.0542,
      "duration": 0.0332,
      "velocity": 99,
      "chip": "ym2612"
    },
    {
      "channel": 3,
      "note": 64,
      "start": 59.0557,
      "duration": 0.0624,
      "velocity": 98,
      "chip": "ym2612"
    },
    {
      "channel": 0,
      "note": 61,
      "start": 59.0876,
      "duration": 0.0339,
      "velocity": 99,
      "chip": "ym2612"
    },
    {
      "channel": 0,
      "note": 56,
      "start": 59.1217,
      "duration": 0.0336,
      "velocity": 99,
      "chip": "ym2612"
    },
    {
      "channel": 3,
      "note": 61,
      "start": 59.1229,
      "duration": 0.0298,
      "velocity": 98,
      "chip": "ym2612"
    },
    {
      "channel": 0,
      "note": 59,
      "start": 59.1557,
      "duration": 0.0179,
      "velocity": 99,
      "chip": "ym2612"
    },
    {
      "channel": 3,
      "note": 56,
      "start": 59.1571,
      "duration": 0.0147,
      "velocity": 98,
      "chip": "ym2612"
    },
    {
      "channel": 0,
      "note": 60,
      "start": 59.1739,
      "duration": 0.0186,
      "velocity": 99,
      "chip": "ym2612"
    },
    {
      "channel": 3,
      "note": 59,
      "start": 59.175,
      "duration": 0.0138,
      "velocity": 98,
      "chip": "ym2612"
    },
    {
      "channel": 0,
      "note": 61,
      "start": 59.1927,
      "duration": 0.0171,
      "velocity": 99,
      "chip": "ym2612"
    },
    {
      "channel": 3,
      "note": 60,
      "start": 59.194,
      "duration": 0.0139,
      "velocity": 98,
      "chip": "ym2612"
    },
    {
      "channel": 0,
      "note": 59,
      "start": 59.2259,
      "duration": 0.0178,
      "velocity": 99,
      "chip": "ym2612"
    },
    {
      "channel": 3,
      "note": 61,
      "start": 59.227,
      "duration": 0.0146,
      "velocity": 98,
      "chip": "ym2612"
    },
    {
      "channel": 0,
      "note": 60,
      "start": 59.2439,
      "duration": 0.0171,
      "velocity": 99,
      "chip": "ym2612"
    },
    {
      "channel": 3,
      "note": 59,
      "start": 59.2451,
      "duration": 0.0132,
      "velocity": 98,
      "chip": "ym2612"
    },
    {
      "channel": 0,
      "note": 61,
      "start": 59.2612,
      "duration": 0.0171,
      "velocity": 99,
      "chip": "ym2612"
    },
    {
      "channel": 3,
      "note": 60,
      "start": 59.2624,
      "duration": 0.014,
      "velocity": 98,
      "chip": "ym2612"
    },
    {
      "channel": 0,
      "note": 64,
      "start": 59.295,
      "duration": 0.0339,
      "velocity": 99,
      "chip": "ym2612"
    },
    {
      "channel": 3,
      "note": 61,
      "start": 59.2962,
      "duration": 0.0301,
      "velocity": 98,
      "chip": "ym2612"
    },
    {
      "channel": 0,
      "note": 61,
      "start": 59.3292,
      "duration": 0.0333,
      "velocity": 99,
      "chip": "ym2612"
    },
    {
      "channel": 3,
      "note": 64,
      "start": 59.3304,
      "duration": 0.0625,
      "velocity": 98,
      "chip": "ym2612"
    },
    {
      "channel": 0,
      "note": 61,
      "start": 59.3627,
      "duration": 0.0332,
      "velocity": 99,
      "chip": "ym2612"
    },
    {
      "channel": 0,
      "note": 56,
      "start": 59.3962,
      "duration": 0.0339,
      "velocity": 99,
      "chip": "ym2612"
    },
    {
      "channel": 3,
      "note": 61,
      "start": 59.3974,
      "duration": 0.0302,
      "velocity": 98,
      "chip": "ym2612"
    },
    {
      "channel": 0,
      "note": 59,
      "start": 59.4305,
      "duration": 0.0263,
      "velocity": 99,
      "chip": "ym2612"
    },
    {
      "channel": 1,
      "note": 97,
      "start": 59.4332,
      "duration": 0.028,
      "velocity": 100,
      "chip": "ym2612"
    },
    {
      "channel": 2,
      "note": 71,
      "start": 59.4358,
      "duration": 0.0189,
      "velocity": 98,
      "chip": "ym2612"
    },
    {
      "channel": 3,
      "note": 56,
      "start": 59.4367,
      "duration": 0.0183,
      "velocity": 98,
      "chip": "ym2612"
    },
    {
      "channel": 4,
      "note": 85,
      "start": 59.4454,
      "duration": 0.0219,
      "velocity": 99,
      "chip": "ym2612"
    },
    {
      "channel": 0,
      "note": 60,
      "start": 59.457,
      "duration": 0.019,
      "velocity": 99,
      "chip": "ym2612"
    },
    {
      "channel": 2,
      "note": 72,
      "start": 59.4578,
      "duration": 0.0145,
      "velocity": 98,
      "chip": "ym2612"
    },
    {
      "channel": 3,
      "note": 59,
      "start": 59.4584,
      "duration": 0.0142,
      "velocity": 98,
      "chip": "ym2612"
    },
    {
      "channel": 0,
      "note": 61,
      "start": 59.4762,
      "duration": 0.0176,
      "velocity": 99,
      "chip": "ym2612"
    },
    {
      "channel": 1,
      "note": 97,
      "start": 59.4768,
      "duration": 0.004,
      "velocity": 100,
      "chip": "ym2612"
    },
    {
      "channel": 2,
      "note": 73,
      "start": 59.4773,
      "duration": 0.0139,
      "velocity": 98,
      "chip": "ym2612"
    },
    {
      "channel": 3,
      "note": 60,
      "start": 59.4779,
      "duration": 0.0137,
      "velocity": 98,
      "chip": "ym2612"
    },
    {
      "channel": 4,
      "note": 97,
      "start": 59.4819,
      "duration": 0.0049,
      "velocity": 99,
      "chip": "ym2612"
    },
    {
      "channel": 1,
      "note": 97,
      "start": 59.4944,
      "duration": 0.0033,
      "velocity": 100,
      "chip": "ym2612"
    },
    {
      "channel": 4,
      "note": 97,
      "start": 59.4988,
      "duration": 0.0049,
      "velocity": 99,
      "chip": "ym2612"
    },
    {
      "channel": 0,
      "note": 59,
      "start": 59.5108,
      "duration": 0.0189,
      "velocity": 99,
      "chip": "ym2612"
    },
    {
      "channel": 1,
      "note": 97,
      "start": 59.5117,
      "duration": 0.0224,
      "velocity": 100,
      "chip": "ym2612"
    },
    {
      "channel": 2,
      "note": 71,
      "start": 59.5122,
      "duration": 0.0146,
      "velocity": 98,
      "chip": "ym2612"
    },
    {
      "channel": 3,
      "note": 61,
      "start": 59.5129,
      "duration": 0.0143,
      "velocity": 98,
      "chip": "ym2612"
    },
    {
      "channel": 4,
      "note": 97,
      "start": 59.5172,
      "duration": 0.0226,
      "velocity": 99,
      "chip": "ym2612"
    },
    {
      "channel": 0,
      "note": 60,
      "start": 59.5299,
      "duration": 0.0174,
      "velocity": 99,
      "chip": "ym2612"
    },
    {
      "channel": 2,
      "note": 72,
      "start": 59.5307,
      "duration": 0.0135,
      "velocity": 98,
      "chip": "ym2612"
    },
    {
      "channel": 3,
      "note": 59,
      "start": 59.5313,
      "duration": 0.0132,
      "velocity": 98,
      "chip": "ym2612"
    },
    {
      "channel": 0,
      "note": 61,
      "start": 59.5476,
      "duration": 0.0189,
      "velocity": 99,
      "chip": "ym2612"
    },
    {
      "channel": 1,
      "note": 97,
      "start": 59.5481,
      "duration": 0.0039,
      "velocity": 100,
      "chip": "ym2612"
    },
    {
      "channel": 2,
      "note": 73,
      "start": 59.5487,
      "duration": 0.0146,
      "velocity": 98,
      "chip": "ym2612"
    },
    {
      "channel": 3,
      "note": 60,
      "start": 59.5493,
      "duration": 0.0143,
      "velocity": 98,
      "chip": "ym2612"
    },
    {
      "channel": 4,
      "note": 97,
      "start": 59.5532,
      "duration": 0.0053,
      "velocity": 99,
      "chip": "ym2612"
    },
    {
      "channel": 1,
      "note": 97,
      "start": 59.5671,
      "duration": 0.0037,
      "velocity": 100,
      "chip": "ym2612"
    },
    {
      "channel": 4,
      "note": 97,
      "start": 59.5718,
      "duration": 0.005,
      "velocity": 99,
      "chip": "ym2612"
    },
    {
      "channel": 0,
      "note": 64,
      "start": 59.5849,
      "duration": 0.0357,
      "velocity": 99,
      "chip": "ym2612"
    },
    {
      "channel": 1,
      "note": 97,
      "start": 59.5854,
      "duration": 0.0211,
      "velocity": 100,
      "chip": "ym2612"
    },
    {
      "channel": 2,
      "note": 76,
      "start": 59.5859,
      "duration": 0.0315,
      "velocity": 98,
      "chip": "ym2612"
    },
    {
      "channel": 3,
      "note": 61,
      "start": 59.5866,
      "duration": 0.0312,
      "velocity": 98,
      "chip": "ym2612"
    },
    {
      "channel": 4,
      "note": 97,
      "start": 59.5908,
      "duration": 0.0221,
      "velocity": 99,
      "chip": "ym2612"
    },
    {
      "channel": 0,
      "note": 61,
      "start": 59.6208,
      "duration": 0.0348,
      "velocity": 99,
      "chip": "ym2612"
    },
    {
      "channel": 1,
      "note": 97,
      "start": 59.6213,
      "duration": 0.0039,
      "velocity": 100,
      "chip": "ym2612"
    },
    {
      "channel": 2,
      "note": 73,
      "start": 59.6219,
      "duration": 0.0638,
      "velocity": 98,
      "chip": "ym2612"
    },
    {
      "channel": 3,
      "note": 64,
      "start": 59.6225,
      "duration": 0.0635,
      "velocity": 98,
      "chip": "ym2612"
    },
    {
      "channel": 4,
      "note": 97,
      "start": 59.6264,
      "duration": 0.005,
      "velocity": 99,
      "chip": "ym2612"
    },
    {
      "channel": 1,
      "note": 97,
      "start": 59.6388,
      "duration": 0.0029,
      "velocity": 100,
      "chip": "ym2612"
    },
    {
      "channel": 4,
      "note": 97,
      "start": 59.6428,
      "duration": 0.0049,
      "velocity": 99,
      "chip": "ym2612"
    },
    {
      "channel": 0,
      "note": 61,
      "start": 59.6558,
      "duration": 0.0329,
      "velocity": 99,
      "chip": "ym2612"
    },
    {
      "channel": 1,
      "note": 97,
      "start": 59.6564,
      "duration": 0.0192,
      "velocity": 100,
      "chip": "ym2612"
    },
    {
      "channel": 4,
      "note": 97,
      "start": 59.6613,
      "duration": 0.02,
      "velocity": 99,
      "chip": "ym2612"
    },
    {
      "channel": 0,
      "note": 56,
      "start": 59.689,
      "duration": 0.0349,
      "velocity": 99,
      "chip": "ym2612"
    },
    {
      "channel": 1,
      "note": 97,
      "start": 59.6895,
      "duration": 0.004,
      "velocity": 100,
      "chip": "ym2612"
    },
    {
      "channel": 2,
      "note": 68,
      "start": 59.6901,
      "duration": 0.0317,
      "velocity": 98,
      "chip": "ym2612"
    },
    {
      "channel": 3,
      "note": 61,
      "start": 59.6907,
      "duration": 0.0314,
      "velocity": 98,
      "chip": "ym2612"
    },
    {
      "channel": 4,
      "note": 97,
      "start": 59.6946,
      "duration": 0.0054,
      "velocity": 99,
      "chip": "ym2612"
    },
    {
      "channel": 1,
      "note": 97,
      "start": 59.7084,
      "duration": 0.0029,
      "velocity": 100,
      "chip": "ym2612"
    },
    {
      "channel": 4,
      "note": 97,
      "start": 59.7125,
      "duration": 0.0025,
      "velocity": 99,
      "chip": "ym2612"
    },
    {
      "channel": 0,
      "note": 59,
      "start": 59.7243,
      "duration": 0.025,
      "velocity": 99,
      "chip": "ym2612"
    },
    {
      "channel": 1,
      "note": 97,
      "start": 59.727,
      "duration": 0.027,
      "velocity": 100,
      "chip": "ym2612"
    },
    {
      "channel": 2,
      "note": 71,
      "start": 59.7276,
      "duration": 0.0188,
      "velocity": 98,
      "chip": "ym2612"
    },
    {
      "channel": 3,
      "note": 56,
      "start": 59.7285,
      "duration": 0.0183,
      "velocity": 98,
      "chip": "ym2612"
    },
    {
      "channel": 4,
      "note": 97,
      "start": 59.7369,
      "duration": 0.0233,
      "velocity": 99,
      "chip": "ym2612"
    },
    {
      "channel": 0,
      "note": 60,
      "start": 59.7495,
      "duration": 0.0183,
      "velocity": 99,
      "chip": "ym2612"
    },
    {
      "channel": 2,
      "note": 72,
      "start": 59.7506,
      "duration": 0.0141,
      "velocity": 98,
      "chip": "ym2612"
    },
    {
      "channel": 3,
      "note": 59,
      "start": 59.7512,
      "duration": 0.0137,
      "velocity": 98,
      "chip": "ym2612"
    },
    {
      "channel": 0,
      "note": 61,
      "start": 59.768,
      "duration": 0.0175,
      "velocity": 99,
      "chip": "ym2612"
    },
    {
      "channel": 1,
      "note": 97,
      "start": 59.7686,
      "duration": 0.0039,
      "velocity": 100,
      "chip": "ym2612"
    },
    {
      "channel": 2,
      "note": 73,
      "start": 59.7691,
      "duration": 0.0138,
      "velocity": 98,
      "chip": "ym2612"
    },
    {
      "channel": 3,
      "note": 60,
      "start": 59.7697,
      "duration": 0.0134,
      "velocity": 98,
      "chip": "ym2612"
    },
    {
      "channel": 4,
      "note": 97,
      "start": 59.7736,
      "duration": 0.0049,
      "velocity": 99,
      "chip": "ym2612"
    },
    {
      "channel": 1,
      "note": 97,
      "start": 59.7861,
      "duration": 0.0032,
      "velocity": 100,
      "chip": "ym2612"
    },
    {
      "channel": 4,
      "note": 97,
      "start": 59.7904,
      "duration": 0.0052,
      "velocity": 99,
      "chip": "ym2612"
    },
    {
      "channel": 0,
      "note": 59,
      "start": 59.8033,
      "duration": 0.018,
      "velocity": 99,
      "chip": "ym2612"
    },
    {
      "channel": 1,
      "note": 97,
      "start": 59.8038,
      "duration": 0.0218,
      "velocity": 100,
      "chip": "ym2612"
    },
    {
      "channel": 2,
      "note": 71,
      "start": 59.8044,
      "duration": 0.0142,
      "velocity": 98,
      "chip": "ym2612"
    },
    {
      "channel": 3,
      "note": 61,
      "start": 59.805,
      "duration": 0.0139,
      "velocity": 98,
      "chip": "ym2612"
    },
    {
      "channel": 4,
      "note": 97,
      "start": 59.8093,
      "duration": 0.0221,
      "velocity": 99,
      "chip": "ym2612"
    },
    {
      "channel": 0,
      "note": 60,
      "start": 59.8215,
      "duration": 0.0179,
      "velocity": 99,
      "chip": "ym2612"
    },
    {
      "channel": 2,
      "note": 72,
      "start": 59.8223,
      "duration": 0.0136,
      "velocity": 98,
      "chip": "ym2612"
    },
    {
      "channel": 3,
      "note": 59,
      "start": 59.8229,
      "duration": 0.0133,
      "velocity": 98,
      "chip": "ym2612"
    },
    {
      "channel": 0,
      "note": 61,
      "start": 59.8397,
      "duration": 0.0185,
      "velocity": 99,
      "chip": "ym2612"
    },
    {
      "channel": 1,
      "note": 97,
      "start": 59.8402,
      "duration": 0.0039,
      "velocity": 100,
      "chip": "ym2612"
    },
    {
      "channel": 2,
      "note": 73,
      "start": 59.8407,
      "duration": 0.0146,
      "velocity": 98,
      "chip": "ym2612"
    },
    {
      "channel": 3,
      "note": 60,
      "start": 59.8414,
      "duration": 0.0143,
      "velocity": 98,
      "chip": "ym2612"
    },
    {
      "channel": 4,
      "note": 97,
      "start": 59.8455,
      "duration": 0.0053,
      "velocity": 99,
      "chip": "ym2612"
    },
    {
      "channel": 1,
      "note": 97,
      "start": 59.8588,
      "duration": 0.0032,
      "velocity": 100,
      "chip": "ym2612"
    },
    {
      "channel": 4,
      "note": 97,
      "start": 59.8631,
      "duration": 0.0051,
      "velocity": 99,
      "chip": "ym2612"
    },
    {
      "channel": 0,
      "note": 64,
      "start": 59.8761,
      "duration": 0.0359,
      "velocity": 99,
      "chip": "ym2612"
    },
    {
      "channel": 1,
      "note": 97,
      "start": 59.8767,
      "duration": 0.022,
      "velocity": 100,
      "chip": "ym2612"
    },
    {
      "channel": 2,
      "note": 76,
      "start": 59.8772,
      "duration": 0.0318,
      "velocity": 98,
      "chip": "ym2612"
    },
    {
      "channel": 3,
      "note": 61,
      "start": 59.8778,
      "duration": 0.0315,
      "velocity": 98,
      "chip": "ym2612"
    },
    {
      "channel": 4,
      "note": 97,
      "start": 59.8821,
      "duration": 0.0224,
      "velocity": 99,
      "chip": "ym2612"
    },
    {
      "channel": 0,
      "note": 61,
      "start": 59.9122,
      "duration": 0.0353,
      "velocity": 99,
      "chip": "ym2612"
    },
    {
      "channel": 1,
      "note": 97,
      "start": 59.9127,
      "duration": 0.0039,
      "velocity": 100,
      "chip": "ym2612"
    },
    {
      "channel": 2,
      "note": 73,
      "start": 59.9133,
      "duration": 0.064,
      "velocity": 98,
      "chip": "ym2612"
    },
    {
      "channel": 3,
      "note": 64,
      "start": 59.9139,
      "duration": 0.0637,
      "velocity": 98,
      "chip": "ym2612"
    },
    {
      "channel": 4,
      "note": 97,
      "start": 59.9178,
      "duration": 0.005,
      "velocity": 99,
      "chip": "ym2612"
    },
    {
      "channel": 1,
      "note": 97,
      "start": 59.9302,
      "duration": 0.0029,
      "velocity": 100,
      "chip": "ym2612"
    },
    {
      "channel": 4,
      "note": 97,
      "start": 59.9341,
      "duration": 0.0054,
      "velocity": 99,
      "chip": "ym2612"
    },
    {
      "channel": 0,
      "note": 61,
      "start": 59.9477,
      "duration": 0.0331,
      "velocity": 99,
      "chip": "ym2612"
    },
    {
      "channel": 1,
      "note": 97,
      "start": 59.9483,
      "duration": 0.0189,
      "velocity": 100,
      "chip": "ym2612"
    },
    {
      "channel": 4,
      "note": 97,
      "start": 59.9528,
      "duration": 0.02,
      "velocity": 99,
      "chip": "ym2612"
    },
    {
      "channel": 0,
      "note": 56,
      "start": 59.981,
      "duration": 0.0344,
      "velocity": 99,
      "chip": "ym2612"
    },
    {
      "channel": 1,
      "note": 97,
      "start": 59.9819,
      "duration": 0.0039,
      "velocity": 100,
      "chip": "ym2612"
    },
    {
      "channel": 2,
      "note": 68,
      "start": 59.9824,
      "duration": 0.0306,
      "velocity": 98,
      "chip": "ym2612"
    },
    {
      "channel": 3,
      "note": 61,
      "start": 59.983,
      "duration": 0.0303,
      "velocity": 98,
      "chip": "ym2612"
    },
    {
      "channel": 4,
      "note": 97,
      "start": 59.987,
      "duration": 0.0054,
      "velocity": 99,
      "chip": "ym2612"
    },
    {
      "channel": 1,
      "note": 97,
      "start": 59.9998,
      "duration": 0.0028,
      "velocity": 100,
      "chip": "ym2612"
    },
    {
      "channel": 4,
      "note": 97,
      "start": 60.0037,
      "duration": 0.0026,
      "velocity": 99,
      "chip": "ym2612"
    },
    {
      "channel": 0,
      "note": 59,
      "start": 60.0158,
      "duration": 0.0254,
      "velocity": 99,
      "chip": "ym2612"
    },
    {
      "channel": 1,
      "note": 97,
      "start": 60.0185,
      "duration": 0.0276,
      "velocity": 100,
      "chip": "ym2612"
    },
    {
      "channel": 2,
      "note": 71,
      "start": 60.0191,
      "duration": 0.0187,
      "velocity": 98,
      "chip": "ym2612"
    },
    {
      "channel": 3,
      "note": 56,
      "start": 60.02,
      "duration": 0.0181,
      "velocity": 98,
      "chip": "ym2612"
    },
    {
      "channel": 4,
      "note": 97,
      "start": 60.028,
      "duration": 0.0238,
      "velocity": 99,
      "chip": "ym2612"
    },
    {
      "channel": 0,
      "note": 60,
      "start": 60.0414,
      "duration": 0.0179,
      "velocity": 99,
      "chip": "ym2612"
    },
    {
      "channel": 2,
      "note": 72,
      "start": 60.0422,
      "duration": 0.0139,
      "velocity": 98,
      "chip": "ym2612"
    },
    {
      "channel": 3,
      "note": 59,
      "start": 60.0428,
      "duration": 0.0136,
      "velocity": 98,
      "chip": "ym2612"
    },
    {
      "channel": 0,
      "note": 61,
      "start": 60.0595,
      "duration": 0.0177,
      "velocity": 99,
      "chip": "ym2612"
    },
    {
      "channel": 1,
      "note": 97,
      "start": 60.06,
      "duration": 0.0039,
      "velocity": 100,
      "chip": "ym2612"
    },
    {
      "channel": 2,
      "note": 73,
      "start": 60.0606,
      "duration": 0.0139,
      "velocity": 98,
      "chip": "ym2612"
    },
    {
      "channel": 3,
      "note": 60,
      "start": 60.0612,
      "duration": 0.0135,
      "velocity": 98,
      "chip": "ym2612"
    },
    {
      "channel": 4,
      "note": 97,
      "start": 60.0651,
      "duration": 0.0049,
      "velocity": 99,
      "chip": "ym2612"
    },
    {
      "channel": 1,
      "note": 97,
      "start": 60.0778,
      "duration": 0.0032,
      "velocity": 100,
      "chip": "ym2612"
    },
    {
      "channel": 4,
      "note": 97,
      "start": 60.0824,
      "duration": 0.0053,
      "velocity": 99,
      "chip": "ym2612"
    },
    {
      "channel": 0,
      "note": 59,
      "start": 60.0951,
      "duration": 0.0182,
      "velocity": 99,
      "chip": "ym2612"
    },
    {
      "channel": 1,
      "note": 97,
      "start": 60.0957,
      "duration": 0.022,
      "velocity": 100,
      "chip": "ym2612"
    },
    {
      "channel": 2,
      "note": 71,
      "start": 60.0962,
      "duration": 0.0144,
      "velocity": 98,
      "chip": "ym2612"
    },
    {
      "channel": 3,
      "note": 61,
      "start": 60.0968,
      "duration": 0.0141,
      "velocity": 98,
      "chip": "ym2612"
    },
    {
      "channel": 4,
      "note": 97,
      "start": 60.1014,
      "duration": 0.0221,
      "velocity": 99,
      "chip": "ym2612"
    },
    {
      "channel": 0,
      "note": 60,
      "start": 60.1135,
      "duration": 0.0185,
      "velocity": 99,
      "chip": "ym2612"
    },
    {
      "channel": 2,
      "note": 72,
      "start": 60.1143,
      "duration": 0.0139,
      "velocity": 98,
      "chip": "ym2612"
    },
    {
      "channel": 3,
      "note": 59,
      "start": 60.1149,
      "duration": 0.0139,
      "velocity": 98,
      "chip": "ym2612"
    },
    {
      "channel": 0,
      "note": 61,
      "start": 60.1323,
      "duration": 0.018,
      "velocity": 99,
      "chip": "ym2612"
    },
    {
      "channel": 1,
      "note": 97,
      "start": 60.1329,
      "duration": 0.0043,
      "velocity": 100,
      "chip": "ym2612"
    },
    {
      "channel": 2,
      "note": 73,
      "start": 60.1335,
      "duration": 0.0143,
      "velocity": 98,
      "chip": "ym2612"
    },
    {
      "channel": 3,
      "note": 60,
      "start": 60.1344,
      "duration": 0.0137,
      "velocity": 98,
      "chip": "ym2612"
    },
    {
      "channel": 4,
      "note": 97,
      "start": 60.1383,
      "duration": 0.0051,
      "velocity": 99,
      "chip": "ym2612"
    },
    {
      "channel": 1,
      "note": 97,
      "start": 60.151,
      "duration": 0.0033,
      "velocity": 100,
      "chip": "ym2612"
    },
    {
      "channel": 4,
      "note": 97,
      "start": 60.1553,
      "duration": 0.005,
      "velocity": 99,
      "chip": "ym2612"
    },
    {
      "channel": 0,
      "note": 64,
      "start": 60.1683,
      "duration": 0.0358,
      "velocity": 99,
      "chip": "ym2612"
    },
    {
      "channel": 1,
      "note": 97,
      "start": 60.1688,
      "duration": 0.0222,
      "velocity": 100,
      "chip": "ym2612"
    },
    {
      "channel": 2,
      "note": 76,
      "start": 60.1693,
      "duration": 0.0318,
      "velocity": 98,
      "chip": "ym2612"
    },
    {
      "channel": 3,
      "note": 61,
      "start": 60.17,
      "duration": 0.0315,
      "velocity": 98,
      "chip": "ym2612"
    },
    {
      "channel": 4,
      "note": 97,
      "start": 60.1742,
      "duration": 0.0225,
      "velocity": 99,
      "chip": "ym2612"
    },
    {
      "channel": 0,
      "note": 61,
      "start": 60.2043,
      "duration": 0.0351,
      "velocity": 99,
      "chip": "ym2612"
    },
    {
      "channel": 1,
      "note": 97,
      "start": 60.2048,
      "duration": 0.0039,
      "velocity": 100,
      "chip": "ym2612"
    },
    {
      "channel": 2,
      "note": 73,
      "start": 60.2054,
      "duration": 0.0642,
      "velocity": 98,
      "chip": "ym2612"
    },
    {
      "channel": 3,
      "note": 64,
      "start": 60.206,
      "duration": 0.0639,
      "velocity": 98,
      "chip": "ym2612"
    },
    {
      "channel": 4,
      "note": 97,
      "start": 60.2099,
      "duration": 0.005,
      "velocity": 99,
      "chip": "ym2612"
    },
    {
      "channel": 1,
      "note": 97,
      "start": 60.2227,
      "duration": 0.0031,
      "velocity": 100,
      "chip": "ym2612"
    },
    {
      "channel": 4,
      "note": 97,
      "start": 60.227,
      "duration": 0.0053,
      "velocity": 99,
      "chip": "ym2612"
    },
    {
      "channel": 0,
      "note": 61,
      "start": 60.2396,
      "duration": 0.0339,
      "velocity": 99,
      "chip": "ym2612"
    },
    {
      "channel": 1,
      "note": 97,
      "start": 60.2401,
      "duration": 0.0187,
      "velocity": 100,
      "chip": "ym2612"
    },
    {
      "channel": 4,
      "note": 97,
      "start": 60.2445,
      "duration": 0.0202,
      "velocity": 99,
      "chip": "ym2612"
    },
    {
      "channel": 0,
      "note": 56,
      "start": 60.2737,
      "duration": 0.034,
      "velocity": 99,
      "chip": "ym2612"
    },
    {
      "channel": 1,
      "note": 97,
      "start": 60.2743,
      "duration": 0.0043,
      "velocity": 100,
      "chip": "ym2612"
    },
    {
      "channel": 2,
      "note": 80,
      "start": 60.2748,
      "duration": 0.0305,
      "velocity": 98,
      "chip": "ym2612"
    },
    {
      "channel": 3,
      "note": 61,
      "start": 60.2754,
      "duration": 0.0302,
      "velocity": 98,
      "chip": "ym2612"
    },
    {
      "channel": 4,
      "note": 97,
      "start": 60.2797,
      "duration": 0.0051,
      "velocity": 99,
      "chip": "ym2612"
    },
    {
      "channel": 1,
      "note": 97,
      "start": 60.292,
      "duration": 0.0029,
      "velocity": 100,
      "chip": "ym2612"
    },
    {
      "channel": 4,
      "note": 97,
      "start": 60.2959,
      "duration": 0.0025,
      "velocity": 99,
      "chip": "ym2612"
    },
    {
      "channel": 0,
      "note": 61,
      "start": 60.3081,
      "duration": 0.0351,
      "velocity": 99,
      "chip": "ym2612"
    },
    {
      "channel": 1,
      "note": 97,
      "start": 60.3088,
      "duration": 0.0206,
      "velocity": 100,
      "chip": "ym2612"
    },
    {
      "channel": 2,
      "note": 73,
      "start": 60.3093,
      "duration": 0.0301,
      "velocity": 98,
      "chip": "ym2612"
    },
    {
      "channel": 3,
      "note": 56,
      "start": 60.3101,
      "duration": 0.0297,
      "velocity": 98,
      "chip": "ym2612"
    },
    {
      "channel": 4,
      "note": 97,
      "start": 60.3109,
      "duration": 0.0218,
      "velocity": 99,
      "chip": "ym2612"
    },
    {
      "channel": 0,
      "note": 56,
      "start": 60.3435,
      "duration": 0.0369,
      "velocity": 99,
      "chip": "ym2612"
    },
    {
      "channel": 1,
      "note": 56,
      "start": 60.3459,
      "duration": 0.0215,
      "velocity": 98,
      "chip": "ym2612"
    },
    {
      "channel": 2,
      "note": 63,
      "start": 60.3484,
      "duration": 0.0193,
      "velocity": 98,
      "chip": "ym2612"
    },
    {
      "channel": 0,
      "note": 56,
      "start": 60.3806,
      "duration": 0.0425,
      "velocity": 99,
      "chip": "ym2612"
    },
    {
      "channel": 1,
      "note": 56,
      "start": 60.3829,
      "duration": 0.0266,
      "velocity": 98,
      "chip": "ym2612"
    },
    {
      "channel": 2,
      "note": 63,
      "start": 60.3851,
      "duration": 0.0246,
      "velocity": 98,
      "chip": "ym2612"
    },
    {
      "channel": 3,
      "note": 61,
      "start": 60.3891,
      "duration": 0.021,
      "velocity": 98,
      "chip": "ym2612"
    },
    {
      "channel": 4,
      "note": 97,
      "start": 60.3924,
      "duration": 0.0207,
      "velocity": 98,
      "chip": "ym2612"
    },
    {
      "channel": 0,
      "note": 56,
      "start": 60.4233,
      "duration": 0.0361,
      "velocity": 99,
      "chip": "ym2612"
    },
    {
      "channel": 1,
      "note": 56,
      "start": 60.4256,
      "duration": 0.0212,
      "velocity": 98,
      "chip": "ym2612"
    },
    {
      "channel": 2,
      "note": 63,
      "start": 60.4284,
      "duration": 0.0187,
      "velocity": 98,
      "chip": "ym2612"
    },
    {
      "channel": 3,
      "note": 56,
      "start": 60.429,
      "duration": 0.0184,
      "velocity": 98,
      "chip": "ym2612"
    },
    {
      "channel": 4,
      "note": 56,
      "start": 60.4297,
      "duration": 0.0205,
      "velocity": 98,
      "chip": "ym2612"
    },
    {
      "channel": 0,
      "note": 56,
      "start": 60.4597,
      "duration": 0.0332,
      "velocity": 99,
      "chip": "ym2612"
    },
    {
      "channel": 1,
      "note": 56,
      "start": 60.4605,
      "duration": 0.0196,
      "velocity": 98,
      "chip": "ym2612"
    },
    {
      "channel": 2,
      "note": 63,
      "start": 60.4611,
      "duration": 0.0193,
      "velocity": 98,
      "chip": "ym2612"
    },
    {
      "channel": 3,
      "note": 56,
      "start": 60.4617,
      "duration": 0.019,
      "velocity": 98,
      "chip": "ym2612"
    },
    {
      "channel": 4,
      "note": 56,
      "start": 60.4624,
      "duration": 0.0212,
      "velocity": 98,
      "chip": "ym2612"
    },
    {
      "channel": 0,
      "note": 58,
      "start": 60.4931,
      "duration": 0.0385,
      "velocity": 99,
      "chip": "ym2612"
    },
    {
      "channel": 1,
      "note": 58,
      "start": 60.4954,
      "duration": 0.0219,
      "velocity": 98,
      "chip": "ym2612"
    },
    {
      "channel": 2,
      "note": 65,
      "start": 60.4976,
      "duration": 0.0199,
      "velocity": 98,
      "chip": "ym2612"
    },
    {
      "channel": 3,
      "note": 56,
      "start": 60.4983,
      "duration": 0.0196,
      "velocity": 98,
      "chip": "ym2612"
    },
    {
      "channel": 4,
      "note": 56,
      "start": 60.4989,
      "duration": 0.0217,
      "velocity": 98,
      "chip": "ym2612"
    },
    {
      "channel": 0,
      "note": 58,
      "start": 60.5319,
      "duration": 0.0339,
      "velocity": 99,
      "chip": "ym2612"
    },
    {
      "channel": 1,
      "note": 58,
      "start": 60.5324,
      "duration": 0.0191,
      "velocity": 98,
      "chip": "ym2612"
    },
    {
      "channel": 2,
      "note": 65,
      "start": 60.5329,
      "duration": 0.0192,
      "velocity": 98,
      "chip": "ym2612"
    },
    {
      "channel": 3,
      "note": 58,
      "start": 60.5335,
      "duration": 0.0189,
      "velocity": 98,
      "chip": "ym2612"
    },
    {
      "channel": 4,
      "note": 56,
      "start": 60.5342,
      "duration": 0.0211,
      "velocity": 98,
      "chip": "ym2612"
    },
    {
      "channel": 0,
      "note": 58,
      "start": 60.566,
      "duration": 0.038,
      "velocity": 99,
      "chip": "ym2612"
    },
    {
      "channel": 1,
      "note": 58,
      "start": 60.5682,
      "duration": 0.0212,
      "velocity": 98,
      "chip": "ym2612"
    },
    {
      "channel": 2,
      "note": 65,
      "start": 60.5706,
      "duration": 0.0191,
      "velocity": 98,
      "chip": "ym2612"
    },
    {
      "channel": 3,
      "note": 58,
      "start": 60.5712,
      "duration": 0.0188,
      "velocity": 98,
      "chip": "ym2612"
    },
    {
      "channel": 4,
      "note": 58,
      "start": 60.5722,
      "duration": 0.0207,
      "velocity": 98,
      "chip": "ym2612"
    },
    {
      "channel": 0,
      "note": 63,
      "start": 60.6041,
      "duration": 0.041,
      "velocity": 99,
      "chip": "ym2612"
    },
    {
      "channel": 1,
      "note": 90,
      "start": 60.6072,
      "duration": 0.0357,
      "velocity": 101,
      "chip": "ym2612"
    },
    {
      "channel": 2,
      "note": 87,
      "start": 60.6097,
      "duration": 0.0334,
      "velocity": 101,
      "chip": "ym2612"
    },
    {
      "channel": 0,
      "note": 63,
      "start": 60.6454,
      "duration": 0.1722,
      "velocity": 99,
      "chip": "ym2612"
    },
    {
      "channel": 3,
      "note": 58,
      "start": 60.6495,
      "duration": 0.1533,
      "velocity": 101,
      "chip": "ym2612"
    },
    {
      "channel": 4,
      "note": 58,
      "start": 60.653,
      "duration": 0.1031,
      "velocity": 101,
      "chip": "ym2612"
    },
    {
      "channel": 0,
      "note": 63,
      "start": 60.8179,
      "duration": 0.0346,
      "velocity": 99,
      "chip": "ym2612"
    },
    {
      "channel": 1,
      "note": 88,
      "start": 60.8184,
      "duration": 0.0317,
      "velocity": 101,
      "chip": "ym2612"
    },
    {
      "channel": 2,
      "note": 85,
      "start": 60.8194,
      "duration": 0.0309,
      "velocity": 101,
      "chip": "ym2612"
    },
    {
      "channel": 0,
      "note": 63,
      "start": 60.8527,
      "duration": 0.0816,
      "velocity": 99,
      "chip": "ym2612"
    },
    {
      "channel": 1,
      "note": 89,
      "start": 60.8533,
      "duration": 0.1108,
      "velocity": 101,
      "chip": "ym2612"
    },
    {
      "channel": 2,
      "note": 85,
      "start": 60.8539,
      "duration": 0.1105,
      "velocity": 101,
      "chip": "ym2612"
    },
    {
      "channel": 3,
      "note": 90,
      "start": 60.8546,
      "duration": 0.0648,
      "velocity": 101,
      "chip": "ym2612"
    },
    {
      "channel": 4,
      "note": 87,
      "start": 60.8558,
      "duration": 0.0218,
      "velocity": 101,
      "chip": "ym2612"
    },
    {
      "channel": 0,
      "note": 63,
      "start": 60.9345,
      "duration": 0.0329,
      "velocity": 99,
      "chip": "ym2612"
    },
    {
      "channel": 3,
      "note": 90,
      "start": 60.9357,
      "duration": 0.0623,
      "velocity": 101,
      "chip": "ym2612"
    },
    {
      "channel": 4,
      "note": 87,
      "start": 60.9366,
      "duration": 0.0542,
      "velocity": 101,
      "chip": "ym2612"
    },
    {
      "channel": 0,
      "note": 63,
      "start": 60.9677,
      "duration": 0.0322,
      "velocity": 99,
      "chip": "ym2612"
    },
    {
      "channel": 1,
      "note": 85,
      "start": 60.9683,
      "duration": 0.0292,
      "velocity": 101,
      "chip": "ym2612"
    },
    {
      "channel": 0,
      "note": 63,
      "start": 61.0002,
      "duration": 0.0323,
      "velocity": 99,
      "chip": "ym2612"
    },
    {
      "channel": 1,
      "note": 87,
      "start": 61.0007,
      "duration": 0.0293,
      "velocity": 101,
      "chip": "ym2612"
    },
    {
      "channel": 3,
      "note": 89,
      "start": 61.0016,
      "duration": 0.029,
      "velocity": 101,
      "chip": "ym2612"
    },
    {
      "channel": 0,
      "note": 63,
      "start": 61.0327,
      "duration": 0.0838,
      "velocity": 99,
      "chip": "ym2612"
    },
    {
      "channel": 1,
      "note": 82,
      "start": 61.0332,
      "duration": 0.0679,
      "velocity": 101,
      "chip": "ym2612"
    },
    {
      "channel": 3,
      "note": 85,
      "start": 61.0341,
      "duration": 0.0676,
      "velocity": 101,
      "chip": "ym2612"
    },
    {
      "channel": 0,
      "note": 61,
      "start": 61.1168,
      "duration": 0.0328,
      "velocity": 99,
      "chip": "ym2612"
    },
    {
      "channel": 1,
      "note": 90,
      "start": 61.1173,
      "duration": 0.0298,
      "velocity": 101,
      "chip": "ym2612"
    },
    {
      "channel": 2,
      "note": 87,
      "start": 61.1178,
      "duration": 0.0295,
      "velocity": 101,
      "chip": "ym2612"
    },
    {
      "channel": 3,
      "note": 87,
      "start": 61.1185,
      "duration": 0.0292,
      "velocity": 101,
      "chip": "ym2612"
    },
    {
      "channel": 0,
      "note": 61,
      "start": 61.1498,
      "duration": 0.1814,
      "velocity": 99,
      "chip": "ym2612"
    },
    {
      "channel": 3,
      "note": 82,
      "start": 61.1515,
      "duration": 0.1649,
      "velocity": 101,
      "chip": "ym2612"
    },
    {
      "channel": 4,
      "note": 85,
      "start": 61.1521,
      "duration": 0.1176,
      "velocity": 101,
      "chip": "ym2612"
    },
    {
      "channel": 0,
      "note": 61,
      "start": 61.3314,
      "duration": 0.0332,
      "velocity": 99,
      "chip": "ym2612"
    },
    {
      "channel": 1,
      "note": 90,
      "start": 61.3319,
      "duration": 0.0303,
      "velocity": 101,
      "chip": "ym2612"
    },
    {
      "channel": 2,
      "note": 87,
      "start": 61.3324,
      "duration": 0.03,
      "velocity": 101,
      "chip": "ym2612"
    },
    {
      "channel": 0,
      "note": 61,
      "start": 61.3648,
      "duration": 0.0839,
      "velocity": 99,
      "chip": "ym2612"
    },
    {
      "channel": 1,
      "note": 89,
      "start": 61.3654,
      "duration": 0.1123,
      "velocity": 101,
      "chip": "ym2612"
    },
    {
      "channel": 2,
      "note": 85,
      "start": 61.3659,
      "duration": 0.1124,
      "velocity": 101,
      "chip": "ym2612"
    },
    {
      "channel": 3,
      "note": 90,
      "start": 61.3665,
      "duration": 0.0673,
      "velocity": 101,
      "chip": "ym2612"
    },
    {
      "channel": 4,
      "note": 87,
      "start": 61.3672,
      "duration": 0.0209,
      "velocity": 101,
      "chip": "ym2612"
    },
    {
      "channel": 0,
      "note": 61,
      "start": 61.4489,
      "duration": 0.033,
      "velocity": 99,
      "chip": "ym2612"
    },
    {
      "channel": 3,
      "note": 90,
      "start": 61.45,
      "duration": 0.0612,
      "velocity": 101,
      "chip": "ym2612"
    },
    {
      "channel": 4,
      "note": 87,
      "start": 61.4507,
      "duration": 0.0535,
      "velocity": 101,
      "chip": "ym2612"
    },
    {
      "channel": 0,
      "note": 61,
      "start": 61.4822,
      "duration": 0.0312,
      "velocity": 99,
      "chip": "ym2612"
    },
    {
      "channel": 1,
      "note": 85,
      "start": 61.4828,
      "duration": 0.0278,
      "velocity": 101,
      "chip": "ym2612"
    },
    {
      "channel": 0,
      "note": 61,
      "start": 61.5136,
      "duration": 0.0326,
      "velocity": 99,
      "chip": "ym2612"
    },
    {
      "channel": 1,
      "note": 87,
      "start": 61.5141,
      "duration": 0.0296,
      "velocity": 101,
      "chip": "ym2612"
    },
    {
      "channel": 3,
      "note": 89,
      "start": 61.515,
      "duration": 0.0293,
      "velocity": 101,
      "chip": "ym2612"
    },
    {
      "channel": 0,
      "note": 61,
      "start": 61.5465,
      "duration": 0.085,
      "velocity": 99,
      "chip": "ym2612"
    },
    {
      "channel": 1,
      "note": 82,
      "start": 61.547,
      "duration": 0.0691,
      "velocity": 101,
      "chip": "ym2612"
    },
    {
      "channel": 3,
      "note": 85,
      "start": 61.5479,
      "duration": 0.0689,
      "velocity": 101,
      "chip": "ym2612"
    },
    {
      "channel": 0,
      "note": 59,
      "start": 61.6317,
      "duration": 0.0332,
      "velocity": 99,
      "chip": "ym2612"
    },
    {
      "channel": 1,
      "note": 90,
      "start": 61.6323,
      "duration": 0.0299,
      "velocity": 101,
      "chip": "ym2612"
    },
    {
      "channel": 2,
      "note": 87,
      "start": 61.6328,
      "duration": 0.0296,
      "velocity": 101,
      "chip": "ym2612"
    },
    {
      "channel": 3,
      "note": 87,
      "start": 61.6334,
      "duration": 0.0294,
      "velocity": 101,
      "chip": "ym2612"
    },
    {
      "channel": 0,
      "note": 59,
      "start": 61.6652,
      "duration": 0.1814,
      "velocity": 99,
      "chip": "ym2612"
    },
    {
      "channel": 3,
      "note": 82,
      "start": 61.6665,
      "duration": 0.1653,
      "velocity": 101,
      "chip": "ym2612"
    },
    {
      "channel": 4,
      "note": 85,
      "start": 61.6673,
      "duration": 0.1178,
      "velocity": 101,
      "chip": "ym2612"
    },
    {
      "channel": 0,
      "note": 59,
      "start": 61.8468,
      "duration": 0.0325,
      "velocity": 99,
      "chip": "ym2612"
    },
    {
      "channel": 1,
      "note": 90,
      "start": 61.8474,
      "duration": 0.0296,
      "velocity": 101,
      "chip": "ym2612"
    },
    {
      "channel": 2,
      "note": 87,
      "start": 61.8479,
      "duration": 0.0293,
      "velocity": 101,
      "chip": "ym2612"
    },
    {
      "channel": 0,
      "note": 59,
      "start": 61.8796,
      "duration": 0.0853,
      "velocity": 99,
      "chip": "ym2612"
    },
    {
      "channel": 1,
      "note": 89,
      "start": 61.8801,
      "duration": 0.1151,
      "velocity": 101,
      "chip": "ym2612"
    },
    {
      "channel": 2,
      "note": 85,
      "start": 61.8806,
      "duration": 0.1148,
      "velocity": 101,
      "chip": "ym2612"
    },
    {
      "channel": 3,
      "note": 90,
      "start": 61.8813,
      "duration": 0.0688,
      "velocity": 101,
      "chip": "ym2612"
    },
    {
      "channel": 4,
      "note": 87,
      "start": 61.8819,
      "duration": 0.0215,
      "velocity": 101,
      "chip": "ym2612"
    },
    {
      "channel": 0,
      "note": 59,
      "start": 61.9651,
      "duration": 0.0339,
      "velocity": 99,
      "chip": "ym2612"
    },
    {
      "channel": 3,
      "note": 90,
      "start": 61.9662,
      "duration": 0.0623,
      "velocity": 101,
      "chip": "ym2612"
    },
    {
      "channel": 4,
      "note": 87,
      "start": 61.9669,
      "duration": 0.0545,
      "velocity": 101,
      "chip": "ym2612"
    },
    {
      "channel": 0,
      "note": 59,
      "start": 61.9993,
      "duration": 0.0312,
      "velocity": 99,
      "chip": "ym2612"
    },
    {
      "channel": 1,
      "note": 85,
      "start": 61.9998,
      "duration": 0.0282,
      "velocity": 101,
      "chip": "ym2612"
    },
    {
      "channel": 0,
      "note": 59,
      "start": 62.031,
      "duration": 0.0326,
      "velocity": 99,
      "chip": "ym2612"
    },
    {
      "channel": 1,
      "note": 82,
      "start": 62.0316,
      "duration": 0.0144,
      "velocity": 101,
      "chip": "ym2612"
    },
    {
      "channel": 3,
      "note": 89,
      "start": 62.0324,
      "duration": 0.0294,
      "velocity": 101,
      "chip": "ym2612"
    },
    {
      "channel": 1,
      "note": 80,
      "start": 62.0488,
      "duration": 0.0124,
      "velocity": 101,
      "chip": "ym2612"
    },
    {
      "channel": 0,
      "note": 59,
      "start": 62.0639,
      "duration": 0.0841,
      "velocity": 99,
      "chip": "ym2612"
    },
    {
      "channel": 1,
      "note": 82,
      "start": 62.0644,
      "duration": 0.4793,
      "velocity": 101,
      "chip": "ym2612"
    },
    {
      "channel": 3,
      "note": 85,
      "start": 62.0653,
      "duration": 0.0133,
      "velocity": 101,
      "chip": "ym2612"
    },
    {
      "channel": 3,
      "note": 82,
      "start": 62.0817,
      "duration": 0.0515,
      "velocity": 101,
      "chip": "ym2612"
    },
    {
      "channel": 0,
      "note": 58,
      "start": 62.1482,
      "duration": 0.0327,
      "velocity": 99,
      "chip": "ym2612"
    },
    {
      "channel": 3,
      "note": 80,
      "start": 62.1494,
      "duration": 0.4268,
      "velocity": 101,
      "chip": "ym2612"
    },
    {
      "channel": 0,
      "note": 58,
      "start": 62.1812,
      "duration": 0.1819,
      "velocity": 99,
      "chip": "ym2612"
    },
    {
      "channel": 0,
      "note": 58,
      "start": 62.3633,
      "duration": 0.0342,
      "velocity": 99,
      "chip": "ym2612"
    },
    {
      "channel": 2,
      "note": 82,
      "start": 62.3664,
      "duration": 0.0832,
      "velocity": 95,
      "chip": "ym2612"
    },
    {
      "channel": 0,
      "note": 58,
      "start": 62.3978,
      "duration": 0.0825,
      "velocity": 99,
      "chip": "ym2612"
    },
    {
      "channel": 4,
      "note": 85,
      "start": 62.4019,
      "duration": 0.1014,
      "velocity": 95,
      "chip": "ym2612"
    },
    {
      "channel": 0,
      "note": 58,
      "start": 62.4805,
      "duration": 0.0339,
      "velocity": 99,
      "chip": "ym2612"
    },
    {
      "channel": 2,
      "note": 80,
      "start": 62.4813,
      "duration": 0.0601,
      "velocity": 95,
      "chip": "ym2612"
    },
    {
      "channel": 0,
      "note": 58,
      "start": 62.5146,
      "duration": 0.0319,
      "velocity": 99,
      "chip": "ym2612"
    },
    {
      "channel": 4,
      "note": 82,
      "start": 62.5161,
      "duration": 0.0531,
      "velocity": 95,
      "chip": "ym2612"
    },
    {
      "channel": 0,
      "note": 58,
      "start": 62.5468,
      "duration": 0.0314,
      "velocity": 99,
      "chip": "ym2612"
    },
    {
      "channel": 2,
      "note": 77,
      "start": 62.5476,
      "duration": 0.085,
      "velocity": 95,
      "chip": "ym2612"
    },
    {
      "channel": 0,
      "note": 58,
      "start": 62.5784,
      "duration": 0.0851,
      "velocity": 99,
      "chip": "ym2612"
    },
    {
      "channel": 4,
      "note": 80,
      "start": 62.5799,
      "duration": 0.107,
      "velocity": 95,
      "chip": "ym2612"
    },
    {
      "channel": 0,
      "note": 59,
      "start": 62.6637,
      "duration": 0.0322,
      "velocity": 99,
      "chip": "ym2612"
    },
    {
      "channel": 1,
      "note": 83,
      "start": 62.6642,
      "duration": 0.1989,
      "velocity": 101,
      "chip": "ym2612"
    },
    {
      "channel": 2,
      "note": 78,
      "start": 62.6649,
      "duration": 0.5011,
      "velocity": 95,
      "chip": "ym2612"
    },
    {
      "channel": 0,
      "note": 59,
      "start": 62.6961,
      "duration": 0.1824,
      "velocity": 99,
      "chip": "ym2612"
    },
    {
      "channel": 3,
      "note": 82,
      "start": 62.6972,
      "duration": 0.2115,
      "velocity": 101,
      "chip": "ym2612"
    },
    {
      "channel": 4,
      "note": 77,
      "start": 62.6979,
      "duration": 0.5067,
      "velocity": 95,
      "chip": "ym2612"
    },
    {
      "channel": 0,
      "note": 59,
      "start": 62.8788,
      "duration": 0.0318,
      "velocity": 99,
      "chip": "ym2612"
    },
    {
      "channel": 1,
      "note": 87,
      "start": 62.8793,
      "duration": 0.1014,
      "velocity": 101,
      "chip": "ym2612"
    },
    {
      "channel": 0,
      "note": 59,
      "start": 62.9111,
      "duration": 0.085,
      "velocity": 99,
      "chip": "ym2612"
    },
    {
      "channel": 3,
      "note": 83,
      "start": 62.9123,
      "duration": 0.1152,
      "velocity": 101,
      "chip": "ym2612"
    },
    {
      "channel": 0,
      "note": 59,
      "start": 62.9964,
      "duration": 0.0339,
      "velocity": 99,
      "chip": "ym2612"
    },
    {
      "channel": 1,
      "note": 90,
      "start": 62.9969,
      "duration": 0.0641,
      "velocity": 101,
      "chip": "ym2612"
    },
    {
      "channel": 0,
      "note": 59,
      "start": 63.0305,
      "duration": 0.0338,
      "velocity": 99,
      "chip": "ym2612"
    },
    {
      "channel": 3,
      "note": 87,
      "start": 63.0316,
      "duration": 0.0637,
      "velocity": 101,
      "chip": "ym2612"
    },
    {
      "channel": 0,
      "note": 59,
      "start": 63.0646,
      "duration": 0.0327,
      "velocity": 99,
      "chip": "ym2612"
    },
    {
      "channel": 1,
      "note": 94,
      "start": 63.0651,
      "duration": 0.0296,
      "velocity": 101,
      "chip": "ym2612"
    },
    {
      "channel": 0,
      "note": 59,
      "start": 63.0976,
      "duration": 0.0835,
      "velocity": 99,
      "chip": "ym2612"
    },
    {
      "channel": 1,
      "note": 92,
      "start": 63.0981,
      "duration": 0.2827,
      "velocity": 101,
      "chip": "ym2612"
    },
    {
      "channel": 3,
      "note": 90,
      "start": 63.0993,
      "duration": 0.067,
      "velocity": 101,
      "chip": "ym2612"
    },
    {
      "channel": 0,
      "note": 61,
      "start": 63.1814,
      "duration": 0.0324,
      "velocity": 99,
      "chip": "ym2612"
    },
    {
      "channel": 2,
      "note": 77,
      "start": 63.1822,
      "duration": 0.5011,
      "velocity": 95,
      "chip": "ym2612"
    },
    {
      "channel": 3,
      "note": 94,
      "start": 63.1828,
      "duration": 0.2439,
      "velocity": 101,
      "chip": "ym2612"
    },
    {
      "channel": 0,
      "note": 61,
      "start": 63.214,
      "duration": 0.1822,
      "velocity": 99,
      "chip": "ym2612"
    },
    {
      "channel": 4,
      "note": 78,
      "start": 63.2154,
      "duration": 0.5103,
      "velocity": 95,
      "chip": "ym2612"
    },
    {
      "channel": 0,
      "note": 61,
      "start": 63.3964,
      "duration": 0.0323,
      "velocity": 99,
      "chip": "ym2612"
    },
    {
      "channel": 1,
      "note": 89,
      "start": 63.397,
      "duration": 0.1009,
      "velocity": 101,
      "chip": "ym2612"
    },
    {
      "channel": 0,
      "note": 61,
      "start": 63.429,
      "duration": 0.0842,
      "velocity": 99,
      "chip": "ym2612"
    },
    {
      "channel": 3,
      "note": 92,
      "start": 63.4301,
      "duration": 0.1145,
      "velocity": 101,
      "chip": "ym2612"
    },
    {
      "channel": 0,
      "note": 61,
      "start": 63.5135,
      "duration": 0.0339,
      "velocity": 99,
      "chip": "ym2612"
    },
    {
      "channel": 1,
      "note": 87,
      "start": 63.514,
      "duration": 0.0641,
      "velocity": 101,
      "chip": "ym2612"
    },
    {
      "channel": 0,
      "note": 61,
      "start": 63.5476,
      "duration": 0.0339,
      "velocity": 99,
      "chip": "ym2612"
    },
    {
      "channel": 3,
      "note": 89,
      "start": 63.5487,
      "duration": 0.0641,
      "velocity": 101,
      "chip": "ym2612"
    },
    {
      "channel": 0,
      "note": 61,
      "start": 63.5817,
      "duration": 0.0334,
      "velocity": 99,
      "chip": "ym2612"
    },
    {
      "channel": 1,
      "note": 85,
      "start": 63.5822,
      "duration": 0.1007,
      "velocity": 101,
      "chip": "ym2612"
    },
    {
      "channel": 0,
      "note": 61,
      "start": 63.6154,
      "duration": 0.0832,
      "velocity": 99,
      "chip": "ym2612"
    },
    {
      "channel": 3,
      "note": 87,
      "start": 63.6165,
      "duration": 0.1168,
      "velocity": 101,
      "chip": "ym2612"
    },
    {
      "channel": 0,
      "note": 59,
      "start": 63.6989,
      "duration": 0.0366,
      "velocity": 99,
      "chip": "ym2612"
    },
    {
      "channel": 1,
      "note": 83,
      "start": 63.6994,
      "duration": 0.1021,
      "velocity": 101,
      "chip": "ym2612"
    },
    {
      "channel": 2,
      "note": 75,
      "start": 63.7017,
      "duration": 0.1,
      "velocity": 101,
      "chip": "ym2612"
    },
    {
      "channel": 0,
      "note": 59,
      "start": 63.7357,
      "duration": 0.0353,
      "velocity": 99,
      "chip": "ym2612"
    },
    {
      "channel": 3,
      "note": 85,
      "start": 63.7368,
      "duration": 0.0981,
      "velocity": 101,
      "chip": "ym2612"
    },
    {
      "channel": 4,
      "note": 77,
      "start": 63.7402,
      "duration": 0.0871,
      "velocity": 101,
      "chip": "ym2612"
    },
    {
      "channel": 0,
      "note": 59,
      "start": 63.7712,
      "duration": 0.0332,
      "velocity": 99,
      "chip": "ym2612"
    },
    {
      "channel": 0,
      "note": 58,
      "start": 63.8047,
      "duration": 0.0334,
      "velocity": 99,
      "chip": "ym2612"
    },
    {
      "channel": 1,
      "note": 85,
      "start": 63.8052,
      "duration": 0.0972,
      "velocity": 101,
      "chip": "ym2612"
    },
    {
      "channel": 2,
      "note": 77,
      "start": 63.8058,
      "duration": 0.0969,
      "velocity": 101,
      "chip": "ym2612"
    },
    {
      "channel": 0,
      "note": 58,
      "start": 63.8384,
      "duration": 0.0331,
      "velocity": 99,
      "chip": "ym2612"
    },
    {
      "channel": 3,
      "note": 83,
      "start": 63.8399,
      "duration": 0.0971,
      "velocity": 101,
      "chip": "ym2612"
    },
    {
      "channel": 4,
      "note": 75,
      "start": 63.8405,
      "duration": 0.0887,
      "velocity": 101,
      "chip": "ym2612"
    },
    {
      "channel": 0,
      "note": 58,
      "start": 63.8717,
      "duration": 0.0339,
      "velocity": 99,
      "chip": "ym2612"
    },
    {
      "channel": 0,
      "note": 56,
      "start": 63.9059,
      "duration": 0.0338,
      "velocity": 99,
      "chip": "ym2612"
    },
    {
      "channel": 1,
      "note": 87,
      "start": 63.9064,
      "duration": 0.0962,
      "velocity": 101,
      "chip": "ym2612"
    },
    {
      "channel": 2,
      "note": 78,
      "start": 63.9069,
      "duration": 0.096,
      "velocity": 101,
      "chip": "ym2612"
    },
    {
      "channel": 0,
      "note": 56,
      "start": 63.94,
      "duration": 0.0333,
      "velocity": 99,
      "chip": "ym2612"
    },
    {
      "channel": 3,
      "note": 85,
      "start": 63.941,
      "duration": 0.097,
      "velocity": 101,
      "chip": "ym2612"
    },
    {
      "channel": 4,
      "note": 77,
      "start": 63.9417,
      "duration": 0.089,
      "velocity": 101,
      "chip": "ym2612"
    },
    {
      "channel": 0,
      "note": 56,
      "start": 63.9735,
      "duration": 0.033,
      "velocity": 99,
      "chip": "ym2612"
    },
    {
      "channel": 0,
      "note": 58,
      "start": 64.0068,
      "duration": 0.034,
      "velocity": 99,
      "chip": "ym2612"
    },
    {
      "channel": 1,
      "note": 89,
      "start": 64.0073,
      "duration": 0.098,
      "velocity": 101,
      "chip": "ym2612"
    },
    {
      "channel": 2,
      "note": 80,
      "start": 64.0078,
      "duration": 0.0978,
      "velocity": 101,
      "chip": "ym2612"
    },
    {
      "channel": 0,
      "note": 58,
      "start": 64.041,
      "duration": 0.0343,
      "velocity": 99,
      "chip": "ym2612"
    },
    {
      "channel": 3,
      "note": 87,
      "start": 64.0421,
      "duration": 0.0978,
      "velocity": 101,
      "chip": "ym2612"
    },
    {
      "channel": 4,
      "note": 78,
      "start": 64.0428,
      "duration": 0.0898,
      "velocity": 101,
      "chip": "ym2612"
    },
    {
      "channel": 0,
      "note": 58,
      "start": 64.0756,
      "duration": 0.0338,
      "velocity": 99,
      "chip": "ym2612"
    },
    {
      "channel": 0,
      "note": 59,
      "start": 64.1096,
      "duration": 0.0334,
      "velocity": 99,
      "chip": "ym2612"
    },
    {
      "channel": 1,
      "note": 90,
      "start": 64.1102,
      "duration": 0.0637,
      "velocity": 101,
      "chip": "ym2612"
    },
    {
      "channel": 2,
      "note": 82,
      "start": 64.1107,
      "duration": 0.0529,
      "velocity": 101,
      "chip": "ym2612"
    },
    {
      "channel": 0,
      "note": 59,
      "start": 64.1432,
      "duration": 0.0335,
      "velocity": 99,
      "chip": "ym2612"
    },
    {
      "channel": 3,
      "note": 89,
      "start": 64.1443,
      "duration": 0.0642,
      "velocity": 101,
      "chip": "ym2612"
    },
    {
      "channel": 4,
      "note": 80,
      "start": 64.145,
      "duration": 0.0444,
      "velocity": 101,
      "chip": "ym2612"
    },
    {
      "channel": 2,
      "note": 83,
      "start": 64.1664,
      "duration": 0.0747,
      "velocity": 101,
      "chip": "ym2612"
    },
    {
      "channel": 0,
      "note": 58,
      "start": 64.177,
      "duration": 0.034,
      "velocity": 99,
      "chip": "ym2612"
    },
    {
      "channel": 1,
      "note": 92,
      "start": 64.1775,
      "duration": 0.0633,
      "velocity": 101,
      "chip": "ym2612"
    },
    {
      "channel": 4,
      "note": 82,
      "start": 64.2011,
      "duration": 0.066,
      "velocity": 101,
      "chip": "ym2612"
    },
    {
      "channel": 0,
      "note": 58,
      "start": 64.2112,
      "duration": 0.0337,
      "velocity": 99,
      "chip": "ym2612"
    },
    {
      "channel": 3,
      "note": 90,
      "start": 64.2123,
      "duration": 0.0623,
      "velocity": 101,
      "chip": "ym2612"
    },
    {
      "channel": 0,
      "note": 63,
      "start": 64.2451,
      "duration": 0.0314,
      "velocity": 99,
      "chip": "ym2612"
    },
    {
      "channel": 1,
      "note": 90,
      "start": 64.2456,
      "duration": 0.0284,
      "velocity": 101,
      "chip": "ym2612"
    },
    {
      "channel": 2,
      "note": 87,
      "start": 64.2462,
      "duration": 0.0281,
      "velocity": 101,
      "chip": "ym2612"
    },
    {
      "channel": 0,
      "note": 63,
      "start": 64.2768,
      "duration": 0.1827,
      "velocity": 99,
      "chip": "ym2612"
    },
    {
      "channel": 3,
      "note": 92,
      "start": 64.2784,
      "duration": 0.1663,
      "velocity": 101,
      "chip": "ym2612"
    },
    {
      "channel": 4,
      "note": 85,
      "start": 64.2792,
      "duration": 0.1188,
      "velocity": 101,
      "chip": "ym2612"
    },
    {
      "channel": 0,
      "note": 63,
      "start": 64.4597,
      "duration": 0.0347,
      "velocity": 99,
      "chip": "ym2612"
    },
    {
      "channel": 1,
      "note": 88,
      "start": 64.4602,
      "duration": 0.0318,
      "velocity": 101,
      "chip": "ym2612"
    },
    {
      "channel": 2,
      "note": 85,
      "start": 64.4613,
      "duration": 0.0311,
      "velocity": 101,
      "chip": "ym2612"
    },
    {
      "channel": 0,
      "note": 63,
      "start": 64.4947,
      "duration": 0.0822,
      "velocity": 99,
      "chip": "ym2612"
    },
    {
      "channel": 1,
      "note": 89,
      "start": 64.4953,
      "duration": 0.1113,
      "velocity": 101,
      "chip": "ym2612"
    },
    {
      "channel": 2,
      "note": 85,
      "start": 64.4959,
      "duration": 0.111,
      "velocity": 101,
      "chip": "ym2612"
    },
    {
      "channel": 3,
      "note": 90,
      "start": 64.4966,
      "duration": 0.0654,
      "velocity": 101,
      "chip": "ym2612"
    },
    {
      "channel": 4,
      "note": 87,
      "start": 64.4978,
      "duration": 0.0215,
      "velocity": 101,
      "chip": "ym2612"
    },
    {
      "channel": 0,
      "note": 63,
      "start": 64.5771,
      "duration": 0.0334,
      "velocity": 99,
      "chip": "ym2612"
    },
    {
      "channel": 3,
      "note": 90,
      "start": 64.5783,
      "duration": 0.0622,
      "velocity": 101,
      "chip": "ym2612"
    },
    {
      "channel": 4,
      "note": 87,
      "start": 64.579,
      "duration": 0.0542,
      "velocity": 101,
      "chip": "ym2612"
    },
    {
      "channel": 0,
      "note": 63,
      "start": 64.6108,
      "duration": 0.0329,
      "velocity": 99,
      "chip": "ym2612"
    },
    {
      "channel": 1,
      "note": 85,
      "start": 64.6113,
      "duration": 0.0286,
      "velocity": 101,
      "chip": "ym2612"
    },
    {
      "channel": 0,
      "note": 63,
      "start": 64.6439,
      "duration": 0.0326,
      "velocity": 99,
      "chip": "ym2612"
    },
    {
      "channel": 1,
      "note": 87,
      "start": 64.6444,
      "duration": 0.0296,
      "velocity": 101,
      "chip": "ym2612"
    },
    {
      "channel": 3,
      "note": 89,
      "start": 64.6453,
      "duration": 0.0293,
      "velocity": 101,
      "chip": "ym2612"
    },
    {
      "channel": 0,
      "note": 63,
      "start": 64.6767,
      "duration": 0.085,
      "velocity": 99,
      "chip": "ym2612"
    },
    {
      "channel": 1,
      "note": 82,
      "start": 64.6772,
      "duration": 0.0691,
      "velocity": 101,
      "chip": "ym2612"
    },
    {
      "channel": 3,
      "note": 85,
      "start": 64.6781,
      "duration": 0.0688,
      "velocity": 101,
      "chip": "ym2612"
    },
    {
      "channel": 0,
      "note": 61,
      "start": 64.762,
      "duration": 0.0334,
      "velocity": 99,
      "chip": "ym2612"
    },
    {
      "channel": 1,
      "note": 90,
      "start": 64.7625,
      "duration": 0.03,
      "velocity": 101,
      "chip": "ym2612"
    },
    {
      "channel": 2,
      "note": 87,
      "start": 64.763,
      "duration": 0.0298,
      "velocity": 101,
      "chip": "ym2612"
    },
    {
      "channel": 3,
      "note": 87,
      "start": 64.7637,
      "duration": 0.0294,
      "velocity": 101,
      "chip": "ym2612"
    },
    {
      "channel": 0,
      "note": 61,
      "start": 64.7956,
      "duration": 0.1817,
      "velocity": 99,
      "chip": "ym2612"
    },
    {
      "channel": 3,
      "note": 82,
      "start": 64.7969,
      "duration": 0.1653,
      "velocity": 101,
      "chip": "ym2612"
    },
    {
      "channel": 4,
      "note": 85,
      "start": 64.7976,
      "duration": 0.118,
      "velocity": 101,
      "chip": "ym2612"
    },
    {
      "channel": 0,
      "note": 61,
      "start": 64.9776,
      "duration": 0.0324,
      "velocity": 99,
      "chip": "ym2612"
    },
    {
      "channel": 1,
      "note": 90,
      "start": 64.9781,
      "duration": 0.0295,
      "velocity": 101,
      "chip": "ym2612"
    },
    {
      "channel": 2,
      "note": 87,
      "start": 64.9787,
      "duration": 0.0292,
      "velocity": 101,
      "chip": "ym2612"
    },
    {
      "channel": 0,
      "note": 61,
      "start": 65.0102,
      "duration": 0.0851,
      "velocity": 99,
      "chip": "ym2612"
    },
    {
      "channel": 1,
      "note": 89,
      "start": 65.0108,
      "duration": 0.1145,
      "velocity": 101,
      "chip": "ym2612"
    },
    {
      "channel": 2,
      "note": 85,
      "start": 65.0113,
      "duration": 0.1143,
      "velocity": 101,
      "chip": "ym2612"
    },
    {
      "channel": 3,
      "note": 90,
      "start": 65.0119,
      "duration": 0.0686,
      "velocity": 101,
      "chip": "ym2612"
    },
    {
      "channel": 4,
      "note": 87,
      "start": 65.0126,
      "duration": 0.0213,
      "velocity": 101,
      "chip": "ym2612"
    },
    {
      "channel": 0,
      "note": 61,
      "start": 65.0956,
      "duration": 0.0339,
      "velocity": 99,
      "chip": "ym2612"
    },
    {
      "channel": 3,
      "note": 90,
      "start": 65.0967,
      "duration": 0.0623,
      "velocity": 101,
      "chip": "ym2612"
    },
    {
      "channel": 4,
      "note": 87,
      "start": 65.0974,
      "duration": 0.0544,
      "velocity": 101,
      "chip": "ym2612"
    },
    {
      "channel": 0,
      "note": 61,
      "start": 65.1298,
      "duration": 0.0317,
      "velocity": 99,
      "chip": "ym2612"
    },
    {
      "channel": 1,
      "note": 85,
      "start": 65.1303,
      "duration": 0.0282,
      "velocity": 101,
      "chip": "ym2612"
    },
    {
      "channel": 0,
      "note": 61,
      "start": 65.1617,
      "duration": 0.0321,
      "velocity": 99,
      "chip": "ym2612"
    },
    {
      "channel": 1,
      "note": 87,
      "start": 65.1625,
      "duration": 0.0288,
      "velocity": 101,
      "chip": "ym2612"
    },
    {
      "channel": 3,
      "note": 89,
      "start": 65.1634,
      "duration": 0.0285,
      "velocity": 101,
      "chip": "ym2612"
    },
    {
      "channel": 0,
      "note": 61,
      "start": 65.1941,
      "duration": 0.0852,
      "velocity": 99,
      "chip": "ym2612"
    },
    {
      "channel": 1,
      "note": 82,
      "start": 65.1946,
      "duration": 0.0693,
      "velocity": 101,
      "chip": "ym2612"
    },
    {
      "channel": 3,
      "note": 85,
      "start": 65.1955,
      "duration": 0.069,
      "velocity": 101,
      "chip": "ym2612"
    },
    {
      "channel": 0,
      "note": 59,
      "start": 65.2795,
      "duration": 0.0325,
      "velocity": 99,
      "chip": "ym2612"
    },
    {
      "channel": 1,
      "note": 90,
      "start": 65.2801,
      "duration": 0.0295,
      "velocity": 101,
      "chip": "ym2612"
    },
    {
      "channel": 2,
      "note": 87,
      "start": 65.2806,
      "duration": 0.0293,
      "velocity": 101,
      "chip": "ym2612"
    },
    {
      "channel": 3,
      "note": 87,
      "start": 65.2812,
      "duration": 0.029,
      "velocity": 101,
      "chip": "ym2612"
    },
    {
      "channel": 0,
      "note": 59,
      "start": 65.3123,
      "duration": 0.1817,
      "velocity": 99,
      "chip": "ym2612"
    },
    {
      "channel": 3,
      "note": 82,
      "start": 65.3136,
      "duration": 0.166,
      "velocity": 101,
      "chip": "ym2612"
    },
    {
      "channel": 4,
      "note": 85,
      "start": 65.3143,
      "duration": 0.1182,
      "velocity": 101,
      "chip": "ym2612"
    },
    {
      "channel": 0,
      "note": 59,
      "start": 65.4943,
      "duration": 0.0325,
      "velocity": 99,
      "chip": "ym2612"
    },
    {
      "channel": 1,
      "note": 90,
      "start": 65.4948,
      "duration": 0.0296,
      "velocity": 101,
      "chip": "ym2612"
    },
    {
      "channel": 2,
      "note": 87,
      "start": 65.4954,
      "duration": 0.0292,
      "velocity": 101,
      "chip": "ym2612"
    },
    {
      "channel": 0,
      "note": 59,
      "start": 65.527,
      "duration": 0.0843,
      "velocity": 99,
      "chip": "ym2612"
    },
    {
      "channel": 1,
      "note": 89,
      "start": 65.5276,
      "duration": 0.1137,
      "velocity": 101,
      "chip": "ym2612"
    },
    {
      "channel": 2,
      "note": 85,
      "start": 65.5281,
      "duration": 0.1135,
      "velocity": 101,
      "chip": "ym2612"
    },
    {
      "channel": 3,
      "note": 90,
      "start": 65.5287,
      "duration": 0.0677,
      "velocity": 101,
      "chip": "ym2612"
    },
    {
      "channel": 4,
      "note": 87,
      "start": 65.5294,
      "duration": 0.0213,
      "velocity": 101,
      "chip": "ym2612"
    },
    {
      "channel": 0,
      "note": 59,
      "start": 65.6116,
      "duration": 0.0335,
      "velocity": 99,
      "chip": "ym2612"
    },
    {
      "channel": 3,
      "note": 90,
      "start": 65.6127,
      "duration": 0.0624,
      "velocity": 101,
      "chip": "ym2612"
    },
    {
      "channel": 4,
      "note": 87,
      "start": 65.6134,
      "duration": 0.0538,
      "velocity": 101,
      "chip": "ym2612"
    },
    {
      "channel": 0,
      "note": 59,
      "start": 65.6453,
      "duration": 0.0321,
      "velocity": 99,
      "chip": "ym2612"
    },
    {
      "channel": 1,
      "note": 85,
      "start": 65.6459,
      "duration": 0.0287,
      "velocity": 101,
      "chip": "ym2612"
    },
    {
      "channel": 0,
      "note": 59,
      "start": 65.6777,
      "duration": 0.0322,
      "velocity": 99,
      "chip": "ym2612"
    },
    {
      "channel": 1,
      "note": 82,
      "start": 65.6782,
      "duration": 0.0139,
      "velocity": 101,
      "chip": "ym2612"
    },
    {
      "channel": 3,
      "note": 89,
      "start": 65.6791,
      "duration": 0.029,
      "velocity": 101,
      "chip": "ym2612"
    },
    {
      "channel": 1,
      "note": 80,
      "start": 65.6949,
      "duration": 0.0126,
      "velocity": 101,
      "chip": "ym2612"
    },
    {
      "channel": 0,
      "note": 59,
      "start": 65.7101,
      "duration": 0.0839,
      "velocity": 99,
      "chip": "ym2612"
    },
    {
      "channel": 1,
      "note": 82,
      "start": 65.7107,
      "duration": 0.4805,
      "velocity": 101,
      "chip": "ym2612"
    },
    {
      "channel": 3,
      "note": 85,
      "start": 65.7115,
      "duration": 0.0139,
      "velocity": 101,
      "chip": "ym2612"
    },
    {
      "channel": 3,
      "note": 82,
      "start": 65.7283,
      "duration": 0.051,
      "velocity": 101,
      "chip": "ym2612"
    },
    {
      "channel": 0,
      "note": 58,
      "start": 65.7943,
      "duration": 0.0331,
      "velocity": 99,
      "chip": "ym2612"
    },
    {
      "channel": 3,
      "note": 80,
      "start": 65.7955,
      "duration": 0.4299,
      "velocity": 101,
      "chip": "ym2612"
    },
    {
      "channel": 0,
      "note": 58,
      "start": 65.8276,
      "duration": 0.1818,
      "velocity": 99,
      "chip": "ym2612"
    },
    {
      "channel": 0,
      "note": 58,
      "start": 66.0097,
      "duration": 0.0342,
      "velocity": 99,
      "chip": "ym2612"
    },
    {
      "channel": 2,
      "note": 82,
      "start": 66.0124,
      "duration": 0.0832,
      "velocity": 95,
      "chip": "ym2612"
    },
    {
      "channel": 0,
      "note": 58,
      "start": 66.0441,
      "duration": 0.0822,
      "velocity": 99,
      "chip": "ym2612"
    },
    {
      "channel": 4,
      "note": 85,
      "start": 66.0485,
      "duration": 0.1018,
      "velocity": 95,
      "chip": "ym2612"
    },
    {
      "channel": 0,
      "note": 58,
      "start": 66.1266,
      "duration": 0.0338,
      "velocity": 99,
      "chip": "ym2612"
    },
    {
      "channel": 2,
      "note": 80,
      "start": 66.1273,
      "duration": 0.0616,
      "velocity": 95,
      "chip": "ym2612"
    },
    {
      "channel": 0,
      "note": 58,
      "start": 66.1606,
      "duration": 0.0337,
      "velocity": 99,
      "chip": "ym2612"
    },
    {
      "channel": 4,
      "note": 82,
      "start": 66.1621,
      "duration": 0.0555,
      "velocity": 95,
      "chip": "ym2612"
    },
    {
      "channel": 0,
      "note": 58,
      "start": 66.1946,
      "duration": 0.0328,
      "velocity": 99,
      "chip": "ym2612"
    },
    {
      "channel": 2,
      "note": 77,
      "start": 66.1954,
      "duration": 0.0849,
      "velocity": 95,
      "chip": "ym2612"
    },
    {
      "channel": 0,
      "note": 58,
      "start": 66.2276,
      "duration": 0.0836,
      "velocity": 99,
      "chip": "ym2612"
    },
    {
      "channel": 4,
      "note": 80,
      "start": 66.2295,
      "duration": 0.1055,
      "velocity": 95,
      "chip": "ym2612"
    },
    {
      "channel": 0,
      "note": 59,
      "start": 66.3114,
      "duration": 0.0324,
      "velocity": 99,
      "chip": "ym2612"
    },
    {
      "channel": 1,
      "note": 83,
      "start": 66.3119,
      "duration": 0.1993,
      "velocity": 101,
      "chip": "ym2612"
    },
    {
      "channel": 2,
      "note": 78,
      "start": 66.3125,
      "duration": 0.4834,
      "velocity": 95,
      "chip": "ym2612"
    },
    {
      "channel": 0,
      "note": 59,
      "start": 66.3441,
      "duration": 0.1825,
      "velocity": 99,
      "chip": "ym2612"
    },
    {
      "channel": 3,
      "note": 82,
      "start": 66.3452,
      "duration": 0.2116,
      "velocity": 101,
      "chip": "ym2612"
    },
    {
      "channel": 4,
      "note": 77,
      "start": 66.3458,
      "duration": 0.5042,
      "velocity": 95,
      "chip": "ym2612"
    },
    {
      "channel": 0,
      "note": 59,
      "start": 66.5268,
      "duration": 0.0322,
      "velocity": 99,
      "chip": "ym2612"
    },
    {
      "channel": 1,
      "note": 87,
      "start": 66.5274,
      "duration": 0.1012,
      "velocity": 101,
      "chip": "ym2612"
    },
    {
      "channel": 0,
      "note": 59,
      "start": 66.5593,
      "duration": 0.0846,
      "velocity": 99,
      "chip": "ym2612"
    },
    {
      "channel": 3,
      "note": 83,
      "start": 66.5604,
      "duration": 0.1142,
      "velocity": 101,
      "chip": "ym2612"
    },
    {
      "channel": 0,
      "note": 59,
      "start": 66.6442,
      "duration": 0.0337,
      "velocity": 99,
      "chip": "ym2612"
    },
    {
      "channel": 1,
      "note": 90,
      "start": 66.6447,
      "duration": 0.063,
      "velocity": 101,
      "chip": "ym2612"
    },
    {
      "channel": 0,
      "note": 59,
      "start": 66.6782,
      "duration": 0.032,
      "velocity": 99,
      "chip": "ym2612"
    },
    {
      "channel": 3,
      "note": 87,
      "start": 66.6793,
      "duration": 0.0616,
      "velocity": 101,
      "chip": "ym2612"
    },
    {
      "channel": 0,
      "note": 59,
      "start": 66.7104,
      "duration": 0.0325,
      "velocity": 99,
      "chip": "ym2612"
    },
    {
      "channel": 1,
      "note": 94,
      "start": 66.711,
      "duration": 0.0293,
      "velocity": 101,
      "chip": "ym2612"
    },
    {
      "channel": 0,
      "note": 59,
      "start": 66.7432,
      "duration": 0.0835,
      "velocity": 99,
      "chip": "ym2612"
    },
    {
      "channel": 1,
      "note": 92,
      "start": 66.7437,
      "duration": 0.2824,
      "velocity": 101,
      "chip": "ym2612"
    },
    {
      "channel": 3,
      "note": 90,
      "start": 66.7446,
      "duration": 0.0673,
      "velocity": 101,
      "chip": "ym2612"
    },
    {
      "channel": 0,
      "note": 61,
      "start": 66.8269,
      "duration": 0.032,
      "velocity": 99,
      "chip": "ym2612"
    },
    {
      "channel": 2,
      "note": 77,
      "start": 66.8279,
      "duration": 0.4825,
      "velocity": 95,
      "chip": "ym2612"
    },
    {
      "channel": 3,
      "note": 94,
      "start": 66.8286,
      "duration": 0.2445,
      "velocity": 101,
      "chip": "ym2612"
    },
    {
      "channel": 0,
      "note": 61,
      "start": 66.8592,
      "duration": 0.1823,
      "velocity": 99,
      "chip": "ym2612"
    },
    {
      "channel": 4,
      "note": 78,
      "start": 66.8606,
      "duration": 0.5033,
      "velocity": 95,
      "chip": "ym2612"
    },
    {
      "channel": 0,
      "note": 61,
      "start": 67.0417,
      "duration": 0.0333,
      "velocity": 99,
      "chip": "ym2612"
    },
    {
      "channel": 1,
      "note": 89,
      "start": 67.0422,
      "duration": 0.101,
      "velocity": 101,
      "chip": "ym2612"
    },
    {
      "channel": 0,
      "note": 61,
      "start": 67.0752,
      "duration": 0.0833,
      "velocity": 99,
      "chip": "ym2612"
    },
    {
      "channel": 3,
      "note": 92,
      "start": 67.0763,
      "duration": 0.1122,
      "velocity": 101,
      "chip": "ym2612"
    },
    {
      "channel": 0,
      "note": 61,
      "start": 67.1588,
      "duration": 0.0328,
      "velocity": 99,
      "chip": "ym2612"
    },
    {
      "channel": 1,
      "note": 87,
      "start": 67.1595,
      "duration": 0.0623,
      "velocity": 101,
      "chip": "ym2612"
    },
    {
      "channel": 0,
      "note": 61,
      "start": 67.1918,
      "duration": 0.0324,
      "velocity": 99,
      "chip": "ym2612"
    },
    {
      "channel": 3,
      "note": 89,
      "start": 67.1929,
      "duration": 0.062,
      "velocity": 101,
      "chip": "ym2612"
    },
    {
      "channel": 0,
      "note": 61,
      "start": 67.2244,
      "duration": 0.0323,
      "velocity": 99,
      "chip": "ym2612"
    },
    {
      "channel": 1,
      "note": 85,
      "start": 67.225,
      "duration": 0.1007,
      "velocity": 101,
      "chip": "ym2612"
    },
    {
      "channel": 0,
      "note": 61,
      "start": 67.257,
      "duration": 0.0841,
      "velocity": 99,
      "chip": "ym2612"
    },
    {
      "channel": 3,
      "note": 87,
      "start": 67.2581,
      "duration": 0.113,
      "velocity": 101,
      "chip": "ym2612"
    },
    {
      "channel": 0,
      "note": 63,
      "start": 67.3414,
      "duration": 0.0316,
      "velocity": 99,
      "chip": "ym2612"
    },
    {
      "channel": 1,
      "note": 87,
      "start": 67.3419,
      "duration": 0.5005,
      "velocity": 101,
      "chip": "ym2612"
    },
    {
      "channel": 2,
      "note": 78,
      "start": 67.3424,
      "duration": 0.4846,
      "velocity": 95,
      "chip": "ym2612"
    },
    {
      "channel": 0,
      "note": 63,
      "start": 67.3732,
      "duration": 0.1822,
      "velocity": 99,
      "chip": "ym2612"
    },
    {
      "channel": 3,
      "note": 85,
      "start": 67.3743,
      "duration": 0.4688,
      "velocity": 101,
      "chip": "ym2612"
    },
    {
      "channel": 4,
      "note": 77,
      "start": 67.3749,
      "duration": 0.5154,
      "velocity": 95,
      "chip": "ym2612"
    },
    {
      "channel": 0,
      "note": 63,
      "start": 67.5556,
      "duration": 0.033,
      "velocity": 99,
      "chip": "ym2612"
    },
    {
      "channel": 0,
      "note": 63,
      "start": 67.5889,
      "duration": 0.0831,
      "velocity": 99,
      "chip": "ym2612"
    },
    {
      "channel": 0,
      "note": 63,
      "start": 67.6722,
      "duration": 0.0344,
      "velocity": 99,
      "chip": "ym2612"
    },
    {
      "channel": 0,
      "note": 63,
      "start": 67.7069,
      "duration": 0.0337,
      "velocity": 99,
      "chip": "ym2612"
    },
    {
      "channel": 0,
      "note": 63,
      "start": 67.7408,
      "duration": 0.0339,
      "velocity": 99,
      "chip": "ym2612"
    },
    {
      "channel": 0,
      "note": 63,
      "start": 67.7749,
      "duration": 0.0829,
      "velocity": 99,
      "chip": "ym2612"
    },
    {
      "channel": 0,
      "note": 61,
      "start": 67.8581,
      "duration": 0.0244,
      "velocity": 99,
      "chip": "ym2612"
    },
    {
      "channel": 3,
      "note": 87,
      "start": 67.8664,
      "duration": 0.0139,
      "velocity": 98,
      "chip": "ym2612"
    },
    {
      "channel": 0,
      "note": 62,
      "start": 67.8827,
      "duration": 0.0188,
      "velocity": 99,
      "chip": "ym2612"
    },
    {
      "channel": 3,
      "note": 61,
      "start": 67.8838,
      "duration": 0.0141,
      "velocity": 98,
      "chip": "ym2612"
    },
    {
      "channel": 0,
      "note": 63,
      "start": 67.9017,
      "duration": 0.0206,
      "velocity": 99,
      "chip": "ym2612"
    },
    {
      "channel": 1,
      "note": 82,
      "start": 67.9024,
      "duration": 0.0332,
      "velocity": 99,
      "chip": "ym2612"
    },
    {
      "channel": 3,
      "note": 62,
      "start": 67.9035,
      "duration": 0.017,
      "velocity": 98,
      "chip": "ym2612"
    },
    {
      "channel": 4,
      "note": 78,
      "start": 67.907,
      "duration": 0.0063,
      "velocity": 98,
      "chip": "ym2612"
    },
    {
      "channel": 2,
      "note": 82,
      "start": 67.9126,
      "duration": 0.0309,
      "velocity": 99,
      "chip": "ym2612"
    },
    {
      "channel": 4,
      "note": 61,
      "start": 67.9239,
      "duration": 0.0051,
      "velocity": 98,
      "chip": "ym2612"
    },
    {
      "channel": 0,
      "note": 61,
      "start": 67.9381,
      "duration": 0.0196,
      "velocity": 99,
      "chip": "ym2612"
    },
    {
      "channel": 1,
      "note": 87,
      "start": 67.9386,
      "duration": 0.0339,
      "velocity": 99,
      "chip": "ym2612"
    },
    {
      "channel": 3,
      "note": 63,
      "start": 67.9395,
      "duration": 0.0155,
      "velocity": 98,
      "chip": "ym2612"
    },
    {
      "channel": 4,
      "note": 62,
      "start": 67.9402,
      "duration": 0.007,
      "velocity": 98,
      "chip": "ym2612"
    },
    {
      "channel": 2,
      "note": 87,
      "start": 67.9465,
      "duration": 0.0351,
      "velocity": 99,
      "chip": "ym2612"
    },
    {
      "channel": 0,
      "note": 62,
      "start": 67.958,
      "duration": 0.0184,
      "velocity": 99,
      "chip": "ym2612"
    },
    {
      "channel": 3,
      "note": 61,
      "start": 67.959,
      "duration": 0.014,
      "velocity": 98,
      "chip": "ym2612"
    },
    {
      "channel": 0,
      "note": 63,
      "start": 67.9766,
      "duration": 0.0172,
      "velocity": 99,
      "chip": "ym2612"
    },
    {
      "channel": 1,
      "note": 90,
      "start": 67.9772,
      "duration": 0.0313,
      "velocity": 99,
      "chip": "ym2612"
    },
    {
      "channel": 3,
      "note": 62,
      "start": 67.978,
      "duration": 0.0141,
      "velocity": 98,
      "chip": "ym2612"
    },
    {
      "channel": 4,
      "note": 63,
      "start": 67.9787,
      "duration": 0.0062,
      "velocity": 98,
      "chip": "ym2612"
    },
    {
      "channel": 2,
      "note": 90,
      "start": 67.9843,
      "duration": 0.0338,
      "velocity": 99,
      "chip": "ym2612"
    },
    {
      "channel": 4,
      "note": 61,
      "start": 67.9957,
      "duration": 0.0056,
      "velocity": 98,
      "chip": "ym2612"
    },
    {
      "channel": 0,
      "note": 66,
      "start": 68.0132,
      "duration": 0.0334,
      "velocity": 99,
      "chip": "ym2612"
    },
    {
      "channel": 1,
      "note": 94,
      "start": 68.0138,
      "duration": 0.0293,
      "velocity": 99,
      "chip": "ym2612"
    },
    {
      "channel": 3,
      "note": 63,
      "start": 68.0146,
      "duration": 0.0291,
      "velocity": 98,
      "chip": "ym2612"
    },
    {
      "channel": 4,
      "note": 62,
      "start": 68.0153,
      "duration": 0.0062,
      "velocity": 98,
      "chip": "ym2612"
    },
    {
      "channel": 2,
      "note": 94,
      "start": 68.0208,
      "duration": 0.0317,
      "velocity": 99,
      "chip": "ym2612"
    },
    {
      "channel": 0,
      "note": 63,
      "start": 68.0469,
      "duration": 0.0323,
      "velocity": 99,
      "chip": "ym2612"
    },
    {
      "channel": 1,
      "note": 92,
      "start": 68.0474,
      "duration": 0.0295,
      "velocity": 99,
      "chip": "ym2612"
    },
    {
      "channel": 3,
      "note": 66,
      "start": 68.0483,
      "duration": 0.0619,
      "velocity": 98,
      "chip": "ym2612"
    },
    {
      "channel": 4,
      "note": 63,
      "start": 68.0491,
      "duration": 0.0214,
      "velocity": 98,
      "chip": "ym2612"
    },
    {
      "channel": 2,
      "note": 92,
      "start": 68.0552,
      "duration": 0.0282,
      "velocity": 99,
      "chip": "ym2612"
    },
    {
      "channel": 0,
      "note": 63,
      "start": 68.0794,
      "duration": 0.0341,
      "velocity": 99,
      "chip": "ym2612"
    },
    {
      "channel": 1,
      "note": 90,
      "start": 68.0799,
      "duration": 0.0297,
      "velocity": 99,
      "chip": "ym2612"
    },
    {
      "channel": 4,
      "note": 66,
      "start": 68.0811,
      "duration": 0.0563,
      "velocity": 98,
      "chip": "ym2612"
    },
    {
      "channel": 2,
      "note": 90,
      "start": 68.0861,
      "duration": 0.0321,
      "velocity": 99,
      "chip": "ym2612"
    },
    {
      "channel": 0,
      "note": 61,
      "start": 68.1138,
      "duration": 0.0336,
      "velocity": 99,
      "chip": "ym2612"
    },
    {
      "channel": 1,
      "note": 87,
      "start": 68.1143,
      "duration": 0.0296,
      "velocity": 99,
      "chip": "ym2612"
    },
    {
      "channel": 3,
      "note": 63,
      "start": 68.1152,
      "duration": 0.0294,
      "velocity": 98,
      "chip": "ym2612"
    },
    {
      "channel": 2,
      "note": 87,
      "start": 68.121,
      "duration": 0.0233,
      "velocity": 99,
      "chip": "ym2612"
    },
    {
      "channel": 0,
      "note": 59,
      "start": 68.1476,
      "duration": 0.0399,
      "velocity": 99,
      "chip": "ym2612"
    },
    {
      "channel": 1,
      "note": 82,
      "start": 68.1502,
      "duration": 0.4995,
      "velocity": 99,
      "chip": "ym2612"
    },
    {
      "channel": 4,
      "note": 63,
      "start": 68.1567,
      "duration": 0.021,
      "velocity": 98,
      "chip": "ym2612"
    },
    {
      "channel": 0,
      "note": 59,
      "start": 68.1877,
      "duration": 0.1749,
      "velocity": 99,
      "chip": "ym2612"
    },
    {
      "channel": 2,
      "note": 82,
      "start": 68.1885,
      "duration": 0.5074,
      "velocity": 99,
      "chip": "ym2612"
    },
    {
      "channel": 3,
      "note": 61,
      "start": 68.1891,
      "duration": 0.1586,
      "velocity": 92,
      "chip": "ym2612"
    },
    {
      "channel": 0,
      "note": 59,
      "start": 68.3631,
      "duration": 0.0332,
      "velocity": 99,
      "chip": "ym2612"
    },
    {
      "channel": 3,
      "note": 66,
      "start": 68.3642,
      "duration": 0.0302,
      "velocity": 92,
      "chip": "ym2612"
    },
    {
      "channel": 4,
      "note": 61,
      "start": 68.3649,
      "duration": 0.4539,
      "velocity": 99,
      "chip": "ym2612"
    },
    {
      "channel": 0,
      "note": 59,
      "start": 68.3966,
      "duration": 0.0837,
      "velocity": 99,
      "chip": "ym2612"
    },
    {
      "channel": 3,
      "note": 75,
      "start": 68.3978,
      "duration": 0.0677,
      "velocity": 92,
      "chip": "ym2612"
    },
    {
      "channel": 0,
      "note": 59,
      "start": 68.4805,
      "duration": 0.0339,
      "velocity": 99,
      "chip": "ym2612"
    },
    {
      "channel": 3,
      "note": 66,
      "start": 68.4817,
      "duration": 0.0304,
      "velocity": 92,
      "chip": "ym2612"
    },
    {
      "channel": 0,
      "note": 59,
      "start": 68.5147,
      "duration": 0.0329,
      "velocity": 99,
      "chip": "ym2612"
    },
    {
      "channel": 3,
      "note": 78,
      "start": 68.5159,
      "duration": 0.0295,
      "velocity": 92,
      "chip": "ym2612"
    },
    {
      "channel": 0,
      "note": 59,
      "start": 68.5479,
      "duration": 0.0338,
      "velocity": 99,
      "chip": "ym2612"
    },
    {
      "channel": 3,
      "note": 66,
      "start": 68.5494,
      "duration": 0.0303,
      "velocity": 92,
      "chip": "ym2612"
    },
    {
      "channel": 0,
      "note": 59,
      "start": 68.5819,
      "duration": 0.0832,
      "velocity": 99,
      "chip": "ym2612"
    },
    {
      "channel": 3,
      "note": 75,
      "start": 68.5831,
      "duration": 0.0673,
      "velocity": 92,
      "chip": "ym2612"
    },
    {
      "channel": 0,
      "note": 61,
      "start": 68.6654,
      "duration": 0.0328,
      "velocity": 99,
      "chip": "ym2612"
    },
    {
      "channel": 1,
      "note": 80,
      "start": 68.6659,
      "duration": 0.3162,
      "velocity": 99,
      "chip": "ym2612"
    },
    {
      "channel": 0,
      "note": 61,
      "start": 68.6984,
      "duration": 0.1819,
      "velocity": 99,
      "chip": "ym2612"
    },
    {
      "channel": 2,
      "note": 80,
      "start": 68.6991,
      "duration": 0.3295,
      "velocity": 99,
      "chip": "ym2612"
    },
    {
      "channel": 3,
      "note": 66,
      "start": 68.6998,
      "duration": 0.1657,
      "velocity": 92,
      "chip": "ym2612"
    },
    {
      "channel": 0,
      "note": 61,
      "start": 68.8805,
      "duration": 0.0327,
      "velocity": 99,
      "chip": "ym2612"
    },
    {
      "channel": 3,
      "note": 65,
      "start": 68.8816,
      "duration": 0.0298,
      "velocity": 92,
      "chip": "ym2612"
    },
    {
      "channel": 4,
      "note": 82,
      "start": 68.8824,
      "duration": 0.172,
      "velocity": 99,
      "chip": "ym2612"
    },
    {
      "channel": 0,
      "note": 61,
      "start": 68.9135,
      "duration": 0.084,
      "velocity": 99,
      "chip": "ym2612"
    },
    {
      "channel": 3,
      "note": 73,
      "start": 68.9146,
      "duration": 0.0681,
      "velocity": 92,
      "chip": "ym2612"
    },
    {
      "channel": 0,
      "note": 61,
      "start": 68.9977,
      "duration": 0.0339,
      "velocity": 99,
      "chip": "ym2612"
    },
    {
      "channel": 1,
      "note": 85,
      "start": 68.9982,
      "duration": 0.1689,
      "velocity": 99,
      "chip": "ym2612"
    },
    {
      "channel": 3,
      "note": 65,
      "start": 68.9991,
      "duration": 0.0299,
      "velocity": 92,
      "chip": "ym2612"
    },
    {
      "channel": 0,
      "note": 61,
      "start": 69.0318,
      "duration": 0.0335,
      "velocity": 99,
      "chip": "ym2612"
    },
    {
      "channel": 2,
      "note": 85,
      "start": 69.0326,
      "duration": 0.1805,
      "velocity": 99,
      "chip": "ym2612"
    },
    {
      "channel": 3,
      "note": 77,
      "start": 69.0332,
      "duration": 0.0291,
      "velocity": 92,
      "chip": "ym2612"
    },
    {
      "channel": 0,
      "note": 61,
      "start": 69.0656,
      "duration": 0.033,
      "velocity": 99,
      "chip": "ym2612"
    },
    {
      "channel": 3,
      "note": 65,
      "start": 69.0667,
      "duration": 0.0297,
      "velocity": 92,
      "chip": "ym2612"
    },
    {
      "channel": 4,
      "note": 80,
      "start": 69.0673,
      "duration": 0.2691,
      "velocity": 99,
      "chip": "ym2612"
    },
    {
      "channel": 0,
      "note": 59,
      "start": 69.0988,
      "duration": 0.0837,
      "velocity": 99,
      "chip": "ym2612"
    },
    {
      "channel": 3,
      "note": 73,
      "start": 69.1,
      "duration": 0.0678,
      "velocity": 92,
      "chip": "ym2612"
    },
    {
      "channel": 0,
      "note": 58,
      "start": 69.1828,
      "duration": 0.0325,
      "velocity": 99,
      "chip": "ym2612"
    },
    {
      "channel": 1,
      "note": 77,
      "start": 69.1833,
      "duration": 0.0295,
      "velocity": 99,
      "chip": "ym2612"
    },
    {
      "channel": 0,
      "note": 58,
      "start": 69.2156,
      "duration": 0.1819,
      "velocity": 99,
      "chip": "ym2612"
    },
    {
      "channel": 1,
      "note": 78,
      "start": 69.2161,
      "duration": 0.166,
      "velocity": 99,
      "chip": "ym2612"
    },
    {
      "channel": 2,
      "note": 77,
      "start": 69.2167,
      "duration": 0.1657,
      "velocity": 99,
      "chip": "ym2612"
    },
    {
      "channel": 3,
      "note": 65,
      "start": 69.2173,
      "duration": 0.1654,
      "velocity": 92,
      "chip": "ym2612"
    },
    {
      "channel": 0,
      "note": 58,
      "start": 69.3978,
      "duration": 0.033,
      "velocity": 99,
      "chip": "ym2612"
    },
    {
      "channel": 1,
      "note": 80,
      "start": 69.3983,
      "duration": 0.0301,
      "velocity": 99,
      "chip": "ym2612"
    },
    {
      "channel": 2,
      "note": 78,
      "start": 69.3988,
      "duration": 0.0298,
      "velocity": 99,
      "chip": "ym2612"
    },
    {
      "channel": 3,
      "note": 65,
      "start": 69.3995,
      "duration": 0.0295,
      "velocity": 92,
      "chip": "ym2612"
    },
    {
      "channel": 4,
      "note": 85,
      "start": 69.4001,
      "duration": 0.0211,
      "velocity": 99,
      "chip": "ym2612"
    },
    {
      "channel": 0,
      "note": 58,
      "start": 69.4311,
      "duration": 0.0834,
      "velocity": 99,
      "chip": "ym2612"
    },
    {
      "channel": 1,
      "note": 80,
      "start": 69.4317,
      "duration": 0.1131,
      "velocity": 99,
      "chip": "ym2612"
    },
    {
      "channel": 2,
      "note": 80,
      "start": 69.4326,
      "duration": 0.0667,
      "velocity": 99,
      "chip": "ym2612"
    },
    {
      "channel": 3,
      "note": 73,
      "start": 69.4332,
      "duration": 0.0664,
      "velocity": 92,
      "chip": "ym2612"
    },
    {
      "channel": 4,
      "note": 77,
      "start": 69.4339,
      "duration": 0.0206,
      "velocity": 99,
      "chip": "ym2612"
    },
    {
      "channel": 0,
      "note": 58,
      "start": 69.5147,
      "duration": 0.0335,
      "velocity": 99,
      "chip": "ym2612"
    },
    {
      "channel": 2,
      "note": 80,
      "start": 69.5155,
      "duration": 0.0637,
      "velocity": 99,
      "chip": "ym2612"
    },
    {
      "channel": 3,
      "note": 65,
      "start": 69.5161,
      "duration": 0.0293,
      "velocity": 92,
      "chip": "ym2612"
    },
    {
      "channel": 4,
      "note": 78,
      "start": 69.5168,
      "duration": 0.0212,
      "velocity": 99,
      "chip": "ym2612"
    },
    {
      "channel": 0,
      "note": 58,
      "start": 69.5485,
      "duration": 0.0339,
      "velocity": 99,
      "chip": "ym2612"
    },
    {
      "channel": 1,
      "note": 82,
      "start": 69.549,
      "duration": 0.0299,
      "velocity": 99,
      "chip": "ym2612"
    },
    {
      "channel": 3,
      "note": 77,
      "start": 69.5499,
      "duration": 0.0297,
      "velocity": 92,
      "chip": "ym2612"
    },
    {
      "channel": 4,
      "note": 80,
      "start": 69.5505,
      "duration": 0.0554,
      "velocity": 99,
      "chip": "ym2612"
    },
    {
      "channel": 0,
      "note": 58,
      "start": 69.5826,
      "duration": 0.0332,
      "velocity": 99,
      "chip": "ym2612"
    },
    {
      "channel": 1,
      "note": 80,
      "start": 69.5831,
      "duration": 0.0192,
      "velocity": 99,
      "chip": "ym2612"
    },
    {
      "channel": 2,
      "note": 82,
      "start": 69.5837,
      "duration": 0.0296,
      "velocity": 99,
      "chip": "ym2612"
    },
    {
      "channel": 3,
      "note": 65,
      "start": 69.5843,
      "duration": 0.0293,
      "velocity": 92,
      "chip": "ym2612"
    },
    {
      "channel": 1,
      "note": 78,
      "start": 69.6051,
      "duration": 0.0202,
      "velocity": 99,
      "chip": "ym2612"
    },
    {
      "channel": 0,
      "note": 58,
      "start": 69.6161,
      "duration": 0.083,
      "velocity": 99,
      "chip": "ym2612"
    },
    {
      "channel": 2,
      "note": 80,
      "start": 69.6168,
      "duration": 0.0191,
      "velocity": 99,
      "chip": "ym2612"
    },
    {
      "channel": 3,
      "note": 73,
      "start": 69.6176,
      "duration": 0.0666,
      "velocity": 92,
      "chip": "ym2612"
    },
    {
      "channel": 4,
      "note": 80,
      "start": 69.6183,
      "duration": 0.0212,
      "velocity": 99,
      "chip": "ym2612"
    },
    {
      "channel": 1,
      "note": 77,
      "start": 69.6281,
      "duration": 0.0556,
      "velocity": 99,
      "chip": "ym2612"
    },
    {
      "channel": 2,
      "note": 78,
      "start": 69.6387,
      "duration": 0.0708,
      "velocity": 99,
      "chip": "ym2612"
    },
    {
      "channel": 0,
      "note": 51,
      "start": 69.6993,
      "duration": 0.033,
      "velocity": 99,
      "chip": "ym2612"
    },
    {
      "channel": 1,
      "note": 75,
      "start": 69.6998,
      "duration": 0.5022,
      "velocity": 99,
      "chip": "ym2612"
    },
    {
      "channel": 4,
      "note": 82,
      "start": 69.7011,
      "duration": 0.0122,
      "velocity": 99,
      "chip": "ym2612"
    },
    {
      "channel": 2,
      "note": 77,
      "start": 69.7126,
      "duration": 0.0176,
      "velocity": 99,
      "chip": "ym2612"
    },
    {
      "channel": 4,
      "note": 80,
      "start": 69.7234,
      "duration": 0.011,
      "velocity": 99,
      "chip": "ym2612"
    },
    {
      "channel": 0,
      "note": 63,
      "start": 69.7325,
      "duration": 0.1819,
      "velocity": 99,
      "chip": "ym2612"
    },
    {
      "channel": 2,
      "note": 75,
      "start": 69.7333,
      "duration": 0.5144,
      "velocity": 99,
      "chip": "ym2612"
    },
    {
      "channel": 3,
      "note": 65,
      "start": 69.7339,
      "duration": 0.1657,
      "velocity": 92,
      "chip": "ym2612"
    },
    {
      "channel": 4,
      "note": 78,
      "start": 69.7908,
      "duration": 0.0623,
      "velocity": 99,
      "chip": "ym2612"
    },
    {
      "channel": 0,
      "note": 53,
      "start": 69.9147,
      "duration": 0.0332,
      "velocity": 99,
      "chip": "ym2612"
    },
    {
      "channel": 3,
      "note": 66,
      "start": 69.9158,
      "duration": 0.0299,
      "velocity": 92,
      "chip": "ym2612"
    },
    {
      "channel": 4,
      "note": 77,
      "start": 69.9165,
      "duration": 0.4539,
      "velocity": 99,
      "chip": "ym2612"
    },
    {
      "channel": 0,
      "note": 65,
      "start": 69.9482,
      "duration": 0.0834,
      "velocity": 99,
      "chip": "ym2612"
    },
    {
      "channel": 3,
      "note": 75,
      "start": 69.9493,
      "duration": 0.0671,
      "velocity": 92,
      "chip": "ym2612"
    },
    {
      "channel": 0,
      "note": 54,
      "start": 70.0318,
      "duration": 0.0348,
      "velocity": 99,
      "chip": "ym2612"
    },
    {
      "channel": 3,
      "note": 66,
      "start": 70.0329,
      "duration": 0.03,
      "velocity": 92,
      "chip": "ym2612"
    },
    {
      "channel": 0,
      "note": 66,
      "start": 70.0668,
      "duration": 0.0338,
      "velocity": 99,
      "chip": "ym2612"
    },
    {
      "channel": 3,
      "note": 78,
      "start": 70.068,
      "duration": 0.0304,
      "velocity": 92,
      "chip": "ym2612"
    },
    {
      "channel": 0,
      "note": 58,
      "start": 70.1009,
      "duration": 0.0337,
      "velocity": 99,
      "chip": "ym2612"
    },
    {
      "channel": 3,
      "note": 66,
      "start": 70.1021,
      "duration": 0.0306,
      "velocity": 92,
      "chip": "ym2612"
    },
    {
      "channel": 0,
      "note": 70,
      "start": 70.1348,
      "duration": 0.0822,
      "velocity": 99,
      "chip": "ym2612"
    },
    {
      "channel": 3,
      "note": 75,
      "start": 70.136,
      "duration": 0.0667,
      "velocity": 92,
      "chip": "ym2612"
    },
    {
      "channel": 0,
      "note": 59,
      "start": 70.2174,
      "duration": 0.0324,
      "velocity": 99,
      "chip": "ym2612"
    },
    {
      "channel": 1,
      "note": 71,
      "start": 70.218,
      "duration": 0.3156,
      "velocity": 99,
      "chip": "ym2612"
    },
    {
      "channel": 0,
      "note": 59,
      "start": 70.2501,
      "duration": 0.1818,
      "velocity": 99,
      "chip": "ym2612"
    },
    {
      "channel": 2,
      "note": 71,
      "start": 70.2509,
      "duration": 0.3287,
      "velocity": 99,
      "chip": "ym2612"
    },
    {
      "channel": 3,
      "note": 66,
      "start": 70.2515,
      "duration": 0.1655,
      "velocity": 92,
      "chip": "ym2612"
    },
    {
      "channel": 0,
      "note": 59,
      "start": 70.4322,
      "duration": 0.0334,
      "velocity": 99,
      "chip": "ym2612"
    },
    {
      "channel": 3,
      "note": 66,
      "start": 70.4333,
      "duration": 0.0305,
      "velocity": 92,
      "chip": "ym2612"
    },
    {
      "channel": 4,
      "note": 75,
      "start": 70.4339,
      "duration": 0.1732,
      "velocity": 99,
      "chip": "ym2612"
    },
    {
      "channel": 0,
      "note": 59,
      "start": 70.4658,
      "duration": 0.083,
      "velocity": 99,
      "chip": "ym2612"
    },
    {
      "channel": 3,
      "note": 75,
      "start": 70.467,
      "duration": 0.0672,
      "velocity": 92,
      "chip": "ym2612"
    },
    {
      "channel": 0,
      "note": 59,
      "start": 70.549,
      "duration": 0.0346,
      "velocity": 99,
      "chip": "ym2612"
    },
    {
      "channel": 1,
      "note": 82,
      "start": 70.5496,
      "duration": 0.1693,
      "velocity": 99,
      "chip": "ym2612"
    },
    {
      "channel": 3,
      "note": 66,
      "start": 70.5506,
      "duration": 0.0293,
      "velocity": 92,
      "chip": "ym2612"
    },
    {
      "channel": 0,
      "note": 59,
      "start": 70.5839,
      "duration": 0.0335,
      "velocity": 99,
      "chip": "ym2612"
    },
    {
      "channel": 2,
      "note": 82,
      "start": 70.5847,
      "duration": 0.1796,
      "velocity": 99,
      "chip": "ym2612"
    },
    {
      "channel": 3,
      "note": 78,
      "start": 70.5853,
      "duration": 0.0292,
      "velocity": 92,
      "chip": "ym2612"
    },
    {
      "channel": 0,
      "note": 59,
      "start": 70.6177,
      "duration": 0.0335,
      "velocity": 99,
      "chip": "ym2612"
    },
    {
      "channel": 3,
      "note": 66,
      "start": 70.6188,
      "duration": 0.0305,
      "velocity": 92,
      "chip": "ym2612"
    },
    {
      "channel": 4,
      "note": 71,
      "start": 70.6195,
      "duration": 0.2676,
      "velocity": 99,
      "chip": "ym2612"
    },
    {
      "channel": 0,
      "note": 59,
      "start": 70.6514,
      "duration": 0.0829,
      "velocity": 99,
      "chip": "ym2612"
    },
    {
      "channel": 3,
      "note": 75,
      "start": 70.6526,
      "duration": 0.0669,
      "velocity": 92,
      "chip": "ym2612"
    },
    {
      "channel": 0,
      "note": 61,
      "start": 70.7345,
      "duration": 0.0319,
      "velocity": 99,
      "chip": "ym2612"
    },
    {
      "channel": 1,
      "note": 80,
      "start": 70.735,
      "duration": 0.1982,
      "velocity": 99,
      "chip": "ym2612"
    },
    {
      "channel": 0,
      "note": 61,
      "start": 70.7667,
      "duration": 0.1819,
      "velocity": 99,
      "chip": "ym2612"
    },
    {
      "channel": 2,
      "note": 80,
      "start": 70.7675,
      "duration": 0.2125,
      "velocity": 99,
      "chip": "ym2612"
    },
    {
      "channel": 3,
      "note": 66,
      "start": 70.7681,
      "duration": 0.1657,
      "velocity": 92,
      "chip": "ym2612"
    },
    {
      "channel": 0,
      "note": 61,
      "start": 70.9488,
      "duration": 0.0332,
      "velocity": 99,
      "chip": "ym2612"
    },
    {
      "channel": 1,
      "note": 77,
      "start": 70.9494,
      "duration": 0.1013,
      "velocity": 99,
      "chip": "ym2612"
    },
    {
      "channel": 3,
      "note": 65,
      "start": 70.9502,
      "duration": 0.0301,
      "velocity": 92,
      "chip": "ym2612"
    },
    {
      "channel": 4,
      "note": 82,
      "start": 70.9509,
      "duration": 0.0542,
      "velocity": 99,
      "chip": "ym2612"
    },
    {
      "channel": 0,
      "note": 61,
      "start": 70.9823,
      "duration": 0.0838,
      "velocity": 99,
      "chip": "ym2612"
    },
    {
      "channel": 2,
      "note": 77,
      "start": 70.9831,
      "duration": 0.1131,
      "velocity": 99,
      "chip": "ym2612"
    },
    {
      "channel": 3,
      "note": 73,
      "start": 70.9837,
      "duration": 0.0676,
      "velocity": 92,
      "chip": "ym2612"
    },
    {
      "channel": 0,
      "note": 61,
      "start": 71.0663,
      "duration": 0.0332,
      "velocity": 99,
      "chip": "ym2612"
    },
    {
      "channel": 1,
      "note": 78,
      "start": 71.0669,
      "duration": 0.0627,
      "velocity": 99,
      "chip": "ym2612"
    },
    {
      "channel": 3,
      "note": 65,
      "start": 71.0678,
      "duration": 0.0288,
      "velocity": 92,
      "chip": "ym2612"
    },
    {
      "channel": 4,
      "note": 80,
      "start": 71.0684,
      "duration": 0.0544,
      "velocity": 99,
      "chip": "ym2612"
    },
    {
      "channel": 0,
      "note": 61,
      "start": 71.0998,
      "duration": 0.0332,
      "velocity": 99,
      "chip": "ym2612"
    },
    {
      "channel": 2,
      "note": 78,
      "start": 71.101,
      "duration": 0.0634,
      "velocity": 99,
      "chip": "ym2612"
    },
    {
      "channel": 3,
      "note": 77,
      "start": 71.1016,
      "duration": 0.0286,
      "velocity": 92,
      "chip": "ym2612"
    },
    {
      "channel": 0,
      "note": 61,
      "start": 71.1332,
      "duration": 0.0335,
      "velocity": 99,
      "chip": "ym2612"
    },
    {
      "channel": 1,
      "note": 80,
      "start": 71.1337,
      "duration": 0.1016,
      "velocity": 99,
      "chip": "ym2612"
    },
    {
      "channel": 3,
      "note": 65,
      "start": 71.1346,
      "duration": 0.0302,
      "velocity": 92,
      "chip": "ym2612"
    },
    {
      "channel": 4,
      "note": 77,
      "start": 71.1353,
      "duration": 0.0541,
      "velocity": 99,
      "chip": "ym2612"
    },
    {
      "channel": 0,
      "note": 61,
      "start": 71.167,
      "duration": 0.0837,
      "velocity": 99,
      "chip": "ym2612"
    },
    {
      "channel": 2,
      "note": 80,
      "start": 71.1678,
      "duration": 0.1124,
      "velocity": 99,
      "chip": "ym2612"
    },
    {
      "channel": 3,
      "note": 73,
      "start": 71.1684,
      "duration": 0.0676,
      "velocity": 92,
      "chip": "ym2612"
    },
    {
      "channel": 0,
      "note": 54,
      "start": 71.251,
      "duration": 0.0317,
      "velocity": 99,
      "chip": "ym2612"
    },
    {
      "channel": 1,
      "note": 82,
      "start": 71.2515,
      "duration": 0.1988,
      "velocity": 99,
      "chip": "ym2612"
    },
    {
      "channel": 4,
      "note": 78,
      "start": 71.2528,
      "duration": 0.1515,
      "velocity": 99,
      "chip": "ym2612"
    },
    {
      "channel": 0,
      "note": 54,
      "start": 71.2829,
      "duration": 0.1828,
      "velocity": 99,
      "chip": "ym2612"
    },
    {
      "channel": 2,
      "note": 82,
      "start": 71.2837,
      "duration": 0.2134,
      "velocity": 99,
      "chip": "ym2612"
    },
    {
      "channel": 3,
      "note": 65,
      "start": 71.2844,
      "duration": 0.1665,
      "velocity": 92,
      "chip": "ym2612"
    },
    {
      "channel": 0,
      "note": 54,
      "start": 71.466,
      "duration": 0.0332,
      "velocity": 99,
      "chip": "ym2612"
    },
    {
      "channel": 1,
      "note": 85,
      "start": 71.4665,
      "duration": 0.0303,
      "velocity": 99,
      "chip": "ym2612"
    },
    {
      "channel": 3,
      "note": 66,
      "start": 71.4674,
      "duration": 0.03,
      "velocity": 92,
      "chip": "ym2612"
    },
    {
      "channel": 4,
      "note": 80,
      "start": 71.468,
      "duration": 0.0547,
      "velocity": 99,
      "chip": "ym2612"
    },
    {
      "channel": 0,
      "note": 54,
      "start": 71.4995,
      "duration": 0.0847,
      "velocity": 99,
      "chip": "ym2612"
    },
    {
      "channel": 1,
      "note": 82,
      "start": 71.5,
      "duration": 0.1827,
      "velocity": 99,
      "chip": "ym2612"
    },
    {
      "channel": 2,
      "note": 85,
      "start": 71.5005,
      "duration": 0.0685,
      "velocity": 99,
      "chip": "ym2612"
    },
    {
      "channel": 3,
      "note": 73,
      "start": 71.5012,
      "duration": 0.0682,
      "velocity": 92,
      "chip": "ym2612"
    },
    {
      "channel": 0,
      "note": 54,
      "start": 71.5844,
      "duration": 0.0337,
      "velocity": 99,
      "chip": "ym2612"
    },
    {
      "channel": 2,
      "note": 82,
      "start": 71.5852,
      "duration": 0.0978,
      "velocity": 99,
      "chip": "ym2612"
    },
    {
      "channel": 3,
      "note": 66,
      "start": 71.5858,
      "duration": 0.0291,
      "velocity": 92,
      "chip": "ym2612"
    },
    {
      "channel": 4,
      "note": 82,
      "start": 71.5865,
      "duration": 0.0205,
      "velocity": 99,
      "chip": "ym2612"
    },
    {
      "channel": 0,
      "note": 54,
      "start": 71.6184,
      "duration": 0.0333,
      "velocity": 99,
      "chip": "ym2612"
    },
    {
      "channel": 3,
      "note": 78,
      "start": 71.6195,
      "duration": 0.0293,
      "velocity": 92,
      "chip": "ym2612"
    },
    {
      "channel": 4,
      "note": 85,
      "start": 71.6202,
      "duration": 0.0556,
      "velocity": 99,
      "chip": "ym2612"
    },
    {
      "channel": 0,
      "note": 54,
      "start": 71.6519,
      "duration": 0.0334,
      "velocity": 99,
      "chip": "ym2612"
    },
    {
      "channel": 3,
      "note": 66,
      "start": 71.653,
      "duration": 0.0303,
      "velocity": 92,
      "chip": "ym2612"
    },
    {
      "channel": 0,
      "note": 58,
      "start": 71.6855,
      "duration": 0.2309,
      "velocity": 99,
      "chip": "ym2612"
    },
    {
      "channel": 1,
      "note": 97,
      "start": 71.6881,
      "duration": 0.2588,
      "velocity": 99,
      "chip": "ym2612"
    },
    {
      "channel": 3,
      "note": 73,
      "start": 71.6938,
      "duration": 0.4439,
      "velocity": 98,
      "chip": "ym2612"
    },
    {
      "channel": 4,
      "note": 82,
      "start": 71.6974,
      "duration": 0.4321,
      "velocity": 98,
      "chip": "ym2612"
    },
    {
      "channel": 2,
      "note": 97,
      "start": 71.7031,
      "duration": 0.2515,
      "velocity": 99,
      "chip": "ym2612"
    },
    {
      "channel": 0,
      "note": 58,
      "start": 71.9167,
      "duration": 0.0332,
      "velocity": 99,
      "chip": "ym2612"
    },
    {
      "channel": 0,
      "note": 58,
      "start": 71.9501,
      "duration": 0.0336,
      "velocity": 99,
      "chip": "ym2612"
    },
    {
      "channel": 1,
      "note": 95,
      "start": 71.9509,
      "duration": 0.1014,
      "velocity": 99,
      "chip": "ym2612"
    },
    {
      "channel": 2,
      "note": 95,
      "start": 71.9578,
      "duration": 0.1139,
      "velocity": 99,
      "chip": "ym2612"
    },
    {
      "channel": 0,
      "note": 58,
      "start": 71.984,
      "duration": 0.0837,
      "velocity": 99,
      "chip": "ym2612"
    },
    {
      "channel": 0,
      "note": 58,
      "start": 72.0679,
      "duration": 0.0179,
      "velocity": 99,
      "chip": "ym2612"
    },
    {
      "channel": 1,
      "note": 94,
      "start": 72.0685,
      "duration": 0.0684,
      "velocity": 99,
      "chip": "ym2612"
    },
    {
      "channel": 2,
      "note": 94,
      "start": 72.0745,
      "duration": 0.0703,
      "velocity": 99,
      "chip": "ym2612"
    },
    {
      "channel": 0,
      "note": 70,
      "start": 72.0861,
      "duration": 0.0188,
      "velocity": 99,
      "chip": "ym2612"
    },
    {
      "channel": 0,
      "note": 70,
      "start": 72.1051,
      "duration": 0.0175,
      "velocity": 99,
      "chip": "ym2612"
    },
    {
      "channel": 0,
      "note": 58,
      "start": 72.1229,
      "duration": 0.0169,
      "velocity": 99,
      "chip": "ym2612"
    },
    {
      "channel": 0,
      "note": 58,
      "start": 72.14,
      "duration": 0.0324,
      "velocity": 99,
      "chip": "ym2612"
    },
    {
      "channel": 1,
      "note": 92,
      "start": 72.1405,
      "duration": 0.101,
      "velocity": 99,
      "chip": "ym2612"
    },
    {
      "channel": 3,
      "note": 58,
      "start": 72.1415,
      "duration": 0.1006,
      "velocity": 98,
      "chip": "ym2612"
    },
    {
      "channel": 4,
      "note": 65,
      "start": 72.1425,
      "duration": 0.0529,
      "velocity": 98,
      "chip": "ym2612"
    },
    {
      "channel": 2,
      "note": 92,
      "start": 72.1478,
      "duration": 0.094,
      "velocity": 99,
      "chip": "ym2612"
    },
    {
      "channel": 0,
      "note": 58,
      "start": 72.1727,
      "duration": 0.0842,
      "velocity": 99,
      "chip": "ym2612"
    },
    {
      "channel": 0,
      "note": 59,
      "start": 72.2571,
      "duration": 0.0351,
      "velocity": 99,
      "chip": "ym2612"
    },
    {
      "channel": 1,
      "note": 82,
      "start": 72.2597,
      "duration": 0.4986,
      "velocity": 99,
      "chip": "ym2612"
    },
    {
      "channel": 3,
      "note": 58,
      "start": 72.2607,
      "duration": 0.0062,
      "velocity": 98,
      "chip": "ym2612"
    },
    {
      "channel": 0,
      "note": 59,
      "start": 72.2924,
      "duration": 0.1793,
      "velocity": 99,
      "chip": "ym2612"
    },
    {
      "channel": 2,
      "note": 82,
      "start": 72.2952,
      "duration": 0.5102,
      "velocity": 99,
      "chip": "ym2612"
    },
    {
      "channel": 3,
      "note": 59,
      "start": 72.2959,
      "duration": 0.0204,
      "velocity": 98,
      "chip": "ym2612"
    },
    {
      "channel": 4,
      "note": 65,
      "start": 72.2998,
      "duration": 0.4986,
      "velocity": 99,
      "chip": "ym2612"
    },
    {
      "channel": 0,
      "note": 71,
      "start": 72.472,
      "duration": 0.0322,
      "velocity": 99,
      "chip": "ym2612"
    },
    {
      "channel": 3,
      "note": 59,
      "start": 72.4732,
      "duration": 0.0292,
      "velocity": 98,
      "chip": "ym2612"
    },
    {
      "channel": 0,
      "note": 59,
      "start": 72.5044,
      "duration": 0.0844,
      "velocity": 99,
      "chip": "ym2612"
    },
    {
      "channel": 3,
      "note": 59,
      "start": 72.5056,
      "duration": 0.0062,
      "velocity": 98,
      "chip": "ym2612"
    },
    {
      "channel": 0,
      "note": 59,
      "start": 72.589,
      "duration": 0.0336,
      "velocity": 99,
      "chip": "ym2612"
    },
    {
      "channel": 3,
      "note": 59,
      "start": 72.5901,
      "duration": 0.0059,
      "velocity": 98,
      "chip": "ym2612"
    },
    {
      "channel": 0,
      "note": 71,
      "start": 72.6228,
      "duration": 0.0339,
      "velocity": 99,
      "chip": "ym2612"
    },
    {
      "channel": 3,
      "note": 59,
      "start": 72.6241,
      "duration": 0.0301,
      "velocity": 98,
      "chip": "ym2612"
    },
    {
      "channel": 0,
      "note": 59,
      "start": 72.657,
      "duration": 0.0339,
      "velocity": 99,
      "chip": "ym2612"
    },
    {
      "channel": 3,
      "note": 59,
      "start": 72.6582,
      "duration": 0.007,
      "velocity": 98,
      "chip": "ym2612"
    },
    {
      "channel": 0,
      "note": 59,
      "start": 72.6911,
      "duration": 0.0826,
      "velocity": 99,
      "chip": "ym2612"
    },
    {
      "channel": 3,
      "note": 59,
      "start": 72.6926,
      "duration": 0.0061,
      "velocity": 98,
      "chip": "ym2612"
    },
    {
      "channel": 0,
      "note": 61,
      "start": 72.7739,
      "duration": 0.0338,
      "velocity": 99,
      "chip": "ym2612"
    },
    {
      "channel": 1,
      "note": 80,
      "start": 72.7745,
      "duration": 0.3158,
      "velocity": 99,
      "chip": "ym2612"
    },
    {
      "channel": 3,
      "note": 59,
      "start": 72.7754,
      "duration": 0.006,
      "velocity": 98,
      "chip": "ym2612"
    },
    {
      "channel": 0,
      "note": 61,
      "start": 72.808,
      "duration": 0.1809,
      "velocity": 99,
      "chip": "ym2612"
    },
    {
      "channel": 2,
      "note": 80,
      "start": 72.8087,
      "duration": 0.3285,
      "velocity": 99,
      "chip": "ym2612"
    },
    {
      "channel": 3,
      "note": 61,
      "start": 72.8093,
      "duration": 0.024,
      "velocity": 98,
      "chip": "ym2612"
    },
    {
      "channel": 4,
      "note": 82,
      "start": 72.81,
      "duration": 0.3202,
      "velocity": 99,
      "chip": "ym2612"
    },
    {
      "channel": 0,
      "note": 73,
      "start": 72.9891,
      "duration": 0.0326,
      "velocity": 99,
      "chip": "ym2612"
    },
    {
      "channel": 3,
      "note": 61,
      "start": 72.9903,
      "duration": 0.0294,
      "velocity": 98,
      "chip": "ym2612"
    },
    {
      "channel": 0,
      "note": 61,
      "start": 73.0219,
      "duration": 0.0838,
      "velocity": 99,
      "chip": "ym2612"
    },
    {
      "channel": 3,
      "note": 61,
      "start": 73.0232,
      "duration": 0.0063,
      "velocity": 98,
      "chip": "ym2612"
    },
    {
      "channel": 0,
      "note": 61,
      "start": 73.1059,
      "duration": 0.0337,
      "velocity": 99,
      "chip": "ym2612"
    },
    {
      "channel": 1,
      "note": 85,
      "start": 73.1065,
      "duration": 0.0976,
      "velocity": 99,
      "chip": "ym2612"
    },
    {
      "channel": 3,
      "note": 61,
      "start": 73.1073,
      "duration": 0.0061,
      "velocity": 98,
      "chip": "ym2612"
    },
    {
      "channel": 0,
      "note": 73,
      "start": 73.1398,
      "duration": 0.0334,
      "velocity": 99,
      "chip": "ym2612"
    },
    {
      "channel": 2,
      "note": 85,
      "start": 73.1406,
      "duration": 0.0974,
      "velocity": 99,
      "chip": "ym2612"
    },
    {
      "channel": 3,
      "note": 61,
      "start": 73.1413,
      "duration": 0.029,
      "velocity": 98,
      "chip": "ym2612"
    },
    {
      "channel": 4,
      "note": 80,
      "start": 73.142,
      "duration": 0.0889,
      "velocity": 99,
      "chip": "ym2612"
    },
    {
      "channel": 0,
      "note": 61,
      "start": 73.1735,
      "duration": 0.0339,
      "velocity": 99,
      "chip": "ym2612"
    },
    {
      "channel": 3,
      "note": 61,
      "start": 73.1747,
      "duration": 0.0063,
      "velocity": 98,
      "chip": "ym2612"
    },
    {
      "channel": 0,
      "note": 62,
      "start": 73.2076,
      "duration": 0.2221,
      "velocity": 99,
      "chip": "ym2612"
    },
    {
      "channel": 1,
      "note": 85,
      "start": 73.2082,
      "duration": 0.2519,
      "velocity": 99,
      "chip": "ym2612"
    },
    {
      "channel": 3,
      "note": 61,
      "start": 73.2091,
      "duration": 0.2057,
      "velocity": 98,
      "chip": "ym2612"
    },
    {
      "channel": 2,
      "note": 85,
      "start": 73.2429,
      "duration": 0.2522,
      "velocity": 99,
      "chip": "ym2612"
    },
    {
      "channel": 4,
      "note": 85,
      "start": 73.2439,
      "duration": 0.2435,
      "velocity": 99,
      "chip": "ym2612"
    },
    {
      "channel": 0,
      "note": 62,
      "start": 73.4299,
      "duration": 0.0335,
      "velocity": 99,
      "chip": "ym2612"
    },
    {
      "channel": 3,
      "note": 62,
      "start": 73.431,
      "duration": 0.0296,
      "velocity": 98,
      "chip": "ym2612"
    },
    {
      "channel": 0,
      "note": 74,
      "start": 73.4637,
      "duration": 0.034,
      "velocity": 99,
      "chip": "ym2612"
    },
    {
      "channel": 1,
      "note": 83,
      "start": 73.4642,
      "duration": 0.101,
      "velocity": 99,
      "chip": "ym2612"
    },
    {
      "channel": 3,
      "note": 62,
      "start": 73.4652,
      "duration": 0.0303,
      "velocity": 98,
      "chip": "ym2612"
    },
    {
      "channel": 0,
      "note": 62,
      "start": 73.4979,
      "duration": 0.0827,
      "velocity": 99,
      "chip": "ym2612"
    },
    {
      "channel": 2,
      "note": 83,
      "start": 73.4987,
      "duration": 0.1126,
      "velocity": 99,
      "chip": "ym2612"
    },
    {
      "channel": 3,
      "note": 62,
      "start": 73.4994,
      "duration": 0.0064,
      "velocity": 98,
      "chip": "ym2612"
    },
    {
      "channel": 4,
      "note": 85,
      "start": 73.5,
      "duration": 0.1044,
      "velocity": 99,
      "chip": "ym2612"
    },
    {
      "channel": 0,
      "note": 62,
      "start": 73.5808,
      "duration": 0.0335,
      "velocity": 99,
      "chip": "ym2612"
    },
    {
      "channel": 1,
      "note": 82,
      "start": 73.5817,
      "duration": 0.0633,
      "velocity": 99,
      "chip": "ym2612"
    },
    {
      "channel": 3,
      "note": 62,
      "start": 73.5826,
      "duration": 0.0061,
      "velocity": 98,
      "chip": "ym2612"
    },
    {
      "channel": 0,
      "note": 74,
      "start": 73.6145,
      "duration": 0.034,
      "velocity": 99,
      "chip": "ym2612"
    },
    {
      "channel": 2,
      "note": 82,
      "start": 73.6153,
      "duration": 0.0648,
      "velocity": 99,
      "chip": "ym2612"
    },
    {
      "channel": 3,
      "note": 62,
      "start": 73.616,
      "duration": 0.0295,
      "velocity": 98,
      "chip": "ym2612"
    },
    {
      "channel": 4,
      "note": 83,
      "start": 73.6167,
      "duration": 0.0558,
      "velocity": 99,
      "chip": "ym2612"
    },
    {
      "channel": 0,
      "note": 62,
      "start": 73.6488,
      "duration": 0.0337,
      "velocity": 99,
      "chip": "ym2612"
    },
    {
      "channel": 1,
      "note": 80,
      "start": 73.6493,
      "duration": 0.1007,
      "velocity": 99,
      "chip": "ym2612"
    },
    {
      "channel": 3,
      "note": 62,
      "start": 73.6502,
      "duration": 0.0063,
      "velocity": 98,
      "chip": "ym2612"
    },
    {
      "channel": 0,
      "note": 62,
      "start": 73.6826,
      "duration": 0.0827,
      "velocity": 99,
      "chip": "ym2612"
    },
    {
      "channel": 2,
      "note": 80,
      "start": 73.6834,
      "duration": 0.1122,
      "velocity": 99,
      "chip": "ym2612"
    },
    {
      "channel": 3,
      "note": 62,
      "start": 73.684,
      "duration": 0.0057,
      "velocity": 98,
      "chip": "ym2612"
    },
    {
      "channel": 4,
      "note": 82,
      "start": 73.6847,
      "duration": 0.104,
      "velocity": 99,
      "chip": "ym2612"
    },
    {
      "channel": 0,
      "note": 63,
      "start": 73.7656,
      "duration": 0.0323,
      "velocity": 99,
      "chip": "ym2612"
    },
    {
      "channel": 1,
      "note": 78,
      "start": 73.7663,
      "duration": 0.029,
      "velocity": 99,
      "chip": "ym2612"
    },
    {
      "channel": 3,
      "note": 62,
      "start": 73.7674,
      "duration": 0.0058,
      "velocity": 98,
      "chip": "ym2612"
    },
    {
      "channel": 0,
      "note": 75,
      "start": 73.7981,
      "duration": 0.1817,
      "velocity": 99,
      "chip": "ym2612"
    },
    {
      "channel": 1,
      "note": 77,
      "start": 73.7987,
      "duration": 0.1658,
      "velocity": 99,
      "chip": "ym2612"
    },
    {
      "channel": 2,
      "note": 78,
      "start": 73.7992,
      "duration": 0.1655,
      "velocity": 99,
      "chip": "ym2612"
    },
    {
      "channel": 3,
      "note": 63,
      "start": 73.7998,
      "duration": 0.0249,
      "velocity": 98,
      "chip": "ym2612"
    },
    {
      "channel": 4,
      "note": 80,
      "start": 73.8005,
      "duration": 0.1179,
      "velocity": 99,
      "chip": "ym2612"
    },
    {
      "channel": 0,
      "note": 63,
      "start": 73.9801,
      "duration": 0.034,
      "velocity": 99,
      "chip": "ym2612"
    },
    {
      "channel": 1,
      "note": 78,
      "start": 73.9806,
      "duration": 0.0305,
      "velocity": 99,
      "chip": "ym2612"
    },
    {
      "channel": 2,
      "note": 77,
      "start": 73.9812,
      "duration": 0.0303,
      "velocity": 99,
      "chip": "ym2612"
    },
    {
      "channel": 3,
      "note": 63,
      "start": 73.9819,
      "duration": 0.0299,
      "velocity": 98,
      "chip": "ym2612"
    },
    {
      "channel": 4,
      "note": 78,
      "start": 73.9825,
      "duration": 0.0218,
      "velocity": 99,
      "chip": "ym2612"
    },
    {
      "channel": 0,
      "note": 61,
      "start": 74.0143,
      "duration": 0.2152,
      "velocity": 99,
      "chip": "ym2612"
    },
    {
      "channel": 1,
      "note": 80,
      "start": 74.0148,
      "duration": 0.1993,
      "velocity": 99,
      "chip": "ym2612"
    },
    {
      "channel": 2,
      "note": 78,
      "start": 74.0154,
      "duration": 0.0299,
      "velocity": 99,
      "chip": "ym2612"
    },
    {
      "channel": 3,
      "note": 63,
      "start": 74.016,
      "duration": 0.1987,
      "velocity": 98,
      "chip": "ym2612"
    },
    {
      "channel": 4,
      "note": 77,
      "start": 74.0167,
      "duration": 0.0212,
      "velocity": 99,
      "chip": "ym2612"
    },
    {
      "channel": 2,
      "note": 80,
      "start": 74.0486,
      "duration": 0.2116,
      "velocity": 99,
      "chip": "ym2612"
    },
    {
      "channel": 4,
      "note": 78,
      "start": 74.0495,
      "duration": 0.2037,
      "velocity": 99,
      "chip": "ym2612"
    },
    {
      "channel": 0,
      "note": 61,
      "start": 74.2297,
      "duration": 0.0325,
      "velocity": 99,
      "chip": "ym2612"
    },
    {
      "channel": 1,
      "note": 77,
      "start": 74.2303,
      "duration": 0.0296,
      "velocity": 99,
      "chip": "ym2612"
    },
    {
      "channel": 3,
      "note": 63,
      "start": 74.2312,
      "duration": 0.0063,
      "velocity": 98,
      "chip": "ym2612"
    },
    {
      "channel": 0,
      "note": 61,
      "start": 74.2625,
      "duration": 0.0334,
      "velocity": 99,
      "chip": "ym2612"
    },
    {
      "channel": 1,
      "note": 78,
      "start": 74.2631,
      "duration": 0.0302,
      "velocity": 99,
      "chip": "ym2612"
    },
    {
      "channel": 2,
      "note": 77,
      "start": 74.2636,
      "duration": 0.03,
      "velocity": 99,
      "chip": "ym2612"
    },
    {
      "channel": 3,
      "note": 63,
      "start": 74.2643,
      "duration": 0.0296,
      "velocity": 98,
      "chip": "ym2612"
    },
    {
      "channel": 4,
      "note": 80,
      "start": 74.265,
      "duration": 0.0217,
      "velocity": 99,
      "chip": "ym2612"
    },
    {
      "channel": 0,
      "note": 61,
      "start": 74.2962,
      "duration": 0.0823,
      "velocity": 99,
      "chip": "ym2612"
    },
    {
      "channel": 1,
      "note": 80,
      "start": 74.2967,
      "duration": 0.0664,
      "velocity": 99,
      "chip": "ym2612"
    },
    {
      "channel": 2,
      "note": 78,
      "start": 74.2973,
      "duration": 0.0661,
      "velocity": 99,
      "chip": "ym2612"
    },
    {
      "channel": 3,
      "note": 63,
      "start": 74.298,
      "duration": 0.0057,
      "velocity": 98,
      "chip": "ym2612"
    },
    {
      "channel": 4,
      "note": 77,
      "start": 74.2987,
      "duration": 0.0208,
      "velocity": 99,
      "chip": "ym2612"
    },
    {
      "channel": 0,
      "note": 59,
      "start": 74.3788,
      "duration": 0.0329,
      "velocity": 99,
      "chip": "ym2612"
    },
    {
      "channel": 1,
      "note": 82,
      "start": 74.3793,
      "duration": 0.316,
      "velocity": 99,
      "chip": "ym2612"
    },
    {
      "channel": 2,
      "note": 80,
      "start": 74.3798,
      "duration": 0.0296,
      "velocity": 99,
      "chip": "ym2612"
    },
    {
      "channel": 3,
      "note": 63,
      "start": 74.3805,
      "duration": 0.0067,
      "velocity": 98,
      "chip": "ym2612"
    },
    {
      "channel": 4,
      "note": 78,
      "start": 74.3811,
      "duration": 0.0215,
      "velocity": 99,
      "chip": "ym2612"
    },
    {
      "channel": 0,
      "note": 59,
      "start": 74.4122,
      "duration": 0.1809,
      "velocity": 99,
      "chip": "ym2612"
    },
    {
      "channel": 2,
      "note": 82,
      "start": 74.413,
      "duration": 0.3284,
      "velocity": 99,
      "chip": "ym2612"
    },
    {
      "channel": 3,
      "note": 59,
      "start": 74.4136,
      "duration": 0.0241,
      "velocity": 98,
      "chip": "ym2612"
    },
    {
      "channel": 4,
      "note": 80,
      "start": 74.4143,
      "duration": 0.3198,
      "velocity": 99,
      "chip": "ym2612"
    },
    {
      "channel": 0,
      "note": 71,
      "start": 74.5934,
      "duration": 0.0329,
      "velocity": 99,
      "chip": "ym2612"
    },
    {
      "channel": 3,
      "note": 59,
      "start": 74.5946,
      "duration": 0.0299,
      "velocity": 98,
      "chip": "ym2612"
    },
    {
      "channel": 0,
      "note": 59,
      "start": 74.6265,
      "duration": 0.0841,
      "velocity": 99,
      "chip": "ym2612"
    },
    {
      "channel": 3,
      "note": 59,
      "start": 74.6277,
      "duration": 0.0058,
      "velocity": 98,
      "chip": "ym2612"
    },
    {
      "channel": 0,
      "note": 59,
      "start": 74.7109,
      "duration": 0.0344,
      "velocity": 99,
      "chip": "ym2612"
    },
    {
      "channel": 1,
      "note": 90,
      "start": 74.7114,
      "duration": 0.1694,
      "velocity": 99,
      "chip": "ym2612"
    },
    {
      "channel": 3,
      "note": 59,
      "start": 74.7123,
      "duration": 0.0059,
      "velocity": 98,
      "chip": "ym2612"
    },
    {
      "channel": 0,
      "note": 71,
      "start": 74.7455,
      "duration": 0.0328,
      "velocity": 99,
      "chip": "ym2612"
    },
    {
      "channel": 2,
      "note": 90,
      "start": 74.7464,
      "duration": 0.1806,
      "velocity": 99,
      "chip": "ym2612"
    },
    {
      "channel": 3,
      "note": 59,
      "start": 74.7474,
      "duration": 0.0284,
      "velocity": 98,
      "chip": "ym2612"
    },
    {
      "channel": 4,
      "note": 82,
      "start": 74.7481,
      "duration": 0.1717,
      "velocity": 99,
      "chip": "ym2612"
    },
    {
      "channel": 0,
      "note": 59,
      "start": 74.7786,
      "duration": 0.0335,
      "velocity": 99,
      "chip": "ym2612"
    },
    {
      "channel": 3,
      "note": 59,
      "start": 74.7798,
      "duration": 0.0067,
      "velocity": 98,
      "chip": "ym2612"
    },
    {
      "channel": 0,
      "note": 59,
      "start": 74.8124,
      "duration": 0.0838,
      "velocity": 99,
      "chip": "ym2612"
    },
    {
      "channel": 3,
      "note": 59,
      "start": 74.8135,
      "duration": 0.0056,
      "velocity": 98,
      "chip": "ym2612"
    },
    {
      "channel": 0,
      "note": 61,
      "start": 74.8964,
      "duration": 0.0333,
      "velocity": 99,
      "chip": "ym2612"
    },
    {
      "channel": 1,
      "note": 89,
      "start": 74.897,
      "duration": 0.3169,
      "velocity": 99,
      "chip": "ym2612"
    },
    {
      "channel": 3,
      "note": 59,
      "start": 74.8979,
      "duration": 0.006,
      "velocity": 98,
      "chip": "ym2612"
    },
    {
      "channel": 0,
      "note": 61,
      "start": 74.93,
      "duration": 0.1811,
      "velocity": 99,
      "chip": "ym2612"
    },
    {
      "channel": 2,
      "note": 89,
      "start": 74.9308,
      "duration": 0.33,
      "velocity": 99,
      "chip": "ym2612"
    },
    {
      "channel": 3,
      "note": 61,
      "start": 74.9314,
      "duration": 0.0243,
      "velocity": 98,
      "chip": "ym2612"
    },
    {
      "channel": 4,
      "note": 90,
      "start": 74.9322,
      "duration": 0.3208,
      "velocity": 99,
      "chip": "ym2612"
    },
    {
      "channel": 0,
      "note": 73,
      "start": 75.1114,
      "duration": 0.0329,
      "velocity": 99,
      "chip": "ym2612"
    },
    {
      "channel": 3,
      "note": 61,
      "start": 75.1126,
      "duration": 0.0299,
      "velocity": 98,
      "chip": "ym2612"
    },
    {
      "channel": 0,
      "note": 61,
      "start": 75.1446,
      "duration": 0.0847,
      "velocity": 99,
      "chip": "ym2612"
    },
    {
      "channel": 3,
      "note": 61,
      "start": 75.1458,
      "duration": 0.0058,
      "velocity": 98,
      "chip": "ym2612"
    },
    {
      "channel": 0,
      "note": 61,
      "start": 75.2295,
      "duration": 0.0354,
      "velocity": 99,
      "chip": "ym2612"
    },
    {
      "channel": 1,
      "note": 85,
      "start": 75.23,
      "duration": 0.1707,
      "velocity": 99,
      "chip": "ym2612"
    },
    {
      "channel": 3,
      "note": 61,
      "start": 75.231,
      "duration": 0.0059,
      "velocity": 98,
      "chip": "ym2612"
    },
    {
      "channel": 0,
      "note": 73,
      "start": 75.2651,
      "duration": 0.0331,
      "velocity": 99,
      "chip": "ym2612"
    },
    {
      "channel": 2,
      "note": 85,
      "start": 75.2659,
      "duration": 0.184,
      "velocity": 99,
      "chip": "ym2612"
    },
    {
      "channel": 3,
      "note": 61,
      "start": 75.2666,
      "duration": 0.0287,
      "velocity": 98,
      "chip": "ym2612"
    },
    {
      "channel": 4,
      "note": 89,
      "start": 75.2673,
      "duration": 0.1753,
      "velocity": 99,
      "chip": "ym2612"
    },
    {
      "channel": 0,
      "note": 61,
      "start": 75.2988,
      "duration": 0.0177,
      "velocity": 99,
      "chip": "ym2612"
    },
    {
      "channel": 3,
      "note": 61,
      "start": 75.3,
      "duration": 0.0068,
      "velocity": 98,
      "chip": "ym2612"
    },
    {
      "channel": 0,
      "note": 68,
      "start": 75.3168,
      "duration": 0.0159,
      "velocity": 99,
      "chip": "ym2612"
    },
    {
      "channel": 0,
      "note": 61,
      "start": 75.3329,
      "duration": 0.0833,
      "velocity": 99,
      "chip": "ym2612"
    },
    {
      "channel": 3,
      "note": 61,
      "start": 75.334,
      "duration": 0.0055,
      "velocity": 98,
      "chip": "ym2612"
    },
    {
      "channel": 0,
      "note": 61,
      "start": 75.4165,
      "duration": 0.0181,
      "velocity": 99,
      "chip": "ym2612"
    },
    {
      "channel": 1,
      "note": 87,
      "start": 75.4171,
      "duration": 1.0933,
      "velocity": 99,
      "chip": "ym2612"
    },
    {
      "channel": 3,
      "note": 61,
      "start": 75.4183,
      "duration": 0.0144,
      "velocity": 98,
      "chip": "ym2612"
    },
    {
      "channel": 0,
      "note": 62,
      "start": 75.4349,
      "duration": 0.0188,
      "velocity": 99,
      "chip": "ym2612"
    },
    {
      "channel": 3,
      "note": 61,
      "start": 75.436,
      "duration": 0.0143,
      "velocity": 98,
      "chip": "ym2612"
    },
    {
      "channel": 0,
      "note": 63,
      "start": 75.4539,
      "duration": 0.0169,
      "velocity": 99,
      "chip": "ym2612"
    },
    {
      "channel": 2,
      "note": 87,
      "start": 75.4547,
      "duration": 1.056,
      "velocity": 99,
      "chip": "ym2612"
    },
    {
      "channel": 3,
      "note": 62,
      "start": 75.4554,
      "duration": 0.0137,
      "velocity": 98,
      "chip": "ym2612"
    },
    {
      "channel": 4,
      "note": 85,
      "start": 75.4561,
      "duration": 1.0556,
      "velocity": 99,
      "chip": "ym2612"
    },
    {
      "channel": 0,
      "note": 61,
      "start": 75.4872,
      "duration": 0.0175,
      "velocity": 99,
      "chip": "ym2612"
    },
    {
      "channel": 3,
      "note": 63,
      "start": 75.4887,
      "duration": 0.0141,
      "velocity": 98,
      "chip": "ym2612"
    },
    {
      "channel": 0,
      "note": 62,
      "start": 75.5049,
      "duration": 0.0171,
      "velocity": 99,
      "chip": "ym2612"
    },
    {
      "channel": 3,
      "note": 61,
      "start": 75.506,
      "duration": 0.0129,
      "velocity": 98,
      "chip": "ym2612"
    },
    {
      "channel": 0,
      "note": 63,
      "start": 75.5222,
      "duration": 0.0177,
      "velocity": 99,
      "chip": "ym2612"
    },
    {
      "channel": 3,
      "note": 62,
      "start": 75.5234,
      "duration": 0.0146,
      "velocity": 98,
      "chip": "ym2612"
    },
    {
      "channel": 0,
      "note": 66,
      "start": 75.5565,
      "duration": 0.034,
      "velocity": 99,
      "chip": "ym2612"
    },
    {
      "channel": 3,
      "note": 63,
      "start": 75.5577,
      "duration": 0.0305,
      "velocity": 98,
      "chip": "ym2612"
    },
    {
      "channel": 0,
      "note": 63,
      "start": 75.5908,
      "duration": 0.0333,
      "velocity": 99,
      "chip": "ym2612"
    },
    {
      "channel": 3,
      "note": 66,
      "start": 75.592,
      "duration": 0.0622,
      "velocity": 98,
      "chip": "ym2612"
    },
    {
      "channel": 0,
      "note": 63,
      "start": 75.6244,
      "duration": 0.033,
      "velocity": 99,
      "chip": "ym2612"
    },
    {
      "channel": 0,
      "note": 58,
      "start": 75.6576,
      "duration": 0.0338,
      "velocity": 99,
      "chip": "ym2612"
    },
    {
      "channel": 3,
      "note": 63,
      "start": 75.6588,
      "duration": 0.0301,
      "velocity": 98,
      "chip": "ym2612"
    },
    {
      "channel": 0,
      "note": 61,
      "start": 75.6918,
      "duration": 0.0184,
      "velocity": 99,
      "chip": "ym2612"
    },
    {
      "channel": 3,
      "note": 58,
      "start": 75.6937,
      "duration": 0.0147,
      "velocity": 98,
      "chip": "ym2612"
    },
    {
      "channel": 0,
      "note": 62,
      "start": 75.7105,
      "duration": 0.0164,
      "velocity": 99,
      "chip": "ym2612"
    },
    {
      "channel": 3,
      "note": 61,
      "start": 75.712,
      "duration": 0.0132,
      "velocity": 98,
      "chip": "ym2612"
    },
    {
      "channel": 0,
      "note": 63,
      "start": 75.7272,
      "duration": 0.0161,
      "velocity": 99,
      "chip": "ym2612"
    },
    {
      "channel": 3,
      "note": 62,
      "start": 75.7283,
      "duration": 0.0132,
      "velocity": 98,
      "chip": "ym2612"
    },
    {
      "channel": 0,
      "note": 61,
      "start": 75.7594,
      "duration": 0.0171,
      "velocity": 99,
      "chip": "ym2612"
    },
    {
      "channel": 3,
      "note": 63,
      "start": 75.7605,
      "duration": 0.014,
      "velocity": 98,
      "chip": "ym2612"
    },
    {
      "channel": 0,
      "note": 62,
      "start": 75.7767,
      "duration": 0.0173,
      "velocity": 99,
      "chip": "ym2612"
    },
    {
      "channel": 3,
      "note": 61,
      "start": 75.7778,
      "duration": 0.0132,
      "velocity": 98,
      "chip": "ym2612"
    },
    {
      "channel": 0,
      "note": 63,
      "start": 75.7943,
      "duration": 0.0174,
      "velocity": 99,
      "chip": "ym2612"
    },
    {
      "channel": 3,
      "note": 62,
      "start": 75.7954,
      "duration": 0.0144,
      "velocity": 98,
      "chip": "ym2612"
    },
    {
      "channel": 0,
      "note": 66,
      "start": 75.8278,
      "duration": 0.0336,
      "velocity": 99,
      "chip": "ym2612"
    },
    {
      "channel": 3,
      "note": 63,
      "start": 75.8289,
      "duration": 0.03,
      "velocity": 98,
      "chip": "ym2612"
    },
    {
      "channel": 0,
      "note": 63,
      "start": 75.8616,
      "duration": 0.0339,
      "velocity": 99,
      "chip": "ym2612"
    },
    {
      "channel": 3,
      "note": 66,
      "start": 75.8627,
      "duration": 0.0625,
      "velocity": 98,
      "chip": "ym2612"
    },
    {
      "channel": 0,
      "note": 63,
      "start": 75.8957,
      "duration": 0.0329,
      "velocity": 99,
      "chip": "ym2612"
    },
    {
      "channel": 0,
      "note": 58,
      "start": 75.929,
      "duration": 0.033,
      "velocity": 99,
      "chip": "ym2612"
    },
    {
      "channel": 3,
      "note": 63,
      "start": 75.9305,
      "duration": 0.0293,
      "velocity": 98,
      "chip": "ym2612"
    },
    {
      "channel": 0,
      "note": 61,
      "start": 75.9624,
      "duration": 0.019,
      "velocity": 99,
      "chip": "ym2612"
    },
    {
      "channel": 3,
      "note": 58,
      "start": 75.9642,
      "duration": 0.015,
      "velocity": 98,
      "chip": "ym2612"
    },
    {
      "channel": 0,
      "note": 62,
      "start": 75.9817,
      "duration": 0.0179,
      "velocity": 99,
      "chip": "ym2612"
    },
    {
      "channel": 3,
      "note": 61,
      "start": 75.9828,
      "duration": 0.0133,
      "velocity": 98,
      "chip": "ym2612"
    },
    {
      "channel": 0,
      "note": 63,
      "start": 75.9999,
      "duration": 0.0172,
      "velocity": 99,
      "chip": "ym2612"
    },
    {
      "channel": 3,
      "note": 62,
      "start": 76.0014,
      "duration": 0.0136,
      "velocity": 98,
      "chip": "ym2612"
    },
    {
      "channel": 0,
      "note": 61,
      "start": 76.0339,
      "duration": 0.0168,
      "velocity": 99,
      "chip": "ym2612"
    },
    {
      "channel": 3,
      "note": 63,
      "start": 76.0351,
      "duration": 0.0137,
      "velocity": 98,
      "chip": "ym2612"
    },
    {
      "channel": 0,
      "note": 62,
      "start": 76.051,
      "duration": 0.018,
      "velocity": 99,
      "chip": "ym2612"
    },
    {
      "channel": 3,
      "note": 61,
      "start": 76.0521,
      "duration": 0.0132,
      "velocity": 98,
      "chip": "ym2612"
    },
    {
      "channel": 0,
      "note": 63,
      "start": 76.0693,
      "duration": 0.017,
      "velocity": 99,
      "chip": "ym2612"
    },
    {
      "channel": 3,
      "note": 62,
      "start": 76.0705,
      "duration": 0.0139,
      "velocity": 98,
      "chip": "ym2612"
    },
    {
      "channel": 0,
      "note": 66,
      "start": 76.1023,
      "duration": 0.0336,
      "velocity": 99,
      "chip": "ym2612"
    },
    {
      "channel": 3,
      "note": 63,
      "start": 76.1035,
      "duration": 0.03,
      "velocity": 98,
      "chip": "ym2612"
    },
    {
      "channel": 0,
      "note": 63,
      "start": 76.1362,
      "duration": 0.0339,
      "velocity": 99,
      "chip": "ym2612"
    },
    {
      "channel": 3,
      "note": 66,
      "start": 76.1373,
      "duration": 0.0629,
      "velocity": 98,
      "chip": "ym2612"
    },
    {
      "channel": 0,
      "note": 63,
      "start": 76.1703,
      "duration": 0.0337,
      "velocity": 99,
      "chip": "ym2612"
    },
    {
      "channel": 0,
      "note": 58,
      "start": 76.2043,
      "duration": 0.0332,
      "velocity": 99,
      "chip": "ym2612"
    },
    {
      "channel": 3,
      "note": 63,
      "start": 76.2054,
      "duration": 0.0294,
      "velocity": 98,
      "chip": "ym2612"
    },
    {
      "channel": 0,
      "note": 61,
      "start": 76.2379,
      "duration": 0.0186,
      "velocity": 99,
      "chip": "ym2612"
    },
    {
      "channel": 3,
      "note": 58,
      "start": 76.2393,
      "duration": 0.0154,
      "velocity": 98,
      "chip": "ym2612"
    },
    {
      "channel": 0,
      "note": 62,
      "start": 76.2568,
      "duration": 0.0176,
      "velocity": 99,
      "chip": "ym2612"
    },
    {
      "channel": 3,
      "note": 61,
      "start": 76.2579,
      "duration": 0.0134,
      "velocity": 98,
      "chip": "ym2612"
    },
    {
      "channel": 0,
      "note": 63,
      "start": 76.2747,
      "duration": 0.0173,
      "velocity": 99,
      "chip": "ym2612"
    },
    {
      "channel": 3,
      "note": 62,
      "start": 76.2758,
      "duration": 0.014,
      "velocity": 98,
      "chip": "ym2612"
    },
    {
      "channel": 0,
      "note": 61,
      "start": 76.3087,
      "duration": 0.0172,
      "velocity": 99,
      "chip": "ym2612"
    },
    {
      "channel": 3,
      "note": 63,
      "start": 76.3099,
      "duration": 0.0141,
      "velocity": 98,
      "chip": "ym2612"
    },
    {
      "channel": 0,
      "note": 62,
      "start": 76.3262,
      "duration": 0.0177,
      "velocity": 99,
      "chip": "ym2612"
    },
    {
      "channel": 3,
      "note": 61,
      "start": 76.3273,
      "duration": 0.0139,
      "velocity": 98,
      "chip": "ym2612"
    },
    {
      "channel": 0,
      "note": 63,
      "start": 76.3441,
      "duration": 0.0169,
      "velocity": 99,
      "chip": "ym2612"
    },
    {
      "channel": 3,
      "note": 62,
      "start": 76.3452,
      "duration": 0.0139,
      "velocity": 98,
      "chip": "ym2612"
    },
    {
      "channel": 0,
      "note": 66,
      "start": 76.3773,
      "duration": 0.0347,
      "velocity": 99,
      "chip": "ym2612"
    },
    {
      "channel": 3,
      "note": 63,
      "start": 76.3788,
      "duration": 0.0297,
      "velocity": 98,
      "chip": "ym2612"
    },
    {
      "channel": 0,
      "note": 63,
      "start": 76.4123,
      "duration": 0.0338,
      "velocity": 99,
      "chip": "ym2612"
    },
    {
      "channel": 3,
      "note": 66,
      "start": 76.4135,
      "duration": 0.0633,
      "velocity": 98,
      "chip": "ym2612"
    },
    {
      "channel": 0,
      "note": 63,
      "start": 76.4463,
      "duration": 0.0339,
      "velocity": 99,
      "chip": "ym2612"
    },
    {
      "channel": 0,
      "note": 58,
      "start": 76.4805,
      "duration": 0.0334,
      "velocity": 99,
      "chip": "ym2612"
    },
    {
      "channel": 3,
      "note": 63,
      "start": 76.4817,
      "duration": 0.0294,
      "velocity": 98,
      "chip": "ym2612"
    },
    {
      "channel": 0,
      "note": 61,
      "start": 76.5143,
      "duration": 0.0266,
      "velocity": 99,
      "chip": "ym2612"
    },
    {
      "channel": 1,
      "note": 99,
      "start": 76.5174,
      "duration": 0.028,
      "velocity": 100,
      "chip": "ym2612"
    },
    {
      "channel": 2,
      "note": 73,
      "start": 76.52,
      "duration": 0.0185,
      "velocity": 98,
      "chip": "ym2612"
    },
    {
      "channel": 3,
      "note": 58,
      "start": 76.5209,
      "duration": 0.0179,
      "velocity": 98,
      "chip": "ym2612"
    },
    {
      "channel": 4,
      "note": 87,
      "start": 76.5291,
      "duration": 0.022,
      "velocity": 99,
      "chip": "ym2612"
    },
    {
      "channel": 0,
      "note": 62,
      "start": 76.5412,
      "duration": 0.0174,
      "velocity": 99,
      "chip": "ym2612"
    },
    {
      "channel": 2,
      "note": 74,
      "start": 76.5419,
      "duration": 0.0135,
      "velocity": 98,
      "chip": "ym2612"
    },
    {
      "channel": 3,
      "note": 61,
      "start": 76.5425,
      "duration": 0.0132,
      "velocity": 98,
      "chip": "ym2612"
    },
    {
      "channel": 0,
      "note": 63,
      "start": 76.5588,
      "duration": 0.0187,
      "velocity": 99,
      "chip": "ym2612"
    },
    {
      "channel": 1,
      "note": 99,
      "start": 76.5594,
      "duration": 0.004,
      "velocity": 100,
      "chip": "ym2612"
    },
    {
      "channel": 2,
      "note": 75,
      "start": 76.5599,
      "duration": 0.0147,
      "velocity": 98,
      "chip": "ym2612"
    },
    {
      "channel": 3,
      "note": 62,
      "start": 76.5605,
      "duration": 0.0144,
      "velocity": 98,
      "chip": "ym2612"
    },
    {
      "channel": 4,
      "note": 99,
      "start": 76.5644,
      "duration": 0.0055,
      "velocity": 99,
      "chip": "ym2612"
    },
    {
      "channel": 1,
      "note": 99,
      "start": 76.5781,
      "duration": 0.0033,
      "velocity": 100,
      "chip": "ym2612"
    },
    {
      "channel": 4,
      "note": 99,
      "start": 76.5824,
      "duration": 0.0049,
      "velocity": 99,
      "chip": "ym2612"
    },
    {
      "channel": 0,
      "note": 61,
      "start": 76.5941,
      "duration": 0.0184,
      "velocity": 99,
      "chip": "ym2612"
    },
    {
      "channel": 1,
      "note": 99,
      "start": 76.5946,
      "duration": 0.0227,
      "velocity": 100,
      "chip": "ym2612"
    },
    {
      "channel": 2,
      "note": 73,
      "start": 76.5952,
      "duration": 0.0141,
      "velocity": 98,
      "chip": "ym2612"
    },
    {
      "channel": 3,
      "note": 63,
      "start": 76.5958,
      "duration": 0.0138,
      "velocity": 98,
      "chip": "ym2612"
    },
    {
      "channel": 4,
      "note": 99,
      "start": 76.5997,
      "duration": 0.0239,
      "velocity": 99,
      "chip": "ym2612"
    },
    {
      "channel": 0,
      "note": 62,
      "start": 76.6128,
      "duration": 0.0183,
      "velocity": 99,
      "chip": "ym2612"
    },
    {
      "channel": 2,
      "note": 74,
      "start": 76.6139,
      "duration": 0.014,
      "velocity": 98,
      "chip": "ym2612"
    },
    {
      "channel": 3,
      "note": 61,
      "start": 76.6145,
      "duration": 0.0137,
      "velocity": 98,
      "chip": "ym2612"
    },
    {
      "channel": 0,
      "note": 63,
      "start": 76.6313,
      "duration": 0.0175,
      "velocity": 99,
      "chip": "ym2612"
    },
    {
      "channel": 1,
      "note": 99,
      "start": 76.6318,
      "duration": 0.004,
      "velocity": 100,
      "chip": "ym2612"
    },
    {
      "channel": 2,
      "note": 75,
      "start": 76.6324,
      "duration": 0.0139,
      "velocity": 98,
      "chip": "ym2612"
    },
    {
      "channel": 3,
      "note": 62,
      "start": 76.633,
      "duration": 0.0137,
      "velocity": 98,
      "chip": "ym2612"
    },
    {
      "channel": 4,
      "note": 99,
      "start": 76.6369,
      "duration": 0.0051,
      "velocity": 99,
      "chip": "ym2612"
    },
    {
      "channel": 1,
      "note": 99,
      "start": 76.6493,
      "duration": 0.0034,
      "velocity": 100,
      "chip": "ym2612"
    },
    {
      "channel": 4,
      "note": 99,
      "start": 76.6538,
      "duration": 0.0052,
      "velocity": 99,
      "chip": "ym2612"
    },
    {
      "channel": 0,
      "note": 66,
      "start": 76.6666,
      "duration": 0.0349,
      "velocity": 99,
      "chip": "ym2612"
    },
    {
      "channel": 1,
      "note": 99,
      "start": 76.6671,
      "duration": 0.0205,
      "velocity": 100,
      "chip": "ym2612"
    },
    {
      "channel": 2,
      "note": 78,
      "start": 76.6677,
      "duration": 0.03,
      "velocity": 98,
      "chip": "ym2612"
    },
    {
      "channel": 3,
      "note": 63,
      "start": 76.6683,
      "duration": 0.0297,
      "velocity": 98,
      "chip": "ym2612"
    },
    {
      "channel": 4,
      "note": 99,
      "start": 76.6726,
      "duration": 0.0208,
      "velocity": 99,
      "chip": "ym2612"
    },
    {
      "channel": 0,
      "note": 63,
      "start": 76.7018,
      "duration": 0.0346,
      "velocity": 99,
      "chip": "ym2612"
    },
    {
      "channel": 1,
      "note": 99,
      "start": 76.7023,
      "duration": 0.004,
      "velocity": 100,
      "chip": "ym2612"
    },
    {
      "channel": 2,
      "note": 75,
      "start": 76.7029,
      "duration": 0.0651,
      "velocity": 98,
      "chip": "ym2612"
    },
    {
      "channel": 3,
      "note": 66,
      "start": 76.7035,
      "duration": 0.0649,
      "velocity": 98,
      "chip": "ym2612"
    },
    {
      "channel": 4,
      "note": 99,
      "start": 76.7078,
      "duration": 0.0054,
      "velocity": 99,
      "chip": "ym2612"
    },
    {
      "channel": 1,
      "note": 99,
      "start": 76.7206,
      "duration": 0.0029,
      "velocity": 100,
      "chip": "ym2612"
    },
    {
      "channel": 4,
      "note": 99,
      "start": 76.7246,
      "duration": 0.0049,
      "velocity": 99,
      "chip": "ym2612"
    },
    {
      "channel": 0,
      "note": 63,
      "start": 76.7366,
      "duration": 0.0344,
      "velocity": 99,
      "chip": "ym2612"
    },
    {
      "channel": 1,
      "note": 99,
      "start": 76.7371,
      "duration": 0.0206,
      "velocity": 100,
      "chip": "ym2612"
    },
    {
      "channel": 4,
      "note": 99,
      "start": 76.7415,
      "duration": 0.022,
      "velocity": 99,
      "chip": "ym2612"
    },
    {
      "channel": 0,
      "note": 58,
      "start": 76.7712,
      "duration": 0.0349,
      "velocity": 99,
      "chip": "ym2612"
    },
    {
      "channel": 1,
      "note": 99,
      "start": 76.7717,
      "duration": 0.0039,
      "velocity": 100,
      "chip": "ym2612"
    },
    {
      "channel": 2,
      "note": 70,
      "start": 76.7723,
      "duration": 0.031,
      "velocity": 98,
      "chip": "ym2612"
    },
    {
      "channel": 3,
      "note": 63,
      "start": 76.7729,
      "duration": 0.0307,
      "velocity": 98,
      "chip": "ym2612"
    },
    {
      "channel": 4,
      "note": 99,
      "start": 76.7768,
      "duration": 0.0049,
      "velocity": 99,
      "chip": "ym2612"
    },
    {
      "channel": 1,
      "note": 99,
      "start": 76.7891,
      "duration": 0.0029,
      "velocity": 100,
      "chip": "ym2612"
    },
    {
      "channel": 4,
      "note": 99,
      "start": 76.7931,
      "duration": 0.0029,
      "velocity": 99,
      "chip": "ym2612"
    },
    {
      "channel": 0,
      "note": 61,
      "start": 76.8065,
      "duration": 0.0242,
      "velocity": 99,
      "chip": "ym2612"
    },
    {
      "channel": 1,
      "note": 99,
      "start": 76.8091,
      "duration": 0.0261,
      "velocity": 100,
      "chip": "ym2612"
    },
    {
      "channel": 2,
      "note": 73,
      "start": 76.8099,
      "duration": 0.0183,
      "velocity": 98,
      "chip": "ym2612"
    },
    {
      "channel": 3,
      "note": 58,
      "start": 76.8111,
      "duration": 0.0175,
      "velocity": 98,
      "chip": "ym2612"
    },
    {
      "channel": 4,
      "note": 99,
      "start": 76.819,
      "duration": 0.0219,
      "velocity": 99,
      "chip": "ym2612"
    },
    {
      "channel": 0,
      "note": 62,
      "start": 76.8309,
      "duration": 0.0183,
      "velocity": 99,
      "chip": "ym2612"
    },
    {
      "channel": 2,
      "note": 74,
      "start": 76.8317,
      "duration": 0.0139,
      "velocity": 98,
      "chip": "ym2612"
    },
    {
      "channel": 3,
      "note": 61,
      "start": 76.8323,
      "duration": 0.0136,
      "velocity": 98,
      "chip": "ym2612"
    },
    {
      "channel": 0,
      "note": 63,
      "start": 76.8495,
      "duration": 0.018,
      "velocity": 99,
      "chip": "ym2612"
    },
    {
      "channel": 1,
      "note": 99,
      "start": 76.8503,
      "duration": 0.004,
      "velocity": 100,
      "chip": "ym2612"
    },
    {
      "channel": 2,
      "note": 75,
      "start": 76.8509,
      "duration": 0.0144,
      "velocity": 98,
      "chip": "ym2612"
    },
    {
      "channel": 3,
      "note": 62,
      "start": 76.8515,
      "duration": 0.0141,
      "velocity": 98,
      "chip": "ym2612"
    },
    {
      "channel": 4,
      "note": 99,
      "start": 76.8555,
      "duration": 0.0054,
      "velocity": 99,
      "chip": "ym2612"
    },
    {
      "channel": 1,
      "note": 99,
      "start": 76.8681,
      "duration": 0.0032,
      "velocity": 100,
      "chip": "ym2612"
    },
    {
      "channel": 4,
      "note": 99,
      "start": 76.8724,
      "duration": 0.005,
      "velocity": 99,
      "chip": "ym2612"
    },
    {
      "channel": 0,
      "note": 61,
      "start": 76.8841,
      "duration": 0.019,
      "velocity": 99,
      "chip": "ym2612"
    },
    {
      "channel": 1,
      "note": 99,
      "start": 76.8846,
      "duration": 0.0234,
      "velocity": 100,
      "chip": "ym2612"
    },
    {
      "channel": 2,
      "note": 73,
      "start": 76.8851,
      "duration": 0.0144,
      "velocity": 98,
      "chip": "ym2612"
    },
    {
      "channel": 3,
      "note": 63,
      "start": 76.8858,
      "duration": 0.0141,
      "velocity": 98,
      "chip": "ym2612"
    },
    {
      "channel": 4,
      "note": 99,
      "start": 76.8896,
      "duration": 0.0241,
      "velocity": 99,
      "chip": "ym2612"
    },
    {
      "channel": 0,
      "note": 62,
      "start": 76.9034,
      "duration": 0.0179,
      "velocity": 99,
      "chip": "ym2612"
    },
    {
      "channel": 2,
      "note": 74,
      "start": 76.9041,
      "duration": 0.014,
      "velocity": 98,
      "chip": "ym2612"
    },
    {
      "channel": 3,
      "note": 61,
      "start": 76.9047,
      "duration": 0.0137,
      "velocity": 98,
      "chip": "ym2612"
    },
    {
      "channel": 0,
      "note": 63,
      "start": 76.9215,
      "duration": 0.0179,
      "velocity": 99,
      "chip": "ym2612"
    },
    {
      "channel": 1,
      "note": 99,
      "start": 76.922,
      "duration": 0.004,
      "velocity": 100,
      "chip": "ym2612"
    },
    {
      "channel": 2,
      "note": 75,
      "start": 76.9225,
      "duration": 0.0138,
      "velocity": 98,
      "chip": "ym2612"
    },
    {
      "channel": 3,
      "note": 62,
      "start": 76.9232,
      "duration": 0.0135,
      "velocity": 98,
      "chip": "ym2612"
    },
    {
      "channel": 4,
      "note": 99,
      "start": 76.9271,
      "duration": 0.005,
      "velocity": 99,
      "chip": "ym2612"
    },
    {
      "channel": 1,
      "note": 99,
      "start": 76.94,
      "duration": 0.0032,
      "velocity": 100,
      "chip": "ym2612"
    },
    {
      "channel": 4,
      "note": 99,
      "start": 76.9446,
      "duration": 0.0054,
      "velocity": 99,
      "chip": "ym2612"
    },
    {
      "channel": 0,
      "note": 66,
      "start": 76.957,
      "duration": 0.0349,
      "velocity": 99,
      "chip": "ym2612"
    },
    {
      "channel": 1,
      "note": 99,
      "start": 76.9575,
      "duration": 0.0202,
      "velocity": 100,
      "chip": "ym2612"
    },
    {
      "channel": 2,
      "note": 78,
      "start": 76.958,
      "duration": 0.03,
      "velocity": 98,
      "chip": "ym2612"
    },
    {
      "channel": 3,
      "note": 63,
      "start": 76.9587,
      "duration": 0.0296,
      "velocity": 98,
      "chip": "ym2612"
    },
    {
      "channel": 4,
      "note": 99,
      "start": 76.9625,
      "duration": 0.0208,
      "velocity": 99,
      "chip": "ym2612"
    },
    {
      "channel": 0,
      "note": 63,
      "start": 76.9921,
      "duration": 0.0342,
      "velocity": 99,
      "chip": "ym2612"
    },
    {
      "channel": 1,
      "note": 99,
      "start": 76.9927,
      "duration": 0.0044,
      "velocity": 100,
      "chip": "ym2612"
    },
    {
      "channel": 2,
      "note": 75,
      "start": 76.9933,
      "duration": 0.0644,
      "velocity": 98,
      "chip": "ym2612"
    },
    {
      "channel": 3,
      "note": 66,
      "start": 76.9943,
      "duration": 0.0638,
      "velocity": 98,
      "chip": "ym2612"
    },
    {
      "channel": 4,
      "note": 99,
      "start": 76.9982,
      "duration": 0.0052,
      "velocity": 99,
      "chip": "ym2612"
    },
    {
      "channel": 1,
      "note": 99,
      "start": 77.0105,
      "duration": 0.0029,
      "velocity": 100,
      "chip": "ym2612"
    },
    {
      "channel": 4,
      "note": 99,
      "start": 77.0145,
      "duration": 0.005,
      "velocity": 99,
      "chip": "ym2612"
    },
    {
      "channel": 0,
      "note": 63,
      "start": 77.0265,
      "duration": 0.0341,
      "velocity": 99,
      "chip": "ym2612"
    },
    {
      "channel": 1,
      "note": 99,
      "start": 77.0271,
      "duration": 0.0206,
      "velocity": 100,
      "chip": "ym2612"
    },
    {
      "channel": 4,
      "note": 99,
      "start": 77.0315,
      "duration": 0.0219,
      "velocity": 99,
      "chip": "ym2612"
    },
    {
      "channel": 0,
      "note": 58,
      "start": 77.0609,
      "duration": 0.035,
      "velocity": 99,
      "chip": "ym2612"
    },
    {
      "channel": 1,
      "note": 99,
      "start": 77.0615,
      "duration": 0.0039,
      "velocity": 100,
      "chip": "ym2612"
    },
    {
      "channel": 2,
      "note": 70,
      "start": 77.062,
      "duration": 0.0318,
      "velocity": 98,
      "chip": "ym2612"
    },
    {
      "channel": 3,
      "note": 63,
      "start": 77.0626,
      "duration": 0.0315,
      "velocity": 98,
      "chip": "ym2612"
    },
    {
      "channel": 4,
      "note": 99,
      "start": 77.0665,
      "duration": 0.0049,
      "velocity": 99,
      "chip": "ym2612"
    },
    {
      "channel": 1,
      "note": 99,
      "start": 77.0796,
      "duration": 0.0032,
      "velocity": 100,
      "chip": "ym2612"
    },
    {
      "channel": 4,
      "note": 99,
      "start": 77.084,
      "duration": 0.0028,
      "velocity": 99,
      "chip": "ym2612"
    },
    {
      "channel": 0,
      "note": 61,
      "start": 77.0963,
      "duration": 0.0239,
      "velocity": 99,
      "chip": "ym2612"
    },
    {
      "channel": 1,
      "note": 99,
      "start": 77.099,
      "duration": 0.0258,
      "velocity": 100,
      "chip": "ym2612"
    },
    {
      "channel": 2,
      "note": 73,
      "start": 77.0996,
      "duration": 0.0184,
      "velocity": 98,
      "chip": "ym2612"
    },
    {
      "channel": 3,
      "note": 58,
      "start": 77.1005,
      "duration": 0.0178,
      "velocity": 98,
      "chip": "ym2612"
    },
    {
      "channel": 4,
      "note": 99,
      "start": 77.1089,
      "duration": 0.0218,
      "velocity": 99,
      "chip": "ym2612"
    },
    {
      "channel": 0,
      "note": 62,
      "start": 77.1204,
      "duration": 0.019,
      "velocity": 99,
      "chip": "ym2612"
    },
    {
      "channel": 2,
      "note": 74,
      "start": 77.1212,
      "duration": 0.0141,
      "velocity": 98,
      "chip": "ym2612"
    },
    {
      "channel": 3,
      "note": 61,
      "start": 77.1218,
      "duration": 0.0139,
      "velocity": 98,
      "chip": "ym2612"
    },
    {
      "channel": 0,
      "note": 63,
      "start": 77.1397,
      "duration": 0.0176,
      "velocity": 99,
      "chip": "ym2612"
    },
    {
      "channel": 1,
      "note": 99,
      "start": 77.1402,
      "duration": 0.0044,
      "velocity": 100,
      "chip": "ym2612"
    },
    {
      "channel": 2,
      "note": 75,
      "start": 77.1407,
      "duration": 0.0143,
      "velocity": 98,
      "chip": "ym2612"
    },
    {
      "channel": 3,
      "note": 62,
      "start": 77.1414,
      "duration": 0.014,
      "velocity": 98,
      "chip": "ym2612"
    },
    {
      "channel": 4,
      "note": 99,
      "start": 77.1457,
      "duration": 0.005,
      "velocity": 99,
      "chip": "ym2612"
    },
    {
      "channel": 1,
      "note": 99,
      "start": 77.1578,
      "duration": 0.0033,
      "velocity": 100,
      "chip": "ym2612"
    },
    {
      "channel": 4,
      "note": 99,
      "start": 77.1622,
      "duration": 0.0049,
      "velocity": 99,
      "chip": "ym2612"
    },
    {
      "channel": 0,
      "note": 61,
      "start": 77.1739,
      "duration": 0.0186,
      "velocity": 99,
      "chip": "ym2612"
    },
    {
      "channel": 1,
      "note": 99,
      "start": 77.1745,
      "duration": 0.0226,
      "velocity": 100,
      "chip": "ym2612"
    },
    {
      "channel": 2,
      "note": 73,
      "start": 77.175,
      "duration": 0.0146,
      "velocity": 98,
      "chip": "ym2612"
    },
    {
      "channel": 3,
      "note": 63,
      "start": 77.1756,
      "duration": 0.0143,
      "velocity": 98,
      "chip": "ym2612"
    },
    {
      "channel": 4,
      "note": 99,
      "start": 77.1798,
      "duration": 0.0229,
      "velocity": 99,
      "chip": "ym2612"
    },
    {
      "channel": 0,
      "note": 62,
      "start": 77.1928,
      "duration": 0.0174,
      "velocity": 99,
      "chip": "ym2612"
    },
    {
      "channel": 2,
      "note": 74,
      "start": 77.1935,
      "duration": 0.0135,
      "velocity": 98,
      "chip": "ym2612"
    },
    {
      "channel": 3,
      "note": 61,
      "start": 77.1941,
      "duration": 0.0132,
      "velocity": 98,
      "chip": "ym2612"
    },
    {
      "channel": 0,
      "note": 63,
      "start": 77.2104,
      "duration": 0.0185,
      "velocity": 99,
      "chip": "ym2612"
    },
    {
      "channel": 1,
      "note": 99,
      "start": 77.211,
      "duration": 0.004,
      "velocity": 100,
      "chip": "ym2612"
    },
    {
      "channel": 2,
      "note": 75,
      "start": 77.2115,
      "duration": 0.0143,
      "velocity": 98,
      "chip": "ym2612"
    },
    {
      "channel": 3,
      "note": 62,
      "start": 77.2121,
      "duration": 0.014,
      "velocity": 98,
      "chip": "ym2612"
    },
    {
      "channel": 4,
      "note": 99,
      "start": 77.216,
      "duration": 0.005,
      "velocity": 99,
      "chip": "ym2612"
    },
    {
      "channel": 1,
      "note": 99,
      "start": 77.2295,
      "duration": 0.0037,
      "velocity": 100,
      "chip": "ym2612"
    },
    {
      "channel": 4,
      "note": 99,
      "start": 77.2343,
      "duration": 0.0051,
      "velocity": 99,
      "chip": "ym2612"
    },
    {
      "channel": 0,
      "note": 66,
      "start": 77.2461,
      "duration": 0.0353,
      "velocity": 99,
      "chip": "ym2612"
    },
    {
      "channel": 1,
      "note": 99,
      "start": 77.2466,
      "duration": 0.0201,
      "velocity": 100,
      "chip": "ym2612"
    },
    {
      "channel": 2,
      "note": 78,
      "start": 77.2471,
      "duration": 0.0306,
      "velocity": 98,
      "chip": "ym2612"
    },
    {
      "channel": 3,
      "note": 63,
      "start": 77.2478,
      "duration": 0.0303,
      "velocity": 98,
      "chip": "ym2612"
    },
    {
      "channel": 4,
      "note": 99,
      "start": 77.2516,
      "duration": 0.0212,
      "velocity": 99,
      "chip": "ym2612"
    },
    {
      "channel": 0,
      "note": 63,
      "start": 77.2817,
      "duration": 0.0343,
      "velocity": 99,
      "chip": "ym2612"
    },
    {
      "channel": 1,
      "note": 99,
      "start": 77.2822,
      "duration": 0.0041,
      "velocity": 100,
      "chip": "ym2612"
    },
    {
      "channel": 2,
      "note": 75,
      "start": 77.2827,
      "duration": 0.064,
      "velocity": 98,
      "chip": "ym2612"
    },
    {
      "channel": 3,
      "note": 66,
      "start": 77.2834,
      "duration": 0.0638,
      "velocity": 98,
      "chip": "ym2612"
    },
    {
      "channel": 4,
      "note": 99,
      "start": 77.2874,
      "duration": 0.0051,
      "velocity": 99,
      "chip": "ym2612"
    },
    {
      "channel": 1,
      "note": 99,
      "start": 77.2997,
      "duration": 0.0028,
      "velocity": 100,
      "chip": "ym2612"
    },
    {
      "channel": 4,
      "note": 99,
      "start": 77.3037,
      "duration": 0.005,
      "velocity": 99,
      "chip": "ym2612"
    },
    {
      "channel": 0,
      "note": 63,
      "start": 77.3162,
      "duration": 0.0335,
      "velocity": 99,
      "chip": "ym2612"
    },
    {
      "channel": 1,
      "note": 99,
      "start": 77.317,
      "duration": 0.0196,
      "velocity": 100,
      "chip": "ym2612"
    },
    {
      "channel": 4,
      "note": 99,
      "start": 77.3215,
      "duration": 0.0209,
      "velocity": 99,
      "chip": "ym2612"
    },
    {
      "channel": 0,
      "note": 58,
      "start": 77.35,
      "duration": 0.0351,
      "velocity": 99,
      "chip": "ym2612"
    },
    {
      "channel": 1,
      "note": 99,
      "start": 77.3505,
      "duration": 0.004,
      "velocity": 100,
      "chip": "ym2612"
    },
    {
      "channel": 2,
      "note": 82,
      "start": 77.351,
      "duration": 0.0319,
      "velocity": 98,
      "chip": "ym2612"
    },
    {
      "channel": 3,
      "note": 63,
      "start": 77.3517,
      "duration": 0.0316,
      "velocity": 98,
      "chip": "ym2612"
    },
    {
      "channel": 4,
      "note": 99,
      "start": 77.3556,
      "duration": 0.0052,
      "velocity": 99,
      "chip": "ym2612"
    },
    {
      "channel": 1,
      "note": 99,
      "start": 77.3693,
      "duration": 0.0031,
      "velocity": 100,
      "chip": "ym2612"
    },
    {
      "channel": 4,
      "note": 99,
      "start": 77.3735,
      "duration": 0.0025,
      "velocity": 99,
      "chip": "ym2612"
    },
    {
      "channel": 0,
      "note": 51,
      "start": 77.3876,
      "duration": 2.4118,
      "velocity": 103,
      "chip": "ym2612"
    },
    {
      "channel": 1,
      "note": 99,
      "start": 77.3904,
      "duration": 1.0805,
      "velocity": 99,
      "chip": "ym2612"
    },
    {
      "channel": 2,
      "note": 75,
      "start": 77.393,
      "duration": 0.0376,
      "velocity": 98,
      "chip": "ym2612"
    },
    {
      "channel": 3,
      "note": 58,
      "start": 77.3971,
      "duration": 0.0338,
      "velocity": 98,
      "chip": "ym2612"
    },
    {
      "channel": 4,
      "note": 99,
      "start": 77.4342,
      "duration": 1.0733,
      "velocity": 99,
      "chip": "ym2612"
    },
    {
      "channel": 0,
      "note": 50,
      "start": 79.8152,
      "duration": 2.6514,
      "velocity": 103,
      "chip": "ym2612"
    },
    {
      "channel": 1,
      "note": 82,
      "start": 79.8175,
      "duration": 3.0025,
      "velocity": 95,
      "chip": "ym2612"
    },
    {
      "channel": 2,
      "note": 66,
      "start": 79.82,
      "duration": 3.0004,
      "velocity": 95,
      "chip": "ym2612"
    },
    {
      "channel": 3,
      "note": 63,
      "start": 79.8233,
      "duration": 2.9974,
      "velocity": 95,
      "chip": "ym2612"
    },
    {
      "channel": 4,
      "note": 99,
      "start": 79.8598,
      "duration": 3.1357,
      "velocity": 95,
      "chip": "ym2612"
    },
    {
      "channel": 0,
      "note": 49,
      "start": 82.4921,
      "duration": 0.3277,
      "velocity": 103,
      "chip": "ym2612"
    },
    {
      "channel": 0,
      "note": 42,
      "start": 82.8452,
      "duration": 1.8433,
      "velocity": 103,
      "chip": "ym2612"
    },
    {
      "channel": 1,
      "note": 94,
      "start": 82.8479,
      "duration": 0.4856,
      "velocity": 99,
      "chip": "ym2612"
    },
    {
      "channel": 2,
      "note": 78,
      "start": 82.8503,
      "duration": 0.4835,
      "velocity": 99,
      "chip": "ym2612"
    },
    {
      "channel": 3,
      "note": 74,
      "start": 82.8535,
      "duration": 0.1416,
      "velocity": 95,
      "chip": "ym2612"
    },
    {
      "channel": 3,
      "note": 54,
      "start": 83.0237,
      "duration": 0.3105,
      "velocity": 95,
      "chip": "ym2612"
    },
    {
      "channel": 4,
      "note": 82,
      "start": 83.027,
      "duration": 0.6467,
      "velocity": 99,
      "chip": "ym2612"
    },
    {
      "channel": 1,
      "note": 94,
      "start": 83.362,
      "duration": 0.3105,
      "velocity": 99,
      "chip": "ym2612"
    },
    {
      "channel": 2,
      "note": 78,
      "start": 83.3625,
      "duration": 0.3102,
      "velocity": 99,
      "chip": "ym2612"
    },
    {
      "channel": 3,
      "note": 61,
      "start": 83.3631,
      "duration": 0.3102,
      "velocity": 95,
      "chip": "ym2612"
    },
    {
      "channel": 1,
      "note": 92,
      "start": 83.7008,
      "duration": 0.6492,
      "velocity": 99,
      "chip": "ym2612"
    },
    {
      "channel": 2,
      "note": 77,
      "start": 83.7013,
      "duration": 1.6654,
      "velocity": 99,
      "chip": "ym2612"
    },
    {
      "channel": 3,
      "note": 66,
      "start": 83.702,
      "duration": 1.3262,
      "velocity": 95,
      "chip": "ym2612"
    },
    {
      "channel": 4,
      "note": 94,
      "start": 83.7026,
      "duration": 0.3093,
      "velocity": 99,
      "chip": "ym2612"
    },
    {
      "channel": 4,
      "note": 94,
      "start": 84.0409,
      "duration": 0.649,
      "velocity": 99,
      "chip": "ym2612"
    },
    {
      "channel": 1,
      "note": 89,
      "start": 84.3784,
      "duration": 0.3104,
      "velocity": 99,
      "chip": "ym2612"
    },
    {
      "channel": 0,
      "note": 41,
      "start": 84.717,
      "duration": 0.6492,
      "velocity": 103,
      "chip": "ym2612"
    },
    {
      "channel": 1,
      "note": 90,
      "start": 84.7175,
      "duration": 0.3101,
      "velocity": 99,
      "chip": "ym2612"
    },
    {
      "channel": 4,
      "note": 92,
      "start": 84.7187,
      "duration": 0.3098,
      "velocity": 99,
      "chip": "ym2612"
    },
    {
      "channel": 1,
      "note": 85,
      "start": 85.056,
      "duration": 0.3105,
      "velocity": 99,
      "chip": "ym2612"
    },
    {
      "channel": 3,
      "note": 73,
      "start": 85.057,
      "duration": 0.3101,
      "velocity": 95,
      "chip": "ym2612"
    },
    {
      "channel": 4,
      "note": 89,
      "start": 85.0577,
      "duration": 0.3098,
      "velocity": 99,
      "chip": "ym2612"
    },
    {
      "channel": 0,
      "note": 39,
      "start": 85.3946,
      "duration": 2.0045,
      "velocity": 103,
      "chip": "ym2612"
    },
    {
      "channel": 1,
      "note": 94,
      "start": 85.3952,
      "duration": 0.6489,
      "velocity": 99,
      "chip": "ym2612"
    },
    {
      "channel": 2,
      "note": 78,
      "start": 85.3957,
      "duration": 0.6487,
      "velocity": 99,
      "chip": "ym2612"
    },
    {
      "channel": 3,
      "note": 53,
      "start": 85.3963,
      "duration": 0.3094,
      "velocity": 95,
      "chip": "ym2612"
    },
    {
      "channel": 4,
      "note": 90,
      "start": 85.397,
      "duration": 0.3091,
      "velocity": 99,
      "chip": "ym2612"
    },
    {
      "channel": 3,
      "note": 51,
      "start": 85.7342,
      "duration": 0.3105,
      "velocity": 95,
      "chip": "ym2612"
    },
    {
      "channel": 4,
      "note": 85,
      "start": 85.7349,
      "duration": 0.6489,
      "velocity": 99,
      "chip": "ym2612"
    },
    {
      "channel": 1,
      "note": 94,
      "start": 86.0725,
      "duration": 0.3103,
      "velocity": 99,
      "chip": "ym2612"
    },
    {
      "channel": 2,
      "note": 78,
      "start": 86.0731,
      "duration": 0.3101,
      "velocity": 99,
      "chip": "ym2612"
    },
    {
      "channel": 3,
      "note": 58,
      "start": 86.0737,
      "duration": 0.3098,
      "velocity": 95,
      "chip": "ym2612"
    },
    {
      "channel": 1,
      "note": 92,
      "start": 86.4113,
      "duration": 0.6496,
      "velocity": 99,
      "chip": "ym2612"
    },
    {
      "channel": 2,
      "note": 77,
      "start": 86.4119,
      "duration": 1.6654,
      "velocity": 99,
      "chip": "ym2612"
    },
    {
      "channel": 3,
      "note": 63,
      "start": 86.4125,
      "duration": 1.3262,
      "velocity": 95,
      "chip": "ym2612"
    },
    {
      "channel": 4,
      "note": 94,
      "start": 86.4132,
      "duration": 0.3094,
      "velocity": 99,
      "chip": "ym2612"
    },
    {
      "channel": 4,
      "note": 94,
      "start": 86.751,
      "duration": 0.6493,
      "velocity": 99,
      "chip": "ym2612"
    },
    {
      "channel": 1,
      "note": 89,
      "start": 87.089,
      "duration": 0.3105,
      "velocity": 99,
      "chip": "ym2612"
    },
    {
      "channel": 0,
      "note": 49,
      "start": 87.4275,
      "duration": 0.6492,
      "velocity": 103,
      "chip": "ym2612"
    },
    {
      "channel": 1,
      "note": 90,
      "start": 87.4284,
      "duration": 0.3097,
      "velocity": 99,
      "chip": "ym2612"
    },
    {
      "channel": 4,
      "note": 92,
      "start": 87.4297,
      "duration": 0.3095,
      "velocity": 99,
      "chip": "ym2612"
    },
    {
      "channel": 1,
      "note": 97,
      "start": 87.7666,
      "duration": 0.3105,
      "velocity": 99,
      "chip": "ym2612"
    },
    {
      "channel": 3,
      "note": 70,
      "start": 87.7675,
      "duration": 0.3103,
      "velocity": 95,
      "chip": "ym2612"
    },
    {
      "channel": 4,
      "note": 89,
      "start": 87.7681,
      "duration": 0.31,
      "velocity": 99,
      "chip": "ym2612"
    },
    {
      "channel": 0,
      "note": 47,
      "start": 88.1052,
      "duration": 2.0045,
      "velocity": 103,
      "chip": "ym2612"
    },
    {
      "channel": 1,
      "note": 94,
      "start": 88.1057,
      "duration": 0.6489,
      "velocity": 99,
      "chip": "ym2612"
    },
    {
      "channel": 2,
      "note": 78,
      "start": 88.1063,
      "duration": 0.6487,
      "velocity": 99,
      "chip": "ym2612"
    },
    {
      "channel": 3,
      "note": 49,
      "start": 88.1069,
      "duration": 0.3094,
      "velocity": 95,
      "chip": "ym2612"
    },
    {
      "channel": 4,
      "note": 90,
      "start": 88.1076,
      "duration": 0.3091,
      "velocity": 99,
      "chip": "ym2612"
    },
    {
      "channel": 3,
      "note": 47,
      "start": 88.4449,
      "duration": 0.3104,
      "velocity": 95,
      "chip": "ym2612"
    },
    {
      "channel": 4,
      "note": 97,
      "start": 88.4459,
      "duration": 0.6485,
      "velocity": 99,
      "chip": "ym2612"
    },
    {
      "channel": 1,
      "note": 94,
      "start": 88.7831,
      "duration": 0.3103,
      "velocity": 99,
      "chip": "ym2612"
    },
    {
      "channel": 2,
      "note": 78,
      "start": 88.7836,
      "duration": 0.3101,
      "velocity": 99,
      "chip": "ym2612"
    },
    {
      "channel": 3,
      "note": 54,
      "start": 88.7843,
      "duration": 0.3098,
      "velocity": 95,
      "chip": "ym2612"
    },
    {
      "channel": 1,
      "note": 92,
      "start": 89.1219,
      "duration": 0.6492,
      "velocity": 99,
      "chip": "ym2612"
    },
    {
      "channel": 2,
      "note": 73,
      "start": 89.1225,
      "duration": 1.6654,
      "velocity": 99,
      "chip": "ym2612"
    },
    {
      "channel": 3,
      "note": 59,
      "start": 89.1231,
      "duration": 1.6652,
      "velocity": 95,
      "chip": "ym2612"
    },
    {
      "channel": 4,
      "note": 94,
      "start": 89.1238,
      "duration": 0.3093,
      "velocity": 99,
      "chip": "ym2612"
    },
    {
      "channel": 4,
      "note": 94,
      "start": 89.4616,
      "duration": 0.6493,
      "velocity": 99,
      "chip": "ym2612"
    },
    {
      "channel": 1,
      "note": 89,
      "start": 89.7995,
      "duration": 0.3104,
      "velocity": 99,
      "chip": "ym2612"
    },
    {
      "channel": 0,
      "note": 46,
      "start": 90.1381,
      "duration": 0.6493,
      "velocity": 103,
      "chip": "ym2612"
    },
    {
      "channel": 1,
      "note": 90,
      "start": 90.1386,
      "duration": 0.3104,
      "velocity": 99,
      "chip": "ym2612"
    },
    {
      "channel": 4,
      "note": 92,
      "start": 90.1399,
      "duration": 0.3101,
      "velocity": 99,
      "chip": "ym2612"
    },
    {
      "channel": 1,
      "note": 85,
      "start": 90.4771,
      "duration": 0.3105,
      "velocity": 99,
      "chip": "ym2612"
    },
    {
      "channel": 4,
      "note": 89,
      "start": 90.4784,
      "duration": 0.3103,
      "velocity": 99,
      "chip": "ym2612"
    },
    {
      "channel": 0,
      "note": 44,
      "start": 90.8161,
      "duration": 2.6817,
      "velocity": 103,
      "chip": "ym2612"
    },
    {
      "channel": 1,
      "note": 87,
      "start": 90.8167,
      "duration": 2.6815,
      "velocity": 99,
      "chip": "ym2612"
    },
    {
      "channel": 2,
      "note": 71,
      "start": 90.8172,
      "duration": 2.6813,
      "velocity": 99,
      "chip": "ym2612"
    },
    {
      "channel": 3,
      "note": 66,
      "start": 90.8179,
      "duration": 0.309,
      "velocity": 95,
      "chip": "ym2612"
    },
    {
      "channel": 4,
      "note": 90,
      "start": 90.8186,
      "duration": 0.3087,
      "velocity": 99,
      "chip": "ym2612"
    },
    {
      "channel": 3,
      "note": 68,
      "start": 91.1554,
      "duration": 0.3106,
      "velocity": 95,
      "chip": "ym2612"
    },
    {
      "channel": 4,
      "note": 85,
      "start": 91.156,
      "duration": 2.6817,
      "velocity": 99,
      "chip": "ym2612"
    },
    {
      "channel": 3,
      "note": 56,
      "start": 91.4943,
      "duration": 0.3103,
      "velocity": 95,
      "chip": "ym2612"
    },
    {
      "channel": 3,
      "note": 59,
      "start": 91.8335,
      "duration": 0.3099,
      "velocity": 95,
      "chip": "ym2612"
    },
    {
      "channel": 3,
      "note": 63,
      "start": 92.1719,
      "duration": 0.3103,
      "velocity": 95,
      "chip": "ym2612"
    },
    {
      "channel": 3,
      "note": 68,
      "start": 92.5107,
      "duration": 0.3103,
      "velocity": 95,
      "chip": "ym2612"
    },
    {
      "channel": 3,
      "note": 71,
      "start": 92.8496,
      "duration": 0.3105,
      "velocity": 95,
      "chip": "ym2612"
    },
    {
      "channel": 3,
      "note": 75,
      "start": 93.1884,
      "duration": 0.3105,
      "velocity": 95,
      "chip": "ym2612"
    },
    {
      "channel": 0,
      "note": 49,
      "start": 93.5263,
      "duration": 0.988,
      "velocity": 103,
      "chip": "ym2612"
    },
    {
      "channel": 1,
      "note": 89,
      "start": 93.5269,
      "duration": 0.6489,
      "velocity": 99,
      "chip": "ym2612"
    },
    {
      "channel": 2,
      "note": 68,
      "start": 93.5274,
      "duration": 0.6487,
      "velocity": 99,
      "chip": "ym2612"
    },
    {
      "channel": 3,
      "note": 80,
      "start": 93.528,
      "duration": 0.3094,
      "velocity": 95,
      "chip": "ym2612"
    },
    {
      "channel": 3,
      "note": 61,
      "start": 93.8659,
      "duration": 0.3105,
      "velocity": 95,
      "chip": "ym2612"
    },
    {
      "channel": 4,
      "note": 87,
      "start": 93.8666,
      "duration": 0.6489,
      "velocity": 99,
      "chip": "ym2612"
    },
    {
      "channel": 1,
      "note": 90,
      "start": 94.2042,
      "duration": 0.3104,
      "velocity": 99,
      "chip": "ym2612"
    },
    {
      "channel": 2,
      "note": 71,
      "start": 94.2048,
      "duration": 0.3101,
      "velocity": 99,
      "chip": "ym2612"
    },
    {
      "channel": 3,
      "note": 68,
      "start": 94.2054,
      "duration": 0.6489,
      "velocity": 95,
      "chip": "ym2612"
    },
    {
      "channel": 0,
      "note": 46,
      "start": 94.5428,
      "duration": 1.6657,
      "velocity": 103,
      "chip": "ym2612"
    },
    {
      "channel": 1,
      "note": 92,
      "start": 94.5433,
      "duration": 0.6489,
      "velocity": 99,
      "chip": "ym2612"
    },
    {
      "channel": 2,
      "note": 70,
      "start": 94.5439,
      "duration": 0.6487,
      "velocity": 99,
      "chip": "ym2612"
    },
    {
      "channel": 4,
      "note": 89,
      "start": 94.5448,
      "duration": 0.3099,
      "velocity": 99,
      "chip": "ym2612"
    },
    {
      "channel": 3,
      "note": 73,
      "start": 94.8824,
      "duration": 0.6493,
      "velocity": 95,
      "chip": "ym2612"
    },
    {
      "channel": 4,
      "note": 90,
      "start": 94.883,
      "duration": 0.649,
      "velocity": 99,
      "chip": "ym2612"
    },
    {
      "channel": 1,
      "note": 94,
      "start": 95.2208,
      "duration": 0.5362,
      "velocity": 99,
      "chip": "ym2612"
    },
    {
      "channel": 2,
      "note": 65,
      "start": 95.2217,
      "duration": 0.3096,
      "velocity": 99,
      "chip": "ym2612"
    },
    {
      "channel": 2,
      "note": 68,
      "start": 95.5598,
      "duration": 0.6493,
      "velocity": 99,
      "chip": "ym2612"
    },
    {
      "channel": 3,
      "note": 70,
      "start": 95.5604,
      "duration": 0.649,
      "velocity": 95,
      "chip": "ym2612"
    },
    {
      "channel": 4,
      "note": 92,
      "start": 95.561,
      "duration": 0.5355,
      "velocity": 99,
      "chip": "ym2612"
    },
    {
      "channel": 1,
      "note": 90,
      "start": 95.7854,
      "duration": 0.1975,
      "velocity": 99,
      "chip": "ym2612"
    },
    {
      "channel": 1,
      "note": 89,
      "start": 96.0113,
      "duration": 0.1975,
      "velocity": 99,
      "chip": "ym2612"
    },
    {
      "channel": 4,
      "note": 94,
      "start": 96.1251,
      "duration": 0.1979,
      "velocity": 99,
      "chip": "ym2612"
    },
    {
      "channel": 0,
      "note": 51,
      "start": 96.2369,
      "duration": 1.3268,
      "velocity": 103,
      "chip": "ym2612"
    },
    {
      "channel": 1,
      "note": 90,
      "start": 96.2375,
      "duration": 0.3101,
      "velocity": 99,
      "chip": "ym2612"
    },
    {
      "channel": 2,
      "note": 70,
      "start": 96.2381,
      "duration": 0.3097,
      "velocity": 99,
      "chip": "ym2612"
    },
    {
      "channel": 3,
      "note": 65,
      "start": 96.2388,
      "duration": 0.3094,
      "velocity": 95,
      "chip": "ym2612"
    },
    {
      "channel": 4,
      "note": 90,
      "start": 96.3509,
      "duration": 0.1976,
      "velocity": 99,
      "chip": "ym2612"
    },
    {
      "channel": 1,
      "note": 89,
      "start": 96.576,
      "duration": 0.6492,
      "velocity": 99,
      "chip": "ym2612"
    },
    {
      "channel": 2,
      "note": 68,
      "start": 96.5765,
      "duration": 0.649,
      "velocity": 99,
      "chip": "ym2612"
    },
    {
      "channel": 3,
      "note": 63,
      "start": 96.5771,
      "duration": 0.3097,
      "velocity": 95,
      "chip": "ym2612"
    },
    {
      "channel": 4,
      "note": 89,
      "start": 96.5778,
      "duration": 0.3094,
      "velocity": 99,
      "chip": "ym2612"
    },
    {
      "channel": 3,
      "note": 70,
      "start": 96.9154,
      "duration": 0.6492,
      "velocity": 95,
      "chip": "ym2612"
    },
    {
      "channel": 4,
      "note": 90,
      "start": 96.9161,
      "duration": 0.6489,
      "velocity": 99,
      "chip": "ym2612"
    },
    {
      "channel": 1,
      "note": 90,
      "start": 97.2536,
      "duration": 0.3104,
      "velocity": 99,
      "chip": "ym2612"
    },
    {
      "channel": 2,
      "note": 70,
      "start": 97.2541,
      "duration": 1.6654,
      "velocity": 99,
      "chip": "ym2612"
    },
    {
      "channel": 0,
      "note": 49,
      "start": 97.5922,
      "duration": 1.3268,
      "velocity": 103,
      "chip": "ym2612"
    },
    {
      "channel": 1,
      "note": 97,
      "start": 97.5927,
      "duration": 0.31,
      "velocity": 99,
      "chip": "ym2612"
    },
    {
      "channel": 3,
      "note": 75,
      "start": 97.5936,
      "duration": 1.3263,
      "velocity": 95,
      "chip": "ym2612"
    },
    {
      "channel": 4,
      "note": 89,
      "start": 97.5943,
      "duration": 0.3094,
      "velocity": 99,
      "chip": "ym2612"
    },
    {
      "channel": 1,
      "note": 94,
      "start": 97.9312,
      "duration": 0.3107,
      "velocity": 99,
      "chip": "ym2612"
    },
    {
      "channel": 4,
      "note": 90,
      "start": 97.9324,
      "duration": 0.3105,
      "velocity": 99,
      "chip": "ym2612"
    },
    {
      "channel": 1,
      "note": 90,
      "start": 98.2701,
      "duration": 0.3104,
      "velocity": 99,
      "chip": "ym2612"
    },
    {
      "channel": 4,
      "note": 97,
      "start": 98.2713,
      "duration": 0.3101,
      "velocity": 99,
      "chip": "ym2612"
    },
    {
      "channel": 1,
      "note": 92,
      "start": 98.6093,
      "duration": 2.3429,
      "velocity": 99,
      "chip": "ym2612"
    },
    {
      "channel": 4,
      "note": 94,
      "start": 98.6105,
      "duration": 0.3098,
      "velocity": 99,
      "chip": "ym2612"
    },
    {
      "channel": 0,
      "note": 47,
      "start": 98.9475,
      "duration": 1.3268,
      "velocity": 103,
      "chip": "ym2612"
    },
    {
      "channel": 2,
      "note": 75,
      "start": 98.9483,
      "duration": 2.0043,
      "velocity": 99,
      "chip": "ym2612"
    },
    {
      "channel": 3,
      "note": 66,
      "start": 98.9489,
      "duration": 0.3099,
      "velocity": 95,
      "chip": "ym2612"
    },
    {
      "channel": 4,
      "note": 90,
      "start": 98.9495,
      "duration": 2.3423,
      "velocity": 99,
      "chip": "ym2612"
    },
    {
      "channel": 3,
      "note": 59,
      "start": 99.2871,
      "duration": 0.3104,
      "velocity": 95,
      "chip": "ym2612"
    },
    {
      "channel": 3,
      "note": 66,
      "start": 99.6261,
      "duration": 0.3102,
      "velocity": 95,
      "chip": "ym2612"
    },
    {
      "channel": 3,
      "note": 71,
      "start": 99.9648,
      "duration": 0.3104,
      "velocity": 95,
      "chip": "ym2612"
    },
    {
      "channel": 0,
      "note": 44,
      "start": 100.3027,
      "duration": 1.3271,
      "velocity": 103,
      "chip": "ym2612"
    },
    {
      "channel": 3,
      "note": 75,
      "start": 100.3039,
      "duration": 0.31,
      "velocity": 95,
      "chip": "ym2612"
    },
    {
      "channel": 3,
      "note": 78,
      "start": 100.6424,
      "duration": 0.3105,
      "velocity": 95,
      "chip": "ym2612"
    },
    {
      "channel": 1,
      "note": 94,
      "start": 100.9807,
      "duration": 0.3104,
      "velocity": 99,
      "chip": "ym2612"
    },
    {
      "channel": 2,
      "note": 75,
      "start": 100.9812,
      "duration": 0.6492,
      "velocity": 99,
      "chip": "ym2612"
    },
    {
      "channel": 3,
      "note": 75,
      "start": 100.982,
      "duration": 0.6488,
      "velocity": 95,
      "chip": "ym2612"
    },
    {
      "channel": 1,
      "note": 92,
      "start": 101.3195,
      "duration": 0.3107,
      "velocity": 99,
      "chip": "ym2612"
    },
    {
      "channel": 4,
      "note": 92,
      "start": 101.3206,
      "duration": 0.3105,
      "velocity": 99,
      "chip": "ym2612"
    },
    {
      "channel": 0,
      "note": 49,
      "start": 101.658,
      "duration": 2.6821,
      "velocity": 103,
      "chip": "ym2612"
    },
    {
      "channel": 1,
      "note": 94,
      "start": 101.6586,
      "duration": 0.3101,
      "velocity": 99,
      "chip": "ym2612"
    },
    {
      "channel": 2,
      "note": 77,
      "start": 101.6591,
      "duration": 1.3263,
      "velocity": 99,
      "chip": "ym2612"
    },
    {
      "channel": 3,
      "note": 71,
      "start": 101.6598,
      "duration": 0.3095,
      "velocity": 95,
      "chip": "ym2612"
    },
    {
      "channel": 4,
      "note": 94,
      "start": 101.6604,
      "duration": 0.3091,
      "velocity": 99,
      "chip": "ym2612"
    },
    {
      "channel": 1,
      "note": 92,
      "start": 101.9974,
      "duration": 2.343,
      "velocity": 99,
      "chip": "ym2612"
    },
    {
      "channel": 3,
      "note": 49,
      "start": 101.9983,
      "duration": 0.3097,
      "velocity": 95,
      "chip": "ym2612"
    },
    {
      "channel": 4,
      "note": 92,
      "start": 101.999,
      "duration": 0.3094,
      "velocity": 99,
      "chip": "ym2612"
    },
    {
      "channel": 3,
      "note": 56,
      "start": 102.3365,
      "duration": 0.3105,
      "velocity": 95,
      "chip": "ym2612"
    },
    {
      "channel": 4,
      "note": 94,
      "start": 102.3372,
      "duration": 2.3429,
      "velocity": 99,
      "chip": "ym2612"
    },
    {
      "channel": 3,
      "note": 61,
      "start": 102.6754,
      "duration": 0.3104,
      "velocity": 95,
      "chip": "ym2612"
    },
    {
      "channel": 3,
      "note": 65,
      "start": 103.0147,
      "duration": 0.3099,
      "velocity": 95,
      "chip": "ym2612"
    },
    {
      "channel": 2,
      "note": 65,
      "start": 103.3527,
      "duration": 0.3104,
      "velocity": 99,
      "chip": "ym2612"
    },
    {
      "channel": 3,
      "note": 68,
      "start": 103.3533,
      "duration": 0.3101,
      "velocity": 95,
      "chip": "ym2612"
    },
    {
      "channel": 2,
      "note": 66,
      "start": 103.6915,
      "duration": 0.3104,
      "velocity": 99,
      "chip": "ym2612"
    },
    {
      "channel": 3,
      "note": 49,
      "start": 103.6921,
      "duration": 0.3101,
      "velocity": 95,
      "chip": "ym2612"
    },
    {
      "channel": 2,
      "note": 68,
      "start": 104.0303,
      "duration": 0.3105,
      "velocity": 99,
      "chip": "ym2612"
    },
    {
      "channel": 3,
      "note": 51,
      "start": 104.031,
      "duration": 0.3102,
      "velocity": 95,
      "chip": "ym2612"
    },
    {
      "channel": 1,
      "note": 94,
      "start": 104.3689,
      "duration": 0.6492,
      "velocity": 99,
      "chip": "ym2612"
    },
    {
      "channel": 2,
      "note": 73,
      "start": 104.3695,
      "duration": 0.6489,
      "velocity": 99,
      "chip": "ym2612"
    },
    {
      "channel": 3,
      "note": 53,
      "start": 104.3702,
      "duration": 0.3095,
      "velocity": 95,
      "chip": "ym2612"
    },
    {
      "channel": 3,
      "note": 78,
      "start": 104.7082,
      "duration": 0.3105,
      "velocity": 95,
      "chip": "ym2612"
    },
    {
      "channel": 4,
      "note": 92,
      "start": 104.7089,
      "duration": 0.649,
      "velocity": 99,
      "chip": "ym2612"
    },
    {
      "channel": 0,
      "note": 54,
      "start": 105.0462,
      "duration": 0.3104,
      "velocity": 103,
      "chip": "ym2612"
    },
    {
      "channel": 1,
      "note": 94,
      "start": 105.0468,
      "duration": 0.3101,
      "velocity": 99,
      "chip": "ym2612"
    },
    {
      "channel": 2,
      "note": 73,
      "start": 105.0473,
      "duration": 0.3099,
      "velocity": 99,
      "chip": "ym2612"
    },
    {
      "channel": 3,
      "note": 73,
      "start": 105.0479,
      "duration": 0.3096,
      "velocity": 95,
      "chip": "ym2612"
    },
    {
      "channel": 0,
      "note": 53,
      "start": 105.3851,
      "duration": 1.6656,
      "velocity": 103,
      "chip": "ym2612"
    },
    {
      "channel": 1,
      "note": 92,
      "start": 105.3856,
      "duration": 0.6489,
      "velocity": 99,
      "chip": "ym2612"
    },
    {
      "channel": 2,
      "note": 73,
      "start": 105.3861,
      "duration": 1.6652,
      "velocity": 99,
      "chip": "ym2612"
    },
    {
      "channel": 3,
      "note": 66,
      "start": 105.3868,
      "duration": 1.6649,
      "velocity": 95,
      "chip": "ym2612"
    },
    {
      "channel": 4,
      "note": 94,
      "start": 105.3875,
      "duration": 0.309,
      "velocity": 99,
      "chip": "ym2612"
    },
    {
      "channel": 4,
      "note": 94,
      "start": 105.725,
      "duration": 0.6493,
      "velocity": 99,
      "chip": "ym2612"
    },
    {
      "channel": 1,
      "note": 89,
      "start": 106.063,
      "duration": 0.3103,
      "velocity": 99,
      "chip": "ym2612"
    },
    {
      "channel": 1,
      "note": 90,
      "start": 106.4019,
      "duration": 0.3103,
      "velocity": 99,
      "chip": "ym2612"
    },
    {
      "channel": 4,
      "note": 92,
      "start": 106.4034,
      "duration": 0.3097,
      "velocity": 99,
      "chip": "ym2612"
    },
    {
      "channel": 1,
      "note": 85,
      "start": 106.7406,
      "duration": 0.3104,
      "velocity": 99,
      "chip": "ym2612"
    },
    {
      "channel": 4,
      "note": 89,
      "start": 106.7418,
      "duration": 0.3103,
      "velocity": 99,
      "chip": "ym2612"
    },
    {
      "channel": 1,
      "note": 94,
      "start": 107.0795,
      "duration": 0.6492,
      "velocity": 99,
      "chip": "ym2612"
    },
    {
      "channel": 2,
      "note": 75,
      "start": 107.08,
      "duration": 0.6489,
      "velocity": 99,
      "chip": "ym2612"
    },
    {
      "channel": 3,
      "note": 65,
      "start": 107.0807,
      "duration": 0.3096,
      "velocity": 95,
      "chip": "ym2612"
    },
    {
      "channel": 4,
      "note": 90,
      "start": 107.0814,
      "duration": 0.3093,
      "velocity": 99,
      "chip": "ym2612"
    },
    {
      "channel": 3,
      "note": 75,
      "start": 107.4188,
      "duration": 0.3106,
      "velocity": 95,
      "chip": "ym2612"
    },
    {
      "channel": 4,
      "note": 85,
      "start": 107.4196,
      "duration": 0.6489,
      "velocity": 99,
      "chip": "ym2612"
    },
    {
      "channel": 0,
      "note": 51,
      "start": 107.7568,
      "duration": 0.3104,
      "velocity": 103,
      "chip": "ym2612"
    },
    {
      "channel": 1,
      "note": 94,
      "start": 107.7574,
      "duration": 0.3101,
      "velocity": 99,
      "chip": "ym2612"
    },
    {
      "channel": 2,
      "note": 75,
      "start": 107.7579,
      "duration": 0.3099,
      "velocity": 99,
      "chip": "ym2612"
    },
    {
      "channel": 3,
      "note": 70,
      "start": 107.7585,
      "duration": 0.3095,
      "velocity": 95,
      "chip": "ym2612"
    },
    {
      "channel": 0,
      "note": 49,
      "start": 108.0956,
      "duration": 1.6657,
      "velocity": 103,
      "chip": "ym2612"
    },
    {
      "channel": 1,
      "note": 92,
      "start": 108.0962,
      "duration": 0.6489,
      "velocity": 99,
      "chip": "ym2612"
    },
    {
      "channel": 2,
      "note": 77,
      "start": 108.0967,
      "duration": 1.6652,
      "velocity": 99,
      "chip": "ym2612"
    },
    {
      "channel": 3,
      "note": 63,
      "start": 108.0973,
      "duration": 1.6649,
      "velocity": 95,
      "chip": "ym2612"
    },
    {
      "channel": 4,
      "note": 94,
      "start": 108.098,
      "duration": 0.309,
      "velocity": 99,
      "chip": "ym2612"
    },
    {
      "channel": 4,
      "note": 94,
      "start": 108.4356,
      "duration": 0.6493,
      "velocity": 99,
      "chip": "ym2612"
    },
    {
      "channel": 1,
      "note": 89,
      "start": 108.7736,
      "duration": 0.3103,
      "velocity": 99,
      "chip": "ym2612"
    },
    {
      "channel": 1,
      "note": 90,
      "start": 109.1124,
      "duration": 0.3107,
      "velocity": 99,
      "chip": "ym2612"
    },
    {
      "channel": 4,
      "note": 92,
      "start": 109.1136,
      "duration": 0.3104,
      "velocity": 99,
      "chip": "ym2612"
    },
    {
      "channel": 1,
      "note": 97,
      "start": 109.4512,
      "duration": 0.3104,
      "velocity": 99,
      "chip": "ym2612"
    },
    {
      "channel": 4,
      "note": 89,
      "start": 109.4524,
      "duration": 0.3102,
      "velocity": 99,
      "chip": "ym2612"
    },
    {
      "channel": 1,
      "note": 94,
      "start": 109.7904,
      "duration": 0.6489,
      "velocity": 99,
      "chip": "ym2612"
    },
    {
      "channel": 2,
      "note": 75,
      "start": 109.7909,
      "duration": 0.6488,
      "velocity": 99,
      "chip": "ym2612"
    },
    {
      "channel": 3,
      "note": 61,
      "start": 109.7915,
      "duration": 0.3093,
      "velocity": 95,
      "chip": "ym2612"
    },
    {
      "channel": 4,
      "note": 90,
      "start": 109.7922,
      "duration": 0.309,
      "velocity": 99,
      "chip": "ym2612"
    },
    {
      "channel": 3,
      "note": 71,
      "start": 110.1294,
      "duration": 0.3107,
      "velocity": 95,
      "chip": "ym2612"
    },
    {
      "channel": 4,
      "note": 97,
      "start": 110.13,
      "duration": 0.6489,
      "velocity": 99,
      "chip": "ym2612"
    },
    {
      "channel": 0,
      "note": 47,
      "start": 110.4674,
      "duration": 0.3104,
      "velocity": 103,
      "chip": "ym2612"
    },
    {
      "channel": 1,
      "note": 94,
      "start": 110.4679,
      "duration": 0.3101,
      "velocity": 99,
      "chip": "ym2612"
    },
    {
      "channel": 2,
      "note": 75,
      "start": 110.4684,
      "duration": 0.3099,
      "velocity": 99,
      "chip": "ym2612"
    },
    {
      "channel": 3,
      "note": 66,
      "start": 110.4691,
      "duration": 0.3095,
      "velocity": 95,
      "chip": "ym2612"
    },
    {
      "channel": 0,
      "note": 46,
      "start": 110.8062,
      "duration": 1.6657,
      "velocity": 103,
      "chip": "ym2612"
    },
    {
      "channel": 1,
      "note": 92,
      "start": 110.8069,
      "duration": 0.6488,
      "velocity": 99,
      "chip": "ym2612"
    },
    {
      "channel": 2,
      "note": 73,
      "start": 110.8074,
      "duration": 1.6651,
      "velocity": 99,
      "chip": "ym2612"
    },
    {
      "channel": 3,
      "note": 59,
      "start": 110.8084,
      "duration": 1.6644,
      "velocity": 95,
      "chip": "ym2612"
    },
    {
      "channel": 4,
      "note": 94,
      "start": 110.8091,
      "duration": 0.3085,
      "velocity": 99,
      "chip": "ym2612"
    },
    {
      "channel": 4,
      "note": 94,
      "start": 111.1461,
      "duration": 0.6493,
      "velocity": 99,
      "chip": "ym2612"
    },
    {
      "channel": 1,
      "note": 89,
      "start": 111.4841,
      "duration": 0.3104,
      "velocity": 99,
      "chip": "ym2612"
    },
    {
      "channel": 1,
      "note": 90,
      "start": 111.8229,
      "duration": 0.3104,
      "velocity": 99,
      "chip": "ym2612"
    },
    {
      "channel": 4,
      "note": 92,
      "start": 111.8241,
      "duration": 0.31,
      "velocity": 99,
      "chip": "ym2612"
    },
    {
      "channel": 1,
      "note": 85,
      "start": 112.1617,
      "duration": 0.3105,
      "velocity": 99,
      "chip": "ym2612"
    },
    {
      "channel": 4,
      "note": 89,
      "start": 112.163,
      "duration": 0.3102,
      "velocity": 99,
      "chip": "ym2612"
    },
    {
      "channel": 0,
      "note": 44,
      "start": 112.5003,
      "duration": 1.3268,
      "velocity": 103,
      "chip": "ym2612"
    },
    {
      "channel": 1,
      "note": 87,
      "start": 112.5009,
      "duration": 2.6819,
      "velocity": 99,
      "chip": "ym2612"
    },
    {
      "channel": 2,
      "note": 71,
      "start": 112.5014,
      "duration": 2.6816,
      "velocity": 99,
      "chip": "ym2612"
    },
    {
      "channel": 3,
      "note": 58,
      "start": 112.502,
      "duration": 0.3096,
      "velocity": 95,
      "chip": "ym2612"
    },
    {
      "channel": 4,
      "note": 90,
      "start": 112.5027,
      "duration": 0.3093,
      "velocity": 99,
      "chip": "ym2612"
    },
    {
      "channel": 3,
      "note": 68,
      "start": 112.8399,
      "duration": 0.3104,
      "velocity": 95,
      "chip": "ym2612"
    },
    {
      "channel": 4,
      "note": 85,
      "start": 112.8406,
      "duration": 2.6818,
      "velocity": 99,
      "chip": "ym2612"
    },
    {
      "channel": 3,
      "note": 56,
      "start": 113.1792,
      "duration": 0.31,
      "velocity": 95,
      "chip": "ym2612"
    },
    {
      "channel": 3,
      "note": 59,
      "start": 113.5176,
      "duration": 0.3105,
      "velocity": 95,
      "chip": "ym2612"
    },
    {
      "channel": 0,
      "note": 56,
      "start": 113.8556,
      "duration": 1.3268,
      "velocity": 103,
      "chip": "ym2612"
    },
    {
      "channel": 3,
      "note": 63,
      "start": 113.8568,
      "duration": 0.31,
      "velocity": 95,
      "chip": "ym2612"
    },
    {
      "channel": 3,
      "note": 68,
      "start": 114.1957,
      "duration": 0.31,
      "velocity": 95,
      "chip": "ym2612"
    },
    {
      "channel": 3,
      "note": 71,
      "start": 114.5341,
      "duration": 0.3104,
      "velocity": 95,
      "chip": "ym2612"
    },
    {
      "channel": 3,
      "note": 75,
      "start": 114.8729,
      "duration": 0.3105,
      "velocity": 95,
      "chip": "ym2612"
    },
    {
      "channel": 0,
      "note": 49,
      "start": 115.2109,
      "duration": 0.6492,
      "velocity": 103,
      "chip": "ym2612"
    },
    {
      "channel": 1,
      "note": 89,
      "start": 115.2115,
      "duration": 0.6489,
      "velocity": 99,
      "chip": "ym2612"
    },
    {
      "channel": 2,
      "note": 68,
      "start": 115.212,
      "duration": 0.9875,
      "velocity": 99,
      "chip": "ym2612"
    },
    {
      "channel": 3,
      "note": 80,
      "start": 115.2127,
      "duration": 0.3093,
      "velocity": 95,
      "chip": "ym2612"
    },
    {
      "channel": 3,
      "note": 73,
      "start": 115.5505,
      "duration": 0.3105,
      "velocity": 95,
      "chip": "ym2612"
    },
    {
      "channel": 4,
      "note": 87,
      "start": 115.5512,
      "duration": 0.649,
      "velocity": 99,
      "chip": "ym2612"
    },
    {
      "channel": 0,
      "note": 47,
      "start": 115.8885,
      "duration": 0.3104,
      "velocity": 103,
      "chip": "ym2612"
    },
    {
      "channel": 1,
      "note": 90,
      "start": 115.8891,
      "duration": 0.3101,
      "velocity": 99,
      "chip": "ym2612"
    },
    {
      "channel": 3,
      "note": 68,
      "start": 115.89,
      "duration": 0.3098,
      "velocity": 95,
      "chip": "ym2612"
    },
    {
      "channel": 0,
      "note": 46,
      "start": 116.2273,
      "duration": 1.6657,
      "velocity": 103,
      "chip": "ym2612"
    },
    {
      "channel": 1,
      "note": 92,
      "start": 116.2279,
      "duration": 0.6489,
      "velocity": 99,
      "chip": "ym2612"
    },
    {
      "channel": 2,
      "note": 73,
      "start": 116.2284,
      "duration": 1.6652,
      "velocity": 99,
      "chip": "ym2612"
    },
    {
      "channel": 3,
      "note": 59,
      "start": 116.229,
      "duration": 1.6649,
      "velocity": 95,
      "chip": "ym2612"
    },
    {
      "channel": 4,
      "note": 89,
      "start": 116.2297,
      "duration": 0.309,
      "velocity": 99,
      "chip": "ym2612"
    },
    {
      "channel": 4,
      "note": 90,
      "start": 116.5672,
      "duration": 0.6497,
      "velocity": 99,
      "chip": "ym2612"
    },
    {
      "channel": 1,
      "note": 94,
      "start": 116.9052,
      "duration": 0.5363,
      "velocity": 99,
      "chip": "ym2612"
    },
    {
      "channel": 4,
      "note": 92,
      "start": 117.245,
      "duration": 0.5362,
      "velocity": 99,
      "chip": "ym2612"
    },
    {
      "channel": 1,
      "note": 90,
      "start": 117.4699,
      "duration": 0.1976,
      "velocity": 99,
      "chip": "ym2612"
    },
    {
      "channel": 1,
      "note": 89,
      "start": 117.6959,
      "duration": 0.1975,
      "velocity": 99,
      "chip": "ym2612"
    },
    {
      "channel": 4,
      "note": 94,
      "start": 117.8097,
      "duration": 0.1973,
      "velocity": 99,
      "chip": "ym2612"
    },
    {
      "channel": 0,
      "note": 47,
      "start": 117.9215,
      "duration": 0.6492,
      "velocity": 103,
      "chip": "ym2612"
    },
    {
      "channel": 1,
      "note": 90,
      "start": 117.922,
      "duration": 0.3101,
      "velocity": 99,
      "chip": "ym2612"
    },
    {
      "channel": 2,
      "note": 71,
      "start": 117.9225,
      "duration": 0.9875,
      "velocity": 99,
      "chip": "ym2612"
    },
    {
      "channel": 3,
      "note": 58,
      "start": 117.9232,
      "duration": 0.3095,
      "velocity": 95,
      "chip": "ym2612"
    },
    {
      "channel": 4,
      "note": 90,
      "start": 118.0357,
      "duration": 0.1974,
      "velocity": 99,
      "chip": "ym2612"
    },
    {
      "channel": 1,
      "note": 89,
      "start": 118.2605,
      "duration": 0.3104,
      "velocity": 99,
      "chip": "ym2612"
    },
    {
      "channel": 3,
      "note": 75,
      "start": 118.2614,
      "duration": 0.3102,
      "velocity": 95,
      "chip": "ym2612"
    },
    {
      "channel": 4,
      "note": 89,
      "start": 118.262,
      "duration": 0.3099,
      "velocity": 99,
      "chip": "ym2612"
    },
    {
      "channel": 0,
      "note": 46,
      "start": 118.5991,
      "duration": 0.3104,
      "velocity": 103,
      "chip": "ym2612"
    },
    {
      "channel": 1,
      "note": 90,
      "start": 118.5996,
      "duration": 0.3101,
      "velocity": 99,
      "chip": "ym2612"
    },
    {
      "channel": 3,
      "note": 71,
      "start": 118.6006,
      "duration": 0.3098,
      "velocity": 95,
      "chip": "ym2612"
    },
    {
      "channel": 4,
      "note": 90,
      "start": 118.6016,
      "duration": 0.3091,
      "velocity": 99,
      "chip": "ym2612"
    },
    {
      "channel": 0,
      "note": 44,
      "start": 118.9379,
      "duration": 0.988,
      "velocity": 103,
      "chip": "ym2612"
    },
    {
      "channel": 1,
      "note": 102,
      "start": 118.9384,
      "duration": 0.649,
      "velocity": 99,
      "chip": "ym2612"
    },
    {
      "channel": 2,
      "note": 75,
      "start": 118.939,
      "duration": 1.6654,
      "velocity": 99,
      "chip": "ym2612"
    },
    {
      "channel": 3,
      "note": 63,
      "start": 118.9396,
      "duration": 1.6652,
      "velocity": 95,
      "chip": "ym2612"
    },
    {
      "channel": 4,
      "note": 89,
      "start": 118.9403,
      "duration": 0.3091,
      "velocity": 99,
      "chip": "ym2612"
    },
    {
      "channel": 4,
      "note": 90,
      "start": 119.2778,
      "duration": 0.6493,
      "velocity": 99,
      "chip": "ym2612"
    },
    {
      "channel": 1,
      "note": 101,
      "start": 119.6158,
      "duration": 0.5363,
      "velocity": 99,
      "chip": "ym2612"
    },
    {
      "channel": 0,
      "note": 56,
      "start": 119.9544,
      "duration": 0.6492,
      "velocity": 103,
      "chip": "ym2612"
    },
    {
      "channel": 4,
      "note": 102,
      "start": 119.9558,
      "duration": 0.5359,
      "velocity": 99,
      "chip": "ym2612"
    },
    {
      "channel": 1,
      "note": 99,
      "start": 120.1805,
      "duration": 0.1975,
      "velocity": 99,
      "chip": "ym2612"
    },
    {
      "channel": 1,
      "note": 101,
      "start": 120.4063,
      "duration": 0.1978,
      "velocity": 99,
      "chip": "ym2612"
    },
    {
      "channel": 4,
      "note": 101,
      "start": 120.5207,
      "duration": 0.1968,
      "velocity": 99,
      "chip": "ym2612"
    },
    {
      "channel": 0,
      "note": 61,
      "start": 120.632,
      "duration": 2.6822,
      "velocity": 103,
      "chip": "ym2612"
    },
    {
      "channel": 1,
      "note": 97,
      "start": 120.6325,
      "duration": 2.682,
      "velocity": 99,
      "chip": "ym2612"
    },
    {
      "channel": 2,
      "note": 77,
      "start": 120.6349,
      "duration": 0.308,
      "velocity": 95,
      "chip": "ym2612"
    },
    {
      "channel": 3,
      "note": 66,
      "start": 120.6385,
      "duration": 2.6766,
      "velocity": 99,
      "chip": "ym2612"
    },
    {
      "channel": 4,
      "note": 99,
      "start": 120.746,
      "duration": 0.1974,
      "velocity": 99,
      "chip": "ym2612"
    },
    {
      "channel": 2,
      "note": 68,
      "start": 120.9717,
      "duration": 0.3101,
      "velocity": 95,
      "chip": "ym2612"
    },
    {
      "channel": 4,
      "note": 101,
      "start": 120.9726,
      "duration": 2.6814,
      "velocity": 99,
      "chip": "ym2612"
    },
    {
      "channel": 2,
      "note": 73,
      "start": 121.3102,
      "duration": 0.3105,
      "velocity": 95,
      "chip": "ym2612"
    },
    {
      "channel": 2,
      "note": 77,
      "start": 121.649,
      "duration": 0.3104,
      "velocity": 95,
      "chip": "ym2612"
    },
    {
      "channel": 2,
      "note": 80,
      "start": 121.988,
      "duration": 0.3102,
      "velocity": 95,
      "chip": "ym2612"
    },
    {
      "channel": 2,
      "note": 73,
      "start": 122.3267,
      "duration": 0.3103,
      "velocity": 95,
      "chip": "ym2612"
    },
    {
      "channel": 2,
      "note": 77,
      "start": 122.6655,
      "duration": 0.3105,
      "velocity": 95,
      "chip": "ym2612"
    },
    {
      "channel": 2,
      "note": 68,
      "start": 123.0043,
      "duration": 0.3105,
      "velocity": 95,
      "chip": "ym2612"
    },
    {
      "channel": 0,
      "note": 59,
      "start": 123.3426,
      "duration": 2.6821,
      "velocity": 103,
      "chip": "ym2612"
    },
    {
      "channel": 2,
      "note": 66,
      "start": 123.3453,
      "duration": 2.68,
      "velocity": 99,
      "chip": "ym2612"
    },
    {
      "channel": 3,
      "note": 73,
      "start": 123.3485,
      "duration": 0.1928,
      "velocity": 102,
      "chip": "ym2612"
    },
    {
      "channel": 3,
      "note": 59,
      "start": 123.5693,
      "duration": 0.1974,
      "velocity": 102,
      "chip": "ym2612"
    },
    {
      "channel": 3,
      "note": 66,
      "start": 123.7951,
      "duration": 0.1978,
      "velocity": 102,
      "chip": "ym2612"
    },
    {
      "channel": 3,
      "note": 69,
      "start": 124.0211,
      "duration": 0.1974,
      "velocity": 102,
      "chip": "ym2612"
    },
    {
      "channel": 3,
      "note": 75,
      "start": 124.247,
      "duration": 0.1974,
      "velocity": 102,
      "chip": "ym2612"
    },
    {
      "channel": 3,
      "note": 81,
      "start": 124.4729,
      "duration": 0.1974,
      "velocity": 102,
      "chip": "ym2612"
    },
    {
      "channel": 3,
      "note": 78,
      "start": 124.6988,
      "duration": 1.3269,
      "velocity": 102,
      "chip": "ym2612"
    },
    {
      "channel": 1,
      "note": 71,
      "start": 125.037,
      "duration": 0.3104,
      "velocity": 99,
      "chip": "ym2612"
    },
    {
      "channel": 1,
      "note": 76,
      "start": 125.3759,
      "duration": 0.3103,
      "velocity": 99,
      "chip": "ym2612"
    },
    {
      "channel": 4,
      "note": 97,
      "start": 125.3801,
      "duration": 0.3071,
      "velocity": 99,
      "chip": "ym2612"
    },
    {
      "channel": 1,
      "note": 78,
      "start": 125.7146,
      "duration": 0.3104,
      "velocity": 99,
      "chip": "ym2612"
    },
    {
      "channel": 4,
      "note": 71,
      "start": 125.7158,
      "duration": 0.3102,
      "velocity": 99,
      "chip": "ym2612"
    },
    {
      "channel": 1,
      "note": 80,
      "start": 126.0535,
      "duration": 0.6491,
      "velocity": 99,
      "chip": "ym2612"
    },
    {
      "channel": 2,
      "note": 64,
      "start": 126.0559,
      "duration": 0.1952,
      "velocity": 83,
      "chip": "ym2612"
    },
    {
      "channel": 4,
      "note": 76,
      "start": 126.0569,
      "duration": 0.3078,
      "velocity": 99,
      "chip": "ym2612"
    },
    {
      "channel": 2,
      "note": 68,
      "start": 126.2795,
      "duration": 0.1976,
      "velocity": 83,
      "chip": "ym2612"
    },
    {
      "channel": 3,
      "note": 87,
      "start": 126.396,
      "duration": 0.1941,
      "velocity": 83,
      "chip": "ym2612"
    },
    {
      "channel": 4,
      "note": 78,
      "start": 126.3967,
      "duration": 0.6456,
      "velocity": 99,
      "chip": "ym2612"
    },
    {
      "channel": 2,
      "note": 71,
      "start": 126.5054,
      "duration": 0.1975,
      "velocity": 83,
      "chip": "ym2612"
    },
    {
      "channel": 3,
      "note": 64,
      "start": 126.6186,
      "duration": 0.1975,
      "velocity": 83,
      "chip": "ym2612"
    },
    {
      "channel": 1,
      "note": 81,
      "start": 126.7311,
      "duration": 0.6492,
      "velocity": 99,
      "chip": "ym2612"
    },
    {
      "channel": 2,
      "note": 76,
      "start": 126.7316,
      "duration": 0.1974,
      "velocity": 83,
      "chip": "ym2612"
    },
    {
      "channel": 3,
      "note": 68,
      "start": 126.8447,
      "duration": 0.1973,
      "velocity": 83,
      "chip": "ym2612"
    },
    {
      "channel": 2,
      "note": 71,
      "start": 126.9572,
      "duration": 0.1975,
      "velocity": 83,
      "chip": "ym2612"
    },
    {
      "channel": 3,
      "note": 71,
      "start": 127.0705,
      "duration": 0.1975,
      "velocity": 83,
      "chip": "ym2612"
    },
    {
      "channel": 4,
      "note": 80,
      "start": 127.0711,
      "duration": 0.6488,
      "velocity": 99,
      "chip": "ym2612"
    },
    {
      "channel": 2,
      "note": 68,
      "start": 127.1831,
      "duration": 0.1975,
      "velocity": 83,
      "chip": "ym2612"
    },
    {
      "channel": 3,
      "note": 76,
      "start": 127.2966,
      "duration": 0.1971,
      "velocity": 83,
      "chip": "ym2612"
    },
    {
      "channel": 1,
      "note": 83,
      "start": 127.4087,
      "duration": 0.6492,
      "velocity": 99,
      "chip": "ym2612"
    },
    {
      "channel": 2,
      "note": 65,
      "start": 127.4093,
      "duration": 0.1971,
      "velocity": 83,
      "chip": "ym2612"
    },
    {
      "channel": 3,
      "note": 71,
      "start": 127.5222,
      "duration": 0.1974,
      "velocity": 83,
      "chip": "ym2612"
    },
    {
      "channel": 2,
      "note": 68,
      "start": 127.6348,
      "duration": 0.1975,
      "velocity": 83,
      "chip": "ym2612"
    },
    {
      "channel": 3,
      "note": 68,
      "start": 127.7481,
      "duration": 0.1975,
      "velocity": 83,
      "chip": "ym2612"
    },
    {
      "channel": 4,
      "note": 81,
      "start": 127.7487,
      "duration": 0.6493,
      "velocity": 99,
      "chip": "ym2612"
    },
    {
      "channel": 2,
      "note": 71,
      "start": 127.8607,
      "duration": 0.1975,
      "velocity": 83,
      "chip": "ym2612"
    },
    {
      "channel": 3,
      "note": 65,
      "start": 127.974,
      "duration": 0.1974,
      "velocity": 83,
      "chip": "ym2612"
    },
    {
      "channel": 1,
      "note": 86,
      "start": 128.0864,
      "duration": 0.3104,
      "velocity": 99,
      "chip": "ym2612"
    },
    {
      "channel": 2,
      "note": 77,
      "start": 128.0869,
      "duration": 0.1971,
      "velocity": 83,
      "chip": "ym2612"
    },
    {
      "channel": 3,
      "note": 68,
      "start": 128.1998,
      "duration": 0.1978,
      "velocity": 83,
      "chip": "ym2612"
    },
    {
      "channel": 2,
      "note": 71,
      "start": 128.3124,
      "duration": 0.1974,
      "velocity": 83,
      "chip": "ym2612"
    },
    {
      "channel": 1,
      "note": 85,
      "start": 128.4251,
      "duration": 1.3269,
      "velocity": 99,
      "chip": "ym2612"
    },
    {
      "channel": 3,
      "note": 71,
      "start": 128.4261,
      "duration": 0.197,
      "velocity": 83,
      "chip": "ym2612"
    },
    {
      "channel": 4,
      "note": 83,
      "start": 128.4268,
      "duration": 0.3096,
      "velocity": 99,
      "chip": "ym2612"
    },
    {
      "channel": 2,
      "note": 68,
      "start": 128.5383,
      "duration": 0.1975,
      "velocity": 83,
      "chip": "ym2612"
    },
    {
      "channel": 3,
      "note": 77,
      "start": 128.6516,
      "duration": 0.1974,
      "velocity": 83,
      "chip": "ym2612"
    },
    {
      "channel": 2,
      "note": 66,
      "start": 128.7646,
      "duration": 0.197,
      "velocity": 83,
      "chip": "ym2612"
    },
    {
      "channel": 4,
      "note": 86,
      "start": 128.7656,
      "duration": 1.3261,
      "velocity": 99,
      "chip": "ym2612"
    },
    {
      "channel": 3,
      "note": 71,
      "start": 128.8774,
      "duration": 0.1974,
      "velocity": 83,
      "chip": "ym2612"
    },
    {
      "channel": 2,
      "note": 69,
      "start": 128.9901,
      "duration": 0.1975,
      "velocity": 83,
      "chip": "ym2612"
    },
    {
      "channel": 3,
      "note": 68,
      "start": 129.1034,
      "duration": 0.1974,
      "velocity": 83,
      "chip": "ym2612"
    },
    {
      "channel": 2,
      "note": 73,
      "start": 129.2161,
      "duration": 0.1974,
      "velocity": 83,
      "chip": "ym2612"
    },
    {
      "channel": 3,
      "note": 66,
      "start": 129.3293,
      "duration": 0.1974,
      "velocity": 83,
      "chip": "ym2612"
    },
    {
      "channel": 2,
      "note": 78,
      "start": 129.4419,
      "duration": 0.1975,
      "velocity": 83,
      "chip": "ym2612"
    },
    {
      "channel": 3,
      "note": 69,
      "start": 129.5551,
      "duration": 0.1975,
      "velocity": 83,
      "chip": "ym2612"
    },
    {
      "channel": 2,
      "note": 73,
      "start": 129.6678,
      "duration": 0.1975,
      "velocity": 83,
      "chip": "ym2612"
    },
    {
      "channel": 1,
      "note": 81,
      "start": 129.7805,
      "duration": 0.3104,
      "velocity": 99,
      "chip": "ym2612"
    },
    {
      "channel": 3,
      "note": 73,
      "start": 129.7814,
      "duration": 0.1971,
      "velocity": 83,
      "chip": "ym2612"
    },
    {
      "channel": 2,
      "note": 69,
      "start": 129.8937,
      "duration": 0.1975,
      "velocity": 83,
      "chip": "ym2612"
    },
    {
      "channel": 3,
      "note": 78,
      "start": 130.0069,
      "duration": 0.1974,
      "velocity": 83,
      "chip": "ym2612"
    },
    {
      "channel": 1,
      "note": 80,
      "start": 130.1193,
      "duration": 0.3104,
      "velocity": 99,
      "chip": "ym2612"
    },
    {
      "channel": 2,
      "note": 63,
      "start": 130.1198,
      "duration": 0.1975,
      "velocity": 83,
      "chip": "ym2612"
    },
    {
      "channel": 4,
      "note": 85,
      "start": 130.1207,
      "duration": 0.3098,
      "velocity": 99,
      "chip": "ym2612"
    },
    {
      "channel": 3,
      "note": 73,
      "start": 130.2334,
      "duration": 0.1969,
      "velocity": 83,
      "chip": "ym2612"
    },
    {
      "channel": 2,
      "note": 69,
      "start": 130.3454,
      "duration": 0.1975,
      "velocity": 83,
      "chip": "ym2612"
    },
    {
      "channel": 1,
      "note": 78,
      "start": 130.4581,
      "duration": 0.3104,
      "velocity": 99,
      "chip": "ym2612"
    },
    {
      "channel": 3,
      "note": 69,
      "start": 130.4591,
      "duration": 0.197,
      "velocity": 83,
      "chip": "ym2612"
    },
    {
      "channel": 4,
      "note": 81,
      "start": 130.4598,
      "duration": 0.3096,
      "velocity": 99,
      "chip": "ym2612"
    },
    {
      "channel": 2,
      "note": 72,
      "start": 130.5713,
      "duration": 0.1975,
      "velocity": 83,
      "chip": "ym2612"
    },
    {
      "channel": 3,
      "note": 63,
      "start": 130.6848,
      "duration": 0.1971,
      "velocity": 83,
      "chip": "ym2612"
    },
    {
      "channel": 2,
      "note": 75,
      "start": 130.7973,
      "duration": 0.1974,
      "velocity": 83,
      "chip": "ym2612"
    },
    {
      "channel": 4,
      "note": 80,
      "start": 130.7982,
      "duration": 0.3101,
      "velocity": 99,
      "chip": "ym2612"
    },
    {
      "channel": 3,
      "note": 69,
      "start": 130.9104,
      "duration": 0.1975,
      "velocity": 83,
      "chip": "ym2612"
    },
    {
      "channel": 2,
      "note": 78,
      "start": 131.023,
      "duration": 0.1974,
      "velocity": 83,
      "chip": "ym2612"
    },
    {
      "channel": 1,
      "note": 83,
      "start": 131.1357,
      "duration": 3.021,
      "velocity": 99,
      "chip": "ym2612"
    },
    {
      "channel": 3,
      "note": 72,
      "start": 131.1366,
      "duration": 0.1972,
      "velocity": 83,
      "chip": "ym2612"
    },
    {
      "channel": 2,
      "note": 81,
      "start": 131.2489,
      "duration": 0.1974,
      "velocity": 83,
      "chip": "ym2612"
    },
    {
      "channel": 0,
      "note": 54,
      "start": 131.305,
      "duration": 0.1409,
      "velocity": 103,
      "chip": "ym2612"
    },
    {
      "channel": 3,
      "note": 75,
      "start": 131.3621,
      "duration": 0.1974,
      "velocity": 83,
      "chip": "ym2612"
    },
    {
      "channel": 0,
      "note": 56,
      "start": 131.4743,
      "duration": 1.3269,
      "velocity": 103,
      "chip": "ym2612"
    },
    {
      "channel": 2,
      "note": 68,
      "start": 131.4751,
      "duration": 0.1972,
      "velocity": 83,
      "chip": "ym2612"
    },
    {
      "channel": 4,
      "note": 78,
      "start": 131.476,
      "duration": 3.0204,
      "velocity": 99,
      "chip": "ym2612"
    },
    {
      "channel": 3,
      "note": 78,
      "start": 131.588,
      "duration": 0.1977,
      "velocity": 83,
      "chip": "ym2612"
    },
    {
      "channel": 2,
      "note": 71,
      "start": 131.7007,
      "duration": 0.1973,
      "velocity": 83,
      "chip": "ym2612"
    },
    {
      "channel": 3,
      "note": 81,
      "start": 131.8139,
      "duration": 0.1974,
      "velocity": 83,
      "chip": "ym2612"
    },
    {
      "channel": 2,
      "note": 75,
      "start": 131.9266,
      "duration": 0.1975,
      "velocity": 83,
      "chip": "ym2612"
    },
    {
      "channel": 3,
      "note": 68,
      "start": 132.0398,
      "duration": 0.1974,
      "velocity": 83,
      "chip": "ym2612"
    },
    {
      "channel": 2,
      "note": 80,
      "start": 132.1528,
      "duration": 0.1972,
      "velocity": 83,
      "chip": "ym2612"
    },
    {
      "channel": 3,
      "note": 71,
      "start": 132.2657,
      "duration": 0.1974,
      "velocity": 83,
      "chip": "ym2612"
    },
    {
      "channel": 2,
      "note": 71,
      "start": 132.3784,
      "duration": 0.1974,
      "velocity": 83,
      "chip": "ym2612"
    },
    {
      "channel": 3,
      "note": 75,
      "start": 132.4918,
      "duration": 0.1973,
      "velocity": 83,
      "chip": "ym2612"
    },
    {
      "channel": 2,
      "note": 75,
      "start": 132.6043,
      "duration": 0.1976,
      "velocity": 83,
      "chip": "ym2612"
    },
    {
      "channel": 3,
      "note": 80,
      "start": 132.7175,
      "duration": 0.1974,
      "velocity": 83,
      "chip": "ym2612"
    },
    {
      "channel": 0,
      "note": 49,
      "start": 132.8296,
      "duration": 1.3268,
      "velocity": 103,
      "chip": "ym2612"
    },
    {
      "channel": 2,
      "note": 78,
      "start": 132.8304,
      "duration": 0.1971,
      "velocity": 83,
      "chip": "ym2612"
    },
    {
      "channel": 3,
      "note": 71,
      "start": 132.9433,
      "duration": 0.1974,
      "velocity": 83,
      "chip": "ym2612"
    },
    {
      "channel": 2,
      "note": 71,
      "start": 133.056,
      "duration": 0.1977,
      "velocity": 83,
      "chip": "ym2612"
    },
    {
      "channel": 3,
      "note": 75,
      "start": 133.1693,
      "duration": 0.1973,
      "velocity": 83,
      "chip": "ym2612"
    },
    {
      "channel": 2,
      "note": 73,
      "start": 133.2818,
      "duration": 0.1975,
      "velocity": 83,
      "chip": "ym2612"
    },
    {
      "channel": 3,
      "note": 78,
      "start": 133.3951,
      "duration": 0.1974,
      "velocity": 83,
      "chip": "ym2612"
    },
    {
      "channel": 2,
      "note": 77,
      "start": 133.5078,
      "duration": 0.1974,
      "velocity": 83,
      "chip": "ym2612"
    },
    {
      "channel": 3,
      "note": 71,
      "start": 133.6213,
      "duration": 0.1971,
      "velocity": 83,
      "chip": "ym2612"
    },
    {
      "channel": 2,
      "note": 71,
      "start": 133.7336,
      "duration": 0.1974,
      "velocity": 83,
      "chip": "ym2612"
    },
    {
      "channel": 3,
      "note": 73,
      "start": 133.8469,
      "duration": 0.1975,
      "velocity": 83,
      "chip": "ym2612"
    },
    {
      "channel": 2,
      "note": 73,
      "start": 133.9595,
      "duration": 0.1975,
      "velocity": 83,
      "chip": "ym2612"
    },
    {
      "channel": 3,
      "note": 77,
      "start": 134.0728,
      "duration": 0.1973,
      "velocity": 83,
      "chip": "ym2612"
    },
    {
      "channel": 0,
      "note": 54,
      "start": 134.1849,
      "duration": 0.8186,
      "velocity": 103,
      "chip": "ym2612"
    },
    {
      "channel": 2,
      "note": 76,
      "start": 134.1858,
      "duration": 0.197,
      "velocity": 83,
      "chip": "ym2612"
    },
    {
      "channel": 3,
      "note": 71,
      "start": 134.2986,
      "duration": 0.1974,
      "velocity": 83,
      "chip": "ym2612"
    },
    {
      "channel": 2,
      "note": 69,
      "start": 134.4112,
      "duration": 0.1974,
      "velocity": 83,
      "chip": "ym2612"
    },
    {
      "channel": 3,
      "note": 73,
      "start": 134.5245,
      "duration": 0.1978,
      "velocity": 83,
      "chip": "ym2612"
    },
    {
      "channel": 2,
      "note": 73,
      "start": 134.6371,
      "duration": 0.1975,
      "velocity": 83,
      "chip": "ym2612"
    },
    {
      "channel": 3,
      "note": 76,
      "start": 134.7504,
      "duration": 0.1974,
      "velocity": 83,
      "chip": "ym2612"
    },
    {
      "channel": 2,
      "note": 81,
      "start": 134.8631,
      "duration": 0.1974,
      "velocity": 83,
      "chip": "ym2612"
    },
    {
      "channel": 3,
      "note": 69,
      "start": 134.9763,
      "duration": 0.1975,
      "velocity": 83,
      "chip": "ym2612"
    },
    {
      "channel": 0,
      "note": 52,
      "start": 135.0319,
      "duration": 0.1411,
      "velocity": 103,
      "chip": "ym2612"
    },
    {
      "channel": 2,
      "note": 69,
      "start": 135.0893,
      "duration": 0.1971,
      "velocity": 83,
      "chip": "ym2612"
    },
    {
      "channel": 0,
      "note": 51,
      "start": 135.2013,
      "duration": 0.141,
      "velocity": 103,
      "chip": "ym2612"
    },
    {
      "channel": 3,
      "note": 73,
      "start": 135.2024,
      "duration": 0.1972,
      "velocity": 83,
      "chip": "ym2612"
    },
    {
      "channel": 2,
      "note": 73,
      "start": 135.3148,
      "duration": 0.1975,
      "velocity": 83,
      "chip": "ym2612"
    },
    {
      "channel": 0,
      "note": 49,
      "start": 135.3707,
      "duration": 0.141,
      "velocity": 103,
      "chip": "ym2612"
    },
    {
      "channel": 3,
      "note": 81,
      "start": 135.428,
      "duration": 0.1974,
      "velocity": 83,
      "chip": "ym2612"
    },
    {
      "channel": 0,
      "note": 47,
      "start": 135.5405,
      "duration": 1.3265,
      "velocity": 103,
      "chip": "ym2612"
    },
    {
      "channel": 2,
      "note": 76,
      "start": 135.5413,
      "duration": 0.1403,
      "velocity": 83,
      "chip": "ym2612"
    },
    {
      "channel": 3,
      "note": 69,
      "start": 135.6539,
      "duration": 0.1975,
      "velocity": 83,
      "chip": "ym2612"
    },
    {
      "channel": 2,
      "note": 66,
      "start": 135.71,
      "duration": 0.141,
      "velocity": 83,
      "chip": "ym2612"
    },
    {
      "channel": 2,
      "note": 69,
      "start": 135.8795,
      "duration": 0.1409,
      "velocity": 83,
      "chip": "ym2612"
    },
    {
      "channel": 3,
      "note": 73,
      "start": 135.8802,
      "duration": 0.1405,
      "velocity": 83,
      "chip": "ym2612"
    },
    {
      "channel": 2,
      "note": 73,
      "start": 136.0489,
      "duration": 0.1412,
      "velocity": 83,
      "chip": "ym2612"
    },
    {
      "channel": 3,
      "note": 76,
      "start": 136.0495,
      "duration": 0.1412,
      "velocity": 83,
      "chip": "ym2612"
    },
    {
      "channel": 2,
      "note": 76,
      "start": 136.2184,
      "duration": 0.6492,
      "velocity": 83,
      "chip": "ym2612"
    },
    {
      "channel": 3,
      "note": 66,
      "start": 136.219,
      "duration": 0.1405,
      "velocity": 83,
      "chip": "ym2612"
    },
    {
      "channel": 1,
      "note": 71,
      "start": 136.3874,
      "duration": 0.141,
      "velocity": 99,
      "chip": "ym2612"
    },
    {
      "channel": 3,
      "note": 69,
      "start": 136.3883,
      "duration": 0.1407,
      "velocity": 83,
      "chip": "ym2612"
    },
    {
      "channel": 1,
      "note": 76,
      "start": 136.557,
      "duration": 0.1408,
      "velocity": 99,
      "chip": "ym2612"
    },
    {
      "channel": 3,
      "note": 73,
      "start": 136.5582,
      "duration": 0.6484,
      "velocity": 83,
      "chip": "ym2612"
    },
    {
      "channel": 4,
      "note": 83,
      "start": 136.5588,
      "duration": 0.1399,
      "velocity": 99,
      "chip": "ym2612"
    },
    {
      "channel": 1,
      "note": 78,
      "start": 136.7263,
      "duration": 0.141,
      "velocity": 99,
      "chip": "ym2612"
    },
    {
      "channel": 4,
      "note": 71,
      "start": 136.7274,
      "duration": 0.1408,
      "velocity": 99,
      "chip": "ym2612"
    },
    {
      "channel": 0,
      "note": 52,
      "start": 136.8954,
      "duration": 0.6492,
      "velocity": 103,
      "chip": "ym2612"
    },
    {
      "channel": 1,
      "note": 80,
      "start": 136.896,
      "duration": 0.649,
      "velocity": 99,
      "chip": "ym2612"
    },
    {
      "channel": 2,
      "note": 68,
      "start": 136.8965,
      "duration": 0.1968,
      "velocity": 83,
      "chip": "ym2612"
    },
    {
      "channel": 4,
      "note": 76,
      "start": 136.8974,
      "duration": 0.14,
      "velocity": 99,
      "chip": "ym2612"
    },
    {
      "channel": 4,
      "note": 78,
      "start": 137.0659,
      "duration": 0.6492,
      "velocity": 99,
      "chip": "ym2612"
    },
    {
      "channel": 2,
      "note": 71,
      "start": 137.1218,
      "duration": 0.1975,
      "velocity": 83,
      "chip": "ym2612"
    },
    {
      "channel": 3,
      "note": 76,
      "start": 137.235,
      "duration": 0.1974,
      "velocity": 83,
      "chip": "ym2612"
    },
    {
      "channel": 2,
      "note": 80,
      "start": 137.3477,
      "duration": 0.1976,
      "velocity": 83,
      "chip": "ym2612"
    },
    {
      "channel": 3,
      "note": 68,
      "start": 137.4609,
      "duration": 0.1975,
      "velocity": 83,
      "chip": "ym2612"
    },
    {
      "channel": 0,
      "note": 51,
      "start": 137.5731,
      "duration": 0.6492,
      "velocity": 103,
      "chip": "ym2612"
    },
    {
      "channel": 1,
      "note": 81,
      "start": 137.5736,
      "duration": 0.649,
      "velocity": 99,
      "chip": "ym2612"
    },
    {
      "channel": 2,
      "note": 68,
      "start": 137.5741,
      "duration": 0.1968,
      "velocity": 83,
      "chip": "ym2612"
    },
    {
      "channel": 3,
      "note": 71,
      "start": 137.6868,
      "duration": 0.1974,
      "velocity": 83,
      "chip": "ym2612"
    },
    {
      "channel": 4,
      "note": 80,
      "start": 137.7439,
      "duration": 0.6489,
      "velocity": 99,
      "chip": "ym2612"
    },
    {
      "channel": 2,
      "note": 71,
      "start": 137.7994,
      "duration": 0.1974,
      "velocity": 83,
      "chip": "ym2612"
    },
    {
      "channel": 3,
      "note": 80,
      "start": 137.9127,
      "duration": 0.1977,
      "velocity": 83,
      "chip": "ym2612"
    },
    {
      "channel": 2,
      "note": 78,
      "start": 138.0254,
      "duration": 0.1975,
      "velocity": 83,
      "chip": "ym2612"
    },
    {
      "channel": 3,
      "note": 68,
      "start": 138.1385,
      "duration": 0.1974,
      "velocity": 83,
      "chip": "ym2612"
    },
    {
      "channel": 0,
      "note": 50,
      "start": 138.2507,
      "duration": 0.988,
      "velocity": 103,
      "chip": "ym2612"
    },
    {
      "channel": 1,
      "note": 83,
      "start": 138.2513,
      "duration": 0.3101,
      "velocity": 99,
      "chip": "ym2612"
    },
    {
      "channel": 2,
      "note": 68,
      "start": 138.2518,
      "duration": 0.1968,
      "velocity": 83,
      "chip": "ym2612"
    },
    {
      "channel": 3,
      "note": 71,
      "start": 138.3644,
      "duration": 0.1974,
      "velocity": 83,
      "chip": "ym2612"
    },
    {
      "channel": 4,
      "note": 81,
      "start": 138.4212,
      "duration": 0.3104,
      "velocity": 99,
      "chip": "ym2612"
    },
    {
      "channel": 2,
      "note": 71,
      "start": 138.4774,
      "duration": 0.1971,
      "velocity": 83,
      "chip": "ym2612"
    },
    {
      "channel": 1,
      "note": 80,
      "start": 138.5898,
      "duration": 0.3104,
      "velocity": 99,
      "chip": "ym2612"
    },
    {
      "channel": 3,
      "note": 78,
      "start": 138.5907,
      "duration": 0.1971,
      "velocity": 83,
      "chip": "ym2612"
    },
    {
      "channel": 2,
      "note": 80,
      "start": 138.7029,
      "duration": 0.1975,
      "velocity": 83,
      "chip": "ym2612"
    },
    {
      "channel": 4,
      "note": 83,
      "start": 138.7601,
      "duration": 0.3103,
      "velocity": 99,
      "chip": "ym2612"
    },
    {
      "channel": 3,
      "note": 68,
      "start": 138.8162,
      "duration": 0.1974,
      "velocity": 83,
      "chip": "ym2612"
    },
    {
      "channel": 1,
      "note": 83,
      "start": 138.9286,
      "duration": 0.3105,
      "velocity": 99,
      "chip": "ym2612"
    },
    {
      "channel": 2,
      "note": 68,
      "start": 138.9291,
      "duration": 0.1971,
      "velocity": 83,
      "chip": "ym2612"
    },
    {
      "channel": 3,
      "note": 71,
      "start": 139.0421,
      "duration": 0.1975,
      "velocity": 83,
      "chip": "ym2612"
    },
    {
      "channel": 4,
      "note": 80,
      "start": 139.0989,
      "duration": 0.3103,
      "velocity": 99,
      "chip": "ym2612"
    },
    {
      "channel": 2,
      "note": 71,
      "start": 139.1547,
      "duration": 0.1974,
      "velocity": 83,
      "chip": "ym2612"
    },
    {
      "channel": 0,
      "note": 49,
      "start": 139.2672,
      "duration": 1.6657,
      "velocity": 103,
      "chip": "ym2612"
    },
    {
      "channel": 1,
      "note": 90,
      "start": 139.2677,
      "duration": 0.649,
      "velocity": 99,
      "chip": "ym2612"
    },
    {
      "channel": 3,
      "note": 80,
      "start": 139.2687,
      "duration": 0.1966,
      "velocity": 83,
      "chip": "ym2612"
    },
    {
      "channel": 2,
      "note": 80,
      "start": 139.3806,
      "duration": 0.1978,
      "velocity": 83,
      "chip": "ym2612"
    },
    {
      "channel": 4,
      "note": 83,
      "start": 139.4377,
      "duration": 0.6492,
      "velocity": 99,
      "chip": "ym2612"
    },
    {
      "channel": 3,
      "note": 68,
      "start": 139.494,
      "duration": 0.1973,
      "velocity": 83,
      "chip": "ym2612"
    },
    {
      "channel": 2,
      "note": 69,
      "start": 139.6065,
      "duration": 0.1975,
      "velocity": 83,
      "chip": "ym2612"
    },
    {
      "channel": 3,
      "note": 71,
      "start": 139.7198,
      "duration": 0.1975,
      "velocity": 83,
      "chip": "ym2612"
    },
    {
      "channel": 2,
      "note": 78,
      "start": 139.8323,
      "duration": 0.1975,
      "velocity": 83,
      "chip": "ym2612"
    },
    {
      "channel": 1,
      "note": 92,
      "start": 139.9451,
      "duration": 0.6492,
      "velocity": 99,
      "chip": "ym2612"
    },
    {
      "channel": 3,
      "note": 80,
      "start": 139.9462,
      "duration": 0.1968,
      "velocity": 83,
      "chip": "ym2612"
    },
    {
      "channel": 2,
      "note": 81,
      "start": 140.0583,
      "duration": 0.1975,
      "velocity": 83,
      "chip": "ym2612"
    },
    {
      "channel": 4,
      "note": 90,
      "start": 140.1154,
      "duration": 0.6493,
      "velocity": 99,
      "chip": "ym2612"
    },
    {
      "channel": 3,
      "note": 69,
      "start": 140.1715,
      "duration": 0.1974,
      "velocity": 83,
      "chip": "ym2612"
    },
    {
      "channel": 2,
      "note": 69,
      "start": 140.2841,
      "duration": 0.1975,
      "velocity": 83,
      "chip": "ym2612"
    },
    {
      "channel": 3,
      "note": 78,
      "start": 140.3974,
      "duration": 0.1975,
      "velocity": 83,
      "chip": "ym2612"
    },
    {
      "channel": 2,
      "note": 78,
      "start": 140.51,
      "duration": 0.1974,
      "velocity": 83,
      "chip": "ym2612"
    },
    {
      "channel": 1,
      "note": 88,
      "start": 140.6227,
      "duration": 0.6492,
      "velocity": 99,
      "chip": "ym2612"
    },
    {
      "channel": 3,
      "note": 81,
      "start": 140.6236,
      "duration": 0.1971,
      "velocity": 83,
      "chip": "ym2612"
    },
    {
      "channel": 2,
      "note": 81,
      "start": 140.7359,
      "duration": 0.1975,
      "velocity": 83,
      "chip": "ym2612"
    },
    {
      "channel": 4,
      "note": 92,
      "start": 140.793,
      "duration": 0.6491,
      "velocity": 99,
      "chip": "ym2612"
    },
    {
      "channel": 3,
      "note": 69,
      "start": 140.8491,
      "duration": 0.1979,
      "velocity": 83,
      "chip": "ym2612"
    },
    {
      "channel": 0,
      "note": 58,
      "start": 140.9613,
      "duration": 1.3268,
      "velocity": 103,
      "chip": "ym2612"
    },
    {
      "channel": 2,
      "note": 70,
      "start": 140.9621,
      "duration": 0.1971,
      "velocity": 83,
      "chip": "ym2612"
    },
    {
      "channel": 3,
      "note": 78,
      "start": 141.075,
      "duration": 0.1975,
      "velocity": 83,
      "chip": "ym2612"
    },
    {
      "channel": 2,
      "note": 79,
      "start": 141.1876,
      "duration": 0.1975,
      "velocity": 83,
      "chip": "ym2612"
    },
    {
      "channel": 1,
      "note": 85,
      "start": 141.3004,
      "duration": 0.3104,
      "velocity": 99,
      "chip": "ym2612"
    },
    {
      "channel": 3,
      "note": 81,
      "start": 141.3014,
      "duration": 0.1973,
      "velocity": 83,
      "chip": "ym2612"
    },
    {
      "channel": 2,
      "note": 82,
      "start": 141.4137,
      "duration": 0.1974,
      "velocity": 83,
      "chip": "ym2612"
    },
    {
      "channel": 4,
      "note": 88,
      "start": 141.4706,
      "duration": 0.3109,
      "velocity": 99,
      "chip": "ym2612"
    },
    {
      "channel": 3,
      "note": 70,
      "start": 141.5268,
      "duration": 0.1974,
      "velocity": 83,
      "chip": "ym2612"
    },
    {
      "channel": 1,
      "note": 88,
      "start": 141.6392,
      "duration": 0.6492,
      "velocity": 99,
      "chip": "ym2612"
    },
    {
      "channel": 2,
      "note": 70,
      "start": 141.6397,
      "duration": 0.1972,
      "velocity": 83,
      "chip": "ym2612"
    },
    {
      "channel": 3,
      "note": 79,
      "start": 141.7527,
      "duration": 0.1974,
      "velocity": 83,
      "chip": "ym2612"
    },
    {
      "channel": 4,
      "note": 85,
      "start": 141.8095,
      "duration": 0.6491,
      "velocity": 99,
      "chip": "ym2612"
    },
    {
      "channel": 2,
      "note": 79,
      "start": 141.8657,
      "duration": 0.1971,
      "velocity": 83,
      "chip": "ym2612"
    },
    {
      "channel": 3,
      "note": 82,
      "start": 141.9786,
      "duration": 0.1974,
      "velocity": 83,
      "chip": "ym2612"
    },
    {
      "channel": 2,
      "note": 82,
      "start": 142.0912,
      "duration": 0.1976,
      "velocity": 83,
      "chip": "ym2612"
    },
    {
      "channel": 3,
      "note": 70,
      "start": 142.2044,
      "duration": 0.1973,
      "velocity": 83,
      "chip": "ym2612"
    },
    {
      "channel": 0,
      "note": 59,
      "start": 142.3166,
      "duration": 2.6821,
      "velocity": 103,
      "chip": "ym2612"
    },
    {
      "channel": 1,
      "note": 88,
      "start": 142.3171,
      "duration": 2.6819,
      "velocity": 99,
      "chip": "ym2612"
    },
    {
      "channel": 2,
      "note": 81,
      "start": 142.3177,
      "duration": 0.1969,
      "velocity": 83,
      "chip": "ym2612"
    },
    {
      "channel": 3,
      "note": 79,
      "start": 142.4303,
      "duration": 0.1974,
      "velocity": 83,
      "chip": "ym2612"
    },
    {
      "channel": 4,
      "note": 88,
      "start": 142.4871,
      "duration": 2.6824,
      "velocity": 99,
      "chip": "ym2612"
    },
    {
      "channel": 2,
      "note": 59,
      "start": 142.5429,
      "duration": 0.1974,
      "velocity": 83,
      "chip": "ym2612"
    },
    {
      "channel": 3,
      "note": 82,
      "start": 142.6562,
      "duration": 0.1974,
      "velocity": 83,
      "chip": "ym2612"
    },
    {
      "channel": 2,
      "note": 66,
      "start": 142.7688,
      "duration": 0.1978,
      "velocity": 83,
      "chip": "ym2612"
    },
    {
      "channel": 3,
      "note": 81,
      "start": 142.8822,
      "duration": 0.1973,
      "velocity": 83,
      "chip": "ym2612"
    },
    {
      "channel": 2,
      "note": 69,
      "start": 142.9947,
      "duration": 0.1975,
      "velocity": 83,
      "chip": "ym2612"
    },
    {
      "channel": 3,
      "note": 59,
      "start": 143.108,
      "duration": 0.1974,
      "velocity": 83,
      "chip": "ym2612"
    },
    {
      "channel": 2,
      "note": 71,
      "start": 143.2206,
      "duration": 0.1975,
      "velocity": 83,
      "chip": "ym2612"
    },
    {
      "channel": 3,
      "note": 66,
      "start": 143.3342,
      "duration": 0.1972,
      "velocity": 83,
      "chip": "ym2612"
    },
    {
      "channel": 2,
      "note": 73,
      "start": 143.4465,
      "duration": 0.1975,
      "velocity": 83,
      "chip": "ym2612"
    },
    {
      "channel": 3,
      "note": 69,
      "start": 143.5599,
      "duration": 0.1972,
      "velocity": 83,
      "chip": "ym2612"
    },
    {
      "channel": 2,
      "note": 78,
      "start": 143.6724,
      "duration": 0.1974,
      "velocity": 83,
      "chip": "ym2612"
    },
    {
      "channel": 3,
      "note": 71,
      "start": 143.7856,
      "duration": 0.1975,
      "velocity": 83,
      "chip": "ym2612"
    },
    {
      "channel": 2,
      "note": 66,
      "start": 143.8983,
      "duration": 0.1976,
      "velocity": 83,
      "chip": "ym2612"
    },
    {
      "channel": 3,
      "note": 73,
      "start": 144.0115,
      "duration": 0.1974,
      "velocity": 83,
      "chip": "ym2612"
    },
    {
      "channel": 2,
      "note": 69,
      "start": 144.1241,
      "duration": 0.1974,
      "velocity": 83,
      "chip": "ym2612"
    },
    {
      "channel": 3,
      "note": 78,
      "start": 144.2374,
      "duration": 0.1977,
      "velocity": 83,
      "chip": "ym2612"
    },
    {
      "channel": 2,
      "note": 73,
      "start": 144.3502,
      "duration": 0.1973,
      "velocity": 83,
      "chip": "ym2612"
    },
    {
      "channel": 3,
      "note": 66,
      "start": 144.4633,
      "duration": 0.1975,
      "velocity": 83,
      "chip": "ym2612"
    },
    {
      "channel": 2,
      "note": 78,
      "start": 144.5759,
      "duration": 0.1975,
      "velocity": 83,
      "chip": "ym2612"
    },
    {
      "channel": 3,
      "note": 69,
      "start": 144.6892,
      "duration": 0.1974,
      "velocity": 83,
      "chip": "ym2612"
    },
    {
      "channel": 2,
      "note": 81,
      "start": 144.8021,
      "duration": 0.1972,
      "velocity": 83,
      "chip": "ym2612"
    },
    {
      "channel": 3,
      "note": 73,
      "start": 144.915,
      "duration": 0.1973,
      "velocity": 83,
      "chip": "ym2612"
    },
    {
      "channel": 0,
      "note": 47,
      "start": 145.0271,
      "duration": 2.3435,
      "velocity": 103,
      "chip": "ym2612"
    },
    {
      "channel": 2,
      "note": 83,
      "start": 145.028,
      "duration": 0.1971,
      "velocity": 83,
      "chip": "ym2612"
    },
    {
      "channel": 3,
      "note": 78,
      "start": 145.1409,
      "duration": 0.1974,
      "velocity": 83,
      "chip": "ym2612"
    },
    {
      "channel": 2,
      "note": 78,
      "start": 145.2535,
      "duration": 0.1974,
      "velocity": 83,
      "chip": "ym2612"
    },
    {
      "channel": 3,
      "note": 81,
      "start": 145.3667,
      "duration": 0.1974,
      "velocity": 83,
      "chip": "ym2612"
    },
    {
      "channel": 2,
      "note": 76,
      "start": 145.4794,
      "duration": 0.1975,
      "velocity": 83,
      "chip": "ym2612"
    },
    {
      "channel": 3,
      "note": 83,
      "start": 145.5926,
      "duration": 0.1975,
      "velocity": 83,
      "chip": "ym2612"
    },
    {
      "channel": 2,
      "note": 78,
      "start": 145.7053,
      "duration": 0.1975,
      "velocity": 83,
      "chip": "ym2612"
    },
    {
      "channel": 3,
      "note": 78,
      "start": 145.8187,
      "duration": 0.1973,
      "velocity": 83,
      "chip": "ym2612"
    },
    {
      "channel": 2,
      "note": 76,
      "start": 145.9312,
      "duration": 0.1975,
      "velocity": 83,
      "chip": "ym2612"
    },
    {
      "channel": 3,
      "note": 76,
      "start": 146.0445,
      "duration": 0.1975,
      "velocity": 83,
      "chip": "ym2612"
    },
    {
      "channel": 2,
      "note": 71,
      "start": 146.1571,
      "duration": 0.1976,
      "velocity": 83,
      "chip": "ym2612"
    },
    {
      "channel": 3,
      "note": 78,
      "start": 146.2707,
      "duration": 0.1969,
      "velocity": 83,
      "chip": "ym2612"
    },
    {
      "channel": 1,
      "note": 80,
      "start": 146.3827,
      "duration": 0.6492,
      "velocity": 99,
      "chip": "ym2612"
    },
    {
      "channel": 2,
      "note": 78,
      "start": 146.3832,
      "duration": 0.1971,
      "velocity": 83,
      "chip": "ym2612"
    },
    {
      "channel": 3,
      "note": 76,
      "start": 146.4962,
      "duration": 0.1974,
      "velocity": 83,
      "chip": "ym2612"
    },
    {
      "channel": 4,
      "note": 88,
      "start": 146.5531,
      "duration": 0.649,
      "velocity": 99,
      "chip": "ym2612"
    },
    {
      "channel": 2,
      "note": 75,
      "start": 146.6088,
      "duration": 0.1975,
      "velocity": 83,
      "chip": "ym2612"
    },
    {
      "channel": 3,
      "note": 71,
      "start": 146.7225,
      "duration": 0.197,
      "velocity": 83,
      "chip": "ym2612"
    },
    {
      "channel": 2,
      "note": 71,
      "start": 146.8347,
      "duration": 0.1975,
      "velocity": 83,
      "chip": "ym2612"
    },
    {
      "channel": 3,
      "note": 78,
      "start": 146.9479,
      "duration": 0.1974,
      "velocity": 83,
      "chip": "ym2612"
    },
    {
      "channel": 1,
      "note": 81,
      "start": 147.0604,
      "duration": 0.6492,
      "velocity": 99,
      "chip": "ym2612"
    },
    {
      "channel": 2,
      "note": 78,
      "start": 147.0609,
      "duration": 0.1971,
      "velocity": 83,
      "chip": "ym2612"
    },
    {
      "channel": 3,
      "note": 75,
      "start": 147.1738,
      "duration": 0.1979,
      "velocity": 83,
      "chip": "ym2612"
    },
    {
      "channel": 4,
      "note": 80,
      "start": 147.2306,
      "duration": 0.6491,
      "velocity": 99,
      "chip": "ym2612"
    },
    {
      "channel": 2,
      "note": 75,
      "start": 147.2864,
      "duration": 0.1974,
      "velocity": 83,
      "chip": "ym2612"
    },
    {
      "channel": 0,
      "note": 46,
      "start": 147.3989,
      "duration": 0.3104,
      "velocity": 103,
      "chip": "ym2612"
    },
    {
      "channel": 3,
      "note": 71,
      "start": 147.4,
      "duration": 0.1971,
      "velocity": 83,
      "chip": "ym2612"
    },
    {
      "channel": 2,
      "note": 71,
      "start": 147.5123,
      "duration": 0.1975,
      "velocity": 83,
      "chip": "ym2612"
    },
    {
      "channel": 3,
      "note": 78,
      "start": 147.6256,
      "duration": 0.1977,
      "velocity": 83,
      "chip": "ym2612"
    },
    {
      "channel": 0,
      "note": 45,
      "start": 147.7378,
      "duration": 1.3267,
      "velocity": 103,
      "chip": "ym2612"
    },
    {
      "channel": 1,
      "note": 85,
      "start": 147.7383,
      "duration": 0.6488,
      "velocity": 99,
      "chip": "ym2612"
    },
    {
      "channel": 2,
      "note": 64,
      "start": 147.7393,
      "duration": 0.1963,
      "velocity": 83,
      "chip": "ym2612"
    },
    {
      "channel": 3,
      "note": 75,
      "start": 147.8514,
      "duration": 0.1974,
      "velocity": 83,
      "chip": "ym2612"
    },
    {
      "channel": 4,
      "note": 81,
      "start": 147.9082,
      "duration": 0.6496,
      "velocity": 99,
      "chip": "ym2612"
    },
    {
      "channel": 2,
      "note": 69,
      "start": 147.9641,
      "duration": 0.1975,
      "velocity": 83,
      "chip": "ym2612"
    },
    {
      "channel": 3,
      "note": 71,
      "start": 148.0773,
      "duration": 0.1974,
      "velocity": 83,
      "chip": "ym2612"
    },
    {
      "channel": 2,
      "note": 73,
      "start": 148.1903,
      "duration": 0.1972,
      "velocity": 83,
      "chip": "ym2612"
    },
    {
      "channel": 3,
      "note": 64,
      "start": 148.3032,
      "duration": 0.1974,
      "velocity": 83,
      "chip": "ym2612"
    },
    {
      "channel": 1,
      "note": 92,
      "start": 148.4156,
      "duration": 0.3104,
      "velocity": 99,
      "chip": "ym2612"
    },
    {
      "channel": 2,
      "note": 76,
      "start": 148.4162,
      "duration": 0.1971,
      "velocity": 83,
      "chip": "ym2612"
    },
    {
      "channel": 3,
      "note": 69,
      "start": 148.5291,
      "duration": 0.1974,
      "velocity": 83,
      "chip": "ym2612"
    },
    {
      "channel": 4,
      "note": 85,
      "start": 148.5859,
      "duration": 0.3103,
      "velocity": 99,
      "chip": "ym2612"
    },
    {
      "channel": 2,
      "note": 81,
      "start": 148.6417,
      "duration": 0.1976,
      "velocity": 83,
      "chip": "ym2612"
    },
    {
      "channel": 1,
      "note": 92,
      "start": 148.7544,
      "duration": 0.988,
      "velocity": 99,
      "chip": "ym2612"
    },
    {
      "channel": 3,
      "note": 73,
      "start": 148.7554,
      "duration": 0.197,
      "velocity": 83,
      "chip": "ym2612"
    },
    {
      "channel": 2,
      "note": 85,
      "start": 148.8676,
      "duration": 0.1974,
      "velocity": 83,
      "chip": "ym2612"
    },
    {
      "channel": 4,
      "note": 92,
      "start": 148.9251,
      "duration": 0.9876,
      "velocity": 99,
      "chip": "ym2612"
    },
    {
      "channel": 3,
      "note": 76,
      "start": 148.9809,
      "duration": 0.1974,
      "velocity": 83,
      "chip": "ym2612"
    },
    {
      "channel": 0,
      "note": 47,
      "start": 149.093,
      "duration": 1.3268,
      "velocity": 103,
      "chip": "ym2612"
    },
    {
      "channel": 2,
      "note": 66,
      "start": 149.0938,
      "duration": 0.1974,
      "velocity": 83,
      "chip": "ym2612"
    },
    {
      "channel": 3,
      "note": 81,
      "start": 149.2068,
      "duration": 0.1973,
      "velocity": 83,
      "chip": "ym2612"
    },
    {
      "channel": 2,
      "note": 71,
      "start": 149.3193,
      "duration": 0.1975,
      "velocity": 83,
      "chip": "ym2612"
    },
    {
      "channel": 3,
      "note": 85,
      "start": 149.4327,
      "duration": 0.1974,
      "velocity": 83,
      "chip": "ym2612"
    },
    {
      "channel": 2,
      "note": 75,
      "start": 149.5452,
      "duration": 0.1975,
      "velocity": 83,
      "chip": "ym2612"
    },
    {
      "channel": 3,
      "note": 66,
      "start": 149.6588,
      "duration": 0.1971,
      "velocity": 83,
      "chip": "ym2612"
    },
    {
      "channel": 2,
      "note": 78,
      "start": 149.7713,
      "duration": 0.1973,
      "velocity": 83,
      "chip": "ym2612"
    },
    {
      "channel": 3,
      "note": 71,
      "start": 149.8844,
      "duration": 0.1974,
      "velocity": 83,
      "chip": "ym2612"
    },
    {
      "channel": 1,
      "note": 90,
      "start": 149.9403,
      "duration": 0.141,
      "velocity": 99,
      "chip": "ym2612"
    },
    {
      "channel": 2,
      "note": 83,
      "start": 149.997,
      "duration": 0.1975,
      "velocity": 83,
      "chip": "ym2612"
    },
    {
      "channel": 1,
      "note": 88,
      "start": 150.1098,
      "duration": 0.141,
      "velocity": 99,
      "chip": "ym2612"
    },
    {
      "channel": 3,
      "note": 75,
      "start": 150.1106,
      "duration": 0.1973,
      "velocity": 83,
      "chip": "ym2612"
    },
    {
      "channel": 4,
      "note": 92,
      "start": 150.1113,
      "duration": 0.1403,
      "velocity": 99,
      "chip": "ym2612"
    },
    {
      "channel": 2,
      "note": 87,
      "start": 150.2229,
      "duration": 0.1975,
      "velocity": 83,
      "chip": "ym2612"
    },
    {
      "channel": 1,
      "note": 90,
      "start": 150.2791,
      "duration": 0.141,
      "velocity": 99,
      "chip": "ym2612"
    },
    {
      "channel": 4,
      "note": 90,
      "start": 150.2803,
      "duration": 0.1407,
      "velocity": 99,
      "chip": "ym2612"
    },
    {
      "channel": 3,
      "note": 78,
      "start": 150.3361,
      "duration": 0.1974,
      "velocity": 83,
      "chip": "ym2612"
    },
    {
      "channel": 0,
      "note": 44,
      "start": 150.4483,
      "duration": 1.3268,
      "velocity": 103,
      "chip": "ym2612"
    },
    {
      "channel": 1,
      "note": 92,
      "start": 150.4488,
      "duration": 0.31,
      "velocity": 99,
      "chip": "ym2612"
    },
    {
      "channel": 2,
      "note": 66,
      "start": 150.4494,
      "duration": 0.1968,
      "velocity": 83,
      "chip": "ym2612"
    },
    {
      "channel": 4,
      "note": 88,
      "start": 150.4503,
      "duration": 0.14,
      "velocity": 99,
      "chip": "ym2612"
    },
    {
      "channel": 3,
      "note": 83,
      "start": 150.562,
      "duration": 0.1978,
      "velocity": 83,
      "chip": "ym2612"
    },
    {
      "channel": 4,
      "note": 90,
      "start": 150.6188,
      "duration": 0.3103,
      "velocity": 99,
      "chip": "ym2612"
    },
    {
      "channel": 2,
      "note": 71,
      "start": 150.6746,
      "duration": 0.1974,
      "velocity": 83,
      "chip": "ym2612"
    },
    {
      "channel": 1,
      "note": 80,
      "start": 150.7873,
      "duration": 0.3104,
      "velocity": 99,
      "chip": "ym2612"
    },
    {
      "channel": 3,
      "note": 87,
      "start": 150.7882,
      "duration": 0.1971,
      "velocity": 83,
      "chip": "ym2612"
    },
    {
      "channel": 2,
      "note": 75,
      "start": 150.9005,
      "duration": 0.1976,
      "velocity": 83,
      "chip": "ym2612"
    },
    {
      "channel": 4,
      "note": 92,
      "start": 150.9576,
      "duration": 0.3103,
      "velocity": 99,
      "chip": "ym2612"
    },
    {
      "channel": 3,
      "note": 66,
      "start": 151.0138,
      "duration": 0.1974,
      "velocity": 83,
      "chip": "ym2612"
    },
    {
      "channel": 1,
      "note": 85,
      "start": 151.1262,
      "duration": 0.3104,
      "velocity": 99,
      "chip": "ym2612"
    },
    {
      "channel": 2,
      "note": 78,
      "start": 151.127,
      "duration": 0.1968,
      "velocity": 83,
      "chip": "ym2612"
    },
    {
      "channel": 3,
      "note": 71,
      "start": 151.2397,
      "duration": 0.1975,
      "velocity": 83,
      "chip": "ym2612"
    },
    {
      "channel": 4,
      "note": 80,
      "start": 151.2965,
      "duration": 0.3103,
      "velocity": 99,
      "chip": "ym2612"
    },
    {
      "channel": 2,
      "note": 83,
      "start": 151.3523,
      "duration": 0.1974,
      "velocity": 83,
      "chip": "ym2612"
    },
    {
      "channel": 1,
      "note": 83,
      "start": 151.465,
      "duration": 1.6657,
      "velocity": 99,
      "chip": "ym2612"
    },
    {
      "channel": 3,
      "note": 75,
      "start": 151.4659,
      "duration": 0.1971,
      "velocity": 83,
      "chip": "ym2612"
    },
    {
      "channel": 2,
      "note": 87,
      "start": 151.5782,
      "duration": 0.1975,
      "velocity": 83,
      "chip": "ym2612"
    },
    {
      "channel": 4,
      "note": 85,
      "start": 151.6353,
      "duration": 1.6656,
      "velocity": 99,
      "chip": "ym2612"
    },
    {
      "channel": 3,
      "note": 78,
      "start": 151.6914,
      "duration": 0.1974,
      "velocity": 83,
      "chip": "ym2612"
    },
    {
      "channel": 0,
      "note": 56,
      "start": 151.8036,
      "duration": 0.6492,
      "velocity": 103,
      "chip": "ym2612"
    },
    {
      "channel": 2,
      "note": 68,
      "start": 151.8044,
      "duration": 0.1971,
      "velocity": 83,
      "chip": "ym2612"
    },
    {
      "channel": 3,
      "note": 83,
      "start": 151.9173,
      "duration": 0.1975,
      "velocity": 83,
      "chip": "ym2612"
    },
    {
      "channel": 2,
      "note": 71,
      "start": 152.0299,
      "duration": 0.1976,
      "velocity": 83,
      "chip": "ym2612"
    },
    {
      "channel": 3,
      "note": 87,
      "start": 152.1433,
      "duration": 0.1973,
      "velocity": 83,
      "chip": "ym2612"
    },
    {
      "channel": 2,
      "note": 75,
      "start": 152.2558,
      "duration": 0.1976,
      "velocity": 83,
      "chip": "ym2612"
    },
    {
      "channel": 3,
      "note": 68,
      "start": 152.3693,
      "duration": 0.1972,
      "velocity": 83,
      "chip": "ym2612"
    },
    {
      "channel": 0,
      "note": 44,
      "start": 152.4812,
      "duration": 0.6492,
      "velocity": 103,
      "chip": "ym2612"
    },
    {
      "channel": 2,
      "note": 80,
      "start": 152.482,
      "duration": 0.1975,
      "velocity": 83,
      "chip": "ym2612"
    },
    {
      "channel": 3,
      "note": 71,
      "start": 152.5954,
      "duration": 0.197,
      "velocity": 83,
      "chip": "ym2612"
    },
    {
      "channel": 2,
      "note": 83,
      "start": 152.7076,
      "duration": 0.1975,
      "velocity": 83,
      "chip": "ym2612"
    },
    {
      "channel": 3,
      "note": 75,
      "start": 152.8209,
      "duration": 0.1974,
      "velocity": 83,
      "chip": "ym2612"
    },
    {
      "channel": 2,
      "note": 87,
      "start": 152.9335,
      "duration": 0.1976,
      "velocity": 83,
      "chip": "ym2612"
    },
    {
      "channel": 3,
      "note": 80,
      "start": 153.047,
      "duration": 0.1971,
      "velocity": 83,
      "chip": "ym2612"
    },
    {
      "channel": 0,
      "note": 42,
      "start": 153.1588,
      "duration": 1.3268,
      "velocity": 103,
      "chip": "ym2612"
    },
    {
      "channel": 1,
      "note": 85,
      "start": 153.1594,
      "duration": 0.6489,
      "velocity": 99,
      "chip": "ym2612"
    },
    {
      "channel": 2,
      "note": 64,
      "start": 153.1599,
      "duration": 0.1969,
      "velocity": 83,
      "chip": "ym2612"
    },
    {
      "channel": 3,
      "note": 83,
      "start": 153.2726,
      "duration": 0.1974,
      "velocity": 83,
      "chip": "ym2612"
    },
    {
      "channel": 4,
      "note": 83,
      "start": 153.3297,
      "duration": 0.6488,
      "velocity": 99,
      "chip": "ym2612"
    },
    {
      "channel": 2,
      "note": 69,
      "start": 153.3852,
      "duration": 0.1974,
      "velocity": 83,
      "chip": "ym2612"
    },
    {
      "channel": 3,
      "note": 87,
      "start": 153.4985,
      "duration": 0.1975,
      "velocity": 83,
      "chip": "ym2612"
    },
    {
      "channel": 2,
      "note": 73,
      "start": 153.6111,
      "duration": 0.1975,
      "velocity": 83,
      "chip": "ym2612"
    },
    {
      "channel": 3,
      "note": 64,
      "start": 153.7243,
      "duration": 0.1974,
      "velocity": 83,
      "chip": "ym2612"
    },
    {
      "channel": 1,
      "note": 92,
      "start": 153.8367,
      "duration": 0.3108,
      "velocity": 99,
      "chip": "ym2612"
    },
    {
      "channel": 2,
      "note": 76,
      "start": 153.8373,
      "duration": 0.1972,
      "velocity": 83,
      "chip": "ym2612"
    },
    {
      "channel": 3,
      "note": 69,
      "start": 153.9503,
      "duration": 0.1978,
      "velocity": 83,
      "chip": "ym2612"
    },
    {
      "channel": 4,
      "note": 85,
      "start": 154.007,
      "duration": 0.3103,
      "velocity": 99,
      "chip": "ym2612"
    },
    {
      "channel": 2,
      "note": 81,
      "start": 154.063,
      "duration": 0.1973,
      "velocity": 83,
      "chip": "ym2612"
    },
    {
      "channel": 1,
      "note": 92,
      "start": 154.1756,
      "duration": 0.988,
      "velocity": 99,
      "chip": "ym2612"
    },
    {
      "channel": 3,
      "note": 73,
      "start": 154.1766,
      "duration": 0.197,
      "velocity": 83,
      "chip": "ym2612"
    },
    {
      "channel": 2,
      "note": 85,
      "start": 154.2888,
      "duration": 0.1974,
      "velocity": 83,
      "chip": "ym2612"
    },
    {
      "channel": 4,
      "note": 92,
      "start": 154.3458,
      "duration": 0.988,
      "velocity": 99,
      "chip": "ym2612"
    },
    {
      "channel": 3,
      "note": 76,
      "start": 154.402,
      "duration": 0.1974,
      "velocity": 83,
      "chip": "ym2612"
    },
    {
      "channel": 0,
      "note": 47,
      "start": 154.5146,
      "duration": 1.3264,
      "velocity": 103,
      "chip": "ym2612"
    },
    {
      "channel": 2,
      "note": 66,
      "start": 154.5154,
      "duration": 0.1967,
      "velocity": 83,
      "chip": "ym2612"
    },
    {
      "channel": 3,
      "note": 81,
      "start": 154.6279,
      "duration": 0.1974,
      "velocity": 83,
      "chip": "ym2612"
    },
    {
      "channel": 2,
      "note": 71,
      "start": 154.7405,
      "duration": 0.1975,
      "velocity": 83,
      "chip": "ym2612"
    },
    {
      "channel": 3,
      "note": 85,
      "start": 154.8538,
      "duration": 0.1974,
      "velocity": 83,
      "chip": "ym2612"
    },
    {
      "channel": 2,
      "note": 75,
      "start": 154.9664,
      "duration": 0.1976,
      "velocity": 83,
      "chip": "ym2612"
    },
    {
      "channel": 3,
      "note": 66,
      "start": 155.0797,
      "duration": 0.1974,
      "velocity": 83,
      "chip": "ym2612"
    },
    {
      "channel": 1,
      "note": 90,
      "start": 155.192,
      "duration": 0.1975,
      "velocity": 99,
      "chip": "ym2612"
    },
    {
      "channel": 2,
      "note": 78,
      "start": 155.1926,
      "duration": 0.1972,
      "velocity": 83,
      "chip": "ym2612"
    },
    {
      "channel": 3,
      "note": 71,
      "start": 155.3055,
      "duration": 0.1974,
      "velocity": 83,
      "chip": "ym2612"
    },
    {
      "channel": 4,
      "note": 92,
      "start": 155.3623,
      "duration": 0.1974,
      "velocity": 99,
      "chip": "ym2612"
    },
    {
      "channel": 1,
      "note": 88,
      "start": 155.4179,
      "duration": 0.1977,
      "velocity": 99,
      "chip": "ym2612"
    },
    {
      "channel": 2,
      "note": 83,
      "start": 155.4185,
      "duration": 0.1975,
      "velocity": 83,
      "chip": "ym2612"
    },
    {
      "channel": 3,
      "note": 75,
      "start": 155.5315,
      "duration": 0.1973,
      "velocity": 83,
      "chip": "ym2612"
    },
    {
      "channel": 4,
      "note": 90,
      "start": 155.5882,
      "duration": 0.1974,
      "velocity": 99,
      "chip": "ym2612"
    },
    {
      "channel": 1,
      "note": 95,
      "start": 155.6438,
      "duration": 0.5362,
      "velocity": 99,
      "chip": "ym2612"
    },
    {
      "channel": 2,
      "note": 87,
      "start": 155.6443,
      "duration": 0.1972,
      "velocity": 83,
      "chip": "ym2612"
    },
    {
      "channel": 3,
      "note": 78,
      "start": 155.7573,
      "duration": 0.1973,
      "velocity": 83,
      "chip": "ym2612"
    },
    {
      "channel": 4,
      "note": 88,
      "start": 155.814,
      "duration": 0.5365,
      "velocity": 99,
      "chip": "ym2612"
    },
    {
      "channel": 0,
      "note": 49,
      "start": 155.8694,
      "duration": 2.6822,
      "velocity": 103,
      "chip": "ym2612"
    },
    {
      "channel": 2,
      "note": 88,
      "start": 155.8702,
      "duration": 0.1971,
      "velocity": 83,
      "chip": "ym2612"
    },
    {
      "channel": 3,
      "note": 83,
      "start": 155.9835,
      "duration": 0.1971,
      "velocity": 83,
      "chip": "ym2612"
    },
    {
      "channel": 2,
      "note": 85,
      "start": 156.0958,
      "duration": 0.1974,
      "velocity": 83,
      "chip": "ym2612"
    },
    {
      "channel": 1,
      "note": 92,
      "start": 156.2085,
      "duration": 2.3435,
      "velocity": 99,
      "chip": "ym2612"
    },
    {
      "channel": 3,
      "note": 87,
      "start": 156.2093,
      "duration": 0.1971,
      "velocity": 83,
      "chip": "ym2612"
    },
    {
      "channel": 2,
      "note": 83,
      "start": 156.3217,
      "duration": 0.1975,
      "velocity": 83,
      "chip": "ym2612"
    },
    {
      "channel": 4,
      "note": 95,
      "start": 156.3787,
      "duration": 2.3433,
      "velocity": 99,
      "chip": "ym2612"
    },
    {
      "channel": 3,
      "note": 88,
      "start": 156.4349,
      "duration": 0.1975,
      "velocity": 83,
      "chip": "ym2612"
    },
    {
      "channel": 2,
      "note": 80,
      "start": 156.5476,
      "duration": 0.1974,
      "velocity": 83,
      "chip": "ym2612"
    },
    {
      "channel": 3,
      "note": 85,
      "start": 156.6608,
      "duration": 0.1974,
      "velocity": 83,
      "chip": "ym2612"
    },
    {
      "channel": 2,
      "note": 76,
      "start": 156.7734,
      "duration": 0.1975,
      "velocity": 83,
      "chip": "ym2612"
    },
    {
      "channel": 3,
      "note": 83,
      "start": 156.8868,
      "duration": 0.1978,
      "velocity": 83,
      "chip": "ym2612"
    },
    {
      "channel": 2,
      "note": 73,
      "start": 156.9993,
      "duration": 0.1974,
      "velocity": 83,
      "chip": "ym2612"
    },
    {
      "channel": 3,
      "note": 80,
      "start": 157.1127,
      "duration": 0.1973,
      "velocity": 83,
      "chip": "ym2612"
    },
    {
      "channel": 2,
      "note": 85,
      "start": 157.2252,
      "duration": 0.1975,
      "velocity": 83,
      "chip": "ym2612"
    },
    {
      "channel": 3,
      "note": 76,
      "start": 157.3385,
      "duration": 0.1975,
      "velocity": 83,
      "chip": "ym2612"
    },
    {
      "channel": 2,
      "note": 83,
      "start": 157.4515,
      "duration": 0.1971,
      "velocity": 83,
      "chip": "ym2612"
    },
    {
      "channel": 3,
      "note": 73,
      "start": 157.5644,
      "duration": 0.1974,
      "velocity": 83,
      "chip": "ym2612"
    },
    {
      "channel": 2,
      "note": 80,
      "start": 157.677,
      "duration": 0.1974,
      "velocity": 83,
      "chip": "ym2612"
    },
    {
      "channel": 3,
      "note": 85,
      "start": 157.7902,
      "duration": 0.1974,
      "velocity": 83,
      "chip": "ym2612"
    },
    {
      "channel": 2,
      "note": 76,
      "start": 157.9032,
      "duration": 0.1972,
      "velocity": 83,
      "chip": "ym2612"
    },
    {
      "channel": 3,
      "note": 83,
      "start": 158.0161,
      "duration": 0.1974,
      "velocity": 83,
      "chip": "ym2612"
    },
    {
      "channel": 2,
      "note": 73,
      "start": 158.1288,
      "duration": 0.1974,
      "velocity": 83,
      "chip": "ym2612"
    },
    {
      "channel": 3,
      "note": 80,
      "start": 158.242,
      "duration": 0.1974,
      "velocity": 83,
      "chip": "ym2612"
    },
    {
      "channel": 2,
      "note": 71,
      "start": 158.3546,
      "duration": 0.1977,
      "velocity": 83,
      "chip": "ym2612"
    },
    {
      "channel": 3,
      "note": 76,
      "start": 158.4679,
      "duration": 0.1973,
      "velocity": 83,
      "chip": "ym2612"
    },
    {
      "channel": 0,
      "note": 52,
      "start": 158.58,
      "duration": 1.3269,
      "velocity": 103,
      "chip": "ym2612"
    },
    {
      "channel": 1,
      "note": 83,
      "start": 158.5805,
      "duration": 0.6489,
      "velocity": 99,
      "chip": "ym2612"
    },
    {
      "channel": 2,
      "note": 62,
      "start": 158.5811,
      "duration": 0.1968,
      "velocity": 83,
      "chip": "ym2612"
    },
    {
      "channel": 3,
      "note": 73,
      "start": 158.6937,
      "duration": 0.1974,
      "velocity": 83,
      "chip": "ym2612"
    },
    {
      "channel": 4,
      "note": 92,
      "start": 158.7505,
      "duration": 0.6492,
      "velocity": 99,
      "chip": "ym2612"
    },
    {
      "channel": 2,
      "note": 67,
      "start": 158.8063,
      "duration": 0.1978,
      "velocity": 83,
      "chip": "ym2612"
    },
    {
      "channel": 3,
      "note": 71,
      "start": 158.92,
      "duration": 0.1969,
      "velocity": 83,
      "chip": "ym2612"
    },
    {
      "channel": 2,
      "note": 71,
      "start": 159.0322,
      "duration": 0.1976,
      "velocity": 83,
      "chip": "ym2612"
    },
    {
      "channel": 3,
      "note": 62,
      "start": 159.1455,
      "duration": 0.1975,
      "velocity": 83,
      "chip": "ym2612"
    },
    {
      "channel": 1,
      "note": 90,
      "start": 159.2579,
      "duration": 0.3104,
      "velocity": 99,
      "chip": "ym2612"
    },
    {
      "channel": 2,
      "note": 74,
      "start": 159.2584,
      "duration": 0.1971,
      "velocity": 83,
      "chip": "ym2612"
    },
    {
      "channel": 3,
      "note": 67,
      "start": 159.3717,
      "duration": 0.1971,
      "velocity": 83,
      "chip": "ym2612"
    },
    {
      "channel": 4,
      "note": 83,
      "start": 159.4282,
      "duration": 0.3107,
      "velocity": 99,
      "chip": "ym2612"
    },
    {
      "channel": 2,
      "note": 79,
      "start": 159.484,
      "duration": 0.1975,
      "velocity": 83,
      "chip": "ym2612"
    },
    {
      "channel": 1,
      "note": 90,
      "start": 159.5967,
      "duration": 0.988,
      "velocity": 99,
      "chip": "ym2612"
    },
    {
      "channel": 3,
      "note": 71,
      "start": 159.5976,
      "duration": 0.1972,
      "velocity": 83,
      "chip": "ym2612"
    },
    {
      "channel": 2,
      "note": 83,
      "start": 159.7099,
      "duration": 0.1975,
      "velocity": 83,
      "chip": "ym2612"
    },
    {
      "channel": 4,
      "note": 90,
      "start": 159.767,
      "duration": 0.9882,
      "velocity": 99,
      "chip": "ym2612"
    },
    {
      "channel": 3,
      "note": 74,
      "start": 159.8232,
      "duration": 0.1975,
      "velocity": 83,
      "chip": "ym2612"
    },
    {
      "channel": 0,
      "note": 45,
      "start": 159.9353,
      "duration": 1.3268,
      "velocity": 103,
      "chip": "ym2612"
    },
    {
      "channel": 2,
      "note": 64,
      "start": 159.936,
      "duration": 0.1972,
      "velocity": 83,
      "chip": "ym2612"
    },
    {
      "channel": 3,
      "note": 79,
      "start": 160.049,
      "duration": 0.1974,
      "velocity": 83,
      "chip": "ym2612"
    },
    {
      "channel": 2,
      "note": 67,
      "start": 160.1616,
      "duration": 0.1975,
      "velocity": 83,
      "chip": "ym2612"
    },
    {
      "channel": 3,
      "note": 83,
      "start": 160.2751,
      "duration": 0.1976,
      "velocity": 83,
      "chip": "ym2612"
    },
    {
      "channel": 2,
      "note": 73,
      "start": 160.3876,
      "duration": 0.1974,
      "velocity": 83,
      "chip": "ym2612"
    },
    {
      "channel": 3,
      "note": 64,
      "start": 160.5008,
      "duration": 0.1974,
      "velocity": 83,
      "chip": "ym2612"
    },
    {
      "channel": 2,
      "note": 76,
      "start": 160.6135,
      "duration": 0.1973,
      "velocity": 83,
      "chip": "ym2612"
    },
    {
      "channel": 3,
      "note": 67,
      "start": 160.7267,
      "duration": 0.1975,
      "velocity": 83,
      "chip": "ym2612"
    },
    {
      "channel": 1,
      "note": 88,
      "start": 160.7826,
      "duration": 0.141,
      "velocity": 99,
      "chip": "ym2612"
    },
    {
      "channel": 2,
      "note": 79,
      "start": 160.8397,
      "duration": 0.197,
      "velocity": 83,
      "chip": "ym2612"
    },
    {
      "channel": 1,
      "note": 86,
      "start": 160.952,
      "duration": 0.141,
      "velocity": 99,
      "chip": "ym2612"
    },
    {
      "channel": 3,
      "note": 73,
      "start": 160.9529,
      "duration": 0.1971,
      "velocity": 83,
      "chip": "ym2612"
    },
    {
      "channel": 4,
      "note": 90,
      "start": 160.9535,
      "duration": 0.1403,
      "velocity": 99,
      "chip": "ym2612"
    },
    {
      "channel": 2,
      "note": 85,
      "start": 161.0652,
      "duration": 0.1975,
      "velocity": 83,
      "chip": "ym2612"
    },
    {
      "channel": 1,
      "note": 88,
      "start": 161.1214,
      "duration": 0.141,
      "velocity": 99,
      "chip": "ym2612"
    },
    {
      "channel": 4,
      "note": 88,
      "start": 161.1229,
      "duration": 0.1403,
      "velocity": 99,
      "chip": "ym2612"
    },
    {
      "channel": 3,
      "note": 76,
      "start": 161.1784,
      "duration": 0.1974,
      "velocity": 83,
      "chip": "ym2612"
    },
    {
      "channel": 0,
      "note": 42,
      "start": 161.2905,
      "duration": 1.3269,
      "velocity": 103,
      "chip": "ym2612"
    },
    {
      "channel": 1,
      "note": 90,
      "start": 161.2911,
      "duration": 0.3101,
      "velocity": 99,
      "chip": "ym2612"
    },
    {
      "channel": 2,
      "note": 66,
      "start": 161.2916,
      "duration": 0.1969,
      "velocity": 83,
      "chip": "ym2612"
    },
    {
      "channel": 4,
      "note": 86,
      "start": 161.2925,
      "duration": 0.14,
      "velocity": 99,
      "chip": "ym2612"
    },
    {
      "channel": 3,
      "note": 79,
      "start": 161.4043,
      "duration": 0.1974,
      "velocity": 83,
      "chip": "ym2612"
    },
    {
      "channel": 4,
      "note": 88,
      "start": 161.4611,
      "duration": 0.3103,
      "velocity": 99,
      "chip": "ym2612"
    },
    {
      "channel": 2,
      "note": 69,
      "start": 161.5169,
      "duration": 0.1975,
      "velocity": 83,
      "chip": "ym2612"
    },
    {
      "channel": 1,
      "note": 85,
      "start": 161.6296,
      "duration": 0.3104,
      "velocity": 99,
      "chip": "ym2612"
    },
    {
      "channel": 3,
      "note": 85,
      "start": 161.6305,
      "duration": 0.1971,
      "velocity": 83,
      "chip": "ym2612"
    },
    {
      "channel": 2,
      "note": 73,
      "start": 161.7428,
      "duration": 0.1978,
      "velocity": 83,
      "chip": "ym2612"
    },
    {
      "channel": 4,
      "note": 90,
      "start": 161.7999,
      "duration": 0.3103,
      "velocity": 99,
      "chip": "ym2612"
    },
    {
      "channel": 3,
      "note": 66,
      "start": 161.8562,
      "duration": 0.1973,
      "velocity": 83,
      "chip": "ym2612"
    },
    {
      "channel": 1,
      "note": 81,
      "start": 161.9685,
      "duration": 0.3104,
      "velocity": 99,
      "chip": "ym2612"
    },
    {
      "channel": 2,
      "note": 78,
      "start": 161.969,
      "duration": 0.1971,
      "velocity": 83,
      "chip": "ym2612"
    },
    {
      "channel": 3,
      "note": 69,
      "start": 162.082,
      "duration": 0.1974,
      "velocity": 83,
      "chip": "ym2612"
    },
    {
      "channel": 4,
      "note": 85,
      "start": 162.1388,
      "duration": 0.3103,
      "velocity": 99,
      "chip": "ym2612"
    },
    {
      "channel": 2,
      "note": 81,
      "start": 162.1946,
      "duration": 0.1975,
      "velocity": 83,
      "chip": "ym2612"
    },
    {
      "channel": 1,
      "note": 85,
      "start": 162.3076,
      "duration": 0.6489,
      "velocity": 99,
      "chip": "ym2612"
    },
    {
      "channel": 3,
      "note": 73,
      "start": 162.3086,
      "duration": 0.1967,
      "velocity": 83,
      "chip": "ym2612"
    },
    {
      "channel": 2,
      "note": 85,
      "start": 162.4204,
      "duration": 0.1975,
      "velocity": 83,
      "chip": "ym2612"
    },
    {
      "channel": 4,
      "note": 81,
      "start": 162.4775,
      "duration": 0.6492,
      "velocity": 99,
      "chip": "ym2612"
    },
    {
      "channel": 3,
      "note": 78,
      "start": 162.5337,
      "duration": 0.1974,
      "velocity": 83,
      "chip": "ym2612"
    },
    {
      "channel": 0,
      "note": 47,
      "start": 162.6458,
      "duration": 1.3268,
      "velocity": 103,
      "chip": "ym2612"
    },
    {
      "channel": 2,
      "note": 66,
      "start": 162.6466,
      "duration": 0.1971,
      "velocity": 83,
      "chip": "ym2612"
    },
    {
      "channel": 3,
      "note": 81,
      "start": 162.7596,
      "duration": 0.1975,
      "velocity": 83,
      "chip": "ym2612"
    },
    {
      "channel": 2,
      "note": 69,
      "start": 162.8722,
      "duration": 0.1974,
      "velocity": 83,
      "chip": "ym2612"
    },
    {
      "channel": 1,
      "note": 83,
      "start": 162.9849,
      "duration": 0.3104,
      "velocity": 99,
      "chip": "ym2612"
    },
    {
      "channel": 3,
      "note": 85,
      "start": 162.9858,
      "duration": 0.1971,
      "velocity": 83,
      "chip": "ym2612"
    },
    {
      "channel": 2,
      "note": 75,
      "start": 163.098,
      "duration": 0.1975,
      "velocity": 83,
      "chip": "ym2612"
    },
    {
      "channel": 4,
      "note": 85,
      "start": 163.1552,
      "duration": 0.3104,
      "velocity": 99,
      "chip": "ym2612"
    },
    {
      "channel": 3,
      "note": 66,
      "start": 163.2113,
      "duration": 0.1979,
      "velocity": 83,
      "chip": "ym2612"
    },
    {
      "channel": 1,
      "note": 81,
      "start": 163.3238,
      "duration": 0.3104,
      "velocity": 99,
      "chip": "ym2612"
    },
    {
      "channel": 2,
      "note": 78,
      "start": 163.3244,
      "duration": 0.197,
      "velocity": 83,
      "chip": "ym2612"
    },
    {
      "channel": 3,
      "note": 69,
      "start": 163.4372,
      "duration": 0.1975,
      "velocity": 83,
      "chip": "ym2612"
    },
    {
      "channel": 4,
      "note": 83,
      "start": 163.4941,
      "duration": 0.3102,
      "velocity": 99,
      "chip": "ym2612"
    },
    {
      "channel": 2,
      "note": 81,
      "start": 163.5499,
      "duration": 0.1974,
      "velocity": 83,
      "chip": "ym2612"
    },
    {
      "channel": 1,
      "note": 79,
      "start": 163.6626,
      "duration": 0.3104,
      "velocity": 99,
      "chip": "ym2612"
    },
    {
      "channel": 3,
      "note": 75,
      "start": 163.6634,
      "duration": 0.1974,
      "velocity": 83,
      "chip": "ym2612"
    },
    {
      "channel": 2,
      "note": 87,
      "start": 163.7762,
      "duration": 0.197,
      "velocity": 83,
      "chip": "ym2612"
    },
    {
      "channel": 4,
      "note": 81,
      "start": 163.8328,
      "duration": 0.3107,
      "velocity": 99,
      "chip": "ym2612"
    },
    {
      "channel": 3,
      "note": 78,
      "start": 163.889,
      "duration": 0.0846,
      "velocity": 83,
      "chip": "ym2612"
    },
    {
      "channel": 0,
      "note": 40,
      "start": 164.0011,
      "duration": 0.988,
      "velocity": 103,
      "chip": "ym2612"
    },
    {
      "channel": 1,
      "note": 78,
      "start": 164.0017,
      "duration": 0.3101,
      "velocity": 99,
      "chip": "ym2612"
    },
    {
      "channel": 2,
      "note": 71,
      "start": 164.004,
      "duration": 0.9858,
      "velocity": 99,
      "chip": "ym2612"
    },
    {
      "channel": 3,
      "note": 81,
      "start": 164.0074,
      "duration": 0.9827,
      "velocity": 99,
      "chip": "ym2612"
    },
    {
      "channel": 4,
      "note": 79,
      "start": 164.1716,
      "duration": 0.3103,
      "velocity": 99,
      "chip": "ym2612"
    },
    {
      "channel": 1,
      "note": 79,
      "start": 164.3402,
      "duration": 0.3104,
      "velocity": 99,
      "chip": "ym2612"
    },
    {
      "channel": 4,
      "note": 78,
      "start": 164.5109,
      "duration": 0.31,
      "velocity": 99,
      "chip": "ym2612"
    },
    {
      "channel": 1,
      "note": 71,
      "start": 164.679,
      "duration": 0.3105,
      "velocity": 99,
      "chip": "ym2612"
    },
    {
      "channel": 4,
      "note": 79,
      "start": 164.8494,
      "duration": 0.3102,
      "velocity": 99,
      "chip": "ym2612"
    },
    {
      "channel": 0,
      "note": 45,
      "start": 165.0176,
      "duration": 3.0209,
      "velocity": 103,
      "chip": "ym2612"
    },
    {
      "channel": 1,
      "note": 74,
      "start": 165.0181,
      "duration": 2.3431,
      "velocity": 99,
      "chip": "ym2612"
    },
    {
      "channel": 2,
      "note": 67,
      "start": 165.0187,
      "duration": 3.0205,
      "velocity": 99,
      "chip": "ym2612"
    },
    {
      "channel": 3,
      "note": 67,
      "start": 165.0193,
      "duration": 3.0202,
      "velocity": 99,
      "chip": "ym2612"
    },
    {
      "channel": 4,
      "note": 71,
      "start": 165.1881,
      "duration": 2.3437,
      "velocity": 99,
      "chip": "ym2612"
    },
    {
      "channel": 1,
      "note": 73,
      "start": 167.3896,
      "duration": 0.6493,
      "velocity": 99,
      "chip": "ym2612"
    },
    {
      "channel": 4,
      "note": 74,
      "start": 167.5599,
      "duration": 0.6491,
      "velocity": 99,
      "chip": "ym2612"
    },
    {
      "channel": 0,
      "note": 45,
      "start": 168.067,
      "duration": 1.3268,
      "velocity": 103,
      "chip": "ym2612"
    },
    {
      "channel": 1,
      "note": 74,
      "start": 168.0676,
      "duration": 0.6489,
      "velocity": 99,
      "chip": "ym2612"
    },
    {
      "channel": 2,
      "note": 67,
      "start": 168.0681,
      "duration": 1.3264,
      "velocity": 99,
      "chip": "ym2612"
    },
    {
      "channel": 3,
      "note": 64,
      "start": 168.0687,
      "duration": 1.3261,
      "velocity": 99,
      "chip": "ym2612"
    },
    {
      "channel": 4,
      "note": 73,
      "start": 168.2375,
      "duration": 0.6492,
      "velocity": 99,
      "chip": "ym2612"
    },
    {
      "channel": 1,
      "note": 76,
      "start": 168.7449,
      "duration": 0.6493,
      "velocity": 99,
      "chip": "ym2612"
    },
    {
      "channel": 4,
      "note": 74,
      "start": 168.9154,
      "duration": 0.5254,
      "velocity": 99,
      "chip": "ym2612"
    },
    {
      "channel": 0,
      "note": 47,
      "start": 169.4242,
      "duration": 0.0312,
      "velocity": 99,
      "chip": "ym2612"
    },
    {
      "channel": 1,
      "note": 78,
      "start": 169.4247,
      "duration": 0.64,
      "velocity": 99,
      "chip": "ym2612"
    },
    {
      "channel": 2,
      "note": 75,
      "start": 169.4252,
      "duration": 0.6398,
      "velocity": 99,
      "chip": "ym2612"
    },
    {
      "channel": 3,
      "note": 64,
      "start": 169.4259,
      "duration": 0.6395,
      "velocity": 99,
      "chip": "ym2612"
    },
    {
      "channel": 4,
      "note": 76,
      "start": 169.4436,
      "duration": 0.6512,
      "velocity": 99,
      "chip": "ym2612"
    },
    {
      "channel": 0,
      "note": 47,
      "start": 169.4625,
      "duration": 0.1716,
      "velocity": 99,
      "chip": "ym2612"
    },
    {
      "channel": 0,
      "note": 47,
      "start": 169.6499,
      "duration": 0.0302,
      "velocity": 99,
      "chip": "ym2612"
    },
    {
      "channel": 0,
      "note": 47,
      "start": 169.6832,
      "duration": 0.166,
      "velocity": 99,
      "chip": "ym2612"
    },
    {
      "channel": 0,
      "note": 47,
      "start": 169.8653,
      "duration": 0.0301,
      "velocity": 99,
      "chip": "ym2612"
    },
    {
      "channel": 0,
      "note": 47,
      "start": 169.8983,
      "duration": 0.1661,
      "velocity": 99,
      "chip": "ym2612"
    },
    {
      "channel": 0,
      "note": 47,
      "start": 170.0803,
      "duration": 0.0298,
      "velocity": 99,
      "chip": "ym2612"
    },
    {
      "channel": 0,
      "note": 47,
      "start": 170.1129,
      "duration": 0.1669,
      "velocity": 99,
      "chip": "ym2612"
    },
    {
      "channel": 1,
      "note": 84,
      "start": 170.1135,
      "duration": 1.0256,
      "velocity": 99,
      "chip": "ym2612"
    },
    {
      "channel": 2,
      "note": 79,
      "start": 170.114,
      "duration": 1.0254,
      "velocity": 99,
      "chip": "ym2612"
    },
    {
      "channel": 3,
      "note": 71,
      "start": 170.1146,
      "duration": 1.0251,
      "velocity": 99,
      "chip": "ym2612"
    },
    {
      "channel": 4,
      "note": 78,
      "start": 170.2028,
      "duration": 0.9677,
      "velocity": 99,
      "chip": "ym2612"
    },
    {
      "channel": 0,
      "note": 47,
      "start": 170.2956,
      "duration": 0.0284,
      "velocity": 99,
      "chip": "ym2612"
    },
    {
      "channel": 0,
      "note": 47,
      "start": 170.3267,
      "duration": 0.1675,
      "velocity": 99,
      "chip": "ym2612"
    },
    {
      "channel": 0,
      "note": 47,
      "start": 170.5101,
      "duration": 0.0309,
      "velocity": 99,
      "chip": "ym2612"
    },
    {
      "channel": 0,
      "note": 47,
      "start": 170.5438,
      "duration": 0.1655,
      "velocity": 99,
      "chip": "ym2612"
    },
    {
      "channel": 0,
      "note": 47,
      "start": 170.7251,
      "duration": 0.0304,
      "velocity": 99,
      "chip": "ym2612"
    },
    {
      "channel": 0,
      "note": 47,
      "start": 170.7583,
      "duration": 0.1655,
      "velocity": 99,
      "chip": "ym2612"
    },
    {
      "channel": 0,
      "note": 47,
      "start": 170.9395,
      "duration": 0.031,
      "velocity": 99,
      "chip": "ym2612"
    },
    {
      "channel": 0,
      "note": 47,
      "start": 170.9733,
      "duration": 0.1655,
      "velocity": 99,
      "chip": "ym2612"
    },
    {
      "channel": 0,
      "note": 47,
      "start": 171.1548,
      "duration": 0.0303,
      "velocity": 99,
      "chip": "ym2612"
    },
    {
      "channel": 1,
      "note": 86,
      "start": 171.1553,
      "duration": 0.4135,
      "velocity": 99,
      "chip": "ym2612"
    },
    {
      "channel": 2,
      "note": 81,
      "start": 171.1559,
      "duration": 0.4132,
      "velocity": 99,
      "chip": "ym2612"
    },
    {
      "channel": 3,
      "note": 76,
      "start": 171.1565,
      "duration": 0.4129,
      "velocity": 99,
      "chip": "ym2612"
    },
    {
      "channel": 4,
      "note": 84,
      "start": 171.1733,
      "duration": 0.4265,
      "velocity": 99,
      "chip": "ym2612"
    },
    {
      "channel": 0,
      "note": 47,
      "start": 171.1878,
      "duration": 0.1654,
      "velocity": 99,
      "chip": "ym2612"
    },
    {
      "channel": 0,
      "note": 47,
      "start": 171.369,
      "duration": 0.0307,
      "velocity": 99,
      "chip": "ym2612"
    },
    {
      "channel": 0,
      "note": 47,
      "start": 171.4025,
      "duration": 0.1661,
      "velocity": 99,
      "chip": "ym2612"
    },
    {
      "channel": 0,
      "note": 47,
      "start": 171.5844,
      "duration": 0.0303,
      "velocity": 99,
      "chip": "ym2612"
    },
    {
      "channel": 1,
      "note": 84,
      "start": 171.5849,
      "duration": 0.2451,
      "velocity": 99,
      "chip": "ym2612"
    },
    {
      "channel": 2,
      "note": 79,
      "start": 171.5854,
      "duration": 0.4137,
      "velocity": 99,
      "chip": "ym2612"
    },
    {
      "channel": 3,
      "note": 78,
      "start": 171.5861,
      "duration": 0.4135,
      "velocity": 99,
      "chip": "ym2612"
    },
    {
      "channel": 4,
      "note": 86,
      "start": 171.6026,
      "duration": 0.3035,
      "velocity": 99,
      "chip": "ym2612"
    },
    {
      "channel": 0,
      "note": 47,
      "start": 171.6174,
      "duration": 0.1659,
      "velocity": 99,
      "chip": "ym2612"
    },
    {
      "channel": 0,
      "note": 47,
      "start": 171.799,
      "duration": 0.0307,
      "velocity": 99,
      "chip": "ym2612"
    },
    {
      "channel": 0,
      "note": 47,
      "start": 171.8326,
      "duration": 0.166,
      "velocity": 99,
      "chip": "ym2612"
    },
    {
      "channel": 1,
      "note": 83,
      "start": 171.8331,
      "duration": 0.072,
      "velocity": 99,
      "chip": "ym2612"
    },
    {
      "channel": 1,
      "note": 81,
      "start": 171.9211,
      "duration": 0.0778,
      "velocity": 99,
      "chip": "ym2612"
    },
    {
      "channel": 4,
      "note": 84,
      "start": 171.9223,
      "duration": 0.0776,
      "velocity": 99,
      "chip": "ym2612"
    },
    {
      "channel": 0,
      "note": 47,
      "start": 172.0146,
      "duration": 0.0307,
      "velocity": 99,
      "chip": "ym2612"
    },
    {
      "channel": 1,
      "note": 83,
      "start": 172.0151,
      "duration": 0.6298,
      "velocity": 99,
      "chip": "ym2612"
    },
    {
      "channel": 2,
      "note": 78,
      "start": 172.0157,
      "duration": 0.6756,
      "velocity": 99,
      "chip": "ym2612"
    },
    {
      "channel": 3,
      "note": 76,
      "start": 172.0163,
      "duration": 0.6754,
      "velocity": 99,
      "chip": "ym2612"
    },
    {
      "channel": 4,
      "note": 83,
      "start": 172.017,
      "duration": 0.0132,
      "velocity": 99,
      "chip": "ym2612"
    },
    {
      "channel": 4,
      "note": 81,
      "start": 172.0331,
      "duration": 0.6431,
      "velocity": 99,
      "chip": "ym2612"
    },
    {
      "channel": 0,
      "note": 47,
      "start": 172.0483,
      "duration": 0.1655,
      "velocity": 99,
      "chip": "ym2612"
    },
    {
      "channel": 0,
      "note": 47,
      "start": 172.2296,
      "duration": 0.0308,
      "velocity": 99,
      "chip": "ym2612"
    },
    {
      "channel": 0,
      "note": 47,
      "start": 172.2632,
      "duration": 0.1661,
      "velocity": 99,
      "chip": "ym2612"
    },
    {
      "channel": 0,
      "note": 47,
      "start": 172.4451,
      "duration": 0.0305,
      "velocity": 99,
      "chip": "ym2612"
    },
    {
      "channel": 0,
      "note": 47,
      "start": 172.4789,
      "duration": 0.1658,
      "velocity": 99,
      "chip": "ym2612"
    },
    {
      "channel": 0,
      "note": 47,
      "start": 172.6606,
      "duration": 0.0302,
      "velocity": 99,
      "chip": "ym2612"
    },
    {
      "channel": 0,
      "note": 47,
      "start": 172.6937,
      "duration": 0.1661,
      "velocity": 99,
      "chip": "ym2612"
    },
    {
      "channel": 1,
      "note": 84,
      "start": 172.6942,
      "duration": 1.0253,
      "velocity": 99,
      "chip": "ym2612"
    },
    {
      "channel": 2,
      "note": 79,
      "start": 172.6948,
      "duration": 1.0251,
      "velocity": 99,
      "chip": "ym2612"
    },
    {
      "channel": 3,
      "note": 75,
      "start": 172.6954,
      "duration": 1.0248,
      "velocity": 99,
      "chip": "ym2612"
    },
    {
      "channel": 4,
      "note": 83,
      "start": 172.7831,
      "duration": 0.9675,
      "velocity": 99,
      "chip": "ym2612"
    },
    {
      "channel": 0,
      "note": 47,
      "start": 172.8758,
      "duration": 0.0293,
      "velocity": 99,
      "chip": "ym2612"
    },
    {
      "channel": 0,
      "note": 47,
      "start": 172.9079,
      "duration": 0.1674,
      "velocity": 99,
      "chip": "ym2612"
    },
    {
      "channel": 0,
      "note": 47,
      "start": 173.0908,
      "duration": 0.0306,
      "velocity": 99,
      "chip": "ym2612"
    },
    {
      "channel": 0,
      "note": 47,
      "start": 173.1242,
      "duration": 0.1656,
      "velocity": 99,
      "chip": "ym2612"
    },
    {
      "channel": 0,
      "note": 47,
      "start": 173.3056,
      "duration": 0.031,
      "velocity": 99,
      "chip": "ym2612"
    },
    {
      "channel": 0,
      "note": 47,
      "start": 173.3394,
      "duration": 0.1656,
      "velocity": 99,
      "chip": "ym2612"
    },
    {
      "channel": 0,
      "note": 47,
      "start": 173.5207,
      "duration": 0.0302,
      "velocity": 99,
      "chip": "ym2612"
    },
    {
      "channel": 0,
      "note": 47,
      "start": 173.5537,
      "duration": 0.1655,
      "velocity": 99,
      "chip": "ym2612"
    },
    {
      "channel": 0,
      "note": 47,
      "start": 173.7352,
      "duration": 0.0308,
      "velocity": 99,
      "chip": "ym2612"
    },
    {
      "channel": 1,
      "note": 86,
      "start": 173.7357,
      "duration": 0.4127,
      "velocity": 99,
      "chip": "ym2612"
    },
    {
      "channel": 2,
      "note": 81,
      "start": 173.7363,
      "duration": 0.4125,
      "velocity": 99,
      "chip": "ym2612"
    },
    {
      "channel": 3,
      "note": 76,
      "start": 173.7369,
      "duration": 0.4122,
      "velocity": 99,
      "chip": "ym2612"
    },
    {
      "channel": 4,
      "note": 84,
      "start": 173.7537,
      "duration": 0.426,
      "velocity": 99,
      "chip": "ym2612"
    },
    {
      "channel": 0,
      "note": 47,
      "start": 173.7687,
      "duration": 0.1653,
      "velocity": 99,
      "chip": "ym2612"
    },
    {
      "channel": 0,
      "note": 47,
      "start": 173.9498,
      "duration": 0.03,
      "velocity": 99,
      "chip": "ym2612"
    },
    {
      "channel": 0,
      "note": 47,
      "start": 173.9825,
      "duration": 0.1656,
      "velocity": 99,
      "chip": "ym2612"
    },
    {
      "channel": 0,
      "note": 47,
      "start": 174.164,
      "duration": 0.0306,
      "velocity": 99,
      "chip": "ym2612"
    },
    {
      "channel": 1,
      "note": 84,
      "start": 174.1646,
      "duration": 0.1987,
      "velocity": 99,
      "chip": "ym2612"
    },
    {
      "channel": 2,
      "note": 79,
      "start": 174.1651,
      "duration": 0.1985,
      "velocity": 99,
      "chip": "ym2612"
    },
    {
      "channel": 3,
      "note": 78,
      "start": 174.1657,
      "duration": 0.1982,
      "velocity": 99,
      "chip": "ym2612"
    },
    {
      "channel": 4,
      "note": 86,
      "start": 174.1825,
      "duration": 0.2118,
      "velocity": 99,
      "chip": "ym2612"
    },
    {
      "channel": 0,
      "note": 47,
      "start": 174.1973,
      "duration": 0.1657,
      "velocity": 99,
      "chip": "ym2612"
    },
    {
      "channel": 0,
      "note": 47,
      "start": 174.3788,
      "duration": 0.0299,
      "velocity": 99,
      "chip": "ym2612"
    },
    {
      "channel": 1,
      "note": 86,
      "start": 174.3794,
      "duration": 0.0296,
      "velocity": 99,
      "chip": "ym2612"
    },
    {
      "channel": 2,
      "note": 81,
      "start": 174.3799,
      "duration": 0.0294,
      "velocity": 99,
      "chip": "ym2612"
    },
    {
      "channel": 3,
      "note": 76,
      "start": 174.3805,
      "duration": 0.0291,
      "velocity": 99,
      "chip": "ym2612"
    },
    {
      "channel": 4,
      "note": 84,
      "start": 174.397,
      "duration": 0.0878,
      "velocity": 99,
      "chip": "ym2612"
    },
    {
      "channel": 0,
      "note": 45,
      "start": 174.4115,
      "duration": 0.211,
      "velocity": 99,
      "chip": "ym2612"
    },
    {
      "channel": 1,
      "note": 88,
      "start": 174.4123,
      "duration": 1.0264,
      "velocity": 99,
      "chip": "ym2612"
    },
    {
      "channel": 2,
      "note": 83,
      "start": 174.4129,
      "duration": 1.0262,
      "velocity": 99,
      "chip": "ym2612"
    },
    {
      "channel": 3,
      "note": 78,
      "start": 174.4135,
      "duration": 1.0259,
      "velocity": 99,
      "chip": "ym2612"
    },
    {
      "channel": 4,
      "note": 86,
      "start": 174.5009,
      "duration": 0.9702,
      "velocity": 99,
      "chip": "ym2612"
    },
    {
      "channel": 0,
      "note": 45,
      "start": 174.6253,
      "duration": 0.1678,
      "velocity": 99,
      "chip": "ym2612"
    },
    {
      "channel": 0,
      "note": 45,
      "start": 174.8088,
      "duration": 0.0297,
      "velocity": 99,
      "chip": "ym2612"
    },
    {
      "channel": 0,
      "note": 45,
      "start": 174.8416,
      "duration": 0.166,
      "velocity": 99,
      "chip": "ym2612"
    },
    {
      "channel": 0,
      "note": 45,
      "start": 175.0234,
      "duration": 0.031,
      "velocity": 99,
      "chip": "ym2612"
    },
    {
      "channel": 0,
      "note": 45,
      "start": 175.0573,
      "duration": 0.1659,
      "velocity": 99,
      "chip": "ym2612"
    },
    {
      "channel": 0,
      "note": 45,
      "start": 175.239,
      "duration": 0.0304,
      "velocity": 99,
      "chip": "ym2612"
    },
    {
      "channel": 0,
      "note": 45,
      "start": 175.2726,
      "duration": 0.1659,
      "velocity": 99,
      "chip": "ym2612"
    },
    {
      "channel": 0,
      "note": 47,
      "start": 175.4545,
      "duration": 0.0313,
      "velocity": 99,
      "chip": "ym2612"
    },
    {
      "channel": 1,
      "note": 90,
      "start": 175.455,
      "duration": 1.7038,
      "velocity": 99,
      "chip": "ym2612"
    },
    {
      "channel": 2,
      "note": 87,
      "start": 175.4556,
      "duration": 1.7036,
      "velocity": 99,
      "chip": "ym2612"
    },
    {
      "channel": 3,
      "note": 79,
      "start": 175.4562,
      "duration": 1.7033,
      "velocity": 99,
      "chip": "ym2612"
    },
    {
      "channel": 4,
      "note": 88,
      "start": 175.474,
      "duration": 1.7185,
      "velocity": 99,
      "chip": "ym2612"
    },
    {
      "channel": 0,
      "note": 47,
      "start": 175.4884,
      "duration": 0.1656,
      "velocity": 99,
      "chip": "ym2612"
    },
    {
      "channel": 0,
      "note": 47,
      "start": 175.6698,
      "duration": 0.0305,
      "velocity": 99,
      "chip": "ym2612"
    },
    {
      "channel": 0,
      "note": 47,
      "start": 175.7032,
      "duration": 0.166,
      "velocity": 99,
      "chip": "ym2612"
    },
    {
      "channel": 0,
      "note": 47,
      "start": 175.885,
      "duration": 0.0311,
      "velocity": 99,
      "chip": "ym2612"
    },
    {
      "channel": 0,
      "note": 47,
      "start": 175.9189,
      "duration": 0.1656,
      "velocity": 99,
      "chip": "ym2612"
    },
    {
      "channel": 0,
      "note": 47,
      "start": 176.1003,
      "duration": 0.031,
      "velocity": 99,
      "chip": "ym2612"
    },
    {
      "channel": 0,
      "note": 47,
      "start": 176.1342,
      "duration": 0.1654,
      "velocity": 99,
      "chip": "ym2612"
    },
    {
      "channel": 0,
      "note": 47,
      "start": 176.3156,
      "duration": 0.0306,
      "velocity": 99,
      "chip": "ym2612"
    },
    {
      "channel": 0,
      "note": 47,
      "start": 176.3489,
      "duration": 0.1651,
      "velocity": 99,
      "chip": "ym2612"
    },
    {
      "channel": 0,
      "note": 47,
      "start": 176.5298,
      "duration": 0.0309,
      "velocity": 99,
      "chip": "ym2612"
    },
    {
      "channel": 0,
      "note": 47,
      "start": 176.5635,
      "duration": 0.1656,
      "velocity": 99,
      "chip": "ym2612"
    },
    {
      "channel": 0,
      "note": 47,
      "start": 176.7449,
      "duration": 0.0303,
      "velocity": 99,
      "chip": "ym2612"
    },
    {
      "channel": 0,
      "note": 47,
      "start": 176.7781,
      "duration": 0.1653,
      "velocity": 99,
      "chip": "ym2612"
    },
    {
      "channel": 0,
      "note": 47,
      "start": 176.9593,
      "duration": 0.0316,
      "velocity": 99,
      "chip": "ym2612"
    },
    {
      "channel": 0,
      "note": 47,
      "start": 176.9937,
      "duration": 0.1648,
      "velocity": 99,
      "chip": "ym2612"
    },
    {
      "channel": 0,
      "note": 35,
      "start": 177.1745,
      "duration": 0.1007,
      "velocity": 99,
      "chip": "ym2612"
    },
    {
      "channel": 1,
      "note": 59,
      "start": 177.1768,
      "duration": 0.0987,
      "velocity": 98,
      "chip": "ym2612"
    },
    {
      "channel": 2,
      "note": 47,
      "start": 177.1776,
      "duration": 0.0981,
      "velocity": 99,
      "chip": "ym2612"
    },
    {
      "channel": 4,
      "note": 90,
      "start": 177.198,
      "duration": 0.0312,
      "velocity": 98,
      "chip": "ym2612"
    },
    {
      "channel": 3,
      "note": 81,
      "start": 177.2158,
      "duration": 0.0604,
      "velocity": 98,
      "chip": "ym2612"
    },
    {
      "channel": 0,
      "note": 64,
      "start": 179.6152,
      "duration": 0.0403,
      "velocity": 99,
      "chip": "ym2612"
    },
    {
      "channel": 1,
      "note": 91,
      "start": 179.6178,
      "duration": 0.038,
      "velocity": 101,
      "chip": "ym2612"
    },
    {
      "channel": 2,
      "note": 88,
      "start": 179.6203,
      "duration": 0.0357,
      "velocity": 101,
      "chip": "ym2612"
    },
    {
      "channel": 4,
      "note": 59,
      "start": 179.643,
      "duration": 0.0788,
      "velocity": 101,
      "chip": "ym2612"
    },
    {
      "channel": 0,
      "note": 64,
      "start": 179.6585,
      "duration": 0.1561,
      "velocity": 99,
      "chip": "ym2612"
    },
    {
      "channel": 3,
      "note": 59,
      "start": 179.6627,
      "duration": 0.153,
      "velocity": 101,
      "chip": "ym2612"
    },
    {
      "channel": 0,
      "note": 64,
      "start": 179.8305,
      "duration": 0.0333,
      "velocity": 99,
      "chip": "ym2612"
    },
    {
      "channel": 1,
      "note": 89,
      "start": 179.831,
      "duration": 0.033,
      "velocity": 101,
      "chip": "ym2612"
    },
    {
      "channel": 2,
      "note": 86,
      "start": 179.8325,
      "duration": 0.0318,
      "velocity": 101,
      "chip": "ym2612"
    },
    {
      "channel": 4,
      "note": 88,
      "start": 179.8512,
      "duration": 0.0323,
      "velocity": 101,
      "chip": "ym2612"
    },
    {
      "channel": 0,
      "note": 64,
      "start": 179.8667,
      "duration": 0.0655,
      "velocity": 99,
      "chip": "ym2612"
    },
    {
      "channel": 1,
      "note": 90,
      "start": 179.8673,
      "duration": 0.1106,
      "velocity": 101,
      "chip": "ym2612"
    },
    {
      "channel": 2,
      "note": 86,
      "start": 179.8679,
      "duration": 0.1103,
      "velocity": 101,
      "chip": "ym2612"
    },
    {
      "channel": 3,
      "note": 91,
      "start": 179.8685,
      "duration": 0.0645,
      "velocity": 101,
      "chip": "ym2612"
    },
    {
      "channel": 4,
      "note": 88,
      "start": 179.8868,
      "duration": 0.1098,
      "velocity": 101,
      "chip": "ym2612"
    },
    {
      "channel": 0,
      "note": 64,
      "start": 179.948,
      "duration": 0.0296,
      "velocity": 99,
      "chip": "ym2612"
    },
    {
      "channel": 3,
      "note": 91,
      "start": 179.9492,
      "duration": 0.063,
      "velocity": 101,
      "chip": "ym2612"
    },
    {
      "channel": 0,
      "note": 64,
      "start": 179.9821,
      "duration": 0.0291,
      "velocity": 99,
      "chip": "ym2612"
    },
    {
      "channel": 1,
      "note": 86,
      "start": 179.9827,
      "duration": 0.0288,
      "velocity": 101,
      "chip": "ym2612"
    },
    {
      "channel": 0,
      "note": 64,
      "start": 180.0145,
      "duration": 0.0291,
      "velocity": 99,
      "chip": "ym2612"
    },
    {
      "channel": 1,
      "note": 88,
      "start": 180.015,
      "duration": 0.0288,
      "velocity": 101,
      "chip": "ym2612"
    },
    {
      "channel": 3,
      "note": 90,
      "start": 180.016,
      "duration": 0.0284,
      "velocity": 101,
      "chip": "ym2612"
    },
    {
      "channel": 0,
      "note": 64,
      "start": 180.0464,
      "duration": 0.0693,
      "velocity": 99,
      "chip": "ym2612"
    },
    {
      "channel": 1,
      "note": 83,
      "start": 180.047,
      "duration": 0.069,
      "velocity": 101,
      "chip": "ym2612"
    },
    {
      "channel": 3,
      "note": 86,
      "start": 180.0478,
      "duration": 0.0688,
      "velocity": 101,
      "chip": "ym2612"
    },
    {
      "channel": 0,
      "note": 62,
      "start": 180.1315,
      "duration": 0.0311,
      "velocity": 99,
      "chip": "ym2612"
    },
    {
      "channel": 1,
      "note": 91,
      "start": 180.1321,
      "duration": 0.0308,
      "velocity": 101,
      "chip": "ym2612"
    },
    {
      "channel": 2,
      "note": 88,
      "start": 180.1326,
      "duration": 0.0306,
      "velocity": 101,
      "chip": "ym2612"
    },
    {
      "channel": 3,
      "note": 88,
      "start": 180.1332,
      "duration": 0.0303,
      "velocity": 101,
      "chip": "ym2612"
    },
    {
      "channel": 4,
      "note": 86,
      "start": 180.1504,
      "duration": 0.0877,
      "velocity": 101,
      "chip": "ym2612"
    },
    {
      "channel": 0,
      "note": 62,
      "start": 180.1656,
      "duration": 0.1652,
      "velocity": 99,
      "chip": "ym2612"
    },
    {
      "channel": 3,
      "note": 83,
      "start": 180.1669,
      "duration": 0.1648,
      "velocity": 101,
      "chip": "ym2612"
    },
    {
      "channel": 0,
      "note": 62,
      "start": 180.3466,
      "duration": 0.0299,
      "velocity": 99,
      "chip": "ym2612"
    },
    {
      "channel": 1,
      "note": 91,
      "start": 180.3472,
      "duration": 0.0297,
      "velocity": 101,
      "chip": "ym2612"
    },
    {
      "channel": 2,
      "note": 88,
      "start": 180.3477,
      "duration": 0.0294,
      "velocity": 101,
      "chip": "ym2612"
    },
    {
      "channel": 4,
      "note": 88,
      "start": 180.365,
      "duration": 0.0303,
      "velocity": 101,
      "chip": "ym2612"
    },
    {
      "channel": 0,
      "note": 62,
      "start": 180.3798,
      "duration": 0.0682,
      "velocity": 99,
      "chip": "ym2612"
    },
    {
      "channel": 1,
      "note": 90,
      "start": 180.3803,
      "duration": 0.1131,
      "velocity": 101,
      "chip": "ym2612"
    },
    {
      "channel": 2,
      "note": 86,
      "start": 180.3809,
      "duration": 0.1129,
      "velocity": 101,
      "chip": "ym2612"
    },
    {
      "channel": 3,
      "note": 91,
      "start": 180.3815,
      "duration": 0.0673,
      "velocity": 101,
      "chip": "ym2612"
    },
    {
      "channel": 4,
      "note": 88,
      "start": 180.3982,
      "duration": 0.1124,
      "velocity": 101,
      "chip": "ym2612"
    },
    {
      "channel": 0,
      "note": 62,
      "start": 180.4638,
      "duration": 0.0294,
      "velocity": 99,
      "chip": "ym2612"
    },
    {
      "channel": 3,
      "note": 91,
      "start": 180.4649,
      "duration": 0.061,
      "velocity": 101,
      "chip": "ym2612"
    },
    {
      "channel": 0,
      "note": 62,
      "start": 180.4964,
      "duration": 0.0287,
      "velocity": 99,
      "chip": "ym2612"
    },
    {
      "channel": 1,
      "note": 86,
      "start": 180.4969,
      "duration": 0.0284,
      "velocity": 101,
      "chip": "ym2612"
    },
    {
      "channel": 0,
      "note": 62,
      "start": 180.5286,
      "duration": 0.0291,
      "velocity": 99,
      "chip": "ym2612"
    },
    {
      "channel": 1,
      "note": 88,
      "start": 180.5291,
      "duration": 0.0288,
      "velocity": 101,
      "chip": "ym2612"
    },
    {
      "channel": 3,
      "note": 90,
      "start": 180.53,
      "duration": 0.0285,
      "velocity": 101,
      "chip": "ym2612"
    },
    {
      "channel": 0,
      "note": 62,
      "start": 180.5606,
      "duration": 0.0693,
      "velocity": 99,
      "chip": "ym2612"
    },
    {
      "channel": 1,
      "note": 83,
      "start": 180.5612,
      "duration": 0.0691,
      "velocity": 101,
      "chip": "ym2612"
    },
    {
      "channel": 3,
      "note": 86,
      "start": 180.5623,
      "duration": 0.0685,
      "velocity": 101,
      "chip": "ym2612"
    },
    {
      "channel": 0,
      "note": 60,
      "start": 180.6458,
      "duration": 0.0315,
      "velocity": 99,
      "chip": "ym2612"
    },
    {
      "channel": 1,
      "note": 91,
      "start": 180.6463,
      "duration": 0.0312,
      "velocity": 101,
      "chip": "ym2612"
    },
    {
      "channel": 2,
      "note": 88,
      "start": 180.6469,
      "duration": 0.031,
      "velocity": 101,
      "chip": "ym2612"
    },
    {
      "channel": 3,
      "note": 88,
      "start": 180.6475,
      "duration": 0.0307,
      "velocity": 101,
      "chip": "ym2612"
    },
    {
      "channel": 4,
      "note": 86,
      "start": 180.6654,
      "duration": 0.0876,
      "velocity": 101,
      "chip": "ym2612"
    },
    {
      "channel": 0,
      "note": 60,
      "start": 180.6802,
      "duration": 0.1654,
      "velocity": 99,
      "chip": "ym2612"
    },
    {
      "channel": 3,
      "note": 83,
      "start": 180.6815,
      "duration": 0.1649,
      "velocity": 101,
      "chip": "ym2612"
    },
    {
      "channel": 0,
      "note": 60,
      "start": 180.8615,
      "duration": 0.0292,
      "velocity": 99,
      "chip": "ym2612"
    },
    {
      "channel": 1,
      "note": 91,
      "start": 180.862,
      "duration": 0.029,
      "velocity": 101,
      "chip": "ym2612"
    },
    {
      "channel": 2,
      "note": 88,
      "start": 180.8625,
      "duration": 0.0288,
      "velocity": 101,
      "chip": "ym2612"
    },
    {
      "channel": 4,
      "note": 88,
      "start": 180.8792,
      "duration": 0.0296,
      "velocity": 101,
      "chip": "ym2612"
    },
    {
      "channel": 0,
      "note": 60,
      "start": 180.8939,
      "duration": 0.0688,
      "velocity": 99,
      "chip": "ym2612"
    },
    {
      "channel": 1,
      "note": 90,
      "start": 180.8944,
      "duration": 0.1135,
      "velocity": 101,
      "chip": "ym2612"
    },
    {
      "channel": 2,
      "note": 86,
      "start": 180.8951,
      "duration": 0.1132,
      "velocity": 101,
      "chip": "ym2612"
    },
    {
      "channel": 3,
      "note": 91,
      "start": 180.8957,
      "duration": 0.0677,
      "velocity": 101,
      "chip": "ym2612"
    },
    {
      "channel": 4,
      "note": 88,
      "start": 180.9116,
      "duration": 0.1154,
      "velocity": 101,
      "chip": "ym2612"
    },
    {
      "channel": 0,
      "note": 60,
      "start": 180.9785,
      "duration": 0.0292,
      "velocity": 99,
      "chip": "ym2612"
    },
    {
      "channel": 3,
      "note": 91,
      "start": 180.9795,
      "duration": 0.0633,
      "velocity": 101,
      "chip": "ym2612"
    },
    {
      "channel": 0,
      "note": 60,
      "start": 181.0123,
      "duration": 0.0297,
      "velocity": 99,
      "chip": "ym2612"
    },
    {
      "channel": 1,
      "note": 86,
      "start": 181.0128,
      "duration": 0.0294,
      "velocity": 101,
      "chip": "ym2612"
    },
    {
      "channel": 0,
      "note": 60,
      "start": 181.0449,
      "duration": 0.0297,
      "velocity": 99,
      "chip": "ym2612"
    },
    {
      "channel": 1,
      "note": 83,
      "start": 181.0454,
      "duration": 0.0135,
      "velocity": 101,
      "chip": "ym2612"
    },
    {
      "channel": 3,
      "note": 90,
      "start": 181.0463,
      "duration": 0.0292,
      "velocity": 101,
      "chip": "ym2612"
    },
    {
      "channel": 1,
      "note": 81,
      "start": 181.0617,
      "duration": 0.0132,
      "velocity": 101,
      "chip": "ym2612"
    },
    {
      "channel": 0,
      "note": 60,
      "start": 181.0778,
      "duration": 0.0678,
      "velocity": 99,
      "chip": "ym2612"
    },
    {
      "channel": 1,
      "note": 83,
      "start": 181.0784,
      "duration": 0.4779,
      "velocity": 101,
      "chip": "ym2612"
    },
    {
      "channel": 3,
      "note": 86,
      "start": 181.0793,
      "duration": 0.0134,
      "velocity": 101,
      "chip": "ym2612"
    },
    {
      "channel": 3,
      "note": 83,
      "start": 181.0955,
      "duration": 0.051,
      "velocity": 101,
      "chip": "ym2612"
    },
    {
      "channel": 0,
      "note": 59,
      "start": 181.1618,
      "duration": 0.03,
      "velocity": 99,
      "chip": "ym2612"
    },
    {
      "channel": 3,
      "note": 81,
      "start": 181.163,
      "duration": 0.427,
      "velocity": 101,
      "chip": "ym2612"
    },
    {
      "channel": 0,
      "note": 59,
      "start": 181.1947,
      "duration": 0.1663,
      "velocity": 99,
      "chip": "ym2612"
    },
    {
      "channel": 0,
      "note": 59,
      "start": 181.3769,
      "duration": 0.0348,
      "velocity": 99,
      "chip": "ym2612"
    },
    {
      "channel": 2,
      "note": 83,
      "start": 181.3795,
      "duration": 0.0828,
      "velocity": 95,
      "chip": "ym2612"
    },
    {
      "channel": 4,
      "note": 86,
      "start": 181.3992,
      "duration": 0.1096,
      "velocity": 95,
      "chip": "ym2612"
    },
    {
      "channel": 0,
      "note": 59,
      "start": 181.4144,
      "duration": 0.0634,
      "velocity": 99,
      "chip": "ym2612"
    },
    {
      "channel": 0,
      "note": 59,
      "start": 181.4934,
      "duration": 0.0298,
      "velocity": 99,
      "chip": "ym2612"
    },
    {
      "channel": 2,
      "note": 81,
      "start": 181.4945,
      "duration": 0.0594,
      "velocity": 95,
      "chip": "ym2612"
    },
    {
      "channel": 4,
      "note": 83,
      "start": 181.5116,
      "duration": 0.0627,
      "velocity": 95,
      "chip": "ym2612"
    },
    {
      "channel": 0,
      "note": 59,
      "start": 181.5268,
      "duration": 0.0292,
      "velocity": 99,
      "chip": "ym2612"
    },
    {
      "channel": 0,
      "note": 59,
      "start": 181.5593,
      "duration": 0.03,
      "velocity": 99,
      "chip": "ym2612"
    },
    {
      "channel": 2,
      "note": 78,
      "start": 181.5602,
      "duration": 0.0852,
      "velocity": 95,
      "chip": "ym2612"
    },
    {
      "channel": 4,
      "note": 81,
      "start": 181.5772,
      "duration": 0.1141,
      "velocity": 95,
      "chip": "ym2612"
    },
    {
      "channel": 0,
      "note": 59,
      "start": 181.5922,
      "duration": 0.068,
      "velocity": 99,
      "chip": "ym2612"
    },
    {
      "channel": 0,
      "note": 60,
      "start": 181.6761,
      "duration": 0.0294,
      "velocity": 99,
      "chip": "ym2612"
    },
    {
      "channel": 1,
      "note": 84,
      "start": 181.6766,
      "duration": 0.1983,
      "velocity": 101,
      "chip": "ym2612"
    },
    {
      "channel": 2,
      "note": 79,
      "start": 181.6773,
      "duration": 0.4996,
      "velocity": 95,
      "chip": "ym2612"
    },
    {
      "channel": 4,
      "note": 78,
      "start": 181.6941,
      "duration": 0.5134,
      "velocity": 95,
      "chip": "ym2612"
    },
    {
      "channel": 0,
      "note": 60,
      "start": 181.7083,
      "duration": 0.1663,
      "velocity": 99,
      "chip": "ym2612"
    },
    {
      "channel": 3,
      "note": 83,
      "start": 181.7094,
      "duration": 0.2121,
      "velocity": 101,
      "chip": "ym2612"
    },
    {
      "channel": 0,
      "note": 60,
      "start": 181.8905,
      "duration": 0.0302,
      "velocity": 99,
      "chip": "ym2612"
    },
    {
      "channel": 1,
      "note": 88,
      "start": 181.891,
      "duration": 0.1013,
      "velocity": 101,
      "chip": "ym2612"
    },
    {
      "channel": 0,
      "note": 60,
      "start": 181.9235,
      "duration": 0.0685,
      "velocity": 99,
      "chip": "ym2612"
    },
    {
      "channel": 3,
      "note": 84,
      "start": 181.9246,
      "duration": 0.1136,
      "velocity": 101,
      "chip": "ym2612"
    },
    {
      "channel": 0,
      "note": 60,
      "start": 182.0078,
      "duration": 0.0296,
      "velocity": 99,
      "chip": "ym2612"
    },
    {
      "channel": 1,
      "note": 91,
      "start": 182.0084,
      "duration": 0.0634,
      "velocity": 101,
      "chip": "ym2612"
    },
    {
      "channel": 0,
      "note": 60,
      "start": 182.0413,
      "duration": 0.0302,
      "velocity": 99,
      "chip": "ym2612"
    },
    {
      "channel": 3,
      "note": 88,
      "start": 182.0424,
      "duration": 0.0644,
      "velocity": 101,
      "chip": "ym2612"
    },
    {
      "channel": 0,
      "note": 60,
      "start": 182.0751,
      "duration": 0.0308,
      "velocity": 99,
      "chip": "ym2612"
    },
    {
      "channel": 1,
      "note": 95,
      "start": 182.0757,
      "duration": 0.0305,
      "velocity": 101,
      "chip": "ym2612"
    },
    {
      "channel": 0,
      "note": 60,
      "start": 182.1089,
      "duration": 0.0675,
      "velocity": 99,
      "chip": "ym2612"
    },
    {
      "channel": 1,
      "note": 93,
      "start": 182.1095,
      "duration": 0.2819,
      "velocity": 101,
      "chip": "ym2612"
    },
    {
      "channel": 3,
      "note": 91,
      "start": 182.1104,
      "duration": 0.0669,
      "velocity": 101,
      "chip": "ym2612"
    },
    {
      "channel": 0,
      "note": 62,
      "start": 182.1922,
      "duration": 0.0298,
      "velocity": 99,
      "chip": "ym2612"
    },
    {
      "channel": 2,
      "note": 78,
      "start": 182.193,
      "duration": 0.5009,
      "velocity": 95,
      "chip": "ym2612"
    },
    {
      "channel": 3,
      "note": 95,
      "start": 182.1937,
      "duration": 0.2445,
      "velocity": 101,
      "chip": "ym2612"
    },
    {
      "channel": 4,
      "note": 79,
      "start": 182.2103,
      "duration": 0.5171,
      "velocity": 95,
      "chip": "ym2612"
    },
    {
      "channel": 0,
      "note": 62,
      "start": 182.2249,
      "duration": 0.1662,
      "velocity": 99,
      "chip": "ym2612"
    },
    {
      "channel": 0,
      "note": 62,
      "start": 182.4069,
      "duration": 0.0305,
      "velocity": 99,
      "chip": "ym2612"
    },
    {
      "channel": 1,
      "note": 90,
      "start": 182.4075,
      "duration": 0.1017,
      "velocity": 101,
      "chip": "ym2612"
    },
    {
      "channel": 0,
      "note": 62,
      "start": 182.4402,
      "duration": 0.0686,
      "velocity": 99,
      "chip": "ym2612"
    },
    {
      "channel": 3,
      "note": 93,
      "start": 182.4414,
      "duration": 0.1139,
      "velocity": 101,
      "chip": "ym2612"
    },
    {
      "channel": 0,
      "note": 62,
      "start": 182.5247,
      "duration": 0.0295,
      "velocity": 99,
      "chip": "ym2612"
    },
    {
      "channel": 1,
      "note": 88,
      "start": 182.5252,
      "duration": 0.0629,
      "velocity": 101,
      "chip": "ym2612"
    },
    {
      "channel": 0,
      "note": 62,
      "start": 182.5583,
      "duration": 0.0296,
      "velocity": 99,
      "chip": "ym2612"
    },
    {
      "channel": 3,
      "note": 90,
      "start": 182.5595,
      "duration": 0.0634,
      "velocity": 101,
      "chip": "ym2612"
    },
    {
      "channel": 0,
      "note": 62,
      "start": 182.5913,
      "duration": 0.0308,
      "velocity": 99,
      "chip": "ym2612"
    },
    {
      "channel": 1,
      "note": 86,
      "start": 182.5918,
      "duration": 0.1017,
      "velocity": 101,
      "chip": "ym2612"
    },
    {
      "channel": 0,
      "note": 62,
      "start": 182.6251,
      "duration": 0.0682,
      "velocity": 99,
      "chip": "ym2612"
    },
    {
      "channel": 3,
      "note": 88,
      "start": 182.6262,
      "duration": 0.1199,
      "velocity": 101,
      "chip": "ym2612"
    },
    {
      "channel": 0,
      "note": 60,
      "start": 182.7091,
      "duration": 0.0362,
      "velocity": 99,
      "chip": "ym2612"
    },
    {
      "channel": 1,
      "note": 84,
      "start": 182.7096,
      "duration": 0.1029,
      "velocity": 101,
      "chip": "ym2612"
    },
    {
      "channel": 2,
      "note": 76,
      "start": 182.712,
      "duration": 0.1009,
      "velocity": 101,
      "chip": "ym2612"
    },
    {
      "channel": 4,
      "note": 78,
      "start": 182.733,
      "duration": 0.0983,
      "velocity": 101,
      "chip": "ym2612"
    },
    {
      "channel": 0,
      "note": 60,
      "start": 182.7486,
      "duration": 0.0286,
      "velocity": 99,
      "chip": "ym2612"
    },
    {
      "channel": 3,
      "note": 86,
      "start": 182.7497,
      "duration": 0.0971,
      "velocity": 101,
      "chip": "ym2612"
    },
    {
      "channel": 0,
      "note": 60,
      "start": 182.782,
      "duration": 0.0303,
      "velocity": 99,
      "chip": "ym2612"
    },
    {
      "channel": 0,
      "note": 59,
      "start": 182.8155,
      "duration": 0.0305,
      "velocity": 99,
      "chip": "ym2612"
    },
    {
      "channel": 1,
      "note": 86,
      "start": 182.8161,
      "duration": 0.0961,
      "velocity": 101,
      "chip": "ym2612"
    },
    {
      "channel": 2,
      "note": 78,
      "start": 182.8166,
      "duration": 0.0959,
      "velocity": 101,
      "chip": "ym2612"
    },
    {
      "channel": 4,
      "note": 76,
      "start": 182.8341,
      "duration": 0.0976,
      "velocity": 101,
      "chip": "ym2612"
    },
    {
      "channel": 0,
      "note": 59,
      "start": 182.8499,
      "duration": 0.0292,
      "velocity": 99,
      "chip": "ym2612"
    },
    {
      "channel": 3,
      "note": 84,
      "start": 182.851,
      "duration": 0.0958,
      "velocity": 101,
      "chip": "ym2612"
    },
    {
      "channel": 0,
      "note": 59,
      "start": 182.8825,
      "duration": 0.0294,
      "velocity": 99,
      "chip": "ym2612"
    },
    {
      "channel": 0,
      "note": 57,
      "start": 182.9158,
      "duration": 0.0302,
      "velocity": 99,
      "chip": "ym2612"
    },
    {
      "channel": 1,
      "note": 88,
      "start": 182.9166,
      "duration": 0.0945,
      "velocity": 101,
      "chip": "ym2612"
    },
    {
      "channel": 2,
      "note": 79,
      "start": 182.9172,
      "duration": 0.0943,
      "velocity": 101,
      "chip": "ym2612"
    },
    {
      "channel": 4,
      "note": 78,
      "start": 182.9346,
      "duration": 0.0942,
      "velocity": 101,
      "chip": "ym2612"
    },
    {
      "channel": 0,
      "note": 57,
      "start": 182.9488,
      "duration": 0.0295,
      "velocity": 99,
      "chip": "ym2612"
    },
    {
      "channel": 3,
      "note": 86,
      "start": 182.9499,
      "duration": 0.0945,
      "velocity": 101,
      "chip": "ym2612"
    },
    {
      "channel": 0,
      "note": 57,
      "start": 182.9811,
      "duration": 0.0298,
      "velocity": 99,
      "chip": "ym2612"
    },
    {
      "channel": 0,
      "note": 59,
      "start": 183.0138,
      "duration": 0.0295,
      "velocity": 99,
      "chip": "ym2612"
    },
    {
      "channel": 1,
      "note": 90,
      "start": 183.0143,
      "duration": 0.0966,
      "velocity": 101,
      "chip": "ym2612"
    },
    {
      "channel": 2,
      "note": 81,
      "start": 183.0148,
      "duration": 0.0964,
      "velocity": 101,
      "chip": "ym2612"
    },
    {
      "channel": 4,
      "note": 79,
      "start": 183.0316,
      "duration": 0.0979,
      "velocity": 101,
      "chip": "ym2612"
    },
    {
      "channel": 0,
      "note": 59,
      "start": 183.0471,
      "duration": 0.0307,
      "velocity": 99,
      "chip": "ym2612"
    },
    {
      "channel": 3,
      "note": 88,
      "start": 183.0483,
      "duration": 0.0971,
      "velocity": 101,
      "chip": "ym2612"
    },
    {
      "channel": 0,
      "note": 59,
      "start": 183.0807,
      "duration": 0.0299,
      "velocity": 99,
      "chip": "ym2612"
    },
    {
      "channel": 0,
      "note": 60,
      "start": 183.1146,
      "duration": 0.03,
      "velocity": 99,
      "chip": "ym2612"
    },
    {
      "channel": 1,
      "note": 91,
      "start": 183.1151,
      "duration": 0.0631,
      "velocity": 101,
      "chip": "ym2612"
    },
    {
      "channel": 2,
      "note": 83,
      "start": 183.1156,
      "duration": 0.0517,
      "velocity": 101,
      "chip": "ym2612"
    },
    {
      "channel": 4,
      "note": 81,
      "start": 183.1325,
      "duration": 0.0551,
      "velocity": 101,
      "chip": "ym2612"
    },
    {
      "channel": 0,
      "note": 60,
      "start": 183.1482,
      "duration": 0.0297,
      "velocity": 99,
      "chip": "ym2612"
    },
    {
      "channel": 3,
      "note": 90,
      "start": 183.1493,
      "duration": 0.0651,
      "velocity": 101,
      "chip": "ym2612"
    },
    {
      "channel": 2,
      "note": 84,
      "start": 183.17,
      "duration": 0.0774,
      "velocity": 101,
      "chip": "ym2612"
    },
    {
      "channel": 0,
      "note": 59,
      "start": 183.1824,
      "duration": 0.0312,
      "velocity": 99,
      "chip": "ym2612"
    },
    {
      "channel": 1,
      "note": 93,
      "start": 183.183,
      "duration": 0.0641,
      "velocity": 101,
      "chip": "ym2612"
    },
    {
      "channel": 4,
      "note": 83,
      "start": 183.1904,
      "duration": 0.0025,
      "velocity": 101,
      "chip": "ym2612"
    },
    {
      "channel": 4,
      "note": 84,
      "start": 183.1958,
      "duration": 0.0026,
      "velocity": 101,
      "chip": "ym2612"
    },
    {
      "channel": 4,
      "note": 85,
      "start": 183.2017,
      "duration": 0.0639,
      "velocity": 101,
      "chip": "ym2612"
    },
    {
      "channel": 0,
      "note": 59,
      "start": 183.2176,
      "duration": 0.0292,
      "velocity": 99,
      "chip": "ym2612"
    },
    {
      "channel": 3,
      "note": 91,
      "start": 183.2187,
      "duration": 0.0625,
      "velocity": 101,
      "chip": "ym2612"
    },
    {
      "channel": 0,
      "note": 64,
      "start": 183.2502,
      "duration": 0.0301,
      "velocity": 99,
      "chip": "ym2612"
    },
    {
      "channel": 1,
      "note": 91,
      "start": 183.2507,
      "duration": 0.0298,
      "velocity": 101,
      "chip": "ym2612"
    },
    {
      "channel": 2,
      "note": 88,
      "start": 183.2512,
      "duration": 0.0296,
      "velocity": 101,
      "chip": "ym2612"
    },
    {
      "channel": 4,
      "note": 86,
      "start": 183.2685,
      "duration": 0.0885,
      "velocity": 101,
      "chip": "ym2612"
    },
    {
      "channel": 0,
      "note": 64,
      "start": 183.2831,
      "duration": 0.1666,
      "velocity": 99,
      "chip": "ym2612"
    },
    {
      "channel": 3,
      "note": 93,
      "start": 183.2844,
      "duration": 0.1661,
      "velocity": 101,
      "chip": "ym2612"
    },
    {
      "channel": 0,
      "note": 64,
      "start": 183.4655,
      "duration": 0.0323,
      "velocity": 99,
      "chip": "ym2612"
    },
    {
      "channel": 1,
      "note": 89,
      "start": 183.4661,
      "duration": 0.0321,
      "velocity": 101,
      "chip": "ym2612"
    },
    {
      "channel": 2,
      "note": 86,
      "start": 183.4671,
      "duration": 0.0313,
      "velocity": 101,
      "chip": "ym2612"
    },
    {
      "channel": 4,
      "note": 88,
      "start": 183.4859,
      "duration": 0.0317,
      "velocity": 101,
      "chip": "ym2612"
    },
    {
      "channel": 0,
      "note": 64,
      "start": 183.5007,
      "duration": 0.0661,
      "velocity": 99,
      "chip": "ym2612"
    },
    {
      "channel": 1,
      "note": 90,
      "start": 183.5016,
      "duration": 0.1109,
      "velocity": 101,
      "chip": "ym2612"
    },
    {
      "channel": 2,
      "note": 86,
      "start": 183.5022,
      "duration": 0.1106,
      "velocity": 101,
      "chip": "ym2612"
    },
    {
      "channel": 3,
      "note": 91,
      "start": 183.5028,
      "duration": 0.0647,
      "velocity": 101,
      "chip": "ym2612"
    },
    {
      "channel": 4,
      "note": 88,
      "start": 183.5205,
      "duration": 0.1106,
      "velocity": 101,
      "chip": "ym2612"
    },
    {
      "channel": 0,
      "note": 64,
      "start": 183.5826,
      "duration": 0.0297,
      "velocity": 99,
      "chip": "ym2612"
    },
    {
      "channel": 3,
      "note": 91,
      "start": 183.5838,
      "duration": 0.0635,
      "velocity": 101,
      "chip": "ym2612"
    },
    {
      "channel": 0,
      "note": 64,
      "start": 183.6168,
      "duration": 0.0297,
      "velocity": 99,
      "chip": "ym2612"
    },
    {
      "channel": 1,
      "note": 86,
      "start": 183.6173,
      "duration": 0.0295,
      "velocity": 101,
      "chip": "ym2612"
    },
    {
      "channel": 0,
      "note": 64,
      "start": 183.6493,
      "duration": 0.0286,
      "velocity": 99,
      "chip": "ym2612"
    },
    {
      "channel": 1,
      "note": 88,
      "start": 183.6498,
      "duration": 0.0283,
      "velocity": 101,
      "chip": "ym2612"
    },
    {
      "channel": 3,
      "note": 90,
      "start": 183.6507,
      "duration": 0.0284,
      "velocity": 101,
      "chip": "ym2612"
    },
    {
      "channel": 0,
      "note": 64,
      "start": 183.6811,
      "duration": 0.0686,
      "velocity": 99,
      "chip": "ym2612"
    },
    {
      "channel": 1,
      "note": 83,
      "start": 183.6817,
      "duration": 0.0682,
      "velocity": 101,
      "chip": "ym2612"
    },
    {
      "channel": 3,
      "note": 86,
      "start": 183.6829,
      "duration": 0.0676,
      "velocity": 101,
      "chip": "ym2612"
    },
    {
      "channel": 0,
      "note": 62,
      "start": 183.7655,
      "duration": 0.0311,
      "velocity": 99,
      "chip": "ym2612"
    },
    {
      "channel": 1,
      "note": 91,
      "start": 183.766,
      "duration": 0.0308,
      "velocity": 101,
      "chip": "ym2612"
    },
    {
      "channel": 2,
      "note": 88,
      "start": 183.7666,
      "duration": 0.0306,
      "velocity": 101,
      "chip": "ym2612"
    },
    {
      "channel": 3,
      "note": 88,
      "start": 183.7672,
      "duration": 0.0303,
      "velocity": 101,
      "chip": "ym2612"
    },
    {
      "channel": 4,
      "note": 86,
      "start": 183.7848,
      "duration": 0.0877,
      "velocity": 101,
      "chip": "ym2612"
    },
    {
      "channel": 0,
      "note": 62,
      "start": 183.7995,
      "duration": 0.1658,
      "velocity": 99,
      "chip": "ym2612"
    },
    {
      "channel": 3,
      "note": 83,
      "start": 183.8008,
      "duration": 0.1653,
      "velocity": 101,
      "chip": "ym2612"
    },
    {
      "channel": 0,
      "note": 62,
      "start": 183.9811,
      "duration": 0.0298,
      "velocity": 99,
      "chip": "ym2612"
    },
    {
      "channel": 1,
      "note": 91,
      "start": 183.9816,
      "duration": 0.0296,
      "velocity": 101,
      "chip": "ym2612"
    },
    {
      "channel": 2,
      "note": 88,
      "start": 183.9822,
      "duration": 0.0293,
      "velocity": 101,
      "chip": "ym2612"
    },
    {
      "channel": 4,
      "note": 88,
      "start": 183.999,
      "duration": 0.0302,
      "velocity": 101,
      "chip": "ym2612"
    },
    {
      "channel": 0,
      "note": 62,
      "start": 184.0142,
      "duration": 0.0681,
      "velocity": 99,
      "chip": "ym2612"
    },
    {
      "channel": 1,
      "note": 90,
      "start": 184.0147,
      "duration": 0.1129,
      "velocity": 101,
      "chip": "ym2612"
    },
    {
      "channel": 2,
      "note": 86,
      "start": 184.0152,
      "duration": 0.1127,
      "velocity": 101,
      "chip": "ym2612"
    },
    {
      "channel": 3,
      "note": 91,
      "start": 184.016,
      "duration": 0.0671,
      "velocity": 101,
      "chip": "ym2612"
    },
    {
      "channel": 4,
      "note": 88,
      "start": 184.032,
      "duration": 0.1133,
      "velocity": 101,
      "chip": "ym2612"
    },
    {
      "channel": 0,
      "note": 62,
      "start": 184.0981,
      "duration": 0.0292,
      "velocity": 99,
      "chip": "ym2612"
    },
    {
      "channel": 3,
      "note": 91,
      "start": 184.0992,
      "duration": 0.0613,
      "velocity": 101,
      "chip": "ym2612"
    },
    {
      "channel": 0,
      "note": 62,
      "start": 184.1307,
      "duration": 0.029,
      "velocity": 99,
      "chip": "ym2612"
    },
    {
      "channel": 1,
      "note": 86,
      "start": 184.1313,
      "duration": 0.0287,
      "velocity": 101,
      "chip": "ym2612"
    },
    {
      "channel": 0,
      "note": 62,
      "start": 184.1629,
      "duration": 0.0294,
      "velocity": 99,
      "chip": "ym2612"
    },
    {
      "channel": 1,
      "note": 88,
      "start": 184.1635,
      "duration": 0.0292,
      "velocity": 101,
      "chip": "ym2612"
    },
    {
      "channel": 3,
      "note": 90,
      "start": 184.1643,
      "duration": 0.0289,
      "velocity": 101,
      "chip": "ym2612"
    },
    {
      "channel": 0,
      "note": 62,
      "start": 184.1955,
      "duration": 0.0688,
      "velocity": 99,
      "chip": "ym2612"
    },
    {
      "channel": 1,
      "note": 83,
      "start": 184.196,
      "duration": 0.0685,
      "velocity": 101,
      "chip": "ym2612"
    },
    {
      "channel": 3,
      "note": 86,
      "start": 184.1969,
      "duration": 0.0683,
      "velocity": 101,
      "chip": "ym2612"
    },
    {
      "channel": 0,
      "note": 60,
      "start": 184.2801,
      "duration": 0.0303,
      "velocity": 99,
      "chip": "ym2612"
    },
    {
      "channel": 1,
      "note": 91,
      "start": 184.2809,
      "duration": 0.0298,
      "velocity": 101,
      "chip": "ym2612"
    },
    {
      "channel": 2,
      "note": 88,
      "start": 184.2815,
      "duration": 0.0295,
      "velocity": 101,
      "chip": "ym2612"
    },
    {
      "channel": 3,
      "note": 88,
      "start": 184.2821,
      "duration": 0.0292,
      "velocity": 101,
      "chip": "ym2612"
    },
    {
      "channel": 4,
      "note": 86,
      "start": 184.2992,
      "duration": 0.0876,
      "velocity": 101,
      "chip": "ym2612"
    },
    {
      "channel": 0,
      "note": 60,
      "start": 184.3132,
      "duration": 0.1661,
      "velocity": 99,
      "chip": "ym2612"
    },
    {
      "channel": 3,
      "note": 83,
      "start": 184.3145,
      "duration": 0.1656,
      "velocity": 101,
      "chip": "ym2612"
    },
    {
      "channel": 0,
      "note": 60,
      "start": 184.4951,
      "duration": 0.0308,
      "velocity": 99,
      "chip": "ym2612"
    },
    {
      "channel": 1,
      "note": 91,
      "start": 184.4957,
      "duration": 0.0306,
      "velocity": 101,
      "chip": "ym2612"
    },
    {
      "channel": 2,
      "note": 88,
      "start": 184.4962,
      "duration": 0.0303,
      "velocity": 101,
      "chip": "ym2612"
    },
    {
      "channel": 4,
      "note": 88,
      "start": 184.5131,
      "duration": 0.0303,
      "velocity": 101,
      "chip": "ym2612"
    },
    {
      "channel": 0,
      "note": 60,
      "start": 184.5288,
      "duration": 0.0673,
      "velocity": 99,
      "chip": "ym2612"
    },
    {
      "channel": 1,
      "note": 90,
      "start": 184.5294,
      "duration": 0.1117,
      "velocity": 101,
      "chip": "ym2612"
    },
    {
      "channel": 2,
      "note": 86,
      "start": 184.5299,
      "duration": 0.1115,
      "velocity": 101,
      "chip": "ym2612"
    },
    {
      "channel": 3,
      "note": 91,
      "start": 184.5305,
      "duration": 0.0667,
      "velocity": 101,
      "chip": "ym2612"
    },
    {
      "channel": 4,
      "note": 88,
      "start": 184.5463,
      "duration": 0.1142,
      "velocity": 101,
      "chip": "ym2612"
    },
    {
      "channel": 0,
      "note": 60,
      "start": 184.612,
      "duration": 0.0288,
      "velocity": 99,
      "chip": "ym2612"
    },
    {
      "channel": 3,
      "note": 91,
      "start": 184.6132,
      "duration": 0.0623,
      "velocity": 101,
      "chip": "ym2612"
    },
    {
      "channel": 0,
      "note": 60,
      "start": 184.645,
      "duration": 0.0297,
      "velocity": 99,
      "chip": "ym2612"
    },
    {
      "channel": 1,
      "note": 86,
      "start": 184.6456,
      "duration": 0.0294,
      "velocity": 101,
      "chip": "ym2612"
    },
    {
      "channel": 0,
      "note": 60,
      "start": 184.6777,
      "duration": 0.0302,
      "velocity": 99,
      "chip": "ym2612"
    },
    {
      "channel": 1,
      "note": 83,
      "start": 184.6782,
      "duration": 0.0134,
      "velocity": 101,
      "chip": "ym2612"
    },
    {
      "channel": 3,
      "note": 90,
      "start": 184.6791,
      "duration": 0.0296,
      "velocity": 101,
      "chip": "ym2612"
    },
    {
      "channel": 1,
      "note": 81,
      "start": 184.6946,
      "duration": 0.0135,
      "velocity": 101,
      "chip": "ym2612"
    },
    {
      "channel": 0,
      "note": 60,
      "start": 184.7107,
      "duration": 0.0676,
      "velocity": 99,
      "chip": "ym2612"
    },
    {
      "channel": 1,
      "note": 83,
      "start": 184.7113,
      "duration": 0.4772,
      "velocity": 101,
      "chip": "ym2612"
    },
    {
      "channel": 3,
      "note": 86,
      "start": 184.7122,
      "duration": 0.0128,
      "velocity": 101,
      "chip": "ym2612"
    },
    {
      "channel": 3,
      "note": 83,
      "start": 184.728,
      "duration": 0.0513,
      "velocity": 101,
      "chip": "ym2612"
    },
    {
      "channel": 0,
      "note": 59,
      "start": 184.7941,
      "duration": 0.03,
      "velocity": 99,
      "chip": "ym2612"
    },
    {
      "channel": 3,
      "note": 81,
      "start": 184.7953,
      "duration": 0.4284,
      "velocity": 101,
      "chip": "ym2612"
    },
    {
      "channel": 0,
      "note": 59,
      "start": 184.8267,
      "duration": 0.1659,
      "velocity": 99,
      "chip": "ym2612"
    },
    {
      "channel": 0,
      "note": 59,
      "start": 185.0084,
      "duration": 0.0352,
      "velocity": 99,
      "chip": "ym2612"
    },
    {
      "channel": 2,
      "note": 83,
      "start": 185.0111,
      "duration": 0.0833,
      "velocity": 95,
      "chip": "ym2612"
    },
    {
      "channel": 4,
      "note": 86,
      "start": 185.0315,
      "duration": 0.1087,
      "velocity": 95,
      "chip": "ym2612"
    },
    {
      "channel": 0,
      "note": 59,
      "start": 185.0464,
      "duration": 0.0631,
      "velocity": 99,
      "chip": "ym2612"
    },
    {
      "channel": 0,
      "note": 59,
      "start": 185.1254,
      "duration": 0.0299,
      "velocity": 99,
      "chip": "ym2612"
    },
    {
      "channel": 2,
      "note": 81,
      "start": 185.1262,
      "duration": 0.06,
      "velocity": 95,
      "chip": "ym2612"
    },
    {
      "channel": 4,
      "note": 83,
      "start": 185.1431,
      "duration": 0.0644,
      "velocity": 95,
      "chip": "ym2612"
    },
    {
      "channel": 0,
      "note": 59,
      "start": 185.1583,
      "duration": 0.0299,
      "velocity": 99,
      "chip": "ym2612"
    },
    {
      "channel": 0,
      "note": 59,
      "start": 185.192,
      "duration": 0.031,
      "velocity": 99,
      "chip": "ym2612"
    },
    {
      "channel": 2,
      "note": 78,
      "start": 185.1928,
      "duration": 0.0859,
      "velocity": 95,
      "chip": "ym2612"
    },
    {
      "channel": 4,
      "note": 81,
      "start": 185.2107,
      "duration": 0.114,
      "velocity": 95,
      "chip": "ym2612"
    },
    {
      "channel": 0,
      "note": 59,
      "start": 185.2259,
      "duration": 0.068,
      "velocity": 99,
      "chip": "ym2612"
    },
    {
      "channel": 0,
      "note": 60,
      "start": 185.3097,
      "duration": 0.0293,
      "velocity": 99,
      "chip": "ym2612"
    },
    {
      "channel": 1,
      "note": 84,
      "start": 185.3102,
      "duration": 0.1986,
      "velocity": 101,
      "chip": "ym2612"
    },
    {
      "channel": 2,
      "note": 79,
      "start": 185.3108,
      "duration": 0.4862,
      "velocity": 95,
      "chip": "ym2612"
    },
    {
      "channel": 4,
      "note": 78,
      "start": 185.3276,
      "duration": 0.5152,
      "velocity": 95,
      "chip": "ym2612"
    },
    {
      "channel": 0,
      "note": 60,
      "start": 185.3421,
      "duration": 0.1665,
      "velocity": 99,
      "chip": "ym2612"
    },
    {
      "channel": 3,
      "note": 83,
      "start": 185.3436,
      "duration": 0.2115,
      "velocity": 101,
      "chip": "ym2612"
    },
    {
      "channel": 0,
      "note": 60,
      "start": 185.5243,
      "duration": 0.03,
      "velocity": 99,
      "chip": "ym2612"
    },
    {
      "channel": 1,
      "note": 88,
      "start": 185.5249,
      "duration": 0.102,
      "velocity": 101,
      "chip": "ym2612"
    },
    {
      "channel": 0,
      "note": 60,
      "start": 185.5571,
      "duration": 0.0695,
      "velocity": 99,
      "chip": "ym2612"
    },
    {
      "channel": 3,
      "note": 84,
      "start": 185.5582,
      "duration": 0.114,
      "velocity": 101,
      "chip": "ym2612"
    },
    {
      "channel": 0,
      "note": 60,
      "start": 185.6425,
      "duration": 0.0288,
      "velocity": 99,
      "chip": "ym2612"
    },
    {
      "channel": 1,
      "note": 91,
      "start": 185.643,
      "duration": 0.0623,
      "velocity": 101,
      "chip": "ym2612"
    },
    {
      "channel": 0,
      "note": 60,
      "start": 185.6761,
      "duration": 0.0289,
      "velocity": 99,
      "chip": "ym2612"
    },
    {
      "channel": 3,
      "note": 88,
      "start": 185.6773,
      "duration": 0.0632,
      "velocity": 101,
      "chip": "ym2612"
    },
    {
      "channel": 0,
      "note": 60,
      "start": 185.7093,
      "duration": 0.0302,
      "velocity": 99,
      "chip": "ym2612"
    },
    {
      "channel": 1,
      "note": 95,
      "start": 185.7099,
      "duration": 0.03,
      "velocity": 101,
      "chip": "ym2612"
    },
    {
      "channel": 0,
      "note": 60,
      "start": 185.7426,
      "duration": 0.0695,
      "velocity": 99,
      "chip": "ym2612"
    },
    {
      "channel": 1,
      "note": 93,
      "start": 185.7431,
      "duration": 0.284,
      "velocity": 101,
      "chip": "ym2612"
    },
    {
      "channel": 3,
      "note": 91,
      "start": 185.744,
      "duration": 0.0689,
      "velocity": 101,
      "chip": "ym2612"
    },
    {
      "channel": 0,
      "note": 62,
      "start": 185.8279,
      "duration": 0.0295,
      "velocity": 99,
      "chip": "ym2612"
    },
    {
      "channel": 2,
      "note": 78,
      "start": 185.8287,
      "duration": 0.4842,
      "velocity": 95,
      "chip": "ym2612"
    },
    {
      "channel": 3,
      "note": 95,
      "start": 185.8293,
      "duration": 0.245,
      "velocity": 101,
      "chip": "ym2612"
    },
    {
      "channel": 4,
      "note": 79,
      "start": 185.8455,
      "duration": 0.5132,
      "velocity": 95,
      "chip": "ym2612"
    },
    {
      "channel": 0,
      "note": 62,
      "start": 185.8603,
      "duration": 0.1665,
      "velocity": 99,
      "chip": "ym2612"
    },
    {
      "channel": 0,
      "note": 62,
      "start": 186.043,
      "duration": 0.0306,
      "velocity": 99,
      "chip": "ym2612"
    },
    {
      "channel": 1,
      "note": 90,
      "start": 186.0435,
      "duration": 0.1019,
      "velocity": 101,
      "chip": "ym2612"
    },
    {
      "channel": 0,
      "note": 62,
      "start": 186.0764,
      "duration": 0.0688,
      "velocity": 99,
      "chip": "ym2612"
    },
    {
      "channel": 3,
      "note": 93,
      "start": 186.0775,
      "duration": 0.114,
      "velocity": 101,
      "chip": "ym2612"
    },
    {
      "channel": 0,
      "note": 62,
      "start": 186.161,
      "duration": 0.0297,
      "velocity": 99,
      "chip": "ym2612"
    },
    {
      "channel": 1,
      "note": 88,
      "start": 186.1615,
      "duration": 0.0627,
      "velocity": 101,
      "chip": "ym2612"
    },
    {
      "channel": 0,
      "note": 62,
      "start": 186.1951,
      "duration": 0.0285,
      "velocity": 99,
      "chip": "ym2612"
    },
    {
      "channel": 3,
      "note": 90,
      "start": 186.1963,
      "duration": 0.0608,
      "velocity": 101,
      "chip": "ym2612"
    },
    {
      "channel": 0,
      "note": 62,
      "start": 186.2268,
      "duration": 0.0293,
      "velocity": 99,
      "chip": "ym2612"
    },
    {
      "channel": 1,
      "note": 86,
      "start": 186.2274,
      "duration": 0.1009,
      "velocity": 101,
      "chip": "ym2612"
    },
    {
      "channel": 0,
      "note": 62,
      "start": 186.2591,
      "duration": 0.0689,
      "velocity": 99,
      "chip": "ym2612"
    },
    {
      "channel": 3,
      "note": 88,
      "start": 186.2602,
      "duration": 0.1146,
      "velocity": 101,
      "chip": "ym2612"
    },
    {
      "channel": 0,
      "note": 64,
      "start": 186.3438,
      "duration": 0.0301,
      "velocity": 99,
      "chip": "ym2612"
    },
    {
      "channel": 1,
      "note": 88,
      "start": 186.3444,
      "duration": 0.5016,
      "velocity": 101,
      "chip": "ym2612"
    },
    {
      "channel": 2,
      "note": 79,
      "start": 186.3449,
      "duration": 0.4856,
      "velocity": 95,
      "chip": "ym2612"
    },
    {
      "channel": 4,
      "note": 78,
      "start": 186.3619,
      "duration": 0.5227,
      "velocity": 95,
      "chip": "ym2612"
    },
    {
      "channel": 0,
      "note": 64,
      "start": 186.3768,
      "duration": 0.1664,
      "velocity": 99,
      "chip": "ym2612"
    },
    {
      "channel": 3,
      "note": 86,
      "start": 186.3778,
      "duration": 0.4687,
      "velocity": 101,
      "chip": "ym2612"
    },
    {
      "channel": 0,
      "note": 64,
      "start": 186.559,
      "duration": 0.0302,
      "velocity": 99,
      "chip": "ym2612"
    },
    {
      "channel": 0,
      "note": 64,
      "start": 186.592,
      "duration": 0.0683,
      "velocity": 99,
      "chip": "ym2612"
    },
    {
      "channel": 0,
      "note": 64,
      "start": 186.6762,
      "duration": 0.0309,
      "velocity": 99,
      "chip": "ym2612"
    },
    {
      "channel": 0,
      "note": 64,
      "start": 186.7103,
      "duration": 0.0304,
      "velocity": 99,
      "chip": "ym2612"
    },
    {
      "channel": 0,
      "note": 64,
      "start": 186.7444,
      "duration": 0.0306,
      "velocity": 99,
      "chip": "ym2612"
    },
    {
      "channel": 0,
      "note": 64,
      "start": 186.7782,
      "duration": 0.0675,
      "velocity": 99,
      "chip": "ym2612"
    },
    {
      "channel": 0,
      "note": 62,
      "start": 186.8615,
      "duration": 0.0215,
      "velocity": 99,
      "chip": "ym2612"
    },
    {
      "channel": 3,
      "note": 88,
      "start": 186.8694,
      "duration": 0.0144,
      "velocity": 98,
      "chip": "ym2612"
    },
    {
      "channel": 0,
      "note": 63,
      "start": 186.8869,
      "duration": 0.0175,
      "velocity": 99,
      "chip": "ym2612"
    },
    {
      "channel": 3,
      "note": 62,
      "start": 186.888,
      "duration": 0.0172,
      "velocity": 98,
      "chip": "ym2612"
    },
    {
      "channel": 4,
      "note": 79,
      "start": 186.8919,
      "duration": 0.0137,
      "velocity": 98,
      "chip": "ym2612"
    },
    {
      "channel": 0,
      "note": 64,
      "start": 186.9076,
      "duration": 0.0146,
      "velocity": 99,
      "chip": "ym2612"
    },
    {
      "channel": 1,
      "note": 83,
      "start": 186.9081,
      "duration": 0.0307,
      "velocity": 99,
      "chip": "ym2612"
    },
    {
      "channel": 3,
      "note": 63,
      "start": 186.9089,
      "duration": 0.014,
      "velocity": 98,
      "chip": "ym2612"
    },
    {
      "channel": 4,
      "note": 62,
      "start": 186.9096,
      "duration": 0.0137,
      "velocity": 98,
      "chip": "ym2612"
    },
    {
      "channel": 2,
      "note": 83,
      "start": 186.9152,
      "duration": 0.0312,
      "velocity": 99,
      "chip": "ym2612"
    },
    {
      "channel": 4,
      "note": 63,
      "start": 186.9263,
      "duration": 0.0134,
      "velocity": 98,
      "chip": "ym2612"
    },
    {
      "channel": 0,
      "note": 62,
      "start": 186.9413,
      "duration": 0.0148,
      "velocity": 99,
      "chip": "ym2612"
    },
    {
      "channel": 1,
      "note": 88,
      "start": 186.9418,
      "duration": 0.0327,
      "velocity": 99,
      "chip": "ym2612"
    },
    {
      "channel": 3,
      "note": 64,
      "start": 186.9427,
      "duration": 0.0142,
      "velocity": 98,
      "chip": "ym2612"
    },
    {
      "channel": 2,
      "note": 88,
      "start": 186.9492,
      "duration": 0.0349,
      "velocity": 99,
      "chip": "ym2612"
    },
    {
      "channel": 0,
      "note": 63,
      "start": 186.9597,
      "duration": 0.0146,
      "velocity": 99,
      "chip": "ym2612"
    },
    {
      "channel": 3,
      "note": 62,
      "start": 186.9608,
      "duration": 0.0143,
      "velocity": 98,
      "chip": "ym2612"
    },
    {
      "channel": 4,
      "note": 64,
      "start": 186.9615,
      "duration": 0.014,
      "velocity": 98,
      "chip": "ym2612"
    },
    {
      "channel": 0,
      "note": 64,
      "start": 186.9788,
      "duration": 0.0154,
      "velocity": 99,
      "chip": "ym2612"
    },
    {
      "channel": 1,
      "note": 91,
      "start": 186.9794,
      "duration": 0.0309,
      "velocity": 99,
      "chip": "ym2612"
    },
    {
      "channel": 3,
      "note": 63,
      "start": 186.9806,
      "duration": 0.0144,
      "velocity": 98,
      "chip": "ym2612"
    },
    {
      "channel": 4,
      "note": 62,
      "start": 186.9813,
      "duration": 0.014,
      "velocity": 98,
      "chip": "ym2612"
    },
    {
      "channel": 2,
      "note": 91,
      "start": 186.9871,
      "duration": 0.0321,
      "velocity": 99,
      "chip": "ym2612"
    },
    {
      "channel": 4,
      "note": 63,
      "start": 186.9985,
      "duration": 0.0128,
      "velocity": 98,
      "chip": "ym2612"
    },
    {
      "channel": 0,
      "note": 67,
      "start": 187.0146,
      "duration": 0.0303,
      "velocity": 99,
      "chip": "ym2612"
    },
    {
      "channel": 1,
      "note": 95,
      "start": 187.0151,
      "duration": 0.0301,
      "velocity": 99,
      "chip": "ym2612"
    },
    {
      "channel": 3,
      "note": 64,
      "start": 187.016,
      "duration": 0.0298,
      "velocity": 98,
      "chip": "ym2612"
    },
    {
      "channel": 2,
      "note": 95,
      "start": 187.0218,
      "duration": 0.0316,
      "velocity": 99,
      "chip": "ym2612"
    },
    {
      "channel": 4,
      "note": 64,
      "start": 187.0335,
      "duration": 0.0305,
      "velocity": 98,
      "chip": "ym2612"
    },
    {
      "channel": 0,
      "note": 64,
      "start": 187.0486,
      "duration": 0.0305,
      "velocity": 99,
      "chip": "ym2612"
    },
    {
      "channel": 1,
      "note": 93,
      "start": 187.0492,
      "duration": 0.0303,
      "velocity": 99,
      "chip": "ym2612"
    },
    {
      "channel": 3,
      "note": 67,
      "start": 187.05,
      "duration": 0.0618,
      "velocity": 98,
      "chip": "ym2612"
    },
    {
      "channel": 2,
      "note": 93,
      "start": 187.0561,
      "duration": 0.029,
      "velocity": 99,
      "chip": "ym2612"
    },
    {
      "channel": 4,
      "note": 67,
      "start": 187.067,
      "duration": 0.0633,
      "velocity": 98,
      "chip": "ym2612"
    },
    {
      "channel": 0,
      "note": 64,
      "start": 187.0819,
      "duration": 0.029,
      "velocity": 99,
      "chip": "ym2612"
    },
    {
      "channel": 1,
      "note": 91,
      "start": 187.0824,
      "duration": 0.0289,
      "velocity": 99,
      "chip": "ym2612"
    },
    {
      "channel": 2,
      "note": 91,
      "start": 187.0878,
      "duration": 0.0316,
      "velocity": 99,
      "chip": "ym2612"
    },
    {
      "channel": 0,
      "note": 62,
      "start": 187.1145,
      "duration": 0.03,
      "velocity": 99,
      "chip": "ym2612"
    },
    {
      "channel": 1,
      "note": 88,
      "start": 187.1151,
      "duration": 0.0297,
      "velocity": 99,
      "chip": "ym2612"
    },
    {
      "channel": 3,
      "note": 64,
      "start": 187.116,
      "duration": 0.0293,
      "velocity": 98,
      "chip": "ym2612"
    },
    {
      "channel": 2,
      "note": 88,
      "start": 187.1222,
      "duration": 0.0228,
      "velocity": 99,
      "chip": "ym2612"
    },
    {
      "channel": 4,
      "note": 64,
      "start": 187.133,
      "duration": 0.0367,
      "velocity": 98,
      "chip": "ym2612"
    },
    {
      "channel": 0,
      "note": 60,
      "start": 187.1473,
      "duration": 0.0394,
      "velocity": 99,
      "chip": "ym2612"
    },
    {
      "channel": 1,
      "note": 83,
      "start": 187.1499,
      "duration": 0.5,
      "velocity": 99,
      "chip": "ym2612"
    },
    {
      "channel": 0,
      "note": 60,
      "start": 187.1895,
      "duration": 0.1568,
      "velocity": 99,
      "chip": "ym2612"
    },
    {
      "channel": 2,
      "note": 83,
      "start": 187.1903,
      "duration": 0.5053,
      "velocity": 99,
      "chip": "ym2612"
    },
    {
      "channel": 3,
      "note": 62,
      "start": 187.1909,
      "duration": 0.1563,
      "velocity": 92,
      "chip": "ym2612"
    },
    {
      "channel": 4,
      "note": 62,
      "start": 187.2699,
      "duration": 0.5015,
      "velocity": 99,
      "chip": "ym2612"
    },
    {
      "channel": 0,
      "note": 60,
      "start": 187.3622,
      "duration": 0.0299,
      "velocity": 99,
      "chip": "ym2612"
    },
    {
      "channel": 3,
      "note": 67,
      "start": 187.3633,
      "duration": 0.0297,
      "velocity": 92,
      "chip": "ym2612"
    },
    {
      "channel": 0,
      "note": 60,
      "start": 187.3954,
      "duration": 0.0677,
      "velocity": 99,
      "chip": "ym2612"
    },
    {
      "channel": 3,
      "note": 76,
      "start": 187.3966,
      "duration": 0.0673,
      "velocity": 92,
      "chip": "ym2612"
    },
    {
      "channel": 0,
      "note": 60,
      "start": 187.4793,
      "duration": 0.0305,
      "velocity": 99,
      "chip": "ym2612"
    },
    {
      "channel": 3,
      "note": 67,
      "start": 187.4805,
      "duration": 0.0301,
      "velocity": 92,
      "chip": "ym2612"
    },
    {
      "channel": 0,
      "note": 60,
      "start": 187.5143,
      "duration": 0.0307,
      "velocity": 99,
      "chip": "ym2612"
    },
    {
      "channel": 3,
      "note": 79,
      "start": 187.5155,
      "duration": 0.0304,
      "velocity": 92,
      "chip": "ym2612"
    },
    {
      "channel": 0,
      "note": 60,
      "start": 187.5483,
      "duration": 0.0311,
      "velocity": 99,
      "chip": "ym2612"
    },
    {
      "channel": 3,
      "note": 67,
      "start": 187.5495,
      "duration": 0.0308,
      "velocity": 92,
      "chip": "ym2612"
    },
    {
      "channel": 0,
      "note": 60,
      "start": 187.5826,
      "duration": 0.067,
      "velocity": 99,
      "chip": "ym2612"
    },
    {
      "channel": 3,
      "note": 76,
      "start": 187.5838,
      "duration": 0.0668,
      "velocity": 92,
      "chip": "ym2612"
    },
    {
      "channel": 0,
      "note": 62,
      "start": 187.6652,
      "duration": 0.0299,
      "velocity": 99,
      "chip": "ym2612"
    },
    {
      "channel": 1,
      "note": 81,
      "start": 187.6657,
      "duration": 0.3152,
      "velocity": 99,
      "chip": "ym2612"
    },
    {
      "channel": 0,
      "note": 62,
      "start": 187.6979,
      "duration": 0.1662,
      "velocity": 99,
      "chip": "ym2612"
    },
    {
      "channel": 2,
      "note": 81,
      "start": 187.6987,
      "duration": 0.3283,
      "velocity": 99,
      "chip": "ym2612"
    },
    {
      "channel": 3,
      "note": 67,
      "start": 187.6993,
      "duration": 0.1657,
      "velocity": 92,
      "chip": "ym2612"
    },
    {
      "channel": 4,
      "note": 83,
      "start": 187.7873,
      "duration": 0.2598,
      "velocity": 99,
      "chip": "ym2612"
    },
    {
      "channel": 0,
      "note": 62,
      "start": 187.88,
      "duration": 0.03,
      "velocity": 99,
      "chip": "ym2612"
    },
    {
      "channel": 3,
      "note": 66,
      "start": 187.8811,
      "duration": 0.0298,
      "velocity": 92,
      "chip": "ym2612"
    },
    {
      "channel": 0,
      "note": 62,
      "start": 187.9129,
      "duration": 0.0676,
      "velocity": 99,
      "chip": "ym2612"
    },
    {
      "channel": 3,
      "note": 74,
      "start": 187.914,
      "duration": 0.0675,
      "velocity": 92,
      "chip": "ym2612"
    },
    {
      "channel": 0,
      "note": 62,
      "start": 187.9964,
      "duration": 0.03,
      "velocity": 99,
      "chip": "ym2612"
    },
    {
      "channel": 1,
      "note": 86,
      "start": 187.9969,
      "duration": 0.1698,
      "velocity": 99,
      "chip": "ym2612"
    },
    {
      "channel": 3,
      "note": 66,
      "start": 187.9979,
      "duration": 0.0294,
      "velocity": 92,
      "chip": "ym2612"
    },
    {
      "channel": 0,
      "note": 62,
      "start": 188.0312,
      "duration": 0.0302,
      "velocity": 99,
      "chip": "ym2612"
    },
    {
      "channel": 2,
      "note": 86,
      "start": 188.032,
      "duration": 0.1804,
      "velocity": 99,
      "chip": "ym2612"
    },
    {
      "channel": 3,
      "note": 78,
      "start": 188.0326,
      "duration": 0.0296,
      "velocity": 92,
      "chip": "ym2612"
    },
    {
      "channel": 4,
      "note": 81,
      "start": 188.0499,
      "duration": 0.2382,
      "velocity": 99,
      "chip": "ym2612"
    },
    {
      "channel": 0,
      "note": 62,
      "start": 188.0652,
      "duration": 0.0303,
      "velocity": 99,
      "chip": "ym2612"
    },
    {
      "channel": 3,
      "note": 66,
      "start": 188.0663,
      "duration": 0.03,
      "velocity": 92,
      "chip": "ym2612"
    },
    {
      "channel": 0,
      "note": 60,
      "start": 188.0985,
      "duration": 0.0679,
      "velocity": 99,
      "chip": "ym2612"
    },
    {
      "channel": 3,
      "note": 74,
      "start": 188.0997,
      "duration": 0.0676,
      "velocity": 92,
      "chip": "ym2612"
    },
    {
      "channel": 0,
      "note": 59,
      "start": 188.1823,
      "duration": 0.0295,
      "velocity": 99,
      "chip": "ym2612"
    },
    {
      "channel": 1,
      "note": 78,
      "start": 188.1829,
      "duration": 0.0292,
      "velocity": 99,
      "chip": "ym2612"
    },
    {
      "channel": 0,
      "note": 59,
      "start": 188.2146,
      "duration": 0.1662,
      "velocity": 99,
      "chip": "ym2612"
    },
    {
      "channel": 1,
      "note": 79,
      "start": 188.2152,
      "duration": 0.1659,
      "velocity": 99,
      "chip": "ym2612"
    },
    {
      "channel": 2,
      "note": 78,
      "start": 188.2157,
      "duration": 0.1656,
      "velocity": 99,
      "chip": "ym2612"
    },
    {
      "channel": 3,
      "note": 66,
      "start": 188.2163,
      "duration": 0.1653,
      "velocity": 92,
      "chip": "ym2612"
    },
    {
      "channel": 4,
      "note": 86,
      "start": 188.304,
      "duration": 0.1088,
      "velocity": 99,
      "chip": "ym2612"
    },
    {
      "channel": 0,
      "note": 59,
      "start": 188.3966,
      "duration": 0.0311,
      "velocity": 99,
      "chip": "ym2612"
    },
    {
      "channel": 1,
      "note": 81,
      "start": 188.3972,
      "duration": 0.0308,
      "velocity": 99,
      "chip": "ym2612"
    },
    {
      "channel": 2,
      "note": 79,
      "start": 188.3977,
      "duration": 0.0306,
      "velocity": 99,
      "chip": "ym2612"
    },
    {
      "channel": 3,
      "note": 66,
      "start": 188.3983,
      "duration": 0.0303,
      "velocity": 92,
      "chip": "ym2612"
    },
    {
      "channel": 4,
      "note": 78,
      "start": 188.4157,
      "duration": 0.0294,
      "velocity": 99,
      "chip": "ym2612"
    },
    {
      "channel": 0,
      "note": 59,
      "start": 188.4307,
      "duration": 0.0672,
      "velocity": 99,
      "chip": "ym2612"
    },
    {
      "channel": 1,
      "note": 81,
      "start": 188.4312,
      "duration": 0.112,
      "velocity": 99,
      "chip": "ym2612"
    },
    {
      "channel": 2,
      "note": 81,
      "start": 188.4317,
      "duration": 0.0666,
      "velocity": 99,
      "chip": "ym2612"
    },
    {
      "channel": 3,
      "note": 74,
      "start": 188.4324,
      "duration": 0.0663,
      "velocity": 92,
      "chip": "ym2612"
    },
    {
      "channel": 4,
      "note": 79,
      "start": 188.4479,
      "duration": 0.0804,
      "velocity": 99,
      "chip": "ym2612"
    },
    {
      "channel": 0,
      "note": 59,
      "start": 188.5137,
      "duration": 0.0292,
      "velocity": 99,
      "chip": "ym2612"
    },
    {
      "channel": 2,
      "note": 81,
      "start": 188.5145,
      "duration": 0.0624,
      "velocity": 99,
      "chip": "ym2612"
    },
    {
      "channel": 3,
      "note": 66,
      "start": 188.5151,
      "duration": 0.0287,
      "velocity": 92,
      "chip": "ym2612"
    },
    {
      "channel": 4,
      "note": 81,
      "start": 188.5313,
      "duration": 0.0651,
      "velocity": 99,
      "chip": "ym2612"
    },
    {
      "channel": 0,
      "note": 59,
      "start": 188.5469,
      "duration": 0.0294,
      "velocity": 99,
      "chip": "ym2612"
    },
    {
      "channel": 1,
      "note": 83,
      "start": 188.5477,
      "duration": 0.0288,
      "velocity": 99,
      "chip": "ym2612"
    },
    {
      "channel": 3,
      "note": 78,
      "start": 188.5486,
      "duration": 0.0286,
      "velocity": 92,
      "chip": "ym2612"
    },
    {
      "channel": 0,
      "note": 59,
      "start": 188.5802,
      "duration": 0.0314,
      "velocity": 99,
      "chip": "ym2612"
    },
    {
      "channel": 1,
      "note": 81,
      "start": 188.5807,
      "duration": 0.0209,
      "velocity": 99,
      "chip": "ym2612"
    },
    {
      "channel": 2,
      "note": 83,
      "start": 188.5812,
      "duration": 0.0309,
      "velocity": 99,
      "chip": "ym2612"
    },
    {
      "channel": 3,
      "note": 66,
      "start": 188.5819,
      "duration": 0.0306,
      "velocity": 92,
      "chip": "ym2612"
    },
    {
      "channel": 4,
      "note": 81,
      "start": 188.5996,
      "duration": 0.0296,
      "velocity": 99,
      "chip": "ym2612"
    },
    {
      "channel": 1,
      "note": 79,
      "start": 188.6044,
      "duration": 0.0186,
      "velocity": 99,
      "chip": "ym2612"
    },
    {
      "channel": 0,
      "note": 59,
      "start": 188.6145,
      "duration": 0.0672,
      "velocity": 99,
      "chip": "ym2612"
    },
    {
      "channel": 2,
      "note": 81,
      "start": 188.6153,
      "duration": 0.0187,
      "velocity": 99,
      "chip": "ym2612"
    },
    {
      "channel": 3,
      "note": 74,
      "start": 188.6159,
      "duration": 0.0666,
      "velocity": 92,
      "chip": "ym2612"
    },
    {
      "channel": 1,
      "note": 78,
      "start": 188.6257,
      "duration": 0.0563,
      "velocity": 99,
      "chip": "ym2612"
    },
    {
      "channel": 4,
      "note": 83,
      "start": 188.632,
      "duration": 0.0705,
      "velocity": 99,
      "chip": "ym2612"
    },
    {
      "channel": 2,
      "note": 79,
      "start": 188.6372,
      "duration": 0.07,
      "velocity": 99,
      "chip": "ym2612"
    },
    {
      "channel": 0,
      "note": 52,
      "start": 188.6976,
      "duration": 0.0296,
      "velocity": 99,
      "chip": "ym2612"
    },
    {
      "channel": 1,
      "note": 76,
      "start": 188.6981,
      "duration": 0.5018,
      "velocity": 99,
      "chip": "ym2612"
    },
    {
      "channel": 4,
      "note": 81,
      "start": 188.7052,
      "duration": 0.0174,
      "velocity": 99,
      "chip": "ym2612"
    },
    {
      "channel": 2,
      "note": 78,
      "start": 188.7099,
      "duration": 0.0178,
      "velocity": 99,
      "chip": "ym2612"
    },
    {
      "channel": 4,
      "note": 79,
      "start": 188.7256,
      "duration": 0.0784,
      "velocity": 99,
      "chip": "ym2612"
    },
    {
      "channel": 0,
      "note": 64,
      "start": 188.7303,
      "duration": 0.1664,
      "velocity": 99,
      "chip": "ym2612"
    },
    {
      "channel": 2,
      "note": 76,
      "start": 188.7312,
      "duration": 0.5147,
      "velocity": 99,
      "chip": "ym2612"
    },
    {
      "channel": 3,
      "note": 66,
      "start": 188.7319,
      "duration": 0.1657,
      "velocity": 92,
      "chip": "ym2612"
    },
    {
      "channel": 4,
      "note": 78,
      "start": 188.8199,
      "duration": 0.5022,
      "velocity": 99,
      "chip": "ym2612"
    },
    {
      "channel": 0,
      "note": 54,
      "start": 188.9126,
      "duration": 0.0305,
      "velocity": 99,
      "chip": "ym2612"
    },
    {
      "channel": 3,
      "note": 67,
      "start": 188.9137,
      "duration": 0.0302,
      "velocity": 92,
      "chip": "ym2612"
    },
    {
      "channel": 0,
      "note": 66,
      "start": 188.946,
      "duration": 0.069,
      "velocity": 99,
      "chip": "ym2612"
    },
    {
      "channel": 3,
      "note": 76,
      "start": 188.9471,
      "duration": 0.0687,
      "velocity": 92,
      "chip": "ym2612"
    },
    {
      "channel": 0,
      "note": 55,
      "start": 189.0308,
      "duration": 0.0302,
      "velocity": 99,
      "chip": "ym2612"
    },
    {
      "channel": 3,
      "note": 67,
      "start": 189.032,
      "duration": 0.0298,
      "velocity": 92,
      "chip": "ym2612"
    },
    {
      "channel": 0,
      "note": 67,
      "start": 189.0648,
      "duration": 0.0299,
      "velocity": 99,
      "chip": "ym2612"
    },
    {
      "channel": 3,
      "note": 79,
      "start": 189.066,
      "duration": 0.0295,
      "velocity": 92,
      "chip": "ym2612"
    },
    {
      "channel": 0,
      "note": 59,
      "start": 189.0978,
      "duration": 0.0307,
      "velocity": 99,
      "chip": "ym2612"
    },
    {
      "channel": 3,
      "note": 67,
      "start": 189.0989,
      "duration": 0.0305,
      "velocity": 92,
      "chip": "ym2612"
    },
    {
      "channel": 0,
      "note": 71,
      "start": 189.1315,
      "duration": 0.0682,
      "velocity": 99,
      "chip": "ym2612"
    },
    {
      "channel": 3,
      "note": 76,
      "start": 189.1327,
      "duration": 0.0679,
      "velocity": 92,
      "chip": "ym2612"
    },
    {
      "channel": 0,
      "note": 60,
      "start": 189.2155,
      "duration": 0.03,
      "velocity": 99,
      "chip": "ym2612"
    },
    {
      "channel": 1,
      "note": 72,
      "start": 189.216,
      "duration": 0.3167,
      "velocity": 99,
      "chip": "ym2612"
    },
    {
      "channel": 0,
      "note": 60,
      "start": 189.2486,
      "duration": 0.1663,
      "velocity": 99,
      "chip": "ym2612"
    },
    {
      "channel": 2,
      "note": 72,
      "start": 189.2493,
      "duration": 0.3302,
      "velocity": 99,
      "chip": "ym2612"
    },
    {
      "channel": 3,
      "note": 67,
      "start": 189.25,
      "duration": 0.1657,
      "velocity": 92,
      "chip": "ym2612"
    },
    {
      "channel": 4,
      "note": 76,
      "start": 189.3379,
      "duration": 0.2594,
      "velocity": 99,
      "chip": "ym2612"
    },
    {
      "channel": 0,
      "note": 60,
      "start": 189.4306,
      "duration": 0.0302,
      "velocity": 99,
      "chip": "ym2612"
    },
    {
      "channel": 3,
      "note": 67,
      "start": 189.4321,
      "duration": 0.0295,
      "velocity": 92,
      "chip": "ym2612"
    },
    {
      "channel": 0,
      "note": 60,
      "start": 189.4637,
      "duration": 0.0688,
      "velocity": 99,
      "chip": "ym2612"
    },
    {
      "channel": 3,
      "note": 76,
      "start": 189.4649,
      "duration": 0.0685,
      "velocity": 92,
      "chip": "ym2612"
    },
    {
      "channel": 0,
      "note": 60,
      "start": 189.5483,
      "duration": 0.0307,
      "velocity": 99,
      "chip": "ym2612"
    },
    {
      "channel": 1,
      "note": 83,
      "start": 189.5488,
      "duration": 0.169,
      "velocity": 99,
      "chip": "ym2612"
    },
    {
      "channel": 3,
      "note": 67,
      "start": 189.5497,
      "duration": 0.0301,
      "velocity": 92,
      "chip": "ym2612"
    },
    {
      "channel": 0,
      "note": 60,
      "start": 189.5825,
      "duration": 0.0297,
      "velocity": 99,
      "chip": "ym2612"
    },
    {
      "channel": 2,
      "note": 83,
      "start": 189.5833,
      "duration": 0.1802,
      "velocity": 99,
      "chip": "ym2612"
    },
    {
      "channel": 3,
      "note": 79,
      "start": 189.5839,
      "duration": 0.0294,
      "velocity": 92,
      "chip": "ym2612"
    },
    {
      "channel": 4,
      "note": 72,
      "start": 189.6002,
      "duration": 0.2392,
      "velocity": 99,
      "chip": "ym2612"
    },
    {
      "channel": 0,
      "note": 60,
      "start": 189.6161,
      "duration": 0.0297,
      "velocity": 99,
      "chip": "ym2612"
    },
    {
      "channel": 3,
      "note": 67,
      "start": 189.6173,
      "duration": 0.0293,
      "velocity": 92,
      "chip": "ym2612"
    },
    {
      "channel": 0,
      "note": 60,
      "start": 189.6487,
      "duration": 0.0688,
      "velocity": 99,
      "chip": "ym2612"
    },
    {
      "channel": 3,
      "note": 76,
      "start": 189.6499,
      "duration": 0.0685,
      "velocity": 92,
      "chip": "ym2612"
    },
    {
      "channel": 0,
      "note": 62,
      "start": 189.7333,
      "duration": 0.0297,
      "velocity": 99,
      "chip": "ym2612"
    },
    {
      "channel": 1,
      "note": 81,
      "start": 189.7339,
      "duration": 0.1985,
      "velocity": 99,
      "chip": "ym2612"
    },
    {
      "channel": 0,
      "note": 62,
      "start": 189.7659,
      "duration": 0.1662,
      "velocity": 99,
      "chip": "ym2612"
    },
    {
      "channel": 2,
      "note": 81,
      "start": 189.7667,
      "duration": 0.2112,
      "velocity": 99,
      "chip": "ym2612"
    },
    {
      "channel": 3,
      "note": 67,
      "start": 189.7673,
      "duration": 0.1657,
      "velocity": 92,
      "chip": "ym2612"
    },
    {
      "channel": 4,
      "note": 83,
      "start": 189.8553,
      "duration": 0.1403,
      "velocity": 99,
      "chip": "ym2612"
    },
    {
      "channel": 0,
      "note": 62,
      "start": 189.948,
      "duration": 0.0294,
      "velocity": 99,
      "chip": "ym2612"
    },
    {
      "channel": 1,
      "note": 78,
      "start": 189.9485,
      "duration": 0.1014,
      "velocity": 99,
      "chip": "ym2612"
    },
    {
      "channel": 3,
      "note": 66,
      "start": 189.9493,
      "duration": 0.0289,
      "velocity": 92,
      "chip": "ym2612"
    },
    {
      "channel": 0,
      "note": 62,
      "start": 189.9803,
      "duration": 0.0693,
      "velocity": 99,
      "chip": "ym2612"
    },
    {
      "channel": 2,
      "note": 78,
      "start": 189.9811,
      "duration": 0.1142,
      "velocity": 99,
      "chip": "ym2612"
    },
    {
      "channel": 3,
      "note": 74,
      "start": 189.9817,
      "duration": 0.0688,
      "velocity": 92,
      "chip": "ym2612"
    },
    {
      "channel": 4,
      "note": 81,
      "start": 189.9985,
      "duration": 0.1154,
      "velocity": 99,
      "chip": "ym2612"
    },
    {
      "channel": 0,
      "note": 62,
      "start": 190.0654,
      "duration": 0.0293,
      "velocity": 99,
      "chip": "ym2612"
    },
    {
      "channel": 1,
      "note": 79,
      "start": 190.066,
      "duration": 0.0637,
      "velocity": 99,
      "chip": "ym2612"
    },
    {
      "channel": 3,
      "note": 66,
      "start": 190.0668,
      "duration": 0.0288,
      "velocity": 92,
      "chip": "ym2612"
    },
    {
      "channel": 0,
      "note": 62,
      "start": 190.0992,
      "duration": 0.0302,
      "velocity": 99,
      "chip": "ym2612"
    },
    {
      "channel": 2,
      "note": 79,
      "start": 190.1,
      "duration": 0.0634,
      "velocity": 99,
      "chip": "ym2612"
    },
    {
      "channel": 3,
      "note": 78,
      "start": 190.1006,
      "duration": 0.0296,
      "velocity": 92,
      "chip": "ym2612"
    },
    {
      "channel": 4,
      "note": 78,
      "start": 190.1168,
      "duration": 0.0641,
      "velocity": 99,
      "chip": "ym2612"
    },
    {
      "channel": 0,
      "note": 62,
      "start": 190.1334,
      "duration": 0.0295,
      "velocity": 99,
      "chip": "ym2612"
    },
    {
      "channel": 1,
      "note": 81,
      "start": 190.1339,
      "duration": 0.1007,
      "velocity": 99,
      "chip": "ym2612"
    },
    {
      "channel": 3,
      "note": 66,
      "start": 190.1348,
      "duration": 0.029,
      "velocity": 92,
      "chip": "ym2612"
    },
    {
      "channel": 0,
      "note": 62,
      "start": 190.1659,
      "duration": 0.0685,
      "velocity": 99,
      "chip": "ym2612"
    },
    {
      "channel": 2,
      "note": 81,
      "start": 190.1669,
      "duration": 0.1131,
      "velocity": 99,
      "chip": "ym2612"
    },
    {
      "channel": 3,
      "note": 74,
      "start": 190.1676,
      "duration": 0.0676,
      "velocity": 92,
      "chip": "ym2612"
    },
    {
      "channel": 4,
      "note": 79,
      "start": 190.1838,
      "duration": 0.1734,
      "velocity": 99,
      "chip": "ym2612"
    },
    {
      "channel": 0,
      "note": 55,
      "start": 190.2502,
      "duration": 0.0293,
      "velocity": 99,
      "chip": "ym2612"
    },
    {
      "channel": 1,
      "note": 83,
      "start": 190.2507,
      "duration": 0.1994,
      "velocity": 99,
      "chip": "ym2612"
    },
    {
      "channel": 0,
      "note": 55,
      "start": 190.2823,
      "duration": 0.1675,
      "velocity": 99,
      "chip": "ym2612"
    },
    {
      "channel": 2,
      "note": 83,
      "start": 190.2831,
      "duration": 0.2125,
      "velocity": 99,
      "chip": "ym2612"
    },
    {
      "channel": 3,
      "note": 66,
      "start": 190.2837,
      "duration": 0.1669,
      "velocity": 92,
      "chip": "ym2612"
    },
    {
      "channel": 4,
      "note": 81,
      "start": 190.373,
      "duration": 0.14,
      "velocity": 99,
      "chip": "ym2612"
    },
    {
      "channel": 0,
      "note": 55,
      "start": 190.4656,
      "duration": 0.0291,
      "velocity": 99,
      "chip": "ym2612"
    },
    {
      "channel": 1,
      "note": 86,
      "start": 190.4662,
      "duration": 0.0288,
      "velocity": 99,
      "chip": "ym2612"
    },
    {
      "channel": 3,
      "note": 67,
      "start": 190.467,
      "duration": 0.0289,
      "velocity": 92,
      "chip": "ym2612"
    },
    {
      "channel": 0,
      "note": 55,
      "start": 190.4979,
      "duration": 0.0683,
      "velocity": 99,
      "chip": "ym2612"
    },
    {
      "channel": 1,
      "note": 83,
      "start": 190.4986,
      "duration": 0.1839,
      "velocity": 99,
      "chip": "ym2612"
    },
    {
      "channel": 2,
      "note": 86,
      "start": 190.4991,
      "duration": 0.0676,
      "velocity": 99,
      "chip": "ym2612"
    },
    {
      "channel": 3,
      "note": 74,
      "start": 190.5001,
      "duration": 0.067,
      "velocity": 92,
      "chip": "ym2612"
    },
    {
      "channel": 4,
      "note": 83,
      "start": 190.5159,
      "duration": 0.0818,
      "velocity": 99,
      "chip": "ym2612"
    },
    {
      "channel": 0,
      "note": 55,
      "start": 190.5821,
      "duration": 0.0302,
      "velocity": 99,
      "chip": "ym2612"
    },
    {
      "channel": 2,
      "note": 83,
      "start": 190.5829,
      "duration": 0.0999,
      "velocity": 99,
      "chip": "ym2612"
    },
    {
      "channel": 3,
      "note": 67,
      "start": 190.5835,
      "duration": 0.0296,
      "velocity": 92,
      "chip": "ym2612"
    },
    {
      "channel": 4,
      "note": 86,
      "start": 190.6007,
      "duration": 0.0631,
      "velocity": 99,
      "chip": "ym2612"
    },
    {
      "channel": 0,
      "note": 55,
      "start": 190.6161,
      "duration": 0.0298,
      "velocity": 99,
      "chip": "ym2612"
    },
    {
      "channel": 3,
      "note": 79,
      "start": 190.6173,
      "duration": 0.0295,
      "velocity": 92,
      "chip": "ym2612"
    },
    {
      "channel": 0,
      "note": 55,
      "start": 190.6489,
      "duration": 0.0333,
      "velocity": 99,
      "chip": "ym2612"
    },
    {
      "channel": 3,
      "note": 67,
      "start": 190.6501,
      "duration": 0.0332,
      "velocity": 92,
      "chip": "ym2612"
    },
    {
      "channel": 4,
      "note": 83,
      "start": 190.6695,
      "duration": 0.4473,
      "velocity": 98,
      "chip": "ym2612"
    },
    {
      "channel": 0,
      "note": 59,
      "start": 190.6856,
      "duration": 0.2126,
      "velocity": 99,
      "chip": "ym2612"
    },
    {
      "channel": 1,
      "note": 98,
      "start": 190.6886,
      "duration": 0.2565,
      "velocity": 99,
      "chip": "ym2612"
    },
    {
      "channel": 3,
      "note": 74,
      "start": 190.6943,
      "duration": 0.4411,
      "velocity": 98,
      "chip": "ym2612"
    },
    {
      "channel": 2,
      "note": 98,
      "start": 190.7004,
      "duration": 0.2522,
      "velocity": 99,
      "chip": "ym2612"
    },
    {
      "channel": 0,
      "note": 59,
      "start": 190.9141,
      "duration": 0.0308,
      "velocity": 99,
      "chip": "ym2612"
    },
    {
      "channel": 0,
      "note": 59,
      "start": 190.9483,
      "duration": 0.031,
      "velocity": 99,
      "chip": "ym2612"
    },
    {
      "channel": 1,
      "note": 96,
      "start": 190.9489,
      "duration": 0.1007,
      "velocity": 99,
      "chip": "ym2612"
    },
    {
      "channel": 2,
      "note": 96,
      "start": 190.9555,
      "duration": 0.1137,
      "velocity": 99,
      "chip": "ym2612"
    },
    {
      "channel": 0,
      "note": 59,
      "start": 190.9822,
      "duration": 0.0671,
      "velocity": 99,
      "chip": "ym2612"
    },
    {
      "channel": 0,
      "note": 59,
      "start": 191.0651,
      "duration": 0.0152,
      "velocity": 99,
      "chip": "ym2612"
    },
    {
      "channel": 1,
      "note": 95,
      "start": 191.0659,
      "duration": 0.069,
      "velocity": 99,
      "chip": "ym2612"
    },
    {
      "channel": 2,
      "note": 95,
      "start": 191.0724,
      "duration": 0.071,
      "velocity": 99,
      "chip": "ym2612"
    },
    {
      "channel": 0,
      "note": 71,
      "start": 191.0841,
      "duration": 0.0134,
      "velocity": 99,
      "chip": "ym2612"
    },
    {
      "channel": 0,
      "note": 71,
      "start": 191.1019,
      "duration": 0.0137,
      "velocity": 99,
      "chip": "ym2612"
    },
    {
      "channel": 0,
      "note": 59,
      "start": 191.1208,
      "duration": 0.0138,
      "velocity": 99,
      "chip": "ym2612"
    },
    {
      "channel": 4,
      "note": 66,
      "start": 191.1222,
      "duration": 0.0637,
      "velocity": 98,
      "chip": "ym2612"
    },
    {
      "channel": 0,
      "note": 59,
      "start": 191.1389,
      "duration": 0.0307,
      "velocity": 99,
      "chip": "ym2612"
    },
    {
      "channel": 1,
      "note": 93,
      "start": 191.1394,
      "duration": 0.101,
      "velocity": 99,
      "chip": "ym2612"
    },
    {
      "channel": 3,
      "note": 59,
      "start": 191.1403,
      "duration": 0.1011,
      "velocity": 98,
      "chip": "ym2612"
    },
    {
      "channel": 2,
      "note": 93,
      "start": 191.1462,
      "duration": 0.0948,
      "velocity": 99,
      "chip": "ym2612"
    },
    {
      "channel": 0,
      "note": 59,
      "start": 191.1724,
      "duration": 0.0678,
      "velocity": 99,
      "chip": "ym2612"
    },
    {
      "channel": 0,
      "note": 60,
      "start": 191.256,
      "duration": 0.0351,
      "velocity": 99,
      "chip": "ym2612"
    },
    {
      "channel": 1,
      "note": 83,
      "start": 191.259,
      "duration": 0.4979,
      "velocity": 99,
      "chip": "ym2612"
    },
    {
      "channel": 3,
      "note": 59,
      "start": 191.26,
      "duration": 0.0061,
      "velocity": 98,
      "chip": "ym2612"
    },
    {
      "channel": 4,
      "note": 66,
      "start": 191.2794,
      "duration": 0.5086,
      "velocity": 99,
      "chip": "ym2612"
    },
    {
      "channel": 0,
      "note": 60,
      "start": 191.294,
      "duration": 0.16,
      "velocity": 99,
      "chip": "ym2612"
    },
    {
      "channel": 2,
      "note": 83,
      "start": 191.2968,
      "duration": 0.5062,
      "velocity": 99,
      "chip": "ym2612"
    },
    {
      "channel": 3,
      "note": 60,
      "start": 191.2974,
      "duration": 0.017,
      "velocity": 98,
      "chip": "ym2612"
    },
    {
      "channel": 0,
      "note": 72,
      "start": 191.4698,
      "duration": 0.0305,
      "velocity": 99,
      "chip": "ym2612"
    },
    {
      "channel": 3,
      "note": 60,
      "start": 191.4711,
      "duration": 0.0302,
      "velocity": 98,
      "chip": "ym2612"
    },
    {
      "channel": 0,
      "note": 60,
      "start": 191.5032,
      "duration": 0.0676,
      "velocity": 99,
      "chip": "ym2612"
    },
    {
      "channel": 3,
      "note": 60,
      "start": 191.5045,
      "duration": 0.0059,
      "velocity": 98,
      "chip": "ym2612"
    },
    {
      "channel": 0,
      "note": 60,
      "start": 191.5866,
      "duration": 0.03,
      "velocity": 99,
      "chip": "ym2612"
    },
    {
      "channel": 3,
      "note": 60,
      "start": 191.5878,
      "duration": 0.0063,
      "velocity": 98,
      "chip": "ym2612"
    },
    {
      "channel": 0,
      "note": 72,
      "start": 191.6213,
      "duration": 0.0307,
      "velocity": 99,
      "chip": "ym2612"
    },
    {
      "channel": 3,
      "note": 60,
      "start": 191.6226,
      "duration": 0.0302,
      "velocity": 98,
      "chip": "ym2612"
    },
    {
      "channel": 0,
      "note": 60,
      "start": 191.6555,
      "duration": 0.0312,
      "velocity": 99,
      "chip": "ym2612"
    },
    {
      "channel": 3,
      "note": 60,
      "start": 191.6567,
      "duration": 0.0066,
      "velocity": 98,
      "chip": "ym2612"
    },
    {
      "channel": 0,
      "note": 60,
      "start": 191.6898,
      "duration": 0.0668,
      "velocity": 99,
      "chip": "ym2612"
    },
    {
      "channel": 3,
      "note": 60,
      "start": 191.6909,
      "duration": 0.0057,
      "velocity": 98,
      "chip": "ym2612"
    },
    {
      "channel": 0,
      "note": 62,
      "start": 191.7724,
      "duration": 0.0302,
      "velocity": 99,
      "chip": "ym2612"
    },
    {
      "channel": 1,
      "note": 81,
      "start": 191.7729,
      "duration": 0.3154,
      "velocity": 99,
      "chip": "ym2612"
    },
    {
      "channel": 3,
      "note": 60,
      "start": 191.7738,
      "duration": 0.0063,
      "velocity": 98,
      "chip": "ym2612"
    },
    {
      "channel": 4,
      "note": 83,
      "start": 191.7908,
      "duration": 0.3283,
      "velocity": 99,
      "chip": "ym2612"
    },
    {
      "channel": 0,
      "note": 62,
      "start": 191.8058,
      "duration": 0.1652,
      "velocity": 99,
      "chip": "ym2612"
    },
    {
      "channel": 2,
      "note": 81,
      "start": 191.8066,
      "duration": 0.3279,
      "velocity": 99,
      "chip": "ym2612"
    },
    {
      "channel": 3,
      "note": 62,
      "start": 191.8072,
      "duration": 0.024,
      "velocity": 98,
      "chip": "ym2612"
    },
    {
      "channel": 0,
      "note": 74,
      "start": 191.9869,
      "duration": 0.0301,
      "velocity": 99,
      "chip": "ym2612"
    },
    {
      "channel": 3,
      "note": 62,
      "start": 191.9881,
      "duration": 0.0297,
      "velocity": 98,
      "chip": "ym2612"
    },
    {
      "channel": 0,
      "note": 62,
      "start": 192.02,
      "duration": 0.068,
      "velocity": 99,
      "chip": "ym2612"
    },
    {
      "channel": 3,
      "note": 62,
      "start": 192.0213,
      "duration": 0.0058,
      "velocity": 98,
      "chip": "ym2612"
    },
    {
      "channel": 0,
      "note": 62,
      "start": 192.1039,
      "duration": 0.0298,
      "velocity": 99,
      "chip": "ym2612"
    },
    {
      "channel": 1,
      "note": 86,
      "start": 192.1044,
      "duration": 0.0983,
      "velocity": 99,
      "chip": "ym2612"
    },
    {
      "channel": 3,
      "note": 62,
      "start": 192.1053,
      "duration": 0.006,
      "velocity": 98,
      "chip": "ym2612"
    },
    {
      "channel": 4,
      "note": 81,
      "start": 192.1219,
      "duration": 0.0993,
      "velocity": 99,
      "chip": "ym2612"
    },
    {
      "channel": 0,
      "note": 74,
      "start": 192.1387,
      "duration": 0.0293,
      "velocity": 99,
      "chip": "ym2612"
    },
    {
      "channel": 2,
      "note": 86,
      "start": 192.1396,
      "duration": 0.0976,
      "velocity": 99,
      "chip": "ym2612"
    },
    {
      "channel": 3,
      "note": 62,
      "start": 192.1407,
      "duration": 0.0282,
      "velocity": 98,
      "chip": "ym2612"
    },
    {
      "channel": 0,
      "note": 62,
      "start": 192.172,
      "duration": 0.0305,
      "velocity": 99,
      "chip": "ym2612"
    },
    {
      "channel": 3,
      "note": 62,
      "start": 192.1732,
      "duration": 0.0064,
      "velocity": 98,
      "chip": "ym2612"
    },
    {
      "channel": 0,
      "note": 63,
      "start": 192.2059,
      "duration": 0.2054,
      "velocity": 99,
      "chip": "ym2612"
    },
    {
      "channel": 1,
      "note": 86,
      "start": 192.2064,
      "duration": 0.2505,
      "velocity": 99,
      "chip": "ym2612"
    },
    {
      "channel": 3,
      "note": 62,
      "start": 192.2074,
      "duration": 0.2049,
      "velocity": 98,
      "chip": "ym2612"
    },
    {
      "channel": 4,
      "note": 86,
      "start": 192.2244,
      "duration": 0.2524,
      "velocity": 99,
      "chip": "ym2612"
    },
    {
      "channel": 2,
      "note": 86,
      "start": 192.2402,
      "duration": 0.2515,
      "velocity": 99,
      "chip": "ym2612"
    },
    {
      "channel": 0,
      "note": 63,
      "start": 192.4272,
      "duration": 0.0295,
      "velocity": 99,
      "chip": "ym2612"
    },
    {
      "channel": 3,
      "note": 63,
      "start": 192.4283,
      "duration": 0.0292,
      "velocity": 98,
      "chip": "ym2612"
    },
    {
      "channel": 0,
      "note": 75,
      "start": 192.4598,
      "duration": 0.0314,
      "velocity": 99,
      "chip": "ym2612"
    },
    {
      "channel": 1,
      "note": 84,
      "start": 192.4603,
      "duration": 0.1022,
      "velocity": 99,
      "chip": "ym2612"
    },
    {
      "channel": 3,
      "note": 63,
      "start": 192.4613,
      "duration": 0.0307,
      "velocity": 98,
      "chip": "ym2612"
    },
    {
      "channel": 4,
      "note": 86,
      "start": 192.4797,
      "duration": 0.1131,
      "velocity": 99,
      "chip": "ym2612"
    },
    {
      "channel": 0,
      "note": 63,
      "start": 192.4941,
      "duration": 0.0681,
      "velocity": 99,
      "chip": "ym2612"
    },
    {
      "channel": 2,
      "note": 84,
      "start": 192.4949,
      "duration": 0.1134,
      "velocity": 99,
      "chip": "ym2612"
    },
    {
      "channel": 3,
      "note": 63,
      "start": 192.4956,
      "duration": 0.0056,
      "velocity": 98,
      "chip": "ym2612"
    },
    {
      "channel": 0,
      "note": 63,
      "start": 192.5781,
      "duration": 0.0298,
      "velocity": 99,
      "chip": "ym2612"
    },
    {
      "channel": 1,
      "note": 83,
      "start": 192.5786,
      "duration": 0.0626,
      "velocity": 99,
      "chip": "ym2612"
    },
    {
      "channel": 3,
      "note": 63,
      "start": 192.5795,
      "duration": 0.0057,
      "velocity": 98,
      "chip": "ym2612"
    },
    {
      "channel": 4,
      "note": 84,
      "start": 192.5956,
      "duration": 0.0666,
      "velocity": 99,
      "chip": "ym2612"
    },
    {
      "channel": 0,
      "note": 75,
      "start": 192.6121,
      "duration": 0.0289,
      "velocity": 99,
      "chip": "ym2612"
    },
    {
      "channel": 2,
      "note": 83,
      "start": 192.6129,
      "duration": 0.0641,
      "velocity": 99,
      "chip": "ym2612"
    },
    {
      "channel": 3,
      "note": 63,
      "start": 192.6136,
      "duration": 0.0283,
      "velocity": 98,
      "chip": "ym2612"
    },
    {
      "channel": 0,
      "note": 63,
      "start": 192.6457,
      "duration": 0.0308,
      "velocity": 99,
      "chip": "ym2612"
    },
    {
      "channel": 1,
      "note": 81,
      "start": 192.6463,
      "duration": 0.1016,
      "velocity": 99,
      "chip": "ym2612"
    },
    {
      "channel": 3,
      "note": 63,
      "start": 192.6472,
      "duration": 0.0067,
      "velocity": 98,
      "chip": "ym2612"
    },
    {
      "channel": 4,
      "note": 83,
      "start": 192.665,
      "duration": 0.1133,
      "velocity": 99,
      "chip": "ym2612"
    },
    {
      "channel": 0,
      "note": 63,
      "start": 192.6795,
      "duration": 0.0681,
      "velocity": 99,
      "chip": "ym2612"
    },
    {
      "channel": 2,
      "note": 81,
      "start": 192.6802,
      "duration": 0.114,
      "velocity": 99,
      "chip": "ym2612"
    },
    {
      "channel": 3,
      "note": 63,
      "start": 192.6809,
      "duration": 0.0054,
      "velocity": 98,
      "chip": "ym2612"
    },
    {
      "channel": 0,
      "note": 64,
      "start": 192.7634,
      "duration": 0.0303,
      "velocity": 99,
      "chip": "ym2612"
    },
    {
      "channel": 1,
      "note": 79,
      "start": 192.7639,
      "duration": 0.03,
      "velocity": 99,
      "chip": "ym2612"
    },
    {
      "channel": 3,
      "note": 63,
      "start": 192.7648,
      "duration": 0.0057,
      "velocity": 98,
      "chip": "ym2612"
    },
    {
      "channel": 4,
      "note": 81,
      "start": 192.781,
      "duration": 0.0891,
      "velocity": 99,
      "chip": "ym2612"
    },
    {
      "channel": 0,
      "note": 76,
      "start": 192.7967,
      "duration": 0.1661,
      "velocity": 99,
      "chip": "ym2612"
    },
    {
      "channel": 1,
      "note": 78,
      "start": 192.7972,
      "duration": 0.1662,
      "velocity": 99,
      "chip": "ym2612"
    },
    {
      "channel": 2,
      "note": 79,
      "start": 192.7978,
      "duration": 0.1659,
      "velocity": 99,
      "chip": "ym2612"
    },
    {
      "channel": 3,
      "note": 64,
      "start": 192.7984,
      "duration": 0.0245,
      "velocity": 98,
      "chip": "ym2612"
    },
    {
      "channel": 4,
      "note": 79,
      "start": 192.8859,
      "duration": 0.1093,
      "velocity": 99,
      "chip": "ym2612"
    },
    {
      "channel": 0,
      "note": 64,
      "start": 192.9787,
      "duration": 0.0305,
      "velocity": 99,
      "chip": "ym2612"
    },
    {
      "channel": 1,
      "note": 79,
      "start": 192.9793,
      "duration": 0.0302,
      "velocity": 99,
      "chip": "ym2612"
    },
    {
      "channel": 2,
      "note": 78,
      "start": 192.9801,
      "duration": 0.0297,
      "velocity": 99,
      "chip": "ym2612"
    },
    {
      "channel": 3,
      "note": 64,
      "start": 192.9808,
      "duration": 0.0293,
      "velocity": 98,
      "chip": "ym2612"
    },
    {
      "channel": 4,
      "note": 78,
      "start": 192.998,
      "duration": 0.0316,
      "velocity": 99,
      "chip": "ym2612"
    },
    {
      "channel": 0,
      "note": 62,
      "start": 193.0138,
      "duration": 0.1993,
      "velocity": 99,
      "chip": "ym2612"
    },
    {
      "channel": 1,
      "note": 81,
      "start": 193.0143,
      "duration": 0.1991,
      "velocity": 99,
      "chip": "ym2612"
    },
    {
      "channel": 2,
      "note": 79,
      "start": 193.0149,
      "duration": 0.0299,
      "velocity": 99,
      "chip": "ym2612"
    },
    {
      "channel": 3,
      "note": 64,
      "start": 193.0155,
      "duration": 0.1985,
      "velocity": 98,
      "chip": "ym2612"
    },
    {
      "channel": 4,
      "note": 79,
      "start": 193.0326,
      "duration": 0.2115,
      "velocity": 99,
      "chip": "ym2612"
    },
    {
      "channel": 2,
      "note": 81,
      "start": 193.0477,
      "duration": 0.2113,
      "velocity": 99,
      "chip": "ym2612"
    },
    {
      "channel": 0,
      "note": 62,
      "start": 193.229,
      "duration": 0.0294,
      "velocity": 99,
      "chip": "ym2612"
    },
    {
      "channel": 1,
      "note": 78,
      "start": 193.2295,
      "duration": 0.0291,
      "velocity": 99,
      "chip": "ym2612"
    },
    {
      "channel": 3,
      "note": 64,
      "start": 193.2305,
      "duration": 0.0059,
      "velocity": 98,
      "chip": "ym2612"
    },
    {
      "channel": 4,
      "note": 81,
      "start": 193.2468,
      "duration": 0.032,
      "velocity": 99,
      "chip": "ym2612"
    },
    {
      "channel": 0,
      "note": 62,
      "start": 193.2625,
      "duration": 0.0305,
      "velocity": 99,
      "chip": "ym2612"
    },
    {
      "channel": 1,
      "note": 79,
      "start": 193.2631,
      "duration": 0.0303,
      "velocity": 99,
      "chip": "ym2612"
    },
    {
      "channel": 2,
      "note": 78,
      "start": 193.2636,
      "duration": 0.03,
      "velocity": 99,
      "chip": "ym2612"
    },
    {
      "channel": 3,
      "note": 64,
      "start": 193.2644,
      "duration": 0.0295,
      "velocity": 98,
      "chip": "ym2612"
    },
    {
      "channel": 4,
      "note": 78,
      "start": 193.2815,
      "duration": 0.0302,
      "velocity": 99,
      "chip": "ym2612"
    },
    {
      "channel": 0,
      "note": 62,
      "start": 193.2961,
      "duration": 0.0674,
      "velocity": 99,
      "chip": "ym2612"
    },
    {
      "channel": 1,
      "note": 81,
      "start": 193.2966,
      "duration": 0.0672,
      "velocity": 99,
      "chip": "ym2612"
    },
    {
      "channel": 2,
      "note": 79,
      "start": 193.2972,
      "duration": 0.0669,
      "velocity": 99,
      "chip": "ym2612"
    },
    {
      "channel": 3,
      "note": 64,
      "start": 193.2979,
      "duration": 0.0057,
      "velocity": 98,
      "chip": "ym2612"
    },
    {
      "channel": 4,
      "note": 79,
      "start": 193.3144,
      "duration": 0.0806,
      "velocity": 99,
      "chip": "ym2612"
    },
    {
      "channel": 0,
      "note": 60,
      "start": 193.3794,
      "duration": 0.0307,
      "velocity": 99,
      "chip": "ym2612"
    },
    {
      "channel": 1,
      "note": 83,
      "start": 193.3799,
      "duration": 0.3162,
      "velocity": 99,
      "chip": "ym2612"
    },
    {
      "channel": 2,
      "note": 81,
      "start": 193.3805,
      "duration": 0.0301,
      "velocity": 99,
      "chip": "ym2612"
    },
    {
      "channel": 3,
      "note": 64,
      "start": 193.3811,
      "duration": 0.0059,
      "velocity": 98,
      "chip": "ym2612"
    },
    {
      "channel": 4,
      "note": 81,
      "start": 193.3981,
      "duration": 0.329,
      "velocity": 99,
      "chip": "ym2612"
    },
    {
      "channel": 0,
      "note": 60,
      "start": 193.413,
      "duration": 0.1655,
      "velocity": 99,
      "chip": "ym2612"
    },
    {
      "channel": 2,
      "note": 83,
      "start": 193.4138,
      "duration": 0.3292,
      "velocity": 99,
      "chip": "ym2612"
    },
    {
      "channel": 3,
      "note": 60,
      "start": 193.4144,
      "duration": 0.0243,
      "velocity": 98,
      "chip": "ym2612"
    },
    {
      "channel": 0,
      "note": 72,
      "start": 193.5944,
      "duration": 0.0297,
      "velocity": 99,
      "chip": "ym2612"
    },
    {
      "channel": 3,
      "note": 60,
      "start": 193.5956,
      "duration": 0.0294,
      "velocity": 98,
      "chip": "ym2612"
    },
    {
      "channel": 0,
      "note": 60,
      "start": 193.6273,
      "duration": 0.0686,
      "velocity": 99,
      "chip": "ym2612"
    },
    {
      "channel": 3,
      "note": 60,
      "start": 193.6285,
      "duration": 0.0062,
      "velocity": 98,
      "chip": "ym2612"
    },
    {
      "channel": 0,
      "note": 60,
      "start": 193.7117,
      "duration": 0.0309,
      "velocity": 99,
      "chip": "ym2612"
    },
    {
      "channel": 1,
      "note": 91,
      "start": 193.7122,
      "duration": 0.1666,
      "velocity": 99,
      "chip": "ym2612"
    },
    {
      "channel": 3,
      "note": 60,
      "start": 193.7131,
      "duration": 0.0059,
      "velocity": 98,
      "chip": "ym2612"
    },
    {
      "channel": 4,
      "note": 83,
      "start": 193.7305,
      "duration": 0.18,
      "velocity": 99,
      "chip": "ym2612"
    },
    {
      "channel": 0,
      "note": 72,
      "start": 193.7458,
      "duration": 0.0293,
      "velocity": 99,
      "chip": "ym2612"
    },
    {
      "channel": 2,
      "note": 91,
      "start": 193.7466,
      "duration": 0.1794,
      "velocity": 99,
      "chip": "ym2612"
    },
    {
      "channel": 3,
      "note": 60,
      "start": 193.7473,
      "duration": 0.0286,
      "velocity": 98,
      "chip": "ym2612"
    },
    {
      "channel": 0,
      "note": 60,
      "start": 193.7779,
      "duration": 0.0297,
      "velocity": 99,
      "chip": "ym2612"
    },
    {
      "channel": 3,
      "note": 60,
      "start": 193.7792,
      "duration": 0.0061,
      "velocity": 98,
      "chip": "ym2612"
    },
    {
      "channel": 0,
      "note": 60,
      "start": 193.8108,
      "duration": 0.0678,
      "velocity": 99,
      "chip": "ym2612"
    },
    {
      "channel": 3,
      "note": 60,
      "start": 193.8122,
      "duration": 0.0059,
      "velocity": 98,
      "chip": "ym2612"
    },
    {
      "channel": 0,
      "note": 62,
      "start": 193.8944,
      "duration": 0.0311,
      "velocity": 99,
      "chip": "ym2612"
    },
    {
      "channel": 1,
      "note": 90,
      "start": 193.8949,
      "duration": 0.316,
      "velocity": 99,
      "chip": "ym2612"
    },
    {
      "channel": 3,
      "note": 60,
      "start": 193.8958,
      "duration": 0.0062,
      "velocity": 98,
      "chip": "ym2612"
    },
    {
      "channel": 4,
      "note": 91,
      "start": 193.9137,
      "duration": 0.3291,
      "velocity": 99,
      "chip": "ym2612"
    },
    {
      "channel": 0,
      "note": 62,
      "start": 193.9284,
      "duration": 0.1655,
      "velocity": 99,
      "chip": "ym2612"
    },
    {
      "channel": 2,
      "note": 90,
      "start": 193.9292,
      "duration": 0.3287,
      "velocity": 99,
      "chip": "ym2612"
    },
    {
      "channel": 3,
      "note": 62,
      "start": 193.9298,
      "duration": 0.0242,
      "velocity": 98,
      "chip": "ym2612"
    },
    {
      "channel": 0,
      "note": 74,
      "start": 194.1097,
      "duration": 0.0296,
      "velocity": 99,
      "chip": "ym2612"
    },
    {
      "channel": 3,
      "note": 62,
      "start": 194.1109,
      "duration": 0.0294,
      "velocity": 98,
      "chip": "ym2612"
    },
    {
      "channel": 0,
      "note": 62,
      "start": 194.1425,
      "duration": 0.0681,
      "velocity": 99,
      "chip": "ym2612"
    },
    {
      "channel": 3,
      "note": 62,
      "start": 194.1439,
      "duration": 0.0063,
      "velocity": 98,
      "chip": "ym2612"
    },
    {
      "channel": 0,
      "note": 62,
      "start": 194.2265,
      "duration": 0.0308,
      "velocity": 99,
      "chip": "ym2612"
    },
    {
      "channel": 1,
      "note": 86,
      "start": 194.2271,
      "duration": 0.1688,
      "velocity": 99,
      "chip": "ym2612"
    },
    {
      "channel": 3,
      "note": 62,
      "start": 194.228,
      "duration": 0.0065,
      "velocity": 98,
      "chip": "ym2612"
    },
    {
      "channel": 4,
      "note": 90,
      "start": 194.2456,
      "duration": 0.1837,
      "velocity": 99,
      "chip": "ym2612"
    },
    {
      "channel": 0,
      "note": 74,
      "start": 194.2621,
      "duration": 0.0298,
      "velocity": 99,
      "chip": "ym2612"
    },
    {
      "channel": 2,
      "note": 86,
      "start": 194.2629,
      "duration": 0.1823,
      "velocity": 99,
      "chip": "ym2612"
    },
    {
      "channel": 3,
      "note": 62,
      "start": 194.2636,
      "duration": 0.0291,
      "velocity": 98,
      "chip": "ym2612"
    },
    {
      "channel": 0,
      "note": 62,
      "start": 194.2947,
      "duration": 0.0139,
      "velocity": 99,
      "chip": "ym2612"
    },
    {
      "channel": 3,
      "note": 62,
      "start": 194.2959,
      "duration": 0.006,
      "velocity": 98,
      "chip": "ym2612"
    },
    {
      "channel": 0,
      "note": 69,
      "start": 194.3114,
      "duration": 0.0136,
      "velocity": 99,
      "chip": "ym2612"
    },
    {
      "channel": 0,
      "note": 62,
      "start": 194.3284,
      "duration": 0.0671,
      "velocity": 99,
      "chip": "ym2612"
    },
    {
      "channel": 3,
      "note": 62,
      "start": 194.3296,
      "duration": 0.006,
      "velocity": 98,
      "chip": "ym2612"
    },
    {
      "channel": 0,
      "note": 62,
      "start": 194.4118,
      "duration": 0.0163,
      "velocity": 99,
      "chip": "ym2612"
    },
    {
      "channel": 1,
      "note": 88,
      "start": 194.4124,
      "duration": 1.0998,
      "velocity": 99,
      "chip": "ym2612"
    },
    {
      "channel": 3,
      "note": 62,
      "start": 194.4136,
      "duration": 0.0153,
      "velocity": 98,
      "chip": "ym2612"
    },
    {
      "channel": 0,
      "note": 63,
      "start": 194.431,
      "duration": 0.0137,
      "velocity": 99,
      "chip": "ym2612"
    },
    {
      "channel": 3,
      "note": 62,
      "start": 194.4322,
      "duration": 0.0134,
      "velocity": 98,
      "chip": "ym2612"
    },
    {
      "channel": 4,
      "note": 86,
      "start": 194.4329,
      "duration": 1.0607,
      "velocity": 99,
      "chip": "ym2612"
    },
    {
      "channel": 0,
      "note": 64,
      "start": 194.4485,
      "duration": 0.0141,
      "velocity": 99,
      "chip": "ym2612"
    },
    {
      "channel": 2,
      "note": 88,
      "start": 194.4493,
      "duration": 1.0632,
      "velocity": 99,
      "chip": "ym2612"
    },
    {
      "channel": 3,
      "note": 63,
      "start": 194.4499,
      "duration": 0.0135,
      "velocity": 98,
      "chip": "ym2612"
    },
    {
      "channel": 0,
      "note": 62,
      "start": 194.4826,
      "duration": 0.014,
      "velocity": 99,
      "chip": "ym2612"
    },
    {
      "channel": 3,
      "note": 64,
      "start": 194.4837,
      "duration": 0.0137,
      "velocity": 98,
      "chip": "ym2612"
    },
    {
      "channel": 0,
      "note": 63,
      "start": 194.4994,
      "duration": 0.0144,
      "velocity": 99,
      "chip": "ym2612"
    },
    {
      "channel": 3,
      "note": 62,
      "start": 194.5005,
      "duration": 0.0142,
      "velocity": 98,
      "chip": "ym2612"
    },
    {
      "channel": 0,
      "note": 64,
      "start": 194.5184,
      "duration": 0.014,
      "velocity": 99,
      "chip": "ym2612"
    },
    {
      "channel": 3,
      "note": 63,
      "start": 194.5195,
      "duration": 0.0137,
      "velocity": 98,
      "chip": "ym2612"
    },
    {
      "channel": 0,
      "note": 67,
      "start": 194.5518,
      "duration": 0.0305,
      "velocity": 99,
      "chip": "ym2612"
    },
    {
      "channel": 3,
      "note": 64,
      "start": 194.5533,
      "duration": 0.0298,
      "velocity": 98,
      "chip": "ym2612"
    },
    {
      "channel": 0,
      "note": 64,
      "start": 194.5868,
      "duration": 0.0304,
      "velocity": 99,
      "chip": "ym2612"
    },
    {
      "channel": 3,
      "note": 67,
      "start": 194.588,
      "duration": 0.0631,
      "velocity": 98,
      "chip": "ym2612"
    },
    {
      "channel": 0,
      "note": 64,
      "start": 194.621,
      "duration": 0.0292,
      "velocity": 99,
      "chip": "ym2612"
    },
    {
      "channel": 0,
      "note": 59,
      "start": 194.6548,
      "duration": 0.0299,
      "velocity": 99,
      "chip": "ym2612"
    },
    {
      "channel": 3,
      "note": 64,
      "start": 194.6559,
      "duration": 0.03,
      "velocity": 98,
      "chip": "ym2612"
    },
    {
      "channel": 0,
      "note": 62,
      "start": 194.6885,
      "duration": 0.0158,
      "velocity": 99,
      "chip": "ym2612"
    },
    {
      "channel": 3,
      "note": 59,
      "start": 194.6909,
      "duration": 0.0142,
      "velocity": 98,
      "chip": "ym2612"
    },
    {
      "channel": 0,
      "note": 63,
      "start": 194.7072,
      "duration": 0.013,
      "velocity": 99,
      "chip": "ym2612"
    },
    {
      "channel": 3,
      "note": 62,
      "start": 194.7083,
      "duration": 0.0127,
      "velocity": 98,
      "chip": "ym2612"
    },
    {
      "channel": 0,
      "note": 64,
      "start": 194.7229,
      "duration": 0.0146,
      "velocity": 99,
      "chip": "ym2612"
    },
    {
      "channel": 3,
      "note": 63,
      "start": 194.724,
      "duration": 0.0143,
      "velocity": 98,
      "chip": "ym2612"
    },
    {
      "channel": 0,
      "note": 62,
      "start": 194.7557,
      "duration": 0.0143,
      "velocity": 99,
      "chip": "ym2612"
    },
    {
      "channel": 3,
      "note": 64,
      "start": 194.7569,
      "duration": 0.014,
      "velocity": 98,
      "chip": "ym2612"
    },
    {
      "channel": 0,
      "note": 63,
      "start": 194.773,
      "duration": 0.0144,
      "velocity": 99,
      "chip": "ym2612"
    },
    {
      "channel": 3,
      "note": 62,
      "start": 194.7745,
      "duration": 0.0139,
      "velocity": 98,
      "chip": "ym2612"
    },
    {
      "channel": 0,
      "note": 64,
      "start": 194.7911,
      "duration": 0.014,
      "velocity": 99,
      "chip": "ym2612"
    },
    {
      "channel": 3,
      "note": 63,
      "start": 194.7923,
      "duration": 0.0137,
      "velocity": 98,
      "chip": "ym2612"
    },
    {
      "channel": 0,
      "note": 67,
      "start": 194.8248,
      "duration": 0.0302,
      "velocity": 99,
      "chip": "ym2612"
    },
    {
      "channel": 3,
      "note": 64,
      "start": 194.826,
      "duration": 0.0298,
      "velocity": 98,
      "chip": "ym2612"
    },
    {
      "channel": 0,
      "note": 64,
      "start": 194.8579,
      "duration": 0.0302,
      "velocity": 99,
      "chip": "ym2612"
    },
    {
      "channel": 3,
      "note": 67,
      "start": 194.859,
      "duration": 0.0633,
      "velocity": 98,
      "chip": "ym2612"
    },
    {
      "channel": 0,
      "note": 64,
      "start": 194.8917,
      "duration": 0.0297,
      "velocity": 99,
      "chip": "ym2612"
    },
    {
      "channel": 0,
      "note": 59,
      "start": 194.9259,
      "duration": 0.0302,
      "velocity": 99,
      "chip": "ym2612"
    },
    {
      "channel": 3,
      "note": 64,
      "start": 194.927,
      "duration": 0.0299,
      "velocity": 98,
      "chip": "ym2612"
    },
    {
      "channel": 0,
      "note": 62,
      "start": 194.9602,
      "duration": 0.0158,
      "velocity": 99,
      "chip": "ym2612"
    },
    {
      "channel": 3,
      "note": 59,
      "start": 194.9619,
      "duration": 0.0148,
      "velocity": 98,
      "chip": "ym2612"
    },
    {
      "channel": 0,
      "note": 63,
      "start": 194.9789,
      "duration": 0.0137,
      "velocity": 99,
      "chip": "ym2612"
    },
    {
      "channel": 3,
      "note": 62,
      "start": 194.98,
      "duration": 0.0134,
      "velocity": 98,
      "chip": "ym2612"
    },
    {
      "channel": 0,
      "note": 64,
      "start": 194.9969,
      "duration": 0.0147,
      "velocity": 99,
      "chip": "ym2612"
    },
    {
      "channel": 3,
      "note": 63,
      "start": 194.9987,
      "duration": 0.0137,
      "velocity": 98,
      "chip": "ym2612"
    },
    {
      "channel": 0,
      "note": 62,
      "start": 195.0303,
      "duration": 0.0146,
      "velocity": 99,
      "chip": "ym2612"
    },
    {
      "channel": 3,
      "note": 64,
      "start": 195.0314,
      "duration": 0.0144,
      "velocity": 98,
      "chip": "ym2612"
    },
    {
      "channel": 0,
      "note": 63,
      "start": 195.0483,
      "duration": 0.0138,
      "velocity": 99,
      "chip": "ym2612"
    },
    {
      "channel": 3,
      "note": 62,
      "start": 195.0495,
      "duration": 0.0135,
      "velocity": 98,
      "chip": "ym2612"
    },
    {
      "channel": 0,
      "note": 64,
      "start": 195.0664,
      "duration": 0.014,
      "velocity": 99,
      "chip": "ym2612"
    },
    {
      "channel": 3,
      "note": 63,
      "start": 195.0676,
      "duration": 0.0137,
      "velocity": 98,
      "chip": "ym2612"
    },
    {
      "channel": 0,
      "note": 67,
      "start": 195.1005,
      "duration": 0.0301,
      "velocity": 99,
      "chip": "ym2612"
    },
    {
      "channel": 3,
      "note": 64,
      "start": 195.1016,
      "duration": 0.0301,
      "velocity": 98,
      "chip": "ym2612"
    },
    {
      "channel": 0,
      "note": 64,
      "start": 195.1343,
      "duration": 0.0298,
      "velocity": 99,
      "chip": "ym2612"
    },
    {
      "channel": 3,
      "note": 67,
      "start": 195.1355,
      "duration": 0.0624,
      "velocity": 98,
      "chip": "ym2612"
    },
    {
      "channel": 0,
      "note": 64,
      "start": 195.1674,
      "duration": 0.0297,
      "velocity": 99,
      "chip": "ym2612"
    },
    {
      "channel": 0,
      "note": 59,
      "start": 195.2015,
      "duration": 0.0301,
      "velocity": 99,
      "chip": "ym2612"
    },
    {
      "channel": 3,
      "note": 64,
      "start": 195.2027,
      "duration": 0.0298,
      "velocity": 98,
      "chip": "ym2612"
    },
    {
      "channel": 0,
      "note": 62,
      "start": 195.2355,
      "duration": 0.0151,
      "velocity": 99,
      "chip": "ym2612"
    },
    {
      "channel": 3,
      "note": 59,
      "start": 195.2368,
      "duration": 0.0146,
      "velocity": 98,
      "chip": "ym2612"
    },
    {
      "channel": 0,
      "note": 63,
      "start": 195.2535,
      "duration": 0.0143,
      "velocity": 99,
      "chip": "ym2612"
    },
    {
      "channel": 3,
      "note": 62,
      "start": 195.2547,
      "duration": 0.014,
      "velocity": 98,
      "chip": "ym2612"
    },
    {
      "channel": 0,
      "note": 64,
      "start": 195.2726,
      "duration": 0.0145,
      "velocity": 99,
      "chip": "ym2612"
    },
    {
      "channel": 3,
      "note": 63,
      "start": 195.2738,
      "duration": 0.0142,
      "velocity": 98,
      "chip": "ym2612"
    },
    {
      "channel": 0,
      "note": 62,
      "start": 195.3073,
      "duration": 0.0156,
      "velocity": 99,
      "chip": "ym2612"
    },
    {
      "channel": 3,
      "note": 64,
      "start": 195.3085,
      "duration": 0.0154,
      "velocity": 98,
      "chip": "ym2612"
    },
    {
      "channel": 0,
      "note": 63,
      "start": 195.3259,
      "duration": 0.0135,
      "velocity": 99,
      "chip": "ym2612"
    },
    {
      "channel": 3,
      "note": 62,
      "start": 195.3271,
      "duration": 0.0132,
      "velocity": 98,
      "chip": "ym2612"
    },
    {
      "channel": 0,
      "note": 64,
      "start": 195.3432,
      "duration": 0.0144,
      "velocity": 99,
      "chip": "ym2612"
    },
    {
      "channel": 3,
      "note": 63,
      "start": 195.3444,
      "duration": 0.0144,
      "velocity": 98,
      "chip": "ym2612"
    },
    {
      "channel": 0,
      "note": 67,
      "start": 195.3771,
      "duration": 0.0307,
      "velocity": 99,
      "chip": "ym2612"
    },
    {
      "channel": 3,
      "note": 64,
      "start": 195.3782,
      "duration": 0.0305,
      "velocity": 98,
      "chip": "ym2612"
    },
    {
      "channel": 0,
      "note": 64,
      "start": 195.4114,
      "duration": 0.0292,
      "velocity": 99,
      "chip": "ym2612"
    },
    {
      "channel": 3,
      "note": 67,
      "start": 195.4125,
      "duration": 0.0619,
      "velocity": 98,
      "chip": "ym2612"
    },
    {
      "channel": 0,
      "note": 64,
      "start": 195.4444,
      "duration": 0.0293,
      "velocity": 99,
      "chip": "ym2612"
    },
    {
      "channel": 0,
      "note": 59,
      "start": 195.4779,
      "duration": 0.0341,
      "velocity": 99,
      "chip": "ym2612"
    },
    {
      "channel": 3,
      "note": 64,
      "start": 195.479,
      "duration": 0.0338,
      "velocity": 98,
      "chip": "ym2612"
    },
    {
      "channel": 4,
      "note": 88,
      "start": 195.5028,
      "duration": 0.029,
      "velocity": 99,
      "chip": "ym2612"
    },
    {
      "channel": 0,
      "note": 62,
      "start": 195.5155,
      "duration": 0.0201,
      "velocity": 99,
      "chip": "ym2612"
    },
    {
      "channel": 1,
      "note": 100,
      "start": 195.5182,
      "duration": 0.0263,
      "velocity": 100,
      "chip": "ym2612"
    },
    {
      "channel": 2,
      "note": 74,
      "start": 195.5208,
      "duration": 0.0153,
      "velocity": 98,
      "chip": "ym2612"
    },
    {
      "channel": 3,
      "note": 59,
      "start": 195.5217,
      "duration": 0.0148,
      "velocity": 98,
      "chip": "ym2612"
    },
    {
      "channel": 0,
      "note": 63,
      "start": 195.5403,
      "duration": 0.0152,
      "velocity": 99,
      "chip": "ym2612"
    },
    {
      "channel": 2,
      "note": 75,
      "start": 195.5411,
      "duration": 0.0149,
      "velocity": 98,
      "chip": "ym2612"
    },
    {
      "channel": 3,
      "note": 62,
      "start": 195.5417,
      "duration": 0.0146,
      "velocity": 98,
      "chip": "ym2612"
    },
    {
      "channel": 4,
      "note": 100,
      "start": 195.5459,
      "duration": 0.0054,
      "velocity": 99,
      "chip": "ym2612"
    },
    {
      "channel": 0,
      "note": 64,
      "start": 195.5595,
      "duration": 0.0146,
      "velocity": 99,
      "chip": "ym2612"
    },
    {
      "channel": 1,
      "note": 100,
      "start": 195.56,
      "duration": 0.0039,
      "velocity": 100,
      "chip": "ym2612"
    },
    {
      "channel": 2,
      "note": 76,
      "start": 195.5606,
      "duration": 0.0141,
      "velocity": 98,
      "chip": "ym2612"
    },
    {
      "channel": 3,
      "note": 63,
      "start": 195.5612,
      "duration": 0.0137,
      "velocity": 98,
      "chip": "ym2612"
    },
    {
      "channel": 4,
      "note": 100,
      "start": 195.565,
      "duration": 0.0051,
      "velocity": 99,
      "chip": "ym2612"
    },
    {
      "channel": 1,
      "note": 100,
      "start": 195.5776,
      "duration": 0.0034,
      "velocity": 100,
      "chip": "ym2612"
    },
    {
      "channel": 4,
      "note": 100,
      "start": 195.582,
      "duration": 0.0232,
      "velocity": 99,
      "chip": "ym2612"
    },
    {
      "channel": 0,
      "note": 62,
      "start": 195.5942,
      "duration": 0.015,
      "velocity": 99,
      "chip": "ym2612"
    },
    {
      "channel": 1,
      "note": 100,
      "start": 195.5949,
      "duration": 0.0223,
      "velocity": 100,
      "chip": "ym2612"
    },
    {
      "channel": 2,
      "note": 74,
      "start": 195.5954,
      "duration": 0.0144,
      "velocity": 98,
      "chip": "ym2612"
    },
    {
      "channel": 3,
      "note": 64,
      "start": 195.5964,
      "duration": 0.0137,
      "velocity": 98,
      "chip": "ym2612"
    },
    {
      "channel": 0,
      "note": 63,
      "start": 195.613,
      "duration": 0.0141,
      "velocity": 99,
      "chip": "ym2612"
    },
    {
      "channel": 2,
      "note": 75,
      "start": 195.6138,
      "duration": 0.0139,
      "velocity": 98,
      "chip": "ym2612"
    },
    {
      "channel": 3,
      "note": 62,
      "start": 195.6144,
      "duration": 0.0136,
      "velocity": 98,
      "chip": "ym2612"
    },
    {
      "channel": 4,
      "note": 100,
      "start": 195.6182,
      "duration": 0.0049,
      "velocity": 99,
      "chip": "ym2612"
    },
    {
      "channel": 0,
      "note": 64,
      "start": 195.6307,
      "duration": 0.0155,
      "velocity": 99,
      "chip": "ym2612"
    },
    {
      "channel": 1,
      "note": 100,
      "start": 195.6312,
      "duration": 0.0039,
      "velocity": 100,
      "chip": "ym2612"
    },
    {
      "channel": 2,
      "note": 76,
      "start": 195.6317,
      "duration": 0.0149,
      "velocity": 98,
      "chip": "ym2612"
    },
    {
      "channel": 3,
      "note": 63,
      "start": 195.6324,
      "duration": 0.0146,
      "velocity": 98,
      "chip": "ym2612"
    },
    {
      "channel": 4,
      "note": 100,
      "start": 195.6362,
      "duration": 0.0057,
      "velocity": 99,
      "chip": "ym2612"
    },
    {
      "channel": 1,
      "note": 100,
      "start": 195.6502,
      "duration": 0.0035,
      "velocity": 100,
      "chip": "ym2612"
    },
    {
      "channel": 4,
      "note": 100,
      "start": 195.6549,
      "duration": 0.0218,
      "velocity": 99,
      "chip": "ym2612"
    },
    {
      "channel": 0,
      "note": 67,
      "start": 195.6665,
      "duration": 0.0318,
      "velocity": 99,
      "chip": "ym2612"
    },
    {
      "channel": 1,
      "note": 100,
      "start": 195.667,
      "duration": 0.0207,
      "velocity": 100,
      "chip": "ym2612"
    },
    {
      "channel": 2,
      "note": 79,
      "start": 195.6676,
      "duration": 0.0312,
      "velocity": 98,
      "chip": "ym2612"
    },
    {
      "channel": 3,
      "note": 64,
      "start": 195.6682,
      "duration": 0.0309,
      "velocity": 98,
      "chip": "ym2612"
    },
    {
      "channel": 4,
      "note": 100,
      "start": 195.689,
      "duration": 0.0053,
      "velocity": 99,
      "chip": "ym2612"
    },
    {
      "channel": 0,
      "note": 64,
      "start": 195.7018,
      "duration": 0.0315,
      "velocity": 99,
      "chip": "ym2612"
    },
    {
      "channel": 1,
      "note": 100,
      "start": 195.7023,
      "duration": 0.0039,
      "velocity": 100,
      "chip": "ym2612"
    },
    {
      "channel": 2,
      "note": 76,
      "start": 195.7028,
      "duration": 0.0649,
      "velocity": 98,
      "chip": "ym2612"
    },
    {
      "channel": 3,
      "note": 67,
      "start": 195.7035,
      "duration": 0.0646,
      "velocity": 98,
      "chip": "ym2612"
    },
    {
      "channel": 4,
      "note": 100,
      "start": 195.7073,
      "duration": 0.005,
      "velocity": 99,
      "chip": "ym2612"
    },
    {
      "channel": 1,
      "note": 100,
      "start": 195.7198,
      "duration": 0.0029,
      "velocity": 100,
      "chip": "ym2612"
    },
    {
      "channel": 4,
      "note": 100,
      "start": 195.7237,
      "duration": 0.0233,
      "velocity": 99,
      "chip": "ym2612"
    },
    {
      "channel": 0,
      "note": 64,
      "start": 195.7372,
      "duration": 0.0301,
      "velocity": 99,
      "chip": "ym2612"
    },
    {
      "channel": 1,
      "note": 100,
      "start": 195.7377,
      "duration": 0.0194,
      "velocity": 100,
      "chip": "ym2612"
    },
    {
      "channel": 4,
      "note": 100,
      "start": 195.7583,
      "duration": 0.005,
      "velocity": 99,
      "chip": "ym2612"
    },
    {
      "channel": 0,
      "note": 59,
      "start": 195.7705,
      "duration": 0.0359,
      "velocity": 99,
      "chip": "ym2612"
    },
    {
      "channel": 1,
      "note": 100,
      "start": 195.7711,
      "duration": 0.0042,
      "velocity": 100,
      "chip": "ym2612"
    },
    {
      "channel": 2,
      "note": 71,
      "start": 195.7716,
      "duration": 0.0354,
      "velocity": 98,
      "chip": "ym2612"
    },
    {
      "channel": 3,
      "note": 64,
      "start": 195.7722,
      "duration": 0.0351,
      "velocity": 98,
      "chip": "ym2612"
    },
    {
      "channel": 4,
      "note": 100,
      "start": 195.7764,
      "duration": 0.0026,
      "velocity": 99,
      "chip": "ym2612"
    },
    {
      "channel": 1,
      "note": 100,
      "start": 195.79,
      "duration": 0.0064,
      "velocity": 100,
      "chip": "ym2612"
    },
    {
      "channel": 4,
      "note": 100,
      "start": 195.7975,
      "duration": 0.0251,
      "velocity": 99,
      "chip": "ym2612"
    },
    {
      "channel": 0,
      "note": 62,
      "start": 195.8094,
      "duration": 0.017,
      "velocity": 99,
      "chip": "ym2612"
    },
    {
      "channel": 1,
      "note": 100,
      "start": 195.8121,
      "duration": 0.022,
      "velocity": 100,
      "chip": "ym2612"
    },
    {
      "channel": 2,
      "note": 74,
      "start": 195.8127,
      "duration": 0.0142,
      "velocity": 98,
      "chip": "ym2612"
    },
    {
      "channel": 3,
      "note": 59,
      "start": 195.8136,
      "duration": 0.0139,
      "velocity": 98,
      "chip": "ym2612"
    },
    {
      "channel": 0,
      "note": 63,
      "start": 195.8295,
      "duration": 0.015,
      "velocity": 99,
      "chip": "ym2612"
    },
    {
      "channel": 2,
      "note": 75,
      "start": 195.8304,
      "duration": 0.0146,
      "velocity": 98,
      "chip": "ym2612"
    },
    {
      "channel": 3,
      "note": 62,
      "start": 195.8314,
      "duration": 0.0139,
      "velocity": 98,
      "chip": "ym2612"
    },
    {
      "channel": 4,
      "note": 100,
      "start": 195.8352,
      "duration": 0.0054,
      "velocity": 99,
      "chip": "ym2612"
    },
    {
      "channel": 0,
      "note": 64,
      "start": 195.848,
      "duration": 0.0146,
      "velocity": 99,
      "chip": "ym2612"
    },
    {
      "channel": 1,
      "note": 100,
      "start": 195.8485,
      "duration": 0.0039,
      "velocity": 100,
      "chip": "ym2612"
    },
    {
      "channel": 2,
      "note": 76,
      "start": 195.849,
      "duration": 0.0141,
      "velocity": 98,
      "chip": "ym2612"
    },
    {
      "channel": 3,
      "note": 63,
      "start": 195.8497,
      "duration": 0.0137,
      "velocity": 98,
      "chip": "ym2612"
    },
    {
      "channel": 4,
      "note": 100,
      "start": 195.8535,
      "duration": 0.0051,
      "velocity": 99,
      "chip": "ym2612"
    },
    {
      "channel": 1,
      "note": 100,
      "start": 195.8658,
      "duration": 0.0033,
      "velocity": 100,
      "chip": "ym2612"
    },
    {
      "channel": 4,
      "note": 100,
      "start": 195.8701,
      "duration": 0.0241,
      "velocity": 99,
      "chip": "ym2612"
    },
    {
      "channel": 0,
      "note": 62,
      "start": 195.8832,
      "duration": 0.015,
      "velocity": 99,
      "chip": "ym2612"
    },
    {
      "channel": 1,
      "note": 100,
      "start": 195.8837,
      "duration": 0.0223,
      "velocity": 100,
      "chip": "ym2612"
    },
    {
      "channel": 2,
      "note": 74,
      "start": 195.8843,
      "duration": 0.0144,
      "velocity": 98,
      "chip": "ym2612"
    },
    {
      "channel": 3,
      "note": 64,
      "start": 195.8849,
      "duration": 0.0141,
      "velocity": 98,
      "chip": "ym2612"
    },
    {
      "channel": 0,
      "note": 63,
      "start": 195.9018,
      "duration": 0.0141,
      "velocity": 99,
      "chip": "ym2612"
    },
    {
      "channel": 2,
      "note": 75,
      "start": 195.9026,
      "duration": 0.0139,
      "velocity": 98,
      "chip": "ym2612"
    },
    {
      "channel": 3,
      "note": 62,
      "start": 195.9032,
      "duration": 0.0136,
      "velocity": 98,
      "chip": "ym2612"
    },
    {
      "channel": 4,
      "note": 100,
      "start": 195.9071,
      "duration": 0.0049,
      "velocity": 99,
      "chip": "ym2612"
    },
    {
      "channel": 0,
      "note": 64,
      "start": 195.9199,
      "duration": 0.0154,
      "velocity": 99,
      "chip": "ym2612"
    },
    {
      "channel": 1,
      "note": 100,
      "start": 195.9208,
      "duration": 0.0039,
      "velocity": 100,
      "chip": "ym2612"
    },
    {
      "channel": 2,
      "note": 76,
      "start": 195.9214,
      "duration": 0.0144,
      "velocity": 98,
      "chip": "ym2612"
    },
    {
      "channel": 3,
      "note": 63,
      "start": 195.922,
      "duration": 0.0141,
      "velocity": 98,
      "chip": "ym2612"
    },
    {
      "channel": 4,
      "note": 100,
      "start": 195.9259,
      "duration": 0.0054,
      "velocity": 99,
      "chip": "ym2612"
    },
    {
      "channel": 1,
      "note": 100,
      "start": 195.9389,
      "duration": 0.0032,
      "velocity": 100,
      "chip": "ym2612"
    },
    {
      "channel": 4,
      "note": 100,
      "start": 195.9433,
      "duration": 0.022,
      "velocity": 99,
      "chip": "ym2612"
    },
    {
      "channel": 0,
      "note": 67,
      "start": 195.9549,
      "duration": 0.0322,
      "velocity": 99,
      "chip": "ym2612"
    },
    {
      "channel": 1,
      "note": 100,
      "start": 195.9554,
      "duration": 0.0217,
      "velocity": 100,
      "chip": "ym2612"
    },
    {
      "channel": 2,
      "note": 79,
      "start": 195.956,
      "duration": 0.0316,
      "velocity": 98,
      "chip": "ym2612"
    },
    {
      "channel": 3,
      "note": 64,
      "start": 195.9566,
      "duration": 0.0313,
      "velocity": 98,
      "chip": "ym2612"
    },
    {
      "channel": 4,
      "note": 100,
      "start": 195.9783,
      "duration": 0.0049,
      "velocity": 99,
      "chip": "ym2612"
    },
    {
      "channel": 0,
      "note": 64,
      "start": 195.9905,
      "duration": 0.0318,
      "velocity": 99,
      "chip": "ym2612"
    },
    {
      "channel": 1,
      "note": 100,
      "start": 195.9911,
      "duration": 0.0039,
      "velocity": 100,
      "chip": "ym2612"
    },
    {
      "channel": 2,
      "note": 76,
      "start": 195.9916,
      "duration": 0.0643,
      "velocity": 98,
      "chip": "ym2612"
    },
    {
      "channel": 3,
      "note": 67,
      "start": 195.9922,
      "duration": 0.0644,
      "velocity": 98,
      "chip": "ym2612"
    },
    {
      "channel": 4,
      "note": 100,
      "start": 195.996,
      "duration": 0.005,
      "velocity": 99,
      "chip": "ym2612"
    },
    {
      "channel": 1,
      "note": 100,
      "start": 196.0084,
      "duration": 0.0031,
      "velocity": 100,
      "chip": "ym2612"
    },
    {
      "channel": 4,
      "note": 100,
      "start": 196.0126,
      "duration": 0.0228,
      "velocity": 99,
      "chip": "ym2612"
    },
    {
      "channel": 0,
      "note": 64,
      "start": 196.026,
      "duration": 0.0295,
      "velocity": 99,
      "chip": "ym2612"
    },
    {
      "channel": 1,
      "note": 100,
      "start": 196.0265,
      "duration": 0.019,
      "velocity": 100,
      "chip": "ym2612"
    },
    {
      "channel": 4,
      "note": 100,
      "start": 196.0466,
      "duration": 0.005,
      "velocity": 99,
      "chip": "ym2612"
    },
    {
      "channel": 0,
      "note": 59,
      "start": 196.0595,
      "duration": 0.0349,
      "velocity": 99,
      "chip": "ym2612"
    },
    {
      "channel": 1,
      "note": 100,
      "start": 196.0602,
      "duration": 0.0042,
      "velocity": 100,
      "chip": "ym2612"
    },
    {
      "channel": 2,
      "note": 71,
      "start": 196.0607,
      "duration": 0.0342,
      "velocity": 98,
      "chip": "ym2612"
    },
    {
      "channel": 3,
      "note": 64,
      "start": 196.0616,
      "duration": 0.0336,
      "velocity": 98,
      "chip": "ym2612"
    },
    {
      "channel": 4,
      "note": 100,
      "start": 196.0655,
      "duration": 0.0029,
      "velocity": 99,
      "chip": "ym2612"
    },
    {
      "channel": 1,
      "note": 100,
      "start": 196.0783,
      "duration": 0.006,
      "velocity": 100,
      "chip": "ym2612"
    },
    {
      "channel": 4,
      "note": 100,
      "start": 196.0854,
      "duration": 0.0257,
      "velocity": 99,
      "chip": "ym2612"
    },
    {
      "channel": 0,
      "note": 62,
      "start": 196.0973,
      "duration": 0.018,
      "velocity": 99,
      "chip": "ym2612"
    },
    {
      "channel": 1,
      "note": 100,
      "start": 196.1,
      "duration": 0.0233,
      "velocity": 100,
      "chip": "ym2612"
    },
    {
      "channel": 2,
      "note": 74,
      "start": 196.1007,
      "duration": 0.0152,
      "velocity": 98,
      "chip": "ym2612"
    },
    {
      "channel": 3,
      "note": 59,
      "start": 196.1015,
      "duration": 0.0147,
      "velocity": 98,
      "chip": "ym2612"
    },
    {
      "channel": 0,
      "note": 63,
      "start": 196.1186,
      "duration": 0.0147,
      "velocity": 99,
      "chip": "ym2612"
    },
    {
      "channel": 2,
      "note": 75,
      "start": 196.1194,
      "duration": 0.0144,
      "velocity": 98,
      "chip": "ym2612"
    },
    {
      "channel": 3,
      "note": 62,
      "start": 196.12,
      "duration": 0.0141,
      "velocity": 98,
      "chip": "ym2612"
    },
    {
      "channel": 4,
      "note": 100,
      "start": 196.1244,
      "duration": 0.0051,
      "velocity": 99,
      "chip": "ym2612"
    },
    {
      "channel": 0,
      "note": 64,
      "start": 196.1368,
      "duration": 0.0146,
      "velocity": 99,
      "chip": "ym2612"
    },
    {
      "channel": 1,
      "note": 100,
      "start": 196.1373,
      "duration": 0.0039,
      "velocity": 100,
      "chip": "ym2612"
    },
    {
      "channel": 2,
      "note": 76,
      "start": 196.1378,
      "duration": 0.0141,
      "velocity": 98,
      "chip": "ym2612"
    },
    {
      "channel": 3,
      "note": 63,
      "start": 196.1385,
      "duration": 0.0138,
      "velocity": 98,
      "chip": "ym2612"
    },
    {
      "channel": 4,
      "note": 100,
      "start": 196.1423,
      "duration": 0.0051,
      "velocity": 99,
      "chip": "ym2612"
    },
    {
      "channel": 1,
      "note": 100,
      "start": 196.1554,
      "duration": 0.0032,
      "velocity": 100,
      "chip": "ym2612"
    },
    {
      "channel": 4,
      "note": 100,
      "start": 196.1602,
      "duration": 0.022,
      "velocity": 99,
      "chip": "ym2612"
    },
    {
      "channel": 0,
      "note": 62,
      "start": 196.1721,
      "duration": 0.0141,
      "velocity": 99,
      "chip": "ym2612"
    },
    {
      "channel": 1,
      "note": 100,
      "start": 196.1726,
      "duration": 0.0214,
      "velocity": 100,
      "chip": "ym2612"
    },
    {
      "channel": 2,
      "note": 74,
      "start": 196.1732,
      "duration": 0.0135,
      "velocity": 98,
      "chip": "ym2612"
    },
    {
      "channel": 3,
      "note": 64,
      "start": 196.1738,
      "duration": 0.0132,
      "velocity": 98,
      "chip": "ym2612"
    },
    {
      "channel": 0,
      "note": 63,
      "start": 196.1899,
      "duration": 0.0148,
      "velocity": 99,
      "chip": "ym2612"
    },
    {
      "channel": 2,
      "note": 75,
      "start": 196.1906,
      "duration": 0.0145,
      "velocity": 98,
      "chip": "ym2612"
    },
    {
      "channel": 3,
      "note": 62,
      "start": 196.1912,
      "duration": 0.0144,
      "velocity": 98,
      "chip": "ym2612"
    },
    {
      "channel": 4,
      "note": 100,
      "start": 196.1951,
      "duration": 0.0053,
      "velocity": 99,
      "chip": "ym2612"
    },
    {
      "channel": 0,
      "note": 64,
      "start": 196.2091,
      "duration": 0.0149,
      "velocity": 99,
      "chip": "ym2612"
    },
    {
      "channel": 1,
      "note": 100,
      "start": 196.2096,
      "duration": 0.0043,
      "velocity": 100,
      "chip": "ym2612"
    },
    {
      "channel": 2,
      "note": 76,
      "start": 196.2102,
      "duration": 0.0143,
      "velocity": 98,
      "chip": "ym2612"
    },
    {
      "channel": 3,
      "note": 63,
      "start": 196.2109,
      "duration": 0.0139,
      "velocity": 98,
      "chip": "ym2612"
    },
    {
      "channel": 4,
      "note": 100,
      "start": 196.215,
      "duration": 0.0051,
      "velocity": 99,
      "chip": "ym2612"
    },
    {
      "channel": 1,
      "note": 100,
      "start": 196.2275,
      "duration": 0.0034,
      "velocity": 100,
      "chip": "ym2612"
    },
    {
      "channel": 4,
      "note": 100,
      "start": 196.2319,
      "duration": 0.0244,
      "velocity": 99,
      "chip": "ym2612"
    },
    {
      "channel": 0,
      "note": 67,
      "start": 196.2451,
      "duration": 0.0326,
      "velocity": 99,
      "chip": "ym2612"
    },
    {
      "channel": 1,
      "note": 100,
      "start": 196.2456,
      "duration": 0.0221,
      "velocity": 100,
      "chip": "ym2612"
    },
    {
      "channel": 2,
      "note": 79,
      "start": 196.2462,
      "duration": 0.032,
      "velocity": 98,
      "chip": "ym2612"
    },
    {
      "channel": 3,
      "note": 64,
      "start": 196.2468,
      "duration": 0.0317,
      "velocity": 98,
      "chip": "ym2612"
    },
    {
      "channel": 4,
      "note": 100,
      "start": 196.2688,
      "duration": 0.005,
      "velocity": 99,
      "chip": "ym2612"
    },
    {
      "channel": 0,
      "note": 64,
      "start": 196.2811,
      "duration": 0.0321,
      "velocity": 99,
      "chip": "ym2612"
    },
    {
      "channel": 1,
      "note": 100,
      "start": 196.2817,
      "duration": 0.004,
      "velocity": 100,
      "chip": "ym2612"
    },
    {
      "channel": 2,
      "note": 76,
      "start": 196.2822,
      "duration": 0.0654,
      "velocity": 98,
      "chip": "ym2612"
    },
    {
      "channel": 3,
      "note": 67,
      "start": 196.2828,
      "duration": 0.0651,
      "velocity": 98,
      "chip": "ym2612"
    },
    {
      "channel": 4,
      "note": 100,
      "start": 196.2867,
      "duration": 0.005,
      "velocity": 99,
      "chip": "ym2612"
    },
    {
      "channel": 1,
      "note": 100,
      "start": 196.2996,
      "duration": 0.0033,
      "velocity": 100,
      "chip": "ym2612"
    },
    {
      "channel": 4,
      "note": 100,
      "start": 196.3041,
      "duration": 0.0218,
      "velocity": 99,
      "chip": "ym2612"
    },
    {
      "channel": 0,
      "note": 64,
      "start": 196.3165,
      "duration": 0.0306,
      "velocity": 99,
      "chip": "ym2612"
    },
    {
      "channel": 1,
      "note": 100,
      "start": 196.317,
      "duration": 0.0189,
      "velocity": 100,
      "chip": "ym2612"
    },
    {
      "channel": 4,
      "note": 100,
      "start": 196.337,
      "duration": 0.0057,
      "velocity": 99,
      "chip": "ym2612"
    },
    {
      "channel": 0,
      "note": 59,
      "start": 196.3509,
      "duration": 0.0314,
      "velocity": 99,
      "chip": "ym2612"
    },
    {
      "channel": 1,
      "note": 100,
      "start": 196.3515,
      "duration": 0.0043,
      "velocity": 100,
      "chip": "ym2612"
    },
    {
      "channel": 2,
      "note": 83,
      "start": 196.352,
      "duration": 0.0308,
      "velocity": 98,
      "chip": "ym2612"
    },
    {
      "channel": 3,
      "note": 64,
      "start": 196.3526,
      "duration": 0.0305,
      "velocity": 98,
      "chip": "ym2612"
    },
    {
      "channel": 4,
      "note": 100,
      "start": 196.3569,
      "duration": 0.0025,
      "velocity": 99,
      "chip": "ym2612"
    },
    {
      "channel": 1,
      "note": 100,
      "start": 196.3693,
      "duration": 0.0033,
      "velocity": 100,
      "chip": "ym2612"
    },
    {
      "channel": 4,
      "note": 100,
      "start": 196.3705,
      "duration": 0.0237,
      "velocity": 99,
      "chip": "ym2612"
    },
    {
      "channel": 0,
      "note": 64,
      "start": 196.3859,
      "duration": 0.0303,
      "velocity": 99,
      "chip": "ym2612"
    },
    {
      "channel": 1,
      "note": 100,
      "start": 196.3866,
      "duration": 0.0202,
      "velocity": 100,
      "chip": "ym2612"
    },
    {
      "channel": 2,
      "note": 76,
      "start": 196.3871,
      "duration": 0.0296,
      "velocity": 98,
      "chip": "ym2612"
    },
    {
      "channel": 3,
      "note": 59,
      "start": 196.3878,
      "duration": 0.0292,
      "velocity": 98,
      "chip": "ym2612"
    },
    {
      "channel": 0,
      "note": 59,
      "start": 196.4193,
      "duration": 0.0366,
      "velocity": 99,
      "chip": "ym2612"
    },
    {
      "channel": 1,
      "note": 59,
      "start": 196.4217,
      "duration": 0.0246,
      "velocity": 98,
      "chip": "ym2612"
    },
    {
      "channel": 2,
      "note": 66,
      "start": 196.4242,
      "duration": 0.0224,
      "velocity": 98,
      "chip": "ym2612"
    },
    {
      "channel": 4,
      "note": 100,
      "start": 196.4446,
      "duration": 0.0292,
      "velocity": 98,
      "chip": "ym2612"
    },
    {
      "channel": 0,
      "note": 59,
      "start": 196.4595,
      "duration": 0.0371,
      "velocity": 99,
      "chip": "ym2612"
    },
    {
      "channel": 1,
      "note": 59,
      "start": 196.4617,
      "duration": 0.0243,
      "velocity": 98,
      "chip": "ym2612"
    },
    {
      "channel": 2,
      "note": 66,
      "start": 196.464,
      "duration": 0.0223,
      "velocity": 98,
      "chip": "ym2612"
    },
    {
      "channel": 3,
      "note": 64,
      "start": 196.4676,
      "duration": 0.019,
      "velocity": 98,
      "chip": "ym2612"
    },
    {
      "channel": 4,
      "note": 59,
      "start": 196.4839,
      "duration": 0.0278,
      "velocity": 98,
      "chip": "ym2612"
    },
    {
      "channel": 0,
      "note": 59,
      "start": 196.5002,
      "duration": 0.033,
      "velocity": 99,
      "chip": "ym2612"
    },
    {
      "channel": 1,
      "note": 59,
      "start": 196.5024,
      "duration": 0.0211,
      "velocity": 98,
      "chip": "ym2612"
    },
    {
      "channel": 2,
      "note": 66,
      "start": 196.5048,
      "duration": 0.019,
      "velocity": 98,
      "chip": "ym2612"
    },
    {
      "channel": 3,
      "note": 59,
      "start": 196.5057,
      "duration": 0.0184,
      "velocity": 98,
      "chip": "ym2612"
    },
    {
      "channel": 4,
      "note": 59,
      "start": 196.5216,
      "duration": 0.0235,
      "velocity": 98,
      "chip": "ym2612"
    },
    {
      "channel": 0,
      "note": 59,
      "start": 196.5368,
      "duration": 0.0299,
      "velocity": 99,
      "chip": "ym2612"
    },
    {
      "channel": 1,
      "note": 59,
      "start": 196.5375,
      "duration": 0.0196,
      "velocity": 98,
      "chip": "ym2612"
    },
    {
      "channel": 2,
      "note": 66,
      "start": 196.538,
      "duration": 0.0194,
      "velocity": 98,
      "chip": "ym2612"
    },
    {
      "channel": 3,
      "note": 59,
      "start": 196.539,
      "duration": 0.0188,
      "velocity": 98,
      "chip": "ym2612"
    },
    {
      "channel": 4,
      "note": 59,
      "start": 196.5552,
      "duration": 0.0263,
      "velocity": 98,
      "chip": "ym2612"
    },
    {
      "channel": 0,
      "note": 59,
      "start": 196.5699,
      "duration": 0.034,
      "velocity": 99,
      "chip": "ym2612"
    },
    {
      "channel": 1,
      "note": 59,
      "start": 196.5722,
      "duration": 0.022,
      "velocity": 98,
      "chip": "ym2612"
    },
    {
      "channel": 2,
      "note": 66,
      "start": 196.5744,
      "duration": 0.02,
      "velocity": 98,
      "chip": "ym2612"
    },
    {
      "channel": 3,
      "note": 59,
      "start": 196.5751,
      "duration": 0.0197,
      "velocity": 98,
      "chip": "ym2612"
    },
    {
      "channel": 4,
      "note": 59,
      "start": 196.5923,
      "duration": 0.024,
      "velocity": 98,
      "chip": "ym2612"
    },
    {
      "channel": 0,
      "note": 59,
      "start": 196.6086,
      "duration": 0.0306,
      "velocity": 99,
      "chip": "ym2612"
    },
    {
      "channel": 1,
      "note": 59,
      "start": 196.6091,
      "duration": 0.0196,
      "velocity": 98,
      "chip": "ym2612"
    },
    {
      "channel": 2,
      "note": 66,
      "start": 196.6097,
      "duration": 0.0193,
      "velocity": 98,
      "chip": "ym2612"
    },
    {
      "channel": 3,
      "note": 59,
      "start": 196.6103,
      "duration": 0.019,
      "velocity": 98,
      "chip": "ym2612"
    },
    {
      "channel": 4,
      "note": 59,
      "start": 196.6268,
      "duration": 0.0273,
      "velocity": 98,
      "chip": "ym2612"
    },
    {
      "channel": 0,
      "note": 59,
      "start": 196.6426,
      "duration": 0.0332,
      "velocity": 99,
      "chip": "ym2612"
    },
    {
      "channel": 1,
      "note": 59,
      "start": 196.6448,
      "duration": 0.0209,
      "velocity": 98,
      "chip": "ym2612"
    },
    {
      "channel": 2,
      "note": 66,
      "start": 196.6471,
      "duration": 0.0189,
      "velocity": 98,
      "chip": "ym2612"
    },
    {
      "channel": 3,
      "note": 59,
      "start": 196.6477,
      "duration": 0.0186,
      "velocity": 98,
      "chip": "ym2612"
    },
    {
      "channel": 0,
      "note": 60,
      "start": 196.6788,
      "duration": 1.9104,
      "velocity": 99,
      "chip": "ym2612"
    },
    {
      "channel": 2,
      "note": 60,
      "start": 196.682,
      "duration": 1.9077,
      "velocity": 98,
      "chip": "ym2612"
    },
    {
      "channel": 3,
      "note": 59,
      "start": 196.6856,
      "duration": 1.9046,
      "velocity": 98,
      "chip": "ym2612"
    },
    {
      "channel": 1,
      "note": 91,
      "start": 197.2701,
      "duration": 0.5913,
      "velocity": 99,
      "chip": "ym2612"
    },
    {
      "channel": 4,
      "note": 59,
      "start": 197.3654,
      "duration": 0.5073,
      "velocity": 99,
      "chip": "ym2612"
    },
    {
      "channel": 1,
      "note": 90,
      "start": 197.8662,
      "duration": 0.5736,
      "velocity": 99,
      "chip": "ym2612"
    },
    {
      "channel": 4,
      "note": 91,
      "start": 197.8834,
      "duration": 0.5789,
      "velocity": 99,
      "chip": "ym2612"
    },
    {
      "channel": 1,
      "note": 86,
      "start": 198.4556,
      "duration": 0.1339,
      "velocity": 99,
      "chip": "ym2612"
    },
    {
      "channel": 4,
      "note": 90,
      "start": 198.4731,
      "duration": 0.1276,
      "velocity": 99,
      "chip": "ym2612"
    },
    {
      "channel": 0,
      "note": 62,
      "start": 198.5929,
      "duration": 1.616,
      "velocity": 99,
      "chip": "ym2612"
    },
    {
      "channel": 2,
      "note": 62,
      "start": 198.5938,
      "duration": 1.6157,
      "velocity": 98,
      "chip": "ym2612"
    },
    {
      "channel": 3,
      "note": 55,
      "start": 198.5944,
      "duration": 1.6154,
      "velocity": 98,
      "chip": "ym2612"
    },
    {
      "channel": 1,
      "note": 91,
      "start": 199.1828,
      "duration": 0.593,
      "velocity": 99,
      "chip": "ym2612"
    },
    {
      "channel": 4,
      "note": 86,
      "start": 199.2774,
      "duration": 0.5275,
      "velocity": 99,
      "chip": "ym2612"
    },
    {
      "channel": 1,
      "note": 90,
      "start": 199.7787,
      "duration": 0.2814,
      "velocity": 99,
      "chip": "ym2612"
    },
    {
      "channel": 4,
      "note": 91,
      "start": 199.8679,
      "duration": 0.2042,
      "velocity": 99,
      "chip": "ym2612"
    },
    {
      "channel": 1,
      "note": 86,
      "start": 200.0654,
      "duration": 0.1438,
      "velocity": 99,
      "chip": "ym2612"
    },
    {
      "channel": 4,
      "note": 90,
      "start": 200.0843,
      "duration": 0.0952,
      "velocity": 99,
      "chip": "ym2612"
    },
    {
      "channel": 4,
      "note": 86,
      "start": 200.2017,
      "duration": 0.0055,
      "velocity": 96,
      "chip": "ym2612"
    },
    {
      "channel": 0,
      "note": 86,
      "start": 200.2143,
      "duration": 0.0167,
      "velocity": 96,
      "chip": "ym2612"
    },
    {
      "channel": 1,
      "note": 88,
      "start": 200.2172,
      "duration": 3.5989,
      "velocity": 98,
      "chip": "ym2612"
    },
    {
      "channel": 4,
      "note": 86,
      "start": 200.2251,
      "duration": 0.0071,
      "velocity": 96,
      "chip": "ym2612"
    },
    {
      "channel": 0,
      "note": 81,
      "start": 200.2369,
      "duration": 0.006,
      "velocity": 96,
      "chip": "ym2612"
    },
    {
      "channel": 4,
      "note": 81,
      "start": 200.2384,
      "duration": 0.0057,
      "velocity": 96,
      "chip": "ym2612"
    },
    {
      "channel": 0,
      "note": 76,
      "start": 200.249,
      "duration": 0.0057,
      "velocity": 96,
      "chip": "ym2612"
    },
    {
      "channel": 4,
      "note": 76,
      "start": 200.2505,
      "duration": 0.0054,
      "velocity": 96,
      "chip": "ym2612"
    },
    {
      "channel": 0,
      "note": 86,
      "start": 200.2605,
      "duration": 0.0098,
      "velocity": 96,
      "chip": "ym2612"
    },
    {
      "channel": 2,
      "note": 88,
      "start": 200.2614,
      "duration": 3.7201,
      "velocity": 98,
      "chip": "ym2612"
    },
    {
      "channel": 4,
      "note": 86,
      "start": 200.2629,
      "duration": 0.0088,
      "velocity": 96,
      "chip": "ym2612"
    },
    {
      "channel": 0,
      "note": 81,
      "start": 200.3017,
      "duration": 0.031,
      "velocity": 96,
      "chip": "ym2612"
    },
    {
      "channel": 4,
      "note": 81,
      "start": 200.3034,
      "duration": 0.0317,
      "velocity": 96,
      "chip": "ym2612"
    },
    {
      "channel": 3,
      "note": 57,
      "start": 200.3341,
      "duration": 3.6825,
      "velocity": 98,
      "chip": "ym2612"
    },
    {
      "channel": 0,
      "note": 76,
      "start": 200.3642,
      "duration": 0.031,
      "velocity": 96,
      "chip": "ym2612"
    },
    {
      "channel": 4,
      "note": 76,
      "start": 200.3688,
      "duration": 0.0279,
      "velocity": 96,
      "chip": "ym2612"
    },
    {
      "channel": 0,
      "note": 86,
      "start": 200.4284,
      "duration": 0.0293,
      "velocity": 96,
      "chip": "ym2612"
    },
    {
      "channel": 4,
      "note": 86,
      "start": 200.4302,
      "duration": 0.029,
      "velocity": 96,
      "chip": "ym2612"
    },
    {
      "channel": 0,
      "note": 81,
      "start": 200.4892,
      "duration": 0.031,
      "velocity": 96,
      "chip": "ym2612"
    },
    {
      "channel": 4,
      "note": 81,
      "start": 200.491,
      "duration": 0.0306,
      "velocity": 96,
      "chip": "ym2612"
    },
    {
      "channel": 0,
      "note": 76,
      "start": 200.5517,
      "duration": 0.031,
      "velocity": 96,
      "chip": "ym2612"
    },
    {
      "channel": 4,
      "note": 76,
      "start": 200.5533,
      "duration": 0.0307,
      "velocity": 96,
      "chip": "ym2612"
    },
    {
      "channel": 0,
      "note": 86,
      "start": 200.6142,
      "duration": 0.0309,
      "velocity": 96,
      "chip": "ym2612"
    },
    {
      "channel": 4,
      "note": 86,
      "start": 200.6162,
      "duration": 0.0303,
      "velocity": 96,
      "chip": "ym2612"
    },
    {
      "channel": 0,
      "note": 81,
      "start": 200.6766,
      "duration": 0.0311,
      "velocity": 96,
      "chip": "ym2612"
    },
    {
      "channel": 4,
      "note": 81,
      "start": 200.6783,
      "duration": 0.0306,
      "velocity": 96,
      "chip": "ym2612"
    },
    {
      "channel": 0,
      "note": 76,
      "start": 200.739,
      "duration": 0.031,
      "velocity": 96,
      "chip": "ym2612"
    },
    {
      "channel": 4,
      "note": 76,
      "start": 200.7432,
      "duration": 0.0282,
      "velocity": 96,
      "chip": "ym2612"
    },
    {
      "channel": 0,
      "note": 86,
      "start": 200.8033,
      "duration": 0.0293,
      "velocity": 96,
      "chip": "ym2612"
    },
    {
      "channel": 4,
      "note": 86,
      "start": 200.8047,
      "duration": 0.029,
      "velocity": 96,
      "chip": "ym2612"
    },
    {
      "channel": 0,
      "note": 81,
      "start": 200.864,
      "duration": 0.031,
      "velocity": 96,
      "chip": "ym2612"
    },
    {
      "channel": 4,
      "note": 81,
      "start": 200.8659,
      "duration": 0.0303,
      "velocity": 96,
      "chip": "ym2612"
    },
    {
      "channel": 0,
      "note": 76,
      "start": 200.9265,
      "duration": 0.031,
      "velocity": 96,
      "chip": "ym2612"
    },
    {
      "channel": 4,
      "note": 76,
      "start": 200.928,
      "duration": 0.0307,
      "velocity": 96,
      "chip": "ym2612"
    },
    {
      "channel": 0,
      "note": 86,
      "start": 200.989,
      "duration": 0.031,
      "velocity": 96,
      "chip": "ym2612"
    },
    {
      "channel": 4,
      "note": 86,
      "start": 200.9905,
      "duration": 0.0307,
      "velocity": 96,
      "chip": "ym2612"
    },
    {
      "channel": 0,
      "note": 81,
      "start": 201.0515,
      "duration": 0.0314,
      "velocity": 96,
      "chip": "ym2612"
    },
    {
      "channel": 4,
      "note": 81,
      "start": 201.0529,
      "duration": 0.0311,
      "velocity": 96,
      "chip": "ym2612"
    },
    {
      "channel": 0,
      "note": 76,
      "start": 201.1139,
      "duration": 0.0311,
      "velocity": 96,
      "chip": "ym2612"
    },
    {
      "channel": 4,
      "note": 76,
      "start": 201.1183,
      "duration": 0.0278,
      "velocity": 96,
      "chip": "ym2612"
    },
    {
      "channel": 0,
      "note": 86,
      "start": 201.1781,
      "duration": 0.0293,
      "velocity": 96,
      "chip": "ym2612"
    },
    {
      "channel": 4,
      "note": 86,
      "start": 201.1796,
      "duration": 0.029,
      "velocity": 96,
      "chip": "ym2612"
    },
    {
      "channel": 0,
      "note": 81,
      "start": 201.2389,
      "duration": 0.031,
      "velocity": 96,
      "chip": "ym2612"
    },
    {
      "channel": 4,
      "note": 81,
      "start": 201.2404,
      "duration": 0.0307,
      "velocity": 96,
      "chip": "ym2612"
    },
    {
      "channel": 0,
      "note": 76,
      "start": 201.3014,
      "duration": 0.031,
      "velocity": 96,
      "chip": "ym2612"
    },
    {
      "channel": 4,
      "note": 76,
      "start": 201.3028,
      "duration": 0.0311,
      "velocity": 96,
      "chip": "ym2612"
    },
    {
      "channel": 0,
      "note": 86,
      "start": 201.3639,
      "duration": 0.0065,
      "velocity": 96,
      "chip": "ym2612"
    },
    {
      "channel": 4,
      "note": 86,
      "start": 201.3654,
      "duration": 0.0061,
      "velocity": 96,
      "chip": "ym2612"
    },
    {
      "channel": 0,
      "note": 81,
      "start": 201.3759,
      "duration": 0.0056,
      "velocity": 96,
      "chip": "ym2612"
    },
    {
      "channel": 4,
      "note": 81,
      "start": 201.3774,
      "duration": 0.0053,
      "velocity": 96,
      "chip": "ym2612"
    },
    {
      "channel": 0,
      "note": 76,
      "start": 201.3871,
      "duration": 0.0083,
      "velocity": 96,
      "chip": "ym2612"
    },
    {
      "channel": 4,
      "note": 76,
      "start": 201.3911,
      "duration": 0.0054,
      "velocity": 96,
      "chip": "ym2612"
    },
    {
      "channel": 0,
      "note": 86,
      "start": 201.4033,
      "duration": 0.0064,
      "velocity": 96,
      "chip": "ym2612"
    },
    {
      "channel": 4,
      "note": 86,
      "start": 201.4048,
      "duration": 0.0064,
      "velocity": 96,
      "chip": "ym2612"
    },
    {
      "channel": 0,
      "note": 81,
      "start": 201.4158,
      "duration": 0.0064,
      "velocity": 96,
      "chip": "ym2612"
    },
    {
      "channel": 4,
      "note": 81,
      "start": 201.4174,
      "duration": 0.0059,
      "velocity": 96,
      "chip": "ym2612"
    },
    {
      "channel": 0,
      "note": 76,
      "start": 201.4278,
      "duration": 0.0057,
      "velocity": 96,
      "chip": "ym2612"
    },
    {
      "channel": 4,
      "note": 76,
      "start": 201.4293,
      "duration": 0.0054,
      "velocity": 96,
      "chip": "ym2612"
    },
    {
      "channel": 0,
      "note": 86,
      "start": 201.439,
      "duration": 0.0215,
      "velocity": 96,
      "chip": "ym2612"
    },
    {
      "channel": 4,
      "note": 86,
      "start": 201.4405,
      "duration": 0.0212,
      "velocity": 96,
      "chip": "ym2612"
    },
    {
      "channel": 0,
      "note": 81,
      "start": 201.492,
      "duration": 0.0312,
      "velocity": 96,
      "chip": "ym2612"
    },
    {
      "channel": 4,
      "note": 81,
      "start": 201.4934,
      "duration": 0.0312,
      "velocity": 96,
      "chip": "ym2612"
    },
    {
      "channel": 0,
      "note": 76,
      "start": 201.5544,
      "duration": 0.031,
      "velocity": 96,
      "chip": "ym2612"
    },
    {
      "channel": 4,
      "note": 76,
      "start": 201.5589,
      "duration": 0.0277,
      "velocity": 96,
      "chip": "ym2612"
    },
    {
      "channel": 0,
      "note": 86,
      "start": 201.6186,
      "duration": 0.0293,
      "velocity": 96,
      "chip": "ym2612"
    },
    {
      "channel": 4,
      "note": 86,
      "start": 201.6201,
      "duration": 0.029,
      "velocity": 96,
      "chip": "ym2612"
    },
    {
      "channel": 0,
      "note": 81,
      "start": 201.6794,
      "duration": 0.031,
      "velocity": 96,
      "chip": "ym2612"
    },
    {
      "channel": 4,
      "note": 81,
      "start": 201.6809,
      "duration": 0.0307,
      "velocity": 96,
      "chip": "ym2612"
    },
    {
      "channel": 0,
      "note": 76,
      "start": 201.7419,
      "duration": 0.031,
      "velocity": 96,
      "chip": "ym2612"
    },
    {
      "channel": 4,
      "note": 76,
      "start": 201.7434,
      "duration": 0.0308,
      "velocity": 96,
      "chip": "ym2612"
    },
    {
      "channel": 0,
      "note": 86,
      "start": 201.8043,
      "duration": 0.031,
      "velocity": 96,
      "chip": "ym2612"
    },
    {
      "channel": 4,
      "note": 86,
      "start": 201.8058,
      "duration": 0.0307,
      "velocity": 96,
      "chip": "ym2612"
    },
    {
      "channel": 0,
      "note": 81,
      "start": 201.8668,
      "duration": 0.0311,
      "velocity": 96,
      "chip": "ym2612"
    },
    {
      "channel": 4,
      "note": 81,
      "start": 201.8683,
      "duration": 0.0307,
      "velocity": 96,
      "chip": "ym2612"
    },
    {
      "channel": 0,
      "note": 76,
      "start": 201.9293,
      "duration": 0.031,
      "velocity": 96,
      "chip": "ym2612"
    },
    {
      "channel": 4,
      "note": 76,
      "start": 201.9333,
      "duration": 0.0282,
      "velocity": 96,
      "chip": "ym2612"
    },
    {
      "channel": 0,
      "note": 86,
      "start": 201.9938,
      "duration": 0.0291,
      "velocity": 96,
      "chip": "ym2612"
    },
    {
      "channel": 4,
      "note": 86,
      "start": 201.9953,
      "duration": 0.0289,
      "velocity": 96,
      "chip": "ym2612"
    },
    {
      "channel": 0,
      "note": 81,
      "start": 202.0543,
      "duration": 0.031,
      "velocity": 96,
      "chip": "ym2612"
    },
    {
      "channel": 4,
      "note": 81,
      "start": 202.0557,
      "duration": 0.0307,
      "velocity": 96,
      "chip": "ym2612"
    },
    {
      "channel": 0,
      "note": 76,
      "start": 202.1167,
      "duration": 0.031,
      "velocity": 96,
      "chip": "ym2612"
    },
    {
      "channel": 4,
      "note": 76,
      "start": 202.1182,
      "duration": 0.0307,
      "velocity": 96,
      "chip": "ym2612"
    },
    {
      "channel": 0,
      "note": 86,
      "start": 202.1792,
      "duration": 0.031,
      "velocity": 96,
      "chip": "ym2612"
    },
    {
      "channel": 4,
      "note": 86,
      "start": 202.1807,
      "duration": 0.0307,
      "velocity": 96,
      "chip": "ym2612"
    },
    {
      "channel": 0,
      "note": 81,
      "start": 202.242,
      "duration": 0.0307,
      "velocity": 96,
      "chip": "ym2612"
    },
    {
      "channel": 4,
      "note": 81,
      "start": 202.2435,
      "duration": 0.0305,
      "velocity": 96,
      "chip": "ym2612"
    },
    {
      "channel": 0,
      "note": 76,
      "start": 202.3042,
      "duration": 0.031,
      "velocity": 96,
      "chip": "ym2612"
    },
    {
      "channel": 4,
      "note": 76,
      "start": 202.3086,
      "duration": 0.0278,
      "velocity": 96,
      "chip": "ym2612"
    },
    {
      "channel": 0,
      "note": 86,
      "start": 202.3684,
      "duration": 0.0293,
      "velocity": 96,
      "chip": "ym2612"
    },
    {
      "channel": 4,
      "note": 86,
      "start": 202.3699,
      "duration": 0.029,
      "velocity": 96,
      "chip": "ym2612"
    },
    {
      "channel": 0,
      "note": 81,
      "start": 202.4291,
      "duration": 0.031,
      "velocity": 96,
      "chip": "ym2612"
    },
    {
      "channel": 4,
      "note": 81,
      "start": 202.4306,
      "duration": 0.0307,
      "velocity": 96,
      "chip": "ym2612"
    },
    {
      "channel": 0,
      "note": 76,
      "start": 202.4916,
      "duration": 0.0311,
      "velocity": 96,
      "chip": "ym2612"
    },
    {
      "channel": 4,
      "note": 76,
      "start": 202.4934,
      "duration": 0.0305,
      "velocity": 96,
      "chip": "ym2612"
    },
    {
      "channel": 0,
      "note": 86,
      "start": 202.5541,
      "duration": 0.0061,
      "velocity": 96,
      "chip": "ym2612"
    },
    {
      "channel": 4,
      "note": 86,
      "start": 202.5556,
      "duration": 0.0058,
      "velocity": 96,
      "chip": "ym2612"
    },
    {
      "channel": 0,
      "note": 81,
      "start": 202.5657,
      "duration": 0.0058,
      "velocity": 96,
      "chip": "ym2612"
    },
    {
      "channel": 4,
      "note": 81,
      "start": 202.5672,
      "duration": 0.0054,
      "velocity": 96,
      "chip": "ym2612"
    },
    {
      "channel": 0,
      "note": 76,
      "start": 202.5769,
      "duration": 0.0083,
      "velocity": 96,
      "chip": "ym2612"
    },
    {
      "channel": 4,
      "note": 76,
      "start": 202.5809,
      "duration": 0.0055,
      "velocity": 96,
      "chip": "ym2612"
    },
    {
      "channel": 0,
      "note": 86,
      "start": 202.5941,
      "duration": 0.0069,
      "velocity": 96,
      "chip": "ym2612"
    },
    {
      "channel": 4,
      "note": 86,
      "start": 202.596,
      "duration": 0.0061,
      "velocity": 96,
      "chip": "ym2612"
    },
    {
      "channel": 0,
      "note": 81,
      "start": 202.6066,
      "duration": 0.0056,
      "velocity": 96,
      "chip": "ym2612"
    },
    {
      "channel": 4,
      "note": 81,
      "start": 202.608,
      "duration": 0.0053,
      "velocity": 96,
      "chip": "ym2612"
    },
    {
      "channel": 0,
      "note": 76,
      "start": 202.6176,
      "duration": 0.0057,
      "velocity": 96,
      "chip": "ym2612"
    },
    {
      "channel": 4,
      "note": 76,
      "start": 202.6191,
      "duration": 0.0054,
      "velocity": 96,
      "chip": "ym2612"
    },
    {
      "channel": 0,
      "note": 86,
      "start": 202.6288,
      "duration": 0.0214,
      "velocity": 96,
      "chip": "ym2612"
    },
    {
      "channel": 4,
      "note": 86,
      "start": 202.6307,
      "duration": 0.0206,
      "velocity": 96,
      "chip": "ym2612"
    },
    {
      "channel": 0,
      "note": 81,
      "start": 202.6817,
      "duration": 0.0309,
      "velocity": 96,
      "chip": "ym2612"
    },
    {
      "channel": 4,
      "note": 81,
      "start": 202.6835,
      "duration": 0.0308,
      "velocity": 96,
      "chip": "ym2612"
    },
    {
      "channel": 0,
      "note": 76,
      "start": 202.7441,
      "duration": 0.031,
      "velocity": 96,
      "chip": "ym2612"
    },
    {
      "channel": 4,
      "note": 76,
      "start": 202.748,
      "duration": 0.0282,
      "velocity": 96,
      "chip": "ym2612"
    },
    {
      "channel": 0,
      "note": 86,
      "start": 202.8083,
      "duration": 0.0293,
      "velocity": 96,
      "chip": "ym2612"
    },
    {
      "channel": 4,
      "note": 86,
      "start": 202.8098,
      "duration": 0.029,
      "velocity": 96,
      "chip": "ym2612"
    },
    {
      "channel": 0,
      "note": 81,
      "start": 202.8691,
      "duration": 0.0312,
      "velocity": 96,
      "chip": "ym2612"
    },
    {
      "channel": 4,
      "note": 81,
      "start": 202.8705,
      "duration": 0.0309,
      "velocity": 96,
      "chip": "ym2612"
    },
    {
      "channel": 0,
      "note": 76,
      "start": 202.9315,
      "duration": 0.031,
      "velocity": 96,
      "chip": "ym2612"
    },
    {
      "channel": 4,
      "note": 76,
      "start": 202.9334,
      "duration": 0.0302,
      "velocity": 96,
      "chip": "ym2612"
    },
    {
      "channel": 0,
      "note": 86,
      "start": 202.994,
      "duration": 0.031,
      "velocity": 96,
      "chip": "ym2612"
    },
    {
      "channel": 4,
      "note": 86,
      "start": 202.9955,
      "duration": 0.0307,
      "velocity": 96,
      "chip": "ym2612"
    },
    {
      "channel": 0,
      "note": 81,
      "start": 203.0565,
      "duration": 0.031,
      "velocity": 96,
      "chip": "ym2612"
    },
    {
      "channel": 4,
      "note": 81,
      "start": 203.058,
      "duration": 0.0307,
      "velocity": 96,
      "chip": "ym2612"
    },
    {
      "channel": 0,
      "note": 76,
      "start": 203.119,
      "duration": 0.0313,
      "velocity": 96,
      "chip": "ym2612"
    },
    {
      "channel": 4,
      "note": 76,
      "start": 203.1229,
      "duration": 0.0285,
      "velocity": 96,
      "chip": "ym2612"
    },
    {
      "channel": 0,
      "note": 86,
      "start": 203.1833,
      "duration": 0.0292,
      "velocity": 96,
      "chip": "ym2612"
    },
    {
      "channel": 4,
      "note": 86,
      "start": 203.1851,
      "duration": 0.0286,
      "velocity": 96,
      "chip": "ym2612"
    },
    {
      "channel": 0,
      "note": 81,
      "start": 203.2439,
      "duration": 0.031,
      "velocity": 96,
      "chip": "ym2612"
    },
    {
      "channel": 4,
      "note": 81,
      "start": 203.2454,
      "duration": 0.0307,
      "velocity": 96,
      "chip": "ym2612"
    },
    {
      "channel": 0,
      "note": 76,
      "start": 203.3064,
      "duration": 0.031,
      "velocity": 96,
      "chip": "ym2612"
    },
    {
      "channel": 4,
      "note": 76,
      "start": 203.3079,
      "duration": 0.0307,
      "velocity": 96,
      "chip": "ym2612"
    },
    {
      "channel": 0,
      "note": 86,
      "start": 203.3689,
      "duration": 0.031,
      "velocity": 96,
      "chip": "ym2612"
    },
    {
      "channel": 4,
      "note": 86,
      "start": 203.3704,
      "duration": 0.031,
      "velocity": 96,
      "chip": "ym2612"
    },
    {
      "channel": 0,
      "note": 81,
      "start": 203.4314,
      "duration": 0.031,
      "velocity": 96,
      "chip": "ym2612"
    },
    {
      "channel": 4,
      "note": 81,
      "start": 203.4329,
      "duration": 0.0306,
      "velocity": 96,
      "chip": "ym2612"
    },
    {
      "channel": 0,
      "note": 76,
      "start": 203.4938,
      "duration": 0.031,
      "velocity": 96,
      "chip": "ym2612"
    },
    {
      "channel": 4,
      "note": 76,
      "start": 203.4978,
      "duration": 0.0282,
      "velocity": 96,
      "chip": "ym2612"
    },
    {
      "channel": 0,
      "note": 86,
      "start": 203.5581,
      "duration": 0.0293,
      "velocity": 96,
      "chip": "ym2612"
    },
    {
      "channel": 4,
      "note": 86,
      "start": 203.5595,
      "duration": 0.029,
      "velocity": 96,
      "chip": "ym2612"
    },
    {
      "channel": 0,
      "note": 81,
      "start": 203.6188,
      "duration": 0.0312,
      "velocity": 96,
      "chip": "ym2612"
    },
    {
      "channel": 4,
      "note": 81,
      "start": 203.6203,
      "duration": 0.0311,
      "velocity": 96,
      "chip": "ym2612"
    },
    {
      "channel": 0,
      "note": 76,
      "start": 203.6813,
      "duration": 0.031,
      "velocity": 96,
      "chip": "ym2612"
    },
    {
      "channel": 4,
      "note": 76,
      "start": 203.6828,
      "duration": 0.0307,
      "velocity": 96,
      "chip": "ym2612"
    },
    {
      "channel": 0,
      "note": 86,
      "start": 203.7437,
      "duration": 0.0061,
      "velocity": 96,
      "chip": "ym2612"
    },
    {
      "channel": 4,
      "note": 86,
      "start": 203.7452,
      "duration": 0.0058,
      "velocity": 96,
      "chip": "ym2612"
    },
    {
      "channel": 0,
      "note": 81,
      "start": 203.7553,
      "duration": 0.0058,
      "velocity": 96,
      "chip": "ym2612"
    },
    {
      "channel": 4,
      "note": 81,
      "start": 203.7568,
      "duration": 0.0055,
      "velocity": 96,
      "chip": "ym2612"
    },
    {
      "channel": 0,
      "note": 76,
      "start": 203.7666,
      "duration": 0.0085,
      "velocity": 96,
      "chip": "ym2612"
    },
    {
      "channel": 4,
      "note": 76,
      "start": 203.7705,
      "duration": 0.0061,
      "velocity": 96,
      "chip": "ym2612"
    },
    {
      "channel": 0,
      "note": 86,
      "start": 203.7841,
      "duration": 0.0066,
      "velocity": 96,
      "chip": "ym2612"
    },
    {
      "channel": 4,
      "note": 86,
      "start": 203.786,
      "duration": 0.0058,
      "velocity": 96,
      "chip": "ym2612"
    },
    {
      "channel": 0,
      "note": 81,
      "start": 203.7962,
      "duration": 0.0057,
      "velocity": 96,
      "chip": "ym2612"
    },
    {
      "channel": 4,
      "note": 81,
      "start": 203.7977,
      "duration": 0.0054,
      "velocity": 96,
      "chip": "ym2612"
    },
    {
      "channel": 0,
      "note": 76,
      "start": 203.8075,
      "duration": 0.0057,
      "velocity": 96,
      "chip": "ym2612"
    },
    {
      "channel": 4,
      "note": 76,
      "start": 203.809,
      "duration": 0.0054,
      "velocity": 96,
      "chip": "ym2612"
    },
    {
      "channel": 0,
      "note": 86,
      "start": 203.8188,
      "duration": 0.0215,
      "velocity": 96,
      "chip": "ym2612"
    },
    {
      "channel": 1,
      "note": 90,
      "start": 203.8194,
      "duration": 0.5442,
      "velocity": 98,
      "chip": "ym2612"
    },
    {
      "channel": 4,
      "note": 86,
      "start": 203.8212,
      "duration": 0.0205,
      "velocity": 96,
      "chip": "ym2612"
    },
    {
      "channel": 0,
      "note": 81,
      "start": 203.8717,
      "duration": 0.031,
      "velocity": 96,
      "chip": "ym2612"
    },
    {
      "channel": 4,
      "note": 81,
      "start": 203.8733,
      "duration": 0.0307,
      "velocity": 96,
      "chip": "ym2612"
    },
    {
      "channel": 0,
      "note": 76,
      "start": 203.9342,
      "duration": 0.031,
      "velocity": 96,
      "chip": "ym2612"
    },
    {
      "channel": 4,
      "note": 76,
      "start": 203.9383,
      "duration": 0.0282,
      "velocity": 96,
      "chip": "ym2612"
    },
    {
      "channel": 0,
      "note": 86,
      "start": 203.9984,
      "duration": 0.0072,
      "velocity": 96,
      "chip": "ym2612"
    },
    {
      "channel": 2,
      "note": 90,
      "start": 203.9994,
      "duration": 0.3645,
      "velocity": 98,
      "chip": "ym2612"
    },
    {
      "channel": 4,
      "note": 86,
      "start": 204.0009,
      "duration": 0.0061,
      "velocity": 96,
      "chip": "ym2612"
    },
    {
      "channel": 0,
      "note": 81,
      "start": 204.0118,
      "duration": 0.0065,
      "velocity": 96,
      "chip": "ym2612"
    },
    {
      "channel": 4,
      "note": 81,
      "start": 204.0135,
      "duration": 0.0077,
      "velocity": 96,
      "chip": "ym2612"
    },
    {
      "channel": 3,
      "note": 90,
      "start": 204.0198,
      "duration": 0.3444,
      "velocity": 98,
      "chip": "ym2612"
    },
    {
      "channel": 0,
      "note": 76,
      "start": 204.0258,
      "duration": 0.0063,
      "velocity": 96,
      "chip": "ym2612"
    },
    {
      "channel": 4,
      "note": 76,
      "start": 204.0275,
      "duration": 0.0059,
      "velocity": 96,
      "chip": "ym2612"
    },
    {
      "channel": 0,
      "note": 86,
      "start": 204.0379,
      "duration": 0.0173,
      "velocity": 96,
      "chip": "ym2612"
    },
    {
      "channel": 4,
      "note": 86,
      "start": 204.0396,
      "duration": 0.017,
      "velocity": 96,
      "chip": "ym2612"
    },
    {
      "channel": 0,
      "note": 81,
      "start": 204.0866,
      "duration": 0.031,
      "velocity": 96,
      "chip": "ym2612"
    },
    {
      "channel": 4,
      "note": 81,
      "start": 204.0883,
      "duration": 0.0307,
      "velocity": 96,
      "chip": "ym2612"
    },
    {
      "channel": 0,
      "note": 76,
      "start": 204.1491,
      "duration": 0.031,
      "velocity": 96,
      "chip": "ym2612"
    },
    {
      "channel": 4,
      "note": 76,
      "start": 204.1535,
      "duration": 0.0279,
      "velocity": 96,
      "chip": "ym2612"
    },
    {
      "channel": 0,
      "note": 86,
      "start": 204.2133,
      "duration": 0.007,
      "velocity": 96,
      "chip": "ym2612"
    },
    {
      "channel": 4,
      "note": 86,
      "start": 204.2155,
      "duration": 0.0061,
      "velocity": 96,
      "chip": "ym2612"
    },
    {
      "channel": 0,
      "note": 81,
      "start": 204.2261,
      "duration": 0.0059,
      "velocity": 96,
      "chip": "ym2612"
    },
    {
      "channel": 4,
      "note": 81,
      "start": 204.2277,
      "duration": 0.0056,
      "velocity": 96,
      "chip": "ym2612"
    },
    {
      "channel": 0,
      "note": 76,
      "start": 204.2376,
      "duration": 0.006,
      "velocity": 96,
      "chip": "ym2612"
    },
    {
      "channel": 4,
      "note": 76,
      "start": 204.2392,
      "duration": 0.0057,
      "velocity": 96,
      "chip": "ym2612"
    },
    {
      "channel": 0,
      "note": 86,
      "start": 204.2496,
      "duration": 0.008,
      "velocity": 96,
      "chip": "ym2612"
    },
    {
      "channel": 4,
      "note": 86,
      "start": 204.252,
      "duration": 0.007,
      "velocity": 96,
      "chip": "ym2612"
    },
    {
      "channel": 0,
      "note": 81,
      "start": 204.2642,
      "duration": 0.0058,
      "velocity": 96,
      "chip": "ym2612"
    },
    {
      "channel": 4,
      "note": 81,
      "start": 204.2659,
      "duration": 0.006,
      "velocity": 96,
      "chip": "ym2612"
    },
    {
      "channel": 0,
      "note": 76,
      "start": 204.2764,
      "duration": 0.0084,
      "velocity": 96,
      "chip": "ym2612"
    },
    {
      "channel": 4,
      "note": 76,
      "start": 204.2806,
      "duration": 0.0056,
      "velocity": 96,
      "chip": "ym2612"
    },
    {
      "channel": 0,
      "note": 86,
      "start": 204.2925,
      "duration": 0.0065,
      "velocity": 96,
      "chip": "ym2612"
    },
    {
      "channel": 4,
      "note": 86,
      "start": 204.2942,
      "duration": 0.0062,
      "velocity": 96,
      "chip": "ym2612"
    },
    {
      "channel": 0,
      "note": 81,
      "start": 204.3053,
      "duration": 0.0075,
      "velocity": 96,
      "chip": "ym2612"
    },
    {
      "channel": 4,
      "note": 81,
      "start": 204.3072,
      "duration": 0.0068,
      "velocity": 96,
      "chip": "ym2612"
    },
    {
      "channel": 0,
      "note": 76,
      "start": 204.3189,
      "duration": 0.0059,
      "velocity": 96,
      "chip": "ym2612"
    },
    {
      "channel": 4,
      "note": 76,
      "start": 204.3204,
      "duration": 0.0056,
      "velocity": 96,
      "chip": "ym2612"
    },
    {
      "channel": 0,
      "note": 86,
      "start": 204.3308,
      "duration": 0.0061,
      "velocity": 96,
      "chip": "ym2612"
    },
    {
      "channel": 4,
      "note": 86,
      "start": 204.3323,
      "duration": 0.0058,
      "velocity": 96,
      "chip": "ym2612"
    },
    {
      "channel": 0,
      "note": 81,
      "start": 204.3424,
      "duration": 0.0057,
      "velocity": 96,
      "chip": "ym2612"
    },
    {
      "channel": 4,
      "note": 81,
      "start": 204.3438,
      "duration": 0.0001,
      "velocity": 96,
      "chip": "ym2612"
    },
    {
      "channel": 0,
      "note": 76,
      "start": 204.3543,
      "duration": 0.0063,
      "velocity": 96,
      "chip": "ym2612"
    }
  ]
}