{
  "track_name": "28 - If Looks Could Kill!",
  "duration_sec": 40.366,
  "sample_rate": 44100,
  "note_count": 1446,
  "unique_pitches": 69,
  "pitch_range": 75,
  "avg_note_duration": 0.113,
  "reconstruction_stats": {
    "notes_reconstructed": 1446,
    "keyon_events": 1446,
    "keyoff_events": 670,
    "orphan_keyons": 4,
    "unique_pitches": 69,
    "pitch_range": 75,
    "avg_duration_sec": 0.113
  },
  "metadata": {
    "source": "P\\Puggsy\\28 - If Looks Could Kill!.vgz"
  },
  "notes": [
    {
      "channel": 0,
      "note": 46,
      "start": 0.0,
      "duration": 0.0,
      "velocity": 94,
      "chip": "ym2612"
    },
    {
      "channel": 0,
      "note": 58,
      "start": 0.0,
      "duration": 0.0,
      "velocity": 94,
      "chip": "ym2612"
    },
    {
      "channel": 0,
      "note": 44,
      "start": 0.0,
      "duration": 0.0533,
      "velocity": 94,
      "chip": "ym2612"
    },
    {
      "channel": 1,
      "note": 22,
      "start": 0.0,
      "duration": 0.0,
      "velocity": 102,
      "chip": "ym2612"
    },
    {
      "channel": 1,
      "note": 22,
      "start": 0.0,
      "duration": 0.0,
      "velocity": 102,
      "chip": "ym2612"
    },
    {
      "channel": 1,
      "note": 22,
      "start": 0.0,
      "duration": 0.0,
      "velocity": 102,
      "chip": "ym2612"
    },
    {
      "channel": 1,
      "note": 23,
      "start": 0.0,
      "duration": 0.0,
      "velocity": 102,
      "chip": "ym2612"
    },
    {
      "channel": 1,
      "note": 23,
      "start": 0.0,
      "duration": 0.0,
      "velocity": 102,
      "chip": "ym2612"
    },
    {
      "channel": 1,
      "note": 23,
      "start": 0.0,
      "duration": 0.0,
      "velocity": 102,
      "chip": "ym2612"
    },
    {
      "channel": 1,
      "note": 23,
      "start": 0.0,
      "duration": 0.0,
      "velocity": 102,
      "chip": "ym2612"
    },
    {
      "channel": 1,
      "note": 23,
      "start": 0.0,
      "duration": 0.0,
      "velocity": 102,
      "chip": "ym2612"
    },
    {
      "channel": 1,
      "note": 24,
      "start": 0.0,
      "duration": 0.0,
      "velocity": 102,
      "chip": "ym2612"
    },
    {
      "channel": 1,
      "note": 24,
      "start": 0.0,
      "duration": 0.0,
      "velocity": 102,
      "chip": "ym2612"
    },
    {
      "channel": 1,
      "note": 24,
      "start": 0.0,
      "duration": 0.0,
      "velocity": 102,
      "chip": "ym2612"
    },
    {
      "channel": 1,
      "note": 24,
      "start": 0.0,
      "duration": 0.0,
      "velocity": 102,
      "chip": "ym2612"
    },
    {
      "channel": 1,
      "note": 24,
      "start": 0.0,
      "duration": 0.0,
      "velocity": 102,
      "chip": "ym2612"
    },
    {
      "channel": 1,
      "note": 24,
      "start": 0.0,
      "duration": 0.0,
      "velocity": 102,
      "chip": "ym2612"
    },
    {
      "channel": 1,
      "note": 25,
      "start": 0.0,
      "duration": 0.0555,
      "velocity": 102,
      "chip": "ym2612"
    },
    {
      "channel": 2,
      "note": 22,
      "start": 0.0,
      "duration": 0.0,
      "velocity": 102,
      "chip": "ym2612"
    },
    {
      "channel": 2,
      "note": 22,
      "start": 0.0,
      "duration": 0.0,
      "velocity": 102,
      "chip": "ym2612"
    },
    {
      "channel": 2,
      "note": 22,
      "start": 0.0,
      "duration": 0.2872,
      "velocity": 102,
      "chip": "ym2612"
    },
    {
      "channel": 3,
      "note": 46,
      "start": 0.0,
      "duration": 0.0578,
      "velocity": 127,
      "chip": "ym2612"
    },
    {
      "channel": 0,
      "note": 46,
      "start": 0.0535,
      "duration": 0.1148,
      "velocity": 94,
      "chip": "ym2612"
    },
    {
      "channel": 1,
      "note": 22,
      "start": 0.0556,
      "duration": 0.0027,
      "velocity": 102,
      "chip": "ym2612"
    },
    {
      "channel": 3,
      "note": 46,
      "start": 0.0579,
      "duration": 3.8277,
      "velocity": 127,
      "chip": "ym2612"
    },
    {
      "channel": 1,
      "note": 22,
      "start": 0.0584,
      "duration": 0.0095,
      "velocity": 102,
      "chip": "ym2612"
    },
    {
      "channel": 1,
      "note": 22,
      "start": 0.0679,
      "duration": 0.0167,
      "velocity": 102,
      "chip": "ym2612"
    },
    {
      "channel": 1,
      "note": 23,
      "start": 0.0846,
      "duration": 0.0333,
      "velocity": 102,
      "chip": "ym2612"
    },
    {
      "channel": 1,
      "note": 23,
      "start": 0.1179,
      "duration": 0.0167,
      "velocity": 102,
      "chip": "ym2612"
    },
    {
      "channel": 1,
      "note": 23,
      "start": 0.1346,
      "duration": 0.0167,
      "velocity": 102,
      "chip": "ym2612"
    },
    {
      "channel": 1,
      "note": 23,
      "start": 0.1513,
      "duration": 0.021,
      "velocity": 102,
      "chip": "ym2612"
    },
    {
      "channel": 0,
      "note": 58,
      "start": 0.1685,
      "duration": 0.1164,
      "velocity": 94,
      "chip": "ym2612"
    },
    {
      "channel": 1,
      "note": 23,
      "start": 0.1723,
      "duration": 0.0123,
      "velocity": 102,
      "chip": "ym2612"
    },
    {
      "channel": 1,
      "note": 24,
      "start": 0.1846,
      "duration": 0.0333,
      "velocity": 102,
      "chip": "ym2612"
    },
    {
      "channel": 1,
      "note": 24,
      "start": 0.2179,
      "duration": 0.0167,
      "velocity": 102,
      "chip": "ym2612"
    },
    {
      "channel": 1,
      "note": 24,
      "start": 0.2346,
      "duration": 0.0167,
      "velocity": 102,
      "chip": "ym2612"
    },
    {
      "channel": 1,
      "note": 24,
      "start": 0.2513,
      "duration": 0.0167,
      "velocity": 102,
      "chip": "ym2612"
    },
    {
      "channel": 1,
      "note": 24,
      "start": 0.2679,
      "duration": 0.02,
      "velocity": 102,
      "chip": "ym2612"
    },
    {
      "channel": 0,
      "note": 44,
      "start": 0.2851,
      "duration": 0.1332,
      "velocity": 94,
      "chip": "ym2612"
    },
    {
      "channel": 2,
      "note": 22,
      "start": 0.2874,
      "duration": 0.0008,
      "velocity": 102,
      "chip": "ym2612"
    },
    {
      "channel": 1,
      "note": 24,
      "start": 0.2879,
      "duration": 0.03,
      "velocity": 102,
      "chip": "ym2612"
    },
    {
      "channel": 2,
      "note": 22,
      "start": 0.2882,
      "duration": 0.03,
      "velocity": 102,
      "chip": "ym2612"
    },
    {
      "channel": 1,
      "note": 25,
      "start": 0.3179,
      "duration": 0.0167,
      "velocity": 102,
      "chip": "ym2612"
    },
    {
      "channel": 2,
      "note": 22,
      "start": 0.3183,
      "duration": 0.0166,
      "velocity": 102,
      "chip": "ym2612"
    },
    {
      "channel": 1,
      "note": 25,
      "start": 0.3346,
      "duration": 0.0167,
      "velocity": 102,
      "chip": "ym2612"
    },
    {
      "channel": 2,
      "note": 23,
      "start": 0.3349,
      "duration": 0.0167,
      "velocity": 102,
      "chip": "ym2612"
    },
    {
      "channel": 1,
      "note": 25,
      "start": 0.3513,
      "duration": 0.0167,
      "velocity": 102,
      "chip": "ym2612"
    },
    {
      "channel": 2,
      "note": 23,
      "start": 0.3515,
      "duration": 0.0167,
      "velocity": 102,
      "chip": "ym2612"
    },
    {
      "channel": 1,
      "note": 25,
      "start": 0.3679,
      "duration": 0.0167,
      "velocity": 102,
      "chip": "ym2612"
    },
    {
      "channel": 2,
      "note": 23,
      "start": 0.3682,
      "duration": 0.0167,
      "velocity": 102,
      "chip": "ym2612"
    },
    {
      "channel": 1,
      "note": 25,
      "start": 0.3846,
      "duration": 0.0345,
      "velocity": 102,
      "chip": "ym2612"
    },
    {
      "channel": 2,
      "note": 23,
      "start": 0.3849,
      "duration": 0.0345,
      "velocity": 102,
      "chip": "ym2612"
    },
    {
      "channel": 0,
      "note": 46,
      "start": 0.4184,
      "duration": 0.1164,
      "velocity": 94,
      "chip": "ym2612"
    },
    {
      "channel": 1,
      "note": 25,
      "start": 0.4191,
      "duration": 0.0155,
      "velocity": 102,
      "chip": "ym2612"
    },
    {
      "channel": 2,
      "note": 23,
      "start": 0.4193,
      "duration": 0.0155,
      "velocity": 102,
      "chip": "ym2612"
    },
    {
      "channel": 1,
      "note": 26,
      "start": 0.4346,
      "duration": 0.0167,
      "velocity": 102,
      "chip": "ym2612"
    },
    {
      "channel": 2,
      "note": 24,
      "start": 0.4349,
      "duration": 0.0167,
      "velocity": 102,
      "chip": "ym2612"
    },
    {
      "channel": 1,
      "note": 26,
      "start": 0.4513,
      "duration": 0.0167,
      "velocity": 102,
      "chip": "ym2612"
    },
    {
      "channel": 2,
      "note": 24,
      "start": 0.4515,
      "duration": 0.0167,
      "velocity": 102,
      "chip": "ym2612"
    },
    {
      "channel": 1,
      "note": 26,
      "start": 0.4679,
      "duration": 0.0167,
      "velocity": 102,
      "chip": "ym2612"
    },
    {
      "channel": 2,
      "note": 24,
      "start": 0.4682,
      "duration": 0.0167,
      "velocity": 102,
      "chip": "ym2612"
    },
    {
      "channel": 1,
      "note": 26,
      "start": 0.4846,
      "duration": 0.0333,
      "velocity": 102,
      "chip": "ym2612"
    },
    {
      "channel": 2,
      "note": 24,
      "start": 0.4849,
      "duration": 0.0333,
      "velocity": 102,
      "chip": "ym2612"
    },
    {
      "channel": 1,
      "note": 26,
      "start": 0.5179,
      "duration": 0.0178,
      "velocity": 102,
      "chip": "ym2612"
    },
    {
      "channel": 2,
      "note": 24,
      "start": 0.5182,
      "duration": 0.0178,
      "velocity": 102,
      "chip": "ym2612"
    },
    {
      "channel": 0,
      "note": 58,
      "start": 0.535,
      "duration": 0.1165,
      "velocity": 94,
      "chip": "ym2612"
    },
    {
      "channel": 1,
      "note": 26,
      "start": 0.5357,
      "duration": 0.0155,
      "velocity": 102,
      "chip": "ym2612"
    },
    {
      "channel": 2,
      "note": 24,
      "start": 0.536,
      "duration": 0.0155,
      "velocity": 102,
      "chip": "ym2612"
    },
    {
      "channel": 1,
      "note": 27,
      "start": 0.5513,
      "duration": 0.0167,
      "velocity": 102,
      "chip": "ym2612"
    },
    {
      "channel": 2,
      "note": 25,
      "start": 0.5515,
      "duration": 0.0167,
      "velocity": 102,
      "chip": "ym2612"
    },
    {
      "channel": 1,
      "note": 27,
      "start": 0.5679,
      "duration": 0.0167,
      "velocity": 102,
      "chip": "ym2612"
    },
    {
      "channel": 2,
      "note": 25,
      "start": 0.5683,
      "duration": 0.0166,
      "velocity": 102,
      "chip": "ym2612"
    },
    {
      "channel": 1,
      "note": 27,
      "start": 0.5846,
      "duration": 0.0333,
      "velocity": 102,
      "chip": "ym2612"
    },
    {
      "channel": 2,
      "note": 25,
      "start": 0.5849,
      "duration": 0.0333,
      "velocity": 102,
      "chip": "ym2612"
    },
    {
      "channel": 1,
      "note": 27,
      "start": 0.6179,
      "duration": 0.0167,
      "velocity": 102,
      "chip": "ym2612"
    },
    {
      "channel": 2,
      "note": 25,
      "start": 0.6182,
      "duration": 0.0167,
      "velocity": 102,
      "chip": "ym2612"
    },
    {
      "channel": 1,
      "note": 27,
      "start": 0.6346,
      "duration": 0.0178,
      "velocity": 102,
      "chip": "ym2612"
    },
    {
      "channel": 2,
      "note": 25,
      "start": 0.6349,
      "duration": 0.0178,
      "velocity": 102,
      "chip": "ym2612"
    },
    {
      "channel": 0,
      "note": 44,
      "start": 0.6517,
      "duration": 0.1165,
      "velocity": 94,
      "chip": "ym2612"
    },
    {
      "channel": 1,
      "note": 27,
      "start": 0.6524,
      "duration": 0.0155,
      "velocity": 102,
      "chip": "ym2612"
    },
    {
      "channel": 2,
      "note": 25,
      "start": 0.6527,
      "duration": 0.0155,
      "velocity": 102,
      "chip": "ym2612"
    },
    {
      "channel": 1,
      "note": 27,
      "start": 0.6679,
      "duration": 0.0167,
      "velocity": 102,
      "chip": "ym2612"
    },
    {
      "channel": 2,
      "note": 26,
      "start": 0.6682,
      "duration": 0.0167,
      "velocity": 102,
      "chip": "ym2612"
    },
    {
      "channel": 1,
      "note": 28,
      "start": 0.6846,
      "duration": 0.0333,
      "velocity": 102,
      "chip": "ym2612"
    },
    {
      "channel": 2,
      "note": 26,
      "start": 0.6849,
      "duration": 0.0333,
      "velocity": 102,
      "chip": "ym2612"
    },
    {
      "channel": 1,
      "note": 28,
      "start": 0.7179,
      "duration": 0.0167,
      "velocity": 102,
      "chip": "ym2612"
    },
    {
      "channel": 2,
      "note": 26,
      "start": 0.7182,
      "duration": 0.0167,
      "velocity": 102,
      "chip": "ym2612"
    },
    {
      "channel": 1,
      "note": 28,
      "start": 0.7346,
      "duration": 0.0167,
      "velocity": 102,
      "chip": "ym2612"
    },
    {
      "channel": 2,
      "note": 26,
      "start": 0.7349,
      "duration": 0.0166,
      "velocity": 102,
      "chip": "ym2612"
    },
    {
      "channel": 1,
      "note": 28,
      "start": 0.7513,
      "duration": 0.0178,
      "velocity": 102,
      "chip": "ym2612"
    },
    {
      "channel": 2,
      "note": 26,
      "start": 0.7515,
      "duration": 0.0178,
      "velocity": 102,
      "chip": "ym2612"
    },
    {
      "channel": 0,
      "note": 59,
      "start": 0.7684,
      "duration": 0.1165,
      "velocity": 94,
      "chip": "ym2612"
    },
    {
      "channel": 1,
      "note": 28,
      "start": 0.7691,
      "duration": 0.0155,
      "velocity": 102,
      "chip": "ym2612"
    },
    {
      "channel": 2,
      "note": 26,
      "start": 0.7693,
      "duration": 0.0155,
      "velocity": 102,
      "chip": "ym2612"
    },
    {
      "channel": 1,
      "note": 28,
      "start": 0.7846,
      "duration": 0.0333,
      "velocity": 102,
      "chip": "ym2612"
    },
    {
      "channel": 2,
      "note": 27,
      "start": 0.7849,
      "duration": 0.0333,
      "velocity": 102,
      "chip": "ym2612"
    },
    {
      "channel": 1,
      "note": 28,
      "start": 0.8179,
      "duration": 0.0167,
      "velocity": 102,
      "chip": "ym2612"
    },
    {
      "channel": 2,
      "note": 27,
      "start": 0.8182,
      "duration": 0.0167,
      "velocity": 102,
      "chip": "ym2612"
    },
    {
      "channel": 1,
      "note": 29,
      "start": 0.8346,
      "duration": 0.0167,
      "velocity": 102,
      "chip": "ym2612"
    },
    {
      "channel": 2,
      "note": 27,
      "start": 0.8349,
      "duration": 0.0167,
      "velocity": 102,
      "chip": "ym2612"
    },
    {
      "channel": 1,
      "note": 29,
      "start": 0.8513,
      "duration": 0.0167,
      "velocity": 102,
      "chip": "ym2612"
    },
    {
      "channel": 2,
      "note": 27,
      "start": 0.8515,
      "duration": 0.0167,
      "velocity": 102,
      "chip": "ym2612"
    },
    {
      "channel": 1,
      "note": 29,
      "start": 0.8679,
      "duration": 0.0178,
      "velocity": 102,
      "chip": "ym2612"
    },
    {
      "channel": 2,
      "note": 27,
      "start": 0.8682,
      "duration": 0.0178,
      "velocity": 102,
      "chip": "ym2612"
    },
    {
      "channel": 0,
      "note": 56,
      "start": 0.885,
      "duration": 0.1332,
      "velocity": 94,
      "chip": "ym2612"
    },
    {
      "channel": 1,
      "note": 29,
      "start": 0.8857,
      "duration": 0.0322,
      "velocity": 102,
      "chip": "ym2612"
    },
    {
      "channel": 2,
      "note": 27,
      "start": 0.886,
      "duration": 0.0322,
      "velocity": 102,
      "chip": "ym2612"
    },
    {
      "channel": 1,
      "note": 29,
      "start": 0.9179,
      "duration": 0.0167,
      "velocity": 102,
      "chip": "ym2612"
    },
    {
      "channel": 2,
      "note": 27,
      "start": 0.9182,
      "duration": 0.0167,
      "velocity": 102,
      "chip": "ym2612"
    },
    {
      "channel": 1,
      "note": 29,
      "start": 0.9346,
      "duration": 0.0167,
      "velocity": 102,
      "chip": "ym2612"
    },
    {
      "channel": 2,
      "note": 28,
      "start": 0.9349,
      "duration": 0.0167,
      "velocity": 102,
      "chip": "ym2612"
    },
    {
      "channel": 1,
      "note": 29,
      "start": 0.9513,
      "duration": 0.0167,
      "velocity": 102,
      "chip": "ym2612"
    },
    {
      "channel": 2,
      "note": 28,
      "start": 0.9515,
      "duration": 0.0167,
      "velocity": 102,
      "chip": "ym2612"
    },
    {
      "channel": 1,
      "note": 30,
      "start": 0.9679,
      "duration": 0.0167,
      "velocity": 102,
      "chip": "ym2612"
    },
    {
      "channel": 2,
      "note": 28,
      "start": 0.9682,
      "duration": 0.0167,
      "velocity": 102,
      "chip": "ym2612"
    },
    {
      "channel": 1,
      "note": 30,
      "start": 0.9846,
      "duration": 0.0344,
      "velocity": 102,
      "chip": "ym2612"
    },
    {
      "channel": 2,
      "note": 28,
      "start": 0.9849,
      "duration": 0.0345,
      "velocity": 102,
      "chip": "ym2612"
    },
    {
      "channel": 0,
      "note": 46,
      "start": 1.0184,
      "duration": 0.1165,
      "velocity": 94,
      "chip": "ym2612"
    },
    {
      "channel": 1,
      "note": 30,
      "start": 1.019,
      "duration": 0.0156,
      "velocity": 102,
      "chip": "ym2612"
    },
    {
      "channel": 2,
      "note": 28,
      "start": 1.0193,
      "duration": 0.0155,
      "velocity": 102,
      "chip": "ym2612"
    },
    {
      "channel": 1,
      "note": 30,
      "start": 1.0346,
      "duration": 0.0167,
      "velocity": 102,
      "chip": "ym2612"
    },
    {
      "channel": 2,
      "note": 28,
      "start": 1.0349,
      "duration": 0.0167,
      "velocity": 102,
      "chip": "ym2612"
    },
    {
      "channel": 1,
      "note": 30,
      "start": 1.0513,
      "duration": 0.0167,
      "velocity": 102,
      "chip": "ym2612"
    },
    {
      "channel": 2,
      "note": 28,
      "start": 1.0515,
      "duration": 0.0167,
      "velocity": 102,
      "chip": "ym2612"
    },
    {
      "channel": 1,
      "note": 30,
      "start": 1.0679,
      "duration": 0.0167,
      "velocity": 102,
      "chip": "ym2612"
    },
    {
      "channel": 2,
      "note": 29,
      "start": 1.0682,
      "duration": 0.0167,
      "velocity": 102,
      "chip": "ym2612"
    },
    {
      "channel": 1,
      "note": 30,
      "start": 1.0846,
      "duration": 0.0333,
      "velocity": 102,
      "chip": "ym2612"
    },
    {
      "channel": 2,
      "note": 29,
      "start": 1.0849,
      "duration": 0.0333,
      "velocity": 102,
      "chip": "ym2612"
    },
    {
      "channel": 1,
      "note": 30,
      "start": 1.1179,
      "duration": 0.0178,
      "velocity": 102,
      "chip": "ym2612"
    },
    {
      "channel": 2,
      "note": 29,
      "start": 1.1182,
      "duration": 0.0178,
      "velocity": 102,
      "chip": "ym2612"
    },
    {
      "channel": 0,
      "note": 58,
      "start": 1.135,
      "duration": 0.1165,
      "velocity": 94,
      "chip": "ym2612"
    },
    {
      "channel": 1,
      "note": 31,
      "start": 1.1357,
      "duration": 0.0155,
      "velocity": 102,
      "chip": "ym2612"
    },
    {
      "channel": 2,
      "note": 29,
      "start": 1.136,
      "duration": 0.0156,
      "velocity": 102,
      "chip": "ym2612"
    },
    {
      "channel": 1,
      "note": 31,
      "start": 1.1513,
      "duration": 0.0167,
      "velocity": 102,
      "chip": "ym2612"
    },
    {
      "channel": 2,
      "note": 29,
      "start": 1.1516,
      "duration": 0.0166,
      "velocity": 102,
      "chip": "ym2612"
    },
    {
      "channel": 1,
      "note": 31,
      "start": 1.1679,
      "duration": 0.0167,
      "velocity": 102,
      "chip": "ym2612"
    },
    {
      "channel": 2,
      "note": 29,
      "start": 1.1682,
      "duration": 0.0167,
      "velocity": 102,
      "chip": "ym2612"
    },
    {
      "channel": 1,
      "note": 31,
      "start": 1.1846,
      "duration": 0.0333,
      "velocity": 102,
      "chip": "ym2612"
    },
    {
      "channel": 2,
      "note": 29,
      "start": 1.1849,
      "duration": 0.0333,
      "velocity": 102,
      "chip": "ym2612"
    },
    {
      "channel": 1,
      "note": 31,
      "start": 1.2179,
      "duration": 0.0167,
      "velocity": 102,
      "chip": "ym2612"
    },
    {
      "channel": 2,
      "note": 30,
      "start": 1.2182,
      "duration": 0.0167,
      "velocity": 102,
      "chip": "ym2612"
    },
    {
      "channel": 1,
      "note": 31,
      "start": 1.2346,
      "duration": 0.0178,
      "velocity": 102,
      "chip": "ym2612"
    },
    {
      "channel": 2,
      "note": 30,
      "start": 1.2349,
      "duration": 0.0178,
      "velocity": 102,
      "chip": "ym2612"
    },
    {
      "channel": 0,
      "note": 44,
      "start": 1.2517,
      "duration": 0.1165,
      "velocity": 94,
      "chip": "ym2612"
    },
    {
      "channel": 1,
      "note": 31,
      "start": 1.2524,
      "duration": 0.0155,
      "velocity": 102,
      "chip": "ym2612"
    },
    {
      "channel": 2,
      "note": 30,
      "start": 1.2527,
      "duration": 0.0155,
      "velocity": 102,
      "chip": "ym2612"
    },
    {
      "channel": 1,
      "note": 31,
      "start": 1.2679,
      "duration": 0.0167,
      "velocity": 102,
      "chip": "ym2612"
    },
    {
      "channel": 2,
      "note": 30,
      "start": 1.2682,
      "duration": 0.0167,
      "velocity": 102,
      "chip": "ym2612"
    },
    {
      "channel": 1,
      "note": 31,
      "start": 1.2846,
      "duration": 0.0333,
      "velocity": 102,
      "chip": "ym2612"
    },
    {
      "channel": 2,
      "note": 30,
      "start": 1.2849,
      "duration": 0.0334,
      "velocity": 102,
      "chip": "ym2612"
    },
    {
      "channel": 1,
      "note": 32,
      "start": 1.3179,
      "duration": 0.0167,
      "velocity": 102,
      "chip": "ym2612"
    },
    {
      "channel": 2,
      "note": 30,
      "start": 1.3183,
      "duration": 0.0166,
      "velocity": 102,
      "chip": "ym2612"
    },
    {
      "channel": 1,
      "note": 32,
      "start": 1.3346,
      "duration": 0.0167,
      "velocity": 102,
      "chip": "ym2612"
    },
    {
      "channel": 2,
      "note": 30,
      "start": 1.3349,
      "duration": 0.0167,
      "velocity": 102,
      "chip": "ym2612"
    },
    {
      "channel": 1,
      "note": 32,
      "start": 1.3513,
      "duration": 0.0177,
      "velocity": 102,
      "chip": "ym2612"
    },
    {
      "channel": 2,
      "note": 30,
      "start": 1.3515,
      "duration": 0.0178,
      "velocity": 102,
      "chip": "ym2612"
    },
    {
      "channel": 0,
      "note": 46,
      "start": 1.3684,
      "duration": 0.1165,
      "velocity": 94,
      "chip": "ym2612"
    },
    {
      "channel": 1,
      "note": 32,
      "start": 1.369,
      "duration": 0.0156,
      "velocity": 102,
      "chip": "ym2612"
    },
    {
      "channel": 2,
      "note": 31,
      "start": 1.3693,
      "duration": 0.0156,
      "velocity": 102,
      "chip": "ym2612"
    },
    {
      "channel": 1,
      "note": 32,
      "start": 1.3846,
      "duration": 0.0333,
      "velocity": 102,
      "chip": "ym2612"
    },
    {
      "channel": 2,
      "note": 31,
      "start": 1.3849,
      "duration": 0.0333,
      "velocity": 102,
      "chip": "ym2612"
    },
    {
      "channel": 1,
      "note": 32,
      "start": 1.4179,
      "duration": 0.0167,
      "velocity": 102,
      "chip": "ym2612"
    },
    {
      "channel": 2,
      "note": 31,
      "start": 1.4182,
      "duration": 0.0167,
      "velocity": 102,
      "chip": "ym2612"
    },
    {
      "channel": 1,
      "note": 33,
      "start": 1.4346,
      "duration": 0.0167,
      "velocity": 102,
      "chip": "ym2612"
    },
    {
      "channel": 2,
      "note": 31,
      "start": 1.4349,
      "duration": 0.0167,
      "velocity": 102,
      "chip": "ym2612"
    },
    {
      "channel": 1,
      "note": 33,
      "start": 1.4513,
      "duration": 0.0167,
      "velocity": 102,
      "chip": "ym2612"
    },
    {
      "channel": 2,
      "note": 31,
      "start": 1.4515,
      "duration": 0.0167,
      "velocity": 102,
      "chip": "ym2612"
    },
    {
      "channel": 1,
      "note": 33,
      "start": 1.4679,
      "duration": 0.0178,
      "velocity": 102,
      "chip": "ym2612"
    },
    {
      "channel": 2,
      "note": 31,
      "start": 1.4682,
      "duration": 0.0178,
      "velocity": 102,
      "chip": "ym2612"
    },
    {
      "channel": 0,
      "note": 58,
      "start": 1.485,
      "duration": 0.1332,
      "velocity": 94,
      "chip": "ym2612"
    },
    {
      "channel": 1,
      "note": 33,
      "start": 1.4857,
      "duration": 0.0322,
      "velocity": 102,
      "chip": "ym2612"
    },
    {
      "channel": 2,
      "note": 31,
      "start": 1.486,
      "duration": 0.0322,
      "velocity": 102,
      "chip": "ym2612"
    },
    {
      "channel": 1,
      "note": 33,
      "start": 1.5179,
      "duration": 0.0167,
      "velocity": 102,
      "chip": "ym2612"
    },
    {
      "channel": 2,
      "note": 31,
      "start": 1.5182,
      "duration": 0.0167,
      "velocity": 102,
      "chip": "ym2612"
    },
    {
      "channel": 1,
      "note": 34,
      "start": 1.5346,
      "duration": 0.0167,
      "velocity": 102,
      "chip": "ym2612"
    },
    {
      "channel": 2,
      "note": 31,
      "start": 1.5349,
      "duration": 0.0167,
      "velocity": 102,
      "chip": "ym2612"
    },
    {
      "channel": 1,
      "note": 34,
      "start": 1.5513,
      "duration": 0.0167,
      "velocity": 102,
      "chip": "ym2612"
    },
    {
      "channel": 2,
      "note": 32,
      "start": 1.5515,
      "duration": 0.0167,
      "velocity": 102,
      "chip": "ym2612"
    },
    {
      "channel": 1,
      "note": 34,
      "start": 1.5679,
      "duration": 0.0167,
      "velocity": 102,
      "chip": "ym2612"
    },
    {
      "channel": 2,
      "note": 32,
      "start": 1.5682,
      "duration": 0.0167,
      "velocity": 102,
      "chip": "ym2612"
    },
    {
      "channel": 1,
      "note": 34,
      "start": 1.5846,
      "duration": 0.0345,
      "velocity": 102,
      "chip": "ym2612"
    },
    {
      "channel": 2,
      "note": 32,
      "start": 1.5849,
      "duration": 0.0345,
      "velocity": 102,
      "chip": "ym2612"
    },
    {
      "channel": 0,
      "note": 44,
      "start": 1.6184,
      "duration": 0.1166,
      "velocity": 94,
      "chip": "ym2612"
    },
    {
      "channel": 1,
      "note": 34,
      "start": 1.6191,
      "duration": 0.0155,
      "velocity": 102,
      "chip": "ym2612"
    },
    {
      "channel": 2,
      "note": 32,
      "start": 1.6193,
      "duration": 0.0156,
      "velocity": 102,
      "chip": "ym2612"
    },
    {
      "channel": 1,
      "note": 35,
      "start": 1.6346,
      "duration": 0.0167,
      "velocity": 102,
      "chip": "ym2612"
    },
    {
      "channel": 2,
      "note": 32,
      "start": 1.6349,
      "duration": 0.0167,
      "velocity": 102,
      "chip": "ym2612"
    },
    {
      "channel": 1,
      "note": 35,
      "start": 1.6513,
      "duration": 0.0167,
      "velocity": 102,
      "chip": "ym2612"
    },
    {
      "channel": 2,
      "note": 32,
      "start": 1.6516,
      "duration": 0.0167,
      "velocity": 102,
      "chip": "ym2612"
    },
    {
      "channel": 1,
      "note": 35,
      "start": 1.6679,
      "duration": 0.0167,
      "velocity": 102,
      "chip": "ym2612"
    },
    {
      "channel": 2,
      "note": 33,
      "start": 1.6683,
      "duration": 0.0167,
      "velocity": 102,
      "chip": "ym2612"
    },
    {
      "channel": 1,
      "note": 35,
      "start": 1.6846,
      "duration": 0.0333,
      "velocity": 102,
      "chip": "ym2612"
    },
    {
      "channel": 2,
      "note": 33,
      "start": 1.6849,
      "duration": 0.0333,
      "velocity": 102,
      "chip": "ym2612"
    },
    {
      "channel": 1,
      "note": 35,
      "start": 1.7179,
      "duration": 0.0178,
      "velocity": 102,
      "chip": "ym2612"
    },
    {
      "channel": 2,
      "note": 33,
      "start": 1.7182,
      "duration": 0.0178,
      "velocity": 102,
      "chip": "ym2612"
    },
    {
      "channel": 0,
      "note": 59,
      "start": 1.7351,
      "duration": 0.1165,
      "velocity": 94,
      "chip": "ym2612"
    },
    {
      "channel": 1,
      "note": 36,
      "start": 1.7357,
      "duration": 0.0155,
      "velocity": 102,
      "chip": "ym2612"
    },
    {
      "channel": 2,
      "note": 33,
      "start": 1.736,
      "duration": 0.0156,
      "velocity": 102,
      "chip": "ym2612"
    },
    {
      "channel": 1,
      "note": 36,
      "start": 1.7513,
      "duration": 0.0167,
      "velocity": 102,
      "chip": "ym2612"
    },
    {
      "channel": 2,
      "note": 33,
      "start": 1.7516,
      "duration": 0.0167,
      "velocity": 102,
      "chip": "ym2612"
    },
    {
      "channel": 1,
      "note": 36,
      "start": 1.7679,
      "duration": 0.0167,
      "velocity": 102,
      "chip": "ym2612"
    },
    {
      "channel": 2,
      "note": 34,
      "start": 1.7683,
      "duration": 0.0167,
      "velocity": 102,
      "chip": "ym2612"
    },
    {
      "channel": 1,
      "note": 36,
      "start": 1.7846,
      "duration": 0.0333,
      "velocity": 102,
      "chip": "ym2612"
    },
    {
      "channel": 2,
      "note": 34,
      "start": 1.7849,
      "duration": 0.0333,
      "velocity": 102,
      "chip": "ym2612"
    },
    {
      "channel": 1,
      "note": 36,
      "start": 1.8179,
      "duration": 0.0167,
      "velocity": 102,
      "chip": "ym2612"
    },
    {
      "channel": 2,
      "note": 34,
      "start": 1.8183,
      "duration": 0.0167,
      "velocity": 102,
      "chip": "ym2612"
    },
    {
      "channel": 1,
      "note": 36,
      "start": 1.8346,
      "duration": 0.0178,
      "velocity": 102,
      "chip": "ym2612"
    },
    {
      "channel": 2,
      "note": 34,
      "start": 1.8349,
      "duration": 0.0177,
      "velocity": 102,
      "chip": "ym2612"
    },
    {
      "channel": 0,
      "note": 56,
      "start": 1.8517,
      "duration": 0.1165,
      "velocity": 94,
      "chip": "ym2612"
    },
    {
      "channel": 1,
      "note": 37,
      "start": 1.8524,
      "duration": 0.0155,
      "velocity": 102,
      "chip": "ym2612"
    },
    {
      "channel": 2,
      "note": 34,
      "start": 1.8527,
      "duration": 0.0156,
      "velocity": 102,
      "chip": "ym2612"
    },
    {
      "channel": 1,
      "note": 37,
      "start": 1.8679,
      "duration": 0.0167,
      "velocity": 102,
      "chip": "ym2612"
    },
    {
      "channel": 2,
      "note": 35,
      "start": 1.8683,
      "duration": 0.0167,
      "velocity": 102,
      "chip": "ym2612"
    },
    {
      "channel": 1,
      "note": 37,
      "start": 1.8846,
      "duration": 0.0333,
      "velocity": 102,
      "chip": "ym2612"
    },
    {
      "channel": 2,
      "note": 35,
      "start": 1.8849,
      "duration": 0.0333,
      "velocity": 102,
      "chip": "ym2612"
    },
    {
      "channel": 1,
      "note": 37,
      "start": 1.9179,
      "duration": 0.0167,
      "velocity": 102,
      "chip": "ym2612"
    },
    {
      "channel": 2,
      "note": 35,
      "start": 1.9183,
      "duration": 0.0167,
      "velocity": 102,
      "chip": "ym2612"
    },
    {
      "channel": 1,
      "note": 37,
      "start": 1.9346,
      "duration": 0.0167,
      "velocity": 102,
      "chip": "ym2612"
    },
    {
      "channel": 2,
      "note": 35,
      "start": 1.9349,
      "duration": 0.0167,
      "velocity": 102,
      "chip": "ym2612"
    },
    {
      "channel": 1,
      "note": 37,
      "start": 1.9513,
      "duration": 0.0178,
      "velocity": 102,
      "chip": "ym2612"
    },
    {
      "channel": 2,
      "note": 35,
      "start": 1.9516,
      "duration": 0.0177,
      "velocity": 102,
      "chip": "ym2612"
    },
    {
      "channel": 0,
      "note": 46,
      "start": 1.9684,
      "duration": 0.1165,
      "velocity": 94,
      "chip": "ym2612"
    },
    {
      "channel": 1,
      "note": 38,
      "start": 1.9691,
      "duration": 0.0155,
      "velocity": 102,
      "chip": "ym2612"
    },
    {
      "channel": 2,
      "note": 36,
      "start": 1.9693,
      "duration": 0.0156,
      "velocity": 102,
      "chip": "ym2612"
    },
    {
      "channel": 1,
      "note": 38,
      "start": 1.9846,
      "duration": 0.0333,
      "velocity": 102,
      "chip": "ym2612"
    },
    {
      "channel": 2,
      "note": 36,
      "start": 1.9849,
      "duration": 0.0333,
      "velocity": 102,
      "chip": "ym2612"
    },
    {
      "channel": 1,
      "note": 38,
      "start": 2.0179,
      "duration": 0.0167,
      "velocity": 102,
      "chip": "ym2612"
    },
    {
      "channel": 2,
      "note": 36,
      "start": 2.0183,
      "duration": 0.0167,
      "velocity": 102,
      "chip": "ym2612"
    },
    {
      "channel": 1,
      "note": 38,
      "start": 2.0346,
      "duration": 0.0167,
      "velocity": 102,
      "chip": "ym2612"
    },
    {
      "channel": 2,
      "note": 36,
      "start": 2.0349,
      "duration": 0.0167,
      "velocity": 102,
      "chip": "ym2612"
    },
    {
      "channel": 1,
      "note": 38,
      "start": 2.0513,
      "duration": 0.0167,
      "velocity": 102,
      "chip": "ym2612"
    },
    {
      "channel": 2,
      "note": 36,
      "start": 2.0516,
      "duration": 0.0167,
      "velocity": 102,
      "chip": "ym2612"
    },
    {
      "channel": 1,
      "note": 38,
      "start": 2.0679,
      "duration": 0.0178,
      "velocity": 102,
      "chip": "ym2612"
    },
    {
      "channel": 2,
      "note": 36,
      "start": 2.0683,
      "duration": 0.0177,
      "velocity": 102,
      "chip": "ym2612"
    },
    {
      "channel": 0,
      "note": 58,
      "start": 2.085,
      "duration": 0.1332,
      "velocity": 94,
      "chip": "ym2612"
    },
    {
      "channel": 1,
      "note": 39,
      "start": 2.0857,
      "duration": 0.0322,
      "velocity": 102,
      "chip": "ym2612"
    },
    {
      "channel": 2,
      "note": 37,
      "start": 2.086,
      "duration": 0.0323,
      "velocity": 102,
      "chip": "ym2612"
    },
    {
      "channel": 1,
      "note": 39,
      "start": 2.1179,
      "duration": 0.0167,
      "velocity": 102,
      "chip": "ym2612"
    },
    {
      "channel": 2,
      "note": 37,
      "start": 2.1183,
      "duration": 0.0167,
      "velocity": 102,
      "chip": "ym2612"
    },
    {
      "channel": 1,
      "note": 39,
      "start": 2.1346,
      "duration": 0.0167,
      "velocity": 102,
      "chip": "ym2612"
    },
    {
      "channel": 2,
      "note": 37,
      "start": 2.1349,
      "duration": 0.0167,
      "velocity": 102,
      "chip": "ym2612"
    },
    {
      "channel": 1,
      "note": 39,
      "start": 2.1513,
      "duration": 0.0167,
      "velocity": 102,
      "chip": "ym2612"
    },
    {
      "channel": 2,
      "note": 37,
      "start": 2.1516,
      "duration": 0.0167,
      "velocity": 102,
      "chip": "ym2612"
    },
    {
      "channel": 1,
      "note": 39,
      "start": 2.1679,
      "duration": 0.0167,
      "velocity": 102,
      "chip": "ym2612"
    },
    {
      "channel": 2,
      "note": 37,
      "start": 2.1683,
      "duration": 0.0167,
      "velocity": 102,
      "chip": "ym2612"
    },
    {
      "channel": 1,
      "note": 39,
      "start": 2.1846,
      "duration": 0.0344,
      "velocity": 102,
      "chip": "ym2612"
    },
    {
      "channel": 2,
      "note": 37,
      "start": 2.1849,
      "duration": 0.0344,
      "velocity": 102,
      "chip": "ym2612"
    },
    {
      "channel": 0,
      "note": 44,
      "start": 2.2184,
      "duration": 0.1165,
      "velocity": 94,
      "chip": "ym2612"
    },
    {
      "channel": 1,
      "note": 39,
      "start": 2.219,
      "duration": 0.0156,
      "velocity": 102,
      "chip": "ym2612"
    },
    {
      "channel": 2,
      "note": 38,
      "start": 2.2193,
      "duration": 0.0156,
      "velocity": 102,
      "chip": "ym2612"
    },
    {
      "channel": 1,
      "note": 40,
      "start": 2.2346,
      "duration": 0.0167,
      "velocity": 102,
      "chip": "ym2612"
    },
    {
      "channel": 2,
      "note": 38,
      "start": 2.2349,
      "duration": 0.0167,
      "velocity": 102,
      "chip": "ym2612"
    },
    {
      "channel": 1,
      "note": 40,
      "start": 2.2513,
      "duration": 0.0167,
      "velocity": 102,
      "chip": "ym2612"
    },
    {
      "channel": 2,
      "note": 38,
      "start": 2.2516,
      "duration": 0.0167,
      "velocity": 102,
      "chip": "ym2612"
    },
    {
      "channel": 1,
      "note": 40,
      "start": 2.2679,
      "duration": 0.0167,
      "velocity": 102,
      "chip": "ym2612"
    },
    {
      "channel": 2,
      "note": 38,
      "start": 2.2683,
      "duration": 0.0167,
      "velocity": 102,
      "chip": "ym2612"
    },
    {
      "channel": 1,
      "note": 40,
      "start": 2.2846,
      "duration": 0.0333,
      "velocity": 102,
      "chip": "ym2612"
    },
    {
      "channel": 2,
      "note": 38,
      "start": 2.2849,
      "duration": 0.0333,
      "velocity": 102,
      "chip": "ym2612"
    },
    {
      "channel": 1,
      "note": 40,
      "start": 2.3179,
      "duration": 0.0178,
      "velocity": 102,
      "chip": "ym2612"
    },
    {
      "channel": 2,
      "note": 38,
      "start": 2.3183,
      "duration": 0.0177,
      "velocity": 102,
      "chip": "ym2612"
    },
    {
      "channel": 0,
      "note": 46,
      "start": 2.335,
      "duration": 0.1165,
      "velocity": 94,
      "chip": "ym2612"
    },
    {
      "channel": 1,
      "note": 40,
      "start": 2.3357,
      "duration": 0.0155,
      "velocity": 102,
      "chip": "ym2612"
    },
    {
      "channel": 2,
      "note": 39,
      "start": 2.336,
      "duration": 0.0156,
      "velocity": 102,
      "chip": "ym2612"
    },
    {
      "channel": 1,
      "note": 40,
      "start": 2.3513,
      "duration": 0.0167,
      "velocity": 102,
      "chip": "ym2612"
    },
    {
      "channel": 2,
      "note": 39,
      "start": 2.3516,
      "duration": 0.0167,
      "velocity": 102,
      "chip": "ym2612"
    },
    {
      "channel": 1,
      "note": 41,
      "start": 2.3679,
      "duration": 0.0167,
      "velocity": 102,
      "chip": "ym2612"
    },
    {
      "channel": 2,
      "note": 39,
      "start": 2.3683,
      "duration": 0.0167,
      "velocity": 102,
      "chip": "ym2612"
    },
    {
      "channel": 1,
      "note": 41,
      "start": 2.3846,
      "duration": 0.0333,
      "velocity": 102,
      "chip": "ym2612"
    },
    {
      "channel": 2,
      "note": 39,
      "start": 2.3849,
      "duration": 0.0333,
      "velocity": 102,
      "chip": "ym2612"
    },
    {
      "channel": 1,
      "note": 41,
      "start": 2.4179,
      "duration": 0.0167,
      "velocity": 102,
      "chip": "ym2612"
    },
    {
      "channel": 2,
      "note": 39,
      "start": 2.4183,
      "duration": 0.0167,
      "velocity": 102,
      "chip": "ym2612"
    },
    {
      "channel": 1,
      "note": 41,
      "start": 2.4346,
      "duration": 0.0178,
      "velocity": 102,
      "chip": "ym2612"
    },
    {
      "channel": 2,
      "note": 39,
      "start": 2.4349,
      "duration": 0.0177,
      "velocity": 102,
      "chip": "ym2612"
    },
    {
      "channel": 0,
      "note": 58,
      "start": 2.4517,
      "duration": 0.1166,
      "velocity": 94,
      "chip": "ym2612"
    },
    {
      "channel": 1,
      "note": 41,
      "start": 2.4524,
      "duration": 0.0155,
      "velocity": 102,
      "chip": "ym2612"
    },
    {
      "channel": 2,
      "note": 39,
      "start": 2.4527,
      "duration": 0.0156,
      "velocity": 102,
      "chip": "ym2612"
    },
    {
      "channel": 1,
      "note": 41,
      "start": 2.4679,
      "duration": 0.0167,
      "velocity": 102,
      "chip": "ym2612"
    },
    {
      "channel": 2,
      "note": 40,
      "start": 2.4683,
      "duration": 0.0167,
      "velocity": 102,
      "chip": "ym2612"
    },
    {
      "channel": 1,
      "note": 41,
      "start": 2.4846,
      "duration": 0.0333,
      "velocity": 102,
      "chip": "ym2612"
    },
    {
      "channel": 2,
      "note": 40,
      "start": 2.4849,
      "duration": 0.0333,
      "velocity": 102,
      "chip": "ym2612"
    },
    {
      "channel": 1,
      "note": 42,
      "start": 2.5179,
      "duration": 0.0167,
      "velocity": 102,
      "chip": "ym2612"
    },
    {
      "channel": 2,
      "note": 40,
      "start": 2.5182,
      "duration": 0.0167,
      "velocity": 102,
      "chip": "ym2612"
    },
    {
      "channel": 1,
      "note": 42,
      "start": 2.5346,
      "duration": 0.0167,
      "velocity": 102,
      "chip": "ym2612"
    },
    {
      "channel": 2,
      "note": 40,
      "start": 2.5349,
      "duration": 0.0167,
      "velocity": 102,
      "chip": "ym2612"
    },
    {
      "channel": 1,
      "note": 42,
      "start": 2.5513,
      "duration": 0.0178,
      "velocity": 102,
      "chip": "ym2612"
    },
    {
      "channel": 2,
      "note": 40,
      "start": 2.5515,
      "duration": 0.0178,
      "velocity": 102,
      "chip": "ym2612"
    },
    {
      "channel": 0,
      "note": 44,
      "start": 2.5684,
      "duration": 0.1165,
      "velocity": 94,
      "chip": "ym2612"
    },
    {
      "channel": 1,
      "note": 42,
      "start": 2.5691,
      "duration": 0.0155,
      "velocity": 102,
      "chip": "ym2612"
    },
    {
      "channel": 2,
      "note": 40,
      "start": 2.5693,
      "duration": 0.0156,
      "velocity": 102,
      "chip": "ym2612"
    },
    {
      "channel": 1,
      "note": 42,
      "start": 2.5846,
      "duration": 0.0333,
      "velocity": 102,
      "chip": "ym2612"
    },
    {
      "channel": 2,
      "note": 40,
      "start": 2.5849,
      "duration": 0.0333,
      "velocity": 102,
      "chip": "ym2612"
    },
    {
      "channel": 1,
      "note": 42,
      "start": 2.6179,
      "duration": 0.0167,
      "velocity": 102,
      "chip": "ym2612"
    },
    {
      "channel": 2,
      "note": 41,
      "start": 2.6182,
      "duration": 0.0167,
      "velocity": 102,
      "chip": "ym2612"
    },
    {
      "channel": 1,
      "note": 42,
      "start": 2.6346,
      "duration": 0.0167,
      "velocity": 102,
      "chip": "ym2612"
    },
    {
      "channel": 2,
      "note": 41,
      "start": 2.6349,
      "duration": 0.0167,
      "velocity": 102,
      "chip": "ym2612"
    },
    {
      "channel": 1,
      "note": 42,
      "start": 2.6513,
      "duration": 0.0167,
      "velocity": 102,
      "chip": "ym2612"
    },
    {
      "channel": 2,
      "note": 41,
      "start": 2.6516,
      "duration": 0.0166,
      "velocity": 102,
      "chip": "ym2612"
    },
    {
      "channel": 1,
      "note": 43,
      "start": 2.6679,
      "duration": 0.0178,
      "velocity": 102,
      "chip": "ym2612"
    },
    {
      "channel": 2,
      "note": 41,
      "start": 2.6682,
      "duration": 0.0178,
      "velocity": 102,
      "chip": "ym2612"
    },
    {
      "channel": 0,
      "note": 59,
      "start": 2.685,
      "duration": 0.1332,
      "velocity": 94,
      "chip": "ym2612"
    },
    {
      "channel": 1,
      "note": 43,
      "start": 2.6857,
      "duration": 0.0322,
      "velocity": 102,
      "chip": "ym2612"
    },
    {
      "channel": 2,
      "note": 41,
      "start": 2.686,
      "duration": 0.0322,
      "velocity": 102,
      "chip": "ym2612"
    },
    {
      "channel": 1,
      "note": 43,
      "start": 2.7179,
      "duration": 0.0167,
      "velocity": 102,
      "chip": "ym2612"
    },
    {
      "channel": 2,
      "note": 41,
      "start": 2.7182,
      "duration": 0.0167,
      "velocity": 102,
      "chip": "ym2612"
    },
    {
      "channel": 1,
      "note": 43,
      "start": 2.7346,
      "duration": 0.0167,
      "velocity": 102,
      "chip": "ym2612"
    },
    {
      "channel": 2,
      "note": 41,
      "start": 2.7349,
      "duration": 0.0166,
      "velocity": 102,
      "chip": "ym2612"
    },
    {
      "channel": 1,
      "note": 43,
      "start": 2.7513,
      "duration": 0.0167,
      "velocity": 102,
      "chip": "ym2612"
    },
    {
      "channel": 2,
      "note": 42,
      "start": 2.7515,
      "duration": 0.0167,
      "velocity": 102,
      "chip": "ym2612"
    },
    {
      "channel": 1,
      "note": 43,
      "start": 2.7679,
      "duration": 0.0167,
      "velocity": 102,
      "chip": "ym2612"
    },
    {
      "channel": 2,
      "note": 42,
      "start": 2.7682,
      "duration": 0.0167,
      "velocity": 102,
      "chip": "ym2612"
    },
    {
      "channel": 1,
      "note": 43,
      "start": 2.7846,
      "duration": 0.0345,
      "velocity": 102,
      "chip": "ym2612"
    },
    {
      "channel": 2,
      "note": 42,
      "start": 2.7849,
      "duration": 0.0345,
      "velocity": 102,
      "chip": "ym2612"
    },
    {
      "channel": 0,
      "note": 56,
      "start": 2.8184,
      "duration": 0.1166,
      "velocity": 94,
      "chip": "ym2612"
    },
    {
      "channel": 1,
      "note": 43,
      "start": 2.8191,
      "duration": 0.0155,
      "velocity": 102,
      "chip": "ym2612"
    },
    {
      "channel": 2,
      "note": 42,
      "start": 2.8193,
      "duration": 0.0156,
      "velocity": 102,
      "chip": "ym2612"
    },
    {
      "channel": 1,
      "note": 43,
      "start": 2.8346,
      "duration": 0.0167,
      "velocity": 102,
      "chip": "ym2612"
    },
    {
      "channel": 2,
      "note": 42,
      "start": 2.8349,
      "duration": 0.0167,
      "velocity": 102,
      "chip": "ym2612"
    },
    {
      "channel": 1,
      "note": 44,
      "start": 2.8513,
      "duration": 0.0167,
      "velocity": 102,
      "chip": "ym2612"
    },
    {
      "channel": 2,
      "note": 42,
      "start": 2.8516,
      "duration": 0.0167,
      "velocity": 102,
      "chip": "ym2612"
    },
    {
      "channel": 1,
      "note": 44,
      "start": 2.8679,
      "duration": 0.0167,
      "velocity": 102,
      "chip": "ym2612"
    },
    {
      "channel": 2,
      "note": 42,
      "start": 2.8683,
      "duration": 0.0167,
      "velocity": 102,
      "chip": "ym2612"
    },
    {
      "channel": 1,
      "note": 44,
      "start": 2.8846,
      "duration": 0.0333,
      "velocity": 102,
      "chip": "ym2612"
    },
    {
      "channel": 2,
      "note": 42,
      "start": 2.8849,
      "duration": 0.0333,
      "velocity": 102,
      "chip": "ym2612"
    },
    {
      "channel": 1,
      "note": 44,
      "start": 2.9179,
      "duration": 0.0178,
      "velocity": 102,
      "chip": "ym2612"
    },
    {
      "channel": 2,
      "note": 43,
      "start": 2.9183,
      "duration": 0.0178,
      "velocity": 102,
      "chip": "ym2612"
    },
    {
      "channel": 0,
      "note": 46,
      "start": 2.935,
      "duration": 0.1165,
      "velocity": 94,
      "chip": "ym2612"
    },
    {
      "channel": 1,
      "note": 44,
      "start": 2.9357,
      "duration": 0.0155,
      "velocity": 102,
      "chip": "ym2612"
    },
    {
      "channel": 2,
      "note": 43,
      "start": 2.9361,
      "duration": 0.0155,
      "velocity": 102,
      "chip": "ym2612"
    },
    {
      "channel": 1,
      "note": 44,
      "start": 2.9513,
      "duration": 0.0167,
      "velocity": 102,
      "chip": "ym2612"
    },
    {
      "channel": 2,
      "note": 43,
      "start": 2.9515,
      "duration": 0.0167,
      "velocity": 102,
      "chip": "ym2612"
    },
    {
      "channel": 1,
      "note": 44,
      "start": 2.9679,
      "duration": 0.0167,
      "velocity": 102,
      "chip": "ym2612"
    },
    {
      "channel": 2,
      "note": 43,
      "start": 2.9682,
      "duration": 0.0167,
      "velocity": 102,
      "chip": "ym2612"
    },
    {
      "channel": 1,
      "note": 45,
      "start": 2.9846,
      "duration": 0.0333,
      "velocity": 102,
      "chip": "ym2612"
    },
    {
      "channel": 2,
      "note": 43,
      "start": 2.9849,
      "duration": 0.0333,
      "velocity": 102,
      "chip": "ym2612"
    },
    {
      "channel": 1,
      "note": 45,
      "start": 3.0179,
      "duration": 0.0167,
      "velocity": 102,
      "chip": "ym2612"
    },
    {
      "channel": 2,
      "note": 43,
      "start": 3.0182,
      "duration": 0.0167,
      "velocity": 102,
      "chip": "ym2612"
    },
    {
      "channel": 1,
      "note": 45,
      "start": 3.0346,
      "duration": 0.0178,
      "velocity": 102,
      "chip": "ym2612"
    },
    {
      "channel": 2,
      "note": 43,
      "start": 3.0349,
      "duration": 0.0178,
      "velocity": 102,
      "chip": "ym2612"
    },
    {
      "channel": 0,
      "note": 58,
      "start": 3.0517,
      "duration": 0.1165,
      "velocity": 94,
      "chip": "ym2612"
    },
    {
      "channel": 1,
      "note": 45,
      "start": 3.0524,
      "duration": 0.0155,
      "velocity": 102,
      "chip": "ym2612"
    },
    {
      "channel": 2,
      "note": 43,
      "start": 3.0527,
      "duration": 0.0156,
      "velocity": 102,
      "chip": "ym2612"
    },
    {
      "channel": 1,
      "note": 46,
      "start": 3.0679,
      "duration": 0.0167,
      "velocity": 102,
      "chip": "ym2612"
    },
    {
      "channel": 2,
      "note": 43,
      "start": 3.0683,
      "duration": 0.0167,
      "velocity": 102,
      "chip": "ym2612"
    },
    {
      "channel": 1,
      "note": 46,
      "start": 3.0846,
      "duration": 0.0333,
      "velocity": 102,
      "chip": "ym2612"
    },
    {
      "channel": 2,
      "note": 44,
      "start": 3.0849,
      "duration": 0.0333,
      "velocity": 102,
      "chip": "ym2612"
    },
    {
      "channel": 1,
      "note": 46,
      "start": 3.1179,
      "duration": 0.0167,
      "velocity": 102,
      "chip": "ym2612"
    },
    {
      "channel": 2,
      "note": 44,
      "start": 3.1183,
      "duration": 0.0167,
      "velocity": 102,
      "chip": "ym2612"
    },
    {
      "channel": 1,
      "note": 46,
      "start": 3.1346,
      "duration": 0.0167,
      "velocity": 102,
      "chip": "ym2612"
    },
    {
      "channel": 2,
      "note": 44,
      "start": 3.1349,
      "duration": 0.0167,
      "velocity": 102,
      "chip": "ym2612"
    },
    {
      "channel": 1,
      "note": 46,
      "start": 3.1513,
      "duration": 0.0178,
      "velocity": 102,
      "chip": "ym2612"
    },
    {
      "channel": 2,
      "note": 44,
      "start": 3.1516,
      "duration": 0.0177,
      "velocity": 102,
      "chip": "ym2612"
    },
    {
      "channel": 0,
      "note": 44,
      "start": 3.1684,
      "duration": 0.1165,
      "velocity": 94,
      "chip": "ym2612"
    },
    {
      "channel": 1,
      "note": 47,
      "start": 3.1691,
      "duration": 0.0155,
      "velocity": 102,
      "chip": "ym2612"
    },
    {
      "channel": 2,
      "note": 44,
      "start": 3.1693,
      "duration": 0.0155,
      "velocity": 102,
      "chip": "ym2612"
    },
    {
      "channel": 1,
      "note": 47,
      "start": 3.1846,
      "duration": 0.0333,
      "velocity": 102,
      "chip": "ym2612"
    },
    {
      "channel": 2,
      "note": 44,
      "start": 3.1849,
      "duration": 0.0334,
      "velocity": 102,
      "chip": "ym2612"
    },
    {
      "channel": 1,
      "note": 47,
      "start": 3.2179,
      "duration": 0.0167,
      "velocity": 102,
      "chip": "ym2612"
    },
    {
      "channel": 2,
      "note": 44,
      "start": 3.2183,
      "duration": 0.0167,
      "velocity": 102,
      "chip": "ym2612"
    },
    {
      "channel": 1,
      "note": 47,
      "start": 3.2346,
      "duration": 0.0167,
      "velocity": 102,
      "chip": "ym2612"
    },
    {
      "channel": 2,
      "note": 45,
      "start": 3.2349,
      "duration": 0.0167,
      "velocity": 102,
      "chip": "ym2612"
    },
    {
      "channel": 1,
      "note": 47,
      "start": 3.2513,
      "duration": 0.0167,
      "velocity": 102,
      "chip": "ym2612"
    },
    {
      "channel": 2,
      "note": 45,
      "start": 3.2516,
      "duration": 0.0167,
      "velocity": 102,
      "chip": "ym2612"
    },
    {
      "channel": 1,
      "note": 47,
      "start": 3.2679,
      "duration": 0.0178,
      "velocity": 102,
      "chip": "ym2612"
    },
    {
      "channel": 2,
      "note": 45,
      "start": 3.2683,
      "duration": 0.0177,
      "velocity": 102,
      "chip": "ym2612"
    },
    {
      "channel": 0,
      "note": 46,
      "start": 3.285,
      "duration": 0.1332,
      "velocity": 94,
      "chip": "ym2612"
    },
    {
      "channel": 1,
      "note": 48,
      "start": 3.2857,
      "duration": 0.0322,
      "velocity": 102,
      "chip": "ym2612"
    },
    {
      "channel": 2,
      "note": 45,
      "start": 3.286,
      "duration": 0.0323,
      "velocity": 102,
      "chip": "ym2612"
    },
    {
      "channel": 1,
      "note": 48,
      "start": 3.3179,
      "duration": 0.0167,
      "velocity": 102,
      "chip": "ym2612"
    },
    {
      "channel": 2,
      "note": 46,
      "start": 3.3183,
      "duration": 0.0166,
      "velocity": 102,
      "chip": "ym2612"
    },
    {
      "channel": 1,
      "note": 48,
      "start": 3.3346,
      "duration": 0.0167,
      "velocity": 102,
      "chip": "ym2612"
    },
    {
      "channel": 2,
      "note": 46,
      "start": 3.3349,
      "duration": 0.0167,
      "velocity": 102,
      "chip": "ym2612"
    },
    {
      "channel": 1,
      "note": 48,
      "start": 3.3513,
      "duration": 0.0167,
      "velocity": 102,
      "chip": "ym2612"
    },
    {
      "channel": 2,
      "note": 46,
      "start": 3.3515,
      "duration": 0.0167,
      "velocity": 102,
      "chip": "ym2612"
    },
    {
      "channel": 1,
      "note": 48,
      "start": 3.3679,
      "duration": 0.0167,
      "velocity": 102,
      "chip": "ym2612"
    },
    {
      "channel": 2,
      "note": 46,
      "start": 3.3682,
      "duration": 0.0167,
      "velocity": 102,
      "chip": "ym2612"
    },
    {
      "channel": 1,
      "note": 49,
      "start": 3.3846,
      "duration": 0.0345,
      "velocity": 102,
      "chip": "ym2612"
    },
    {
      "channel": 2,
      "note": 46,
      "start": 3.3849,
      "duration": 0.0344,
      "velocity": 102,
      "chip": "ym2612"
    },
    {
      "channel": 0,
      "note": 58,
      "start": 3.4184,
      "duration": 0.1165,
      "velocity": 94,
      "chip": "ym2612"
    },
    {
      "channel": 1,
      "note": 49,
      "start": 3.4191,
      "duration": 0.0155,
      "velocity": 102,
      "chip": "ym2612"
    },
    {
      "channel": 2,
      "note": 47,
      "start": 3.4193,
      "duration": 0.0156,
      "velocity": 102,
      "chip": "ym2612"
    },
    {
      "channel": 1,
      "note": 49,
      "start": 3.4346,
      "duration": 0.0167,
      "velocity": 102,
      "chip": "ym2612"
    },
    {
      "channel": 2,
      "note": 47,
      "start": 3.4349,
      "duration": 0.0167,
      "velocity": 102,
      "chip": "ym2612"
    },
    {
      "channel": 1,
      "note": 49,
      "start": 3.4513,
      "duration": 0.0167,
      "velocity": 102,
      "chip": "ym2612"
    },
    {
      "channel": 2,
      "note": 47,
      "start": 3.4516,
      "duration": 0.0167,
      "velocity": 102,
      "chip": "ym2612"
    },
    {
      "channel": 1,
      "note": 49,
      "start": 3.4679,
      "duration": 0.0167,
      "velocity": 102,
      "chip": "ym2612"
    },
    {
      "channel": 2,
      "note": 47,
      "start": 3.4683,
      "duration": 0.0167,
      "velocity": 102,
      "chip": "ym2612"
    },
    {
      "channel": 1,
      "note": 49,
      "start": 3.4846,
      "duration": 0.0333,
      "velocity": 102,
      "chip": "ym2612"
    },
    {
      "channel": 2,
      "note": 47,
      "start": 3.4849,
      "duration": 0.0333,
      "velocity": 102,
      "chip": "ym2612"
    },
    {
      "channel": 1,
      "note": 50,
      "start": 3.5179,
      "duration": 0.0178,
      "velocity": 102,
      "chip": "ym2612"
    },
    {
      "channel": 2,
      "note": 47,
      "start": 3.5183,
      "duration": 0.0177,
      "velocity": 102,
      "chip": "ym2612"
    },
    {
      "channel": 0,
      "note": 44,
      "start": 3.535,
      "duration": 0.1165,
      "velocity": 94,
      "chip": "ym2612"
    },
    {
      "channel": 1,
      "note": 50,
      "start": 3.5357,
      "duration": 0.0155,
      "velocity": 102,
      "chip": "ym2612"
    },
    {
      "channel": 2,
      "note": 48,
      "start": 3.536,
      "duration": 0.0156,
      "velocity": 102,
      "chip": "ym2612"
    },
    {
      "channel": 1,
      "note": 50,
      "start": 3.5513,
      "duration": 0.0167,
      "velocity": 102,
      "chip": "ym2612"
    },
    {
      "channel": 2,
      "note": 48,
      "start": 3.5516,
      "duration": 0.0167,
      "velocity": 102,
      "chip": "ym2612"
    },
    {
      "channel": 1,
      "note": 50,
      "start": 3.5679,
      "duration": 0.0167,
      "velocity": 102,
      "chip": "ym2612"
    },
    {
      "channel": 2,
      "note": 48,
      "start": 3.5683,
      "duration": 0.0167,
      "velocity": 102,
      "chip": "ym2612"
    },
    {
      "channel": 1,
      "note": 50,
      "start": 3.5846,
      "duration": 0.0333,
      "velocity": 102,
      "chip": "ym2612"
    },
    {
      "channel": 2,
      "note": 48,
      "start": 3.5849,
      "duration": 0.0333,
      "velocity": 102,
      "chip": "ym2612"
    },
    {
      "channel": 1,
      "note": 50,
      "start": 3.6179,
      "duration": 0.0167,
      "velocity": 102,
      "chip": "ym2612"
    },
    {
      "channel": 2,
      "note": 48,
      "start": 3.6183,
      "duration": 0.0167,
      "velocity": 102,
      "chip": "ym2612"
    },
    {
      "channel": 1,
      "note": 51,
      "start": 3.6346,
      "duration": 0.0178,
      "velocity": 102,
      "chip": "ym2612"
    },
    {
      "channel": 2,
      "note": 49,
      "start": 3.6349,
      "duration": 0.0177,
      "velocity": 102,
      "chip": "ym2612"
    },
    {
      "channel": 0,
      "note": 59,
      "start": 3.6517,
      "duration": 0.1165,
      "velocity": 94,
      "chip": "ym2612"
    },
    {
      "channel": 1,
      "note": 51,
      "start": 3.6524,
      "duration": 0.0155,
      "velocity": 102,
      "chip": "ym2612"
    },
    {
      "channel": 2,
      "note": 49,
      "start": 3.6527,
      "duration": 0.0156,
      "velocity": 102,
      "chip": "ym2612"
    },
    {
      "channel": 1,
      "note": 51,
      "start": 3.6679,
      "duration": 0.0167,
      "velocity": 102,
      "chip": "ym2612"
    },
    {
      "channel": 2,
      "note": 49,
      "start": 3.6683,
      "duration": 0.0167,
      "velocity": 102,
      "chip": "ym2612"
    },
    {
      "channel": 1,
      "note": 51,
      "start": 3.6846,
      "duration": 0.0333,
      "velocity": 102,
      "chip": "ym2612"
    },
    {
      "channel": 2,
      "note": 49,
      "start": 3.6849,
      "duration": 0.0333,
      "velocity": 102,
      "chip": "ym2612"
    },
    {
      "channel": 1,
      "note": 51,
      "start": 3.7179,
      "duration": 0.0167,
      "velocity": 102,
      "chip": "ym2612"
    },
    {
      "channel": 2,
      "note": 49,
      "start": 3.7183,
      "duration": 0.0167,
      "velocity": 102,
      "chip": "ym2612"
    },
    {
      "channel": 1,
      "note": 51,
      "start": 3.7346,
      "duration": 0.0167,
      "velocity": 102,
      "chip": "ym2612"
    },
    {
      "channel": 2,
      "note": 49,
      "start": 3.7349,
      "duration": 0.0167,
      "velocity": 102,
      "chip": "ym2612"
    },
    {
      "channel": 1,
      "note": 51,
      "start": 3.7513,
      "duration": 0.0178,
      "velocity": 102,
      "chip": "ym2612"
    },
    {
      "channel": 2,
      "note": 50,
      "start": 3.7516,
      "duration": 0.0177,
      "velocity": 102,
      "chip": "ym2612"
    },
    {
      "channel": 0,
      "note": 56,
      "start": 3.7684,
      "duration": 0.1166,
      "velocity": 94,
      "chip": "ym2612"
    },
    {
      "channel": 1,
      "note": 52,
      "start": 3.7691,
      "duration": 0.0155,
      "velocity": 102,
      "chip": "ym2612"
    },
    {
      "channel": 2,
      "note": 50,
      "start": 3.7693,
      "duration": 0.0156,
      "velocity": 102,
      "chip": "ym2612"
    },
    {
      "channel": 1,
      "note": 52,
      "start": 3.7846,
      "duration": 0.0333,
      "velocity": 102,
      "chip": "ym2612"
    },
    {
      "channel": 2,
      "note": 50,
      "start": 3.7849,
      "duration": 0.0333,
      "velocity": 102,
      "chip": "ym2612"
    },
    {
      "channel": 1,
      "note": 52,
      "start": 3.8179,
      "duration": 0.0167,
      "velocity": 102,
      "chip": "ym2612"
    },
    {
      "channel": 2,
      "note": 50,
      "start": 3.8183,
      "duration": 0.0167,
      "velocity": 102,
      "chip": "ym2612"
    },
    {
      "channel": 1,
      "note": 52,
      "start": 3.8346,
      "duration": 0.0167,
      "velocity": 102,
      "chip": "ym2612"
    },
    {
      "channel": 2,
      "note": 50,
      "start": 3.8349,
      "duration": 0.0167,
      "velocity": 102,
      "chip": "ym2612"
    },
    {
      "channel": 1,
      "note": 52,
      "start": 3.8513,
      "duration": 0.0167,
      "velocity": 102,
      "chip": "ym2612"
    },
    {
      "channel": 2,
      "note": 50,
      "start": 3.8516,
      "duration": 0.0167,
      "velocity": 102,
      "chip": "ym2612"
    },
    {
      "channel": 1,
      "note": 52,
      "start": 3.8679,
      "duration": 0.0183,
      "velocity": 102,
      "chip": "ym2612"
    },
    {
      "channel": 2,
      "note": 51,
      "start": 3.8683,
      "duration": 0.0183,
      "velocity": 102,
      "chip": "ym2612"
    },
    {
      "channel": 0,
      "note": 49,
      "start": 3.8851,
      "duration": 0.1332,
      "velocity": 94,
      "chip": "ym2612"
    },
    {
      "channel": 3,
      "note": 49,
      "start": 3.8857,
      "duration": 3.7845,
      "velocity": 127,
      "chip": "ym2612"
    },
    {
      "channel": 1,
      "note": 52,
      "start": 3.8863,
      "duration": 0.0317,
      "velocity": 102,
      "chip": "ym2612"
    },
    {
      "channel": 2,
      "note": 51,
      "start": 3.8865,
      "duration": 0.0317,
      "velocity": 102,
      "chip": "ym2612"
    },
    {
      "channel": 1,
      "note": 53,
      "start": 3.9179,
      "duration": 0.0167,
      "velocity": 102,
      "chip": "ym2612"
    },
    {
      "channel": 2,
      "note": 51,
      "start": 3.9182,
      "duration": 0.0167,
      "velocity": 102,
      "chip": "ym2612"
    },
    {
      "channel": 1,
      "note": 53,
      "start": 3.9346,
      "duration": 0.0167,
      "velocity": 102,
      "chip": "ym2612"
    },
    {
      "channel": 2,
      "note": 51,
      "start": 3.9349,
      "duration": 0.0167,
      "velocity": 102,
      "chip": "ym2612"
    },
    {
      "channel": 1,
      "note": 53,
      "start": 3.9513,
      "duration": 0.0167,
      "velocity": 102,
      "chip": "ym2612"
    },
    {
      "channel": 2,
      "note": 51,
      "start": 3.9516,
      "duration": 0.0167,
      "velocity": 102,
      "chip": "ym2612"
    },
    {
      "channel": 1,
      "note": 53,
      "start": 3.9679,
      "duration": 0.0167,
      "velocity": 102,
      "chip": "ym2612"
    },
    {
      "channel": 2,
      "note": 51,
      "start": 3.9683,
      "duration": 0.0167,
      "velocity": 102,
      "chip": "ym2612"
    },
    {
      "channel": 1,
      "note": 53,
      "start": 3.9846,
      "duration": 0.0345,
      "velocity": 102,
      "chip": "ym2612"
    },
    {
      "channel": 2,
      "note": 51,
      "start": 3.9849,
      "duration": 0.0345,
      "velocity": 102,
      "chip": "ym2612"
    },
    {
      "channel": 0,
      "note": 61,
      "start": 4.0184,
      "duration": 0.1164,
      "velocity": 94,
      "chip": "ym2612"
    },
    {
      "channel": 1,
      "note": 53,
      "start": 4.0191,
      "duration": 0.0155,
      "velocity": 102,
      "chip": "ym2612"
    },
    {
      "channel": 2,
      "note": 52,
      "start": 4.0194,
      "duration": 0.0155,
      "velocity": 102,
      "chip": "ym2612"
    },
    {
      "channel": 1,
      "note": 53,
      "start": 4.0346,
      "duration": 0.0167,
      "velocity": 102,
      "chip": "ym2612"
    },
    {
      "channel": 2,
      "note": 52,
      "start": 4.0349,
      "duration": 0.0167,
      "velocity": 102,
      "chip": "ym2612"
    },
    {
      "channel": 1,
      "note": 53,
      "start": 4.0513,
      "duration": 0.0167,
      "velocity": 102,
      "chip": "ym2612"
    },
    {
      "channel": 2,
      "note": 52,
      "start": 4.0516,
      "duration": 0.0167,
      "velocity": 102,
      "chip": "ym2612"
    },
    {
      "channel": 1,
      "note": 54,
      "start": 4.0679,
      "duration": 0.0167,
      "velocity": 102,
      "chip": "ym2612"
    },
    {
      "channel": 2,
      "note": 52,
      "start": 4.0683,
      "duration": 0.0167,
      "velocity": 102,
      "chip": "ym2612"
    },
    {
      "channel": 1,
      "note": 54,
      "start": 4.0846,
      "duration": 0.0333,
      "velocity": 102,
      "chip": "ym2612"
    },
    {
      "channel": 2,
      "note": 52,
      "start": 4.0849,
      "duration": 0.0333,
      "velocity": 102,
      "chip": "ym2612"
    },
    {
      "channel": 1,
      "note": 54,
      "start": 4.1179,
      "duration": 0.0178,
      "velocity": 102,
      "chip": "ym2612"
    },
    {
      "channel": 2,
      "note": 52,
      "start": 4.1183,
      "duration": 0.0177,
      "velocity": 102,
      "chip": "ym2612"
    },
    {
      "channel": 0,
      "note": 49,
      "start": 4.135,
      "duration": 0.1166,
      "velocity": 94,
      "chip": "ym2612"
    },
    {
      "channel": 1,
      "note": 54,
      "start": 4.1357,
      "duration": 0.0155,
      "velocity": 102,
      "chip": "ym2612"
    },
    {
      "channel": 2,
      "note": 52,
      "start": 4.136,
      "duration": 0.0156,
      "velocity": 102,
      "chip": "ym2612"
    },
    {
      "channel": 1,
      "note": 54,
      "start": 4.1513,
      "duration": 0.0167,
      "velocity": 102,
      "chip": "ym2612"
    },
    {
      "channel": 2,
      "note": 53,
      "start": 4.1516,
      "duration": 0.0167,
      "velocity": 102,
      "chip": "ym2612"
    },
    {
      "channel": 1,
      "note": 54,
      "start": 4.1679,
      "duration": 0.0167,
      "velocity": 102,
      "chip": "ym2612"
    },
    {
      "channel": 2,
      "note": 53,
      "start": 4.1683,
      "duration": 0.0167,
      "velocity": 102,
      "chip": "ym2612"
    },
    {
      "channel": 1,
      "note": 54,
      "start": 4.1846,
      "duration": 0.0333,
      "velocity": 102,
      "chip": "ym2612"
    },
    {
      "channel": 2,
      "note": 53,
      "start": 4.1849,
      "duration": 0.0333,
      "velocity": 102,
      "chip": "ym2612"
    },
    {
      "channel": 1,
      "note": 54,
      "start": 4.2179,
      "duration": 0.0167,
      "velocity": 102,
      "chip": "ym2612"
    },
    {
      "channel": 2,
      "note": 53,
      "start": 4.2183,
      "duration": 0.0167,
      "velocity": 102,
      "chip": "ym2612"
    },
    {
      "channel": 1,
      "note": 55,
      "start": 4.2346,
      "duration": 0.0178,
      "velocity": 102,
      "chip": "ym2612"
    },
    {
      "channel": 2,
      "note": 53,
      "start": 4.2349,
      "duration": 0.0177,
      "velocity": 102,
      "chip": "ym2612"
    },
    {
      "channel": 0,
      "note": 59,
      "start": 4.2517,
      "duration": 0.1166,
      "velocity": 94,
      "chip": "ym2612"
    },
    {
      "channel": 1,
      "note": 55,
      "start": 4.2524,
      "duration": 0.0155,
      "velocity": 102,
      "chip": "ym2612"
    },
    {
      "channel": 2,
      "note": 53,
      "start": 4.2527,
      "duration": 0.0156,
      "velocity": 102,
      "chip": "ym2612"
    },
    {
      "channel": 1,
      "note": 55,
      "start": 4.2679,
      "duration": 0.0167,
      "velocity": 102,
      "chip": "ym2612"
    },
    {
      "channel": 2,
      "note": 53,
      "start": 4.2683,
      "duration": 0.0167,
      "velocity": 102,
      "chip": "ym2612"
    },
    {
      "channel": 1,
      "note": 55,
      "start": 4.2846,
      "duration": 0.0333,
      "velocity": 102,
      "chip": "ym2612"
    },
    {
      "channel": 2,
      "note": 53,
      "start": 4.2849,
      "duration": 0.0333,
      "velocity": 102,
      "chip": "ym2612"
    },
    {
      "channel": 1,
      "note": 55,
      "start": 4.3179,
      "duration": 0.0167,
      "velocity": 102,
      "chip": "ym2612"
    },
    {
      "channel": 2,
      "note": 54,
      "start": 4.3183,
      "duration": 0.0167,
      "velocity": 102,
      "chip": "ym2612"
    },
    {
      "channel": 1,
      "note": 55,
      "start": 4.3346,
      "duration": 0.0167,
      "velocity": 102,
      "chip": "ym2612"
    },
    {
      "channel": 2,
      "note": 54,
      "start": 4.3349,
      "duration": 0.0167,
      "velocity": 102,
      "chip": "ym2612"
    },
    {
      "channel": 1,
      "note": 55,
      "start": 4.3513,
      "duration": 0.0178,
      "velocity": 102,
      "chip": "ym2612"
    },
    {
      "channel": 2,
      "note": 54,
      "start": 4.3516,
      "duration": 0.0177,
      "velocity": 102,
      "chip": "ym2612"
    },
    {
      "channel": 0,
      "note": 61,
      "start": 4.3684,
      "duration": 0.1166,
      "velocity": 94,
      "chip": "ym2612"
    },
    {
      "channel": 1,
      "note": 55,
      "start": 4.3691,
      "duration": 0.0155,
      "velocity": 102,
      "chip": "ym2612"
    },
    {
      "channel": 2,
      "note": 54,
      "start": 4.3693,
      "duration": 0.0156,
      "velocity": 102,
      "chip": "ym2612"
    },
    {
      "channel": 1,
      "note": 56,
      "start": 4.3846,
      "duration": 0.0333,
      "velocity": 102,
      "chip": "ym2612"
    },
    {
      "channel": 2,
      "note": 54,
      "start": 4.3849,
      "duration": 0.0333,
      "velocity": 102,
      "chip": "ym2612"
    },
    {
      "channel": 1,
      "note": 56,
      "start": 4.4179,
      "duration": 0.0167,
      "velocity": 102,
      "chip": "ym2612"
    },
    {
      "channel": 2,
      "note": 54,
      "start": 4.4183,
      "duration": 0.0167,
      "velocity": 102,
      "chip": "ym2612"
    },
    {
      "channel": 1,
      "note": 56,
      "start": 4.4346,
      "duration": 0.0167,
      "velocity": 102,
      "chip": "ym2612"
    },
    {
      "channel": 2,
      "note": 54,
      "start": 4.4349,
      "duration": 0.0167,
      "velocity": 102,
      "chip": "ym2612"
    },
    {
      "channel": 1,
      "note": 56,
      "start": 4.4513,
      "duration": 0.0167,
      "velocity": 102,
      "chip": "ym2612"
    },
    {
      "channel": 2,
      "note": 54,
      "start": 4.4516,
      "duration": 0.0167,
      "velocity": 102,
      "chip": "ym2612"
    },
    {
      "channel": 1,
      "note": 56,
      "start": 4.4679,
      "duration": 0.0178,
      "velocity": 102,
      "chip": "ym2612"
    },
    {
      "channel": 2,
      "note": 55,
      "start": 4.4683,
      "duration": 0.0177,
      "velocity": 102,
      "chip": "ym2612"
    },
    {
      "channel": 0,
      "note": 47,
      "start": 4.4851,
      "duration": 0.1331,
      "velocity": 94,
      "chip": "ym2612"
    },
    {
      "channel": 1,
      "note": 56,
      "start": 4.4857,
      "duration": 0.0322,
      "velocity": 102,
      "chip": "ym2612"
    },
    {
      "channel": 2,
      "note": 55,
      "start": 4.486,
      "duration": 0.0323,
      "velocity": 102,
      "chip": "ym2612"
    },
    {
      "channel": 1,
      "note": 56,
      "start": 4.5179,
      "duration": 0.0167,
      "velocity": 102,
      "chip": "ym2612"
    },
    {
      "channel": 2,
      "note": 55,
      "start": 4.5183,
      "duration": 0.0167,
      "velocity": 102,
      "chip": "ym2612"
    },
    {
      "channel": 1,
      "note": 57,
      "start": 4.5346,
      "duration": 0.0166,
      "velocity": 102,
      "chip": "ym2612"
    },
    {
      "channel": 2,
      "note": 55,
      "start": 4.5349,
      "duration": 0.0166,
      "velocity": 102,
      "chip": "ym2612"
    },
    {
      "channel": 1,
      "note": 57,
      "start": 4.5512,
      "duration": 0.0167,
      "velocity": 102,
      "chip": "ym2612"
    },
    {
      "channel": 2,
      "note": 55,
      "start": 4.5515,
      "duration": 0.0167,
      "velocity": 102,
      "chip": "ym2612"
    },
    {
      "channel": 1,
      "note": 57,
      "start": 4.5679,
      "duration": 0.0167,
      "velocity": 102,
      "chip": "ym2612"
    },
    {
      "channel": 2,
      "note": 55,
      "start": 4.5682,
      "duration": 0.0167,
      "velocity": 102,
      "chip": "ym2612"
    },
    {
      "channel": 1,
      "note": 57,
      "start": 4.5845,
      "duration": 0.0345,
      "velocity": 102,
      "chip": "ym2612"
    },
    {
      "channel": 2,
      "note": 55,
      "start": 4.5849,
      "duration": 0.0344,
      "velocity": 102,
      "chip": "ym2612"
    },
    {
      "channel": 0,
      "note": 62,
      "start": 4.6183,
      "duration": 0.1165,
      "velocity": 94,
      "chip": "ym2612"
    },
    {
      "channel": 1,
      "note": 58,
      "start": 4.619,
      "duration": 0.0155,
      "velocity": 102,
      "chip": "ym2612"
    },
    {
      "channel": 2,
      "note": 55,
      "start": 4.6193,
      "duration": 0.0156,
      "velocity": 102,
      "chip": "ym2612"
    },
    {
      "channel": 1,
      "note": 58,
      "start": 4.6345,
      "duration": 0.0167,
      "velocity": 102,
      "chip": "ym2612"
    },
    {
      "channel": 2,
      "note": 56,
      "start": 4.6349,
      "duration": 0.0167,
      "velocity": 102,
      "chip": "ym2612"
    },
    {
      "channel": 1,
      "note": 58,
      "start": 4.6512,
      "duration": 0.0167,
      "velocity": 102,
      "chip": "ym2612"
    },
    {
      "channel": 2,
      "note": 56,
      "start": 4.6515,
      "duration": 0.0167,
      "velocity": 102,
      "chip": "ym2612"
    },
    {
      "channel": 1,
      "note": 58,
      "start": 4.6679,
      "duration": 0.0167,
      "velocity": 102,
      "chip": "ym2612"
    },
    {
      "channel": 2,
      "note": 56,
      "start": 4.6682,
      "duration": 0.0167,
      "velocity": 102,
      "chip": "ym2612"
    },
    {
      "channel": 1,
      "note": 58,
      "start": 4.6845,
      "duration": 0.0333,
      "velocity": 102,
      "chip": "ym2612"
    },
    {
      "channel": 2,
      "note": 56,
      "start": 4.6849,
      "duration": 0.0333,
      "velocity": 102,
      "chip": "ym2612"
    },
    {
      "channel": 1,
      "note": 59,
      "start": 4.7179,
      "duration": 0.0178,
      "velocity": 102,
      "chip": "ym2612"
    },
    {
      "channel": 2,
      "note": 56,
      "start": 4.7182,
      "duration": 0.0178,
      "velocity": 102,
      "chip": "ym2612"
    },
    {
      "channel": 0,
      "note": 59,
      "start": 4.735,
      "duration": 0.1164,
      "velocity": 94,
      "chip": "ym2612"
    },
    {
      "channel": 1,
      "note": 59,
      "start": 4.7357,
      "duration": 0.0155,
      "velocity": 102,
      "chip": "ym2612"
    },
    {
      "channel": 2,
      "note": 56,
      "start": 4.7359,
      "duration": 0.0156,
      "velocity": 102,
      "chip": "ym2612"
    },
    {
      "channel": 1,
      "note": 59,
      "start": 4.7512,
      "duration": 0.0167,
      "velocity": 102,
      "chip": "ym2612"
    },
    {
      "channel": 2,
      "note": 56,
      "start": 4.7515,
      "duration": 0.0167,
      "velocity": 102,
      "chip": "ym2612"
    },
    {
      "channel": 1,
      "note": 59,
      "start": 4.7679,
      "duration": 0.0167,
      "velocity": 102,
      "chip": "ym2612"
    },
    {
      "channel": 2,
      "note": 57,
      "start": 4.7682,
      "duration": 0.0167,
      "velocity": 102,
      "chip": "ym2612"
    },
    {
      "channel": 1,
      "note": 59,
      "start": 4.7845,
      "duration": 0.0333,
      "velocity": 102,
      "chip": "ym2612"
    },
    {
      "channel": 2,
      "note": 57,
      "start": 4.7849,
      "duration": 0.0333,
      "velocity": 102,
      "chip": "ym2612"
    },
    {
      "channel": 1,
      "note": 59,
      "start": 4.8179,
      "duration": 0.0167,
      "velocity": 102,
      "chip": "ym2612"
    },
    {
      "channel": 2,
      "note": 57,
      "start": 4.8182,
      "duration": 0.0167,
      "velocity": 102,
      "chip": "ym2612"
    },
    {
      "channel": 1,
      "note": 60,
      "start": 4.8345,
      "duration": 0.0178,
      "velocity": 102,
      "chip": "ym2612"
    },
    {
      "channel": 2,
      "note": 57,
      "start": 4.8349,
      "duration": 0.0178,
      "velocity": 102,
      "chip": "ym2612"
    },
    {
      "channel": 0,
      "note": 49,
      "start": 4.8517,
      "duration": 0.1165,
      "velocity": 94,
      "chip": "ym2612"
    },
    {
      "channel": 1,
      "note": 60,
      "start": 4.8523,
      "duration": 0.0155,
      "velocity": 102,
      "chip": "ym2612"
    },
    {
      "channel": 2,
      "note": 58,
      "start": 4.8526,
      "duration": 0.0156,
      "velocity": 102,
      "chip": "ym2612"
    },
    {
      "channel": 1,
      "note": 60,
      "start": 4.8679,
      "duration": 0.0167,
      "velocity": 102,
      "chip": "ym2612"
    },
    {
      "channel": 2,
      "note": 58,
      "start": 4.8682,
      "duration": 0.0167,
      "velocity": 102,
      "chip": "ym2612"
    },
    {
      "channel": 1,
      "note": 60,
      "start": 4.8845,
      "duration": 0.0333,
      "velocity": 102,
      "chip": "ym2612"
    },
    {
      "channel": 2,
      "note": 58,
      "start": 4.8849,
      "duration": 0.0333,
      "velocity": 102,
      "chip": "ym2612"
    },
    {
      "channel": 1,
      "note": 60,
      "start": 4.9179,
      "duration": 0.0167,
      "velocity": 102,
      "chip": "ym2612"
    },
    {
      "channel": 2,
      "note": 58,
      "start": 4.9182,
      "duration": 0.0167,
      "velocity": 102,
      "chip": "ym2612"
    },
    {
      "channel": 1,
      "note": 61,
      "start": 4.9345,
      "duration": 0.0167,
      "velocity": 102,
      "chip": "ym2612"
    },
    {
      "channel": 2,
      "note": 58,
      "start": 4.9349,
      "duration": 0.0167,
      "velocity": 102,
      "chip": "ym2612"
    },
    {
      "channel": 1,
      "note": 61,
      "start": 4.9512,
      "duration": 0.0178,
      "velocity": 102,
      "chip": "ym2612"
    },
    {
      "channel": 2,
      "note": 59,
      "start": 4.9515,
      "duration": 0.0178,
      "velocity": 102,
      "chip": "ym2612"
    },
    {
      "channel": 0,
      "note": 61,
      "start": 4.9683,
      "duration": 0.1165,
      "velocity": 94,
      "chip": "ym2612"
    },
    {
      "channel": 1,
      "note": 61,
      "start": 4.969,
      "duration": 0.0155,
      "velocity": 102,
      "chip": "ym2612"
    },
    {
      "channel": 2,
      "note": 59,
      "start": 4.9693,
      "duration": 0.0156,
      "velocity": 102,
      "chip": "ym2612"
    },
    {
      "channel": 1,
      "note": 61,
      "start": 4.9845,
      "duration": 0.0333,
      "velocity": 102,
      "chip": "ym2612"
    },
    {
      "channel": 2,
      "note": 59,
      "start": 4.9849,
      "duration": 0.0333,
      "velocity": 102,
      "chip": "ym2612"
    },
    {
      "channel": 1,
      "note": 61,
      "start": 5.0179,
      "duration": 0.0167,
      "velocity": 102,
      "chip": "ym2612"
    },
    {
      "channel": 2,
      "note": 59,
      "start": 5.0182,
      "duration": 0.0167,
      "velocity": 102,
      "chip": "ym2612"
    },
    {
      "channel": 1,
      "note": 61,
      "start": 5.0345,
      "duration": 0.0167,
      "velocity": 102,
      "chip": "ym2612"
    },
    {
      "channel": 2,
      "note": 59,
      "start": 5.0349,
      "duration": 0.0167,
      "velocity": 102,
      "chip": "ym2612"
    },
    {
      "channel": 1,
      "note": 62,
      "start": 5.0512,
      "duration": 0.0167,
      "velocity": 102,
      "chip": "ym2612"
    },
    {
      "channel": 2,
      "note": 59,
      "start": 5.0515,
      "duration": 0.0167,
      "velocity": 102,
      "chip": "ym2612"
    },
    {
      "channel": 1,
      "note": 62,
      "start": 5.0679,
      "duration": 0.0178,
      "velocity": 102,
      "chip": "ym2612"
    },
    {
      "channel": 2,
      "note": 60,
      "start": 5.0682,
      "duration": 0.0178,
      "velocity": 102,
      "chip": "ym2612"
    },
    {
      "channel": 0,
      "note": 47,
      "start": 5.085,
      "duration": 0.1332,
      "velocity": 94,
      "chip": "ym2612"
    },
    {
      "channel": 1,
      "note": 62,
      "start": 5.0857,
      "duration": 0.0322,
      "velocity": 102,
      "chip": "ym2612"
    },
    {
      "channel": 2,
      "note": 60,
      "start": 5.0859,
      "duration": 0.0322,
      "velocity": 102,
      "chip": "ym2612"
    },
    {
      "channel": 1,
      "note": 62,
      "start": 5.1179,
      "duration": 0.0167,
      "velocity": 102,
      "chip": "ym2612"
    },
    {
      "channel": 2,
      "note": 60,
      "start": 5.1182,
      "duration": 0.0167,
      "velocity": 102,
      "chip": "ym2612"
    },
    {
      "channel": 1,
      "note": 62,
      "start": 5.1345,
      "duration": 0.0167,
      "velocity": 102,
      "chip": "ym2612"
    },
    {
      "channel": 2,
      "note": 60,
      "start": 5.1349,
      "duration": 0.0167,
      "velocity": 102,
      "chip": "ym2612"
    },
    {
      "channel": 1,
      "note": 62,
      "start": 5.1512,
      "duration": 0.0167,
      "velocity": 102,
      "chip": "ym2612"
    },
    {
      "channel": 2,
      "note": 60,
      "start": 5.1515,
      "duration": 0.0167,
      "velocity": 102,
      "chip": "ym2612"
    },
    {
      "channel": 1,
      "note": 62,
      "start": 5.1679,
      "duration": 0.0167,
      "velocity": 102,
      "chip": "ym2612"
    },
    {
      "channel": 2,
      "note": 61,
      "start": 5.1682,
      "duration": 0.0167,
      "velocity": 102,
      "chip": "ym2612"
    },
    {
      "channel": 1,
      "note": 63,
      "start": 5.1845,
      "duration": 0.0345,
      "velocity": 102,
      "chip": "ym2612"
    },
    {
      "channel": 2,
      "note": 61,
      "start": 5.1849,
      "duration": 0.0344,
      "velocity": 102,
      "chip": "ym2612"
    },
    {
      "channel": 0,
      "note": 49,
      "start": 5.2183,
      "duration": 0.1165,
      "velocity": 94,
      "chip": "ym2612"
    },
    {
      "channel": 1,
      "note": 63,
      "start": 5.219,
      "duration": 0.0155,
      "velocity": 102,
      "chip": "ym2612"
    },
    {
      "channel": 2,
      "note": 61,
      "start": 5.2193,
      "duration": 0.0156,
      "velocity": 102,
      "chip": "ym2612"
    },
    {
      "channel": 1,
      "note": 63,
      "start": 5.2345,
      "duration": 0.0167,
      "velocity": 102,
      "chip": "ym2612"
    },
    {
      "channel": 2,
      "note": 61,
      "start": 5.2349,
      "duration": 0.0167,
      "velocity": 102,
      "chip": "ym2612"
    },
    {
      "channel": 1,
      "note": 63,
      "start": 5.2512,
      "duration": 0.0167,
      "velocity": 102,
      "chip": "ym2612"
    },
    {
      "channel": 2,
      "note": 61,
      "start": 5.2515,
      "duration": 0.0167,
      "velocity": 102,
      "chip": "ym2612"
    },
    {
      "channel": 1,
      "note": 63,
      "start": 5.2679,
      "duration": 0.0167,
      "velocity": 102,
      "chip": "ym2612"
    },
    {
      "channel": 2,
      "note": 61,
      "start": 5.2682,
      "duration": 0.0167,
      "velocity": 102,
      "chip": "ym2612"
    },
    {
      "channel": 1,
      "note": 63,
      "start": 5.2845,
      "duration": 0.0333,
      "velocity": 102,
      "chip": "ym2612"
    },
    {
      "channel": 2,
      "note": 62,
      "start": 5.2849,
      "duration": 0.0333,
      "velocity": 102,
      "chip": "ym2612"
    },
    {
      "channel": 1,
      "note": 64,
      "start": 5.3179,
      "duration": 0.0178,
      "velocity": 102,
      "chip": "ym2612"
    },
    {
      "channel": 2,
      "note": 62,
      "start": 5.3182,
      "duration": 0.0178,
      "velocity": 102,
      "chip": "ym2612"
    },
    {
      "channel": 0,
      "note": 61,
      "start": 5.335,
      "duration": 0.1165,
      "velocity": 94,
      "chip": "ym2612"
    },
    {
      "channel": 1,
      "note": 64,
      "start": 5.3357,
      "duration": 0.0155,
      "velocity": 102,
      "chip": "ym2612"
    },
    {
      "channel": 2,
      "note": 62,
      "start": 5.3359,
      "duration": 0.0156,
      "velocity": 102,
      "chip": "ym2612"
    },
    {
      "channel": 1,
      "note": 64,
      "start": 5.3512,
      "duration": 0.0167,
      "velocity": 102,
      "chip": "ym2612"
    },
    {
      "channel": 2,
      "note": 62,
      "start": 5.3515,
      "duration": 0.0167,
      "velocity": 102,
      "chip": "ym2612"
    },
    {
      "channel": 1,
      "note": 64,
      "start": 5.3679,
      "duration": 0.0167,
      "velocity": 102,
      "chip": "ym2612"
    },
    {
      "channel": 2,
      "note": 62,
      "start": 5.3682,
      "duration": 0.0167,
      "velocity": 102,
      "chip": "ym2612"
    },
    {
      "channel": 1,
      "note": 64,
      "start": 5.3845,
      "duration": 0.0333,
      "velocity": 102,
      "chip": "ym2612"
    },
    {
      "channel": 2,
      "note": 62,
      "start": 5.3849,
      "duration": 0.0333,
      "velocity": 102,
      "chip": "ym2612"
    },
    {
      "channel": 1,
      "note": 64,
      "start": 5.4179,
      "duration": 0.0167,
      "velocity": 102,
      "chip": "ym2612"
    },
    {
      "channel": 2,
      "note": 62,
      "start": 5.4182,
      "duration": 0.0167,
      "velocity": 102,
      "chip": "ym2612"
    },
    {
      "channel": 1,
      "note": 64,
      "start": 5.4345,
      "duration": 0.0178,
      "velocity": 102,
      "chip": "ym2612"
    },
    {
      "channel": 2,
      "note": 63,
      "start": 5.4349,
      "duration": 0.0178,
      "velocity": 102,
      "chip": "ym2612"
    },
    {
      "channel": 0,
      "note": 47,
      "start": 5.4517,
      "duration": 0.1165,
      "velocity": 94,
      "chip": "ym2612"
    },
    {
      "channel": 1,
      "note": 65,
      "start": 5.4523,
      "duration": 0.0155,
      "velocity": 102,
      "chip": "ym2612"
    },
    {
      "channel": 2,
      "note": 63,
      "start": 5.4526,
      "duration": 0.0156,
      "velocity": 102,
      "chip": "ym2612"
    },
    {
      "channel": 1,
      "note": 65,
      "start": 5.4679,
      "duration": 0.0167,
      "velocity": 102,
      "chip": "ym2612"
    },
    {
      "channel": 2,
      "note": 63,
      "start": 5.4682,
      "duration": 0.0167,
      "velocity": 102,
      "chip": "ym2612"
    },
    {
      "channel": 1,
      "note": 65,
      "start": 5.4845,
      "duration": 0.0333,
      "velocity": 102,
      "chip": "ym2612"
    },
    {
      "channel": 2,
      "note": 63,
      "start": 5.4849,
      "duration": 0.0333,
      "velocity": 102,
      "chip": "ym2612"
    },
    {
      "channel": 1,
      "note": 65,
      "start": 5.5179,
      "duration": 0.0167,
      "velocity": 102,
      "chip": "ym2612"
    },
    {
      "channel": 2,
      "note": 63,
      "start": 5.5182,
      "duration": 0.0167,
      "velocity": 102,
      "chip": "ym2612"
    },
    {
      "channel": 1,
      "note": 65,
      "start": 5.5345,
      "duration": 0.0167,
      "velocity": 102,
      "chip": "ym2612"
    },
    {
      "channel": 2,
      "note": 63,
      "start": 5.5349,
      "duration": 0.0167,
      "velocity": 102,
      "chip": "ym2612"
    },
    {
      "channel": 1,
      "note": 65,
      "start": 5.5512,
      "duration": 0.0178,
      "velocity": 102,
      "chip": "ym2612"
    },
    {
      "channel": 2,
      "note": 64,
      "start": 5.5515,
      "duration": 0.0178,
      "velocity": 102,
      "chip": "ym2612"
    },
    {
      "channel": 0,
      "note": 62,
      "start": 5.5683,
      "duration": 0.1165,
      "velocity": 94,
      "chip": "ym2612"
    },
    {
      "channel": 1,
      "note": 65,
      "start": 5.569,
      "duration": 0.0155,
      "velocity": 102,
      "chip": "ym2612"
    },
    {
      "channel": 2,
      "note": 64,
      "start": 5.5693,
      "duration": 0.0156,
      "velocity": 102,
      "chip": "ym2612"
    },
    {
      "channel": 1,
      "note": 65,
      "start": 5.5845,
      "duration": 0.0333,
      "velocity": 102,
      "chip": "ym2612"
    },
    {
      "channel": 2,
      "note": 64,
      "start": 5.5849,
      "duration": 0.0333,
      "velocity": 102,
      "chip": "ym2612"
    },
    {
      "channel": 1,
      "note": 66,
      "start": 5.6179,
      "duration": 0.0167,
      "velocity": 102,
      "chip": "ym2612"
    },
    {
      "channel": 2,
      "note": 64,
      "start": 5.6182,
      "duration": 0.0167,
      "velocity": 102,
      "chip": "ym2612"
    },
    {
      "channel": 1,
      "note": 66,
      "start": 5.6345,
      "duration": 0.0167,
      "velocity": 102,
      "chip": "ym2612"
    },
    {
      "channel": 2,
      "note": 64,
      "start": 5.6349,
      "duration": 0.0167,
      "velocity": 102,
      "chip": "ym2612"
    },
    {
      "channel": 1,
      "note": 66,
      "start": 5.6512,
      "duration": 0.0167,
      "velocity": 102,
      "chip": "ym2612"
    },
    {
      "channel": 2,
      "note": 64,
      "start": 5.6515,
      "duration": 0.0167,
      "velocity": 102,
      "chip": "ym2612"
    },
    {
      "channel": 1,
      "note": 66,
      "start": 5.6679,
      "duration": 0.0178,
      "velocity": 102,
      "chip": "ym2612"
    },
    {
      "channel": 2,
      "note": 64,
      "start": 5.6682,
      "duration": 0.0178,
      "velocity": 102,
      "chip": "ym2612"
    },
    {
      "channel": 0,
      "note": 59,
      "start": 5.685,
      "duration": 0.1332,
      "velocity": 94,
      "chip": "ym2612"
    },
    {
      "channel": 1,
      "note": 66,
      "start": 5.6857,
      "duration": 0.0322,
      "velocity": 102,
      "chip": "ym2612"
    },
    {
      "channel": 2,
      "note": 65,
      "start": 5.6859,
      "duration": 0.0322,
      "velocity": 102,
      "chip": "ym2612"
    },
    {
      "channel": 1,
      "note": 66,
      "start": 5.7179,
      "duration": 0.0167,
      "velocity": 102,
      "chip": "ym2612"
    },
    {
      "channel": 2,
      "note": 65,
      "start": 5.7182,
      "duration": 0.0167,
      "velocity": 102,
      "chip": "ym2612"
    },
    {
      "channel": 1,
      "note": 66,
      "start": 5.7345,
      "duration": 0.0167,
      "velocity": 102,
      "chip": "ym2612"
    },
    {
      "channel": 2,
      "note": 65,
      "start": 5.7349,
      "duration": 0.0167,
      "velocity": 102,
      "chip": "ym2612"
    },
    {
      "channel": 1,
      "note": 66,
      "start": 5.7512,
      "duration": 0.0167,
      "velocity": 102,
      "chip": "ym2612"
    },
    {
      "channel": 2,
      "note": 65,
      "start": 5.7515,
      "duration": 0.0167,
      "velocity": 102,
      "chip": "ym2612"
    },
    {
      "channel": 1,
      "note": 67,
      "start": 5.7679,
      "duration": 0.0167,
      "velocity": 102,
      "chip": "ym2612"
    },
    {
      "channel": 2,
      "note": 65,
      "start": 5.7682,
      "duration": 0.0167,
      "velocity": 102,
      "chip": "ym2612"
    },
    {
      "channel": 1,
      "note": 67,
      "start": 5.7845,
      "duration": 0.0345,
      "velocity": 102,
      "chip": "ym2612"
    },
    {
      "channel": 2,
      "note": 65,
      "start": 5.7849,
      "duration": 0.0344,
      "velocity": 102,
      "chip": "ym2612"
    },
    {
      "channel": 0,
      "note": 49,
      "start": 5.8184,
      "duration": 0.1165,
      "velocity": 94,
      "chip": "ym2612"
    },
    {
      "channel": 1,
      "note": 67,
      "start": 5.819,
      "duration": 0.0155,
      "velocity": 102,
      "chip": "ym2612"
    },
    {
      "channel": 2,
      "note": 65,
      "start": 5.8193,
      "duration": 0.0156,
      "velocity": 102,
      "chip": "ym2612"
    },
    {
      "channel": 1,
      "note": 67,
      "start": 5.8345,
      "duration": 0.0167,
      "velocity": 102,
      "chip": "ym2612"
    },
    {
      "channel": 2,
      "note": 65,
      "start": 5.8349,
      "duration": 0.0167,
      "velocity": 102,
      "chip": "ym2612"
    },
    {
      "channel": 1,
      "note": 67,
      "start": 5.8512,
      "duration": 0.0167,
      "velocity": 102,
      "chip": "ym2612"
    },
    {
      "channel": 2,
      "note": 66,
      "start": 5.8515,
      "duration": 0.0167,
      "velocity": 102,
      "chip": "ym2612"
    },
    {
      "channel": 1,
      "note": 67,
      "start": 5.8679,
      "duration": 0.0167,
      "velocity": 102,
      "chip": "ym2612"
    },
    {
      "channel": 2,
      "note": 66,
      "start": 5.8682,
      "duration": 0.0167,
      "velocity": 102,
      "chip": "ym2612"
    },
    {
      "channel": 1,
      "note": 67,
      "start": 5.8845,
      "duration": 0.0333,
      "velocity": 102,
      "chip": "ym2612"
    },
    {
      "channel": 2,
      "note": 66,
      "start": 5.8849,
      "duration": 0.0333,
      "velocity": 102,
      "chip": "ym2612"
    },
    {
      "channel": 1,
      "note": 67,
      "start": 5.9179,
      "duration": 0.0178,
      "velocity": 102,
      "chip": "ym2612"
    },
    {
      "channel": 2,
      "note": 66,
      "start": 5.9182,
      "duration": 0.0178,
      "velocity": 102,
      "chip": "ym2612"
    },
    {
      "channel": 0,
      "note": 61,
      "start": 5.935,
      "duration": 0.1165,
      "velocity": 94,
      "chip": "ym2612"
    },
    {
      "channel": 1,
      "note": 68,
      "start": 5.9357,
      "duration": 0.0155,
      "velocity": 102,
      "chip": "ym2612"
    },
    {
      "channel": 2,
      "note": 66,
      "start": 5.9359,
      "duration": 0.0156,
      "velocity": 102,
      "chip": "ym2612"
    },
    {
      "channel": 1,
      "note": 68,
      "start": 5.9512,
      "duration": 0.0167,
      "velocity": 102,
      "chip": "ym2612"
    },
    {
      "channel": 2,
      "note": 66,
      "start": 5.9515,
      "duration": 0.0167,
      "velocity": 102,
      "chip": "ym2612"
    },
    {
      "channel": 1,
      "note": 68,
      "start": 5.9679,
      "duration": 0.0167,
      "velocity": 102,
      "chip": "ym2612"
    },
    {
      "channel": 2,
      "note": 66,
      "start": 5.9682,
      "duration": 0.0167,
      "velocity": 102,
      "chip": "ym2612"
    },
    {
      "channel": 1,
      "note": 68,
      "start": 5.9845,
      "duration": 0.0333,
      "velocity": 102,
      "chip": "ym2612"
    },
    {
      "channel": 2,
      "note": 66,
      "start": 5.9849,
      "duration": 0.0333,
      "velocity": 102,
      "chip": "ym2612"
    },
    {
      "channel": 1,
      "note": 68,
      "start": 6.0179,
      "duration": 0.0167,
      "velocity": 102,
      "chip": "ym2612"
    },
    {
      "channel": 2,
      "note": 67,
      "start": 6.0182,
      "duration": 0.0167,
      "velocity": 102,
      "chip": "ym2612"
    },
    {
      "channel": 1,
      "note": 68,
      "start": 6.0345,
      "duration": 0.0178,
      "velocity": 102,
      "chip": "ym2612"
    },
    {
      "channel": 2,
      "note": 67,
      "start": 6.0349,
      "duration": 0.0178,
      "velocity": 102,
      "chip": "ym2612"
    },
    {
      "channel": 0,
      "note": 47,
      "start": 6.0517,
      "duration": 0.1165,
      "velocity": 94,
      "chip": "ym2612"
    },
    {
      "channel": 1,
      "note": 68,
      "start": 6.0523,
      "duration": 0.0155,
      "velocity": 102,
      "chip": "ym2612"
    },
    {
      "channel": 2,
      "note": 67,
      "start": 6.0526,
      "duration": 0.0156,
      "velocity": 102,
      "chip": "ym2612"
    },
    {
      "channel": 1,
      "note": 69,
      "start": 6.0679,
      "duration": 0.0167,
      "velocity": 102,
      "chip": "ym2612"
    },
    {
      "channel": 2,
      "note": 67,
      "start": 6.0682,
      "duration": 0.0167,
      "velocity": 102,
      "chip": "ym2612"
    },
    {
      "channel": 1,
      "note": 69,
      "start": 6.0845,
      "duration": 0.0333,
      "velocity": 102,
      "chip": "ym2612"
    },
    {
      "channel": 2,
      "note": 67,
      "start": 6.0849,
      "duration": 0.0333,
      "velocity": 102,
      "chip": "ym2612"
    },
    {
      "channel": 1,
      "note": 69,
      "start": 6.1179,
      "duration": 0.0167,
      "velocity": 102,
      "chip": "ym2612"
    },
    {
      "channel": 2,
      "note": 67,
      "start": 6.1182,
      "duration": 0.0167,
      "velocity": 102,
      "chip": "ym2612"
    },
    {
      "channel": 1,
      "note": 69,
      "start": 6.1345,
      "duration": 0.0167,
      "velocity": 102,
      "chip": "ym2612"
    },
    {
      "channel": 2,
      "note": 67,
      "start": 6.1349,
      "duration": 0.0167,
      "velocity": 102,
      "chip": "ym2612"
    },
    {
      "channel": 1,
      "note": 69,
      "start": 6.1512,
      "duration": 0.0178,
      "velocity": 102,
      "chip": "ym2612"
    },
    {
      "channel": 2,
      "note": 67,
      "start": 6.1515,
      "duration": 0.0178,
      "velocity": 102,
      "chip": "ym2612"
    },
    {
      "channel": 0,
      "note": 49,
      "start": 6.1683,
      "duration": 0.1165,
      "velocity": 94,
      "chip": "ym2612"
    },
    {
      "channel": 1,
      "note": 70,
      "start": 6.169,
      "duration": 0.0155,
      "velocity": 102,
      "chip": "ym2612"
    },
    {
      "channel": 2,
      "note": 68,
      "start": 6.1693,
      "duration": 0.0156,
      "velocity": 102,
      "chip": "ym2612"
    },
    {
      "channel": 1,
      "note": 70,
      "start": 6.1845,
      "duration": 0.0333,
      "velocity": 102,
      "chip": "ym2612"
    },
    {
      "channel": 2,
      "note": 68,
      "start": 6.1849,
      "duration": 0.0333,
      "velocity": 102,
      "chip": "ym2612"
    },
    {
      "channel": 1,
      "note": 70,
      "start": 6.2179,
      "duration": 0.0167,
      "velocity": 102,
      "chip": "ym2612"
    },
    {
      "channel": 2,
      "note": 68,
      "start": 6.2182,
      "duration": 0.0167,
      "velocity": 102,
      "chip": "ym2612"
    },
    {
      "channel": 1,
      "note": 70,
      "start": 6.2345,
      "duration": 0.0167,
      "velocity": 102,
      "chip": "ym2612"
    },
    {
      "channel": 2,
      "note": 68,
      "start": 6.2349,
      "duration": 0.0167,
      "velocity": 102,
      "chip": "ym2612"
    },
    {
      "channel": 1,
      "note": 70,
      "start": 6.2512,
      "duration": 0.0167,
      "velocity": 102,
      "chip": "ym2612"
    },
    {
      "channel": 2,
      "note": 68,
      "start": 6.2515,
      "duration": 0.0167,
      "velocity": 102,
      "chip": "ym2612"
    },
    {
      "channel": 1,
      "note": 71,
      "start": 6.2679,
      "duration": 0.0178,
      "velocity": 102,
      "chip": "ym2612"
    },
    {
      "channel": 2,
      "note": 68,
      "start": 6.2682,
      "duration": 0.0178,
      "velocity": 102,
      "chip": "ym2612"
    },
    {
      "channel": 0,
      "note": 61,
      "start": 6.285,
      "duration": 0.1332,
      "velocity": 94,
      "chip": "ym2612"
    },
    {
      "channel": 1,
      "note": 71,
      "start": 6.2857,
      "duration": 0.0322,
      "velocity": 102,
      "chip": "ym2612"
    },
    {
      "channel": 2,
      "note": 68,
      "start": 6.2859,
      "duration": 0.0322,
      "velocity": 102,
      "chip": "ym2612"
    },
    {
      "channel": 1,
      "note": 71,
      "start": 6.3179,
      "duration": 0.0167,
      "velocity": 102,
      "chip": "ym2612"
    },
    {
      "channel": 2,
      "note": 69,
      "start": 6.3182,
      "duration": 0.0167,
      "velocity": 102,
      "chip": "ym2612"
    },
    {
      "channel": 1,
      "note": 71,
      "start": 6.3345,
      "duration": 0.0167,
      "velocity": 102,
      "chip": "ym2612"
    },
    {
      "channel": 2,
      "note": 69,
      "start": 6.3349,
      "duration": 0.0167,
      "velocity": 102,
      "chip": "ym2612"
    },
    {
      "channel": 1,
      "note": 71,
      "start": 6.3512,
      "duration": 0.0167,
      "velocity": 102,
      "chip": "ym2612"
    },
    {
      "channel": 2,
      "note": 69,
      "start": 6.3515,
      "duration": 0.0167,
      "velocity": 102,
      "chip": "ym2612"
    },
    {
      "channel": 1,
      "note": 72,
      "start": 6.3679,
      "duration": 0.0167,
      "velocity": 102,
      "chip": "ym2612"
    },
    {
      "channel": 2,
      "note": 69,
      "start": 6.3682,
      "duration": 0.0167,
      "velocity": 102,
      "chip": "ym2612"
    },
    {
      "channel": 1,
      "note": 72,
      "start": 6.3845,
      "duration": 0.0345,
      "velocity": 102,
      "chip": "ym2612"
    },
    {
      "channel": 2,
      "note": 69,
      "start": 6.3849,
      "duration": 0.0344,
      "velocity": 102,
      "chip": "ym2612"
    },
    {
      "channel": 0,
      "note": 47,
      "start": 6.4183,
      "duration": 0.1165,
      "velocity": 94,
      "chip": "ym2612"
    },
    {
      "channel": 1,
      "note": 72,
      "start": 6.419,
      "duration": 0.0155,
      "velocity": 102,
      "chip": "ym2612"
    },
    {
      "channel": 2,
      "note": 70,
      "start": 6.4193,
      "duration": 0.0156,
      "velocity": 102,
      "chip": "ym2612"
    },
    {
      "channel": 1,
      "note": 72,
      "start": 6.4345,
      "duration": 0.0167,
      "velocity": 102,
      "chip": "ym2612"
    },
    {
      "channel": 2,
      "note": 70,
      "start": 6.4349,
      "duration": 0.0167,
      "velocity": 102,
      "chip": "ym2612"
    },
    {
      "channel": 1,
      "note": 72,
      "start": 6.4512,
      "duration": 0.0167,
      "velocity": 102,
      "chip": "ym2612"
    },
    {
      "channel": 2,
      "note": 70,
      "start": 6.4515,
      "duration": 0.0167,
      "velocity": 102,
      "chip": "ym2612"
    },
    {
      "channel": 1,
      "note": 73,
      "start": 6.4679,
      "duration": 0.0167,
      "velocity": 102,
      "chip": "ym2612"
    },
    {
      "channel": 2,
      "note": 70,
      "start": 6.4682,
      "duration": 0.0167,
      "velocity": 102,
      "chip": "ym2612"
    },
    {
      "channel": 1,
      "note": 73,
      "start": 6.4845,
      "duration": 0.0333,
      "velocity": 102,
      "chip": "ym2612"
    },
    {
      "channel": 2,
      "note": 70,
      "start": 6.4849,
      "duration": 0.0333,
      "velocity": 102,
      "chip": "ym2612"
    },
    {
      "channel": 1,
      "note": 73,
      "start": 6.5179,
      "duration": 0.0178,
      "velocity": 102,
      "chip": "ym2612"
    },
    {
      "channel": 2,
      "note": 71,
      "start": 6.5182,
      "duration": 0.0178,
      "velocity": 102,
      "chip": "ym2612"
    },
    {
      "channel": 0,
      "note": 62,
      "start": 6.535,
      "duration": 0.1165,
      "velocity": 94,
      "chip": "ym2612"
    },
    {
      "channel": 1,
      "note": 73,
      "start": 6.5357,
      "duration": 0.0155,
      "velocity": 102,
      "chip": "ym2612"
    },
    {
      "channel": 2,
      "note": 71,
      "start": 6.5359,
      "duration": 0.0156,
      "velocity": 102,
      "chip": "ym2612"
    },
    {
      "channel": 1,
      "note": 73,
      "start": 6.5512,
      "duration": 0.0167,
      "velocity": 102,
      "chip": "ym2612"
    },
    {
      "channel": 2,
      "note": 71,
      "start": 6.5515,
      "duration": 0.0167,
      "velocity": 102,
      "chip": "ym2612"
    },
    {
      "channel": 1,
      "note": 73,
      "start": 6.5679,
      "duration": 0.0167,
      "velocity": 102,
      "chip": "ym2612"
    },
    {
      "channel": 2,
      "note": 71,
      "start": 6.5682,
      "duration": 0.0167,
      "velocity": 102,
      "chip": "ym2612"
    },
    {
      "channel": 1,
      "note": 74,
      "start": 6.5845,
      "duration": 0.0333,
      "velocity": 102,
      "chip": "ym2612"
    },
    {
      "channel": 2,
      "note": 71,
      "start": 6.5849,
      "duration": 0.0333,
      "velocity": 102,
      "chip": "ym2612"
    },
    {
      "channel": 1,
      "note": 74,
      "start": 6.6179,
      "duration": 0.0167,
      "velocity": 102,
      "chip": "ym2612"
    },
    {
      "channel": 2,
      "note": 72,
      "start": 6.6182,
      "duration": 0.0167,
      "velocity": 102,
      "chip": "ym2612"
    },
    {
      "channel": 1,
      "note": 74,
      "start": 6.6345,
      "duration": 0.0178,
      "velocity": 102,
      "chip": "ym2612"
    },
    {
      "channel": 2,
      "note": 72,
      "start": 6.6349,
      "duration": 0.0178,
      "velocity": 102,
      "chip": "ym2612"
    },
    {
      "channel": 0,
      "note": 59,
      "start": 6.6517,
      "duration": 0.1165,
      "velocity": 94,
      "chip": "ym2612"
    },
    {
      "channel": 1,
      "note": 74,
      "start": 6.6523,
      "duration": 0.0155,
      "velocity": 102,
      "chip": "ym2612"
    },
    {
      "channel": 2,
      "note": 72,
      "start": 6.6526,
      "duration": 0.0156,
      "velocity": 102,
      "chip": "ym2612"
    },
    {
      "channel": 1,
      "note": 74,
      "start": 6.6679,
      "duration": 0.0167,
      "velocity": 102,
      "chip": "ym2612"
    },
    {
      "channel": 2,
      "note": 72,
      "start": 6.6682,
      "duration": 0.0167,
      "velocity": 102,
      "chip": "ym2612"
    },
    {
      "channel": 1,
      "note": 74,
      "start": 6.6845,
      "duration": 0.0333,
      "velocity": 102,
      "chip": "ym2612"
    },
    {
      "channel": 2,
      "note": 72,
      "start": 6.6849,
      "duration": 0.0333,
      "velocity": 102,
      "chip": "ym2612"
    },
    {
      "channel": 1,
      "note": 74,
      "start": 6.7179,
      "duration": 0.0167,
      "velocity": 102,
      "chip": "ym2612"
    },
    {
      "channel": 2,
      "note": 73,
      "start": 6.7182,
      "duration": 0.0167,
      "velocity": 102,
      "chip": "ym2612"
    },
    {
      "channel": 1,
      "note": 75,
      "start": 6.7345,
      "duration": 0.0167,
      "velocity": 102,
      "chip": "ym2612"
    },
    {
      "channel": 2,
      "note": 73,
      "start": 6.7349,
      "duration": 0.0167,
      "velocity": 102,
      "chip": "ym2612"
    },
    {
      "channel": 1,
      "note": 75,
      "start": 6.7512,
      "duration": 0.0181,
      "velocity": 102,
      "chip": "ym2612"
    },
    {
      "channel": 2,
      "note": 73,
      "start": 6.7515,
      "duration": 0.0181,
      "velocity": 102,
      "chip": "ym2612"
    },
    {
      "channel": 0,
      "note": 49,
      "start": 6.7684,
      "duration": 0.1062,
      "velocity": 94,
      "chip": "ym2612"
    },
    {
      "channel": 1,
      "note": 75,
      "start": 6.7693,
      "duration": 0.0125,
      "velocity": 102,
      "chip": "ym2612"
    },
    {
      "channel": 2,
      "note": 73,
      "start": 6.7697,
      "duration": 0.0124,
      "velocity": 102,
      "chip": "ym2612"
    },
    {
      "channel": 1,
      "note": 75,
      "start": 6.7819,
      "duration": 0.0271,
      "velocity": 102,
      "chip": "ym2612"
    },
    {
      "channel": 2,
      "note": 73,
      "start": 6.7821,
      "duration": 0.0271,
      "velocity": 102,
      "chip": "ym2612"
    },
    {
      "channel": 1,
      "note": 75,
      "start": 6.809,
      "duration": 0.0153,
      "velocity": 102,
      "chip": "ym2612"
    },
    {
      "channel": 2,
      "note": 73,
      "start": 6.8092,
      "duration": 0.0153,
      "velocity": 102,
      "chip": "ym2612"
    },
    {
      "channel": 1,
      "note": 75,
      "start": 6.8243,
      "duration": 0.0167,
      "velocity": 102,
      "chip": "ym2612"
    },
    {
      "channel": 2,
      "note": 74,
      "start": 6.8245,
      "duration": 0.0167,
      "velocity": 102,
      "chip": "ym2612"
    },
    {
      "channel": 1,
      "note": 76,
      "start": 6.841,
      "duration": 0.0167,
      "velocity": 102,
      "chip": "ym2612"
    },
    {
      "channel": 2,
      "note": 74,
      "start": 6.8413,
      "duration": 0.0167,
      "velocity": 102,
      "chip": "ym2612"
    },
    {
      "channel": 1,
      "note": 76,
      "start": 6.8576,
      "duration": 0.0181,
      "velocity": 102,
      "chip": "ym2612"
    },
    {
      "channel": 2,
      "note": 74,
      "start": 6.8579,
      "duration": 0.0181,
      "velocity": 102,
      "chip": "ym2612"
    },
    {
      "channel": 0,
      "note": 61,
      "start": 6.8748,
      "duration": 0.129,
      "velocity": 94,
      "chip": "ym2612"
    },
    {
      "channel": 1,
      "note": 76,
      "start": 6.8757,
      "duration": 0.0301,
      "velocity": 102,
      "chip": "ym2612"
    },
    {
      "channel": 2,
      "note": 74,
      "start": 6.8761,
      "duration": 0.03,
      "velocity": 102,
      "chip": "ym2612"
    },
    {
      "channel": 1,
      "note": 76,
      "start": 6.9058,
      "duration": 0.0156,
      "velocity": 102,
      "chip": "ym2612"
    },
    {
      "channel": 2,
      "note": 74,
      "start": 6.9061,
      "duration": 0.0156,
      "velocity": 102,
      "chip": "ym2612"
    },
    {
      "channel": 1,
      "note": 76,
      "start": 6.9215,
      "duration": 0.0153,
      "velocity": 102,
      "chip": "ym2612"
    },
    {
      "channel": 2,
      "note": 74,
      "start": 6.9217,
      "duration": 0.0153,
      "velocity": 102,
      "chip": "ym2612"
    },
    {
      "channel": 1,
      "note": 76,
      "start": 6.9368,
      "duration": 0.0167,
      "velocity": 102,
      "chip": "ym2612"
    },
    {
      "channel": 2,
      "note": 74,
      "start": 6.937,
      "duration": 0.0167,
      "velocity": 102,
      "chip": "ym2612"
    },
    {
      "channel": 1,
      "note": 76,
      "start": 6.9534,
      "duration": 0.0167,
      "velocity": 102,
      "chip": "ym2612"
    },
    {
      "channel": 2,
      "note": 75,
      "start": 6.9537,
      "duration": 0.0167,
      "velocity": 102,
      "chip": "ym2612"
    },
    {
      "channel": 1,
      "note": 77,
      "start": 6.9701,
      "duration": 0.0348,
      "velocity": 102,
      "chip": "ym2612"
    },
    {
      "channel": 2,
      "note": 75,
      "start": 6.9704,
      "duration": 0.0348,
      "velocity": 102,
      "chip": "ym2612"
    },
    {
      "channel": 0,
      "note": 47,
      "start": 7.0039,
      "duration": 0.1087,
      "velocity": 94,
      "chip": "ym2612"
    },
    {
      "channel": 1,
      "note": 77,
      "start": 7.0049,
      "duration": 0.0144,
      "velocity": 102,
      "chip": "ym2612"
    },
    {
      "channel": 2,
      "note": 75,
      "start": 7.0052,
      "duration": 0.0143,
      "velocity": 102,
      "chip": "ym2612"
    },
    {
      "channel": 1,
      "note": 77,
      "start": 7.0193,
      "duration": 0.0136,
      "velocity": 102,
      "chip": "ym2612"
    },
    {
      "channel": 2,
      "note": 75,
      "start": 7.0195,
      "duration": 0.0137,
      "velocity": 102,
      "chip": "ym2612"
    },
    {
      "channel": 1,
      "note": 77,
      "start": 7.0329,
      "duration": 0.0139,
      "velocity": 102,
      "chip": "ym2612"
    },
    {
      "channel": 2,
      "note": 75,
      "start": 7.0332,
      "duration": 0.0139,
      "velocity": 102,
      "chip": "ym2612"
    },
    {
      "channel": 1,
      "note": 77,
      "start": 7.0468,
      "duration": 0.0155,
      "velocity": 102,
      "chip": "ym2612"
    },
    {
      "channel": 2,
      "note": 75,
      "start": 7.0471,
      "duration": 0.0155,
      "velocity": 102,
      "chip": "ym2612"
    },
    {
      "channel": 1,
      "note": 77,
      "start": 7.0623,
      "duration": 0.0333,
      "velocity": 102,
      "chip": "ym2612"
    },
    {
      "channel": 2,
      "note": 76,
      "start": 7.0626,
      "duration": 0.0333,
      "velocity": 102,
      "chip": "ym2612"
    },
    {
      "channel": 1,
      "note": 77,
      "start": 7.0956,
      "duration": 0.0181,
      "velocity": 102,
      "chip": "ym2612"
    },
    {
      "channel": 2,
      "note": 76,
      "start": 7.0959,
      "duration": 0.0181,
      "velocity": 102,
      "chip": "ym2612"
    },
    {
      "channel": 0,
      "note": 49,
      "start": 7.1128,
      "duration": 0.1113,
      "velocity": 94,
      "chip": "ym2612"
    },
    {
      "channel": 1,
      "note": 77,
      "start": 7.1137,
      "duration": 0.0144,
      "velocity": 102,
      "chip": "ym2612"
    },
    {
      "channel": 2,
      "note": 76,
      "start": 7.1141,
      "duration": 0.0143,
      "velocity": 102,
      "chip": "ym2612"
    },
    {
      "channel": 1,
      "note": 78,
      "start": 7.1281,
      "duration": 0.0136,
      "velocity": 102,
      "chip": "ym2612"
    },
    {
      "channel": 2,
      "note": 76,
      "start": 7.1284,
      "duration": 0.0137,
      "velocity": 102,
      "chip": "ym2612"
    },
    {
      "channel": 1,
      "note": 78,
      "start": 7.1417,
      "duration": 0.0157,
      "velocity": 102,
      "chip": "ym2612"
    },
    {
      "channel": 2,
      "note": 76,
      "start": 7.142,
      "duration": 0.0157,
      "velocity": 102,
      "chip": "ym2612"
    },
    {
      "channel": 1,
      "note": 78,
      "start": 7.1575,
      "duration": 0.033,
      "velocity": 102,
      "chip": "ym2612"
    },
    {
      "channel": 2,
      "note": 76,
      "start": 7.1578,
      "duration": 0.033,
      "velocity": 102,
      "chip": "ym2612"
    },
    {
      "channel": 1,
      "note": 78,
      "start": 7.1905,
      "duration": 0.0167,
      "velocity": 102,
      "chip": "ym2612"
    },
    {
      "channel": 2,
      "note": 76,
      "start": 7.1908,
      "duration": 0.0167,
      "velocity": 102,
      "chip": "ym2612"
    },
    {
      "channel": 1,
      "note": 78,
      "start": 7.2071,
      "duration": 0.0181,
      "velocity": 102,
      "chip": "ym2612"
    },
    {
      "channel": 2,
      "note": 77,
      "start": 7.2074,
      "duration": 0.0181,
      "velocity": 102,
      "chip": "ym2612"
    },
    {
      "channel": 0,
      "note": 61,
      "start": 7.2243,
      "duration": 0.1101,
      "velocity": 94,
      "chip": "ym2612"
    },
    {
      "channel": 1,
      "note": 78,
      "start": 7.2252,
      "duration": 0.0143,
      "velocity": 102,
      "chip": "ym2612"
    },
    {
      "channel": 2,
      "note": 77,
      "start": 7.2256,
      "duration": 0.0143,
      "velocity": 102,
      "chip": "ym2612"
    },
    {
      "channel": 1,
      "note": 78,
      "start": 7.2396,
      "duration": 0.0157,
      "velocity": 102,
      "chip": "ym2612"
    },
    {
      "channel": 2,
      "note": 77,
      "start": 7.2399,
      "duration": 0.0157,
      "velocity": 102,
      "chip": "ym2612"
    },
    {
      "channel": 1,
      "note": 78,
      "start": 7.2553,
      "duration": 0.0315,
      "velocity": 102,
      "chip": "ym2612"
    },
    {
      "channel": 2,
      "note": 77,
      "start": 7.2556,
      "duration": 0.0315,
      "velocity": 102,
      "chip": "ym2612"
    },
    {
      "channel": 1,
      "note": 79,
      "start": 7.2868,
      "duration": 0.0157,
      "velocity": 102,
      "chip": "ym2612"
    },
    {
      "channel": 2,
      "note": 77,
      "start": 7.2871,
      "duration": 0.0157,
      "velocity": 102,
      "chip": "ym2612"
    },
    {
      "channel": 1,
      "note": 79,
      "start": 7.3025,
      "duration": 0.0159,
      "velocity": 102,
      "chip": "ym2612"
    },
    {
      "channel": 2,
      "note": 77,
      "start": 7.3029,
      "duration": 0.0159,
      "velocity": 102,
      "chip": "ym2612"
    },
    {
      "channel": 1,
      "note": 79,
      "start": 7.3184,
      "duration": 0.0171,
      "velocity": 102,
      "chip": "ym2612"
    },
    {
      "channel": 2,
      "note": 77,
      "start": 7.3187,
      "duration": 0.0171,
      "velocity": 102,
      "chip": "ym2612"
    },
    {
      "channel": 0,
      "note": 47,
      "start": 7.3346,
      "duration": 0.1058,
      "velocity": 94,
      "chip": "ym2612"
    },
    {
      "channel": 1,
      "note": 79,
      "start": 7.3355,
      "duration": 0.0143,
      "velocity": 102,
      "chip": "ym2612"
    },
    {
      "channel": 2,
      "note": 77,
      "start": 7.3359,
      "duration": 0.0143,
      "velocity": 102,
      "chip": "ym2612"
    },
    {
      "channel": 1,
      "note": 79,
      "start": 7.3499,
      "duration": 0.0314,
      "velocity": 102,
      "chip": "ym2612"
    },
    {
      "channel": 2,
      "note": 78,
      "start": 7.3502,
      "duration": 0.0314,
      "velocity": 102,
      "chip": "ym2612"
    },
    {
      "channel": 1,
      "note": 79,
      "start": 7.3813,
      "duration": 0.0136,
      "velocity": 102,
      "chip": "ym2612"
    },
    {
      "channel": 2,
      "note": 78,
      "start": 7.3815,
      "duration": 0.0136,
      "velocity": 102,
      "chip": "ym2612"
    },
    {
      "channel": 1,
      "note": 79,
      "start": 7.3949,
      "duration": 0.0136,
      "velocity": 102,
      "chip": "ym2612"
    },
    {
      "channel": 2,
      "note": 78,
      "start": 7.3951,
      "duration": 0.0137,
      "velocity": 102,
      "chip": "ym2612"
    },
    {
      "channel": 1,
      "note": 79,
      "start": 7.4085,
      "duration": 0.0157,
      "velocity": 102,
      "chip": "ym2612"
    },
    {
      "channel": 2,
      "note": 78,
      "start": 7.4088,
      "duration": 0.0157,
      "velocity": 102,
      "chip": "ym2612"
    },
    {
      "channel": 1,
      "note": 80,
      "start": 7.4242,
      "duration": 0.0173,
      "velocity": 102,
      "chip": "ym2612"
    },
    {
      "channel": 2,
      "note": 78,
      "start": 7.4246,
      "duration": 0.0173,
      "velocity": 102,
      "chip": "ym2612"
    },
    {
      "channel": 0,
      "note": 62,
      "start": 7.4405,
      "duration": 0.1192,
      "velocity": 94,
      "chip": "ym2612"
    },
    {
      "channel": 1,
      "note": 80,
      "start": 7.4415,
      "duration": 0.0302,
      "velocity": 102,
      "chip": "ym2612"
    },
    {
      "channel": 2,
      "note": 78,
      "start": 7.4418,
      "duration": 0.0302,
      "velocity": 102,
      "chip": "ym2612"
    },
    {
      "channel": 1,
      "note": 80,
      "start": 7.4717,
      "duration": 0.0158,
      "velocity": 102,
      "chip": "ym2612"
    },
    {
      "channel": 2,
      "note": 78,
      "start": 7.472,
      "duration": 0.0158,
      "velocity": 102,
      "chip": "ym2612"
    },
    {
      "channel": 1,
      "note": 80,
      "start": 7.4875,
      "duration": 0.0156,
      "velocity": 102,
      "chip": "ym2612"
    },
    {
      "channel": 2,
      "note": 78,
      "start": 7.4878,
      "duration": 0.0156,
      "velocity": 102,
      "chip": "ym2612"
    },
    {
      "channel": 1,
      "note": 80,
      "start": 7.5031,
      "duration": 0.0156,
      "velocity": 102,
      "chip": "ym2612"
    },
    {
      "channel": 2,
      "note": 79,
      "start": 7.5034,
      "duration": 0.0156,
      "velocity": 102,
      "chip": "ym2612"
    },
    {
      "channel": 1,
      "note": 80,
      "start": 7.5187,
      "duration": 0.0136,
      "velocity": 102,
      "chip": "ym2612"
    },
    {
      "channel": 2,
      "note": 79,
      "start": 7.519,
      "duration": 0.0136,
      "velocity": 102,
      "chip": "ym2612"
    },
    {
      "channel": 1,
      "note": 80,
      "start": 7.5323,
      "duration": 0.0286,
      "velocity": 102,
      "chip": "ym2612"
    },
    {
      "channel": 2,
      "note": 79,
      "start": 7.5326,
      "duration": 0.0286,
      "velocity": 102,
      "chip": "ym2612"
    },
    {
      "channel": 0,
      "note": 59,
      "start": 7.5599,
      "duration": 0.1084,
      "velocity": 94,
      "chip": "ym2612"
    },
    {
      "channel": 1,
      "note": 81,
      "start": 7.5609,
      "duration": 0.0144,
      "velocity": 102,
      "chip": "ym2612"
    },
    {
      "channel": 2,
      "note": 79,
      "start": 7.5612,
      "duration": 0.0143,
      "velocity": 102,
      "chip": "ym2612"
    },
    {
      "channel": 1,
      "note": 81,
      "start": 7.5752,
      "duration": 0.0136,
      "velocity": 102,
      "chip": "ym2612"
    },
    {
      "channel": 2,
      "note": 79,
      "start": 7.5755,
      "duration": 0.0137,
      "velocity": 102,
      "chip": "ym2612"
    },
    {
      "channel": 1,
      "note": 81,
      "start": 7.5888,
      "duration": 0.0157,
      "velocity": 102,
      "chip": "ym2612"
    },
    {
      "channel": 2,
      "note": 79,
      "start": 7.5892,
      "duration": 0.0157,
      "velocity": 102,
      "chip": "ym2612"
    },
    {
      "channel": 1,
      "note": 81,
      "start": 7.6046,
      "duration": 0.0159,
      "velocity": 102,
      "chip": "ym2612"
    },
    {
      "channel": 2,
      "note": 79,
      "start": 7.6049,
      "duration": 0.0159,
      "velocity": 102,
      "chip": "ym2612"
    },
    {
      "channel": 1,
      "note": 81,
      "start": 7.6205,
      "duration": 0.0315,
      "velocity": 102,
      "chip": "ym2612"
    },
    {
      "channel": 2,
      "note": 79,
      "start": 7.6208,
      "duration": 0.0315,
      "velocity": 102,
      "chip": "ym2612"
    },
    {
      "channel": 1,
      "note": 82,
      "start": 7.6519,
      "duration": 0.0171,
      "velocity": 102,
      "chip": "ym2612"
    },
    {
      "channel": 2,
      "note": 80,
      "start": 7.6522,
      "duration": 0.0174,
      "velocity": 102,
      "chip": "ym2612"
    },
    {
      "channel": 0,
      "note": 46,
      "start": 7.6685,
      "duration": 0.1101,
      "velocity": 94,
      "chip": "ym2612"
    },
    {
      "channel": 1,
      "note": 70,
      "start": 7.6692,
      "duration": 0.3238,
      "velocity": 102,
      "chip": "ym2612"
    },
    {
      "channel": 2,
      "note": 34,
      "start": 7.6698,
      "duration": 0.2195,
      "velocity": 102,
      "chip": "ym2612"
    },
    {
      "channel": 3,
      "note": 46,
      "start": 7.6704,
      "duration": 3.4749,
      "velocity": 127,
      "chip": "ym2612"
    },
    {
      "channel": 0,
      "note": 58,
      "start": 7.7788,
      "duration": 0.1097,
      "velocity": 94,
      "chip": "ym2612"
    },
    {
      "channel": 0,
      "note": 44,
      "start": 7.8888,
      "duration": 0.1037,
      "velocity": 94,
      "chip": "ym2612"
    },
    {
      "channel": 2,
      "note": 70,
      "start": 7.8893,
      "duration": 0.3286,
      "velocity": 102,
      "chip": "ym2612"
    },
    {
      "channel": 0,
      "note": 46,
      "start": 7.9926,
      "duration": 0.1152,
      "velocity": 94,
      "chip": "ym2612"
    },
    {
      "channel": 1,
      "note": 71,
      "start": 7.9932,
      "duration": 0.2242,
      "velocity": 102,
      "chip": "ym2612"
    },
    {
      "channel": 0,
      "note": 58,
      "start": 8.108,
      "duration": 0.1088,
      "velocity": 94,
      "chip": "ym2612"
    },
    {
      "channel": 0,
      "note": 44,
      "start": 8.217,
      "duration": 0.1091,
      "velocity": 94,
      "chip": "ym2612"
    },
    {
      "channel": 1,
      "note": 68,
      "start": 8.2176,
      "duration": 0.1091,
      "velocity": 102,
      "chip": "ym2612"
    },
    {
      "channel": 2,
      "note": 71,
      "start": 8.2182,
      "duration": 0.2063,
      "velocity": 102,
      "chip": "ym2612"
    },
    {
      "channel": 0,
      "note": 59,
      "start": 8.3263,
      "duration": 0.0976,
      "velocity": 94,
      "chip": "ym2612"
    },
    {
      "channel": 1,
      "note": 65,
      "start": 8.3269,
      "duration": 0.2014,
      "velocity": 102,
      "chip": "ym2612"
    },
    {
      "channel": 0,
      "note": 56,
      "start": 8.424,
      "duration": 0.1037,
      "velocity": 94,
      "chip": "ym2612"
    },
    {
      "channel": 2,
      "note": 68,
      "start": 8.4246,
      "duration": 0.1042,
      "velocity": 102,
      "chip": "ym2612"
    },
    {
      "channel": 0,
      "note": 46,
      "start": 8.5279,
      "duration": 0.1278,
      "velocity": 94,
      "chip": "ym2612"
    },
    {
      "channel": 1,
      "note": 58,
      "start": 8.5285,
      "duration": 0.3368,
      "velocity": 102,
      "chip": "ym2612"
    },
    {
      "channel": 2,
      "note": 65,
      "start": 8.529,
      "duration": 0.2363,
      "velocity": 102,
      "chip": "ym2612"
    },
    {
      "channel": 0,
      "note": 58,
      "start": 8.6559,
      "duration": 0.1088,
      "velocity": 94,
      "chip": "ym2612"
    },
    {
      "channel": 0,
      "note": 44,
      "start": 8.7649,
      "duration": 0.0998,
      "velocity": 94,
      "chip": "ym2612"
    },
    {
      "channel": 2,
      "note": 58,
      "start": 8.7655,
      "duration": 0.3115,
      "velocity": 102,
      "chip": "ym2612"
    },
    {
      "channel": 0,
      "note": 46,
      "start": 8.8648,
      "duration": 0.1018,
      "velocity": 94,
      "chip": "ym2612"
    },
    {
      "channel": 1,
      "note": 59,
      "start": 8.8654,
      "duration": 0.2111,
      "velocity": 102,
      "chip": "ym2612"
    },
    {
      "channel": 0,
      "note": 58,
      "start": 8.9667,
      "duration": 0.1092,
      "velocity": 94,
      "chip": "ym2612"
    },
    {
      "channel": 0,
      "note": 44,
      "start": 9.0761,
      "duration": 0.1241,
      "velocity": 94,
      "chip": "ym2612"
    },
    {
      "channel": 1,
      "note": 56,
      "start": 9.0767,
      "duration": 0.1241,
      "velocity": 102,
      "chip": "ym2612"
    },
    {
      "channel": 2,
      "note": 59,
      "start": 9.0773,
      "duration": 0.2232,
      "velocity": 102,
      "chip": "ym2612"
    },
    {
      "channel": 0,
      "note": 59,
      "start": 9.2004,
      "duration": 0.0994,
      "velocity": 94,
      "chip": "ym2612"
    },
    {
      "channel": 1,
      "note": 53,
      "start": 9.2009,
      "duration": 0.2014,
      "velocity": 102,
      "chip": "ym2612"
    },
    {
      "channel": 0,
      "note": 56,
      "start": 9.3,
      "duration": 0.1018,
      "velocity": 94,
      "chip": "ym2612"
    },
    {
      "channel": 2,
      "note": 56,
      "start": 9.3006,
      "duration": 0.1023,
      "velocity": 102,
      "chip": "ym2612"
    },
    {
      "channel": 0,
      "note": 46,
      "start": 9.402,
      "duration": 0.1084,
      "velocity": 94,
      "chip": "ym2612"
    },
    {
      "channel": 1,
      "note": 46,
      "start": 9.4025,
      "duration": 0.3391,
      "velocity": 102,
      "chip": "ym2612"
    },
    {
      "channel": 2,
      "note": 53,
      "start": 9.403,
      "duration": 0.2211,
      "velocity": 102,
      "chip": "ym2612"
    },
    {
      "channel": 0,
      "note": 58,
      "start": 9.5105,
      "duration": 0.1129,
      "velocity": 94,
      "chip": "ym2612"
    },
    {
      "channel": 0,
      "note": 44,
      "start": 9.6237,
      "duration": 0.1174,
      "velocity": 94,
      "chip": "ym2612"
    },
    {
      "channel": 2,
      "note": 46,
      "start": 9.6242,
      "duration": 0.3314,
      "velocity": 102,
      "chip": "ym2612"
    },
    {
      "channel": 0,
      "note": 46,
      "start": 9.7413,
      "duration": 0.104,
      "velocity": 94,
      "chip": "ym2612"
    },
    {
      "channel": 1,
      "note": 47,
      "start": 9.7418,
      "duration": 0.2132,
      "velocity": 102,
      "chip": "ym2612"
    },
    {
      "channel": 0,
      "note": 58,
      "start": 9.8454,
      "duration": 0.1091,
      "velocity": 94,
      "chip": "ym2612"
    },
    {
      "channel": 0,
      "note": 44,
      "start": 9.9547,
      "duration": 0.1116,
      "velocity": 94,
      "chip": "ym2612"
    },
    {
      "channel": 1,
      "note": 44,
      "start": 9.9552,
      "duration": 0.1116,
      "velocity": 102,
      "chip": "ym2612"
    },
    {
      "channel": 2,
      "note": 47,
      "start": 9.9558,
      "duration": 0.2089,
      "velocity": 102,
      "chip": "ym2612"
    },
    {
      "channel": 0,
      "note": 59,
      "start": 10.0665,
      "duration": 0.0977,
      "velocity": 94,
      "chip": "ym2612"
    },
    {
      "channel": 1,
      "note": 41,
      "start": 10.067,
      "duration": 0.2131,
      "velocity": 102,
      "chip": "ym2612"
    },
    {
      "channel": 0,
      "note": 56,
      "start": 10.1642,
      "duration": 0.1153,
      "velocity": 94,
      "chip": "ym2612"
    },
    {
      "channel": 2,
      "note": 44,
      "start": 10.1649,
      "duration": 0.1158,
      "velocity": 102,
      "chip": "ym2612"
    },
    {
      "channel": 0,
      "note": 46,
      "start": 10.2797,
      "duration": 0.1089,
      "velocity": 94,
      "chip": "ym2612"
    },
    {
      "channel": 1,
      "note": 34,
      "start": 10.2803,
      "duration": 0.3215,
      "velocity": 102,
      "chip": "ym2612"
    },
    {
      "channel": 2,
      "note": 41,
      "start": 10.2809,
      "duration": 0.2173,
      "velocity": 102,
      "chip": "ym2612"
    },
    {
      "channel": 0,
      "note": 58,
      "start": 10.3888,
      "duration": 0.1088,
      "velocity": 94,
      "chip": "ym2612"
    },
    {
      "channel": 0,
      "note": 44,
      "start": 10.4977,
      "duration": 0.1035,
      "velocity": 94,
      "chip": "ym2612"
    },
    {
      "channel": 2,
      "note": 34,
      "start": 10.4983,
      "duration": 0.3335,
      "velocity": 102,
      "chip": "ym2612"
    },
    {
      "channel": 0,
      "note": 46,
      "start": 10.6014,
      "duration": 0.1017,
      "velocity": 94,
      "chip": "ym2612"
    },
    {
      "channel": 1,
      "note": 35,
      "start": 10.602,
      "duration": 0.2293,
      "velocity": 102,
      "chip": "ym2612"
    },
    {
      "channel": 0,
      "note": 58,
      "start": 10.7032,
      "duration": 0.1275,
      "velocity": 94,
      "chip": "ym2612"
    },
    {
      "channel": 0,
      "note": 44,
      "start": 10.8309,
      "duration": 0.1091,
      "velocity": 94,
      "chip": "ym2612"
    },
    {
      "channel": 1,
      "note": 32,
      "start": 10.8315,
      "duration": 0.1091,
      "velocity": 102,
      "chip": "ym2612"
    },
    {
      "channel": 2,
      "note": 35,
      "start": 10.832,
      "duration": 0.2083,
      "velocity": 102,
      "chip": "ym2612"
    },
    {
      "channel": 0,
      "note": 59,
      "start": 10.9402,
      "duration": 0.0995,
      "velocity": 94,
      "chip": "ym2612"
    },
    {
      "channel": 1,
      "note": 29,
      "start": 10.9407,
      "duration": 0.2033,
      "velocity": 102,
      "chip": "ym2612"
    },
    {
      "channel": 0,
      "note": 56,
      "start": 11.0399,
      "duration": 0.1037,
      "velocity": 94,
      "chip": "ym2612"
    },
    {
      "channel": 2,
      "note": 32,
      "start": 11.0405,
      "duration": 0.1041,
      "velocity": 102,
      "chip": "ym2612"
    },
    {
      "channel": 0,
      "note": 49,
      "start": 11.1437,
      "duration": 0.1069,
      "velocity": 94,
      "chip": "ym2612"
    },
    {
      "channel": 1,
      "note": 75,
      "start": 11.1443,
      "duration": 0.3364,
      "velocity": 102,
      "chip": "ym2612"
    },
    {
      "channel": 2,
      "note": 29,
      "start": 11.1449,
      "duration": 0.2342,
      "velocity": 102,
      "chip": "ym2612"
    },
    {
      "channel": 3,
      "note": 49,
      "start": 11.1454,
      "duration": 3.4984,
      "velocity": 127,
      "chip": "ym2612"
    },
    {
      "channel": 0,
      "note": 61,
      "start": 11.2507,
      "duration": 0.1278,
      "velocity": 94,
      "chip": "ym2612"
    },
    {
      "channel": 0,
      "note": 49,
      "start": 11.3786,
      "duration": 0.1015,
      "velocity": 94,
      "chip": "ym2612"
    },
    {
      "channel": 2,
      "note": 75,
      "start": 11.3793,
      "duration": 0.3176,
      "velocity": 102,
      "chip": "ym2612"
    },
    {
      "channel": 0,
      "note": 59,
      "start": 11.4803,
      "duration": 0.1057,
      "velocity": 94,
      "chip": "ym2612"
    },
    {
      "channel": 1,
      "note": 76,
      "start": 11.4808,
      "duration": 0.2154,
      "velocity": 102,
      "chip": "ym2612"
    },
    {
      "channel": 0,
      "note": 61,
      "start": 11.5862,
      "duration": 0.1095,
      "velocity": 94,
      "chip": "ym2612"
    },
    {
      "channel": 0,
      "note": 47,
      "start": 11.6959,
      "duration": 0.1086,
      "velocity": 94,
      "chip": "ym2612"
    },
    {
      "channel": 1,
      "note": 73,
      "start": 11.6965,
      "duration": 0.1086,
      "velocity": 102,
      "chip": "ym2612"
    },
    {
      "channel": 2,
      "note": 76,
      "start": 11.6971,
      "duration": 0.2211,
      "velocity": 102,
      "chip": "ym2612"
    },
    {
      "channel": 0,
      "note": 62,
      "start": 11.8047,
      "duration": 0.1128,
      "velocity": 94,
      "chip": "ym2612"
    },
    {
      "channel": 1,
      "note": 70,
      "start": 11.8053,
      "duration": 0.2129,
      "velocity": 102,
      "chip": "ym2612"
    },
    {
      "channel": 0,
      "note": 59,
      "start": 11.9177,
      "duration": 0.0999,
      "velocity": 94,
      "chip": "ym2612"
    },
    {
      "channel": 2,
      "note": 73,
      "start": 11.9183,
      "duration": 0.1004,
      "velocity": 102,
      "chip": "ym2612"
    },
    {
      "channel": 0,
      "note": 49,
      "start": 12.0178,
      "duration": 0.111,
      "velocity": 94,
      "chip": "ym2612"
    },
    {
      "channel": 1,
      "note": 63,
      "start": 12.0183,
      "duration": 0.3263,
      "velocity": 102,
      "chip": "ym2612"
    },
    {
      "channel": 2,
      "note": 70,
      "start": 12.0189,
      "duration": 0.2219,
      "velocity": 102,
      "chip": "ym2612"
    },
    {
      "channel": 0,
      "note": 61,
      "start": 12.129,
      "duration": 0.1112,
      "velocity": 94,
      "chip": "ym2612"
    },
    {
      "channel": 0,
      "note": 47,
      "start": 12.2403,
      "duration": 0.1037,
      "velocity": 94,
      "chip": "ym2612"
    },
    {
      "channel": 2,
      "note": 63,
      "start": 12.241,
      "duration": 0.3284,
      "velocity": 102,
      "chip": "ym2612"
    },
    {
      "channel": 0,
      "note": 49,
      "start": 12.3442,
      "duration": 0.1131,
      "velocity": 94,
      "chip": "ym2612"
    },
    {
      "channel": 1,
      "note": 64,
      "start": 12.3448,
      "duration": 0.224,
      "velocity": 102,
      "chip": "ym2612"
    },
    {
      "channel": 0,
      "note": 61,
      "start": 12.4575,
      "duration": 0.1107,
      "velocity": 94,
      "chip": "ym2612"
    },
    {
      "channel": 0,
      "note": 47,
      "start": 12.5684,
      "duration": 0.1091,
      "velocity": 94,
      "chip": "ym2612"
    },
    {
      "channel": 1,
      "note": 61,
      "start": 12.5689,
      "duration": 0.1091,
      "velocity": 102,
      "chip": "ym2612"
    },
    {
      "channel": 2,
      "note": 64,
      "start": 12.5695,
      "duration": 0.2106,
      "velocity": 102,
      "chip": "ym2612"
    },
    {
      "channel": 0,
      "note": 62,
      "start": 12.6777,
      "duration": 0.1019,
      "velocity": 94,
      "chip": "ym2612"
    },
    {
      "channel": 1,
      "note": 58,
      "start": 12.6782,
      "duration": 0.2057,
      "velocity": 102,
      "chip": "ym2612"
    },
    {
      "channel": 0,
      "note": 59,
      "start": 12.7797,
      "duration": 0.1037,
      "velocity": 94,
      "chip": "ym2612"
    },
    {
      "channel": 2,
      "note": 61,
      "start": 12.7803,
      "duration": 0.1042,
      "velocity": 102,
      "chip": "ym2612"
    },
    {
      "channel": 0,
      "note": 49,
      "start": 12.8835,
      "duration": 0.1278,
      "velocity": 94,
      "chip": "ym2612"
    },
    {
      "channel": 1,
      "note": 51,
      "start": 12.8841,
      "duration": 0.341,
      "velocity": 102,
      "chip": "ym2612"
    },
    {
      "channel": 2,
      "note": 58,
      "start": 12.8847,
      "duration": 0.2388,
      "velocity": 102,
      "chip": "ym2612"
    },
    {
      "channel": 0,
      "note": 61,
      "start": 13.0116,
      "duration": 0.1113,
      "velocity": 94,
      "chip": "ym2612"
    },
    {
      "channel": 0,
      "note": 47,
      "start": 13.123,
      "duration": 0.1016,
      "velocity": 94,
      "chip": "ym2612"
    },
    {
      "channel": 2,
      "note": 51,
      "start": 13.1236,
      "duration": 0.3171,
      "velocity": 102,
      "chip": "ym2612"
    },
    {
      "channel": 0,
      "note": 49,
      "start": 13.2247,
      "duration": 0.1017,
      "velocity": 94,
      "chip": "ym2612"
    },
    {
      "channel": 1,
      "note": 52,
      "start": 13.2253,
      "duration": 0.2148,
      "velocity": 102,
      "chip": "ym2612"
    },
    {
      "channel": 0,
      "note": 61,
      "start": 13.3266,
      "duration": 0.1129,
      "velocity": 94,
      "chip": "ym2612"
    },
    {
      "channel": 0,
      "note": 47,
      "start": 13.4397,
      "duration": 0.1278,
      "velocity": 94,
      "chip": "ym2612"
    },
    {
      "channel": 1,
      "note": 49,
      "start": 13.4402,
      "duration": 0.1278,
      "velocity": 102,
      "chip": "ym2612"
    },
    {
      "channel": 2,
      "note": 52,
      "start": 13.4408,
      "duration": 0.227,
      "velocity": 102,
      "chip": "ym2612"
    },
    {
      "channel": 0,
      "note": 62,
      "start": 13.5677,
      "duration": 0.0995,
      "velocity": 94,
      "chip": "ym2612"
    },
    {
      "channel": 1,
      "note": 46,
      "start": 13.5683,
      "duration": 0.1993,
      "velocity": 102,
      "chip": "ym2612"
    },
    {
      "channel": 0,
      "note": 59,
      "start": 13.6673,
      "duration": 0.0997,
      "velocity": 94,
      "chip": "ym2612"
    },
    {
      "channel": 2,
      "note": 49,
      "start": 13.668,
      "duration": 0.1002,
      "velocity": 102,
      "chip": "ym2612"
    },
    {
      "channel": 0,
      "note": 49,
      "start": 13.7672,
      "duration": 0.1084,
      "velocity": 94,
      "chip": "ym2612"
    },
    {
      "channel": 1,
      "note": 39,
      "start": 13.7678,
      "duration": 0.3449,
      "velocity": 102,
      "chip": "ym2612"
    },
    {
      "channel": 2,
      "note": 46,
      "start": 13.7683,
      "duration": 0.2168,
      "velocity": 102,
      "chip": "ym2612"
    },
    {
      "channel": 0,
      "note": 61,
      "start": 13.8758,
      "duration": 0.1087,
      "velocity": 94,
      "chip": "ym2612"
    },
    {
      "channel": 0,
      "note": 47,
      "start": 13.9847,
      "duration": 0.1275,
      "velocity": 94,
      "chip": "ym2612"
    },
    {
      "channel": 2,
      "note": 39,
      "start": 13.9853,
      "duration": 0.3386,
      "velocity": 102,
      "chip": "ym2612"
    },
    {
      "channel": 0,
      "note": 49,
      "start": 14.1124,
      "duration": 0.1086,
      "velocity": 94,
      "chip": "ym2612"
    },
    {
      "channel": 1,
      "note": 40,
      "start": 14.1129,
      "duration": 0.2104,
      "velocity": 102,
      "chip": "ym2612"
    },
    {
      "channel": 0,
      "note": 61,
      "start": 14.2212,
      "duration": 0.1016,
      "velocity": 94,
      "chip": "ym2612"
    },
    {
      "channel": 0,
      "note": 47,
      "start": 14.3229,
      "duration": 0.0994,
      "velocity": 94,
      "chip": "ym2612"
    },
    {
      "channel": 1,
      "note": 37,
      "start": 14.3235,
      "duration": 0.0993,
      "velocity": 102,
      "chip": "ym2612"
    },
    {
      "channel": 2,
      "note": 40,
      "start": 14.324,
      "duration": 0.203,
      "velocity": 102,
      "chip": "ym2612"
    },
    {
      "channel": 0,
      "note": 62,
      "start": 14.4224,
      "duration": 0.1039,
      "velocity": 94,
      "chip": "ym2612"
    },
    {
      "channel": 1,
      "note": 34,
      "start": 14.423,
      "duration": 0.2196,
      "velocity": 102,
      "chip": "ym2612"
    },
    {
      "channel": 0,
      "note": 59,
      "start": 14.5266,
      "duration": 0.1154,
      "velocity": 94,
      "chip": "ym2612"
    },
    {
      "channel": 2,
      "note": 37,
      "start": 14.5271,
      "duration": 0.1161,
      "velocity": 102,
      "chip": "ym2612"
    },
    {
      "channel": 0,
      "note": 46,
      "start": 14.6421,
      "duration": 0.1101,
      "velocity": 94,
      "chip": "ym2612"
    },
    {
      "channel": 1,
      "note": 70,
      "start": 14.6427,
      "duration": 0.3184,
      "velocity": 102,
      "chip": "ym2612"
    },
    {
      "channel": 2,
      "note": 34,
      "start": 14.6433,
      "duration": 0.2183,
      "velocity": 102,
      "chip": "ym2612"
    },
    {
      "channel": 3,
      "note": 46,
      "start": 14.644,
      "duration": 3.4843,
      "velocity": 127,
      "chip": "ym2612"
    },
    {
      "channel": 0,
      "note": 58,
      "start": 14.7524,
      "duration": 0.1086,
      "velocity": 94,
      "chip": "ym2612"
    },
    {
      "channel": 0,
      "note": 44,
      "start": 14.8612,
      "duration": 0.0994,
      "velocity": 94,
      "chip": "ym2612"
    },
    {
      "channel": 2,
      "note": 70,
      "start": 14.8618,
      "duration": 0.3314,
      "velocity": 102,
      "chip": "ym2612"
    },
    {
      "channel": 0,
      "note": 46,
      "start": 14.9607,
      "duration": 0.1037,
      "velocity": 94,
      "chip": "ym2612"
    },
    {
      "channel": 1,
      "note": 71,
      "start": 14.9613,
      "duration": 0.2314,
      "velocity": 102,
      "chip": "ym2612"
    },
    {
      "channel": 0,
      "note": 58,
      "start": 15.0646,
      "duration": 0.1275,
      "velocity": 94,
      "chip": "ym2612"
    },
    {
      "channel": 0,
      "note": 44,
      "start": 15.1923,
      "duration": 0.1091,
      "velocity": 94,
      "chip": "ym2612"
    },
    {
      "channel": 1,
      "note": 68,
      "start": 15.1929,
      "duration": 0.1091,
      "velocity": 102,
      "chip": "ym2612"
    },
    {
      "channel": 2,
      "note": 71,
      "start": 15.1934,
      "duration": 0.2126,
      "velocity": 102,
      "chip": "ym2612"
    },
    {
      "channel": 0,
      "note": 59,
      "start": 15.3016,
      "duration": 0.1039,
      "velocity": 94,
      "chip": "ym2612"
    },
    {
      "channel": 1,
      "note": 65,
      "start": 15.3022,
      "duration": 0.2057,
      "velocity": 102,
      "chip": "ym2612"
    },
    {
      "channel": 0,
      "note": 56,
      "start": 15.4056,
      "duration": 0.1017,
      "velocity": 94,
      "chip": "ym2612"
    },
    {
      "channel": 2,
      "note": 68,
      "start": 15.4062,
      "duration": 0.1022,
      "velocity": 102,
      "chip": "ym2612"
    },
    {
      "channel": 0,
      "note": 46,
      "start": 15.5075,
      "duration": 0.1092,
      "velocity": 94,
      "chip": "ym2612"
    },
    {
      "channel": 1,
      "note": 58,
      "start": 15.508,
      "duration": 0.3366,
      "velocity": 102,
      "chip": "ym2612"
    },
    {
      "channel": 2,
      "note": 65,
      "start": 15.5086,
      "duration": 0.2343,
      "velocity": 102,
      "chip": "ym2612"
    },
    {
      "channel": 0,
      "note": 58,
      "start": 15.6168,
      "duration": 0.1255,
      "velocity": 94,
      "chip": "ym2612"
    },
    {
      "channel": 0,
      "note": 44,
      "start": 15.7424,
      "duration": 0.1016,
      "velocity": 94,
      "chip": "ym2612"
    },
    {
      "channel": 2,
      "note": 58,
      "start": 15.7431,
      "duration": 0.3127,
      "velocity": 102,
      "chip": "ym2612"
    },
    {
      "channel": 0,
      "note": 46,
      "start": 15.8442,
      "duration": 0.0996,
      "velocity": 94,
      "chip": "ym2612"
    },
    {
      "channel": 1,
      "note": 59,
      "start": 15.8448,
      "duration": 0.2104,
      "velocity": 102,
      "chip": "ym2612"
    },
    {
      "channel": 0,
      "note": 58,
      "start": 15.9439,
      "duration": 0.1107,
      "velocity": 94,
      "chip": "ym2612"
    },
    {
      "channel": 0,
      "note": 44,
      "start": 16.0548,
      "duration": 0.1092,
      "velocity": 94,
      "chip": "ym2612"
    },
    {
      "channel": 1,
      "note": 56,
      "start": 16.0554,
      "duration": 0.1092,
      "velocity": 102,
      "chip": "ym2612"
    },
    {
      "channel": 2,
      "note": 59,
      "start": 16.056,
      "duration": 0.2285,
      "velocity": 102,
      "chip": "ym2612"
    },
    {
      "channel": 0,
      "note": 59,
      "start": 16.1642,
      "duration": 0.1196,
      "velocity": 94,
      "chip": "ym2612"
    },
    {
      "channel": 1,
      "note": 53,
      "start": 16.1648,
      "duration": 0.2215,
      "velocity": 102,
      "chip": "ym2612"
    },
    {
      "channel": 0,
      "note": 56,
      "start": 16.284,
      "duration": 0.1017,
      "velocity": 94,
      "chip": "ym2612"
    },
    {
      "channel": 2,
      "note": 56,
      "start": 16.2846,
      "duration": 0.1022,
      "velocity": 102,
      "chip": "ym2612"
    },
    {
      "channel": 0,
      "note": 46,
      "start": 16.3859,
      "duration": 0.1091,
      "velocity": 94,
      "chip": "ym2612"
    },
    {
      "channel": 1,
      "note": 46,
      "start": 16.3864,
      "duration": 0.3244,
      "velocity": 102,
      "chip": "ym2612"
    },
    {
      "channel": 2,
      "note": 53,
      "start": 16.387,
      "duration": 0.2201,
      "velocity": 102,
      "chip": "ym2612"
    },
    {
      "channel": 0,
      "note": 58,
      "start": 16.4951,
      "duration": 0.1113,
      "velocity": 94,
      "chip": "ym2612"
    },
    {
      "channel": 0,
      "note": 44,
      "start": 16.6066,
      "duration": 0.1036,
      "velocity": 94,
      "chip": "ym2612"
    },
    {
      "channel": 2,
      "note": 46,
      "start": 16.6072,
      "duration": 0.3282,
      "velocity": 102,
      "chip": "ym2612"
    },
    {
      "channel": 0,
      "note": 46,
      "start": 16.7105,
      "duration": 0.1132,
      "velocity": 94,
      "chip": "ym2612"
    },
    {
      "channel": 1,
      "note": 47,
      "start": 16.711,
      "duration": 0.2238,
      "velocity": 102,
      "chip": "ym2612"
    },
    {
      "channel": 0,
      "note": 58,
      "start": 16.8238,
      "duration": 0.1105,
      "velocity": 94,
      "chip": "ym2612"
    },
    {
      "channel": 0,
      "note": 44,
      "start": 16.9345,
      "duration": 0.1091,
      "velocity": 94,
      "chip": "ym2612"
    },
    {
      "channel": 1,
      "note": 44,
      "start": 16.935,
      "duration": 0.1091,
      "velocity": 102,
      "chip": "ym2612"
    },
    {
      "channel": 2,
      "note": 47,
      "start": 16.9356,
      "duration": 0.2063,
      "velocity": 102,
      "chip": "ym2612"
    },
    {
      "channel": 0,
      "note": 59,
      "start": 17.0438,
      "duration": 0.0976,
      "velocity": 94,
      "chip": "ym2612"
    },
    {
      "channel": 1,
      "note": 41,
      "start": 17.0443,
      "duration": 0.2014,
      "velocity": 102,
      "chip": "ym2612"
    },
    {
      "channel": 0,
      "note": 56,
      "start": 17.1415,
      "duration": 0.1037,
      "velocity": 94,
      "chip": "ym2612"
    },
    {
      "channel": 2,
      "note": 44,
      "start": 17.1421,
      "duration": 0.1042,
      "velocity": 102,
      "chip": "ym2612"
    },
    {
      "channel": 0,
      "note": 46,
      "start": 17.2453,
      "duration": 0.1293,
      "velocity": 94,
      "chip": "ym2612"
    },
    {
      "channel": 1,
      "note": 34,
      "start": 17.2459,
      "duration": 0.3382,
      "velocity": 102,
      "chip": "ym2612"
    },
    {
      "channel": 2,
      "note": 41,
      "start": 17.2465,
      "duration": 0.2378,
      "velocity": 102,
      "chip": "ym2612"
    },
    {
      "channel": 0,
      "note": 58,
      "start": 17.3748,
      "duration": 0.1089,
      "velocity": 94,
      "chip": "ym2612"
    },
    {
      "channel": 0,
      "note": 44,
      "start": 17.4838,
      "duration": 0.0997,
      "velocity": 94,
      "chip": "ym2612"
    },
    {
      "channel": 2,
      "note": 34,
      "start": 17.4845,
      "duration": 0.3114,
      "velocity": 102,
      "chip": "ym2612"
    },
    {
      "channel": 0,
      "note": 46,
      "start": 17.5837,
      "duration": 0.1017,
      "velocity": 94,
      "chip": "ym2612"
    },
    {
      "channel": 1,
      "note": 35,
      "start": 17.5843,
      "duration": 0.211,
      "velocity": 102,
      "chip": "ym2612"
    },
    {
      "channel": 0,
      "note": 58,
      "start": 17.6856,
      "duration": 0.1092,
      "velocity": 94,
      "chip": "ym2612"
    },
    {
      "channel": 0,
      "note": 44,
      "start": 17.7949,
      "duration": 0.1278,
      "velocity": 94,
      "chip": "ym2612"
    },
    {
      "channel": 1,
      "note": 32,
      "start": 17.7955,
      "duration": 0.1278,
      "velocity": 102,
      "chip": "ym2612"
    },
    {
      "channel": 2,
      "note": 35,
      "start": 17.7961,
      "duration": 0.2315,
      "velocity": 102,
      "chip": "ym2612"
    },
    {
      "channel": 0,
      "note": 59,
      "start": 17.923,
      "duration": 0.1039,
      "velocity": 94,
      "chip": "ym2612"
    },
    {
      "channel": 1,
      "note": 29,
      "start": 17.9235,
      "duration": 0.2036,
      "velocity": 102,
      "chip": "ym2612"
    },
    {
      "channel": 0,
      "note": 56,
      "start": 18.0271,
      "duration": 0.0995,
      "velocity": 94,
      "chip": "ym2612"
    },
    {
      "channel": 2,
      "note": 32,
      "start": 18.0277,
      "duration": 0.1,
      "velocity": 102,
      "chip": "ym2612"
    },
    {
      "channel": 0,
      "note": 49,
      "start": 18.1267,
      "duration": 0.1095,
      "velocity": 94,
      "chip": "ym2612"
    },
    {
      "channel": 1,
      "note": 75,
      "start": 18.1273,
      "duration": 0.3364,
      "velocity": 102,
      "chip": "ym2612"
    },
    {
      "channel": 2,
      "note": 29,
      "start": 18.1279,
      "duration": 0.2183,
      "velocity": 102,
      "chip": "ym2612"
    },
    {
      "channel": 3,
      "note": 49,
      "start": 18.1285,
      "duration": 3.4786,
      "velocity": 127,
      "chip": "ym2612"
    },
    {
      "channel": 0,
      "note": 61,
      "start": 18.2364,
      "duration": 0.1092,
      "velocity": 94,
      "chip": "ym2612"
    },
    {
      "channel": 0,
      "note": 49,
      "start": 18.3458,
      "duration": 0.1174,
      "velocity": 94,
      "chip": "ym2612"
    },
    {
      "channel": 2,
      "note": 75,
      "start": 18.3463,
      "duration": 0.3273,
      "velocity": 102,
      "chip": "ym2612"
    },
    {
      "channel": 0,
      "note": 59,
      "start": 18.4634,
      "duration": 0.0996,
      "velocity": 94,
      "chip": "ym2612"
    },
    {
      "channel": 1,
      "note": 76,
      "start": 18.4639,
      "duration": 0.2092,
      "velocity": 102,
      "chip": "ym2612"
    },
    {
      "channel": 0,
      "note": 61,
      "start": 18.5631,
      "duration": 0.1094,
      "velocity": 94,
      "chip": "ym2612"
    },
    {
      "channel": 0,
      "note": 47,
      "start": 18.6727,
      "duration": 0.1085,
      "velocity": 94,
      "chip": "ym2612"
    },
    {
      "channel": 1,
      "note": 73,
      "start": 18.6733,
      "duration": 0.1085,
      "velocity": 102,
      "chip": "ym2612"
    },
    {
      "channel": 2,
      "note": 76,
      "start": 18.6739,
      "duration": 0.208,
      "velocity": 102,
      "chip": "ym2612"
    },
    {
      "channel": 0,
      "note": 62,
      "start": 18.7814,
      "duration": 0.0999,
      "velocity": 94,
      "chip": "ym2612"
    },
    {
      "channel": 1,
      "note": 70,
      "start": 18.782,
      "duration": 0.2134,
      "velocity": 102,
      "chip": "ym2612"
    },
    {
      "channel": 0,
      "note": 59,
      "start": 18.8814,
      "duration": 0.1134,
      "velocity": 94,
      "chip": "ym2612"
    },
    {
      "channel": 2,
      "note": 73,
      "start": 18.882,
      "duration": 0.1138,
      "velocity": 102,
      "chip": "ym2612"
    },
    {
      "channel": 0,
      "note": 49,
      "start": 18.9949,
      "duration": 0.1089,
      "velocity": 94,
      "chip": "ym2612"
    },
    {
      "channel": 1,
      "note": 63,
      "start": 18.9955,
      "duration": 0.3216,
      "velocity": 102,
      "chip": "ym2612"
    },
    {
      "channel": 2,
      "note": 70,
      "start": 18.9961,
      "duration": 0.2192,
      "velocity": 102,
      "chip": "ym2612"
    },
    {
      "channel": 0,
      "note": 61,
      "start": 19.104,
      "duration": 0.1107,
      "velocity": 94,
      "chip": "ym2612"
    },
    {
      "channel": 0,
      "note": 47,
      "start": 19.2148,
      "duration": 0.1017,
      "velocity": 94,
      "chip": "ym2612"
    },
    {
      "channel": 2,
      "note": 63,
      "start": 19.2154,
      "duration": 0.3303,
      "velocity": 102,
      "chip": "ym2612"
    },
    {
      "channel": 0,
      "note": 49,
      "start": 19.3167,
      "duration": 0.0999,
      "velocity": 94,
      "chip": "ym2612"
    },
    {
      "channel": 1,
      "note": 64,
      "start": 19.3172,
      "duration": 0.2279,
      "velocity": 102,
      "chip": "ym2612"
    },
    {
      "channel": 0,
      "note": 61,
      "start": 19.4167,
      "duration": 0.1278,
      "velocity": 94,
      "chip": "ym2612"
    },
    {
      "channel": 0,
      "note": 47,
      "start": 19.5447,
      "duration": 0.1091,
      "velocity": 94,
      "chip": "ym2612"
    },
    {
      "channel": 1,
      "note": 61,
      "start": 19.5453,
      "duration": 0.1091,
      "velocity": 102,
      "chip": "ym2612"
    },
    {
      "channel": 2,
      "note": 64,
      "start": 19.5459,
      "duration": 0.2126,
      "velocity": 102,
      "chip": "ym2612"
    },
    {
      "channel": 0,
      "note": 62,
      "start": 19.654,
      "duration": 0.1039,
      "velocity": 94,
      "chip": "ym2612"
    },
    {
      "channel": 1,
      "note": 58,
      "start": 19.6546,
      "duration": 0.2037,
      "velocity": 102,
      "chip": "ym2612"
    },
    {
      "channel": 0,
      "note": 59,
      "start": 19.758,
      "duration": 0.0997,
      "velocity": 94,
      "chip": "ym2612"
    },
    {
      "channel": 2,
      "note": 61,
      "start": 19.7587,
      "duration": 0.1002,
      "velocity": 102,
      "chip": "ym2612"
    },
    {
      "channel": 0,
      "note": 49,
      "start": 19.8579,
      "duration": 0.1092,
      "velocity": 94,
      "chip": "ym2612"
    },
    {
      "channel": 1,
      "note": 51,
      "start": 19.8585,
      "duration": 0.3394,
      "velocity": 102,
      "chip": "ym2612"
    },
    {
      "channel": 2,
      "note": 58,
      "start": 19.859,
      "duration": 0.237,
      "velocity": 102,
      "chip": "ym2612"
    },
    {
      "channel": 0,
      "note": 61,
      "start": 19.9673,
      "duration": 0.1282,
      "velocity": 94,
      "chip": "ym2612"
    },
    {
      "channel": 0,
      "note": 47,
      "start": 20.0956,
      "duration": 0.1017,
      "velocity": 94,
      "chip": "ym2612"
    },
    {
      "channel": 2,
      "note": 51,
      "start": 20.0963,
      "duration": 0.313,
      "velocity": 102,
      "chip": "ym2612"
    },
    {
      "channel": 0,
      "note": 49,
      "start": 20.1975,
      "duration": 0.1019,
      "velocity": 94,
      "chip": "ym2612"
    },
    {
      "channel": 1,
      "note": 52,
      "start": 20.198,
      "duration": 0.2107,
      "velocity": 102,
      "chip": "ym2612"
    },
    {
      "channel": 0,
      "note": 61,
      "start": 20.2995,
      "duration": 0.1087,
      "velocity": 94,
      "chip": "ym2612"
    },
    {
      "channel": 0,
      "note": 47,
      "start": 20.4083,
      "duration": 0.1086,
      "velocity": 94,
      "chip": "ym2612"
    },
    {
      "channel": 1,
      "note": 49,
      "start": 20.4089,
      "duration": 0.1086,
      "velocity": 102,
      "chip": "ym2612"
    },
    {
      "channel": 2,
      "note": 52,
      "start": 20.4095,
      "duration": 0.2254,
      "velocity": 102,
      "chip": "ym2612"
    },
    {
      "channel": 0,
      "note": 62,
      "start": 20.5171,
      "duration": 0.1171,
      "velocity": 94,
      "chip": "ym2612"
    },
    {
      "channel": 1,
      "note": 46,
      "start": 20.5177,
      "duration": 0.215,
      "velocity": 102,
      "chip": "ym2612"
    },
    {
      "channel": 0,
      "note": 59,
      "start": 20.6344,
      "duration": 0.0978,
      "velocity": 94,
      "chip": "ym2612"
    },
    {
      "channel": 2,
      "note": 49,
      "start": 20.6351,
      "duration": 0.0983,
      "velocity": 102,
      "chip": "ym2612"
    },
    {
      "channel": 0,
      "note": 49,
      "start": 20.7324,
      "duration": 0.1089,
      "velocity": 94,
      "chip": "ym2612"
    },
    {
      "channel": 1,
      "note": 39,
      "start": 20.7329,
      "duration": 0.328,
      "velocity": 102,
      "chip": "ym2612"
    },
    {
      "channel": 2,
      "note": 46,
      "start": 20.7335,
      "duration": 0.2179,
      "velocity": 102,
      "chip": "ym2612"
    },
    {
      "channel": 0,
      "note": 61,
      "start": 20.8414,
      "duration": 0.1093,
      "velocity": 94,
      "chip": "ym2612"
    },
    {
      "channel": 0,
      "note": 47,
      "start": 20.951,
      "duration": 0.1094,
      "velocity": 94,
      "chip": "ym2612"
    },
    {
      "channel": 2,
      "note": 39,
      "start": 20.9515,
      "duration": 0.3443,
      "velocity": 102,
      "chip": "ym2612"
    },
    {
      "channel": 0,
      "note": 49,
      "start": 21.0606,
      "duration": 0.1261,
      "velocity": 94,
      "chip": "ym2612"
    },
    {
      "channel": 1,
      "note": 40,
      "start": 21.0611,
      "duration": 0.2341,
      "velocity": 102,
      "chip": "ym2612"
    },
    {
      "channel": 0,
      "note": 61,
      "start": 21.1867,
      "duration": 0.1079,
      "velocity": 94,
      "chip": "ym2612"
    },
    {
      "channel": 0,
      "note": 47,
      "start": 21.2949,
      "duration": 0.1036,
      "velocity": 94,
      "chip": "ym2612"
    },
    {
      "channel": 1,
      "note": 37,
      "start": 21.2954,
      "duration": 0.1035,
      "velocity": 102,
      "chip": "ym2612"
    },
    {
      "channel": 2,
      "note": 40,
      "start": 21.2959,
      "duration": 0.2031,
      "velocity": 102,
      "chip": "ym2612"
    },
    {
      "channel": 0,
      "note": 62,
      "start": 21.3985,
      "duration": 0.0999,
      "velocity": 94,
      "chip": "ym2612"
    },
    {
      "channel": 1,
      "note": 34,
      "start": 21.3991,
      "duration": 0.2052,
      "velocity": 94,
      "chip": "ym2612"
    },
    {
      "channel": 0,
      "note": 59,
      "start": 21.4986,
      "duration": 0.1036,
      "velocity": 94,
      "chip": "ym2612"
    },
    {
      "channel": 2,
      "note": 37,
      "start": 21.4991,
      "duration": 0.1073,
      "velocity": 97,
      "chip": "ym2612"
    },
    {
      "channel": 0,
      "note": 46,
      "start": 21.6023,
      "duration": 0.1232,
      "velocity": 94,
      "chip": "ym2612"
    },
    {
      "channel": 1,
      "note": 82,
      "start": 21.6045,
      "duration": 0.1216,
      "velocity": 94,
      "chip": "ym2612"
    },
    {
      "channel": 2,
      "note": 70,
      "start": 21.6067,
      "duration": 0.12,
      "velocity": 97,
      "chip": "ym2612"
    },
    {
      "channel": 3,
      "note": 46,
      "start": 21.6073,
      "duration": 3.4914,
      "velocity": 127,
      "chip": "ym2612"
    },
    {
      "channel": 0,
      "note": 58,
      "start": 21.7257,
      "duration": 0.1089,
      "velocity": 94,
      "chip": "ym2612"
    },
    {
      "channel": 1,
      "note": 83,
      "start": 21.7263,
      "duration": 0.1089,
      "velocity": 94,
      "chip": "ym2612"
    },
    {
      "channel": 2,
      "note": 82,
      "start": 21.7268,
      "duration": 0.1088,
      "velocity": 97,
      "chip": "ym2612"
    },
    {
      "channel": 0,
      "note": 44,
      "start": 21.8347,
      "duration": 0.0998,
      "velocity": 94,
      "chip": "ym2612"
    },
    {
      "channel": 1,
      "note": 87,
      "start": 21.8353,
      "duration": 0.0998,
      "velocity": 94,
      "chip": "ym2612"
    },
    {
      "channel": 2,
      "note": 80,
      "start": 21.8359,
      "duration": 0.0998,
      "velocity": 97,
      "chip": "ym2612"
    },
    {
      "channel": 0,
      "note": 46,
      "start": 21.9347,
      "duration": 0.1016,
      "velocity": 94,
      "chip": "ym2612"
    },
    {
      "channel": 1,
      "note": 89,
      "start": 21.9353,
      "duration": 1.4256,
      "velocity": 94,
      "chip": "ym2612"
    },
    {
      "channel": 2,
      "note": 82,
      "start": 21.9359,
      "duration": 0.1011,
      "velocity": 97,
      "chip": "ym2612"
    },
    {
      "channel": 0,
      "note": 58,
      "start": 22.0365,
      "duration": 0.109,
      "velocity": 94,
      "chip": "ym2612"
    },
    {
      "channel": 2,
      "note": 70,
      "start": 22.0371,
      "duration": 0.1091,
      "velocity": 97,
      "chip": "ym2612"
    },
    {
      "channel": 0,
      "note": 44,
      "start": 22.1457,
      "duration": 0.1273,
      "velocity": 94,
      "chip": "ym2612"
    },
    {
      "channel": 2,
      "note": 82,
      "start": 22.1463,
      "duration": 0.1273,
      "velocity": 97,
      "chip": "ym2612"
    },
    {
      "channel": 0,
      "note": 59,
      "start": 22.2731,
      "duration": 0.1015,
      "velocity": 94,
      "chip": "ym2612"
    },
    {
      "channel": 2,
      "note": 80,
      "start": 22.2738,
      "duration": 0.1015,
      "velocity": 97,
      "chip": "ym2612"
    },
    {
      "channel": 0,
      "note": 56,
      "start": 22.3748,
      "duration": 0.1059,
      "velocity": 94,
      "chip": "ym2612"
    },
    {
      "channel": 2,
      "note": 82,
      "start": 22.3754,
      "duration": 0.1058,
      "velocity": 97,
      "chip": "ym2612"
    },
    {
      "channel": 0,
      "note": 46,
      "start": 22.4807,
      "duration": 0.1087,
      "velocity": 94,
      "chip": "ym2612"
    },
    {
      "channel": 2,
      "note": 70,
      "start": 22.4814,
      "duration": 0.1087,
      "velocity": 97,
      "chip": "ym2612"
    },
    {
      "channel": 0,
      "note": 58,
      "start": 22.5896,
      "duration": 0.1106,
      "velocity": 94,
      "chip": "ym2612"
    },
    {
      "channel": 2,
      "note": 82,
      "start": 22.5902,
      "duration": 0.1106,
      "velocity": 97,
      "chip": "ym2612"
    },
    {
      "channel": 0,
      "note": 44,
      "start": 22.7003,
      "duration": 0.1154,
      "velocity": 94,
      "chip": "ym2612"
    },
    {
      "channel": 2,
      "note": 80,
      "start": 22.701,
      "duration": 0.1154,
      "velocity": 97,
      "chip": "ym2612"
    },
    {
      "channel": 0,
      "note": 46,
      "start": 22.8159,
      "duration": 0.1059,
      "velocity": 94,
      "chip": "ym2612"
    },
    {
      "channel": 2,
      "note": 82,
      "start": 22.8166,
      "duration": 0.1059,
      "velocity": 97,
      "chip": "ym2612"
    },
    {
      "channel": 0,
      "note": 58,
      "start": 22.922,
      "duration": 0.1096,
      "velocity": 94,
      "chip": "ym2612"
    },
    {
      "channel": 2,
      "note": 70,
      "start": 22.9226,
      "duration": 0.1096,
      "velocity": 97,
      "chip": "ym2612"
    },
    {
      "channel": 0,
      "note": 44,
      "start": 23.0318,
      "duration": 0.1113,
      "velocity": 94,
      "chip": "ym2612"
    },
    {
      "channel": 2,
      "note": 82,
      "start": 23.0324,
      "duration": 0.1114,
      "velocity": 97,
      "chip": "ym2612"
    },
    {
      "channel": 0,
      "note": 59,
      "start": 23.1433,
      "duration": 0.0995,
      "velocity": 94,
      "chip": "ym2612"
    },
    {
      "channel": 2,
      "note": 80,
      "start": 23.1439,
      "duration": 0.0996,
      "velocity": 97,
      "chip": "ym2612"
    },
    {
      "channel": 0,
      "note": 56,
      "start": 23.243,
      "duration": 0.1174,
      "velocity": 94,
      "chip": "ym2612"
    },
    {
      "channel": 2,
      "note": 82,
      "start": 23.2436,
      "duration": 0.1179,
      "velocity": 97,
      "chip": "ym2612"
    },
    {
      "channel": 0,
      "note": 46,
      "start": 23.3605,
      "duration": 0.1092,
      "velocity": 94,
      "chip": "ym2612"
    },
    {
      "channel": 1,
      "note": 92,
      "start": 23.3611,
      "duration": 0.3184,
      "velocity": 94,
      "chip": "ym2612"
    },
    {
      "channel": 2,
      "note": 73,
      "start": 23.3617,
      "duration": 0.1086,
      "velocity": 97,
      "chip": "ym2612"
    },
    {
      "channel": 0,
      "note": 58,
      "start": 23.4699,
      "duration": 0.1092,
      "velocity": 94,
      "chip": "ym2612"
    },
    {
      "channel": 2,
      "note": 85,
      "start": 23.4705,
      "duration": 0.1091,
      "velocity": 97,
      "chip": "ym2612"
    },
    {
      "channel": 0,
      "note": 44,
      "start": 23.5792,
      "duration": 0.0998,
      "velocity": 94,
      "chip": "ym2612"
    },
    {
      "channel": 2,
      "note": 83,
      "start": 23.5798,
      "duration": 0.1003,
      "velocity": 97,
      "chip": "ym2612"
    },
    {
      "channel": 0,
      "note": 46,
      "start": 23.6791,
      "duration": 0.1018,
      "velocity": 94,
      "chip": "ym2612"
    },
    {
      "channel": 1,
      "note": 90,
      "start": 23.6797,
      "duration": 0.2258,
      "velocity": 94,
      "chip": "ym2612"
    },
    {
      "channel": 2,
      "note": 85,
      "start": 23.6802,
      "duration": 0.1012,
      "velocity": 97,
      "chip": "ym2612"
    },
    {
      "channel": 0,
      "note": 58,
      "start": 23.781,
      "duration": 0.1239,
      "velocity": 94,
      "chip": "ym2612"
    },
    {
      "channel": 2,
      "note": 73,
      "start": 23.7817,
      "duration": 0.1244,
      "velocity": 97,
      "chip": "ym2612"
    },
    {
      "channel": 0,
      "note": 44,
      "start": 23.9051,
      "duration": 0.1088,
      "velocity": 94,
      "chip": "ym2612"
    },
    {
      "channel": 1,
      "note": 87,
      "start": 23.9057,
      "duration": 0.1088,
      "velocity": 94,
      "chip": "ym2612"
    },
    {
      "channel": 2,
      "note": 85,
      "start": 23.9063,
      "duration": 0.1087,
      "velocity": 97,
      "chip": "ym2612"
    },
    {
      "channel": 0,
      "note": 59,
      "start": 24.0141,
      "duration": 0.1016,
      "velocity": 94,
      "chip": "ym2612"
    },
    {
      "channel": 1,
      "note": 83,
      "start": 24.0146,
      "duration": 0.1016,
      "velocity": 94,
      "chip": "ym2612"
    },
    {
      "channel": 2,
      "note": 83,
      "start": 24.0152,
      "duration": 0.1015,
      "velocity": 97,
      "chip": "ym2612"
    },
    {
      "channel": 0,
      "note": 56,
      "start": 24.1158,
      "duration": 0.0995,
      "velocity": 94,
      "chip": "ym2612"
    },
    {
      "channel": 1,
      "note": 82,
      "start": 24.1164,
      "duration": 0.9812,
      "velocity": 94,
      "chip": "ym2612"
    },
    {
      "channel": 2,
      "note": 85,
      "start": 24.1169,
      "duration": 0.0991,
      "velocity": 97,
      "chip": "ym2612"
    },
    {
      "channel": 0,
      "note": 46,
      "start": 24.2155,
      "duration": 0.1124,
      "velocity": 94,
      "chip": "ym2612"
    },
    {
      "channel": 2,
      "note": 73,
      "start": 24.2161,
      "duration": 0.1124,
      "velocity": 97,
      "chip": "ym2612"
    },
    {
      "channel": 0,
      "note": 58,
      "start": 24.328,
      "duration": 0.1241,
      "velocity": 94,
      "chip": "ym2612"
    },
    {
      "channel": 2,
      "note": 85,
      "start": 24.3287,
      "duration": 0.124,
      "velocity": 97,
      "chip": "ym2612"
    },
    {
      "channel": 0,
      "note": 44,
      "start": 24.4522,
      "duration": 0.1015,
      "velocity": 94,
      "chip": "ym2612"
    },
    {
      "channel": 2,
      "note": 83,
      "start": 24.4528,
      "duration": 0.1015,
      "velocity": 97,
      "chip": "ym2612"
    },
    {
      "channel": 0,
      "note": 46,
      "start": 24.5538,
      "duration": 0.1059,
      "velocity": 94,
      "chip": "ym2612"
    },
    {
      "channel": 2,
      "note": 85,
      "start": 24.5545,
      "duration": 0.1058,
      "velocity": 97,
      "chip": "ym2612"
    },
    {
      "channel": 0,
      "note": 58,
      "start": 24.6598,
      "duration": 0.1087,
      "velocity": 94,
      "chip": "ym2612"
    },
    {
      "channel": 2,
      "note": 73,
      "start": 24.6605,
      "duration": 0.1087,
      "velocity": 97,
      "chip": "ym2612"
    },
    {
      "channel": 0,
      "note": 44,
      "start": 24.7687,
      "duration": 0.1129,
      "velocity": 94,
      "chip": "ym2612"
    },
    {
      "channel": 2,
      "note": 85,
      "start": 24.7693,
      "duration": 0.1129,
      "velocity": 97,
      "chip": "ym2612"
    },
    {
      "channel": 0,
      "note": 59,
      "start": 24.8818,
      "duration": 0.1154,
      "velocity": 94,
      "chip": "ym2612"
    },
    {
      "channel": 2,
      "note": 83,
      "start": 24.8824,
      "duration": 0.1154,
      "velocity": 97,
      "chip": "ym2612"
    },
    {
      "channel": 0,
      "note": 56,
      "start": 24.9973,
      "duration": 0.0997,
      "velocity": 94,
      "chip": "ym2612"
    },
    {
      "channel": 2,
      "note": 85,
      "start": 24.9979,
      "duration": 0.1002,
      "velocity": 97,
      "chip": "ym2612"
    },
    {
      "channel": 0,
      "note": 49,
      "start": 25.0972,
      "duration": 0.1086,
      "velocity": 94,
      "chip": "ym2612"
    },
    {
      "channel": 1,
      "note": 85,
      "start": 25.0978,
      "duration": 0.1086,
      "velocity": 94,
      "chip": "ym2612"
    },
    {
      "channel": 2,
      "note": 73,
      "start": 25.0983,
      "duration": 0.1086,
      "velocity": 97,
      "chip": "ym2612"
    },
    {
      "channel": 3,
      "note": 49,
      "start": 25.0989,
      "duration": 3.516,
      "velocity": 127,
      "chip": "ym2612"
    },
    {
      "channel": 0,
      "note": 61,
      "start": 25.206,
      "duration": 0.1095,
      "velocity": 94,
      "chip": "ym2612"
    },
    {
      "channel": 1,
      "note": 90,
      "start": 25.2066,
      "duration": 0.1095,
      "velocity": 94,
      "chip": "ym2612"
    },
    {
      "channel": 2,
      "note": 85,
      "start": 25.2072,
      "duration": 0.1095,
      "velocity": 97,
      "chip": "ym2612"
    },
    {
      "channel": 0,
      "note": 49,
      "start": 25.3157,
      "duration": 0.1037,
      "velocity": 94,
      "chip": "ym2612"
    },
    {
      "channel": 1,
      "note": 92,
      "start": 25.3163,
      "duration": 0.1037,
      "velocity": 94,
      "chip": "ym2612"
    },
    {
      "channel": 2,
      "note": 83,
      "start": 25.3169,
      "duration": 0.1037,
      "velocity": 97,
      "chip": "ym2612"
    },
    {
      "channel": 0,
      "note": 59,
      "start": 25.4196,
      "duration": 0.1211,
      "velocity": 94,
      "chip": "ym2612"
    },
    {
      "channel": 1,
      "note": 95,
      "start": 25.4202,
      "duration": 1.438,
      "velocity": 94,
      "chip": "ym2612"
    },
    {
      "channel": 2,
      "note": 85,
      "start": 25.4207,
      "duration": 0.1207,
      "velocity": 97,
      "chip": "ym2612"
    },
    {
      "channel": 0,
      "note": 61,
      "start": 25.5409,
      "duration": 0.1113,
      "velocity": 94,
      "chip": "ym2612"
    },
    {
      "channel": 2,
      "note": 73,
      "start": 25.5416,
      "duration": 0.1113,
      "velocity": 97,
      "chip": "ym2612"
    },
    {
      "channel": 0,
      "note": 47,
      "start": 25.6524,
      "duration": 0.1105,
      "velocity": 94,
      "chip": "ym2612"
    },
    {
      "channel": 2,
      "note": 85,
      "start": 25.6529,
      "duration": 0.1106,
      "velocity": 97,
      "chip": "ym2612"
    },
    {
      "channel": 0,
      "note": 62,
      "start": 25.7631,
      "duration": 0.1035,
      "velocity": 94,
      "chip": "ym2612"
    },
    {
      "channel": 2,
      "note": 83,
      "start": 25.7637,
      "duration": 0.1035,
      "velocity": 97,
      "chip": "ym2612"
    },
    {
      "channel": 0,
      "note": 59,
      "start": 25.8667,
      "duration": 0.1038,
      "velocity": 94,
      "chip": "ym2612"
    },
    {
      "channel": 2,
      "note": 85,
      "start": 25.8674,
      "duration": 0.1038,
      "velocity": 97,
      "chip": "ym2612"
    },
    {
      "channel": 0,
      "note": 49,
      "start": 25.9707,
      "duration": 0.126,
      "velocity": 94,
      "chip": "ym2612"
    },
    {
      "channel": 2,
      "note": 73,
      "start": 25.9713,
      "duration": 0.126,
      "velocity": 97,
      "chip": "ym2612"
    },
    {
      "channel": 0,
      "note": 61,
      "start": 26.0968,
      "duration": 0.1088,
      "velocity": 94,
      "chip": "ym2612"
    },
    {
      "channel": 2,
      "note": 85,
      "start": 26.0975,
      "duration": 0.1088,
      "velocity": 97,
      "chip": "ym2612"
    },
    {
      "channel": 0,
      "note": 47,
      "start": 26.2058,
      "duration": 0.1037,
      "velocity": 94,
      "chip": "ym2612"
    },
    {
      "channel": 2,
      "note": 83,
      "start": 26.2064,
      "duration": 0.1037,
      "velocity": 97,
      "chip": "ym2612"
    },
    {
      "channel": 0,
      "note": 49,
      "start": 26.3097,
      "duration": 0.1039,
      "velocity": 94,
      "chip": "ym2612"
    },
    {
      "channel": 2,
      "note": 85,
      "start": 26.3103,
      "duration": 0.1039,
      "velocity": 97,
      "chip": "ym2612"
    },
    {
      "channel": 0,
      "note": 61,
      "start": 26.4137,
      "duration": 0.1106,
      "velocity": 94,
      "chip": "ym2612"
    },
    {
      "channel": 2,
      "note": 73,
      "start": 26.4143,
      "duration": 0.1106,
      "velocity": 97,
      "chip": "ym2612"
    },
    {
      "channel": 0,
      "note": 47,
      "start": 26.5245,
      "duration": 0.1274,
      "velocity": 94,
      "chip": "ym2612"
    },
    {
      "channel": 2,
      "note": 85,
      "start": 26.5251,
      "duration": 0.1274,
      "velocity": 97,
      "chip": "ym2612"
    },
    {
      "channel": 0,
      "note": 62,
      "start": 26.6521,
      "duration": 0.1015,
      "velocity": 94,
      "chip": "ym2612"
    },
    {
      "channel": 2,
      "note": 83,
      "start": 26.6527,
      "duration": 0.1015,
      "velocity": 97,
      "chip": "ym2612"
    },
    {
      "channel": 0,
      "note": 59,
      "start": 26.7537,
      "duration": 0.104,
      "velocity": 94,
      "chip": "ym2612"
    },
    {
      "channel": 2,
      "note": 85,
      "start": 26.7543,
      "duration": 0.1044,
      "velocity": 97,
      "chip": "ym2612"
    },
    {
      "channel": 0,
      "note": 49,
      "start": 26.8578,
      "duration": 0.1116,
      "velocity": 94,
      "chip": "ym2612"
    },
    {
      "channel": 1,
      "note": 85,
      "start": 26.8584,
      "duration": 0.1116,
      "velocity": 94,
      "chip": "ym2612"
    },
    {
      "channel": 2,
      "note": 70,
      "start": 26.859,
      "duration": 0.1116,
      "velocity": 97,
      "chip": "ym2612"
    },
    {
      "channel": 0,
      "note": 61,
      "start": 26.9696,
      "duration": 0.1092,
      "velocity": 94,
      "chip": "ym2612"
    },
    {
      "channel": 1,
      "note": 90,
      "start": 26.9702,
      "duration": 0.1092,
      "velocity": 94,
      "chip": "ym2612"
    },
    {
      "channel": 2,
      "note": 82,
      "start": 26.9708,
      "duration": 0.1092,
      "velocity": 97,
      "chip": "ym2612"
    },
    {
      "channel": 0,
      "note": 47,
      "start": 27.079,
      "duration": 0.1212,
      "velocity": 94,
      "chip": "ym2612"
    },
    {
      "channel": 1,
      "note": 92,
      "start": 27.0796,
      "duration": 0.1212,
      "velocity": 94,
      "chip": "ym2612"
    },
    {
      "channel": 2,
      "note": 80,
      "start": 27.0802,
      "duration": 0.1212,
      "velocity": 97,
      "chip": "ym2612"
    },
    {
      "channel": 0,
      "note": 49,
      "start": 27.2004,
      "duration": 0.1057,
      "velocity": 94,
      "chip": "ym2612"
    },
    {
      "channel": 1,
      "note": 97,
      "start": 27.201,
      "duration": 0.5472,
      "velocity": 94,
      "chip": "ym2612"
    },
    {
      "channel": 2,
      "note": 82,
      "start": 27.2015,
      "duration": 0.1052,
      "velocity": 97,
      "chip": "ym2612"
    },
    {
      "channel": 0,
      "note": 61,
      "start": 27.3063,
      "duration": 0.1105,
      "velocity": 94,
      "chip": "ym2612"
    },
    {
      "channel": 2,
      "note": 70,
      "start": 27.3069,
      "duration": 0.1105,
      "velocity": 97,
      "chip": "ym2612"
    },
    {
      "channel": 0,
      "note": 47,
      "start": 27.417,
      "duration": 0.1113,
      "velocity": 94,
      "chip": "ym2612"
    },
    {
      "channel": 2,
      "note": 82,
      "start": 27.4176,
      "duration": 0.1114,
      "velocity": 97,
      "chip": "ym2612"
    },
    {
      "channel": 0,
      "note": 62,
      "start": 27.5285,
      "duration": 0.0993,
      "velocity": 94,
      "chip": "ym2612"
    },
    {
      "channel": 2,
      "note": 80,
      "start": 27.529,
      "duration": 0.0994,
      "velocity": 97,
      "chip": "ym2612"
    },
    {
      "channel": 0,
      "note": 59,
      "start": 27.628,
      "duration": 0.1196,
      "velocity": 94,
      "chip": "ym2612"
    },
    {
      "channel": 2,
      "note": 82,
      "start": 27.6286,
      "duration": 0.1201,
      "velocity": 97,
      "chip": "ym2612"
    },
    {
      "channel": 0,
      "note": 49,
      "start": 27.7477,
      "duration": 0.1091,
      "velocity": 94,
      "chip": "ym2612"
    },
    {
      "channel": 1,
      "note": 83,
      "start": 27.7483,
      "duration": 0.1091,
      "velocity": 94,
      "chip": "ym2612"
    },
    {
      "channel": 2,
      "note": 70,
      "start": 27.7489,
      "duration": 0.1091,
      "velocity": 97,
      "chip": "ym2612"
    },
    {
      "channel": 0,
      "note": 61,
      "start": 27.857,
      "duration": 0.1104,
      "velocity": 94,
      "chip": "ym2612"
    },
    {
      "channel": 1,
      "note": 87,
      "start": 27.8576,
      "duration": 0.1104,
      "velocity": 94,
      "chip": "ym2612"
    },
    {
      "channel": 2,
      "note": 82,
      "start": 27.8582,
      "duration": 0.1104,
      "velocity": 97,
      "chip": "ym2612"
    },
    {
      "channel": 0,
      "note": 47,
      "start": 27.9676,
      "duration": 0.1115,
      "velocity": 94,
      "chip": "ym2612"
    },
    {
      "channel": 1,
      "note": 90,
      "start": 27.9682,
      "duration": 0.1115,
      "velocity": 94,
      "chip": "ym2612"
    },
    {
      "channel": 2,
      "note": 80,
      "start": 27.9688,
      "duration": 0.1115,
      "velocity": 97,
      "chip": "ym2612"
    },
    {
      "channel": 0,
      "note": 49,
      "start": 28.0793,
      "duration": 0.1092,
      "velocity": 94,
      "chip": "ym2612"
    },
    {
      "channel": 1,
      "note": 95,
      "start": 28.0798,
      "duration": 0.5339,
      "velocity": 96,
      "chip": "ym2612"
    },
    {
      "channel": 2,
      "note": 82,
      "start": 28.0804,
      "duration": 0.1087,
      "velocity": 97,
      "chip": "ym2612"
    },
    {
      "channel": 0,
      "note": 61,
      "start": 28.1886,
      "duration": 0.1171,
      "velocity": 94,
      "chip": "ym2612"
    },
    {
      "channel": 2,
      "note": 70,
      "start": 28.1893,
      "duration": 0.1171,
      "velocity": 97,
      "chip": "ym2612"
    },
    {
      "channel": 0,
      "note": 47,
      "start": 28.3059,
      "duration": 0.1016,
      "velocity": 94,
      "chip": "ym2612"
    },
    {
      "channel": 2,
      "note": 82,
      "start": 28.3065,
      "duration": 0.1016,
      "velocity": 97,
      "chip": "ym2612"
    },
    {
      "channel": 0,
      "note": 62,
      "start": 28.4077,
      "duration": 0.1038,
      "velocity": 94,
      "chip": "ym2612"
    },
    {
      "channel": 2,
      "note": 80,
      "start": 28.4083,
      "duration": 0.1037,
      "velocity": 97,
      "chip": "ym2612"
    },
    {
      "channel": 0,
      "note": 59,
      "start": 28.5115,
      "duration": 0.1,
      "velocity": 94,
      "chip": "ym2612"
    },
    {
      "channel": 2,
      "note": 82,
      "start": 28.5122,
      "duration": 0.1021,
      "velocity": 97,
      "chip": "ym2612"
    },
    {
      "channel": 0,
      "note": 46,
      "start": 28.6117,
      "duration": 0.1124,
      "velocity": 94,
      "chip": "ym2612"
    },
    {
      "channel": 1,
      "note": 46,
      "start": 28.6139,
      "duration": 0.1108,
      "velocity": 96,
      "chip": "ym2612"
    },
    {
      "channel": 2,
      "note": 70,
      "start": 28.6145,
      "duration": 0.1107,
      "velocity": 97,
      "chip": "ym2612"
    },
    {
      "channel": 3,
      "note": 46,
      "start": 28.6151,
      "duration": 3.5004,
      "velocity": 127,
      "chip": "ym2612"
    },
    {
      "channel": 0,
      "note": 58,
      "start": 28.7242,
      "duration": 0.1234,
      "velocity": 94,
      "chip": "ym2612"
    },
    {
      "channel": 1,
      "note": 46,
      "start": 28.7248,
      "duration": 0.2274,
      "velocity": 96,
      "chip": "ym2612"
    },
    {
      "channel": 2,
      "note": 82,
      "start": 28.7254,
      "duration": 0.1228,
      "velocity": 97,
      "chip": "ym2612"
    },
    {
      "channel": 0,
      "note": 44,
      "start": 28.8477,
      "duration": 0.1039,
      "velocity": 94,
      "chip": "ym2612"
    },
    {
      "channel": 2,
      "note": 80,
      "start": 28.8483,
      "duration": 0.1044,
      "velocity": 97,
      "chip": "ym2612"
    },
    {
      "channel": 0,
      "note": 46,
      "start": 28.9518,
      "duration": 0.1035,
      "velocity": 94,
      "chip": "ym2612"
    },
    {
      "channel": 1,
      "note": 46,
      "start": 28.9523,
      "duration": 0.1035,
      "velocity": 96,
      "chip": "ym2612"
    },
    {
      "channel": 2,
      "note": 82,
      "start": 28.9529,
      "duration": 0.1035,
      "velocity": 97,
      "chip": "ym2612"
    },
    {
      "channel": 0,
      "note": 58,
      "start": 29.0554,
      "duration": 0.1113,
      "velocity": 94,
      "chip": "ym2612"
    },
    {
      "channel": 1,
      "note": 47,
      "start": 29.056,
      "duration": 0.2201,
      "velocity": 96,
      "chip": "ym2612"
    },
    {
      "channel": 2,
      "note": 70,
      "start": 29.0565,
      "duration": 0.1109,
      "velocity": 97,
      "chip": "ym2612"
    },
    {
      "channel": 0,
      "note": 44,
      "start": 29.1669,
      "duration": 0.1086,
      "velocity": 94,
      "chip": "ym2612"
    },
    {
      "channel": 2,
      "note": 82,
      "start": 29.1676,
      "duration": 0.1091,
      "velocity": 97,
      "chip": "ym2612"
    },
    {
      "channel": 0,
      "note": 59,
      "start": 29.2757,
      "duration": 0.1191,
      "velocity": 94,
      "chip": "ym2612"
    },
    {
      "channel": 1,
      "note": 44,
      "start": 29.2763,
      "duration": 0.1191,
      "velocity": 96,
      "chip": "ym2612"
    },
    {
      "channel": 2,
      "note": 80,
      "start": 29.2769,
      "duration": 0.1191,
      "velocity": 97,
      "chip": "ym2612"
    },
    {
      "channel": 0,
      "note": 56,
      "start": 29.395,
      "duration": 0.1036,
      "velocity": 94,
      "chip": "ym2612"
    },
    {
      "channel": 1,
      "note": 46,
      "start": 29.3956,
      "duration": 0.2124,
      "velocity": 96,
      "chip": "ym2612"
    },
    {
      "channel": 2,
      "note": 82,
      "start": 29.3962,
      "duration": 0.103,
      "velocity": 97,
      "chip": "ym2612"
    },
    {
      "channel": 0,
      "note": 46,
      "start": 29.4988,
      "duration": 0.1086,
      "velocity": 94,
      "chip": "ym2612"
    },
    {
      "channel": 2,
      "note": 70,
      "start": 29.4994,
      "duration": 0.1091,
      "velocity": 97,
      "chip": "ym2612"
    },
    {
      "channel": 0,
      "note": 58,
      "start": 29.6076,
      "duration": 0.1085,
      "velocity": 94,
      "chip": "ym2612"
    },
    {
      "channel": 1,
      "note": 46,
      "start": 29.6082,
      "duration": 0.2104,
      "velocity": 96,
      "chip": "ym2612"
    },
    {
      "channel": 2,
      "note": 82,
      "start": 29.6088,
      "duration": 0.108,
      "velocity": 97,
      "chip": "ym2612"
    },
    {
      "channel": 0,
      "note": 44,
      "start": 29.7163,
      "duration": 0.1017,
      "velocity": 94,
      "chip": "ym2612"
    },
    {
      "channel": 2,
      "note": 80,
      "start": 29.717,
      "duration": 0.1021,
      "velocity": 97,
      "chip": "ym2612"
    },
    {
      "channel": 0,
      "note": 46,
      "start": 29.8181,
      "duration": 0.1134,
      "velocity": 94,
      "chip": "ym2612"
    },
    {
      "channel": 1,
      "note": 46,
      "start": 29.8187,
      "duration": 0.1134,
      "velocity": 96,
      "chip": "ym2612"
    },
    {
      "channel": 2,
      "note": 82,
      "start": 29.8193,
      "duration": 0.1134,
      "velocity": 97,
      "chip": "ym2612"
    },
    {
      "channel": 0,
      "note": 58,
      "start": 29.9317,
      "duration": 0.1104,
      "velocity": 94,
      "chip": "ym2612"
    },
    {
      "channel": 1,
      "note": 47,
      "start": 29.9322,
      "duration": 0.1104,
      "velocity": 96,
      "chip": "ym2612"
    },
    {
      "channel": 2,
      "note": 70,
      "start": 29.9328,
      "duration": 0.1104,
      "velocity": 97,
      "chip": "ym2612"
    },
    {
      "channel": 0,
      "note": 44,
      "start": 30.0423,
      "duration": 0.1104,
      "velocity": 94,
      "chip": "ym2612"
    },
    {
      "channel": 1,
      "note": 47,
      "start": 30.0429,
      "duration": 0.1104,
      "velocity": 96,
      "chip": "ym2612"
    },
    {
      "channel": 2,
      "note": 82,
      "start": 30.0434,
      "duration": 0.1104,
      "velocity": 97,
      "chip": "ym2612"
    },
    {
      "channel": 0,
      "note": 59,
      "start": 30.1529,
      "duration": 0.0995,
      "velocity": 94,
      "chip": "ym2612"
    },
    {
      "channel": 1,
      "note": 44,
      "start": 30.1534,
      "duration": 0.0995,
      "velocity": 96,
      "chip": "ym2612"
    },
    {
      "channel": 2,
      "note": 80,
      "start": 30.154,
      "duration": 0.0994,
      "velocity": 97,
      "chip": "ym2612"
    },
    {
      "channel": 0,
      "note": 56,
      "start": 30.2525,
      "duration": 0.0997,
      "velocity": 94,
      "chip": "ym2612"
    },
    {
      "channel": 1,
      "note": 41,
      "start": 30.2531,
      "duration": 0.1013,
      "velocity": 102,
      "chip": "ym2612"
    },
    {
      "channel": 2,
      "note": 82,
      "start": 30.2537,
      "duration": 0.1013,
      "velocity": 97,
      "chip": "ym2612"
    },
    {
      "channel": 0,
      "note": 46,
      "start": 30.3524,
      "duration": 0.1242,
      "velocity": 94,
      "chip": "ym2612"
    },
    {
      "channel": 1,
      "note": 70,
      "start": 30.3546,
      "duration": 1.7598,
      "velocity": 96,
      "chip": "ym2612"
    },
    {
      "channel": 2,
      "note": 73,
      "start": 30.3551,
      "duration": 0.1237,
      "velocity": 97,
      "chip": "ym2612"
    },
    {
      "channel": 0,
      "note": 58,
      "start": 30.4768,
      "duration": 0.1102,
      "velocity": 94,
      "chip": "ym2612"
    },
    {
      "channel": 2,
      "note": 85,
      "start": 30.479,
      "duration": 0.1103,
      "velocity": 97,
      "chip": "ym2612"
    },
    {
      "channel": 0,
      "note": 44,
      "start": 30.5872,
      "duration": 0.1015,
      "velocity": 94,
      "chip": "ym2612"
    },
    {
      "channel": 2,
      "note": 83,
      "start": 30.5895,
      "duration": 0.1015,
      "velocity": 97,
      "chip": "ym2612"
    },
    {
      "channel": 0,
      "note": 46,
      "start": 30.6889,
      "duration": 0.1039,
      "velocity": 94,
      "chip": "ym2612"
    },
    {
      "channel": 2,
      "note": 85,
      "start": 30.6911,
      "duration": 0.1038,
      "velocity": 97,
      "chip": "ym2612"
    },
    {
      "channel": 0,
      "note": 58,
      "start": 30.7929,
      "duration": 0.1117,
      "velocity": 94,
      "chip": "ym2612"
    },
    {
      "channel": 2,
      "note": 73,
      "start": 30.7951,
      "duration": 0.1117,
      "velocity": 97,
      "chip": "ym2612"
    },
    {
      "channel": 0,
      "note": 44,
      "start": 30.9047,
      "duration": 0.1272,
      "velocity": 94,
      "chip": "ym2612"
    },
    {
      "channel": 2,
      "note": 85,
      "start": 30.9069,
      "duration": 0.1273,
      "velocity": 97,
      "chip": "ym2612"
    },
    {
      "channel": 0,
      "note": 59,
      "start": 31.0321,
      "duration": 0.0994,
      "velocity": 94,
      "chip": "ym2612"
    },
    {
      "channel": 2,
      "note": 83,
      "start": 31.0344,
      "duration": 0.0994,
      "velocity": 97,
      "chip": "ym2612"
    },
    {
      "channel": 0,
      "note": 56,
      "start": 31.1317,
      "duration": 0.1038,
      "velocity": 94,
      "chip": "ym2612"
    },
    {
      "channel": 2,
      "note": 85,
      "start": 31.1339,
      "duration": 0.1022,
      "velocity": 97,
      "chip": "ym2612"
    },
    {
      "channel": 0,
      "note": 46,
      "start": 31.2356,
      "duration": 0.1087,
      "velocity": 94,
      "chip": "ym2612"
    },
    {
      "channel": 2,
      "note": 73,
      "start": 31.2363,
      "duration": 0.1087,
      "velocity": 97,
      "chip": "ym2612"
    },
    {
      "channel": 0,
      "note": 58,
      "start": 31.3445,
      "duration": 0.1106,
      "velocity": 94,
      "chip": "ym2612"
    },
    {
      "channel": 2,
      "note": 85,
      "start": 31.3451,
      "duration": 0.1106,
      "velocity": 97,
      "chip": "ym2612"
    },
    {
      "channel": 0,
      "note": 44,
      "start": 31.4553,
      "duration": 0.1173,
      "velocity": 94,
      "chip": "ym2612"
    },
    {
      "channel": 2,
      "note": 83,
      "start": 31.4559,
      "duration": 0.1174,
      "velocity": 97,
      "chip": "ym2612"
    },
    {
      "channel": 0,
      "note": 46,
      "start": 31.5728,
      "duration": 0.1018,
      "velocity": 94,
      "chip": "ym2612"
    },
    {
      "channel": 2,
      "note": 85,
      "start": 31.5734,
      "duration": 0.1018,
      "velocity": 97,
      "chip": "ym2612"
    },
    {
      "channel": 0,
      "note": 58,
      "start": 31.6747,
      "duration": 0.1086,
      "velocity": 94,
      "chip": "ym2612"
    },
    {
      "channel": 2,
      "note": 73,
      "start": 31.6754,
      "duration": 0.1086,
      "velocity": 97,
      "chip": "ym2612"
    },
    {
      "channel": 0,
      "note": 44,
      "start": 31.7835,
      "duration": 0.1112,
      "velocity": 94,
      "chip": "ym2612"
    },
    {
      "channel": 2,
      "note": 85,
      "start": 31.7841,
      "duration": 0.1113,
      "velocity": 97,
      "chip": "ym2612"
    },
    {
      "channel": 0,
      "note": 59,
      "start": 31.895,
      "duration": 0.1017,
      "velocity": 94,
      "chip": "ym2612"
    },
    {
      "channel": 2,
      "note": 83,
      "start": 31.8956,
      "duration": 0.1017,
      "velocity": 97,
      "chip": "ym2612"
    },
    {
      "channel": 0,
      "note": 56,
      "start": 31.9968,
      "duration": 0.1154,
      "velocity": 94,
      "chip": "ym2612"
    },
    {
      "channel": 2,
      "note": 85,
      "start": 31.9975,
      "duration": 0.1174,
      "velocity": 97,
      "chip": "ym2612"
    },
    {
      "channel": 0,
      "note": 49,
      "start": 32.1124,
      "duration": 0.1088,
      "velocity": 94,
      "chip": "ym2612"
    },
    {
      "channel": 1,
      "note": 49,
      "start": 32.1145,
      "duration": 0.1072,
      "velocity": 96,
      "chip": "ym2612"
    },
    {
      "channel": 2,
      "note": 73,
      "start": 32.1151,
      "duration": 0.1072,
      "velocity": 97,
      "chip": "ym2612"
    },
    {
      "channel": 3,
      "note": 49,
      "start": 32.1157,
      "duration": 3.509,
      "velocity": 127,
      "chip": "ym2612"
    },
    {
      "channel": 0,
      "note": 61,
      "start": 32.2214,
      "duration": 0.1095,
      "velocity": 94,
      "chip": "ym2612"
    },
    {
      "channel": 1,
      "note": 49,
      "start": 32.2219,
      "duration": 0.2134,
      "velocity": 96,
      "chip": "ym2612"
    },
    {
      "channel": 2,
      "note": 85,
      "start": 32.2225,
      "duration": 0.109,
      "velocity": 97,
      "chip": "ym2612"
    },
    {
      "channel": 0,
      "note": 49,
      "start": 32.331,
      "duration": 0.1038,
      "velocity": 94,
      "chip": "ym2612"
    },
    {
      "channel": 2,
      "note": 83,
      "start": 32.3317,
      "duration": 0.1043,
      "velocity": 97,
      "chip": "ym2612"
    },
    {
      "channel": 0,
      "note": 59,
      "start": 32.435,
      "duration": 0.1016,
      "velocity": 94,
      "chip": "ym2612"
    },
    {
      "channel": 1,
      "note": 49,
      "start": 32.4355,
      "duration": 0.1017,
      "velocity": 96,
      "chip": "ym2612"
    },
    {
      "channel": 2,
      "note": 85,
      "start": 32.4361,
      "duration": 0.1016,
      "velocity": 97,
      "chip": "ym2612"
    },
    {
      "channel": 0,
      "note": 61,
      "start": 32.5367,
      "duration": 0.1293,
      "velocity": 94,
      "chip": "ym2612"
    },
    {
      "channel": 1,
      "note": 50,
      "start": 32.5373,
      "duration": 0.2401,
      "velocity": 96,
      "chip": "ym2612"
    },
    {
      "channel": 2,
      "note": 73,
      "start": 32.5378,
      "duration": 0.1288,
      "velocity": 97,
      "chip": "ym2612"
    },
    {
      "channel": 0,
      "note": 47,
      "start": 32.6662,
      "duration": 0.1106,
      "velocity": 94,
      "chip": "ym2612"
    },
    {
      "channel": 2,
      "note": 85,
      "start": 32.6668,
      "duration": 0.1112,
      "velocity": 97,
      "chip": "ym2612"
    },
    {
      "channel": 0,
      "note": 62,
      "start": 32.777,
      "duration": 0.1037,
      "velocity": 94,
      "chip": "ym2612"
    },
    {
      "channel": 1,
      "note": 47,
      "start": 32.7776,
      "duration": 0.1037,
      "velocity": 96,
      "chip": "ym2612"
    },
    {
      "channel": 2,
      "note": 83,
      "start": 32.7781,
      "duration": 0.1036,
      "velocity": 97,
      "chip": "ym2612"
    },
    {
      "channel": 0,
      "note": 59,
      "start": 32.8808,
      "duration": 0.1039,
      "velocity": 94,
      "chip": "ym2612"
    },
    {
      "channel": 1,
      "note": 49,
      "start": 32.8814,
      "duration": 0.213,
      "velocity": 96,
      "chip": "ym2612"
    },
    {
      "channel": 2,
      "note": 85,
      "start": 32.8819,
      "duration": 0.1034,
      "velocity": 97,
      "chip": "ym2612"
    },
    {
      "channel": 0,
      "note": 49,
      "start": 32.9849,
      "duration": 0.109,
      "velocity": 94,
      "chip": "ym2612"
    },
    {
      "channel": 2,
      "note": 73,
      "start": 32.9854,
      "duration": 0.1096,
      "velocity": 97,
      "chip": "ym2612"
    },
    {
      "channel": 0,
      "note": 61,
      "start": 33.094,
      "duration": 0.1278,
      "velocity": 94,
      "chip": "ym2612"
    },
    {
      "channel": 1,
      "note": 49,
      "start": 33.0946,
      "duration": 0.234,
      "velocity": 96,
      "chip": "ym2612"
    },
    {
      "channel": 2,
      "note": 85,
      "start": 33.0952,
      "duration": 0.1273,
      "velocity": 97,
      "chip": "ym2612"
    },
    {
      "channel": 0,
      "note": 47,
      "start": 33.222,
      "duration": 0.106,
      "velocity": 94,
      "chip": "ym2612"
    },
    {
      "channel": 2,
      "note": 83,
      "start": 33.2227,
      "duration": 0.1065,
      "velocity": 97,
      "chip": "ym2612"
    },
    {
      "channel": 0,
      "note": 49,
      "start": 33.3282,
      "duration": 0.1036,
      "velocity": 94,
      "chip": "ym2612"
    },
    {
      "channel": 1,
      "note": 49,
      "start": 33.3288,
      "duration": 0.1036,
      "velocity": 96,
      "chip": "ym2612"
    },
    {
      "channel": 2,
      "note": 85,
      "start": 33.3293,
      "duration": 0.1037,
      "velocity": 97,
      "chip": "ym2612"
    },
    {
      "channel": 0,
      "note": 61,
      "start": 33.432,
      "duration": 0.1114,
      "velocity": 94,
      "chip": "ym2612"
    },
    {
      "channel": 1,
      "note": 50,
      "start": 33.4326,
      "duration": 0.1114,
      "velocity": 96,
      "chip": "ym2612"
    },
    {
      "channel": 2,
      "note": 73,
      "start": 33.4331,
      "duration": 0.1114,
      "velocity": 97,
      "chip": "ym2612"
    },
    {
      "channel": 0,
      "note": 47,
      "start": 33.5436,
      "duration": 0.1092,
      "velocity": 94,
      "chip": "ym2612"
    },
    {
      "channel": 1,
      "note": 50,
      "start": 33.5441,
      "duration": 0.1092,
      "velocity": 96,
      "chip": "ym2612"
    },
    {
      "channel": 2,
      "note": 85,
      "start": 33.5447,
      "duration": 0.1092,
      "velocity": 97,
      "chip": "ym2612"
    },
    {
      "channel": 0,
      "note": 62,
      "start": 33.6529,
      "duration": 0.1115,
      "velocity": 94,
      "chip": "ym2612"
    },
    {
      "channel": 1,
      "note": 47,
      "start": 33.6535,
      "duration": 0.1114,
      "velocity": 96,
      "chip": "ym2612"
    },
    {
      "channel": 2,
      "note": 83,
      "start": 33.6541,
      "duration": 0.1114,
      "velocity": 97,
      "chip": "ym2612"
    },
    {
      "channel": 0,
      "note": 59,
      "start": 33.7646,
      "duration": 0.0998,
      "velocity": 94,
      "chip": "ym2612"
    },
    {
      "channel": 1,
      "note": 44,
      "start": 33.7651,
      "duration": 0.1014,
      "velocity": 102,
      "chip": "ym2612"
    },
    {
      "channel": 2,
      "note": 85,
      "start": 33.7657,
      "duration": 0.1013,
      "velocity": 97,
      "chip": "ym2612"
    },
    {
      "channel": 0,
      "note": 49,
      "start": 33.8645,
      "duration": 0.1086,
      "velocity": 94,
      "chip": "ym2612"
    },
    {
      "channel": 1,
      "note": 73,
      "start": 33.8667,
      "duration": 1.7552,
      "velocity": 102,
      "chip": "ym2612"
    },
    {
      "channel": 2,
      "note": 70,
      "start": 33.8673,
      "duration": 0.1081,
      "velocity": 97,
      "chip": "ym2612"
    },
    {
      "channel": 0,
      "note": 61,
      "start": 33.9733,
      "duration": 0.1113,
      "velocity": 94,
      "chip": "ym2612"
    },
    {
      "channel": 2,
      "note": 82,
      "start": 33.9756,
      "duration": 0.1113,
      "velocity": 97,
      "chip": "ym2612"
    },
    {
      "channel": 0,
      "note": 47,
      "start": 34.0848,
      "duration": 0.0994,
      "velocity": 94,
      "chip": "ym2612"
    },
    {
      "channel": 2,
      "note": 80,
      "start": 34.087,
      "duration": 0.0994,
      "velocity": 97,
      "chip": "ym2612"
    },
    {
      "channel": 0,
      "note": 49,
      "start": 34.1844,
      "duration": 0.1192,
      "velocity": 94,
      "chip": "ym2612"
    },
    {
      "channel": 2,
      "note": 82,
      "start": 34.1866,
      "duration": 0.1192,
      "velocity": 97,
      "chip": "ym2612"
    },
    {
      "channel": 0,
      "note": 61,
      "start": 34.3037,
      "duration": 0.1102,
      "velocity": 94,
      "chip": "ym2612"
    },
    {
      "channel": 2,
      "note": 70,
      "start": 34.306,
      "duration": 0.1102,
      "velocity": 97,
      "chip": "ym2612"
    },
    {
      "channel": 0,
      "note": 47,
      "start": 34.4142,
      "duration": 0.1103,
      "velocity": 94,
      "chip": "ym2612"
    },
    {
      "channel": 2,
      "note": 82,
      "start": 34.4164,
      "duration": 0.1103,
      "velocity": 97,
      "chip": "ym2612"
    },
    {
      "channel": 0,
      "note": 62,
      "start": 34.5246,
      "duration": 0.1036,
      "velocity": 94,
      "chip": "ym2612"
    },
    {
      "channel": 2,
      "note": 80,
      "start": 34.5268,
      "duration": 0.1036,
      "velocity": 97,
      "chip": "ym2612"
    },
    {
      "channel": 0,
      "note": 59,
      "start": 34.6283,
      "duration": 0.1039,
      "velocity": 94,
      "chip": "ym2612"
    },
    {
      "channel": 2,
      "note": 82,
      "start": 34.6306,
      "duration": 0.1024,
      "velocity": 97,
      "chip": "ym2612"
    },
    {
      "channel": 0,
      "note": 49,
      "start": 34.7325,
      "duration": 0.1293,
      "velocity": 94,
      "chip": "ym2612"
    },
    {
      "channel": 2,
      "note": 70,
      "start": 34.7331,
      "duration": 0.1293,
      "velocity": 97,
      "chip": "ym2612"
    },
    {
      "channel": 0,
      "note": 61,
      "start": 34.8619,
      "duration": 0.1088,
      "velocity": 94,
      "chip": "ym2612"
    },
    {
      "channel": 2,
      "note": 82,
      "start": 34.8626,
      "duration": 0.1088,
      "velocity": 97,
      "chip": "ym2612"
    },
    {
      "channel": 0,
      "note": 47,
      "start": 34.9709,
      "duration": 0.1106,
      "velocity": 94,
      "chip": "ym2612"
    },
    {
      "channel": 2,
      "note": 80,
      "start": 34.9715,
      "duration": 0.1106,
      "velocity": 97,
      "chip": "ym2612"
    },
    {
      "channel": 0,
      "note": 49,
      "start": 35.0816,
      "duration": 0.1086,
      "velocity": 94,
      "chip": "ym2612"
    },
    {
      "channel": 2,
      "note": 82,
      "start": 35.0822,
      "duration": 0.1086,
      "velocity": 97,
      "chip": "ym2612"
    },
    {
      "channel": 0,
      "note": 61,
      "start": 35.1904,
      "duration": 0.1017,
      "velocity": 94,
      "chip": "ym2612"
    },
    {
      "channel": 2,
      "note": 70,
      "start": 35.191,
      "duration": 0.1017,
      "velocity": 97,
      "chip": "ym2612"
    },
    {
      "channel": 0,
      "note": 47,
      "start": 35.2922,
      "duration": 0.1195,
      "velocity": 94,
      "chip": "ym2612"
    },
    {
      "channel": 2,
      "note": 82,
      "start": 35.2929,
      "duration": 0.1194,
      "velocity": 97,
      "chip": "ym2612"
    },
    {
      "channel": 0,
      "note": 62,
      "start": 35.4119,
      "duration": 0.1039,
      "velocity": 94,
      "chip": "ym2612"
    },
    {
      "channel": 2,
      "note": 80,
      "start": 35.4125,
      "duration": 0.1039,
      "velocity": 97,
      "chip": "ym2612"
    },
    {
      "channel": 0,
      "note": 59,
      "start": 35.516,
      "duration": 0.1038,
      "velocity": 94,
      "chip": "ym2612"
    },
    {
      "channel": 2,
      "note": 82,
      "start": 35.5166,
      "duration": 0.1075,
      "velocity": 102,
      "chip": "ym2612"
    },
    {
      "channel": 0,
      "note": 46,
      "start": 35.62,
      "duration": 0.1065,
      "velocity": 94,
      "chip": "ym2612"
    },
    {
      "channel": 1,
      "note": 70,
      "start": 35.6221,
      "duration": 0.3325,
      "velocity": 102,
      "chip": "ym2612"
    },
    {
      "channel": 2,
      "note": 34,
      "start": 35.6243,
      "duration": 0.2109,
      "velocity": 102,
      "chip": "ym2612"
    },
    {
      "channel": 3,
      "note": 46,
      "start": 35.6249,
      "duration": 4.7412,
      "velocity": 127,
      "chip": "ym2612"
    },
    {
      "channel": 0,
      "note": 58,
      "start": 35.7266,
      "duration": 0.1078,
      "velocity": 94,
      "chip": "ym2612"
    },
    {
      "channel": 0,
      "note": 44,
      "start": 35.8347,
      "duration": 0.1194,
      "velocity": 94,
      "chip": "ym2612"
    },
    {
      "channel": 2,
      "note": 70,
      "start": 35.8353,
      "duration": 0.3292,
      "velocity": 102,
      "chip": "ym2612"
    },
    {
      "channel": 0,
      "note": 46,
      "start": 35.9542,
      "duration": 0.0999,
      "velocity": 94,
      "chip": "ym2612"
    },
    {
      "channel": 1,
      "note": 71,
      "start": 35.9548,
      "duration": 0.2092,
      "velocity": 102,
      "chip": "ym2612"
    },
    {
      "channel": 0,
      "note": 58,
      "start": 36.0543,
      "duration": 0.1091,
      "velocity": 94,
      "chip": "ym2612"
    },
    {
      "channel": 0,
      "note": 44,
      "start": 36.1636,
      "duration": 0.1085,
      "velocity": 94,
      "chip": "ym2612"
    },
    {
      "channel": 1,
      "note": 68,
      "start": 36.1641,
      "duration": 0.1085,
      "velocity": 102,
      "chip": "ym2612"
    },
    {
      "channel": 2,
      "note": 71,
      "start": 36.1647,
      "duration": 0.2099,
      "velocity": 102,
      "chip": "ym2612"
    },
    {
      "channel": 0,
      "note": 59,
      "start": 36.2723,
      "duration": 0.1017,
      "velocity": 94,
      "chip": "ym2612"
    },
    {
      "channel": 1,
      "note": 65,
      "start": 36.2728,
      "duration": 0.2196,
      "velocity": 102,
      "chip": "ym2612"
    },
    {
      "channel": 0,
      "note": 56,
      "start": 36.3742,
      "duration": 0.1177,
      "velocity": 94,
      "chip": "ym2612"
    },
    {
      "channel": 2,
      "note": 68,
      "start": 36.3748,
      "duration": 0.1181,
      "velocity": 102,
      "chip": "ym2612"
    },
    {
      "channel": 0,
      "note": 46,
      "start": 36.492,
      "duration": 0.111,
      "velocity": 94,
      "chip": "ym2612"
    },
    {
      "channel": 1,
      "note": 58,
      "start": 36.4925,
      "duration": 0.3255,
      "velocity": 102,
      "chip": "ym2612"
    },
    {
      "channel": 2,
      "note": 65,
      "start": 36.4931,
      "duration": 0.2213,
      "velocity": 102,
      "chip": "ym2612"
    },
    {
      "channel": 0,
      "note": 58,
      "start": 36.6032,
      "duration": 0.1107,
      "velocity": 94,
      "chip": "ym2612"
    },
    {
      "channel": 0,
      "note": 44,
      "start": 36.714,
      "duration": 0.1035,
      "velocity": 94,
      "chip": "ym2612"
    },
    {
      "channel": 2,
      "note": 58,
      "start": 36.7146,
      "duration": 0.3335,
      "velocity": 102,
      "chip": "ym2612"
    },
    {
      "channel": 0,
      "note": 46,
      "start": 36.8177,
      "duration": 0.1016,
      "velocity": 94,
      "chip": "ym2612"
    },
    {
      "channel": 1,
      "note": 59,
      "start": 36.8182,
      "duration": 0.2293,
      "velocity": 102,
      "chip": "ym2612"
    },
    {
      "channel": 0,
      "note": 58,
      "start": 36.9195,
      "duration": 0.1275,
      "velocity": 94,
      "chip": "ym2612"
    },
    {
      "channel": 0,
      "note": 44,
      "start": 37.0471,
      "duration": 0.1091,
      "velocity": 94,
      "chip": "ym2612"
    },
    {
      "channel": 1,
      "note": 56,
      "start": 37.0477,
      "duration": 0.1091,
      "velocity": 102,
      "chip": "ym2612"
    },
    {
      "channel": 2,
      "note": 59,
      "start": 37.0482,
      "duration": 0.2105,
      "velocity": 102,
      "chip": "ym2612"
    },
    {
      "channel": 0,
      "note": 59,
      "start": 37.1564,
      "duration": 0.1018,
      "velocity": 94,
      "chip": "ym2612"
    },
    {
      "channel": 1,
      "note": 53,
      "start": 37.157,
      "duration": 3.2091,
      "velocity": 102,
      "chip": "ym2612"
    },
    {
      "channel": 0,
      "note": 56,
      "start": 37.2583,
      "duration": 3.1078,
      "velocity": 94,
      "chip": "ym2612"
    },
    {
      "channel": 2,
      "note": 56,
      "start": 37.259,
      "duration": 3.1072,
      "velocity": 102,
      "chip": "ym2612"
    }
  ]
}