{
  "track_name": "28 - Big Arms",
  "duration_sec": 58.158,
  "sample_rate": 44100,
  "note_count": 789,
  "unique_pitches": 36,
  "pitch_range": 50,
  "avg_note_duration": 0.2995,
  "reconstruction_stats": {
    "notes_reconstructed": 789,
    "keyon_events": 789,
    "keyoff_events": 785,
    "orphan_keyons": 4,
    "unique_pitches": 36,
    "pitch_range": 50,
    "avg_duration_sec": 0.2995
  },
  "metadata": {
    "source": "S\\Sonic 3 & Knuckles\\28 - Big Arms.vgz"
  },
  "notes": [
    {
      "channel": 1,
      "note": 49,
      "start": 0.0,
      "duration": 2.4651,
      "velocity": 111,
      "chip": "ym2612"
    },
    {
      "channel": 2,
      "note": 76,
      "start": 0.003,
      "duration": 1.7962,
      "velocity": 111,
      "chip": "ym2612"
    },
    {
      "channel": 3,
      "note": 71,
      "start": 0.006,
      "duration": 1.7939,
      "velocity": 111,
      "chip": "ym2612"
    },
    {
      "channel": 2,
      "note": 79,
      "start": 1.7999,
      "duration": 0.6659,
      "velocity": 111,
      "chip": "ym2612"
    },
    {
      "channel": 3,
      "note": 75,
      "start": 1.8005,
      "duration": 0.666,
      "velocity": 111,
      "chip": "ym2612"
    },
    {
      "channel": 1,
      "note": 49,
      "start": 2.4656,
      "duration": 1.1501,
      "velocity": 111,
      "chip": "ym2612"
    },
    {
      "channel": 2,
      "note": 78,
      "start": 2.4664,
      "duration": 1.1501,
      "velocity": 111,
      "chip": "ym2612"
    },
    {
      "channel": 3,
      "note": 74,
      "start": 2.4671,
      "duration": 1.1502,
      "velocity": 111,
      "chip": "ym2612"
    },
    {
      "channel": 1,
      "note": 49,
      "start": 3.6163,
      "duration": 2.4994,
      "velocity": 111,
      "chip": "ym2612"
    },
    {
      "channel": 2,
      "note": 76,
      "start": 3.6171,
      "duration": 1.8179,
      "velocity": 111,
      "chip": "ym2612"
    },
    {
      "channel": 3,
      "note": 71,
      "start": 3.6179,
      "duration": 1.8179,
      "velocity": 111,
      "chip": "ym2612"
    },
    {
      "channel": 0,
      "note": 73,
      "start": 5.4345,
      "duration": 0.0638,
      "velocity": 105,
      "chip": "ym2612"
    },
    {
      "channel": 2,
      "note": 79,
      "start": 5.4357,
      "duration": 0.6807,
      "velocity": 111,
      "chip": "ym2612"
    },
    {
      "channel": 3,
      "note": 75,
      "start": 5.4364,
      "duration": 0.6808,
      "velocity": 111,
      "chip": "ym2612"
    },
    {
      "channel": 0,
      "note": 74,
      "start": 5.4989,
      "duration": 0.0828,
      "velocity": 105,
      "chip": "ym2612"
    },
    {
      "channel": 0,
      "note": 76,
      "start": 5.5822,
      "duration": 0.0661,
      "velocity": 105,
      "chip": "ym2612"
    },
    {
      "channel": 0,
      "note": 78,
      "start": 5.6489,
      "duration": 0.0828,
      "velocity": 105,
      "chip": "ym2612"
    },
    {
      "channel": 4,
      "note": 73,
      "start": 5.6529,
      "duration": 0.0807,
      "velocity": 105,
      "chip": "ym2612"
    },
    {
      "channel": 0,
      "note": 74,
      "start": 5.7322,
      "duration": 0.0661,
      "velocity": 105,
      "chip": "ym2612"
    },
    {
      "channel": 4,
      "note": 74,
      "start": 5.7341,
      "duration": 0.0661,
      "velocity": 105,
      "chip": "ym2612"
    },
    {
      "channel": 0,
      "note": 76,
      "start": 5.7989,
      "duration": 0.0828,
      "velocity": 105,
      "chip": "ym2612"
    },
    {
      "channel": 4,
      "note": 76,
      "start": 5.8008,
      "duration": 0.0827,
      "velocity": 105,
      "chip": "ym2612"
    },
    {
      "channel": 0,
      "note": 78,
      "start": 5.8822,
      "duration": 0.0828,
      "velocity": 105,
      "chip": "ym2612"
    },
    {
      "channel": 4,
      "note": 78,
      "start": 5.8841,
      "duration": 0.0828,
      "velocity": 105,
      "chip": "ym2612"
    },
    {
      "channel": 0,
      "note": 80,
      "start": 5.9656,
      "duration": 0.0661,
      "velocity": 105,
      "chip": "ym2612"
    },
    {
      "channel": 4,
      "note": 74,
      "start": 5.9675,
      "duration": 0.066,
      "velocity": 105,
      "chip": "ym2612"
    },
    {
      "channel": 0,
      "note": 76,
      "start": 6.0322,
      "duration": 0.0828,
      "velocity": 105,
      "chip": "ym2612"
    },
    {
      "channel": 4,
      "note": 76,
      "start": 6.0341,
      "duration": 0.0838,
      "velocity": 105,
      "chip": "ym2612"
    },
    {
      "channel": 0,
      "note": 78,
      "start": 6.1156,
      "duration": 0.0661,
      "velocity": 105,
      "chip": "ym2612"
    },
    {
      "channel": 1,
      "note": 49,
      "start": 6.1163,
      "duration": 1.1333,
      "velocity": 111,
      "chip": "ym2612"
    },
    {
      "channel": 2,
      "note": 78,
      "start": 6.117,
      "duration": 1.1334,
      "velocity": 111,
      "chip": "ym2612"
    },
    {
      "channel": 3,
      "note": 74,
      "start": 6.1178,
      "duration": 1.1334,
      "velocity": 111,
      "chip": "ym2612"
    },
    {
      "channel": 4,
      "note": 78,
      "start": 6.1185,
      "duration": 0.0648,
      "velocity": 105,
      "chip": "ym2612"
    },
    {
      "channel": 0,
      "note": 80,
      "start": 6.1822,
      "duration": 0.0828,
      "velocity": 105,
      "chip": "ym2612"
    },
    {
      "channel": 4,
      "note": 80,
      "start": 6.1838,
      "duration": 0.0827,
      "velocity": 105,
      "chip": "ym2612"
    },
    {
      "channel": 0,
      "note": 81,
      "start": 6.2656,
      "duration": 0.0661,
      "velocity": 105,
      "chip": "ym2612"
    },
    {
      "channel": 4,
      "note": 76,
      "start": 6.2672,
      "duration": 0.0664,
      "velocity": 105,
      "chip": "ym2612"
    },
    {
      "channel": 0,
      "note": 78,
      "start": 6.3322,
      "duration": 0.0828,
      "velocity": 105,
      "chip": "ym2612"
    },
    {
      "channel": 4,
      "note": 78,
      "start": 6.3341,
      "duration": 0.0827,
      "velocity": 105,
      "chip": "ym2612"
    },
    {
      "channel": 0,
      "note": 80,
      "start": 6.4156,
      "duration": 0.0661,
      "velocity": 105,
      "chip": "ym2612"
    },
    {
      "channel": 4,
      "note": 80,
      "start": 6.4175,
      "duration": 0.0661,
      "velocity": 105,
      "chip": "ym2612"
    },
    {
      "channel": 0,
      "note": 81,
      "start": 6.4822,
      "duration": 0.0828,
      "velocity": 105,
      "chip": "ym2612"
    },
    {
      "channel": 4,
      "note": 81,
      "start": 6.4841,
      "duration": 0.0827,
      "velocity": 105,
      "chip": "ym2612"
    },
    {
      "channel": 0,
      "note": 83,
      "start": 6.5656,
      "duration": 0.0662,
      "velocity": 105,
      "chip": "ym2612"
    },
    {
      "channel": 4,
      "note": 78,
      "start": 6.5675,
      "duration": 0.0662,
      "velocity": 105,
      "chip": "ym2612"
    },
    {
      "channel": 0,
      "note": 80,
      "start": 6.6324,
      "duration": 0.0826,
      "velocity": 105,
      "chip": "ym2612"
    },
    {
      "channel": 4,
      "note": 80,
      "start": 6.6343,
      "duration": 0.0826,
      "velocity": 105,
      "chip": "ym2612"
    },
    {
      "channel": 0,
      "note": 81,
      "start": 6.7156,
      "duration": 0.0661,
      "velocity": 105,
      "chip": "ym2612"
    },
    {
      "channel": 4,
      "note": 81,
      "start": 6.7175,
      "duration": 0.0661,
      "velocity": 105,
      "chip": "ym2612"
    },
    {
      "channel": 0,
      "note": 83,
      "start": 6.7822,
      "duration": 0.0828,
      "velocity": 105,
      "chip": "ym2612"
    },
    {
      "channel": 4,
      "note": 83,
      "start": 6.7841,
      "duration": 0.0827,
      "velocity": 105,
      "chip": "ym2612"
    },
    {
      "channel": 0,
      "note": 85,
      "start": 6.8656,
      "duration": 0.0828,
      "velocity": 105,
      "chip": "ym2612"
    },
    {
      "channel": 4,
      "note": 80,
      "start": 6.8675,
      "duration": 0.0828,
      "velocity": 105,
      "chip": "ym2612"
    },
    {
      "channel": 0,
      "note": 81,
      "start": 6.9489,
      "duration": 0.0661,
      "velocity": 105,
      "chip": "ym2612"
    },
    {
      "channel": 4,
      "note": 81,
      "start": 6.9509,
      "duration": 0.066,
      "velocity": 105,
      "chip": "ym2612"
    },
    {
      "channel": 0,
      "note": 83,
      "start": 7.0156,
      "duration": 0.0828,
      "velocity": 105,
      "chip": "ym2612"
    },
    {
      "channel": 4,
      "note": 83,
      "start": 7.0175,
      "duration": 0.0827,
      "velocity": 105,
      "chip": "ym2612"
    },
    {
      "channel": 0,
      "note": 85,
      "start": 7.0989,
      "duration": 0.0661,
      "velocity": 105,
      "chip": "ym2612"
    },
    {
      "channel": 4,
      "note": 85,
      "start": 7.1008,
      "duration": 0.0661,
      "velocity": 105,
      "chip": "ym2612"
    },
    {
      "channel": 0,
      "note": 86,
      "start": 7.1656,
      "duration": 0.0831,
      "velocity": 105,
      "chip": "ym2612"
    },
    {
      "channel": 4,
      "note": 81,
      "start": 7.1675,
      "duration": 0.0845,
      "velocity": 105,
      "chip": "ym2612"
    },
    {
      "channel": 0,
      "note": 88,
      "start": 7.2492,
      "duration": 1.4665,
      "velocity": 105,
      "chip": "ym2612"
    },
    {
      "channel": 1,
      "note": 49,
      "start": 7.2502,
      "duration": 2.0737,
      "velocity": 111,
      "chip": "ym2612"
    },
    {
      "channel": 2,
      "note": 76,
      "start": 7.251,
      "duration": 1.4654,
      "velocity": 111,
      "chip": "ym2612"
    },
    {
      "channel": 3,
      "note": 71,
      "start": 7.2518,
      "duration": 1.4653,
      "velocity": 111,
      "chip": "ym2612"
    },
    {
      "channel": 4,
      "note": 83,
      "start": 7.2526,
      "duration": 0.0127,
      "velocity": 105,
      "chip": "ym2612"
    },
    {
      "channel": 4,
      "note": 85,
      "start": 7.2659,
      "duration": 0.0587,
      "velocity": 105,
      "chip": "ym2612"
    },
    {
      "channel": 4,
      "note": 86,
      "start": 7.3251,
      "duration": 0.0665,
      "velocity": 105,
      "chip": "ym2612"
    },
    {
      "channel": 4,
      "note": 88,
      "start": 7.3923,
      "duration": 1.4661,
      "velocity": 105,
      "chip": "ym2612"
    },
    {
      "channel": 2,
      "note": 79,
      "start": 8.7169,
      "duration": 0.6076,
      "velocity": 111,
      "chip": "ym2612"
    },
    {
      "channel": 3,
      "note": 75,
      "start": 8.7177,
      "duration": 0.6076,
      "velocity": 111,
      "chip": "ym2612"
    },
    {
      "channel": 1,
      "note": 49,
      "start": 9.3244,
      "duration": 0.8589,
      "velocity": 111,
      "chip": "ym2612"
    },
    {
      "channel": 2,
      "note": 78,
      "start": 9.3252,
      "duration": 0.859,
      "velocity": 111,
      "chip": "ym2612"
    },
    {
      "channel": 3,
      "note": 74,
      "start": 9.3259,
      "duration": 0.8591,
      "velocity": 111,
      "chip": "ym2612"
    },
    {
      "channel": 1,
      "note": 49,
      "start": 10.1839,
      "duration": 2.0752,
      "velocity": 111,
      "chip": "ym2612"
    },
    {
      "channel": 2,
      "note": 76,
      "start": 10.1847,
      "duration": 1.4664,
      "velocity": 111,
      "chip": "ym2612"
    },
    {
      "channel": 3,
      "note": 71,
      "start": 10.1856,
      "duration": 1.4663,
      "velocity": 111,
      "chip": "ym2612"
    },
    {
      "channel": 0,
      "note": 73,
      "start": 11.6506,
      "duration": 0.0161,
      "velocity": 105,
      "chip": "ym2612"
    },
    {
      "channel": 2,
      "note": 79,
      "start": 11.6517,
      "duration": 0.6081,
      "velocity": 111,
      "chip": "ym2612"
    },
    {
      "channel": 3,
      "note": 75,
      "start": 11.6525,
      "duration": 0.6081,
      "velocity": 111,
      "chip": "ym2612"
    },
    {
      "channel": 0,
      "note": 74,
      "start": 11.6673,
      "duration": 0.0576,
      "velocity": 105,
      "chip": "ym2612"
    },
    {
      "channel": 0,
      "note": 76,
      "start": 11.7254,
      "duration": 0.0828,
      "velocity": 105,
      "chip": "ym2612"
    },
    {
      "channel": 0,
      "note": 78,
      "start": 11.8088,
      "duration": 0.0661,
      "velocity": 105,
      "chip": "ym2612"
    },
    {
      "channel": 4,
      "note": 73,
      "start": 11.8107,
      "duration": 0.066,
      "velocity": 105,
      "chip": "ym2612"
    },
    {
      "channel": 0,
      "note": 74,
      "start": 11.8754,
      "duration": 0.0828,
      "velocity": 105,
      "chip": "ym2612"
    },
    {
      "channel": 4,
      "note": 74,
      "start": 11.8773,
      "duration": 0.0827,
      "velocity": 105,
      "chip": "ym2612"
    },
    {
      "channel": 0,
      "note": 76,
      "start": 11.9588,
      "duration": 0.0661,
      "velocity": 105,
      "chip": "ym2612"
    },
    {
      "channel": 4,
      "note": 76,
      "start": 11.9607,
      "duration": 0.0661,
      "velocity": 105,
      "chip": "ym2612"
    },
    {
      "channel": 0,
      "note": 78,
      "start": 12.0254,
      "duration": 0.0828,
      "velocity": 105,
      "chip": "ym2612"
    },
    {
      "channel": 4,
      "note": 78,
      "start": 12.0273,
      "duration": 0.0828,
      "velocity": 105,
      "chip": "ym2612"
    },
    {
      "channel": 0,
      "note": 80,
      "start": 12.1088,
      "duration": 0.0661,
      "velocity": 105,
      "chip": "ym2612"
    },
    {
      "channel": 4,
      "note": 74,
      "start": 12.1107,
      "duration": 0.066,
      "velocity": 105,
      "chip": "ym2612"
    },
    {
      "channel": 0,
      "note": 76,
      "start": 12.1754,
      "duration": 0.083,
      "velocity": 105,
      "chip": "ym2612"
    },
    {
      "channel": 4,
      "note": 76,
      "start": 12.1773,
      "duration": 0.084,
      "velocity": 105,
      "chip": "ym2612"
    },
    {
      "channel": 0,
      "note": 78,
      "start": 12.259,
      "duration": 0.0142,
      "velocity": 105,
      "chip": "ym2612"
    },
    {
      "channel": 1,
      "note": 49,
      "start": 12.2597,
      "duration": 0.4526,
      "velocity": 111,
      "chip": "ym2612"
    },
    {
      "channel": 2,
      "note": 78,
      "start": 12.2605,
      "duration": 0.4526,
      "velocity": 111,
      "chip": "ym2612"
    },
    {
      "channel": 3,
      "note": 74,
      "start": 12.2612,
      "duration": 0.4527,
      "velocity": 111,
      "chip": "ym2612"
    },
    {
      "channel": 4,
      "note": 78,
      "start": 12.262,
      "duration": 0.0129,
      "velocity": 105,
      "chip": "ym2612"
    },
    {
      "channel": 0,
      "note": 80,
      "start": 12.2739,
      "duration": 0.0594,
      "velocity": 105,
      "chip": "ym2612"
    },
    {
      "channel": 4,
      "note": 80,
      "start": 12.2754,
      "duration": 0.0594,
      "velocity": 105,
      "chip": "ym2612"
    },
    {
      "channel": 0,
      "note": 81,
      "start": 12.3338,
      "duration": 0.0663,
      "velocity": 105,
      "chip": "ym2612"
    },
    {
      "channel": 4,
      "note": 76,
      "start": 12.3354,
      "duration": 0.0666,
      "velocity": 105,
      "chip": "ym2612"
    },
    {
      "channel": 0,
      "note": 78,
      "start": 12.4008,
      "duration": 0.018,
      "velocity": 105,
      "chip": "ym2612"
    },
    {
      "channel": 4,
      "note": 78,
      "start": 12.4026,
      "duration": 0.018,
      "velocity": 105,
      "chip": "ym2612"
    },
    {
      "channel": 0,
      "note": 80,
      "start": 12.4193,
      "duration": 0.0179,
      "velocity": 105,
      "chip": "ym2612"
    },
    {
      "channel": 4,
      "note": 80,
      "start": 12.4212,
      "duration": 0.0178,
      "velocity": 105,
      "chip": "ym2612"
    },
    {
      "channel": 0,
      "note": 81,
      "start": 12.4378,
      "duration": 0.0146,
      "velocity": 105,
      "chip": "ym2612"
    },
    {
      "channel": 4,
      "note": 81,
      "start": 12.4397,
      "duration": 0.0146,
      "velocity": 105,
      "chip": "ym2612"
    },
    {
      "channel": 0,
      "note": 83,
      "start": 12.4529,
      "duration": 0.0179,
      "velocity": 105,
      "chip": "ym2612"
    },
    {
      "channel": 4,
      "note": 78,
      "start": 12.4549,
      "duration": 0.018,
      "velocity": 105,
      "chip": "ym2612"
    },
    {
      "channel": 0,
      "note": 80,
      "start": 12.4714,
      "duration": 0.0558,
      "velocity": 105,
      "chip": "ym2612"
    },
    {
      "channel": 4,
      "note": 80,
      "start": 12.4734,
      "duration": 0.0558,
      "velocity": 105,
      "chip": "ym2612"
    },
    {
      "channel": 0,
      "note": 81,
      "start": 12.5278,
      "duration": 0.083,
      "velocity": 105,
      "chip": "ym2612"
    },
    {
      "channel": 4,
      "note": 81,
      "start": 12.5298,
      "duration": 0.0829,
      "velocity": 105,
      "chip": "ym2612"
    },
    {
      "channel": 0,
      "note": 83,
      "start": 12.6114,
      "duration": 0.0144,
      "velocity": 105,
      "chip": "ym2612"
    },
    {
      "channel": 4,
      "note": 83,
      "start": 12.6133,
      "duration": 0.0144,
      "velocity": 105,
      "chip": "ym2612"
    },
    {
      "channel": 0,
      "note": 85,
      "start": 12.6264,
      "duration": 0.0178,
      "velocity": 105,
      "chip": "ym2612"
    },
    {
      "channel": 4,
      "note": 80,
      "start": 12.6283,
      "duration": 0.0179,
      "velocity": 105,
      "chip": "ym2612"
    },
    {
      "channel": 0,
      "note": 81,
      "start": 12.6447,
      "duration": 0.0146,
      "velocity": 105,
      "chip": "ym2612"
    },
    {
      "channel": 4,
      "note": 81,
      "start": 12.6468,
      "duration": 0.0145,
      "velocity": 105,
      "chip": "ym2612"
    },
    {
      "channel": 0,
      "note": 83,
      "start": 12.66,
      "duration": 0.0181,
      "velocity": 105,
      "chip": "ym2612"
    },
    {
      "channel": 4,
      "note": 83,
      "start": 12.6619,
      "duration": 0.0181,
      "velocity": 105,
      "chip": "ym2612"
    },
    {
      "channel": 0,
      "note": 85,
      "start": 12.6786,
      "duration": 0.0144,
      "velocity": 105,
      "chip": "ym2612"
    },
    {
      "channel": 4,
      "note": 85,
      "start": 12.6805,
      "duration": 0.0143,
      "velocity": 105,
      "chip": "ym2612"
    },
    {
      "channel": 0,
      "note": 86,
      "start": 12.6935,
      "duration": 0.018,
      "velocity": 105,
      "chip": "ym2612"
    },
    {
      "channel": 4,
      "note": 81,
      "start": 12.6955,
      "duration": 0.0192,
      "velocity": 105,
      "chip": "ym2612"
    },
    {
      "channel": 0,
      "note": 88,
      "start": 12.7121,
      "duration": 1.077,
      "velocity": 105,
      "chip": "ym2612"
    },
    {
      "channel": 1,
      "note": 49,
      "start": 12.7129,
      "duration": 1.077,
      "velocity": 111,
      "chip": "ym2612"
    },
    {
      "channel": 2,
      "note": 76,
      "start": 12.7137,
      "duration": 1.0789,
      "velocity": 111,
      "chip": "ym2612"
    },
    {
      "channel": 3,
      "note": 71,
      "start": 12.7145,
      "duration": 1.081,
      "velocity": 111,
      "chip": "ym2612"
    },
    {
      "channel": 4,
      "note": 83,
      "start": 12.7153,
      "duration": 0.062,
      "velocity": 105,
      "chip": "ym2612"
    },
    {
      "channel": 4,
      "note": 85,
      "start": 12.7778,
      "duration": 0.0661,
      "velocity": 105,
      "chip": "ym2612"
    },
    {
      "channel": 4,
      "note": 86,
      "start": 12.8445,
      "duration": 0.0833,
      "velocity": 105,
      "chip": "ym2612"
    },
    {
      "channel": 4,
      "note": 88,
      "start": 12.9284,
      "duration": 1.0205,
      "velocity": 105,
      "chip": "ym2612"
    },
    {
      "channel": 0,
      "note": 85,
      "start": 13.7897,
      "duration": 0.2224,
      "velocity": 105,
      "chip": "ym2612"
    },
    {
      "channel": 1,
      "note": 49,
      "start": 13.7904,
      "duration": 0.0718,
      "velocity": 111,
      "chip": "ym2612"
    },
    {
      "channel": 2,
      "note": 76,
      "start": 13.7933,
      "duration": 0.5878,
      "velocity": 111,
      "chip": "ym2612"
    },
    {
      "channel": 3,
      "note": 71,
      "start": 13.7961,
      "duration": 0.5858,
      "velocity": 111,
      "chip": "ym2612"
    },
    {
      "channel": 1,
      "note": 49,
      "start": 13.8628,
      "duration": 0.1501,
      "velocity": 111,
      "chip": "ym2612"
    },
    {
      "channel": 4,
      "note": 85,
      "start": 13.9495,
      "duration": 0.114,
      "velocity": 105,
      "chip": "ym2612"
    },
    {
      "channel": 0,
      "note": 80,
      "start": 14.0128,
      "duration": 0.0997,
      "velocity": 105,
      "chip": "ym2612"
    },
    {
      "channel": 1,
      "note": 56,
      "start": 14.0135,
      "duration": 0.0306,
      "velocity": 111,
      "chip": "ym2612"
    },
    {
      "channel": 1,
      "note": 49,
      "start": 14.0447,
      "duration": 0.0685,
      "velocity": 111,
      "chip": "ym2612"
    },
    {
      "channel": 4,
      "note": 80,
      "start": 14.0641,
      "duration": 0.1434,
      "velocity": 105,
      "chip": "ym2612"
    },
    {
      "channel": 0,
      "note": 88,
      "start": 14.1131,
      "duration": 0.1496,
      "velocity": 105,
      "chip": "ym2612"
    },
    {
      "channel": 1,
      "note": 49,
      "start": 14.1138,
      "duration": 0.0741,
      "velocity": 111,
      "chip": "ym2612"
    },
    {
      "channel": 1,
      "note": 59,
      "start": 14.1884,
      "duration": 0.075,
      "velocity": 111,
      "chip": "ym2612"
    },
    {
      "channel": 4,
      "note": 88,
      "start": 14.208,
      "duration": 0.106,
      "velocity": 105,
      "chip": "ym2612"
    },
    {
      "channel": 0,
      "note": 83,
      "start": 14.2634,
      "duration": 0.1163,
      "velocity": 105,
      "chip": "ym2612"
    },
    {
      "channel": 1,
      "note": 49,
      "start": 14.2641,
      "duration": 0.0341,
      "velocity": 111,
      "chip": "ym2612"
    },
    {
      "channel": 1,
      "note": 49,
      "start": 14.2987,
      "duration": 0.0817,
      "velocity": 111,
      "chip": "ym2612"
    },
    {
      "channel": 4,
      "note": 83,
      "start": 14.3146,
      "duration": 0.208,
      "velocity": 105,
      "chip": "ym2612"
    },
    {
      "channel": 0,
      "note": 87,
      "start": 14.3803,
      "duration": 0.2244,
      "velocity": 105,
      "chip": "ym2612"
    },
    {
      "channel": 1,
      "note": 58,
      "start": 14.381,
      "duration": 0.0737,
      "velocity": 111,
      "chip": "ym2612"
    },
    {
      "channel": 2,
      "note": 79,
      "start": 14.3818,
      "duration": 0.2559,
      "velocity": 111,
      "chip": "ym2612"
    },
    {
      "channel": 3,
      "note": 75,
      "start": 14.3825,
      "duration": 0.2559,
      "velocity": 111,
      "chip": "ym2612"
    },
    {
      "channel": 1,
      "note": 49,
      "start": 14.4554,
      "duration": 0.1501,
      "velocity": 111,
      "chip": "ym2612"
    },
    {
      "channel": 4,
      "note": 87,
      "start": 14.5232,
      "duration": 0.1293,
      "velocity": 105,
      "chip": "ym2612"
    },
    {
      "channel": 0,
      "note": 82,
      "start": 14.6054,
      "duration": 0.1063,
      "velocity": 105,
      "chip": "ym2612"
    },
    {
      "channel": 1,
      "note": 56,
      "start": 14.6061,
      "duration": 0.0309,
      "velocity": 111,
      "chip": "ym2612"
    },
    {
      "channel": 1,
      "note": 49,
      "start": 14.6375,
      "duration": 0.0748,
      "velocity": 111,
      "chip": "ym2612"
    },
    {
      "channel": 2,
      "note": 78,
      "start": 14.6382,
      "duration": 0.3002,
      "velocity": 111,
      "chip": "ym2612"
    },
    {
      "channel": 3,
      "note": 74,
      "start": 14.639,
      "duration": 0.3002,
      "velocity": 111,
      "chip": "ym2612"
    },
    {
      "channel": 4,
      "note": 82,
      "start": 14.6532,
      "duration": 0.2284,
      "velocity": 105,
      "chip": "ym2612"
    },
    {
      "channel": 0,
      "note": 74,
      "start": 14.7122,
      "duration": 0.2248,
      "velocity": 105,
      "chip": "ym2612"
    },
    {
      "channel": 1,
      "note": 54,
      "start": 14.7129,
      "duration": 0.1493,
      "velocity": 111,
      "chip": "ym2612"
    },
    {
      "channel": 1,
      "note": 49,
      "start": 14.8627,
      "duration": 0.075,
      "velocity": 111,
      "chip": "ym2612"
    },
    {
      "channel": 4,
      "note": 74,
      "start": 14.8822,
      "duration": 0.1034,
      "velocity": 105,
      "chip": "ym2612"
    },
    {
      "channel": 0,
      "note": 86,
      "start": 14.9376,
      "duration": 0.1019,
      "velocity": 105,
      "chip": "ym2612"
    },
    {
      "channel": 1,
      "note": 49,
      "start": 14.9383,
      "duration": 0.0287,
      "velocity": 111,
      "chip": "ym2612"
    },
    {
      "channel": 2,
      "note": 78,
      "start": 14.939,
      "duration": 0.1041,
      "velocity": 111,
      "chip": "ym2612"
    },
    {
      "channel": 3,
      "note": 74,
      "start": 14.9398,
      "duration": 0.1063,
      "velocity": 111,
      "chip": "ym2612"
    },
    {
      "channel": 1,
      "note": 54,
      "start": 14.9676,
      "duration": 0.0726,
      "velocity": 111,
      "chip": "ym2612"
    },
    {
      "channel": 4,
      "note": 86,
      "start": 14.9861,
      "duration": 0.2132,
      "velocity": 105,
      "chip": "ym2612"
    },
    {
      "channel": 0,
      "note": 85,
      "start": 15.0401,
      "duration": 0.239,
      "velocity": 105,
      "chip": "ym2612"
    },
    {
      "channel": 1,
      "note": 49,
      "start": 15.0408,
      "duration": 0.0717,
      "velocity": 111,
      "chip": "ym2612"
    },
    {
      "channel": 2,
      "note": 76,
      "start": 15.0437,
      "duration": 0.5878,
      "velocity": 111,
      "chip": "ym2612"
    },
    {
      "channel": 3,
      "note": 71,
      "start": 15.0466,
      "duration": 0.5856,
      "velocity": 111,
      "chip": "ym2612"
    },
    {
      "channel": 1,
      "note": 49,
      "start": 15.1131,
      "duration": 0.1668,
      "velocity": 111,
      "chip": "ym2612"
    },
    {
      "channel": 4,
      "note": 85,
      "start": 15.1999,
      "duration": 0.127,
      "velocity": 105,
      "chip": "ym2612"
    },
    {
      "channel": 0,
      "note": 80,
      "start": 15.2797,
      "duration": 0.0997,
      "velocity": 105,
      "chip": "ym2612"
    },
    {
      "channel": 1,
      "note": 54,
      "start": 15.2804,
      "duration": 0.0307,
      "velocity": 111,
      "chip": "ym2612"
    },
    {
      "channel": 1,
      "note": 49,
      "start": 15.3117,
      "duration": 0.0685,
      "velocity": 111,
      "chip": "ym2612"
    },
    {
      "channel": 4,
      "note": 80,
      "start": 15.3274,
      "duration": 0.1434,
      "velocity": 105,
      "chip": "ym2612"
    },
    {
      "channel": 0,
      "note": 88,
      "start": 15.38,
      "duration": 0.1498,
      "velocity": 105,
      "chip": "ym2612"
    },
    {
      "channel": 1,
      "note": 49,
      "start": 15.3807,
      "duration": 0.0741,
      "velocity": 111,
      "chip": "ym2612"
    },
    {
      "channel": 1,
      "note": 56,
      "start": 15.4554,
      "duration": 0.0751,
      "velocity": 111,
      "chip": "ym2612"
    },
    {
      "channel": 4,
      "note": 88,
      "start": 15.4714,
      "duration": 0.106,
      "velocity": 105,
      "chip": "ym2612"
    },
    {
      "channel": 0,
      "note": 83,
      "start": 15.5304,
      "duration": 0.0997,
      "velocity": 105,
      "chip": "ym2612"
    },
    {
      "channel": 1,
      "note": 49,
      "start": 15.5311,
      "duration": 0.0306,
      "velocity": 111,
      "chip": "ym2612"
    },
    {
      "channel": 1,
      "note": 49,
      "start": 15.5623,
      "duration": 0.0685,
      "velocity": 111,
      "chip": "ym2612"
    },
    {
      "channel": 4,
      "note": 83,
      "start": 15.578,
      "duration": 0.2117,
      "velocity": 105,
      "chip": "ym2612"
    },
    {
      "channel": 0,
      "note": 87,
      "start": 15.6307,
      "duration": 0.2244,
      "velocity": 105,
      "chip": "ym2612"
    },
    {
      "channel": 1,
      "note": 59,
      "start": 15.6314,
      "duration": 0.0737,
      "velocity": 111,
      "chip": "ym2612"
    },
    {
      "channel": 2,
      "note": 79,
      "start": 15.6321,
      "duration": 0.2558,
      "velocity": 111,
      "chip": "ym2612"
    },
    {
      "channel": 3,
      "note": 75,
      "start": 15.6328,
      "duration": 0.2558,
      "velocity": 111,
      "chip": "ym2612"
    },
    {
      "channel": 1,
      "note": 49,
      "start": 15.7057,
      "duration": 0.1501,
      "velocity": 111,
      "chip": "ym2612"
    },
    {
      "channel": 4,
      "note": 87,
      "start": 15.7903,
      "duration": 0.116,
      "velocity": 105,
      "chip": "ym2612"
    },
    {
      "channel": 0,
      "note": 82,
      "start": 15.8557,
      "duration": 0.1062,
      "velocity": 105,
      "chip": "ym2612"
    },
    {
      "channel": 1,
      "note": 61,
      "start": 15.8564,
      "duration": 0.0309,
      "velocity": 111,
      "chip": "ym2612"
    },
    {
      "channel": 1,
      "note": 49,
      "start": 15.8878,
      "duration": 0.0748,
      "velocity": 111,
      "chip": "ym2612"
    },
    {
      "channel": 2,
      "note": 78,
      "start": 15.8885,
      "duration": 0.3168,
      "velocity": 111,
      "chip": "ym2612"
    },
    {
      "channel": 3,
      "note": 74,
      "start": 15.8893,
      "duration": 0.3168,
      "velocity": 111,
      "chip": "ym2612"
    },
    {
      "channel": 4,
      "note": 82,
      "start": 15.9068,
      "duration": 0.225,
      "velocity": 105,
      "chip": "ym2612"
    },
    {
      "channel": 0,
      "note": 74,
      "start": 15.9625,
      "duration": 0.2414,
      "velocity": 105,
      "chip": "ym2612"
    },
    {
      "channel": 1,
      "note": 59,
      "start": 15.9632,
      "duration": 0.1493,
      "velocity": 111,
      "chip": "ym2612"
    },
    {
      "channel": 1,
      "note": 49,
      "start": 16.113,
      "duration": 0.0917,
      "velocity": 111,
      "chip": "ym2612"
    },
    {
      "channel": 4,
      "note": 74,
      "start": 16.1325,
      "duration": 0.1163,
      "velocity": 105,
      "chip": "ym2612"
    },
    {
      "channel": 0,
      "note": 86,
      "start": 16.2045,
      "duration": 0.102,
      "velocity": 105,
      "chip": "ym2612"
    },
    {
      "channel": 1,
      "note": 58,
      "start": 16.2052,
      "duration": 0.0288,
      "velocity": 111,
      "chip": "ym2612"
    },
    {
      "channel": 2,
      "note": 78,
      "start": 16.206,
      "duration": 0.1041,
      "velocity": 111,
      "chip": "ym2612"
    },
    {
      "channel": 3,
      "note": 74,
      "start": 16.2067,
      "duration": 0.1064,
      "velocity": 111,
      "chip": "ym2612"
    },
    {
      "channel": 1,
      "note": 49,
      "start": 16.2346,
      "duration": 0.0726,
      "velocity": 111,
      "chip": "ym2612"
    },
    {
      "channel": 4,
      "note": 86,
      "start": 16.2494,
      "duration": 0.2005,
      "velocity": 105,
      "chip": "ym2612"
    },
    {
      "channel": 0,
      "note": 85,
      "start": 16.3071,
      "duration": 0.2223,
      "velocity": 105,
      "chip": "ym2612"
    },
    {
      "channel": 1,
      "note": 49,
      "start": 16.3078,
      "duration": 0.0716,
      "velocity": 111,
      "chip": "ym2612"
    },
    {
      "channel": 2,
      "note": 76,
      "start": 16.3107,
      "duration": 0.5707,
      "velocity": 111,
      "chip": "ym2612"
    },
    {
      "channel": 3,
      "note": 71,
      "start": 16.3136,
      "duration": 0.5686,
      "velocity": 111,
      "chip": "ym2612"
    },
    {
      "channel": 1,
      "note": 49,
      "start": 16.38,
      "duration": 0.0662,
      "velocity": 111,
      "chip": "ym2612"
    },
    {
      "channel": 1,
      "note": 49,
      "start": 16.4468,
      "duration": 0.0833,
      "velocity": 111,
      "chip": "ym2612"
    },
    {
      "channel": 4,
      "note": 85,
      "start": 16.4505,
      "duration": 0.1302,
      "velocity": 105,
      "chip": "ym2612"
    },
    {
      "channel": 0,
      "note": 80,
      "start": 16.53,
      "duration": 0.0996,
      "velocity": 105,
      "chip": "ym2612"
    },
    {
      "channel": 1,
      "note": 54,
      "start": 16.5307,
      "duration": 0.0306,
      "velocity": 111,
      "chip": "ym2612"
    },
    {
      "channel": 1,
      "note": 49,
      "start": 16.5618,
      "duration": 0.0685,
      "velocity": 111,
      "chip": "ym2612"
    },
    {
      "channel": 4,
      "note": 80,
      "start": 16.5813,
      "duration": 0.1432,
      "velocity": 105,
      "chip": "ym2612"
    },
    {
      "channel": 0,
      "note": 88,
      "start": 16.6302,
      "duration": 0.1495,
      "velocity": 105,
      "chip": "ym2612"
    },
    {
      "channel": 1,
      "note": 49,
      "start": 16.6309,
      "duration": 0.0741,
      "velocity": 111,
      "chip": "ym2612"
    },
    {
      "channel": 1,
      "note": 56,
      "start": 16.7056,
      "duration": 0.0749,
      "velocity": 111,
      "chip": "ym2612"
    },
    {
      "channel": 4,
      "note": 88,
      "start": 16.725,
      "duration": 0.1061,
      "velocity": 105,
      "chip": "ym2612"
    },
    {
      "channel": 0,
      "note": 83,
      "start": 16.7804,
      "duration": 0.0996,
      "velocity": 105,
      "chip": "ym2612"
    },
    {
      "channel": 1,
      "note": 49,
      "start": 16.7811,
      "duration": 0.0306,
      "velocity": 111,
      "chip": "ym2612"
    },
    {
      "channel": 1,
      "note": 49,
      "start": 16.8122,
      "duration": 0.0685,
      "velocity": 111,
      "chip": "ym2612"
    },
    {
      "channel": 4,
      "note": 83,
      "start": 16.8316,
      "duration": 0.2081,
      "velocity": 105,
      "chip": "ym2612"
    },
    {
      "channel": 0,
      "note": 87,
      "start": 16.8806,
      "duration": 0.2411,
      "velocity": 105,
      "chip": "ym2612"
    },
    {
      "channel": 1,
      "note": 59,
      "start": 16.8813,
      "duration": 0.0904,
      "velocity": 111,
      "chip": "ym2612"
    },
    {
      "channel": 2,
      "note": 79,
      "start": 16.8821,
      "duration": 0.2727,
      "velocity": 111,
      "chip": "ym2612"
    },
    {
      "channel": 3,
      "note": 75,
      "start": 16.8828,
      "duration": 0.2727,
      "velocity": 111,
      "chip": "ym2612"
    },
    {
      "channel": 1,
      "note": 49,
      "start": 16.9724,
      "duration": 0.1501,
      "velocity": 111,
      "chip": "ym2612"
    },
    {
      "channel": 4,
      "note": 87,
      "start": 17.0403,
      "duration": 0.1293,
      "velocity": 105,
      "chip": "ym2612"
    },
    {
      "channel": 0,
      "note": 82,
      "start": 17.1224,
      "duration": 0.1063,
      "velocity": 105,
      "chip": "ym2612"
    },
    {
      "channel": 1,
      "note": 58,
      "start": 17.1231,
      "duration": 0.031,
      "velocity": 111,
      "chip": "ym2612"
    },
    {
      "channel": 1,
      "note": 49,
      "start": 17.1546,
      "duration": 0.0747,
      "velocity": 111,
      "chip": "ym2612"
    },
    {
      "channel": 2,
      "note": 78,
      "start": 17.1553,
      "duration": 0.3002,
      "velocity": 111,
      "chip": "ym2612"
    },
    {
      "channel": 3,
      "note": 74,
      "start": 17.1561,
      "duration": 0.3002,
      "velocity": 111,
      "chip": "ym2612"
    },
    {
      "channel": 4,
      "note": 82,
      "start": 17.1702,
      "duration": 0.2249,
      "velocity": 105,
      "chip": "ym2612"
    },
    {
      "channel": 0,
      "note": 74,
      "start": 17.2292,
      "duration": 0.2248,
      "velocity": 105,
      "chip": "ym2612"
    },
    {
      "channel": 1,
      "note": 56,
      "start": 17.2299,
      "duration": 0.1493,
      "velocity": 111,
      "chip": "ym2612"
    },
    {
      "channel": 1,
      "note": 49,
      "start": 17.3797,
      "duration": 0.0751,
      "velocity": 111,
      "chip": "ym2612"
    },
    {
      "channel": 4,
      "note": 74,
      "start": 17.3957,
      "duration": 0.107,
      "velocity": 105,
      "chip": "ym2612"
    },
    {
      "channel": 0,
      "note": 86,
      "start": 17.4547,
      "duration": 0.1018,
      "velocity": 105,
      "chip": "ym2612"
    },
    {
      "channel": 1,
      "note": 54,
      "start": 17.4554,
      "duration": 0.0288,
      "velocity": 111,
      "chip": "ym2612"
    },
    {
      "channel": 2,
      "note": 78,
      "start": 17.4561,
      "duration": 0.1041,
      "velocity": 111,
      "chip": "ym2612"
    },
    {
      "channel": 3,
      "note": 74,
      "start": 17.4568,
      "duration": 0.1062,
      "velocity": 111,
      "chip": "ym2612"
    },
    {
      "channel": 1,
      "note": 49,
      "start": 17.4847,
      "duration": 0.0725,
      "velocity": 111,
      "chip": "ym2612"
    },
    {
      "channel": 4,
      "note": 86,
      "start": 17.5032,
      "duration": 0.2131,
      "velocity": 105,
      "chip": "ym2612"
    },
    {
      "channel": 0,
      "note": 85,
      "start": 17.5571,
      "duration": 0.2223,
      "velocity": 105,
      "chip": "ym2612"
    },
    {
      "channel": 1,
      "note": 49,
      "start": 17.5578,
      "duration": 0.0717,
      "velocity": 111,
      "chip": "ym2612"
    },
    {
      "channel": 2,
      "note": 76,
      "start": 17.5607,
      "duration": 0.5876,
      "velocity": 111,
      "chip": "ym2612"
    },
    {
      "channel": 3,
      "note": 71,
      "start": 17.5636,
      "duration": 0.5855,
      "velocity": 111,
      "chip": "ym2612"
    },
    {
      "channel": 1,
      "note": 49,
      "start": 17.63,
      "duration": 0.1501,
      "velocity": 111,
      "chip": "ym2612"
    },
    {
      "channel": 4,
      "note": 85,
      "start": 17.7169,
      "duration": 0.1138,
      "velocity": 105,
      "chip": "ym2612"
    },
    {
      "channel": 0,
      "note": 80,
      "start": 17.78,
      "duration": 0.1163,
      "velocity": 105,
      "chip": "ym2612"
    },
    {
      "channel": 1,
      "note": 54,
      "start": 17.7807,
      "duration": 0.0306,
      "velocity": 111,
      "chip": "ym2612"
    },
    {
      "channel": 1,
      "note": 49,
      "start": 17.8119,
      "duration": 0.0852,
      "velocity": 111,
      "chip": "ym2612"
    },
    {
      "channel": 4,
      "note": 80,
      "start": 17.8313,
      "duration": 0.1563,
      "velocity": 105,
      "chip": "ym2612"
    },
    {
      "channel": 0,
      "note": 88,
      "start": 17.897,
      "duration": 0.1496,
      "velocity": 105,
      "chip": "ym2612"
    },
    {
      "channel": 1,
      "note": 49,
      "start": 17.8977,
      "duration": 0.0741,
      "velocity": 111,
      "chip": "ym2612"
    },
    {
      "channel": 1,
      "note": 56,
      "start": 17.9724,
      "duration": 0.075,
      "velocity": 111,
      "chip": "ym2612"
    },
    {
      "channel": 4,
      "note": 88,
      "start": 17.9882,
      "duration": 0.1061,
      "velocity": 105,
      "chip": "ym2612"
    },
    {
      "channel": 0,
      "note": 83,
      "start": 18.0473,
      "duration": 0.0996,
      "velocity": 105,
      "chip": "ym2612"
    },
    {
      "channel": 1,
      "note": 49,
      "start": 18.048,
      "duration": 0.0306,
      "velocity": 111,
      "chip": "ym2612"
    },
    {
      "channel": 1,
      "note": 49,
      "start": 18.0792,
      "duration": 0.0685,
      "velocity": 111,
      "chip": "ym2612"
    },
    {
      "channel": 4,
      "note": 83,
      "start": 18.0949,
      "duration": 0.2117,
      "velocity": 105,
      "chip": "ym2612"
    },
    {
      "channel": 0,
      "note": 87,
      "start": 18.1475,
      "duration": 0.2244,
      "velocity": 105,
      "chip": "ym2612"
    },
    {
      "channel": 1,
      "note": 59,
      "start": 18.1482,
      "duration": 0.0737,
      "velocity": 111,
      "chip": "ym2612"
    },
    {
      "channel": 2,
      "note": 79,
      "start": 18.149,
      "duration": 0.2559,
      "velocity": 111,
      "chip": "ym2612"
    },
    {
      "channel": 3,
      "note": 75,
      "start": 18.1497,
      "duration": 0.2559,
      "velocity": 111,
      "chip": "ym2612"
    },
    {
      "channel": 1,
      "note": 49,
      "start": 18.2225,
      "duration": 0.1501,
      "velocity": 111,
      "chip": "ym2612"
    },
    {
      "channel": 4,
      "note": 87,
      "start": 18.3071,
      "duration": 0.116,
      "velocity": 105,
      "chip": "ym2612"
    },
    {
      "channel": 0,
      "note": 82,
      "start": 18.3725,
      "duration": 0.1062,
      "velocity": 105,
      "chip": "ym2612"
    },
    {
      "channel": 1,
      "note": 49,
      "start": 18.3732,
      "duration": 0.0309,
      "velocity": 111,
      "chip": "ym2612"
    },
    {
      "channel": 1,
      "note": 58,
      "start": 18.4048,
      "duration": 0.0747,
      "velocity": 111,
      "chip": "ym2612"
    },
    {
      "channel": 2,
      "note": 78,
      "start": 18.4055,
      "duration": 0.3001,
      "velocity": 111,
      "chip": "ym2612"
    },
    {
      "channel": 3,
      "note": 74,
      "start": 18.4061,
      "duration": 0.3002,
      "velocity": 111,
      "chip": "ym2612"
    },
    {
      "channel": 4,
      "note": 82,
      "start": 18.4237,
      "duration": 0.2251,
      "velocity": 105,
      "chip": "ym2612"
    },
    {
      "channel": 0,
      "note": 74,
      "start": 18.4793,
      "duration": 0.2248,
      "velocity": 105,
      "chip": "ym2612"
    },
    {
      "channel": 1,
      "note": 49,
      "start": 18.48,
      "duration": 0.1493,
      "velocity": 111,
      "chip": "ym2612"
    },
    {
      "channel": 1,
      "note": 49,
      "start": 18.6298,
      "duration": 0.0751,
      "velocity": 111,
      "chip": "ym2612"
    },
    {
      "channel": 4,
      "note": 74,
      "start": 18.6493,
      "duration": 0.1034,
      "velocity": 105,
      "chip": "ym2612"
    },
    {
      "channel": 0,
      "note": 86,
      "start": 18.7048,
      "duration": 0.1185,
      "velocity": 105,
      "chip": "ym2612"
    },
    {
      "channel": 1,
      "note": 56,
      "start": 18.7055,
      "duration": 0.032,
      "velocity": 111,
      "chip": "ym2612"
    },
    {
      "channel": 2,
      "note": 78,
      "start": 18.7061,
      "duration": 0.1208,
      "velocity": 111,
      "chip": "ym2612"
    },
    {
      "channel": 3,
      "note": 74,
      "start": 18.7069,
      "duration": 0.123,
      "velocity": 111,
      "chip": "ym2612"
    },
    {
      "channel": 1,
      "note": 59,
      "start": 18.738,
      "duration": 0.0861,
      "velocity": 111,
      "chip": "ym2612"
    },
    {
      "channel": 4,
      "note": 86,
      "start": 18.7533,
      "duration": 0.2129,
      "velocity": 105,
      "chip": "ym2612"
    },
    {
      "channel": 0,
      "note": 85,
      "start": 18.8238,
      "duration": 0.2222,
      "velocity": 105,
      "chip": "ym2612"
    },
    {
      "channel": 1,
      "note": 49,
      "start": 18.8246,
      "duration": 0.0715,
      "velocity": 111,
      "chip": "ym2612"
    },
    {
      "channel": 2,
      "note": 76,
      "start": 18.8276,
      "duration": 0.5706,
      "velocity": 111,
      "chip": "ym2612"
    },
    {
      "channel": 3,
      "note": 71,
      "start": 18.8305,
      "duration": 0.5685,
      "velocity": 111,
      "chip": "ym2612"
    },
    {
      "channel": 1,
      "note": 49,
      "start": 18.8967,
      "duration": 0.1501,
      "velocity": 111,
      "chip": "ym2612"
    },
    {
      "channel": 4,
      "note": 85,
      "start": 18.9668,
      "duration": 0.1273,
      "velocity": 105,
      "chip": "ym2612"
    },
    {
      "channel": 0,
      "note": 80,
      "start": 19.0467,
      "duration": 0.0998,
      "velocity": 105,
      "chip": "ym2612"
    },
    {
      "channel": 1,
      "note": 56,
      "start": 19.0474,
      "duration": 0.0306,
      "velocity": 111,
      "chip": "ym2612"
    },
    {
      "channel": 1,
      "note": 49,
      "start": 19.0786,
      "duration": 0.0685,
      "velocity": 111,
      "chip": "ym2612"
    },
    {
      "channel": 4,
      "note": 80,
      "start": 19.0947,
      "duration": 0.1466,
      "velocity": 105,
      "chip": "ym2612"
    },
    {
      "channel": 0,
      "note": 88,
      "start": 19.147,
      "duration": 0.1495,
      "velocity": 105,
      "chip": "ym2612"
    },
    {
      "channel": 1,
      "note": 49,
      "start": 19.1477,
      "duration": 0.074,
      "velocity": 111,
      "chip": "ym2612"
    },
    {
      "channel": 1,
      "note": 59,
      "start": 19.2223,
      "duration": 0.075,
      "velocity": 111,
      "chip": "ym2612"
    },
    {
      "channel": 4,
      "note": 88,
      "start": 19.2418,
      "duration": 0.1061,
      "velocity": 105,
      "chip": "ym2612"
    },
    {
      "channel": 0,
      "note": 83,
      "start": 19.2971,
      "duration": 0.0996,
      "velocity": 105,
      "chip": "ym2612"
    },
    {
      "channel": 1,
      "note": 49,
      "start": 19.2978,
      "duration": 0.0305,
      "velocity": 111,
      "chip": "ym2612"
    },
    {
      "channel": 1,
      "note": 49,
      "start": 19.3289,
      "duration": 0.0686,
      "velocity": 111,
      "chip": "ym2612"
    },
    {
      "channel": 4,
      "note": 83,
      "start": 19.3484,
      "duration": 0.2081,
      "velocity": 105,
      "chip": "ym2612"
    },
    {
      "channel": 0,
      "note": 87,
      "start": 19.3974,
      "duration": 0.2245,
      "velocity": 105,
      "chip": "ym2612"
    },
    {
      "channel": 1,
      "note": 58,
      "start": 19.3981,
      "duration": 0.0739,
      "velocity": 111,
      "chip": "ym2612"
    },
    {
      "channel": 2,
      "note": 79,
      "start": 19.3988,
      "duration": 0.2595,
      "velocity": 111,
      "chip": "ym2612"
    },
    {
      "channel": 3,
      "note": 75,
      "start": 19.3995,
      "duration": 0.2595,
      "velocity": 111,
      "chip": "ym2612"
    },
    {
      "channel": 1,
      "note": 49,
      "start": 19.4725,
      "duration": 0.1501,
      "velocity": 111,
      "chip": "ym2612"
    },
    {
      "channel": 4,
      "note": 87,
      "start": 19.5571,
      "duration": 0.1161,
      "velocity": 105,
      "chip": "ym2612"
    },
    {
      "channel": 0,
      "note": 82,
      "start": 19.6225,
      "duration": 0.1097,
      "velocity": 105,
      "chip": "ym2612"
    },
    {
      "channel": 1,
      "note": 56,
      "start": 19.6232,
      "duration": 0.0344,
      "velocity": 111,
      "chip": "ym2612"
    },
    {
      "channel": 1,
      "note": 49,
      "start": 19.6582,
      "duration": 0.0747,
      "velocity": 111,
      "chip": "ym2612"
    },
    {
      "channel": 2,
      "note": 78,
      "start": 19.6589,
      "duration": 0.3001,
      "velocity": 111,
      "chip": "ym2612"
    },
    {
      "channel": 3,
      "note": 74,
      "start": 19.6596,
      "duration": 0.3001,
      "velocity": 111,
      "chip": "ym2612"
    },
    {
      "channel": 4,
      "note": 82,
      "start": 19.6738,
      "duration": 0.2247,
      "velocity": 105,
      "chip": "ym2612"
    },
    {
      "channel": 0,
      "note": 74,
      "start": 19.7328,
      "duration": 0.2247,
      "velocity": 105,
      "chip": "ym2612"
    },
    {
      "channel": 1,
      "note": 54,
      "start": 19.7335,
      "duration": 0.1493,
      "velocity": 111,
      "chip": "ym2612"
    },
    {
      "channel": 1,
      "note": 49,
      "start": 19.8833,
      "duration": 0.0749,
      "velocity": 111,
      "chip": "ym2612"
    },
    {
      "channel": 4,
      "note": 74,
      "start": 19.8991,
      "duration": 0.1034,
      "velocity": 105,
      "chip": "ym2612"
    },
    {
      "channel": 0,
      "note": 86,
      "start": 19.9581,
      "duration": 0.102,
      "velocity": 105,
      "chip": "ym2612"
    },
    {
      "channel": 1,
      "note": 49,
      "start": 19.9588,
      "duration": 0.0288,
      "velocity": 111,
      "chip": "ym2612"
    },
    {
      "channel": 2,
      "note": 78,
      "start": 19.9595,
      "duration": 0.1042,
      "velocity": 111,
      "chip": "ym2612"
    },
    {
      "channel": 3,
      "note": 74,
      "start": 19.9603,
      "duration": 0.1063,
      "velocity": 111,
      "chip": "ym2612"
    },
    {
      "channel": 1,
      "note": 54,
      "start": 19.9883,
      "duration": 0.0725,
      "velocity": 111,
      "chip": "ym2612"
    },
    {
      "channel": 4,
      "note": 86,
      "start": 20.003,
      "duration": 0.2168,
      "velocity": 105,
      "chip": "ym2612"
    },
    {
      "channel": 0,
      "note": 85,
      "start": 20.0607,
      "duration": 0.2223,
      "velocity": 105,
      "chip": "ym2612"
    },
    {
      "channel": 1,
      "note": 49,
      "start": 20.0614,
      "duration": 0.0717,
      "velocity": 111,
      "chip": "ym2612"
    },
    {
      "channel": 2,
      "note": 76,
      "start": 20.0643,
      "duration": 0.5875,
      "velocity": 111,
      "chip": "ym2612"
    },
    {
      "channel": 3,
      "note": 71,
      "start": 20.0672,
      "duration": 0.5853,
      "velocity": 111,
      "chip": "ym2612"
    },
    {
      "channel": 1,
      "note": 49,
      "start": 20.1336,
      "duration": 0.1501,
      "velocity": 111,
      "chip": "ym2612"
    },
    {
      "channel": 4,
      "note": 85,
      "start": 20.2204,
      "duration": 0.1139,
      "velocity": 105,
      "chip": "ym2612"
    },
    {
      "channel": 0,
      "note": 80,
      "start": 20.2836,
      "duration": 0.0996,
      "velocity": 105,
      "chip": "ym2612"
    },
    {
      "channel": 1,
      "note": 54,
      "start": 20.2843,
      "duration": 0.0305,
      "velocity": 111,
      "chip": "ym2612"
    },
    {
      "channel": 1,
      "note": 49,
      "start": 20.3154,
      "duration": 0.0686,
      "velocity": 111,
      "chip": "ym2612"
    },
    {
      "channel": 4,
      "note": 80,
      "start": 20.3349,
      "duration": 0.1432,
      "velocity": 105,
      "chip": "ym2612"
    },
    {
      "channel": 0,
      "note": 88,
      "start": 20.3838,
      "duration": 0.1662,
      "velocity": 105,
      "chip": "ym2612"
    },
    {
      "channel": 1,
      "note": 49,
      "start": 20.3845,
      "duration": 0.074,
      "velocity": 111,
      "chip": "ym2612"
    },
    {
      "channel": 1,
      "note": 56,
      "start": 20.4591,
      "duration": 0.0917,
      "velocity": 111,
      "chip": "ym2612"
    },
    {
      "channel": 4,
      "note": 88,
      "start": 20.4786,
      "duration": 0.1192,
      "velocity": 105,
      "chip": "ym2612"
    },
    {
      "channel": 0,
      "note": 83,
      "start": 20.5507,
      "duration": 0.0997,
      "velocity": 105,
      "chip": "ym2612"
    },
    {
      "channel": 1,
      "note": 49,
      "start": 20.5514,
      "duration": 0.0306,
      "velocity": 111,
      "chip": "ym2612"
    },
    {
      "channel": 1,
      "note": 49,
      "start": 20.5825,
      "duration": 0.0685,
      "velocity": 111,
      "chip": "ym2612"
    },
    {
      "channel": 4,
      "note": 83,
      "start": 20.5984,
      "duration": 0.195,
      "velocity": 105,
      "chip": "ym2612"
    },
    {
      "channel": 0,
      "note": 87,
      "start": 20.651,
      "duration": 0.2245,
      "velocity": 105,
      "chip": "ym2612"
    },
    {
      "channel": 1,
      "note": 59,
      "start": 20.6517,
      "duration": 0.0739,
      "velocity": 111,
      "chip": "ym2612"
    },
    {
      "channel": 2,
      "note": 79,
      "start": 20.6524,
      "duration": 0.2561,
      "velocity": 111,
      "chip": "ym2612"
    },
    {
      "channel": 3,
      "note": 75,
      "start": 20.6531,
      "duration": 0.2561,
      "velocity": 111,
      "chip": "ym2612"
    },
    {
      "channel": 1,
      "note": 49,
      "start": 20.7261,
      "duration": 0.1501,
      "velocity": 111,
      "chip": "ym2612"
    },
    {
      "channel": 4,
      "note": 87,
      "start": 20.794,
      "duration": 0.1328,
      "velocity": 105,
      "chip": "ym2612"
    },
    {
      "channel": 0,
      "note": 82,
      "start": 20.8761,
      "duration": 0.1063,
      "velocity": 105,
      "chip": "ym2612"
    },
    {
      "channel": 1,
      "note": 61,
      "start": 20.8768,
      "duration": 0.031,
      "velocity": 111,
      "chip": "ym2612"
    },
    {
      "channel": 1,
      "note": 49,
      "start": 20.9084,
      "duration": 0.0747,
      "velocity": 111,
      "chip": "ym2612"
    },
    {
      "channel": 2,
      "note": 78,
      "start": 20.9091,
      "duration": 0.3001,
      "velocity": 111,
      "chip": "ym2612"
    },
    {
      "channel": 3,
      "note": 74,
      "start": 20.9099,
      "duration": 0.3001,
      "velocity": 111,
      "chip": "ym2612"
    },
    {
      "channel": 4,
      "note": 82,
      "start": 20.9274,
      "duration": 0.225,
      "velocity": 105,
      "chip": "ym2612"
    },
    {
      "channel": 0,
      "note": 74,
      "start": 20.983,
      "duration": 0.2248,
      "velocity": 105,
      "chip": "ym2612"
    },
    {
      "channel": 1,
      "note": 59,
      "start": 20.9837,
      "duration": 0.1493,
      "velocity": 111,
      "chip": "ym2612"
    },
    {
      "channel": 1,
      "note": 49,
      "start": 21.1335,
      "duration": 0.075,
      "velocity": 111,
      "chip": "ym2612"
    },
    {
      "channel": 4,
      "note": 74,
      "start": 21.153,
      "duration": 0.1033,
      "velocity": 105,
      "chip": "ym2612"
    },
    {
      "channel": 0,
      "note": 86,
      "start": 21.2084,
      "duration": 0.1019,
      "velocity": 105,
      "chip": "ym2612"
    },
    {
      "channel": 1,
      "note": 58,
      "start": 21.2091,
      "duration": 0.0287,
      "velocity": 111,
      "chip": "ym2612"
    },
    {
      "channel": 2,
      "note": 78,
      "start": 21.2099,
      "duration": 0.104,
      "velocity": 111,
      "chip": "ym2612"
    },
    {
      "channel": 3,
      "note": 74,
      "start": 21.2106,
      "duration": 0.1063,
      "velocity": 111,
      "chip": "ym2612"
    },
    {
      "channel": 1,
      "note": 49,
      "start": 21.2384,
      "duration": 0.0725,
      "velocity": 111,
      "chip": "ym2612"
    },
    {
      "channel": 4,
      "note": 86,
      "start": 21.2569,
      "duration": 0.2135,
      "velocity": 105,
      "chip": "ym2612"
    },
    {
      "channel": 0,
      "note": 85,
      "start": 21.3108,
      "duration": 0.239,
      "velocity": 105,
      "chip": "ym2612"
    },
    {
      "channel": 1,
      "note": 49,
      "start": 21.3115,
      "duration": 0.0883,
      "velocity": 111,
      "chip": "ym2612"
    },
    {
      "channel": 2,
      "note": 76,
      "start": 21.3145,
      "duration": 0.5876,
      "velocity": 111,
      "chip": "ym2612"
    },
    {
      "channel": 3,
      "note": 71,
      "start": 21.3174,
      "duration": 0.5855,
      "velocity": 111,
      "chip": "ym2612"
    },
    {
      "channel": 1,
      "note": 49,
      "start": 21.4005,
      "duration": 0.0662,
      "velocity": 111,
      "chip": "ym2612"
    },
    {
      "channel": 1,
      "note": 49,
      "start": 21.4672,
      "duration": 0.0833,
      "velocity": 111,
      "chip": "ym2612"
    },
    {
      "channel": 4,
      "note": 85,
      "start": 21.4711,
      "duration": 0.1266,
      "velocity": 105,
      "chip": "ym2612"
    },
    {
      "channel": 0,
      "note": 80,
      "start": 21.5505,
      "duration": 0.0996,
      "velocity": 105,
      "chip": "ym2612"
    },
    {
      "channel": 1,
      "note": 54,
      "start": 21.5512,
      "duration": 0.0306,
      "velocity": 111,
      "chip": "ym2612"
    },
    {
      "channel": 1,
      "note": 49,
      "start": 21.5823,
      "duration": 0.0685,
      "velocity": 111,
      "chip": "ym2612"
    },
    {
      "channel": 4,
      "note": 80,
      "start": 21.5982,
      "duration": 0.1433,
      "velocity": 105,
      "chip": "ym2612"
    },
    {
      "channel": 0,
      "note": 88,
      "start": 21.6507,
      "duration": 0.1497,
      "velocity": 105,
      "chip": "ym2612"
    },
    {
      "channel": 1,
      "note": 49,
      "start": 21.6514,
      "duration": 0.0741,
      "velocity": 111,
      "chip": "ym2612"
    },
    {
      "channel": 1,
      "note": 56,
      "start": 21.7261,
      "duration": 0.0751,
      "velocity": 111,
      "chip": "ym2612"
    },
    {
      "channel": 4,
      "note": 88,
      "start": 21.7421,
      "duration": 0.1098,
      "velocity": 105,
      "chip": "ym2612"
    },
    {
      "channel": 0,
      "note": 83,
      "start": 21.8011,
      "duration": 0.0996,
      "velocity": 105,
      "chip": "ym2612"
    },
    {
      "channel": 1,
      "note": 49,
      "start": 21.8018,
      "duration": 0.0307,
      "velocity": 111,
      "chip": "ym2612"
    },
    {
      "channel": 1,
      "note": 49,
      "start": 21.833,
      "duration": 0.0683,
      "velocity": 111,
      "chip": "ym2612"
    },
    {
      "channel": 4,
      "note": 83,
      "start": 21.8526,
      "duration": 0.2078,
      "velocity": 105,
      "chip": "ym2612"
    },
    {
      "channel": 0,
      "note": 87,
      "start": 21.9013,
      "duration": 0.2245,
      "velocity": 105,
      "chip": "ym2612"
    },
    {
      "channel": 1,
      "note": 59,
      "start": 21.902,
      "duration": 0.0738,
      "velocity": 111,
      "chip": "ym2612"
    },
    {
      "channel": 2,
      "note": 79,
      "start": 21.9027,
      "duration": 0.2559,
      "velocity": 111,
      "chip": "ym2612"
    },
    {
      "channel": 3,
      "note": 75,
      "start": 21.9034,
      "duration": 0.2559,
      "velocity": 111,
      "chip": "ym2612"
    },
    {
      "channel": 1,
      "note": 49,
      "start": 21.9764,
      "duration": 0.1501,
      "velocity": 111,
      "chip": "ym2612"
    },
    {
      "channel": 4,
      "note": 87,
      "start": 22.061,
      "duration": 0.116,
      "velocity": 105,
      "chip": "ym2612"
    },
    {
      "channel": 0,
      "note": 82,
      "start": 22.1264,
      "duration": 0.1062,
      "velocity": 105,
      "chip": "ym2612"
    },
    {
      "channel": 1,
      "note": 58,
      "start": 22.1271,
      "duration": 0.0309,
      "velocity": 111,
      "chip": "ym2612"
    },
    {
      "channel": 1,
      "note": 49,
      "start": 22.1585,
      "duration": 0.0748,
      "velocity": 111,
      "chip": "ym2612"
    },
    {
      "channel": 2,
      "note": 78,
      "start": 22.1593,
      "duration": 0.3168,
      "velocity": 111,
      "chip": "ym2612"
    },
    {
      "channel": 3,
      "note": 74,
      "start": 22.16,
      "duration": 0.3168,
      "velocity": 111,
      "chip": "ym2612"
    },
    {
      "channel": 4,
      "note": 82,
      "start": 22.1776,
      "duration": 0.2382,
      "velocity": 105,
      "chip": "ym2612"
    },
    {
      "channel": 0,
      "note": 74,
      "start": 22.2332,
      "duration": 0.2414,
      "velocity": 105,
      "chip": "ym2612"
    },
    {
      "channel": 1,
      "note": 56,
      "start": 22.2339,
      "duration": 0.1659,
      "velocity": 111,
      "chip": "ym2612"
    },
    {
      "channel": 1,
      "note": 49,
      "start": 22.4004,
      "duration": 0.075,
      "velocity": 111,
      "chip": "ym2612"
    },
    {
      "channel": 4,
      "note": 74,
      "start": 22.4165,
      "duration": 0.1033,
      "velocity": 105,
      "chip": "ym2612"
    },
    {
      "channel": 0,
      "note": 86,
      "start": 22.4752,
      "duration": 0.102,
      "velocity": 105,
      "chip": "ym2612"
    },
    {
      "channel": 1,
      "note": 54,
      "start": 22.4759,
      "duration": 0.0288,
      "velocity": 111,
      "chip": "ym2612"
    },
    {
      "channel": 2,
      "note": 78,
      "start": 22.4766,
      "duration": 0.1043,
      "velocity": 111,
      "chip": "ym2612"
    },
    {
      "channel": 3,
      "note": 74,
      "start": 22.4774,
      "duration": 0.1064,
      "velocity": 111,
      "chip": "ym2612"
    },
    {
      "channel": 1,
      "note": 49,
      "start": 22.5054,
      "duration": 0.0726,
      "velocity": 111,
      "chip": "ym2612"
    },
    {
      "channel": 4,
      "note": 86,
      "start": 22.5203,
      "duration": 0.2,
      "velocity": 105,
      "chip": "ym2612"
    },
    {
      "channel": 0,
      "note": 85,
      "start": 22.5778,
      "duration": 0.2223,
      "velocity": 105,
      "chip": "ym2612"
    },
    {
      "channel": 1,
      "note": 49,
      "start": 22.5785,
      "duration": 0.0717,
      "velocity": 111,
      "chip": "ym2612"
    },
    {
      "channel": 2,
      "note": 76,
      "start": 22.5814,
      "duration": 0.5876,
      "velocity": 111,
      "chip": "ym2612"
    },
    {
      "channel": 3,
      "note": 71,
      "start": 22.5844,
      "duration": 0.5854,
      "velocity": 111,
      "chip": "ym2612"
    },
    {
      "channel": 1,
      "note": 49,
      "start": 22.6508,
      "duration": 0.1501,
      "velocity": 111,
      "chip": "ym2612"
    },
    {
      "channel": 4,
      "note": 85,
      "start": 22.7209,
      "duration": 0.131,
      "velocity": 105,
      "chip": "ym2612"
    },
    {
      "channel": 0,
      "note": 80,
      "start": 22.8008,
      "duration": 0.0996,
      "velocity": 105,
      "chip": "ym2612"
    },
    {
      "channel": 1,
      "note": 54,
      "start": 22.8015,
      "duration": 0.0308,
      "velocity": 111,
      "chip": "ym2612"
    },
    {
      "channel": 1,
      "note": 49,
      "start": 22.8328,
      "duration": 0.0683,
      "velocity": 111,
      "chip": "ym2612"
    },
    {
      "channel": 4,
      "note": 80,
      "start": 22.8524,
      "duration": 0.1429,
      "velocity": 105,
      "chip": "ym2612"
    },
    {
      "channel": 0,
      "note": 88,
      "start": 22.901,
      "duration": 0.1496,
      "velocity": 105,
      "chip": "ym2612"
    },
    {
      "channel": 1,
      "note": 49,
      "start": 22.9017,
      "duration": 0.0741,
      "velocity": 111,
      "chip": "ym2612"
    },
    {
      "channel": 1,
      "note": 56,
      "start": 22.9763,
      "duration": 0.075,
      "velocity": 111,
      "chip": "ym2612"
    },
    {
      "channel": 4,
      "note": 88,
      "start": 22.9959,
      "duration": 0.1061,
      "velocity": 105,
      "chip": "ym2612"
    },
    {
      "channel": 0,
      "note": 83,
      "start": 23.0512,
      "duration": 0.1163,
      "velocity": 105,
      "chip": "ym2612"
    },
    {
      "channel": 1,
      "note": 49,
      "start": 23.052,
      "duration": 0.0305,
      "velocity": 111,
      "chip": "ym2612"
    },
    {
      "channel": 1,
      "note": 49,
      "start": 23.083,
      "duration": 0.0853,
      "velocity": 111,
      "chip": "ym2612"
    },
    {
      "channel": 4,
      "note": 83,
      "start": 23.1026,
      "duration": 0.2081,
      "velocity": 105,
      "chip": "ym2612"
    },
    {
      "channel": 0,
      "note": 87,
      "start": 23.1682,
      "duration": 0.2245,
      "velocity": 105,
      "chip": "ym2612"
    },
    {
      "channel": 1,
      "note": 59,
      "start": 23.1689,
      "duration": 0.0738,
      "velocity": 111,
      "chip": "ym2612"
    },
    {
      "channel": 2,
      "note": 79,
      "start": 23.1697,
      "duration": 0.256,
      "velocity": 111,
      "chip": "ym2612"
    },
    {
      "channel": 3,
      "note": 75,
      "start": 23.1704,
      "duration": 0.2561,
      "velocity": 111,
      "chip": "ym2612"
    },
    {
      "channel": 1,
      "note": 49,
      "start": 23.2433,
      "duration": 0.1501,
      "velocity": 111,
      "chip": "ym2612"
    },
    {
      "channel": 4,
      "note": 87,
      "start": 23.3112,
      "duration": 0.1296,
      "velocity": 105,
      "chip": "ym2612"
    },
    {
      "channel": 0,
      "note": 82,
      "start": 23.3933,
      "duration": 0.1064,
      "velocity": 105,
      "chip": "ym2612"
    },
    {
      "channel": 1,
      "note": 49,
      "start": 23.394,
      "duration": 0.031,
      "velocity": 111,
      "chip": "ym2612"
    },
    {
      "channel": 1,
      "note": 58,
      "start": 23.4256,
      "duration": 0.0749,
      "velocity": 111,
      "chip": "ym2612"
    },
    {
      "channel": 2,
      "note": 78,
      "start": 23.4263,
      "duration": 0.3003,
      "velocity": 111,
      "chip": "ym2612"
    },
    {
      "channel": 3,
      "note": 74,
      "start": 23.427,
      "duration": 0.3003,
      "velocity": 111,
      "chip": "ym2612"
    },
    {
      "channel": 4,
      "note": 82,
      "start": 23.4414,
      "duration": 0.2285,
      "velocity": 105,
      "chip": "ym2612"
    },
    {
      "channel": 0,
      "note": 74,
      "start": 23.5003,
      "duration": 0.2248,
      "velocity": 105,
      "chip": "ym2612"
    },
    {
      "channel": 1,
      "note": 49,
      "start": 23.501,
      "duration": 0.1493,
      "velocity": 111,
      "chip": "ym2612"
    },
    {
      "channel": 1,
      "note": 49,
      "start": 23.6508,
      "duration": 0.075,
      "velocity": 111,
      "chip": "ym2612"
    },
    {
      "channel": 4,
      "note": 74,
      "start": 23.6705,
      "duration": 0.1033,
      "velocity": 105,
      "chip": "ym2612"
    },
    {
      "channel": 0,
      "note": 86,
      "start": 23.7257,
      "duration": 0.0998,
      "velocity": 105,
      "chip": "ym2612"
    },
    {
      "channel": 1,
      "note": 56,
      "start": 23.7264,
      "duration": 0.0287,
      "velocity": 111,
      "chip": "ym2612"
    },
    {
      "channel": 2,
      "note": 78,
      "start": 23.7271,
      "duration": 0.0997,
      "velocity": 111,
      "chip": "ym2612"
    },
    {
      "channel": 3,
      "note": 74,
      "start": 23.7279,
      "duration": 0.0997,
      "velocity": 111,
      "chip": "ym2612"
    },
    {
      "channel": 1,
      "note": 59,
      "start": 23.7558,
      "duration": 0.0702,
      "velocity": 111,
      "chip": "ym2612"
    },
    {
      "channel": 4,
      "note": 86,
      "start": 23.7743,
      "duration": 0.2106,
      "velocity": 105,
      "chip": "ym2612"
    },
    {
      "channel": 1,
      "note": 49,
      "start": 23.8265,
      "duration": 0.0739,
      "velocity": 111,
      "chip": "ym2612"
    },
    {
      "channel": 2,
      "note": 76,
      "start": 23.8273,
      "duration": 0.5346,
      "velocity": 111,
      "chip": "ym2612"
    },
    {
      "channel": 3,
      "note": 73,
      "start": 23.8282,
      "duration": 0.5346,
      "velocity": 111,
      "chip": "ym2612"
    },
    {
      "channel": 1,
      "note": 54,
      "start": 23.901,
      "duration": 0.1496,
      "velocity": 111,
      "chip": "ym2612"
    },
    {
      "channel": 1,
      "note": 56,
      "start": 24.0512,
      "duration": 0.0298,
      "velocity": 111,
      "chip": "ym2612"
    },
    {
      "channel": 1,
      "note": 49,
      "start": 24.0816,
      "duration": 0.0745,
      "velocity": 111,
      "chip": "ym2612"
    },
    {
      "channel": 1,
      "note": 61,
      "start": 24.1567,
      "duration": 0.0746,
      "velocity": 111,
      "chip": "ym2612"
    },
    {
      "channel": 1,
      "note": 54,
      "start": 24.2319,
      "duration": 0.0268,
      "velocity": 111,
      "chip": "ym2612"
    },
    {
      "channel": 1,
      "note": 56,
      "start": 24.2592,
      "duration": 0.0745,
      "velocity": 111,
      "chip": "ym2612"
    },
    {
      "channel": 1,
      "note": 61,
      "start": 24.3343,
      "duration": 0.027,
      "velocity": 111,
      "chip": "ym2612"
    },
    {
      "channel": 1,
      "note": 47,
      "start": 24.3619,
      "duration": 0.0743,
      "velocity": 111,
      "chip": "ym2612"
    },
    {
      "channel": 2,
      "note": 75,
      "start": 24.3627,
      "duration": 0.1765,
      "velocity": 111,
      "chip": "ym2612"
    },
    {
      "channel": 3,
      "note": 71,
      "start": 24.3633,
      "duration": 0.1766,
      "velocity": 111,
      "chip": "ym2612"
    },
    {
      "channel": 1,
      "note": 52,
      "start": 24.4368,
      "duration": 0.0746,
      "velocity": 111,
      "chip": "ym2612"
    },
    {
      "channel": 1,
      "note": 54,
      "start": 24.5119,
      "duration": 0.0265,
      "velocity": 111,
      "chip": "ym2612"
    },
    {
      "channel": 1,
      "note": 47,
      "start": 24.539,
      "duration": 0.0745,
      "velocity": 111,
      "chip": "ym2612"
    },
    {
      "channel": 2,
      "note": 71,
      "start": 24.5398,
      "duration": 0.1801,
      "velocity": 111,
      "chip": "ym2612"
    },
    {
      "channel": 3,
      "note": 66,
      "start": 24.5405,
      "duration": 0.1801,
      "velocity": 111,
      "chip": "ym2612"
    },
    {
      "channel": 1,
      "note": 59,
      "start": 24.6142,
      "duration": 0.0745,
      "velocity": 111,
      "chip": "ym2612"
    },
    {
      "channel": 1,
      "note": 52,
      "start": 24.6893,
      "duration": 0.0298,
      "velocity": 111,
      "chip": "ym2612"
    },
    {
      "channel": 1,
      "note": 54,
      "start": 24.7197,
      "duration": 0.025,
      "velocity": 111,
      "chip": "ym2612"
    },
    {
      "channel": 2,
      "note": 75,
      "start": 24.7204,
      "duration": 0.0522,
      "velocity": 111,
      "chip": "ym2612"
    },
    {
      "channel": 3,
      "note": 71,
      "start": 24.7212,
      "duration": 0.0518,
      "velocity": 111,
      "chip": "ym2612"
    },
    {
      "channel": 1,
      "note": 59,
      "start": 24.7454,
      "duration": 0.0266,
      "velocity": 111,
      "chip": "ym2612"
    },
    {
      "channel": 0,
      "note": 61,
      "start": 24.7718,
      "duration": 0.0085,
      "velocity": 105,
      "chip": "ym2612"
    },
    {
      "channel": 1,
      "note": 45,
      "start": 24.7725,
      "duration": 0.0744,
      "velocity": 111,
      "chip": "ym2612"
    },
    {
      "channel": 0,
      "note": 62,
      "start": 24.7809,
      "duration": 0.0151,
      "velocity": 105,
      "chip": "ym2612"
    },
    {
      "channel": 0,
      "note": 64,
      "start": 24.7965,
      "duration": 0.0496,
      "velocity": 105,
      "chip": "ym2612"
    },
    {
      "channel": 0,
      "note": 66,
      "start": 24.8467,
      "duration": 0.008,
      "velocity": 105,
      "chip": "ym2612"
    },
    {
      "channel": 1,
      "note": 57,
      "start": 24.8475,
      "duration": 0.0745,
      "velocity": 111,
      "chip": "ym2612"
    },
    {
      "channel": 0,
      "note": 68,
      "start": 24.8552,
      "duration": 0.0158,
      "velocity": 105,
      "chip": "ym2612"
    },
    {
      "channel": 4,
      "note": 61,
      "start": 24.8587,
      "duration": 0.0297,
      "velocity": 105,
      "chip": "ym2612"
    },
    {
      "channel": 0,
      "note": 69,
      "start": 24.8716,
      "duration": 0.0496,
      "velocity": 105,
      "chip": "ym2612"
    },
    {
      "channel": 4,
      "note": 62,
      "start": 24.889,
      "duration": 0.038,
      "velocity": 105,
      "chip": "ym2612"
    },
    {
      "channel": 0,
      "note": 73,
      "start": 24.9219,
      "duration": 0.0998,
      "velocity": 105,
      "chip": "ym2612"
    },
    {
      "channel": 2,
      "note": 73,
      "start": 24.9229,
      "duration": 0.1004,
      "velocity": 111,
      "chip": "ym2612"
    },
    {
      "channel": 3,
      "note": 69,
      "start": 24.9236,
      "duration": 0.0999,
      "velocity": 111,
      "chip": "ym2612"
    },
    {
      "channel": 4,
      "note": 64,
      "start": 24.9276,
      "duration": 0.0085,
      "velocity": 105,
      "chip": "ym2612"
    },
    {
      "channel": 4,
      "note": 66,
      "start": 24.9366,
      "duration": 0.0084,
      "velocity": 105,
      "chip": "ym2612"
    },
    {
      "channel": 4,
      "note": 68,
      "start": 24.9456,
      "duration": 0.0087,
      "velocity": 105,
      "chip": "ym2612"
    },
    {
      "channel": 4,
      "note": 69,
      "start": 24.9549,
      "duration": 0.0123,
      "velocity": 105,
      "chip": "ym2612"
    },
    {
      "channel": 4,
      "note": 73,
      "start": 24.9678,
      "duration": 0.1452,
      "velocity": 105,
      "chip": "ym2612"
    },
    {
      "channel": 0,
      "note": 61,
      "start": 25.0223,
      "duration": 0.0091,
      "velocity": 105,
      "chip": "ym2612"
    },
    {
      "channel": 1,
      "note": 45,
      "start": 25.0231,
      "duration": 0.0745,
      "velocity": 111,
      "chip": "ym2612"
    },
    {
      "channel": 0,
      "note": 62,
      "start": 25.032,
      "duration": 0.0146,
      "velocity": 105,
      "chip": "ym2612"
    },
    {
      "channel": 0,
      "note": 64,
      "start": 25.0472,
      "duration": 0.0496,
      "velocity": 105,
      "chip": "ym2612"
    },
    {
      "channel": 0,
      "note": 66,
      "start": 25.0974,
      "duration": 0.009,
      "velocity": 105,
      "chip": "ym2612"
    },
    {
      "channel": 1,
      "note": 57,
      "start": 25.0981,
      "duration": 0.0746,
      "velocity": 111,
      "chip": "ym2612"
    },
    {
      "channel": 0,
      "note": 68,
      "start": 25.1069,
      "duration": 0.0149,
      "velocity": 105,
      "chip": "ym2612"
    },
    {
      "channel": 4,
      "note": 61,
      "start": 25.1135,
      "duration": 0.0423,
      "velocity": 105,
      "chip": "ym2612"
    },
    {
      "channel": 0,
      "note": 69,
      "start": 25.1223,
      "duration": 0.0496,
      "velocity": 105,
      "chip": "ym2612"
    },
    {
      "channel": 4,
      "note": 62,
      "start": 25.1564,
      "duration": 0.0242,
      "velocity": 105,
      "chip": "ym2612"
    },
    {
      "channel": 0,
      "note": 73,
      "start": 25.1726,
      "duration": 0.0997,
      "velocity": 105,
      "chip": "ym2612"
    },
    {
      "channel": 2,
      "note": 73,
      "start": 25.1736,
      "duration": 0.0998,
      "velocity": 111,
      "chip": "ym2612"
    },
    {
      "channel": 3,
      "note": 69,
      "start": 25.1743,
      "duration": 0.0993,
      "velocity": 111,
      "chip": "ym2612"
    },
    {
      "channel": 4,
      "note": 64,
      "start": 25.1812,
      "duration": 0.0084,
      "velocity": 105,
      "chip": "ym2612"
    },
    {
      "channel": 4,
      "note": 66,
      "start": 25.1902,
      "duration": 0.0084,
      "velocity": 105,
      "chip": "ym2612"
    },
    {
      "channel": 4,
      "note": 68,
      "start": 25.1992,
      "duration": 0.0087,
      "velocity": 105,
      "chip": "ym2612"
    },
    {
      "channel": 4,
      "note": 69,
      "start": 25.2085,
      "duration": 0.0094,
      "velocity": 105,
      "chip": "ym2612"
    },
    {
      "channel": 4,
      "note": 73,
      "start": 25.2184,
      "duration": 0.143,
      "velocity": 105,
      "chip": "ym2612"
    },
    {
      "channel": 1,
      "note": 45,
      "start": 25.2732,
      "duration": 0.0742,
      "velocity": 111,
      "chip": "ym2612"
    },
    {
      "channel": 1,
      "note": 57,
      "start": 25.348,
      "duration": 0.0918,
      "velocity": 111,
      "chip": "ym2612"
    },
    {
      "channel": 0,
      "note": 83,
      "start": 25.4398,
      "duration": 0.0119,
      "velocity": 105,
      "chip": "ym2612"
    },
    {
      "channel": 2,
      "note": 75,
      "start": 25.4408,
      "duration": 0.0112,
      "velocity": 111,
      "chip": "ym2612"
    },
    {
      "channel": 3,
      "note": 71,
      "start": 25.4415,
      "duration": 0.0107,
      "velocity": 111,
      "chip": "ym2612"
    },
    {
      "channel": 0,
      "note": 83,
      "start": 25.463,
      "duration": 0.0116,
      "velocity": 105,
      "chip": "ym2612"
    },
    {
      "channel": 2,
      "note": 75,
      "start": 25.4639,
      "duration": 0.0111,
      "velocity": 111,
      "chip": "ym2612"
    },
    {
      "channel": 3,
      "note": 71,
      "start": 25.4646,
      "duration": 0.0107,
      "velocity": 111,
      "chip": "ym2612"
    },
    {
      "channel": 4,
      "note": 83,
      "start": 25.4762,
      "duration": 0.0143,
      "velocity": 105,
      "chip": "ym2612"
    },
    {
      "channel": 0,
      "note": 61,
      "start": 25.4887,
      "duration": 0.0091,
      "velocity": 105,
      "chip": "ym2612"
    },
    {
      "channel": 1,
      "note": 45,
      "start": 25.4896,
      "duration": 0.0742,
      "velocity": 111,
      "chip": "ym2612"
    },
    {
      "channel": 0,
      "note": 62,
      "start": 25.4984,
      "duration": 0.0144,
      "velocity": 105,
      "chip": "ym2612"
    },
    {
      "channel": 4,
      "note": 83,
      "start": 25.5019,
      "duration": 0.0627,
      "velocity": 105,
      "chip": "ym2612"
    },
    {
      "channel": 0,
      "note": 64,
      "start": 25.5134,
      "duration": 0.0496,
      "velocity": 105,
      "chip": "ym2612"
    },
    {
      "channel": 0,
      "note": 66,
      "start": 25.5636,
      "duration": 0.0082,
      "velocity": 105,
      "chip": "ym2612"
    },
    {
      "channel": 1,
      "note": 57,
      "start": 25.5644,
      "duration": 0.0745,
      "velocity": 111,
      "chip": "ym2612"
    },
    {
      "channel": 0,
      "note": 68,
      "start": 25.5723,
      "duration": 0.0156,
      "velocity": 105,
      "chip": "ym2612"
    },
    {
      "channel": 4,
      "note": 61,
      "start": 25.576,
      "duration": 0.0293,
      "velocity": 105,
      "chip": "ym2612"
    },
    {
      "channel": 0,
      "note": 69,
      "start": 25.5885,
      "duration": 0.0496,
      "velocity": 105,
      "chip": "ym2612"
    },
    {
      "channel": 4,
      "note": 62,
      "start": 25.6059,
      "duration": 0.038,
      "velocity": 105,
      "chip": "ym2612"
    },
    {
      "channel": 0,
      "note": 73,
      "start": 25.6388,
      "duration": 0.0997,
      "velocity": 105,
      "chip": "ym2612"
    },
    {
      "channel": 2,
      "note": 73,
      "start": 25.6398,
      "duration": 0.1003,
      "velocity": 111,
      "chip": "ym2612"
    },
    {
      "channel": 3,
      "note": 69,
      "start": 25.6405,
      "duration": 0.0999,
      "velocity": 111,
      "chip": "ym2612"
    },
    {
      "channel": 4,
      "note": 64,
      "start": 25.6445,
      "duration": 0.0084,
      "velocity": 105,
      "chip": "ym2612"
    },
    {
      "channel": 4,
      "note": 66,
      "start": 25.6535,
      "duration": 0.0112,
      "velocity": 105,
      "chip": "ym2612"
    },
    {
      "channel": 4,
      "note": 68,
      "start": 25.6653,
      "duration": 0.0087,
      "velocity": 105,
      "chip": "ym2612"
    },
    {
      "channel": 4,
      "note": 69,
      "start": 25.6746,
      "duration": 0.0093,
      "velocity": 105,
      "chip": "ym2612"
    },
    {
      "channel": 4,
      "note": 73,
      "start": 25.6846,
      "duration": 0.1453,
      "velocity": 105,
      "chip": "ym2612"
    },
    {
      "channel": 0,
      "note": 61,
      "start": 25.7391,
      "duration": 0.0092,
      "velocity": 105,
      "chip": "ym2612"
    },
    {
      "channel": 1,
      "note": 45,
      "start": 25.7399,
      "duration": 0.0745,
      "velocity": 111,
      "chip": "ym2612"
    },
    {
      "channel": 0,
      "note": 62,
      "start": 25.7489,
      "duration": 0.0145,
      "velocity": 105,
      "chip": "ym2612"
    },
    {
      "channel": 0,
      "note": 64,
      "start": 25.7639,
      "duration": 0.0496,
      "velocity": 105,
      "chip": "ym2612"
    },
    {
      "channel": 0,
      "note": 66,
      "start": 25.8141,
      "duration": 0.009,
      "velocity": 105,
      "chip": "ym2612"
    },
    {
      "channel": 1,
      "note": 57,
      "start": 25.8149,
      "duration": 0.0746,
      "velocity": 111,
      "chip": "ym2612"
    },
    {
      "channel": 0,
      "note": 68,
      "start": 25.8237,
      "duration": 0.0148,
      "velocity": 105,
      "chip": "ym2612"
    },
    {
      "channel": 4,
      "note": 61,
      "start": 25.8304,
      "duration": 0.0422,
      "velocity": 105,
      "chip": "ym2612"
    },
    {
      "channel": 0,
      "note": 69,
      "start": 25.8391,
      "duration": 0.0497,
      "velocity": 105,
      "chip": "ym2612"
    },
    {
      "channel": 4,
      "note": 62,
      "start": 25.8731,
      "duration": 0.0242,
      "velocity": 105,
      "chip": "ym2612"
    },
    {
      "channel": 0,
      "note": 73,
      "start": 25.8894,
      "duration": 0.0997,
      "velocity": 105,
      "chip": "ym2612"
    },
    {
      "channel": 2,
      "note": 73,
      "start": 25.8904,
      "duration": 0.0998,
      "velocity": 111,
      "chip": "ym2612"
    },
    {
      "channel": 3,
      "note": 69,
      "start": 25.8911,
      "duration": 0.0993,
      "velocity": 111,
      "chip": "ym2612"
    },
    {
      "channel": 4,
      "note": 64,
      "start": 25.8979,
      "duration": 0.0084,
      "velocity": 105,
      "chip": "ym2612"
    },
    {
      "channel": 4,
      "note": 66,
      "start": 25.9069,
      "duration": 0.0084,
      "velocity": 105,
      "chip": "ym2612"
    },
    {
      "channel": 4,
      "note": 68,
      "start": 25.916,
      "duration": 0.0087,
      "velocity": 105,
      "chip": "ym2612"
    },
    {
      "channel": 4,
      "note": 69,
      "start": 25.9252,
      "duration": 0.0094,
      "velocity": 105,
      "chip": "ym2612"
    },
    {
      "channel": 4,
      "note": 73,
      "start": 25.9352,
      "duration": 0.157,
      "velocity": 105,
      "chip": "ym2612"
    },
    {
      "channel": 1,
      "note": 45,
      "start": 25.99,
      "duration": 0.0909,
      "velocity": 111,
      "chip": "ym2612"
    },
    {
      "channel": 1,
      "note": 57,
      "start": 26.0815,
      "duration": 0.0751,
      "velocity": 111,
      "chip": "ym2612"
    },
    {
      "channel": 0,
      "note": 83,
      "start": 26.1565,
      "duration": 0.0119,
      "velocity": 105,
      "chip": "ym2612"
    },
    {
      "channel": 2,
      "note": 75,
      "start": 26.1575,
      "duration": 0.0112,
      "velocity": 111,
      "chip": "ym2612"
    },
    {
      "channel": 3,
      "note": 71,
      "start": 26.1583,
      "duration": 0.0107,
      "velocity": 111,
      "chip": "ym2612"
    },
    {
      "channel": 0,
      "note": 83,
      "start": 26.1798,
      "duration": 0.0116,
      "velocity": 105,
      "chip": "ym2612"
    },
    {
      "channel": 2,
      "note": 75,
      "start": 26.1806,
      "duration": 0.0111,
      "velocity": 111,
      "chip": "ym2612"
    },
    {
      "channel": 3,
      "note": 71,
      "start": 26.1813,
      "duration": 0.0107,
      "velocity": 111,
      "chip": "ym2612"
    },
    {
      "channel": 4,
      "note": 83,
      "start": 26.1929,
      "duration": 0.0143,
      "velocity": 105,
      "chip": "ym2612"
    },
    {
      "channel": 0,
      "note": 61,
      "start": 26.2055,
      "duration": 0.0092,
      "velocity": 105,
      "chip": "ym2612"
    },
    {
      "channel": 1,
      "note": 45,
      "start": 26.2063,
      "duration": 0.0742,
      "velocity": 111,
      "chip": "ym2612"
    },
    {
      "channel": 0,
      "note": 62,
      "start": 26.2152,
      "duration": 0.0144,
      "velocity": 105,
      "chip": "ym2612"
    },
    {
      "channel": 4,
      "note": 83,
      "start": 26.2188,
      "duration": 0.0626,
      "velocity": 105,
      "chip": "ym2612"
    },
    {
      "channel": 0,
      "note": 64,
      "start": 26.2301,
      "duration": 0.0496,
      "velocity": 105,
      "chip": "ym2612"
    },
    {
      "channel": 0,
      "note": 66,
      "start": 26.2803,
      "duration": 0.0082,
      "velocity": 105,
      "chip": "ym2612"
    },
    {
      "channel": 1,
      "note": 57,
      "start": 26.2811,
      "duration": 0.0745,
      "velocity": 111,
      "chip": "ym2612"
    },
    {
      "channel": 0,
      "note": 68,
      "start": 26.2891,
      "duration": 0.0156,
      "velocity": 105,
      "chip": "ym2612"
    },
    {
      "channel": 4,
      "note": 61,
      "start": 26.2927,
      "duration": 0.0293,
      "velocity": 105,
      "chip": "ym2612"
    },
    {
      "channel": 0,
      "note": 69,
      "start": 26.3052,
      "duration": 0.0496,
      "velocity": 105,
      "chip": "ym2612"
    },
    {
      "channel": 4,
      "note": 62,
      "start": 26.3226,
      "duration": 0.0409,
      "velocity": 105,
      "chip": "ym2612"
    },
    {
      "channel": 0,
      "note": 73,
      "start": 26.3555,
      "duration": 0.0997,
      "velocity": 105,
      "chip": "ym2612"
    },
    {
      "channel": 2,
      "note": 73,
      "start": 26.3565,
      "duration": 0.1002,
      "velocity": 111,
      "chip": "ym2612"
    },
    {
      "channel": 3,
      "note": 69,
      "start": 26.3572,
      "duration": 0.0998,
      "velocity": 111,
      "chip": "ym2612"
    },
    {
      "channel": 4,
      "note": 64,
      "start": 26.3641,
      "duration": 0.0084,
      "velocity": 105,
      "chip": "ym2612"
    },
    {
      "channel": 4,
      "note": 66,
      "start": 26.3731,
      "duration": 0.0084,
      "velocity": 105,
      "chip": "ym2612"
    },
    {
      "channel": 4,
      "note": 68,
      "start": 26.3821,
      "duration": 0.0087,
      "velocity": 105,
      "chip": "ym2612"
    },
    {
      "channel": 4,
      "note": 69,
      "start": 26.3914,
      "duration": 0.0094,
      "velocity": 105,
      "chip": "ym2612"
    },
    {
      "channel": 4,
      "note": 73,
      "start": 26.4013,
      "duration": 0.1451,
      "velocity": 105,
      "chip": "ym2612"
    },
    {
      "channel": 0,
      "note": 61,
      "start": 26.4558,
      "duration": 0.009,
      "velocity": 105,
      "chip": "ym2612"
    },
    {
      "channel": 1,
      "note": 45,
      "start": 26.4566,
      "duration": 0.0745,
      "velocity": 111,
      "chip": "ym2612"
    },
    {
      "channel": 0,
      "note": 62,
      "start": 26.4654,
      "duration": 0.0147,
      "velocity": 105,
      "chip": "ym2612"
    },
    {
      "channel": 0,
      "note": 64,
      "start": 26.4807,
      "duration": 0.0496,
      "velocity": 105,
      "chip": "ym2612"
    },
    {
      "channel": 0,
      "note": 66,
      "start": 26.5309,
      "duration": 0.0089,
      "velocity": 105,
      "chip": "ym2612"
    },
    {
      "channel": 1,
      "note": 57,
      "start": 26.5316,
      "duration": 0.0745,
      "velocity": 111,
      "chip": "ym2612"
    },
    {
      "channel": 0,
      "note": 68,
      "start": 26.5403,
      "duration": 0.0149,
      "velocity": 105,
      "chip": "ym2612"
    },
    {
      "channel": 4,
      "note": 61,
      "start": 26.547,
      "duration": 0.0422,
      "velocity": 105,
      "chip": "ym2612"
    },
    {
      "channel": 0,
      "note": 69,
      "start": 26.5558,
      "duration": 0.0496,
      "velocity": 105,
      "chip": "ym2612"
    },
    {
      "channel": 4,
      "note": 62,
      "start": 26.5898,
      "duration": 0.0242,
      "velocity": 105,
      "chip": "ym2612"
    },
    {
      "channel": 0,
      "note": 73,
      "start": 26.606,
      "duration": 0.1163,
      "velocity": 105,
      "chip": "ym2612"
    },
    {
      "channel": 2,
      "note": 73,
      "start": 26.6071,
      "duration": 0.1165,
      "velocity": 111,
      "chip": "ym2612"
    },
    {
      "channel": 3,
      "note": 69,
      "start": 26.6077,
      "duration": 0.116,
      "velocity": 111,
      "chip": "ym2612"
    },
    {
      "channel": 4,
      "note": 64,
      "start": 26.6146,
      "duration": 0.0084,
      "velocity": 105,
      "chip": "ym2612"
    },
    {
      "channel": 4,
      "note": 66,
      "start": 26.6236,
      "duration": 0.0084,
      "velocity": 105,
      "chip": "ym2612"
    },
    {
      "channel": 4,
      "note": 68,
      "start": 26.6326,
      "duration": 0.0087,
      "velocity": 105,
      "chip": "ym2612"
    },
    {
      "channel": 4,
      "note": 69,
      "start": 26.6419,
      "duration": 0.0094,
      "velocity": 105,
      "chip": "ym2612"
    },
    {
      "channel": 4,
      "note": 73,
      "start": 26.6519,
      "duration": 0.157,
      "velocity": 105,
      "chip": "ym2612"
    },
    {
      "channel": 1,
      "note": 45,
      "start": 26.7233,
      "duration": 0.0741,
      "velocity": 111,
      "chip": "ym2612"
    },
    {
      "channel": 1,
      "note": 57,
      "start": 26.7981,
      "duration": 0.0753,
      "velocity": 111,
      "chip": "ym2612"
    },
    {
      "channel": 0,
      "note": 83,
      "start": 26.8733,
      "duration": 0.0119,
      "velocity": 105,
      "chip": "ym2612"
    },
    {
      "channel": 2,
      "note": 75,
      "start": 26.8743,
      "duration": 0.0113,
      "velocity": 111,
      "chip": "ym2612"
    },
    {
      "channel": 3,
      "note": 71,
      "start": 26.8751,
      "duration": 0.0108,
      "velocity": 111,
      "chip": "ym2612"
    },
    {
      "channel": 0,
      "note": 83,
      "start": 26.8966,
      "duration": 0.0117,
      "velocity": 105,
      "chip": "ym2612"
    },
    {
      "channel": 2,
      "note": 75,
      "start": 26.8973,
      "duration": 0.0113,
      "velocity": 111,
      "chip": "ym2612"
    },
    {
      "channel": 3,
      "note": 71,
      "start": 26.8981,
      "duration": 0.0108,
      "velocity": 111,
      "chip": "ym2612"
    },
    {
      "channel": 4,
      "note": 83,
      "start": 26.9099,
      "duration": 0.0141,
      "velocity": 105,
      "chip": "ym2612"
    },
    {
      "channel": 0,
      "note": 61,
      "start": 26.9223,
      "duration": 0.009,
      "velocity": 105,
      "chip": "ym2612"
    },
    {
      "channel": 1,
      "note": 45,
      "start": 26.9231,
      "duration": 0.0742,
      "velocity": 111,
      "chip": "ym2612"
    },
    {
      "channel": 0,
      "note": 62,
      "start": 26.9319,
      "duration": 0.0144,
      "velocity": 105,
      "chip": "ym2612"
    },
    {
      "channel": 4,
      "note": 83,
      "start": 26.9354,
      "duration": 0.0627,
      "velocity": 105,
      "chip": "ym2612"
    },
    {
      "channel": 0,
      "note": 64,
      "start": 26.9469,
      "duration": 0.0496,
      "velocity": 105,
      "chip": "ym2612"
    },
    {
      "channel": 0,
      "note": 66,
      "start": 26.9971,
      "duration": 0.0082,
      "velocity": 105,
      "chip": "ym2612"
    },
    {
      "channel": 1,
      "note": 57,
      "start": 26.9979,
      "duration": 0.0745,
      "velocity": 111,
      "chip": "ym2612"
    },
    {
      "channel": 0,
      "note": 68,
      "start": 27.0058,
      "duration": 0.0156,
      "velocity": 105,
      "chip": "ym2612"
    },
    {
      "channel": 4,
      "note": 61,
      "start": 27.0119,
      "duration": 0.0436,
      "velocity": 105,
      "chip": "ym2612"
    },
    {
      "channel": 0,
      "note": 69,
      "start": 27.022,
      "duration": 0.0496,
      "velocity": 105,
      "chip": "ym2612"
    },
    {
      "channel": 4,
      "note": 62,
      "start": 27.056,
      "duration": 0.0242,
      "velocity": 105,
      "chip": "ym2612"
    },
    {
      "channel": 0,
      "note": 73,
      "start": 27.0723,
      "duration": 0.0997,
      "velocity": 105,
      "chip": "ym2612"
    },
    {
      "channel": 2,
      "note": 73,
      "start": 27.0733,
      "duration": 0.1002,
      "velocity": 111,
      "chip": "ym2612"
    },
    {
      "channel": 3,
      "note": 69,
      "start": 27.074,
      "duration": 0.0998,
      "velocity": 111,
      "chip": "ym2612"
    },
    {
      "channel": 4,
      "note": 64,
      "start": 27.0808,
      "duration": 0.0084,
      "velocity": 105,
      "chip": "ym2612"
    },
    {
      "channel": 4,
      "note": 66,
      "start": 27.0898,
      "duration": 0.0084,
      "velocity": 105,
      "chip": "ym2612"
    },
    {
      "channel": 4,
      "note": 68,
      "start": 27.0989,
      "duration": 0.0087,
      "velocity": 105,
      "chip": "ym2612"
    },
    {
      "channel": 4,
      "note": 69,
      "start": 27.1081,
      "duration": 0.0094,
      "velocity": 105,
      "chip": "ym2612"
    },
    {
      "channel": 4,
      "note": 73,
      "start": 27.1181,
      "duration": 0.1452,
      "velocity": 105,
      "chip": "ym2612"
    },
    {
      "channel": 0,
      "note": 61,
      "start": 27.1726,
      "duration": 0.0092,
      "velocity": 105,
      "chip": "ym2612"
    },
    {
      "channel": 1,
      "note": 45,
      "start": 27.1733,
      "duration": 0.0745,
      "velocity": 111,
      "chip": "ym2612"
    },
    {
      "channel": 0,
      "note": 62,
      "start": 27.1823,
      "duration": 0.0145,
      "velocity": 105,
      "chip": "ym2612"
    },
    {
      "channel": 0,
      "note": 64,
      "start": 27.1974,
      "duration": 0.0496,
      "velocity": 105,
      "chip": "ym2612"
    },
    {
      "channel": 0,
      "note": 66,
      "start": 27.2476,
      "duration": 0.0091,
      "velocity": 105,
      "chip": "ym2612"
    },
    {
      "channel": 1,
      "note": 57,
      "start": 27.2484,
      "duration": 0.0745,
      "velocity": 111,
      "chip": "ym2612"
    },
    {
      "channel": 0,
      "note": 68,
      "start": 27.2573,
      "duration": 0.0147,
      "velocity": 105,
      "chip": "ym2612"
    },
    {
      "channel": 4,
      "note": 61,
      "start": 27.2639,
      "duration": 0.0422,
      "velocity": 105,
      "chip": "ym2612"
    },
    {
      "channel": 0,
      "note": 69,
      "start": 27.2726,
      "duration": 0.0496,
      "velocity": 105,
      "chip": "ym2612"
    },
    {
      "channel": 4,
      "note": 62,
      "start": 27.3066,
      "duration": 0.0242,
      "velocity": 105,
      "chip": "ym2612"
    },
    {
      "channel": 0,
      "note": 73,
      "start": 27.3228,
      "duration": 0.1164,
      "velocity": 105,
      "chip": "ym2612"
    },
    {
      "channel": 2,
      "note": 73,
      "start": 27.3239,
      "duration": 0.0303,
      "velocity": 111,
      "chip": "ym2612"
    },
    {
      "channel": 3,
      "note": 69,
      "start": 27.3246,
      "duration": 0.015,
      "velocity": 111,
      "chip": "ym2612"
    },
    {
      "channel": 4,
      "note": 64,
      "start": 27.3314,
      "duration": 0.0084,
      "velocity": 105,
      "chip": "ym2612"
    },
    {
      "channel": 4,
      "note": 66,
      "start": 27.3405,
      "duration": 0.0077,
      "velocity": 105,
      "chip": "ym2612"
    },
    {
      "channel": 4,
      "note": 68,
      "start": 27.3487,
      "duration": 0.0103,
      "velocity": 105,
      "chip": "ym2612"
    },
    {
      "channel": 1,
      "note": 59,
      "start": 27.3541,
      "duration": 0.8889,
      "velocity": 111,
      "chip": "ym2612"
    },
    {
      "channel": 2,
      "note": 75,
      "start": 27.3548,
      "duration": 0.5605,
      "velocity": 111,
      "chip": "ym2612"
    },
    {
      "channel": 3,
      "note": 71,
      "start": 27.3555,
      "duration": 0.56,
      "velocity": 111,
      "chip": "ym2612"
    },
    {
      "channel": 4,
      "note": 69,
      "start": 27.3596,
      "duration": 0.0094,
      "velocity": 105,
      "chip": "ym2612"
    },
    {
      "channel": 4,
      "note": 73,
      "start": 27.3696,
      "duration": 0.1597,
      "velocity": 105,
      "chip": "ym2612"
    },
    {
      "channel": 0,
      "note": 73,
      "start": 28.2428,
      "duration": 0.2705,
      "velocity": 104,
      "chip": "ym2612"
    },
    {
      "channel": 1,
      "note": 49,
      "start": 28.2435,
      "duration": 0.0885,
      "velocity": 111,
      "chip": "ym2612"
    },
    {
      "channel": 2,
      "note": 76,
      "start": 28.2464,
      "duration": 0.5878,
      "velocity": 98,
      "chip": "ym2612"
    },
    {
      "channel": 3,
      "note": 80,
      "start": 28.2492,
      "duration": 0.5858,
      "velocity": 98,
      "chip": "ym2612"
    },
    {
      "channel": 1,
      "note": 49,
      "start": 28.3326,
      "duration": 0.1497,
      "velocity": 111,
      "chip": "ym2612"
    },
    {
      "channel": 4,
      "note": 73,
      "start": 28.4359,
      "duration": 0.1728,
      "velocity": 104,
      "chip": "ym2612"
    },
    {
      "channel": 1,
      "note": 56,
      "start": 28.4829,
      "duration": 0.0312,
      "velocity": 111,
      "chip": "ym2612"
    },
    {
      "channel": 0,
      "note": 80,
      "start": 28.5139,
      "duration": 0.2185,
      "velocity": 104,
      "chip": "ym2612"
    },
    {
      "channel": 1,
      "note": 49,
      "start": 28.5147,
      "duration": 0.068,
      "velocity": 111,
      "chip": "ym2612"
    },
    {
      "channel": 1,
      "note": 59,
      "start": 28.5832,
      "duration": 0.0746,
      "velocity": 111,
      "chip": "ym2612"
    },
    {
      "channel": 4,
      "note": 80,
      "start": 28.6092,
      "duration": 0.1778,
      "velocity": 104,
      "chip": "ym2612"
    },
    {
      "channel": 1,
      "note": 49,
      "start": 28.6583,
      "duration": 0.0749,
      "velocity": 111,
      "chip": "ym2612"
    },
    {
      "channel": 0,
      "note": 78,
      "start": 28.7331,
      "duration": 0.0997,
      "velocity": 104,
      "chip": "ym2612"
    },
    {
      "channel": 1,
      "note": 56,
      "start": 28.7338,
      "duration": 0.0303,
      "velocity": 111,
      "chip": "ym2612"
    },
    {
      "channel": 1,
      "note": 59,
      "start": 28.7647,
      "duration": 0.0688,
      "velocity": 111,
      "chip": "ym2612"
    },
    {
      "channel": 4,
      "note": 78,
      "start": 28.7876,
      "duration": 0.2216,
      "velocity": 104,
      "chip": "ym2612"
    },
    {
      "channel": 0,
      "note": 83,
      "start": 28.8334,
      "duration": 0.2566,
      "velocity": 104,
      "chip": "ym2612"
    },
    {
      "channel": 1,
      "note": 47,
      "start": 28.8341,
      "duration": 0.0739,
      "velocity": 111,
      "chip": "ym2612"
    },
    {
      "channel": 2,
      "note": 75,
      "start": 28.8348,
      "duration": 0.6739,
      "velocity": 98,
      "chip": "ym2612"
    },
    {
      "channel": 3,
      "note": 78,
      "start": 28.8356,
      "duration": 0.6739,
      "velocity": 98,
      "chip": "ym2612"
    },
    {
      "channel": 1,
      "note": 47,
      "start": 28.9085,
      "duration": 0.1498,
      "velocity": 111,
      "chip": "ym2612"
    },
    {
      "channel": 4,
      "note": 83,
      "start": 29.0098,
      "duration": 0.2733,
      "velocity": 104,
      "chip": "ym2612"
    },
    {
      "channel": 1,
      "note": 54,
      "start": 29.0589,
      "duration": 0.0318,
      "velocity": 111,
      "chip": "ym2612"
    },
    {
      "channel": 0,
      "note": 81,
      "start": 29.0906,
      "duration": 0.3163,
      "velocity": 104,
      "chip": "ym2612"
    },
    {
      "channel": 1,
      "note": 47,
      "start": 29.0913,
      "duration": 0.0905,
      "velocity": 111,
      "chip": "ym2612"
    },
    {
      "channel": 1,
      "note": 59,
      "start": 29.1824,
      "duration": 0.1497,
      "velocity": 111,
      "chip": "ym2612"
    },
    {
      "channel": 4,
      "note": 81,
      "start": 29.2837,
      "duration": 0.1779,
      "velocity": 104,
      "chip": "ym2612"
    },
    {
      "channel": 1,
      "note": 57,
      "start": 29.3328,
      "duration": 0.0749,
      "velocity": 111,
      "chip": "ym2612"
    },
    {
      "channel": 0,
      "note": 80,
      "start": 29.4076,
      "duration": 0.0996,
      "velocity": 104,
      "chip": "ym2612"
    },
    {
      "channel": 1,
      "note": 56,
      "start": 29.4083,
      "duration": 0.0306,
      "velocity": 111,
      "chip": "ym2612"
    },
    {
      "channel": 1,
      "note": 54,
      "start": 29.4395,
      "duration": 0.0685,
      "velocity": 111,
      "chip": "ym2612"
    },
    {
      "channel": 4,
      "note": 80,
      "start": 29.4621,
      "duration": 0.2213,
      "velocity": 104,
      "chip": "ym2612"
    },
    {
      "channel": 0,
      "note": 81,
      "start": 29.5078,
      "duration": 0.2557,
      "velocity": 104,
      "chip": "ym2612"
    },
    {
      "channel": 1,
      "note": 57,
      "start": 29.5085,
      "duration": 0.0737,
      "velocity": 111,
      "chip": "ym2612"
    },
    {
      "channel": 2,
      "note": 73,
      "start": 29.5092,
      "duration": 0.5918,
      "velocity": 98,
      "chip": "ym2612"
    },
    {
      "channel": 3,
      "note": 76,
      "start": 29.51,
      "duration": 0.5918,
      "velocity": 98,
      "chip": "ym2612"
    },
    {
      "channel": 1,
      "note": 57,
      "start": 29.5828,
      "duration": 0.1497,
      "velocity": 111,
      "chip": "ym2612"
    },
    {
      "channel": 4,
      "note": 81,
      "start": 29.684,
      "duration": 0.1746,
      "velocity": 104,
      "chip": "ym2612"
    },
    {
      "channel": 1,
      "note": 52,
      "start": 29.7331,
      "duration": 0.0311,
      "velocity": 111,
      "chip": "ym2612"
    },
    {
      "channel": 0,
      "note": 83,
      "start": 29.7641,
      "duration": 0.2184,
      "velocity": 104,
      "chip": "ym2612"
    },
    {
      "channel": 1,
      "note": 57,
      "start": 29.7648,
      "duration": 0.0679,
      "velocity": 111,
      "chip": "ym2612"
    },
    {
      "channel": 1,
      "note": 61,
      "start": 29.8332,
      "duration": 0.0745,
      "velocity": 111,
      "chip": "ym2612"
    },
    {
      "channel": 4,
      "note": 83,
      "start": 29.8592,
      "duration": 0.1916,
      "velocity": 104,
      "chip": "ym2612"
    },
    {
      "channel": 1,
      "note": 52,
      "start": 29.9083,
      "duration": 0.0749,
      "velocity": 111,
      "chip": "ym2612"
    },
    {
      "channel": 0,
      "note": 85,
      "start": 29.9831,
      "duration": 0.1164,
      "velocity": 104,
      "chip": "ym2612"
    },
    {
      "channel": 1,
      "note": 57,
      "start": 29.9838,
      "duration": 0.0338,
      "velocity": 111,
      "chip": "ym2612"
    },
    {
      "channel": 1,
      "note": 59,
      "start": 30.0183,
      "duration": 0.0821,
      "velocity": 111,
      "chip": "ym2612"
    },
    {
      "channel": 4,
      "note": 85,
      "start": 30.0515,
      "duration": 0.2245,
      "velocity": 104,
      "chip": "ym2612"
    },
    {
      "channel": 0,
      "note": 83,
      "start": 30.1002,
      "duration": 0.2565,
      "velocity": 104,
      "chip": "ym2612"
    },
    {
      "channel": 1,
      "note": 47,
      "start": 30.1009,
      "duration": 0.0738,
      "velocity": 111,
      "chip": "ym2612"
    },
    {
      "channel": 2,
      "note": 75,
      "start": 30.1016,
      "duration": 0.6573,
      "velocity": 98,
      "chip": "ym2612"
    },
    {
      "channel": 3,
      "note": 78,
      "start": 30.1024,
      "duration": 0.6572,
      "velocity": 98,
      "chip": "ym2612"
    },
    {
      "channel": 1,
      "note": 47,
      "start": 30.1753,
      "duration": 0.1497,
      "velocity": 111,
      "chip": "ym2612"
    },
    {
      "channel": 4,
      "note": 83,
      "start": 30.2766,
      "duration": 0.2566,
      "velocity": 104,
      "chip": "ym2612"
    },
    {
      "channel": 1,
      "note": 54,
      "start": 30.3256,
      "duration": 0.0318,
      "velocity": 111,
      "chip": "ym2612"
    },
    {
      "channel": 0,
      "note": 78,
      "start": 30.3574,
      "duration": 0.4,
      "velocity": 104,
      "chip": "ym2612"
    },
    {
      "channel": 1,
      "note": 47,
      "start": 30.3581,
      "duration": 0.0739,
      "velocity": 111,
      "chip": "ym2612"
    },
    {
      "channel": 1,
      "note": 59,
      "start": 30.4325,
      "duration": 0.1497,
      "velocity": 111,
      "chip": "ym2612"
    },
    {
      "channel": 4,
      "note": 78,
      "start": 30.5337,
      "duration": 0.4,
      "velocity": 104,
      "chip": "ym2612"
    },
    {
      "channel": 1,
      "note": 54,
      "start": 30.5828,
      "duration": 0.0745,
      "velocity": 111,
      "chip": "ym2612"
    },
    {
      "channel": 1,
      "note": 52,
      "start": 30.6579,
      "duration": 0.0318,
      "velocity": 111,
      "chip": "ym2612"
    },
    {
      "channel": 1,
      "note": 47,
      "start": 30.6903,
      "duration": 0.0679,
      "velocity": 111,
      "chip": "ym2612"
    },
    {
      "channel": 0,
      "note": 73,
      "start": 30.758,
      "duration": 0.2725,
      "velocity": 104,
      "chip": "ym2612"
    },
    {
      "channel": 1,
      "note": 49,
      "start": 30.7587,
      "duration": 0.0737,
      "velocity": 111,
      "chip": "ym2612"
    },
    {
      "channel": 2,
      "note": 80,
      "start": 30.7594,
      "duration": 0.5917,
      "velocity": 98,
      "chip": "ym2612"
    },
    {
      "channel": 3,
      "note": 85,
      "start": 30.7602,
      "duration": 0.5917,
      "velocity": 98,
      "chip": "ym2612"
    },
    {
      "channel": 1,
      "note": 49,
      "start": 30.833,
      "duration": 0.1664,
      "velocity": 111,
      "chip": "ym2612"
    },
    {
      "channel": 4,
      "note": 73,
      "start": 30.9342,
      "duration": 0.1916,
      "velocity": 104,
      "chip": "ym2612"
    },
    {
      "channel": 1,
      "note": 56,
      "start": 31.0,
      "duration": 0.0312,
      "velocity": 111,
      "chip": "ym2612"
    },
    {
      "channel": 0,
      "note": 80,
      "start": 31.0311,
      "duration": 0.2185,
      "velocity": 104,
      "chip": "ym2612"
    },
    {
      "channel": 1,
      "note": 49,
      "start": 31.0318,
      "duration": 0.0679,
      "velocity": 111,
      "chip": "ym2612"
    },
    {
      "channel": 1,
      "note": 61,
      "start": 31.1003,
      "duration": 0.0746,
      "velocity": 111,
      "chip": "ym2612"
    },
    {
      "channel": 4,
      "note": 80,
      "start": 31.1264,
      "duration": 0.1777,
      "velocity": 104,
      "chip": "ym2612"
    },
    {
      "channel": 1,
      "note": 49,
      "start": 31.1755,
      "duration": 0.0748,
      "velocity": 111,
      "chip": "ym2612"
    },
    {
      "channel": 0,
      "note": 78,
      "start": 31.2502,
      "duration": 0.0995,
      "velocity": 104,
      "chip": "ym2612"
    },
    {
      "channel": 1,
      "note": 56,
      "start": 31.2509,
      "duration": 0.0305,
      "velocity": 111,
      "chip": "ym2612"
    },
    {
      "channel": 1,
      "note": 49,
      "start": 31.282,
      "duration": 0.0685,
      "velocity": 111,
      "chip": "ym2612"
    },
    {
      "channel": 4,
      "note": 78,
      "start": 31.3046,
      "duration": 0.2214,
      "velocity": 104,
      "chip": "ym2612"
    },
    {
      "channel": 0,
      "note": 83,
      "start": 31.3504,
      "duration": 0.2563,
      "velocity": 104,
      "chip": "ym2612"
    },
    {
      "channel": 1,
      "note": 51,
      "start": 31.3511,
      "duration": 0.0737,
      "velocity": 111,
      "chip": "ym2612"
    },
    {
      "channel": 2,
      "note": 83,
      "start": 31.3518,
      "duration": 0.6736,
      "velocity": 98,
      "chip": "ym2612"
    },
    {
      "channel": 3,
      "note": 87,
      "start": 31.3525,
      "duration": 0.6737,
      "velocity": 98,
      "chip": "ym2612"
    },
    {
      "channel": 1,
      "note": 51,
      "start": 31.4254,
      "duration": 0.1497,
      "velocity": 111,
      "chip": "ym2612"
    },
    {
      "channel": 4,
      "note": 83,
      "start": 31.5267,
      "duration": 0.2565,
      "velocity": 104,
      "chip": "ym2612"
    },
    {
      "channel": 1,
      "note": 63,
      "start": 31.5758,
      "duration": 0.0317,
      "velocity": 111,
      "chip": "ym2612"
    },
    {
      "channel": 0,
      "note": 85,
      "start": 31.6073,
      "duration": 0.3163,
      "velocity": 104,
      "chip": "ym2612"
    },
    {
      "channel": 1,
      "note": 51,
      "start": 31.608,
      "duration": 0.0739,
      "velocity": 111,
      "chip": "ym2612"
    },
    {
      "channel": 1,
      "note": 58,
      "start": 31.6825,
      "duration": 0.1497,
      "velocity": 111,
      "chip": "ym2612"
    },
    {
      "channel": 4,
      "note": 85,
      "start": 31.7837,
      "duration": 0.1945,
      "velocity": 104,
      "chip": "ym2612"
    },
    {
      "channel": 1,
      "note": 51,
      "start": 31.8328,
      "duration": 0.0915,
      "velocity": 111,
      "chip": "ym2612"
    },
    {
      "channel": 0,
      "note": 87,
      "start": 31.9242,
      "duration": 0.0997,
      "velocity": 104,
      "chip": "ym2612"
    },
    {
      "channel": 1,
      "note": 63,
      "start": 31.9249,
      "duration": 0.0306,
      "velocity": 111,
      "chip": "ym2612"
    },
    {
      "channel": 1,
      "note": 51,
      "start": 31.9561,
      "duration": 0.0686,
      "velocity": 111,
      "chip": "ym2612"
    },
    {
      "channel": 4,
      "note": 87,
      "start": 31.9788,
      "duration": 0.2214,
      "velocity": 104,
      "chip": "ym2612"
    },
    {
      "channel": 0,
      "note": 88,
      "start": 32.0246,
      "duration": 0.2558,
      "velocity": 104,
      "chip": "ym2612"
    },
    {
      "channel": 1,
      "note": 52,
      "start": 32.0253,
      "duration": 0.0737,
      "velocity": 111,
      "chip": "ym2612"
    },
    {
      "channel": 2,
      "note": 83,
      "start": 32.026,
      "duration": 0.575,
      "velocity": 98,
      "chip": "ym2612"
    },
    {
      "channel": 3,
      "note": 88,
      "start": 32.0268,
      "duration": 0.575,
      "velocity": 98,
      "chip": "ym2612"
    },
    {
      "channel": 1,
      "note": 52,
      "start": 32.0996,
      "duration": 0.1497,
      "velocity": 111,
      "chip": "ym2612"
    },
    {
      "channel": 4,
      "note": 88,
      "start": 32.2008,
      "duration": 0.1747,
      "velocity": 104,
      "chip": "ym2612"
    },
    {
      "channel": 1,
      "note": 64,
      "start": 32.2499,
      "duration": 0.0311,
      "velocity": 111,
      "chip": "ym2612"
    },
    {
      "channel": 0,
      "note": 90,
      "start": 32.2809,
      "duration": 0.2184,
      "velocity": 104,
      "chip": "ym2612"
    },
    {
      "channel": 1,
      "note": 52,
      "start": 32.2816,
      "duration": 0.0678,
      "velocity": 111,
      "chip": "ym2612"
    },
    {
      "channel": 1,
      "note": 59,
      "start": 32.35,
      "duration": 0.0746,
      "velocity": 111,
      "chip": "ym2612"
    },
    {
      "channel": 4,
      "note": 90,
      "start": 32.3761,
      "duration": 0.1778,
      "velocity": 104,
      "chip": "ym2612"
    },
    {
      "channel": 1,
      "note": 52,
      "start": 32.4252,
      "duration": 0.0749,
      "velocity": 111,
      "chip": "ym2612"
    },
    {
      "channel": 0,
      "note": 92,
      "start": 32.5,
      "duration": 0.0996,
      "velocity": 104,
      "chip": "ym2612"
    },
    {
      "channel": 1,
      "note": 64,
      "start": 32.5007,
      "duration": 0.0305,
      "velocity": 111,
      "chip": "ym2612"
    },
    {
      "channel": 1,
      "note": 52,
      "start": 32.5317,
      "duration": 0.0686,
      "velocity": 111,
      "chip": "ym2612"
    },
    {
      "channel": 4,
      "note": 92,
      "start": 32.5545,
      "duration": 0.2381,
      "velocity": 104,
      "chip": "ym2612"
    },
    {
      "channel": 0,
      "note": 95,
      "start": 32.6002,
      "duration": 0.2732,
      "velocity": 104,
      "chip": "ym2612"
    },
    {
      "channel": 1,
      "note": 54,
      "start": 32.6009,
      "duration": 0.0906,
      "velocity": 111,
      "chip": "ym2612"
    },
    {
      "channel": 2,
      "note": 87,
      "start": 32.6017,
      "duration": 0.6729,
      "velocity": 98,
      "chip": "ym2612"
    },
    {
      "channel": 3,
      "note": 90,
      "start": 32.6024,
      "duration": 0.6725,
      "velocity": 98,
      "chip": "ym2612"
    },
    {
      "channel": 1,
      "note": 54,
      "start": 32.6921,
      "duration": 0.1496,
      "velocity": 111,
      "chip": "ym2612"
    },
    {
      "channel": 4,
      "note": 95,
      "start": 32.7932,
      "duration": 0.2565,
      "velocity": 104,
      "chip": "ym2612"
    },
    {
      "channel": 1,
      "note": 61,
      "start": 32.8423,
      "duration": 0.0317,
      "velocity": 111,
      "chip": "ym2612"
    },
    {
      "channel": 0,
      "note": 90,
      "start": 32.874,
      "duration": 0.4001,
      "velocity": 104,
      "chip": "ym2612"
    },
    {
      "channel": 1,
      "note": 54,
      "start": 32.8747,
      "duration": 0.0738,
      "velocity": 111,
      "chip": "ym2612"
    },
    {
      "channel": 1,
      "note": 66,
      "start": 32.9491,
      "duration": 0.1497,
      "velocity": 111,
      "chip": "ym2612"
    },
    {
      "channel": 4,
      "note": 90,
      "start": 33.0504,
      "duration": 0.3239,
      "velocity": 104,
      "chip": "ym2612"
    },
    {
      "channel": 1,
      "note": 61,
      "start": 33.0995,
      "duration": 0.0745,
      "velocity": 111,
      "chip": "ym2612"
    },
    {
      "channel": 1,
      "note": 54,
      "start": 33.1746,
      "duration": 0.0319,
      "velocity": 111,
      "chip": "ym2612"
    },
    {
      "channel": 1,
      "note": 66,
      "start": 33.207,
      "duration": 0.0674,
      "velocity": 111,
      "chip": "ym2612"
    },
    {
      "channel": 1,
      "note": 55,
      "start": 33.4248,
      "duration": 1.6165,
      "velocity": 111,
      "chip": "ym2612"
    },
    {
      "channel": 2,
      "note": 83,
      "start": 33.4256,
      "duration": 1.616,
      "velocity": 98,
      "chip": "ym2612"
    },
    {
      "channel": 3,
      "note": 85,
      "start": 33.4263,
      "duration": 1.6156,
      "velocity": 98,
      "chip": "ym2612"
    },
    {
      "channel": 0,
      "note": 85,
      "start": 35.1609,
      "duration": 22.9973,
      "velocity": 105,
      "chip": "ym2612"
    },
    {
      "channel": 1,
      "note": 49,
      "start": 35.1617,
      "duration": 22.9965,
      "velocity": 111,
      "chip": "ym2612"
    },
    {
      "channel": 2,
      "note": 76,
      "start": 35.1646,
      "duration": 22.9936,
      "velocity": 111,
      "chip": "ym2612"
    },
    {
      "channel": 3,
      "note": 71,
      "start": 35.1675,
      "duration": 22.9907,
      "velocity": 111,
      "chip": "ym2612"
    }
  ]
}