{
  "track_name": "28 - Credits",
  "duration_sec": 79.198,
  "sample_rate": 44100,
  "note_count": 1063,
  "unique_pitches": 44,
  "pitch_range": 59,
  "avg_note_duration": 0.1732,
  "reconstruction_stats": {
    "notes_reconstructed": 1063,
    "keyon_events": 1063,
    "keyoff_events": 1061,
    "orphan_keyons": 2,
    "unique_pitches": 44,
    "pitch_range": 59,
    "avg_duration_sec": 0.1732
  },
  "metadata": {
    "source": "S\\Sonic 3D Blast\\28 - Credits.vgm"
  },
  "notes": [
    {
      "channel": 0,
      "note": 66,
      "start": 0.0,
      "duration": 0.2645,
      "velocity": 91,
      "chip": "ym2612"
    },
    {
      "channel": 3,
      "note": 76,
      "start": 0.0081,
      "duration": 0.791,
      "velocity": 93,
      "chip": "ym2612"
    },
    {
      "channel": 4,
      "note": 81,
      "start": 0.0325,
      "duration": 0.0494,
      "velocity": 93,
      "chip": "ym2612"
    },
    {
      "channel": 4,
      "note": 83,
      "start": 0.0825,
      "duration": 0.0496,
      "velocity": 93,
      "chip": "ym2612"
    },
    {
      "channel": 4,
      "note": 85,
      "start": 0.1328,
      "duration": 0.3999,
      "velocity": 93,
      "chip": "ym2612"
    },
    {
      "channel": 1,
      "note": 64,
      "start": 0.2654,
      "duration": 0.0825,
      "velocity": 92,
      "chip": "ym2612"
    },
    {
      "channel": 2,
      "note": 69,
      "start": 0.2661,
      "duration": 0.0821,
      "velocity": 92,
      "chip": "ym2612"
    },
    {
      "channel": 0,
      "note": 78,
      "start": 0.4318,
      "duration": 0.0993,
      "velocity": 91,
      "chip": "ym2612"
    },
    {
      "channel": 2,
      "note": 54,
      "start": 0.5321,
      "duration": 0.0825,
      "velocity": 92,
      "chip": "ym2612"
    },
    {
      "channel": 4,
      "note": 83,
      "start": 0.5333,
      "duration": 0.2665,
      "velocity": 93,
      "chip": "ym2612"
    },
    {
      "channel": 0,
      "note": 78,
      "start": 0.6985,
      "duration": 0.0993,
      "velocity": 91,
      "chip": "ym2612"
    },
    {
      "channel": 1,
      "note": 64,
      "start": 0.6992,
      "duration": 0.0994,
      "velocity": 92,
      "chip": "ym2612"
    },
    {
      "channel": 2,
      "note": 69,
      "start": 0.6999,
      "duration": 0.099,
      "velocity": 92,
      "chip": "ym2612"
    },
    {
      "channel": 0,
      "note": 76,
      "start": 0.7985,
      "duration": 0.166,
      "velocity": 91,
      "chip": "ym2612"
    },
    {
      "channel": 3,
      "note": 76,
      "start": 0.7996,
      "duration": 0.1321,
      "velocity": 93,
      "chip": "ym2612"
    },
    {
      "channel": 4,
      "note": 81,
      "start": 0.8004,
      "duration": 0.1316,
      "velocity": 93,
      "chip": "ym2612"
    },
    {
      "channel": 0,
      "note": 78,
      "start": 0.9651,
      "duration": 0.1327,
      "velocity": 91,
      "chip": "ym2612"
    },
    {
      "channel": 2,
      "note": 54,
      "start": 0.9659,
      "duration": 0.0998,
      "velocity": 92,
      "chip": "ym2612"
    },
    {
      "channel": 1,
      "note": 64,
      "start": 1.0655,
      "duration": 0.1324,
      "velocity": 92,
      "chip": "ym2612"
    },
    {
      "channel": 2,
      "note": 69,
      "start": 1.0662,
      "duration": 0.132,
      "velocity": 92,
      "chip": "ym2612"
    },
    {
      "channel": 0,
      "note": 64,
      "start": 1.3318,
      "duration": 0.266,
      "velocity": 91,
      "chip": "ym2612"
    },
    {
      "channel": 3,
      "note": 76,
      "start": 1.3326,
      "duration": 0.1324,
      "velocity": 93,
      "chip": "ym2612"
    },
    {
      "channel": 4,
      "note": 83,
      "start": 1.3334,
      "duration": 0.1319,
      "velocity": 93,
      "chip": "ym2612"
    },
    {
      "channel": 1,
      "note": 64,
      "start": 1.4988,
      "duration": 0.0998,
      "velocity": 92,
      "chip": "ym2612"
    },
    {
      "channel": 2,
      "note": 69,
      "start": 1.4995,
      "duration": 0.0993,
      "velocity": 92,
      "chip": "ym2612"
    },
    {
      "channel": 0,
      "note": 66,
      "start": 1.5984,
      "duration": 0.2661,
      "velocity": 91,
      "chip": "ym2612"
    },
    {
      "channel": 2,
      "note": 52,
      "start": 1.5994,
      "duration": 0.2665,
      "velocity": 92,
      "chip": "ym2612"
    },
    {
      "channel": 0,
      "note": 69,
      "start": 1.8651,
      "duration": 0.2663,
      "velocity": 91,
      "chip": "ym2612"
    },
    {
      "channel": 1,
      "note": 62,
      "start": 1.8658,
      "duration": 0.5323,
      "velocity": 92,
      "chip": "ym2612"
    },
    {
      "channel": 2,
      "note": 71,
      "start": 1.8665,
      "duration": 0.5323,
      "velocity": 92,
      "chip": "ym2612"
    },
    {
      "channel": 3,
      "note": 79,
      "start": 1.8673,
      "duration": 1.3323,
      "velocity": 93,
      "chip": "ym2612"
    },
    {
      "channel": 4,
      "note": 85,
      "start": 1.868,
      "duration": 1.3322,
      "velocity": 93,
      "chip": "ym2612"
    },
    {
      "channel": 0,
      "note": 69,
      "start": 2.2985,
      "duration": 0.0993,
      "velocity": 91,
      "chip": "ym2612"
    },
    {
      "channel": 1,
      "note": 67,
      "start": 2.3987,
      "duration": 0.0825,
      "velocity": 92,
      "chip": "ym2612"
    },
    {
      "channel": 2,
      "note": 69,
      "start": 2.3995,
      "duration": 0.0821,
      "velocity": 92,
      "chip": "ym2612"
    },
    {
      "channel": 0,
      "note": 79,
      "start": 2.5651,
      "duration": 0.0993,
      "velocity": 91,
      "chip": "ym2612"
    },
    {
      "channel": 0,
      "note": 69,
      "start": 2.6651,
      "duration": 0.166,
      "velocity": 91,
      "chip": "ym2612"
    },
    {
      "channel": 2,
      "note": 57,
      "start": 2.6659,
      "duration": 0.1324,
      "velocity": 92,
      "chip": "ym2612"
    },
    {
      "channel": 1,
      "note": 62,
      "start": 2.8321,
      "duration": 0.0999,
      "velocity": 92,
      "chip": "ym2612"
    },
    {
      "channel": 2,
      "note": 69,
      "start": 2.8328,
      "duration": 0.0994,
      "velocity": 92,
      "chip": "ym2612"
    },
    {
      "channel": 0,
      "note": 69,
      "start": 2.9318,
      "duration": 0.166,
      "velocity": 91,
      "chip": "ym2612"
    },
    {
      "channel": 0,
      "note": 81,
      "start": 3.0985,
      "duration": 0.0993,
      "velocity": 91,
      "chip": "ym2612"
    },
    {
      "channel": 2,
      "note": 55,
      "start": 3.0992,
      "duration": 0.0996,
      "velocity": 92,
      "chip": "ym2612"
    },
    {
      "channel": 1,
      "note": 62,
      "start": 3.1987,
      "duration": 0.1325,
      "velocity": 92,
      "chip": "ym2612"
    },
    {
      "channel": 2,
      "note": 69,
      "start": 3.1995,
      "duration": 0.1321,
      "velocity": 92,
      "chip": "ym2612"
    },
    {
      "channel": 3,
      "note": 79,
      "start": 3.2001,
      "duration": 0.5326,
      "velocity": 93,
      "chip": "ym2612"
    },
    {
      "channel": 4,
      "note": 85,
      "start": 3.2006,
      "duration": 0.2651,
      "velocity": 93,
      "chip": "ym2612"
    },
    {
      "channel": 0,
      "note": 69,
      "start": 3.4651,
      "duration": 0.266,
      "velocity": 91,
      "chip": "ym2612"
    },
    {
      "channel": 4,
      "note": 86,
      "start": 3.4664,
      "duration": 0.267,
      "velocity": 93,
      "chip": "ym2612"
    },
    {
      "channel": 1,
      "note": 62,
      "start": 3.6322,
      "duration": 0.1326,
      "velocity": 92,
      "chip": "ym2612"
    },
    {
      "channel": 2,
      "note": 69,
      "start": 3.6329,
      "duration": 0.1322,
      "velocity": 92,
      "chip": "ym2612"
    },
    {
      "channel": 0,
      "note": 81,
      "start": 3.7318,
      "duration": 0.266,
      "velocity": 91,
      "chip": "ym2612"
    },
    {
      "channel": 3,
      "note": 79,
      "start": 3.7333,
      "duration": 0.5328,
      "velocity": 93,
      "chip": "ym2612"
    },
    {
      "channel": 4,
      "note": 88,
      "start": 3.734,
      "duration": 0.5327,
      "velocity": 93,
      "chip": "ym2612"
    },
    {
      "channel": 0,
      "note": 69,
      "start": 3.9985,
      "duration": 0.2663,
      "velocity": 91,
      "chip": "ym2612"
    },
    {
      "channel": 0,
      "note": 62,
      "start": 4.2653,
      "duration": 0.1658,
      "velocity": 91,
      "chip": "ym2612"
    },
    {
      "channel": 3,
      "note": 78,
      "start": 4.2667,
      "duration": 0.9317,
      "velocity": 93,
      "chip": "ym2612"
    },
    {
      "channel": 4,
      "note": 85,
      "start": 4.2674,
      "duration": 0.5324,
      "velocity": 93,
      "chip": "ym2612"
    },
    {
      "channel": 0,
      "note": 74,
      "start": 4.4318,
      "duration": 0.0993,
      "velocity": 91,
      "chip": "ym2612"
    },
    {
      "channel": 1,
      "note": 64,
      "start": 4.5321,
      "duration": 0.1325,
      "velocity": 92,
      "chip": "ym2612"
    },
    {
      "channel": 2,
      "note": 73,
      "start": 4.5328,
      "duration": 0.1321,
      "velocity": 92,
      "chip": "ym2612"
    },
    {
      "channel": 0,
      "note": 73,
      "start": 4.6985,
      "duration": 0.0993,
      "velocity": 91,
      "chip": "ym2612"
    },
    {
      "channel": 0,
      "note": 62,
      "start": 4.7985,
      "duration": 0.266,
      "velocity": 91,
      "chip": "ym2612"
    },
    {
      "channel": 2,
      "note": 38,
      "start": 4.7992,
      "duration": 0.0823,
      "velocity": 92,
      "chip": "ym2612"
    },
    {
      "channel": 4,
      "note": 83,
      "start": 4.8004,
      "duration": 0.2659,
      "velocity": 93,
      "chip": "ym2612"
    },
    {
      "channel": 1,
      "note": 64,
      "start": 4.9655,
      "duration": 0.0998,
      "velocity": 92,
      "chip": "ym2612"
    },
    {
      "channel": 2,
      "note": 69,
      "start": 4.9662,
      "duration": 0.0994,
      "velocity": 92,
      "chip": "ym2612"
    },
    {
      "channel": 0,
      "note": 73,
      "start": 5.0651,
      "duration": 0.166,
      "velocity": 91,
      "chip": "ym2612"
    },
    {
      "channel": 4,
      "note": 81,
      "start": 5.0668,
      "duration": 0.1318,
      "velocity": 93,
      "chip": "ym2612"
    },
    {
      "channel": 0,
      "note": 74,
      "start": 5.2318,
      "duration": 0.0993,
      "velocity": 91,
      "chip": "ym2612"
    },
    {
      "channel": 1,
      "note": 64,
      "start": 5.3321,
      "duration": 0.1325,
      "velocity": 92,
      "chip": "ym2612"
    },
    {
      "channel": 2,
      "note": 69,
      "start": 5.3328,
      "duration": 0.1321,
      "velocity": 92,
      "chip": "ym2612"
    },
    {
      "channel": 0,
      "note": 62,
      "start": 5.5984,
      "duration": 0.2661,
      "velocity": 91,
      "chip": "ym2612"
    },
    {
      "channel": 3,
      "note": 78,
      "start": 5.5993,
      "duration": 0.1324,
      "velocity": 93,
      "chip": "ym2612"
    },
    {
      "channel": 4,
      "note": 83,
      "start": 5.6001,
      "duration": 0.1319,
      "velocity": 93,
      "chip": "ym2612"
    },
    {
      "channel": 1,
      "note": 64,
      "start": 5.7655,
      "duration": 0.0998,
      "velocity": 92,
      "chip": "ym2612"
    },
    {
      "channel": 2,
      "note": 69,
      "start": 5.7662,
      "duration": 0.0993,
      "velocity": 92,
      "chip": "ym2612"
    },
    {
      "channel": 0,
      "note": 74,
      "start": 5.8651,
      "duration": 0.2661,
      "velocity": 91,
      "chip": "ym2612"
    },
    {
      "channel": 0,
      "note": 61,
      "start": 6.1317,
      "duration": 0.2663,
      "velocity": 91,
      "chip": "ym2612"
    },
    {
      "channel": 1,
      "note": 66,
      "start": 6.1325,
      "duration": 0.2659,
      "velocity": 92,
      "chip": "ym2612"
    },
    {
      "channel": 2,
      "note": 71,
      "start": 6.1332,
      "duration": 0.2655,
      "velocity": 92,
      "chip": "ym2612"
    },
    {
      "channel": 3,
      "note": 78,
      "start": 6.134,
      "duration": 1.0656,
      "velocity": 93,
      "chip": "ym2612"
    },
    {
      "channel": 4,
      "note": 85,
      "start": 6.1347,
      "duration": 0.7984,
      "velocity": 93,
      "chip": "ym2612"
    },
    {
      "channel": 0,
      "note": 61,
      "start": 6.6651,
      "duration": 0.0827,
      "velocity": 91,
      "chip": "ym2612"
    },
    {
      "channel": 1,
      "note": 66,
      "start": 6.6658,
      "duration": 0.1321,
      "velocity": 92,
      "chip": "ym2612"
    },
    {
      "channel": 2,
      "note": 71,
      "start": 6.6666,
      "duration": 0.1316,
      "velocity": 92,
      "chip": "ym2612"
    },
    {
      "channel": 0,
      "note": 85,
      "start": 6.8318,
      "duration": 0.0993,
      "velocity": 91,
      "chip": "ym2612"
    },
    {
      "channel": 0,
      "note": 62,
      "start": 6.9317,
      "duration": 0.0827,
      "velocity": 91,
      "chip": "ym2612"
    },
    {
      "channel": 2,
      "note": 56,
      "start": 6.9326,
      "duration": 0.0823,
      "velocity": 92,
      "chip": "ym2612"
    },
    {
      "channel": 4,
      "note": 86,
      "start": 6.9337,
      "duration": 0.2667,
      "velocity": 93,
      "chip": "ym2612"
    },
    {
      "channel": 0,
      "note": 83,
      "start": 7.0985,
      "duration": 0.0993,
      "velocity": 91,
      "chip": "ym2612"
    },
    {
      "channel": 1,
      "note": 66,
      "start": 7.0992,
      "duration": 0.0994,
      "velocity": 92,
      "chip": "ym2612"
    },
    {
      "channel": 2,
      "note": 71,
      "start": 7.0999,
      "duration": 0.099,
      "velocity": 92,
      "chip": "ym2612"
    },
    {
      "channel": 0,
      "note": 85,
      "start": 7.1985,
      "duration": 0.166,
      "velocity": 91,
      "chip": "ym2612"
    },
    {
      "channel": 2,
      "note": 56,
      "start": 7.1995,
      "duration": 0.0821,
      "velocity": 92,
      "chip": "ym2612"
    },
    {
      "channel": 3,
      "note": 77,
      "start": 7.2002,
      "duration": 1.3352,
      "velocity": 101,
      "chip": "ym2612"
    },
    {
      "channel": 4,
      "note": 83,
      "start": 7.201,
      "duration": 1.3352,
      "velocity": 93,
      "chip": "ym2612"
    },
    {
      "channel": 0,
      "note": 61,
      "start": 7.4651,
      "duration": 0.166,
      "velocity": 91,
      "chip": "ym2612"
    },
    {
      "channel": 1,
      "note": 65,
      "start": 7.4658,
      "duration": 0.1324,
      "velocity": 92,
      "chip": "ym2612"
    },
    {
      "channel": 2,
      "note": 76,
      "start": 7.4666,
      "duration": 0.1319,
      "velocity": 92,
      "chip": "ym2612"
    },
    {
      "channel": 0,
      "note": 85,
      "start": 7.6318,
      "duration": 0.0993,
      "velocity": 91,
      "chip": "ym2612"
    },
    {
      "channel": 0,
      "note": 61,
      "start": 7.7317,
      "duration": 0.2661,
      "velocity": 91,
      "chip": "ym2612"
    },
    {
      "channel": 1,
      "note": 65,
      "start": 7.8988,
      "duration": 0.266,
      "velocity": 92,
      "chip": "ym2612"
    },
    {
      "channel": 2,
      "note": 76,
      "start": 7.8995,
      "duration": 0.2656,
      "velocity": 92,
      "chip": "ym2612"
    },
    {
      "channel": 0,
      "note": 61,
      "start": 7.9984,
      "duration": 0.2661,
      "velocity": 91,
      "chip": "ym2612"
    },
    {
      "channel": 0,
      "note": 61,
      "start": 8.2651,
      "duration": 0.166,
      "velocity": 91,
      "chip": "ym2612"
    },
    {
      "channel": 1,
      "note": 65,
      "start": 8.2658,
      "duration": 0.0823,
      "velocity": 92,
      "chip": "ym2612"
    },
    {
      "channel": 2,
      "note": 74,
      "start": 8.2665,
      "duration": 0.0819,
      "velocity": 92,
      "chip": "ym2612"
    },
    {
      "channel": 0,
      "note": 80,
      "start": 8.4318,
      "duration": 0.0996,
      "velocity": 91,
      "chip": "ym2612"
    },
    {
      "channel": 2,
      "note": 54,
      "start": 8.4326,
      "duration": 0.0999,
      "velocity": 92,
      "chip": "ym2612"
    },
    {
      "channel": 0,
      "note": 66,
      "start": 8.532,
      "duration": 0.2658,
      "velocity": 91,
      "chip": "ym2612"
    },
    {
      "channel": 3,
      "note": 92,
      "start": 8.536,
      "duration": 1.3294,
      "velocity": 101,
      "chip": "ym2612"
    },
    {
      "channel": 4,
      "note": 81,
      "start": 8.5658,
      "duration": 0.0494,
      "velocity": 93,
      "chip": "ym2612"
    },
    {
      "channel": 4,
      "note": 83,
      "start": 8.6158,
      "duration": 0.0496,
      "velocity": 93,
      "chip": "ym2612"
    },
    {
      "channel": 4,
      "note": 85,
      "start": 8.6661,
      "duration": 0.3999,
      "velocity": 93,
      "chip": "ym2612"
    },
    {
      "channel": 1,
      "note": 64,
      "start": 8.7987,
      "duration": 0.0825,
      "velocity": 92,
      "chip": "ym2612"
    },
    {
      "channel": 2,
      "note": 69,
      "start": 8.7995,
      "duration": 0.0821,
      "velocity": 92,
      "chip": "ym2612"
    },
    {
      "channel": 0,
      "note": 78,
      "start": 8.9651,
      "duration": 0.0993,
      "velocity": 91,
      "chip": "ym2612"
    },
    {
      "channel": 2,
      "note": 54,
      "start": 9.0655,
      "duration": 0.0825,
      "velocity": 92,
      "chip": "ym2612"
    },
    {
      "channel": 4,
      "note": 83,
      "start": 9.0667,
      "duration": 0.2663,
      "velocity": 93,
      "chip": "ym2612"
    },
    {
      "channel": 1,
      "note": 64,
      "start": 9.2319,
      "duration": 0.1001,
      "velocity": 92,
      "chip": "ym2612"
    },
    {
      "channel": 2,
      "note": 69,
      "start": 9.2326,
      "duration": 0.0997,
      "velocity": 92,
      "chip": "ym2612"
    },
    {
      "channel": 0,
      "note": 66,
      "start": 9.3318,
      "duration": 0.166,
      "velocity": 91,
      "chip": "ym2612"
    },
    {
      "channel": 4,
      "note": 81,
      "start": 9.3335,
      "duration": 0.132,
      "velocity": 93,
      "chip": "ym2612"
    },
    {
      "channel": 0,
      "note": 76,
      "start": 9.4985,
      "duration": 0.0993,
      "velocity": 91,
      "chip": "ym2612"
    },
    {
      "channel": 2,
      "note": 54,
      "start": 9.4992,
      "duration": 0.0996,
      "velocity": 92,
      "chip": "ym2612"
    },
    {
      "channel": 1,
      "note": 64,
      "start": 9.5987,
      "duration": 0.1325,
      "velocity": 92,
      "chip": "ym2612"
    },
    {
      "channel": 2,
      "note": 69,
      "start": 9.5995,
      "duration": 0.1321,
      "velocity": 92,
      "chip": "ym2612"
    },
    {
      "channel": 0,
      "note": 76,
      "start": 9.7651,
      "duration": 0.0993,
      "velocity": 91,
      "chip": "ym2612"
    },
    {
      "channel": 0,
      "note": 78,
      "start": 9.8651,
      "duration": 0.0827,
      "velocity": 91,
      "chip": "ym2612"
    },
    {
      "channel": 3,
      "note": 88,
      "start": 9.866,
      "duration": 0.267,
      "velocity": 101,
      "chip": "ym2612"
    },
    {
      "channel": 4,
      "note": 83,
      "start": 9.8667,
      "duration": 0.1317,
      "velocity": 93,
      "chip": "ym2612"
    },
    {
      "channel": 1,
      "note": 64,
      "start": 10.0319,
      "duration": 0.1001,
      "velocity": 92,
      "chip": "ym2612"
    },
    {
      "channel": 2,
      "note": 69,
      "start": 10.0326,
      "duration": 0.0997,
      "velocity": 92,
      "chip": "ym2612"
    },
    {
      "channel": 0,
      "note": 76,
      "start": 10.1318,
      "duration": 0.166,
      "velocity": 91,
      "chip": "ym2612"
    },
    {
      "channel": 2,
      "note": 52,
      "start": 10.1328,
      "duration": 0.2665,
      "velocity": 92,
      "chip": "ym2612"
    },
    {
      "channel": 3,
      "note": 85,
      "start": 10.1335,
      "duration": 0.2666,
      "velocity": 101,
      "chip": "ym2612"
    },
    {
      "channel": 0,
      "note": 57,
      "start": 10.2985,
      "duration": 0.0993,
      "velocity": 91,
      "chip": "ym2612"
    },
    {
      "channel": 0,
      "note": 69,
      "start": 10.3985,
      "duration": 0.3493,
      "velocity": 91,
      "chip": "ym2612"
    },
    {
      "channel": 1,
      "note": 62,
      "start": 10.3992,
      "duration": 0.5328,
      "velocity": 92,
      "chip": "ym2612"
    },
    {
      "channel": 2,
      "note": 71,
      "start": 10.3999,
      "duration": 0.5328,
      "velocity": 92,
      "chip": "ym2612"
    },
    {
      "channel": 3,
      "note": 90,
      "start": 10.4006,
      "duration": 1.5994,
      "velocity": 101,
      "chip": "ym2612"
    },
    {
      "channel": 4,
      "note": 85,
      "start": 10.4014,
      "duration": 1.3324,
      "velocity": 93,
      "chip": "ym2612"
    },
    {
      "channel": 0,
      "note": 69,
      "start": 10.9318,
      "duration": 0.166,
      "velocity": 91,
      "chip": "ym2612"
    },
    {
      "channel": 1,
      "note": 62,
      "start": 10.9325,
      "duration": 0.0823,
      "velocity": 92,
      "chip": "ym2612"
    },
    {
      "channel": 2,
      "note": 69,
      "start": 10.9333,
      "duration": 0.0818,
      "velocity": 92,
      "chip": "ym2612"
    },
    {
      "channel": 0,
      "note": 57,
      "start": 11.0985,
      "duration": 0.0993,
      "velocity": 91,
      "chip": "ym2612"
    },
    {
      "channel": 0,
      "note": 71,
      "start": 11.1985,
      "duration": 0.166,
      "velocity": 91,
      "chip": "ym2612"
    },
    {
      "channel": 1,
      "note": 62,
      "start": 11.3654,
      "duration": 0.0999,
      "velocity": 92,
      "chip": "ym2612"
    },
    {
      "channel": 2,
      "note": 69,
      "start": 11.3661,
      "duration": 0.0994,
      "velocity": 92,
      "chip": "ym2612"
    },
    {
      "channel": 0,
      "note": 71,
      "start": 11.4651,
      "duration": 0.166,
      "velocity": 91,
      "chip": "ym2612"
    },
    {
      "channel": 0,
      "note": 59,
      "start": 11.6318,
      "duration": 0.0993,
      "velocity": 91,
      "chip": "ym2612"
    },
    {
      "channel": 2,
      "note": 55,
      "start": 11.6326,
      "duration": 0.1001,
      "velocity": 92,
      "chip": "ym2612"
    },
    {
      "channel": 0,
      "note": 73,
      "start": 11.7318,
      "duration": 0.266,
      "velocity": 91,
      "chip": "ym2612"
    },
    {
      "channel": 1,
      "note": 67,
      "start": 11.7325,
      "duration": 0.1324,
      "velocity": 92,
      "chip": "ym2612"
    },
    {
      "channel": 2,
      "note": 78,
      "start": 11.7333,
      "duration": 0.1319,
      "velocity": 92,
      "chip": "ym2612"
    },
    {
      "channel": 4,
      "note": 85,
      "start": 11.7342,
      "duration": 0.2666,
      "velocity": 93,
      "chip": "ym2612"
    },
    {
      "channel": 0,
      "note": 73,
      "start": 11.9985,
      "duration": 0.266,
      "velocity": 91,
      "chip": "ym2612"
    },
    {
      "channel": 1,
      "note": 67,
      "start": 11.9992,
      "duration": 0.1324,
      "velocity": 92,
      "chip": "ym2612"
    },
    {
      "channel": 2,
      "note": 76,
      "start": 11.9999,
      "duration": 0.132,
      "velocity": 92,
      "chip": "ym2612"
    },
    {
      "channel": 3,
      "note": 88,
      "start": 12.0006,
      "duration": 0.2661,
      "velocity": 101,
      "chip": "ym2612"
    },
    {
      "channel": 4,
      "note": 86,
      "start": 12.0014,
      "duration": 0.2661,
      "velocity": 93,
      "chip": "ym2612"
    },
    {
      "channel": 2,
      "note": 57,
      "start": 12.1656,
      "duration": 0.1004,
      "velocity": 92,
      "chip": "ym2612"
    },
    {
      "channel": 0,
      "note": 69,
      "start": 12.2651,
      "duration": 0.266,
      "velocity": 91,
      "chip": "ym2612"
    },
    {
      "channel": 1,
      "note": 72,
      "start": 12.2658,
      "duration": 0.0823,
      "velocity": 92,
      "chip": "ym2612"
    },
    {
      "channel": 2,
      "note": 73,
      "start": 12.2666,
      "duration": 0.1317,
      "velocity": 92,
      "chip": "ym2612"
    },
    {
      "channel": 3,
      "note": 85,
      "start": 12.2673,
      "duration": 0.5348,
      "velocity": 93,
      "chip": "ym2612"
    },
    {
      "channel": 4,
      "note": 88,
      "start": 12.2681,
      "duration": 0.5343,
      "velocity": 93,
      "chip": "ym2612"
    },
    {
      "channel": 0,
      "note": 69,
      "start": 12.5317,
      "duration": 0.2663,
      "velocity": 91,
      "chip": "ym2612"
    },
    {
      "channel": 2,
      "note": 71,
      "start": 12.5326,
      "duration": 0.1324,
      "velocity": 92,
      "chip": "ym2612"
    },
    {
      "channel": 2,
      "note": 69,
      "start": 12.6989,
      "duration": 0.1002,
      "velocity": 92,
      "chip": "ym2612"
    },
    {
      "channel": 0,
      "note": 74,
      "start": 12.7987,
      "duration": 0.5325,
      "velocity": 91,
      "chip": "ym2612"
    },
    {
      "channel": 1,
      "note": 64,
      "start": 13.0655,
      "duration": 0.1327,
      "velocity": 92,
      "chip": "ym2612"
    },
    {
      "channel": 2,
      "note": 73,
      "start": 13.0662,
      "duration": 0.1323,
      "velocity": 92,
      "chip": "ym2612"
    },
    {
      "channel": 3,
      "note": 76,
      "start": 13.067,
      "duration": 0.0318,
      "velocity": 93,
      "chip": "ym2612"
    },
    {
      "channel": 4,
      "note": 88,
      "start": 13.0677,
      "duration": 0.0319,
      "velocity": 93,
      "chip": "ym2612"
    },
    {
      "channel": 3,
      "note": 78,
      "start": 13.0994,
      "duration": 0.2333,
      "velocity": 93,
      "chip": "ym2612"
    },
    {
      "channel": 4,
      "note": 90,
      "start": 13.1002,
      "duration": 0.2333,
      "velocity": 93,
      "chip": "ym2612"
    },
    {
      "channel": 0,
      "note": 73,
      "start": 13.3318,
      "duration": 0.066,
      "velocity": 91,
      "chip": "ym2612"
    },
    {
      "channel": 2,
      "note": 38,
      "start": 13.3326,
      "duration": 0.1323,
      "velocity": 92,
      "chip": "ym2612"
    },
    {
      "channel": 3,
      "note": 76,
      "start": 13.3333,
      "duration": 0.2659,
      "velocity": 93,
      "chip": "ym2612"
    },
    {
      "channel": 4,
      "note": 88,
      "start": 13.334,
      "duration": 0.2659,
      "velocity": 93,
      "chip": "ym2612"
    },
    {
      "channel": 0,
      "note": 74,
      "start": 13.3985,
      "duration": 0.1993,
      "velocity": 91,
      "chip": "ym2612"
    },
    {
      "channel": 1,
      "note": 64,
      "start": 13.4988,
      "duration": 0.0998,
      "velocity": 92,
      "chip": "ym2612"
    },
    {
      "channel": 2,
      "note": 69,
      "start": 13.4995,
      "duration": 0.0994,
      "velocity": 92,
      "chip": "ym2612"
    },
    {
      "channel": 0,
      "note": 73,
      "start": 13.5985,
      "duration": 0.5327,
      "velocity": 91,
      "chip": "ym2612"
    },
    {
      "channel": 3,
      "note": 69,
      "start": 13.5998,
      "duration": 0.5321,
      "velocity": 93,
      "chip": "ym2612"
    },
    {
      "channel": 4,
      "note": 81,
      "start": 13.6006,
      "duration": 0.5321,
      "velocity": 93,
      "chip": "ym2612"
    },
    {
      "channel": 1,
      "note": 64,
      "start": 13.8655,
      "duration": 0.1327,
      "velocity": 92,
      "chip": "ym2612"
    },
    {
      "channel": 2,
      "note": 71,
      "start": 13.8662,
      "duration": 0.1323,
      "velocity": 92,
      "chip": "ym2612"
    },
    {
      "channel": 0,
      "note": 73,
      "start": 14.1316,
      "duration": 0.0662,
      "velocity": 91,
      "chip": "ym2612"
    },
    {
      "channel": 3,
      "note": 71,
      "start": 14.1325,
      "duration": 0.0324,
      "velocity": 93,
      "chip": "ym2612"
    },
    {
      "channel": 4,
      "note": 83,
      "start": 14.1333,
      "duration": 0.0324,
      "velocity": 93,
      "chip": "ym2612"
    },
    {
      "channel": 3,
      "note": 73,
      "start": 14.1655,
      "duration": 0.2337,
      "velocity": 93,
      "chip": "ym2612"
    },
    {
      "channel": 4,
      "note": 85,
      "start": 14.1663,
      "duration": 0.2337,
      "velocity": 93,
      "chip": "ym2612"
    },
    {
      "channel": 0,
      "note": 74,
      "start": 14.1985,
      "duration": 0.1993,
      "velocity": 91,
      "chip": "ym2612"
    },
    {
      "channel": 1,
      "note": 64,
      "start": 14.2988,
      "duration": 0.0998,
      "velocity": 92,
      "chip": "ym2612"
    },
    {
      "channel": 2,
      "note": 71,
      "start": 14.2995,
      "duration": 0.0994,
      "velocity": 92,
      "chip": "ym2612"
    },
    {
      "channel": 0,
      "note": 73,
      "start": 14.3985,
      "duration": 0.266,
      "velocity": 91,
      "chip": "ym2612"
    },
    {
      "channel": 3,
      "note": 71,
      "start": 14.3998,
      "duration": 0.2656,
      "velocity": 93,
      "chip": "ym2612"
    },
    {
      "channel": 4,
      "note": 83,
      "start": 14.4006,
      "duration": 0.2655,
      "velocity": 93,
      "chip": "ym2612"
    },
    {
      "channel": 0,
      "note": 71,
      "start": 14.6651,
      "duration": 0.6993,
      "velocity": 91,
      "chip": "ym2612"
    },
    {
      "channel": 3,
      "note": 64,
      "start": 14.666,
      "duration": 1.3331,
      "velocity": 93,
      "chip": "ym2612"
    },
    {
      "channel": 4,
      "note": 76,
      "start": 14.6667,
      "duration": 1.3326,
      "velocity": 93,
      "chip": "ym2612"
    },
    {
      "channel": 1,
      "note": 64,
      "start": 15.0988,
      "duration": 0.0994,
      "velocity": 92,
      "chip": "ym2612"
    },
    {
      "channel": 2,
      "note": 69,
      "start": 15.0995,
      "duration": 0.099,
      "velocity": 92,
      "chip": "ym2612"
    },
    {
      "channel": 0,
      "note": 59,
      "start": 15.3651,
      "duration": 0.0994,
      "velocity": 91,
      "chip": "ym2612"
    },
    {
      "channel": 0,
      "note": 76,
      "start": 15.4651,
      "duration": 0.066,
      "velocity": 91,
      "chip": "ym2612"
    },
    {
      "channel": 1,
      "note": 64,
      "start": 15.4658,
      "duration": 0.2661,
      "velocity": 92,
      "chip": "ym2612"
    },
    {
      "channel": 2,
      "note": 69,
      "start": 15.4665,
      "duration": 0.2657,
      "velocity": 92,
      "chip": "ym2612"
    },
    {
      "channel": 0,
      "note": 78,
      "start": 15.5318,
      "duration": 0.1993,
      "velocity": 91,
      "chip": "ym2612"
    },
    {
      "channel": 0,
      "note": 76,
      "start": 15.7318,
      "duration": 0.3452,
      "velocity": 83,
      "chip": "ym2612"
    },
    {
      "channel": 1,
      "note": 62,
      "start": 15.8988,
      "duration": 0.0996,
      "velocity": 92,
      "chip": "ym2612"
    },
    {
      "channel": 2,
      "note": 69,
      "start": 15.8995,
      "duration": 0.0993,
      "velocity": 92,
      "chip": "ym2612"
    },
    {
      "channel": 0,
      "note": 52,
      "start": 16.0776,
      "duration": 0.0307,
      "velocity": 83,
      "chip": "ym2612"
    },
    {
      "channel": 1,
      "note": 62,
      "start": 16.0783,
      "duration": 0.1653,
      "velocity": 92,
      "chip": "ym2612"
    },
    {
      "channel": 2,
      "note": 69,
      "start": 16.0791,
      "duration": 0.1648,
      "velocity": 92,
      "chip": "ym2612"
    },
    {
      "channel": 0,
      "note": 54,
      "start": 16.1088,
      "duration": 0.0494,
      "velocity": 83,
      "chip": "ym2612"
    },
    {
      "channel": 0,
      "note": 56,
      "start": 16.1588,
      "duration": 0.0497,
      "velocity": 83,
      "chip": "ym2612"
    },
    {
      "channel": 0,
      "note": 57,
      "start": 16.2091,
      "duration": 0.008,
      "velocity": 83,
      "chip": "ym2612"
    },
    {
      "channel": 0,
      "note": 59,
      "start": 16.2177,
      "duration": 0.0123,
      "velocity": 83,
      "chip": "ym2612"
    },
    {
      "channel": 0,
      "note": 61,
      "start": 16.2307,
      "duration": 0.0122,
      "velocity": 83,
      "chip": "ym2612"
    },
    {
      "channel": 0,
      "note": 75,
      "start": 16.2434,
      "duration": 0.0074,
      "velocity": 83,
      "chip": "ym2612"
    },
    {
      "channel": 0,
      "note": 74,
      "start": 16.2514,
      "duration": 0.0102,
      "velocity": 83,
      "chip": "ym2612"
    },
    {
      "channel": 0,
      "note": 73,
      "start": 16.2622,
      "duration": 0.0233,
      "velocity": 83,
      "chip": "ym2612"
    },
    {
      "channel": 0,
      "note": 71,
      "start": 16.2861,
      "duration": 0.0327,
      "velocity": 83,
      "chip": "ym2612"
    },
    {
      "channel": 0,
      "note": 69,
      "start": 16.3194,
      "duration": 0.0494,
      "velocity": 83,
      "chip": "ym2612"
    },
    {
      "channel": 1,
      "note": 52,
      "start": 16.3223,
      "duration": 0.0473,
      "velocity": 99,
      "chip": "ym2612"
    },
    {
      "channel": 2,
      "note": 69,
      "start": 16.323,
      "duration": 0.0973,
      "velocity": 92,
      "chip": "ym2612"
    },
    {
      "channel": 0,
      "note": 68,
      "start": 16.3694,
      "duration": 0.0494,
      "velocity": 83,
      "chip": "ym2612"
    },
    {
      "channel": 1,
      "note": 54,
      "start": 16.3702,
      "duration": 0.0494,
      "velocity": 99,
      "chip": "ym2612"
    },
    {
      "channel": 0,
      "note": 66,
      "start": 16.4194,
      "duration": 0.0327,
      "velocity": 83,
      "chip": "ym2612"
    },
    {
      "channel": 1,
      "note": 56,
      "start": 16.4202,
      "duration": 0.0328,
      "velocity": 99,
      "chip": "ym2612"
    },
    {
      "channel": 0,
      "note": 64,
      "start": 16.4527,
      "duration": 0.0494,
      "velocity": 83,
      "chip": "ym2612"
    },
    {
      "channel": 1,
      "note": 57,
      "start": 16.4535,
      "duration": 0.0494,
      "velocity": 99,
      "chip": "ym2612"
    },
    {
      "channel": 0,
      "note": 63,
      "start": 16.5027,
      "duration": 0.0497,
      "velocity": 83,
      "chip": "ym2612"
    },
    {
      "channel": 1,
      "note": 59,
      "start": 16.5035,
      "duration": 0.0497,
      "velocity": 99,
      "chip": "ym2612"
    },
    {
      "channel": 0,
      "note": 61,
      "start": 16.553,
      "duration": 0.0076,
      "velocity": 83,
      "chip": "ym2612"
    },
    {
      "channel": 1,
      "note": 61,
      "start": 16.5538,
      "duration": 0.0076,
      "velocity": 99,
      "chip": "ym2612"
    },
    {
      "channel": 0,
      "note": 59,
      "start": 16.5612,
      "duration": 0.0112,
      "velocity": 83,
      "chip": "ym2612"
    },
    {
      "channel": 1,
      "note": 62,
      "start": 16.5619,
      "duration": 0.0112,
      "velocity": 99,
      "chip": "ym2612"
    },
    {
      "channel": 0,
      "note": 57,
      "start": 16.5729,
      "duration": 0.0119,
      "velocity": 83,
      "chip": "ym2612"
    },
    {
      "channel": 1,
      "note": 64,
      "start": 16.5737,
      "duration": 0.0144,
      "velocity": 99,
      "chip": "ym2612"
    },
    {
      "channel": 0,
      "note": 54,
      "start": 16.5854,
      "duration": 0.0915,
      "velocity": 83,
      "chip": "ym2612"
    },
    {
      "channel": 1,
      "note": 80,
      "start": 16.5887,
      "duration": 0.2099,
      "velocity": 99,
      "chip": "ym2612"
    },
    {
      "channel": 3,
      "note": 83,
      "start": 16.5924,
      "duration": 0.2073,
      "velocity": 101,
      "chip": "ym2612"
    },
    {
      "channel": 2,
      "note": 69,
      "start": 16.7782,
      "duration": 0.0211,
      "velocity": 92,
      "chip": "ym2612"
    },
    {
      "channel": 1,
      "note": 69,
      "start": 16.7992,
      "duration": 0.0198,
      "velocity": 99,
      "chip": "ym2612"
    },
    {
      "channel": 3,
      "note": 76,
      "start": 16.8002,
      "duration": 0.0191,
      "velocity": 101,
      "chip": "ym2612"
    },
    {
      "channel": 0,
      "note": 66,
      "start": 16.8188,
      "duration": 0.0216,
      "velocity": 83,
      "chip": "ym2612"
    },
    {
      "channel": 1,
      "note": 45,
      "start": 16.8414,
      "duration": 0.0188,
      "velocity": 99,
      "chip": "ym2612"
    },
    {
      "channel": 2,
      "note": 54,
      "start": 16.8421,
      "duration": 0.0184,
      "velocity": 92,
      "chip": "ym2612"
    },
    {
      "channel": 0,
      "note": 66,
      "start": 16.8773,
      "duration": 0.0298,
      "velocity": 83,
      "chip": "ym2612"
    },
    {
      "channel": 1,
      "note": 69,
      "start": 16.8779,
      "duration": 0.0299,
      "velocity": 99,
      "chip": "ym2612"
    },
    {
      "channel": 2,
      "note": 69,
      "start": 16.8786,
      "duration": 0.0295,
      "velocity": 92,
      "chip": "ym2612"
    },
    {
      "channel": 3,
      "note": 76,
      "start": 16.8794,
      "duration": 0.029,
      "velocity": 101,
      "chip": "ym2612"
    },
    {
      "channel": 0,
      "note": 64,
      "start": 16.9077,
      "duration": 0.1402,
      "velocity": 83,
      "chip": "ym2612"
    },
    {
      "channel": 0,
      "note": 66,
      "start": 17.0484,
      "duration": 0.0508,
      "velocity": 83,
      "chip": "ym2612"
    },
    {
      "channel": 1,
      "note": 69,
      "start": 17.0492,
      "duration": 0.0529,
      "velocity": 92,
      "chip": "ym2612"
    },
    {
      "channel": 2,
      "note": 54,
      "start": 17.0499,
      "duration": 0.0529,
      "velocity": 92,
      "chip": "ym2612"
    },
    {
      "channel": 3,
      "note": 76,
      "start": 17.0507,
      "duration": 0.0555,
      "velocity": 93,
      "chip": "ym2612"
    },
    {
      "channel": 1,
      "note": 64,
      "start": 17.1027,
      "duration": 0.0556,
      "velocity": 92,
      "chip": "ym2612"
    },
    {
      "channel": 2,
      "note": 69,
      "start": 17.1034,
      "duration": 0.0551,
      "velocity": 92,
      "chip": "ym2612"
    },
    {
      "channel": 3,
      "note": 76,
      "start": 17.1923,
      "duration": 0.1002,
      "velocity": 93,
      "chip": "ym2612"
    },
    {
      "channel": 4,
      "note": 81,
      "start": 17.1931,
      "duration": 0.1002,
      "velocity": 93,
      "chip": "ym2612"
    },
    {
      "channel": 0,
      "note": 52,
      "start": 17.2923,
      "duration": 0.1919,
      "velocity": 83,
      "chip": "ym2612"
    },
    {
      "channel": 3,
      "note": 78,
      "start": 17.2932,
      "duration": 0.0926,
      "velocity": 93,
      "chip": "ym2612"
    },
    {
      "channel": 4,
      "note": 78,
      "start": 17.2939,
      "duration": 0.0926,
      "velocity": 93,
      "chip": "ym2612"
    },
    {
      "channel": 1,
      "note": 64,
      "start": 17.385,
      "duration": 0.1,
      "velocity": 92,
      "chip": "ym2612"
    },
    {
      "channel": 2,
      "note": 69,
      "start": 17.3857,
      "duration": 0.0996,
      "velocity": 92,
      "chip": "ym2612"
    },
    {
      "channel": 3,
      "note": 81,
      "start": 17.3864,
      "duration": 0.1213,
      "velocity": 93,
      "chip": "ym2612"
    },
    {
      "channel": 4,
      "note": 81,
      "start": 17.3871,
      "duration": 0.1209,
      "velocity": 93,
      "chip": "ym2612"
    },
    {
      "channel": 0,
      "note": 54,
      "start": 17.4848,
      "duration": 0.0671,
      "velocity": 83,
      "chip": "ym2612"
    },
    {
      "channel": 2,
      "note": 52,
      "start": 17.4858,
      "duration": 0.0676,
      "velocity": 92,
      "chip": "ym2612"
    },
    {
      "channel": 0,
      "note": 54,
      "start": 17.5525,
      "duration": 0.0415,
      "velocity": 83,
      "chip": "ym2612"
    },
    {
      "channel": 1,
      "note": 62,
      "start": 17.5533,
      "duration": 0.2586,
      "velocity": 92,
      "chip": "ym2612"
    },
    {
      "channel": 2,
      "note": 71,
      "start": 17.554,
      "duration": 0.2586,
      "velocity": 92,
      "chip": "ym2612"
    },
    {
      "channel": 0,
      "note": 64,
      "start": 17.5947,
      "duration": 0.0246,
      "velocity": 83,
      "chip": "ym2612"
    },
    {
      "channel": 0,
      "note": 57,
      "start": 17.6199,
      "duration": 0.0917,
      "velocity": 83,
      "chip": "ym2612"
    },
    {
      "channel": 0,
      "note": 69,
      "start": 17.7122,
      "duration": 0.0993,
      "velocity": 83,
      "chip": "ym2612"
    },
    {
      "channel": 1,
      "note": 67,
      "start": 17.8124,
      "duration": 0.0825,
      "velocity": 92,
      "chip": "ym2612"
    },
    {
      "channel": 2,
      "note": 69,
      "start": 17.8132,
      "duration": 0.0821,
      "velocity": 92,
      "chip": "ym2612"
    },
    {
      "channel": 0,
      "note": 67,
      "start": 17.9789,
      "duration": 0.0996,
      "velocity": 83,
      "chip": "ym2612"
    },
    {
      "channel": 0,
      "note": 57,
      "start": 18.079,
      "duration": 0.0462,
      "velocity": 83,
      "chip": "ym2612"
    },
    {
      "channel": 1,
      "note": 69,
      "start": 18.0824,
      "duration": 0.0432,
      "velocity": 99,
      "chip": "ym2612"
    },
    {
      "channel": 2,
      "note": 57,
      "start": 18.0831,
      "duration": 0.0344,
      "velocity": 92,
      "chip": "ym2612"
    },
    {
      "channel": 3,
      "note": 74,
      "start": 18.0838,
      "duration": 0.0428,
      "velocity": 101,
      "chip": "ym2612"
    },
    {
      "channel": 2,
      "note": 69,
      "start": 18.1265,
      "duration": 0.0218,
      "velocity": 92,
      "chip": "ym2612"
    },
    {
      "channel": 0,
      "note": 57,
      "start": 18.1475,
      "duration": 0.1397,
      "velocity": 83,
      "chip": "ym2612"
    },
    {
      "channel": 1,
      "note": 69,
      "start": 18.1482,
      "duration": 0.1398,
      "velocity": 99,
      "chip": "ym2612"
    },
    {
      "channel": 3,
      "note": 74,
      "start": 18.1492,
      "duration": 0.1398,
      "velocity": 101,
      "chip": "ym2612"
    },
    {
      "channel": 0,
      "note": 69,
      "start": 18.2879,
      "duration": 0.0495,
      "velocity": 83,
      "chip": "ym2612"
    },
    {
      "channel": 2,
      "note": 55,
      "start": 18.2889,
      "duration": 0.0495,
      "velocity": 92,
      "chip": "ym2612"
    },
    {
      "channel": 1,
      "note": 45,
      "start": 18.3382,
      "duration": 0.0193,
      "velocity": 99,
      "chip": "ym2612"
    },
    {
      "channel": 2,
      "note": 69,
      "start": 18.339,
      "duration": 0.0574,
      "velocity": 92,
      "chip": "ym2612"
    },
    {
      "channel": 1,
      "note": 69,
      "start": 18.4303,
      "duration": 0.1003,
      "velocity": 99,
      "chip": "ym2612"
    },
    {
      "channel": 3,
      "note": 76,
      "start": 18.431,
      "duration": 0.0999,
      "velocity": 101,
      "chip": "ym2612"
    },
    {
      "channel": 4,
      "note": 81,
      "start": 18.4318,
      "duration": 0.1192,
      "velocity": 93,
      "chip": "ym2612"
    },
    {
      "channel": 0,
      "note": 57,
      "start": 18.5304,
      "duration": 0.1919,
      "velocity": 83,
      "chip": "ym2612"
    },
    {
      "channel": 1,
      "note": 69,
      "start": 18.6231,
      "duration": 0.1,
      "velocity": 99,
      "chip": "ym2612"
    },
    {
      "channel": 2,
      "note": 69,
      "start": 18.6238,
      "duration": 0.1077,
      "velocity": 92,
      "chip": "ym2612"
    },
    {
      "channel": 3,
      "note": 76,
      "start": 18.6246,
      "duration": 0.0992,
      "velocity": 101,
      "chip": "ym2612"
    },
    {
      "channel": 0,
      "note": 69,
      "start": 18.7229,
      "duration": 0.059,
      "velocity": 83,
      "chip": "ym2612"
    },
    {
      "channel": 0,
      "note": 57,
      "start": 18.7825,
      "duration": 0.0353,
      "velocity": 83,
      "chip": "ym2612"
    },
    {
      "channel": 0,
      "note": 69,
      "start": 18.8185,
      "duration": 0.0207,
      "velocity": 83,
      "chip": "ym2612"
    },
    {
      "channel": 0,
      "note": 50,
      "start": 18.8398,
      "duration": 0.0909,
      "velocity": 83,
      "chip": "ym2612"
    },
    {
      "channel": 0,
      "note": 62,
      "start": 18.9314,
      "duration": 0.0996,
      "velocity": 83,
      "chip": "ym2612"
    },
    {
      "channel": 1,
      "note": 50,
      "start": 19.0319,
      "duration": 0.0156,
      "velocity": 99,
      "chip": "ym2612"
    },
    {
      "channel": 2,
      "note": 73,
      "start": 19.0327,
      "duration": 0.031,
      "velocity": 92,
      "chip": "ym2612"
    },
    {
      "channel": 1,
      "note": 52,
      "start": 19.048,
      "duration": 0.0149,
      "velocity": 99,
      "chip": "ym2612"
    },
    {
      "channel": 1,
      "note": 54,
      "start": 19.0635,
      "duration": 0.0152,
      "velocity": 99,
      "chip": "ym2612"
    },
    {
      "channel": 0,
      "note": 61,
      "start": 19.0713,
      "duration": 0.0228,
      "velocity": 83,
      "chip": "ym2612"
    },
    {
      "channel": 1,
      "note": 56,
      "start": 19.0793,
      "duration": 0.0155,
      "velocity": 99,
      "chip": "ym2612"
    },
    {
      "channel": 0,
      "note": 50,
      "start": 19.0946,
      "duration": 0.0696,
      "velocity": 83,
      "chip": "ym2612"
    },
    {
      "channel": 1,
      "note": 76,
      "start": 19.0954,
      "duration": 0.0696,
      "velocity": 99,
      "chip": "ym2612"
    },
    {
      "channel": 2,
      "note": 38,
      "start": 19.0961,
      "duration": 0.0211,
      "velocity": 92,
      "chip": "ym2612"
    },
    {
      "channel": 3,
      "note": 78,
      "start": 19.0968,
      "duration": 0.0693,
      "velocity": 101,
      "chip": "ym2612"
    },
    {
      "channel": 2,
      "note": 69,
      "start": 19.1389,
      "duration": 0.0268,
      "velocity": 92,
      "chip": "ym2612"
    },
    {
      "channel": 0,
      "note": 61,
      "start": 19.1649,
      "duration": 0.138,
      "velocity": 83,
      "chip": "ym2612"
    },
    {
      "channel": 1,
      "note": 69,
      "start": 19.1656,
      "duration": 0.138,
      "velocity": 99,
      "chip": "ym2612"
    },
    {
      "channel": 3,
      "note": 73,
      "start": 19.1666,
      "duration": 0.1374,
      "velocity": 101,
      "chip": "ym2612"
    },
    {
      "channel": 0,
      "note": 62,
      "start": 19.3035,
      "duration": 0.0494,
      "velocity": 83,
      "chip": "ym2612"
    },
    {
      "channel": 1,
      "note": 64,
      "start": 19.3564,
      "duration": 0.0556,
      "velocity": 92,
      "chip": "ym2612"
    },
    {
      "channel": 2,
      "note": 69,
      "start": 19.3571,
      "duration": 0.0552,
      "velocity": 92,
      "chip": "ym2612"
    },
    {
      "channel": 3,
      "note": 76,
      "start": 19.4487,
      "duration": 0.0976,
      "velocity": 93,
      "chip": "ym2612"
    },
    {
      "channel": 4,
      "note": 81,
      "start": 19.4495,
      "duration": 0.0976,
      "velocity": 93,
      "chip": "ym2612"
    },
    {
      "channel": 0,
      "note": 50,
      "start": 19.5461,
      "duration": 0.1919,
      "velocity": 83,
      "chip": "ym2612"
    },
    {
      "channel": 3,
      "note": 78,
      "start": 19.547,
      "duration": 0.0927,
      "velocity": 93,
      "chip": "ym2612"
    },
    {
      "channel": 4,
      "note": 78,
      "start": 19.5478,
      "duration": 0.0926,
      "velocity": 93,
      "chip": "ym2612"
    },
    {
      "channel": 1,
      "note": 64,
      "start": 19.6388,
      "duration": 0.1,
      "velocity": 92,
      "chip": "ym2612"
    },
    {
      "channel": 2,
      "note": 69,
      "start": 19.6395,
      "duration": 0.0996,
      "velocity": 92,
      "chip": "ym2612"
    },
    {
      "channel": 3,
      "note": 81,
      "start": 19.6402,
      "duration": 0.1199,
      "velocity": 93,
      "chip": "ym2612"
    },
    {
      "channel": 4,
      "note": 81,
      "start": 19.641,
      "duration": 0.1194,
      "velocity": 93,
      "chip": "ym2612"
    },
    {
      "channel": 0,
      "note": 62,
      "start": 19.7386,
      "duration": 0.0625,
      "velocity": 83,
      "chip": "ym2612"
    },
    {
      "channel": 0,
      "note": 49,
      "start": 19.8017,
      "duration": 0.0894,
      "velocity": 83,
      "chip": "ym2612"
    },
    {
      "channel": 1,
      "note": 66,
      "start": 19.8025,
      "duration": 0.0674,
      "velocity": 92,
      "chip": "ym2612"
    },
    {
      "channel": 2,
      "note": 71,
      "start": 19.8032,
      "duration": 0.0669,
      "velocity": 92,
      "chip": "ym2612"
    },
    {
      "channel": 0,
      "note": 49,
      "start": 19.9609,
      "duration": 0.1827,
      "velocity": 83,
      "chip": "ym2612"
    },
    {
      "channel": 2,
      "note": 71,
      "start": 20.0614,
      "duration": 0.1324,
      "velocity": 92,
      "chip": "ym2612"
    },
    {
      "channel": 0,
      "note": 73,
      "start": 20.2276,
      "duration": 0.0997,
      "velocity": 83,
      "chip": "ym2612"
    },
    {
      "channel": 1,
      "note": 44,
      "start": 20.2283,
      "duration": 0.0996,
      "velocity": 92,
      "chip": "ym2612"
    },
    {
      "channel": 0,
      "note": 50,
      "start": 20.3278,
      "duration": 0.0428,
      "velocity": 83,
      "chip": "ym2612"
    },
    {
      "channel": 1,
      "note": 71,
      "start": 20.3286,
      "duration": 0.0428,
      "velocity": 92,
      "chip": "ym2612"
    },
    {
      "channel": 2,
      "note": 56,
      "start": 20.3293,
      "duration": 0.021,
      "velocity": 92,
      "chip": "ym2612"
    },
    {
      "channel": 3,
      "note": 73,
      "start": 20.33,
      "duration": 0.0424,
      "velocity": 101,
      "chip": "ym2612"
    },
    {
      "channel": 0,
      "note": 71,
      "start": 20.3713,
      "duration": 0.0227,
      "velocity": 83,
      "chip": "ym2612"
    },
    {
      "channel": 2,
      "note": 71,
      "start": 20.3723,
      "duration": 0.0232,
      "velocity": 92,
      "chip": "ym2612"
    },
    {
      "channel": 0,
      "note": 73,
      "start": 20.3946,
      "duration": 0.1413,
      "velocity": 83,
      "chip": "ym2612"
    },
    {
      "channel": 1,
      "note": 71,
      "start": 20.3953,
      "duration": 0.141,
      "velocity": 92,
      "chip": "ym2612"
    },
    {
      "channel": 2,
      "note": 56,
      "start": 20.396,
      "duration": 0.0819,
      "velocity": 92,
      "chip": "ym2612"
    },
    {
      "channel": 3,
      "note": 73,
      "start": 20.3968,
      "duration": 0.1399,
      "velocity": 101,
      "chip": "ym2612"
    },
    {
      "channel": 0,
      "note": 49,
      "start": 20.5866,
      "duration": 0.0917,
      "velocity": 83,
      "chip": "ym2612"
    },
    {
      "channel": 1,
      "note": 65,
      "start": 20.5899,
      "duration": 0.0554,
      "velocity": 99,
      "chip": "ym2612"
    },
    {
      "channel": 2,
      "note": 76,
      "start": 20.5907,
      "duration": 0.055,
      "velocity": 92,
      "chip": "ym2612"
    },
    {
      "channel": 0,
      "note": 73,
      "start": 20.679,
      "duration": 0.0996,
      "velocity": 83,
      "chip": "ym2612"
    },
    {
      "channel": 0,
      "note": 49,
      "start": 20.7791,
      "duration": 0.1919,
      "velocity": 83,
      "chip": "ym2612"
    },
    {
      "channel": 1,
      "note": 65,
      "start": 20.8718,
      "duration": 0.1423,
      "velocity": 99,
      "chip": "ym2612"
    },
    {
      "channel": 2,
      "note": 76,
      "start": 20.8725,
      "duration": 0.1419,
      "velocity": 92,
      "chip": "ym2612"
    },
    {
      "channel": 0,
      "note": 49,
      "start": 20.9716,
      "duration": 0.0643,
      "velocity": 83,
      "chip": "ym2612"
    },
    {
      "channel": 0,
      "note": 49,
      "start": 21.0364,
      "duration": 0.0421,
      "velocity": 83,
      "chip": "ym2612"
    },
    {
      "channel": 1,
      "note": 65,
      "start": 21.0372,
      "duration": 0.02,
      "velocity": 99,
      "chip": "ym2612"
    },
    {
      "channel": 2,
      "note": 74,
      "start": 21.0379,
      "duration": 0.0196,
      "velocity": 92,
      "chip": "ym2612"
    },
    {
      "channel": 0,
      "note": 68,
      "start": 21.0792,
      "duration": 0.0224,
      "velocity": 83,
      "chip": "ym2612"
    },
    {
      "channel": 2,
      "note": 54,
      "start": 21.0799,
      "duration": 0.0252,
      "velocity": 92,
      "chip": "ym2612"
    },
    {
      "channel": 0,
      "note": 54,
      "start": 21.1021,
      "duration": 0.0915,
      "velocity": 83,
      "chip": "ym2612"
    },
    {
      "channel": 2,
      "note": 42,
      "start": 21.1057,
      "duration": 0.189,
      "velocity": 92,
      "chip": "ym2612"
    },
    {
      "channel": 3,
      "note": 77,
      "start": 21.195,
      "duration": 0.1004,
      "velocity": 93,
      "chip": "ym2612"
    },
    {
      "channel": 4,
      "note": 82,
      "start": 21.1957,
      "duration": 0.1,
      "velocity": 93,
      "chip": "ym2612"
    },
    {
      "channel": 1,
      "note": 65,
      "start": 21.2945,
      "duration": 0.0326,
      "velocity": 92,
      "chip": "ym2612"
    },
    {
      "channel": 2,
      "note": 73,
      "start": 21.2953,
      "duration": 0.0321,
      "velocity": 92,
      "chip": "ym2612"
    },
    {
      "channel": 0,
      "note": 66,
      "start": 21.3346,
      "duration": 0.0308,
      "velocity": 83,
      "chip": "ym2612"
    },
    {
      "channel": 1,
      "note": 66,
      "start": 21.3379,
      "duration": 0.0278,
      "velocity": 99,
      "chip": "ym2612"
    },
    {
      "channel": 3,
      "note": 73,
      "start": 21.3414,
      "duration": 0.0257,
      "velocity": 101,
      "chip": "ym2612"
    },
    {
      "channel": 1,
      "note": 45,
      "start": 21.3663,
      "duration": 0.02,
      "velocity": 99,
      "chip": "ym2612"
    },
    {
      "channel": 2,
      "note": 54,
      "start": 21.367,
      "duration": 0.0196,
      "velocity": 92,
      "chip": "ym2612"
    },
    {
      "channel": 1,
      "note": 66,
      "start": 21.4036,
      "duration": 0.0293,
      "velocity": 99,
      "chip": "ym2612"
    },
    {
      "channel": 2,
      "note": 73,
      "start": 21.4043,
      "duration": 0.0289,
      "velocity": 92,
      "chip": "ym2612"
    },
    {
      "channel": 3,
      "note": 73,
      "start": 21.4051,
      "duration": 0.0284,
      "velocity": 101,
      "chip": "ym2612"
    },
    {
      "channel": 0,
      "note": 54,
      "start": 21.4327,
      "duration": 0.1402,
      "velocity": 83,
      "chip": "ym2612"
    },
    {
      "channel": 0,
      "note": 64,
      "start": 21.5735,
      "duration": 0.0507,
      "velocity": 83,
      "chip": "ym2612"
    },
    {
      "channel": 1,
      "note": 66,
      "start": 21.5742,
      "duration": 0.0529,
      "velocity": 92,
      "chip": "ym2612"
    },
    {
      "channel": 2,
      "note": 54,
      "start": 21.5749,
      "duration": 0.0528,
      "velocity": 92,
      "chip": "ym2612"
    },
    {
      "channel": 3,
      "note": 73,
      "start": 21.5756,
      "duration": 0.0529,
      "velocity": 101,
      "chip": "ym2612"
    },
    {
      "channel": 1,
      "note": 65,
      "start": 21.6276,
      "duration": 0.0555,
      "velocity": 92,
      "chip": "ym2612"
    },
    {
      "channel": 2,
      "note": 73,
      "start": 21.6284,
      "duration": 0.0551,
      "velocity": 92,
      "chip": "ym2612"
    },
    {
      "channel": 0,
      "note": 64,
      "start": 21.7171,
      "duration": 0.0996,
      "velocity": 83,
      "chip": "ym2612"
    },
    {
      "channel": 3,
      "note": 77,
      "start": 21.7206,
      "duration": 0.097,
      "velocity": 93,
      "chip": "ym2612"
    },
    {
      "channel": 4,
      "note": 82,
      "start": 21.7213,
      "duration": 0.0966,
      "velocity": 93,
      "chip": "ym2612"
    },
    {
      "channel": 0,
      "note": 66,
      "start": 21.8173,
      "duration": 0.0583,
      "velocity": 83,
      "chip": "ym2612"
    },
    {
      "channel": 1,
      "note": 65,
      "start": 21.9096,
      "duration": 0.1003,
      "velocity": 92,
      "chip": "ym2612"
    },
    {
      "channel": 2,
      "note": 73,
      "start": 21.9103,
      "duration": 0.0999,
      "velocity": 92,
      "chip": "ym2612"
    },
    {
      "channel": 0,
      "note": 64,
      "start": 22.0098,
      "duration": 0.036,
      "velocity": 83,
      "chip": "ym2612"
    },
    {
      "channel": 0,
      "note": 45,
      "start": 22.0464,
      "duration": 0.0226,
      "velocity": 83,
      "chip": "ym2612"
    },
    {
      "channel": 2,
      "note": 54,
      "start": 22.0472,
      "duration": 0.0233,
      "velocity": 92,
      "chip": "ym2612"
    },
    {
      "channel": 0,
      "note": 57,
      "start": 22.0697,
      "duration": 0.0932,
      "velocity": 83,
      "chip": "ym2612"
    },
    {
      "channel": 1,
      "note": 62,
      "start": 22.0703,
      "duration": 0.2596,
      "velocity": 92,
      "chip": "ym2612"
    },
    {
      "channel": 2,
      "note": 71,
      "start": 22.0711,
      "duration": 0.0674,
      "velocity": 92,
      "chip": "ym2612"
    },
    {
      "channel": 2,
      "note": 45,
      "start": 22.1391,
      "duration": 0.0245,
      "velocity": 92,
      "chip": "ym2612"
    },
    {
      "channel": 0,
      "note": 57,
      "start": 22.3299,
      "duration": 0.1661,
      "velocity": 83,
      "chip": "ym2612"
    },
    {
      "channel": 1,
      "note": 62,
      "start": 22.3307,
      "duration": 0.0823,
      "velocity": 92,
      "chip": "ym2612"
    },
    {
      "channel": 2,
      "note": 69,
      "start": 22.3314,
      "duration": 0.0819,
      "velocity": 92,
      "chip": "ym2612"
    },
    {
      "channel": 0,
      "note": 45,
      "start": 22.4966,
      "duration": 0.0997,
      "velocity": 83,
      "chip": "ym2612"
    },
    {
      "channel": 0,
      "note": 59,
      "start": 22.5968,
      "duration": 0.0349,
      "velocity": 83,
      "chip": "ym2612"
    },
    {
      "channel": 2,
      "note": 69,
      "start": 22.6327,
      "duration": 0.0342,
      "velocity": 92,
      "chip": "ym2612"
    },
    {
      "channel": 0,
      "note": 59,
      "start": 22.6635,
      "duration": 0.1402,
      "velocity": 83,
      "chip": "ym2612"
    },
    {
      "channel": 1,
      "note": 45,
      "start": 22.6668,
      "duration": 0.0798,
      "velocity": 99,
      "chip": "ym2612"
    },
    {
      "channel": 0,
      "note": 47,
      "start": 22.8043,
      "duration": 0.0508,
      "velocity": 83,
      "chip": "ym2612"
    },
    {
      "channel": 1,
      "note": 69,
      "start": 22.805,
      "duration": 0.0508,
      "velocity": 99,
      "chip": "ym2612"
    },
    {
      "channel": 2,
      "note": 55,
      "start": 22.8057,
      "duration": 0.0508,
      "velocity": 92,
      "chip": "ym2612"
    },
    {
      "channel": 3,
      "note": 76,
      "start": 22.8065,
      "duration": 0.0507,
      "velocity": 101,
      "chip": "ym2612"
    },
    {
      "channel": 0,
      "note": 61,
      "start": 22.8556,
      "duration": 0.192,
      "velocity": 83,
      "chip": "ym2612"
    },
    {
      "channel": 1,
      "note": 45,
      "start": 22.8564,
      "duration": 0.0206,
      "velocity": 99,
      "chip": "ym2612"
    },
    {
      "channel": 2,
      "note": 78,
      "start": 22.8571,
      "duration": 0.0574,
      "velocity": 92,
      "chip": "ym2612"
    },
    {
      "channel": 1,
      "note": 69,
      "start": 22.9484,
      "duration": 0.1,
      "velocity": 99,
      "chip": "ym2612"
    },
    {
      "channel": 3,
      "note": 76,
      "start": 22.9492,
      "duration": 0.1002,
      "velocity": 101,
      "chip": "ym2612"
    },
    {
      "channel": 0,
      "note": 61,
      "start": 23.0482,
      "duration": 0.192,
      "velocity": 83,
      "chip": "ym2612"
    },
    {
      "channel": 2,
      "note": 76,
      "start": 23.0492,
      "duration": 0.0578,
      "velocity": 92,
      "chip": "ym2612"
    },
    {
      "channel": 1,
      "note": 69,
      "start": 23.1409,
      "duration": 0.1025,
      "velocity": 92,
      "chip": "ym2612"
    },
    {
      "channel": 2,
      "note": 57,
      "start": 23.1416,
      "duration": 0.1025,
      "velocity": 92,
      "chip": "ym2612"
    },
    {
      "channel": 3,
      "note": 76,
      "start": 23.1424,
      "duration": 0.1025,
      "velocity": 101,
      "chip": "ym2612"
    },
    {
      "channel": 0,
      "note": 57,
      "start": 23.2407,
      "duration": 0.065,
      "velocity": 83,
      "chip": "ym2612"
    },
    {
      "channel": 1,
      "note": 72,
      "start": 23.244,
      "duration": 0.0202,
      "velocity": 92,
      "chip": "ym2612"
    },
    {
      "channel": 2,
      "note": 73,
      "start": 23.2447,
      "duration": 0.0321,
      "velocity": 92,
      "chip": "ym2612"
    },
    {
      "channel": 0,
      "note": 57,
      "start": 23.3063,
      "duration": 0.0618,
      "velocity": 83,
      "chip": "ym2612"
    },
    {
      "channel": 2,
      "note": 71,
      "start": 23.3071,
      "duration": 0.0302,
      "velocity": 92,
      "chip": "ym2612"
    },
    {
      "channel": 2,
      "note": 69,
      "start": 23.3454,
      "duration": 0.0237,
      "velocity": 92,
      "chip": "ym2612"
    },
    {
      "channel": 0,
      "note": 50,
      "start": 23.3686,
      "duration": 0.192,
      "velocity": 83,
      "chip": "ym2612"
    },
    {
      "channel": 3,
      "note": 76,
      "start": 23.4615,
      "duration": 0.1013,
      "velocity": 93,
      "chip": "ym2612"
    },
    {
      "channel": 4,
      "note": 81,
      "start": 23.4622,
      "duration": 0.1008,
      "velocity": 93,
      "chip": "ym2612"
    },
    {
      "channel": 0,
      "note": 50,
      "start": 23.5612,
      "duration": 0.021,
      "velocity": 83,
      "chip": "ym2612"
    },
    {
      "channel": 1,
      "note": 64,
      "start": 23.5619,
      "duration": 0.032,
      "velocity": 92,
      "chip": "ym2612"
    },
    {
      "channel": 2,
      "note": 73,
      "start": 23.5626,
      "duration": 0.0317,
      "velocity": 92,
      "chip": "ym2612"
    },
    {
      "channel": 0,
      "note": 62,
      "start": 23.6015,
      "duration": 0.0219,
      "velocity": 83,
      "chip": "ym2612"
    },
    {
      "channel": 2,
      "note": 38,
      "start": 23.6244,
      "duration": 0.0279,
      "velocity": 92,
      "chip": "ym2612"
    },
    {
      "channel": 1,
      "note": 64,
      "start": 23.6595,
      "duration": 0.0315,
      "velocity": 92,
      "chip": "ym2612"
    },
    {
      "channel": 2,
      "note": 69,
      "start": 23.6602,
      "duration": 0.031,
      "velocity": 92,
      "chip": "ym2612"
    },
    {
      "channel": 0,
      "note": 50,
      "start": 23.6908,
      "duration": 0.1402,
      "velocity": 83,
      "chip": "ym2612"
    },
    {
      "channel": 0,
      "note": 62,
      "start": 23.8316,
      "duration": 0.0507,
      "velocity": 83,
      "chip": "ym2612"
    },
    {
      "channel": 3,
      "note": 76,
      "start": 23.8324,
      "duration": 0.0516,
      "velocity": 93,
      "chip": "ym2612"
    },
    {
      "channel": 4,
      "note": 81,
      "start": 23.8332,
      "duration": 0.0512,
      "velocity": 93,
      "chip": "ym2612"
    },
    {
      "channel": 1,
      "note": 64,
      "start": 23.8832,
      "duration": 0.0581,
      "velocity": 92,
      "chip": "ym2612"
    },
    {
      "channel": 2,
      "note": 69,
      "start": 23.8839,
      "duration": 0.0576,
      "velocity": 92,
      "chip": "ym2612"
    },
    {
      "channel": 0,
      "note": 62,
      "start": 23.9752,
      "duration": 0.0996,
      "velocity": 83,
      "chip": "ym2612"
    },
    {
      "channel": 3,
      "note": 76,
      "start": 23.976,
      "duration": 0.0996,
      "velocity": 93,
      "chip": "ym2612"
    },
    {
      "channel": 4,
      "note": 81,
      "start": 23.9768,
      "duration": 0.0992,
      "velocity": 93,
      "chip": "ym2612"
    },
    {
      "channel": 0,
      "note": 50,
      "start": 24.0754,
      "duration": 0.0916,
      "velocity": 83,
      "chip": "ym2612"
    },
    {
      "channel": 1,
      "note": 64,
      "start": 24.1679,
      "duration": 0.1001,
      "velocity": 92,
      "chip": "ym2612"
    },
    {
      "channel": 2,
      "note": 69,
      "start": 24.1686,
      "duration": 0.0996,
      "velocity": 92,
      "chip": "ym2612"
    },
    {
      "channel": 0,
      "note": 50,
      "start": 24.2678,
      "duration": 0.0361,
      "velocity": 83,
      "chip": "ym2612"
    },
    {
      "channel": 0,
      "note": 49,
      "start": 24.3244,
      "duration": 0.0834,
      "velocity": 83,
      "chip": "ym2612"
    },
    {
      "channel": 3,
      "note": 76,
      "start": 24.3608,
      "duration": 0.0253,
      "velocity": 93,
      "chip": "ym2612"
    },
    {
      "channel": 4,
      "note": 81,
      "start": 24.3616,
      "duration": 0.0253,
      "velocity": 93,
      "chip": "ym2612"
    },
    {
      "channel": 3,
      "note": 78,
      "start": 24.3867,
      "duration": 0.0917,
      "velocity": 93,
      "chip": "ym2612"
    },
    {
      "channel": 4,
      "note": 83,
      "start": 24.3874,
      "duration": 0.0913,
      "velocity": 93,
      "chip": "ym2612"
    },
    {
      "channel": 1,
      "note": 66,
      "start": 24.4776,
      "duration": 0.1001,
      "velocity": 92,
      "chip": "ym2612"
    },
    {
      "channel": 2,
      "note": 71,
      "start": 24.4783,
      "duration": 0.0996,
      "velocity": 92,
      "chip": "ym2612"
    },
    {
      "channel": 0,
      "note": 49,
      "start": 24.5775,
      "duration": 0.0827,
      "velocity": 83,
      "chip": "ym2612"
    },
    {
      "channel": 3,
      "note": 78,
      "start": 24.5789,
      "duration": 0.1688,
      "velocity": 93,
      "chip": "ym2612"
    },
    {
      "channel": 4,
      "note": 83,
      "start": 24.5796,
      "duration": 0.1684,
      "velocity": 93,
      "chip": "ym2612"
    },
    {
      "channel": 0,
      "note": 61,
      "start": 24.7442,
      "duration": 0.0997,
      "velocity": 83,
      "chip": "ym2612"
    },
    {
      "channel": 1,
      "note": 44,
      "start": 24.7475,
      "duration": 0.0967,
      "velocity": 99,
      "chip": "ym2612"
    },
    {
      "channel": 1,
      "note": 71,
      "start": 24.8447,
      "duration": 0.0232,
      "velocity": 99,
      "chip": "ym2612"
    },
    {
      "channel": 2,
      "note": 71,
      "start": 24.8455,
      "duration": 0.0679,
      "velocity": 92,
      "chip": "ym2612"
    },
    {
      "channel": 3,
      "note": 73,
      "start": 24.8489,
      "duration": 0.0394,
      "velocity": 101,
      "chip": "ym2612"
    },
    {
      "channel": 1,
      "note": 71,
      "start": 24.8878,
      "duration": 0.1089,
      "velocity": 92,
      "chip": "ym2612"
    },
    {
      "channel": 4,
      "note": 83,
      "start": 24.8892,
      "duration": 0.0253,
      "velocity": 93,
      "chip": "ym2612"
    },
    {
      "channel": 0,
      "note": 49,
      "start": 24.9129,
      "duration": 0.1389,
      "velocity": 83,
      "chip": "ym2612"
    },
    {
      "channel": 3,
      "note": 73,
      "start": 24.9143,
      "duration": 0.1391,
      "velocity": 101,
      "chip": "ym2612"
    },
    {
      "channel": 0,
      "note": 61,
      "start": 25.0524,
      "duration": 0.0502,
      "velocity": 83,
      "chip": "ym2612"
    },
    {
      "channel": 2,
      "note": 71,
      "start": 25.0532,
      "duration": 0.0498,
      "velocity": 92,
      "chip": "ym2612"
    },
    {
      "channel": 3,
      "note": 77,
      "start": 25.1065,
      "duration": 0.1905,
      "velocity": 93,
      "chip": "ym2612"
    },
    {
      "channel": 4,
      "note": 83,
      "start": 25.1072,
      "duration": 0.1901,
      "velocity": 93,
      "chip": "ym2612"
    },
    {
      "channel": 1,
      "note": 65,
      "start": 25.1274,
      "duration": 0.1927,
      "velocity": 99,
      "chip": "ym2612"
    },
    {
      "channel": 0,
      "note": 61,
      "start": 25.1955,
      "duration": 0.0997,
      "velocity": 83,
      "chip": "ym2612"
    },
    {
      "channel": 0,
      "note": 49,
      "start": 25.2957,
      "duration": 0.0965,
      "velocity": 83,
      "chip": "ym2612"
    },
    {
      "channel": 2,
      "note": 71,
      "start": 25.2968,
      "duration": 0.0968,
      "velocity": 92,
      "chip": "ym2612"
    },
    {
      "channel": 1,
      "note": 78,
      "start": 25.3207,
      "duration": 0.034,
      "velocity": 99,
      "chip": "ym2612"
    },
    {
      "channel": 1,
      "note": 76,
      "start": 25.3553,
      "duration": 0.0081,
      "velocity": 99,
      "chip": "ym2612"
    },
    {
      "channel": 1,
      "note": 74,
      "start": 25.3639,
      "duration": 0.0144,
      "velocity": 99,
      "chip": "ym2612"
    },
    {
      "channel": 3,
      "note": 77,
      "start": 25.3651,
      "duration": 0.0288,
      "velocity": 93,
      "chip": "ym2612"
    },
    {
      "channel": 4,
      "note": 83,
      "start": 25.3658,
      "duration": 0.0285,
      "velocity": 93,
      "chip": "ym2612"
    },
    {
      "channel": 1,
      "note": 73,
      "start": 25.3789,
      "duration": 0.014,
      "velocity": 99,
      "chip": "ym2612"
    },
    {
      "channel": 0,
      "note": 49,
      "start": 25.3928,
      "duration": 0.0676,
      "velocity": 83,
      "chip": "ym2612"
    },
    {
      "channel": 1,
      "note": 71,
      "start": 25.3935,
      "duration": 0.0088,
      "velocity": 99,
      "chip": "ym2612"
    },
    {
      "channel": 1,
      "note": 69,
      "start": 25.4029,
      "duration": 0.011,
      "velocity": 99,
      "chip": "ym2612"
    },
    {
      "channel": 1,
      "note": 68,
      "start": 25.4146,
      "duration": 0.012,
      "velocity": 99,
      "chip": "ym2612"
    },
    {
      "channel": 1,
      "note": 66,
      "start": 25.4272,
      "duration": 0.0077,
      "velocity": 99,
      "chip": "ym2612"
    },
    {
      "channel": 1,
      "note": 64,
      "start": 25.4355,
      "duration": 0.0126,
      "velocity": 99,
      "chip": "ym2612"
    },
    {
      "channel": 2,
      "note": 71,
      "start": 25.4362,
      "duration": 0.0257,
      "velocity": 92,
      "chip": "ym2612"
    },
    {
      "channel": 1,
      "note": 62,
      "start": 25.4487,
      "duration": 0.0124,
      "velocity": 99,
      "chip": "ym2612"
    },
    {
      "channel": 0,
      "note": 49,
      "start": 25.461,
      "duration": 0.0398,
      "velocity": 83,
      "chip": "ym2612"
    },
    {
      "channel": 1,
      "note": 61,
      "start": 25.4618,
      "duration": 0.0077,
      "velocity": 99,
      "chip": "ym2612"
    },
    {
      "channel": 1,
      "note": 59,
      "start": 25.4701,
      "duration": 0.011,
      "velocity": 99,
      "chip": "ym2612"
    },
    {
      "channel": 1,
      "note": 57,
      "start": 25.4817,
      "duration": 0.0115,
      "velocity": 99,
      "chip": "ym2612"
    },
    {
      "channel": 1,
      "note": 56,
      "start": 25.4938,
      "duration": 0.0078,
      "velocity": 99,
      "chip": "ym2612"
    },
    {
      "channel": 0,
      "note": 61,
      "start": 25.5014,
      "duration": 0.0233,
      "velocity": 83,
      "chip": "ym2612"
    },
    {
      "channel": 1,
      "note": 54,
      "start": 25.5021,
      "duration": 0.0111,
      "velocity": 99,
      "chip": "ym2612"
    },
    {
      "channel": 1,
      "note": 52,
      "start": 25.5138,
      "duration": 0.0117,
      "velocity": 99,
      "chip": "ym2612"
    },
    {
      "channel": 0,
      "note": 47,
      "start": 25.5253,
      "duration": 0.0909,
      "velocity": 83,
      "chip": "ym2612"
    },
    {
      "channel": 1,
      "note": 78,
      "start": 25.526,
      "duration": 0.193,
      "velocity": 92,
      "chip": "ym2612"
    },
    {
      "channel": 3,
      "note": 59,
      "start": 25.5297,
      "duration": 0.1934,
      "velocity": 93,
      "chip": "ym2612"
    },
    {
      "channel": 1,
      "note": 64,
      "start": 25.7196,
      "duration": 0.0221,
      "velocity": 92,
      "chip": "ym2612"
    },
    {
      "channel": 2,
      "note": 69,
      "start": 25.7204,
      "duration": 0.0216,
      "velocity": 92,
      "chip": "ym2612"
    },
    {
      "channel": 0,
      "note": 66,
      "start": 25.7589,
      "duration": 0.024,
      "velocity": 83,
      "chip": "ym2612"
    },
    {
      "channel": 2,
      "note": 54,
      "start": 25.7839,
      "duration": 0.0174,
      "velocity": 92,
      "chip": "ym2612"
    },
    {
      "channel": 0,
      "note": 66,
      "start": 25.8179,
      "duration": 0.0317,
      "velocity": 83,
      "chip": "ym2612"
    },
    {
      "channel": 1,
      "note": 64,
      "start": 25.8186,
      "duration": 0.0318,
      "velocity": 92,
      "chip": "ym2612"
    },
    {
      "channel": 2,
      "note": 69,
      "start": 25.8194,
      "duration": 0.0313,
      "velocity": 92,
      "chip": "ym2612"
    },
    {
      "channel": 0,
      "note": 64,
      "start": 25.8503,
      "duration": 0.1401,
      "velocity": 83,
      "chip": "ym2612"
    },
    {
      "channel": 0,
      "note": 66,
      "start": 25.991,
      "duration": 0.0507,
      "velocity": 83,
      "chip": "ym2612"
    },
    {
      "channel": 2,
      "note": 54,
      "start": 25.9917,
      "duration": 0.051,
      "velocity": 92,
      "chip": "ym2612"
    },
    {
      "channel": 1,
      "note": 64,
      "start": 26.0426,
      "duration": 0.0581,
      "velocity": 92,
      "chip": "ym2612"
    },
    {
      "channel": 2,
      "note": 69,
      "start": 26.0433,
      "duration": 0.0576,
      "velocity": 92,
      "chip": "ym2612"
    },
    {
      "channel": 3,
      "note": 76,
      "start": 26.1348,
      "duration": 0.1217,
      "velocity": 93,
      "chip": "ym2612"
    },
    {
      "channel": 4,
      "note": 81,
      "start": 26.1355,
      "duration": 0.1213,
      "velocity": 93,
      "chip": "ym2612"
    },
    {
      "channel": 0,
      "note": 52,
      "start": 26.2348,
      "duration": 0.192,
      "velocity": 83,
      "chip": "ym2612"
    },
    {
      "channel": 1,
      "note": 64,
      "start": 26.3275,
      "duration": 0.1,
      "velocity": 92,
      "chip": "ym2612"
    },
    {
      "channel": 2,
      "note": 69,
      "start": 26.3282,
      "duration": 0.0996,
      "velocity": 92,
      "chip": "ym2612"
    },
    {
      "channel": 0,
      "note": 47,
      "start": 26.4273,
      "duration": 0.0632,
      "velocity": 83,
      "chip": "ym2612"
    },
    {
      "channel": 2,
      "note": 52,
      "start": 26.4283,
      "duration": 0.063,
      "velocity": 92,
      "chip": "ym2612"
    },
    {
      "channel": 0,
      "note": 45,
      "start": 26.491,
      "duration": 0.058,
      "velocity": 83,
      "chip": "ym2612"
    },
    {
      "channel": 0,
      "note": 57,
      "start": 26.6412,
      "duration": 0.0993,
      "velocity": 83,
      "chip": "ym2612"
    },
    {
      "channel": 1,
      "note": 59,
      "start": 26.7415,
      "duration": 0.0825,
      "velocity": 92,
      "chip": "ym2612"
    },
    {
      "channel": 2,
      "note": 64,
      "start": 26.7422,
      "duration": 0.0821,
      "velocity": 92,
      "chip": "ym2612"
    },
    {
      "channel": 0,
      "note": 67,
      "start": 26.9078,
      "duration": 0.0997,
      "velocity": 83,
      "chip": "ym2612"
    },
    {
      "channel": 0,
      "note": 57,
      "start": 27.0081,
      "duration": 0.0376,
      "velocity": 83,
      "chip": "ym2612"
    },
    {
      "channel": 2,
      "note": 45,
      "start": 27.0089,
      "duration": 0.03,
      "velocity": 92,
      "chip": "ym2612"
    },
    {
      "channel": 1,
      "note": 57,
      "start": 27.0466,
      "duration": 0.0285,
      "velocity": 92,
      "chip": "ym2612"
    },
    {
      "channel": 2,
      "note": 64,
      "start": 27.0473,
      "duration": 0.028,
      "velocity": 92,
      "chip": "ym2612"
    },
    {
      "channel": 0,
      "note": 57,
      "start": 27.0749,
      "duration": 0.1402,
      "velocity": 83,
      "chip": "ym2612"
    },
    {
      "channel": 0,
      "note": 69,
      "start": 27.2158,
      "duration": 0.0507,
      "velocity": 83,
      "chip": "ym2612"
    },
    {
      "channel": 2,
      "note": 52,
      "start": 27.2165,
      "duration": 0.051,
      "velocity": 92,
      "chip": "ym2612"
    },
    {
      "channel": 1,
      "note": 59,
      "start": 27.2673,
      "duration": 0.0581,
      "velocity": 92,
      "chip": "ym2612"
    },
    {
      "channel": 2,
      "note": 64,
      "start": 27.2681,
      "duration": 0.0576,
      "velocity": 92,
      "chip": "ym2612"
    },
    {
      "channel": 2,
      "note": 76,
      "start": 27.3595,
      "duration": 0.1003,
      "velocity": 92,
      "chip": "ym2612"
    },
    {
      "channel": 0,
      "note": 57,
      "start": 27.4595,
      "duration": 0.192,
      "velocity": 83,
      "chip": "ym2612"
    },
    {
      "channel": 2,
      "note": 78,
      "start": 27.4604,
      "duration": 0.058,
      "velocity": 92,
      "chip": "ym2612"
    },
    {
      "channel": 2,
      "note": 81,
      "start": 27.5523,
      "duration": 0.1,
      "velocity": 92,
      "chip": "ym2612"
    },
    {
      "channel": 0,
      "note": 69,
      "start": 27.6521,
      "duration": 0.0577,
      "velocity": 83,
      "chip": "ym2612"
    },
    {
      "channel": 0,
      "note": 57,
      "start": 27.7104,
      "duration": 0.0353,
      "velocity": 83,
      "chip": "ym2612"
    },
    {
      "channel": 0,
      "note": 69,
      "start": 27.7464,
      "duration": 0.0207,
      "velocity": 83,
      "chip": "ym2612"
    },
    {
      "channel": 0,
      "note": 47,
      "start": 27.7676,
      "duration": 0.091,
      "velocity": 83,
      "chip": "ym2612"
    },
    {
      "channel": 1,
      "note": 42,
      "start": 27.9595,
      "duration": 0.0192,
      "velocity": 99,
      "chip": "ym2612"
    },
    {
      "channel": 2,
      "note": 69,
      "start": 27.9603,
      "duration": 0.0191,
      "velocity": 92,
      "chip": "ym2612"
    },
    {
      "channel": 1,
      "note": 44,
      "start": 27.9793,
      "duration": 0.0183,
      "velocity": 99,
      "chip": "ym2612"
    },
    {
      "channel": 0,
      "note": 66,
      "start": 27.9975,
      "duration": 0.0242,
      "velocity": 83,
      "chip": "ym2612"
    },
    {
      "channel": 1,
      "note": 45,
      "start": 27.9982,
      "duration": 0.0238,
      "velocity": 99,
      "chip": "ym2612"
    },
    {
      "channel": 1,
      "note": 78,
      "start": 28.0226,
      "duration": 0.0698,
      "velocity": 92,
      "chip": "ym2612"
    },
    {
      "channel": 2,
      "note": 54,
      "start": 28.0233,
      "duration": 0.0202,
      "velocity": 92,
      "chip": "ym2612"
    },
    {
      "channel": 3,
      "note": 59,
      "start": 28.024,
      "duration": 0.0715,
      "velocity": 93,
      "chip": "ym2612"
    },
    {
      "channel": 0,
      "note": 66,
      "start": 28.0632,
      "duration": 0.0259,
      "velocity": 83,
      "chip": "ym2612"
    },
    {
      "channel": 2,
      "note": 69,
      "start": 28.0642,
      "duration": 0.0284,
      "velocity": 92,
      "chip": "ym2612"
    },
    {
      "channel": 0,
      "note": 64,
      "start": 28.0897,
      "duration": 0.1396,
      "velocity": 83,
      "chip": "ym2612"
    },
    {
      "channel": 0,
      "note": 66,
      "start": 28.2299,
      "duration": 0.0508,
      "velocity": 83,
      "chip": "ym2612"
    },
    {
      "channel": 2,
      "note": 54,
      "start": 28.2307,
      "duration": 0.051,
      "velocity": 92,
      "chip": "ym2612"
    },
    {
      "channel": 1,
      "note": 64,
      "start": 28.2815,
      "duration": 0.0581,
      "velocity": 92,
      "chip": "ym2612"
    },
    {
      "channel": 2,
      "note": 69,
      "start": 28.2823,
      "duration": 0.0576,
      "velocity": 92,
      "chip": "ym2612"
    },
    {
      "channel": 3,
      "note": 76,
      "start": 28.3737,
      "duration": 0.1218,
      "velocity": 93,
      "chip": "ym2612"
    },
    {
      "channel": 4,
      "note": 81,
      "start": 28.3745,
      "duration": 0.1213,
      "velocity": 93,
      "chip": "ym2612"
    },
    {
      "channel": 0,
      "note": 52,
      "start": 28.4737,
      "duration": 0.192,
      "velocity": 83,
      "chip": "ym2612"
    },
    {
      "channel": 1,
      "note": 64,
      "start": 28.5664,
      "duration": 0.1,
      "velocity": 92,
      "chip": "ym2612"
    },
    {
      "channel": 2,
      "note": 69,
      "start": 28.5671,
      "duration": 0.0996,
      "velocity": 92,
      "chip": "ym2612"
    },
    {
      "channel": 0,
      "note": 47,
      "start": 28.6663,
      "duration": 0.0633,
      "velocity": 83,
      "chip": "ym2612"
    },
    {
      "channel": 2,
      "note": 52,
      "start": 28.6673,
      "duration": 0.0631,
      "velocity": 92,
      "chip": "ym2612"
    },
    {
      "channel": 0,
      "note": 45,
      "start": 28.7302,
      "duration": 0.0583,
      "velocity": 83,
      "chip": "ym2612"
    },
    {
      "channel": 0,
      "note": 57,
      "start": 28.8805,
      "duration": 0.0994,
      "velocity": 83,
      "chip": "ym2612"
    },
    {
      "channel": 1,
      "note": 64,
      "start": 28.9808,
      "duration": 0.0825,
      "velocity": 92,
      "chip": "ym2612"
    },
    {
      "channel": 2,
      "note": 71,
      "start": 28.9816,
      "duration": 0.0821,
      "velocity": 92,
      "chip": "ym2612"
    },
    {
      "channel": 0,
      "note": 67,
      "start": 29.1472,
      "duration": 0.0996,
      "velocity": 83,
      "chip": "ym2612"
    },
    {
      "channel": 0,
      "note": 57,
      "start": 29.2474,
      "duration": 0.0376,
      "velocity": 83,
      "chip": "ym2612"
    },
    {
      "channel": 2,
      "note": 45,
      "start": 29.2482,
      "duration": 0.03,
      "velocity": 92,
      "chip": "ym2612"
    },
    {
      "channel": 1,
      "note": 57,
      "start": 29.2859,
      "duration": 0.0284,
      "velocity": 92,
      "chip": "ym2612"
    },
    {
      "channel": 2,
      "note": 71,
      "start": 29.2867,
      "duration": 0.028,
      "velocity": 92,
      "chip": "ym2612"
    },
    {
      "channel": 0,
      "note": 57,
      "start": 29.3142,
      "duration": 0.1401,
      "velocity": 83,
      "chip": "ym2612"
    },
    {
      "channel": 0,
      "note": 69,
      "start": 29.4549,
      "duration": 0.0507,
      "velocity": 83,
      "chip": "ym2612"
    },
    {
      "channel": 2,
      "note": 52,
      "start": 29.4557,
      "duration": 0.051,
      "velocity": 92,
      "chip": "ym2612"
    },
    {
      "channel": 1,
      "note": 59,
      "start": 29.5065,
      "duration": 0.0581,
      "velocity": 92,
      "chip": "ym2612"
    },
    {
      "channel": 2,
      "note": 64,
      "start": 29.5073,
      "duration": 0.0576,
      "velocity": 92,
      "chip": "ym2612"
    },
    {
      "channel": 1,
      "note": 83,
      "start": 29.5986,
      "duration": 0.1095,
      "velocity": 92,
      "chip": "ym2612"
    },
    {
      "channel": 2,
      "note": 88,
      "start": 29.5994,
      "duration": 0.109,
      "velocity": 92,
      "chip": "ym2612"
    },
    {
      "channel": 0,
      "note": 57,
      "start": 29.6987,
      "duration": 0.192,
      "velocity": 83,
      "chip": "ym2612"
    },
    {
      "channel": 1,
      "note": 64,
      "start": 29.7914,
      "duration": 0.1085,
      "velocity": 92,
      "chip": "ym2612"
    },
    {
      "channel": 2,
      "note": 85,
      "start": 29.7921,
      "duration": 0.1081,
      "velocity": 92,
      "chip": "ym2612"
    },
    {
      "channel": 0,
      "note": 69,
      "start": 29.8912,
      "duration": 0.059,
      "velocity": 83,
      "chip": "ym2612"
    },
    {
      "channel": 0,
      "note": 57,
      "start": 29.9509,
      "duration": 0.0444,
      "velocity": 83,
      "chip": "ym2612"
    },
    {
      "channel": 1,
      "note": 42,
      "start": 29.9542,
      "duration": 0.02,
      "velocity": 99,
      "chip": "ym2612"
    },
    {
      "channel": 2,
      "note": 83,
      "start": 29.9549,
      "duration": 0.0333,
      "velocity": 92,
      "chip": "ym2612"
    },
    {
      "channel": 1,
      "note": 44,
      "start": 29.9748,
      "duration": 0.0213,
      "velocity": 99,
      "chip": "ym2612"
    },
    {
      "channel": 0,
      "note": 69,
      "start": 29.9959,
      "duration": 0.0242,
      "velocity": 83,
      "chip": "ym2612"
    },
    {
      "channel": 1,
      "note": 45,
      "start": 29.9966,
      "duration": 0.0243,
      "velocity": 99,
      "chip": "ym2612"
    },
    {
      "channel": 2,
      "note": 81,
      "start": 29.9974,
      "duration": 0.0243,
      "velocity": 92,
      "chip": "ym2612"
    },
    {
      "channel": 0,
      "note": 47,
      "start": 30.0207,
      "duration": 0.0914,
      "velocity": 83,
      "chip": "ym2612"
    },
    {
      "channel": 1,
      "note": 78,
      "start": 30.0215,
      "duration": 0.1935,
      "velocity": 92,
      "chip": "ym2612"
    },
    {
      "channel": 3,
      "note": 59,
      "start": 30.0252,
      "duration": 0.1939,
      "velocity": 93,
      "chip": "ym2612"
    },
    {
      "channel": 1,
      "note": 64,
      "start": 30.2156,
      "duration": 0.0221,
      "velocity": 92,
      "chip": "ym2612"
    },
    {
      "channel": 2,
      "note": 69,
      "start": 30.2164,
      "duration": 0.0216,
      "velocity": 92,
      "chip": "ym2612"
    },
    {
      "channel": 0,
      "note": 66,
      "start": 30.255,
      "duration": 0.024,
      "velocity": 83,
      "chip": "ym2612"
    },
    {
      "channel": 2,
      "note": 54,
      "start": 30.2799,
      "duration": 0.0174,
      "velocity": 92,
      "chip": "ym2612"
    },
    {
      "channel": 1,
      "note": 64,
      "start": 30.314,
      "duration": 0.0324,
      "velocity": 92,
      "chip": "ym2612"
    },
    {
      "channel": 2,
      "note": 69,
      "start": 30.3147,
      "duration": 0.0319,
      "velocity": 92,
      "chip": "ym2612"
    },
    {
      "channel": 0,
      "note": 54,
      "start": 30.3462,
      "duration": 0.1402,
      "velocity": 83,
      "chip": "ym2612"
    },
    {
      "channel": 0,
      "note": 64,
      "start": 30.487,
      "duration": 0.0507,
      "velocity": 83,
      "chip": "ym2612"
    },
    {
      "channel": 2,
      "note": 54,
      "start": 30.4877,
      "duration": 0.051,
      "velocity": 92,
      "chip": "ym2612"
    },
    {
      "channel": 1,
      "note": 64,
      "start": 30.5386,
      "duration": 0.0581,
      "velocity": 92,
      "chip": "ym2612"
    },
    {
      "channel": 2,
      "note": 69,
      "start": 30.5394,
      "duration": 0.0576,
      "velocity": 92,
      "chip": "ym2612"
    },
    {
      "channel": 0,
      "note": 64,
      "start": 30.6305,
      "duration": 0.0997,
      "velocity": 83,
      "chip": "ym2612"
    },
    {
      "channel": 3,
      "note": 76,
      "start": 30.6314,
      "duration": 0.1212,
      "velocity": 93,
      "chip": "ym2612"
    },
    {
      "channel": 4,
      "note": 81,
      "start": 30.6322,
      "duration": 0.1207,
      "velocity": 93,
      "chip": "ym2612"
    },
    {
      "channel": 0,
      "note": 66,
      "start": 30.7308,
      "duration": 0.0213,
      "velocity": 83,
      "chip": "ym2612"
    },
    {
      "channel": 1,
      "note": 64,
      "start": 30.8232,
      "duration": 0.1003,
      "velocity": 92,
      "chip": "ym2612"
    },
    {
      "channel": 2,
      "note": 69,
      "start": 30.8239,
      "duration": 0.0999,
      "velocity": 92,
      "chip": "ym2612"
    },
    {
      "channel": 0,
      "note": 59,
      "start": 30.9234,
      "duration": 0.0632,
      "velocity": 83,
      "chip": "ym2612"
    },
    {
      "channel": 2,
      "note": 52,
      "start": 30.9244,
      "duration": 0.063,
      "velocity": 92,
      "chip": "ym2612"
    },
    {
      "channel": 0,
      "note": 57,
      "start": 30.9871,
      "duration": 0.0779,
      "velocity": 83,
      "chip": "ym2612"
    },
    {
      "channel": 0,
      "note": 57,
      "start": 31.2372,
      "duration": 0.1661,
      "velocity": 83,
      "chip": "ym2612"
    },
    {
      "channel": 1,
      "note": 64,
      "start": 31.238,
      "duration": 0.0823,
      "velocity": 92,
      "chip": "ym2612"
    },
    {
      "channel": 2,
      "note": 71,
      "start": 31.2387,
      "duration": 0.0819,
      "velocity": 92,
      "chip": "ym2612"
    },
    {
      "channel": 0,
      "note": 45,
      "start": 31.4039,
      "duration": 0.0997,
      "velocity": 83,
      "chip": "ym2612"
    },
    {
      "channel": 0,
      "note": 59,
      "start": 31.5041,
      "duration": 0.0376,
      "velocity": 83,
      "chip": "ym2612"
    },
    {
      "channel": 2,
      "note": 45,
      "start": 31.5049,
      "duration": 0.03,
      "velocity": 92,
      "chip": "ym2612"
    },
    {
      "channel": 1,
      "note": 64,
      "start": 31.5426,
      "duration": 0.0285,
      "velocity": 92,
      "chip": "ym2612"
    },
    {
      "channel": 2,
      "note": 71,
      "start": 31.5434,
      "duration": 0.028,
      "velocity": 92,
      "chip": "ym2612"
    },
    {
      "channel": 0,
      "note": 59,
      "start": 31.571,
      "duration": 0.1401,
      "velocity": 83,
      "chip": "ym2612"
    },
    {
      "channel": 0,
      "note": 47,
      "start": 31.7117,
      "duration": 0.0507,
      "velocity": 83,
      "chip": "ym2612"
    },
    {
      "channel": 2,
      "note": 52,
      "start": 31.7124,
      "duration": 0.0514,
      "velocity": 92,
      "chip": "ym2612"
    },
    {
      "channel": 0,
      "note": 61,
      "start": 31.7629,
      "duration": 0.192,
      "velocity": 83,
      "chip": "ym2612"
    },
    {
      "channel": 1,
      "note": 64,
      "start": 31.7637,
      "duration": 0.058,
      "velocity": 92,
      "chip": "ym2612"
    },
    {
      "channel": 2,
      "note": 71,
      "start": 31.7644,
      "duration": 0.0576,
      "velocity": 92,
      "chip": "ym2612"
    },
    {
      "channel": 2,
      "note": 76,
      "start": 31.8557,
      "duration": 0.1,
      "velocity": 92,
      "chip": "ym2612"
    },
    {
      "channel": 0,
      "note": 61,
      "start": 31.9555,
      "duration": 0.192,
      "velocity": 83,
      "chip": "ym2612"
    },
    {
      "channel": 2,
      "note": 78,
      "start": 31.9563,
      "duration": 0.058,
      "velocity": 92,
      "chip": "ym2612"
    },
    {
      "channel": 2,
      "note": 81,
      "start": 32.0482,
      "duration": 0.0999,
      "velocity": 92,
      "chip": "ym2612"
    },
    {
      "channel": 0,
      "note": 57,
      "start": 32.148,
      "duration": 0.059,
      "velocity": 83,
      "chip": "ym2612"
    },
    {
      "channel": 0,
      "note": 56,
      "start": 32.2076,
      "duration": 0.0832,
      "velocity": 83,
      "chip": "ym2612"
    },
    {
      "channel": 3,
      "note": 87,
      "start": 32.2705,
      "duration": 0.251,
      "velocity": 101,
      "chip": "ym2612"
    },
    {
      "channel": 0,
      "note": 44,
      "start": 32.4589,
      "duration": 0.0192,
      "velocity": 83,
      "chip": "ym2612"
    },
    {
      "channel": 0,
      "note": 56,
      "start": 32.4969,
      "duration": 0.0241,
      "velocity": 83,
      "chip": "ym2612"
    },
    {
      "channel": 3,
      "note": 90,
      "start": 32.522,
      "duration": 0.2581,
      "velocity": 101,
      "chip": "ym2612"
    },
    {
      "channel": 0,
      "note": 44,
      "start": 32.5883,
      "duration": 0.1408,
      "velocity": 83,
      "chip": "ym2612"
    },
    {
      "channel": 0,
      "note": 56,
      "start": 32.7297,
      "duration": 0.05,
      "velocity": 83,
      "chip": "ym2612"
    },
    {
      "channel": 0,
      "note": 56,
      "start": 32.8725,
      "duration": 0.0997,
      "velocity": 83,
      "chip": "ym2612"
    },
    {
      "channel": 0,
      "note": 44,
      "start": 32.9727,
      "duration": 0.0917,
      "velocity": 83,
      "chip": "ym2612"
    },
    {
      "channel": 3,
      "note": 94,
      "start": 32.9736,
      "duration": 0.1919,
      "velocity": 101,
      "chip": "ym2612"
    },
    {
      "channel": 0,
      "note": 44,
      "start": 33.1652,
      "duration": 0.0396,
      "velocity": 83,
      "chip": "ym2612"
    },
    {
      "channel": 3,
      "note": 95,
      "start": 33.1661,
      "duration": 0.0613,
      "velocity": 101,
      "chip": "ym2612"
    },
    {
      "channel": 0,
      "note": 49,
      "start": 33.2271,
      "duration": 0.0875,
      "velocity": 83,
      "chip": "ym2612"
    },
    {
      "channel": 3,
      "note": 97,
      "start": 33.228,
      "duration": 0.0651,
      "velocity": 101,
      "chip": "ym2612"
    },
    {
      "channel": 0,
      "note": 49,
      "start": 33.4821,
      "duration": 0.0189,
      "velocity": 83,
      "chip": "ym2612"
    },
    {
      "channel": 3,
      "note": 85,
      "start": 33.483,
      "duration": 0.0298,
      "velocity": 101,
      "chip": "ym2612"
    },
    {
      "channel": 1,
      "note": 49,
      "start": 33.5125,
      "duration": 0.0465,
      "velocity": 99,
      "chip": "ym2612"
    },
    {
      "channel": 4,
      "note": 61,
      "start": 33.5136,
      "duration": 0.0465,
      "velocity": 101,
      "chip": "ym2612"
    },
    {
      "channel": 0,
      "note": 61,
      "start": 33.5208,
      "duration": 0.0379,
      "velocity": 83,
      "chip": "ym2612"
    },
    {
      "channel": 3,
      "note": 85,
      "start": 33.56,
      "duration": 0.1999,
      "velocity": 101,
      "chip": "ym2612"
    },
    {
      "channel": 0,
      "note": 49,
      "start": 33.5956,
      "duration": 0.0299,
      "velocity": 83,
      "chip": "ym2612"
    },
    {
      "channel": 1,
      "note": 49,
      "start": 33.7597,
      "duration": 0.0582,
      "velocity": 99,
      "chip": "ym2612"
    },
    {
      "channel": 3,
      "note": 85,
      "start": 33.7605,
      "duration": 0.0577,
      "velocity": 101,
      "chip": "ym2612"
    },
    {
      "channel": 4,
      "note": 61,
      "start": 33.7613,
      "duration": 0.0573,
      "velocity": 101,
      "chip": "ym2612"
    },
    {
      "channel": 0,
      "note": 61,
      "start": 33.7688,
      "duration": 0.0487,
      "velocity": 83,
      "chip": "ym2612"
    },
    {
      "channel": 0,
      "note": 61,
      "start": 33.9105,
      "duration": 0.0996,
      "velocity": 83,
      "chip": "ym2612"
    },
    {
      "channel": 0,
      "note": 49,
      "start": 34.0106,
      "duration": 0.0669,
      "velocity": 83,
      "chip": "ym2612"
    },
    {
      "channel": 1,
      "note": 49,
      "start": 34.0113,
      "duration": 0.091,
      "velocity": 99,
      "chip": "ym2612"
    },
    {
      "channel": 4,
      "note": 61,
      "start": 34.0122,
      "duration": 0.0905,
      "velocity": 101,
      "chip": "ym2612"
    },
    {
      "channel": 0,
      "note": 49,
      "start": 34.1022,
      "duration": 0.0375,
      "velocity": 83,
      "chip": "ym2612"
    },
    {
      "channel": 1,
      "note": 49,
      "start": 34.1318,
      "duration": 0.0315,
      "velocity": 99,
      "chip": "ym2612"
    },
    {
      "channel": 4,
      "note": 61,
      "start": 34.1327,
      "duration": 0.031,
      "velocity": 101,
      "chip": "ym2612"
    },
    {
      "channel": 0,
      "note": 49,
      "start": 34.163,
      "duration": 0.0779,
      "velocity": 83,
      "chip": "ym2612"
    },
    {
      "channel": 0,
      "note": 61,
      "start": 34.2416,
      "duration": 0.0998,
      "velocity": 83,
      "chip": "ym2612"
    },
    {
      "channel": 0,
      "note": 54,
      "start": 34.342,
      "duration": 0.0915,
      "velocity": 83,
      "chip": "ym2612"
    },
    {
      "channel": 3,
      "note": 92,
      "start": 34.3486,
      "duration": 0.5171,
      "velocity": 95,
      "chip": "ym2612"
    },
    {
      "channel": 4,
      "note": 81,
      "start": 34.3615,
      "duration": 0.0119,
      "velocity": 93,
      "chip": "ym2612"
    },
    {
      "channel": 4,
      "note": 83,
      "start": 34.3739,
      "duration": 0.0271,
      "velocity": 93,
      "chip": "ym2612"
    },
    {
      "channel": 4,
      "note": 85,
      "start": 34.4017,
      "duration": 0.205,
      "velocity": 93,
      "chip": "ym2612"
    },
    {
      "channel": 1,
      "note": 64,
      "start": 34.5343,
      "duration": 0.0224,
      "velocity": 92,
      "chip": "ym2612"
    },
    {
      "channel": 2,
      "note": 69,
      "start": 34.5351,
      "duration": 0.0219,
      "velocity": 92,
      "chip": "ym2612"
    },
    {
      "channel": 0,
      "note": 66,
      "start": 34.5773,
      "duration": 0.0279,
      "velocity": 83,
      "chip": "ym2612"
    },
    {
      "channel": 2,
      "note": 54,
      "start": 34.6062,
      "duration": 0.0208,
      "velocity": 92,
      "chip": "ym2612"
    },
    {
      "channel": 4,
      "note": 83,
      "start": 34.6073,
      "duration": 0.069,
      "velocity": 93,
      "chip": "ym2612"
    },
    {
      "channel": 0,
      "note": 66,
      "start": 34.6469,
      "duration": 0.0276,
      "velocity": 83,
      "chip": "ym2612"
    },
    {
      "channel": 1,
      "note": 64,
      "start": 34.6476,
      "duration": 0.0277,
      "velocity": 92,
      "chip": "ym2612"
    },
    {
      "channel": 2,
      "note": 88,
      "start": 34.6484,
      "duration": 0.0273,
      "velocity": 92,
      "chip": "ym2612"
    },
    {
      "channel": 0,
      "note": 64,
      "start": 34.6752,
      "duration": 0.1383,
      "velocity": 83,
      "chip": "ym2612"
    },
    {
      "channel": 4,
      "note": 81,
      "start": 34.6769,
      "duration": 0.1295,
      "velocity": 93,
      "chip": "ym2612"
    },
    {
      "channel": 0,
      "note": 66,
      "start": 34.8141,
      "duration": 0.0498,
      "velocity": 83,
      "chip": "ym2612"
    },
    {
      "channel": 1,
      "note": 54,
      "start": 34.8148,
      "duration": 0.0494,
      "velocity": 92,
      "chip": "ym2612"
    },
    {
      "channel": 2,
      "note": 85,
      "start": 34.8156,
      "duration": 0.0493,
      "velocity": 92,
      "chip": "ym2612"
    },
    {
      "channel": 1,
      "note": 64,
      "start": 34.8648,
      "duration": 0.0581,
      "velocity": 92,
      "chip": "ym2612"
    },
    {
      "channel": 2,
      "note": 69,
      "start": 34.8655,
      "duration": 0.0576,
      "velocity": 92,
      "chip": "ym2612"
    },
    {
      "channel": 3,
      "note": 88,
      "start": 34.8663,
      "duration": 0.4532,
      "velocity": 95,
      "chip": "ym2612"
    },
    {
      "channel": 1,
      "note": 78,
      "start": 34.9568,
      "duration": 0.1117,
      "velocity": 92,
      "chip": "ym2612"
    },
    {
      "channel": 2,
      "note": 83,
      "start": 34.9575,
      "duration": 0.1112,
      "velocity": 92,
      "chip": "ym2612"
    },
    {
      "channel": 0,
      "note": 52,
      "start": 35.0569,
      "duration": 0.192,
      "velocity": 83,
      "chip": "ym2612"
    },
    {
      "channel": 4,
      "note": 83,
      "start": 35.0588,
      "duration": 0.0575,
      "velocity": 93,
      "chip": "ym2612"
    },
    {
      "channel": 1,
      "note": 64,
      "start": 35.1497,
      "duration": 0.1,
      "velocity": 92,
      "chip": "ym2612"
    },
    {
      "channel": 2,
      "note": 81,
      "start": 35.1504,
      "duration": 0.0996,
      "velocity": 92,
      "chip": "ym2612"
    },
    {
      "channel": 0,
      "note": 54,
      "start": 35.2495,
      "duration": 0.0677,
      "velocity": 83,
      "chip": "ym2612"
    },
    {
      "channel": 2,
      "note": 52,
      "start": 35.2505,
      "duration": 0.0681,
      "velocity": 92,
      "chip": "ym2612"
    },
    {
      "channel": 0,
      "note": 57,
      "start": 35.3178,
      "duration": 0.0782,
      "velocity": 83,
      "chip": "ym2612"
    },
    {
      "channel": 1,
      "note": 62,
      "start": 35.3185,
      "duration": 0.2699,
      "velocity": 92,
      "chip": "ym2612"
    },
    {
      "channel": 2,
      "note": 71,
      "start": 35.3192,
      "duration": 0.2699,
      "velocity": 92,
      "chip": "ym2612"
    },
    {
      "channel": 3,
      "note": 85,
      "start": 35.32,
      "duration": 0.7357,
      "velocity": 95,
      "chip": "ym2612"
    },
    {
      "channel": 4,
      "note": 85,
      "start": 35.3208,
      "duration": 0.7955,
      "velocity": 93,
      "chip": "ym2612"
    },
    {
      "channel": 0,
      "note": 57,
      "start": 35.4887,
      "duration": 0.0993,
      "velocity": 83,
      "chip": "ym2612"
    },
    {
      "channel": 1,
      "note": 67,
      "start": 35.589,
      "duration": 0.0825,
      "velocity": 92,
      "chip": "ym2612"
    },
    {
      "channel": 2,
      "note": 69,
      "start": 35.5897,
      "duration": 0.0821,
      "velocity": 92,
      "chip": "ym2612"
    },
    {
      "channel": 0,
      "note": 67,
      "start": 35.7554,
      "duration": 0.0996,
      "velocity": 83,
      "chip": "ym2612"
    },
    {
      "channel": 0,
      "note": 57,
      "start": 35.8556,
      "duration": 0.0441,
      "velocity": 83,
      "chip": "ym2612"
    },
    {
      "channel": 2,
      "note": 57,
      "start": 35.8564,
      "duration": 0.0352,
      "velocity": 92,
      "chip": "ym2612"
    },
    {
      "channel": 1,
      "note": 62,
      "start": 35.9006,
      "duration": 0.0266,
      "velocity": 92,
      "chip": "ym2612"
    },
    {
      "channel": 2,
      "note": 69,
      "start": 35.9013,
      "duration": 0.0261,
      "velocity": 92,
      "chip": "ym2612"
    },
    {
      "channel": 0,
      "note": 57,
      "start": 35.927,
      "duration": 0.1362,
      "velocity": 83,
      "chip": "ym2612"
    },
    {
      "channel": 0,
      "note": 69,
      "start": 36.0639,
      "duration": 0.0498,
      "velocity": 83,
      "chip": "ym2612"
    },
    {
      "channel": 2,
      "note": 55,
      "start": 36.0646,
      "duration": 0.0501,
      "velocity": 92,
      "chip": "ym2612"
    },
    {
      "channel": 1,
      "note": 62,
      "start": 36.1146,
      "duration": 0.058,
      "velocity": 92,
      "chip": "ym2612"
    },
    {
      "channel": 2,
      "note": 69,
      "start": 36.1154,
      "duration": 0.0576,
      "velocity": 92,
      "chip": "ym2612"
    },
    {
      "channel": 3,
      "note": 85,
      "start": 36.116,
      "duration": 0.191,
      "velocity": 95,
      "chip": "ym2612"
    },
    {
      "channel": 4,
      "note": 85,
      "start": 36.1167,
      "duration": 0.1911,
      "velocity": 93,
      "chip": "ym2612"
    },
    {
      "channel": 0,
      "note": 57,
      "start": 36.3067,
      "duration": 0.192,
      "velocity": 83,
      "chip": "ym2612"
    },
    {
      "channel": 3,
      "note": 86,
      "start": 36.3076,
      "duration": 0.1926,
      "velocity": 95,
      "chip": "ym2612"
    },
    {
      "channel": 4,
      "note": 86,
      "start": 36.3084,
      "duration": 0.1926,
      "velocity": 93,
      "chip": "ym2612"
    },
    {
      "channel": 1,
      "note": 62,
      "start": 36.3994,
      "duration": 0.1109,
      "velocity": 92,
      "chip": "ym2612"
    },
    {
      "channel": 2,
      "note": 69,
      "start": 36.4001,
      "duration": 0.1105,
      "velocity": 92,
      "chip": "ym2612"
    },
    {
      "channel": 0,
      "note": 69,
      "start": 36.4993,
      "duration": 0.0701,
      "velocity": 83,
      "chip": "ym2612"
    },
    {
      "channel": 3,
      "note": 88,
      "start": 36.5008,
      "duration": 0.1379,
      "velocity": 95,
      "chip": "ym2612"
    },
    {
      "channel": 4,
      "note": 88,
      "start": 36.5015,
      "duration": 0.138,
      "velocity": 93,
      "chip": "ym2612"
    },
    {
      "channel": 0,
      "note": 57,
      "start": 36.57,
      "duration": 0.0421,
      "velocity": 83,
      "chip": "ym2612"
    },
    {
      "channel": 0,
      "note": 69,
      "start": 36.6127,
      "duration": 0.0247,
      "velocity": 83,
      "chip": "ym2612"
    },
    {
      "channel": 0,
      "note": 50,
      "start": 36.638,
      "duration": 0.0917,
      "velocity": 83,
      "chip": "ym2612"
    },
    {
      "channel": 3,
      "note": 85,
      "start": 36.6393,
      "duration": 0.2636,
      "velocity": 95,
      "chip": "ym2612"
    },
    {
      "channel": 4,
      "note": 85,
      "start": 36.6401,
      "duration": 0.2636,
      "velocity": 93,
      "chip": "ym2612"
    },
    {
      "channel": 0,
      "note": 62,
      "start": 36.7303,
      "duration": 0.0996,
      "velocity": 83,
      "chip": "ym2612"
    },
    {
      "channel": 1,
      "note": 64,
      "start": 36.8308,
      "duration": 0.036,
      "velocity": 92,
      "chip": "ym2612"
    },
    {
      "channel": 2,
      "note": 73,
      "start": 36.8316,
      "duration": 0.0356,
      "velocity": 92,
      "chip": "ym2612"
    },
    {
      "channel": 0,
      "note": 61,
      "start": 36.8756,
      "duration": 0.0258,
      "velocity": 83,
      "chip": "ym2612"
    },
    {
      "channel": 0,
      "note": 50,
      "start": 36.902,
      "duration": 0.0718,
      "velocity": 83,
      "chip": "ym2612"
    },
    {
      "channel": 2,
      "note": 38,
      "start": 36.9028,
      "duration": 0.022,
      "velocity": 92,
      "chip": "ym2612"
    },
    {
      "channel": 3,
      "note": 83,
      "start": 36.9035,
      "duration": 0.0716,
      "velocity": 95,
      "chip": "ym2612"
    },
    {
      "channel": 4,
      "note": 83,
      "start": 36.9043,
      "duration": 0.0716,
      "velocity": 93,
      "chip": "ym2612"
    },
    {
      "channel": 1,
      "note": 64,
      "start": 36.9463,
      "duration": 0.0282,
      "velocity": 92,
      "chip": "ym2612"
    },
    {
      "channel": 2,
      "note": 69,
      "start": 36.9471,
      "duration": 0.0278,
      "velocity": 92,
      "chip": "ym2612"
    },
    {
      "channel": 0,
      "note": 61,
      "start": 36.9745,
      "duration": 0.1353,
      "velocity": 83,
      "chip": "ym2612"
    },
    {
      "channel": 3,
      "note": 81,
      "start": 36.9758,
      "duration": 0.1861,
      "velocity": 95,
      "chip": "ym2612"
    },
    {
      "channel": 4,
      "note": 81,
      "start": 36.9766,
      "duration": 0.1261,
      "velocity": 93,
      "chip": "ym2612"
    },
    {
      "channel": 0,
      "note": 62,
      "start": 37.1104,
      "duration": 0.0497,
      "velocity": 83,
      "chip": "ym2612"
    },
    {
      "channel": 1,
      "note": 64,
      "start": 37.161,
      "duration": 0.058,
      "velocity": 92,
      "chip": "ym2612"
    },
    {
      "channel": 2,
      "note": 69,
      "start": 37.1618,
      "duration": 0.0576,
      "velocity": 92,
      "chip": "ym2612"
    },
    {
      "channel": 0,
      "note": 50,
      "start": 37.3532,
      "duration": 0.192,
      "velocity": 83,
      "chip": "ym2612"
    },
    {
      "channel": 3,
      "note": 83,
      "start": 37.354,
      "duration": 0.1924,
      "velocity": 95,
      "chip": "ym2612"
    },
    {
      "channel": 4,
      "note": 83,
      "start": 37.3548,
      "duration": 0.0577,
      "velocity": 93,
      "chip": "ym2612"
    },
    {
      "channel": 1,
      "note": 64,
      "start": 37.4459,
      "duration": 0.1,
      "velocity": 92,
      "chip": "ym2612"
    },
    {
      "channel": 2,
      "note": 69,
      "start": 37.4466,
      "duration": 0.0996,
      "velocity": 92,
      "chip": "ym2612"
    },
    {
      "channel": 0,
      "note": 62,
      "start": 37.5457,
      "duration": 0.0587,
      "velocity": 83,
      "chip": "ym2612"
    },
    {
      "channel": 0,
      "note": 49,
      "start": 37.605,
      "duration": 0.0785,
      "velocity": 83,
      "chip": "ym2612"
    },
    {
      "channel": 1,
      "note": 66,
      "start": 37.6057,
      "duration": 0.0781,
      "velocity": 92,
      "chip": "ym2612"
    },
    {
      "channel": 2,
      "note": 71,
      "start": 37.6064,
      "duration": 0.0777,
      "velocity": 92,
      "chip": "ym2612"
    },
    {
      "channel": 3,
      "note": 85,
      "start": 37.6072,
      "duration": 0.5373,
      "velocity": 95,
      "chip": "ym2612"
    },
    {
      "channel": 4,
      "note": 85,
      "start": 37.608,
      "duration": 0.3577,
      "velocity": 101,
      "chip": "ym2612"
    },
    {
      "channel": 0,
      "note": 49,
      "start": 37.876,
      "duration": 0.0827,
      "velocity": 83,
      "chip": "ym2612"
    },
    {
      "channel": 1,
      "note": 66,
      "start": 37.8767,
      "duration": 0.0849,
      "velocity": 99,
      "chip": "ym2612"
    },
    {
      "channel": 2,
      "note": 71,
      "start": 37.8774,
      "duration": 0.1317,
      "velocity": 92,
      "chip": "ym2612"
    },
    {
      "channel": 1,
      "note": 44,
      "start": 37.9622,
      "duration": 0.0807,
      "velocity": 99,
      "chip": "ym2612"
    },
    {
      "channel": 4,
      "note": 56,
      "start": 37.9662,
      "duration": 0.0774,
      "velocity": 101,
      "chip": "ym2612"
    },
    {
      "channel": 0,
      "note": 73,
      "start": 38.0427,
      "duration": 0.0997,
      "velocity": 83,
      "chip": "ym2612"
    },
    {
      "channel": 0,
      "note": 50,
      "start": 38.1429,
      "duration": 0.0239,
      "velocity": 83,
      "chip": "ym2612"
    },
    {
      "channel": 1,
      "note": 71,
      "start": 38.1437,
      "duration": 0.045,
      "velocity": 99,
      "chip": "ym2612"
    },
    {
      "channel": 2,
      "note": 56,
      "start": 38.1444,
      "duration": 0.023,
      "velocity": 92,
      "chip": "ym2612"
    },
    {
      "channel": 3,
      "note": 86,
      "start": 38.1451,
      "duration": 0.07,
      "velocity": 95,
      "chip": "ym2612"
    },
    {
      "channel": 4,
      "note": 83,
      "start": 38.1459,
      "duration": 0.0442,
      "velocity": 101,
      "chip": "ym2612"
    },
    {
      "channel": 0,
      "note": 71,
      "start": 38.1886,
      "duration": 0.0244,
      "velocity": 83,
      "chip": "ym2612"
    },
    {
      "channel": 2,
      "note": 71,
      "start": 38.1896,
      "duration": 0.0249,
      "velocity": 92,
      "chip": "ym2612"
    },
    {
      "channel": 0,
      "note": 73,
      "start": 38.2136,
      "duration": 0.138,
      "velocity": 83,
      "chip": "ym2612"
    },
    {
      "channel": 1,
      "note": 71,
      "start": 38.2143,
      "duration": 0.1377,
      "velocity": 99,
      "chip": "ym2612"
    },
    {
      "channel": 2,
      "note": 56,
      "start": 38.215,
      "duration": 0.0779,
      "velocity": 92,
      "chip": "ym2612"
    },
    {
      "channel": 3,
      "note": 83,
      "start": 38.2157,
      "duration": 0.572,
      "velocity": 95,
      "chip": "ym2612"
    },
    {
      "channel": 4,
      "note": 83,
      "start": 38.2165,
      "duration": 0.1389,
      "velocity": 93,
      "chip": "ym2612"
    },
    {
      "channel": 4,
      "note": 83,
      "start": 38.356,
      "duration": 0.5789,
      "velocity": 93,
      "chip": "ym2612"
    },
    {
      "channel": 0,
      "note": 49,
      "start": 38.4017,
      "duration": 0.0917,
      "velocity": 83,
      "chip": "ym2612"
    },
    {
      "channel": 1,
      "note": 65,
      "start": 38.405,
      "duration": 0.0554,
      "velocity": 92,
      "chip": "ym2612"
    },
    {
      "channel": 2,
      "note": 76,
      "start": 38.4057,
      "duration": 0.055,
      "velocity": 92,
      "chip": "ym2612"
    },
    {
      "channel": 0,
      "note": 73,
      "start": 38.494,
      "duration": 0.0996,
      "velocity": 83,
      "chip": "ym2612"
    },
    {
      "channel": 0,
      "note": 49,
      "start": 38.5942,
      "duration": 0.0917,
      "velocity": 83,
      "chip": "ym2612"
    },
    {
      "channel": 1,
      "note": 65,
      "start": 38.6868,
      "duration": 0.1488,
      "velocity": 92,
      "chip": "ym2612"
    },
    {
      "channel": 2,
      "note": 76,
      "start": 38.6876,
      "duration": 0.1484,
      "velocity": 92,
      "chip": "ym2612"
    },
    {
      "channel": 0,
      "note": 49,
      "start": 38.7868,
      "duration": 0.0486,
      "velocity": 83,
      "chip": "ym2612"
    },
    {
      "channel": 3,
      "note": 81,
      "start": 38.7883,
      "duration": 0.0737,
      "velocity": 95,
      "chip": "ym2612"
    },
    {
      "channel": 0,
      "note": 49,
      "start": 38.8604,
      "duration": 0.0454,
      "velocity": 83,
      "chip": "ym2612"
    },
    {
      "channel": 1,
      "note": 65,
      "start": 38.8611,
      "duration": 0.0232,
      "velocity": 92,
      "chip": "ym2612"
    },
    {
      "channel": 2,
      "note": 74,
      "start": 38.8618,
      "duration": 0.0228,
      "velocity": 92,
      "chip": "ym2612"
    },
    {
      "channel": 3,
      "note": 80,
      "start": 38.8626,
      "duration": 0.0715,
      "velocity": 95,
      "chip": "ym2612"
    },
    {
      "channel": 0,
      "note": 68,
      "start": 38.9064,
      "duration": 0.0263,
      "velocity": 83,
      "chip": "ym2612"
    },
    {
      "channel": 2,
      "note": 54,
      "start": 38.9072,
      "duration": 0.0266,
      "velocity": 92,
      "chip": "ym2612"
    },
    {
      "channel": 0,
      "note": 54,
      "start": 38.9333,
      "duration": 0.0914,
      "velocity": 83,
      "chip": "ym2612"
    },
    {
      "channel": 3,
      "note": 92,
      "start": 38.9347,
      "duration": 0.5223,
      "velocity": 95,
      "chip": "ym2612"
    },
    {
      "channel": 4,
      "note": 81,
      "start": 38.9446,
      "duration": 0.0119,
      "velocity": 93,
      "chip": "ym2612"
    },
    {
      "channel": 4,
      "note": 83,
      "start": 38.9571,
      "duration": 0.0353,
      "velocity": 93,
      "chip": "ym2612"
    },
    {
      "channel": 4,
      "note": 85,
      "start": 38.993,
      "duration": 0.2051,
      "velocity": 93,
      "chip": "ym2612"
    },
    {
      "channel": 1,
      "note": 64,
      "start": 39.1256,
      "duration": 0.0224,
      "velocity": 92,
      "chip": "ym2612"
    },
    {
      "channel": 2,
      "note": 69,
      "start": 39.1263,
      "duration": 0.0219,
      "velocity": 92,
      "chip": "ym2612"
    },
    {
      "channel": 0,
      "note": 66,
      "start": 39.1686,
      "duration": 0.0279,
      "velocity": 83,
      "chip": "ym2612"
    },
    {
      "channel": 2,
      "note": 54,
      "start": 39.1975,
      "duration": 0.0209,
      "velocity": 92,
      "chip": "ym2612"
    },
    {
      "channel": 4,
      "note": 83,
      "start": 39.1986,
      "duration": 0.0673,
      "velocity": 93,
      "chip": "ym2612"
    },
    {
      "channel": 1,
      "note": 64,
      "start": 39.2383,
      "duration": 0.0265,
      "velocity": 92,
      "chip": "ym2612"
    },
    {
      "channel": 2,
      "note": 88,
      "start": 39.239,
      "duration": 0.0261,
      "velocity": 92,
      "chip": "ym2612"
    },
    {
      "channel": 0,
      "note": 54,
      "start": 39.2647,
      "duration": 0.1401,
      "velocity": 83,
      "chip": "ym2612"
    },
    {
      "channel": 4,
      "note": 81,
      "start": 39.2665,
      "duration": 0.1312,
      "velocity": 93,
      "chip": "ym2612"
    },
    {
      "channel": 0,
      "note": 64,
      "start": 39.4054,
      "duration": 0.0498,
      "velocity": 83,
      "chip": "ym2612"
    },
    {
      "channel": 1,
      "note": 54,
      "start": 39.4062,
      "duration": 0.0494,
      "velocity": 92,
      "chip": "ym2612"
    },
    {
      "channel": 2,
      "note": 85,
      "start": 39.4069,
      "duration": 0.0494,
      "velocity": 92,
      "chip": "ym2612"
    },
    {
      "channel": 1,
      "note": 64,
      "start": 39.4561,
      "duration": 0.058,
      "velocity": 92,
      "chip": "ym2612"
    },
    {
      "channel": 2,
      "note": 69,
      "start": 39.4569,
      "duration": 0.0576,
      "velocity": 92,
      "chip": "ym2612"
    },
    {
      "channel": 3,
      "note": 88,
      "start": 39.4576,
      "duration": 0.4529,
      "velocity": 95,
      "chip": "ym2612"
    },
    {
      "channel": 0,
      "note": 64,
      "start": 39.5481,
      "duration": 0.0996,
      "velocity": 83,
      "chip": "ym2612"
    },
    {
      "channel": 1,
      "note": 78,
      "start": 39.5488,
      "duration": 0.111,
      "velocity": 92,
      "chip": "ym2612"
    },
    {
      "channel": 2,
      "note": 83,
      "start": 39.5495,
      "duration": 0.1105,
      "velocity": 92,
      "chip": "ym2612"
    },
    {
      "channel": 0,
      "note": 66,
      "start": 39.6483,
      "duration": 0.0238,
      "velocity": 83,
      "chip": "ym2612"
    },
    {
      "channel": 4,
      "note": 83,
      "start": 39.6502,
      "duration": 0.0571,
      "velocity": 93,
      "chip": "ym2612"
    },
    {
      "channel": 1,
      "note": 64,
      "start": 39.7407,
      "duration": 0.1003,
      "velocity": 92,
      "chip": "ym2612"
    },
    {
      "channel": 2,
      "note": 81,
      "start": 39.7414,
      "duration": 0.0999,
      "velocity": 92,
      "chip": "ym2612"
    },
    {
      "channel": 0,
      "note": 64,
      "start": 39.8408,
      "duration": 0.0421,
      "velocity": 83,
      "chip": "ym2612"
    },
    {
      "channel": 2,
      "note": 52,
      "start": 39.8418,
      "duration": 0.0679,
      "velocity": 92,
      "chip": "ym2612"
    },
    {
      "channel": 0,
      "note": 45,
      "start": 39.8835,
      "duration": 0.0248,
      "velocity": 83,
      "chip": "ym2612"
    },
    {
      "channel": 0,
      "note": 57,
      "start": 39.909,
      "duration": 0.1054,
      "velocity": 83,
      "chip": "ym2612"
    },
    {
      "channel": 1,
      "note": 62,
      "start": 39.9096,
      "duration": 0.2704,
      "velocity": 92,
      "chip": "ym2612"
    },
    {
      "channel": 2,
      "note": 71,
      "start": 39.9103,
      "duration": 0.2704,
      "velocity": 92,
      "chip": "ym2612"
    },
    {
      "channel": 3,
      "note": 85,
      "start": 39.9111,
      "duration": 1.3295,
      "velocity": 93,
      "chip": "ym2612"
    },
    {
      "channel": 4,
      "note": 85,
      "start": 39.9119,
      "duration": 1.329,
      "velocity": 93,
      "chip": "ym2612"
    },
    {
      "channel": 0,
      "note": 57,
      "start": 40.1798,
      "duration": 0.1661,
      "velocity": 83,
      "chip": "ym2612"
    },
    {
      "channel": 1,
      "note": 62,
      "start": 40.1806,
      "duration": 0.0823,
      "velocity": 92,
      "chip": "ym2612"
    },
    {
      "channel": 2,
      "note": 69,
      "start": 40.1813,
      "duration": 0.0819,
      "velocity": 92,
      "chip": "ym2612"
    },
    {
      "channel": 0,
      "note": 45,
      "start": 40.3465,
      "duration": 0.0997,
      "velocity": 83,
      "chip": "ym2612"
    },
    {
      "channel": 0,
      "note": 59,
      "start": 40.4468,
      "duration": 0.0415,
      "velocity": 83,
      "chip": "ym2612"
    },
    {
      "channel": 1,
      "note": 62,
      "start": 40.4893,
      "duration": 0.0266,
      "velocity": 92,
      "chip": "ym2612"
    },
    {
      "channel": 2,
      "note": 69,
      "start": 40.49,
      "duration": 0.0263,
      "velocity": 92,
      "chip": "ym2612"
    },
    {
      "channel": 0,
      "note": 59,
      "start": 40.5158,
      "duration": 0.1392,
      "velocity": 83,
      "chip": "ym2612"
    },
    {
      "channel": 0,
      "note": 47,
      "start": 40.6556,
      "duration": 0.0494,
      "velocity": 83,
      "chip": "ym2612"
    },
    {
      "channel": 2,
      "note": 55,
      "start": 40.6564,
      "duration": 0.05,
      "velocity": 92,
      "chip": "ym2612"
    },
    {
      "channel": 0,
      "note": 61,
      "start": 40.7056,
      "duration": 0.192,
      "velocity": 83,
      "chip": "ym2612"
    },
    {
      "channel": 1,
      "note": 67,
      "start": 40.7063,
      "duration": 0.058,
      "velocity": 92,
      "chip": "ym2612"
    },
    {
      "channel": 2,
      "note": 78,
      "start": 40.707,
      "duration": 0.0576,
      "velocity": 92,
      "chip": "ym2612"
    },
    {
      "channel": 0,
      "note": 61,
      "start": 40.8981,
      "duration": 0.192,
      "velocity": 83,
      "chip": "ym2612"
    },
    {
      "channel": 1,
      "note": 67,
      "start": 40.8988,
      "duration": 0.058,
      "velocity": 92,
      "chip": "ym2612"
    },
    {
      "channel": 2,
      "note": 76,
      "start": 40.8996,
      "duration": 0.0576,
      "velocity": 92,
      "chip": "ym2612"
    },
    {
      "channel": 2,
      "note": 57,
      "start": 40.9909,
      "duration": 0.1006,
      "velocity": 92,
      "chip": "ym2612"
    },
    {
      "channel": 0,
      "note": 57,
      "start": 41.0906,
      "duration": 0.0733,
      "velocity": 83,
      "chip": "ym2612"
    },
    {
      "channel": 1,
      "note": 72,
      "start": 41.0914,
      "duration": 0.0232,
      "velocity": 92,
      "chip": "ym2612"
    },
    {
      "channel": 2,
      "note": 73,
      "start": 41.0921,
      "duration": 0.0373,
      "velocity": 92,
      "chip": "ym2612"
    },
    {
      "channel": 0,
      "note": 57,
      "start": 41.1645,
      "duration": 0.072,
      "velocity": 83,
      "chip": "ym2612"
    },
    {
      "channel": 2,
      "note": 71,
      "start": 41.1653,
      "duration": 0.0356,
      "velocity": 92,
      "chip": "ym2612"
    },
    {
      "channel": 2,
      "note": 69,
      "start": 41.2102,
      "duration": 0.0273,
      "velocity": 92,
      "chip": "ym2612"
    },
    {
      "channel": 0,
      "note": 50,
      "start": 41.2371,
      "duration": 0.1919,
      "velocity": 83,
      "chip": "ym2612"
    },
    {
      "channel": 3,
      "note": 76,
      "start": 41.2965,
      "duration": 0.1346,
      "velocity": 93,
      "chip": "ym2612"
    },
    {
      "channel": 4,
      "note": 81,
      "start": 41.2973,
      "duration": 0.1341,
      "velocity": 93,
      "chip": "ym2612"
    },
    {
      "channel": 0,
      "note": 50,
      "start": 41.4295,
      "duration": 0.021,
      "velocity": 83,
      "chip": "ym2612"
    },
    {
      "channel": 1,
      "note": 64,
      "start": 41.4303,
      "duration": 0.032,
      "velocity": 92,
      "chip": "ym2612"
    },
    {
      "channel": 2,
      "note": 73,
      "start": 41.431,
      "duration": 0.0316,
      "velocity": 92,
      "chip": "ym2612"
    },
    {
      "channel": 0,
      "note": 62,
      "start": 41.4699,
      "duration": 0.0219,
      "velocity": 83,
      "chip": "ym2612"
    },
    {
      "channel": 2,
      "note": 38,
      "start": 41.4927,
      "duration": 0.0328,
      "velocity": 92,
      "chip": "ym2612"
    },
    {
      "channel": 3,
      "note": 76,
      "start": 41.4934,
      "duration": 0.199,
      "velocity": 93,
      "chip": "ym2612"
    },
    {
      "channel": 4,
      "note": 81,
      "start": 41.4942,
      "duration": 0.1988,
      "velocity": 93,
      "chip": "ym2612"
    },
    {
      "channel": 1,
      "note": 64,
      "start": 41.534,
      "duration": 0.0267,
      "velocity": 92,
      "chip": "ym2612"
    },
    {
      "channel": 2,
      "note": 69,
      "start": 41.5347,
      "duration": 0.0262,
      "velocity": 92,
      "chip": "ym2612"
    },
    {
      "channel": 0,
      "note": 49,
      "start": 41.5605,
      "duration": 0.0815,
      "velocity": 83,
      "chip": "ym2612"
    },
    {
      "channel": 3,
      "note": 76,
      "start": 41.6929,
      "duration": 0.0596,
      "velocity": 93,
      "chip": "ym2612"
    },
    {
      "channel": 4,
      "note": 81,
      "start": 41.6934,
      "duration": 0.0593,
      "velocity": 93,
      "chip": "ym2612"
    },
    {
      "channel": 0,
      "note": 61,
      "start": 41.7007,
      "duration": 0.0499,
      "velocity": 83,
      "chip": "ym2612"
    },
    {
      "channel": 1,
      "note": 64,
      "start": 41.7515,
      "duration": 0.058,
      "velocity": 92,
      "chip": "ym2612"
    },
    {
      "channel": 2,
      "note": 69,
      "start": 41.7523,
      "duration": 0.0576,
      "velocity": 92,
      "chip": "ym2612"
    },
    {
      "channel": 0,
      "note": 61,
      "start": 41.8434,
      "duration": 0.0997,
      "velocity": 83,
      "chip": "ym2612"
    },
    {
      "channel": 0,
      "note": 49,
      "start": 41.9437,
      "duration": 0.1919,
      "velocity": 83,
      "chip": "ym2612"
    },
    {
      "channel": 1,
      "note": 64,
      "start": 42.0363,
      "duration": 0.1,
      "velocity": 92,
      "chip": "ym2612"
    },
    {
      "channel": 2,
      "note": 69,
      "start": 42.0371,
      "duration": 0.0996,
      "velocity": 92,
      "chip": "ym2612"
    },
    {
      "channel": 0,
      "note": 49,
      "start": 42.1362,
      "duration": 0.0577,
      "velocity": 83,
      "chip": "ym2612"
    },
    {
      "channel": 0,
      "note": 47,
      "start": 42.1945,
      "duration": 0.0813,
      "velocity": 83,
      "chip": "ym2612"
    },
    {
      "channel": 1,
      "note": 62,
      "start": 42.3457,
      "duration": 0.1003,
      "velocity": 92,
      "chip": "ym2612"
    },
    {
      "channel": 2,
      "note": 69,
      "start": 42.3464,
      "duration": 0.0999,
      "velocity": 92,
      "chip": "ym2612"
    },
    {
      "channel": 0,
      "note": 47,
      "start": 42.4458,
      "duration": 0.0178,
      "velocity": 83,
      "chip": "ym2612"
    },
    {
      "channel": 0,
      "note": 59,
      "start": 42.4805,
      "duration": 0.0419,
      "velocity": 83,
      "chip": "ym2612"
    },
    {
      "channel": 1,
      "note": 62,
      "start": 42.5233,
      "duration": 0.0665,
      "velocity": 92,
      "chip": "ym2612"
    },
    {
      "channel": 2,
      "note": 69,
      "start": 42.524,
      "duration": 0.0661,
      "velocity": 92,
      "chip": "ym2612"
    },
    {
      "channel": 0,
      "note": 52,
      "start": 42.5896,
      "duration": 0.14,
      "velocity": 83,
      "chip": "ym2612"
    },
    {
      "channel": 0,
      "note": 64,
      "start": 42.7303,
      "duration": 0.0508,
      "velocity": 83,
      "chip": "ym2612"
    },
    {
      "channel": 1,
      "note": 62,
      "start": 42.731,
      "duration": 0.0504,
      "velocity": 92,
      "chip": "ym2612"
    },
    {
      "channel": 2,
      "note": 69,
      "start": 42.7318,
      "duration": 0.0499,
      "velocity": 92,
      "chip": "ym2612"
    },
    {
      "channel": 0,
      "note": 64,
      "start": 42.8473,
      "duration": 0.0208,
      "velocity": 83,
      "chip": "ym2612"
    },
    {
      "channel": 0,
      "note": 52,
      "start": 42.8686,
      "duration": 0.1919,
      "velocity": 83,
      "chip": "ym2612"
    },
    {
      "channel": 1,
      "note": 62,
      "start": 42.8693,
      "duration": 0.1919,
      "velocity": 92,
      "chip": "ym2612"
    },
    {
      "channel": 2,
      "note": 69,
      "start": 42.8701,
      "duration": 0.1914,
      "velocity": 92,
      "chip": "ym2612"
    },
    {
      "channel": 3,
      "note": 90,
      "start": 42.8909,
      "duration": 0.0372,
      "velocity": 101,
      "chip": "ym2612"
    },
    {
      "channel": 3,
      "note": 88,
      "start": 42.9287,
      "duration": 0.0328,
      "velocity": 101,
      "chip": "ym2612"
    },
    {
      "channel": 3,
      "note": 86,
      "start": 42.962,
      "duration": 0.0494,
      "velocity": 101,
      "chip": "ym2612"
    },
    {
      "channel": 3,
      "note": 85,
      "start": 43.012,
      "duration": 0.0498,
      "velocity": 101,
      "chip": "ym2612"
    },
    {
      "channel": 0,
      "note": 52,
      "start": 43.061,
      "duration": 0.0675,
      "velocity": 83,
      "chip": "ym2612"
    },
    {
      "channel": 3,
      "note": 83,
      "start": 43.0624,
      "duration": 0.0075,
      "velocity": 101,
      "chip": "ym2612"
    },
    {
      "channel": 3,
      "note": 81,
      "start": 43.0704,
      "duration": 0.0109,
      "velocity": 101,
      "chip": "ym2612"
    },
    {
      "channel": 3,
      "note": 80,
      "start": 43.0819,
      "duration": 0.0115,
      "velocity": 101,
      "chip": "ym2612"
    },
    {
      "channel": 3,
      "note": 78,
      "start": 43.094,
      "duration": 0.009,
      "velocity": 101,
      "chip": "ym2612"
    },
    {
      "channel": 1,
      "note": 62,
      "start": 43.1021,
      "duration": 0.0272,
      "velocity": 92,
      "chip": "ym2612"
    },
    {
      "channel": 2,
      "note": 69,
      "start": 43.1028,
      "duration": 0.0267,
      "velocity": 92,
      "chip": "ym2612"
    },
    {
      "channel": 3,
      "note": 76,
      "start": 43.1036,
      "duration": 0.0128,
      "velocity": 101,
      "chip": "ym2612"
    },
    {
      "channel": 3,
      "note": 74,
      "start": 43.117,
      "duration": 0.0128,
      "velocity": 101,
      "chip": "ym2612"
    },
    {
      "channel": 0,
      "note": 52,
      "start": 43.1291,
      "duration": 0.0352,
      "velocity": 83,
      "chip": "ym2612"
    },
    {
      "channel": 3,
      "note": 73,
      "start": 43.1305,
      "duration": 0.0077,
      "velocity": 101,
      "chip": "ym2612"
    },
    {
      "channel": 3,
      "note": 71,
      "start": 43.1387,
      "duration": 0.0111,
      "velocity": 101,
      "chip": "ym2612"
    },
    {
      "channel": 3,
      "note": 69,
      "start": 43.1503,
      "duration": 0.0148,
      "velocity": 101,
      "chip": "ym2612"
    },
    {
      "channel": 0,
      "note": 64,
      "start": 43.1649,
      "duration": 0.032,
      "velocity": 83,
      "chip": "ym2612"
    },
    {
      "channel": 3,
      "note": 68,
      "start": 43.1658,
      "duration": 0.0074,
      "velocity": 101,
      "chip": "ym2612"
    },
    {
      "channel": 3,
      "note": 66,
      "start": 43.1737,
      "duration": 0.0111,
      "velocity": 101,
      "chip": "ym2612"
    },
    {
      "channel": 3,
      "note": 64,
      "start": 43.1854,
      "duration": 0.0192,
      "velocity": 101,
      "chip": "ym2612"
    },
    {
      "channel": 0,
      "note": 54,
      "start": 43.1975,
      "duration": 0.0914,
      "velocity": 83,
      "chip": "ym2612"
    },
    {
      "channel": 1,
      "note": 80,
      "start": 43.2008,
      "duration": 0.2097,
      "velocity": 99,
      "chip": "ym2612"
    },
    {
      "channel": 3,
      "note": 83,
      "start": 43.2051,
      "duration": 0.2065,
      "velocity": 101,
      "chip": "ym2612"
    },
    {
      "channel": 2,
      "note": 69,
      "start": 43.3902,
      "duration": 0.0211,
      "velocity": 92,
      "chip": "ym2612"
    },
    {
      "channel": 1,
      "note": 69,
      "start": 43.4112,
      "duration": 0.0198,
      "velocity": 99,
      "chip": "ym2612"
    },
    {
      "channel": 3,
      "note": 76,
      "start": 43.4122,
      "duration": 0.0191,
      "velocity": 101,
      "chip": "ym2612"
    },
    {
      "channel": 0,
      "note": 66,
      "start": 43.4307,
      "duration": 0.0217,
      "velocity": 83,
      "chip": "ym2612"
    },
    {
      "channel": 1,
      "note": 45,
      "start": 43.4534,
      "duration": 0.0188,
      "velocity": 99,
      "chip": "ym2612"
    },
    {
      "channel": 2,
      "note": 54,
      "start": 43.4541,
      "duration": 0.0184,
      "velocity": 92,
      "chip": "ym2612"
    },
    {
      "channel": 0,
      "note": 66,
      "start": 43.4893,
      "duration": 0.0298,
      "velocity": 83,
      "chip": "ym2612"
    },
    {
      "channel": 1,
      "note": 69,
      "start": 43.4899,
      "duration": 0.0299,
      "velocity": 99,
      "chip": "ym2612"
    },
    {
      "channel": 2,
      "note": 69,
      "start": 43.4906,
      "duration": 0.0294,
      "velocity": 92,
      "chip": "ym2612"
    },
    {
      "channel": 3,
      "note": 76,
      "start": 43.4914,
      "duration": 0.029,
      "velocity": 101,
      "chip": "ym2612"
    },
    {
      "channel": 0,
      "note": 64,
      "start": 43.5196,
      "duration": 0.1402,
      "velocity": 83,
      "chip": "ym2612"
    },
    {
      "channel": 0,
      "note": 66,
      "start": 43.6604,
      "duration": 0.0508,
      "velocity": 83,
      "chip": "ym2612"
    },
    {
      "channel": 1,
      "note": 69,
      "start": 43.6611,
      "duration": 0.0529,
      "velocity": 92,
      "chip": "ym2612"
    },
    {
      "channel": 2,
      "note": 54,
      "start": 43.6618,
      "duration": 0.0529,
      "velocity": 92,
      "chip": "ym2612"
    },
    {
      "channel": 3,
      "note": 76,
      "start": 43.6626,
      "duration": 0.0555,
      "velocity": 93,
      "chip": "ym2612"
    },
    {
      "channel": 1,
      "note": 64,
      "start": 43.7146,
      "duration": 0.0556,
      "velocity": 92,
      "chip": "ym2612"
    },
    {
      "channel": 2,
      "note": 69,
      "start": 43.7154,
      "duration": 0.0551,
      "velocity": 92,
      "chip": "ym2612"
    },
    {
      "channel": 3,
      "note": 76,
      "start": 43.8043,
      "duration": 0.1002,
      "velocity": 93,
      "chip": "ym2612"
    },
    {
      "channel": 4,
      "note": 81,
      "start": 43.805,
      "duration": 0.1002,
      "velocity": 93,
      "chip": "ym2612"
    },
    {
      "channel": 0,
      "note": 52,
      "start": 43.9043,
      "duration": 0.1919,
      "velocity": 83,
      "chip": "ym2612"
    },
    {
      "channel": 3,
      "note": 78,
      "start": 43.9051,
      "duration": 0.0927,
      "velocity": 93,
      "chip": "ym2612"
    },
    {
      "channel": 4,
      "note": 78,
      "start": 43.9059,
      "duration": 0.0926,
      "velocity": 93,
      "chip": "ym2612"
    },
    {
      "channel": 1,
      "note": 64,
      "start": 43.9969,
      "duration": 0.1,
      "velocity": 92,
      "chip": "ym2612"
    },
    {
      "channel": 2,
      "note": 69,
      "start": 43.9976,
      "duration": 0.0996,
      "velocity": 92,
      "chip": "ym2612"
    },
    {
      "channel": 3,
      "note": 81,
      "start": 43.9984,
      "duration": 0.1213,
      "velocity": 93,
      "chip": "ym2612"
    },
    {
      "channel": 4,
      "note": 81,
      "start": 43.9992,
      "duration": 0.1208,
      "velocity": 93,
      "chip": "ym2612"
    },
    {
      "channel": 0,
      "note": 54,
      "start": 44.0968,
      "duration": 0.0672,
      "velocity": 83,
      "chip": "ym2612"
    },
    {
      "channel": 2,
      "note": 52,
      "start": 44.0978,
      "duration": 0.0677,
      "velocity": 92,
      "chip": "ym2612"
    },
    {
      "channel": 0,
      "note": 54,
      "start": 44.1646,
      "duration": 0.0417,
      "velocity": 83,
      "chip": "ym2612"
    },
    {
      "channel": 1,
      "note": 62,
      "start": 44.1653,
      "duration": 0.2588,
      "velocity": 92,
      "chip": "ym2612"
    },
    {
      "channel": 2,
      "note": 71,
      "start": 44.166,
      "duration": 0.2588,
      "velocity": 92,
      "chip": "ym2612"
    },
    {
      "channel": 0,
      "note": 64,
      "start": 44.2068,
      "duration": 0.0247,
      "velocity": 83,
      "chip": "ym2612"
    },
    {
      "channel": 0,
      "note": 57,
      "start": 44.2321,
      "duration": 0.0917,
      "velocity": 83,
      "chip": "ym2612"
    },
    {
      "channel": 0,
      "note": 69,
      "start": 44.3244,
      "duration": 0.0993,
      "velocity": 83,
      "chip": "ym2612"
    },
    {
      "channel": 1,
      "note": 67,
      "start": 44.4247,
      "duration": 0.0825,
      "velocity": 92,
      "chip": "ym2612"
    },
    {
      "channel": 2,
      "note": 69,
      "start": 44.4254,
      "duration": 0.0821,
      "velocity": 92,
      "chip": "ym2612"
    },
    {
      "channel": 0,
      "note": 67,
      "start": 44.5911,
      "duration": 0.0996,
      "velocity": 83,
      "chip": "ym2612"
    },
    {
      "channel": 0,
      "note": 57,
      "start": 44.6913,
      "duration": 0.0464,
      "velocity": 83,
      "chip": "ym2612"
    },
    {
      "channel": 1,
      "note": 69,
      "start": 44.6946,
      "duration": 0.0434,
      "velocity": 99,
      "chip": "ym2612"
    },
    {
      "channel": 2,
      "note": 57,
      "start": 44.6953,
      "duration": 0.0345,
      "velocity": 92,
      "chip": "ym2612"
    },
    {
      "channel": 3,
      "note": 74,
      "start": 44.696,
      "duration": 0.043,
      "velocity": 101,
      "chip": "ym2612"
    },
    {
      "channel": 2,
      "note": 69,
      "start": 44.7389,
      "duration": 0.0218,
      "velocity": 92,
      "chip": "ym2612"
    },
    {
      "channel": 0,
      "note": 57,
      "start": 44.7598,
      "duration": 0.1396,
      "velocity": 83,
      "chip": "ym2612"
    },
    {
      "channel": 1,
      "note": 69,
      "start": 44.7605,
      "duration": 0.1397,
      "velocity": 99,
      "chip": "ym2612"
    },
    {
      "channel": 3,
      "note": 74,
      "start": 44.7615,
      "duration": 0.1397,
      "velocity": 101,
      "chip": "ym2612"
    },
    {
      "channel": 0,
      "note": 69,
      "start": 44.9001,
      "duration": 0.0495,
      "velocity": 83,
      "chip": "ym2612"
    },
    {
      "channel": 2,
      "note": 55,
      "start": 44.9011,
      "duration": 0.0495,
      "velocity": 92,
      "chip": "ym2612"
    },
    {
      "channel": 1,
      "note": 45,
      "start": 44.9504,
      "duration": 0.0193,
      "velocity": 99,
      "chip": "ym2612"
    },
    {
      "channel": 2,
      "note": 69,
      "start": 44.9512,
      "duration": 0.0574,
      "velocity": 92,
      "chip": "ym2612"
    },
    {
      "channel": 1,
      "note": 69,
      "start": 45.0424,
      "duration": 0.1003,
      "velocity": 99,
      "chip": "ym2612"
    },
    {
      "channel": 3,
      "note": 76,
      "start": 45.0432,
      "duration": 0.0999,
      "velocity": 101,
      "chip": "ym2612"
    },
    {
      "channel": 4,
      "note": 81,
      "start": 45.044,
      "duration": 0.1192,
      "velocity": 93,
      "chip": "ym2612"
    },
    {
      "channel": 0,
      "note": 57,
      "start": 45.1426,
      "duration": 0.192,
      "velocity": 83,
      "chip": "ym2612"
    },
    {
      "channel": 1,
      "note": 69,
      "start": 45.2353,
      "duration": 0.1,
      "velocity": 99,
      "chip": "ym2612"
    },
    {
      "channel": 2,
      "note": 69,
      "start": 45.236,
      "duration": 0.1077,
      "velocity": 92,
      "chip": "ym2612"
    },
    {
      "channel": 3,
      "note": 76,
      "start": 45.2368,
      "duration": 0.0992,
      "velocity": 101,
      "chip": "ym2612"
    },
    {
      "channel": 0,
      "note": 69,
      "start": 45.3351,
      "duration": 0.059,
      "velocity": 83,
      "chip": "ym2612"
    },
    {
      "channel": 0,
      "note": 57,
      "start": 45.3947,
      "duration": 0.0353,
      "velocity": 83,
      "chip": "ym2612"
    },
    {
      "channel": 0,
      "note": 69,
      "start": 45.4307,
      "duration": 0.0207,
      "velocity": 83,
      "chip": "ym2612"
    },
    {
      "channel": 0,
      "note": 50,
      "start": 45.452,
      "duration": 0.0909,
      "velocity": 83,
      "chip": "ym2612"
    },
    {
      "channel": 0,
      "note": 62,
      "start": 45.5435,
      "duration": 0.0997,
      "velocity": 83,
      "chip": "ym2612"
    },
    {
      "channel": 1,
      "note": 50,
      "start": 45.644,
      "duration": 0.0156,
      "velocity": 99,
      "chip": "ym2612"
    },
    {
      "channel": 2,
      "note": 73,
      "start": 45.6448,
      "duration": 0.031,
      "velocity": 92,
      "chip": "ym2612"
    },
    {
      "channel": 1,
      "note": 52,
      "start": 45.6602,
      "duration": 0.0149,
      "velocity": 99,
      "chip": "ym2612"
    },
    {
      "channel": 1,
      "note": 54,
      "start": 45.6756,
      "duration": 0.0152,
      "velocity": 99,
      "chip": "ym2612"
    },
    {
      "channel": 0,
      "note": 61,
      "start": 45.6834,
      "duration": 0.0228,
      "velocity": 83,
      "chip": "ym2612"
    },
    {
      "channel": 1,
      "note": 56,
      "start": 45.6914,
      "duration": 0.0155,
      "velocity": 99,
      "chip": "ym2612"
    },
    {
      "channel": 0,
      "note": 50,
      "start": 45.7068,
      "duration": 0.0696,
      "velocity": 83,
      "chip": "ym2612"
    },
    {
      "channel": 1,
      "note": 76,
      "start": 45.7076,
      "duration": 0.0696,
      "velocity": 99,
      "chip": "ym2612"
    },
    {
      "channel": 2,
      "note": 38,
      "start": 45.7083,
      "duration": 0.0211,
      "velocity": 92,
      "chip": "ym2612"
    },
    {
      "channel": 3,
      "note": 78,
      "start": 45.709,
      "duration": 0.0692,
      "velocity": 101,
      "chip": "ym2612"
    },
    {
      "channel": 2,
      "note": 69,
      "start": 45.7511,
      "duration": 0.0268,
      "velocity": 92,
      "chip": "ym2612"
    },
    {
      "channel": 0,
      "note": 61,
      "start": 45.7771,
      "duration": 0.1379,
      "velocity": 83,
      "chip": "ym2612"
    },
    {
      "channel": 1,
      "note": 69,
      "start": 45.7777,
      "duration": 0.138,
      "velocity": 99,
      "chip": "ym2612"
    },
    {
      "channel": 3,
      "note": 73,
      "start": 45.7788,
      "duration": 0.1373,
      "velocity": 101,
      "chip": "ym2612"
    },
    {
      "channel": 0,
      "note": 62,
      "start": 45.9156,
      "duration": 0.0494,
      "velocity": 83,
      "chip": "ym2612"
    },
    {
      "channel": 1,
      "note": 64,
      "start": 45.9685,
      "duration": 0.0556,
      "velocity": 92,
      "chip": "ym2612"
    },
    {
      "channel": 2,
      "note": 69,
      "start": 45.9693,
      "duration": 0.0552,
      "velocity": 92,
      "chip": "ym2612"
    },
    {
      "channel": 3,
      "note": 76,
      "start": 46.0608,
      "duration": 0.0976,
      "velocity": 93,
      "chip": "ym2612"
    },
    {
      "channel": 4,
      "note": 81,
      "start": 46.0616,
      "duration": 0.0976,
      "velocity": 93,
      "chip": "ym2612"
    },
    {
      "channel": 0,
      "note": 50,
      "start": 46.1582,
      "duration": 0.1919,
      "velocity": 83,
      "chip": "ym2612"
    },
    {
      "channel": 3,
      "note": 78,
      "start": 46.1591,
      "duration": 0.0926,
      "velocity": 93,
      "chip": "ym2612"
    },
    {
      "channel": 4,
      "note": 78,
      "start": 46.1598,
      "duration": 0.0927,
      "velocity": 93,
      "chip": "ym2612"
    },
    {
      "channel": 1,
      "note": 64,
      "start": 46.2509,
      "duration": 0.1,
      "velocity": 92,
      "chip": "ym2612"
    },
    {
      "channel": 2,
      "note": 69,
      "start": 46.2516,
      "duration": 0.0996,
      "velocity": 92,
      "chip": "ym2612"
    },
    {
      "channel": 3,
      "note": 81,
      "start": 46.2523,
      "duration": 0.1198,
      "velocity": 93,
      "chip": "ym2612"
    },
    {
      "channel": 4,
      "note": 81,
      "start": 46.253,
      "duration": 0.1194,
      "velocity": 93,
      "chip": "ym2612"
    },
    {
      "channel": 0,
      "note": 62,
      "start": 46.3507,
      "duration": 0.0624,
      "velocity": 83,
      "chip": "ym2612"
    },
    {
      "channel": 0,
      "note": 49,
      "start": 46.4137,
      "duration": 0.0893,
      "velocity": 83,
      "chip": "ym2612"
    },
    {
      "channel": 1,
      "note": 66,
      "start": 46.4144,
      "duration": 0.0673,
      "velocity": 92,
      "chip": "ym2612"
    },
    {
      "channel": 2,
      "note": 71,
      "start": 46.4151,
      "duration": 0.0668,
      "velocity": 92,
      "chip": "ym2612"
    },
    {
      "channel": 0,
      "note": 49,
      "start": 46.5728,
      "duration": 0.1827,
      "velocity": 83,
      "chip": "ym2612"
    },
    {
      "channel": 2,
      "note": 71,
      "start": 46.6733,
      "duration": 0.1324,
      "velocity": 92,
      "chip": "ym2612"
    },
    {
      "channel": 0,
      "note": 73,
      "start": 46.8395,
      "duration": 0.0996,
      "velocity": 83,
      "chip": "ym2612"
    },
    {
      "channel": 1,
      "note": 44,
      "start": 46.8402,
      "duration": 0.0996,
      "velocity": 92,
      "chip": "ym2612"
    },
    {
      "channel": 0,
      "note": 50,
      "start": 46.9397,
      "duration": 0.0428,
      "velocity": 83,
      "chip": "ym2612"
    },
    {
      "channel": 1,
      "note": 71,
      "start": 46.9405,
      "duration": 0.0428,
      "velocity": 92,
      "chip": "ym2612"
    },
    {
      "channel": 2,
      "note": 56,
      "start": 46.9412,
      "duration": 0.021,
      "velocity": 92,
      "chip": "ym2612"
    },
    {
      "channel": 3,
      "note": 73,
      "start": 46.942,
      "duration": 0.0423,
      "velocity": 101,
      "chip": "ym2612"
    },
    {
      "channel": 0,
      "note": 71,
      "start": 46.9832,
      "duration": 0.0227,
      "velocity": 83,
      "chip": "ym2612"
    },
    {
      "channel": 2,
      "note": 71,
      "start": 46.9841,
      "duration": 0.0232,
      "velocity": 92,
      "chip": "ym2612"
    },
    {
      "channel": 0,
      "note": 73,
      "start": 47.0065,
      "duration": 0.1413,
      "velocity": 83,
      "chip": "ym2612"
    },
    {
      "channel": 1,
      "note": 71,
      "start": 47.0072,
      "duration": 0.141,
      "velocity": 92,
      "chip": "ym2612"
    },
    {
      "channel": 2,
      "note": 56,
      "start": 47.0079,
      "duration": 0.0819,
      "velocity": 92,
      "chip": "ym2612"
    },
    {
      "channel": 3,
      "note": 73,
      "start": 47.0087,
      "duration": 0.1399,
      "velocity": 101,
      "chip": "ym2612"
    },
    {
      "channel": 0,
      "note": 49,
      "start": 47.1985,
      "duration": 0.0917,
      "velocity": 83,
      "chip": "ym2612"
    },
    {
      "channel": 1,
      "note": 65,
      "start": 47.2018,
      "duration": 0.0554,
      "velocity": 99,
      "chip": "ym2612"
    },
    {
      "channel": 2,
      "note": 76,
      "start": 47.2025,
      "duration": 0.055,
      "velocity": 92,
      "chip": "ym2612"
    },
    {
      "channel": 0,
      "note": 73,
      "start": 47.2908,
      "duration": 0.0996,
      "velocity": 83,
      "chip": "ym2612"
    },
    {
      "channel": 0,
      "note": 49,
      "start": 47.391,
      "duration": 0.1919,
      "velocity": 83,
      "chip": "ym2612"
    },
    {
      "channel": 1,
      "note": 65,
      "start": 47.4836,
      "duration": 0.1422,
      "velocity": 99,
      "chip": "ym2612"
    },
    {
      "channel": 2,
      "note": 76,
      "start": 47.4843,
      "duration": 0.1419,
      "velocity": 92,
      "chip": "ym2612"
    },
    {
      "channel": 0,
      "note": 49,
      "start": 47.5834,
      "duration": 0.0642,
      "velocity": 83,
      "chip": "ym2612"
    },
    {
      "channel": 0,
      "note": 49,
      "start": 47.6482,
      "duration": 0.0421,
      "velocity": 83,
      "chip": "ym2612"
    },
    {
      "channel": 1,
      "note": 65,
      "start": 47.649,
      "duration": 0.02,
      "velocity": 99,
      "chip": "ym2612"
    },
    {
      "channel": 2,
      "note": 74,
      "start": 47.6497,
      "duration": 0.0197,
      "velocity": 92,
      "chip": "ym2612"
    },
    {
      "channel": 0,
      "note": 68,
      "start": 47.6909,
      "duration": 0.0224,
      "velocity": 83,
      "chip": "ym2612"
    },
    {
      "channel": 2,
      "note": 54,
      "start": 47.6917,
      "duration": 0.0252,
      "velocity": 92,
      "chip": "ym2612"
    },
    {
      "channel": 0,
      "note": 54,
      "start": 47.7139,
      "duration": 0.0915,
      "velocity": 83,
      "chip": "ym2612"
    },
    {
      "channel": 2,
      "note": 42,
      "start": 47.7175,
      "duration": 0.1889,
      "velocity": 92,
      "chip": "ym2612"
    },
    {
      "channel": 3,
      "note": 77,
      "start": 47.8068,
      "duration": 0.1004,
      "velocity": 93,
      "chip": "ym2612"
    },
    {
      "channel": 4,
      "note": 82,
      "start": 47.8075,
      "duration": 0.1,
      "velocity": 93,
      "chip": "ym2612"
    },
    {
      "channel": 1,
      "note": 65,
      "start": 47.9063,
      "duration": 0.0326,
      "velocity": 92,
      "chip": "ym2612"
    },
    {
      "channel": 2,
      "note": 73,
      "start": 47.9071,
      "duration": 0.0321,
      "velocity": 92,
      "chip": "ym2612"
    },
    {
      "channel": 0,
      "note": 66,
      "start": 47.9464,
      "duration": 0.0308,
      "velocity": 83,
      "chip": "ym2612"
    },
    {
      "channel": 1,
      "note": 66,
      "start": 47.9497,
      "duration": 0.0278,
      "velocity": 99,
      "chip": "ym2612"
    },
    {
      "channel": 3,
      "note": 73,
      "start": 47.9532,
      "duration": 0.0257,
      "velocity": 101,
      "chip": "ym2612"
    },
    {
      "channel": 1,
      "note": 45,
      "start": 47.9781,
      "duration": 0.02,
      "velocity": 99,
      "chip": "ym2612"
    },
    {
      "channel": 2,
      "note": 54,
      "start": 47.9788,
      "duration": 0.0196,
      "velocity": 92,
      "chip": "ym2612"
    },
    {
      "channel": 1,
      "note": 66,
      "start": 48.0153,
      "duration": 0.0293,
      "velocity": 99,
      "chip": "ym2612"
    },
    {
      "channel": 2,
      "note": 73,
      "start": 48.016,
      "duration": 0.0288,
      "velocity": 92,
      "chip": "ym2612"
    },
    {
      "channel": 3,
      "note": 73,
      "start": 48.0168,
      "duration": 0.0284,
      "velocity": 101,
      "chip": "ym2612"
    },
    {
      "channel": 0,
      "note": 54,
      "start": 48.0444,
      "duration": 0.1402,
      "velocity": 83,
      "chip": "ym2612"
    },
    {
      "channel": 0,
      "note": 64,
      "start": 48.1853,
      "duration": 0.0507,
      "velocity": 83,
      "chip": "ym2612"
    },
    {
      "channel": 1,
      "note": 66,
      "start": 48.1859,
      "duration": 0.0529,
      "velocity": 92,
      "chip": "ym2612"
    },
    {
      "channel": 2,
      "note": 54,
      "start": 48.1866,
      "duration": 0.0529,
      "velocity": 92,
      "chip": "ym2612"
    },
    {
      "channel": 3,
      "note": 73,
      "start": 48.1874,
      "duration": 0.0529,
      "velocity": 101,
      "chip": "ym2612"
    },
    {
      "channel": 1,
      "note": 65,
      "start": 48.2394,
      "duration": 0.0555,
      "velocity": 92,
      "chip": "ym2612"
    },
    {
      "channel": 2,
      "note": 73,
      "start": 48.2402,
      "duration": 0.0551,
      "velocity": 92,
      "chip": "ym2612"
    },
    {
      "channel": 0,
      "note": 64,
      "start": 48.3288,
      "duration": 0.0997,
      "velocity": 83,
      "chip": "ym2612"
    },
    {
      "channel": 3,
      "note": 77,
      "start": 48.3323,
      "duration": 0.0971,
      "velocity": 93,
      "chip": "ym2612"
    },
    {
      "channel": 4,
      "note": 82,
      "start": 48.333,
      "duration": 0.0966,
      "velocity": 93,
      "chip": "ym2612"
    },
    {
      "channel": 0,
      "note": 66,
      "start": 48.429,
      "duration": 0.0583,
      "velocity": 83,
      "chip": "ym2612"
    },
    {
      "channel": 1,
      "note": 65,
      "start": 48.5214,
      "duration": 0.1003,
      "velocity": 92,
      "chip": "ym2612"
    },
    {
      "channel": 2,
      "note": 73,
      "start": 48.5221,
      "duration": 0.0999,
      "velocity": 92,
      "chip": "ym2612"
    },
    {
      "channel": 0,
      "note": 64,
      "start": 48.6215,
      "duration": 0.0358,
      "velocity": 83,
      "chip": "ym2612"
    },
    {
      "channel": 0,
      "note": 45,
      "start": 48.658,
      "duration": 0.0226,
      "velocity": 83,
      "chip": "ym2612"
    },
    {
      "channel": 2,
      "note": 54,
      "start": 48.6587,
      "duration": 0.0233,
      "velocity": 92,
      "chip": "ym2612"
    },
    {
      "channel": 0,
      "note": 57,
      "start": 48.6812,
      "duration": 0.0935,
      "velocity": 83,
      "chip": "ym2612"
    },
    {
      "channel": 1,
      "note": 62,
      "start": 48.6819,
      "duration": 30.5166,
      "velocity": 92,
      "chip": "ym2612"
    },
    {
      "channel": 2,
      "note": 71,
      "start": 48.6827,
      "duration": 0.0676,
      "velocity": 92,
      "chip": "ym2612"
    },
    {
      "channel": 2,
      "note": 45,
      "start": 48.7509,
      "duration": 0.0245,
      "velocity": 92,
      "chip": "ym2612"
    },
    {
      "channel": 0,
      "note": 57,
      "start": 48.9418,
      "duration": 30.2567,
      "velocity": 83,
      "chip": "ym2612"
    }
  ]
}