{
  "track_name": "29 - Light of Silence",
  "duration_sec": 84.677,
  "sample_rate": 44100,
  "note_count": 1110,
  "unique_pitches": 25,
  "pitch_range": 38,
  "avg_note_duration": 0.3447,
  "reconstruction_stats": {
    "notes_reconstructed": 1110,
    "keyon_events": 1110,
    "keyoff_events": 1104,
    "orphan_keyons": 6,
    "unique_pitches": 25,
    "pitch_range": 38,
    "avg_duration_sec": 0.3447
  },
  "metadata": {
    "source": "T\\Thunder Force IV\\29 - Light of Silence.vgz"
  },
  "notes": [
    {
      "channel": 0,
      "note": 54,
      "start": 0.0,
      "duration": 0.268,
      "velocity": 91,
      "chip": "ym2612"
    },
    {
      "channel": 1,
      "note": 54,
      "start": 0.0047,
      "duration": 4.922,
      "velocity": 119,
      "chip": "ym2612"
    },
    {
      "channel": 2,
      "note": 54,
      "start": 0.0098,
      "duration": 4.9171,
      "velocity": 97,
      "chip": "ym2612"
    },
    {
      "channel": 3,
      "note": 61,
      "start": 0.0149,
      "duration": 0.0208,
      "velocity": 119,
      "chip": "ym2612"
    },
    {
      "channel": 4,
      "note": 54,
      "start": 0.2446,
      "duration": 0.2569,
      "velocity": 91,
      "chip": "ym2612"
    },
    {
      "channel": 5,
      "note": 54,
      "start": 0.2496,
      "duration": 4.9109,
      "velocity": 97,
      "chip": "ym2612"
    },
    {
      "channel": 0,
      "note": 61,
      "start": 0.3216,
      "duration": 0.2567,
      "velocity": 91,
      "chip": "ym2612"
    },
    {
      "channel": 3,
      "note": 61,
      "start": 0.325,
      "duration": 0.0221,
      "velocity": 119,
      "chip": "ym2612"
    },
    {
      "channel": 4,
      "note": 61,
      "start": 0.5547,
      "duration": 0.2574,
      "velocity": 91,
      "chip": "ym2612"
    },
    {
      "channel": 0,
      "note": 68,
      "start": 0.6315,
      "duration": 0.2574,
      "velocity": 91,
      "chip": "ym2612"
    },
    {
      "channel": 3,
      "note": 61,
      "start": 0.6341,
      "duration": 0.0235,
      "velocity": 119,
      "chip": "ym2612"
    },
    {
      "channel": 4,
      "note": 68,
      "start": 0.8653,
      "duration": 0.2582,
      "velocity": 91,
      "chip": "ym2612"
    },
    {
      "channel": 0,
      "note": 69,
      "start": 0.9421,
      "duration": 0.2574,
      "velocity": 91,
      "chip": "ym2612"
    },
    {
      "channel": 3,
      "note": 61,
      "start": 0.9446,
      "duration": 0.0228,
      "velocity": 119,
      "chip": "ym2612"
    },
    {
      "channel": 4,
      "note": 69,
      "start": 1.1759,
      "duration": 0.2574,
      "velocity": 91,
      "chip": "ym2612"
    },
    {
      "channel": 0,
      "note": 76,
      "start": 1.2526,
      "duration": 0.2575,
      "velocity": 91,
      "chip": "ym2612"
    },
    {
      "channel": 3,
      "note": 61,
      "start": 1.2552,
      "duration": 0.0227,
      "velocity": 119,
      "chip": "ym2612"
    },
    {
      "channel": 4,
      "note": 76,
      "start": 1.4865,
      "duration": 0.2574,
      "velocity": 91,
      "chip": "ym2612"
    },
    {
      "channel": 0,
      "note": 69,
      "start": 1.5633,
      "duration": 0.2574,
      "velocity": 91,
      "chip": "ym2612"
    },
    {
      "channel": 3,
      "note": 61,
      "start": 1.5658,
      "duration": 0.0228,
      "velocity": 119,
      "chip": "ym2612"
    },
    {
      "channel": 4,
      "note": 69,
      "start": 1.7971,
      "duration": 0.2575,
      "velocity": 91,
      "chip": "ym2612"
    },
    {
      "channel": 0,
      "note": 68,
      "start": 1.8747,
      "duration": 0.2572,
      "velocity": 91,
      "chip": "ym2612"
    },
    {
      "channel": 3,
      "note": 61,
      "start": 1.8773,
      "duration": 0.0218,
      "velocity": 119,
      "chip": "ym2612"
    },
    {
      "channel": 4,
      "note": 68,
      "start": 2.1091,
      "duration": 0.2559,
      "velocity": 91,
      "chip": "ym2612"
    },
    {
      "channel": 0,
      "note": 61,
      "start": 2.1844,
      "duration": 0.2575,
      "velocity": 91,
      "chip": "ym2612"
    },
    {
      "channel": 3,
      "note": 61,
      "start": 2.187,
      "duration": 0.0227,
      "velocity": 119,
      "chip": "ym2612"
    },
    {
      "channel": 4,
      "note": 61,
      "start": 2.4182,
      "duration": 0.2574,
      "velocity": 91,
      "chip": "ym2612"
    },
    {
      "channel": 0,
      "note": 54,
      "start": 2.4951,
      "duration": 0.2573,
      "velocity": 91,
      "chip": "ym2612"
    },
    {
      "channel": 3,
      "note": 61,
      "start": 2.5007,
      "duration": 0.0197,
      "velocity": 119,
      "chip": "ym2612"
    },
    {
      "channel": 4,
      "note": 54,
      "start": 2.729,
      "duration": 0.2573,
      "velocity": 91,
      "chip": "ym2612"
    },
    {
      "channel": 0,
      "note": 61,
      "start": 2.8056,
      "duration": 0.2574,
      "velocity": 91,
      "chip": "ym2612"
    },
    {
      "channel": 3,
      "note": 61,
      "start": 2.809,
      "duration": 0.0219,
      "velocity": 119,
      "chip": "ym2612"
    },
    {
      "channel": 4,
      "note": 61,
      "start": 3.0402,
      "duration": 0.2566,
      "velocity": 91,
      "chip": "ym2612"
    },
    {
      "channel": 0,
      "note": 68,
      "start": 3.1162,
      "duration": 0.2574,
      "velocity": 91,
      "chip": "ym2612"
    },
    {
      "channel": 3,
      "note": 61,
      "start": 3.1187,
      "duration": 0.0227,
      "velocity": 119,
      "chip": "ym2612"
    },
    {
      "channel": 4,
      "note": 68,
      "start": 3.35,
      "duration": 0.2576,
      "velocity": 91,
      "chip": "ym2612"
    },
    {
      "channel": 0,
      "note": 69,
      "start": 3.4268,
      "duration": 0.2574,
      "velocity": 91,
      "chip": "ym2612"
    },
    {
      "channel": 3,
      "note": 61,
      "start": 3.4294,
      "duration": 0.0227,
      "velocity": 119,
      "chip": "ym2612"
    },
    {
      "channel": 4,
      "note": 69,
      "start": 3.6605,
      "duration": 0.2581,
      "velocity": 91,
      "chip": "ym2612"
    },
    {
      "channel": 0,
      "note": 76,
      "start": 3.7373,
      "duration": 0.2575,
      "velocity": 91,
      "chip": "ym2612"
    },
    {
      "channel": 3,
      "note": 61,
      "start": 3.7407,
      "duration": 0.0219,
      "velocity": 119,
      "chip": "ym2612"
    },
    {
      "channel": 4,
      "note": 76,
      "start": 3.9712,
      "duration": 0.2574,
      "velocity": 91,
      "chip": "ym2612"
    },
    {
      "channel": 0,
      "note": 69,
      "start": 4.0479,
      "duration": 0.2574,
      "velocity": 91,
      "chip": "ym2612"
    },
    {
      "channel": 3,
      "note": 61,
      "start": 4.0505,
      "duration": 0.0237,
      "velocity": 119,
      "chip": "ym2612"
    },
    {
      "channel": 4,
      "note": 69,
      "start": 4.2817,
      "duration": 0.2582,
      "velocity": 91,
      "chip": "ym2612"
    },
    {
      "channel": 0,
      "note": 68,
      "start": 4.3585,
      "duration": 0.2574,
      "velocity": 91,
      "chip": "ym2612"
    },
    {
      "channel": 3,
      "note": 61,
      "start": 4.3611,
      "duration": 0.0227,
      "velocity": 119,
      "chip": "ym2612"
    },
    {
      "channel": 4,
      "note": 68,
      "start": 4.5923,
      "duration": 0.2574,
      "velocity": 91,
      "chip": "ym2612"
    },
    {
      "channel": 0,
      "note": 61,
      "start": 4.669,
      "duration": 0.2574,
      "velocity": 91,
      "chip": "ym2612"
    },
    {
      "channel": 3,
      "note": 61,
      "start": 4.6717,
      "duration": 0.0227,
      "velocity": 119,
      "chip": "ym2612"
    },
    {
      "channel": 4,
      "note": 61,
      "start": 4.9029,
      "duration": 0.2574,
      "velocity": 91,
      "chip": "ym2612"
    },
    {
      "channel": 0,
      "note": 52,
      "start": 4.9802,
      "duration": 0.2568,
      "velocity": 91,
      "chip": "ym2612"
    },
    {
      "channel": 1,
      "note": 52,
      "start": 4.9819,
      "duration": 4.9141,
      "velocity": 119,
      "chip": "ym2612"
    },
    {
      "channel": 2,
      "note": 52,
      "start": 4.9837,
      "duration": 4.9125,
      "velocity": 97,
      "chip": "ym2612"
    },
    {
      "channel": 3,
      "note": 61,
      "start": 4.9905,
      "duration": 0.0145,
      "velocity": 119,
      "chip": "ym2612"
    },
    {
      "channel": 4,
      "note": 52,
      "start": 5.2141,
      "duration": 0.2568,
      "velocity": 91,
      "chip": "ym2612"
    },
    {
      "channel": 5,
      "note": 52,
      "start": 5.2158,
      "duration": 4.9141,
      "velocity": 97,
      "chip": "ym2612"
    },
    {
      "channel": 0,
      "note": 59,
      "start": 5.2911,
      "duration": 0.2565,
      "velocity": 91,
      "chip": "ym2612"
    },
    {
      "channel": 3,
      "note": 61,
      "start": 5.2937,
      "duration": 0.0219,
      "velocity": 119,
      "chip": "ym2612"
    },
    {
      "channel": 4,
      "note": 59,
      "start": 5.5249,
      "duration": 0.2566,
      "velocity": 91,
      "chip": "ym2612"
    },
    {
      "channel": 0,
      "note": 66,
      "start": 5.6008,
      "duration": 0.2574,
      "velocity": 91,
      "chip": "ym2612"
    },
    {
      "channel": 3,
      "note": 61,
      "start": 5.6034,
      "duration": 0.0229,
      "velocity": 119,
      "chip": "ym2612"
    },
    {
      "channel": 4,
      "note": 66,
      "start": 5.8346,
      "duration": 0.2574,
      "velocity": 91,
      "chip": "ym2612"
    },
    {
      "channel": 0,
      "note": 67,
      "start": 5.9114,
      "duration": 0.2574,
      "velocity": 91,
      "chip": "ym2612"
    },
    {
      "channel": 3,
      "note": 61,
      "start": 5.914,
      "duration": 0.0227,
      "velocity": 119,
      "chip": "ym2612"
    },
    {
      "channel": 4,
      "note": 67,
      "start": 6.1453,
      "duration": 0.2574,
      "velocity": 91,
      "chip": "ym2612"
    },
    {
      "channel": 0,
      "note": 74,
      "start": 6.222,
      "duration": 0.2574,
      "velocity": 91,
      "chip": "ym2612"
    },
    {
      "channel": 3,
      "note": 61,
      "start": 6.2254,
      "duration": 0.0219,
      "velocity": 119,
      "chip": "ym2612"
    },
    {
      "channel": 4,
      "note": 74,
      "start": 6.4567,
      "duration": 0.2565,
      "velocity": 91,
      "chip": "ym2612"
    },
    {
      "channel": 0,
      "note": 67,
      "start": 6.5326,
      "duration": 0.2574,
      "velocity": 91,
      "chip": "ym2612"
    },
    {
      "channel": 3,
      "note": 61,
      "start": 6.5351,
      "duration": 0.0228,
      "velocity": 119,
      "chip": "ym2612"
    },
    {
      "channel": 4,
      "note": 67,
      "start": 6.7664,
      "duration": 0.2578,
      "velocity": 91,
      "chip": "ym2612"
    },
    {
      "channel": 0,
      "note": 66,
      "start": 6.8432,
      "duration": 0.2575,
      "velocity": 91,
      "chip": "ym2612"
    },
    {
      "channel": 3,
      "note": 61,
      "start": 6.8458,
      "duration": 0.0227,
      "velocity": 119,
      "chip": "ym2612"
    },
    {
      "channel": 4,
      "note": 66,
      "start": 7.077,
      "duration": 0.2574,
      "velocity": 91,
      "chip": "ym2612"
    },
    {
      "channel": 0,
      "note": 59,
      "start": 7.1538,
      "duration": 0.2574,
      "velocity": 91,
      "chip": "ym2612"
    },
    {
      "channel": 3,
      "note": 61,
      "start": 7.1572,
      "duration": 0.0219,
      "velocity": 119,
      "chip": "ym2612"
    },
    {
      "channel": 4,
      "note": 59,
      "start": 7.3876,
      "duration": 0.2574,
      "velocity": 91,
      "chip": "ym2612"
    },
    {
      "channel": 0,
      "note": 52,
      "start": 7.465,
      "duration": 0.2568,
      "velocity": 91,
      "chip": "ym2612"
    },
    {
      "channel": 3,
      "note": 61,
      "start": 7.4705,
      "duration": 0.0205,
      "velocity": 119,
      "chip": "ym2612"
    },
    {
      "channel": 4,
      "note": 52,
      "start": 7.6983,
      "duration": 0.2573,
      "velocity": 91,
      "chip": "ym2612"
    },
    {
      "channel": 0,
      "note": 59,
      "start": 7.7749,
      "duration": 0.2575,
      "velocity": 91,
      "chip": "ym2612"
    },
    {
      "channel": 3,
      "note": 61,
      "start": 7.7775,
      "duration": 0.0227,
      "velocity": 119,
      "chip": "ym2612"
    },
    {
      "channel": 4,
      "note": 59,
      "start": 8.009,
      "duration": 0.2571,
      "velocity": 91,
      "chip": "ym2612"
    },
    {
      "channel": 0,
      "note": 66,
      "start": 8.0855,
      "duration": 0.2574,
      "velocity": 91,
      "chip": "ym2612"
    },
    {
      "channel": 3,
      "note": 61,
      "start": 8.0881,
      "duration": 0.0227,
      "velocity": 119,
      "chip": "ym2612"
    },
    {
      "channel": 4,
      "note": 66,
      "start": 8.3193,
      "duration": 0.2575,
      "velocity": 91,
      "chip": "ym2612"
    },
    {
      "channel": 0,
      "note": 67,
      "start": 8.3961,
      "duration": 0.2574,
      "velocity": 91,
      "chip": "ym2612"
    },
    {
      "channel": 3,
      "note": 61,
      "start": 8.3987,
      "duration": 0.0227,
      "velocity": 119,
      "chip": "ym2612"
    },
    {
      "channel": 4,
      "note": 67,
      "start": 8.6299,
      "duration": 0.2574,
      "velocity": 91,
      "chip": "ym2612"
    },
    {
      "channel": 0,
      "note": 74,
      "start": 8.7075,
      "duration": 0.2566,
      "velocity": 91,
      "chip": "ym2612"
    },
    {
      "channel": 3,
      "note": 61,
      "start": 8.7101,
      "duration": 0.0219,
      "velocity": 119,
      "chip": "ym2612"
    },
    {
      "channel": 4,
      "note": 74,
      "start": 8.9415,
      "duration": 0.2564,
      "velocity": 91,
      "chip": "ym2612"
    },
    {
      "channel": 0,
      "note": 67,
      "start": 9.0173,
      "duration": 0.2579,
      "velocity": 91,
      "chip": "ym2612"
    },
    {
      "channel": 3,
      "note": 61,
      "start": 9.0199,
      "duration": 0.0227,
      "velocity": 119,
      "chip": "ym2612"
    },
    {
      "channel": 4,
      "note": 67,
      "start": 9.2514,
      "duration": 0.2571,
      "velocity": 91,
      "chip": "ym2612"
    },
    {
      "channel": 0,
      "note": 66,
      "start": 9.3288,
      "duration": 0.2565,
      "velocity": 91,
      "chip": "ym2612"
    },
    {
      "channel": 3,
      "note": 61,
      "start": 9.3313,
      "duration": 0.0219,
      "velocity": 119,
      "chip": "ym2612"
    },
    {
      "channel": 4,
      "note": 66,
      "start": 9.5617,
      "duration": 0.2574,
      "velocity": 91,
      "chip": "ym2612"
    },
    {
      "channel": 0,
      "note": 59,
      "start": 9.6385,
      "duration": 0.2574,
      "velocity": 91,
      "chip": "ym2612"
    },
    {
      "channel": 3,
      "note": 61,
      "start": 9.6419,
      "duration": 0.0219,
      "velocity": 119,
      "chip": "ym2612"
    },
    {
      "channel": 4,
      "note": 59,
      "start": 9.8722,
      "duration": 0.2574,
      "velocity": 91,
      "chip": "ym2612"
    },
    {
      "channel": 0,
      "note": 54,
      "start": 9.9496,
      "duration": 0.2571,
      "velocity": 91,
      "chip": "ym2612"
    },
    {
      "channel": 1,
      "note": 54,
      "start": 9.9547,
      "duration": 4.9107,
      "velocity": 119,
      "chip": "ym2612"
    },
    {
      "channel": 2,
      "note": 54,
      "start": 9.9608,
      "duration": 4.9048,
      "velocity": 97,
      "chip": "ym2612"
    },
    {
      "channel": 3,
      "note": 61,
      "start": 9.9669,
      "duration": 0.0074,
      "velocity": 119,
      "chip": "ym2612"
    },
    {
      "channel": 4,
      "note": 54,
      "start": 10.1834,
      "duration": 0.2574,
      "velocity": 91,
      "chip": "ym2612"
    },
    {
      "channel": 5,
      "note": 54,
      "start": 10.1888,
      "duration": 4.9104,
      "velocity": 97,
      "chip": "ym2612"
    },
    {
      "channel": 0,
      "note": 61,
      "start": 10.2596,
      "duration": 0.2574,
      "velocity": 91,
      "chip": "ym2612"
    },
    {
      "channel": 3,
      "note": 61,
      "start": 10.2622,
      "duration": 0.0228,
      "velocity": 119,
      "chip": "ym2612"
    },
    {
      "channel": 4,
      "note": 61,
      "start": 10.4934,
      "duration": 0.2574,
      "velocity": 91,
      "chip": "ym2612"
    },
    {
      "channel": 0,
      "note": 68,
      "start": 10.5702,
      "duration": 0.2574,
      "velocity": 91,
      "chip": "ym2612"
    },
    {
      "channel": 3,
      "note": 61,
      "start": 10.5736,
      "duration": 0.022,
      "velocity": 119,
      "chip": "ym2612"
    },
    {
      "channel": 4,
      "note": 68,
      "start": 10.804,
      "duration": 0.2578,
      "velocity": 91,
      "chip": "ym2612"
    },
    {
      "channel": 0,
      "note": 69,
      "start": 10.8808,
      "duration": 0.2574,
      "velocity": 91,
      "chip": "ym2612"
    },
    {
      "channel": 3,
      "note": 61,
      "start": 10.8834,
      "duration": 0.0235,
      "velocity": 119,
      "chip": "ym2612"
    },
    {
      "channel": 4,
      "note": 69,
      "start": 11.1155,
      "duration": 0.2565,
      "velocity": 91,
      "chip": "ym2612"
    },
    {
      "channel": 0,
      "note": 76,
      "start": 11.1915,
      "duration": 0.2573,
      "velocity": 91,
      "chip": "ym2612"
    },
    {
      "channel": 3,
      "note": 61,
      "start": 11.1941,
      "duration": 0.0226,
      "velocity": 119,
      "chip": "ym2612"
    },
    {
      "channel": 4,
      "note": 76,
      "start": 11.4257,
      "duration": 0.2569,
      "velocity": 91,
      "chip": "ym2612"
    },
    {
      "channel": 0,
      "note": 69,
      "start": 11.502,
      "duration": 0.2574,
      "velocity": 91,
      "chip": "ym2612"
    },
    {
      "channel": 3,
      "note": 61,
      "start": 11.5046,
      "duration": 0.0227,
      "velocity": 119,
      "chip": "ym2612"
    },
    {
      "channel": 4,
      "note": 69,
      "start": 11.7358,
      "duration": 0.2574,
      "velocity": 91,
      "chip": "ym2612"
    },
    {
      "channel": 0,
      "note": 68,
      "start": 11.8126,
      "duration": 0.2574,
      "velocity": 91,
      "chip": "ym2612"
    },
    {
      "channel": 3,
      "note": 61,
      "start": 11.8151,
      "duration": 0.0228,
      "velocity": 119,
      "chip": "ym2612"
    },
    {
      "channel": 4,
      "note": 68,
      "start": 12.0463,
      "duration": 0.2574,
      "velocity": 91,
      "chip": "ym2612"
    },
    {
      "channel": 0,
      "note": 61,
      "start": 12.1239,
      "duration": 0.2566,
      "velocity": 91,
      "chip": "ym2612"
    },
    {
      "channel": 3,
      "note": 61,
      "start": 12.1266,
      "duration": 0.0219,
      "velocity": 119,
      "chip": "ym2612"
    },
    {
      "channel": 4,
      "note": 61,
      "start": 12.3578,
      "duration": 0.2566,
      "velocity": 91,
      "chip": "ym2612"
    },
    {
      "channel": 0,
      "note": 54,
      "start": 12.4339,
      "duration": 0.2573,
      "velocity": 91,
      "chip": "ym2612"
    },
    {
      "channel": 3,
      "note": 61,
      "start": 12.4402,
      "duration": 0.0188,
      "velocity": 119,
      "chip": "ym2612"
    },
    {
      "channel": 4,
      "note": 54,
      "start": 12.6677,
      "duration": 0.2572,
      "velocity": 91,
      "chip": "ym2612"
    },
    {
      "channel": 0,
      "note": 61,
      "start": 12.7443,
      "duration": 0.2574,
      "velocity": 91,
      "chip": "ym2612"
    },
    {
      "channel": 3,
      "note": 61,
      "start": 12.7469,
      "duration": 0.0227,
      "velocity": 119,
      "chip": "ym2612"
    },
    {
      "channel": 4,
      "note": 61,
      "start": 12.9781,
      "duration": 0.2574,
      "velocity": 91,
      "chip": "ym2612"
    },
    {
      "channel": 0,
      "note": 68,
      "start": 13.0549,
      "duration": 0.2574,
      "velocity": 91,
      "chip": "ym2612"
    },
    {
      "channel": 3,
      "note": 61,
      "start": 13.0583,
      "duration": 0.0219,
      "velocity": 119,
      "chip": "ym2612"
    },
    {
      "channel": 4,
      "note": 68,
      "start": 13.2887,
      "duration": 0.2574,
      "velocity": 91,
      "chip": "ym2612"
    },
    {
      "channel": 0,
      "note": 69,
      "start": 13.3655,
      "duration": 0.2578,
      "velocity": 91,
      "chip": "ym2612"
    },
    {
      "channel": 3,
      "note": 61,
      "start": 13.368,
      "duration": 0.0228,
      "velocity": 119,
      "chip": "ym2612"
    },
    {
      "channel": 4,
      "note": 69,
      "start": 13.5993,
      "duration": 0.2583,
      "velocity": 91,
      "chip": "ym2612"
    },
    {
      "channel": 0,
      "note": 76,
      "start": 13.6761,
      "duration": 0.2574,
      "velocity": 91,
      "chip": "ym2612"
    },
    {
      "channel": 3,
      "note": 61,
      "start": 13.6787,
      "duration": 0.0227,
      "velocity": 119,
      "chip": "ym2612"
    },
    {
      "channel": 4,
      "note": 76,
      "start": 13.9099,
      "duration": 0.2574,
      "velocity": 91,
      "chip": "ym2612"
    },
    {
      "channel": 0,
      "note": 69,
      "start": 13.9867,
      "duration": 0.2574,
      "velocity": 91,
      "chip": "ym2612"
    },
    {
      "channel": 3,
      "note": 61,
      "start": 13.99,
      "duration": 0.0219,
      "velocity": 119,
      "chip": "ym2612"
    },
    {
      "channel": 4,
      "note": 69,
      "start": 14.2205,
      "duration": 0.2574,
      "velocity": 91,
      "chip": "ym2612"
    },
    {
      "channel": 0,
      "note": 68,
      "start": 14.2972,
      "duration": 0.2574,
      "velocity": 91,
      "chip": "ym2612"
    },
    {
      "channel": 3,
      "note": 61,
      "start": 14.2998,
      "duration": 0.0236,
      "velocity": 119,
      "chip": "ym2612"
    },
    {
      "channel": 4,
      "note": 68,
      "start": 14.531,
      "duration": 0.2574,
      "velocity": 91,
      "chip": "ym2612"
    },
    {
      "channel": 0,
      "note": 61,
      "start": 14.6089,
      "duration": 0.2564,
      "velocity": 91,
      "chip": "ym2612"
    },
    {
      "channel": 3,
      "note": 61,
      "start": 14.6115,
      "duration": 0.022,
      "velocity": 119,
      "chip": "ym2612"
    },
    {
      "channel": 4,
      "note": 61,
      "start": 14.8423,
      "duration": 0.2567,
      "velocity": 91,
      "chip": "ym2612"
    },
    {
      "channel": 0,
      "note": 52,
      "start": 14.919,
      "duration": 0.2568,
      "velocity": 91,
      "chip": "ym2612"
    },
    {
      "channel": 1,
      "note": 52,
      "start": 14.9206,
      "duration": 4.9141,
      "velocity": 119,
      "chip": "ym2612"
    },
    {
      "channel": 2,
      "note": 52,
      "start": 14.9232,
      "duration": 4.9117,
      "velocity": 97,
      "chip": "ym2612"
    },
    {
      "channel": 3,
      "note": 61,
      "start": 14.9293,
      "duration": 0.0144,
      "velocity": 119,
      "chip": "ym2612"
    },
    {
      "channel": 4,
      "note": 52,
      "start": 15.1528,
      "duration": 0.2568,
      "velocity": 91,
      "chip": "ym2612"
    },
    {
      "channel": 5,
      "note": 52,
      "start": 15.1545,
      "duration": 4.9148,
      "velocity": 97,
      "chip": "ym2612"
    },
    {
      "channel": 0,
      "note": 59,
      "start": 15.229,
      "duration": 0.2574,
      "velocity": 91,
      "chip": "ym2612"
    },
    {
      "channel": 3,
      "note": 61,
      "start": 15.2316,
      "duration": 0.0227,
      "velocity": 119,
      "chip": "ym2612"
    },
    {
      "channel": 4,
      "note": 59,
      "start": 15.4628,
      "duration": 0.2574,
      "velocity": 91,
      "chip": "ym2612"
    },
    {
      "channel": 0,
      "note": 66,
      "start": 15.5404,
      "duration": 0.2566,
      "velocity": 91,
      "chip": "ym2612"
    },
    {
      "channel": 3,
      "note": 61,
      "start": 15.543,
      "duration": 0.022,
      "velocity": 119,
      "chip": "ym2612"
    },
    {
      "channel": 4,
      "note": 66,
      "start": 15.7742,
      "duration": 0.2566,
      "velocity": 91,
      "chip": "ym2612"
    },
    {
      "channel": 0,
      "note": 67,
      "start": 15.8502,
      "duration": 0.2574,
      "velocity": 91,
      "chip": "ym2612"
    },
    {
      "channel": 3,
      "note": 61,
      "start": 15.8527,
      "duration": 0.0228,
      "velocity": 119,
      "chip": "ym2612"
    },
    {
      "channel": 4,
      "note": 67,
      "start": 16.0839,
      "duration": 0.2578,
      "velocity": 91,
      "chip": "ym2612"
    },
    {
      "channel": 0,
      "note": 74,
      "start": 16.1607,
      "duration": 0.2576,
      "velocity": 91,
      "chip": "ym2612"
    },
    {
      "channel": 3,
      "note": 61,
      "start": 16.1633,
      "duration": 0.0227,
      "velocity": 119,
      "chip": "ym2612"
    },
    {
      "channel": 4,
      "note": 74,
      "start": 16.3946,
      "duration": 0.2573,
      "velocity": 91,
      "chip": "ym2612"
    },
    {
      "channel": 0,
      "note": 67,
      "start": 16.472,
      "duration": 0.2567,
      "velocity": 91,
      "chip": "ym2612"
    },
    {
      "channel": 3,
      "note": 61,
      "start": 16.4755,
      "duration": 0.022,
      "velocity": 119,
      "chip": "ym2612"
    },
    {
      "channel": 4,
      "note": 67,
      "start": 16.7051,
      "duration": 0.2574,
      "velocity": 91,
      "chip": "ym2612"
    },
    {
      "channel": 0,
      "note": 66,
      "start": 16.7819,
      "duration": 0.2581,
      "velocity": 91,
      "chip": "ym2612"
    },
    {
      "channel": 3,
      "note": 61,
      "start": 16.7845,
      "duration": 0.023,
      "velocity": 119,
      "chip": "ym2612"
    },
    {
      "channel": 4,
      "note": 66,
      "start": 17.0157,
      "duration": 0.2582,
      "velocity": 91,
      "chip": "ym2612"
    },
    {
      "channel": 0,
      "note": 59,
      "start": 17.0925,
      "duration": 0.2574,
      "velocity": 91,
      "chip": "ym2612"
    },
    {
      "channel": 3,
      "note": 61,
      "start": 17.0951,
      "duration": 0.0227,
      "velocity": 119,
      "chip": "ym2612"
    },
    {
      "channel": 4,
      "note": 59,
      "start": 17.3263,
      "duration": 0.2574,
      "velocity": 91,
      "chip": "ym2612"
    },
    {
      "channel": 0,
      "note": 52,
      "start": 17.4032,
      "duration": 0.2573,
      "velocity": 91,
      "chip": "ym2612"
    },
    {
      "channel": 3,
      "note": 61,
      "start": 17.4096,
      "duration": 0.0188,
      "velocity": 119,
      "chip": "ym2612"
    },
    {
      "channel": 4,
      "note": 52,
      "start": 17.6371,
      "duration": 0.2572,
      "velocity": 91,
      "chip": "ym2612"
    },
    {
      "channel": 0,
      "note": 59,
      "start": 17.7137,
      "duration": 0.2574,
      "velocity": 91,
      "chip": "ym2612"
    },
    {
      "channel": 3,
      "note": 61,
      "start": 17.7163,
      "duration": 0.0235,
      "velocity": 119,
      "chip": "ym2612"
    },
    {
      "channel": 4,
      "note": 59,
      "start": 17.9475,
      "duration": 0.2576,
      "velocity": 91,
      "chip": "ym2612"
    },
    {
      "channel": 0,
      "note": 66,
      "start": 18.0248,
      "duration": 0.2577,
      "velocity": 91,
      "chip": "ym2612"
    },
    {
      "channel": 3,
      "note": 61,
      "start": 18.0273,
      "duration": 0.0223,
      "velocity": 119,
      "chip": "ym2612"
    },
    {
      "channel": 4,
      "note": 66,
      "start": 18.2596,
      "duration": 0.2559,
      "velocity": 91,
      "chip": "ym2612"
    },
    {
      "channel": 0,
      "note": 67,
      "start": 18.3348,
      "duration": 0.2574,
      "velocity": 91,
      "chip": "ym2612"
    },
    {
      "channel": 3,
      "note": 61,
      "start": 18.3374,
      "duration": 0.0227,
      "velocity": 119,
      "chip": "ym2612"
    },
    {
      "channel": 4,
      "note": 67,
      "start": 18.5687,
      "duration": 0.2574,
      "velocity": 91,
      "chip": "ym2612"
    },
    {
      "channel": 0,
      "note": 74,
      "start": 18.6454,
      "duration": 0.2574,
      "velocity": 91,
      "chip": "ym2612"
    },
    {
      "channel": 3,
      "note": 61,
      "start": 18.648,
      "duration": 0.0227,
      "velocity": 119,
      "chip": "ym2612"
    },
    {
      "channel": 4,
      "note": 74,
      "start": 18.8792,
      "duration": 0.2574,
      "velocity": 91,
      "chip": "ym2612"
    },
    {
      "channel": 0,
      "note": 67,
      "start": 18.9568,
      "duration": 0.2566,
      "velocity": 91,
      "chip": "ym2612"
    },
    {
      "channel": 3,
      "note": 61,
      "start": 18.9595,
      "duration": 0.0219,
      "velocity": 119,
      "chip": "ym2612"
    },
    {
      "channel": 4,
      "note": 67,
      "start": 19.1907,
      "duration": 0.2565,
      "velocity": 91,
      "chip": "ym2612"
    },
    {
      "channel": 0,
      "note": 66,
      "start": 19.2666,
      "duration": 0.2574,
      "velocity": 91,
      "chip": "ym2612"
    },
    {
      "channel": 3,
      "note": 61,
      "start": 19.2692,
      "duration": 0.0227,
      "velocity": 119,
      "chip": "ym2612"
    },
    {
      "channel": 4,
      "note": 66,
      "start": 19.5004,
      "duration": 0.2574,
      "velocity": 91,
      "chip": "ym2612"
    },
    {
      "channel": 0,
      "note": 59,
      "start": 19.5771,
      "duration": 0.2574,
      "velocity": 91,
      "chip": "ym2612"
    },
    {
      "channel": 3,
      "note": 61,
      "start": 19.5798,
      "duration": 0.0227,
      "velocity": 119,
      "chip": "ym2612"
    },
    {
      "channel": 4,
      "note": 59,
      "start": 19.811,
      "duration": 0.2581,
      "velocity": 91,
      "chip": "ym2612"
    },
    {
      "channel": 0,
      "note": 54,
      "start": 19.8883,
      "duration": 0.2569,
      "velocity": 91,
      "chip": "ym2612"
    },
    {
      "channel": 1,
      "note": 54,
      "start": 19.8911,
      "duration": 0.2543,
      "velocity": 119,
      "chip": "ym2612"
    },
    {
      "channel": 2,
      "note": 54,
      "start": 19.8965,
      "duration": 4.9078,
      "velocity": 97,
      "chip": "ym2612"
    },
    {
      "channel": 3,
      "note": 61,
      "start": 19.9026,
      "duration": 0.0887,
      "velocity": 127,
      "chip": "ym2612"
    },
    {
      "channel": 4,
      "note": 54,
      "start": 20.1222,
      "duration": 0.2568,
      "velocity": 91,
      "chip": "ym2612"
    },
    {
      "channel": 5,
      "note": 54,
      "start": 20.1284,
      "duration": 4.9095,
      "velocity": 97,
      "chip": "ym2612"
    },
    {
      "channel": 0,
      "note": 61,
      "start": 20.1983,
      "duration": 0.2583,
      "velocity": 91,
      "chip": "ym2612"
    },
    {
      "channel": 1,
      "note": 54,
      "start": 20.2,
      "duration": 1.8088,
      "velocity": 119,
      "chip": "ym2612"
    },
    {
      "channel": 3,
      "note": 61,
      "start": 20.2023,
      "duration": 0.0986,
      "velocity": 127,
      "chip": "ym2612"
    },
    {
      "channel": 4,
      "note": 61,
      "start": 20.4322,
      "duration": 0.2582,
      "velocity": 91,
      "chip": "ym2612"
    },
    {
      "channel": 0,
      "note": 68,
      "start": 20.5089,
      "duration": 0.2574,
      "velocity": 91,
      "chip": "ym2612"
    },
    {
      "channel": 3,
      "note": 61,
      "start": 20.5145,
      "duration": 0.0199,
      "velocity": 119,
      "chip": "ym2612"
    },
    {
      "channel": 4,
      "note": 68,
      "start": 20.7427,
      "duration": 0.2574,
      "velocity": 91,
      "chip": "ym2612"
    },
    {
      "channel": 0,
      "note": 69,
      "start": 20.8195,
      "duration": 0.2574,
      "velocity": 91,
      "chip": "ym2612"
    },
    {
      "channel": 3,
      "note": 61,
      "start": 20.8218,
      "duration": 0.023,
      "velocity": 119,
      "chip": "ym2612"
    },
    {
      "channel": 4,
      "note": 69,
      "start": 21.0533,
      "duration": 0.2574,
      "velocity": 91,
      "chip": "ym2612"
    },
    {
      "channel": 0,
      "note": 76,
      "start": 21.1301,
      "duration": 0.2574,
      "velocity": 91,
      "chip": "ym2612"
    },
    {
      "channel": 3,
      "note": 61,
      "start": 21.1324,
      "duration": 0.023,
      "velocity": 119,
      "chip": "ym2612"
    },
    {
      "channel": 4,
      "note": 76,
      "start": 21.3639,
      "duration": 0.2574,
      "velocity": 91,
      "chip": "ym2612"
    },
    {
      "channel": 0,
      "note": 69,
      "start": 21.4415,
      "duration": 0.2566,
      "velocity": 91,
      "chip": "ym2612"
    },
    {
      "channel": 3,
      "note": 61,
      "start": 21.4437,
      "duration": 0.0223,
      "velocity": 119,
      "chip": "ym2612"
    },
    {
      "channel": 4,
      "note": 69,
      "start": 21.6754,
      "duration": 0.2565,
      "velocity": 91,
      "chip": "ym2612"
    },
    {
      "channel": 0,
      "note": 68,
      "start": 21.7513,
      "duration": 0.2574,
      "velocity": 91,
      "chip": "ym2612"
    },
    {
      "channel": 3,
      "note": 61,
      "start": 21.7536,
      "duration": 0.0231,
      "velocity": 119,
      "chip": "ym2612"
    },
    {
      "channel": 4,
      "note": 68,
      "start": 21.9851,
      "duration": 0.2574,
      "velocity": 91,
      "chip": "ym2612"
    },
    {
      "channel": 0,
      "note": 61,
      "start": 22.0619,
      "duration": 0.2574,
      "velocity": 91,
      "chip": "ym2612"
    },
    {
      "channel": 1,
      "note": 49,
      "start": 22.0635,
      "duration": 0.2559,
      "velocity": 119,
      "chip": "ym2612"
    },
    {
      "channel": 3,
      "note": 61,
      "start": 22.0689,
      "duration": 0.0954,
      "velocity": 127,
      "chip": "ym2612"
    },
    {
      "channel": 4,
      "note": 61,
      "start": 22.2956,
      "duration": 0.2574,
      "velocity": 91,
      "chip": "ym2612"
    },
    {
      "channel": 0,
      "note": 54,
      "start": 22.3734,
      "duration": 0.2564,
      "velocity": 91,
      "chip": "ym2612"
    },
    {
      "channel": 1,
      "note": 54,
      "start": 22.3751,
      "duration": 0.255,
      "velocity": 119,
      "chip": "ym2612"
    },
    {
      "channel": 3,
      "note": 61,
      "start": 22.3822,
      "duration": 0.0928,
      "velocity": 127,
      "chip": "ym2612"
    },
    {
      "channel": 4,
      "note": 54,
      "start": 22.6072,
      "duration": 0.2564,
      "velocity": 91,
      "chip": "ym2612"
    },
    {
      "channel": 0,
      "note": 61,
      "start": 22.683,
      "duration": 0.2574,
      "velocity": 91,
      "chip": "ym2612"
    },
    {
      "channel": 1,
      "note": 54,
      "start": 22.6847,
      "duration": 1.8088,
      "velocity": 119,
      "chip": "ym2612"
    },
    {
      "channel": 3,
      "note": 61,
      "start": 22.6869,
      "duration": 0.0987,
      "velocity": 127,
      "chip": "ym2612"
    },
    {
      "channel": 4,
      "note": 61,
      "start": 22.9168,
      "duration": 0.2574,
      "velocity": 91,
      "chip": "ym2612"
    },
    {
      "channel": 0,
      "note": 68,
      "start": 22.9936,
      "duration": 0.2574,
      "velocity": 91,
      "chip": "ym2612"
    },
    {
      "channel": 3,
      "note": 61,
      "start": 22.9991,
      "duration": 0.0198,
      "velocity": 119,
      "chip": "ym2612"
    },
    {
      "channel": 4,
      "note": 68,
      "start": 23.2275,
      "duration": 0.2573,
      "velocity": 91,
      "chip": "ym2612"
    },
    {
      "channel": 0,
      "note": 69,
      "start": 23.3042,
      "duration": 0.2574,
      "velocity": 91,
      "chip": "ym2612"
    },
    {
      "channel": 3,
      "note": 61,
      "start": 23.3073,
      "duration": 0.0221,
      "velocity": 119,
      "chip": "ym2612"
    },
    {
      "channel": 4,
      "note": 69,
      "start": 23.538,
      "duration": 0.2574,
      "velocity": 91,
      "chip": "ym2612"
    },
    {
      "channel": 0,
      "note": 76,
      "start": 23.6152,
      "duration": 0.2569,
      "velocity": 91,
      "chip": "ym2612"
    },
    {
      "channel": 3,
      "note": 61,
      "start": 23.6175,
      "duration": 0.0241,
      "velocity": 119,
      "chip": "ym2612"
    },
    {
      "channel": 4,
      "note": 76,
      "start": 23.8486,
      "duration": 0.2582,
      "velocity": 91,
      "chip": "ym2612"
    },
    {
      "channel": 0,
      "note": 69,
      "start": 23.9254,
      "duration": 0.2574,
      "velocity": 91,
      "chip": "ym2612"
    },
    {
      "channel": 3,
      "note": 61,
      "start": 23.9276,
      "duration": 0.023,
      "velocity": 119,
      "chip": "ym2612"
    },
    {
      "channel": 4,
      "note": 69,
      "start": 24.1592,
      "duration": 0.2574,
      "velocity": 91,
      "chip": "ym2612"
    },
    {
      "channel": 0,
      "note": 68,
      "start": 24.2359,
      "duration": 0.2574,
      "velocity": 91,
      "chip": "ym2612"
    },
    {
      "channel": 3,
      "note": 61,
      "start": 24.2383,
      "duration": 0.023,
      "velocity": 119,
      "chip": "ym2612"
    },
    {
      "channel": 4,
      "note": 68,
      "start": 24.4698,
      "duration": 0.2574,
      "velocity": 91,
      "chip": "ym2612"
    },
    {
      "channel": 0,
      "note": 61,
      "start": 24.5465,
      "duration": 0.2574,
      "velocity": 91,
      "chip": "ym2612"
    },
    {
      "channel": 1,
      "note": 49,
      "start": 24.5483,
      "duration": 0.2559,
      "velocity": 119,
      "chip": "ym2612"
    },
    {
      "channel": 3,
      "note": 61,
      "start": 24.5537,
      "duration": 0.0954,
      "velocity": 127,
      "chip": "ym2612"
    },
    {
      "channel": 4,
      "note": 61,
      "start": 24.7804,
      "duration": 0.2574,
      "velocity": 91,
      "chip": "ym2612"
    },
    {
      "channel": 0,
      "note": 52,
      "start": 24.8585,
      "duration": 0.2559,
      "velocity": 91,
      "chip": "ym2612"
    },
    {
      "channel": 1,
      "note": 52,
      "start": 24.8605,
      "duration": 0.2542,
      "velocity": 119,
      "chip": "ym2612"
    },
    {
      "channel": 2,
      "note": 52,
      "start": 24.8622,
      "duration": 4.9115,
      "velocity": 97,
      "chip": "ym2612"
    },
    {
      "channel": 3,
      "note": 61,
      "start": 24.8677,
      "duration": 0.0919,
      "velocity": 127,
      "chip": "ym2612"
    },
    {
      "channel": 4,
      "note": 52,
      "start": 25.0923,
      "duration": 0.256,
      "velocity": 91,
      "chip": "ym2612"
    },
    {
      "channel": 5,
      "note": 52,
      "start": 25.0941,
      "duration": 4.9137,
      "velocity": 97,
      "chip": "ym2612"
    },
    {
      "channel": 0,
      "note": 59,
      "start": 25.1677,
      "duration": 0.2579,
      "velocity": 91,
      "chip": "ym2612"
    },
    {
      "channel": 1,
      "note": 52,
      "start": 25.1694,
      "duration": 1.8088,
      "velocity": 119,
      "chip": "ym2612"
    },
    {
      "channel": 3,
      "note": 61,
      "start": 25.1716,
      "duration": 0.0986,
      "velocity": 127,
      "chip": "ym2612"
    },
    {
      "channel": 4,
      "note": 59,
      "start": 25.402,
      "duration": 0.257,
      "velocity": 91,
      "chip": "ym2612"
    },
    {
      "channel": 0,
      "note": 66,
      "start": 25.4792,
      "duration": 0.2565,
      "velocity": 91,
      "chip": "ym2612"
    },
    {
      "channel": 3,
      "note": 61,
      "start": 25.4848,
      "duration": 0.0189,
      "velocity": 119,
      "chip": "ym2612"
    },
    {
      "channel": 4,
      "note": 66,
      "start": 25.7121,
      "duration": 0.2574,
      "velocity": 91,
      "chip": "ym2612"
    },
    {
      "channel": 0,
      "note": 67,
      "start": 25.7888,
      "duration": 0.2574,
      "velocity": 91,
      "chip": "ym2612"
    },
    {
      "channel": 3,
      "note": 61,
      "start": 25.7921,
      "duration": 0.0221,
      "velocity": 119,
      "chip": "ym2612"
    },
    {
      "channel": 4,
      "note": 67,
      "start": 26.0235,
      "duration": 0.2566,
      "velocity": 91,
      "chip": "ym2612"
    },
    {
      "channel": 0,
      "note": 74,
      "start": 26.0995,
      "duration": 0.2574,
      "velocity": 91,
      "chip": "ym2612"
    },
    {
      "channel": 3,
      "note": 61,
      "start": 26.1017,
      "duration": 0.023,
      "velocity": 119,
      "chip": "ym2612"
    },
    {
      "channel": 4,
      "note": 74,
      "start": 26.3332,
      "duration": 0.2576,
      "velocity": 91,
      "chip": "ym2612"
    },
    {
      "channel": 0,
      "note": 67,
      "start": 26.41,
      "duration": 0.2574,
      "velocity": 91,
      "chip": "ym2612"
    },
    {
      "channel": 3,
      "note": 61,
      "start": 26.4124,
      "duration": 0.0229,
      "velocity": 119,
      "chip": "ym2612"
    },
    {
      "channel": 4,
      "note": 67,
      "start": 26.6439,
      "duration": 0.2574,
      "velocity": 91,
      "chip": "ym2612"
    },
    {
      "channel": 0,
      "note": 66,
      "start": 26.7206,
      "duration": 0.2574,
      "velocity": 91,
      "chip": "ym2612"
    },
    {
      "channel": 3,
      "note": 61,
      "start": 26.7238,
      "duration": 0.0222,
      "velocity": 119,
      "chip": "ym2612"
    },
    {
      "channel": 4,
      "note": 66,
      "start": 26.9544,
      "duration": 0.2579,
      "velocity": 91,
      "chip": "ym2612"
    },
    {
      "channel": 0,
      "note": 59,
      "start": 27.0312,
      "duration": 0.2574,
      "velocity": 91,
      "chip": "ym2612"
    },
    {
      "channel": 1,
      "note": 47,
      "start": 27.0329,
      "duration": 0.2559,
      "velocity": 119,
      "chip": "ym2612"
    },
    {
      "channel": 3,
      "note": 61,
      "start": 27.0383,
      "duration": 0.0954,
      "velocity": 127,
      "chip": "ym2612"
    },
    {
      "channel": 4,
      "note": 59,
      "start": 27.2659,
      "duration": 0.2574,
      "velocity": 91,
      "chip": "ym2612"
    },
    {
      "channel": 0,
      "note": 52,
      "start": 27.342,
      "duration": 0.2573,
      "velocity": 91,
      "chip": "ym2612"
    },
    {
      "channel": 1,
      "note": 52,
      "start": 27.3436,
      "duration": 0.2558,
      "velocity": 119,
      "chip": "ym2612"
    },
    {
      "channel": 3,
      "note": 61,
      "start": 27.3507,
      "duration": 0.0937,
      "velocity": 127,
      "chip": "ym2612"
    },
    {
      "channel": 4,
      "note": 52,
      "start": 27.5759,
      "duration": 0.2571,
      "velocity": 91,
      "chip": "ym2612"
    },
    {
      "channel": 0,
      "note": 59,
      "start": 27.6524,
      "duration": 0.2574,
      "velocity": 91,
      "chip": "ym2612"
    },
    {
      "channel": 1,
      "note": 52,
      "start": 27.654,
      "duration": 1.8088,
      "velocity": 119,
      "chip": "ym2612"
    },
    {
      "channel": 3,
      "note": 61,
      "start": 27.6571,
      "duration": 0.0978,
      "velocity": 127,
      "chip": "ym2612"
    },
    {
      "channel": 4,
      "note": 59,
      "start": 27.8862,
      "duration": 0.2574,
      "velocity": 91,
      "chip": "ym2612"
    },
    {
      "channel": 0,
      "note": 66,
      "start": 27.9629,
      "duration": 0.2574,
      "velocity": 91,
      "chip": "ym2612"
    },
    {
      "channel": 3,
      "note": 61,
      "start": 27.9685,
      "duration": 0.0198,
      "velocity": 119,
      "chip": "ym2612"
    },
    {
      "channel": 4,
      "note": 66,
      "start": 28.1968,
      "duration": 0.2574,
      "velocity": 91,
      "chip": "ym2612"
    },
    {
      "channel": 0,
      "note": 67,
      "start": 28.2744,
      "duration": 0.2566,
      "velocity": 91,
      "chip": "ym2612"
    },
    {
      "channel": 3,
      "note": 61,
      "start": 28.2767,
      "duration": 0.0222,
      "velocity": 119,
      "chip": "ym2612"
    },
    {
      "channel": 4,
      "note": 67,
      "start": 28.5082,
      "duration": 0.2566,
      "velocity": 91,
      "chip": "ym2612"
    },
    {
      "channel": 0,
      "note": 74,
      "start": 28.5842,
      "duration": 0.2573,
      "velocity": 91,
      "chip": "ym2612"
    },
    {
      "channel": 3,
      "note": 61,
      "start": 28.5865,
      "duration": 0.023,
      "velocity": 119,
      "chip": "ym2612"
    },
    {
      "channel": 4,
      "note": 74,
      "start": 28.818,
      "duration": 0.2574,
      "velocity": 91,
      "chip": "ym2612"
    },
    {
      "channel": 0,
      "note": 67,
      "start": 28.8947,
      "duration": 0.2574,
      "velocity": 91,
      "chip": "ym2612"
    },
    {
      "channel": 3,
      "note": 61,
      "start": 28.8971,
      "duration": 0.023,
      "velocity": 119,
      "chip": "ym2612"
    },
    {
      "channel": 4,
      "note": 67,
      "start": 29.1285,
      "duration": 0.2574,
      "velocity": 91,
      "chip": "ym2612"
    },
    {
      "channel": 0,
      "note": 66,
      "start": 29.2053,
      "duration": 0.2574,
      "velocity": 91,
      "chip": "ym2612"
    },
    {
      "channel": 3,
      "note": 61,
      "start": 29.2085,
      "duration": 0.0221,
      "velocity": 119,
      "chip": "ym2612"
    },
    {
      "channel": 4,
      "note": 66,
      "start": 29.44,
      "duration": 0.2566,
      "velocity": 91,
      "chip": "ym2612"
    },
    {
      "channel": 0,
      "note": 59,
      "start": 29.5159,
      "duration": 0.2575,
      "velocity": 91,
      "chip": "ym2612"
    },
    {
      "channel": 1,
      "note": 47,
      "start": 29.5176,
      "duration": 0.256,
      "velocity": 119,
      "chip": "ym2612"
    },
    {
      "channel": 3,
      "note": 61,
      "start": 29.5238,
      "duration": 0.0946,
      "velocity": 127,
      "chip": "ym2612"
    },
    {
      "channel": 4,
      "note": 59,
      "start": 29.7497,
      "duration": 0.2578,
      "velocity": 91,
      "chip": "ym2612"
    },
    {
      "channel": 0,
      "note": 54,
      "start": 29.8271,
      "duration": 0.2568,
      "velocity": 91,
      "chip": "ym2612"
    },
    {
      "channel": 1,
      "note": 54,
      "start": 29.829,
      "duration": 0.255,
      "velocity": 119,
      "chip": "ym2612"
    },
    {
      "channel": 2,
      "note": 54,
      "start": 29.8344,
      "duration": 4.9087,
      "velocity": 97,
      "chip": "ym2612"
    },
    {
      "channel": 3,
      "note": 61,
      "start": 29.8407,
      "duration": 0.0884,
      "velocity": 127,
      "chip": "ym2612"
    },
    {
      "channel": 4,
      "note": 54,
      "start": 30.0609,
      "duration": 0.2568,
      "velocity": 91,
      "chip": "ym2612"
    },
    {
      "channel": 5,
      "note": 54,
      "start": 30.0662,
      "duration": 4.9105,
      "velocity": 97,
      "chip": "ym2612"
    },
    {
      "channel": 0,
      "note": 61,
      "start": 30.1371,
      "duration": 0.2574,
      "velocity": 91,
      "chip": "ym2612"
    },
    {
      "channel": 1,
      "note": 54,
      "start": 30.1387,
      "duration": 1.8089,
      "velocity": 119,
      "chip": "ym2612"
    },
    {
      "channel": 3,
      "note": 61,
      "start": 30.1418,
      "duration": 0.0986,
      "velocity": 127,
      "chip": "ym2612"
    },
    {
      "channel": 4,
      "note": 61,
      "start": 30.3709,
      "duration": 0.2574,
      "velocity": 91,
      "chip": "ym2612"
    },
    {
      "channel": 0,
      "note": 68,
      "start": 30.4476,
      "duration": 0.2574,
      "velocity": 91,
      "chip": "ym2612"
    },
    {
      "channel": 3,
      "note": 61,
      "start": 30.4532,
      "duration": 0.0207,
      "velocity": 119,
      "chip": "ym2612"
    },
    {
      "channel": 4,
      "note": 68,
      "start": 30.6815,
      "duration": 0.2574,
      "velocity": 91,
      "chip": "ym2612"
    },
    {
      "channel": 0,
      "note": 69,
      "start": 30.7591,
      "duration": 0.2566,
      "velocity": 91,
      "chip": "ym2612"
    },
    {
      "channel": 3,
      "note": 61,
      "start": 30.7614,
      "duration": 0.0225,
      "velocity": 119,
      "chip": "ym2612"
    },
    {
      "channel": 4,
      "note": 69,
      "start": 30.9923,
      "duration": 0.2572,
      "velocity": 91,
      "chip": "ym2612"
    },
    {
      "channel": 0,
      "note": 76,
      "start": 31.0689,
      "duration": 0.2574,
      "velocity": 91,
      "chip": "ym2612"
    },
    {
      "channel": 3,
      "note": 61,
      "start": 31.0712,
      "duration": 0.023,
      "velocity": 119,
      "chip": "ym2612"
    },
    {
      "channel": 4,
      "note": 76,
      "start": 31.3026,
      "duration": 0.2574,
      "velocity": 91,
      "chip": "ym2612"
    },
    {
      "channel": 0,
      "note": 69,
      "start": 31.3794,
      "duration": 0.2574,
      "velocity": 91,
      "chip": "ym2612"
    },
    {
      "channel": 3,
      "note": 61,
      "start": 31.3817,
      "duration": 0.023,
      "velocity": 119,
      "chip": "ym2612"
    },
    {
      "channel": 4,
      "note": 69,
      "start": 31.6132,
      "duration": 0.2574,
      "velocity": 91,
      "chip": "ym2612"
    },
    {
      "channel": 0,
      "note": 68,
      "start": 31.6908,
      "duration": 0.2566,
      "velocity": 91,
      "chip": "ym2612"
    },
    {
      "channel": 3,
      "note": 61,
      "start": 31.6931,
      "duration": 0.0222,
      "velocity": 119,
      "chip": "ym2612"
    },
    {
      "channel": 4,
      "note": 68,
      "start": 31.9247,
      "duration": 0.2565,
      "velocity": 91,
      "chip": "ym2612"
    },
    {
      "channel": 0,
      "note": 61,
      "start": 32.0006,
      "duration": 0.2574,
      "velocity": 91,
      "chip": "ym2612"
    },
    {
      "channel": 1,
      "note": 49,
      "start": 32.0023,
      "duration": 0.2559,
      "velocity": 119,
      "chip": "ym2612"
    },
    {
      "channel": 3,
      "note": 61,
      "start": 32.0085,
      "duration": 0.0946,
      "velocity": 127,
      "chip": "ym2612"
    },
    {
      "channel": 4,
      "note": 61,
      "start": 32.2344,
      "duration": 0.2575,
      "velocity": 91,
      "chip": "ym2612"
    },
    {
      "channel": 0,
      "note": 54,
      "start": 32.3113,
      "duration": 0.2576,
      "velocity": 91,
      "chip": "ym2612"
    },
    {
      "channel": 1,
      "note": 54,
      "start": 32.3129,
      "duration": 0.2562,
      "velocity": 119,
      "chip": "ym2612"
    },
    {
      "channel": 3,
      "note": 61,
      "start": 32.32,
      "duration": 0.0937,
      "velocity": 127,
      "chip": "ym2612"
    },
    {
      "channel": 4,
      "note": 54,
      "start": 32.5453,
      "duration": 0.2571,
      "velocity": 91,
      "chip": "ym2612"
    },
    {
      "channel": 0,
      "note": 61,
      "start": 32.6233,
      "duration": 0.2558,
      "velocity": 91,
      "chip": "ym2612"
    },
    {
      "channel": 1,
      "note": 54,
      "start": 32.625,
      "duration": 1.8081,
      "velocity": 119,
      "chip": "ym2612"
    },
    {
      "channel": 3,
      "note": 61,
      "start": 32.6272,
      "duration": 0.0971,
      "velocity": 127,
      "chip": "ym2612"
    },
    {
      "channel": 4,
      "note": 61,
      "start": 32.8556,
      "duration": 0.2574,
      "velocity": 91,
      "chip": "ym2612"
    },
    {
      "channel": 0,
      "note": 68,
      "start": 32.9324,
      "duration": 0.2576,
      "velocity": 91,
      "chip": "ym2612"
    },
    {
      "channel": 3,
      "note": 61,
      "start": 32.9378,
      "duration": 0.0198,
      "velocity": 119,
      "chip": "ym2612"
    },
    {
      "channel": 4,
      "note": 68,
      "start": 33.1661,
      "duration": 0.2581,
      "velocity": 91,
      "chip": "ym2612"
    },
    {
      "channel": 0,
      "note": 69,
      "start": 33.2429,
      "duration": 0.2574,
      "velocity": 91,
      "chip": "ym2612"
    },
    {
      "channel": 3,
      "note": 61,
      "start": 33.2452,
      "duration": 0.023,
      "velocity": 119,
      "chip": "ym2612"
    },
    {
      "channel": 4,
      "note": 69,
      "start": 33.4768,
      "duration": 0.2574,
      "velocity": 91,
      "chip": "ym2612"
    },
    {
      "channel": 0,
      "note": 76,
      "start": 33.5535,
      "duration": 0.2574,
      "velocity": 91,
      "chip": "ym2612"
    },
    {
      "channel": 3,
      "note": 61,
      "start": 33.5566,
      "duration": 0.0222,
      "velocity": 119,
      "chip": "ym2612"
    },
    {
      "channel": 4,
      "note": 76,
      "start": 33.7873,
      "duration": 0.2574,
      "velocity": 91,
      "chip": "ym2612"
    },
    {
      "channel": 0,
      "note": 69,
      "start": 33.8641,
      "duration": 0.2574,
      "velocity": 91,
      "chip": "ym2612"
    },
    {
      "channel": 3,
      "note": 61,
      "start": 33.8664,
      "duration": 0.0239,
      "velocity": 119,
      "chip": "ym2612"
    },
    {
      "channel": 4,
      "note": 69,
      "start": 34.0979,
      "duration": 0.2576,
      "velocity": 91,
      "chip": "ym2612"
    },
    {
      "channel": 0,
      "note": 68,
      "start": 34.1748,
      "duration": 0.2581,
      "velocity": 91,
      "chip": "ym2612"
    },
    {
      "channel": 3,
      "note": 61,
      "start": 34.1771,
      "duration": 0.0229,
      "velocity": 119,
      "chip": "ym2612"
    },
    {
      "channel": 4,
      "note": 68,
      "start": 34.4099,
      "duration": 0.256,
      "velocity": 91,
      "chip": "ym2612"
    },
    {
      "channel": 0,
      "note": 61,
      "start": 34.4853,
      "duration": 0.2574,
      "velocity": 91,
      "chip": "ym2612"
    },
    {
      "channel": 1,
      "note": 49,
      "start": 34.4869,
      "duration": 0.2559,
      "velocity": 119,
      "chip": "ym2612"
    },
    {
      "channel": 3,
      "note": 61,
      "start": 34.4932,
      "duration": 0.0946,
      "velocity": 127,
      "chip": "ym2612"
    },
    {
      "channel": 4,
      "note": 61,
      "start": 34.719,
      "duration": 0.2574,
      "velocity": 91,
      "chip": "ym2612"
    },
    {
      "channel": 0,
      "note": 52,
      "start": 34.7964,
      "duration": 0.2568,
      "velocity": 91,
      "chip": "ym2612"
    },
    {
      "channel": 1,
      "note": 52,
      "start": 34.7984,
      "duration": 0.2551,
      "velocity": 119,
      "chip": "ym2612"
    },
    {
      "channel": 2,
      "note": 52,
      "start": 34.8002,
      "duration": 4.9123,
      "velocity": 97,
      "chip": "ym2612"
    },
    {
      "channel": 3,
      "note": 61,
      "start": 34.8056,
      "duration": 0.0927,
      "velocity": 127,
      "chip": "ym2612"
    },
    {
      "channel": 4,
      "note": 52,
      "start": 35.0302,
      "duration": 0.2568,
      "velocity": 91,
      "chip": "ym2612"
    },
    {
      "channel": 5,
      "note": 52,
      "start": 35.032,
      "duration": 4.9141,
      "velocity": 97,
      "chip": "ym2612"
    },
    {
      "channel": 0,
      "note": 59,
      "start": 35.1073,
      "duration": 0.2566,
      "velocity": 91,
      "chip": "ym2612"
    },
    {
      "channel": 1,
      "note": 52,
      "start": 35.1089,
      "duration": 1.808,
      "velocity": 119,
      "chip": "ym2612"
    },
    {
      "channel": 3,
      "note": 61,
      "start": 35.1112,
      "duration": 0.0978,
      "velocity": 127,
      "chip": "ym2612"
    },
    {
      "channel": 4,
      "note": 59,
      "start": 35.3411,
      "duration": 0.2566,
      "velocity": 91,
      "chip": "ym2612"
    },
    {
      "channel": 0,
      "note": 66,
      "start": 35.417,
      "duration": 0.2574,
      "velocity": 91,
      "chip": "ym2612"
    },
    {
      "channel": 3,
      "note": 61,
      "start": 35.4234,
      "duration": 0.019,
      "velocity": 119,
      "chip": "ym2612"
    },
    {
      "channel": 4,
      "note": 66,
      "start": 35.6509,
      "duration": 0.2574,
      "velocity": 91,
      "chip": "ym2612"
    },
    {
      "channel": 0,
      "note": 67,
      "start": 35.7276,
      "duration": 0.2574,
      "velocity": 91,
      "chip": "ym2612"
    },
    {
      "channel": 3,
      "note": 61,
      "start": 35.7299,
      "duration": 0.023,
      "velocity": 119,
      "chip": "ym2612"
    },
    {
      "channel": 4,
      "note": 67,
      "start": 35.9614,
      "duration": 0.2582,
      "velocity": 91,
      "chip": "ym2612"
    },
    {
      "channel": 0,
      "note": 74,
      "start": 36.0382,
      "duration": 0.2574,
      "velocity": 91,
      "chip": "ym2612"
    },
    {
      "channel": 3,
      "note": 61,
      "start": 36.0414,
      "duration": 0.0221,
      "velocity": 119,
      "chip": "ym2612"
    },
    {
      "channel": 4,
      "note": 74,
      "start": 36.272,
      "duration": 0.2574,
      "velocity": 91,
      "chip": "ym2612"
    },
    {
      "channel": 0,
      "note": 67,
      "start": 36.3488,
      "duration": 0.258,
      "velocity": 91,
      "chip": "ym2612"
    },
    {
      "channel": 3,
      "note": 61,
      "start": 36.3511,
      "duration": 0.0231,
      "velocity": 119,
      "chip": "ym2612"
    },
    {
      "channel": 4,
      "note": 67,
      "start": 36.5826,
      "duration": 0.2583,
      "velocity": 91,
      "chip": "ym2612"
    },
    {
      "channel": 0,
      "note": 66,
      "start": 36.6593,
      "duration": 0.2574,
      "velocity": 91,
      "chip": "ym2612"
    },
    {
      "channel": 3,
      "note": 61,
      "start": 36.6617,
      "duration": 0.023,
      "velocity": 119,
      "chip": "ym2612"
    },
    {
      "channel": 4,
      "note": 66,
      "start": 36.8932,
      "duration": 0.2574,
      "velocity": 91,
      "chip": "ym2612"
    },
    {
      "channel": 0,
      "note": 59,
      "start": 36.97,
      "duration": 0.2574,
      "velocity": 91,
      "chip": "ym2612"
    },
    {
      "channel": 1,
      "note": 47,
      "start": 36.9716,
      "duration": 0.2559,
      "velocity": 119,
      "chip": "ym2612"
    },
    {
      "channel": 3,
      "note": 61,
      "start": 36.9778,
      "duration": 0.0956,
      "velocity": 127,
      "chip": "ym2612"
    },
    {
      "channel": 4,
      "note": 59,
      "start": 37.2038,
      "duration": 0.2573,
      "velocity": 91,
      "chip": "ym2612"
    },
    {
      "channel": 0,
      "note": 52,
      "start": 37.2807,
      "duration": 0.2572,
      "velocity": 91,
      "chip": "ym2612"
    },
    {
      "channel": 1,
      "note": 52,
      "start": 37.2824,
      "duration": 0.2558,
      "velocity": 119,
      "chip": "ym2612"
    },
    {
      "channel": 3,
      "note": 61,
      "start": 37.2906,
      "duration": 0.0924,
      "velocity": 127,
      "chip": "ym2612"
    },
    {
      "channel": 4,
      "note": 52,
      "start": 37.5145,
      "duration": 0.2572,
      "velocity": 91,
      "chip": "ym2612"
    },
    {
      "channel": 0,
      "note": 59,
      "start": 37.5915,
      "duration": 0.2571,
      "velocity": 91,
      "chip": "ym2612"
    },
    {
      "channel": 1,
      "note": 52,
      "start": 37.5931,
      "duration": 1.8085,
      "velocity": 119,
      "chip": "ym2612"
    },
    {
      "channel": 3,
      "note": 61,
      "start": 37.5953,
      "duration": 0.0983,
      "velocity": 127,
      "chip": "ym2612"
    },
    {
      "channel": 4,
      "note": 59,
      "start": 37.8257,
      "duration": 0.2566,
      "velocity": 91,
      "chip": "ym2612"
    },
    {
      "channel": 0,
      "note": 66,
      "start": 37.9017,
      "duration": 0.2573,
      "velocity": 91,
      "chip": "ym2612"
    },
    {
      "channel": 3,
      "note": 61,
      "start": 37.9081,
      "duration": 0.019,
      "velocity": 119,
      "chip": "ym2612"
    },
    {
      "channel": 4,
      "note": 66,
      "start": 38.1355,
      "duration": 0.2574,
      "velocity": 91,
      "chip": "ym2612"
    },
    {
      "channel": 0,
      "note": 67,
      "start": 38.2123,
      "duration": 0.2574,
      "velocity": 91,
      "chip": "ym2612"
    },
    {
      "channel": 3,
      "note": 61,
      "start": 38.2146,
      "duration": 0.023,
      "velocity": 119,
      "chip": "ym2612"
    },
    {
      "channel": 4,
      "note": 67,
      "start": 38.4461,
      "duration": 0.2574,
      "velocity": 91,
      "chip": "ym2612"
    },
    {
      "channel": 0,
      "note": 74,
      "start": 38.5237,
      "duration": 0.2566,
      "velocity": 91,
      "chip": "ym2612"
    },
    {
      "channel": 3,
      "note": 61,
      "start": 38.5293,
      "duration": 0.0961,
      "velocity": 127,
      "chip": "ym2612"
    },
    {
      "channel": 4,
      "note": 74,
      "start": 38.7575,
      "duration": 0.2566,
      "velocity": 91,
      "chip": "ym2612"
    },
    {
      "channel": 0,
      "note": 67,
      "start": 38.8334,
      "duration": 0.2574,
      "velocity": 91,
      "chip": "ym2612"
    },
    {
      "channel": 3,
      "note": 61,
      "start": 38.8397,
      "duration": 0.019,
      "velocity": 119,
      "chip": "ym2612"
    },
    {
      "channel": 4,
      "note": 67,
      "start": 39.0673,
      "duration": 0.2574,
      "velocity": 91,
      "chip": "ym2612"
    },
    {
      "channel": 0,
      "note": 66,
      "start": 39.1441,
      "duration": 0.2574,
      "velocity": 91,
      "chip": "ym2612"
    },
    {
      "channel": 3,
      "note": 61,
      "start": 39.1463,
      "duration": 0.023,
      "velocity": 119,
      "chip": "ym2612"
    },
    {
      "channel": 4,
      "note": 66,
      "start": 39.3778,
      "duration": 0.2574,
      "velocity": 91,
      "chip": "ym2612"
    },
    {
      "channel": 0,
      "note": 59,
      "start": 39.4546,
      "duration": 0.2575,
      "velocity": 91,
      "chip": "ym2612"
    },
    {
      "channel": 1,
      "note": 47,
      "start": 39.4572,
      "duration": 0.2551,
      "velocity": 119,
      "chip": "ym2612"
    },
    {
      "channel": 3,
      "note": 61,
      "start": 39.4626,
      "duration": 0.0946,
      "velocity": 127,
      "chip": "ym2612"
    },
    {
      "channel": 4,
      "note": 59,
      "start": 39.6885,
      "duration": 0.2574,
      "velocity": 91,
      "chip": "ym2612"
    },
    {
      "channel": 0,
      "note": 54,
      "start": 39.7663,
      "duration": 0.2571,
      "velocity": 91,
      "chip": "ym2612"
    },
    {
      "channel": 1,
      "note": 54,
      "start": 39.7682,
      "duration": 0.2553,
      "velocity": 119,
      "chip": "ym2612"
    },
    {
      "channel": 2,
      "note": 54,
      "start": 39.7744,
      "duration": 4.9074,
      "velocity": 97,
      "chip": "ym2612"
    },
    {
      "channel": 3,
      "note": 61,
      "start": 39.7799,
      "duration": 0.0878,
      "velocity": 127,
      "chip": "ym2612"
    },
    {
      "channel": 4,
      "note": 54,
      "start": 39.9996,
      "duration": 0.2578,
      "velocity": 91,
      "chip": "ym2612"
    },
    {
      "channel": 5,
      "note": 54,
      "start": 40.0049,
      "duration": 4.9105,
      "velocity": 97,
      "chip": "ym2612"
    },
    {
      "channel": 0,
      "note": 61,
      "start": 40.0758,
      "duration": 0.2574,
      "velocity": 91,
      "chip": "ym2612"
    },
    {
      "channel": 1,
      "note": 54,
      "start": 40.0775,
      "duration": 1.8089,
      "velocity": 119,
      "chip": "ym2612"
    },
    {
      "channel": 3,
      "note": 61,
      "start": 40.0797,
      "duration": 0.0987,
      "velocity": 127,
      "chip": "ym2612"
    },
    {
      "channel": 4,
      "note": 61,
      "start": 40.3096,
      "duration": 0.2573,
      "velocity": 91,
      "chip": "ym2612"
    },
    {
      "channel": 0,
      "note": 68,
      "start": 40.3863,
      "duration": 0.2575,
      "velocity": 91,
      "chip": "ym2612"
    },
    {
      "channel": 3,
      "note": 61,
      "start": 40.3927,
      "duration": 0.0191,
      "velocity": 119,
      "chip": "ym2612"
    },
    {
      "channel": 4,
      "note": 68,
      "start": 40.6202,
      "duration": 0.2574,
      "velocity": 91,
      "chip": "ym2612"
    },
    {
      "channel": 0,
      "note": 69,
      "start": 40.697,
      "duration": 0.2574,
      "velocity": 91,
      "chip": "ym2612"
    },
    {
      "channel": 3,
      "note": 61,
      "start": 40.6993,
      "duration": 0.0238,
      "velocity": 119,
      "chip": "ym2612"
    },
    {
      "channel": 4,
      "note": 69,
      "start": 40.9307,
      "duration": 0.2574,
      "velocity": 91,
      "chip": "ym2612"
    },
    {
      "channel": 0,
      "note": 76,
      "start": 41.0081,
      "duration": 0.2569,
      "velocity": 91,
      "chip": "ym2612"
    },
    {
      "channel": 3,
      "note": 61,
      "start": 41.0137,
      "duration": 0.0964,
      "velocity": 127,
      "chip": "ym2612"
    },
    {
      "channel": 4,
      "note": 76,
      "start": 41.2423,
      "duration": 0.2566,
      "velocity": 91,
      "chip": "ym2612"
    },
    {
      "channel": 0,
      "note": 69,
      "start": 41.3182,
      "duration": 0.258,
      "velocity": 91,
      "chip": "ym2612"
    },
    {
      "channel": 3,
      "note": 61,
      "start": 41.3245,
      "duration": 0.019,
      "velocity": 119,
      "chip": "ym2612"
    },
    {
      "channel": 4,
      "note": 69,
      "start": 41.5524,
      "duration": 0.2569,
      "velocity": 91,
      "chip": "ym2612"
    },
    {
      "channel": 0,
      "note": 68,
      "start": 41.6287,
      "duration": 0.2574,
      "velocity": 91,
      "chip": "ym2612"
    },
    {
      "channel": 3,
      "note": 61,
      "start": 41.631,
      "duration": 0.023,
      "velocity": 119,
      "chip": "ym2612"
    },
    {
      "channel": 4,
      "note": 68,
      "start": 41.8625,
      "duration": 0.2574,
      "velocity": 91,
      "chip": "ym2612"
    },
    {
      "channel": 0,
      "note": 61,
      "start": 41.9402,
      "duration": 0.2566,
      "velocity": 91,
      "chip": "ym2612"
    },
    {
      "channel": 1,
      "note": 49,
      "start": 41.9418,
      "duration": 0.2551,
      "velocity": 119,
      "chip": "ym2612"
    },
    {
      "channel": 3,
      "note": 61,
      "start": 41.9472,
      "duration": 0.0946,
      "velocity": 127,
      "chip": "ym2612"
    },
    {
      "channel": 4,
      "note": 61,
      "start": 42.1739,
      "duration": 0.2566,
      "velocity": 91,
      "chip": "ym2612"
    },
    {
      "channel": 0,
      "note": 54,
      "start": 42.25,
      "duration": 0.2573,
      "velocity": 91,
      "chip": "ym2612"
    },
    {
      "channel": 1,
      "note": 54,
      "start": 42.2517,
      "duration": 0.2558,
      "velocity": 119,
      "chip": "ym2612"
    },
    {
      "channel": 3,
      "note": 61,
      "start": 42.2596,
      "duration": 0.0928,
      "velocity": 127,
      "chip": "ym2612"
    },
    {
      "channel": 4,
      "note": 54,
      "start": 42.4839,
      "duration": 0.2573,
      "velocity": 91,
      "chip": "ym2612"
    },
    {
      "channel": 0,
      "note": 61,
      "start": 42.5605,
      "duration": 0.2574,
      "velocity": 91,
      "chip": "ym2612"
    },
    {
      "channel": 1,
      "note": 54,
      "start": 42.5621,
      "duration": 1.8089,
      "velocity": 119,
      "chip": "ym2612"
    },
    {
      "channel": 3,
      "note": 61,
      "start": 42.5644,
      "duration": 0.0987,
      "velocity": 127,
      "chip": "ym2612"
    },
    {
      "channel": 4,
      "note": 61,
      "start": 42.7943,
      "duration": 0.2574,
      "velocity": 91,
      "chip": "ym2612"
    },
    {
      "channel": 0,
      "note": 68,
      "start": 42.871,
      "duration": 0.2574,
      "velocity": 91,
      "chip": "ym2612"
    },
    {
      "channel": 3,
      "note": 61,
      "start": 42.8774,
      "duration": 0.019,
      "velocity": 119,
      "chip": "ym2612"
    },
    {
      "channel": 4,
      "note": 68,
      "start": 43.1049,
      "duration": 0.2579,
      "velocity": 91,
      "chip": "ym2612"
    },
    {
      "channel": 0,
      "note": 69,
      "start": 43.1817,
      "duration": 0.2583,
      "velocity": 91,
      "chip": "ym2612"
    },
    {
      "channel": 3,
      "note": 61,
      "start": 43.1839,
      "duration": 0.0236,
      "velocity": 119,
      "chip": "ym2612"
    },
    {
      "channel": 4,
      "note": 69,
      "start": 43.4164,
      "duration": 0.2573,
      "velocity": 91,
      "chip": "ym2612"
    },
    {
      "channel": 0,
      "note": 76,
      "start": 43.4923,
      "duration": 0.2574,
      "velocity": 91,
      "chip": "ym2612"
    },
    {
      "channel": 3,
      "note": 61,
      "start": 43.4978,
      "duration": 0.097,
      "velocity": 127,
      "chip": "ym2612"
    },
    {
      "channel": 4,
      "note": 76,
      "start": 43.7261,
      "duration": 0.2574,
      "velocity": 91,
      "chip": "ym2612"
    },
    {
      "channel": 0,
      "note": 69,
      "start": 43.8028,
      "duration": 0.2574,
      "velocity": 91,
      "chip": "ym2612"
    },
    {
      "channel": 3,
      "note": 61,
      "start": 43.8091,
      "duration": 0.019,
      "velocity": 119,
      "chip": "ym2612"
    },
    {
      "channel": 4,
      "note": 69,
      "start": 44.0366,
      "duration": 0.2574,
      "velocity": 91,
      "chip": "ym2612"
    },
    {
      "channel": 0,
      "note": 68,
      "start": 44.1134,
      "duration": 0.2574,
      "velocity": 91,
      "chip": "ym2612"
    },
    {
      "channel": 3,
      "note": 61,
      "start": 44.1157,
      "duration": 0.023,
      "velocity": 119,
      "chip": "ym2612"
    },
    {
      "channel": 4,
      "note": 68,
      "start": 44.3472,
      "duration": 0.2574,
      "velocity": 91,
      "chip": "ym2612"
    },
    {
      "channel": 0,
      "note": 61,
      "start": 44.4248,
      "duration": 0.2566,
      "velocity": 91,
      "chip": "ym2612"
    },
    {
      "channel": 1,
      "note": 49,
      "start": 44.4264,
      "duration": 0.2551,
      "velocity": 119,
      "chip": "ym2612"
    },
    {
      "channel": 3,
      "note": 61,
      "start": 44.4318,
      "duration": 0.0946,
      "velocity": 127,
      "chip": "ym2612"
    },
    {
      "channel": 4,
      "note": 61,
      "start": 44.6587,
      "duration": 0.2565,
      "velocity": 91,
      "chip": "ym2612"
    },
    {
      "channel": 0,
      "note": 52,
      "start": 44.7351,
      "duration": 0.2568,
      "velocity": 91,
      "chip": "ym2612"
    },
    {
      "channel": 1,
      "note": 52,
      "start": 44.7371,
      "duration": 0.255,
      "velocity": 119,
      "chip": "ym2612"
    },
    {
      "channel": 2,
      "note": 52,
      "start": 44.7389,
      "duration": 4.9123,
      "velocity": 97,
      "chip": "ym2612"
    },
    {
      "channel": 3,
      "note": 61,
      "start": 44.7453,
      "duration": 0.0919,
      "velocity": 127,
      "chip": "ym2612"
    },
    {
      "channel": 4,
      "note": 52,
      "start": 44.969,
      "duration": 0.2568,
      "velocity": 91,
      "chip": "ym2612"
    },
    {
      "channel": 5,
      "note": 52,
      "start": 44.9707,
      "duration": 4.9141,
      "velocity": 97,
      "chip": "ym2612"
    },
    {
      "channel": 0,
      "note": 59,
      "start": 45.0451,
      "duration": 0.2575,
      "velocity": 91,
      "chip": "ym2612"
    },
    {
      "channel": 1,
      "note": 52,
      "start": 45.0468,
      "duration": 1.8097,
      "velocity": 119,
      "chip": "ym2612"
    },
    {
      "channel": 3,
      "note": 61,
      "start": 45.0491,
      "duration": 0.0991,
      "velocity": 127,
      "chip": "ym2612"
    },
    {
      "channel": 4,
      "note": 59,
      "start": 45.279,
      "duration": 0.2574,
      "velocity": 91,
      "chip": "ym2612"
    },
    {
      "channel": 0,
      "note": 66,
      "start": 45.3566,
      "duration": 0.2566,
      "velocity": 91,
      "chip": "ym2612"
    },
    {
      "channel": 3,
      "note": 61,
      "start": 45.3621,
      "duration": 0.0191,
      "velocity": 119,
      "chip": "ym2612"
    },
    {
      "channel": 4,
      "note": 66,
      "start": 45.5904,
      "duration": 0.2566,
      "velocity": 91,
      "chip": "ym2612"
    },
    {
      "channel": 0,
      "note": 67,
      "start": 45.6663,
      "duration": 0.2574,
      "velocity": 91,
      "chip": "ym2612"
    },
    {
      "channel": 3,
      "note": 61,
      "start": 45.6687,
      "duration": 0.023,
      "velocity": 119,
      "chip": "ym2612"
    },
    {
      "channel": 4,
      "note": 67,
      "start": 45.9001,
      "duration": 0.2574,
      "velocity": 91,
      "chip": "ym2612"
    },
    {
      "channel": 0,
      "note": 74,
      "start": 45.9769,
      "duration": 0.2574,
      "velocity": 91,
      "chip": "ym2612"
    },
    {
      "channel": 3,
      "note": 61,
      "start": 45.9825,
      "duration": 0.097,
      "velocity": 127,
      "chip": "ym2612"
    },
    {
      "channel": 4,
      "note": 74,
      "start": 46.2107,
      "duration": 0.2574,
      "velocity": 91,
      "chip": "ym2612"
    },
    {
      "channel": 0,
      "note": 67,
      "start": 46.2875,
      "duration": 0.2574,
      "velocity": 91,
      "chip": "ym2612"
    },
    {
      "channel": 3,
      "note": 61,
      "start": 46.2939,
      "duration": 0.019,
      "velocity": 119,
      "chip": "ym2612"
    },
    {
      "channel": 4,
      "note": 67,
      "start": 46.5213,
      "duration": 0.2574,
      "velocity": 91,
      "chip": "ym2612"
    },
    {
      "channel": 0,
      "note": 66,
      "start": 46.598,
      "duration": 0.2574,
      "velocity": 91,
      "chip": "ym2612"
    },
    {
      "channel": 3,
      "note": 61,
      "start": 46.6003,
      "duration": 0.0239,
      "velocity": 119,
      "chip": "ym2612"
    },
    {
      "channel": 4,
      "note": 66,
      "start": 46.8319,
      "duration": 0.2582,
      "velocity": 91,
      "chip": "ym2612"
    },
    {
      "channel": 0,
      "note": 59,
      "start": 46.909,
      "duration": 0.2571,
      "velocity": 91,
      "chip": "ym2612"
    },
    {
      "channel": 1,
      "note": 47,
      "start": 46.9107,
      "duration": 0.2555,
      "velocity": 119,
      "chip": "ym2612"
    },
    {
      "channel": 3,
      "note": 61,
      "start": 46.9161,
      "duration": 0.095,
      "velocity": 127,
      "chip": "ym2612"
    },
    {
      "channel": 4,
      "note": 59,
      "start": 47.1425,
      "duration": 0.2574,
      "velocity": 91,
      "chip": "ym2612"
    },
    {
      "channel": 0,
      "note": 52,
      "start": 47.2194,
      "duration": 0.2573,
      "velocity": 91,
      "chip": "ym2612"
    },
    {
      "channel": 1,
      "note": 52,
      "start": 47.221,
      "duration": 0.2559,
      "velocity": 119,
      "chip": "ym2612"
    },
    {
      "channel": 3,
      "note": 61,
      "start": 47.2289,
      "duration": 0.0929,
      "velocity": 127,
      "chip": "ym2612"
    },
    {
      "channel": 4,
      "note": 52,
      "start": 47.4532,
      "duration": 0.2573,
      "velocity": 91,
      "chip": "ym2612"
    },
    {
      "channel": 0,
      "note": 59,
      "start": 47.5299,
      "duration": 0.2574,
      "velocity": 91,
      "chip": "ym2612"
    },
    {
      "channel": 1,
      "note": 52,
      "start": 47.5315,
      "duration": 1.8088,
      "velocity": 119,
      "chip": "ym2612"
    },
    {
      "channel": 3,
      "note": 61,
      "start": 47.5337,
      "duration": 0.0986,
      "velocity": 127,
      "chip": "ym2612"
    },
    {
      "channel": 4,
      "note": 59,
      "start": 47.7637,
      "duration": 0.2574,
      "velocity": 91,
      "chip": "ym2612"
    },
    {
      "channel": 0,
      "note": 66,
      "start": 47.8412,
      "duration": 0.2566,
      "velocity": 91,
      "chip": "ym2612"
    },
    {
      "channel": 3,
      "note": 61,
      "start": 47.8468,
      "duration": 0.019,
      "velocity": 119,
      "chip": "ym2612"
    },
    {
      "channel": 4,
      "note": 66,
      "start": 48.0751,
      "duration": 0.2565,
      "velocity": 91,
      "chip": "ym2612"
    },
    {
      "channel": 0,
      "note": 67,
      "start": 48.151,
      "duration": 0.2574,
      "velocity": 91,
      "chip": "ym2612"
    },
    {
      "channel": 3,
      "note": 61,
      "start": 48.1533,
      "duration": 0.023,
      "velocity": 119,
      "chip": "ym2612"
    },
    {
      "channel": 4,
      "note": 67,
      "start": 48.3848,
      "duration": 0.2574,
      "velocity": 91,
      "chip": "ym2612"
    },
    {
      "channel": 0,
      "note": 74,
      "start": 48.4616,
      "duration": 0.2578,
      "velocity": 91,
      "chip": "ym2612"
    },
    {
      "channel": 3,
      "note": 61,
      "start": 48.4671,
      "duration": 0.0969,
      "velocity": 127,
      "chip": "ym2612"
    },
    {
      "channel": 4,
      "note": 74,
      "start": 48.6956,
      "duration": 0.2572,
      "velocity": 91,
      "chip": "ym2612"
    },
    {
      "channel": 0,
      "note": 67,
      "start": 48.7738,
      "duration": 0.2558,
      "velocity": 91,
      "chip": "ym2612"
    },
    {
      "channel": 3,
      "note": 61,
      "start": 48.7793,
      "duration": 0.0182,
      "velocity": 119,
      "chip": "ym2612"
    },
    {
      "channel": 4,
      "note": 67,
      "start": 49.0068,
      "duration": 0.2566,
      "velocity": 91,
      "chip": "ym2612"
    },
    {
      "channel": 0,
      "note": 66,
      "start": 49.0827,
      "duration": 0.2575,
      "velocity": 91,
      "chip": "ym2612"
    },
    {
      "channel": 3,
      "note": 61,
      "start": 49.0851,
      "duration": 0.023,
      "velocity": 119,
      "chip": "ym2612"
    },
    {
      "channel": 4,
      "note": 66,
      "start": 49.3166,
      "duration": 0.2576,
      "velocity": 91,
      "chip": "ym2612"
    },
    {
      "channel": 0,
      "note": 59,
      "start": 49.3934,
      "duration": 0.2574,
      "velocity": 91,
      "chip": "ym2612"
    },
    {
      "channel": 1,
      "note": 47,
      "start": 49.395,
      "duration": 0.2559,
      "velocity": 119,
      "chip": "ym2612"
    },
    {
      "channel": 3,
      "note": 61,
      "start": 49.4004,
      "duration": 0.0954,
      "velocity": 127,
      "chip": "ym2612"
    },
    {
      "channel": 4,
      "note": 59,
      "start": 49.6271,
      "duration": 0.2574,
      "velocity": 91,
      "chip": "ym2612"
    },
    {
      "channel": 0,
      "note": 54,
      "start": 49.7045,
      "duration": 0.2569,
      "velocity": 91,
      "chip": "ym2612"
    },
    {
      "channel": 1,
      "note": 54,
      "start": 49.7073,
      "duration": 0.2543,
      "velocity": 119,
      "chip": "ym2612"
    },
    {
      "channel": 2,
      "note": 54,
      "start": 49.7127,
      "duration": 4.9078,
      "velocity": 97,
      "chip": "ym2612"
    },
    {
      "channel": 3,
      "note": 61,
      "start": 49.7182,
      "duration": 0.0889,
      "velocity": 127,
      "chip": "ym2612"
    },
    {
      "channel": 4,
      "note": 54,
      "start": 49.9383,
      "duration": 0.2568,
      "velocity": 91,
      "chip": "ym2612"
    },
    {
      "channel": 5,
      "note": 54,
      "start": 49.9445,
      "duration": 4.9097,
      "velocity": 97,
      "chip": "ym2612"
    },
    {
      "channel": 0,
      "note": 61,
      "start": 50.0145,
      "duration": 0.2574,
      "velocity": 91,
      "chip": "ym2612"
    },
    {
      "channel": 1,
      "note": 54,
      "start": 50.0162,
      "duration": 1.8088,
      "velocity": 119,
      "chip": "ym2612"
    },
    {
      "channel": 3,
      "note": 61,
      "start": 50.0184,
      "duration": 0.0987,
      "velocity": 127,
      "chip": "ym2612"
    },
    {
      "channel": 4,
      "note": 61,
      "start": 50.2483,
      "duration": 0.2586,
      "velocity": 91,
      "chip": "ym2612"
    },
    {
      "channel": 0,
      "note": 68,
      "start": 50.3251,
      "duration": 0.2583,
      "velocity": 91,
      "chip": "ym2612"
    },
    {
      "channel": 3,
      "note": 61,
      "start": 50.3306,
      "duration": 0.0198,
      "velocity": 119,
      "chip": "ym2612"
    },
    {
      "channel": 4,
      "note": 68,
      "start": 50.56,
      "duration": 0.2563,
      "velocity": 91,
      "chip": "ym2612"
    },
    {
      "channel": 0,
      "note": 69,
      "start": 50.6357,
      "duration": 0.2574,
      "velocity": 91,
      "chip": "ym2612"
    },
    {
      "channel": 3,
      "note": 61,
      "start": 50.638,
      "duration": 0.023,
      "velocity": 119,
      "chip": "ym2612"
    },
    {
      "channel": 4,
      "note": 69,
      "start": 50.8695,
      "duration": 0.2574,
      "velocity": 91,
      "chip": "ym2612"
    },
    {
      "channel": 0,
      "note": 76,
      "start": 50.9463,
      "duration": 0.2574,
      "velocity": 91,
      "chip": "ym2612"
    },
    {
      "channel": 3,
      "note": 61,
      "start": 50.9518,
      "duration": 0.0969,
      "velocity": 127,
      "chip": "ym2612"
    },
    {
      "channel": 4,
      "note": 76,
      "start": 51.1801,
      "duration": 0.2574,
      "velocity": 91,
      "chip": "ym2612"
    },
    {
      "channel": 0,
      "note": 69,
      "start": 51.2577,
      "duration": 0.2566,
      "velocity": 91,
      "chip": "ym2612"
    },
    {
      "channel": 3,
      "note": 61,
      "start": 51.2632,
      "duration": 0.019,
      "velocity": 119,
      "chip": "ym2612"
    },
    {
      "channel": 4,
      "note": 69,
      "start": 51.4915,
      "duration": 0.2565,
      "velocity": 91,
      "chip": "ym2612"
    },
    {
      "channel": 0,
      "note": 68,
      "start": 51.5674,
      "duration": 0.2575,
      "velocity": 91,
      "chip": "ym2612"
    },
    {
      "channel": 3,
      "note": 61,
      "start": 51.5698,
      "duration": 0.023,
      "velocity": 119,
      "chip": "ym2612"
    },
    {
      "channel": 4,
      "note": 68,
      "start": 51.8012,
      "duration": 0.2574,
      "velocity": 91,
      "chip": "ym2612"
    },
    {
      "channel": 0,
      "note": 61,
      "start": 51.878,
      "duration": 0.2574,
      "velocity": 91,
      "chip": "ym2612"
    },
    {
      "channel": 1,
      "note": 49,
      "start": 51.8797,
      "duration": 0.2559,
      "velocity": 119,
      "chip": "ym2612"
    },
    {
      "channel": 3,
      "note": 61,
      "start": 51.8851,
      "duration": 0.0955,
      "velocity": 127,
      "chip": "ym2612"
    },
    {
      "channel": 4,
      "note": 61,
      "start": 52.1119,
      "duration": 0.2581,
      "velocity": 91,
      "chip": "ym2612"
    },
    {
      "channel": 0,
      "note": 54,
      "start": 52.1888,
      "duration": 0.2573,
      "velocity": 91,
      "chip": "ym2612"
    },
    {
      "channel": 1,
      "note": 54,
      "start": 52.1912,
      "duration": 0.255,
      "velocity": 119,
      "chip": "ym2612"
    },
    {
      "channel": 3,
      "note": 61,
      "start": 52.1983,
      "duration": 0.0931,
      "velocity": 127,
      "chip": "ym2612"
    },
    {
      "channel": 4,
      "note": 54,
      "start": 52.4234,
      "duration": 0.2563,
      "velocity": 91,
      "chip": "ym2612"
    },
    {
      "channel": 0,
      "note": 61,
      "start": 52.4992,
      "duration": 0.2574,
      "velocity": 91,
      "chip": "ym2612"
    },
    {
      "channel": 1,
      "note": 54,
      "start": 52.5009,
      "duration": 1.8088,
      "velocity": 119,
      "chip": "ym2612"
    },
    {
      "channel": 3,
      "note": 61,
      "start": 52.5031,
      "duration": 0.0986,
      "velocity": 127,
      "chip": "ym2612"
    },
    {
      "channel": 4,
      "note": 61,
      "start": 52.733,
      "duration": 0.2578,
      "velocity": 91,
      "chip": "ym2612"
    },
    {
      "channel": 0,
      "note": 68,
      "start": 52.8098,
      "duration": 0.2574,
      "velocity": 91,
      "chip": "ym2612"
    },
    {
      "channel": 3,
      "note": 61,
      "start": 52.8153,
      "duration": 0.0198,
      "velocity": 119,
      "chip": "ym2612"
    },
    {
      "channel": 4,
      "note": 68,
      "start": 53.0436,
      "duration": 0.2574,
      "velocity": 91,
      "chip": "ym2612"
    },
    {
      "channel": 0,
      "note": 69,
      "start": 53.1204,
      "duration": 0.2574,
      "velocity": 91,
      "chip": "ym2612"
    },
    {
      "channel": 3,
      "note": 61,
      "start": 53.1235,
      "duration": 0.0222,
      "velocity": 119,
      "chip": "ym2612"
    },
    {
      "channel": 4,
      "note": 69,
      "start": 53.3542,
      "duration": 0.2574,
      "velocity": 91,
      "chip": "ym2612"
    },
    {
      "channel": 0,
      "note": 76,
      "start": 53.431,
      "duration": 0.2574,
      "velocity": 91,
      "chip": "ym2612"
    },
    {
      "channel": 3,
      "note": 61,
      "start": 53.4365,
      "duration": 0.0969,
      "velocity": 127,
      "chip": "ym2612"
    },
    {
      "channel": 4,
      "note": 76,
      "start": 53.6648,
      "duration": 0.2574,
      "velocity": 91,
      "chip": "ym2612"
    },
    {
      "channel": 0,
      "note": 69,
      "start": 53.7416,
      "duration": 0.2574,
      "velocity": 91,
      "chip": "ym2612"
    },
    {
      "channel": 3,
      "note": 61,
      "start": 53.7471,
      "duration": 0.0198,
      "velocity": 119,
      "chip": "ym2612"
    },
    {
      "channel": 4,
      "note": 69,
      "start": 53.9757,
      "duration": 0.257,
      "velocity": 91,
      "chip": "ym2612"
    },
    {
      "channel": 0,
      "note": 68,
      "start": 54.0521,
      "duration": 0.2574,
      "velocity": 91,
      "chip": "ym2612"
    },
    {
      "channel": 3,
      "note": 61,
      "start": 54.0544,
      "duration": 0.0232,
      "velocity": 119,
      "chip": "ym2612"
    },
    {
      "channel": 4,
      "note": 68,
      "start": 54.2859,
      "duration": 0.2574,
      "velocity": 91,
      "chip": "ym2612"
    },
    {
      "channel": 0,
      "note": 61,
      "start": 54.3627,
      "duration": 0.2574,
      "velocity": 91,
      "chip": "ym2612"
    },
    {
      "channel": 1,
      "note": 49,
      "start": 54.3644,
      "duration": 0.2559,
      "velocity": 119,
      "chip": "ym2612"
    },
    {
      "channel": 3,
      "note": 61,
      "start": 54.3698,
      "duration": 0.0954,
      "velocity": 127,
      "chip": "ym2612"
    },
    {
      "channel": 4,
      "note": 61,
      "start": 54.5965,
      "duration": 0.2574,
      "velocity": 91,
      "chip": "ym2612"
    },
    {
      "channel": 0,
      "note": 52,
      "start": 54.6747,
      "duration": 0.256,
      "velocity": 91,
      "chip": "ym2612"
    },
    {
      "channel": 1,
      "note": 52,
      "start": 54.6767,
      "duration": 0.2542,
      "velocity": 119,
      "chip": "ym2612"
    },
    {
      "channel": 2,
      "note": 52,
      "start": 54.6785,
      "duration": 4.9129,
      "velocity": 97,
      "chip": "ym2612"
    },
    {
      "channel": 3,
      "note": 61,
      "start": 54.6839,
      "duration": 0.0919,
      "velocity": 127,
      "chip": "ym2612"
    },
    {
      "channel": 4,
      "note": 52,
      "start": 54.9085,
      "duration": 0.2559,
      "velocity": 91,
      "chip": "ym2612"
    },
    {
      "channel": 5,
      "note": 52,
      "start": 54.9102,
      "duration": 4.9142,
      "velocity": 97,
      "chip": "ym2612"
    },
    {
      "channel": 0,
      "note": 59,
      "start": 54.9839,
      "duration": 0.2574,
      "velocity": 91,
      "chip": "ym2612"
    },
    {
      "channel": 1,
      "note": 52,
      "start": 54.9855,
      "duration": 1.8088,
      "velocity": 119,
      "chip": "ym2612"
    },
    {
      "channel": 3,
      "note": 61,
      "start": 54.9878,
      "duration": 0.0987,
      "velocity": 127,
      "chip": "ym2612"
    },
    {
      "channel": 4,
      "note": 59,
      "start": 55.2177,
      "duration": 0.2574,
      "velocity": 91,
      "chip": "ym2612"
    },
    {
      "channel": 0,
      "note": 66,
      "start": 55.2944,
      "duration": 0.2574,
      "velocity": 91,
      "chip": "ym2612"
    },
    {
      "channel": 3,
      "note": 61,
      "start": 55.3,
      "duration": 0.0199,
      "velocity": 119,
      "chip": "ym2612"
    },
    {
      "channel": 4,
      "note": 66,
      "start": 55.5283,
      "duration": 0.2574,
      "velocity": 91,
      "chip": "ym2612"
    },
    {
      "channel": 0,
      "note": 67,
      "start": 55.6051,
      "duration": 0.2576,
      "velocity": 91,
      "chip": "ym2612"
    },
    {
      "channel": 3,
      "note": 61,
      "start": 55.6082,
      "duration": 0.0222,
      "velocity": 119,
      "chip": "ym2612"
    },
    {
      "channel": 4,
      "note": 67,
      "start": 55.8389,
      "duration": 0.2573,
      "velocity": 91,
      "chip": "ym2612"
    },
    {
      "channel": 0,
      "note": 74,
      "start": 55.9162,
      "duration": 0.2571,
      "velocity": 91,
      "chip": "ym2612"
    },
    {
      "channel": 3,
      "note": 61,
      "start": 55.9217,
      "duration": 0.0964,
      "velocity": 127,
      "chip": "ym2612"
    },
    {
      "channel": 4,
      "note": 74,
      "start": 56.1495,
      "duration": 0.2581,
      "velocity": 91,
      "chip": "ym2612"
    },
    {
      "channel": 0,
      "note": 67,
      "start": 56.2262,
      "duration": 0.2575,
      "velocity": 91,
      "chip": "ym2612"
    },
    {
      "channel": 3,
      "note": 61,
      "start": 56.2317,
      "duration": 0.0199,
      "velocity": 119,
      "chip": "ym2612"
    },
    {
      "channel": 4,
      "note": 67,
      "start": 56.46,
      "duration": 0.2574,
      "velocity": 91,
      "chip": "ym2612"
    },
    {
      "channel": 0,
      "note": 66,
      "start": 56.5368,
      "duration": 0.2574,
      "velocity": 91,
      "chip": "ym2612"
    },
    {
      "channel": 3,
      "note": 61,
      "start": 56.54,
      "duration": 0.0221,
      "velocity": 119,
      "chip": "ym2612"
    },
    {
      "channel": 4,
      "note": 66,
      "start": 56.7706,
      "duration": 0.2574,
      "velocity": 91,
      "chip": "ym2612"
    },
    {
      "channel": 0,
      "note": 59,
      "start": 56.8474,
      "duration": 0.2574,
      "velocity": 91,
      "chip": "ym2612"
    },
    {
      "channel": 1,
      "note": 47,
      "start": 56.8491,
      "duration": 0.2559,
      "velocity": 119,
      "chip": "ym2612"
    },
    {
      "channel": 3,
      "note": 61,
      "start": 56.8545,
      "duration": 0.0954,
      "velocity": 127,
      "chip": "ym2612"
    },
    {
      "channel": 4,
      "note": 59,
      "start": 57.0812,
      "duration": 0.2574,
      "velocity": 91,
      "chip": "ym2612"
    },
    {
      "channel": 0,
      "note": 52,
      "start": 57.1582,
      "duration": 0.2571,
      "velocity": 91,
      "chip": "ym2612"
    },
    {
      "channel": 1,
      "note": 52,
      "start": 57.1599,
      "duration": 0.2557,
      "velocity": 119,
      "chip": "ym2612"
    },
    {
      "channel": 3,
      "note": 61,
      "start": 57.1672,
      "duration": 0.0933,
      "velocity": 127,
      "chip": "ym2612"
    },
    {
      "channel": 4,
      "note": 52,
      "start": 57.3925,
      "duration": 0.2568,
      "velocity": 91,
      "chip": "ym2612"
    },
    {
      "channel": 0,
      "note": 59,
      "start": 57.4685,
      "duration": 0.2581,
      "velocity": 91,
      "chip": "ym2612"
    },
    {
      "channel": 1,
      "note": 52,
      "start": 57.4702,
      "duration": 1.8089,
      "velocity": 119,
      "chip": "ym2612"
    },
    {
      "channel": 3,
      "note": 61,
      "start": 57.4732,
      "duration": 0.0978,
      "velocity": 127,
      "chip": "ym2612"
    },
    {
      "channel": 4,
      "note": 59,
      "start": 57.7029,
      "duration": 0.2569,
      "velocity": 91,
      "chip": "ym2612"
    },
    {
      "channel": 0,
      "note": 66,
      "start": 57.7792,
      "duration": 0.2574,
      "velocity": 91,
      "chip": "ym2612"
    },
    {
      "channel": 3,
      "note": 61,
      "start": 57.7846,
      "duration": 0.0198,
      "velocity": 119,
      "chip": "ym2612"
    },
    {
      "channel": 4,
      "note": 66,
      "start": 58.0129,
      "duration": 0.2574,
      "velocity": 91,
      "chip": "ym2612"
    },
    {
      "channel": 0,
      "note": 67,
      "start": 58.0905,
      "duration": 0.2566,
      "velocity": 91,
      "chip": "ym2612"
    },
    {
      "channel": 3,
      "note": 61,
      "start": 58.0928,
      "duration": 0.0222,
      "velocity": 119,
      "chip": "ym2612"
    },
    {
      "channel": 4,
      "note": 67,
      "start": 58.3244,
      "duration": 0.2566,
      "velocity": 91,
      "chip": "ym2612"
    },
    {
      "channel": 0,
      "note": 74,
      "start": 58.4003,
      "duration": 0.2574,
      "velocity": 91,
      "chip": "ym2612"
    },
    {
      "channel": 3,
      "note": 61,
      "start": 58.4067,
      "duration": 0.0961,
      "velocity": 127,
      "chip": "ym2612"
    },
    {
      "channel": 4,
      "note": 74,
      "start": 58.6341,
      "duration": 0.2574,
      "velocity": 91,
      "chip": "ym2612"
    },
    {
      "channel": 0,
      "note": 67,
      "start": 58.7109,
      "duration": 0.2574,
      "velocity": 91,
      "chip": "ym2612"
    },
    {
      "channel": 3,
      "note": 61,
      "start": 58.7132,
      "duration": 0.1002,
      "velocity": 127,
      "chip": "ym2612"
    },
    {
      "channel": 4,
      "note": 67,
      "start": 58.9448,
      "duration": 0.2573,
      "velocity": 91,
      "chip": "ym2612"
    },
    {
      "channel": 0,
      "note": 66,
      "start": 59.0215,
      "duration": 0.2574,
      "velocity": 91,
      "chip": "ym2612"
    },
    {
      "channel": 3,
      "note": 61,
      "start": 59.0246,
      "duration": 0.0994,
      "velocity": 127,
      "chip": "ym2612"
    },
    {
      "channel": 4,
      "note": 66,
      "start": 59.2553,
      "duration": 0.258,
      "velocity": 91,
      "chip": "ym2612"
    },
    {
      "channel": 0,
      "note": 59,
      "start": 59.332,
      "duration": 0.2589,
      "velocity": 91,
      "chip": "ym2612"
    },
    {
      "channel": 1,
      "note": 47,
      "start": 59.3337,
      "duration": 0.2574,
      "velocity": 119,
      "chip": "ym2612"
    },
    {
      "channel": 3,
      "note": 61,
      "start": 59.3359,
      "duration": 0.0987,
      "velocity": 127,
      "chip": "ym2612"
    },
    {
      "channel": 4,
      "note": 59,
      "start": 59.5659,
      "duration": 0.2583,
      "velocity": 91,
      "chip": "ym2612"
    },
    {
      "channel": 0,
      "note": 62,
      "start": 59.6432,
      "duration": 0.1274,
      "velocity": 91,
      "chip": "ym2612"
    },
    {
      "channel": 1,
      "note": 50,
      "start": 59.6452,
      "duration": 0.8761,
      "velocity": 119,
      "chip": "ym2612"
    },
    {
      "channel": 2,
      "note": 50,
      "start": 59.6474,
      "duration": 0.2529,
      "velocity": 97,
      "chip": "ym2612"
    },
    {
      "channel": 3,
      "note": 61,
      "start": 59.6531,
      "duration": 0.0921,
      "velocity": 127,
      "chip": "ym2612"
    },
    {
      "channel": 0,
      "note": 66,
      "start": 59.7979,
      "duration": 0.128,
      "velocity": 91,
      "chip": "ym2612"
    },
    {
      "channel": 4,
      "note": 62,
      "start": 59.877,
      "duration": 0.1274,
      "velocity": 91,
      "chip": "ym2612"
    },
    {
      "channel": 5,
      "note": 50,
      "start": 59.8791,
      "duration": 0.2549,
      "velocity": 97,
      "chip": "ym2612"
    },
    {
      "channel": 0,
      "note": 69,
      "start": 59.9533,
      "duration": 0.128,
      "velocity": 91,
      "chip": "ym2612"
    },
    {
      "channel": 3,
      "note": 61,
      "start": 59.9596,
      "duration": 0.019,
      "velocity": 119,
      "chip": "ym2612"
    },
    {
      "channel": 4,
      "note": 66,
      "start": 60.0318,
      "duration": 0.1279,
      "velocity": 91,
      "chip": "ym2612"
    },
    {
      "channel": 0,
      "note": 73,
      "start": 60.1085,
      "duration": 0.1279,
      "velocity": 91,
      "chip": "ym2612"
    },
    {
      "channel": 4,
      "note": 69,
      "start": 60.1871,
      "duration": 0.1276,
      "velocity": 91,
      "chip": "ym2612"
    },
    {
      "channel": 0,
      "note": 62,
      "start": 60.264,
      "duration": 0.1279,
      "velocity": 91,
      "chip": "ym2612"
    },
    {
      "channel": 2,
      "note": 50,
      "start": 60.2657,
      "duration": 0.2558,
      "velocity": 97,
      "chip": "ym2612"
    },
    {
      "channel": 3,
      "note": 61,
      "start": 60.2711,
      "duration": 0.0952,
      "velocity": 127,
      "chip": "ym2612"
    },
    {
      "channel": 4,
      "note": 73,
      "start": 60.3419,
      "duration": 0.1284,
      "velocity": 91,
      "chip": "ym2612"
    },
    {
      "channel": 0,
      "note": 66,
      "start": 60.4191,
      "duration": 0.128,
      "velocity": 91,
      "chip": "ym2612"
    },
    {
      "channel": 4,
      "note": 62,
      "start": 60.4978,
      "duration": 0.1278,
      "velocity": 91,
      "chip": "ym2612"
    },
    {
      "channel": 5,
      "note": 50,
      "start": 60.4995,
      "duration": 0.2557,
      "velocity": 97,
      "chip": "ym2612"
    },
    {
      "channel": 0,
      "note": 69,
      "start": 60.5748,
      "duration": 0.1276,
      "velocity": 91,
      "chip": "ym2612"
    },
    {
      "channel": 1,
      "note": 50,
      "start": 60.5764,
      "duration": 1.1872,
      "velocity": 119,
      "chip": "ym2612"
    },
    {
      "channel": 3,
      "note": 61,
      "start": 60.5818,
      "duration": 0.0179,
      "velocity": 119,
      "chip": "ym2612"
    },
    {
      "channel": 4,
      "note": 66,
      "start": 60.6529,
      "duration": 0.1279,
      "velocity": 91,
      "chip": "ym2612"
    },
    {
      "channel": 0,
      "note": 73,
      "start": 60.7297,
      "duration": 0.128,
      "velocity": 91,
      "chip": "ym2612"
    },
    {
      "channel": 4,
      "note": 69,
      "start": 60.809,
      "duration": 0.1268,
      "velocity": 91,
      "chip": "ym2612"
    },
    {
      "channel": 0,
      "note": 62,
      "start": 60.8851,
      "duration": 0.1279,
      "velocity": 91,
      "chip": "ym2612"
    },
    {
      "channel": 2,
      "note": 50,
      "start": 60.8869,
      "duration": 0.2556,
      "velocity": 97,
      "chip": "ym2612"
    },
    {
      "channel": 3,
      "note": 61,
      "start": 60.893,
      "duration": 0.0945,
      "velocity": 127,
      "chip": "ym2612"
    },
    {
      "channel": 4,
      "note": 73,
      "start": 60.9631,
      "duration": 0.1284,
      "velocity": 91,
      "chip": "ym2612"
    },
    {
      "channel": 0,
      "note": 66,
      "start": 61.0411,
      "duration": 0.1272,
      "velocity": 91,
      "chip": "ym2612"
    },
    {
      "channel": 4,
      "note": 62,
      "start": 61.119,
      "duration": 0.1274,
      "velocity": 91,
      "chip": "ym2612"
    },
    {
      "channel": 5,
      "note": 50,
      "start": 61.1206,
      "duration": 0.2557,
      "velocity": 97,
      "chip": "ym2612"
    },
    {
      "channel": 0,
      "note": 69,
      "start": 61.1956,
      "duration": 0.1286,
      "velocity": 91,
      "chip": "ym2612"
    },
    {
      "channel": 3,
      "note": 61,
      "start": 61.1979,
      "duration": 0.1006,
      "velocity": 127,
      "chip": "ym2612"
    },
    {
      "channel": 4,
      "note": 66,
      "start": 61.2749,
      "duration": 0.1272,
      "velocity": 91,
      "chip": "ym2612"
    },
    {
      "channel": 0,
      "note": 73,
      "start": 61.3517,
      "duration": 0.1272,
      "velocity": 91,
      "chip": "ym2612"
    },
    {
      "channel": 4,
      "note": 69,
      "start": 61.4294,
      "duration": 0.1277,
      "velocity": 91,
      "chip": "ym2612"
    },
    {
      "channel": 0,
      "note": 62,
      "start": 61.5072,
      "duration": 0.127,
      "velocity": 91,
      "chip": "ym2612"
    },
    {
      "channel": 2,
      "note": 50,
      "start": 61.5089,
      "duration": 0.255,
      "velocity": 97,
      "chip": "ym2612"
    },
    {
      "channel": 3,
      "note": 61,
      "start": 61.5142,
      "duration": 0.0945,
      "velocity": 127,
      "chip": "ym2612"
    },
    {
      "channel": 4,
      "note": 73,
      "start": 61.5843,
      "duration": 0.1284,
      "velocity": 91,
      "chip": "ym2612"
    },
    {
      "channel": 0,
      "note": 66,
      "start": 61.6614,
      "duration": 0.1285,
      "velocity": 91,
      "chip": "ym2612"
    },
    {
      "channel": 4,
      "note": 62,
      "start": 61.741,
      "duration": 0.1265,
      "velocity": 91,
      "chip": "ym2612"
    },
    {
      "channel": 5,
      "note": 50,
      "start": 61.7427,
      "duration": 0.2544,
      "velocity": 97,
      "chip": "ym2612"
    },
    {
      "channel": 0,
      "note": 69,
      "start": 61.8168,
      "duration": 0.128,
      "velocity": 91,
      "chip": "ym2612"
    },
    {
      "channel": 1,
      "note": 50,
      "start": 61.8184,
      "duration": 0.2559,
      "velocity": 119,
      "chip": "ym2612"
    },
    {
      "channel": 3,
      "note": 61,
      "start": 61.8246,
      "duration": 0.25,
      "velocity": 119,
      "chip": "ym2612"
    },
    {
      "channel": 4,
      "note": 66,
      "start": 61.8949,
      "duration": 0.1288,
      "velocity": 91,
      "chip": "ym2612"
    },
    {
      "channel": 0,
      "note": 73,
      "start": 61.972,
      "duration": 0.128,
      "velocity": 91,
      "chip": "ym2612"
    },
    {
      "channel": 4,
      "note": 69,
      "start": 62.0502,
      "duration": 0.1279,
      "velocity": 91,
      "chip": "ym2612"
    },
    {
      "channel": 0,
      "note": 61,
      "start": 62.128,
      "duration": 0.1273,
      "velocity": 91,
      "chip": "ym2612"
    },
    {
      "channel": 1,
      "note": 49,
      "start": 62.1299,
      "duration": 0.8769,
      "velocity": 119,
      "chip": "ym2612"
    },
    {
      "channel": 2,
      "note": 49,
      "start": 62.1318,
      "duration": 0.2531,
      "velocity": 97,
      "chip": "ym2612"
    },
    {
      "channel": 3,
      "note": 61,
      "start": 62.1373,
      "duration": 0.0926,
      "velocity": 127,
      "chip": "ym2612"
    },
    {
      "channel": 4,
      "note": 73,
      "start": 62.2054,
      "duration": 0.1284,
      "velocity": 91,
      "chip": "ym2612"
    },
    {
      "channel": 0,
      "note": 64,
      "start": 62.2826,
      "duration": 0.128,
      "velocity": 91,
      "chip": "ym2612"
    },
    {
      "channel": 4,
      "note": 61,
      "start": 62.3617,
      "duration": 0.1282,
      "velocity": 91,
      "chip": "ym2612"
    },
    {
      "channel": 5,
      "note": 49,
      "start": 62.3637,
      "duration": 0.2549,
      "velocity": 97,
      "chip": "ym2612"
    },
    {
      "channel": 0,
      "note": 68,
      "start": 62.4379,
      "duration": 0.1279,
      "velocity": 91,
      "chip": "ym2612"
    },
    {
      "channel": 3,
      "note": 61,
      "start": 62.4443,
      "duration": 0.0189,
      "velocity": 119,
      "chip": "ym2612"
    },
    {
      "channel": 4,
      "note": 64,
      "start": 62.5164,
      "duration": 0.1279,
      "velocity": 91,
      "chip": "ym2612"
    },
    {
      "channel": 0,
      "note": 71,
      "start": 62.5932,
      "duration": 0.128,
      "velocity": 91,
      "chip": "ym2612"
    },
    {
      "channel": 4,
      "note": 68,
      "start": 62.6717,
      "duration": 0.1276,
      "velocity": 91,
      "chip": "ym2612"
    },
    {
      "channel": 0,
      "note": 61,
      "start": 62.7487,
      "duration": 0.1278,
      "velocity": 91,
      "chip": "ym2612"
    },
    {
      "channel": 2,
      "note": 49,
      "start": 62.7504,
      "duration": 0.2566,
      "velocity": 97,
      "chip": "ym2612"
    },
    {
      "channel": 3,
      "note": 61,
      "start": 62.7566,
      "duration": 0.0945,
      "velocity": 127,
      "chip": "ym2612"
    },
    {
      "channel": 4,
      "note": 71,
      "start": 62.8266,
      "duration": 0.1284,
      "velocity": 91,
      "chip": "ym2612"
    },
    {
      "channel": 0,
      "note": 64,
      "start": 62.9038,
      "duration": 0.128,
      "velocity": 91,
      "chip": "ym2612"
    },
    {
      "channel": 4,
      "note": 61,
      "start": 62.9825,
      "duration": 0.1284,
      "velocity": 91,
      "chip": "ym2612"
    },
    {
      "channel": 5,
      "note": 49,
      "start": 62.9841,
      "duration": 0.2566,
      "velocity": 97,
      "chip": "ym2612"
    },
    {
      "channel": 0,
      "note": 68,
      "start": 63.0593,
      "duration": 0.1278,
      "velocity": 91,
      "chip": "ym2612"
    },
    {
      "channel": 1,
      "note": 49,
      "start": 63.061,
      "duration": 1.1873,
      "velocity": 119,
      "chip": "ym2612"
    },
    {
      "channel": 3,
      "note": 61,
      "start": 63.0663,
      "duration": 0.0184,
      "velocity": 119,
      "chip": "ym2612"
    },
    {
      "channel": 4,
      "note": 64,
      "start": 63.1384,
      "duration": 0.1272,
      "velocity": 91,
      "chip": "ym2612"
    },
    {
      "channel": 0,
      "note": 71,
      "start": 63.2144,
      "duration": 0.128,
      "velocity": 91,
      "chip": "ym2612"
    },
    {
      "channel": 4,
      "note": 68,
      "start": 63.2929,
      "duration": 0.1276,
      "velocity": 91,
      "chip": "ym2612"
    },
    {
      "channel": 0,
      "note": 61,
      "start": 63.3698,
      "duration": 0.1279,
      "velocity": 91,
      "chip": "ym2612"
    },
    {
      "channel": 2,
      "note": 49,
      "start": 63.3716,
      "duration": 0.2557,
      "velocity": 97,
      "chip": "ym2612"
    },
    {
      "channel": 3,
      "note": 61,
      "start": 63.3777,
      "duration": 0.0945,
      "velocity": 127,
      "chip": "ym2612"
    },
    {
      "channel": 4,
      "note": 71,
      "start": 63.4477,
      "duration": 0.1284,
      "velocity": 91,
      "chip": "ym2612"
    },
    {
      "channel": 0,
      "note": 64,
      "start": 63.525,
      "duration": 0.128,
      "velocity": 91,
      "chip": "ym2612"
    },
    {
      "channel": 4,
      "note": 61,
      "start": 63.6037,
      "duration": 0.1274,
      "velocity": 91,
      "chip": "ym2612"
    },
    {
      "channel": 5,
      "note": 49,
      "start": 63.6053,
      "duration": 0.2557,
      "velocity": 97,
      "chip": "ym2612"
    },
    {
      "channel": 0,
      "note": 68,
      "start": 63.6802,
      "duration": 0.128,
      "velocity": 91,
      "chip": "ym2612"
    },
    {
      "channel": 3,
      "note": 61,
      "start": 63.6825,
      "duration": 0.1002,
      "velocity": 127,
      "chip": "ym2612"
    },
    {
      "channel": 4,
      "note": 64,
      "start": 63.7585,
      "duration": 0.1282,
      "velocity": 91,
      "chip": "ym2612"
    },
    {
      "channel": 0,
      "note": 71,
      "start": 63.8356,
      "duration": 0.128,
      "velocity": 91,
      "chip": "ym2612"
    },
    {
      "channel": 4,
      "note": 68,
      "start": 63.9141,
      "duration": 0.1276,
      "velocity": 91,
      "chip": "ym2612"
    },
    {
      "channel": 0,
      "note": 61,
      "start": 63.9916,
      "duration": 0.1272,
      "velocity": 91,
      "chip": "ym2612"
    },
    {
      "channel": 2,
      "note": 49,
      "start": 63.9934,
      "duration": 0.2552,
      "velocity": 97,
      "chip": "ym2612"
    },
    {
      "channel": 3,
      "note": 61,
      "start": 63.9986,
      "duration": 0.0947,
      "velocity": 127,
      "chip": "ym2612"
    },
    {
      "channel": 4,
      "note": 71,
      "start": 64.069,
      "duration": 0.1284,
      "velocity": 91,
      "chip": "ym2612"
    },
    {
      "channel": 0,
      "note": 64,
      "start": 64.1461,
      "duration": 0.128,
      "velocity": 91,
      "chip": "ym2612"
    },
    {
      "channel": 4,
      "note": 61,
      "start": 64.2257,
      "duration": 0.1265,
      "velocity": 91,
      "chip": "ym2612"
    },
    {
      "channel": 5,
      "note": 49,
      "start": 64.2274,
      "duration": 0.2543,
      "velocity": 97,
      "chip": "ym2612"
    },
    {
      "channel": 0,
      "note": 68,
      "start": 64.3014,
      "duration": 0.128,
      "velocity": 91,
      "chip": "ym2612"
    },
    {
      "channel": 1,
      "note": 49,
      "start": 64.3031,
      "duration": 0.2559,
      "velocity": 119,
      "chip": "ym2612"
    },
    {
      "channel": 3,
      "note": 61,
      "start": 64.3093,
      "duration": 0.25,
      "velocity": 119,
      "chip": "ym2612"
    },
    {
      "channel": 4,
      "note": 64,
      "start": 64.3795,
      "duration": 0.1279,
      "velocity": 91,
      "chip": "ym2612"
    },
    {
      "channel": 0,
      "note": 71,
      "start": 64.4576,
      "duration": 0.1271,
      "velocity": 91,
      "chip": "ym2612"
    },
    {
      "channel": 4,
      "note": 68,
      "start": 64.5348,
      "duration": 0.128,
      "velocity": 91,
      "chip": "ym2612"
    },
    {
      "channel": 0,
      "note": 59,
      "start": 64.6126,
      "duration": 0.1277,
      "velocity": 91,
      "chip": "ym2612"
    },
    {
      "channel": 1,
      "note": 47,
      "start": 64.6145,
      "duration": 0.8761,
      "velocity": 119,
      "chip": "ym2612"
    },
    {
      "channel": 2,
      "note": 47,
      "start": 64.6165,
      "duration": 0.2535,
      "velocity": 97,
      "chip": "ym2612"
    },
    {
      "channel": 3,
      "note": 61,
      "start": 64.622,
      "duration": 0.0926,
      "velocity": 127,
      "chip": "ym2612"
    },
    {
      "channel": 4,
      "note": 71,
      "start": 64.6909,
      "duration": 0.1276,
      "velocity": 91,
      "chip": "ym2612"
    },
    {
      "channel": 0,
      "note": 62,
      "start": 64.7673,
      "duration": 0.1285,
      "velocity": 91,
      "chip": "ym2612"
    },
    {
      "channel": 4,
      "note": 59,
      "start": 64.8465,
      "duration": 0.1284,
      "velocity": 91,
      "chip": "ym2612"
    },
    {
      "channel": 5,
      "note": 47,
      "start": 64.8485,
      "duration": 0.2548,
      "velocity": 97,
      "chip": "ym2612"
    },
    {
      "channel": 0,
      "note": 66,
      "start": 64.9241,
      "duration": 0.1265,
      "velocity": 91,
      "chip": "ym2612"
    },
    {
      "channel": 3,
      "note": 61,
      "start": 64.9297,
      "duration": 0.0182,
      "velocity": 119,
      "chip": "ym2612"
    },
    {
      "channel": 4,
      "note": 62,
      "start": 65.0011,
      "duration": 0.128,
      "velocity": 91,
      "chip": "ym2612"
    },
    {
      "channel": 0,
      "note": 69,
      "start": 65.0779,
      "duration": 0.1288,
      "velocity": 91,
      "chip": "ym2612"
    },
    {
      "channel": 4,
      "note": 66,
      "start": 65.1572,
      "duration": 0.1267,
      "velocity": 91,
      "chip": "ym2612"
    },
    {
      "channel": 0,
      "note": 59,
      "start": 65.2334,
      "duration": 0.1278,
      "velocity": 91,
      "chip": "ym2612"
    },
    {
      "channel": 2,
      "note": 47,
      "start": 65.2351,
      "duration": 0.2558,
      "velocity": 97,
      "chip": "ym2612"
    },
    {
      "channel": 3,
      "note": 61,
      "start": 65.2412,
      "duration": 0.0945,
      "velocity": 127,
      "chip": "ym2612"
    },
    {
      "channel": 4,
      "note": 69,
      "start": 65.3113,
      "duration": 0.1293,
      "velocity": 91,
      "chip": "ym2612"
    },
    {
      "channel": 0,
      "note": 62,
      "start": 65.3885,
      "duration": 0.128,
      "velocity": 91,
      "chip": "ym2612"
    },
    {
      "channel": 4,
      "note": 59,
      "start": 65.4671,
      "duration": 0.1278,
      "velocity": 91,
      "chip": "ym2612"
    },
    {
      "channel": 5,
      "note": 47,
      "start": 65.4689,
      "duration": 0.2556,
      "velocity": 97,
      "chip": "ym2612"
    },
    {
      "channel": 0,
      "note": 66,
      "start": 65.5437,
      "duration": 0.128,
      "velocity": 91,
      "chip": "ym2612"
    },
    {
      "channel": 1,
      "note": 47,
      "start": 65.5454,
      "duration": 1.1884,
      "velocity": 119,
      "chip": "ym2612"
    },
    {
      "channel": 3,
      "note": 61,
      "start": 65.5508,
      "duration": 0.0183,
      "velocity": 119,
      "chip": "ym2612"
    },
    {
      "channel": 4,
      "note": 62,
      "start": 65.6231,
      "duration": 0.1272,
      "velocity": 91,
      "chip": "ym2612"
    },
    {
      "channel": 0,
      "note": 69,
      "start": 65.6991,
      "duration": 0.128,
      "velocity": 91,
      "chip": "ym2612"
    },
    {
      "channel": 4,
      "note": 66,
      "start": 65.7776,
      "duration": 0.1276,
      "velocity": 91,
      "chip": "ym2612"
    },
    {
      "channel": 0,
      "note": 59,
      "start": 65.8545,
      "duration": 0.1279,
      "velocity": 91,
      "chip": "ym2612"
    },
    {
      "channel": 2,
      "note": 47,
      "start": 65.8571,
      "duration": 0.2548,
      "velocity": 97,
      "chip": "ym2612"
    },
    {
      "channel": 3,
      "note": 61,
      "start": 65.8624,
      "duration": 0.0947,
      "velocity": 127,
      "chip": "ym2612"
    },
    {
      "channel": 4,
      "note": 69,
      "start": 65.9325,
      "duration": 0.1284,
      "velocity": 91,
      "chip": "ym2612"
    },
    {
      "channel": 0,
      "note": 62,
      "start": 66.0096,
      "duration": 0.128,
      "velocity": 91,
      "chip": "ym2612"
    },
    {
      "channel": 4,
      "note": 59,
      "start": 66.0883,
      "duration": 0.1274,
      "velocity": 91,
      "chip": "ym2612"
    },
    {
      "channel": 5,
      "note": 47,
      "start": 66.0908,
      "duration": 0.2548,
      "velocity": 97,
      "chip": "ym2612"
    },
    {
      "channel": 0,
      "note": 66,
      "start": 66.1649,
      "duration": 0.128,
      "velocity": 91,
      "chip": "ym2612"
    },
    {
      "channel": 3,
      "note": 61,
      "start": 66.1673,
      "duration": 0.1002,
      "velocity": 127,
      "chip": "ym2612"
    },
    {
      "channel": 4,
      "note": 62,
      "start": 66.243,
      "duration": 0.1284,
      "velocity": 91,
      "chip": "ym2612"
    },
    {
      "channel": 0,
      "note": 69,
      "start": 66.3203,
      "duration": 0.128,
      "velocity": 91,
      "chip": "ym2612"
    },
    {
      "channel": 4,
      "note": 66,
      "start": 66.3988,
      "duration": 0.1276,
      "velocity": 91,
      "chip": "ym2612"
    },
    {
      "channel": 0,
      "note": 59,
      "start": 66.4757,
      "duration": 0.1279,
      "velocity": 91,
      "chip": "ym2612"
    },
    {
      "channel": 2,
      "note": 47,
      "start": 66.4775,
      "duration": 0.2566,
      "velocity": 97,
      "chip": "ym2612"
    },
    {
      "channel": 3,
      "note": 61,
      "start": 66.4827,
      "duration": 0.0953,
      "velocity": 127,
      "chip": "ym2612"
    },
    {
      "channel": 4,
      "note": 69,
      "start": 66.5536,
      "duration": 0.1289,
      "velocity": 91,
      "chip": "ym2612"
    },
    {
      "channel": 0,
      "note": 62,
      "start": 66.631,
      "duration": 0.1279,
      "velocity": 91,
      "chip": "ym2612"
    },
    {
      "channel": 4,
      "note": 59,
      "start": 66.7102,
      "duration": 0.1267,
      "velocity": 91,
      "chip": "ym2612"
    },
    {
      "channel": 5,
      "note": 47,
      "start": 66.7119,
      "duration": 0.2545,
      "velocity": 97,
      "chip": "ym2612"
    },
    {
      "channel": 0,
      "note": 66,
      "start": 66.7861,
      "duration": 0.128,
      "velocity": 91,
      "chip": "ym2612"
    },
    {
      "channel": 1,
      "note": 47,
      "start": 66.7878,
      "duration": 0.2558,
      "velocity": 119,
      "chip": "ym2612"
    },
    {
      "channel": 3,
      "note": 61,
      "start": 66.7941,
      "duration": 0.2499,
      "velocity": 119,
      "chip": "ym2612"
    },
    {
      "channel": 4,
      "note": 62,
      "start": 66.8642,
      "duration": 0.1279,
      "velocity": 91,
      "chip": "ym2612"
    },
    {
      "channel": 0,
      "note": 69,
      "start": 66.9415,
      "duration": 0.1279,
      "velocity": 91,
      "chip": "ym2612"
    },
    {
      "channel": 4,
      "note": 66,
      "start": 67.0195,
      "duration": 0.128,
      "velocity": 91,
      "chip": "ym2612"
    },
    {
      "channel": 0,
      "note": 61,
      "start": 67.0973,
      "duration": 0.1273,
      "velocity": 91,
      "chip": "ym2612"
    },
    {
      "channel": 1,
      "note": 49,
      "start": 67.0992,
      "duration": 0.8761,
      "velocity": 119,
      "chip": "ym2612"
    },
    {
      "channel": 2,
      "note": 49,
      "start": 67.1012,
      "duration": 0.2531,
      "velocity": 97,
      "chip": "ym2612"
    },
    {
      "channel": 3,
      "note": 61,
      "start": 67.1077,
      "duration": 0.0915,
      "velocity": 127,
      "chip": "ym2612"
    },
    {
      "channel": 4,
      "note": 69,
      "start": 67.1752,
      "duration": 0.128,
      "velocity": 91,
      "chip": "ym2612"
    },
    {
      "channel": 0,
      "note": 64,
      "start": 67.252,
      "duration": 0.128,
      "velocity": 91,
      "chip": "ym2612"
    },
    {
      "channel": 4,
      "note": 61,
      "start": 67.3311,
      "duration": 0.1274,
      "velocity": 91,
      "chip": "ym2612"
    },
    {
      "channel": 5,
      "note": 49,
      "start": 67.333,
      "duration": 0.2549,
      "velocity": 97,
      "chip": "ym2612"
    },
    {
      "channel": 0,
      "note": 68,
      "start": 67.4081,
      "duration": 0.1272,
      "velocity": 91,
      "chip": "ym2612"
    },
    {
      "channel": 3,
      "note": 61,
      "start": 67.4136,
      "duration": 0.019,
      "velocity": 119,
      "chip": "ym2612"
    },
    {
      "channel": 4,
      "note": 64,
      "start": 67.4859,
      "duration": 0.1279,
      "velocity": 91,
      "chip": "ym2612"
    },
    {
      "channel": 0,
      "note": 71,
      "start": 67.5626,
      "duration": 0.128,
      "velocity": 91,
      "chip": "ym2612"
    },
    {
      "channel": 4,
      "note": 68,
      "start": 67.642,
      "duration": 0.1266,
      "velocity": 91,
      "chip": "ym2612"
    },
    {
      "channel": 0,
      "note": 61,
      "start": 67.718,
      "duration": 0.1278,
      "velocity": 91,
      "chip": "ym2612"
    },
    {
      "channel": 2,
      "note": 49,
      "start": 67.7198,
      "duration": 0.2558,
      "velocity": 97,
      "chip": "ym2612"
    },
    {
      "channel": 3,
      "note": 61,
      "start": 67.7259,
      "duration": 0.0945,
      "velocity": 127,
      "chip": "ym2612"
    },
    {
      "channel": 4,
      "note": 71,
      "start": 67.796,
      "duration": 0.1284,
      "velocity": 91,
      "chip": "ym2612"
    },
    {
      "channel": 0,
      "note": 64,
      "start": 67.874,
      "duration": 0.1271,
      "velocity": 91,
      "chip": "ym2612"
    },
    {
      "channel": 4,
      "note": 61,
      "start": 67.9518,
      "duration": 0.1278,
      "velocity": 91,
      "chip": "ym2612"
    },
    {
      "channel": 5,
      "note": 49,
      "start": 67.9535,
      "duration": 0.2556,
      "velocity": 97,
      "chip": "ym2612"
    },
    {
      "channel": 0,
      "note": 68,
      "start": 68.0285,
      "duration": 0.1283,
      "velocity": 91,
      "chip": "ym2612"
    },
    {
      "channel": 1,
      "note": 49,
      "start": 68.0301,
      "duration": 1.1876,
      "velocity": 119,
      "chip": "ym2612"
    },
    {
      "channel": 3,
      "note": 61,
      "start": 68.0355,
      "duration": 0.0182,
      "velocity": 119,
      "chip": "ym2612"
    },
    {
      "channel": 4,
      "note": 64,
      "start": 68.1078,
      "duration": 0.1272,
      "velocity": 91,
      "chip": "ym2612"
    },
    {
      "channel": 0,
      "note": 71,
      "start": 68.1837,
      "duration": 0.128,
      "velocity": 91,
      "chip": "ym2612"
    },
    {
      "channel": 4,
      "note": 68,
      "start": 68.2622,
      "duration": 0.1283,
      "velocity": 91,
      "chip": "ym2612"
    },
    {
      "channel": 0,
      "note": 61,
      "start": 68.34,
      "duration": 0.1273,
      "velocity": 91,
      "chip": "ym2612"
    },
    {
      "channel": 2,
      "note": 49,
      "start": 68.3418,
      "duration": 0.2549,
      "velocity": 97,
      "chip": "ym2612"
    },
    {
      "channel": 3,
      "note": 61,
      "start": 68.3471,
      "duration": 0.0947,
      "velocity": 127,
      "chip": "ym2612"
    },
    {
      "channel": 4,
      "note": 71,
      "start": 68.4172,
      "duration": 0.1283,
      "velocity": 91,
      "chip": "ym2612"
    },
    {
      "channel": 0,
      "note": 64,
      "start": 68.4949,
      "duration": 0.1281,
      "velocity": 91,
      "chip": "ym2612"
    },
    {
      "channel": 4,
      "note": 61,
      "start": 68.5738,
      "duration": 0.1266,
      "velocity": 91,
      "chip": "ym2612"
    },
    {
      "channel": 5,
      "note": 49,
      "start": 68.5755,
      "duration": 0.2549,
      "velocity": 97,
      "chip": "ym2612"
    },
    {
      "channel": 0,
      "note": 68,
      "start": 68.6497,
      "duration": 0.128,
      "velocity": 91,
      "chip": "ym2612"
    },
    {
      "channel": 3,
      "note": 61,
      "start": 68.652,
      "duration": 0.1002,
      "velocity": 127,
      "chip": "ym2612"
    },
    {
      "channel": 4,
      "note": 64,
      "start": 68.7277,
      "duration": 0.1293,
      "velocity": 91,
      "chip": "ym2612"
    },
    {
      "channel": 0,
      "note": 71,
      "start": 68.8049,
      "duration": 0.128,
      "velocity": 91,
      "chip": "ym2612"
    },
    {
      "channel": 4,
      "note": 68,
      "start": 68.8834,
      "duration": 0.1276,
      "velocity": 91,
      "chip": "ym2612"
    },
    {
      "channel": 0,
      "note": 61,
      "start": 68.9603,
      "duration": 0.1279,
      "velocity": 91,
      "chip": "ym2612"
    },
    {
      "channel": 2,
      "note": 49,
      "start": 68.9621,
      "duration": 0.2558,
      "velocity": 97,
      "chip": "ym2612"
    },
    {
      "channel": 3,
      "note": 61,
      "start": 68.9674,
      "duration": 0.0953,
      "velocity": 127,
      "chip": "ym2612"
    },
    {
      "channel": 4,
      "note": 71,
      "start": 69.0383,
      "duration": 0.1279,
      "velocity": 91,
      "chip": "ym2612"
    },
    {
      "channel": 0,
      "note": 64,
      "start": 69.1155,
      "duration": 0.128,
      "velocity": 91,
      "chip": "ym2612"
    },
    {
      "channel": 3,
      "note": 61,
      "start": 69.1178,
      "duration": 0.1004,
      "velocity": 127,
      "chip": "ym2612"
    },
    {
      "channel": 4,
      "note": 61,
      "start": 69.1938,
      "duration": 0.1278,
      "velocity": 91,
      "chip": "ym2612"
    },
    {
      "channel": 5,
      "note": 49,
      "start": 69.1954,
      "duration": 0.2561,
      "velocity": 97,
      "chip": "ym2612"
    },
    {
      "channel": 0,
      "note": 68,
      "start": 69.2708,
      "duration": 0.128,
      "velocity": 91,
      "chip": "ym2612"
    },
    {
      "channel": 1,
      "note": 49,
      "start": 69.2733,
      "duration": 0.255,
      "velocity": 119,
      "chip": "ym2612"
    },
    {
      "channel": 3,
      "note": 61,
      "start": 69.2755,
      "duration": 0.0982,
      "velocity": 127,
      "chip": "ym2612"
    },
    {
      "channel": 4,
      "note": 64,
      "start": 69.3489,
      "duration": 0.128,
      "velocity": 91,
      "chip": "ym2612"
    },
    {
      "channel": 0,
      "note": 71,
      "start": 69.4261,
      "duration": 0.1279,
      "velocity": 91,
      "chip": "ym2612"
    },
    {
      "channel": 3,
      "note": 61,
      "start": 69.4284,
      "duration": 0.1002,
      "velocity": 127,
      "chip": "ym2612"
    },
    {
      "channel": 4,
      "note": 68,
      "start": 69.5042,
      "duration": 0.128,
      "velocity": 91,
      "chip": "ym2612"
    },
    {
      "channel": 0,
      "note": 62,
      "start": 69.582,
      "duration": 0.1274,
      "velocity": 91,
      "chip": "ym2612"
    },
    {
      "channel": 1,
      "note": 50,
      "start": 69.5839,
      "duration": 0.8761,
      "velocity": 119,
      "chip": "ym2612"
    },
    {
      "channel": 2,
      "note": 50,
      "start": 69.586,
      "duration": 0.2538,
      "velocity": 97,
      "chip": "ym2612"
    },
    {
      "channel": 3,
      "note": 61,
      "start": 69.5925,
      "duration": 0.0914,
      "velocity": 127,
      "chip": "ym2612"
    },
    {
      "channel": 4,
      "note": 71,
      "start": 69.6595,
      "duration": 0.1284,
      "velocity": 91,
      "chip": "ym2612"
    },
    {
      "channel": 0,
      "note": 66,
      "start": 69.7367,
      "duration": 0.128,
      "velocity": 91,
      "chip": "ym2612"
    },
    {
      "channel": 4,
      "note": 62,
      "start": 69.8157,
      "duration": 0.1274,
      "velocity": 91,
      "chip": "ym2612"
    },
    {
      "channel": 5,
      "note": 50,
      "start": 69.8178,
      "duration": 0.2557,
      "velocity": 97,
      "chip": "ym2612"
    },
    {
      "channel": 0,
      "note": 69,
      "start": 69.892,
      "duration": 0.128,
      "velocity": 91,
      "chip": "ym2612"
    },
    {
      "channel": 3,
      "note": 61,
      "start": 69.8975,
      "duration": 0.0198,
      "velocity": 119,
      "chip": "ym2612"
    },
    {
      "channel": 4,
      "note": 66,
      "start": 69.9705,
      "duration": 0.128,
      "velocity": 91,
      "chip": "ym2612"
    },
    {
      "channel": 0,
      "note": 73,
      "start": 70.0472,
      "duration": 0.128,
      "velocity": 91,
      "chip": "ym2612"
    },
    {
      "channel": 4,
      "note": 69,
      "start": 70.1261,
      "duration": 0.1275,
      "velocity": 91,
      "chip": "ym2612"
    },
    {
      "channel": 0,
      "note": 62,
      "start": 70.2027,
      "duration": 0.1278,
      "velocity": 91,
      "chip": "ym2612"
    },
    {
      "channel": 2,
      "note": 50,
      "start": 70.2045,
      "duration": 0.2558,
      "velocity": 97,
      "chip": "ym2612"
    },
    {
      "channel": 3,
      "note": 61,
      "start": 70.2107,
      "duration": 0.0959,
      "velocity": 127,
      "chip": "ym2612"
    },
    {
      "channel": 4,
      "note": 73,
      "start": 70.2813,
      "duration": 0.1277,
      "velocity": 91,
      "chip": "ym2612"
    },
    {
      "channel": 0,
      "note": 66,
      "start": 70.3581,
      "duration": 0.1277,
      "velocity": 91,
      "chip": "ym2612"
    },
    {
      "channel": 4,
      "note": 62,
      "start": 70.4365,
      "duration": 0.1279,
      "velocity": 91,
      "chip": "ym2612"
    },
    {
      "channel": 5,
      "note": 50,
      "start": 70.4382,
      "duration": 0.2556,
      "velocity": 97,
      "chip": "ym2612"
    },
    {
      "channel": 0,
      "note": 69,
      "start": 70.5131,
      "duration": 0.128,
      "velocity": 91,
      "chip": "ym2612"
    },
    {
      "channel": 1,
      "note": 50,
      "start": 70.5148,
      "duration": 1.1876,
      "velocity": 119,
      "chip": "ym2612"
    },
    {
      "channel": 3,
      "note": 61,
      "start": 70.5202,
      "duration": 0.0183,
      "velocity": 119,
      "chip": "ym2612"
    },
    {
      "channel": 4,
      "note": 66,
      "start": 70.5923,
      "duration": 0.1273,
      "velocity": 91,
      "chip": "ym2612"
    },
    {
      "channel": 0,
      "note": 73,
      "start": 70.6684,
      "duration": 0.128,
      "velocity": 91,
      "chip": "ym2612"
    },
    {
      "channel": 4,
      "note": 69,
      "start": 70.7469,
      "duration": 0.1276,
      "velocity": 91,
      "chip": "ym2612"
    },
    {
      "channel": 0,
      "note": 62,
      "start": 70.8247,
      "duration": 0.127,
      "velocity": 91,
      "chip": "ym2612"
    },
    {
      "channel": 2,
      "note": 50,
      "start": 70.8264,
      "duration": 0.2549,
      "velocity": 97,
      "chip": "ym2612"
    },
    {
      "channel": 3,
      "note": 61,
      "start": 70.8318,
      "duration": 0.0945,
      "velocity": 127,
      "chip": "ym2612"
    },
    {
      "channel": 4,
      "note": 73,
      "start": 70.9018,
      "duration": 0.1284,
      "velocity": 91,
      "chip": "ym2612"
    },
    {
      "channel": 0,
      "note": 66,
      "start": 70.979,
      "duration": 0.128,
      "velocity": 91,
      "chip": "ym2612"
    },
    {
      "channel": 4,
      "note": 62,
      "start": 71.0585,
      "duration": 0.1265,
      "velocity": 91,
      "chip": "ym2612"
    },
    {
      "channel": 5,
      "note": 50,
      "start": 71.0602,
      "duration": 0.2548,
      "velocity": 97,
      "chip": "ym2612"
    },
    {
      "channel": 0,
      "note": 69,
      "start": 71.1343,
      "duration": 0.128,
      "velocity": 91,
      "chip": "ym2612"
    },
    {
      "channel": 3,
      "note": 61,
      "start": 71.1366,
      "duration": 0.1002,
      "velocity": 127,
      "chip": "ym2612"
    },
    {
      "channel": 4,
      "note": 66,
      "start": 71.2124,
      "duration": 0.1284,
      "velocity": 91,
      "chip": "ym2612"
    },
    {
      "channel": 0,
      "note": 73,
      "start": 71.2904,
      "duration": 0.1272,
      "velocity": 91,
      "chip": "ym2612"
    },
    {
      "channel": 4,
      "note": 69,
      "start": 71.3681,
      "duration": 0.1276,
      "velocity": 91,
      "chip": "ym2612"
    },
    {
      "channel": 0,
      "note": 62,
      "start": 71.445,
      "duration": 0.1283,
      "velocity": 91,
      "chip": "ym2612"
    },
    {
      "channel": 2,
      "note": 50,
      "start": 71.4468,
      "duration": 0.2558,
      "velocity": 97,
      "chip": "ym2612"
    },
    {
      "channel": 3,
      "note": 61,
      "start": 71.4521,
      "duration": 0.0954,
      "velocity": 127,
      "chip": "ym2612"
    },
    {
      "channel": 4,
      "note": 73,
      "start": 71.5238,
      "duration": 0.1275,
      "velocity": 91,
      "chip": "ym2612"
    },
    {
      "channel": 0,
      "note": 66,
      "start": 71.6002,
      "duration": 0.128,
      "velocity": 91,
      "chip": "ym2612"
    },
    {
      "channel": 4,
      "note": 62,
      "start": 71.6788,
      "duration": 0.1283,
      "velocity": 91,
      "chip": "ym2612"
    },
    {
      "channel": 5,
      "note": 50,
      "start": 71.6805,
      "duration": 0.2553,
      "velocity": 97,
      "chip": "ym2612"
    },
    {
      "channel": 0,
      "note": 69,
      "start": 71.7555,
      "duration": 0.128,
      "velocity": 91,
      "chip": "ym2612"
    },
    {
      "channel": 1,
      "note": 50,
      "start": 71.7581,
      "duration": 0.255,
      "velocity": 119,
      "chip": "ym2612"
    },
    {
      "channel": 3,
      "note": 61,
      "start": 71.7634,
      "duration": 0.25,
      "velocity": 119,
      "chip": "ym2612"
    },
    {
      "channel": 4,
      "note": 66,
      "start": 71.8336,
      "duration": 0.128,
      "velocity": 91,
      "chip": "ym2612"
    },
    {
      "channel": 0,
      "note": 73,
      "start": 71.9108,
      "duration": 0.1292,
      "velocity": 91,
      "chip": "ym2612"
    },
    {
      "channel": 4,
      "note": 69,
      "start": 71.9888,
      "duration": 0.128,
      "velocity": 91,
      "chip": "ym2612"
    },
    {
      "channel": 0,
      "note": 61,
      "start": 72.0671,
      "duration": 0.1269,
      "velocity": 91,
      "chip": "ym2612"
    },
    {
      "channel": 1,
      "note": 49,
      "start": 72.069,
      "duration": 0.8756,
      "velocity": 119,
      "chip": "ym2612"
    },
    {
      "channel": 2,
      "note": 49,
      "start": 72.071,
      "duration": 0.2526,
      "velocity": 97,
      "chip": "ym2612"
    },
    {
      "channel": 3,
      "note": 61,
      "start": 72.0773,
      "duration": 0.0912,
      "velocity": 127,
      "chip": "ym2612"
    },
    {
      "channel": 4,
      "note": 73,
      "start": 72.1442,
      "duration": 0.1292,
      "velocity": 91,
      "chip": "ym2612"
    },
    {
      "channel": 0,
      "note": 64,
      "start": 72.2213,
      "duration": 0.128,
      "velocity": 91,
      "chip": "ym2612"
    },
    {
      "channel": 4,
      "note": 61,
      "start": 72.3005,
      "duration": 0.1273,
      "velocity": 91,
      "chip": "ym2612"
    },
    {
      "channel": 5,
      "note": 49,
      "start": 72.3024,
      "duration": 0.2551,
      "velocity": 97,
      "chip": "ym2612"
    },
    {
      "channel": 0,
      "note": 68,
      "start": 72.3766,
      "duration": 0.128,
      "velocity": 91,
      "chip": "ym2612"
    },
    {
      "channel": 3,
      "note": 61,
      "start": 72.3822,
      "duration": 0.0198,
      "velocity": 119,
      "chip": "ym2612"
    },
    {
      "channel": 4,
      "note": 64,
      "start": 72.4552,
      "duration": 0.1279,
      "velocity": 91,
      "chip": "ym2612"
    },
    {
      "channel": 0,
      "note": 71,
      "start": 72.532,
      "duration": 0.1279,
      "velocity": 91,
      "chip": "ym2612"
    },
    {
      "channel": 4,
      "note": 68,
      "start": 72.6105,
      "duration": 0.1275,
      "velocity": 91,
      "chip": "ym2612"
    },
    {
      "channel": 0,
      "note": 61,
      "start": 72.6874,
      "duration": 0.1279,
      "velocity": 91,
      "chip": "ym2612"
    },
    {
      "channel": 2,
      "note": 49,
      "start": 72.69,
      "duration": 0.255,
      "velocity": 97,
      "chip": "ym2612"
    },
    {
      "channel": 3,
      "note": 61,
      "start": 72.6953,
      "duration": 0.0951,
      "velocity": 127,
      "chip": "ym2612"
    },
    {
      "channel": 4,
      "note": 71,
      "start": 72.7654,
      "duration": 0.1284,
      "velocity": 91,
      "chip": "ym2612"
    },
    {
      "channel": 0,
      "note": 64,
      "start": 72.8425,
      "duration": 0.128,
      "velocity": 91,
      "chip": "ym2612"
    },
    {
      "channel": 4,
      "note": 61,
      "start": 72.9212,
      "duration": 0.1278,
      "velocity": 91,
      "chip": "ym2612"
    },
    {
      "channel": 5,
      "note": 49,
      "start": 72.9237,
      "duration": 0.2548,
      "velocity": 97,
      "chip": "ym2612"
    },
    {
      "channel": 0,
      "note": 68,
      "start": 72.9978,
      "duration": 0.128,
      "velocity": 91,
      "chip": "ym2612"
    },
    {
      "channel": 1,
      "note": 49,
      "start": 72.9995,
      "duration": 1.1875,
      "velocity": 119,
      "chip": "ym2612"
    },
    {
      "channel": 3,
      "note": 61,
      "start": 73.0049,
      "duration": 0.0191,
      "velocity": 119,
      "chip": "ym2612"
    },
    {
      "channel": 4,
      "note": 64,
      "start": 73.0763,
      "duration": 0.128,
      "velocity": 91,
      "chip": "ym2612"
    },
    {
      "channel": 0,
      "note": 71,
      "start": 73.1532,
      "duration": 0.1279,
      "velocity": 91,
      "chip": "ym2612"
    },
    {
      "channel": 4,
      "note": 68,
      "start": 73.2317,
      "duration": 0.1275,
      "velocity": 91,
      "chip": "ym2612"
    },
    {
      "channel": 0,
      "note": 61,
      "start": 73.3085,
      "duration": 0.1279,
      "velocity": 91,
      "chip": "ym2612"
    },
    {
      "channel": 2,
      "note": 49,
      "start": 73.3103,
      "duration": 0.2557,
      "velocity": 97,
      "chip": "ym2612"
    },
    {
      "channel": 3,
      "note": 61,
      "start": 73.3156,
      "duration": 0.0953,
      "velocity": 127,
      "chip": "ym2612"
    },
    {
      "channel": 4,
      "note": 71,
      "start": 73.3865,
      "duration": 0.1284,
      "velocity": 91,
      "chip": "ym2612"
    },
    {
      "channel": 0,
      "note": 64,
      "start": 73.4637,
      "duration": 0.128,
      "velocity": 91,
      "chip": "ym2612"
    },
    {
      "channel": 4,
      "note": 61,
      "start": 73.5425,
      "duration": 0.1273,
      "velocity": 91,
      "chip": "ym2612"
    },
    {
      "channel": 5,
      "note": 49,
      "start": 73.5441,
      "duration": 0.2556,
      "velocity": 97,
      "chip": "ym2612"
    },
    {
      "channel": 0,
      "note": 68,
      "start": 73.619,
      "duration": 0.128,
      "velocity": 91,
      "chip": "ym2612"
    },
    {
      "channel": 3,
      "note": 61,
      "start": 73.6213,
      "duration": 0.1002,
      "velocity": 127,
      "chip": "ym2612"
    },
    {
      "channel": 4,
      "note": 64,
      "start": 73.6971,
      "duration": 0.1286,
      "velocity": 91,
      "chip": "ym2612"
    },
    {
      "channel": 0,
      "note": 71,
      "start": 73.775,
      "duration": 0.128,
      "velocity": 91,
      "chip": "ym2612"
    },
    {
      "channel": 4,
      "note": 68,
      "start": 73.8532,
      "duration": 0.1271,
      "velocity": 91,
      "chip": "ym2612"
    },
    {
      "channel": 0,
      "note": 61,
      "start": 73.9298,
      "duration": 0.1278,
      "velocity": 91,
      "chip": "ym2612"
    },
    {
      "channel": 2,
      "note": 49,
      "start": 73.9315,
      "duration": 0.2558,
      "velocity": 97,
      "chip": "ym2612"
    },
    {
      "channel": 3,
      "note": 61,
      "start": 73.9368,
      "duration": 0.0953,
      "velocity": 127,
      "chip": "ym2612"
    },
    {
      "channel": 4,
      "note": 71,
      "start": 74.0093,
      "duration": 0.1267,
      "velocity": 91,
      "chip": "ym2612"
    },
    {
      "channel": 0,
      "note": 64,
      "start": 74.0848,
      "duration": 0.128,
      "velocity": 91,
      "chip": "ym2612"
    },
    {
      "channel": 4,
      "note": 61,
      "start": 74.1635,
      "duration": 0.1274,
      "velocity": 91,
      "chip": "ym2612"
    },
    {
      "channel": 5,
      "note": 49,
      "start": 74.1652,
      "duration": 0.2553,
      "velocity": 97,
      "chip": "ym2612"
    },
    {
      "channel": 0,
      "note": 68,
      "start": 74.241,
      "duration": 0.1272,
      "velocity": 91,
      "chip": "ym2612"
    },
    {
      "channel": 1,
      "note": 49,
      "start": 74.2427,
      "duration": 0.255,
      "velocity": 119,
      "chip": "ym2612"
    },
    {
      "channel": 3,
      "note": 61,
      "start": 74.248,
      "duration": 0.25,
      "velocity": 119,
      "chip": "ym2612"
    },
    {
      "channel": 4,
      "note": 64,
      "start": 74.3183,
      "duration": 0.1279,
      "velocity": 91,
      "chip": "ym2612"
    },
    {
      "channel": 0,
      "note": 71,
      "start": 74.3954,
      "duration": 0.128,
      "velocity": 91,
      "chip": "ym2612"
    },
    {
      "channel": 4,
      "note": 68,
      "start": 74.4744,
      "duration": 0.1271,
      "velocity": 91,
      "chip": "ym2612"
    },
    {
      "channel": 0,
      "note": 59,
      "start": 74.5513,
      "duration": 0.1274,
      "velocity": 91,
      "chip": "ym2612"
    },
    {
      "channel": 1,
      "note": 47,
      "start": 74.5533,
      "duration": 0.8761,
      "velocity": 119,
      "chip": "ym2612"
    },
    {
      "channel": 2,
      "note": 47,
      "start": 74.5552,
      "duration": 0.2531,
      "velocity": 97,
      "chip": "ym2612"
    },
    {
      "channel": 3,
      "note": 61,
      "start": 74.5615,
      "duration": 0.0917,
      "velocity": 127,
      "chip": "ym2612"
    },
    {
      "channel": 4,
      "note": 71,
      "start": 74.6288,
      "duration": 0.1287,
      "velocity": 91,
      "chip": "ym2612"
    },
    {
      "channel": 0,
      "note": 62,
      "start": 74.7069,
      "duration": 0.1271,
      "velocity": 91,
      "chip": "ym2612"
    },
    {
      "channel": 4,
      "note": 59,
      "start": 74.7851,
      "duration": 0.1273,
      "velocity": 91,
      "chip": "ym2612"
    },
    {
      "channel": 5,
      "note": 47,
      "start": 74.7871,
      "duration": 0.2549,
      "velocity": 97,
      "chip": "ym2612"
    },
    {
      "channel": 0,
      "note": 66,
      "start": 74.8613,
      "duration": 0.1287,
      "velocity": 91,
      "chip": "ym2612"
    },
    {
      "channel": 3,
      "note": 61,
      "start": 74.8668,
      "duration": 0.0198,
      "velocity": 119,
      "chip": "ym2612"
    },
    {
      "channel": 4,
      "note": 62,
      "start": 74.9407,
      "duration": 0.1272,
      "velocity": 91,
      "chip": "ym2612"
    },
    {
      "channel": 0,
      "note": 69,
      "start": 75.0166,
      "duration": 0.128,
      "velocity": 91,
      "chip": "ym2612"
    },
    {
      "channel": 4,
      "note": 66,
      "start": 75.0951,
      "duration": 0.1284,
      "velocity": 91,
      "chip": "ym2612"
    },
    {
      "channel": 0,
      "note": 59,
      "start": 75.172,
      "duration": 0.1279,
      "velocity": 91,
      "chip": "ym2612"
    },
    {
      "channel": 2,
      "note": 47,
      "start": 75.1747,
      "duration": 0.2549,
      "velocity": 97,
      "chip": "ym2612"
    },
    {
      "channel": 3,
      "note": 61,
      "start": 75.1801,
      "duration": 0.0943,
      "velocity": 127,
      "chip": "ym2612"
    },
    {
      "channel": 4,
      "note": 69,
      "start": 75.25,
      "duration": 0.1284,
      "velocity": 91,
      "chip": "ym2612"
    },
    {
      "channel": 0,
      "note": 62,
      "start": 75.3272,
      "duration": 0.128,
      "velocity": 91,
      "chip": "ym2612"
    },
    {
      "channel": 4,
      "note": 59,
      "start": 75.4067,
      "duration": 0.127,
      "velocity": 91,
      "chip": "ym2612"
    },
    {
      "channel": 5,
      "note": 47,
      "start": 75.4084,
      "duration": 0.2554,
      "velocity": 97,
      "chip": "ym2612"
    },
    {
      "channel": 0,
      "note": 66,
      "start": 75.4825,
      "duration": 0.1282,
      "velocity": 91,
      "chip": "ym2612"
    },
    {
      "channel": 1,
      "note": 47,
      "start": 75.4842,
      "duration": 0.2559,
      "velocity": 119,
      "chip": "ym2612"
    },
    {
      "channel": 3,
      "note": 61,
      "start": 75.4904,
      "duration": 0.0178,
      "velocity": 119,
      "chip": "ym2612"
    },
    {
      "channel": 4,
      "note": 62,
      "start": 75.561,
      "duration": 0.1296,
      "velocity": 91,
      "chip": "ym2612"
    },
    {
      "channel": 0,
      "note": 69,
      "start": 75.6382,
      "duration": 0.1275,
      "velocity": 91,
      "chip": "ym2612"
    },
    {
      "channel": 4,
      "note": 66,
      "start": 75.7163,
      "duration": 0.1275,
      "velocity": 91,
      "chip": "ym2612"
    },
    {
      "channel": 0,
      "note": 58,
      "start": 75.7934,
      "duration": 0.1277,
      "velocity": 91,
      "chip": "ym2612"
    },
    {
      "channel": 1,
      "note": 46,
      "start": 75.7951,
      "duration": 0.8766,
      "velocity": 119,
      "chip": "ym2612"
    },
    {
      "channel": 2,
      "note": 46,
      "start": 75.7967,
      "duration": 0.254,
      "velocity": 97,
      "chip": "ym2612"
    },
    {
      "channel": 3,
      "note": 61,
      "start": 75.802,
      "duration": 0.0936,
      "velocity": 127,
      "chip": "ym2612"
    },
    {
      "channel": 4,
      "note": 69,
      "start": 75.8712,
      "duration": 0.1284,
      "velocity": 91,
      "chip": "ym2612"
    },
    {
      "channel": 0,
      "note": 62,
      "start": 75.9484,
      "duration": 0.128,
      "velocity": 91,
      "chip": "ym2612"
    },
    {
      "channel": 4,
      "note": 58,
      "start": 76.0272,
      "duration": 0.1272,
      "velocity": 91,
      "chip": "ym2612"
    },
    {
      "channel": 5,
      "note": 46,
      "start": 76.0288,
      "duration": 0.2555,
      "velocity": 97,
      "chip": "ym2612"
    },
    {
      "channel": 0,
      "note": 65,
      "start": 76.1037,
      "duration": 0.128,
      "velocity": 91,
      "chip": "ym2612"
    },
    {
      "channel": 3,
      "note": 61,
      "start": 76.1068,
      "duration": 0.1002,
      "velocity": 127,
      "chip": "ym2612"
    },
    {
      "channel": 4,
      "note": 62,
      "start": 76.1818,
      "duration": 0.1284,
      "velocity": 91,
      "chip": "ym2612"
    },
    {
      "channel": 0,
      "note": 69,
      "start": 76.259,
      "duration": 0.1279,
      "velocity": 91,
      "chip": "ym2612"
    },
    {
      "channel": 4,
      "note": 65,
      "start": 76.3375,
      "duration": 0.1275,
      "velocity": 91,
      "chip": "ym2612"
    },
    {
      "channel": 0,
      "note": 58,
      "start": 76.4144,
      "duration": 0.1279,
      "velocity": 91,
      "chip": "ym2612"
    },
    {
      "channel": 2,
      "note": 46,
      "start": 76.4162,
      "duration": 0.2558,
      "velocity": 97,
      "chip": "ym2612"
    },
    {
      "channel": 3,
      "note": 61,
      "start": 76.4215,
      "duration": 0.0953,
      "velocity": 127,
      "chip": "ym2612"
    },
    {
      "channel": 4,
      "note": 69,
      "start": 76.4923,
      "duration": 0.1284,
      "velocity": 91,
      "chip": "ym2612"
    },
    {
      "channel": 0,
      "note": 62,
      "start": 76.5696,
      "duration": 0.128,
      "velocity": 91,
      "chip": "ym2612"
    },
    {
      "channel": 4,
      "note": 58,
      "start": 76.6483,
      "duration": 0.1273,
      "velocity": 91,
      "chip": "ym2612"
    },
    {
      "channel": 5,
      "note": 46,
      "start": 76.6499,
      "duration": 0.2552,
      "velocity": 97,
      "chip": "ym2612"
    },
    {
      "channel": 0,
      "note": 65,
      "start": 76.7249,
      "duration": 0.128,
      "velocity": 91,
      "chip": "ym2612"
    },
    {
      "channel": 1,
      "note": 46,
      "start": 76.7265,
      "duration": 0.2559,
      "velocity": 119,
      "chip": "ym2612"
    },
    {
      "channel": 3,
      "note": 61,
      "start": 76.7319,
      "duration": 0.2508,
      "velocity": 119,
      "chip": "ym2612"
    },
    {
      "channel": 4,
      "note": 62,
      "start": 76.8029,
      "duration": 0.1279,
      "velocity": 91,
      "chip": "ym2612"
    },
    {
      "channel": 0,
      "note": 69,
      "start": 76.8801,
      "duration": 0.128,
      "velocity": 91,
      "chip": "ym2612"
    },
    {
      "channel": 4,
      "note": 65,
      "start": 76.9585,
      "duration": 0.1277,
      "velocity": 91,
      "chip": "ym2612"
    },
    {
      "channel": 0,
      "note": 57,
      "start": 77.0359,
      "duration": 0.1276,
      "velocity": 91,
      "chip": "ym2612"
    },
    {
      "channel": 1,
      "note": 45,
      "start": 77.0378,
      "duration": 2.5702,
      "velocity": 119,
      "chip": "ym2612"
    },
    {
      "channel": 2,
      "note": 49,
      "start": 77.0409,
      "duration": 2.5673,
      "velocity": 97,
      "chip": "ym2612"
    },
    {
      "channel": 3,
      "note": 61,
      "start": 77.0466,
      "duration": 0.0913,
      "velocity": 127,
      "chip": "ym2612"
    },
    {
      "channel": 4,
      "note": 69,
      "start": 77.1135,
      "duration": 0.1284,
      "velocity": 91,
      "chip": "ym2612"
    },
    {
      "channel": 0,
      "note": 61,
      "start": 77.1915,
      "duration": 0.1273,
      "velocity": 91,
      "chip": "ym2612"
    },
    {
      "channel": 4,
      "note": 57,
      "start": 77.2697,
      "duration": 0.1279,
      "velocity": 91,
      "chip": "ym2612"
    },
    {
      "channel": 5,
      "note": 49,
      "start": 77.2718,
      "duration": 2.6055,
      "velocity": 97,
      "chip": "ym2612"
    },
    {
      "channel": 0,
      "note": 64,
      "start": 77.3471,
      "duration": 0.1281,
      "velocity": 91,
      "chip": "ym2612"
    },
    {
      "channel": 3,
      "note": 61,
      "start": 77.3526,
      "duration": 0.019,
      "velocity": 119,
      "chip": "ym2612"
    },
    {
      "channel": 4,
      "note": 61,
      "start": 77.4258,
      "duration": 0.1288,
      "velocity": 91,
      "chip": "ym2612"
    },
    {
      "channel": 0,
      "note": 68,
      "start": 77.5028,
      "duration": 0.1298,
      "velocity": 91,
      "chip": "ym2612"
    },
    {
      "channel": 4,
      "note": 64,
      "start": 77.5834,
      "duration": 0.1299,
      "velocity": 91,
      "chip": "ym2612"
    },
    {
      "channel": 0,
      "note": 71,
      "start": 77.6617,
      "duration": 0.131,
      "velocity": 91,
      "chip": "ym2612"
    },
    {
      "channel": 3,
      "note": 61,
      "start": 77.664,
      "duration": 0.0225,
      "velocity": 119,
      "chip": "ym2612"
    },
    {
      "channel": 4,
      "note": 68,
      "start": 77.7424,
      "duration": 0.1318,
      "velocity": 91,
      "chip": "ym2612"
    },
    {
      "channel": 0,
      "note": 73,
      "start": 77.821,
      "duration": 0.1328,
      "velocity": 91,
      "chip": "ym2612"
    },
    {
      "channel": 4,
      "note": 71,
      "start": 77.9033,
      "duration": 0.1324,
      "velocity": 91,
      "chip": "ym2612"
    },
    {
      "channel": 0,
      "note": 76,
      "start": 77.9834,
      "duration": 0.1341,
      "velocity": 91,
      "chip": "ym2612"
    },
    {
      "channel": 3,
      "note": 61,
      "start": 77.9889,
      "duration": 0.1016,
      "velocity": 127,
      "chip": "ym2612"
    },
    {
      "channel": 4,
      "note": 73,
      "start": 78.0645,
      "duration": 0.1359,
      "velocity": 91,
      "chip": "ym2612"
    },
    {
      "channel": 0,
      "note": 80,
      "start": 78.1463,
      "duration": 0.1366,
      "velocity": 91,
      "chip": "ym2612"
    },
    {
      "channel": 4,
      "note": 76,
      "start": 78.2304,
      "duration": 0.1374,
      "velocity": 91,
      "chip": "ym2612"
    },
    {
      "channel": 0,
      "note": 81,
      "start": 78.3124,
      "duration": 0.0251,
      "velocity": 91,
      "chip": "ym2612"
    },
    {
      "channel": 3,
      "note": 61,
      "start": 78.318,
      "duration": 0.0204,
      "velocity": 127,
      "chip": "ym2612"
    },
    {
      "channel": 0,
      "note": 83,
      "start": 78.3669,
      "duration": 1.2409,
      "velocity": 91,
      "chip": "ym2612"
    },
    {
      "channel": 3,
      "note": 61,
      "start": 78.3959,
      "duration": 0.0263,
      "velocity": 127,
      "chip": "ym2612"
    },
    {
      "channel": 4,
      "note": 80,
      "start": 78.3976,
      "duration": 0.1367,
      "velocity": 91,
      "chip": "ym2612"
    },
    {
      "channel": 3,
      "note": 61,
      "start": 78.4799,
      "duration": 0.0272,
      "velocity": 127,
      "chip": "ym2612"
    },
    {
      "channel": 3,
      "note": 61,
      "start": 78.5638,
      "duration": 0.027,
      "velocity": 127,
      "chip": "ym2612"
    },
    {
      "channel": 4,
      "note": 81,
      "start": 78.5667,
      "duration": 0.0244,
      "velocity": 91,
      "chip": "ym2612"
    },
    {
      "channel": 4,
      "note": 83,
      "start": 78.62,
      "duration": 1.2572,
      "velocity": 91,
      "chip": "ym2612"
    },
    {
      "channel": 3,
      "note": 61,
      "start": 78.6484,
      "duration": 0.0267,
      "velocity": 127,
      "chip": "ym2612"
    },
    {
      "channel": 3,
      "note": 61,
      "start": 78.7332,
      "duration": 0.0266,
      "velocity": 127,
      "chip": "ym2612"
    },
    {
      "channel": 3,
      "note": 61,
      "start": 78.8181,
      "duration": 0.0267,
      "velocity": 127,
      "chip": "ym2612"
    },
    {
      "channel": 3,
      "note": 61,
      "start": 78.903,
      "duration": 0.0267,
      "velocity": 127,
      "chip": "ym2612"
    },
    {
      "channel": 3,
      "note": 61,
      "start": 78.9879,
      "duration": 0.0266,
      "velocity": 127,
      "chip": "ym2612"
    },
    {
      "channel": 3,
      "note": 61,
      "start": 79.0736,
      "duration": 0.0258,
      "velocity": 127,
      "chip": "ym2612"
    },
    {
      "channel": 3,
      "note": 61,
      "start": 79.1584,
      "duration": 0.0258,
      "velocity": 127,
      "chip": "ym2612"
    },
    {
      "channel": 3,
      "note": 61,
      "start": 79.2425,
      "duration": 0.0266,
      "velocity": 127,
      "chip": "ym2612"
    },
    {
      "channel": 3,
      "note": 61,
      "start": 79.3282,
      "duration": 0.0258,
      "velocity": 127,
      "chip": "ym2612"
    },
    {
      "channel": 3,
      "note": 61,
      "start": 79.4122,
      "duration": 0.0267,
      "velocity": 127,
      "chip": "ym2612"
    },
    {
      "channel": 3,
      "note": 61,
      "start": 79.4977,
      "duration": 0.0265,
      "velocity": 127,
      "chip": "ym2612"
    },
    {
      "channel": 3,
      "note": 61,
      "start": 79.582,
      "duration": 0.027,
      "velocity": 127,
      "chip": "ym2612"
    },
    {
      "channel": 0,
      "note": 54,
      "start": 79.6717,
      "duration": 0.2822,
      "velocity": 91,
      "chip": "ym2612"
    },
    {
      "channel": 1,
      "note": 54,
      "start": 79.6785,
      "duration": 4.9344,
      "velocity": 119,
      "chip": "ym2612"
    },
    {
      "channel": 2,
      "note": 54,
      "start": 79.6848,
      "duration": 4.9283,
      "velocity": 97,
      "chip": "ym2612"
    },
    {
      "channel": 3,
      "note": 61,
      "start": 79.6929,
      "duration": 0.0289,
      "velocity": 119,
      "chip": "ym2612"
    },
    {
      "channel": 4,
      "note": 54,
      "start": 79.9359,
      "duration": 0.2518,
      "velocity": 91,
      "chip": "ym2612"
    },
    {
      "channel": 5,
      "note": 54,
      "start": 79.943,
      "duration": 4.7338,
      "velocity": 97,
      "chip": "ym2612"
    },
    {
      "channel": 0,
      "note": 61,
      "start": 80.0079,
      "duration": 0.2565,
      "velocity": 91,
      "chip": "ym2612"
    },
    {
      "channel": 3,
      "note": 61,
      "start": 80.0105,
      "duration": 0.0219,
      "velocity": 119,
      "chip": "ym2612"
    },
    {
      "channel": 4,
      "note": 61,
      "start": 80.2417,
      "duration": 0.2566,
      "velocity": 91,
      "chip": "ym2612"
    },
    {
      "channel": 0,
      "note": 68,
      "start": 80.3179,
      "duration": 0.2571,
      "velocity": 91,
      "chip": "ym2612"
    },
    {
      "channel": 3,
      "note": 61,
      "start": 80.3205,
      "duration": 0.0229,
      "velocity": 119,
      "chip": "ym2612"
    },
    {
      "channel": 4,
      "note": 68,
      "start": 80.5514,
      "duration": 0.2574,
      "velocity": 91,
      "chip": "ym2612"
    },
    {
      "channel": 0,
      "note": 69,
      "start": 80.6282,
      "duration": 0.2574,
      "velocity": 91,
      "chip": "ym2612"
    },
    {
      "channel": 3,
      "note": 61,
      "start": 80.6308,
      "duration": 0.0227,
      "velocity": 119,
      "chip": "ym2612"
    },
    {
      "channel": 4,
      "note": 69,
      "start": 80.8621,
      "duration": 0.2574,
      "velocity": 91,
      "chip": "ym2612"
    },
    {
      "channel": 0,
      "note": 76,
      "start": 80.9388,
      "duration": 0.2574,
      "velocity": 91,
      "chip": "ym2612"
    },
    {
      "channel": 3,
      "note": 61,
      "start": 80.9423,
      "duration": 0.0217,
      "velocity": 119,
      "chip": "ym2612"
    },
    {
      "channel": 4,
      "note": 76,
      "start": 81.1735,
      "duration": 0.2565,
      "velocity": 91,
      "chip": "ym2612"
    },
    {
      "channel": 0,
      "note": 69,
      "start": 81.2494,
      "duration": 0.2574,
      "velocity": 91,
      "chip": "ym2612"
    },
    {
      "channel": 3,
      "note": 61,
      "start": 81.252,
      "duration": 0.0227,
      "velocity": 119,
      "chip": "ym2612"
    },
    {
      "channel": 4,
      "note": 69,
      "start": 81.4832,
      "duration": 0.2577,
      "velocity": 91,
      "chip": "ym2612"
    },
    {
      "channel": 0,
      "note": 68,
      "start": 81.56,
      "duration": 0.2574,
      "velocity": 91,
      "chip": "ym2612"
    },
    {
      "channel": 3,
      "note": 61,
      "start": 81.5626,
      "duration": 0.0227,
      "velocity": 119,
      "chip": "ym2612"
    },
    {
      "channel": 4,
      "note": 68,
      "start": 81.7938,
      "duration": 0.2574,
      "velocity": 91,
      "chip": "ym2612"
    },
    {
      "channel": 0,
      "note": 61,
      "start": 81.8706,
      "duration": 0.2577,
      "velocity": 91,
      "chip": "ym2612"
    },
    {
      "channel": 3,
      "note": 61,
      "start": 81.8739,
      "duration": 0.022,
      "velocity": 119,
      "chip": "ym2612"
    },
    {
      "channel": 4,
      "note": 61,
      "start": 82.1046,
      "duration": 0.2571,
      "velocity": 91,
      "chip": "ym2612"
    },
    {
      "channel": 0,
      "note": 54,
      "start": 82.1821,
      "duration": 0.2564,
      "velocity": 91,
      "chip": "ym2612"
    },
    {
      "channel": 3,
      "note": 61,
      "start": 82.1876,
      "duration": 0.0206,
      "velocity": 119,
      "chip": "ym2612"
    },
    {
      "channel": 4,
      "note": 54,
      "start": 82.4151,
      "duration": 0.2581,
      "velocity": 91,
      "chip": "ym2612"
    },
    {
      "channel": 0,
      "note": 61,
      "start": 82.4918,
      "duration": 0.2574,
      "velocity": 91,
      "chip": "ym2612"
    },
    {
      "channel": 3,
      "note": 61,
      "start": 82.4943,
      "duration": 0.0227,
      "velocity": 119,
      "chip": "ym2612"
    },
    {
      "channel": 4,
      "note": 61,
      "start": 82.7257,
      "duration": 0.2573,
      "velocity": 91,
      "chip": "ym2612"
    },
    {
      "channel": 0,
      "note": 68,
      "start": 82.8023,
      "duration": 0.2574,
      "velocity": 91,
      "chip": "ym2612"
    },
    {
      "channel": 3,
      "note": 61,
      "start": 82.8049,
      "duration": 0.0227,
      "velocity": 119,
      "chip": "ym2612"
    },
    {
      "channel": 4,
      "note": 68,
      "start": 83.0362,
      "duration": 0.2573,
      "velocity": 91,
      "chip": "ym2612"
    },
    {
      "channel": 0,
      "note": 69,
      "start": 83.1129,
      "duration": 0.2573,
      "velocity": 91,
      "chip": "ym2612"
    },
    {
      "channel": 3,
      "note": 61,
      "start": 83.1155,
      "duration": 0.0227,
      "velocity": 119,
      "chip": "ym2612"
    },
    {
      "channel": 4,
      "note": 69,
      "start": 83.3467,
      "duration": 0.2574,
      "velocity": 91,
      "chip": "ym2612"
    },
    {
      "channel": 0,
      "note": 76,
      "start": 83.4243,
      "duration": 0.2566,
      "velocity": 91,
      "chip": "ym2612"
    },
    {
      "channel": 3,
      "note": 61,
      "start": 83.4269,
      "duration": 0.022,
      "velocity": 119,
      "chip": "ym2612"
    },
    {
      "channel": 4,
      "note": 76,
      "start": 83.6581,
      "duration": 0.2569,
      "velocity": 91,
      "chip": "ym2612"
    },
    {
      "channel": 0,
      "note": 69,
      "start": 83.7341,
      "duration": 0.2583,
      "velocity": 91,
      "chip": "ym2612"
    },
    {
      "channel": 3,
      "note": 61,
      "start": 83.7367,
      "duration": 0.0227,
      "velocity": 119,
      "chip": "ym2612"
    },
    {
      "channel": 4,
      "note": 69,
      "start": 83.9685,
      "duration": 0.2567,
      "velocity": 91,
      "chip": "ym2612"
    },
    {
      "channel": 0,
      "note": 68,
      "start": 84.0447,
      "duration": 0.2574,
      "velocity": 91,
      "chip": "ym2612"
    },
    {
      "channel": 3,
      "note": 61,
      "start": 84.0472,
      "duration": 0.0228,
      "velocity": 119,
      "chip": "ym2612"
    },
    {
      "channel": 4,
      "note": 68,
      "start": 84.2785,
      "duration": 0.2574,
      "velocity": 91,
      "chip": "ym2612"
    },
    {
      "channel": 0,
      "note": 61,
      "start": 84.3552,
      "duration": 0.2574,
      "velocity": 91,
      "chip": "ym2612"
    },
    {
      "channel": 3,
      "note": 61,
      "start": 84.3587,
      "duration": 0.0219,
      "velocity": 119,
      "chip": "ym2612"
    },
    {
      "channel": 4,
      "note": 61,
      "start": 84.5899,
      "duration": 0.0869,
      "velocity": 91,
      "chip": "ym2612"
    },
    {
      "channel": 0,
      "note": 52,
      "start": 84.6664,
      "duration": 0.0104,
      "velocity": 91,
      "chip": "ym2612"
    },
    {
      "channel": 1,
      "note": 52,
      "start": 84.6681,
      "duration": 0.0087,
      "velocity": 119,
      "chip": "ym2612"
    },
    {
      "channel": 2,
      "note": 52,
      "start": 84.6699,
      "duration": 0.0069,
      "velocity": 97,
      "chip": "ym2612"
    },
    {
      "channel": 3,
      "note": 61,
      "start": 84.6768,
      "duration": 0.0001,
      "velocity": 119,
      "chip": "ym2612"
    }
  ]
}