{
  "track_name": "29 - Special Stage",
  "duration_sec": 49.86,
  "sample_rate": 44100,
  "note_count": 920,
  "unique_pitches": 31,
  "pitch_range": 42,
  "avg_note_duration": 0.1535,
  "reconstruction_stats": {
    "notes_reconstructed": 920,
    "keyon_events": 920,
    "keyoff_events": 900,
    "orphan_keyons": 2,
    "unique_pitches": 31,
    "pitch_range": 42,
    "avg_duration_sec": 0.1535
  },
  "metadata": {
    "source": "S\\Sonic the Hedgehog 2\\29 - Special Stage.vgz"
  },
  "notes": [
    {
      "channel": 0,
      "note": 73,
      "start": 0.0105,
      "duration": 0.1115,
      "velocity": 102,
      "chip": "ym2612"
    },
    {
      "channel": 1,
      "note": 73,
      "start": 0.014,
      "duration": 0.109,
      "velocity": 104,
      "chip": "ym2612"
    },
    {
      "channel": 2,
      "note": 85,
      "start": 0.0168,
      "duration": 0.1073,
      "velocity": 102,
      "chip": "ym2612"
    },
    {
      "channel": 3,
      "note": 85,
      "start": 0.0197,
      "duration": 0.1054,
      "velocity": 104,
      "chip": "ym2612"
    },
    {
      "channel": 4,
      "note": 73,
      "start": 0.0232,
      "duration": 0.1027,
      "velocity": 104,
      "chip": "ym2612"
    },
    {
      "channel": 0,
      "note": 73,
      "start": 0.1224,
      "duration": 0.0993,
      "velocity": 102,
      "chip": "ym2612"
    },
    {
      "channel": 1,
      "note": 73,
      "start": 0.1234,
      "duration": 0.0987,
      "velocity": 104,
      "chip": "ym2612"
    },
    {
      "channel": 2,
      "note": 85,
      "start": 0.1244,
      "duration": 0.0981,
      "velocity": 102,
      "chip": "ym2612"
    },
    {
      "channel": 3,
      "note": 85,
      "start": 0.1254,
      "duration": 0.0974,
      "velocity": 104,
      "chip": "ym2612"
    },
    {
      "channel": 4,
      "note": 73,
      "start": 0.1263,
      "duration": 0.0968,
      "velocity": 104,
      "chip": "ym2612"
    },
    {
      "channel": 0,
      "note": 77,
      "start": 0.4229,
      "duration": 0.1327,
      "velocity": 102,
      "chip": "ym2612"
    },
    {
      "channel": 1,
      "note": 77,
      "start": 0.4239,
      "duration": 0.1322,
      "velocity": 104,
      "chip": "ym2612"
    },
    {
      "channel": 2,
      "note": 89,
      "start": 0.4249,
      "duration": 0.1318,
      "velocity": 102,
      "chip": "ym2612"
    },
    {
      "channel": 3,
      "note": 89,
      "start": 0.426,
      "duration": 0.1313,
      "velocity": 104,
      "chip": "ym2612"
    },
    {
      "channel": 4,
      "note": 77,
      "start": 0.427,
      "duration": 0.1308,
      "velocity": 104,
      "chip": "ym2612"
    },
    {
      "channel": 0,
      "note": 73,
      "start": 0.5559,
      "duration": 0.1332,
      "velocity": 102,
      "chip": "ym2612"
    },
    {
      "channel": 1,
      "note": 73,
      "start": 0.5565,
      "duration": 0.1331,
      "velocity": 104,
      "chip": "ym2612"
    },
    {
      "channel": 2,
      "note": 85,
      "start": 0.5571,
      "duration": 0.1331,
      "velocity": 102,
      "chip": "ym2612"
    },
    {
      "channel": 3,
      "note": 85,
      "start": 0.5576,
      "duration": 0.1331,
      "velocity": 104,
      "chip": "ym2612"
    },
    {
      "channel": 4,
      "note": 73,
      "start": 0.5582,
      "duration": 0.1331,
      "velocity": 104,
      "chip": "ym2612"
    },
    {
      "channel": 0,
      "note": 77,
      "start": 0.6894,
      "duration": 0.1332,
      "velocity": 102,
      "chip": "ym2612"
    },
    {
      "channel": 1,
      "note": 77,
      "start": 0.69,
      "duration": 0.1332,
      "velocity": 104,
      "chip": "ym2612"
    },
    {
      "channel": 2,
      "note": 89,
      "start": 0.6906,
      "duration": 0.1333,
      "velocity": 102,
      "chip": "ym2612"
    },
    {
      "channel": 3,
      "note": 89,
      "start": 0.6911,
      "duration": 0.1333,
      "velocity": 104,
      "chip": "ym2612"
    },
    {
      "channel": 4,
      "note": 77,
      "start": 0.6917,
      "duration": 0.1333,
      "velocity": 104,
      "chip": "ym2612"
    },
    {
      "channel": 0,
      "note": 80,
      "start": 0.823,
      "duration": 0.1001,
      "velocity": 102,
      "chip": "ym2612"
    },
    {
      "channel": 1,
      "note": 80,
      "start": 0.8237,
      "duration": 0.1004,
      "velocity": 104,
      "chip": "ym2612"
    },
    {
      "channel": 2,
      "note": 91,
      "start": 0.8243,
      "duration": 0.1008,
      "velocity": 102,
      "chip": "ym2612"
    },
    {
      "channel": 3,
      "note": 92,
      "start": 0.8248,
      "duration": 0.1012,
      "velocity": 104,
      "chip": "ym2612"
    },
    {
      "channel": 4,
      "note": 80,
      "start": 0.8254,
      "duration": 0.1016,
      "velocity": 104,
      "chip": "ym2612"
    },
    {
      "channel": 0,
      "note": 80,
      "start": 0.9235,
      "duration": 0.0993,
      "velocity": 102,
      "chip": "ym2612"
    },
    {
      "channel": 1,
      "note": 80,
      "start": 0.9245,
      "duration": 0.0987,
      "velocity": 104,
      "chip": "ym2612"
    },
    {
      "channel": 2,
      "note": 91,
      "start": 0.9255,
      "duration": 0.098,
      "velocity": 102,
      "chip": "ym2612"
    },
    {
      "channel": 3,
      "note": 92,
      "start": 0.9264,
      "duration": 0.0974,
      "velocity": 104,
      "chip": "ym2612"
    },
    {
      "channel": 4,
      "note": 80,
      "start": 0.9274,
      "duration": 0.0968,
      "velocity": 104,
      "chip": "ym2612"
    },
    {
      "channel": 0,
      "note": 78,
      "start": 1.2239,
      "duration": 0.0997,
      "velocity": 102,
      "chip": "ym2612"
    },
    {
      "channel": 1,
      "note": 78,
      "start": 1.225,
      "duration": 0.0996,
      "velocity": 104,
      "chip": "ym2612"
    },
    {
      "channel": 2,
      "note": 90,
      "start": 1.226,
      "duration": 0.0996,
      "velocity": 102,
      "chip": "ym2612"
    },
    {
      "channel": 3,
      "note": 90,
      "start": 1.227,
      "duration": 0.0996,
      "velocity": 104,
      "chip": "ym2612"
    },
    {
      "channel": 4,
      "note": 78,
      "start": 1.228,
      "duration": 0.0995,
      "velocity": 104,
      "chip": "ym2612"
    },
    {
      "channel": 0,
      "note": 78,
      "start": 1.324,
      "duration": 0.0993,
      "velocity": 102,
      "chip": "ym2612"
    },
    {
      "channel": 1,
      "note": 78,
      "start": 1.325,
      "duration": 0.0987,
      "velocity": 104,
      "chip": "ym2612"
    },
    {
      "channel": 2,
      "note": 90,
      "start": 1.326,
      "duration": 0.0981,
      "velocity": 102,
      "chip": "ym2612"
    },
    {
      "channel": 3,
      "note": 90,
      "start": 1.3269,
      "duration": 0.0974,
      "velocity": 104,
      "chip": "ym2612"
    },
    {
      "channel": 4,
      "note": 78,
      "start": 1.3279,
      "duration": 0.0968,
      "velocity": 104,
      "chip": "ym2612"
    },
    {
      "channel": 0,
      "note": 77,
      "start": 1.6245,
      "duration": 0.5999,
      "velocity": 102,
      "chip": "ym2612"
    },
    {
      "channel": 1,
      "note": 77,
      "start": 1.6256,
      "duration": 0.5994,
      "velocity": 104,
      "chip": "ym2612"
    },
    {
      "channel": 2,
      "note": 89,
      "start": 1.6266,
      "duration": 0.599,
      "velocity": 102,
      "chip": "ym2612"
    },
    {
      "channel": 3,
      "note": 89,
      "start": 1.6276,
      "duration": 0.5986,
      "velocity": 104,
      "chip": "ym2612"
    },
    {
      "channel": 4,
      "note": 77,
      "start": 1.6286,
      "duration": 0.5981,
      "velocity": 104,
      "chip": "ym2612"
    },
    {
      "channel": 0,
      "note": 75,
      "start": 2.2248,
      "duration": 0.1002,
      "velocity": 102,
      "chip": "ym2612"
    },
    {
      "channel": 1,
      "note": 75,
      "start": 2.2254,
      "duration": 0.1005,
      "velocity": 104,
      "chip": "ym2612"
    },
    {
      "channel": 2,
      "note": 87,
      "start": 2.226,
      "duration": 0.1009,
      "velocity": 102,
      "chip": "ym2612"
    },
    {
      "channel": 3,
      "note": 87,
      "start": 2.2266,
      "duration": 0.1013,
      "velocity": 104,
      "chip": "ym2612"
    },
    {
      "channel": 4,
      "note": 75,
      "start": 2.2271,
      "duration": 0.1017,
      "velocity": 104,
      "chip": "ym2612"
    },
    {
      "channel": 0,
      "note": 75,
      "start": 2.3253,
      "duration": 0.0999,
      "velocity": 102,
      "chip": "ym2612"
    },
    {
      "channel": 1,
      "note": 75,
      "start": 2.3263,
      "duration": 0.0998,
      "velocity": 104,
      "chip": "ym2612"
    },
    {
      "channel": 2,
      "note": 87,
      "start": 2.3273,
      "duration": 0.0999,
      "velocity": 102,
      "chip": "ym2612"
    },
    {
      "channel": 3,
      "note": 87,
      "start": 2.3282,
      "duration": 0.0999,
      "velocity": 104,
      "chip": "ym2612"
    },
    {
      "channel": 4,
      "note": 75,
      "start": 2.3292,
      "duration": 0.0999,
      "velocity": 104,
      "chip": "ym2612"
    },
    {
      "channel": 0,
      "note": 73,
      "start": 2.4255,
      "duration": 0.0997,
      "velocity": 102,
      "chip": "ym2612"
    },
    {
      "channel": 1,
      "note": 73,
      "start": 2.4265,
      "duration": 0.0996,
      "velocity": 104,
      "chip": "ym2612"
    },
    {
      "channel": 2,
      "note": 85,
      "start": 2.4275,
      "duration": 0.0997,
      "velocity": 102,
      "chip": "ym2612"
    },
    {
      "channel": 3,
      "note": 85,
      "start": 2.4285,
      "duration": 0.0996,
      "velocity": 104,
      "chip": "ym2612"
    },
    {
      "channel": 4,
      "note": 73,
      "start": 2.4295,
      "duration": 0.0996,
      "velocity": 104,
      "chip": "ym2612"
    },
    {
      "channel": 0,
      "note": 73,
      "start": 2.5255,
      "duration": 0.0993,
      "velocity": 102,
      "chip": "ym2612"
    },
    {
      "channel": 1,
      "note": 73,
      "start": 2.5265,
      "duration": 0.0987,
      "velocity": 104,
      "chip": "ym2612"
    },
    {
      "channel": 2,
      "note": 85,
      "start": 2.5275,
      "duration": 0.098,
      "velocity": 102,
      "chip": "ym2612"
    },
    {
      "channel": 3,
      "note": 85,
      "start": 2.5285,
      "duration": 0.0974,
      "velocity": 104,
      "chip": "ym2612"
    },
    {
      "channel": 4,
      "note": 73,
      "start": 2.5294,
      "duration": 0.0968,
      "velocity": 104,
      "chip": "ym2612"
    },
    {
      "channel": 0,
      "note": 72,
      "start": 2.826,
      "duration": 0.4001,
      "velocity": 102,
      "chip": "ym2612"
    },
    {
      "channel": 1,
      "note": 72,
      "start": 2.827,
      "duration": 0.3995,
      "velocity": 104,
      "chip": "ym2612"
    },
    {
      "channel": 2,
      "note": 84,
      "start": 2.828,
      "duration": 0.3992,
      "velocity": 102,
      "chip": "ym2612"
    },
    {
      "channel": 3,
      "note": 84,
      "start": 2.829,
      "duration": 0.3987,
      "velocity": 104,
      "chip": "ym2612"
    },
    {
      "channel": 4,
      "note": 72,
      "start": 2.83,
      "duration": 0.3982,
      "velocity": 104,
      "chip": "ym2612"
    },
    {
      "channel": 0,
      "note": 72,
      "start": 3.226,
      "duration": 0.801,
      "velocity": 102,
      "chip": "ym2612"
    },
    {
      "channel": 1,
      "note": 72,
      "start": 3.2265,
      "duration": 0.801,
      "velocity": 104,
      "chip": "ym2612"
    },
    {
      "channel": 2,
      "note": 84,
      "start": 3.2273,
      "duration": 0.801,
      "velocity": 102,
      "chip": "ym2612"
    },
    {
      "channel": 3,
      "note": 84,
      "start": 3.2278,
      "duration": 0.801,
      "velocity": 104,
      "chip": "ym2612"
    },
    {
      "channel": 4,
      "note": 72,
      "start": 3.2283,
      "duration": 0.801,
      "velocity": 104,
      "chip": "ym2612"
    },
    {
      "channel": 0,
      "note": 72,
      "start": 4.0271,
      "duration": 0.6171,
      "velocity": 102,
      "chip": "ym2612"
    },
    {
      "channel": 1,
      "note": 72,
      "start": 4.0276,
      "duration": 0.6169,
      "velocity": 104,
      "chip": "ym2612"
    },
    {
      "channel": 2,
      "note": 84,
      "start": 4.0283,
      "duration": 0.6166,
      "velocity": 102,
      "chip": "ym2612"
    },
    {
      "channel": 3,
      "note": 84,
      "start": 4.0288,
      "duration": 0.6164,
      "velocity": 104,
      "chip": "ym2612"
    },
    {
      "channel": 4,
      "note": 72,
      "start": 4.0293,
      "duration": 0.6162,
      "velocity": 104,
      "chip": "ym2612"
    },
    {
      "channel": 0,
      "note": 61,
      "start": 4.8476,
      "duration": 0.0218,
      "velocity": 91,
      "chip": "ym2612"
    },
    {
      "channel": 1,
      "note": 77,
      "start": 4.8483,
      "duration": 0.0216,
      "velocity": 104,
      "chip": "ym2612"
    },
    {
      "channel": 2,
      "note": 89,
      "start": 4.8511,
      "duration": 0.0192,
      "velocity": 103,
      "chip": "ym2612"
    },
    {
      "channel": 3,
      "note": 85,
      "start": 4.854,
      "duration": 0.0166,
      "velocity": 103,
      "chip": "ym2612"
    },
    {
      "channel": 4,
      "note": 89,
      "start": 4.857,
      "duration": 0.0302,
      "velocity": 101,
      "chip": "ym2612"
    },
    {
      "channel": 0,
      "note": 73,
      "start": 4.8698,
      "duration": 0.0167,
      "velocity": 91,
      "chip": "ym2612"
    },
    {
      "channel": 0,
      "note": 53,
      "start": 4.8868,
      "duration": 0.2,
      "velocity": 91,
      "chip": "ym2612"
    },
    {
      "channel": 4,
      "note": 85,
      "start": 4.8876,
      "duration": 0.2,
      "velocity": 101,
      "chip": "ym2612"
    },
    {
      "channel": 0,
      "note": 54,
      "start": 5.0871,
      "duration": 0.0414,
      "velocity": 91,
      "chip": "ym2612"
    },
    {
      "channel": 4,
      "note": 87,
      "start": 5.0881,
      "duration": 0.0412,
      "velocity": 101,
      "chip": "ym2612"
    },
    {
      "channel": 0,
      "note": 55,
      "start": 5.1289,
      "duration": 0.2,
      "velocity": 91,
      "chip": "ym2612"
    },
    {
      "channel": 4,
      "note": 83,
      "start": 5.1298,
      "duration": 0.0993,
      "velocity": 101,
      "chip": "ym2612"
    },
    {
      "channel": 4,
      "note": 89,
      "start": 5.2296,
      "duration": 0.1146,
      "velocity": 101,
      "chip": "ym2612"
    },
    {
      "channel": 0,
      "note": 64,
      "start": 5.3293,
      "duration": 0.0133,
      "velocity": 91,
      "chip": "ym2612"
    },
    {
      "channel": 0,
      "note": 76,
      "start": 5.343,
      "duration": 0.0279,
      "velocity": 91,
      "chip": "ym2612"
    },
    {
      "channel": 4,
      "note": 89,
      "start": 5.3446,
      "duration": 0.0272,
      "velocity": 101,
      "chip": "ym2612"
    },
    {
      "channel": 0,
      "note": 58,
      "start": 5.3713,
      "duration": 0.2,
      "velocity": 91,
      "chip": "ym2612"
    },
    {
      "channel": 4,
      "note": 85,
      "start": 5.3723,
      "duration": 0.1997,
      "velocity": 101,
      "chip": "ym2612"
    },
    {
      "channel": 0,
      "note": 59,
      "start": 5.5716,
      "duration": 0.0415,
      "velocity": 91,
      "chip": "ym2612"
    },
    {
      "channel": 4,
      "note": 87,
      "start": 5.5724,
      "duration": 0.0416,
      "velocity": 101,
      "chip": "ym2612"
    },
    {
      "channel": 0,
      "note": 60,
      "start": 5.6135,
      "duration": 0.0504,
      "velocity": 91,
      "chip": "ym2612"
    },
    {
      "channel": 4,
      "note": 83,
      "start": 5.6145,
      "duration": 0.0519,
      "velocity": 101,
      "chip": "ym2612"
    },
    {
      "channel": 0,
      "note": 61,
      "start": 5.6643,
      "duration": 0.0147,
      "velocity": 91,
      "chip": "ym2612"
    },
    {
      "channel": 4,
      "note": 89,
      "start": 5.6668,
      "duration": 0.0397,
      "velocity": 101,
      "chip": "ym2612"
    },
    {
      "channel": 0,
      "note": 73,
      "start": 5.6794,
      "duration": 0.0263,
      "velocity": 91,
      "chip": "ym2612"
    },
    {
      "channel": 0,
      "note": 53,
      "start": 5.7062,
      "duration": 0.2,
      "velocity": 91,
      "chip": "ym2612"
    },
    {
      "channel": 4,
      "note": 85,
      "start": 5.707,
      "duration": 0.2,
      "velocity": 101,
      "chip": "ym2612"
    },
    {
      "channel": 0,
      "note": 54,
      "start": 5.9065,
      "duration": 0.0414,
      "velocity": 91,
      "chip": "ym2612"
    },
    {
      "channel": 4,
      "note": 87,
      "start": 5.9074,
      "duration": 0.0412,
      "velocity": 101,
      "chip": "ym2612"
    },
    {
      "channel": 0,
      "note": 55,
      "start": 5.9483,
      "duration": 0.2,
      "velocity": 91,
      "chip": "ym2612"
    },
    {
      "channel": 4,
      "note": 83,
      "start": 5.9491,
      "duration": 0.0993,
      "velocity": 101,
      "chip": "ym2612"
    },
    {
      "channel": 4,
      "note": 89,
      "start": 6.0489,
      "duration": 0.1145,
      "velocity": 101,
      "chip": "ym2612"
    },
    {
      "channel": 0,
      "note": 64,
      "start": 6.1487,
      "duration": 0.014,
      "velocity": 91,
      "chip": "ym2612"
    },
    {
      "channel": 0,
      "note": 76,
      "start": 6.163,
      "duration": 0.0272,
      "velocity": 91,
      "chip": "ym2612"
    },
    {
      "channel": 4,
      "note": 89,
      "start": 6.1638,
      "duration": 0.0273,
      "velocity": 101,
      "chip": "ym2612"
    },
    {
      "channel": 0,
      "note": 58,
      "start": 6.1906,
      "duration": 0.2,
      "velocity": 91,
      "chip": "ym2612"
    },
    {
      "channel": 4,
      "note": 85,
      "start": 6.1916,
      "duration": 0.1997,
      "velocity": 101,
      "chip": "ym2612"
    },
    {
      "channel": 0,
      "note": 59,
      "start": 6.391,
      "duration": 0.0415,
      "velocity": 91,
      "chip": "ym2612"
    },
    {
      "channel": 4,
      "note": 87,
      "start": 6.3918,
      "duration": 0.0416,
      "velocity": 101,
      "chip": "ym2612"
    },
    {
      "channel": 0,
      "note": 60,
      "start": 6.4329,
      "duration": 0.0504,
      "velocity": 91,
      "chip": "ym2612"
    },
    {
      "channel": 4,
      "note": 83,
      "start": 6.4338,
      "duration": 0.054,
      "velocity": 101,
      "chip": "ym2612"
    },
    {
      "channel": 0,
      "note": 61,
      "start": 6.4836,
      "duration": 0.0171,
      "velocity": 91,
      "chip": "ym2612"
    },
    {
      "channel": 1,
      "note": 76,
      "start": 6.4863,
      "duration": 0.139,
      "velocity": 103,
      "chip": "ym2612"
    },
    {
      "channel": 2,
      "note": 76,
      "start": 6.4868,
      "duration": 0.139,
      "velocity": 103,
      "chip": "ym2612"
    },
    {
      "channel": 3,
      "note": 72,
      "start": 6.4874,
      "duration": 0.139,
      "velocity": 103,
      "chip": "ym2612"
    },
    {
      "channel": 4,
      "note": 89,
      "start": 6.4883,
      "duration": 0.0378,
      "velocity": 101,
      "chip": "ym2612"
    },
    {
      "channel": 0,
      "note": 73,
      "start": 6.5012,
      "duration": 0.0239,
      "velocity": 91,
      "chip": "ym2612"
    },
    {
      "channel": 0,
      "note": 53,
      "start": 6.5255,
      "duration": 0.2,
      "velocity": 91,
      "chip": "ym2612"
    },
    {
      "channel": 4,
      "note": 85,
      "start": 6.5266,
      "duration": 0.2,
      "velocity": 101,
      "chip": "ym2612"
    },
    {
      "channel": 1,
      "note": 77,
      "start": 6.6257,
      "duration": 0.1589,
      "velocity": 103,
      "chip": "ym2612"
    },
    {
      "channel": 2,
      "note": 77,
      "start": 6.6263,
      "duration": 0.159,
      "velocity": 103,
      "chip": "ym2612"
    },
    {
      "channel": 3,
      "note": 73,
      "start": 6.6268,
      "duration": 0.159,
      "velocity": 103,
      "chip": "ym2612"
    },
    {
      "channel": 0,
      "note": 54,
      "start": 6.7258,
      "duration": 0.0583,
      "velocity": 91,
      "chip": "ym2612"
    },
    {
      "channel": 4,
      "note": 87,
      "start": 6.727,
      "duration": 0.0594,
      "velocity": 101,
      "chip": "ym2612"
    },
    {
      "channel": 0,
      "note": 55,
      "start": 6.7844,
      "duration": 0.2,
      "velocity": 91,
      "chip": "ym2612"
    },
    {
      "channel": 1,
      "note": 78,
      "start": 6.7851,
      "duration": 0.1999,
      "velocity": 103,
      "chip": "ym2612"
    },
    {
      "channel": 2,
      "note": 78,
      "start": 6.7856,
      "duration": 0.2,
      "velocity": 103,
      "chip": "ym2612"
    },
    {
      "channel": 3,
      "note": 74,
      "start": 6.7862,
      "duration": 0.2,
      "velocity": 103,
      "chip": "ym2612"
    },
    {
      "channel": 4,
      "note": 83,
      "start": 6.7869,
      "duration": 0.098,
      "velocity": 101,
      "chip": "ym2612"
    },
    {
      "channel": 4,
      "note": 89,
      "start": 6.8854,
      "duration": 0.1157,
      "velocity": 101,
      "chip": "ym2612"
    },
    {
      "channel": 0,
      "note": 64,
      "start": 6.9848,
      "duration": 0.0152,
      "velocity": 91,
      "chip": "ym2612"
    },
    {
      "channel": 1,
      "note": 79,
      "start": 6.9854,
      "duration": 0.1411,
      "velocity": 103,
      "chip": "ym2612"
    },
    {
      "channel": 2,
      "note": 79,
      "start": 6.986,
      "duration": 0.1412,
      "velocity": 103,
      "chip": "ym2612"
    },
    {
      "channel": 3,
      "note": 75,
      "start": 6.9866,
      "duration": 0.1411,
      "velocity": 103,
      "chip": "ym2612"
    },
    {
      "channel": 0,
      "note": 76,
      "start": 7.0004,
      "duration": 0.026,
      "velocity": 91,
      "chip": "ym2612"
    },
    {
      "channel": 4,
      "note": 89,
      "start": 7.0015,
      "duration": 0.0261,
      "velocity": 101,
      "chip": "ym2612"
    },
    {
      "channel": 0,
      "note": 58,
      "start": 7.0268,
      "duration": 0.2,
      "velocity": 91,
      "chip": "ym2612"
    },
    {
      "channel": 4,
      "note": 85,
      "start": 7.028,
      "duration": 0.1997,
      "velocity": 101,
      "chip": "ym2612"
    },
    {
      "channel": 1,
      "note": 80,
      "start": 7.127,
      "duration": 0.1423,
      "velocity": 103,
      "chip": "ym2612"
    },
    {
      "channel": 2,
      "note": 80,
      "start": 7.1276,
      "duration": 0.1424,
      "velocity": 103,
      "chip": "ym2612"
    },
    {
      "channel": 3,
      "note": 76,
      "start": 7.1281,
      "duration": 0.1424,
      "velocity": 103,
      "chip": "ym2612"
    },
    {
      "channel": 0,
      "note": 59,
      "start": 7.2271,
      "duration": 0.0417,
      "velocity": 91,
      "chip": "ym2612"
    },
    {
      "channel": 4,
      "note": 87,
      "start": 7.2282,
      "duration": 0.043,
      "velocity": 101,
      "chip": "ym2612"
    },
    {
      "channel": 0,
      "note": 60,
      "start": 7.2691,
      "duration": 0.0504,
      "velocity": 91,
      "chip": "ym2612"
    },
    {
      "channel": 1,
      "note": 81,
      "start": 7.2698,
      "duration": 0.0504,
      "velocity": 103,
      "chip": "ym2612"
    },
    {
      "channel": 2,
      "note": 81,
      "start": 7.2704,
      "duration": 0.0504,
      "velocity": 103,
      "chip": "ym2612"
    },
    {
      "channel": 3,
      "note": 77,
      "start": 7.271,
      "duration": 0.0504,
      "velocity": 103,
      "chip": "ym2612"
    },
    {
      "channel": 4,
      "note": 83,
      "start": 7.2717,
      "duration": 0.0505,
      "velocity": 101,
      "chip": "ym2612"
    },
    {
      "channel": 0,
      "note": 61,
      "start": 7.32,
      "duration": 0.0151,
      "velocity": 91,
      "chip": "ym2612"
    },
    {
      "channel": 1,
      "note": 80,
      "start": 7.3206,
      "duration": 0.141,
      "velocity": 103,
      "chip": "ym2612"
    },
    {
      "channel": 2,
      "note": 80,
      "start": 7.3212,
      "duration": 0.141,
      "velocity": 103,
      "chip": "ym2612"
    },
    {
      "channel": 3,
      "note": 76,
      "start": 7.3218,
      "duration": 0.141,
      "velocity": 103,
      "chip": "ym2612"
    },
    {
      "channel": 4,
      "note": 89,
      "start": 7.3226,
      "duration": 0.0398,
      "velocity": 101,
      "chip": "ym2612"
    },
    {
      "channel": 0,
      "note": 73,
      "start": 7.3354,
      "duration": 0.026,
      "velocity": 91,
      "chip": "ym2612"
    },
    {
      "channel": 0,
      "note": 53,
      "start": 7.3618,
      "duration": 0.2,
      "velocity": 91,
      "chip": "ym2612"
    },
    {
      "channel": 4,
      "note": 85,
      "start": 7.3629,
      "duration": 0.2,
      "velocity": 101,
      "chip": "ym2612"
    },
    {
      "channel": 1,
      "note": 81,
      "start": 7.462,
      "duration": 0.1422,
      "velocity": 103,
      "chip": "ym2612"
    },
    {
      "channel": 2,
      "note": 81,
      "start": 7.4626,
      "duration": 0.1423,
      "velocity": 103,
      "chip": "ym2612"
    },
    {
      "channel": 3,
      "note": 77,
      "start": 7.4631,
      "duration": 0.1423,
      "velocity": 103,
      "chip": "ym2612"
    },
    {
      "channel": 0,
      "note": 54,
      "start": 7.5621,
      "duration": 0.0416,
      "velocity": 91,
      "chip": "ym2612"
    },
    {
      "channel": 4,
      "note": 87,
      "start": 7.5634,
      "duration": 0.0427,
      "velocity": 101,
      "chip": "ym2612"
    },
    {
      "channel": 0,
      "note": 55,
      "start": 7.6041,
      "duration": 0.2,
      "velocity": 91,
      "chip": "ym2612"
    },
    {
      "channel": 1,
      "note": 82,
      "start": 7.6047,
      "duration": 0.1999,
      "velocity": 103,
      "chip": "ym2612"
    },
    {
      "channel": 2,
      "note": 82,
      "start": 7.6053,
      "duration": 0.2,
      "velocity": 103,
      "chip": "ym2612"
    },
    {
      "channel": 3,
      "note": 78,
      "start": 7.6059,
      "duration": 0.2,
      "velocity": 103,
      "chip": "ym2612"
    },
    {
      "channel": 4,
      "note": 83,
      "start": 7.6065,
      "duration": 0.098,
      "velocity": 101,
      "chip": "ym2612"
    },
    {
      "channel": 4,
      "note": 89,
      "start": 7.705,
      "duration": 0.1157,
      "velocity": 101,
      "chip": "ym2612"
    },
    {
      "channel": 0,
      "note": 56,
      "start": 7.8044,
      "duration": 0.0153,
      "velocity": 91,
      "chip": "ym2612"
    },
    {
      "channel": 1,
      "note": 81,
      "start": 7.8051,
      "duration": 0.1411,
      "velocity": 103,
      "chip": "ym2612"
    },
    {
      "channel": 2,
      "note": 81,
      "start": 7.8057,
      "duration": 0.1412,
      "velocity": 103,
      "chip": "ym2612"
    },
    {
      "channel": 3,
      "note": 77,
      "start": 7.8063,
      "duration": 0.1411,
      "velocity": 103,
      "chip": "ym2612"
    },
    {
      "channel": 0,
      "note": 68,
      "start": 7.8201,
      "duration": 0.0259,
      "velocity": 91,
      "chip": "ym2612"
    },
    {
      "channel": 4,
      "note": 89,
      "start": 7.8212,
      "duration": 0.0261,
      "velocity": 101,
      "chip": "ym2612"
    },
    {
      "channel": 0,
      "note": 58,
      "start": 7.8464,
      "duration": 0.2,
      "velocity": 91,
      "chip": "ym2612"
    },
    {
      "channel": 4,
      "note": 85,
      "start": 7.8477,
      "duration": 0.1997,
      "velocity": 101,
      "chip": "ym2612"
    },
    {
      "channel": 1,
      "note": 82,
      "start": 7.9467,
      "duration": 0.1423,
      "velocity": 103,
      "chip": "ym2612"
    },
    {
      "channel": 2,
      "note": 82,
      "start": 7.9472,
      "duration": 0.1424,
      "velocity": 103,
      "chip": "ym2612"
    },
    {
      "channel": 3,
      "note": 78,
      "start": 7.9478,
      "duration": 0.1425,
      "velocity": 103,
      "chip": "ym2612"
    },
    {
      "channel": 0,
      "note": 59,
      "start": 8.0468,
      "duration": 0.0417,
      "velocity": 91,
      "chip": "ym2612"
    },
    {
      "channel": 4,
      "note": 87,
      "start": 8.0479,
      "duration": 0.0431,
      "velocity": 101,
      "chip": "ym2612"
    },
    {
      "channel": 0,
      "note": 60,
      "start": 8.0888,
      "duration": 0.0292,
      "velocity": 91,
      "chip": "ym2612"
    },
    {
      "channel": 1,
      "note": 83,
      "start": 8.0895,
      "duration": 0.0318,
      "velocity": 103,
      "chip": "ym2612"
    },
    {
      "channel": 2,
      "note": 83,
      "start": 8.09,
      "duration": 0.0319,
      "velocity": 103,
      "chip": "ym2612"
    },
    {
      "channel": 3,
      "note": 79,
      "start": 8.0906,
      "duration": 0.0317,
      "velocity": 103,
      "chip": "ym2612"
    },
    {
      "channel": 4,
      "note": 83,
      "start": 8.0914,
      "duration": 0.0314,
      "velocity": 101,
      "chip": "ym2612"
    },
    {
      "channel": 0,
      "note": 61,
      "start": 8.1185,
      "duration": 0.0186,
      "velocity": 91,
      "chip": "ym2612"
    },
    {
      "channel": 1,
      "note": 85,
      "start": 8.1217,
      "duration": 0.2391,
      "velocity": 103,
      "chip": "ym2612"
    },
    {
      "channel": 4,
      "note": 89,
      "start": 8.1233,
      "duration": 0.0377,
      "velocity": 101,
      "chip": "ym2612"
    },
    {
      "channel": 0,
      "note": 73,
      "start": 8.1375,
      "duration": 0.0225,
      "velocity": 91,
      "chip": "ym2612"
    },
    {
      "channel": 0,
      "note": 53,
      "start": 8.1603,
      "duration": 0.2,
      "velocity": 91,
      "chip": "ym2612"
    },
    {
      "channel": 4,
      "note": 85,
      "start": 8.1614,
      "duration": 0.2003,
      "velocity": 101,
      "chip": "ym2612"
    },
    {
      "channel": 0,
      "note": 54,
      "start": 8.3607,
      "duration": 0.0502,
      "velocity": 91,
      "chip": "ym2612"
    },
    {
      "channel": 1,
      "note": 89,
      "start": 8.3613,
      "duration": 0.0501,
      "velocity": 103,
      "chip": "ym2612"
    },
    {
      "channel": 4,
      "note": 87,
      "start": 8.3622,
      "duration": 0.05,
      "velocity": 101,
      "chip": "ym2612"
    },
    {
      "channel": 0,
      "note": 55,
      "start": 8.4112,
      "duration": 0.2,
      "velocity": 91,
      "chip": "ym2612"
    },
    {
      "channel": 1,
      "note": 92,
      "start": 8.4119,
      "duration": 0.2419,
      "velocity": 103,
      "chip": "ym2612"
    },
    {
      "channel": 4,
      "note": 83,
      "start": 8.4127,
      "duration": 0.099,
      "velocity": 101,
      "chip": "ym2612"
    },
    {
      "channel": 4,
      "note": 89,
      "start": 8.5122,
      "duration": 0.1155,
      "velocity": 101,
      "chip": "ym2612"
    },
    {
      "channel": 0,
      "note": 64,
      "start": 8.6116,
      "duration": 0.0152,
      "velocity": 91,
      "chip": "ym2612"
    },
    {
      "channel": 0,
      "note": 76,
      "start": 8.6272,
      "duration": 0.026,
      "velocity": 91,
      "chip": "ym2612"
    },
    {
      "channel": 4,
      "note": 89,
      "start": 8.6281,
      "duration": 0.0266,
      "velocity": 101,
      "chip": "ym2612"
    },
    {
      "channel": 0,
      "note": 58,
      "start": 8.6536,
      "duration": 0.2,
      "velocity": 91,
      "chip": "ym2612"
    },
    {
      "channel": 1,
      "note": 90,
      "start": 8.6542,
      "duration": 0.2504,
      "velocity": 103,
      "chip": "ym2612"
    },
    {
      "channel": 4,
      "note": 85,
      "start": 8.6551,
      "duration": 0.1994,
      "velocity": 101,
      "chip": "ym2612"
    },
    {
      "channel": 0,
      "note": 59,
      "start": 8.8539,
      "duration": 0.0502,
      "velocity": 91,
      "chip": "ym2612"
    },
    {
      "channel": 4,
      "note": 87,
      "start": 8.855,
      "duration": 0.0505,
      "velocity": 101,
      "chip": "ym2612"
    },
    {
      "channel": 0,
      "note": 60,
      "start": 8.9044,
      "duration": 0.2167,
      "velocity": 91,
      "chip": "ym2612"
    },
    {
      "channel": 1,
      "note": 89,
      "start": 8.9051,
      "duration": 0.2169,
      "velocity": 103,
      "chip": "ym2612"
    },
    {
      "channel": 4,
      "note": 83,
      "start": 8.906,
      "duration": 0.2171,
      "velocity": 101,
      "chip": "ym2612"
    },
    {
      "channel": 0,
      "note": 61,
      "start": 9.1215,
      "duration": 0.0158,
      "velocity": 91,
      "chip": "ym2612"
    },
    {
      "channel": 1,
      "note": 89,
      "start": 9.122,
      "duration": 0.0417,
      "velocity": 103,
      "chip": "ym2612"
    },
    {
      "channel": 4,
      "note": 89,
      "start": 9.1235,
      "duration": 0.041,
      "velocity": 101,
      "chip": "ym2612"
    },
    {
      "channel": 0,
      "note": 73,
      "start": 9.1377,
      "duration": 0.0254,
      "velocity": 91,
      "chip": "ym2612"
    },
    {
      "channel": 0,
      "note": 53,
      "start": 9.1636,
      "duration": 0.1998,
      "velocity": 91,
      "chip": "ym2612"
    },
    {
      "channel": 1,
      "note": 87,
      "start": 9.1642,
      "duration": 0.2503,
      "velocity": 103,
      "chip": "ym2612"
    },
    {
      "channel": 4,
      "note": 85,
      "start": 9.165,
      "duration": 0.1996,
      "velocity": 101,
      "chip": "ym2612"
    },
    {
      "channel": 0,
      "note": 54,
      "start": 9.3638,
      "duration": 0.0502,
      "velocity": 91,
      "chip": "ym2612"
    },
    {
      "channel": 4,
      "note": 87,
      "start": 9.365,
      "duration": 0.0503,
      "velocity": 101,
      "chip": "ym2612"
    },
    {
      "channel": 0,
      "note": 55,
      "start": 9.4144,
      "duration": 0.2,
      "velocity": 91,
      "chip": "ym2612"
    },
    {
      "channel": 1,
      "note": 85,
      "start": 9.415,
      "duration": 0.2419,
      "velocity": 103,
      "chip": "ym2612"
    },
    {
      "channel": 4,
      "note": 83,
      "start": 9.4158,
      "duration": 0.099,
      "velocity": 101,
      "chip": "ym2612"
    },
    {
      "channel": 4,
      "note": 89,
      "start": 9.5153,
      "duration": 0.1155,
      "velocity": 101,
      "chip": "ym2612"
    },
    {
      "channel": 0,
      "note": 64,
      "start": 9.6148,
      "duration": 0.0152,
      "velocity": 91,
      "chip": "ym2612"
    },
    {
      "channel": 0,
      "note": 76,
      "start": 9.6304,
      "duration": 0.0259,
      "velocity": 91,
      "chip": "ym2612"
    },
    {
      "channel": 4,
      "note": 89,
      "start": 9.6312,
      "duration": 0.0266,
      "velocity": 101,
      "chip": "ym2612"
    },
    {
      "channel": 0,
      "note": 58,
      "start": 9.6567,
      "duration": 0.2,
      "velocity": 91,
      "chip": "ym2612"
    },
    {
      "channel": 1,
      "note": 89,
      "start": 9.6573,
      "duration": 0.2,
      "velocity": 103,
      "chip": "ym2612"
    },
    {
      "channel": 4,
      "note": 85,
      "start": 9.6583,
      "duration": 0.1998,
      "velocity": 101,
      "chip": "ym2612"
    },
    {
      "channel": 0,
      "note": 59,
      "start": 9.857,
      "duration": 0.0502,
      "velocity": 91,
      "chip": "ym2612"
    },
    {
      "channel": 1,
      "note": 87,
      "start": 9.8577,
      "duration": 0.05,
      "velocity": 103,
      "chip": "ym2612"
    },
    {
      "channel": 4,
      "note": 87,
      "start": 9.8585,
      "duration": 0.0502,
      "velocity": 101,
      "chip": "ym2612"
    },
    {
      "channel": 0,
      "note": 60,
      "start": 9.9076,
      "duration": 0.2,
      "velocity": 91,
      "chip": "ym2612"
    },
    {
      "channel": 1,
      "note": 85,
      "start": 9.9082,
      "duration": 0.2,
      "velocity": 103,
      "chip": "ym2612"
    },
    {
      "channel": 4,
      "note": 83,
      "start": 9.9091,
      "duration": 0.2012,
      "velocity": 101,
      "chip": "ym2612"
    },
    {
      "channel": 0,
      "note": 61,
      "start": 10.108,
      "duration": 0.0154,
      "velocity": 91,
      "chip": "ym2612"
    },
    {
      "channel": 1,
      "note": 83,
      "start": 10.1086,
      "duration": 0.4073,
      "velocity": 103,
      "chip": "ym2612"
    },
    {
      "channel": 2,
      "note": 77,
      "start": 10.1093,
      "duration": 0.0147,
      "velocity": 103,
      "chip": "ym2612"
    },
    {
      "channel": 3,
      "note": 73,
      "start": 10.1099,
      "duration": 0.0144,
      "velocity": 103,
      "chip": "ym2612"
    },
    {
      "channel": 4,
      "note": 89,
      "start": 10.1108,
      "duration": 0.0395,
      "velocity": 101,
      "chip": "ym2612"
    },
    {
      "channel": 0,
      "note": 73,
      "start": 10.1237,
      "duration": 0.0258,
      "velocity": 91,
      "chip": "ym2612"
    },
    {
      "channel": 0,
      "note": 53,
      "start": 10.1499,
      "duration": 0.2,
      "velocity": 91,
      "chip": "ym2612"
    },
    {
      "channel": 4,
      "note": 85,
      "start": 10.1507,
      "duration": 0.2008,
      "velocity": 101,
      "chip": "ym2612"
    },
    {
      "channel": 2,
      "note": 77,
      "start": 10.2502,
      "duration": 0.1006,
      "velocity": 103,
      "chip": "ym2612"
    },
    {
      "channel": 3,
      "note": 73,
      "start": 10.2508,
      "duration": 0.1003,
      "velocity": 103,
      "chip": "ym2612"
    },
    {
      "channel": 0,
      "note": 54,
      "start": 10.3502,
      "duration": 0.0502,
      "velocity": 91,
      "chip": "ym2612"
    },
    {
      "channel": 4,
      "note": 87,
      "start": 10.352,
      "duration": 0.0503,
      "velocity": 101,
      "chip": "ym2612"
    },
    {
      "channel": 0,
      "note": 55,
      "start": 10.4008,
      "duration": 0.1142,
      "velocity": 91,
      "chip": "ym2612"
    },
    {
      "channel": 2,
      "note": 77,
      "start": 10.4015,
      "duration": 0.0995,
      "velocity": 103,
      "chip": "ym2612"
    },
    {
      "channel": 3,
      "note": 73,
      "start": 10.4021,
      "duration": 0.0993,
      "velocity": 103,
      "chip": "ym2612"
    },
    {
      "channel": 4,
      "note": 83,
      "start": 10.4027,
      "duration": 0.0991,
      "velocity": 101,
      "chip": "ym2612"
    },
    {
      "channel": 4,
      "note": 89,
      "start": 10.5023,
      "duration": 0.05,
      "velocity": 101,
      "chip": "ym2612"
    },
    {
      "channel": 0,
      "note": 64,
      "start": 10.5154,
      "duration": 0.0358,
      "velocity": 91,
      "chip": "ym2612"
    },
    {
      "channel": 1,
      "note": 83,
      "start": 10.5159,
      "duration": 0.4291,
      "velocity": 103,
      "chip": "ym2612"
    },
    {
      "channel": 2,
      "note": 75,
      "start": 10.5168,
      "duration": 0.1497,
      "velocity": 103,
      "chip": "ym2612"
    },
    {
      "channel": 3,
      "note": 71,
      "start": 10.5173,
      "duration": 0.1497,
      "velocity": 103,
      "chip": "ym2612"
    },
    {
      "channel": 0,
      "note": 76,
      "start": 10.5516,
      "duration": 0.0999,
      "velocity": 91,
      "chip": "ym2612"
    },
    {
      "channel": 4,
      "note": 89,
      "start": 10.5527,
      "duration": 0.1,
      "velocity": 101,
      "chip": "ym2612"
    },
    {
      "channel": 0,
      "note": 58,
      "start": 10.6519,
      "duration": 0.0417,
      "velocity": 91,
      "chip": "ym2612"
    },
    {
      "channel": 4,
      "note": 85,
      "start": 10.6531,
      "duration": 0.0419,
      "velocity": 101,
      "chip": "ym2612"
    },
    {
      "channel": 2,
      "note": 77,
      "start": 10.6668,
      "duration": 0.0276,
      "velocity": 103,
      "chip": "ym2612"
    },
    {
      "channel": 3,
      "note": 73,
      "start": 10.6674,
      "duration": 0.0273,
      "velocity": 103,
      "chip": "ym2612"
    },
    {
      "channel": 0,
      "note": 59,
      "start": 10.6939,
      "duration": 0.0501,
      "velocity": 91,
      "chip": "ym2612"
    },
    {
      "channel": 4,
      "note": 87,
      "start": 10.6955,
      "duration": 0.0497,
      "velocity": 101,
      "chip": "ym2612"
    },
    {
      "channel": 0,
      "note": 60,
      "start": 10.7444,
      "duration": 0.2,
      "velocity": 91,
      "chip": "ym2612"
    },
    {
      "channel": 4,
      "note": 83,
      "start": 10.7456,
      "duration": 0.2015,
      "velocity": 101,
      "chip": "ym2612"
    },
    {
      "channel": 0,
      "note": 61,
      "start": 10.9448,
      "duration": 0.015,
      "velocity": 91,
      "chip": "ym2612"
    },
    {
      "channel": 2,
      "note": 77,
      "start": 10.9461,
      "duration": 0.0143,
      "velocity": 103,
      "chip": "ym2612"
    },
    {
      "channel": 3,
      "note": 73,
      "start": 10.9467,
      "duration": 0.014,
      "velocity": 103,
      "chip": "ym2612"
    },
    {
      "channel": 4,
      "note": 89,
      "start": 10.9476,
      "duration": 0.0395,
      "velocity": 101,
      "chip": "ym2612"
    },
    {
      "channel": 0,
      "note": 73,
      "start": 10.9601,
      "duration": 0.0262,
      "velocity": 91,
      "chip": "ym2612"
    },
    {
      "channel": 0,
      "note": 53,
      "start": 10.9867,
      "duration": 0.0417,
      "velocity": 91,
      "chip": "ym2612"
    },
    {
      "channel": 4,
      "note": 85,
      "start": 10.9876,
      "duration": 0.0423,
      "velocity": 101,
      "chip": "ym2612"
    },
    {
      "channel": 2,
      "note": 77,
      "start": 11.0001,
      "duration": 0.0289,
      "velocity": 103,
      "chip": "ym2612"
    },
    {
      "channel": 3,
      "note": 73,
      "start": 11.0007,
      "duration": 0.0287,
      "velocity": 103,
      "chip": "ym2612"
    },
    {
      "channel": 0,
      "note": 54,
      "start": 11.0288,
      "duration": 0.0501,
      "velocity": 91,
      "chip": "ym2612"
    },
    {
      "channel": 4,
      "note": 87,
      "start": 11.0303,
      "duration": 0.0504,
      "velocity": 101,
      "chip": "ym2612"
    },
    {
      "channel": 0,
      "note": 55,
      "start": 11.0793,
      "duration": 0.1126,
      "velocity": 91,
      "chip": "ym2612"
    },
    {
      "channel": 2,
      "note": 77,
      "start": 11.08,
      "duration": 0.0994,
      "velocity": 103,
      "chip": "ym2612"
    },
    {
      "channel": 3,
      "note": 73,
      "start": 11.0805,
      "duration": 0.0991,
      "velocity": 103,
      "chip": "ym2612"
    },
    {
      "channel": 4,
      "note": 83,
      "start": 11.0812,
      "duration": 0.0989,
      "velocity": 101,
      "chip": "ym2612"
    },
    {
      "channel": 4,
      "note": 89,
      "start": 11.1805,
      "duration": 0.05,
      "velocity": 101,
      "chip": "ym2612"
    },
    {
      "channel": 0,
      "note": 56,
      "start": 11.1923,
      "duration": 0.0374,
      "velocity": 91,
      "chip": "ym2612"
    },
    {
      "channel": 2,
      "note": 75,
      "start": 11.1933,
      "duration": 0.1666,
      "velocity": 103,
      "chip": "ym2612"
    },
    {
      "channel": 3,
      "note": 71,
      "start": 11.1939,
      "duration": 0.1666,
      "velocity": 103,
      "chip": "ym2612"
    },
    {
      "channel": 0,
      "note": 68,
      "start": 11.2301,
      "duration": 0.1166,
      "velocity": 91,
      "chip": "ym2612"
    },
    {
      "channel": 4,
      "note": 89,
      "start": 11.2309,
      "duration": 0.1167,
      "velocity": 101,
      "chip": "ym2612"
    },
    {
      "channel": 0,
      "note": 58,
      "start": 11.3471,
      "duration": 0.0415,
      "velocity": 91,
      "chip": "ym2612"
    },
    {
      "channel": 4,
      "note": 85,
      "start": 11.3481,
      "duration": 0.0418,
      "velocity": 101,
      "chip": "ym2612"
    },
    {
      "channel": 2,
      "note": 77,
      "start": 11.3603,
      "duration": 0.0289,
      "velocity": 103,
      "chip": "ym2612"
    },
    {
      "channel": 3,
      "note": 73,
      "start": 11.3609,
      "duration": 0.0286,
      "velocity": 103,
      "chip": "ym2612"
    },
    {
      "channel": 0,
      "note": 59,
      "start": 11.389,
      "duration": 0.0503,
      "velocity": 91,
      "chip": "ym2612"
    },
    {
      "channel": 4,
      "note": 87,
      "start": 11.3903,
      "duration": 0.0499,
      "velocity": 101,
      "chip": "ym2612"
    },
    {
      "channel": 0,
      "note": 60,
      "start": 11.4396,
      "duration": 0.0262,
      "velocity": 91,
      "chip": "ym2612"
    },
    {
      "channel": 4,
      "note": 83,
      "start": 11.4406,
      "duration": 0.0277,
      "velocity": 101,
      "chip": "ym2612"
    },
    {
      "channel": 0,
      "note": 61,
      "start": 11.4663,
      "duration": 0.0162,
      "velocity": 91,
      "chip": "ym2612"
    },
    {
      "channel": 1,
      "note": 85,
      "start": 11.4669,
      "duration": 0.2417,
      "velocity": 103,
      "chip": "ym2612"
    },
    {
      "channel": 4,
      "note": 89,
      "start": 11.4687,
      "duration": 0.04,
      "velocity": 101,
      "chip": "ym2612"
    },
    {
      "channel": 0,
      "note": 73,
      "start": 11.4828,
      "duration": 0.0249,
      "velocity": 91,
      "chip": "ym2612"
    },
    {
      "channel": 0,
      "note": 53,
      "start": 11.5081,
      "duration": 0.2,
      "velocity": 91,
      "chip": "ym2612"
    },
    {
      "channel": 4,
      "note": 85,
      "start": 11.5092,
      "duration": 0.2003,
      "velocity": 101,
      "chip": "ym2612"
    },
    {
      "channel": 0,
      "note": 54,
      "start": 11.7084,
      "duration": 0.0502,
      "velocity": 91,
      "chip": "ym2612"
    },
    {
      "channel": 1,
      "note": 89,
      "start": 11.7091,
      "duration": 0.05,
      "velocity": 103,
      "chip": "ym2612"
    },
    {
      "channel": 4,
      "note": 87,
      "start": 11.71,
      "duration": 0.0499,
      "velocity": 101,
      "chip": "ym2612"
    },
    {
      "channel": 0,
      "note": 55,
      "start": 11.759,
      "duration": 0.2,
      "velocity": 91,
      "chip": "ym2612"
    },
    {
      "channel": 1,
      "note": 92,
      "start": 11.7596,
      "duration": 0.2418,
      "velocity": 103,
      "chip": "ym2612"
    },
    {
      "channel": 4,
      "note": 83,
      "start": 11.7604,
      "duration": 0.099,
      "velocity": 101,
      "chip": "ym2612"
    },
    {
      "channel": 4,
      "note": 89,
      "start": 11.8599,
      "duration": 0.1155,
      "velocity": 101,
      "chip": "ym2612"
    },
    {
      "channel": 0,
      "note": 64,
      "start": 11.9593,
      "duration": 0.0152,
      "velocity": 91,
      "chip": "ym2612"
    },
    {
      "channel": 0,
      "note": 76,
      "start": 11.9749,
      "duration": 0.0259,
      "velocity": 91,
      "chip": "ym2612"
    },
    {
      "channel": 4,
      "note": 89,
      "start": 11.9758,
      "duration": 0.0265,
      "velocity": 101,
      "chip": "ym2612"
    },
    {
      "channel": 0,
      "note": 58,
      "start": 12.0012,
      "duration": 0.2,
      "velocity": 91,
      "chip": "ym2612"
    },
    {
      "channel": 1,
      "note": 90,
      "start": 12.0019,
      "duration": 0.2504,
      "velocity": 103,
      "chip": "ym2612"
    },
    {
      "channel": 4,
      "note": 85,
      "start": 12.0028,
      "duration": 0.1994,
      "velocity": 101,
      "chip": "ym2612"
    },
    {
      "channel": 0,
      "note": 59,
      "start": 12.2016,
      "duration": 0.0502,
      "velocity": 91,
      "chip": "ym2612"
    },
    {
      "channel": 4,
      "note": 87,
      "start": 12.2027,
      "duration": 0.0506,
      "velocity": 101,
      "chip": "ym2612"
    },
    {
      "channel": 0,
      "note": 60,
      "start": 12.2521,
      "duration": 0.2,
      "velocity": 91,
      "chip": "ym2612"
    },
    {
      "channel": 1,
      "note": 89,
      "start": 12.2528,
      "duration": 0.2002,
      "velocity": 103,
      "chip": "ym2612"
    },
    {
      "channel": 4,
      "note": 83,
      "start": 12.2537,
      "duration": 0.2006,
      "velocity": 101,
      "chip": "ym2612"
    },
    {
      "channel": 0,
      "note": 61,
      "start": 12.4525,
      "duration": 0.0159,
      "velocity": 91,
      "chip": "ym2612"
    },
    {
      "channel": 1,
      "note": 89,
      "start": 12.453,
      "duration": 0.0416,
      "velocity": 103,
      "chip": "ym2612"
    },
    {
      "channel": 4,
      "note": 89,
      "start": 12.4547,
      "duration": 0.0407,
      "velocity": 101,
      "chip": "ym2612"
    },
    {
      "channel": 0,
      "note": 73,
      "start": 12.4688,
      "duration": 0.0252,
      "velocity": 91,
      "chip": "ym2612"
    },
    {
      "channel": 0,
      "note": 53,
      "start": 12.4944,
      "duration": 0.2,
      "velocity": 91,
      "chip": "ym2612"
    },
    {
      "channel": 1,
      "note": 87,
      "start": 12.4951,
      "duration": 0.2504,
      "velocity": 103,
      "chip": "ym2612"
    },
    {
      "channel": 4,
      "note": 85,
      "start": 12.4958,
      "duration": 0.1997,
      "velocity": 101,
      "chip": "ym2612"
    },
    {
      "channel": 0,
      "note": 54,
      "start": 12.6947,
      "duration": 0.0501,
      "velocity": 91,
      "chip": "ym2612"
    },
    {
      "channel": 4,
      "note": 87,
      "start": 12.696,
      "duration": 0.0502,
      "velocity": 101,
      "chip": "ym2612"
    },
    {
      "channel": 0,
      "note": 55,
      "start": 12.7453,
      "duration": 0.2,
      "velocity": 91,
      "chip": "ym2612"
    },
    {
      "channel": 1,
      "note": 85,
      "start": 12.7459,
      "duration": 0.2419,
      "velocity": 103,
      "chip": "ym2612"
    },
    {
      "channel": 4,
      "note": 83,
      "start": 12.7467,
      "duration": 0.099,
      "velocity": 101,
      "chip": "ym2612"
    },
    {
      "channel": 4,
      "note": 89,
      "start": 12.8462,
      "duration": 0.1156,
      "velocity": 101,
      "chip": "ym2612"
    },
    {
      "channel": 0,
      "note": 64,
      "start": 12.9456,
      "duration": 0.0154,
      "velocity": 91,
      "chip": "ym2612"
    },
    {
      "channel": 0,
      "note": 76,
      "start": 12.9614,
      "duration": 0.0258,
      "velocity": 91,
      "chip": "ym2612"
    },
    {
      "channel": 4,
      "note": 89,
      "start": 12.9622,
      "duration": 0.0264,
      "velocity": 101,
      "chip": "ym2612"
    },
    {
      "channel": 0,
      "note": 58,
      "start": 12.9876,
      "duration": 0.2,
      "velocity": 91,
      "chip": "ym2612"
    },
    {
      "channel": 1,
      "note": 89,
      "start": 12.9882,
      "duration": 0.2,
      "velocity": 103,
      "chip": "ym2612"
    },
    {
      "channel": 4,
      "note": 85,
      "start": 12.9891,
      "duration": 0.1998,
      "velocity": 101,
      "chip": "ym2612"
    },
    {
      "channel": 0,
      "note": 59,
      "start": 13.1879,
      "duration": 0.0502,
      "velocity": 91,
      "chip": "ym2612"
    },
    {
      "channel": 1,
      "note": 87,
      "start": 13.1886,
      "duration": 0.05,
      "velocity": 103,
      "chip": "ym2612"
    },
    {
      "channel": 4,
      "note": 87,
      "start": 13.1894,
      "duration": 0.0501,
      "velocity": 101,
      "chip": "ym2612"
    },
    {
      "channel": 0,
      "note": 60,
      "start": 13.2384,
      "duration": 0.2,
      "velocity": 91,
      "chip": "ym2612"
    },
    {
      "channel": 1,
      "note": 85,
      "start": 13.239,
      "duration": 0.2,
      "velocity": 103,
      "chip": "ym2612"
    },
    {
      "channel": 4,
      "note": 83,
      "start": 13.2399,
      "duration": 0.2011,
      "velocity": 101,
      "chip": "ym2612"
    },
    {
      "channel": 0,
      "note": 61,
      "start": 13.4388,
      "duration": 0.0153,
      "velocity": 91,
      "chip": "ym2612"
    },
    {
      "channel": 1,
      "note": 95,
      "start": 13.4395,
      "duration": 0.4239,
      "velocity": 103,
      "chip": "ym2612"
    },
    {
      "channel": 2,
      "note": 77,
      "start": 13.44,
      "duration": 0.0147,
      "velocity": 103,
      "chip": "ym2612"
    },
    {
      "channel": 3,
      "note": 73,
      "start": 13.4406,
      "duration": 0.0144,
      "velocity": 103,
      "chip": "ym2612"
    },
    {
      "channel": 4,
      "note": 89,
      "start": 13.4415,
      "duration": 0.0396,
      "velocity": 101,
      "chip": "ym2612"
    },
    {
      "channel": 0,
      "note": 73,
      "start": 13.4545,
      "duration": 0.0258,
      "velocity": 91,
      "chip": "ym2612"
    },
    {
      "channel": 0,
      "note": 53,
      "start": 13.4807,
      "duration": 0.2,
      "velocity": 91,
      "chip": "ym2612"
    },
    {
      "channel": 4,
      "note": 85,
      "start": 13.4815,
      "duration": 0.2008,
      "velocity": 101,
      "chip": "ym2612"
    },
    {
      "channel": 0,
      "note": 54,
      "start": 13.681,
      "duration": 0.0669,
      "velocity": 91,
      "chip": "ym2612"
    },
    {
      "channel": 4,
      "note": 87,
      "start": 13.6828,
      "duration": 0.0672,
      "velocity": 101,
      "chip": "ym2612"
    },
    {
      "channel": 0,
      "note": 55,
      "start": 13.7483,
      "duration": 0.1142,
      "velocity": 91,
      "chip": "ym2612"
    },
    {
      "channel": 2,
      "note": 77,
      "start": 13.7492,
      "duration": 0.0994,
      "velocity": 103,
      "chip": "ym2612"
    },
    {
      "channel": 3,
      "note": 73,
      "start": 13.7498,
      "duration": 0.0991,
      "velocity": 103,
      "chip": "ym2612"
    },
    {
      "channel": 4,
      "note": 83,
      "start": 13.7504,
      "duration": 0.0988,
      "velocity": 101,
      "chip": "ym2612"
    },
    {
      "channel": 4,
      "note": 89,
      "start": 13.8497,
      "duration": 0.0505,
      "velocity": 101,
      "chip": "ym2612"
    },
    {
      "channel": 0,
      "note": 64,
      "start": 13.8629,
      "duration": 0.0358,
      "velocity": 91,
      "chip": "ym2612"
    },
    {
      "channel": 1,
      "note": 95,
      "start": 13.8634,
      "duration": 0.4291,
      "velocity": 103,
      "chip": "ym2612"
    },
    {
      "channel": 2,
      "note": 77,
      "start": 13.8642,
      "duration": 0.0354,
      "velocity": 103,
      "chip": "ym2612"
    },
    {
      "channel": 3,
      "note": 73,
      "start": 13.8647,
      "duration": 0.0352,
      "velocity": 103,
      "chip": "ym2612"
    },
    {
      "channel": 0,
      "note": 76,
      "start": 13.899,
      "duration": 0.0999,
      "velocity": 91,
      "chip": "ym2612"
    },
    {
      "channel": 4,
      "note": 89,
      "start": 13.9006,
      "duration": 0.0993,
      "velocity": 101,
      "chip": "ym2612"
    },
    {
      "channel": 0,
      "note": 58,
      "start": 13.9993,
      "duration": 0.0416,
      "velocity": 91,
      "chip": "ym2612"
    },
    {
      "channel": 4,
      "note": 85,
      "start": 14.0004,
      "duration": 0.042,
      "velocity": 101,
      "chip": "ym2612"
    },
    {
      "channel": 0,
      "note": 59,
      "start": 14.0413,
      "duration": 0.0502,
      "velocity": 91,
      "chip": "ym2612"
    },
    {
      "channel": 4,
      "note": 87,
      "start": 14.0429,
      "duration": 0.0508,
      "velocity": 101,
      "chip": "ym2612"
    },
    {
      "channel": 0,
      "note": 60,
      "start": 14.0919,
      "duration": 0.2,
      "velocity": 91,
      "chip": "ym2612"
    },
    {
      "channel": 2,
      "note": 77,
      "start": 14.0928,
      "duration": 0.0991,
      "velocity": 103,
      "chip": "ym2612"
    },
    {
      "channel": 3,
      "note": 73,
      "start": 14.0934,
      "duration": 0.0988,
      "velocity": 103,
      "chip": "ym2612"
    },
    {
      "channel": 4,
      "note": 83,
      "start": 14.0941,
      "duration": 0.2,
      "velocity": 101,
      "chip": "ym2612"
    },
    {
      "channel": 0,
      "note": 61,
      "start": 14.2923,
      "duration": 0.0145,
      "velocity": 91,
      "chip": "ym2612"
    },
    {
      "channel": 2,
      "note": 77,
      "start": 14.2932,
      "duration": 0.0142,
      "velocity": 103,
      "chip": "ym2612"
    },
    {
      "channel": 3,
      "note": 73,
      "start": 14.2937,
      "duration": 0.014,
      "velocity": 103,
      "chip": "ym2612"
    },
    {
      "channel": 4,
      "note": 89,
      "start": 14.2946,
      "duration": 0.0401,
      "velocity": 101,
      "chip": "ym2612"
    },
    {
      "channel": 0,
      "note": 73,
      "start": 14.3072,
      "duration": 0.0267,
      "velocity": 91,
      "chip": "ym2612"
    },
    {
      "channel": 0,
      "note": 53,
      "start": 14.3343,
      "duration": 0.0416,
      "velocity": 91,
      "chip": "ym2612"
    },
    {
      "channel": 4,
      "note": 85,
      "start": 14.3351,
      "duration": 0.0421,
      "velocity": 101,
      "chip": "ym2612"
    },
    {
      "channel": 0,
      "note": 54,
      "start": 14.3762,
      "duration": 0.0502,
      "velocity": 91,
      "chip": "ym2612"
    },
    {
      "channel": 4,
      "note": 87,
      "start": 14.3777,
      "duration": 0.0505,
      "velocity": 101,
      "chip": "ym2612"
    },
    {
      "channel": 0,
      "note": 55,
      "start": 14.4268,
      "duration": 0.1126,
      "velocity": 91,
      "chip": "ym2612"
    },
    {
      "channel": 2,
      "note": 77,
      "start": 14.4274,
      "duration": 0.0994,
      "velocity": 103,
      "chip": "ym2612"
    },
    {
      "channel": 3,
      "note": 73,
      "start": 14.428,
      "duration": 0.0991,
      "velocity": 103,
      "chip": "ym2612"
    },
    {
      "channel": 4,
      "note": 83,
      "start": 14.4287,
      "duration": 0.0988,
      "velocity": 101,
      "chip": "ym2612"
    },
    {
      "channel": 4,
      "note": 89,
      "start": 14.528,
      "duration": 0.0505,
      "velocity": 101,
      "chip": "ym2612"
    },
    {
      "channel": 0,
      "note": 56,
      "start": 14.5398,
      "duration": 0.0374,
      "velocity": 91,
      "chip": "ym2612"
    },
    {
      "channel": 2,
      "note": 77,
      "start": 14.5407,
      "duration": 0.0371,
      "velocity": 103,
      "chip": "ym2612"
    },
    {
      "channel": 3,
      "note": 73,
      "start": 14.5412,
      "duration": 0.0369,
      "velocity": 103,
      "chip": "ym2612"
    },
    {
      "channel": 0,
      "note": 68,
      "start": 14.5776,
      "duration": 0.0999,
      "velocity": 91,
      "chip": "ym2612"
    },
    {
      "channel": 4,
      "note": 89,
      "start": 14.5789,
      "duration": 0.0995,
      "velocity": 101,
      "chip": "ym2612"
    },
    {
      "channel": 0,
      "note": 58,
      "start": 14.6778,
      "duration": 0.0415,
      "velocity": 91,
      "chip": "ym2612"
    },
    {
      "channel": 4,
      "note": 85,
      "start": 14.6788,
      "duration": 0.0412,
      "velocity": 101,
      "chip": "ym2612"
    },
    {
      "channel": 0,
      "note": 59,
      "start": 14.7197,
      "duration": 0.0503,
      "velocity": 91,
      "chip": "ym2612"
    },
    {
      "channel": 4,
      "note": 87,
      "start": 14.7205,
      "duration": 0.0503,
      "velocity": 101,
      "chip": "ym2612"
    },
    {
      "channel": 0,
      "note": 60,
      "start": 14.7703,
      "duration": 0.0262,
      "velocity": 91,
      "chip": "ym2612"
    },
    {
      "channel": 4,
      "note": 83,
      "start": 14.7712,
      "duration": 0.0298,
      "velocity": 101,
      "chip": "ym2612"
    },
    {
      "channel": 0,
      "note": 61,
      "start": 14.7969,
      "duration": 0.0187,
      "velocity": 91,
      "chip": "ym2612"
    },
    {
      "channel": 1,
      "note": 85,
      "start": 14.7998,
      "duration": 0.2393,
      "velocity": 103,
      "chip": "ym2612"
    },
    {
      "channel": 4,
      "note": 89,
      "start": 14.8015,
      "duration": 0.0378,
      "velocity": 101,
      "chip": "ym2612"
    },
    {
      "channel": 0,
      "note": 73,
      "start": 14.8159,
      "duration": 0.0223,
      "velocity": 91,
      "chip": "ym2612"
    },
    {
      "channel": 0,
      "note": 53,
      "start": 14.8387,
      "duration": 0.2,
      "velocity": 91,
      "chip": "ym2612"
    },
    {
      "channel": 4,
      "note": 85,
      "start": 14.8398,
      "duration": 0.2003,
      "velocity": 101,
      "chip": "ym2612"
    },
    {
      "channel": 0,
      "note": 54,
      "start": 15.039,
      "duration": 0.0502,
      "velocity": 91,
      "chip": "ym2612"
    },
    {
      "channel": 1,
      "note": 89,
      "start": 15.0396,
      "duration": 0.0501,
      "velocity": 103,
      "chip": "ym2612"
    },
    {
      "channel": 4,
      "note": 87,
      "start": 15.0405,
      "duration": 0.05,
      "velocity": 101,
      "chip": "ym2612"
    },
    {
      "channel": 0,
      "note": 55,
      "start": 15.0895,
      "duration": 0.2,
      "velocity": 91,
      "chip": "ym2612"
    },
    {
      "channel": 1,
      "note": 92,
      "start": 15.0902,
      "duration": 0.2419,
      "velocity": 103,
      "chip": "ym2612"
    },
    {
      "channel": 4,
      "note": 83,
      "start": 15.091,
      "duration": 0.099,
      "velocity": 101,
      "chip": "ym2612"
    },
    {
      "channel": 4,
      "note": 89,
      "start": 15.1905,
      "duration": 0.1156,
      "velocity": 101,
      "chip": "ym2612"
    },
    {
      "channel": 0,
      "note": 64,
      "start": 15.29,
      "duration": 0.0152,
      "velocity": 91,
      "chip": "ym2612"
    },
    {
      "channel": 0,
      "note": 76,
      "start": 15.3056,
      "duration": 0.0259,
      "velocity": 91,
      "chip": "ym2612"
    },
    {
      "channel": 4,
      "note": 89,
      "start": 15.3064,
      "duration": 0.0266,
      "velocity": 101,
      "chip": "ym2612"
    },
    {
      "channel": 0,
      "note": 58,
      "start": 15.3319,
      "duration": 0.2,
      "velocity": 91,
      "chip": "ym2612"
    },
    {
      "channel": 1,
      "note": 90,
      "start": 15.3325,
      "duration": 0.2505,
      "velocity": 103,
      "chip": "ym2612"
    },
    {
      "channel": 4,
      "note": 85,
      "start": 15.3335,
      "duration": 0.1994,
      "velocity": 101,
      "chip": "ym2612"
    },
    {
      "channel": 0,
      "note": 59,
      "start": 15.5322,
      "duration": 0.0502,
      "velocity": 91,
      "chip": "ym2612"
    },
    {
      "channel": 4,
      "note": 87,
      "start": 15.5333,
      "duration": 0.0506,
      "velocity": 101,
      "chip": "ym2612"
    },
    {
      "channel": 0,
      "note": 60,
      "start": 15.5828,
      "duration": 0.2167,
      "velocity": 91,
      "chip": "ym2612"
    },
    {
      "channel": 1,
      "note": 89,
      "start": 15.5834,
      "duration": 0.2169,
      "velocity": 103,
      "chip": "ym2612"
    },
    {
      "channel": 4,
      "note": 83,
      "start": 15.5844,
      "duration": 0.2171,
      "velocity": 101,
      "chip": "ym2612"
    },
    {
      "channel": 0,
      "note": 61,
      "start": 15.7999,
      "duration": 0.016,
      "velocity": 91,
      "chip": "ym2612"
    },
    {
      "channel": 1,
      "note": 89,
      "start": 15.8004,
      "duration": 0.0416,
      "velocity": 103,
      "chip": "ym2612"
    },
    {
      "channel": 4,
      "note": 89,
      "start": 15.8019,
      "duration": 0.0409,
      "velocity": 101,
      "chip": "ym2612"
    },
    {
      "channel": 0,
      "note": 73,
      "start": 15.8162,
      "duration": 0.0252,
      "velocity": 91,
      "chip": "ym2612"
    },
    {
      "channel": 0,
      "note": 53,
      "start": 15.8418,
      "duration": 0.2,
      "velocity": 91,
      "chip": "ym2612"
    },
    {
      "channel": 1,
      "note": 87,
      "start": 15.8425,
      "duration": 0.2504,
      "velocity": 103,
      "chip": "ym2612"
    },
    {
      "channel": 4,
      "note": 85,
      "start": 15.8432,
      "duration": 0.1997,
      "velocity": 101,
      "chip": "ym2612"
    },
    {
      "channel": 0,
      "note": 54,
      "start": 16.0422,
      "duration": 0.0502,
      "velocity": 91,
      "chip": "ym2612"
    },
    {
      "channel": 4,
      "note": 87,
      "start": 16.0434,
      "duration": 0.0502,
      "velocity": 101,
      "chip": "ym2612"
    },
    {
      "channel": 0,
      "note": 55,
      "start": 16.0927,
      "duration": 0.2,
      "velocity": 91,
      "chip": "ym2612"
    },
    {
      "channel": 1,
      "note": 85,
      "start": 16.0933,
      "duration": 0.2418,
      "velocity": 103,
      "chip": "ym2612"
    },
    {
      "channel": 4,
      "note": 83,
      "start": 16.0941,
      "duration": 0.099,
      "velocity": 101,
      "chip": "ym2612"
    },
    {
      "channel": 4,
      "note": 89,
      "start": 16.1936,
      "duration": 0.1155,
      "velocity": 101,
      "chip": "ym2612"
    },
    {
      "channel": 0,
      "note": 64,
      "start": 16.2931,
      "duration": 0.0152,
      "velocity": 91,
      "chip": "ym2612"
    },
    {
      "channel": 0,
      "note": 76,
      "start": 16.3087,
      "duration": 0.0259,
      "velocity": 91,
      "chip": "ym2612"
    },
    {
      "channel": 4,
      "note": 89,
      "start": 16.3095,
      "duration": 0.0266,
      "velocity": 101,
      "chip": "ym2612"
    },
    {
      "channel": 0,
      "note": 58,
      "start": 16.335,
      "duration": 0.2,
      "velocity": 91,
      "chip": "ym2612"
    },
    {
      "channel": 1,
      "note": 89,
      "start": 16.3356,
      "duration": 0.2,
      "velocity": 103,
      "chip": "ym2612"
    },
    {
      "channel": 4,
      "note": 85,
      "start": 16.3366,
      "duration": 0.1998,
      "velocity": 101,
      "chip": "ym2612"
    },
    {
      "channel": 0,
      "note": 59,
      "start": 16.5353,
      "duration": 0.0502,
      "velocity": 91,
      "chip": "ym2612"
    },
    {
      "channel": 1,
      "note": 87,
      "start": 16.536,
      "duration": 0.0501,
      "velocity": 103,
      "chip": "ym2612"
    },
    {
      "channel": 4,
      "note": 87,
      "start": 16.5368,
      "duration": 0.0502,
      "velocity": 101,
      "chip": "ym2612"
    },
    {
      "channel": 0,
      "note": 60,
      "start": 16.5859,
      "duration": 0.2,
      "velocity": 91,
      "chip": "ym2612"
    },
    {
      "channel": 1,
      "note": 85,
      "start": 16.5865,
      "duration": 0.2,
      "velocity": 103,
      "chip": "ym2612"
    },
    {
      "channel": 4,
      "note": 83,
      "start": 16.5874,
      "duration": 0.2012,
      "velocity": 101,
      "chip": "ym2612"
    },
    {
      "channel": 0,
      "note": 61,
      "start": 16.7863,
      "duration": 0.0157,
      "velocity": 91,
      "chip": "ym2612"
    },
    {
      "channel": 1,
      "note": 83,
      "start": 16.7869,
      "duration": 0.4073,
      "velocity": 103,
      "chip": "ym2612"
    },
    {
      "channel": 2,
      "note": 77,
      "start": 16.7877,
      "duration": 0.015,
      "velocity": 103,
      "chip": "ym2612"
    },
    {
      "channel": 3,
      "note": 73,
      "start": 16.7883,
      "duration": 0.0147,
      "velocity": 103,
      "chip": "ym2612"
    },
    {
      "channel": 4,
      "note": 89,
      "start": 16.7891,
      "duration": 0.0396,
      "velocity": 101,
      "chip": "ym2612"
    },
    {
      "channel": 0,
      "note": 73,
      "start": 16.8024,
      "duration": 0.0255,
      "velocity": 91,
      "chip": "ym2612"
    },
    {
      "channel": 0,
      "note": 53,
      "start": 16.8283,
      "duration": 0.2,
      "velocity": 91,
      "chip": "ym2612"
    },
    {
      "channel": 4,
      "note": 85,
      "start": 16.8291,
      "duration": 0.2008,
      "velocity": 101,
      "chip": "ym2612"
    },
    {
      "channel": 2,
      "note": 77,
      "start": 16.9286,
      "duration": 0.1006,
      "velocity": 103,
      "chip": "ym2612"
    },
    {
      "channel": 3,
      "note": 73,
      "start": 16.9292,
      "duration": 0.1003,
      "velocity": 103,
      "chip": "ym2612"
    },
    {
      "channel": 0,
      "note": 54,
      "start": 17.0286,
      "duration": 0.0502,
      "velocity": 91,
      "chip": "ym2612"
    },
    {
      "channel": 4,
      "note": 87,
      "start": 17.0304,
      "duration": 0.0503,
      "velocity": 101,
      "chip": "ym2612"
    },
    {
      "channel": 0,
      "note": 55,
      "start": 17.0792,
      "duration": 0.1142,
      "velocity": 91,
      "chip": "ym2612"
    },
    {
      "channel": 2,
      "note": 77,
      "start": 17.0799,
      "duration": 0.0996,
      "velocity": 103,
      "chip": "ym2612"
    },
    {
      "channel": 3,
      "note": 73,
      "start": 17.0805,
      "duration": 0.0993,
      "velocity": 103,
      "chip": "ym2612"
    },
    {
      "channel": 4,
      "note": 83,
      "start": 17.0811,
      "duration": 0.099,
      "velocity": 101,
      "chip": "ym2612"
    },
    {
      "channel": 4,
      "note": 89,
      "start": 17.1806,
      "duration": 0.05,
      "velocity": 101,
      "chip": "ym2612"
    },
    {
      "channel": 0,
      "note": 64,
      "start": 17.1938,
      "duration": 0.0359,
      "velocity": 91,
      "chip": "ym2612"
    },
    {
      "channel": 1,
      "note": 83,
      "start": 17.1942,
      "duration": 0.4292,
      "velocity": 103,
      "chip": "ym2612"
    },
    {
      "channel": 2,
      "note": 75,
      "start": 17.1951,
      "duration": 0.1497,
      "velocity": 103,
      "chip": "ym2612"
    },
    {
      "channel": 3,
      "note": 71,
      "start": 17.1957,
      "duration": 0.1497,
      "velocity": 103,
      "chip": "ym2612"
    },
    {
      "channel": 0,
      "note": 76,
      "start": 17.23,
      "duration": 0.0999,
      "velocity": 91,
      "chip": "ym2612"
    },
    {
      "channel": 4,
      "note": 89,
      "start": 17.2311,
      "duration": 0.1,
      "velocity": 101,
      "chip": "ym2612"
    },
    {
      "channel": 0,
      "note": 58,
      "start": 17.3303,
      "duration": 0.0416,
      "velocity": 91,
      "chip": "ym2612"
    },
    {
      "channel": 4,
      "note": 85,
      "start": 17.3315,
      "duration": 0.0419,
      "velocity": 101,
      "chip": "ym2612"
    },
    {
      "channel": 2,
      "note": 77,
      "start": 17.3452,
      "duration": 0.0276,
      "velocity": 103,
      "chip": "ym2612"
    },
    {
      "channel": 3,
      "note": 73,
      "start": 17.3458,
      "duration": 0.0273,
      "velocity": 103,
      "chip": "ym2612"
    },
    {
      "channel": 0,
      "note": 59,
      "start": 17.3722,
      "duration": 0.0502,
      "velocity": 91,
      "chip": "ym2612"
    },
    {
      "channel": 4,
      "note": 87,
      "start": 17.3738,
      "duration": 0.0497,
      "velocity": 101,
      "chip": "ym2612"
    },
    {
      "channel": 0,
      "note": 60,
      "start": 17.4228,
      "duration": 0.2,
      "velocity": 91,
      "chip": "ym2612"
    },
    {
      "channel": 4,
      "note": 83,
      "start": 17.424,
      "duration": 0.2015,
      "velocity": 101,
      "chip": "ym2612"
    },
    {
      "channel": 0,
      "note": 61,
      "start": 17.6232,
      "duration": 0.0152,
      "velocity": 91,
      "chip": "ym2612"
    },
    {
      "channel": 2,
      "note": 77,
      "start": 17.6244,
      "duration": 0.0145,
      "velocity": 103,
      "chip": "ym2612"
    },
    {
      "channel": 3,
      "note": 73,
      "start": 17.6251,
      "duration": 0.0142,
      "velocity": 103,
      "chip": "ym2612"
    },
    {
      "channel": 4,
      "note": 89,
      "start": 17.626,
      "duration": 0.0395,
      "velocity": 101,
      "chip": "ym2612"
    },
    {
      "channel": 0,
      "note": 73,
      "start": 17.6387,
      "duration": 0.026,
      "velocity": 91,
      "chip": "ym2612"
    },
    {
      "channel": 0,
      "note": 53,
      "start": 17.6651,
      "duration": 0.0415,
      "velocity": 91,
      "chip": "ym2612"
    },
    {
      "channel": 4,
      "note": 85,
      "start": 17.6659,
      "duration": 0.0421,
      "velocity": 101,
      "chip": "ym2612"
    },
    {
      "channel": 2,
      "note": 77,
      "start": 17.6783,
      "duration": 0.029,
      "velocity": 103,
      "chip": "ym2612"
    },
    {
      "channel": 3,
      "note": 73,
      "start": 17.6789,
      "duration": 0.0287,
      "velocity": 103,
      "chip": "ym2612"
    },
    {
      "channel": 0,
      "note": 54,
      "start": 17.7071,
      "duration": 0.0502,
      "velocity": 91,
      "chip": "ym2612"
    },
    {
      "channel": 4,
      "note": 87,
      "start": 17.7085,
      "duration": 0.0505,
      "velocity": 101,
      "chip": "ym2612"
    },
    {
      "channel": 0,
      "note": 55,
      "start": 17.7576,
      "duration": 0.1126,
      "velocity": 91,
      "chip": "ym2612"
    },
    {
      "channel": 2,
      "note": 77,
      "start": 17.7582,
      "duration": 0.0993,
      "velocity": 103,
      "chip": "ym2612"
    },
    {
      "channel": 3,
      "note": 73,
      "start": 17.7588,
      "duration": 0.0991,
      "velocity": 103,
      "chip": "ym2612"
    },
    {
      "channel": 4,
      "note": 83,
      "start": 17.7595,
      "duration": 0.0988,
      "velocity": 101,
      "chip": "ym2612"
    },
    {
      "channel": 4,
      "note": 89,
      "start": 17.8588,
      "duration": 0.05,
      "velocity": 101,
      "chip": "ym2612"
    },
    {
      "channel": 0,
      "note": 56,
      "start": 17.8706,
      "duration": 0.0374,
      "velocity": 91,
      "chip": "ym2612"
    },
    {
      "channel": 2,
      "note": 75,
      "start": 17.8715,
      "duration": 0.1666,
      "velocity": 103,
      "chip": "ym2612"
    },
    {
      "channel": 3,
      "note": 71,
      "start": 17.8721,
      "duration": 0.1666,
      "velocity": 103,
      "chip": "ym2612"
    },
    {
      "channel": 0,
      "note": 68,
      "start": 17.9083,
      "duration": 0.1166,
      "velocity": 91,
      "chip": "ym2612"
    },
    {
      "channel": 4,
      "note": 89,
      "start": 17.9091,
      "duration": 0.1167,
      "velocity": 101,
      "chip": "ym2612"
    },
    {
      "channel": 0,
      "note": 58,
      "start": 18.0253,
      "duration": 0.0415,
      "velocity": 91,
      "chip": "ym2612"
    },
    {
      "channel": 4,
      "note": 85,
      "start": 18.0263,
      "duration": 0.0417,
      "velocity": 101,
      "chip": "ym2612"
    },
    {
      "channel": 2,
      "note": 77,
      "start": 18.0385,
      "duration": 0.0289,
      "velocity": 103,
      "chip": "ym2612"
    },
    {
      "channel": 3,
      "note": 73,
      "start": 18.0391,
      "duration": 0.0287,
      "velocity": 103,
      "chip": "ym2612"
    },
    {
      "channel": 0,
      "note": 59,
      "start": 18.0672,
      "duration": 0.0503,
      "velocity": 91,
      "chip": "ym2612"
    },
    {
      "channel": 4,
      "note": 87,
      "start": 18.0685,
      "duration": 0.0498,
      "velocity": 101,
      "chip": "ym2612"
    },
    {
      "channel": 0,
      "note": 60,
      "start": 18.1178,
      "duration": 0.0262,
      "velocity": 91,
      "chip": "ym2612"
    },
    {
      "channel": 4,
      "note": 83,
      "start": 18.1188,
      "duration": 0.0276,
      "velocity": 101,
      "chip": "ym2612"
    },
    {
      "channel": 0,
      "note": 61,
      "start": 18.1444,
      "duration": 0.0165,
      "velocity": 91,
      "chip": "ym2612"
    },
    {
      "channel": 1,
      "note": 85,
      "start": 18.1451,
      "duration": 0.2417,
      "velocity": 103,
      "chip": "ym2612"
    },
    {
      "channel": 4,
      "note": 89,
      "start": 18.1469,
      "duration": 0.0402,
      "velocity": 101,
      "chip": "ym2612"
    },
    {
      "channel": 0,
      "note": 73,
      "start": 18.1613,
      "duration": 0.0247,
      "velocity": 91,
      "chip": "ym2612"
    },
    {
      "channel": 0,
      "note": 53,
      "start": 18.1864,
      "duration": 0.1998,
      "velocity": 91,
      "chip": "ym2612"
    },
    {
      "channel": 4,
      "note": 85,
      "start": 18.1875,
      "duration": 0.2002,
      "velocity": 101,
      "chip": "ym2612"
    },
    {
      "channel": 0,
      "note": 54,
      "start": 18.3866,
      "duration": 0.0502,
      "velocity": 91,
      "chip": "ym2612"
    },
    {
      "channel": 1,
      "note": 89,
      "start": 18.3873,
      "duration": 0.0501,
      "velocity": 103,
      "chip": "ym2612"
    },
    {
      "channel": 4,
      "note": 87,
      "start": 18.3882,
      "duration": 0.05,
      "velocity": 101,
      "chip": "ym2612"
    },
    {
      "channel": 0,
      "note": 55,
      "start": 18.4372,
      "duration": 0.2,
      "velocity": 91,
      "chip": "ym2612"
    },
    {
      "channel": 1,
      "note": 92,
      "start": 18.4378,
      "duration": 0.2418,
      "velocity": 103,
      "chip": "ym2612"
    },
    {
      "channel": 4,
      "note": 83,
      "start": 18.4386,
      "duration": 0.099,
      "velocity": 101,
      "chip": "ym2612"
    },
    {
      "channel": 4,
      "note": 89,
      "start": 18.5381,
      "duration": 0.1155,
      "velocity": 101,
      "chip": "ym2612"
    },
    {
      "channel": 0,
      "note": 64,
      "start": 18.6376,
      "duration": 0.0152,
      "velocity": 91,
      "chip": "ym2612"
    },
    {
      "channel": 0,
      "note": 76,
      "start": 18.6532,
      "duration": 0.0259,
      "velocity": 91,
      "chip": "ym2612"
    },
    {
      "channel": 4,
      "note": 89,
      "start": 18.654,
      "duration": 0.0265,
      "velocity": 101,
      "chip": "ym2612"
    },
    {
      "channel": 0,
      "note": 58,
      "start": 18.6795,
      "duration": 0.2,
      "velocity": 91,
      "chip": "ym2612"
    },
    {
      "channel": 1,
      "note": 90,
      "start": 18.6801,
      "duration": 0.2505,
      "velocity": 103,
      "chip": "ym2612"
    },
    {
      "channel": 4,
      "note": 85,
      "start": 18.681,
      "duration": 0.1994,
      "velocity": 101,
      "chip": "ym2612"
    },
    {
      "channel": 0,
      "note": 59,
      "start": 18.8798,
      "duration": 0.0502,
      "velocity": 91,
      "chip": "ym2612"
    },
    {
      "channel": 4,
      "note": 87,
      "start": 18.8809,
      "duration": 0.0506,
      "velocity": 101,
      "chip": "ym2612"
    },
    {
      "channel": 0,
      "note": 60,
      "start": 18.9304,
      "duration": 0.2,
      "velocity": 91,
      "chip": "ym2612"
    },
    {
      "channel": 1,
      "note": 89,
      "start": 18.931,
      "duration": 0.2002,
      "velocity": 103,
      "chip": "ym2612"
    },
    {
      "channel": 4,
      "note": 83,
      "start": 18.9319,
      "duration": 0.2006,
      "velocity": 101,
      "chip": "ym2612"
    },
    {
      "channel": 0,
      "note": 61,
      "start": 19.1308,
      "duration": 0.0161,
      "velocity": 91,
      "chip": "ym2612"
    },
    {
      "channel": 1,
      "note": 89,
      "start": 19.1313,
      "duration": 0.0415,
      "velocity": 103,
      "chip": "ym2612"
    },
    {
      "channel": 4,
      "note": 89,
      "start": 19.133,
      "duration": 0.0406,
      "velocity": 101,
      "chip": "ym2612"
    },
    {
      "channel": 0,
      "note": 73,
      "start": 19.1473,
      "duration": 0.0249,
      "velocity": 91,
      "chip": "ym2612"
    },
    {
      "channel": 0,
      "note": 53,
      "start": 19.1726,
      "duration": 0.2,
      "velocity": 91,
      "chip": "ym2612"
    },
    {
      "channel": 1,
      "note": 87,
      "start": 19.1733,
      "duration": 0.2505,
      "velocity": 103,
      "chip": "ym2612"
    },
    {
      "channel": 4,
      "note": 85,
      "start": 19.174,
      "duration": 0.1997,
      "velocity": 101,
      "chip": "ym2612"
    },
    {
      "channel": 0,
      "note": 54,
      "start": 19.3729,
      "duration": 0.0502,
      "velocity": 91,
      "chip": "ym2612"
    },
    {
      "channel": 4,
      "note": 87,
      "start": 19.3742,
      "duration": 0.0503,
      "velocity": 101,
      "chip": "ym2612"
    },
    {
      "channel": 0,
      "note": 55,
      "start": 19.4235,
      "duration": 0.2,
      "velocity": 91,
      "chip": "ym2612"
    },
    {
      "channel": 1,
      "note": 85,
      "start": 19.4241,
      "duration": 0.2419,
      "velocity": 103,
      "chip": "ym2612"
    },
    {
      "channel": 4,
      "note": 83,
      "start": 19.4249,
      "duration": 0.099,
      "velocity": 101,
      "chip": "ym2612"
    },
    {
      "channel": 4,
      "note": 89,
      "start": 19.5245,
      "duration": 0.1155,
      "velocity": 101,
      "chip": "ym2612"
    },
    {
      "channel": 0,
      "note": 64,
      "start": 19.6239,
      "duration": 0.0152,
      "velocity": 91,
      "chip": "ym2612"
    },
    {
      "channel": 0,
      "note": 76,
      "start": 19.6395,
      "duration": 0.0259,
      "velocity": 91,
      "chip": "ym2612"
    },
    {
      "channel": 4,
      "note": 89,
      "start": 19.6404,
      "duration": 0.0266,
      "velocity": 101,
      "chip": "ym2612"
    },
    {
      "channel": 0,
      "note": 58,
      "start": 19.6659,
      "duration": 0.2,
      "velocity": 91,
      "chip": "ym2612"
    },
    {
      "channel": 1,
      "note": 89,
      "start": 19.6665,
      "duration": 0.2,
      "velocity": 103,
      "chip": "ym2612"
    },
    {
      "channel": 4,
      "note": 85,
      "start": 19.6674,
      "duration": 0.1998,
      "velocity": 101,
      "chip": "ym2612"
    },
    {
      "channel": 0,
      "note": 59,
      "start": 19.8662,
      "duration": 0.0502,
      "velocity": 91,
      "chip": "ym2612"
    },
    {
      "channel": 1,
      "note": 87,
      "start": 19.8669,
      "duration": 0.05,
      "velocity": 103,
      "chip": "ym2612"
    },
    {
      "channel": 4,
      "note": 87,
      "start": 19.8677,
      "duration": 0.0501,
      "velocity": 101,
      "chip": "ym2612"
    },
    {
      "channel": 0,
      "note": 60,
      "start": 19.9167,
      "duration": 0.2,
      "velocity": 91,
      "chip": "ym2612"
    },
    {
      "channel": 1,
      "note": 85,
      "start": 19.9173,
      "duration": 0.2,
      "velocity": 103,
      "chip": "ym2612"
    },
    {
      "channel": 4,
      "note": 83,
      "start": 19.9182,
      "duration": 0.2011,
      "velocity": 101,
      "chip": "ym2612"
    },
    {
      "channel": 0,
      "note": 61,
      "start": 20.1171,
      "duration": 0.0156,
      "velocity": 91,
      "chip": "ym2612"
    },
    {
      "channel": 1,
      "note": 95,
      "start": 20.1177,
      "duration": 0.4239,
      "velocity": 103,
      "chip": "ym2612"
    },
    {
      "channel": 2,
      "note": 77,
      "start": 20.1183,
      "duration": 0.015,
      "velocity": 103,
      "chip": "ym2612"
    },
    {
      "channel": 3,
      "note": 73,
      "start": 20.1189,
      "duration": 0.0147,
      "velocity": 103,
      "chip": "ym2612"
    },
    {
      "channel": 4,
      "note": 89,
      "start": 20.1198,
      "duration": 0.0397,
      "velocity": 101,
      "chip": "ym2612"
    },
    {
      "channel": 0,
      "note": 73,
      "start": 20.133,
      "duration": 0.0256,
      "velocity": 91,
      "chip": "ym2612"
    },
    {
      "channel": 0,
      "note": 53,
      "start": 20.159,
      "duration": 0.2167,
      "velocity": 91,
      "chip": "ym2612"
    },
    {
      "channel": 4,
      "note": 85,
      "start": 20.1599,
      "duration": 0.2175,
      "velocity": 101,
      "chip": "ym2612"
    },
    {
      "channel": 0,
      "note": 54,
      "start": 20.3761,
      "duration": 0.0502,
      "velocity": 91,
      "chip": "ym2612"
    },
    {
      "channel": 4,
      "note": 87,
      "start": 20.3778,
      "duration": 0.0505,
      "velocity": 101,
      "chip": "ym2612"
    },
    {
      "channel": 0,
      "note": 55,
      "start": 20.4267,
      "duration": 0.1141,
      "velocity": 91,
      "chip": "ym2612"
    },
    {
      "channel": 2,
      "note": 77,
      "start": 20.4276,
      "duration": 0.0993,
      "velocity": 103,
      "chip": "ym2612"
    },
    {
      "channel": 3,
      "note": 73,
      "start": 20.4282,
      "duration": 0.0991,
      "velocity": 103,
      "chip": "ym2612"
    },
    {
      "channel": 4,
      "note": 83,
      "start": 20.4288,
      "duration": 0.0988,
      "velocity": 101,
      "chip": "ym2612"
    },
    {
      "channel": 4,
      "note": 89,
      "start": 20.5282,
      "duration": 0.0505,
      "velocity": 101,
      "chip": "ym2612"
    },
    {
      "channel": 0,
      "note": 64,
      "start": 20.5412,
      "duration": 0.0359,
      "velocity": 91,
      "chip": "ym2612"
    },
    {
      "channel": 1,
      "note": 95,
      "start": 20.5417,
      "duration": 0.4292,
      "velocity": 103,
      "chip": "ym2612"
    },
    {
      "channel": 2,
      "note": 77,
      "start": 20.5425,
      "duration": 0.0355,
      "velocity": 103,
      "chip": "ym2612"
    },
    {
      "channel": 3,
      "note": 73,
      "start": 20.543,
      "duration": 0.0353,
      "velocity": 103,
      "chip": "ym2612"
    },
    {
      "channel": 0,
      "note": 76,
      "start": 20.5775,
      "duration": 0.0999,
      "velocity": 91,
      "chip": "ym2612"
    },
    {
      "channel": 4,
      "note": 89,
      "start": 20.579,
      "duration": 0.0993,
      "velocity": 101,
      "chip": "ym2612"
    },
    {
      "channel": 0,
      "note": 58,
      "start": 20.6777,
      "duration": 0.0417,
      "velocity": 91,
      "chip": "ym2612"
    },
    {
      "channel": 4,
      "note": 85,
      "start": 20.6788,
      "duration": 0.0421,
      "velocity": 101,
      "chip": "ym2612"
    },
    {
      "channel": 0,
      "note": 59,
      "start": 20.7198,
      "duration": 0.0502,
      "velocity": 91,
      "chip": "ym2612"
    },
    {
      "channel": 4,
      "note": 87,
      "start": 20.7214,
      "duration": 0.0507,
      "velocity": 101,
      "chip": "ym2612"
    },
    {
      "channel": 0,
      "note": 60,
      "start": 20.7703,
      "duration": 0.2,
      "velocity": 91,
      "chip": "ym2612"
    },
    {
      "channel": 2,
      "note": 77,
      "start": 20.7712,
      "duration": 0.0991,
      "velocity": 103,
      "chip": "ym2612"
    },
    {
      "channel": 3,
      "note": 73,
      "start": 20.7718,
      "duration": 0.0988,
      "velocity": 103,
      "chip": "ym2612"
    },
    {
      "channel": 4,
      "note": 83,
      "start": 20.7725,
      "duration": 0.2,
      "velocity": 101,
      "chip": "ym2612"
    },
    {
      "channel": 0,
      "note": 61,
      "start": 20.9707,
      "duration": 0.0147,
      "velocity": 91,
      "chip": "ym2612"
    },
    {
      "channel": 2,
      "note": 77,
      "start": 20.9716,
      "duration": 0.0144,
      "velocity": 103,
      "chip": "ym2612"
    },
    {
      "channel": 3,
      "note": 73,
      "start": 20.9722,
      "duration": 0.0141,
      "velocity": 103,
      "chip": "ym2612"
    },
    {
      "channel": 4,
      "note": 89,
      "start": 20.973,
      "duration": 0.0401,
      "velocity": 101,
      "chip": "ym2612"
    },
    {
      "channel": 0,
      "note": 73,
      "start": 20.9857,
      "duration": 0.0266,
      "velocity": 91,
      "chip": "ym2612"
    },
    {
      "channel": 0,
      "note": 53,
      "start": 21.0127,
      "duration": 0.0415,
      "velocity": 91,
      "chip": "ym2612"
    },
    {
      "channel": 4,
      "note": 85,
      "start": 21.0135,
      "duration": 0.0421,
      "velocity": 101,
      "chip": "ym2612"
    },
    {
      "channel": 0,
      "note": 54,
      "start": 21.0546,
      "duration": 0.0502,
      "velocity": 91,
      "chip": "ym2612"
    },
    {
      "channel": 4,
      "note": 87,
      "start": 21.0561,
      "duration": 0.0505,
      "velocity": 101,
      "chip": "ym2612"
    },
    {
      "channel": 0,
      "note": 55,
      "start": 21.1052,
      "duration": 0.1126,
      "velocity": 91,
      "chip": "ym2612"
    },
    {
      "channel": 2,
      "note": 77,
      "start": 21.1059,
      "duration": 0.0993,
      "velocity": 103,
      "chip": "ym2612"
    },
    {
      "channel": 3,
      "note": 73,
      "start": 21.1064,
      "duration": 0.0991,
      "velocity": 103,
      "chip": "ym2612"
    },
    {
      "channel": 4,
      "note": 83,
      "start": 21.1071,
      "duration": 0.0989,
      "velocity": 101,
      "chip": "ym2612"
    },
    {
      "channel": 4,
      "note": 89,
      "start": 21.2064,
      "duration": 0.0504,
      "velocity": 101,
      "chip": "ym2612"
    },
    {
      "channel": 0,
      "note": 56,
      "start": 21.2182,
      "duration": 0.0374,
      "velocity": 91,
      "chip": "ym2612"
    },
    {
      "channel": 2,
      "note": 77,
      "start": 21.2191,
      "duration": 0.0371,
      "velocity": 103,
      "chip": "ym2612"
    },
    {
      "channel": 3,
      "note": 73,
      "start": 21.2197,
      "duration": 0.0368,
      "velocity": 103,
      "chip": "ym2612"
    },
    {
      "channel": 0,
      "note": 68,
      "start": 21.256,
      "duration": 0.0999,
      "velocity": 91,
      "chip": "ym2612"
    },
    {
      "channel": 4,
      "note": 89,
      "start": 21.2573,
      "duration": 0.0995,
      "velocity": 101,
      "chip": "ym2612"
    },
    {
      "channel": 0,
      "note": 58,
      "start": 21.3562,
      "duration": 0.0415,
      "velocity": 91,
      "chip": "ym2612"
    },
    {
      "channel": 4,
      "note": 85,
      "start": 21.3572,
      "duration": 0.0412,
      "velocity": 101,
      "chip": "ym2612"
    },
    {
      "channel": 0,
      "note": 59,
      "start": 21.3981,
      "duration": 0.0502,
      "velocity": 91,
      "chip": "ym2612"
    },
    {
      "channel": 4,
      "note": 87,
      "start": 21.3989,
      "duration": 0.0503,
      "velocity": 101,
      "chip": "ym2612"
    },
    {
      "channel": 0,
      "note": 60,
      "start": 21.4487,
      "duration": 0.0262,
      "velocity": 91,
      "chip": "ym2612"
    },
    {
      "channel": 4,
      "note": 83,
      "start": 21.4497,
      "duration": 0.0312,
      "velocity": 101,
      "chip": "ym2612"
    },
    {
      "channel": 0,
      "note": 61,
      "start": 21.4753,
      "duration": 0.0187,
      "velocity": 91,
      "chip": "ym2612"
    },
    {
      "channel": 1,
      "note": 80,
      "start": 21.4786,
      "duration": 0.0159,
      "velocity": 103,
      "chip": "ym2612"
    },
    {
      "channel": 2,
      "note": 80,
      "start": 21.4799,
      "duration": 0.015,
      "velocity": 103,
      "chip": "ym2612"
    },
    {
      "channel": 3,
      "note": 77,
      "start": 21.4805,
      "duration": 0.0147,
      "velocity": 103,
      "chip": "ym2612"
    },
    {
      "channel": 4,
      "note": 89,
      "start": 21.4814,
      "duration": 0.0377,
      "velocity": 101,
      "chip": "ym2612"
    },
    {
      "channel": 0,
      "note": 73,
      "start": 21.4944,
      "duration": 0.0224,
      "velocity": 91,
      "chip": "ym2612"
    },
    {
      "channel": 0,
      "note": 53,
      "start": 21.5172,
      "duration": 0.2,
      "velocity": 91,
      "chip": "ym2612"
    },
    {
      "channel": 1,
      "note": 80,
      "start": 21.5178,
      "duration": 0.0992,
      "velocity": 103,
      "chip": "ym2612"
    },
    {
      "channel": 2,
      "note": 80,
      "start": 21.5183,
      "duration": 0.099,
      "velocity": 103,
      "chip": "ym2612"
    },
    {
      "channel": 3,
      "note": 77,
      "start": 21.5189,
      "duration": 0.0988,
      "velocity": 103,
      "chip": "ym2612"
    },
    {
      "channel": 4,
      "note": 85,
      "start": 21.5195,
      "duration": 0.2,
      "velocity": 101,
      "chip": "ym2612"
    },
    {
      "channel": 0,
      "note": 54,
      "start": 21.7175,
      "duration": 0.0502,
      "velocity": 91,
      "chip": "ym2612"
    },
    {
      "channel": 1,
      "note": 82,
      "start": 21.7181,
      "duration": 0.0138,
      "velocity": 103,
      "chip": "ym2612"
    },
    {
      "channel": 2,
      "note": 82,
      "start": 21.7187,
      "duration": 0.0139,
      "velocity": 103,
      "chip": "ym2612"
    },
    {
      "channel": 3,
      "note": 78,
      "start": 21.7192,
      "duration": 0.0139,
      "velocity": 103,
      "chip": "ym2612"
    },
    {
      "channel": 4,
      "note": 87,
      "start": 21.72,
      "duration": 0.0485,
      "velocity": 101,
      "chip": "ym2612"
    },
    {
      "channel": 1,
      "note": 80,
      "start": 21.7324,
      "duration": 0.1494,
      "velocity": 103,
      "chip": "ym2612"
    },
    {
      "channel": 2,
      "note": 80,
      "start": 21.733,
      "duration": 0.1495,
      "velocity": 103,
      "chip": "ym2612"
    },
    {
      "channel": 3,
      "note": 77,
      "start": 21.7335,
      "duration": 0.1495,
      "velocity": 103,
      "chip": "ym2612"
    },
    {
      "channel": 0,
      "note": 55,
      "start": 21.7681,
      "duration": 0.1131,
      "velocity": 91,
      "chip": "ym2612"
    },
    {
      "channel": 4,
      "note": 83,
      "start": 21.769,
      "duration": 0.0994,
      "velocity": 101,
      "chip": "ym2612"
    },
    {
      "channel": 4,
      "note": 89,
      "start": 21.8689,
      "duration": 0.0289,
      "velocity": 101,
      "chip": "ym2612"
    },
    {
      "channel": 0,
      "note": 64,
      "start": 21.8816,
      "duration": 0.0154,
      "velocity": 91,
      "chip": "ym2612"
    },
    {
      "channel": 1,
      "note": 85,
      "start": 21.8822,
      "duration": 0.0415,
      "velocity": 103,
      "chip": "ym2612"
    },
    {
      "channel": 2,
      "note": 85,
      "start": 21.8828,
      "duration": 0.0412,
      "velocity": 103,
      "chip": "ym2612"
    },
    {
      "channel": 3,
      "note": 80,
      "start": 21.8834,
      "duration": 0.041,
      "velocity": 103,
      "chip": "ym2612"
    },
    {
      "channel": 0,
      "note": 76,
      "start": 21.8974,
      "duration": 0.0257,
      "velocity": 91,
      "chip": "ym2612"
    },
    {
      "channel": 4,
      "note": 89,
      "start": 21.8982,
      "duration": 0.0266,
      "velocity": 101,
      "chip": "ym2612"
    },
    {
      "channel": 0,
      "note": 58,
      "start": 21.9235,
      "duration": 0.2,
      "velocity": 91,
      "chip": "ym2612"
    },
    {
      "channel": 4,
      "note": 85,
      "start": 21.9252,
      "duration": 0.2005,
      "velocity": 101,
      "chip": "ym2612"
    },
    {
      "channel": 0,
      "note": 59,
      "start": 22.1239,
      "duration": 0.0502,
      "velocity": 91,
      "chip": "ym2612"
    },
    {
      "channel": 1,
      "note": 85,
      "start": 22.1245,
      "duration": 0.0501,
      "velocity": 103,
      "chip": "ym2612"
    },
    {
      "channel": 2,
      "note": 85,
      "start": 22.125,
      "duration": 0.0499,
      "velocity": 103,
      "chip": "ym2612"
    },
    {
      "channel": 3,
      "note": 80,
      "start": 22.1256,
      "duration": 0.0497,
      "velocity": 103,
      "chip": "ym2612"
    },
    {
      "channel": 4,
      "note": 87,
      "start": 22.1262,
      "duration": 0.0495,
      "velocity": 101,
      "chip": "ym2612"
    },
    {
      "channel": 0,
      "note": 60,
      "start": 22.1744,
      "duration": 0.2167,
      "velocity": 91,
      "chip": "ym2612"
    },
    {
      "channel": 4,
      "note": 83,
      "start": 22.1761,
      "duration": 0.2176,
      "velocity": 101,
      "chip": "ym2612"
    },
    {
      "channel": 0,
      "note": 61,
      "start": 22.3915,
      "duration": 0.0152,
      "velocity": 91,
      "chip": "ym2612"
    },
    {
      "channel": 1,
      "note": 80,
      "start": 22.3921,
      "duration": 0.0151,
      "velocity": 103,
      "chip": "ym2612"
    },
    {
      "channel": 2,
      "note": 80,
      "start": 22.3927,
      "duration": 0.0149,
      "velocity": 103,
      "chip": "ym2612"
    },
    {
      "channel": 3,
      "note": 77,
      "start": 22.3933,
      "duration": 0.0146,
      "velocity": 103,
      "chip": "ym2612"
    },
    {
      "channel": 4,
      "note": 89,
      "start": 22.3941,
      "duration": 0.0412,
      "velocity": 101,
      "chip": "ym2612"
    },
    {
      "channel": 0,
      "note": 73,
      "start": 22.4071,
      "duration": 0.026,
      "velocity": 91,
      "chip": "ym2612"
    },
    {
      "channel": 0,
      "note": 53,
      "start": 22.4335,
      "duration": 0.2,
      "velocity": 91,
      "chip": "ym2612"
    },
    {
      "channel": 1,
      "note": 80,
      "start": 22.4341,
      "duration": 0.0992,
      "velocity": 103,
      "chip": "ym2612"
    },
    {
      "channel": 2,
      "note": 80,
      "start": 22.4346,
      "duration": 0.099,
      "velocity": 103,
      "chip": "ym2612"
    },
    {
      "channel": 3,
      "note": 77,
      "start": 22.4352,
      "duration": 0.0988,
      "velocity": 103,
      "chip": "ym2612"
    },
    {
      "channel": 4,
      "note": 85,
      "start": 22.4358,
      "duration": 0.2,
      "velocity": 101,
      "chip": "ym2612"
    },
    {
      "channel": 0,
      "note": 54,
      "start": 22.6338,
      "duration": 0.0502,
      "velocity": 91,
      "chip": "ym2612"
    },
    {
      "channel": 1,
      "note": 82,
      "start": 22.6344,
      "duration": 0.0138,
      "velocity": 103,
      "chip": "ym2612"
    },
    {
      "channel": 2,
      "note": 82,
      "start": 22.635,
      "duration": 0.0139,
      "velocity": 103,
      "chip": "ym2612"
    },
    {
      "channel": 3,
      "note": 78,
      "start": 22.6355,
      "duration": 0.0139,
      "velocity": 103,
      "chip": "ym2612"
    },
    {
      "channel": 4,
      "note": 87,
      "start": 22.6363,
      "duration": 0.0485,
      "velocity": 101,
      "chip": "ym2612"
    },
    {
      "channel": 1,
      "note": 80,
      "start": 22.6487,
      "duration": 0.1489,
      "velocity": 103,
      "chip": "ym2612"
    },
    {
      "channel": 2,
      "note": 80,
      "start": 22.6493,
      "duration": 0.149,
      "velocity": 103,
      "chip": "ym2612"
    },
    {
      "channel": 3,
      "note": 77,
      "start": 22.6499,
      "duration": 0.149,
      "velocity": 103,
      "chip": "ym2612"
    },
    {
      "channel": 0,
      "note": 55,
      "start": 22.6844,
      "duration": 0.1127,
      "velocity": 91,
      "chip": "ym2612"
    },
    {
      "channel": 4,
      "note": 83,
      "start": 22.6852,
      "duration": 0.0994,
      "velocity": 101,
      "chip": "ym2612"
    },
    {
      "channel": 4,
      "note": 89,
      "start": 22.7851,
      "duration": 0.0504,
      "velocity": 101,
      "chip": "ym2612"
    },
    {
      "channel": 0,
      "note": 64,
      "start": 22.7974,
      "duration": 0.0373,
      "velocity": 91,
      "chip": "ym2612"
    },
    {
      "channel": 1,
      "note": 77,
      "start": 22.798,
      "duration": 0.1794,
      "velocity": 103,
      "chip": "ym2612"
    },
    {
      "channel": 2,
      "note": 77,
      "start": 22.7986,
      "duration": 0.1792,
      "velocity": 103,
      "chip": "ym2612"
    },
    {
      "channel": 3,
      "note": 73,
      "start": 22.7992,
      "duration": 0.1789,
      "velocity": 103,
      "chip": "ym2612"
    },
    {
      "channel": 0,
      "note": 76,
      "start": 22.8351,
      "duration": 0.0999,
      "velocity": 91,
      "chip": "ym2612"
    },
    {
      "channel": 4,
      "note": 89,
      "start": 22.836,
      "duration": 0.1,
      "velocity": 101,
      "chip": "ym2612"
    },
    {
      "channel": 0,
      "note": 58,
      "start": 22.9354,
      "duration": 0.0415,
      "velocity": 91,
      "chip": "ym2612"
    },
    {
      "channel": 4,
      "note": 85,
      "start": 22.9364,
      "duration": 0.042,
      "velocity": 101,
      "chip": "ym2612"
    },
    {
      "channel": 0,
      "note": 59,
      "start": 22.9773,
      "duration": 0.0501,
      "velocity": 91,
      "chip": "ym2612"
    },
    {
      "channel": 4,
      "note": 87,
      "start": 22.9789,
      "duration": 0.0494,
      "velocity": 101,
      "chip": "ym2612"
    },
    {
      "channel": 0,
      "note": 60,
      "start": 23.0278,
      "duration": 0.2,
      "velocity": 91,
      "chip": "ym2612"
    },
    {
      "channel": 4,
      "note": 83,
      "start": 23.0288,
      "duration": 0.2016,
      "velocity": 101,
      "chip": "ym2612"
    },
    {
      "channel": 0,
      "note": 61,
      "start": 23.2282,
      "duration": 0.0152,
      "velocity": 91,
      "chip": "ym2612"
    },
    {
      "channel": 1,
      "note": 80,
      "start": 23.2288,
      "duration": 0.0151,
      "velocity": 103,
      "chip": "ym2612"
    },
    {
      "channel": 2,
      "note": 80,
      "start": 23.2294,
      "duration": 0.0149,
      "velocity": 103,
      "chip": "ym2612"
    },
    {
      "channel": 3,
      "note": 77,
      "start": 23.23,
      "duration": 0.0146,
      "velocity": 103,
      "chip": "ym2612"
    },
    {
      "channel": 4,
      "note": 89,
      "start": 23.2308,
      "duration": 0.0412,
      "velocity": 101,
      "chip": "ym2612"
    },
    {
      "channel": 0,
      "note": 73,
      "start": 23.2438,
      "duration": 0.026,
      "velocity": 91,
      "chip": "ym2612"
    },
    {
      "channel": 0,
      "note": 53,
      "start": 23.2702,
      "duration": 0.2,
      "velocity": 91,
      "chip": "ym2612"
    },
    {
      "channel": 1,
      "note": 80,
      "start": 23.2708,
      "duration": 0.0992,
      "velocity": 103,
      "chip": "ym2612"
    },
    {
      "channel": 2,
      "note": 80,
      "start": 23.2713,
      "duration": 0.099,
      "velocity": 103,
      "chip": "ym2612"
    },
    {
      "channel": 3,
      "note": 77,
      "start": 23.2719,
      "duration": 0.0988,
      "velocity": 103,
      "chip": "ym2612"
    },
    {
      "channel": 4,
      "note": 85,
      "start": 23.2725,
      "duration": 0.2,
      "velocity": 101,
      "chip": "ym2612"
    },
    {
      "channel": 0,
      "note": 54,
      "start": 23.4705,
      "duration": 0.0502,
      "velocity": 91,
      "chip": "ym2612"
    },
    {
      "channel": 1,
      "note": 82,
      "start": 23.4711,
      "duration": 0.0138,
      "velocity": 103,
      "chip": "ym2612"
    },
    {
      "channel": 2,
      "note": 82,
      "start": 23.4717,
      "duration": 0.0139,
      "velocity": 103,
      "chip": "ym2612"
    },
    {
      "channel": 3,
      "note": 78,
      "start": 23.4722,
      "duration": 0.0139,
      "velocity": 103,
      "chip": "ym2612"
    },
    {
      "channel": 4,
      "note": 87,
      "start": 23.473,
      "duration": 0.0485,
      "velocity": 101,
      "chip": "ym2612"
    },
    {
      "channel": 1,
      "note": 80,
      "start": 23.4854,
      "duration": 0.1493,
      "velocity": 103,
      "chip": "ym2612"
    },
    {
      "channel": 2,
      "note": 80,
      "start": 23.486,
      "duration": 0.1494,
      "velocity": 103,
      "chip": "ym2612"
    },
    {
      "channel": 3,
      "note": 77,
      "start": 23.4866,
      "duration": 0.1494,
      "velocity": 103,
      "chip": "ym2612"
    },
    {
      "channel": 0,
      "note": 55,
      "start": 23.5211,
      "duration": 0.1131,
      "velocity": 91,
      "chip": "ym2612"
    },
    {
      "channel": 4,
      "note": 83,
      "start": 23.522,
      "duration": 0.0994,
      "velocity": 101,
      "chip": "ym2612"
    },
    {
      "channel": 4,
      "note": 89,
      "start": 23.6219,
      "duration": 0.0294,
      "velocity": 101,
      "chip": "ym2612"
    },
    {
      "channel": 0,
      "note": 64,
      "start": 23.6346,
      "duration": 0.0152,
      "velocity": 91,
      "chip": "ym2612"
    },
    {
      "channel": 1,
      "note": 85,
      "start": 23.6352,
      "duration": 0.0151,
      "velocity": 103,
      "chip": "ym2612"
    },
    {
      "channel": 2,
      "note": 85,
      "start": 23.6358,
      "duration": 0.0149,
      "velocity": 103,
      "chip": "ym2612"
    },
    {
      "channel": 3,
      "note": 80,
      "start": 23.6364,
      "duration": 0.0146,
      "velocity": 103,
      "chip": "ym2612"
    },
    {
      "channel": 0,
      "note": 76,
      "start": 23.6502,
      "duration": 0.026,
      "velocity": 91,
      "chip": "ym2612"
    },
    {
      "channel": 4,
      "note": 89,
      "start": 23.6517,
      "duration": 0.0269,
      "velocity": 101,
      "chip": "ym2612"
    },
    {
      "channel": 0,
      "note": 58,
      "start": 23.6765,
      "duration": 0.2,
      "velocity": 91,
      "chip": "ym2612"
    },
    {
      "channel": 1,
      "note": 85,
      "start": 23.6771,
      "duration": 0.0992,
      "velocity": 103,
      "chip": "ym2612"
    },
    {
      "channel": 2,
      "note": 85,
      "start": 23.6777,
      "duration": 0.099,
      "velocity": 103,
      "chip": "ym2612"
    },
    {
      "channel": 3,
      "note": 80,
      "start": 23.6783,
      "duration": 0.0987,
      "velocity": 103,
      "chip": "ym2612"
    },
    {
      "channel": 4,
      "note": 85,
      "start": 23.679,
      "duration": 0.1997,
      "velocity": 101,
      "chip": "ym2612"
    },
    {
      "channel": 0,
      "note": 59,
      "start": 23.8769,
      "duration": 0.0502,
      "velocity": 91,
      "chip": "ym2612"
    },
    {
      "channel": 1,
      "note": 82,
      "start": 23.8775,
      "duration": 0.0138,
      "velocity": 103,
      "chip": "ym2612"
    },
    {
      "channel": 2,
      "note": 82,
      "start": 23.878,
      "duration": 0.0139,
      "velocity": 103,
      "chip": "ym2612"
    },
    {
      "channel": 3,
      "note": 78,
      "start": 23.8786,
      "duration": 0.0139,
      "velocity": 103,
      "chip": "ym2612"
    },
    {
      "channel": 4,
      "note": 87,
      "start": 23.8792,
      "duration": 0.0488,
      "velocity": 101,
      "chip": "ym2612"
    },
    {
      "channel": 1,
      "note": 85,
      "start": 23.8917,
      "duration": 0.2362,
      "velocity": 103,
      "chip": "ym2612"
    },
    {
      "channel": 2,
      "note": 85,
      "start": 23.8923,
      "duration": 0.2363,
      "velocity": 103,
      "chip": "ym2612"
    },
    {
      "channel": 3,
      "note": 80,
      "start": 23.8929,
      "duration": 0.2363,
      "velocity": 103,
      "chip": "ym2612"
    },
    {
      "channel": 0,
      "note": 60,
      "start": 23.9274,
      "duration": 0.2,
      "velocity": 91,
      "chip": "ym2612"
    },
    {
      "channel": 4,
      "note": 83,
      "start": 23.9284,
      "duration": 0.2016,
      "velocity": 101,
      "chip": "ym2612"
    },
    {
      "channel": 0,
      "note": 61,
      "start": 24.1278,
      "duration": 0.0152,
      "velocity": 91,
      "chip": "ym2612"
    },
    {
      "channel": 1,
      "note": 80,
      "start": 24.1284,
      "duration": 0.0151,
      "velocity": 103,
      "chip": "ym2612"
    },
    {
      "channel": 2,
      "note": 80,
      "start": 24.129,
      "duration": 0.0149,
      "velocity": 103,
      "chip": "ym2612"
    },
    {
      "channel": 3,
      "note": 77,
      "start": 24.1296,
      "duration": 0.0146,
      "velocity": 103,
      "chip": "ym2612"
    },
    {
      "channel": 4,
      "note": 89,
      "start": 24.1305,
      "duration": 0.0412,
      "velocity": 101,
      "chip": "ym2612"
    },
    {
      "channel": 0,
      "note": 73,
      "start": 24.1434,
      "duration": 0.026,
      "velocity": 91,
      "chip": "ym2612"
    },
    {
      "channel": 0,
      "note": 53,
      "start": 24.1698,
      "duration": 0.2,
      "velocity": 91,
      "chip": "ym2612"
    },
    {
      "channel": 1,
      "note": 80,
      "start": 24.1704,
      "duration": 0.0992,
      "velocity": 103,
      "chip": "ym2612"
    },
    {
      "channel": 2,
      "note": 80,
      "start": 24.1709,
      "duration": 0.099,
      "velocity": 103,
      "chip": "ym2612"
    },
    {
      "channel": 3,
      "note": 77,
      "start": 24.1715,
      "duration": 0.0988,
      "velocity": 103,
      "chip": "ym2612"
    },
    {
      "channel": 4,
      "note": 85,
      "start": 24.1721,
      "duration": 0.2,
      "velocity": 101,
      "chip": "ym2612"
    },
    {
      "channel": 0,
      "note": 54,
      "start": 24.3701,
      "duration": 0.0501,
      "velocity": 91,
      "chip": "ym2612"
    },
    {
      "channel": 1,
      "note": 82,
      "start": 24.3707,
      "duration": 0.0138,
      "velocity": 103,
      "chip": "ym2612"
    },
    {
      "channel": 2,
      "note": 82,
      "start": 24.3713,
      "duration": 0.0139,
      "velocity": 103,
      "chip": "ym2612"
    },
    {
      "channel": 3,
      "note": 78,
      "start": 24.3718,
      "duration": 0.0139,
      "velocity": 103,
      "chip": "ym2612"
    },
    {
      "channel": 4,
      "note": 87,
      "start": 24.3726,
      "duration": 0.0484,
      "velocity": 101,
      "chip": "ym2612"
    },
    {
      "channel": 1,
      "note": 80,
      "start": 24.385,
      "duration": 0.1489,
      "velocity": 103,
      "chip": "ym2612"
    },
    {
      "channel": 2,
      "note": 80,
      "start": 24.3856,
      "duration": 0.1489,
      "velocity": 103,
      "chip": "ym2612"
    },
    {
      "channel": 3,
      "note": 77,
      "start": 24.3861,
      "duration": 0.149,
      "velocity": 103,
      "chip": "ym2612"
    },
    {
      "channel": 0,
      "note": 55,
      "start": 24.4206,
      "duration": 0.1127,
      "velocity": 91,
      "chip": "ym2612"
    },
    {
      "channel": 4,
      "note": 83,
      "start": 24.4215,
      "duration": 0.0994,
      "velocity": 101,
      "chip": "ym2612"
    },
    {
      "channel": 4,
      "note": 89,
      "start": 24.5214,
      "duration": 0.0671,
      "velocity": 101,
      "chip": "ym2612"
    },
    {
      "channel": 0,
      "note": 56,
      "start": 24.5337,
      "duration": 0.054,
      "velocity": 91,
      "chip": "ym2612"
    },
    {
      "channel": 1,
      "note": 77,
      "start": 24.5343,
      "duration": 0.1961,
      "velocity": 103,
      "chip": "ym2612"
    },
    {
      "channel": 2,
      "note": 77,
      "start": 24.5349,
      "duration": 0.1959,
      "velocity": 103,
      "chip": "ym2612"
    },
    {
      "channel": 3,
      "note": 73,
      "start": 24.5355,
      "duration": 0.1956,
      "velocity": 103,
      "chip": "ym2612"
    },
    {
      "channel": 0,
      "note": 68,
      "start": 24.588,
      "duration": 0.0999,
      "velocity": 91,
      "chip": "ym2612"
    },
    {
      "channel": 4,
      "note": 89,
      "start": 24.5889,
      "duration": 0.1,
      "velocity": 101,
      "chip": "ym2612"
    },
    {
      "channel": 0,
      "note": 58,
      "start": 24.6883,
      "duration": 0.0415,
      "velocity": 91,
      "chip": "ym2612"
    },
    {
      "channel": 4,
      "note": 85,
      "start": 24.6893,
      "duration": 0.042,
      "velocity": 101,
      "chip": "ym2612"
    },
    {
      "channel": 0,
      "note": 59,
      "start": 24.7302,
      "duration": 0.0502,
      "velocity": 91,
      "chip": "ym2612"
    },
    {
      "channel": 4,
      "note": 87,
      "start": 24.7318,
      "duration": 0.0495,
      "velocity": 101,
      "chip": "ym2612"
    },
    {
      "channel": 0,
      "note": 60,
      "start": 24.7807,
      "duration": 0.2002,
      "velocity": 91,
      "chip": "ym2612"
    },
    {
      "channel": 4,
      "note": 83,
      "start": 24.7817,
      "duration": 0.204,
      "velocity": 101,
      "chip": "ym2612"
    },
    {
      "channel": 0,
      "note": 61,
      "start": 24.9813,
      "duration": 0.0181,
      "velocity": 91,
      "chip": "ym2612"
    },
    {
      "channel": 1,
      "note": 80,
      "start": 24.984,
      "duration": 0.0159,
      "velocity": 103,
      "chip": "ym2612"
    },
    {
      "channel": 2,
      "note": 80,
      "start": 24.9847,
      "duration": 0.0156,
      "velocity": 103,
      "chip": "ym2612"
    },
    {
      "channel": 3,
      "note": 77,
      "start": 24.9854,
      "duration": 0.0152,
      "velocity": 103,
      "chip": "ym2612"
    },
    {
      "channel": 4,
      "note": 89,
      "start": 24.9862,
      "duration": 0.0388,
      "velocity": 101,
      "chip": "ym2612"
    },
    {
      "channel": 0,
      "note": 73,
      "start": 24.9998,
      "duration": 0.0229,
      "velocity": 91,
      "chip": "ym2612"
    },
    {
      "channel": 0,
      "note": 53,
      "start": 25.0231,
      "duration": 0.2,
      "velocity": 91,
      "chip": "ym2612"
    },
    {
      "channel": 1,
      "note": 80,
      "start": 25.0237,
      "duration": 0.0992,
      "velocity": 103,
      "chip": "ym2612"
    },
    {
      "channel": 2,
      "note": 80,
      "start": 25.0243,
      "duration": 0.099,
      "velocity": 103,
      "chip": "ym2612"
    },
    {
      "channel": 3,
      "note": 77,
      "start": 25.0248,
      "duration": 0.0988,
      "velocity": 103,
      "chip": "ym2612"
    },
    {
      "channel": 4,
      "note": 85,
      "start": 25.0254,
      "duration": 0.2,
      "velocity": 101,
      "chip": "ym2612"
    },
    {
      "channel": 0,
      "note": 54,
      "start": 25.2235,
      "duration": 0.0502,
      "velocity": 91,
      "chip": "ym2612"
    },
    {
      "channel": 1,
      "note": 82,
      "start": 25.2241,
      "duration": 0.0146,
      "velocity": 103,
      "chip": "ym2612"
    },
    {
      "channel": 2,
      "note": 82,
      "start": 25.2246,
      "duration": 0.0147,
      "velocity": 103,
      "chip": "ym2612"
    },
    {
      "channel": 3,
      "note": 78,
      "start": 25.2252,
      "duration": 0.0148,
      "velocity": 103,
      "chip": "ym2612"
    },
    {
      "channel": 4,
      "note": 87,
      "start": 25.2259,
      "duration": 0.0485,
      "velocity": 101,
      "chip": "ym2612"
    },
    {
      "channel": 1,
      "note": 80,
      "start": 25.2392,
      "duration": 0.1486,
      "velocity": 103,
      "chip": "ym2612"
    },
    {
      "channel": 2,
      "note": 80,
      "start": 25.2398,
      "duration": 0.1487,
      "velocity": 103,
      "chip": "ym2612"
    },
    {
      "channel": 3,
      "note": 77,
      "start": 25.2403,
      "duration": 0.1487,
      "velocity": 103,
      "chip": "ym2612"
    },
    {
      "channel": 0,
      "note": 55,
      "start": 25.274,
      "duration": 0.1132,
      "velocity": 91,
      "chip": "ym2612"
    },
    {
      "channel": 4,
      "note": 83,
      "start": 25.2749,
      "duration": 0.0994,
      "velocity": 101,
      "chip": "ym2612"
    },
    {
      "channel": 4,
      "note": 89,
      "start": 25.3748,
      "duration": 0.0293,
      "velocity": 101,
      "chip": "ym2612"
    },
    {
      "channel": 0,
      "note": 64,
      "start": 25.3876,
      "duration": 0.0157,
      "velocity": 91,
      "chip": "ym2612"
    },
    {
      "channel": 1,
      "note": 85,
      "start": 25.3882,
      "duration": 0.0416,
      "velocity": 103,
      "chip": "ym2612"
    },
    {
      "channel": 2,
      "note": 85,
      "start": 25.3888,
      "duration": 0.0413,
      "velocity": 103,
      "chip": "ym2612"
    },
    {
      "channel": 3,
      "note": 80,
      "start": 25.3894,
      "duration": 0.041,
      "velocity": 103,
      "chip": "ym2612"
    },
    {
      "channel": 0,
      "note": 76,
      "start": 25.4037,
      "duration": 0.0255,
      "velocity": 91,
      "chip": "ym2612"
    },
    {
      "channel": 4,
      "note": 89,
      "start": 25.4045,
      "duration": 0.0263,
      "velocity": 101,
      "chip": "ym2612"
    },
    {
      "channel": 0,
      "note": 58,
      "start": 25.4296,
      "duration": 0.2,
      "velocity": 91,
      "chip": "ym2612"
    },
    {
      "channel": 4,
      "note": 85,
      "start": 25.4313,
      "duration": 0.2005,
      "velocity": 101,
      "chip": "ym2612"
    },
    {
      "channel": 0,
      "note": 59,
      "start": 25.6299,
      "duration": 0.0502,
      "velocity": 91,
      "chip": "ym2612"
    },
    {
      "channel": 1,
      "note": 85,
      "start": 25.6305,
      "duration": 0.0501,
      "velocity": 103,
      "chip": "ym2612"
    },
    {
      "channel": 2,
      "note": 85,
      "start": 25.6311,
      "duration": 0.0499,
      "velocity": 103,
      "chip": "ym2612"
    },
    {
      "channel": 3,
      "note": 80,
      "start": 25.6317,
      "duration": 0.0497,
      "velocity": 103,
      "chip": "ym2612"
    },
    {
      "channel": 4,
      "note": 87,
      "start": 25.6323,
      "duration": 0.0495,
      "velocity": 101,
      "chip": "ym2612"
    },
    {
      "channel": 0,
      "note": 60,
      "start": 25.6805,
      "duration": 0.2,
      "velocity": 91,
      "chip": "ym2612"
    },
    {
      "channel": 4,
      "note": 83,
      "start": 25.6822,
      "duration": 0.2009,
      "velocity": 101,
      "chip": "ym2612"
    },
    {
      "channel": 0,
      "note": 61,
      "start": 25.8809,
      "duration": 0.0156,
      "velocity": 91,
      "chip": "ym2612"
    },
    {
      "channel": 1,
      "note": 80,
      "start": 25.8815,
      "duration": 0.0156,
      "velocity": 103,
      "chip": "ym2612"
    },
    {
      "channel": 2,
      "note": 80,
      "start": 25.8821,
      "duration": 0.0153,
      "velocity": 103,
      "chip": "ym2612"
    },
    {
      "channel": 3,
      "note": 77,
      "start": 25.8827,
      "duration": 0.0151,
      "velocity": 103,
      "chip": "ym2612"
    },
    {
      "channel": 4,
      "note": 89,
      "start": 25.8835,
      "duration": 0.0411,
      "velocity": 101,
      "chip": "ym2612"
    },
    {
      "channel": 0,
      "note": 73,
      "start": 25.8969,
      "duration": 0.0254,
      "velocity": 91,
      "chip": "ym2612"
    },
    {
      "channel": 0,
      "note": 53,
      "start": 25.9228,
      "duration": 0.2,
      "velocity": 91,
      "chip": "ym2612"
    },
    {
      "channel": 1,
      "note": 80,
      "start": 25.9234,
      "duration": 0.0992,
      "velocity": 103,
      "chip": "ym2612"
    },
    {
      "channel": 2,
      "note": 80,
      "start": 25.9239,
      "duration": 0.099,
      "velocity": 103,
      "chip": "ym2612"
    },
    {
      "channel": 3,
      "note": 77,
      "start": 25.9245,
      "duration": 0.0988,
      "velocity": 103,
      "chip": "ym2612"
    },
    {
      "channel": 4,
      "note": 85,
      "start": 25.9251,
      "duration": 0.2,
      "velocity": 101,
      "chip": "ym2612"
    },
    {
      "channel": 0,
      "note": 54,
      "start": 26.1231,
      "duration": 0.0502,
      "velocity": 91,
      "chip": "ym2612"
    },
    {
      "channel": 1,
      "note": 82,
      "start": 26.1237,
      "duration": 0.0146,
      "velocity": 103,
      "chip": "ym2612"
    },
    {
      "channel": 2,
      "note": 82,
      "start": 26.1243,
      "duration": 0.0147,
      "velocity": 103,
      "chip": "ym2612"
    },
    {
      "channel": 3,
      "note": 78,
      "start": 26.1248,
      "duration": 0.0148,
      "velocity": 103,
      "chip": "ym2612"
    },
    {
      "channel": 4,
      "note": 87,
      "start": 26.1256,
      "duration": 0.0485,
      "velocity": 101,
      "chip": "ym2612"
    },
    {
      "channel": 1,
      "note": 80,
      "start": 26.1388,
      "duration": 0.1485,
      "velocity": 103,
      "chip": "ym2612"
    },
    {
      "channel": 2,
      "note": 80,
      "start": 26.1394,
      "duration": 0.1486,
      "velocity": 103,
      "chip": "ym2612"
    },
    {
      "channel": 3,
      "note": 77,
      "start": 26.14,
      "duration": 0.1486,
      "velocity": 103,
      "chip": "ym2612"
    },
    {
      "channel": 0,
      "note": 55,
      "start": 26.1737,
      "duration": 0.113,
      "velocity": 91,
      "chip": "ym2612"
    },
    {
      "channel": 4,
      "note": 83,
      "start": 26.1746,
      "duration": 0.0994,
      "velocity": 101,
      "chip": "ym2612"
    },
    {
      "channel": 4,
      "note": 89,
      "start": 26.2744,
      "duration": 0.0504,
      "velocity": 101,
      "chip": "ym2612"
    },
    {
      "channel": 0,
      "note": 64,
      "start": 26.2871,
      "duration": 0.037,
      "velocity": 91,
      "chip": "ym2612"
    },
    {
      "channel": 1,
      "note": 77,
      "start": 26.2878,
      "duration": 0.1791,
      "velocity": 103,
      "chip": "ym2612"
    },
    {
      "channel": 2,
      "note": 77,
      "start": 26.2883,
      "duration": 0.1789,
      "velocity": 103,
      "chip": "ym2612"
    },
    {
      "channel": 3,
      "note": 73,
      "start": 26.2889,
      "duration": 0.1786,
      "velocity": 103,
      "chip": "ym2612"
    },
    {
      "channel": 0,
      "note": 76,
      "start": 26.3244,
      "duration": 0.0999,
      "velocity": 91,
      "chip": "ym2612"
    },
    {
      "channel": 4,
      "note": 89,
      "start": 26.3253,
      "duration": 0.1,
      "velocity": 101,
      "chip": "ym2612"
    },
    {
      "channel": 0,
      "note": 58,
      "start": 26.4247,
      "duration": 0.0416,
      "velocity": 91,
      "chip": "ym2612"
    },
    {
      "channel": 4,
      "note": 85,
      "start": 26.4257,
      "duration": 0.0421,
      "velocity": 101,
      "chip": "ym2612"
    },
    {
      "channel": 0,
      "note": 59,
      "start": 26.4667,
      "duration": 0.0502,
      "velocity": 91,
      "chip": "ym2612"
    },
    {
      "channel": 4,
      "note": 87,
      "start": 26.4683,
      "duration": 0.0495,
      "velocity": 101,
      "chip": "ym2612"
    },
    {
      "channel": 0,
      "note": 60,
      "start": 26.5172,
      "duration": 0.2,
      "velocity": 91,
      "chip": "ym2612"
    },
    {
      "channel": 4,
      "note": 83,
      "start": 26.5182,
      "duration": 0.2016,
      "velocity": 101,
      "chip": "ym2612"
    },
    {
      "channel": 0,
      "note": 61,
      "start": 26.7176,
      "duration": 0.0156,
      "velocity": 91,
      "chip": "ym2612"
    },
    {
      "channel": 1,
      "note": 80,
      "start": 26.7183,
      "duration": 0.0155,
      "velocity": 103,
      "chip": "ym2612"
    },
    {
      "channel": 2,
      "note": 80,
      "start": 26.7188,
      "duration": 0.0153,
      "velocity": 103,
      "chip": "ym2612"
    },
    {
      "channel": 3,
      "note": 77,
      "start": 26.7194,
      "duration": 0.015,
      "velocity": 103,
      "chip": "ym2612"
    },
    {
      "channel": 4,
      "note": 89,
      "start": 26.7203,
      "duration": 0.0411,
      "velocity": 101,
      "chip": "ym2612"
    },
    {
      "channel": 0,
      "note": 73,
      "start": 26.7336,
      "duration": 0.0255,
      "velocity": 91,
      "chip": "ym2612"
    },
    {
      "channel": 0,
      "note": 53,
      "start": 26.7595,
      "duration": 0.2166,
      "velocity": 91,
      "chip": "ym2612"
    },
    {
      "channel": 1,
      "note": 80,
      "start": 26.7601,
      "duration": 0.0992,
      "velocity": 103,
      "chip": "ym2612"
    },
    {
      "channel": 2,
      "note": 80,
      "start": 26.7607,
      "duration": 0.099,
      "velocity": 103,
      "chip": "ym2612"
    },
    {
      "channel": 3,
      "note": 77,
      "start": 26.7612,
      "duration": 0.0988,
      "velocity": 103,
      "chip": "ym2612"
    },
    {
      "channel": 4,
      "note": 85,
      "start": 26.7618,
      "duration": 0.2167,
      "velocity": 101,
      "chip": "ym2612"
    },
    {
      "channel": 0,
      "note": 54,
      "start": 26.9766,
      "duration": 0.0502,
      "velocity": 91,
      "chip": "ym2612"
    },
    {
      "channel": 1,
      "note": 82,
      "start": 26.9772,
      "duration": 0.0146,
      "velocity": 103,
      "chip": "ym2612"
    },
    {
      "channel": 2,
      "note": 82,
      "start": 26.9777,
      "duration": 0.0147,
      "velocity": 103,
      "chip": "ym2612"
    },
    {
      "channel": 3,
      "note": 78,
      "start": 26.9783,
      "duration": 0.0147,
      "velocity": 103,
      "chip": "ym2612"
    },
    {
      "channel": 4,
      "note": 87,
      "start": 26.979,
      "duration": 0.0485,
      "velocity": 101,
      "chip": "ym2612"
    },
    {
      "channel": 1,
      "note": 80,
      "start": 26.9922,
      "duration": 0.1486,
      "velocity": 103,
      "chip": "ym2612"
    },
    {
      "channel": 2,
      "note": 80,
      "start": 26.9928,
      "duration": 0.1487,
      "velocity": 103,
      "chip": "ym2612"
    },
    {
      "channel": 3,
      "note": 77,
      "start": 26.9934,
      "duration": 0.1487,
      "velocity": 103,
      "chip": "ym2612"
    },
    {
      "channel": 0,
      "note": 55,
      "start": 27.0271,
      "duration": 0.1132,
      "velocity": 91,
      "chip": "ym2612"
    },
    {
      "channel": 4,
      "note": 83,
      "start": 27.028,
      "duration": 0.0994,
      "velocity": 101,
      "chip": "ym2612"
    },
    {
      "channel": 4,
      "note": 89,
      "start": 27.1278,
      "duration": 0.03,
      "velocity": 101,
      "chip": "ym2612"
    },
    {
      "channel": 0,
      "note": 64,
      "start": 27.1407,
      "duration": 0.0157,
      "velocity": 91,
      "chip": "ym2612"
    },
    {
      "channel": 1,
      "note": 85,
      "start": 27.1413,
      "duration": 0.0156,
      "velocity": 103,
      "chip": "ym2612"
    },
    {
      "channel": 2,
      "note": 85,
      "start": 27.1419,
      "duration": 0.0154,
      "velocity": 103,
      "chip": "ym2612"
    },
    {
      "channel": 3,
      "note": 80,
      "start": 27.1425,
      "duration": 0.0151,
      "velocity": 103,
      "chip": "ym2612"
    },
    {
      "channel": 0,
      "note": 76,
      "start": 27.1567,
      "duration": 0.0255,
      "velocity": 91,
      "chip": "ym2612"
    },
    {
      "channel": 4,
      "note": 89,
      "start": 27.1583,
      "duration": 0.0264,
      "velocity": 101,
      "chip": "ym2612"
    },
    {
      "channel": 0,
      "note": 58,
      "start": 27.1826,
      "duration": 0.2,
      "velocity": 91,
      "chip": "ym2612"
    },
    {
      "channel": 1,
      "note": 85,
      "start": 27.1832,
      "duration": 0.0992,
      "velocity": 103,
      "chip": "ym2612"
    },
    {
      "channel": 2,
      "note": 85,
      "start": 27.1838,
      "duration": 0.099,
      "velocity": 103,
      "chip": "ym2612"
    },
    {
      "channel": 3,
      "note": 80,
      "start": 27.1844,
      "duration": 0.0987,
      "velocity": 103,
      "chip": "ym2612"
    },
    {
      "channel": 4,
      "note": 85,
      "start": 27.1851,
      "duration": 0.1997,
      "velocity": 101,
      "chip": "ym2612"
    },
    {
      "channel": 0,
      "note": 59,
      "start": 27.3829,
      "duration": 0.0501,
      "velocity": 91,
      "chip": "ym2612"
    },
    {
      "channel": 1,
      "note": 82,
      "start": 27.3836,
      "duration": 0.0144,
      "velocity": 103,
      "chip": "ym2612"
    },
    {
      "channel": 2,
      "note": 82,
      "start": 27.3841,
      "duration": 0.0145,
      "velocity": 103,
      "chip": "ym2612"
    },
    {
      "channel": 3,
      "note": 78,
      "start": 27.3847,
      "duration": 0.0146,
      "velocity": 103,
      "chip": "ym2612"
    },
    {
      "channel": 4,
      "note": 87,
      "start": 27.3853,
      "duration": 0.0487,
      "velocity": 101,
      "chip": "ym2612"
    },
    {
      "channel": 1,
      "note": 85,
      "start": 27.3985,
      "duration": 0.2355,
      "velocity": 103,
      "chip": "ym2612"
    },
    {
      "channel": 2,
      "note": 85,
      "start": 27.3991,
      "duration": 0.2356,
      "velocity": 103,
      "chip": "ym2612"
    },
    {
      "channel": 3,
      "note": 80,
      "start": 27.3996,
      "duration": 0.2356,
      "velocity": 103,
      "chip": "ym2612"
    },
    {
      "channel": 0,
      "note": 60,
      "start": 27.4334,
      "duration": 0.2,
      "velocity": 91,
      "chip": "ym2612"
    },
    {
      "channel": 4,
      "note": 83,
      "start": 27.4344,
      "duration": 0.2016,
      "velocity": 101,
      "chip": "ym2612"
    },
    {
      "channel": 0,
      "note": 61,
      "start": 27.6339,
      "duration": 0.0158,
      "velocity": 91,
      "chip": "ym2612"
    },
    {
      "channel": 1,
      "note": 80,
      "start": 27.6345,
      "duration": 0.0157,
      "velocity": 103,
      "chip": "ym2612"
    },
    {
      "channel": 2,
      "note": 80,
      "start": 27.6351,
      "duration": 0.0155,
      "velocity": 103,
      "chip": "ym2612"
    },
    {
      "channel": 3,
      "note": 77,
      "start": 27.6356,
      "duration": 0.0152,
      "velocity": 103,
      "chip": "ym2612"
    },
    {
      "channel": 4,
      "note": 89,
      "start": 27.6365,
      "duration": 0.0413,
      "velocity": 101,
      "chip": "ym2612"
    },
    {
      "channel": 0,
      "note": 73,
      "start": 27.65,
      "duration": 0.0255,
      "velocity": 91,
      "chip": "ym2612"
    },
    {
      "channel": 0,
      "note": 53,
      "start": 27.6759,
      "duration": 0.1998,
      "velocity": 91,
      "chip": "ym2612"
    },
    {
      "channel": 1,
      "note": 80,
      "start": 27.6765,
      "duration": 0.0992,
      "velocity": 103,
      "chip": "ym2612"
    },
    {
      "channel": 2,
      "note": 80,
      "start": 27.6771,
      "duration": 0.099,
      "velocity": 103,
      "chip": "ym2612"
    },
    {
      "channel": 3,
      "note": 77,
      "start": 27.6776,
      "duration": 0.0988,
      "velocity": 103,
      "chip": "ym2612"
    },
    {
      "channel": 4,
      "note": 85,
      "start": 27.6782,
      "duration": 0.1999,
      "velocity": 101,
      "chip": "ym2612"
    },
    {
      "channel": 0,
      "note": 54,
      "start": 27.8761,
      "duration": 0.0502,
      "velocity": 91,
      "chip": "ym2612"
    },
    {
      "channel": 1,
      "note": 82,
      "start": 27.8767,
      "duration": 0.0146,
      "velocity": 103,
      "chip": "ym2612"
    },
    {
      "channel": 2,
      "note": 82,
      "start": 27.8773,
      "duration": 0.0147,
      "velocity": 103,
      "chip": "ym2612"
    },
    {
      "channel": 3,
      "note": 78,
      "start": 27.8778,
      "duration": 0.0147,
      "velocity": 103,
      "chip": "ym2612"
    },
    {
      "channel": 4,
      "note": 87,
      "start": 27.8786,
      "duration": 0.0485,
      "velocity": 101,
      "chip": "ym2612"
    },
    {
      "channel": 1,
      "note": 80,
      "start": 27.8918,
      "duration": 0.1485,
      "velocity": 103,
      "chip": "ym2612"
    },
    {
      "channel": 2,
      "note": 80,
      "start": 27.8924,
      "duration": 0.1485,
      "velocity": 103,
      "chip": "ym2612"
    },
    {
      "channel": 3,
      "note": 77,
      "start": 27.8929,
      "duration": 0.1485,
      "velocity": 103,
      "chip": "ym2612"
    },
    {
      "channel": 0,
      "note": 55,
      "start": 27.9267,
      "duration": 0.113,
      "velocity": 91,
      "chip": "ym2612"
    },
    {
      "channel": 4,
      "note": 83,
      "start": 27.9276,
      "duration": 0.0994,
      "velocity": 101,
      "chip": "ym2612"
    },
    {
      "channel": 4,
      "note": 89,
      "start": 28.0274,
      "duration": 0.0504,
      "velocity": 101,
      "chip": "ym2612"
    },
    {
      "channel": 0,
      "note": 56,
      "start": 28.0401,
      "duration": 0.037,
      "velocity": 91,
      "chip": "ym2612"
    },
    {
      "channel": 1,
      "note": 77,
      "start": 28.0407,
      "duration": 0.1792,
      "velocity": 103,
      "chip": "ym2612"
    },
    {
      "channel": 2,
      "note": 77,
      "start": 28.0413,
      "duration": 0.1789,
      "velocity": 103,
      "chip": "ym2612"
    },
    {
      "channel": 3,
      "note": 73,
      "start": 28.0419,
      "duration": 0.1786,
      "velocity": 103,
      "chip": "ym2612"
    },
    {
      "channel": 0,
      "note": 68,
      "start": 28.0774,
      "duration": 0.0999,
      "velocity": 91,
      "chip": "ym2612"
    },
    {
      "channel": 4,
      "note": 89,
      "start": 28.0783,
      "duration": 0.1,
      "velocity": 101,
      "chip": "ym2612"
    },
    {
      "channel": 0,
      "note": 58,
      "start": 28.1777,
      "duration": 0.0416,
      "velocity": 91,
      "chip": "ym2612"
    },
    {
      "channel": 4,
      "note": 85,
      "start": 28.1787,
      "duration": 0.0421,
      "velocity": 101,
      "chip": "ym2612"
    },
    {
      "channel": 0,
      "note": 59,
      "start": 28.2197,
      "duration": 0.0502,
      "velocity": 91,
      "chip": "ym2612"
    },
    {
      "channel": 4,
      "note": 87,
      "start": 28.2213,
      "duration": 0.0495,
      "velocity": 101,
      "chip": "ym2612"
    },
    {
      "channel": 0,
      "note": 60,
      "start": 28.2702,
      "duration": 21.5895,
      "velocity": 91,
      "chip": "ym2612"
    },
    {
      "channel": 4,
      "note": 83,
      "start": 28.2712,
      "duration": 21.5886,
      "velocity": 101,
      "chip": "ym2612"
    }
  ]
}