{
  "track_name": "29 - Requiem",
  "duration_sec": 63.699,
  "sample_rate": 44100,
  "note_count": 402,
  "unique_pitches": 36,
  "pitch_range": 46,
  "avg_note_duration": 0.5885,
  "reconstruction_stats": {
    "notes_reconstructed": 402,
    "keyon_events": 402,
    "keyoff_events": 399,
    "orphan_keyons": 3,
    "unique_pitches": 36,
    "pitch_range": 46,
    "avg_duration_sec": 0.5885
  },
  "metadata": {
    "source": "L\\Langrisser II\\29 - Requiem.vgz"
  },
  "notes": [
    {
      "channel": 1,
      "note": 71,
      "start": 0.0337,
      "duration": 0.1391,
      "velocity": 99,
      "chip": "ym2612"
    },
    {
      "channel": 1,
      "note": 73,
      "start": 0.2018,
      "duration": 0.144,
      "velocity": 99,
      "chip": "ym2612"
    },
    {
      "channel": 3,
      "note": 87,
      "start": 0.2027,
      "duration": 0.1437,
      "velocity": 99,
      "chip": "ym2612"
    },
    {
      "channel": 1,
      "note": 74,
      "start": 0.3753,
      "duration": 0.6626,
      "velocity": 99,
      "chip": "ym2612"
    },
    {
      "channel": 2,
      "note": 59,
      "start": 0.3777,
      "duration": 2.7366,
      "velocity": 114,
      "chip": "ym2612"
    },
    {
      "channel": 3,
      "note": 71,
      "start": 0.3783,
      "duration": 0.141,
      "velocity": 99,
      "chip": "ym2612"
    },
    {
      "channel": 4,
      "note": 71,
      "start": 0.379,
      "duration": 0.1407,
      "velocity": 99,
      "chip": "ym2612"
    },
    {
      "channel": 3,
      "note": 73,
      "start": 0.5484,
      "duration": 0.663,
      "velocity": 99,
      "chip": "ym2612"
    },
    {
      "channel": 4,
      "note": 71,
      "start": 0.5492,
      "duration": 0.1434,
      "velocity": 99,
      "chip": "ym2612"
    },
    {
      "channel": 4,
      "note": 73,
      "start": 0.7219,
      "duration": 0.6631,
      "velocity": 99,
      "chip": "ym2612"
    },
    {
      "channel": 1,
      "note": 76,
      "start": 1.0673,
      "duration": 0.6626,
      "velocity": 99,
      "chip": "ym2612"
    },
    {
      "channel": 3,
      "note": 74,
      "start": 1.2405,
      "duration": 0.6631,
      "velocity": 99,
      "chip": "ym2612"
    },
    {
      "channel": 4,
      "note": 74,
      "start": 1.4138,
      "duration": 0.663,
      "velocity": 99,
      "chip": "ym2612"
    },
    {
      "channel": 1,
      "note": 78,
      "start": 1.759,
      "duration": 0.663,
      "velocity": 99,
      "chip": "ym2612"
    },
    {
      "channel": 3,
      "note": 76,
      "start": 1.9325,
      "duration": 0.663,
      "velocity": 99,
      "chip": "ym2612"
    },
    {
      "channel": 4,
      "note": 76,
      "start": 2.1059,
      "duration": 0.6636,
      "velocity": 99,
      "chip": "ym2612"
    },
    {
      "channel": 1,
      "note": 81,
      "start": 2.4512,
      "duration": 0.3171,
      "velocity": 99,
      "chip": "ym2612"
    },
    {
      "channel": 3,
      "note": 78,
      "start": 2.6246,
      "duration": 0.317,
      "velocity": 99,
      "chip": "ym2612"
    },
    {
      "channel": 1,
      "note": 80,
      "start": 2.7971,
      "duration": 1.3551,
      "velocity": 99,
      "chip": "ym2612"
    },
    {
      "channel": 4,
      "note": 78,
      "start": 2.7982,
      "duration": 0.3167,
      "velocity": 99,
      "chip": "ym2612"
    },
    {
      "channel": 3,
      "note": 81,
      "start": 2.971,
      "duration": 1.3547,
      "velocity": 99,
      "chip": "ym2612"
    },
    {
      "channel": 2,
      "note": 61,
      "start": 3.1434,
      "duration": 2.3932,
      "velocity": 114,
      "chip": "ym2612"
    },
    {
      "channel": 4,
      "note": 81,
      "start": 3.1443,
      "duration": 1.3547,
      "velocity": 99,
      "chip": "ym2612"
    },
    {
      "channel": 1,
      "note": 76,
      "start": 4.1812,
      "duration": 0.317,
      "velocity": 99,
      "chip": "ym2612"
    },
    {
      "channel": 3,
      "note": 80,
      "start": 4.3552,
      "duration": 0.3169,
      "velocity": 99,
      "chip": "ym2612"
    },
    {
      "channel": 1,
      "note": 74,
      "start": 4.5272,
      "duration": 0.317,
      "velocity": 99,
      "chip": "ym2612"
    },
    {
      "channel": 4,
      "note": 80,
      "start": 4.5284,
      "duration": 0.3167,
      "velocity": 99,
      "chip": "ym2612"
    },
    {
      "channel": 3,
      "note": 76,
      "start": 4.7008,
      "duration": 0.317,
      "velocity": 99,
      "chip": "ym2612"
    },
    {
      "channel": 1,
      "note": 73,
      "start": 4.8733,
      "duration": 0.663,
      "velocity": 99,
      "chip": "ym2612"
    },
    {
      "channel": 4,
      "note": 76,
      "start": 4.8744,
      "duration": 0.3166,
      "velocity": 99,
      "chip": "ym2612"
    },
    {
      "channel": 3,
      "note": 74,
      "start": 5.0468,
      "duration": 0.6629,
      "velocity": 99,
      "chip": "ym2612"
    },
    {
      "channel": 4,
      "note": 74,
      "start": 5.2202,
      "duration": 0.663,
      "velocity": 99,
      "chip": "ym2612"
    },
    {
      "channel": 1,
      "note": 78,
      "start": 5.5653,
      "duration": 3.2173,
      "velocity": 99,
      "chip": "ym2612"
    },
    {
      "channel": 2,
      "note": 62,
      "start": 5.5658,
      "duration": 2.113,
      "velocity": 114,
      "chip": "ym2612"
    },
    {
      "channel": 3,
      "note": 73,
      "start": 5.739,
      "duration": 3.2171,
      "velocity": 99,
      "chip": "ym2612"
    },
    {
      "channel": 4,
      "note": 73,
      "start": 5.9122,
      "duration": 3.2173,
      "velocity": 99,
      "chip": "ym2612"
    },
    {
      "channel": 0,
      "note": 59,
      "start": 6.0841,
      "duration": 0.0129,
      "velocity": 92,
      "chip": "ym2612"
    },
    {
      "channel": 0,
      "note": 59,
      "start": 6.1014,
      "duration": 0.0138,
      "velocity": 92,
      "chip": "ym2612"
    },
    {
      "channel": 0,
      "note": 59,
      "start": 6.1181,
      "duration": 0.0141,
      "velocity": 92,
      "chip": "ym2612"
    },
    {
      "channel": 0,
      "note": 59,
      "start": 6.1359,
      "duration": 0.1583,
      "velocity": 92,
      "chip": "ym2612"
    },
    {
      "channel": 2,
      "note": 64,
      "start": 7.708,
      "duration": 1.767,
      "velocity": 114,
      "chip": "ym2612"
    },
    {
      "channel": 0,
      "note": 59,
      "start": 7.8804,
      "duration": 0.0137,
      "velocity": 92,
      "chip": "ym2612"
    },
    {
      "channel": 0,
      "note": 59,
      "start": 7.8975,
      "duration": 0.0138,
      "velocity": 92,
      "chip": "ym2612"
    },
    {
      "channel": 0,
      "note": 59,
      "start": 7.915,
      "duration": 0.0135,
      "velocity": 92,
      "chip": "ym2612"
    },
    {
      "channel": 0,
      "note": 59,
      "start": 7.9325,
      "duration": 0.1578,
      "velocity": 92,
      "chip": "ym2612"
    },
    {
      "channel": 1,
      "note": 71,
      "start": 9.1577,
      "duration": 0.1441,
      "velocity": 99,
      "chip": "ym2612"
    },
    {
      "channel": 1,
      "note": 73,
      "start": 9.3307,
      "duration": 0.144,
      "velocity": 99,
      "chip": "ym2612"
    },
    {
      "channel": 3,
      "note": 78,
      "start": 9.3316,
      "duration": 0.1437,
      "velocity": 99,
      "chip": "ym2612"
    },
    {
      "channel": 1,
      "note": 74,
      "start": 9.504,
      "duration": 0.6627,
      "velocity": 99,
      "chip": "ym2612"
    },
    {
      "channel": 2,
      "note": 66,
      "start": 9.5046,
      "duration": 2.7386,
      "velocity": 114,
      "chip": "ym2612"
    },
    {
      "channel": 3,
      "note": 71,
      "start": 9.5052,
      "duration": 0.143,
      "velocity": 99,
      "chip": "ym2612"
    },
    {
      "channel": 4,
      "note": 78,
      "start": 9.5059,
      "duration": 0.1426,
      "velocity": 99,
      "chip": "ym2612"
    },
    {
      "channel": 3,
      "note": 73,
      "start": 9.6772,
      "duration": 0.663,
      "velocity": 99,
      "chip": "ym2612"
    },
    {
      "channel": 4,
      "note": 71,
      "start": 9.6779,
      "duration": 0.1436,
      "velocity": 99,
      "chip": "ym2612"
    },
    {
      "channel": 4,
      "note": 73,
      "start": 9.8507,
      "duration": 0.6629,
      "velocity": 99,
      "chip": "ym2612"
    },
    {
      "channel": 1,
      "note": 76,
      "start": 10.1957,
      "duration": 0.663,
      "velocity": 99,
      "chip": "ym2612"
    },
    {
      "channel": 3,
      "note": 74,
      "start": 10.3693,
      "duration": 0.6631,
      "velocity": 99,
      "chip": "ym2612"
    },
    {
      "channel": 4,
      "note": 74,
      "start": 10.5427,
      "duration": 0.6633,
      "velocity": 99,
      "chip": "ym2612"
    },
    {
      "channel": 1,
      "note": 78,
      "start": 10.8881,
      "duration": 0.3167,
      "velocity": 99,
      "chip": "ym2612"
    },
    {
      "channel": 3,
      "note": 76,
      "start": 11.0614,
      "duration": 0.3169,
      "velocity": 99,
      "chip": "ym2612"
    },
    {
      "channel": 1,
      "note": 74,
      "start": 11.2338,
      "duration": 0.317,
      "velocity": 99,
      "chip": "ym2612"
    },
    {
      "channel": 4,
      "note": 76,
      "start": 11.235,
      "duration": 0.3167,
      "velocity": 99,
      "chip": "ym2612"
    },
    {
      "channel": 3,
      "note": 78,
      "start": 11.4074,
      "duration": 0.317,
      "velocity": 99,
      "chip": "ym2612"
    },
    {
      "channel": 1,
      "note": 78,
      "start": 11.5799,
      "duration": 0.3171,
      "velocity": 99,
      "chip": "ym2612"
    },
    {
      "channel": 4,
      "note": 78,
      "start": 11.581,
      "duration": 0.3168,
      "velocity": 99,
      "chip": "ym2612"
    },
    {
      "channel": 3,
      "note": 74,
      "start": 11.7535,
      "duration": 0.3169,
      "velocity": 99,
      "chip": "ym2612"
    },
    {
      "channel": 1,
      "note": 85,
      "start": 11.9259,
      "duration": 0.663,
      "velocity": 99,
      "chip": "ym2612"
    },
    {
      "channel": 4,
      "note": 74,
      "start": 11.9271,
      "duration": 0.3167,
      "velocity": 99,
      "chip": "ym2612"
    },
    {
      "channel": 3,
      "note": 78,
      "start": 12.0995,
      "duration": 0.6629,
      "velocity": 99,
      "chip": "ym2612"
    },
    {
      "channel": 2,
      "note": 69,
      "start": 12.2724,
      "duration": 2.3931,
      "velocity": 114,
      "chip": "ym2612"
    },
    {
      "channel": 4,
      "note": 78,
      "start": 12.2736,
      "duration": 0.6623,
      "velocity": 99,
      "chip": "ym2612"
    },
    {
      "channel": 1,
      "note": 86,
      "start": 12.618,
      "duration": 0.317,
      "velocity": 99,
      "chip": "ym2612"
    },
    {
      "channel": 3,
      "note": 85,
      "start": 12.7918,
      "duration": 0.3171,
      "velocity": 99,
      "chip": "ym2612"
    },
    {
      "channel": 1,
      "note": 85,
      "start": 12.964,
      "duration": 0.3169,
      "velocity": 99,
      "chip": "ym2612"
    },
    {
      "channel": 4,
      "note": 85,
      "start": 12.9652,
      "duration": 0.3166,
      "velocity": 99,
      "chip": "ym2612"
    },
    {
      "channel": 3,
      "note": 86,
      "start": 13.1376,
      "duration": 0.3169,
      "velocity": 99,
      "chip": "ym2612"
    },
    {
      "channel": 1,
      "note": 83,
      "start": 13.31,
      "duration": 0.317,
      "velocity": 99,
      "chip": "ym2612"
    },
    {
      "channel": 4,
      "note": 86,
      "start": 13.3112,
      "duration": 0.3167,
      "velocity": 99,
      "chip": "ym2612"
    },
    {
      "channel": 3,
      "note": 85,
      "start": 13.4836,
      "duration": 0.3171,
      "velocity": 99,
      "chip": "ym2612"
    },
    {
      "channel": 1,
      "note": 81,
      "start": 13.6561,
      "duration": 0.317,
      "velocity": 99,
      "chip": "ym2612"
    },
    {
      "channel": 4,
      "note": 85,
      "start": 13.6574,
      "duration": 0.3165,
      "velocity": 99,
      "chip": "ym2612"
    },
    {
      "channel": 3,
      "note": 83,
      "start": 13.8296,
      "duration": 0.317,
      "velocity": 99,
      "chip": "ym2612"
    },
    {
      "channel": 1,
      "note": 78,
      "start": 14.0021,
      "duration": 0.6631,
      "velocity": 99,
      "chip": "ym2612"
    },
    {
      "channel": 4,
      "note": 83,
      "start": 14.0033,
      "duration": 0.3167,
      "velocity": 99,
      "chip": "ym2612"
    },
    {
      "channel": 3,
      "note": 81,
      "start": 14.1762,
      "duration": 0.6624,
      "velocity": 99,
      "chip": "ym2612"
    },
    {
      "channel": 4,
      "note": 81,
      "start": 14.349,
      "duration": 0.663,
      "velocity": 99,
      "chip": "ym2612"
    },
    {
      "channel": 1,
      "note": 83,
      "start": 14.6941,
      "duration": 3.218,
      "velocity": 99,
      "chip": "ym2612"
    },
    {
      "channel": 2,
      "note": 71,
      "start": 14.6947,
      "duration": 1.4212,
      "velocity": 114,
      "chip": "ym2612"
    },
    {
      "channel": 3,
      "note": 78,
      "start": 14.8677,
      "duration": 3.2179,
      "velocity": 99,
      "chip": "ym2612"
    },
    {
      "channel": 4,
      "note": 78,
      "start": 15.0411,
      "duration": 3.2179,
      "velocity": 99,
      "chip": "ym2612"
    },
    {
      "channel": 0,
      "note": 59,
      "start": 15.2129,
      "duration": 0.0132,
      "velocity": 92,
      "chip": "ym2612"
    },
    {
      "channel": 0,
      "note": 59,
      "start": 15.2303,
      "duration": 0.0138,
      "velocity": 92,
      "chip": "ym2612"
    },
    {
      "channel": 0,
      "note": 59,
      "start": 15.2475,
      "duration": 0.0144,
      "velocity": 92,
      "chip": "ym2612"
    },
    {
      "channel": 0,
      "note": 59,
      "start": 15.2648,
      "duration": 0.1588,
      "velocity": 92,
      "chip": "ym2612"
    },
    {
      "channel": 2,
      "note": 59,
      "start": 16.1467,
      "duration": 0.6614,
      "velocity": 99,
      "chip": "ym2612"
    },
    {
      "channel": 2,
      "note": 60,
      "start": 16.837,
      "duration": 1.7675,
      "velocity": 99,
      "chip": "ym2612"
    },
    {
      "channel": 0,
      "note": 59,
      "start": 17.0095,
      "duration": 0.0135,
      "velocity": 92,
      "chip": "ym2612"
    },
    {
      "channel": 0,
      "note": 59,
      "start": 17.0266,
      "duration": 0.0136,
      "velocity": 92,
      "chip": "ym2612"
    },
    {
      "channel": 0,
      "note": 59,
      "start": 17.0438,
      "duration": 0.0138,
      "velocity": 92,
      "chip": "ym2612"
    },
    {
      "channel": 0,
      "note": 59,
      "start": 17.0613,
      "duration": 0.1585,
      "velocity": 92,
      "chip": "ym2612"
    },
    {
      "channel": 1,
      "note": 71,
      "start": 18.289,
      "duration": 0.1421,
      "velocity": 105,
      "chip": "ym2612"
    },
    {
      "channel": 1,
      "note": 73,
      "start": 18.4602,
      "duration": 0.144,
      "velocity": 105,
      "chip": "ym2612"
    },
    {
      "channel": 3,
      "note": 83,
      "start": 18.4637,
      "duration": 0.1411,
      "velocity": 105,
      "chip": "ym2612"
    },
    {
      "channel": 1,
      "note": 74,
      "start": 18.6334,
      "duration": 0.6628,
      "velocity": 105,
      "chip": "ym2612"
    },
    {
      "channel": 2,
      "note": 71,
      "start": 18.634,
      "duration": 1.3546,
      "velocity": 99,
      "chip": "ym2612"
    },
    {
      "channel": 3,
      "note": 71,
      "start": 18.6346,
      "duration": 0.143,
      "velocity": 105,
      "chip": "ym2612"
    },
    {
      "channel": 4,
      "note": 83,
      "start": 18.6379,
      "duration": 0.1401,
      "velocity": 105,
      "chip": "ym2612"
    },
    {
      "channel": 3,
      "note": 73,
      "start": 18.8069,
      "duration": 0.6629,
      "velocity": 105,
      "chip": "ym2612"
    },
    {
      "channel": 4,
      "note": 71,
      "start": 18.8079,
      "duration": 0.143,
      "velocity": 105,
      "chip": "ym2612"
    },
    {
      "channel": 4,
      "note": 73,
      "start": 18.9802,
      "duration": 0.6631,
      "velocity": 105,
      "chip": "ym2612"
    },
    {
      "channel": 1,
      "note": 76,
      "start": 19.3255,
      "duration": 0.6628,
      "velocity": 105,
      "chip": "ym2612"
    },
    {
      "channel": 3,
      "note": 74,
      "start": 19.4988,
      "duration": 0.663,
      "velocity": 105,
      "chip": "ym2612"
    },
    {
      "channel": 4,
      "note": 74,
      "start": 19.6722,
      "duration": 0.6629,
      "velocity": 105,
      "chip": "ym2612"
    },
    {
      "channel": 1,
      "note": 78,
      "start": 20.0173,
      "duration": 0.663,
      "velocity": 105,
      "chip": "ym2612"
    },
    {
      "channel": 2,
      "note": 69,
      "start": 20.0179,
      "duration": 1.3548,
      "velocity": 99,
      "chip": "ym2612"
    },
    {
      "channel": 3,
      "note": 76,
      "start": 20.1909,
      "duration": 0.663,
      "velocity": 105,
      "chip": "ym2612"
    },
    {
      "channel": 4,
      "note": 76,
      "start": 20.3642,
      "duration": 0.6635,
      "velocity": 105,
      "chip": "ym2612"
    },
    {
      "channel": 1,
      "note": 81,
      "start": 20.7094,
      "duration": 0.317,
      "velocity": 105,
      "chip": "ym2612"
    },
    {
      "channel": 3,
      "note": 78,
      "start": 20.883,
      "duration": 0.3169,
      "velocity": 105,
      "chip": "ym2612"
    },
    {
      "channel": 1,
      "note": 80,
      "start": 21.0554,
      "duration": 1.3551,
      "velocity": 105,
      "chip": "ym2612"
    },
    {
      "channel": 4,
      "note": 78,
      "start": 21.0566,
      "duration": 0.3167,
      "velocity": 105,
      "chip": "ym2612"
    },
    {
      "channel": 3,
      "note": 81,
      "start": 21.229,
      "duration": 1.355,
      "velocity": 105,
      "chip": "ym2612"
    },
    {
      "channel": 2,
      "note": 68,
      "start": 21.4018,
      "duration": 1.355,
      "velocity": 99,
      "chip": "ym2612"
    },
    {
      "channel": 4,
      "note": 81,
      "start": 21.4027,
      "duration": 1.3548,
      "velocity": 105,
      "chip": "ym2612"
    },
    {
      "channel": 1,
      "note": 76,
      "start": 22.4395,
      "duration": 0.317,
      "velocity": 105,
      "chip": "ym2612"
    },
    {
      "channel": 3,
      "note": 80,
      "start": 22.6134,
      "duration": 0.317,
      "velocity": 105,
      "chip": "ym2612"
    },
    {
      "channel": 1,
      "note": 74,
      "start": 22.7856,
      "duration": 0.317,
      "velocity": 105,
      "chip": "ym2612"
    },
    {
      "channel": 2,
      "note": 67,
      "start": 22.7861,
      "duration": 1.3548,
      "velocity": 99,
      "chip": "ym2612"
    },
    {
      "channel": 4,
      "note": 80,
      "start": 22.787,
      "duration": 0.3164,
      "velocity": 105,
      "chip": "ym2612"
    },
    {
      "channel": 3,
      "note": 76,
      "start": 22.9592,
      "duration": 0.3169,
      "velocity": 105,
      "chip": "ym2612"
    },
    {
      "channel": 1,
      "note": 73,
      "start": 23.1316,
      "duration": 0.663,
      "velocity": 105,
      "chip": "ym2612"
    },
    {
      "channel": 4,
      "note": 76,
      "start": 23.1328,
      "duration": 0.3166,
      "velocity": 105,
      "chip": "ym2612"
    },
    {
      "channel": 3,
      "note": 74,
      "start": 23.3052,
      "duration": 0.663,
      "velocity": 105,
      "chip": "ym2612"
    },
    {
      "channel": 4,
      "note": 74,
      "start": 23.4785,
      "duration": 0.663,
      "velocity": 105,
      "chip": "ym2612"
    },
    {
      "channel": 1,
      "note": 78,
      "start": 23.8237,
      "duration": 3.2162,
      "velocity": 105,
      "chip": "ym2612"
    },
    {
      "channel": 3,
      "note": 73,
      "start": 23.9978,
      "duration": 3.2157,
      "velocity": 105,
      "chip": "ym2612"
    },
    {
      "channel": 2,
      "note": 66,
      "start": 24.17,
      "duration": 0.2209,
      "velocity": 99,
      "chip": "ym2612"
    },
    {
      "channel": 4,
      "note": 73,
      "start": 24.1709,
      "duration": 3.2159,
      "velocity": 105,
      "chip": "ym2612"
    },
    {
      "channel": 0,
      "note": 59,
      "start": 24.3424,
      "duration": 0.0131,
      "velocity": 92,
      "chip": "ym2612"
    },
    {
      "channel": 0,
      "note": 59,
      "start": 24.3596,
      "duration": 0.0132,
      "velocity": 92,
      "chip": "ym2612"
    },
    {
      "channel": 0,
      "note": 59,
      "start": 24.3768,
      "duration": 0.0136,
      "velocity": 92,
      "chip": "ym2612"
    },
    {
      "channel": 0,
      "note": 59,
      "start": 24.3941,
      "duration": 0.158,
      "velocity": 92,
      "chip": "ym2612"
    },
    {
      "channel": 2,
      "note": 71,
      "start": 24.5835,
      "duration": 1.3532,
      "velocity": 95,
      "chip": "ym2612"
    },
    {
      "channel": 2,
      "note": 60,
      "start": 25.9676,
      "duration": 0.3805,
      "velocity": 99,
      "chip": "ym2612"
    },
    {
      "channel": 0,
      "note": 59,
      "start": 26.1382,
      "duration": 0.0136,
      "velocity": 92,
      "chip": "ym2612"
    },
    {
      "channel": 0,
      "note": 59,
      "start": 26.1555,
      "duration": 0.0137,
      "velocity": 92,
      "chip": "ym2612"
    },
    {
      "channel": 0,
      "note": 59,
      "start": 26.1724,
      "duration": 0.0134,
      "velocity": 92,
      "chip": "ym2612"
    },
    {
      "channel": 0,
      "note": 59,
      "start": 26.1896,
      "duration": 0.1579,
      "velocity": 92,
      "chip": "ym2612"
    },
    {
      "channel": 2,
      "note": 71,
      "start": 26.379,
      "duration": 1.3532,
      "velocity": 95,
      "chip": "ym2612"
    },
    {
      "channel": 1,
      "note": 71,
      "start": 27.4149,
      "duration": 0.144,
      "velocity": 105,
      "chip": "ym2612"
    },
    {
      "channel": 1,
      "note": 73,
      "start": 27.588,
      "duration": 0.144,
      "velocity": 105,
      "chip": "ym2612"
    },
    {
      "channel": 3,
      "note": 78,
      "start": 27.5889,
      "duration": 0.1437,
      "velocity": 105,
      "chip": "ym2612"
    },
    {
      "channel": 0,
      "note": 59,
      "start": 27.7607,
      "duration": 1.3551,
      "velocity": 92,
      "chip": "ym2612"
    },
    {
      "channel": 1,
      "note": 74,
      "start": 27.762,
      "duration": 0.662,
      "velocity": 105,
      "chip": "ym2612"
    },
    {
      "channel": 2,
      "note": 66,
      "start": 27.7625,
      "duration": 1.3539,
      "velocity": 95,
      "chip": "ym2612"
    },
    {
      "channel": 3,
      "note": 71,
      "start": 27.7632,
      "duration": 0.1422,
      "velocity": 105,
      "chip": "ym2612"
    },
    {
      "channel": 4,
      "note": 78,
      "start": 27.7638,
      "duration": 0.142,
      "velocity": 105,
      "chip": "ym2612"
    },
    {
      "channel": 3,
      "note": 73,
      "start": 27.9345,
      "duration": 0.6631,
      "velocity": 105,
      "chip": "ym2612"
    },
    {
      "channel": 4,
      "note": 71,
      "start": 27.9352,
      "duration": 0.1436,
      "velocity": 105,
      "chip": "ym2612"
    },
    {
      "channel": 4,
      "note": 73,
      "start": 28.1086,
      "duration": 0.6623,
      "velocity": 105,
      "chip": "ym2612"
    },
    {
      "channel": 1,
      "note": 76,
      "start": 28.4531,
      "duration": 0.6631,
      "velocity": 105,
      "chip": "ym2612"
    },
    {
      "channel": 3,
      "note": 74,
      "start": 28.6268,
      "duration": 0.6628,
      "velocity": 105,
      "chip": "ym2612"
    },
    {
      "channel": 4,
      "note": 74,
      "start": 28.8,
      "duration": 0.6633,
      "velocity": 105,
      "chip": "ym2612"
    },
    {
      "channel": 0,
      "note": 57,
      "start": 29.1452,
      "duration": 1.3547,
      "velocity": 92,
      "chip": "ym2612"
    },
    {
      "channel": 1,
      "note": 78,
      "start": 29.1458,
      "duration": 0.3166,
      "velocity": 105,
      "chip": "ym2612"
    },
    {
      "channel": 2,
      "note": 66,
      "start": 29.1463,
      "duration": 1.3542,
      "velocity": 95,
      "chip": "ym2612"
    },
    {
      "channel": 3,
      "note": 76,
      "start": 29.3186,
      "duration": 0.3169,
      "velocity": 105,
      "chip": "ym2612"
    },
    {
      "channel": 1,
      "note": 74,
      "start": 29.4911,
      "duration": 0.317,
      "velocity": 105,
      "chip": "ym2612"
    },
    {
      "channel": 4,
      "note": 76,
      "start": 29.4923,
      "duration": 0.3167,
      "velocity": 105,
      "chip": "ym2612"
    },
    {
      "channel": 3,
      "note": 78,
      "start": 29.6647,
      "duration": 0.3171,
      "velocity": 105,
      "chip": "ym2612"
    },
    {
      "channel": 1,
      "note": 78,
      "start": 29.8372,
      "duration": 0.317,
      "velocity": 105,
      "chip": "ym2612"
    },
    {
      "channel": 4,
      "note": 78,
      "start": 29.8384,
      "duration": 0.3167,
      "velocity": 105,
      "chip": "ym2612"
    },
    {
      "channel": 3,
      "note": 74,
      "start": 30.0108,
      "duration": 0.3169,
      "velocity": 105,
      "chip": "ym2612"
    },
    {
      "channel": 1,
      "note": 85,
      "start": 30.1832,
      "duration": 0.663,
      "velocity": 105,
      "chip": "ym2612"
    },
    {
      "channel": 4,
      "note": 74,
      "start": 30.1844,
      "duration": 0.3167,
      "velocity": 105,
      "chip": "ym2612"
    },
    {
      "channel": 3,
      "note": 78,
      "start": 30.3568,
      "duration": 0.6629,
      "velocity": 105,
      "chip": "ym2612"
    },
    {
      "channel": 0,
      "note": 55,
      "start": 30.5291,
      "duration": 1.355,
      "velocity": 92,
      "chip": "ym2612"
    },
    {
      "channel": 2,
      "note": 66,
      "start": 30.5301,
      "duration": 1.3545,
      "velocity": 95,
      "chip": "ym2612"
    },
    {
      "channel": 4,
      "note": 78,
      "start": 30.531,
      "duration": 0.6621,
      "velocity": 105,
      "chip": "ym2612"
    },
    {
      "channel": 1,
      "note": 86,
      "start": 30.8752,
      "duration": 0.317,
      "velocity": 105,
      "chip": "ym2612"
    },
    {
      "channel": 3,
      "note": 85,
      "start": 31.0488,
      "duration": 0.317,
      "velocity": 105,
      "chip": "ym2612"
    },
    {
      "channel": 1,
      "note": 85,
      "start": 31.2213,
      "duration": 0.3171,
      "velocity": 105,
      "chip": "ym2612"
    },
    {
      "channel": 4,
      "note": 85,
      "start": 31.2224,
      "duration": 0.3167,
      "velocity": 105,
      "chip": "ym2612"
    },
    {
      "channel": 3,
      "note": 86,
      "start": 31.3949,
      "duration": 0.3169,
      "velocity": 105,
      "chip": "ym2612"
    },
    {
      "channel": 1,
      "note": 83,
      "start": 31.5673,
      "duration": 0.317,
      "velocity": 105,
      "chip": "ym2612"
    },
    {
      "channel": 4,
      "note": 86,
      "start": 31.5685,
      "duration": 0.3168,
      "velocity": 105,
      "chip": "ym2612"
    },
    {
      "channel": 3,
      "note": 85,
      "start": 31.7409,
      "duration": 0.3169,
      "velocity": 105,
      "chip": "ym2612"
    },
    {
      "channel": 0,
      "note": 54,
      "start": 31.9131,
      "duration": 1.3551,
      "velocity": 92,
      "chip": "ym2612"
    },
    {
      "channel": 1,
      "note": 81,
      "start": 31.9138,
      "duration": 0.3165,
      "velocity": 105,
      "chip": "ym2612"
    },
    {
      "channel": 2,
      "note": 64,
      "start": 31.9143,
      "duration": 1.3544,
      "velocity": 95,
      "chip": "ym2612"
    },
    {
      "channel": 4,
      "note": 85,
      "start": 31.9155,
      "duration": 0.3157,
      "velocity": 105,
      "chip": "ym2612"
    },
    {
      "channel": 3,
      "note": 83,
      "start": 32.0869,
      "duration": 0.3169,
      "velocity": 105,
      "chip": "ym2612"
    },
    {
      "channel": 1,
      "note": 78,
      "start": 32.2593,
      "duration": 0.6631,
      "velocity": 105,
      "chip": "ym2612"
    },
    {
      "channel": 4,
      "note": 83,
      "start": 32.2605,
      "duration": 0.3167,
      "velocity": 105,
      "chip": "ym2612"
    },
    {
      "channel": 3,
      "note": 81,
      "start": 32.4333,
      "duration": 0.6627,
      "velocity": 105,
      "chip": "ym2612"
    },
    {
      "channel": 4,
      "note": 81,
      "start": 32.6063,
      "duration": 0.6631,
      "velocity": 105,
      "chip": "ym2612"
    },
    {
      "channel": 1,
      "note": 83,
      "start": 32.9515,
      "duration": 5.1614,
      "velocity": 105,
      "chip": "ym2612"
    },
    {
      "channel": 3,
      "note": 78,
      "start": 33.125,
      "duration": 0.317,
      "velocity": 105,
      "chip": "ym2612"
    },
    {
      "channel": 0,
      "note": 55,
      "start": 33.2972,
      "duration": 2.7392,
      "velocity": 92,
      "chip": "ym2612"
    },
    {
      "channel": 2,
      "note": 78,
      "start": 33.3002,
      "duration": 0.1415,
      "velocity": 100,
      "chip": "ym2612"
    },
    {
      "channel": 4,
      "note": 78,
      "start": 33.3011,
      "duration": 5.1587,
      "velocity": 105,
      "chip": "ym2612"
    },
    {
      "channel": 2,
      "note": 79,
      "start": 33.4707,
      "duration": 0.144,
      "velocity": 100,
      "chip": "ym2612"
    },
    {
      "channel": 2,
      "note": 78,
      "start": 33.6437,
      "duration": 0.144,
      "velocity": 100,
      "chip": "ym2612"
    },
    {
      "channel": 3,
      "note": 83,
      "start": 33.647,
      "duration": 0.141,
      "velocity": 100,
      "chip": "ym2612"
    },
    {
      "channel": 2,
      "note": 77,
      "start": 33.8168,
      "duration": 0.1439,
      "velocity": 100,
      "chip": "ym2612"
    },
    {
      "channel": 3,
      "note": 78,
      "start": 33.8178,
      "duration": 0.1432,
      "velocity": 100,
      "chip": "ym2612"
    },
    {
      "channel": 2,
      "note": 78,
      "start": 33.9898,
      "duration": 0.317,
      "velocity": 100,
      "chip": "ym2612"
    },
    {
      "channel": 3,
      "note": 79,
      "start": 33.9904,
      "duration": 0.1441,
      "velocity": 100,
      "chip": "ym2612"
    },
    {
      "channel": 3,
      "note": 78,
      "start": 34.1632,
      "duration": 0.1439,
      "velocity": 100,
      "chip": "ym2612"
    },
    {
      "channel": 2,
      "note": 90,
      "start": 34.3358,
      "duration": 0.663,
      "velocity": 100,
      "chip": "ym2612"
    },
    {
      "channel": 3,
      "note": 77,
      "start": 34.3365,
      "duration": 0.3167,
      "velocity": 100,
      "chip": "ym2612"
    },
    {
      "channel": 3,
      "note": 78,
      "start": 34.6822,
      "duration": 0.663,
      "velocity": 100,
      "chip": "ym2612"
    },
    {
      "channel": 2,
      "note": 88,
      "start": 35.0279,
      "duration": 0.6631,
      "velocity": 100,
      "chip": "ym2612"
    },
    {
      "channel": 3,
      "note": 90,
      "start": 35.3742,
      "duration": 0.6634,
      "velocity": 100,
      "chip": "ym2612"
    },
    {
      "channel": 2,
      "note": 83,
      "start": 35.7203,
      "duration": 0.1436,
      "velocity": 100,
      "chip": "ym2612"
    },
    {
      "channel": 2,
      "note": 85,
      "start": 35.8929,
      "duration": 0.1443,
      "velocity": 100,
      "chip": "ym2612"
    },
    {
      "channel": 0,
      "note": 55,
      "start": 36.0654,
      "duration": 1.1821,
      "velocity": 92,
      "chip": "ym2612"
    },
    {
      "channel": 2,
      "note": 86,
      "start": 36.0663,
      "duration": 0.6627,
      "velocity": 100,
      "chip": "ym2612"
    },
    {
      "channel": 3,
      "note": 88,
      "start": 36.0669,
      "duration": 0.1434,
      "velocity": 100,
      "chip": "ym2612"
    },
    {
      "channel": 3,
      "note": 83,
      "start": 36.2393,
      "duration": 0.144,
      "velocity": 100,
      "chip": "ym2612"
    },
    {
      "channel": 3,
      "note": 85,
      "start": 36.4123,
      "duration": 0.6631,
      "velocity": 100,
      "chip": "ym2612"
    },
    {
      "channel": 2,
      "note": 88,
      "start": 36.758,
      "duration": 0.6634,
      "velocity": 100,
      "chip": "ym2612"
    },
    {
      "channel": 3,
      "note": 86,
      "start": 37.1045,
      "duration": 0.6629,
      "velocity": 100,
      "chip": "ym2612"
    },
    {
      "channel": 0,
      "note": 57,
      "start": 37.2766,
      "duration": 0.0001,
      "velocity": 92,
      "chip": "ym2612"
    },
    {
      "channel": 0,
      "note": 59,
      "start": 37.3057,
      "duration": 0.0001,
      "velocity": 92,
      "chip": "ym2612"
    },
    {
      "channel": 0,
      "note": 60,
      "start": 37.3343,
      "duration": 0.0001,
      "velocity": 92,
      "chip": "ym2612"
    },
    {
      "channel": 0,
      "note": 62,
      "start": 37.3631,
      "duration": 0.0001,
      "velocity": 92,
      "chip": "ym2612"
    },
    {
      "channel": 0,
      "note": 64,
      "start": 37.3919,
      "duration": 0.0001,
      "velocity": 92,
      "chip": "ym2612"
    },
    {
      "channel": 0,
      "note": 66,
      "start": 37.4208,
      "duration": 0.0001,
      "velocity": 92,
      "chip": "ym2612"
    },
    {
      "channel": 0,
      "note": 67,
      "start": 37.4496,
      "duration": 1.3551,
      "velocity": 92,
      "chip": "ym2612"
    },
    {
      "channel": 2,
      "note": 86,
      "start": 37.4504,
      "duration": 0.3167,
      "velocity": 100,
      "chip": "ym2612"
    },
    {
      "channel": 2,
      "note": 85,
      "start": 37.7961,
      "duration": 0.3171,
      "velocity": 100,
      "chip": "ym2612"
    },
    {
      "channel": 3,
      "note": 88,
      "start": 37.7967,
      "duration": 0.3168,
      "velocity": 100,
      "chip": "ym2612"
    },
    {
      "channel": 2,
      "note": 83,
      "start": 38.1423,
      "duration": 0.3168,
      "velocity": 100,
      "chip": "ym2612"
    },
    {
      "channel": 3,
      "note": 86,
      "start": 38.1429,
      "duration": 0.3165,
      "velocity": 100,
      "chip": "ym2612"
    },
    {
      "channel": 2,
      "note": 81,
      "start": 38.4882,
      "duration": 0.3171,
      "velocity": 100,
      "chip": "ym2612"
    },
    {
      "channel": 3,
      "note": 85,
      "start": 38.4889,
      "duration": 0.3166,
      "velocity": 100,
      "chip": "ym2612"
    },
    {
      "channel": 0,
      "note": 54,
      "start": 38.8337,
      "duration": 2.3935,
      "velocity": 92,
      "chip": "ym2612"
    },
    {
      "channel": 1,
      "note": 61,
      "start": 38.836,
      "duration": 0.1419,
      "velocity": 100,
      "chip": "ym2612"
    },
    {
      "channel": 2,
      "note": 78,
      "start": 38.8365,
      "duration": 5.5052,
      "velocity": 100,
      "chip": "ym2612"
    },
    {
      "channel": 3,
      "note": 83,
      "start": 38.8372,
      "duration": 0.3143,
      "velocity": 100,
      "chip": "ym2612"
    },
    {
      "channel": 1,
      "note": 62,
      "start": 39.007,
      "duration": 0.1439,
      "velocity": 100,
      "chip": "ym2612"
    },
    {
      "channel": 1,
      "note": 61,
      "start": 39.18,
      "duration": 0.144,
      "velocity": 100,
      "chip": "ym2612"
    },
    {
      "channel": 3,
      "note": 81,
      "start": 39.1808,
      "duration": 5.2209,
      "velocity": 100,
      "chip": "ym2612"
    },
    {
      "channel": 4,
      "note": 83,
      "start": 39.1841,
      "duration": 0.141,
      "velocity": 100,
      "chip": "ym2612"
    },
    {
      "channel": 1,
      "note": 60,
      "start": 39.353,
      "duration": 0.144,
      "velocity": 100,
      "chip": "ym2612"
    },
    {
      "channel": 4,
      "note": 61,
      "start": 39.3541,
      "duration": 0.1437,
      "velocity": 100,
      "chip": "ym2612"
    },
    {
      "channel": 1,
      "note": 61,
      "start": 39.526,
      "duration": 0.317,
      "velocity": 100,
      "chip": "ym2612"
    },
    {
      "channel": 4,
      "note": 62,
      "start": 39.5272,
      "duration": 0.1436,
      "velocity": 100,
      "chip": "ym2612"
    },
    {
      "channel": 4,
      "note": 61,
      "start": 39.6999,
      "duration": 0.144,
      "velocity": 100,
      "chip": "ym2612"
    },
    {
      "channel": 1,
      "note": 73,
      "start": 39.8721,
      "duration": 0.663,
      "velocity": 100,
      "chip": "ym2612"
    },
    {
      "channel": 4,
      "note": 60,
      "start": 39.8733,
      "duration": 0.3166,
      "velocity": 100,
      "chip": "ym2612"
    },
    {
      "channel": 4,
      "note": 61,
      "start": 40.219,
      "duration": 0.663,
      "velocity": 100,
      "chip": "ym2612"
    },
    {
      "channel": 1,
      "note": 71,
      "start": 40.5641,
      "duration": 0.6634,
      "velocity": 100,
      "chip": "ym2612"
    },
    {
      "channel": 4,
      "note": 73,
      "start": 40.9113,
      "duration": 0.6628,
      "velocity": 100,
      "chip": "ym2612"
    },
    {
      "channel": 0,
      "note": 59,
      "start": 41.2559,
      "duration": 0.144,
      "velocity": 92,
      "chip": "ym2612"
    },
    {
      "channel": 1,
      "note": 66,
      "start": 41.2565,
      "duration": 0.1437,
      "velocity": 100,
      "chip": "ym2612"
    },
    {
      "channel": 0,
      "note": 61,
      "start": 41.4289,
      "duration": 0.144,
      "velocity": 92,
      "chip": "ym2612"
    },
    {
      "channel": 1,
      "note": 68,
      "start": 41.4295,
      "duration": 0.1437,
      "velocity": 100,
      "chip": "ym2612"
    },
    {
      "channel": 0,
      "note": 66,
      "start": 41.6019,
      "duration": 0.663,
      "velocity": 92,
      "chip": "ym2612"
    },
    {
      "channel": 1,
      "note": 69,
      "start": 41.6025,
      "duration": 0.6628,
      "velocity": 100,
      "chip": "ym2612"
    },
    {
      "channel": 4,
      "note": 71,
      "start": 41.6037,
      "duration": 0.1433,
      "velocity": 100,
      "chip": "ym2612"
    },
    {
      "channel": 4,
      "note": 66,
      "start": 41.7761,
      "duration": 0.1439,
      "velocity": 100,
      "chip": "ym2612"
    },
    {
      "channel": 4,
      "note": 68,
      "start": 41.9491,
      "duration": 0.6634,
      "velocity": 100,
      "chip": "ym2612"
    },
    {
      "channel": 0,
      "note": 61,
      "start": 42.2941,
      "duration": 0.6629,
      "velocity": 92,
      "chip": "ym2612"
    },
    {
      "channel": 1,
      "note": 71,
      "start": 42.295,
      "duration": 0.6623,
      "velocity": 100,
      "chip": "ym2612"
    },
    {
      "channel": 4,
      "note": 69,
      "start": 42.6412,
      "duration": 0.6631,
      "velocity": 100,
      "chip": "ym2612"
    },
    {
      "channel": 0,
      "note": 57,
      "start": 42.986,
      "duration": 0.663,
      "velocity": 92,
      "chip": "ym2612"
    },
    {
      "channel": 1,
      "note": 69,
      "start": 42.9866,
      "duration": 0.3167,
      "velocity": 100,
      "chip": "ym2612"
    },
    {
      "channel": 1,
      "note": 68,
      "start": 43.3323,
      "duration": 0.3171,
      "velocity": 100,
      "chip": "ym2612"
    },
    {
      "channel": 4,
      "note": 71,
      "start": 43.3336,
      "duration": 0.3167,
      "velocity": 100,
      "chip": "ym2612"
    },
    {
      "channel": 0,
      "note": 54,
      "start": 43.6781,
      "duration": 0.6631,
      "velocity": 92,
      "chip": "ym2612"
    },
    {
      "channel": 1,
      "note": 66,
      "start": 43.6786,
      "duration": 0.3167,
      "velocity": 100,
      "chip": "ym2612"
    },
    {
      "channel": 4,
      "note": 69,
      "start": 43.6803,
      "duration": 0.3161,
      "velocity": 100,
      "chip": "ym2612"
    },
    {
      "channel": 1,
      "note": 64,
      "start": 44.0244,
      "duration": 0.3171,
      "velocity": 100,
      "chip": "ym2612"
    },
    {
      "channel": 4,
      "note": 68,
      "start": 44.0256,
      "duration": 0.3168,
      "velocity": 100,
      "chip": "ym2612"
    },
    {
      "channel": 0,
      "note": 52,
      "start": 44.3702,
      "duration": 0.0306,
      "velocity": 92,
      "chip": "ym2612"
    },
    {
      "channel": 1,
      "note": 62,
      "start": 44.3707,
      "duration": 0.0304,
      "velocity": 100,
      "chip": "ym2612"
    },
    {
      "channel": 2,
      "note": 71,
      "start": 44.3713,
      "duration": 0.0142,
      "velocity": 100,
      "chip": "ym2612"
    },
    {
      "channel": 4,
      "note": 66,
      "start": 44.3722,
      "duration": 0.0298,
      "velocity": 100,
      "chip": "ym2612"
    },
    {
      "channel": 2,
      "note": 73,
      "start": 44.3882,
      "duration": 0.0132,
      "velocity": 100,
      "chip": "ym2612"
    },
    {
      "channel": 2,
      "note": 74,
      "start": 44.4045,
      "duration": 0.1437,
      "velocity": 100,
      "chip": "ym2612"
    },
    {
      "channel": 3,
      "note": 78,
      "start": 44.4051,
      "duration": 0.1434,
      "velocity": 100,
      "chip": "ym2612"
    },
    {
      "channel": 4,
      "note": 64,
      "start": 44.4058,
      "duration": 0.3162,
      "velocity": 100,
      "chip": "ym2612"
    },
    {
      "channel": 2,
      "note": 78,
      "start": 44.5773,
      "duration": 0.144,
      "velocity": 100,
      "chip": "ym2612"
    },
    {
      "channel": 3,
      "note": 71,
      "start": 44.5779,
      "duration": 0.1437,
      "velocity": 100,
      "chip": "ym2612"
    },
    {
      "channel": 2,
      "note": 86,
      "start": 44.7505,
      "duration": 0.3168,
      "velocity": 100,
      "chip": "ym2612"
    },
    {
      "channel": 3,
      "note": 73,
      "start": 44.7511,
      "duration": 0.1434,
      "velocity": 100,
      "chip": "ym2612"
    },
    {
      "channel": 3,
      "note": 74,
      "start": 44.9236,
      "duration": 0.1441,
      "velocity": 100,
      "chip": "ym2612"
    },
    {
      "channel": 0,
      "note": 64,
      "start": 45.0958,
      "duration": 0.0305,
      "velocity": 92,
      "chip": "ym2612"
    },
    {
      "channel": 1,
      "note": 64,
      "start": 45.0964,
      "duration": 0.0303,
      "velocity": 100,
      "chip": "ym2612"
    },
    {
      "channel": 2,
      "note": 85,
      "start": 45.0969,
      "duration": 0.6967,
      "velocity": 100,
      "chip": "ym2612"
    },
    {
      "channel": 3,
      "note": 78,
      "start": 45.0975,
      "duration": 0.0297,
      "velocity": 100,
      "chip": "ym2612"
    },
    {
      "channel": 3,
      "note": 86,
      "start": 45.131,
      "duration": 1.0089,
      "velocity": 100,
      "chip": "ym2612"
    },
    {
      "channel": 4,
      "note": 62,
      "start": 45.1317,
      "duration": 0.3164,
      "velocity": 100,
      "chip": "ym2612"
    },
    {
      "channel": 2,
      "note": 83,
      "start": 45.8227,
      "duration": 0.6629,
      "velocity": 100,
      "chip": "ym2612"
    },
    {
      "channel": 3,
      "note": 85,
      "start": 46.1691,
      "duration": 0.3757,
      "velocity": 100,
      "chip": "ym2612"
    },
    {
      "channel": 0,
      "note": 52,
      "start": 46.3412,
      "duration": 0.0574,
      "velocity": 92,
      "chip": "ym2612"
    },
    {
      "channel": 0,
      "note": 53,
      "start": 46.4277,
      "duration": 0.0574,
      "velocity": 92,
      "chip": "ym2612"
    },
    {
      "channel": 0,
      "note": 54,
      "start": 46.5141,
      "duration": 0.0298,
      "velocity": 92,
      "chip": "ym2612"
    },
    {
      "channel": 1,
      "note": 66,
      "start": 46.5147,
      "duration": 0.0295,
      "velocity": 100,
      "chip": "ym2612"
    },
    {
      "channel": 2,
      "note": 81,
      "start": 46.5152,
      "duration": 0.0135,
      "velocity": 100,
      "chip": "ym2612"
    },
    {
      "channel": 2,
      "note": 80,
      "start": 46.5319,
      "duration": 0.0125,
      "velocity": 100,
      "chip": "ym2612"
    },
    {
      "channel": 2,
      "note": 81,
      "start": 46.5494,
      "duration": 0.1434,
      "velocity": 100,
      "chip": "ym2612"
    },
    {
      "channel": 3,
      "note": 83,
      "start": 46.55,
      "duration": 0.1431,
      "velocity": 100,
      "chip": "ym2612"
    },
    {
      "channel": 4,
      "note": 64,
      "start": 46.5507,
      "duration": 0.3163,
      "velocity": 100,
      "chip": "ym2612"
    },
    {
      "channel": 2,
      "note": 78,
      "start": 46.7218,
      "duration": 0.1444,
      "velocity": 100,
      "chip": "ym2612"
    },
    {
      "channel": 3,
      "note": 81,
      "start": 46.7225,
      "duration": 0.1441,
      "velocity": 100,
      "chip": "ym2612"
    },
    {
      "channel": 2,
      "note": 90,
      "start": 46.8951,
      "duration": 0.3168,
      "velocity": 100,
      "chip": "ym2612"
    },
    {
      "channel": 3,
      "note": 80,
      "start": 46.8957,
      "duration": 0.1434,
      "velocity": 100,
      "chip": "ym2612"
    },
    {
      "channel": 3,
      "note": 81,
      "start": 47.0682,
      "duration": 0.1441,
      "velocity": 100,
      "chip": "ym2612"
    },
    {
      "channel": 0,
      "note": 66,
      "start": 47.2404,
      "duration": 0.0301,
      "velocity": 92,
      "chip": "ym2612"
    },
    {
      "channel": 1,
      "note": 69,
      "start": 47.241,
      "duration": 0.0298,
      "velocity": 100,
      "chip": "ym2612"
    },
    {
      "channel": 2,
      "note": 88,
      "start": 47.2415,
      "duration": 0.5232,
      "velocity": 100,
      "chip": "ym2612"
    },
    {
      "channel": 3,
      "note": 78,
      "start": 47.2421,
      "duration": 0.0292,
      "velocity": 100,
      "chip": "ym2612"
    },
    {
      "channel": 3,
      "note": 90,
      "start": 47.2753,
      "duration": 0.8357,
      "velocity": 100,
      "chip": "ym2612"
    },
    {
      "channel": 4,
      "note": 66,
      "start": 47.2759,
      "duration": 0.3164,
      "velocity": 100,
      "chip": "ym2612"
    },
    {
      "channel": 2,
      "note": 86,
      "start": 47.7937,
      "duration": 0.4901,
      "velocity": 100,
      "chip": "ym2612"
    },
    {
      "channel": 3,
      "note": 88,
      "start": 48.1404,
      "duration": 0.4898,
      "velocity": 100,
      "chip": "ym2612"
    },
    {
      "channel": 2,
      "note": 85,
      "start": 48.3129,
      "duration": 0.3169,
      "velocity": 100,
      "chip": "ym2612"
    },
    {
      "channel": 0,
      "note": 55,
      "start": 48.6584,
      "duration": 0.0304,
      "velocity": 92,
      "chip": "ym2612"
    },
    {
      "channel": 1,
      "note": 67,
      "start": 48.6589,
      "duration": 0.0301,
      "velocity": 100,
      "chip": "ym2612"
    },
    {
      "channel": 2,
      "note": 83,
      "start": 48.6594,
      "duration": 0.0139,
      "velocity": 100,
      "chip": "ym2612"
    },
    {
      "channel": 3,
      "note": 86,
      "start": 48.6601,
      "duration": 0.0295,
      "velocity": 100,
      "chip": "ym2612"
    },
    {
      "channel": 2,
      "note": 82,
      "start": 48.6761,
      "duration": 0.0132,
      "velocity": 100,
      "chip": "ym2612"
    },
    {
      "channel": 2,
      "note": 83,
      "start": 48.6936,
      "duration": 0.1438,
      "velocity": 100,
      "chip": "ym2612"
    },
    {
      "channel": 3,
      "note": 85,
      "start": 48.6944,
      "duration": 0.1433,
      "velocity": 100,
      "chip": "ym2612"
    },
    {
      "channel": 4,
      "note": 69,
      "start": 48.6951,
      "duration": 0.3163,
      "velocity": 100,
      "chip": "ym2612"
    },
    {
      "channel": 2,
      "note": 78,
      "start": 48.8664,
      "duration": 0.1441,
      "velocity": 100,
      "chip": "ym2612"
    },
    {
      "channel": 3,
      "note": 83,
      "start": 48.8671,
      "duration": 0.1438,
      "velocity": 100,
      "chip": "ym2612"
    },
    {
      "channel": 2,
      "note": 79,
      "start": 49.0397,
      "duration": 0.1437,
      "velocity": 100,
      "chip": "ym2612"
    },
    {
      "channel": 3,
      "note": 82,
      "start": 49.0403,
      "duration": 0.1434,
      "velocity": 100,
      "chip": "ym2612"
    },
    {
      "channel": 2,
      "note": 78,
      "start": 49.2129,
      "duration": 0.1437,
      "velocity": 100,
      "chip": "ym2612"
    },
    {
      "channel": 3,
      "note": 83,
      "start": 49.2135,
      "duration": 0.1434,
      "velocity": 100,
      "chip": "ym2612"
    },
    {
      "channel": 0,
      "note": 67,
      "start": 49.385,
      "duration": 0.0311,
      "velocity": 92,
      "chip": "ym2612"
    },
    {
      "channel": 1,
      "note": 71,
      "start": 49.3855,
      "duration": 0.0308,
      "velocity": 100,
      "chip": "ym2612"
    },
    {
      "channel": 2,
      "note": 83,
      "start": 49.3861,
      "duration": 0.0139,
      "velocity": 100,
      "chip": "ym2612"
    },
    {
      "channel": 3,
      "note": 78,
      "start": 49.3867,
      "duration": 0.014,
      "velocity": 100,
      "chip": "ym2612"
    },
    {
      "channel": 2,
      "note": 85,
      "start": 49.4031,
      "duration": 0.0135,
      "velocity": 100,
      "chip": "ym2612"
    },
    {
      "channel": 3,
      "note": 79,
      "start": 49.4037,
      "duration": 0.0132,
      "velocity": 100,
      "chip": "ym2612"
    },
    {
      "channel": 2,
      "note": 86,
      "start": 49.4198,
      "duration": 0.1437,
      "velocity": 100,
      "chip": "ym2612"
    },
    {
      "channel": 3,
      "note": 78,
      "start": 49.4204,
      "duration": 0.1434,
      "velocity": 100,
      "chip": "ym2612"
    },
    {
      "channel": 4,
      "note": 67,
      "start": 49.421,
      "duration": 0.3162,
      "velocity": 100,
      "chip": "ym2612"
    },
    {
      "channel": 2,
      "note": 88,
      "start": 49.5926,
      "duration": 0.144,
      "velocity": 100,
      "chip": "ym2612"
    },
    {
      "channel": 3,
      "note": 83,
      "start": 49.5932,
      "duration": 0.1437,
      "velocity": 100,
      "chip": "ym2612"
    },
    {
      "channel": 2,
      "note": 90,
      "start": 49.7657,
      "duration": 0.1439,
      "velocity": 100,
      "chip": "ym2612"
    },
    {
      "channel": 3,
      "note": 85,
      "start": 49.7663,
      "duration": 0.1436,
      "velocity": 100,
      "chip": "ym2612"
    },
    {
      "channel": 2,
      "note": 98,
      "start": 49.9386,
      "duration": 0.144,
      "velocity": 100,
      "chip": "ym2612"
    },
    {
      "channel": 3,
      "note": 86,
      "start": 49.9392,
      "duration": 0.1437,
      "velocity": 100,
      "chip": "ym2612"
    },
    {
      "channel": 2,
      "note": 97,
      "start": 50.1118,
      "duration": 0.1438,
      "velocity": 100,
      "chip": "ym2612"
    },
    {
      "channel": 3,
      "note": 88,
      "start": 50.1124,
      "duration": 0.1435,
      "velocity": 100,
      "chip": "ym2612"
    },
    {
      "channel": 2,
      "note": 95,
      "start": 50.2848,
      "duration": 0.1439,
      "velocity": 100,
      "chip": "ym2612"
    },
    {
      "channel": 3,
      "note": 90,
      "start": 50.2854,
      "duration": 0.1436,
      "velocity": 100,
      "chip": "ym2612"
    },
    {
      "channel": 2,
      "note": 93,
      "start": 50.4577,
      "duration": 0.1441,
      "velocity": 100,
      "chip": "ym2612"
    },
    {
      "channel": 3,
      "note": 98,
      "start": 50.4584,
      "duration": 0.1437,
      "velocity": 100,
      "chip": "ym2612"
    },
    {
      "channel": 2,
      "note": 91,
      "start": 50.6307,
      "duration": 0.1441,
      "velocity": 100,
      "chip": "ym2612"
    },
    {
      "channel": 3,
      "note": 97,
      "start": 50.6313,
      "duration": 0.1437,
      "velocity": 100,
      "chip": "ym2612"
    },
    {
      "channel": 0,
      "note": 54,
      "start": 50.8035,
      "duration": 0.0307,
      "velocity": 92,
      "chip": "ym2612"
    },
    {
      "channel": 1,
      "note": 69,
      "start": 50.804,
      "duration": 0.0304,
      "velocity": 100,
      "chip": "ym2612"
    },
    {
      "channel": 2,
      "note": 90,
      "start": 50.8046,
      "duration": 0.0141,
      "velocity": 100,
      "chip": "ym2612"
    },
    {
      "channel": 3,
      "note": 95,
      "start": 50.8052,
      "duration": 0.0138,
      "velocity": 100,
      "chip": "ym2612"
    },
    {
      "channel": 2,
      "note": 91,
      "start": 50.8215,
      "duration": 0.0132,
      "velocity": 100,
      "chip": "ym2612"
    },
    {
      "channel": 3,
      "note": 93,
      "start": 50.8221,
      "duration": 0.0129,
      "velocity": 100,
      "chip": "ym2612"
    },
    {
      "channel": 2,
      "note": 90,
      "start": 50.8378,
      "duration": 0.1437,
      "velocity": 100,
      "chip": "ym2612"
    },
    {
      "channel": 3,
      "note": 91,
      "start": 50.8385,
      "duration": 0.1434,
      "velocity": 100,
      "chip": "ym2612"
    },
    {
      "channel": 4,
      "note": 71,
      "start": 50.8391,
      "duration": 0.3162,
      "velocity": 100,
      "chip": "ym2612"
    },
    {
      "channel": 2,
      "note": 88,
      "start": 51.0106,
      "duration": 0.1441,
      "velocity": 100,
      "chip": "ym2612"
    },
    {
      "channel": 3,
      "note": 90,
      "start": 51.0112,
      "duration": 0.1438,
      "velocity": 100,
      "chip": "ym2612"
    },
    {
      "channel": 2,
      "note": 86,
      "start": 51.1839,
      "duration": 0.1437,
      "velocity": 100,
      "chip": "ym2612"
    },
    {
      "channel": 3,
      "note": 91,
      "start": 51.1845,
      "duration": 0.1434,
      "velocity": 100,
      "chip": "ym2612"
    },
    {
      "channel": 2,
      "note": 85,
      "start": 51.3567,
      "duration": 0.1441,
      "velocity": 100,
      "chip": "ym2612"
    },
    {
      "channel": 3,
      "note": 90,
      "start": 51.3573,
      "duration": 0.1437,
      "velocity": 100,
      "chip": "ym2612"
    },
    {
      "channel": 0,
      "note": 66,
      "start": 51.5292,
      "duration": 0.0308,
      "velocity": 92,
      "chip": "ym2612"
    },
    {
      "channel": 1,
      "note": 70,
      "start": 51.5298,
      "duration": 0.0306,
      "velocity": 100,
      "chip": "ym2612"
    },
    {
      "channel": 2,
      "note": 83,
      "start": 51.5303,
      "duration": 0.0142,
      "velocity": 100,
      "chip": "ym2612"
    },
    {
      "channel": 3,
      "note": 88,
      "start": 51.5309,
      "duration": 0.0139,
      "velocity": 100,
      "chip": "ym2612"
    },
    {
      "channel": 2,
      "note": 82,
      "start": 51.5477,
      "duration": 0.0129,
      "velocity": 100,
      "chip": "ym2612"
    },
    {
      "channel": 3,
      "note": 86,
      "start": 51.5483,
      "duration": 0.0126,
      "velocity": 100,
      "chip": "ym2612"
    },
    {
      "channel": 2,
      "note": 83,
      "start": 51.5646,
      "duration": 0.1433,
      "velocity": 100,
      "chip": "ym2612"
    },
    {
      "channel": 3,
      "note": 85,
      "start": 51.5652,
      "duration": 0.143,
      "velocity": 100,
      "chip": "ym2612"
    },
    {
      "channel": 4,
      "note": 69,
      "start": 51.5659,
      "duration": 0.3162,
      "velocity": 100,
      "chip": "ym2612"
    },
    {
      "channel": 2,
      "note": 78,
      "start": 51.737,
      "duration": 0.1441,
      "velocity": 100,
      "chip": "ym2612"
    },
    {
      "channel": 3,
      "note": 83,
      "start": 51.7376,
      "duration": 0.1441,
      "velocity": 100,
      "chip": "ym2612"
    },
    {
      "channel": 2,
      "note": 79,
      "start": 51.91,
      "duration": 0.1439,
      "velocity": 100,
      "chip": "ym2612"
    },
    {
      "channel": 3,
      "note": 82,
      "start": 51.9107,
      "duration": 0.1436,
      "velocity": 100,
      "chip": "ym2612"
    },
    {
      "channel": 2,
      "note": 76,
      "start": 52.0829,
      "duration": 0.1441,
      "velocity": 100,
      "chip": "ym2612"
    },
    {
      "channel": 3,
      "note": 83,
      "start": 52.0836,
      "duration": 0.1437,
      "velocity": 100,
      "chip": "ym2612"
    },
    {
      "channel": 2,
      "note": 78,
      "start": 52.2561,
      "duration": 0.1438,
      "velocity": 100,
      "chip": "ym2612"
    },
    {
      "channel": 3,
      "note": 78,
      "start": 52.2568,
      "duration": 0.1435,
      "velocity": 100,
      "chip": "ym2612"
    },
    {
      "channel": 2,
      "note": 74,
      "start": 52.429,
      "duration": 0.144,
      "velocity": 100,
      "chip": "ym2612"
    },
    {
      "channel": 3,
      "note": 79,
      "start": 52.4297,
      "duration": 0.1437,
      "velocity": 100,
      "chip": "ym2612"
    },
    {
      "channel": 2,
      "note": 76,
      "start": 52.6022,
      "duration": 0.1438,
      "velocity": 100,
      "chip": "ym2612"
    },
    {
      "channel": 3,
      "note": 76,
      "start": 52.6028,
      "duration": 0.1435,
      "velocity": 100,
      "chip": "ym2612"
    },
    {
      "channel": 2,
      "note": 73,
      "start": 52.7751,
      "duration": 0.1441,
      "velocity": 100,
      "chip": "ym2612"
    },
    {
      "channel": 3,
      "note": 78,
      "start": 52.7757,
      "duration": 0.1438,
      "velocity": 100,
      "chip": "ym2612"
    },
    {
      "channel": 0,
      "note": 54,
      "start": 52.9476,
      "duration": 10.7517,
      "velocity": 92,
      "chip": "ym2612"
    },
    {
      "channel": 1,
      "note": 54,
      "start": 52.9481,
      "duration": 2.0469,
      "velocity": 100,
      "chip": "ym2612"
    },
    {
      "channel": 2,
      "note": 66,
      "start": 52.9488,
      "duration": 10.7505,
      "velocity": 100,
      "chip": "ym2612"
    },
    {
      "channel": 3,
      "note": 74,
      "start": 52.9497,
      "duration": 0.1426,
      "velocity": 100,
      "chip": "ym2612"
    },
    {
      "channel": 3,
      "note": 76,
      "start": 53.1214,
      "duration": 0.1439,
      "velocity": 100,
      "chip": "ym2612"
    },
    {
      "channel": 3,
      "note": 73,
      "start": 53.2944,
      "duration": 10.4049,
      "velocity": 100,
      "chip": "ym2612"
    },
    {
      "channel": 4,
      "note": 70,
      "start": 53.2951,
      "duration": 2.047,
      "velocity": 100,
      "chip": "ym2612"
    }
  ]
}