{
  "track_name": "29 - Dancing on the Road",
  "duration_sec": 26.009,
  "sample_rate": 44100,
  "note_count": 390,
  "unique_pitches": 17,
  "pitch_range": 56,
  "avg_note_duration": 0.2166,
  "reconstruction_stats": {
    "notes_reconstructed": 390,
    "keyon_events": 390,
    "keyoff_events": 388,
    "orphan_keyons": 2,
    "unique_pitches": 17,
    "pitch_range": 56,
    "avg_duration_sec": 0.2166
  },
  "metadata": {
    "source": "Y\\Ys III - Wanderers From Ys (MD)\\29 - Dancing on the Road.vgz"
  },
  "notes": [
    {
      "channel": 0,
      "note": 52,
      "start": 0.0615,
      "duration": 0.2445,
      "velocity": 94,
      "chip": "ym2612"
    },
    {
      "channel": 1,
      "note": 76,
      "start": 0.0656,
      "duration": 0.2407,
      "velocity": 96,
      "chip": "ym2612"
    },
    {
      "channel": 3,
      "note": 93,
      "start": 0.0756,
      "duration": 0.116,
      "velocity": 94,
      "chip": "ym2612"
    },
    {
      "channel": 2,
      "note": 76,
      "start": 0.1911,
      "duration": 0.2478,
      "velocity": 96,
      "chip": "ym2612"
    },
    {
      "channel": 3,
      "note": 37,
      "start": 0.1918,
      "duration": 0.132,
      "velocity": 94,
      "chip": "ym2612"
    },
    {
      "channel": 1,
      "note": 80,
      "start": 0.3231,
      "duration": 0.248,
      "velocity": 96,
      "chip": "ym2612"
    },
    {
      "channel": 3,
      "note": 37,
      "start": 0.3264,
      "duration": 0.2624,
      "velocity": 94,
      "chip": "ym2612"
    },
    {
      "channel": 2,
      "note": 80,
      "start": 0.4556,
      "duration": 0.2482,
      "velocity": 96,
      "chip": "ym2612"
    },
    {
      "channel": 0,
      "note": 47,
      "start": 0.5876,
      "duration": 0.2487,
      "velocity": 94,
      "chip": "ym2612"
    },
    {
      "channel": 1,
      "note": 78,
      "start": 0.5882,
      "duration": 0.2485,
      "velocity": 96,
      "chip": "ym2612"
    },
    {
      "channel": 2,
      "note": 78,
      "start": 0.7205,
      "duration": 0.248,
      "velocity": 96,
      "chip": "ym2612"
    },
    {
      "channel": 1,
      "note": 80,
      "start": 0.8535,
      "duration": 0.2472,
      "velocity": 96,
      "chip": "ym2612"
    },
    {
      "channel": 3,
      "note": 37,
      "start": 0.8568,
      "duration": 0.2616,
      "velocity": 94,
      "chip": "ym2612"
    },
    {
      "channel": 2,
      "note": 80,
      "start": 0.9853,
      "duration": 0.2481,
      "velocity": 96,
      "chip": "ym2612"
    },
    {
      "channel": 0,
      "note": 45,
      "start": 1.1173,
      "duration": 0.2481,
      "velocity": 94,
      "chip": "ym2612"
    },
    {
      "channel": 1,
      "note": 81,
      "start": 1.1178,
      "duration": 0.2478,
      "velocity": 96,
      "chip": "ym2612"
    },
    {
      "channel": 3,
      "note": 37,
      "start": 1.1191,
      "duration": 0.1314,
      "velocity": 94,
      "chip": "ym2612"
    },
    {
      "channel": 2,
      "note": 81,
      "start": 1.2502,
      "duration": 0.2481,
      "velocity": 96,
      "chip": "ym2612"
    },
    {
      "channel": 3,
      "note": 37,
      "start": 1.2509,
      "duration": 0.1322,
      "velocity": 94,
      "chip": "ym2612"
    },
    {
      "channel": 1,
      "note": 80,
      "start": 1.3825,
      "duration": 0.0824,
      "velocity": 96,
      "chip": "ym2612"
    },
    {
      "channel": 3,
      "note": 37,
      "start": 1.3865,
      "duration": 0.1289,
      "velocity": 94,
      "chip": "ym2612"
    },
    {
      "channel": 1,
      "note": 81,
      "start": 1.4817,
      "duration": 0.066,
      "velocity": 96,
      "chip": "ym2612"
    },
    {
      "channel": 2,
      "note": 80,
      "start": 1.515,
      "duration": 0.0826,
      "velocity": 96,
      "chip": "ym2612"
    },
    {
      "channel": 3,
      "note": 37,
      "start": 1.518,
      "duration": 0.13,
      "velocity": 94,
      "chip": "ym2612"
    },
    {
      "channel": 1,
      "note": 80,
      "start": 1.5644,
      "duration": 0.066,
      "velocity": 96,
      "chip": "ym2612"
    },
    {
      "channel": 2,
      "note": 81,
      "start": 1.6144,
      "duration": 0.066,
      "velocity": 96,
      "chip": "ym2612"
    },
    {
      "channel": 0,
      "note": 40,
      "start": 1.6469,
      "duration": 0.2481,
      "velocity": 94,
      "chip": "ym2612"
    },
    {
      "channel": 1,
      "note": 78,
      "start": 1.6475,
      "duration": 0.2478,
      "velocity": 96,
      "chip": "ym2612"
    },
    {
      "channel": 2,
      "note": 80,
      "start": 1.6971,
      "duration": 0.066,
      "velocity": 96,
      "chip": "ym2612"
    },
    {
      "channel": 2,
      "note": 78,
      "start": 1.7798,
      "duration": 0.2481,
      "velocity": 96,
      "chip": "ym2612"
    },
    {
      "channel": 1,
      "note": 76,
      "start": 1.9121,
      "duration": 0.248,
      "velocity": 96,
      "chip": "ym2612"
    },
    {
      "channel": 3,
      "note": 37,
      "start": 1.9131,
      "duration": 0.2649,
      "velocity": 94,
      "chip": "ym2612"
    },
    {
      "channel": 2,
      "note": 76,
      "start": 2.0446,
      "duration": 0.2481,
      "velocity": 96,
      "chip": "ym2612"
    },
    {
      "channel": 0,
      "note": 47,
      "start": 2.1768,
      "duration": 0.248,
      "velocity": 94,
      "chip": "ym2612"
    },
    {
      "channel": 1,
      "note": 75,
      "start": 2.1775,
      "duration": 0.2475,
      "velocity": 96,
      "chip": "ym2612"
    },
    {
      "channel": 3,
      "note": 37,
      "start": 2.1784,
      "duration": 0.1317,
      "velocity": 94,
      "chip": "ym2612"
    },
    {
      "channel": 2,
      "note": 75,
      "start": 2.3097,
      "duration": 0.248,
      "velocity": 96,
      "chip": "ym2612"
    },
    {
      "channel": 3,
      "note": 37,
      "start": 2.3104,
      "duration": 0.1321,
      "velocity": 94,
      "chip": "ym2612"
    },
    {
      "channel": 1,
      "note": 75,
      "start": 2.4418,
      "duration": 0.1156,
      "velocity": 96,
      "chip": "ym2612"
    },
    {
      "channel": 3,
      "note": 37,
      "start": 2.4451,
      "duration": 0.2627,
      "velocity": 94,
      "chip": "ym2612"
    },
    {
      "channel": 1,
      "note": 76,
      "start": 2.5741,
      "duration": 0.1157,
      "velocity": 96,
      "chip": "ym2612"
    },
    {
      "channel": 2,
      "note": 75,
      "start": 2.5747,
      "duration": 0.1155,
      "velocity": 96,
      "chip": "ym2612"
    },
    {
      "channel": 0,
      "note": 42,
      "start": 2.7063,
      "duration": 0.2481,
      "velocity": 94,
      "chip": "ym2612"
    },
    {
      "channel": 1,
      "note": 78,
      "start": 2.7069,
      "duration": 0.2478,
      "velocity": 96,
      "chip": "ym2612"
    },
    {
      "channel": 2,
      "note": 76,
      "start": 2.7074,
      "duration": 0.1151,
      "velocity": 96,
      "chip": "ym2612"
    },
    {
      "channel": 2,
      "note": 78,
      "start": 2.8392,
      "duration": 0.2481,
      "velocity": 96,
      "chip": "ym2612"
    },
    {
      "channel": 1,
      "note": 76,
      "start": 2.9715,
      "duration": 0.1155,
      "velocity": 96,
      "chip": "ym2612"
    },
    {
      "channel": 3,
      "note": 37,
      "start": 2.9748,
      "duration": 0.2632,
      "velocity": 94,
      "chip": "ym2612"
    },
    {
      "channel": 1,
      "note": 75,
      "start": 3.1039,
      "duration": 0.1162,
      "velocity": 96,
      "chip": "ym2612"
    },
    {
      "channel": 2,
      "note": 76,
      "start": 3.1044,
      "duration": 0.1159,
      "velocity": 96,
      "chip": "ym2612"
    },
    {
      "channel": 0,
      "note": 52,
      "start": 3.2366,
      "duration": 0.2476,
      "velocity": 94,
      "chip": "ym2612"
    },
    {
      "channel": 1,
      "note": 76,
      "start": 3.2371,
      "duration": 0.2473,
      "velocity": 96,
      "chip": "ym2612"
    },
    {
      "channel": 2,
      "note": 75,
      "start": 3.2376,
      "duration": 0.1149,
      "velocity": 96,
      "chip": "ym2612"
    },
    {
      "channel": 3,
      "note": 37,
      "start": 3.2383,
      "duration": 0.1316,
      "velocity": 94,
      "chip": "ym2612"
    },
    {
      "channel": 2,
      "note": 76,
      "start": 3.3696,
      "duration": 0.2475,
      "velocity": 96,
      "chip": "ym2612"
    },
    {
      "channel": 3,
      "note": 37,
      "start": 3.3703,
      "duration": 0.1317,
      "velocity": 94,
      "chip": "ym2612"
    },
    {
      "channel": 0,
      "note": 47,
      "start": 3.5008,
      "duration": 0.2481,
      "velocity": 94,
      "chip": "ym2612"
    },
    {
      "channel": 1,
      "note": 75,
      "start": 3.5014,
      "duration": 0.1154,
      "velocity": 96,
      "chip": "ym2612"
    },
    {
      "channel": 3,
      "note": 37,
      "start": 3.5053,
      "duration": 0.1291,
      "velocity": 94,
      "chip": "ym2612"
    },
    {
      "channel": 1,
      "note": 73,
      "start": 3.6335,
      "duration": 0.1157,
      "velocity": 96,
      "chip": "ym2612"
    },
    {
      "channel": 2,
      "note": 75,
      "start": 3.634,
      "duration": 0.1155,
      "velocity": 96,
      "chip": "ym2612"
    },
    {
      "channel": 3,
      "note": 37,
      "start": 3.6378,
      "duration": 0.1294,
      "velocity": 94,
      "chip": "ym2612"
    },
    {
      "channel": 0,
      "note": 49,
      "start": 3.7657,
      "duration": 0.2481,
      "velocity": 94,
      "chip": "ym2612"
    },
    {
      "channel": 1,
      "note": 71,
      "start": 3.7663,
      "duration": 0.5127,
      "velocity": 96,
      "chip": "ym2612"
    },
    {
      "channel": 2,
      "note": 73,
      "start": 3.7668,
      "duration": 0.1151,
      "velocity": 96,
      "chip": "ym2612"
    },
    {
      "channel": 2,
      "note": 71,
      "start": 3.8985,
      "duration": 0.513,
      "velocity": 96,
      "chip": "ym2612"
    },
    {
      "channel": 3,
      "note": 37,
      "start": 3.8992,
      "duration": 0.1321,
      "velocity": 94,
      "chip": "ym2612"
    },
    {
      "channel": 0,
      "note": 51,
      "start": 4.0305,
      "duration": 0.2481,
      "velocity": 94,
      "chip": "ym2612"
    },
    {
      "channel": 3,
      "note": 37,
      "start": 4.0317,
      "duration": 0.1319,
      "velocity": 94,
      "chip": "ym2612"
    },
    {
      "channel": 3,
      "note": 37,
      "start": 4.1639,
      "duration": 0.1403,
      "velocity": 94,
      "chip": "ym2612"
    },
    {
      "channel": 0,
      "note": 52,
      "start": 4.2988,
      "duration": 0.2446,
      "velocity": 94,
      "chip": "ym2612"
    },
    {
      "channel": 1,
      "note": 76,
      "start": 4.3035,
      "duration": 0.2402,
      "velocity": 96,
      "chip": "ym2612"
    },
    {
      "channel": 2,
      "note": 76,
      "start": 4.4284,
      "duration": 0.248,
      "velocity": 96,
      "chip": "ym2612"
    },
    {
      "channel": 1,
      "note": 80,
      "start": 4.5605,
      "duration": 0.248,
      "velocity": 96,
      "chip": "ym2612"
    },
    {
      "channel": 3,
      "note": 37,
      "start": 4.5615,
      "duration": 0.2647,
      "velocity": 94,
      "chip": "ym2612"
    },
    {
      "channel": 2,
      "note": 80,
      "start": 4.6931,
      "duration": 0.2481,
      "velocity": 96,
      "chip": "ym2612"
    },
    {
      "channel": 0,
      "note": 47,
      "start": 4.8251,
      "duration": 0.2481,
      "velocity": 94,
      "chip": "ym2612"
    },
    {
      "channel": 1,
      "note": 78,
      "start": 4.8256,
      "duration": 0.2478,
      "velocity": 96,
      "chip": "ym2612"
    },
    {
      "channel": 2,
      "note": 78,
      "start": 4.9579,
      "duration": 0.2481,
      "velocity": 96,
      "chip": "ym2612"
    },
    {
      "channel": 1,
      "note": 80,
      "start": 5.0902,
      "duration": 0.248,
      "velocity": 96,
      "chip": "ym2612"
    },
    {
      "channel": 3,
      "note": 37,
      "start": 5.0912,
      "duration": 0.2647,
      "velocity": 94,
      "chip": "ym2612"
    },
    {
      "channel": 2,
      "note": 80,
      "start": 5.2228,
      "duration": 0.2481,
      "velocity": 96,
      "chip": "ym2612"
    },
    {
      "channel": 0,
      "note": 45,
      "start": 5.3548,
      "duration": 0.2483,
      "velocity": 94,
      "chip": "ym2612"
    },
    {
      "channel": 1,
      "note": 81,
      "start": 5.3553,
      "duration": 0.2482,
      "velocity": 96,
      "chip": "ym2612"
    },
    {
      "channel": 2,
      "note": 81,
      "start": 5.4876,
      "duration": 0.2488,
      "velocity": 96,
      "chip": "ym2612"
    },
    {
      "channel": 1,
      "note": 80,
      "start": 5.6203,
      "duration": 0.0827,
      "velocity": 96,
      "chip": "ym2612"
    },
    {
      "channel": 3,
      "note": 37,
      "start": 5.6212,
      "duration": 0.1323,
      "velocity": 94,
      "chip": "ym2612"
    },
    {
      "channel": 1,
      "note": 81,
      "start": 5.7198,
      "duration": 0.0653,
      "velocity": 96,
      "chip": "ym2612"
    },
    {
      "channel": 2,
      "note": 80,
      "start": 5.7532,
      "duration": 0.0819,
      "velocity": 96,
      "chip": "ym2612"
    },
    {
      "channel": 3,
      "note": 37,
      "start": 5.7539,
      "duration": 0.1324,
      "velocity": 94,
      "chip": "ym2612"
    },
    {
      "channel": 1,
      "note": 80,
      "start": 5.8018,
      "duration": 0.0661,
      "velocity": 96,
      "chip": "ym2612"
    },
    {
      "channel": 2,
      "note": 81,
      "start": 5.8518,
      "duration": 0.066,
      "velocity": 96,
      "chip": "ym2612"
    },
    {
      "channel": 0,
      "note": 40,
      "start": 5.8844,
      "duration": 0.2482,
      "velocity": 94,
      "chip": "ym2612"
    },
    {
      "channel": 1,
      "note": 78,
      "start": 5.8849,
      "duration": 0.2479,
      "velocity": 96,
      "chip": "ym2612"
    },
    {
      "channel": 2,
      "note": 80,
      "start": 5.9345,
      "duration": 0.066,
      "velocity": 96,
      "chip": "ym2612"
    },
    {
      "channel": 2,
      "note": 78,
      "start": 6.0173,
      "duration": 0.2481,
      "velocity": 96,
      "chip": "ym2612"
    },
    {
      "channel": 1,
      "note": 76,
      "start": 6.1496,
      "duration": 0.248,
      "velocity": 96,
      "chip": "ym2612"
    },
    {
      "channel": 3,
      "note": 37,
      "start": 6.1505,
      "duration": 0.2658,
      "velocity": 94,
      "chip": "ym2612"
    },
    {
      "channel": 2,
      "note": 76,
      "start": 6.2821,
      "duration": 0.2481,
      "velocity": 96,
      "chip": "ym2612"
    },
    {
      "channel": 0,
      "note": 47,
      "start": 6.4146,
      "duration": 0.2476,
      "velocity": 94,
      "chip": "ym2612"
    },
    {
      "channel": 1,
      "note": 75,
      "start": 6.4157,
      "duration": 0.2468,
      "velocity": 96,
      "chip": "ym2612"
    },
    {
      "channel": 3,
      "note": 37,
      "start": 6.4166,
      "duration": 0.1312,
      "velocity": 94,
      "chip": "ym2612"
    },
    {
      "channel": 2,
      "note": 75,
      "start": 6.5475,
      "duration": 0.2476,
      "velocity": 96,
      "chip": "ym2612"
    },
    {
      "channel": 3,
      "note": 37,
      "start": 6.5482,
      "duration": 0.1319,
      "velocity": 94,
      "chip": "ym2612"
    },
    {
      "channel": 0,
      "note": 47,
      "start": 6.6789,
      "duration": 0.1156,
      "velocity": 94,
      "chip": "ym2612"
    },
    {
      "channel": 1,
      "note": 75,
      "start": 6.6795,
      "duration": 0.1153,
      "velocity": 96,
      "chip": "ym2612"
    },
    {
      "channel": 3,
      "note": 37,
      "start": 6.6804,
      "duration": 0.1324,
      "velocity": 94,
      "chip": "ym2612"
    },
    {
      "channel": 0,
      "note": 49,
      "start": 6.8114,
      "duration": 0.1157,
      "velocity": 94,
      "chip": "ym2612"
    },
    {
      "channel": 1,
      "note": 76,
      "start": 6.8119,
      "duration": 0.1154,
      "velocity": 96,
      "chip": "ym2612"
    },
    {
      "channel": 2,
      "note": 75,
      "start": 6.8124,
      "duration": 0.1151,
      "velocity": 96,
      "chip": "ym2612"
    },
    {
      "channel": 3,
      "note": 37,
      "start": 6.8132,
      "duration": 0.1321,
      "velocity": 94,
      "chip": "ym2612"
    },
    {
      "channel": 0,
      "note": 51,
      "start": 6.9438,
      "duration": 0.2481,
      "velocity": 94,
      "chip": "ym2612"
    },
    {
      "channel": 1,
      "note": 78,
      "start": 6.9443,
      "duration": 0.2478,
      "velocity": 96,
      "chip": "ym2612"
    },
    {
      "channel": 2,
      "note": 76,
      "start": 6.9449,
      "duration": 0.115,
      "velocity": 96,
      "chip": "ym2612"
    },
    {
      "channel": 2,
      "note": 78,
      "start": 7.0766,
      "duration": 0.2481,
      "velocity": 96,
      "chip": "ym2612"
    },
    {
      "channel": 3,
      "note": 37,
      "start": 7.0773,
      "duration": 0.1324,
      "velocity": 94,
      "chip": "ym2612"
    },
    {
      "channel": 0,
      "note": 49,
      "start": 7.2086,
      "duration": 0.1156,
      "velocity": 94,
      "chip": "ym2612"
    },
    {
      "channel": 1,
      "note": 76,
      "start": 7.2092,
      "duration": 0.1153,
      "velocity": 96,
      "chip": "ym2612"
    },
    {
      "channel": 0,
      "note": 47,
      "start": 7.3411,
      "duration": 0.1156,
      "velocity": 94,
      "chip": "ym2612"
    },
    {
      "channel": 1,
      "note": 75,
      "start": 7.3416,
      "duration": 0.1154,
      "velocity": 96,
      "chip": "ym2612"
    },
    {
      "channel": 2,
      "note": 76,
      "start": 7.3422,
      "duration": 0.1151,
      "velocity": 96,
      "chip": "ym2612"
    },
    {
      "channel": 3,
      "note": 37,
      "start": 7.3429,
      "duration": 0.1321,
      "velocity": 94,
      "chip": "ym2612"
    },
    {
      "channel": 0,
      "note": 52,
      "start": 7.4735,
      "duration": 0.2481,
      "velocity": 94,
      "chip": "ym2612"
    },
    {
      "channel": 1,
      "note": 76,
      "start": 7.474,
      "duration": 0.2478,
      "velocity": 96,
      "chip": "ym2612"
    },
    {
      "channel": 2,
      "note": 75,
      "start": 7.4745,
      "duration": 0.1151,
      "velocity": 96,
      "chip": "ym2612"
    },
    {
      "channel": 3,
      "note": 37,
      "start": 7.4752,
      "duration": 0.2642,
      "velocity": 94,
      "chip": "ym2612"
    },
    {
      "channel": 2,
      "note": 76,
      "start": 7.6063,
      "duration": 0.2482,
      "velocity": 96,
      "chip": "ym2612"
    },
    {
      "channel": 0,
      "note": 52,
      "start": 7.7383,
      "duration": 0.2482,
      "velocity": 94,
      "chip": "ym2612"
    },
    {
      "channel": 1,
      "note": 76,
      "start": 7.7388,
      "duration": 0.2479,
      "velocity": 96,
      "chip": "ym2612"
    },
    {
      "channel": 3,
      "note": 37,
      "start": 7.7398,
      "duration": 0.2649,
      "velocity": 94,
      "chip": "ym2612"
    },
    {
      "channel": 2,
      "note": 76,
      "start": 7.8711,
      "duration": 0.2488,
      "velocity": 96,
      "chip": "ym2612"
    },
    {
      "channel": 0,
      "note": 52,
      "start": 8.0035,
      "duration": 0.2477,
      "velocity": 94,
      "chip": "ym2612"
    },
    {
      "channel": 1,
      "note": 76,
      "start": 8.004,
      "duration": 0.2475,
      "velocity": 96,
      "chip": "ym2612"
    },
    {
      "channel": 3,
      "note": 37,
      "start": 8.0049,
      "duration": 0.0655,
      "velocity": 94,
      "chip": "ym2612"
    },
    {
      "channel": 3,
      "note": 37,
      "start": 8.0707,
      "duration": 0.0665,
      "velocity": 94,
      "chip": "ym2612"
    },
    {
      "channel": 2,
      "note": 76,
      "start": 8.1368,
      "duration": 0.2473,
      "velocity": 96,
      "chip": "ym2612"
    },
    {
      "channel": 3,
      "note": 37,
      "start": 8.1375,
      "duration": 0.0655,
      "velocity": 94,
      "chip": "ym2612"
    },
    {
      "channel": 3,
      "note": 37,
      "start": 8.2034,
      "duration": 0.0658,
      "velocity": 94,
      "chip": "ym2612"
    },
    {
      "channel": 0,
      "note": 45,
      "start": 8.5331,
      "duration": 0.2478,
      "velocity": 94,
      "chip": "ym2612"
    },
    {
      "channel": 1,
      "note": 81,
      "start": 8.5337,
      "duration": 0.2475,
      "velocity": 96,
      "chip": "ym2612"
    },
    {
      "channel": 3,
      "note": 37,
      "start": 8.5378,
      "duration": 0.2608,
      "velocity": 94,
      "chip": "ym2612"
    },
    {
      "channel": 2,
      "note": 81,
      "start": 8.6658,
      "duration": 0.248,
      "velocity": 96,
      "chip": "ym2612"
    },
    {
      "channel": 1,
      "note": 81,
      "start": 8.798,
      "duration": 0.248,
      "velocity": 96,
      "chip": "ym2612"
    },
    {
      "channel": 3,
      "note": 37,
      "start": 8.8012,
      "duration": 0.1297,
      "velocity": 94,
      "chip": "ym2612"
    },
    {
      "channel": 2,
      "note": 81,
      "start": 8.9305,
      "duration": 0.2481,
      "velocity": 96,
      "chip": "ym2612"
    },
    {
      "channel": 3,
      "note": 37,
      "start": 8.9312,
      "duration": 0.1324,
      "velocity": 94,
      "chip": "ym2612"
    },
    {
      "channel": 0,
      "note": 40,
      "start": 9.0625,
      "duration": 0.2481,
      "velocity": 94,
      "chip": "ym2612"
    },
    {
      "channel": 1,
      "note": 81,
      "start": 9.063,
      "duration": 0.2478,
      "velocity": 96,
      "chip": "ym2612"
    },
    {
      "channel": 3,
      "note": 37,
      "start": 9.0663,
      "duration": 0.262,
      "velocity": 94,
      "chip": "ym2612"
    },
    {
      "channel": 2,
      "note": 81,
      "start": 9.1954,
      "duration": 0.248,
      "velocity": 96,
      "chip": "ym2612"
    },
    {
      "channel": 1,
      "note": 81,
      "start": 9.3277,
      "duration": 0.0824,
      "velocity": 96,
      "chip": "ym2612"
    },
    {
      "channel": 3,
      "note": 37,
      "start": 9.3309,
      "duration": 0.1297,
      "velocity": 94,
      "chip": "ym2612"
    },
    {
      "channel": 1,
      "note": 83,
      "start": 9.4268,
      "duration": 0.0661,
      "velocity": 96,
      "chip": "ym2612"
    },
    {
      "channel": 2,
      "note": 81,
      "start": 9.4602,
      "duration": 0.0826,
      "velocity": 96,
      "chip": "ym2612"
    },
    {
      "channel": 3,
      "note": 37,
      "start": 9.4609,
      "duration": 0.1324,
      "velocity": 94,
      "chip": "ym2612"
    },
    {
      "channel": 1,
      "note": 81,
      "start": 9.5096,
      "duration": 0.0661,
      "velocity": 96,
      "chip": "ym2612"
    },
    {
      "channel": 2,
      "note": 83,
      "start": 9.5595,
      "duration": 0.066,
      "velocity": 96,
      "chip": "ym2612"
    },
    {
      "channel": 0,
      "note": 52,
      "start": 9.5922,
      "duration": 0.2481,
      "velocity": 94,
      "chip": "ym2612"
    },
    {
      "channel": 1,
      "note": 80,
      "start": 9.5927,
      "duration": 0.2478,
      "velocity": 96,
      "chip": "ym2612"
    },
    {
      "channel": 3,
      "note": 37,
      "start": 9.596,
      "duration": 0.262,
      "velocity": 94,
      "chip": "ym2612"
    },
    {
      "channel": 2,
      "note": 81,
      "start": 9.6423,
      "duration": 0.066,
      "velocity": 96,
      "chip": "ym2612"
    },
    {
      "channel": 2,
      "note": 80,
      "start": 9.7251,
      "duration": 0.2481,
      "velocity": 96,
      "chip": "ym2612"
    },
    {
      "channel": 1,
      "note": 78,
      "start": 9.8574,
      "duration": 0.248,
      "velocity": 96,
      "chip": "ym2612"
    },
    {
      "channel": 3,
      "note": 37,
      "start": 9.8606,
      "duration": 0.1296,
      "velocity": 94,
      "chip": "ym2612"
    },
    {
      "channel": 2,
      "note": 78,
      "start": 9.9899,
      "duration": 0.2481,
      "velocity": 96,
      "chip": "ym2612"
    },
    {
      "channel": 3,
      "note": 37,
      "start": 9.9906,
      "duration": 0.1324,
      "velocity": 94,
      "chip": "ym2612"
    },
    {
      "channel": 0,
      "note": 47,
      "start": 10.1219,
      "duration": 0.2481,
      "velocity": 94,
      "chip": "ym2612"
    },
    {
      "channel": 1,
      "note": 76,
      "start": 10.1224,
      "duration": 0.5126,
      "velocity": 96,
      "chip": "ym2612"
    },
    {
      "channel": 2,
      "note": 76,
      "start": 10.2548,
      "duration": 0.5129,
      "velocity": 96,
      "chip": "ym2612"
    },
    {
      "channel": 3,
      "note": 37,
      "start": 10.2555,
      "duration": 0.1319,
      "velocity": 94,
      "chip": "ym2612"
    },
    {
      "channel": 3,
      "note": 37,
      "start": 10.5207,
      "duration": 0.1328,
      "velocity": 94,
      "chip": "ym2612"
    },
    {
      "channel": 0,
      "note": 47,
      "start": 10.6516,
      "duration": 0.248,
      "velocity": 94,
      "chip": "ym2612"
    },
    {
      "channel": 1,
      "note": 78,
      "start": 10.6529,
      "duration": 0.247,
      "velocity": 96,
      "chip": "ym2612"
    },
    {
      "channel": 3,
      "note": 37,
      "start": 10.6562,
      "duration": 0.2611,
      "velocity": 94,
      "chip": "ym2612"
    },
    {
      "channel": 2,
      "note": 78,
      "start": 10.7844,
      "duration": 0.2481,
      "velocity": 96,
      "chip": "ym2612"
    },
    {
      "channel": 1,
      "note": 78,
      "start": 10.9167,
      "duration": 0.248,
      "velocity": 96,
      "chip": "ym2612"
    },
    {
      "channel": 3,
      "note": 37,
      "start": 10.9207,
      "duration": 0.1289,
      "velocity": 94,
      "chip": "ym2612"
    },
    {
      "channel": 2,
      "note": 78,
      "start": 11.0492,
      "duration": 0.2481,
      "velocity": 96,
      "chip": "ym2612"
    },
    {
      "channel": 3,
      "note": 37,
      "start": 11.0499,
      "duration": 0.1324,
      "velocity": 94,
      "chip": "ym2612"
    },
    {
      "channel": 0,
      "note": 42,
      "start": 11.1812,
      "duration": 0.2481,
      "velocity": 94,
      "chip": "ym2612"
    },
    {
      "channel": 1,
      "note": 76,
      "start": 11.1818,
      "duration": 0.2478,
      "velocity": 96,
      "chip": "ym2612"
    },
    {
      "channel": 3,
      "note": 37,
      "start": 11.185,
      "duration": 0.262,
      "velocity": 94,
      "chip": "ym2612"
    },
    {
      "channel": 2,
      "note": 76,
      "start": 11.3141,
      "duration": 0.2481,
      "velocity": 96,
      "chip": "ym2612"
    },
    {
      "channel": 1,
      "note": 78,
      "start": 11.4464,
      "duration": 0.248,
      "velocity": 96,
      "chip": "ym2612"
    },
    {
      "channel": 3,
      "note": 37,
      "start": 11.4497,
      "duration": 0.1297,
      "velocity": 94,
      "chip": "ym2612"
    },
    {
      "channel": 2,
      "note": 78,
      "start": 11.5789,
      "duration": 0.2481,
      "velocity": 96,
      "chip": "ym2612"
    },
    {
      "channel": 3,
      "note": 37,
      "start": 11.5796,
      "duration": 0.1324,
      "velocity": 94,
      "chip": "ym2612"
    },
    {
      "channel": 0,
      "note": 52,
      "start": 11.7109,
      "duration": 0.248,
      "velocity": 94,
      "chip": "ym2612"
    },
    {
      "channel": 1,
      "note": 80,
      "start": 11.7114,
      "duration": 0.2478,
      "velocity": 96,
      "chip": "ym2612"
    },
    {
      "channel": 3,
      "note": 37,
      "start": 11.7147,
      "duration": 0.262,
      "velocity": 94,
      "chip": "ym2612"
    },
    {
      "channel": 2,
      "note": 80,
      "start": 11.8437,
      "duration": 0.2481,
      "velocity": 96,
      "chip": "ym2612"
    },
    {
      "channel": 1,
      "note": 76,
      "start": 11.9761,
      "duration": 0.248,
      "velocity": 96,
      "chip": "ym2612"
    },
    {
      "channel": 3,
      "note": 37,
      "start": 11.9793,
      "duration": 0.1297,
      "velocity": 94,
      "chip": "ym2612"
    },
    {
      "channel": 2,
      "note": 76,
      "start": 12.1086,
      "duration": 0.248,
      "velocity": 96,
      "chip": "ym2612"
    },
    {
      "channel": 3,
      "note": 37,
      "start": 12.1093,
      "duration": 0.1324,
      "velocity": 94,
      "chip": "ym2612"
    },
    {
      "channel": 0,
      "note": 47,
      "start": 12.2406,
      "duration": 0.248,
      "velocity": 94,
      "chip": "ym2612"
    },
    {
      "channel": 1,
      "note": 76,
      "start": 12.2411,
      "duration": 0.5126,
      "velocity": 96,
      "chip": "ym2612"
    },
    {
      "channel": 3,
      "note": 37,
      "start": 12.2421,
      "duration": 0.1317,
      "velocity": 94,
      "chip": "ym2612"
    },
    {
      "channel": 2,
      "note": 76,
      "start": 12.3735,
      "duration": 0.5134,
      "velocity": 96,
      "chip": "ym2612"
    },
    {
      "channel": 3,
      "note": 37,
      "start": 12.3741,
      "duration": 0.132,
      "velocity": 94,
      "chip": "ym2612"
    },
    {
      "channel": 3,
      "note": 37,
      "start": 12.5064,
      "duration": 0.132,
      "velocity": 94,
      "chip": "ym2612"
    },
    {
      "channel": 3,
      "note": 37,
      "start": 12.6387,
      "duration": 0.1329,
      "velocity": 94,
      "chip": "ym2612"
    },
    {
      "channel": 0,
      "note": 45,
      "start": 12.7704,
      "duration": 0.2479,
      "velocity": 94,
      "chip": "ym2612"
    },
    {
      "channel": 1,
      "note": 81,
      "start": 12.771,
      "duration": 0.2476,
      "velocity": 96,
      "chip": "ym2612"
    },
    {
      "channel": 3,
      "note": 37,
      "start": 12.7744,
      "duration": 0.2624,
      "velocity": 94,
      "chip": "ym2612"
    },
    {
      "channel": 2,
      "note": 81,
      "start": 12.9037,
      "duration": 0.2475,
      "velocity": 96,
      "chip": "ym2612"
    },
    {
      "channel": 1,
      "note": 81,
      "start": 13.0359,
      "duration": 0.2476,
      "velocity": 96,
      "chip": "ym2612"
    },
    {
      "channel": 3,
      "note": 37,
      "start": 13.0394,
      "duration": 0.1289,
      "velocity": 94,
      "chip": "ym2612"
    },
    {
      "channel": 2,
      "note": 81,
      "start": 13.1679,
      "duration": 0.2482,
      "velocity": 96,
      "chip": "ym2612"
    },
    {
      "channel": 3,
      "note": 37,
      "start": 13.1686,
      "duration": 0.1324,
      "velocity": 94,
      "chip": "ym2612"
    },
    {
      "channel": 0,
      "note": 40,
      "start": 13.2999,
      "duration": 0.2481,
      "velocity": 94,
      "chip": "ym2612"
    },
    {
      "channel": 1,
      "note": 81,
      "start": 13.3005,
      "duration": 0.2478,
      "velocity": 96,
      "chip": "ym2612"
    },
    {
      "channel": 3,
      "note": 37,
      "start": 13.3044,
      "duration": 0.2612,
      "velocity": 94,
      "chip": "ym2612"
    },
    {
      "channel": 2,
      "note": 81,
      "start": 13.4328,
      "duration": 0.2481,
      "velocity": 96,
      "chip": "ym2612"
    },
    {
      "channel": 1,
      "note": 81,
      "start": 13.5651,
      "duration": 0.0824,
      "velocity": 96,
      "chip": "ym2612"
    },
    {
      "channel": 3,
      "note": 37,
      "start": 13.5684,
      "duration": 0.1296,
      "velocity": 94,
      "chip": "ym2612"
    },
    {
      "channel": 1,
      "note": 83,
      "start": 13.6643,
      "duration": 0.066,
      "velocity": 96,
      "chip": "ym2612"
    },
    {
      "channel": 2,
      "note": 81,
      "start": 13.6976,
      "duration": 0.0826,
      "velocity": 96,
      "chip": "ym2612"
    },
    {
      "channel": 3,
      "note": 37,
      "start": 13.6983,
      "duration": 0.1324,
      "velocity": 94,
      "chip": "ym2612"
    },
    {
      "channel": 1,
      "note": 81,
      "start": 13.7471,
      "duration": 0.066,
      "velocity": 96,
      "chip": "ym2612"
    },
    {
      "channel": 2,
      "note": 83,
      "start": 13.7969,
      "duration": 0.066,
      "velocity": 96,
      "chip": "ym2612"
    },
    {
      "channel": 0,
      "note": 52,
      "start": 13.8296,
      "duration": 0.2481,
      "velocity": 94,
      "chip": "ym2612"
    },
    {
      "channel": 1,
      "note": 80,
      "start": 13.8301,
      "duration": 0.2478,
      "velocity": 96,
      "chip": "ym2612"
    },
    {
      "channel": 3,
      "note": 37,
      "start": 13.8334,
      "duration": 0.262,
      "velocity": 94,
      "chip": "ym2612"
    },
    {
      "channel": 2,
      "note": 81,
      "start": 13.8798,
      "duration": 0.066,
      "velocity": 96,
      "chip": "ym2612"
    },
    {
      "channel": 2,
      "note": 80,
      "start": 13.9625,
      "duration": 0.2481,
      "velocity": 96,
      "chip": "ym2612"
    },
    {
      "channel": 1,
      "note": 78,
      "start": 14.0948,
      "duration": 0.2481,
      "velocity": 96,
      "chip": "ym2612"
    },
    {
      "channel": 3,
      "note": 37,
      "start": 14.098,
      "duration": 0.1297,
      "velocity": 94,
      "chip": "ym2612"
    },
    {
      "channel": 2,
      "note": 78,
      "start": 14.2273,
      "duration": 0.2481,
      "velocity": 96,
      "chip": "ym2612"
    },
    {
      "channel": 3,
      "note": 37,
      "start": 14.228,
      "duration": 0.1324,
      "velocity": 94,
      "chip": "ym2612"
    },
    {
      "channel": 0,
      "note": 47,
      "start": 14.3593,
      "duration": 0.2481,
      "velocity": 94,
      "chip": "ym2612"
    },
    {
      "channel": 1,
      "note": 76,
      "start": 14.3598,
      "duration": 0.5127,
      "velocity": 96,
      "chip": "ym2612"
    },
    {
      "channel": 2,
      "note": 76,
      "start": 14.4922,
      "duration": 0.5129,
      "velocity": 96,
      "chip": "ym2612"
    },
    {
      "channel": 3,
      "note": 37,
      "start": 14.4929,
      "duration": 0.1319,
      "velocity": 94,
      "chip": "ym2612"
    },
    {
      "channel": 3,
      "note": 37,
      "start": 14.7574,
      "duration": 0.1333,
      "velocity": 94,
      "chip": "ym2612"
    },
    {
      "channel": 0,
      "note": 47,
      "start": 14.8895,
      "duration": 0.2476,
      "velocity": 94,
      "chip": "ym2612"
    },
    {
      "channel": 1,
      "note": 78,
      "start": 14.8901,
      "duration": 2.1011,
      "velocity": 96,
      "chip": "ym2612"
    },
    {
      "channel": 3,
      "note": 37,
      "start": 14.8934,
      "duration": 0.261,
      "velocity": 94,
      "chip": "ym2612"
    },
    {
      "channel": 2,
      "note": 78,
      "start": 15.022,
      "duration": 2.1018,
      "velocity": 96,
      "chip": "ym2612"
    },
    {
      "channel": 3,
      "note": 37,
      "start": 15.1571,
      "duration": 0.1301,
      "velocity": 94,
      "chip": "ym2612"
    },
    {
      "channel": 3,
      "note": 37,
      "start": 15.2875,
      "duration": 0.1328,
      "velocity": 94,
      "chip": "ym2612"
    },
    {
      "channel": 0,
      "note": 42,
      "start": 15.4186,
      "duration": 0.2481,
      "velocity": 94,
      "chip": "ym2612"
    },
    {
      "channel": 3,
      "note": 37,
      "start": 15.4229,
      "duration": 0.2613,
      "velocity": 94,
      "chip": "ym2612"
    },
    {
      "channel": 3,
      "note": 37,
      "start": 15.6876,
      "duration": 0.129,
      "velocity": 94,
      "chip": "ym2612"
    },
    {
      "channel": 3,
      "note": 37,
      "start": 15.8168,
      "duration": 0.1324,
      "velocity": 94,
      "chip": "ym2612"
    },
    {
      "channel": 0,
      "note": 47,
      "start": 15.9483,
      "duration": 0.2481,
      "velocity": 94,
      "chip": "ym2612"
    },
    {
      "channel": 3,
      "note": 37,
      "start": 15.9518,
      "duration": 0.2623,
      "velocity": 94,
      "chip": "ym2612"
    },
    {
      "channel": 0,
      "note": 47,
      "start": 16.2132,
      "duration": 0.2482,
      "velocity": 94,
      "chip": "ym2612"
    },
    {
      "channel": 3,
      "note": 37,
      "start": 16.2167,
      "duration": 0.1295,
      "velocity": 94,
      "chip": "ym2612"
    },
    {
      "channel": 3,
      "note": 37,
      "start": 16.3465,
      "duration": 0.1324,
      "velocity": 94,
      "chip": "ym2612"
    },
    {
      "channel": 0,
      "note": 49,
      "start": 16.478,
      "duration": 0.2481,
      "velocity": 94,
      "chip": "ym2612"
    },
    {
      "channel": 3,
      "note": 37,
      "start": 16.4793,
      "duration": 0.1318,
      "velocity": 94,
      "chip": "ym2612"
    },
    {
      "channel": 3,
      "note": 37,
      "start": 16.6114,
      "duration": 0.1324,
      "velocity": 94,
      "chip": "ym2612"
    },
    {
      "channel": 0,
      "note": 51,
      "start": 16.7429,
      "duration": 0.2481,
      "velocity": 94,
      "chip": "ym2612"
    },
    {
      "channel": 3,
      "note": 37,
      "start": 16.7441,
      "duration": 0.1317,
      "velocity": 94,
      "chip": "ym2612"
    },
    {
      "channel": 3,
      "note": 37,
      "start": 16.8762,
      "duration": 0.1332,
      "velocity": 94,
      "chip": "ym2612"
    },
    {
      "channel": 0,
      "note": 45,
      "start": 17.008,
      "duration": 0.2478,
      "velocity": 94,
      "chip": "ym2612"
    },
    {
      "channel": 1,
      "note": 81,
      "start": 17.0086,
      "duration": 0.2474,
      "velocity": 96,
      "chip": "ym2612"
    },
    {
      "channel": 3,
      "note": 37,
      "start": 17.0121,
      "duration": 0.2614,
      "velocity": 94,
      "chip": "ym2612"
    },
    {
      "channel": 2,
      "note": 81,
      "start": 17.1407,
      "duration": 0.248,
      "velocity": 96,
      "chip": "ym2612"
    },
    {
      "channel": 1,
      "note": 81,
      "start": 17.2729,
      "duration": 0.248,
      "velocity": 96,
      "chip": "ym2612"
    },
    {
      "channel": 3,
      "note": 37,
      "start": 17.2761,
      "duration": 0.1297,
      "velocity": 94,
      "chip": "ym2612"
    },
    {
      "channel": 2,
      "note": 81,
      "start": 17.4054,
      "duration": 0.2482,
      "velocity": 96,
      "chip": "ym2612"
    },
    {
      "channel": 3,
      "note": 37,
      "start": 17.4061,
      "duration": 0.1324,
      "velocity": 94,
      "chip": "ym2612"
    },
    {
      "channel": 0,
      "note": 40,
      "start": 17.5374,
      "duration": 0.2485,
      "velocity": 94,
      "chip": "ym2612"
    },
    {
      "channel": 1,
      "note": 81,
      "start": 17.538,
      "duration": 0.2484,
      "velocity": 96,
      "chip": "ym2612"
    },
    {
      "channel": 3,
      "note": 37,
      "start": 17.5412,
      "duration": 0.2627,
      "velocity": 94,
      "chip": "ym2612"
    },
    {
      "channel": 2,
      "note": 81,
      "start": 17.6705,
      "duration": 0.2478,
      "velocity": 96,
      "chip": "ym2612"
    },
    {
      "channel": 1,
      "note": 81,
      "start": 17.8034,
      "duration": 0.0817,
      "velocity": 96,
      "chip": "ym2612"
    },
    {
      "channel": 3,
      "note": 37,
      "start": 17.8066,
      "duration": 0.1293,
      "velocity": 94,
      "chip": "ym2612"
    },
    {
      "channel": 1,
      "note": 83,
      "start": 17.9018,
      "duration": 0.066,
      "velocity": 96,
      "chip": "ym2612"
    },
    {
      "channel": 2,
      "note": 81,
      "start": 17.9351,
      "duration": 0.0826,
      "velocity": 96,
      "chip": "ym2612"
    },
    {
      "channel": 3,
      "note": 37,
      "start": 17.9366,
      "duration": 0.1316,
      "velocity": 94,
      "chip": "ym2612"
    },
    {
      "channel": 1,
      "note": 81,
      "start": 17.9845,
      "duration": 0.0661,
      "velocity": 96,
      "chip": "ym2612"
    },
    {
      "channel": 2,
      "note": 83,
      "start": 18.0344,
      "duration": 0.066,
      "velocity": 96,
      "chip": "ym2612"
    },
    {
      "channel": 0,
      "note": 52,
      "start": 18.067,
      "duration": 0.2481,
      "velocity": 94,
      "chip": "ym2612"
    },
    {
      "channel": 1,
      "note": 80,
      "start": 18.0676,
      "duration": 0.2478,
      "velocity": 96,
      "chip": "ym2612"
    },
    {
      "channel": 3,
      "note": 37,
      "start": 18.0715,
      "duration": 0.2613,
      "velocity": 94,
      "chip": "ym2612"
    },
    {
      "channel": 2,
      "note": 81,
      "start": 18.1172,
      "duration": 0.066,
      "velocity": 96,
      "chip": "ym2612"
    },
    {
      "channel": 2,
      "note": 80,
      "start": 18.1999,
      "duration": 0.2481,
      "velocity": 96,
      "chip": "ym2612"
    },
    {
      "channel": 1,
      "note": 78,
      "start": 18.3322,
      "duration": 0.248,
      "velocity": 96,
      "chip": "ym2612"
    },
    {
      "channel": 3,
      "note": 37,
      "start": 18.3359,
      "duration": 0.1292,
      "velocity": 94,
      "chip": "ym2612"
    },
    {
      "channel": 2,
      "note": 78,
      "start": 18.4647,
      "duration": 0.2481,
      "velocity": 96,
      "chip": "ym2612"
    },
    {
      "channel": 3,
      "note": 37,
      "start": 18.4654,
      "duration": 0.1324,
      "velocity": 94,
      "chip": "ym2612"
    },
    {
      "channel": 0,
      "note": 47,
      "start": 18.5967,
      "duration": 0.248,
      "velocity": 94,
      "chip": "ym2612"
    },
    {
      "channel": 1,
      "note": 76,
      "start": 18.5973,
      "duration": 0.5127,
      "velocity": 96,
      "chip": "ym2612"
    },
    {
      "channel": 2,
      "note": 76,
      "start": 18.7296,
      "duration": 0.5129,
      "velocity": 96,
      "chip": "ym2612"
    },
    {
      "channel": 3,
      "note": 37,
      "start": 18.7303,
      "duration": 0.132,
      "velocity": 94,
      "chip": "ym2612"
    },
    {
      "channel": 3,
      "note": 37,
      "start": 18.9949,
      "duration": 0.1329,
      "velocity": 94,
      "chip": "ym2612"
    },
    {
      "channel": 0,
      "note": 47,
      "start": 19.1266,
      "duration": 0.2479,
      "velocity": 94,
      "chip": "ym2612"
    },
    {
      "channel": 1,
      "note": 78,
      "start": 19.1271,
      "duration": 0.2477,
      "velocity": 96,
      "chip": "ym2612"
    },
    {
      "channel": 3,
      "note": 37,
      "start": 19.1304,
      "duration": 0.2618,
      "velocity": 94,
      "chip": "ym2612"
    },
    {
      "channel": 2,
      "note": 78,
      "start": 19.2593,
      "duration": 0.2481,
      "velocity": 96,
      "chip": "ym2612"
    },
    {
      "channel": 1,
      "note": 78,
      "start": 19.3917,
      "duration": 0.248,
      "velocity": 96,
      "chip": "ym2612"
    },
    {
      "channel": 3,
      "note": 37,
      "start": 19.3949,
      "duration": 0.1296,
      "velocity": 94,
      "chip": "ym2612"
    },
    {
      "channel": 2,
      "note": 78,
      "start": 19.5241,
      "duration": 0.2481,
      "velocity": 96,
      "chip": "ym2612"
    },
    {
      "channel": 3,
      "note": 37,
      "start": 19.5248,
      "duration": 0.1324,
      "velocity": 94,
      "chip": "ym2612"
    },
    {
      "channel": 0,
      "note": 42,
      "start": 19.6561,
      "duration": 0.2481,
      "velocity": 94,
      "chip": "ym2612"
    },
    {
      "channel": 1,
      "note": 76,
      "start": 19.6566,
      "duration": 0.2479,
      "velocity": 96,
      "chip": "ym2612"
    },
    {
      "channel": 3,
      "note": 37,
      "start": 19.6598,
      "duration": 0.262,
      "velocity": 94,
      "chip": "ym2612"
    },
    {
      "channel": 2,
      "note": 76,
      "start": 19.789,
      "duration": 0.2481,
      "velocity": 96,
      "chip": "ym2612"
    },
    {
      "channel": 1,
      "note": 78,
      "start": 19.9212,
      "duration": 0.2487,
      "velocity": 96,
      "chip": "ym2612"
    },
    {
      "channel": 3,
      "note": 37,
      "start": 19.9245,
      "duration": 0.1298,
      "velocity": 94,
      "chip": "ym2612"
    },
    {
      "channel": 2,
      "note": 78,
      "start": 20.0539,
      "duration": 0.2481,
      "velocity": 96,
      "chip": "ym2612"
    },
    {
      "channel": 3,
      "note": 37,
      "start": 20.0546,
      "duration": 0.1331,
      "velocity": 94,
      "chip": "ym2612"
    },
    {
      "channel": 0,
      "note": 52,
      "start": 20.1865,
      "duration": 0.2474,
      "velocity": 94,
      "chip": "ym2612"
    },
    {
      "channel": 1,
      "note": 80,
      "start": 20.1871,
      "duration": 0.2471,
      "velocity": 96,
      "chip": "ym2612"
    },
    {
      "channel": 3,
      "note": 37,
      "start": 20.1903,
      "duration": 0.2612,
      "velocity": 94,
      "chip": "ym2612"
    },
    {
      "channel": 2,
      "note": 80,
      "start": 20.3189,
      "duration": 0.2478,
      "velocity": 96,
      "chip": "ym2612"
    },
    {
      "channel": 1,
      "note": 76,
      "start": 20.4509,
      "duration": 0.248,
      "velocity": 96,
      "chip": "ym2612"
    },
    {
      "channel": 3,
      "note": 37,
      "start": 20.4549,
      "duration": 0.129,
      "velocity": 94,
      "chip": "ym2612"
    },
    {
      "channel": 2,
      "note": 76,
      "start": 20.5835,
      "duration": 0.2481,
      "velocity": 96,
      "chip": "ym2612"
    },
    {
      "channel": 3,
      "note": 37,
      "start": 20.5842,
      "duration": 0.1324,
      "velocity": 94,
      "chip": "ym2612"
    },
    {
      "channel": 0,
      "note": 47,
      "start": 20.7155,
      "duration": 0.248,
      "velocity": 94,
      "chip": "ym2612"
    },
    {
      "channel": 1,
      "note": 76,
      "start": 20.716,
      "duration": 0.5126,
      "velocity": 96,
      "chip": "ym2612"
    },
    {
      "channel": 3,
      "note": 37,
      "start": 20.717,
      "duration": 0.1317,
      "velocity": 94,
      "chip": "ym2612"
    },
    {
      "channel": 2,
      "note": 76,
      "start": 20.8483,
      "duration": 0.5129,
      "velocity": 96,
      "chip": "ym2612"
    },
    {
      "channel": 3,
      "note": 37,
      "start": 20.849,
      "duration": 0.132,
      "velocity": 94,
      "chip": "ym2612"
    },
    {
      "channel": 3,
      "note": 37,
      "start": 20.9813,
      "duration": 0.132,
      "velocity": 94,
      "chip": "ym2612"
    },
    {
      "channel": 3,
      "note": 37,
      "start": 21.1136,
      "duration": 0.1329,
      "velocity": 94,
      "chip": "ym2612"
    },
    {
      "channel": 0,
      "note": 45,
      "start": 21.2453,
      "duration": 0.248,
      "velocity": 94,
      "chip": "ym2612"
    },
    {
      "channel": 1,
      "note": 81,
      "start": 21.2458,
      "duration": 0.2477,
      "velocity": 96,
      "chip": "ym2612"
    },
    {
      "channel": 3,
      "note": 37,
      "start": 21.2492,
      "duration": 0.2617,
      "velocity": 94,
      "chip": "ym2612"
    },
    {
      "channel": 2,
      "note": 81,
      "start": 21.378,
      "duration": 0.2481,
      "velocity": 96,
      "chip": "ym2612"
    },
    {
      "channel": 1,
      "note": 81,
      "start": 21.5103,
      "duration": 0.248,
      "velocity": 96,
      "chip": "ym2612"
    },
    {
      "channel": 3,
      "note": 37,
      "start": 21.5135,
      "duration": 0.1297,
      "velocity": 94,
      "chip": "ym2612"
    },
    {
      "channel": 2,
      "note": 81,
      "start": 21.6429,
      "duration": 0.2481,
      "velocity": 96,
      "chip": "ym2612"
    },
    {
      "channel": 3,
      "note": 37,
      "start": 21.6436,
      "duration": 0.1324,
      "velocity": 94,
      "chip": "ym2612"
    },
    {
      "channel": 0,
      "note": 40,
      "start": 21.7748,
      "duration": 0.2481,
      "velocity": 94,
      "chip": "ym2612"
    },
    {
      "channel": 1,
      "note": 81,
      "start": 21.7753,
      "duration": 0.2478,
      "velocity": 96,
      "chip": "ym2612"
    },
    {
      "channel": 3,
      "note": 37,
      "start": 21.7785,
      "duration": 0.2621,
      "velocity": 94,
      "chip": "ym2612"
    },
    {
      "channel": 2,
      "note": 81,
      "start": 21.9077,
      "duration": 0.2481,
      "velocity": 96,
      "chip": "ym2612"
    },
    {
      "channel": 1,
      "note": 81,
      "start": 22.04,
      "duration": 0.0824,
      "velocity": 96,
      "chip": "ym2612"
    },
    {
      "channel": 3,
      "note": 37,
      "start": 22.0432,
      "duration": 0.1296,
      "velocity": 94,
      "chip": "ym2612"
    },
    {
      "channel": 1,
      "note": 83,
      "start": 22.1392,
      "duration": 0.066,
      "velocity": 96,
      "chip": "ym2612"
    },
    {
      "channel": 2,
      "note": 81,
      "start": 22.1725,
      "duration": 0.0826,
      "velocity": 96,
      "chip": "ym2612"
    },
    {
      "channel": 3,
      "note": 37,
      "start": 22.1732,
      "duration": 0.1324,
      "velocity": 94,
      "chip": "ym2612"
    },
    {
      "channel": 1,
      "note": 81,
      "start": 22.2219,
      "duration": 0.066,
      "velocity": 96,
      "chip": "ym2612"
    },
    {
      "channel": 2,
      "note": 83,
      "start": 22.2719,
      "duration": 0.066,
      "velocity": 96,
      "chip": "ym2612"
    },
    {
      "channel": 0,
      "note": 52,
      "start": 22.3045,
      "duration": 0.2485,
      "velocity": 94,
      "chip": "ym2612"
    },
    {
      "channel": 1,
      "note": 80,
      "start": 22.305,
      "duration": 0.2483,
      "velocity": 96,
      "chip": "ym2612"
    },
    {
      "channel": 3,
      "note": 37,
      "start": 22.3083,
      "duration": 0.2626,
      "velocity": 94,
      "chip": "ym2612"
    },
    {
      "channel": 2,
      "note": 81,
      "start": 22.3546,
      "duration": 0.066,
      "velocity": 96,
      "chip": "ym2612"
    },
    {
      "channel": 2,
      "note": 80,
      "start": 22.4374,
      "duration": 0.2484,
      "velocity": 96,
      "chip": "ym2612"
    },
    {
      "channel": 1,
      "note": 78,
      "start": 22.5703,
      "duration": 0.2474,
      "velocity": 96,
      "chip": "ym2612"
    },
    {
      "channel": 3,
      "note": 37,
      "start": 22.5735,
      "duration": 0.1298,
      "velocity": 94,
      "chip": "ym2612"
    },
    {
      "channel": 2,
      "note": 78,
      "start": 22.7029,
      "duration": 0.2474,
      "velocity": 96,
      "chip": "ym2612"
    },
    {
      "channel": 3,
      "note": 37,
      "start": 22.7037,
      "duration": 0.1316,
      "velocity": 94,
      "chip": "ym2612"
    },
    {
      "channel": 0,
      "note": 47,
      "start": 22.8341,
      "duration": 0.2481,
      "velocity": 94,
      "chip": "ym2612"
    },
    {
      "channel": 1,
      "note": 76,
      "start": 22.8347,
      "duration": 0.5127,
      "velocity": 96,
      "chip": "ym2612"
    },
    {
      "channel": 2,
      "note": 76,
      "start": 22.9671,
      "duration": 0.5129,
      "velocity": 96,
      "chip": "ym2612"
    },
    {
      "channel": 3,
      "note": 37,
      "start": 22.9678,
      "duration": 0.1319,
      "velocity": 94,
      "chip": "ym2612"
    },
    {
      "channel": 3,
      "note": 37,
      "start": 23.2324,
      "duration": 0.1335,
      "velocity": 94,
      "chip": "ym2612"
    },
    {
      "channel": 0,
      "note": 47,
      "start": 23.3644,
      "duration": 0.2476,
      "velocity": 94,
      "chip": "ym2612"
    },
    {
      "channel": 1,
      "note": 78,
      "start": 23.3653,
      "duration": 0.2469,
      "velocity": 96,
      "chip": "ym2612"
    },
    {
      "channel": 3,
      "note": 37,
      "start": 23.3685,
      "duration": 0.2612,
      "velocity": 94,
      "chip": "ym2612"
    },
    {
      "channel": 2,
      "note": 78,
      "start": 23.4971,
      "duration": 0.2478,
      "velocity": 96,
      "chip": "ym2612"
    },
    {
      "channel": 1,
      "note": 83,
      "start": 23.629,
      "duration": 1.0425,
      "velocity": 96,
      "chip": "ym2612"
    },
    {
      "channel": 3,
      "note": 37,
      "start": 23.6323,
      "duration": 0.1297,
      "velocity": 94,
      "chip": "ym2612"
    },
    {
      "channel": 2,
      "note": 83,
      "start": 23.7616,
      "duration": 1.0426,
      "velocity": 96,
      "chip": "ym2612"
    },
    {
      "channel": 3,
      "note": 37,
      "start": 23.7623,
      "duration": 0.1321,
      "velocity": 94,
      "chip": "ym2612"
    },
    {
      "channel": 0,
      "note": 42,
      "start": 23.8935,
      "duration": 0.2482,
      "velocity": 94,
      "chip": "ym2612"
    },
    {
      "channel": 3,
      "note": 37,
      "start": 23.897,
      "duration": 0.2621,
      "velocity": 94,
      "chip": "ym2612"
    },
    {
      "channel": 3,
      "note": 37,
      "start": 24.1617,
      "duration": 0.1297,
      "velocity": 94,
      "chip": "ym2612"
    },
    {
      "channel": 3,
      "note": 37,
      "start": 24.2917,
      "duration": 0.1324,
      "velocity": 94,
      "chip": "ym2612"
    },
    {
      "channel": 0,
      "note": 47,
      "start": 24.4233,
      "duration": 0.248,
      "velocity": 94,
      "chip": "ym2612"
    },
    {
      "channel": 3,
      "note": 37,
      "start": 24.4268,
      "duration": 0.2625,
      "velocity": 94,
      "chip": "ym2612"
    },
    {
      "channel": 0,
      "note": 47,
      "start": 24.6881,
      "duration": 0.2484,
      "velocity": 94,
      "chip": "ym2612"
    },
    {
      "channel": 1,
      "note": 81,
      "start": 24.6886,
      "duration": 0.2482,
      "velocity": 96,
      "chip": "ym2612"
    },
    {
      "channel": 3,
      "note": 37,
      "start": 24.6919,
      "duration": 0.1294,
      "velocity": 94,
      "chip": "ym2612"
    },
    {
      "channel": 2,
      "note": 81,
      "start": 24.8209,
      "duration": 0.2488,
      "velocity": 96,
      "chip": "ym2612"
    },
    {
      "channel": 3,
      "note": 37,
      "start": 24.8216,
      "duration": 0.1328,
      "velocity": 94,
      "chip": "ym2612"
    },
    {
      "channel": 0,
      "note": 49,
      "start": 24.9533,
      "duration": 0.2477,
      "velocity": 94,
      "chip": "ym2612"
    },
    {
      "channel": 1,
      "note": 80,
      "start": 24.9539,
      "duration": 0.2474,
      "velocity": 96,
      "chip": "ym2612"
    },
    {
      "channel": 3,
      "note": 37,
      "start": 24.9548,
      "duration": 0.1321,
      "velocity": 94,
      "chip": "ym2612"
    },
    {
      "channel": 2,
      "note": 80,
      "start": 25.0865,
      "duration": 0.2473,
      "velocity": 96,
      "chip": "ym2612"
    },
    {
      "channel": 3,
      "note": 37,
      "start": 25.0872,
      "duration": 0.1324,
      "velocity": 94,
      "chip": "ym2612"
    },
    {
      "channel": 0,
      "note": 51,
      "start": 25.2177,
      "duration": 0.2481,
      "velocity": 94,
      "chip": "ym2612"
    },
    {
      "channel": 1,
      "note": 78,
      "start": 25.2182,
      "duration": 0.2479,
      "velocity": 96,
      "chip": "ym2612"
    },
    {
      "channel": 3,
      "note": 37,
      "start": 25.2199,
      "duration": 0.131,
      "velocity": 94,
      "chip": "ym2612"
    },
    {
      "channel": 2,
      "note": 78,
      "start": 25.3506,
      "duration": 0.2481,
      "velocity": 96,
      "chip": "ym2612"
    },
    {
      "channel": 3,
      "note": 37,
      "start": 25.3512,
      "duration": 0.1405,
      "velocity": 94,
      "chip": "ym2612"
    },
    {
      "channel": 0,
      "note": 52,
      "start": 25.487,
      "duration": 0.2437,
      "velocity": 94,
      "chip": "ym2612"
    },
    {
      "channel": 1,
      "note": 76,
      "start": 25.4911,
      "duration": 0.2398,
      "velocity": 96,
      "chip": "ym2612"
    },
    {
      "channel": 3,
      "note": 37,
      "start": 25.4973,
      "duration": 0.1188,
      "velocity": 94,
      "chip": "ym2612"
    },
    {
      "channel": 2,
      "note": 76,
      "start": 25.6157,
      "duration": 0.2478,
      "velocity": 96,
      "chip": "ym2612"
    },
    {
      "channel": 3,
      "note": 37,
      "start": 25.6164,
      "duration": 0.1319,
      "velocity": 94,
      "chip": "ym2612"
    },
    {
      "channel": 1,
      "note": 80,
      "start": 25.7478,
      "duration": 0.248,
      "velocity": 96,
      "chip": "ym2612"
    },
    {
      "channel": 3,
      "note": 37,
      "start": 25.751,
      "duration": 0.2583,
      "velocity": 94,
      "chip": "ym2612"
    },
    {
      "channel": 2,
      "note": 80,
      "start": 25.8803,
      "duration": 0.1289,
      "velocity": 96,
      "chip": "ym2612"
    }
  ]
}