{
  "track_name": "29 - Dezolis Town 1",
  "duration_sec": 110.148,
  "sample_rate": 44100,
  "note_count": 818,
  "unique_pitches": 36,
  "pitch_range": 55,
  "avg_note_duration": 0.5403,
  "reconstruction_stats": {
    "notes_reconstructed": 818,
    "keyon_events": 818,
    "keyoff_events": 800,
    "orphan_keyons": 2,
    "unique_pitches": 36,
    "pitch_range": 55,
    "avg_duration_sec": 0.5403
  },
  "metadata": {
    "source": "P\\Phantasy Star IV\\29 - Dezolis Town 1.vgm"
  },
  "notes": [
    {
      "channel": 2,
      "note": 52,
      "start": 0.0,
      "duration": 2.2555,
      "velocity": 114,
      "chip": "ym2612"
    },
    {
      "channel": 1,
      "note": 71,
      "start": 0.3468,
      "duration": 0.3666,
      "velocity": 90,
      "chip": "ym2612"
    },
    {
      "channel": 3,
      "note": 68,
      "start": 0.3472,
      "duration": 0.3665,
      "velocity": 90,
      "chip": "ym2612"
    },
    {
      "channel": 0,
      "note": 71,
      "start": 0.4134,
      "duration": 0.3498,
      "velocity": 90,
      "chip": "ym2612"
    },
    {
      "channel": 4,
      "note": 71,
      "start": 0.5307,
      "duration": 0.3664,
      "velocity": 90,
      "chip": "ym2612"
    },
    {
      "channel": 1,
      "note": 76,
      "start": 0.7135,
      "duration": 0.3498,
      "velocity": 90,
      "chip": "ym2612"
    },
    {
      "channel": 3,
      "note": 71,
      "start": 0.714,
      "duration": 0.3498,
      "velocity": 90,
      "chip": "ym2612"
    },
    {
      "channel": 0,
      "note": 76,
      "start": 0.7634,
      "duration": 0.3665,
      "velocity": 90,
      "chip": "ym2612"
    },
    {
      "channel": 4,
      "note": 76,
      "start": 0.8973,
      "duration": 0.3498,
      "velocity": 90,
      "chip": "ym2612"
    },
    {
      "channel": 1,
      "note": 71,
      "start": 1.0635,
      "duration": 0.3666,
      "velocity": 90,
      "chip": "ym2612"
    },
    {
      "channel": 3,
      "note": 68,
      "start": 1.0639,
      "duration": 0.3666,
      "velocity": 90,
      "chip": "ym2612"
    },
    {
      "channel": 0,
      "note": 71,
      "start": 1.13,
      "duration": 0.3665,
      "velocity": 90,
      "chip": "ym2612"
    },
    {
      "channel": 4,
      "note": 71,
      "start": 1.2473,
      "duration": 0.3664,
      "velocity": 90,
      "chip": "ym2612"
    },
    {
      "channel": 1,
      "note": 76,
      "start": 1.4303,
      "duration": 0.3663,
      "velocity": 90,
      "chip": "ym2612"
    },
    {
      "channel": 3,
      "note": 71,
      "start": 1.4307,
      "duration": 0.3663,
      "velocity": 90,
      "chip": "ym2612"
    },
    {
      "channel": 0,
      "note": 76,
      "start": 1.4967,
      "duration": 0.3498,
      "velocity": 90,
      "chip": "ym2612"
    },
    {
      "channel": 4,
      "note": 76,
      "start": 1.614,
      "duration": 0.3498,
      "velocity": 90,
      "chip": "ym2612"
    },
    {
      "channel": 1,
      "note": 71,
      "start": 1.7968,
      "duration": 0.35,
      "velocity": 90,
      "chip": "ym2612"
    },
    {
      "channel": 3,
      "note": 68,
      "start": 1.7973,
      "duration": 0.35,
      "velocity": 90,
      "chip": "ym2612"
    },
    {
      "channel": 0,
      "note": 71,
      "start": 1.8467,
      "duration": 0.3058,
      "velocity": 90,
      "chip": "ym2612"
    },
    {
      "channel": 4,
      "note": 71,
      "start": 1.964,
      "duration": 0.1949,
      "velocity": 90,
      "chip": "ym2612"
    },
    {
      "channel": 1,
      "note": 76,
      "start": 2.1471,
      "duration": 0.0212,
      "velocity": 90,
      "chip": "ym2612"
    },
    {
      "channel": 3,
      "note": 71,
      "start": 2.1475,
      "duration": 0.0211,
      "velocity": 90,
      "chip": "ym2612"
    },
    {
      "channel": 0,
      "note": 76,
      "start": 2.1526,
      "duration": 0.0186,
      "velocity": 90,
      "chip": "ym2612"
    },
    {
      "channel": 4,
      "note": 76,
      "start": 2.159,
      "duration": 0.0198,
      "velocity": 90,
      "chip": "ym2612"
    },
    {
      "channel": 1,
      "note": 71,
      "start": 2.1684,
      "duration": 0.0869,
      "velocity": 90,
      "chip": "ym2612"
    },
    {
      "channel": 3,
      "note": 68,
      "start": 2.1688,
      "duration": 0.0869,
      "velocity": 90,
      "chip": "ym2612"
    },
    {
      "channel": 0,
      "note": 71,
      "start": 2.1714,
      "duration": 0.1504,
      "velocity": 90,
      "chip": "ym2612"
    },
    {
      "channel": 4,
      "note": 71,
      "start": 2.179,
      "duration": 0.2598,
      "velocity": 90,
      "chip": "ym2612"
    },
    {
      "channel": 2,
      "note": 52,
      "start": 2.2556,
      "duration": 2.2743,
      "velocity": 114,
      "chip": "ym2612"
    },
    {
      "channel": 1,
      "note": 72,
      "start": 2.6221,
      "duration": 0.3666,
      "velocity": 90,
      "chip": "ym2612"
    },
    {
      "channel": 3,
      "note": 68,
      "start": 2.6225,
      "duration": 0.3665,
      "velocity": 90,
      "chip": "ym2612"
    },
    {
      "channel": 0,
      "note": 72,
      "start": 2.6887,
      "duration": 0.3498,
      "velocity": 90,
      "chip": "ym2612"
    },
    {
      "channel": 4,
      "note": 72,
      "start": 2.806,
      "duration": 0.3498,
      "velocity": 90,
      "chip": "ym2612"
    },
    {
      "channel": 1,
      "note": 76,
      "start": 2.9888,
      "duration": 0.3498,
      "velocity": 90,
      "chip": "ym2612"
    },
    {
      "channel": 3,
      "note": 72,
      "start": 2.9893,
      "duration": 0.3498,
      "velocity": 90,
      "chip": "ym2612"
    },
    {
      "channel": 0,
      "note": 76,
      "start": 3.0387,
      "duration": 0.3665,
      "velocity": 90,
      "chip": "ym2612"
    },
    {
      "channel": 4,
      "note": 76,
      "start": 3.156,
      "duration": 0.3664,
      "velocity": 90,
      "chip": "ym2612"
    },
    {
      "channel": 1,
      "note": 72,
      "start": 3.3388,
      "duration": 0.3666,
      "velocity": 90,
      "chip": "ym2612"
    },
    {
      "channel": 3,
      "note": 68,
      "start": 3.3393,
      "duration": 0.3666,
      "velocity": 90,
      "chip": "ym2612"
    },
    {
      "channel": 0,
      "note": 72,
      "start": 3.4053,
      "duration": 0.3498,
      "velocity": 90,
      "chip": "ym2612"
    },
    {
      "channel": 4,
      "note": 72,
      "start": 3.5226,
      "duration": 0.3664,
      "velocity": 90,
      "chip": "ym2612"
    },
    {
      "channel": 1,
      "note": 76,
      "start": 3.7056,
      "duration": 0.3496,
      "velocity": 90,
      "chip": "ym2612"
    },
    {
      "channel": 3,
      "note": 72,
      "start": 3.7061,
      "duration": 0.3496,
      "velocity": 90,
      "chip": "ym2612"
    },
    {
      "channel": 0,
      "note": 76,
      "start": 3.7553,
      "duration": 0.3665,
      "velocity": 90,
      "chip": "ym2612"
    },
    {
      "channel": 4,
      "note": 76,
      "start": 3.8893,
      "duration": 0.3498,
      "velocity": 90,
      "chip": "ym2612"
    },
    {
      "channel": 1,
      "note": 72,
      "start": 4.0555,
      "duration": 0.3667,
      "velocity": 90,
      "chip": "ym2612"
    },
    {
      "channel": 3,
      "note": 68,
      "start": 4.056,
      "duration": 0.3666,
      "velocity": 90,
      "chip": "ym2612"
    },
    {
      "channel": 0,
      "note": 72,
      "start": 4.122,
      "duration": 0.3057,
      "velocity": 90,
      "chip": "ym2612"
    },
    {
      "channel": 4,
      "note": 72,
      "start": 4.2393,
      "duration": 0.195,
      "velocity": 90,
      "chip": "ym2612"
    },
    {
      "channel": 1,
      "note": 76,
      "start": 4.4224,
      "duration": 0.0207,
      "velocity": 90,
      "chip": "ym2612"
    },
    {
      "channel": 3,
      "note": 72,
      "start": 4.4228,
      "duration": 0.0206,
      "velocity": 90,
      "chip": "ym2612"
    },
    {
      "channel": 0,
      "note": 76,
      "start": 4.4278,
      "duration": 0.0182,
      "velocity": 90,
      "chip": "ym2612"
    },
    {
      "channel": 4,
      "note": 76,
      "start": 4.4344,
      "duration": 0.018,
      "velocity": 90,
      "chip": "ym2612"
    },
    {
      "channel": 1,
      "note": 72,
      "start": 4.4433,
      "duration": 0.0865,
      "velocity": 90,
      "chip": "ym2612"
    },
    {
      "channel": 3,
      "note": 68,
      "start": 4.4437,
      "duration": 0.0867,
      "velocity": 90,
      "chip": "ym2612"
    },
    {
      "channel": 0,
      "note": 72,
      "start": 4.4462,
      "duration": 0.1499,
      "velocity": 90,
      "chip": "ym2612"
    },
    {
      "channel": 4,
      "note": 72,
      "start": 4.4526,
      "duration": 0.2605,
      "velocity": 90,
      "chip": "ym2612"
    },
    {
      "channel": 2,
      "note": 52,
      "start": 4.5302,
      "duration": 2.2745,
      "velocity": 114,
      "chip": "ym2612"
    },
    {
      "channel": 1,
      "note": 71,
      "start": 4.8963,
      "duration": 0.3499,
      "velocity": 90,
      "chip": "ym2612"
    },
    {
      "channel": 3,
      "note": 68,
      "start": 4.8968,
      "duration": 0.3499,
      "velocity": 90,
      "chip": "ym2612"
    },
    {
      "channel": 0,
      "note": 71,
      "start": 4.9463,
      "duration": 0.3665,
      "velocity": 90,
      "chip": "ym2612"
    },
    {
      "channel": 4,
      "note": 71,
      "start": 5.0802,
      "duration": 0.3498,
      "velocity": 90,
      "chip": "ym2612"
    },
    {
      "channel": 1,
      "note": 76,
      "start": 5.2464,
      "duration": 0.3665,
      "velocity": 90,
      "chip": "ym2612"
    },
    {
      "channel": 3,
      "note": 71,
      "start": 5.2469,
      "duration": 0.3664,
      "velocity": 90,
      "chip": "ym2612"
    },
    {
      "channel": 0,
      "note": 76,
      "start": 5.3129,
      "duration": 0.3665,
      "velocity": 90,
      "chip": "ym2612"
    },
    {
      "channel": 4,
      "note": 76,
      "start": 5.4302,
      "duration": 0.3664,
      "velocity": 90,
      "chip": "ym2612"
    },
    {
      "channel": 1,
      "note": 71,
      "start": 5.6131,
      "duration": 0.3666,
      "velocity": 90,
      "chip": "ym2612"
    },
    {
      "channel": 3,
      "note": 68,
      "start": 5.6136,
      "duration": 0.3666,
      "velocity": 90,
      "chip": "ym2612"
    },
    {
      "channel": 0,
      "note": 71,
      "start": 5.6796,
      "duration": 0.3498,
      "velocity": 90,
      "chip": "ym2612"
    },
    {
      "channel": 4,
      "note": 71,
      "start": 5.7969,
      "duration": 0.3498,
      "velocity": 90,
      "chip": "ym2612"
    },
    {
      "channel": 1,
      "note": 76,
      "start": 5.9799,
      "duration": 0.3496,
      "velocity": 90,
      "chip": "ym2612"
    },
    {
      "channel": 3,
      "note": 71,
      "start": 5.9804,
      "duration": 0.3496,
      "velocity": 90,
      "chip": "ym2612"
    },
    {
      "channel": 0,
      "note": 76,
      "start": 6.0296,
      "duration": 0.3665,
      "velocity": 90,
      "chip": "ym2612"
    },
    {
      "channel": 4,
      "note": 76,
      "start": 6.1469,
      "duration": 0.3664,
      "velocity": 90,
      "chip": "ym2612"
    },
    {
      "channel": 1,
      "note": 71,
      "start": 6.3298,
      "duration": 0.3667,
      "velocity": 90,
      "chip": "ym2612"
    },
    {
      "channel": 3,
      "note": 68,
      "start": 6.3302,
      "duration": 0.3666,
      "velocity": 90,
      "chip": "ym2612"
    },
    {
      "channel": 0,
      "note": 71,
      "start": 6.3963,
      "duration": 0.3049,
      "velocity": 90,
      "chip": "ym2612"
    },
    {
      "channel": 4,
      "note": 71,
      "start": 6.5136,
      "duration": 0.1946,
      "velocity": 90,
      "chip": "ym2612"
    },
    {
      "channel": 1,
      "note": 76,
      "start": 6.6967,
      "duration": 0.0203,
      "velocity": 90,
      "chip": "ym2612"
    },
    {
      "channel": 3,
      "note": 71,
      "start": 6.6971,
      "duration": 0.0202,
      "velocity": 90,
      "chip": "ym2612"
    },
    {
      "channel": 0,
      "note": 76,
      "start": 6.7014,
      "duration": 0.0195,
      "velocity": 90,
      "chip": "ym2612"
    },
    {
      "channel": 4,
      "note": 76,
      "start": 6.7084,
      "duration": 0.0195,
      "velocity": 90,
      "chip": "ym2612"
    },
    {
      "channel": 1,
      "note": 71,
      "start": 6.7172,
      "duration": 0.0874,
      "velocity": 90,
      "chip": "ym2612"
    },
    {
      "channel": 3,
      "note": 68,
      "start": 6.7176,
      "duration": 0.0874,
      "velocity": 90,
      "chip": "ym2612"
    },
    {
      "channel": 0,
      "note": 71,
      "start": 6.721,
      "duration": 0.15,
      "velocity": 90,
      "chip": "ym2612"
    },
    {
      "channel": 4,
      "note": 71,
      "start": 6.728,
      "duration": 0.26,
      "velocity": 90,
      "chip": "ym2612"
    },
    {
      "channel": 2,
      "note": 52,
      "start": 6.8049,
      "duration": 2.2763,
      "velocity": 114,
      "chip": "ym2612"
    },
    {
      "channel": 1,
      "note": 72,
      "start": 7.1713,
      "duration": 0.3499,
      "velocity": 90,
      "chip": "ym2612"
    },
    {
      "channel": 3,
      "note": 68,
      "start": 7.1718,
      "duration": 0.3499,
      "velocity": 90,
      "chip": "ym2612"
    },
    {
      "channel": 0,
      "note": 72,
      "start": 7.2213,
      "duration": 0.3665,
      "velocity": 90,
      "chip": "ym2612"
    },
    {
      "channel": 4,
      "note": 72,
      "start": 7.3386,
      "duration": 0.3664,
      "velocity": 90,
      "chip": "ym2612"
    },
    {
      "channel": 1,
      "note": 76,
      "start": 7.5214,
      "duration": 0.3665,
      "velocity": 90,
      "chip": "ym2612"
    },
    {
      "channel": 3,
      "note": 72,
      "start": 7.5219,
      "duration": 0.3664,
      "velocity": 90,
      "chip": "ym2612"
    },
    {
      "channel": 0,
      "note": 76,
      "start": 7.5879,
      "duration": 0.3498,
      "velocity": 90,
      "chip": "ym2612"
    },
    {
      "channel": 4,
      "note": 76,
      "start": 7.7052,
      "duration": 0.3664,
      "velocity": 90,
      "chip": "ym2612"
    },
    {
      "channel": 1,
      "note": 72,
      "start": 7.8881,
      "duration": 0.3499,
      "velocity": 90,
      "chip": "ym2612"
    },
    {
      "channel": 3,
      "note": 68,
      "start": 7.8886,
      "duration": 0.3499,
      "velocity": 90,
      "chip": "ym2612"
    },
    {
      "channel": 0,
      "note": 72,
      "start": 7.9379,
      "duration": 0.3665,
      "velocity": 90,
      "chip": "ym2612"
    },
    {
      "channel": 4,
      "note": 72,
      "start": 8.0719,
      "duration": 0.3498,
      "velocity": 90,
      "chip": "ym2612"
    },
    {
      "channel": 1,
      "note": 76,
      "start": 8.2383,
      "duration": 0.3663,
      "velocity": 90,
      "chip": "ym2612"
    },
    {
      "channel": 3,
      "note": 72,
      "start": 8.2387,
      "duration": 0.3663,
      "velocity": 90,
      "chip": "ym2612"
    },
    {
      "channel": 0,
      "note": 76,
      "start": 8.3046,
      "duration": 0.3665,
      "velocity": 90,
      "chip": "ym2612"
    },
    {
      "channel": 4,
      "note": 76,
      "start": 8.4219,
      "duration": 0.3664,
      "velocity": 90,
      "chip": "ym2612"
    },
    {
      "channel": 1,
      "note": 72,
      "start": 8.6048,
      "duration": 0.3666,
      "velocity": 90,
      "chip": "ym2612"
    },
    {
      "channel": 3,
      "note": 68,
      "start": 8.6052,
      "duration": 0.3666,
      "velocity": 90,
      "chip": "ym2612"
    },
    {
      "channel": 0,
      "note": 72,
      "start": 8.6713,
      "duration": 0.3049,
      "velocity": 90,
      "chip": "ym2612"
    },
    {
      "channel": 4,
      "note": 72,
      "start": 8.7886,
      "duration": 0.194,
      "velocity": 90,
      "chip": "ym2612"
    },
    {
      "channel": 1,
      "note": 76,
      "start": 8.9717,
      "duration": 0.0203,
      "velocity": 90,
      "chip": "ym2612"
    },
    {
      "channel": 3,
      "note": 72,
      "start": 8.9721,
      "duration": 0.0202,
      "velocity": 90,
      "chip": "ym2612"
    },
    {
      "channel": 0,
      "note": 76,
      "start": 8.9763,
      "duration": 0.0195,
      "velocity": 90,
      "chip": "ym2612"
    },
    {
      "channel": 4,
      "note": 76,
      "start": 8.9827,
      "duration": 0.0199,
      "velocity": 90,
      "chip": "ym2612"
    },
    {
      "channel": 1,
      "note": 72,
      "start": 8.9922,
      "duration": 0.0889,
      "velocity": 90,
      "chip": "ym2612"
    },
    {
      "channel": 3,
      "note": 68,
      "start": 8.9926,
      "duration": 0.089,
      "velocity": 90,
      "chip": "ym2612"
    },
    {
      "channel": 0,
      "note": 72,
      "start": 8.996,
      "duration": 0.0848,
      "velocity": 90,
      "chip": "ym2612"
    },
    {
      "channel": 4,
      "note": 72,
      "start": 9.0029,
      "duration": 0.195,
      "velocity": 90,
      "chip": "ym2612"
    },
    {
      "channel": 0,
      "note": 83,
      "start": 9.0809,
      "duration": 2.2744,
      "velocity": 90,
      "chip": "ym2612"
    },
    {
      "channel": 2,
      "note": 52,
      "start": 9.0815,
      "duration": 2.2741,
      "velocity": 114,
      "chip": "ym2612"
    },
    {
      "channel": 4,
      "note": 83,
      "start": 9.1982,
      "duration": 2.2742,
      "velocity": 90,
      "chip": "ym2612"
    },
    {
      "channel": 1,
      "note": 71,
      "start": 9.4302,
      "duration": 0.3665,
      "velocity": 90,
      "chip": "ym2612"
    },
    {
      "channel": 3,
      "note": 68,
      "start": 9.4307,
      "duration": 0.3664,
      "velocity": 90,
      "chip": "ym2612"
    },
    {
      "channel": 1,
      "note": 76,
      "start": 9.7969,
      "duration": 0.3665,
      "velocity": 90,
      "chip": "ym2612"
    },
    {
      "channel": 3,
      "note": 71,
      "start": 9.7974,
      "duration": 0.3664,
      "velocity": 90,
      "chip": "ym2612"
    },
    {
      "channel": 1,
      "note": 71,
      "start": 10.1636,
      "duration": 0.3499,
      "velocity": 90,
      "chip": "ym2612"
    },
    {
      "channel": 3,
      "note": 68,
      "start": 10.1641,
      "duration": 0.3499,
      "velocity": 90,
      "chip": "ym2612"
    },
    {
      "channel": 1,
      "note": 76,
      "start": 10.5137,
      "duration": 0.3663,
      "velocity": 90,
      "chip": "ym2612"
    },
    {
      "channel": 3,
      "note": 71,
      "start": 10.5142,
      "duration": 0.3663,
      "velocity": 90,
      "chip": "ym2612"
    },
    {
      "channel": 1,
      "note": 71,
      "start": 10.8802,
      "duration": 0.35,
      "velocity": 90,
      "chip": "ym2612"
    },
    {
      "channel": 3,
      "note": 68,
      "start": 10.8807,
      "duration": 0.35,
      "velocity": 90,
      "chip": "ym2612"
    },
    {
      "channel": 1,
      "note": 76,
      "start": 11.2305,
      "duration": 0.0222,
      "velocity": 90,
      "chip": "ym2612"
    },
    {
      "channel": 3,
      "note": 71,
      "start": 11.2309,
      "duration": 0.0221,
      "velocity": 90,
      "chip": "ym2612"
    },
    {
      "channel": 1,
      "note": 71,
      "start": 11.2529,
      "duration": 0.1025,
      "velocity": 90,
      "chip": "ym2612"
    },
    {
      "channel": 3,
      "note": 68,
      "start": 11.2533,
      "duration": 0.1026,
      "velocity": 90,
      "chip": "ym2612"
    },
    {
      "channel": 0,
      "note": 83,
      "start": 11.3553,
      "duration": 0.7165,
      "velocity": 90,
      "chip": "ym2612"
    },
    {
      "channel": 2,
      "note": 52,
      "start": 11.3557,
      "duration": 2.2611,
      "velocity": 114,
      "chip": "ym2612"
    },
    {
      "channel": 4,
      "note": 83,
      "start": 11.4724,
      "duration": 0.7167,
      "velocity": 90,
      "chip": "ym2612"
    },
    {
      "channel": 1,
      "note": 72,
      "start": 11.7055,
      "duration": 0.3666,
      "velocity": 90,
      "chip": "ym2612"
    },
    {
      "channel": 3,
      "note": 68,
      "start": 11.706,
      "duration": 0.3666,
      "velocity": 90,
      "chip": "ym2612"
    },
    {
      "channel": 0,
      "note": 84,
      "start": 12.072,
      "duration": 0.7166,
      "velocity": 90,
      "chip": "ym2612"
    },
    {
      "channel": 1,
      "note": 76,
      "start": 12.0723,
      "duration": 0.3496,
      "velocity": 90,
      "chip": "ym2612"
    },
    {
      "channel": 3,
      "note": 72,
      "start": 12.0728,
      "duration": 0.3496,
      "velocity": 90,
      "chip": "ym2612"
    },
    {
      "channel": 4,
      "note": 84,
      "start": 12.1893,
      "duration": 0.7164,
      "velocity": 90,
      "chip": "ym2612"
    },
    {
      "channel": 1,
      "note": 72,
      "start": 12.4222,
      "duration": 0.3668,
      "velocity": 90,
      "chip": "ym2612"
    },
    {
      "channel": 3,
      "note": 68,
      "start": 12.4226,
      "duration": 0.3667,
      "velocity": 90,
      "chip": "ym2612"
    },
    {
      "channel": 0,
      "note": 88,
      "start": 12.7888,
      "duration": 0.7165,
      "velocity": 90,
      "chip": "ym2612"
    },
    {
      "channel": 1,
      "note": 76,
      "start": 12.7891,
      "duration": 0.3662,
      "velocity": 90,
      "chip": "ym2612"
    },
    {
      "channel": 3,
      "note": 72,
      "start": 12.7896,
      "duration": 0.3661,
      "velocity": 90,
      "chip": "ym2612"
    },
    {
      "channel": 4,
      "note": 88,
      "start": 12.906,
      "duration": 0.6084,
      "velocity": 90,
      "chip": "ym2612"
    },
    {
      "channel": 1,
      "note": 72,
      "start": 13.1555,
      "duration": 0.3501,
      "velocity": 90,
      "chip": "ym2612"
    },
    {
      "channel": 3,
      "note": 68,
      "start": 13.1559,
      "duration": 0.3501,
      "velocity": 90,
      "chip": "ym2612"
    },
    {
      "channel": 0,
      "note": 90,
      "start": 13.5056,
      "duration": 0.1108,
      "velocity": 90,
      "chip": "ym2612"
    },
    {
      "channel": 1,
      "note": 76,
      "start": 13.5059,
      "duration": 0.0229,
      "velocity": 90,
      "chip": "ym2612"
    },
    {
      "channel": 3,
      "note": 72,
      "start": 13.5063,
      "duration": 0.0229,
      "velocity": 90,
      "chip": "ym2612"
    },
    {
      "channel": 4,
      "note": 90,
      "start": 13.5145,
      "duration": 0.2356,
      "velocity": 90,
      "chip": "ym2612"
    },
    {
      "channel": 1,
      "note": 72,
      "start": 13.529,
      "duration": 0.0877,
      "velocity": 90,
      "chip": "ym2612"
    },
    {
      "channel": 3,
      "note": 68,
      "start": 13.5293,
      "duration": 0.0878,
      "velocity": 90,
      "chip": "ym2612"
    },
    {
      "channel": 0,
      "note": 90,
      "start": 13.6166,
      "duration": 1.45,
      "velocity": 90,
      "chip": "ym2612"
    },
    {
      "channel": 2,
      "note": 52,
      "start": 13.6171,
      "duration": 2.2741,
      "velocity": 114,
      "chip": "ym2612"
    },
    {
      "channel": 4,
      "note": 90,
      "start": 13.7504,
      "duration": 1.4333,
      "velocity": 90,
      "chip": "ym2612"
    },
    {
      "channel": 1,
      "note": 71,
      "start": 13.9834,
      "duration": 0.3665,
      "velocity": 90,
      "chip": "ym2612"
    },
    {
      "channel": 3,
      "note": 68,
      "start": 13.9838,
      "duration": 0.3665,
      "velocity": 90,
      "chip": "ym2612"
    },
    {
      "channel": 1,
      "note": 76,
      "start": 14.35,
      "duration": 0.3498,
      "velocity": 90,
      "chip": "ym2612"
    },
    {
      "channel": 3,
      "note": 71,
      "start": 14.3505,
      "duration": 0.3498,
      "velocity": 90,
      "chip": "ym2612"
    },
    {
      "channel": 1,
      "note": 71,
      "start": 14.7,
      "duration": 0.3668,
      "velocity": 90,
      "chip": "ym2612"
    },
    {
      "channel": 3,
      "note": 68,
      "start": 14.7005,
      "duration": 0.3667,
      "velocity": 90,
      "chip": "ym2612"
    },
    {
      "channel": 0,
      "note": 92,
      "start": 15.0667,
      "duration": 0.8242,
      "velocity": 90,
      "chip": "ym2612"
    },
    {
      "channel": 1,
      "note": 76,
      "start": 15.067,
      "duration": 0.3495,
      "velocity": 90,
      "chip": "ym2612"
    },
    {
      "channel": 3,
      "note": 71,
      "start": 15.0675,
      "duration": 0.3495,
      "velocity": 90,
      "chip": "ym2612"
    },
    {
      "channel": 4,
      "note": 92,
      "start": 15.1839,
      "duration": 0.8241,
      "velocity": 90,
      "chip": "ym2612"
    },
    {
      "channel": 1,
      "note": 71,
      "start": 15.4167,
      "duration": 0.3667,
      "velocity": 90,
      "chip": "ym2612"
    },
    {
      "channel": 3,
      "note": 68,
      "start": 15.4172,
      "duration": 0.3666,
      "velocity": 90,
      "chip": "ym2612"
    },
    {
      "channel": 1,
      "note": 76,
      "start": 15.7836,
      "duration": 0.0202,
      "velocity": 90,
      "chip": "ym2612"
    },
    {
      "channel": 3,
      "note": 71,
      "start": 15.7841,
      "duration": 0.02,
      "velocity": 90,
      "chip": "ym2612"
    },
    {
      "channel": 1,
      "note": 71,
      "start": 15.8039,
      "duration": 0.087,
      "velocity": 90,
      "chip": "ym2612"
    },
    {
      "channel": 3,
      "note": 68,
      "start": 15.8043,
      "duration": 0.0872,
      "velocity": 90,
      "chip": "ym2612"
    },
    {
      "channel": 0,
      "note": 92,
      "start": 15.8909,
      "duration": 2.1667,
      "velocity": 90,
      "chip": "ym2612"
    },
    {
      "channel": 2,
      "note": 51,
      "start": 15.8913,
      "duration": 2.2781,
      "velocity": 114,
      "chip": "ym2612"
    },
    {
      "channel": 4,
      "note": 92,
      "start": 16.008,
      "duration": 2.0586,
      "velocity": 90,
      "chip": "ym2612"
    },
    {
      "channel": 1,
      "note": 71,
      "start": 16.2578,
      "duration": 0.3498,
      "velocity": 90,
      "chip": "ym2612"
    },
    {
      "channel": 3,
      "note": 68,
      "start": 16.2583,
      "duration": 0.3498,
      "velocity": 90,
      "chip": "ym2612"
    },
    {
      "channel": 1,
      "note": 75,
      "start": 16.6078,
      "duration": 0.3665,
      "velocity": 90,
      "chip": "ym2612"
    },
    {
      "channel": 3,
      "note": 71,
      "start": 16.6083,
      "duration": 0.3664,
      "velocity": 90,
      "chip": "ym2612"
    },
    {
      "channel": 1,
      "note": 71,
      "start": 16.9744,
      "duration": 0.3666,
      "velocity": 90,
      "chip": "ym2612"
    },
    {
      "channel": 3,
      "note": 68,
      "start": 16.9749,
      "duration": 0.3666,
      "velocity": 90,
      "chip": "ym2612"
    },
    {
      "channel": 1,
      "note": 75,
      "start": 17.3413,
      "duration": 0.3496,
      "velocity": 90,
      "chip": "ym2612"
    },
    {
      "channel": 3,
      "note": 71,
      "start": 17.3417,
      "duration": 0.3496,
      "velocity": 90,
      "chip": "ym2612"
    },
    {
      "channel": 1,
      "note": 71,
      "start": 17.6911,
      "duration": 0.3668,
      "velocity": 90,
      "chip": "ym2612"
    },
    {
      "channel": 3,
      "note": 68,
      "start": 17.6916,
      "duration": 0.3668,
      "velocity": 90,
      "chip": "ym2612"
    },
    {
      "channel": 0,
      "note": 92,
      "start": 18.0579,
      "duration": 0.1111,
      "velocity": 90,
      "chip": "ym2612"
    },
    {
      "channel": 1,
      "note": 75,
      "start": 18.0582,
      "duration": 0.0223,
      "velocity": 90,
      "chip": "ym2612"
    },
    {
      "channel": 3,
      "note": 71,
      "start": 18.0586,
      "duration": 0.0222,
      "velocity": 90,
      "chip": "ym2612"
    },
    {
      "channel": 4,
      "note": 92,
      "start": 18.0669,
      "duration": 0.2191,
      "velocity": 90,
      "chip": "ym2612"
    },
    {
      "channel": 1,
      "note": 71,
      "start": 18.0806,
      "duration": 0.0886,
      "velocity": 90,
      "chip": "ym2612"
    },
    {
      "channel": 3,
      "note": 68,
      "start": 18.0811,
      "duration": 0.0887,
      "velocity": 90,
      "chip": "ym2612"
    },
    {
      "channel": 0,
      "note": 92,
      "start": 18.1691,
      "duration": 2.1667,
      "velocity": 90,
      "chip": "ym2612"
    },
    {
      "channel": 2,
      "note": 50,
      "start": 18.1697,
      "duration": 2.2805,
      "velocity": 114,
      "chip": "ym2612"
    },
    {
      "channel": 4,
      "note": 92,
      "start": 18.2863,
      "duration": 2.0588,
      "velocity": 90,
      "chip": "ym2612"
    },
    {
      "channel": 1,
      "note": 71,
      "start": 18.5359,
      "duration": 0.3498,
      "velocity": 90,
      "chip": "ym2612"
    },
    {
      "channel": 3,
      "note": 66,
      "start": 18.5364,
      "duration": 0.3498,
      "velocity": 90,
      "chip": "ym2612"
    },
    {
      "channel": 1,
      "note": 74,
      "start": 18.8859,
      "duration": 0.3665,
      "velocity": 90,
      "chip": "ym2612"
    },
    {
      "channel": 3,
      "note": 71,
      "start": 18.8864,
      "duration": 0.3664,
      "velocity": 90,
      "chip": "ym2612"
    },
    {
      "channel": 1,
      "note": 71,
      "start": 19.2526,
      "duration": 0.3499,
      "velocity": 90,
      "chip": "ym2612"
    },
    {
      "channel": 3,
      "note": 66,
      "start": 19.2531,
      "duration": 0.3499,
      "velocity": 90,
      "chip": "ym2612"
    },
    {
      "channel": 1,
      "note": 74,
      "start": 19.6028,
      "duration": 0.3663,
      "velocity": 90,
      "chip": "ym2612"
    },
    {
      "channel": 3,
      "note": 71,
      "start": 19.6032,
      "duration": 0.3663,
      "velocity": 90,
      "chip": "ym2612"
    },
    {
      "channel": 1,
      "note": 71,
      "start": 19.9693,
      "duration": 0.3668,
      "velocity": 90,
      "chip": "ym2612"
    },
    {
      "channel": 3,
      "note": 66,
      "start": 19.9698,
      "duration": 0.3668,
      "velocity": 90,
      "chip": "ym2612"
    },
    {
      "channel": 0,
      "note": 93,
      "start": 20.3361,
      "duration": 0.1136,
      "velocity": 90,
      "chip": "ym2612"
    },
    {
      "channel": 1,
      "note": 74,
      "start": 20.3364,
      "duration": 0.0219,
      "velocity": 90,
      "chip": "ym2612"
    },
    {
      "channel": 3,
      "note": 71,
      "start": 20.3368,
      "duration": 0.0218,
      "velocity": 90,
      "chip": "ym2612"
    },
    {
      "channel": 4,
      "note": 93,
      "start": 20.3452,
      "duration": 0.2215,
      "velocity": 90,
      "chip": "ym2612"
    },
    {
      "channel": 1,
      "note": 71,
      "start": 20.3584,
      "duration": 0.0915,
      "velocity": 90,
      "chip": "ym2612"
    },
    {
      "channel": 3,
      "note": 66,
      "start": 20.3589,
      "duration": 0.0915,
      "velocity": 90,
      "chip": "ym2612"
    },
    {
      "channel": 0,
      "note": 92,
      "start": 20.4498,
      "duration": 0.7165,
      "velocity": 90,
      "chip": "ym2612"
    },
    {
      "channel": 2,
      "note": 49,
      "start": 20.4503,
      "duration": 2.2791,
      "velocity": 114,
      "chip": "ym2612"
    },
    {
      "channel": 4,
      "note": 92,
      "start": 20.567,
      "duration": 0.7166,
      "velocity": 90,
      "chip": "ym2612"
    },
    {
      "channel": 1,
      "note": 68,
      "start": 20.8,
      "duration": 0.3666,
      "velocity": 90,
      "chip": "ym2612"
    },
    {
      "channel": 3,
      "note": 65,
      "start": 20.8005,
      "duration": 0.3666,
      "velocity": 90,
      "chip": "ym2612"
    },
    {
      "channel": 0,
      "note": 90,
      "start": 21.1665,
      "duration": 0.7166,
      "velocity": 90,
      "chip": "ym2612"
    },
    {
      "channel": 1,
      "note": 73,
      "start": 21.1668,
      "duration": 0.3663,
      "velocity": 90,
      "chip": "ym2612"
    },
    {
      "channel": 3,
      "note": 68,
      "start": 21.1673,
      "duration": 0.3663,
      "velocity": 90,
      "chip": "ym2612"
    },
    {
      "channel": 4,
      "note": 90,
      "start": 21.2838,
      "duration": 0.7164,
      "velocity": 90,
      "chip": "ym2612"
    },
    {
      "channel": 1,
      "note": 68,
      "start": 21.5333,
      "duration": 0.3501,
      "velocity": 90,
      "chip": "ym2612"
    },
    {
      "channel": 3,
      "note": 65,
      "start": 21.5338,
      "duration": 0.35,
      "velocity": 90,
      "chip": "ym2612"
    },
    {
      "channel": 0,
      "note": 89,
      "start": 21.8833,
      "duration": 0.7165,
      "velocity": 90,
      "chip": "ym2612"
    },
    {
      "channel": 1,
      "note": 73,
      "start": 21.8836,
      "duration": 0.3662,
      "velocity": 90,
      "chip": "ym2612"
    },
    {
      "channel": 3,
      "note": 68,
      "start": 21.8841,
      "duration": 0.3661,
      "velocity": 90,
      "chip": "ym2612"
    },
    {
      "channel": 4,
      "note": 89,
      "start": 22.0005,
      "duration": 0.6103,
      "velocity": 90,
      "chip": "ym2612"
    },
    {
      "channel": 1,
      "note": 68,
      "start": 22.25,
      "duration": 0.3501,
      "velocity": 90,
      "chip": "ym2612"
    },
    {
      "channel": 3,
      "note": 65,
      "start": 22.2504,
      "duration": 0.3501,
      "velocity": 90,
      "chip": "ym2612"
    },
    {
      "channel": 0,
      "note": 92,
      "start": 22.6,
      "duration": 0.1288,
      "velocity": 90,
      "chip": "ym2612"
    },
    {
      "channel": 1,
      "note": 73,
      "start": 22.6004,
      "duration": 0.0244,
      "velocity": 90,
      "chip": "ym2612"
    },
    {
      "channel": 3,
      "note": 68,
      "start": 22.6008,
      "duration": 0.0242,
      "velocity": 90,
      "chip": "ym2612"
    },
    {
      "channel": 4,
      "note": 92,
      "start": 22.611,
      "duration": 0.235,
      "velocity": 90,
      "chip": "ym2612"
    },
    {
      "channel": 1,
      "note": 68,
      "start": 22.6249,
      "duration": 0.1043,
      "velocity": 90,
      "chip": "ym2612"
    },
    {
      "channel": 3,
      "note": 65,
      "start": 22.6252,
      "duration": 0.1044,
      "velocity": 90,
      "chip": "ym2612"
    },
    {
      "channel": 0,
      "note": 90,
      "start": 22.729,
      "duration": 1.4333,
      "velocity": 90,
      "chip": "ym2612"
    },
    {
      "channel": 2,
      "note": 45,
      "start": 22.7296,
      "duration": 2.261,
      "velocity": 114,
      "chip": "ym2612"
    },
    {
      "channel": 4,
      "note": 90,
      "start": 22.8462,
      "duration": 1.4333,
      "velocity": 90,
      "chip": "ym2612"
    },
    {
      "channel": 1,
      "note": 64,
      "start": 23.0792,
      "duration": 0.3665,
      "velocity": 90,
      "chip": "ym2612"
    },
    {
      "channel": 3,
      "note": 61,
      "start": 23.0797,
      "duration": 0.3664,
      "velocity": 90,
      "chip": "ym2612"
    },
    {
      "channel": 1,
      "note": 69,
      "start": 23.4459,
      "duration": 0.3498,
      "velocity": 90,
      "chip": "ym2612"
    },
    {
      "channel": 3,
      "note": 64,
      "start": 23.4463,
      "duration": 0.3498,
      "velocity": 90,
      "chip": "ym2612"
    },
    {
      "channel": 1,
      "note": 64,
      "start": 23.7959,
      "duration": 0.3668,
      "velocity": 90,
      "chip": "ym2612"
    },
    {
      "channel": 3,
      "note": 61,
      "start": 23.7963,
      "duration": 0.3668,
      "velocity": 90,
      "chip": "ym2612"
    },
    {
      "channel": 0,
      "note": 85,
      "start": 24.1626,
      "duration": 0.7165,
      "velocity": 90,
      "chip": "ym2612"
    },
    {
      "channel": 1,
      "note": 69,
      "start": 24.1628,
      "duration": 0.3662,
      "velocity": 90,
      "chip": "ym2612"
    },
    {
      "channel": 3,
      "note": 64,
      "start": 24.1633,
      "duration": 0.3661,
      "velocity": 90,
      "chip": "ym2612"
    },
    {
      "channel": 4,
      "note": 85,
      "start": 24.2797,
      "duration": 0.6084,
      "velocity": 90,
      "chip": "ym2612"
    },
    {
      "channel": 1,
      "note": 64,
      "start": 24.5292,
      "duration": 0.3501,
      "velocity": 90,
      "chip": "ym2612"
    },
    {
      "channel": 3,
      "note": 61,
      "start": 24.5296,
      "duration": 0.3501,
      "velocity": 90,
      "chip": "ym2612"
    },
    {
      "channel": 0,
      "note": 88,
      "start": 24.8793,
      "duration": 0.1108,
      "velocity": 90,
      "chip": "ym2612"
    },
    {
      "channel": 1,
      "note": 69,
      "start": 24.8796,
      "duration": 0.0229,
      "velocity": 90,
      "chip": "ym2612"
    },
    {
      "channel": 3,
      "note": 64,
      "start": 24.88,
      "duration": 0.0229,
      "velocity": 90,
      "chip": "ym2612"
    },
    {
      "channel": 4,
      "note": 88,
      "start": 24.8882,
      "duration": 0.2356,
      "velocity": 90,
      "chip": "ym2612"
    },
    {
      "channel": 1,
      "note": 64,
      "start": 24.9027,
      "duration": 0.0877,
      "velocity": 90,
      "chip": "ym2612"
    },
    {
      "channel": 3,
      "note": 61,
      "start": 24.903,
      "duration": 0.0878,
      "velocity": 90,
      "chip": "ym2612"
    },
    {
      "channel": 0,
      "note": 88,
      "start": 24.9903,
      "duration": 0.7332,
      "velocity": 90,
      "chip": "ym2612"
    },
    {
      "channel": 2,
      "note": 47,
      "start": 24.9908,
      "duration": 2.9966,
      "velocity": 114,
      "chip": "ym2612"
    },
    {
      "channel": 4,
      "note": 88,
      "start": 25.1241,
      "duration": 0.7166,
      "velocity": 90,
      "chip": "ym2612"
    },
    {
      "channel": 1,
      "note": 66,
      "start": 25.3571,
      "duration": 0.3666,
      "velocity": 90,
      "chip": "ym2612"
    },
    {
      "channel": 3,
      "note": 63,
      "start": 25.3575,
      "duration": 0.3667,
      "velocity": 90,
      "chip": "ym2612"
    },
    {
      "channel": 0,
      "note": 87,
      "start": 25.7236,
      "duration": 0.8332,
      "velocity": 90,
      "chip": "ym2612"
    },
    {
      "channel": 1,
      "note": 71,
      "start": 25.7239,
      "duration": 0.4163,
      "velocity": 90,
      "chip": "ym2612"
    },
    {
      "channel": 3,
      "note": 66,
      "start": 25.7244,
      "duration": 0.4163,
      "velocity": 90,
      "chip": "ym2612"
    },
    {
      "channel": 4,
      "note": 87,
      "start": 25.8409,
      "duration": 0.8331,
      "velocity": 90,
      "chip": "ym2612"
    },
    {
      "channel": 1,
      "note": 66,
      "start": 26.1405,
      "duration": 0.4165,
      "velocity": 90,
      "chip": "ym2612"
    },
    {
      "channel": 3,
      "note": 63,
      "start": 26.1409,
      "duration": 0.4166,
      "velocity": 90,
      "chip": "ym2612"
    },
    {
      "channel": 0,
      "note": 85,
      "start": 26.5569,
      "duration": 0.9667,
      "velocity": 90,
      "chip": "ym2612"
    },
    {
      "channel": 1,
      "note": 71,
      "start": 26.5573,
      "duration": 0.483,
      "velocity": 90,
      "chip": "ym2612"
    },
    {
      "channel": 3,
      "note": 66,
      "start": 26.5577,
      "duration": 0.4829,
      "velocity": 90,
      "chip": "ym2612"
    },
    {
      "channel": 4,
      "note": 85,
      "start": 26.6742,
      "duration": 0.8586,
      "velocity": 90,
      "chip": "ym2612"
    },
    {
      "channel": 1,
      "note": 66,
      "start": 27.0405,
      "duration": 0.4834,
      "velocity": 90,
      "chip": "ym2612"
    },
    {
      "channel": 3,
      "note": 63,
      "start": 27.0409,
      "duration": 0.4835,
      "velocity": 90,
      "chip": "ym2612"
    },
    {
      "channel": 0,
      "note": 83,
      "start": 27.5239,
      "duration": 0.4632,
      "velocity": 90,
      "chip": "ym2612"
    },
    {
      "channel": 1,
      "note": 71,
      "start": 27.5242,
      "duration": 0.0345,
      "velocity": 90,
      "chip": "ym2612"
    },
    {
      "channel": 3,
      "note": 66,
      "start": 27.5246,
      "duration": 0.0344,
      "velocity": 90,
      "chip": "ym2612"
    },
    {
      "channel": 4,
      "note": 83,
      "start": 27.533,
      "duration": 0.5878,
      "velocity": 90,
      "chip": "ym2612"
    },
    {
      "channel": 1,
      "note": 66,
      "start": 27.5588,
      "duration": 0.4283,
      "velocity": 90,
      "chip": "ym2612"
    },
    {
      "channel": 3,
      "note": 63,
      "start": 27.5592,
      "duration": 0.4285,
      "velocity": 90,
      "chip": "ym2612"
    },
    {
      "channel": 0,
      "note": 83,
      "start": 27.9871,
      "duration": 1.4499,
      "velocity": 90,
      "chip": "ym2612"
    },
    {
      "channel": 2,
      "note": 52,
      "start": 27.9876,
      "duration": 2.2741,
      "velocity": 114,
      "chip": "ym2612"
    },
    {
      "channel": 4,
      "note": 83,
      "start": 28.1208,
      "duration": 1.4333,
      "velocity": 90,
      "chip": "ym2612"
    },
    {
      "channel": 1,
      "note": 71,
      "start": 28.3539,
      "duration": 0.3665,
      "velocity": 90,
      "chip": "ym2612"
    },
    {
      "channel": 3,
      "note": 68,
      "start": 28.3544,
      "duration": 0.3664,
      "velocity": 90,
      "chip": "ym2612"
    },
    {
      "channel": 1,
      "note": 76,
      "start": 28.7206,
      "duration": 0.3498,
      "velocity": 90,
      "chip": "ym2612"
    },
    {
      "channel": 3,
      "note": 71,
      "start": 28.721,
      "duration": 0.3498,
      "velocity": 90,
      "chip": "ym2612"
    },
    {
      "channel": 1,
      "note": 71,
      "start": 29.0706,
      "duration": 0.3667,
      "velocity": 90,
      "chip": "ym2612"
    },
    {
      "channel": 3,
      "note": 68,
      "start": 29.0711,
      "duration": 0.3667,
      "velocity": 90,
      "chip": "ym2612"
    },
    {
      "channel": 0,
      "note": 92,
      "start": 29.4373,
      "duration": 1.5407,
      "velocity": 90,
      "chip": "ym2612"
    },
    {
      "channel": 1,
      "note": 76,
      "start": 29.4376,
      "duration": 0.3495,
      "velocity": 90,
      "chip": "ym2612"
    },
    {
      "channel": 3,
      "note": 71,
      "start": 29.438,
      "duration": 0.3495,
      "velocity": 90,
      "chip": "ym2612"
    },
    {
      "channel": 4,
      "note": 92,
      "start": 29.5544,
      "duration": 1.5575,
      "velocity": 90,
      "chip": "ym2612"
    },
    {
      "channel": 1,
      "note": 71,
      "start": 29.7873,
      "duration": 0.3667,
      "velocity": 90,
      "chip": "ym2612"
    },
    {
      "channel": 3,
      "note": 68,
      "start": 29.7878,
      "duration": 0.3666,
      "velocity": 90,
      "chip": "ym2612"
    },
    {
      "channel": 1,
      "note": 76,
      "start": 30.1542,
      "duration": 0.0202,
      "velocity": 90,
      "chip": "ym2612"
    },
    {
      "channel": 3,
      "note": 71,
      "start": 30.1546,
      "duration": 0.02,
      "velocity": 90,
      "chip": "ym2612"
    },
    {
      "channel": 1,
      "note": 71,
      "start": 30.1745,
      "duration": 0.087,
      "velocity": 90,
      "chip": "ym2612"
    },
    {
      "channel": 3,
      "note": 68,
      "start": 30.1749,
      "duration": 0.087,
      "velocity": 90,
      "chip": "ym2612"
    },
    {
      "channel": 2,
      "note": 52,
      "start": 30.2618,
      "duration": 2.279,
      "velocity": 114,
      "chip": "ym2612"
    },
    {
      "channel": 1,
      "note": 72,
      "start": 30.6283,
      "duration": 0.3499,
      "velocity": 90,
      "chip": "ym2612"
    },
    {
      "channel": 3,
      "note": 68,
      "start": 30.6288,
      "duration": 0.3499,
      "velocity": 90,
      "chip": "ym2612"
    },
    {
      "channel": 0,
      "note": 84,
      "start": 30.9782,
      "duration": 0.3665,
      "velocity": 90,
      "chip": "ym2612"
    },
    {
      "channel": 1,
      "note": 76,
      "start": 30.9785,
      "duration": 0.3664,
      "velocity": 90,
      "chip": "ym2612"
    },
    {
      "channel": 3,
      "note": 72,
      "start": 30.9789,
      "duration": 0.3664,
      "velocity": 90,
      "chip": "ym2612"
    },
    {
      "channel": 4,
      "note": 84,
      "start": 31.1121,
      "duration": 0.3498,
      "velocity": 90,
      "chip": "ym2612"
    },
    {
      "channel": 0,
      "note": 83,
      "start": 31.3448,
      "duration": 0.3666,
      "velocity": 90,
      "chip": "ym2612"
    },
    {
      "channel": 1,
      "note": 72,
      "start": 31.3451,
      "duration": 0.3666,
      "velocity": 90,
      "chip": "ym2612"
    },
    {
      "channel": 3,
      "note": 68,
      "start": 31.3456,
      "duration": 0.3666,
      "velocity": 90,
      "chip": "ym2612"
    },
    {
      "channel": 4,
      "note": 83,
      "start": 31.4621,
      "duration": 0.3664,
      "velocity": 90,
      "chip": "ym2612"
    },
    {
      "channel": 0,
      "note": 88,
      "start": 31.7116,
      "duration": 0.3497,
      "velocity": 90,
      "chip": "ym2612"
    },
    {
      "channel": 1,
      "note": 76,
      "start": 31.712,
      "duration": 0.3496,
      "velocity": 90,
      "chip": "ym2612"
    },
    {
      "channel": 3,
      "note": 72,
      "start": 31.7124,
      "duration": 0.3496,
      "velocity": 90,
      "chip": "ym2612"
    },
    {
      "channel": 4,
      "note": 88,
      "start": 31.8288,
      "duration": 0.3498,
      "velocity": 90,
      "chip": "ym2612"
    },
    {
      "channel": 0,
      "note": 87,
      "start": 32.0615,
      "duration": 0.3885,
      "velocity": 90,
      "chip": "ym2612"
    },
    {
      "channel": 1,
      "note": 72,
      "start": 32.0618,
      "duration": 0.3665,
      "velocity": 90,
      "chip": "ym2612"
    },
    {
      "channel": 3,
      "note": 68,
      "start": 32.0623,
      "duration": 0.3665,
      "velocity": 90,
      "chip": "ym2612"
    },
    {
      "channel": 4,
      "note": 87,
      "start": 32.1788,
      "duration": 0.2806,
      "velocity": 90,
      "chip": "ym2612"
    },
    {
      "channel": 1,
      "note": 76,
      "start": 32.4286,
      "duration": 0.0217,
      "velocity": 90,
      "chip": "ym2612"
    },
    {
      "channel": 3,
      "note": 72,
      "start": 32.4291,
      "duration": 0.0215,
      "velocity": 90,
      "chip": "ym2612"
    },
    {
      "channel": 0,
      "note": 88,
      "start": 32.4502,
      "duration": 0.0121,
      "velocity": 90,
      "chip": "ym2612"
    },
    {
      "channel": 1,
      "note": 72,
      "start": 32.4504,
      "duration": 0.0902,
      "velocity": 90,
      "chip": "ym2612"
    },
    {
      "channel": 3,
      "note": 68,
      "start": 32.4507,
      "duration": 0.0904,
      "velocity": 90,
      "chip": "ym2612"
    },
    {
      "channel": 4,
      "note": 88,
      "start": 32.4595,
      "duration": 0.0148,
      "velocity": 90,
      "chip": "ym2612"
    },
    {
      "channel": 0,
      "note": 90,
      "start": 32.4625,
      "duration": 0.0779,
      "velocity": 90,
      "chip": "ym2612"
    },
    {
      "channel": 4,
      "note": 90,
      "start": 32.4746,
      "duration": 0.1829,
      "velocity": 90,
      "chip": "ym2612"
    },
    {
      "channel": 0,
      "note": 92,
      "start": 32.5406,
      "duration": 2.2722,
      "velocity": 90,
      "chip": "ym2612"
    },
    {
      "channel": 2,
      "note": 52,
      "start": 32.5411,
      "duration": 2.2719,
      "velocity": 114,
      "chip": "ym2612"
    },
    {
      "channel": 4,
      "note": 92,
      "start": 32.6577,
      "duration": 2.2722,
      "velocity": 90,
      "chip": "ym2612"
    },
    {
      "channel": 1,
      "note": 71,
      "start": 32.9074,
      "duration": 0.3498,
      "velocity": 90,
      "chip": "ym2612"
    },
    {
      "channel": 3,
      "note": 68,
      "start": 32.9078,
      "duration": 0.3498,
      "velocity": 90,
      "chip": "ym2612"
    },
    {
      "channel": 1,
      "note": 76,
      "start": 33.2574,
      "duration": 0.3665,
      "velocity": 90,
      "chip": "ym2612"
    },
    {
      "channel": 3,
      "note": 71,
      "start": 33.2579,
      "duration": 0.3664,
      "velocity": 90,
      "chip": "ym2612"
    },
    {
      "channel": 1,
      "note": 71,
      "start": 33.6241,
      "duration": 0.3499,
      "velocity": 90,
      "chip": "ym2612"
    },
    {
      "channel": 3,
      "note": 68,
      "start": 33.6246,
      "duration": 0.3499,
      "velocity": 90,
      "chip": "ym2612"
    },
    {
      "channel": 1,
      "note": 76,
      "start": 33.9742,
      "duration": 0.3663,
      "velocity": 90,
      "chip": "ym2612"
    },
    {
      "channel": 3,
      "note": 71,
      "start": 33.9747,
      "duration": 0.3663,
      "velocity": 90,
      "chip": "ym2612"
    },
    {
      "channel": 1,
      "note": 71,
      "start": 34.3407,
      "duration": 0.3667,
      "velocity": 90,
      "chip": "ym2612"
    },
    {
      "channel": 3,
      "note": 68,
      "start": 34.3412,
      "duration": 0.3667,
      "velocity": 90,
      "chip": "ym2612"
    },
    {
      "channel": 1,
      "note": 76,
      "start": 34.7077,
      "duration": 0.0188,
      "velocity": 90,
      "chip": "ym2612"
    },
    {
      "channel": 3,
      "note": 71,
      "start": 34.7082,
      "duration": 0.0187,
      "velocity": 90,
      "chip": "ym2612"
    },
    {
      "channel": 1,
      "note": 71,
      "start": 34.7266,
      "duration": 0.0862,
      "velocity": 90,
      "chip": "ym2612"
    },
    {
      "channel": 3,
      "note": 68,
      "start": 34.7271,
      "duration": 0.0863,
      "velocity": 90,
      "chip": "ym2612"
    },
    {
      "channel": 0,
      "note": 92,
      "start": 34.8128,
      "duration": 2.15,
      "velocity": 90,
      "chip": "ym2612"
    },
    {
      "channel": 2,
      "note": 51,
      "start": 34.8132,
      "duration": 2.2775,
      "velocity": 114,
      "chip": "ym2612"
    },
    {
      "channel": 4,
      "note": 92,
      "start": 34.9299,
      "duration": 2.0425,
      "velocity": 90,
      "chip": "ym2612"
    },
    {
      "channel": 1,
      "note": 71,
      "start": 35.163,
      "duration": 0.3665,
      "velocity": 90,
      "chip": "ym2612"
    },
    {
      "channel": 3,
      "note": 68,
      "start": 35.1635,
      "duration": 0.3664,
      "velocity": 90,
      "chip": "ym2612"
    },
    {
      "channel": 1,
      "note": 75,
      "start": 35.5296,
      "duration": 0.3665,
      "velocity": 90,
      "chip": "ym2612"
    },
    {
      "channel": 3,
      "note": 71,
      "start": 35.5301,
      "duration": 0.3664,
      "velocity": 90,
      "chip": "ym2612"
    },
    {
      "channel": 1,
      "note": 71,
      "start": 35.8963,
      "duration": 0.3499,
      "velocity": 90,
      "chip": "ym2612"
    },
    {
      "channel": 3,
      "note": 68,
      "start": 35.8968,
      "duration": 0.3499,
      "velocity": 90,
      "chip": "ym2612"
    },
    {
      "channel": 1,
      "note": 75,
      "start": 36.2465,
      "duration": 0.3663,
      "velocity": 90,
      "chip": "ym2612"
    },
    {
      "channel": 3,
      "note": 71,
      "start": 36.2469,
      "duration": 0.3663,
      "velocity": 90,
      "chip": "ym2612"
    },
    {
      "channel": 1,
      "note": 71,
      "start": 36.613,
      "duration": 0.3502,
      "velocity": 90,
      "chip": "ym2612"
    },
    {
      "channel": 3,
      "note": 68,
      "start": 36.6134,
      "duration": 0.3502,
      "velocity": 90,
      "chip": "ym2612"
    },
    {
      "channel": 0,
      "note": 92,
      "start": 36.9631,
      "duration": 0.1271,
      "velocity": 90,
      "chip": "ym2612"
    },
    {
      "channel": 1,
      "note": 75,
      "start": 36.9634,
      "duration": 0.0227,
      "velocity": 90,
      "chip": "ym2612"
    },
    {
      "channel": 3,
      "note": 71,
      "start": 36.9639,
      "duration": 0.0225,
      "velocity": 90,
      "chip": "ym2612"
    },
    {
      "channel": 4,
      "note": 92,
      "start": 36.9725,
      "duration": 0.2348,
      "velocity": 90,
      "chip": "ym2612"
    },
    {
      "channel": 1,
      "note": 71,
      "start": 36.9862,
      "duration": 0.1042,
      "velocity": 90,
      "chip": "ym2612"
    },
    {
      "channel": 3,
      "note": 68,
      "start": 36.9866,
      "duration": 0.1044,
      "velocity": 90,
      "chip": "ym2612"
    },
    {
      "channel": 0,
      "note": 92,
      "start": 37.0904,
      "duration": 2.15,
      "velocity": 90,
      "chip": "ym2612"
    },
    {
      "channel": 2,
      "note": 50,
      "start": 37.0909,
      "duration": 2.2619,
      "velocity": 114,
      "chip": "ym2612"
    },
    {
      "channel": 4,
      "note": 92,
      "start": 37.2075,
      "duration": 2.0425,
      "velocity": 90,
      "chip": "ym2612"
    },
    {
      "channel": 1,
      "note": 71,
      "start": 37.4405,
      "duration": 0.3665,
      "velocity": 90,
      "chip": "ym2612"
    },
    {
      "channel": 3,
      "note": 66,
      "start": 37.441,
      "duration": 0.3664,
      "velocity": 90,
      "chip": "ym2612"
    },
    {
      "channel": 1,
      "note": 74,
      "start": 37.8072,
      "duration": 0.3498,
      "velocity": 90,
      "chip": "ym2612"
    },
    {
      "channel": 3,
      "note": 71,
      "start": 37.8077,
      "duration": 0.3498,
      "velocity": 90,
      "chip": "ym2612"
    },
    {
      "channel": 1,
      "note": 71,
      "start": 38.1572,
      "duration": 0.3666,
      "velocity": 90,
      "chip": "ym2612"
    },
    {
      "channel": 3,
      "note": 66,
      "start": 38.1577,
      "duration": 0.3666,
      "velocity": 90,
      "chip": "ym2612"
    },
    {
      "channel": 1,
      "note": 74,
      "start": 38.5241,
      "duration": 0.3663,
      "velocity": 90,
      "chip": "ym2612"
    },
    {
      "channel": 3,
      "note": 71,
      "start": 38.5245,
      "duration": 0.3663,
      "velocity": 90,
      "chip": "ym2612"
    },
    {
      "channel": 1,
      "note": 71,
      "start": 38.8905,
      "duration": 0.3502,
      "velocity": 90,
      "chip": "ym2612"
    },
    {
      "channel": 3,
      "note": 66,
      "start": 38.891,
      "duration": 0.3501,
      "velocity": 90,
      "chip": "ym2612"
    },
    {
      "channel": 0,
      "note": 93,
      "start": 39.2407,
      "duration": 0.1117,
      "velocity": 90,
      "chip": "ym2612"
    },
    {
      "channel": 1,
      "note": 74,
      "start": 39.241,
      "duration": 0.0238,
      "velocity": 90,
      "chip": "ym2612"
    },
    {
      "channel": 3,
      "note": 71,
      "start": 39.2414,
      "duration": 0.0237,
      "velocity": 90,
      "chip": "ym2612"
    },
    {
      "channel": 4,
      "note": 93,
      "start": 39.2503,
      "duration": 0.2359,
      "velocity": 90,
      "chip": "ym2612"
    },
    {
      "channel": 1,
      "note": 71,
      "start": 39.265,
      "duration": 0.0877,
      "velocity": 90,
      "chip": "ym2612"
    },
    {
      "channel": 3,
      "note": 66,
      "start": 39.2653,
      "duration": 0.0878,
      "velocity": 90,
      "chip": "ym2612"
    },
    {
      "channel": 0,
      "note": 92,
      "start": 39.3526,
      "duration": 0.7332,
      "velocity": 90,
      "chip": "ym2612"
    },
    {
      "channel": 2,
      "note": 49,
      "start": 39.353,
      "duration": 2.2766,
      "velocity": 114,
      "chip": "ym2612"
    },
    {
      "channel": 4,
      "note": 92,
      "start": 39.4864,
      "duration": 0.7166,
      "velocity": 90,
      "chip": "ym2612"
    },
    {
      "channel": 1,
      "note": 68,
      "start": 39.7194,
      "duration": 0.3666,
      "velocity": 90,
      "chip": "ym2612"
    },
    {
      "channel": 3,
      "note": 65,
      "start": 39.7198,
      "duration": 0.3666,
      "velocity": 90,
      "chip": "ym2612"
    },
    {
      "channel": 0,
      "note": 90,
      "start": 40.0859,
      "duration": 0.7166,
      "velocity": 90,
      "chip": "ym2612"
    },
    {
      "channel": 1,
      "note": 73,
      "start": 40.0862,
      "duration": 0.3496,
      "velocity": 90,
      "chip": "ym2612"
    },
    {
      "channel": 3,
      "note": 68,
      "start": 40.0867,
      "duration": 0.3496,
      "velocity": 90,
      "chip": "ym2612"
    },
    {
      "channel": 4,
      "note": 90,
      "start": 40.2032,
      "duration": 0.7164,
      "velocity": 90,
      "chip": "ym2612"
    },
    {
      "channel": 1,
      "note": 68,
      "start": 40.4361,
      "duration": 0.3668,
      "velocity": 90,
      "chip": "ym2612"
    },
    {
      "channel": 3,
      "note": 65,
      "start": 40.4366,
      "duration": 0.3667,
      "velocity": 90,
      "chip": "ym2612"
    },
    {
      "channel": 0,
      "note": 89,
      "start": 40.8027,
      "duration": 0.7165,
      "velocity": 90,
      "chip": "ym2612"
    },
    {
      "channel": 1,
      "note": 73,
      "start": 40.803,
      "duration": 0.3495,
      "velocity": 90,
      "chip": "ym2612"
    },
    {
      "channel": 3,
      "note": 68,
      "start": 40.8035,
      "duration": 0.3495,
      "velocity": 90,
      "chip": "ym2612"
    },
    {
      "channel": 4,
      "note": 89,
      "start": 40.9199,
      "duration": 0.6083,
      "velocity": 90,
      "chip": "ym2612"
    },
    {
      "channel": 1,
      "note": 68,
      "start": 41.1527,
      "duration": 0.3668,
      "velocity": 90,
      "chip": "ym2612"
    },
    {
      "channel": 3,
      "note": 65,
      "start": 41.1532,
      "duration": 0.3667,
      "velocity": 90,
      "chip": "ym2612"
    },
    {
      "channel": 0,
      "note": 92,
      "start": 41.5195,
      "duration": 0.1097,
      "velocity": 90,
      "chip": "ym2612"
    },
    {
      "channel": 1,
      "note": 73,
      "start": 41.5198,
      "duration": 0.022,
      "velocity": 90,
      "chip": "ym2612"
    },
    {
      "channel": 3,
      "note": 68,
      "start": 41.5202,
      "duration": 0.0219,
      "velocity": 90,
      "chip": "ym2612"
    },
    {
      "channel": 4,
      "note": 92,
      "start": 41.5283,
      "duration": 0.2179,
      "velocity": 90,
      "chip": "ym2612"
    },
    {
      "channel": 1,
      "note": 68,
      "start": 41.542,
      "duration": 0.0875,
      "velocity": 90,
      "chip": "ym2612"
    },
    {
      "channel": 3,
      "note": 65,
      "start": 41.5423,
      "duration": 0.0876,
      "velocity": 90,
      "chip": "ym2612"
    },
    {
      "channel": 0,
      "note": 90,
      "start": 41.6293,
      "duration": 1.45,
      "velocity": 90,
      "chip": "ym2612"
    },
    {
      "channel": 2,
      "note": 45,
      "start": 41.6299,
      "duration": 2.2797,
      "velocity": 114,
      "chip": "ym2612"
    },
    {
      "channel": 4,
      "note": 90,
      "start": 41.7465,
      "duration": 1.4499,
      "velocity": 90,
      "chip": "ym2612"
    },
    {
      "channel": 1,
      "note": 64,
      "start": 41.9961,
      "duration": 0.3498,
      "velocity": 90,
      "chip": "ym2612"
    },
    {
      "channel": 3,
      "note": 64,
      "start": 41.9966,
      "duration": 0.3498,
      "velocity": 90,
      "chip": "ym2612"
    },
    {
      "channel": 1,
      "note": 69,
      "start": 42.3461,
      "duration": 0.3665,
      "velocity": 90,
      "chip": "ym2612"
    },
    {
      "channel": 3,
      "note": 69,
      "start": 42.3466,
      "duration": 0.3664,
      "velocity": 90,
      "chip": "ym2612"
    },
    {
      "channel": 1,
      "note": 76,
      "start": 42.7128,
      "duration": 0.3668,
      "velocity": 90,
      "chip": "ym2612"
    },
    {
      "channel": 3,
      "note": 76,
      "start": 42.7133,
      "duration": 0.3667,
      "velocity": 90,
      "chip": "ym2612"
    },
    {
      "channel": 0,
      "note": 85,
      "start": 43.0795,
      "duration": 0.7165,
      "velocity": 90,
      "chip": "ym2612"
    },
    {
      "channel": 1,
      "note": 81,
      "start": 43.0799,
      "duration": 0.8295,
      "velocity": 90,
      "chip": "ym2612"
    },
    {
      "channel": 3,
      "note": 81,
      "start": 43.0803,
      "duration": 0.8295,
      "velocity": 90,
      "chip": "ym2612"
    },
    {
      "channel": 4,
      "note": 85,
      "start": 43.1966,
      "duration": 0.6085,
      "velocity": 90,
      "chip": "ym2612"
    },
    {
      "channel": 0,
      "note": 88,
      "start": 43.7962,
      "duration": 0.1129,
      "velocity": 90,
      "chip": "ym2612"
    },
    {
      "channel": 4,
      "note": 88,
      "start": 43.8053,
      "duration": 0.2208,
      "velocity": 90,
      "chip": "ym2612"
    },
    {
      "channel": 0,
      "note": 88,
      "start": 43.9093,
      "duration": 0.7165,
      "velocity": 90,
      "chip": "ym2612"
    },
    {
      "channel": 2,
      "note": 47,
      "start": 43.9098,
      "duration": 2.2784,
      "velocity": 114,
      "chip": "ym2612"
    },
    {
      "channel": 4,
      "note": 88,
      "start": 44.0264,
      "duration": 0.7166,
      "velocity": 90,
      "chip": "ym2612"
    },
    {
      "channel": 1,
      "note": 66,
      "start": 44.2761,
      "duration": 0.3499,
      "velocity": 90,
      "chip": "ym2612"
    },
    {
      "channel": 3,
      "note": 66,
      "start": 44.2765,
      "duration": 0.3499,
      "velocity": 90,
      "chip": "ym2612"
    },
    {
      "channel": 0,
      "note": 87,
      "start": 44.6259,
      "duration": 0.7166,
      "velocity": 90,
      "chip": "ym2612"
    },
    {
      "channel": 1,
      "note": 71,
      "start": 44.6262,
      "duration": 0.3663,
      "velocity": 90,
      "chip": "ym2612"
    },
    {
      "channel": 3,
      "note": 71,
      "start": 44.6267,
      "duration": 0.3663,
      "velocity": 90,
      "chip": "ym2612"
    },
    {
      "channel": 4,
      "note": 87,
      "start": 44.7432,
      "duration": 0.7331,
      "velocity": 90,
      "chip": "ym2612"
    },
    {
      "channel": 1,
      "note": 73,
      "start": 44.9927,
      "duration": 0.3501,
      "velocity": 90,
      "chip": "ym2612"
    },
    {
      "channel": 3,
      "note": 73,
      "start": 44.9932,
      "duration": 0.3501,
      "velocity": 90,
      "chip": "ym2612"
    },
    {
      "channel": 0,
      "note": 85,
      "start": 45.3427,
      "duration": 0.7332,
      "velocity": 90,
      "chip": "ym2612"
    },
    {
      "channel": 1,
      "note": 75,
      "start": 45.343,
      "duration": 0.8448,
      "velocity": 90,
      "chip": "ym2612"
    },
    {
      "channel": 3,
      "note": 75,
      "start": 45.3435,
      "duration": 0.8451,
      "velocity": 90,
      "chip": "ym2612"
    },
    {
      "channel": 4,
      "note": 85,
      "start": 45.4766,
      "duration": 0.6089,
      "velocity": 90,
      "chip": "ym2612"
    },
    {
      "channel": 0,
      "note": 83,
      "start": 46.0762,
      "duration": 1.5449,
      "velocity": 90,
      "chip": "ym2612"
    },
    {
      "channel": 4,
      "note": 83,
      "start": 46.0856,
      "duration": 1.6526,
      "velocity": 90,
      "chip": "ym2612"
    },
    {
      "channel": 1,
      "note": 88,
      "start": 46.1881,
      "duration": 0.3496,
      "velocity": 90,
      "chip": "ym2612"
    },
    {
      "channel": 2,
      "note": 57,
      "start": 46.1884,
      "duration": 2.1498,
      "velocity": 114,
      "chip": "ym2612"
    },
    {
      "channel": 3,
      "note": 85,
      "start": 46.1889,
      "duration": 0.3493,
      "velocity": 90,
      "chip": "ym2612"
    },
    {
      "channel": 1,
      "note": 81,
      "start": 46.5379,
      "duration": 0.3665,
      "velocity": 90,
      "chip": "ym2612"
    },
    {
      "channel": 3,
      "note": 81,
      "start": 46.5384,
      "duration": 0.3665,
      "velocity": 90,
      "chip": "ym2612"
    },
    {
      "channel": 1,
      "note": 88,
      "start": 46.9046,
      "duration": 0.3665,
      "velocity": 90,
      "chip": "ym2612"
    },
    {
      "channel": 3,
      "note": 85,
      "start": 46.9051,
      "duration": 0.3664,
      "velocity": 90,
      "chip": "ym2612"
    },
    {
      "channel": 1,
      "note": 81,
      "start": 47.2713,
      "duration": 0.3501,
      "velocity": 90,
      "chip": "ym2612"
    },
    {
      "channel": 3,
      "note": 81,
      "start": 47.2718,
      "duration": 0.3501,
      "velocity": 90,
      "chip": "ym2612"
    },
    {
      "channel": 0,
      "note": 85,
      "start": 47.6213,
      "duration": 0.4829,
      "velocity": 90,
      "chip": "ym2612"
    },
    {
      "channel": 1,
      "note": 88,
      "start": 47.6216,
      "duration": 0.3662,
      "velocity": 90,
      "chip": "ym2612"
    },
    {
      "channel": 3,
      "note": 85,
      "start": 47.622,
      "duration": 0.3661,
      "velocity": 90,
      "chip": "ym2612"
    },
    {
      "channel": 4,
      "note": 85,
      "start": 47.7384,
      "duration": 0.4831,
      "velocity": 90,
      "chip": "ym2612"
    },
    {
      "channel": 1,
      "note": 81,
      "start": 47.9879,
      "duration": 0.35,
      "velocity": 90,
      "chip": "ym2612"
    },
    {
      "channel": 3,
      "note": 81,
      "start": 47.9884,
      "duration": 0.3502,
      "velocity": 90,
      "chip": "ym2612"
    },
    {
      "channel": 0,
      "note": 84,
      "start": 48.1045,
      "duration": 0.2481,
      "velocity": 90,
      "chip": "ym2612"
    },
    {
      "channel": 4,
      "note": 84,
      "start": 48.2218,
      "duration": 0.1379,
      "velocity": 90,
      "chip": "ym2612"
    },
    {
      "channel": 1,
      "note": 88,
      "start": 48.3382,
      "duration": 0.0209,
      "velocity": 90,
      "chip": "ym2612"
    },
    {
      "channel": 2,
      "note": 57,
      "start": 48.3385,
      "duration": 0.1237,
      "velocity": 114,
      "chip": "ym2612"
    },
    {
      "channel": 3,
      "note": 85,
      "start": 48.3388,
      "duration": 0.0206,
      "velocity": 90,
      "chip": "ym2612"
    },
    {
      "channel": 0,
      "note": 85,
      "start": 48.3527,
      "duration": 0.1089,
      "velocity": 90,
      "chip": "ym2612"
    },
    {
      "channel": 1,
      "note": 81,
      "start": 48.3592,
      "duration": 0.1027,
      "velocity": 90,
      "chip": "ym2612"
    },
    {
      "channel": 3,
      "note": 81,
      "start": 48.3596,
      "duration": 0.1028,
      "velocity": 90,
      "chip": "ym2612"
    },
    {
      "channel": 4,
      "note": 85,
      "start": 48.3599,
      "duration": 0.219,
      "velocity": 90,
      "chip": "ym2612"
    },
    {
      "channel": 0,
      "note": 87,
      "start": 48.4618,
      "duration": 1.7998,
      "velocity": 90,
      "chip": "ym2612"
    },
    {
      "channel": 1,
      "note": 88,
      "start": 48.4621,
      "duration": 0.3496,
      "velocity": 90,
      "chip": "ym2612"
    },
    {
      "channel": 2,
      "note": 57,
      "start": 48.4624,
      "duration": 0.3497,
      "velocity": 114,
      "chip": "ym2612"
    },
    {
      "channel": 3,
      "note": 85,
      "start": 48.4627,
      "duration": 0.3496,
      "velocity": 90,
      "chip": "ym2612"
    },
    {
      "channel": 4,
      "note": 87,
      "start": 48.5791,
      "duration": 1.7998,
      "velocity": 90,
      "chip": "ym2612"
    },
    {
      "channel": 1,
      "note": 81,
      "start": 48.8119,
      "duration": 0.3665,
      "velocity": 90,
      "chip": "ym2612"
    },
    {
      "channel": 2,
      "note": 57,
      "start": 48.8122,
      "duration": 1.8,
      "velocity": 114,
      "chip": "ym2612"
    },
    {
      "channel": 3,
      "note": 81,
      "start": 48.8125,
      "duration": 0.3663,
      "velocity": 90,
      "chip": "ym2612"
    },
    {
      "channel": 1,
      "note": 88,
      "start": 49.1786,
      "duration": 0.3498,
      "velocity": 90,
      "chip": "ym2612"
    },
    {
      "channel": 3,
      "note": 85,
      "start": 49.1791,
      "duration": 0.3498,
      "velocity": 90,
      "chip": "ym2612"
    },
    {
      "channel": 1,
      "note": 81,
      "start": 49.5286,
      "duration": 0.3666,
      "velocity": 90,
      "chip": "ym2612"
    },
    {
      "channel": 3,
      "note": 81,
      "start": 49.529,
      "duration": 0.3666,
      "velocity": 90,
      "chip": "ym2612"
    },
    {
      "channel": 1,
      "note": 88,
      "start": 49.8954,
      "duration": 0.3664,
      "velocity": 90,
      "chip": "ym2612"
    },
    {
      "channel": 3,
      "note": 85,
      "start": 49.8959,
      "duration": 0.3664,
      "velocity": 90,
      "chip": "ym2612"
    },
    {
      "channel": 0,
      "note": 88,
      "start": 50.2618,
      "duration": 0.3713,
      "velocity": 90,
      "chip": "ym2612"
    },
    {
      "channel": 1,
      "note": 81,
      "start": 50.2621,
      "duration": 0.3498,
      "velocity": 90,
      "chip": "ym2612"
    },
    {
      "channel": 3,
      "note": 81,
      "start": 50.2626,
      "duration": 0.35,
      "velocity": 90,
      "chip": "ym2612"
    },
    {
      "channel": 4,
      "note": 88,
      "start": 50.3791,
      "duration": 0.261,
      "velocity": 90,
      "chip": "ym2612"
    },
    {
      "channel": 1,
      "note": 88,
      "start": 50.6122,
      "duration": 0.0211,
      "velocity": 90,
      "chip": "ym2612"
    },
    {
      "channel": 2,
      "note": 57,
      "start": 50.6125,
      "duration": 0.1073,
      "velocity": 114,
      "chip": "ym2612"
    },
    {
      "channel": 3,
      "note": 85,
      "start": 50.6127,
      "duration": 0.0209,
      "velocity": 90,
      "chip": "ym2612"
    },
    {
      "channel": 0,
      "note": 90,
      "start": 50.6332,
      "duration": 0.0861,
      "velocity": 90,
      "chip": "ym2612"
    },
    {
      "channel": 1,
      "note": 81,
      "start": 50.6334,
      "duration": 0.0861,
      "velocity": 90,
      "chip": "ym2612"
    },
    {
      "channel": 3,
      "note": 81,
      "start": 50.6338,
      "duration": 0.0863,
      "velocity": 90,
      "chip": "ym2612"
    },
    {
      "channel": 4,
      "note": 90,
      "start": 50.6402,
      "duration": 0.2129,
      "velocity": 90,
      "chip": "ym2612"
    },
    {
      "channel": 0,
      "note": 90,
      "start": 50.7195,
      "duration": 1.0832,
      "velocity": 90,
      "chip": "ym2612"
    },
    {
      "channel": 1,
      "note": 87,
      "start": 50.7197,
      "duration": 0.3663,
      "velocity": 90,
      "chip": "ym2612"
    },
    {
      "channel": 2,
      "note": 56,
      "start": 50.72,
      "duration": 2.1665,
      "velocity": 114,
      "chip": "ym2612"
    },
    {
      "channel": 3,
      "note": 83,
      "start": 50.7204,
      "duration": 0.3661,
      "velocity": 90,
      "chip": "ym2612"
    },
    {
      "channel": 4,
      "note": 90,
      "start": 50.8534,
      "duration": 1.0664,
      "velocity": 90,
      "chip": "ym2612"
    },
    {
      "channel": 1,
      "note": 80,
      "start": 51.0863,
      "duration": 0.3665,
      "velocity": 90,
      "chip": "ym2612"
    },
    {
      "channel": 3,
      "note": 80,
      "start": 51.0867,
      "duration": 0.3665,
      "velocity": 90,
      "chip": "ym2612"
    },
    {
      "channel": 1,
      "note": 87,
      "start": 51.4529,
      "duration": 0.3499,
      "velocity": 90,
      "chip": "ym2612"
    },
    {
      "channel": 3,
      "note": 83,
      "start": 51.4534,
      "duration": 0.3499,
      "velocity": 90,
      "chip": "ym2612"
    },
    {
      "channel": 0,
      "note": 92,
      "start": 51.8028,
      "duration": 1.1041,
      "velocity": 90,
      "chip": "ym2612"
    },
    {
      "channel": 1,
      "note": 80,
      "start": 51.8031,
      "duration": 0.3664,
      "velocity": 90,
      "chip": "ym2612"
    },
    {
      "channel": 3,
      "note": 80,
      "start": 51.8036,
      "duration": 0.3664,
      "velocity": 90,
      "chip": "ym2612"
    },
    {
      "channel": 4,
      "note": 92,
      "start": 51.9201,
      "duration": 0.9936,
      "velocity": 90,
      "chip": "ym2612"
    },
    {
      "channel": 1,
      "note": 87,
      "start": 52.1698,
      "duration": 0.3496,
      "velocity": 90,
      "chip": "ym2612"
    },
    {
      "channel": 3,
      "note": 83,
      "start": 52.1702,
      "duration": 0.3496,
      "velocity": 90,
      "chip": "ym2612"
    },
    {
      "channel": 1,
      "note": 80,
      "start": 52.5196,
      "duration": 0.3667,
      "velocity": 90,
      "chip": "ym2612"
    },
    {
      "channel": 3,
      "note": 80,
      "start": 52.5201,
      "duration": 0.3668,
      "velocity": 90,
      "chip": "ym2612"
    },
    {
      "channel": 1,
      "note": 87,
      "start": 52.8865,
      "duration": 0.0205,
      "velocity": 90,
      "chip": "ym2612"
    },
    {
      "channel": 2,
      "note": 56,
      "start": 52.8868,
      "duration": 0.1061,
      "velocity": 114,
      "chip": "ym2612"
    },
    {
      "channel": 3,
      "note": 83,
      "start": 52.8871,
      "duration": 0.0202,
      "velocity": 90,
      "chip": "ym2612"
    },
    {
      "channel": 0,
      "note": 92,
      "start": 52.9069,
      "duration": 0.4522,
      "velocity": 90,
      "chip": "ym2612"
    },
    {
      "channel": 1,
      "note": 80,
      "start": 52.9071,
      "duration": 0.0855,
      "velocity": 90,
      "chip": "ym2612"
    },
    {
      "channel": 3,
      "note": 80,
      "start": 52.9074,
      "duration": 0.0857,
      "velocity": 90,
      "chip": "ym2612"
    },
    {
      "channel": 4,
      "note": 92,
      "start": 52.9137,
      "duration": 0.5625,
      "velocity": 90,
      "chip": "ym2612"
    },
    {
      "channel": 1,
      "note": 87,
      "start": 52.9927,
      "duration": 0.3665,
      "velocity": 90,
      "chip": "ym2612"
    },
    {
      "channel": 2,
      "note": 56,
      "start": 52.9931,
      "duration": 0.3665,
      "velocity": 114,
      "chip": "ym2612"
    },
    {
      "channel": 3,
      "note": 83,
      "start": 52.9933,
      "duration": 0.3666,
      "velocity": 90,
      "chip": "ym2612"
    },
    {
      "channel": 1,
      "note": 80,
      "start": 53.3595,
      "duration": 0.3497,
      "velocity": 90,
      "chip": "ym2612"
    },
    {
      "channel": 2,
      "note": 56,
      "start": 53.3597,
      "duration": 1.8,
      "velocity": 114,
      "chip": "ym2612"
    },
    {
      "channel": 3,
      "note": 80,
      "start": 53.36,
      "duration": 0.3495,
      "velocity": 90,
      "chip": "ym2612"
    },
    {
      "channel": 1,
      "note": 87,
      "start": 53.7093,
      "duration": 0.3665,
      "velocity": 90,
      "chip": "ym2612"
    },
    {
      "channel": 3,
      "note": 83,
      "start": 53.7098,
      "duration": 0.3665,
      "velocity": 90,
      "chip": "ym2612"
    },
    {
      "channel": 1,
      "note": 80,
      "start": 54.076,
      "duration": 0.3666,
      "velocity": 90,
      "chip": "ym2612"
    },
    {
      "channel": 3,
      "note": 80,
      "start": 54.0765,
      "duration": 0.3666,
      "velocity": 90,
      "chip": "ym2612"
    },
    {
      "channel": 1,
      "note": 87,
      "start": 54.4428,
      "duration": 0.3499,
      "velocity": 90,
      "chip": "ym2612"
    },
    {
      "channel": 3,
      "note": 83,
      "start": 54.4433,
      "duration": 0.3498,
      "velocity": 90,
      "chip": "ym2612"
    },
    {
      "channel": 0,
      "note": 90,
      "start": 54.7926,
      "duration": 0.387,
      "velocity": 90,
      "chip": "ym2612"
    },
    {
      "channel": 1,
      "note": 80,
      "start": 54.7929,
      "duration": 0.3665,
      "velocity": 90,
      "chip": "ym2612"
    },
    {
      "channel": 3,
      "note": 80,
      "start": 54.7934,
      "duration": 0.3667,
      "velocity": 90,
      "chip": "ym2612"
    },
    {
      "channel": 4,
      "note": 90,
      "start": 54.9099,
      "duration": 0.278,
      "velocity": 90,
      "chip": "ym2612"
    },
    {
      "channel": 1,
      "note": 87,
      "start": 55.1597,
      "duration": 0.0201,
      "velocity": 90,
      "chip": "ym2612"
    },
    {
      "channel": 2,
      "note": 56,
      "start": 55.16,
      "duration": 0.1078,
      "velocity": 114,
      "chip": "ym2612"
    },
    {
      "channel": 3,
      "note": 83,
      "start": 55.1603,
      "duration": 0.0198,
      "velocity": 90,
      "chip": "ym2612"
    },
    {
      "channel": 0,
      "note": 92,
      "start": 55.1797,
      "duration": 0.0874,
      "velocity": 90,
      "chip": "ym2612"
    },
    {
      "channel": 1,
      "note": 80,
      "start": 55.18,
      "duration": 0.0875,
      "velocity": 90,
      "chip": "ym2612"
    },
    {
      "channel": 3,
      "note": 80,
      "start": 55.1803,
      "duration": 0.0879,
      "velocity": 90,
      "chip": "ym2612"
    },
    {
      "channel": 4,
      "note": 92,
      "start": 55.188,
      "duration": 0.1963,
      "velocity": 90,
      "chip": "ym2612"
    },
    {
      "channel": 0,
      "note": 93,
      "start": 55.2673,
      "duration": 1.4333,
      "velocity": 90,
      "chip": "ym2612"
    },
    {
      "channel": 1,
      "note": 88,
      "start": 55.2677,
      "duration": 0.3662,
      "velocity": 90,
      "chip": "ym2612"
    },
    {
      "channel": 2,
      "note": 57,
      "start": 55.268,
      "duration": 2.1664,
      "velocity": 114,
      "chip": "ym2612"
    },
    {
      "channel": 3,
      "note": 85,
      "start": 55.2684,
      "duration": 0.366,
      "velocity": 90,
      "chip": "ym2612"
    },
    {
      "channel": 4,
      "note": 93,
      "start": 55.3846,
      "duration": 1.4498,
      "velocity": 90,
      "chip": "ym2612"
    },
    {
      "channel": 1,
      "note": 81,
      "start": 55.6341,
      "duration": 0.3498,
      "velocity": 90,
      "chip": "ym2612"
    },
    {
      "channel": 3,
      "note": 81,
      "start": 55.6346,
      "duration": 0.3498,
      "velocity": 90,
      "chip": "ym2612"
    },
    {
      "channel": 1,
      "note": 88,
      "start": 55.9841,
      "duration": 0.3665,
      "velocity": 90,
      "chip": "ym2612"
    },
    {
      "channel": 3,
      "note": 85,
      "start": 55.9846,
      "duration": 0.3664,
      "velocity": 90,
      "chip": "ym2612"
    },
    {
      "channel": 1,
      "note": 81,
      "start": 56.3508,
      "duration": 0.3501,
      "velocity": 90,
      "chip": "ym2612"
    },
    {
      "channel": 3,
      "note": 81,
      "start": 56.3513,
      "duration": 0.3501,
      "velocity": 90,
      "chip": "ym2612"
    },
    {
      "channel": 0,
      "note": 100,
      "start": 56.7009,
      "duration": 2.2737,
      "velocity": 90,
      "chip": "ym2612"
    },
    {
      "channel": 1,
      "note": 88,
      "start": 56.7011,
      "duration": 0.3662,
      "velocity": 90,
      "chip": "ym2612"
    },
    {
      "channel": 3,
      "note": 85,
      "start": 56.7016,
      "duration": 0.3661,
      "velocity": 90,
      "chip": "ym2612"
    },
    {
      "channel": 4,
      "note": 100,
      "start": 56.8346,
      "duration": 2.2571,
      "velocity": 90,
      "chip": "ym2612"
    },
    {
      "channel": 1,
      "note": 81,
      "start": 57.0675,
      "duration": 0.3667,
      "velocity": 90,
      "chip": "ym2612"
    },
    {
      "channel": 3,
      "note": 81,
      "start": 57.0679,
      "duration": 0.3668,
      "velocity": 90,
      "chip": "ym2612"
    },
    {
      "channel": 1,
      "note": 88,
      "start": 57.4344,
      "duration": 0.0197,
      "velocity": 90,
      "chip": "ym2612"
    },
    {
      "channel": 2,
      "note": 57,
      "start": 57.4347,
      "duration": 0.1069,
      "velocity": 114,
      "chip": "ym2612"
    },
    {
      "channel": 3,
      "note": 85,
      "start": 57.435,
      "duration": 0.0195,
      "velocity": 90,
      "chip": "ym2612"
    },
    {
      "channel": 1,
      "note": 81,
      "start": 57.4543,
      "duration": 0.087,
      "velocity": 90,
      "chip": "ym2612"
    },
    {
      "channel": 3,
      "note": 81,
      "start": 57.4547,
      "duration": 0.0871,
      "velocity": 90,
      "chip": "ym2612"
    },
    {
      "channel": 1,
      "note": 88,
      "start": 57.5415,
      "duration": 0.3498,
      "velocity": 90,
      "chip": "ym2612"
    },
    {
      "channel": 2,
      "note": 57,
      "start": 57.5418,
      "duration": 0.3498,
      "velocity": 114,
      "chip": "ym2612"
    },
    {
      "channel": 3,
      "note": 85,
      "start": 57.542,
      "duration": 0.3498,
      "velocity": 90,
      "chip": "ym2612"
    },
    {
      "channel": 1,
      "note": 81,
      "start": 57.8915,
      "duration": 0.3665,
      "velocity": 90,
      "chip": "ym2612"
    },
    {
      "channel": 2,
      "note": 57,
      "start": 57.8918,
      "duration": 1.8,
      "velocity": 114,
      "chip": "ym2612"
    },
    {
      "channel": 3,
      "note": 81,
      "start": 57.892,
      "duration": 0.3663,
      "velocity": 90,
      "chip": "ym2612"
    },
    {
      "channel": 1,
      "note": 88,
      "start": 58.2581,
      "duration": 0.3665,
      "velocity": 90,
      "chip": "ym2612"
    },
    {
      "channel": 3,
      "note": 85,
      "start": 58.2586,
      "duration": 0.3665,
      "velocity": 90,
      "chip": "ym2612"
    },
    {
      "channel": 1,
      "note": 81,
      "start": 58.6248,
      "duration": 0.3501,
      "velocity": 90,
      "chip": "ym2612"
    },
    {
      "channel": 3,
      "note": 81,
      "start": 58.6252,
      "duration": 0.3501,
      "velocity": 90,
      "chip": "ym2612"
    },
    {
      "channel": 0,
      "note": 100,
      "start": 58.9749,
      "duration": 0.4829,
      "velocity": 90,
      "chip": "ym2612"
    },
    {
      "channel": 1,
      "note": 88,
      "start": 58.9751,
      "duration": 0.3662,
      "velocity": 90,
      "chip": "ym2612"
    },
    {
      "channel": 3,
      "note": 85,
      "start": 58.9756,
      "duration": 0.3661,
      "velocity": 90,
      "chip": "ym2612"
    },
    {
      "channel": 4,
      "note": 100,
      "start": 59.092,
      "duration": 0.4831,
      "velocity": 90,
      "chip": "ym2612"
    },
    {
      "channel": 1,
      "note": 81,
      "start": 59.3415,
      "duration": 0.35,
      "velocity": 90,
      "chip": "ym2612"
    },
    {
      "channel": 3,
      "note": 81,
      "start": 59.3419,
      "duration": 0.3502,
      "velocity": 90,
      "chip": "ym2612"
    },
    {
      "channel": 0,
      "note": 99,
      "start": 59.458,
      "duration": 0.2481,
      "velocity": 90,
      "chip": "ym2612"
    },
    {
      "channel": 4,
      "note": 99,
      "start": 59.5753,
      "duration": 0.1379,
      "velocity": 90,
      "chip": "ym2612"
    },
    {
      "channel": 1,
      "note": 88,
      "start": 59.6917,
      "duration": 0.0209,
      "velocity": 90,
      "chip": "ym2612"
    },
    {
      "channel": 2,
      "note": 57,
      "start": 59.692,
      "duration": 0.1237,
      "velocity": 114,
      "chip": "ym2612"
    },
    {
      "channel": 3,
      "note": 85,
      "start": 59.6923,
      "duration": 0.0206,
      "velocity": 90,
      "chip": "ym2612"
    },
    {
      "channel": 0,
      "note": 100,
      "start": 59.7062,
      "duration": 0.1089,
      "velocity": 90,
      "chip": "ym2612"
    },
    {
      "channel": 1,
      "note": 81,
      "start": 59.7127,
      "duration": 0.1027,
      "velocity": 90,
      "chip": "ym2612"
    },
    {
      "channel": 3,
      "note": 81,
      "start": 59.7132,
      "duration": 0.1029,
      "velocity": 90,
      "chip": "ym2612"
    },
    {
      "channel": 4,
      "note": 100,
      "start": 59.7134,
      "duration": 0.219,
      "velocity": 90,
      "chip": "ym2612"
    },
    {
      "channel": 0,
      "note": 95,
      "start": 59.8153,
      "duration": 2.2579,
      "velocity": 90,
      "chip": "ym2612"
    },
    {
      "channel": 1,
      "note": 87,
      "start": 59.8156,
      "duration": 0.3496,
      "velocity": 90,
      "chip": "ym2612"
    },
    {
      "channel": 2,
      "note": 56,
      "start": 59.8159,
      "duration": 2.1498,
      "velocity": 114,
      "chip": "ym2612"
    },
    {
      "channel": 3,
      "note": 83,
      "start": 59.8162,
      "duration": 0.3495,
      "velocity": 90,
      "chip": "ym2612"
    },
    {
      "channel": 4,
      "note": 95,
      "start": 59.9326,
      "duration": 2.2746,
      "velocity": 90,
      "chip": "ym2612"
    },
    {
      "channel": 1,
      "note": 80,
      "start": 60.1654,
      "duration": 0.3665,
      "velocity": 90,
      "chip": "ym2612"
    },
    {
      "channel": 3,
      "note": 80,
      "start": 60.1659,
      "duration": 0.3664,
      "velocity": 90,
      "chip": "ym2612"
    },
    {
      "channel": 1,
      "note": 87,
      "start": 60.5321,
      "duration": 0.3498,
      "velocity": 90,
      "chip": "ym2612"
    },
    {
      "channel": 3,
      "note": 83,
      "start": 60.5326,
      "duration": 0.3498,
      "velocity": 90,
      "chip": "ym2612"
    },
    {
      "channel": 1,
      "note": 80,
      "start": 60.8821,
      "duration": 0.3666,
      "velocity": 90,
      "chip": "ym2612"
    },
    {
      "channel": 3,
      "note": 80,
      "start": 60.8826,
      "duration": 0.3666,
      "velocity": 90,
      "chip": "ym2612"
    },
    {
      "channel": 1,
      "note": 87,
      "start": 61.249,
      "duration": 0.3663,
      "velocity": 90,
      "chip": "ym2612"
    },
    {
      "channel": 3,
      "note": 83,
      "start": 61.2494,
      "duration": 0.3663,
      "velocity": 90,
      "chip": "ym2612"
    },
    {
      "channel": 1,
      "note": 80,
      "start": 61.6154,
      "duration": 0.35,
      "velocity": 90,
      "chip": "ym2612"
    },
    {
      "channel": 3,
      "note": 80,
      "start": 61.6159,
      "duration": 0.3501,
      "velocity": 90,
      "chip": "ym2612"
    },
    {
      "channel": 1,
      "note": 87,
      "start": 61.9657,
      "duration": 0.021,
      "velocity": 90,
      "chip": "ym2612"
    },
    {
      "channel": 2,
      "note": 56,
      "start": 61.966,
      "duration": 0.1076,
      "velocity": 114,
      "chip": "ym2612"
    },
    {
      "channel": 3,
      "note": 83,
      "start": 61.9663,
      "duration": 0.0208,
      "velocity": 90,
      "chip": "ym2612"
    },
    {
      "channel": 1,
      "note": 80,
      "start": 61.9868,
      "duration": 0.0865,
      "velocity": 90,
      "chip": "ym2612"
    },
    {
      "channel": 3,
      "note": 80,
      "start": 61.9872,
      "duration": 0.0866,
      "velocity": 90,
      "chip": "ym2612"
    },
    {
      "channel": 0,
      "note": 95,
      "start": 62.0732,
      "duration": 1.45,
      "velocity": 90,
      "chip": "ym2612"
    },
    {
      "channel": 1,
      "note": 87,
      "start": 62.0735,
      "duration": 0.3663,
      "velocity": 90,
      "chip": "ym2612"
    },
    {
      "channel": 2,
      "note": 56,
      "start": 62.0738,
      "duration": 0.3664,
      "velocity": 114,
      "chip": "ym2612"
    },
    {
      "channel": 3,
      "note": 83,
      "start": 62.0741,
      "duration": 0.3663,
      "velocity": 90,
      "chip": "ym2612"
    },
    {
      "channel": 4,
      "note": 95,
      "start": 62.2072,
      "duration": 1.4331,
      "velocity": 90,
      "chip": "ym2612"
    },
    {
      "channel": 1,
      "note": 80,
      "start": 62.4401,
      "duration": 0.3665,
      "velocity": 90,
      "chip": "ym2612"
    },
    {
      "channel": 2,
      "note": 56,
      "start": 62.4404,
      "duration": 1.7999,
      "velocity": 114,
      "chip": "ym2612"
    },
    {
      "channel": 3,
      "note": 80,
      "start": 62.4406,
      "duration": 0.3663,
      "velocity": 90,
      "chip": "ym2612"
    },
    {
      "channel": 1,
      "note": 87,
      "start": 62.8067,
      "duration": 0.3498,
      "velocity": 90,
      "chip": "ym2612"
    },
    {
      "channel": 3,
      "note": 83,
      "start": 62.8072,
      "duration": 0.3498,
      "velocity": 90,
      "chip": "ym2612"
    },
    {
      "channel": 1,
      "note": 80,
      "start": 63.1567,
      "duration": 0.3667,
      "velocity": 90,
      "chip": "ym2612"
    },
    {
      "channel": 3,
      "note": 80,
      "start": 63.1572,
      "duration": 0.3666,
      "velocity": 90,
      "chip": "ym2612"
    },
    {
      "channel": 1,
      "note": 87,
      "start": 63.5236,
      "duration": 0.3496,
      "velocity": 90,
      "chip": "ym2612"
    },
    {
      "channel": 3,
      "note": 83,
      "start": 63.5241,
      "duration": 0.3495,
      "velocity": 90,
      "chip": "ym2612"
    },
    {
      "channel": 1,
      "note": 80,
      "start": 63.8733,
      "duration": 0.3667,
      "velocity": 90,
      "chip": "ym2612"
    },
    {
      "channel": 3,
      "note": 80,
      "start": 63.8738,
      "duration": 0.3668,
      "velocity": 90,
      "chip": "ym2612"
    },
    {
      "channel": 1,
      "note": 87,
      "start": 64.2402,
      "duration": 0.0167,
      "velocity": 90,
      "chip": "ym2612"
    },
    {
      "channel": 2,
      "note": 56,
      "start": 64.2405,
      "duration": 0.1034,
      "velocity": 114,
      "chip": "ym2612"
    },
    {
      "channel": 3,
      "note": 83,
      "start": 64.2408,
      "duration": 0.0163,
      "velocity": 90,
      "chip": "ym2612"
    },
    {
      "channel": 1,
      "note": 80,
      "start": 64.257,
      "duration": 0.0866,
      "velocity": 90,
      "chip": "ym2612"
    },
    {
      "channel": 3,
      "note": 80,
      "start": 64.2573,
      "duration": 0.0871,
      "velocity": 90,
      "chip": "ym2612"
    },
    {
      "channel": 1,
      "note": 88,
      "start": 64.3439,
      "duration": 0.3663,
      "velocity": 90,
      "chip": "ym2612"
    },
    {
      "channel": 2,
      "note": 57,
      "start": 64.3442,
      "duration": 2.1665,
      "velocity": 114,
      "chip": "ym2612"
    },
    {
      "channel": 3,
      "note": 85,
      "start": 64.3446,
      "duration": 0.366,
      "velocity": 90,
      "chip": "ym2612"
    },
    {
      "channel": 1,
      "note": 81,
      "start": 64.7103,
      "duration": 0.3498,
      "velocity": 90,
      "chip": "ym2612"
    },
    {
      "channel": 3,
      "note": 81,
      "start": 64.7108,
      "duration": 0.3498,
      "velocity": 90,
      "chip": "ym2612"
    },
    {
      "channel": 1,
      "note": 88,
      "start": 65.0603,
      "duration": 0.3667,
      "velocity": 90,
      "chip": "ym2612"
    },
    {
      "channel": 3,
      "note": 85,
      "start": 65.0608,
      "duration": 0.3667,
      "velocity": 90,
      "chip": "ym2612"
    },
    {
      "channel": 0,
      "note": 85,
      "start": 65.4269,
      "duration": 0.1832,
      "velocity": 90,
      "chip": "ym2612"
    },
    {
      "channel": 1,
      "note": 81,
      "start": 65.4273,
      "duration": 0.3666,
      "velocity": 90,
      "chip": "ym2612"
    },
    {
      "channel": 3,
      "note": 81,
      "start": 65.4277,
      "duration": 0.3666,
      "velocity": 90,
      "chip": "ym2612"
    },
    {
      "channel": 4,
      "note": 85,
      "start": 65.5442,
      "duration": 0.183,
      "velocity": 90,
      "chip": "ym2612"
    },
    {
      "channel": 0,
      "note": 85,
      "start": 65.7938,
      "duration": 0.4663,
      "velocity": 90,
      "chip": "ym2612"
    },
    {
      "channel": 1,
      "note": 88,
      "start": 65.7941,
      "duration": 0.3495,
      "velocity": 90,
      "chip": "ym2612"
    },
    {
      "channel": 3,
      "note": 85,
      "start": 65.7945,
      "duration": 0.3495,
      "velocity": 90,
      "chip": "ym2612"
    },
    {
      "channel": 4,
      "note": 85,
      "start": 65.9109,
      "duration": 0.4831,
      "velocity": 90,
      "chip": "ym2612"
    },
    {
      "channel": 1,
      "note": 81,
      "start": 66.1437,
      "duration": 0.3667,
      "velocity": 90,
      "chip": "ym2612"
    },
    {
      "channel": 3,
      "note": 81,
      "start": 66.1442,
      "duration": 0.3668,
      "velocity": 90,
      "chip": "ym2612"
    },
    {
      "channel": 0,
      "note": 84,
      "start": 66.2603,
      "duration": 0.2646,
      "velocity": 90,
      "chip": "ym2612"
    },
    {
      "channel": 4,
      "note": 84,
      "start": 66.3942,
      "duration": 0.1373,
      "velocity": 90,
      "chip": "ym2612"
    },
    {
      "channel": 1,
      "note": 88,
      "start": 66.5107,
      "duration": 0.0203,
      "velocity": 90,
      "chip": "ym2612"
    },
    {
      "channel": 2,
      "note": 57,
      "start": 66.511,
      "duration": 0.1072,
      "velocity": 114,
      "chip": "ym2612"
    },
    {
      "channel": 3,
      "note": 85,
      "start": 66.5112,
      "duration": 0.02,
      "velocity": 90,
      "chip": "ym2612"
    },
    {
      "channel": 0,
      "note": 85,
      "start": 66.5251,
      "duration": 0.0925,
      "velocity": 90,
      "chip": "ym2612"
    },
    {
      "channel": 1,
      "note": 81,
      "start": 66.5311,
      "duration": 0.0867,
      "velocity": 90,
      "chip": "ym2612"
    },
    {
      "channel": 3,
      "note": 81,
      "start": 66.5315,
      "duration": 0.0869,
      "velocity": 90,
      "chip": "ym2612"
    },
    {
      "channel": 4,
      "note": 85,
      "start": 66.5318,
      "duration": 0.203,
      "velocity": 90,
      "chip": "ym2612"
    },
    {
      "channel": 0,
      "note": 87,
      "start": 66.6178,
      "duration": 1.7998,
      "velocity": 90,
      "chip": "ym2612"
    },
    {
      "channel": 1,
      "note": 88,
      "start": 66.6181,
      "duration": 0.3663,
      "velocity": 90,
      "chip": "ym2612"
    },
    {
      "channel": 2,
      "note": 57,
      "start": 66.6183,
      "duration": 0.3663,
      "velocity": 114,
      "chip": "ym2612"
    },
    {
      "channel": 3,
      "note": 85,
      "start": 66.6187,
      "duration": 0.3663,
      "velocity": 90,
      "chip": "ym2612"
    },
    {
      "channel": 4,
      "note": 87,
      "start": 66.7351,
      "duration": 1.7998,
      "velocity": 90,
      "chip": "ym2612"
    },
    {
      "channel": 1,
      "note": 81,
      "start": 66.9846,
      "duration": 0.3498,
      "velocity": 90,
      "chip": "ym2612"
    },
    {
      "channel": 2,
      "note": 57,
      "start": 66.9849,
      "duration": 1.8,
      "velocity": 114,
      "chip": "ym2612"
    },
    {
      "channel": 3,
      "note": 81,
      "start": 66.9851,
      "duration": 0.3497,
      "velocity": 90,
      "chip": "ym2612"
    },
    {
      "channel": 1,
      "note": 88,
      "start": 67.3346,
      "duration": 0.3665,
      "velocity": 90,
      "chip": "ym2612"
    },
    {
      "channel": 3,
      "note": 85,
      "start": 67.3351,
      "duration": 0.3664,
      "velocity": 90,
      "chip": "ym2612"
    },
    {
      "channel": 1,
      "note": 81,
      "start": 67.7012,
      "duration": 0.3499,
      "velocity": 90,
      "chip": "ym2612"
    },
    {
      "channel": 3,
      "note": 81,
      "start": 67.7017,
      "duration": 0.3499,
      "velocity": 90,
      "chip": "ym2612"
    },
    {
      "channel": 1,
      "note": 88,
      "start": 68.0514,
      "duration": 0.3664,
      "velocity": 90,
      "chip": "ym2612"
    },
    {
      "channel": 3,
      "note": 85,
      "start": 68.0519,
      "duration": 0.3664,
      "velocity": 90,
      "chip": "ym2612"
    },
    {
      "channel": 0,
      "note": 88,
      "start": 68.4178,
      "duration": 0.3867,
      "velocity": 90,
      "chip": "ym2612"
    },
    {
      "channel": 1,
      "note": 81,
      "start": 68.4181,
      "duration": 0.3665,
      "velocity": 90,
      "chip": "ym2612"
    },
    {
      "channel": 3,
      "note": 81,
      "start": 68.4185,
      "duration": 0.3667,
      "velocity": 90,
      "chip": "ym2612"
    },
    {
      "channel": 4,
      "note": 88,
      "start": 68.5351,
      "duration": 0.2761,
      "velocity": 90,
      "chip": "ym2612"
    },
    {
      "channel": 1,
      "note": 88,
      "start": 68.7848,
      "duration": 0.0199,
      "velocity": 90,
      "chip": "ym2612"
    },
    {
      "channel": 2,
      "note": 57,
      "start": 68.7851,
      "duration": 0.1065,
      "velocity": 114,
      "chip": "ym2612"
    },
    {
      "channel": 3,
      "note": 85,
      "start": 68.7854,
      "duration": 0.0196,
      "velocity": 90,
      "chip": "ym2612"
    },
    {
      "channel": 0,
      "note": 90,
      "start": 68.8046,
      "duration": 0.0865,
      "velocity": 90,
      "chip": "ym2612"
    },
    {
      "channel": 1,
      "note": 81,
      "start": 68.8049,
      "duration": 0.0865,
      "velocity": 90,
      "chip": "ym2612"
    },
    {
      "channel": 3,
      "note": 81,
      "start": 68.8052,
      "duration": 0.0868,
      "velocity": 90,
      "chip": "ym2612"
    },
    {
      "channel": 4,
      "note": 90,
      "start": 68.8114,
      "duration": 0.197,
      "velocity": 90,
      "chip": "ym2612"
    },
    {
      "channel": 0,
      "note": 90,
      "start": 68.8913,
      "duration": 1.0832,
      "velocity": 90,
      "chip": "ym2612"
    },
    {
      "channel": 1,
      "note": 87,
      "start": 68.8916,
      "duration": 0.3497,
      "velocity": 90,
      "chip": "ym2612"
    },
    {
      "channel": 2,
      "note": 56,
      "start": 68.8919,
      "duration": 2.1499,
      "velocity": 114,
      "chip": "ym2612"
    },
    {
      "channel": 3,
      "note": 83,
      "start": 68.8922,
      "duration": 0.3495,
      "velocity": 90,
      "chip": "ym2612"
    },
    {
      "channel": 4,
      "note": 90,
      "start": 69.0086,
      "duration": 1.0831,
      "velocity": 90,
      "chip": "ym2612"
    },
    {
      "channel": 1,
      "note": 80,
      "start": 69.2415,
      "duration": 0.3665,
      "velocity": 90,
      "chip": "ym2612"
    },
    {
      "channel": 3,
      "note": 80,
      "start": 69.242,
      "duration": 0.3664,
      "velocity": 90,
      "chip": "ym2612"
    },
    {
      "channel": 1,
      "note": 87,
      "start": 69.6081,
      "duration": 0.3666,
      "velocity": 90,
      "chip": "ym2612"
    },
    {
      "channel": 3,
      "note": 83,
      "start": 69.6086,
      "duration": 0.3666,
      "velocity": 90,
      "chip": "ym2612"
    },
    {
      "channel": 0,
      "note": 92,
      "start": 69.9747,
      "duration": 1.0871,
      "velocity": 90,
      "chip": "ym2612"
    },
    {
      "channel": 1,
      "note": 80,
      "start": 69.975,
      "duration": 0.3498,
      "velocity": 90,
      "chip": "ym2612"
    },
    {
      "channel": 3,
      "note": 80,
      "start": 69.9754,
      "duration": 0.3498,
      "velocity": 90,
      "chip": "ym2612"
    },
    {
      "channel": 4,
      "note": 92,
      "start": 70.092,
      "duration": 0.9776,
      "velocity": 90,
      "chip": "ym2612"
    },
    {
      "channel": 1,
      "note": 87,
      "start": 70.325,
      "duration": 0.3663,
      "velocity": 90,
      "chip": "ym2612"
    },
    {
      "channel": 3,
      "note": 83,
      "start": 70.3254,
      "duration": 0.3663,
      "velocity": 90,
      "chip": "ym2612"
    },
    {
      "channel": 1,
      "note": 80,
      "start": 70.6915,
      "duration": 0.35,
      "velocity": 90,
      "chip": "ym2612"
    },
    {
      "channel": 3,
      "note": 80,
      "start": 70.692,
      "duration": 0.3501,
      "velocity": 90,
      "chip": "ym2612"
    },
    {
      "channel": 1,
      "note": 87,
      "start": 71.0417,
      "duration": 0.02,
      "velocity": 90,
      "chip": "ym2612"
    },
    {
      "channel": 2,
      "note": 56,
      "start": 71.042,
      "duration": 0.1236,
      "velocity": 114,
      "chip": "ym2612"
    },
    {
      "channel": 3,
      "note": 83,
      "start": 71.0424,
      "duration": 0.0198,
      "velocity": 90,
      "chip": "ym2612"
    },
    {
      "channel": 0,
      "note": 92,
      "start": 71.0617,
      "duration": 0.4534,
      "velocity": 90,
      "chip": "ym2612"
    },
    {
      "channel": 1,
      "note": 80,
      "start": 71.0619,
      "duration": 0.1034,
      "velocity": 90,
      "chip": "ym2612"
    },
    {
      "channel": 3,
      "note": 80,
      "start": 71.0622,
      "duration": 0.1037,
      "velocity": 90,
      "chip": "ym2612"
    },
    {
      "channel": 4,
      "note": 92,
      "start": 71.0695,
      "duration": 0.5628,
      "velocity": 90,
      "chip": "ym2612"
    },
    {
      "channel": 1,
      "note": 87,
      "start": 71.1655,
      "duration": 0.3499,
      "velocity": 90,
      "chip": "ym2612"
    },
    {
      "channel": 2,
      "note": 56,
      "start": 71.1658,
      "duration": 0.3498,
      "velocity": 114,
      "chip": "ym2612"
    },
    {
      "channel": 3,
      "note": 83,
      "start": 71.1661,
      "duration": 0.3499,
      "velocity": 90,
      "chip": "ym2612"
    },
    {
      "channel": 1,
      "note": 80,
      "start": 71.5156,
      "duration": 0.3663,
      "velocity": 90,
      "chip": "ym2612"
    },
    {
      "channel": 2,
      "note": 56,
      "start": 71.5158,
      "duration": 1.8,
      "velocity": 114,
      "chip": "ym2612"
    },
    {
      "channel": 3,
      "note": 80,
      "start": 71.5161,
      "duration": 0.3662,
      "velocity": 90,
      "chip": "ym2612"
    },
    {
      "channel": 1,
      "note": 87,
      "start": 71.8821,
      "duration": 0.3498,
      "velocity": 90,
      "chip": "ym2612"
    },
    {
      "channel": 3,
      "note": 83,
      "start": 71.8825,
      "duration": 0.3498,
      "velocity": 90,
      "chip": "ym2612"
    },
    {
      "channel": 1,
      "note": 80,
      "start": 72.2321,
      "duration": 0.3666,
      "velocity": 90,
      "chip": "ym2612"
    },
    {
      "channel": 3,
      "note": 80,
      "start": 72.2325,
      "duration": 0.3666,
      "velocity": 90,
      "chip": "ym2612"
    },
    {
      "channel": 1,
      "note": 87,
      "start": 72.5989,
      "duration": 0.3665,
      "velocity": 90,
      "chip": "ym2612"
    },
    {
      "channel": 3,
      "note": 83,
      "start": 72.5994,
      "duration": 0.3665,
      "velocity": 90,
      "chip": "ym2612"
    },
    {
      "channel": 0,
      "note": 90,
      "start": 72.9654,
      "duration": 0.3713,
      "velocity": 90,
      "chip": "ym2612"
    },
    {
      "channel": 1,
      "note": 80,
      "start": 72.9657,
      "duration": 0.3498,
      "velocity": 90,
      "chip": "ym2612"
    },
    {
      "channel": 3,
      "note": 80,
      "start": 72.9661,
      "duration": 0.35,
      "velocity": 90,
      "chip": "ym2612"
    },
    {
      "channel": 4,
      "note": 90,
      "start": 73.0827,
      "duration": 0.2609,
      "velocity": 90,
      "chip": "ym2612"
    },
    {
      "channel": 1,
      "note": 87,
      "start": 73.3157,
      "duration": 0.0211,
      "velocity": 90,
      "chip": "ym2612"
    },
    {
      "channel": 2,
      "note": 56,
      "start": 73.3161,
      "duration": 0.1074,
      "velocity": 114,
      "chip": "ym2612"
    },
    {
      "channel": 3,
      "note": 83,
      "start": 73.3163,
      "duration": 0.0209,
      "velocity": 90,
      "chip": "ym2612"
    },
    {
      "channel": 0,
      "note": 92,
      "start": 73.3368,
      "duration": 0.086,
      "velocity": 90,
      "chip": "ym2612"
    },
    {
      "channel": 1,
      "note": 80,
      "start": 73.337,
      "duration": 0.0861,
      "velocity": 90,
      "chip": "ym2612"
    },
    {
      "channel": 3,
      "note": 80,
      "start": 73.3374,
      "duration": 0.0863,
      "velocity": 90,
      "chip": "ym2612"
    },
    {
      "channel": 4,
      "note": 92,
      "start": 73.3438,
      "duration": 0.2129,
      "velocity": 90,
      "chip": "ym2612"
    },
    {
      "channel": 0,
      "note": 88,
      "start": 73.423,
      "duration": 2.2741,
      "velocity": 90,
      "chip": "ym2612"
    },
    {
      "channel": 1,
      "note": 88,
      "start": 73.4234,
      "duration": 0.3662,
      "velocity": 90,
      "chip": "ym2612"
    },
    {
      "channel": 2,
      "note": 57,
      "start": 73.4237,
      "duration": 2.1664,
      "velocity": 114,
      "chip": "ym2612"
    },
    {
      "channel": 3,
      "note": 85,
      "start": 73.424,
      "duration": 0.366,
      "velocity": 90,
      "chip": "ym2612"
    },
    {
      "channel": 4,
      "note": 88,
      "start": 73.5569,
      "duration": 2.2573,
      "velocity": 90,
      "chip": "ym2612"
    },
    {
      "channel": 1,
      "note": 81,
      "start": 73.7898,
      "duration": 0.3665,
      "velocity": 90,
      "chip": "ym2612"
    },
    {
      "channel": 3,
      "note": 81,
      "start": 73.7902,
      "duration": 0.3665,
      "velocity": 90,
      "chip": "ym2612"
    },
    {
      "channel": 1,
      "note": 88,
      "start": 74.1564,
      "duration": 0.3498,
      "velocity": 90,
      "chip": "ym2612"
    },
    {
      "channel": 3,
      "note": 85,
      "start": 74.1569,
      "duration": 0.3498,
      "velocity": 90,
      "chip": "ym2612"
    },
    {
      "channel": 1,
      "note": 81,
      "start": 74.5064,
      "duration": 0.3666,
      "velocity": 90,
      "chip": "ym2612"
    },
    {
      "channel": 3,
      "note": 81,
      "start": 74.5069,
      "duration": 0.3666,
      "velocity": 90,
      "chip": "ym2612"
    },
    {
      "channel": 1,
      "note": 88,
      "start": 74.8733,
      "duration": 0.3496,
      "velocity": 90,
      "chip": "ym2612"
    },
    {
      "channel": 3,
      "note": 85,
      "start": 74.8737,
      "duration": 0.3496,
      "velocity": 90,
      "chip": "ym2612"
    },
    {
      "channel": 1,
      "note": 81,
      "start": 75.2231,
      "duration": 0.3667,
      "velocity": 90,
      "chip": "ym2612"
    },
    {
      "channel": 3,
      "note": 81,
      "start": 75.2236,
      "duration": 0.3668,
      "velocity": 90,
      "chip": "ym2612"
    },
    {
      "channel": 1,
      "note": 88,
      "start": 75.59,
      "duration": 0.021,
      "velocity": 90,
      "chip": "ym2612"
    },
    {
      "channel": 2,
      "note": 57,
      "start": 75.5903,
      "duration": 0.1073,
      "velocity": 114,
      "chip": "ym2612"
    },
    {
      "channel": 3,
      "note": 85,
      "start": 75.5907,
      "duration": 0.0207,
      "velocity": 90,
      "chip": "ym2612"
    },
    {
      "channel": 1,
      "note": 81,
      "start": 75.6112,
      "duration": 0.0861,
      "velocity": 90,
      "chip": "ym2612"
    },
    {
      "channel": 3,
      "note": 81,
      "start": 75.6116,
      "duration": 0.0863,
      "velocity": 90,
      "chip": "ym2612"
    },
    {
      "channel": 0,
      "note": 90,
      "start": 75.6972,
      "duration": 2.2724,
      "velocity": 90,
      "chip": "ym2612"
    },
    {
      "channel": 1,
      "note": 88,
      "start": 75.6976,
      "duration": 0.3663,
      "velocity": 90,
      "chip": "ym2612"
    },
    {
      "channel": 2,
      "note": 60,
      "start": 75.6978,
      "duration": 1.4498,
      "velocity": 114,
      "chip": "ym2612"
    },
    {
      "channel": 3,
      "note": 84,
      "start": 75.6981,
      "duration": 0.3661,
      "velocity": 90,
      "chip": "ym2612"
    },
    {
      "channel": 4,
      "note": 90,
      "start": 75.8145,
      "duration": 2.2721,
      "velocity": 90,
      "chip": "ym2612"
    },
    {
      "channel": 1,
      "note": 81,
      "start": 76.064,
      "duration": 0.3498,
      "velocity": 90,
      "chip": "ym2612"
    },
    {
      "channel": 3,
      "note": 81,
      "start": 76.0645,
      "duration": 0.3498,
      "velocity": 90,
      "chip": "ym2612"
    },
    {
      "channel": 1,
      "note": 88,
      "start": 76.414,
      "duration": 0.3665,
      "velocity": 90,
      "chip": "ym2612"
    },
    {
      "channel": 3,
      "note": 84,
      "start": 76.4145,
      "duration": 0.3664,
      "velocity": 90,
      "chip": "ym2612"
    },
    {
      "channel": 1,
      "note": 81,
      "start": 76.7807,
      "duration": 0.3666,
      "velocity": 90,
      "chip": "ym2612"
    },
    {
      "channel": 3,
      "note": 81,
      "start": 76.7812,
      "duration": 0.3667,
      "velocity": 90,
      "chip": "ym2612"
    },
    {
      "channel": 1,
      "note": 88,
      "start": 77.1476,
      "duration": 0.8224,
      "velocity": 90,
      "chip": "ym2612"
    },
    {
      "channel": 2,
      "note": 57,
      "start": 77.1479,
      "duration": 0.8229,
      "velocity": 114,
      "chip": "ym2612"
    },
    {
      "channel": 3,
      "note": 84,
      "start": 77.1482,
      "duration": 0.8238,
      "velocity": 90,
      "chip": "ym2612"
    },
    {
      "channel": 0,
      "note": 92,
      "start": 77.9698,
      "duration": 2.272,
      "velocity": 90,
      "chip": "ym2612"
    },
    {
      "channel": 2,
      "note": 52,
      "start": 77.9711,
      "duration": 2.271,
      "velocity": 114,
      "chip": "ym2612"
    },
    {
      "channel": 4,
      "note": 92,
      "start": 78.0869,
      "duration": 2.272,
      "velocity": 90,
      "chip": "ym2612"
    },
    {
      "channel": 1,
      "note": 71,
      "start": 78.3366,
      "duration": 0.3498,
      "velocity": 90,
      "chip": "ym2612"
    },
    {
      "channel": 3,
      "note": 68,
      "start": 78.3371,
      "duration": 0.3498,
      "velocity": 90,
      "chip": "ym2612"
    },
    {
      "channel": 1,
      "note": 76,
      "start": 78.6866,
      "duration": 0.3665,
      "velocity": 90,
      "chip": "ym2612"
    },
    {
      "channel": 3,
      "note": 71,
      "start": 78.6871,
      "duration": 0.3664,
      "velocity": 90,
      "chip": "ym2612"
    },
    {
      "channel": 1,
      "note": 71,
      "start": 79.0533,
      "duration": 0.35,
      "velocity": 90,
      "chip": "ym2612"
    },
    {
      "channel": 3,
      "note": 68,
      "start": 79.0538,
      "duration": 0.35,
      "velocity": 90,
      "chip": "ym2612"
    },
    {
      "channel": 1,
      "note": 76,
      "start": 79.4034,
      "duration": 0.3663,
      "velocity": 90,
      "chip": "ym2612"
    },
    {
      "channel": 3,
      "note": 71,
      "start": 79.4039,
      "duration": 0.3663,
      "velocity": 90,
      "chip": "ym2612"
    },
    {
      "channel": 1,
      "note": 71,
      "start": 79.77,
      "duration": 0.3666,
      "velocity": 90,
      "chip": "ym2612"
    },
    {
      "channel": 3,
      "note": 68,
      "start": 79.7704,
      "duration": 0.3667,
      "velocity": 90,
      "chip": "ym2612"
    },
    {
      "channel": 1,
      "note": 76,
      "start": 80.1369,
      "duration": 0.0186,
      "velocity": 90,
      "chip": "ym2612"
    },
    {
      "channel": 3,
      "note": 71,
      "start": 80.1374,
      "duration": 0.0185,
      "velocity": 90,
      "chip": "ym2612"
    },
    {
      "channel": 1,
      "note": 71,
      "start": 80.1556,
      "duration": 0.0862,
      "velocity": 90,
      "chip": "ym2612"
    },
    {
      "channel": 3,
      "note": 68,
      "start": 80.1561,
      "duration": 0.0863,
      "velocity": 90,
      "chip": "ym2612"
    },
    {
      "channel": 0,
      "note": 92,
      "start": 80.2418,
      "duration": 2.2737,
      "velocity": 90,
      "chip": "ym2612"
    },
    {
      "channel": 2,
      "note": 52,
      "start": 80.2422,
      "duration": 2.2739,
      "velocity": 114,
      "chip": "ym2612"
    },
    {
      "channel": 4,
      "note": 92,
      "start": 80.3589,
      "duration": 2.2736,
      "velocity": 90,
      "chip": "ym2612"
    },
    {
      "channel": 1,
      "note": 72,
      "start": 80.592,
      "duration": 0.3665,
      "velocity": 90,
      "chip": "ym2612"
    },
    {
      "channel": 3,
      "note": 68,
      "start": 80.5925,
      "duration": 0.3664,
      "velocity": 90,
      "chip": "ym2612"
    },
    {
      "channel": 1,
      "note": 76,
      "start": 80.9586,
      "duration": 0.3665,
      "velocity": 90,
      "chip": "ym2612"
    },
    {
      "channel": 3,
      "note": 72,
      "start": 80.9591,
      "duration": 0.3664,
      "velocity": 90,
      "chip": "ym2612"
    },
    {
      "channel": 1,
      "note": 72,
      "start": 81.3253,
      "duration": 0.3499,
      "velocity": 90,
      "chip": "ym2612"
    },
    {
      "channel": 3,
      "note": 68,
      "start": 81.3258,
      "duration": 0.3499,
      "velocity": 90,
      "chip": "ym2612"
    },
    {
      "channel": 1,
      "note": 76,
      "start": 81.6755,
      "duration": 0.3663,
      "velocity": 90,
      "chip": "ym2612"
    },
    {
      "channel": 3,
      "note": 72,
      "start": 81.6759,
      "duration": 0.3663,
      "velocity": 90,
      "chip": "ym2612"
    },
    {
      "channel": 1,
      "note": 72,
      "start": 82.042,
      "duration": 0.35,
      "velocity": 90,
      "chip": "ym2612"
    },
    {
      "channel": 3,
      "note": 68,
      "start": 82.0424,
      "duration": 0.35,
      "velocity": 90,
      "chip": "ym2612"
    },
    {
      "channel": 1,
      "note": 76,
      "start": 82.3922,
      "duration": 0.0208,
      "velocity": 90,
      "chip": "ym2612"
    },
    {
      "channel": 3,
      "note": 72,
      "start": 82.3927,
      "duration": 0.0207,
      "velocity": 90,
      "chip": "ym2612"
    },
    {
      "channel": 1,
      "note": 72,
      "start": 82.4132,
      "duration": 0.1027,
      "velocity": 90,
      "chip": "ym2612"
    },
    {
      "channel": 3,
      "note": 68,
      "start": 82.4136,
      "duration": 0.1029,
      "velocity": 90,
      "chip": "ym2612"
    },
    {
      "channel": 2,
      "note": 52,
      "start": 82.5163,
      "duration": 2.2529,
      "velocity": 114,
      "chip": "ym2612"
    },
    {
      "channel": 1,
      "note": 71,
      "start": 82.8658,
      "duration": 0.3665,
      "velocity": 90,
      "chip": "ym2612"
    },
    {
      "channel": 3,
      "note": 68,
      "start": 82.8662,
      "duration": 0.3665,
      "velocity": 90,
      "chip": "ym2612"
    },
    {
      "channel": 1,
      "note": 76,
      "start": 83.2324,
      "duration": 0.3498,
      "velocity": 90,
      "chip": "ym2612"
    },
    {
      "channel": 3,
      "note": 71,
      "start": 83.2329,
      "duration": 0.3498,
      "velocity": 90,
      "chip": "ym2612"
    },
    {
      "channel": 1,
      "note": 71,
      "start": 83.5824,
      "duration": 0.3666,
      "velocity": 90,
      "chip": "ym2612"
    },
    {
      "channel": 3,
      "note": 68,
      "start": 83.5829,
      "duration": 0.3666,
      "velocity": 90,
      "chip": "ym2612"
    },
    {
      "channel": 1,
      "note": 76,
      "start": 83.9493,
      "duration": 0.3663,
      "velocity": 90,
      "chip": "ym2612"
    },
    {
      "channel": 3,
      "note": 71,
      "start": 83.9498,
      "duration": 0.3663,
      "velocity": 90,
      "chip": "ym2612"
    },
    {
      "channel": 1,
      "note": 71,
      "start": 84.3158,
      "duration": 0.35,
      "velocity": 90,
      "chip": "ym2612"
    },
    {
      "channel": 3,
      "note": 68,
      "start": 84.3162,
      "duration": 0.35,
      "velocity": 90,
      "chip": "ym2612"
    },
    {
      "channel": 1,
      "note": 76,
      "start": 84.666,
      "duration": 0.0164,
      "velocity": 90,
      "chip": "ym2612"
    },
    {
      "channel": 3,
      "note": 71,
      "start": 84.6665,
      "duration": 0.0162,
      "velocity": 90,
      "chip": "ym2612"
    },
    {
      "channel": 1,
      "note": 71,
      "start": 84.6826,
      "duration": 0.0865,
      "velocity": 90,
      "chip": "ym2612"
    },
    {
      "channel": 3,
      "note": 68,
      "start": 84.6828,
      "duration": 0.0867,
      "velocity": 90,
      "chip": "ym2612"
    },
    {
      "channel": 2,
      "note": 52,
      "start": 84.7695,
      "duration": 2.2712,
      "velocity": 114,
      "chip": "ym2612"
    },
    {
      "channel": 1,
      "note": 72,
      "start": 85.1358,
      "duration": 0.3665,
      "velocity": 90,
      "chip": "ym2612"
    },
    {
      "channel": 3,
      "note": 68,
      "start": 85.1363,
      "duration": 0.3665,
      "velocity": 90,
      "chip": "ym2612"
    },
    {
      "channel": 1,
      "note": 76,
      "start": 85.5025,
      "duration": 0.3498,
      "velocity": 90,
      "chip": "ym2612"
    },
    {
      "channel": 3,
      "note": 72,
      "start": 85.5029,
      "duration": 0.3498,
      "velocity": 90,
      "chip": "ym2612"
    },
    {
      "channel": 1,
      "note": 72,
      "start": 85.8525,
      "duration": 0.3666,
      "velocity": 90,
      "chip": "ym2612"
    },
    {
      "channel": 3,
      "note": 68,
      "start": 85.8529,
      "duration": 0.3666,
      "velocity": 90,
      "chip": "ym2612"
    },
    {
      "channel": 1,
      "note": 76,
      "start": 86.2193,
      "duration": 0.3497,
      "velocity": 90,
      "chip": "ym2612"
    },
    {
      "channel": 3,
      "note": 72,
      "start": 86.2198,
      "duration": 0.3496,
      "velocity": 90,
      "chip": "ym2612"
    },
    {
      "channel": 1,
      "note": 72,
      "start": 86.5691,
      "duration": 0.3667,
      "velocity": 90,
      "chip": "ym2612"
    },
    {
      "channel": 3,
      "note": 68,
      "start": 86.5696,
      "duration": 0.3667,
      "velocity": 90,
      "chip": "ym2612"
    },
    {
      "channel": 1,
      "note": 76,
      "start": 86.936,
      "duration": 0.0166,
      "velocity": 90,
      "chip": "ym2612"
    },
    {
      "channel": 3,
      "note": 72,
      "start": 86.9365,
      "duration": 0.0165,
      "velocity": 90,
      "chip": "ym2612"
    },
    {
      "channel": 1,
      "note": 72,
      "start": 86.9528,
      "duration": 0.0878,
      "velocity": 90,
      "chip": "ym2612"
    },
    {
      "channel": 3,
      "note": 68,
      "start": 86.9532,
      "duration": 0.0878,
      "velocity": 90,
      "chip": "ym2612"
    },
    {
      "channel": 0,
      "note": 83,
      "start": 87.0404,
      "duration": 23.1076,
      "velocity": 90,
      "chip": "ym2612"
    },
    {
      "channel": 2,
      "note": 52,
      "start": 87.0409,
      "duration": 23.107,
      "velocity": 114,
      "chip": "ym2612"
    }
  ]
}