{
  "track_name": "30 - Staff Roll (S&K)",
  "duration_sec": 169.582,
  "sample_rate": 44100,
  "note_count": 2477,
  "unique_pitches": 61,
  "pitch_range": 73,
  "avg_note_duration": 0.1191,
  "reconstruction_stats": {
    "notes_reconstructed": 2477,
    "keyon_events": 2477,
    "keyoff_events": 2477,
    "orphan_keyons": 0,
    "unique_pitches": 61,
    "pitch_range": 73,
    "avg_duration_sec": 0.1191
  },
  "metadata": {
    "source": "S\\Sonic 3 & Knuckles\\30 - Staff Roll (S&K).vgz"
  },
  "notes": [
    {
      "channel": 0,
      "note": 59,
      "start": 0.2293,
      "duration": 0.0669,
      "velocity": 102,
      "chip": "ym2612"
    },
    {
      "channel": 1,
      "note": 78,
      "start": 0.2302,
      "duration": 0.6631,
      "velocity": 100,
      "chip": "ym2612"
    },
    {
      "channel": 3,
      "note": 71,
      "start": 0.2342,
      "duration": 0.6602,
      "velocity": 100,
      "chip": "ym2612"
    },
    {
      "channel": 4,
      "note": 71,
      "start": 0.2379,
      "duration": 0.6573,
      "velocity": 100,
      "chip": "ym2612"
    },
    {
      "channel": 2,
      "note": 78,
      "start": 0.2709,
      "duration": 0.6754,
      "velocity": 100,
      "chip": "ym2612"
    },
    {
      "channel": 0,
      "note": 59,
      "start": 0.2964,
      "duration": 0.0305,
      "velocity": 102,
      "chip": "ym2612"
    },
    {
      "channel": 0,
      "note": 59,
      "start": 0.5173,
      "duration": 0.0524,
      "velocity": 102,
      "chip": "ym2612"
    },
    {
      "channel": 0,
      "note": 71,
      "start": 0.76,
      "duration": 0.0995,
      "velocity": 102,
      "chip": "ym2612"
    },
    {
      "channel": 0,
      "note": 59,
      "start": 0.86,
      "duration": 0.0489,
      "velocity": 102,
      "chip": "ym2612"
    },
    {
      "channel": 1,
      "note": 80,
      "start": 0.8939,
      "duration": 0.0673,
      "velocity": 100,
      "chip": "ym2612"
    },
    {
      "channel": 3,
      "note": 71,
      "start": 0.895,
      "duration": 0.0667,
      "velocity": 100,
      "chip": "ym2612"
    },
    {
      "channel": 4,
      "note": 71,
      "start": 0.8958,
      "duration": 0.0662,
      "velocity": 100,
      "chip": "ym2612"
    },
    {
      "channel": 2,
      "note": 80,
      "start": 0.947,
      "duration": 0.0429,
      "velocity": 100,
      "chip": "ym2612"
    },
    {
      "channel": 0,
      "note": 71,
      "start": 0.9535,
      "duration": 0.0225,
      "velocity": 102,
      "chip": "ym2612"
    },
    {
      "channel": 0,
      "note": 57,
      "start": 0.995,
      "duration": 0.0905,
      "velocity": 102,
      "chip": "ym2612"
    },
    {
      "channel": 1,
      "note": 76,
      "start": 0.9985,
      "duration": 0.7185,
      "velocity": 100,
      "chip": "ym2612"
    },
    {
      "channel": 3,
      "note": 69,
      "start": 0.9993,
      "duration": 0.7188,
      "velocity": 100,
      "chip": "ym2612"
    },
    {
      "channel": 4,
      "note": 69,
      "start": 1.0001,
      "duration": 0.7189,
      "velocity": 100,
      "chip": "ym2612"
    },
    {
      "channel": 2,
      "note": 76,
      "start": 1.0291,
      "duration": 0.8549,
      "velocity": 100,
      "chip": "ym2612"
    },
    {
      "channel": 0,
      "note": 57,
      "start": 1.0859,
      "duration": 0.1297,
      "velocity": 102,
      "chip": "ym2612"
    },
    {
      "channel": 0,
      "note": 69,
      "start": 1.3161,
      "duration": 0.0421,
      "velocity": 102,
      "chip": "ym2612"
    },
    {
      "channel": 0,
      "note": 69,
      "start": 1.5585,
      "duration": 0.3581,
      "velocity": 102,
      "chip": "ym2612"
    },
    {
      "channel": 1,
      "note": 73,
      "start": 1.7176,
      "duration": 0.4851,
      "velocity": 100,
      "chip": "ym2612"
    },
    {
      "channel": 3,
      "note": 64,
      "start": 1.7188,
      "duration": 0.4847,
      "velocity": 100,
      "chip": "ym2612"
    },
    {
      "channel": 4,
      "note": 64,
      "start": 1.7195,
      "duration": 0.4843,
      "velocity": 100,
      "chip": "ym2612"
    },
    {
      "channel": 2,
      "note": 73,
      "start": 1.8845,
      "duration": 0.3493,
      "velocity": 100,
      "chip": "ym2612"
    },
    {
      "channel": 0,
      "note": 69,
      "start": 1.917,
      "duration": 0.2171,
      "velocity": 102,
      "chip": "ym2612"
    },
    {
      "channel": 0,
      "note": 59,
      "start": 2.1346,
      "duration": 0.0806,
      "velocity": 102,
      "chip": "ym2612"
    },
    {
      "channel": 0,
      "note": 59,
      "start": 2.2156,
      "duration": 0.0233,
      "velocity": 102,
      "chip": "ym2612"
    },
    {
      "channel": 1,
      "note": 78,
      "start": 2.2508,
      "duration": 0.3422,
      "velocity": 100,
      "chip": "ym2612"
    },
    {
      "channel": 3,
      "note": 71,
      "start": 2.2517,
      "duration": 0.3424,
      "velocity": 100,
      "chip": "ym2612"
    },
    {
      "channel": 4,
      "note": 71,
      "start": 2.2524,
      "duration": 0.3424,
      "velocity": 100,
      "chip": "ym2612"
    },
    {
      "channel": 2,
      "note": 78,
      "start": 2.4011,
      "duration": 0.359,
      "velocity": 100,
      "chip": "ym2612"
    },
    {
      "channel": 0,
      "note": 59,
      "start": 2.434,
      "duration": 0.052,
      "velocity": 102,
      "chip": "ym2612"
    },
    {
      "channel": 1,
      "note": 78,
      "start": 2.5935,
      "duration": 0.2166,
      "velocity": 100,
      "chip": "ym2612"
    },
    {
      "channel": 3,
      "note": 71,
      "start": 2.5947,
      "duration": 0.2164,
      "velocity": 100,
      "chip": "ym2612"
    },
    {
      "channel": 4,
      "note": 71,
      "start": 2.5954,
      "duration": 0.2164,
      "velocity": 100,
      "chip": "ym2612"
    },
    {
      "channel": 0,
      "note": 71,
      "start": 2.6768,
      "duration": 0.0995,
      "velocity": 102,
      "chip": "ym2612"
    },
    {
      "channel": 2,
      "note": 78,
      "start": 2.7607,
      "duration": 0.1023,
      "velocity": 100,
      "chip": "ym2612"
    },
    {
      "channel": 0,
      "note": 59,
      "start": 2.7768,
      "duration": 0.0485,
      "velocity": 102,
      "chip": "ym2612"
    },
    {
      "channel": 1,
      "note": 80,
      "start": 2.8107,
      "duration": 0.0673,
      "velocity": 100,
      "chip": "ym2612"
    },
    {
      "channel": 3,
      "note": 71,
      "start": 2.8117,
      "duration": 0.0668,
      "velocity": 100,
      "chip": "ym2612"
    },
    {
      "channel": 4,
      "note": 71,
      "start": 2.8124,
      "duration": 0.0664,
      "velocity": 100,
      "chip": "ym2612"
    },
    {
      "channel": 2,
      "note": 80,
      "start": 2.8636,
      "duration": 0.0402,
      "velocity": 100,
      "chip": "ym2612"
    },
    {
      "channel": 0,
      "note": 71,
      "start": 2.8702,
      "duration": 0.0227,
      "velocity": 102,
      "chip": "ym2612"
    },
    {
      "channel": 0,
      "note": 57,
      "start": 2.9115,
      "duration": 0.063,
      "velocity": 102,
      "chip": "ym2612"
    },
    {
      "channel": 1,
      "note": 76,
      "start": 2.9153,
      "duration": 0.0415,
      "velocity": 100,
      "chip": "ym2612"
    },
    {
      "channel": 3,
      "note": 69,
      "start": 2.9161,
      "duration": 0.0413,
      "velocity": 100,
      "chip": "ym2612"
    },
    {
      "channel": 4,
      "note": 69,
      "start": 2.9168,
      "duration": 0.0409,
      "velocity": 100,
      "chip": "ym2612"
    },
    {
      "channel": 2,
      "note": 76,
      "start": 2.9465,
      "duration": 0.0392,
      "velocity": 100,
      "chip": "ym2612"
    },
    {
      "channel": 0,
      "note": 69,
      "start": 2.991,
      "duration": 0.0205,
      "velocity": 102,
      "chip": "ym2612"
    },
    {
      "channel": 1,
      "note": 73,
      "start": 2.9945,
      "duration": 0.1419,
      "velocity": 100,
      "chip": "ym2612"
    },
    {
      "channel": 3,
      "note": 76,
      "start": 2.9954,
      "duration": 0.1421,
      "velocity": 100,
      "chip": "ym2612"
    },
    {
      "channel": 4,
      "note": 76,
      "start": 2.9961,
      "duration": 0.1422,
      "velocity": 100,
      "chip": "ym2612"
    },
    {
      "channel": 2,
      "note": 73,
      "start": 3.087,
      "duration": 0.1606,
      "velocity": 100,
      "chip": "ym2612"
    },
    {
      "channel": 0,
      "note": 57,
      "start": 3.1199,
      "duration": 0.0995,
      "velocity": 102,
      "chip": "ym2612"
    },
    {
      "channel": 1,
      "note": 73,
      "start": 3.137,
      "duration": 0.1412,
      "velocity": 100,
      "chip": "ym2612"
    },
    {
      "channel": 3,
      "note": 69,
      "start": 3.1381,
      "duration": 0.1407,
      "velocity": 100,
      "chip": "ym2612"
    },
    {
      "channel": 4,
      "note": 69,
      "start": 3.1388,
      "duration": 0.1403,
      "velocity": 100,
      "chip": "ym2612"
    },
    {
      "channel": 0,
      "note": 69,
      "start": 3.2199,
      "duration": 0.0413,
      "velocity": 102,
      "chip": "ym2612"
    },
    {
      "channel": 2,
      "note": 73,
      "start": 3.2482,
      "duration": 0.1798,
      "velocity": 100,
      "chip": "ym2612"
    },
    {
      "channel": 0,
      "note": 57,
      "start": 3.2617,
      "duration": 0.0995,
      "velocity": 102,
      "chip": "ym2612"
    },
    {
      "channel": 0,
      "note": 57,
      "start": 3.4617,
      "duration": 0.0377,
      "velocity": 102,
      "chip": "ym2612"
    },
    {
      "channel": 1,
      "note": 73,
      "start": 3.479,
      "duration": 0.0462,
      "velocity": 100,
      "chip": "ym2612"
    },
    {
      "channel": 3,
      "note": 69,
      "start": 3.4798,
      "duration": 0.0464,
      "velocity": 100,
      "chip": "ym2612"
    },
    {
      "channel": 4,
      "note": 69,
      "start": 3.4805,
      "duration": 0.0464,
      "velocity": 100,
      "chip": "ym2612"
    },
    {
      "channel": 2,
      "note": 73,
      "start": 3.5144,
      "duration": 0.0471,
      "velocity": 100,
      "chip": "ym2612"
    },
    {
      "channel": 0,
      "note": 52,
      "start": 3.521,
      "duration": 0.0232,
      "velocity": 102,
      "chip": "ym2612"
    },
    {
      "channel": 1,
      "note": 72,
      "start": 3.5257,
      "duration": 0.0476,
      "velocity": 100,
      "chip": "ym2612"
    },
    {
      "channel": 3,
      "note": 68,
      "start": 3.5268,
      "duration": 0.0472,
      "velocity": 100,
      "chip": "ym2612"
    },
    {
      "channel": 4,
      "note": 68,
      "start": 3.5275,
      "duration": 0.0468,
      "velocity": 100,
      "chip": "ym2612"
    },
    {
      "channel": 2,
      "note": 72,
      "start": 3.5622,
      "duration": 0.0376,
      "velocity": 100,
      "chip": "ym2612"
    },
    {
      "channel": 0,
      "note": 56,
      "start": 3.5688,
      "duration": 0.0199,
      "velocity": 102,
      "chip": "ym2612"
    },
    {
      "channel": 0,
      "note": 55,
      "start": 3.6076,
      "duration": 0.1881,
      "velocity": 102,
      "chip": "ym2612"
    },
    {
      "channel": 1,
      "note": 71,
      "start": 3.6111,
      "duration": 0.0433,
      "velocity": 100,
      "chip": "ym2612"
    },
    {
      "channel": 3,
      "note": 67,
      "start": 3.6119,
      "duration": 0.043,
      "velocity": 100,
      "chip": "ym2612"
    },
    {
      "channel": 4,
      "note": 67,
      "start": 3.6126,
      "duration": 0.0427,
      "velocity": 100,
      "chip": "ym2612"
    },
    {
      "channel": 2,
      "note": 71,
      "start": 3.6432,
      "duration": 0.1028,
      "velocity": 100,
      "chip": "ym2612"
    },
    {
      "channel": 0,
      "note": 55,
      "start": 3.7962,
      "duration": 0.2163,
      "velocity": 102,
      "chip": "ym2612"
    },
    {
      "channel": 1,
      "note": 81,
      "start": 3.7971,
      "duration": 0.4336,
      "velocity": 100,
      "chip": "ym2612"
    },
    {
      "channel": 3,
      "note": 74,
      "start": 3.7979,
      "duration": 0.4338,
      "velocity": 100,
      "chip": "ym2612"
    },
    {
      "channel": 4,
      "note": 74,
      "start": 3.7986,
      "duration": 0.4338,
      "velocity": 100,
      "chip": "ym2612"
    },
    {
      "channel": 2,
      "note": 81,
      "start": 3.9638,
      "duration": 0.3592,
      "velocity": 100,
      "chip": "ym2612"
    },
    {
      "channel": 0,
      "note": 67,
      "start": 4.013,
      "duration": 0.0508,
      "velocity": 102,
      "chip": "ym2612"
    },
    {
      "channel": 0,
      "note": 55,
      "start": 4.0642,
      "duration": 0.1657,
      "velocity": 102,
      "chip": "ym2612"
    },
    {
      "channel": 0,
      "note": 55,
      "start": 4.2304,
      "duration": 0.1422,
      "velocity": 102,
      "chip": "ym2612"
    },
    {
      "channel": 1,
      "note": 79,
      "start": 4.2312,
      "duration": 0.142,
      "velocity": 100,
      "chip": "ym2612"
    },
    {
      "channel": 3,
      "note": 71,
      "start": 4.2323,
      "duration": 0.142,
      "velocity": 100,
      "chip": "ym2612"
    },
    {
      "channel": 4,
      "note": 71,
      "start": 4.233,
      "duration": 0.1419,
      "velocity": 100,
      "chip": "ym2612"
    },
    {
      "channel": 2,
      "note": 79,
      "start": 4.3236,
      "duration": 0.141,
      "velocity": 100,
      "chip": "ym2612"
    },
    {
      "channel": 0,
      "note": 67,
      "start": 4.3731,
      "duration": 0.1412,
      "velocity": 102,
      "chip": "ym2612"
    },
    {
      "channel": 1,
      "note": 78,
      "start": 4.3738,
      "duration": 0.1411,
      "velocity": 100,
      "chip": "ym2612"
    },
    {
      "channel": 3,
      "note": 70,
      "start": 4.3749,
      "duration": 0.1406,
      "velocity": 100,
      "chip": "ym2612"
    },
    {
      "channel": 4,
      "note": 70,
      "start": 4.3756,
      "duration": 0.1402,
      "velocity": 100,
      "chip": "ym2612"
    },
    {
      "channel": 2,
      "note": 78,
      "start": 4.4652,
      "duration": 0.0764,
      "velocity": 100,
      "chip": "ym2612"
    },
    {
      "channel": 0,
      "note": 55,
      "start": 4.5148,
      "duration": 0.0382,
      "velocity": 102,
      "chip": "ym2612"
    },
    {
      "channel": 0,
      "note": 53,
      "start": 4.5534,
      "duration": 0.3422,
      "velocity": 102,
      "chip": "ym2612"
    },
    {
      "channel": 1,
      "note": 77,
      "start": 4.5542,
      "duration": 0.484,
      "velocity": 100,
      "chip": "ym2612"
    },
    {
      "channel": 3,
      "note": 69,
      "start": 4.555,
      "duration": 0.7017,
      "velocity": 100,
      "chip": "ym2612"
    },
    {
      "channel": 4,
      "note": 69,
      "start": 4.5557,
      "duration": 0.7018,
      "velocity": 100,
      "chip": "ym2612"
    },
    {
      "channel": 2,
      "note": 77,
      "start": 4.63,
      "duration": 0.4429,
      "velocity": 100,
      "chip": "ym2612"
    },
    {
      "channel": 0,
      "note": 53,
      "start": 4.8962,
      "duration": 0.1413,
      "velocity": 102,
      "chip": "ym2612"
    },
    {
      "channel": 0,
      "note": 65,
      "start": 5.038,
      "duration": 0.0495,
      "velocity": 102,
      "chip": "ym2612"
    },
    {
      "channel": 1,
      "note": 72,
      "start": 5.0388,
      "duration": 0.2168,
      "velocity": 100,
      "chip": "ym2612"
    },
    {
      "channel": 2,
      "note": 72,
      "start": 5.0735,
      "duration": 0.2745,
      "velocity": 100,
      "chip": "ym2612"
    },
    {
      "channel": 0,
      "note": 53,
      "start": 5.088,
      "duration": 0.1669,
      "velocity": 102,
      "chip": "ym2612"
    },
    {
      "channel": 0,
      "note": 53,
      "start": 5.2555,
      "duration": 0.1422,
      "velocity": 102,
      "chip": "ym2612"
    },
    {
      "channel": 1,
      "note": 72,
      "start": 5.2562,
      "duration": 0.1421,
      "velocity": 100,
      "chip": "ym2612"
    },
    {
      "channel": 3,
      "note": 69,
      "start": 5.2574,
      "duration": 0.142,
      "velocity": 100,
      "chip": "ym2612"
    },
    {
      "channel": 4,
      "note": 69,
      "start": 5.2581,
      "duration": 0.142,
      "velocity": 100,
      "chip": "ym2612"
    },
    {
      "channel": 2,
      "note": 72,
      "start": 5.3486,
      "duration": 0.1411,
      "velocity": 100,
      "chip": "ym2612"
    },
    {
      "channel": 0,
      "note": 65,
      "start": 5.3981,
      "duration": 0.1412,
      "velocity": 102,
      "chip": "ym2612"
    },
    {
      "channel": 1,
      "note": 74,
      "start": 5.3989,
      "duration": 0.1411,
      "velocity": 100,
      "chip": "ym2612"
    },
    {
      "channel": 3,
      "note": 72,
      "start": 5.3999,
      "duration": 0.1411,
      "velocity": 100,
      "chip": "ym2612"
    },
    {
      "channel": 4,
      "note": 72,
      "start": 5.4007,
      "duration": 0.1411,
      "velocity": 100,
      "chip": "ym2612"
    },
    {
      "channel": 2,
      "note": 74,
      "start": 5.4903,
      "duration": 0.0829,
      "velocity": 100,
      "chip": "ym2612"
    },
    {
      "channel": 0,
      "note": 53,
      "start": 5.5398,
      "duration": 0.0486,
      "velocity": 102,
      "chip": "ym2612"
    },
    {
      "channel": 1,
      "note": 77,
      "start": 5.5406,
      "duration": 0.0485,
      "velocity": 100,
      "chip": "ym2612"
    },
    {
      "channel": 3,
      "note": 74,
      "start": 5.5416,
      "duration": 0.0485,
      "velocity": 100,
      "chip": "ym2612"
    },
    {
      "channel": 4,
      "note": 74,
      "start": 5.5423,
      "duration": 0.0486,
      "velocity": 100,
      "chip": "ym2612"
    },
    {
      "channel": 2,
      "note": 77,
      "start": 5.5738,
      "duration": 0.091,
      "velocity": 100,
      "chip": "ym2612"
    },
    {
      "channel": 0,
      "note": 57,
      "start": 5.589,
      "duration": 0.3422,
      "velocity": 102,
      "chip": "ym2612"
    },
    {
      "channel": 1,
      "note": 76,
      "start": 5.5897,
      "duration": 1.0366,
      "velocity": 100,
      "chip": "ym2612"
    },
    {
      "channel": 3,
      "note": 73,
      "start": 5.5907,
      "duration": 1.0367,
      "velocity": 100,
      "chip": "ym2612"
    },
    {
      "channel": 4,
      "note": 73,
      "start": 5.5915,
      "duration": 1.0367,
      "velocity": 100,
      "chip": "ym2612"
    },
    {
      "channel": 2,
      "note": 76,
      "start": 5.6654,
      "duration": 1.0357,
      "velocity": 100,
      "chip": "ym2612"
    },
    {
      "channel": 0,
      "note": 57,
      "start": 5.9316,
      "duration": 0.1413,
      "velocity": 102,
      "chip": "ym2612"
    },
    {
      "channel": 0,
      "note": 69,
      "start": 6.0735,
      "duration": 0.05,
      "velocity": 102,
      "chip": "ym2612"
    },
    {
      "channel": 0,
      "note": 57,
      "start": 6.1241,
      "duration": 0.1663,
      "velocity": 102,
      "chip": "ym2612"
    },
    {
      "channel": 0,
      "note": 69,
      "start": 6.2909,
      "duration": 0.1422,
      "velocity": 102,
      "chip": "ym2612"
    },
    {
      "channel": 0,
      "note": 57,
      "start": 6.4336,
      "duration": 0.1413,
      "velocity": 102,
      "chip": "ym2612"
    },
    {
      "channel": 0,
      "note": 69,
      "start": 6.5755,
      "duration": 0.0501,
      "velocity": 102,
      "chip": "ym2612"
    },
    {
      "channel": 0,
      "note": 57,
      "start": 6.6261,
      "duration": 0.3177,
      "velocity": 102,
      "chip": "ym2612"
    },
    {
      "channel": 1,
      "note": 79,
      "start": 6.627,
      "duration": 0.275,
      "velocity": 100,
      "chip": "ym2612"
    },
    {
      "channel": 3,
      "note": 76,
      "start": 6.6281,
      "duration": 0.3162,
      "velocity": 100,
      "chip": "ym2612"
    },
    {
      "channel": 4,
      "note": 76,
      "start": 6.6289,
      "duration": 0.3158,
      "velocity": 100,
      "chip": "ym2612"
    },
    {
      "channel": 2,
      "note": 79,
      "start": 6.7019,
      "duration": 0.2324,
      "velocity": 100,
      "chip": "ym2612"
    },
    {
      "channel": 1,
      "note": 52,
      "start": 7.1991,
      "duration": 0.0362,
      "velocity": 107,
      "chip": "ym2612"
    },
    {
      "channel": 1,
      "note": 54,
      "start": 7.2359,
      "duration": 0.1161,
      "velocity": 107,
      "chip": "ym2612"
    },
    {
      "channel": 1,
      "note": 59,
      "start": 7.3525,
      "duration": 0.1161,
      "velocity": 107,
      "chip": "ym2612"
    },
    {
      "channel": 2,
      "note": 76,
      "start": 7.3533,
      "duration": 0.116,
      "velocity": 110,
      "chip": "ym2612"
    },
    {
      "channel": 3,
      "note": 73,
      "start": 7.354,
      "duration": 0.1161,
      "velocity": 110,
      "chip": "ym2612"
    },
    {
      "channel": 1,
      "note": 62,
      "start": 7.4692,
      "duration": 0.1163,
      "velocity": 107,
      "chip": "ym2612"
    },
    {
      "channel": 2,
      "note": 76,
      "start": 7.4699,
      "duration": 0.1159,
      "velocity": 110,
      "chip": "ym2612"
    },
    {
      "channel": 3,
      "note": 73,
      "start": 7.4707,
      "duration": 0.1159,
      "velocity": 110,
      "chip": "ym2612"
    },
    {
      "channel": 2,
      "note": 76,
      "start": 7.5864,
      "duration": 0.0256,
      "velocity": 110,
      "chip": "ym2612"
    },
    {
      "channel": 3,
      "note": 73,
      "start": 7.5871,
      "duration": 0.0257,
      "velocity": 110,
      "chip": "ym2612"
    },
    {
      "channel": 1,
      "note": 61,
      "start": 7.6119,
      "duration": 0.1161,
      "velocity": 107,
      "chip": "ym2612"
    },
    {
      "channel": 2,
      "note": 76,
      "start": 7.6126,
      "duration": 0.1157,
      "velocity": 110,
      "chip": "ym2612"
    },
    {
      "channel": 3,
      "note": 73,
      "start": 7.6134,
      "duration": 0.1152,
      "velocity": 110,
      "chip": "ym2612"
    },
    {
      "channel": 1,
      "note": 59,
      "start": 7.8452,
      "duration": 0.1163,
      "velocity": 107,
      "chip": "ym2612"
    },
    {
      "channel": 2,
      "note": 76,
      "start": 7.9624,
      "duration": 0.0423,
      "velocity": 110,
      "chip": "ym2612"
    },
    {
      "channel": 3,
      "note": 73,
      "start": 7.9632,
      "duration": 0.0423,
      "velocity": 110,
      "chip": "ym2612"
    },
    {
      "channel": 1,
      "note": 57,
      "start": 8.0046,
      "duration": 0.1161,
      "velocity": 107,
      "chip": "ym2612"
    },
    {
      "channel": 2,
      "note": 76,
      "start": 8.0053,
      "duration": 0.1157,
      "velocity": 110,
      "chip": "ym2612"
    },
    {
      "channel": 3,
      "note": 73,
      "start": 8.0061,
      "duration": 0.1156,
      "velocity": 110,
      "chip": "ym2612"
    },
    {
      "channel": 2,
      "note": 76,
      "start": 8.1216,
      "duration": 0.0998,
      "velocity": 110,
      "chip": "ym2612"
    },
    {
      "channel": 3,
      "note": 73,
      "start": 8.1223,
      "duration": 0.0998,
      "velocity": 110,
      "chip": "ym2612"
    },
    {
      "channel": 1,
      "note": 57,
      "start": 8.2212,
      "duration": 0.1163,
      "velocity": 107,
      "chip": "ym2612"
    },
    {
      "channel": 2,
      "note": 76,
      "start": 8.222,
      "duration": 0.1163,
      "velocity": 110,
      "chip": "ym2612"
    },
    {
      "channel": 3,
      "note": 73,
      "start": 8.2227,
      "duration": 0.1159,
      "velocity": 110,
      "chip": "ym2612"
    },
    {
      "channel": 1,
      "note": 59,
      "start": 8.3382,
      "duration": 0.041,
      "velocity": 107,
      "chip": "ym2612"
    },
    {
      "channel": 1,
      "note": 59,
      "start": 8.3798,
      "duration": 0.0161,
      "velocity": 107,
      "chip": "ym2612"
    },
    {
      "channel": 1,
      "note": 61,
      "start": 8.4967,
      "duration": 0.0644,
      "velocity": 107,
      "chip": "ym2612"
    },
    {
      "channel": 2,
      "note": 76,
      "start": 8.4974,
      "duration": 0.0219,
      "velocity": 110,
      "chip": "ym2612"
    },
    {
      "channel": 3,
      "note": 73,
      "start": 8.4981,
      "duration": 0.022,
      "velocity": 110,
      "chip": "ym2612"
    },
    {
      "channel": 2,
      "note": 76,
      "start": 8.52,
      "duration": 0.0419,
      "velocity": 110,
      "chip": "ym2612"
    },
    {
      "channel": 3,
      "note": 73,
      "start": 8.5207,
      "duration": 0.0415,
      "velocity": 110,
      "chip": "ym2612"
    },
    {
      "channel": 1,
      "note": 57,
      "start": 8.5617,
      "duration": 0.0157,
      "velocity": 107,
      "chip": "ym2612"
    },
    {
      "channel": 1,
      "note": 55,
      "start": 8.5779,
      "duration": 0.0419,
      "velocity": 107,
      "chip": "ym2612"
    },
    {
      "channel": 1,
      "note": 55,
      "start": 8.7373,
      "duration": 0.041,
      "velocity": 107,
      "chip": "ym2612"
    },
    {
      "channel": 1,
      "note": 55,
      "start": 8.7788,
      "duration": 0.0328,
      "velocity": 107,
      "chip": "ym2612"
    },
    {
      "channel": 1,
      "note": 55,
      "start": 8.8955,
      "duration": 0.0328,
      "velocity": 107,
      "chip": "ym2612"
    },
    {
      "channel": 1,
      "note": 57,
      "start": 8.9957,
      "duration": 0.0178,
      "velocity": 107,
      "chip": "ym2612"
    },
    {
      "channel": 1,
      "note": 55,
      "start": 9.0141,
      "duration": 0.042,
      "velocity": 107,
      "chip": "ym2612"
    },
    {
      "channel": 1,
      "note": 55,
      "start": 9.1735,
      "duration": 0.0419,
      "velocity": 107,
      "chip": "ym2612"
    },
    {
      "channel": 1,
      "note": 55,
      "start": 9.3329,
      "duration": 0.0049,
      "velocity": 107,
      "chip": "ym2612"
    },
    {
      "channel": 1,
      "note": 57,
      "start": 9.3581,
      "duration": 0.035,
      "velocity": 107,
      "chip": "ym2612"
    },
    {
      "channel": 1,
      "note": 55,
      "start": 9.3936,
      "duration": 0.1592,
      "velocity": 107,
      "chip": "ym2612"
    },
    {
      "channel": 1,
      "note": 52,
      "start": 9.5534,
      "duration": 0.0416,
      "velocity": 107,
      "chip": "ym2612"
    },
    {
      "channel": 1,
      "note": 54,
      "start": 9.5955,
      "duration": 0.0994,
      "velocity": 107,
      "chip": "ym2612"
    },
    {
      "channel": 1,
      "note": 59,
      "start": 9.6955,
      "duration": 0.1161,
      "velocity": 107,
      "chip": "ym2612"
    },
    {
      "channel": 2,
      "note": 76,
      "start": 9.6963,
      "duration": 0.116,
      "velocity": 110,
      "chip": "ym2612"
    },
    {
      "channel": 3,
      "note": 73,
      "start": 9.697,
      "duration": 0.1161,
      "velocity": 110,
      "chip": "ym2612"
    },
    {
      "channel": 1,
      "note": 62,
      "start": 9.8122,
      "duration": 0.1163,
      "velocity": 107,
      "chip": "ym2612"
    },
    {
      "channel": 2,
      "note": 76,
      "start": 9.8129,
      "duration": 0.1159,
      "velocity": 110,
      "chip": "ym2612"
    },
    {
      "channel": 3,
      "note": 73,
      "start": 9.8137,
      "duration": 0.1159,
      "velocity": 110,
      "chip": "ym2612"
    },
    {
      "channel": 2,
      "note": 76,
      "start": 9.9294,
      "duration": 0.0423,
      "velocity": 110,
      "chip": "ym2612"
    },
    {
      "channel": 3,
      "note": 73,
      "start": 9.9301,
      "duration": 0.0423,
      "velocity": 110,
      "chip": "ym2612"
    },
    {
      "channel": 1,
      "note": 61,
      "start": 9.9716,
      "duration": 0.1161,
      "velocity": 107,
      "chip": "ym2612"
    },
    {
      "channel": 2,
      "note": 76,
      "start": 9.9723,
      "duration": 0.1157,
      "velocity": 110,
      "chip": "ym2612"
    },
    {
      "channel": 3,
      "note": 73,
      "start": 9.973,
      "duration": 0.1152,
      "velocity": 110,
      "chip": "ym2612"
    },
    {
      "channel": 1,
      "note": 59,
      "start": 10.2049,
      "duration": 0.0997,
      "velocity": 107,
      "chip": "ym2612"
    },
    {
      "channel": 2,
      "note": 76,
      "start": 10.3055,
      "duration": 0.0423,
      "velocity": 110,
      "chip": "ym2612"
    },
    {
      "channel": 3,
      "note": 73,
      "start": 10.3062,
      "duration": 0.0423,
      "velocity": 110,
      "chip": "ym2612"
    },
    {
      "channel": 1,
      "note": 57,
      "start": 10.3476,
      "duration": 0.1161,
      "velocity": 107,
      "chip": "ym2612"
    },
    {
      "channel": 2,
      "note": 76,
      "start": 10.3483,
      "duration": 0.1157,
      "velocity": 110,
      "chip": "ym2612"
    },
    {
      "channel": 3,
      "note": 73,
      "start": 10.3491,
      "duration": 0.1156,
      "velocity": 110,
      "chip": "ym2612"
    },
    {
      "channel": 2,
      "note": 76,
      "start": 10.4646,
      "duration": 0.1165,
      "velocity": 110,
      "chip": "ym2612"
    },
    {
      "channel": 3,
      "note": 73,
      "start": 10.4654,
      "duration": 0.1165,
      "velocity": 110,
      "chip": "ym2612"
    },
    {
      "channel": 1,
      "note": 57,
      "start": 10.5809,
      "duration": 0.1163,
      "velocity": 107,
      "chip": "ym2612"
    },
    {
      "channel": 2,
      "note": 76,
      "start": 10.5816,
      "duration": 0.1163,
      "velocity": 110,
      "chip": "ym2612"
    },
    {
      "channel": 3,
      "note": 73,
      "start": 10.5824,
      "duration": 0.1159,
      "velocity": 110,
      "chip": "ym2612"
    },
    {
      "channel": 1,
      "note": 59,
      "start": 10.6978,
      "duration": 0.0244,
      "velocity": 107,
      "chip": "ym2612"
    },
    {
      "channel": 1,
      "note": 59,
      "start": 10.7228,
      "duration": 0.0328,
      "velocity": 107,
      "chip": "ym2612"
    },
    {
      "channel": 1,
      "note": 61,
      "start": 10.8397,
      "duration": 0.0669,
      "velocity": 107,
      "chip": "ym2612"
    },
    {
      "channel": 2,
      "note": 76,
      "start": 10.8405,
      "duration": 0.0219,
      "velocity": 110,
      "chip": "ym2612"
    },
    {
      "channel": 3,
      "note": 73,
      "start": 10.8412,
      "duration": 0.022,
      "velocity": 110,
      "chip": "ym2612"
    },
    {
      "channel": 2,
      "note": 76,
      "start": 10.863,
      "duration": 0.0444,
      "velocity": 110,
      "chip": "ym2612"
    },
    {
      "channel": 3,
      "note": 73,
      "start": 10.8637,
      "duration": 0.044,
      "velocity": 110,
      "chip": "ym2612"
    },
    {
      "channel": 0,
      "note": 92,
      "start": 10.9064,
      "duration": 0.0144,
      "velocity": 94,
      "chip": "ym2612"
    },
    {
      "channel": 1,
      "note": 57,
      "start": 10.9072,
      "duration": 0.02,
      "velocity": 107,
      "chip": "ym2612"
    },
    {
      "channel": 0,
      "note": 91,
      "start": 10.9215,
      "duration": 0.0114,
      "velocity": 94,
      "chip": "ym2612"
    },
    {
      "channel": 1,
      "note": 55,
      "start": 10.9278,
      "duration": 0.0423,
      "velocity": 107,
      "chip": "ym2612"
    },
    {
      "channel": 0,
      "note": 88,
      "start": 10.9334,
      "duration": 0.036,
      "velocity": 94,
      "chip": "ym2612"
    },
    {
      "channel": 0,
      "note": 90,
      "start": 10.9699,
      "duration": 0.0661,
      "velocity": 94,
      "chip": "ym2612"
    },
    {
      "channel": 4,
      "note": 92,
      "start": 11.0059,
      "duration": 0.0648,
      "velocity": 94,
      "chip": "ym2612"
    },
    {
      "channel": 0,
      "note": 87,
      "start": 11.0366,
      "duration": 0.0427,
      "velocity": 94,
      "chip": "ym2612"
    },
    {
      "channel": 1,
      "note": 55,
      "start": 11.0705,
      "duration": 0.0414,
      "velocity": 107,
      "chip": "ym2612"
    },
    {
      "channel": 4,
      "note": 91,
      "start": 11.0713,
      "duration": 0.0149,
      "velocity": 94,
      "chip": "ym2612"
    },
    {
      "channel": 0,
      "note": 89,
      "start": 11.0799,
      "duration": 0.0312,
      "velocity": 94,
      "chip": "ym2612"
    },
    {
      "channel": 4,
      "note": 88,
      "start": 11.0868,
      "duration": 0.075,
      "velocity": 94,
      "chip": "ym2612"
    },
    {
      "channel": 0,
      "note": 86,
      "start": 11.1117,
      "duration": 0.0828,
      "velocity": 94,
      "chip": "ym2612"
    },
    {
      "channel": 1,
      "note": 55,
      "start": 11.1124,
      "duration": 0.049,
      "velocity": 107,
      "chip": "ym2612"
    },
    {
      "channel": 4,
      "note": 90,
      "start": 11.1625,
      "duration": 0.0665,
      "velocity": 94,
      "chip": "ym2612"
    },
    {
      "channel": 0,
      "note": 88,
      "start": 11.195,
      "duration": 0.0661,
      "velocity": 94,
      "chip": "ym2612"
    },
    {
      "channel": 1,
      "note": 55,
      "start": 11.2286,
      "duration": 0.0332,
      "velocity": 107,
      "chip": "ym2612"
    },
    {
      "channel": 4,
      "note": 87,
      "start": 11.2295,
      "duration": 0.0821,
      "velocity": 94,
      "chip": "ym2612"
    },
    {
      "channel": 0,
      "note": 85,
      "start": 11.2617,
      "duration": 0.083,
      "velocity": 94,
      "chip": "ym2612"
    },
    {
      "channel": 4,
      "note": 89,
      "start": 11.3122,
      "duration": 0.0399,
      "velocity": 94,
      "chip": "ym2612"
    },
    {
      "channel": 0,
      "note": 87,
      "start": 11.3453,
      "duration": 0.0124,
      "velocity": 94,
      "chip": "ym2612"
    },
    {
      "channel": 1,
      "note": 57,
      "start": 11.346,
      "duration": 0.022,
      "velocity": 107,
      "chip": "ym2612"
    },
    {
      "channel": 4,
      "note": 86,
      "start": 11.3527,
      "duration": 0.0161,
      "velocity": 94,
      "chip": "ym2612"
    },
    {
      "channel": 0,
      "note": 84,
      "start": 11.3583,
      "duration": 0.0162,
      "velocity": 94,
      "chip": "ym2612"
    },
    {
      "channel": 1,
      "note": 55,
      "start": 11.3685,
      "duration": 0.0417,
      "velocity": 107,
      "chip": "ym2612"
    },
    {
      "channel": 4,
      "note": 88,
      "start": 11.3694,
      "duration": 0.012,
      "velocity": 94,
      "chip": "ym2612"
    },
    {
      "channel": 0,
      "note": 86,
      "start": 11.375,
      "duration": 0.0345,
      "velocity": 94,
      "chip": "ym2612"
    },
    {
      "channel": 4,
      "note": 85,
      "start": 11.382,
      "duration": 0.0341,
      "velocity": 94,
      "chip": "ym2612"
    },
    {
      "channel": 0,
      "note": 83,
      "start": 11.4101,
      "duration": 0.0113,
      "velocity": 94,
      "chip": "ym2612"
    },
    {
      "channel": 4,
      "note": 87,
      "start": 11.4167,
      "duration": 0.0116,
      "velocity": 94,
      "chip": "ym2612"
    },
    {
      "channel": 0,
      "note": 85,
      "start": 11.422,
      "duration": 0.0149,
      "velocity": 94,
      "chip": "ym2612"
    },
    {
      "channel": 1,
      "note": 55,
      "start": 11.428,
      "duration": 0.0222,
      "velocity": 107,
      "chip": "ym2612"
    },
    {
      "channel": 4,
      "note": 84,
      "start": 11.4289,
      "duration": 0.0148,
      "velocity": 94,
      "chip": "ym2612"
    },
    {
      "channel": 0,
      "note": 82,
      "start": 11.4374,
      "duration": 0.0121,
      "velocity": 94,
      "chip": "ym2612"
    },
    {
      "channel": 4,
      "note": 86,
      "start": 11.4443,
      "duration": 0.0123,
      "velocity": 94,
      "chip": "ym2612"
    },
    {
      "channel": 0,
      "note": 84,
      "start": 11.4501,
      "duration": 0.0145,
      "velocity": 94,
      "chip": "ym2612"
    },
    {
      "channel": 4,
      "note": 83,
      "start": 11.4572,
      "duration": 0.0144,
      "velocity": 94,
      "chip": "ym2612"
    },
    {
      "channel": 0,
      "note": 81,
      "start": 11.4653,
      "duration": 0.0118,
      "velocity": 94,
      "chip": "ym2612"
    },
    {
      "channel": 1,
      "note": 55,
      "start": 11.4713,
      "duration": 0.0065,
      "velocity": 107,
      "chip": "ym2612"
    },
    {
      "channel": 4,
      "note": 85,
      "start": 11.4721,
      "duration": 0.0142,
      "velocity": 94,
      "chip": "ym2612"
    },
    {
      "channel": 0,
      "note": 83,
      "start": 11.4776,
      "duration": 0.0143,
      "velocity": 94,
      "chip": "ym2612"
    },
    {
      "channel": 4,
      "note": 82,
      "start": 11.4869,
      "duration": 0.0129,
      "velocity": 94,
      "chip": "ym2612"
    },
    {
      "channel": 0,
      "note": 80,
      "start": 11.4925,
      "duration": 0.0129,
      "velocity": 94,
      "chip": "ym2612"
    },
    {
      "channel": 1,
      "note": 57,
      "start": 11.4932,
      "duration": 0.0454,
      "velocity": 107,
      "chip": "ym2612"
    },
    {
      "channel": 4,
      "note": 84,
      "start": 11.5004,
      "duration": 0.0156,
      "velocity": 94,
      "chip": "ym2612"
    },
    {
      "channel": 0,
      "note": 82,
      "start": 11.5059,
      "duration": 0.0161,
      "velocity": 94,
      "chip": "ym2612"
    },
    {
      "channel": 4,
      "note": 81,
      "start": 11.5166,
      "duration": 0.0124,
      "velocity": 94,
      "chip": "ym2612"
    },
    {
      "channel": 0,
      "note": 79,
      "start": 11.5226,
      "duration": 0.0153,
      "velocity": 94,
      "chip": "ym2612"
    },
    {
      "channel": 4,
      "note": 83,
      "start": 11.5296,
      "duration": 0.0158,
      "velocity": 94,
      "chip": "ym2612"
    },
    {
      "channel": 0,
      "note": 81,
      "start": 11.5385,
      "duration": 0.0124,
      "velocity": 94,
      "chip": "ym2612"
    },
    {
      "channel": 1,
      "note": 55,
      "start": 11.5392,
      "duration": 0.0427,
      "velocity": 107,
      "chip": "ym2612"
    },
    {
      "channel": 4,
      "note": 80,
      "start": 11.5459,
      "duration": 0.0119,
      "velocity": 94,
      "chip": "ym2612"
    },
    {
      "channel": 0,
      "note": 78,
      "start": 11.5515,
      "duration": 0.0148,
      "velocity": 94,
      "chip": "ym2612"
    },
    {
      "channel": 4,
      "note": 82,
      "start": 11.5584,
      "duration": 0.0148,
      "velocity": 94,
      "chip": "ym2612"
    },
    {
      "channel": 0,
      "note": 80,
      "start": 11.5669,
      "duration": 0.0141,
      "velocity": 100,
      "chip": "ym2612"
    },
    {
      "channel": 4,
      "note": 79,
      "start": 11.5737,
      "duration": 0.0161,
      "velocity": 94,
      "chip": "ym2612"
    },
    {
      "channel": 0,
      "note": 80,
      "start": 11.5816,
      "duration": 0.0041,
      "velocity": 100,
      "chip": "ym2612"
    },
    {
      "channel": 1,
      "note": 52,
      "start": 11.5824,
      "duration": 0.0383,
      "velocity": 107,
      "chip": "ym2612"
    },
    {
      "channel": 0,
      "note": 81,
      "start": 11.5863,
      "duration": 0.5559,
      "velocity": 100,
      "chip": "ym2612"
    },
    {
      "channel": 4,
      "note": 81,
      "start": 11.5903,
      "duration": 0.0313,
      "velocity": 94,
      "chip": "ym2612"
    },
    {
      "channel": 1,
      "note": 54,
      "start": 11.6214,
      "duration": 0.1165,
      "velocity": 107,
      "chip": "ym2612"
    },
    {
      "channel": 4,
      "note": 78,
      "start": 11.6222,
      "duration": 0.0823,
      "velocity": 94,
      "chip": "ym2612"
    },
    {
      "channel": 4,
      "note": 80,
      "start": 11.7051,
      "duration": 0.044,
      "velocity": 100,
      "chip": "ym2612"
    },
    {
      "channel": 1,
      "note": 59,
      "start": 11.7384,
      "duration": 0.028,
      "velocity": 107,
      "chip": "ym2612"
    },
    {
      "channel": 2,
      "note": 73,
      "start": 11.7391,
      "duration": 0.028,
      "velocity": 110,
      "chip": "ym2612"
    },
    {
      "channel": 3,
      "note": 69,
      "start": 11.7399,
      "duration": 0.0279,
      "velocity": 110,
      "chip": "ym2612"
    },
    {
      "channel": 4,
      "note": 80,
      "start": 11.7497,
      "duration": 0.0033,
      "velocity": 100,
      "chip": "ym2612"
    },
    {
      "channel": 4,
      "note": 81,
      "start": 11.7536,
      "duration": 0.5552,
      "velocity": 100,
      "chip": "ym2612"
    },
    {
      "channel": 1,
      "note": 62,
      "start": 11.767,
      "duration": 0.0215,
      "velocity": 107,
      "chip": "ym2612"
    },
    {
      "channel": 2,
      "note": 73,
      "start": 11.7677,
      "duration": 0.0211,
      "velocity": 110,
      "chip": "ym2612"
    },
    {
      "channel": 3,
      "note": 69,
      "start": 11.7684,
      "duration": 0.021,
      "velocity": 110,
      "chip": "ym2612"
    },
    {
      "channel": 2,
      "note": 73,
      "start": 11.7894,
      "duration": 0.0248,
      "velocity": 110,
      "chip": "ym2612"
    },
    {
      "channel": 3,
      "note": 69,
      "start": 11.7901,
      "duration": 0.0247,
      "velocity": 110,
      "chip": "ym2612"
    },
    {
      "channel": 1,
      "note": 61,
      "start": 11.814,
      "duration": 0.0267,
      "velocity": 107,
      "chip": "ym2612"
    },
    {
      "channel": 2,
      "note": 73,
      "start": 11.8147,
      "duration": 0.0262,
      "velocity": 110,
      "chip": "ym2612"
    },
    {
      "channel": 3,
      "note": 69,
      "start": 11.8155,
      "duration": 0.0258,
      "velocity": 110,
      "chip": "ym2612"
    },
    {
      "channel": 1,
      "note": 59,
      "start": 11.8837,
      "duration": 0.1163,
      "velocity": 107,
      "chip": "ym2612"
    },
    {
      "channel": 2,
      "note": 73,
      "start": 12.0009,
      "duration": 0.0422,
      "velocity": 110,
      "chip": "ym2612"
    },
    {
      "channel": 3,
      "note": 69,
      "start": 12.0016,
      "duration": 0.0422,
      "velocity": 110,
      "chip": "ym2612"
    },
    {
      "channel": 1,
      "note": 57,
      "start": 12.0429,
      "duration": 0.1,
      "velocity": 107,
      "chip": "ym2612"
    },
    {
      "channel": 2,
      "note": 73,
      "start": 12.0436,
      "duration": 0.0996,
      "velocity": 110,
      "chip": "ym2612"
    },
    {
      "channel": 3,
      "note": 69,
      "start": 12.0444,
      "duration": 0.0995,
      "velocity": 110,
      "chip": "ym2612"
    },
    {
      "channel": 0,
      "note": 83,
      "start": 12.1428,
      "duration": 0.0409,
      "velocity": 100,
      "chip": "ym2612"
    },
    {
      "channel": 2,
      "note": 73,
      "start": 12.1438,
      "duration": 0.0409,
      "velocity": 110,
      "chip": "ym2612"
    },
    {
      "channel": 3,
      "note": 69,
      "start": 12.1446,
      "duration": 0.0409,
      "velocity": 110,
      "chip": "ym2612"
    },
    {
      "channel": 1,
      "note": 57,
      "start": 12.1846,
      "duration": 0.1167,
      "velocity": 107,
      "chip": "ym2612"
    },
    {
      "channel": 2,
      "note": 73,
      "start": 12.1853,
      "duration": 0.1168,
      "velocity": 110,
      "chip": "ym2612"
    },
    {
      "channel": 3,
      "note": 69,
      "start": 12.1861,
      "duration": 0.1163,
      "velocity": 110,
      "chip": "ym2612"
    },
    {
      "channel": 0,
      "note": 86,
      "start": 12.3012,
      "duration": 0.0219,
      "velocity": 100,
      "chip": "ym2612"
    },
    {
      "channel": 1,
      "note": 59,
      "start": 12.302,
      "duration": 0.0214,
      "velocity": 107,
      "chip": "ym2612"
    },
    {
      "channel": 4,
      "note": 83,
      "start": 12.3095,
      "duration": 0.0199,
      "velocity": 100,
      "chip": "ym2612"
    },
    {
      "channel": 1,
      "note": 59,
      "start": 12.324,
      "duration": 0.0025,
      "velocity": 107,
      "chip": "ym2612"
    },
    {
      "channel": 0,
      "note": 88,
      "start": 12.3413,
      "duration": 0.1099,
      "velocity": 100,
      "chip": "ym2612"
    },
    {
      "channel": 1,
      "note": 61,
      "start": 12.342,
      "duration": 0.2101,
      "velocity": 107,
      "chip": "ym2612"
    },
    {
      "channel": 2,
      "note": 73,
      "start": 12.3428,
      "duration": 0.109,
      "velocity": 110,
      "chip": "ym2612"
    },
    {
      "channel": 3,
      "note": 69,
      "start": 12.3435,
      "duration": 0.109,
      "velocity": 110,
      "chip": "ym2612"
    },
    {
      "channel": 4,
      "note": 86,
      "start": 12.3695,
      "duration": 0.1159,
      "velocity": 100,
      "chip": "ym2612"
    },
    {
      "channel": 2,
      "note": 73,
      "start": 12.4523,
      "duration": 0.1006,
      "velocity": 110,
      "chip": "ym2612"
    },
    {
      "channel": 3,
      "note": 69,
      "start": 12.4531,
      "duration": 0.1001,
      "velocity": 110,
      "chip": "ym2612"
    },
    {
      "channel": 0,
      "note": 85,
      "start": 12.552,
      "duration": 0.0068,
      "velocity": 100,
      "chip": "ym2612"
    },
    {
      "channel": 1,
      "note": 57,
      "start": 12.5527,
      "duration": 0.0224,
      "velocity": 107,
      "chip": "ym2612"
    },
    {
      "channel": 0,
      "note": 86,
      "start": 12.5595,
      "duration": 0.0188,
      "velocity": 100,
      "chip": "ym2612"
    },
    {
      "channel": 4,
      "note": 88,
      "start": 12.5633,
      "duration": 0.0212,
      "velocity": 100,
      "chip": "ym2612"
    },
    {
      "channel": 1,
      "note": 55,
      "start": 12.5757,
      "duration": 0.0423,
      "velocity": 107,
      "chip": "ym2612"
    },
    {
      "channel": 0,
      "note": 82,
      "start": 12.6179,
      "duration": 0.1163,
      "velocity": 100,
      "chip": "ym2612"
    },
    {
      "channel": 4,
      "note": 85,
      "start": 12.6517,
      "duration": 0.016,
      "velocity": 100,
      "chip": "ym2612"
    },
    {
      "channel": 4,
      "note": 86,
      "start": 12.6684,
      "duration": 0.0751,
      "velocity": 100,
      "chip": "ym2612"
    },
    {
      "channel": 1,
      "note": 55,
      "start": 12.7351,
      "duration": 0.0415,
      "velocity": 107,
      "chip": "ym2612"
    },
    {
      "channel": 0,
      "note": 81,
      "start": 12.7764,
      "duration": 0.1161,
      "velocity": 100,
      "chip": "ym2612"
    },
    {
      "channel": 1,
      "note": 55,
      "start": 12.7771,
      "duration": 0.0323,
      "velocity": 107,
      "chip": "ym2612"
    },
    {
      "channel": 4,
      "note": 82,
      "start": 12.8105,
      "duration": 0.116,
      "velocity": 100,
      "chip": "ym2612"
    },
    {
      "channel": 0,
      "note": 79,
      "start": 12.8931,
      "duration": 0.0997,
      "velocity": 100,
      "chip": "ym2612"
    },
    {
      "channel": 1,
      "note": 55,
      "start": 12.8938,
      "duration": 0.0323,
      "velocity": 107,
      "chip": "ym2612"
    },
    {
      "channel": 1,
      "note": 57,
      "start": 12.9937,
      "duration": 0.0194,
      "velocity": 107,
      "chip": "ym2612"
    },
    {
      "channel": 4,
      "note": 81,
      "start": 13.0021,
      "duration": 0.0177,
      "velocity": 100,
      "chip": "ym2612"
    },
    {
      "channel": 0,
      "note": 76,
      "start": 13.013,
      "duration": 0.5474,
      "velocity": 100,
      "chip": "ym2612"
    },
    {
      "channel": 1,
      "note": 55,
      "start": 13.0137,
      "duration": 0.0413,
      "velocity": 107,
      "chip": "ym2612"
    },
    {
      "channel": 4,
      "note": 79,
      "start": 13.0204,
      "duration": 0.0682,
      "velocity": 100,
      "chip": "ym2612"
    },
    {
      "channel": 1,
      "note": 55,
      "start": 13.1727,
      "duration": 0.0419,
      "velocity": 107,
      "chip": "ym2612"
    },
    {
      "channel": 4,
      "note": 76,
      "start": 13.1793,
      "duration": 0.5364,
      "velocity": 100,
      "chip": "ym2612"
    },
    {
      "channel": 1,
      "note": 55,
      "start": 13.332,
      "duration": 0.0062,
      "velocity": 107,
      "chip": "ym2612"
    },
    {
      "channel": 1,
      "note": 57,
      "start": 13.3572,
      "duration": 0.0442,
      "velocity": 107,
      "chip": "ym2612"
    },
    {
      "channel": 1,
      "note": 55,
      "start": 13.402,
      "duration": 0.1588,
      "velocity": 107,
      "chip": "ym2612"
    },
    {
      "channel": 1,
      "note": 52,
      "start": 13.5614,
      "duration": 0.0239,
      "velocity": 107,
      "chip": "ym2612"
    },
    {
      "channel": 1,
      "note": 54,
      "start": 13.5859,
      "duration": 0.117,
      "velocity": 107,
      "chip": "ym2612"
    },
    {
      "channel": 0,
      "note": 79,
      "start": 13.7028,
      "duration": 0.0978,
      "velocity": 100,
      "chip": "ym2612"
    },
    {
      "channel": 1,
      "note": 59,
      "start": 13.7035,
      "duration": 0.024,
      "velocity": 107,
      "chip": "ym2612"
    },
    {
      "channel": 2,
      "note": 75,
      "start": 13.7042,
      "duration": 0.0239,
      "velocity": 110,
      "chip": "ym2612"
    },
    {
      "channel": 3,
      "note": 70,
      "start": 13.705,
      "duration": 0.0239,
      "velocity": 110,
      "chip": "ym2612"
    },
    {
      "channel": 1,
      "note": 62,
      "start": 13.728,
      "duration": 0.0233,
      "velocity": 107,
      "chip": "ym2612"
    },
    {
      "channel": 2,
      "note": 75,
      "start": 13.7287,
      "duration": 0.0229,
      "velocity": 110,
      "chip": "ym2612"
    },
    {
      "channel": 3,
      "note": 70,
      "start": 13.7295,
      "duration": 0.0229,
      "velocity": 110,
      "chip": "ym2612"
    },
    {
      "channel": 2,
      "note": 75,
      "start": 13.7523,
      "duration": 0.0238,
      "velocity": 110,
      "chip": "ym2612"
    },
    {
      "channel": 3,
      "note": 70,
      "start": 13.753,
      "duration": 0.0238,
      "velocity": 110,
      "chip": "ym2612"
    },
    {
      "channel": 4,
      "note": 79,
      "start": 13.7598,
      "duration": 0.1959,
      "velocity": 100,
      "chip": "ym2612"
    },
    {
      "channel": 1,
      "note": 61,
      "start": 13.7759,
      "duration": 0.0255,
      "velocity": 107,
      "chip": "ym2612"
    },
    {
      "channel": 2,
      "note": 75,
      "start": 13.7767,
      "duration": 0.025,
      "velocity": 110,
      "chip": "ym2612"
    },
    {
      "channel": 3,
      "note": 70,
      "start": 13.7774,
      "duration": 0.0246,
      "velocity": 110,
      "chip": "ym2612"
    },
    {
      "channel": 0,
      "note": 81,
      "start": 13.8012,
      "duration": 0.0251,
      "velocity": 100,
      "chip": "ym2612"
    },
    {
      "channel": 0,
      "note": 79,
      "start": 13.827,
      "duration": 0.0994,
      "velocity": 100,
      "chip": "ym2612"
    },
    {
      "channel": 1,
      "note": 59,
      "start": 13.8277,
      "duration": 0.1163,
      "velocity": 107,
      "chip": "ym2612"
    },
    {
      "channel": 0,
      "note": 81,
      "start": 13.927,
      "duration": 0.0163,
      "velocity": 100,
      "chip": "ym2612"
    },
    {
      "channel": 0,
      "note": 82,
      "start": 13.9439,
      "duration": 0.0419,
      "velocity": 100,
      "chip": "ym2612"
    },
    {
      "channel": 2,
      "note": 74,
      "start": 13.9449,
      "duration": 0.0419,
      "velocity": 110,
      "chip": "ym2612"
    },
    {
      "channel": 3,
      "note": 71,
      "start": 13.9457,
      "duration": 0.0418,
      "velocity": 110,
      "chip": "ym2612"
    },
    {
      "channel": 4,
      "note": 81,
      "start": 13.9563,
      "duration": 0.0638,
      "velocity": 100,
      "chip": "ym2612"
    },
    {
      "channel": 1,
      "note": 57,
      "start": 13.9867,
      "duration": 0.1167,
      "velocity": 107,
      "chip": "ym2612"
    },
    {
      "channel": 2,
      "note": 74,
      "start": 13.9874,
      "duration": 0.1163,
      "velocity": 110,
      "chip": "ym2612"
    },
    {
      "channel": 3,
      "note": 71,
      "start": 13.9881,
      "duration": 0.1163,
      "velocity": 110,
      "chip": "ym2612"
    },
    {
      "channel": 4,
      "note": 79,
      "start": 14.0207,
      "duration": 0.0877,
      "velocity": 100,
      "chip": "ym2612"
    },
    {
      "channel": 0,
      "note": 81,
      "start": 14.1033,
      "duration": 0.041,
      "velocity": 100,
      "chip": "ym2612"
    },
    {
      "channel": 2,
      "note": 74,
      "start": 14.1043,
      "duration": 0.041,
      "velocity": 110,
      "chip": "ym2612"
    },
    {
      "channel": 3,
      "note": 71,
      "start": 14.1051,
      "duration": 0.041,
      "velocity": 110,
      "chip": "ym2612"
    },
    {
      "channel": 4,
      "note": 81,
      "start": 14.109,
      "duration": 0.003,
      "velocity": 100,
      "chip": "ym2612"
    },
    {
      "channel": 4,
      "note": 82,
      "start": 14.1126,
      "duration": 0.066,
      "velocity": 100,
      "chip": "ym2612"
    },
    {
      "channel": 1,
      "note": 57,
      "start": 14.1452,
      "duration": 0.1167,
      "velocity": 107,
      "chip": "ym2612"
    },
    {
      "channel": 2,
      "note": 74,
      "start": 14.1459,
      "duration": 0.1168,
      "velocity": 110,
      "chip": "ym2612"
    },
    {
      "channel": 3,
      "note": 71,
      "start": 14.1466,
      "duration": 0.1163,
      "velocity": 110,
      "chip": "ym2612"
    },
    {
      "channel": 0,
      "note": 84,
      "start": 14.2618,
      "duration": 0.0182,
      "velocity": 100,
      "chip": "ym2612"
    },
    {
      "channel": 1,
      "note": 59,
      "start": 14.2625,
      "duration": 0.0182,
      "velocity": 107,
      "chip": "ym2612"
    },
    {
      "channel": 4,
      "note": 81,
      "start": 14.2693,
      "duration": 0.0209,
      "velocity": 100,
      "chip": "ym2612"
    },
    {
      "channel": 0,
      "note": 83,
      "start": 14.2806,
      "duration": 0.0192,
      "velocity": 100,
      "chip": "ym2612"
    },
    {
      "channel": 1,
      "note": 59,
      "start": 14.2813,
      "duration": 0.0057,
      "velocity": 107,
      "chip": "ym2612"
    },
    {
      "channel": 1,
      "note": 61,
      "start": 14.3006,
      "duration": 0.2116,
      "velocity": 107,
      "chip": "ym2612"
    },
    {
      "channel": 2,
      "note": 74,
      "start": 14.3013,
      "duration": 0.0947,
      "velocity": 110,
      "chip": "ym2612"
    },
    {
      "channel": 3,
      "note": 71,
      "start": 14.3021,
      "duration": 0.0946,
      "velocity": 110,
      "chip": "ym2612"
    },
    {
      "channel": 4,
      "note": 84,
      "start": 14.3132,
      "duration": 0.1163,
      "velocity": 100,
      "chip": "ym2612"
    },
    {
      "channel": 0,
      "note": 79,
      "start": 14.3956,
      "duration": 0.1163,
      "velocity": 100,
      "chip": "ym2612"
    },
    {
      "channel": 2,
      "note": 74,
      "start": 14.3966,
      "duration": 0.1163,
      "velocity": 110,
      "chip": "ym2612"
    },
    {
      "channel": 3,
      "note": 71,
      "start": 14.3974,
      "duration": 0.1159,
      "velocity": 110,
      "chip": "ym2612"
    },
    {
      "channel": 4,
      "note": 83,
      "start": 14.4301,
      "duration": 0.0895,
      "velocity": 100,
      "chip": "ym2612"
    },
    {
      "channel": 1,
      "note": 57,
      "start": 14.5128,
      "duration": 0.0192,
      "velocity": 107,
      "chip": "ym2612"
    },
    {
      "channel": 1,
      "note": 55,
      "start": 14.5326,
      "duration": 0.0419,
      "velocity": 107,
      "chip": "ym2612"
    },
    {
      "channel": 4,
      "note": 79,
      "start": 14.5385,
      "duration": 0.0695,
      "velocity": 100,
      "chip": "ym2612"
    },
    {
      "channel": 1,
      "note": 55,
      "start": 14.6752,
      "duration": 0.041,
      "velocity": 107,
      "chip": "ym2612"
    },
    {
      "channel": 1,
      "note": 55,
      "start": 14.7168,
      "duration": 0.0328,
      "velocity": 107,
      "chip": "ym2612"
    },
    {
      "channel": 1,
      "note": 55,
      "start": 14.8335,
      "duration": 0.0328,
      "velocity": 107,
      "chip": "ym2612"
    },
    {
      "channel": 1,
      "note": 57,
      "start": 14.9504,
      "duration": 0.0178,
      "velocity": 107,
      "chip": "ym2612"
    },
    {
      "channel": 1,
      "note": 55,
      "start": 14.9687,
      "duration": 0.0252,
      "velocity": 107,
      "chip": "ym2612"
    },
    {
      "channel": 1,
      "note": 55,
      "start": 15.1115,
      "duration": 0.0419,
      "velocity": 107,
      "chip": "ym2612"
    },
    {
      "channel": 1,
      "note": 55,
      "start": 15.2708,
      "duration": 0.0049,
      "velocity": 107,
      "chip": "ym2612"
    },
    {
      "channel": 1,
      "note": 57,
      "start": 15.3126,
      "duration": 0.0324,
      "velocity": 107,
      "chip": "ym2612"
    },
    {
      "channel": 1,
      "note": 55,
      "start": 15.3456,
      "duration": 0.1618,
      "velocity": 107,
      "chip": "ym2612"
    },
    {
      "channel": 0,
      "note": 80,
      "start": 15.5073,
      "duration": 0.0039,
      "velocity": 100,
      "chip": "ym2612"
    },
    {
      "channel": 1,
      "note": 52,
      "start": 15.508,
      "duration": 0.0382,
      "velocity": 107,
      "chip": "ym2612"
    },
    {
      "channel": 0,
      "note": 81,
      "start": 15.5117,
      "duration": 0.5531,
      "velocity": 100,
      "chip": "ym2612"
    },
    {
      "channel": 1,
      "note": 54,
      "start": 15.5468,
      "duration": 0.1165,
      "velocity": 107,
      "chip": "ym2612"
    },
    {
      "channel": 1,
      "note": 59,
      "start": 15.6638,
      "duration": 0.0256,
      "velocity": 107,
      "chip": "ym2612"
    },
    {
      "channel": 2,
      "note": 73,
      "start": 15.6645,
      "duration": 0.0256,
      "velocity": 110,
      "chip": "ym2612"
    },
    {
      "channel": 3,
      "note": 69,
      "start": 15.6653,
      "duration": 0.0256,
      "velocity": 110,
      "chip": "ym2612"
    },
    {
      "channel": 4,
      "note": 80,
      "start": 15.6726,
      "duration": 0.0033,
      "velocity": 100,
      "chip": "ym2612"
    },
    {
      "channel": 4,
      "note": 81,
      "start": 15.6765,
      "duration": 0.555,
      "velocity": 100,
      "chip": "ym2612"
    },
    {
      "channel": 1,
      "note": 62,
      "start": 15.69,
      "duration": 0.0217,
      "velocity": 107,
      "chip": "ym2612"
    },
    {
      "channel": 2,
      "note": 73,
      "start": 15.6907,
      "duration": 0.0212,
      "velocity": 110,
      "chip": "ym2612"
    },
    {
      "channel": 3,
      "note": 69,
      "start": 15.6915,
      "duration": 0.0212,
      "velocity": 110,
      "chip": "ym2612"
    },
    {
      "channel": 2,
      "note": 73,
      "start": 15.7126,
      "duration": 0.0243,
      "velocity": 110,
      "chip": "ym2612"
    },
    {
      "channel": 3,
      "note": 69,
      "start": 15.7133,
      "duration": 0.0244,
      "velocity": 110,
      "chip": "ym2612"
    },
    {
      "channel": 1,
      "note": 61,
      "start": 15.7368,
      "duration": 0.0265,
      "velocity": 107,
      "chip": "ym2612"
    },
    {
      "channel": 2,
      "note": 73,
      "start": 15.7375,
      "duration": 0.0261,
      "velocity": 110,
      "chip": "ym2612"
    },
    {
      "channel": 3,
      "note": 69,
      "start": 15.7382,
      "duration": 0.0256,
      "velocity": 110,
      "chip": "ym2612"
    },
    {
      "channel": 1,
      "note": 59,
      "start": 15.8063,
      "duration": 0.1163,
      "velocity": 107,
      "chip": "ym2612"
    },
    {
      "channel": 2,
      "note": 73,
      "start": 15.9235,
      "duration": 0.0422,
      "velocity": 110,
      "chip": "ym2612"
    },
    {
      "channel": 3,
      "note": 69,
      "start": 15.9242,
      "duration": 0.0422,
      "velocity": 110,
      "chip": "ym2612"
    },
    {
      "channel": 1,
      "note": 57,
      "start": 15.9656,
      "duration": 0.1,
      "velocity": 107,
      "chip": "ym2612"
    },
    {
      "channel": 2,
      "note": 73,
      "start": 15.9663,
      "duration": 0.0996,
      "velocity": 110,
      "chip": "ym2612"
    },
    {
      "channel": 3,
      "note": 69,
      "start": 15.967,
      "duration": 0.0995,
      "velocity": 110,
      "chip": "ym2612"
    },
    {
      "channel": 0,
      "note": 83,
      "start": 16.0654,
      "duration": 0.0409,
      "velocity": 100,
      "chip": "ym2612"
    },
    {
      "channel": 2,
      "note": 73,
      "start": 16.0665,
      "duration": 0.0409,
      "velocity": 110,
      "chip": "ym2612"
    },
    {
      "channel": 3,
      "note": 69,
      "start": 16.0672,
      "duration": 0.0409,
      "velocity": 110,
      "chip": "ym2612"
    },
    {
      "channel": 1,
      "note": 57,
      "start": 16.1073,
      "duration": 0.1167,
      "velocity": 107,
      "chip": "ym2612"
    },
    {
      "channel": 2,
      "note": 73,
      "start": 16.108,
      "duration": 0.1168,
      "velocity": 110,
      "chip": "ym2612"
    },
    {
      "channel": 3,
      "note": 69,
      "start": 16.1087,
      "duration": 0.1163,
      "velocity": 110,
      "chip": "ym2612"
    },
    {
      "channel": 0,
      "note": 86,
      "start": 16.2239,
      "duration": 0.0219,
      "velocity": 100,
      "chip": "ym2612"
    },
    {
      "channel": 1,
      "note": 59,
      "start": 16.2246,
      "duration": 0.0215,
      "velocity": 107,
      "chip": "ym2612"
    },
    {
      "channel": 4,
      "note": 83,
      "start": 16.2321,
      "duration": 0.02,
      "velocity": 100,
      "chip": "ym2612"
    },
    {
      "channel": 1,
      "note": 59,
      "start": 16.2467,
      "duration": 0.0025,
      "velocity": 107,
      "chip": "ym2612"
    },
    {
      "channel": 0,
      "note": 88,
      "start": 16.264,
      "duration": 0.0932,
      "velocity": 100,
      "chip": "ym2612"
    },
    {
      "channel": 1,
      "note": 61,
      "start": 16.2647,
      "duration": 0.2101,
      "velocity": 107,
      "chip": "ym2612"
    },
    {
      "channel": 2,
      "note": 73,
      "start": 16.2655,
      "duration": 0.0923,
      "velocity": 110,
      "chip": "ym2612"
    },
    {
      "channel": 3,
      "note": 69,
      "start": 16.2662,
      "duration": 0.0924,
      "velocity": 110,
      "chip": "ym2612"
    },
    {
      "channel": 4,
      "note": 86,
      "start": 16.2922,
      "duration": 0.1159,
      "velocity": 100,
      "chip": "ym2612"
    },
    {
      "channel": 2,
      "note": 73,
      "start": 16.3583,
      "duration": 0.1172,
      "velocity": 110,
      "chip": "ym2612"
    },
    {
      "channel": 3,
      "note": 69,
      "start": 16.3591,
      "duration": 0.1168,
      "velocity": 110,
      "chip": "ym2612"
    },
    {
      "channel": 0,
      "note": 85,
      "start": 16.4747,
      "duration": 0.0041,
      "velocity": 100,
      "chip": "ym2612"
    },
    {
      "channel": 1,
      "note": 57,
      "start": 16.4754,
      "duration": 0.0224,
      "velocity": 107,
      "chip": "ym2612"
    },
    {
      "channel": 0,
      "note": 86,
      "start": 16.4794,
      "duration": 0.0216,
      "velocity": 100,
      "chip": "ym2612"
    },
    {
      "channel": 4,
      "note": 88,
      "start": 16.486,
      "duration": 0.0184,
      "velocity": 100,
      "chip": "ym2612"
    },
    {
      "channel": 1,
      "note": 55,
      "start": 16.4985,
      "duration": 0.0423,
      "velocity": 107,
      "chip": "ym2612"
    },
    {
      "channel": 0,
      "note": 82,
      "start": 16.5406,
      "duration": 0.1163,
      "velocity": 100,
      "chip": "ym2612"
    },
    {
      "channel": 4,
      "note": 85,
      "start": 16.5745,
      "duration": 0.016,
      "velocity": 100,
      "chip": "ym2612"
    },
    {
      "channel": 4,
      "note": 86,
      "start": 16.5912,
      "duration": 0.0751,
      "velocity": 100,
      "chip": "ym2612"
    },
    {
      "channel": 1,
      "note": 55,
      "start": 16.6578,
      "duration": 0.0414,
      "velocity": 107,
      "chip": "ym2612"
    },
    {
      "channel": 0,
      "note": 81,
      "start": 16.6991,
      "duration": 0.0994,
      "velocity": 100,
      "chip": "ym2612"
    },
    {
      "channel": 1,
      "note": 55,
      "start": 16.6998,
      "duration": 0.0323,
      "velocity": 107,
      "chip": "ym2612"
    },
    {
      "channel": 4,
      "note": 82,
      "start": 16.7332,
      "duration": 0.116,
      "velocity": 100,
      "chip": "ym2612"
    },
    {
      "channel": 0,
      "note": 79,
      "start": 16.7991,
      "duration": 0.1163,
      "velocity": 100,
      "chip": "ym2612"
    },
    {
      "channel": 1,
      "note": 55,
      "start": 16.7998,
      "duration": 0.049,
      "velocity": 107,
      "chip": "ym2612"
    },
    {
      "channel": 1,
      "note": 57,
      "start": 16.9164,
      "duration": 0.0194,
      "velocity": 107,
      "chip": "ym2612"
    },
    {
      "channel": 4,
      "note": 81,
      "start": 16.9248,
      "duration": 0.0177,
      "velocity": 100,
      "chip": "ym2612"
    },
    {
      "channel": 0,
      "note": 76,
      "start": 16.9357,
      "duration": 0.5475,
      "velocity": 100,
      "chip": "ym2612"
    },
    {
      "channel": 1,
      "note": 55,
      "start": 16.9364,
      "duration": 0.0413,
      "velocity": 107,
      "chip": "ym2612"
    },
    {
      "channel": 4,
      "note": 79,
      "start": 16.9431,
      "duration": 0.0682,
      "velocity": 100,
      "chip": "ym2612"
    },
    {
      "channel": 1,
      "note": 55,
      "start": 17.0953,
      "duration": 0.0419,
      "velocity": 107,
      "chip": "ym2612"
    },
    {
      "channel": 4,
      "note": 76,
      "start": 17.1019,
      "duration": 0.533,
      "velocity": 100,
      "chip": "ym2612"
    },
    {
      "channel": 1,
      "note": 55,
      "start": 17.238,
      "duration": 0.0093,
      "velocity": 107,
      "chip": "ym2612"
    },
    {
      "channel": 1,
      "note": 57,
      "start": 17.2799,
      "duration": 0.0442,
      "velocity": 107,
      "chip": "ym2612"
    },
    {
      "channel": 1,
      "note": 55,
      "start": 17.3247,
      "duration": 0.1589,
      "velocity": 107,
      "chip": "ym2612"
    },
    {
      "channel": 1,
      "note": 52,
      "start": 17.4841,
      "duration": 0.0239,
      "velocity": 107,
      "chip": "ym2612"
    },
    {
      "channel": 1,
      "note": 54,
      "start": 17.5087,
      "duration": 0.1171,
      "velocity": 107,
      "chip": "ym2612"
    },
    {
      "channel": 0,
      "note": 79,
      "start": 17.6256,
      "duration": 0.0977,
      "velocity": 100,
      "chip": "ym2612"
    },
    {
      "channel": 1,
      "note": 59,
      "start": 17.6263,
      "duration": 0.0237,
      "velocity": 107,
      "chip": "ym2612"
    },
    {
      "channel": 2,
      "note": 75,
      "start": 17.6271,
      "duration": 0.0237,
      "velocity": 110,
      "chip": "ym2612"
    },
    {
      "channel": 3,
      "note": 70,
      "start": 17.6278,
      "duration": 0.0237,
      "velocity": 110,
      "chip": "ym2612"
    },
    {
      "channel": 1,
      "note": 62,
      "start": 17.6507,
      "duration": 0.0233,
      "velocity": 107,
      "chip": "ym2612"
    },
    {
      "channel": 2,
      "note": 75,
      "start": 17.6514,
      "duration": 0.0229,
      "velocity": 110,
      "chip": "ym2612"
    },
    {
      "channel": 3,
      "note": 70,
      "start": 17.6521,
      "duration": 0.0229,
      "velocity": 110,
      "chip": "ym2612"
    },
    {
      "channel": 2,
      "note": 75,
      "start": 17.6749,
      "duration": 0.0238,
      "velocity": 110,
      "chip": "ym2612"
    },
    {
      "channel": 3,
      "note": 70,
      "start": 17.6756,
      "duration": 0.0238,
      "velocity": 110,
      "chip": "ym2612"
    },
    {
      "channel": 4,
      "note": 79,
      "start": 17.6825,
      "duration": 0.1926,
      "velocity": 100,
      "chip": "ym2612"
    },
    {
      "channel": 1,
      "note": 61,
      "start": 17.6985,
      "duration": 0.0255,
      "velocity": 107,
      "chip": "ym2612"
    },
    {
      "channel": 2,
      "note": 75,
      "start": 17.6992,
      "duration": 0.0251,
      "velocity": 110,
      "chip": "ym2612"
    },
    {
      "channel": 3,
      "note": 70,
      "start": 17.7,
      "duration": 0.0247,
      "velocity": 110,
      "chip": "ym2612"
    },
    {
      "channel": 0,
      "note": 81,
      "start": 17.7239,
      "duration": 0.0252,
      "velocity": 100,
      "chip": "ym2612"
    },
    {
      "channel": 0,
      "note": 79,
      "start": 17.7497,
      "duration": 0.0994,
      "velocity": 100,
      "chip": "ym2612"
    },
    {
      "channel": 1,
      "note": 59,
      "start": 17.7504,
      "duration": 0.1163,
      "velocity": 107,
      "chip": "ym2612"
    },
    {
      "channel": 0,
      "note": 81,
      "start": 17.8497,
      "duration": 0.0163,
      "velocity": 100,
      "chip": "ym2612"
    },
    {
      "channel": 0,
      "note": 82,
      "start": 17.8666,
      "duration": 0.0419,
      "velocity": 100,
      "chip": "ym2612"
    },
    {
      "channel": 2,
      "note": 74,
      "start": 17.8676,
      "duration": 0.0419,
      "velocity": 110,
      "chip": "ym2612"
    },
    {
      "channel": 3,
      "note": 71,
      "start": 17.8684,
      "duration": 0.0418,
      "velocity": 110,
      "chip": "ym2612"
    },
    {
      "channel": 4,
      "note": 81,
      "start": 17.8757,
      "duration": 0.0671,
      "velocity": 100,
      "chip": "ym2612"
    },
    {
      "channel": 1,
      "note": 57,
      "start": 17.9093,
      "duration": 0.1167,
      "velocity": 107,
      "chip": "ym2612"
    },
    {
      "channel": 2,
      "note": 74,
      "start": 17.91,
      "duration": 0.1163,
      "velocity": 110,
      "chip": "ym2612"
    },
    {
      "channel": 3,
      "note": 71,
      "start": 17.9108,
      "duration": 0.1163,
      "velocity": 110,
      "chip": "ym2612"
    },
    {
      "channel": 4,
      "note": 79,
      "start": 17.9433,
      "duration": 0.0877,
      "velocity": 100,
      "chip": "ym2612"
    },
    {
      "channel": 0,
      "note": 81,
      "start": 18.026,
      "duration": 0.041,
      "velocity": 100,
      "chip": "ym2612"
    },
    {
      "channel": 2,
      "note": 74,
      "start": 18.027,
      "duration": 0.041,
      "velocity": 110,
      "chip": "ym2612"
    },
    {
      "channel": 3,
      "note": 71,
      "start": 18.0277,
      "duration": 0.0409,
      "velocity": 110,
      "chip": "ym2612"
    },
    {
      "channel": 4,
      "note": 81,
      "start": 18.0317,
      "duration": 0.0029,
      "velocity": 100,
      "chip": "ym2612"
    },
    {
      "channel": 4,
      "note": 82,
      "start": 18.0353,
      "duration": 0.0659,
      "velocity": 100,
      "chip": "ym2612"
    },
    {
      "channel": 1,
      "note": 57,
      "start": 18.0678,
      "duration": 0.1001,
      "velocity": 107,
      "chip": "ym2612"
    },
    {
      "channel": 2,
      "note": 74,
      "start": 18.0685,
      "duration": 0.1001,
      "velocity": 110,
      "chip": "ym2612"
    },
    {
      "channel": 3,
      "note": 71,
      "start": 18.0693,
      "duration": 0.0996,
      "velocity": 110,
      "chip": "ym2612"
    },
    {
      "channel": 0,
      "note": 84,
      "start": 18.1678,
      "duration": 0.0209,
      "velocity": 100,
      "chip": "ym2612"
    },
    {
      "channel": 1,
      "note": 59,
      "start": 18.1685,
      "duration": 0.0209,
      "velocity": 107,
      "chip": "ym2612"
    },
    {
      "channel": 4,
      "note": 81,
      "start": 18.178,
      "duration": 0.0207,
      "velocity": 100,
      "chip": "ym2612"
    },
    {
      "channel": 0,
      "note": 83,
      "start": 18.1893,
      "duration": 0.0189,
      "velocity": 100,
      "chip": "ym2612"
    },
    {
      "channel": 1,
      "note": 59,
      "start": 18.19,
      "duration": 0.0027,
      "velocity": 107,
      "chip": "ym2612"
    },
    {
      "channel": 1,
      "note": 61,
      "start": 18.2091,
      "duration": 0.2258,
      "velocity": 107,
      "chip": "ym2612"
    },
    {
      "channel": 2,
      "note": 74,
      "start": 18.2098,
      "duration": 0.1089,
      "velocity": 110,
      "chip": "ym2612"
    },
    {
      "channel": 3,
      "note": 71,
      "start": 18.2106,
      "duration": 0.1088,
      "velocity": 110,
      "chip": "ym2612"
    },
    {
      "channel": 4,
      "note": 84,
      "start": 18.2359,
      "duration": 0.1163,
      "velocity": 100,
      "chip": "ym2612"
    },
    {
      "channel": 0,
      "note": 79,
      "start": 18.3182,
      "duration": 0.1163,
      "velocity": 100,
      "chip": "ym2612"
    },
    {
      "channel": 2,
      "note": 74,
      "start": 18.3193,
      "duration": 0.1163,
      "velocity": 110,
      "chip": "ym2612"
    },
    {
      "channel": 3,
      "note": 71,
      "start": 18.32,
      "duration": 0.1159,
      "velocity": 110,
      "chip": "ym2612"
    },
    {
      "channel": 4,
      "note": 83,
      "start": 18.3527,
      "duration": 0.0895,
      "velocity": 100,
      "chip": "ym2612"
    },
    {
      "channel": 1,
      "note": 57,
      "start": 18.4355,
      "duration": 0.0192,
      "velocity": 107,
      "chip": "ym2612"
    },
    {
      "channel": 1,
      "note": 55,
      "start": 18.4552,
      "duration": 0.0252,
      "velocity": 107,
      "chip": "ym2612"
    },
    {
      "channel": 4,
      "note": 79,
      "start": 18.4612,
      "duration": 0.0694,
      "velocity": 100,
      "chip": "ym2612"
    },
    {
      "channel": 1,
      "note": 55,
      "start": 18.5979,
      "duration": 0.041,
      "velocity": 107,
      "chip": "ym2612"
    },
    {
      "channel": 1,
      "note": 55,
      "start": 18.6395,
      "duration": 0.0328,
      "velocity": 107,
      "chip": "ym2612"
    },
    {
      "channel": 1,
      "note": 55,
      "start": 18.7561,
      "duration": 0.0328,
      "velocity": 107,
      "chip": "ym2612"
    },
    {
      "channel": 1,
      "note": 57,
      "start": 18.873,
      "duration": 0.0178,
      "velocity": 107,
      "chip": "ym2612"
    },
    {
      "channel": 1,
      "note": 55,
      "start": 18.8914,
      "duration": 0.0252,
      "velocity": 107,
      "chip": "ym2612"
    },
    {
      "channel": 1,
      "note": 55,
      "start": 19.0341,
      "duration": 0.0419,
      "velocity": 107,
      "chip": "ym2612"
    },
    {
      "channel": 1,
      "note": 55,
      "start": 19.1934,
      "duration": 0.0049,
      "velocity": 107,
      "chip": "ym2612"
    },
    {
      "channel": 1,
      "note": 57,
      "start": 19.2353,
      "duration": 0.0334,
      "velocity": 107,
      "chip": "ym2612"
    },
    {
      "channel": 1,
      "note": 55,
      "start": 19.2693,
      "duration": 0.0373,
      "velocity": 107,
      "chip": "ym2612"
    },
    {
      "channel": 1,
      "note": 51,
      "start": 19.3072,
      "duration": 0.0407,
      "velocity": 107,
      "chip": "ym2612"
    },
    {
      "channel": 1,
      "note": 63,
      "start": 19.3485,
      "duration": 0.1168,
      "velocity": 107,
      "chip": "ym2612"
    },
    {
      "channel": 2,
      "note": 87,
      "start": 19.3492,
      "duration": 0.1591,
      "velocity": 94,
      "chip": "ym2612"
    },
    {
      "channel": 3,
      "note": 75,
      "start": 19.3499,
      "duration": 0.1591,
      "velocity": 94,
      "chip": "ym2612"
    },
    {
      "channel": 0,
      "note": 79,
      "start": 19.4652,
      "duration": 0.2003,
      "velocity": 100,
      "chip": "ym2612"
    },
    {
      "channel": 1,
      "note": 51,
      "start": 19.4659,
      "duration": 0.0191,
      "velocity": 107,
      "chip": "ym2612"
    },
    {
      "channel": 1,
      "note": 51,
      "start": 19.5081,
      "duration": 0.0409,
      "velocity": 107,
      "chip": "ym2612"
    },
    {
      "channel": 2,
      "note": 87,
      "start": 19.5088,
      "duration": 0.0405,
      "velocity": 94,
      "chip": "ym2612"
    },
    {
      "channel": 3,
      "note": 75,
      "start": 19.5096,
      "duration": 0.0401,
      "velocity": 94,
      "chip": "ym2612"
    },
    {
      "channel": 4,
      "note": 79,
      "start": 19.5202,
      "duration": 0.2027,
      "velocity": 100,
      "chip": "ym2612"
    },
    {
      "channel": 0,
      "note": 81,
      "start": 19.6661,
      "duration": 0.0254,
      "velocity": 100,
      "chip": "ym2612"
    },
    {
      "channel": 1,
      "note": 51,
      "start": 19.6668,
      "duration": 0.0254,
      "velocity": 107,
      "chip": "ym2612"
    },
    {
      "channel": 2,
      "note": 87,
      "start": 19.6676,
      "duration": 0.0249,
      "velocity": 94,
      "chip": "ym2612"
    },
    {
      "channel": 3,
      "note": 75,
      "start": 19.6683,
      "duration": 0.0245,
      "velocity": 94,
      "chip": "ym2612"
    },
    {
      "channel": 0,
      "note": 79,
      "start": 19.6921,
      "duration": 0.0208,
      "velocity": 100,
      "chip": "ym2612"
    },
    {
      "channel": 0,
      "note": 82,
      "start": 19.7135,
      "duration": 0.0242,
      "velocity": 100,
      "chip": "ym2612"
    },
    {
      "channel": 1,
      "note": 53,
      "start": 19.7142,
      "duration": 0.0238,
      "velocity": 107,
      "chip": "ym2612"
    },
    {
      "channel": 2,
      "note": 89,
      "start": 19.715,
      "duration": 0.0233,
      "velocity": 94,
      "chip": "ym2612"
    },
    {
      "channel": 3,
      "note": 77,
      "start": 19.7157,
      "duration": 0.0234,
      "velocity": 94,
      "chip": "ym2612"
    },
    {
      "channel": 4,
      "note": 81,
      "start": 19.7236,
      "duration": 0.0649,
      "velocity": 100,
      "chip": "ym2612"
    },
    {
      "channel": 2,
      "note": 88,
      "start": 19.739,
      "duration": 0.1171,
      "velocity": 94,
      "chip": "ym2612"
    },
    {
      "channel": 3,
      "note": 76,
      "start": 19.7397,
      "duration": 0.1172,
      "velocity": 94,
      "chip": "ym2612"
    },
    {
      "channel": 4,
      "note": 79,
      "start": 19.789,
      "duration": 0.0788,
      "velocity": 100,
      "chip": "ym2612"
    },
    {
      "channel": 0,
      "note": 81,
      "start": 19.8553,
      "duration": 0.0251,
      "velocity": 100,
      "chip": "ym2612"
    },
    {
      "channel": 1,
      "note": 53,
      "start": 19.856,
      "duration": 0.0247,
      "velocity": 107,
      "chip": "ym2612"
    },
    {
      "channel": 2,
      "note": 89,
      "start": 19.8567,
      "duration": 0.0243,
      "velocity": 94,
      "chip": "ym2612"
    },
    {
      "channel": 3,
      "note": 77,
      "start": 19.8574,
      "duration": 0.0243,
      "velocity": 94,
      "chip": "ym2612"
    },
    {
      "channel": 4,
      "note": 82,
      "start": 19.8683,
      "duration": 0.0199,
      "velocity": 100,
      "chip": "ym2612"
    },
    {
      "channel": 2,
      "note": 93,
      "start": 19.8815,
      "duration": 0.0219,
      "velocity": 94,
      "chip": "ym2612"
    },
    {
      "channel": 3,
      "note": 81,
      "start": 19.8823,
      "duration": 0.0214,
      "velocity": 94,
      "chip": "ym2612"
    },
    {
      "channel": 0,
      "note": 79,
      "start": 19.9026,
      "duration": 0.0216,
      "velocity": 100,
      "chip": "ym2612"
    },
    {
      "channel": 1,
      "note": 53,
      "start": 19.9033,
      "duration": 0.0216,
      "velocity": 107,
      "chip": "ym2612"
    },
    {
      "channel": 4,
      "note": 81,
      "start": 19.9105,
      "duration": 0.0202,
      "velocity": 100,
      "chip": "ym2612"
    },
    {
      "channel": 0,
      "note": 81,
      "start": 19.9248,
      "duration": 0.0183,
      "velocity": 100,
      "chip": "ym2612"
    },
    {
      "channel": 1,
      "note": 53,
      "start": 19.9439,
      "duration": 0.0171,
      "velocity": 107,
      "chip": "ym2612"
    },
    {
      "channel": 4,
      "note": 79,
      "start": 19.9502,
      "duration": 0.0204,
      "velocity": 100,
      "chip": "ym2612"
    },
    {
      "channel": 0,
      "note": 79,
      "start": 19.9609,
      "duration": 0.0213,
      "velocity": 100,
      "chip": "ym2612"
    },
    {
      "channel": 1,
      "note": 53,
      "start": 19.9616,
      "duration": 0.0208,
      "velocity": 107,
      "chip": "ym2612"
    },
    {
      "channel": 4,
      "note": 81,
      "start": 19.9712,
      "duration": 0.0215,
      "velocity": 100,
      "chip": "ym2612"
    },
    {
      "channel": 1,
      "note": 55,
      "start": 20.0245,
      "duration": 0.1501,
      "velocity": 107,
      "chip": "ym2612"
    },
    {
      "channel": 2,
      "note": 74,
      "start": 20.0252,
      "duration": 0.1501,
      "velocity": 112,
      "chip": "ym2612"
    },
    {
      "channel": 3,
      "note": 71,
      "start": 20.026,
      "duration": 0.1501,
      "velocity": 112,
      "chip": "ym2612"
    },
    {
      "channel": 4,
      "note": 79,
      "start": 20.0326,
      "duration": 0.0217,
      "velocity": 100,
      "chip": "ym2612"
    },
    {
      "channel": 1,
      "note": 55,
      "start": 20.1752,
      "duration": 0.0187,
      "velocity": 107,
      "chip": "ym2612"
    },
    {
      "channel": 2,
      "note": 74,
      "start": 20.1759,
      "duration": 0.0183,
      "velocity": 112,
      "chip": "ym2612"
    },
    {
      "channel": 3,
      "note": 71,
      "start": 20.1767,
      "duration": 0.0179,
      "velocity": 112,
      "chip": "ym2612"
    },
    {
      "channel": 1,
      "note": 55,
      "start": 20.4266,
      "duration": 0.0229,
      "velocity": 107,
      "chip": "ym2612"
    },
    {
      "channel": 2,
      "note": 74,
      "start": 20.4273,
      "duration": 0.0229,
      "velocity": 112,
      "chip": "ym2612"
    },
    {
      "channel": 3,
      "note": 71,
      "start": 20.428,
      "duration": 0.0229,
      "velocity": 112,
      "chip": "ym2612"
    },
    {
      "channel": 1,
      "note": 53,
      "start": 20.45,
      "duration": 0.0255,
      "velocity": 107,
      "chip": "ym2612"
    },
    {
      "channel": 2,
      "note": 72,
      "start": 20.4507,
      "duration": 0.0255,
      "velocity": 112,
      "chip": "ym2612"
    },
    {
      "channel": 3,
      "note": 69,
      "start": 20.4515,
      "duration": 0.0254,
      "velocity": 112,
      "chip": "ym2612"
    },
    {
      "channel": 1,
      "note": 54,
      "start": 20.4761,
      "duration": 0.0412,
      "velocity": 107,
      "chip": "ym2612"
    },
    {
      "channel": 2,
      "note": 73,
      "start": 20.4768,
      "duration": 0.0412,
      "velocity": 112,
      "chip": "ym2612"
    },
    {
      "channel": 3,
      "note": 70,
      "start": 20.4776,
      "duration": 0.0412,
      "velocity": 112,
      "chip": "ym2612"
    },
    {
      "channel": 1,
      "note": 55,
      "start": 20.5179,
      "duration": 0.0212,
      "velocity": 107,
      "chip": "ym2612"
    },
    {
      "channel": 2,
      "note": 74,
      "start": 20.5186,
      "duration": 0.0208,
      "velocity": 112,
      "chip": "ym2612"
    },
    {
      "channel": 3,
      "note": 71,
      "start": 20.5194,
      "duration": 0.0203,
      "velocity": 112,
      "chip": "ym2612"
    },
    {
      "channel": 2,
      "note": 79,
      "start": 20.559,
      "duration": 0.0415,
      "velocity": 116,
      "chip": "ym2612"
    },
    {
      "channel": 3,
      "note": 75,
      "start": 20.562,
      "duration": 0.0392,
      "velocity": 116,
      "chip": "ym2612"
    },
    {
      "channel": 2,
      "note": 81,
      "start": 20.6011,
      "duration": 0.0203,
      "velocity": 94,
      "chip": "ym2612"
    },
    {
      "channel": 3,
      "note": 77,
      "start": 20.6018,
      "duration": 0.022,
      "velocity": 94,
      "chip": "ym2612"
    },
    {
      "channel": 1,
      "note": 51,
      "start": 20.6192,
      "duration": 0.041,
      "velocity": 107,
      "chip": "ym2612"
    },
    {
      "channel": 1,
      "note": 63,
      "start": 20.6607,
      "duration": 0.1168,
      "velocity": 107,
      "chip": "ym2612"
    },
    {
      "channel": 2,
      "note": 87,
      "start": 20.6614,
      "duration": 0.1626,
      "velocity": 94,
      "chip": "ym2612"
    },
    {
      "channel": 3,
      "note": 75,
      "start": 20.6622,
      "duration": 0.1626,
      "velocity": 94,
      "chip": "ym2612"
    },
    {
      "channel": 0,
      "note": 79,
      "start": 20.7775,
      "duration": 0.1872,
      "velocity": 100,
      "chip": "ym2612"
    },
    {
      "channel": 1,
      "note": 51,
      "start": 20.7782,
      "duration": 0.0224,
      "velocity": 107,
      "chip": "ym2612"
    },
    {
      "channel": 1,
      "note": 51,
      "start": 20.8239,
      "duration": 0.041,
      "velocity": 107,
      "chip": "ym2612"
    },
    {
      "channel": 2,
      "note": 87,
      "start": 20.8246,
      "duration": 0.0405,
      "velocity": 94,
      "chip": "ym2612"
    },
    {
      "channel": 3,
      "note": 75,
      "start": 20.8254,
      "duration": 0.04,
      "velocity": 94,
      "chip": "ym2612"
    },
    {
      "channel": 4,
      "note": 79,
      "start": 20.8327,
      "duration": 0.1898,
      "velocity": 100,
      "chip": "ym2612"
    },
    {
      "channel": 0,
      "note": 81,
      "start": 20.9653,
      "duration": 0.0254,
      "velocity": 100,
      "chip": "ym2612"
    },
    {
      "channel": 1,
      "note": 51,
      "start": 20.966,
      "duration": 0.0254,
      "velocity": 107,
      "chip": "ym2612"
    },
    {
      "channel": 2,
      "note": 87,
      "start": 20.9668,
      "duration": 0.0249,
      "velocity": 94,
      "chip": "ym2612"
    },
    {
      "channel": 3,
      "note": 75,
      "start": 20.9675,
      "duration": 0.0245,
      "velocity": 94,
      "chip": "ym2612"
    },
    {
      "channel": 0,
      "note": 79,
      "start": 20.9912,
      "duration": 0.0173,
      "velocity": 100,
      "chip": "ym2612"
    },
    {
      "channel": 0,
      "note": 82,
      "start": 21.0092,
      "duration": 0.0028,
      "velocity": 100,
      "chip": "ym2612"
    },
    {
      "channel": 0,
      "note": 83,
      "start": 21.0126,
      "duration": 0.0047,
      "velocity": 100,
      "chip": "ym2612"
    },
    {
      "channel": 1,
      "note": 53,
      "start": 21.0134,
      "duration": 0.0404,
      "velocity": 107,
      "chip": "ym2612"
    },
    {
      "channel": 2,
      "note": 89,
      "start": 21.0141,
      "duration": 0.04,
      "velocity": 94,
      "chip": "ym2612"
    },
    {
      "channel": 3,
      "note": 77,
      "start": 21.0149,
      "duration": 0.04,
      "velocity": 94,
      "chip": "ym2612"
    },
    {
      "channel": 0,
      "note": 84,
      "start": 21.018,
      "duration": 0.0522,
      "velocity": 100,
      "chip": "ym2612"
    },
    {
      "channel": 4,
      "note": 81,
      "start": 21.0231,
      "duration": 0.0645,
      "velocity": 100,
      "chip": "ym2612"
    },
    {
      "channel": 2,
      "note": 88,
      "start": 21.0547,
      "duration": 0.1172,
      "velocity": 94,
      "chip": "ym2612"
    },
    {
      "channel": 3,
      "note": 76,
      "start": 21.0554,
      "duration": 0.1172,
      "velocity": 94,
      "chip": "ym2612"
    },
    {
      "channel": 4,
      "note": 79,
      "start": 21.0881,
      "duration": 0.0886,
      "velocity": 100,
      "chip": "ym2612"
    },
    {
      "channel": 0,
      "note": 83,
      "start": 21.171,
      "duration": 0.026,
      "velocity": 100,
      "chip": "ym2612"
    },
    {
      "channel": 1,
      "note": 53,
      "start": 21.1717,
      "duration": 0.0256,
      "velocity": 107,
      "chip": "ym2612"
    },
    {
      "channel": 2,
      "note": 89,
      "start": 21.1725,
      "duration": 0.0251,
      "velocity": 94,
      "chip": "ym2612"
    },
    {
      "channel": 3,
      "note": 77,
      "start": 21.1732,
      "duration": 0.0252,
      "velocity": 94,
      "chip": "ym2612"
    },
    {
      "channel": 4,
      "note": 82,
      "start": 21.1774,
      "duration": 0.0032,
      "velocity": 100,
      "chip": "ym2612"
    },
    {
      "channel": 4,
      "note": 83,
      "start": 21.1812,
      "duration": 0.0032,
      "velocity": 100,
      "chip": "ym2612"
    },
    {
      "channel": 4,
      "note": 84,
      "start": 21.185,
      "duration": 0.0228,
      "velocity": 100,
      "chip": "ym2612"
    },
    {
      "channel": 2,
      "note": 93,
      "start": 21.1983,
      "duration": 0.0187,
      "velocity": 94,
      "chip": "ym2612"
    },
    {
      "channel": 3,
      "note": 81,
      "start": 21.199,
      "duration": 0.0183,
      "velocity": 94,
      "chip": "ym2612"
    },
    {
      "channel": 0,
      "note": 81,
      "start": 21.2162,
      "duration": 0.0215,
      "velocity": 100,
      "chip": "ym2612"
    },
    {
      "channel": 1,
      "note": 53,
      "start": 21.2169,
      "duration": 0.0215,
      "velocity": 107,
      "chip": "ym2612"
    },
    {
      "channel": 4,
      "note": 83,
      "start": 21.2269,
      "duration": 0.0171,
      "velocity": 100,
      "chip": "ym2612"
    },
    {
      "channel": 0,
      "note": 83,
      "start": 21.2382,
      "duration": 0.0183,
      "velocity": 100,
      "chip": "ym2612"
    },
    {
      "channel": 1,
      "note": 53,
      "start": 21.2573,
      "duration": 0.02,
      "velocity": 107,
      "chip": "ym2612"
    },
    {
      "channel": 4,
      "note": 81,
      "start": 21.2638,
      "duration": 0.0202,
      "velocity": 100,
      "chip": "ym2612"
    },
    {
      "channel": 0,
      "note": 79,
      "start": 21.2772,
      "duration": 0.0217,
      "velocity": 100,
      "chip": "ym2612"
    },
    {
      "channel": 1,
      "note": 53,
      "start": 21.2779,
      "duration": 0.0213,
      "velocity": 107,
      "chip": "ym2612"
    },
    {
      "channel": 4,
      "note": 83,
      "start": 21.2846,
      "duration": 0.0248,
      "velocity": 100,
      "chip": "ym2612"
    },
    {
      "channel": 1,
      "note": 55,
      "start": 21.3413,
      "duration": 0.1334,
      "velocity": 107,
      "chip": "ym2612"
    },
    {
      "channel": 2,
      "note": 74,
      "start": 21.342,
      "duration": 0.1334,
      "velocity": 112,
      "chip": "ym2612"
    },
    {
      "channel": 3,
      "note": 71,
      "start": 21.3428,
      "duration": 0.1334,
      "velocity": 112,
      "chip": "ym2612"
    },
    {
      "channel": 4,
      "note": 79,
      "start": 21.3495,
      "duration": 0.0217,
      "velocity": 100,
      "chip": "ym2612"
    },
    {
      "channel": 1,
      "note": 55,
      "start": 21.4754,
      "duration": 0.0217,
      "velocity": 107,
      "chip": "ym2612"
    },
    {
      "channel": 2,
      "note": 74,
      "start": 21.4761,
      "duration": 0.0213,
      "velocity": 112,
      "chip": "ym2612"
    },
    {
      "channel": 3,
      "note": 71,
      "start": 21.4768,
      "duration": 0.0208,
      "velocity": 112,
      "chip": "ym2612"
    },
    {
      "channel": 1,
      "note": 55,
      "start": 21.7266,
      "duration": 0.0219,
      "velocity": 107,
      "chip": "ym2612"
    },
    {
      "channel": 2,
      "note": 74,
      "start": 21.7273,
      "duration": 0.0219,
      "velocity": 112,
      "chip": "ym2612"
    },
    {
      "channel": 3,
      "note": 71,
      "start": 21.728,
      "duration": 0.0219,
      "velocity": 112,
      "chip": "ym2612"
    },
    {
      "channel": 1,
      "note": 53,
      "start": 21.749,
      "duration": 0.0217,
      "velocity": 107,
      "chip": "ym2612"
    },
    {
      "channel": 2,
      "note": 72,
      "start": 21.7498,
      "duration": 0.0217,
      "velocity": 112,
      "chip": "ym2612"
    },
    {
      "channel": 3,
      "note": 69,
      "start": 21.7505,
      "duration": 0.0216,
      "velocity": 112,
      "chip": "ym2612"
    },
    {
      "channel": 1,
      "note": 54,
      "start": 21.7713,
      "duration": 0.0219,
      "velocity": 107,
      "chip": "ym2612"
    },
    {
      "channel": 2,
      "note": 73,
      "start": 21.772,
      "duration": 0.0219,
      "velocity": 112,
      "chip": "ym2612"
    },
    {
      "channel": 3,
      "note": 70,
      "start": 21.7727,
      "duration": 0.0219,
      "velocity": 112,
      "chip": "ym2612"
    },
    {
      "channel": 1,
      "note": 55,
      "start": 21.7938,
      "duration": 0.0215,
      "velocity": 107,
      "chip": "ym2612"
    },
    {
      "channel": 2,
      "note": 74,
      "start": 21.7945,
      "duration": 0.0211,
      "velocity": 112,
      "chip": "ym2612"
    },
    {
      "channel": 3,
      "note": 71,
      "start": 21.7952,
      "duration": 0.0206,
      "velocity": 112,
      "chip": "ym2612"
    },
    {
      "channel": 1,
      "note": 85,
      "start": 21.8494,
      "duration": 0.0999,
      "velocity": 92,
      "chip": "ym2612"
    },
    {
      "channel": 2,
      "note": 85,
      "start": 21.8833,
      "duration": 0.0994,
      "velocity": 92,
      "chip": "ym2612"
    },
    {
      "channel": 1,
      "note": 86,
      "start": 21.9498,
      "duration": 0.1195,
      "velocity": 92,
      "chip": "ym2612"
    },
    {
      "channel": 2,
      "note": 86,
      "start": 21.9833,
      "duration": 0.1012,
      "velocity": 92,
      "chip": "ym2612"
    },
    {
      "channel": 0,
      "note": 50,
      "start": 22.0692,
      "duration": 0.0221,
      "velocity": 102,
      "chip": "ym2612"
    },
    {
      "channel": 1,
      "note": 88,
      "start": 22.0699,
      "duration": 0.1924,
      "velocity": 92,
      "chip": "ym2612"
    },
    {
      "channel": 3,
      "note": 74,
      "start": 22.0737,
      "duration": 0.0185,
      "velocity": 103,
      "chip": "ym2612"
    },
    {
      "channel": 4,
      "note": 81,
      "start": 22.077,
      "duration": 0.0155,
      "velocity": 103,
      "chip": "ym2612"
    },
    {
      "channel": 2,
      "note": 88,
      "start": 22.0852,
      "duration": 0.2014,
      "velocity": 92,
      "chip": "ym2612"
    },
    {
      "channel": 0,
      "note": 50,
      "start": 22.1093,
      "duration": 0.0145,
      "velocity": 102,
      "chip": "ym2612"
    },
    {
      "channel": 3,
      "note": 74,
      "start": 22.1105,
      "duration": 0.0141,
      "velocity": 103,
      "chip": "ym2612"
    },
    {
      "channel": 4,
      "note": 81,
      "start": 22.1113,
      "duration": 0.0136,
      "velocity": 103,
      "chip": "ym2612"
    },
    {
      "channel": 0,
      "note": 50,
      "start": 22.152,
      "duration": 0.0158,
      "velocity": 102,
      "chip": "ym2612"
    },
    {
      "channel": 3,
      "note": 74,
      "start": 22.1535,
      "duration": 0.0154,
      "velocity": 103,
      "chip": "ym2612"
    },
    {
      "channel": 4,
      "note": 81,
      "start": 22.1542,
      "duration": 0.0149,
      "velocity": 103,
      "chip": "ym2612"
    },
    {
      "channel": 0,
      "note": 50,
      "start": 22.178,
      "duration": 0.0412,
      "velocity": 102,
      "chip": "ym2612"
    },
    {
      "channel": 3,
      "note": 74,
      "start": 22.1795,
      "duration": 0.0186,
      "velocity": 103,
      "chip": "ym2612"
    },
    {
      "channel": 4,
      "note": 81,
      "start": 22.1803,
      "duration": 0.0181,
      "velocity": 103,
      "chip": "ym2612"
    },
    {
      "channel": 0,
      "note": 50,
      "start": 22.2198,
      "duration": 0.0067,
      "velocity": 102,
      "chip": "ym2612"
    },
    {
      "channel": 1,
      "note": 81,
      "start": 22.263,
      "duration": 0.5689,
      "velocity": 92,
      "chip": "ym2612"
    },
    {
      "channel": 2,
      "note": 81,
      "start": 22.2873,
      "duration": 0.5544,
      "velocity": 92,
      "chip": "ym2612"
    },
    {
      "channel": 3,
      "note": 78,
      "start": 22.4878,
      "duration": 0.0327,
      "velocity": 103,
      "chip": "ym2612"
    },
    {
      "channel": 4,
      "note": 86,
      "start": 22.4885,
      "duration": 0.0327,
      "velocity": 103,
      "chip": "ym2612"
    },
    {
      "channel": 3,
      "note": 80,
      "start": 22.5211,
      "duration": 0.0327,
      "velocity": 103,
      "chip": "ym2612"
    },
    {
      "channel": 4,
      "note": 88,
      "start": 22.5219,
      "duration": 0.0327,
      "velocity": 103,
      "chip": "ym2612"
    },
    {
      "channel": 3,
      "note": 81,
      "start": 22.5544,
      "duration": 0.1753,
      "velocity": 103,
      "chip": "ym2612"
    },
    {
      "channel": 4,
      "note": 90,
      "start": 22.5552,
      "duration": 0.1753,
      "velocity": 103,
      "chip": "ym2612"
    },
    {
      "channel": 3,
      "note": 81,
      "start": 22.7303,
      "duration": 0.0762,
      "velocity": 103,
      "chip": "ym2612"
    },
    {
      "channel": 4,
      "note": 90,
      "start": 22.7311,
      "duration": 0.0762,
      "velocity": 103,
      "chip": "ym2612"
    },
    {
      "channel": 3,
      "note": 85,
      "start": 22.8072,
      "duration": 0.0254,
      "velocity": 103,
      "chip": "ym2612"
    },
    {
      "channel": 4,
      "note": 93,
      "start": 22.8079,
      "duration": 0.025,
      "velocity": 103,
      "chip": "ym2612"
    },
    {
      "channel": 4,
      "note": 92,
      "start": 22.8334,
      "duration": 0.0086,
      "velocity": 103,
      "chip": "ym2612"
    },
    {
      "channel": 4,
      "note": 90,
      "start": 22.8427,
      "duration": 0.005,
      "velocity": 103,
      "chip": "ym2612"
    },
    {
      "channel": 4,
      "note": 88,
      "start": 22.8483,
      "duration": 0.0083,
      "velocity": 103,
      "chip": "ym2612"
    },
    {
      "channel": 0,
      "note": 52,
      "start": 22.8548,
      "duration": 0.0192,
      "velocity": 102,
      "chip": "ym2612"
    },
    {
      "channel": 1,
      "note": 88,
      "start": 22.8556,
      "duration": 0.1526,
      "velocity": 92,
      "chip": "ym2612"
    },
    {
      "channel": 3,
      "note": 76,
      "start": 22.8564,
      "duration": 0.0184,
      "velocity": 103,
      "chip": "ym2612"
    },
    {
      "channel": 4,
      "note": 83,
      "start": 22.8571,
      "duration": 0.018,
      "velocity": 103,
      "chip": "ym2612"
    },
    {
      "channel": 2,
      "note": 88,
      "start": 22.8642,
      "duration": 0.1546,
      "velocity": 92,
      "chip": "ym2612"
    },
    {
      "channel": 0,
      "note": 52,
      "start": 22.8975,
      "duration": 0.0181,
      "velocity": 102,
      "chip": "ym2612"
    },
    {
      "channel": 3,
      "note": 76,
      "start": 22.8987,
      "duration": 0.0179,
      "velocity": 103,
      "chip": "ym2612"
    },
    {
      "channel": 4,
      "note": 83,
      "start": 22.8995,
      "duration": 0.0174,
      "velocity": 103,
      "chip": "ym2612"
    },
    {
      "channel": 0,
      "note": 52,
      "start": 22.9402,
      "duration": 0.016,
      "velocity": 102,
      "chip": "ym2612"
    },
    {
      "channel": 3,
      "note": 76,
      "start": 22.9417,
      "duration": 0.0155,
      "velocity": 103,
      "chip": "ym2612"
    },
    {
      "channel": 4,
      "note": 83,
      "start": 22.9425,
      "duration": 0.0151,
      "velocity": 103,
      "chip": "ym2612"
    },
    {
      "channel": 0,
      "note": 52,
      "start": 22.9829,
      "duration": 0.0154,
      "velocity": 102,
      "chip": "ym2612"
    },
    {
      "channel": 3,
      "note": 76,
      "start": 22.9844,
      "duration": 0.015,
      "velocity": 103,
      "chip": "ym2612"
    },
    {
      "channel": 4,
      "note": 83,
      "start": 22.9851,
      "duration": 0.0146,
      "velocity": 103,
      "chip": "ym2612"
    },
    {
      "channel": 0,
      "note": 52,
      "start": 23.008,
      "duration": 0.0167,
      "velocity": 102,
      "chip": "ym2612"
    },
    {
      "channel": 1,
      "note": 90,
      "start": 23.0088,
      "duration": 0.0163,
      "velocity": 92,
      "chip": "ym2612"
    },
    {
      "channel": 2,
      "note": 90,
      "start": 23.0195,
      "duration": 0.011,
      "velocity": 92,
      "chip": "ym2612"
    },
    {
      "channel": 1,
      "note": 88,
      "start": 23.0475,
      "duration": 0.6014,
      "velocity": 92,
      "chip": "ym2612"
    },
    {
      "channel": 2,
      "note": 88,
      "start": 23.0754,
      "duration": 0.58,
      "velocity": 92,
      "chip": "ym2612"
    },
    {
      "channel": 0,
      "note": 57,
      "start": 23.275,
      "duration": 0.2365,
      "velocity": 102,
      "chip": "ym2612"
    },
    {
      "channel": 4,
      "note": 84,
      "start": 23.2766,
      "duration": 0.033,
      "velocity": 103,
      "chip": "ym2612"
    },
    {
      "channel": 3,
      "note": 76,
      "start": 23.3095,
      "duration": 0.2298,
      "velocity": 103,
      "chip": "ym2612"
    },
    {
      "channel": 4,
      "note": 85,
      "start": 23.3102,
      "duration": 0.2295,
      "velocity": 103,
      "chip": "ym2612"
    },
    {
      "channel": 0,
      "note": 52,
      "start": 23.5458,
      "duration": 0.0779,
      "velocity": 102,
      "chip": "ym2612"
    },
    {
      "channel": 3,
      "note": 83,
      "start": 23.5473,
      "duration": 0.0848,
      "velocity": 103,
      "chip": "ym2612"
    },
    {
      "channel": 4,
      "note": 92,
      "start": 23.548,
      "duration": 0.0844,
      "velocity": 103,
      "chip": "ym2612"
    },
    {
      "channel": 4,
      "note": 92,
      "start": 23.633,
      "duration": 0.0098,
      "velocity": 103,
      "chip": "ym2612"
    },
    {
      "channel": 4,
      "note": 90,
      "start": 23.6434,
      "duration": 0.0063,
      "velocity": 103,
      "chip": "ym2612"
    },
    {
      "channel": 4,
      "note": 88,
      "start": 23.6503,
      "duration": 0.0055,
      "velocity": 103,
      "chip": "ym2612"
    },
    {
      "channel": 4,
      "note": 86,
      "start": 23.6564,
      "duration": 0.0071,
      "velocity": 103,
      "chip": "ym2612"
    },
    {
      "channel": 0,
      "note": 54,
      "start": 23.6632,
      "duration": 0.0135,
      "velocity": 102,
      "chip": "ym2612"
    },
    {
      "channel": 0,
      "note": 52,
      "start": 23.8223,
      "duration": 0.0083,
      "velocity": 102,
      "chip": "ym2612"
    },
    {
      "channel": 1,
      "note": 90,
      "start": 23.823,
      "duration": 0.0836,
      "velocity": 92,
      "chip": "ym2612"
    },
    {
      "channel": 3,
      "note": 78,
      "start": 23.8239,
      "duration": 0.0839,
      "velocity": 103,
      "chip": "ym2612"
    },
    {
      "channel": 4,
      "note": 81,
      "start": 23.8246,
      "duration": 0.0839,
      "velocity": 103,
      "chip": "ym2612"
    },
    {
      "channel": 2,
      "note": 90,
      "start": 23.8317,
      "duration": 0.0842,
      "velocity": 92,
      "chip": "ym2612"
    },
    {
      "channel": 0,
      "note": 54,
      "start": 23.865,
      "duration": 0.0504,
      "velocity": 102,
      "chip": "ym2612"
    },
    {
      "channel": 1,
      "note": 88,
      "start": 23.9072,
      "duration": 0.0218,
      "velocity": 92,
      "chip": "ym2612"
    },
    {
      "channel": 3,
      "note": 76,
      "start": 23.9084,
      "duration": 0.0212,
      "velocity": 103,
      "chip": "ym2612"
    },
    {
      "channel": 4,
      "note": 81,
      "start": 23.9091,
      "duration": 0.0208,
      "velocity": 103,
      "chip": "ym2612"
    },
    {
      "channel": 2,
      "note": 88,
      "start": 23.9166,
      "duration": 0.0215,
      "velocity": 92,
      "chip": "ym2612"
    },
    {
      "channel": 0,
      "note": 57,
      "start": 23.9494,
      "duration": 0.0189,
      "velocity": 102,
      "chip": "ym2612"
    },
    {
      "channel": 1,
      "note": 90,
      "start": 23.9502,
      "duration": 0.0185,
      "velocity": 92,
      "chip": "ym2612"
    },
    {
      "channel": 3,
      "note": 78,
      "start": 23.951,
      "duration": 0.0182,
      "velocity": 103,
      "chip": "ym2612"
    },
    {
      "channel": 4,
      "note": 81,
      "start": 23.9517,
      "duration": 0.0178,
      "velocity": 103,
      "chip": "ym2612"
    },
    {
      "channel": 2,
      "note": 90,
      "start": 23.9621,
      "duration": 0.0293,
      "velocity": 92,
      "chip": "ym2612"
    },
    {
      "channel": 0,
      "note": 56,
      "start": 24.1088,
      "duration": 0.0083,
      "velocity": 102,
      "chip": "ym2612"
    },
    {
      "channel": 1,
      "note": 93,
      "start": 24.1095,
      "duration": 0.1498,
      "velocity": 92,
      "chip": "ym2612"
    },
    {
      "channel": 3,
      "note": 81,
      "start": 24.1103,
      "duration": 0.1496,
      "velocity": 103,
      "chip": "ym2612"
    },
    {
      "channel": 4,
      "note": 85,
      "start": 24.111,
      "duration": 0.1492,
      "velocity": 103,
      "chip": "ym2612"
    },
    {
      "channel": 2,
      "note": 93,
      "start": 24.1182,
      "duration": 0.1751,
      "velocity": 92,
      "chip": "ym2612"
    },
    {
      "channel": 0,
      "note": 57,
      "start": 24.1515,
      "duration": 0.0744,
      "velocity": 102,
      "chip": "ym2612"
    },
    {
      "channel": 1,
      "note": 92,
      "start": 24.2932,
      "duration": 0.0827,
      "velocity": 92,
      "chip": "ym2612"
    },
    {
      "channel": 3,
      "note": 80,
      "start": 24.2942,
      "duration": 0.0822,
      "velocity": 103,
      "chip": "ym2612"
    },
    {
      "channel": 4,
      "note": 85,
      "start": 24.295,
      "duration": 0.0818,
      "velocity": 103,
      "chip": "ym2612"
    },
    {
      "channel": 2,
      "note": 92,
      "start": 24.3435,
      "duration": 0.0667,
      "velocity": 92,
      "chip": "ym2612"
    },
    {
      "channel": 0,
      "note": 59,
      "start": 24.41,
      "duration": 0.0136,
      "velocity": 102,
      "chip": "ym2612"
    },
    {
      "channel": 1,
      "note": 90,
      "start": 24.4414,
      "duration": 0.0222,
      "velocity": 92,
      "chip": "ym2612"
    },
    {
      "channel": 3,
      "note": 78,
      "start": 24.4422,
      "duration": 0.0219,
      "velocity": 103,
      "chip": "ym2612"
    },
    {
      "channel": 4,
      "note": 85,
      "start": 24.4429,
      "duration": 0.0215,
      "velocity": 103,
      "chip": "ym2612"
    },
    {
      "channel": 0,
      "note": 57,
      "start": 24.4489,
      "duration": 0.008,
      "velocity": 102,
      "chip": "ym2612"
    },
    {
      "channel": 2,
      "note": 90,
      "start": 24.4499,
      "duration": 0.0419,
      "velocity": 92,
      "chip": "ym2612"
    },
    {
      "channel": 0,
      "note": 59,
      "start": 24.4916,
      "duration": 0.0753,
      "velocity": 102,
      "chip": "ym2612"
    },
    {
      "channel": 1,
      "note": 92,
      "start": 24.5344,
      "duration": 0.2368,
      "velocity": 92,
      "chip": "ym2612"
    },
    {
      "channel": 3,
      "note": 80,
      "start": 24.5353,
      "duration": 0.2367,
      "velocity": 103,
      "chip": "ym2612"
    },
    {
      "channel": 4,
      "note": 86,
      "start": 24.536,
      "duration": 0.2362,
      "velocity": 103,
      "chip": "ym2612"
    },
    {
      "channel": 2,
      "note": 92,
      "start": 24.5681,
      "duration": 0.2249,
      "velocity": 92,
      "chip": "ym2612"
    },
    {
      "channel": 0,
      "note": 61,
      "start": 24.751,
      "duration": 0.0199,
      "velocity": 102,
      "chip": "ym2612"
    },
    {
      "channel": 1,
      "note": 93,
      "start": 24.7928,
      "duration": 0.0827,
      "velocity": 92,
      "chip": "ym2612"
    },
    {
      "channel": 3,
      "note": 81,
      "start": 24.7938,
      "duration": 0.0822,
      "velocity": 103,
      "chip": "ym2612"
    },
    {
      "channel": 4,
      "note": 86,
      "start": 24.7946,
      "duration": 0.0818,
      "velocity": 103,
      "chip": "ym2612"
    },
    {
      "channel": 2,
      "note": 93,
      "start": 24.8264,
      "duration": 0.0834,
      "velocity": 92,
      "chip": "ym2612"
    },
    {
      "channel": 0,
      "note": 59,
      "start": 24.9096,
      "duration": 0.0058,
      "velocity": 102,
      "chip": "ym2612"
    },
    {
      "channel": 0,
      "note": 61,
      "start": 24.9291,
      "duration": 0.0752,
      "velocity": 102,
      "chip": "ym2612"
    },
    {
      "channel": 1,
      "note": 95,
      "start": 24.9719,
      "duration": 0.0659,
      "velocity": 92,
      "chip": "ym2612"
    },
    {
      "channel": 3,
      "note": 83,
      "start": 24.9727,
      "duration": 0.0656,
      "velocity": 103,
      "chip": "ym2612"
    },
    {
      "channel": 4,
      "note": 86,
      "start": 24.9735,
      "duration": 0.0651,
      "velocity": 103,
      "chip": "ym2612"
    },
    {
      "channel": 2,
      "note": 95,
      "start": 25.0055,
      "duration": 0.0656,
      "velocity": 92,
      "chip": "ym2612"
    },
    {
      "channel": 0,
      "note": 64,
      "start": 25.1885,
      "duration": 0.291,
      "velocity": 102,
      "chip": "ym2612"
    },
    {
      "channel": 1,
      "note": 93,
      "start": 25.1893,
      "duration": 0.2905,
      "velocity": 92,
      "chip": "ym2612"
    },
    {
      "channel": 3,
      "note": 85,
      "start": 25.1901,
      "duration": 0.2904,
      "velocity": 103,
      "chip": "ym2612"
    },
    {
      "channel": 4,
      "note": 88,
      "start": 25.1908,
      "duration": 0.2899,
      "velocity": 103,
      "chip": "ym2612"
    },
    {
      "channel": 2,
      "note": 93,
      "start": 25.198,
      "duration": 0.2923,
      "velocity": 92,
      "chip": "ym2612"
    },
    {
      "channel": 0,
      "note": 52,
      "start": 25.4894,
      "duration": 0.0989,
      "velocity": 102,
      "chip": "ym2612"
    },
    {
      "channel": 1,
      "note": 92,
      "start": 25.4901,
      "duration": 0.0985,
      "velocity": 92,
      "chip": "ym2612"
    },
    {
      "channel": 3,
      "note": 80,
      "start": 25.4912,
      "duration": 0.0981,
      "velocity": 103,
      "chip": "ym2612"
    },
    {
      "channel": 4,
      "note": 83,
      "start": 25.4919,
      "duration": 0.0976,
      "velocity": 103,
      "chip": "ym2612"
    },
    {
      "channel": 2,
      "note": 92,
      "start": 25.4991,
      "duration": 0.0978,
      "velocity": 92,
      "chip": "ym2612"
    },
    {
      "channel": 0,
      "note": 54,
      "start": 25.596,
      "duration": 0.0131,
      "velocity": 102,
      "chip": "ym2612"
    },
    {
      "channel": 1,
      "note": 97,
      "start": 25.5968,
      "duration": 0.1422,
      "velocity": 92,
      "chip": "ym2612"
    },
    {
      "channel": 3,
      "note": 73,
      "start": 25.6,
      "duration": 0.14,
      "velocity": 101,
      "chip": "ym2612"
    },
    {
      "channel": 4,
      "note": 81,
      "start": 25.6029,
      "duration": 0.1378,
      "velocity": 101,
      "chip": "ym2612"
    },
    {
      "channel": 2,
      "note": 97,
      "start": 25.6103,
      "duration": 0.1415,
      "velocity": 92,
      "chip": "ym2612"
    },
    {
      "channel": 0,
      "note": 54,
      "start": 25.7388,
      "duration": 0.0198,
      "velocity": 102,
      "chip": "ym2612"
    },
    {
      "channel": 1,
      "note": 90,
      "start": 25.7396,
      "duration": 0.0421,
      "velocity": 92,
      "chip": "ym2612"
    },
    {
      "channel": 3,
      "note": 66,
      "start": 25.7406,
      "duration": 0.0188,
      "velocity": 101,
      "chip": "ym2612"
    },
    {
      "channel": 4,
      "note": 74,
      "start": 25.7413,
      "duration": 0.0185,
      "velocity": 101,
      "chip": "ym2612"
    },
    {
      "channel": 2,
      "note": 90,
      "start": 25.7524,
      "duration": 0.0419,
      "velocity": 92,
      "chip": "ym2612"
    },
    {
      "channel": 0,
      "note": 54,
      "start": 25.7815,
      "duration": 0.0466,
      "velocity": 102,
      "chip": "ym2612"
    },
    {
      "channel": 1,
      "note": 97,
      "start": 25.7823,
      "duration": 0.0191,
      "velocity": 92,
      "chip": "ym2612"
    },
    {
      "channel": 3,
      "note": 73,
      "start": 25.7833,
      "duration": 0.0187,
      "velocity": 101,
      "chip": "ym2612"
    },
    {
      "channel": 4,
      "note": 81,
      "start": 25.7841,
      "duration": 0.0182,
      "velocity": 101,
      "chip": "ym2612"
    },
    {
      "channel": 2,
      "note": 97,
      "start": 25.7949,
      "duration": 0.0281,
      "velocity": 92,
      "chip": "ym2612"
    },
    {
      "channel": 0,
      "note": 57,
      "start": 25.8573,
      "duration": 0.0156,
      "velocity": 102,
      "chip": "ym2612"
    },
    {
      "channel": 1,
      "note": 90,
      "start": 25.858,
      "duration": 0.3439,
      "velocity": 92,
      "chip": "ym2612"
    },
    {
      "channel": 3,
      "note": 66,
      "start": 25.8588,
      "duration": 0.3555,
      "velocity": 101,
      "chip": "ym2612"
    },
    {
      "channel": 4,
      "note": 74,
      "start": 25.8595,
      "duration": 0.3554,
      "velocity": 101,
      "chip": "ym2612"
    },
    {
      "channel": 2,
      "note": 90,
      "start": 25.8667,
      "duration": 0.3472,
      "velocity": 92,
      "chip": "ym2612"
    },
    {
      "channel": 0,
      "note": 57,
      "start": 25.9257,
      "duration": 0.1161,
      "velocity": 102,
      "chip": "ym2612"
    },
    {
      "channel": 0,
      "note": 57,
      "start": 26.0424,
      "duration": 0.0828,
      "velocity": 102,
      "chip": "ym2612"
    },
    {
      "channel": 0,
      "note": 59,
      "start": 26.213,
      "duration": 0.0162,
      "velocity": 102,
      "chip": "ym2612"
    },
    {
      "channel": 1,
      "note": 93,
      "start": 26.2138,
      "duration": 0.0862,
      "velocity": 92,
      "chip": "ym2612"
    },
    {
      "channel": 3,
      "note": 69,
      "start": 26.2148,
      "duration": 0.0959,
      "velocity": 101,
      "chip": "ym2612"
    },
    {
      "channel": 4,
      "note": 78,
      "start": 26.2156,
      "duration": 0.0954,
      "velocity": 101,
      "chip": "ym2612"
    },
    {
      "channel": 2,
      "note": 93,
      "start": 26.2231,
      "duration": 0.0873,
      "velocity": 92,
      "chip": "ym2612"
    },
    {
      "channel": 0,
      "note": 57,
      "start": 26.24,
      "duration": 0.0246,
      "velocity": 102,
      "chip": "ym2612"
    },
    {
      "channel": 0,
      "note": 54,
      "start": 26.2652,
      "duration": 0.0124,
      "velocity": 102,
      "chip": "ym2612"
    },
    {
      "channel": 0,
      "note": 52,
      "start": 26.3163,
      "duration": 0.0418,
      "velocity": 102,
      "chip": "ym2612"
    },
    {
      "channel": 1,
      "note": 92,
      "start": 26.3171,
      "duration": 0.0414,
      "velocity": 92,
      "chip": "ym2612"
    },
    {
      "channel": 3,
      "note": 68,
      "start": 26.3179,
      "duration": 0.0411,
      "velocity": 101,
      "chip": "ym2612"
    },
    {
      "channel": 4,
      "note": 76,
      "start": 26.3186,
      "duration": 0.0407,
      "velocity": 101,
      "chip": "ym2612"
    },
    {
      "channel": 2,
      "note": 92,
      "start": 26.3257,
      "duration": 0.0659,
      "velocity": 92,
      "chip": "ym2612"
    },
    {
      "channel": 1,
      "note": 92,
      "start": 26.4757,
      "duration": 0.0142,
      "velocity": 92,
      "chip": "ym2612"
    },
    {
      "channel": 3,
      "note": 68,
      "start": 26.4766,
      "duration": 0.0139,
      "velocity": 101,
      "chip": "ym2612"
    },
    {
      "channel": 4,
      "note": 76,
      "start": 26.4773,
      "duration": 0.0135,
      "velocity": 101,
      "chip": "ym2612"
    },
    {
      "channel": 2,
      "note": 92,
      "start": 26.484,
      "duration": 0.0344,
      "velocity": 92,
      "chip": "ym2612"
    },
    {
      "channel": 0,
      "note": 52,
      "start": 26.5175,
      "duration": 0.0229,
      "velocity": 102,
      "chip": "ym2612"
    },
    {
      "channel": 1,
      "note": 95,
      "start": 26.5182,
      "duration": 0.0225,
      "velocity": 92,
      "chip": "ym2612"
    },
    {
      "channel": 3,
      "note": 71,
      "start": 26.5192,
      "duration": 0.0221,
      "velocity": 101,
      "chip": "ym2612"
    },
    {
      "channel": 4,
      "note": 80,
      "start": 26.5199,
      "duration": 0.0217,
      "velocity": 101,
      "chip": "ym2612"
    },
    {
      "channel": 2,
      "note": 95,
      "start": 26.5271,
      "duration": 0.0223,
      "velocity": 92,
      "chip": "ym2612"
    },
    {
      "channel": 1,
      "note": 92,
      "start": 26.5838,
      "duration": 0.0144,
      "velocity": 92,
      "chip": "ym2612"
    },
    {
      "channel": 2,
      "note": 92,
      "start": 26.5902,
      "duration": 0.0362,
      "velocity": 92,
      "chip": "ym2612"
    },
    {
      "channel": 0,
      "note": 54,
      "start": 26.6255,
      "duration": 0.3345,
      "velocity": 102,
      "chip": "ym2612"
    },
    {
      "channel": 1,
      "note": 93,
      "start": 26.6262,
      "duration": 0.3971,
      "velocity": 92,
      "chip": "ym2612"
    },
    {
      "channel": 3,
      "note": 69,
      "start": 26.6273,
      "duration": 0.4092,
      "velocity": 101,
      "chip": "ym2612"
    },
    {
      "channel": 4,
      "note": 78,
      "start": 26.628,
      "duration": 0.4088,
      "velocity": 101,
      "chip": "ym2612"
    },
    {
      "channel": 2,
      "note": 93,
      "start": 26.6351,
      "duration": 0.3951,
      "velocity": 92,
      "chip": "ym2612"
    },
    {
      "channel": 0,
      "note": 54,
      "start": 27.0538,
      "duration": 0.0189,
      "velocity": 102,
      "chip": "ym2612"
    },
    {
      "channel": 1,
      "note": 97,
      "start": 27.0545,
      "duration": 0.1587,
      "velocity": 92,
      "chip": "ym2612"
    },
    {
      "channel": 3,
      "note": 73,
      "start": 27.0553,
      "duration": 0.1589,
      "velocity": 101,
      "chip": "ym2612"
    },
    {
      "channel": 4,
      "note": 81,
      "start": 27.0561,
      "duration": 0.1589,
      "velocity": 101,
      "chip": "ym2612"
    },
    {
      "channel": 2,
      "note": 97,
      "start": 27.0666,
      "duration": 0.1558,
      "velocity": 92,
      "chip": "ym2612"
    },
    {
      "channel": 0,
      "note": 54,
      "start": 27.2131,
      "duration": 0.0161,
      "velocity": 102,
      "chip": "ym2612"
    },
    {
      "channel": 1,
      "note": 90,
      "start": 27.2138,
      "duration": 0.0157,
      "velocity": 92,
      "chip": "ym2612"
    },
    {
      "channel": 3,
      "note": 66,
      "start": 27.2148,
      "duration": 0.0152,
      "velocity": 101,
      "chip": "ym2612"
    },
    {
      "channel": 4,
      "note": 74,
      "start": 27.2155,
      "duration": 0.0148,
      "velocity": 101,
      "chip": "ym2612"
    },
    {
      "channel": 2,
      "note": 90,
      "start": 27.223,
      "duration": 0.0336,
      "velocity": 92,
      "chip": "ym2612"
    },
    {
      "channel": 0,
      "note": 54,
      "start": 27.2557,
      "duration": 0.0412,
      "velocity": 102,
      "chip": "ym2612"
    },
    {
      "channel": 1,
      "note": 97,
      "start": 27.2565,
      "duration": 0.0407,
      "velocity": 92,
      "chip": "ym2612"
    },
    {
      "channel": 3,
      "note": 73,
      "start": 27.2575,
      "duration": 0.0149,
      "velocity": 101,
      "chip": "ym2612"
    },
    {
      "channel": 4,
      "note": 81,
      "start": 27.2583,
      "duration": 0.0144,
      "velocity": 101,
      "chip": "ym2612"
    },
    {
      "channel": 2,
      "note": 97,
      "start": 27.2654,
      "duration": 0.0375,
      "velocity": 92,
      "chip": "ym2612"
    },
    {
      "channel": 0,
      "note": 57,
      "start": 27.3303,
      "duration": 0.0421,
      "velocity": 102,
      "chip": "ym2612"
    },
    {
      "channel": 1,
      "note": 90,
      "start": 27.331,
      "duration": 0.3588,
      "velocity": 92,
      "chip": "ym2612"
    },
    {
      "channel": 3,
      "note": 66,
      "start": 27.3318,
      "duration": 0.367,
      "velocity": 101,
      "chip": "ym2612"
    },
    {
      "channel": 4,
      "note": 74,
      "start": 27.3326,
      "duration": 0.3669,
      "velocity": 101,
      "chip": "ym2612"
    },
    {
      "channel": 2,
      "note": 90,
      "start": 27.3398,
      "duration": 0.3587,
      "velocity": 92,
      "chip": "ym2612"
    },
    {
      "channel": 0,
      "note": 57,
      "start": 27.4155,
      "duration": 0.0661,
      "velocity": 102,
      "chip": "ym2612"
    },
    {
      "channel": 0,
      "note": 57,
      "start": 27.5321,
      "duration": 0.0661,
      "velocity": 102,
      "chip": "ym2612"
    },
    {
      "channel": 0,
      "note": 59,
      "start": 27.6976,
      "duration": 0.0089,
      "velocity": 102,
      "chip": "ym2612"
    },
    {
      "channel": 1,
      "note": 93,
      "start": 27.6983,
      "duration": 0.1029,
      "velocity": 92,
      "chip": "ym2612"
    },
    {
      "channel": 3,
      "note": 69,
      "start": 27.6993,
      "duration": 0.1092,
      "velocity": 101,
      "chip": "ym2612"
    },
    {
      "channel": 4,
      "note": 78,
      "start": 27.7001,
      "duration": 0.1086,
      "velocity": 101,
      "chip": "ym2612"
    },
    {
      "channel": 2,
      "note": 93,
      "start": 27.7077,
      "duration": 0.1005,
      "velocity": 92,
      "chip": "ym2612"
    },
    {
      "channel": 0,
      "note": 57,
      "start": 27.7245,
      "duration": 0.0412,
      "velocity": 102,
      "chip": "ym2612"
    },
    {
      "channel": 0,
      "note": 54,
      "start": 27.7663,
      "duration": 0.0161,
      "velocity": 102,
      "chip": "ym2612"
    },
    {
      "channel": 0,
      "note": 52,
      "start": 27.8142,
      "duration": 0.0264,
      "velocity": 102,
      "chip": "ym2612"
    },
    {
      "channel": 1,
      "note": 92,
      "start": 27.8149,
      "duration": 0.0259,
      "velocity": 92,
      "chip": "ym2612"
    },
    {
      "channel": 3,
      "note": 68,
      "start": 27.8157,
      "duration": 0.0258,
      "velocity": 101,
      "chip": "ym2612"
    },
    {
      "channel": 4,
      "note": 76,
      "start": 27.8165,
      "duration": 0.0252,
      "velocity": 101,
      "chip": "ym2612"
    },
    {
      "channel": 2,
      "note": 92,
      "start": 27.827,
      "duration": 0.0228,
      "velocity": 92,
      "chip": "ym2612"
    },
    {
      "channel": 1,
      "note": 92,
      "start": 27.8622,
      "duration": 0.0178,
      "velocity": 92,
      "chip": "ym2612"
    },
    {
      "channel": 3,
      "note": 68,
      "start": 27.8631,
      "duration": 0.0175,
      "velocity": 101,
      "chip": "ym2612"
    },
    {
      "channel": 4,
      "note": 76,
      "start": 27.8639,
      "duration": 0.017,
      "velocity": 101,
      "chip": "ym2612"
    },
    {
      "channel": 2,
      "note": 92,
      "start": 27.8706,
      "duration": 0.0169,
      "velocity": 92,
      "chip": "ym2612"
    },
    {
      "channel": 0,
      "note": 52,
      "start": 27.8866,
      "duration": 0.0268,
      "velocity": 102,
      "chip": "ym2612"
    },
    {
      "channel": 1,
      "note": 95,
      "start": 27.8874,
      "duration": 0.0263,
      "velocity": 92,
      "chip": "ym2612"
    },
    {
      "channel": 3,
      "note": 71,
      "start": 27.8884,
      "duration": 0.0259,
      "velocity": 101,
      "chip": "ym2612"
    },
    {
      "channel": 4,
      "note": 80,
      "start": 27.8892,
      "duration": 0.0254,
      "velocity": 101,
      "chip": "ym2612"
    },
    {
      "channel": 2,
      "note": 95,
      "start": 27.8964,
      "duration": 0.0235,
      "velocity": 92,
      "chip": "ym2612"
    },
    {
      "channel": 1,
      "note": 92,
      "start": 27.9348,
      "duration": 0.0144,
      "velocity": 92,
      "chip": "ym2612"
    },
    {
      "channel": 3,
      "note": 68,
      "start": 27.9357,
      "duration": 0.0141,
      "velocity": 101,
      "chip": "ym2612"
    },
    {
      "channel": 4,
      "note": 76,
      "start": 27.9364,
      "duration": 0.0137,
      "velocity": 101,
      "chip": "ym2612"
    },
    {
      "channel": 2,
      "note": 92,
      "start": 27.9432,
      "duration": 0.0135,
      "velocity": 92,
      "chip": "ym2612"
    },
    {
      "channel": 0,
      "note": 54,
      "start": 27.9558,
      "duration": 0.4925,
      "velocity": 102,
      "chip": "ym2612"
    },
    {
      "channel": 1,
      "note": 93,
      "start": 27.9565,
      "duration": 0.1922,
      "velocity": 92,
      "chip": "ym2612"
    },
    {
      "channel": 3,
      "note": 69,
      "start": 27.9576,
      "duration": 0.9189,
      "velocity": 101,
      "chip": "ym2612"
    },
    {
      "channel": 4,
      "note": 78,
      "start": 27.9583,
      "duration": 0.9185,
      "velocity": 101,
      "chip": "ym2612"
    },
    {
      "channel": 2,
      "note": 93,
      "start": 27.9686,
      "duration": 0.2134,
      "velocity": 92,
      "chip": "ym2612"
    },
    {
      "channel": 2,
      "note": 93,
      "start": 28.5661,
      "duration": 0.3529,
      "velocity": 98,
      "chip": "ym2612"
    },
    {
      "channel": 1,
      "note": 42,
      "start": 28.916,
      "duration": 0.0252,
      "velocity": 116,
      "chip": "ym2612"
    },
    {
      "channel": 2,
      "note": 78,
      "start": 28.9196,
      "duration": 0.1986,
      "velocity": 98,
      "chip": "ym2612"
    },
    {
      "channel": 3,
      "note": 73,
      "start": 28.9233,
      "duration": 0.1953,
      "velocity": 98,
      "chip": "ym2612"
    },
    {
      "channel": 1,
      "note": 42,
      "start": 28.9417,
      "duration": 0.0933,
      "velocity": 116,
      "chip": "ym2612"
    },
    {
      "channel": 0,
      "note": 80,
      "start": 29.0349,
      "duration": 0.0828,
      "velocity": 87,
      "chip": "ym2612"
    },
    {
      "channel": 1,
      "note": 54,
      "start": 29.0356,
      "duration": 0.2163,
      "velocity": 116,
      "chip": "ym2612"
    },
    {
      "channel": 0,
      "note": 81,
      "start": 29.2519,
      "duration": 0.0139,
      "velocity": 87,
      "chip": "ym2612"
    },
    {
      "channel": 1,
      "note": 42,
      "start": 29.2526,
      "duration": 0.0208,
      "velocity": 116,
      "chip": "ym2612"
    },
    {
      "channel": 2,
      "note": 76,
      "start": 29.2533,
      "duration": 0.0607,
      "velocity": 98,
      "chip": "ym2612"
    },
    {
      "channel": 3,
      "note": 73,
      "start": 29.2541,
      "duration": 0.0603,
      "velocity": 98,
      "chip": "ym2612"
    },
    {
      "channel": 4,
      "note": 80,
      "start": 29.2675,
      "duration": 0.0136,
      "velocity": 87,
      "chip": "ym2612"
    },
    {
      "channel": 1,
      "note": 42,
      "start": 29.274,
      "duration": 0.0261,
      "velocity": 116,
      "chip": "ym2612"
    },
    {
      "channel": 0,
      "note": 80,
      "start": 29.2999,
      "duration": 0.3191,
      "velocity": 87,
      "chip": "ym2612"
    },
    {
      "channel": 1,
      "note": 42,
      "start": 29.3006,
      "duration": 0.01,
      "velocity": 116,
      "chip": "ym2612"
    },
    {
      "channel": 4,
      "note": 81,
      "start": 29.3153,
      "duration": 0.0171,
      "velocity": 87,
      "chip": "ym2612"
    },
    {
      "channel": 1,
      "note": 42,
      "start": 29.3261,
      "duration": 0.0087,
      "velocity": 116,
      "chip": "ym2612"
    },
    {
      "channel": 1,
      "note": 41,
      "start": 29.3689,
      "duration": 0.1254,
      "velocity": 116,
      "chip": "ym2612"
    },
    {
      "channel": 2,
      "note": 73,
      "start": 29.3696,
      "duration": 0.1366,
      "velocity": 98,
      "chip": "ym2612"
    },
    {
      "channel": 3,
      "note": 69,
      "start": 29.3704,
      "duration": 0.1361,
      "velocity": 98,
      "chip": "ym2612"
    },
    {
      "channel": 4,
      "note": 80,
      "start": 29.3843,
      "duration": 0.3196,
      "velocity": 87,
      "chip": "ym2612"
    },
    {
      "channel": 1,
      "note": 53,
      "start": 29.4949,
      "duration": 0.0145,
      "velocity": 116,
      "chip": "ym2612"
    },
    {
      "channel": 2,
      "note": 69,
      "start": 29.5198,
      "duration": 0.1352,
      "velocity": 98,
      "chip": "ym2612"
    },
    {
      "channel": 3,
      "note": 66,
      "start": 29.5206,
      "duration": 0.1348,
      "velocity": 98,
      "chip": "ym2612"
    },
    {
      "channel": 0,
      "note": 85,
      "start": 29.6196,
      "duration": 0.0143,
      "velocity": 87,
      "chip": "ym2612"
    },
    {
      "channel": 1,
      "note": 41,
      "start": 29.6203,
      "duration": 0.0435,
      "velocity": 116,
      "chip": "ym2612"
    },
    {
      "channel": 1,
      "note": 41,
      "start": 29.6644,
      "duration": 0.0719,
      "velocity": 116,
      "chip": "ym2612"
    },
    {
      "channel": 2,
      "note": 66,
      "start": 29.6651,
      "duration": 0.0719,
      "velocity": 98,
      "chip": "ym2612"
    },
    {
      "channel": 3,
      "note": 61,
      "start": 29.6659,
      "duration": 0.0714,
      "velocity": 98,
      "chip": "ym2612"
    },
    {
      "channel": 4,
      "note": 85,
      "start": 29.7045,
      "duration": 0.0656,
      "velocity": 87,
      "chip": "ym2612"
    },
    {
      "channel": 1,
      "note": 41,
      "start": 29.7369,
      "duration": 0.1003,
      "velocity": 116,
      "chip": "ym2612"
    },
    {
      "channel": 0,
      "note": 84,
      "start": 29.8371,
      "duration": 0.0063,
      "velocity": 87,
      "chip": "ym2612"
    },
    {
      "channel": 1,
      "note": 40,
      "start": 29.8378,
      "duration": 0.0239,
      "velocity": 116,
      "chip": "ym2612"
    },
    {
      "channel": 0,
      "note": 85,
      "start": 29.8439,
      "duration": 0.3344,
      "velocity": 87,
      "chip": "ym2612"
    },
    {
      "channel": 1,
      "note": 40,
      "start": 29.8622,
      "duration": 0.0994,
      "velocity": 116,
      "chip": "ym2612"
    },
    {
      "channel": 2,
      "note": 69,
      "start": 29.863,
      "duration": 0.3167,
      "velocity": 98,
      "chip": "ym2612"
    },
    {
      "channel": 3,
      "note": 66,
      "start": 29.8637,
      "duration": 0.3168,
      "velocity": 98,
      "chip": "ym2612"
    },
    {
      "channel": 1,
      "note": 52,
      "start": 29.9622,
      "duration": 0.2168,
      "velocity": 116,
      "chip": "ym2612"
    },
    {
      "channel": 4,
      "note": 84,
      "start": 30.0466,
      "duration": 0.0329,
      "velocity": 87,
      "chip": "ym2612"
    },
    {
      "channel": 4,
      "note": 85,
      "start": 30.0802,
      "duration": 0.163,
      "velocity": 87,
      "chip": "ym2612"
    },
    {
      "channel": 0,
      "note": 81,
      "start": 30.1789,
      "duration": 0.0147,
      "velocity": 87,
      "chip": "ym2612"
    },
    {
      "channel": 1,
      "note": 40,
      "start": 30.1796,
      "duration": 0.0209,
      "velocity": 116,
      "chip": "ym2612"
    },
    {
      "channel": 2,
      "note": 71,
      "start": 30.1804,
      "duration": 0.0209,
      "velocity": 98,
      "chip": "ym2612"
    },
    {
      "channel": 3,
      "note": 68,
      "start": 30.1811,
      "duration": 0.0204,
      "velocity": 98,
      "chip": "ym2612"
    },
    {
      "channel": 1,
      "note": 40,
      "start": 30.201,
      "duration": 0.0262,
      "velocity": 116,
      "chip": "ym2612"
    },
    {
      "channel": 0,
      "note": 78,
      "start": 30.2271,
      "duration": 0.194,
      "velocity": 87,
      "chip": "ym2612"
    },
    {
      "channel": 1,
      "note": 40,
      "start": 30.2278,
      "duration": 0.0112,
      "velocity": 116,
      "chip": "ym2612"
    },
    {
      "channel": 2,
      "note": 73,
      "start": 30.2285,
      "duration": 0.025,
      "velocity": 98,
      "chip": "ym2612"
    },
    {
      "channel": 3,
      "note": 69,
      "start": 30.2293,
      "duration": 0.0245,
      "velocity": 98,
      "chip": "ym2612"
    },
    {
      "channel": 4,
      "note": 81,
      "start": 30.2438,
      "duration": 0.0193,
      "velocity": 87,
      "chip": "ym2612"
    },
    {
      "channel": 1,
      "note": 40,
      "start": 30.2533,
      "duration": 0.0123,
      "velocity": 116,
      "chip": "ym2612"
    },
    {
      "channel": 1,
      "note": 41,
      "start": 30.2961,
      "duration": 0.1258,
      "velocity": 116,
      "chip": "ym2612"
    },
    {
      "channel": 2,
      "note": 71,
      "start": 30.2968,
      "duration": 0.1496,
      "velocity": 98,
      "chip": "ym2612"
    },
    {
      "channel": 3,
      "note": 68,
      "start": 30.2976,
      "duration": 0.1496,
      "velocity": 98,
      "chip": "ym2612"
    },
    {
      "channel": 4,
      "note": 78,
      "start": 30.3115,
      "duration": 0.2526,
      "velocity": 87,
      "chip": "ym2612"
    },
    {
      "channel": 0,
      "note": 73,
      "start": 30.4217,
      "duration": 0.9283,
      "velocity": 87,
      "chip": "ym2612"
    },
    {
      "channel": 1,
      "note": 53,
      "start": 30.4224,
      "duration": 0.0143,
      "velocity": 116,
      "chip": "ym2612"
    },
    {
      "channel": 2,
      "note": 69,
      "start": 30.4471,
      "duration": 0.1004,
      "velocity": 98,
      "chip": "ym2612"
    },
    {
      "channel": 3,
      "note": 66,
      "start": 30.4478,
      "duration": 0.1,
      "velocity": 98,
      "chip": "ym2612"
    },
    {
      "channel": 1,
      "note": 41,
      "start": 30.5473,
      "duration": 0.0411,
      "velocity": 116,
      "chip": "ym2612"
    },
    {
      "channel": 4,
      "note": 73,
      "start": 30.5646,
      "duration": 0.9428,
      "velocity": 87,
      "chip": "ym2612"
    },
    {
      "channel": 1,
      "note": 41,
      "start": 30.5889,
      "duration": 0.0749,
      "velocity": 116,
      "chip": "ym2612"
    },
    {
      "channel": 1,
      "note": 41,
      "start": 30.6644,
      "duration": 0.0997,
      "velocity": 116,
      "chip": "ym2612"
    },
    {
      "channel": 1,
      "note": 42,
      "start": 30.7646,
      "duration": 0.1411,
      "velocity": 116,
      "chip": "ym2612"
    },
    {
      "channel": 2,
      "note": 73,
      "start": 30.7676,
      "duration": 0.4575,
      "velocity": 103,
      "chip": "ym2612"
    },
    {
      "channel": 3,
      "note": 69,
      "start": 30.7706,
      "duration": 0.4553,
      "velocity": 103,
      "chip": "ym2612"
    },
    {
      "channel": 1,
      "note": 42,
      "start": 30.9063,
      "duration": 0.1997,
      "velocity": 116,
      "chip": "ym2612"
    },
    {
      "channel": 1,
      "note": 42,
      "start": 31.1066,
      "duration": 0.0491,
      "velocity": 116,
      "chip": "ym2612"
    },
    {
      "channel": 1,
      "note": 52,
      "start": 31.1562,
      "duration": 0.0421,
      "velocity": 116,
      "chip": "ym2612"
    },
    {
      "channel": 1,
      "note": 54,
      "start": 31.1989,
      "duration": 0.0254,
      "velocity": 116,
      "chip": "ym2612"
    },
    {
      "channel": 1,
      "note": 42,
      "start": 31.2249,
      "duration": 0.1254,
      "velocity": 116,
      "chip": "ym2612"
    },
    {
      "channel": 2,
      "note": 74,
      "start": 31.2256,
      "duration": 0.4702,
      "velocity": 103,
      "chip": "ym2612"
    },
    {
      "channel": 3,
      "note": 69,
      "start": 31.2264,
      "duration": 0.4701,
      "velocity": 103,
      "chip": "ym2612"
    },
    {
      "channel": 1,
      "note": 42,
      "start": 31.3509,
      "duration": 0.141,
      "velocity": 116,
      "chip": "ym2612"
    },
    {
      "channel": 1,
      "note": 42,
      "start": 31.4925,
      "duration": 0.0394,
      "velocity": 116,
      "chip": "ym2612"
    },
    {
      "channel": 1,
      "note": 52,
      "start": 31.5325,
      "duration": 0.06,
      "velocity": 116,
      "chip": "ym2612"
    },
    {
      "channel": 1,
      "note": 54,
      "start": 31.593,
      "duration": 0.1021,
      "velocity": 116,
      "chip": "ym2612"
    },
    {
      "channel": 1,
      "note": 52,
      "start": 31.6957,
      "duration": 0.0196,
      "velocity": 116,
      "chip": "ym2612"
    },
    {
      "channel": 2,
      "note": 75,
      "start": 31.6964,
      "duration": 0.3354,
      "velocity": 103,
      "chip": "ym2612"
    },
    {
      "channel": 3,
      "note": 69,
      "start": 31.6971,
      "duration": 0.3353,
      "velocity": 103,
      "chip": "ym2612"
    },
    {
      "channel": 1,
      "note": 54,
      "start": 31.7159,
      "duration": 0.0123,
      "velocity": 116,
      "chip": "ym2612"
    },
    {
      "channel": 1,
      "note": 42,
      "start": 31.7375,
      "duration": 0.1254,
      "velocity": 116,
      "chip": "ym2612"
    },
    {
      "channel": 1,
      "note": 42,
      "start": 31.8634,
      "duration": 0.1246,
      "velocity": 116,
      "chip": "ym2612"
    },
    {
      "channel": 1,
      "note": 52,
      "start": 31.9886,
      "duration": 0.0224,
      "velocity": 116,
      "chip": "ym2612"
    },
    {
      "channel": 1,
      "note": 54,
      "start": 32.0116,
      "duration": 0.01,
      "velocity": 116,
      "chip": "ym2612"
    },
    {
      "channel": 1,
      "note": 42,
      "start": 32.0316,
      "duration": 0.1261,
      "velocity": 116,
      "chip": "ym2612"
    },
    {
      "channel": 2,
      "note": 74,
      "start": 32.0323,
      "duration": 0.367,
      "velocity": 98,
      "chip": "ym2612"
    },
    {
      "channel": 3,
      "note": 69,
      "start": 32.0331,
      "duration": 0.3693,
      "velocity": 98,
      "chip": "ym2612"
    },
    {
      "channel": 0,
      "note": 83,
      "start": 32.0573,
      "duration": 0.0996,
      "velocity": 120,
      "chip": "ym2612"
    },
    {
      "channel": 0,
      "note": 85,
      "start": 32.1576,
      "duration": 0.0243,
      "velocity": 120,
      "chip": "ym2612"
    },
    {
      "channel": 1,
      "note": 42,
      "start": 32.1583,
      "duration": 0.1412,
      "velocity": 116,
      "chip": "ym2612"
    },
    {
      "channel": 0,
      "note": 88,
      "start": 32.1824,
      "duration": 0.1163,
      "velocity": 120,
      "chip": "ym2612"
    },
    {
      "channel": 4,
      "note": 83,
      "start": 32.2672,
      "duration": 0.0483,
      "velocity": 120,
      "chip": "ym2612"
    },
    {
      "channel": 0,
      "note": 80,
      "start": 32.2994,
      "duration": 0.0229,
      "velocity": 120,
      "chip": "ym2612"
    },
    {
      "channel": 1,
      "note": 52,
      "start": 32.3001,
      "duration": 0.0229,
      "velocity": 116,
      "chip": "ym2612"
    },
    {
      "channel": 4,
      "note": 85,
      "start": 32.3161,
      "duration": 0.0231,
      "velocity": 120,
      "chip": "ym2612"
    },
    {
      "channel": 0,
      "note": 81,
      "start": 32.3229,
      "duration": 0.0226,
      "velocity": 120,
      "chip": "ym2612"
    },
    {
      "channel": 1,
      "note": 54,
      "start": 32.3236,
      "duration": 0.0112,
      "velocity": 116,
      "chip": "ym2612"
    },
    {
      "channel": 4,
      "note": 88,
      "start": 32.3399,
      "duration": 0.0223,
      "velocity": 120,
      "chip": "ym2612"
    },
    {
      "channel": 0,
      "note": 78,
      "start": 32.3461,
      "duration": 0.0476,
      "velocity": 87,
      "chip": "ym2612"
    },
    {
      "channel": 1,
      "note": 42,
      "start": 32.3468,
      "duration": 0.0495,
      "velocity": 116,
      "chip": "ym2612"
    },
    {
      "channel": 4,
      "note": 80,
      "start": 32.3628,
      "duration": 0.0214,
      "velocity": 120,
      "chip": "ym2612"
    },
    {
      "channel": 4,
      "note": 81,
      "start": 32.3848,
      "duration": 0.0343,
      "velocity": 120,
      "chip": "ym2612"
    },
    {
      "channel": 1,
      "note": 42,
      "start": 32.3968,
      "duration": 0.036,
      "velocity": 116,
      "chip": "ym2612"
    },
    {
      "channel": 2,
      "note": 78,
      "start": 32.3999,
      "duration": 0.2001,
      "velocity": 98,
      "chip": "ym2612"
    },
    {
      "channel": 3,
      "note": 73,
      "start": 32.403,
      "duration": 0.1973,
      "velocity": 98,
      "chip": "ym2612"
    },
    {
      "channel": 4,
      "note": 78,
      "start": 32.4197,
      "duration": 0.1834,
      "velocity": 87,
      "chip": "ym2612"
    },
    {
      "channel": 1,
      "note": 42,
      "start": 32.4334,
      "duration": 0.1001,
      "velocity": 116,
      "chip": "ym2612"
    },
    {
      "channel": 0,
      "note": 80,
      "start": 32.5334,
      "duration": 0.0661,
      "velocity": 87,
      "chip": "ym2612"
    },
    {
      "channel": 1,
      "note": 54,
      "start": 32.5341,
      "duration": 0.1997,
      "velocity": 116,
      "chip": "ym2612"
    },
    {
      "channel": 0,
      "note": 81,
      "start": 32.7336,
      "duration": 0.0139,
      "velocity": 87,
      "chip": "ym2612"
    },
    {
      "channel": 1,
      "note": 42,
      "start": 32.7343,
      "duration": 0.0208,
      "velocity": 116,
      "chip": "ym2612"
    },
    {
      "channel": 2,
      "note": 76,
      "start": 32.7351,
      "duration": 0.0775,
      "velocity": 98,
      "chip": "ym2612"
    },
    {
      "channel": 3,
      "note": 73,
      "start": 32.7359,
      "duration": 0.077,
      "velocity": 98,
      "chip": "ym2612"
    },
    {
      "channel": 4,
      "note": 80,
      "start": 32.7493,
      "duration": 0.0136,
      "velocity": 87,
      "chip": "ym2612"
    },
    {
      "channel": 1,
      "note": 42,
      "start": 32.7557,
      "duration": 0.0428,
      "velocity": 116,
      "chip": "ym2612"
    },
    {
      "channel": 0,
      "note": 80,
      "start": 32.7984,
      "duration": 0.3193,
      "velocity": 87,
      "chip": "ym2612"
    },
    {
      "channel": 1,
      "note": 42,
      "start": 32.7991,
      "duration": 0.0101,
      "velocity": 116,
      "chip": "ym2612"
    },
    {
      "channel": 4,
      "note": 81,
      "start": 32.8138,
      "duration": 0.0171,
      "velocity": 87,
      "chip": "ym2612"
    },
    {
      "channel": 1,
      "note": 42,
      "start": 32.8246,
      "duration": 0.0087,
      "velocity": 116,
      "chip": "ym2612"
    },
    {
      "channel": 1,
      "note": 41,
      "start": 32.8508,
      "duration": 0.1255,
      "velocity": 116,
      "chip": "ym2612"
    },
    {
      "channel": 2,
      "note": 73,
      "start": 32.8515,
      "duration": 0.1367,
      "velocity": 98,
      "chip": "ym2612"
    },
    {
      "channel": 3,
      "note": 69,
      "start": 32.8522,
      "duration": 0.1363,
      "velocity": 98,
      "chip": "ym2612"
    },
    {
      "channel": 4,
      "note": 80,
      "start": 32.8662,
      "duration": 0.3196,
      "velocity": 87,
      "chip": "ym2612"
    },
    {
      "channel": 1,
      "note": 53,
      "start": 32.9769,
      "duration": 0.0146,
      "velocity": 116,
      "chip": "ym2612"
    },
    {
      "channel": 2,
      "note": 69,
      "start": 33.0185,
      "duration": 0.1317,
      "velocity": 98,
      "chip": "ym2612"
    },
    {
      "channel": 3,
      "note": 66,
      "start": 33.0193,
      "duration": 0.1312,
      "velocity": 98,
      "chip": "ym2612"
    },
    {
      "channel": 0,
      "note": 85,
      "start": 33.1183,
      "duration": 0.0143,
      "velocity": 87,
      "chip": "ym2612"
    },
    {
      "channel": 1,
      "note": 41,
      "start": 33.119,
      "duration": 0.0398,
      "velocity": 116,
      "chip": "ym2612"
    },
    {
      "channel": 1,
      "note": 41,
      "start": 33.1594,
      "duration": 0.0589,
      "velocity": 116,
      "chip": "ym2612"
    },
    {
      "channel": 2,
      "note": 66,
      "start": 33.1601,
      "duration": 0.0589,
      "velocity": 98,
      "chip": "ym2612"
    },
    {
      "channel": 3,
      "note": 61,
      "start": 33.1608,
      "duration": 0.0585,
      "velocity": 98,
      "chip": "ym2612"
    },
    {
      "channel": 4,
      "note": 85,
      "start": 33.1864,
      "duration": 0.0656,
      "velocity": 87,
      "chip": "ym2612"
    },
    {
      "channel": 1,
      "note": 41,
      "start": 33.2188,
      "duration": 0.1003,
      "velocity": 116,
      "chip": "ym2612"
    },
    {
      "channel": 0,
      "note": 84,
      "start": 33.319,
      "duration": 0.009,
      "velocity": 87,
      "chip": "ym2612"
    },
    {
      "channel": 1,
      "note": 40,
      "start": 33.3198,
      "duration": 0.0405,
      "velocity": 116,
      "chip": "ym2612"
    },
    {
      "channel": 0,
      "note": 85,
      "start": 33.3286,
      "duration": 0.3316,
      "velocity": 87,
      "chip": "ym2612"
    },
    {
      "channel": 1,
      "note": 40,
      "start": 33.3608,
      "duration": 0.0994,
      "velocity": 116,
      "chip": "ym2612"
    },
    {
      "channel": 2,
      "note": 69,
      "start": 33.3615,
      "duration": 0.3001,
      "velocity": 98,
      "chip": "ym2612"
    },
    {
      "channel": 3,
      "note": 66,
      "start": 33.3622,
      "duration": 0.3001,
      "velocity": 98,
      "chip": "ym2612"
    },
    {
      "channel": 1,
      "note": 52,
      "start": 33.4608,
      "duration": 0.2001,
      "velocity": 116,
      "chip": "ym2612"
    },
    {
      "channel": 4,
      "note": 84,
      "start": 33.5285,
      "duration": 0.0329,
      "velocity": 87,
      "chip": "ym2612"
    },
    {
      "channel": 4,
      "note": 85,
      "start": 33.5621,
      "duration": 0.1796,
      "velocity": 87,
      "chip": "ym2612"
    },
    {
      "channel": 0,
      "note": 81,
      "start": 33.6608,
      "duration": 0.0147,
      "velocity": 87,
      "chip": "ym2612"
    },
    {
      "channel": 1,
      "note": 40,
      "start": 33.6615,
      "duration": 0.0208,
      "velocity": 116,
      "chip": "ym2612"
    },
    {
      "channel": 2,
      "note": 71,
      "start": 33.6622,
      "duration": 0.0208,
      "velocity": 98,
      "chip": "ym2612"
    },
    {
      "channel": 3,
      "note": 68,
      "start": 33.663,
      "duration": 0.0202,
      "velocity": 98,
      "chip": "ym2612"
    },
    {
      "channel": 1,
      "note": 40,
      "start": 33.6829,
      "duration": 0.0428,
      "velocity": 116,
      "chip": "ym2612"
    },
    {
      "channel": 0,
      "note": 78,
      "start": 33.7256,
      "duration": 0.1775,
      "velocity": 87,
      "chip": "ym2612"
    },
    {
      "channel": 1,
      "note": 40,
      "start": 33.7263,
      "duration": 0.0113,
      "velocity": 116,
      "chip": "ym2612"
    },
    {
      "channel": 2,
      "note": 73,
      "start": 33.727,
      "duration": 0.0249,
      "velocity": 98,
      "chip": "ym2612"
    },
    {
      "channel": 3,
      "note": 69,
      "start": 33.7277,
      "duration": 0.0245,
      "velocity": 98,
      "chip": "ym2612"
    },
    {
      "channel": 4,
      "note": 81,
      "start": 33.7423,
      "duration": 0.0162,
      "velocity": 87,
      "chip": "ym2612"
    },
    {
      "channel": 1,
      "note": 40,
      "start": 33.7518,
      "duration": 0.0092,
      "velocity": 116,
      "chip": "ym2612"
    },
    {
      "channel": 1,
      "note": 41,
      "start": 33.778,
      "duration": 0.1259,
      "velocity": 116,
      "chip": "ym2612"
    },
    {
      "channel": 2,
      "note": 71,
      "start": 33.7787,
      "duration": 0.1663,
      "velocity": 98,
      "chip": "ym2612"
    },
    {
      "channel": 3,
      "note": 68,
      "start": 33.7795,
      "duration": 0.1663,
      "velocity": 98,
      "chip": "ym2612"
    },
    {
      "channel": 4,
      "note": 78,
      "start": 33.7934,
      "duration": 0.266,
      "velocity": 87,
      "chip": "ym2612"
    },
    {
      "channel": 0,
      "note": 73,
      "start": 33.9037,
      "duration": 0.9324,
      "velocity": 87,
      "chip": "ym2612"
    },
    {
      "channel": 1,
      "note": 53,
      "start": 33.9044,
      "duration": 0.0182,
      "velocity": 116,
      "chip": "ym2612"
    },
    {
      "channel": 2,
      "note": 69,
      "start": 33.9457,
      "duration": 0.1004,
      "velocity": 98,
      "chip": "ym2612"
    },
    {
      "channel": 3,
      "note": 66,
      "start": 33.9464,
      "duration": 0.1,
      "velocity": 98,
      "chip": "ym2612"
    },
    {
      "channel": 1,
      "note": 41,
      "start": 34.0459,
      "duration": 0.0376,
      "velocity": 116,
      "chip": "ym2612"
    },
    {
      "channel": 4,
      "note": 73,
      "start": 34.06,
      "duration": 0.9169,
      "velocity": 87,
      "chip": "ym2612"
    },
    {
      "channel": 1,
      "note": 41,
      "start": 34.0841,
      "duration": 0.0616,
      "velocity": 116,
      "chip": "ym2612"
    },
    {
      "channel": 1,
      "note": 41,
      "start": 34.1462,
      "duration": 0.1163,
      "velocity": 116,
      "chip": "ym2612"
    },
    {
      "channel": 1,
      "note": 42,
      "start": 34.2631,
      "duration": 0.1244,
      "velocity": 116,
      "chip": "ym2612"
    },
    {
      "channel": 2,
      "note": 73,
      "start": 34.2661,
      "duration": 0.4284,
      "velocity": 103,
      "chip": "ym2612"
    },
    {
      "channel": 3,
      "note": 69,
      "start": 34.269,
      "duration": 0.4262,
      "velocity": 103,
      "chip": "ym2612"
    },
    {
      "channel": 1,
      "note": 42,
      "start": 34.3881,
      "duration": 0.1997,
      "velocity": 116,
      "chip": "ym2612"
    },
    {
      "channel": 1,
      "note": 42,
      "start": 34.5884,
      "duration": 0.0534,
      "velocity": 116,
      "chip": "ym2612"
    },
    {
      "channel": 1,
      "note": 52,
      "start": 34.6423,
      "duration": 0.0255,
      "velocity": 116,
      "chip": "ym2612"
    },
    {
      "channel": 1,
      "note": 54,
      "start": 34.6683,
      "duration": 0.0255,
      "velocity": 116,
      "chip": "ym2612"
    },
    {
      "channel": 1,
      "note": 42,
      "start": 34.6944,
      "duration": 0.1421,
      "velocity": 116,
      "chip": "ym2612"
    },
    {
      "channel": 2,
      "note": 74,
      "start": 34.6951,
      "duration": 0.4868,
      "velocity": 103,
      "chip": "ym2612"
    },
    {
      "channel": 3,
      "note": 69,
      "start": 34.6958,
      "duration": 0.4868,
      "velocity": 103,
      "chip": "ym2612"
    },
    {
      "channel": 1,
      "note": 42,
      "start": 34.837,
      "duration": 0.1244,
      "velocity": 116,
      "chip": "ym2612"
    },
    {
      "channel": 1,
      "note": 42,
      "start": 34.9619,
      "duration": 0.0394,
      "velocity": 116,
      "chip": "ym2612"
    },
    {
      "channel": 1,
      "note": 52,
      "start": 35.0019,
      "duration": 0.06,
      "velocity": 116,
      "chip": "ym2612"
    },
    {
      "channel": 1,
      "note": 54,
      "start": 35.0624,
      "duration": 0.1188,
      "velocity": 116,
      "chip": "ym2612"
    },
    {
      "channel": 1,
      "note": 52,
      "start": 35.1817,
      "duration": 0.0196,
      "velocity": 116,
      "chip": "ym2612"
    },
    {
      "channel": 2,
      "note": 75,
      "start": 35.1824,
      "duration": 0.3452,
      "velocity": 103,
      "chip": "ym2612"
    },
    {
      "channel": 3,
      "note": 69,
      "start": 35.1832,
      "duration": 0.3451,
      "velocity": 103,
      "chip": "ym2612"
    },
    {
      "channel": 1,
      "note": 54,
      "start": 35.2019,
      "duration": 0.0093,
      "velocity": 116,
      "chip": "ym2612"
    },
    {
      "channel": 1,
      "note": 42,
      "start": 35.2205,
      "duration": 0.1254,
      "velocity": 116,
      "chip": "ym2612"
    },
    {
      "channel": 1,
      "note": 42,
      "start": 35.3465,
      "duration": 0.1412,
      "velocity": 116,
      "chip": "ym2612"
    },
    {
      "channel": 1,
      "note": 52,
      "start": 35.4883,
      "duration": 0.0191,
      "velocity": 116,
      "chip": "ym2612"
    },
    {
      "channel": 1,
      "note": 54,
      "start": 35.508,
      "duration": 0.0094,
      "velocity": 116,
      "chip": "ym2612"
    },
    {
      "channel": 1,
      "note": 42,
      "start": 35.5275,
      "duration": 0.1428,
      "velocity": 116,
      "chip": "ym2612"
    },
    {
      "channel": 2,
      "note": 74,
      "start": 35.5282,
      "duration": 0.372,
      "velocity": 98,
      "chip": "ym2612"
    },
    {
      "channel": 3,
      "note": 69,
      "start": 35.529,
      "duration": 0.3743,
      "velocity": 98,
      "chip": "ym2612"
    },
    {
      "channel": 0,
      "note": 83,
      "start": 35.5532,
      "duration": 0.1163,
      "velocity": 120,
      "chip": "ym2612"
    },
    {
      "channel": 0,
      "note": 85,
      "start": 35.6702,
      "duration": 0.0243,
      "velocity": 120,
      "chip": "ym2612"
    },
    {
      "channel": 1,
      "note": 42,
      "start": 35.6709,
      "duration": 0.1245,
      "velocity": 116,
      "chip": "ym2612"
    },
    {
      "channel": 0,
      "note": 88,
      "start": 35.695,
      "duration": 0.0997,
      "velocity": 120,
      "chip": "ym2612"
    },
    {
      "channel": 4,
      "note": 83,
      "start": 35.7632,
      "duration": 0.0483,
      "velocity": 120,
      "chip": "ym2612"
    },
    {
      "channel": 0,
      "note": 80,
      "start": 35.7953,
      "duration": 0.0229,
      "velocity": 120,
      "chip": "ym2612"
    },
    {
      "channel": 1,
      "note": 52,
      "start": 35.796,
      "duration": 0.0229,
      "velocity": 116,
      "chip": "ym2612"
    },
    {
      "channel": 4,
      "note": 85,
      "start": 35.8121,
      "duration": 0.0232,
      "velocity": 120,
      "chip": "ym2612"
    },
    {
      "channel": 0,
      "note": 81,
      "start": 35.8188,
      "duration": 0.0234,
      "velocity": 120,
      "chip": "ym2612"
    },
    {
      "channel": 1,
      "note": 54,
      "start": 35.8195,
      "duration": 0.0112,
      "velocity": 116,
      "chip": "ym2612"
    },
    {
      "channel": 4,
      "note": 88,
      "start": 35.8358,
      "duration": 0.0272,
      "velocity": 120,
      "chip": "ym2612"
    },
    {
      "channel": 0,
      "note": 78,
      "start": 35.8427,
      "duration": 0.0515,
      "velocity": 76,
      "chip": "ym2612"
    },
    {
      "channel": 1,
      "note": 42,
      "start": 35.8434,
      "duration": 0.0538,
      "velocity": 116,
      "chip": "ym2612"
    },
    {
      "channel": 4,
      "note": 80,
      "start": 35.8636,
      "duration": 0.0213,
      "velocity": 120,
      "chip": "ym2612"
    },
    {
      "channel": 4,
      "note": 81,
      "start": 35.8855,
      "duration": 0.0321,
      "velocity": 120,
      "chip": "ym2612"
    },
    {
      "channel": 0,
      "note": 73,
      "start": 35.8948,
      "duration": 0.7083,
      "velocity": 76,
      "chip": "ym2612"
    },
    {
      "channel": 1,
      "note": 42,
      "start": 35.8978,
      "duration": 0.0261,
      "velocity": 116,
      "chip": "ym2612"
    },
    {
      "channel": 2,
      "note": 78,
      "start": 35.9008,
      "duration": 0.1832,
      "velocity": 98,
      "chip": "ym2612"
    },
    {
      "channel": 3,
      "note": 73,
      "start": 35.9039,
      "duration": 0.1804,
      "velocity": 98,
      "chip": "ym2612"
    },
    {
      "channel": 4,
      "note": 78,
      "start": 35.9182,
      "duration": 0.1688,
      "velocity": 76,
      "chip": "ym2612"
    },
    {
      "channel": 1,
      "note": 42,
      "start": 35.9245,
      "duration": 0.0926,
      "velocity": 116,
      "chip": "ym2612"
    },
    {
      "channel": 1,
      "note": 54,
      "start": 36.0176,
      "duration": 0.2163,
      "velocity": 116,
      "chip": "ym2612"
    },
    {
      "channel": 4,
      "note": 73,
      "start": 36.0876,
      "duration": 0.6003,
      "velocity": 76,
      "chip": "ym2612"
    },
    {
      "channel": 1,
      "note": 42,
      "start": 36.2346,
      "duration": 0.023,
      "velocity": 116,
      "chip": "ym2612"
    },
    {
      "channel": 2,
      "note": 76,
      "start": 36.2353,
      "duration": 0.0641,
      "velocity": 98,
      "chip": "ym2612"
    },
    {
      "channel": 3,
      "note": 73,
      "start": 36.236,
      "duration": 0.0637,
      "velocity": 98,
      "chip": "ym2612"
    },
    {
      "channel": 1,
      "note": 42,
      "start": 36.2581,
      "duration": 0.0255,
      "velocity": 116,
      "chip": "ym2612"
    },
    {
      "channel": 1,
      "note": 42,
      "start": 36.2842,
      "duration": 0.0114,
      "velocity": 116,
      "chip": "ym2612"
    },
    {
      "channel": 1,
      "note": 42,
      "start": 36.3102,
      "duration": 0.0095,
      "velocity": 116,
      "chip": "ym2612"
    },
    {
      "channel": 1,
      "note": 41,
      "start": 36.3362,
      "duration": 0.1421,
      "velocity": 116,
      "chip": "ym2612"
    },
    {
      "channel": 2,
      "note": 73,
      "start": 36.3369,
      "duration": 0.1537,
      "velocity": 98,
      "chip": "ym2612"
    },
    {
      "channel": 3,
      "note": 69,
      "start": 36.3377,
      "duration": 0.1532,
      "velocity": 98,
      "chip": "ym2612"
    },
    {
      "channel": 1,
      "note": 53,
      "start": 36.4789,
      "duration": 0.0151,
      "velocity": 116,
      "chip": "ym2612"
    },
    {
      "channel": 2,
      "note": 69,
      "start": 36.504,
      "duration": 0.1331,
      "velocity": 98,
      "chip": "ym2612"
    },
    {
      "channel": 3,
      "note": 66,
      "start": 36.5047,
      "duration": 0.1327,
      "velocity": 98,
      "chip": "ym2612"
    },
    {
      "channel": 0,
      "note": 73,
      "start": 36.6037,
      "duration": 0.0213,
      "velocity": 76,
      "chip": "ym2612"
    },
    {
      "channel": 1,
      "note": 41,
      "start": 36.6044,
      "duration": 0.0419,
      "velocity": 116,
      "chip": "ym2612"
    },
    {
      "channel": 0,
      "note": 78,
      "start": 36.6256,
      "duration": 0.0205,
      "velocity": 76,
      "chip": "ym2612"
    },
    {
      "channel": 1,
      "note": 41,
      "start": 36.6469,
      "duration": 0.074,
      "velocity": 116,
      "chip": "ym2612"
    },
    {
      "channel": 2,
      "note": 66,
      "start": 36.6477,
      "duration": 0.074,
      "velocity": 98,
      "chip": "ym2612"
    },
    {
      "channel": 3,
      "note": 61,
      "start": 36.6485,
      "duration": 0.0735,
      "velocity": 98,
      "chip": "ym2612"
    },
    {
      "channel": 4,
      "note": 73,
      "start": 36.6885,
      "duration": 0.0992,
      "velocity": 76,
      "chip": "ym2612"
    },
    {
      "channel": 0,
      "note": 73,
      "start": 36.7208,
      "duration": 0.6856,
      "velocity": 76,
      "chip": "ym2612"
    },
    {
      "channel": 1,
      "note": 41,
      "start": 36.7215,
      "duration": 0.0993,
      "velocity": 116,
      "chip": "ym2612"
    },
    {
      "channel": 4,
      "note": 78,
      "start": 36.7882,
      "duration": 0.0456,
      "velocity": 76,
      "chip": "ym2612"
    },
    {
      "channel": 1,
      "note": 40,
      "start": 36.8213,
      "duration": 0.0243,
      "velocity": 116,
      "chip": "ym2612"
    },
    {
      "channel": 1,
      "note": 40,
      "start": 36.8462,
      "duration": 0.0994,
      "velocity": 116,
      "chip": "ym2612"
    },
    {
      "channel": 2,
      "note": 69,
      "start": 36.8469,
      "duration": 0.3163,
      "velocity": 98,
      "chip": "ym2612"
    },
    {
      "channel": 3,
      "note": 66,
      "start": 36.8477,
      "duration": 0.3163,
      "velocity": 98,
      "chip": "ym2612"
    },
    {
      "channel": 4,
      "note": 73,
      "start": 36.9138,
      "duration": 0.632,
      "velocity": 76,
      "chip": "ym2612"
    },
    {
      "channel": 1,
      "note": 52,
      "start": 36.9462,
      "duration": 0.2163,
      "velocity": 116,
      "chip": "ym2612"
    },
    {
      "channel": 1,
      "note": 40,
      "start": 37.1632,
      "duration": 0.023,
      "velocity": 116,
      "chip": "ym2612"
    },
    {
      "channel": 2,
      "note": 71,
      "start": 37.1639,
      "duration": 0.023,
      "velocity": 98,
      "chip": "ym2612"
    },
    {
      "channel": 3,
      "note": 68,
      "start": 37.1646,
      "duration": 0.0224,
      "velocity": 98,
      "chip": "ym2612"
    },
    {
      "channel": 1,
      "note": 40,
      "start": 37.1866,
      "duration": 0.0255,
      "velocity": 116,
      "chip": "ym2612"
    },
    {
      "channel": 1,
      "note": 40,
      "start": 37.2127,
      "duration": 0.0116,
      "velocity": 116,
      "chip": "ym2612"
    },
    {
      "channel": 2,
      "note": 73,
      "start": 37.2134,
      "duration": 0.0254,
      "velocity": 98,
      "chip": "ym2612"
    },
    {
      "channel": 3,
      "note": 69,
      "start": 37.2142,
      "duration": 0.0249,
      "velocity": 98,
      "chip": "ym2612"
    },
    {
      "channel": 1,
      "note": 40,
      "start": 37.2386,
      "duration": 0.0099,
      "velocity": 116,
      "chip": "ym2612"
    },
    {
      "channel": 1,
      "note": 41,
      "start": 37.2647,
      "duration": 0.1424,
      "velocity": 116,
      "chip": "ym2612"
    },
    {
      "channel": 2,
      "note": 71,
      "start": 37.2654,
      "duration": 0.1663,
      "velocity": 98,
      "chip": "ym2612"
    },
    {
      "channel": 3,
      "note": 68,
      "start": 37.2662,
      "duration": 0.1662,
      "velocity": 98,
      "chip": "ym2612"
    },
    {
      "channel": 0,
      "note": 71,
      "start": 37.407,
      "duration": 0.0243,
      "velocity": 76,
      "chip": "ym2612"
    },
    {
      "channel": 1,
      "note": 53,
      "start": 37.4077,
      "duration": 0.0147,
      "velocity": 116,
      "chip": "ym2612"
    },
    {
      "channel": 2,
      "note": 69,
      "start": 37.4323,
      "duration": 0.1007,
      "velocity": 98,
      "chip": "ym2612"
    },
    {
      "channel": 3,
      "note": 66,
      "start": 37.433,
      "duration": 0.1002,
      "velocity": 98,
      "chip": "ym2612"
    },
    {
      "channel": 0,
      "note": 69,
      "start": 37.5322,
      "duration": 0.0193,
      "velocity": 76,
      "chip": "ym2612"
    },
    {
      "channel": 1,
      "note": 41,
      "start": 37.5329,
      "duration": 0.0386,
      "velocity": 116,
      "chip": "ym2612"
    },
    {
      "channel": 4,
      "note": 71,
      "start": 37.5463,
      "duration": 0.0195,
      "velocity": 76,
      "chip": "ym2612"
    },
    {
      "channel": 0,
      "note": 68,
      "start": 37.5713,
      "duration": 0.0774,
      "velocity": 76,
      "chip": "ym2612"
    },
    {
      "channel": 1,
      "note": 41,
      "start": 37.572,
      "duration": 0.077,
      "velocity": 116,
      "chip": "ym2612"
    },
    {
      "channel": 4,
      "note": 69,
      "start": 37.6166,
      "duration": 0.0993,
      "velocity": 76,
      "chip": "ym2612"
    },
    {
      "channel": 1,
      "note": 41,
      "start": 37.6495,
      "duration": 0.1001,
      "velocity": 116,
      "chip": "ym2612"
    },
    {
      "channel": 0,
      "note": 69,
      "start": 37.7495,
      "duration": 0.241,
      "velocity": 76,
      "chip": "ym2612"
    },
    {
      "channel": 1,
      "note": 42,
      "start": 37.7502,
      "duration": 0.124,
      "velocity": 116,
      "chip": "ym2612"
    },
    {
      "channel": 2,
      "note": 73,
      "start": 37.7532,
      "duration": 0.455,
      "velocity": 103,
      "chip": "ym2612"
    },
    {
      "channel": 3,
      "note": 69,
      "start": 37.7561,
      "duration": 0.4527,
      "velocity": 103,
      "chip": "ym2612"
    },
    {
      "channel": 4,
      "note": 68,
      "start": 37.7697,
      "duration": 0.072,
      "velocity": 76,
      "chip": "ym2612"
    },
    {
      "channel": 1,
      "note": 42,
      "start": 37.8748,
      "duration": 0.2162,
      "velocity": 116,
      "chip": "ym2612"
    },
    {
      "channel": 4,
      "note": 69,
      "start": 37.9426,
      "duration": 0.1853,
      "velocity": 76,
      "chip": "ym2612"
    },
    {
      "channel": 0,
      "note": 66,
      "start": 37.9911,
      "duration": 0.0997,
      "velocity": 76,
      "chip": "ym2612"
    },
    {
      "channel": 1,
      "note": 42,
      "start": 38.0916,
      "duration": 0.0472,
      "velocity": 116,
      "chip": "ym2612"
    },
    {
      "channel": 4,
      "note": 66,
      "start": 38.1285,
      "duration": 0.0254,
      "velocity": 76,
      "chip": "ym2612"
    },
    {
      "channel": 1,
      "note": 52,
      "start": 38.1394,
      "duration": 0.0254,
      "velocity": 116,
      "chip": "ym2612"
    },
    {
      "channel": 1,
      "note": 54,
      "start": 38.1654,
      "duration": 0.0421,
      "velocity": 116,
      "chip": "ym2612"
    },
    {
      "channel": 1,
      "note": 42,
      "start": 38.208,
      "duration": 0.1255,
      "velocity": 116,
      "chip": "ym2612"
    },
    {
      "channel": 2,
      "note": 74,
      "start": 38.2088,
      "duration": 0.4683,
      "velocity": 103,
      "chip": "ym2612"
    },
    {
      "channel": 3,
      "note": 69,
      "start": 38.2095,
      "duration": 0.4683,
      "velocity": 103,
      "chip": "ym2612"
    },
    {
      "channel": 1,
      "note": 42,
      "start": 38.334,
      "duration": 0.1246,
      "velocity": 116,
      "chip": "ym2612"
    },
    {
      "channel": 1,
      "note": 42,
      "start": 38.4593,
      "duration": 0.0412,
      "velocity": 116,
      "chip": "ym2612"
    },
    {
      "channel": 1,
      "note": 52,
      "start": 38.501,
      "duration": 0.0748,
      "velocity": 116,
      "chip": "ym2612"
    },
    {
      "channel": 1,
      "note": 54,
      "start": 38.5764,
      "duration": 0.0999,
      "velocity": 116,
      "chip": "ym2612"
    },
    {
      "channel": 1,
      "note": 52,
      "start": 38.6769,
      "duration": 0.0192,
      "velocity": 116,
      "chip": "ym2612"
    },
    {
      "channel": 2,
      "note": 75,
      "start": 38.6777,
      "duration": 0.3482,
      "velocity": 103,
      "chip": "ym2612"
    },
    {
      "channel": 3,
      "note": 69,
      "start": 38.6784,
      "duration": 0.3481,
      "velocity": 103,
      "chip": "ym2612"
    },
    {
      "channel": 1,
      "note": 54,
      "start": 38.6966,
      "duration": 0.0093,
      "velocity": 116,
      "chip": "ym2612"
    },
    {
      "channel": 1,
      "note": 42,
      "start": 38.7152,
      "duration": 0.1421,
      "velocity": 116,
      "chip": "ym2612"
    },
    {
      "channel": 1,
      "note": 42,
      "start": 38.8578,
      "duration": 0.1246,
      "velocity": 116,
      "chip": "ym2612"
    },
    {
      "channel": 1,
      "note": 52,
      "start": 38.983,
      "duration": 0.0191,
      "velocity": 116,
      "chip": "ym2612"
    },
    {
      "channel": 1,
      "note": 54,
      "start": 39.0027,
      "duration": 0.0127,
      "velocity": 116,
      "chip": "ym2612"
    },
    {
      "channel": 1,
      "note": 42,
      "start": 39.0257,
      "duration": 0.1255,
      "velocity": 116,
      "chip": "ym2612"
    },
    {
      "channel": 2,
      "note": 74,
      "start": 39.0264,
      "duration": 0.341,
      "velocity": 98,
      "chip": "ym2612"
    },
    {
      "channel": 3,
      "note": 69,
      "start": 39.0272,
      "duration": 0.3433,
      "velocity": 98,
      "chip": "ym2612"
    },
    {
      "channel": 1,
      "note": 42,
      "start": 39.1517,
      "duration": 0.1246,
      "velocity": 116,
      "chip": "ym2612"
    },
    {
      "channel": 1,
      "note": 52,
      "start": 39.2769,
      "duration": 0.0224,
      "velocity": 116,
      "chip": "ym2612"
    },
    {
      "channel": 1,
      "note": 54,
      "start": 39.2999,
      "duration": 0.0102,
      "velocity": 116,
      "chip": "ym2612"
    },
    {
      "channel": 1,
      "note": 42,
      "start": 39.3199,
      "duration": 0.0444,
      "velocity": 116,
      "chip": "ym2612"
    },
    {
      "channel": 0,
      "note": 73,
      "start": 39.3619,
      "duration": 0.7085,
      "velocity": 76,
      "chip": "ym2612"
    },
    {
      "channel": 1,
      "note": 42,
      "start": 39.3649,
      "duration": 0.0249,
      "velocity": 116,
      "chip": "ym2612"
    },
    {
      "channel": 2,
      "note": 78,
      "start": 39.368,
      "duration": 0.2,
      "velocity": 98,
      "chip": "ym2612"
    },
    {
      "channel": 3,
      "note": 73,
      "start": 39.3711,
      "duration": 0.1972,
      "velocity": 98,
      "chip": "ym2612"
    },
    {
      "channel": 1,
      "note": 42,
      "start": 39.3905,
      "duration": 0.1107,
      "velocity": 116,
      "chip": "ym2612"
    },
    {
      "channel": 1,
      "note": 54,
      "start": 39.5018,
      "duration": 0.1995,
      "velocity": 116,
      "chip": "ym2612"
    },
    {
      "channel": 4,
      "note": 73,
      "start": 39.5715,
      "duration": 0.5837,
      "velocity": 76,
      "chip": "ym2612"
    },
    {
      "channel": 1,
      "note": 42,
      "start": 39.7019,
      "duration": 0.023,
      "velocity": 116,
      "chip": "ym2612"
    },
    {
      "channel": 2,
      "note": 76,
      "start": 39.7026,
      "duration": 0.0642,
      "velocity": 98,
      "chip": "ym2612"
    },
    {
      "channel": 3,
      "note": 73,
      "start": 39.7034,
      "duration": 0.0637,
      "velocity": 98,
      "chip": "ym2612"
    },
    {
      "channel": 1,
      "note": 42,
      "start": 39.7254,
      "duration": 0.0255,
      "velocity": 116,
      "chip": "ym2612"
    },
    {
      "channel": 1,
      "note": 42,
      "start": 39.7515,
      "duration": 0.0114,
      "velocity": 116,
      "chip": "ym2612"
    },
    {
      "channel": 1,
      "note": 42,
      "start": 39.7941,
      "duration": 0.0094,
      "velocity": 116,
      "chip": "ym2612"
    },
    {
      "channel": 1,
      "note": 41,
      "start": 39.8202,
      "duration": 0.1255,
      "velocity": 116,
      "chip": "ym2612"
    },
    {
      "channel": 2,
      "note": 73,
      "start": 39.821,
      "duration": 0.137,
      "velocity": 98,
      "chip": "ym2612"
    },
    {
      "channel": 3,
      "note": 69,
      "start": 39.8217,
      "duration": 0.1366,
      "velocity": 98,
      "chip": "ym2612"
    },
    {
      "channel": 1,
      "note": 53,
      "start": 39.9463,
      "duration": 0.015,
      "velocity": 116,
      "chip": "ym2612"
    },
    {
      "channel": 2,
      "note": 69,
      "start": 39.9713,
      "duration": 0.1368,
      "velocity": 98,
      "chip": "ym2612"
    },
    {
      "channel": 3,
      "note": 66,
      "start": 39.972,
      "duration": 0.1364,
      "velocity": 98,
      "chip": "ym2612"
    },
    {
      "channel": 0,
      "note": 73,
      "start": 40.071,
      "duration": 0.025,
      "velocity": 76,
      "chip": "ym2612"
    },
    {
      "channel": 1,
      "note": 41,
      "start": 40.0717,
      "duration": 0.0457,
      "velocity": 116,
      "chip": "ym2612"
    },
    {
      "channel": 0,
      "note": 78,
      "start": 40.0966,
      "duration": 0.0206,
      "velocity": 76,
      "chip": "ym2612"
    },
    {
      "channel": 1,
      "note": 41,
      "start": 40.118,
      "duration": 0.0702,
      "velocity": 116,
      "chip": "ym2612"
    },
    {
      "channel": 2,
      "note": 66,
      "start": 40.1187,
      "duration": 0.0702,
      "velocity": 98,
      "chip": "ym2612"
    },
    {
      "channel": 3,
      "note": 61,
      "start": 40.1195,
      "duration": 0.0698,
      "velocity": 98,
      "chip": "ym2612"
    },
    {
      "channel": 4,
      "note": 73,
      "start": 40.1557,
      "duration": 0.0992,
      "velocity": 76,
      "chip": "ym2612"
    },
    {
      "channel": 0,
      "note": 73,
      "start": 40.1881,
      "duration": 0.6858,
      "velocity": 76,
      "chip": "ym2612"
    },
    {
      "channel": 1,
      "note": 41,
      "start": 40.1888,
      "duration": 0.0993,
      "velocity": 116,
      "chip": "ym2612"
    },
    {
      "channel": 4,
      "note": 78,
      "start": 40.2555,
      "duration": 0.0457,
      "velocity": 76,
      "chip": "ym2612"
    },
    {
      "channel": 1,
      "note": 40,
      "start": 40.2886,
      "duration": 0.0245,
      "velocity": 116,
      "chip": "ym2612"
    },
    {
      "channel": 1,
      "note": 40,
      "start": 40.3137,
      "duration": 0.1161,
      "velocity": 116,
      "chip": "ym2612"
    },
    {
      "channel": 2,
      "note": 69,
      "start": 40.3144,
      "duration": 0.3163,
      "velocity": 98,
      "chip": "ym2612"
    },
    {
      "channel": 3,
      "note": 66,
      "start": 40.3151,
      "duration": 0.3163,
      "velocity": 98,
      "chip": "ym2612"
    },
    {
      "channel": 4,
      "note": 73,
      "start": 40.3979,
      "duration": 0.6321,
      "velocity": 76,
      "chip": "ym2612"
    },
    {
      "channel": 1,
      "note": 52,
      "start": 40.4303,
      "duration": 0.1997,
      "velocity": 116,
      "chip": "ym2612"
    },
    {
      "channel": 1,
      "note": 40,
      "start": 40.6306,
      "duration": 0.0229,
      "velocity": 116,
      "chip": "ym2612"
    },
    {
      "channel": 2,
      "note": 71,
      "start": 40.6313,
      "duration": 0.0229,
      "velocity": 98,
      "chip": "ym2612"
    },
    {
      "channel": 3,
      "note": 68,
      "start": 40.6321,
      "duration": 0.0224,
      "velocity": 98,
      "chip": "ym2612"
    },
    {
      "channel": 1,
      "note": 40,
      "start": 40.654,
      "duration": 0.0255,
      "velocity": 116,
      "chip": "ym2612"
    },
    {
      "channel": 1,
      "note": 40,
      "start": 40.6801,
      "duration": 0.0153,
      "velocity": 116,
      "chip": "ym2612"
    },
    {
      "channel": 2,
      "note": 73,
      "start": 40.6808,
      "duration": 0.0421,
      "velocity": 98,
      "chip": "ym2612"
    },
    {
      "channel": 3,
      "note": 69,
      "start": 40.6816,
      "duration": 0.0417,
      "velocity": 98,
      "chip": "ym2612"
    },
    {
      "channel": 1,
      "note": 40,
      "start": 40.7228,
      "duration": 0.0098,
      "velocity": 116,
      "chip": "ym2612"
    },
    {
      "channel": 1,
      "note": 41,
      "start": 40.7488,
      "duration": 0.1258,
      "velocity": 116,
      "chip": "ym2612"
    },
    {
      "channel": 2,
      "note": 71,
      "start": 40.7496,
      "duration": 0.1496,
      "velocity": 98,
      "chip": "ym2612"
    },
    {
      "channel": 3,
      "note": 68,
      "start": 40.7503,
      "duration": 0.1496,
      "velocity": 98,
      "chip": "ym2612"
    },
    {
      "channel": 0,
      "note": 71,
      "start": 40.8745,
      "duration": 0.0243,
      "velocity": 76,
      "chip": "ym2612"
    },
    {
      "channel": 1,
      "note": 53,
      "start": 40.8752,
      "duration": 0.0147,
      "velocity": 116,
      "chip": "ym2612"
    },
    {
      "channel": 2,
      "note": 69,
      "start": 40.8998,
      "duration": 0.1174,
      "velocity": 98,
      "chip": "ym2612"
    },
    {
      "channel": 3,
      "note": 66,
      "start": 40.9005,
      "duration": 0.1169,
      "velocity": 98,
      "chip": "ym2612"
    },
    {
      "channel": 0,
      "note": 69,
      "start": 41.0163,
      "duration": 0.0193,
      "velocity": 76,
      "chip": "ym2612"
    },
    {
      "channel": 1,
      "note": 41,
      "start": 41.017,
      "duration": 0.0356,
      "velocity": 116,
      "chip": "ym2612"
    },
    {
      "channel": 4,
      "note": 71,
      "start": 41.0306,
      "duration": 0.0166,
      "velocity": 76,
      "chip": "ym2612"
    },
    {
      "channel": 0,
      "note": 68,
      "start": 41.0525,
      "duration": 0.0637,
      "velocity": 76,
      "chip": "ym2612"
    },
    {
      "channel": 1,
      "note": 41,
      "start": 41.0532,
      "duration": 0.0633,
      "velocity": 116,
      "chip": "ym2612"
    },
    {
      "channel": 4,
      "note": 69,
      "start": 41.0842,
      "duration": 0.0993,
      "velocity": 76,
      "chip": "ym2612"
    },
    {
      "channel": 1,
      "note": 41,
      "start": 41.1171,
      "duration": 0.1001,
      "velocity": 116,
      "chip": "ym2612"
    },
    {
      "channel": 0,
      "note": 69,
      "start": 41.2171,
      "duration": 0.241,
      "velocity": 76,
      "chip": "ym2612"
    },
    {
      "channel": 1,
      "note": 42,
      "start": 41.2178,
      "duration": 0.1407,
      "velocity": 116,
      "chip": "ym2612"
    },
    {
      "channel": 2,
      "note": 73,
      "start": 41.2207,
      "duration": 0.4551,
      "velocity": 103,
      "chip": "ym2612"
    },
    {
      "channel": 3,
      "note": 69,
      "start": 41.2237,
      "duration": 0.4528,
      "velocity": 103,
      "chip": "ym2612"
    },
    {
      "channel": 4,
      "note": 68,
      "start": 41.2372,
      "duration": 0.0887,
      "velocity": 76,
      "chip": "ym2612"
    },
    {
      "channel": 1,
      "note": 42,
      "start": 41.359,
      "duration": 0.1996,
      "velocity": 116,
      "chip": "ym2612"
    },
    {
      "channel": 4,
      "note": 69,
      "start": 41.4268,
      "duration": 0.1688,
      "velocity": 76,
      "chip": "ym2612"
    },
    {
      "channel": 0,
      "note": 66,
      "start": 41.4586,
      "duration": 0.0997,
      "velocity": 76,
      "chip": "ym2612"
    },
    {
      "channel": 1,
      "note": 42,
      "start": 41.5592,
      "duration": 0.0639,
      "velocity": 116,
      "chip": "ym2612"
    },
    {
      "channel": 4,
      "note": 66,
      "start": 41.5962,
      "duration": 0.042,
      "velocity": 76,
      "chip": "ym2612"
    },
    {
      "channel": 1,
      "note": 52,
      "start": 41.6237,
      "duration": 0.0254,
      "velocity": 116,
      "chip": "ym2612"
    },
    {
      "channel": 1,
      "note": 54,
      "start": 41.6496,
      "duration": 0.0255,
      "velocity": 116,
      "chip": "ym2612"
    },
    {
      "channel": 1,
      "note": 42,
      "start": 41.6757,
      "duration": 0.1255,
      "velocity": 116,
      "chip": "ym2612"
    },
    {
      "channel": 2,
      "note": 74,
      "start": 41.6764,
      "duration": 0.4682,
      "velocity": 103,
      "chip": "ym2612"
    },
    {
      "channel": 3,
      "note": 69,
      "start": 41.6771,
      "duration": 0.4682,
      "velocity": 103,
      "chip": "ym2612"
    },
    {
      "channel": 1,
      "note": 42,
      "start": 41.8017,
      "duration": 0.1413,
      "velocity": 116,
      "chip": "ym2612"
    },
    {
      "channel": 1,
      "note": 42,
      "start": 41.9436,
      "duration": 0.0378,
      "velocity": 116,
      "chip": "ym2612"
    },
    {
      "channel": 1,
      "note": 52,
      "start": 41.982,
      "duration": 0.0615,
      "velocity": 116,
      "chip": "ym2612"
    },
    {
      "channel": 1,
      "note": 54,
      "start": 42.044,
      "duration": 0.0999,
      "velocity": 116,
      "chip": "ym2612"
    },
    {
      "channel": 1,
      "note": 52,
      "start": 42.1444,
      "duration": 0.0228,
      "velocity": 116,
      "chip": "ym2612"
    },
    {
      "channel": 2,
      "note": 75,
      "start": 42.1452,
      "duration": 0.1708,
      "velocity": 103,
      "chip": "ym2612"
    },
    {
      "channel": 3,
      "note": 69,
      "start": 42.1459,
      "duration": 0.1708,
      "velocity": 103,
      "chip": "ym2612"
    },
    {
      "channel": 1,
      "note": 54,
      "start": 42.1678,
      "duration": 0.0093,
      "velocity": 116,
      "chip": "ym2612"
    },
    {
      "channel": 1,
      "note": 42,
      "start": 42.1864,
      "duration": 0.0468,
      "velocity": 116,
      "chip": "ym2612"
    },
    {
      "channel": 1,
      "note": 42,
      "start": 42.2337,
      "duration": 0.0418,
      "velocity": 116,
      "chip": "ym2612"
    },
    {
      "channel": 1,
      "note": 52,
      "start": 42.2761,
      "duration": 0.0197,
      "velocity": 116,
      "chip": "ym2612"
    },
    {
      "channel": 1,
      "note": 54,
      "start": 42.2963,
      "duration": 0.0095,
      "velocity": 116,
      "chip": "ym2612"
    },
    {
      "channel": 1,
      "note": 42,
      "start": 42.3159,
      "duration": 0.047,
      "velocity": 116,
      "chip": "ym2612"
    },
    {
      "channel": 2,
      "note": 74,
      "start": 42.3166,
      "duration": 0.1799,
      "velocity": 66,
      "chip": "ym2612"
    },
    {
      "channel": 3,
      "note": 69,
      "start": 42.3173,
      "duration": 0.1801,
      "velocity": 103,
      "chip": "ym2612"
    },
    {
      "channel": 1,
      "note": 42,
      "start": 42.3633,
      "duration": 0.0417,
      "velocity": 116,
      "chip": "ym2612"
    },
    {
      "channel": 1,
      "note": 52,
      "start": 42.4056,
      "duration": 0.0205,
      "velocity": 116,
      "chip": "ym2612"
    },
    {
      "channel": 1,
      "note": 54,
      "start": 42.4266,
      "duration": 0.0102,
      "velocity": 116,
      "chip": "ym2612"
    },
    {
      "channel": 1,
      "note": 42,
      "start": 42.4467,
      "duration": 0.0462,
      "velocity": 116,
      "chip": "ym2612"
    },
    {
      "channel": 1,
      "note": 37,
      "start": 42.4935,
      "duration": 0.1213,
      "velocity": 116,
      "chip": "ym2612"
    },
    {
      "channel": 0,
      "note": 71,
      "start": 42.6147,
      "duration": 0.2163,
      "velocity": 89,
      "chip": "ym2612"
    },
    {
      "channel": 2,
      "note": 95,
      "start": 42.6158,
      "duration": 0.1487,
      "velocity": 66,
      "chip": "ym2612"
    },
    {
      "channel": 0,
      "note": 71,
      "start": 42.8317,
      "duration": 0.0393,
      "velocity": 89,
      "chip": "ym2612"
    },
    {
      "channel": 2,
      "note": 101,
      "start": 42.8325,
      "duration": 0.032,
      "velocity": 66,
      "chip": "ym2612"
    },
    {
      "channel": 4,
      "note": 71,
      "start": 42.8443,
      "duration": 0.0388,
      "velocity": 89,
      "chip": "ym2612"
    },
    {
      "channel": 0,
      "note": 69,
      "start": 42.8716,
      "duration": 0.142,
      "velocity": 89,
      "chip": "ym2612"
    },
    {
      "channel": 4,
      "note": 71,
      "start": 42.8836,
      "duration": 0.145,
      "velocity": 89,
      "chip": "ym2612"
    },
    {
      "channel": 0,
      "note": 69,
      "start": 43.0142,
      "duration": 0.142,
      "velocity": 89,
      "chip": "ym2612"
    },
    {
      "channel": 1,
      "note": 37,
      "start": 43.0149,
      "duration": 0.142,
      "velocity": 116,
      "chip": "ym2612"
    },
    {
      "channel": 2,
      "note": 101,
      "start": 43.0157,
      "duration": 0.142,
      "velocity": 66,
      "chip": "ym2612"
    },
    {
      "channel": 4,
      "note": 69,
      "start": 43.0293,
      "duration": 0.142,
      "velocity": 89,
      "chip": "ym2612"
    },
    {
      "channel": 0,
      "note": 68,
      "start": 43.1568,
      "duration": 0.1246,
      "velocity": 89,
      "chip": "ym2612"
    },
    {
      "channel": 1,
      "note": 37,
      "start": 43.1576,
      "duration": 0.0905,
      "velocity": 116,
      "chip": "ym2612"
    },
    {
      "channel": 2,
      "note": 98,
      "start": 43.1583,
      "duration": 0.0901,
      "velocity": 66,
      "chip": "ym2612"
    },
    {
      "channel": 4,
      "note": 69,
      "start": 43.172,
      "duration": 0.1242,
      "velocity": 89,
      "chip": "ym2612"
    },
    {
      "channel": 0,
      "note": 68,
      "start": 43.282,
      "duration": 0.0356,
      "velocity": 89,
      "chip": "ym2612"
    },
    {
      "channel": 4,
      "note": 68,
      "start": 43.2967,
      "duration": 0.0689,
      "velocity": 89,
      "chip": "ym2612"
    },
    {
      "channel": 0,
      "note": 66,
      "start": 43.3182,
      "duration": 0.1971,
      "velocity": 89,
      "chip": "ym2612"
    },
    {
      "channel": 2,
      "note": 95,
      "start": 43.319,
      "duration": 0.1295,
      "velocity": 66,
      "chip": "ym2612"
    },
    {
      "channel": 4,
      "note": 68,
      "start": 43.3662,
      "duration": 0.1631,
      "velocity": 89,
      "chip": "ym2612"
    },
    {
      "channel": 0,
      "note": 65,
      "start": 43.5158,
      "duration": 0.3578,
      "velocity": 89,
      "chip": "ym2612"
    },
    {
      "channel": 1,
      "note": 37,
      "start": 43.5166,
      "duration": 0.1404,
      "velocity": 116,
      "chip": "ym2612"
    },
    {
      "channel": 4,
      "note": 66,
      "start": 43.5298,
      "duration": 0.1944,
      "velocity": 89,
      "chip": "ym2612"
    },
    {
      "channel": 2,
      "note": 92,
      "start": 43.658,
      "duration": 0.1325,
      "velocity": 66,
      "chip": "ym2612"
    },
    {
      "channel": 4,
      "note": 65,
      "start": 43.7248,
      "duration": 0.1996,
      "velocity": 89,
      "chip": "ym2612"
    },
    {
      "channel": 0,
      "note": 66,
      "start": 43.8742,
      "duration": 0.0221,
      "velocity": 89,
      "chip": "ym2612"
    },
    {
      "channel": 0,
      "note": 68,
      "start": 43.908,
      "duration": 0.0751,
      "velocity": 89,
      "chip": "ym2612"
    },
    {
      "channel": 2,
      "note": 89,
      "start": 43.9088,
      "duration": 0.0747,
      "velocity": 66,
      "chip": "ym2612"
    },
    {
      "channel": 4,
      "note": 66,
      "start": 43.925,
      "duration": 0.126,
      "velocity": 89,
      "chip": "ym2612"
    },
    {
      "channel": 1,
      "note": 37,
      "start": 44.0507,
      "duration": 0.1421,
      "velocity": 116,
      "chip": "ym2612"
    },
    {
      "channel": 4,
      "note": 68,
      "start": 44.0618,
      "duration": 0.1317,
      "velocity": 89,
      "chip": "ym2612"
    },
    {
      "channel": 1,
      "note": 37,
      "start": 44.1933,
      "duration": 0.1076,
      "velocity": 116,
      "chip": "ym2612"
    },
    {
      "channel": 2,
      "note": 92,
      "start": 44.3649,
      "duration": 0.0867,
      "velocity": 66,
      "chip": "ym2612"
    },
    {
      "channel": 2,
      "note": 93,
      "start": 44.4522,
      "duration": 0.1006,
      "velocity": 66,
      "chip": "ym2612"
    },
    {
      "channel": 1,
      "note": 37,
      "start": 44.5527,
      "duration": 0.1412,
      "velocity": 116,
      "chip": "ym2612"
    },
    {
      "channel": 2,
      "note": 92,
      "start": 44.5535,
      "duration": 0.0734,
      "velocity": 66,
      "chip": "ym2612"
    },
    {
      "channel": 0,
      "note": 77,
      "start": 44.6938,
      "duration": 0.1494,
      "velocity": 89,
      "chip": "ym2612"
    },
    {
      "channel": 0,
      "note": 78,
      "start": 44.9108,
      "duration": 0.0212,
      "velocity": 89,
      "chip": "ym2612"
    },
    {
      "channel": 4,
      "note": 77,
      "start": 44.9218,
      "duration": 0.0251,
      "velocity": 89,
      "chip": "ym2612"
    },
    {
      "channel": 0,
      "note": 80,
      "start": 44.9459,
      "duration": 0.0584,
      "velocity": 89,
      "chip": "ym2612"
    },
    {
      "channel": 2,
      "note": 89,
      "start": 44.9467,
      "duration": 0.058,
      "velocity": 66,
      "chip": "ym2612"
    },
    {
      "channel": 4,
      "note": 78,
      "start": 44.9587,
      "duration": 0.1307,
      "velocity": 89,
      "chip": "ym2612"
    },
    {
      "channel": 0,
      "note": 81,
      "start": 45.0885,
      "duration": 0.0586,
      "velocity": 89,
      "chip": "ym2612"
    },
    {
      "channel": 1,
      "note": 37,
      "start": 45.0892,
      "duration": 0.1255,
      "velocity": 116,
      "chip": "ym2612"
    },
    {
      "channel": 4,
      "note": 80,
      "start": 45.1013,
      "duration": 0.1142,
      "velocity": 89,
      "chip": "ym2612"
    },
    {
      "channel": 0,
      "note": 80,
      "start": 45.2146,
      "duration": 0.0743,
      "velocity": 89,
      "chip": "ym2612"
    },
    {
      "channel": 1,
      "note": 37,
      "start": 45.2153,
      "duration": 0.107,
      "velocity": 116,
      "chip": "ym2612"
    },
    {
      "channel": 4,
      "note": 81,
      "start": 45.2302,
      "duration": 0.1273,
      "velocity": 89,
      "chip": "ym2612"
    },
    {
      "channel": 0,
      "note": 78,
      "start": 45.3564,
      "duration": 0.0266,
      "velocity": 89,
      "chip": "ym2612"
    },
    {
      "channel": 2,
      "note": 86,
      "start": 45.3572,
      "duration": 0.0262,
      "velocity": 66,
      "chip": "ym2612"
    },
    {
      "channel": 4,
      "note": 80,
      "start": 45.3692,
      "duration": 0.0252,
      "velocity": 89,
      "chip": "ym2612"
    },
    {
      "channel": 0,
      "note": 80,
      "start": 45.394,
      "duration": 0.1122,
      "velocity": 89,
      "chip": "ym2612"
    },
    {
      "channel": 4,
      "note": 78,
      "start": 45.4406,
      "duration": 0.1514,
      "velocity": 89,
      "chip": "ym2612"
    },
    {
      "channel": 0,
      "note": 83,
      "start": 45.5905,
      "duration": 0.0575,
      "velocity": 89,
      "chip": "ym2612"
    },
    {
      "channel": 1,
      "note": 37,
      "start": 45.5912,
      "duration": 0.1407,
      "velocity": 116,
      "chip": "ym2612"
    },
    {
      "channel": 4,
      "note": 80,
      "start": 45.6037,
      "duration": 0.1294,
      "velocity": 89,
      "chip": "ym2612"
    },
    {
      "channel": 0,
      "note": 81,
      "start": 45.7318,
      "duration": 0.1328,
      "velocity": 89,
      "chip": "ym2612"
    },
    {
      "channel": 2,
      "note": 85,
      "start": 45.7329,
      "duration": 0.1321,
      "velocity": 66,
      "chip": "ym2612"
    },
    {
      "channel": 4,
      "note": 83,
      "start": 45.7993,
      "duration": 0.1332,
      "velocity": 89,
      "chip": "ym2612"
    },
    {
      "channel": 0,
      "note": 80,
      "start": 45.9321,
      "duration": 0.0239,
      "velocity": 89,
      "chip": "ym2612"
    },
    {
      "channel": 4,
      "note": 81,
      "start": 45.9459,
      "duration": 0.0217,
      "velocity": 89,
      "chip": "ym2612"
    },
    {
      "channel": 0,
      "note": 78,
      "start": 45.9672,
      "duration": 0.0752,
      "velocity": 89,
      "chip": "ym2612"
    },
    {
      "channel": 4,
      "note": 80,
      "start": 45.9785,
      "duration": 0.133,
      "velocity": 89,
      "chip": "ym2612"
    },
    {
      "channel": 0,
      "note": 77,
      "start": 46.1098,
      "duration": 0.0585,
      "velocity": 89,
      "chip": "ym2612"
    },
    {
      "channel": 1,
      "note": 37,
      "start": 46.1105,
      "duration": 0.1421,
      "velocity": 116,
      "chip": "ym2612"
    },
    {
      "channel": 2,
      "note": 85,
      "start": 46.1113,
      "duration": 0.0576,
      "velocity": 66,
      "chip": "ym2612"
    },
    {
      "channel": 4,
      "note": 78,
      "start": 46.1241,
      "duration": 0.1293,
      "velocity": 89,
      "chip": "ym2612"
    },
    {
      "channel": 0,
      "note": 74,
      "start": 46.2525,
      "duration": 0.0576,
      "velocity": 89,
      "chip": "ym2612"
    },
    {
      "channel": 1,
      "note": 37,
      "start": 46.2532,
      "duration": 0.0903,
      "velocity": 116,
      "chip": "ym2612"
    },
    {
      "channel": 4,
      "note": 77,
      "start": 46.2652,
      "duration": 0.1294,
      "velocity": 89,
      "chip": "ym2612"
    },
    {
      "channel": 0,
      "note": 73,
      "start": 46.3943,
      "duration": 0.0214,
      "velocity": 89,
      "chip": "ym2612"
    },
    {
      "channel": 4,
      "note": 74,
      "start": 46.4055,
      "duration": 0.0216,
      "velocity": 89,
      "chip": "ym2612"
    },
    {
      "channel": 0,
      "note": 71,
      "start": 46.4268,
      "duration": 0.0254,
      "velocity": 89,
      "chip": "ym2612"
    },
    {
      "channel": 4,
      "note": 73,
      "start": 46.4411,
      "duration": 0.0267,
      "velocity": 89,
      "chip": "ym2612"
    },
    {
      "channel": 0,
      "note": 85,
      "start": 46.4635,
      "duration": 0.0743,
      "velocity": 89,
      "chip": "ym2612"
    },
    {
      "channel": 1,
      "note": 37,
      "start": 46.4643,
      "duration": 0.1402,
      "velocity": 116,
      "chip": "ym2612"
    },
    {
      "channel": 3,
      "note": 81,
      "start": 46.4676,
      "duration": 0.0708,
      "velocity": 89,
      "chip": "ym2612"
    },
    {
      "channel": 4,
      "note": 71,
      "start": 46.4805,
      "duration": 0.1251,
      "velocity": 89,
      "chip": "ym2612"
    },
    {
      "channel": 2,
      "note": 85,
      "start": 46.6054,
      "duration": 0.2167,
      "velocity": 66,
      "chip": "ym2612"
    },
    {
      "channel": 4,
      "note": 85,
      "start": 46.6722,
      "duration": 0.1515,
      "velocity": 89,
      "chip": "ym2612"
    },
    {
      "channel": 0,
      "note": 83,
      "start": 46.822,
      "duration": 0.0246,
      "velocity": 89,
      "chip": "ym2612"
    },
    {
      "channel": 2,
      "note": 86,
      "start": 46.8228,
      "duration": 0.0375,
      "velocity": 66,
      "chip": "ym2612"
    },
    {
      "channel": 3,
      "note": 80,
      "start": 46.8236,
      "duration": 0.0236,
      "velocity": 89,
      "chip": "ym2612"
    },
    {
      "channel": 2,
      "note": 89,
      "start": 46.8608,
      "duration": 0.0586,
      "velocity": 66,
      "chip": "ym2612"
    },
    {
      "channel": 4,
      "note": 83,
      "start": 46.872,
      "duration": 0.1158,
      "velocity": 89,
      "chip": "ym2612"
    },
    {
      "channel": 1,
      "note": 37,
      "start": 46.9868,
      "duration": 0.1422,
      "velocity": 116,
      "chip": "ym2612"
    },
    {
      "channel": 2,
      "note": 89,
      "start": 46.9876,
      "duration": 0.014,
      "velocity": 66,
      "chip": "ym2612"
    },
    {
      "channel": 2,
      "note": 90,
      "start": 47.0021,
      "duration": 0.0602,
      "velocity": 66,
      "chip": "ym2612"
    },
    {
      "channel": 2,
      "note": 89,
      "start": 47.063,
      "duration": 0.2078,
      "velocity": 66,
      "chip": "ym2612"
    },
    {
      "channel": 1,
      "note": 37,
      "start": 47.1296,
      "duration": 0.1076,
      "velocity": 116,
      "chip": "ym2612"
    },
    {
      "channel": 2,
      "note": 86,
      "start": 47.2714,
      "duration": 0.0328,
      "velocity": 66,
      "chip": "ym2612"
    },
    {
      "channel": 2,
      "note": 85,
      "start": 47.3048,
      "duration": 0.1166,
      "velocity": 66,
      "chip": "ym2612"
    },
    {
      "channel": 0,
      "note": 81,
      "start": 47.5056,
      "duration": 0.0576,
      "velocity": 89,
      "chip": "ym2612"
    },
    {
      "channel": 1,
      "note": 37,
      "start": 47.5063,
      "duration": 0.1236,
      "velocity": 116,
      "chip": "ym2612"
    },
    {
      "channel": 3,
      "note": 78,
      "start": 47.5074,
      "duration": 0.0564,
      "velocity": 89,
      "chip": "ym2612"
    },
    {
      "channel": 2,
      "note": 85,
      "start": 47.6308,
      "duration": 0.2167,
      "velocity": 66,
      "chip": "ym2612"
    },
    {
      "channel": 4,
      "note": 81,
      "start": 47.7143,
      "duration": 0.1347,
      "velocity": 89,
      "chip": "ym2612"
    },
    {
      "channel": 0,
      "note": 80,
      "start": 47.8473,
      "duration": 0.0273,
      "velocity": 89,
      "chip": "ym2612"
    },
    {
      "channel": 2,
      "note": 83,
      "start": 47.8482,
      "duration": 0.0385,
      "velocity": 66,
      "chip": "ym2612"
    },
    {
      "channel": 3,
      "note": 77,
      "start": 47.8489,
      "duration": 0.0264,
      "velocity": 89,
      "chip": "ym2612"
    },
    {
      "channel": 2,
      "note": 81,
      "start": 47.8872,
      "duration": 0.1428,
      "velocity": 66,
      "chip": "ym2612"
    },
    {
      "channel": 4,
      "note": 80,
      "start": 47.8983,
      "duration": 0.1326,
      "velocity": 89,
      "chip": "ym2612"
    },
    {
      "channel": 1,
      "note": 37,
      "start": 48.0299,
      "duration": 0.1422,
      "velocity": 116,
      "chip": "ym2612"
    },
    {
      "channel": 2,
      "note": 80,
      "start": 48.0306,
      "duration": 0.0111,
      "velocity": 66,
      "chip": "ym2612"
    },
    {
      "channel": 2,
      "note": 81,
      "start": 48.0424,
      "duration": 0.0464,
      "velocity": 66,
      "chip": "ym2612"
    },
    {
      "channel": 2,
      "note": 80,
      "start": 48.0894,
      "duration": 0.2078,
      "velocity": 66,
      "chip": "ym2612"
    },
    {
      "channel": 1,
      "note": 37,
      "start": 48.1727,
      "duration": 0.0909,
      "velocity": 116,
      "chip": "ym2612"
    },
    {
      "channel": 2,
      "note": 77,
      "start": 48.2978,
      "duration": 0.0328,
      "velocity": 66,
      "chip": "ym2612"
    },
    {
      "channel": 2,
      "note": 73,
      "start": 48.3312,
      "duration": 0.2017,
      "velocity": 66,
      "chip": "ym2612"
    },
    {
      "channel": 0,
      "note": 85,
      "start": 48.532,
      "duration": 0.0575,
      "velocity": 89,
      "chip": "ym2612"
    },
    {
      "channel": 1,
      "note": 37,
      "start": 48.5328,
      "duration": 0.1401,
      "velocity": 116,
      "chip": "ym2612"
    },
    {
      "channel": 3,
      "note": 81,
      "start": 48.5339,
      "duration": 0.0562,
      "velocity": 89,
      "chip": "ym2612"
    },
    {
      "channel": 2,
      "note": 85,
      "start": 48.6737,
      "duration": 0.2167,
      "velocity": 66,
      "chip": "ym2612"
    },
    {
      "channel": 4,
      "note": 85,
      "start": 48.7405,
      "duration": 0.1515,
      "velocity": 89,
      "chip": "ym2612"
    },
    {
      "channel": 0,
      "note": 83,
      "start": 48.8903,
      "duration": 0.0246,
      "velocity": 89,
      "chip": "ym2612"
    },
    {
      "channel": 2,
      "note": 86,
      "start": 48.8911,
      "duration": 0.0346,
      "velocity": 66,
      "chip": "ym2612"
    },
    {
      "channel": 3,
      "note": 80,
      "start": 48.8919,
      "duration": 0.0236,
      "velocity": 89,
      "chip": "ym2612"
    },
    {
      "channel": 2,
      "note": 89,
      "start": 48.9264,
      "duration": 0.0752,
      "velocity": 66,
      "chip": "ym2612"
    },
    {
      "channel": 4,
      "note": 83,
      "start": 48.9399,
      "duration": 0.13,
      "velocity": 89,
      "chip": "ym2612"
    },
    {
      "channel": 1,
      "note": 37,
      "start": 49.069,
      "duration": 0.1422,
      "velocity": 116,
      "chip": "ym2612"
    },
    {
      "channel": 2,
      "note": 89,
      "start": 49.0697,
      "duration": 0.0111,
      "velocity": 66,
      "chip": "ym2612"
    },
    {
      "channel": 2,
      "note": 90,
      "start": 49.0814,
      "duration": 0.0631,
      "velocity": 66,
      "chip": "ym2612"
    },
    {
      "channel": 2,
      "note": 89,
      "start": 49.1451,
      "duration": 0.208,
      "velocity": 66,
      "chip": "ym2612"
    },
    {
      "channel": 1,
      "note": 37,
      "start": 49.2117,
      "duration": 0.1077,
      "velocity": 116,
      "chip": "ym2612"
    },
    {
      "channel": 2,
      "note": 86,
      "start": 49.3537,
      "duration": 0.0326,
      "velocity": 66,
      "chip": "ym2612"
    },
    {
      "channel": 2,
      "note": 85,
      "start": 49.3869,
      "duration": 0.1166,
      "velocity": 66,
      "chip": "ym2612"
    },
    {
      "channel": 0,
      "note": 89,
      "start": 49.571,
      "duration": 0.0742,
      "velocity": 89,
      "chip": "ym2612"
    },
    {
      "channel": 1,
      "note": 37,
      "start": 49.5717,
      "duration": 0.1402,
      "velocity": 116,
      "chip": "ym2612"
    },
    {
      "channel": 2,
      "note": 90,
      "start": 49.5725,
      "duration": 0.0163,
      "velocity": 66,
      "chip": "ym2612"
    },
    {
      "channel": 3,
      "note": 86,
      "start": 49.5733,
      "duration": 0.0733,
      "velocity": 89,
      "chip": "ym2612"
    },
    {
      "channel": 2,
      "note": 92,
      "start": 49.5894,
      "duration": 0.0564,
      "velocity": 66,
      "chip": "ym2612"
    },
    {
      "channel": 2,
      "note": 90,
      "start": 49.6464,
      "duration": 0.2832,
      "velocity": 66,
      "chip": "ym2612"
    },
    {
      "channel": 4,
      "note": 89,
      "start": 49.7796,
      "duration": 0.1515,
      "velocity": 89,
      "chip": "ym2612"
    },
    {
      "channel": 0,
      "note": 86,
      "start": 49.9294,
      "duration": 0.0246,
      "velocity": 89,
      "chip": "ym2612"
    },
    {
      "channel": 2,
      "note": 89,
      "start": 49.9302,
      "duration": 0.0375,
      "velocity": 66,
      "chip": "ym2612"
    },
    {
      "channel": 3,
      "note": 83,
      "start": 49.931,
      "duration": 0.0236,
      "velocity": 89,
      "chip": "ym2612"
    },
    {
      "channel": 2,
      "note": 90,
      "start": 49.9683,
      "duration": 0.1433,
      "velocity": 66,
      "chip": "ym2612"
    },
    {
      "channel": 4,
      "note": 86,
      "start": 49.9792,
      "duration": 0.1339,
      "velocity": 89,
      "chip": "ym2612"
    },
    {
      "channel": 0,
      "note": 92,
      "start": 50.1107,
      "duration": 0.0576,
      "velocity": 89,
      "chip": "ym2612"
    },
    {
      "channel": 1,
      "note": 37,
      "start": 50.1114,
      "duration": 0.1245,
      "velocity": 116,
      "chip": "ym2612"
    },
    {
      "channel": 2,
      "note": 92,
      "start": 50.1122,
      "duration": 0.1246,
      "velocity": 66,
      "chip": "ym2612"
    },
    {
      "channel": 3,
      "note": 89,
      "start": 50.1129,
      "duration": 0.0563,
      "velocity": 89,
      "chip": "ym2612"
    },
    {
      "channel": 0,
      "note": 95,
      "start": 50.2359,
      "duration": 0.0321,
      "velocity": 89,
      "chip": "ym2612"
    },
    {
      "channel": 1,
      "note": 37,
      "start": 50.2366,
      "duration": 0.0377,
      "velocity": 116,
      "chip": "ym2612"
    },
    {
      "channel": 2,
      "note": 95,
      "start": 50.2373,
      "duration": 0.0437,
      "velocity": 66,
      "chip": "ym2612"
    },
    {
      "channel": 3,
      "note": 92,
      "start": 50.2381,
      "duration": 0.0307,
      "velocity": 89,
      "chip": "ym2612"
    },
    {
      "channel": 4,
      "note": 92,
      "start": 50.2548,
      "duration": 0.0266,
      "velocity": 89,
      "chip": "ym2612"
    },
    {
      "channel": 4,
      "note": 95,
      "start": 50.292,
      "duration": 0.0239,
      "velocity": 89,
      "chip": "ym2612"
    },
    {
      "channel": 3,
      "note": 92,
      "start": 50.3158,
      "duration": 0.0214,
      "velocity": 89,
      "chip": "ym2612"
    },
    {
      "channel": 0,
      "note": 65,
      "start": 50.3544,
      "duration": 0.0268,
      "velocity": 100,
      "chip": "ym2612"
    },
    {
      "channel": 1,
      "note": 41,
      "start": 50.3578,
      "duration": 0.1168,
      "velocity": 96,
      "chip": "ym2612"
    },
    {
      "channel": 3,
      "note": 53,
      "start": 50.3614,
      "duration": 0.0209,
      "velocity": 100,
      "chip": "ym2612"
    },
    {
      "channel": 0,
      "note": 67,
      "start": 50.3817,
      "duration": 0.0921,
      "velocity": 100,
      "chip": "ym2612"
    },
    {
      "channel": 3,
      "note": 55,
      "start": 50.3828,
      "duration": 0.0925,
      "velocity": 100,
      "chip": "ym2612"
    },
    {
      "channel": 0,
      "note": 69,
      "start": 50.4744,
      "duration": 0.0994,
      "velocity": 100,
      "chip": "ym2612"
    },
    {
      "channel": 1,
      "note": 41,
      "start": 50.4751,
      "duration": 0.2164,
      "velocity": 96,
      "chip": "ym2612"
    },
    {
      "channel": 3,
      "note": 57,
      "start": 50.4759,
      "duration": 0.099,
      "velocity": 100,
      "chip": "ym2612"
    },
    {
      "channel": 4,
      "note": 65,
      "start": 50.5421,
      "duration": 0.0993,
      "velocity": 100,
      "chip": "ym2612"
    },
    {
      "channel": 0,
      "note": 72,
      "start": 50.5744,
      "duration": 0.1164,
      "velocity": 100,
      "chip": "ym2612"
    },
    {
      "channel": 3,
      "note": 60,
      "start": 50.5755,
      "duration": 0.1169,
      "velocity": 100,
      "chip": "ym2612"
    },
    {
      "channel": 4,
      "note": 67,
      "start": 50.642,
      "duration": 0.0637,
      "velocity": 100,
      "chip": "ym2612"
    },
    {
      "channel": 0,
      "note": 65,
      "start": 50.6914,
      "duration": 0.0199,
      "velocity": 100,
      "chip": "ym2612"
    },
    {
      "channel": 1,
      "note": 41,
      "start": 50.6921,
      "duration": 0.01,
      "velocity": 96,
      "chip": "ym2612"
    },
    {
      "channel": 3,
      "note": 53,
      "start": 50.693,
      "duration": 0.0198,
      "velocity": 100,
      "chip": "ym2612"
    },
    {
      "channel": 4,
      "note": 69,
      "start": 50.7063,
      "duration": 0.0197,
      "velocity": 100,
      "chip": "ym2612"
    },
    {
      "channel": 0,
      "note": 67,
      "start": 50.7118,
      "duration": 0.0197,
      "velocity": 100,
      "chip": "ym2612"
    },
    {
      "channel": 1,
      "note": 53,
      "start": 50.7125,
      "duration": 0.0097,
      "velocity": 96,
      "chip": "ym2612"
    },
    {
      "channel": 3,
      "note": 55,
      "start": 50.7134,
      "duration": 0.0197,
      "velocity": 100,
      "chip": "ym2612"
    },
    {
      "channel": 4,
      "note": 72,
      "start": 50.7265,
      "duration": 0.0322,
      "velocity": 100,
      "chip": "ym2612"
    },
    {
      "channel": 0,
      "note": 69,
      "start": 50.7321,
      "duration": 0.0592,
      "velocity": 100,
      "chip": "ym2612"
    },
    {
      "channel": 1,
      "note": 41,
      "start": 50.7328,
      "duration": 0.0098,
      "velocity": 96,
      "chip": "ym2612"
    },
    {
      "channel": 3,
      "note": 57,
      "start": 50.7336,
      "duration": 0.0592,
      "velocity": 100,
      "chip": "ym2612"
    },
    {
      "channel": 4,
      "note": 65,
      "start": 50.7594,
      "duration": 0.0993,
      "velocity": 100,
      "chip": "ym2612"
    },
    {
      "channel": 0,
      "note": 72,
      "start": 50.7919,
      "duration": 0.0998,
      "velocity": 100,
      "chip": "ym2612"
    },
    {
      "channel": 1,
      "note": 53,
      "start": 50.7926,
      "duration": 0.049,
      "velocity": 96,
      "chip": "ym2612"
    },
    {
      "channel": 3,
      "note": 60,
      "start": 50.7934,
      "duration": 0.0998,
      "velocity": 100,
      "chip": "ym2612"
    },
    {
      "channel": 4,
      "note": 67,
      "start": 50.8592,
      "duration": 0.0474,
      "velocity": 100,
      "chip": "ym2612"
    },
    {
      "channel": 0,
      "note": 65,
      "start": 50.8922,
      "duration": 0.0242,
      "velocity": 100,
      "chip": "ym2612"
    },
    {
      "channel": 1,
      "note": 41,
      "start": 50.8929,
      "duration": 0.1409,
      "velocity": 96,
      "chip": "ym2612"
    },
    {
      "channel": 3,
      "note": 53,
      "start": 50.8938,
      "duration": 0.0237,
      "velocity": 100,
      "chip": "ym2612"
    },
    {
      "channel": 4,
      "note": 69,
      "start": 50.9073,
      "duration": 0.0933,
      "velocity": 100,
      "chip": "ym2612"
    },
    {
      "channel": 0,
      "note": 67,
      "start": 50.9169,
      "duration": 0.1161,
      "velocity": 100,
      "chip": "ym2612"
    },
    {
      "channel": 3,
      "note": 55,
      "start": 50.918,
      "duration": 0.1165,
      "velocity": 100,
      "chip": "ym2612"
    },
    {
      "channel": 4,
      "note": 72,
      "start": 51.0012,
      "duration": 0.0995,
      "velocity": 100,
      "chip": "ym2612"
    },
    {
      "channel": 0,
      "note": 69,
      "start": 51.0336,
      "duration": 0.0994,
      "velocity": 100,
      "chip": "ym2612"
    },
    {
      "channel": 1,
      "note": 41,
      "start": 51.0343,
      "duration": 0.1998,
      "velocity": 96,
      "chip": "ym2612"
    },
    {
      "channel": 3,
      "note": 57,
      "start": 51.0351,
      "duration": 0.099,
      "velocity": 100,
      "chip": "ym2612"
    },
    {
      "channel": 4,
      "note": 65,
      "start": 51.1013,
      "duration": 0.0993,
      "velocity": 100,
      "chip": "ym2612"
    },
    {
      "channel": 0,
      "note": 72,
      "start": 51.1336,
      "duration": 0.0998,
      "velocity": 100,
      "chip": "ym2612"
    },
    {
      "channel": 3,
      "note": 60,
      "start": 51.1347,
      "duration": 0.1002,
      "velocity": 100,
      "chip": "ym2612"
    },
    {
      "channel": 4,
      "note": 67,
      "start": 51.2012,
      "duration": 0.047,
      "velocity": 100,
      "chip": "ym2612"
    },
    {
      "channel": 0,
      "note": 65,
      "start": 51.2339,
      "duration": 0.0199,
      "velocity": 100,
      "chip": "ym2612"
    },
    {
      "channel": 1,
      "note": 41,
      "start": 51.2346,
      "duration": 0.0099,
      "velocity": 96,
      "chip": "ym2612"
    },
    {
      "channel": 3,
      "note": 53,
      "start": 51.2355,
      "duration": 0.0198,
      "velocity": 100,
      "chip": "ym2612"
    },
    {
      "channel": 4,
      "note": 69,
      "start": 51.2488,
      "duration": 0.0197,
      "velocity": 100,
      "chip": "ym2612"
    },
    {
      "channel": 0,
      "note": 67,
      "start": 51.2544,
      "duration": 0.0197,
      "velocity": 100,
      "chip": "ym2612"
    },
    {
      "channel": 1,
      "note": 53,
      "start": 51.2551,
      "duration": 0.0097,
      "velocity": 96,
      "chip": "ym2612"
    },
    {
      "channel": 3,
      "note": 55,
      "start": 51.2559,
      "duration": 0.0197,
      "velocity": 100,
      "chip": "ym2612"
    },
    {
      "channel": 4,
      "note": 72,
      "start": 51.269,
      "duration": 0.0489,
      "velocity": 100,
      "chip": "ym2612"
    },
    {
      "channel": 0,
      "note": 69,
      "start": 51.2746,
      "duration": 0.0759,
      "velocity": 100,
      "chip": "ym2612"
    },
    {
      "channel": 1,
      "note": 41,
      "start": 51.2753,
      "duration": 0.0254,
      "velocity": 96,
      "chip": "ym2612"
    },
    {
      "channel": 3,
      "note": 57,
      "start": 51.2761,
      "duration": 0.0758,
      "velocity": 100,
      "chip": "ym2612"
    },
    {
      "channel": 4,
      "note": 65,
      "start": 51.3186,
      "duration": 0.0993,
      "velocity": 100,
      "chip": "ym2612"
    },
    {
      "channel": 0,
      "note": 72,
      "start": 51.3511,
      "duration": 0.0998,
      "velocity": 100,
      "chip": "ym2612"
    },
    {
      "channel": 1,
      "note": 53,
      "start": 51.3518,
      "duration": 0.049,
      "velocity": 96,
      "chip": "ym2612"
    },
    {
      "channel": 3,
      "note": 60,
      "start": 51.3526,
      "duration": 0.1001,
      "velocity": 100,
      "chip": "ym2612"
    },
    {
      "channel": 4,
      "note": 67,
      "start": 51.4184,
      "duration": 0.0477,
      "velocity": 100,
      "chip": "ym2612"
    },
    {
      "channel": 0,
      "note": 67,
      "start": 51.4515,
      "duration": 0.0241,
      "velocity": 100,
      "chip": "ym2612"
    },
    {
      "channel": 1,
      "note": 43,
      "start": 51.4522,
      "duration": 0.1241,
      "velocity": 96,
      "chip": "ym2612"
    },
    {
      "channel": 3,
      "note": 55,
      "start": 51.4533,
      "duration": 0.0234,
      "velocity": 100,
      "chip": "ym2612"
    },
    {
      "channel": 4,
      "note": 69,
      "start": 51.4668,
      "duration": 0.0764,
      "velocity": 100,
      "chip": "ym2612"
    },
    {
      "channel": 0,
      "note": 69,
      "start": 51.4762,
      "duration": 0.0994,
      "velocity": 100,
      "chip": "ym2612"
    },
    {
      "channel": 3,
      "note": 57,
      "start": 51.4773,
      "duration": 0.0998,
      "velocity": 100,
      "chip": "ym2612"
    },
    {
      "channel": 4,
      "note": 72,
      "start": 51.5438,
      "duration": 0.0995,
      "velocity": 100,
      "chip": "ym2612"
    },
    {
      "channel": 0,
      "note": 71,
      "start": 51.5762,
      "duration": 0.0994,
      "velocity": 100,
      "chip": "ym2612"
    },
    {
      "channel": 1,
      "note": 43,
      "start": 51.5769,
      "duration": 0.2164,
      "velocity": 96,
      "chip": "ym2612"
    },
    {
      "channel": 3,
      "note": 59,
      "start": 51.5777,
      "duration": 0.099,
      "velocity": 100,
      "chip": "ym2612"
    },
    {
      "channel": 4,
      "note": 67,
      "start": 51.6439,
      "duration": 0.116,
      "velocity": 100,
      "chip": "ym2612"
    },
    {
      "channel": 0,
      "note": 74,
      "start": 51.6762,
      "duration": 0.1164,
      "velocity": 100,
      "chip": "ym2612"
    },
    {
      "channel": 3,
      "note": 62,
      "start": 51.6773,
      "duration": 0.1169,
      "velocity": 100,
      "chip": "ym2612"
    },
    {
      "channel": 4,
      "note": 69,
      "start": 51.7605,
      "duration": 0.047,
      "velocity": 100,
      "chip": "ym2612"
    },
    {
      "channel": 0,
      "note": 67,
      "start": 51.7932,
      "duration": 0.0199,
      "velocity": 100,
      "chip": "ym2612"
    },
    {
      "channel": 1,
      "note": 43,
      "start": 51.7939,
      "duration": 0.01,
      "velocity": 96,
      "chip": "ym2612"
    },
    {
      "channel": 3,
      "note": 55,
      "start": 51.7948,
      "duration": 0.0198,
      "velocity": 100,
      "chip": "ym2612"
    },
    {
      "channel": 4,
      "note": 71,
      "start": 51.8081,
      "duration": 0.0197,
      "velocity": 100,
      "chip": "ym2612"
    },
    {
      "channel": 0,
      "note": 69,
      "start": 51.8136,
      "duration": 0.0197,
      "velocity": 100,
      "chip": "ym2612"
    },
    {
      "channel": 1,
      "note": 55,
      "start": 51.8144,
      "duration": 0.0098,
      "velocity": 96,
      "chip": "ym2612"
    },
    {
      "channel": 3,
      "note": 57,
      "start": 51.8152,
      "duration": 0.0196,
      "velocity": 100,
      "chip": "ym2612"
    },
    {
      "channel": 4,
      "note": 74,
      "start": 51.8283,
      "duration": 0.0322,
      "velocity": 100,
      "chip": "ym2612"
    },
    {
      "channel": 0,
      "note": 71,
      "start": 51.8339,
      "duration": 0.0592,
      "velocity": 100,
      "chip": "ym2612"
    },
    {
      "channel": 1,
      "note": 43,
      "start": 51.8346,
      "duration": 0.0097,
      "velocity": 96,
      "chip": "ym2612"
    },
    {
      "channel": 3,
      "note": 59,
      "start": 51.8354,
      "duration": 0.0591,
      "velocity": 100,
      "chip": "ym2612"
    },
    {
      "channel": 4,
      "note": 67,
      "start": 51.8611,
      "duration": 0.0993,
      "velocity": 100,
      "chip": "ym2612"
    },
    {
      "channel": 0,
      "note": 74,
      "start": 51.8936,
      "duration": 0.0998,
      "velocity": 100,
      "chip": "ym2612"
    },
    {
      "channel": 1,
      "note": 55,
      "start": 51.8943,
      "duration": 0.049,
      "velocity": 96,
      "chip": "ym2612"
    },
    {
      "channel": 3,
      "note": 62,
      "start": 51.8952,
      "duration": 0.0998,
      "velocity": 100,
      "chip": "ym2612"
    },
    {
      "channel": 4,
      "note": 69,
      "start": 51.961,
      "duration": 0.0507,
      "velocity": 100,
      "chip": "ym2612"
    },
    {
      "channel": 0,
      "note": 67,
      "start": 51.9939,
      "duration": 0.0409,
      "velocity": 100,
      "chip": "ym2612"
    },
    {
      "channel": 1,
      "note": 43,
      "start": 51.9946,
      "duration": 0.1409,
      "velocity": 96,
      "chip": "ym2612"
    },
    {
      "channel": 3,
      "note": 55,
      "start": 51.9956,
      "duration": 0.0404,
      "velocity": 100,
      "chip": "ym2612"
    },
    {
      "channel": 4,
      "note": 71,
      "start": 52.0122,
      "duration": 0.0902,
      "velocity": 100,
      "chip": "ym2612"
    },
    {
      "channel": 0,
      "note": 69,
      "start": 52.0354,
      "duration": 0.0994,
      "velocity": 100,
      "chip": "ym2612"
    },
    {
      "channel": 3,
      "note": 57,
      "start": 52.0365,
      "duration": 0.0998,
      "velocity": 100,
      "chip": "ym2612"
    },
    {
      "channel": 4,
      "note": 74,
      "start": 52.1031,
      "duration": 0.0995,
      "velocity": 100,
      "chip": "ym2612"
    },
    {
      "channel": 0,
      "note": 71,
      "start": 52.1354,
      "duration": 0.0994,
      "velocity": 100,
      "chip": "ym2612"
    },
    {
      "channel": 1,
      "note": 43,
      "start": 52.1361,
      "duration": 0.1998,
      "velocity": 96,
      "chip": "ym2612"
    },
    {
      "channel": 3,
      "note": 59,
      "start": 52.137,
      "duration": 0.099,
      "velocity": 100,
      "chip": "ym2612"
    },
    {
      "channel": 4,
      "note": 67,
      "start": 52.2031,
      "duration": 0.0993,
      "velocity": 100,
      "chip": "ym2612"
    },
    {
      "channel": 0,
      "note": 74,
      "start": 52.2354,
      "duration": 0.0998,
      "velocity": 100,
      "chip": "ym2612"
    },
    {
      "channel": 3,
      "note": 62,
      "start": 52.2365,
      "duration": 0.1002,
      "velocity": 100,
      "chip": "ym2612"
    },
    {
      "channel": 4,
      "note": 69,
      "start": 52.3031,
      "duration": 0.047,
      "velocity": 100,
      "chip": "ym2612"
    },
    {
      "channel": 0,
      "note": 67,
      "start": 52.3357,
      "duration": 0.0199,
      "velocity": 100,
      "chip": "ym2612"
    },
    {
      "channel": 1,
      "note": 43,
      "start": 52.3364,
      "duration": 0.0099,
      "velocity": 96,
      "chip": "ym2612"
    },
    {
      "channel": 3,
      "note": 55,
      "start": 52.3373,
      "duration": 0.0198,
      "velocity": 100,
      "chip": "ym2612"
    },
    {
      "channel": 4,
      "note": 71,
      "start": 52.3506,
      "duration": 0.0197,
      "velocity": 100,
      "chip": "ym2612"
    },
    {
      "channel": 0,
      "note": 69,
      "start": 52.3562,
      "duration": 0.0227,
      "velocity": 100,
      "chip": "ym2612"
    },
    {
      "channel": 1,
      "note": 55,
      "start": 52.3569,
      "duration": 0.0098,
      "velocity": 96,
      "chip": "ym2612"
    },
    {
      "channel": 3,
      "note": 57,
      "start": 52.3577,
      "duration": 0.0226,
      "velocity": 100,
      "chip": "ym2612"
    },
    {
      "channel": 4,
      "note": 74,
      "start": 52.3708,
      "duration": 0.0488,
      "velocity": 100,
      "chip": "ym2612"
    },
    {
      "channel": 0,
      "note": 71,
      "start": 52.3794,
      "duration": 0.0728,
      "velocity": 100,
      "chip": "ym2612"
    },
    {
      "channel": 1,
      "note": 43,
      "start": 52.3801,
      "duration": 0.0224,
      "velocity": 96,
      "chip": "ym2612"
    },
    {
      "channel": 3,
      "note": 59,
      "start": 52.381,
      "duration": 0.0728,
      "velocity": 100,
      "chip": "ym2612"
    },
    {
      "channel": 4,
      "note": 67,
      "start": 52.4203,
      "duration": 0.0993,
      "velocity": 100,
      "chip": "ym2612"
    },
    {
      "channel": 0,
      "note": 74,
      "start": 52.4528,
      "duration": 0.0998,
      "velocity": 100,
      "chip": "ym2612"
    },
    {
      "channel": 1,
      "note": 55,
      "start": 52.4535,
      "duration": 0.049,
      "velocity": 96,
      "chip": "ym2612"
    },
    {
      "channel": 3,
      "note": 62,
      "start": 52.4544,
      "duration": 0.0998,
      "velocity": 100,
      "chip": "ym2612"
    },
    {
      "channel": 4,
      "note": 69,
      "start": 52.5202,
      "duration": 0.0452,
      "velocity": 100,
      "chip": "ym2612"
    },
    {
      "channel": 1,
      "note": 45,
      "start": 52.5535,
      "duration": 0.024,
      "velocity": 96,
      "chip": "ym2612"
    },
    {
      "channel": 4,
      "note": 71,
      "start": 52.566,
      "duration": 0.0784,
      "velocity": 100,
      "chip": "ym2612"
    },
    {
      "channel": 1,
      "note": 45,
      "start": 52.5781,
      "duration": 0.0494,
      "velocity": 96,
      "chip": "ym2612"
    },
    {
      "channel": 4,
      "note": 74,
      "start": 52.645,
      "duration": 0.0997,
      "velocity": 100,
      "chip": "ym2612"
    },
    {
      "channel": 1,
      "note": 55,
      "start": 52.6781,
      "duration": 0.1161,
      "velocity": 96,
      "chip": "ym2612"
    },
    {
      "channel": 1,
      "note": 57,
      "start": 52.7947,
      "duration": 0.0494,
      "velocity": 96,
      "chip": "ym2612"
    },
    {
      "channel": 1,
      "note": 50,
      "start": 52.895,
      "duration": 0.0149,
      "velocity": 96,
      "chip": "ym2612"
    },
    {
      "channel": 1,
      "note": 52,
      "start": 52.9105,
      "duration": 0.0074,
      "velocity": 96,
      "chip": "ym2612"
    },
    {
      "channel": 1,
      "note": 45,
      "start": 52.9255,
      "duration": 0.0194,
      "velocity": 96,
      "chip": "ym2612"
    },
    {
      "channel": 1,
      "note": 43,
      "start": 52.9955,
      "duration": 0.0494,
      "velocity": 96,
      "chip": "ym2612"
    },
    {
      "channel": 1,
      "note": 45,
      "start": 53.0958,
      "duration": 0.041,
      "velocity": 96,
      "chip": "ym2612"
    },
    {
      "channel": 1,
      "note": 43,
      "start": 53.1373,
      "duration": 0.0994,
      "velocity": 96,
      "chip": "ym2612"
    },
    {
      "channel": 1,
      "note": 45,
      "start": 53.2373,
      "duration": 0.0494,
      "velocity": 96,
      "chip": "ym2612"
    },
    {
      "channel": 1,
      "note": 45,
      "start": 53.3373,
      "duration": 0.0997,
      "velocity": 96,
      "chip": "ym2612"
    },
    {
      "channel": 1,
      "note": 45,
      "start": 53.4517,
      "duration": 0.0175,
      "velocity": 96,
      "chip": "ym2612"
    },
    {
      "channel": 1,
      "note": 45,
      "start": 53.5547,
      "duration": 0.1,
      "velocity": 96,
      "chip": "ym2612"
    },
    {
      "channel": 1,
      "note": 45,
      "start": 53.6553,
      "duration": 0.1242,
      "velocity": 96,
      "chip": "ym2612"
    },
    {
      "channel": 0,
      "note": 79,
      "start": 53.6798,
      "duration": 0.3163,
      "velocity": 100,
      "chip": "ym2612"
    },
    {
      "channel": 3,
      "note": 76,
      "start": 53.6808,
      "duration": 0.3163,
      "velocity": 100,
      "chip": "ym2612"
    },
    {
      "channel": 1,
      "note": 45,
      "start": 53.78,
      "duration": 0.2168,
      "velocity": 96,
      "chip": "ym2612"
    },
    {
      "channel": 4,
      "note": 79,
      "start": 53.9642,
      "duration": 0.0998,
      "velocity": 100,
      "chip": "ym2612"
    },
    {
      "channel": 0,
      "note": 78,
      "start": 53.9967,
      "duration": 0.0183,
      "velocity": 100,
      "chip": "ym2612"
    },
    {
      "channel": 3,
      "note": 74,
      "start": 53.9978,
      "duration": 0.0176,
      "velocity": 100,
      "chip": "ym2612"
    },
    {
      "channel": 0,
      "note": 76,
      "start": 54.0311,
      "duration": 0.0655,
      "velocity": 100,
      "chip": "ym2612"
    },
    {
      "channel": 3,
      "note": 73,
      "start": 54.032,
      "duration": 0.0651,
      "velocity": 100,
      "chip": "ym2612"
    },
    {
      "channel": 4,
      "note": 78,
      "start": 54.0646,
      "duration": 0.1156,
      "velocity": 100,
      "chip": "ym2612"
    },
    {
      "channel": 0,
      "note": 79,
      "start": 54.2141,
      "duration": 0.0244,
      "velocity": 100,
      "chip": "ym2612"
    },
    {
      "channel": 3,
      "note": 76,
      "start": 54.215,
      "duration": 0.0239,
      "velocity": 100,
      "chip": "ym2612"
    },
    {
      "channel": 4,
      "note": 76,
      "start": 54.2267,
      "duration": 0.0787,
      "velocity": 100,
      "chip": "ym2612"
    },
    {
      "channel": 0,
      "note": 76,
      "start": 54.3391,
      "duration": 0.0994,
      "velocity": 100,
      "chip": "ym2612"
    },
    {
      "channel": 3,
      "note": 73,
      "start": 54.34,
      "duration": 0.0994,
      "velocity": 100,
      "chip": "ym2612"
    },
    {
      "channel": 4,
      "note": 79,
      "start": 54.4064,
      "duration": 0.0994,
      "velocity": 100,
      "chip": "ym2612"
    },
    {
      "channel": 0,
      "note": 78,
      "start": 54.4391,
      "duration": 0.0996,
      "velocity": 100,
      "chip": "ym2612"
    },
    {
      "channel": 3,
      "note": 74,
      "start": 54.44,
      "duration": 0.0822,
      "velocity": 100,
      "chip": "ym2612"
    },
    {
      "channel": 4,
      "note": 76,
      "start": 54.5491,
      "duration": 0.0206,
      "velocity": 100,
      "chip": "ym2612"
    },
    {
      "channel": 0,
      "note": 79,
      "start": 54.5568,
      "duration": 0.1995,
      "velocity": 100,
      "chip": "ym2612"
    },
    {
      "channel": 3,
      "note": 76,
      "start": 54.5578,
      "duration": 0.2005,
      "velocity": 100,
      "chip": "ym2612"
    },
    {
      "channel": 4,
      "note": 78,
      "start": 54.5702,
      "duration": 0.0532,
      "velocity": 100,
      "chip": "ym2612"
    },
    {
      "channel": 4,
      "note": 79,
      "start": 54.7243,
      "duration": 0.2411,
      "velocity": 100,
      "chip": "ym2612"
    },
    {
      "channel": 0,
      "note": 65,
      "start": 54.7569,
      "duration": 0.0242,
      "velocity": 100,
      "chip": "ym2612"
    },
    {
      "channel": 1,
      "note": 41,
      "start": 54.7578,
      "duration": 0.1408,
      "velocity": 96,
      "chip": "ym2612"
    },
    {
      "channel": 3,
      "note": 53,
      "start": 54.7588,
      "duration": 0.0235,
      "velocity": 100,
      "chip": "ym2612"
    },
    {
      "channel": 0,
      "note": 67,
      "start": 54.7817,
      "duration": 0.1161,
      "velocity": 100,
      "chip": "ym2612"
    },
    {
      "channel": 3,
      "note": 55,
      "start": 54.7828,
      "duration": 0.1165,
      "velocity": 100,
      "chip": "ym2612"
    },
    {
      "channel": 0,
      "note": 69,
      "start": 54.8984,
      "duration": 0.0994,
      "velocity": 100,
      "chip": "ym2612"
    },
    {
      "channel": 1,
      "note": 41,
      "start": 54.8991,
      "duration": 0.1998,
      "velocity": 96,
      "chip": "ym2612"
    },
    {
      "channel": 3,
      "note": 57,
      "start": 54.9,
      "duration": 0.099,
      "velocity": 100,
      "chip": "ym2612"
    },
    {
      "channel": 4,
      "note": 65,
      "start": 54.9661,
      "duration": 0.0993,
      "velocity": 100,
      "chip": "ym2612"
    },
    {
      "channel": 0,
      "note": 72,
      "start": 54.9984,
      "duration": 0.0998,
      "velocity": 100,
      "chip": "ym2612"
    },
    {
      "channel": 3,
      "note": 60,
      "start": 54.9995,
      "duration": 0.1002,
      "velocity": 100,
      "chip": "ym2612"
    },
    {
      "channel": 4,
      "note": 67,
      "start": 55.0661,
      "duration": 0.047,
      "velocity": 100,
      "chip": "ym2612"
    },
    {
      "channel": 0,
      "note": 65,
      "start": 55.0987,
      "duration": 0.0199,
      "velocity": 100,
      "chip": "ym2612"
    },
    {
      "channel": 1,
      "note": 41,
      "start": 55.0994,
      "duration": 0.01,
      "velocity": 96,
      "chip": "ym2612"
    },
    {
      "channel": 3,
      "note": 53,
      "start": 55.1004,
      "duration": 0.0198,
      "velocity": 100,
      "chip": "ym2612"
    },
    {
      "channel": 4,
      "note": 69,
      "start": 55.1136,
      "duration": 0.0197,
      "velocity": 100,
      "chip": "ym2612"
    },
    {
      "channel": 0,
      "note": 67,
      "start": 55.1192,
      "duration": 0.0197,
      "velocity": 100,
      "chip": "ym2612"
    },
    {
      "channel": 1,
      "note": 53,
      "start": 55.1199,
      "duration": 0.0097,
      "velocity": 96,
      "chip": "ym2612"
    },
    {
      "channel": 3,
      "note": 55,
      "start": 55.1207,
      "duration": 0.0197,
      "velocity": 100,
      "chip": "ym2612"
    },
    {
      "channel": 4,
      "note": 72,
      "start": 55.1339,
      "duration": 0.0322,
      "velocity": 100,
      "chip": "ym2612"
    },
    {
      "channel": 0,
      "note": 69,
      "start": 55.1394,
      "duration": 0.0592,
      "velocity": 100,
      "chip": "ym2612"
    },
    {
      "channel": 1,
      "note": 41,
      "start": 55.1401,
      "duration": 0.0098,
      "velocity": 96,
      "chip": "ym2612"
    },
    {
      "channel": 3,
      "note": 57,
      "start": 55.141,
      "duration": 0.0592,
      "velocity": 100,
      "chip": "ym2612"
    },
    {
      "channel": 4,
      "note": 65,
      "start": 55.1667,
      "duration": 0.116,
      "velocity": 100,
      "chip": "ym2612"
    },
    {
      "channel": 0,
      "note": 72,
      "start": 55.1992,
      "duration": 0.1164,
      "velocity": 100,
      "chip": "ym2612"
    },
    {
      "channel": 1,
      "note": 53,
      "start": 55.1999,
      "duration": 0.0656,
      "velocity": 96,
      "chip": "ym2612"
    },
    {
      "channel": 3,
      "note": 60,
      "start": 55.2008,
      "duration": 0.1165,
      "velocity": 100,
      "chip": "ym2612"
    },
    {
      "channel": 4,
      "note": 67,
      "start": 55.2833,
      "duration": 0.0474,
      "velocity": 100,
      "chip": "ym2612"
    },
    {
      "channel": 0,
      "note": 65,
      "start": 55.3162,
      "duration": 0.0242,
      "velocity": 100,
      "chip": "ym2612"
    },
    {
      "channel": 1,
      "note": 41,
      "start": 55.3169,
      "duration": 0.1242,
      "velocity": 96,
      "chip": "ym2612"
    },
    {
      "channel": 3,
      "note": 53,
      "start": 55.3178,
      "duration": 0.0237,
      "velocity": 100,
      "chip": "ym2612"
    },
    {
      "channel": 4,
      "note": 69,
      "start": 55.3313,
      "duration": 0.0767,
      "velocity": 100,
      "chip": "ym2612"
    },
    {
      "channel": 0,
      "note": 67,
      "start": 55.341,
      "duration": 0.0994,
      "velocity": 100,
      "chip": "ym2612"
    },
    {
      "channel": 3,
      "note": 55,
      "start": 55.3421,
      "duration": 0.0998,
      "velocity": 100,
      "chip": "ym2612"
    },
    {
      "channel": 4,
      "note": 72,
      "start": 55.4086,
      "duration": 0.0995,
      "velocity": 100,
      "chip": "ym2612"
    },
    {
      "channel": 0,
      "note": 69,
      "start": 55.441,
      "duration": 0.0994,
      "velocity": 100,
      "chip": "ym2612"
    },
    {
      "channel": 1,
      "note": 41,
      "start": 55.4417,
      "duration": 0.1998,
      "velocity": 96,
      "chip": "ym2612"
    },
    {
      "channel": 3,
      "note": 57,
      "start": 55.4425,
      "duration": 0.099,
      "velocity": 100,
      "chip": "ym2612"
    },
    {
      "channel": 4,
      "note": 65,
      "start": 55.5087,
      "duration": 0.0993,
      "velocity": 100,
      "chip": "ym2612"
    },
    {
      "channel": 0,
      "note": 72,
      "start": 55.541,
      "duration": 0.0998,
      "velocity": 100,
      "chip": "ym2612"
    },
    {
      "channel": 3,
      "note": 60,
      "start": 55.5421,
      "duration": 0.1002,
      "velocity": 100,
      "chip": "ym2612"
    },
    {
      "channel": 4,
      "note": 67,
      "start": 55.6086,
      "duration": 0.0502,
      "velocity": 100,
      "chip": "ym2612"
    },
    {
      "channel": 0,
      "note": 65,
      "start": 55.6413,
      "duration": 0.0231,
      "velocity": 100,
      "chip": "ym2612"
    },
    {
      "channel": 1,
      "note": 41,
      "start": 55.642,
      "duration": 0.0132,
      "velocity": 96,
      "chip": "ym2612"
    },
    {
      "channel": 3,
      "note": 53,
      "start": 55.6429,
      "duration": 0.023,
      "velocity": 100,
      "chip": "ym2612"
    },
    {
      "channel": 4,
      "note": 69,
      "start": 55.6594,
      "duration": 0.0198,
      "velocity": 100,
      "chip": "ym2612"
    },
    {
      "channel": 0,
      "note": 67,
      "start": 55.665,
      "duration": 0.0198,
      "velocity": 100,
      "chip": "ym2612"
    },
    {
      "channel": 1,
      "note": 53,
      "start": 55.6657,
      "duration": 0.0097,
      "velocity": 96,
      "chip": "ym2612"
    },
    {
      "channel": 3,
      "note": 55,
      "start": 55.6665,
      "duration": 0.0197,
      "velocity": 100,
      "chip": "ym2612"
    },
    {
      "channel": 4,
      "note": 72,
      "start": 55.6797,
      "duration": 0.0457,
      "velocity": 100,
      "chip": "ym2612"
    },
    {
      "channel": 0,
      "note": 69,
      "start": 55.6853,
      "duration": 0.0726,
      "velocity": 100,
      "chip": "ym2612"
    },
    {
      "channel": 1,
      "note": 41,
      "start": 55.686,
      "duration": 0.0221,
      "velocity": 96,
      "chip": "ym2612"
    },
    {
      "channel": 3,
      "note": 57,
      "start": 55.6868,
      "duration": 0.0725,
      "velocity": 100,
      "chip": "ym2612"
    },
    {
      "channel": 4,
      "note": 65,
      "start": 55.726,
      "duration": 0.0994,
      "velocity": 100,
      "chip": "ym2612"
    },
    {
      "channel": 0,
      "note": 72,
      "start": 55.7584,
      "duration": 0.0998,
      "velocity": 100,
      "chip": "ym2612"
    },
    {
      "channel": 1,
      "note": 53,
      "start": 55.7591,
      "duration": 0.049,
      "velocity": 96,
      "chip": "ym2612"
    },
    {
      "channel": 3,
      "note": 60,
      "start": 55.76,
      "duration": 0.1001,
      "velocity": 100,
      "chip": "ym2612"
    },
    {
      "channel": 4,
      "note": 67,
      "start": 55.8259,
      "duration": 0.0476,
      "velocity": 100,
      "chip": "ym2612"
    },
    {
      "channel": 0,
      "note": 67,
      "start": 55.8589,
      "duration": 0.0241,
      "velocity": 100,
      "chip": "ym2612"
    },
    {
      "channel": 1,
      "note": 43,
      "start": 55.8596,
      "duration": 0.1407,
      "velocity": 96,
      "chip": "ym2612"
    },
    {
      "channel": 3,
      "note": 55,
      "start": 55.8607,
      "duration": 0.0234,
      "velocity": 100,
      "chip": "ym2612"
    },
    {
      "channel": 4,
      "note": 69,
      "start": 55.8742,
      "duration": 0.093,
      "velocity": 100,
      "chip": "ym2612"
    },
    {
      "channel": 0,
      "note": 69,
      "start": 55.8835,
      "duration": 0.1161,
      "velocity": 100,
      "chip": "ym2612"
    },
    {
      "channel": 3,
      "note": 57,
      "start": 55.8846,
      "duration": 0.1165,
      "velocity": 100,
      "chip": "ym2612"
    },
    {
      "channel": 4,
      "note": 72,
      "start": 55.9678,
      "duration": 0.0995,
      "velocity": 100,
      "chip": "ym2612"
    },
    {
      "channel": 0,
      "note": 71,
      "start": 56.0002,
      "duration": 0.0994,
      "velocity": 100,
      "chip": "ym2612"
    },
    {
      "channel": 1,
      "note": 43,
      "start": 56.0009,
      "duration": 0.1998,
      "velocity": 96,
      "chip": "ym2612"
    },
    {
      "channel": 3,
      "note": 59,
      "start": 56.0017,
      "duration": 0.099,
      "velocity": 100,
      "chip": "ym2612"
    },
    {
      "channel": 4,
      "note": 67,
      "start": 56.0679,
      "duration": 0.0993,
      "velocity": 100,
      "chip": "ym2612"
    },
    {
      "channel": 0,
      "note": 74,
      "start": 56.1002,
      "duration": 0.0998,
      "velocity": 100,
      "chip": "ym2612"
    },
    {
      "channel": 3,
      "note": 62,
      "start": 56.1013,
      "duration": 0.1002,
      "velocity": 100,
      "chip": "ym2612"
    },
    {
      "channel": 4,
      "note": 69,
      "start": 56.1678,
      "duration": 0.047,
      "velocity": 100,
      "chip": "ym2612"
    },
    {
      "channel": 0,
      "note": 67,
      "start": 56.2005,
      "duration": 0.0199,
      "velocity": 100,
      "chip": "ym2612"
    },
    {
      "channel": 1,
      "note": 43,
      "start": 56.2012,
      "duration": 0.01,
      "velocity": 96,
      "chip": "ym2612"
    },
    {
      "channel": 3,
      "note": 55,
      "start": 56.2022,
      "duration": 0.0198,
      "velocity": 100,
      "chip": "ym2612"
    },
    {
      "channel": 4,
      "note": 71,
      "start": 56.2154,
      "duration": 0.0197,
      "velocity": 100,
      "chip": "ym2612"
    },
    {
      "channel": 0,
      "note": 69,
      "start": 56.221,
      "duration": 0.0197,
      "velocity": 100,
      "chip": "ym2612"
    },
    {
      "channel": 1,
      "note": 55,
      "start": 56.2217,
      "duration": 0.0098,
      "velocity": 96,
      "chip": "ym2612"
    },
    {
      "channel": 3,
      "note": 57,
      "start": 56.2225,
      "duration": 0.0196,
      "velocity": 100,
      "chip": "ym2612"
    },
    {
      "channel": 4,
      "note": 74,
      "start": 56.2356,
      "duration": 0.0489,
      "velocity": 100,
      "chip": "ym2612"
    },
    {
      "channel": 0,
      "note": 71,
      "start": 56.2412,
      "duration": 0.0759,
      "velocity": 100,
      "chip": "ym2612"
    },
    {
      "channel": 1,
      "note": 43,
      "start": 56.2419,
      "duration": 0.0097,
      "velocity": 96,
      "chip": "ym2612"
    },
    {
      "channel": 3,
      "note": 59,
      "start": 56.2428,
      "duration": 0.0758,
      "velocity": 100,
      "chip": "ym2612"
    },
    {
      "channel": 4,
      "note": 67,
      "start": 56.2851,
      "duration": 0.0993,
      "velocity": 100,
      "chip": "ym2612"
    },
    {
      "channel": 0,
      "note": 74,
      "start": 56.3176,
      "duration": 0.0998,
      "velocity": 100,
      "chip": "ym2612"
    },
    {
      "channel": 1,
      "note": 55,
      "start": 56.3183,
      "duration": 0.049,
      "velocity": 96,
      "chip": "ym2612"
    },
    {
      "channel": 3,
      "note": 62,
      "start": 56.3192,
      "duration": 0.0998,
      "velocity": 100,
      "chip": "ym2612"
    },
    {
      "channel": 4,
      "note": 69,
      "start": 56.385,
      "duration": 0.0474,
      "velocity": 100,
      "chip": "ym2612"
    },
    {
      "channel": 0,
      "note": 67,
      "start": 56.418,
      "duration": 0.0242,
      "velocity": 100,
      "chip": "ym2612"
    },
    {
      "channel": 1,
      "note": 43,
      "start": 56.4187,
      "duration": 0.1242,
      "velocity": 96,
      "chip": "ym2612"
    },
    {
      "channel": 3,
      "note": 55,
      "start": 56.4196,
      "duration": 0.0237,
      "velocity": 100,
      "chip": "ym2612"
    },
    {
      "channel": 4,
      "note": 71,
      "start": 56.433,
      "duration": 0.0767,
      "velocity": 100,
      "chip": "ym2612"
    },
    {
      "channel": 0,
      "note": 69,
      "start": 56.4427,
      "duration": 0.0994,
      "velocity": 100,
      "chip": "ym2612"
    },
    {
      "channel": 3,
      "note": 57,
      "start": 56.4438,
      "duration": 0.0998,
      "velocity": 100,
      "chip": "ym2612"
    },
    {
      "channel": 4,
      "note": 74,
      "start": 56.5104,
      "duration": 0.0995,
      "velocity": 100,
      "chip": "ym2612"
    },
    {
      "channel": 0,
      "note": 71,
      "start": 56.5427,
      "duration": 0.0994,
      "velocity": 100,
      "chip": "ym2612"
    },
    {
      "channel": 1,
      "note": 43,
      "start": 56.5434,
      "duration": 0.2164,
      "velocity": 96,
      "chip": "ym2612"
    },
    {
      "channel": 3,
      "note": 59,
      "start": 56.5443,
      "duration": 0.099,
      "velocity": 100,
      "chip": "ym2612"
    },
    {
      "channel": 4,
      "note": 67,
      "start": 56.6104,
      "duration": 0.0993,
      "velocity": 100,
      "chip": "ym2612"
    },
    {
      "channel": 0,
      "note": 74,
      "start": 56.6427,
      "duration": 0.1164,
      "velocity": 100,
      "chip": "ym2612"
    },
    {
      "channel": 3,
      "note": 62,
      "start": 56.6438,
      "duration": 0.1169,
      "velocity": 100,
      "chip": "ym2612"
    },
    {
      "channel": 4,
      "note": 69,
      "start": 56.7104,
      "duration": 0.0637,
      "velocity": 100,
      "chip": "ym2612"
    },
    {
      "channel": 0,
      "note": 67,
      "start": 56.7597,
      "duration": 0.0199,
      "velocity": 100,
      "chip": "ym2612"
    },
    {
      "channel": 1,
      "note": 43,
      "start": 56.7604,
      "duration": 0.0099,
      "velocity": 96,
      "chip": "ym2612"
    },
    {
      "channel": 3,
      "note": 55,
      "start": 56.7613,
      "duration": 0.0198,
      "velocity": 100,
      "chip": "ym2612"
    },
    {
      "channel": 4,
      "note": 71,
      "start": 56.7746,
      "duration": 0.0197,
      "velocity": 100,
      "chip": "ym2612"
    },
    {
      "channel": 0,
      "note": 69,
      "start": 56.7801,
      "duration": 0.0197,
      "velocity": 100,
      "chip": "ym2612"
    },
    {
      "channel": 1,
      "note": 55,
      "start": 56.7809,
      "duration": 0.0098,
      "velocity": 96,
      "chip": "ym2612"
    },
    {
      "channel": 3,
      "note": 57,
      "start": 56.7817,
      "duration": 0.0196,
      "velocity": 100,
      "chip": "ym2612"
    },
    {
      "channel": 4,
      "note": 74,
      "start": 56.7948,
      "duration": 0.0322,
      "velocity": 100,
      "chip": "ym2612"
    },
    {
      "channel": 0,
      "note": 71,
      "start": 56.8004,
      "duration": 0.0592,
      "velocity": 100,
      "chip": "ym2612"
    },
    {
      "channel": 1,
      "note": 43,
      "start": 56.8011,
      "duration": 0.0097,
      "velocity": 96,
      "chip": "ym2612"
    },
    {
      "channel": 3,
      "note": 59,
      "start": 56.8019,
      "duration": 0.0591,
      "velocity": 100,
      "chip": "ym2612"
    },
    {
      "channel": 4,
      "note": 67,
      "start": 56.8276,
      "duration": 0.0993,
      "velocity": 100,
      "chip": "ym2612"
    },
    {
      "channel": 0,
      "note": 74,
      "start": 56.8601,
      "duration": 0.0998,
      "velocity": 100,
      "chip": "ym2612"
    },
    {
      "channel": 1,
      "note": 55,
      "start": 56.8608,
      "duration": 0.049,
      "velocity": 96,
      "chip": "ym2612"
    },
    {
      "channel": 3,
      "note": 62,
      "start": 56.8617,
      "duration": 0.0998,
      "velocity": 100,
      "chip": "ym2612"
    },
    {
      "channel": 4,
      "note": 69,
      "start": 56.9275,
      "duration": 0.0451,
      "velocity": 100,
      "chip": "ym2612"
    },
    {
      "channel": 1,
      "note": 45,
      "start": 56.9608,
      "duration": 0.0406,
      "velocity": 96,
      "chip": "ym2612"
    },
    {
      "channel": 4,
      "note": 71,
      "start": 56.9732,
      "duration": 0.0951,
      "velocity": 100,
      "chip": "ym2612"
    },
    {
      "channel": 1,
      "note": 45,
      "start": 57.002,
      "duration": 0.0494,
      "velocity": 96,
      "chip": "ym2612"
    },
    {
      "channel": 4,
      "note": 74,
      "start": 57.0689,
      "duration": 0.0997,
      "velocity": 100,
      "chip": "ym2612"
    },
    {
      "channel": 1,
      "note": 55,
      "start": 57.102,
      "duration": 0.0994,
      "velocity": 96,
      "chip": "ym2612"
    },
    {
      "channel": 1,
      "note": 57,
      "start": 57.202,
      "duration": 0.0494,
      "velocity": 96,
      "chip": "ym2612"
    },
    {
      "channel": 1,
      "note": 50,
      "start": 57.3022,
      "duration": 0.0149,
      "velocity": 96,
      "chip": "ym2612"
    },
    {
      "channel": 1,
      "note": 52,
      "start": 57.3177,
      "duration": 0.0074,
      "velocity": 96,
      "chip": "ym2612"
    },
    {
      "channel": 1,
      "note": 45,
      "start": 57.3327,
      "duration": 0.0361,
      "velocity": 96,
      "chip": "ym2612"
    },
    {
      "channel": 1,
      "note": 43,
      "start": 57.4194,
      "duration": 0.0494,
      "velocity": 96,
      "chip": "ym2612"
    },
    {
      "channel": 1,
      "note": 45,
      "start": 57.5197,
      "duration": 0.0244,
      "velocity": 96,
      "chip": "ym2612"
    },
    {
      "channel": 1,
      "note": 43,
      "start": 57.5446,
      "duration": 0.0994,
      "velocity": 96,
      "chip": "ym2612"
    },
    {
      "channel": 1,
      "note": 45,
      "start": 57.6446,
      "duration": 0.0494,
      "velocity": 96,
      "chip": "ym2612"
    },
    {
      "channel": 1,
      "note": 45,
      "start": 57.7446,
      "duration": 0.1163,
      "velocity": 96,
      "chip": "ym2612"
    },
    {
      "channel": 1,
      "note": 45,
      "start": 57.8755,
      "duration": 0.0148,
      "velocity": 96,
      "chip": "ym2612"
    },
    {
      "channel": 1,
      "note": 45,
      "start": 57.9619,
      "duration": 0.1001,
      "velocity": 96,
      "chip": "ym2612"
    },
    {
      "channel": 1,
      "note": 45,
      "start": 58.0625,
      "duration": 0.037,
      "velocity": 96,
      "chip": "ym2612"
    },
    {
      "channel": 0,
      "note": 79,
      "start": 58.0811,
      "duration": 0.0561,
      "velocity": 100,
      "chip": "ym2612"
    },
    {
      "channel": 3,
      "note": 76,
      "start": 58.0822,
      "duration": 0.0561,
      "velocity": 100,
      "chip": "ym2612"
    },
    {
      "channel": 1,
      "note": 45,
      "start": 58.1001,
      "duration": 0.0379,
      "velocity": 96,
      "chip": "ym2612"
    },
    {
      "channel": 4,
      "note": 79,
      "start": 58.1318,
      "duration": 0.09,
      "velocity": 100,
      "chip": "ym2612"
    },
    {
      "channel": 0,
      "note": 78,
      "start": 58.1378,
      "duration": 0.0181,
      "velocity": 100,
      "chip": "ym2612"
    },
    {
      "channel": 3,
      "note": 74,
      "start": 58.139,
      "duration": 0.0174,
      "velocity": 100,
      "chip": "ym2612"
    },
    {
      "channel": 0,
      "note": 76,
      "start": 58.1748,
      "duration": 0.0797,
      "velocity": 100,
      "chip": "ym2612"
    },
    {
      "channel": 3,
      "note": 73,
      "start": 58.1757,
      "duration": 0.0792,
      "velocity": 100,
      "chip": "ym2612"
    },
    {
      "channel": 4,
      "note": 78,
      "start": 58.2224,
      "duration": 0.099,
      "velocity": 100,
      "chip": "ym2612"
    },
    {
      "channel": 0,
      "note": 79,
      "start": 58.3553,
      "duration": 0.0194,
      "velocity": 100,
      "chip": "ym2612"
    },
    {
      "channel": 3,
      "note": 76,
      "start": 58.3562,
      "duration": 0.0194,
      "velocity": 100,
      "chip": "ym2612"
    },
    {
      "channel": 4,
      "note": 76,
      "start": 58.3694,
      "duration": 0.0192,
      "velocity": 100,
      "chip": "ym2612"
    },
    {
      "channel": 0,
      "note": 76,
      "start": 58.3753,
      "duration": 0.0198,
      "velocity": 100,
      "chip": "ym2612"
    },
    {
      "channel": 3,
      "note": 73,
      "start": 58.3762,
      "duration": 0.0193,
      "velocity": 100,
      "chip": "ym2612"
    },
    {
      "channel": 4,
      "note": 79,
      "start": 58.4059,
      "duration": 0.0209,
      "velocity": 100,
      "chip": "ym2612"
    },
    {
      "channel": 0,
      "note": 81,
      "start": 58.4139,
      "duration": 0.0187,
      "velocity": 100,
      "chip": "ym2612"
    },
    {
      "channel": 3,
      "note": 78,
      "start": 58.4148,
      "duration": 0.0183,
      "velocity": 100,
      "chip": "ym2612"
    },
    {
      "channel": 4,
      "note": 76,
      "start": 58.4274,
      "duration": 0.0165,
      "velocity": 100,
      "chip": "ym2612"
    },
    {
      "channel": 3,
      "note": 76,
      "start": 58.4494,
      "duration": 0.0163,
      "velocity": 100,
      "chip": "ym2612"
    },
    {
      "channel": 4,
      "note": 81,
      "start": 58.4605,
      "duration": 0.0156,
      "velocity": 100,
      "chip": "ym2612"
    },
    {
      "channel": 0,
      "note": 28,
      "start": 59.271,
      "duration": 0.0307,
      "velocity": 109,
      "chip": "ym2612"
    },
    {
      "channel": 3,
      "note": 81,
      "start": 59.2786,
      "duration": 0.0555,
      "velocity": 103,
      "chip": "ym2612"
    },
    {
      "channel": 0,
      "note": 28,
      "start": 59.3126,
      "duration": 0.0278,
      "velocity": 109,
      "chip": "ym2612"
    },
    {
      "channel": 4,
      "note": 81,
      "start": 59.3228,
      "duration": 0.0578,
      "velocity": 103,
      "chip": "ym2612"
    },
    {
      "channel": 3,
      "note": 80,
      "start": 59.3347,
      "duration": 0.058,
      "velocity": 103,
      "chip": "ym2612"
    },
    {
      "channel": 0,
      "note": 28,
      "start": 59.3521,
      "duration": 0.3915,
      "velocity": 109,
      "chip": "ym2612"
    },
    {
      "channel": 4,
      "note": 80,
      "start": 59.3811,
      "duration": 0.2134,
      "velocity": 103,
      "chip": "ym2612"
    },
    {
      "channel": 3,
      "note": 76,
      "start": 59.3934,
      "duration": 0.1675,
      "velocity": 103,
      "chip": "ym2612"
    },
    {
      "channel": 3,
      "note": 88,
      "start": 59.5615,
      "duration": 0.3159,
      "velocity": 103,
      "chip": "ym2612"
    },
    {
      "channel": 4,
      "note": 76,
      "start": 59.595,
      "duration": 0.216,
      "velocity": 103,
      "chip": "ym2612"
    },
    {
      "channel": 0,
      "note": 40,
      "start": 59.7442,
      "duration": 0.6328,
      "velocity": 109,
      "chip": "ym2612"
    },
    {
      "channel": 4,
      "note": 88,
      "start": 59.8116,
      "duration": 0.3162,
      "velocity": 103,
      "chip": "ym2612"
    },
    {
      "channel": 3,
      "note": 86,
      "start": 59.878,
      "duration": 0.3162,
      "velocity": 103,
      "chip": "ym2612"
    },
    {
      "channel": 4,
      "note": 86,
      "start": 60.1284,
      "duration": 0.2993,
      "velocity": 103,
      "chip": "ym2612"
    },
    {
      "channel": 3,
      "note": 85,
      "start": 60.1948,
      "duration": 0.1999,
      "velocity": 103,
      "chip": "ym2612"
    },
    {
      "channel": 0,
      "note": 28,
      "start": 60.3775,
      "duration": 0.6328,
      "velocity": 109,
      "chip": "ym2612"
    },
    {
      "channel": 3,
      "note": 81,
      "start": 60.3954,
      "duration": 0.3155,
      "velocity": 103,
      "chip": "ym2612"
    },
    {
      "channel": 4,
      "note": 85,
      "start": 60.4283,
      "duration": 0.2162,
      "velocity": 103,
      "chip": "ym2612"
    },
    {
      "channel": 4,
      "note": 81,
      "start": 60.6452,
      "duration": 0.316,
      "velocity": 103,
      "chip": "ym2612"
    },
    {
      "channel": 3,
      "note": 80,
      "start": 60.7115,
      "duration": 0.3159,
      "velocity": 103,
      "chip": "ym2612"
    },
    {
      "channel": 4,
      "note": 80,
      "start": 60.9617,
      "duration": 0.3158,
      "velocity": 103,
      "chip": "ym2612"
    },
    {
      "channel": 0,
      "note": 28,
      "start": 61.0109,
      "duration": 0.2161,
      "velocity": 109,
      "chip": "ym2612"
    },
    {
      "channel": 3,
      "note": 76,
      "start": 61.028,
      "duration": 0.2159,
      "velocity": 103,
      "chip": "ym2612"
    },
    {
      "channel": 3,
      "note": 88,
      "start": 61.2445,
      "duration": 0.3162,
      "velocity": 103,
      "chip": "ym2612"
    },
    {
      "channel": 4,
      "note": 76,
      "start": 61.278,
      "duration": 0.1996,
      "velocity": 103,
      "chip": "ym2612"
    },
    {
      "channel": 0,
      "note": 33,
      "start": 61.4275,
      "duration": 0.3494,
      "velocity": 109,
      "chip": "ym2612"
    },
    {
      "channel": 4,
      "note": 88,
      "start": 61.4783,
      "duration": 0.316,
      "velocity": 103,
      "chip": "ym2612"
    },
    {
      "channel": 3,
      "note": 86,
      "start": 61.5613,
      "duration": 0.2994,
      "velocity": 103,
      "chip": "ym2612"
    },
    {
      "channel": 0,
      "note": 32,
      "start": 61.7775,
      "duration": 0.2828,
      "velocity": 109,
      "chip": "ym2612"
    },
    {
      "channel": 4,
      "note": 86,
      "start": 61.7949,
      "duration": 0.3163,
      "velocity": 103,
      "chip": "ym2612"
    },
    {
      "channel": 3,
      "note": 85,
      "start": 61.8613,
      "duration": 0.2172,
      "velocity": 103,
      "chip": "ym2612"
    },
    {
      "channel": 0,
      "note": 28,
      "start": 62.0609,
      "duration": 0.1328,
      "velocity": 109,
      "chip": "ym2612"
    },
    {
      "channel": 2,
      "note": 86,
      "start": 62.0783,
      "duration": 0.3156,
      "velocity": 103,
      "chip": "ym2612"
    },
    {
      "channel": 3,
      "note": 81,
      "start": 62.0791,
      "duration": 0.3156,
      "velocity": 103,
      "chip": "ym2612"
    },
    {
      "channel": 4,
      "note": 85,
      "start": 62.1118,
      "duration": 0.2162,
      "velocity": 103,
      "chip": "ym2612"
    },
    {
      "channel": 0,
      "note": 28,
      "start": 62.2775,
      "duration": 0.1328,
      "velocity": 109,
      "chip": "ym2612"
    },
    {
      "channel": 4,
      "note": 81,
      "start": 62.3287,
      "duration": 0.316,
      "velocity": 103,
      "chip": "ym2612"
    },
    {
      "channel": 2,
      "note": 85,
      "start": 62.3946,
      "duration": 0.3162,
      "velocity": 103,
      "chip": "ym2612"
    },
    {
      "channel": 3,
      "note": 80,
      "start": 62.3953,
      "duration": 0.3162,
      "velocity": 103,
      "chip": "ym2612"
    },
    {
      "channel": 0,
      "note": 28,
      "start": 62.4775,
      "duration": 0.6328,
      "velocity": 109,
      "chip": "ym2612"
    },
    {
      "channel": 4,
      "note": 80,
      "start": 62.6452,
      "duration": 0.2994,
      "velocity": 103,
      "chip": "ym2612"
    },
    {
      "channel": 2,
      "note": 81,
      "start": 62.7114,
      "duration": 0.1994,
      "velocity": 103,
      "chip": "ym2612"
    },
    {
      "channel": 3,
      "note": 76,
      "start": 62.7122,
      "duration": 0.1994,
      "velocity": 103,
      "chip": "ym2612"
    },
    {
      "channel": 2,
      "note": 93,
      "start": 62.9114,
      "duration": 0.3159,
      "velocity": 103,
      "chip": "ym2612"
    },
    {
      "channel": 3,
      "note": 88,
      "start": 62.9122,
      "duration": 0.3159,
      "velocity": 103,
      "chip": "ym2612"
    },
    {
      "channel": 4,
      "note": 76,
      "start": 62.9452,
      "duration": 0.2161,
      "velocity": 103,
      "chip": "ym2612"
    },
    {
      "channel": 0,
      "note": 40,
      "start": 63.1109,
      "duration": 0.6328,
      "velocity": 109,
      "chip": "ym2612"
    },
    {
      "channel": 4,
      "note": 88,
      "start": 63.162,
      "duration": 0.3162,
      "velocity": 103,
      "chip": "ym2612"
    },
    {
      "channel": 2,
      "note": 92,
      "start": 63.2279,
      "duration": 0.3162,
      "velocity": 103,
      "chip": "ym2612"
    },
    {
      "channel": 3,
      "note": 86,
      "start": 63.2286,
      "duration": 0.3162,
      "velocity": 103,
      "chip": "ym2612"
    },
    {
      "channel": 4,
      "note": 86,
      "start": 63.4787,
      "duration": 0.3158,
      "velocity": 103,
      "chip": "ym2612"
    },
    {
      "channel": 2,
      "note": 88,
      "start": 63.5447,
      "duration": 0.2163,
      "velocity": 103,
      "chip": "ym2612"
    },
    {
      "channel": 3,
      "note": 85,
      "start": 63.5455,
      "duration": 0.2163,
      "velocity": 103,
      "chip": "ym2612"
    },
    {
      "channel": 0,
      "note": 28,
      "start": 63.7441,
      "duration": 0.6163,
      "velocity": 109,
      "chip": "ym2612"
    },
    {
      "channel": 2,
      "note": 86,
      "start": 63.7616,
      "duration": 0.3159,
      "velocity": 103,
      "chip": "ym2612"
    },
    {
      "channel": 3,
      "note": 81,
      "start": 63.7625,
      "duration": 0.3157,
      "velocity": 103,
      "chip": "ym2612"
    },
    {
      "channel": 4,
      "note": 85,
      "start": 63.7952,
      "duration": 0.1997,
      "velocity": 103,
      "chip": "ym2612"
    },
    {
      "channel": 4,
      "note": 81,
      "start": 63.9955,
      "duration": 0.316,
      "velocity": 103,
      "chip": "ym2612"
    },
    {
      "channel": 2,
      "note": 85,
      "start": 64.078,
      "duration": 0.2908,
      "velocity": 103,
      "chip": "ym2612"
    },
    {
      "channel": 3,
      "note": 80,
      "start": 64.0788,
      "duration": 0.2913,
      "velocity": 103,
      "chip": "ym2612"
    },
    {
      "channel": 4,
      "note": 80,
      "start": 64.312,
      "duration": 0.1168,
      "velocity": 103,
      "chip": "ym2612"
    },
    {
      "channel": 0,
      "note": 28,
      "start": 64.3611,
      "duration": 0.0447,
      "velocity": 109,
      "chip": "ym2612"
    },
    {
      "channel": 2,
      "note": 81,
      "start": 64.3695,
      "duration": 0.0395,
      "velocity": 103,
      "chip": "ym2612"
    },
    {
      "channel": 3,
      "note": 76,
      "start": 64.3706,
      "duration": 0.0388,
      "velocity": 103,
      "chip": "ym2612"
    },
    {
      "channel": 4,
      "note": 76,
      "start": 64.4295,
      "duration": 0.1776,
      "velocity": 103,
      "chip": "ym2612"
    },
    {
      "channel": 2,
      "note": 80,
      "start": 64.5993,
      "duration": 0.0348,
      "velocity": 103,
      "chip": "ym2612"
    },
    {
      "channel": 3,
      "note": 76,
      "start": 64.6003,
      "duration": 0.0341,
      "velocity": 103,
      "chip": "ym2612"
    },
    {
      "channel": 4,
      "note": 76,
      "start": 64.6473,
      "duration": 0.1738,
      "velocity": 103,
      "chip": "ym2612"
    },
    {
      "channel": 0,
      "note": 33,
      "start": 64.8658,
      "duration": 0.8134,
      "velocity": 109,
      "chip": "ym2612"
    },
    {
      "channel": 1,
      "note": 69,
      "start": 64.8713,
      "duration": 1.7661,
      "velocity": 103,
      "chip": "ym2612"
    },
    {
      "channel": 2,
      "note": 57,
      "start": 64.8742,
      "duration": 0.024,
      "velocity": 103,
      "chip": "ym2612"
    },
    {
      "channel": 3,
      "note": 93,
      "start": 64.8753,
      "duration": 0.0273,
      "velocity": 103,
      "chip": "ym2612"
    },
    {
      "channel": 2,
      "note": 45,
      "start": 64.8988,
      "duration": 0.0205,
      "velocity": 103,
      "chip": "ym2612"
    },
    {
      "channel": 2,
      "note": 57,
      "start": 64.9199,
      "duration": 0.065,
      "velocity": 103,
      "chip": "ym2612"
    },
    {
      "channel": 3,
      "note": 93,
      "start": 64.9206,
      "duration": 0.712,
      "velocity": 103,
      "chip": "ym2612"
    },
    {
      "channel": 4,
      "note": 93,
      "start": 64.9292,
      "duration": 0.1229,
      "velocity": 103,
      "chip": "ym2612"
    },
    {
      "channel": 2,
      "note": 45,
      "start": 64.9854,
      "duration": 0.1161,
      "velocity": 103,
      "chip": "ym2612"
    },
    {
      "channel": 2,
      "note": 59,
      "start": 65.1021,
      "duration": 0.0994,
      "velocity": 103,
      "chip": "ym2612"
    },
    {
      "channel": 4,
      "note": 93,
      "start": 65.136,
      "duration": 0.5577,
      "velocity": 103,
      "chip": "ym2612"
    },
    {
      "channel": 2,
      "note": 45,
      "start": 65.2021,
      "duration": 0.0867,
      "velocity": 103,
      "chip": "ym2612"
    },
    {
      "channel": 2,
      "note": 61,
      "start": 65.2894,
      "duration": 0.0274,
      "velocity": 103,
      "chip": "ym2612"
    },
    {
      "channel": 2,
      "note": 45,
      "start": 65.3174,
      "duration": 0.023,
      "velocity": 103,
      "chip": "ym2612"
    },
    {
      "channel": 2,
      "note": 62,
      "start": 65.341,
      "duration": 0.0229,
      "velocity": 103,
      "chip": "ym2612"
    },
    {
      "channel": 2,
      "note": 45,
      "start": 65.3644,
      "duration": 0.0235,
      "velocity": 103,
      "chip": "ym2612"
    },
    {
      "channel": 2,
      "note": 61,
      "start": 65.3885,
      "duration": 0.0273,
      "velocity": 103,
      "chip": "ym2612"
    },
    {
      "channel": 2,
      "note": 45,
      "start": 65.4164,
      "duration": 0.0232,
      "velocity": 103,
      "chip": "ym2612"
    },
    {
      "channel": 2,
      "note": 59,
      "start": 65.4402,
      "duration": 0.0876,
      "velocity": 103,
      "chip": "ym2612"
    },
    {
      "channel": 2,
      "note": 45,
      "start": 65.5283,
      "duration": 0.1036,
      "velocity": 103,
      "chip": "ym2612"
    },
    {
      "channel": 2,
      "note": 61,
      "start": 65.6325,
      "duration": 0.0253,
      "velocity": 103,
      "chip": "ym2612"
    },
    {
      "channel": 3,
      "note": 81,
      "start": 65.6333,
      "duration": 0.0252,
      "velocity": 103,
      "chip": "ym2612"
    },
    {
      "channel": 2,
      "note": 45,
      "start": 65.6584,
      "duration": 0.0259,
      "velocity": 103,
      "chip": "ym2612"
    },
    {
      "channel": 3,
      "note": 85,
      "start": 65.6592,
      "duration": 0.0258,
      "velocity": 103,
      "chip": "ym2612"
    },
    {
      "channel": 0,
      "note": 45,
      "start": 65.6798,
      "duration": 0.4839,
      "velocity": 109,
      "chip": "ym2612"
    },
    {
      "channel": 2,
      "note": 57,
      "start": 65.6849,
      "duration": 0.0374,
      "velocity": 103,
      "chip": "ym2612"
    },
    {
      "channel": 3,
      "note": 86,
      "start": 65.6856,
      "duration": 0.4836,
      "velocity": 103,
      "chip": "ym2612"
    },
    {
      "channel": 4,
      "note": 81,
      "start": 65.6943,
      "duration": 0.0786,
      "velocity": 103,
      "chip": "ym2612"
    },
    {
      "channel": 2,
      "note": 45,
      "start": 65.7228,
      "duration": 0.1036,
      "velocity": 103,
      "chip": "ym2612"
    },
    {
      "channel": 4,
      "note": 85,
      "start": 65.7735,
      "duration": 0.0617,
      "velocity": 103,
      "chip": "ym2612"
    },
    {
      "channel": 2,
      "note": 57,
      "start": 65.827,
      "duration": 0.0373,
      "velocity": 103,
      "chip": "ym2612"
    },
    {
      "channel": 4,
      "note": 86,
      "start": 65.8358,
      "duration": 0.3908,
      "velocity": 103,
      "chip": "ym2612"
    },
    {
      "channel": 2,
      "note": 45,
      "start": 65.8648,
      "duration": 0.0994,
      "velocity": 103,
      "chip": "ym2612"
    },
    {
      "channel": 2,
      "note": 59,
      "start": 65.9648,
      "duration": 0.116,
      "velocity": 103,
      "chip": "ym2612"
    },
    {
      "channel": 2,
      "note": 45,
      "start": 66.0814,
      "duration": 0.087,
      "velocity": 103,
      "chip": "ym2612"
    },
    {
      "channel": 0,
      "note": 33,
      "start": 66.1642,
      "duration": 0.1484,
      "velocity": 109,
      "chip": "ym2612"
    },
    {
      "channel": 2,
      "note": 61,
      "start": 66.1691,
      "duration": 0.0223,
      "velocity": 103,
      "chip": "ym2612"
    },
    {
      "channel": 3,
      "note": 85,
      "start": 66.1698,
      "duration": 0.0987,
      "velocity": 103,
      "chip": "ym2612"
    },
    {
      "channel": 2,
      "note": 45,
      "start": 66.1919,
      "duration": 0.0256,
      "velocity": 103,
      "chip": "ym2612"
    },
    {
      "channel": 2,
      "note": 62,
      "start": 66.218,
      "duration": 0.0229,
      "velocity": 103,
      "chip": "ym2612"
    },
    {
      "channel": 4,
      "note": 85,
      "start": 66.2272,
      "duration": 0.1141,
      "velocity": 103,
      "chip": "ym2612"
    },
    {
      "channel": 2,
      "note": 45,
      "start": 66.2415,
      "duration": 0.0263,
      "velocity": 103,
      "chip": "ym2612"
    },
    {
      "channel": 2,
      "note": 61,
      "start": 66.2683,
      "duration": 0.0226,
      "velocity": 103,
      "chip": "ym2612"
    },
    {
      "channel": 3,
      "note": 81,
      "start": 66.2691,
      "duration": 0.37,
      "velocity": 103,
      "chip": "ym2612"
    },
    {
      "channel": 2,
      "note": 45,
      "start": 66.2915,
      "duration": 0.0257,
      "velocity": 103,
      "chip": "ym2612"
    },
    {
      "channel": 0,
      "note": 45,
      "start": 66.3132,
      "duration": 0.3198,
      "velocity": 109,
      "chip": "ym2612"
    },
    {
      "channel": 2,
      "note": 59,
      "start": 66.3178,
      "duration": 0.0896,
      "velocity": 103,
      "chip": "ym2612"
    },
    {
      "channel": 4,
      "note": 81,
      "start": 66.342,
      "duration": 0.4342,
      "velocity": 103,
      "chip": "ym2612"
    },
    {
      "channel": 2,
      "note": 45,
      "start": 66.408,
      "duration": 0.0869,
      "velocity": 103,
      "chip": "ym2612"
    },
    {
      "channel": 2,
      "note": 61,
      "start": 66.4954,
      "duration": 0.0549,
      "velocity": 103,
      "chip": "ym2612"
    },
    {
      "channel": 2,
      "note": 45,
      "start": 66.5509,
      "duration": 0.0874,
      "velocity": 103,
      "chip": "ym2612"
    },
    {
      "channel": 0,
      "note": 31,
      "start": 66.6336,
      "duration": 0.0251,
      "velocity": 109,
      "chip": "ym2612"
    },
    {
      "channel": 1,
      "note": 67,
      "start": 66.638,
      "duration": 1.592,
      "velocity": 103,
      "chip": "ym2612"
    },
    {
      "channel": 2,
      "note": 57,
      "start": 66.6388,
      "duration": 0.0368,
      "velocity": 103,
      "chip": "ym2612"
    },
    {
      "channel": 3,
      "note": 93,
      "start": 66.6396,
      "duration": 0.053,
      "velocity": 103,
      "chip": "ym2612"
    },
    {
      "channel": 2,
      "note": 45,
      "start": 66.6762,
      "duration": 0.0905,
      "velocity": 103,
      "chip": "ym2612"
    },
    {
      "channel": 0,
      "note": 31,
      "start": 66.7595,
      "duration": 0.7538,
      "velocity": 109,
      "chip": "ym2612"
    },
    {
      "channel": 2,
      "note": 57,
      "start": 66.7674,
      "duration": 0.0504,
      "velocity": 103,
      "chip": "ym2612"
    },
    {
      "channel": 3,
      "note": 93,
      "start": 66.7681,
      "duration": 0.6818,
      "velocity": 103,
      "chip": "ym2612"
    },
    {
      "channel": 4,
      "note": 93,
      "start": 66.7768,
      "duration": 0.0916,
      "velocity": 103,
      "chip": "ym2612"
    },
    {
      "channel": 2,
      "note": 45,
      "start": 66.8184,
      "duration": 0.0996,
      "velocity": 103,
      "chip": "ym2612"
    },
    {
      "channel": 2,
      "note": 59,
      "start": 66.9186,
      "duration": 0.0994,
      "velocity": 103,
      "chip": "ym2612"
    },
    {
      "channel": 4,
      "note": 93,
      "start": 66.9525,
      "duration": 0.5753,
      "velocity": 103,
      "chip": "ym2612"
    },
    {
      "channel": 2,
      "note": 45,
      "start": 67.0186,
      "duration": 0.1034,
      "velocity": 103,
      "chip": "ym2612"
    },
    {
      "channel": 2,
      "note": 61,
      "start": 67.1225,
      "duration": 0.0225,
      "velocity": 103,
      "chip": "ym2612"
    },
    {
      "channel": 2,
      "note": 45,
      "start": 67.1456,
      "duration": 0.0227,
      "velocity": 103,
      "chip": "ym2612"
    },
    {
      "channel": 2,
      "note": 62,
      "start": 67.1689,
      "duration": 0.0268,
      "velocity": 103,
      "chip": "ym2612"
    },
    {
      "channel": 2,
      "note": 45,
      "start": 67.1963,
      "duration": 0.0257,
      "velocity": 103,
      "chip": "ym2612"
    },
    {
      "channel": 2,
      "note": 61,
      "start": 67.2226,
      "duration": 0.0235,
      "velocity": 103,
      "chip": "ym2612"
    },
    {
      "channel": 2,
      "note": 45,
      "start": 67.2466,
      "duration": 0.0232,
      "velocity": 103,
      "chip": "ym2612"
    },
    {
      "channel": 2,
      "note": 59,
      "start": 67.2703,
      "duration": 0.0914,
      "velocity": 103,
      "chip": "ym2612"
    },
    {
      "channel": 2,
      "note": 45,
      "start": 67.3623,
      "duration": 0.0869,
      "velocity": 103,
      "chip": "ym2612"
    },
    {
      "channel": 2,
      "note": 61,
      "start": 67.4498,
      "duration": 0.0254,
      "velocity": 103,
      "chip": "ym2612"
    },
    {
      "channel": 3,
      "note": 81,
      "start": 67.4505,
      "duration": 0.0253,
      "velocity": 103,
      "chip": "ym2612"
    },
    {
      "channel": 2,
      "note": 45,
      "start": 67.4757,
      "duration": 0.0426,
      "velocity": 103,
      "chip": "ym2612"
    },
    {
      "channel": 3,
      "note": 85,
      "start": 67.4764,
      "duration": 0.0426,
      "velocity": 103,
      "chip": "ym2612"
    },
    {
      "channel": 0,
      "note": 43,
      "start": 67.5138,
      "duration": 0.4672,
      "velocity": 109,
      "chip": "ym2612"
    },
    {
      "channel": 2,
      "note": 57,
      "start": 67.5189,
      "duration": 0.0374,
      "velocity": 103,
      "chip": "ym2612"
    },
    {
      "channel": 3,
      "note": 86,
      "start": 67.5197,
      "duration": 0.4669,
      "velocity": 103,
      "chip": "ym2612"
    },
    {
      "channel": 4,
      "note": 81,
      "start": 67.5284,
      "duration": 0.0619,
      "velocity": 103,
      "chip": "ym2612"
    },
    {
      "channel": 2,
      "note": 45,
      "start": 67.5569,
      "duration": 0.0868,
      "velocity": 103,
      "chip": "ym2612"
    },
    {
      "channel": 4,
      "note": 85,
      "start": 67.5909,
      "duration": 0.0616,
      "velocity": 103,
      "chip": "ym2612"
    },
    {
      "channel": 2,
      "note": 57,
      "start": 67.6443,
      "duration": 0.054,
      "velocity": 103,
      "chip": "ym2612"
    },
    {
      "channel": 4,
      "note": 86,
      "start": 67.6531,
      "duration": 0.3915,
      "velocity": 103,
      "chip": "ym2612"
    },
    {
      "channel": 2,
      "note": 45,
      "start": 67.6988,
      "duration": 0.0994,
      "velocity": 103,
      "chip": "ym2612"
    },
    {
      "channel": 2,
      "note": 59,
      "start": 67.7988,
      "duration": 0.0994,
      "velocity": 103,
      "chip": "ym2612"
    },
    {
      "channel": 2,
      "note": 45,
      "start": 67.8988,
      "duration": 0.0869,
      "velocity": 103,
      "chip": "ym2612"
    },
    {
      "channel": 0,
      "note": 31,
      "start": 67.9815,
      "duration": 0.1477,
      "velocity": 109,
      "chip": "ym2612"
    },
    {
      "channel": 2,
      "note": 61,
      "start": 67.9864,
      "duration": 0.0258,
      "velocity": 103,
      "chip": "ym2612"
    },
    {
      "channel": 3,
      "note": 85,
      "start": 67.9871,
      "duration": 0.1002,
      "velocity": 103,
      "chip": "ym2612"
    },
    {
      "channel": 2,
      "note": 45,
      "start": 68.0127,
      "duration": 0.0228,
      "velocity": 103,
      "chip": "ym2612"
    },
    {
      "channel": 2,
      "note": 62,
      "start": 68.0361,
      "duration": 0.0234,
      "velocity": 103,
      "chip": "ym2612"
    },
    {
      "channel": 4,
      "note": 85,
      "start": 68.0452,
      "duration": 0.0976,
      "velocity": 103,
      "chip": "ym2612"
    },
    {
      "channel": 2,
      "note": 45,
      "start": 68.06,
      "duration": 0.0266,
      "velocity": 103,
      "chip": "ym2612"
    },
    {
      "channel": 2,
      "note": 61,
      "start": 68.0872,
      "duration": 0.023,
      "velocity": 103,
      "chip": "ym2612"
    },
    {
      "channel": 3,
      "note": 81,
      "start": 68.0879,
      "duration": 0.1438,
      "velocity": 103,
      "chip": "ym2612"
    },
    {
      "channel": 2,
      "note": 45,
      "start": 68.1107,
      "duration": 0.0233,
      "velocity": 103,
      "chip": "ym2612"
    },
    {
      "channel": 0,
      "note": 43,
      "start": 68.1298,
      "duration": 0.0957,
      "velocity": 109,
      "chip": "ym2612"
    },
    {
      "channel": 2,
      "note": 59,
      "start": 68.1346,
      "duration": 0.0227,
      "velocity": 103,
      "chip": "ym2612"
    },
    {
      "channel": 4,
      "note": 81,
      "start": 68.1434,
      "duration": 0.1434,
      "velocity": 103,
      "chip": "ym2612"
    },
    {
      "channel": 2,
      "note": 45,
      "start": 68.1578,
      "duration": 0.0261,
      "velocity": 103,
      "chip": "ym2612"
    },
    {
      "channel": 2,
      "note": 61,
      "start": 68.1845,
      "duration": 0.0222,
      "velocity": 103,
      "chip": "ym2612"
    },
    {
      "channel": 2,
      "note": 45,
      "start": 68.2073,
      "duration": 0.0235,
      "velocity": 103,
      "chip": "ym2612"
    },
    {
      "channel": 0,
      "note": 30,
      "start": 68.2261,
      "duration": 0.0285,
      "velocity": 109,
      "chip": "ym2612"
    },
    {
      "channel": 1,
      "note": 66,
      "start": 68.2306,
      "duration": 1.7557,
      "velocity": 103,
      "chip": "ym2612"
    },
    {
      "channel": 2,
      "note": 57,
      "start": 68.2314,
      "duration": 0.0268,
      "velocity": 103,
      "chip": "ym2612"
    },
    {
      "channel": 2,
      "note": 45,
      "start": 68.2588,
      "duration": 0.0196,
      "velocity": 103,
      "chip": "ym2612"
    },
    {
      "channel": 0,
      "note": 30,
      "start": 68.2745,
      "duration": 0.6857,
      "velocity": 109,
      "chip": "ym2612"
    },
    {
      "channel": 2,
      "note": 57,
      "start": 68.279,
      "duration": 0.0644,
      "velocity": 103,
      "chip": "ym2612"
    },
    {
      "channel": 2,
      "note": 45,
      "start": 68.344,
      "duration": 0.1163,
      "velocity": 103,
      "chip": "ym2612"
    },
    {
      "channel": 2,
      "note": 59,
      "start": 68.4608,
      "duration": 0.0994,
      "velocity": 103,
      "chip": "ym2612"
    },
    {
      "channel": 3,
      "note": 78,
      "start": 68.4616,
      "duration": 0.1865,
      "velocity": 103,
      "chip": "ym2612"
    },
    {
      "channel": 2,
      "note": 45,
      "start": 68.5608,
      "duration": 0.0865,
      "velocity": 103,
      "chip": "ym2612"
    },
    {
      "channel": 2,
      "note": 61,
      "start": 68.6479,
      "duration": 0.0219,
      "velocity": 103,
      "chip": "ym2612"
    },
    {
      "channel": 4,
      "note": 78,
      "start": 68.6559,
      "duration": 0.0479,
      "velocity": 103,
      "chip": "ym2612"
    },
    {
      "channel": 2,
      "note": 45,
      "start": 68.6704,
      "duration": 0.0248,
      "velocity": 103,
      "chip": "ym2612"
    },
    {
      "channel": 2,
      "note": 62,
      "start": 68.6958,
      "duration": 0.0207,
      "velocity": 103,
      "chip": "ym2612"
    },
    {
      "channel": 2,
      "note": 45,
      "start": 68.7171,
      "duration": 0.0204,
      "velocity": 103,
      "chip": "ym2612"
    },
    {
      "channel": 2,
      "note": 61,
      "start": 68.738,
      "duration": 0.0251,
      "velocity": 103,
      "chip": "ym2612"
    },
    {
      "channel": 3,
      "note": 81,
      "start": 68.7388,
      "duration": 0.046,
      "velocity": 103,
      "chip": "ym2612"
    },
    {
      "channel": 2,
      "note": 45,
      "start": 68.7637,
      "duration": 0.0203,
      "velocity": 103,
      "chip": "ym2612"
    },
    {
      "channel": 2,
      "note": 59,
      "start": 68.7846,
      "duration": 0.0929,
      "velocity": 103,
      "chip": "ym2612"
    },
    {
      "channel": 4,
      "note": 81,
      "start": 68.8117,
      "duration": 0.1645,
      "velocity": 103,
      "chip": "ym2612"
    },
    {
      "channel": 2,
      "note": 45,
      "start": 68.878,
      "duration": 0.0867,
      "velocity": 103,
      "chip": "ym2612"
    },
    {
      "channel": 0,
      "note": 40,
      "start": 68.9609,
      "duration": 0.0421,
      "velocity": 109,
      "chip": "ym2612"
    },
    {
      "channel": 2,
      "note": 61,
      "start": 68.9654,
      "duration": 0.0419,
      "velocity": 103,
      "chip": "ym2612"
    },
    {
      "channel": 0,
      "note": 41,
      "start": 69.0035,
      "duration": 0.0254,
      "velocity": 109,
      "chip": "ym2612"
    },
    {
      "channel": 2,
      "note": 45,
      "start": 69.0078,
      "duration": 0.0256,
      "velocity": 103,
      "chip": "ym2612"
    },
    {
      "channel": 0,
      "note": 42,
      "start": 69.0295,
      "duration": 0.4839,
      "velocity": 109,
      "chip": "ym2612"
    },
    {
      "channel": 2,
      "note": 57,
      "start": 69.034,
      "duration": 0.038,
      "velocity": 103,
      "chip": "ym2612"
    },
    {
      "channel": 3,
      "note": 74,
      "start": 69.0348,
      "duration": 0.1419,
      "velocity": 103,
      "chip": "ym2612"
    },
    {
      "channel": 2,
      "note": 45,
      "start": 69.0726,
      "duration": 0.1034,
      "velocity": 103,
      "chip": "ym2612"
    },
    {
      "channel": 2,
      "note": 57,
      "start": 69.1766,
      "duration": 0.0375,
      "velocity": 103,
      "chip": "ym2612"
    },
    {
      "channel": 4,
      "note": 74,
      "start": 69.1844,
      "duration": 0.1633,
      "velocity": 103,
      "chip": "ym2612"
    },
    {
      "channel": 2,
      "note": 45,
      "start": 69.2146,
      "duration": 0.0994,
      "velocity": 103,
      "chip": "ym2612"
    },
    {
      "channel": 2,
      "note": 59,
      "start": 69.3146,
      "duration": 0.116,
      "velocity": 103,
      "chip": "ym2612"
    },
    {
      "channel": 2,
      "note": 45,
      "start": 69.4312,
      "duration": 0.0865,
      "velocity": 103,
      "chip": "ym2612"
    },
    {
      "channel": 0,
      "note": 30,
      "start": 69.514,
      "duration": 0.1473,
      "velocity": 109,
      "chip": "ym2612"
    },
    {
      "channel": 2,
      "note": 61,
      "start": 69.5183,
      "duration": 0.0217,
      "velocity": 103,
      "chip": "ym2612"
    },
    {
      "channel": 3,
      "note": 78,
      "start": 69.519,
      "duration": 0.1476,
      "velocity": 103,
      "chip": "ym2612"
    },
    {
      "channel": 2,
      "note": 45,
      "start": 69.5405,
      "duration": 0.0213,
      "velocity": 103,
      "chip": "ym2612"
    },
    {
      "channel": 2,
      "note": 62,
      "start": 69.5624,
      "duration": 0.0258,
      "velocity": 103,
      "chip": "ym2612"
    },
    {
      "channel": 4,
      "note": 78,
      "start": 69.5744,
      "duration": 0.2784,
      "velocity": 103,
      "chip": "ym2612"
    },
    {
      "channel": 2,
      "note": 45,
      "start": 69.5888,
      "duration": 0.0278,
      "velocity": 103,
      "chip": "ym2612"
    },
    {
      "channel": 2,
      "note": 61,
      "start": 69.6172,
      "duration": 0.0222,
      "velocity": 103,
      "chip": "ym2612"
    },
    {
      "channel": 2,
      "note": 45,
      "start": 69.6399,
      "duration": 0.0261,
      "velocity": 103,
      "chip": "ym2612"
    },
    {
      "channel": 0,
      "note": 42,
      "start": 69.6618,
      "duration": 0.3202,
      "velocity": 109,
      "chip": "ym2612"
    },
    {
      "channel": 2,
      "note": 59,
      "start": 69.6665,
      "duration": 0.0898,
      "velocity": 103,
      "chip": "ym2612"
    },
    {
      "channel": 3,
      "note": 78,
      "start": 69.6673,
      "duration": 0.3205,
      "velocity": 103,
      "chip": "ym2612"
    },
    {
      "channel": 2,
      "note": 45,
      "start": 69.7569,
      "duration": 0.0869,
      "velocity": 103,
      "chip": "ym2612"
    },
    {
      "channel": 2,
      "note": 61,
      "start": 69.8443,
      "duration": 0.0549,
      "velocity": 103,
      "chip": "ym2612"
    },
    {
      "channel": 4,
      "note": 78,
      "start": 69.8534,
      "duration": 0.267,
      "velocity": 103,
      "chip": "ym2612"
    },
    {
      "channel": 2,
      "note": 45,
      "start": 69.8998,
      "duration": 0.0873,
      "velocity": 103,
      "chip": "ym2612"
    },
    {
      "channel": 0,
      "note": 29,
      "start": 69.9825,
      "duration": 0.0253,
      "velocity": 109,
      "chip": "ym2612"
    },
    {
      "channel": 1,
      "note": 65,
      "start": 69.9869,
      "duration": 1.5948,
      "velocity": 103,
      "chip": "ym2612"
    },
    {
      "channel": 2,
      "note": 57,
      "start": 69.9877,
      "duration": 0.0371,
      "velocity": 103,
      "chip": "ym2612"
    },
    {
      "channel": 2,
      "note": 45,
      "start": 70.0254,
      "duration": 0.0871,
      "velocity": 103,
      "chip": "ym2612"
    },
    {
      "channel": 0,
      "note": 29,
      "start": 70.1086,
      "duration": 0.7356,
      "velocity": 109,
      "chip": "ym2612"
    },
    {
      "channel": 2,
      "note": 57,
      "start": 70.113,
      "duration": 0.0539,
      "velocity": 103,
      "chip": "ym2612"
    },
    {
      "channel": 2,
      "note": 45,
      "start": 70.1674,
      "duration": 0.0996,
      "velocity": 103,
      "chip": "ym2612"
    },
    {
      "channel": 2,
      "note": 59,
      "start": 70.2676,
      "duration": 0.0994,
      "velocity": 103,
      "chip": "ym2612"
    },
    {
      "channel": 2,
      "note": 45,
      "start": 70.3676,
      "duration": 0.103,
      "velocity": 103,
      "chip": "ym2612"
    },
    {
      "channel": 2,
      "note": 61,
      "start": 70.4712,
      "duration": 0.0222,
      "velocity": 103,
      "chip": "ym2612"
    },
    {
      "channel": 3,
      "note": 77,
      "start": 70.4719,
      "duration": 0.0437,
      "velocity": 103,
      "chip": "ym2612"
    },
    {
      "channel": 2,
      "note": 45,
      "start": 70.4939,
      "duration": 0.0209,
      "velocity": 103,
      "chip": "ym2612"
    },
    {
      "channel": 2,
      "note": 62,
      "start": 70.5154,
      "duration": 0.0227,
      "velocity": 103,
      "chip": "ym2612"
    },
    {
      "channel": 3,
      "note": 81,
      "start": 70.5161,
      "duration": 0.0539,
      "velocity": 103,
      "chip": "ym2612"
    },
    {
      "channel": 4,
      "note": 77,
      "start": 70.5243,
      "duration": 0.0543,
      "velocity": 103,
      "chip": "ym2612"
    },
    {
      "channel": 2,
      "note": 45,
      "start": 70.5387,
      "duration": 0.0306,
      "velocity": 103,
      "chip": "ym2612"
    },
    {
      "channel": 2,
      "note": 61,
      "start": 70.5699,
      "duration": 0.0231,
      "velocity": 103,
      "chip": "ym2612"
    },
    {
      "channel": 3,
      "note": 79,
      "start": 70.5707,
      "duration": 0.0456,
      "velocity": 103,
      "chip": "ym2612"
    },
    {
      "channel": 4,
      "note": 81,
      "start": 70.5791,
      "duration": 0.0473,
      "velocity": 103,
      "chip": "ym2612"
    },
    {
      "channel": 2,
      "note": 45,
      "start": 70.5936,
      "duration": 0.022,
      "velocity": 103,
      "chip": "ym2612"
    },
    {
      "channel": 2,
      "note": 59,
      "start": 70.6162,
      "duration": 0.0931,
      "velocity": 103,
      "chip": "ym2612"
    },
    {
      "channel": 3,
      "note": 77,
      "start": 70.617,
      "duration": 0.1803,
      "velocity": 103,
      "chip": "ym2612"
    },
    {
      "channel": 4,
      "note": 79,
      "start": 70.6271,
      "duration": 0.1787,
      "velocity": 103,
      "chip": "ym2612"
    },
    {
      "channel": 2,
      "note": 45,
      "start": 70.7098,
      "duration": 0.0867,
      "velocity": 103,
      "chip": "ym2612"
    },
    {
      "channel": 2,
      "note": 61,
      "start": 70.7971,
      "duration": 0.0254,
      "velocity": 103,
      "chip": "ym2612"
    },
    {
      "channel": 3,
      "note": 84,
      "start": 70.7979,
      "duration": 0.1942,
      "velocity": 103,
      "chip": "ym2612"
    },
    {
      "channel": 4,
      "note": 77,
      "start": 70.8063,
      "duration": 0.0552,
      "velocity": 103,
      "chip": "ym2612"
    },
    {
      "channel": 2,
      "note": 45,
      "start": 70.8231,
      "duration": 0.0296,
      "velocity": 103,
      "chip": "ym2612"
    },
    {
      "channel": 0,
      "note": 41,
      "start": 70.8447,
      "duration": 0.4839,
      "velocity": 109,
      "chip": "ym2612"
    },
    {
      "channel": 2,
      "note": 57,
      "start": 70.8533,
      "duration": 0.0506,
      "velocity": 103,
      "chip": "ym2612"
    },
    {
      "channel": 4,
      "note": 84,
      "start": 70.8622,
      "duration": 0.3176,
      "velocity": 103,
      "chip": "ym2612"
    },
    {
      "channel": 2,
      "note": 45,
      "start": 70.9044,
      "duration": 0.0869,
      "velocity": 103,
      "chip": "ym2612"
    },
    {
      "channel": 2,
      "note": 57,
      "start": 70.992,
      "duration": 0.0373,
      "velocity": 103,
      "chip": "ym2612"
    },
    {
      "channel": 3,
      "note": 81,
      "start": 70.9927,
      "duration": 0.1539,
      "velocity": 103,
      "chip": "ym2612"
    },
    {
      "channel": 2,
      "note": 45,
      "start": 71.0298,
      "duration": 0.116,
      "velocity": 103,
      "chip": "ym2612"
    },
    {
      "channel": 2,
      "note": 59,
      "start": 71.1464,
      "duration": 0.0994,
      "velocity": 103,
      "chip": "ym2612"
    },
    {
      "channel": 3,
      "note": 83,
      "start": 71.1471,
      "duration": 0.1869,
      "velocity": 103,
      "chip": "ym2612"
    },
    {
      "channel": 4,
      "note": 81,
      "start": 71.1803,
      "duration": 0.162,
      "velocity": 103,
      "chip": "ym2612"
    },
    {
      "channel": 2,
      "note": 45,
      "start": 71.2464,
      "duration": 0.0869,
      "velocity": 103,
      "chip": "ym2612"
    },
    {
      "channel": 0,
      "note": 29,
      "start": 71.3291,
      "duration": 0.1478,
      "velocity": 109,
      "chip": "ym2612"
    },
    {
      "channel": 2,
      "note": 61,
      "start": 71.3339,
      "duration": 0.0268,
      "velocity": 103,
      "chip": "ym2612"
    },
    {
      "channel": 3,
      "note": 84,
      "start": 71.3346,
      "duration": 0.0967,
      "velocity": 103,
      "chip": "ym2612"
    },
    {
      "channel": 4,
      "note": 83,
      "start": 71.343,
      "duration": 0.049,
      "velocity": 103,
      "chip": "ym2612"
    },
    {
      "channel": 2,
      "note": 45,
      "start": 71.3613,
      "duration": 0.0219,
      "velocity": 103,
      "chip": "ym2612"
    },
    {
      "channel": 2,
      "note": 62,
      "start": 71.3837,
      "duration": 0.0234,
      "velocity": 103,
      "chip": "ym2612"
    },
    {
      "channel": 4,
      "note": 84,
      "start": 71.3926,
      "duration": 0.0984,
      "velocity": 103,
      "chip": "ym2612"
    },
    {
      "channel": 2,
      "note": 45,
      "start": 71.4077,
      "duration": 0.0229,
      "velocity": 103,
      "chip": "ym2612"
    },
    {
      "channel": 2,
      "note": 61,
      "start": 71.4312,
      "duration": 0.0267,
      "velocity": 103,
      "chip": "ym2612"
    },
    {
      "channel": 3,
      "note": 83,
      "start": 71.4319,
      "duration": 0.0507,
      "velocity": 103,
      "chip": "ym2612"
    },
    {
      "channel": 2,
      "note": 45,
      "start": 71.4585,
      "duration": 0.0234,
      "velocity": 103,
      "chip": "ym2612"
    },
    {
      "channel": 0,
      "note": 43,
      "start": 71.4775,
      "duration": 0.0976,
      "velocity": 109,
      "chip": "ym2612"
    },
    {
      "channel": 2,
      "note": 59,
      "start": 71.4825,
      "duration": 0.024,
      "velocity": 103,
      "chip": "ym2612"
    },
    {
      "channel": 3,
      "note": 81,
      "start": 71.4832,
      "duration": 0.1,
      "velocity": 103,
      "chip": "ym2612"
    },
    {
      "channel": 4,
      "note": 83,
      "start": 71.4916,
      "duration": 0.0503,
      "velocity": 103,
      "chip": "ym2612"
    },
    {
      "channel": 2,
      "note": 45,
      "start": 71.5071,
      "duration": 0.0262,
      "velocity": 103,
      "chip": "ym2612"
    },
    {
      "channel": 2,
      "note": 61,
      "start": 71.5338,
      "duration": 0.0227,
      "velocity": 103,
      "chip": "ym2612"
    },
    {
      "channel": 4,
      "note": 81,
      "start": 71.5426,
      "duration": 0.101,
      "velocity": 103,
      "chip": "ym2612"
    },
    {
      "channel": 2,
      "note": 45,
      "start": 71.5571,
      "duration": 0.0254,
      "velocity": 103,
      "chip": "ym2612"
    },
    {
      "channel": 0,
      "note": 33,
      "start": 71.5757,
      "duration": 0.8185,
      "velocity": 109,
      "chip": "ym2612"
    },
    {
      "channel": 1,
      "note": 69,
      "start": 71.5822,
      "duration": 1.7703,
      "velocity": 103,
      "chip": "ym2612"
    },
    {
      "channel": 2,
      "note": 57,
      "start": 71.583,
      "duration": 0.0254,
      "velocity": 103,
      "chip": "ym2612"
    },
    {
      "channel": 3,
      "note": 93,
      "start": 71.5839,
      "duration": 0.0292,
      "velocity": 103,
      "chip": "ym2612"
    },
    {
      "channel": 2,
      "note": 45,
      "start": 71.609,
      "duration": 0.0252,
      "velocity": 103,
      "chip": "ym2612"
    },
    {
      "channel": 2,
      "note": 57,
      "start": 71.6348,
      "duration": 0.0644,
      "velocity": 103,
      "chip": "ym2612"
    },
    {
      "channel": 3,
      "note": 93,
      "start": 71.6356,
      "duration": 0.6953,
      "velocity": 103,
      "chip": "ym2612"
    },
    {
      "channel": 4,
      "note": 93,
      "start": 71.6442,
      "duration": 0.1055,
      "velocity": 103,
      "chip": "ym2612"
    },
    {
      "channel": 2,
      "note": 45,
      "start": 71.6998,
      "duration": 0.0994,
      "velocity": 103,
      "chip": "ym2612"
    },
    {
      "channel": 2,
      "note": 59,
      "start": 71.7998,
      "duration": 0.1161,
      "velocity": 103,
      "chip": "ym2612"
    },
    {
      "channel": 4,
      "note": 93,
      "start": 71.8503,
      "duration": 0.5583,
      "velocity": 103,
      "chip": "ym2612"
    },
    {
      "channel": 2,
      "note": 45,
      "start": 71.9164,
      "duration": 0.0867,
      "velocity": 103,
      "chip": "ym2612"
    },
    {
      "channel": 2,
      "note": 61,
      "start": 72.0037,
      "duration": 0.0225,
      "velocity": 103,
      "chip": "ym2612"
    },
    {
      "channel": 2,
      "note": 45,
      "start": 72.0268,
      "duration": 0.0261,
      "velocity": 103,
      "chip": "ym2612"
    },
    {
      "channel": 2,
      "note": 62,
      "start": 72.0535,
      "duration": 0.0229,
      "velocity": 103,
      "chip": "ym2612"
    },
    {
      "channel": 2,
      "note": 45,
      "start": 72.077,
      "duration": 0.0258,
      "velocity": 103,
      "chip": "ym2612"
    },
    {
      "channel": 2,
      "note": 61,
      "start": 72.1033,
      "duration": 0.0235,
      "velocity": 103,
      "chip": "ym2612"
    },
    {
      "channel": 2,
      "note": 45,
      "start": 72.1274,
      "duration": 0.0272,
      "velocity": 103,
      "chip": "ym2612"
    },
    {
      "channel": 2,
      "note": 59,
      "start": 72.1551,
      "duration": 0.0876,
      "velocity": 103,
      "chip": "ym2612"
    },
    {
      "channel": 2,
      "note": 45,
      "start": 72.2432,
      "duration": 0.0869,
      "velocity": 103,
      "chip": "ym2612"
    },
    {
      "channel": 2,
      "note": 61,
      "start": 72.3307,
      "duration": 0.042,
      "velocity": 103,
      "chip": "ym2612"
    },
    {
      "channel": 3,
      "note": 81,
      "start": 72.3315,
      "duration": 0.042,
      "velocity": 103,
      "chip": "ym2612"
    },
    {
      "channel": 2,
      "note": 45,
      "start": 72.3733,
      "duration": 0.0258,
      "velocity": 103,
      "chip": "ym2612"
    },
    {
      "channel": 3,
      "note": 85,
      "start": 72.3741,
      "duration": 0.0258,
      "velocity": 103,
      "chip": "ym2612"
    },
    {
      "channel": 0,
      "note": 45,
      "start": 72.3947,
      "duration": 0.4839,
      "velocity": 109,
      "chip": "ym2612"
    },
    {
      "channel": 2,
      "note": 57,
      "start": 72.3997,
      "duration": 0.0375,
      "velocity": 103,
      "chip": "ym2612"
    },
    {
      "channel": 3,
      "note": 86,
      "start": 72.4005,
      "duration": 0.4837,
      "velocity": 103,
      "chip": "ym2612"
    },
    {
      "channel": 4,
      "note": 81,
      "start": 72.4093,
      "duration": 0.0619,
      "velocity": 103,
      "chip": "ym2612"
    },
    {
      "channel": 2,
      "note": 45,
      "start": 72.4378,
      "duration": 0.1036,
      "velocity": 103,
      "chip": "ym2612"
    },
    {
      "channel": 4,
      "note": 85,
      "start": 72.4717,
      "duration": 0.0784,
      "velocity": 103,
      "chip": "ym2612"
    },
    {
      "channel": 2,
      "note": 57,
      "start": 72.5419,
      "duration": 0.0373,
      "velocity": 103,
      "chip": "ym2612"
    },
    {
      "channel": 4,
      "note": 86,
      "start": 72.5507,
      "duration": 0.387,
      "velocity": 103,
      "chip": "ym2612"
    },
    {
      "channel": 2,
      "note": 45,
      "start": 72.5798,
      "duration": 0.0994,
      "velocity": 103,
      "chip": "ym2612"
    },
    {
      "channel": 2,
      "note": 59,
      "start": 72.6798,
      "duration": 0.0994,
      "velocity": 103,
      "chip": "ym2612"
    },
    {
      "channel": 2,
      "note": 45,
      "start": 72.7798,
      "duration": 0.1036,
      "velocity": 103,
      "chip": "ym2612"
    },
    {
      "channel": 0,
      "note": 33,
      "start": 72.8791,
      "duration": 0.1449,
      "velocity": 109,
      "chip": "ym2612"
    },
    {
      "channel": 2,
      "note": 61,
      "start": 72.884,
      "duration": 0.0223,
      "velocity": 103,
      "chip": "ym2612"
    },
    {
      "channel": 3,
      "note": 85,
      "start": 72.8847,
      "duration": 0.0989,
      "velocity": 103,
      "chip": "ym2612"
    },
    {
      "channel": 2,
      "note": 45,
      "start": 72.9068,
      "duration": 0.0218,
      "velocity": 103,
      "chip": "ym2612"
    },
    {
      "channel": 2,
      "note": 62,
      "start": 72.9292,
      "duration": 0.0267,
      "velocity": 103,
      "chip": "ym2612"
    },
    {
      "channel": 4,
      "note": 85,
      "start": 72.9384,
      "duration": 0.1181,
      "velocity": 103,
      "chip": "ym2612"
    },
    {
      "channel": 2,
      "note": 45,
      "start": 72.9565,
      "duration": 0.0264,
      "velocity": 103,
      "chip": "ym2612"
    },
    {
      "channel": 2,
      "note": 61,
      "start": 72.9834,
      "duration": 0.0226,
      "velocity": 103,
      "chip": "ym2612"
    },
    {
      "channel": 3,
      "note": 81,
      "start": 72.9842,
      "duration": 0.37,
      "velocity": 103,
      "chip": "ym2612"
    },
    {
      "channel": 2,
      "note": 45,
      "start": 73.0066,
      "duration": 0.0256,
      "velocity": 103,
      "chip": "ym2612"
    },
    {
      "channel": 0,
      "note": 45,
      "start": 73.0246,
      "duration": 0.3235,
      "velocity": 109,
      "chip": "ym2612"
    },
    {
      "channel": 2,
      "note": 59,
      "start": 73.0328,
      "duration": 0.0897,
      "velocity": 103,
      "chip": "ym2612"
    },
    {
      "channel": 4,
      "note": 81,
      "start": 73.0571,
      "duration": 0.4307,
      "velocity": 103,
      "chip": "ym2612"
    },
    {
      "channel": 2,
      "note": 45,
      "start": 73.1231,
      "duration": 0.0869,
      "velocity": 103,
      "chip": "ym2612"
    },
    {
      "channel": 2,
      "note": 61,
      "start": 73.2106,
      "duration": 0.0382,
      "velocity": 103,
      "chip": "ym2612"
    },
    {
      "channel": 2,
      "note": 45,
      "start": 73.2493,
      "duration": 0.1041,
      "velocity": 103,
      "chip": "ym2612"
    },
    {
      "channel": 0,
      "note": 31,
      "start": 73.3487,
      "duration": 0.0251,
      "velocity": 109,
      "chip": "ym2612"
    },
    {
      "channel": 1,
      "note": 67,
      "start": 73.3531,
      "duration": 1.5802,
      "velocity": 103,
      "chip": "ym2612"
    },
    {
      "channel": 2,
      "note": 57,
      "start": 73.3539,
      "duration": 0.0368,
      "velocity": 103,
      "chip": "ym2612"
    },
    {
      "channel": 3,
      "note": 93,
      "start": 73.3548,
      "duration": 0.053,
      "velocity": 103,
      "chip": "ym2612"
    },
    {
      "channel": 2,
      "note": 45,
      "start": 73.3914,
      "duration": 0.0871,
      "velocity": 103,
      "chip": "ym2612"
    },
    {
      "channel": 0,
      "note": 31,
      "start": 73.4746,
      "duration": 0.7243,
      "velocity": 109,
      "chip": "ym2612"
    },
    {
      "channel": 2,
      "note": 57,
      "start": 73.479,
      "duration": 0.0539,
      "velocity": 103,
      "chip": "ym2612"
    },
    {
      "channel": 3,
      "note": 93,
      "start": 73.4798,
      "duration": 0.6725,
      "velocity": 103,
      "chip": "ym2612"
    },
    {
      "channel": 4,
      "note": 93,
      "start": 73.4884,
      "duration": 0.0951,
      "velocity": 103,
      "chip": "ym2612"
    },
    {
      "channel": 2,
      "note": 45,
      "start": 73.5334,
      "duration": 0.0996,
      "velocity": 103,
      "chip": "ym2612"
    },
    {
      "channel": 2,
      "note": 59,
      "start": 73.6337,
      "duration": 0.0994,
      "velocity": 103,
      "chip": "ym2612"
    },
    {
      "channel": 4,
      "note": 93,
      "start": 73.6676,
      "duration": 0.5496,
      "velocity": 103,
      "chip": "ym2612"
    },
    {
      "channel": 2,
      "note": 45,
      "start": 73.7337,
      "duration": 0.0867,
      "velocity": 103,
      "chip": "ym2612"
    },
    {
      "channel": 2,
      "note": 61,
      "start": 73.821,
      "duration": 0.0268,
      "velocity": 103,
      "chip": "ym2612"
    },
    {
      "channel": 2,
      "note": 45,
      "start": 73.8483,
      "duration": 0.0224,
      "velocity": 103,
      "chip": "ym2612"
    },
    {
      "channel": 2,
      "note": 62,
      "start": 73.8712,
      "duration": 0.0229,
      "velocity": 103,
      "chip": "ym2612"
    },
    {
      "channel": 2,
      "note": 45,
      "start": 73.8947,
      "duration": 0.0295,
      "velocity": 103,
      "chip": "ym2612"
    },
    {
      "channel": 2,
      "note": 61,
      "start": 73.9248,
      "duration": 0.0234,
      "velocity": 103,
      "chip": "ym2612"
    },
    {
      "channel": 2,
      "note": 45,
      "start": 73.9488,
      "duration": 0.0232,
      "velocity": 103,
      "chip": "ym2612"
    },
    {
      "channel": 2,
      "note": 59,
      "start": 73.9726,
      "duration": 0.0914,
      "velocity": 103,
      "chip": "ym2612"
    },
    {
      "channel": 2,
      "note": 45,
      "start": 74.0646,
      "duration": 0.087,
      "velocity": 103,
      "chip": "ym2612"
    },
    {
      "channel": 2,
      "note": 61,
      "start": 74.1522,
      "duration": 0.0253,
      "velocity": 103,
      "chip": "ym2612"
    },
    {
      "channel": 3,
      "note": 81,
      "start": 74.1529,
      "duration": 0.0253,
      "velocity": 103,
      "chip": "ym2612"
    },
    {
      "channel": 2,
      "note": 45,
      "start": 74.178,
      "duration": 0.0259,
      "velocity": 103,
      "chip": "ym2612"
    },
    {
      "channel": 3,
      "note": 85,
      "start": 74.1788,
      "duration": 0.0259,
      "velocity": 103,
      "chip": "ym2612"
    },
    {
      "channel": 0,
      "note": 43,
      "start": 74.1994,
      "duration": 0.4838,
      "velocity": 109,
      "chip": "ym2612"
    },
    {
      "channel": 2,
      "note": 57,
      "start": 74.2046,
      "duration": 0.0539,
      "velocity": 103,
      "chip": "ym2612"
    },
    {
      "channel": 3,
      "note": 86,
      "start": 74.2053,
      "duration": 0.4835,
      "velocity": 103,
      "chip": "ym2612"
    },
    {
      "channel": 4,
      "note": 81,
      "start": 74.2177,
      "duration": 0.0748,
      "velocity": 103,
      "chip": "ym2612"
    },
    {
      "channel": 2,
      "note": 45,
      "start": 74.2591,
      "duration": 0.0869,
      "velocity": 103,
      "chip": "ym2612"
    },
    {
      "channel": 4,
      "note": 85,
      "start": 74.2931,
      "duration": 0.0617,
      "velocity": 103,
      "chip": "ym2612"
    },
    {
      "channel": 2,
      "note": 57,
      "start": 74.3466,
      "duration": 0.0372,
      "velocity": 103,
      "chip": "ym2612"
    },
    {
      "channel": 4,
      "note": 86,
      "start": 74.3554,
      "duration": 0.3915,
      "velocity": 103,
      "chip": "ym2612"
    },
    {
      "channel": 2,
      "note": 45,
      "start": 74.3844,
      "duration": 0.116,
      "velocity": 103,
      "chip": "ym2612"
    },
    {
      "channel": 2,
      "note": 59,
      "start": 74.501,
      "duration": 0.0994,
      "velocity": 103,
      "chip": "ym2612"
    },
    {
      "channel": 2,
      "note": 45,
      "start": 74.601,
      "duration": 0.087,
      "velocity": 103,
      "chip": "ym2612"
    },
    {
      "channel": 0,
      "note": 31,
      "start": 74.6838,
      "duration": 0.1479,
      "velocity": 109,
      "chip": "ym2612"
    },
    {
      "channel": 2,
      "note": 61,
      "start": 74.6886,
      "duration": 0.0231,
      "velocity": 103,
      "chip": "ym2612"
    },
    {
      "channel": 3,
      "note": 85,
      "start": 74.6893,
      "duration": 0.0966,
      "velocity": 103,
      "chip": "ym2612"
    },
    {
      "channel": 2,
      "note": 45,
      "start": 74.7123,
      "duration": 0.0255,
      "velocity": 103,
      "chip": "ym2612"
    },
    {
      "channel": 2,
      "note": 62,
      "start": 74.7383,
      "duration": 0.0235,
      "velocity": 103,
      "chip": "ym2612"
    },
    {
      "channel": 4,
      "note": 85,
      "start": 74.7475,
      "duration": 0.0978,
      "velocity": 103,
      "chip": "ym2612"
    },
    {
      "channel": 2,
      "note": 45,
      "start": 74.7624,
      "duration": 0.0229,
      "velocity": 103,
      "chip": "ym2612"
    },
    {
      "channel": 2,
      "note": 61,
      "start": 74.7859,
      "duration": 0.0268,
      "velocity": 103,
      "chip": "ym2612"
    },
    {
      "channel": 3,
      "note": 81,
      "start": 74.7866,
      "duration": 0.1484,
      "velocity": 103,
      "chip": "ym2612"
    },
    {
      "channel": 2,
      "note": 45,
      "start": 74.8132,
      "duration": 0.0234,
      "velocity": 103,
      "chip": "ym2612"
    },
    {
      "channel": 0,
      "note": 43,
      "start": 74.8322,
      "duration": 0.0967,
      "velocity": 109,
      "chip": "ym2612"
    },
    {
      "channel": 2,
      "note": 59,
      "start": 74.8372,
      "duration": 0.0223,
      "velocity": 103,
      "chip": "ym2612"
    },
    {
      "channel": 4,
      "note": 81,
      "start": 74.8459,
      "duration": 0.1473,
      "velocity": 103,
      "chip": "ym2612"
    },
    {
      "channel": 2,
      "note": 45,
      "start": 74.8601,
      "duration": 0.0272,
      "velocity": 103,
      "chip": "ym2612"
    },
    {
      "channel": 2,
      "note": 61,
      "start": 74.8879,
      "duration": 0.0224,
      "velocity": 103,
      "chip": "ym2612"
    },
    {
      "channel": 2,
      "note": 45,
      "start": 74.9109,
      "duration": 0.0232,
      "velocity": 103,
      "chip": "ym2612"
    },
    {
      "channel": 0,
      "note": 30,
      "start": 74.9295,
      "duration": 0.022,
      "velocity": 109,
      "chip": "ym2612"
    },
    {
      "channel": 1,
      "note": 66,
      "start": 74.9339,
      "duration": 1.7671,
      "velocity": 103,
      "chip": "ym2612"
    },
    {
      "channel": 2,
      "note": 57,
      "start": 74.9348,
      "duration": 0.0202,
      "velocity": 103,
      "chip": "ym2612"
    },
    {
      "channel": 2,
      "note": 45,
      "start": 74.9555,
      "duration": 0.0292,
      "velocity": 103,
      "chip": "ym2612"
    },
    {
      "channel": 0,
      "note": 30,
      "start": 74.9808,
      "duration": 0.694,
      "velocity": 109,
      "chip": "ym2612"
    },
    {
      "channel": 2,
      "note": 57,
      "start": 74.9853,
      "duration": 0.0645,
      "velocity": 103,
      "chip": "ym2612"
    },
    {
      "channel": 2,
      "note": 45,
      "start": 75.0503,
      "duration": 0.0996,
      "velocity": 103,
      "chip": "ym2612"
    },
    {
      "channel": 2,
      "note": 59,
      "start": 75.1505,
      "duration": 0.1162,
      "velocity": 103,
      "chip": "ym2612"
    },
    {
      "channel": 3,
      "note": 78,
      "start": 75.1512,
      "duration": 0.2032,
      "velocity": 103,
      "chip": "ym2612"
    },
    {
      "channel": 2,
      "note": 45,
      "start": 75.2672,
      "duration": 0.0865,
      "velocity": 103,
      "chip": "ym2612"
    },
    {
      "channel": 2,
      "note": 61,
      "start": 75.3543,
      "duration": 0.0219,
      "velocity": 103,
      "chip": "ym2612"
    },
    {
      "channel": 4,
      "note": 78,
      "start": 75.3622,
      "duration": 0.0476,
      "velocity": 103,
      "chip": "ym2612"
    },
    {
      "channel": 2,
      "note": 45,
      "start": 75.3768,
      "duration": 0.0211,
      "velocity": 103,
      "chip": "ym2612"
    },
    {
      "channel": 2,
      "note": 62,
      "start": 75.3984,
      "duration": 0.0239,
      "velocity": 103,
      "chip": "ym2612"
    },
    {
      "channel": 2,
      "note": 45,
      "start": 75.4229,
      "duration": 0.029,
      "velocity": 103,
      "chip": "ym2612"
    },
    {
      "channel": 2,
      "note": 61,
      "start": 75.4525,
      "duration": 0.0215,
      "velocity": 103,
      "chip": "ym2612"
    },
    {
      "channel": 3,
      "note": 81,
      "start": 75.4532,
      "duration": 0.0459,
      "velocity": 103,
      "chip": "ym2612"
    },
    {
      "channel": 2,
      "note": 45,
      "start": 75.4745,
      "duration": 0.0239,
      "velocity": 103,
      "chip": "ym2612"
    },
    {
      "channel": 2,
      "note": 59,
      "start": 75.499,
      "duration": 0.0931,
      "velocity": 103,
      "chip": "ym2612"
    },
    {
      "channel": 4,
      "note": 81,
      "start": 75.5263,
      "duration": 0.1612,
      "velocity": 103,
      "chip": "ym2612"
    },
    {
      "channel": 2,
      "note": 45,
      "start": 75.5926,
      "duration": 0.0867,
      "velocity": 103,
      "chip": "ym2612"
    },
    {
      "channel": 0,
      "note": 40,
      "start": 75.6754,
      "duration": 0.0421,
      "velocity": 109,
      "chip": "ym2612"
    },
    {
      "channel": 2,
      "note": 61,
      "start": 75.68,
      "duration": 0.0419,
      "velocity": 103,
      "chip": "ym2612"
    },
    {
      "channel": 0,
      "note": 41,
      "start": 75.7181,
      "duration": 0.0255,
      "velocity": 109,
      "chip": "ym2612"
    },
    {
      "channel": 2,
      "note": 45,
      "start": 75.7224,
      "duration": 0.0257,
      "velocity": 103,
      "chip": "ym2612"
    },
    {
      "channel": 0,
      "note": 42,
      "start": 75.7441,
      "duration": 0.484,
      "velocity": 109,
      "chip": "ym2612"
    },
    {
      "channel": 2,
      "note": 57,
      "start": 75.7487,
      "duration": 0.038,
      "velocity": 103,
      "chip": "ym2612"
    },
    {
      "channel": 3,
      "note": 74,
      "start": 75.7494,
      "duration": 0.1252,
      "velocity": 103,
      "chip": "ym2612"
    },
    {
      "channel": 2,
      "note": 45,
      "start": 75.7872,
      "duration": 0.0867,
      "velocity": 103,
      "chip": "ym2612"
    },
    {
      "channel": 2,
      "note": 57,
      "start": 75.8744,
      "duration": 0.0543,
      "velocity": 103,
      "chip": "ym2612"
    },
    {
      "channel": 4,
      "note": 74,
      "start": 75.8857,
      "duration": 0.1767,
      "velocity": 103,
      "chip": "ym2612"
    },
    {
      "channel": 2,
      "note": 45,
      "start": 75.9293,
      "duration": 0.0994,
      "velocity": 103,
      "chip": "ym2612"
    },
    {
      "channel": 2,
      "note": 59,
      "start": 76.0293,
      "duration": 0.0994,
      "velocity": 103,
      "chip": "ym2612"
    },
    {
      "channel": 2,
      "note": 45,
      "start": 76.1293,
      "duration": 0.1031,
      "velocity": 103,
      "chip": "ym2612"
    },
    {
      "channel": 0,
      "note": 30,
      "start": 76.2286,
      "duration": 0.1435,
      "velocity": 109,
      "chip": "ym2612"
    },
    {
      "channel": 2,
      "note": 61,
      "start": 76.2329,
      "duration": 0.0217,
      "velocity": 103,
      "chip": "ym2612"
    },
    {
      "channel": 3,
      "note": 78,
      "start": 76.2337,
      "duration": 0.1439,
      "velocity": 103,
      "chip": "ym2612"
    },
    {
      "channel": 2,
      "note": 45,
      "start": 76.2552,
      "duration": 0.0213,
      "velocity": 103,
      "chip": "ym2612"
    },
    {
      "channel": 2,
      "note": 62,
      "start": 76.2771,
      "duration": 0.026,
      "velocity": 103,
      "chip": "ym2612"
    },
    {
      "channel": 4,
      "note": 78,
      "start": 76.2856,
      "duration": 0.282,
      "velocity": 103,
      "chip": "ym2612"
    },
    {
      "channel": 2,
      "note": 45,
      "start": 76.3036,
      "duration": 0.0277,
      "velocity": 103,
      "chip": "ym2612"
    },
    {
      "channel": 2,
      "note": 61,
      "start": 76.3319,
      "duration": 0.0222,
      "velocity": 103,
      "chip": "ym2612"
    },
    {
      "channel": 2,
      "note": 45,
      "start": 76.3546,
      "duration": 0.0223,
      "velocity": 103,
      "chip": "ym2612"
    },
    {
      "channel": 0,
      "note": 42,
      "start": 76.3727,
      "duration": 0.324,
      "velocity": 109,
      "chip": "ym2612"
    },
    {
      "channel": 2,
      "note": 59,
      "start": 76.3775,
      "duration": 0.0935,
      "velocity": 103,
      "chip": "ym2612"
    },
    {
      "channel": 3,
      "note": 78,
      "start": 76.3783,
      "duration": 0.3243,
      "velocity": 103,
      "chip": "ym2612"
    },
    {
      "channel": 2,
      "note": 45,
      "start": 76.4716,
      "duration": 0.0871,
      "velocity": 103,
      "chip": "ym2612"
    },
    {
      "channel": 2,
      "note": 61,
      "start": 76.5592,
      "duration": 0.0381,
      "velocity": 103,
      "chip": "ym2612"
    },
    {
      "channel": 4,
      "note": 78,
      "start": 76.5682,
      "duration": 0.2668,
      "velocity": 103,
      "chip": "ym2612"
    },
    {
      "channel": 2,
      "note": 45,
      "start": 76.5979,
      "duration": 0.104,
      "velocity": 103,
      "chip": "ym2612"
    },
    {
      "channel": 0,
      "note": 29,
      "start": 76.6972,
      "duration": 0.0253,
      "velocity": 109,
      "chip": "ym2612"
    },
    {
      "channel": 1,
      "note": 65,
      "start": 76.7016,
      "duration": 1.5892,
      "velocity": 103,
      "chip": "ym2612"
    },
    {
      "channel": 2,
      "note": 57,
      "start": 76.7024,
      "duration": 0.0371,
      "velocity": 103,
      "chip": "ym2612"
    },
    {
      "channel": 2,
      "note": 45,
      "start": 76.7401,
      "duration": 0.0871,
      "velocity": 103,
      "chip": "ym2612"
    },
    {
      "channel": 0,
      "note": 29,
      "start": 76.8233,
      "duration": 0.7309,
      "velocity": 109,
      "chip": "ym2612"
    },
    {
      "channel": 2,
      "note": 57,
      "start": 76.8277,
      "duration": 0.0372,
      "velocity": 103,
      "chip": "ym2612"
    },
    {
      "channel": 2,
      "note": 45,
      "start": 76.8655,
      "duration": 0.1163,
      "velocity": 103,
      "chip": "ym2612"
    },
    {
      "channel": 2,
      "note": 59,
      "start": 76.9824,
      "duration": 0.0994,
      "velocity": 103,
      "chip": "ym2612"
    },
    {
      "channel": 2,
      "note": 45,
      "start": 77.0824,
      "duration": 0.0863,
      "velocity": 103,
      "chip": "ym2612"
    },
    {
      "channel": 2,
      "note": 61,
      "start": 77.1693,
      "duration": 0.0251,
      "velocity": 103,
      "chip": "ym2612"
    },
    {
      "channel": 3,
      "note": 77,
      "start": 77.17,
      "duration": 0.0466,
      "velocity": 103,
      "chip": "ym2612"
    },
    {
      "channel": 2,
      "note": 45,
      "start": 77.1949,
      "duration": 0.021,
      "velocity": 103,
      "chip": "ym2612"
    },
    {
      "channel": 2,
      "note": 62,
      "start": 77.2164,
      "duration": 0.0227,
      "velocity": 103,
      "chip": "ym2612"
    },
    {
      "channel": 3,
      "note": 81,
      "start": 77.2171,
      "duration": 0.0501,
      "velocity": 103,
      "chip": "ym2612"
    },
    {
      "channel": 4,
      "note": 77,
      "start": 77.2253,
      "duration": 0.0504,
      "velocity": 103,
      "chip": "ym2612"
    },
    {
      "channel": 2,
      "note": 45,
      "start": 77.2398,
      "duration": 0.0268,
      "velocity": 103,
      "chip": "ym2612"
    },
    {
      "channel": 2,
      "note": 61,
      "start": 77.2671,
      "duration": 0.0231,
      "velocity": 103,
      "chip": "ym2612"
    },
    {
      "channel": 3,
      "note": 79,
      "start": 77.2678,
      "duration": 0.0454,
      "velocity": 103,
      "chip": "ym2612"
    },
    {
      "channel": 4,
      "note": 81,
      "start": 77.2764,
      "duration": 0.0601,
      "velocity": 103,
      "chip": "ym2612"
    },
    {
      "channel": 2,
      "note": 45,
      "start": 77.2907,
      "duration": 0.0218,
      "velocity": 103,
      "chip": "ym2612"
    },
    {
      "channel": 2,
      "note": 59,
      "start": 77.3131,
      "duration": 0.0894,
      "velocity": 103,
      "chip": "ym2612"
    },
    {
      "channel": 3,
      "note": 77,
      "start": 77.3139,
      "duration": 0.1933,
      "velocity": 103,
      "chip": "ym2612"
    },
    {
      "channel": 4,
      "note": 79,
      "start": 77.337,
      "duration": 0.1787,
      "velocity": 103,
      "chip": "ym2612"
    },
    {
      "channel": 2,
      "note": 45,
      "start": 77.4031,
      "duration": 0.1034,
      "velocity": 103,
      "chip": "ym2612"
    },
    {
      "channel": 2,
      "note": 61,
      "start": 77.5071,
      "duration": 0.0255,
      "velocity": 103,
      "chip": "ym2612"
    },
    {
      "channel": 3,
      "note": 84,
      "start": 77.5078,
      "duration": 0.1942,
      "velocity": 103,
      "chip": "ym2612"
    },
    {
      "channel": 4,
      "note": 77,
      "start": 77.5163,
      "duration": 0.0517,
      "velocity": 103,
      "chip": "ym2612"
    },
    {
      "channel": 2,
      "note": 45,
      "start": 77.5331,
      "duration": 0.0261,
      "velocity": 103,
      "chip": "ym2612"
    },
    {
      "channel": 0,
      "note": 41,
      "start": 77.5548,
      "duration": 0.4839,
      "velocity": 109,
      "chip": "ym2612"
    },
    {
      "channel": 2,
      "note": 57,
      "start": 77.5598,
      "duration": 0.0541,
      "velocity": 103,
      "chip": "ym2612"
    },
    {
      "channel": 4,
      "note": 84,
      "start": 77.5686,
      "duration": 0.3212,
      "velocity": 103,
      "chip": "ym2612"
    },
    {
      "channel": 2,
      "note": 45,
      "start": 77.6144,
      "duration": 0.0869,
      "velocity": 103,
      "chip": "ym2612"
    },
    {
      "channel": 2,
      "note": 57,
      "start": 77.702,
      "duration": 0.0373,
      "velocity": 103,
      "chip": "ym2612"
    },
    {
      "channel": 3,
      "note": 81,
      "start": 77.7027,
      "duration": 0.1373,
      "velocity": 103,
      "chip": "ym2612"
    },
    {
      "channel": 2,
      "note": 45,
      "start": 77.7398,
      "duration": 0.0994,
      "velocity": 103,
      "chip": "ym2612"
    },
    {
      "channel": 2,
      "note": 59,
      "start": 77.8398,
      "duration": 0.116,
      "velocity": 103,
      "chip": "ym2612"
    },
    {
      "channel": 3,
      "note": 83,
      "start": 77.8405,
      "duration": 0.2036,
      "velocity": 103,
      "chip": "ym2612"
    },
    {
      "channel": 4,
      "note": 81,
      "start": 77.8904,
      "duration": 0.162,
      "velocity": 103,
      "chip": "ym2612"
    },
    {
      "channel": 2,
      "note": 45,
      "start": 77.9564,
      "duration": 0.0869,
      "velocity": 103,
      "chip": "ym2612"
    },
    {
      "channel": 0,
      "note": 29,
      "start": 78.0392,
      "duration": 0.1479,
      "velocity": 109,
      "chip": "ym2612"
    },
    {
      "channel": 2,
      "note": 61,
      "start": 78.0439,
      "duration": 0.0232,
      "velocity": 103,
      "chip": "ym2612"
    },
    {
      "channel": 3,
      "note": 84,
      "start": 78.0446,
      "duration": 0.0968,
      "velocity": 103,
      "chip": "ym2612"
    },
    {
      "channel": 4,
      "note": 83,
      "start": 78.053,
      "duration": 0.049,
      "velocity": 103,
      "chip": "ym2612"
    },
    {
      "channel": 2,
      "note": 45,
      "start": 78.0677,
      "duration": 0.0255,
      "velocity": 103,
      "chip": "ym2612"
    },
    {
      "channel": 2,
      "note": 62,
      "start": 78.0938,
      "duration": 0.0234,
      "velocity": 103,
      "chip": "ym2612"
    },
    {
      "channel": 4,
      "note": 84,
      "start": 78.1027,
      "duration": 0.0985,
      "velocity": 103,
      "chip": "ym2612"
    },
    {
      "channel": 2,
      "note": 45,
      "start": 78.1178,
      "duration": 0.0229,
      "velocity": 103,
      "chip": "ym2612"
    },
    {
      "channel": 2,
      "note": 61,
      "start": 78.1413,
      "duration": 0.0268,
      "velocity": 103,
      "chip": "ym2612"
    },
    {
      "channel": 3,
      "note": 83,
      "start": 78.1421,
      "duration": 0.0507,
      "velocity": 103,
      "chip": "ym2612"
    },
    {
      "channel": 2,
      "note": 45,
      "start": 78.1687,
      "duration": 0.0233,
      "velocity": 103,
      "chip": "ym2612"
    },
    {
      "channel": 0,
      "note": 43,
      "start": 78.1876,
      "duration": 0.0986,
      "velocity": 109,
      "chip": "ym2612"
    },
    {
      "channel": 2,
      "note": 59,
      "start": 78.1926,
      "duration": 0.024,
      "velocity": 103,
      "chip": "ym2612"
    },
    {
      "channel": 3,
      "note": 81,
      "start": 78.1934,
      "duration": 0.099,
      "velocity": 103,
      "chip": "ym2612"
    },
    {
      "channel": 4,
      "note": 83,
      "start": 78.2018,
      "duration": 0.0514,
      "velocity": 103,
      "chip": "ym2612"
    },
    {
      "channel": 2,
      "note": 45,
      "start": 78.2172,
      "duration": 0.0235,
      "velocity": 103,
      "chip": "ym2612"
    },
    {
      "channel": 2,
      "note": 61,
      "start": 78.2413,
      "duration": 0.0264,
      "velocity": 103,
      "chip": "ym2612"
    },
    {
      "channel": 4,
      "note": 81,
      "start": 78.2538,
      "duration": 0.0971,
      "velocity": 103,
      "chip": "ym2612"
    },
    {
      "channel": 2,
      "note": 45,
      "start": 78.2683,
      "duration": 0.0233,
      "velocity": 103,
      "chip": "ym2612"
    },
    {
      "channel": 0,
      "note": 33,
      "start": 78.2868,
      "duration": 2.508,
      "velocity": 110,
      "chip": "ym2612"
    },
    {
      "channel": 1,
      "note": 69,
      "start": 78.2914,
      "duration": 2.5071,
      "velocity": 89,
      "chip": "ym2612"
    },
    {
      "channel": 2,
      "note": 57,
      "start": 78.2922,
      "duration": 0.0219,
      "velocity": 103,
      "chip": "ym2612"
    },
    {
      "channel": 3,
      "note": 93,
      "start": 78.293,
      "duration": 2.5094,
      "velocity": 111,
      "chip": "ym2612"
    },
    {
      "channel": 2,
      "note": 45,
      "start": 78.3147,
      "duration": 0.0248,
      "velocity": 103,
      "chip": "ym2612"
    },
    {
      "channel": 2,
      "note": 57,
      "start": 78.34,
      "duration": 0.077,
      "velocity": 103,
      "chip": "ym2612"
    },
    {
      "channel": 4,
      "note": 93,
      "start": 78.3516,
      "duration": 2.4547,
      "velocity": 111,
      "chip": "ym2612"
    },
    {
      "channel": 2,
      "note": 45,
      "start": 78.4176,
      "duration": 0.0994,
      "velocity": 103,
      "chip": "ym2612"
    },
    {
      "channel": 2,
      "note": 59,
      "start": 78.5176,
      "duration": 0.0994,
      "velocity": 103,
      "chip": "ym2612"
    },
    {
      "channel": 2,
      "note": 45,
      "start": 78.6176,
      "duration": 0.1035,
      "velocity": 103,
      "chip": "ym2612"
    },
    {
      "channel": 2,
      "note": 61,
      "start": 78.7217,
      "duration": 0.0238,
      "velocity": 103,
      "chip": "ym2612"
    },
    {
      "channel": 2,
      "note": 45,
      "start": 78.746,
      "duration": 0.0239,
      "velocity": 103,
      "chip": "ym2612"
    },
    {
      "channel": 2,
      "note": 62,
      "start": 78.7705,
      "duration": 0.0275,
      "velocity": 103,
      "chip": "ym2612"
    },
    {
      "channel": 2,
      "note": 45,
      "start": 78.7986,
      "duration": 0.0251,
      "velocity": 103,
      "chip": "ym2612"
    },
    {
      "channel": 2,
      "note": 61,
      "start": 78.8242,
      "duration": 0.0235,
      "velocity": 103,
      "chip": "ym2612"
    },
    {
      "channel": 2,
      "note": 45,
      "start": 78.8483,
      "duration": 0.0275,
      "velocity": 103,
      "chip": "ym2612"
    },
    {
      "channel": 2,
      "note": 59,
      "start": 78.8764,
      "duration": 0.0871,
      "velocity": 103,
      "chip": "ym2612"
    },
    {
      "channel": 2,
      "note": 45,
      "start": 78.964,
      "duration": 0.0869,
      "velocity": 103,
      "chip": "ym2612"
    },
    {
      "channel": 2,
      "note": 61,
      "start": 79.0515,
      "duration": 0.0256,
      "velocity": 103,
      "chip": "ym2612"
    },
    {
      "channel": 2,
      "note": 45,
      "start": 79.0776,
      "duration": 0.0427,
      "velocity": 103,
      "chip": "ym2612"
    },
    {
      "channel": 2,
      "note": 57,
      "start": 79.1209,
      "duration": 0.0375,
      "velocity": 103,
      "chip": "ym2612"
    },
    {
      "channel": 2,
      "note": 45,
      "start": 79.1589,
      "duration": 0.0869,
      "velocity": 103,
      "chip": "ym2612"
    },
    {
      "channel": 2,
      "note": 57,
      "start": 79.2464,
      "duration": 0.0538,
      "velocity": 103,
      "chip": "ym2612"
    },
    {
      "channel": 2,
      "note": 45,
      "start": 79.3007,
      "duration": 0.0994,
      "velocity": 103,
      "chip": "ym2612"
    },
    {
      "channel": 2,
      "note": 59,
      "start": 79.4007,
      "duration": 0.0994,
      "velocity": 103,
      "chip": "ym2612"
    },
    {
      "channel": 2,
      "note": 45,
      "start": 79.5007,
      "duration": 0.0909,
      "velocity": 103,
      "chip": "ym2612"
    },
    {
      "channel": 2,
      "note": 61,
      "start": 79.5922,
      "duration": 0.0244,
      "velocity": 103,
      "chip": "ym2612"
    },
    {
      "channel": 2,
      "note": 45,
      "start": 79.6172,
      "duration": 0.0242,
      "velocity": 103,
      "chip": "ym2612"
    },
    {
      "channel": 2,
      "note": 62,
      "start": 79.642,
      "duration": 0.0235,
      "velocity": 103,
      "chip": "ym2612"
    },
    {
      "channel": 2,
      "note": 45,
      "start": 79.6661,
      "duration": 0.0287,
      "velocity": 103,
      "chip": "ym2612"
    },
    {
      "channel": 2,
      "note": 61,
      "start": 79.6954,
      "duration": 0.0235,
      "velocity": 103,
      "chip": "ym2612"
    },
    {
      "channel": 2,
      "note": 45,
      "start": 79.7194,
      "duration": 0.0234,
      "velocity": 103,
      "chip": "ym2612"
    },
    {
      "channel": 2,
      "note": 59,
      "start": 79.7434,
      "duration": 0.0909,
      "velocity": 103,
      "chip": "ym2612"
    },
    {
      "channel": 2,
      "note": 45,
      "start": 79.8349,
      "duration": 0.0869,
      "velocity": 103,
      "chip": "ym2612"
    },
    {
      "channel": 2,
      "note": 61,
      "start": 79.9224,
      "duration": 0.038,
      "velocity": 103,
      "chip": "ym2612"
    },
    {
      "channel": 2,
      "note": 45,
      "start": 79.961,
      "duration": 0.0875,
      "velocity": 103,
      "chip": "ym2612"
    },
    {
      "channel": 2,
      "note": 57,
      "start": 80.0491,
      "duration": 0.0541,
      "velocity": 103,
      "chip": "ym2612"
    },
    {
      "channel": 2,
      "note": 45,
      "start": 80.1038,
      "duration": 0.0868,
      "velocity": 103,
      "chip": "ym2612"
    },
    {
      "channel": 2,
      "note": 57,
      "start": 80.1911,
      "duration": 0.0373,
      "velocity": 103,
      "chip": "ym2612"
    },
    {
      "channel": 2,
      "note": 45,
      "start": 80.229,
      "duration": 0.1161,
      "velocity": 103,
      "chip": "ym2612"
    },
    {
      "channel": 2,
      "note": 59,
      "start": 80.3456,
      "duration": 0.0994,
      "velocity": 103,
      "chip": "ym2612"
    },
    {
      "channel": 2,
      "note": 45,
      "start": 80.4456,
      "duration": 0.0867,
      "velocity": 103,
      "chip": "ym2612"
    },
    {
      "channel": 2,
      "note": 61,
      "start": 80.5329,
      "duration": 0.026,
      "velocity": 103,
      "chip": "ym2612"
    },
    {
      "channel": 2,
      "note": 45,
      "start": 80.5595,
      "duration": 0.023,
      "velocity": 103,
      "chip": "ym2612"
    },
    {
      "channel": 2,
      "note": 62,
      "start": 80.583,
      "duration": 0.0221,
      "velocity": 103,
      "chip": "ym2612"
    },
    {
      "channel": 2,
      "note": 45,
      "start": 80.6057,
      "duration": 0.0223,
      "velocity": 103,
      "chip": "ym2612"
    },
    {
      "channel": 2,
      "note": 61,
      "start": 80.6285,
      "duration": 0.0422,
      "velocity": 103,
      "chip": "ym2612"
    },
    {
      "channel": 2,
      "note": 45,
      "start": 80.6713,
      "duration": 0.0246,
      "velocity": 103,
      "chip": "ym2612"
    },
    {
      "channel": 2,
      "note": 59,
      "start": 80.6964,
      "duration": 0.0231,
      "velocity": 103,
      "chip": "ym2612"
    },
    {
      "channel": 2,
      "note": 45,
      "start": 80.72,
      "duration": 0.0266,
      "velocity": 103,
      "chip": "ym2612"
    },
    {
      "channel": 2,
      "note": 61,
      "start": 80.7472,
      "duration": 0.0229,
      "velocity": 103,
      "chip": "ym2612"
    },
    {
      "channel": 2,
      "note": 45,
      "start": 80.7707,
      "duration": 0.0285,
      "velocity": 103,
      "chip": "ym2612"
    },
    {
      "channel": 0,
      "note": 79,
      "start": 80.7955,
      "duration": 0.0339,
      "velocity": 110,
      "chip": "ym2612"
    },
    {
      "channel": 1,
      "note": 50,
      "start": 80.799,
      "duration": 0.0311,
      "velocity": 89,
      "chip": "ym2612"
    },
    {
      "channel": 3,
      "note": 65,
      "start": 80.8032,
      "duration": 0.6493,
      "velocity": 105,
      "chip": "ym2612"
    },
    {
      "channel": 4,
      "note": 65,
      "start": 80.807,
      "duration": 0.6486,
      "velocity": 105,
      "chip": "ym2612"
    },
    {
      "channel": 2,
      "note": 81,
      "start": 80.8234,
      "duration": 0.0248,
      "velocity": 110,
      "chip": "ym2612"
    },
    {
      "channel": 0,
      "note": 83,
      "start": 80.83,
      "duration": 0.0248,
      "velocity": 110,
      "chip": "ym2612"
    },
    {
      "channel": 1,
      "note": 50,
      "start": 80.8307,
      "duration": 0.0248,
      "velocity": 89,
      "chip": "ym2612"
    },
    {
      "channel": 2,
      "note": 86,
      "start": 80.8488,
      "duration": 0.0201,
      "velocity": 110,
      "chip": "ym2612"
    },
    {
      "channel": 0,
      "note": 81,
      "start": 80.8554,
      "duration": 0.02,
      "velocity": 110,
      "chip": "ym2612"
    },
    {
      "channel": 2,
      "note": 83,
      "start": 80.8695,
      "duration": 0.0212,
      "velocity": 110,
      "chip": "ym2612"
    },
    {
      "channel": 0,
      "note": 84,
      "start": 80.8759,
      "duration": 0.0219,
      "velocity": 110,
      "chip": "ym2612"
    },
    {
      "channel": 1,
      "note": 50,
      "start": 80.8766,
      "duration": 0.0219,
      "velocity": 89,
      "chip": "ym2612"
    },
    {
      "channel": 2,
      "note": 88,
      "start": 80.8913,
      "duration": 0.0244,
      "velocity": 110,
      "chip": "ym2612"
    },
    {
      "channel": 0,
      "note": 83,
      "start": 80.8983,
      "duration": 0.0238,
      "velocity": 110,
      "chip": "ym2612"
    },
    {
      "channel": 2,
      "note": 84,
      "start": 80.9163,
      "duration": 0.0213,
      "velocity": 110,
      "chip": "ym2612"
    },
    {
      "channel": 0,
      "note": 86,
      "start": 80.9226,
      "duration": 0.0216,
      "velocity": 110,
      "chip": "ym2612"
    },
    {
      "channel": 1,
      "note": 50,
      "start": 80.9234,
      "duration": 0.0216,
      "velocity": 89,
      "chip": "ym2612"
    },
    {
      "channel": 2,
      "note": 90,
      "start": 80.9382,
      "duration": 0.0215,
      "velocity": 110,
      "chip": "ym2612"
    },
    {
      "channel": 0,
      "note": 84,
      "start": 80.9448,
      "duration": 0.0402,
      "velocity": 110,
      "chip": "ym2612"
    },
    {
      "channel": 1,
      "note": 50,
      "start": 80.9455,
      "duration": 0.1573,
      "velocity": 89,
      "chip": "ym2612"
    },
    {
      "channel": 2,
      "note": 86,
      "start": 80.9603,
      "duration": 0.0919,
      "velocity": 110,
      "chip": "ym2612"
    },
    {
      "channel": 0,
      "note": 88,
      "start": 80.9856,
      "duration": 0.1166,
      "velocity": 110,
      "chip": "ym2612"
    },
    {
      "channel": 2,
      "note": 91,
      "start": 81.0528,
      "duration": 0.1162,
      "velocity": 110,
      "chip": "ym2612"
    },
    {
      "channel": 0,
      "note": 86,
      "start": 81.1027,
      "duration": 0.0989,
      "velocity": 110,
      "chip": "ym2612"
    },
    {
      "channel": 2,
      "note": 88,
      "start": 81.1696,
      "duration": 0.099,
      "velocity": 110,
      "chip": "ym2612"
    },
    {
      "channel": 0,
      "note": 90,
      "start": 81.2022,
      "duration": 0.0996,
      "velocity": 110,
      "chip": "ym2612"
    },
    {
      "channel": 2,
      "note": 93,
      "start": 81.2693,
      "duration": 0.0486,
      "velocity": 110,
      "chip": "ym2612"
    },
    {
      "channel": 0,
      "note": 88,
      "start": 81.3025,
      "duration": 0.022,
      "velocity": 110,
      "chip": "ym2612"
    },
    {
      "channel": 1,
      "note": 50,
      "start": 81.3032,
      "duration": 0.048,
      "velocity": 89,
      "chip": "ym2612"
    },
    {
      "channel": 2,
      "note": 90,
      "start": 81.3184,
      "duration": 0.0247,
      "velocity": 110,
      "chip": "ym2612"
    },
    {
      "channel": 0,
      "note": 91,
      "start": 81.325,
      "duration": 0.0254,
      "velocity": 110,
      "chip": "ym2612"
    },
    {
      "channel": 2,
      "note": 95,
      "start": 81.3438,
      "duration": 0.0232,
      "velocity": 110,
      "chip": "ym2612"
    },
    {
      "channel": 0,
      "note": 90,
      "start": 81.351,
      "duration": 0.0226,
      "velocity": 110,
      "chip": "ym2612"
    },
    {
      "channel": 1,
      "note": 50,
      "start": 81.3517,
      "duration": 0.0227,
      "velocity": 89,
      "chip": "ym2612"
    },
    {
      "channel": 2,
      "note": 91,
      "start": 81.3676,
      "duration": 0.0215,
      "velocity": 110,
      "chip": "ym2612"
    },
    {
      "channel": 0,
      "note": 93,
      "start": 81.3742,
      "duration": 0.022,
      "velocity": 110,
      "chip": "ym2612"
    },
    {
      "channel": 1,
      "note": 50,
      "start": 81.375,
      "duration": 0.0219,
      "velocity": 89,
      "chip": "ym2612"
    },
    {
      "channel": 2,
      "note": 96,
      "start": 81.3896,
      "duration": 0.026,
      "velocity": 110,
      "chip": "ym2612"
    },
    {
      "channel": 0,
      "note": 91,
      "start": 81.3968,
      "duration": 0.0257,
      "velocity": 110,
      "chip": "ym2612"
    },
    {
      "channel": 1,
      "note": 50,
      "start": 81.3975,
      "duration": 0.0258,
      "velocity": 89,
      "chip": "ym2612"
    },
    {
      "channel": 2,
      "note": 93,
      "start": 81.4162,
      "duration": 0.0218,
      "velocity": 110,
      "chip": "ym2612"
    },
    {
      "channel": 0,
      "note": 95,
      "start": 81.4231,
      "duration": 0.0252,
      "velocity": 111,
      "chip": "ym2612"
    },
    {
      "channel": 1,
      "note": 50,
      "start": 81.4239,
      "duration": 0.0252,
      "velocity": 89,
      "chip": "ym2612"
    },
    {
      "channel": 2,
      "note": 98,
      "start": 81.4387,
      "duration": 0.0229,
      "velocity": 111,
      "chip": "ym2612"
    },
    {
      "channel": 0,
      "note": 79,
      "start": 81.4489,
      "duration": 0.0879,
      "velocity": 111,
      "chip": "ym2612"
    },
    {
      "channel": 1,
      "note": 55,
      "start": 81.4496,
      "duration": 0.0263,
      "velocity": 89,
      "chip": "ym2612"
    },
    {
      "channel": 3,
      "note": 79,
      "start": 81.453,
      "duration": 0.6836,
      "velocity": 105,
      "chip": "ym2612"
    },
    {
      "channel": 4,
      "note": 74,
      "start": 81.4562,
      "duration": 0.6811,
      "velocity": 105,
      "chip": "ym2612"
    },
    {
      "channel": 1,
      "note": 55,
      "start": 81.4765,
      "duration": 0.019,
      "velocity": 89,
      "chip": "ym2612"
    },
    {
      "channel": 2,
      "note": 79,
      "start": 81.4834,
      "duration": 0.0806,
      "velocity": 111,
      "chip": "ym2612"
    },
    {
      "channel": 1,
      "note": 55,
      "start": 81.5173,
      "duration": 0.0202,
      "velocity": 89,
      "chip": "ym2612"
    },
    {
      "channel": 0,
      "note": 76,
      "start": 81.5374,
      "duration": 0.0435,
      "velocity": 111,
      "chip": "ym2612"
    },
    {
      "channel": 1,
      "note": 55,
      "start": 81.5571,
      "duration": 0.0245,
      "velocity": 89,
      "chip": "ym2612"
    },
    {
      "channel": 2,
      "note": 76,
      "start": 81.5646,
      "duration": 0.0761,
      "velocity": 111,
      "chip": "ym2612"
    },
    {
      "channel": 0,
      "note": 74,
      "start": 81.5815,
      "duration": 0.1254,
      "velocity": 111,
      "chip": "ym2612"
    },
    {
      "channel": 1,
      "note": 55,
      "start": 81.5822,
      "duration": 0.1254,
      "velocity": 89,
      "chip": "ym2612"
    },
    {
      "channel": 2,
      "note": 74,
      "start": 81.6412,
      "duration": 0.1156,
      "velocity": 111,
      "chip": "ym2612"
    },
    {
      "channel": 0,
      "note": 79,
      "start": 81.7076,
      "duration": 0.0681,
      "velocity": 111,
      "chip": "ym2612"
    },
    {
      "channel": 1,
      "note": 52,
      "start": 81.7083,
      "duration": 0.0681,
      "velocity": 89,
      "chip": "ym2612"
    },
    {
      "channel": 2,
      "note": 79,
      "start": 81.7574,
      "duration": 0.077,
      "velocity": 111,
      "chip": "ym2612"
    },
    {
      "channel": 0,
      "note": 76,
      "start": 81.7762,
      "duration": 0.1245,
      "velocity": 111,
      "chip": "ym2612"
    },
    {
      "channel": 1,
      "note": 52,
      "start": 81.7769,
      "duration": 0.1689,
      "velocity": 89,
      "chip": "ym2612"
    },
    {
      "channel": 2,
      "note": 76,
      "start": 81.835,
      "duration": 0.0972,
      "velocity": 111,
      "chip": "ym2612"
    },
    {
      "channel": 0,
      "note": 72,
      "start": 81.9014,
      "duration": 0.0437,
      "velocity": 111,
      "chip": "ym2612"
    },
    {
      "channel": 2,
      "note": 72,
      "start": 81.9329,
      "duration": 0.1191,
      "velocity": 111,
      "chip": "ym2612"
    },
    {
      "channel": 0,
      "note": 74,
      "start": 81.9456,
      "duration": 0.5725,
      "velocity": 111,
      "chip": "ym2612"
    },
    {
      "channel": 1,
      "note": 50,
      "start": 81.9464,
      "duration": 0.1892,
      "velocity": 89,
      "chip": "ym2612"
    },
    {
      "channel": 2,
      "note": 74,
      "start": 82.0525,
      "duration": 0.542,
      "velocity": 111,
      "chip": "ym2612"
    },
    {
      "channel": 1,
      "note": 50,
      "start": 82.1362,
      "duration": 0.0241,
      "velocity": 89,
      "chip": "ym2612"
    },
    {
      "channel": 3,
      "note": 81,
      "start": 82.1372,
      "duration": 0.3828,
      "velocity": 105,
      "chip": "ym2612"
    },
    {
      "channel": 4,
      "note": 74,
      "start": 82.1379,
      "duration": 0.3828,
      "velocity": 105,
      "chip": "ym2612"
    },
    {
      "channel": 1,
      "note": 50,
      "start": 82.1608,
      "duration": 0.0994,
      "velocity": 89,
      "chip": "ym2612"
    },
    {
      "channel": 1,
      "note": 50,
      "start": 82.3775,
      "duration": 0.0997,
      "velocity": 89,
      "chip": "ym2612"
    },
    {
      "channel": 1,
      "note": 50,
      "start": 82.4972,
      "duration": 0.0217,
      "velocity": 89,
      "chip": "ym2612"
    },
    {
      "channel": 0,
      "note": 84,
      "start": 82.5188,
      "duration": 0.211,
      "velocity": 111,
      "chip": "ym2612"
    },
    {
      "channel": 1,
      "note": 48,
      "start": 82.5195,
      "duration": 0.1417,
      "velocity": 89,
      "chip": "ym2612"
    },
    {
      "channel": 3,
      "note": 79,
      "start": 82.5206,
      "duration": 0.5534,
      "velocity": 105,
      "chip": "ym2612"
    },
    {
      "channel": 4,
      "note": 72,
      "start": 82.5214,
      "duration": 0.5534,
      "velocity": 105,
      "chip": "ym2612"
    },
    {
      "channel": 2,
      "note": 84,
      "start": 82.5951,
      "duration": 0.1934,
      "velocity": 111,
      "chip": "ym2612"
    },
    {
      "channel": 1,
      "note": 48,
      "start": 82.6879,
      "duration": 0.0424,
      "velocity": 89,
      "chip": "ym2612"
    },
    {
      "channel": 0,
      "note": 84,
      "start": 82.7302,
      "duration": 0.0243,
      "velocity": 111,
      "chip": "ym2612"
    },
    {
      "channel": 1,
      "note": 60,
      "start": 82.7552,
      "duration": 0.1195,
      "velocity": 89,
      "chip": "ym2612"
    },
    {
      "channel": 2,
      "note": 84,
      "start": 82.789,
      "duration": 0.0737,
      "velocity": 111,
      "chip": "ym2612"
    },
    {
      "channel": 0,
      "note": 84,
      "start": 82.8552,
      "duration": 0.0194,
      "velocity": 111,
      "chip": "ym2612"
    },
    {
      "channel": 1,
      "note": 48,
      "start": 82.8753,
      "duration": 0.0228,
      "velocity": 89,
      "chip": "ym2612"
    },
    {
      "channel": 2,
      "note": 84,
      "start": 82.8857,
      "duration": 0.0201,
      "velocity": 111,
      "chip": "ym2612"
    },
    {
      "channel": 0,
      "note": 84,
      "start": 82.898,
      "duration": 0.074,
      "velocity": 111,
      "chip": "ym2612"
    },
    {
      "channel": 1,
      "note": 48,
      "start": 82.8987,
      "duration": 0.0734,
      "velocity": 89,
      "chip": "ym2612"
    },
    {
      "channel": 1,
      "note": 48,
      "start": 82.9726,
      "duration": 0.1004,
      "velocity": 89,
      "chip": "ym2612"
    },
    {
      "channel": 2,
      "note": 84,
      "start": 83.0063,
      "duration": 0.075,
      "velocity": 111,
      "chip": "ym2612"
    },
    {
      "channel": 0,
      "note": 83,
      "start": 83.0728,
      "duration": 0.3578,
      "velocity": 111,
      "chip": "ym2612"
    },
    {
      "channel": 1,
      "note": 55,
      "start": 83.0736,
      "duration": 0.0404,
      "velocity": 89,
      "chip": "ym2612"
    },
    {
      "channel": 3,
      "note": 79,
      "start": 83.0746,
      "duration": 0.9512,
      "velocity": 105,
      "chip": "ym2612"
    },
    {
      "channel": 4,
      "note": 74,
      "start": 83.0754,
      "duration": 0.9511,
      "velocity": 105,
      "chip": "ym2612"
    },
    {
      "channel": 1,
      "note": 55,
      "start": 83.1146,
      "duration": 0.0994,
      "velocity": 89,
      "chip": "ym2612"
    },
    {
      "channel": 2,
      "note": 83,
      "start": 83.1483,
      "duration": 0.3089,
      "velocity": 111,
      "chip": "ym2612"
    },
    {
      "channel": 1,
      "note": 55,
      "start": 83.3147,
      "duration": 0.1167,
      "velocity": 89,
      "chip": "ym2612"
    },
    {
      "channel": 0,
      "note": 79,
      "start": 83.4312,
      "duration": 0.0387,
      "velocity": 111,
      "chip": "ym2612"
    },
    {
      "channel": 1,
      "note": 55,
      "start": 83.4504,
      "duration": 0.0203,
      "velocity": 89,
      "chip": "ym2612"
    },
    {
      "channel": 2,
      "note": 79,
      "start": 83.4579,
      "duration": 0.0884,
      "velocity": 111,
      "chip": "ym2612"
    },
    {
      "channel": 0,
      "note": 74,
      "start": 83.4706,
      "duration": 0.142,
      "velocity": 111,
      "chip": "ym2612"
    },
    {
      "channel": 1,
      "note": 55,
      "start": 83.4713,
      "duration": 0.142,
      "velocity": 89,
      "chip": "ym2612"
    },
    {
      "channel": 2,
      "note": 74,
      "start": 83.5469,
      "duration": 0.0983,
      "velocity": 111,
      "chip": "ym2612"
    },
    {
      "channel": 0,
      "note": 76,
      "start": 83.6132,
      "duration": 0.0132,
      "velocity": 111,
      "chip": "ym2612"
    },
    {
      "channel": 1,
      "note": 52,
      "start": 83.6139,
      "duration": 0.0514,
      "velocity": 89,
      "chip": "ym2612"
    },
    {
      "channel": 2,
      "note": 76,
      "start": 83.6458,
      "duration": 0.0202,
      "velocity": 111,
      "chip": "ym2612"
    },
    {
      "channel": 0,
      "note": 79,
      "start": 83.6653,
      "duration": 0.1821,
      "velocity": 111,
      "chip": "ym2612"
    },
    {
      "channel": 1,
      "note": 52,
      "start": 83.666,
      "duration": 0.1822,
      "velocity": 89,
      "chip": "ym2612"
    },
    {
      "channel": 2,
      "note": 79,
      "start": 83.7409,
      "duration": 0.2169,
      "velocity": 111,
      "chip": "ym2612"
    },
    {
      "channel": 0,
      "note": 81,
      "start": 83.8479,
      "duration": 0.6877,
      "velocity": 111,
      "chip": "ym2612"
    },
    {
      "channel": 1,
      "note": 53,
      "start": 83.8487,
      "duration": 0.1761,
      "velocity": 89,
      "chip": "ym2612"
    },
    {
      "channel": 2,
      "note": 81,
      "start": 83.9583,
      "duration": 0.627,
      "velocity": 111,
      "chip": "ym2612"
    },
    {
      "channel": 1,
      "note": 53,
      "start": 84.0253,
      "duration": 0.0241,
      "velocity": 89,
      "chip": "ym2612"
    },
    {
      "channel": 3,
      "note": 77,
      "start": 84.0263,
      "duration": 0.1403,
      "velocity": 105,
      "chip": "ym2612"
    },
    {
      "channel": 4,
      "note": 72,
      "start": 84.0271,
      "duration": 0.1401,
      "velocity": 105,
      "chip": "ym2612"
    },
    {
      "channel": 1,
      "note": 53,
      "start": 84.05,
      "duration": 0.1161,
      "velocity": 89,
      "chip": "ym2612"
    },
    {
      "channel": 3,
      "note": 77,
      "start": 84.1671,
      "duration": 0.244,
      "velocity": 105,
      "chip": "ym2612"
    },
    {
      "channel": 4,
      "note": 72,
      "start": 84.1676,
      "duration": 0.2442,
      "velocity": 105,
      "chip": "ym2612"
    },
    {
      "channel": 1,
      "note": 53,
      "start": 84.2666,
      "duration": 0.0997,
      "velocity": 89,
      "chip": "ym2612"
    },
    {
      "channel": 1,
      "note": 53,
      "start": 84.3896,
      "duration": 0.0204,
      "velocity": 89,
      "chip": "ym2612"
    },
    {
      "channel": 1,
      "note": 50,
      "start": 84.4106,
      "duration": 0.1254,
      "velocity": 89,
      "chip": "ym2612"
    },
    {
      "channel": 3,
      "note": 81,
      "start": 84.4117,
      "duration": 0.4706,
      "velocity": 105,
      "chip": "ym2612"
    },
    {
      "channel": 4,
      "note": 74,
      "start": 84.4124,
      "duration": 0.4706,
      "velocity": 105,
      "chip": "ym2612"
    },
    {
      "channel": 1,
      "note": 50,
      "start": 84.5788,
      "duration": 0.0254,
      "velocity": 89,
      "chip": "ym2612"
    },
    {
      "channel": 1,
      "note": 62,
      "start": 84.6297,
      "duration": 0.1337,
      "velocity": 89,
      "chip": "ym2612"
    },
    {
      "channel": 1,
      "note": 50,
      "start": 84.7639,
      "duration": 0.0167,
      "velocity": 89,
      "chip": "ym2612"
    },
    {
      "channel": 1,
      "note": 50,
      "start": 84.7812,
      "duration": 0.017,
      "velocity": 89,
      "chip": "ym2612"
    },
    {
      "channel": 1,
      "note": 50,
      "start": 84.7987,
      "duration": 0.0828,
      "velocity": 89,
      "chip": "ym2612"
    },
    {
      "channel": 0,
      "note": 79,
      "start": 84.8814,
      "duration": 0.0802,
      "velocity": 111,
      "chip": "ym2612"
    },
    {
      "channel": 1,
      "note": 55,
      "start": 84.8821,
      "duration": 0.0187,
      "velocity": 89,
      "chip": "ym2612"
    },
    {
      "channel": 3,
      "note": 79,
      "start": 84.8829,
      "duration": 0.6785,
      "velocity": 105,
      "chip": "ym2612"
    },
    {
      "channel": 4,
      "note": 74,
      "start": 84.8837,
      "duration": 0.6785,
      "velocity": 105,
      "chip": "ym2612"
    },
    {
      "channel": 1,
      "note": 55,
      "start": 84.9014,
      "duration": 0.019,
      "velocity": 89,
      "chip": "ym2612"
    },
    {
      "channel": 2,
      "note": 79,
      "start": 84.9082,
      "duration": 0.0806,
      "velocity": 111,
      "chip": "ym2612"
    },
    {
      "channel": 1,
      "note": 55,
      "start": 84.9422,
      "duration": 0.0202,
      "velocity": 89,
      "chip": "ym2612"
    },
    {
      "channel": 0,
      "note": 76,
      "start": 84.9622,
      "duration": 0.0435,
      "velocity": 111,
      "chip": "ym2612"
    },
    {
      "channel": 1,
      "note": 55,
      "start": 84.982,
      "duration": 0.0245,
      "velocity": 89,
      "chip": "ym2612"
    },
    {
      "channel": 2,
      "note": 76,
      "start": 84.9894,
      "duration": 0.0761,
      "velocity": 111,
      "chip": "ym2612"
    },
    {
      "channel": 0,
      "note": 74,
      "start": 85.0064,
      "duration": 0.1254,
      "velocity": 111,
      "chip": "ym2612"
    },
    {
      "channel": 1,
      "note": 55,
      "start": 85.0071,
      "duration": 0.1254,
      "velocity": 89,
      "chip": "ym2612"
    },
    {
      "channel": 2,
      "note": 74,
      "start": 85.0661,
      "duration": 0.1022,
      "velocity": 111,
      "chip": "ym2612"
    },
    {
      "channel": 0,
      "note": 79,
      "start": 85.1324,
      "duration": 0.0681,
      "velocity": 111,
      "chip": "ym2612"
    },
    {
      "channel": 1,
      "note": 52,
      "start": 85.1331,
      "duration": 0.0681,
      "velocity": 89,
      "chip": "ym2612"
    },
    {
      "channel": 2,
      "note": 79,
      "start": 85.1688,
      "duration": 0.0904,
      "velocity": 111,
      "chip": "ym2612"
    },
    {
      "channel": 0,
      "note": 76,
      "start": 85.2011,
      "duration": 0.1245,
      "velocity": 111,
      "chip": "ym2612"
    },
    {
      "channel": 1,
      "note": 52,
      "start": 85.2018,
      "duration": 0.1688,
      "velocity": 89,
      "chip": "ym2612"
    },
    {
      "channel": 2,
      "note": 76,
      "start": 85.2598,
      "duration": 0.0972,
      "velocity": 111,
      "chip": "ym2612"
    },
    {
      "channel": 0,
      "note": 72,
      "start": 85.3262,
      "duration": 0.0437,
      "velocity": 111,
      "chip": "ym2612"
    },
    {
      "channel": 2,
      "note": 72,
      "start": 85.3577,
      "duration": 0.1191,
      "velocity": 111,
      "chip": "ym2612"
    },
    {
      "channel": 0,
      "note": 74,
      "start": 85.3704,
      "duration": 0.5725,
      "velocity": 111,
      "chip": "ym2612"
    },
    {
      "channel": 1,
      "note": 50,
      "start": 85.3712,
      "duration": 0.1892,
      "velocity": 89,
      "chip": "ym2612"
    },
    {
      "channel": 2,
      "note": 74,
      "start": 85.4773,
      "duration": 0.5421,
      "velocity": 111,
      "chip": "ym2612"
    },
    {
      "channel": 1,
      "note": 50,
      "start": 85.561,
      "duration": 0.0241,
      "velocity": 89,
      "chip": "ym2612"
    },
    {
      "channel": 3,
      "note": 81,
      "start": 85.562,
      "duration": 0.3828,
      "velocity": 105,
      "chip": "ym2612"
    },
    {
      "channel": 4,
      "note": 74,
      "start": 85.5627,
      "duration": 0.3828,
      "velocity": 105,
      "chip": "ym2612"
    },
    {
      "channel": 1,
      "note": 50,
      "start": 85.5856,
      "duration": 0.0994,
      "velocity": 89,
      "chip": "ym2612"
    },
    {
      "channel": 1,
      "note": 50,
      "start": 85.7856,
      "duration": 0.1163,
      "velocity": 89,
      "chip": "ym2612"
    },
    {
      "channel": 1,
      "note": 50,
      "start": 85.922,
      "duration": 0.0217,
      "velocity": 89,
      "chip": "ym2612"
    },
    {
      "channel": 0,
      "note": 84,
      "start": 85.9436,
      "duration": 0.1944,
      "velocity": 111,
      "chip": "ym2612"
    },
    {
      "channel": 1,
      "note": 48,
      "start": 85.9443,
      "duration": 0.1418,
      "velocity": 89,
      "chip": "ym2612"
    },
    {
      "channel": 3,
      "note": 79,
      "start": 85.9454,
      "duration": 0.4761,
      "velocity": 98,
      "chip": "ym2612"
    },
    {
      "channel": 4,
      "note": 72,
      "start": 85.9462,
      "duration": 0.4785,
      "velocity": 98,
      "chip": "ym2612"
    },
    {
      "channel": 2,
      "note": 84,
      "start": 86.02,
      "duration": 0.1933,
      "velocity": 111,
      "chip": "ym2612"
    },
    {
      "channel": 1,
      "note": 48,
      "start": 86.1128,
      "duration": 0.0257,
      "velocity": 89,
      "chip": "ym2612"
    },
    {
      "channel": 0,
      "note": 84,
      "start": 86.1384,
      "duration": 0.0242,
      "velocity": 111,
      "chip": "ym2612"
    },
    {
      "channel": 1,
      "note": 60,
      "start": 86.1802,
      "duration": 0.1196,
      "velocity": 89,
      "chip": "ym2612"
    },
    {
      "channel": 2,
      "note": 84,
      "start": 86.2138,
      "duration": 0.0737,
      "velocity": 111,
      "chip": "ym2612"
    },
    {
      "channel": 0,
      "note": 84,
      "start": 86.28,
      "duration": 0.0197,
      "velocity": 111,
      "chip": "ym2612"
    },
    {
      "channel": 1,
      "note": 48,
      "start": 86.3003,
      "duration": 0.023,
      "velocity": 89,
      "chip": "ym2612"
    },
    {
      "channel": 2,
      "note": 84,
      "start": 86.3076,
      "duration": 0.0203,
      "velocity": 111,
      "chip": "ym2612"
    },
    {
      "channel": 0,
      "note": 84,
      "start": 86.3232,
      "duration": 0.0198,
      "velocity": 111,
      "chip": "ym2612"
    },
    {
      "channel": 1,
      "note": 48,
      "start": 86.3239,
      "duration": 0.0193,
      "velocity": 89,
      "chip": "ym2612"
    },
    {
      "channel": 1,
      "note": 48,
      "start": 86.3438,
      "duration": 0.0744,
      "velocity": 89,
      "chip": "ym2612"
    },
    {
      "channel": 2,
      "note": 84,
      "start": 86.3511,
      "duration": 0.0801,
      "velocity": 111,
      "chip": "ym2612"
    },
    {
      "channel": 0,
      "note": 84,
      "start": 86.418,
      "duration": 0.1405,
      "velocity": 111,
      "chip": "ym2612"
    },
    {
      "channel": 1,
      "note": 55,
      "start": 86.4187,
      "duration": 0.0401,
      "velocity": 89,
      "chip": "ym2612"
    },
    {
      "channel": 3,
      "note": 91,
      "start": 86.4221,
      "duration": 0.3798,
      "velocity": 98,
      "chip": "ym2612"
    },
    {
      "channel": 4,
      "note": 86,
      "start": 86.4252,
      "duration": 0.3775,
      "velocity": 98,
      "chip": "ym2612"
    },
    {
      "channel": 1,
      "note": 55,
      "start": 86.4594,
      "duration": 0.0999,
      "velocity": 89,
      "chip": "ym2612"
    },
    {
      "channel": 2,
      "note": 84,
      "start": 86.4935,
      "duration": 0.199,
      "velocity": 111,
      "chip": "ym2612"
    },
    {
      "channel": 0,
      "note": 83,
      "start": 86.5591,
      "duration": 0.2411,
      "velocity": 111,
      "chip": "ym2612"
    },
    {
      "channel": 1,
      "note": 55,
      "start": 86.6594,
      "duration": 0.0997,
      "velocity": 89,
      "chip": "ym2612"
    },
    {
      "channel": 2,
      "note": 83,
      "start": 86.693,
      "duration": 0.2169,
      "velocity": 111,
      "chip": "ym2612"
    },
    {
      "channel": 1,
      "note": 55,
      "start": 86.781,
      "duration": 0.02,
      "velocity": 89,
      "chip": "ym2612"
    },
    {
      "channel": 0,
      "note": 79,
      "start": 86.8007,
      "duration": 0.2442,
      "velocity": 111,
      "chip": "ym2612"
    },
    {
      "channel": 1,
      "note": 55,
      "start": 86.8015,
      "duration": 0.1917,
      "velocity": 89,
      "chip": "ym2612"
    },
    {
      "channel": 3,
      "note": 91,
      "start": 86.8025,
      "duration": 0.4263,
      "velocity": 98,
      "chip": "ym2612"
    },
    {
      "channel": 4,
      "note": 84,
      "start": 86.8033,
      "duration": 0.4258,
      "velocity": 98,
      "chip": "ym2612"
    },
    {
      "channel": 2,
      "note": 79,
      "start": 86.9105,
      "duration": 0.2099,
      "velocity": 111,
      "chip": "ym2612"
    },
    {
      "channel": 1,
      "note": 52,
      "start": 86.9938,
      "duration": 0.0519,
      "velocity": 89,
      "chip": "ym2612"
    },
    {
      "channel": 0,
      "note": 81,
      "start": 87.0456,
      "duration": 0.182,
      "velocity": 111,
      "chip": "ym2612"
    },
    {
      "channel": 1,
      "note": 52,
      "start": 87.0463,
      "duration": 0.1816,
      "velocity": 89,
      "chip": "ym2612"
    },
    {
      "channel": 2,
      "note": 81,
      "start": 87.121,
      "duration": 0.2166,
      "velocity": 111,
      "chip": "ym2612"
    },
    {
      "channel": 1,
      "note": 53,
      "start": 87.2284,
      "duration": 0.1765,
      "velocity": 89,
      "chip": "ym2612"
    },
    {
      "channel": 0,
      "note": 86,
      "start": 87.4048,
      "duration": 0.141,
      "velocity": 111,
      "chip": "ym2612"
    },
    {
      "channel": 1,
      "note": 53,
      "start": 87.4055,
      "duration": 0.0239,
      "velocity": 89,
      "chip": "ym2612"
    },
    {
      "channel": 3,
      "note": 93,
      "start": 87.4067,
      "duration": 0.3826,
      "velocity": 98,
      "chip": "ym2612"
    },
    {
      "channel": 4,
      "note": 89,
      "start": 87.4078,
      "duration": 0.3822,
      "velocity": 98,
      "chip": "ym2612"
    },
    {
      "channel": 1,
      "note": 53,
      "start": 87.43,
      "duration": 0.1166,
      "velocity": 89,
      "chip": "ym2612"
    },
    {
      "channel": 2,
      "note": 86,
      "start": 87.4636,
      "duration": 0.2161,
      "velocity": 111,
      "chip": "ym2612"
    },
    {
      "channel": 0,
      "note": 84,
      "start": 87.5463,
      "duration": 0.2412,
      "velocity": 111,
      "chip": "ym2612"
    },
    {
      "channel": 1,
      "note": 53,
      "start": 87.6466,
      "duration": 0.0997,
      "velocity": 89,
      "chip": "ym2612"
    },
    {
      "channel": 2,
      "note": 84,
      "start": 87.6803,
      "duration": 0.1909,
      "velocity": 111,
      "chip": "ym2612"
    },
    {
      "channel": 1,
      "note": 53,
      "start": 87.765,
      "duration": 0.0233,
      "velocity": 89,
      "chip": "ym2612"
    },
    {
      "channel": 0,
      "note": 79,
      "start": 87.7881,
      "duration": 0.1702,
      "velocity": 111,
      "chip": "ym2612"
    },
    {
      "channel": 1,
      "note": 50,
      "start": 87.7889,
      "duration": 0.1008,
      "velocity": 89,
      "chip": "ym2612"
    },
    {
      "channel": 3,
      "note": 93,
      "start": 87.7899,
      "duration": 0.3402,
      "velocity": 98,
      "chip": "ym2612"
    },
    {
      "channel": 4,
      "note": 86,
      "start": 87.7907,
      "duration": 0.3405,
      "velocity": 98,
      "chip": "ym2612"
    },
    {
      "channel": 2,
      "note": 79,
      "start": 87.8717,
      "duration": 0.1454,
      "velocity": 111,
      "chip": "ym2612"
    },
    {
      "channel": 1,
      "note": 50,
      "start": 87.9331,
      "duration": 0.0259,
      "velocity": 89,
      "chip": "ym2612"
    },
    {
      "channel": 0,
      "note": 81,
      "start": 87.9588,
      "duration": 0.1687,
      "velocity": 111,
      "chip": "ym2612"
    },
    {
      "channel": 1,
      "note": 62,
      "start": 87.984,
      "duration": 0.122,
      "velocity": 89,
      "chip": "ym2612"
    },
    {
      "channel": 2,
      "note": 81,
      "start": 88.0178,
      "duration": 0.0734,
      "velocity": 111,
      "chip": "ym2612"
    },
    {
      "channel": 1,
      "note": 50,
      "start": 88.1066,
      "duration": 0.0221,
      "velocity": 89,
      "chip": "ym2612"
    },
    {
      "channel": 2,
      "note": 79,
      "start": 88.1077,
      "duration": 0.0428,
      "velocity": 111,
      "chip": "ym2612"
    },
    {
      "channel": 0,
      "note": 83,
      "start": 88.1281,
      "duration": 0.0429,
      "velocity": 111,
      "chip": "ym2612"
    },
    {
      "channel": 1,
      "note": 55,
      "start": 88.1292,
      "duration": 1.1412,
      "velocity": 89,
      "chip": "ym2612"
    },
    {
      "channel": 3,
      "note": 95,
      "start": 88.1307,
      "duration": 0.041,
      "velocity": 98,
      "chip": "ym2612"
    },
    {
      "channel": 4,
      "note": 86,
      "start": 88.1317,
      "duration": 0.0403,
      "velocity": 98,
      "chip": "ym2612"
    }
  ]
}