{
  "track_name": "30 - Love Dream",
  "duration_sec": 68.909,
  "sample_rate": 44100,
  "note_count": 958,
  "unique_pitches": 42,
  "pitch_range": 62,
  "avg_note_duration": 0.3585,
  "reconstruction_stats": {
    "notes_reconstructed": 958,
    "keyon_events": 958,
    "keyoff_events": 958,
    "orphan_keyons": 0,
    "unique_pitches": 42,
    "pitch_range": 62,
    "avg_duration_sec": 0.3585
  },
  "metadata": {
    "source": "T\\Thunder Force IV\\30 - Love Dream.vgz"
  },
  "notes": [
    {
      "channel": 0,
      "note": 74,
      "start": 0.0,
      "duration": 0.3257,
      "velocity": 101,
      "chip": "ym2612"
    },
    {
      "channel": 1,
      "note": 50,
      "start": 0.0056,
      "duration": 1.3387,
      "velocity": 101,
      "chip": "ym2612"
    },
    {
      "channel": 2,
      "note": 62,
      "start": 0.0103,
      "duration": 1.3342,
      "velocity": 101,
      "chip": "ym2612"
    },
    {
      "channel": 3,
      "note": 57,
      "start": 0.0151,
      "duration": 1.3296,
      "velocity": 101,
      "chip": "ym2612"
    },
    {
      "channel": 4,
      "note": 53,
      "start": 0.0199,
      "duration": 1.325,
      "velocity": 101,
      "chip": "ym2612"
    },
    {
      "channel": 5,
      "note": 74,
      "start": 0.2751,
      "duration": 0.3057,
      "velocity": 101,
      "chip": "ym2612"
    },
    {
      "channel": 0,
      "note": 69,
      "start": 0.3554,
      "duration": 0.3098,
      "velocity": 101,
      "chip": "ym2612"
    },
    {
      "channel": 5,
      "note": 69,
      "start": 0.611,
      "duration": 0.3101,
      "velocity": 101,
      "chip": "ym2612"
    },
    {
      "channel": 0,
      "note": 74,
      "start": 0.6949,
      "duration": 0.3097,
      "velocity": 101,
      "chip": "ym2612"
    },
    {
      "channel": 5,
      "note": 74,
      "start": 0.95,
      "duration": 0.3098,
      "velocity": 101,
      "chip": "ym2612"
    },
    {
      "channel": 0,
      "note": 77,
      "start": 1.0343,
      "duration": 0.3098,
      "velocity": 101,
      "chip": "ym2612"
    },
    {
      "channel": 5,
      "note": 77,
      "start": 1.2897,
      "duration": 0.3095,
      "velocity": 101,
      "chip": "ym2612"
    },
    {
      "channel": 0,
      "note": 76,
      "start": 1.3738,
      "duration": 0.3097,
      "velocity": 101,
      "chip": "ym2612"
    },
    {
      "channel": 1,
      "note": 49,
      "start": 1.3755,
      "duration": 1.3267,
      "velocity": 101,
      "chip": "ym2612"
    },
    {
      "channel": 2,
      "note": 61,
      "start": 1.3771,
      "duration": 1.3253,
      "velocity": 101,
      "chip": "ym2612"
    },
    {
      "channel": 3,
      "note": 57,
      "start": 1.3787,
      "duration": 1.3239,
      "velocity": 101,
      "chip": "ym2612"
    },
    {
      "channel": 4,
      "note": 52,
      "start": 1.3804,
      "duration": 1.3224,
      "velocity": 101,
      "chip": "ym2612"
    },
    {
      "channel": 5,
      "note": 76,
      "start": 1.6289,
      "duration": 0.3102,
      "velocity": 101,
      "chip": "ym2612"
    },
    {
      "channel": 0,
      "note": 69,
      "start": 1.7133,
      "duration": 0.3098,
      "velocity": 101,
      "chip": "ym2612"
    },
    {
      "channel": 5,
      "note": 69,
      "start": 1.9684,
      "duration": 0.3097,
      "velocity": 101,
      "chip": "ym2612"
    },
    {
      "channel": 0,
      "note": 73,
      "start": 2.0528,
      "duration": 0.3097,
      "velocity": 101,
      "chip": "ym2612"
    },
    {
      "channel": 5,
      "note": 73,
      "start": 2.3079,
      "duration": 0.3097,
      "velocity": 101,
      "chip": "ym2612"
    },
    {
      "channel": 0,
      "note": 76,
      "start": 2.3923,
      "duration": 0.3097,
      "velocity": 101,
      "chip": "ym2612"
    },
    {
      "channel": 5,
      "note": 76,
      "start": 2.6474,
      "duration": 0.3097,
      "velocity": 101,
      "chip": "ym2612"
    },
    {
      "channel": 0,
      "note": 77,
      "start": 2.7317,
      "duration": 0.3098,
      "velocity": 101,
      "chip": "ym2612"
    },
    {
      "channel": 1,
      "note": 48,
      "start": 2.7334,
      "duration": 1.3268,
      "velocity": 101,
      "chip": "ym2612"
    },
    {
      "channel": 2,
      "note": 60,
      "start": 2.735,
      "duration": 1.3253,
      "velocity": 101,
      "chip": "ym2612"
    },
    {
      "channel": 3,
      "note": 57,
      "start": 2.7375,
      "duration": 1.323,
      "velocity": 101,
      "chip": "ym2612"
    },
    {
      "channel": 4,
      "note": 53,
      "start": 2.7392,
      "duration": 1.3216,
      "velocity": 101,
      "chip": "ym2612"
    },
    {
      "channel": 5,
      "note": 77,
      "start": 2.9877,
      "duration": 0.3089,
      "velocity": 101,
      "chip": "ym2612"
    },
    {
      "channel": 0,
      "note": 74,
      "start": 3.072,
      "duration": 0.309,
      "velocity": 101,
      "chip": "ym2612"
    },
    {
      "channel": 5,
      "note": 74,
      "start": 3.3264,
      "duration": 0.3098,
      "velocity": 101,
      "chip": "ym2612"
    },
    {
      "channel": 0,
      "note": 77,
      "start": 3.4107,
      "duration": 0.3099,
      "velocity": 101,
      "chip": "ym2612"
    },
    {
      "channel": 5,
      "note": 77,
      "start": 3.6658,
      "duration": 0.3097,
      "velocity": 101,
      "chip": "ym2612"
    },
    {
      "channel": 0,
      "note": 81,
      "start": 3.7502,
      "duration": 0.3098,
      "velocity": 101,
      "chip": "ym2612"
    },
    {
      "channel": 5,
      "note": 81,
      "start": 4.0058,
      "duration": 0.3092,
      "velocity": 101,
      "chip": "ym2612"
    },
    {
      "channel": 0,
      "note": 79,
      "start": 4.0897,
      "duration": 0.3097,
      "velocity": 101,
      "chip": "ym2612"
    },
    {
      "channel": 1,
      "note": 47,
      "start": 4.0913,
      "duration": 1.3267,
      "velocity": 101,
      "chip": "ym2612"
    },
    {
      "channel": 2,
      "note": 59,
      "start": 4.0929,
      "duration": 1.3253,
      "velocity": 101,
      "chip": "ym2612"
    },
    {
      "channel": 3,
      "note": 55,
      "start": 4.0946,
      "duration": 1.3239,
      "velocity": 101,
      "chip": "ym2612"
    },
    {
      "channel": 4,
      "note": 50,
      "start": 4.0962,
      "duration": 1.3224,
      "velocity": 101,
      "chip": "ym2612"
    },
    {
      "channel": 5,
      "note": 79,
      "start": 4.3448,
      "duration": 0.3097,
      "velocity": 101,
      "chip": "ym2612"
    },
    {
      "channel": 0,
      "note": 71,
      "start": 4.4298,
      "duration": 0.3092,
      "velocity": 101,
      "chip": "ym2612"
    },
    {
      "channel": 5,
      "note": 71,
      "start": 4.6843,
      "duration": 0.3097,
      "velocity": 101,
      "chip": "ym2612"
    },
    {
      "channel": 0,
      "note": 74,
      "start": 4.7687,
      "duration": 0.3097,
      "velocity": 101,
      "chip": "ym2612"
    },
    {
      "channel": 5,
      "note": 74,
      "start": 5.0237,
      "duration": 0.3098,
      "velocity": 101,
      "chip": "ym2612"
    },
    {
      "channel": 0,
      "note": 79,
      "start": 5.108,
      "duration": 0.3098,
      "velocity": 101,
      "chip": "ym2612"
    },
    {
      "channel": 5,
      "note": 79,
      "start": 5.3632,
      "duration": 0.3097,
      "velocity": 101,
      "chip": "ym2612"
    },
    {
      "channel": 0,
      "note": 77,
      "start": 5.4476,
      "duration": 0.3104,
      "velocity": 101,
      "chip": "ym2612"
    },
    {
      "channel": 1,
      "note": 46,
      "start": 5.4492,
      "duration": 1.3267,
      "velocity": 101,
      "chip": "ym2612"
    },
    {
      "channel": 2,
      "note": 58,
      "start": 5.4508,
      "duration": 1.3253,
      "velocity": 101,
      "chip": "ym2612"
    },
    {
      "channel": 3,
      "note": 53,
      "start": 5.4524,
      "duration": 1.3239,
      "velocity": 101,
      "chip": "ym2612"
    },
    {
      "channel": 4,
      "note": 50,
      "start": 5.4549,
      "duration": 1.3216,
      "velocity": 101,
      "chip": "ym2612"
    },
    {
      "channel": 5,
      "note": 77,
      "start": 5.7027,
      "duration": 0.3097,
      "velocity": 101,
      "chip": "ym2612"
    },
    {
      "channel": 0,
      "note": 69,
      "start": 5.7879,
      "duration": 0.3089,
      "velocity": 101,
      "chip": "ym2612"
    },
    {
      "channel": 5,
      "note": 69,
      "start": 6.0422,
      "duration": 0.3097,
      "velocity": 101,
      "chip": "ym2612"
    },
    {
      "channel": 0,
      "note": 74,
      "start": 6.1265,
      "duration": 0.3107,
      "velocity": 101,
      "chip": "ym2612"
    },
    {
      "channel": 5,
      "note": 74,
      "start": 6.3816,
      "duration": 0.3098,
      "velocity": 101,
      "chip": "ym2612"
    },
    {
      "channel": 0,
      "note": 77,
      "start": 6.466,
      "duration": 0.3097,
      "velocity": 101,
      "chip": "ym2612"
    },
    {
      "channel": 5,
      "note": 77,
      "start": 6.7221,
      "duration": 0.3088,
      "velocity": 101,
      "chip": "ym2612"
    },
    {
      "channel": 0,
      "note": 76,
      "start": 6.8054,
      "duration": 0.3098,
      "velocity": 101,
      "chip": "ym2612"
    },
    {
      "channel": 1,
      "note": 45,
      "start": 6.8071,
      "duration": 1.3268,
      "velocity": 101,
      "chip": "ym2612"
    },
    {
      "channel": 2,
      "note": 57,
      "start": 6.8088,
      "duration": 1.3253,
      "velocity": 101,
      "chip": "ym2612"
    },
    {
      "channel": 3,
      "note": 52,
      "start": 6.8104,
      "duration": 1.3239,
      "velocity": 101,
      "chip": "ym2612"
    },
    {
      "channel": 4,
      "note": 49,
      "start": 6.8121,
      "duration": 1.3224,
      "velocity": 101,
      "chip": "ym2612"
    },
    {
      "channel": 5,
      "note": 76,
      "start": 7.0606,
      "duration": 0.3104,
      "velocity": 101,
      "chip": "ym2612"
    },
    {
      "channel": 0,
      "note": 69,
      "start": 7.1449,
      "duration": 0.3098,
      "velocity": 101,
      "chip": "ym2612"
    },
    {
      "channel": 5,
      "note": 69,
      "start": 7.4,
      "duration": 0.3097,
      "velocity": 101,
      "chip": "ym2612"
    },
    {
      "channel": 0,
      "note": 73,
      "start": 7.4844,
      "duration": 0.3098,
      "velocity": 101,
      "chip": "ym2612"
    },
    {
      "channel": 5,
      "note": 73,
      "start": 7.7395,
      "duration": 0.3097,
      "velocity": 101,
      "chip": "ym2612"
    },
    {
      "channel": 0,
      "note": 76,
      "start": 7.8239,
      "duration": 0.3097,
      "velocity": 101,
      "chip": "ym2612"
    },
    {
      "channel": 5,
      "note": 76,
      "start": 8.079,
      "duration": 0.3098,
      "velocity": 101,
      "chip": "ym2612"
    },
    {
      "channel": 0,
      "note": 74,
      "start": 8.1634,
      "duration": 0.3097,
      "velocity": 101,
      "chip": "ym2612"
    },
    {
      "channel": 1,
      "note": 38,
      "start": 8.165,
      "duration": 1.3268,
      "velocity": 101,
      "chip": "ym2612"
    },
    {
      "channel": 2,
      "note": 50,
      "start": 8.1666,
      "duration": 1.3253,
      "velocity": 101,
      "chip": "ym2612"
    },
    {
      "channel": 3,
      "note": 57,
      "start": 8.1683,
      "duration": 1.3239,
      "velocity": 101,
      "chip": "ym2612"
    },
    {
      "channel": 4,
      "note": 53,
      "start": 8.1708,
      "duration": 1.3216,
      "velocity": 101,
      "chip": "ym2612"
    },
    {
      "channel": 5,
      "note": 74,
      "start": 8.419,
      "duration": 0.3092,
      "velocity": 101,
      "chip": "ym2612"
    },
    {
      "channel": 0,
      "note": 65,
      "start": 8.5036,
      "duration": 0.309,
      "velocity": 101,
      "chip": "ym2612"
    },
    {
      "channel": 5,
      "note": 65,
      "start": 8.758,
      "duration": 0.3097,
      "velocity": 101,
      "chip": "ym2612"
    },
    {
      "channel": 0,
      "note": 69,
      "start": 8.8423,
      "duration": 0.3098,
      "velocity": 101,
      "chip": "ym2612"
    },
    {
      "channel": 5,
      "note": 69,
      "start": 9.0974,
      "duration": 0.3097,
      "velocity": 101,
      "chip": "ym2612"
    },
    {
      "channel": 0,
      "note": 76,
      "start": 9.1821,
      "duration": 0.3094,
      "velocity": 101,
      "chip": "ym2612"
    },
    {
      "channel": 5,
      "note": 76,
      "start": 9.4381,
      "duration": 0.3091,
      "velocity": 101,
      "chip": "ym2612"
    },
    {
      "channel": 0,
      "note": 74,
      "start": 9.5221,
      "duration": 1.3274,
      "velocity": 101,
      "chip": "ym2612"
    },
    {
      "channel": 1,
      "note": 50,
      "start": 9.5237,
      "duration": 1.326,
      "velocity": 101,
      "chip": "ym2612"
    },
    {
      "channel": 2,
      "note": 62,
      "start": 9.5256,
      "duration": 1.3242,
      "velocity": 101,
      "chip": "ym2612"
    },
    {
      "channel": 3,
      "note": 57,
      "start": 9.5276,
      "duration": 1.3224,
      "velocity": 101,
      "chip": "ym2612"
    },
    {
      "channel": 4,
      "note": 53,
      "start": 9.5295,
      "duration": 1.3207,
      "velocity": 101,
      "chip": "ym2612"
    },
    {
      "channel": 5,
      "note": 74,
      "start": 9.7764,
      "duration": 1.3564,
      "velocity": 101,
      "chip": "ym2612"
    },
    {
      "channel": 0,
      "note": 89,
      "start": 10.8829,
      "duration": 0.1646,
      "velocity": 95,
      "chip": "ym2612"
    },
    {
      "channel": 1,
      "note": 43,
      "start": 10.8888,
      "duration": 0.6681,
      "velocity": 111,
      "chip": "ym2612"
    },
    {
      "channel": 2,
      "note": 65,
      "start": 10.8943,
      "duration": 1.3435,
      "velocity": 99,
      "chip": "ym2612"
    },
    {
      "channel": 3,
      "note": 62,
      "start": 10.8995,
      "duration": 1.3384,
      "velocity": 99,
      "chip": "ym2612"
    },
    {
      "channel": 4,
      "note": 58,
      "start": 10.9059,
      "duration": 1.3322,
      "velocity": 99,
      "chip": "ym2612"
    },
    {
      "channel": 0,
      "note": 86,
      "start": 11.078,
      "duration": 0.1392,
      "velocity": 95,
      "chip": "ym2612"
    },
    {
      "channel": 5,
      "note": 89,
      "start": 11.1665,
      "duration": 0.1363,
      "velocity": 95,
      "chip": "ym2612"
    },
    {
      "channel": 0,
      "note": 82,
      "start": 11.2475,
      "duration": 0.1398,
      "velocity": 95,
      "chip": "ym2612"
    },
    {
      "channel": 5,
      "note": 86,
      "start": 11.3326,
      "duration": 0.1398,
      "velocity": 95,
      "chip": "ym2612"
    },
    {
      "channel": 0,
      "note": 79,
      "start": 11.417,
      "duration": 0.1398,
      "velocity": 95,
      "chip": "ym2612"
    },
    {
      "channel": 5,
      "note": 82,
      "start": 11.5023,
      "duration": 0.1398,
      "velocity": 95,
      "chip": "ym2612"
    },
    {
      "channel": 0,
      "note": 89,
      "start": 11.5876,
      "duration": 0.1388,
      "velocity": 95,
      "chip": "ym2612"
    },
    {
      "channel": 1,
      "note": 43,
      "start": 11.5893,
      "duration": 0.6483,
      "velocity": 111,
      "chip": "ym2612"
    },
    {
      "channel": 5,
      "note": 79,
      "start": 11.6727,
      "duration": 0.1391,
      "velocity": 95,
      "chip": "ym2612"
    },
    {
      "channel": 0,
      "note": 86,
      "start": 11.7565,
      "duration": 0.1396,
      "velocity": 95,
      "chip": "ym2612"
    },
    {
      "channel": 5,
      "note": 89,
      "start": 11.842,
      "duration": 0.1396,
      "velocity": 95,
      "chip": "ym2612"
    },
    {
      "channel": 0,
      "note": 82,
      "start": 11.9261,
      "duration": 0.1398,
      "velocity": 95,
      "chip": "ym2612"
    },
    {
      "channel": 5,
      "note": 86,
      "start": 12.0116,
      "duration": 0.1398,
      "velocity": 95,
      "chip": "ym2612"
    },
    {
      "channel": 0,
      "note": 79,
      "start": 12.0959,
      "duration": 0.1415,
      "velocity": 95,
      "chip": "ym2612"
    },
    {
      "channel": 5,
      "note": 82,
      "start": 12.1813,
      "duration": 0.1398,
      "velocity": 95,
      "chip": "ym2612"
    },
    {
      "channel": 0,
      "note": 88,
      "start": 12.2659,
      "duration": 0.1401,
      "velocity": 95,
      "chip": "ym2612"
    },
    {
      "channel": 1,
      "note": 48,
      "start": 12.2675,
      "duration": 0.6473,
      "velocity": 111,
      "chip": "ym2612"
    },
    {
      "channel": 2,
      "note": 64,
      "start": 12.2693,
      "duration": 1.3247,
      "velocity": 99,
      "chip": "ym2612"
    },
    {
      "channel": 3,
      "note": 60,
      "start": 12.2718,
      "duration": 1.3224,
      "velocity": 99,
      "chip": "ym2612"
    },
    {
      "channel": 4,
      "note": 58,
      "start": 12.2734,
      "duration": 1.3209,
      "velocity": 99,
      "chip": "ym2612"
    },
    {
      "channel": 5,
      "note": 79,
      "start": 12.3511,
      "duration": 0.1398,
      "velocity": 95,
      "chip": "ym2612"
    },
    {
      "channel": 0,
      "note": 84,
      "start": 12.4354,
      "duration": 0.1401,
      "velocity": 95,
      "chip": "ym2612"
    },
    {
      "channel": 5,
      "note": 88,
      "start": 12.5219,
      "duration": 0.1387,
      "velocity": 95,
      "chip": "ym2612"
    },
    {
      "channel": 0,
      "note": 82,
      "start": 12.6055,
      "duration": 0.1394,
      "velocity": 95,
      "chip": "ym2612"
    },
    {
      "channel": 5,
      "note": 84,
      "start": 12.6905,
      "duration": 0.1398,
      "velocity": 95,
      "chip": "ym2612"
    },
    {
      "channel": 0,
      "note": 79,
      "start": 12.7749,
      "duration": 0.1398,
      "velocity": 95,
      "chip": "ym2612"
    },
    {
      "channel": 5,
      "note": 82,
      "start": 12.8602,
      "duration": 0.1398,
      "velocity": 95,
      "chip": "ym2612"
    },
    {
      "channel": 0,
      "note": 88,
      "start": 12.9447,
      "duration": 0.1396,
      "velocity": 95,
      "chip": "ym2612"
    },
    {
      "channel": 1,
      "note": 48,
      "start": 12.9463,
      "duration": 0.6474,
      "velocity": 111,
      "chip": "ym2612"
    },
    {
      "channel": 5,
      "note": 79,
      "start": 13.0299,
      "duration": 0.1407,
      "velocity": 95,
      "chip": "ym2612"
    },
    {
      "channel": 0,
      "note": 84,
      "start": 13.1143,
      "duration": 0.1398,
      "velocity": 95,
      "chip": "ym2612"
    },
    {
      "channel": 5,
      "note": 88,
      "start": 13.1998,
      "duration": 0.1396,
      "velocity": 95,
      "chip": "ym2612"
    },
    {
      "channel": 0,
      "note": 82,
      "start": 13.284,
      "duration": 0.1398,
      "velocity": 95,
      "chip": "ym2612"
    },
    {
      "channel": 5,
      "note": 84,
      "start": 13.3695,
      "duration": 0.1398,
      "velocity": 95,
      "chip": "ym2612"
    },
    {
      "channel": 0,
      "note": 79,
      "start": 13.4546,
      "duration": 0.1389,
      "velocity": 95,
      "chip": "ym2612"
    },
    {
      "channel": 5,
      "note": 82,
      "start": 13.5394,
      "duration": 0.1396,
      "velocity": 95,
      "chip": "ym2612"
    },
    {
      "channel": 0,
      "note": 88,
      "start": 13.6238,
      "duration": 0.1395,
      "velocity": 95,
      "chip": "ym2612"
    },
    {
      "channel": 1,
      "note": 45,
      "start": 13.6255,
      "duration": 0.6473,
      "velocity": 111,
      "chip": "ym2612"
    },
    {
      "channel": 2,
      "note": 67,
      "start": 13.6272,
      "duration": 1.3247,
      "velocity": 99,
      "chip": "ym2612"
    },
    {
      "channel": 3,
      "note": 64,
      "start": 13.6289,
      "duration": 1.3232,
      "velocity": 99,
      "chip": "ym2612"
    },
    {
      "channel": 4,
      "note": 60,
      "start": 13.6306,
      "duration": 1.3217,
      "velocity": 99,
      "chip": "ym2612"
    },
    {
      "channel": 5,
      "note": 79,
      "start": 13.709,
      "duration": 0.1398,
      "velocity": 95,
      "chip": "ym2612"
    },
    {
      "channel": 0,
      "note": 84,
      "start": 13.7932,
      "duration": 0.1398,
      "velocity": 95,
      "chip": "ym2612"
    },
    {
      "channel": 5,
      "note": 88,
      "start": 13.879,
      "duration": 0.1395,
      "velocity": 95,
      "chip": "ym2612"
    },
    {
      "channel": 0,
      "note": 81,
      "start": 13.963,
      "duration": 0.1398,
      "velocity": 95,
      "chip": "ym2612"
    },
    {
      "channel": 5,
      "note": 84,
      "start": 14.0484,
      "duration": 0.1398,
      "velocity": 95,
      "chip": "ym2612"
    },
    {
      "channel": 0,
      "note": 79,
      "start": 14.1327,
      "duration": 0.1398,
      "velocity": 95,
      "chip": "ym2612"
    },
    {
      "channel": 5,
      "note": 81,
      "start": 14.2182,
      "duration": 0.1397,
      "velocity": 95,
      "chip": "ym2612"
    },
    {
      "channel": 0,
      "note": 88,
      "start": 14.3027,
      "duration": 0.1396,
      "velocity": 95,
      "chip": "ym2612"
    },
    {
      "channel": 1,
      "note": 45,
      "start": 14.3051,
      "duration": 0.6465,
      "velocity": 111,
      "chip": "ym2612"
    },
    {
      "channel": 5,
      "note": 79,
      "start": 14.3887,
      "duration": 0.1389,
      "velocity": 95,
      "chip": "ym2612"
    },
    {
      "channel": 0,
      "note": 84,
      "start": 14.4722,
      "duration": 0.1398,
      "velocity": 95,
      "chip": "ym2612"
    },
    {
      "channel": 5,
      "note": 88,
      "start": 14.5578,
      "duration": 0.1396,
      "velocity": 95,
      "chip": "ym2612"
    },
    {
      "channel": 0,
      "note": 81,
      "start": 14.642,
      "duration": 0.1398,
      "velocity": 95,
      "chip": "ym2612"
    },
    {
      "channel": 5,
      "note": 84,
      "start": 14.7273,
      "duration": 0.1398,
      "velocity": 95,
      "chip": "ym2612"
    },
    {
      "channel": 0,
      "note": 79,
      "start": 14.8117,
      "duration": 0.1398,
      "velocity": 95,
      "chip": "ym2612"
    },
    {
      "channel": 5,
      "note": 81,
      "start": 14.8979,
      "duration": 0.1399,
      "velocity": 95,
      "chip": "ym2612"
    },
    {
      "channel": 0,
      "note": 86,
      "start": 14.9819,
      "duration": 0.1394,
      "velocity": 95,
      "chip": "ym2612"
    },
    {
      "channel": 1,
      "note": 50,
      "start": 14.9835,
      "duration": 0.6471,
      "velocity": 111,
      "chip": "ym2612"
    },
    {
      "channel": 2,
      "note": 65,
      "start": 14.9853,
      "duration": 0.6456,
      "velocity": 99,
      "chip": "ym2612"
    },
    {
      "channel": 3,
      "note": 62,
      "start": 14.9878,
      "duration": 0.6432,
      "velocity": 99,
      "chip": "ym2612"
    },
    {
      "channel": 4,
      "note": 57,
      "start": 14.9895,
      "duration": 0.6417,
      "velocity": 99,
      "chip": "ym2612"
    },
    {
      "channel": 5,
      "note": 79,
      "start": 15.0673,
      "duration": 0.1393,
      "velocity": 95,
      "chip": "ym2612"
    },
    {
      "channel": 0,
      "note": 81,
      "start": 15.1511,
      "duration": 0.1398,
      "velocity": 95,
      "chip": "ym2612"
    },
    {
      "channel": 5,
      "note": 86,
      "start": 15.2381,
      "duration": 0.1383,
      "velocity": 95,
      "chip": "ym2612"
    },
    {
      "channel": 0,
      "note": 77,
      "start": 15.3217,
      "duration": 0.1389,
      "velocity": 95,
      "chip": "ym2612"
    },
    {
      "channel": 5,
      "note": 81,
      "start": 15.4072,
      "duration": 0.1389,
      "velocity": 95,
      "chip": "ym2612"
    },
    {
      "channel": 0,
      "note": 74,
      "start": 15.4906,
      "duration": 0.1398,
      "velocity": 95,
      "chip": "ym2612"
    },
    {
      "channel": 5,
      "note": 77,
      "start": 15.5761,
      "duration": 0.1398,
      "velocity": 95,
      "chip": "ym2612"
    },
    {
      "channel": 0,
      "note": 84,
      "start": 15.6603,
      "duration": 0.1398,
      "velocity": 95,
      "chip": "ym2612"
    },
    {
      "channel": 1,
      "note": 48,
      "start": 15.662,
      "duration": 0.6476,
      "velocity": 111,
      "chip": "ym2612"
    },
    {
      "channel": 2,
      "note": 64,
      "start": 15.6638,
      "duration": 0.646,
      "velocity": 99,
      "chip": "ym2612"
    },
    {
      "channel": 3,
      "note": 60,
      "start": 15.6654,
      "duration": 0.6445,
      "velocity": 99,
      "chip": "ym2612"
    },
    {
      "channel": 4,
      "note": 55,
      "start": 15.6671,
      "duration": 0.6431,
      "velocity": 99,
      "chip": "ym2612"
    },
    {
      "channel": 5,
      "note": 74,
      "start": 15.7458,
      "duration": 0.1398,
      "velocity": 95,
      "chip": "ym2612"
    },
    {
      "channel": 0,
      "note": 79,
      "start": 15.8301,
      "duration": 0.1404,
      "velocity": 95,
      "chip": "ym2612"
    },
    {
      "channel": 5,
      "note": 84,
      "start": 15.9156,
      "duration": 0.1398,
      "velocity": 95,
      "chip": "ym2612"
    },
    {
      "channel": 0,
      "note": 76,
      "start": 15.9998,
      "duration": 0.1398,
      "velocity": 95,
      "chip": "ym2612"
    },
    {
      "channel": 5,
      "note": 79,
      "start": 16.0853,
      "duration": 0.1405,
      "velocity": 95,
      "chip": "ym2612"
    },
    {
      "channel": 0,
      "note": 72,
      "start": 16.1704,
      "duration": 0.139,
      "velocity": 95,
      "chip": "ym2612"
    },
    {
      "channel": 5,
      "note": 76,
      "start": 16.2558,
      "duration": 0.1672,
      "velocity": 95,
      "chip": "ym2612"
    },
    {
      "channel": 0,
      "note": 89,
      "start": 16.3429,
      "duration": 0.1646,
      "velocity": 95,
      "chip": "ym2612"
    },
    {
      "channel": 1,
      "note": 43,
      "start": 16.3479,
      "duration": 0.669,
      "velocity": 111,
      "chip": "ym2612"
    },
    {
      "channel": 2,
      "note": 65,
      "start": 16.3541,
      "duration": 1.3419,
      "velocity": 99,
      "chip": "ym2612"
    },
    {
      "channel": 3,
      "note": 62,
      "start": 16.3594,
      "duration": 1.3368,
      "velocity": 99,
      "chip": "ym2612"
    },
    {
      "channel": 4,
      "note": 58,
      "start": 16.3647,
      "duration": 1.3317,
      "velocity": 99,
      "chip": "ym2612"
    },
    {
      "channel": 5,
      "note": 72,
      "start": 16.4539,
      "duration": 0.1389,
      "velocity": 95,
      "chip": "ym2612"
    },
    {
      "channel": 0,
      "note": 86,
      "start": 16.5381,
      "duration": 0.139,
      "velocity": 95,
      "chip": "ym2612"
    },
    {
      "channel": 5,
      "note": 89,
      "start": 16.6264,
      "duration": 0.1363,
      "velocity": 95,
      "chip": "ym2612"
    },
    {
      "channel": 0,
      "note": 82,
      "start": 16.7071,
      "duration": 0.1398,
      "velocity": 95,
      "chip": "ym2612"
    },
    {
      "channel": 5,
      "note": 86,
      "start": 16.7925,
      "duration": 0.1398,
      "velocity": 95,
      "chip": "ym2612"
    },
    {
      "channel": 0,
      "note": 79,
      "start": 16.8768,
      "duration": 0.1398,
      "velocity": 95,
      "chip": "ym2612"
    },
    {
      "channel": 5,
      "note": 82,
      "start": 16.9622,
      "duration": 0.1398,
      "velocity": 95,
      "chip": "ym2612"
    },
    {
      "channel": 0,
      "note": 89,
      "start": 17.0467,
      "duration": 0.1405,
      "velocity": 95,
      "chip": "ym2612"
    },
    {
      "channel": 1,
      "note": 43,
      "start": 17.0484,
      "duration": 0.6474,
      "velocity": 111,
      "chip": "ym2612"
    },
    {
      "channel": 5,
      "note": 79,
      "start": 17.132,
      "duration": 0.1398,
      "velocity": 95,
      "chip": "ym2612"
    },
    {
      "channel": 0,
      "note": 86,
      "start": 17.2163,
      "duration": 0.1398,
      "velocity": 95,
      "chip": "ym2612"
    },
    {
      "channel": 5,
      "note": 89,
      "start": 17.3019,
      "duration": 0.1396,
      "velocity": 95,
      "chip": "ym2612"
    },
    {
      "channel": 0,
      "note": 82,
      "start": 17.3861,
      "duration": 0.1398,
      "velocity": 95,
      "chip": "ym2612"
    },
    {
      "channel": 5,
      "note": 86,
      "start": 17.4723,
      "duration": 0.1389,
      "velocity": 95,
      "chip": "ym2612"
    },
    {
      "channel": 0,
      "note": 79,
      "start": 17.5565,
      "duration": 0.139,
      "velocity": 95,
      "chip": "ym2612"
    },
    {
      "channel": 5,
      "note": 82,
      "start": 17.6412,
      "duration": 0.1398,
      "velocity": 95,
      "chip": "ym2612"
    },
    {
      "channel": 0,
      "note": 88,
      "start": 17.7263,
      "duration": 0.139,
      "velocity": 95,
      "chip": "ym2612"
    },
    {
      "channel": 1,
      "note": 48,
      "start": 17.7279,
      "duration": 0.6468,
      "velocity": 111,
      "chip": "ym2612"
    },
    {
      "channel": 2,
      "note": 64,
      "start": 17.7296,
      "duration": 1.3256,
      "velocity": 99,
      "chip": "ym2612"
    },
    {
      "channel": 3,
      "note": 60,
      "start": 17.7313,
      "duration": 1.3241,
      "velocity": 99,
      "chip": "ym2612"
    },
    {
      "channel": 4,
      "note": 58,
      "start": 17.733,
      "duration": 1.3227,
      "velocity": 99,
      "chip": "ym2612"
    },
    {
      "channel": 5,
      "note": 79,
      "start": 17.811,
      "duration": 0.1397,
      "velocity": 95,
      "chip": "ym2612"
    },
    {
      "channel": 0,
      "note": 84,
      "start": 17.8954,
      "duration": 0.1396,
      "velocity": 95,
      "chip": "ym2612"
    },
    {
      "channel": 5,
      "note": 88,
      "start": 17.981,
      "duration": 0.1401,
      "velocity": 95,
      "chip": "ym2612"
    },
    {
      "channel": 0,
      "note": 82,
      "start": 18.065,
      "duration": 0.1398,
      "velocity": 95,
      "chip": "ym2612"
    },
    {
      "channel": 5,
      "note": 84,
      "start": 18.1504,
      "duration": 0.1398,
      "velocity": 95,
      "chip": "ym2612"
    },
    {
      "channel": 0,
      "note": 79,
      "start": 18.2347,
      "duration": 0.1398,
      "velocity": 95,
      "chip": "ym2612"
    },
    {
      "channel": 5,
      "note": 82,
      "start": 18.321,
      "duration": 0.1389,
      "velocity": 95,
      "chip": "ym2612"
    },
    {
      "channel": 0,
      "note": 88,
      "start": 18.4054,
      "duration": 0.1388,
      "velocity": 95,
      "chip": "ym2612"
    },
    {
      "channel": 1,
      "note": 48,
      "start": 18.4071,
      "duration": 0.6479,
      "velocity": 111,
      "chip": "ym2612"
    },
    {
      "channel": 5,
      "note": 79,
      "start": 18.4899,
      "duration": 0.1397,
      "velocity": 95,
      "chip": "ym2612"
    },
    {
      "channel": 0,
      "note": 84,
      "start": 18.5742,
      "duration": 0.1407,
      "velocity": 95,
      "chip": "ym2612"
    },
    {
      "channel": 5,
      "note": 88,
      "start": 18.6598,
      "duration": 0.1396,
      "velocity": 95,
      "chip": "ym2612"
    },
    {
      "channel": 0,
      "note": 82,
      "start": 18.7439,
      "duration": 0.1405,
      "velocity": 95,
      "chip": "ym2612"
    },
    {
      "channel": 5,
      "note": 84,
      "start": 18.8294,
      "duration": 0.1398,
      "velocity": 95,
      "chip": "ym2612"
    },
    {
      "channel": 0,
      "note": 79,
      "start": 18.9137,
      "duration": 0.1411,
      "velocity": 95,
      "chip": "ym2612"
    },
    {
      "channel": 5,
      "note": 82,
      "start": 18.9991,
      "duration": 0.1398,
      "velocity": 95,
      "chip": "ym2612"
    },
    {
      "channel": 0,
      "note": 88,
      "start": 19.0838,
      "duration": 0.1396,
      "velocity": 95,
      "chip": "ym2612"
    },
    {
      "channel": 1,
      "note": 45,
      "start": 19.0854,
      "duration": 0.6473,
      "velocity": 111,
      "chip": "ym2612"
    },
    {
      "channel": 2,
      "note": 67,
      "start": 19.088,
      "duration": 1.3239,
      "velocity": 99,
      "chip": "ym2612"
    },
    {
      "channel": 3,
      "note": 64,
      "start": 19.0896,
      "duration": 1.3224,
      "velocity": 99,
      "chip": "ym2612"
    },
    {
      "channel": 4,
      "note": 60,
      "start": 19.0913,
      "duration": 1.3209,
      "velocity": 99,
      "chip": "ym2612"
    },
    {
      "channel": 5,
      "note": 79,
      "start": 19.1688,
      "duration": 0.1398,
      "velocity": 95,
      "chip": "ym2612"
    },
    {
      "channel": 0,
      "note": 84,
      "start": 19.254,
      "duration": 0.139,
      "velocity": 95,
      "chip": "ym2612"
    },
    {
      "channel": 5,
      "note": 88,
      "start": 19.3397,
      "duration": 0.1387,
      "velocity": 95,
      "chip": "ym2612"
    },
    {
      "channel": 0,
      "note": 81,
      "start": 19.4229,
      "duration": 0.1398,
      "velocity": 95,
      "chip": "ym2612"
    },
    {
      "channel": 5,
      "note": 84,
      "start": 19.5083,
      "duration": 0.1398,
      "velocity": 95,
      "chip": "ym2612"
    },
    {
      "channel": 0,
      "note": 79,
      "start": 19.5927,
      "duration": 0.1398,
      "velocity": 95,
      "chip": "ym2612"
    },
    {
      "channel": 5,
      "note": 81,
      "start": 19.678,
      "duration": 0.1398,
      "velocity": 95,
      "chip": "ym2612"
    },
    {
      "channel": 0,
      "note": 88,
      "start": 19.7626,
      "duration": 0.1395,
      "velocity": 95,
      "chip": "ym2612"
    },
    {
      "channel": 1,
      "note": 45,
      "start": 19.7642,
      "duration": 0.6473,
      "velocity": 111,
      "chip": "ym2612"
    },
    {
      "channel": 5,
      "note": 79,
      "start": 19.8478,
      "duration": 0.1399,
      "velocity": 95,
      "chip": "ym2612"
    },
    {
      "channel": 0,
      "note": 84,
      "start": 19.9321,
      "duration": 0.1398,
      "velocity": 95,
      "chip": "ym2612"
    },
    {
      "channel": 5,
      "note": 88,
      "start": 20.0177,
      "duration": 0.1396,
      "velocity": 95,
      "chip": "ym2612"
    },
    {
      "channel": 0,
      "note": 81,
      "start": 20.1019,
      "duration": 0.1398,
      "velocity": 95,
      "chip": "ym2612"
    },
    {
      "channel": 5,
      "note": 84,
      "start": 20.1881,
      "duration": 0.1389,
      "velocity": 95,
      "chip": "ym2612"
    },
    {
      "channel": 0,
      "note": 79,
      "start": 20.2722,
      "duration": 0.1392,
      "velocity": 95,
      "chip": "ym2612"
    },
    {
      "channel": 5,
      "note": 81,
      "start": 20.357,
      "duration": 0.1398,
      "velocity": 95,
      "chip": "ym2612"
    },
    {
      "channel": 0,
      "note": 86,
      "start": 20.4418,
      "duration": 0.1394,
      "velocity": 95,
      "chip": "ym2612"
    },
    {
      "channel": 1,
      "note": 50,
      "start": 20.4434,
      "duration": 0.6471,
      "velocity": 111,
      "chip": "ym2612"
    },
    {
      "channel": 2,
      "note": 65,
      "start": 20.4452,
      "duration": 0.6455,
      "velocity": 99,
      "chip": "ym2612"
    },
    {
      "channel": 3,
      "note": 62,
      "start": 20.4469,
      "duration": 0.644,
      "velocity": 99,
      "chip": "ym2612"
    },
    {
      "channel": 4,
      "note": 57,
      "start": 20.4486,
      "duration": 0.6426,
      "velocity": 99,
      "chip": "ym2612"
    },
    {
      "channel": 5,
      "note": 79,
      "start": 20.5268,
      "duration": 0.1398,
      "velocity": 95,
      "chip": "ym2612"
    },
    {
      "channel": 0,
      "note": 81,
      "start": 20.611,
      "duration": 0.1398,
      "velocity": 95,
      "chip": "ym2612"
    },
    {
      "channel": 5,
      "note": 86,
      "start": 20.697,
      "duration": 0.1403,
      "velocity": 95,
      "chip": "ym2612"
    },
    {
      "channel": 0,
      "note": 86,
      "start": 20.7808,
      "duration": 0.1398,
      "velocity": 95,
      "chip": "ym2612"
    },
    {
      "channel": 5,
      "note": 81,
      "start": 20.8663,
      "duration": 0.1398,
      "velocity": 95,
      "chip": "ym2612"
    },
    {
      "channel": 0,
      "note": 89,
      "start": 20.9505,
      "duration": 0.1398,
      "velocity": 95,
      "chip": "ym2612"
    },
    {
      "channel": 5,
      "note": 86,
      "start": 21.036,
      "duration": 0.1398,
      "velocity": 95,
      "chip": "ym2612"
    },
    {
      "channel": 0,
      "note": 91,
      "start": 21.1212,
      "duration": 0.1389,
      "velocity": 95,
      "chip": "ym2612"
    },
    {
      "channel": 1,
      "note": 48,
      "start": 21.1228,
      "duration": 0.6467,
      "velocity": 111,
      "chip": "ym2612"
    },
    {
      "channel": 2,
      "note": 64,
      "start": 21.1245,
      "duration": 0.646,
      "velocity": 99,
      "chip": "ym2612"
    },
    {
      "channel": 3,
      "note": 60,
      "start": 21.1263,
      "duration": 0.6445,
      "velocity": 99,
      "chip": "ym2612"
    },
    {
      "channel": 4,
      "note": 55,
      "start": 21.1279,
      "duration": 0.643,
      "velocity": 99,
      "chip": "ym2612"
    },
    {
      "channel": 5,
      "note": 89,
      "start": 21.207,
      "duration": 0.1385,
      "velocity": 95,
      "chip": "ym2612"
    },
    {
      "channel": 0,
      "note": 88,
      "start": 21.29,
      "duration": 0.1398,
      "velocity": 95,
      "chip": "ym2612"
    },
    {
      "channel": 5,
      "note": 91,
      "start": 21.3763,
      "duration": 0.1389,
      "velocity": 95,
      "chip": "ym2612"
    },
    {
      "channel": 0,
      "note": 91,
      "start": 21.4598,
      "duration": 0.1398,
      "velocity": 95,
      "chip": "ym2612"
    },
    {
      "channel": 5,
      "note": 88,
      "start": 21.5458,
      "duration": 0.1392,
      "velocity": 95,
      "chip": "ym2612"
    },
    {
      "channel": 0,
      "note": 96,
      "start": 21.6295,
      "duration": 0.1398,
      "velocity": 95,
      "chip": "ym2612"
    },
    {
      "channel": 5,
      "note": 91,
      "start": 21.7152,
      "duration": 0.1678,
      "velocity": 95,
      "chip": "ym2612"
    },
    {
      "channel": 0,
      "note": 89,
      "start": 21.8028,
      "duration": 0.1646,
      "velocity": 95,
      "chip": "ym2612"
    },
    {
      "channel": 1,
      "note": 43,
      "start": 21.8086,
      "duration": 0.6681,
      "velocity": 111,
      "chip": "ym2612"
    },
    {
      "channel": 2,
      "note": 65,
      "start": 21.814,
      "duration": 1.3419,
      "velocity": 99,
      "chip": "ym2612"
    },
    {
      "channel": 3,
      "note": 62,
      "start": 21.8193,
      "duration": 1.3368,
      "velocity": 99,
      "chip": "ym2612"
    },
    {
      "channel": 4,
      "note": 58,
      "start": 21.8254,
      "duration": 1.3309,
      "velocity": 99,
      "chip": "ym2612"
    },
    {
      "channel": 5,
      "note": 96,
      "start": 21.9129,
      "duration": 0.1398,
      "velocity": 95,
      "chip": "ym2612"
    },
    {
      "channel": 0,
      "note": 86,
      "start": 21.9972,
      "duration": 0.14,
      "velocity": 95,
      "chip": "ym2612"
    },
    {
      "channel": 5,
      "note": 89,
      "start": 22.0871,
      "duration": 0.1354,
      "velocity": 95,
      "chip": "ym2612"
    },
    {
      "channel": 0,
      "note": 82,
      "start": 22.167,
      "duration": 0.1398,
      "velocity": 95,
      "chip": "ym2612"
    },
    {
      "channel": 5,
      "note": 86,
      "start": 22.2524,
      "duration": 0.1397,
      "velocity": 95,
      "chip": "ym2612"
    },
    {
      "channel": 0,
      "note": 79,
      "start": 22.3376,
      "duration": 0.139,
      "velocity": 95,
      "chip": "ym2612"
    },
    {
      "channel": 5,
      "note": 82,
      "start": 22.4227,
      "duration": 0.1392,
      "velocity": 95,
      "chip": "ym2612"
    },
    {
      "channel": 0,
      "note": 89,
      "start": 22.5067,
      "duration": 0.1396,
      "velocity": 95,
      "chip": "ym2612"
    },
    {
      "channel": 1,
      "note": 43,
      "start": 22.5083,
      "duration": 0.6474,
      "velocity": 111,
      "chip": "ym2612"
    },
    {
      "channel": 5,
      "note": 79,
      "start": 22.5919,
      "duration": 0.1398,
      "velocity": 95,
      "chip": "ym2612"
    },
    {
      "channel": 0,
      "note": 86,
      "start": 22.6763,
      "duration": 0.1398,
      "velocity": 95,
      "chip": "ym2612"
    },
    {
      "channel": 5,
      "note": 89,
      "start": 22.7618,
      "duration": 0.1396,
      "velocity": 95,
      "chip": "ym2612"
    },
    {
      "channel": 0,
      "note": 82,
      "start": 22.846,
      "duration": 0.1398,
      "velocity": 95,
      "chip": "ym2612"
    },
    {
      "channel": 5,
      "note": 86,
      "start": 22.9314,
      "duration": 0.1398,
      "velocity": 95,
      "chip": "ym2612"
    },
    {
      "channel": 0,
      "note": 79,
      "start": 23.0157,
      "duration": 0.1398,
      "velocity": 95,
      "chip": "ym2612"
    },
    {
      "channel": 5,
      "note": 82,
      "start": 23.1011,
      "duration": 0.1398,
      "velocity": 95,
      "chip": "ym2612"
    },
    {
      "channel": 0,
      "note": 88,
      "start": 23.1857,
      "duration": 0.1395,
      "velocity": 95,
      "chip": "ym2612"
    },
    {
      "channel": 1,
      "note": 48,
      "start": 23.1882,
      "duration": 0.6464,
      "velocity": 111,
      "chip": "ym2612"
    },
    {
      "channel": 2,
      "note": 64,
      "start": 23.19,
      "duration": 1.3239,
      "velocity": 99,
      "chip": "ym2612"
    },
    {
      "channel": 3,
      "note": 60,
      "start": 23.1917,
      "duration": 1.3224,
      "velocity": 99,
      "chip": "ym2612"
    },
    {
      "channel": 4,
      "note": 58,
      "start": 23.1933,
      "duration": 1.3209,
      "velocity": 99,
      "chip": "ym2612"
    },
    {
      "channel": 5,
      "note": 79,
      "start": 23.2717,
      "duration": 0.1389,
      "velocity": 95,
      "chip": "ym2612"
    },
    {
      "channel": 0,
      "note": 84,
      "start": 23.3556,
      "duration": 0.1394,
      "velocity": 95,
      "chip": "ym2612"
    },
    {
      "channel": 5,
      "note": 88,
      "start": 23.4409,
      "duration": 0.1396,
      "velocity": 95,
      "chip": "ym2612"
    },
    {
      "channel": 0,
      "note": 82,
      "start": 23.5249,
      "duration": 0.1398,
      "velocity": 95,
      "chip": "ym2612"
    },
    {
      "channel": 5,
      "note": 84,
      "start": 23.6103,
      "duration": 0.1398,
      "velocity": 95,
      "chip": "ym2612"
    },
    {
      "channel": 0,
      "note": 79,
      "start": 23.6946,
      "duration": 0.1398,
      "velocity": 95,
      "chip": "ym2612"
    },
    {
      "channel": 5,
      "note": 82,
      "start": 23.7801,
      "duration": 0.1407,
      "velocity": 95,
      "chip": "ym2612"
    },
    {
      "channel": 0,
      "note": 88,
      "start": 23.8645,
      "duration": 0.1396,
      "velocity": 95,
      "chip": "ym2612"
    },
    {
      "channel": 1,
      "note": 48,
      "start": 23.8662,
      "duration": 0.6474,
      "velocity": 111,
      "chip": "ym2612"
    },
    {
      "channel": 5,
      "note": 79,
      "start": 23.9498,
      "duration": 0.1398,
      "velocity": 95,
      "chip": "ym2612"
    },
    {
      "channel": 0,
      "note": 84,
      "start": 24.035,
      "duration": 0.1389,
      "velocity": 95,
      "chip": "ym2612"
    },
    {
      "channel": 5,
      "note": 88,
      "start": 24.1205,
      "duration": 0.1388,
      "velocity": 95,
      "chip": "ym2612"
    },
    {
      "channel": 0,
      "note": 82,
      "start": 24.2052,
      "duration": 0.1385,
      "velocity": 95,
      "chip": "ym2612"
    },
    {
      "channel": 5,
      "note": 84,
      "start": 24.2894,
      "duration": 0.1396,
      "velocity": 95,
      "chip": "ym2612"
    },
    {
      "channel": 0,
      "note": 79,
      "start": 24.3738,
      "duration": 0.1396,
      "velocity": 95,
      "chip": "ym2612"
    },
    {
      "channel": 5,
      "note": 82,
      "start": 24.459,
      "duration": 0.1398,
      "velocity": 95,
      "chip": "ym2612"
    },
    {
      "channel": 0,
      "note": 88,
      "start": 24.5437,
      "duration": 0.1395,
      "velocity": 95,
      "chip": "ym2612"
    },
    {
      "channel": 1,
      "note": 45,
      "start": 24.5453,
      "duration": 0.6472,
      "velocity": 111,
      "chip": "ym2612"
    },
    {
      "channel": 2,
      "note": 67,
      "start": 24.5471,
      "duration": 1.3249,
      "velocity": 99,
      "chip": "ym2612"
    },
    {
      "channel": 3,
      "note": 64,
      "start": 24.5487,
      "duration": 1.3235,
      "velocity": 99,
      "chip": "ym2612"
    },
    {
      "channel": 4,
      "note": 60,
      "start": 24.5504,
      "duration": 1.322,
      "velocity": 99,
      "chip": "ym2612"
    },
    {
      "channel": 5,
      "note": 79,
      "start": 24.6288,
      "duration": 0.1398,
      "velocity": 95,
      "chip": "ym2612"
    },
    {
      "channel": 0,
      "note": 84,
      "start": 24.7131,
      "duration": 0.1407,
      "velocity": 95,
      "chip": "ym2612"
    },
    {
      "channel": 5,
      "note": 88,
      "start": 24.7988,
      "duration": 0.1395,
      "velocity": 95,
      "chip": "ym2612"
    },
    {
      "channel": 0,
      "note": 81,
      "start": 24.8829,
      "duration": 0.1398,
      "velocity": 95,
      "chip": "ym2612"
    },
    {
      "channel": 5,
      "note": 84,
      "start": 24.9682,
      "duration": 0.1398,
      "velocity": 95,
      "chip": "ym2612"
    },
    {
      "channel": 0,
      "note": 79,
      "start": 25.0525,
      "duration": 0.1398,
      "velocity": 95,
      "chip": "ym2612"
    },
    {
      "channel": 5,
      "note": 81,
      "start": 25.1389,
      "duration": 0.1388,
      "velocity": 95,
      "chip": "ym2612"
    },
    {
      "channel": 0,
      "note": 88,
      "start": 25.2224,
      "duration": 0.1404,
      "velocity": 95,
      "chip": "ym2612"
    },
    {
      "channel": 1,
      "note": 45,
      "start": 25.2241,
      "duration": 0.6476,
      "velocity": 111,
      "chip": "ym2612"
    },
    {
      "channel": 5,
      "note": 79,
      "start": 25.3077,
      "duration": 0.1398,
      "velocity": 95,
      "chip": "ym2612"
    },
    {
      "channel": 0,
      "note": 84,
      "start": 25.392,
      "duration": 0.1403,
      "velocity": 95,
      "chip": "ym2612"
    },
    {
      "channel": 5,
      "note": 88,
      "start": 25.4776,
      "duration": 0.1396,
      "velocity": 95,
      "chip": "ym2612"
    },
    {
      "channel": 0,
      "note": 81,
      "start": 25.5618,
      "duration": 0.14,
      "velocity": 95,
      "chip": "ym2612"
    },
    {
      "channel": 5,
      "note": 84,
      "start": 25.6472,
      "duration": 0.1406,
      "velocity": 95,
      "chip": "ym2612"
    },
    {
      "channel": 0,
      "note": 79,
      "start": 25.7315,
      "duration": 0.14,
      "velocity": 95,
      "chip": "ym2612"
    },
    {
      "channel": 5,
      "note": 81,
      "start": 25.817,
      "duration": 0.1398,
      "velocity": 95,
      "chip": "ym2612"
    },
    {
      "channel": 0,
      "note": 86,
      "start": 25.9017,
      "duration": 0.1394,
      "velocity": 95,
      "chip": "ym2612"
    },
    {
      "channel": 1,
      "note": 50,
      "start": 25.9042,
      "duration": 0.6463,
      "velocity": 111,
      "chip": "ym2612"
    },
    {
      "channel": 2,
      "note": 65,
      "start": 25.906,
      "duration": 0.6447,
      "velocity": 99,
      "chip": "ym2612"
    },
    {
      "channel": 3,
      "note": 62,
      "start": 25.9077,
      "duration": 0.6432,
      "velocity": 99,
      "chip": "ym2612"
    },
    {
      "channel": 4,
      "note": 57,
      "start": 25.9093,
      "duration": 0.6417,
      "velocity": 99,
      "chip": "ym2612"
    },
    {
      "channel": 5,
      "note": 79,
      "start": 25.9875,
      "duration": 0.1389,
      "velocity": 95,
      "chip": "ym2612"
    },
    {
      "channel": 0,
      "note": 81,
      "start": 26.0719,
      "duration": 0.1389,
      "velocity": 95,
      "chip": "ym2612"
    },
    {
      "channel": 5,
      "note": 86,
      "start": 26.1569,
      "duration": 0.1393,
      "velocity": 95,
      "chip": "ym2612"
    },
    {
      "channel": 0,
      "note": 77,
      "start": 26.2407,
      "duration": 0.1398,
      "velocity": 95,
      "chip": "ym2612"
    },
    {
      "channel": 5,
      "note": 81,
      "start": 26.3262,
      "duration": 0.1397,
      "velocity": 95,
      "chip": "ym2612"
    },
    {
      "channel": 0,
      "note": 74,
      "start": 26.4105,
      "duration": 0.1398,
      "velocity": 95,
      "chip": "ym2612"
    },
    {
      "channel": 5,
      "note": 77,
      "start": 26.4959,
      "duration": 0.1398,
      "velocity": 95,
      "chip": "ym2612"
    },
    {
      "channel": 0,
      "note": 84,
      "start": 26.5802,
      "duration": 0.1403,
      "velocity": 95,
      "chip": "ym2612"
    },
    {
      "channel": 1,
      "note": 48,
      "start": 26.5819,
      "duration": 0.6476,
      "velocity": 111,
      "chip": "ym2612"
    },
    {
      "channel": 2,
      "note": 64,
      "start": 26.5836,
      "duration": 0.6461,
      "velocity": 99,
      "chip": "ym2612"
    },
    {
      "channel": 3,
      "note": 60,
      "start": 26.5853,
      "duration": 0.6445,
      "velocity": 99,
      "chip": "ym2612"
    },
    {
      "channel": 4,
      "note": 55,
      "start": 26.5878,
      "duration": 0.6422,
      "velocity": 99,
      "chip": "ym2612"
    },
    {
      "channel": 5,
      "note": 74,
      "start": 26.6656,
      "duration": 0.1398,
      "velocity": 95,
      "chip": "ym2612"
    },
    {
      "channel": 0,
      "note": 79,
      "start": 26.75,
      "duration": 0.1398,
      "velocity": 95,
      "chip": "ym2612"
    },
    {
      "channel": 5,
      "note": 84,
      "start": 26.8354,
      "duration": 0.1398,
      "velocity": 95,
      "chip": "ym2612"
    },
    {
      "channel": 0,
      "note": 76,
      "start": 26.9205,
      "duration": 0.1389,
      "velocity": 95,
      "chip": "ym2612"
    },
    {
      "channel": 5,
      "note": 79,
      "start": 27.0059,
      "duration": 0.139,
      "velocity": 95,
      "chip": "ym2612"
    },
    {
      "channel": 0,
      "note": 72,
      "start": 27.0894,
      "duration": 0.1398,
      "velocity": 95,
      "chip": "ym2612"
    },
    {
      "channel": 5,
      "note": 76,
      "start": 27.1749,
      "duration": 0.1398,
      "velocity": 95,
      "chip": "ym2612"
    },
    {
      "channel": 0,
      "note": 89,
      "start": 27.2596,
      "duration": 0.1394,
      "velocity": 95,
      "chip": "ym2612"
    },
    {
      "channel": 1,
      "note": 46,
      "start": 27.2616,
      "duration": 1.3259,
      "velocity": 111,
      "chip": "ym2612"
    },
    {
      "channel": 2,
      "note": 65,
      "start": 27.2637,
      "duration": 1.324,
      "velocity": 99,
      "chip": "ym2612"
    },
    {
      "channel": 3,
      "note": 62,
      "start": 27.2656,
      "duration": 1.3222,
      "velocity": 99,
      "chip": "ym2612"
    },
    {
      "channel": 4,
      "note": 58,
      "start": 27.2676,
      "duration": 1.3204,
      "velocity": 99,
      "chip": "ym2612"
    },
    {
      "channel": 5,
      "note": 72,
      "start": 27.3446,
      "duration": 0.1398,
      "velocity": 95,
      "chip": "ym2612"
    },
    {
      "channel": 0,
      "note": 86,
      "start": 27.4289,
      "duration": 0.1398,
      "velocity": 95,
      "chip": "ym2612"
    },
    {
      "channel": 5,
      "note": 89,
      "start": 27.5148,
      "duration": 0.1397,
      "velocity": 95,
      "chip": "ym2612"
    },
    {
      "channel": 0,
      "note": 82,
      "start": 27.5986,
      "duration": 0.1398,
      "velocity": 95,
      "chip": "ym2612"
    },
    {
      "channel": 5,
      "note": 86,
      "start": 27.6841,
      "duration": 0.1398,
      "velocity": 95,
      "chip": "ym2612"
    },
    {
      "channel": 0,
      "note": 89,
      "start": 27.7685,
      "duration": 0.1396,
      "velocity": 95,
      "chip": "ym2612"
    },
    {
      "channel": 5,
      "note": 82,
      "start": 27.8556,
      "duration": 0.1379,
      "velocity": 95,
      "chip": "ym2612"
    },
    {
      "channel": 0,
      "note": 86,
      "start": 27.9389,
      "duration": 0.139,
      "velocity": 95,
      "chip": "ym2612"
    },
    {
      "channel": 5,
      "note": 89,
      "start": 28.0244,
      "duration": 0.1389,
      "velocity": 95,
      "chip": "ym2612"
    },
    {
      "channel": 0,
      "note": 82,
      "start": 28.1079,
      "duration": 0.1398,
      "velocity": 95,
      "chip": "ym2612"
    },
    {
      "channel": 5,
      "note": 86,
      "start": 28.1937,
      "duration": 0.1394,
      "velocity": 95,
      "chip": "ym2612"
    },
    {
      "channel": 0,
      "note": 89,
      "start": 28.2777,
      "duration": 0.1397,
      "velocity": 95,
      "chip": "ym2612"
    },
    {
      "channel": 5,
      "note": 82,
      "start": 28.3632,
      "duration": 0.1396,
      "velocity": 95,
      "chip": "ym2612"
    },
    {
      "channel": 0,
      "note": 86,
      "start": 28.4473,
      "duration": 0.1399,
      "velocity": 95,
      "chip": "ym2612"
    },
    {
      "channel": 5,
      "note": 89,
      "start": 28.5329,
      "duration": 0.1396,
      "velocity": 95,
      "chip": "ym2612"
    },
    {
      "channel": 0,
      "note": 88,
      "start": 28.6173,
      "duration": 0.1396,
      "velocity": 95,
      "chip": "ym2612"
    },
    {
      "channel": 1,
      "note": 40,
      "start": 28.6189,
      "duration": 1.3263,
      "velocity": 111,
      "chip": "ym2612"
    },
    {
      "channel": 2,
      "note": 64,
      "start": 28.6215,
      "duration": 1.324,
      "velocity": 99,
      "chip": "ym2612"
    },
    {
      "channel": 3,
      "note": 62,
      "start": 28.6231,
      "duration": 1.3225,
      "velocity": 99,
      "chip": "ym2612"
    },
    {
      "channel": 4,
      "note": 58,
      "start": 28.6249,
      "duration": 1.321,
      "velocity": 99,
      "chip": "ym2612"
    },
    {
      "channel": 5,
      "note": 86,
      "start": 28.7025,
      "duration": 0.1398,
      "velocity": 95,
      "chip": "ym2612"
    },
    {
      "channel": 0,
      "note": 86,
      "start": 28.7876,
      "duration": 0.1389,
      "velocity": 95,
      "chip": "ym2612"
    },
    {
      "channel": 5,
      "note": 88,
      "start": 28.8729,
      "duration": 0.1391,
      "velocity": 95,
      "chip": "ym2612"
    },
    {
      "channel": 0,
      "note": 82,
      "start": 28.9565,
      "duration": 0.1398,
      "velocity": 95,
      "chip": "ym2612"
    },
    {
      "channel": 5,
      "note": 86,
      "start": 29.042,
      "duration": 0.1407,
      "velocity": 95,
      "chip": "ym2612"
    },
    {
      "channel": 0,
      "note": 88,
      "start": 29.1264,
      "duration": 0.1396,
      "velocity": 95,
      "chip": "ym2612"
    },
    {
      "channel": 5,
      "note": 82,
      "start": 29.2117,
      "duration": 0.1405,
      "velocity": 95,
      "chip": "ym2612"
    },
    {
      "channel": 0,
      "note": 86,
      "start": 29.296,
      "duration": 0.1398,
      "velocity": 95,
      "chip": "ym2612"
    },
    {
      "channel": 5,
      "note": 88,
      "start": 29.3816,
      "duration": 0.1405,
      "velocity": 95,
      "chip": "ym2612"
    },
    {
      "channel": 0,
      "note": 82,
      "start": 29.4658,
      "duration": 0.1398,
      "velocity": 95,
      "chip": "ym2612"
    },
    {
      "channel": 5,
      "note": 86,
      "start": 29.5512,
      "duration": 0.1399,
      "velocity": 95,
      "chip": "ym2612"
    },
    {
      "channel": 0,
      "note": 88,
      "start": 29.6357,
      "duration": 0.1396,
      "velocity": 95,
      "chip": "ym2612"
    },
    {
      "channel": 5,
      "note": 82,
      "start": 29.7218,
      "duration": 0.1389,
      "velocity": 95,
      "chip": "ym2612"
    },
    {
      "channel": 0,
      "note": 86,
      "start": 29.8056,
      "duration": 0.1394,
      "velocity": 95,
      "chip": "ym2612"
    },
    {
      "channel": 5,
      "note": 88,
      "start": 29.8908,
      "duration": 0.1396,
      "velocity": 95,
      "chip": "ym2612"
    },
    {
      "channel": 0,
      "note": 88,
      "start": 29.9752,
      "duration": 0.1396,
      "velocity": 95,
      "chip": "ym2612"
    },
    {
      "channel": 1,
      "note": 45,
      "start": 29.9768,
      "duration": 0.1382,
      "velocity": 111,
      "chip": "ym2612"
    },
    {
      "channel": 2,
      "note": 67,
      "start": 29.9786,
      "duration": 0.1366,
      "velocity": 99,
      "chip": "ym2612"
    },
    {
      "channel": 3,
      "note": 64,
      "start": 29.9803,
      "duration": 0.1351,
      "velocity": 99,
      "chip": "ym2612"
    },
    {
      "channel": 4,
      "note": 62,
      "start": 29.982,
      "duration": 0.1337,
      "velocity": 99,
      "chip": "ym2612"
    },
    {
      "channel": 5,
      "note": 86,
      "start": 30.0604,
      "duration": 0.1398,
      "velocity": 95,
      "chip": "ym2612"
    },
    {
      "channel": 0,
      "note": 85,
      "start": 30.1447,
      "duration": 0.1398,
      "velocity": 95,
      "chip": "ym2612"
    },
    {
      "channel": 1,
      "note": 45,
      "start": 30.1463,
      "duration": 0.1384,
      "velocity": 111,
      "chip": "ym2612"
    },
    {
      "channel": 2,
      "note": 67,
      "start": 30.1481,
      "duration": 0.1368,
      "velocity": 99,
      "chip": "ym2612"
    },
    {
      "channel": 3,
      "note": 64,
      "start": 30.1498,
      "duration": 0.1354,
      "velocity": 99,
      "chip": "ym2612"
    },
    {
      "channel": 4,
      "note": 62,
      "start": 30.1515,
      "duration": 0.1339,
      "velocity": 99,
      "chip": "ym2612"
    },
    {
      "channel": 5,
      "note": 88,
      "start": 30.2303,
      "duration": 0.1405,
      "velocity": 95,
      "chip": "ym2612"
    },
    {
      "channel": 0,
      "note": 81,
      "start": 30.3145,
      "duration": 0.1398,
      "velocity": 95,
      "chip": "ym2612"
    },
    {
      "channel": 1,
      "note": 45,
      "start": 30.3161,
      "duration": 0.1383,
      "velocity": 111,
      "chip": "ym2612"
    },
    {
      "channel": 2,
      "note": 67,
      "start": 30.3178,
      "duration": 0.1368,
      "velocity": 99,
      "chip": "ym2612"
    },
    {
      "channel": 3,
      "note": 64,
      "start": 30.3204,
      "duration": 0.1345,
      "velocity": 99,
      "chip": "ym2612"
    },
    {
      "channel": 4,
      "note": 62,
      "start": 30.3221,
      "duration": 0.133,
      "velocity": 99,
      "chip": "ym2612"
    },
    {
      "channel": 5,
      "note": 85,
      "start": 30.3998,
      "duration": 0.1398,
      "velocity": 95,
      "chip": "ym2612"
    },
    {
      "channel": 0,
      "note": 88,
      "start": 30.4844,
      "duration": 0.1396,
      "velocity": 95,
      "chip": "ym2612"
    },
    {
      "channel": 1,
      "note": 45,
      "start": 30.4861,
      "duration": 0.1382,
      "velocity": 111,
      "chip": "ym2612"
    },
    {
      "channel": 2,
      "note": 67,
      "start": 30.4887,
      "duration": 0.1357,
      "velocity": 99,
      "chip": "ym2612"
    },
    {
      "channel": 3,
      "note": 64,
      "start": 30.4903,
      "duration": 0.1343,
      "velocity": 99,
      "chip": "ym2612"
    },
    {
      "channel": 4,
      "note": 62,
      "start": 30.492,
      "duration": 0.1328,
      "velocity": 99,
      "chip": "ym2612"
    },
    {
      "channel": 5,
      "note": 81,
      "start": 30.5705,
      "duration": 0.1389,
      "velocity": 95,
      "chip": "ym2612"
    },
    {
      "channel": 0,
      "note": 85,
      "start": 30.6547,
      "duration": 0.1389,
      "velocity": 95,
      "chip": "ym2612"
    },
    {
      "channel": 5,
      "note": 88,
      "start": 30.7396,
      "duration": 0.1395,
      "velocity": 95,
      "chip": "ym2612"
    },
    {
      "channel": 0,
      "note": 81,
      "start": 30.8237,
      "duration": 0.1398,
      "velocity": 95,
      "chip": "ym2612"
    },
    {
      "channel": 1,
      "note": 45,
      "start": 30.8254,
      "duration": 0.1383,
      "velocity": 111,
      "chip": "ym2612"
    },
    {
      "channel": 2,
      "note": 67,
      "start": 30.8271,
      "duration": 0.1368,
      "velocity": 99,
      "chip": "ym2612"
    },
    {
      "channel": 3,
      "note": 64,
      "start": 30.8288,
      "duration": 0.1353,
      "velocity": 99,
      "chip": "ym2612"
    },
    {
      "channel": 4,
      "note": 62,
      "start": 30.8305,
      "duration": 0.1338,
      "velocity": 99,
      "chip": "ym2612"
    },
    {
      "channel": 5,
      "note": 85,
      "start": 30.9091,
      "duration": 0.1398,
      "velocity": 95,
      "chip": "ym2612"
    },
    {
      "channel": 0,
      "note": 88,
      "start": 30.9936,
      "duration": 0.1396,
      "velocity": 95,
      "chip": "ym2612"
    },
    {
      "channel": 5,
      "note": 81,
      "start": 31.0789,
      "duration": 0.1398,
      "velocity": 95,
      "chip": "ym2612"
    },
    {
      "channel": 0,
      "note": 91,
      "start": 31.1632,
      "duration": 0.1407,
      "velocity": 95,
      "chip": "ym2612"
    },
    {
      "channel": 1,
      "note": 45,
      "start": 31.1648,
      "duration": 0.1393,
      "velocity": 111,
      "chip": "ym2612"
    },
    {
      "channel": 2,
      "note": 69,
      "start": 31.1666,
      "duration": 0.1377,
      "velocity": 99,
      "chip": "ym2612"
    },
    {
      "channel": 3,
      "note": 64,
      "start": 31.1682,
      "duration": 0.1363,
      "velocity": 99,
      "chip": "ym2612"
    },
    {
      "channel": 4,
      "note": 61,
      "start": 31.1707,
      "duration": 0.134,
      "velocity": 99,
      "chip": "ym2612"
    },
    {
      "channel": 5,
      "note": 88,
      "start": 31.2487,
      "duration": 0.1396,
      "velocity": 95,
      "chip": "ym2612"
    },
    {
      "channel": 0,
      "note": 88,
      "start": 31.3327,
      "duration": 0.14,
      "velocity": 95,
      "chip": "ym2612"
    },
    {
      "channel": 5,
      "note": 91,
      "start": 31.4183,
      "duration": 0.1398,
      "velocity": 95,
      "chip": "ym2612"
    },
    {
      "channel": 0,
      "note": 81,
      "start": 31.5024,
      "duration": 0.14,
      "velocity": 95,
      "chip": "ym2612"
    },
    {
      "channel": 1,
      "note": 45,
      "start": 31.5049,
      "duration": 0.1377,
      "velocity": 111,
      "chip": "ym2612"
    },
    {
      "channel": 2,
      "note": 69,
      "start": 31.5067,
      "duration": 0.1362,
      "velocity": 99,
      "chip": "ym2612"
    },
    {
      "channel": 3,
      "note": 64,
      "start": 31.5084,
      "duration": 0.1347,
      "velocity": 99,
      "chip": "ym2612"
    },
    {
      "channel": 4,
      "note": 61,
      "start": 31.51,
      "duration": 0.1332,
      "velocity": 99,
      "chip": "ym2612"
    },
    {
      "channel": 5,
      "note": 88,
      "start": 31.5888,
      "duration": 0.139,
      "velocity": 95,
      "chip": "ym2612"
    },
    {
      "channel": 0,
      "note": 85,
      "start": 31.6721,
      "duration": 0.14,
      "velocity": 95,
      "chip": "ym2612"
    },
    {
      "channel": 1,
      "note": 45,
      "start": 31.6738,
      "duration": 0.6478,
      "velocity": 111,
      "chip": "ym2612"
    },
    {
      "channel": 2,
      "note": 69,
      "start": 31.6756,
      "duration": 0.9857,
      "velocity": 99,
      "chip": "ym2612"
    },
    {
      "channel": 3,
      "note": 64,
      "start": 31.6773,
      "duration": 0.9842,
      "velocity": 99,
      "chip": "ym2612"
    },
    {
      "channel": 4,
      "note": 61,
      "start": 31.679,
      "duration": 0.9827,
      "velocity": 99,
      "chip": "ym2612"
    },
    {
      "channel": 5,
      "note": 81,
      "start": 31.7576,
      "duration": 0.14,
      "velocity": 95,
      "chip": "ym2612"
    },
    {
      "channel": 0,
      "note": 79,
      "start": 31.8427,
      "duration": 0.1391,
      "velocity": 95,
      "chip": "ym2612"
    },
    {
      "channel": 5,
      "note": 85,
      "start": 31.9273,
      "duration": 0.1401,
      "velocity": 95,
      "chip": "ym2612"
    },
    {
      "channel": 0,
      "note": 81,
      "start": 32.0122,
      "duration": 0.1394,
      "velocity": 95,
      "chip": "ym2612"
    },
    {
      "channel": 5,
      "note": 79,
      "start": 32.0971,
      "duration": 0.1407,
      "velocity": 95,
      "chip": "ym2612"
    },
    {
      "channel": 0,
      "note": 76,
      "start": 32.1817,
      "duration": 0.1397,
      "velocity": 95,
      "chip": "ym2612"
    },
    {
      "channel": 5,
      "note": 81,
      "start": 32.2668,
      "duration": 0.14,
      "velocity": 95,
      "chip": "ym2612"
    },
    {
      "channel": 0,
      "note": 79,
      "start": 32.3511,
      "duration": 0.14,
      "velocity": 95,
      "chip": "ym2612"
    },
    {
      "channel": 1,
      "note": 38,
      "start": 32.3528,
      "duration": 0.3083,
      "velocity": 111,
      "chip": "ym2612"
    },
    {
      "channel": 5,
      "note": 76,
      "start": 32.4373,
      "duration": 0.1392,
      "velocity": 95,
      "chip": "ym2612"
    },
    {
      "channel": 0,
      "note": 73,
      "start": 32.5217,
      "duration": 0.1392,
      "velocity": 95,
      "chip": "ym2612"
    },
    {
      "channel": 5,
      "note": 79,
      "start": 32.6062,
      "duration": 0.1543,
      "velocity": 95,
      "chip": "ym2612"
    },
    {
      "channel": 0,
      "note": 58,
      "start": 32.6941,
      "duration": 0.151,
      "velocity": 105,
      "chip": "ym2612"
    },
    {
      "channel": 1,
      "note": 43,
      "start": 32.6962,
      "duration": 0.3184,
      "velocity": 111,
      "chip": "ym2612"
    },
    {
      "channel": 2,
      "note": 61,
      "start": 32.702,
      "duration": 0.0581,
      "velocity": 127,
      "chip": "ym2612"
    },
    {
      "channel": 3,
      "note": 55,
      "start": 32.7082,
      "duration": 0.1377,
      "velocity": 105,
      "chip": "ym2612"
    },
    {
      "channel": 5,
      "note": 73,
      "start": 32.7906,
      "duration": 0.14,
      "velocity": 95,
      "chip": "ym2612"
    },
    {
      "channel": 0,
      "note": 58,
      "start": 32.8744,
      "duration": 0.1401,
      "velocity": 105,
      "chip": "ym2612"
    },
    {
      "channel": 3,
      "note": 55,
      "start": 32.8768,
      "duration": 0.1386,
      "velocity": 105,
      "chip": "ym2612"
    },
    {
      "channel": 5,
      "note": 58,
      "start": 32.964,
      "duration": 0.1363,
      "velocity": 105,
      "chip": "ym2612"
    },
    {
      "channel": 4,
      "note": 55,
      "start": 32.9775,
      "duration": 0.1368,
      "velocity": 105,
      "chip": "ym2612"
    },
    {
      "channel": 0,
      "note": 58,
      "start": 33.0442,
      "duration": 0.14,
      "velocity": 105,
      "chip": "ym2612"
    },
    {
      "channel": 1,
      "note": 43,
      "start": 33.046,
      "duration": 0.3084,
      "velocity": 111,
      "chip": "ym2612"
    },
    {
      "channel": 3,
      "note": 55,
      "start": 33.0482,
      "duration": 0.1368,
      "velocity": 105,
      "chip": "ym2612"
    },
    {
      "channel": 5,
      "note": 58,
      "start": 33.13,
      "duration": 0.1408,
      "velocity": 105,
      "chip": "ym2612"
    },
    {
      "channel": 4,
      "note": 55,
      "start": 33.1441,
      "duration": 0.14,
      "velocity": 105,
      "chip": "ym2612"
    },
    {
      "channel": 0,
      "note": 58,
      "start": 33.2139,
      "duration": 0.1403,
      "velocity": 105,
      "chip": "ym2612"
    },
    {
      "channel": 3,
      "note": 55,
      "start": 33.2163,
      "duration": 0.1384,
      "velocity": 105,
      "chip": "ym2612"
    },
    {
      "channel": 5,
      "note": 58,
      "start": 33.2993,
      "duration": 0.1401,
      "velocity": 105,
      "chip": "ym2612"
    },
    {
      "channel": 4,
      "note": 55,
      "start": 33.3134,
      "duration": 0.1413,
      "velocity": 105,
      "chip": "ym2612"
    },
    {
      "channel": 1,
      "note": 43,
      "start": 33.3839,
      "duration": 0.3098,
      "velocity": 111,
      "chip": "ym2612"
    },
    {
      "channel": 2,
      "note": 61,
      "start": 33.3896,
      "duration": 0.0495,
      "velocity": 127,
      "chip": "ym2612"
    },
    {
      "channel": 5,
      "note": 58,
      "start": 33.4703,
      "duration": 0.1393,
      "velocity": 105,
      "chip": "ym2612"
    },
    {
      "channel": 4,
      "note": 55,
      "start": 33.4835,
      "duration": 0.14,
      "velocity": 105,
      "chip": "ym2612"
    },
    {
      "channel": 0,
      "note": 58,
      "start": 33.5542,
      "duration": 0.1392,
      "velocity": 105,
      "chip": "ym2612"
    },
    {
      "channel": 3,
      "note": 55,
      "start": 33.5565,
      "duration": 0.1378,
      "velocity": 105,
      "chip": "ym2612"
    },
    {
      "channel": 1,
      "note": 43,
      "start": 33.7234,
      "duration": 0.3098,
      "velocity": 111,
      "chip": "ym2612"
    },
    {
      "channel": 2,
      "note": 61,
      "start": 33.7286,
      "duration": 0.05,
      "velocity": 127,
      "chip": "ym2612"
    },
    {
      "channel": 5,
      "note": 58,
      "start": 33.809,
      "duration": 0.14,
      "velocity": 105,
      "chip": "ym2612"
    },
    {
      "channel": 4,
      "note": 55,
      "start": 33.823,
      "duration": 0.14,
      "velocity": 105,
      "chip": "ym2612"
    },
    {
      "channel": 0,
      "note": 58,
      "start": 33.8929,
      "duration": 0.14,
      "velocity": 105,
      "chip": "ym2612"
    },
    {
      "channel": 3,
      "note": 55,
      "start": 33.8952,
      "duration": 0.1386,
      "velocity": 105,
      "chip": "ym2612"
    },
    {
      "channel": 0,
      "note": 48,
      "start": 34.0657,
      "duration": 0.1511,
      "velocity": 105,
      "chip": "ym2612"
    },
    {
      "channel": 1,
      "note": 48,
      "start": 34.0676,
      "duration": 0.3198,
      "velocity": 111,
      "chip": "ym2612"
    },
    {
      "channel": 2,
      "note": 61,
      "start": 34.0738,
      "duration": 0.0584,
      "velocity": 127,
      "chip": "ym2612"
    },
    {
      "channel": 3,
      "note": 39,
      "start": 34.0786,
      "duration": 0.139,
      "velocity": 105,
      "chip": "ym2612"
    },
    {
      "channel": 5,
      "note": 58,
      "start": 34.1626,
      "duration": 0.14,
      "velocity": 105,
      "chip": "ym2612"
    },
    {
      "channel": 4,
      "note": 55,
      "start": 34.177,
      "duration": 0.1397,
      "velocity": 105,
      "chip": "ym2612"
    },
    {
      "channel": 0,
      "note": 48,
      "start": 34.2465,
      "duration": 0.1408,
      "velocity": 105,
      "chip": "ym2612"
    },
    {
      "channel": 3,
      "note": 39,
      "start": 34.2488,
      "duration": 0.1394,
      "velocity": 105,
      "chip": "ym2612"
    },
    {
      "channel": 5,
      "note": 48,
      "start": 34.3354,
      "duration": 0.1369,
      "velocity": 105,
      "chip": "ym2612"
    },
    {
      "channel": 4,
      "note": 39,
      "start": 34.3495,
      "duration": 0.1378,
      "velocity": 105,
      "chip": "ym2612"
    },
    {
      "channel": 0,
      "note": 48,
      "start": 34.4162,
      "duration": 0.1401,
      "velocity": 105,
      "chip": "ym2612"
    },
    {
      "channel": 1,
      "note": 48,
      "start": 34.418,
      "duration": 0.3081,
      "velocity": 111,
      "chip": "ym2612"
    },
    {
      "channel": 3,
      "note": 39,
      "start": 34.421,
      "duration": 0.1361,
      "velocity": 105,
      "chip": "ym2612"
    },
    {
      "channel": 5,
      "note": 48,
      "start": 34.5037,
      "duration": 0.1383,
      "velocity": 105,
      "chip": "ym2612"
    },
    {
      "channel": 4,
      "note": 39,
      "start": 34.5161,
      "duration": 0.1401,
      "velocity": 105,
      "chip": "ym2612"
    },
    {
      "channel": 0,
      "note": 48,
      "start": 34.586,
      "duration": 0.14,
      "velocity": 105,
      "chip": "ym2612"
    },
    {
      "channel": 3,
      "note": 39,
      "start": 34.5892,
      "duration": 0.1373,
      "velocity": 105,
      "chip": "ym2612"
    },
    {
      "channel": 5,
      "note": 48,
      "start": 34.6726,
      "duration": 0.1389,
      "velocity": 105,
      "chip": "ym2612"
    },
    {
      "channel": 4,
      "note": 39,
      "start": 34.6854,
      "duration": 0.1405,
      "velocity": 105,
      "chip": "ym2612"
    },
    {
      "channel": 1,
      "note": 48,
      "start": 34.756,
      "duration": 0.3097,
      "velocity": 111,
      "chip": "ym2612"
    },
    {
      "channel": 2,
      "note": 61,
      "start": 34.7608,
      "duration": 0.0504,
      "velocity": 127,
      "chip": "ym2612"
    },
    {
      "channel": 5,
      "note": 48,
      "start": 34.8418,
      "duration": 0.1397,
      "velocity": 105,
      "chip": "ym2612"
    },
    {
      "channel": 4,
      "note": 39,
      "start": 34.8562,
      "duration": 0.1394,
      "velocity": 105,
      "chip": "ym2612"
    },
    {
      "channel": 0,
      "note": 48,
      "start": 34.9254,
      "duration": 0.14,
      "velocity": 105,
      "chip": "ym2612"
    },
    {
      "channel": 3,
      "note": 39,
      "start": 34.9277,
      "duration": 0.1387,
      "velocity": 105,
      "chip": "ym2612"
    },
    {
      "channel": 1,
      "note": 48,
      "start": 35.0955,
      "duration": 0.3097,
      "velocity": 111,
      "chip": "ym2612"
    },
    {
      "channel": 2,
      "note": 61,
      "start": 35.1007,
      "duration": 0.0499,
      "velocity": 127,
      "chip": "ym2612"
    },
    {
      "channel": 5,
      "note": 48,
      "start": 35.181,
      "duration": 0.1405,
      "velocity": 105,
      "chip": "ym2612"
    },
    {
      "channel": 4,
      "note": 39,
      "start": 35.1951,
      "duration": 0.1403,
      "velocity": 105,
      "chip": "ym2612"
    },
    {
      "channel": 0,
      "note": 48,
      "start": 35.2649,
      "duration": 0.14,
      "velocity": 105,
      "chip": "ym2612"
    },
    {
      "channel": 3,
      "note": 39,
      "start": 35.2672,
      "duration": 0.1387,
      "velocity": 105,
      "chip": "ym2612"
    },
    {
      "channel": 0,
      "note": 57,
      "start": 35.4385,
      "duration": 0.1503,
      "velocity": 105,
      "chip": "ym2612"
    },
    {
      "channel": 1,
      "note": 41,
      "start": 35.4405,
      "duration": 0.3183,
      "velocity": 111,
      "chip": "ym2612"
    },
    {
      "channel": 2,
      "note": 61,
      "start": 35.4459,
      "duration": 0.0593,
      "velocity": 127,
      "chip": "ym2612"
    },
    {
      "channel": 3,
      "note": 53,
      "start": 35.4507,
      "duration": 0.139,
      "velocity": 105,
      "chip": "ym2612"
    },
    {
      "channel": 5,
      "note": 48,
      "start": 35.5346,
      "duration": 0.14,
      "velocity": 105,
      "chip": "ym2612"
    },
    {
      "channel": 4,
      "note": 39,
      "start": 35.5487,
      "duration": 0.14,
      "velocity": 105,
      "chip": "ym2612"
    },
    {
      "channel": 0,
      "note": 57,
      "start": 35.6185,
      "duration": 0.14,
      "velocity": 105,
      "chip": "ym2612"
    },
    {
      "channel": 3,
      "note": 53,
      "start": 35.6217,
      "duration": 0.1378,
      "velocity": 105,
      "chip": "ym2612"
    },
    {
      "channel": 5,
      "note": 57,
      "start": 35.7084,
      "duration": 0.136,
      "velocity": 105,
      "chip": "ym2612"
    },
    {
      "channel": 4,
      "note": 53,
      "start": 35.7224,
      "duration": 0.1361,
      "velocity": 105,
      "chip": "ym2612"
    },
    {
      "channel": 0,
      "note": 57,
      "start": 35.7887,
      "duration": 0.1396,
      "velocity": 105,
      "chip": "ym2612"
    },
    {
      "channel": 1,
      "note": 41,
      "start": 35.7904,
      "duration": 0.3078,
      "velocity": 111,
      "chip": "ym2612"
    },
    {
      "channel": 3,
      "note": 53,
      "start": 35.7927,
      "duration": 0.1365,
      "velocity": 105,
      "chip": "ym2612"
    },
    {
      "channel": 5,
      "note": 57,
      "start": 35.8741,
      "duration": 0.14,
      "velocity": 105,
      "chip": "ym2612"
    },
    {
      "channel": 4,
      "note": 53,
      "start": 35.889,
      "duration": 0.1393,
      "velocity": 105,
      "chip": "ym2612"
    },
    {
      "channel": 0,
      "note": 57,
      "start": 35.958,
      "duration": 0.14,
      "velocity": 105,
      "chip": "ym2612"
    },
    {
      "channel": 3,
      "note": 53,
      "start": 35.9603,
      "duration": 0.1382,
      "velocity": 105,
      "chip": "ym2612"
    },
    {
      "channel": 5,
      "note": 57,
      "start": 36.0434,
      "duration": 0.1402,
      "velocity": 105,
      "chip": "ym2612"
    },
    {
      "channel": 4,
      "note": 53,
      "start": 36.0575,
      "duration": 0.1405,
      "velocity": 105,
      "chip": "ym2612"
    },
    {
      "channel": 1,
      "note": 41,
      "start": 36.128,
      "duration": 0.3097,
      "velocity": 111,
      "chip": "ym2612"
    },
    {
      "channel": 2,
      "note": 61,
      "start": 36.1329,
      "duration": 0.0503,
      "velocity": 127,
      "chip": "ym2612"
    },
    {
      "channel": 5,
      "note": 57,
      "start": 36.2136,
      "duration": 0.1408,
      "velocity": 105,
      "chip": "ym2612"
    },
    {
      "channel": 4,
      "note": 53,
      "start": 36.2276,
      "duration": 0.14,
      "velocity": 105,
      "chip": "ym2612"
    },
    {
      "channel": 0,
      "note": 57,
      "start": 36.2975,
      "duration": 0.14,
      "velocity": 105,
      "chip": "ym2612"
    },
    {
      "channel": 3,
      "note": 53,
      "start": 36.2998,
      "duration": 0.1387,
      "velocity": 105,
      "chip": "ym2612"
    },
    {
      "channel": 1,
      "note": 41,
      "start": 36.4675,
      "duration": 0.3097,
      "velocity": 111,
      "chip": "ym2612"
    },
    {
      "channel": 2,
      "note": 61,
      "start": 36.4735,
      "duration": 0.0492,
      "velocity": 127,
      "chip": "ym2612"
    },
    {
      "channel": 5,
      "note": 57,
      "start": 36.5539,
      "duration": 0.1392,
      "velocity": 105,
      "chip": "ym2612"
    },
    {
      "channel": 4,
      "note": 53,
      "start": 36.5671,
      "duration": 0.14,
      "velocity": 105,
      "chip": "ym2612"
    },
    {
      "channel": 0,
      "note": 57,
      "start": 36.6378,
      "duration": 0.1392,
      "velocity": 105,
      "chip": "ym2612"
    },
    {
      "channel": 3,
      "note": 53,
      "start": 36.6401,
      "duration": 0.1378,
      "velocity": 105,
      "chip": "ym2612"
    },
    {
      "channel": 0,
      "note": 50,
      "start": 36.8101,
      "duration": 0.1508,
      "velocity": 105,
      "chip": "ym2612"
    },
    {
      "channel": 1,
      "note": 46,
      "start": 36.8122,
      "duration": 0.3186,
      "velocity": 111,
      "chip": "ym2612"
    },
    {
      "channel": 2,
      "note": 61,
      "start": 36.8176,
      "duration": 0.0587,
      "velocity": 127,
      "chip": "ym2612"
    },
    {
      "channel": 3,
      "note": 46,
      "start": 36.8235,
      "duration": 0.1382,
      "velocity": 105,
      "chip": "ym2612"
    },
    {
      "channel": 5,
      "note": 57,
      "start": 36.9067,
      "duration": 0.14,
      "velocity": 105,
      "chip": "ym2612"
    },
    {
      "channel": 4,
      "note": 53,
      "start": 36.9216,
      "duration": 0.1391,
      "velocity": 105,
      "chip": "ym2612"
    },
    {
      "channel": 0,
      "note": 50,
      "start": 36.9906,
      "duration": 0.1401,
      "velocity": 105,
      "chip": "ym2612"
    },
    {
      "channel": 3,
      "note": 46,
      "start": 36.9929,
      "duration": 0.1386,
      "velocity": 105,
      "chip": "ym2612"
    },
    {
      "channel": 5,
      "note": 50,
      "start": 37.0799,
      "duration": 0.1366,
      "velocity": 105,
      "chip": "ym2612"
    },
    {
      "channel": 4,
      "note": 46,
      "start": 37.0939,
      "duration": 0.1366,
      "velocity": 105,
      "chip": "ym2612"
    },
    {
      "channel": 0,
      "note": 50,
      "start": 37.1609,
      "duration": 0.1394,
      "velocity": 105,
      "chip": "ym2612"
    },
    {
      "channel": 1,
      "note": 46,
      "start": 37.1626,
      "duration": 0.3082,
      "velocity": 111,
      "chip": "ym2612"
    },
    {
      "channel": 3,
      "note": 46,
      "start": 37.1647,
      "duration": 0.1364,
      "velocity": 105,
      "chip": "ym2612"
    },
    {
      "channel": 5,
      "note": 50,
      "start": 37.2462,
      "duration": 0.1408,
      "velocity": 105,
      "chip": "ym2612"
    },
    {
      "channel": 4,
      "note": 46,
      "start": 37.2602,
      "duration": 0.14,
      "velocity": 105,
      "chip": "ym2612"
    },
    {
      "channel": 0,
      "note": 50,
      "start": 37.3304,
      "duration": 0.1401,
      "velocity": 105,
      "chip": "ym2612"
    },
    {
      "channel": 3,
      "note": 46,
      "start": 37.3327,
      "duration": 0.1384,
      "velocity": 105,
      "chip": "ym2612"
    },
    {
      "channel": 5,
      "note": 50,
      "start": 37.4155,
      "duration": 0.1401,
      "velocity": 105,
      "chip": "ym2612"
    },
    {
      "channel": 4,
      "note": 46,
      "start": 37.4295,
      "duration": 0.1413,
      "velocity": 105,
      "chip": "ym2612"
    },
    {
      "channel": 1,
      "note": 45,
      "start": 37.4999,
      "duration": 0.3099,
      "velocity": 111,
      "chip": "ym2612"
    },
    {
      "channel": 2,
      "note": 61,
      "start": 37.5056,
      "duration": 0.0496,
      "velocity": 127,
      "chip": "ym2612"
    },
    {
      "channel": 5,
      "note": 50,
      "start": 37.5857,
      "duration": 0.14,
      "velocity": 105,
      "chip": "ym2612"
    },
    {
      "channel": 4,
      "note": 46,
      "start": 37.5997,
      "duration": 0.14,
      "velocity": 105,
      "chip": "ym2612"
    },
    {
      "channel": 0,
      "note": 50,
      "start": 37.6704,
      "duration": 0.1392,
      "velocity": 105,
      "chip": "ym2612"
    },
    {
      "channel": 3,
      "note": 46,
      "start": 37.6727,
      "duration": 0.1378,
      "velocity": 105,
      "chip": "ym2612"
    },
    {
      "channel": 1,
      "note": 45,
      "start": 37.8396,
      "duration": 0.3097,
      "velocity": 111,
      "chip": "ym2612"
    },
    {
      "channel": 2,
      "note": 61,
      "start": 37.8448,
      "duration": 0.0499,
      "velocity": 127,
      "chip": "ym2612"
    },
    {
      "channel": 5,
      "note": 50,
      "start": 37.9251,
      "duration": 0.14,
      "velocity": 105,
      "chip": "ym2612"
    },
    {
      "channel": 4,
      "note": 46,
      "start": 37.9395,
      "duration": 0.1396,
      "velocity": 105,
      "chip": "ym2612"
    },
    {
      "channel": 0,
      "note": 50,
      "start": 38.009,
      "duration": 0.14,
      "velocity": 105,
      "chip": "ym2612"
    },
    {
      "channel": 3,
      "note": 46,
      "start": 38.0114,
      "duration": 0.1386,
      "velocity": 105,
      "chip": "ym2612"
    },
    {
      "channel": 0,
      "note": 58,
      "start": 38.1822,
      "duration": 0.1507,
      "velocity": 105,
      "chip": "ym2612"
    },
    {
      "channel": 1,
      "note": 43,
      "start": 38.1842,
      "duration": 0.3195,
      "velocity": 111,
      "chip": "ym2612"
    },
    {
      "channel": 2,
      "note": 61,
      "start": 38.1904,
      "duration": 0.058,
      "velocity": 127,
      "chip": "ym2612"
    },
    {
      "channel": 3,
      "note": 55,
      "start": 38.1955,
      "duration": 0.1382,
      "velocity": 105,
      "chip": "ym2612"
    },
    {
      "channel": 5,
      "note": 50,
      "start": 38.2787,
      "duration": 0.14,
      "velocity": 105,
      "chip": "ym2612"
    },
    {
      "channel": 4,
      "note": 46,
      "start": 38.2928,
      "duration": 0.14,
      "velocity": 105,
      "chip": "ym2612"
    },
    {
      "channel": 0,
      "note": 58,
      "start": 38.3626,
      "duration": 0.14,
      "velocity": 105,
      "chip": "ym2612"
    },
    {
      "channel": 3,
      "note": 55,
      "start": 38.365,
      "duration": 0.1394,
      "velocity": 105,
      "chip": "ym2612"
    },
    {
      "channel": 5,
      "note": 58,
      "start": 38.452,
      "duration": 0.1365,
      "velocity": 105,
      "chip": "ym2612"
    },
    {
      "channel": 4,
      "note": 55,
      "start": 38.4659,
      "duration": 0.1366,
      "velocity": 105,
      "chip": "ym2612"
    },
    {
      "channel": 0,
      "note": 58,
      "start": 38.5324,
      "duration": 0.1401,
      "velocity": 105,
      "chip": "ym2612"
    },
    {
      "channel": 1,
      "note": 43,
      "start": 38.5342,
      "duration": 0.3081,
      "velocity": 111,
      "chip": "ym2612"
    },
    {
      "channel": 3,
      "note": 55,
      "start": 38.5372,
      "duration": 0.1361,
      "velocity": 105,
      "chip": "ym2612"
    },
    {
      "channel": 5,
      "note": 58,
      "start": 38.6182,
      "duration": 0.14,
      "velocity": 105,
      "chip": "ym2612"
    },
    {
      "channel": 4,
      "note": 55,
      "start": 38.6322,
      "duration": 0.1401,
      "velocity": 105,
      "chip": "ym2612"
    },
    {
      "channel": 0,
      "note": 58,
      "start": 38.7021,
      "duration": 0.14,
      "velocity": 105,
      "chip": "ym2612"
    },
    {
      "channel": 3,
      "note": 55,
      "start": 38.7053,
      "duration": 0.1374,
      "velocity": 105,
      "chip": "ym2612"
    },
    {
      "channel": 5,
      "note": 58,
      "start": 38.7884,
      "duration": 0.1393,
      "velocity": 105,
      "chip": "ym2612"
    },
    {
      "channel": 4,
      "note": 55,
      "start": 38.8016,
      "duration": 0.1405,
      "velocity": 105,
      "chip": "ym2612"
    },
    {
      "channel": 1,
      "note": 43,
      "start": 38.8722,
      "duration": 0.3096,
      "velocity": 111,
      "chip": "ym2612"
    },
    {
      "channel": 2,
      "note": 61,
      "start": 38.8771,
      "duration": 0.0502,
      "velocity": 127,
      "chip": "ym2612"
    },
    {
      "channel": 5,
      "note": 58,
      "start": 38.9577,
      "duration": 0.14,
      "velocity": 105,
      "chip": "ym2612"
    },
    {
      "channel": 4,
      "note": 55,
      "start": 38.9726,
      "duration": 0.1392,
      "velocity": 105,
      "chip": "ym2612"
    },
    {
      "channel": 0,
      "note": 58,
      "start": 39.0416,
      "duration": 0.14,
      "velocity": 105,
      "chip": "ym2612"
    },
    {
      "channel": 3,
      "note": 55,
      "start": 39.0439,
      "duration": 0.1386,
      "velocity": 105,
      "chip": "ym2612"
    },
    {
      "channel": 1,
      "note": 43,
      "start": 39.2116,
      "duration": 0.3097,
      "velocity": 111,
      "chip": "ym2612"
    },
    {
      "channel": 2,
      "note": 61,
      "start": 39.2168,
      "duration": 0.05,
      "velocity": 127,
      "chip": "ym2612"
    },
    {
      "channel": 5,
      "note": 58,
      "start": 39.2972,
      "duration": 0.1408,
      "velocity": 105,
      "chip": "ym2612"
    },
    {
      "channel": 4,
      "note": 55,
      "start": 39.3112,
      "duration": 0.1399,
      "velocity": 105,
      "chip": "ym2612"
    },
    {
      "channel": 0,
      "note": 58,
      "start": 39.3811,
      "duration": 0.14,
      "velocity": 105,
      "chip": "ym2612"
    },
    {
      "channel": 3,
      "note": 55,
      "start": 39.3834,
      "duration": 0.1385,
      "velocity": 105,
      "chip": "ym2612"
    },
    {
      "channel": 0,
      "note": 48,
      "start": 39.5547,
      "duration": 0.1503,
      "velocity": 105,
      "chip": "ym2612"
    },
    {
      "channel": 1,
      "note": 48,
      "start": 39.5567,
      "duration": 0.3183,
      "velocity": 111,
      "chip": "ym2612"
    },
    {
      "channel": 2,
      "note": 61,
      "start": 39.5621,
      "duration": 0.0588,
      "velocity": 127,
      "chip": "ym2612"
    },
    {
      "channel": 3,
      "note": 39,
      "start": 39.5668,
      "duration": 0.139,
      "velocity": 105,
      "chip": "ym2612"
    },
    {
      "channel": 5,
      "note": 58,
      "start": 39.6518,
      "duration": 0.139,
      "velocity": 105,
      "chip": "ym2612"
    },
    {
      "channel": 4,
      "note": 55,
      "start": 39.6649,
      "duration": 0.1399,
      "velocity": 105,
      "chip": "ym2612"
    },
    {
      "channel": 0,
      "note": 48,
      "start": 39.7347,
      "duration": 0.14,
      "velocity": 105,
      "chip": "ym2612"
    },
    {
      "channel": 3,
      "note": 39,
      "start": 39.7378,
      "duration": 0.1378,
      "velocity": 105,
      "chip": "ym2612"
    },
    {
      "channel": 5,
      "note": 48,
      "start": 39.8251,
      "duration": 0.1354,
      "velocity": 105,
      "chip": "ym2612"
    },
    {
      "channel": 4,
      "note": 39,
      "start": 39.8385,
      "duration": 0.1361,
      "velocity": 105,
      "chip": "ym2612"
    },
    {
      "channel": 0,
      "note": 48,
      "start": 39.9053,
      "duration": 0.1391,
      "velocity": 105,
      "chip": "ym2612"
    },
    {
      "channel": 1,
      "note": 48,
      "start": 39.9071,
      "duration": 0.3073,
      "velocity": 111,
      "chip": "ym2612"
    },
    {
      "channel": 3,
      "note": 39,
      "start": 39.9093,
      "duration": 0.136,
      "velocity": 105,
      "chip": "ym2612"
    },
    {
      "channel": 5,
      "note": 48,
      "start": 39.9907,
      "duration": 0.1396,
      "velocity": 105,
      "chip": "ym2612"
    },
    {
      "channel": 4,
      "note": 39,
      "start": 40.0051,
      "duration": 0.1392,
      "velocity": 105,
      "chip": "ym2612"
    },
    {
      "channel": 0,
      "note": 48,
      "start": 40.0742,
      "duration": 0.14,
      "velocity": 105,
      "chip": "ym2612"
    },
    {
      "channel": 3,
      "note": 39,
      "start": 40.0765,
      "duration": 0.1382,
      "velocity": 105,
      "chip": "ym2612"
    },
    {
      "channel": 5,
      "note": 48,
      "start": 40.1596,
      "duration": 0.1402,
      "velocity": 105,
      "chip": "ym2612"
    },
    {
      "channel": 4,
      "note": 39,
      "start": 40.1737,
      "duration": 0.1413,
      "velocity": 105,
      "chip": "ym2612"
    },
    {
      "channel": 1,
      "note": 48,
      "start": 40.2442,
      "duration": 0.3099,
      "velocity": 111,
      "chip": "ym2612"
    },
    {
      "channel": 2,
      "note": 61,
      "start": 40.249,
      "duration": 0.0503,
      "velocity": 127,
      "chip": "ym2612"
    },
    {
      "channel": 5,
      "note": 48,
      "start": 40.3298,
      "duration": 0.1408,
      "velocity": 105,
      "chip": "ym2612"
    },
    {
      "channel": 4,
      "note": 39,
      "start": 40.3438,
      "duration": 0.1405,
      "velocity": 105,
      "chip": "ym2612"
    },
    {
      "channel": 0,
      "note": 48,
      "start": 40.4137,
      "duration": 0.1402,
      "velocity": 105,
      "chip": "ym2612"
    },
    {
      "channel": 3,
      "note": 39,
      "start": 40.4159,
      "duration": 0.1389,
      "velocity": 105,
      "chip": "ym2612"
    },
    {
      "channel": 1,
      "note": 48,
      "start": 40.5836,
      "duration": 0.3097,
      "velocity": 111,
      "chip": "ym2612"
    },
    {
      "channel": 2,
      "note": 61,
      "start": 40.5897,
      "duration": 0.0492,
      "velocity": 127,
      "chip": "ym2612"
    },
    {
      "channel": 5,
      "note": 48,
      "start": 40.6693,
      "duration": 0.14,
      "velocity": 105,
      "chip": "ym2612"
    },
    {
      "channel": 4,
      "note": 39,
      "start": 40.6833,
      "duration": 0.14,
      "velocity": 105,
      "chip": "ym2612"
    },
    {
      "channel": 0,
      "note": 48,
      "start": 40.754,
      "duration": 0.1392,
      "velocity": 105,
      "chip": "ym2612"
    },
    {
      "channel": 3,
      "note": 39,
      "start": 40.7563,
      "duration": 0.1378,
      "velocity": 105,
      "chip": "ym2612"
    },
    {
      "channel": 0,
      "note": 57,
      "start": 40.9259,
      "duration": 0.1511,
      "velocity": 105,
      "chip": "ym2612"
    },
    {
      "channel": 1,
      "note": 41,
      "start": 40.9279,
      "duration": 0.3191,
      "velocity": 111,
      "chip": "ym2612"
    },
    {
      "channel": 2,
      "note": 61,
      "start": 40.9336,
      "duration": 0.0589,
      "velocity": 127,
      "chip": "ym2612"
    },
    {
      "channel": 3,
      "note": 53,
      "start": 40.9392,
      "duration": 0.1388,
      "velocity": 105,
      "chip": "ym2612"
    },
    {
      "channel": 5,
      "note": 48,
      "start": 41.0229,
      "duration": 0.1399,
      "velocity": 105,
      "chip": "ym2612"
    },
    {
      "channel": 4,
      "note": 39,
      "start": 41.0377,
      "duration": 0.1392,
      "velocity": 105,
      "chip": "ym2612"
    },
    {
      "channel": 0,
      "note": 57,
      "start": 41.1068,
      "duration": 0.14,
      "velocity": 105,
      "chip": "ym2612"
    },
    {
      "channel": 3,
      "note": 53,
      "start": 41.1091,
      "duration": 0.1386,
      "velocity": 105,
      "chip": "ym2612"
    },
    {
      "channel": 5,
      "note": 57,
      "start": 41.1957,
      "duration": 0.1366,
      "velocity": 105,
      "chip": "ym2612"
    },
    {
      "channel": 4,
      "note": 53,
      "start": 41.2097,
      "duration": 0.137,
      "velocity": 105,
      "chip": "ym2612"
    },
    {
      "channel": 0,
      "note": 57,
      "start": 41.2765,
      "duration": 0.14,
      "velocity": 105,
      "chip": "ym2612"
    },
    {
      "channel": 1,
      "note": 41,
      "start": 41.2783,
      "duration": 0.3091,
      "velocity": 111,
      "chip": "ym2612"
    },
    {
      "channel": 2,
      "note": 61,
      "start": 41.2803,
      "duration": 0.0517,
      "velocity": 127,
      "chip": "ym2612"
    },
    {
      "channel": 3,
      "note": 53,
      "start": 41.282,
      "duration": 0.1353,
      "velocity": 105,
      "chip": "ym2612"
    },
    {
      "channel": 5,
      "note": 57,
      "start": 41.3623,
      "duration": 0.14,
      "velocity": 105,
      "chip": "ym2612"
    },
    {
      "channel": 4,
      "note": 53,
      "start": 41.3764,
      "duration": 0.14,
      "velocity": 105,
      "chip": "ym2612"
    },
    {
      "channel": 0,
      "note": 57,
      "start": 41.4462,
      "duration": 0.1409,
      "velocity": 105,
      "chip": "ym2612"
    },
    {
      "channel": 3,
      "note": 53,
      "start": 41.4486,
      "duration": 0.1395,
      "velocity": 105,
      "chip": "ym2612"
    },
    {
      "channel": 5,
      "note": 57,
      "start": 41.5321,
      "duration": 0.1397,
      "velocity": 105,
      "chip": "ym2612"
    },
    {
      "channel": 4,
      "note": 53,
      "start": 41.5461,
      "duration": 0.14,
      "velocity": 105,
      "chip": "ym2612"
    },
    {
      "channel": 1,
      "note": 41,
      "start": 41.6162,
      "duration": 0.3098,
      "velocity": 111,
      "chip": "ym2612"
    },
    {
      "channel": 2,
      "note": 61,
      "start": 41.6223,
      "duration": 0.0491,
      "velocity": 127,
      "chip": "ym2612"
    },
    {
      "channel": 5,
      "note": 57,
      "start": 41.7018,
      "duration": 0.14,
      "velocity": 105,
      "chip": "ym2612"
    },
    {
      "channel": 4,
      "note": 53,
      "start": 41.7159,
      "duration": 0.14,
      "velocity": 105,
      "chip": "ym2612"
    },
    {
      "channel": 0,
      "note": 57,
      "start": 41.7857,
      "duration": 0.14,
      "velocity": 105,
      "chip": "ym2612"
    },
    {
      "channel": 3,
      "note": 53,
      "start": 41.7888,
      "duration": 0.1378,
      "velocity": 105,
      "chip": "ym2612"
    },
    {
      "channel": 1,
      "note": 41,
      "start": 41.9557,
      "duration": 0.3097,
      "velocity": 111,
      "chip": "ym2612"
    },
    {
      "channel": 2,
      "note": 61,
      "start": 41.9609,
      "duration": 0.05,
      "velocity": 127,
      "chip": "ym2612"
    },
    {
      "channel": 5,
      "note": 57,
      "start": 42.0413,
      "duration": 0.14,
      "velocity": 105,
      "chip": "ym2612"
    },
    {
      "channel": 4,
      "note": 53,
      "start": 42.0562,
      "duration": 0.1391,
      "velocity": 105,
      "chip": "ym2612"
    },
    {
      "channel": 0,
      "note": 57,
      "start": 42.1252,
      "duration": 0.14,
      "velocity": 105,
      "chip": "ym2612"
    },
    {
      "channel": 3,
      "note": 53,
      "start": 42.1275,
      "duration": 0.1386,
      "velocity": 105,
      "chip": "ym2612"
    },
    {
      "channel": 0,
      "note": 50,
      "start": 42.2983,
      "duration": 0.1508,
      "velocity": 105,
      "chip": "ym2612"
    },
    {
      "channel": 1,
      "note": 50,
      "start": 42.3004,
      "duration": 0.3186,
      "velocity": 111,
      "chip": "ym2612"
    },
    {
      "channel": 2,
      "note": 61,
      "start": 42.3065,
      "duration": 0.0581,
      "velocity": 127,
      "chip": "ym2612"
    },
    {
      "channel": 3,
      "note": 34,
      "start": 42.3115,
      "duration": 0.1384,
      "velocity": 105,
      "chip": "ym2612"
    },
    {
      "channel": 5,
      "note": 57,
      "start": 42.3949,
      "duration": 0.14,
      "velocity": 105,
      "chip": "ym2612"
    },
    {
      "channel": 4,
      "note": 53,
      "start": 42.409,
      "duration": 0.14,
      "velocity": 105,
      "chip": "ym2612"
    },
    {
      "channel": 0,
      "note": 50,
      "start": 42.4793,
      "duration": 0.1395,
      "velocity": 105,
      "chip": "ym2612"
    },
    {
      "channel": 3,
      "note": 34,
      "start": 42.4815,
      "duration": 0.139,
      "velocity": 105,
      "chip": "ym2612"
    },
    {
      "channel": 5,
      "note": 50,
      "start": 42.5681,
      "duration": 0.1367,
      "velocity": 105,
      "chip": "ym2612"
    },
    {
      "channel": 4,
      "note": 34,
      "start": 42.5821,
      "duration": 0.1366,
      "velocity": 105,
      "chip": "ym2612"
    },
    {
      "channel": 0,
      "note": 50,
      "start": 42.6487,
      "duration": 0.1398,
      "velocity": 105,
      "chip": "ym2612"
    },
    {
      "channel": 1,
      "note": 50,
      "start": 42.6504,
      "duration": 0.3081,
      "velocity": 111,
      "chip": "ym2612"
    },
    {
      "channel": 3,
      "note": 34,
      "start": 42.6525,
      "duration": 0.1369,
      "velocity": 105,
      "chip": "ym2612"
    },
    {
      "channel": 5,
      "note": 50,
      "start": 42.7344,
      "duration": 0.14,
      "velocity": 105,
      "chip": "ym2612"
    },
    {
      "channel": 4,
      "note": 34,
      "start": 42.7484,
      "duration": 0.1401,
      "velocity": 105,
      "chip": "ym2612"
    },
    {
      "channel": 0,
      "note": 50,
      "start": 42.8183,
      "duration": 0.14,
      "velocity": 105,
      "chip": "ym2612"
    },
    {
      "channel": 3,
      "note": 34,
      "start": 42.8214,
      "duration": 0.1374,
      "velocity": 105,
      "chip": "ym2612"
    },
    {
      "channel": 5,
      "note": 50,
      "start": 42.9046,
      "duration": 0.1534,
      "velocity": 105,
      "chip": "ym2612"
    },
    {
      "channel": 4,
      "note": 34,
      "start": 42.9177,
      "duration": 0.1546,
      "velocity": 105,
      "chip": "ym2612"
    },
    {
      "channel": 0,
      "note": 46,
      "start": 42.9918,
      "duration": 0.1508,
      "velocity": 105,
      "chip": "ym2612"
    },
    {
      "channel": 1,
      "note": 46,
      "start": 42.9934,
      "duration": 0.1494,
      "velocity": 111,
      "chip": "ym2612"
    },
    {
      "channel": 2,
      "note": 61,
      "start": 42.9983,
      "duration": 0.0593,
      "velocity": 127,
      "chip": "ym2612"
    },
    {
      "channel": 3,
      "note": 58,
      "start": 43.0039,
      "duration": 0.1396,
      "velocity": 105,
      "chip": "ym2612"
    },
    {
      "channel": 5,
      "note": 50,
      "start": 43.0888,
      "duration": 0.1389,
      "velocity": 105,
      "chip": "ym2612"
    },
    {
      "channel": 4,
      "note": 34,
      "start": 43.102,
      "duration": 0.1401,
      "velocity": 105,
      "chip": "ym2612"
    },
    {
      "channel": 0,
      "note": 48,
      "start": 43.172,
      "duration": 0.4794,
      "velocity": 105,
      "chip": "ym2612"
    },
    {
      "channel": 1,
      "note": 48,
      "start": 43.1737,
      "duration": 0.4779,
      "velocity": 111,
      "chip": "ym2612"
    },
    {
      "channel": 2,
      "note": 61,
      "start": 43.1758,
      "duration": 0.0515,
      "velocity": 127,
      "chip": "ym2612"
    },
    {
      "channel": 3,
      "note": 60,
      "start": 43.1775,
      "duration": 0.4749,
      "velocity": 105,
      "chip": "ym2612"
    },
    {
      "channel": 5,
      "note": 46,
      "start": 43.2609,
      "duration": 0.1368,
      "velocity": 105,
      "chip": "ym2612"
    },
    {
      "channel": 4,
      "note": 58,
      "start": 43.2759,
      "duration": 0.1359,
      "velocity": 105,
      "chip": "ym2612"
    },
    {
      "channel": 5,
      "note": 48,
      "start": 43.4275,
      "duration": 0.4939,
      "velocity": 105,
      "chip": "ym2612"
    },
    {
      "channel": 4,
      "note": 60,
      "start": 43.4415,
      "duration": 0.4936,
      "velocity": 105,
      "chip": "ym2612"
    },
    {
      "channel": 0,
      "note": 58,
      "start": 43.6845,
      "duration": 0.1508,
      "velocity": 105,
      "chip": "ym2612"
    },
    {
      "channel": 1,
      "note": 43,
      "start": 43.6874,
      "duration": 0.3178,
      "velocity": 111,
      "chip": "ym2612"
    },
    {
      "channel": 2,
      "note": 61,
      "start": 43.6931,
      "duration": 0.0576,
      "velocity": 127,
      "chip": "ym2612"
    },
    {
      "channel": 3,
      "note": 55,
      "start": 43.6982,
      "duration": 0.1379,
      "velocity": 105,
      "chip": "ym2612"
    },
    {
      "channel": 0,
      "note": 58,
      "start": 43.865,
      "duration": 0.14,
      "velocity": 105,
      "chip": "ym2612"
    },
    {
      "channel": 3,
      "note": 55,
      "start": 43.8673,
      "duration": 0.1387,
      "velocity": 105,
      "chip": "ym2612"
    },
    {
      "channel": 5,
      "note": 58,
      "start": 43.9551,
      "duration": 0.1357,
      "velocity": 105,
      "chip": "ym2612"
    },
    {
      "channel": 4,
      "note": 55,
      "start": 43.9683,
      "duration": 0.1366,
      "velocity": 105,
      "chip": "ym2612"
    },
    {
      "channel": 0,
      "note": 58,
      "start": 44.0347,
      "duration": 0.1401,
      "velocity": 105,
      "chip": "ym2612"
    },
    {
      "channel": 1,
      "note": 43,
      "start": 44.0374,
      "duration": 0.3073,
      "velocity": 111,
      "chip": "ym2612"
    },
    {
      "channel": 3,
      "note": 55,
      "start": 44.0395,
      "duration": 0.1361,
      "velocity": 105,
      "chip": "ym2612"
    },
    {
      "channel": 5,
      "note": 58,
      "start": 44.1214,
      "duration": 0.1392,
      "velocity": 105,
      "chip": "ym2612"
    },
    {
      "channel": 4,
      "note": 55,
      "start": 44.1346,
      "duration": 0.1401,
      "velocity": 105,
      "chip": "ym2612"
    },
    {
      "channel": 0,
      "note": 58,
      "start": 44.2053,
      "duration": 0.1392,
      "velocity": 105,
      "chip": "ym2612"
    },
    {
      "channel": 3,
      "note": 55,
      "start": 44.2077,
      "duration": 0.1373,
      "velocity": 105,
      "chip": "ym2612"
    },
    {
      "channel": 5,
      "note": 58,
      "start": 44.2899,
      "duration": 0.1401,
      "velocity": 105,
      "chip": "ym2612"
    },
    {
      "channel": 4,
      "note": 55,
      "start": 44.3057,
      "duration": 0.1387,
      "velocity": 105,
      "chip": "ym2612"
    },
    {
      "channel": 1,
      "note": 43,
      "start": 44.3745,
      "duration": 0.3097,
      "velocity": 111,
      "chip": "ym2612"
    },
    {
      "channel": 2,
      "note": 61,
      "start": 44.3794,
      "duration": 0.0503,
      "velocity": 127,
      "chip": "ym2612"
    },
    {
      "channel": 5,
      "note": 58,
      "start": 44.4601,
      "duration": 0.14,
      "velocity": 105,
      "chip": "ym2612"
    },
    {
      "channel": 4,
      "note": 55,
      "start": 44.4747,
      "duration": 0.1394,
      "velocity": 105,
      "chip": "ym2612"
    },
    {
      "channel": 0,
      "note": 58,
      "start": 44.5439,
      "duration": 0.14,
      "velocity": 105,
      "chip": "ym2612"
    },
    {
      "channel": 3,
      "note": 55,
      "start": 44.5463,
      "duration": 0.1386,
      "velocity": 105,
      "chip": "ym2612"
    },
    {
      "channel": 1,
      "note": 43,
      "start": 44.7139,
      "duration": 0.3098,
      "velocity": 111,
      "chip": "ym2612"
    },
    {
      "channel": 2,
      "note": 61,
      "start": 44.7191,
      "duration": 0.05,
      "velocity": 127,
      "chip": "ym2612"
    },
    {
      "channel": 5,
      "note": 58,
      "start": 44.7995,
      "duration": 0.14,
      "velocity": 105,
      "chip": "ym2612"
    },
    {
      "channel": 4,
      "note": 55,
      "start": 44.8136,
      "duration": 0.1409,
      "velocity": 105,
      "chip": "ym2612"
    },
    {
      "channel": 0,
      "note": 58,
      "start": 44.8834,
      "duration": 0.14,
      "velocity": 105,
      "chip": "ym2612"
    },
    {
      "channel": 3,
      "note": 55,
      "start": 44.8858,
      "duration": 0.1386,
      "velocity": 105,
      "chip": "ym2612"
    },
    {
      "channel": 0,
      "note": 48,
      "start": 45.0571,
      "duration": 0.1502,
      "velocity": 105,
      "chip": "ym2612"
    },
    {
      "channel": 1,
      "note": 48,
      "start": 45.059,
      "duration": 0.3183,
      "velocity": 111,
      "chip": "ym2612"
    },
    {
      "channel": 2,
      "note": 61,
      "start": 45.0644,
      "duration": 0.0583,
      "velocity": 127,
      "chip": "ym2612"
    },
    {
      "channel": 3,
      "note": 39,
      "start": 45.0692,
      "duration": 0.139,
      "velocity": 105,
      "chip": "ym2612"
    },
    {
      "channel": 5,
      "note": 58,
      "start": 45.154,
      "duration": 0.1392,
      "velocity": 105,
      "chip": "ym2612"
    },
    {
      "channel": 4,
      "note": 55,
      "start": 45.1672,
      "duration": 0.1401,
      "velocity": 105,
      "chip": "ym2612"
    },
    {
      "channel": 0,
      "note": 48,
      "start": 45.2379,
      "duration": 0.1392,
      "velocity": 105,
      "chip": "ym2612"
    },
    {
      "channel": 3,
      "note": 39,
      "start": 45.2402,
      "duration": 0.1378,
      "velocity": 105,
      "chip": "ym2612"
    },
    {
      "channel": 5,
      "note": 48,
      "start": 45.3261,
      "duration": 0.1368,
      "velocity": 105,
      "chip": "ym2612"
    },
    {
      "channel": 4,
      "note": 39,
      "start": 45.3409,
      "duration": 0.136,
      "velocity": 105,
      "chip": "ym2612"
    },
    {
      "channel": 0,
      "note": 48,
      "start": 45.4068,
      "duration": 0.14,
      "velocity": 105,
      "chip": "ym2612"
    },
    {
      "channel": 1,
      "note": 48,
      "start": 45.4086,
      "duration": 0.3082,
      "velocity": 111,
      "chip": "ym2612"
    },
    {
      "channel": 3,
      "note": 39,
      "start": 45.4108,
      "duration": 0.1369,
      "velocity": 105,
      "chip": "ym2612"
    },
    {
      "channel": 5,
      "note": 48,
      "start": 45.4926,
      "duration": 0.1406,
      "velocity": 105,
      "chip": "ym2612"
    },
    {
      "channel": 4,
      "note": 39,
      "start": 45.5067,
      "duration": 0.14,
      "velocity": 105,
      "chip": "ym2612"
    },
    {
      "channel": 0,
      "note": 48,
      "start": 45.5766,
      "duration": 0.1399,
      "velocity": 105,
      "chip": "ym2612"
    },
    {
      "channel": 3,
      "note": 39,
      "start": 45.5789,
      "duration": 0.1382,
      "velocity": 105,
      "chip": "ym2612"
    },
    {
      "channel": 5,
      "note": 48,
      "start": 45.6619,
      "duration": 0.1408,
      "velocity": 105,
      "chip": "ym2612"
    },
    {
      "channel": 4,
      "note": 39,
      "start": 45.676,
      "duration": 0.1405,
      "velocity": 105,
      "chip": "ym2612"
    },
    {
      "channel": 1,
      "note": 48,
      "start": 45.7466,
      "duration": 0.3097,
      "velocity": 111,
      "chip": "ym2612"
    },
    {
      "channel": 2,
      "note": 61,
      "start": 45.7514,
      "duration": 0.051,
      "velocity": 127,
      "chip": "ym2612"
    },
    {
      "channel": 5,
      "note": 48,
      "start": 45.8321,
      "duration": 0.1403,
      "velocity": 105,
      "chip": "ym2612"
    },
    {
      "channel": 4,
      "note": 39,
      "start": 45.8462,
      "duration": 0.14,
      "velocity": 105,
      "chip": "ym2612"
    },
    {
      "channel": 0,
      "note": 48,
      "start": 45.916,
      "duration": 0.14,
      "velocity": 105,
      "chip": "ym2612"
    },
    {
      "channel": 3,
      "note": 39,
      "start": 45.9183,
      "duration": 0.1387,
      "velocity": 105,
      "chip": "ym2612"
    },
    {
      "channel": 1,
      "note": 48,
      "start": 46.086,
      "duration": 0.3097,
      "velocity": 111,
      "chip": "ym2612"
    },
    {
      "channel": 2,
      "note": 61,
      "start": 46.0921,
      "duration": 0.0491,
      "velocity": 127,
      "chip": "ym2612"
    },
    {
      "channel": 5,
      "note": 48,
      "start": 46.1724,
      "duration": 0.1392,
      "velocity": 105,
      "chip": "ym2612"
    },
    {
      "channel": 4,
      "note": 39,
      "start": 46.1856,
      "duration": 0.14,
      "velocity": 105,
      "chip": "ym2612"
    },
    {
      "channel": 0,
      "note": 48,
      "start": 46.2555,
      "duration": 0.14,
      "velocity": 105,
      "chip": "ym2612"
    },
    {
      "channel": 3,
      "note": 39,
      "start": 46.2578,
      "duration": 0.1386,
      "velocity": 105,
      "chip": "ym2612"
    },
    {
      "channel": 0,
      "note": 57,
      "start": 46.4283,
      "duration": 0.1511,
      "velocity": 105,
      "chip": "ym2612"
    },
    {
      "channel": 1,
      "note": 41,
      "start": 46.4302,
      "duration": 0.3191,
      "velocity": 111,
      "chip": "ym2612"
    },
    {
      "channel": 2,
      "note": 61,
      "start": 46.4357,
      "duration": 0.0592,
      "velocity": 127,
      "chip": "ym2612"
    },
    {
      "channel": 3,
      "note": 53,
      "start": 46.4413,
      "duration": 0.139,
      "velocity": 105,
      "chip": "ym2612"
    },
    {
      "channel": 5,
      "note": 48,
      "start": 46.5252,
      "duration": 0.14,
      "velocity": 105,
      "chip": "ym2612"
    },
    {
      "channel": 4,
      "note": 39,
      "start": 46.5395,
      "duration": 0.1397,
      "velocity": 105,
      "chip": "ym2612"
    },
    {
      "channel": 0,
      "note": 57,
      "start": 46.6091,
      "duration": 0.14,
      "velocity": 105,
      "chip": "ym2612"
    },
    {
      "channel": 3,
      "note": 53,
      "start": 46.6114,
      "duration": 0.1386,
      "velocity": 105,
      "chip": "ym2612"
    },
    {
      "channel": 5,
      "note": 57,
      "start": 46.6981,
      "duration": 0.1369,
      "velocity": 105,
      "chip": "ym2612"
    },
    {
      "channel": 4,
      "note": 53,
      "start": 46.7121,
      "duration": 0.1369,
      "velocity": 105,
      "chip": "ym2612"
    },
    {
      "channel": 0,
      "note": 57,
      "start": 46.7789,
      "duration": 0.14,
      "velocity": 105,
      "chip": "ym2612"
    },
    {
      "channel": 1,
      "note": 41,
      "start": 46.7806,
      "duration": 0.3081,
      "velocity": 111,
      "chip": "ym2612"
    },
    {
      "channel": 3,
      "note": 53,
      "start": 46.7828,
      "duration": 0.1377,
      "velocity": 105,
      "chip": "ym2612"
    },
    {
      "channel": 5,
      "note": 57,
      "start": 46.8647,
      "duration": 0.1401,
      "velocity": 105,
      "chip": "ym2612"
    },
    {
      "channel": 4,
      "note": 53,
      "start": 46.8787,
      "duration": 0.14,
      "velocity": 105,
      "chip": "ym2612"
    },
    {
      "channel": 0,
      "note": 57,
      "start": 46.9486,
      "duration": 0.14,
      "velocity": 105,
      "chip": "ym2612"
    },
    {
      "channel": 3,
      "note": 53,
      "start": 46.9509,
      "duration": 0.1382,
      "velocity": 105,
      "chip": "ym2612"
    },
    {
      "channel": 5,
      "note": 57,
      "start": 47.034,
      "duration": 0.1402,
      "velocity": 105,
      "chip": "ym2612"
    },
    {
      "channel": 4,
      "note": 53,
      "start": 47.0481,
      "duration": 0.1404,
      "velocity": 105,
      "chip": "ym2612"
    },
    {
      "channel": 1,
      "note": 41,
      "start": 47.1185,
      "duration": 0.3097,
      "velocity": 111,
      "chip": "ym2612"
    },
    {
      "channel": 2,
      "note": 61,
      "start": 47.1243,
      "duration": 0.0495,
      "velocity": 127,
      "chip": "ym2612"
    },
    {
      "channel": 5,
      "note": 57,
      "start": 47.205,
      "duration": 0.1392,
      "velocity": 105,
      "chip": "ym2612"
    },
    {
      "channel": 4,
      "note": 53,
      "start": 47.2182,
      "duration": 0.14,
      "velocity": 105,
      "chip": "ym2612"
    },
    {
      "channel": 0,
      "note": 57,
      "start": 47.2895,
      "duration": 0.1386,
      "velocity": 105,
      "chip": "ym2612"
    },
    {
      "channel": 3,
      "note": 53,
      "start": 47.2918,
      "duration": 0.1372,
      "velocity": 105,
      "chip": "ym2612"
    },
    {
      "channel": 1,
      "note": 41,
      "start": 47.4589,
      "duration": 0.3089,
      "velocity": 111,
      "chip": "ym2612"
    },
    {
      "channel": 2,
      "note": 61,
      "start": 47.4641,
      "duration": 0.0491,
      "velocity": 127,
      "chip": "ym2612"
    },
    {
      "channel": 5,
      "note": 57,
      "start": 47.5436,
      "duration": 0.14,
      "velocity": 105,
      "chip": "ym2612"
    },
    {
      "channel": 4,
      "note": 53,
      "start": 47.5577,
      "duration": 0.14,
      "velocity": 105,
      "chip": "ym2612"
    },
    {
      "channel": 0,
      "note": 57,
      "start": 47.6282,
      "duration": 0.1394,
      "velocity": 105,
      "chip": "ym2612"
    },
    {
      "channel": 3,
      "note": 53,
      "start": 47.6305,
      "duration": 0.138,
      "velocity": 105,
      "chip": "ym2612"
    },
    {
      "channel": 0,
      "note": 50,
      "start": 47.8009,
      "duration": 0.1505,
      "velocity": 105,
      "chip": "ym2612"
    },
    {
      "channel": 1,
      "note": 46,
      "start": 47.8039,
      "duration": 0.3183,
      "velocity": 111,
      "chip": "ym2612"
    },
    {
      "channel": 2,
      "note": 61,
      "start": 47.8093,
      "duration": 0.0576,
      "velocity": 127,
      "chip": "ym2612"
    },
    {
      "channel": 3,
      "note": 46,
      "start": 47.8144,
      "duration": 0.1379,
      "velocity": 105,
      "chip": "ym2612"
    },
    {
      "channel": 5,
      "note": 57,
      "start": 47.8973,
      "duration": 0.1408,
      "velocity": 105,
      "chip": "ym2612"
    },
    {
      "channel": 4,
      "note": 53,
      "start": 47.9113,
      "duration": 0.14,
      "velocity": 105,
      "chip": "ym2612"
    },
    {
      "channel": 0,
      "note": 50,
      "start": 47.9812,
      "duration": 0.1408,
      "velocity": 105,
      "chip": "ym2612"
    },
    {
      "channel": 3,
      "note": 46,
      "start": 47.9834,
      "duration": 0.1395,
      "velocity": 105,
      "chip": "ym2612"
    },
    {
      "channel": 5,
      "note": 50,
      "start": 48.0713,
      "duration": 0.1357,
      "velocity": 105,
      "chip": "ym2612"
    },
    {
      "channel": 4,
      "note": 46,
      "start": 48.0845,
      "duration": 0.1369,
      "velocity": 105,
      "chip": "ym2612"
    },
    {
      "channel": 0,
      "note": 50,
      "start": 48.1509,
      "duration": 0.1407,
      "velocity": 105,
      "chip": "ym2612"
    },
    {
      "channel": 1,
      "note": 46,
      "start": 48.1525,
      "duration": 0.3086,
      "velocity": 111,
      "chip": "ym2612"
    },
    {
      "channel": 3,
      "note": 46,
      "start": 48.1556,
      "duration": 0.1368,
      "velocity": 105,
      "chip": "ym2612"
    },
    {
      "channel": 5,
      "note": 50,
      "start": 48.2376,
      "duration": 0.1392,
      "velocity": 105,
      "chip": "ym2612"
    },
    {
      "channel": 4,
      "note": 46,
      "start": 48.2507,
      "duration": 0.1401,
      "velocity": 105,
      "chip": "ym2612"
    },
    {
      "channel": 0,
      "note": 50,
      "start": 48.3215,
      "duration": 0.1395,
      "velocity": 105,
      "chip": "ym2612"
    },
    {
      "channel": 3,
      "note": 46,
      "start": 48.3238,
      "duration": 0.1377,
      "velocity": 105,
      "chip": "ym2612"
    },
    {
      "channel": 5,
      "note": 50,
      "start": 48.4061,
      "duration": 0.1402,
      "velocity": 105,
      "chip": "ym2612"
    },
    {
      "channel": 4,
      "note": 46,
      "start": 48.4209,
      "duration": 0.1396,
      "velocity": 105,
      "chip": "ym2612"
    },
    {
      "channel": 1,
      "note": 45,
      "start": 48.4904,
      "duration": 0.3099,
      "velocity": 111,
      "chip": "ym2612"
    },
    {
      "channel": 2,
      "note": 61,
      "start": 48.4953,
      "duration": 0.0505,
      "velocity": 127,
      "chip": "ym2612"
    },
    {
      "channel": 5,
      "note": 50,
      "start": 48.5763,
      "duration": 0.1399,
      "velocity": 105,
      "chip": "ym2612"
    },
    {
      "channel": 4,
      "note": 46,
      "start": 48.5902,
      "duration": 0.14,
      "velocity": 105,
      "chip": "ym2612"
    },
    {
      "channel": 0,
      "note": 50,
      "start": 48.6601,
      "duration": 0.14,
      "velocity": 105,
      "chip": "ym2612"
    },
    {
      "channel": 3,
      "note": 46,
      "start": 48.6624,
      "duration": 0.1386,
      "velocity": 105,
      "chip": "ym2612"
    },
    {
      "channel": 1,
      "note": 45,
      "start": 48.8299,
      "duration": 0.3099,
      "velocity": 111,
      "chip": "ym2612"
    },
    {
      "channel": 2,
      "note": 61,
      "start": 48.8351,
      "duration": 0.0501,
      "velocity": 127,
      "chip": "ym2612"
    },
    {
      "channel": 5,
      "note": 50,
      "start": 48.9157,
      "duration": 0.14,
      "velocity": 105,
      "chip": "ym2612"
    },
    {
      "channel": 4,
      "note": 46,
      "start": 48.9298,
      "duration": 0.1409,
      "velocity": 105,
      "chip": "ym2612"
    },
    {
      "channel": 0,
      "note": 50,
      "start": 48.9996,
      "duration": 0.14,
      "velocity": 105,
      "chip": "ym2612"
    },
    {
      "channel": 3,
      "note": 46,
      "start": 49.002,
      "duration": 0.1385,
      "velocity": 105,
      "chip": "ym2612"
    },
    {
      "channel": 0,
      "note": 50,
      "start": 49.1705,
      "duration": 1.3412,
      "velocity": 105,
      "chip": "ym2612"
    },
    {
      "channel": 1,
      "note": 46,
      "start": 49.1724,
      "duration": 0.9999,
      "velocity": 111,
      "chip": "ym2612"
    },
    {
      "channel": 2,
      "note": 61,
      "start": 49.1778,
      "duration": 0.0611,
      "velocity": 127,
      "chip": "ym2612"
    },
    {
      "channel": 3,
      "note": 46,
      "start": 49.1798,
      "duration": 1.3328,
      "velocity": 105,
      "chip": "ym2612"
    },
    {
      "channel": 5,
      "note": 50,
      "start": 49.2693,
      "duration": 0.14,
      "velocity": 105,
      "chip": "ym2612"
    },
    {
      "channel": 4,
      "note": 46,
      "start": 49.2834,
      "duration": 0.14,
      "velocity": 105,
      "chip": "ym2612"
    },
    {
      "channel": 5,
      "note": 50,
      "start": 49.4399,
      "duration": 1.3422,
      "velocity": 105,
      "chip": "ym2612"
    },
    {
      "channel": 4,
      "note": 46,
      "start": 49.455,
      "duration": 1.3405,
      "velocity": 105,
      "chip": "ym2612"
    },
    {
      "channel": 2,
      "note": 61,
      "start": 49.8658,
      "duration": 0.052,
      "velocity": 127,
      "chip": "ym2612"
    },
    {
      "channel": 1,
      "note": 46,
      "start": 50.202,
      "duration": 0.3099,
      "velocity": 111,
      "chip": "ym2612"
    },
    {
      "channel": 2,
      "note": 61,
      "start": 50.2081,
      "duration": 0.0492,
      "velocity": 127,
      "chip": "ym2612"
    },
    {
      "channel": 0,
      "note": 48,
      "start": 50.5445,
      "duration": 0.6602,
      "velocity": 105,
      "chip": "ym2612"
    },
    {
      "channel": 1,
      "note": 48,
      "start": 50.5462,
      "duration": 0.6588,
      "velocity": 111,
      "chip": "ym2612"
    },
    {
      "channel": 2,
      "note": 61,
      "start": 50.5516,
      "duration": 0.0594,
      "velocity": 127,
      "chip": "ym2612"
    },
    {
      "channel": 3,
      "note": 39,
      "start": 50.5572,
      "duration": 0.6481,
      "velocity": 105,
      "chip": "ym2612"
    },
    {
      "channel": 5,
      "note": 48,
      "start": 50.8142,
      "duration": 0.6461,
      "velocity": 105,
      "chip": "ym2612"
    },
    {
      "channel": 4,
      "note": 39,
      "start": 50.8283,
      "duration": 0.6461,
      "velocity": 105,
      "chip": "ym2612"
    },
    {
      "channel": 0,
      "note": 48,
      "start": 51.2345,
      "duration": 0.6492,
      "velocity": 105,
      "chip": "ym2612"
    },
    {
      "channel": 1,
      "note": 36,
      "start": 51.2361,
      "duration": 0.6478,
      "velocity": 111,
      "chip": "ym2612"
    },
    {
      "channel": 2,
      "note": 61,
      "start": 51.2418,
      "duration": 0.0482,
      "velocity": 127,
      "chip": "ym2612"
    },
    {
      "channel": 3,
      "note": 39,
      "start": 51.2435,
      "duration": 0.6412,
      "velocity": 105,
      "chip": "ym2612"
    },
    {
      "channel": 5,
      "note": 48,
      "start": 51.49,
      "duration": 0.6642,
      "velocity": 105,
      "chip": "ym2612"
    },
    {
      "channel": 4,
      "note": 39,
      "start": 51.5049,
      "duration": 0.6625,
      "velocity": 105,
      "chip": "ym2612"
    },
    {
      "channel": 2,
      "note": 61,
      "start": 51.5777,
      "duration": 0.0517,
      "velocity": 127,
      "chip": "ym2612"
    },
    {
      "channel": 0,
      "note": 50,
      "start": 51.9166,
      "duration": 0.9998,
      "velocity": 105,
      "chip": "ym2612"
    },
    {
      "channel": 1,
      "note": 38,
      "start": 51.9182,
      "duration": 0.9983,
      "velocity": 111,
      "chip": "ym2612"
    },
    {
      "channel": 2,
      "note": 61,
      "start": 51.9247,
      "duration": 0.0583,
      "velocity": 127,
      "chip": "ym2612"
    },
    {
      "channel": 3,
      "note": 55,
      "start": 51.9295,
      "duration": 0.9873,
      "velocity": 105,
      "chip": "ym2612"
    },
    {
      "channel": 5,
      "note": 50,
      "start": 52.1871,
      "duration": 0.9989,
      "velocity": 105,
      "chip": "ym2612"
    },
    {
      "channel": 4,
      "note": 55,
      "start": 52.2003,
      "duration": 0.9998,
      "velocity": 105,
      "chip": "ym2612"
    },
    {
      "channel": 0,
      "note": 50,
      "start": 52.9465,
      "duration": 1.6813,
      "velocity": 105,
      "chip": "ym2612"
    },
    {
      "channel": 1,
      "note": 38,
      "start": 52.9481,
      "duration": 1.6799,
      "velocity": 111,
      "chip": "ym2612"
    },
    {
      "channel": 2,
      "note": 61,
      "start": 52.9498,
      "duration": 0.0658,
      "velocity": 127,
      "chip": "ym2612"
    },
    {
      "channel": 3,
      "note": 46,
      "start": 52.9554,
      "duration": 1.6729,
      "velocity": 105,
      "chip": "ym2612"
    },
    {
      "channel": 5,
      "note": 50,
      "start": 53.2158,
      "duration": 1.6813,
      "velocity": 105,
      "chip": "ym2612"
    },
    {
      "channel": 4,
      "note": 46,
      "start": 53.2329,
      "duration": 1.4095,
      "velocity": 105,
      "chip": "ym2612"
    },
    {
      "channel": 2,
      "note": 61,
      "start": 53.9818,
      "duration": 0.0522,
      "velocity": 127,
      "chip": "ym2612"
    },
    {
      "channel": 0,
      "note": 74,
      "start": 54.661,
      "duration": 0.3204,
      "velocity": 101,
      "chip": "ym2612"
    },
    {
      "channel": 1,
      "note": 50,
      "start": 54.6661,
      "duration": 1.3339,
      "velocity": 101,
      "chip": "ym2612"
    },
    {
      "channel": 2,
      "note": 62,
      "start": 54.6722,
      "duration": 1.3282,
      "velocity": 101,
      "chip": "ym2612"
    },
    {
      "channel": 3,
      "note": 57,
      "start": 54.6773,
      "duration": 1.3232,
      "velocity": 101,
      "chip": "ym2612"
    },
    {
      "channel": 4,
      "note": 53,
      "start": 54.6907,
      "duration": 1.3237,
      "velocity": 101,
      "chip": "ym2612"
    },
    {
      "channel": 5,
      "note": 74,
      "start": 54.9304,
      "duration": 0.3071,
      "velocity": 101,
      "chip": "ym2612"
    },
    {
      "channel": 0,
      "note": 69,
      "start": 55.0112,
      "duration": 0.3097,
      "velocity": 101,
      "chip": "ym2612"
    },
    {
      "channel": 5,
      "note": 69,
      "start": 55.2663,
      "duration": 0.3097,
      "velocity": 101,
      "chip": "ym2612"
    },
    {
      "channel": 0,
      "note": 74,
      "start": 55.3506,
      "duration": 0.3098,
      "velocity": 101,
      "chip": "ym2612"
    },
    {
      "channel": 5,
      "note": 74,
      "start": 55.6067,
      "duration": 0.3088,
      "velocity": 101,
      "chip": "ym2612"
    },
    {
      "channel": 0,
      "note": 77,
      "start": 55.6901,
      "duration": 0.3097,
      "velocity": 101,
      "chip": "ym2612"
    },
    {
      "channel": 5,
      "note": 77,
      "start": 55.9452,
      "duration": 0.3098,
      "velocity": 101,
      "chip": "ym2612"
    },
    {
      "channel": 0,
      "note": 76,
      "start": 56.0296,
      "duration": 0.3098,
      "velocity": 101,
      "chip": "ym2612"
    },
    {
      "channel": 1,
      "note": 49,
      "start": 56.0312,
      "duration": 1.3268,
      "velocity": 101,
      "chip": "ym2612"
    },
    {
      "channel": 2,
      "note": 61,
      "start": 56.0329,
      "duration": 1.3254,
      "velocity": 101,
      "chip": "ym2612"
    },
    {
      "channel": 3,
      "note": 57,
      "start": 56.0345,
      "duration": 1.3239,
      "velocity": 101,
      "chip": "ym2612"
    },
    {
      "channel": 4,
      "note": 52,
      "start": 56.0441,
      "duration": 1.3283,
      "velocity": 101,
      "chip": "ym2612"
    },
    {
      "channel": 5,
      "note": 76,
      "start": 56.2847,
      "duration": 0.3097,
      "velocity": 101,
      "chip": "ym2612"
    },
    {
      "channel": 0,
      "note": 69,
      "start": 56.3691,
      "duration": 0.3097,
      "velocity": 101,
      "chip": "ym2612"
    },
    {
      "channel": 5,
      "note": 69,
      "start": 56.6242,
      "duration": 0.31,
      "velocity": 101,
      "chip": "ym2612"
    },
    {
      "channel": 0,
      "note": 73,
      "start": 56.7086,
      "duration": 0.3097,
      "velocity": 101,
      "chip": "ym2612"
    },
    {
      "channel": 5,
      "note": 73,
      "start": 56.9637,
      "duration": 0.3098,
      "velocity": 101,
      "chip": "ym2612"
    },
    {
      "channel": 0,
      "note": 76,
      "start": 57.048,
      "duration": 0.3098,
      "velocity": 101,
      "chip": "ym2612"
    },
    {
      "channel": 5,
      "note": 76,
      "start": 57.304,
      "duration": 0.3089,
      "velocity": 101,
      "chip": "ym2612"
    },
    {
      "channel": 0,
      "note": 77,
      "start": 57.3883,
      "duration": 0.3089,
      "velocity": 101,
      "chip": "ym2612"
    },
    {
      "channel": 1,
      "note": 48,
      "start": 57.39,
      "duration": 1.3259,
      "velocity": 101,
      "chip": "ym2612"
    },
    {
      "channel": 2,
      "note": 60,
      "start": 57.3917,
      "duration": 1.3245,
      "velocity": 101,
      "chip": "ym2612"
    },
    {
      "channel": 3,
      "note": 57,
      "start": 57.3933,
      "duration": 1.323,
      "velocity": 101,
      "chip": "ym2612"
    },
    {
      "channel": 4,
      "note": 53,
      "start": 57.4021,
      "duration": 1.3282,
      "velocity": 101,
      "chip": "ym2612"
    },
    {
      "channel": 5,
      "note": 77,
      "start": 57.6426,
      "duration": 0.3098,
      "velocity": 101,
      "chip": "ym2612"
    },
    {
      "channel": 0,
      "note": 74,
      "start": 57.727,
      "duration": 0.3102,
      "velocity": 101,
      "chip": "ym2612"
    },
    {
      "channel": 5,
      "note": 74,
      "start": 57.9821,
      "duration": 0.3097,
      "velocity": 101,
      "chip": "ym2612"
    },
    {
      "channel": 0,
      "note": 77,
      "start": 58.0665,
      "duration": 0.3097,
      "velocity": 101,
      "chip": "ym2612"
    },
    {
      "channel": 5,
      "note": 77,
      "start": 58.3225,
      "duration": 0.3088,
      "velocity": 101,
      "chip": "ym2612"
    },
    {
      "channel": 0,
      "note": 81,
      "start": 58.406,
      "duration": 0.3097,
      "velocity": 101,
      "chip": "ym2612"
    },
    {
      "channel": 5,
      "note": 81,
      "start": 58.661,
      "duration": 0.31,
      "velocity": 101,
      "chip": "ym2612"
    },
    {
      "channel": 0,
      "note": 79,
      "start": 58.7454,
      "duration": 0.3097,
      "velocity": 101,
      "chip": "ym2612"
    },
    {
      "channel": 1,
      "note": 47,
      "start": 58.7471,
      "duration": 1.3268,
      "velocity": 101,
      "chip": "ym2612"
    },
    {
      "channel": 2,
      "note": 59,
      "start": 58.7487,
      "duration": 1.3254,
      "velocity": 101,
      "chip": "ym2612"
    },
    {
      "channel": 3,
      "note": 55,
      "start": 58.7504,
      "duration": 1.3239,
      "velocity": 101,
      "chip": "ym2612"
    },
    {
      "channel": 4,
      "note": 50,
      "start": 58.7604,
      "duration": 1.3282,
      "velocity": 101,
      "chip": "ym2612"
    },
    {
      "channel": 5,
      "note": 79,
      "start": 59.0005,
      "duration": 0.3098,
      "velocity": 101,
      "chip": "ym2612"
    },
    {
      "channel": 0,
      "note": 71,
      "start": 59.0849,
      "duration": 0.3097,
      "velocity": 101,
      "chip": "ym2612"
    },
    {
      "channel": 5,
      "note": 71,
      "start": 59.34,
      "duration": 0.3098,
      "velocity": 101,
      "chip": "ym2612"
    },
    {
      "channel": 0,
      "note": 74,
      "start": 59.4249,
      "duration": 0.3093,
      "velocity": 101,
      "chip": "ym2612"
    },
    {
      "channel": 5,
      "note": 74,
      "start": 59.6795,
      "duration": 0.3097,
      "velocity": 101,
      "chip": "ym2612"
    },
    {
      "channel": 0,
      "note": 79,
      "start": 59.7639,
      "duration": 0.3097,
      "velocity": 101,
      "chip": "ym2612"
    },
    {
      "channel": 5,
      "note": 79,
      "start": 60.019,
      "duration": 0.3097,
      "velocity": 101,
      "chip": "ym2612"
    },
    {
      "channel": 0,
      "note": 77,
      "start": 60.1041,
      "duration": 0.309,
      "velocity": 101,
      "chip": "ym2612"
    },
    {
      "channel": 1,
      "note": 46,
      "start": 60.1058,
      "duration": 1.326,
      "velocity": 101,
      "chip": "ym2612"
    },
    {
      "channel": 2,
      "note": 58,
      "start": 60.1074,
      "duration": 1.3246,
      "velocity": 101,
      "chip": "ym2612"
    },
    {
      "channel": 3,
      "note": 53,
      "start": 60.1091,
      "duration": 1.3231,
      "velocity": 101,
      "chip": "ym2612"
    },
    {
      "channel": 4,
      "note": 50,
      "start": 60.1178,
      "duration": 1.3282,
      "velocity": 101,
      "chip": "ym2612"
    },
    {
      "channel": 5,
      "note": 77,
      "start": 60.3584,
      "duration": 0.3097,
      "velocity": 101,
      "chip": "ym2612"
    },
    {
      "channel": 0,
      "note": 69,
      "start": 60.4428,
      "duration": 0.3111,
      "velocity": 101,
      "chip": "ym2612"
    },
    {
      "channel": 5,
      "note": 69,
      "start": 60.6979,
      "duration": 0.3098,
      "velocity": 101,
      "chip": "ym2612"
    },
    {
      "channel": 0,
      "note": 74,
      "start": 60.7822,
      "duration": 0.3098,
      "velocity": 101,
      "chip": "ym2612"
    },
    {
      "channel": 5,
      "note": 74,
      "start": 61.0382,
      "duration": 0.309,
      "velocity": 101,
      "chip": "ym2612"
    },
    {
      "channel": 0,
      "note": 77,
      "start": 61.122,
      "duration": 0.3095,
      "velocity": 101,
      "chip": "ym2612"
    },
    {
      "channel": 5,
      "note": 77,
      "start": 61.3769,
      "duration": 0.3106,
      "velocity": 101,
      "chip": "ym2612"
    },
    {
      "channel": 0,
      "note": 76,
      "start": 61.4612,
      "duration": 0.3097,
      "velocity": 101,
      "chip": "ym2612"
    },
    {
      "channel": 1,
      "note": 45,
      "start": 61.4629,
      "duration": 1.3267,
      "velocity": 101,
      "chip": "ym2612"
    },
    {
      "channel": 2,
      "note": 57,
      "start": 61.4645,
      "duration": 1.3253,
      "velocity": 101,
      "chip": "ym2612"
    },
    {
      "channel": 3,
      "note": 52,
      "start": 61.4662,
      "duration": 1.3239,
      "velocity": 101,
      "chip": "ym2612"
    },
    {
      "channel": 4,
      "note": 49,
      "start": 61.4757,
      "duration": 1.3286,
      "velocity": 101,
      "chip": "ym2612"
    },
    {
      "channel": 5,
      "note": 76,
      "start": 61.7164,
      "duration": 0.3097,
      "velocity": 101,
      "chip": "ym2612"
    },
    {
      "channel": 0,
      "note": 69,
      "start": 61.8007,
      "duration": 0.3098,
      "velocity": 101,
      "chip": "ym2612"
    },
    {
      "channel": 5,
      "note": 69,
      "start": 62.0559,
      "duration": 0.3097,
      "velocity": 101,
      "chip": "ym2612"
    },
    {
      "channel": 0,
      "note": 73,
      "start": 62.1402,
      "duration": 0.3097,
      "velocity": 101,
      "chip": "ym2612"
    },
    {
      "channel": 5,
      "note": 73,
      "start": 62.3953,
      "duration": 0.3097,
      "velocity": 101,
      "chip": "ym2612"
    },
    {
      "channel": 0,
      "note": 76,
      "start": 62.4796,
      "duration": 0.3098,
      "velocity": 101,
      "chip": "ym2612"
    },
    {
      "channel": 5,
      "note": 76,
      "start": 62.7348,
      "duration": 0.3097,
      "velocity": 101,
      "chip": "ym2612"
    },
    {
      "channel": 0,
      "note": 74,
      "start": 62.8191,
      "duration": 0.3098,
      "velocity": 101,
      "chip": "ym2612"
    },
    {
      "channel": 1,
      "note": 38,
      "start": 62.8216,
      "duration": 1.352,
      "velocity": 101,
      "chip": "ym2612"
    },
    {
      "channel": 2,
      "note": 50,
      "start": 62.8233,
      "duration": 1.3506,
      "velocity": 101,
      "chip": "ym2612"
    },
    {
      "channel": 3,
      "note": 57,
      "start": 62.8249,
      "duration": 1.3492,
      "velocity": 101,
      "chip": "ym2612"
    },
    {
      "channel": 4,
      "note": 53,
      "start": 62.8336,
      "duration": 1.3566,
      "velocity": 101,
      "chip": "ym2612"
    },
    {
      "channel": 5,
      "note": 74,
      "start": 63.0743,
      "duration": 0.3097,
      "velocity": 101,
      "chip": "ym2612"
    },
    {
      "channel": 0,
      "note": 65,
      "start": 63.1586,
      "duration": 0.3097,
      "velocity": 101,
      "chip": "ym2612"
    },
    {
      "channel": 5,
      "note": 65,
      "start": 63.4141,
      "duration": 0.3094,
      "velocity": 101,
      "chip": "ym2612"
    },
    {
      "channel": 0,
      "note": 69,
      "start": 63.4981,
      "duration": 0.3097,
      "velocity": 101,
      "chip": "ym2612"
    },
    {
      "channel": 5,
      "note": 69,
      "start": 63.7541,
      "duration": 0.3242,
      "velocity": 101,
      "chip": "ym2612"
    },
    {
      "channel": 0,
      "note": 71,
      "start": 63.8394,
      "duration": 0.0398,
      "velocity": 101,
      "chip": "ym2612"
    },
    {
      "channel": 0,
      "note": 72,
      "start": 63.8966,
      "duration": 0.0416,
      "velocity": 101,
      "chip": "ym2612"
    },
    {
      "channel": 0,
      "note": 74,
      "start": 63.9561,
      "duration": 0.2337,
      "velocity": 101,
      "chip": "ym2612"
    },
    {
      "channel": 5,
      "note": 71,
      "start": 64.1121,
      "duration": 0.0456,
      "velocity": 101,
      "chip": "ym2612"
    },
    {
      "channel": 5,
      "note": 72,
      "start": 64.1766,
      "duration": 0.05,
      "velocity": 101,
      "chip": "ym2612"
    },
    {
      "channel": 0,
      "note": 71,
      "start": 64.2098,
      "duration": 3.852,
      "velocity": 101,
      "chip": "ym2612"
    },
    {
      "channel": 1,
      "note": 50,
      "start": 64.2114,
      "duration": 3.806,
      "velocity": 101,
      "chip": "ym2612"
    },
    {
      "channel": 5,
      "note": 74,
      "start": 64.2513,
      "duration": 0.3753,
      "velocity": 101,
      "chip": "ym2612"
    },
    {
      "channel": 4,
      "note": 52,
      "start": 64.2993,
      "duration": 3.8969,
      "velocity": 101,
      "chip": "ym2612"
    },
    {
      "channel": 3,
      "note": 55,
      "start": 64.3245,
      "duration": 3.9156,
      "velocity": 101,
      "chip": "ym2612"
    },
    {
      "channel": 2,
      "note": 60,
      "start": 64.4256,
      "duration": 3.9927,
      "velocity": 101,
      "chip": "ym2612"
    },
    {
      "channel": 5,
      "note": 71,
      "start": 64.656,
      "duration": 4.2077,
      "velocity": 101,
      "chip": "ym2612"
    }
  ]
}