{
  "track_name": "30 - Extra Ending",
  "duration_sec": 58.545,
  "sample_rate": 44100,
  "note_count": 892,
  "unique_pitches": 41,
  "pitch_range": 48,
  "avg_note_duration": 0.3651,
  "reconstruction_stats": {
    "notes_reconstructed": 892,
    "keyon_events": 892,
    "keyoff_events": 576,
    "orphan_keyons": 6,
    "unique_pitches": 41,
    "pitch_range": 48,
    "avg_duration_sec": 0.3651
  },
  "metadata": {
    "source": "P\\Puggsy\\30 - Extra Ending.vgz"
  },
  "notes": [
    {
      "channel": 0,
      "note": 48,
      "start": 0.0519,
      "duration": 0.3647,
      "velocity": 96,
      "chip": "ym2612"
    },
    {
      "channel": 0,
      "note": 60,
      "start": 0.4168,
      "duration": 0.5331,
      "velocity": 96,
      "chip": "ym2612"
    },
    {
      "channel": 1,
      "note": 84,
      "start": 0.5852,
      "duration": 0.7331,
      "velocity": 91,
      "chip": "ym2612"
    },
    {
      "channel": 2,
      "note": 88,
      "start": 0.5873,
      "duration": 0.7332,
      "velocity": 91,
      "chip": "ym2612"
    },
    {
      "channel": 3,
      "note": 91,
      "start": 0.5894,
      "duration": 0.7332,
      "velocity": 91,
      "chip": "ym2612"
    },
    {
      "channel": 0,
      "note": 48,
      "start": 0.9501,
      "duration": 0.1831,
      "velocity": 96,
      "chip": "ym2612"
    },
    {
      "channel": 0,
      "note": 60,
      "start": 1.1334,
      "duration": 0.3499,
      "velocity": 96,
      "chip": "ym2612"
    },
    {
      "channel": 1,
      "note": 84,
      "start": 1.3185,
      "duration": 0.7165,
      "velocity": 91,
      "chip": "ym2612"
    },
    {
      "channel": 2,
      "note": 88,
      "start": 1.3207,
      "duration": 0.7165,
      "velocity": 91,
      "chip": "ym2612"
    },
    {
      "channel": 3,
      "note": 91,
      "start": 1.3228,
      "duration": 0.7165,
      "velocity": 91,
      "chip": "ym2612"
    },
    {
      "channel": 0,
      "note": 48,
      "start": 1.4836,
      "duration": 0.3663,
      "velocity": 96,
      "chip": "ym2612"
    },
    {
      "channel": 0,
      "note": 60,
      "start": 1.8501,
      "duration": 0.5331,
      "velocity": 96,
      "chip": "ym2612"
    },
    {
      "channel": 1,
      "note": 88,
      "start": 2.0352,
      "duration": 0.7165,
      "velocity": 91,
      "chip": "ym2612"
    },
    {
      "channel": 2,
      "note": 91,
      "start": 2.0373,
      "duration": 0.7165,
      "velocity": 91,
      "chip": "ym2612"
    },
    {
      "channel": 3,
      "note": 95,
      "start": 2.0395,
      "duration": 0.7165,
      "velocity": 91,
      "chip": "ym2612"
    },
    {
      "channel": 0,
      "note": 48,
      "start": 2.3834,
      "duration": 0.1831,
      "velocity": 96,
      "chip": "ym2612"
    },
    {
      "channel": 0,
      "note": 60,
      "start": 2.5668,
      "duration": 0.3666,
      "velocity": 96,
      "chip": "ym2612"
    },
    {
      "channel": 1,
      "note": 88,
      "start": 2.7518,
      "duration": 0.7165,
      "velocity": 91,
      "chip": "ym2612"
    },
    {
      "channel": 2,
      "note": 91,
      "start": 2.754,
      "duration": 0.7165,
      "velocity": 91,
      "chip": "ym2612"
    },
    {
      "channel": 3,
      "note": 95,
      "start": 2.7561,
      "duration": 0.7165,
      "velocity": 91,
      "chip": "ym2612"
    },
    {
      "channel": 0,
      "note": 50,
      "start": 2.9335,
      "duration": 0.3497,
      "velocity": 96,
      "chip": "ym2612"
    },
    {
      "channel": 0,
      "note": 62,
      "start": 3.2834,
      "duration": 0.5498,
      "velocity": 96,
      "chip": "ym2612"
    },
    {
      "channel": 1,
      "note": 93,
      "start": 3.4685,
      "duration": 0.7165,
      "velocity": 91,
      "chip": "ym2612"
    },
    {
      "channel": 2,
      "note": 90,
      "start": 3.4707,
      "duration": 0.7165,
      "velocity": 91,
      "chip": "ym2612"
    },
    {
      "channel": 3,
      "note": 86,
      "start": 3.4728,
      "duration": 0.7165,
      "velocity": 91,
      "chip": "ym2612"
    },
    {
      "channel": 0,
      "note": 50,
      "start": 3.8334,
      "duration": 0.1831,
      "velocity": 96,
      "chip": "ym2612"
    },
    {
      "channel": 0,
      "note": 62,
      "start": 4.0168,
      "duration": 0.3499,
      "velocity": 96,
      "chip": "ym2612"
    },
    {
      "channel": 1,
      "note": 93,
      "start": 4.1852,
      "duration": 0.7331,
      "velocity": 91,
      "chip": "ym2612"
    },
    {
      "channel": 2,
      "note": 90,
      "start": 4.1873,
      "duration": 0.7332,
      "velocity": 91,
      "chip": "ym2612"
    },
    {
      "channel": 3,
      "note": 86,
      "start": 4.1894,
      "duration": 0.7332,
      "velocity": 91,
      "chip": "ym2612"
    },
    {
      "channel": 0,
      "note": 50,
      "start": 4.3669,
      "duration": 0.3663,
      "velocity": 96,
      "chip": "ym2612"
    },
    {
      "channel": 0,
      "note": 62,
      "start": 4.7334,
      "duration": 0.5331,
      "velocity": 96,
      "chip": "ym2612"
    },
    {
      "channel": 1,
      "note": 93,
      "start": 4.9185,
      "duration": 0.7165,
      "velocity": 91,
      "chip": "ym2612"
    },
    {
      "channel": 2,
      "note": 90,
      "start": 4.9207,
      "duration": 0.7165,
      "velocity": 91,
      "chip": "ym2612"
    },
    {
      "channel": 3,
      "note": 86,
      "start": 4.9228,
      "duration": 0.7165,
      "velocity": 91,
      "chip": "ym2612"
    },
    {
      "channel": 0,
      "note": 50,
      "start": 5.2668,
      "duration": 0.1831,
      "velocity": 96,
      "chip": "ym2612"
    },
    {
      "channel": 0,
      "note": 62,
      "start": 5.4501,
      "duration": 0.3666,
      "velocity": 96,
      "chip": "ym2612"
    },
    {
      "channel": 1,
      "note": 93,
      "start": 5.6352,
      "duration": 0.7165,
      "velocity": 91,
      "chip": "ym2612"
    },
    {
      "channel": 2,
      "note": 90,
      "start": 5.6373,
      "duration": 0.7165,
      "velocity": 91,
      "chip": "ym2612"
    },
    {
      "channel": 3,
      "note": 86,
      "start": 5.6395,
      "duration": 0.7165,
      "velocity": 91,
      "chip": "ym2612"
    },
    {
      "channel": 0,
      "note": 48,
      "start": 5.8168,
      "duration": 0.3497,
      "velocity": 96,
      "chip": "ym2612"
    },
    {
      "channel": 0,
      "note": 60,
      "start": 6.1668,
      "duration": 0.5498,
      "velocity": 96,
      "chip": "ym2612"
    },
    {
      "channel": 1,
      "note": 91,
      "start": 6.3518,
      "duration": 0.7165,
      "velocity": 91,
      "chip": "ym2612"
    },
    {
      "channel": 2,
      "note": 88,
      "start": 6.354,
      "duration": 0.7165,
      "velocity": 91,
      "chip": "ym2612"
    },
    {
      "channel": 3,
      "note": 84,
      "start": 6.3561,
      "duration": 0.7165,
      "velocity": 91,
      "chip": "ym2612"
    },
    {
      "channel": 0,
      "note": 48,
      "start": 6.7168,
      "duration": 0.1665,
      "velocity": 96,
      "chip": "ym2612"
    },
    {
      "channel": 0,
      "note": 60,
      "start": 6.8834,
      "duration": 0.3666,
      "velocity": 96,
      "chip": "ym2612"
    },
    {
      "channel": 1,
      "note": 91,
      "start": 7.0685,
      "duration": 0.7165,
      "velocity": 91,
      "chip": "ym2612"
    },
    {
      "channel": 2,
      "note": 88,
      "start": 7.0707,
      "duration": 0.7165,
      "velocity": 91,
      "chip": "ym2612"
    },
    {
      "channel": 3,
      "note": 84,
      "start": 7.0728,
      "duration": 0.7165,
      "velocity": 91,
      "chip": "ym2612"
    },
    {
      "channel": 0,
      "note": 48,
      "start": 7.2502,
      "duration": 0.3663,
      "velocity": 96,
      "chip": "ym2612"
    },
    {
      "channel": 0,
      "note": 60,
      "start": 7.6168,
      "duration": 0.5331,
      "velocity": 96,
      "chip": "ym2612"
    },
    {
      "channel": 1,
      "note": 95,
      "start": 7.7852,
      "duration": 0.7331,
      "velocity": 91,
      "chip": "ym2612"
    },
    {
      "channel": 2,
      "note": 91,
      "start": 7.7873,
      "duration": 0.7332,
      "velocity": 91,
      "chip": "ym2612"
    },
    {
      "channel": 3,
      "note": 88,
      "start": 7.7894,
      "duration": 0.7332,
      "velocity": 91,
      "chip": "ym2612"
    },
    {
      "channel": 0,
      "note": 48,
      "start": 8.1501,
      "duration": 0.1831,
      "velocity": 96,
      "chip": "ym2612"
    },
    {
      "channel": 0,
      "note": 60,
      "start": 8.3334,
      "duration": 0.3499,
      "velocity": 96,
      "chip": "ym2612"
    },
    {
      "channel": 1,
      "note": 95,
      "start": 8.5185,
      "duration": 0.7165,
      "velocity": 91,
      "chip": "ym2612"
    },
    {
      "channel": 2,
      "note": 91,
      "start": 8.5207,
      "duration": 0.7165,
      "velocity": 91,
      "chip": "ym2612"
    },
    {
      "channel": 3,
      "note": 88,
      "start": 8.5228,
      "duration": 0.7165,
      "velocity": 91,
      "chip": "ym2612"
    },
    {
      "channel": 0,
      "note": 50,
      "start": 8.6836,
      "duration": 0.3663,
      "velocity": 96,
      "chip": "ym2612"
    },
    {
      "channel": 0,
      "note": 62,
      "start": 9.0501,
      "duration": 0.5331,
      "velocity": 96,
      "chip": "ym2612"
    },
    {
      "channel": 1,
      "note": 93,
      "start": 9.2352,
      "duration": 0.7165,
      "velocity": 91,
      "chip": "ym2612"
    },
    {
      "channel": 2,
      "note": 90,
      "start": 9.2373,
      "duration": 0.7165,
      "velocity": 91,
      "chip": "ym2612"
    },
    {
      "channel": 3,
      "note": 86,
      "start": 9.2395,
      "duration": 0.7165,
      "velocity": 91,
      "chip": "ym2612"
    },
    {
      "channel": 0,
      "note": 50,
      "start": 9.5834,
      "duration": 0.1831,
      "velocity": 96,
      "chip": "ym2612"
    },
    {
      "channel": 0,
      "note": 62,
      "start": 9.7668,
      "duration": 0.3666,
      "velocity": 96,
      "chip": "ym2612"
    },
    {
      "channel": 1,
      "note": 93,
      "start": 9.9518,
      "duration": 0.7165,
      "velocity": 91,
      "chip": "ym2612"
    },
    {
      "channel": 2,
      "note": 90,
      "start": 9.954,
      "duration": 0.7165,
      "velocity": 91,
      "chip": "ym2612"
    },
    {
      "channel": 3,
      "note": 86,
      "start": 9.9561,
      "duration": 0.7165,
      "velocity": 91,
      "chip": "ym2612"
    },
    {
      "channel": 0,
      "note": 50,
      "start": 10.1335,
      "duration": 0.3497,
      "velocity": 96,
      "chip": "ym2612"
    },
    {
      "channel": 0,
      "note": 62,
      "start": 10.4834,
      "duration": 0.5499,
      "velocity": 96,
      "chip": "ym2612"
    },
    {
      "channel": 1,
      "note": 93,
      "start": 10.6685,
      "duration": 0.1815,
      "velocity": 91,
      "chip": "ym2612"
    },
    {
      "channel": 2,
      "note": 90,
      "start": 10.6707,
      "duration": 0.18,
      "velocity": 91,
      "chip": "ym2612"
    },
    {
      "channel": 3,
      "note": 86,
      "start": 10.6728,
      "duration": 0.1784,
      "velocity": 91,
      "chip": "ym2612"
    },
    {
      "channel": 1,
      "note": 95,
      "start": 10.8502,
      "duration": 0.367,
      "velocity": 91,
      "chip": "ym2612"
    },
    {
      "channel": 2,
      "note": 91,
      "start": 10.8508,
      "duration": 0.367,
      "velocity": 91,
      "chip": "ym2612"
    },
    {
      "channel": 3,
      "note": 88,
      "start": 10.8513,
      "duration": 0.3671,
      "velocity": 91,
      "chip": "ym2612"
    },
    {
      "channel": 0,
      "note": 50,
      "start": 11.0335,
      "duration": 0.1832,
      "velocity": 96,
      "chip": "ym2612"
    },
    {
      "channel": 0,
      "note": 62,
      "start": 11.2168,
      "duration": 0.35,
      "velocity": 96,
      "chip": "ym2612"
    },
    {
      "channel": 1,
      "note": 96,
      "start": 11.2174,
      "duration": 0.3515,
      "velocity": 111,
      "chip": "ym2612"
    },
    {
      "channel": 2,
      "note": 93,
      "start": 11.218,
      "duration": 1.0671,
      "velocity": 111,
      "chip": "ym2612"
    },
    {
      "channel": 3,
      "note": 90,
      "start": 11.2185,
      "duration": 0.3526,
      "velocity": 97,
      "chip": "ym2612"
    },
    {
      "channel": 0,
      "note": 55,
      "start": 11.567,
      "duration": 0.3663,
      "velocity": 96,
      "chip": "ym2612"
    },
    {
      "channel": 1,
      "note": 74,
      "start": 11.5691,
      "duration": 0.8981,
      "velocity": 111,
      "chip": "ym2612"
    },
    {
      "channel": 3,
      "note": 55,
      "start": 11.5714,
      "duration": 0.5461,
      "velocity": 97,
      "chip": "ym2612"
    },
    {
      "channel": 4,
      "note": 59,
      "start": 11.752,
      "duration": 0.7159,
      "velocity": 97,
      "chip": "ym2612"
    },
    {
      "channel": 0,
      "note": 67,
      "start": 11.9335,
      "duration": 0.1832,
      "velocity": 96,
      "chip": "ym2612"
    },
    {
      "channel": 5,
      "note": 62,
      "start": 11.9359,
      "duration": 0.7154,
      "velocity": 97,
      "chip": "ym2612"
    },
    {
      "channel": 0,
      "note": 55,
      "start": 12.1168,
      "duration": 0.3498,
      "velocity": 96,
      "chip": "ym2612"
    },
    {
      "channel": 3,
      "note": 67,
      "start": 12.1176,
      "duration": 0.8998,
      "velocity": 97,
      "chip": "ym2612"
    },
    {
      "channel": 2,
      "note": 74,
      "start": 12.2852,
      "duration": 0.8982,
      "velocity": 111,
      "chip": "ym2612"
    },
    {
      "channel": 0,
      "note": 55,
      "start": 12.4668,
      "duration": 0.1831,
      "velocity": 96,
      "chip": "ym2612"
    },
    {
      "channel": 1,
      "note": 74,
      "start": 12.4674,
      "duration": 0.0011,
      "velocity": 111,
      "chip": "ym2612"
    },
    {
      "channel": 4,
      "note": 62,
      "start": 12.4681,
      "duration": 0.716,
      "velocity": 97,
      "chip": "ym2612"
    },
    {
      "channel": 1,
      "note": 73,
      "start": 12.4685,
      "duration": 0.0144,
      "velocity": 111,
      "chip": "ym2612"
    },
    {
      "channel": 1,
      "note": 71,
      "start": 12.483,
      "duration": 0.0333,
      "velocity": 111,
      "chip": "ym2612"
    },
    {
      "channel": 1,
      "note": 71,
      "start": 12.5163,
      "duration": 0.1342,
      "velocity": 111,
      "chip": "ym2612"
    },
    {
      "channel": 0,
      "note": 67,
      "start": 12.6502,
      "duration": 0.1831,
      "velocity": 96,
      "chip": "ym2612"
    },
    {
      "channel": 1,
      "note": 71,
      "start": 12.6507,
      "duration": 0.0011,
      "velocity": 111,
      "chip": "ym2612"
    },
    {
      "channel": 5,
      "note": 59,
      "start": 12.6515,
      "duration": 0.7165,
      "velocity": 97,
      "chip": "ym2612"
    },
    {
      "channel": 1,
      "note": 72,
      "start": 12.6519,
      "duration": 0.182,
      "velocity": 111,
      "chip": "ym2612"
    },
    {
      "channel": 0,
      "note": 55,
      "start": 12.8335,
      "duration": 0.1831,
      "velocity": 96,
      "chip": "ym2612"
    },
    {
      "channel": 1,
      "note": 72,
      "start": 12.8341,
      "duration": 0.0006,
      "velocity": 111,
      "chip": "ym2612"
    },
    {
      "channel": 1,
      "note": 73,
      "start": 12.8347,
      "duration": 0.0149,
      "velocity": 111,
      "chip": "ym2612"
    },
    {
      "channel": 1,
      "note": 74,
      "start": 12.8497,
      "duration": 1.0676,
      "velocity": 111,
      "chip": "ym2612"
    },
    {
      "channel": 0,
      "note": 53,
      "start": 13.0168,
      "duration": 0.3498,
      "velocity": 96,
      "chip": "ym2612"
    },
    {
      "channel": 3,
      "note": 55,
      "start": 13.0176,
      "duration": 0.5337,
      "velocity": 97,
      "chip": "ym2612"
    },
    {
      "channel": 2,
      "note": 74,
      "start": 13.1836,
      "duration": 0.0012,
      "velocity": 111,
      "chip": "ym2612"
    },
    {
      "channel": 4,
      "note": 59,
      "start": 13.1843,
      "duration": 0.7336,
      "velocity": 97,
      "chip": "ym2612"
    },
    {
      "channel": 2,
      "note": 73,
      "start": 13.1848,
      "duration": 0.0316,
      "velocity": 111,
      "chip": "ym2612"
    },
    {
      "channel": 2,
      "note": 71,
      "start": 13.2164,
      "duration": 0.0167,
      "velocity": 111,
      "chip": "ym2612"
    },
    {
      "channel": 2,
      "note": 71,
      "start": 13.2331,
      "duration": 0.1341,
      "velocity": 111,
      "chip": "ym2612"
    },
    {
      "channel": 0,
      "note": 65,
      "start": 13.3668,
      "duration": 0.1831,
      "velocity": 96,
      "chip": "ym2612"
    },
    {
      "channel": 2,
      "note": 71,
      "start": 13.3675,
      "duration": 0.0012,
      "velocity": 111,
      "chip": "ym2612"
    },
    {
      "channel": 5,
      "note": 62,
      "start": 13.3682,
      "duration": 0.7165,
      "velocity": 97,
      "chip": "ym2612"
    },
    {
      "channel": 2,
      "note": 72,
      "start": 13.3687,
      "duration": 0.1819,
      "velocity": 111,
      "chip": "ym2612"
    },
    {
      "channel": 0,
      "note": 53,
      "start": 13.5502,
      "duration": 0.3665,
      "velocity": 96,
      "chip": "ym2612"
    },
    {
      "channel": 2,
      "note": 72,
      "start": 13.5508,
      "duration": 0.0011,
      "velocity": 111,
      "chip": "ym2612"
    },
    {
      "channel": 3,
      "note": 67,
      "start": 13.5514,
      "duration": 0.8993,
      "velocity": 97,
      "chip": "ym2612"
    },
    {
      "channel": 2,
      "note": 73,
      "start": 13.552,
      "duration": 0.0145,
      "velocity": 111,
      "chip": "ym2612"
    },
    {
      "channel": 2,
      "note": 74,
      "start": 13.5665,
      "duration": 1.067,
      "velocity": 111,
      "chip": "ym2612"
    },
    {
      "channel": 0,
      "note": 53,
      "start": 13.9168,
      "duration": 0.1665,
      "velocity": 96,
      "chip": "ym2612"
    },
    {
      "channel": 1,
      "note": 74,
      "start": 13.9173,
      "duration": 0.0012,
      "velocity": 111,
      "chip": "ym2612"
    },
    {
      "channel": 4,
      "note": 62,
      "start": 13.918,
      "duration": 0.716,
      "velocity": 97,
      "chip": "ym2612"
    },
    {
      "channel": 1,
      "note": 73,
      "start": 13.9185,
      "duration": 0.0145,
      "velocity": 111,
      "chip": "ym2612"
    },
    {
      "channel": 1,
      "note": 71,
      "start": 13.933,
      "duration": 0.0167,
      "velocity": 111,
      "chip": "ym2612"
    },
    {
      "channel": 1,
      "note": 71,
      "start": 13.9497,
      "duration": 0.1342,
      "velocity": 111,
      "chip": "ym2612"
    },
    {
      "channel": 0,
      "note": 65,
      "start": 14.0835,
      "duration": 0.1831,
      "velocity": 96,
      "chip": "ym2612"
    },
    {
      "channel": 1,
      "note": 71,
      "start": 14.0841,
      "duration": 0.0011,
      "velocity": 111,
      "chip": "ym2612"
    },
    {
      "channel": 5,
      "note": 59,
      "start": 14.0849,
      "duration": 0.7331,
      "velocity": 97,
      "chip": "ym2612"
    },
    {
      "channel": 1,
      "note": 72,
      "start": 14.0852,
      "duration": 0.182,
      "velocity": 111,
      "chip": "ym2612"
    },
    {
      "channel": 0,
      "note": 53,
      "start": 14.2668,
      "duration": 0.1831,
      "velocity": 96,
      "chip": "ym2612"
    },
    {
      "channel": 1,
      "note": 72,
      "start": 14.2673,
      "duration": 0.0007,
      "velocity": 111,
      "chip": "ym2612"
    },
    {
      "channel": 1,
      "note": 73,
      "start": 14.268,
      "duration": 0.0149,
      "velocity": 111,
      "chip": "ym2612"
    },
    {
      "channel": 1,
      "note": 74,
      "start": 14.283,
      "duration": 1.0676,
      "velocity": 111,
      "chip": "ym2612"
    },
    {
      "channel": 0,
      "note": 52,
      "start": 14.4502,
      "duration": 0.3665,
      "velocity": 96,
      "chip": "ym2612"
    },
    {
      "channel": 3,
      "note": 55,
      "start": 14.4509,
      "duration": 0.5337,
      "velocity": 97,
      "chip": "ym2612"
    },
    {
      "channel": 2,
      "note": 74,
      "start": 14.6336,
      "duration": 0.0012,
      "velocity": 111,
      "chip": "ym2612"
    },
    {
      "channel": 4,
      "note": 59,
      "start": 14.6343,
      "duration": 0.7169,
      "velocity": 97,
      "chip": "ym2612"
    },
    {
      "channel": 2,
      "note": 73,
      "start": 14.6349,
      "duration": 0.0149,
      "velocity": 111,
      "chip": "ym2612"
    },
    {
      "channel": 2,
      "note": 71,
      "start": 14.6497,
      "duration": 0.0167,
      "velocity": 111,
      "chip": "ym2612"
    },
    {
      "channel": 2,
      "note": 71,
      "start": 14.6665,
      "duration": 0.1508,
      "velocity": 111,
      "chip": "ym2612"
    },
    {
      "channel": 0,
      "note": 64,
      "start": 14.8168,
      "duration": 0.1665,
      "velocity": 96,
      "chip": "ym2612"
    },
    {
      "channel": 2,
      "note": 71,
      "start": 14.8175,
      "duration": 0.0012,
      "velocity": 111,
      "chip": "ym2612"
    },
    {
      "channel": 5,
      "note": 62,
      "start": 14.8182,
      "duration": 0.7165,
      "velocity": 97,
      "chip": "ym2612"
    },
    {
      "channel": 2,
      "note": 72,
      "start": 14.8187,
      "duration": 0.1653,
      "velocity": 111,
      "chip": "ym2612"
    },
    {
      "channel": 0,
      "note": 52,
      "start": 14.9835,
      "duration": 0.3665,
      "velocity": 96,
      "chip": "ym2612"
    },
    {
      "channel": 2,
      "note": 72,
      "start": 14.9841,
      "duration": 0.0011,
      "velocity": 111,
      "chip": "ym2612"
    },
    {
      "channel": 3,
      "note": 67,
      "start": 14.9847,
      "duration": 0.8993,
      "velocity": 97,
      "chip": "ym2612"
    },
    {
      "channel": 2,
      "note": 73,
      "start": 14.9853,
      "duration": 0.0311,
      "velocity": 111,
      "chip": "ym2612"
    },
    {
      "channel": 2,
      "note": 74,
      "start": 15.0164,
      "duration": 1.0504,
      "velocity": 111,
      "chip": "ym2612"
    },
    {
      "channel": 0,
      "note": 52,
      "start": 15.3502,
      "duration": 0.1832,
      "velocity": 96,
      "chip": "ym2612"
    },
    {
      "channel": 1,
      "note": 74,
      "start": 15.3507,
      "duration": 0.0012,
      "velocity": 111,
      "chip": "ym2612"
    },
    {
      "channel": 4,
      "note": 62,
      "start": 15.3514,
      "duration": 0.716,
      "velocity": 97,
      "chip": "ym2612"
    },
    {
      "channel": 1,
      "note": 75,
      "start": 15.3518,
      "duration": 0.0145,
      "velocity": 111,
      "chip": "ym2612"
    },
    {
      "channel": 1,
      "note": 76,
      "start": 15.3663,
      "duration": 0.1676,
      "velocity": 111,
      "chip": "ym2612"
    },
    {
      "channel": 0,
      "note": 64,
      "start": 15.5335,
      "duration": 0.1831,
      "velocity": 96,
      "chip": "ym2612"
    },
    {
      "channel": 1,
      "note": 76,
      "start": 15.5341,
      "duration": 0.0012,
      "velocity": 111,
      "chip": "ym2612"
    },
    {
      "channel": 5,
      "note": 59,
      "start": 15.5349,
      "duration": 0.7165,
      "velocity": 97,
      "chip": "ym2612"
    },
    {
      "channel": 1,
      "note": 75,
      "start": 15.5353,
      "duration": 0.0144,
      "velocity": 111,
      "chip": "ym2612"
    },
    {
      "channel": 1,
      "note": 74,
      "start": 15.5497,
      "duration": 0.0167,
      "velocity": 111,
      "chip": "ym2612"
    },
    {
      "channel": 1,
      "note": 72,
      "start": 15.5663,
      "duration": 0.0167,
      "velocity": 111,
      "chip": "ym2612"
    },
    {
      "channel": 1,
      "note": 72,
      "start": 15.583,
      "duration": 0.1342,
      "velocity": 111,
      "chip": "ym2612"
    },
    {
      "channel": 0,
      "note": 52,
      "start": 15.7168,
      "duration": 0.1665,
      "velocity": 96,
      "chip": "ym2612"
    },
    {
      "channel": 1,
      "note": 72,
      "start": 15.7174,
      "duration": 0.0006,
      "velocity": 111,
      "chip": "ym2612"
    },
    {
      "channel": 1,
      "note": 73,
      "start": 15.718,
      "duration": 0.0149,
      "velocity": 111,
      "chip": "ym2612"
    },
    {
      "channel": 1,
      "note": 75,
      "start": 15.733,
      "duration": 0.0167,
      "velocity": 111,
      "chip": "ym2612"
    },
    {
      "channel": 1,
      "note": 75,
      "start": 15.7497,
      "duration": 0.867,
      "velocity": 111,
      "chip": "ym2612"
    },
    {
      "channel": 0,
      "note": 51,
      "start": 15.8835,
      "duration": 0.3665,
      "velocity": 96,
      "chip": "ym2612"
    },
    {
      "channel": 3,
      "note": 55,
      "start": 15.8842,
      "duration": 0.5503,
      "velocity": 97,
      "chip": "ym2612"
    },
    {
      "channel": 2,
      "note": 74,
      "start": 16.067,
      "duration": 0.0012,
      "velocity": 111,
      "chip": "ym2612"
    },
    {
      "channel": 4,
      "note": 58,
      "start": 16.0676,
      "duration": 0.7165,
      "velocity": 97,
      "chip": "ym2612"
    },
    {
      "channel": 2,
      "note": 75,
      "start": 16.0681,
      "duration": 0.015,
      "velocity": 111,
      "chip": "ym2612"
    },
    {
      "channel": 2,
      "note": 76,
      "start": 16.0831,
      "duration": 0.1675,
      "velocity": 111,
      "chip": "ym2612"
    },
    {
      "channel": 0,
      "note": 63,
      "start": 16.2502,
      "duration": 0.1831,
      "velocity": 96,
      "chip": "ym2612"
    },
    {
      "channel": 2,
      "note": 76,
      "start": 16.2508,
      "duration": 0.0012,
      "velocity": 111,
      "chip": "ym2612"
    },
    {
      "channel": 5,
      "note": 63,
      "start": 16.2515,
      "duration": 0.7165,
      "velocity": 97,
      "chip": "ym2612"
    },
    {
      "channel": 2,
      "note": 75,
      "start": 16.252,
      "duration": 0.0144,
      "velocity": 111,
      "chip": "ym2612"
    },
    {
      "channel": 2,
      "note": 74,
      "start": 16.2664,
      "duration": 0.0167,
      "velocity": 111,
      "chip": "ym2612"
    },
    {
      "channel": 2,
      "note": 72,
      "start": 16.2831,
      "duration": 0.0334,
      "velocity": 111,
      "chip": "ym2612"
    },
    {
      "channel": 2,
      "note": 72,
      "start": 16.3165,
      "duration": 0.1175,
      "velocity": 111,
      "chip": "ym2612"
    },
    {
      "channel": 0,
      "note": 51,
      "start": 16.4335,
      "duration": 0.3498,
      "velocity": 96,
      "chip": "ym2612"
    },
    {
      "channel": 2,
      "note": 72,
      "start": 16.4341,
      "duration": 0.0011,
      "velocity": 111,
      "chip": "ym2612"
    },
    {
      "channel": 3,
      "note": 67,
      "start": 16.4347,
      "duration": 0.9003,
      "velocity": 97,
      "chip": "ym2612"
    },
    {
      "channel": 2,
      "note": 73,
      "start": 16.4353,
      "duration": 0.0144,
      "velocity": 111,
      "chip": "ym2612"
    },
    {
      "channel": 2,
      "note": 75,
      "start": 16.4497,
      "duration": 0.0167,
      "velocity": 111,
      "chip": "ym2612"
    },
    {
      "channel": 2,
      "note": 75,
      "start": 16.4664,
      "duration": 0.8681,
      "velocity": 111,
      "chip": "ym2612"
    },
    {
      "channel": 1,
      "note": 75,
      "start": 16.6169,
      "duration": 0.0007,
      "velocity": 111,
      "chip": "ym2612"
    },
    {
      "channel": 1,
      "note": 74,
      "start": 16.6176,
      "duration": 0.0154,
      "velocity": 111,
      "chip": "ym2612"
    },
    {
      "channel": 1,
      "note": 72,
      "start": 16.633,
      "duration": 0.0167,
      "velocity": 111,
      "chip": "ym2612"
    },
    {
      "channel": 1,
      "note": 71,
      "start": 16.6497,
      "duration": 0.0167,
      "velocity": 111,
      "chip": "ym2612"
    },
    {
      "channel": 1,
      "note": 69,
      "start": 16.6663,
      "duration": 0.0167,
      "velocity": 111,
      "chip": "ym2612"
    },
    {
      "channel": 1,
      "note": 68,
      "start": 16.683,
      "duration": 0.0333,
      "velocity": 111,
      "chip": "ym2612"
    },
    {
      "channel": 1,
      "note": 67,
      "start": 16.7163,
      "duration": 0.2509,
      "velocity": 111,
      "chip": "ym2612"
    },
    {
      "channel": 0,
      "note": 51,
      "start": 16.7835,
      "duration": 0.1831,
      "velocity": 96,
      "chip": "ym2612"
    },
    {
      "channel": 4,
      "note": 63,
      "start": 16.7843,
      "duration": 0.7327,
      "velocity": 97,
      "chip": "ym2612"
    },
    {
      "channel": 0,
      "note": 63,
      "start": 16.9668,
      "duration": 0.1831,
      "velocity": 96,
      "chip": "ym2612"
    },
    {
      "channel": 1,
      "note": 67,
      "start": 16.9674,
      "duration": 0.0011,
      "velocity": 111,
      "chip": "ym2612"
    },
    {
      "channel": 5,
      "note": 58,
      "start": 16.9682,
      "duration": 0.717,
      "velocity": 97,
      "chip": "ym2612"
    },
    {
      "channel": 1,
      "note": 68,
      "start": 16.9685,
      "duration": 0.0145,
      "velocity": 111,
      "chip": "ym2612"
    },
    {
      "channel": 1,
      "note": 69,
      "start": 16.9831,
      "duration": 0.3508,
      "velocity": 111,
      "chip": "ym2612"
    },
    {
      "channel": 0,
      "note": 51,
      "start": 17.1502,
      "duration": 0.1832,
      "velocity": 96,
      "chip": "ym2612"
    },
    {
      "channel": 0,
      "note": 55,
      "start": 17.3335,
      "duration": 0.3499,
      "velocity": 96,
      "chip": "ym2612"
    },
    {
      "channel": 1,
      "note": 69,
      "start": 17.3341,
      "duration": 0.0017,
      "velocity": 111,
      "chip": "ym2612"
    },
    {
      "channel": 2,
      "note": 75,
      "start": 17.3346,
      "duration": 0.0014,
      "velocity": 111,
      "chip": "ym2612"
    },
    {
      "channel": 3,
      "note": 55,
      "start": 17.3352,
      "duration": 0.5327,
      "velocity": 97,
      "chip": "ym2612"
    },
    {
      "channel": 1,
      "note": 71,
      "start": 17.3357,
      "duration": 0.0139,
      "velocity": 111,
      "chip": "ym2612"
    },
    {
      "channel": 2,
      "note": 74,
      "start": 17.3361,
      "duration": 0.014,
      "velocity": 111,
      "chip": "ym2612"
    },
    {
      "channel": 1,
      "note": 71,
      "start": 17.3497,
      "duration": 0.3343,
      "velocity": 111,
      "chip": "ym2612"
    },
    {
      "channel": 2,
      "note": 72,
      "start": 17.35,
      "duration": 0.0163,
      "velocity": 111,
      "chip": "ym2612"
    },
    {
      "channel": 2,
      "note": 71,
      "start": 17.3664,
      "duration": 0.0167,
      "velocity": 111,
      "chip": "ym2612"
    },
    {
      "channel": 2,
      "note": 69,
      "start": 17.3831,
      "duration": 0.0333,
      "velocity": 111,
      "chip": "ym2612"
    },
    {
      "channel": 2,
      "note": 68,
      "start": 17.4165,
      "duration": 0.0167,
      "velocity": 111,
      "chip": "ym2612"
    },
    {
      "channel": 2,
      "note": 67,
      "start": 17.4331,
      "duration": 0.2513,
      "velocity": 111,
      "chip": "ym2612"
    },
    {
      "channel": 4,
      "note": 59,
      "start": 17.5171,
      "duration": 0.7175,
      "velocity": 97,
      "chip": "ym2612"
    },
    {
      "channel": 0,
      "note": 67,
      "start": 17.6836,
      "duration": 0.1832,
      "velocity": 96,
      "chip": "ym2612"
    },
    {
      "channel": 1,
      "note": 71,
      "start": 17.6841,
      "duration": 0.0017,
      "velocity": 111,
      "chip": "ym2612"
    },
    {
      "channel": 2,
      "note": 67,
      "start": 17.6846,
      "duration": 0.0015,
      "velocity": 111,
      "chip": "ym2612"
    },
    {
      "channel": 5,
      "note": 62,
      "start": 17.6854,
      "duration": 0.7332,
      "velocity": 97,
      "chip": "ym2612"
    },
    {
      "channel": 1,
      "note": 72,
      "start": 17.6858,
      "duration": 0.1815,
      "velocity": 111,
      "chip": "ym2612"
    },
    {
      "channel": 2,
      "note": 68,
      "start": 17.6861,
      "duration": 0.0303,
      "velocity": 111,
      "chip": "ym2612"
    },
    {
      "channel": 2,
      "note": 69,
      "start": 17.7165,
      "duration": 0.3337,
      "velocity": 111,
      "chip": "ym2612"
    },
    {
      "channel": 0,
      "note": 55,
      "start": 17.8669,
      "duration": 0.3665,
      "velocity": 96,
      "chip": "ym2612"
    },
    {
      "channel": 1,
      "note": 72,
      "start": 17.8674,
      "duration": 0.0012,
      "velocity": 111,
      "chip": "ym2612"
    },
    {
      "channel": 3,
      "note": 67,
      "start": 17.868,
      "duration": 0.8998,
      "velocity": 97,
      "chip": "ym2612"
    },
    {
      "channel": 1,
      "note": 71,
      "start": 17.8686,
      "duration": 0.3653,
      "velocity": 111,
      "chip": "ym2612"
    },
    {
      "channel": 2,
      "note": 69,
      "start": 18.0503,
      "duration": 0.0006,
      "velocity": 111,
      "chip": "ym2612"
    },
    {
      "channel": 2,
      "note": 71,
      "start": 18.0509,
      "duration": 0.0155,
      "velocity": 111,
      "chip": "ym2612"
    },
    {
      "channel": 2,
      "note": 71,
      "start": 18.0665,
      "duration": 0.3513,
      "velocity": 111,
      "chip": "ym2612"
    },
    {
      "channel": 0,
      "note": 55,
      "start": 18.2335,
      "duration": 0.1832,
      "velocity": 96,
      "chip": "ym2612"
    },
    {
      "channel": 1,
      "note": 71,
      "start": 18.2341,
      "duration": 0.0011,
      "velocity": 111,
      "chip": "ym2612"
    },
    {
      "channel": 4,
      "note": 62,
      "start": 18.2348,
      "duration": 0.716,
      "velocity": 97,
      "chip": "ym2612"
    },
    {
      "channel": 1,
      "note": 69,
      "start": 18.2352,
      "duration": 0.0145,
      "velocity": 111,
      "chip": "ym2612"
    },
    {
      "channel": 1,
      "note": 68,
      "start": 18.2497,
      "duration": 0.0167,
      "velocity": 111,
      "chip": "ym2612"
    },
    {
      "channel": 1,
      "note": 67,
      "start": 18.2664,
      "duration": 0.1509,
      "velocity": 111,
      "chip": "ym2612"
    },
    {
      "channel": 0,
      "note": 67,
      "start": 18.4169,
      "duration": 0.1664,
      "velocity": 96,
      "chip": "ym2612"
    },
    {
      "channel": 1,
      "note": 67,
      "start": 18.4174,
      "duration": 0.0017,
      "velocity": 111,
      "chip": "ym2612"
    },
    {
      "channel": 2,
      "note": 71,
      "start": 18.418,
      "duration": 0.0015,
      "velocity": 111,
      "chip": "ym2612"
    },
    {
      "channel": 5,
      "note": 59,
      "start": 18.4187,
      "duration": 0.716,
      "velocity": 97,
      "chip": "ym2612"
    },
    {
      "channel": 1,
      "note": 66,
      "start": 18.4191,
      "duration": 0.0139,
      "velocity": 111,
      "chip": "ym2612"
    },
    {
      "channel": 2,
      "note": 72,
      "start": 18.4195,
      "duration": 0.1645,
      "velocity": 111,
      "chip": "ym2612"
    },
    {
      "channel": 1,
      "note": 65,
      "start": 18.433,
      "duration": 0.0167,
      "velocity": 111,
      "chip": "ym2612"
    },
    {
      "channel": 1,
      "note": 64,
      "start": 18.4497,
      "duration": 0.0167,
      "velocity": 111,
      "chip": "ym2612"
    },
    {
      "channel": 1,
      "note": 63,
      "start": 18.4663,
      "duration": 0.0167,
      "velocity": 111,
      "chip": "ym2612"
    },
    {
      "channel": 1,
      "note": 62,
      "start": 18.483,
      "duration": 0.2842,
      "velocity": 111,
      "chip": "ym2612"
    },
    {
      "channel": 0,
      "note": 55,
      "start": 18.5835,
      "duration": 0.1832,
      "velocity": 96,
      "chip": "ym2612"
    },
    {
      "channel": 2,
      "note": 72,
      "start": 18.5841,
      "duration": 0.0006,
      "velocity": 111,
      "chip": "ym2612"
    },
    {
      "channel": 2,
      "note": 71,
      "start": 18.5848,
      "duration": 0.3654,
      "velocity": 111,
      "chip": "ym2612"
    },
    {
      "channel": 0,
      "note": 48,
      "start": 18.7668,
      "duration": 0.3665,
      "velocity": 96,
      "chip": "ym2612"
    },
    {
      "channel": 1,
      "note": 62,
      "start": 18.7674,
      "duration": 0.0011,
      "velocity": 111,
      "chip": "ym2612"
    },
    {
      "channel": 3,
      "note": 55,
      "start": 18.768,
      "duration": 0.5493,
      "velocity": 97,
      "chip": "ym2612"
    },
    {
      "channel": 1,
      "note": 63,
      "start": 18.7685,
      "duration": 0.0144,
      "velocity": 111,
      "chip": "ym2612"
    },
    {
      "channel": 1,
      "note": 64,
      "start": 18.783,
      "duration": 0.0333,
      "velocity": 111,
      "chip": "ym2612"
    },
    {
      "channel": 1,
      "note": 65,
      "start": 18.8163,
      "duration": 1.0342,
      "velocity": 111,
      "chip": "ym2612"
    },
    {
      "channel": 2,
      "note": 71,
      "start": 18.9503,
      "duration": 0.0012,
      "velocity": 111,
      "chip": "ym2612"
    },
    {
      "channel": 4,
      "note": 60,
      "start": 18.9509,
      "duration": 0.7165,
      "velocity": 97,
      "chip": "ym2612"
    },
    {
      "channel": 2,
      "note": 69,
      "start": 18.9515,
      "duration": 0.0149,
      "velocity": 111,
      "chip": "ym2612"
    },
    {
      "channel": 2,
      "note": 68,
      "start": 18.9664,
      "duration": 0.0167,
      "velocity": 111,
      "chip": "ym2612"
    },
    {
      "channel": 2,
      "note": 67,
      "start": 18.9831,
      "duration": 0.1508,
      "velocity": 111,
      "chip": "ym2612"
    },
    {
      "channel": 0,
      "note": 60,
      "start": 19.1335,
      "duration": 0.1831,
      "velocity": 96,
      "chip": "ym2612"
    },
    {
      "channel": 2,
      "note": 67,
      "start": 19.1341,
      "duration": 0.0012,
      "velocity": 111,
      "chip": "ym2612"
    },
    {
      "channel": 5,
      "note": 64,
      "start": 19.1349,
      "duration": 0.7165,
      "velocity": 97,
      "chip": "ym2612"
    },
    {
      "channel": 2,
      "note": 66,
      "start": 19.1354,
      "duration": 0.0144,
      "velocity": 111,
      "chip": "ym2612"
    },
    {
      "channel": 2,
      "note": 65,
      "start": 19.1497,
      "duration": 0.0167,
      "velocity": 111,
      "chip": "ym2612"
    },
    {
      "channel": 2,
      "note": 64,
      "start": 19.1664,
      "duration": 0.0167,
      "velocity": 111,
      "chip": "ym2612"
    },
    {
      "channel": 2,
      "note": 63,
      "start": 19.1831,
      "duration": 0.0333,
      "velocity": 111,
      "chip": "ym2612"
    },
    {
      "channel": 2,
      "note": 62,
      "start": 19.2165,
      "duration": 0.267,
      "velocity": 111,
      "chip": "ym2612"
    },
    {
      "channel": 0,
      "note": 48,
      "start": 19.3168,
      "duration": 0.3498,
      "velocity": 96,
      "chip": "ym2612"
    },
    {
      "channel": 3,
      "note": 67,
      "start": 19.3176,
      "duration": 0.9003,
      "velocity": 97,
      "chip": "ym2612"
    },
    {
      "channel": 2,
      "note": 62,
      "start": 19.4836,
      "duration": 0.0007,
      "velocity": 111,
      "chip": "ym2612"
    },
    {
      "channel": 2,
      "note": 63,
      "start": 19.4843,
      "duration": 0.0321,
      "velocity": 111,
      "chip": "ym2612"
    },
    {
      "channel": 2,
      "note": 64,
      "start": 19.5164,
      "duration": 0.0167,
      "velocity": 111,
      "chip": "ym2612"
    },
    {
      "channel": 2,
      "note": 65,
      "start": 19.5331,
      "duration": 1.0342,
      "velocity": 111,
      "chip": "ym2612"
    },
    {
      "channel": 0,
      "note": 48,
      "start": 19.6668,
      "duration": 0.1832,
      "velocity": 96,
      "chip": "ym2612"
    },
    {
      "channel": 4,
      "note": 64,
      "start": 19.6676,
      "duration": 0.716,
      "velocity": 97,
      "chip": "ym2612"
    },
    {
      "channel": 0,
      "note": 60,
      "start": 19.8502,
      "duration": 0.1831,
      "velocity": 96,
      "chip": "ym2612"
    },
    {
      "channel": 1,
      "note": 65,
      "start": 19.8507,
      "duration": 0.0012,
      "velocity": 111,
      "chip": "ym2612"
    },
    {
      "channel": 5,
      "note": 60,
      "start": 19.8515,
      "duration": 0.7165,
      "velocity": 97,
      "chip": "ym2612"
    },
    {
      "channel": 1,
      "note": 64,
      "start": 19.852,
      "duration": 0.1819,
      "velocity": 111,
      "chip": "ym2612"
    },
    {
      "channel": 0,
      "note": 48,
      "start": 20.0335,
      "duration": 0.1831,
      "velocity": 96,
      "chip": "ym2612"
    },
    {
      "channel": 1,
      "note": 64,
      "start": 20.0341,
      "duration": 0.0006,
      "velocity": 111,
      "chip": "ym2612"
    },
    {
      "channel": 1,
      "note": 63,
      "start": 20.0347,
      "duration": 0.0149,
      "velocity": 111,
      "chip": "ym2612"
    },
    {
      "channel": 1,
      "note": 62,
      "start": 20.0497,
      "duration": 0.0167,
      "velocity": 111,
      "chip": "ym2612"
    },
    {
      "channel": 1,
      "note": 60,
      "start": 20.0663,
      "duration": 0.0167,
      "velocity": 111,
      "chip": "ym2612"
    },
    {
      "channel": 1,
      "note": 60,
      "start": 20.083,
      "duration": 0.1342,
      "velocity": 111,
      "chip": "ym2612"
    },
    {
      "channel": 0,
      "note": 50,
      "start": 20.2168,
      "duration": 0.3499,
      "velocity": 96,
      "chip": "ym2612"
    },
    {
      "channel": 1,
      "note": 60,
      "start": 20.2174,
      "duration": 0.0011,
      "velocity": 111,
      "chip": "ym2612"
    },
    {
      "channel": 3,
      "note": 54,
      "start": 20.218,
      "duration": 0.5332,
      "velocity": 97,
      "chip": "ym2612"
    },
    {
      "channel": 1,
      "note": 61,
      "start": 20.2185,
      "duration": 0.0144,
      "velocity": 111,
      "chip": "ym2612"
    },
    {
      "channel": 1,
      "note": 62,
      "start": 20.233,
      "duration": 2.8511,
      "velocity": 111,
      "chip": "ym2612"
    },
    {
      "channel": 4,
      "note": 57,
      "start": 20.3838,
      "duration": 0.7337,
      "velocity": 97,
      "chip": "ym2612"
    },
    {
      "channel": 0,
      "note": 62,
      "start": 20.5668,
      "duration": 0.1832,
      "velocity": 96,
      "chip": "ym2612"
    },
    {
      "channel": 2,
      "note": 65,
      "start": 20.5675,
      "duration": 0.0012,
      "velocity": 111,
      "chip": "ym2612"
    },
    {
      "channel": 5,
      "note": 62,
      "start": 20.5682,
      "duration": 0.716,
      "velocity": 97,
      "chip": "ym2612"
    },
    {
      "channel": 2,
      "note": 64,
      "start": 20.5687,
      "duration": 0.1819,
      "velocity": 111,
      "chip": "ym2612"
    },
    {
      "channel": 0,
      "note": 50,
      "start": 20.7502,
      "duration": 0.3665,
      "velocity": 96,
      "chip": "ym2612"
    },
    {
      "channel": 2,
      "note": 64,
      "start": 20.7508,
      "duration": 0.0012,
      "velocity": 111,
      "chip": "ym2612"
    },
    {
      "channel": 3,
      "note": 66,
      "start": 20.7514,
      "duration": 0.8992,
      "velocity": 97,
      "chip": "ym2612"
    },
    {
      "channel": 2,
      "note": 63,
      "start": 20.752,
      "duration": 0.0144,
      "velocity": 111,
      "chip": "ym2612"
    },
    {
      "channel": 2,
      "note": 62,
      "start": 20.7664,
      "duration": 0.0167,
      "velocity": 111,
      "chip": "ym2612"
    },
    {
      "channel": 2,
      "note": 60,
      "start": 20.7831,
      "duration": 0.0333,
      "velocity": 111,
      "chip": "ym2612"
    },
    {
      "channel": 2,
      "note": 60,
      "start": 20.8165,
      "duration": 0.117,
      "velocity": 111,
      "chip": "ym2612"
    },
    {
      "channel": 2,
      "note": 60,
      "start": 20.9336,
      "duration": 0.0006,
      "velocity": 111,
      "chip": "ym2612"
    },
    {
      "channel": 2,
      "note": 61,
      "start": 20.9343,
      "duration": 0.0155,
      "velocity": 111,
      "chip": "ym2612"
    },
    {
      "channel": 2,
      "note": 62,
      "start": 20.9498,
      "duration": 2.8671,
      "velocity": 111,
      "chip": "ym2612"
    },
    {
      "channel": 0,
      "note": 50,
      "start": 21.1168,
      "duration": 0.1665,
      "velocity": 96,
      "chip": "ym2612"
    },
    {
      "channel": 4,
      "note": 62,
      "start": 21.1176,
      "duration": 0.716,
      "velocity": 97,
      "chip": "ym2612"
    },
    {
      "channel": 0,
      "note": 62,
      "start": 21.2835,
      "duration": 0.1831,
      "velocity": 96,
      "chip": "ym2612"
    },
    {
      "channel": 5,
      "note": 57,
      "start": 21.2843,
      "duration": 0.7333,
      "velocity": 97,
      "chip": "ym2612"
    },
    {
      "channel": 0,
      "note": 50,
      "start": 21.4668,
      "duration": 0.1831,
      "velocity": 96,
      "chip": "ym2612"
    },
    {
      "channel": 0,
      "note": 50,
      "start": 21.6501,
      "duration": 0.3666,
      "velocity": 96,
      "chip": "ym2612"
    },
    {
      "channel": 3,
      "note": 54,
      "start": 21.6508,
      "duration": 0.5333,
      "velocity": 97,
      "chip": "ym2612"
    },
    {
      "channel": 4,
      "note": 57,
      "start": 21.8338,
      "duration": 0.7169,
      "velocity": 97,
      "chip": "ym2612"
    },
    {
      "channel": 0,
      "note": 62,
      "start": 22.0169,
      "duration": 0.1665,
      "velocity": 96,
      "chip": "ym2612"
    },
    {
      "channel": 5,
      "note": 62,
      "start": 22.0177,
      "duration": 0.7164,
      "velocity": 97,
      "chip": "ym2612"
    },
    {
      "channel": 0,
      "note": 50,
      "start": 22.1836,
      "duration": 0.3663,
      "velocity": 96,
      "chip": "ym2612"
    },
    {
      "channel": 3,
      "note": 66,
      "start": 22.1842,
      "duration": 0.9006,
      "velocity": 97,
      "chip": "ym2612"
    },
    {
      "channel": 0,
      "note": 50,
      "start": 22.5501,
      "duration": 0.1832,
      "velocity": 96,
      "chip": "ym2612"
    },
    {
      "channel": 4,
      "note": 62,
      "start": 22.5509,
      "duration": 0.7161,
      "velocity": 97,
      "chip": "ym2612"
    },
    {
      "channel": 0,
      "note": 62,
      "start": 22.7335,
      "duration": 0.1831,
      "velocity": 96,
      "chip": "ym2612"
    },
    {
      "channel": 5,
      "note": 57,
      "start": 22.7343,
      "duration": 0.7166,
      "velocity": 97,
      "chip": "ym2612"
    },
    {
      "channel": 0,
      "note": 50,
      "start": 22.9168,
      "duration": 0.1667,
      "velocity": 96,
      "chip": "ym2612"
    },
    {
      "channel": 0,
      "note": 55,
      "start": 23.0836,
      "duration": 0.3663,
      "velocity": 96,
      "chip": "ym2612"
    },
    {
      "channel": 1,
      "note": 74,
      "start": 23.0843,
      "duration": 0.8996,
      "velocity": 111,
      "chip": "ym2612"
    },
    {
      "channel": 3,
      "note": 55,
      "start": 23.085,
      "duration": 0.5491,
      "velocity": 97,
      "chip": "ym2612"
    },
    {
      "channel": 4,
      "note": 59,
      "start": 23.2672,
      "duration": 0.7174,
      "velocity": 97,
      "chip": "ym2612"
    },
    {
      "channel": 0,
      "note": 67,
      "start": 23.4502,
      "duration": 0.1832,
      "velocity": 96,
      "chip": "ym2612"
    },
    {
      "channel": 5,
      "note": 62,
      "start": 23.4511,
      "duration": 0.7169,
      "velocity": 97,
      "chip": "ym2612"
    },
    {
      "channel": 0,
      "note": 55,
      "start": 23.6335,
      "duration": 0.3498,
      "velocity": 96,
      "chip": "ym2612"
    },
    {
      "channel": 3,
      "note": 67,
      "start": 23.6343,
      "duration": 0.8998,
      "velocity": 97,
      "chip": "ym2612"
    },
    {
      "channel": 2,
      "note": 74,
      "start": 23.817,
      "duration": 0.8998,
      "velocity": 111,
      "chip": "ym2612"
    },
    {
      "channel": 0,
      "note": 55,
      "start": 23.9835,
      "duration": 0.1831,
      "velocity": 96,
      "chip": "ym2612"
    },
    {
      "channel": 1,
      "note": 74,
      "start": 23.9841,
      "duration": 0.0011,
      "velocity": 111,
      "chip": "ym2612"
    },
    {
      "channel": 4,
      "note": 62,
      "start": 23.9848,
      "duration": 0.7326,
      "velocity": 97,
      "chip": "ym2612"
    },
    {
      "channel": 1,
      "note": 73,
      "start": 23.9852,
      "duration": 0.0311,
      "velocity": 111,
      "chip": "ym2612"
    },
    {
      "channel": 1,
      "note": 71,
      "start": 24.0163,
      "duration": 0.0167,
      "velocity": 111,
      "chip": "ym2612"
    },
    {
      "channel": 1,
      "note": 71,
      "start": 24.033,
      "duration": 0.1342,
      "velocity": 111,
      "chip": "ym2612"
    },
    {
      "channel": 0,
      "note": 67,
      "start": 24.1668,
      "duration": 0.1831,
      "velocity": 96,
      "chip": "ym2612"
    },
    {
      "channel": 1,
      "note": 71,
      "start": 24.1674,
      "duration": 0.0011,
      "velocity": 111,
      "chip": "ym2612"
    },
    {
      "channel": 5,
      "note": 59,
      "start": 24.1682,
      "duration": 0.7165,
      "velocity": 97,
      "chip": "ym2612"
    },
    {
      "channel": 1,
      "note": 72,
      "start": 24.1685,
      "duration": 0.182,
      "velocity": 111,
      "chip": "ym2612"
    },
    {
      "channel": 0,
      "note": 55,
      "start": 24.3502,
      "duration": 0.1832,
      "velocity": 96,
      "chip": "ym2612"
    },
    {
      "channel": 1,
      "note": 72,
      "start": 24.3507,
      "duration": 0.0006,
      "velocity": 111,
      "chip": "ym2612"
    },
    {
      "channel": 1,
      "note": 73,
      "start": 24.3514,
      "duration": 0.0149,
      "velocity": 111,
      "chip": "ym2612"
    },
    {
      "channel": 1,
      "note": 74,
      "start": 24.3663,
      "duration": 1.0676,
      "velocity": 111,
      "chip": "ym2612"
    },
    {
      "channel": 0,
      "note": 53,
      "start": 24.5335,
      "duration": 0.3498,
      "velocity": 96,
      "chip": "ym2612"
    },
    {
      "channel": 3,
      "note": 55,
      "start": 24.5342,
      "duration": 0.5337,
      "velocity": 97,
      "chip": "ym2612"
    },
    {
      "channel": 2,
      "note": 74,
      "start": 24.717,
      "duration": 0.0012,
      "velocity": 111,
      "chip": "ym2612"
    },
    {
      "channel": 4,
      "note": 59,
      "start": 24.7176,
      "duration": 0.7169,
      "velocity": 97,
      "chip": "ym2612"
    },
    {
      "channel": 2,
      "note": 73,
      "start": 24.7181,
      "duration": 0.015,
      "velocity": 111,
      "chip": "ym2612"
    },
    {
      "channel": 2,
      "note": 71,
      "start": 24.7331,
      "duration": 0.0167,
      "velocity": 111,
      "chip": "ym2612"
    },
    {
      "channel": 2,
      "note": 71,
      "start": 24.7498,
      "duration": 0.1341,
      "velocity": 111,
      "chip": "ym2612"
    },
    {
      "channel": 0,
      "note": 65,
      "start": 24.8835,
      "duration": 0.1831,
      "velocity": 96,
      "chip": "ym2612"
    },
    {
      "channel": 2,
      "note": 71,
      "start": 24.8841,
      "duration": 0.0012,
      "velocity": 111,
      "chip": "ym2612"
    },
    {
      "channel": 5,
      "note": 62,
      "start": 24.8849,
      "duration": 0.7331,
      "velocity": 97,
      "chip": "ym2612"
    },
    {
      "channel": 2,
      "note": 72,
      "start": 24.8854,
      "duration": 0.1819,
      "velocity": 111,
      "chip": "ym2612"
    },
    {
      "channel": 0,
      "note": 53,
      "start": 25.0668,
      "duration": 0.3665,
      "velocity": 96,
      "chip": "ym2612"
    },
    {
      "channel": 2,
      "note": 72,
      "start": 25.0675,
      "duration": 0.0011,
      "velocity": 111,
      "chip": "ym2612"
    },
    {
      "channel": 3,
      "note": 67,
      "start": 25.068,
      "duration": 0.8993,
      "velocity": 97,
      "chip": "ym2612"
    },
    {
      "channel": 2,
      "note": 73,
      "start": 25.0686,
      "duration": 0.0145,
      "velocity": 111,
      "chip": "ym2612"
    },
    {
      "channel": 2,
      "note": 74,
      "start": 25.0831,
      "duration": 1.067,
      "velocity": 111,
      "chip": "ym2612"
    },
    {
      "channel": 0,
      "note": 53,
      "start": 25.4335,
      "duration": 0.1831,
      "velocity": 96,
      "chip": "ym2612"
    },
    {
      "channel": 1,
      "note": 74,
      "start": 25.434,
      "duration": 0.0012,
      "velocity": 111,
      "chip": "ym2612"
    },
    {
      "channel": 4,
      "note": 62,
      "start": 25.4347,
      "duration": 0.716,
      "velocity": 97,
      "chip": "ym2612"
    },
    {
      "channel": 1,
      "note": 73,
      "start": 25.4352,
      "duration": 0.0145,
      "velocity": 111,
      "chip": "ym2612"
    },
    {
      "channel": 1,
      "note": 71,
      "start": 25.4497,
      "duration": 0.0167,
      "velocity": 111,
      "chip": "ym2612"
    },
    {
      "channel": 1,
      "note": 71,
      "start": 25.4663,
      "duration": 0.1509,
      "velocity": 111,
      "chip": "ym2612"
    },
    {
      "channel": 0,
      "note": 65,
      "start": 25.6168,
      "duration": 0.1665,
      "velocity": 96,
      "chip": "ym2612"
    },
    {
      "channel": 1,
      "note": 71,
      "start": 25.6174,
      "duration": 0.0011,
      "velocity": 111,
      "chip": "ym2612"
    },
    {
      "channel": 5,
      "note": 59,
      "start": 25.6182,
      "duration": 0.7165,
      "velocity": 97,
      "chip": "ym2612"
    },
    {
      "channel": 1,
      "note": 72,
      "start": 25.6185,
      "duration": 0.1653,
      "velocity": 111,
      "chip": "ym2612"
    },
    {
      "channel": 0,
      "note": 53,
      "start": 25.7835,
      "duration": 0.1831,
      "velocity": 96,
      "chip": "ym2612"
    },
    {
      "channel": 1,
      "note": 72,
      "start": 25.7841,
      "duration": 0.0006,
      "velocity": 111,
      "chip": "ym2612"
    },
    {
      "channel": 1,
      "note": 73,
      "start": 25.7847,
      "duration": 0.0316,
      "velocity": 111,
      "chip": "ym2612"
    },
    {
      "channel": 1,
      "note": 74,
      "start": 25.8163,
      "duration": 1.0509,
      "velocity": 111,
      "chip": "ym2612"
    },
    {
      "channel": 0,
      "note": 52,
      "start": 25.9668,
      "duration": 0.3665,
      "velocity": 96,
      "chip": "ym2612"
    },
    {
      "channel": 3,
      "note": 55,
      "start": 25.9676,
      "duration": 0.5503,
      "velocity": 97,
      "chip": "ym2612"
    },
    {
      "channel": 2,
      "note": 74,
      "start": 26.1503,
      "duration": 0.0012,
      "velocity": 111,
      "chip": "ym2612"
    },
    {
      "channel": 4,
      "note": 59,
      "start": 26.1509,
      "duration": 0.7169,
      "velocity": 97,
      "chip": "ym2612"
    },
    {
      "channel": 2,
      "note": 73,
      "start": 26.1515,
      "duration": 0.0149,
      "velocity": 111,
      "chip": "ym2612"
    },
    {
      "channel": 2,
      "note": 71,
      "start": 26.1665,
      "duration": 0.0167,
      "velocity": 111,
      "chip": "ym2612"
    },
    {
      "channel": 2,
      "note": 71,
      "start": 26.1831,
      "duration": 0.1508,
      "velocity": 111,
      "chip": "ym2612"
    },
    {
      "channel": 0,
      "note": 64,
      "start": 26.3335,
      "duration": 0.1831,
      "velocity": 96,
      "chip": "ym2612"
    },
    {
      "channel": 2,
      "note": 71,
      "start": 26.3341,
      "duration": 0.0012,
      "velocity": 111,
      "chip": "ym2612"
    },
    {
      "channel": 5,
      "note": 62,
      "start": 26.3349,
      "duration": 0.7165,
      "velocity": 97,
      "chip": "ym2612"
    },
    {
      "channel": 2,
      "note": 72,
      "start": 26.3354,
      "duration": 0.1819,
      "velocity": 111,
      "chip": "ym2612"
    },
    {
      "channel": 0,
      "note": 52,
      "start": 26.5168,
      "duration": 0.3498,
      "velocity": 96,
      "chip": "ym2612"
    },
    {
      "channel": 2,
      "note": 72,
      "start": 26.5175,
      "duration": 0.0011,
      "velocity": 111,
      "chip": "ym2612"
    },
    {
      "channel": 3,
      "note": 67,
      "start": 26.518,
      "duration": 0.8993,
      "velocity": 97,
      "chip": "ym2612"
    },
    {
      "channel": 2,
      "note": 73,
      "start": 26.5186,
      "duration": 0.0144,
      "velocity": 111,
      "chip": "ym2612"
    },
    {
      "channel": 2,
      "note": 74,
      "start": 26.5331,
      "duration": 1.0504,
      "velocity": 111,
      "chip": "ym2612"
    },
    {
      "channel": 0,
      "note": 52,
      "start": 26.8668,
      "duration": 0.1832,
      "velocity": 96,
      "chip": "ym2612"
    },
    {
      "channel": 1,
      "note": 74,
      "start": 26.8673,
      "duration": 0.0012,
      "velocity": 111,
      "chip": "ym2612"
    },
    {
      "channel": 4,
      "note": 62,
      "start": 26.868,
      "duration": 0.716,
      "velocity": 97,
      "chip": "ym2612"
    },
    {
      "channel": 1,
      "note": 75,
      "start": 26.8685,
      "duration": 0.0146,
      "velocity": 111,
      "chip": "ym2612"
    },
    {
      "channel": 1,
      "note": 76,
      "start": 26.8831,
      "duration": 0.1675,
      "velocity": 111,
      "chip": "ym2612"
    },
    {
      "channel": 0,
      "note": 64,
      "start": 27.0502,
      "duration": 0.1831,
      "velocity": 96,
      "chip": "ym2612"
    },
    {
      "channel": 1,
      "note": 76,
      "start": 27.0507,
      "duration": 0.0012,
      "velocity": 111,
      "chip": "ym2612"
    },
    {
      "channel": 5,
      "note": 59,
      "start": 27.0515,
      "duration": 0.7165,
      "velocity": 97,
      "chip": "ym2612"
    },
    {
      "channel": 1,
      "note": 75,
      "start": 27.052,
      "duration": 0.0144,
      "velocity": 111,
      "chip": "ym2612"
    },
    {
      "channel": 1,
      "note": 74,
      "start": 27.0663,
      "duration": 0.0167,
      "velocity": 111,
      "chip": "ym2612"
    },
    {
      "channel": 1,
      "note": 72,
      "start": 27.083,
      "duration": 0.0333,
      "velocity": 111,
      "chip": "ym2612"
    },
    {
      "channel": 1,
      "note": 72,
      "start": 27.1163,
      "duration": 0.1176,
      "velocity": 111,
      "chip": "ym2612"
    },
    {
      "channel": 0,
      "note": 52,
      "start": 27.2335,
      "duration": 0.1831,
      "velocity": 96,
      "chip": "ym2612"
    },
    {
      "channel": 1,
      "note": 72,
      "start": 27.2341,
      "duration": 0.0006,
      "velocity": 111,
      "chip": "ym2612"
    },
    {
      "channel": 1,
      "note": 73,
      "start": 27.2347,
      "duration": 0.0149,
      "velocity": 111,
      "chip": "ym2612"
    },
    {
      "channel": 1,
      "note": 75,
      "start": 27.2497,
      "duration": 0.0167,
      "velocity": 111,
      "chip": "ym2612"
    },
    {
      "channel": 1,
      "note": 75,
      "start": 27.2664,
      "duration": 0.867,
      "velocity": 111,
      "chip": "ym2612"
    },
    {
      "channel": 0,
      "note": 51,
      "start": 27.4168,
      "duration": 0.3499,
      "velocity": 96,
      "chip": "ym2612"
    },
    {
      "channel": 3,
      "note": 55,
      "start": 27.4176,
      "duration": 0.5337,
      "velocity": 97,
      "chip": "ym2612"
    },
    {
      "channel": 2,
      "note": 74,
      "start": 27.5836,
      "duration": 0.0012,
      "velocity": 111,
      "chip": "ym2612"
    },
    {
      "channel": 4,
      "note": 58,
      "start": 27.5843,
      "duration": 0.7332,
      "velocity": 97,
      "chip": "ym2612"
    },
    {
      "channel": 2,
      "note": 75,
      "start": 27.5848,
      "duration": 0.0316,
      "velocity": 111,
      "chip": "ym2612"
    },
    {
      "channel": 2,
      "note": 76,
      "start": 27.6164,
      "duration": 0.1509,
      "velocity": 111,
      "chip": "ym2612"
    },
    {
      "channel": 0,
      "note": 63,
      "start": 27.7668,
      "duration": 0.1831,
      "velocity": 96,
      "chip": "ym2612"
    },
    {
      "channel": 2,
      "note": 76,
      "start": 27.7675,
      "duration": 0.0012,
      "velocity": 111,
      "chip": "ym2612"
    },
    {
      "channel": 5,
      "note": 63,
      "start": 27.7682,
      "duration": 0.7165,
      "velocity": 97,
      "chip": "ym2612"
    },
    {
      "channel": 2,
      "note": 75,
      "start": 27.7687,
      "duration": 0.0144,
      "velocity": 111,
      "chip": "ym2612"
    },
    {
      "channel": 2,
      "note": 74,
      "start": 27.7831,
      "duration": 0.0334,
      "velocity": 111,
      "chip": "ym2612"
    },
    {
      "channel": 2,
      "note": 72,
      "start": 27.8165,
      "duration": 0.0167,
      "velocity": 111,
      "chip": "ym2612"
    },
    {
      "channel": 2,
      "note": 72,
      "start": 27.8331,
      "duration": 0.1175,
      "velocity": 111,
      "chip": "ym2612"
    },
    {
      "channel": 0,
      "note": 51,
      "start": 27.9502,
      "duration": 0.3665,
      "velocity": 96,
      "chip": "ym2612"
    },
    {
      "channel": 2,
      "note": 72,
      "start": 27.9508,
      "duration": 0.0011,
      "velocity": 111,
      "chip": "ym2612"
    },
    {
      "channel": 3,
      "note": 67,
      "start": 27.9514,
      "duration": 0.9003,
      "velocity": 97,
      "chip": "ym2612"
    },
    {
      "channel": 2,
      "note": 73,
      "start": 27.952,
      "duration": 0.0144,
      "velocity": 111,
      "chip": "ym2612"
    },
    {
      "channel": 2,
      "note": 75,
      "start": 27.9664,
      "duration": 0.0167,
      "velocity": 111,
      "chip": "ym2612"
    },
    {
      "channel": 2,
      "note": 75,
      "start": 27.9831,
      "duration": 0.8681,
      "velocity": 111,
      "chip": "ym2612"
    },
    {
      "channel": 1,
      "note": 75,
      "start": 28.1336,
      "duration": 0.0007,
      "velocity": 111,
      "chip": "ym2612"
    },
    {
      "channel": 1,
      "note": 74,
      "start": 28.1342,
      "duration": 0.0154,
      "velocity": 111,
      "chip": "ym2612"
    },
    {
      "channel": 1,
      "note": 72,
      "start": 28.1497,
      "duration": 0.0167,
      "velocity": 111,
      "chip": "ym2612"
    },
    {
      "channel": 1,
      "note": 71,
      "start": 28.1663,
      "duration": 0.0167,
      "velocity": 111,
      "chip": "ym2612"
    },
    {
      "channel": 1,
      "note": 69,
      "start": 28.183,
      "duration": 0.0333,
      "velocity": 111,
      "chip": "ym2612"
    },
    {
      "channel": 1,
      "note": 68,
      "start": 28.2163,
      "duration": 0.0167,
      "velocity": 111,
      "chip": "ym2612"
    },
    {
      "channel": 1,
      "note": 67,
      "start": 28.233,
      "duration": 0.2509,
      "velocity": 111,
      "chip": "ym2612"
    },
    {
      "channel": 0,
      "note": 51,
      "start": 28.3168,
      "duration": 0.1665,
      "velocity": 96,
      "chip": "ym2612"
    },
    {
      "channel": 4,
      "note": 63,
      "start": 28.3176,
      "duration": 0.716,
      "velocity": 97,
      "chip": "ym2612"
    },
    {
      "channel": 0,
      "note": 63,
      "start": 28.4835,
      "duration": 0.1831,
      "velocity": 96,
      "chip": "ym2612"
    },
    {
      "channel": 1,
      "note": 67,
      "start": 28.4841,
      "duration": 0.0011,
      "velocity": 111,
      "chip": "ym2612"
    },
    {
      "channel": 5,
      "note": 58,
      "start": 28.4849,
      "duration": 0.7337,
      "velocity": 97,
      "chip": "ym2612"
    },
    {
      "channel": 1,
      "note": 68,
      "start": 28.4852,
      "duration": 0.0311,
      "velocity": 111,
      "chip": "ym2612"
    },
    {
      "channel": 1,
      "note": 69,
      "start": 28.5163,
      "duration": 0.3342,
      "velocity": 111,
      "chip": "ym2612"
    },
    {
      "channel": 0,
      "note": 51,
      "start": 28.6668,
      "duration": 0.1832,
      "velocity": 96,
      "chip": "ym2612"
    },
    {
      "channel": 0,
      "note": 55,
      "start": 28.8502,
      "duration": 0.3665,
      "velocity": 96,
      "chip": "ym2612"
    },
    {
      "channel": 1,
      "note": 69,
      "start": 28.8507,
      "duration": 0.0017,
      "velocity": 111,
      "chip": "ym2612"
    },
    {
      "channel": 2,
      "note": 75,
      "start": 28.8513,
      "duration": 0.0014,
      "velocity": 111,
      "chip": "ym2612"
    },
    {
      "channel": 3,
      "note": 55,
      "start": 28.8519,
      "duration": 0.5327,
      "velocity": 97,
      "chip": "ym2612"
    },
    {
      "channel": 1,
      "note": 71,
      "start": 28.8524,
      "duration": 0.0139,
      "velocity": 111,
      "chip": "ym2612"
    },
    {
      "channel": 2,
      "note": 74,
      "start": 28.8527,
      "duration": 0.014,
      "velocity": 111,
      "chip": "ym2612"
    },
    {
      "channel": 1,
      "note": 71,
      "start": 28.8663,
      "duration": 0.351,
      "velocity": 111,
      "chip": "ym2612"
    },
    {
      "channel": 2,
      "note": 72,
      "start": 28.8667,
      "duration": 0.0163,
      "velocity": 111,
      "chip": "ym2612"
    },
    {
      "channel": 2,
      "note": 71,
      "start": 28.8831,
      "duration": 0.0333,
      "velocity": 111,
      "chip": "ym2612"
    },
    {
      "channel": 2,
      "note": 69,
      "start": 28.9164,
      "duration": 0.0167,
      "velocity": 111,
      "chip": "ym2612"
    },
    {
      "channel": 2,
      "note": 68,
      "start": 28.9331,
      "duration": 0.0167,
      "velocity": 111,
      "chip": "ym2612"
    },
    {
      "channel": 2,
      "note": 67,
      "start": 28.9497,
      "duration": 0.2681,
      "velocity": 111,
      "chip": "ym2612"
    },
    {
      "channel": 4,
      "note": 59,
      "start": 29.0338,
      "duration": 0.7175,
      "velocity": 97,
      "chip": "ym2612"
    },
    {
      "channel": 0,
      "note": 67,
      "start": 29.2169,
      "duration": 0.1665,
      "velocity": 96,
      "chip": "ym2612"
    },
    {
      "channel": 1,
      "note": 71,
      "start": 29.2174,
      "duration": 0.0017,
      "velocity": 111,
      "chip": "ym2612"
    },
    {
      "channel": 2,
      "note": 67,
      "start": 29.218,
      "duration": 0.0015,
      "velocity": 111,
      "chip": "ym2612"
    },
    {
      "channel": 5,
      "note": 62,
      "start": 29.2187,
      "duration": 0.7165,
      "velocity": 97,
      "chip": "ym2612"
    },
    {
      "channel": 1,
      "note": 72,
      "start": 29.2191,
      "duration": 0.1648,
      "velocity": 111,
      "chip": "ym2612"
    },
    {
      "channel": 2,
      "note": 68,
      "start": 29.2195,
      "duration": 0.0137,
      "velocity": 111,
      "chip": "ym2612"
    },
    {
      "channel": 2,
      "note": 69,
      "start": 29.2331,
      "duration": 0.3337,
      "velocity": 111,
      "chip": "ym2612"
    },
    {
      "channel": 0,
      "note": 55,
      "start": 29.3836,
      "duration": 0.3664,
      "velocity": 96,
      "chip": "ym2612"
    },
    {
      "channel": 1,
      "note": 72,
      "start": 29.3841,
      "duration": 0.0012,
      "velocity": 111,
      "chip": "ym2612"
    },
    {
      "channel": 3,
      "note": 67,
      "start": 29.3847,
      "duration": 0.8998,
      "velocity": 97,
      "chip": "ym2612"
    },
    {
      "channel": 1,
      "note": 71,
      "start": 29.3853,
      "duration": 0.3653,
      "velocity": 111,
      "chip": "ym2612"
    },
    {
      "channel": 2,
      "note": 69,
      "start": 29.567,
      "duration": 0.0006,
      "velocity": 111,
      "chip": "ym2612"
    },
    {
      "channel": 2,
      "note": 71,
      "start": 29.5676,
      "duration": 0.0155,
      "velocity": 111,
      "chip": "ym2612"
    },
    {
      "channel": 2,
      "note": 71,
      "start": 29.5831,
      "duration": 0.3514,
      "velocity": 111,
      "chip": "ym2612"
    },
    {
      "channel": 0,
      "note": 55,
      "start": 29.7502,
      "duration": 0.1832,
      "velocity": 96,
      "chip": "ym2612"
    },
    {
      "channel": 1,
      "note": 71,
      "start": 29.7507,
      "duration": 0.0011,
      "velocity": 111,
      "chip": "ym2612"
    },
    {
      "channel": 4,
      "note": 62,
      "start": 29.7515,
      "duration": 0.716,
      "velocity": 97,
      "chip": "ym2612"
    },
    {
      "channel": 1,
      "note": 69,
      "start": 29.7519,
      "duration": 0.0144,
      "velocity": 111,
      "chip": "ym2612"
    },
    {
      "channel": 1,
      "note": 68,
      "start": 29.7663,
      "duration": 0.0167,
      "velocity": 111,
      "chip": "ym2612"
    },
    {
      "channel": 1,
      "note": 67,
      "start": 29.7831,
      "duration": 0.1509,
      "velocity": 111,
      "chip": "ym2612"
    },
    {
      "channel": 0,
      "note": 67,
      "start": 29.9336,
      "duration": 0.1831,
      "velocity": 96,
      "chip": "ym2612"
    },
    {
      "channel": 1,
      "note": 67,
      "start": 29.9341,
      "duration": 0.0017,
      "velocity": 111,
      "chip": "ym2612"
    },
    {
      "channel": 2,
      "note": 71,
      "start": 29.9346,
      "duration": 0.0015,
      "velocity": 111,
      "chip": "ym2612"
    },
    {
      "channel": 5,
      "note": 59,
      "start": 29.9354,
      "duration": 0.716,
      "velocity": 97,
      "chip": "ym2612"
    },
    {
      "channel": 1,
      "note": 66,
      "start": 29.9358,
      "duration": 0.0139,
      "velocity": 111,
      "chip": "ym2612"
    },
    {
      "channel": 2,
      "note": 72,
      "start": 29.9361,
      "duration": 0.1812,
      "velocity": 111,
      "chip": "ym2612"
    },
    {
      "channel": 1,
      "note": 65,
      "start": 29.9497,
      "duration": 0.0167,
      "velocity": 111,
      "chip": "ym2612"
    },
    {
      "channel": 1,
      "note": 64,
      "start": 29.9663,
      "duration": 0.0167,
      "velocity": 111,
      "chip": "ym2612"
    },
    {
      "channel": 1,
      "note": 63,
      "start": 29.983,
      "duration": 0.0333,
      "velocity": 111,
      "chip": "ym2612"
    },
    {
      "channel": 1,
      "note": 62,
      "start": 30.0163,
      "duration": 0.2676,
      "velocity": 111,
      "chip": "ym2612"
    },
    {
      "channel": 0,
      "note": 55,
      "start": 30.1168,
      "duration": 0.1665,
      "velocity": 96,
      "chip": "ym2612"
    },
    {
      "channel": 2,
      "note": 72,
      "start": 30.1175,
      "duration": 0.0006,
      "velocity": 111,
      "chip": "ym2612"
    },
    {
      "channel": 2,
      "note": 71,
      "start": 30.1181,
      "duration": 0.3487,
      "velocity": 111,
      "chip": "ym2612"
    },
    {
      "channel": 0,
      "note": 48,
      "start": 30.2835,
      "duration": 0.3665,
      "velocity": 96,
      "chip": "ym2612"
    },
    {
      "channel": 1,
      "note": 62,
      "start": 30.2841,
      "duration": 0.0011,
      "velocity": 111,
      "chip": "ym2612"
    },
    {
      "channel": 3,
      "note": 55,
      "start": 30.2847,
      "duration": 0.5493,
      "velocity": 97,
      "chip": "ym2612"
    },
    {
      "channel": 1,
      "note": 63,
      "start": 30.2852,
      "duration": 0.0311,
      "velocity": 111,
      "chip": "ym2612"
    },
    {
      "channel": 1,
      "note": 64,
      "start": 30.3163,
      "duration": 0.0167,
      "velocity": 111,
      "chip": "ym2612"
    },
    {
      "channel": 1,
      "note": 65,
      "start": 30.333,
      "duration": 1.0342,
      "velocity": 111,
      "chip": "ym2612"
    },
    {
      "channel": 2,
      "note": 71,
      "start": 30.467,
      "duration": 0.0012,
      "velocity": 111,
      "chip": "ym2612"
    },
    {
      "channel": 4,
      "note": 60,
      "start": 30.4676,
      "duration": 0.7165,
      "velocity": 97,
      "chip": "ym2612"
    },
    {
      "channel": 2,
      "note": 69,
      "start": 30.4682,
      "duration": 0.0149,
      "velocity": 111,
      "chip": "ym2612"
    },
    {
      "channel": 2,
      "note": 68,
      "start": 30.4831,
      "duration": 0.0334,
      "velocity": 111,
      "chip": "ym2612"
    },
    {
      "channel": 2,
      "note": 67,
      "start": 30.5165,
      "duration": 0.1341,
      "velocity": 111,
      "chip": "ym2612"
    },
    {
      "channel": 0,
      "note": 60,
      "start": 30.6502,
      "duration": 0.1831,
      "velocity": 96,
      "chip": "ym2612"
    },
    {
      "channel": 2,
      "note": 67,
      "start": 30.6508,
      "duration": 0.0012,
      "velocity": 111,
      "chip": "ym2612"
    },
    {
      "channel": 5,
      "note": 64,
      "start": 30.6515,
      "duration": 0.7165,
      "velocity": 97,
      "chip": "ym2612"
    },
    {
      "channel": 2,
      "note": 66,
      "start": 30.652,
      "duration": 0.0144,
      "velocity": 111,
      "chip": "ym2612"
    },
    {
      "channel": 2,
      "note": 65,
      "start": 30.6664,
      "duration": 0.0167,
      "velocity": 111,
      "chip": "ym2612"
    },
    {
      "channel": 2,
      "note": 64,
      "start": 30.6831,
      "duration": 0.0333,
      "velocity": 111,
      "chip": "ym2612"
    },
    {
      "channel": 2,
      "note": 63,
      "start": 30.7165,
      "duration": 0.0167,
      "velocity": 111,
      "chip": "ym2612"
    },
    {
      "channel": 2,
      "note": 62,
      "start": 30.7331,
      "duration": 0.2837,
      "velocity": 111,
      "chip": "ym2612"
    },
    {
      "channel": 0,
      "note": 48,
      "start": 30.8335,
      "duration": 0.3498,
      "velocity": 96,
      "chip": "ym2612"
    },
    {
      "channel": 3,
      "note": 67,
      "start": 30.8342,
      "duration": 0.9002,
      "velocity": 97,
      "chip": "ym2612"
    },
    {
      "channel": 2,
      "note": 62,
      "start": 31.017,
      "duration": 0.0006,
      "velocity": 111,
      "chip": "ym2612"
    },
    {
      "channel": 2,
      "note": 63,
      "start": 31.0176,
      "duration": 0.0155,
      "velocity": 111,
      "chip": "ym2612"
    },
    {
      "channel": 2,
      "note": 64,
      "start": 31.0331,
      "duration": 0.0167,
      "velocity": 111,
      "chip": "ym2612"
    },
    {
      "channel": 2,
      "note": 65,
      "start": 31.0497,
      "duration": 1.0342,
      "velocity": 111,
      "chip": "ym2612"
    },
    {
      "channel": 0,
      "note": 48,
      "start": 31.1835,
      "duration": 0.1831,
      "velocity": 96,
      "chip": "ym2612"
    },
    {
      "channel": 4,
      "note": 64,
      "start": 31.1843,
      "duration": 0.7326,
      "velocity": 97,
      "chip": "ym2612"
    },
    {
      "channel": 0,
      "note": 60,
      "start": 31.3668,
      "duration": 0.1831,
      "velocity": 96,
      "chip": "ym2612"
    },
    {
      "channel": 1,
      "note": 65,
      "start": 31.3674,
      "duration": 0.0012,
      "velocity": 111,
      "chip": "ym2612"
    },
    {
      "channel": 5,
      "note": 60,
      "start": 31.3682,
      "duration": 0.7165,
      "velocity": 97,
      "chip": "ym2612"
    },
    {
      "channel": 1,
      "note": 64,
      "start": 31.3686,
      "duration": 0.1819,
      "velocity": 111,
      "chip": "ym2612"
    },
    {
      "channel": 0,
      "note": 48,
      "start": 31.5502,
      "duration": 0.1831,
      "velocity": 96,
      "chip": "ym2612"
    },
    {
      "channel": 1,
      "note": 64,
      "start": 31.5507,
      "duration": 0.0006,
      "velocity": 111,
      "chip": "ym2612"
    },
    {
      "channel": 1,
      "note": 63,
      "start": 31.5514,
      "duration": 0.0149,
      "velocity": 111,
      "chip": "ym2612"
    },
    {
      "channel": 1,
      "note": 62,
      "start": 31.5663,
      "duration": 0.0167,
      "velocity": 111,
      "chip": "ym2612"
    },
    {
      "channel": 1,
      "note": 60,
      "start": 31.583,
      "duration": 0.0333,
      "velocity": 111,
      "chip": "ym2612"
    },
    {
      "channel": 1,
      "note": 60,
      "start": 31.6163,
      "duration": 0.1176,
      "velocity": 111,
      "chip": "ym2612"
    },
    {
      "channel": 0,
      "note": 50,
      "start": 31.7335,
      "duration": 0.3498,
      "velocity": 96,
      "chip": "ym2612"
    },
    {
      "channel": 1,
      "note": 60,
      "start": 31.734,
      "duration": 0.0012,
      "velocity": 111,
      "chip": "ym2612"
    },
    {
      "channel": 3,
      "note": 54,
      "start": 31.7346,
      "duration": 0.5332,
      "velocity": 97,
      "chip": "ym2612"
    },
    {
      "channel": 1,
      "note": 61,
      "start": 31.7352,
      "duration": 0.0145,
      "velocity": 111,
      "chip": "ym2612"
    },
    {
      "channel": 1,
      "note": 62,
      "start": 31.7497,
      "duration": 3.402,
      "velocity": 91,
      "chip": "ym2612"
    },
    {
      "channel": 4,
      "note": 57,
      "start": 31.9171,
      "duration": 0.717,
      "velocity": 97,
      "chip": "ym2612"
    },
    {
      "channel": 0,
      "note": 62,
      "start": 32.0835,
      "duration": 0.1831,
      "velocity": 96,
      "chip": "ym2612"
    },
    {
      "channel": 2,
      "note": 65,
      "start": 32.0841,
      "duration": 0.0012,
      "velocity": 111,
      "chip": "ym2612"
    },
    {
      "channel": 5,
      "note": 62,
      "start": 32.0849,
      "duration": 0.7326,
      "velocity": 97,
      "chip": "ym2612"
    },
    {
      "channel": 2,
      "note": 64,
      "start": 32.0854,
      "duration": 0.1819,
      "velocity": 111,
      "chip": "ym2612"
    },
    {
      "channel": 0,
      "note": 50,
      "start": 32.2668,
      "duration": 0.3665,
      "velocity": 96,
      "chip": "ym2612"
    },
    {
      "channel": 2,
      "note": 64,
      "start": 32.2675,
      "duration": 0.0011,
      "velocity": 111,
      "chip": "ym2612"
    },
    {
      "channel": 3,
      "note": 66,
      "start": 32.268,
      "duration": 0.8992,
      "velocity": 97,
      "chip": "ym2612"
    },
    {
      "channel": 2,
      "note": 63,
      "start": 32.2686,
      "duration": 0.0144,
      "velocity": 111,
      "chip": "ym2612"
    },
    {
      "channel": 2,
      "note": 62,
      "start": 32.2831,
      "duration": 0.0334,
      "velocity": 111,
      "chip": "ym2612"
    },
    {
      "channel": 2,
      "note": 60,
      "start": 32.3165,
      "duration": 0.0167,
      "velocity": 111,
      "chip": "ym2612"
    },
    {
      "channel": 2,
      "note": 60,
      "start": 32.3331,
      "duration": 0.117,
      "velocity": 111,
      "chip": "ym2612"
    },
    {
      "channel": 2,
      "note": 60,
      "start": 32.4502,
      "duration": 0.0007,
      "velocity": 111,
      "chip": "ym2612"
    },
    {
      "channel": 2,
      "note": 61,
      "start": 32.4509,
      "duration": 0.0155,
      "velocity": 111,
      "chip": "ym2612"
    },
    {
      "channel": 2,
      "note": 62,
      "start": 32.4665,
      "duration": 2.1527,
      "velocity": 111,
      "chip": "ym2612"
    },
    {
      "channel": 0,
      "note": 50,
      "start": 32.6335,
      "duration": 0.1831,
      "velocity": 96,
      "chip": "ym2612"
    },
    {
      "channel": 4,
      "note": 62,
      "start": 32.6343,
      "duration": 0.716,
      "velocity": 97,
      "chip": "ym2612"
    },
    {
      "channel": 0,
      "note": 62,
      "start": 32.8168,
      "duration": 0.1665,
      "velocity": 96,
      "chip": "ym2612"
    },
    {
      "channel": 5,
      "note": 57,
      "start": 32.8177,
      "duration": 0.7166,
      "velocity": 97,
      "chip": "ym2612"
    },
    {
      "channel": 0,
      "note": 50,
      "start": 32.9834,
      "duration": 0.1832,
      "velocity": 96,
      "chip": "ym2612"
    },
    {
      "channel": 0,
      "note": 50,
      "start": 33.1668,
      "duration": 0.3666,
      "velocity": 96,
      "chip": "ym2612"
    },
    {
      "channel": 3,
      "note": 54,
      "start": 33.1675,
      "duration": 0.5499,
      "velocity": 97,
      "chip": "ym2612"
    },
    {
      "channel": 4,
      "note": 57,
      "start": 33.3504,
      "duration": 0.7169,
      "velocity": 97,
      "chip": "ym2612"
    },
    {
      "channel": 0,
      "note": 62,
      "start": 33.5336,
      "duration": 0.1832,
      "velocity": 96,
      "chip": "ym2612"
    },
    {
      "channel": 5,
      "note": 62,
      "start": 33.5344,
      "duration": 0.7164,
      "velocity": 97,
      "chip": "ym2612"
    },
    {
      "channel": 0,
      "note": 50,
      "start": 33.7168,
      "duration": 0.3497,
      "velocity": 96,
      "chip": "ym2612"
    },
    {
      "channel": 3,
      "note": 66,
      "start": 33.7176,
      "duration": 1.6176,
      "velocity": 111,
      "chip": "ym2612"
    },
    {
      "channel": 0,
      "note": 50,
      "start": 34.0668,
      "duration": 0.1832,
      "velocity": 96,
      "chip": "ym2612"
    },
    {
      "channel": 4,
      "note": 62,
      "start": 34.0676,
      "duration": 1.0864,
      "velocity": 91,
      "chip": "ym2612"
    },
    {
      "channel": 0,
      "note": 62,
      "start": 34.2502,
      "duration": 0.1831,
      "velocity": 96,
      "chip": "ym2612"
    },
    {
      "channel": 5,
      "note": 57,
      "start": 34.251,
      "duration": 0.9051,
      "velocity": 91,
      "chip": "ym2612"
    },
    {
      "channel": 0,
      "note": 50,
      "start": 34.4335,
      "duration": 0.1834,
      "velocity": 96,
      "chip": "ym2612"
    },
    {
      "channel": 0,
      "note": 48,
      "start": 34.617,
      "duration": 0.3495,
      "velocity": 96,
      "chip": "ym2612"
    },
    {
      "channel": 2,
      "note": 79,
      "start": 34.6193,
      "duration": 2.5146,
      "velocity": 111,
      "chip": "ym2612"
    },
    {
      "channel": 0,
      "note": 60,
      "start": 34.9668,
      "duration": 0.5498,
      "velocity": 96,
      "chip": "ym2612"
    },
    {
      "channel": 1,
      "note": 84,
      "start": 35.1518,
      "duration": 0.7165,
      "velocity": 91,
      "chip": "ym2612"
    },
    {
      "channel": 4,
      "note": 88,
      "start": 35.1541,
      "duration": 0.7166,
      "velocity": 91,
      "chip": "ym2612"
    },
    {
      "channel": 5,
      "note": 91,
      "start": 35.1563,
      "duration": 0.7166,
      "velocity": 91,
      "chip": "ym2612"
    },
    {
      "channel": 3,
      "note": 79,
      "start": 35.3353,
      "duration": 2.5159,
      "velocity": 111,
      "chip": "ym2612"
    },
    {
      "channel": 0,
      "note": 48,
      "start": 35.5168,
      "duration": 0.1665,
      "velocity": 96,
      "chip": "ym2612"
    },
    {
      "channel": 0,
      "note": 60,
      "start": 35.6834,
      "duration": 0.3667,
      "velocity": 96,
      "chip": "ym2612"
    },
    {
      "channel": 1,
      "note": 84,
      "start": 35.8685,
      "duration": 0.7165,
      "velocity": 91,
      "chip": "ym2612"
    },
    {
      "channel": 4,
      "note": 88,
      "start": 35.8708,
      "duration": 0.7164,
      "velocity": 91,
      "chip": "ym2612"
    },
    {
      "channel": 5,
      "note": 91,
      "start": 35.8731,
      "duration": 0.7164,
      "velocity": 91,
      "chip": "ym2612"
    },
    {
      "channel": 0,
      "note": 48,
      "start": 36.0502,
      "duration": 0.3663,
      "velocity": 96,
      "chip": "ym2612"
    },
    {
      "channel": 0,
      "note": 60,
      "start": 36.4168,
      "duration": 0.5331,
      "velocity": 96,
      "chip": "ym2612"
    },
    {
      "channel": 1,
      "note": 88,
      "start": 36.5852,
      "duration": 0.7332,
      "velocity": 91,
      "chip": "ym2612"
    },
    {
      "channel": 4,
      "note": 91,
      "start": 36.5875,
      "duration": 0.7337,
      "velocity": 91,
      "chip": "ym2612"
    },
    {
      "channel": 5,
      "note": 95,
      "start": 36.5896,
      "duration": 0.7337,
      "velocity": 91,
      "chip": "ym2612"
    },
    {
      "channel": 0,
      "note": 48,
      "start": 36.9501,
      "duration": 0.1831,
      "velocity": 96,
      "chip": "ym2612"
    },
    {
      "channel": 0,
      "note": 60,
      "start": 37.1334,
      "duration": 0.3499,
      "velocity": 96,
      "chip": "ym2612"
    },
    {
      "channel": 2,
      "note": 79,
      "start": 37.1341,
      "duration": 0.0006,
      "velocity": 111,
      "chip": "ym2612"
    },
    {
      "channel": 2,
      "note": 78,
      "start": 37.1347,
      "duration": 0.015,
      "velocity": 111,
      "chip": "ym2612"
    },
    {
      "channel": 2,
      "note": 78,
      "start": 37.1497,
      "duration": 0.1692,
      "velocity": 111,
      "chip": "ym2612"
    },
    {
      "channel": 1,
      "note": 88,
      "start": 37.3185,
      "duration": 0.7165,
      "velocity": 91,
      "chip": "ym2612"
    },
    {
      "channel": 2,
      "note": 78,
      "start": 37.3191,
      "duration": 0.0049,
      "velocity": 111,
      "chip": "ym2612"
    },
    {
      "channel": 4,
      "note": 91,
      "start": 37.3213,
      "duration": 0.7171,
      "velocity": 91,
      "chip": "ym2612"
    },
    {
      "channel": 5,
      "note": 95,
      "start": 37.3235,
      "duration": 0.717,
      "velocity": 91,
      "chip": "ym2612"
    },
    {
      "channel": 2,
      "note": 77,
      "start": 37.324,
      "duration": 0.0091,
      "velocity": 111,
      "chip": "ym2612"
    },
    {
      "channel": 2,
      "note": 76,
      "start": 37.3331,
      "duration": 0.151,
      "velocity": 111,
      "chip": "ym2612"
    },
    {
      "channel": 0,
      "note": 50,
      "start": 37.4836,
      "duration": 0.3664,
      "velocity": 96,
      "chip": "ym2612"
    },
    {
      "channel": 2,
      "note": 76,
      "start": 37.4841,
      "duration": 0.0006,
      "velocity": 111,
      "chip": "ym2612"
    },
    {
      "channel": 2,
      "note": 77,
      "start": 37.4848,
      "duration": 0.0316,
      "velocity": 111,
      "chip": "ym2612"
    },
    {
      "channel": 2,
      "note": 78,
      "start": 37.5164,
      "duration": 0.1503,
      "velocity": 111,
      "chip": "ym2612"
    },
    {
      "channel": 2,
      "note": 78,
      "start": 37.6669,
      "duration": 0.0007,
      "velocity": 111,
      "chip": "ym2612"
    },
    {
      "channel": 2,
      "note": 77,
      "start": 37.6676,
      "duration": 0.0155,
      "velocity": 111,
      "chip": "ym2612"
    },
    {
      "channel": 2,
      "note": 76,
      "start": 37.6831,
      "duration": 0.0333,
      "velocity": 111,
      "chip": "ym2612"
    },
    {
      "channel": 2,
      "note": 75,
      "start": 37.7164,
      "duration": 0.0167,
      "velocity": 111,
      "chip": "ym2612"
    },
    {
      "channel": 2,
      "note": 74,
      "start": 37.7331,
      "duration": 0.1176,
      "velocity": 111,
      "chip": "ym2612"
    },
    {
      "channel": 0,
      "note": 62,
      "start": 37.8502,
      "duration": 0.5331,
      "velocity": 96,
      "chip": "ym2612"
    },
    {
      "channel": 2,
      "note": 74,
      "start": 37.8507,
      "duration": 0.0011,
      "velocity": 111,
      "chip": "ym2612"
    },
    {
      "channel": 3,
      "note": 79,
      "start": 37.8513,
      "duration": 0.0009,
      "velocity": 111,
      "chip": "ym2612"
    },
    {
      "channel": 2,
      "note": 73,
      "start": 37.8519,
      "duration": 0.0145,
      "velocity": 111,
      "chip": "ym2612"
    },
    {
      "channel": 3,
      "note": 78,
      "start": 37.8522,
      "duration": 0.0145,
      "velocity": 111,
      "chip": "ym2612"
    },
    {
      "channel": 2,
      "note": 71,
      "start": 37.8664,
      "duration": 0.0167,
      "velocity": 111,
      "chip": "ym2612"
    },
    {
      "channel": 3,
      "note": 78,
      "start": 37.8667,
      "duration": 0.1695,
      "velocity": 111,
      "chip": "ym2612"
    },
    {
      "channel": 2,
      "note": 70,
      "start": 37.8831,
      "duration": 0.0333,
      "velocity": 111,
      "chip": "ym2612"
    },
    {
      "channel": 2,
      "note": 68,
      "start": 37.9164,
      "duration": 0.0167,
      "velocity": 111,
      "chip": "ym2612"
    },
    {
      "channel": 2,
      "note": 67,
      "start": 37.9331,
      "duration": 0.0167,
      "velocity": 111,
      "chip": "ym2612"
    },
    {
      "channel": 2,
      "note": 67,
      "start": 37.9497,
      "duration": 0.0859,
      "velocity": 111,
      "chip": "ym2612"
    },
    {
      "channel": 1,
      "note": 93,
      "start": 38.0352,
      "duration": 0.7165,
      "velocity": 91,
      "chip": "ym2612"
    },
    {
      "channel": 2,
      "note": 67,
      "start": 38.0358,
      "duration": 0.0053,
      "velocity": 111,
      "chip": "ym2612"
    },
    {
      "channel": 3,
      "note": 78,
      "start": 38.0363,
      "duration": 0.0051,
      "velocity": 111,
      "chip": "ym2612"
    },
    {
      "channel": 4,
      "note": 90,
      "start": 38.0385,
      "duration": 0.716,
      "velocity": 91,
      "chip": "ym2612"
    },
    {
      "channel": 5,
      "note": 86,
      "start": 38.0407,
      "duration": 0.716,
      "velocity": 91,
      "chip": "ym2612"
    },
    {
      "channel": 2,
      "note": 68,
      "start": 38.0411,
      "duration": 0.0086,
      "velocity": 111,
      "chip": "ym2612"
    },
    {
      "channel": 3,
      "note": 77,
      "start": 38.0415,
      "duration": 0.0086,
      "velocity": 111,
      "chip": "ym2612"
    },
    {
      "channel": 2,
      "note": 69,
      "start": 38.0497,
      "duration": 2.3176,
      "velocity": 111,
      "chip": "ym2612"
    },
    {
      "channel": 3,
      "note": 76,
      "start": 38.05,
      "duration": 0.1668,
      "velocity": 111,
      "chip": "ym2612"
    },
    {
      "channel": 3,
      "note": 76,
      "start": 38.2171,
      "duration": 0.0006,
      "velocity": 111,
      "chip": "ym2612"
    },
    {
      "channel": 3,
      "note": 77,
      "start": 38.2177,
      "duration": 0.0154,
      "velocity": 111,
      "chip": "ym2612"
    },
    {
      "channel": 3,
      "note": 78,
      "start": 38.2331,
      "duration": 0.1508,
      "velocity": 111,
      "chip": "ym2612"
    },
    {
      "channel": 0,
      "note": 50,
      "start": 38.3834,
      "duration": 0.1832,
      "velocity": 96,
      "chip": "ym2612"
    },
    {
      "channel": 3,
      "note": 78,
      "start": 38.3841,
      "duration": 0.0006,
      "velocity": 111,
      "chip": "ym2612"
    },
    {
      "channel": 3,
      "note": 77,
      "start": 38.3848,
      "duration": 0.0317,
      "velocity": 111,
      "chip": "ym2612"
    },
    {
      "channel": 3,
      "note": 76,
      "start": 38.4165,
      "duration": 0.0167,
      "velocity": 111,
      "chip": "ym2612"
    },
    {
      "channel": 3,
      "note": 75,
      "start": 38.4331,
      "duration": 0.0167,
      "velocity": 111,
      "chip": "ym2612"
    },
    {
      "channel": 3,
      "note": 74,
      "start": 38.4498,
      "duration": 0.1175,
      "velocity": 111,
      "chip": "ym2612"
    },
    {
      "channel": 0,
      "note": 62,
      "start": 38.5668,
      "duration": 0.3666,
      "velocity": 96,
      "chip": "ym2612"
    },
    {
      "channel": 3,
      "note": 74,
      "start": 38.5675,
      "duration": 0.0006,
      "velocity": 111,
      "chip": "ym2612"
    },
    {
      "channel": 3,
      "note": 73,
      "start": 38.5681,
      "duration": 0.015,
      "velocity": 111,
      "chip": "ym2612"
    },
    {
      "channel": 3,
      "note": 71,
      "start": 38.5831,
      "duration": 0.0333,
      "velocity": 111,
      "chip": "ym2612"
    },
    {
      "channel": 3,
      "note": 70,
      "start": 38.6165,
      "duration": 0.0167,
      "velocity": 111,
      "chip": "ym2612"
    },
    {
      "channel": 3,
      "note": 68,
      "start": 38.6331,
      "duration": 0.0167,
      "velocity": 111,
      "chip": "ym2612"
    },
    {
      "channel": 3,
      "note": 67,
      "start": 38.6498,
      "duration": 0.0167,
      "velocity": 111,
      "chip": "ym2612"
    },
    {
      "channel": 3,
      "note": 67,
      "start": 38.6665,
      "duration": 0.0858,
      "velocity": 111,
      "chip": "ym2612"
    },
    {
      "channel": 1,
      "note": 93,
      "start": 38.7518,
      "duration": 0.7165,
      "velocity": 91,
      "chip": "ym2612"
    },
    {
      "channel": 3,
      "note": 67,
      "start": 38.7525,
      "duration": 0.0049,
      "velocity": 111,
      "chip": "ym2612"
    },
    {
      "channel": 4,
      "note": 90,
      "start": 38.7546,
      "duration": 0.716,
      "velocity": 91,
      "chip": "ym2612"
    },
    {
      "channel": 5,
      "note": 86,
      "start": 38.7568,
      "duration": 0.716,
      "velocity": 91,
      "chip": "ym2612"
    },
    {
      "channel": 3,
      "note": 68,
      "start": 38.7574,
      "duration": 0.0092,
      "velocity": 111,
      "chip": "ym2612"
    },
    {
      "channel": 3,
      "note": 69,
      "start": 38.7665,
      "duration": 2.317,
      "velocity": 111,
      "chip": "ym2612"
    },
    {
      "channel": 0,
      "note": 50,
      "start": 38.9336,
      "duration": 0.3497,
      "velocity": 96,
      "chip": "ym2612"
    },
    {
      "channel": 0,
      "note": 62,
      "start": 39.2834,
      "duration": 0.5498,
      "velocity": 96,
      "chip": "ym2612"
    },
    {
      "channel": 1,
      "note": 93,
      "start": 39.4685,
      "duration": 0.7165,
      "velocity": 91,
      "chip": "ym2612"
    },
    {
      "channel": 4,
      "note": 90,
      "start": 39.4708,
      "duration": 0.7165,
      "velocity": 91,
      "chip": "ym2612"
    },
    {
      "channel": 5,
      "note": 86,
      "start": 39.4729,
      "duration": 0.7165,
      "velocity": 91,
      "chip": "ym2612"
    },
    {
      "channel": 0,
      "note": 50,
      "start": 39.8334,
      "duration": 0.1831,
      "velocity": 96,
      "chip": "ym2612"
    },
    {
      "channel": 0,
      "note": 62,
      "start": 40.0168,
      "duration": 0.3499,
      "velocity": 96,
      "chip": "ym2612"
    },
    {
      "channel": 1,
      "note": 93,
      "start": 40.1852,
      "duration": 0.7331,
      "velocity": 91,
      "chip": "ym2612"
    },
    {
      "channel": 4,
      "note": 90,
      "start": 40.1875,
      "duration": 0.7331,
      "velocity": 91,
      "chip": "ym2612"
    },
    {
      "channel": 5,
      "note": 86,
      "start": 40.1896,
      "duration": 0.7332,
      "velocity": 91,
      "chip": "ym2612"
    },
    {
      "channel": 0,
      "note": 48,
      "start": 40.3669,
      "duration": 0.3663,
      "velocity": 96,
      "chip": "ym2612"
    },
    {
      "channel": 2,
      "note": 69,
      "start": 40.3675,
      "duration": 0.0006,
      "velocity": 111,
      "chip": "ym2612"
    },
    {
      "channel": 2,
      "note": 71,
      "start": 40.3681,
      "duration": 0.0149,
      "velocity": 111,
      "chip": "ym2612"
    },
    {
      "channel": 2,
      "note": 72,
      "start": 40.3831,
      "duration": 2.5008,
      "velocity": 111,
      "chip": "ym2612"
    },
    {
      "channel": 0,
      "note": 60,
      "start": 40.7334,
      "duration": 0.5332,
      "velocity": 96,
      "chip": "ym2612"
    },
    {
      "channel": 1,
      "note": 91,
      "start": 40.9185,
      "duration": 0.7165,
      "velocity": 91,
      "chip": "ym2612"
    },
    {
      "channel": 4,
      "note": 88,
      "start": 40.9208,
      "duration": 0.7165,
      "velocity": 91,
      "chip": "ym2612"
    },
    {
      "channel": 5,
      "note": 84,
      "start": 40.9229,
      "duration": 0.7165,
      "velocity": 91,
      "chip": "ym2612"
    },
    {
      "channel": 3,
      "note": 69,
      "start": 41.0837,
      "duration": 0.0006,
      "velocity": 111,
      "chip": "ym2612"
    },
    {
      "channel": 3,
      "note": 71,
      "start": 41.0843,
      "duration": 0.0321,
      "velocity": 111,
      "chip": "ym2612"
    },
    {
      "channel": 3,
      "note": 72,
      "start": 41.1165,
      "duration": 2.5014,
      "velocity": 111,
      "chip": "ym2612"
    },
    {
      "channel": 0,
      "note": 48,
      "start": 41.2668,
      "duration": 0.1831,
      "velocity": 96,
      "chip": "ym2612"
    },
    {
      "channel": 0,
      "note": 60,
      "start": 41.4501,
      "duration": 0.3666,
      "velocity": 96,
      "chip": "ym2612"
    },
    {
      "channel": 1,
      "note": 91,
      "start": 41.6352,
      "duration": 0.7165,
      "velocity": 91,
      "chip": "ym2612"
    },
    {
      "channel": 4,
      "note": 88,
      "start": 41.6375,
      "duration": 0.7165,
      "velocity": 91,
      "chip": "ym2612"
    },
    {
      "channel": 5,
      "note": 84,
      "start": 41.6396,
      "duration": 0.7165,
      "velocity": 91,
      "chip": "ym2612"
    },
    {
      "channel": 0,
      "note": 48,
      "start": 41.8168,
      "duration": 0.3497,
      "velocity": 96,
      "chip": "ym2612"
    },
    {
      "channel": 0,
      "note": 60,
      "start": 42.1668,
      "duration": 0.5498,
      "velocity": 96,
      "chip": "ym2612"
    },
    {
      "channel": 1,
      "note": 95,
      "start": 42.3518,
      "duration": 0.7165,
      "velocity": 91,
      "chip": "ym2612"
    },
    {
      "channel": 4,
      "note": 91,
      "start": 42.3541,
      "duration": 0.717,
      "velocity": 91,
      "chip": "ym2612"
    },
    {
      "channel": 5,
      "note": 88,
      "start": 42.3563,
      "duration": 0.7171,
      "velocity": 91,
      "chip": "ym2612"
    },
    {
      "channel": 0,
      "note": 48,
      "start": 42.7168,
      "duration": 0.1665,
      "velocity": 96,
      "chip": "ym2612"
    },
    {
      "channel": 0,
      "note": 60,
      "start": 42.8834,
      "duration": 0.3666,
      "velocity": 96,
      "chip": "ym2612"
    },
    {
      "channel": 2,
      "note": 72,
      "start": 42.8841,
      "duration": 0.0006,
      "velocity": 111,
      "chip": "ym2612"
    },
    {
      "channel": 2,
      "note": 71,
      "start": 42.8847,
      "duration": 0.1842,
      "velocity": 111,
      "chip": "ym2612"
    },
    {
      "channel": 1,
      "note": 95,
      "start": 43.0685,
      "duration": 0.7165,
      "velocity": 91,
      "chip": "ym2612"
    },
    {
      "channel": 2,
      "note": 71,
      "start": 43.0691,
      "duration": 0.0049,
      "velocity": 111,
      "chip": "ym2612"
    },
    {
      "channel": 4,
      "note": 91,
      "start": 43.0713,
      "duration": 0.7171,
      "velocity": 91,
      "chip": "ym2612"
    },
    {
      "channel": 5,
      "note": 88,
      "start": 43.0735,
      "duration": 0.717,
      "velocity": 91,
      "chip": "ym2612"
    },
    {
      "channel": 2,
      "note": 69,
      "start": 43.074,
      "duration": 0.0091,
      "velocity": 111,
      "chip": "ym2612"
    },
    {
      "channel": 2,
      "note": 69,
      "start": 43.0831,
      "duration": 0.1676,
      "velocity": 111,
      "chip": "ym2612"
    },
    {
      "channel": 0,
      "note": 50,
      "start": 43.2502,
      "duration": 0.3664,
      "velocity": 96,
      "chip": "ym2612"
    },
    {
      "channel": 2,
      "note": 69,
      "start": 43.2508,
      "duration": 0.0006,
      "velocity": 111,
      "chip": "ym2612"
    },
    {
      "channel": 2,
      "note": 71,
      "start": 43.2515,
      "duration": 0.0149,
      "velocity": 111,
      "chip": "ym2612"
    },
    {
      "channel": 2,
      "note": 71,
      "start": 43.2664,
      "duration": 0.167,
      "velocity": 111,
      "chip": "ym2612"
    },
    {
      "channel": 2,
      "note": 71,
      "start": 43.4336,
      "duration": 0.0007,
      "velocity": 111,
      "chip": "ym2612"
    },
    {
      "channel": 2,
      "note": 72,
      "start": 43.4342,
      "duration": 0.1831,
      "velocity": 111,
      "chip": "ym2612"
    },
    {
      "channel": 0,
      "note": 62,
      "start": 43.6168,
      "duration": 0.5331,
      "velocity": 96,
      "chip": "ym2612"
    },
    {
      "channel": 2,
      "note": 72,
      "start": 43.6174,
      "duration": 0.0011,
      "velocity": 111,
      "chip": "ym2612"
    },
    {
      "channel": 3,
      "note": 72,
      "start": 43.618,
      "duration": 0.001,
      "velocity": 111,
      "chip": "ym2612"
    },
    {
      "channel": 2,
      "note": 73,
      "start": 43.6185,
      "duration": 0.0145,
      "velocity": 111,
      "chip": "ym2612"
    },
    {
      "channel": 3,
      "note": 71,
      "start": 43.6189,
      "duration": 0.1672,
      "velocity": 111,
      "chip": "ym2612"
    },
    {
      "channel": 2,
      "note": 74,
      "start": 43.6331,
      "duration": 0.1525,
      "velocity": 111,
      "chip": "ym2612"
    },
    {
      "channel": 1,
      "note": 93,
      "start": 43.7852,
      "duration": 0.7332,
      "velocity": 91,
      "chip": "ym2612"
    },
    {
      "channel": 2,
      "note": 74,
      "start": 43.7858,
      "duration": 0.0053,
      "velocity": 111,
      "chip": "ym2612"
    },
    {
      "channel": 3,
      "note": 71,
      "start": 43.7863,
      "duration": 0.0051,
      "velocity": 111,
      "chip": "ym2612"
    },
    {
      "channel": 4,
      "note": 90,
      "start": 43.7885,
      "duration": 0.7327,
      "velocity": 91,
      "chip": "ym2612"
    },
    {
      "channel": 5,
      "note": 86,
      "start": 43.7907,
      "duration": 0.7326,
      "velocity": 91,
      "chip": "ym2612"
    },
    {
      "channel": 2,
      "note": 75,
      "start": 43.7911,
      "duration": 0.0253,
      "velocity": 111,
      "chip": "ym2612"
    },
    {
      "channel": 3,
      "note": 69,
      "start": 43.7915,
      "duration": 0.0253,
      "velocity": 111,
      "chip": "ym2612"
    },
    {
      "channel": 2,
      "note": 76,
      "start": 43.8164,
      "duration": 0.0167,
      "velocity": 111,
      "chip": "ym2612"
    },
    {
      "channel": 3,
      "note": 69,
      "start": 43.8167,
      "duration": 0.1502,
      "velocity": 111,
      "chip": "ym2612"
    },
    {
      "channel": 2,
      "note": 77,
      "start": 43.8331,
      "duration": 0.0167,
      "velocity": 111,
      "chip": "ym2612"
    },
    {
      "channel": 2,
      "note": 78,
      "start": 43.8497,
      "duration": 2.2845,
      "velocity": 111,
      "chip": "ym2612"
    },
    {
      "channel": 3,
      "note": 69,
      "start": 43.9671,
      "duration": 0.0006,
      "velocity": 111,
      "chip": "ym2612"
    },
    {
      "channel": 3,
      "note": 71,
      "start": 43.9677,
      "duration": 0.0154,
      "velocity": 111,
      "chip": "ym2612"
    },
    {
      "channel": 3,
      "note": 71,
      "start": 43.9831,
      "duration": 0.1675,
      "velocity": 111,
      "chip": "ym2612"
    },
    {
      "channel": 0,
      "note": 50,
      "start": 44.1501,
      "duration": 0.1831,
      "velocity": 96,
      "chip": "ym2612"
    },
    {
      "channel": 3,
      "note": 71,
      "start": 44.1508,
      "duration": 0.0006,
      "velocity": 111,
      "chip": "ym2612"
    },
    {
      "channel": 3,
      "note": 72,
      "start": 44.1515,
      "duration": 0.1825,
      "velocity": 111,
      "chip": "ym2612"
    },
    {
      "channel": 0,
      "note": 62,
      "start": 44.3334,
      "duration": 0.3499,
      "velocity": 96,
      "chip": "ym2612"
    },
    {
      "channel": 3,
      "note": 72,
      "start": 44.3341,
      "duration": 0.0006,
      "velocity": 111,
      "chip": "ym2612"
    },
    {
      "channel": 3,
      "note": 73,
      "start": 44.3348,
      "duration": 0.015,
      "velocity": 111,
      "chip": "ym2612"
    },
    {
      "channel": 3,
      "note": 74,
      "start": 44.3498,
      "duration": 0.1692,
      "velocity": 111,
      "chip": "ym2612"
    },
    {
      "channel": 1,
      "note": 93,
      "start": 44.5185,
      "duration": 0.7164,
      "velocity": 91,
      "chip": "ym2612"
    },
    {
      "channel": 3,
      "note": 74,
      "start": 44.5191,
      "duration": 0.0049,
      "velocity": 111,
      "chip": "ym2612"
    },
    {
      "channel": 4,
      "note": 90,
      "start": 44.5213,
      "duration": 0.716,
      "velocity": 91,
      "chip": "ym2612"
    },
    {
      "channel": 5,
      "note": 86,
      "start": 44.5235,
      "duration": 0.7159,
      "velocity": 91,
      "chip": "ym2612"
    },
    {
      "channel": 3,
      "note": 75,
      "start": 44.524,
      "duration": 0.0091,
      "velocity": 111,
      "chip": "ym2612"
    },
    {
      "channel": 3,
      "note": 76,
      "start": 44.5331,
      "duration": 0.0167,
      "velocity": 111,
      "chip": "ym2612"
    },
    {
      "channel": 3,
      "note": 77,
      "start": 44.5498,
      "duration": 0.0167,
      "velocity": 111,
      "chip": "ym2612"
    },
    {
      "channel": 3,
      "note": 78,
      "start": 44.5665,
      "duration": 2.2838,
      "velocity": 111,
      "chip": "ym2612"
    },
    {
      "channel": 0,
      "note": 50,
      "start": 44.6836,
      "duration": 0.3663,
      "velocity": 96,
      "chip": "ym2612"
    },
    {
      "channel": 0,
      "note": 62,
      "start": 45.0501,
      "duration": 0.5333,
      "velocity": 96,
      "chip": "ym2612"
    },
    {
      "channel": 1,
      "note": 93,
      "start": 45.2352,
      "duration": 0.1815,
      "velocity": 91,
      "chip": "ym2612"
    },
    {
      "channel": 4,
      "note": 90,
      "start": 45.2375,
      "duration": 0.18,
      "velocity": 91,
      "chip": "ym2612"
    },
    {
      "channel": 5,
      "note": 86,
      "start": 45.2396,
      "duration": 0.1784,
      "velocity": 91,
      "chip": "ym2612"
    },
    {
      "channel": 1,
      "note": 95,
      "start": 45.4169,
      "duration": 0.3504,
      "velocity": 91,
      "chip": "ym2612"
    },
    {
      "channel": 4,
      "note": 91,
      "start": 45.4176,
      "duration": 0.3503,
      "velocity": 91,
      "chip": "ym2612"
    },
    {
      "channel": 5,
      "note": 88,
      "start": 45.4182,
      "duration": 0.3504,
      "velocity": 91,
      "chip": "ym2612"
    },
    {
      "channel": 0,
      "note": 50,
      "start": 45.5836,
      "duration": 0.1832,
      "velocity": 96,
      "chip": "ym2612"
    },
    {
      "channel": 0,
      "note": 62,
      "start": 45.7669,
      "duration": 0.3667,
      "velocity": 96,
      "chip": "ym2612"
    },
    {
      "channel": 1,
      "note": 96,
      "start": 45.7674,
      "duration": 0.8994,
      "velocity": 91,
      "chip": "ym2612"
    },
    {
      "channel": 4,
      "note": 93,
      "start": 45.7681,
      "duration": 0.8995,
      "velocity": 91,
      "chip": "ym2612"
    },
    {
      "channel": 5,
      "note": 90,
      "start": 45.7687,
      "duration": 0.8996,
      "velocity": 91,
      "chip": "ym2612"
    },
    {
      "channel": 0,
      "note": 48,
      "start": 46.1337,
      "duration": 0.3495,
      "velocity": 96,
      "chip": "ym2612"
    },
    {
      "channel": 2,
      "note": 79,
      "start": 46.1344,
      "duration": 2.5161,
      "velocity": 111,
      "chip": "ym2612"
    },
    {
      "channel": 0,
      "note": 60,
      "start": 46.4834,
      "duration": 0.5498,
      "velocity": 96,
      "chip": "ym2612"
    },
    {
      "channel": 1,
      "note": 84,
      "start": 46.667,
      "duration": 0.718,
      "velocity": 91,
      "chip": "ym2612"
    },
    {
      "channel": 4,
      "note": 88,
      "start": 46.6678,
      "duration": 0.7195,
      "velocity": 91,
      "chip": "ym2612"
    },
    {
      "channel": 5,
      "note": 91,
      "start": 46.6684,
      "duration": 0.721,
      "velocity": 91,
      "chip": "ym2612"
    },
    {
      "channel": 3,
      "note": 79,
      "start": 46.8505,
      "duration": 2.5174,
      "velocity": 111,
      "chip": "ym2612"
    },
    {
      "channel": 0,
      "note": 48,
      "start": 47.0334,
      "duration": 0.1831,
      "velocity": 96,
      "chip": "ym2612"
    },
    {
      "channel": 0,
      "note": 60,
      "start": 47.2168,
      "duration": 0.3499,
      "velocity": 96,
      "chip": "ym2612"
    },
    {
      "channel": 1,
      "note": 84,
      "start": 47.3852,
      "duration": 0.7331,
      "velocity": 91,
      "chip": "ym2612"
    },
    {
      "channel": 4,
      "note": 88,
      "start": 47.3875,
      "duration": 0.7331,
      "velocity": 91,
      "chip": "ym2612"
    },
    {
      "channel": 5,
      "note": 91,
      "start": 47.3897,
      "duration": 0.7331,
      "velocity": 91,
      "chip": "ym2612"
    },
    {
      "channel": 0,
      "note": 48,
      "start": 47.5669,
      "duration": 0.3663,
      "velocity": 96,
      "chip": "ym2612"
    },
    {
      "channel": 0,
      "note": 60,
      "start": 47.9334,
      "duration": 0.5331,
      "velocity": 96,
      "chip": "ym2612"
    },
    {
      "channel": 1,
      "note": 88,
      "start": 48.1185,
      "duration": 0.7165,
      "velocity": 91,
      "chip": "ym2612"
    },
    {
      "channel": 4,
      "note": 91,
      "start": 48.1208,
      "duration": 0.717,
      "velocity": 91,
      "chip": "ym2612"
    },
    {
      "channel": 5,
      "note": 95,
      "start": 48.1229,
      "duration": 0.717,
      "velocity": 91,
      "chip": "ym2612"
    },
    {
      "channel": 0,
      "note": 48,
      "start": 48.4668,
      "duration": 0.1831,
      "velocity": 96,
      "chip": "ym2612"
    },
    {
      "channel": 0,
      "note": 60,
      "start": 48.6501,
      "duration": 0.3666,
      "velocity": 96,
      "chip": "ym2612"
    },
    {
      "channel": 2,
      "note": 79,
      "start": 48.6507,
      "duration": 0.0006,
      "velocity": 111,
      "chip": "ym2612"
    },
    {
      "channel": 2,
      "note": 80,
      "start": 48.6514,
      "duration": 0.015,
      "velocity": 111,
      "chip": "ym2612"
    },
    {
      "channel": 2,
      "note": 81,
      "start": 48.6664,
      "duration": 0.1691,
      "velocity": 111,
      "chip": "ym2612"
    },
    {
      "channel": 1,
      "note": 88,
      "start": 48.8352,
      "duration": 0.7166,
      "velocity": 91,
      "chip": "ym2612"
    },
    {
      "channel": 2,
      "note": 81,
      "start": 48.8357,
      "duration": 0.0048,
      "velocity": 111,
      "chip": "ym2612"
    },
    {
      "channel": 4,
      "note": 91,
      "start": 48.838,
      "duration": 0.7165,
      "velocity": 91,
      "chip": "ym2612"
    },
    {
      "channel": 5,
      "note": 95,
      "start": 48.8401,
      "duration": 0.7166,
      "velocity": 91,
      "chip": "ym2612"
    },
    {
      "channel": 2,
      "note": 83,
      "start": 48.8406,
      "duration": 0.0092,
      "velocity": 111,
      "chip": "ym2612"
    },
    {
      "channel": 2,
      "note": 83,
      "start": 48.8497,
      "duration": 0.1676,
      "velocity": 111,
      "chip": "ym2612"
    },
    {
      "channel": 0,
      "note": 50,
      "start": 49.0169,
      "duration": 0.3498,
      "velocity": 96,
      "chip": "ym2612"
    },
    {
      "channel": 2,
      "note": 83,
      "start": 49.0175,
      "duration": 0.0006,
      "velocity": 111,
      "chip": "ym2612"
    },
    {
      "channel": 2,
      "note": 81,
      "start": 49.0181,
      "duration": 0.0149,
      "velocity": 111,
      "chip": "ym2612"
    },
    {
      "channel": 2,
      "note": 81,
      "start": 49.0331,
      "duration": 0.1503,
      "velocity": 111,
      "chip": "ym2612"
    },
    {
      "channel": 2,
      "note": 81,
      "start": 49.1836,
      "duration": 0.0007,
      "velocity": 111,
      "chip": "ym2612"
    },
    {
      "channel": 2,
      "note": 80,
      "start": 49.1842,
      "duration": 0.0322,
      "velocity": 111,
      "chip": "ym2612"
    },
    {
      "channel": 2,
      "note": 79,
      "start": 49.2164,
      "duration": 0.0167,
      "velocity": 111,
      "chip": "ym2612"
    },
    {
      "channel": 2,
      "note": 78,
      "start": 49.2331,
      "duration": 0.1342,
      "velocity": 111,
      "chip": "ym2612"
    },
    {
      "channel": 0,
      "note": 62,
      "start": 49.3668,
      "duration": 0.5497,
      "velocity": 96,
      "chip": "ym2612"
    },
    {
      "channel": 2,
      "note": 78,
      "start": 49.3674,
      "duration": 0.0011,
      "velocity": 111,
      "chip": "ym2612"
    },
    {
      "channel": 3,
      "note": 79,
      "start": 49.368,
      "duration": 0.001,
      "velocity": 111,
      "chip": "ym2612"
    },
    {
      "channel": 2,
      "note": 77,
      "start": 49.3685,
      "duration": 0.0145,
      "velocity": 111,
      "chip": "ym2612"
    },
    {
      "channel": 3,
      "note": 80,
      "start": 49.3689,
      "duration": 0.0145,
      "velocity": 111,
      "chip": "ym2612"
    },
    {
      "channel": 2,
      "note": 76,
      "start": 49.3831,
      "duration": 0.0333,
      "velocity": 111,
      "chip": "ym2612"
    },
    {
      "channel": 3,
      "note": 81,
      "start": 49.3834,
      "duration": 0.1689,
      "velocity": 111,
      "chip": "ym2612"
    },
    {
      "channel": 2,
      "note": 75,
      "start": 49.4164,
      "duration": 0.0167,
      "velocity": 111,
      "chip": "ym2612"
    },
    {
      "channel": 2,
      "note": 74,
      "start": 49.4331,
      "duration": 2.451,
      "velocity": 111,
      "chip": "ym2612"
    },
    {
      "channel": 1,
      "note": 93,
      "start": 49.5519,
      "duration": 0.7165,
      "velocity": 91,
      "chip": "ym2612"
    },
    {
      "channel": 3,
      "note": 81,
      "start": 49.5525,
      "duration": 0.0049,
      "velocity": 111,
      "chip": "ym2612"
    },
    {
      "channel": 4,
      "note": 90,
      "start": 49.5547,
      "duration": 0.716,
      "velocity": 91,
      "chip": "ym2612"
    },
    {
      "channel": 5,
      "note": 86,
      "start": 49.5568,
      "duration": 0.716,
      "velocity": 91,
      "chip": "ym2612"
    },
    {
      "channel": 3,
      "note": 83,
      "start": 49.5574,
      "duration": 0.009,
      "velocity": 111,
      "chip": "ym2612"
    },
    {
      "channel": 3,
      "note": 83,
      "start": 49.5665,
      "duration": 0.1671,
      "velocity": 111,
      "chip": "ym2612"
    },
    {
      "channel": 3,
      "note": 83,
      "start": 49.7337,
      "duration": 0.0006,
      "velocity": 111,
      "chip": "ym2612"
    },
    {
      "channel": 3,
      "note": 81,
      "start": 49.7343,
      "duration": 0.0155,
      "velocity": 111,
      "chip": "ym2612"
    },
    {
      "channel": 3,
      "note": 81,
      "start": 49.7498,
      "duration": 0.1675,
      "velocity": 111,
      "chip": "ym2612"
    },
    {
      "channel": 0,
      "note": 50,
      "start": 49.9168,
      "duration": 0.1665,
      "velocity": 96,
      "chip": "ym2612"
    },
    {
      "channel": 3,
      "note": 81,
      "start": 49.9175,
      "duration": 0.0006,
      "velocity": 111,
      "chip": "ym2612"
    },
    {
      "channel": 3,
      "note": 80,
      "start": 49.9181,
      "duration": 0.015,
      "velocity": 111,
      "chip": "ym2612"
    },
    {
      "channel": 3,
      "note": 79,
      "start": 49.9331,
      "duration": 0.0167,
      "velocity": 111,
      "chip": "ym2612"
    },
    {
      "channel": 3,
      "note": 78,
      "start": 49.9498,
      "duration": 0.1341,
      "velocity": 111,
      "chip": "ym2612"
    },
    {
      "channel": 0,
      "note": 62,
      "start": 50.0834,
      "duration": 0.3666,
      "velocity": 96,
      "chip": "ym2612"
    },
    {
      "channel": 3,
      "note": 78,
      "start": 50.0841,
      "duration": 0.0006,
      "velocity": 111,
      "chip": "ym2612"
    },
    {
      "channel": 3,
      "note": 77,
      "start": 50.0848,
      "duration": 0.0317,
      "velocity": 111,
      "chip": "ym2612"
    },
    {
      "channel": 3,
      "note": 76,
      "start": 50.1165,
      "duration": 0.0167,
      "velocity": 111,
      "chip": "ym2612"
    },
    {
      "channel": 3,
      "note": 75,
      "start": 50.1331,
      "duration": 0.0167,
      "velocity": 111,
      "chip": "ym2612"
    },
    {
      "channel": 3,
      "note": 74,
      "start": 50.1498,
      "duration": 2.4671,
      "velocity": 111,
      "chip": "ym2612"
    },
    {
      "channel": 1,
      "note": 93,
      "start": 50.2685,
      "duration": 0.7165,
      "velocity": 91,
      "chip": "ym2612"
    },
    {
      "channel": 4,
      "note": 90,
      "start": 50.2708,
      "duration": 0.7165,
      "velocity": 91,
      "chip": "ym2612"
    },
    {
      "channel": 5,
      "note": 86,
      "start": 50.273,
      "duration": 0.7165,
      "velocity": 91,
      "chip": "ym2612"
    },
    {
      "channel": 0,
      "note": 50,
      "start": 50.4502,
      "duration": 0.3663,
      "velocity": 96,
      "chip": "ym2612"
    },
    {
      "channel": 0,
      "note": 62,
      "start": 50.8168,
      "duration": 0.5331,
      "velocity": 96,
      "chip": "ym2612"
    },
    {
      "channel": 1,
      "note": 93,
      "start": 50.9852,
      "duration": 0.7331,
      "velocity": 91,
      "chip": "ym2612"
    },
    {
      "channel": 4,
      "note": 90,
      "start": 50.9875,
      "duration": 0.7331,
      "velocity": 91,
      "chip": "ym2612"
    },
    {
      "channel": 5,
      "note": 86,
      "start": 50.9896,
      "duration": 0.7332,
      "velocity": 91,
      "chip": "ym2612"
    },
    {
      "channel": 0,
      "note": 50,
      "start": 51.3501,
      "duration": 0.1831,
      "velocity": 96,
      "chip": "ym2612"
    },
    {
      "channel": 0,
      "note": 62,
      "start": 51.5334,
      "duration": 0.3499,
      "velocity": 96,
      "chip": "ym2612"
    },
    {
      "channel": 1,
      "note": 93,
      "start": 51.7185,
      "duration": 0.7165,
      "velocity": 91,
      "chip": "ym2612"
    },
    {
      "channel": 4,
      "note": 90,
      "start": 51.7208,
      "duration": 0.7165,
      "velocity": 91,
      "chip": "ym2612"
    },
    {
      "channel": 5,
      "note": 86,
      "start": 51.7229,
      "duration": 0.7165,
      "velocity": 91,
      "chip": "ym2612"
    },
    {
      "channel": 0,
      "note": 48,
      "start": 51.8836,
      "duration": 0.3663,
      "velocity": 96,
      "chip": "ym2612"
    },
    {
      "channel": 2,
      "note": 74,
      "start": 51.8841,
      "duration": 0.0006,
      "velocity": 111,
      "chip": "ym2612"
    },
    {
      "channel": 2,
      "note": 75,
      "start": 51.8848,
      "duration": 0.0316,
      "velocity": 111,
      "chip": "ym2612"
    },
    {
      "channel": 2,
      "note": 76,
      "start": 51.9164,
      "duration": 2.5008,
      "velocity": 111,
      "chip": "ym2612"
    },
    {
      "channel": 0,
      "note": 60,
      "start": 52.2501,
      "duration": 0.5332,
      "velocity": 96,
      "chip": "ym2612"
    },
    {
      "channel": 1,
      "note": 91,
      "start": 52.4352,
      "duration": 0.7165,
      "velocity": 91,
      "chip": "ym2612"
    },
    {
      "channel": 4,
      "note": 88,
      "start": 52.4375,
      "duration": 0.7165,
      "velocity": 91,
      "chip": "ym2612"
    },
    {
      "channel": 5,
      "note": 84,
      "start": 52.4396,
      "duration": 0.7165,
      "velocity": 91,
      "chip": "ym2612"
    },
    {
      "channel": 3,
      "note": 74,
      "start": 52.617,
      "duration": 0.0006,
      "velocity": 111,
      "chip": "ym2612"
    },
    {
      "channel": 3,
      "note": 75,
      "start": 52.6177,
      "duration": 0.0155,
      "velocity": 111,
      "chip": "ym2612"
    },
    {
      "channel": 3,
      "note": 76,
      "start": 52.6331,
      "duration": 2.5008,
      "velocity": 111,
      "chip": "ym2612"
    },
    {
      "channel": 0,
      "note": 48,
      "start": 52.7834,
      "duration": 0.1831,
      "velocity": 96,
      "chip": "ym2612"
    },
    {
      "channel": 0,
      "note": 60,
      "start": 52.9668,
      "duration": 0.3666,
      "velocity": 96,
      "chip": "ym2612"
    },
    {
      "channel": 1,
      "note": 91,
      "start": 53.1518,
      "duration": 0.7165,
      "velocity": 91,
      "chip": "ym2612"
    },
    {
      "channel": 4,
      "note": 88,
      "start": 53.1541,
      "duration": 0.7165,
      "velocity": 91,
      "chip": "ym2612"
    },
    {
      "channel": 5,
      "note": 84,
      "start": 53.1563,
      "duration": 0.7165,
      "velocity": 91,
      "chip": "ym2612"
    },
    {
      "channel": 0,
      "note": 48,
      "start": 53.3336,
      "duration": 0.3497,
      "velocity": 96,
      "chip": "ym2612"
    },
    {
      "channel": 0,
      "note": 60,
      "start": 53.6834,
      "duration": 0.5498,
      "velocity": 96,
      "chip": "ym2612"
    },
    {
      "channel": 1,
      "note": 95,
      "start": 53.8685,
      "duration": 0.7165,
      "velocity": 91,
      "chip": "ym2612"
    },
    {
      "channel": 4,
      "note": 91,
      "start": 53.8708,
      "duration": 0.717,
      "velocity": 91,
      "chip": "ym2612"
    },
    {
      "channel": 5,
      "note": 88,
      "start": 53.8729,
      "duration": 0.7171,
      "velocity": 91,
      "chip": "ym2612"
    },
    {
      "channel": 0,
      "note": 48,
      "start": 54.2334,
      "duration": 0.1831,
      "velocity": 96,
      "chip": "ym2612"
    },
    {
      "channel": 0,
      "note": 60,
      "start": 54.4168,
      "duration": 0.3499,
      "velocity": 96,
      "chip": "ym2612"
    },
    {
      "channel": 2,
      "note": 76,
      "start": 54.4174,
      "duration": 0.0006,
      "velocity": 111,
      "chip": "ym2612"
    },
    {
      "channel": 2,
      "note": 77,
      "start": 54.418,
      "duration": 0.015,
      "velocity": 111,
      "chip": "ym2612"
    },
    {
      "channel": 2,
      "note": 78,
      "start": 54.4331,
      "duration": 0.1525,
      "velocity": 111,
      "chip": "ym2612"
    },
    {
      "channel": 1,
      "note": 95,
      "start": 54.5852,
      "duration": 0.7332,
      "velocity": 91,
      "chip": "ym2612"
    },
    {
      "channel": 2,
      "note": 78,
      "start": 54.5857,
      "duration": 0.0048,
      "velocity": 111,
      "chip": "ym2612"
    },
    {
      "channel": 4,
      "note": 91,
      "start": 54.588,
      "duration": 0.7332,
      "velocity": 91,
      "chip": "ym2612"
    },
    {
      "channel": 5,
      "note": 88,
      "start": 54.5901,
      "duration": 0.7332,
      "velocity": 91,
      "chip": "ym2612"
    },
    {
      "channel": 2,
      "note": 79,
      "start": 54.5906,
      "duration": 0.0258,
      "velocity": 111,
      "chip": "ym2612"
    },
    {
      "channel": 2,
      "note": 79,
      "start": 54.6164,
      "duration": 0.151,
      "velocity": 111,
      "chip": "ym2612"
    },
    {
      "channel": 0,
      "note": 50,
      "start": 54.7669,
      "duration": 0.3663,
      "velocity": 96,
      "chip": "ym2612"
    },
    {
      "channel": 2,
      "note": 79,
      "start": 54.7675,
      "duration": 0.0006,
      "velocity": 111,
      "chip": "ym2612"
    },
    {
      "channel": 2,
      "note": 80,
      "start": 54.7681,
      "duration": 0.0149,
      "velocity": 111,
      "chip": "ym2612"
    },
    {
      "channel": 2,
      "note": 81,
      "start": 54.7831,
      "duration": 3.5853,
      "velocity": 111,
      "chip": "ym2612"
    },
    {
      "channel": 0,
      "note": 62,
      "start": 55.1334,
      "duration": 0.5332,
      "velocity": 96,
      "chip": "ym2612"
    },
    {
      "channel": 3,
      "note": 76,
      "start": 55.1341,
      "duration": 0.0006,
      "velocity": 111,
      "chip": "ym2612"
    },
    {
      "channel": 3,
      "note": 77,
      "start": 55.1348,
      "duration": 0.015,
      "velocity": 111,
      "chip": "ym2612"
    },
    {
      "channel": 3,
      "note": 78,
      "start": 55.1498,
      "duration": 0.1692,
      "velocity": 111,
      "chip": "ym2612"
    },
    {
      "channel": 1,
      "note": 93,
      "start": 55.3185,
      "duration": 0.7164,
      "velocity": 91,
      "chip": "ym2612"
    },
    {
      "channel": 3,
      "note": 78,
      "start": 55.3191,
      "duration": 0.0049,
      "velocity": 111,
      "chip": "ym2612"
    },
    {
      "channel": 4,
      "note": 90,
      "start": 55.3213,
      "duration": 0.716,
      "velocity": 91,
      "chip": "ym2612"
    },
    {
      "channel": 5,
      "note": 86,
      "start": 55.3235,
      "duration": 0.7159,
      "velocity": 91,
      "chip": "ym2612"
    },
    {
      "channel": 3,
      "note": 79,
      "start": 55.324,
      "duration": 0.0091,
      "velocity": 111,
      "chip": "ym2612"
    },
    {
      "channel": 3,
      "note": 79,
      "start": 55.3331,
      "duration": 0.1504,
      "velocity": 111,
      "chip": "ym2612"
    },
    {
      "channel": 3,
      "note": 79,
      "start": 55.4837,
      "duration": 0.0006,
      "velocity": 111,
      "chip": "ym2612"
    },
    {
      "channel": 3,
      "note": 80,
      "start": 55.4843,
      "duration": 0.0321,
      "velocity": 111,
      "chip": "ym2612"
    },
    {
      "channel": 3,
      "note": 81,
      "start": 55.5165,
      "duration": 2.138,
      "velocity": 97,
      "chip": "ym2612"
    },
    {
      "channel": 0,
      "note": 50,
      "start": 55.6668,
      "duration": 0.1831,
      "velocity": 96,
      "chip": "ym2612"
    },
    {
      "channel": 0,
      "note": 62,
      "start": 55.8501,
      "duration": 0.3666,
      "velocity": 96,
      "chip": "ym2612"
    },
    {
      "channel": 1,
      "note": 93,
      "start": 56.0352,
      "duration": 0.7165,
      "velocity": 91,
      "chip": "ym2612"
    },
    {
      "channel": 4,
      "note": 90,
      "start": 56.0375,
      "duration": 0.7165,
      "velocity": 91,
      "chip": "ym2612"
    },
    {
      "channel": 5,
      "note": 86,
      "start": 56.0396,
      "duration": 0.7165,
      "velocity": 91,
      "chip": "ym2612"
    },
    {
      "channel": 0,
      "note": 50,
      "start": 56.2168,
      "duration": 0.3497,
      "velocity": 96,
      "chip": "ym2612"
    },
    {
      "channel": 0,
      "note": 62,
      "start": 56.5668,
      "duration": 0.5499,
      "velocity": 96,
      "chip": "ym2612"
    },
    {
      "channel": 1,
      "note": 93,
      "start": 56.7518,
      "duration": 0.1815,
      "velocity": 91,
      "chip": "ym2612"
    },
    {
      "channel": 4,
      "note": 90,
      "start": 56.7541,
      "duration": 0.18,
      "velocity": 91,
      "chip": "ym2612"
    },
    {
      "channel": 5,
      "note": 86,
      "start": 56.7563,
      "duration": 0.1784,
      "velocity": 91,
      "chip": "ym2612"
    },
    {
      "channel": 1,
      "note": 95,
      "start": 56.9336,
      "duration": 0.3504,
      "velocity": 91,
      "chip": "ym2612"
    },
    {
      "channel": 4,
      "note": 91,
      "start": 56.9343,
      "duration": 0.3504,
      "velocity": 91,
      "chip": "ym2612"
    },
    {
      "channel": 5,
      "note": 88,
      "start": 56.9349,
      "duration": 0.3504,
      "velocity": 91,
      "chip": "ym2612"
    },
    {
      "channel": 0,
      "note": 50,
      "start": 57.1169,
      "duration": 0.1665,
      "velocity": 96,
      "chip": "ym2612"
    },
    {
      "channel": 0,
      "note": 62,
      "start": 57.2836,
      "duration": 0.3666,
      "velocity": 96,
      "chip": "ym2612"
    },
    {
      "channel": 1,
      "note": 96,
      "start": 57.2841,
      "duration": 0.3681,
      "velocity": 111,
      "chip": "ym2612"
    },
    {
      "channel": 4,
      "note": 93,
      "start": 57.2849,
      "duration": 0.5503,
      "velocity": 97,
      "chip": "ym2612"
    },
    {
      "channel": 5,
      "note": 90,
      "start": 57.2854,
      "duration": 0.7337,
      "velocity": 97,
      "chip": "ym2612"
    },
    {
      "channel": 0,
      "note": 55,
      "start": 57.6503,
      "duration": 0.3663,
      "velocity": 96,
      "chip": "ym2612"
    },
    {
      "channel": 1,
      "note": 74,
      "start": 57.6525,
      "duration": 0.8922,
      "velocity": 111,
      "chip": "ym2612"
    },
    {
      "channel": 3,
      "note": 55,
      "start": 57.6547,
      "duration": 0.5293,
      "velocity": 97,
      "chip": "ym2612"
    },
    {
      "channel": 4,
      "note": 59,
      "start": 57.8354,
      "duration": 0.7093,
      "velocity": 97,
      "chip": "ym2612"
    },
    {
      "channel": 0,
      "note": 67,
      "start": 58.0168,
      "duration": 0.1665,
      "velocity": 96,
      "chip": "ym2612"
    },
    {
      "channel": 5,
      "note": 62,
      "start": 58.0193,
      "duration": 0.5254,
      "velocity": 97,
      "chip": "ym2612"
    },
    {
      "channel": 0,
      "note": 55,
      "start": 58.1835,
      "duration": 0.3611,
      "velocity": 96,
      "chip": "ym2612"
    },
    {
      "channel": 3,
      "note": 67,
      "start": 58.1842,
      "duration": 0.3604,
      "velocity": 97,
      "chip": "ym2612"
    },
    {
      "channel": 2,
      "note": 74,
      "start": 58.3685,
      "duration": 0.1761,
      "velocity": 111,
      "chip": "ym2612"
    }
  ]
}