{
  "track_name": "30 - Behind the Marionette",
  "duration_sec": 43.701,
  "sample_rate": 44100,
  "note_count": 1050,
  "unique_pitches": 31,
  "pitch_range": 58,
  "avg_note_duration": 0.2399,
  "reconstruction_stats": {
    "notes_reconstructed": 1050,
    "keyon_events": 1050,
    "keyoff_events": 1044,
    "orphan_keyons": 6,
    "unique_pitches": 31,
    "pitch_range": 58,
    "avg_duration_sec": 0.2399
  },
  "metadata": {
    "source": "S\\Sorcerian (Genesis)\\30 - Behind the Marionette.vgz"
  },
  "notes": [
    {
      "channel": 0,
      "note": 61,
      "start": 0.0,
      "duration": 2.0079,
      "velocity": 102,
      "chip": "ym2612"
    },
    {
      "channel": 1,
      "note": 49,
      "start": 0.0023,
      "duration": 0.0952,
      "velocity": 91,
      "chip": "ym2612"
    },
    {
      "channel": 3,
      "note": 56,
      "start": 0.0074,
      "duration": 2.0021,
      "velocity": 102,
      "chip": "ym2612"
    },
    {
      "channel": 2,
      "note": 27,
      "start": 0.0118,
      "duration": 0.0823,
      "velocity": 119,
      "chip": "ym2612"
    },
    {
      "channel": 5,
      "note": 73,
      "start": 0.0238,
      "duration": 2.0284,
      "velocity": 102,
      "chip": "ym2612"
    },
    {
      "channel": 1,
      "note": 61,
      "start": 0.0981,
      "duration": 0.1107,
      "velocity": 91,
      "chip": "ym2612"
    },
    {
      "channel": 2,
      "note": 66,
      "start": 0.0999,
      "duration": 0.1037,
      "velocity": 127,
      "chip": "ym2612"
    },
    {
      "channel": 1,
      "note": 49,
      "start": 0.2093,
      "duration": 0.2178,
      "velocity": 91,
      "chip": "ym2612"
    },
    {
      "channel": 4,
      "note": 61,
      "start": 0.2109,
      "duration": 0.2174,
      "velocity": 87,
      "chip": "ym2612"
    },
    {
      "channel": 2,
      "note": 27,
      "start": 0.2123,
      "duration": 0.101,
      "velocity": 119,
      "chip": "ym2612"
    },
    {
      "channel": 2,
      "note": 66,
      "start": 0.319,
      "duration": 0.1048,
      "velocity": 127,
      "chip": "ym2612"
    },
    {
      "channel": 1,
      "note": 62,
      "start": 0.4277,
      "duration": 0.2148,
      "velocity": 91,
      "chip": "ym2612"
    },
    {
      "channel": 4,
      "note": 68,
      "start": 0.4293,
      "duration": 0.2331,
      "velocity": 87,
      "chip": "ym2612"
    },
    {
      "channel": 2,
      "note": 73,
      "start": 0.4307,
      "duration": 0.1173,
      "velocity": 120,
      "chip": "ym2612"
    },
    {
      "channel": 2,
      "note": 66,
      "start": 0.5538,
      "duration": 0.1037,
      "velocity": 127,
      "chip": "ym2612"
    },
    {
      "channel": 1,
      "note": 50,
      "start": 0.6618,
      "duration": 0.1091,
      "velocity": 91,
      "chip": "ym2612"
    },
    {
      "channel": 4,
      "note": 64,
      "start": 0.6632,
      "duration": 0.4533,
      "velocity": 87,
      "chip": "ym2612"
    },
    {
      "channel": 2,
      "note": 27,
      "start": 0.6646,
      "duration": 0.1025,
      "velocity": 119,
      "chip": "ym2612"
    },
    {
      "channel": 1,
      "note": 62,
      "start": 0.7715,
      "duration": 0.2195,
      "velocity": 91,
      "chip": "ym2612"
    },
    {
      "channel": 2,
      "note": 27,
      "start": 0.7753,
      "duration": 0.1013,
      "velocity": 119,
      "chip": "ym2612"
    },
    {
      "channel": 2,
      "note": 27,
      "start": 0.8829,
      "duration": 0.1032,
      "velocity": 119,
      "chip": "ym2612"
    },
    {
      "channel": 1,
      "note": 50,
      "start": 0.9915,
      "duration": 0.1236,
      "velocity": 91,
      "chip": "ym2612"
    },
    {
      "channel": 2,
      "note": 66,
      "start": 0.9941,
      "duration": 0.1172,
      "velocity": 127,
      "chip": "ym2612"
    },
    {
      "channel": 1,
      "note": 62,
      "start": 1.1158,
      "duration": 0.2181,
      "velocity": 91,
      "chip": "ym2612"
    },
    {
      "channel": 4,
      "note": 61,
      "start": 1.1174,
      "duration": 0.2179,
      "velocity": 87,
      "chip": "ym2612"
    },
    {
      "channel": 2,
      "note": 27,
      "start": 1.1189,
      "duration": 0.102,
      "velocity": 119,
      "chip": "ym2612"
    },
    {
      "channel": 2,
      "note": 66,
      "start": 1.2282,
      "duration": 0.1023,
      "velocity": 127,
      "chip": "ym2612"
    },
    {
      "channel": 1,
      "note": 64,
      "start": 1.3345,
      "duration": 0.2186,
      "velocity": 91,
      "chip": "ym2612"
    },
    {
      "channel": 4,
      "note": 68,
      "start": 1.3361,
      "duration": 0.2183,
      "velocity": 87,
      "chip": "ym2612"
    },
    {
      "channel": 2,
      "note": 73,
      "start": 1.3377,
      "duration": 0.103,
      "velocity": 120,
      "chip": "ym2612"
    },
    {
      "channel": 2,
      "note": 66,
      "start": 1.4468,
      "duration": 0.1029,
      "velocity": 127,
      "chip": "ym2612"
    },
    {
      "channel": 1,
      "note": 62,
      "start": 1.5536,
      "duration": 0.2157,
      "velocity": 91,
      "chip": "ym2612"
    },
    {
      "channel": 4,
      "note": 64,
      "start": 1.5553,
      "duration": 0.4549,
      "velocity": 87,
      "chip": "ym2612"
    },
    {
      "channel": 2,
      "note": 66,
      "start": 1.5581,
      "duration": 0.1166,
      "velocity": 127,
      "chip": "ym2612"
    },
    {
      "channel": 2,
      "note": 66,
      "start": 1.6809,
      "duration": 0.1034,
      "velocity": 127,
      "chip": "ym2612"
    },
    {
      "channel": 1,
      "note": 49,
      "start": 1.7901,
      "duration": 0.1072,
      "velocity": 91,
      "chip": "ym2612"
    },
    {
      "channel": 2,
      "note": 27,
      "start": 1.7924,
      "duration": 0.1014,
      "velocity": 119,
      "chip": "ym2612"
    },
    {
      "channel": 1,
      "note": 61,
      "start": 1.8978,
      "duration": 0.111,
      "velocity": 91,
      "chip": "ym2612"
    },
    {
      "channel": 2,
      "note": 66,
      "start": 1.9004,
      "duration": 0.103,
      "velocity": 127,
      "chip": "ym2612"
    },
    {
      "channel": 0,
      "note": 61,
      "start": 2.0086,
      "duration": 0.2337,
      "velocity": 102,
      "chip": "ym2612"
    },
    {
      "channel": 1,
      "note": 49,
      "start": 2.0093,
      "duration": 0.2151,
      "velocity": 91,
      "chip": "ym2612"
    },
    {
      "channel": 3,
      "note": 56,
      "start": 2.01,
      "duration": 0.2339,
      "velocity": 102,
      "chip": "ym2612"
    },
    {
      "channel": 4,
      "note": 61,
      "start": 2.0111,
      "duration": 0.2339,
      "velocity": 87,
      "chip": "ym2612"
    },
    {
      "channel": 2,
      "note": 27,
      "start": 2.0125,
      "duration": 0.1004,
      "velocity": 119,
      "chip": "ym2612"
    },
    {
      "channel": 5,
      "note": 73,
      "start": 2.0529,
      "duration": 0.2184,
      "velocity": 102,
      "chip": "ym2612"
    },
    {
      "channel": 2,
      "note": 66,
      "start": 2.1188,
      "duration": 0.1193,
      "velocity": 127,
      "chip": "ym2612"
    },
    {
      "channel": 0,
      "note": 62,
      "start": 2.2431,
      "duration": 0.2176,
      "velocity": 102,
      "chip": "ym2612"
    },
    {
      "channel": 1,
      "note": 62,
      "start": 2.2438,
      "duration": 0.2179,
      "velocity": 91,
      "chip": "ym2612"
    },
    {
      "channel": 3,
      "note": 57,
      "start": 2.2448,
      "duration": 0.2176,
      "velocity": 102,
      "chip": "ym2612"
    },
    {
      "channel": 4,
      "note": 68,
      "start": 2.2458,
      "duration": 0.2176,
      "velocity": 87,
      "chip": "ym2612"
    },
    {
      "channel": 2,
      "note": 73,
      "start": 2.2472,
      "duration": 0.1005,
      "velocity": 120,
      "chip": "ym2612"
    },
    {
      "channel": 5,
      "note": 74,
      "start": 2.2735,
      "duration": 0.2182,
      "velocity": 102,
      "chip": "ym2612"
    },
    {
      "channel": 2,
      "note": 66,
      "start": 2.3533,
      "duration": 0.1041,
      "velocity": 127,
      "chip": "ym2612"
    },
    {
      "channel": 0,
      "note": 64,
      "start": 2.4615,
      "duration": 0.218,
      "velocity": 102,
      "chip": "ym2612"
    },
    {
      "channel": 1,
      "note": 50,
      "start": 2.4622,
      "duration": 0.1083,
      "velocity": 91,
      "chip": "ym2612"
    },
    {
      "channel": 3,
      "note": 59,
      "start": 2.4632,
      "duration": 0.2176,
      "velocity": 102,
      "chip": "ym2612"
    },
    {
      "channel": 4,
      "note": 64,
      "start": 2.4642,
      "duration": 0.4526,
      "velocity": 87,
      "chip": "ym2612"
    },
    {
      "channel": 2,
      "note": 27,
      "start": 2.4656,
      "duration": 0.1012,
      "velocity": 119,
      "chip": "ym2612"
    },
    {
      "channel": 5,
      "note": 76,
      "start": 2.4925,
      "duration": 0.2333,
      "velocity": 102,
      "chip": "ym2612"
    },
    {
      "channel": 1,
      "note": 61,
      "start": 2.5711,
      "duration": 0.2155,
      "velocity": 91,
      "chip": "ym2612"
    },
    {
      "channel": 2,
      "note": 27,
      "start": 2.5746,
      "duration": 0.1017,
      "velocity": 119,
      "chip": "ym2612"
    },
    {
      "channel": 0,
      "note": 66,
      "start": 2.6803,
      "duration": 0.2339,
      "velocity": 102,
      "chip": "ym2612"
    },
    {
      "channel": 3,
      "note": 61,
      "start": 2.6817,
      "duration": 0.2344,
      "velocity": 102,
      "chip": "ym2612"
    },
    {
      "channel": 2,
      "note": 27,
      "start": 2.6834,
      "duration": 0.1181,
      "velocity": 119,
      "chip": "ym2612"
    },
    {
      "channel": 5,
      "note": 78,
      "start": 2.7266,
      "duration": 0.2174,
      "velocity": 102,
      "chip": "ym2612"
    },
    {
      "channel": 1,
      "note": 47,
      "start": 2.8067,
      "duration": 0.1085,
      "velocity": 91,
      "chip": "ym2612"
    },
    {
      "channel": 2,
      "note": 66,
      "start": 2.8091,
      "duration": 0.102,
      "velocity": 127,
      "chip": "ym2612"
    },
    {
      "channel": 0,
      "note": 64,
      "start": 2.9151,
      "duration": 0.4526,
      "velocity": 102,
      "chip": "ym2612"
    },
    {
      "channel": 1,
      "note": 59,
      "start": 2.9158,
      "duration": 0.2177,
      "velocity": 91,
      "chip": "ym2612"
    },
    {
      "channel": 3,
      "note": 59,
      "start": 2.9167,
      "duration": 0.4527,
      "velocity": 102,
      "chip": "ym2612"
    },
    {
      "channel": 4,
      "note": 61,
      "start": 2.9177,
      "duration": 0.2169,
      "velocity": 87,
      "chip": "ym2612"
    },
    {
      "channel": 2,
      "note": 27,
      "start": 2.9191,
      "duration": 0.1015,
      "velocity": 119,
      "chip": "ym2612"
    },
    {
      "channel": 5,
      "note": 76,
      "start": 2.945,
      "duration": 0.4531,
      "velocity": 102,
      "chip": "ym2612"
    },
    {
      "channel": 2,
      "note": 66,
      "start": 3.0278,
      "duration": 0.1024,
      "velocity": 127,
      "chip": "ym2612"
    },
    {
      "channel": 1,
      "note": 61,
      "start": 3.1341,
      "duration": 0.2159,
      "velocity": 91,
      "chip": "ym2612"
    },
    {
      "channel": 4,
      "note": 68,
      "start": 3.1355,
      "duration": 0.235,
      "velocity": 87,
      "chip": "ym2612"
    },
    {
      "channel": 2,
      "note": 73,
      "start": 3.1369,
      "duration": 0.1038,
      "velocity": 120,
      "chip": "ym2612"
    },
    {
      "channel": 2,
      "note": 66,
      "start": 3.2466,
      "duration": 0.1184,
      "velocity": 127,
      "chip": "ym2612"
    },
    {
      "channel": 0,
      "note": 62,
      "start": 3.3686,
      "duration": 0.2188,
      "velocity": 102,
      "chip": "ym2612"
    },
    {
      "channel": 1,
      "note": 49,
      "start": 3.3693,
      "duration": 0.2206,
      "velocity": 91,
      "chip": "ym2612"
    },
    {
      "channel": 3,
      "note": 57,
      "start": 3.3703,
      "duration": 0.2204,
      "velocity": 102,
      "chip": "ym2612"
    },
    {
      "channel": 4,
      "note": 64,
      "start": 3.3713,
      "duration": 0.2204,
      "velocity": 87,
      "chip": "ym2612"
    },
    {
      "channel": 2,
      "note": 66,
      "start": 3.374,
      "duration": 0.1004,
      "velocity": 127,
      "chip": "ym2612"
    },
    {
      "channel": 5,
      "note": 74,
      "start": 3.399,
      "duration": 0.2181,
      "velocity": 102,
      "chip": "ym2612"
    },
    {
      "channel": 2,
      "note": 66,
      "start": 3.4801,
      "duration": 0.1041,
      "velocity": 127,
      "chip": "ym2612"
    },
    {
      "channel": 0,
      "note": 61,
      "start": 3.5882,
      "duration": 0.1081,
      "velocity": 102,
      "chip": "ym2612"
    },
    {
      "channel": 1,
      "note": 49,
      "start": 3.5905,
      "duration": 0.1068,
      "velocity": 91,
      "chip": "ym2612"
    },
    {
      "channel": 3,
      "note": 56,
      "start": 3.5915,
      "duration": 0.1065,
      "velocity": 102,
      "chip": "ym2612"
    },
    {
      "channel": 4,
      "note": 61,
      "start": 3.5925,
      "duration": 0.1064,
      "velocity": 87,
      "chip": "ym2612"
    },
    {
      "channel": 2,
      "note": 27,
      "start": 3.5939,
      "duration": 0.0996,
      "velocity": 119,
      "chip": "ym2612"
    },
    {
      "channel": 5,
      "note": 73,
      "start": 3.618,
      "duration": 0.1246,
      "velocity": 102,
      "chip": "ym2612"
    },
    {
      "channel": 0,
      "note": 62,
      "start": 3.6972,
      "duration": 0.1104,
      "velocity": 102,
      "chip": "ym2612"
    },
    {
      "channel": 1,
      "note": 61,
      "start": 3.6979,
      "duration": 0.1107,
      "velocity": 91,
      "chip": "ym2612"
    },
    {
      "channel": 3,
      "note": 57,
      "start": 3.6987,
      "duration": 0.1106,
      "velocity": 102,
      "chip": "ym2612"
    },
    {
      "channel": 4,
      "note": 56,
      "start": 3.6997,
      "duration": 0.1106,
      "velocity": 87,
      "chip": "ym2612"
    },
    {
      "channel": 2,
      "note": 66,
      "start": 3.7011,
      "duration": 0.102,
      "velocity": 127,
      "chip": "ym2612"
    },
    {
      "channel": 5,
      "note": 74,
      "start": 3.7435,
      "duration": 0.1083,
      "velocity": 102,
      "chip": "ym2612"
    },
    {
      "channel": 0,
      "note": 61,
      "start": 3.8085,
      "duration": 0.1226,
      "velocity": 102,
      "chip": "ym2612"
    },
    {
      "channel": 1,
      "note": 49,
      "start": 3.8092,
      "duration": 0.2149,
      "velocity": 91,
      "chip": "ym2612"
    },
    {
      "channel": 3,
      "note": 56,
      "start": 3.8102,
      "duration": 0.1222,
      "velocity": 102,
      "chip": "ym2612"
    },
    {
      "channel": 4,
      "note": 61,
      "start": 3.8112,
      "duration": 0.1223,
      "velocity": 87,
      "chip": "ym2612"
    },
    {
      "channel": 2,
      "note": 27,
      "start": 3.8126,
      "duration": 0.1157,
      "velocity": 119,
      "chip": "ym2612"
    },
    {
      "channel": 5,
      "note": 73,
      "start": 3.8526,
      "duration": 0.1088,
      "velocity": 102,
      "chip": "ym2612"
    },
    {
      "channel": 0,
      "note": 59,
      "start": 3.932,
      "duration": 0.11,
      "velocity": 102,
      "chip": "ym2612"
    },
    {
      "channel": 3,
      "note": 54,
      "start": 3.9333,
      "duration": 0.1104,
      "velocity": 102,
      "chip": "ym2612"
    },
    {
      "channel": 4,
      "note": 56,
      "start": 3.9343,
      "duration": 0.1102,
      "velocity": 87,
      "chip": "ym2612"
    },
    {
      "channel": 2,
      "note": 66,
      "start": 3.9357,
      "duration": 0.1022,
      "velocity": 127,
      "chip": "ym2612"
    },
    {
      "channel": 5,
      "note": 71,
      "start": 3.9623,
      "duration": 0.1085,
      "velocity": 102,
      "chip": "ym2612"
    },
    {
      "channel": 0,
      "note": 61,
      "start": 4.0428,
      "duration": 1.1246,
      "velocity": 102,
      "chip": "ym2612"
    },
    {
      "channel": 1,
      "note": 62,
      "start": 4.0436,
      "duration": 0.2176,
      "velocity": 91,
      "chip": "ym2612"
    },
    {
      "channel": 3,
      "note": 56,
      "start": 4.0444,
      "duration": 3.1456,
      "velocity": 102,
      "chip": "ym2612"
    },
    {
      "channel": 4,
      "note": 52,
      "start": 4.0454,
      "duration": 0.451,
      "velocity": 87,
      "chip": "ym2612"
    },
    {
      "channel": 2,
      "note": 73,
      "start": 4.0468,
      "duration": 0.1006,
      "velocity": 120,
      "chip": "ym2612"
    },
    {
      "channel": 5,
      "note": 73,
      "start": 4.0717,
      "duration": 1.126,
      "velocity": 102,
      "chip": "ym2612"
    },
    {
      "channel": 2,
      "note": 66,
      "start": 4.1532,
      "duration": 0.1042,
      "velocity": 127,
      "chip": "ym2612"
    },
    {
      "channel": 1,
      "note": 50,
      "start": 4.2618,
      "duration": 0.1084,
      "velocity": 91,
      "chip": "ym2612"
    },
    {
      "channel": 2,
      "note": 27,
      "start": 4.2639,
      "duration": 0.1025,
      "velocity": 119,
      "chip": "ym2612"
    },
    {
      "channel": 1,
      "note": 62,
      "start": 4.3707,
      "duration": 0.2155,
      "velocity": 91,
      "chip": "ym2612"
    },
    {
      "channel": 2,
      "note": 27,
      "start": 4.3744,
      "duration": 0.1174,
      "velocity": 119,
      "chip": "ym2612"
    },
    {
      "channel": 4,
      "note": 61,
      "start": 4.4972,
      "duration": 0.1097,
      "velocity": 87,
      "chip": "ym2612"
    },
    {
      "channel": 2,
      "note": 27,
      "start": 4.4986,
      "duration": 0.1026,
      "velocity": 119,
      "chip": "ym2612"
    },
    {
      "channel": 1,
      "note": 50,
      "start": 4.6051,
      "duration": 0.1093,
      "velocity": 91,
      "chip": "ym2612"
    },
    {
      "channel": 4,
      "note": 56,
      "start": 4.6078,
      "duration": 0.1079,
      "velocity": 87,
      "chip": "ym2612"
    },
    {
      "channel": 2,
      "note": 66,
      "start": 4.6092,
      "duration": 0.1015,
      "velocity": 127,
      "chip": "ym2612"
    },
    {
      "channel": 1,
      "note": 62,
      "start": 4.7151,
      "duration": 0.2182,
      "velocity": 91,
      "chip": "ym2612"
    },
    {
      "channel": 4,
      "note": 61,
      "start": 4.7167,
      "duration": 0.1092,
      "velocity": 87,
      "chip": "ym2612"
    },
    {
      "channel": 2,
      "note": 27,
      "start": 4.718,
      "duration": 0.1023,
      "velocity": 119,
      "chip": "ym2612"
    },
    {
      "channel": 4,
      "note": 56,
      "start": 4.8267,
      "duration": 0.108,
      "velocity": 87,
      "chip": "ym2612"
    },
    {
      "channel": 2,
      "note": 66,
      "start": 4.8282,
      "duration": 0.1016,
      "velocity": 127,
      "chip": "ym2612"
    },
    {
      "channel": 1,
      "note": 64,
      "start": 4.9338,
      "duration": 0.2158,
      "velocity": 91,
      "chip": "ym2612"
    },
    {
      "channel": 4,
      "note": 52,
      "start": 4.9355,
      "duration": 0.455,
      "velocity": 87,
      "chip": "ym2612"
    },
    {
      "channel": 2,
      "note": 73,
      "start": 4.937,
      "duration": 0.118,
      "velocity": 120,
      "chip": "ym2612"
    },
    {
      "channel": 2,
      "note": 66,
      "start": 5.0625,
      "duration": 0.1021,
      "velocity": 127,
      "chip": "ym2612"
    },
    {
      "channel": 0,
      "note": 59,
      "start": 5.1683,
      "duration": 0.1087,
      "velocity": 102,
      "chip": "ym2612"
    },
    {
      "channel": 1,
      "note": 62,
      "start": 5.169,
      "duration": 0.219,
      "velocity": 91,
      "chip": "ym2612"
    },
    {
      "channel": 2,
      "note": 66,
      "start": 5.1714,
      "duration": 0.1028,
      "velocity": 127,
      "chip": "ym2612"
    },
    {
      "channel": 5,
      "note": 71,
      "start": 5.1986,
      "duration": 0.1101,
      "velocity": 102,
      "chip": "ym2612"
    },
    {
      "channel": 0,
      "note": 57,
      "start": 5.2778,
      "duration": 0.1092,
      "velocity": 102,
      "chip": "ym2612"
    },
    {
      "channel": 2,
      "note": 66,
      "start": 5.2806,
      "duration": 0.1032,
      "velocity": 127,
      "chip": "ym2612"
    },
    {
      "channel": 5,
      "note": 69,
      "start": 5.3096,
      "duration": 0.123,
      "velocity": 102,
      "chip": "ym2612"
    },
    {
      "channel": 0,
      "note": 59,
      "start": 5.3879,
      "duration": 1.689,
      "velocity": 102,
      "chip": "ym2612"
    },
    {
      "channel": 1,
      "note": 49,
      "start": 5.3899,
      "duration": 0.1066,
      "velocity": 91,
      "chip": "ym2612"
    },
    {
      "channel": 4,
      "note": 61,
      "start": 5.3914,
      "duration": 0.1065,
      "velocity": 87,
      "chip": "ym2612"
    },
    {
      "channel": 2,
      "note": 27,
      "start": 5.3928,
      "duration": 0.1004,
      "velocity": 119,
      "chip": "ym2612"
    },
    {
      "channel": 5,
      "note": 71,
      "start": 5.4334,
      "duration": 1.6907,
      "velocity": 102,
      "chip": "ym2612"
    },
    {
      "channel": 1,
      "note": 61,
      "start": 5.4971,
      "duration": 0.1263,
      "velocity": 91,
      "chip": "ym2612"
    },
    {
      "channel": 4,
      "note": 56,
      "start": 5.4988,
      "duration": 0.126,
      "velocity": 87,
      "chip": "ym2612"
    },
    {
      "channel": 2,
      "note": 66,
      "start": 5.5002,
      "duration": 0.1182,
      "velocity": 127,
      "chip": "ym2612"
    },
    {
      "channel": 1,
      "note": 49,
      "start": 5.624,
      "duration": 0.2181,
      "velocity": 91,
      "chip": "ym2612"
    },
    {
      "channel": 4,
      "note": 61,
      "start": 5.6257,
      "duration": 0.1065,
      "velocity": 87,
      "chip": "ym2612"
    },
    {
      "channel": 2,
      "note": 27,
      "start": 5.627,
      "duration": 0.101,
      "velocity": 119,
      "chip": "ym2612"
    },
    {
      "channel": 4,
      "note": 56,
      "start": 5.733,
      "duration": 0.1105,
      "velocity": 87,
      "chip": "ym2612"
    },
    {
      "channel": 2,
      "note": 66,
      "start": 5.7344,
      "duration": 0.1031,
      "velocity": 127,
      "chip": "ym2612"
    },
    {
      "channel": 1,
      "note": 62,
      "start": 5.8427,
      "duration": 0.2184,
      "velocity": 91,
      "chip": "ym2612"
    },
    {
      "channel": 4,
      "note": 52,
      "start": 5.8444,
      "duration": 0.4516,
      "velocity": 87,
      "chip": "ym2612"
    },
    {
      "channel": 2,
      "note": 73,
      "start": 5.8458,
      "duration": 0.1013,
      "velocity": 120,
      "chip": "ym2612"
    },
    {
      "channel": 2,
      "note": 66,
      "start": 5.9529,
      "duration": 0.1046,
      "velocity": 127,
      "chip": "ym2612"
    },
    {
      "channel": 1,
      "note": 50,
      "start": 6.0618,
      "duration": 0.1239,
      "velocity": 91,
      "chip": "ym2612"
    },
    {
      "channel": 2,
      "note": 27,
      "start": 6.0641,
      "duration": 0.1177,
      "velocity": 119,
      "chip": "ym2612"
    },
    {
      "channel": 1,
      "note": 61,
      "start": 6.1863,
      "duration": 0.2181,
      "velocity": 91,
      "chip": "ym2612"
    },
    {
      "channel": 2,
      "note": 27,
      "start": 6.19,
      "duration": 0.1013,
      "velocity": 119,
      "chip": "ym2612"
    },
    {
      "channel": 4,
      "note": 61,
      "start": 6.2969,
      "duration": 0.1102,
      "velocity": 87,
      "chip": "ym2612"
    },
    {
      "channel": 2,
      "note": 27,
      "start": 6.2983,
      "duration": 0.1026,
      "velocity": 119,
      "chip": "ym2612"
    },
    {
      "channel": 1,
      "note": 47,
      "start": 6.4049,
      "duration": 0.1094,
      "velocity": 91,
      "chip": "ym2612"
    },
    {
      "channel": 4,
      "note": 56,
      "start": 6.4079,
      "duration": 0.1076,
      "velocity": 87,
      "chip": "ym2612"
    },
    {
      "channel": 2,
      "note": 66,
      "start": 6.4094,
      "duration": 0.1011,
      "velocity": 127,
      "chip": "ym2612"
    },
    {
      "channel": 1,
      "note": 59,
      "start": 6.5149,
      "duration": 0.2155,
      "velocity": 91,
      "chip": "ym2612"
    },
    {
      "channel": 4,
      "note": 61,
      "start": 6.5164,
      "duration": 0.1094,
      "velocity": 87,
      "chip": "ym2612"
    },
    {
      "channel": 2,
      "note": 27,
      "start": 6.5179,
      "duration": 0.1022,
      "velocity": 119,
      "chip": "ym2612"
    },
    {
      "channel": 4,
      "note": 56,
      "start": 6.6266,
      "duration": 0.1234,
      "velocity": 87,
      "chip": "ym2612"
    },
    {
      "channel": 2,
      "note": 66,
      "start": 6.6282,
      "duration": 0.1171,
      "velocity": 127,
      "chip": "ym2612"
    },
    {
      "channel": 1,
      "note": 61,
      "start": 6.7492,
      "duration": 0.2185,
      "velocity": 91,
      "chip": "ym2612"
    },
    {
      "channel": 4,
      "note": 52,
      "start": 6.7509,
      "duration": 0.4403,
      "velocity": 87,
      "chip": "ym2612"
    },
    {
      "channel": 2,
      "note": 73,
      "start": 6.7525,
      "duration": 0.1023,
      "velocity": 120,
      "chip": "ym2612"
    },
    {
      "channel": 2,
      "note": 66,
      "start": 6.8621,
      "duration": 0.1022,
      "velocity": 127,
      "chip": "ym2612"
    },
    {
      "channel": 1,
      "note": 49,
      "start": 6.9683,
      "duration": 0.2197,
      "velocity": 91,
      "chip": "ym2612"
    },
    {
      "channel": 2,
      "note": 66,
      "start": 6.9708,
      "duration": 0.1033,
      "velocity": 127,
      "chip": "ym2612"
    },
    {
      "channel": 0,
      "note": 66,
      "start": 7.0777,
      "duration": 0.109,
      "velocity": 102,
      "chip": "ym2612"
    },
    {
      "channel": 2,
      "note": 66,
      "start": 7.0805,
      "duration": 0.103,
      "velocity": 127,
      "chip": "ym2612"
    },
    {
      "channel": 5,
      "note": 78,
      "start": 7.125,
      "duration": 0.1068,
      "velocity": 102,
      "chip": "ym2612"
    },
    {
      "channel": 0,
      "note": 68,
      "start": 7.1875,
      "duration": 2.0335,
      "velocity": 102,
      "chip": "ym2612"
    },
    {
      "channel": 1,
      "note": 49,
      "start": 7.1885,
      "duration": 0.1234,
      "velocity": 91,
      "chip": "ym2612"
    },
    {
      "channel": 3,
      "note": 64,
      "start": 7.1909,
      "duration": 2.0331,
      "velocity": 102,
      "chip": "ym2612"
    },
    {
      "channel": 2,
      "note": 27,
      "start": 7.1929,
      "duration": 0.1157,
      "velocity": 119,
      "chip": "ym2612"
    },
    {
      "channel": 5,
      "note": 80,
      "start": 7.2327,
      "duration": 2.0183,
      "velocity": 102,
      "chip": "ym2612"
    },
    {
      "channel": 1,
      "note": 61,
      "start": 7.3125,
      "duration": 0.1094,
      "velocity": 91,
      "chip": "ym2612"
    },
    {
      "channel": 2,
      "note": 66,
      "start": 7.3146,
      "duration": 0.1036,
      "velocity": 127,
      "chip": "ym2612"
    },
    {
      "channel": 1,
      "note": 49,
      "start": 7.4238,
      "duration": 0.2181,
      "velocity": 91,
      "chip": "ym2612"
    },
    {
      "channel": 4,
      "note": 61,
      "start": 7.4251,
      "duration": 0.2179,
      "velocity": 87,
      "chip": "ym2612"
    },
    {
      "channel": 2,
      "note": 27,
      "start": 7.4265,
      "duration": 0.1012,
      "velocity": 119,
      "chip": "ym2612"
    },
    {
      "channel": 2,
      "note": 66,
      "start": 7.5335,
      "duration": 0.1038,
      "velocity": 127,
      "chip": "ym2612"
    },
    {
      "channel": 1,
      "note": 62,
      "start": 7.6425,
      "duration": 0.2156,
      "velocity": 91,
      "chip": "ym2612"
    },
    {
      "channel": 4,
      "note": 68,
      "start": 7.6439,
      "duration": 0.2344,
      "velocity": 87,
      "chip": "ym2612"
    },
    {
      "channel": 2,
      "note": 73,
      "start": 7.6453,
      "duration": 0.1015,
      "velocity": 120,
      "chip": "ym2612"
    },
    {
      "channel": 2,
      "note": 66,
      "start": 7.7527,
      "duration": 0.1206,
      "velocity": 127,
      "chip": "ym2612"
    },
    {
      "channel": 1,
      "note": 50,
      "start": 7.8776,
      "duration": 0.1078,
      "velocity": 91,
      "chip": "ym2612"
    },
    {
      "channel": 4,
      "note": 64,
      "start": 7.8792,
      "duration": 0.4363,
      "velocity": 87,
      "chip": "ym2612"
    },
    {
      "channel": 2,
      "note": 27,
      "start": 7.8805,
      "duration": 0.101,
      "velocity": 119,
      "chip": "ym2612"
    },
    {
      "channel": 1,
      "note": 62,
      "start": 7.986,
      "duration": 0.218,
      "velocity": 91,
      "chip": "ym2612"
    },
    {
      "channel": 2,
      "note": 27,
      "start": 7.9883,
      "duration": 0.1028,
      "velocity": 119,
      "chip": "ym2612"
    },
    {
      "channel": 2,
      "note": 27,
      "start": 8.0976,
      "duration": 0.1029,
      "velocity": 119,
      "chip": "ym2612"
    },
    {
      "channel": 1,
      "note": 50,
      "start": 8.2046,
      "duration": 0.1095,
      "velocity": 91,
      "chip": "ym2612"
    },
    {
      "channel": 2,
      "note": 66,
      "start": 8.2083,
      "duration": 0.102,
      "velocity": 127,
      "chip": "ym2612"
    },
    {
      "channel": 1,
      "note": 62,
      "start": 8.3146,
      "duration": 0.2153,
      "velocity": 91,
      "chip": "ym2612"
    },
    {
      "channel": 4,
      "note": 61,
      "start": 8.3163,
      "duration": 0.2333,
      "velocity": 87,
      "chip": "ym2612"
    },
    {
      "channel": 2,
      "note": 27,
      "start": 8.3178,
      "duration": 0.1176,
      "velocity": 119,
      "chip": "ym2612"
    },
    {
      "channel": 2,
      "note": 66,
      "start": 8.4429,
      "duration": 0.1021,
      "velocity": 127,
      "chip": "ym2612"
    },
    {
      "channel": 1,
      "note": 64,
      "start": 8.549,
      "duration": 0.2184,
      "velocity": 91,
      "chip": "ym2612"
    },
    {
      "channel": 4,
      "note": 68,
      "start": 8.5504,
      "duration": 0.2182,
      "velocity": 87,
      "chip": "ym2612"
    },
    {
      "channel": 2,
      "note": 73,
      "start": 8.552,
      "duration": 0.1024,
      "velocity": 120,
      "chip": "ym2612"
    },
    {
      "channel": 2,
      "note": 66,
      "start": 8.662,
      "duration": 0.102,
      "velocity": 127,
      "chip": "ym2612"
    },
    {
      "channel": 1,
      "note": 62,
      "start": 8.768,
      "duration": 0.2159,
      "velocity": 91,
      "chip": "ym2612"
    },
    {
      "channel": 4,
      "note": 64,
      "start": 8.7695,
      "duration": 0.4554,
      "velocity": 87,
      "chip": "ym2612"
    },
    {
      "channel": 2,
      "note": 66,
      "start": 8.771,
      "duration": 0.103,
      "velocity": 127,
      "chip": "ym2612"
    },
    {
      "channel": 2,
      "note": 66,
      "start": 8.8802,
      "duration": 0.1187,
      "velocity": 127,
      "chip": "ym2612"
    },
    {
      "channel": 1,
      "note": 49,
      "start": 9.0033,
      "duration": 0.1085,
      "velocity": 91,
      "chip": "ym2612"
    },
    {
      "channel": 2,
      "note": 27,
      "start": 9.0071,
      "duration": 0.1012,
      "velocity": 119,
      "chip": "ym2612"
    },
    {
      "channel": 1,
      "note": 61,
      "start": 9.1123,
      "duration": 0.1096,
      "velocity": 91,
      "chip": "ym2612"
    },
    {
      "channel": 2,
      "note": 66,
      "start": 9.1147,
      "duration": 0.1032,
      "velocity": 127,
      "chip": "ym2612"
    },
    {
      "channel": 0,
      "note": 68,
      "start": 9.2218,
      "duration": 0.2193,
      "velocity": 102,
      "chip": "ym2612"
    },
    {
      "channel": 1,
      "note": 49,
      "start": 9.2239,
      "duration": 0.2182,
      "velocity": 91,
      "chip": "ym2612"
    },
    {
      "channel": 3,
      "note": 64,
      "start": 9.2247,
      "duration": 0.2181,
      "velocity": 102,
      "chip": "ym2612"
    },
    {
      "channel": 4,
      "note": 61,
      "start": 9.2257,
      "duration": 0.2181,
      "velocity": 87,
      "chip": "ym2612"
    },
    {
      "channel": 2,
      "note": 27,
      "start": 9.2272,
      "duration": 0.1002,
      "velocity": 119,
      "chip": "ym2612"
    },
    {
      "channel": 5,
      "note": 80,
      "start": 9.2517,
      "duration": 0.2339,
      "velocity": 102,
      "chip": "ym2612"
    },
    {
      "channel": 2,
      "note": 66,
      "start": 9.3331,
      "duration": 0.1039,
      "velocity": 127,
      "chip": "ym2612"
    },
    {
      "channel": 0,
      "note": 69,
      "start": 9.4419,
      "duration": 0.2343,
      "velocity": 102,
      "chip": "ym2612"
    },
    {
      "channel": 1,
      "note": 62,
      "start": 9.4427,
      "duration": 0.215,
      "velocity": 91,
      "chip": "ym2612"
    },
    {
      "channel": 3,
      "note": 66,
      "start": 9.4436,
      "duration": 0.2344,
      "velocity": 102,
      "chip": "ym2612"
    },
    {
      "channel": 4,
      "note": 68,
      "start": 9.4446,
      "duration": 0.2341,
      "velocity": 87,
      "chip": "ym2612"
    },
    {
      "channel": 2,
      "note": 73,
      "start": 9.4461,
      "duration": 0.1161,
      "velocity": 120,
      "chip": "ym2612"
    },
    {
      "channel": 5,
      "note": 81,
      "start": 9.4865,
      "duration": 0.2182,
      "velocity": 102,
      "chip": "ym2612"
    },
    {
      "channel": 2,
      "note": 66,
      "start": 9.568,
      "duration": 0.1036,
      "velocity": 127,
      "chip": "ym2612"
    },
    {
      "channel": 0,
      "note": 71,
      "start": 9.6771,
      "duration": 0.2168,
      "velocity": 102,
      "chip": "ym2612"
    },
    {
      "channel": 1,
      "note": 50,
      "start": 9.6778,
      "duration": 0.1072,
      "velocity": 91,
      "chip": "ym2612"
    },
    {
      "channel": 3,
      "note": 68,
      "start": 9.6786,
      "duration": 0.2167,
      "velocity": 102,
      "chip": "ym2612"
    },
    {
      "channel": 4,
      "note": 64,
      "start": 9.6796,
      "duration": 0.451,
      "velocity": 87,
      "chip": "ym2612"
    },
    {
      "channel": 2,
      "note": 27,
      "start": 9.681,
      "duration": 0.1002,
      "velocity": 119,
      "chip": "ym2612"
    },
    {
      "channel": 5,
      "note": 83,
      "start": 9.7069,
      "duration": 0.234,
      "velocity": 102,
      "chip": "ym2612"
    },
    {
      "channel": 1,
      "note": 61,
      "start": 9.7856,
      "duration": 0.2181,
      "velocity": 91,
      "chip": "ym2612"
    },
    {
      "channel": 2,
      "note": 27,
      "start": 9.7878,
      "duration": 0.1029,
      "velocity": 119,
      "chip": "ym2612"
    },
    {
      "channel": 0,
      "note": 71,
      "start": 9.8948,
      "duration": 0.343,
      "velocity": 102,
      "chip": "ym2612"
    },
    {
      "channel": 3,
      "note": 68,
      "start": 9.8961,
      "duration": 0.3445,
      "velocity": 102,
      "chip": "ym2612"
    },
    {
      "channel": 2,
      "note": 27,
      "start": 9.8978,
      "duration": 0.1026,
      "velocity": 119,
      "chip": "ym2612"
    },
    {
      "channel": 5,
      "note": 83,
      "start": 9.9418,
      "duration": 0.3263,
      "velocity": 102,
      "chip": "ym2612"
    },
    {
      "channel": 1,
      "note": 47,
      "start": 10.0043,
      "duration": 0.125,
      "velocity": 91,
      "chip": "ym2612"
    },
    {
      "channel": 2,
      "note": 66,
      "start": 10.0079,
      "duration": 0.1176,
      "velocity": 127,
      "chip": "ym2612"
    },
    {
      "channel": 1,
      "note": 59,
      "start": 10.1299,
      "duration": 0.2181,
      "velocity": 91,
      "chip": "ym2612"
    },
    {
      "channel": 4,
      "note": 61,
      "start": 10.1315,
      "duration": 0.2178,
      "velocity": 87,
      "chip": "ym2612"
    },
    {
      "channel": 2,
      "note": 27,
      "start": 10.1329,
      "duration": 0.1022,
      "velocity": 119,
      "chip": "ym2612"
    },
    {
      "channel": 0,
      "note": 69,
      "start": 10.24,
      "duration": 0.3265,
      "velocity": 102,
      "chip": "ym2612"
    },
    {
      "channel": 3,
      "note": 66,
      "start": 10.2412,
      "duration": 0.327,
      "velocity": 102,
      "chip": "ym2612"
    },
    {
      "channel": 2,
      "note": 66,
      "start": 10.243,
      "duration": 0.1017,
      "velocity": 127,
      "chip": "ym2612"
    },
    {
      "channel": 5,
      "note": 81,
      "start": 10.2689,
      "duration": 0.3435,
      "velocity": 102,
      "chip": "ym2612"
    },
    {
      "channel": 1,
      "note": 61,
      "start": 10.3486,
      "duration": 0.219,
      "velocity": 91,
      "chip": "ym2612"
    },
    {
      "channel": 4,
      "note": 68,
      "start": 10.3502,
      "duration": 0.2191,
      "velocity": 87,
      "chip": "ym2612"
    },
    {
      "channel": 2,
      "note": 73,
      "start": 10.3516,
      "duration": 0.1026,
      "velocity": 120,
      "chip": "ym2612"
    },
    {
      "channel": 2,
      "note": 66,
      "start": 10.4612,
      "duration": 0.1026,
      "velocity": 127,
      "chip": "ym2612"
    },
    {
      "channel": 0,
      "note": 68,
      "start": 10.5674,
      "duration": 0.2344,
      "velocity": 102,
      "chip": "ym2612"
    },
    {
      "channel": 1,
      "note": 49,
      "start": 10.5681,
      "duration": 0.2153,
      "velocity": 91,
      "chip": "ym2612"
    },
    {
      "channel": 3,
      "note": 64,
      "start": 10.5691,
      "duration": 0.2347,
      "velocity": 102,
      "chip": "ym2612"
    },
    {
      "channel": 4,
      "note": 64,
      "start": 10.5702,
      "duration": 0.2345,
      "velocity": 87,
      "chip": "ym2612"
    },
    {
      "channel": 2,
      "note": 66,
      "start": 10.5716,
      "duration": 0.1186,
      "velocity": 127,
      "chip": "ym2612"
    },
    {
      "channel": 5,
      "note": 80,
      "start": 10.6132,
      "duration": 0.2182,
      "velocity": 102,
      "chip": "ym2612"
    },
    {
      "channel": 2,
      "note": 66,
      "start": 10.6961,
      "duration": 0.1025,
      "velocity": 127,
      "chip": "ym2612"
    },
    {
      "channel": 0,
      "note": 69,
      "start": 10.8027,
      "duration": 0.1082,
      "velocity": 102,
      "chip": "ym2612"
    },
    {
      "channel": 1,
      "note": 49,
      "start": 10.8037,
      "duration": 0.1081,
      "velocity": 91,
      "chip": "ym2612"
    },
    {
      "channel": 3,
      "note": 66,
      "start": 10.8045,
      "duration": 0.1081,
      "velocity": 102,
      "chip": "ym2612"
    },
    {
      "channel": 4,
      "note": 61,
      "start": 10.8069,
      "duration": 0.1067,
      "velocity": 87,
      "chip": "ym2612"
    },
    {
      "channel": 2,
      "note": 27,
      "start": 10.8083,
      "duration": 0.0998,
      "velocity": 119,
      "chip": "ym2612"
    },
    {
      "channel": 5,
      "note": 81,
      "start": 10.8323,
      "duration": 0.11,
      "velocity": 102,
      "chip": "ym2612"
    },
    {
      "channel": 0,
      "note": 68,
      "start": 10.9117,
      "duration": 0.109,
      "velocity": 102,
      "chip": "ym2612"
    },
    {
      "channel": 1,
      "note": 61,
      "start": 10.9124,
      "duration": 0.1093,
      "velocity": 91,
      "chip": "ym2612"
    },
    {
      "channel": 3,
      "note": 64,
      "start": 10.9134,
      "duration": 0.1104,
      "velocity": 102,
      "chip": "ym2612"
    },
    {
      "channel": 4,
      "note": 56,
      "start": 10.9144,
      "duration": 0.1102,
      "velocity": 87,
      "chip": "ym2612"
    },
    {
      "channel": 2,
      "note": 66,
      "start": 10.9158,
      "duration": 0.1017,
      "velocity": 127,
      "chip": "ym2612"
    },
    {
      "channel": 5,
      "note": 80,
      "start": 10.9431,
      "duration": 0.1232,
      "velocity": 102,
      "chip": "ym2612"
    },
    {
      "channel": 0,
      "note": 66,
      "start": 11.0216,
      "duration": 0.1083,
      "velocity": 102,
      "chip": "ym2612"
    },
    {
      "channel": 1,
      "note": 49,
      "start": 11.0237,
      "duration": 0.2137,
      "velocity": 91,
      "chip": "ym2612"
    },
    {
      "channel": 3,
      "note": 62,
      "start": 11.0245,
      "duration": 0.1068,
      "velocity": 102,
      "chip": "ym2612"
    },
    {
      "channel": 4,
      "note": 61,
      "start": 11.0255,
      "duration": 0.1068,
      "velocity": 87,
      "chip": "ym2612"
    },
    {
      "channel": 2,
      "note": 27,
      "start": 11.0269,
      "duration": 0.1002,
      "velocity": 119,
      "chip": "ym2612"
    },
    {
      "channel": 5,
      "note": 78,
      "start": 11.0672,
      "duration": 0.1086,
      "velocity": 102,
      "chip": "ym2612"
    },
    {
      "channel": 0,
      "note": 68,
      "start": 11.1308,
      "duration": 0.3452,
      "velocity": 102,
      "chip": "ym2612"
    },
    {
      "channel": 3,
      "note": 64,
      "start": 11.1321,
      "duration": 0.3456,
      "velocity": 102,
      "chip": "ym2612"
    },
    {
      "channel": 4,
      "note": 56,
      "start": 11.1331,
      "duration": 0.1251,
      "velocity": 87,
      "chip": "ym2612"
    },
    {
      "channel": 2,
      "note": 66,
      "start": 11.1345,
      "duration": 0.1178,
      "velocity": 127,
      "chip": "ym2612"
    },
    {
      "channel": 5,
      "note": 80,
      "start": 11.1767,
      "duration": 0.3279,
      "velocity": 102,
      "chip": "ym2612"
    },
    {
      "channel": 1,
      "note": 62,
      "start": 11.2576,
      "duration": 0.2193,
      "velocity": 91,
      "chip": "ym2612"
    },
    {
      "channel": 4,
      "note": 52,
      "start": 11.2591,
      "duration": 0.4371,
      "velocity": 87,
      "chip": "ym2612"
    },
    {
      "channel": 2,
      "note": 73,
      "start": 11.2605,
      "duration": 0.1013,
      "velocity": 120,
      "chip": "ym2612"
    },
    {
      "channel": 2,
      "note": 66,
      "start": 11.3675,
      "duration": 0.1039,
      "velocity": 127,
      "chip": "ym2612"
    },
    {
      "channel": 0,
      "note": 66,
      "start": 11.4768,
      "duration": 0.2171,
      "velocity": 102,
      "chip": "ym2612"
    },
    {
      "channel": 1,
      "note": 50,
      "start": 11.4775,
      "duration": 0.1072,
      "velocity": 91,
      "chip": "ym2612"
    },
    {
      "channel": 3,
      "note": 62,
      "start": 11.4785,
      "duration": 0.2167,
      "velocity": 102,
      "chip": "ym2612"
    },
    {
      "channel": 2,
      "note": 27,
      "start": 11.4803,
      "duration": 0.1007,
      "velocity": 119,
      "chip": "ym2612"
    },
    {
      "channel": 5,
      "note": 78,
      "start": 11.5068,
      "duration": 0.2337,
      "velocity": 102,
      "chip": "ym2612"
    },
    {
      "channel": 1,
      "note": 62,
      "start": 11.5853,
      "duration": 0.2155,
      "velocity": 91,
      "chip": "ym2612"
    },
    {
      "channel": 2,
      "note": 27,
      "start": 11.5874,
      "duration": 0.1032,
      "velocity": 119,
      "chip": "ym2612"
    },
    {
      "channel": 0,
      "note": 64,
      "start": 11.6947,
      "duration": 0.2337,
      "velocity": 102,
      "chip": "ym2612"
    },
    {
      "channel": 3,
      "note": 61,
      "start": 11.6961,
      "duration": 0.2341,
      "velocity": 102,
      "chip": "ym2612"
    },
    {
      "channel": 4,
      "note": 61,
      "start": 11.6971,
      "duration": 0.1233,
      "velocity": 87,
      "chip": "ym2612"
    },
    {
      "channel": 2,
      "note": 27,
      "start": 11.6985,
      "duration": 0.1173,
      "velocity": 119,
      "chip": "ym2612"
    },
    {
      "channel": 5,
      "note": 76,
      "start": 11.7413,
      "duration": 0.2179,
      "velocity": 102,
      "chip": "ym2612"
    },
    {
      "channel": 1,
      "note": 50,
      "start": 11.8197,
      "duration": 0.1098,
      "velocity": 91,
      "chip": "ym2612"
    },
    {
      "channel": 4,
      "note": 56,
      "start": 11.8212,
      "duration": 0.1099,
      "velocity": 87,
      "chip": "ym2612"
    },
    {
      "channel": 2,
      "note": 66,
      "start": 11.8239,
      "duration": 0.1013,
      "velocity": 127,
      "chip": "ym2612"
    },
    {
      "channel": 0,
      "note": 66,
      "start": 11.9293,
      "duration": 0.2178,
      "velocity": 102,
      "chip": "ym2612"
    },
    {
      "channel": 1,
      "note": 62,
      "start": 11.93,
      "duration": 0.2181,
      "velocity": 91,
      "chip": "ym2612"
    },
    {
      "channel": 3,
      "note": 62,
      "start": 11.9309,
      "duration": 0.2179,
      "velocity": 102,
      "chip": "ym2612"
    },
    {
      "channel": 4,
      "note": 61,
      "start": 11.9319,
      "duration": 0.1085,
      "velocity": 87,
      "chip": "ym2612"
    },
    {
      "channel": 2,
      "note": 27,
      "start": 11.9333,
      "duration": 0.1015,
      "velocity": 119,
      "chip": "ym2612"
    },
    {
      "channel": 5,
      "note": 78,
      "start": 11.96,
      "duration": 0.2332,
      "velocity": 102,
      "chip": "ym2612"
    },
    {
      "channel": 4,
      "note": 56,
      "start": 12.0412,
      "duration": 0.1085,
      "velocity": 87,
      "chip": "ym2612"
    },
    {
      "channel": 2,
      "note": 66,
      "start": 12.0426,
      "duration": 0.1017,
      "velocity": 127,
      "chip": "ym2612"
    },
    {
      "channel": 0,
      "note": 64,
      "start": 12.148,
      "duration": 0.2339,
      "velocity": 102,
      "chip": "ym2612"
    },
    {
      "channel": 1,
      "note": 64,
      "start": 12.1487,
      "duration": 0.2154,
      "velocity": 91,
      "chip": "ym2612"
    },
    {
      "channel": 3,
      "note": 61,
      "start": 12.1495,
      "duration": 0.2341,
      "velocity": 102,
      "chip": "ym2612"
    },
    {
      "channel": 4,
      "note": 52,
      "start": 12.1506,
      "duration": 0.4528,
      "velocity": 87,
      "chip": "ym2612"
    },
    {
      "channel": 2,
      "note": 73,
      "start": 12.152,
      "duration": 0.102,
      "velocity": 120,
      "chip": "ym2612"
    },
    {
      "channel": 5,
      "note": 76,
      "start": 12.194,
      "duration": 0.2182,
      "velocity": 102,
      "chip": "ym2612"
    },
    {
      "channel": 2,
      "note": 66,
      "start": 12.2611,
      "duration": 0.1179,
      "velocity": 127,
      "chip": "ym2612"
    },
    {
      "channel": 0,
      "note": 62,
      "start": 12.3827,
      "duration": 0.11,
      "velocity": 102,
      "chip": "ym2612"
    },
    {
      "channel": 1,
      "note": 62,
      "start": 12.3834,
      "duration": 0.2186,
      "velocity": 91,
      "chip": "ym2612"
    },
    {
      "channel": 3,
      "note": 59,
      "start": 12.3845,
      "duration": 0.1096,
      "velocity": 102,
      "chip": "ym2612"
    },
    {
      "channel": 2,
      "note": 66,
      "start": 12.3863,
      "duration": 0.1037,
      "velocity": 127,
      "chip": "ym2612"
    },
    {
      "channel": 5,
      "note": 74,
      "start": 12.4131,
      "duration": 0.1086,
      "velocity": 102,
      "chip": "ym2612"
    },
    {
      "channel": 0,
      "note": 64,
      "start": 12.4936,
      "duration": 0.3269,
      "velocity": 102,
      "chip": "ym2612"
    },
    {
      "channel": 3,
      "note": 61,
      "start": 12.4948,
      "duration": 0.3288,
      "velocity": 102,
      "chip": "ym2612"
    },
    {
      "channel": 2,
      "note": 66,
      "start": 12.4966,
      "duration": 0.1017,
      "velocity": 127,
      "chip": "ym2612"
    },
    {
      "channel": 5,
      "note": 76,
      "start": 12.5239,
      "duration": 0.3421,
      "velocity": 102,
      "chip": "ym2612"
    },
    {
      "channel": 1,
      "note": 49,
      "start": 12.6027,
      "duration": 0.1084,
      "velocity": 91,
      "chip": "ym2612"
    },
    {
      "channel": 4,
      "note": 61,
      "start": 12.6042,
      "duration": 0.1079,
      "velocity": 87,
      "chip": "ym2612"
    },
    {
      "channel": 2,
      "note": 27,
      "start": 12.6069,
      "duration": 0.1008,
      "velocity": 119,
      "chip": "ym2612"
    },
    {
      "channel": 1,
      "note": 61,
      "start": 12.7116,
      "duration": 0.1099,
      "velocity": 91,
      "chip": "ym2612"
    },
    {
      "channel": 4,
      "note": 56,
      "start": 12.713,
      "duration": 0.1116,
      "velocity": 87,
      "chip": "ym2612"
    },
    {
      "channel": 2,
      "note": 66,
      "start": 12.7144,
      "duration": 0.1029,
      "velocity": 127,
      "chip": "ym2612"
    },
    {
      "channel": 0,
      "note": 62,
      "start": 12.8213,
      "duration": 0.124,
      "velocity": 102,
      "chip": "ym2612"
    },
    {
      "channel": 1,
      "note": 49,
      "start": 12.8233,
      "duration": 0.2137,
      "velocity": 91,
      "chip": "ym2612"
    },
    {
      "channel": 3,
      "note": 59,
      "start": 12.8244,
      "duration": 0.1222,
      "velocity": 102,
      "chip": "ym2612"
    },
    {
      "channel": 4,
      "note": 61,
      "start": 12.8254,
      "duration": 0.1223,
      "velocity": 87,
      "chip": "ym2612"
    },
    {
      "channel": 2,
      "note": 27,
      "start": 12.8268,
      "duration": 0.1157,
      "velocity": 119,
      "chip": "ym2612"
    },
    {
      "channel": 5,
      "note": 74,
      "start": 12.8668,
      "duration": 0.109,
      "velocity": 102,
      "chip": "ym2612"
    },
    {
      "channel": 0,
      "note": 61,
      "start": 12.9461,
      "duration": 1.4551,
      "velocity": 102,
      "chip": "ym2612"
    },
    {
      "channel": 3,
      "note": 56,
      "start": 12.9475,
      "duration": 1.4555,
      "velocity": 102,
      "chip": "ym2612"
    },
    {
      "channel": 4,
      "note": 56,
      "start": 12.9485,
      "duration": 0.1094,
      "velocity": 87,
      "chip": "ym2612"
    },
    {
      "channel": 2,
      "note": 66,
      "start": 12.9499,
      "duration": 0.1021,
      "velocity": 127,
      "chip": "ym2612"
    },
    {
      "channel": 5,
      "note": 73,
      "start": 12.9768,
      "duration": 1.4697,
      "velocity": 102,
      "chip": "ym2612"
    },
    {
      "channel": 1,
      "note": 62,
      "start": 13.0573,
      "duration": 0.2188,
      "velocity": 91,
      "chip": "ym2612"
    },
    {
      "channel": 4,
      "note": 52,
      "start": 13.0586,
      "duration": 0.4527,
      "velocity": 87,
      "chip": "ym2612"
    },
    {
      "channel": 2,
      "note": 73,
      "start": 13.0601,
      "duration": 0.1015,
      "velocity": 120,
      "chip": "ym2612"
    },
    {
      "channel": 2,
      "note": 66,
      "start": 13.1675,
      "duration": 0.1036,
      "velocity": 127,
      "chip": "ym2612"
    },
    {
      "channel": 1,
      "note": 50,
      "start": 13.2768,
      "duration": 0.1077,
      "velocity": 91,
      "chip": "ym2612"
    },
    {
      "channel": 2,
      "note": 27,
      "start": 13.2789,
      "duration": 0.1019,
      "velocity": 119,
      "chip": "ym2612"
    },
    {
      "channel": 1,
      "note": 61,
      "start": 13.385,
      "duration": 0.2153,
      "velocity": 91,
      "chip": "ym2612"
    },
    {
      "channel": 2,
      "note": 27,
      "start": 13.3873,
      "duration": 0.1198,
      "velocity": 119,
      "chip": "ym2612"
    },
    {
      "channel": 4,
      "note": 61,
      "start": 13.5123,
      "duration": 0.1076,
      "velocity": 87,
      "chip": "ym2612"
    },
    {
      "channel": 2,
      "note": 66,
      "start": 13.5137,
      "duration": 0.1017,
      "velocity": 127,
      "chip": "ym2612"
    },
    {
      "channel": 1,
      "note": 47,
      "start": 13.6193,
      "duration": 0.109,
      "velocity": 91,
      "chip": "ym2612"
    },
    {
      "channel": 4,
      "note": 56,
      "start": 13.6207,
      "duration": 0.1091,
      "velocity": 87,
      "chip": "ym2612"
    },
    {
      "channel": 2,
      "note": 77,
      "start": 13.6235,
      "duration": 0.1014,
      "velocity": 120,
      "chip": "ym2612"
    },
    {
      "channel": 1,
      "note": 59,
      "start": 13.729,
      "duration": 0.2184,
      "velocity": 91,
      "chip": "ym2612"
    },
    {
      "channel": 4,
      "note": 61,
      "start": 13.7307,
      "duration": 0.1094,
      "velocity": 87,
      "chip": "ym2612"
    },
    {
      "channel": 2,
      "note": 77,
      "start": 13.7323,
      "duration": 0.1022,
      "velocity": 120,
      "chip": "ym2612"
    },
    {
      "channel": 4,
      "note": 56,
      "start": 13.8409,
      "duration": 0.108,
      "velocity": 87,
      "chip": "ym2612"
    },
    {
      "channel": 2,
      "note": 72,
      "start": 13.8424,
      "duration": 0.1016,
      "velocity": 120,
      "chip": "ym2612"
    },
    {
      "channel": 1,
      "note": 61,
      "start": 13.948,
      "duration": 0.2158,
      "velocity": 91,
      "chip": "ym2612"
    },
    {
      "channel": 4,
      "note": 52,
      "start": 13.9497,
      "duration": 0.4543,
      "velocity": 87,
      "chip": "ym2612"
    },
    {
      "channel": 2,
      "note": 72,
      "start": 13.9512,
      "duration": 0.1181,
      "velocity": 120,
      "chip": "ym2612"
    },
    {
      "channel": 2,
      "note": 67,
      "start": 14.0769,
      "duration": 0.1019,
      "velocity": 120,
      "chip": "ym2612"
    },
    {
      "channel": 1,
      "note": 49,
      "start": 14.1827,
      "duration": 0.2196,
      "velocity": 91,
      "chip": "ym2612"
    },
    {
      "channel": 2,
      "note": 67,
      "start": 14.1853,
      "duration": 0.103,
      "velocity": 120,
      "chip": "ym2612"
    },
    {
      "channel": 2,
      "note": 63,
      "start": 14.2959,
      "duration": 0.1022,
      "velocity": 120,
      "chip": "ym2612"
    },
    {
      "channel": 0,
      "note": 61,
      "start": 14.4019,
      "duration": 2.0337,
      "velocity": 102,
      "chip": "ym2612"
    },
    {
      "channel": 1,
      "note": 49,
      "start": 14.4029,
      "duration": 0.1079,
      "velocity": 91,
      "chip": "ym2612"
    },
    {
      "channel": 3,
      "note": 56,
      "start": 14.4037,
      "duration": 2.0333,
      "velocity": 102,
      "chip": "ym2612"
    },
    {
      "channel": 2,
      "note": 27,
      "start": 14.4072,
      "duration": 0.1002,
      "velocity": 119,
      "chip": "ym2612"
    },
    {
      "channel": 5,
      "note": 73,
      "start": 14.4471,
      "duration": 2.0183,
      "velocity": 102,
      "chip": "ym2612"
    },
    {
      "channel": 1,
      "note": 61,
      "start": 14.5114,
      "duration": 0.1251,
      "velocity": 91,
      "chip": "ym2612"
    },
    {
      "channel": 2,
      "note": 66,
      "start": 14.5134,
      "duration": 0.1193,
      "velocity": 127,
      "chip": "ym2612"
    },
    {
      "channel": 1,
      "note": 49,
      "start": 14.637,
      "duration": 0.2181,
      "velocity": 91,
      "chip": "ym2612"
    },
    {
      "channel": 4,
      "note": 61,
      "start": 14.6386,
      "duration": 0.2191,
      "velocity": 87,
      "chip": "ym2612"
    },
    {
      "channel": 2,
      "note": 27,
      "start": 14.6413,
      "duration": 0.1009,
      "velocity": 119,
      "chip": "ym2612"
    },
    {
      "channel": 2,
      "note": 66,
      "start": 14.7479,
      "duration": 0.1039,
      "velocity": 127,
      "chip": "ym2612"
    },
    {
      "channel": 1,
      "note": 62,
      "start": 14.857,
      "duration": 0.2189,
      "velocity": 91,
      "chip": "ym2612"
    },
    {
      "channel": 4,
      "note": 68,
      "start": 14.8586,
      "duration": 0.2186,
      "velocity": 87,
      "chip": "ym2612"
    },
    {
      "channel": 2,
      "note": 73,
      "start": 14.86,
      "duration": 0.1013,
      "velocity": 120,
      "chip": "ym2612"
    },
    {
      "channel": 2,
      "note": 66,
      "start": 14.9669,
      "duration": 0.1039,
      "velocity": 127,
      "chip": "ym2612"
    },
    {
      "channel": 1,
      "note": 50,
      "start": 15.0765,
      "duration": 0.1234,
      "velocity": 91,
      "chip": "ym2612"
    },
    {
      "channel": 4,
      "note": 64,
      "start": 15.078,
      "duration": 0.4517,
      "velocity": 87,
      "chip": "ym2612"
    },
    {
      "channel": 2,
      "note": 27,
      "start": 15.0794,
      "duration": 0.1167,
      "velocity": 119,
      "chip": "ym2612"
    },
    {
      "channel": 1,
      "note": 62,
      "start": 15.2004,
      "duration": 0.2181,
      "velocity": 91,
      "chip": "ym2612"
    },
    {
      "channel": 2,
      "note": 27,
      "start": 15.203,
      "duration": 0.1039,
      "velocity": 119,
      "chip": "ym2612"
    },
    {
      "channel": 2,
      "note": 27,
      "start": 15.3132,
      "duration": 0.1019,
      "velocity": 119,
      "chip": "ym2612"
    },
    {
      "channel": 1,
      "note": 50,
      "start": 15.4191,
      "duration": 0.1093,
      "velocity": 91,
      "chip": "ym2612"
    },
    {
      "channel": 2,
      "note": 66,
      "start": 15.4217,
      "duration": 0.103,
      "velocity": 127,
      "chip": "ym2612"
    },
    {
      "channel": 1,
      "note": 62,
      "start": 15.5291,
      "duration": 0.2154,
      "velocity": 91,
      "chip": "ym2612"
    },
    {
      "channel": 4,
      "note": 61,
      "start": 15.5306,
      "duration": 0.2337,
      "velocity": 87,
      "chip": "ym2612"
    },
    {
      "channel": 2,
      "note": 27,
      "start": 15.5321,
      "duration": 0.1021,
      "velocity": 119,
      "chip": "ym2612"
    },
    {
      "channel": 2,
      "note": 66,
      "start": 15.6417,
      "duration": 0.1178,
      "velocity": 127,
      "chip": "ym2612"
    },
    {
      "channel": 1,
      "note": 64,
      "start": 15.7634,
      "duration": 0.2186,
      "velocity": 91,
      "chip": "ym2612"
    },
    {
      "channel": 4,
      "note": 68,
      "start": 15.7651,
      "duration": 0.2183,
      "velocity": 87,
      "chip": "ym2612"
    },
    {
      "channel": 2,
      "note": 73,
      "start": 15.7667,
      "duration": 0.1023,
      "velocity": 120,
      "chip": "ym2612"
    },
    {
      "channel": 2,
      "note": 66,
      "start": 15.8763,
      "duration": 0.1022,
      "velocity": 127,
      "chip": "ym2612"
    },
    {
      "channel": 1,
      "note": 62,
      "start": 15.9826,
      "duration": 0.219,
      "velocity": 91,
      "chip": "ym2612"
    },
    {
      "channel": 4,
      "note": 64,
      "start": 15.9842,
      "duration": 0.4537,
      "velocity": 87,
      "chip": "ym2612"
    },
    {
      "channel": 2,
      "note": 66,
      "start": 15.9857,
      "duration": 0.1023,
      "velocity": 127,
      "chip": "ym2612"
    },
    {
      "channel": 2,
      "note": 66,
      "start": 16.0954,
      "duration": 0.1024,
      "velocity": 127,
      "chip": "ym2612"
    },
    {
      "channel": 1,
      "note": 49,
      "start": 16.2021,
      "duration": 0.1251,
      "velocity": 91,
      "chip": "ym2612"
    },
    {
      "channel": 2,
      "note": 27,
      "start": 16.2046,
      "duration": 0.1192,
      "velocity": 119,
      "chip": "ym2612"
    },
    {
      "channel": 1,
      "note": 61,
      "start": 16.3278,
      "duration": 0.1086,
      "velocity": 91,
      "chip": "ym2612"
    },
    {
      "channel": 2,
      "note": 66,
      "start": 16.3303,
      "duration": 0.102,
      "velocity": 127,
      "chip": "ym2612"
    },
    {
      "channel": 0,
      "note": 61,
      "start": 16.4363,
      "duration": 0.2179,
      "velocity": 102,
      "chip": "ym2612"
    },
    {
      "channel": 1,
      "note": 49,
      "start": 16.437,
      "duration": 0.2183,
      "velocity": 91,
      "chip": "ym2612"
    },
    {
      "channel": 3,
      "note": 56,
      "start": 16.4378,
      "duration": 0.2195,
      "velocity": 102,
      "chip": "ym2612"
    },
    {
      "channel": 4,
      "note": 61,
      "start": 16.4401,
      "duration": 0.218,
      "velocity": 87,
      "chip": "ym2612"
    },
    {
      "channel": 2,
      "note": 27,
      "start": 16.4416,
      "duration": 0.1003,
      "velocity": 119,
      "chip": "ym2612"
    },
    {
      "channel": 5,
      "note": 73,
      "start": 16.4661,
      "duration": 0.2342,
      "velocity": 102,
      "chip": "ym2612"
    },
    {
      "channel": 2,
      "note": 66,
      "start": 16.5478,
      "duration": 0.1036,
      "velocity": 127,
      "chip": "ym2612"
    },
    {
      "channel": 0,
      "note": 62,
      "start": 16.6551,
      "duration": 0.2356,
      "velocity": 102,
      "chip": "ym2612"
    },
    {
      "channel": 1,
      "note": 62,
      "start": 16.6571,
      "duration": 0.2142,
      "velocity": 91,
      "chip": "ym2612"
    },
    {
      "channel": 3,
      "note": 57,
      "start": 16.6579,
      "duration": 0.2345,
      "velocity": 102,
      "chip": "ym2612"
    },
    {
      "channel": 4,
      "note": 68,
      "start": 16.659,
      "duration": 0.2345,
      "velocity": 87,
      "chip": "ym2612"
    },
    {
      "channel": 2,
      "note": 73,
      "start": 16.6604,
      "duration": 0.1006,
      "velocity": 120,
      "chip": "ym2612"
    },
    {
      "channel": 5,
      "note": 74,
      "start": 16.7011,
      "duration": 0.2182,
      "velocity": 102,
      "chip": "ym2612"
    },
    {
      "channel": 2,
      "note": 66,
      "start": 16.7669,
      "duration": 0.1193,
      "velocity": 127,
      "chip": "ym2612"
    },
    {
      "channel": 0,
      "note": 64,
      "start": 16.8915,
      "duration": 0.2183,
      "velocity": 102,
      "chip": "ym2612"
    },
    {
      "channel": 1,
      "note": 50,
      "start": 16.8923,
      "duration": 0.1072,
      "velocity": 91,
      "chip": "ym2612"
    },
    {
      "channel": 3,
      "note": 59,
      "start": 16.8932,
      "duration": 0.2179,
      "velocity": 102,
      "chip": "ym2612"
    },
    {
      "channel": 4,
      "note": 64,
      "start": 16.8943,
      "duration": 0.4351,
      "velocity": 87,
      "chip": "ym2612"
    },
    {
      "channel": 2,
      "note": 27,
      "start": 16.8957,
      "duration": 0.1001,
      "velocity": 119,
      "chip": "ym2612"
    },
    {
      "channel": 5,
      "note": 76,
      "start": 16.9202,
      "duration": 0.2183,
      "velocity": 102,
      "chip": "ym2612"
    },
    {
      "channel": 1,
      "note": 61,
      "start": 17.0,
      "duration": 0.2181,
      "velocity": 91,
      "chip": "ym2612"
    },
    {
      "channel": 2,
      "note": 27,
      "start": 17.0022,
      "duration": 0.1044,
      "velocity": 119,
      "chip": "ym2612"
    },
    {
      "channel": 0,
      "note": 64,
      "start": 17.1106,
      "duration": 0.3418,
      "velocity": 102,
      "chip": "ym2612"
    },
    {
      "channel": 3,
      "note": 59,
      "start": 17.112,
      "duration": 0.4511,
      "velocity": 102,
      "chip": "ym2612"
    },
    {
      "channel": 2,
      "note": 27,
      "start": 17.1137,
      "duration": 0.1011,
      "velocity": 119,
      "chip": "ym2612"
    },
    {
      "channel": 5,
      "note": 76,
      "start": 17.1406,
      "duration": 0.3421,
      "velocity": 102,
      "chip": "ym2612"
    },
    {
      "channel": 1,
      "note": 47,
      "start": 17.2188,
      "duration": 0.1094,
      "velocity": 91,
      "chip": "ym2612"
    },
    {
      "channel": 2,
      "note": 66,
      "start": 17.2209,
      "duration": 0.1034,
      "velocity": 127,
      "chip": "ym2612"
    },
    {
      "channel": 1,
      "note": 59,
      "start": 17.3287,
      "duration": 0.2154,
      "velocity": 91,
      "chip": "ym2612"
    },
    {
      "channel": 4,
      "note": 61,
      "start": 17.3303,
      "duration": 0.2338,
      "velocity": 87,
      "chip": "ym2612"
    },
    {
      "channel": 2,
      "note": 27,
      "start": 17.3317,
      "duration": 0.1179,
      "velocity": 119,
      "chip": "ym2612"
    },
    {
      "channel": 0,
      "note": 62,
      "start": 17.4532,
      "duration": 0.3278,
      "velocity": 102,
      "chip": "ym2612"
    },
    {
      "channel": 2,
      "note": 66,
      "start": 17.4572,
      "duration": 0.1019,
      "velocity": 127,
      "chip": "ym2612"
    },
    {
      "channel": 5,
      "note": 74,
      "start": 17.4836,
      "duration": 0.3434,
      "velocity": 102,
      "chip": "ym2612"
    },
    {
      "channel": 1,
      "note": 61,
      "start": 17.563,
      "duration": 0.219,
      "velocity": 91,
      "chip": "ym2612"
    },
    {
      "channel": 3,
      "note": 57,
      "start": 17.5639,
      "duration": 0.2189,
      "velocity": 102,
      "chip": "ym2612"
    },
    {
      "channel": 4,
      "note": 68,
      "start": 17.5649,
      "duration": 0.2188,
      "velocity": 87,
      "chip": "ym2612"
    },
    {
      "channel": 2,
      "note": 73,
      "start": 17.5663,
      "duration": 0.1024,
      "velocity": 120,
      "chip": "ym2612"
    },
    {
      "channel": 2,
      "note": 66,
      "start": 17.6759,
      "duration": 0.1024,
      "velocity": 127,
      "chip": "ym2612"
    },
    {
      "channel": 0,
      "note": 61,
      "start": 17.7819,
      "duration": 0.2343,
      "velocity": 102,
      "chip": "ym2612"
    },
    {
      "channel": 1,
      "note": 49,
      "start": 17.7826,
      "duration": 0.2154,
      "velocity": 91,
      "chip": "ym2612"
    },
    {
      "channel": 3,
      "note": 56,
      "start": 17.7834,
      "duration": 0.2347,
      "velocity": 102,
      "chip": "ym2612"
    },
    {
      "channel": 4,
      "note": 64,
      "start": 17.7845,
      "duration": 0.2347,
      "velocity": 87,
      "chip": "ym2612"
    },
    {
      "channel": 2,
      "note": 66,
      "start": 17.7859,
      "duration": 0.1019,
      "velocity": 127,
      "chip": "ym2612"
    },
    {
      "channel": 5,
      "note": 73,
      "start": 17.8278,
      "duration": 0.2183,
      "velocity": 102,
      "chip": "ym2612"
    },
    {
      "channel": 2,
      "note": 66,
      "start": 17.895,
      "duration": 0.1181,
      "velocity": 127,
      "chip": "ym2612"
    },
    {
      "channel": 0,
      "note": 61,
      "start": 18.0169,
      "duration": 0.1096,
      "velocity": 102,
      "chip": "ym2612"
    },
    {
      "channel": 1,
      "note": 49,
      "start": 18.0179,
      "duration": 0.1096,
      "velocity": 91,
      "chip": "ym2612"
    },
    {
      "channel": 3,
      "note": 56,
      "start": 18.019,
      "duration": 0.1093,
      "velocity": 102,
      "chip": "ym2612"
    },
    {
      "channel": 4,
      "note": 61,
      "start": 18.02,
      "duration": 0.1091,
      "velocity": 87,
      "chip": "ym2612"
    },
    {
      "channel": 2,
      "note": 27,
      "start": 18.0214,
      "duration": 0.1024,
      "velocity": 119,
      "chip": "ym2612"
    },
    {
      "channel": 5,
      "note": 73,
      "start": 18.0469,
      "duration": 0.1099,
      "velocity": 102,
      "chip": "ym2612"
    },
    {
      "channel": 0,
      "note": 62,
      "start": 18.1273,
      "duration": 0.1079,
      "velocity": 102,
      "chip": "ym2612"
    },
    {
      "channel": 1,
      "note": 61,
      "start": 18.1281,
      "duration": 0.1081,
      "velocity": 91,
      "chip": "ym2612"
    },
    {
      "channel": 3,
      "note": 57,
      "start": 18.1289,
      "duration": 0.1081,
      "velocity": 102,
      "chip": "ym2612"
    },
    {
      "channel": 4,
      "note": 56,
      "start": 18.1299,
      "duration": 0.1081,
      "velocity": 87,
      "chip": "ym2612"
    },
    {
      "channel": 2,
      "note": 66,
      "start": 18.1313,
      "duration": 0.1008,
      "velocity": 127,
      "chip": "ym2612"
    },
    {
      "channel": 5,
      "note": 74,
      "start": 18.1577,
      "duration": 0.1075,
      "velocity": 102,
      "chip": "ym2612"
    },
    {
      "channel": 0,
      "note": 61,
      "start": 18.2361,
      "duration": 0.1083,
      "velocity": 102,
      "chip": "ym2612"
    },
    {
      "channel": 1,
      "note": 49,
      "start": 18.2368,
      "duration": 0.2181,
      "velocity": 91,
      "chip": "ym2612"
    },
    {
      "channel": 3,
      "note": 56,
      "start": 18.2378,
      "duration": 0.1079,
      "velocity": 102,
      "chip": "ym2612"
    },
    {
      "channel": 4,
      "note": 61,
      "start": 18.2401,
      "duration": 0.1065,
      "velocity": 87,
      "chip": "ym2612"
    },
    {
      "channel": 2,
      "note": 27,
      "start": 18.2415,
      "duration": 0.1,
      "velocity": 119,
      "chip": "ym2612"
    },
    {
      "channel": 5,
      "note": 73,
      "start": 18.2661,
      "duration": 0.1256,
      "velocity": 102,
      "chip": "ym2612"
    },
    {
      "channel": 0,
      "note": 59,
      "start": 18.3453,
      "duration": 0.1087,
      "velocity": 102,
      "chip": "ym2612"
    },
    {
      "channel": 3,
      "note": 54,
      "start": 18.3464,
      "duration": 0.1105,
      "velocity": 102,
      "chip": "ym2612"
    },
    {
      "channel": 4,
      "note": 56,
      "start": 18.3474,
      "duration": 0.1106,
      "velocity": 87,
      "chip": "ym2612"
    },
    {
      "channel": 2,
      "note": 66,
      "start": 18.3488,
      "duration": 0.1023,
      "velocity": 127,
      "chip": "ym2612"
    },
    {
      "channel": 5,
      "note": 71,
      "start": 18.3925,
      "duration": 0.1073,
      "velocity": 102,
      "chip": "ym2612"
    },
    {
      "channel": 0,
      "note": 61,
      "start": 18.4548,
      "duration": 3.1608,
      "velocity": 102,
      "chip": "ym2612"
    },
    {
      "channel": 1,
      "note": 62,
      "start": 18.4569,
      "duration": 0.2139,
      "velocity": 91,
      "chip": "ym2612"
    },
    {
      "channel": 3,
      "note": 56,
      "start": 18.4579,
      "duration": 3.1598,
      "velocity": 102,
      "chip": "ym2612"
    },
    {
      "channel": 4,
      "note": 52,
      "start": 18.4589,
      "duration": 0.4519,
      "velocity": 87,
      "chip": "ym2612"
    },
    {
      "channel": 2,
      "note": 73,
      "start": 18.4603,
      "duration": 0.1161,
      "velocity": 120,
      "chip": "ym2612"
    },
    {
      "channel": 5,
      "note": 73,
      "start": 18.5007,
      "duration": 3.1445,
      "velocity": 102,
      "chip": "ym2612"
    },
    {
      "channel": 2,
      "note": 66,
      "start": 18.5822,
      "duration": 0.1036,
      "velocity": 127,
      "chip": "ym2612"
    },
    {
      "channel": 1,
      "note": 50,
      "start": 18.6915,
      "duration": 0.1076,
      "velocity": 91,
      "chip": "ym2612"
    },
    {
      "channel": 2,
      "note": 27,
      "start": 18.6936,
      "duration": 0.1018,
      "velocity": 119,
      "chip": "ym2612"
    },
    {
      "channel": 1,
      "note": 62,
      "start": 18.7997,
      "duration": 0.2181,
      "velocity": 91,
      "chip": "ym2612"
    },
    {
      "channel": 2,
      "note": 27,
      "start": 18.8021,
      "duration": 0.1029,
      "velocity": 119,
      "chip": "ym2612"
    },
    {
      "channel": 4,
      "note": 61,
      "start": 18.9116,
      "duration": 0.1075,
      "velocity": 87,
      "chip": "ym2612"
    },
    {
      "channel": 2,
      "note": 27,
      "start": 18.913,
      "duration": 0.1015,
      "velocity": 119,
      "chip": "ym2612"
    },
    {
      "channel": 1,
      "note": 50,
      "start": 19.0184,
      "duration": 0.126,
      "velocity": 91,
      "chip": "ym2612"
    },
    {
      "channel": 4,
      "note": 56,
      "start": 19.02,
      "duration": 0.1258,
      "velocity": 87,
      "chip": "ym2612"
    },
    {
      "channel": 2,
      "note": 66,
      "start": 19.0214,
      "duration": 0.1193,
      "velocity": 127,
      "chip": "ym2612"
    },
    {
      "channel": 1,
      "note": 62,
      "start": 19.145,
      "duration": 0.2172,
      "velocity": 91,
      "chip": "ym2612"
    },
    {
      "channel": 4,
      "note": 61,
      "start": 19.1466,
      "duration": 0.1069,
      "velocity": 87,
      "chip": "ym2612"
    },
    {
      "channel": 2,
      "note": 27,
      "start": 19.148,
      "duration": 0.1013,
      "velocity": 119,
      "chip": "ym2612"
    },
    {
      "channel": 4,
      "note": 56,
      "start": 19.2544,
      "duration": 0.1092,
      "velocity": 87,
      "chip": "ym2612"
    },
    {
      "channel": 2,
      "note": 66,
      "start": 19.2572,
      "duration": 0.1015,
      "velocity": 127,
      "chip": "ym2612"
    },
    {
      "channel": 1,
      "note": 64,
      "start": 19.3628,
      "duration": 0.2186,
      "velocity": 91,
      "chip": "ym2612"
    },
    {
      "channel": 4,
      "note": 52,
      "start": 19.3644,
      "duration": 0.4534,
      "velocity": 87,
      "chip": "ym2612"
    },
    {
      "channel": 2,
      "note": 73,
      "start": 19.366,
      "duration": 0.1024,
      "velocity": 120,
      "chip": "ym2612"
    },
    {
      "channel": 2,
      "note": 66,
      "start": 19.4757,
      "duration": 0.1022,
      "velocity": 127,
      "chip": "ym2612"
    },
    {
      "channel": 1,
      "note": 62,
      "start": 19.5819,
      "duration": 0.2158,
      "velocity": 91,
      "chip": "ym2612"
    },
    {
      "channel": 2,
      "note": 66,
      "start": 19.5845,
      "duration": 0.1186,
      "velocity": 127,
      "chip": "ym2612"
    },
    {
      "channel": 2,
      "note": 66,
      "start": 19.7106,
      "duration": 0.1022,
      "velocity": 127,
      "chip": "ym2612"
    },
    {
      "channel": 1,
      "note": 49,
      "start": 19.8172,
      "duration": 0.1097,
      "velocity": 91,
      "chip": "ym2612"
    },
    {
      "channel": 4,
      "note": 61,
      "start": 19.8187,
      "duration": 0.1097,
      "velocity": 87,
      "chip": "ym2612"
    },
    {
      "channel": 2,
      "note": 27,
      "start": 19.8202,
      "duration": 0.1033,
      "velocity": 119,
      "chip": "ym2612"
    },
    {
      "channel": 1,
      "note": 61,
      "start": 19.9275,
      "duration": 0.108,
      "velocity": 91,
      "chip": "ym2612"
    },
    {
      "channel": 4,
      "note": 56,
      "start": 19.9292,
      "duration": 0.1076,
      "velocity": 87,
      "chip": "ym2612"
    },
    {
      "channel": 2,
      "note": 66,
      "start": 19.9307,
      "duration": 0.101,
      "velocity": 127,
      "chip": "ym2612"
    },
    {
      "channel": 1,
      "note": 49,
      "start": 20.0361,
      "duration": 0.2155,
      "velocity": 91,
      "chip": "ym2612"
    },
    {
      "channel": 4,
      "note": 61,
      "start": 20.0376,
      "duration": 0.1081,
      "velocity": 87,
      "chip": "ym2612"
    },
    {
      "channel": 2,
      "note": 27,
      "start": 20.0405,
      "duration": 0.1008,
      "velocity": 119,
      "chip": "ym2612"
    },
    {
      "channel": 4,
      "note": 56,
      "start": 20.1466,
      "duration": 0.1247,
      "velocity": 87,
      "chip": "ym2612"
    },
    {
      "channel": 2,
      "note": 66,
      "start": 20.1481,
      "duration": 0.1184,
      "velocity": 127,
      "chip": "ym2612"
    },
    {
      "channel": 1,
      "note": 62,
      "start": 20.2705,
      "duration": 0.2202,
      "velocity": 91,
      "chip": "ym2612"
    },
    {
      "channel": 4,
      "note": 52,
      "start": 20.2735,
      "duration": 0.4374,
      "velocity": 87,
      "chip": "ym2612"
    },
    {
      "channel": 2,
      "note": 73,
      "start": 20.275,
      "duration": 0.101,
      "velocity": 120,
      "chip": "ym2612"
    },
    {
      "channel": 2,
      "note": 66,
      "start": 20.382,
      "duration": 0.1036,
      "velocity": 127,
      "chip": "ym2612"
    },
    {
      "channel": 1,
      "note": 50,
      "start": 20.4913,
      "duration": 0.1077,
      "velocity": 91,
      "chip": "ym2612"
    },
    {
      "channel": 2,
      "note": 27,
      "start": 20.4938,
      "duration": 0.1014,
      "velocity": 119,
      "chip": "ym2612"
    },
    {
      "channel": 1,
      "note": 61,
      "start": 20.5995,
      "duration": 0.2155,
      "velocity": 91,
      "chip": "ym2612"
    },
    {
      "channel": 2,
      "note": 27,
      "start": 20.6019,
      "duration": 0.1029,
      "velocity": 119,
      "chip": "ym2612"
    },
    {
      "channel": 4,
      "note": 61,
      "start": 20.7118,
      "duration": 0.1229,
      "velocity": 87,
      "chip": "ym2612"
    },
    {
      "channel": 2,
      "note": 27,
      "start": 20.7132,
      "duration": 0.1167,
      "velocity": 119,
      "chip": "ym2612"
    },
    {
      "channel": 1,
      "note": 47,
      "start": 20.8339,
      "duration": 0.1103,
      "velocity": 91,
      "chip": "ym2612"
    },
    {
      "channel": 4,
      "note": 56,
      "start": 20.8356,
      "duration": 0.1099,
      "velocity": 87,
      "chip": "ym2612"
    },
    {
      "channel": 2,
      "note": 66,
      "start": 20.8371,
      "duration": 0.1033,
      "velocity": 127,
      "chip": "ym2612"
    },
    {
      "channel": 1,
      "note": 59,
      "start": 20.9448,
      "duration": 0.2171,
      "velocity": 91,
      "chip": "ym2612"
    },
    {
      "channel": 4,
      "note": 61,
      "start": 20.9463,
      "duration": 0.1071,
      "velocity": 87,
      "chip": "ym2612"
    },
    {
      "channel": 2,
      "note": 27,
      "start": 20.9478,
      "duration": 0.1012,
      "velocity": 119,
      "chip": "ym2612"
    },
    {
      "channel": 4,
      "note": 56,
      "start": 21.0543,
      "duration": 0.1089,
      "velocity": 87,
      "chip": "ym2612"
    },
    {
      "channel": 2,
      "note": 66,
      "start": 21.0571,
      "duration": 0.1015,
      "velocity": 127,
      "chip": "ym2612"
    },
    {
      "channel": 1,
      "note": 61,
      "start": 21.1625,
      "duration": 0.2159,
      "velocity": 91,
      "chip": "ym2612"
    },
    {
      "channel": 4,
      "note": 52,
      "start": 21.164,
      "duration": 0.4548,
      "velocity": 87,
      "chip": "ym2612"
    },
    {
      "channel": 2,
      "note": 73,
      "start": 21.1655,
      "duration": 0.1025,
      "velocity": 120,
      "chip": "ym2612"
    },
    {
      "channel": 2,
      "note": 66,
      "start": 21.2756,
      "duration": 0.1177,
      "velocity": 127,
      "chip": "ym2612"
    },
    {
      "channel": 1,
      "note": 49,
      "start": 21.3973,
      "duration": 0.2197,
      "velocity": 91,
      "chip": "ym2612"
    },
    {
      "channel": 2,
      "note": 66,
      "start": 21.3998,
      "duration": 0.103,
      "velocity": 127,
      "chip": "ym2612"
    },
    {
      "channel": 2,
      "note": 66,
      "start": 21.5101,
      "duration": 0.1024,
      "velocity": 127,
      "chip": "ym2612"
    },
    {
      "channel": 0,
      "note": 68,
      "start": 21.6165,
      "duration": 0.2181,
      "velocity": 102,
      "chip": "ym2612"
    },
    {
      "channel": 1,
      "note": 49,
      "start": 21.6176,
      "duration": 0.109,
      "velocity": 91,
      "chip": "ym2612"
    },
    {
      "channel": 3,
      "note": 64,
      "start": 21.6186,
      "duration": 0.2178,
      "velocity": 102,
      "chip": "ym2612"
    },
    {
      "channel": 2,
      "note": 27,
      "start": 21.6207,
      "duration": 0.1013,
      "velocity": 119,
      "chip": "ym2612"
    },
    {
      "channel": 5,
      "note": 80,
      "start": 21.6461,
      "duration": 0.234,
      "velocity": 102,
      "chip": "ym2612"
    },
    {
      "channel": 1,
      "note": 61,
      "start": 21.7272,
      "duration": 0.1085,
      "velocity": 91,
      "chip": "ym2612"
    },
    {
      "channel": 2,
      "note": 66,
      "start": 21.729,
      "duration": 0.1025,
      "velocity": 127,
      "chip": "ym2612"
    },
    {
      "channel": 0,
      "note": 69,
      "start": 21.8355,
      "duration": 0.2335,
      "velocity": 102,
      "chip": "ym2612"
    },
    {
      "channel": 1,
      "note": 49,
      "start": 21.8363,
      "duration": 0.2149,
      "velocity": 91,
      "chip": "ym2612"
    },
    {
      "channel": 3,
      "note": 66,
      "start": 21.8373,
      "duration": 0.2334,
      "velocity": 102,
      "chip": "ym2612"
    },
    {
      "channel": 4,
      "note": 61,
      "start": 21.8382,
      "duration": 0.2333,
      "velocity": 87,
      "chip": "ym2612"
    },
    {
      "channel": 2,
      "note": 27,
      "start": 21.841,
      "duration": 0.1165,
      "velocity": 119,
      "chip": "ym2612"
    },
    {
      "channel": 5,
      "note": 81,
      "start": 21.881,
      "duration": 0.2181,
      "velocity": 102,
      "chip": "ym2612"
    },
    {
      "channel": 2,
      "note": 66,
      "start": 21.9633,
      "duration": 0.1029,
      "velocity": 127,
      "chip": "ym2612"
    },
    {
      "channel": 0,
      "note": 71,
      "start": 22.0698,
      "duration": 0.2187,
      "velocity": 102,
      "chip": "ym2612"
    },
    {
      "channel": 1,
      "note": 62,
      "start": 22.0706,
      "duration": 0.2203,
      "velocity": 91,
      "chip": "ym2612"
    },
    {
      "channel": 3,
      "note": 68,
      "start": 22.0714,
      "duration": 0.2202,
      "velocity": 102,
      "chip": "ym2612"
    },
    {
      "channel": 4,
      "note": 68,
      "start": 22.0737,
      "duration": 0.2186,
      "velocity": 87,
      "chip": "ym2612"
    },
    {
      "channel": 2,
      "note": 73,
      "start": 22.0752,
      "duration": 0.1006,
      "velocity": 120,
      "chip": "ym2612"
    },
    {
      "channel": 5,
      "note": 83,
      "start": 22.1,
      "duration": 0.234,
      "velocity": 102,
      "chip": "ym2612"
    },
    {
      "channel": 2,
      "note": 66,
      "start": 22.1816,
      "duration": 0.1037,
      "velocity": 127,
      "chip": "ym2612"
    },
    {
      "channel": 0,
      "note": 71,
      "start": 22.2907,
      "duration": 0.4528,
      "velocity": 102,
      "chip": "ym2612"
    },
    {
      "channel": 1,
      "note": 50,
      "start": 22.2915,
      "duration": 0.1071,
      "velocity": 91,
      "chip": "ym2612"
    },
    {
      "channel": 3,
      "note": 68,
      "start": 22.2922,
      "duration": 0.4531,
      "velocity": 102,
      "chip": "ym2612"
    },
    {
      "channel": 4,
      "note": 64,
      "start": 22.2932,
      "duration": 0.4531,
      "velocity": 87,
      "chip": "ym2612"
    },
    {
      "channel": 2,
      "note": 27,
      "start": 22.2945,
      "duration": 0.1003,
      "velocity": 119,
      "chip": "ym2612"
    },
    {
      "channel": 5,
      "note": 83,
      "start": 22.335,
      "duration": 0.4386,
      "velocity": 102,
      "chip": "ym2612"
    },
    {
      "channel": 1,
      "note": 62,
      "start": 22.3992,
      "duration": 0.2154,
      "velocity": 91,
      "chip": "ym2612"
    },
    {
      "channel": 2,
      "note": 27,
      "start": 22.4015,
      "duration": 0.1186,
      "velocity": 119,
      "chip": "ym2612"
    },
    {
      "channel": 2,
      "note": 27,
      "start": 22.5276,
      "duration": 0.102,
      "velocity": 119,
      "chip": "ym2612"
    },
    {
      "channel": 1,
      "note": 50,
      "start": 22.6335,
      "duration": 0.111,
      "velocity": 91,
      "chip": "ym2612"
    },
    {
      "channel": 2,
      "note": 66,
      "start": 22.6357,
      "duration": 0.1046,
      "velocity": 127,
      "chip": "ym2612"
    },
    {
      "channel": 0,
      "note": 69,
      "start": 22.7444,
      "duration": 0.4514,
      "velocity": 102,
      "chip": "ym2612"
    },
    {
      "channel": 1,
      "note": 62,
      "start": 22.7451,
      "duration": 0.2165,
      "velocity": 91,
      "chip": "ym2612"
    },
    {
      "channel": 3,
      "note": 66,
      "start": 22.7461,
      "duration": 0.4514,
      "velocity": 102,
      "chip": "ym2612"
    },
    {
      "channel": 4,
      "note": 61,
      "start": 22.7471,
      "duration": 0.2158,
      "velocity": 87,
      "chip": "ym2612"
    },
    {
      "channel": 2,
      "note": 27,
      "start": 22.7485,
      "duration": 0.1001,
      "velocity": 119,
      "chip": "ym2612"
    },
    {
      "channel": 5,
      "note": 81,
      "start": 22.7745,
      "duration": 0.4515,
      "velocity": 102,
      "chip": "ym2612"
    },
    {
      "channel": 2,
      "note": 66,
      "start": 22.8544,
      "duration": 0.1039,
      "velocity": 127,
      "chip": "ym2612"
    },
    {
      "channel": 1,
      "note": 64,
      "start": 22.9622,
      "duration": 0.2158,
      "velocity": 91,
      "chip": "ym2612"
    },
    {
      "channel": 4,
      "note": 68,
      "start": 22.9638,
      "duration": 0.2346,
      "velocity": 87,
      "chip": "ym2612"
    },
    {
      "channel": 2,
      "note": 73,
      "start": 22.9652,
      "duration": 0.1182,
      "velocity": 120,
      "chip": "ym2612"
    },
    {
      "channel": 2,
      "note": 66,
      "start": 23.0906,
      "duration": 0.1024,
      "velocity": 127,
      "chip": "ym2612"
    },
    {
      "channel": 0,
      "note": 68,
      "start": 23.1966,
      "duration": 0.2188,
      "velocity": 102,
      "chip": "ym2612"
    },
    {
      "channel": 1,
      "note": 62,
      "start": 23.1974,
      "duration": 0.219,
      "velocity": 91,
      "chip": "ym2612"
    },
    {
      "channel": 3,
      "note": 64,
      "start": 23.1982,
      "duration": 0.219,
      "velocity": 102,
      "chip": "ym2612"
    },
    {
      "channel": 4,
      "note": 64,
      "start": 23.1992,
      "duration": 0.4526,
      "velocity": 87,
      "chip": "ym2612"
    },
    {
      "channel": 2,
      "note": 66,
      "start": 23.2006,
      "duration": 0.1018,
      "velocity": 127,
      "chip": "ym2612"
    },
    {
      "channel": 5,
      "note": 80,
      "start": 23.2269,
      "duration": 0.234,
      "velocity": 102,
      "chip": "ym2612"
    },
    {
      "channel": 2,
      "note": 66,
      "start": 23.3097,
      "duration": 0.1025,
      "velocity": 127,
      "chip": "ym2612"
    },
    {
      "channel": 0,
      "note": 73,
      "start": 23.4163,
      "duration": 0.3439,
      "velocity": 102,
      "chip": "ym2612"
    },
    {
      "channel": 1,
      "note": 49,
      "start": 23.417,
      "duration": 0.1093,
      "velocity": 91,
      "chip": "ym2612"
    },
    {
      "channel": 3,
      "note": 69,
      "start": 23.4179,
      "duration": 0.3437,
      "velocity": 102,
      "chip": "ym2612"
    },
    {
      "channel": 2,
      "note": 27,
      "start": 23.4196,
      "duration": 0.1021,
      "velocity": 119,
      "chip": "ym2612"
    },
    {
      "channel": 5,
      "note": 85,
      "start": 23.4618,
      "duration": 0.3289,
      "velocity": 102,
      "chip": "ym2612"
    },
    {
      "channel": 1,
      "note": 61,
      "start": 23.5269,
      "duration": 0.1237,
      "velocity": 91,
      "chip": "ym2612"
    },
    {
      "channel": 2,
      "note": 66,
      "start": 23.5292,
      "duration": 0.1176,
      "velocity": 127,
      "chip": "ym2612"
    },
    {
      "channel": 1,
      "note": 49,
      "start": 23.6511,
      "duration": 0.2181,
      "velocity": 91,
      "chip": "ym2612"
    },
    {
      "channel": 4,
      "note": 61,
      "start": 23.6527,
      "duration": 0.2178,
      "velocity": 87,
      "chip": "ym2612"
    },
    {
      "channel": 2,
      "note": 27,
      "start": 23.6541,
      "duration": 0.1034,
      "velocity": 119,
      "chip": "ym2612"
    },
    {
      "channel": 0,
      "note": 71,
      "start": 23.7611,
      "duration": 0.3272,
      "velocity": 102,
      "chip": "ym2612"
    },
    {
      "channel": 3,
      "note": 68,
      "start": 23.7623,
      "duration": 0.329,
      "velocity": 102,
      "chip": "ym2612"
    },
    {
      "channel": 2,
      "note": 66,
      "start": 23.7641,
      "duration": 0.1018,
      "velocity": 127,
      "chip": "ym2612"
    },
    {
      "channel": 5,
      "note": 83,
      "start": 23.7916,
      "duration": 0.3421,
      "velocity": 102,
      "chip": "ym2612"
    },
    {
      "channel": 1,
      "note": 62,
      "start": 23.8698,
      "duration": 0.2207,
      "velocity": 91,
      "chip": "ym2612"
    },
    {
      "channel": 4,
      "note": 68,
      "start": 23.8714,
      "duration": 0.2209,
      "velocity": 87,
      "chip": "ym2612"
    },
    {
      "channel": 2,
      "note": 73,
      "start": 23.8742,
      "duration": 0.1013,
      "velocity": 120,
      "chip": "ym2612"
    },
    {
      "channel": 2,
      "note": 66,
      "start": 23.9811,
      "duration": 0.1039,
      "velocity": 127,
      "chip": "ym2612"
    },
    {
      "channel": 0,
      "note": 69,
      "start": 24.0905,
      "duration": 0.2338,
      "velocity": 102,
      "chip": "ym2612"
    },
    {
      "channel": 1,
      "note": 50,
      "start": 24.0912,
      "duration": 0.1228,
      "velocity": 91,
      "chip": "ym2612"
    },
    {
      "channel": 3,
      "note": 66,
      "start": 24.0922,
      "duration": 0.2335,
      "velocity": 102,
      "chip": "ym2612"
    },
    {
      "channel": 4,
      "note": 64,
      "start": 24.0932,
      "duration": 0.4519,
      "velocity": 87,
      "chip": "ym2612"
    },
    {
      "channel": 2,
      "note": 27,
      "start": 24.0946,
      "duration": 0.1156,
      "velocity": 119,
      "chip": "ym2612"
    },
    {
      "channel": 5,
      "note": 81,
      "start": 24.1346,
      "duration": 0.2181,
      "velocity": 102,
      "chip": "ym2612"
    },
    {
      "channel": 1,
      "note": 61,
      "start": 24.2145,
      "duration": 0.2182,
      "velocity": 91,
      "chip": "ym2612"
    },
    {
      "channel": 2,
      "note": 27,
      "start": 24.2168,
      "duration": 0.103,
      "velocity": 119,
      "chip": "ym2612"
    },
    {
      "channel": 0,
      "note": 71,
      "start": 24.3252,
      "duration": 0.326,
      "velocity": 102,
      "chip": "ym2612"
    },
    {
      "channel": 3,
      "note": 68,
      "start": 24.3264,
      "duration": 0.3261,
      "velocity": 102,
      "chip": "ym2612"
    },
    {
      "channel": 2,
      "note": 27,
      "start": 24.3281,
      "duration": 0.1012,
      "velocity": 119,
      "chip": "ym2612"
    },
    {
      "channel": 5,
      "note": 83,
      "start": 24.3536,
      "duration": 0.3434,
      "velocity": 102,
      "chip": "ym2612"
    },
    {
      "channel": 1,
      "note": 47,
      "start": 24.4333,
      "duration": 0.1107,
      "velocity": 91,
      "chip": "ym2612"
    },
    {
      "channel": 2,
      "note": 66,
      "start": 24.4356,
      "duration": 0.1046,
      "velocity": 127,
      "chip": "ym2612"
    },
    {
      "channel": 1,
      "note": 59,
      "start": 24.5445,
      "duration": 0.2141,
      "velocity": 91,
      "chip": "ym2612"
    },
    {
      "channel": 4,
      "note": 61,
      "start": 24.5459,
      "duration": 0.2328,
      "velocity": 87,
      "chip": "ym2612"
    },
    {
      "channel": 2,
      "note": 27,
      "start": 24.5473,
      "duration": 0.1012,
      "velocity": 119,
      "chip": "ym2612"
    },
    {
      "channel": 0,
      "note": 69,
      "start": 24.6521,
      "duration": 0.3434,
      "velocity": 102,
      "chip": "ym2612"
    },
    {
      "channel": 3,
      "note": 66,
      "start": 24.6534,
      "duration": 0.3438,
      "velocity": 102,
      "chip": "ym2612"
    },
    {
      "channel": 2,
      "note": 66,
      "start": 24.6552,
      "duration": 0.1189,
      "velocity": 127,
      "chip": "ym2612"
    },
    {
      "channel": 5,
      "note": 81,
      "start": 24.6979,
      "duration": 0.328,
      "velocity": 102,
      "chip": "ym2612"
    },
    {
      "channel": 1,
      "note": 61,
      "start": 24.778,
      "duration": 0.2184,
      "velocity": 91,
      "chip": "ym2612"
    },
    {
      "channel": 4,
      "note": 68,
      "start": 24.7796,
      "duration": 0.2186,
      "velocity": 87,
      "chip": "ym2612"
    },
    {
      "channel": 2,
      "note": 73,
      "start": 24.781,
      "duration": 0.1022,
      "velocity": 120,
      "chip": "ym2612"
    },
    {
      "channel": 2,
      "note": 66,
      "start": 24.8901,
      "duration": 0.1025,
      "velocity": 127,
      "chip": "ym2612"
    },
    {
      "channel": 0,
      "note": 68,
      "start": 24.9963,
      "duration": 0.2188,
      "velocity": 102,
      "chip": "ym2612"
    },
    {
      "channel": 1,
      "note": 49,
      "start": 24.997,
      "duration": 0.2194,
      "velocity": 91,
      "chip": "ym2612"
    },
    {
      "channel": 3,
      "note": 64,
      "start": 24.998,
      "duration": 0.2191,
      "velocity": 102,
      "chip": "ym2612"
    },
    {
      "channel": 4,
      "note": 64,
      "start": 24.999,
      "duration": 0.2191,
      "velocity": 87,
      "chip": "ym2612"
    },
    {
      "channel": 2,
      "note": 66,
      "start": 25.0004,
      "duration": 0.1019,
      "velocity": 127,
      "chip": "ym2612"
    },
    {
      "channel": 5,
      "note": 80,
      "start": 25.0268,
      "duration": 0.2336,
      "velocity": 102,
      "chip": "ym2612"
    },
    {
      "channel": 2,
      "note": 66,
      "start": 25.1093,
      "duration": 0.1026,
      "velocity": 127,
      "chip": "ym2612"
    },
    {
      "channel": 0,
      "note": 69,
      "start": 25.216,
      "duration": 0.2337,
      "velocity": 102,
      "chip": "ym2612"
    },
    {
      "channel": 1,
      "note": 49,
      "start": 25.217,
      "duration": 0.1246,
      "velocity": 91,
      "chip": "ym2612"
    },
    {
      "channel": 3,
      "note": 66,
      "start": 25.218,
      "duration": 0.2334,
      "velocity": 102,
      "chip": "ym2612"
    },
    {
      "channel": 4,
      "note": 61,
      "start": 25.219,
      "duration": 0.124,
      "velocity": 87,
      "chip": "ym2612"
    },
    {
      "channel": 2,
      "note": 27,
      "start": 25.2203,
      "duration": 0.1166,
      "velocity": 119,
      "chip": "ym2612"
    },
    {
      "channel": 5,
      "note": 81,
      "start": 25.2612,
      "duration": 0.2183,
      "velocity": 102,
      "chip": "ym2612"
    },
    {
      "channel": 1,
      "note": 61,
      "start": 25.3422,
      "duration": 0.1085,
      "velocity": 91,
      "chip": "ym2612"
    },
    {
      "channel": 4,
      "note": 56,
      "start": 25.3438,
      "duration": 0.1085,
      "velocity": 87,
      "chip": "ym2612"
    },
    {
      "channel": 2,
      "note": 66,
      "start": 25.3451,
      "duration": 0.1013,
      "velocity": 127,
      "chip": "ym2612"
    },
    {
      "channel": 0,
      "note": 68,
      "start": 25.4506,
      "duration": 0.1093,
      "velocity": 102,
      "chip": "ym2612"
    },
    {
      "channel": 1,
      "note": 49,
      "start": 25.4513,
      "duration": 0.2182,
      "velocity": 91,
      "chip": "ym2612"
    },
    {
      "channel": 3,
      "note": 64,
      "start": 25.4522,
      "duration": 0.1091,
      "velocity": 102,
      "chip": "ym2612"
    },
    {
      "channel": 4,
      "note": 61,
      "start": 25.4531,
      "duration": 0.1092,
      "velocity": 87,
      "chip": "ym2612"
    },
    {
      "channel": 2,
      "note": 27,
      "start": 25.4545,
      "duration": 0.1026,
      "velocity": 119,
      "chip": "ym2612"
    },
    {
      "channel": 5,
      "note": 80,
      "start": 25.4804,
      "duration": 0.1101,
      "velocity": 102,
      "chip": "ym2612"
    },
    {
      "channel": 0,
      "note": 66,
      "start": 25.5607,
      "duration": 0.1077,
      "velocity": 102,
      "chip": "ym2612"
    },
    {
      "channel": 3,
      "note": 62,
      "start": 25.5621,
      "duration": 0.1081,
      "velocity": 102,
      "chip": "ym2612"
    },
    {
      "channel": 4,
      "note": 56,
      "start": 25.5631,
      "duration": 0.1079,
      "velocity": 87,
      "chip": "ym2612"
    },
    {
      "channel": 2,
      "note": 66,
      "start": 25.5645,
      "duration": 0.1012,
      "velocity": 127,
      "chip": "ym2612"
    },
    {
      "channel": 5,
      "note": 78,
      "start": 25.5914,
      "duration": 0.123,
      "velocity": 102,
      "chip": "ym2612"
    },
    {
      "channel": 0,
      "note": 68,
      "start": 25.6693,
      "duration": 1.1259,
      "velocity": 102,
      "chip": "ym2612"
    },
    {
      "channel": 1,
      "note": 62,
      "start": 25.67,
      "duration": 0.2154,
      "velocity": 91,
      "chip": "ym2612"
    },
    {
      "channel": 3,
      "note": 64,
      "start": 25.6709,
      "duration": 3.1661,
      "velocity": 105,
      "chip": "ym2612"
    },
    {
      "channel": 4,
      "note": 52,
      "start": 25.6719,
      "duration": 0.4536,
      "velocity": 87,
      "chip": "ym2612"
    },
    {
      "channel": 2,
      "note": 73,
      "start": 25.6746,
      "duration": 0.1006,
      "velocity": 120,
      "chip": "ym2612"
    },
    {
      "channel": 5,
      "note": 80,
      "start": 25.7153,
      "duration": 1.127,
      "velocity": 102,
      "chip": "ym2612"
    },
    {
      "channel": 2,
      "note": 66,
      "start": 25.781,
      "duration": 0.1193,
      "velocity": 127,
      "chip": "ym2612"
    },
    {
      "channel": 1,
      "note": 50,
      "start": 25.9046,
      "duration": 0.109,
      "velocity": 91,
      "chip": "ym2612"
    },
    {
      "channel": 2,
      "note": 27,
      "start": 25.9083,
      "duration": 0.1017,
      "velocity": 119,
      "chip": "ym2612"
    },
    {
      "channel": 1,
      "note": 62,
      "start": 26.0142,
      "duration": 0.2181,
      "velocity": 91,
      "chip": "ym2612"
    },
    {
      "channel": 2,
      "note": 27,
      "start": 26.0164,
      "duration": 0.1031,
      "velocity": 119,
      "chip": "ym2612"
    },
    {
      "channel": 4,
      "note": 61,
      "start": 26.1263,
      "duration": 0.1072,
      "velocity": 87,
      "chip": "ym2612"
    },
    {
      "channel": 2,
      "note": 27,
      "start": 26.1277,
      "duration": 0.1013,
      "velocity": 119,
      "chip": "ym2612"
    },
    {
      "channel": 1,
      "note": 50,
      "start": 26.2329,
      "duration": 0.1106,
      "velocity": 91,
      "chip": "ym2612"
    },
    {
      "channel": 4,
      "note": 56,
      "start": 26.2343,
      "duration": 0.1106,
      "velocity": 87,
      "chip": "ym2612"
    },
    {
      "channel": 2,
      "note": 66,
      "start": 26.2357,
      "duration": 0.1029,
      "velocity": 127,
      "chip": "ym2612"
    },
    {
      "channel": 1,
      "note": 62,
      "start": 26.3442,
      "duration": 0.2142,
      "velocity": 91,
      "chip": "ym2612"
    },
    {
      "channel": 4,
      "note": 61,
      "start": 26.3458,
      "duration": 0.1224,
      "velocity": 87,
      "chip": "ym2612"
    },
    {
      "channel": 2,
      "note": 27,
      "start": 26.3471,
      "duration": 0.1167,
      "velocity": 119,
      "chip": "ym2612"
    },
    {
      "channel": 4,
      "note": 56,
      "start": 26.4691,
      "duration": 0.1097,
      "velocity": 87,
      "chip": "ym2612"
    },
    {
      "channel": 2,
      "note": 66,
      "start": 26.4705,
      "duration": 0.1036,
      "velocity": 127,
      "chip": "ym2612"
    },
    {
      "channel": 1,
      "note": 64,
      "start": 26.5781,
      "duration": 0.218,
      "velocity": 91,
      "chip": "ym2612"
    },
    {
      "channel": 4,
      "note": 52,
      "start": 26.5796,
      "duration": 0.4532,
      "velocity": 87,
      "chip": "ym2612"
    },
    {
      "channel": 2,
      "note": 73,
      "start": 26.5811,
      "duration": 0.1017,
      "velocity": 120,
      "chip": "ym2612"
    },
    {
      "channel": 2,
      "note": 66,
      "start": 26.6903,
      "duration": 0.1021,
      "velocity": 127,
      "chip": "ym2612"
    },
    {
      "channel": 0,
      "note": 68,
      "start": 26.7959,
      "duration": 0.1088,
      "velocity": 102,
      "chip": "ym2612"
    },
    {
      "channel": 1,
      "note": 62,
      "start": 26.7967,
      "duration": 0.2156,
      "velocity": 91,
      "chip": "ym2612"
    },
    {
      "channel": 2,
      "note": 66,
      "start": 26.799,
      "duration": 0.1029,
      "velocity": 127,
      "chip": "ym2612"
    },
    {
      "channel": 5,
      "note": 80,
      "start": 26.8431,
      "duration": 0.1076,
      "velocity": 102,
      "chip": "ym2612"
    },
    {
      "channel": 0,
      "note": 66,
      "start": 26.9069,
      "duration": 0.1235,
      "velocity": 102,
      "chip": "ym2612"
    },
    {
      "channel": 2,
      "note": 66,
      "start": 26.9097,
      "duration": 0.1176,
      "velocity": 127,
      "chip": "ym2612"
    },
    {
      "channel": 5,
      "note": 78,
      "start": 26.9516,
      "duration": 0.1088,
      "velocity": 102,
      "chip": "ym2612"
    },
    {
      "channel": 0,
      "note": 64,
      "start": 27.0314,
      "duration": 1.8012,
      "velocity": 105,
      "chip": "ym2612"
    },
    {
      "channel": 1,
      "note": 49,
      "start": 27.0321,
      "duration": 0.1093,
      "velocity": 91,
      "chip": "ym2612"
    },
    {
      "channel": 4,
      "note": 61,
      "start": 27.0337,
      "duration": 0.1089,
      "velocity": 87,
      "chip": "ym2612"
    },
    {
      "channel": 2,
      "note": 27,
      "start": 27.0351,
      "duration": 0.1017,
      "velocity": 119,
      "chip": "ym2612"
    },
    {
      "channel": 5,
      "note": 76,
      "start": 27.0613,
      "duration": 1.8013,
      "velocity": 105,
      "chip": "ym2612"
    },
    {
      "channel": 1,
      "note": 61,
      "start": 27.142,
      "duration": 0.108,
      "velocity": 91,
      "chip": "ym2612"
    },
    {
      "channel": 4,
      "note": 56,
      "start": 27.1434,
      "duration": 0.1079,
      "velocity": 87,
      "chip": "ym2612"
    },
    {
      "channel": 2,
      "note": 66,
      "start": 27.1448,
      "duration": 0.1014,
      "velocity": 127,
      "chip": "ym2612"
    },
    {
      "channel": 1,
      "note": 49,
      "start": 27.2506,
      "duration": 0.2181,
      "velocity": 91,
      "chip": "ym2612"
    },
    {
      "channel": 4,
      "note": 61,
      "start": 27.2522,
      "duration": 0.109,
      "velocity": 87,
      "chip": "ym2612"
    },
    {
      "channel": 2,
      "note": 27,
      "start": 27.2536,
      "duration": 0.1035,
      "velocity": 119,
      "chip": "ym2612"
    },
    {
      "channel": 4,
      "note": 56,
      "start": 27.3621,
      "duration": 0.108,
      "velocity": 87,
      "chip": "ym2612"
    },
    {
      "channel": 2,
      "note": 66,
      "start": 27.3635,
      "duration": 0.1019,
      "velocity": 127,
      "chip": "ym2612"
    },
    {
      "channel": 1,
      "note": 62,
      "start": 27.4693,
      "duration": 0.2158,
      "velocity": 91,
      "chip": "ym2612"
    },
    {
      "channel": 4,
      "note": 52,
      "start": 27.4709,
      "duration": 0.4539,
      "velocity": 87,
      "chip": "ym2612"
    },
    {
      "channel": 2,
      "note": 73,
      "start": 27.4737,
      "duration": 0.1171,
      "velocity": 120,
      "chip": "ym2612"
    },
    {
      "channel": 2,
      "note": 66,
      "start": 27.5967,
      "duration": 0.1034,
      "velocity": 127,
      "chip": "ym2612"
    },
    {
      "channel": 1,
      "note": 50,
      "start": 27.7044,
      "duration": 0.1091,
      "velocity": 91,
      "chip": "ym2612"
    },
    {
      "channel": 2,
      "note": 27,
      "start": 27.7079,
      "duration": 0.1017,
      "velocity": 119,
      "chip": "ym2612"
    },
    {
      "channel": 1,
      "note": 61,
      "start": 27.8141,
      "duration": 0.2181,
      "velocity": 91,
      "chip": "ym2612"
    },
    {
      "channel": 2,
      "note": 27,
      "start": 27.8166,
      "duration": 0.1027,
      "velocity": 119,
      "chip": "ym2612"
    },
    {
      "channel": 4,
      "note": 61,
      "start": 27.9258,
      "duration": 0.1078,
      "velocity": 87,
      "chip": "ym2612"
    },
    {
      "channel": 2,
      "note": 66,
      "start": 27.9272,
      "duration": 0.1015,
      "velocity": 127,
      "chip": "ym2612"
    },
    {
      "channel": 1,
      "note": 47,
      "start": 28.0327,
      "duration": 0.126,
      "velocity": 91,
      "chip": "ym2612"
    },
    {
      "channel": 4,
      "note": 56,
      "start": 28.0344,
      "duration": 0.1257,
      "velocity": 87,
      "chip": "ym2612"
    },
    {
      "channel": 2,
      "note": 73,
      "start": 28.0359,
      "duration": 0.118,
      "velocity": 120,
      "chip": "ym2612"
    },
    {
      "channel": 1,
      "note": 59,
      "start": 28.1593,
      "duration": 0.2182,
      "velocity": 91,
      "chip": "ym2612"
    },
    {
      "channel": 4,
      "note": 61,
      "start": 28.1609,
      "duration": 0.1068,
      "velocity": 87,
      "chip": "ym2612"
    },
    {
      "channel": 2,
      "note": 73,
      "start": 28.1625,
      "duration": 0.101,
      "velocity": 120,
      "chip": "ym2612"
    },
    {
      "channel": 4,
      "note": 56,
      "start": 28.2686,
      "duration": 0.1103,
      "velocity": 87,
      "chip": "ym2612"
    },
    {
      "channel": 2,
      "note": 73,
      "start": 28.2702,
      "duration": 0.1039,
      "velocity": 120,
      "chip": "ym2612"
    },
    {
      "channel": 1,
      "note": 61,
      "start": 28.378,
      "duration": 0.2176,
      "velocity": 91,
      "chip": "ym2612"
    },
    {
      "channel": 4,
      "note": 52,
      "start": 28.3797,
      "duration": 0.4623,
      "velocity": 105,
      "chip": "ym2612"
    },
    {
      "channel": 2,
      "note": 73,
      "start": 28.3813,
      "duration": 0.1013,
      "velocity": 120,
      "chip": "ym2612"
    },
    {
      "channel": 2,
      "note": 73,
      "start": 28.4899,
      "duration": 0.1022,
      "velocity": 120,
      "chip": "ym2612"
    },
    {
      "channel": 1,
      "note": 49,
      "start": 28.5962,
      "duration": 0.2157,
      "velocity": 91,
      "chip": "ym2612"
    },
    {
      "channel": 2,
      "note": 63,
      "start": 28.5987,
      "duration": 0.1186,
      "velocity": 120,
      "chip": "ym2612"
    },
    {
      "channel": 2,
      "note": 63,
      "start": 28.7248,
      "duration": 0.102,
      "velocity": 120,
      "chip": "ym2612"
    },
    {
      "channel": 0,
      "note": 61,
      "start": 28.8334,
      "duration": 0.4501,
      "velocity": 105,
      "chip": "ym2612"
    },
    {
      "channel": 1,
      "note": 49,
      "start": 28.8344,
      "duration": 0.1067,
      "velocity": 91,
      "chip": "ym2612"
    },
    {
      "channel": 3,
      "note": 56,
      "start": 28.8378,
      "duration": 0.4475,
      "velocity": 105,
      "chip": "ym2612"
    },
    {
      "channel": 4,
      "note": 76,
      "start": 28.8429,
      "duration": 0.4434,
      "velocity": 105,
      "chip": "ym2612"
    },
    {
      "channel": 2,
      "note": 27,
      "start": 28.8444,
      "duration": 0.092,
      "velocity": 119,
      "chip": "ym2612"
    },
    {
      "channel": 5,
      "note": 73,
      "start": 28.8635,
      "duration": 0.4506,
      "velocity": 105,
      "chip": "ym2612"
    },
    {
      "channel": 1,
      "note": 61,
      "start": 28.9417,
      "duration": 0.108,
      "velocity": 91,
      "chip": "ym2612"
    },
    {
      "channel": 2,
      "note": 66,
      "start": 28.9441,
      "duration": 0.1018,
      "velocity": 127,
      "chip": "ym2612"
    },
    {
      "channel": 1,
      "note": 49,
      "start": 29.0502,
      "duration": 0.2156,
      "velocity": 91,
      "chip": "ym2612"
    },
    {
      "channel": 2,
      "note": 27,
      "start": 29.0525,
      "duration": 0.1043,
      "velocity": 119,
      "chip": "ym2612"
    },
    {
      "channel": 2,
      "note": 66,
      "start": 29.1629,
      "duration": 0.1178,
      "velocity": 127,
      "chip": "ym2612"
    },
    {
      "channel": 0,
      "note": 62,
      "start": 29.2844,
      "duration": 0.439,
      "velocity": 105,
      "chip": "ym2612"
    },
    {
      "channel": 1,
      "note": 50,
      "start": 29.285,
      "duration": 0.109,
      "velocity": 91,
      "chip": "ym2612"
    },
    {
      "channel": 3,
      "note": 57,
      "start": 29.2861,
      "duration": 0.4391,
      "velocity": 105,
      "chip": "ym2612"
    },
    {
      "channel": 4,
      "note": 77,
      "start": 29.2871,
      "duration": 0.4391,
      "velocity": 105,
      "chip": "ym2612"
    },
    {
      "channel": 2,
      "note": 73,
      "start": 29.2885,
      "duration": 0.1022,
      "velocity": 120,
      "chip": "ym2612"
    },
    {
      "channel": 5,
      "note": 74,
      "start": 29.3149,
      "duration": 0.4528,
      "velocity": 105,
      "chip": "ym2612"
    },
    {
      "channel": 1,
      "note": 62,
      "start": 29.3946,
      "duration": 0.1089,
      "velocity": 91,
      "chip": "ym2612"
    },
    {
      "channel": 2,
      "note": 66,
      "start": 29.397,
      "duration": 0.1028,
      "velocity": 127,
      "chip": "ym2612"
    },
    {
      "channel": 1,
      "note": 50,
      "start": 29.5041,
      "duration": 0.2203,
      "velocity": 91,
      "chip": "ym2612"
    },
    {
      "channel": 2,
      "note": 27,
      "start": 29.5079,
      "duration": 0.1014,
      "velocity": 119,
      "chip": "ym2612"
    },
    {
      "channel": 2,
      "note": 27,
      "start": 29.6156,
      "duration": 0.1034,
      "velocity": 119,
      "chip": "ym2612"
    },
    {
      "channel": 0,
      "note": 64,
      "start": 29.7243,
      "duration": 0.2339,
      "velocity": 105,
      "chip": "ym2612"
    },
    {
      "channel": 1,
      "note": 52,
      "start": 29.725,
      "duration": 0.1224,
      "velocity": 91,
      "chip": "ym2612"
    },
    {
      "channel": 3,
      "note": 59,
      "start": 29.726,
      "duration": 0.2339,
      "velocity": 105,
      "chip": "ym2612"
    },
    {
      "channel": 4,
      "note": 79,
      "start": 29.727,
      "duration": 0.2337,
      "velocity": 105,
      "chip": "ym2612"
    },
    {
      "channel": 2,
      "note": 27,
      "start": 29.7284,
      "duration": 0.1156,
      "velocity": 119,
      "chip": "ym2612"
    },
    {
      "channel": 5,
      "note": 76,
      "start": 29.7686,
      "duration": 0.2183,
      "velocity": 105,
      "chip": "ym2612"
    },
    {
      "channel": 1,
      "note": 64,
      "start": 29.848,
      "duration": 0.1111,
      "velocity": 91,
      "chip": "ym2612"
    },
    {
      "channel": 2,
      "note": 66,
      "start": 29.8505,
      "duration": 0.1031,
      "velocity": 127,
      "chip": "ym2612"
    },
    {
      "channel": 0,
      "note": 67,
      "start": 29.959,
      "duration": 0.2176,
      "velocity": 105,
      "chip": "ym2612"
    },
    {
      "channel": 1,
      "note": 52,
      "start": 29.9597,
      "duration": 0.2173,
      "velocity": 91,
      "chip": "ym2612"
    },
    {
      "channel": 3,
      "note": 62,
      "start": 29.9606,
      "duration": 0.2172,
      "velocity": 105,
      "chip": "ym2612"
    },
    {
      "channel": 4,
      "note": 83,
      "start": 29.9616,
      "duration": 0.4514,
      "velocity": 105,
      "chip": "ym2612"
    },
    {
      "channel": 2,
      "note": 27,
      "start": 29.963,
      "duration": 0.1002,
      "velocity": 119,
      "chip": "ym2612"
    },
    {
      "channel": 5,
      "note": 79,
      "start": 29.9876,
      "duration": 0.2335,
      "velocity": 105,
      "chip": "ym2612"
    },
    {
      "channel": 2,
      "note": 66,
      "start": 30.0693,
      "duration": 0.1045,
      "velocity": 127,
      "chip": "ym2612"
    },
    {
      "channel": 1,
      "note": 64,
      "start": 30.1777,
      "duration": 0.2146,
      "velocity": 91,
      "chip": "ym2612"
    },
    {
      "channel": 2,
      "note": 73,
      "start": 30.18,
      "duration": 0.1024,
      "velocity": 120,
      "chip": "ym2612"
    },
    {
      "channel": 2,
      "note": 66,
      "start": 30.2875,
      "duration": 0.12,
      "velocity": 127,
      "chip": "ym2612"
    },
    {
      "channel": 0,
      "note": 65,
      "start": 30.4111,
      "duration": 2.0184,
      "velocity": 105,
      "chip": "ym2612"
    },
    {
      "channel": 1,
      "note": 52,
      "start": 30.4119,
      "duration": 0.1085,
      "velocity": 91,
      "chip": "ym2612"
    },
    {
      "channel": 3,
      "note": 61,
      "start": 30.4129,
      "duration": 2.0185,
      "velocity": 105,
      "chip": "ym2612"
    },
    {
      "channel": 4,
      "note": 80,
      "start": 30.4139,
      "duration": 2.0183,
      "velocity": 105,
      "chip": "ym2612"
    },
    {
      "channel": 2,
      "note": 72,
      "start": 30.4151,
      "duration": 0.1019,
      "velocity": 120,
      "chip": "ym2612"
    },
    {
      "channel": 5,
      "note": 77,
      "start": 30.443,
      "duration": 2.0331,
      "velocity": 105,
      "chip": "ym2612"
    },
    {
      "channel": 1,
      "note": 61,
      "start": 30.5209,
      "duration": 0.2198,
      "velocity": 91,
      "chip": "ym2612"
    },
    {
      "channel": 2,
      "note": 67,
      "start": 30.5247,
      "duration": 0.1018,
      "velocity": 120,
      "chip": "ym2612"
    },
    {
      "channel": 2,
      "note": 73,
      "start": 30.6326,
      "duration": 0.1034,
      "velocity": 120,
      "chip": "ym2612"
    },
    {
      "channel": 2,
      "note": 66,
      "start": 30.7431,
      "duration": 0.1025,
      "velocity": 127,
      "chip": "ym2612"
    },
    {
      "channel": 2,
      "note": 27,
      "start": 30.8521,
      "duration": 0.1188,
      "velocity": 119,
      "chip": "ym2612"
    },
    {
      "channel": 2,
      "note": 66,
      "start": 30.9782,
      "duration": 0.1022,
      "velocity": 127,
      "chip": "ym2612"
    },
    {
      "channel": 1,
      "note": 49,
      "start": 31.0847,
      "duration": 0.2183,
      "velocity": 91,
      "chip": "ym2612"
    },
    {
      "channel": 2,
      "note": 73,
      "start": 31.0871,
      "duration": 0.1037,
      "velocity": 120,
      "chip": "ym2612"
    },
    {
      "channel": 2,
      "note": 27,
      "start": 31.1976,
      "duration": 0.102,
      "velocity": 119,
      "chip": "ym2612"
    },
    {
      "channel": 1,
      "note": 64,
      "start": 31.3036,
      "duration": 0.1093,
      "velocity": 91,
      "chip": "ym2612"
    },
    {
      "channel": 2,
      "note": 66,
      "start": 31.3075,
      "duration": 0.1015,
      "velocity": 127,
      "chip": "ym2612"
    },
    {
      "channel": 1,
      "note": 65,
      "start": 31.4135,
      "duration": 0.2154,
      "velocity": 91,
      "chip": "ym2612"
    },
    {
      "channel": 2,
      "note": 27,
      "start": 31.4162,
      "duration": 0.118,
      "velocity": 119,
      "chip": "ym2612"
    },
    {
      "channel": 2,
      "note": 72,
      "start": 31.542,
      "duration": 0.1018,
      "velocity": 120,
      "chip": "ym2612"
    },
    {
      "channel": 2,
      "note": 72,
      "start": 31.65,
      "duration": 0.1033,
      "velocity": 120,
      "chip": "ym2612"
    },
    {
      "channel": 1,
      "note": 62,
      "start": 31.7586,
      "duration": 0.2185,
      "velocity": 91,
      "chip": "ym2612"
    },
    {
      "channel": 2,
      "note": 77,
      "start": 31.7616,
      "duration": 0.1012,
      "velocity": 120,
      "chip": "ym2612"
    },
    {
      "channel": 2,
      "note": 67,
      "start": 31.8693,
      "duration": 0.1044,
      "velocity": 120,
      "chip": "ym2612"
    },
    {
      "channel": 1,
      "note": 62,
      "start": 31.9775,
      "duration": 0.1235,
      "velocity": 91,
      "chip": "ym2612"
    },
    {
      "channel": 2,
      "note": 73,
      "start": 31.9804,
      "duration": 0.1172,
      "velocity": 120,
      "chip": "ym2612"
    },
    {
      "channel": 1,
      "note": 61,
      "start": 32.1017,
      "duration": 0.2186,
      "velocity": 91,
      "chip": "ym2612"
    },
    {
      "channel": 2,
      "note": 73,
      "start": 32.1045,
      "duration": 0.1029,
      "velocity": 120,
      "chip": "ym2612"
    },
    {
      "channel": 2,
      "note": 73,
      "start": 32.2137,
      "duration": 0.103,
      "velocity": 120,
      "chip": "ym2612"
    },
    {
      "channel": 2,
      "note": 73,
      "start": 32.3244,
      "duration": 0.102,
      "velocity": 120,
      "chip": "ym2612"
    },
    {
      "channel": 0,
      "note": 61,
      "start": 32.4305,
      "duration": 0.4524,
      "velocity": 105,
      "chip": "ym2612"
    },
    {
      "channel": 1,
      "note": 49,
      "start": 32.4312,
      "duration": 0.1094,
      "velocity": 91,
      "chip": "ym2612"
    },
    {
      "channel": 3,
      "note": 56,
      "start": 32.4321,
      "duration": 0.4525,
      "velocity": 105,
      "chip": "ym2612"
    },
    {
      "channel": 4,
      "note": 76,
      "start": 32.4331,
      "duration": 0.4526,
      "velocity": 105,
      "chip": "ym2612"
    },
    {
      "channel": 2,
      "note": 27,
      "start": 32.4345,
      "duration": 0.1013,
      "velocity": 119,
      "chip": "ym2612"
    },
    {
      "channel": 5,
      "note": 73,
      "start": 32.477,
      "duration": 0.4365,
      "velocity": 105,
      "chip": "ym2612"
    },
    {
      "channel": 1,
      "note": 61,
      "start": 32.5411,
      "duration": 0.1237,
      "velocity": 91,
      "chip": "ym2612"
    },
    {
      "channel": 2,
      "note": 66,
      "start": 32.5436,
      "duration": 0.1174,
      "velocity": 127,
      "chip": "ym2612"
    },
    {
      "channel": 1,
      "note": 49,
      "start": 32.6653,
      "duration": 0.2186,
      "velocity": 91,
      "chip": "ym2612"
    },
    {
      "channel": 2,
      "note": 27,
      "start": 32.6678,
      "duration": 0.1028,
      "velocity": 119,
      "chip": "ym2612"
    },
    {
      "channel": 2,
      "note": 66,
      "start": 32.7778,
      "duration": 0.1023,
      "velocity": 127,
      "chip": "ym2612"
    },
    {
      "channel": 0,
      "note": 62,
      "start": 32.8837,
      "duration": 0.4534,
      "velocity": 105,
      "chip": "ym2612"
    },
    {
      "channel": 1,
      "note": 50,
      "start": 32.8845,
      "duration": 0.1096,
      "velocity": 91,
      "chip": "ym2612"
    },
    {
      "channel": 3,
      "note": 57,
      "start": 32.8854,
      "duration": 0.4548,
      "velocity": 105,
      "chip": "ym2612"
    },
    {
      "channel": 4,
      "note": 77,
      "start": 32.8865,
      "duration": 0.4546,
      "velocity": 105,
      "chip": "ym2612"
    },
    {
      "channel": 2,
      "note": 73,
      "start": 32.8879,
      "duration": 0.1028,
      "velocity": 120,
      "chip": "ym2612"
    },
    {
      "channel": 5,
      "note": 74,
      "start": 32.9143,
      "duration": 0.4528,
      "velocity": 105,
      "chip": "ym2612"
    },
    {
      "channel": 1,
      "note": 62,
      "start": 32.9946,
      "duration": 0.1083,
      "velocity": 91,
      "chip": "ym2612"
    },
    {
      "channel": 2,
      "note": 66,
      "start": 32.997,
      "duration": 0.1022,
      "velocity": 127,
      "chip": "ym2612"
    },
    {
      "channel": 1,
      "note": 50,
      "start": 33.1036,
      "duration": 0.2154,
      "velocity": 91,
      "chip": "ym2612"
    },
    {
      "channel": 2,
      "note": 27,
      "start": 33.1074,
      "duration": 0.1171,
      "velocity": 119,
      "chip": "ym2612"
    },
    {
      "channel": 2,
      "note": 27,
      "start": 33.2308,
      "duration": 0.1031,
      "velocity": 119,
      "chip": "ym2612"
    },
    {
      "channel": 0,
      "note": 64,
      "start": 33.338,
      "duration": 0.2195,
      "velocity": 105,
      "chip": "ym2612"
    },
    {
      "channel": 1,
      "note": 64,
      "start": 33.3401,
      "duration": 0.1067,
      "velocity": 91,
      "chip": "ym2612"
    },
    {
      "channel": 3,
      "note": 59,
      "start": 33.3409,
      "duration": 0.2185,
      "velocity": 105,
      "chip": "ym2612"
    },
    {
      "channel": 4,
      "note": 79,
      "start": 33.3419,
      "duration": 0.2183,
      "velocity": 105,
      "chip": "ym2612"
    },
    {
      "channel": 2,
      "note": 27,
      "start": 33.3433,
      "duration": 0.1002,
      "velocity": 119,
      "chip": "ym2612"
    },
    {
      "channel": 5,
      "note": 76,
      "start": 33.368,
      "duration": 0.234,
      "velocity": 105,
      "chip": "ym2612"
    },
    {
      "channel": 1,
      "note": 52,
      "start": 33.4474,
      "duration": 0.1112,
      "velocity": 91,
      "chip": "ym2612"
    },
    {
      "channel": 2,
      "note": 66,
      "start": 33.4499,
      "duration": 0.1031,
      "velocity": 127,
      "chip": "ym2612"
    },
    {
      "channel": 0,
      "note": 65,
      "start": 33.5585,
      "duration": 0.2334,
      "velocity": 105,
      "chip": "ym2612"
    },
    {
      "channel": 1,
      "note": 64,
      "start": 33.5592,
      "duration": 0.2151,
      "velocity": 91,
      "chip": "ym2612"
    },
    {
      "channel": 3,
      "note": 60,
      "start": 33.56,
      "duration": 0.2329,
      "velocity": 105,
      "chip": "ym2612"
    },
    {
      "channel": 4,
      "note": 81,
      "start": 33.5611,
      "duration": 0.4519,
      "velocity": 105,
      "chip": "ym2612"
    },
    {
      "channel": 2,
      "note": 27,
      "start": 33.5625,
      "duration": 0.1001,
      "velocity": 119,
      "chip": "ym2612"
    },
    {
      "channel": 5,
      "note": 77,
      "start": 33.6029,
      "duration": 0.2177,
      "velocity": 105,
      "chip": "ym2612"
    },
    {
      "channel": 2,
      "note": 66,
      "start": 33.6687,
      "duration": 0.1191,
      "velocity": 127,
      "chip": "ym2612"
    },
    {
      "channel": 1,
      "note": 64,
      "start": 33.7928,
      "duration": 0.2184,
      "velocity": 91,
      "chip": "ym2612"
    },
    {
      "channel": 2,
      "note": 73,
      "start": 33.7953,
      "duration": 0.102,
      "velocity": 120,
      "chip": "ym2612"
    },
    {
      "channel": 2,
      "note": 66,
      "start": 33.9023,
      "duration": 0.1051,
      "velocity": 127,
      "chip": "ym2612"
    },
    {
      "channel": 0,
      "note": 67,
      "start": 34.0111,
      "duration": 2.0336,
      "velocity": 105,
      "chip": "ym2612"
    },
    {
      "channel": 1,
      "note": 65,
      "start": 34.0118,
      "duration": 0.108,
      "velocity": 91,
      "chip": "ym2612"
    },
    {
      "channel": 3,
      "note": 62,
      "start": 34.0128,
      "duration": 2.0335,
      "velocity": 105,
      "chip": "ym2612"
    },
    {
      "channel": 4,
      "note": 83,
      "start": 34.0139,
      "duration": 2.0335,
      "velocity": 105,
      "chip": "ym2612"
    },
    {
      "channel": 2,
      "note": 72,
      "start": 34.015,
      "duration": 0.1015,
      "velocity": 120,
      "chip": "ym2612"
    },
    {
      "channel": 5,
      "note": 79,
      "start": 34.0424,
      "duration": 2.0334,
      "velocity": 105,
      "chip": "ym2612"
    },
    {
      "channel": 1,
      "note": 64,
      "start": 34.1204,
      "duration": 0.2159,
      "velocity": 91,
      "chip": "ym2612"
    },
    {
      "channel": 2,
      "note": 67,
      "start": 34.1242,
      "duration": 0.1017,
      "velocity": 120,
      "chip": "ym2612"
    },
    {
      "channel": 2,
      "note": 73,
      "start": 34.2321,
      "duration": 0.1191,
      "velocity": 120,
      "chip": "ym2612"
    },
    {
      "channel": 1,
      "note": 62,
      "start": 34.3551,
      "duration": 0.2198,
      "velocity": 91,
      "chip": "ym2612"
    },
    {
      "channel": 2,
      "note": 66,
      "start": 34.359,
      "duration": 0.1018,
      "velocity": 127,
      "chip": "ym2612"
    },
    {
      "channel": 2,
      "note": 27,
      "start": 34.467,
      "duration": 0.1033,
      "velocity": 119,
      "chip": "ym2612"
    },
    {
      "channel": 1,
      "note": 64,
      "start": 34.5755,
      "duration": 0.1081,
      "velocity": 91,
      "chip": "ym2612"
    },
    {
      "channel": 2,
      "note": 66,
      "start": 34.578,
      "duration": 0.1018,
      "velocity": 127,
      "chip": "ym2612"
    },
    {
      "channel": 1,
      "note": 62,
      "start": 34.6841,
      "duration": 0.2155,
      "velocity": 91,
      "chip": "ym2612"
    },
    {
      "channel": 2,
      "note": 73,
      "start": 34.6865,
      "duration": 0.1038,
      "velocity": 120,
      "chip": "ym2612"
    },
    {
      "channel": 2,
      "note": 27,
      "start": 34.7971,
      "duration": 0.1174,
      "velocity": 119,
      "chip": "ym2612"
    },
    {
      "channel": 1,
      "note": 49,
      "start": 34.9186,
      "duration": 0.2185,
      "velocity": 91,
      "chip": "ym2612"
    },
    {
      "channel": 2,
      "note": 66,
      "start": 34.9214,
      "duration": 0.1028,
      "velocity": 127,
      "chip": "ym2612"
    },
    {
      "channel": 2,
      "note": 27,
      "start": 35.0308,
      "duration": 0.1029,
      "velocity": 119,
      "chip": "ym2612"
    },
    {
      "channel": 1,
      "note": 61,
      "start": 35.1376,
      "duration": 0.2199,
      "velocity": 91,
      "chip": "ym2612"
    },
    {
      "channel": 2,
      "note": 72,
      "start": 35.1419,
      "duration": 0.1013,
      "velocity": 120,
      "chip": "ym2612"
    },
    {
      "channel": 2,
      "note": 72,
      "start": 35.2495,
      "duration": 0.1032,
      "velocity": 120,
      "chip": "ym2612"
    },
    {
      "channel": 2,
      "note": 77,
      "start": 35.3604,
      "duration": 0.1175,
      "velocity": 120,
      "chip": "ym2612"
    },
    {
      "channel": 2,
      "note": 67,
      "start": 35.4845,
      "duration": 0.1029,
      "velocity": 120,
      "chip": "ym2612"
    },
    {
      "channel": 1,
      "note": 49,
      "start": 35.5928,
      "duration": 0.218,
      "velocity": 91,
      "chip": "ym2612"
    },
    {
      "channel": 2,
      "note": 73,
      "start": 35.5955,
      "duration": 0.1016,
      "velocity": 120,
      "chip": "ym2612"
    },
    {
      "channel": 2,
      "note": 73,
      "start": 35.7036,
      "duration": 0.1039,
      "velocity": 120,
      "chip": "ym2612"
    },
    {
      "channel": 2,
      "note": 73,
      "start": 35.8135,
      "duration": 0.1027,
      "velocity": 120,
      "chip": "ym2612"
    },
    {
      "channel": 2,
      "note": 73,
      "start": 35.924,
      "duration": 0.1174,
      "velocity": 120,
      "chip": "ym2612"
    },
    {
      "channel": 0,
      "note": 61,
      "start": 36.0455,
      "duration": 0.4368,
      "velocity": 105,
      "chip": "ym2612"
    },
    {
      "channel": 1,
      "note": 49,
      "start": 36.0462,
      "duration": 0.108,
      "velocity": 91,
      "chip": "ym2612"
    },
    {
      "channel": 3,
      "note": 56,
      "start": 36.0472,
      "duration": 0.4368,
      "velocity": 105,
      "chip": "ym2612"
    },
    {
      "channel": 4,
      "note": 76,
      "start": 36.0482,
      "duration": 0.4368,
      "velocity": 105,
      "chip": "ym2612"
    },
    {
      "channel": 2,
      "note": 27,
      "start": 36.0497,
      "duration": 0.1012,
      "velocity": 119,
      "chip": "ym2612"
    },
    {
      "channel": 5,
      "note": 73,
      "start": 36.0766,
      "duration": 0.4517,
      "velocity": 105,
      "chip": "ym2612"
    },
    {
      "channel": 1,
      "note": 61,
      "start": 36.1548,
      "duration": 0.1093,
      "velocity": 91,
      "chip": "ym2612"
    },
    {
      "channel": 2,
      "note": 66,
      "start": 36.1585,
      "duration": 0.102,
      "velocity": 127,
      "chip": "ym2612"
    },
    {
      "channel": 1,
      "note": 49,
      "start": 36.2648,
      "duration": 0.2185,
      "velocity": 91,
      "chip": "ym2612"
    },
    {
      "channel": 2,
      "note": 27,
      "start": 36.2673,
      "duration": 0.1027,
      "velocity": 119,
      "chip": "ym2612"
    },
    {
      "channel": 2,
      "note": 66,
      "start": 36.3772,
      "duration": 0.1023,
      "velocity": 127,
      "chip": "ym2612"
    },
    {
      "channel": 0,
      "note": 62,
      "start": 36.4831,
      "duration": 0.4534,
      "velocity": 105,
      "chip": "ym2612"
    },
    {
      "channel": 1,
      "note": 50,
      "start": 36.4839,
      "duration": 0.1254,
      "velocity": 91,
      "chip": "ym2612"
    },
    {
      "channel": 3,
      "note": 57,
      "start": 36.4849,
      "duration": 0.4534,
      "velocity": 105,
      "chip": "ym2612"
    },
    {
      "channel": 4,
      "note": 77,
      "start": 36.4859,
      "duration": 0.4545,
      "velocity": 105,
      "chip": "ym2612"
    },
    {
      "channel": 2,
      "note": 73,
      "start": 36.4873,
      "duration": 0.1174,
      "velocity": 120,
      "chip": "ym2612"
    },
    {
      "channel": 5,
      "note": 74,
      "start": 36.5293,
      "duration": 0.4531,
      "velocity": 105,
      "chip": "ym2612"
    },
    {
      "channel": 1,
      "note": 62,
      "start": 36.6099,
      "duration": 0.1081,
      "velocity": 91,
      "chip": "ym2612"
    },
    {
      "channel": 2,
      "note": 66,
      "start": 36.6125,
      "duration": 0.1018,
      "velocity": 127,
      "chip": "ym2612"
    },
    {
      "channel": 1,
      "note": 50,
      "start": 36.7186,
      "duration": 0.2189,
      "velocity": 91,
      "chip": "ym2612"
    },
    {
      "channel": 2,
      "note": 27,
      "start": 36.7209,
      "duration": 0.1031,
      "velocity": 119,
      "chip": "ym2612"
    },
    {
      "channel": 2,
      "note": 27,
      "start": 36.8305,
      "duration": 0.1029,
      "velocity": 119,
      "chip": "ym2612"
    },
    {
      "channel": 0,
      "note": 64,
      "start": 36.9374,
      "duration": 0.2339,
      "velocity": 105,
      "chip": "ym2612"
    },
    {
      "channel": 1,
      "note": 52,
      "start": 36.9381,
      "duration": 0.1081,
      "velocity": 91,
      "chip": "ym2612"
    },
    {
      "channel": 3,
      "note": 59,
      "start": 36.9402,
      "duration": 0.2341,
      "velocity": 105,
      "chip": "ym2612"
    },
    {
      "channel": 4,
      "note": 79,
      "start": 36.9413,
      "duration": 0.2342,
      "velocity": 105,
      "chip": "ym2612"
    },
    {
      "channel": 2,
      "note": 27,
      "start": 36.9427,
      "duration": 0.1002,
      "velocity": 119,
      "chip": "ym2612"
    },
    {
      "channel": 5,
      "note": 76,
      "start": 36.9833,
      "duration": 0.2181,
      "velocity": 105,
      "chip": "ym2612"
    },
    {
      "channel": 1,
      "note": 64,
      "start": 37.0468,
      "duration": 0.1268,
      "velocity": 91,
      "chip": "ym2612"
    },
    {
      "channel": 2,
      "note": 66,
      "start": 37.0493,
      "duration": 0.1188,
      "velocity": 127,
      "chip": "ym2612"
    },
    {
      "channel": 0,
      "note": 67,
      "start": 37.1735,
      "duration": 0.2179,
      "velocity": 105,
      "chip": "ym2612"
    },
    {
      "channel": 1,
      "note": 52,
      "start": 37.1742,
      "duration": 0.2176,
      "velocity": 91,
      "chip": "ym2612"
    },
    {
      "channel": 3,
      "note": 62,
      "start": 37.1752,
      "duration": 0.2173,
      "velocity": 105,
      "chip": "ym2612"
    },
    {
      "channel": 4,
      "note": 83,
      "start": 37.1763,
      "duration": 0.4366,
      "velocity": 105,
      "chip": "ym2612"
    },
    {
      "channel": 2,
      "note": 27,
      "start": 37.1777,
      "duration": 0.0999,
      "velocity": 119,
      "chip": "ym2612"
    },
    {
      "channel": 5,
      "note": 79,
      "start": 37.2023,
      "duration": 0.2177,
      "velocity": 105,
      "chip": "ym2612"
    },
    {
      "channel": 2,
      "note": 66,
      "start": 37.2835,
      "duration": 0.1037,
      "velocity": 127,
      "chip": "ym2612"
    },
    {
      "channel": 1,
      "note": 64,
      "start": 37.3924,
      "duration": 0.2186,
      "velocity": 91,
      "chip": "ym2612"
    },
    {
      "channel": 2,
      "note": 73,
      "start": 37.3949,
      "duration": 0.1019,
      "velocity": 120,
      "chip": "ym2612"
    },
    {
      "channel": 2,
      "note": 66,
      "start": 37.5018,
      "duration": 0.1055,
      "velocity": 127,
      "chip": "ym2612"
    },
    {
      "channel": 0,
      "note": 65,
      "start": 37.6109,
      "duration": 2.0327,
      "velocity": 105,
      "chip": "ym2612"
    },
    {
      "channel": 1,
      "note": 52,
      "start": 37.6117,
      "duration": 0.1232,
      "velocity": 91,
      "chip": "ym2612"
    },
    {
      "channel": 3,
      "note": 61,
      "start": 37.6127,
      "duration": 2.0327,
      "velocity": 105,
      "chip": "ym2612"
    },
    {
      "channel": 4,
      "note": 80,
      "start": 37.6137,
      "duration": 2.0327,
      "velocity": 105,
      "chip": "ym2612"
    },
    {
      "channel": 2,
      "note": 72,
      "start": 37.6149,
      "duration": 0.1167,
      "velocity": 120,
      "chip": "ym2612"
    },
    {
      "channel": 5,
      "note": 77,
      "start": 37.6573,
      "duration": 2.0181,
      "velocity": 105,
      "chip": "ym2612"
    },
    {
      "channel": 1,
      "note": 61,
      "start": 37.7354,
      "duration": 0.2185,
      "velocity": 91,
      "chip": "ym2612"
    },
    {
      "channel": 2,
      "note": 67,
      "start": 37.7381,
      "duration": 0.1029,
      "velocity": 120,
      "chip": "ym2612"
    },
    {
      "channel": 2,
      "note": 73,
      "start": 37.8469,
      "duration": 0.1036,
      "velocity": 120,
      "chip": "ym2612"
    },
    {
      "channel": 2,
      "note": 66,
      "start": 37.9578,
      "duration": 0.1024,
      "velocity": 127,
      "chip": "ym2612"
    },
    {
      "channel": 2,
      "note": 27,
      "start": 38.0664,
      "duration": 0.1033,
      "velocity": 119,
      "chip": "ym2612"
    },
    {
      "channel": 2,
      "note": 66,
      "start": 38.1771,
      "duration": 0.1178,
      "velocity": 127,
      "chip": "ym2612"
    },
    {
      "channel": 1,
      "note": 49,
      "start": 38.2992,
      "duration": 0.2182,
      "velocity": 91,
      "chip": "ym2612"
    },
    {
      "channel": 2,
      "note": 73,
      "start": 38.3018,
      "duration": 0.1026,
      "velocity": 120,
      "chip": "ym2612"
    },
    {
      "channel": 2,
      "note": 27,
      "start": 38.4123,
      "duration": 0.1017,
      "velocity": 119,
      "chip": "ym2612"
    },
    {
      "channel": 1,
      "note": 64,
      "start": 38.518,
      "duration": 0.1099,
      "velocity": 91,
      "chip": "ym2612"
    },
    {
      "channel": 2,
      "note": 66,
      "start": 38.5209,
      "duration": 0.1032,
      "velocity": 127,
      "chip": "ym2612"
    },
    {
      "channel": 1,
      "note": 65,
      "start": 38.6285,
      "duration": 0.2149,
      "velocity": 91,
      "chip": "ym2612"
    },
    {
      "channel": 2,
      "note": 27,
      "start": 38.6311,
      "duration": 0.102,
      "velocity": 119,
      "chip": "ym2612"
    },
    {
      "channel": 2,
      "note": 72,
      "start": 38.7408,
      "duration": 0.1175,
      "velocity": 120,
      "chip": "ym2612"
    },
    {
      "channel": 2,
      "note": 72,
      "start": 38.8647,
      "duration": 0.1031,
      "velocity": 120,
      "chip": "ym2612"
    },
    {
      "channel": 1,
      "note": 62,
      "start": 38.9718,
      "duration": 0.2198,
      "velocity": 91,
      "chip": "ym2612"
    },
    {
      "channel": 2,
      "note": 77,
      "start": 38.9759,
      "duration": 0.1014,
      "velocity": 120,
      "chip": "ym2612"
    },
    {
      "channel": 2,
      "note": 67,
      "start": 39.084,
      "duration": 0.1029,
      "velocity": 120,
      "chip": "ym2612"
    },
    {
      "channel": 1,
      "note": 62,
      "start": 39.1921,
      "duration": 0.1078,
      "velocity": 91,
      "chip": "ym2612"
    },
    {
      "channel": 2,
      "note": 73,
      "start": 39.1948,
      "duration": 0.1017,
      "velocity": 120,
      "chip": "ym2612"
    },
    {
      "channel": 1,
      "note": 61,
      "start": 39.3005,
      "duration": 0.2158,
      "velocity": 91,
      "chip": "ym2612"
    },
    {
      "channel": 2,
      "note": 73,
      "start": 39.3033,
      "duration": 0.1184,
      "velocity": 120,
      "chip": "ym2612"
    },
    {
      "channel": 2,
      "note": 73,
      "start": 39.4295,
      "duration": 0.1018,
      "velocity": 120,
      "chip": "ym2612"
    },
    {
      "channel": 2,
      "note": 73,
      "start": 39.5375,
      "duration": 0.1033,
      "velocity": 120,
      "chip": "ym2612"
    },
    {
      "channel": 0,
      "note": 61,
      "start": 39.6445,
      "duration": 0.4529,
      "velocity": 105,
      "chip": "ym2612"
    },
    {
      "channel": 1,
      "note": 49,
      "start": 39.6452,
      "duration": 0.1084,
      "velocity": 91,
      "chip": "ym2612"
    },
    {
      "channel": 3,
      "note": 56,
      "start": 39.6462,
      "duration": 0.4529,
      "velocity": 105,
      "chip": "ym2612"
    },
    {
      "channel": 4,
      "note": 76,
      "start": 39.6473,
      "duration": 0.4527,
      "velocity": 105,
      "chip": "ym2612"
    },
    {
      "channel": 2,
      "note": 73,
      "start": 39.6488,
      "duration": 0.1015,
      "velocity": 120,
      "chip": "ym2612"
    },
    {
      "channel": 5,
      "note": 73,
      "start": 39.6763,
      "duration": 0.4515,
      "velocity": 105,
      "chip": "ym2612"
    },
    {
      "channel": 1,
      "note": 61,
      "start": 39.7542,
      "duration": 0.1094,
      "velocity": 91,
      "chip": "ym2612"
    },
    {
      "channel": 2,
      "note": 66,
      "start": 39.7579,
      "duration": 0.102,
      "velocity": 127,
      "chip": "ym2612"
    },
    {
      "channel": 1,
      "note": 49,
      "start": 39.8642,
      "duration": 0.2153,
      "velocity": 91,
      "chip": "ym2612"
    },
    {
      "channel": 2,
      "note": 27,
      "start": 39.8667,
      "duration": 0.1183,
      "velocity": 119,
      "chip": "ym2612"
    },
    {
      "channel": 2,
      "note": 66,
      "start": 39.9924,
      "duration": 0.1022,
      "velocity": 127,
      "chip": "ym2612"
    },
    {
      "channel": 0,
      "note": 62,
      "start": 40.0983,
      "duration": 0.4529,
      "velocity": 105,
      "chip": "ym2612"
    },
    {
      "channel": 1,
      "note": 50,
      "start": 40.099,
      "duration": 0.1102,
      "velocity": 91,
      "chip": "ym2612"
    },
    {
      "channel": 3,
      "note": 57,
      "start": 40.0998,
      "duration": 0.4532,
      "velocity": 105,
      "chip": "ym2612"
    },
    {
      "channel": 4,
      "note": 77,
      "start": 40.1008,
      "duration": 0.4532,
      "velocity": 105,
      "chip": "ym2612"
    },
    {
      "channel": 2,
      "note": 73,
      "start": 40.1023,
      "duration": 0.1018,
      "velocity": 120,
      "chip": "ym2612"
    },
    {
      "channel": 5,
      "note": 74,
      "start": 40.1286,
      "duration": 0.4531,
      "velocity": 105,
      "chip": "ym2612"
    },
    {
      "channel": 1,
      "note": 62,
      "start": 40.2098,
      "duration": 0.1072,
      "velocity": 91,
      "chip": "ym2612"
    },
    {
      "channel": 2,
      "note": 27,
      "start": 40.2123,
      "duration": 0.1014,
      "velocity": 119,
      "chip": "ym2612"
    },
    {
      "channel": 1,
      "note": 50,
      "start": 40.3176,
      "duration": 0.2158,
      "velocity": 91,
      "chip": "ym2612"
    },
    {
      "channel": 2,
      "note": 66,
      "start": 40.32,
      "duration": 0.1041,
      "velocity": 127,
      "chip": "ym2612"
    },
    {
      "channel": 2,
      "note": 27,
      "start": 40.4305,
      "duration": 0.118,
      "velocity": 119,
      "chip": "ym2612"
    },
    {
      "channel": 0,
      "note": 64,
      "start": 40.5521,
      "duration": 0.2182,
      "velocity": 105,
      "chip": "ym2612"
    },
    {
      "channel": 1,
      "note": 64,
      "start": 40.5529,
      "duration": 0.1085,
      "velocity": 91,
      "chip": "ym2612"
    },
    {
      "channel": 3,
      "note": 59,
      "start": 40.5539,
      "duration": 0.2195,
      "velocity": 105,
      "chip": "ym2612"
    },
    {
      "channel": 4,
      "note": 79,
      "start": 40.5549,
      "duration": 0.2195,
      "velocity": 105,
      "chip": "ym2612"
    },
    {
      "channel": 2,
      "note": 73,
      "start": 40.5576,
      "duration": 0.1003,
      "velocity": 120,
      "chip": "ym2612"
    },
    {
      "channel": 5,
      "note": 76,
      "start": 40.5826,
      "duration": 0.2183,
      "velocity": 105,
      "chip": "ym2612"
    },
    {
      "channel": 1,
      "note": 52,
      "start": 40.6619,
      "duration": 0.1094,
      "velocity": 91,
      "chip": "ym2612"
    },
    {
      "channel": 2,
      "note": 66,
      "start": 40.6642,
      "duration": 0.1032,
      "velocity": 127,
      "chip": "ym2612"
    },
    {
      "channel": 0,
      "note": 65,
      "start": 40.7712,
      "duration": 0.22,
      "velocity": 105,
      "chip": "ym2612"
    },
    {
      "channel": 1,
      "note": 64,
      "start": 40.7719,
      "duration": 0.2198,
      "velocity": 91,
      "chip": "ym2612"
    },
    {
      "channel": 3,
      "note": 60,
      "start": 40.7742,
      "duration": 0.2181,
      "velocity": 105,
      "chip": "ym2612"
    },
    {
      "channel": 4,
      "note": 81,
      "start": 40.7752,
      "duration": 0.4528,
      "velocity": 105,
      "chip": "ym2612"
    },
    {
      "channel": 2,
      "note": 73,
      "start": 40.7767,
      "duration": 0.1004,
      "velocity": 120,
      "chip": "ym2612"
    },
    {
      "channel": 5,
      "note": 77,
      "start": 40.8018,
      "duration": 0.2332,
      "velocity": 105,
      "chip": "ym2612"
    },
    {
      "channel": 2,
      "note": 66,
      "start": 40.8829,
      "duration": 0.1037,
      "velocity": 127,
      "chip": "ym2612"
    },
    {
      "channel": 1,
      "note": 64,
      "start": 40.9921,
      "duration": 0.2152,
      "velocity": 91,
      "chip": "ym2612"
    },
    {
      "channel": 2,
      "note": 27,
      "start": 40.9946,
      "duration": 0.1172,
      "velocity": 119,
      "chip": "ym2612"
    },
    {
      "channel": 2,
      "note": 66,
      "start": 41.117,
      "duration": 0.1043,
      "velocity": 127,
      "chip": "ym2612"
    },
    {
      "channel": 0,
      "note": 67,
      "start": 41.2263,
      "duration": 0.452,
      "velocity": 105,
      "chip": "ym2612"
    },
    {
      "channel": 1,
      "note": 65,
      "start": 41.227,
      "duration": 0.1072,
      "velocity": 91,
      "chip": "ym2612"
    },
    {
      "channel": 3,
      "note": 62,
      "start": 41.2279,
      "duration": 0.4518,
      "velocity": 105,
      "chip": "ym2612"
    },
    {
      "channel": 4,
      "note": 83,
      "start": 41.2289,
      "duration": 2.0303,
      "velocity": 87,
      "chip": "ym2612"
    },
    {
      "channel": 2,
      "note": 73,
      "start": 41.2301,
      "duration": 0.1008,
      "velocity": 120,
      "chip": "ym2612"
    },
    {
      "channel": 5,
      "note": 79,
      "start": 41.2568,
      "duration": 0.4527,
      "velocity": 105,
      "chip": "ym2612"
    },
    {
      "channel": 1,
      "note": 64,
      "start": 41.3348,
      "duration": 0.2186,
      "velocity": 91,
      "chip": "ym2612"
    },
    {
      "channel": 2,
      "note": 66,
      "start": 41.3373,
      "duration": 0.1034,
      "velocity": 127,
      "chip": "ym2612"
    },
    {
      "channel": 2,
      "note": 72,
      "start": 41.4466,
      "duration": 0.1034,
      "velocity": 120,
      "chip": "ym2612"
    },
    {
      "channel": 1,
      "note": 62,
      "start": 41.5539,
      "duration": 0.2158,
      "velocity": 91,
      "chip": "ym2612"
    },
    {
      "channel": 2,
      "note": 72,
      "start": 41.5578,
      "duration": 0.1174,
      "velocity": 120,
      "chip": "ym2612"
    },
    {
      "channel": 0,
      "note": 68,
      "start": 41.6793,
      "duration": 0.2179,
      "velocity": 105,
      "chip": "ym2612"
    },
    {
      "channel": 3,
      "note": 64,
      "start": 41.6806,
      "duration": 0.2183,
      "velocity": 105,
      "chip": "ym2612"
    },
    {
      "channel": 2,
      "note": 27,
      "start": 41.6826,
      "duration": 0.1022,
      "velocity": 119,
      "chip": "ym2612"
    },
    {
      "channel": 5,
      "note": 80,
      "start": 41.7104,
      "duration": 0.2173,
      "velocity": 105,
      "chip": "ym2612"
    },
    {
      "channel": 1,
      "note": 64,
      "start": 41.7905,
      "duration": 0.1077,
      "velocity": 91,
      "chip": "ym2612"
    },
    {
      "channel": 2,
      "note": 73,
      "start": 41.7928,
      "duration": 0.1015,
      "velocity": 120,
      "chip": "ym2612"
    },
    {
      "channel": 0,
      "note": 69,
      "start": 41.898,
      "duration": 0.2186,
      "velocity": 105,
      "chip": "ym2612"
    },
    {
      "channel": 1,
      "note": 62,
      "start": 41.8987,
      "duration": 0.2189,
      "velocity": 91,
      "chip": "ym2612"
    },
    {
      "channel": 3,
      "note": 66,
      "start": 41.8997,
      "duration": 0.2186,
      "velocity": 105,
      "chip": "ym2612"
    },
    {
      "channel": 2,
      "note": 77,
      "start": 41.9018,
      "duration": 0.102,
      "velocity": 120,
      "chip": "ym2612"
    },
    {
      "channel": 5,
      "note": 81,
      "start": 41.9285,
      "duration": 0.2338,
      "velocity": 105,
      "chip": "ym2612"
    },
    {
      "channel": 2,
      "note": 72,
      "start": 42.0111,
      "duration": 0.1023,
      "velocity": 120,
      "chip": "ym2612"
    },
    {
      "channel": 0,
      "note": 68,
      "start": 42.1175,
      "duration": 0.2335,
      "velocity": 105,
      "chip": "ym2612"
    },
    {
      "channel": 1,
      "note": 49,
      "start": 42.1182,
      "duration": 0.2149,
      "velocity": 91,
      "chip": "ym2612"
    },
    {
      "channel": 3,
      "note": 64,
      "start": 42.1192,
      "duration": 0.2335,
      "velocity": 105,
      "chip": "ym2612"
    },
    {
      "channel": 2,
      "note": 27,
      "start": 42.1212,
      "duration": 0.1187,
      "velocity": 119,
      "chip": "ym2612"
    },
    {
      "channel": 5,
      "note": 80,
      "start": 42.1632,
      "duration": 0.2181,
      "velocity": 105,
      "chip": "ym2612"
    },
    {
      "channel": 2,
      "note": 67,
      "start": 42.2462,
      "duration": 0.1019,
      "velocity": 120,
      "chip": "ym2612"
    },
    {
      "channel": 0,
      "note": 71,
      "start": 42.3518,
      "duration": 0.2181,
      "velocity": 105,
      "chip": "ym2612"
    },
    {
      "channel": 1,
      "note": 61,
      "start": 42.3526,
      "duration": 0.2184,
      "velocity": 91,
      "chip": "ym2612"
    },
    {
      "channel": 3,
      "note": 68,
      "start": 42.3534,
      "duration": 0.2178,
      "velocity": 105,
      "chip": "ym2612"
    },
    {
      "channel": 2,
      "note": 77,
      "start": 42.3569,
      "duration": 0.1008,
      "velocity": 120,
      "chip": "ym2612"
    },
    {
      "channel": 5,
      "note": 83,
      "start": 42.3822,
      "duration": 0.2341,
      "velocity": 105,
      "chip": "ym2612"
    },
    {
      "channel": 2,
      "note": 77,
      "start": 42.464,
      "duration": 0.1032,
      "velocity": 120,
      "chip": "ym2612"
    },
    {
      "channel": 0,
      "note": 69,
      "start": 42.5709,
      "duration": 0.2339,
      "velocity": 105,
      "chip": "ym2612"
    },
    {
      "channel": 3,
      "note": 66,
      "start": 42.5719,
      "duration": 0.2359,
      "velocity": 105,
      "chip": "ym2612"
    },
    {
      "channel": 2,
      "note": 72,
      "start": 42.5752,
      "duration": 0.1015,
      "velocity": 120,
      "chip": "ym2612"
    },
    {
      "channel": 5,
      "note": 81,
      "start": 42.6172,
      "duration": 0.2182,
      "velocity": 105,
      "chip": "ym2612"
    },
    {
      "channel": 2,
      "note": 72,
      "start": 42.6829,
      "duration": 0.119,
      "velocity": 120,
      "chip": "ym2612"
    },
    {
      "channel": 0,
      "note": 68,
      "start": 42.8069,
      "duration": 0.2183,
      "velocity": 105,
      "chip": "ym2612"
    },
    {
      "channel": 1,
      "note": 49,
      "start": 42.8076,
      "duration": 0.2186,
      "velocity": 91,
      "chip": "ym2612"
    },
    {
      "channel": 3,
      "note": 64,
      "start": 42.8086,
      "duration": 0.2178,
      "velocity": 105,
      "chip": "ym2612"
    },
    {
      "channel": 2,
      "note": 67,
      "start": 42.8108,
      "duration": 0.1007,
      "velocity": 120,
      "chip": "ym2612"
    },
    {
      "channel": 5,
      "note": 80,
      "start": 42.8363,
      "duration": 0.2182,
      "velocity": 105,
      "chip": "ym2612"
    },
    {
      "channel": 2,
      "note": 67,
      "start": 42.9176,
      "duration": 0.1034,
      "velocity": 120,
      "chip": "ym2612"
    },
    {
      "channel": 0,
      "note": 66,
      "start": 43.0261,
      "duration": 0.2208,
      "velocity": 102,
      "chip": "ym2612"
    },
    {
      "channel": 3,
      "note": 62,
      "start": 43.0272,
      "duration": 0.2268,
      "velocity": 102,
      "chip": "ym2612"
    },
    {
      "channel": 2,
      "note": 63,
      "start": 43.0293,
      "duration": 0.1013,
      "velocity": 120,
      "chip": "ym2612"
    },
    {
      "channel": 5,
      "note": 78,
      "start": 43.0567,
      "duration": 0.236,
      "velocity": 102,
      "chip": "ym2612"
    },
    {
      "channel": 2,
      "note": 63,
      "start": 43.1366,
      "duration": 0.1044,
      "velocity": 120,
      "chip": "ym2612"
    },
    {
      "channel": 0,
      "note": 61,
      "start": 43.2477,
      "duration": 0.4532,
      "velocity": 102,
      "chip": "ym2612"
    },
    {
      "channel": 1,
      "note": 49,
      "start": 43.2511,
      "duration": 0.1176,
      "velocity": 91,
      "chip": "ym2612"
    },
    {
      "channel": 3,
      "note": 56,
      "start": 43.2549,
      "duration": 0.4459,
      "velocity": 102,
      "chip": "ym2612"
    },
    {
      "channel": 2,
      "note": 27,
      "start": 43.2609,
      "duration": 0.1045,
      "velocity": 119,
      "chip": "ym2612"
    },
    {
      "channel": 5,
      "note": 73,
      "start": 43.2936,
      "duration": 0.4073,
      "velocity": 102,
      "chip": "ym2612"
    },
    {
      "channel": 1,
      "note": 61,
      "start": 43.3693,
      "duration": 0.1094,
      "velocity": 91,
      "chip": "ym2612"
    },
    {
      "channel": 2,
      "note": 66,
      "start": 43.3714,
      "duration": 0.1036,
      "velocity": 127,
      "chip": "ym2612"
    },
    {
      "channel": 1,
      "note": 49,
      "start": 43.4793,
      "duration": 0.2181,
      "velocity": 91,
      "chip": "ym2612"
    },
    {
      "channel": 4,
      "note": 61,
      "start": 43.4807,
      "duration": 0.2178,
      "velocity": 87,
      "chip": "ym2612"
    },
    {
      "channel": 2,
      "note": 27,
      "start": 43.482,
      "duration": 0.1025,
      "velocity": 119,
      "chip": "ym2612"
    },
    {
      "channel": 2,
      "note": 66,
      "start": 43.5917,
      "duration": 0.1024,
      "velocity": 127,
      "chip": "ym2612"
    },
    {
      "channel": 1,
      "note": 62,
      "start": 43.698,
      "duration": 0.0029,
      "velocity": 91,
      "chip": "ym2612"
    },
    {
      "channel": 4,
      "note": 68,
      "start": 43.6994,
      "duration": 0.0015,
      "velocity": 87,
      "chip": "ym2612"
    },
    {
      "channel": 2,
      "note": 73,
      "start": 43.7007,
      "duration": 0.0001,
      "velocity": 120,
      "chip": "ym2612"
    }
  ]
}