{
  "track_name": "31 - Eerie Village",
  "duration_sec": 54.115,
  "sample_rate": 44100,
  "note_count": 1378,
  "unique_pitches": 33,
  "pitch_range": 59,
  "avg_note_duration": 0.2024,
  "reconstruction_stats": {
    "notes_reconstructed": 1378,
    "keyon_events": 1378,
    "keyoff_events": 1373,
    "orphan_keyons": 5,
    "unique_pitches": 33,
    "pitch_range": 59,
    "avg_duration_sec": 0.2024
  },
  "metadata": {
    "source": "S\\Sorcerian (Genesis)\\31 - Eerie Village.vgz"
  },
  "notes": [
    {
      "channel": 0,
      "note": 52,
      "start": 0.0,
      "duration": 0.1556,
      "velocity": 97,
      "chip": "ym2612"
    },
    {
      "channel": 1,
      "note": 52,
      "start": 0.0033,
      "duration": 0.153,
      "velocity": 94,
      "chip": "ym2612"
    },
    {
      "channel": 3,
      "note": 71,
      "start": 0.0084,
      "duration": 0.15,
      "velocity": 97,
      "chip": "ym2612"
    },
    {
      "channel": 2,
      "note": 75,
      "start": 0.0099,
      "duration": 0.1429,
      "velocity": 120,
      "chip": "ym2612"
    },
    {
      "channel": 4,
      "note": 71,
      "start": 0.0221,
      "duration": 0.1588,
      "velocity": 100,
      "chip": "ym2612"
    },
    {
      "channel": 5,
      "note": 52,
      "start": 0.078,
      "duration": 0.1575,
      "velocity": 100,
      "chip": "ym2612"
    },
    {
      "channel": 0,
      "note": 53,
      "start": 0.1562,
      "duration": 0.1619,
      "velocity": 97,
      "chip": "ym2612"
    },
    {
      "channel": 1,
      "note": 53,
      "start": 0.1583,
      "duration": 0.1606,
      "velocity": 94,
      "chip": "ym2612"
    },
    {
      "channel": 3,
      "note": 72,
      "start": 0.1591,
      "duration": 0.1606,
      "velocity": 97,
      "chip": "ym2612"
    },
    {
      "channel": 2,
      "note": 75,
      "start": 0.1607,
      "duration": 0.1546,
      "velocity": 120,
      "chip": "ym2612"
    },
    {
      "channel": 4,
      "note": 72,
      "start": 0.1817,
      "duration": 0.1618,
      "velocity": 100,
      "chip": "ym2612"
    },
    {
      "channel": 5,
      "note": 53,
      "start": 0.2361,
      "duration": 0.1619,
      "velocity": 100,
      "chip": "ym2612"
    },
    {
      "channel": 0,
      "note": 54,
      "start": 0.3188,
      "duration": 0.1623,
      "velocity": 97,
      "chip": "ym2612"
    },
    {
      "channel": 1,
      "note": 54,
      "start": 0.3194,
      "duration": 0.1625,
      "velocity": 94,
      "chip": "ym2612"
    },
    {
      "channel": 3,
      "note": 73,
      "start": 0.3203,
      "duration": 0.1624,
      "velocity": 97,
      "chip": "ym2612"
    },
    {
      "channel": 2,
      "note": 75,
      "start": 0.3219,
      "duration": 0.156,
      "velocity": 120,
      "chip": "ym2612"
    },
    {
      "channel": 4,
      "note": 73,
      "start": 0.3442,
      "duration": 0.1618,
      "velocity": 100,
      "chip": "ym2612"
    },
    {
      "channel": 5,
      "note": 54,
      "start": 0.3986,
      "duration": 0.1619,
      "velocity": 100,
      "chip": "ym2612"
    },
    {
      "channel": 0,
      "note": 57,
      "start": 0.4818,
      "duration": 0.1627,
      "velocity": 97,
      "chip": "ym2612"
    },
    {
      "channel": 1,
      "note": 57,
      "start": 0.4825,
      "duration": 0.1627,
      "velocity": 94,
      "chip": "ym2612"
    },
    {
      "channel": 3,
      "note": 76,
      "start": 0.4834,
      "duration": 0.1627,
      "velocity": 97,
      "chip": "ym2612"
    },
    {
      "channel": 2,
      "note": 29,
      "start": 0.4849,
      "duration": 0.1031,
      "velocity": 119,
      "chip": "ym2612"
    },
    {
      "channel": 4,
      "note": 76,
      "start": 0.508,
      "duration": 0.1605,
      "velocity": 100,
      "chip": "ym2612"
    },
    {
      "channel": 5,
      "note": 57,
      "start": 0.5611,
      "duration": 0.1619,
      "velocity": 100,
      "chip": "ym2612"
    },
    {
      "channel": 0,
      "note": 54,
      "start": 0.6451,
      "duration": 0.2389,
      "velocity": 97,
      "chip": "ym2612"
    },
    {
      "channel": 1,
      "note": 54,
      "start": 0.6459,
      "duration": 0.2389,
      "velocity": 94,
      "chip": "ym2612"
    },
    {
      "channel": 3,
      "note": 73,
      "start": 0.6467,
      "duration": 0.2387,
      "velocity": 97,
      "chip": "ym2612"
    },
    {
      "channel": 2,
      "note": 68,
      "start": 0.6483,
      "duration": 0.1545,
      "velocity": 127,
      "chip": "ym2612"
    },
    {
      "channel": 4,
      "note": 73,
      "start": 0.6692,
      "duration": 0.2431,
      "velocity": 100,
      "chip": "ym2612"
    },
    {
      "channel": 5,
      "note": 54,
      "start": 0.7249,
      "duration": 0.2446,
      "velocity": 100,
      "chip": "ym2612"
    },
    {
      "channel": 2,
      "note": 75,
      "start": 0.8095,
      "duration": 0.1558,
      "velocity": 120,
      "chip": "ym2612"
    },
    {
      "channel": 0,
      "note": 54,
      "start": 0.8846,
      "duration": 0.162,
      "velocity": 97,
      "chip": "ym2612"
    },
    {
      "channel": 1,
      "note": 54,
      "start": 0.8851,
      "duration": 0.1622,
      "velocity": 94,
      "chip": "ym2612"
    },
    {
      "channel": 3,
      "note": 73,
      "start": 0.8859,
      "duration": 0.162,
      "velocity": 97,
      "chip": "ym2612"
    },
    {
      "channel": 4,
      "note": 73,
      "start": 0.9128,
      "duration": 0.1633,
      "velocity": 100,
      "chip": "ym2612"
    },
    {
      "channel": 5,
      "note": 54,
      "start": 0.97,
      "duration": 0.1641,
      "velocity": 100,
      "chip": "ym2612"
    },
    {
      "channel": 2,
      "note": 68,
      "start": 0.9708,
      "duration": 0.1573,
      "velocity": 127,
      "chip": "ym2612"
    },
    {
      "channel": 0,
      "note": 54,
      "start": 1.0471,
      "duration": 0.0842,
      "velocity": 97,
      "chip": "ym2612"
    },
    {
      "channel": 1,
      "note": 54,
      "start": 1.0478,
      "duration": 0.0844,
      "velocity": 94,
      "chip": "ym2612"
    },
    {
      "channel": 3,
      "note": 73,
      "start": 1.0484,
      "duration": 0.0845,
      "velocity": 97,
      "chip": "ym2612"
    },
    {
      "channel": 4,
      "note": 73,
      "start": 1.0767,
      "duration": 0.0794,
      "velocity": 100,
      "chip": "ym2612"
    },
    {
      "channel": 0,
      "note": 59,
      "start": 1.132,
      "duration": 0.1625,
      "velocity": 97,
      "chip": "ym2612"
    },
    {
      "channel": 1,
      "note": 59,
      "start": 1.1327,
      "duration": 0.1626,
      "velocity": 94,
      "chip": "ym2612"
    },
    {
      "channel": 3,
      "note": 78,
      "start": 1.1336,
      "duration": 0.1625,
      "velocity": 97,
      "chip": "ym2612"
    },
    {
      "channel": 5,
      "note": 54,
      "start": 1.1345,
      "duration": 0.076,
      "velocity": 100,
      "chip": "ym2612"
    },
    {
      "channel": 2,
      "note": 29,
      "start": 1.1354,
      "duration": 0.1027,
      "velocity": 119,
      "chip": "ym2612"
    },
    {
      "channel": 4,
      "note": 78,
      "start": 1.158,
      "duration": 0.1605,
      "velocity": 100,
      "chip": "ym2612"
    },
    {
      "channel": 5,
      "note": 59,
      "start": 1.2112,
      "duration": 0.162,
      "velocity": 100,
      "chip": "ym2612"
    },
    {
      "channel": 0,
      "note": 54,
      "start": 1.2952,
      "duration": 0.2389,
      "velocity": 97,
      "chip": "ym2612"
    },
    {
      "channel": 1,
      "note": 54,
      "start": 1.2959,
      "duration": 0.2389,
      "velocity": 94,
      "chip": "ym2612"
    },
    {
      "channel": 3,
      "note": 73,
      "start": 1.2967,
      "duration": 0.2387,
      "velocity": 97,
      "chip": "ym2612"
    },
    {
      "channel": 2,
      "note": 68,
      "start": 1.2983,
      "duration": 0.1545,
      "velocity": 127,
      "chip": "ym2612"
    },
    {
      "channel": 4,
      "note": 73,
      "start": 1.3192,
      "duration": 0.2432,
      "velocity": 100,
      "chip": "ym2612"
    },
    {
      "channel": 5,
      "note": 54,
      "start": 1.3751,
      "duration": 0.245,
      "velocity": 100,
      "chip": "ym2612"
    },
    {
      "channel": 2,
      "note": 75,
      "start": 1.4595,
      "duration": 0.156,
      "velocity": 120,
      "chip": "ym2612"
    },
    {
      "channel": 0,
      "note": 54,
      "start": 1.5346,
      "duration": 0.162,
      "velocity": 97,
      "chip": "ym2612"
    },
    {
      "channel": 1,
      "note": 54,
      "start": 1.5353,
      "duration": 0.162,
      "velocity": 94,
      "chip": "ym2612"
    },
    {
      "channel": 3,
      "note": 73,
      "start": 1.5359,
      "duration": 0.162,
      "velocity": 97,
      "chip": "ym2612"
    },
    {
      "channel": 4,
      "note": 73,
      "start": 1.5629,
      "duration": 0.1634,
      "velocity": 100,
      "chip": "ym2612"
    },
    {
      "channel": 5,
      "note": 54,
      "start": 1.6205,
      "duration": 0.1634,
      "velocity": 100,
      "chip": "ym2612"
    },
    {
      "channel": 2,
      "note": 29,
      "start": 1.6214,
      "duration": 0.106,
      "velocity": 119,
      "chip": "ym2612"
    },
    {
      "channel": 0,
      "note": 54,
      "start": 1.6972,
      "duration": 0.0839,
      "velocity": 97,
      "chip": "ym2612"
    },
    {
      "channel": 1,
      "note": 54,
      "start": 1.6978,
      "duration": 0.0841,
      "velocity": 94,
      "chip": "ym2612"
    },
    {
      "channel": 3,
      "note": 73,
      "start": 1.6985,
      "duration": 0.0842,
      "velocity": 97,
      "chip": "ym2612"
    },
    {
      "channel": 4,
      "note": 73,
      "start": 1.7268,
      "duration": 0.0794,
      "velocity": 100,
      "chip": "ym2612"
    },
    {
      "channel": 0,
      "note": 57,
      "start": 1.7818,
      "duration": 0.1635,
      "velocity": 97,
      "chip": "ym2612"
    },
    {
      "channel": 1,
      "note": 57,
      "start": 1.7825,
      "duration": 0.1636,
      "velocity": 94,
      "chip": "ym2612"
    },
    {
      "channel": 3,
      "note": 76,
      "start": 1.7834,
      "duration": 0.1635,
      "velocity": 97,
      "chip": "ym2612"
    },
    {
      "channel": 5,
      "note": 54,
      "start": 1.7843,
      "duration": 0.0763,
      "velocity": 100,
      "chip": "ym2612"
    },
    {
      "channel": 2,
      "note": 29,
      "start": 1.7851,
      "duration": 0.1031,
      "velocity": 119,
      "chip": "ym2612"
    },
    {
      "channel": 4,
      "note": 76,
      "start": 1.8081,
      "duration": 0.1606,
      "velocity": 100,
      "chip": "ym2612"
    },
    {
      "channel": 5,
      "note": 57,
      "start": 1.8612,
      "duration": 0.1619,
      "velocity": 100,
      "chip": "ym2612"
    },
    {
      "channel": 0,
      "note": 54,
      "start": 1.946,
      "duration": 0.1598,
      "velocity": 97,
      "chip": "ym2612"
    },
    {
      "channel": 1,
      "note": 54,
      "start": 1.9467,
      "duration": 0.1599,
      "velocity": 94,
      "chip": "ym2612"
    },
    {
      "channel": 3,
      "note": 73,
      "start": 1.9476,
      "duration": 0.1611,
      "velocity": 97,
      "chip": "ym2612"
    },
    {
      "channel": 2,
      "note": 29,
      "start": 1.9491,
      "duration": 0.1016,
      "velocity": 119,
      "chip": "ym2612"
    },
    {
      "channel": 4,
      "note": 73,
      "start": 1.9693,
      "duration": 0.1618,
      "velocity": 100,
      "chip": "ym2612"
    },
    {
      "channel": 5,
      "note": 54,
      "start": 2.0251,
      "duration": 0.1609,
      "velocity": 100,
      "chip": "ym2612"
    },
    {
      "channel": 0,
      "note": 59,
      "start": 2.1065,
      "duration": 0.1622,
      "velocity": 97,
      "chip": "ym2612"
    },
    {
      "channel": 1,
      "note": 59,
      "start": 2.1085,
      "duration": 0.1609,
      "velocity": 94,
      "chip": "ym2612"
    },
    {
      "channel": 3,
      "note": 78,
      "start": 2.1093,
      "duration": 0.1609,
      "velocity": 97,
      "chip": "ym2612"
    },
    {
      "channel": 2,
      "note": 75,
      "start": 2.1109,
      "duration": 0.1545,
      "velocity": 120,
      "chip": "ym2612"
    },
    {
      "channel": 4,
      "note": 78,
      "start": 2.1318,
      "duration": 0.1618,
      "velocity": 100,
      "chip": "ym2612"
    },
    {
      "channel": 5,
      "note": 59,
      "start": 2.1866,
      "duration": 0.1616,
      "velocity": 100,
      "chip": "ym2612"
    },
    {
      "channel": 0,
      "note": 54,
      "start": 2.2693,
      "duration": 0.3261,
      "velocity": 97,
      "chip": "ym2612"
    },
    {
      "channel": 1,
      "note": 54,
      "start": 2.27,
      "duration": 0.3262,
      "velocity": 94,
      "chip": "ym2612"
    },
    {
      "channel": 3,
      "note": 73,
      "start": 2.2708,
      "duration": 0.3261,
      "velocity": 97,
      "chip": "ym2612"
    },
    {
      "channel": 2,
      "note": 29,
      "start": 2.2724,
      "duration": 0.1046,
      "velocity": 119,
      "chip": "ym2612"
    },
    {
      "channel": 4,
      "note": 73,
      "start": 2.2943,
      "duration": 0.3244,
      "velocity": 100,
      "chip": "ym2612"
    },
    {
      "channel": 5,
      "note": 54,
      "start": 2.3488,
      "duration": 0.3244,
      "velocity": 100,
      "chip": "ym2612"
    },
    {
      "channel": 2,
      "note": 68,
      "start": 2.4332,
      "duration": 0.159,
      "velocity": 127,
      "chip": "ym2612"
    },
    {
      "channel": 0,
      "note": 52,
      "start": 2.5961,
      "duration": 0.1597,
      "velocity": 97,
      "chip": "ym2612"
    },
    {
      "channel": 1,
      "note": 52,
      "start": 2.5968,
      "duration": 0.1598,
      "velocity": 94,
      "chip": "ym2612"
    },
    {
      "channel": 3,
      "note": 71,
      "start": 2.5976,
      "duration": 0.1611,
      "velocity": 97,
      "chip": "ym2612"
    },
    {
      "channel": 2,
      "note": 29,
      "start": 2.5993,
      "duration": 0.1015,
      "velocity": 119,
      "chip": "ym2612"
    },
    {
      "channel": 4,
      "note": 71,
      "start": 2.6194,
      "duration": 0.1618,
      "velocity": 100,
      "chip": "ym2612"
    },
    {
      "channel": 5,
      "note": 52,
      "start": 2.6751,
      "duration": 0.1606,
      "velocity": 100,
      "chip": "ym2612"
    },
    {
      "channel": 0,
      "note": 53,
      "start": 2.7564,
      "duration": 0.1623,
      "velocity": 97,
      "chip": "ym2612"
    },
    {
      "channel": 1,
      "note": 53,
      "start": 2.7585,
      "duration": 0.161,
      "velocity": 94,
      "chip": "ym2612"
    },
    {
      "channel": 3,
      "note": 72,
      "start": 2.7593,
      "duration": 0.1609,
      "velocity": 97,
      "chip": "ym2612"
    },
    {
      "channel": 2,
      "note": 75,
      "start": 2.7609,
      "duration": 0.1546,
      "velocity": 120,
      "chip": "ym2612"
    },
    {
      "channel": 4,
      "note": 72,
      "start": 2.7819,
      "duration": 0.1618,
      "velocity": 100,
      "chip": "ym2612"
    },
    {
      "channel": 5,
      "note": 53,
      "start": 2.8364,
      "duration": 0.1619,
      "velocity": 100,
      "chip": "ym2612"
    },
    {
      "channel": 0,
      "note": 54,
      "start": 2.9193,
      "duration": 0.1619,
      "velocity": 97,
      "chip": "ym2612"
    },
    {
      "channel": 1,
      "note": 54,
      "start": 2.9201,
      "duration": 0.162,
      "velocity": 94,
      "chip": "ym2612"
    },
    {
      "channel": 3,
      "note": 73,
      "start": 2.9209,
      "duration": 0.1618,
      "velocity": 97,
      "chip": "ym2612"
    },
    {
      "channel": 2,
      "note": 29,
      "start": 2.9224,
      "duration": 0.1046,
      "velocity": 119,
      "chip": "ym2612"
    },
    {
      "channel": 4,
      "note": 73,
      "start": 2.9444,
      "duration": 0.1618,
      "velocity": 100,
      "chip": "ym2612"
    },
    {
      "channel": 5,
      "note": 54,
      "start": 2.9989,
      "duration": 0.1619,
      "velocity": 100,
      "chip": "ym2612"
    },
    {
      "channel": 0,
      "note": 57,
      "start": 3.0818,
      "duration": 0.1631,
      "velocity": 97,
      "chip": "ym2612"
    },
    {
      "channel": 1,
      "note": 57,
      "start": 3.0826,
      "duration": 0.1632,
      "velocity": 94,
      "chip": "ym2612"
    },
    {
      "channel": 3,
      "note": 76,
      "start": 3.0834,
      "duration": 0.163,
      "velocity": 97,
      "chip": "ym2612"
    },
    {
      "channel": 2,
      "note": 29,
      "start": 3.085,
      "duration": 0.1032,
      "velocity": 119,
      "chip": "ym2612"
    },
    {
      "channel": 4,
      "note": 76,
      "start": 3.1082,
      "duration": 0.1606,
      "velocity": 100,
      "chip": "ym2612"
    },
    {
      "channel": 5,
      "note": 57,
      "start": 3.1614,
      "duration": 0.1619,
      "velocity": 100,
      "chip": "ym2612"
    },
    {
      "channel": 0,
      "note": 54,
      "start": 3.2456,
      "duration": 0.2388,
      "velocity": 97,
      "chip": "ym2612"
    },
    {
      "channel": 1,
      "note": 54,
      "start": 3.2463,
      "duration": 0.2387,
      "velocity": 94,
      "chip": "ym2612"
    },
    {
      "channel": 3,
      "note": 73,
      "start": 3.2472,
      "duration": 0.2384,
      "velocity": 97,
      "chip": "ym2612"
    },
    {
      "channel": 2,
      "note": 68,
      "start": 3.2488,
      "duration": 0.1543,
      "velocity": 127,
      "chip": "ym2612"
    },
    {
      "channel": 4,
      "note": 73,
      "start": 3.2694,
      "duration": 0.2431,
      "velocity": 100,
      "chip": "ym2612"
    },
    {
      "channel": 5,
      "note": 54,
      "start": 3.3252,
      "duration": 0.2446,
      "velocity": 100,
      "chip": "ym2612"
    },
    {
      "channel": 2,
      "note": 75,
      "start": 3.4098,
      "duration": 0.1558,
      "velocity": 120,
      "chip": "ym2612"
    },
    {
      "channel": 0,
      "note": 54,
      "start": 3.4849,
      "duration": 0.162,
      "velocity": 97,
      "chip": "ym2612"
    },
    {
      "channel": 1,
      "note": 54,
      "start": 3.4855,
      "duration": 0.1621,
      "velocity": 94,
      "chip": "ym2612"
    },
    {
      "channel": 3,
      "note": 73,
      "start": 3.4861,
      "duration": 0.1621,
      "velocity": 97,
      "chip": "ym2612"
    },
    {
      "channel": 4,
      "note": 73,
      "start": 3.513,
      "duration": 0.1633,
      "velocity": 100,
      "chip": "ym2612"
    },
    {
      "channel": 5,
      "note": 54,
      "start": 3.5703,
      "duration": 0.1638,
      "velocity": 100,
      "chip": "ym2612"
    },
    {
      "channel": 2,
      "note": 68,
      "start": 3.5712,
      "duration": 0.1569,
      "velocity": 127,
      "chip": "ym2612"
    },
    {
      "channel": 0,
      "note": 54,
      "start": 3.6474,
      "duration": 0.0838,
      "velocity": 97,
      "chip": "ym2612"
    },
    {
      "channel": 1,
      "note": 54,
      "start": 3.648,
      "duration": 0.0841,
      "velocity": 94,
      "chip": "ym2612"
    },
    {
      "channel": 3,
      "note": 73,
      "start": 3.6487,
      "duration": 0.0841,
      "velocity": 97,
      "chip": "ym2612"
    },
    {
      "channel": 4,
      "note": 73,
      "start": 3.6768,
      "duration": 0.0795,
      "velocity": 100,
      "chip": "ym2612"
    },
    {
      "channel": 0,
      "note": 59,
      "start": 3.732,
      "duration": 0.1626,
      "velocity": 97,
      "chip": "ym2612"
    },
    {
      "channel": 1,
      "note": 59,
      "start": 3.7327,
      "duration": 0.1627,
      "velocity": 94,
      "chip": "ym2612"
    },
    {
      "channel": 3,
      "note": 78,
      "start": 3.7336,
      "duration": 0.1625,
      "velocity": 97,
      "chip": "ym2612"
    },
    {
      "channel": 5,
      "note": 54,
      "start": 3.7345,
      "duration": 0.0763,
      "velocity": 100,
      "chip": "ym2612"
    },
    {
      "channel": 2,
      "note": 29,
      "start": 3.7354,
      "duration": 0.103,
      "velocity": 119,
      "chip": "ym2612"
    },
    {
      "channel": 4,
      "note": 78,
      "start": 3.7583,
      "duration": 0.1606,
      "velocity": 100,
      "chip": "ym2612"
    },
    {
      "channel": 5,
      "note": 59,
      "start": 3.8115,
      "duration": 0.1632,
      "velocity": 100,
      "chip": "ym2612"
    },
    {
      "channel": 0,
      "note": 54,
      "start": 3.8953,
      "duration": 0.2392,
      "velocity": 97,
      "chip": "ym2612"
    },
    {
      "channel": 1,
      "note": 54,
      "start": 3.896,
      "duration": 0.2391,
      "velocity": 94,
      "chip": "ym2612"
    },
    {
      "channel": 3,
      "note": 73,
      "start": 3.8968,
      "duration": 0.2389,
      "velocity": 97,
      "chip": "ym2612"
    },
    {
      "channel": 2,
      "note": 68,
      "start": 3.8984,
      "duration": 0.1548,
      "velocity": 127,
      "chip": "ym2612"
    },
    {
      "channel": 4,
      "note": 73,
      "start": 3.9195,
      "duration": 0.2431,
      "velocity": 100,
      "chip": "ym2612"
    },
    {
      "channel": 5,
      "note": 54,
      "start": 3.9753,
      "duration": 0.245,
      "velocity": 100,
      "chip": "ym2612"
    },
    {
      "channel": 2,
      "note": 75,
      "start": 4.0598,
      "duration": 0.1559,
      "velocity": 120,
      "chip": "ym2612"
    },
    {
      "channel": 0,
      "note": 54,
      "start": 4.135,
      "duration": 0.1623,
      "velocity": 97,
      "chip": "ym2612"
    },
    {
      "channel": 1,
      "note": 54,
      "start": 4.1355,
      "duration": 0.1624,
      "velocity": 94,
      "chip": "ym2612"
    },
    {
      "channel": 3,
      "note": 73,
      "start": 4.1362,
      "duration": 0.1623,
      "velocity": 97,
      "chip": "ym2612"
    },
    {
      "channel": 4,
      "note": 73,
      "start": 4.1632,
      "duration": 0.1631,
      "velocity": 100,
      "chip": "ym2612"
    },
    {
      "channel": 5,
      "note": 54,
      "start": 4.2207,
      "duration": 0.1634,
      "velocity": 100,
      "chip": "ym2612"
    },
    {
      "channel": 2,
      "note": 29,
      "start": 4.2215,
      "duration": 0.1058,
      "velocity": 119,
      "chip": "ym2612"
    },
    {
      "channel": 0,
      "note": 54,
      "start": 4.2978,
      "duration": 0.0836,
      "velocity": 97,
      "chip": "ym2612"
    },
    {
      "channel": 1,
      "note": 54,
      "start": 4.2984,
      "duration": 0.0837,
      "velocity": 94,
      "chip": "ym2612"
    },
    {
      "channel": 3,
      "note": 73,
      "start": 4.299,
      "duration": 0.0838,
      "velocity": 97,
      "chip": "ym2612"
    },
    {
      "channel": 4,
      "note": 73,
      "start": 4.3268,
      "duration": 0.0796,
      "velocity": 100,
      "chip": "ym2612"
    },
    {
      "channel": 0,
      "note": 59,
      "start": 4.382,
      "duration": 0.163,
      "velocity": 97,
      "chip": "ym2612"
    },
    {
      "channel": 1,
      "note": 59,
      "start": 4.3827,
      "duration": 0.1631,
      "velocity": 94,
      "chip": "ym2612"
    },
    {
      "channel": 3,
      "note": 78,
      "start": 4.3836,
      "duration": 0.163,
      "velocity": 97,
      "chip": "ym2612"
    },
    {
      "channel": 5,
      "note": 54,
      "start": 4.3845,
      "duration": 0.0763,
      "velocity": 100,
      "chip": "ym2612"
    },
    {
      "channel": 2,
      "note": 29,
      "start": 4.3854,
      "duration": 0.103,
      "velocity": 119,
      "chip": "ym2612"
    },
    {
      "channel": 4,
      "note": 78,
      "start": 4.4084,
      "duration": 0.1604,
      "velocity": 100,
      "chip": "ym2612"
    },
    {
      "channel": 5,
      "note": 59,
      "start": 4.4615,
      "duration": 0.1632,
      "velocity": 100,
      "chip": "ym2612"
    },
    {
      "channel": 0,
      "note": 60,
      "start": 4.5457,
      "duration": 0.1603,
      "velocity": 97,
      "chip": "ym2612"
    },
    {
      "channel": 1,
      "note": 60,
      "start": 4.5464,
      "duration": 0.1618,
      "velocity": 94,
      "chip": "ym2612"
    },
    {
      "channel": 3,
      "note": 79,
      "start": 4.5472,
      "duration": 0.1617,
      "velocity": 97,
      "chip": "ym2612"
    },
    {
      "channel": 2,
      "note": 29,
      "start": 4.5488,
      "duration": 0.1024,
      "velocity": 119,
      "chip": "ym2612"
    },
    {
      "channel": 4,
      "note": 79,
      "start": 4.5696,
      "duration": 0.1618,
      "velocity": 100,
      "chip": "ym2612"
    },
    {
      "channel": 5,
      "note": 60,
      "start": 4.6254,
      "duration": 0.1606,
      "velocity": 100,
      "chip": "ym2612"
    },
    {
      "channel": 0,
      "note": 59,
      "start": 4.708,
      "duration": 0.1609,
      "velocity": 97,
      "chip": "ym2612"
    },
    {
      "channel": 1,
      "note": 59,
      "start": 4.7088,
      "duration": 0.161,
      "velocity": 94,
      "chip": "ym2612"
    },
    {
      "channel": 3,
      "note": 78,
      "start": 4.7096,
      "duration": 0.1609,
      "velocity": 97,
      "chip": "ym2612"
    },
    {
      "channel": 2,
      "note": 75,
      "start": 4.7112,
      "duration": 0.1545,
      "velocity": 120,
      "chip": "ym2612"
    },
    {
      "channel": 4,
      "note": 78,
      "start": 4.732,
      "duration": 0.1618,
      "velocity": 100,
      "chip": "ym2612"
    },
    {
      "channel": 5,
      "note": 59,
      "start": 4.7865,
      "duration": 0.162,
      "velocity": 100,
      "chip": "ym2612"
    },
    {
      "channel": 0,
      "note": 54,
      "start": 4.8696,
      "duration": 0.3255,
      "velocity": 97,
      "chip": "ym2612"
    },
    {
      "channel": 1,
      "note": 54,
      "start": 4.8703,
      "duration": 0.3256,
      "velocity": 94,
      "chip": "ym2612"
    },
    {
      "channel": 3,
      "note": 73,
      "start": 4.8711,
      "duration": 0.3255,
      "velocity": 97,
      "chip": "ym2612"
    },
    {
      "channel": 2,
      "note": 29,
      "start": 4.8727,
      "duration": 0.1044,
      "velocity": 119,
      "chip": "ym2612"
    },
    {
      "channel": 4,
      "note": 73,
      "start": 4.8946,
      "duration": 0.3244,
      "velocity": 100,
      "chip": "ym2612"
    },
    {
      "channel": 5,
      "note": 54,
      "start": 4.9491,
      "duration": 0.3256,
      "velocity": 100,
      "chip": "ym2612"
    },
    {
      "channel": 2,
      "note": 68,
      "start": 5.0334,
      "duration": 0.1584,
      "velocity": 127,
      "chip": "ym2612"
    },
    {
      "channel": 0,
      "note": 52,
      "start": 5.1957,
      "duration": 0.1606,
      "velocity": 97,
      "chip": "ym2612"
    },
    {
      "channel": 1,
      "note": 52,
      "start": 5.1964,
      "duration": 0.162,
      "velocity": 94,
      "chip": "ym2612"
    },
    {
      "channel": 3,
      "note": 71,
      "start": 5.1972,
      "duration": 0.162,
      "velocity": 97,
      "chip": "ym2612"
    },
    {
      "channel": 2,
      "note": 29,
      "start": 5.1989,
      "duration": 0.1021,
      "velocity": 119,
      "chip": "ym2612"
    },
    {
      "channel": 4,
      "note": 71,
      "start": 5.2196,
      "duration": 0.1618,
      "velocity": 100,
      "chip": "ym2612"
    },
    {
      "channel": 5,
      "note": 52,
      "start": 5.2754,
      "duration": 0.1606,
      "velocity": 100,
      "chip": "ym2612"
    },
    {
      "channel": 0,
      "note": 53,
      "start": 5.3583,
      "duration": 0.1606,
      "velocity": 97,
      "chip": "ym2612"
    },
    {
      "channel": 1,
      "note": 53,
      "start": 5.359,
      "duration": 0.1607,
      "velocity": 94,
      "chip": "ym2612"
    },
    {
      "channel": 3,
      "note": 72,
      "start": 5.3598,
      "duration": 0.1606,
      "velocity": 97,
      "chip": "ym2612"
    },
    {
      "channel": 2,
      "note": 75,
      "start": 5.3614,
      "duration": 0.1543,
      "velocity": 120,
      "chip": "ym2612"
    },
    {
      "channel": 4,
      "note": 72,
      "start": 5.3821,
      "duration": 0.1618,
      "velocity": 100,
      "chip": "ym2612"
    },
    {
      "channel": 5,
      "note": 53,
      "start": 5.4366,
      "duration": 0.1619,
      "velocity": 100,
      "chip": "ym2612"
    },
    {
      "channel": 0,
      "note": 54,
      "start": 5.5196,
      "duration": 0.162,
      "velocity": 97,
      "chip": "ym2612"
    },
    {
      "channel": 1,
      "note": 54,
      "start": 5.5203,
      "duration": 0.1622,
      "velocity": 94,
      "chip": "ym2612"
    },
    {
      "channel": 3,
      "note": 73,
      "start": 5.5212,
      "duration": 0.1622,
      "velocity": 97,
      "chip": "ym2612"
    },
    {
      "channel": 2,
      "note": 29,
      "start": 5.5227,
      "duration": 0.1043,
      "velocity": 119,
      "chip": "ym2612"
    },
    {
      "channel": 4,
      "note": 73,
      "start": 5.5446,
      "duration": 0.1636,
      "velocity": 100,
      "chip": "ym2612"
    },
    {
      "channel": 5,
      "note": 54,
      "start": 5.5991,
      "duration": 0.162,
      "velocity": 100,
      "chip": "ym2612"
    },
    {
      "channel": 0,
      "note": 57,
      "start": 5.6823,
      "duration": 0.1622,
      "velocity": 97,
      "chip": "ym2612"
    },
    {
      "channel": 1,
      "note": 57,
      "start": 5.6831,
      "duration": 0.1622,
      "velocity": 94,
      "chip": "ym2612"
    },
    {
      "channel": 3,
      "note": 76,
      "start": 5.6841,
      "duration": 0.162,
      "velocity": 97,
      "chip": "ym2612"
    },
    {
      "channel": 2,
      "note": 29,
      "start": 5.6857,
      "duration": 0.1029,
      "velocity": 119,
      "chip": "ym2612"
    },
    {
      "channel": 4,
      "note": 76,
      "start": 5.7089,
      "duration": 0.1602,
      "velocity": 100,
      "chip": "ym2612"
    },
    {
      "channel": 5,
      "note": 57,
      "start": 5.7617,
      "duration": 0.1632,
      "velocity": 100,
      "chip": "ym2612"
    },
    {
      "channel": 0,
      "note": 54,
      "start": 5.8452,
      "duration": 0.2394,
      "velocity": 97,
      "chip": "ym2612"
    },
    {
      "channel": 1,
      "note": 54,
      "start": 5.8459,
      "duration": 0.2394,
      "velocity": 94,
      "chip": "ym2612"
    },
    {
      "channel": 3,
      "note": 73,
      "start": 5.8467,
      "duration": 0.2391,
      "velocity": 97,
      "chip": "ym2612"
    },
    {
      "channel": 2,
      "note": 68,
      "start": 5.8483,
      "duration": 0.155,
      "velocity": 127,
      "chip": "ym2612"
    },
    {
      "channel": 4,
      "note": 73,
      "start": 5.8697,
      "duration": 0.2431,
      "velocity": 100,
      "chip": "ym2612"
    },
    {
      "channel": 5,
      "note": 54,
      "start": 5.9255,
      "duration": 0.2445,
      "velocity": 100,
      "chip": "ym2612"
    },
    {
      "channel": 2,
      "note": 75,
      "start": 6.0099,
      "duration": 0.1559,
      "velocity": 120,
      "chip": "ym2612"
    },
    {
      "channel": 0,
      "note": 54,
      "start": 6.0851,
      "duration": 0.1621,
      "velocity": 97,
      "chip": "ym2612"
    },
    {
      "channel": 1,
      "note": 54,
      "start": 6.0857,
      "duration": 0.1621,
      "velocity": 94,
      "chip": "ym2612"
    },
    {
      "channel": 3,
      "note": 73,
      "start": 6.0864,
      "duration": 0.162,
      "velocity": 97,
      "chip": "ym2612"
    },
    {
      "channel": 4,
      "note": 73,
      "start": 6.1133,
      "duration": 0.1629,
      "velocity": 100,
      "chip": "ym2612"
    },
    {
      "channel": 5,
      "note": 54,
      "start": 6.1705,
      "duration": 0.1638,
      "velocity": 100,
      "chip": "ym2612"
    },
    {
      "channel": 2,
      "note": 68,
      "start": 6.1714,
      "duration": 0.1569,
      "velocity": 127,
      "chip": "ym2612"
    },
    {
      "channel": 0,
      "note": 54,
      "start": 6.2477,
      "duration": 0.0838,
      "velocity": 97,
      "chip": "ym2612"
    },
    {
      "channel": 1,
      "note": 54,
      "start": 6.2483,
      "duration": 0.084,
      "velocity": 94,
      "chip": "ym2612"
    },
    {
      "channel": 3,
      "note": 73,
      "start": 6.2489,
      "duration": 0.0842,
      "velocity": 97,
      "chip": "ym2612"
    },
    {
      "channel": 4,
      "note": 73,
      "start": 6.2767,
      "duration": 0.0798,
      "velocity": 100,
      "chip": "ym2612"
    },
    {
      "channel": 0,
      "note": 59,
      "start": 6.3322,
      "duration": 0.1625,
      "velocity": 97,
      "chip": "ym2612"
    },
    {
      "channel": 1,
      "note": 59,
      "start": 6.3329,
      "duration": 0.1625,
      "velocity": 94,
      "chip": "ym2612"
    },
    {
      "channel": 3,
      "note": 78,
      "start": 6.3338,
      "duration": 0.1624,
      "velocity": 97,
      "chip": "ym2612"
    },
    {
      "channel": 5,
      "note": 54,
      "start": 6.3347,
      "duration": 0.0766,
      "velocity": 100,
      "chip": "ym2612"
    },
    {
      "channel": 2,
      "note": 29,
      "start": 6.3355,
      "duration": 0.103,
      "velocity": 119,
      "chip": "ym2612"
    },
    {
      "channel": 4,
      "note": 78,
      "start": 6.3586,
      "duration": 0.1605,
      "velocity": 100,
      "chip": "ym2612"
    },
    {
      "channel": 5,
      "note": 59,
      "start": 6.412,
      "duration": 0.1629,
      "velocity": 100,
      "chip": "ym2612"
    },
    {
      "channel": 0,
      "note": 54,
      "start": 6.4953,
      "duration": 0.2394,
      "velocity": 97,
      "chip": "ym2612"
    },
    {
      "channel": 1,
      "note": 54,
      "start": 6.496,
      "duration": 0.2394,
      "velocity": 94,
      "chip": "ym2612"
    },
    {
      "channel": 3,
      "note": 73,
      "start": 6.4968,
      "duration": 0.2391,
      "velocity": 97,
      "chip": "ym2612"
    },
    {
      "channel": 2,
      "note": 68,
      "start": 6.4984,
      "duration": 0.155,
      "velocity": 127,
      "chip": "ym2612"
    },
    {
      "channel": 4,
      "note": 73,
      "start": 6.5198,
      "duration": 0.2434,
      "velocity": 100,
      "chip": "ym2612"
    },
    {
      "channel": 5,
      "note": 54,
      "start": 6.5754,
      "duration": 0.245,
      "velocity": 100,
      "chip": "ym2612"
    },
    {
      "channel": 2,
      "note": 75,
      "start": 6.66,
      "duration": 0.1558,
      "velocity": 120,
      "chip": "ym2612"
    },
    {
      "channel": 0,
      "note": 54,
      "start": 6.7351,
      "duration": 0.162,
      "velocity": 97,
      "chip": "ym2612"
    },
    {
      "channel": 1,
      "note": 54,
      "start": 6.7358,
      "duration": 0.162,
      "velocity": 94,
      "chip": "ym2612"
    },
    {
      "channel": 3,
      "note": 73,
      "start": 6.7364,
      "duration": 0.162,
      "velocity": 97,
      "chip": "ym2612"
    },
    {
      "channel": 4,
      "note": 73,
      "start": 6.7637,
      "duration": 0.1626,
      "velocity": 100,
      "chip": "ym2612"
    },
    {
      "channel": 5,
      "note": 54,
      "start": 6.8209,
      "duration": 0.1635,
      "velocity": 100,
      "chip": "ym2612"
    },
    {
      "channel": 2,
      "note": 29,
      "start": 6.8217,
      "duration": 0.1056,
      "velocity": 119,
      "chip": "ym2612"
    },
    {
      "channel": 0,
      "note": 54,
      "start": 6.8977,
      "duration": 0.084,
      "velocity": 97,
      "chip": "ym2612"
    },
    {
      "channel": 1,
      "note": 54,
      "start": 6.8983,
      "duration": 0.0842,
      "velocity": 94,
      "chip": "ym2612"
    },
    {
      "channel": 3,
      "note": 73,
      "start": 6.899,
      "duration": 0.0842,
      "velocity": 97,
      "chip": "ym2612"
    },
    {
      "channel": 4,
      "note": 73,
      "start": 6.9268,
      "duration": 0.0799,
      "velocity": 100,
      "chip": "ym2612"
    },
    {
      "channel": 0,
      "note": 57,
      "start": 6.9823,
      "duration": 0.1627,
      "velocity": 97,
      "chip": "ym2612"
    },
    {
      "channel": 1,
      "note": 57,
      "start": 6.9831,
      "duration": 0.1627,
      "velocity": 94,
      "chip": "ym2612"
    },
    {
      "channel": 3,
      "note": 76,
      "start": 6.9839,
      "duration": 0.1625,
      "velocity": 97,
      "chip": "ym2612"
    },
    {
      "channel": 5,
      "note": 54,
      "start": 6.9848,
      "duration": 0.0763,
      "velocity": 100,
      "chip": "ym2612"
    },
    {
      "channel": 2,
      "note": 29,
      "start": 6.9857,
      "duration": 0.103,
      "velocity": 119,
      "chip": "ym2612"
    },
    {
      "channel": 4,
      "note": 76,
      "start": 7.0087,
      "duration": 0.1604,
      "velocity": 100,
      "chip": "ym2612"
    },
    {
      "channel": 5,
      "note": 57,
      "start": 7.0617,
      "duration": 0.1632,
      "velocity": 100,
      "chip": "ym2612"
    },
    {
      "channel": 0,
      "note": 54,
      "start": 7.1456,
      "duration": 0.1606,
      "velocity": 97,
      "chip": "ym2612"
    },
    {
      "channel": 1,
      "note": 54,
      "start": 7.1463,
      "duration": 0.1621,
      "velocity": 94,
      "chip": "ym2612"
    },
    {
      "channel": 3,
      "note": 73,
      "start": 7.1471,
      "duration": 0.162,
      "velocity": 97,
      "chip": "ym2612"
    },
    {
      "channel": 2,
      "note": 29,
      "start": 7.1487,
      "duration": 0.1025,
      "velocity": 119,
      "chip": "ym2612"
    },
    {
      "channel": 4,
      "note": 73,
      "start": 7.1698,
      "duration": 0.1618,
      "velocity": 100,
      "chip": "ym2612"
    },
    {
      "channel": 5,
      "note": 54,
      "start": 7.2256,
      "duration": 0.1606,
      "velocity": 100,
      "chip": "ym2612"
    },
    {
      "channel": 0,
      "note": 59,
      "start": 7.3082,
      "duration": 0.1612,
      "velocity": 97,
      "chip": "ym2612"
    },
    {
      "channel": 1,
      "note": 59,
      "start": 7.3089,
      "duration": 0.1613,
      "velocity": 94,
      "chip": "ym2612"
    },
    {
      "channel": 3,
      "note": 78,
      "start": 7.3098,
      "duration": 0.1612,
      "velocity": 97,
      "chip": "ym2612"
    },
    {
      "channel": 2,
      "note": 75,
      "start": 7.3114,
      "duration": 0.1549,
      "velocity": 120,
      "chip": "ym2612"
    },
    {
      "channel": 4,
      "note": 78,
      "start": 7.3323,
      "duration": 0.1618,
      "velocity": 100,
      "chip": "ym2612"
    },
    {
      "channel": 5,
      "note": 59,
      "start": 7.3867,
      "duration": 0.162,
      "velocity": 100,
      "chip": "ym2612"
    },
    {
      "channel": 0,
      "note": 54,
      "start": 7.4701,
      "duration": 0.3248,
      "velocity": 97,
      "chip": "ym2612"
    },
    {
      "channel": 1,
      "note": 54,
      "start": 7.4708,
      "duration": 0.3249,
      "velocity": 94,
      "chip": "ym2612"
    },
    {
      "channel": 3,
      "note": 73,
      "start": 7.4717,
      "duration": 0.3248,
      "velocity": 97,
      "chip": "ym2612"
    },
    {
      "channel": 2,
      "note": 29,
      "start": 7.4733,
      "duration": 0.1037,
      "velocity": 119,
      "chip": "ym2612"
    },
    {
      "channel": 4,
      "note": 73,
      "start": 7.4948,
      "duration": 0.3247,
      "velocity": 100,
      "chip": "ym2612"
    },
    {
      "channel": 5,
      "note": 54,
      "start": 7.5493,
      "duration": 0.3257,
      "velocity": 100,
      "chip": "ym2612"
    },
    {
      "channel": 2,
      "note": 68,
      "start": 7.6337,
      "duration": 0.1581,
      "velocity": 127,
      "chip": "ym2612"
    },
    {
      "channel": 0,
      "note": 52,
      "start": 7.7956,
      "duration": 0.1607,
      "velocity": 97,
      "chip": "ym2612"
    },
    {
      "channel": 1,
      "note": 52,
      "start": 7.7963,
      "duration": 0.1621,
      "velocity": 94,
      "chip": "ym2612"
    },
    {
      "channel": 3,
      "note": 71,
      "start": 7.7972,
      "duration": 0.162,
      "velocity": 97,
      "chip": "ym2612"
    },
    {
      "channel": 2,
      "note": 29,
      "start": 7.7988,
      "duration": 0.1024,
      "velocity": 119,
      "chip": "ym2612"
    },
    {
      "channel": 4,
      "note": 71,
      "start": 7.8202,
      "duration": 0.1615,
      "velocity": 100,
      "chip": "ym2612"
    },
    {
      "channel": 5,
      "note": 52,
      "start": 7.8756,
      "duration": 0.1606,
      "velocity": 100,
      "chip": "ym2612"
    },
    {
      "channel": 0,
      "note": 53,
      "start": 7.9583,
      "duration": 0.1609,
      "velocity": 97,
      "chip": "ym2612"
    },
    {
      "channel": 1,
      "note": 53,
      "start": 7.959,
      "duration": 0.161,
      "velocity": 94,
      "chip": "ym2612"
    },
    {
      "channel": 3,
      "note": 72,
      "start": 7.9598,
      "duration": 0.1608,
      "velocity": 97,
      "chip": "ym2612"
    },
    {
      "channel": 2,
      "note": 75,
      "start": 7.9614,
      "duration": 0.1545,
      "velocity": 120,
      "chip": "ym2612"
    },
    {
      "channel": 4,
      "note": 72,
      "start": 7.9824,
      "duration": 0.1618,
      "velocity": 100,
      "chip": "ym2612"
    },
    {
      "channel": 5,
      "note": 53,
      "start": 8.0369,
      "duration": 0.1619,
      "velocity": 100,
      "chip": "ym2612"
    },
    {
      "channel": 0,
      "note": 54,
      "start": 8.1198,
      "duration": 0.162,
      "velocity": 97,
      "chip": "ym2612"
    },
    {
      "channel": 1,
      "note": 54,
      "start": 8.1205,
      "duration": 0.1621,
      "velocity": 94,
      "chip": "ym2612"
    },
    {
      "channel": 3,
      "note": 73,
      "start": 8.1214,
      "duration": 0.162,
      "velocity": 97,
      "chip": "ym2612"
    },
    {
      "channel": 2,
      "note": 29,
      "start": 8.1229,
      "duration": 0.1045,
      "velocity": 119,
      "chip": "ym2612"
    },
    {
      "channel": 4,
      "note": 73,
      "start": 8.1449,
      "duration": 0.1632,
      "velocity": 100,
      "chip": "ym2612"
    },
    {
      "channel": 5,
      "note": 54,
      "start": 8.1993,
      "duration": 0.162,
      "velocity": 100,
      "chip": "ym2612"
    },
    {
      "channel": 0,
      "note": 57,
      "start": 8.2825,
      "duration": 0.1621,
      "velocity": 97,
      "chip": "ym2612"
    },
    {
      "channel": 1,
      "note": 57,
      "start": 8.2832,
      "duration": 0.1622,
      "velocity": 94,
      "chip": "ym2612"
    },
    {
      "channel": 3,
      "note": 76,
      "start": 8.284,
      "duration": 0.1621,
      "velocity": 97,
      "chip": "ym2612"
    },
    {
      "channel": 2,
      "note": 29,
      "start": 8.2856,
      "duration": 0.1032,
      "velocity": 119,
      "chip": "ym2612"
    },
    {
      "channel": 4,
      "note": 76,
      "start": 8.3088,
      "duration": 0.1604,
      "velocity": 100,
      "chip": "ym2612"
    },
    {
      "channel": 5,
      "note": 57,
      "start": 8.3619,
      "duration": 0.1635,
      "velocity": 100,
      "chip": "ym2612"
    },
    {
      "channel": 0,
      "note": 54,
      "start": 8.4453,
      "duration": 0.2396,
      "velocity": 97,
      "chip": "ym2612"
    },
    {
      "channel": 1,
      "note": 54,
      "start": 8.446,
      "duration": 0.2396,
      "velocity": 94,
      "chip": "ym2612"
    },
    {
      "channel": 3,
      "note": 73,
      "start": 8.4468,
      "duration": 0.2394,
      "velocity": 97,
      "chip": "ym2612"
    },
    {
      "channel": 2,
      "note": 68,
      "start": 8.4484,
      "duration": 0.1551,
      "velocity": 127,
      "chip": "ym2612"
    },
    {
      "channel": 4,
      "note": 73,
      "start": 8.4699,
      "duration": 0.2431,
      "velocity": 100,
      "chip": "ym2612"
    },
    {
      "channel": 5,
      "note": 54,
      "start": 8.526,
      "duration": 0.2443,
      "velocity": 100,
      "chip": "ym2612"
    },
    {
      "channel": 2,
      "note": 75,
      "start": 8.6102,
      "duration": 0.1559,
      "velocity": 120,
      "chip": "ym2612"
    },
    {
      "channel": 0,
      "note": 54,
      "start": 8.6854,
      "duration": 0.162,
      "velocity": 97,
      "chip": "ym2612"
    },
    {
      "channel": 1,
      "note": 54,
      "start": 8.686,
      "duration": 0.1621,
      "velocity": 94,
      "chip": "ym2612"
    },
    {
      "channel": 3,
      "note": 73,
      "start": 8.6867,
      "duration": 0.162,
      "velocity": 97,
      "chip": "ym2612"
    },
    {
      "channel": 4,
      "note": 73,
      "start": 8.7135,
      "duration": 0.1631,
      "velocity": 100,
      "chip": "ym2612"
    },
    {
      "channel": 5,
      "note": 54,
      "start": 8.7707,
      "duration": 0.1638,
      "velocity": 100,
      "chip": "ym2612"
    },
    {
      "channel": 2,
      "note": 68,
      "start": 8.7715,
      "duration": 0.157,
      "velocity": 127,
      "chip": "ym2612"
    },
    {
      "channel": 0,
      "note": 54,
      "start": 8.8479,
      "duration": 0.0839,
      "velocity": 97,
      "chip": "ym2612"
    },
    {
      "channel": 1,
      "note": 54,
      "start": 8.8485,
      "duration": 0.084,
      "velocity": 94,
      "chip": "ym2612"
    },
    {
      "channel": 3,
      "note": 73,
      "start": 8.8491,
      "duration": 0.0842,
      "velocity": 97,
      "chip": "ym2612"
    },
    {
      "channel": 4,
      "note": 73,
      "start": 8.8771,
      "duration": 0.081,
      "velocity": 100,
      "chip": "ym2612"
    },
    {
      "channel": 0,
      "note": 59,
      "start": 8.9324,
      "duration": 0.1621,
      "velocity": 97,
      "chip": "ym2612"
    },
    {
      "channel": 1,
      "note": 59,
      "start": 8.9332,
      "duration": 0.1622,
      "velocity": 94,
      "chip": "ym2612"
    },
    {
      "channel": 3,
      "note": 78,
      "start": 8.934,
      "duration": 0.1621,
      "velocity": 97,
      "chip": "ym2612"
    },
    {
      "channel": 5,
      "note": 54,
      "start": 8.935,
      "duration": 0.0764,
      "velocity": 100,
      "chip": "ym2612"
    },
    {
      "channel": 2,
      "note": 29,
      "start": 8.9358,
      "duration": 0.1031,
      "velocity": 119,
      "chip": "ym2612"
    },
    {
      "channel": 4,
      "note": 78,
      "start": 8.9588,
      "duration": 0.1605,
      "velocity": 100,
      "chip": "ym2612"
    },
    {
      "channel": 5,
      "note": 59,
      "start": 9.012,
      "duration": 0.1632,
      "velocity": 100,
      "chip": "ym2612"
    },
    {
      "channel": 0,
      "note": 54,
      "start": 9.0953,
      "duration": 0.2397,
      "velocity": 97,
      "chip": "ym2612"
    },
    {
      "channel": 1,
      "note": 54,
      "start": 9.096,
      "duration": 0.2396,
      "velocity": 94,
      "chip": "ym2612"
    },
    {
      "channel": 3,
      "note": 73,
      "start": 9.0968,
      "duration": 0.2394,
      "velocity": 97,
      "chip": "ym2612"
    },
    {
      "channel": 2,
      "note": 68,
      "start": 9.0984,
      "duration": 0.1551,
      "velocity": 127,
      "chip": "ym2612"
    },
    {
      "channel": 4,
      "note": 73,
      "start": 9.12,
      "duration": 0.2431,
      "velocity": 100,
      "chip": "ym2612"
    },
    {
      "channel": 5,
      "note": 54,
      "start": 9.1757,
      "duration": 0.245,
      "velocity": 100,
      "chip": "ym2612"
    },
    {
      "channel": 2,
      "note": 75,
      "start": 9.2603,
      "duration": 0.1559,
      "velocity": 120,
      "chip": "ym2612"
    },
    {
      "channel": 0,
      "note": 54,
      "start": 9.3355,
      "duration": 0.162,
      "velocity": 97,
      "chip": "ym2612"
    },
    {
      "channel": 1,
      "note": 54,
      "start": 9.3361,
      "duration": 0.1621,
      "velocity": 94,
      "chip": "ym2612"
    },
    {
      "channel": 3,
      "note": 73,
      "start": 9.3367,
      "duration": 0.162,
      "velocity": 97,
      "chip": "ym2612"
    },
    {
      "channel": 4,
      "note": 73,
      "start": 9.3636,
      "duration": 0.163,
      "velocity": 100,
      "chip": "ym2612"
    },
    {
      "channel": 5,
      "note": 54,
      "start": 9.4212,
      "duration": 0.1636,
      "velocity": 100,
      "chip": "ym2612"
    },
    {
      "channel": 2,
      "note": 29,
      "start": 9.422,
      "duration": 0.1057,
      "velocity": 119,
      "chip": "ym2612"
    },
    {
      "channel": 0,
      "note": 54,
      "start": 9.4979,
      "duration": 0.0842,
      "velocity": 97,
      "chip": "ym2612"
    },
    {
      "channel": 1,
      "note": 54,
      "start": 9.4986,
      "duration": 0.0844,
      "velocity": 94,
      "chip": "ym2612"
    },
    {
      "channel": 3,
      "note": 73,
      "start": 9.4992,
      "duration": 0.0845,
      "velocity": 97,
      "chip": "ym2612"
    },
    {
      "channel": 4,
      "note": 73,
      "start": 9.5271,
      "duration": 0.081,
      "velocity": 100,
      "chip": "ym2612"
    },
    {
      "channel": 0,
      "note": 59,
      "start": 9.5828,
      "duration": 0.1622,
      "velocity": 97,
      "chip": "ym2612"
    },
    {
      "channel": 1,
      "note": 59,
      "start": 9.5835,
      "duration": 0.1623,
      "velocity": 94,
      "chip": "ym2612"
    },
    {
      "channel": 3,
      "note": 78,
      "start": 9.5843,
      "duration": 0.1622,
      "velocity": 97,
      "chip": "ym2612"
    },
    {
      "channel": 5,
      "note": 54,
      "start": 9.5853,
      "duration": 0.0761,
      "velocity": 100,
      "chip": "ym2612"
    },
    {
      "channel": 2,
      "note": 29,
      "start": 9.5861,
      "duration": 0.1028,
      "velocity": 119,
      "chip": "ym2612"
    },
    {
      "channel": 4,
      "note": 78,
      "start": 9.6088,
      "duration": 0.1606,
      "velocity": 100,
      "chip": "ym2612"
    },
    {
      "channel": 5,
      "note": 59,
      "start": 9.662,
      "duration": 0.1633,
      "velocity": 100,
      "chip": "ym2612"
    },
    {
      "channel": 0,
      "note": 60,
      "start": 9.7456,
      "duration": 0.1609,
      "velocity": 97,
      "chip": "ym2612"
    },
    {
      "channel": 1,
      "note": 60,
      "start": 9.7463,
      "duration": 0.1623,
      "velocity": 94,
      "chip": "ym2612"
    },
    {
      "channel": 3,
      "note": 79,
      "start": 9.7472,
      "duration": 0.1621,
      "velocity": 97,
      "chip": "ym2612"
    },
    {
      "channel": 2,
      "note": 29,
      "start": 9.7487,
      "duration": 0.1027,
      "velocity": 119,
      "chip": "ym2612"
    },
    {
      "channel": 4,
      "note": 79,
      "start": 9.7701,
      "duration": 0.1621,
      "velocity": 100,
      "chip": "ym2612"
    },
    {
      "channel": 5,
      "note": 60,
      "start": 9.8259,
      "duration": 0.1605,
      "velocity": 100,
      "chip": "ym2612"
    },
    {
      "channel": 0,
      "note": 59,
      "start": 9.9084,
      "duration": 0.161,
      "velocity": 97,
      "chip": "ym2612"
    },
    {
      "channel": 1,
      "note": 59,
      "start": 9.9092,
      "duration": 0.161,
      "velocity": 94,
      "chip": "ym2612"
    },
    {
      "channel": 3,
      "note": 78,
      "start": 9.91,
      "duration": 0.1609,
      "velocity": 97,
      "chip": "ym2612"
    },
    {
      "channel": 2,
      "note": 75,
      "start": 9.9116,
      "duration": 0.1546,
      "velocity": 120,
      "chip": "ym2612"
    },
    {
      "channel": 4,
      "note": 78,
      "start": 9.9329,
      "duration": 0.1615,
      "velocity": 100,
      "chip": "ym2612"
    },
    {
      "channel": 5,
      "note": 59,
      "start": 9.987,
      "duration": 0.1619,
      "velocity": 100,
      "chip": "ym2612"
    },
    {
      "channel": 0,
      "note": 54,
      "start": 10.0701,
      "duration": 0.3249,
      "velocity": 97,
      "chip": "ym2612"
    },
    {
      "channel": 1,
      "note": 54,
      "start": 10.0708,
      "duration": 0.325,
      "velocity": 94,
      "chip": "ym2612"
    },
    {
      "channel": 3,
      "note": 73,
      "start": 10.0716,
      "duration": 0.3249,
      "velocity": 97,
      "chip": "ym2612"
    },
    {
      "channel": 2,
      "note": 29,
      "start": 10.0732,
      "duration": 0.1039,
      "velocity": 119,
      "chip": "ym2612"
    },
    {
      "channel": 4,
      "note": 73,
      "start": 10.0951,
      "duration": 0.3244,
      "velocity": 100,
      "chip": "ym2612"
    },
    {
      "channel": 5,
      "note": 54,
      "start": 10.1495,
      "duration": 0.3258,
      "velocity": 100,
      "chip": "ym2612"
    },
    {
      "channel": 2,
      "note": 68,
      "start": 10.2339,
      "duration": 0.1578,
      "velocity": 127,
      "chip": "ym2612"
    },
    {
      "channel": 0,
      "note": 52,
      "start": 10.3956,
      "duration": 0.161,
      "velocity": 97,
      "chip": "ym2612"
    },
    {
      "channel": 1,
      "note": 52,
      "start": 10.3963,
      "duration": 0.1623,
      "velocity": 94,
      "chip": "ym2612"
    },
    {
      "channel": 3,
      "note": 71,
      "start": 10.3972,
      "duration": 0.1622,
      "velocity": 97,
      "chip": "ym2612"
    },
    {
      "channel": 2,
      "note": 29,
      "start": 10.3988,
      "duration": 0.1027,
      "velocity": 119,
      "chip": "ym2612"
    },
    {
      "channel": 4,
      "note": 71,
      "start": 10.4201,
      "duration": 0.1618,
      "velocity": 100,
      "chip": "ym2612"
    },
    {
      "channel": 5,
      "note": 52,
      "start": 10.4759,
      "duration": 0.1608,
      "velocity": 100,
      "chip": "ym2612"
    },
    {
      "channel": 0,
      "note": 53,
      "start": 10.5585,
      "duration": 0.1609,
      "velocity": 97,
      "chip": "ym2612"
    },
    {
      "channel": 1,
      "note": 53,
      "start": 10.5592,
      "duration": 0.1611,
      "velocity": 94,
      "chip": "ym2612"
    },
    {
      "channel": 3,
      "note": 72,
      "start": 10.56,
      "duration": 0.161,
      "velocity": 97,
      "chip": "ym2612"
    },
    {
      "channel": 2,
      "note": 75,
      "start": 10.5616,
      "duration": 0.1546,
      "velocity": 120,
      "chip": "ym2612"
    },
    {
      "channel": 4,
      "note": 72,
      "start": 10.5826,
      "duration": 0.1619,
      "velocity": 100,
      "chip": "ym2612"
    },
    {
      "channel": 5,
      "note": 53,
      "start": 10.6374,
      "duration": 0.1616,
      "velocity": 100,
      "chip": "ym2612"
    },
    {
      "channel": 0,
      "note": 54,
      "start": 10.7201,
      "duration": 0.1618,
      "velocity": 97,
      "chip": "ym2612"
    },
    {
      "channel": 1,
      "note": 54,
      "start": 10.7208,
      "duration": 0.1621,
      "velocity": 94,
      "chip": "ym2612"
    },
    {
      "channel": 3,
      "note": 73,
      "start": 10.7217,
      "duration": 0.1621,
      "velocity": 97,
      "chip": "ym2612"
    },
    {
      "channel": 2,
      "note": 29,
      "start": 10.7232,
      "duration": 0.1037,
      "velocity": 119,
      "chip": "ym2612"
    },
    {
      "channel": 4,
      "note": 73,
      "start": 10.7451,
      "duration": 0.1634,
      "velocity": 100,
      "chip": "ym2612"
    },
    {
      "channel": 5,
      "note": 54,
      "start": 10.7995,
      "duration": 0.1622,
      "velocity": 100,
      "chip": "ym2612"
    },
    {
      "channel": 0,
      "note": 59,
      "start": 10.8826,
      "duration": 0.324,
      "velocity": 97,
      "chip": "ym2612"
    },
    {
      "channel": 1,
      "note": 59,
      "start": 10.8835,
      "duration": 0.3253,
      "velocity": 94,
      "chip": "ym2612"
    },
    {
      "channel": 3,
      "note": 88,
      "start": 10.8845,
      "duration": 0.325,
      "velocity": 97,
      "chip": "ym2612"
    },
    {
      "channel": 2,
      "note": 75,
      "start": 10.8861,
      "duration": 0.1561,
      "velocity": 120,
      "chip": "ym2612"
    },
    {
      "channel": 4,
      "note": 79,
      "start": 10.9093,
      "duration": 0.3227,
      "velocity": 100,
      "chip": "ym2612"
    },
    {
      "channel": 5,
      "note": 59,
      "start": 10.9623,
      "duration": 0.3242,
      "velocity": 100,
      "chip": "ym2612"
    },
    {
      "channel": 2,
      "note": 68,
      "start": 11.0474,
      "duration": 0.1563,
      "velocity": 127,
      "chip": "ym2612"
    },
    {
      "channel": 0,
      "note": 54,
      "start": 11.2086,
      "duration": 0.1605,
      "velocity": 97,
      "chip": "ym2612"
    },
    {
      "channel": 1,
      "note": 54,
      "start": 11.2093,
      "duration": 0.1605,
      "velocity": 94,
      "chip": "ym2612"
    },
    {
      "channel": 3,
      "note": 83,
      "start": 11.2102,
      "duration": 0.1602,
      "velocity": 97,
      "chip": "ym2612"
    },
    {
      "channel": 2,
      "note": 75,
      "start": 11.2119,
      "duration": 0.1544,
      "velocity": 120,
      "chip": "ym2612"
    },
    {
      "channel": 4,
      "note": 71,
      "start": 11.2327,
      "duration": 0.1618,
      "velocity": 100,
      "chip": "ym2612"
    },
    {
      "channel": 5,
      "note": 54,
      "start": 11.2871,
      "duration": 0.162,
      "velocity": 100,
      "chip": "ym2612"
    },
    {
      "channel": 0,
      "note": 54,
      "start": 11.3697,
      "duration": 0.1619,
      "velocity": 97,
      "chip": "ym2612"
    },
    {
      "channel": 1,
      "note": 54,
      "start": 11.3703,
      "duration": 0.1616,
      "velocity": 94,
      "chip": "ym2612"
    },
    {
      "channel": 3,
      "note": 83,
      "start": 11.3709,
      "duration": 0.1613,
      "velocity": 97,
      "chip": "ym2612"
    },
    {
      "channel": 2,
      "note": 75,
      "start": 11.3725,
      "duration": 0.1563,
      "velocity": 120,
      "chip": "ym2612"
    },
    {
      "channel": 4,
      "note": 71,
      "start": 11.395,
      "duration": 0.1611,
      "velocity": 100,
      "chip": "ym2612"
    },
    {
      "channel": 5,
      "note": 54,
      "start": 11.4495,
      "duration": 0.161,
      "velocity": 100,
      "chip": "ym2612"
    },
    {
      "channel": 2,
      "note": 68,
      "start": 11.534,
      "duration": 0.1581,
      "velocity": 127,
      "chip": "ym2612"
    },
    {
      "channel": 2,
      "note": 68,
      "start": 11.696,
      "duration": 0.1578,
      "velocity": 127,
      "chip": "ym2612"
    },
    {
      "channel": 0,
      "note": 57,
      "start": 11.8587,
      "duration": 0.323,
      "velocity": 97,
      "chip": "ym2612"
    },
    {
      "channel": 1,
      "note": 57,
      "start": 11.8595,
      "duration": 0.323,
      "velocity": 94,
      "chip": "ym2612"
    },
    {
      "channel": 3,
      "note": 86,
      "start": 11.8603,
      "duration": 0.323,
      "velocity": 97,
      "chip": "ym2612"
    },
    {
      "channel": 2,
      "note": 75,
      "start": 11.8613,
      "duration": 0.1551,
      "velocity": 120,
      "chip": "ym2612"
    },
    {
      "channel": 4,
      "note": 78,
      "start": 11.8828,
      "duration": 0.3256,
      "velocity": 100,
      "chip": "ym2612"
    },
    {
      "channel": 5,
      "note": 57,
      "start": 11.9371,
      "duration": 0.3245,
      "velocity": 100,
      "chip": "ym2612"
    },
    {
      "channel": 2,
      "note": 68,
      "start": 12.0217,
      "duration": 0.1572,
      "velocity": 127,
      "chip": "ym2612"
    },
    {
      "channel": 0,
      "note": 52,
      "start": 12.1824,
      "duration": 0.1626,
      "velocity": 97,
      "chip": "ym2612"
    },
    {
      "channel": 1,
      "note": 52,
      "start": 12.1831,
      "duration": 0.1625,
      "velocity": 94,
      "chip": "ym2612"
    },
    {
      "channel": 3,
      "note": 81,
      "start": 12.1839,
      "duration": 0.1622,
      "velocity": 97,
      "chip": "ym2612"
    },
    {
      "channel": 2,
      "note": 75,
      "start": 12.1856,
      "duration": 0.1566,
      "velocity": 120,
      "chip": "ym2612"
    },
    {
      "channel": 4,
      "note": 73,
      "start": 12.2091,
      "duration": 0.1605,
      "velocity": 100,
      "chip": "ym2612"
    },
    {
      "channel": 5,
      "note": 52,
      "start": 12.2622,
      "duration": 0.1633,
      "velocity": 100,
      "chip": "ym2612"
    },
    {
      "channel": 0,
      "note": 52,
      "start": 12.3455,
      "duration": 0.1625,
      "velocity": 97,
      "chip": "ym2612"
    },
    {
      "channel": 1,
      "note": 52,
      "start": 12.346,
      "duration": 0.1628,
      "velocity": 94,
      "chip": "ym2612"
    },
    {
      "channel": 3,
      "note": 81,
      "start": 12.3467,
      "duration": 0.1629,
      "velocity": 97,
      "chip": "ym2612"
    },
    {
      "channel": 2,
      "note": 75,
      "start": 12.3483,
      "duration": 0.1556,
      "velocity": 120,
      "chip": "ym2612"
    },
    {
      "channel": 4,
      "note": 73,
      "start": 12.3701,
      "duration": 0.1621,
      "velocity": 100,
      "chip": "ym2612"
    },
    {
      "channel": 5,
      "note": 52,
      "start": 12.4259,
      "duration": 0.1607,
      "velocity": 100,
      "chip": "ym2612"
    },
    {
      "channel": 0,
      "note": 54,
      "start": 12.5087,
      "duration": 1.7859,
      "velocity": 97,
      "chip": "ym2612"
    },
    {
      "channel": 1,
      "note": 54,
      "start": 12.5094,
      "duration": 1.786,
      "velocity": 94,
      "chip": "ym2612"
    },
    {
      "channel": 3,
      "note": 83,
      "start": 12.5102,
      "duration": 1.7859,
      "velocity": 97,
      "chip": "ym2612"
    },
    {
      "channel": 2,
      "note": 75,
      "start": 12.5118,
      "duration": 0.1546,
      "velocity": 120,
      "chip": "ym2612"
    },
    {
      "channel": 4,
      "note": 76,
      "start": 12.5328,
      "duration": 2.2781,
      "velocity": 100,
      "chip": "ym2612"
    },
    {
      "channel": 5,
      "note": 54,
      "start": 12.5873,
      "duration": 1.7885,
      "velocity": 100,
      "chip": "ym2612"
    },
    {
      "channel": 2,
      "note": 68,
      "start": 12.6717,
      "duration": 0.1573,
      "velocity": 127,
      "chip": "ym2612"
    },
    {
      "channel": 2,
      "note": 29,
      "start": 12.835,
      "duration": 0.1045,
      "velocity": 119,
      "chip": "ym2612"
    },
    {
      "channel": 2,
      "note": 68,
      "start": 12.9976,
      "duration": 0.1564,
      "velocity": 127,
      "chip": "ym2612"
    },
    {
      "channel": 2,
      "note": 29,
      "start": 13.1613,
      "duration": 0.1032,
      "velocity": 119,
      "chip": "ym2612"
    },
    {
      "channel": 2,
      "note": 68,
      "start": 13.322,
      "duration": 0.1569,
      "velocity": 127,
      "chip": "ym2612"
    },
    {
      "channel": 2,
      "note": 29,
      "start": 13.485,
      "duration": 0.1046,
      "velocity": 119,
      "chip": "ym2612"
    },
    {
      "channel": 2,
      "note": 68,
      "start": 13.6474,
      "duration": 0.1569,
      "velocity": 127,
      "chip": "ym2612"
    },
    {
      "channel": 2,
      "note": 29,
      "start": 13.8117,
      "duration": 0.1029,
      "velocity": 119,
      "chip": "ym2612"
    },
    {
      "channel": 2,
      "note": 68,
      "start": 13.9721,
      "duration": 0.157,
      "velocity": 127,
      "chip": "ym2612"
    },
    {
      "channel": 2,
      "note": 29,
      "start": 14.135,
      "duration": 0.1046,
      "velocity": 119,
      "chip": "ym2612"
    },
    {
      "channel": 0,
      "note": 52,
      "start": 14.2953,
      "duration": 0.1629,
      "velocity": 97,
      "chip": "ym2612"
    },
    {
      "channel": 1,
      "note": 52,
      "start": 14.296,
      "duration": 0.163,
      "velocity": 94,
      "chip": "ym2612"
    },
    {
      "channel": 3,
      "note": 71,
      "start": 14.2968,
      "duration": 0.1629,
      "velocity": 97,
      "chip": "ym2612"
    },
    {
      "channel": 2,
      "note": 74,
      "start": 14.2985,
      "duration": 0.1305,
      "velocity": 120,
      "chip": "ym2612"
    },
    {
      "channel": 5,
      "note": 52,
      "start": 14.3764,
      "duration": 0.1606,
      "velocity": 100,
      "chip": "ym2612"
    },
    {
      "channel": 0,
      "note": 53,
      "start": 14.4588,
      "duration": 0.1606,
      "velocity": 97,
      "chip": "ym2612"
    },
    {
      "channel": 1,
      "note": 53,
      "start": 14.4596,
      "duration": 0.1606,
      "velocity": 94,
      "chip": "ym2612"
    },
    {
      "channel": 3,
      "note": 72,
      "start": 14.4604,
      "duration": 0.1605,
      "velocity": 97,
      "chip": "ym2612"
    },
    {
      "channel": 2,
      "note": 69,
      "start": 14.4622,
      "duration": 0.1307,
      "velocity": 120,
      "chip": "ym2612"
    },
    {
      "channel": 5,
      "note": 53,
      "start": 14.5376,
      "duration": 0.1619,
      "velocity": 100,
      "chip": "ym2612"
    },
    {
      "channel": 0,
      "note": 54,
      "start": 14.6201,
      "duration": 0.1651,
      "velocity": 94,
      "chip": "ym2612"
    },
    {
      "channel": 1,
      "note": 54,
      "start": 14.6208,
      "duration": 0.1672,
      "velocity": 94,
      "chip": "ym2612"
    },
    {
      "channel": 3,
      "note": 73,
      "start": 14.6216,
      "duration": 0.1712,
      "velocity": 100,
      "chip": "ym2612"
    },
    {
      "channel": 2,
      "note": 65,
      "start": 14.6233,
      "duration": 0.1308,
      "velocity": 120,
      "chip": "ym2612"
    },
    {
      "channel": 5,
      "note": 54,
      "start": 14.7,
      "duration": 0.1641,
      "velocity": 94,
      "chip": "ym2612"
    },
    {
      "channel": 1,
      "note": 57,
      "start": 14.7886,
      "duration": 0.1568,
      "velocity": 94,
      "chip": "ym2612"
    },
    {
      "channel": 2,
      "note": 29,
      "start": 14.7946,
      "duration": 0.0938,
      "velocity": 119,
      "chip": "ym2612"
    },
    {
      "channel": 0,
      "note": 61,
      "start": 14.9453,
      "duration": 0.163,
      "velocity": 94,
      "chip": "ym2612"
    },
    {
      "channel": 1,
      "note": 54,
      "start": 14.946,
      "duration": 0.3244,
      "velocity": 94,
      "chip": "ym2612"
    },
    {
      "channel": 2,
      "note": 68,
      "start": 14.9471,
      "duration": 0.1571,
      "velocity": 127,
      "chip": "ym2612"
    },
    {
      "channel": 5,
      "note": 61,
      "start": 15.0257,
      "duration": 0.1612,
      "velocity": 94,
      "chip": "ym2612"
    },
    {
      "channel": 0,
      "note": 64,
      "start": 15.109,
      "duration": 0.1605,
      "velocity": 94,
      "chip": "ym2612"
    },
    {
      "channel": 3,
      "note": 61,
      "start": 15.1102,
      "duration": 0.1607,
      "velocity": 100,
      "chip": "ym2612"
    },
    {
      "channel": 2,
      "note": 75,
      "start": 15.1115,
      "duration": 0.1552,
      "velocity": 120,
      "chip": "ym2612"
    },
    {
      "channel": 4,
      "note": 66,
      "start": 15.1331,
      "duration": 0.1618,
      "velocity": 100,
      "chip": "ym2612"
    },
    {
      "channel": 5,
      "note": 64,
      "start": 15.1875,
      "duration": 0.162,
      "velocity": 94,
      "chip": "ym2612"
    },
    {
      "channel": 0,
      "note": 66,
      "start": 15.2702,
      "duration": 0.1622,
      "velocity": 94,
      "chip": "ym2612"
    },
    {
      "channel": 1,
      "note": 54,
      "start": 15.2708,
      "duration": 0.1624,
      "velocity": 94,
      "chip": "ym2612"
    },
    {
      "channel": 2,
      "note": 68,
      "start": 15.2725,
      "duration": 0.1567,
      "velocity": 127,
      "chip": "ym2612"
    },
    {
      "channel": 5,
      "note": 66,
      "start": 15.3501,
      "duration": 0.162,
      "velocity": 94,
      "chip": "ym2612"
    },
    {
      "channel": 0,
      "note": 67,
      "start": 15.4331,
      "duration": 0.3253,
      "velocity": 94,
      "chip": "ym2612"
    },
    {
      "channel": 1,
      "note": 59,
      "start": 15.4338,
      "duration": 0.1612,
      "velocity": 94,
      "chip": "ym2612"
    },
    {
      "channel": 2,
      "note": 29,
      "start": 15.4359,
      "duration": 0.1038,
      "velocity": 119,
      "chip": "ym2612"
    },
    {
      "channel": 5,
      "note": 67,
      "start": 15.5128,
      "duration": 0.3243,
      "velocity": 94,
      "chip": "ym2612"
    },
    {
      "channel": 1,
      "note": 54,
      "start": 15.5956,
      "duration": 0.3249,
      "velocity": 94,
      "chip": "ym2612"
    },
    {
      "channel": 3,
      "note": 61,
      "start": 15.5964,
      "duration": 0.1631,
      "velocity": 100,
      "chip": "ym2612"
    },
    {
      "channel": 2,
      "note": 68,
      "start": 15.5981,
      "duration": 0.156,
      "velocity": 127,
      "chip": "ym2612"
    },
    {
      "channel": 4,
      "note": 66,
      "start": 15.6207,
      "duration": 0.1618,
      "velocity": 100,
      "chip": "ym2612"
    },
    {
      "channel": 0,
      "note": 66,
      "start": 15.759,
      "duration": 0.3234,
      "velocity": 94,
      "chip": "ym2612"
    },
    {
      "channel": 2,
      "note": 75,
      "start": 15.7611,
      "duration": 0.1559,
      "velocity": 120,
      "chip": "ym2612"
    },
    {
      "channel": 5,
      "note": 66,
      "start": 15.8376,
      "duration": 0.3244,
      "velocity": 94,
      "chip": "ym2612"
    },
    {
      "channel": 1,
      "note": 54,
      "start": 15.921,
      "duration": 0.1623,
      "velocity": 94,
      "chip": "ym2612"
    },
    {
      "channel": 2,
      "note": 29,
      "start": 15.9231,
      "duration": 0.1043,
      "velocity": 119,
      "chip": "ym2612"
    },
    {
      "channel": 0,
      "note": 64,
      "start": 16.0831,
      "duration": 0.8119,
      "velocity": 94,
      "chip": "ym2612"
    },
    {
      "channel": 1,
      "note": 57,
      "start": 16.0838,
      "duration": 0.1615,
      "velocity": 94,
      "chip": "ym2612"
    },
    {
      "channel": 3,
      "note": 59,
      "start": 16.0846,
      "duration": 0.1615,
      "velocity": 100,
      "chip": "ym2612"
    },
    {
      "channel": 2,
      "note": 29,
      "start": 16.0863,
      "duration": 0.1032,
      "velocity": 119,
      "chip": "ym2612"
    },
    {
      "channel": 4,
      "note": 64,
      "start": 16.1095,
      "duration": 0.1607,
      "velocity": 100,
      "chip": "ym2612"
    },
    {
      "channel": 5,
      "note": 64,
      "start": 16.1626,
      "duration": 0.8139,
      "velocity": 94,
      "chip": "ym2612"
    },
    {
      "channel": 1,
      "note": 52,
      "start": 16.2459,
      "duration": 0.1629,
      "velocity": 94,
      "chip": "ym2612"
    },
    {
      "channel": 2,
      "note": 29,
      "start": 16.2476,
      "duration": 0.1047,
      "velocity": 119,
      "chip": "ym2612"
    },
    {
      "channel": 1,
      "note": 52,
      "start": 16.4094,
      "duration": 0.1611,
      "velocity": 94,
      "chip": "ym2612"
    },
    {
      "channel": 2,
      "note": 75,
      "start": 16.4116,
      "duration": 0.1552,
      "velocity": 120,
      "chip": "ym2612"
    },
    {
      "channel": 1,
      "note": 54,
      "start": 16.571,
      "duration": 0.3248,
      "velocity": 94,
      "chip": "ym2612"
    },
    {
      "channel": 3,
      "note": 61,
      "start": 16.5719,
      "duration": 0.161,
      "velocity": 100,
      "chip": "ym2612"
    },
    {
      "channel": 2,
      "note": 29,
      "start": 16.5748,
      "duration": 0.1024,
      "velocity": 119,
      "chip": "ym2612"
    },
    {
      "channel": 4,
      "note": 66,
      "start": 16.5958,
      "duration": 0.1632,
      "velocity": 100,
      "chip": "ym2612"
    },
    {
      "channel": 2,
      "note": 68,
      "start": 16.7344,
      "duration": 0.1574,
      "velocity": 127,
      "chip": "ym2612"
    },
    {
      "channel": 0,
      "note": 61,
      "start": 16.8956,
      "duration": 0.1628,
      "velocity": 94,
      "chip": "ym2612"
    },
    {
      "channel": 1,
      "note": 52,
      "start": 16.8964,
      "duration": 0.1629,
      "velocity": 94,
      "chip": "ym2612"
    },
    {
      "channel": 2,
      "note": 29,
      "start": 16.8985,
      "duration": 0.1038,
      "velocity": 119,
      "chip": "ym2612"
    },
    {
      "channel": 5,
      "note": 61,
      "start": 16.9771,
      "duration": 0.1602,
      "velocity": 94,
      "chip": "ym2612"
    },
    {
      "channel": 0,
      "note": 59,
      "start": 17.0591,
      "duration": 0.1609,
      "velocity": 94,
      "chip": "ym2612"
    },
    {
      "channel": 1,
      "note": 53,
      "start": 17.0598,
      "duration": 0.161,
      "velocity": 94,
      "chip": "ym2612"
    },
    {
      "channel": 2,
      "note": 75,
      "start": 17.0619,
      "duration": 0.1549,
      "velocity": 120,
      "chip": "ym2612"
    },
    {
      "channel": 5,
      "note": 59,
      "start": 17.1378,
      "duration": 0.162,
      "velocity": 94,
      "chip": "ym2612"
    },
    {
      "channel": 0,
      "note": 60,
      "start": 17.2207,
      "duration": 0.162,
      "velocity": 94,
      "chip": "ym2612"
    },
    {
      "channel": 1,
      "note": 54,
      "start": 17.2214,
      "duration": 0.162,
      "velocity": 94,
      "chip": "ym2612"
    },
    {
      "channel": 2,
      "note": 29,
      "start": 17.2249,
      "duration": 0.1027,
      "velocity": 119,
      "chip": "ym2612"
    },
    {
      "channel": 5,
      "note": 60,
      "start": 17.3004,
      "duration": 0.1619,
      "velocity": 94,
      "chip": "ym2612"
    },
    {
      "channel": 0,
      "note": 61,
      "start": 17.3833,
      "duration": 2.5996,
      "velocity": 94,
      "chip": "ym2612"
    },
    {
      "channel": 1,
      "note": 57,
      "start": 17.3841,
      "duration": 0.161,
      "velocity": 94,
      "chip": "ym2612"
    },
    {
      "channel": 2,
      "note": 29,
      "start": 17.3862,
      "duration": 0.1036,
      "velocity": 119,
      "chip": "ym2612"
    },
    {
      "channel": 5,
      "note": 61,
      "start": 17.4629,
      "duration": 2.5993,
      "velocity": 94,
      "chip": "ym2612"
    },
    {
      "channel": 1,
      "note": 54,
      "start": 17.5456,
      "duration": 0.3246,
      "velocity": 94,
      "chip": "ym2612"
    },
    {
      "channel": 2,
      "note": 68,
      "start": 17.5478,
      "duration": 0.1566,
      "velocity": 127,
      "chip": "ym2612"
    },
    {
      "channel": 3,
      "note": 61,
      "start": 17.7101,
      "duration": 0.1607,
      "velocity": 100,
      "chip": "ym2612"
    },
    {
      "channel": 2,
      "note": 75,
      "start": 17.7117,
      "duration": 0.1552,
      "velocity": 120,
      "chip": "ym2612"
    },
    {
      "channel": 4,
      "note": 66,
      "start": 17.7334,
      "duration": 0.1619,
      "velocity": 100,
      "chip": "ym2612"
    },
    {
      "channel": 1,
      "note": 54,
      "start": 17.8707,
      "duration": 0.1627,
      "velocity": 94,
      "chip": "ym2612"
    },
    {
      "channel": 2,
      "note": 68,
      "start": 17.8724,
      "duration": 0.1573,
      "velocity": 127,
      "chip": "ym2612"
    },
    {
      "channel": 1,
      "note": 59,
      "start": 18.0339,
      "duration": 0.1613,
      "velocity": 94,
      "chip": "ym2612"
    },
    {
      "channel": 2,
      "note": 29,
      "start": 18.0361,
      "duration": 0.1053,
      "velocity": 119,
      "chip": "ym2612"
    },
    {
      "channel": 1,
      "note": 54,
      "start": 18.1959,
      "duration": 0.3248,
      "velocity": 94,
      "chip": "ym2612"
    },
    {
      "channel": 3,
      "note": 61,
      "start": 18.1967,
      "duration": 0.1627,
      "velocity": 100,
      "chip": "ym2612"
    },
    {
      "channel": 2,
      "note": 68,
      "start": 18.1983,
      "duration": 0.1561,
      "velocity": 127,
      "chip": "ym2612"
    },
    {
      "channel": 4,
      "note": 66,
      "start": 18.2209,
      "duration": 0.1622,
      "velocity": 100,
      "chip": "ym2612"
    },
    {
      "channel": 2,
      "note": 75,
      "start": 18.361,
      "duration": 0.156,
      "velocity": 120,
      "chip": "ym2612"
    },
    {
      "channel": 1,
      "note": 54,
      "start": 18.5211,
      "duration": 0.162,
      "velocity": 94,
      "chip": "ym2612"
    },
    {
      "channel": 2,
      "note": 29,
      "start": 18.5232,
      "duration": 0.1045,
      "velocity": 119,
      "chip": "ym2612"
    },
    {
      "channel": 1,
      "note": 60,
      "start": 18.6838,
      "duration": 0.162,
      "velocity": 94,
      "chip": "ym2612"
    },
    {
      "channel": 3,
      "note": 60,
      "start": 18.6846,
      "duration": 0.1619,
      "velocity": 100,
      "chip": "ym2612"
    },
    {
      "channel": 2,
      "note": 29,
      "start": 18.6862,
      "duration": 0.1036,
      "velocity": 119,
      "chip": "ym2612"
    },
    {
      "channel": 4,
      "note": 65,
      "start": 18.7098,
      "duration": 0.1605,
      "velocity": 100,
      "chip": "ym2612"
    },
    {
      "channel": 1,
      "note": 52,
      "start": 18.8463,
      "duration": 0.1629,
      "velocity": 94,
      "chip": "ym2612"
    },
    {
      "channel": 2,
      "note": 29,
      "start": 18.848,
      "duration": 0.1045,
      "velocity": 119,
      "chip": "ym2612"
    },
    {
      "channel": 1,
      "note": 54,
      "start": 19.0097,
      "duration": 0.161,
      "velocity": 94,
      "chip": "ym2612"
    },
    {
      "channel": 2,
      "note": 75,
      "start": 19.0119,
      "duration": 0.1552,
      "velocity": 120,
      "chip": "ym2612"
    },
    {
      "channel": 1,
      "note": 57,
      "start": 19.1714,
      "duration": 0.3244,
      "velocity": 94,
      "chip": "ym2612"
    },
    {
      "channel": 3,
      "note": 59,
      "start": 19.1722,
      "duration": 0.161,
      "velocity": 100,
      "chip": "ym2612"
    },
    {
      "channel": 2,
      "note": 29,
      "start": 19.1751,
      "duration": 0.1023,
      "velocity": 119,
      "chip": "ym2612"
    },
    {
      "channel": 4,
      "note": 64,
      "start": 19.196,
      "duration": 0.1632,
      "velocity": 100,
      "chip": "ym2612"
    },
    {
      "channel": 2,
      "note": 68,
      "start": 19.3348,
      "duration": 0.1573,
      "velocity": 127,
      "chip": "ym2612"
    },
    {
      "channel": 1,
      "note": 52,
      "start": 19.4963,
      "duration": 0.1629,
      "velocity": 94,
      "chip": "ym2612"
    },
    {
      "channel": 2,
      "note": 29,
      "start": 19.4985,
      "duration": 0.1041,
      "velocity": 119,
      "chip": "ym2612"
    },
    {
      "channel": 1,
      "note": 53,
      "start": 19.6598,
      "duration": 0.1611,
      "velocity": 94,
      "chip": "ym2612"
    },
    {
      "channel": 2,
      "note": 75,
      "start": 19.6619,
      "duration": 0.1552,
      "velocity": 120,
      "chip": "ym2612"
    },
    {
      "channel": 1,
      "note": 54,
      "start": 19.8214,
      "duration": 0.1644,
      "velocity": 94,
      "chip": "ym2612"
    },
    {
      "channel": 2,
      "note": 29,
      "start": 19.8249,
      "duration": 0.1028,
      "velocity": 119,
      "chip": "ym2612"
    },
    {
      "channel": 1,
      "note": 57,
      "start": 19.9864,
      "duration": 0.1595,
      "velocity": 94,
      "chip": "ym2612"
    },
    {
      "channel": 2,
      "note": 29,
      "start": 19.9885,
      "duration": 0.101,
      "velocity": 119,
      "chip": "ym2612"
    },
    {
      "channel": 0,
      "note": 61,
      "start": 20.1458,
      "duration": 0.163,
      "velocity": 94,
      "chip": "ym2612"
    },
    {
      "channel": 1,
      "note": 54,
      "start": 20.1465,
      "duration": 0.3243,
      "velocity": 94,
      "chip": "ym2612"
    },
    {
      "channel": 2,
      "note": 68,
      "start": 20.1484,
      "duration": 0.1562,
      "velocity": 127,
      "chip": "ym2612"
    },
    {
      "channel": 5,
      "note": 61,
      "start": 20.2268,
      "duration": 0.1605,
      "velocity": 94,
      "chip": "ym2612"
    },
    {
      "channel": 0,
      "note": 64,
      "start": 20.3095,
      "duration": 0.1604,
      "velocity": 94,
      "chip": "ym2612"
    },
    {
      "channel": 3,
      "note": 61,
      "start": 20.3107,
      "duration": 0.1607,
      "velocity": 100,
      "chip": "ym2612"
    },
    {
      "channel": 2,
      "note": 75,
      "start": 20.3124,
      "duration": 0.1548,
      "velocity": 120,
      "chip": "ym2612"
    },
    {
      "channel": 4,
      "note": 66,
      "start": 20.3336,
      "duration": 0.1622,
      "velocity": 100,
      "chip": "ym2612"
    },
    {
      "channel": 5,
      "note": 64,
      "start": 20.388,
      "duration": 0.162,
      "velocity": 94,
      "chip": "ym2612"
    },
    {
      "channel": 0,
      "note": 66,
      "start": 20.4706,
      "duration": 0.1623,
      "velocity": 94,
      "chip": "ym2612"
    },
    {
      "channel": 1,
      "note": 54,
      "start": 20.4712,
      "duration": 0.1625,
      "velocity": 94,
      "chip": "ym2612"
    },
    {
      "channel": 2,
      "note": 68,
      "start": 20.4729,
      "duration": 0.1567,
      "velocity": 127,
      "chip": "ym2612"
    },
    {
      "channel": 5,
      "note": 66,
      "start": 20.5506,
      "duration": 0.162,
      "velocity": 94,
      "chip": "ym2612"
    },
    {
      "channel": 0,
      "note": 67,
      "start": 20.6336,
      "duration": 0.3253,
      "velocity": 94,
      "chip": "ym2612"
    },
    {
      "channel": 1,
      "note": 59,
      "start": 20.6343,
      "duration": 0.1611,
      "velocity": 94,
      "chip": "ym2612"
    },
    {
      "channel": 2,
      "note": 29,
      "start": 20.6364,
      "duration": 0.1051,
      "velocity": 119,
      "chip": "ym2612"
    },
    {
      "channel": 5,
      "note": 67,
      "start": 20.7133,
      "duration": 0.3243,
      "velocity": 94,
      "chip": "ym2612"
    },
    {
      "channel": 1,
      "note": 54,
      "start": 20.796,
      "duration": 0.3248,
      "velocity": 94,
      "chip": "ym2612"
    },
    {
      "channel": 3,
      "note": 61,
      "start": 20.7968,
      "duration": 0.1632,
      "velocity": 100,
      "chip": "ym2612"
    },
    {
      "channel": 2,
      "note": 68,
      "start": 20.7985,
      "duration": 0.1562,
      "velocity": 127,
      "chip": "ym2612"
    },
    {
      "channel": 4,
      "note": 66,
      "start": 20.8211,
      "duration": 0.1618,
      "velocity": 100,
      "chip": "ym2612"
    },
    {
      "channel": 0,
      "note": 66,
      "start": 20.9595,
      "duration": 0.3234,
      "velocity": 94,
      "chip": "ym2612"
    },
    {
      "channel": 2,
      "note": 75,
      "start": 20.9616,
      "duration": 0.1556,
      "velocity": 120,
      "chip": "ym2612"
    },
    {
      "channel": 5,
      "note": 66,
      "start": 21.0381,
      "duration": 0.3244,
      "velocity": 94,
      "chip": "ym2612"
    },
    {
      "channel": 1,
      "note": 54,
      "start": 21.1212,
      "duration": 0.1625,
      "velocity": 94,
      "chip": "ym2612"
    },
    {
      "channel": 2,
      "note": 29,
      "start": 21.1233,
      "duration": 0.1044,
      "velocity": 119,
      "chip": "ym2612"
    },
    {
      "channel": 0,
      "note": 64,
      "start": 21.2836,
      "duration": 0.812,
      "velocity": 94,
      "chip": "ym2612"
    },
    {
      "channel": 1,
      "note": 57,
      "start": 21.2843,
      "duration": 0.1615,
      "velocity": 94,
      "chip": "ym2612"
    },
    {
      "channel": 3,
      "note": 59,
      "start": 21.2851,
      "duration": 0.1614,
      "velocity": 100,
      "chip": "ym2612"
    },
    {
      "channel": 2,
      "note": 29,
      "start": 21.2868,
      "duration": 0.1045,
      "velocity": 119,
      "chip": "ym2612"
    },
    {
      "channel": 4,
      "note": 64,
      "start": 21.31,
      "duration": 0.1605,
      "velocity": 100,
      "chip": "ym2612"
    },
    {
      "channel": 5,
      "note": 64,
      "start": 21.3632,
      "duration": 0.8134,
      "velocity": 94,
      "chip": "ym2612"
    },
    {
      "channel": 1,
      "note": 52,
      "start": 21.4464,
      "duration": 0.163,
      "velocity": 94,
      "chip": "ym2612"
    },
    {
      "channel": 2,
      "note": 29,
      "start": 21.4481,
      "duration": 0.105,
      "velocity": 119,
      "chip": "ym2612"
    },
    {
      "channel": 1,
      "note": 52,
      "start": 21.61,
      "duration": 0.1609,
      "velocity": 94,
      "chip": "ym2612"
    },
    {
      "channel": 2,
      "note": 75,
      "start": 21.6122,
      "duration": 0.1551,
      "velocity": 120,
      "chip": "ym2612"
    },
    {
      "channel": 1,
      "note": 54,
      "start": 21.7715,
      "duration": 0.3248,
      "velocity": 94,
      "chip": "ym2612"
    },
    {
      "channel": 3,
      "note": 61,
      "start": 21.7724,
      "duration": 0.161,
      "velocity": 100,
      "chip": "ym2612"
    },
    {
      "channel": 2,
      "note": 29,
      "start": 21.7753,
      "duration": 0.1024,
      "velocity": 119,
      "chip": "ym2612"
    },
    {
      "channel": 4,
      "note": 66,
      "start": 21.7963,
      "duration": 0.1632,
      "velocity": 100,
      "chip": "ym2612"
    },
    {
      "channel": 2,
      "note": 68,
      "start": 21.935,
      "duration": 0.1574,
      "velocity": 127,
      "chip": "ym2612"
    },
    {
      "channel": 0,
      "note": 61,
      "start": 22.0962,
      "duration": 0.1631,
      "velocity": 94,
      "chip": "ym2612"
    },
    {
      "channel": 1,
      "note": 52,
      "start": 22.097,
      "duration": 0.1632,
      "velocity": 94,
      "chip": "ym2612"
    },
    {
      "channel": 2,
      "note": 29,
      "start": 22.0991,
      "duration": 0.1037,
      "velocity": 119,
      "chip": "ym2612"
    },
    {
      "channel": 5,
      "note": 61,
      "start": 22.1772,
      "duration": 0.1605,
      "velocity": 94,
      "chip": "ym2612"
    },
    {
      "channel": 0,
      "note": 59,
      "start": 22.26,
      "duration": 0.1605,
      "velocity": 94,
      "chip": "ym2612"
    },
    {
      "channel": 1,
      "note": 53,
      "start": 22.2607,
      "duration": 0.1606,
      "velocity": 94,
      "chip": "ym2612"
    },
    {
      "channel": 2,
      "note": 75,
      "start": 22.2629,
      "duration": 0.1545,
      "velocity": 120,
      "chip": "ym2612"
    },
    {
      "channel": 5,
      "note": 59,
      "start": 22.3384,
      "duration": 0.1619,
      "velocity": 94,
      "chip": "ym2612"
    },
    {
      "channel": 0,
      "note": 60,
      "start": 22.4212,
      "duration": 0.324,
      "velocity": 94,
      "chip": "ym2612"
    },
    {
      "channel": 1,
      "note": 54,
      "start": 22.4219,
      "duration": 0.1618,
      "velocity": 94,
      "chip": "ym2612"
    },
    {
      "channel": 2,
      "note": 29,
      "start": 22.4254,
      "duration": 0.1024,
      "velocity": 119,
      "chip": "ym2612"
    },
    {
      "channel": 5,
      "note": 60,
      "start": 22.5009,
      "duration": 0.3258,
      "velocity": 94,
      "chip": "ym2612"
    },
    {
      "channel": 1,
      "note": 57,
      "start": 22.5843,
      "duration": 0.1618,
      "velocity": 94,
      "chip": "ym2612"
    },
    {
      "channel": 2,
      "note": 29,
      "start": 22.5864,
      "duration": 0.1054,
      "velocity": 119,
      "chip": "ym2612"
    },
    {
      "channel": 0,
      "note": 64,
      "start": 22.7459,
      "duration": 0.1631,
      "velocity": 94,
      "chip": "ym2612"
    },
    {
      "channel": 1,
      "note": 54,
      "start": 22.7466,
      "duration": 0.3244,
      "velocity": 94,
      "chip": "ym2612"
    },
    {
      "channel": 2,
      "note": 68,
      "start": 22.7488,
      "duration": 0.1562,
      "velocity": 127,
      "chip": "ym2612"
    },
    {
      "channel": 5,
      "note": 64,
      "start": 22.8273,
      "duration": 0.1604,
      "velocity": 94,
      "chip": "ym2612"
    },
    {
      "channel": 0,
      "note": 66,
      "start": 22.9097,
      "duration": 0.1605,
      "velocity": 94,
      "chip": "ym2612"
    },
    {
      "channel": 3,
      "note": 61,
      "start": 22.9109,
      "duration": 0.1607,
      "velocity": 100,
      "chip": "ym2612"
    },
    {
      "channel": 2,
      "note": 75,
      "start": 22.9126,
      "duration": 0.1549,
      "velocity": 120,
      "chip": "ym2612"
    },
    {
      "channel": 4,
      "note": 66,
      "start": 22.9338,
      "duration": 0.1618,
      "velocity": 100,
      "chip": "ym2612"
    },
    {
      "channel": 5,
      "note": 66,
      "start": 22.9883,
      "duration": 0.162,
      "velocity": 94,
      "chip": "ym2612"
    },
    {
      "channel": 0,
      "note": 67,
      "start": 23.0708,
      "duration": 0.3244,
      "velocity": 94,
      "chip": "ym2612"
    },
    {
      "channel": 1,
      "note": 54,
      "start": 23.0714,
      "duration": 0.1621,
      "velocity": 94,
      "chip": "ym2612"
    },
    {
      "channel": 2,
      "note": 68,
      "start": 23.0732,
      "duration": 0.1567,
      "velocity": 127,
      "chip": "ym2612"
    },
    {
      "channel": 5,
      "note": 67,
      "start": 23.1509,
      "duration": 0.3258,
      "velocity": 94,
      "chip": "ym2612"
    },
    {
      "channel": 1,
      "note": 59,
      "start": 23.2341,
      "duration": 0.162,
      "velocity": 94,
      "chip": "ym2612"
    },
    {
      "channel": 2,
      "note": 29,
      "start": 23.2362,
      "duration": 0.1057,
      "velocity": 119,
      "chip": "ym2612"
    },
    {
      "channel": 0,
      "note": 63,
      "start": 23.396,
      "duration": 0.1631,
      "velocity": 94,
      "chip": "ym2612"
    },
    {
      "channel": 1,
      "note": 54,
      "start": 23.3967,
      "duration": 0.3249,
      "velocity": 94,
      "chip": "ym2612"
    },
    {
      "channel": 3,
      "note": 61,
      "start": 23.3975,
      "duration": 0.1628,
      "velocity": 100,
      "chip": "ym2612"
    },
    {
      "channel": 2,
      "note": 68,
      "start": 23.3992,
      "duration": 0.1557,
      "velocity": 127,
      "chip": "ym2612"
    },
    {
      "channel": 4,
      "note": 66,
      "start": 23.4214,
      "duration": 0.1619,
      "velocity": 100,
      "chip": "ym2612"
    },
    {
      "channel": 5,
      "note": 63,
      "start": 23.4773,
      "duration": 0.1606,
      "velocity": 94,
      "chip": "ym2612"
    },
    {
      "channel": 0,
      "note": 64,
      "start": 23.5598,
      "duration": 0.1609,
      "velocity": 94,
      "chip": "ym2612"
    },
    {
      "channel": 2,
      "note": 75,
      "start": 23.5619,
      "duration": 0.1556,
      "velocity": 120,
      "chip": "ym2612"
    },
    {
      "channel": 5,
      "note": 64,
      "start": 23.6384,
      "duration": 0.162,
      "velocity": 94,
      "chip": "ym2612"
    },
    {
      "channel": 0,
      "note": 66,
      "start": 23.7214,
      "duration": 0.3243,
      "velocity": 94,
      "chip": "ym2612"
    },
    {
      "channel": 1,
      "note": 54,
      "start": 23.722,
      "duration": 0.1616,
      "velocity": 94,
      "chip": "ym2612"
    },
    {
      "channel": 2,
      "note": 29,
      "start": 23.7254,
      "duration": 0.1025,
      "velocity": 119,
      "chip": "ym2612"
    },
    {
      "channel": 5,
      "note": 66,
      "start": 23.8011,
      "duration": 0.326,
      "velocity": 94,
      "chip": "ym2612"
    },
    {
      "channel": 1,
      "note": 60,
      "start": 23.8841,
      "duration": 0.1624,
      "velocity": 94,
      "chip": "ym2612"
    },
    {
      "channel": 2,
      "note": 29,
      "start": 23.8862,
      "duration": 0.1056,
      "velocity": 119,
      "chip": "ym2612"
    },
    {
      "channel": 0,
      "note": 59,
      "start": 24.0464,
      "duration": 0.1628,
      "velocity": 94,
      "chip": "ym2612"
    },
    {
      "channel": 1,
      "note": 52,
      "start": 24.0471,
      "duration": 0.1629,
      "velocity": 94,
      "chip": "ym2612"
    },
    {
      "channel": 2,
      "note": 29,
      "start": 24.0492,
      "duration": 0.1038,
      "velocity": 119,
      "chip": "ym2612"
    },
    {
      "channel": 5,
      "note": 59,
      "start": 24.1277,
      "duration": 0.1601,
      "velocity": 94,
      "chip": "ym2612"
    },
    {
      "channel": 0,
      "note": 60,
      "start": 24.2098,
      "duration": 0.1607,
      "velocity": 94,
      "chip": "ym2612"
    },
    {
      "channel": 1,
      "note": 54,
      "start": 24.2106,
      "duration": 0.1608,
      "velocity": 94,
      "chip": "ym2612"
    },
    {
      "channel": 3,
      "note": 60,
      "start": 24.2114,
      "duration": 0.1607,
      "velocity": 100,
      "chip": "ym2612"
    },
    {
      "channel": 2,
      "note": 75,
      "start": 24.2131,
      "duration": 0.1547,
      "velocity": 120,
      "chip": "ym2612"
    },
    {
      "channel": 4,
      "note": 65,
      "start": 24.2339,
      "duration": 0.1618,
      "velocity": 100,
      "chip": "ym2612"
    },
    {
      "channel": 5,
      "note": 60,
      "start": 24.2884,
      "duration": 0.162,
      "velocity": 94,
      "chip": "ym2612"
    },
    {
      "channel": 0,
      "note": 61,
      "start": 24.3713,
      "duration": 0.3241,
      "velocity": 94,
      "chip": "ym2612"
    },
    {
      "channel": 1,
      "note": 57,
      "start": 24.372,
      "duration": 0.3242,
      "velocity": 94,
      "chip": "ym2612"
    },
    {
      "channel": 2,
      "note": 68,
      "start": 24.3752,
      "duration": 0.1549,
      "velocity": 127,
      "chip": "ym2612"
    },
    {
      "channel": 5,
      "note": 61,
      "start": 24.451,
      "duration": 0.3261,
      "velocity": 94,
      "chip": "ym2612"
    },
    {
      "channel": 3,
      "note": 61,
      "start": 24.5343,
      "duration": 0.1627,
      "velocity": 100,
      "chip": "ym2612"
    },
    {
      "channel": 2,
      "note": 79,
      "start": 24.5361,
      "duration": 0.0752,
      "velocity": 120,
      "chip": "ym2612"
    },
    {
      "channel": 4,
      "note": 66,
      "start": 24.5602,
      "duration": 0.1609,
      "velocity": 100,
      "chip": "ym2612"
    },
    {
      "channel": 2,
      "note": 74,
      "start": 24.6168,
      "duration": 0.0758,
      "velocity": 120,
      "chip": "ym2612"
    },
    {
      "channel": 0,
      "note": 63,
      "start": 24.696,
      "duration": 0.1632,
      "velocity": 94,
      "chip": "ym2612"
    },
    {
      "channel": 1,
      "note": 52,
      "start": 24.6968,
      "duration": 0.1633,
      "velocity": 94,
      "chip": "ym2612"
    },
    {
      "channel": 2,
      "note": 75,
      "start": 24.6985,
      "duration": 0.1566,
      "velocity": 120,
      "chip": "ym2612"
    },
    {
      "channel": 5,
      "note": 63,
      "start": 24.7776,
      "duration": 0.1602,
      "velocity": 94,
      "chip": "ym2612"
    },
    {
      "channel": 0,
      "note": 64,
      "start": 24.8599,
      "duration": 0.1605,
      "velocity": 94,
      "chip": "ym2612"
    },
    {
      "channel": 1,
      "note": 53,
      "start": 24.8607,
      "duration": 0.1606,
      "velocity": 94,
      "chip": "ym2612"
    },
    {
      "channel": 3,
      "note": 59,
      "start": 24.8615,
      "duration": 0.1605,
      "velocity": 100,
      "chip": "ym2612"
    },
    {
      "channel": 2,
      "note": 75,
      "start": 24.8632,
      "duration": 0.1545,
      "velocity": 120,
      "chip": "ym2612"
    },
    {
      "channel": 4,
      "note": 64,
      "start": 24.8839,
      "duration": 0.1619,
      "velocity": 100,
      "chip": "ym2612"
    },
    {
      "channel": 5,
      "note": 64,
      "start": 24.9385,
      "duration": 0.162,
      "velocity": 94,
      "chip": "ym2612"
    },
    {
      "channel": 0,
      "note": 66,
      "start": 25.0211,
      "duration": 0.3244,
      "velocity": 94,
      "chip": "ym2612"
    },
    {
      "channel": 1,
      "note": 54,
      "start": 25.0218,
      "duration": 0.1645,
      "velocity": 94,
      "chip": "ym2612"
    },
    {
      "channel": 2,
      "note": 68,
      "start": 25.0249,
      "duration": 0.1553,
      "velocity": 127,
      "chip": "ym2612"
    },
    {
      "channel": 5,
      "note": 66,
      "start": 25.101,
      "duration": 0.3261,
      "velocity": 94,
      "chip": "ym2612"
    },
    {
      "channel": 1,
      "note": 57,
      "start": 25.1869,
      "duration": 0.1593,
      "velocity": 94,
      "chip": "ym2612"
    },
    {
      "channel": 2,
      "note": 29,
      "start": 25.189,
      "duration": 0.1029,
      "velocity": 119,
      "chip": "ym2612"
    },
    {
      "channel": 0,
      "note": 52,
      "start": 25.3462,
      "duration": 0.1631,
      "velocity": 94,
      "chip": "ym2612"
    },
    {
      "channel": 1,
      "note": 54,
      "start": 25.3468,
      "duration": 0.3244,
      "velocity": 94,
      "chip": "ym2612"
    },
    {
      "channel": 2,
      "note": 68,
      "start": 25.349,
      "duration": 0.1561,
      "velocity": 127,
      "chip": "ym2612"
    },
    {
      "channel": 5,
      "note": 52,
      "start": 25.4277,
      "duration": 0.1602,
      "velocity": 94,
      "chip": "ym2612"
    },
    {
      "channel": 0,
      "note": 53,
      "start": 25.51,
      "duration": 0.1605,
      "velocity": 94,
      "chip": "ym2612"
    },
    {
      "channel": 3,
      "note": 73,
      "start": 25.5137,
      "duration": 0.1581,
      "velocity": 104,
      "chip": "ym2612"
    },
    {
      "channel": 2,
      "note": 75,
      "start": 25.5154,
      "duration": 0.1523,
      "velocity": 120,
      "chip": "ym2612"
    },
    {
      "channel": 4,
      "note": 78,
      "start": 25.5366,
      "duration": 0.1593,
      "velocity": 104,
      "chip": "ym2612"
    },
    {
      "channel": 5,
      "note": 53,
      "start": 25.5885,
      "duration": 0.162,
      "velocity": 94,
      "chip": "ym2612"
    },
    {
      "channel": 0,
      "note": 54,
      "start": 25.6711,
      "duration": 0.1623,
      "velocity": 94,
      "chip": "ym2612"
    },
    {
      "channel": 1,
      "note": 54,
      "start": 25.6717,
      "duration": 0.1625,
      "velocity": 94,
      "chip": "ym2612"
    },
    {
      "channel": 3,
      "note": 73,
      "start": 25.6724,
      "duration": 0.1626,
      "velocity": 104,
      "chip": "ym2612"
    },
    {
      "channel": 2,
      "note": 68,
      "start": 25.6753,
      "duration": 0.1549,
      "velocity": 127,
      "chip": "ym2612"
    },
    {
      "channel": 4,
      "note": 78,
      "start": 25.6964,
      "duration": 0.1632,
      "velocity": 104,
      "chip": "ym2612"
    },
    {
      "channel": 5,
      "note": 54,
      "start": 25.7511,
      "duration": 0.162,
      "velocity": 94,
      "chip": "ym2612"
    },
    {
      "channel": 0,
      "note": 57,
      "start": 25.8341,
      "duration": 0.3254,
      "velocity": 94,
      "chip": "ym2612"
    },
    {
      "channel": 1,
      "note": 59,
      "start": 25.8348,
      "duration": 0.1611,
      "velocity": 94,
      "chip": "ym2612"
    },
    {
      "channel": 2,
      "note": 29,
      "start": 25.8365,
      "duration": 0.1055,
      "velocity": 119,
      "chip": "ym2612"
    },
    {
      "channel": 5,
      "note": 57,
      "start": 25.9136,
      "duration": 0.3245,
      "velocity": 94,
      "chip": "ym2612"
    },
    {
      "channel": 1,
      "note": 54,
      "start": 25.9964,
      "duration": 0.3254,
      "velocity": 94,
      "chip": "ym2612"
    },
    {
      "channel": 2,
      "note": 68,
      "start": 25.9986,
      "duration": 0.1567,
      "velocity": 127,
      "chip": "ym2612"
    },
    {
      "channel": 0,
      "note": 52,
      "start": 26.1601,
      "duration": 0.1609,
      "velocity": 94,
      "chip": "ym2612"
    },
    {
      "channel": 2,
      "note": 75,
      "start": 26.1626,
      "duration": 0.1552,
      "velocity": 120,
      "chip": "ym2612"
    },
    {
      "channel": 5,
      "note": 52,
      "start": 26.2387,
      "duration": 0.162,
      "velocity": 94,
      "chip": "ym2612"
    },
    {
      "channel": 0,
      "note": 53,
      "start": 26.3217,
      "duration": 0.3243,
      "velocity": 94,
      "chip": "ym2612"
    },
    {
      "channel": 1,
      "note": 54,
      "start": 26.3222,
      "duration": 0.1618,
      "velocity": 94,
      "chip": "ym2612"
    },
    {
      "channel": 2,
      "note": 29,
      "start": 26.3257,
      "duration": 0.1025,
      "velocity": 119,
      "chip": "ym2612"
    },
    {
      "channel": 5,
      "note": 53,
      "start": 26.4013,
      "duration": 0.3254,
      "velocity": 94,
      "chip": "ym2612"
    },
    {
      "channel": 1,
      "note": 57,
      "start": 26.4847,
      "duration": 0.1621,
      "velocity": 94,
      "chip": "ym2612"
    },
    {
      "channel": 3,
      "note": 71,
      "start": 26.4855,
      "duration": 0.162,
      "velocity": 104,
      "chip": "ym2612"
    },
    {
      "channel": 2,
      "note": 29,
      "start": 26.4872,
      "duration": 0.1048,
      "velocity": 119,
      "chip": "ym2612"
    },
    {
      "channel": 4,
      "note": 76,
      "start": 26.5102,
      "duration": 0.1608,
      "velocity": 104,
      "chip": "ym2612"
    },
    {
      "channel": 0,
      "note": 54,
      "start": 26.6467,
      "duration": 0.1628,
      "velocity": 94,
      "chip": "ym2612"
    },
    {
      "channel": 1,
      "note": 52,
      "start": 26.6474,
      "duration": 0.1629,
      "velocity": 94,
      "chip": "ym2612"
    },
    {
      "channel": 2,
      "note": 29,
      "start": 26.6491,
      "duration": 0.1041,
      "velocity": 119,
      "chip": "ym2612"
    },
    {
      "channel": 5,
      "note": 54,
      "start": 26.7273,
      "duration": 0.161,
      "velocity": 94,
      "chip": "ym2612"
    },
    {
      "channel": 0,
      "note": 59,
      "start": 26.8101,
      "duration": 0.4859,
      "velocity": 94,
      "chip": "ym2612"
    },
    {
      "channel": 1,
      "note": 52,
      "start": 26.8109,
      "duration": 0.1605,
      "velocity": 94,
      "chip": "ym2612"
    },
    {
      "channel": 2,
      "note": 75,
      "start": 26.8129,
      "duration": 0.1548,
      "velocity": 120,
      "chip": "ym2612"
    },
    {
      "channel": 5,
      "note": 59,
      "start": 26.8888,
      "duration": 0.488,
      "velocity": 94,
      "chip": "ym2612"
    },
    {
      "channel": 1,
      "note": 54,
      "start": 26.9719,
      "duration": 0.3249,
      "velocity": 94,
      "chip": "ym2612"
    },
    {
      "channel": 3,
      "note": 73,
      "start": 26.9727,
      "duration": 0.1612,
      "velocity": 104,
      "chip": "ym2612"
    },
    {
      "channel": 2,
      "note": 29,
      "start": 26.9758,
      "duration": 0.1024,
      "velocity": 119,
      "chip": "ym2612"
    },
    {
      "channel": 4,
      "note": 78,
      "start": 26.9967,
      "duration": 0.1629,
      "velocity": 104,
      "chip": "ym2612"
    },
    {
      "channel": 2,
      "note": 68,
      "start": 27.1355,
      "duration": 0.1573,
      "velocity": 127,
      "chip": "ym2612"
    },
    {
      "channel": 0,
      "note": 52,
      "start": 27.2967,
      "duration": 0.1628,
      "velocity": 94,
      "chip": "ym2612"
    },
    {
      "channel": 1,
      "note": 52,
      "start": 27.2974,
      "duration": 0.1628,
      "velocity": 94,
      "chip": "ym2612"
    },
    {
      "channel": 2,
      "note": 29,
      "start": 27.2995,
      "duration": 0.1038,
      "velocity": 119,
      "chip": "ym2612"
    },
    {
      "channel": 5,
      "note": 52,
      "start": 27.3775,
      "duration": 0.1609,
      "velocity": 94,
      "chip": "ym2612"
    },
    {
      "channel": 0,
      "note": 53,
      "start": 27.4602,
      "duration": 0.1609,
      "velocity": 94,
      "chip": "ym2612"
    },
    {
      "channel": 1,
      "note": 53,
      "start": 27.4609,
      "duration": 0.161,
      "velocity": 94,
      "chip": "ym2612"
    },
    {
      "channel": 3,
      "note": 71,
      "start": 27.4617,
      "duration": 0.161,
      "velocity": 104,
      "chip": "ym2612"
    },
    {
      "channel": 2,
      "note": 75,
      "start": 27.4633,
      "duration": 0.1545,
      "velocity": 120,
      "chip": "ym2612"
    },
    {
      "channel": 4,
      "note": 76,
      "start": 27.4843,
      "duration": 0.1618,
      "velocity": 104,
      "chip": "ym2612"
    },
    {
      "channel": 5,
      "note": 53,
      "start": 27.539,
      "duration": 0.1617,
      "velocity": 94,
      "chip": "ym2612"
    },
    {
      "channel": 0,
      "note": 54,
      "start": 27.6217,
      "duration": 0.162,
      "velocity": 94,
      "chip": "ym2612"
    },
    {
      "channel": 1,
      "note": 54,
      "start": 27.6224,
      "duration": 0.162,
      "velocity": 94,
      "chip": "ym2612"
    },
    {
      "channel": 2,
      "note": 29,
      "start": 27.6255,
      "duration": 0.1029,
      "velocity": 119,
      "chip": "ym2612"
    },
    {
      "channel": 5,
      "note": 54,
      "start": 27.7012,
      "duration": 0.1621,
      "velocity": 94,
      "chip": "ym2612"
    },
    {
      "channel": 0,
      "note": 61,
      "start": 27.7843,
      "duration": 0.3253,
      "velocity": 94,
      "chip": "ym2612"
    },
    {
      "channel": 1,
      "note": 57,
      "start": 27.7851,
      "duration": 0.161,
      "velocity": 94,
      "chip": "ym2612"
    },
    {
      "channel": 2,
      "note": 29,
      "start": 27.7872,
      "duration": 0.1051,
      "velocity": 119,
      "chip": "ym2612"
    },
    {
      "channel": 5,
      "note": 61,
      "start": 27.864,
      "duration": 0.3242,
      "velocity": 94,
      "chip": "ym2612"
    },
    {
      "channel": 1,
      "note": 54,
      "start": 27.9467,
      "duration": 0.3249,
      "velocity": 94,
      "chip": "ym2612"
    },
    {
      "channel": 2,
      "note": 68,
      "start": 27.9488,
      "duration": 0.1567,
      "velocity": 127,
      "chip": "ym2612"
    },
    {
      "channel": 0,
      "note": 60,
      "start": 28.1103,
      "duration": 0.1604,
      "velocity": 94,
      "chip": "ym2612"
    },
    {
      "channel": 3,
      "note": 73,
      "start": 28.1115,
      "duration": 0.1607,
      "velocity": 104,
      "chip": "ym2612"
    },
    {
      "channel": 2,
      "note": 75,
      "start": 28.1132,
      "duration": 0.1548,
      "velocity": 120,
      "chip": "ym2612"
    },
    {
      "channel": 4,
      "note": 78,
      "start": 28.1343,
      "duration": 0.1618,
      "velocity": 104,
      "chip": "ym2612"
    },
    {
      "channel": 5,
      "note": 60,
      "start": 28.1888,
      "duration": 0.162,
      "velocity": 94,
      "chip": "ym2612"
    },
    {
      "channel": 0,
      "note": 59,
      "start": 28.2714,
      "duration": 2.1125,
      "velocity": 94,
      "chip": "ym2612"
    },
    {
      "channel": 1,
      "note": 54,
      "start": 28.272,
      "duration": 0.162,
      "velocity": 94,
      "chip": "ym2612"
    },
    {
      "channel": 2,
      "note": 68,
      "start": 28.2751,
      "duration": 0.1554,
      "velocity": 127,
      "chip": "ym2612"
    },
    {
      "channel": 5,
      "note": 59,
      "start": 28.3513,
      "duration": 2.1116,
      "velocity": 94,
      "chip": "ym2612"
    },
    {
      "channel": 1,
      "note": 59,
      "start": 28.4346,
      "duration": 0.1619,
      "velocity": 94,
      "chip": "ym2612"
    },
    {
      "channel": 3,
      "note": 72,
      "start": 28.4354,
      "duration": 0.1618,
      "velocity": 104,
      "chip": "ym2612"
    },
    {
      "channel": 2,
      "note": 29,
      "start": 28.4371,
      "duration": 0.1051,
      "velocity": 119,
      "chip": "ym2612"
    },
    {
      "channel": 4,
      "note": 77,
      "start": 28.4603,
      "duration": 0.161,
      "velocity": 104,
      "chip": "ym2612"
    },
    {
      "channel": 1,
      "note": 54,
      "start": 28.5971,
      "duration": 0.3246,
      "velocity": 94,
      "chip": "ym2612"
    },
    {
      "channel": 3,
      "note": 71,
      "start": 28.5979,
      "duration": 0.1627,
      "velocity": 104,
      "chip": "ym2612"
    },
    {
      "channel": 2,
      "note": 68,
      "start": 28.5995,
      "duration": 0.1561,
      "velocity": 127,
      "chip": "ym2612"
    },
    {
      "channel": 4,
      "note": 76,
      "start": 28.622,
      "duration": 0.1618,
      "velocity": 104,
      "chip": "ym2612"
    },
    {
      "channel": 2,
      "note": 75,
      "start": 28.7621,
      "duration": 0.1558,
      "velocity": 120,
      "chip": "ym2612"
    },
    {
      "channel": 1,
      "note": 54,
      "start": 28.922,
      "duration": 0.1621,
      "velocity": 94,
      "chip": "ym2612"
    },
    {
      "channel": 2,
      "note": 29,
      "start": 28.9255,
      "duration": 0.1031,
      "velocity": 119,
      "chip": "ym2612"
    },
    {
      "channel": 1,
      "note": 60,
      "start": 29.0847,
      "duration": 0.162,
      "velocity": 94,
      "chip": "ym2612"
    },
    {
      "channel": 3,
      "note": 73,
      "start": 29.0855,
      "duration": 0.1619,
      "velocity": 104,
      "chip": "ym2612"
    },
    {
      "channel": 2,
      "note": 29,
      "start": 29.0872,
      "duration": 0.105,
      "velocity": 119,
      "chip": "ym2612"
    },
    {
      "channel": 4,
      "note": 78,
      "start": 29.1103,
      "duration": 0.161,
      "velocity": 104,
      "chip": "ym2612"
    },
    {
      "channel": 1,
      "note": 52,
      "start": 29.2472,
      "duration": 0.1629,
      "velocity": 94,
      "chip": "ym2612"
    },
    {
      "channel": 2,
      "note": 29,
      "start": 29.249,
      "duration": 0.1046,
      "velocity": 119,
      "chip": "ym2612"
    },
    {
      "channel": 1,
      "note": 54,
      "start": 29.4107,
      "duration": 0.161,
      "velocity": 94,
      "chip": "ym2612"
    },
    {
      "channel": 3,
      "note": 72,
      "start": 29.4115,
      "duration": 0.1609,
      "velocity": 104,
      "chip": "ym2612"
    },
    {
      "channel": 2,
      "note": 75,
      "start": 29.4132,
      "duration": 0.1549,
      "velocity": 120,
      "chip": "ym2612"
    },
    {
      "channel": 4,
      "note": 77,
      "start": 29.4345,
      "duration": 0.1618,
      "velocity": 104,
      "chip": "ym2612"
    },
    {
      "channel": 1,
      "note": 57,
      "start": 29.5722,
      "duration": 0.3245,
      "velocity": 94,
      "chip": "ym2612"
    },
    {
      "channel": 3,
      "note": 71,
      "start": 29.5731,
      "duration": 0.1611,
      "velocity": 104,
      "chip": "ym2612"
    },
    {
      "channel": 2,
      "note": 29,
      "start": 29.576,
      "duration": 0.1024,
      "velocity": 119,
      "chip": "ym2612"
    },
    {
      "channel": 4,
      "note": 76,
      "start": 29.5971,
      "duration": 0.1623,
      "velocity": 104,
      "chip": "ym2612"
    },
    {
      "channel": 2,
      "note": 68,
      "start": 29.7359,
      "duration": 0.1572,
      "velocity": 127,
      "chip": "ym2612"
    },
    {
      "channel": 1,
      "note": 52,
      "start": 29.8973,
      "duration": 0.1629,
      "velocity": 94,
      "chip": "ym2612"
    },
    {
      "channel": 2,
      "note": 29,
      "start": 29.8991,
      "duration": 0.1044,
      "velocity": 119,
      "chip": "ym2612"
    },
    {
      "channel": 1,
      "note": 53,
      "start": 30.0608,
      "duration": 0.161,
      "velocity": 94,
      "chip": "ym2612"
    },
    {
      "channel": 2,
      "note": 75,
      "start": 30.0625,
      "duration": 0.1556,
      "velocity": 120,
      "chip": "ym2612"
    },
    {
      "channel": 1,
      "note": 54,
      "start": 30.2224,
      "duration": 0.162,
      "velocity": 94,
      "chip": "ym2612"
    },
    {
      "channel": 2,
      "note": 29,
      "start": 30.2254,
      "duration": 0.1029,
      "velocity": 119,
      "chip": "ym2612"
    },
    {
      "channel": 1,
      "note": 57,
      "start": 30.385,
      "duration": 0.1618,
      "velocity": 94,
      "chip": "ym2612"
    },
    {
      "channel": 2,
      "note": 29,
      "start": 30.3867,
      "duration": 0.1048,
      "velocity": 119,
      "chip": "ym2612"
    },
    {
      "channel": 0,
      "note": 52,
      "start": 30.5466,
      "duration": 0.1635,
      "velocity": 94,
      "chip": "ym2612"
    },
    {
      "channel": 1,
      "note": 54,
      "start": 30.5474,
      "duration": 0.3244,
      "velocity": 94,
      "chip": "ym2612"
    },
    {
      "channel": 2,
      "note": 68,
      "start": 30.5488,
      "duration": 0.1571,
      "velocity": 127,
      "chip": "ym2612"
    },
    {
      "channel": 5,
      "note": 52,
      "start": 30.627,
      "duration": 0.1614,
      "velocity": 94,
      "chip": "ym2612"
    },
    {
      "channel": 0,
      "note": 53,
      "start": 30.7107,
      "duration": 0.1603,
      "velocity": 94,
      "chip": "ym2612"
    },
    {
      "channel": 3,
      "note": 73,
      "start": 30.7119,
      "duration": 0.1605,
      "velocity": 104,
      "chip": "ym2612"
    },
    {
      "channel": 2,
      "note": 75,
      "start": 30.7136,
      "duration": 0.1546,
      "velocity": 120,
      "chip": "ym2612"
    },
    {
      "channel": 4,
      "note": 78,
      "start": 30.7346,
      "duration": 0.1618,
      "velocity": 104,
      "chip": "ym2612"
    },
    {
      "channel": 5,
      "note": 53,
      "start": 30.789,
      "duration": 0.1619,
      "velocity": 94,
      "chip": "ym2612"
    },
    {
      "channel": 0,
      "note": 54,
      "start": 30.8717,
      "duration": 0.1622,
      "velocity": 94,
      "chip": "ym2612"
    },
    {
      "channel": 1,
      "note": 54,
      "start": 30.8722,
      "duration": 0.1625,
      "velocity": 94,
      "chip": "ym2612"
    },
    {
      "channel": 3,
      "note": 73,
      "start": 30.8729,
      "duration": 0.1625,
      "velocity": 104,
      "chip": "ym2612"
    },
    {
      "channel": 2,
      "note": 68,
      "start": 30.8759,
      "duration": 0.1548,
      "velocity": 127,
      "chip": "ym2612"
    },
    {
      "channel": 4,
      "note": 78,
      "start": 30.8969,
      "duration": 0.1627,
      "velocity": 104,
      "chip": "ym2612"
    },
    {
      "channel": 5,
      "note": 54,
      "start": 30.9516,
      "duration": 0.1613,
      "velocity": 94,
      "chip": "ym2612"
    },
    {
      "channel": 0,
      "note": 57,
      "start": 31.0346,
      "duration": 0.3253,
      "velocity": 94,
      "chip": "ym2612"
    },
    {
      "channel": 1,
      "note": 59,
      "start": 31.0353,
      "duration": 0.161,
      "velocity": 94,
      "chip": "ym2612"
    },
    {
      "channel": 2,
      "note": 29,
      "start": 31.0372,
      "duration": 0.1045,
      "velocity": 119,
      "chip": "ym2612"
    },
    {
      "channel": 5,
      "note": 57,
      "start": 31.1135,
      "duration": 0.3251,
      "velocity": 94,
      "chip": "ym2612"
    },
    {
      "channel": 1,
      "note": 54,
      "start": 31.1969,
      "duration": 0.3253,
      "velocity": 94,
      "chip": "ym2612"
    },
    {
      "channel": 2,
      "note": 68,
      "start": 31.1983,
      "duration": 0.1575,
      "velocity": 127,
      "chip": "ym2612"
    },
    {
      "channel": 0,
      "note": 52,
      "start": 31.3605,
      "duration": 0.1609,
      "velocity": 94,
      "chip": "ym2612"
    },
    {
      "channel": 3,
      "note": 71,
      "start": 31.3617,
      "duration": 0.1612,
      "velocity": 104,
      "chip": "ym2612"
    },
    {
      "channel": 2,
      "note": 75,
      "start": 31.363,
      "duration": 0.1552,
      "velocity": 120,
      "chip": "ym2612"
    },
    {
      "channel": 4,
      "note": 76,
      "start": 31.3846,
      "duration": 0.1619,
      "velocity": 104,
      "chip": "ym2612"
    },
    {
      "channel": 5,
      "note": 52,
      "start": 31.4391,
      "duration": 0.162,
      "velocity": 94,
      "chip": "ym2612"
    },
    {
      "channel": 0,
      "note": 53,
      "start": 31.5221,
      "duration": 0.3244,
      "velocity": 94,
      "chip": "ym2612"
    },
    {
      "channel": 1,
      "note": 54,
      "start": 31.5227,
      "duration": 0.1617,
      "velocity": 94,
      "chip": "ym2612"
    },
    {
      "channel": 2,
      "note": 29,
      "start": 31.5257,
      "duration": 0.1029,
      "velocity": 119,
      "chip": "ym2612"
    },
    {
      "channel": 5,
      "note": 53,
      "start": 31.6016,
      "duration": 0.3251,
      "velocity": 94,
      "chip": "ym2612"
    },
    {
      "channel": 1,
      "note": 57,
      "start": 31.6849,
      "duration": 0.1624,
      "velocity": 94,
      "chip": "ym2612"
    },
    {
      "channel": 3,
      "note": 73,
      "start": 31.6857,
      "duration": 0.1623,
      "velocity": 104,
      "chip": "ym2612"
    },
    {
      "channel": 2,
      "note": 29,
      "start": 31.6874,
      "duration": 0.1052,
      "velocity": 119,
      "chip": "ym2612"
    },
    {
      "channel": 4,
      "note": 78,
      "start": 31.7106,
      "duration": 0.1609,
      "velocity": 104,
      "chip": "ym2612"
    },
    {
      "channel": 0,
      "note": 54,
      "start": 31.8472,
      "duration": 0.1627,
      "velocity": 94,
      "chip": "ym2612"
    },
    {
      "channel": 1,
      "note": 52,
      "start": 31.8479,
      "duration": 0.1628,
      "velocity": 94,
      "chip": "ym2612"
    },
    {
      "channel": 2,
      "note": 29,
      "start": 31.8496,
      "duration": 0.1041,
      "velocity": 119,
      "chip": "ym2612"
    },
    {
      "channel": 5,
      "note": 54,
      "start": 31.9273,
      "duration": 0.1614,
      "velocity": 94,
      "chip": "ym2612"
    },
    {
      "channel": 0,
      "note": 59,
      "start": 32.0105,
      "duration": 0.4859,
      "velocity": 94,
      "chip": "ym2612"
    },
    {
      "channel": 1,
      "note": 52,
      "start": 32.0112,
      "duration": 0.1606,
      "velocity": 94,
      "chip": "ym2612"
    },
    {
      "channel": 2,
      "note": 75,
      "start": 32.0134,
      "duration": 0.155,
      "velocity": 120,
      "chip": "ym2612"
    },
    {
      "channel": 5,
      "note": 59,
      "start": 32.0893,
      "duration": 0.4871,
      "velocity": 94,
      "chip": "ym2612"
    },
    {
      "channel": 1,
      "note": 54,
      "start": 32.1725,
      "duration": 0.3248,
      "velocity": 94,
      "chip": "ym2612"
    },
    {
      "channel": 3,
      "note": 73,
      "start": 32.1733,
      "duration": 0.1611,
      "velocity": 104,
      "chip": "ym2612"
    },
    {
      "channel": 2,
      "note": 29,
      "start": 32.1763,
      "duration": 0.1025,
      "velocity": 119,
      "chip": "ym2612"
    },
    {
      "channel": 4,
      "note": 78,
      "start": 32.1972,
      "duration": 0.1624,
      "velocity": 104,
      "chip": "ym2612"
    },
    {
      "channel": 2,
      "note": 68,
      "start": 32.336,
      "duration": 0.1573,
      "velocity": 127,
      "chip": "ym2612"
    },
    {
      "channel": 0,
      "note": 52,
      "start": 32.4972,
      "duration": 0.1628,
      "velocity": 94,
      "chip": "ym2612"
    },
    {
      "channel": 1,
      "note": 52,
      "start": 32.4979,
      "duration": 0.163,
      "velocity": 94,
      "chip": "ym2612"
    },
    {
      "channel": 2,
      "note": 29,
      "start": 32.4996,
      "duration": 0.1038,
      "velocity": 119,
      "chip": "ym2612"
    },
    {
      "channel": 5,
      "note": 52,
      "start": 32.577,
      "duration": 0.1614,
      "velocity": 94,
      "chip": "ym2612"
    },
    {
      "channel": 0,
      "note": 53,
      "start": 32.6607,
      "duration": 0.1611,
      "velocity": 94,
      "chip": "ym2612"
    },
    {
      "channel": 1,
      "note": 53,
      "start": 32.6614,
      "duration": 0.1612,
      "velocity": 94,
      "chip": "ym2612"
    },
    {
      "channel": 2,
      "note": 75,
      "start": 32.6632,
      "duration": 0.1554,
      "velocity": 120,
      "chip": "ym2612"
    },
    {
      "channel": 5,
      "note": 53,
      "start": 32.739,
      "duration": 0.162,
      "velocity": 94,
      "chip": "ym2612"
    },
    {
      "channel": 0,
      "note": 54,
      "start": 32.8224,
      "duration": 0.1618,
      "velocity": 94,
      "chip": "ym2612"
    },
    {
      "channel": 1,
      "note": 54,
      "start": 32.8232,
      "duration": 0.1618,
      "velocity": 94,
      "chip": "ym2612"
    },
    {
      "channel": 2,
      "note": 29,
      "start": 32.8263,
      "duration": 0.102,
      "velocity": 119,
      "chip": "ym2612"
    },
    {
      "channel": 5,
      "note": 54,
      "start": 32.9015,
      "duration": 0.1621,
      "velocity": 94,
      "chip": "ym2612"
    },
    {
      "channel": 0,
      "note": 66,
      "start": 32.9849,
      "duration": 0.3251,
      "velocity": 94,
      "chip": "ym2612"
    },
    {
      "channel": 1,
      "note": 57,
      "start": 32.9857,
      "duration": 0.1609,
      "velocity": 94,
      "chip": "ym2612"
    },
    {
      "channel": 3,
      "note": 73,
      "start": 32.9865,
      "duration": 0.1607,
      "velocity": 104,
      "chip": "ym2612"
    },
    {
      "channel": 2,
      "note": 29,
      "start": 32.9878,
      "duration": 0.1047,
      "velocity": 119,
      "chip": "ym2612"
    },
    {
      "channel": 4,
      "note": 78,
      "start": 33.0103,
      "duration": 0.1616,
      "velocity": 104,
      "chip": "ym2612"
    },
    {
      "channel": 5,
      "note": 66,
      "start": 33.0642,
      "duration": 0.3245,
      "velocity": 94,
      "chip": "ym2612"
    },
    {
      "channel": 1,
      "note": 54,
      "start": 33.1471,
      "duration": 0.3249,
      "velocity": 94,
      "chip": "ym2612"
    },
    {
      "channel": 3,
      "note": 73,
      "start": 33.1478,
      "duration": 0.1634,
      "velocity": 104,
      "chip": "ym2612"
    },
    {
      "channel": 2,
      "note": 68,
      "start": 33.1494,
      "duration": 0.1565,
      "velocity": 127,
      "chip": "ym2612"
    },
    {
      "channel": 4,
      "note": 78,
      "start": 33.1724,
      "duration": 0.1618,
      "velocity": 104,
      "chip": "ym2612"
    },
    {
      "channel": 0,
      "note": 65,
      "start": 33.3107,
      "duration": 0.1606,
      "velocity": 94,
      "chip": "ym2612"
    },
    {
      "channel": 2,
      "note": 75,
      "start": 33.3128,
      "duration": 0.1556,
      "velocity": 120,
      "chip": "ym2612"
    },
    {
      "channel": 5,
      "note": 65,
      "start": 33.3893,
      "duration": 0.1618,
      "velocity": 94,
      "chip": "ym2612"
    },
    {
      "channel": 0,
      "note": 64,
      "start": 33.4719,
      "duration": 2.1148,
      "velocity": 97,
      "chip": "ym2612"
    },
    {
      "channel": 1,
      "note": 54,
      "start": 33.4725,
      "duration": 0.162,
      "velocity": 94,
      "chip": "ym2612"
    },
    {
      "channel": 3,
      "note": 72,
      "start": 33.4733,
      "duration": 0.162,
      "velocity": 104,
      "chip": "ym2612"
    },
    {
      "channel": 2,
      "note": 68,
      "start": 33.4764,
      "duration": 0.1546,
      "velocity": 127,
      "chip": "ym2612"
    },
    {
      "channel": 4,
      "note": 77,
      "start": 33.4973,
      "duration": 0.162,
      "velocity": 104,
      "chip": "ym2612"
    },
    {
      "channel": 5,
      "note": 64,
      "start": 33.5517,
      "duration": 2.1149,
      "velocity": 97,
      "chip": "ym2612"
    },
    {
      "channel": 1,
      "note": 59,
      "start": 33.6351,
      "duration": 0.1617,
      "velocity": 94,
      "chip": "ym2612"
    },
    {
      "channel": 2,
      "note": 29,
      "start": 33.637,
      "duration": 0.1051,
      "velocity": 119,
      "chip": "ym2612"
    },
    {
      "channel": 1,
      "note": 54,
      "start": 33.7973,
      "duration": 0.3248,
      "velocity": 94,
      "chip": "ym2612"
    },
    {
      "channel": 2,
      "note": 68,
      "start": 33.7987,
      "duration": 0.1572,
      "velocity": 127,
      "chip": "ym2612"
    },
    {
      "channel": 3,
      "note": 71,
      "start": 33.9616,
      "duration": 0.1611,
      "velocity": 104,
      "chip": "ym2612"
    },
    {
      "channel": 2,
      "note": 75,
      "start": 33.9628,
      "duration": 0.1556,
      "velocity": 120,
      "chip": "ym2612"
    },
    {
      "channel": 4,
      "note": 76,
      "start": 33.985,
      "duration": 0.1618,
      "velocity": 104,
      "chip": "ym2612"
    },
    {
      "channel": 1,
      "note": 54,
      "start": 34.1226,
      "duration": 0.1621,
      "velocity": 94,
      "chip": "ym2612"
    },
    {
      "channel": 2,
      "note": 29,
      "start": 34.1256,
      "duration": 0.1036,
      "velocity": 119,
      "chip": "ym2612"
    },
    {
      "channel": 1,
      "note": 60,
      "start": 34.2852,
      "duration": 0.1619,
      "velocity": 94,
      "chip": "ym2612"
    },
    {
      "channel": 3,
      "note": 73,
      "start": 34.2861,
      "duration": 0.1618,
      "velocity": 104,
      "chip": "ym2612"
    },
    {
      "channel": 2,
      "note": 29,
      "start": 34.2877,
      "duration": 0.1049,
      "velocity": 119,
      "chip": "ym2612"
    },
    {
      "channel": 4,
      "note": 78,
      "start": 34.3104,
      "duration": 0.1614,
      "velocity": 104,
      "chip": "ym2612"
    },
    {
      "channel": 1,
      "note": 52,
      "start": 34.4477,
      "duration": 0.163,
      "velocity": 94,
      "chip": "ym2612"
    },
    {
      "channel": 3,
      "note": 72,
      "start": 34.4486,
      "duration": 0.1629,
      "velocity": 104,
      "chip": "ym2612"
    },
    {
      "channel": 2,
      "note": 29,
      "start": 34.4501,
      "duration": 0.1037,
      "velocity": 119,
      "chip": "ym2612"
    },
    {
      "channel": 4,
      "note": 77,
      "start": 34.4725,
      "duration": 0.1619,
      "velocity": 104,
      "chip": "ym2612"
    },
    {
      "channel": 1,
      "note": 57,
      "start": 34.6113,
      "duration": 0.1609,
      "velocity": 94,
      "chip": "ym2612"
    },
    {
      "channel": 2,
      "note": 75,
      "start": 34.6131,
      "duration": 0.1555,
      "velocity": 120,
      "chip": "ym2612"
    },
    {
      "channel": 1,
      "note": 54,
      "start": 34.7728,
      "duration": 0.3244,
      "velocity": 94,
      "chip": "ym2612"
    },
    {
      "channel": 3,
      "note": 71,
      "start": 34.775,
      "duration": 0.16,
      "velocity": 104,
      "chip": "ym2612"
    },
    {
      "channel": 2,
      "note": 29,
      "start": 34.7766,
      "duration": 0.1023,
      "velocity": 119,
      "chip": "ym2612"
    },
    {
      "channel": 4,
      "note": 76,
      "start": 34.7976,
      "duration": 0.1622,
      "velocity": 104,
      "chip": "ym2612"
    },
    {
      "channel": 2,
      "note": 79,
      "start": 34.9367,
      "duration": 0.0756,
      "velocity": 120,
      "chip": "ym2612"
    },
    {
      "channel": 2,
      "note": 74,
      "start": 35.0178,
      "duration": 0.0758,
      "velocity": 120,
      "chip": "ym2612"
    },
    {
      "channel": 1,
      "note": 54,
      "start": 35.0977,
      "duration": 0.1631,
      "velocity": 94,
      "chip": "ym2612"
    },
    {
      "channel": 2,
      "note": 29,
      "start": 35.0998,
      "duration": 0.1043,
      "velocity": 119,
      "chip": "ym2612"
    },
    {
      "channel": 1,
      "note": 53,
      "start": 35.2614,
      "duration": 0.1605,
      "velocity": 94,
      "chip": "ym2612"
    },
    {
      "channel": 2,
      "note": 75,
      "start": 35.2635,
      "duration": 0.1551,
      "velocity": 120,
      "chip": "ym2612"
    },
    {
      "channel": 1,
      "note": 52,
      "start": 35.4224,
      "duration": 0.1676,
      "velocity": 94,
      "chip": "ym2612"
    },
    {
      "channel": 2,
      "note": 68,
      "start": 35.4259,
      "duration": 0.1552,
      "velocity": 127,
      "chip": "ym2612"
    },
    {
      "channel": 0,
      "note": 62,
      "start": 35.5874,
      "duration": 0.3229,
      "velocity": 97,
      "chip": "ym2612"
    },
    {
      "channel": 1,
      "note": 50,
      "start": 35.592,
      "duration": 0.319,
      "velocity": 94,
      "chip": "ym2612"
    },
    {
      "channel": 3,
      "note": 78,
      "start": 35.5959,
      "duration": 0.3157,
      "velocity": 97,
      "chip": "ym2612"
    },
    {
      "channel": 2,
      "note": 75,
      "start": 35.5976,
      "duration": 0.1461,
      "velocity": 120,
      "chip": "ym2612"
    },
    {
      "channel": 4,
      "note": 81,
      "start": 35.6134,
      "duration": 0.321,
      "velocity": 97,
      "chip": "ym2612"
    },
    {
      "channel": 5,
      "note": 62,
      "start": 35.6673,
      "duration": 0.3219,
      "velocity": 97,
      "chip": "ym2612"
    },
    {
      "channel": 2,
      "note": 68,
      "start": 35.7489,
      "duration": 0.1573,
      "velocity": 127,
      "chip": "ym2612"
    },
    {
      "channel": 0,
      "note": 62,
      "start": 35.9109,
      "duration": 0.1606,
      "velocity": 97,
      "chip": "ym2612"
    },
    {
      "channel": 1,
      "note": 50,
      "start": 35.9114,
      "duration": 0.1607,
      "velocity": 94,
      "chip": "ym2612"
    },
    {
      "channel": 3,
      "note": 78,
      "start": 35.9121,
      "duration": 0.1607,
      "velocity": 97,
      "chip": "ym2612"
    },
    {
      "channel": 2,
      "note": 75,
      "start": 35.9138,
      "duration": 0.1549,
      "velocity": 120,
      "chip": "ym2612"
    },
    {
      "channel": 4,
      "note": 81,
      "start": 35.9349,
      "duration": 0.162,
      "velocity": 97,
      "chip": "ym2612"
    },
    {
      "channel": 5,
      "note": 62,
      "start": 35.9896,
      "duration": 0.1618,
      "velocity": 97,
      "chip": "ym2612"
    },
    {
      "channel": 0,
      "note": 62,
      "start": 36.072,
      "duration": 0.162,
      "velocity": 97,
      "chip": "ym2612"
    },
    {
      "channel": 1,
      "note": 50,
      "start": 36.0726,
      "duration": 0.4886,
      "velocity": 94,
      "chip": "ym2612"
    },
    {
      "channel": 3,
      "note": 78,
      "start": 36.0733,
      "duration": 0.1614,
      "velocity": 97,
      "chip": "ym2612"
    },
    {
      "channel": 2,
      "note": 75,
      "start": 36.0761,
      "duration": 0.155,
      "velocity": 120,
      "chip": "ym2612"
    },
    {
      "channel": 4,
      "note": 81,
      "start": 36.0974,
      "duration": 0.1616,
      "velocity": 97,
      "chip": "ym2612"
    },
    {
      "channel": 5,
      "note": 62,
      "start": 36.1519,
      "duration": 0.1612,
      "velocity": 97,
      "chip": "ym2612"
    },
    {
      "channel": 2,
      "note": 68,
      "start": 36.2364,
      "duration": 0.1573,
      "velocity": 127,
      "chip": "ym2612"
    },
    {
      "channel": 2,
      "note": 68,
      "start": 36.3978,
      "duration": 0.1584,
      "velocity": 127,
      "chip": "ym2612"
    },
    {
      "channel": 0,
      "note": 64,
      "start": 36.561,
      "duration": 1.6231,
      "velocity": 97,
      "chip": "ym2612"
    },
    {
      "channel": 1,
      "note": 52,
      "start": 36.5617,
      "duration": 1.6232,
      "velocity": 94,
      "chip": "ym2612"
    },
    {
      "channel": 3,
      "note": 80,
      "start": 36.5626,
      "duration": 1.6232,
      "velocity": 97,
      "chip": "ym2612"
    },
    {
      "channel": 2,
      "note": 75,
      "start": 36.5637,
      "duration": 0.1551,
      "velocity": 120,
      "chip": "ym2612"
    },
    {
      "channel": 4,
      "note": 83,
      "start": 36.5851,
      "duration": 1.6245,
      "velocity": 97,
      "chip": "ym2612"
    },
    {
      "channel": 5,
      "note": 64,
      "start": 36.6395,
      "duration": 1.6246,
      "velocity": 97,
      "chip": "ym2612"
    },
    {
      "channel": 2,
      "note": 68,
      "start": 36.7254,
      "duration": 0.1559,
      "velocity": 127,
      "chip": "ym2612"
    },
    {
      "channel": 2,
      "note": 29,
      "start": 36.8872,
      "duration": 0.1059,
      "velocity": 119,
      "chip": "ym2612"
    },
    {
      "channel": 2,
      "note": 68,
      "start": 37.0497,
      "duration": 0.1566,
      "velocity": 127,
      "chip": "ym2612"
    },
    {
      "channel": 2,
      "note": 29,
      "start": 37.2137,
      "duration": 0.1031,
      "velocity": 119,
      "chip": "ym2612"
    },
    {
      "channel": 2,
      "note": 68,
      "start": 37.3758,
      "duration": 0.1555,
      "velocity": 127,
      "chip": "ym2612"
    },
    {
      "channel": 2,
      "note": 29,
      "start": 37.5373,
      "duration": 0.1059,
      "velocity": 119,
      "chip": "ym2612"
    },
    {
      "channel": 2,
      "note": 74,
      "start": 37.6995,
      "duration": 0.0757,
      "velocity": 120,
      "chip": "ym2612"
    },
    {
      "channel": 2,
      "note": 69,
      "start": 37.7808,
      "duration": 0.0756,
      "velocity": 120,
      "chip": "ym2612"
    },
    {
      "channel": 2,
      "note": 75,
      "start": 37.8633,
      "duration": 0.1555,
      "velocity": 120,
      "chip": "ym2612"
    },
    {
      "channel": 2,
      "note": 68,
      "start": 38.0257,
      "duration": 0.1556,
      "velocity": 127,
      "chip": "ym2612"
    },
    {
      "channel": 0,
      "note": 69,
      "start": 38.1848,
      "duration": 0.3257,
      "velocity": 97,
      "chip": "ym2612"
    },
    {
      "channel": 1,
      "note": 57,
      "start": 38.1855,
      "duration": 0.3256,
      "velocity": 94,
      "chip": "ym2612"
    },
    {
      "channel": 3,
      "note": 85,
      "start": 38.1864,
      "duration": 0.3254,
      "velocity": 97,
      "chip": "ym2612"
    },
    {
      "channel": 2,
      "note": 75,
      "start": 38.1881,
      "duration": 0.1558,
      "velocity": 120,
      "chip": "ym2612"
    },
    {
      "channel": 4,
      "note": 76,
      "start": 38.2103,
      "duration": 0.3243,
      "velocity": 97,
      "chip": "ym2612"
    },
    {
      "channel": 5,
      "note": 69,
      "start": 38.2647,
      "duration": 0.3244,
      "velocity": 97,
      "chip": "ym2612"
    },
    {
      "channel": 2,
      "note": 68,
      "start": 38.3491,
      "duration": 0.1573,
      "velocity": 127,
      "chip": "ym2612"
    },
    {
      "channel": 0,
      "note": 69,
      "start": 38.511,
      "duration": 0.1606,
      "velocity": 97,
      "chip": "ym2612"
    },
    {
      "channel": 1,
      "note": 57,
      "start": 38.5116,
      "duration": 0.1607,
      "velocity": 94,
      "chip": "ym2612"
    },
    {
      "channel": 3,
      "note": 85,
      "start": 38.5123,
      "duration": 0.1606,
      "velocity": 97,
      "chip": "ym2612"
    },
    {
      "channel": 2,
      "note": 75,
      "start": 38.514,
      "duration": 0.1549,
      "velocity": 120,
      "chip": "ym2612"
    },
    {
      "channel": 4,
      "note": 76,
      "start": 38.5351,
      "duration": 0.162,
      "velocity": 97,
      "chip": "ym2612"
    },
    {
      "channel": 5,
      "note": 69,
      "start": 38.5896,
      "duration": 0.162,
      "velocity": 97,
      "chip": "ym2612"
    },
    {
      "channel": 0,
      "note": 69,
      "start": 38.6722,
      "duration": 0.162,
      "velocity": 97,
      "chip": "ym2612"
    },
    {
      "channel": 1,
      "note": 57,
      "start": 38.6728,
      "duration": 0.4889,
      "velocity": 94,
      "chip": "ym2612"
    },
    {
      "channel": 3,
      "note": 85,
      "start": 38.6748,
      "duration": 0.1601,
      "velocity": 97,
      "chip": "ym2612"
    },
    {
      "channel": 2,
      "note": 75,
      "start": 38.6764,
      "duration": 0.155,
      "velocity": 120,
      "chip": "ym2612"
    },
    {
      "channel": 4,
      "note": 76,
      "start": 38.6977,
      "duration": 0.1614,
      "velocity": 97,
      "chip": "ym2612"
    },
    {
      "channel": 5,
      "note": 69,
      "start": 38.7521,
      "duration": 0.1612,
      "velocity": 97,
      "chip": "ym2612"
    },
    {
      "channel": 2,
      "note": 68,
      "start": 38.8366,
      "duration": 0.1573,
      "velocity": 127,
      "chip": "ym2612"
    },
    {
      "channel": 2,
      "note": 68,
      "start": 38.9981,
      "duration": 0.16,
      "velocity": 127,
      "chip": "ym2612"
    },
    {
      "channel": 0,
      "note": 67,
      "start": 39.1616,
      "duration": 1.1353,
      "velocity": 97,
      "chip": "ym2612"
    },
    {
      "channel": 1,
      "note": 55,
      "start": 39.1623,
      "duration": 1.1354,
      "velocity": 94,
      "chip": "ym2612"
    },
    {
      "channel": 3,
      "note": 83,
      "start": 39.1632,
      "duration": 1.1353,
      "velocity": 97,
      "chip": "ym2612"
    },
    {
      "channel": 2,
      "note": 75,
      "start": 39.1642,
      "duration": 0.1547,
      "velocity": 120,
      "chip": "ym2612"
    },
    {
      "channel": 4,
      "note": 83,
      "start": 39.1854,
      "duration": 1.1369,
      "velocity": 97,
      "chip": "ym2612"
    },
    {
      "channel": 5,
      "note": 67,
      "start": 39.2399,
      "duration": 1.1369,
      "velocity": 97,
      "chip": "ym2612"
    },
    {
      "channel": 2,
      "note": 68,
      "start": 39.3256,
      "duration": 0.1559,
      "velocity": 127,
      "chip": "ym2612"
    },
    {
      "channel": 2,
      "note": 29,
      "start": 39.4874,
      "duration": 0.1059,
      "velocity": 119,
      "chip": "ym2612"
    },
    {
      "channel": 2,
      "note": 68,
      "start": 39.6497,
      "duration": 0.1569,
      "velocity": 127,
      "chip": "ym2612"
    },
    {
      "channel": 2,
      "note": 29,
      "start": 39.8139,
      "duration": 0.1032,
      "velocity": 119,
      "chip": "ym2612"
    },
    {
      "channel": 2,
      "note": 68,
      "start": 39.976,
      "duration": 0.1556,
      "velocity": 127,
      "chip": "ym2612"
    },
    {
      "channel": 2,
      "note": 29,
      "start": 40.1376,
      "duration": 0.1059,
      "velocity": 119,
      "chip": "ym2612"
    },
    {
      "channel": 0,
      "note": 66,
      "start": 40.2976,
      "duration": 0.4868,
      "velocity": 97,
      "chip": "ym2612"
    },
    {
      "channel": 1,
      "note": 54,
      "start": 40.2983,
      "duration": 0.4864,
      "velocity": 94,
      "chip": "ym2612"
    },
    {
      "channel": 3,
      "note": 83,
      "start": 40.299,
      "duration": 0.4861,
      "velocity": 97,
      "chip": "ym2612"
    },
    {
      "channel": 2,
      "note": 75,
      "start": 40.3007,
      "duration": 0.1559,
      "velocity": 120,
      "chip": "ym2612"
    },
    {
      "channel": 4,
      "note": 74,
      "start": 40.323,
      "duration": 0.4862,
      "velocity": 97,
      "chip": "ym2612"
    },
    {
      "channel": 5,
      "note": 66,
      "start": 40.3774,
      "duration": 0.4858,
      "velocity": 97,
      "chip": "ym2612"
    },
    {
      "channel": 2,
      "note": 75,
      "start": 40.4632,
      "duration": 0.1559,
      "velocity": 120,
      "chip": "ym2612"
    },
    {
      "channel": 2,
      "note": 75,
      "start": 40.626,
      "duration": 0.1556,
      "velocity": 120,
      "chip": "ym2612"
    },
    {
      "channel": 2,
      "note": 68,
      "start": 40.7869,
      "duration": 0.1572,
      "velocity": 127,
      "chip": "ym2612"
    },
    {
      "channel": 0,
      "note": 64,
      "start": 40.9476,
      "duration": 0.4869,
      "velocity": 97,
      "chip": "ym2612"
    },
    {
      "channel": 1,
      "note": 52,
      "start": 40.9483,
      "duration": 0.487,
      "velocity": 94,
      "chip": "ym2612"
    },
    {
      "channel": 3,
      "note": 79,
      "start": 40.9491,
      "duration": 0.487,
      "velocity": 97,
      "chip": "ym2612"
    },
    {
      "channel": 2,
      "note": 75,
      "start": 40.9502,
      "duration": 0.1578,
      "velocity": 120,
      "chip": "ym2612"
    },
    {
      "channel": 4,
      "note": 83,
      "start": 40.973,
      "duration": 0.4869,
      "velocity": 97,
      "chip": "ym2612"
    },
    {
      "channel": 5,
      "note": 64,
      "start": 41.0275,
      "duration": 0.487,
      "velocity": 97,
      "chip": "ym2612"
    },
    {
      "channel": 2,
      "note": 68,
      "start": 41.1133,
      "duration": 0.1561,
      "velocity": 127,
      "chip": "ym2612"
    },
    {
      "channel": 2,
      "note": 68,
      "start": 41.2764,
      "duration": 0.1554,
      "velocity": 127,
      "chip": "ym2612"
    },
    {
      "channel": 0,
      "note": 69,
      "start": 41.4352,
      "duration": 1.4646,
      "velocity": 97,
      "chip": "ym2612"
    },
    {
      "channel": 1,
      "note": 57,
      "start": 41.436,
      "duration": 1.4647,
      "velocity": 94,
      "chip": "ym2612"
    },
    {
      "channel": 3,
      "note": 85,
      "start": 41.4368,
      "duration": 1.4652,
      "velocity": 97,
      "chip": "ym2612"
    },
    {
      "channel": 2,
      "note": 75,
      "start": 41.4385,
      "duration": 0.1557,
      "velocity": 120,
      "chip": "ym2612"
    },
    {
      "channel": 4,
      "note": 76,
      "start": 41.4606,
      "duration": 1.4625,
      "velocity": 97,
      "chip": "ym2612"
    },
    {
      "channel": 5,
      "note": 69,
      "start": 41.515,
      "duration": 1.4649,
      "velocity": 100,
      "chip": "ym2612"
    },
    {
      "channel": 2,
      "note": 68,
      "start": 41.5995,
      "duration": 0.1586,
      "velocity": 127,
      "chip": "ym2612"
    },
    {
      "channel": 2,
      "note": 68,
      "start": 41.7637,
      "duration": 0.1556,
      "velocity": 127,
      "chip": "ym2612"
    },
    {
      "channel": 2,
      "note": 68,
      "start": 41.9263,
      "duration": 0.1555,
      "velocity": 127,
      "chip": "ym2612"
    },
    {
      "channel": 2,
      "note": 68,
      "start": 42.0874,
      "duration": 0.1569,
      "velocity": 127,
      "chip": "ym2612"
    },
    {
      "channel": 2,
      "note": 75,
      "start": 42.2499,
      "duration": 0.1582,
      "velocity": 120,
      "chip": "ym2612"
    },
    {
      "channel": 2,
      "note": 75,
      "start": 42.4137,
      "duration": 0.1556,
      "velocity": 120,
      "chip": "ym2612"
    },
    {
      "channel": 2,
      "note": 75,
      "start": 42.5763,
      "duration": 0.1556,
      "velocity": 120,
      "chip": "ym2612"
    },
    {
      "channel": 2,
      "note": 75,
      "start": 42.7374,
      "duration": 0.1569,
      "velocity": 120,
      "chip": "ym2612"
    },
    {
      "channel": 0,
      "note": 52,
      "start": 42.9004,
      "duration": 0.1605,
      "velocity": 97,
      "chip": "ym2612"
    },
    {
      "channel": 1,
      "note": 52,
      "start": 42.9012,
      "duration": 0.1606,
      "velocity": 94,
      "chip": "ym2612"
    },
    {
      "channel": 3,
      "note": 71,
      "start": 42.9027,
      "duration": 0.1598,
      "velocity": 97,
      "chip": "ym2612"
    },
    {
      "channel": 2,
      "note": 79,
      "start": 42.9045,
      "duration": 0.1274,
      "velocity": 120,
      "chip": "ym2612"
    },
    {
      "channel": 4,
      "note": 71,
      "start": 42.9252,
      "duration": 0.1598,
      "velocity": 97,
      "chip": "ym2612"
    },
    {
      "channel": 5,
      "note": 52,
      "start": 42.9805,
      "duration": 0.1591,
      "velocity": 100,
      "chip": "ym2612"
    },
    {
      "channel": 0,
      "note": 53,
      "start": 43.0616,
      "duration": 0.1606,
      "velocity": 97,
      "chip": "ym2612"
    },
    {
      "channel": 1,
      "note": 53,
      "start": 43.0624,
      "duration": 0.1606,
      "velocity": 94,
      "chip": "ym2612"
    },
    {
      "channel": 3,
      "note": 72,
      "start": 43.0632,
      "duration": 0.1619,
      "velocity": 97,
      "chip": "ym2612"
    },
    {
      "channel": 2,
      "note": 74,
      "start": 43.0648,
      "duration": 0.1293,
      "velocity": 120,
      "chip": "ym2612"
    },
    {
      "channel": 4,
      "note": 72,
      "start": 43.0857,
      "duration": 0.1618,
      "velocity": 97,
      "chip": "ym2612"
    },
    {
      "channel": 5,
      "note": 53,
      "start": 43.1415,
      "duration": 0.1607,
      "velocity": 100,
      "chip": "ym2612"
    },
    {
      "channel": 0,
      "note": 54,
      "start": 43.2228,
      "duration": 0.1626,
      "velocity": 97,
      "chip": "ym2612"
    },
    {
      "channel": 1,
      "note": 54,
      "start": 43.2249,
      "duration": 0.1613,
      "velocity": 94,
      "chip": "ym2612"
    },
    {
      "channel": 3,
      "note": 73,
      "start": 43.2257,
      "duration": 0.1613,
      "velocity": 97,
      "chip": "ym2612"
    },
    {
      "channel": 2,
      "note": 69,
      "start": 43.2275,
      "duration": 0.1292,
      "velocity": 120,
      "chip": "ym2612"
    },
    {
      "channel": 4,
      "note": 73,
      "start": 43.2483,
      "duration": 0.1618,
      "velocity": 97,
      "chip": "ym2612"
    },
    {
      "channel": 5,
      "note": 54,
      "start": 43.3027,
      "duration": 0.1619,
      "velocity": 100,
      "chip": "ym2612"
    },
    {
      "channel": 0,
      "note": 57,
      "start": 43.3861,
      "duration": 0.161,
      "velocity": 97,
      "chip": "ym2612"
    },
    {
      "channel": 1,
      "note": 57,
      "start": 43.3869,
      "duration": 0.1611,
      "velocity": 94,
      "chip": "ym2612"
    },
    {
      "channel": 3,
      "note": 76,
      "start": 43.3877,
      "duration": 0.161,
      "velocity": 97,
      "chip": "ym2612"
    },
    {
      "channel": 2,
      "note": 29,
      "start": 43.3892,
      "duration": 0.1043,
      "velocity": 119,
      "chip": "ym2612"
    },
    {
      "channel": 4,
      "note": 76,
      "start": 43.4108,
      "duration": 0.1618,
      "velocity": 97,
      "chip": "ym2612"
    },
    {
      "channel": 5,
      "note": 57,
      "start": 43.4652,
      "duration": 0.1619,
      "velocity": 100,
      "chip": "ym2612"
    },
    {
      "channel": 0,
      "note": 54,
      "start": 43.5478,
      "duration": 0.2404,
      "velocity": 97,
      "chip": "ym2612"
    },
    {
      "channel": 1,
      "note": 54,
      "start": 43.5485,
      "duration": 0.2404,
      "velocity": 94,
      "chip": "ym2612"
    },
    {
      "channel": 3,
      "note": 73,
      "start": 43.5493,
      "duration": 0.2401,
      "velocity": 97,
      "chip": "ym2612"
    },
    {
      "channel": 2,
      "note": 68,
      "start": 43.5509,
      "duration": 0.1574,
      "velocity": 127,
      "chip": "ym2612"
    },
    {
      "channel": 4,
      "note": 73,
      "start": 43.5733,
      "duration": 0.2431,
      "velocity": 97,
      "chip": "ym2612"
    },
    {
      "channel": 5,
      "note": 54,
      "start": 43.6278,
      "duration": 0.2473,
      "velocity": 100,
      "chip": "ym2612"
    },
    {
      "channel": 2,
      "note": 75,
      "start": 43.7137,
      "duration": 0.1558,
      "velocity": 120,
      "chip": "ym2612"
    },
    {
      "channel": 0,
      "note": 54,
      "start": 43.7887,
      "duration": 0.162,
      "velocity": 97,
      "chip": "ym2612"
    },
    {
      "channel": 1,
      "note": 54,
      "start": 43.7893,
      "duration": 0.162,
      "velocity": 94,
      "chip": "ym2612"
    },
    {
      "channel": 3,
      "note": 73,
      "start": 43.7913,
      "duration": 0.1606,
      "velocity": 97,
      "chip": "ym2612"
    },
    {
      "channel": 4,
      "note": 73,
      "start": 43.8169,
      "duration": 0.162,
      "velocity": 97,
      "chip": "ym2612"
    },
    {
      "channel": 5,
      "note": 54,
      "start": 43.8755,
      "duration": 0.1623,
      "velocity": 100,
      "chip": "ym2612"
    },
    {
      "channel": 2,
      "note": 68,
      "start": 43.8763,
      "duration": 0.1556,
      "velocity": 127,
      "chip": "ym2612"
    },
    {
      "channel": 0,
      "note": 54,
      "start": 43.9512,
      "duration": 0.0839,
      "velocity": 97,
      "chip": "ym2612"
    },
    {
      "channel": 1,
      "note": 54,
      "start": 43.9518,
      "duration": 0.0841,
      "velocity": 94,
      "chip": "ym2612"
    },
    {
      "channel": 3,
      "note": 73,
      "start": 43.9524,
      "duration": 0.0842,
      "velocity": 97,
      "chip": "ym2612"
    },
    {
      "channel": 4,
      "note": 73,
      "start": 43.9794,
      "duration": 0.0807,
      "velocity": 97,
      "chip": "ym2612"
    },
    {
      "channel": 0,
      "note": 59,
      "start": 44.0357,
      "duration": 0.1616,
      "velocity": 97,
      "chip": "ym2612"
    },
    {
      "channel": 1,
      "note": 59,
      "start": 44.0365,
      "duration": 0.1616,
      "velocity": 94,
      "chip": "ym2612"
    },
    {
      "channel": 3,
      "note": 78,
      "start": 44.0373,
      "duration": 0.1615,
      "velocity": 97,
      "chip": "ym2612"
    },
    {
      "channel": 5,
      "note": 54,
      "start": 44.0383,
      "duration": 0.0764,
      "velocity": 100,
      "chip": "ym2612"
    },
    {
      "channel": 2,
      "note": 29,
      "start": 44.0391,
      "duration": 0.1044,
      "velocity": 119,
      "chip": "ym2612"
    },
    {
      "channel": 4,
      "note": 78,
      "start": 44.0609,
      "duration": 0.1618,
      "velocity": 97,
      "chip": "ym2612"
    },
    {
      "channel": 5,
      "note": 59,
      "start": 44.1153,
      "duration": 0.1618,
      "velocity": 100,
      "chip": "ym2612"
    },
    {
      "channel": 0,
      "note": 54,
      "start": 44.1979,
      "duration": 0.2407,
      "velocity": 97,
      "chip": "ym2612"
    },
    {
      "channel": 1,
      "note": 54,
      "start": 44.1986,
      "duration": 0.2406,
      "velocity": 94,
      "chip": "ym2612"
    },
    {
      "channel": 3,
      "note": 73,
      "start": 44.1995,
      "duration": 0.2403,
      "velocity": 97,
      "chip": "ym2612"
    },
    {
      "channel": 2,
      "note": 68,
      "start": 44.2011,
      "duration": 0.1572,
      "velocity": 127,
      "chip": "ym2612"
    },
    {
      "channel": 4,
      "note": 73,
      "start": 44.2233,
      "duration": 0.2431,
      "velocity": 97,
      "chip": "ym2612"
    },
    {
      "channel": 5,
      "note": 54,
      "start": 44.2777,
      "duration": 0.2476,
      "velocity": 100,
      "chip": "ym2612"
    },
    {
      "channel": 2,
      "note": 75,
      "start": 44.3636,
      "duration": 0.1559,
      "velocity": 120,
      "chip": "ym2612"
    },
    {
      "channel": 0,
      "note": 54,
      "start": 44.4391,
      "duration": 0.1617,
      "velocity": 97,
      "chip": "ym2612"
    },
    {
      "channel": 1,
      "note": 54,
      "start": 44.4397,
      "duration": 0.1618,
      "velocity": 94,
      "chip": "ym2612"
    },
    {
      "channel": 3,
      "note": 73,
      "start": 44.4417,
      "duration": 0.1603,
      "velocity": 97,
      "chip": "ym2612"
    },
    {
      "channel": 4,
      "note": 73,
      "start": 44.467,
      "duration": 0.162,
      "velocity": 97,
      "chip": "ym2612"
    },
    {
      "channel": 5,
      "note": 54,
      "start": 44.5258,
      "duration": 0.1622,
      "velocity": 100,
      "chip": "ym2612"
    },
    {
      "channel": 2,
      "note": 29,
      "start": 44.5266,
      "duration": 0.1034,
      "velocity": 119,
      "chip": "ym2612"
    },
    {
      "channel": 0,
      "note": 54,
      "start": 44.6013,
      "duration": 0.0838,
      "velocity": 97,
      "chip": "ym2612"
    },
    {
      "channel": 1,
      "note": 54,
      "start": 44.6019,
      "duration": 0.0841,
      "velocity": 94,
      "chip": "ym2612"
    },
    {
      "channel": 3,
      "note": 73,
      "start": 44.6025,
      "duration": 0.0842,
      "velocity": 97,
      "chip": "ym2612"
    },
    {
      "channel": 4,
      "note": 73,
      "start": 44.6295,
      "duration": 0.0807,
      "velocity": 97,
      "chip": "ym2612"
    },
    {
      "channel": 0,
      "note": 57,
      "start": 44.6859,
      "duration": 0.1619,
      "velocity": 97,
      "chip": "ym2612"
    },
    {
      "channel": 1,
      "note": 57,
      "start": 44.6866,
      "duration": 0.1619,
      "velocity": 94,
      "chip": "ym2612"
    },
    {
      "channel": 3,
      "note": 76,
      "start": 44.6874,
      "duration": 0.1618,
      "velocity": 97,
      "chip": "ym2612"
    },
    {
      "channel": 5,
      "note": 54,
      "start": 44.6884,
      "duration": 0.0763,
      "velocity": 100,
      "chip": "ym2612"
    },
    {
      "channel": 2,
      "note": 29,
      "start": 44.6892,
      "duration": 0.1046,
      "velocity": 119,
      "chip": "ym2612"
    },
    {
      "channel": 4,
      "note": 76,
      "start": 44.7109,
      "duration": 0.1618,
      "velocity": 97,
      "chip": "ym2612"
    },
    {
      "channel": 5,
      "note": 57,
      "start": 44.7653,
      "duration": 0.162,
      "velocity": 100,
      "chip": "ym2612"
    },
    {
      "channel": 0,
      "note": 54,
      "start": 44.8484,
      "duration": 0.1628,
      "velocity": 97,
      "chip": "ym2612"
    },
    {
      "channel": 1,
      "note": 54,
      "start": 44.8491,
      "duration": 0.163,
      "velocity": 94,
      "chip": "ym2612"
    },
    {
      "channel": 3,
      "note": 73,
      "start": 44.8499,
      "duration": 0.1629,
      "velocity": 97,
      "chip": "ym2612"
    },
    {
      "channel": 2,
      "note": 29,
      "start": 44.8515,
      "duration": 0.1032,
      "velocity": 119,
      "chip": "ym2612"
    },
    {
      "channel": 4,
      "note": 73,
      "start": 44.8747,
      "duration": 0.1605,
      "velocity": 97,
      "chip": "ym2612"
    },
    {
      "channel": 5,
      "note": 54,
      "start": 44.9278,
      "duration": 0.1619,
      "velocity": 100,
      "chip": "ym2612"
    },
    {
      "channel": 0,
      "note": 59,
      "start": 45.0119,
      "duration": 0.1608,
      "velocity": 97,
      "chip": "ym2612"
    },
    {
      "channel": 1,
      "note": 59,
      "start": 45.0126,
      "duration": 0.1623,
      "velocity": 94,
      "chip": "ym2612"
    },
    {
      "channel": 3,
      "note": 78,
      "start": 45.0135,
      "duration": 0.1621,
      "velocity": 97,
      "chip": "ym2612"
    },
    {
      "channel": 2,
      "note": 75,
      "start": 45.0151,
      "duration": 0.1545,
      "velocity": 120,
      "chip": "ym2612"
    },
    {
      "channel": 4,
      "note": 78,
      "start": 45.0359,
      "duration": 0.1619,
      "velocity": 97,
      "chip": "ym2612"
    },
    {
      "channel": 5,
      "note": 59,
      "start": 45.0917,
      "duration": 0.1605,
      "velocity": 100,
      "chip": "ym2612"
    },
    {
      "channel": 0,
      "note": 54,
      "start": 45.1747,
      "duration": 0.3233,
      "velocity": 97,
      "chip": "ym2612"
    },
    {
      "channel": 1,
      "note": 54,
      "start": 45.1755,
      "duration": 0.3233,
      "velocity": 94,
      "chip": "ym2612"
    },
    {
      "channel": 3,
      "note": 73,
      "start": 45.1763,
      "duration": 0.3232,
      "velocity": 97,
      "chip": "ym2612"
    },
    {
      "channel": 2,
      "note": 29,
      "start": 45.1778,
      "duration": 0.102,
      "velocity": 119,
      "chip": "ym2612"
    },
    {
      "channel": 4,
      "note": 73,
      "start": 45.1985,
      "duration": 0.3244,
      "velocity": 97,
      "chip": "ym2612"
    },
    {
      "channel": 5,
      "note": 54,
      "start": 45.2528,
      "duration": 0.3245,
      "velocity": 100,
      "chip": "ym2612"
    },
    {
      "channel": 2,
      "note": 68,
      "start": 45.3373,
      "duration": 0.1575,
      "velocity": 127,
      "chip": "ym2612"
    },
    {
      "channel": 0,
      "note": 52,
      "start": 45.4987,
      "duration": 0.1626,
      "velocity": 97,
      "chip": "ym2612"
    },
    {
      "channel": 1,
      "note": 52,
      "start": 45.4994,
      "duration": 0.1627,
      "velocity": 94,
      "chip": "ym2612"
    },
    {
      "channel": 3,
      "note": 71,
      "start": 45.5002,
      "duration": 0.1626,
      "velocity": 97,
      "chip": "ym2612"
    },
    {
      "channel": 2,
      "note": 29,
      "start": 45.5019,
      "duration": 0.103,
      "velocity": 119,
      "chip": "ym2612"
    },
    {
      "channel": 4,
      "note": 71,
      "start": 45.5249,
      "duration": 0.1604,
      "velocity": 97,
      "chip": "ym2612"
    },
    {
      "channel": 5,
      "note": 52,
      "start": 45.5779,
      "duration": 0.162,
      "velocity": 100,
      "chip": "ym2612"
    },
    {
      "channel": 0,
      "note": 53,
      "start": 45.662,
      "duration": 0.1608,
      "velocity": 97,
      "chip": "ym2612"
    },
    {
      "channel": 1,
      "note": 53,
      "start": 45.6627,
      "duration": 0.1623,
      "velocity": 94,
      "chip": "ym2612"
    },
    {
      "channel": 3,
      "note": 72,
      "start": 45.6635,
      "duration": 0.1622,
      "velocity": 97,
      "chip": "ym2612"
    },
    {
      "channel": 2,
      "note": 75,
      "start": 45.6651,
      "duration": 0.1544,
      "velocity": 120,
      "chip": "ym2612"
    },
    {
      "channel": 4,
      "note": 72,
      "start": 45.686,
      "duration": 0.1621,
      "velocity": 97,
      "chip": "ym2612"
    },
    {
      "channel": 5,
      "note": 53,
      "start": 45.7417,
      "duration": 0.1606,
      "velocity": 100,
      "chip": "ym2612"
    },
    {
      "channel": 0,
      "note": 54,
      "start": 45.8248,
      "duration": 0.1606,
      "velocity": 97,
      "chip": "ym2612"
    },
    {
      "channel": 1,
      "note": 54,
      "start": 45.8256,
      "duration": 0.1607,
      "velocity": 94,
      "chip": "ym2612"
    },
    {
      "channel": 3,
      "note": 73,
      "start": 45.8264,
      "duration": 0.1606,
      "velocity": 97,
      "chip": "ym2612"
    },
    {
      "channel": 2,
      "note": 29,
      "start": 45.8279,
      "duration": 0.102,
      "velocity": 119,
      "chip": "ym2612"
    },
    {
      "channel": 4,
      "note": 73,
      "start": 45.8488,
      "duration": 0.1616,
      "velocity": 97,
      "chip": "ym2612"
    },
    {
      "channel": 5,
      "note": 54,
      "start": 45.9029,
      "duration": 0.1619,
      "velocity": 100,
      "chip": "ym2612"
    },
    {
      "channel": 0,
      "note": 57,
      "start": 45.9861,
      "duration": 0.1613,
      "velocity": 97,
      "chip": "ym2612"
    },
    {
      "channel": 1,
      "note": 57,
      "start": 45.9868,
      "duration": 0.1614,
      "velocity": 94,
      "chip": "ym2612"
    },
    {
      "channel": 3,
      "note": 76,
      "start": 45.9876,
      "duration": 0.1613,
      "velocity": 97,
      "chip": "ym2612"
    },
    {
      "channel": 2,
      "note": 29,
      "start": 45.9892,
      "duration": 0.1044,
      "velocity": 119,
      "chip": "ym2612"
    },
    {
      "channel": 4,
      "note": 76,
      "start": 46.011,
      "duration": 0.1619,
      "velocity": 97,
      "chip": "ym2612"
    },
    {
      "channel": 5,
      "note": 57,
      "start": 46.0654,
      "duration": 0.1619,
      "velocity": 100,
      "chip": "ym2612"
    },
    {
      "channel": 0,
      "note": 54,
      "start": 46.1481,
      "duration": 0.2404,
      "velocity": 97,
      "chip": "ym2612"
    },
    {
      "channel": 1,
      "note": 54,
      "start": 46.1488,
      "duration": 0.2404,
      "velocity": 94,
      "chip": "ym2612"
    },
    {
      "channel": 3,
      "note": 73,
      "start": 46.1496,
      "duration": 0.2401,
      "velocity": 97,
      "chip": "ym2612"
    },
    {
      "channel": 2,
      "note": 68,
      "start": 46.1512,
      "duration": 0.1576,
      "velocity": 127,
      "chip": "ym2612"
    },
    {
      "channel": 4,
      "note": 73,
      "start": 46.1749,
      "duration": 0.2418,
      "velocity": 97,
      "chip": "ym2612"
    },
    {
      "channel": 5,
      "note": 54,
      "start": 46.2279,
      "duration": 0.2473,
      "velocity": 100,
      "chip": "ym2612"
    },
    {
      "channel": 2,
      "note": 75,
      "start": 46.3141,
      "duration": 0.1555,
      "velocity": 120,
      "chip": "ym2612"
    },
    {
      "channel": 0,
      "note": 54,
      "start": 46.389,
      "duration": 0.1623,
      "velocity": 97,
      "chip": "ym2612"
    },
    {
      "channel": 1,
      "note": 54,
      "start": 46.3896,
      "duration": 0.1623,
      "velocity": 94,
      "chip": "ym2612"
    },
    {
      "channel": 3,
      "note": 73,
      "start": 46.3916,
      "duration": 0.1609,
      "velocity": 97,
      "chip": "ym2612"
    },
    {
      "channel": 4,
      "note": 73,
      "start": 46.4171,
      "duration": 0.162,
      "velocity": 97,
      "chip": "ym2612"
    },
    {
      "channel": 5,
      "note": 54,
      "start": 46.4756,
      "duration": 0.1625,
      "velocity": 100,
      "chip": "ym2612"
    },
    {
      "channel": 2,
      "note": 68,
      "start": 46.4765,
      "duration": 0.1556,
      "velocity": 127,
      "chip": "ym2612"
    },
    {
      "channel": 0,
      "note": 54,
      "start": 46.5517,
      "duration": 0.0836,
      "velocity": 97,
      "chip": "ym2612"
    },
    {
      "channel": 1,
      "note": 54,
      "start": 46.5524,
      "duration": 0.0837,
      "velocity": 94,
      "chip": "ym2612"
    },
    {
      "channel": 3,
      "note": 73,
      "start": 46.553,
      "duration": 0.0838,
      "velocity": 97,
      "chip": "ym2612"
    },
    {
      "channel": 4,
      "note": 73,
      "start": 46.5796,
      "duration": 0.0807,
      "velocity": 97,
      "chip": "ym2612"
    },
    {
      "channel": 0,
      "note": 59,
      "start": 46.636,
      "duration": 0.1615,
      "velocity": 97,
      "chip": "ym2612"
    },
    {
      "channel": 1,
      "note": 59,
      "start": 46.6367,
      "duration": 0.1616,
      "velocity": 94,
      "chip": "ym2612"
    },
    {
      "channel": 3,
      "note": 78,
      "start": 46.6376,
      "duration": 0.1615,
      "velocity": 97,
      "chip": "ym2612"
    },
    {
      "channel": 5,
      "note": 54,
      "start": 46.6385,
      "duration": 0.0764,
      "velocity": 100,
      "chip": "ym2612"
    },
    {
      "channel": 2,
      "note": 29,
      "start": 46.6393,
      "duration": 0.1043,
      "velocity": 119,
      "chip": "ym2612"
    },
    {
      "channel": 4,
      "note": 78,
      "start": 46.661,
      "duration": 0.1618,
      "velocity": 97,
      "chip": "ym2612"
    },
    {
      "channel": 5,
      "note": 59,
      "start": 46.7156,
      "duration": 0.1619,
      "velocity": 100,
      "chip": "ym2612"
    },
    {
      "channel": 0,
      "note": 54,
      "start": 46.7981,
      "duration": 0.2404,
      "velocity": 97,
      "chip": "ym2612"
    },
    {
      "channel": 1,
      "note": 54,
      "start": 46.7989,
      "duration": 0.2403,
      "velocity": 94,
      "chip": "ym2612"
    },
    {
      "channel": 3,
      "note": 73,
      "start": 46.7997,
      "duration": 0.2401,
      "velocity": 97,
      "chip": "ym2612"
    },
    {
      "channel": 2,
      "note": 68,
      "start": 46.8013,
      "duration": 0.1575,
      "velocity": 127,
      "chip": "ym2612"
    },
    {
      "channel": 4,
      "note": 73,
      "start": 46.8249,
      "duration": 0.2418,
      "velocity": 97,
      "chip": "ym2612"
    },
    {
      "channel": 5,
      "note": 54,
      "start": 46.878,
      "duration": 0.2476,
      "velocity": 100,
      "chip": "ym2612"
    },
    {
      "channel": 2,
      "note": 75,
      "start": 46.9642,
      "duration": 0.1555,
      "velocity": 120,
      "chip": "ym2612"
    },
    {
      "channel": 0,
      "note": 54,
      "start": 47.039,
      "duration": 0.162,
      "velocity": 97,
      "chip": "ym2612"
    },
    {
      "channel": 1,
      "note": 54,
      "start": 47.0397,
      "duration": 0.162,
      "velocity": 94,
      "chip": "ym2612"
    },
    {
      "channel": 3,
      "note": 73,
      "start": 47.0417,
      "duration": 0.1606,
      "velocity": 97,
      "chip": "ym2612"
    },
    {
      "channel": 4,
      "note": 73,
      "start": 47.0672,
      "duration": 0.162,
      "velocity": 97,
      "chip": "ym2612"
    },
    {
      "channel": 5,
      "note": 54,
      "start": 47.1261,
      "duration": 0.162,
      "velocity": 100,
      "chip": "ym2612"
    },
    {
      "channel": 2,
      "note": 29,
      "start": 47.1269,
      "duration": 0.1034,
      "velocity": 119,
      "chip": "ym2612"
    },
    {
      "channel": 0,
      "note": 54,
      "start": 47.2016,
      "duration": 0.0839,
      "velocity": 97,
      "chip": "ym2612"
    },
    {
      "channel": 1,
      "note": 54,
      "start": 47.2021,
      "duration": 0.0841,
      "velocity": 94,
      "chip": "ym2612"
    },
    {
      "channel": 3,
      "note": 73,
      "start": 47.2028,
      "duration": 0.0842,
      "velocity": 97,
      "chip": "ym2612"
    },
    {
      "channel": 4,
      "note": 73,
      "start": 47.2298,
      "duration": 0.0807,
      "velocity": 97,
      "chip": "ym2612"
    },
    {
      "channel": 0,
      "note": 59,
      "start": 47.2861,
      "duration": 0.1618,
      "velocity": 97,
      "chip": "ym2612"
    },
    {
      "channel": 1,
      "note": 59,
      "start": 47.2868,
      "duration": 0.162,
      "velocity": 94,
      "chip": "ym2612"
    },
    {
      "channel": 3,
      "note": 78,
      "start": 47.2876,
      "duration": 0.1619,
      "velocity": 97,
      "chip": "ym2612"
    },
    {
      "channel": 5,
      "note": 54,
      "start": 47.2886,
      "duration": 0.0763,
      "velocity": 100,
      "chip": "ym2612"
    },
    {
      "channel": 2,
      "note": 29,
      "start": 47.2894,
      "duration": 0.1043,
      "velocity": 119,
      "chip": "ym2612"
    },
    {
      "channel": 4,
      "note": 78,
      "start": 47.3111,
      "duration": 0.1618,
      "velocity": 97,
      "chip": "ym2612"
    },
    {
      "channel": 5,
      "note": 59,
      "start": 47.3656,
      "duration": 0.1619,
      "velocity": 100,
      "chip": "ym2612"
    },
    {
      "channel": 0,
      "note": 60,
      "start": 47.4486,
      "duration": 0.163,
      "velocity": 97,
      "chip": "ym2612"
    },
    {
      "channel": 1,
      "note": 60,
      "start": 47.4493,
      "duration": 0.1631,
      "velocity": 94,
      "chip": "ym2612"
    },
    {
      "channel": 3,
      "note": 79,
      "start": 47.4502,
      "duration": 0.163,
      "velocity": 97,
      "chip": "ym2612"
    },
    {
      "channel": 2,
      "note": 29,
      "start": 47.4517,
      "duration": 0.1033,
      "velocity": 119,
      "chip": "ym2612"
    },
    {
      "channel": 4,
      "note": 79,
      "start": 47.475,
      "duration": 0.1605,
      "velocity": 97,
      "chip": "ym2612"
    },
    {
      "channel": 5,
      "note": 60,
      "start": 47.5281,
      "duration": 0.1632,
      "velocity": 100,
      "chip": "ym2612"
    },
    {
      "channel": 0,
      "note": 59,
      "start": 47.6123,
      "duration": 0.1607,
      "velocity": 97,
      "chip": "ym2612"
    },
    {
      "channel": 1,
      "note": 59,
      "start": 47.613,
      "duration": 0.1622,
      "velocity": 94,
      "chip": "ym2612"
    },
    {
      "channel": 3,
      "note": 78,
      "start": 47.6139,
      "duration": 0.162,
      "velocity": 97,
      "chip": "ym2612"
    },
    {
      "channel": 2,
      "note": 75,
      "start": 47.6154,
      "duration": 0.1543,
      "velocity": 120,
      "chip": "ym2612"
    },
    {
      "channel": 4,
      "note": 78,
      "start": 47.6362,
      "duration": 0.1618,
      "velocity": 97,
      "chip": "ym2612"
    },
    {
      "channel": 5,
      "note": 59,
      "start": 47.6919,
      "duration": 0.1605,
      "velocity": 100,
      "chip": "ym2612"
    },
    {
      "channel": 0,
      "note": 54,
      "start": 47.775,
      "duration": 0.3229,
      "velocity": 97,
      "chip": "ym2612"
    },
    {
      "channel": 1,
      "note": 54,
      "start": 47.7757,
      "duration": 0.323,
      "velocity": 94,
      "chip": "ym2612"
    },
    {
      "channel": 3,
      "note": 73,
      "start": 47.7766,
      "duration": 0.3229,
      "velocity": 97,
      "chip": "ym2612"
    },
    {
      "channel": 2,
      "note": 29,
      "start": 47.7782,
      "duration": 0.1019,
      "velocity": 119,
      "chip": "ym2612"
    },
    {
      "channel": 4,
      "note": 73,
      "start": 47.7986,
      "duration": 0.3244,
      "velocity": 97,
      "chip": "ym2612"
    },
    {
      "channel": 5,
      "note": 54,
      "start": 47.8531,
      "duration": 0.3245,
      "velocity": 100,
      "chip": "ym2612"
    },
    {
      "channel": 2,
      "note": 68,
      "start": 47.9376,
      "duration": 0.1571,
      "velocity": 127,
      "chip": "ym2612"
    },
    {
      "channel": 0,
      "note": 52,
      "start": 48.0986,
      "duration": 0.1625,
      "velocity": 97,
      "chip": "ym2612"
    },
    {
      "channel": 1,
      "note": 52,
      "start": 48.0993,
      "duration": 0.1626,
      "velocity": 94,
      "chip": "ym2612"
    },
    {
      "channel": 3,
      "note": 71,
      "start": 48.1002,
      "duration": 0.1625,
      "velocity": 97,
      "chip": "ym2612"
    },
    {
      "channel": 2,
      "note": 29,
      "start": 48.1018,
      "duration": 0.1032,
      "velocity": 119,
      "chip": "ym2612"
    },
    {
      "channel": 4,
      "note": 71,
      "start": 48.125,
      "duration": 0.1606,
      "velocity": 97,
      "chip": "ym2612"
    },
    {
      "channel": 5,
      "note": 52,
      "start": 48.1782,
      "duration": 0.1633,
      "velocity": 100,
      "chip": "ym2612"
    },
    {
      "channel": 0,
      "note": 53,
      "start": 48.2618,
      "duration": 0.1612,
      "velocity": 97,
      "chip": "ym2612"
    },
    {
      "channel": 1,
      "note": 53,
      "start": 48.2625,
      "duration": 0.1627,
      "velocity": 94,
      "chip": "ym2612"
    },
    {
      "channel": 3,
      "note": 72,
      "start": 48.2633,
      "duration": 0.1626,
      "velocity": 97,
      "chip": "ym2612"
    },
    {
      "channel": 2,
      "note": 75,
      "start": 48.2649,
      "duration": 0.1549,
      "velocity": 120,
      "chip": "ym2612"
    },
    {
      "channel": 4,
      "note": 72,
      "start": 48.2862,
      "duration": 0.1618,
      "velocity": 97,
      "chip": "ym2612"
    },
    {
      "channel": 5,
      "note": 53,
      "start": 48.342,
      "duration": 0.1606,
      "velocity": 100,
      "chip": "ym2612"
    },
    {
      "channel": 0,
      "note": 54,
      "start": 48.425,
      "duration": 0.1607,
      "velocity": 97,
      "chip": "ym2612"
    },
    {
      "channel": 1,
      "note": 54,
      "start": 48.4258,
      "duration": 0.1609,
      "velocity": 94,
      "chip": "ym2612"
    },
    {
      "channel": 3,
      "note": 73,
      "start": 48.4266,
      "duration": 0.1609,
      "velocity": 97,
      "chip": "ym2612"
    },
    {
      "channel": 2,
      "note": 29,
      "start": 48.4282,
      "duration": 0.102,
      "velocity": 119,
      "chip": "ym2612"
    },
    {
      "channel": 4,
      "note": 73,
      "start": 48.4487,
      "duration": 0.162,
      "velocity": 97,
      "chip": "ym2612"
    },
    {
      "channel": 5,
      "note": 54,
      "start": 48.5032,
      "duration": 0.1623,
      "velocity": 100,
      "chip": "ym2612"
    },
    {
      "channel": 0,
      "note": 57,
      "start": 48.5864,
      "duration": 0.1613,
      "velocity": 97,
      "chip": "ym2612"
    },
    {
      "channel": 1,
      "note": 57,
      "start": 48.5873,
      "duration": 0.1612,
      "velocity": 94,
      "chip": "ym2612"
    },
    {
      "channel": 3,
      "note": 76,
      "start": 48.5882,
      "duration": 0.161,
      "velocity": 97,
      "chip": "ym2612"
    },
    {
      "channel": 2,
      "note": 29,
      "start": 48.5897,
      "duration": 0.104,
      "velocity": 119,
      "chip": "ym2612"
    },
    {
      "channel": 4,
      "note": 76,
      "start": 48.6114,
      "duration": 0.1617,
      "velocity": 97,
      "chip": "ym2612"
    },
    {
      "channel": 5,
      "note": 57,
      "start": 48.666,
      "duration": 0.1616,
      "velocity": 100,
      "chip": "ym2612"
    },
    {
      "channel": 0,
      "note": 54,
      "start": 48.7483,
      "duration": 0.2403,
      "velocity": 97,
      "chip": "ym2612"
    },
    {
      "channel": 1,
      "note": 54,
      "start": 48.7491,
      "duration": 0.2402,
      "velocity": 94,
      "chip": "ym2612"
    },
    {
      "channel": 3,
      "note": 73,
      "start": 48.7499,
      "duration": 0.24,
      "velocity": 97,
      "chip": "ym2612"
    },
    {
      "channel": 2,
      "note": 68,
      "start": 48.7515,
      "duration": 0.1569,
      "velocity": 127,
      "chip": "ym2612"
    },
    {
      "channel": 4,
      "note": 73,
      "start": 48.775,
      "duration": 0.2421,
      "velocity": 97,
      "chip": "ym2612"
    },
    {
      "channel": 5,
      "note": 54,
      "start": 48.8282,
      "duration": 0.2473,
      "velocity": 100,
      "chip": "ym2612"
    },
    {
      "channel": 2,
      "note": 75,
      "start": 48.9138,
      "duration": 0.1562,
      "velocity": 120,
      "chip": "ym2612"
    },
    {
      "channel": 0,
      "note": 54,
      "start": 48.9892,
      "duration": 0.162,
      "velocity": 97,
      "chip": "ym2612"
    },
    {
      "channel": 1,
      "note": 54,
      "start": 48.9898,
      "duration": 0.1621,
      "velocity": 94,
      "chip": "ym2612"
    },
    {
      "channel": 3,
      "note": 73,
      "start": 48.9918,
      "duration": 0.1606,
      "velocity": 97,
      "chip": "ym2612"
    },
    {
      "channel": 4,
      "note": 73,
      "start": 49.0177,
      "duration": 0.1617,
      "velocity": 97,
      "chip": "ym2612"
    },
    {
      "channel": 5,
      "note": 54,
      "start": 49.0759,
      "duration": 0.1624,
      "velocity": 100,
      "chip": "ym2612"
    },
    {
      "channel": 2,
      "note": 68,
      "start": 49.0768,
      "duration": 0.1555,
      "velocity": 127,
      "chip": "ym2612"
    },
    {
      "channel": 0,
      "note": 54,
      "start": 49.1517,
      "duration": 0.0839,
      "velocity": 97,
      "chip": "ym2612"
    },
    {
      "channel": 1,
      "note": 54,
      "start": 49.1523,
      "duration": 0.084,
      "velocity": 94,
      "chip": "ym2612"
    },
    {
      "channel": 3,
      "note": 73,
      "start": 49.153,
      "duration": 0.0841,
      "velocity": 97,
      "chip": "ym2612"
    },
    {
      "channel": 4,
      "note": 73,
      "start": 49.1799,
      "duration": 0.0807,
      "velocity": 97,
      "chip": "ym2612"
    },
    {
      "channel": 0,
      "note": 59,
      "start": 49.2362,
      "duration": 0.1615,
      "velocity": 97,
      "chip": "ym2612"
    },
    {
      "channel": 1,
      "note": 59,
      "start": 49.237,
      "duration": 0.1615,
      "velocity": 94,
      "chip": "ym2612"
    },
    {
      "channel": 3,
      "note": 78,
      "start": 49.2378,
      "duration": 0.1615,
      "velocity": 97,
      "chip": "ym2612"
    },
    {
      "channel": 5,
      "note": 54,
      "start": 49.2388,
      "duration": 0.0763,
      "velocity": 100,
      "chip": "ym2612"
    },
    {
      "channel": 2,
      "note": 29,
      "start": 49.2396,
      "duration": 0.1041,
      "velocity": 119,
      "chip": "ym2612"
    },
    {
      "channel": 4,
      "note": 78,
      "start": 49.2613,
      "duration": 0.1618,
      "velocity": 97,
      "chip": "ym2612"
    },
    {
      "channel": 5,
      "note": 59,
      "start": 49.3158,
      "duration": 0.162,
      "velocity": 100,
      "chip": "ym2612"
    },
    {
      "channel": 0,
      "note": 54,
      "start": 49.3984,
      "duration": 0.2403,
      "velocity": 97,
      "chip": "ym2612"
    },
    {
      "channel": 1,
      "note": 54,
      "start": 49.3991,
      "duration": 0.2403,
      "velocity": 94,
      "chip": "ym2612"
    },
    {
      "channel": 3,
      "note": 73,
      "start": 49.3999,
      "duration": 0.2401,
      "velocity": 97,
      "chip": "ym2612"
    },
    {
      "channel": 2,
      "note": 68,
      "start": 49.4015,
      "duration": 0.157,
      "velocity": 127,
      "chip": "ym2612"
    },
    {
      "channel": 4,
      "note": 73,
      "start": 49.4252,
      "duration": 0.2417,
      "velocity": 97,
      "chip": "ym2612"
    },
    {
      "channel": 5,
      "note": 54,
      "start": 49.4783,
      "duration": 0.248,
      "velocity": 100,
      "chip": "ym2612"
    },
    {
      "channel": 2,
      "note": 75,
      "start": 49.5639,
      "duration": 0.1564,
      "velocity": 120,
      "chip": "ym2612"
    },
    {
      "channel": 0,
      "note": 54,
      "start": 49.6392,
      "duration": 0.1621,
      "velocity": 97,
      "chip": "ym2612"
    },
    {
      "channel": 1,
      "note": 54,
      "start": 49.6399,
      "duration": 0.1622,
      "velocity": 94,
      "chip": "ym2612"
    },
    {
      "channel": 3,
      "note": 73,
      "start": 49.6418,
      "duration": 0.1607,
      "velocity": 97,
      "chip": "ym2612"
    },
    {
      "channel": 4,
      "note": 73,
      "start": 49.6674,
      "duration": 0.162,
      "velocity": 97,
      "chip": "ym2612"
    },
    {
      "channel": 5,
      "note": 54,
      "start": 49.7267,
      "duration": 0.1618,
      "velocity": 100,
      "chip": "ym2612"
    },
    {
      "channel": 2,
      "note": 29,
      "start": 49.7275,
      "duration": 0.103,
      "velocity": 119,
      "chip": "ym2612"
    },
    {
      "channel": 0,
      "note": 54,
      "start": 49.8018,
      "duration": 0.0839,
      "velocity": 97,
      "chip": "ym2612"
    },
    {
      "channel": 1,
      "note": 54,
      "start": 49.8024,
      "duration": 0.0841,
      "velocity": 94,
      "chip": "ym2612"
    },
    {
      "channel": 3,
      "note": 73,
      "start": 49.8031,
      "duration": 0.0842,
      "velocity": 97,
      "chip": "ym2612"
    },
    {
      "channel": 4,
      "note": 73,
      "start": 49.8299,
      "duration": 0.0808,
      "velocity": 97,
      "chip": "ym2612"
    },
    {
      "channel": 0,
      "note": 57,
      "start": 49.8864,
      "duration": 0.1618,
      "velocity": 97,
      "chip": "ym2612"
    },
    {
      "channel": 1,
      "note": 57,
      "start": 49.8871,
      "duration": 0.1618,
      "velocity": 94,
      "chip": "ym2612"
    },
    {
      "channel": 3,
      "note": 76,
      "start": 49.888,
      "duration": 0.1618,
      "velocity": 97,
      "chip": "ym2612"
    },
    {
      "channel": 5,
      "note": 54,
      "start": 49.8889,
      "duration": 0.0763,
      "velocity": 100,
      "chip": "ym2612"
    },
    {
      "channel": 2,
      "note": 29,
      "start": 49.8897,
      "duration": 0.104,
      "velocity": 119,
      "chip": "ym2612"
    },
    {
      "channel": 4,
      "note": 76,
      "start": 49.9114,
      "duration": 0.1635,
      "velocity": 97,
      "chip": "ym2612"
    },
    {
      "channel": 5,
      "note": 57,
      "start": 49.9659,
      "duration": 0.1619,
      "velocity": 100,
      "chip": "ym2612"
    },
    {
      "channel": 0,
      "note": 54,
      "start": 50.0488,
      "duration": 0.1625,
      "velocity": 97,
      "chip": "ym2612"
    },
    {
      "channel": 1,
      "note": 54,
      "start": 50.0495,
      "duration": 0.1625,
      "velocity": 94,
      "chip": "ym2612"
    },
    {
      "channel": 3,
      "note": 73,
      "start": 50.0504,
      "duration": 0.1625,
      "velocity": 97,
      "chip": "ym2612"
    },
    {
      "channel": 2,
      "note": 29,
      "start": 50.052,
      "duration": 0.1033,
      "velocity": 119,
      "chip": "ym2612"
    },
    {
      "channel": 4,
      "note": 73,
      "start": 50.0756,
      "duration": 0.1602,
      "velocity": 97,
      "chip": "ym2612"
    },
    {
      "channel": 5,
      "note": 54,
      "start": 50.1283,
      "duration": 0.1632,
      "velocity": 100,
      "chip": "ym2612"
    },
    {
      "channel": 0,
      "note": 59,
      "start": 50.2119,
      "duration": 0.1613,
      "velocity": 97,
      "chip": "ym2612"
    },
    {
      "channel": 1,
      "note": 59,
      "start": 50.2126,
      "duration": 0.1628,
      "velocity": 94,
      "chip": "ym2612"
    },
    {
      "channel": 3,
      "note": 78,
      "start": 50.2135,
      "duration": 0.1627,
      "velocity": 97,
      "chip": "ym2612"
    },
    {
      "channel": 2,
      "note": 75,
      "start": 50.2151,
      "duration": 0.155,
      "velocity": 120,
      "chip": "ym2612"
    },
    {
      "channel": 4,
      "note": 78,
      "start": 50.2364,
      "duration": 0.1618,
      "velocity": 97,
      "chip": "ym2612"
    },
    {
      "channel": 5,
      "note": 59,
      "start": 50.2922,
      "duration": 0.1606,
      "velocity": 100,
      "chip": "ym2612"
    },
    {
      "channel": 0,
      "note": 54,
      "start": 50.3753,
      "duration": 0.3229,
      "velocity": 97,
      "chip": "ym2612"
    },
    {
      "channel": 1,
      "note": 54,
      "start": 50.376,
      "duration": 0.323,
      "velocity": 94,
      "chip": "ym2612"
    },
    {
      "channel": 3,
      "note": 73,
      "start": 50.3768,
      "duration": 0.323,
      "velocity": 97,
      "chip": "ym2612"
    },
    {
      "channel": 2,
      "note": 29,
      "start": 50.3784,
      "duration": 0.1019,
      "velocity": 119,
      "chip": "ym2612"
    },
    {
      "channel": 4,
      "note": 73,
      "start": 50.3989,
      "duration": 0.3244,
      "velocity": 97,
      "chip": "ym2612"
    },
    {
      "channel": 5,
      "note": 54,
      "start": 50.4534,
      "duration": 0.3247,
      "velocity": 100,
      "chip": "ym2612"
    },
    {
      "channel": 2,
      "note": 68,
      "start": 50.5379,
      "duration": 0.1571,
      "velocity": 127,
      "chip": "ym2612"
    },
    {
      "channel": 0,
      "note": 52,
      "start": 50.6989,
      "duration": 0.1623,
      "velocity": 97,
      "chip": "ym2612"
    },
    {
      "channel": 1,
      "note": 52,
      "start": 50.6996,
      "duration": 0.1624,
      "velocity": 94,
      "chip": "ym2612"
    },
    {
      "channel": 3,
      "note": 71,
      "start": 50.7004,
      "duration": 0.1623,
      "velocity": 97,
      "chip": "ym2612"
    },
    {
      "channel": 2,
      "note": 29,
      "start": 50.7021,
      "duration": 0.1032,
      "velocity": 119,
      "chip": "ym2612"
    },
    {
      "channel": 4,
      "note": 71,
      "start": 50.7252,
      "duration": 0.1605,
      "velocity": 97,
      "chip": "ym2612"
    },
    {
      "channel": 5,
      "note": 52,
      "start": 50.7787,
      "duration": 0.163,
      "velocity": 100,
      "chip": "ym2612"
    },
    {
      "channel": 0,
      "note": 53,
      "start": 50.8619,
      "duration": 0.1614,
      "velocity": 97,
      "chip": "ym2612"
    },
    {
      "channel": 1,
      "note": 53,
      "start": 50.8626,
      "duration": 0.1629,
      "velocity": 94,
      "chip": "ym2612"
    },
    {
      "channel": 3,
      "note": 72,
      "start": 50.8634,
      "duration": 0.1627,
      "velocity": 97,
      "chip": "ym2612"
    },
    {
      "channel": 2,
      "note": 75,
      "start": 50.865,
      "duration": 0.1551,
      "velocity": 120,
      "chip": "ym2612"
    },
    {
      "channel": 4,
      "note": 72,
      "start": 50.8865,
      "duration": 0.1618,
      "velocity": 97,
      "chip": "ym2612"
    },
    {
      "channel": 5,
      "note": 53,
      "start": 50.9423,
      "duration": 0.1605,
      "velocity": 100,
      "chip": "ym2612"
    },
    {
      "channel": 0,
      "note": 54,
      "start": 51.0252,
      "duration": 0.1608,
      "velocity": 97,
      "chip": "ym2612"
    },
    {
      "channel": 1,
      "note": 54,
      "start": 51.026,
      "duration": 0.1608,
      "velocity": 94,
      "chip": "ym2612"
    },
    {
      "channel": 3,
      "note": 73,
      "start": 51.0268,
      "duration": 0.1607,
      "velocity": 97,
      "chip": "ym2612"
    },
    {
      "channel": 2,
      "note": 29,
      "start": 51.0283,
      "duration": 0.1023,
      "velocity": 119,
      "chip": "ym2612"
    },
    {
      "channel": 4,
      "note": 73,
      "start": 51.049,
      "duration": 0.1618,
      "velocity": 97,
      "chip": "ym2612"
    },
    {
      "channel": 5,
      "note": 54,
      "start": 51.1034,
      "duration": 0.1619,
      "velocity": 100,
      "chip": "ym2612"
    },
    {
      "channel": 0,
      "note": 57,
      "start": 51.1867,
      "duration": 0.1612,
      "velocity": 97,
      "chip": "ym2612"
    },
    {
      "channel": 1,
      "note": 57,
      "start": 51.1874,
      "duration": 0.1613,
      "velocity": 94,
      "chip": "ym2612"
    },
    {
      "channel": 3,
      "note": 76,
      "start": 51.1882,
      "duration": 0.1612,
      "velocity": 97,
      "chip": "ym2612"
    },
    {
      "channel": 2,
      "note": 29,
      "start": 51.1898,
      "duration": 0.1039,
      "velocity": 119,
      "chip": "ym2612"
    },
    {
      "channel": 4,
      "note": 76,
      "start": 51.2115,
      "duration": 0.1618,
      "velocity": 97,
      "chip": "ym2612"
    },
    {
      "channel": 5,
      "note": 57,
      "start": 51.2659,
      "duration": 0.1619,
      "velocity": 100,
      "chip": "ym2612"
    },
    {
      "channel": 0,
      "note": 54,
      "start": 51.3486,
      "duration": 0.2404,
      "velocity": 97,
      "chip": "ym2612"
    },
    {
      "channel": 1,
      "note": 54,
      "start": 51.3493,
      "duration": 0.2403,
      "velocity": 94,
      "chip": "ym2612"
    },
    {
      "channel": 3,
      "note": 73,
      "start": 51.3501,
      "duration": 0.2414,
      "velocity": 97,
      "chip": "ym2612"
    },
    {
      "channel": 2,
      "note": 68,
      "start": 51.3517,
      "duration": 0.1568,
      "velocity": 127,
      "chip": "ym2612"
    },
    {
      "channel": 4,
      "note": 73,
      "start": 51.3754,
      "duration": 0.2417,
      "velocity": 97,
      "chip": "ym2612"
    },
    {
      "channel": 5,
      "note": 54,
      "start": 51.4284,
      "duration": 0.2474,
      "velocity": 100,
      "chip": "ym2612"
    },
    {
      "channel": 2,
      "note": 75,
      "start": 51.5139,
      "duration": 0.1563,
      "velocity": 120,
      "chip": "ym2612"
    },
    {
      "channel": 0,
      "note": 54,
      "start": 51.5895,
      "duration": 0.162,
      "velocity": 97,
      "chip": "ym2612"
    },
    {
      "channel": 1,
      "note": 54,
      "start": 51.5914,
      "duration": 0.1607,
      "velocity": 94,
      "chip": "ym2612"
    },
    {
      "channel": 3,
      "note": 73,
      "start": 51.592,
      "duration": 0.1607,
      "velocity": 97,
      "chip": "ym2612"
    },
    {
      "channel": 4,
      "note": 73,
      "start": 51.6177,
      "duration": 0.162,
      "velocity": 97,
      "chip": "ym2612"
    },
    {
      "channel": 5,
      "note": 54,
      "start": 51.6763,
      "duration": 0.1627,
      "velocity": 100,
      "chip": "ym2612"
    },
    {
      "channel": 2,
      "note": 68,
      "start": 51.6771,
      "duration": 0.1559,
      "velocity": 127,
      "chip": "ym2612"
    },
    {
      "channel": 0,
      "note": 54,
      "start": 51.752,
      "duration": 0.0841,
      "velocity": 97,
      "chip": "ym2612"
    },
    {
      "channel": 1,
      "note": 54,
      "start": 51.7526,
      "duration": 0.0844,
      "velocity": 94,
      "chip": "ym2612"
    },
    {
      "channel": 3,
      "note": 73,
      "start": 51.7533,
      "duration": 0.0845,
      "velocity": 97,
      "chip": "ym2612"
    },
    {
      "channel": 4,
      "note": 73,
      "start": 51.7801,
      "duration": 0.0807,
      "velocity": 97,
      "chip": "ym2612"
    },
    {
      "channel": 0,
      "note": 59,
      "start": 51.8369,
      "duration": 0.1611,
      "velocity": 97,
      "chip": "ym2612"
    },
    {
      "channel": 1,
      "note": 59,
      "start": 51.8376,
      "duration": 0.1612,
      "velocity": 94,
      "chip": "ym2612"
    },
    {
      "channel": 3,
      "note": 78,
      "start": 51.8384,
      "duration": 0.1611,
      "velocity": 97,
      "chip": "ym2612"
    },
    {
      "channel": 5,
      "note": 54,
      "start": 51.8393,
      "duration": 0.0761,
      "velocity": 100,
      "chip": "ym2612"
    },
    {
      "channel": 2,
      "note": 29,
      "start": 51.8415,
      "duration": 0.1022,
      "velocity": 119,
      "chip": "ym2612"
    },
    {
      "channel": 4,
      "note": 78,
      "start": 51.8616,
      "duration": 0.1632,
      "velocity": 97,
      "chip": "ym2612"
    },
    {
      "channel": 5,
      "note": 59,
      "start": 51.9161,
      "duration": 0.1618,
      "velocity": 100,
      "chip": "ym2612"
    },
    {
      "channel": 0,
      "note": 54,
      "start": 51.9987,
      "duration": 0.2403,
      "velocity": 97,
      "chip": "ym2612"
    },
    {
      "channel": 1,
      "note": 54,
      "start": 51.9994,
      "duration": 0.2402,
      "velocity": 94,
      "chip": "ym2612"
    },
    {
      "channel": 3,
      "note": 73,
      "start": 52.0002,
      "duration": 0.2414,
      "velocity": 97,
      "chip": "ym2612"
    },
    {
      "channel": 2,
      "note": 68,
      "start": 52.0018,
      "duration": 0.1567,
      "velocity": 127,
      "chip": "ym2612"
    },
    {
      "channel": 4,
      "note": 73,
      "start": 52.0255,
      "duration": 0.2417,
      "velocity": 97,
      "chip": "ym2612"
    },
    {
      "channel": 5,
      "note": 54,
      "start": 52.0785,
      "duration": 0.2478,
      "velocity": 100,
      "chip": "ym2612"
    },
    {
      "channel": 2,
      "note": 75,
      "start": 52.1638,
      "duration": 0.1565,
      "velocity": 120,
      "chip": "ym2612"
    },
    {
      "channel": 0,
      "note": 54,
      "start": 52.2395,
      "duration": 0.1621,
      "velocity": 97,
      "chip": "ym2612"
    },
    {
      "channel": 1,
      "note": 54,
      "start": 52.2414,
      "duration": 0.1608,
      "velocity": 94,
      "chip": "ym2612"
    },
    {
      "channel": 3,
      "note": 73,
      "start": 52.2421,
      "duration": 0.1607,
      "velocity": 97,
      "chip": "ym2612"
    },
    {
      "channel": 4,
      "note": 73,
      "start": 52.2677,
      "duration": 0.162,
      "velocity": 97,
      "chip": "ym2612"
    },
    {
      "channel": 5,
      "note": 54,
      "start": 52.3267,
      "duration": 0.162,
      "velocity": 100,
      "chip": "ym2612"
    },
    {
      "channel": 2,
      "note": 29,
      "start": 52.3275,
      "duration": 0.1032,
      "velocity": 119,
      "chip": "ym2612"
    },
    {
      "channel": 0,
      "note": 54,
      "start": 52.4021,
      "duration": 0.0838,
      "velocity": 97,
      "chip": "ym2612"
    },
    {
      "channel": 1,
      "note": 54,
      "start": 52.4027,
      "duration": 0.0841,
      "velocity": 94,
      "chip": "ym2612"
    },
    {
      "channel": 3,
      "note": 73,
      "start": 52.4034,
      "duration": 0.0841,
      "velocity": 97,
      "chip": "ym2612"
    },
    {
      "channel": 4,
      "note": 73,
      "start": 52.4302,
      "duration": 0.0807,
      "velocity": 97,
      "chip": "ym2612"
    },
    {
      "channel": 0,
      "note": 59,
      "start": 52.4866,
      "duration": 0.1618,
      "velocity": 97,
      "chip": "ym2612"
    },
    {
      "channel": 1,
      "note": 59,
      "start": 52.4874,
      "duration": 0.1619,
      "velocity": 94,
      "chip": "ym2612"
    },
    {
      "channel": 3,
      "note": 78,
      "start": 52.4882,
      "duration": 0.1618,
      "velocity": 97,
      "chip": "ym2612"
    },
    {
      "channel": 5,
      "note": 54,
      "start": 52.4892,
      "duration": 0.0763,
      "velocity": 100,
      "chip": "ym2612"
    },
    {
      "channel": 2,
      "note": 29,
      "start": 52.49,
      "duration": 0.1041,
      "velocity": 119,
      "chip": "ym2612"
    },
    {
      "channel": 4,
      "note": 78,
      "start": 52.5116,
      "duration": 0.1633,
      "velocity": 97,
      "chip": "ym2612"
    },
    {
      "channel": 5,
      "note": 59,
      "start": 52.5661,
      "duration": 0.1618,
      "velocity": 100,
      "chip": "ym2612"
    },
    {
      "channel": 0,
      "note": 60,
      "start": 52.6491,
      "duration": 0.1621,
      "velocity": 97,
      "chip": "ym2612"
    },
    {
      "channel": 1,
      "note": 60,
      "start": 52.6498,
      "duration": 0.1622,
      "velocity": 94,
      "chip": "ym2612"
    },
    {
      "channel": 3,
      "note": 79,
      "start": 52.6507,
      "duration": 0.1622,
      "velocity": 97,
      "chip": "ym2612"
    },
    {
      "channel": 2,
      "note": 29,
      "start": 52.6523,
      "duration": 0.1032,
      "velocity": 119,
      "chip": "ym2612"
    },
    {
      "channel": 4,
      "note": 79,
      "start": 52.6755,
      "duration": 0.1604,
      "velocity": 97,
      "chip": "ym2612"
    },
    {
      "channel": 5,
      "note": 60,
      "start": 52.7285,
      "duration": 0.1637,
      "velocity": 100,
      "chip": "ym2612"
    },
    {
      "channel": 0,
      "note": 59,
      "start": 52.8119,
      "duration": 0.1611,
      "velocity": 97,
      "chip": "ym2612"
    },
    {
      "channel": 1,
      "note": 59,
      "start": 52.8126,
      "duration": 0.1625,
      "velocity": 94,
      "chip": "ym2612"
    },
    {
      "channel": 3,
      "note": 78,
      "start": 52.8135,
      "duration": 0.1625,
      "velocity": 97,
      "chip": "ym2612"
    },
    {
      "channel": 2,
      "note": 75,
      "start": 52.8151,
      "duration": 0.1552,
      "velocity": 120,
      "chip": "ym2612"
    },
    {
      "channel": 4,
      "note": 78,
      "start": 52.8366,
      "duration": 0.1619,
      "velocity": 97,
      "chip": "ym2612"
    },
    {
      "channel": 5,
      "note": 59,
      "start": 52.8928,
      "duration": 0.1602,
      "velocity": 100,
      "chip": "ym2612"
    },
    {
      "channel": 0,
      "note": 54,
      "start": 52.975,
      "duration": 0.3235,
      "velocity": 97,
      "chip": "ym2612"
    },
    {
      "channel": 1,
      "note": 54,
      "start": 52.9758,
      "duration": 0.3235,
      "velocity": 94,
      "chip": "ym2612"
    },
    {
      "channel": 3,
      "note": 73,
      "start": 52.9766,
      "duration": 0.3234,
      "velocity": 97,
      "chip": "ym2612"
    },
    {
      "channel": 2,
      "note": 75,
      "start": 52.9782,
      "duration": 0.1545,
      "velocity": 120,
      "chip": "ym2612"
    },
    {
      "channel": 4,
      "note": 73,
      "start": 52.9992,
      "duration": 0.3257,
      "velocity": 97,
      "chip": "ym2612"
    },
    {
      "channel": 5,
      "note": 54,
      "start": 53.0537,
      "duration": 0.3244,
      "velocity": 100,
      "chip": "ym2612"
    },
    {
      "channel": 2,
      "note": 79,
      "start": 53.1382,
      "duration": 0.0758,
      "velocity": 120,
      "chip": "ym2612"
    },
    {
      "channel": 2,
      "note": 74,
      "start": 53.2196,
      "duration": 0.0757,
      "velocity": 120,
      "chip": "ym2612"
    },
    {
      "channel": 0,
      "note": 52,
      "start": 53.2991,
      "duration": 0.162,
      "velocity": 97,
      "chip": "ym2612"
    },
    {
      "channel": 1,
      "note": 52,
      "start": 53.2999,
      "duration": 0.1621,
      "velocity": 94,
      "chip": "ym2612"
    },
    {
      "channel": 3,
      "note": 71,
      "start": 53.3007,
      "duration": 0.162,
      "velocity": 97,
      "chip": "ym2612"
    },
    {
      "channel": 2,
      "note": 29,
      "start": 53.3024,
      "duration": 0.1032,
      "velocity": 119,
      "chip": "ym2612"
    },
    {
      "channel": 4,
      "note": 71,
      "start": 53.3256,
      "duration": 0.1604,
      "velocity": 97,
      "chip": "ym2612"
    },
    {
      "channel": 5,
      "note": 52,
      "start": 53.3787,
      "duration": 0.1633,
      "velocity": 100,
      "chip": "ym2612"
    },
    {
      "channel": 0,
      "note": 53,
      "start": 53.4619,
      "duration": 0.1613,
      "velocity": 97,
      "chip": "ym2612"
    },
    {
      "channel": 1,
      "note": 53,
      "start": 53.4626,
      "duration": 0.1627,
      "velocity": 94,
      "chip": "ym2612"
    },
    {
      "channel": 3,
      "note": 72,
      "start": 53.4634,
      "duration": 0.1626,
      "velocity": 97,
      "chip": "ym2612"
    },
    {
      "channel": 2,
      "note": 74,
      "start": 53.465,
      "duration": 0.1305,
      "velocity": 120,
      "chip": "ym2612"
    },
    {
      "channel": 4,
      "note": 72,
      "start": 53.4867,
      "duration": 0.1618,
      "velocity": 97,
      "chip": "ym2612"
    },
    {
      "channel": 5,
      "note": 53,
      "start": 53.5425,
      "duration": 0.1605,
      "velocity": 100,
      "chip": "ym2612"
    },
    {
      "channel": 0,
      "note": 54,
      "start": 53.6252,
      "duration": 0.1639,
      "velocity": 94,
      "chip": "ym2612"
    },
    {
      "channel": 1,
      "note": 54,
      "start": 53.6259,
      "duration": 0.1676,
      "velocity": 94,
      "chip": "ym2612"
    },
    {
      "channel": 3,
      "note": 73,
      "start": 53.6267,
      "duration": 0.1704,
      "velocity": 100,
      "chip": "ym2612"
    },
    {
      "channel": 2,
      "note": 75,
      "start": 53.6283,
      "duration": 0.1547,
      "velocity": 120,
      "chip": "ym2612"
    },
    {
      "channel": 4,
      "note": 73,
      "start": 53.6492,
      "duration": 0.1643,
      "velocity": 100,
      "chip": "ym2612"
    },
    {
      "channel": 5,
      "note": 54,
      "start": 53.7037,
      "duration": 0.1639,
      "velocity": 94,
      "chip": "ym2612"
    },
    {
      "channel": 1,
      "note": 57,
      "start": 53.794,
      "duration": 0.1553,
      "velocity": 94,
      "chip": "ym2612"
    },
    {
      "channel": 2,
      "note": 29,
      "start": 53.7989,
      "duration": 0.094,
      "velocity": 119,
      "chip": "ym2612"
    },
    {
      "channel": 0,
      "note": 61,
      "start": 53.9491,
      "duration": 0.1621,
      "velocity": 94,
      "chip": "ym2612"
    },
    {
      "channel": 1,
      "note": 54,
      "start": 53.9498,
      "duration": 0.1647,
      "velocity": 94,
      "chip": "ym2612"
    },
    {
      "channel": 2,
      "note": 68,
      "start": 53.9509,
      "duration": 0.1575,
      "velocity": 127,
      "chip": "ym2612"
    },
    {
      "channel": 5,
      "note": 61,
      "start": 54.0281,
      "duration": 0.0865,
      "velocity": 94,
      "chip": "ym2612"
    },
    {
      "channel": 0,
      "note": 64,
      "start": 54.1119,
      "duration": 0.0027,
      "velocity": 94,
      "chip": "ym2612"
    },
    {
      "channel": 3,
      "note": 61,
      "start": 54.1131,
      "duration": 0.0015,
      "velocity": 100,
      "chip": "ym2612"
    },
    {
      "channel": 2,
      "note": 75,
      "start": 54.1144,
      "duration": 0.0002,
      "velocity": 120,
      "chip": "ym2612"
    }
  ]
}