{
  "track_name": "31 - Unused Song",
  "duration_sec": 50.811,
  "sample_rate": 44100,
  "note_count": 335,
  "unique_pitches": 26,
  "pitch_range": 38,
  "avg_note_duration": 0.6959,
  "reconstruction_stats": {
    "notes_reconstructed": 335,
    "keyon_events": 335,
    "keyoff_events": 314,
    "orphan_keyons": 5,
    "unique_pitches": 26,
    "pitch_range": 38,
    "avg_duration_sec": 0.6959
  },
  "metadata": {
    "source": "S\\Sonic the Hedgehog 2\\31 - Unused Song.vgz"
  },
  "notes": [
    {
      "channel": 2,
      "note": 59,
      "start": 0.008,
      "duration": 0.1482,
      "velocity": 100,
      "chip": "ym2612"
    },
    {
      "channel": 4,
      "note": 59,
      "start": 0.0136,
      "duration": 0.1433,
      "velocity": 95,
      "chip": "ym2612"
    },
    {
      "channel": 2,
      "note": 66,
      "start": 0.1566,
      "duration": 0.2604,
      "velocity": 100,
      "chip": "ym2612"
    },
    {
      "channel": 4,
      "note": 66,
      "start": 0.1573,
      "duration": 0.2604,
      "velocity": 95,
      "chip": "ym2612"
    },
    {
      "channel": 0,
      "note": 74,
      "start": 0.4163,
      "duration": 0.0303,
      "velocity": 97,
      "chip": "ym2612"
    },
    {
      "channel": 1,
      "note": 54,
      "start": 0.4169,
      "duration": 0.2279,
      "velocity": 96,
      "chip": "ym2612"
    },
    {
      "channel": 2,
      "note": 62,
      "start": 0.4175,
      "duration": 0.2279,
      "velocity": 100,
      "chip": "ym2612"
    },
    {
      "channel": 4,
      "note": 62,
      "start": 0.4182,
      "duration": 0.2285,
      "velocity": 95,
      "chip": "ym2612"
    },
    {
      "channel": 0,
      "note": 76,
      "start": 0.447,
      "duration": 0.1971,
      "velocity": 97,
      "chip": "ym2612"
    },
    {
      "channel": 3,
      "note": 74,
      "start": 0.4478,
      "duration": 0.1982,
      "velocity": 97,
      "chip": "ym2612"
    },
    {
      "channel": 0,
      "note": 78,
      "start": 0.6446,
      "duration": 0.6095,
      "velocity": 97,
      "chip": "ym2612"
    },
    {
      "channel": 1,
      "note": 59,
      "start": 0.6452,
      "duration": 0.0743,
      "velocity": 96,
      "chip": "ym2612"
    },
    {
      "channel": 2,
      "note": 69,
      "start": 0.6459,
      "duration": 0.8215,
      "velocity": 100,
      "chip": "ym2612"
    },
    {
      "channel": 3,
      "note": 76,
      "start": 0.6465,
      "duration": 0.0734,
      "velocity": 97,
      "chip": "ym2612"
    },
    {
      "channel": 4,
      "note": 69,
      "start": 0.6472,
      "duration": 0.8211,
      "velocity": 95,
      "chip": "ym2612"
    },
    {
      "channel": 3,
      "note": 78,
      "start": 0.7204,
      "duration": 0.5734,
      "velocity": 97,
      "chip": "ym2612"
    },
    {
      "channel": 0,
      "note": 76,
      "start": 1.2546,
      "duration": 0.2111,
      "velocity": 97,
      "chip": "ym2612"
    },
    {
      "channel": 1,
      "note": 54,
      "start": 1.2552,
      "duration": 0.2112,
      "velocity": 96,
      "chip": "ym2612"
    },
    {
      "channel": 3,
      "note": 76,
      "start": 1.2942,
      "duration": 0.2474,
      "velocity": 97,
      "chip": "ym2612"
    },
    {
      "channel": 0,
      "note": 78,
      "start": 1.4662,
      "duration": 0.6095,
      "velocity": 97,
      "chip": "ym2612"
    },
    {
      "channel": 1,
      "note": 59,
      "start": 1.4668,
      "duration": 0.0743,
      "velocity": 96,
      "chip": "ym2612"
    },
    {
      "channel": 2,
      "note": 69,
      "start": 1.4673,
      "duration": 0.8817,
      "velocity": 100,
      "chip": "ym2612"
    },
    {
      "channel": 4,
      "note": 69,
      "start": 1.4683,
      "duration": 0.8818,
      "velocity": 95,
      "chip": "ym2612"
    },
    {
      "channel": 3,
      "note": 78,
      "start": 1.5421,
      "duration": 0.7677,
      "velocity": 97,
      "chip": "ym2612"
    },
    {
      "channel": 0,
      "note": 81,
      "start": 2.0762,
      "duration": 0.2717,
      "velocity": 97,
      "chip": "ym2612"
    },
    {
      "channel": 1,
      "note": 54,
      "start": 2.0768,
      "duration": 0.2717,
      "velocity": 96,
      "chip": "ym2612"
    },
    {
      "channel": 3,
      "note": 81,
      "start": 2.3103,
      "duration": 0.1132,
      "velocity": 97,
      "chip": "ym2612"
    },
    {
      "channel": 0,
      "note": 80,
      "start": 2.3483,
      "duration": 0.3083,
      "velocity": 97,
      "chip": "ym2612"
    },
    {
      "channel": 1,
      "note": 52,
      "start": 2.3489,
      "duration": 0.0742,
      "velocity": 96,
      "chip": "ym2612"
    },
    {
      "channel": 2,
      "note": 68,
      "start": 2.3495,
      "duration": 0.8377,
      "velocity": 100,
      "chip": "ym2612"
    },
    {
      "channel": 4,
      "note": 68,
      "start": 2.3505,
      "duration": 0.8376,
      "velocity": 95,
      "chip": "ym2612"
    },
    {
      "channel": 3,
      "note": 80,
      "start": 2.4239,
      "duration": 0.4669,
      "velocity": 97,
      "chip": "ym2612"
    },
    {
      "channel": 0,
      "note": 78,
      "start": 2.657,
      "duration": 0.3007,
      "velocity": 97,
      "chip": "ym2612"
    },
    {
      "channel": 3,
      "note": 78,
      "start": 2.8913,
      "duration": 0.109,
      "velocity": 97,
      "chip": "ym2612"
    },
    {
      "channel": 0,
      "note": 76,
      "start": 2.9581,
      "duration": 0.2279,
      "velocity": 97,
      "chip": "ym2612"
    },
    {
      "channel": 1,
      "note": 52,
      "start": 2.9587,
      "duration": 0.228,
      "velocity": 96,
      "chip": "ym2612"
    },
    {
      "channel": 3,
      "note": 76,
      "start": 3.0007,
      "duration": 0.2447,
      "velocity": 97,
      "chip": "ym2612"
    },
    {
      "channel": 0,
      "note": 78,
      "start": 3.1865,
      "duration": 0.6095,
      "velocity": 97,
      "chip": "ym2612"
    },
    {
      "channel": 1,
      "note": 59,
      "start": 3.1871,
      "duration": 0.0579,
      "velocity": 96,
      "chip": "ym2612"
    },
    {
      "channel": 2,
      "note": 73,
      "start": 3.1877,
      "duration": 0.6095,
      "velocity": 100,
      "chip": "ym2612"
    },
    {
      "channel": 4,
      "note": 73,
      "start": 3.1885,
      "duration": 0.6097,
      "velocity": 95,
      "chip": "ym2612"
    },
    {
      "channel": 3,
      "note": 78,
      "start": 3.2459,
      "duration": 0.768,
      "velocity": 97,
      "chip": "ym2612"
    },
    {
      "channel": 0,
      "note": 74,
      "start": 3.7964,
      "duration": 0.2166,
      "velocity": 97,
      "chip": "ym2612"
    },
    {
      "channel": 1,
      "note": 54,
      "start": 3.7971,
      "duration": 0.2512,
      "velocity": 96,
      "chip": "ym2612"
    },
    {
      "channel": 2,
      "note": 66,
      "start": 3.7977,
      "duration": 0.2511,
      "velocity": 100,
      "chip": "ym2612"
    },
    {
      "channel": 4,
      "note": 66,
      "start": 3.7987,
      "duration": 0.2514,
      "velocity": 95,
      "chip": "ym2612"
    },
    {
      "channel": 0,
      "note": 76,
      "start": 4.0135,
      "duration": 0.0341,
      "velocity": 97,
      "chip": "ym2612"
    },
    {
      "channel": 3,
      "note": 74,
      "start": 4.0143,
      "duration": 0.0351,
      "velocity": 97,
      "chip": "ym2612"
    },
    {
      "channel": 0,
      "note": 78,
      "start": 4.048,
      "duration": 0.6093,
      "velocity": 97,
      "chip": "ym2612"
    },
    {
      "channel": 1,
      "note": 59,
      "start": 4.0486,
      "duration": 0.0741,
      "velocity": 96,
      "chip": "ym2612"
    },
    {
      "channel": 2,
      "note": 69,
      "start": 4.0493,
      "duration": 0.8212,
      "velocity": 100,
      "chip": "ym2612"
    },
    {
      "channel": 3,
      "note": 76,
      "start": 4.0499,
      "duration": 0.0732,
      "velocity": 97,
      "chip": "ym2612"
    },
    {
      "channel": 4,
      "note": 69,
      "start": 4.0506,
      "duration": 0.821,
      "velocity": 95,
      "chip": "ym2612"
    },
    {
      "channel": 3,
      "note": 78,
      "start": 4.1236,
      "duration": 0.5763,
      "velocity": 97,
      "chip": "ym2612"
    },
    {
      "channel": 0,
      "note": 76,
      "start": 4.6577,
      "duration": 0.2111,
      "velocity": 97,
      "chip": "ym2612"
    },
    {
      "channel": 1,
      "note": 54,
      "start": 4.6583,
      "duration": 0.2112,
      "velocity": 96,
      "chip": "ym2612"
    },
    {
      "channel": 3,
      "note": 76,
      "start": 4.7003,
      "duration": 0.2446,
      "velocity": 97,
      "chip": "ym2612"
    },
    {
      "channel": 0,
      "note": 78,
      "start": 4.8693,
      "duration": 0.6095,
      "velocity": 97,
      "chip": "ym2612"
    },
    {
      "channel": 1,
      "note": 59,
      "start": 4.8699,
      "duration": 0.0744,
      "velocity": 96,
      "chip": "ym2612"
    },
    {
      "channel": 2,
      "note": 69,
      "start": 4.8705,
      "duration": 0.8855,
      "velocity": 100,
      "chip": "ym2612"
    },
    {
      "channel": 4,
      "note": 69,
      "start": 4.8716,
      "duration": 0.8852,
      "velocity": 95,
      "chip": "ym2612"
    },
    {
      "channel": 3,
      "note": 78,
      "start": 4.9453,
      "duration": 0.7677,
      "velocity": 97,
      "chip": "ym2612"
    },
    {
      "channel": 0,
      "note": 81,
      "start": 5.4794,
      "duration": 0.2754,
      "velocity": 97,
      "chip": "ym2612"
    },
    {
      "channel": 1,
      "note": 54,
      "start": 5.48,
      "duration": 0.2755,
      "velocity": 96,
      "chip": "ym2612"
    },
    {
      "channel": 3,
      "note": 81,
      "start": 5.7135,
      "duration": 0.1005,
      "velocity": 97,
      "chip": "ym2612"
    },
    {
      "channel": 0,
      "note": 83,
      "start": 5.7552,
      "duration": 0.2916,
      "velocity": 97,
      "chip": "ym2612"
    },
    {
      "channel": 1,
      "note": 52,
      "start": 5.7558,
      "duration": 0.0577,
      "velocity": 96,
      "chip": "ym2612"
    },
    {
      "channel": 2,
      "note": 68,
      "start": 5.7564,
      "duration": 0.8211,
      "velocity": 100,
      "chip": "ym2612"
    },
    {
      "channel": 4,
      "note": 68,
      "start": 5.7572,
      "duration": 0.8211,
      "velocity": 95,
      "chip": "ym2612"
    },
    {
      "channel": 3,
      "note": 83,
      "start": 5.8144,
      "duration": 0.4665,
      "velocity": 97,
      "chip": "ym2612"
    },
    {
      "channel": 0,
      "note": 80,
      "start": 6.0473,
      "duration": 0.3007,
      "velocity": 97,
      "chip": "ym2612"
    },
    {
      "channel": 3,
      "note": 80,
      "start": 6.2814,
      "duration": 0.1092,
      "velocity": 97,
      "chip": "ym2612"
    },
    {
      "channel": 0,
      "note": 76,
      "start": 6.3484,
      "duration": 0.2279,
      "velocity": 97,
      "chip": "ym2612"
    },
    {
      "channel": 1,
      "note": 52,
      "start": 6.349,
      "duration": 0.228,
      "velocity": 96,
      "chip": "ym2612"
    },
    {
      "channel": 3,
      "note": 76,
      "start": 6.391,
      "duration": 0.2611,
      "velocity": 97,
      "chip": "ym2612"
    },
    {
      "channel": 0,
      "note": 78,
      "start": 6.5768,
      "duration": 0.6095,
      "velocity": 97,
      "chip": "ym2612"
    },
    {
      "channel": 1,
      "note": 59,
      "start": 6.5774,
      "duration": 0.0744,
      "velocity": 96,
      "chip": "ym2612"
    },
    {
      "channel": 2,
      "note": 71,
      "start": 6.578,
      "duration": 0.8685,
      "velocity": 100,
      "chip": "ym2612"
    },
    {
      "channel": 4,
      "note": 71,
      "start": 6.5788,
      "duration": 0.8683,
      "velocity": 95,
      "chip": "ym2612"
    },
    {
      "channel": 3,
      "note": 78,
      "start": 6.6526,
      "duration": 0.7515,
      "velocity": 97,
      "chip": "ym2612"
    },
    {
      "channel": 0,
      "note": 74,
      "start": 7.1867,
      "duration": 0.2585,
      "velocity": 97,
      "chip": "ym2612"
    },
    {
      "channel": 1,
      "note": 59,
      "start": 7.1873,
      "duration": 0.2586,
      "velocity": 96,
      "chip": "ym2612"
    },
    {
      "channel": 3,
      "note": 74,
      "start": 7.4045,
      "duration": 0.1163,
      "velocity": 97,
      "chip": "ym2612"
    },
    {
      "channel": 0,
      "note": 76,
      "start": 7.4457,
      "duration": 0.6093,
      "velocity": 97,
      "chip": "ym2612"
    },
    {
      "channel": 1,
      "note": 52,
      "start": 7.4463,
      "duration": 0.0741,
      "velocity": 96,
      "chip": "ym2612"
    },
    {
      "channel": 3,
      "note": 76,
      "start": 7.5213,
      "duration": 0.571,
      "velocity": 97,
      "chip": "ym2612"
    },
    {
      "channel": 2,
      "note": 64,
      "start": 7.7548,
      "duration": 0.3014,
      "velocity": 100,
      "chip": "ym2612"
    },
    {
      "channel": 4,
      "note": 64,
      "start": 7.7556,
      "duration": 0.3016,
      "velocity": 95,
      "chip": "ym2612"
    },
    {
      "channel": 0,
      "note": 74,
      "start": 8.0555,
      "duration": 0.2111,
      "velocity": 97,
      "chip": "ym2612"
    },
    {
      "channel": 1,
      "note": 59,
      "start": 8.0561,
      "duration": 0.2112,
      "velocity": 96,
      "chip": "ym2612"
    },
    {
      "channel": 2,
      "note": 66,
      "start": 8.0567,
      "duration": 0.2111,
      "velocity": 100,
      "chip": "ym2612"
    },
    {
      "channel": 4,
      "note": 66,
      "start": 8.0576,
      "duration": 0.2112,
      "velocity": 95,
      "chip": "ym2612"
    },
    {
      "channel": 3,
      "note": 74,
      "start": 8.0928,
      "duration": 0.2496,
      "velocity": 97,
      "chip": "ym2612"
    },
    {
      "channel": 0,
      "note": 76,
      "start": 8.267,
      "duration": 0.6094,
      "velocity": 97,
      "chip": "ym2612"
    },
    {
      "channel": 1,
      "note": 52,
      "start": 8.2676,
      "duration": 0.0744,
      "velocity": 96,
      "chip": "ym2612"
    },
    {
      "channel": 2,
      "note": 68,
      "start": 8.2683,
      "duration": 0.6094,
      "velocity": 100,
      "chip": "ym2612"
    },
    {
      "channel": 4,
      "note": 68,
      "start": 8.2693,
      "duration": 0.6094,
      "velocity": 95,
      "chip": "ym2612"
    },
    {
      "channel": 3,
      "note": 76,
      "start": 8.3429,
      "duration": 0.7676,
      "velocity": 97,
      "chip": "ym2612"
    },
    {
      "channel": 0,
      "note": 81,
      "start": 8.8769,
      "duration": 0.272,
      "velocity": 97,
      "chip": "ym2612"
    },
    {
      "channel": 1,
      "note": 52,
      "start": 8.8775,
      "duration": 0.272,
      "velocity": 96,
      "chip": "ym2612"
    },
    {
      "channel": 2,
      "note": 66,
      "start": 8.8782,
      "duration": 0.272,
      "velocity": 100,
      "chip": "ym2612"
    },
    {
      "channel": 4,
      "note": 66,
      "start": 8.8792,
      "duration": 0.2715,
      "velocity": 95,
      "chip": "ym2612"
    },
    {
      "channel": 3,
      "note": 81,
      "start": 9.111,
      "duration": 0.0971,
      "velocity": 97,
      "chip": "ym2612"
    },
    {
      "channel": 0,
      "note": 78,
      "start": 9.1494,
      "duration": 0.821,
      "velocity": 97,
      "chip": "ym2612"
    },
    {
      "channel": 1,
      "note": 50,
      "start": 9.15,
      "duration": 0.0577,
      "velocity": 96,
      "chip": "ym2612"
    },
    {
      "channel": 3,
      "note": 78,
      "start": 9.2085,
      "duration": 0.8376,
      "velocity": 97,
      "chip": "ym2612"
    },
    {
      "channel": 2,
      "note": 66,
      "start": 9.4418,
      "duration": 0.3179,
      "velocity": 100,
      "chip": "ym2612"
    },
    {
      "channel": 4,
      "note": 66,
      "start": 9.4426,
      "duration": 0.3181,
      "velocity": 95,
      "chip": "ym2612"
    },
    {
      "channel": 1,
      "note": 57,
      "start": 9.7595,
      "duration": 0.2115,
      "velocity": 96,
      "chip": "ym2612"
    },
    {
      "channel": 2,
      "note": 68,
      "start": 9.7601,
      "duration": 0.2115,
      "velocity": 100,
      "chip": "ym2612"
    },
    {
      "channel": 4,
      "note": 68,
      "start": 9.7611,
      "duration": 0.2115,
      "velocity": 95,
      "chip": "ym2612"
    },
    {
      "channel": 0,
      "note": 76,
      "start": 9.9708,
      "duration": 0.6094,
      "velocity": 97,
      "chip": "ym2612"
    },
    {
      "channel": 1,
      "note": 50,
      "start": 9.9714,
      "duration": 0.0743,
      "velocity": 96,
      "chip": "ym2612"
    },
    {
      "channel": 2,
      "note": 69,
      "start": 9.972,
      "duration": 0.291,
      "velocity": 100,
      "chip": "ym2612"
    },
    {
      "channel": 4,
      "note": 69,
      "start": 9.973,
      "duration": 0.291,
      "velocity": 95,
      "chip": "ym2612"
    },
    {
      "channel": 3,
      "note": 76,
      "start": 10.0466,
      "duration": 0.7676,
      "velocity": 97,
      "chip": "ym2612"
    },
    {
      "channel": 2,
      "note": 68,
      "start": 10.2635,
      "duration": 0.3179,
      "velocity": 100,
      "chip": "ym2612"
    },
    {
      "channel": 4,
      "note": 68,
      "start": 10.2645,
      "duration": 0.3179,
      "velocity": 95,
      "chip": "ym2612"
    },
    {
      "channel": 0,
      "note": 74,
      "start": 10.5807,
      "duration": 0.2674,
      "velocity": 97,
      "chip": "ym2612"
    },
    {
      "channel": 1,
      "note": 57,
      "start": 10.5813,
      "duration": 0.2675,
      "velocity": 96,
      "chip": "ym2612"
    },
    {
      "channel": 2,
      "note": 69,
      "start": 10.5819,
      "duration": 0.2674,
      "velocity": 100,
      "chip": "ym2612"
    },
    {
      "channel": 4,
      "note": 69,
      "start": 10.5829,
      "duration": 0.2675,
      "velocity": 95,
      "chip": "ym2612"
    },
    {
      "channel": 3,
      "note": 74,
      "start": 10.8147,
      "duration": 0.109,
      "velocity": 97,
      "chip": "ym2612"
    },
    {
      "channel": 0,
      "note": 78,
      "start": 10.8485,
      "duration": 0.8377,
      "velocity": 97,
      "chip": "ym2612"
    },
    {
      "channel": 1,
      "note": 59,
      "start": 10.8491,
      "duration": 0.0742,
      "velocity": 96,
      "chip": "ym2612"
    },
    {
      "channel": 2,
      "note": 71,
      "start": 10.8498,
      "duration": 0.838,
      "velocity": 100,
      "chip": "ym2612"
    },
    {
      "channel": 4,
      "note": 71,
      "start": 10.8508,
      "duration": 0.8381,
      "velocity": 95,
      "chip": "ym2612"
    },
    {
      "channel": 3,
      "note": 78,
      "start": 10.9242,
      "duration": 0.8213,
      "velocity": 97,
      "chip": "ym2612"
    },
    {
      "channel": 1,
      "note": 54,
      "start": 11.4587,
      "duration": 0.2282,
      "velocity": 96,
      "chip": "ym2612"
    },
    {
      "channel": 0,
      "note": 80,
      "start": 11.6867,
      "duration": 0.8669,
      "velocity": 97,
      "chip": "ym2612"
    },
    {
      "channel": 1,
      "note": 59,
      "start": 11.6873,
      "duration": 0.0578,
      "velocity": 96,
      "chip": "ym2612"
    },
    {
      "channel": 2,
      "note": 71,
      "start": 11.6878,
      "duration": 0.5925,
      "velocity": 100,
      "chip": "ym2612"
    },
    {
      "channel": 4,
      "note": 71,
      "start": 11.6889,
      "duration": 0.5924,
      "velocity": 95,
      "chip": "ym2612"
    },
    {
      "channel": 3,
      "note": 80,
      "start": 11.746,
      "duration": 0.8831,
      "velocity": 97,
      "chip": "ym2612"
    },
    {
      "channel": 1,
      "note": 54,
      "start": 12.2801,
      "duration": 0.2741,
      "velocity": 96,
      "chip": "ym2612"
    },
    {
      "channel": 2,
      "note": 73,
      "start": 12.2808,
      "duration": 0.274,
      "velocity": 100,
      "chip": "ym2612"
    },
    {
      "channel": 4,
      "note": 73,
      "start": 12.2818,
      "duration": 0.274,
      "velocity": 95,
      "chip": "ym2612"
    },
    {
      "channel": 0,
      "note": 81,
      "start": 12.554,
      "duration": 0.821,
      "velocity": 97,
      "chip": "ym2612"
    },
    {
      "channel": 1,
      "note": 59,
      "start": 12.5546,
      "duration": 0.0741,
      "velocity": 96,
      "chip": "ym2612"
    },
    {
      "channel": 2,
      "note": 71,
      "start": 12.5552,
      "duration": 0.8209,
      "velocity": 100,
      "chip": "ym2612"
    },
    {
      "channel": 4,
      "note": 71,
      "start": 12.5563,
      "duration": 0.8207,
      "velocity": 95,
      "chip": "ym2612"
    },
    {
      "channel": 3,
      "note": 81,
      "start": 12.6296,
      "duration": 0.821,
      "velocity": 97,
      "chip": "ym2612"
    },
    {
      "channel": 1,
      "note": 54,
      "start": 13.1641,
      "duration": 0.2116,
      "velocity": 96,
      "chip": "ym2612"
    },
    {
      "channel": 0,
      "note": 80,
      "start": 13.3754,
      "duration": 0.4054,
      "velocity": 97,
      "chip": "ym2612"
    },
    {
      "channel": 2,
      "note": 59,
      "start": 13.3766,
      "duration": 0.1468,
      "velocity": 100,
      "chip": "ym2612"
    },
    {
      "channel": 4,
      "note": 59,
      "start": 13.3775,
      "duration": 0.1466,
      "velocity": 95,
      "chip": "ym2612"
    },
    {
      "channel": 3,
      "note": 80,
      "start": 13.4511,
      "duration": 0.4059,
      "velocity": 97,
      "chip": "ym2612"
    },
    {
      "channel": 2,
      "note": 66,
      "start": 13.5238,
      "duration": 0.2583,
      "velocity": 100,
      "chip": "ym2612"
    },
    {
      "channel": 4,
      "note": 66,
      "start": 13.5245,
      "duration": 0.2585,
      "velocity": 95,
      "chip": "ym2612"
    },
    {
      "channel": 0,
      "note": 74,
      "start": 13.7813,
      "duration": 0.0748,
      "velocity": 97,
      "chip": "ym2612"
    },
    {
      "channel": 1,
      "note": 54,
      "start": 13.7819,
      "duration": 0.292,
      "velocity": 96,
      "chip": "ym2612"
    },
    {
      "channel": 2,
      "note": 62,
      "start": 13.7825,
      "duration": 0.292,
      "velocity": 100,
      "chip": "ym2612"
    },
    {
      "channel": 4,
      "note": 62,
      "start": 13.7835,
      "duration": 0.2923,
      "velocity": 95,
      "chip": "ym2612"
    },
    {
      "channel": 0,
      "note": 76,
      "start": 13.8565,
      "duration": 0.2167,
      "velocity": 97,
      "chip": "ym2612"
    },
    {
      "channel": 3,
      "note": 74,
      "start": 13.8574,
      "duration": 0.2177,
      "velocity": 97,
      "chip": "ym2612"
    },
    {
      "channel": 0,
      "note": 78,
      "start": 14.0737,
      "duration": 0.6096,
      "velocity": 97,
      "chip": "ym2612"
    },
    {
      "channel": 1,
      "note": 59,
      "start": 14.0743,
      "duration": 0.0744,
      "velocity": 96,
      "chip": "ym2612"
    },
    {
      "channel": 2,
      "note": 69,
      "start": 14.075,
      "duration": 0.8382,
      "velocity": 100,
      "chip": "ym2612"
    },
    {
      "channel": 3,
      "note": 76,
      "start": 14.0756,
      "duration": 0.0735,
      "velocity": 97,
      "chip": "ym2612"
    },
    {
      "channel": 4,
      "note": 69,
      "start": 14.0763,
      "duration": 0.8378,
      "velocity": 95,
      "chip": "ym2612"
    },
    {
      "channel": 3,
      "note": 78,
      "start": 14.1496,
      "duration": 0.5762,
      "velocity": 97,
      "chip": "ym2612"
    },
    {
      "channel": 0,
      "note": 76,
      "start": 14.6838,
      "duration": 0.2278,
      "velocity": 97,
      "chip": "ym2612"
    },
    {
      "channel": 1,
      "note": 54,
      "start": 14.6844,
      "duration": 0.2279,
      "velocity": 96,
      "chip": "ym2612"
    },
    {
      "channel": 3,
      "note": 76,
      "start": 14.7262,
      "duration": 0.2447,
      "velocity": 97,
      "chip": "ym2612"
    },
    {
      "channel": 0,
      "note": 78,
      "start": 14.912,
      "duration": 0.6094,
      "velocity": 97,
      "chip": "ym2612"
    },
    {
      "channel": 1,
      "note": 59,
      "start": 14.9126,
      "duration": 0.0578,
      "velocity": 96,
      "chip": "ym2612"
    },
    {
      "channel": 2,
      "note": 69,
      "start": 14.9131,
      "duration": 0.8685,
      "velocity": 100,
      "chip": "ym2612"
    },
    {
      "channel": 4,
      "note": 69,
      "start": 14.914,
      "duration": 0.8684,
      "velocity": 95,
      "chip": "ym2612"
    },
    {
      "channel": 3,
      "note": 78,
      "start": 14.9714,
      "duration": 0.7676,
      "velocity": 97,
      "chip": "ym2612"
    },
    {
      "channel": 0,
      "note": 81,
      "start": 15.5219,
      "duration": 0.2585,
      "velocity": 97,
      "chip": "ym2612"
    },
    {
      "channel": 1,
      "note": 54,
      "start": 15.5225,
      "duration": 0.2586,
      "velocity": 96,
      "chip": "ym2612"
    },
    {
      "channel": 3,
      "note": 81,
      "start": 15.7395,
      "duration": 0.1166,
      "velocity": 97,
      "chip": "ym2612"
    },
    {
      "channel": 0,
      "note": 80,
      "start": 15.7809,
      "duration": 0.2916,
      "velocity": 97,
      "chip": "ym2612"
    },
    {
      "channel": 1,
      "note": 52,
      "start": 15.7815,
      "duration": 0.0742,
      "velocity": 96,
      "chip": "ym2612"
    },
    {
      "channel": 2,
      "note": 68,
      "start": 15.7821,
      "duration": 0.821,
      "velocity": 100,
      "chip": "ym2612"
    },
    {
      "channel": 4,
      "note": 68,
      "start": 15.7829,
      "duration": 0.8212,
      "velocity": 95,
      "chip": "ym2612"
    },
    {
      "channel": 3,
      "note": 80,
      "start": 15.8566,
      "duration": 0.45,
      "velocity": 97,
      "chip": "ym2612"
    },
    {
      "channel": 0,
      "note": 78,
      "start": 16.0729,
      "duration": 0.3174,
      "velocity": 97,
      "chip": "ym2612"
    },
    {
      "channel": 3,
      "note": 78,
      "start": 16.3071,
      "duration": 0.1261,
      "velocity": 97,
      "chip": "ym2612"
    },
    {
      "channel": 0,
      "note": 76,
      "start": 16.3907,
      "duration": 0.2112,
      "velocity": 97,
      "chip": "ym2612"
    },
    {
      "channel": 1,
      "note": 52,
      "start": 16.3913,
      "duration": 0.2112,
      "velocity": 96,
      "chip": "ym2612"
    },
    {
      "channel": 3,
      "note": 76,
      "start": 16.4335,
      "duration": 0.2442,
      "velocity": 97,
      "chip": "ym2612"
    },
    {
      "channel": 0,
      "note": 78,
      "start": 16.6024,
      "duration": 0.6094,
      "velocity": 97,
      "chip": "ym2612"
    },
    {
      "channel": 1,
      "note": 59,
      "start": 16.6029,
      "duration": 0.0744,
      "velocity": 96,
      "chip": "ym2612"
    },
    {
      "channel": 2,
      "note": 73,
      "start": 16.6036,
      "duration": 0.6094,
      "velocity": 100,
      "chip": "ym2612"
    },
    {
      "channel": 4,
      "note": 73,
      "start": 16.6046,
      "duration": 0.6095,
      "velocity": 95,
      "chip": "ym2612"
    },
    {
      "channel": 3,
      "note": 78,
      "start": 16.6782,
      "duration": 0.7681,
      "velocity": 97,
      "chip": "ym2612"
    },
    {
      "channel": 0,
      "note": 74,
      "start": 17.2123,
      "duration": 0.2333,
      "velocity": 97,
      "chip": "ym2612"
    },
    {
      "channel": 1,
      "note": 54,
      "start": 17.2129,
      "duration": 0.2679,
      "velocity": 96,
      "chip": "ym2612"
    },
    {
      "channel": 2,
      "note": 66,
      "start": 17.2135,
      "duration": 0.2678,
      "velocity": 100,
      "chip": "ym2612"
    },
    {
      "channel": 4,
      "note": 66,
      "start": 17.2145,
      "duration": 0.2681,
      "velocity": 95,
      "chip": "ym2612"
    },
    {
      "channel": 0,
      "note": 76,
      "start": 17.446,
      "duration": 0.0341,
      "velocity": 97,
      "chip": "ym2612"
    },
    {
      "channel": 3,
      "note": 74,
      "start": 17.4468,
      "duration": 0.0352,
      "velocity": 97,
      "chip": "ym2612"
    },
    {
      "channel": 0,
      "note": 78,
      "start": 17.4806,
      "duration": 0.5927,
      "velocity": 97,
      "chip": "ym2612"
    },
    {
      "channel": 1,
      "note": 59,
      "start": 17.4812,
      "duration": 0.0577,
      "velocity": 96,
      "chip": "ym2612"
    },
    {
      "channel": 2,
      "note": 69,
      "start": 17.4818,
      "duration": 0.8214,
      "velocity": 100,
      "chip": "ym2612"
    },
    {
      "channel": 3,
      "note": 76,
      "start": 17.4824,
      "duration": 0.0568,
      "velocity": 97,
      "chip": "ym2612"
    },
    {
      "channel": 4,
      "note": 69,
      "start": 17.4831,
      "duration": 0.821,
      "velocity": 95,
      "chip": "ym2612"
    },
    {
      "channel": 3,
      "note": 78,
      "start": 17.5397,
      "duration": 0.5761,
      "velocity": 97,
      "chip": "ym2612"
    },
    {
      "channel": 0,
      "note": 76,
      "start": 18.0737,
      "duration": 0.2279,
      "velocity": 97,
      "chip": "ym2612"
    },
    {
      "channel": 1,
      "note": 54,
      "start": 18.0744,
      "duration": 0.2279,
      "velocity": 96,
      "chip": "ym2612"
    },
    {
      "channel": 3,
      "note": 76,
      "start": 18.1163,
      "duration": 0.2613,
      "velocity": 97,
      "chip": "ym2612"
    },
    {
      "channel": 0,
      "note": 78,
      "start": 18.3021,
      "duration": 0.6096,
      "velocity": 97,
      "chip": "ym2612"
    },
    {
      "channel": 1,
      "note": 59,
      "start": 18.3027,
      "duration": 0.0745,
      "velocity": 96,
      "chip": "ym2612"
    },
    {
      "channel": 2,
      "note": 69,
      "start": 18.3032,
      "duration": 0.8687,
      "velocity": 100,
      "chip": "ym2612"
    },
    {
      "channel": 4,
      "note": 69,
      "start": 18.3041,
      "duration": 0.8685,
      "velocity": 95,
      "chip": "ym2612"
    },
    {
      "channel": 3,
      "note": 78,
      "start": 18.3781,
      "duration": 0.7514,
      "velocity": 97,
      "chip": "ym2612"
    },
    {
      "channel": 0,
      "note": 81,
      "start": 18.9122,
      "duration": 0.2585,
      "velocity": 97,
      "chip": "ym2612"
    },
    {
      "channel": 1,
      "note": 54,
      "start": 18.9128,
      "duration": 0.2586,
      "velocity": 96,
      "chip": "ym2612"
    },
    {
      "channel": 3,
      "note": 81,
      "start": 19.13,
      "duration": 0.1163,
      "velocity": 97,
      "chip": "ym2612"
    },
    {
      "channel": 0,
      "note": 83,
      "start": 19.1711,
      "duration": 0.3082,
      "velocity": 97,
      "chip": "ym2612"
    },
    {
      "channel": 1,
      "note": 52,
      "start": 19.1717,
      "duration": 0.0741,
      "velocity": 96,
      "chip": "ym2612"
    },
    {
      "channel": 2,
      "note": 68,
      "start": 19.1724,
      "duration": 0.821,
      "velocity": 100,
      "chip": "ym2612"
    },
    {
      "channel": 4,
      "note": 68,
      "start": 19.1731,
      "duration": 0.8212,
      "velocity": 95,
      "chip": "ym2612"
    },
    {
      "channel": 3,
      "note": 83,
      "start": 19.2467,
      "duration": 0.4502,
      "velocity": 97,
      "chip": "ym2612"
    },
    {
      "channel": 0,
      "note": 80,
      "start": 19.4798,
      "duration": 0.3007,
      "velocity": 97,
      "chip": "ym2612"
    },
    {
      "channel": 3,
      "note": 80,
      "start": 19.6974,
      "duration": 0.1257,
      "velocity": 97,
      "chip": "ym2612"
    },
    {
      "channel": 0,
      "note": 76,
      "start": 19.781,
      "duration": 0.2112,
      "velocity": 97,
      "chip": "ym2612"
    },
    {
      "channel": 1,
      "note": 52,
      "start": 19.7816,
      "duration": 0.2112,
      "velocity": 96,
      "chip": "ym2612"
    },
    {
      "channel": 3,
      "note": 76,
      "start": 19.8236,
      "duration": 0.2444,
      "velocity": 97,
      "chip": "ym2612"
    },
    {
      "channel": 0,
      "note": 78,
      "start": 19.9926,
      "duration": 0.6094,
      "velocity": 97,
      "chip": "ym2612"
    },
    {
      "channel": 1,
      "note": 59,
      "start": 19.9932,
      "duration": 0.0743,
      "velocity": 96,
      "chip": "ym2612"
    },
    {
      "channel": 2,
      "note": 71,
      "start": 19.9938,
      "duration": 0.8853,
      "velocity": 100,
      "chip": "ym2612"
    },
    {
      "channel": 4,
      "note": 71,
      "start": 19.9948,
      "duration": 0.8849,
      "velocity": 95,
      "chip": "ym2612"
    },
    {
      "channel": 3,
      "note": 78,
      "start": 20.0684,
      "duration": 0.7679,
      "velocity": 97,
      "chip": "ym2612"
    },
    {
      "channel": 0,
      "note": 74,
      "start": 20.6025,
      "duration": 0.2754,
      "velocity": 97,
      "chip": "ym2612"
    },
    {
      "channel": 1,
      "note": 59,
      "start": 20.6031,
      "duration": 0.2755,
      "velocity": 96,
      "chip": "ym2612"
    },
    {
      "channel": 3,
      "note": 74,
      "start": 20.8368,
      "duration": 0.1002,
      "velocity": 97,
      "chip": "ym2612"
    },
    {
      "channel": 0,
      "note": 76,
      "start": 20.8784,
      "duration": 0.6094,
      "velocity": 97,
      "chip": "ym2612"
    },
    {
      "channel": 1,
      "note": 52,
      "start": 20.879,
      "duration": 0.0577,
      "velocity": 96,
      "chip": "ym2612"
    },
    {
      "channel": 3,
      "note": 76,
      "start": 20.9375,
      "duration": 0.585,
      "velocity": 97,
      "chip": "ym2612"
    },
    {
      "channel": 2,
      "note": 64,
      "start": 21.1708,
      "duration": 0.3182,
      "velocity": 100,
      "chip": "ym2612"
    },
    {
      "channel": 4,
      "note": 64,
      "start": 21.1716,
      "duration": 0.3184,
      "velocity": 95,
      "chip": "ym2612"
    },
    {
      "channel": 0,
      "note": 74,
      "start": 21.4883,
      "duration": 0.2112,
      "velocity": 97,
      "chip": "ym2612"
    },
    {
      "channel": 1,
      "note": 59,
      "start": 21.4889,
      "duration": 0.2112,
      "velocity": 96,
      "chip": "ym2612"
    },
    {
      "channel": 2,
      "note": 66,
      "start": 21.4895,
      "duration": 0.2112,
      "velocity": 100,
      "chip": "ym2612"
    },
    {
      "channel": 4,
      "note": 66,
      "start": 21.4905,
      "duration": 0.2111,
      "velocity": 95,
      "chip": "ym2612"
    },
    {
      "channel": 3,
      "note": 74,
      "start": 21.523,
      "duration": 0.2523,
      "velocity": 97,
      "chip": "ym2612"
    },
    {
      "channel": 0,
      "note": 76,
      "start": 21.6999,
      "duration": 0.6095,
      "velocity": 97,
      "chip": "ym2612"
    },
    {
      "channel": 1,
      "note": 52,
      "start": 21.7005,
      "duration": 0.0744,
      "velocity": 96,
      "chip": "ym2612"
    },
    {
      "channel": 2,
      "note": 68,
      "start": 21.7012,
      "duration": 0.6095,
      "velocity": 100,
      "chip": "ym2612"
    },
    {
      "channel": 4,
      "note": 68,
      "start": 21.702,
      "duration": 0.6097,
      "velocity": 95,
      "chip": "ym2612"
    },
    {
      "channel": 3,
      "note": 76,
      "start": 21.7758,
      "duration": 0.7677,
      "velocity": 97,
      "chip": "ym2612"
    },
    {
      "channel": 0,
      "note": 81,
      "start": 22.3099,
      "duration": 0.2674,
      "velocity": 97,
      "chip": "ym2612"
    },
    {
      "channel": 1,
      "note": 52,
      "start": 22.3105,
      "duration": 0.2675,
      "velocity": 96,
      "chip": "ym2612"
    },
    {
      "channel": 2,
      "note": 66,
      "start": 22.3111,
      "duration": 0.2674,
      "velocity": 100,
      "chip": "ym2612"
    },
    {
      "channel": 4,
      "note": 66,
      "start": 22.3121,
      "duration": 0.2671,
      "velocity": 95,
      "chip": "ym2612"
    },
    {
      "channel": 3,
      "note": 81,
      "start": 22.5439,
      "duration": 0.1089,
      "velocity": 97,
      "chip": "ym2612"
    },
    {
      "channel": 0,
      "note": 78,
      "start": 22.5777,
      "duration": 0.8376,
      "velocity": 97,
      "chip": "ym2612"
    },
    {
      "channel": 1,
      "note": 50,
      "start": 22.5783,
      "duration": 0.0741,
      "velocity": 96,
      "chip": "ym2612"
    },
    {
      "channel": 3,
      "note": 78,
      "start": 22.6534,
      "duration": 0.8214,
      "velocity": 97,
      "chip": "ym2612"
    },
    {
      "channel": 2,
      "note": 66,
      "start": 22.8868,
      "duration": 0.3012,
      "velocity": 100,
      "chip": "ym2612"
    },
    {
      "channel": 4,
      "note": 66,
      "start": 22.8876,
      "duration": 0.3014,
      "velocity": 95,
      "chip": "ym2612"
    },
    {
      "channel": 1,
      "note": 57,
      "start": 23.1878,
      "duration": 0.2282,
      "velocity": 96,
      "chip": "ym2612"
    },
    {
      "channel": 2,
      "note": 68,
      "start": 23.1884,
      "duration": 0.2281,
      "velocity": 100,
      "chip": "ym2612"
    },
    {
      "channel": 4,
      "note": 68,
      "start": 23.1894,
      "duration": 0.2281,
      "velocity": 95,
      "chip": "ym2612"
    },
    {
      "channel": 0,
      "note": 76,
      "start": 23.4158,
      "duration": 0.5928,
      "velocity": 97,
      "chip": "ym2612"
    },
    {
      "channel": 1,
      "note": 50,
      "start": 23.4164,
      "duration": 0.0579,
      "velocity": 96,
      "chip": "ym2612"
    },
    {
      "channel": 2,
      "note": 69,
      "start": 23.417,
      "duration": 0.2912,
      "velocity": 100,
      "chip": "ym2612"
    },
    {
      "channel": 4,
      "note": 69,
      "start": 23.418,
      "duration": 0.2909,
      "velocity": 95,
      "chip": "ym2612"
    },
    {
      "channel": 3,
      "note": 76,
      "start": 23.4752,
      "duration": 0.7674,
      "velocity": 97,
      "chip": "ym2612"
    },
    {
      "channel": 2,
      "note": 68,
      "start": 23.7085,
      "duration": 0.3012,
      "velocity": 100,
      "chip": "ym2612"
    },
    {
      "channel": 4,
      "note": 68,
      "start": 23.7093,
      "duration": 0.3015,
      "velocity": 95,
      "chip": "ym2612"
    },
    {
      "channel": 0,
      "note": 74,
      "start": 24.009,
      "duration": 0.2721,
      "velocity": 97,
      "chip": "ym2612"
    },
    {
      "channel": 1,
      "note": 57,
      "start": 24.0096,
      "duration": 0.2722,
      "velocity": 96,
      "chip": "ym2612"
    },
    {
      "channel": 2,
      "note": 69,
      "start": 24.0102,
      "duration": 0.2721,
      "velocity": 100,
      "chip": "ym2612"
    },
    {
      "channel": 4,
      "note": 69,
      "start": 24.0112,
      "duration": 0.272,
      "velocity": 95,
      "chip": "ym2612"
    },
    {
      "channel": 3,
      "note": 74,
      "start": 24.2431,
      "duration": 0.1137,
      "velocity": 97,
      "chip": "ym2612"
    },
    {
      "channel": 0,
      "note": 78,
      "start": 24.2816,
      "duration": 0.821,
      "velocity": 97,
      "chip": "ym2612"
    },
    {
      "channel": 1,
      "note": 59,
      "start": 24.2822,
      "duration": 0.0741,
      "velocity": 96,
      "chip": "ym2612"
    },
    {
      "channel": 2,
      "note": 71,
      "start": 24.2828,
      "duration": 0.8212,
      "velocity": 100,
      "chip": "ym2612"
    },
    {
      "channel": 4,
      "note": 71,
      "start": 24.2837,
      "duration": 0.8213,
      "velocity": 95,
      "chip": "ym2612"
    },
    {
      "channel": 3,
      "note": 78,
      "start": 24.3572,
      "duration": 0.8212,
      "velocity": 97,
      "chip": "ym2612"
    },
    {
      "channel": 1,
      "note": 54,
      "start": 24.8917,
      "duration": 0.2115,
      "velocity": 96,
      "chip": "ym2612"
    },
    {
      "channel": 0,
      "note": 80,
      "start": 25.103,
      "duration": 0.8817,
      "velocity": 97,
      "chip": "ym2612"
    },
    {
      "channel": 1,
      "note": 59,
      "start": 25.1036,
      "duration": 0.0744,
      "velocity": 96,
      "chip": "ym2612"
    },
    {
      "channel": 2,
      "note": 71,
      "start": 25.1041,
      "duration": 0.6094,
      "velocity": 100,
      "chip": "ym2612"
    },
    {
      "channel": 4,
      "note": 71,
      "start": 25.105,
      "duration": 0.6095,
      "velocity": 95,
      "chip": "ym2612"
    },
    {
      "channel": 3,
      "note": 80,
      "start": 25.1789,
      "duration": 0.8815,
      "velocity": 97,
      "chip": "ym2612"
    },
    {
      "channel": 1,
      "note": 54,
      "start": 25.7133,
      "duration": 0.2721,
      "velocity": 96,
      "chip": "ym2612"
    },
    {
      "channel": 2,
      "note": 73,
      "start": 25.7139,
      "duration": 0.272,
      "velocity": 100,
      "chip": "ym2612"
    },
    {
      "channel": 4,
      "note": 73,
      "start": 25.7149,
      "duration": 0.2718,
      "velocity": 95,
      "chip": "ym2612"
    },
    {
      "channel": 0,
      "note": 81,
      "start": 25.9851,
      "duration": 0.8376,
      "velocity": 97,
      "chip": "ym2612"
    },
    {
      "channel": 1,
      "note": 59,
      "start": 25.9858,
      "duration": 0.0742,
      "velocity": 96,
      "chip": "ym2612"
    },
    {
      "channel": 2,
      "note": 71,
      "start": 25.9864,
      "duration": 0.8382,
      "velocity": 100,
      "chip": "ym2612"
    },
    {
      "channel": 4,
      "note": 71,
      "start": 25.9872,
      "duration": 0.8387,
      "velocity": 95,
      "chip": "ym2612"
    },
    {
      "channel": 3,
      "note": 81,
      "start": 26.0608,
      "duration": 0.8215,
      "velocity": 97,
      "chip": "ym2612"
    },
    {
      "channel": 1,
      "note": 54,
      "start": 26.5953,
      "duration": 0.2283,
      "velocity": 96,
      "chip": "ym2612"
    },
    {
      "channel": 0,
      "note": 80,
      "start": 26.8233,
      "duration": 0.61,
      "velocity": 97,
      "chip": "ym2612"
    },
    {
      "channel": 1,
      "note": 59,
      "start": 26.8239,
      "duration": 0.0578,
      "velocity": 96,
      "chip": "ym2612"
    },
    {
      "channel": 2,
      "note": 71,
      "start": 26.8246,
      "duration": 0.8721,
      "velocity": 100,
      "chip": "ym2612"
    },
    {
      "channel": 4,
      "note": 71,
      "start": 26.8259,
      "duration": 0.8718,
      "velocity": 95,
      "chip": "ym2612"
    },
    {
      "channel": 3,
      "note": 80,
      "start": 26.8827,
      "duration": 0.7679,
      "velocity": 97,
      "chip": "ym2612"
    },
    {
      "channel": 0,
      "note": 80,
      "start": 27.4332,
      "duration": 0.2622,
      "velocity": 97,
      "chip": "ym2612"
    },
    {
      "channel": 1,
      "note": 54,
      "start": 27.4341,
      "duration": 0.2621,
      "velocity": 96,
      "chip": "ym2612"
    },
    {
      "channel": 3,
      "note": 80,
      "start": 27.6507,
      "duration": 0.1203,
      "velocity": 97,
      "chip": "ym2612"
    },
    {
      "channel": 0,
      "note": 86,
      "start": 27.6959,
      "duration": 0.9019,
      "velocity": 97,
      "chip": "ym2612"
    },
    {
      "channel": 1,
      "note": 55,
      "start": 27.6966,
      "duration": 0.6092,
      "velocity": 96,
      "chip": "ym2612"
    },
    {
      "channel": 2,
      "note": 71,
      "start": 27.6972,
      "duration": 0.9018,
      "velocity": 100,
      "chip": "ym2612"
    },
    {
      "channel": 4,
      "note": 71,
      "start": 27.6981,
      "duration": 0.9017,
      "velocity": 95,
      "chip": "ym2612"
    },
    {
      "channel": 3,
      "note": 86,
      "start": 27.7714,
      "duration": 0.9021,
      "velocity": 97,
      "chip": "ym2612"
    },
    {
      "channel": 1,
      "note": 55,
      "start": 28.3061,
      "duration": 0.2924,
      "velocity": 96,
      "chip": "ym2612"
    },
    {
      "channel": 0,
      "note": 86,
      "start": 28.5983,
      "duration": 0.3086,
      "velocity": 97,
      "chip": "ym2612"
    },
    {
      "channel": 1,
      "note": 55,
      "start": 28.5988,
      "duration": 0.601,
      "velocity": 96,
      "chip": "ym2612"
    },
    {
      "channel": 2,
      "note": 67,
      "start": 28.5995,
      "duration": 0.3081,
      "velocity": 100,
      "chip": "ym2612"
    },
    {
      "channel": 4,
      "note": 67,
      "start": 28.6003,
      "duration": 0.3081,
      "velocity": 95,
      "chip": "ym2612"
    },
    {
      "channel": 3,
      "note": 86,
      "start": 28.6739,
      "duration": 0.2921,
      "velocity": 97,
      "chip": "ym2612"
    },
    {
      "channel": 0,
      "note": 88,
      "start": 28.9073,
      "duration": 0.2919,
      "velocity": 97,
      "chip": "ym2612"
    },
    {
      "channel": 2,
      "note": 71,
      "start": 28.908,
      "duration": 0.2924,
      "velocity": 100,
      "chip": "ym2612"
    },
    {
      "channel": 4,
      "note": 71,
      "start": 28.9088,
      "duration": 0.2924,
      "velocity": 95,
      "chip": "ym2612"
    },
    {
      "channel": 3,
      "note": 88,
      "start": 28.9665,
      "duration": 0.3171,
      "velocity": 97,
      "chip": "ym2612"
    },
    {
      "channel": 0,
      "note": 86,
      "start": 29.1997,
      "duration": 0.3173,
      "velocity": 97,
      "chip": "ym2612"
    },
    {
      "channel": 1,
      "note": 55,
      "start": 29.2002,
      "duration": 0.3174,
      "velocity": 96,
      "chip": "ym2612"
    },
    {
      "channel": 2,
      "note": 78,
      "start": 29.2009,
      "duration": 0.3174,
      "velocity": 100,
      "chip": "ym2612"
    },
    {
      "channel": 4,
      "note": 78,
      "start": 29.2016,
      "duration": 0.3174,
      "velocity": 95,
      "chip": "ym2612"
    },
    {
      "channel": 3,
      "note": 86,
      "start": 29.284,
      "duration": 0.2922,
      "velocity": 97,
      "chip": "ym2612"
    },
    {
      "channel": 0,
      "note": 85,
      "start": 29.5175,
      "duration": 0.9021,
      "velocity": 97,
      "chip": "ym2612"
    },
    {
      "channel": 1,
      "note": 57,
      "start": 29.518,
      "duration": 0.5927,
      "velocity": 96,
      "chip": "ym2612"
    },
    {
      "channel": 2,
      "note": 76,
      "start": 29.5187,
      "duration": 0.9021,
      "velocity": 100,
      "chip": "ym2612"
    },
    {
      "channel": 4,
      "note": 76,
      "start": 29.5195,
      "duration": 0.9024,
      "velocity": 95,
      "chip": "ym2612"
    },
    {
      "channel": 3,
      "note": 85,
      "start": 29.5766,
      "duration": 0.9272,
      "velocity": 97,
      "chip": "ym2612"
    },
    {
      "channel": 1,
      "note": 57,
      "start": 30.1111,
      "duration": 0.3091,
      "velocity": 96,
      "chip": "ym2612"
    },
    {
      "channel": 0,
      "note": 82,
      "start": 30.42,
      "duration": 0.4141,
      "velocity": 97,
      "chip": "ym2612"
    },
    {
      "channel": 1,
      "note": 58,
      "start": 30.4206,
      "duration": 0.4141,
      "velocity": 96,
      "chip": "ym2612"
    },
    {
      "channel": 2,
      "note": 61,
      "start": 30.4213,
      "duration": 0.1385,
      "velocity": 100,
      "chip": "ym2612"
    },
    {
      "channel": 4,
      "note": 61,
      "start": 30.4224,
      "duration": 0.1385,
      "velocity": 95,
      "chip": "ym2612"
    },
    {
      "channel": 3,
      "note": 82,
      "start": 30.5043,
      "duration": 0.3649,
      "velocity": 97,
      "chip": "ym2612"
    },
    {
      "channel": 2,
      "note": 66,
      "start": 30.5603,
      "duration": 0.275,
      "velocity": 100,
      "chip": "ym2612"
    },
    {
      "channel": 4,
      "note": 66,
      "start": 30.5613,
      "duration": 0.275,
      "velocity": 95,
      "chip": "ym2612"
    },
    {
      "channel": 0,
      "note": 74,
      "start": 30.8346,
      "duration": 0.0338,
      "velocity": 97,
      "chip": "ym2612"
    },
    {
      "channel": 1,
      "note": 54,
      "start": 30.8351,
      "duration": 19.9762,
      "velocity": 96,
      "chip": "ym2612"
    },
    {
      "channel": 2,
      "note": 62,
      "start": 30.8358,
      "duration": 19.9756,
      "velocity": 100,
      "chip": "ym2612"
    },
    {
      "channel": 4,
      "note": 62,
      "start": 30.8367,
      "duration": 19.9746,
      "velocity": 95,
      "chip": "ym2612"
    },
    {
      "channel": 0,
      "note": 76,
      "start": 30.8688,
      "duration": 19.9425,
      "velocity": 97,
      "chip": "ym2612"
    },
    {
      "channel": 3,
      "note": 74,
      "start": 30.8697,
      "duration": 19.9417,
      "velocity": 97,
      "chip": "ym2612"
    }
  ]
}