{
  "track_name": "31 - Point Zero Lake",
  "duration_sec": 93.573,
  "sample_rate": 44100,
  "note_count": 367,
  "unique_pitches": 36,
  "pitch_range": 67,
  "avg_note_duration": 1.0548,
  "reconstruction_stats": {
    "notes_reconstructed": 367,
    "keyon_events": 367,
    "keyoff_events": 363,
    "orphan_keyons": 4,
    "unique_pitches": 36,
    "pitch_range": 67,
    "avg_duration_sec": 1.0548
  },
  "metadata": {
    "source": "P\\Pier Solar and the Great Architects\\31 - Point Zero Lake.vgz"
  },
  "notes": [
    {
      "channel": 0,
      "note": 47,
      "start": 0.1987,
      "duration": 6.3437,
      "velocity": 114,
      "chip": "ym2612"
    },
    {
      "channel": 3,
      "note": 59,
      "start": 0.1991,
      "duration": 0.7927,
      "velocity": 87,
      "chip": "ym2612"
    },
    {
      "channel": 4,
      "note": 54,
      "start": 0.1993,
      "duration": 0.7927,
      "velocity": 87,
      "chip": "ym2612"
    },
    {
      "channel": 3,
      "note": 61,
      "start": 0.9919,
      "duration": 0.7928,
      "velocity": 87,
      "chip": "ym2612"
    },
    {
      "channel": 4,
      "note": 57,
      "start": 0.9921,
      "duration": 0.7929,
      "velocity": 87,
      "chip": "ym2612"
    },
    {
      "channel": 3,
      "note": 62,
      "start": 1.7849,
      "duration": 0.7928,
      "velocity": 87,
      "chip": "ym2612"
    },
    {
      "channel": 4,
      "note": 59,
      "start": 1.7851,
      "duration": 0.7928,
      "velocity": 87,
      "chip": "ym2612"
    },
    {
      "channel": 3,
      "note": 64,
      "start": 2.5778,
      "duration": 0.7929,
      "velocity": 87,
      "chip": "ym2612"
    },
    {
      "channel": 4,
      "note": 61,
      "start": 2.5781,
      "duration": 0.7929,
      "velocity": 87,
      "chip": "ym2612"
    },
    {
      "channel": 3,
      "note": 66,
      "start": 3.3708,
      "duration": 3.1722,
      "velocity": 87,
      "chip": "ym2612"
    },
    {
      "channel": 4,
      "note": 62,
      "start": 3.3711,
      "duration": 3.1722,
      "velocity": 87,
      "chip": "ym2612"
    },
    {
      "channel": 2,
      "note": 78,
      "start": 4.5605,
      "duration": 0.1978,
      "velocity": 98,
      "chip": "ym2612"
    },
    {
      "channel": 2,
      "note": 83,
      "start": 4.7585,
      "duration": 0.1981,
      "velocity": 98,
      "chip": "ym2612"
    },
    {
      "channel": 2,
      "note": 90,
      "start": 4.9567,
      "duration": 0.1981,
      "velocity": 98,
      "chip": "ym2612"
    },
    {
      "channel": 2,
      "note": 78,
      "start": 5.1551,
      "duration": 0.198,
      "velocity": 98,
      "chip": "ym2612"
    },
    {
      "channel": 2,
      "note": 83,
      "start": 5.3532,
      "duration": 0.1981,
      "velocity": 98,
      "chip": "ym2612"
    },
    {
      "channel": 2,
      "note": 90,
      "start": 5.5515,
      "duration": 0.1981,
      "velocity": 98,
      "chip": "ym2612"
    },
    {
      "channel": 2,
      "note": 78,
      "start": 5.7498,
      "duration": 0.198,
      "velocity": 98,
      "chip": "ym2612"
    },
    {
      "channel": 2,
      "note": 83,
      "start": 5.948,
      "duration": 0.1981,
      "velocity": 98,
      "chip": "ym2612"
    },
    {
      "channel": 2,
      "note": 90,
      "start": 6.1462,
      "duration": 0.1981,
      "velocity": 98,
      "chip": "ym2612"
    },
    {
      "channel": 2,
      "note": 78,
      "start": 6.3446,
      "duration": 0.1982,
      "velocity": 98,
      "chip": "ym2612"
    },
    {
      "channel": 0,
      "note": 47,
      "start": 6.5426,
      "duration": 6.3437,
      "velocity": 114,
      "chip": "ym2612"
    },
    {
      "channel": 2,
      "note": 83,
      "start": 6.5429,
      "duration": 0.1979,
      "velocity": 98,
      "chip": "ym2612"
    },
    {
      "channel": 3,
      "note": 66,
      "start": 6.5432,
      "duration": 0.7924,
      "velocity": 87,
      "chip": "ym2612"
    },
    {
      "channel": 4,
      "note": 59,
      "start": 6.5434,
      "duration": 0.7925,
      "velocity": 87,
      "chip": "ym2612"
    },
    {
      "channel": 2,
      "note": 90,
      "start": 6.741,
      "duration": 4.1632,
      "velocity": 98,
      "chip": "ym2612"
    },
    {
      "channel": 3,
      "note": 69,
      "start": 7.3358,
      "duration": 0.7928,
      "velocity": 87,
      "chip": "ym2612"
    },
    {
      "channel": 4,
      "note": 61,
      "start": 7.336,
      "duration": 0.7928,
      "velocity": 87,
      "chip": "ym2612"
    },
    {
      "channel": 3,
      "note": 71,
      "start": 8.1287,
      "duration": 0.7929,
      "velocity": 87,
      "chip": "ym2612"
    },
    {
      "channel": 4,
      "note": 62,
      "start": 8.129,
      "duration": 0.7929,
      "velocity": 87,
      "chip": "ym2612"
    },
    {
      "channel": 3,
      "note": 73,
      "start": 8.9217,
      "duration": 0.7928,
      "velocity": 87,
      "chip": "ym2612"
    },
    {
      "channel": 4,
      "note": 64,
      "start": 8.922,
      "duration": 0.7928,
      "velocity": 87,
      "chip": "ym2612"
    },
    {
      "channel": 3,
      "note": 74,
      "start": 9.7147,
      "duration": 3.1722,
      "velocity": 87,
      "chip": "ym2612"
    },
    {
      "channel": 4,
      "note": 66,
      "start": 9.715,
      "duration": 3.1722,
      "velocity": 87,
      "chip": "ym2612"
    },
    {
      "channel": 2,
      "note": 83,
      "start": 10.9044,
      "duration": 0.1978,
      "velocity": 98,
      "chip": "ym2612"
    },
    {
      "channel": 2,
      "note": 95,
      "start": 11.1024,
      "duration": 0.1981,
      "velocity": 98,
      "chip": "ym2612"
    },
    {
      "channel": 2,
      "note": 102,
      "start": 11.3006,
      "duration": 0.1981,
      "velocity": 98,
      "chip": "ym2612"
    },
    {
      "channel": 2,
      "note": 83,
      "start": 11.499,
      "duration": 0.198,
      "velocity": 98,
      "chip": "ym2612"
    },
    {
      "channel": 2,
      "note": 95,
      "start": 11.6971,
      "duration": 0.1981,
      "velocity": 98,
      "chip": "ym2612"
    },
    {
      "channel": 2,
      "note": 102,
      "start": 11.8954,
      "duration": 0.1981,
      "velocity": 98,
      "chip": "ym2612"
    },
    {
      "channel": 2,
      "note": 83,
      "start": 12.0937,
      "duration": 0.198,
      "velocity": 98,
      "chip": "ym2612"
    },
    {
      "channel": 2,
      "note": 95,
      "start": 12.2918,
      "duration": 0.1981,
      "velocity": 98,
      "chip": "ym2612"
    },
    {
      "channel": 2,
      "note": 102,
      "start": 12.4901,
      "duration": 0.1981,
      "velocity": 98,
      "chip": "ym2612"
    },
    {
      "channel": 2,
      "note": 83,
      "start": 12.6884,
      "duration": 0.1982,
      "velocity": 98,
      "chip": "ym2612"
    },
    {
      "channel": 0,
      "note": 47,
      "start": 12.8864,
      "duration": 3.1718,
      "velocity": 114,
      "chip": "ym2612"
    },
    {
      "channel": 2,
      "note": 95,
      "start": 12.8868,
      "duration": 0.1979,
      "velocity": 98,
      "chip": "ym2612"
    },
    {
      "channel": 3,
      "note": 59,
      "start": 12.887,
      "duration": 0.7925,
      "velocity": 87,
      "chip": "ym2612"
    },
    {
      "channel": 4,
      "note": 62,
      "start": 12.8873,
      "duration": 0.7925,
      "velocity": 87,
      "chip": "ym2612"
    },
    {
      "channel": 2,
      "note": 102,
      "start": 13.0848,
      "duration": 0.198,
      "velocity": 98,
      "chip": "ym2612"
    },
    {
      "channel": 3,
      "note": 61,
      "start": 13.6796,
      "duration": 0.7929,
      "velocity": 87,
      "chip": "ym2612"
    },
    {
      "channel": 4,
      "note": 64,
      "start": 13.6799,
      "duration": 0.7929,
      "velocity": 87,
      "chip": "ym2612"
    },
    {
      "channel": 3,
      "note": 62,
      "start": 14.4727,
      "duration": 0.7928,
      "velocity": 87,
      "chip": "ym2612"
    },
    {
      "channel": 4,
      "note": 66,
      "start": 14.4729,
      "duration": 0.7928,
      "velocity": 87,
      "chip": "ym2612"
    },
    {
      "channel": 3,
      "note": 66,
      "start": 15.2656,
      "duration": 0.793,
      "velocity": 87,
      "chip": "ym2612"
    },
    {
      "channel": 4,
      "note": 69,
      "start": 15.2659,
      "duration": 0.793,
      "velocity": 87,
      "chip": "ym2612"
    },
    {
      "channel": 0,
      "note": 45,
      "start": 16.0584,
      "duration": 3.1718,
      "velocity": 114,
      "chip": "ym2612"
    },
    {
      "channel": 3,
      "note": 57,
      "start": 16.0588,
      "duration": 3.1722,
      "velocity": 87,
      "chip": "ym2612"
    },
    {
      "channel": 4,
      "note": 64,
      "start": 16.059,
      "duration": 3.1722,
      "velocity": 87,
      "chip": "ym2612"
    },
    {
      "channel": 2,
      "note": 88,
      "start": 16.8516,
      "duration": 0.198,
      "velocity": 98,
      "chip": "ym2612"
    },
    {
      "channel": 2,
      "note": 95,
      "start": 17.0498,
      "duration": 0.1994,
      "velocity": 98,
      "chip": "ym2612"
    },
    {
      "channel": 2,
      "note": 100,
      "start": 17.2493,
      "duration": 0.7918,
      "velocity": 98,
      "chip": "ym2612"
    },
    {
      "channel": 1,
      "note": 88,
      "start": 17.6446,
      "duration": 0.198,
      "velocity": 98,
      "chip": "ym2612"
    },
    {
      "channel": 1,
      "note": 95,
      "start": 17.8427,
      "duration": 0.1981,
      "velocity": 98,
      "chip": "ym2612"
    },
    {
      "channel": 1,
      "note": 100,
      "start": 18.0409,
      "duration": 0.7929,
      "velocity": 98,
      "chip": "ym2612"
    },
    {
      "channel": 2,
      "note": 88,
      "start": 18.0413,
      "duration": 0.1978,
      "velocity": 98,
      "chip": "ym2612"
    },
    {
      "channel": 2,
      "note": 100,
      "start": 18.2392,
      "duration": 0.1981,
      "velocity": 98,
      "chip": "ym2612"
    },
    {
      "channel": 2,
      "note": 98,
      "start": 18.4375,
      "duration": 0.1982,
      "velocity": 98,
      "chip": "ym2612"
    },
    {
      "channel": 2,
      "note": 97,
      "start": 18.6358,
      "duration": 0.1984,
      "velocity": 98,
      "chip": "ym2612"
    },
    {
      "channel": 1,
      "note": 88,
      "start": 18.8341,
      "duration": 0.198,
      "velocity": 98,
      "chip": "ym2612"
    },
    {
      "channel": 2,
      "note": 95,
      "start": 18.8343,
      "duration": 0.198,
      "velocity": 98,
      "chip": "ym2612"
    },
    {
      "channel": 1,
      "note": 100,
      "start": 19.0322,
      "duration": 0.1983,
      "velocity": 98,
      "chip": "ym2612"
    },
    {
      "channel": 2,
      "note": 97,
      "start": 19.0324,
      "duration": 0.1983,
      "velocity": 98,
      "chip": "ym2612"
    },
    {
      "channel": 0,
      "note": 55,
      "start": 19.2303,
      "duration": 1.5859,
      "velocity": 114,
      "chip": "ym2612"
    },
    {
      "channel": 1,
      "note": 98,
      "start": 19.2306,
      "duration": 0.1979,
      "velocity": 98,
      "chip": "ym2612"
    },
    {
      "channel": 2,
      "note": 98,
      "start": 19.2308,
      "duration": 0.1979,
      "velocity": 98,
      "chip": "ym2612"
    },
    {
      "channel": 3,
      "note": 59,
      "start": 19.2311,
      "duration": 0.7927,
      "velocity": 87,
      "chip": "ym2612"
    },
    {
      "channel": 4,
      "note": 62,
      "start": 19.2314,
      "duration": 0.7927,
      "velocity": 87,
      "chip": "ym2612"
    },
    {
      "channel": 1,
      "note": 97,
      "start": 19.4287,
      "duration": 0.1981,
      "velocity": 98,
      "chip": "ym2612"
    },
    {
      "channel": 2,
      "note": 97,
      "start": 19.4289,
      "duration": 0.1981,
      "velocity": 98,
      "chip": "ym2612"
    },
    {
      "channel": 1,
      "note": 95,
      "start": 19.6269,
      "duration": 0.1981,
      "velocity": 98,
      "chip": "ym2612"
    },
    {
      "channel": 2,
      "note": 95,
      "start": 19.6272,
      "duration": 0.1981,
      "velocity": 98,
      "chip": "ym2612"
    },
    {
      "channel": 1,
      "note": 97,
      "start": 19.8252,
      "duration": 0.1981,
      "velocity": 98,
      "chip": "ym2612"
    },
    {
      "channel": 2,
      "note": 93,
      "start": 19.8254,
      "duration": 0.1981,
      "velocity": 98,
      "chip": "ym2612"
    },
    {
      "channel": 1,
      "note": 98,
      "start": 20.0234,
      "duration": 0.1981,
      "velocity": 98,
      "chip": "ym2612"
    },
    {
      "channel": 2,
      "note": 90,
      "start": 20.0236,
      "duration": 0.1981,
      "velocity": 98,
      "chip": "ym2612"
    },
    {
      "channel": 3,
      "note": 62,
      "start": 20.0239,
      "duration": 0.7931,
      "velocity": 87,
      "chip": "ym2612"
    },
    {
      "channel": 4,
      "note": 66,
      "start": 20.0242,
      "duration": 0.7931,
      "velocity": 87,
      "chip": "ym2612"
    },
    {
      "channel": 1,
      "note": 97,
      "start": 20.2216,
      "duration": 0.1983,
      "velocity": 98,
      "chip": "ym2612"
    },
    {
      "channel": 2,
      "note": 88,
      "start": 20.2219,
      "duration": 0.1983,
      "velocity": 98,
      "chip": "ym2612"
    },
    {
      "channel": 1,
      "note": 95,
      "start": 20.42,
      "duration": 0.198,
      "velocity": 98,
      "chip": "ym2612"
    },
    {
      "channel": 2,
      "note": 86,
      "start": 20.4203,
      "duration": 0.198,
      "velocity": 98,
      "chip": "ym2612"
    },
    {
      "channel": 1,
      "note": 93,
      "start": 20.6181,
      "duration": 0.1983,
      "velocity": 98,
      "chip": "ym2612"
    },
    {
      "channel": 2,
      "note": 83,
      "start": 20.6184,
      "duration": 0.1983,
      "velocity": 98,
      "chip": "ym2612"
    },
    {
      "channel": 0,
      "note": 57,
      "start": 20.8163,
      "duration": 1.5858,
      "velocity": 114,
      "chip": "ym2612"
    },
    {
      "channel": 1,
      "note": 90,
      "start": 20.8166,
      "duration": 0.1979,
      "velocity": 98,
      "chip": "ym2612"
    },
    {
      "channel": 2,
      "note": 102,
      "start": 20.8168,
      "duration": 0.1979,
      "velocity": 98,
      "chip": "ym2612"
    },
    {
      "channel": 3,
      "note": 57,
      "start": 20.8171,
      "duration": 0.7926,
      "velocity": 87,
      "chip": "ym2612"
    },
    {
      "channel": 4,
      "note": 61,
      "start": 20.8174,
      "duration": 0.7926,
      "velocity": 87,
      "chip": "ym2612"
    },
    {
      "channel": 1,
      "note": 88,
      "start": 21.0146,
      "duration": 0.1981,
      "velocity": 98,
      "chip": "ym2612"
    },
    {
      "channel": 2,
      "note": 100,
      "start": 21.0149,
      "duration": 0.1981,
      "velocity": 98,
      "chip": "ym2612"
    },
    {
      "channel": 1,
      "note": 86,
      "start": 21.2129,
      "duration": 0.1981,
      "velocity": 98,
      "chip": "ym2612"
    },
    {
      "channel": 2,
      "note": 98,
      "start": 21.2132,
      "duration": 0.1981,
      "velocity": 98,
      "chip": "ym2612"
    },
    {
      "channel": 1,
      "note": 83,
      "start": 21.4111,
      "duration": 0.1981,
      "velocity": 98,
      "chip": "ym2612"
    },
    {
      "channel": 2,
      "note": 97,
      "start": 21.4114,
      "duration": 0.1981,
      "velocity": 98,
      "chip": "ym2612"
    },
    {
      "channel": 1,
      "note": 102,
      "start": 21.6094,
      "duration": 0.1981,
      "velocity": 98,
      "chip": "ym2612"
    },
    {
      "channel": 2,
      "note": 95,
      "start": 21.6096,
      "duration": 0.1981,
      "velocity": 98,
      "chip": "ym2612"
    },
    {
      "channel": 3,
      "note": 61,
      "start": 21.6099,
      "duration": 0.793,
      "velocity": 87,
      "chip": "ym2612"
    },
    {
      "channel": 4,
      "note": 66,
      "start": 21.6101,
      "duration": 0.793,
      "velocity": 87,
      "chip": "ym2612"
    },
    {
      "channel": 1,
      "note": 100,
      "start": 21.8076,
      "duration": 0.1981,
      "velocity": 98,
      "chip": "ym2612"
    },
    {
      "channel": 2,
      "note": 93,
      "start": 21.8079,
      "duration": 0.1981,
      "velocity": 98,
      "chip": "ym2612"
    },
    {
      "channel": 1,
      "note": 98,
      "start": 22.0059,
      "duration": 0.1981,
      "velocity": 98,
      "chip": "ym2612"
    },
    {
      "channel": 2,
      "note": 90,
      "start": 22.0061,
      "duration": 0.1981,
      "velocity": 98,
      "chip": "ym2612"
    },
    {
      "channel": 1,
      "note": 97,
      "start": 22.2041,
      "duration": 0.1983,
      "velocity": 98,
      "chip": "ym2612"
    },
    {
      "channel": 2,
      "note": 86,
      "start": 22.2044,
      "duration": 0.1983,
      "velocity": 98,
      "chip": "ym2612"
    },
    {
      "channel": 0,
      "note": 59,
      "start": 22.4023,
      "duration": 3.1718,
      "velocity": 114,
      "chip": "ym2612"
    },
    {
      "channel": 1,
      "note": 95,
      "start": 22.4025,
      "duration": 0.1979,
      "velocity": 98,
      "chip": "ym2612"
    },
    {
      "channel": 2,
      "note": 83,
      "start": 22.4028,
      "duration": 0.7927,
      "velocity": 98,
      "chip": "ym2612"
    },
    {
      "channel": 3,
      "note": 54,
      "start": 22.4031,
      "duration": 3.1727,
      "velocity": 87,
      "chip": "ym2612"
    },
    {
      "channel": 4,
      "note": 59,
      "start": 22.4033,
      "duration": 3.1727,
      "velocity": 87,
      "chip": "ym2612"
    },
    {
      "channel": 1,
      "note": 93,
      "start": 22.6006,
      "duration": 0.1981,
      "velocity": 98,
      "chip": "ym2612"
    },
    {
      "channel": 1,
      "note": 90,
      "start": 22.7988,
      "duration": 0.1981,
      "velocity": 98,
      "chip": "ym2612"
    },
    {
      "channel": 1,
      "note": 86,
      "start": 22.9971,
      "duration": 0.1981,
      "velocity": 98,
      "chip": "ym2612"
    },
    {
      "channel": 1,
      "note": 83,
      "start": 23.1954,
      "duration": 2.379,
      "velocity": 98,
      "chip": "ym2612"
    },
    {
      "channel": 2,
      "note": 83,
      "start": 23.1957,
      "duration": 0.1978,
      "velocity": 98,
      "chip": "ym2612"
    },
    {
      "channel": 2,
      "note": 95,
      "start": 23.3937,
      "duration": 0.1983,
      "velocity": 98,
      "chip": "ym2612"
    },
    {
      "channel": 2,
      "note": 102,
      "start": 23.592,
      "duration": 0.198,
      "velocity": 98,
      "chip": "ym2612"
    },
    {
      "channel": 2,
      "note": 83,
      "start": 23.7903,
      "duration": 0.198,
      "velocity": 98,
      "chip": "ym2612"
    },
    {
      "channel": 2,
      "note": 95,
      "start": 23.9884,
      "duration": 0.1981,
      "velocity": 98,
      "chip": "ym2612"
    },
    {
      "channel": 2,
      "note": 102,
      "start": 24.1866,
      "duration": 0.1981,
      "velocity": 98,
      "chip": "ym2612"
    },
    {
      "channel": 2,
      "note": 83,
      "start": 24.385,
      "duration": 0.198,
      "velocity": 98,
      "chip": "ym2612"
    },
    {
      "channel": 2,
      "note": 95,
      "start": 24.5832,
      "duration": 0.1981,
      "velocity": 98,
      "chip": "ym2612"
    },
    {
      "channel": 2,
      "note": 102,
      "start": 24.7814,
      "duration": 0.1981,
      "velocity": 98,
      "chip": "ym2612"
    },
    {
      "channel": 2,
      "note": 83,
      "start": 24.9798,
      "duration": 0.198,
      "velocity": 98,
      "chip": "ym2612"
    },
    {
      "channel": 2,
      "note": 95,
      "start": 25.1779,
      "duration": 0.1981,
      "velocity": 98,
      "chip": "ym2612"
    },
    {
      "channel": 0,
      "note": 59,
      "start": 25.5742,
      "duration": 2.9175,
      "velocity": 114,
      "chip": "ym2612"
    },
    {
      "channel": 1,
      "note": 83,
      "start": 25.5756,
      "duration": 1.7267,
      "velocity": 87,
      "chip": "ym2612"
    },
    {
      "channel": 3,
      "note": 59,
      "start": 25.5759,
      "duration": 0.7303,
      "velocity": 87,
      "chip": "ym2612"
    },
    {
      "channel": 4,
      "note": 54,
      "start": 25.5762,
      "duration": 0.7303,
      "velocity": 87,
      "chip": "ym2612"
    },
    {
      "channel": 3,
      "note": 61,
      "start": 26.3064,
      "duration": 0.7929,
      "velocity": 87,
      "chip": "ym2612"
    },
    {
      "channel": 4,
      "note": 57,
      "start": 26.3066,
      "duration": 0.7929,
      "velocity": 87,
      "chip": "ym2612"
    },
    {
      "channel": 3,
      "note": 62,
      "start": 27.0994,
      "duration": 0.5996,
      "velocity": 87,
      "chip": "ym2612"
    },
    {
      "channel": 4,
      "note": 59,
      "start": 27.0996,
      "duration": 0.5996,
      "velocity": 87,
      "chip": "ym2612"
    },
    {
      "channel": 3,
      "note": 64,
      "start": 27.6991,
      "duration": 0.7932,
      "velocity": 87,
      "chip": "ym2612"
    },
    {
      "channel": 4,
      "note": 61,
      "start": 27.6993,
      "duration": 0.7932,
      "velocity": 87,
      "chip": "ym2612"
    },
    {
      "channel": 1,
      "note": 78,
      "start": 28.0954,
      "duration": 0.1981,
      "velocity": 87,
      "chip": "ym2612"
    },
    {
      "channel": 1,
      "note": 78,
      "start": 28.2937,
      "duration": 0.1983,
      "velocity": 87,
      "chip": "ym2612"
    },
    {
      "channel": 0,
      "note": 59,
      "start": 28.4919,
      "duration": 3.0599,
      "velocity": 114,
      "chip": "ym2612"
    },
    {
      "channel": 1,
      "note": 83,
      "start": 28.4921,
      "duration": 0.5334,
      "velocity": 87,
      "chip": "ym2612"
    },
    {
      "channel": 3,
      "note": 66,
      "start": 28.4925,
      "duration": 3.0601,
      "velocity": 87,
      "chip": "ym2612"
    },
    {
      "channel": 4,
      "note": 62,
      "start": 28.4927,
      "duration": 3.0601,
      "velocity": 87,
      "chip": "ym2612"
    },
    {
      "channel": 1,
      "note": 83,
      "start": 29.0257,
      "duration": 0.9911,
      "velocity": 87,
      "chip": "ym2612"
    },
    {
      "channel": 2,
      "note": 78,
      "start": 29.6207,
      "duration": 0.1978,
      "velocity": 98,
      "chip": "ym2612"
    },
    {
      "channel": 2,
      "note": 83,
      "start": 29.8187,
      "duration": 0.1983,
      "velocity": 98,
      "chip": "ym2612"
    },
    {
      "channel": 1,
      "note": 81,
      "start": 30.0169,
      "duration": 0.5437,
      "velocity": 87,
      "chip": "ym2612"
    },
    {
      "channel": 2,
      "note": 90,
      "start": 30.0171,
      "duration": 0.1979,
      "velocity": 98,
      "chip": "ym2612"
    },
    {
      "channel": 2,
      "note": 78,
      "start": 30.2153,
      "duration": 0.198,
      "velocity": 98,
      "chip": "ym2612"
    },
    {
      "channel": 2,
      "note": 83,
      "start": 30.4135,
      "duration": 0.1474,
      "velocity": 98,
      "chip": "ym2612"
    },
    {
      "channel": 1,
      "note": 81,
      "start": 30.5607,
      "duration": 0.5946,
      "velocity": 87,
      "chip": "ym2612"
    },
    {
      "channel": 2,
      "note": 90,
      "start": 30.561,
      "duration": 0.1979,
      "velocity": 98,
      "chip": "ym2612"
    },
    {
      "channel": 2,
      "note": 78,
      "start": 30.7592,
      "duration": 0.198,
      "velocity": 98,
      "chip": "ym2612"
    },
    {
      "channel": 2,
      "note": 83,
      "start": 30.9573,
      "duration": 0.1983,
      "velocity": 98,
      "chip": "ym2612"
    },
    {
      "channel": 1,
      "note": 79,
      "start": 31.1555,
      "duration": 0.3965,
      "velocity": 87,
      "chip": "ym2612"
    },
    {
      "channel": 2,
      "note": 90,
      "start": 31.1558,
      "duration": 0.1979,
      "velocity": 98,
      "chip": "ym2612"
    },
    {
      "channel": 2,
      "note": 78,
      "start": 31.3539,
      "duration": 0.1984,
      "velocity": 98,
      "chip": "ym2612"
    },
    {
      "channel": 0,
      "note": 59,
      "start": 31.5519,
      "duration": 2.9175,
      "velocity": 114,
      "chip": "ym2612"
    },
    {
      "channel": 1,
      "note": 78,
      "start": 31.5522,
      "duration": 2.1243,
      "velocity": 87,
      "chip": "ym2612"
    },
    {
      "channel": 2,
      "note": 83,
      "start": 31.5524,
      "duration": 0.1367,
      "velocity": 98,
      "chip": "ym2612"
    },
    {
      "channel": 3,
      "note": 66,
      "start": 31.5527,
      "duration": 0.7312,
      "velocity": 87,
      "chip": "ym2612"
    },
    {
      "channel": 4,
      "note": 59,
      "start": 31.5529,
      "duration": 0.7312,
      "velocity": 87,
      "chip": "ym2612"
    },
    {
      "channel": 2,
      "note": 90,
      "start": 31.6893,
      "duration": 3.9087,
      "velocity": 98,
      "chip": "ym2612"
    },
    {
      "channel": 3,
      "note": 69,
      "start": 32.2841,
      "duration": 0.5996,
      "velocity": 87,
      "chip": "ym2612"
    },
    {
      "channel": 4,
      "note": 61,
      "start": 32.2843,
      "duration": 0.5996,
      "velocity": 87,
      "chip": "ym2612"
    },
    {
      "channel": 3,
      "note": 71,
      "start": 32.8838,
      "duration": 0.793,
      "velocity": 87,
      "chip": "ym2612"
    },
    {
      "channel": 4,
      "note": 62,
      "start": 32.8841,
      "duration": 0.793,
      "velocity": 87,
      "chip": "ym2612"
    },
    {
      "channel": 1,
      "note": 79,
      "start": 33.6767,
      "duration": 0.3963,
      "velocity": 87,
      "chip": "ym2612"
    },
    {
      "channel": 3,
      "note": 73,
      "start": 33.677,
      "duration": 0.793,
      "velocity": 87,
      "chip": "ym2612"
    },
    {
      "channel": 4,
      "note": 64,
      "start": 33.6773,
      "duration": 0.793,
      "velocity": 87,
      "chip": "ym2612"
    },
    {
      "channel": 1,
      "note": 78,
      "start": 34.0731,
      "duration": 0.3966,
      "velocity": 87,
      "chip": "ym2612"
    },
    {
      "channel": 0,
      "note": 57,
      "start": 34.4696,
      "duration": 2.6663,
      "velocity": 114,
      "chip": "ym2612"
    },
    {
      "channel": 1,
      "note": 76,
      "start": 34.4698,
      "duration": 1.5246,
      "velocity": 87,
      "chip": "ym2612"
    },
    {
      "channel": 3,
      "note": 74,
      "start": 34.4702,
      "duration": 2.6664,
      "velocity": 87,
      "chip": "ym2612"
    },
    {
      "channel": 4,
      "note": 66,
      "start": 34.4704,
      "duration": 2.6665,
      "velocity": 87,
      "chip": "ym2612"
    },
    {
      "channel": 2,
      "note": 83,
      "start": 35.5983,
      "duration": 0.198,
      "velocity": 98,
      "chip": "ym2612"
    },
    {
      "channel": 2,
      "note": 95,
      "start": 35.7964,
      "duration": 0.1981,
      "velocity": 98,
      "chip": "ym2612"
    },
    {
      "channel": 2,
      "note": 102,
      "start": 35.9946,
      "duration": 0.1981,
      "velocity": 98,
      "chip": "ym2612"
    },
    {
      "channel": 2,
      "note": 83,
      "start": 36.193,
      "duration": 0.198,
      "velocity": 98,
      "chip": "ym2612"
    },
    {
      "channel": 2,
      "note": 95,
      "start": 36.3911,
      "duration": 0.1473,
      "velocity": 98,
      "chip": "ym2612"
    },
    {
      "channel": 2,
      "note": 102,
      "start": 36.5385,
      "duration": 0.1983,
      "velocity": 98,
      "chip": "ym2612"
    },
    {
      "channel": 1,
      "note": 78,
      "start": 36.7367,
      "duration": 0.3454,
      "velocity": 87,
      "chip": "ym2612"
    },
    {
      "channel": 2,
      "note": 83,
      "start": 36.7371,
      "duration": 0.1978,
      "velocity": 98,
      "chip": "ym2612"
    },
    {
      "channel": 2,
      "note": 95,
      "start": 36.935,
      "duration": 0.1474,
      "velocity": 98,
      "chip": "ym2612"
    },
    {
      "channel": 1,
      "note": 76,
      "start": 37.0823,
      "duration": 0.0537,
      "velocity": 87,
      "chip": "ym2612"
    },
    {
      "channel": 2,
      "note": 102,
      "start": 37.0826,
      "duration": 0.0222,
      "velocity": 98,
      "chip": "ym2612"
    },
    {
      "channel": 2,
      "note": 83,
      "start": 37.105,
      "duration": 0.0313,
      "velocity": 98,
      "chip": "ym2612"
    },
    {
      "channel": 0,
      "note": 54,
      "start": 37.136,
      "duration": 2.9143,
      "velocity": 114,
      "chip": "ym2612"
    },
    {
      "channel": 1,
      "note": 74,
      "start": 37.1362,
      "duration": 1.7246,
      "velocity": 87,
      "chip": "ym2612"
    },
    {
      "channel": 2,
      "note": 95,
      "start": 37.1365,
      "duration": 0.1336,
      "velocity": 98,
      "chip": "ym2612"
    },
    {
      "channel": 3,
      "note": 59,
      "start": 37.1368,
      "duration": 0.7281,
      "velocity": 87,
      "chip": "ym2612"
    },
    {
      "channel": 4,
      "note": 62,
      "start": 37.137,
      "duration": 0.7281,
      "velocity": 87,
      "chip": "ym2612"
    },
    {
      "channel": 2,
      "note": 102,
      "start": 37.2702,
      "duration": 0.1981,
      "velocity": 98,
      "chip": "ym2612"
    },
    {
      "channel": 3,
      "note": 61,
      "start": 37.865,
      "duration": 0.7929,
      "velocity": 87,
      "chip": "ym2612"
    },
    {
      "channel": 4,
      "note": 64,
      "start": 37.8653,
      "duration": 0.7929,
      "velocity": 87,
      "chip": "ym2612"
    },
    {
      "channel": 3,
      "note": 62,
      "start": 38.658,
      "duration": 0.5995,
      "velocity": 87,
      "chip": "ym2612"
    },
    {
      "channel": 4,
      "note": 66,
      "start": 38.6583,
      "duration": 0.5995,
      "velocity": 87,
      "chip": "ym2612"
    },
    {
      "channel": 3,
      "note": 66,
      "start": 39.2577,
      "duration": 0.7932,
      "velocity": 87,
      "chip": "ym2612"
    },
    {
      "channel": 4,
      "note": 69,
      "start": 39.2579,
      "duration": 0.7932,
      "velocity": 87,
      "chip": "ym2612"
    },
    {
      "channel": 1,
      "note": 71,
      "start": 39.654,
      "duration": 0.1981,
      "velocity": 87,
      "chip": "ym2612"
    },
    {
      "channel": 1,
      "note": 74,
      "start": 39.8523,
      "duration": 0.1983,
      "velocity": 87,
      "chip": "ym2612"
    },
    {
      "channel": 0,
      "note": 57,
      "start": 40.0505,
      "duration": 3.0599,
      "velocity": 114,
      "chip": "ym2612"
    },
    {
      "channel": 1,
      "note": 73,
      "start": 40.0507,
      "duration": 2.2667,
      "velocity": 87,
      "chip": "ym2612"
    },
    {
      "channel": 3,
      "note": 57,
      "start": 40.051,
      "duration": 3.0601,
      "velocity": 87,
      "chip": "ym2612"
    },
    {
      "channel": 4,
      "note": 64,
      "start": 40.0513,
      "duration": 3.0601,
      "velocity": 87,
      "chip": "ym2612"
    },
    {
      "channel": 2,
      "note": 88,
      "start": 40.7827,
      "duration": 0.198,
      "velocity": 98,
      "chip": "ym2612"
    },
    {
      "channel": 2,
      "note": 95,
      "start": 40.9808,
      "duration": 0.1983,
      "velocity": 98,
      "chip": "ym2612"
    },
    {
      "channel": 2,
      "note": 100,
      "start": 41.1792,
      "duration": 0.7927,
      "velocity": 98,
      "chip": "ym2612"
    },
    {
      "channel": 2,
      "note": 88,
      "start": 41.9721,
      "duration": 0.1472,
      "velocity": 98,
      "chip": "ym2612"
    },
    {
      "channel": 2,
      "note": 100,
      "start": 42.1195,
      "duration": 0.1981,
      "velocity": 98,
      "chip": "ym2612"
    },
    {
      "channel": 2,
      "note": 98,
      "start": 42.3177,
      "duration": 0.198,
      "velocity": 98,
      "chip": "ym2612"
    },
    {
      "channel": 2,
      "note": 97,
      "start": 42.5159,
      "duration": 0.1981,
      "velocity": 98,
      "chip": "ym2612"
    },
    {
      "channel": 2,
      "note": 95,
      "start": 42.7142,
      "duration": 0.1981,
      "velocity": 98,
      "chip": "ym2612"
    },
    {
      "channel": 2,
      "note": 97,
      "start": 42.9124,
      "duration": 0.1985,
      "velocity": 98,
      "chip": "ym2612"
    },
    {
      "channel": 0,
      "note": 67,
      "start": 43.1105,
      "duration": 1.3316,
      "velocity": 114,
      "chip": "ym2612"
    },
    {
      "channel": 1,
      "note": 74,
      "start": 43.1108,
      "duration": 0.5334,
      "velocity": 87,
      "chip": "ym2612"
    },
    {
      "channel": 2,
      "note": 98,
      "start": 43.111,
      "duration": 0.1368,
      "velocity": 98,
      "chip": "ym2612"
    },
    {
      "channel": 3,
      "note": 59,
      "start": 43.1113,
      "duration": 0.7315,
      "velocity": 87,
      "chip": "ym2612"
    },
    {
      "channel": 4,
      "note": 62,
      "start": 43.1116,
      "duration": 0.7315,
      "velocity": 87,
      "chip": "ym2612"
    },
    {
      "channel": 2,
      "note": 97,
      "start": 43.2479,
      "duration": 0.1981,
      "velocity": 98,
      "chip": "ym2612"
    },
    {
      "channel": 2,
      "note": 95,
      "start": 43.4462,
      "duration": 0.1983,
      "velocity": 98,
      "chip": "ym2612"
    },
    {
      "channel": 1,
      "note": 74,
      "start": 43.6444,
      "duration": 0.5948,
      "velocity": 87,
      "chip": "ym2612"
    },
    {
      "channel": 2,
      "note": 93,
      "start": 43.6446,
      "duration": 0.1979,
      "velocity": 98,
      "chip": "ym2612"
    },
    {
      "channel": 2,
      "note": 90,
      "start": 43.8427,
      "duration": 0.1981,
      "velocity": 98,
      "chip": "ym2612"
    },
    {
      "channel": 3,
      "note": 62,
      "start": 43.8429,
      "duration": 0.6,
      "velocity": 87,
      "chip": "ym2612"
    },
    {
      "channel": 4,
      "note": 66,
      "start": 43.8432,
      "duration": 0.6,
      "velocity": 87,
      "chip": "ym2612"
    },
    {
      "channel": 2,
      "note": 88,
      "start": 44.0409,
      "duration": 0.1985,
      "velocity": 98,
      "chip": "ym2612"
    },
    {
      "channel": 1,
      "note": 73,
      "start": 44.2393,
      "duration": 0.0223,
      "velocity": 87,
      "chip": "ym2612"
    },
    {
      "channel": 2,
      "note": 86,
      "start": 44.2395,
      "duration": 0.0223,
      "velocity": 98,
      "chip": "ym2612"
    },
    {
      "channel": 1,
      "note": 74,
      "start": 44.2617,
      "duration": 0.1807,
      "velocity": 87,
      "chip": "ym2612"
    },
    {
      "channel": 2,
      "note": 83,
      "start": 44.262,
      "duration": 0.1807,
      "velocity": 98,
      "chip": "ym2612"
    },
    {
      "channel": 0,
      "note": 69,
      "start": 44.4423,
      "duration": 1.5858,
      "velocity": 114,
      "chip": "ym2612"
    },
    {
      "channel": 1,
      "note": 76,
      "start": 44.4426,
      "duration": 0.5944,
      "velocity": 87,
      "chip": "ym2612"
    },
    {
      "channel": 2,
      "note": 102,
      "start": 44.4428,
      "duration": 0.1977,
      "velocity": 98,
      "chip": "ym2612"
    },
    {
      "channel": 3,
      "note": 57,
      "start": 44.4431,
      "duration": 0.7924,
      "velocity": 87,
      "chip": "ym2612"
    },
    {
      "channel": 4,
      "note": 61,
      "start": 44.4434,
      "duration": 0.7924,
      "velocity": 87,
      "chip": "ym2612"
    },
    {
      "channel": 2,
      "note": 100,
      "start": 44.6407,
      "duration": 0.1981,
      "velocity": 98,
      "chip": "ym2612"
    },
    {
      "channel": 2,
      "note": 98,
      "start": 44.8389,
      "duration": 0.1983,
      "velocity": 98,
      "chip": "ym2612"
    },
    {
      "channel": 1,
      "note": 76,
      "start": 45.0371,
      "duration": 0.5946,
      "velocity": 87,
      "chip": "ym2612"
    },
    {
      "channel": 2,
      "note": 97,
      "start": 45.0373,
      "duration": 0.1979,
      "velocity": 98,
      "chip": "ym2612"
    },
    {
      "channel": 2,
      "note": 95,
      "start": 45.2354,
      "duration": 0.1981,
      "velocity": 98,
      "chip": "ym2612"
    },
    {
      "channel": 3,
      "note": 61,
      "start": 45.2357,
      "duration": 0.7932,
      "velocity": 87,
      "chip": "ym2612"
    },
    {
      "channel": 4,
      "note": 66,
      "start": 45.2359,
      "duration": 0.7932,
      "velocity": 87,
      "chip": "ym2612"
    },
    {
      "channel": 2,
      "note": 93,
      "start": 45.4337,
      "duration": 0.1983,
      "velocity": 98,
      "chip": "ym2612"
    },
    {
      "channel": 1,
      "note": 74,
      "start": 45.6318,
      "duration": 0.1981,
      "velocity": 87,
      "chip": "ym2612"
    },
    {
      "channel": 2,
      "note": 90,
      "start": 45.6321,
      "duration": 0.1981,
      "velocity": 98,
      "chip": "ym2612"
    },
    {
      "channel": 1,
      "note": 76,
      "start": 45.8301,
      "duration": 0.1983,
      "velocity": 87,
      "chip": "ym2612"
    },
    {
      "channel": 2,
      "note": 86,
      "start": 45.8303,
      "duration": 0.1983,
      "velocity": 98,
      "chip": "ym2612"
    },
    {
      "channel": 0,
      "note": 71,
      "start": 46.0283,
      "duration": 2.666,
      "velocity": 114,
      "chip": "ym2612"
    },
    {
      "channel": 1,
      "note": 78,
      "start": 46.0285,
      "duration": 2.2666,
      "velocity": 87,
      "chip": "ym2612"
    },
    {
      "channel": 2,
      "note": 83,
      "start": 46.0288,
      "duration": 0.7314,
      "velocity": 98,
      "chip": "ym2612"
    },
    {
      "channel": 3,
      "note": 54,
      "start": 46.029,
      "duration": 2.6671,
      "velocity": 87,
      "chip": "ym2612"
    },
    {
      "channel": 4,
      "note": 59,
      "start": 46.0293,
      "duration": 2.6672,
      "velocity": 87,
      "chip": "ym2612"
    },
    {
      "channel": 2,
      "note": 83,
      "start": 46.7605,
      "duration": 0.198,
      "velocity": 98,
      "chip": "ym2612"
    },
    {
      "channel": 2,
      "note": 95,
      "start": 46.9586,
      "duration": 0.1981,
      "velocity": 98,
      "chip": "ym2612"
    },
    {
      "channel": 2,
      "note": 102,
      "start": 47.1568,
      "duration": 0.1981,
      "velocity": 98,
      "chip": "ym2612"
    },
    {
      "channel": 2,
      "note": 83,
      "start": 47.3552,
      "duration": 0.198,
      "velocity": 98,
      "chip": "ym2612"
    },
    {
      "channel": 2,
      "note": 95,
      "start": 47.5533,
      "duration": 0.1981,
      "velocity": 98,
      "chip": "ym2612"
    },
    {
      "channel": 2,
      "note": 102,
      "start": 47.7516,
      "duration": 0.1981,
      "velocity": 98,
      "chip": "ym2612"
    },
    {
      "channel": 2,
      "note": 83,
      "start": 47.95,
      "duration": 0.1471,
      "velocity": 98,
      "chip": "ym2612"
    },
    {
      "channel": 2,
      "note": 95,
      "start": 48.0972,
      "duration": 0.1981,
      "velocity": 98,
      "chip": "ym2612"
    },
    {
      "channel": 2,
      "note": 102,
      "start": 48.2954,
      "duration": 0.1981,
      "velocity": 98,
      "chip": "ym2612"
    },
    {
      "channel": 2,
      "note": 83,
      "start": 48.4938,
      "duration": 0.1471,
      "velocity": 98,
      "chip": "ym2612"
    },
    {
      "channel": 2,
      "note": 95,
      "start": 48.641,
      "duration": 0.0222,
      "velocity": 98,
      "chip": "ym2612"
    },
    {
      "channel": 0,
      "note": 45,
      "start": 48.6944,
      "duration": 5.1819,
      "velocity": 114,
      "chip": "ym2612"
    },
    {
      "channel": 1,
      "note": 81,
      "start": 48.6946,
      "duration": 1.5219,
      "velocity": 87,
      "chip": "ym2612"
    },
    {
      "channel": 2,
      "note": 91,
      "start": 48.6961,
      "duration": 1.5207,
      "velocity": 92,
      "chip": "ym2612"
    },
    {
      "channel": 3,
      "note": 50,
      "start": 48.6963,
      "duration": 5.1803,
      "velocity": 87,
      "chip": "ym2612"
    },
    {
      "channel": 4,
      "note": 57,
      "start": 48.6966,
      "duration": 5.1803,
      "velocity": 87,
      "chip": "ym2612"
    },
    {
      "channel": 1,
      "note": 79,
      "start": 50.2167,
      "duration": 0.9961,
      "velocity": 87,
      "chip": "ym2612"
    },
    {
      "channel": 2,
      "note": 90,
      "start": 50.2169,
      "duration": 1.3926,
      "velocity": 92,
      "chip": "ym2612"
    },
    {
      "channel": 1,
      "note": 81,
      "start": 51.2129,
      "duration": 0.1981,
      "velocity": 87,
      "chip": "ym2612"
    },
    {
      "channel": 1,
      "note": 79,
      "start": 51.4112,
      "duration": 0.1981,
      "velocity": 87,
      "chip": "ym2612"
    },
    {
      "channel": 1,
      "note": 78,
      "start": 51.6094,
      "duration": 1.5248,
      "velocity": 87,
      "chip": "ym2612"
    },
    {
      "channel": 2,
      "note": 88,
      "start": 51.6097,
      "duration": 1.5248,
      "velocity": 92,
      "chip": "ym2612"
    },
    {
      "channel": 1,
      "note": 76,
      "start": 53.1344,
      "duration": 1.3367,
      "velocity": 87,
      "chip": "ym2612"
    },
    {
      "channel": 2,
      "note": 83,
      "start": 53.1346,
      "duration": 1.535,
      "velocity": 92,
      "chip": "ym2612"
    },
    {
      "channel": 0,
      "note": 42,
      "start": 53.8764,
      "duration": 4.4424,
      "velocity": 114,
      "chip": "ym2612"
    },
    {
      "channel": 3,
      "note": 49,
      "start": 53.8768,
      "duration": 6.2512,
      "velocity": 87,
      "chip": "ym2612"
    },
    {
      "channel": 4,
      "note": 54,
      "start": 53.8771,
      "duration": 6.2512,
      "velocity": 87,
      "chip": "ym2612"
    },
    {
      "channel": 1,
      "note": 71,
      "start": 54.4712,
      "duration": 0.1981,
      "velocity": 87,
      "chip": "ym2612"
    },
    {
      "channel": 1,
      "note": 78,
      "start": 54.6695,
      "duration": 2.9174,
      "velocity": 87,
      "chip": "ym2612"
    },
    {
      "channel": 2,
      "note": 90,
      "start": 54.6698,
      "duration": 5.458,
      "velocity": 92,
      "chip": "ym2612"
    },
    {
      "channel": 0,
      "note": 40,
      "start": 58.319,
      "duration": 1.8083,
      "velocity": 114,
      "chip": "ym2612"
    },
    {
      "channel": 1,
      "note": 83,
      "start": 59.8541,
      "duration": 0.2201,
      "velocity": 87,
      "chip": "ym2612"
    },
    {
      "channel": 1,
      "note": 85,
      "start": 60.0744,
      "duration": 0.0531,
      "velocity": 87,
      "chip": "ym2612"
    },
    {
      "channel": 0,
      "note": 47,
      "start": 60.1274,
      "duration": 5.2387,
      "velocity": 114,
      "chip": "ym2612"
    },
    {
      "channel": 1,
      "note": 88,
      "start": 60.1277,
      "duration": 2.3818,
      "velocity": 87,
      "chip": "ym2612"
    },
    {
      "channel": 2,
      "note": 91,
      "start": 60.1279,
      "duration": 1.0499,
      "velocity": 92,
      "chip": "ym2612"
    },
    {
      "channel": 3,
      "note": 54,
      "start": 60.1282,
      "duration": 9.142,
      "velocity": 87,
      "chip": "ym2612"
    },
    {
      "channel": 4,
      "note": 59,
      "start": 60.1285,
      "duration": 8.3488,
      "velocity": 87,
      "chip": "ym2612"
    },
    {
      "channel": 2,
      "note": 90,
      "start": 61.178,
      "duration": 1.3317,
      "velocity": 92,
      "chip": "ym2612"
    },
    {
      "channel": 1,
      "note": 86,
      "start": 62.5096,
      "duration": 1.5248,
      "velocity": 87,
      "chip": "ym2612"
    },
    {
      "channel": 2,
      "note": 88,
      "start": 62.5099,
      "duration": 1.5248,
      "velocity": 92,
      "chip": "ym2612"
    },
    {
      "channel": 1,
      "note": 85,
      "start": 64.0346,
      "duration": 1.3318,
      "velocity": 87,
      "chip": "ym2612"
    },
    {
      "channel": 2,
      "note": 85,
      "start": 64.0348,
      "duration": 1.3318,
      "velocity": 92,
      "chip": "ym2612"
    },
    {
      "channel": 0,
      "note": 35,
      "start": 65.3663,
      "duration": 6.2827,
      "velocity": 114,
      "chip": "ym2612"
    },
    {
      "channel": 1,
      "note": 90,
      "start": 65.3665,
      "duration": 3.1105,
      "velocity": 87,
      "chip": "ym2612"
    },
    {
      "channel": 2,
      "note": 83,
      "start": 65.3668,
      "duration": 3.9033,
      "velocity": 92,
      "chip": "ym2612"
    },
    {
      "channel": 0,
      "note": 47,
      "start": 71.6491,
      "duration": 6.3437,
      "velocity": 114,
      "chip": "ym2612"
    },
    {
      "channel": 3,
      "note": 59,
      "start": 71.6495,
      "duration": 0.7927,
      "velocity": 87,
      "chip": "ym2612"
    },
    {
      "channel": 4,
      "note": 54,
      "start": 71.6498,
      "duration": 0.7927,
      "velocity": 87,
      "chip": "ym2612"
    },
    {
      "channel": 3,
      "note": 61,
      "start": 72.4423,
      "duration": 0.7928,
      "velocity": 87,
      "chip": "ym2612"
    },
    {
      "channel": 4,
      "note": 57,
      "start": 72.4425,
      "duration": 0.7929,
      "velocity": 87,
      "chip": "ym2612"
    },
    {
      "channel": 3,
      "note": 62,
      "start": 73.2353,
      "duration": 0.7929,
      "velocity": 87,
      "chip": "ym2612"
    },
    {
      "channel": 4,
      "note": 59,
      "start": 73.2355,
      "duration": 0.7929,
      "velocity": 87,
      "chip": "ym2612"
    },
    {
      "channel": 3,
      "note": 64,
      "start": 74.0283,
      "duration": 0.7928,
      "velocity": 87,
      "chip": "ym2612"
    },
    {
      "channel": 4,
      "note": 61,
      "start": 74.0285,
      "duration": 0.7928,
      "velocity": 87,
      "chip": "ym2612"
    },
    {
      "channel": 3,
      "note": 66,
      "start": 74.8212,
      "duration": 3.1722,
      "velocity": 87,
      "chip": "ym2612"
    },
    {
      "channel": 4,
      "note": 62,
      "start": 74.8215,
      "duration": 3.1722,
      "velocity": 87,
      "chip": "ym2612"
    },
    {
      "channel": 2,
      "note": 78,
      "start": 76.0109,
      "duration": 0.1978,
      "velocity": 98,
      "chip": "ym2612"
    },
    {
      "channel": 2,
      "note": 83,
      "start": 76.2089,
      "duration": 0.1981,
      "velocity": 98,
      "chip": "ym2612"
    },
    {
      "channel": 2,
      "note": 90,
      "start": 76.4071,
      "duration": 0.1981,
      "velocity": 98,
      "chip": "ym2612"
    },
    {
      "channel": 2,
      "note": 78,
      "start": 76.6055,
      "duration": 0.198,
      "velocity": 98,
      "chip": "ym2612"
    },
    {
      "channel": 2,
      "note": 83,
      "start": 76.8036,
      "duration": 0.1981,
      "velocity": 98,
      "chip": "ym2612"
    },
    {
      "channel": 2,
      "note": 90,
      "start": 77.0019,
      "duration": 0.1981,
      "velocity": 98,
      "chip": "ym2612"
    },
    {
      "channel": 2,
      "note": 78,
      "start": 77.2002,
      "duration": 0.198,
      "velocity": 98,
      "chip": "ym2612"
    },
    {
      "channel": 2,
      "note": 83,
      "start": 77.3984,
      "duration": 0.1981,
      "velocity": 98,
      "chip": "ym2612"
    },
    {
      "channel": 2,
      "note": 90,
      "start": 77.5966,
      "duration": 0.1981,
      "velocity": 98,
      "chip": "ym2612"
    },
    {
      "channel": 2,
      "note": 78,
      "start": 77.795,
      "duration": 0.1982,
      "velocity": 98,
      "chip": "ym2612"
    },
    {
      "channel": 0,
      "note": 47,
      "start": 77.993,
      "duration": 6.3437,
      "velocity": 114,
      "chip": "ym2612"
    },
    {
      "channel": 2,
      "note": 83,
      "start": 77.9933,
      "duration": 0.1979,
      "velocity": 98,
      "chip": "ym2612"
    },
    {
      "channel": 3,
      "note": 66,
      "start": 77.9936,
      "duration": 0.7925,
      "velocity": 87,
      "chip": "ym2612"
    },
    {
      "channel": 4,
      "note": 59,
      "start": 77.9938,
      "duration": 0.7925,
      "velocity": 87,
      "chip": "ym2612"
    },
    {
      "channel": 2,
      "note": 90,
      "start": 78.1914,
      "duration": 4.163,
      "velocity": 98,
      "chip": "ym2612"
    },
    {
      "channel": 3,
      "note": 69,
      "start": 78.7862,
      "duration": 0.7928,
      "velocity": 87,
      "chip": "ym2612"
    },
    {
      "channel": 4,
      "note": 61,
      "start": 78.7865,
      "duration": 0.7928,
      "velocity": 87,
      "chip": "ym2612"
    },
    {
      "channel": 3,
      "note": 71,
      "start": 79.5792,
      "duration": 0.7928,
      "velocity": 87,
      "chip": "ym2612"
    },
    {
      "channel": 4,
      "note": 62,
      "start": 79.5794,
      "duration": 0.7928,
      "velocity": 87,
      "chip": "ym2612"
    },
    {
      "channel": 3,
      "note": 73,
      "start": 80.3722,
      "duration": 0.7928,
      "velocity": 87,
      "chip": "ym2612"
    },
    {
      "channel": 4,
      "note": 64,
      "start": 80.3724,
      "duration": 0.7929,
      "velocity": 87,
      "chip": "ym2612"
    },
    {
      "channel": 3,
      "note": 74,
      "start": 81.1651,
      "duration": 3.1722,
      "velocity": 87,
      "chip": "ym2612"
    },
    {
      "channel": 4,
      "note": 66,
      "start": 81.1654,
      "duration": 3.1722,
      "velocity": 87,
      "chip": "ym2612"
    },
    {
      "channel": 2,
      "note": 83,
      "start": 82.3546,
      "duration": 0.198,
      "velocity": 98,
      "chip": "ym2612"
    },
    {
      "channel": 2,
      "note": 95,
      "start": 82.5528,
      "duration": 0.1981,
      "velocity": 98,
      "chip": "ym2612"
    },
    {
      "channel": 2,
      "note": 102,
      "start": 82.751,
      "duration": 0.1981,
      "velocity": 98,
      "chip": "ym2612"
    },
    {
      "channel": 2,
      "note": 83,
      "start": 82.9494,
      "duration": 0.198,
      "velocity": 98,
      "chip": "ym2612"
    },
    {
      "channel": 2,
      "note": 95,
      "start": 83.1475,
      "duration": 0.1981,
      "velocity": 98,
      "chip": "ym2612"
    },
    {
      "channel": 2,
      "note": 102,
      "start": 83.3458,
      "duration": 0.1981,
      "velocity": 98,
      "chip": "ym2612"
    },
    {
      "channel": 2,
      "note": 83,
      "start": 83.5441,
      "duration": 0.198,
      "velocity": 98,
      "chip": "ym2612"
    },
    {
      "channel": 2,
      "note": 95,
      "start": 83.7423,
      "duration": 0.1981,
      "velocity": 98,
      "chip": "ym2612"
    },
    {
      "channel": 2,
      "note": 102,
      "start": 83.9405,
      "duration": 0.1981,
      "velocity": 98,
      "chip": "ym2612"
    },
    {
      "channel": 2,
      "note": 83,
      "start": 84.1388,
      "duration": 0.1982,
      "velocity": 98,
      "chip": "ym2612"
    },
    {
      "channel": 0,
      "note": 47,
      "start": 84.3369,
      "duration": 3.1718,
      "velocity": 114,
      "chip": "ym2612"
    },
    {
      "channel": 2,
      "note": 95,
      "start": 84.3372,
      "duration": 0.1979,
      "velocity": 98,
      "chip": "ym2612"
    },
    {
      "channel": 3,
      "note": 59,
      "start": 84.3374,
      "duration": 0.7925,
      "velocity": 87,
      "chip": "ym2612"
    },
    {
      "channel": 4,
      "note": 62,
      "start": 84.3377,
      "duration": 0.7925,
      "velocity": 87,
      "chip": "ym2612"
    },
    {
      "channel": 2,
      "note": 102,
      "start": 84.5352,
      "duration": 0.1981,
      "velocity": 98,
      "chip": "ym2612"
    },
    {
      "channel": 3,
      "note": 61,
      "start": 85.1301,
      "duration": 0.7929,
      "velocity": 87,
      "chip": "ym2612"
    },
    {
      "channel": 4,
      "note": 64,
      "start": 85.1303,
      "duration": 0.7929,
      "velocity": 87,
      "chip": "ym2612"
    },
    {
      "channel": 3,
      "note": 62,
      "start": 85.9231,
      "duration": 0.7928,
      "velocity": 87,
      "chip": "ym2612"
    },
    {
      "channel": 4,
      "note": 66,
      "start": 85.9233,
      "duration": 0.7928,
      "velocity": 87,
      "chip": "ym2612"
    },
    {
      "channel": 3,
      "note": 66,
      "start": 86.7161,
      "duration": 0.793,
      "velocity": 87,
      "chip": "ym2612"
    },
    {
      "channel": 4,
      "note": 69,
      "start": 86.7163,
      "duration": 0.793,
      "velocity": 87,
      "chip": "ym2612"
    },
    {
      "channel": 0,
      "note": 45,
      "start": 87.5088,
      "duration": 6.0642,
      "velocity": 114,
      "chip": "ym2612"
    },
    {
      "channel": 3,
      "note": 57,
      "start": 87.5092,
      "duration": 6.0638,
      "velocity": 87,
      "chip": "ym2612"
    },
    {
      "channel": 4,
      "note": 64,
      "start": 87.5095,
      "duration": 6.0636,
      "velocity": 87,
      "chip": "ym2612"
    },
    {
      "channel": 2,
      "note": 88,
      "start": 88.302,
      "duration": 0.198,
      "velocity": 98,
      "chip": "ym2612"
    },
    {
      "channel": 2,
      "note": 95,
      "start": 88.5002,
      "duration": 0.1994,
      "velocity": 98,
      "chip": "ym2612"
    },
    {
      "channel": 2,
      "note": 100,
      "start": 88.6997,
      "duration": 4.8733,
      "velocity": 98,
      "chip": "ym2612"
    }
  ]
}