{
  "track_name": "31 - Data Select",
  "duration_sec": 60.651,
  "sample_rate": 44100,
  "note_count": 1044,
  "unique_pitches": 50,
  "pitch_range": 64,
  "avg_note_duration": 0.1811,
  "reconstruction_stats": {
    "notes_reconstructed": 1044,
    "keyon_events": 1044,
    "keyoff_events": 1041,
    "orphan_keyons": 3,
    "unique_pitches": 50,
    "pitch_range": 64,
    "avg_duration_sec": 0.1811
  },
  "metadata": {
    "source": "S\\Sonic 3 & Knuckles\\31 - Data Select.vgz"
  },
  "notes": [
    {
      "channel": 1,
      "note": 79,
      "start": 0.0,
      "duration": 0.2483,
      "velocity": 97,
      "chip": "ym2612"
    },
    {
      "channel": 2,
      "note": 67,
      "start": 0.0031,
      "duration": 0.2459,
      "velocity": 97,
      "chip": "ym2612"
    },
    {
      "channel": 1,
      "note": 79,
      "start": 0.2488,
      "duration": 0.1328,
      "velocity": 97,
      "chip": "ym2612"
    },
    {
      "channel": 2,
      "note": 67,
      "start": 0.2496,
      "duration": 0.1328,
      "velocity": 97,
      "chip": "ym2612"
    },
    {
      "channel": 1,
      "note": 79,
      "start": 0.3822,
      "duration": 0.1661,
      "velocity": 97,
      "chip": "ym2612"
    },
    {
      "channel": 2,
      "note": 67,
      "start": 0.3829,
      "duration": 0.166,
      "velocity": 97,
      "chip": "ym2612"
    },
    {
      "channel": 1,
      "note": 78,
      "start": 0.5488,
      "duration": 0.1828,
      "velocity": 97,
      "chip": "ym2612"
    },
    {
      "channel": 2,
      "note": 66,
      "start": 0.5496,
      "duration": 0.1827,
      "velocity": 97,
      "chip": "ym2612"
    },
    {
      "channel": 1,
      "note": 79,
      "start": 0.7322,
      "duration": 0.1856,
      "velocity": 97,
      "chip": "ym2612"
    },
    {
      "channel": 2,
      "note": 67,
      "start": 0.7329,
      "duration": 0.1882,
      "velocity": 97,
      "chip": "ym2612"
    },
    {
      "channel": 0,
      "note": 45,
      "start": 0.9177,
      "duration": 0.3226,
      "velocity": 101,
      "chip": "ym2612"
    },
    {
      "channel": 1,
      "note": 78,
      "start": 0.9185,
      "duration": 0.0242,
      "velocity": 97,
      "chip": "ym2612"
    },
    {
      "channel": 2,
      "note": 66,
      "start": 0.9217,
      "duration": 0.0218,
      "velocity": 97,
      "chip": "ym2612"
    },
    {
      "channel": 3,
      "note": 72,
      "start": 0.9249,
      "duration": 0.0502,
      "velocity": 76,
      "chip": "ym2612"
    },
    {
      "channel": 4,
      "note": 60,
      "start": 0.928,
      "duration": 0.0474,
      "velocity": 76,
      "chip": "ym2612"
    },
    {
      "channel": 1,
      "note": 79,
      "start": 0.9432,
      "duration": 0.0304,
      "velocity": 97,
      "chip": "ym2612"
    },
    {
      "channel": 2,
      "note": 67,
      "start": 0.944,
      "duration": 0.0304,
      "velocity": 97,
      "chip": "ym2612"
    },
    {
      "channel": 1,
      "note": 78,
      "start": 0.9742,
      "duration": 0.2667,
      "velocity": 97,
      "chip": "ym2612"
    },
    {
      "channel": 2,
      "note": 66,
      "start": 0.9749,
      "duration": 0.2667,
      "velocity": 97,
      "chip": "ym2612"
    },
    {
      "channel": 3,
      "note": 79,
      "start": 1.1084,
      "duration": 0.134,
      "velocity": 76,
      "chip": "ym2612"
    },
    {
      "channel": 4,
      "note": 67,
      "start": 1.1091,
      "duration": 0.134,
      "velocity": 76,
      "chip": "ym2612"
    },
    {
      "channel": 0,
      "note": 52,
      "start": 1.2407,
      "duration": 0.1476,
      "velocity": 101,
      "chip": "ym2612"
    },
    {
      "channel": 1,
      "note": 76,
      "start": 1.2415,
      "duration": 0.3799,
      "velocity": 97,
      "chip": "ym2612"
    },
    {
      "channel": 2,
      "note": 64,
      "start": 1.2422,
      "duration": 0.38,
      "velocity": 97,
      "chip": "ym2612"
    },
    {
      "channel": 3,
      "note": 76,
      "start": 1.2429,
      "duration": 0.0569,
      "velocity": 76,
      "chip": "ym2612"
    },
    {
      "channel": 4,
      "note": 64,
      "start": 1.2437,
      "duration": 0.0564,
      "velocity": 76,
      "chip": "ym2612"
    },
    {
      "channel": 3,
      "note": 83,
      "start": 1.3588,
      "duration": 0.0309,
      "velocity": 76,
      "chip": "ym2612"
    },
    {
      "channel": 4,
      "note": 71,
      "start": 1.3595,
      "duration": 0.0305,
      "velocity": 76,
      "chip": "ym2612"
    },
    {
      "channel": 0,
      "note": 57,
      "start": 1.3888,
      "duration": 0.1408,
      "velocity": 101,
      "chip": "ym2612"
    },
    {
      "channel": 3,
      "note": 72,
      "start": 1.4729,
      "duration": 0.0582,
      "velocity": 76,
      "chip": "ym2612"
    },
    {
      "channel": 4,
      "note": 60,
      "start": 1.4736,
      "duration": 0.0578,
      "velocity": 76,
      "chip": "ym2612"
    },
    {
      "channel": 0,
      "note": 50,
      "start": 1.5301,
      "duration": 0.3247,
      "velocity": 101,
      "chip": "ym2612"
    },
    {
      "channel": 3,
      "note": 78,
      "start": 1.5896,
      "duration": 0.1326,
      "velocity": 76,
      "chip": "ym2612"
    },
    {
      "channel": 4,
      "note": 66,
      "start": 1.5903,
      "duration": 0.1322,
      "velocity": 76,
      "chip": "ym2612"
    },
    {
      "channel": 1,
      "note": 78,
      "start": 1.622,
      "duration": 0.1827,
      "velocity": 97,
      "chip": "ym2612"
    },
    {
      "channel": 2,
      "note": 66,
      "start": 1.6228,
      "duration": 0.1828,
      "velocity": 97,
      "chip": "ym2612"
    },
    {
      "channel": 1,
      "note": 79,
      "start": 1.8054,
      "duration": 0.1082,
      "velocity": 97,
      "chip": "ym2612"
    },
    {
      "channel": 2,
      "note": 67,
      "start": 1.8061,
      "duration": 0.1081,
      "velocity": 97,
      "chip": "ym2612"
    },
    {
      "channel": 0,
      "note": 57,
      "start": 1.8552,
      "duration": 0.1493,
      "velocity": 101,
      "chip": "ym2612"
    },
    {
      "channel": 3,
      "note": 76,
      "start": 1.8568,
      "duration": 0.0582,
      "velocity": 76,
      "chip": "ym2612"
    },
    {
      "channel": 4,
      "note": 64,
      "start": 1.8576,
      "duration": 0.0577,
      "velocity": 76,
      "chip": "ym2612"
    },
    {
      "channel": 1,
      "note": 81,
      "start": 1.9141,
      "duration": 0.0671,
      "velocity": 97,
      "chip": "ym2612"
    },
    {
      "channel": 2,
      "note": 69,
      "start": 1.9149,
      "duration": 0.0671,
      "velocity": 97,
      "chip": "ym2612"
    },
    {
      "channel": 3,
      "note": 83,
      "start": 1.9734,
      "duration": 0.0325,
      "velocity": 76,
      "chip": "ym2612"
    },
    {
      "channel": 4,
      "note": 71,
      "start": 1.9742,
      "duration": 0.0325,
      "velocity": 76,
      "chip": "ym2612"
    },
    {
      "channel": 1,
      "note": 78,
      "start": 1.9818,
      "duration": 0.0436,
      "velocity": 97,
      "chip": "ym2612"
    },
    {
      "channel": 2,
      "note": 66,
      "start": 1.9826,
      "duration": 0.0436,
      "velocity": 97,
      "chip": "ym2612"
    },
    {
      "channel": 0,
      "note": 62,
      "start": 2.005,
      "duration": 0.0585,
      "velocity": 101,
      "chip": "ym2612"
    },
    {
      "channel": 3,
      "note": 72,
      "start": 2.0065,
      "duration": 0.0313,
      "velocity": 76,
      "chip": "ym2612"
    },
    {
      "channel": 4,
      "note": 60,
      "start": 2.0073,
      "duration": 0.0308,
      "velocity": 76,
      "chip": "ym2612"
    },
    {
      "channel": 1,
      "note": 76,
      "start": 2.0261,
      "duration": 0.0381,
      "velocity": 97,
      "chip": "ym2612"
    },
    {
      "channel": 2,
      "note": 64,
      "start": 2.0268,
      "duration": 0.0382,
      "velocity": 97,
      "chip": "ym2612"
    },
    {
      "channel": 0,
      "note": 43,
      "start": 2.0641,
      "duration": 0.3244,
      "velocity": 101,
      "chip": "ym2612"
    },
    {
      "channel": 1,
      "note": 76,
      "start": 2.0648,
      "duration": 0.0165,
      "velocity": 97,
      "chip": "ym2612"
    },
    {
      "channel": 2,
      "note": 64,
      "start": 2.0655,
      "duration": 0.0166,
      "velocity": 97,
      "chip": "ym2612"
    },
    {
      "channel": 3,
      "note": 71,
      "start": 2.0662,
      "duration": 0.0571,
      "velocity": 76,
      "chip": "ym2612"
    },
    {
      "channel": 4,
      "note": 59,
      "start": 2.067,
      "duration": 0.0566,
      "velocity": 76,
      "chip": "ym2612"
    },
    {
      "channel": 1,
      "note": 78,
      "start": 2.0819,
      "duration": 0.0399,
      "velocity": 97,
      "chip": "ym2612"
    },
    {
      "channel": 2,
      "note": 66,
      "start": 2.0827,
      "duration": 0.0399,
      "velocity": 97,
      "chip": "ym2612"
    },
    {
      "channel": 1,
      "note": 76,
      "start": 2.1224,
      "duration": 0.2667,
      "velocity": 97,
      "chip": "ym2612"
    },
    {
      "channel": 2,
      "note": 64,
      "start": 2.1232,
      "duration": 0.2667,
      "velocity": 97,
      "chip": "ym2612"
    },
    {
      "channel": 3,
      "note": 78,
      "start": 2.2566,
      "duration": 0.134,
      "velocity": 76,
      "chip": "ym2612"
    },
    {
      "channel": 4,
      "note": 66,
      "start": 2.2573,
      "duration": 0.134,
      "velocity": 76,
      "chip": "ym2612"
    },
    {
      "channel": 0,
      "note": 50,
      "start": 2.3889,
      "duration": 0.1476,
      "velocity": 101,
      "chip": "ym2612"
    },
    {
      "channel": 1,
      "note": 74,
      "start": 2.3897,
      "duration": 0.3023,
      "velocity": 97,
      "chip": "ym2612"
    },
    {
      "channel": 2,
      "note": 62,
      "start": 2.3904,
      "duration": 0.3024,
      "velocity": 97,
      "chip": "ym2612"
    },
    {
      "channel": 3,
      "note": 74,
      "start": 2.3912,
      "duration": 0.0569,
      "velocity": 76,
      "chip": "ym2612"
    },
    {
      "channel": 4,
      "note": 62,
      "start": 2.3919,
      "duration": 0.0564,
      "velocity": 76,
      "chip": "ym2612"
    },
    {
      "channel": 3,
      "note": 81,
      "start": 2.507,
      "duration": 0.0309,
      "velocity": 76,
      "chip": "ym2612"
    },
    {
      "channel": 4,
      "note": 69,
      "start": 2.5077,
      "duration": 0.0305,
      "velocity": 76,
      "chip": "ym2612"
    },
    {
      "channel": 0,
      "note": 55,
      "start": 2.537,
      "duration": 0.1408,
      "velocity": 101,
      "chip": "ym2612"
    },
    {
      "channel": 3,
      "note": 71,
      "start": 2.6211,
      "duration": 0.0582,
      "velocity": 76,
      "chip": "ym2612"
    },
    {
      "channel": 4,
      "note": 59,
      "start": 2.6218,
      "duration": 0.0578,
      "velocity": 76,
      "chip": "ym2612"
    },
    {
      "channel": 0,
      "note": 40,
      "start": 2.6783,
      "duration": 0.3247,
      "velocity": 101,
      "chip": "ym2612"
    },
    {
      "channel": 1,
      "note": 70,
      "start": 2.6926,
      "duration": 0.0437,
      "velocity": 97,
      "chip": "ym2612"
    },
    {
      "channel": 2,
      "note": 58,
      "start": 2.6934,
      "duration": 0.0437,
      "velocity": 97,
      "chip": "ym2612"
    },
    {
      "channel": 1,
      "note": 71,
      "start": 2.7369,
      "duration": 0.2667,
      "velocity": 97,
      "chip": "ym2612"
    },
    {
      "channel": 2,
      "note": 59,
      "start": 2.7377,
      "duration": 0.2667,
      "velocity": 97,
      "chip": "ym2612"
    },
    {
      "channel": 3,
      "note": 78,
      "start": 2.7384,
      "duration": 0.1322,
      "velocity": 76,
      "chip": "ym2612"
    },
    {
      "channel": 4,
      "note": 66,
      "start": 2.7391,
      "duration": 0.1318,
      "velocity": 76,
      "chip": "ym2612"
    },
    {
      "channel": 0,
      "note": 47,
      "start": 3.0034,
      "duration": 0.1493,
      "velocity": 101,
      "chip": "ym2612"
    },
    {
      "channel": 1,
      "note": 72,
      "start": 3.0042,
      "duration": 0.0575,
      "velocity": 97,
      "chip": "ym2612"
    },
    {
      "channel": 2,
      "note": 60,
      "start": 3.0049,
      "duration": 0.0575,
      "velocity": 97,
      "chip": "ym2612"
    },
    {
      "channel": 3,
      "note": 76,
      "start": 3.0057,
      "duration": 0.0575,
      "velocity": 76,
      "chip": "ym2612"
    },
    {
      "channel": 4,
      "note": 64,
      "start": 3.0064,
      "duration": 0.057,
      "velocity": 76,
      "chip": "ym2612"
    },
    {
      "channel": 1,
      "note": 74,
      "start": 3.0623,
      "duration": 0.0671,
      "velocity": 97,
      "chip": "ym2612"
    },
    {
      "channel": 2,
      "note": 62,
      "start": 3.0631,
      "duration": 0.0671,
      "velocity": 97,
      "chip": "ym2612"
    },
    {
      "channel": 3,
      "note": 83,
      "start": 3.1216,
      "duration": 0.0325,
      "velocity": 76,
      "chip": "ym2612"
    },
    {
      "channel": 4,
      "note": 71,
      "start": 3.1224,
      "duration": 0.0325,
      "velocity": 76,
      "chip": "ym2612"
    },
    {
      "channel": 1,
      "note": 76,
      "start": 3.13,
      "duration": 0.0436,
      "velocity": 97,
      "chip": "ym2612"
    },
    {
      "channel": 2,
      "note": 64,
      "start": 3.1308,
      "duration": 0.0436,
      "velocity": 97,
      "chip": "ym2612"
    },
    {
      "channel": 0,
      "note": 52,
      "start": 3.1532,
      "duration": 0.0586,
      "velocity": 101,
      "chip": "ym2612"
    },
    {
      "channel": 3,
      "note": 71,
      "start": 3.1547,
      "duration": 0.0313,
      "velocity": 76,
      "chip": "ym2612"
    },
    {
      "channel": 4,
      "note": 59,
      "start": 3.1554,
      "duration": 0.0308,
      "velocity": 76,
      "chip": "ym2612"
    },
    {
      "channel": 1,
      "note": 71,
      "start": 3.1743,
      "duration": 0.0381,
      "velocity": 97,
      "chip": "ym2612"
    },
    {
      "channel": 2,
      "note": 59,
      "start": 3.175,
      "duration": 0.0382,
      "velocity": 97,
      "chip": "ym2612"
    },
    {
      "channel": 0,
      "note": 45,
      "start": 3.2122,
      "duration": 0.3244,
      "velocity": 101,
      "chip": "ym2612"
    },
    {
      "channel": 1,
      "note": 74,
      "start": 3.213,
      "duration": 0.3243,
      "velocity": 97,
      "chip": "ym2612"
    },
    {
      "channel": 2,
      "note": 62,
      "start": 3.2137,
      "duration": 0.3243,
      "velocity": 97,
      "chip": "ym2612"
    },
    {
      "channel": 3,
      "note": 72,
      "start": 3.2144,
      "duration": 0.0564,
      "velocity": 76,
      "chip": "ym2612"
    },
    {
      "channel": 4,
      "note": 60,
      "start": 3.2152,
      "duration": 0.056,
      "velocity": 76,
      "chip": "ym2612"
    },
    {
      "channel": 3,
      "note": 79,
      "start": 3.4047,
      "duration": 0.134,
      "velocity": 76,
      "chip": "ym2612"
    },
    {
      "channel": 4,
      "note": 67,
      "start": 3.4054,
      "duration": 0.134,
      "velocity": 76,
      "chip": "ym2612"
    },
    {
      "channel": 0,
      "note": 52,
      "start": 3.5371,
      "duration": 0.148,
      "velocity": 101,
      "chip": "ym2612"
    },
    {
      "channel": 1,
      "note": 72,
      "start": 3.5379,
      "duration": 0.1324,
      "velocity": 97,
      "chip": "ym2612"
    },
    {
      "channel": 2,
      "note": 60,
      "start": 3.5386,
      "duration": 0.1325,
      "velocity": 97,
      "chip": "ym2612"
    },
    {
      "channel": 3,
      "note": 76,
      "start": 3.5393,
      "duration": 0.0569,
      "velocity": 76,
      "chip": "ym2612"
    },
    {
      "channel": 4,
      "note": 64,
      "start": 3.5401,
      "duration": 0.0564,
      "velocity": 76,
      "chip": "ym2612"
    },
    {
      "channel": 3,
      "note": 83,
      "start": 3.6551,
      "duration": 0.0321,
      "velocity": 76,
      "chip": "ym2612"
    },
    {
      "channel": 4,
      "note": 71,
      "start": 3.6559,
      "duration": 0.0317,
      "velocity": 76,
      "chip": "ym2612"
    },
    {
      "channel": 1,
      "note": 78,
      "start": 3.6709,
      "duration": 0.0149,
      "velocity": 97,
      "chip": "ym2612"
    },
    {
      "channel": 2,
      "note": 66,
      "start": 3.6716,
      "duration": 0.0149,
      "velocity": 97,
      "chip": "ym2612"
    },
    {
      "channel": 0,
      "note": 57,
      "start": 3.6857,
      "duration": 0.1405,
      "velocity": 101,
      "chip": "ym2612"
    },
    {
      "channel": 1,
      "note": 79,
      "start": 3.6864,
      "duration": 0.1403,
      "velocity": 97,
      "chip": "ym2612"
    },
    {
      "channel": 2,
      "note": 67,
      "start": 3.6871,
      "duration": 0.1403,
      "velocity": 97,
      "chip": "ym2612"
    },
    {
      "channel": 3,
      "note": 72,
      "start": 3.7693,
      "duration": 0.0589,
      "velocity": 76,
      "chip": "ym2612"
    },
    {
      "channel": 4,
      "note": 60,
      "start": 3.7701,
      "duration": 0.0584,
      "velocity": 76,
      "chip": "ym2612"
    },
    {
      "channel": 0,
      "note": 50,
      "start": 3.8266,
      "duration": 0.3247,
      "velocity": 101,
      "chip": "ym2612"
    },
    {
      "channel": 1,
      "note": 78,
      "start": 3.8273,
      "duration": 0.3246,
      "velocity": 97,
      "chip": "ym2612"
    },
    {
      "channel": 2,
      "note": 66,
      "start": 3.828,
      "duration": 0.3246,
      "velocity": 97,
      "chip": "ym2612"
    },
    {
      "channel": 3,
      "note": 78,
      "start": 3.8861,
      "duration": 0.1326,
      "velocity": 76,
      "chip": "ym2612"
    },
    {
      "channel": 4,
      "note": 66,
      "start": 3.8868,
      "duration": 0.1322,
      "velocity": 76,
      "chip": "ym2612"
    },
    {
      "channel": 0,
      "note": 57,
      "start": 4.1517,
      "duration": 0.1492,
      "velocity": 101,
      "chip": "ym2612"
    },
    {
      "channel": 1,
      "note": 76,
      "start": 4.1525,
      "duration": 0.149,
      "velocity": 97,
      "chip": "ym2612"
    },
    {
      "channel": 2,
      "note": 64,
      "start": 4.1532,
      "duration": 0.1491,
      "velocity": 97,
      "chip": "ym2612"
    },
    {
      "channel": 3,
      "note": 76,
      "start": 4.1539,
      "duration": 0.0569,
      "velocity": 76,
      "chip": "ym2612"
    },
    {
      "channel": 4,
      "note": 64,
      "start": 4.1547,
      "duration": 0.0564,
      "velocity": 76,
      "chip": "ym2612"
    },
    {
      "channel": 3,
      "note": 83,
      "start": 4.2698,
      "duration": 0.0332,
      "velocity": 76,
      "chip": "ym2612"
    },
    {
      "channel": 4,
      "note": 71,
      "start": 4.2705,
      "duration": 0.0332,
      "velocity": 76,
      "chip": "ym2612"
    },
    {
      "channel": 0,
      "note": 62,
      "start": 4.3014,
      "duration": 0.0584,
      "velocity": 101,
      "chip": "ym2612"
    },
    {
      "channel": 1,
      "note": 78,
      "start": 4.3021,
      "duration": 0.0583,
      "velocity": 97,
      "chip": "ym2612"
    },
    {
      "channel": 2,
      "note": 66,
      "start": 4.3029,
      "duration": 0.0583,
      "velocity": 97,
      "chip": "ym2612"
    },
    {
      "channel": 3,
      "note": 72,
      "start": 4.3036,
      "duration": 0.0305,
      "velocity": 76,
      "chip": "ym2612"
    },
    {
      "channel": 4,
      "note": 60,
      "start": 4.3043,
      "duration": 0.03,
      "velocity": 76,
      "chip": "ym2612"
    },
    {
      "channel": 0,
      "note": 43,
      "start": 4.3602,
      "duration": 0.3246,
      "velocity": 101,
      "chip": "ym2612"
    },
    {
      "channel": 1,
      "note": 76,
      "start": 4.361,
      "duration": 0.0167,
      "velocity": 97,
      "chip": "ym2612"
    },
    {
      "channel": 2,
      "note": 64,
      "start": 4.3617,
      "duration": 0.0167,
      "velocity": 97,
      "chip": "ym2612"
    },
    {
      "channel": 3,
      "note": 71,
      "start": 4.3624,
      "duration": 0.0571,
      "velocity": 76,
      "chip": "ym2612"
    },
    {
      "channel": 4,
      "note": 67,
      "start": 4.3632,
      "duration": 0.0567,
      "velocity": 76,
      "chip": "ym2612"
    },
    {
      "channel": 1,
      "note": 78,
      "start": 4.3782,
      "duration": 0.0399,
      "velocity": 97,
      "chip": "ym2612"
    },
    {
      "channel": 2,
      "note": 66,
      "start": 4.379,
      "duration": 0.0399,
      "velocity": 97,
      "chip": "ym2612"
    },
    {
      "channel": 1,
      "note": 76,
      "start": 4.4187,
      "duration": 0.2667,
      "velocity": 97,
      "chip": "ym2612"
    },
    {
      "channel": 2,
      "note": 64,
      "start": 4.4195,
      "duration": 0.2667,
      "velocity": 97,
      "chip": "ym2612"
    },
    {
      "channel": 0,
      "note": 45,
      "start": 4.6852,
      "duration": 0.1421,
      "velocity": 101,
      "chip": "ym2612"
    },
    {
      "channel": 1,
      "note": 74,
      "start": 4.686,
      "duration": 0.3131,
      "velocity": 97,
      "chip": "ym2612"
    },
    {
      "channel": 2,
      "note": 62,
      "start": 4.6867,
      "duration": 0.3132,
      "velocity": 97,
      "chip": "ym2612"
    },
    {
      "channel": 3,
      "note": 72,
      "start": 4.6875,
      "duration": 0.0568,
      "velocity": 76,
      "chip": "ym2612"
    },
    {
      "channel": 4,
      "note": 69,
      "start": 4.6882,
      "duration": 0.0563,
      "velocity": 76,
      "chip": "ym2612"
    },
    {
      "channel": 0,
      "note": 47,
      "start": 4.8278,
      "duration": 0.1463,
      "velocity": 101,
      "chip": "ym2612"
    },
    {
      "channel": 3,
      "note": 74,
      "start": 4.8293,
      "duration": 0.0874,
      "velocity": 76,
      "chip": "ym2612"
    },
    {
      "channel": 4,
      "note": 71,
      "start": 4.8301,
      "duration": 0.0869,
      "velocity": 76,
      "chip": "ym2612"
    },
    {
      "channel": 1,
      "note": 79,
      "start": 4.9998,
      "duration": 0.0881,
      "velocity": 97,
      "chip": "ym2612"
    },
    {
      "channel": 2,
      "note": 67,
      "start": 5.0005,
      "duration": 0.0881,
      "velocity": 97,
      "chip": "ym2612"
    },
    {
      "channel": 3,
      "note": 88,
      "start": 5.0038,
      "duration": 0.0315,
      "velocity": 97,
      "chip": "ym2612"
    },
    {
      "channel": 4,
      "note": 88,
      "start": 5.0072,
      "duration": 0.0288,
      "velocity": 97,
      "chip": "ym2612"
    },
    {
      "channel": 3,
      "note": 100,
      "start": 5.0359,
      "duration": 0.0534,
      "velocity": 97,
      "chip": "ym2612"
    },
    {
      "channel": 4,
      "note": 100,
      "start": 5.0366,
      "duration": 0.0534,
      "velocity": 97,
      "chip": "ym2612"
    },
    {
      "channel": 1,
      "note": 79,
      "start": 5.0884,
      "duration": 0.0296,
      "velocity": 97,
      "chip": "ym2612"
    },
    {
      "channel": 2,
      "note": 67,
      "start": 5.0892,
      "duration": 0.0296,
      "velocity": 97,
      "chip": "ym2612"
    },
    {
      "channel": 3,
      "note": 88,
      "start": 5.0899,
      "duration": 0.0296,
      "velocity": 97,
      "chip": "ym2612"
    },
    {
      "channel": 4,
      "note": 88,
      "start": 5.0907,
      "duration": 0.0292,
      "velocity": 97,
      "chip": "ym2612"
    },
    {
      "channel": 1,
      "note": 79,
      "start": 5.1186,
      "duration": 0.0305,
      "velocity": 97,
      "chip": "ym2612"
    },
    {
      "channel": 2,
      "note": 67,
      "start": 5.1194,
      "duration": 0.0304,
      "velocity": 97,
      "chip": "ym2612"
    },
    {
      "channel": 1,
      "note": 78,
      "start": 5.1497,
      "duration": 0.0332,
      "velocity": 97,
      "chip": "ym2612"
    },
    {
      "channel": 2,
      "note": 66,
      "start": 5.1504,
      "duration": 0.0332,
      "velocity": 97,
      "chip": "ym2612"
    },
    {
      "channel": 1,
      "note": 79,
      "start": 5.1834,
      "duration": 0.034,
      "velocity": 97,
      "chip": "ym2612"
    },
    {
      "channel": 2,
      "note": 67,
      "start": 5.1841,
      "duration": 0.0341,
      "velocity": 97,
      "chip": "ym2612"
    },
    {
      "channel": 0,
      "note": 45,
      "start": 5.2173,
      "duration": 0.3246,
      "velocity": 101,
      "chip": "ym2612"
    },
    {
      "channel": 1,
      "note": 78,
      "start": 5.218,
      "duration": 0.0222,
      "velocity": 97,
      "chip": "ym2612"
    },
    {
      "channel": 2,
      "note": 66,
      "start": 5.2187,
      "duration": 0.0222,
      "velocity": 97,
      "chip": "ym2612"
    },
    {
      "channel": 3,
      "note": 72,
      "start": 5.2223,
      "duration": 0.0544,
      "velocity": 76,
      "chip": "ym2612"
    },
    {
      "channel": 4,
      "note": 60,
      "start": 5.2258,
      "duration": 0.0511,
      "velocity": 76,
      "chip": "ym2612"
    },
    {
      "channel": 1,
      "note": 79,
      "start": 5.2408,
      "duration": 0.0343,
      "velocity": 97,
      "chip": "ym2612"
    },
    {
      "channel": 2,
      "note": 67,
      "start": 5.2415,
      "duration": 0.0344,
      "velocity": 97,
      "chip": "ym2612"
    },
    {
      "channel": 1,
      "note": 78,
      "start": 5.2757,
      "duration": 0.2667,
      "velocity": 97,
      "chip": "ym2612"
    },
    {
      "channel": 2,
      "note": 66,
      "start": 5.2765,
      "duration": 0.2667,
      "velocity": 97,
      "chip": "ym2612"
    },
    {
      "channel": 3,
      "note": 79,
      "start": 5.41,
      "duration": 0.134,
      "velocity": 76,
      "chip": "ym2612"
    },
    {
      "channel": 4,
      "note": 67,
      "start": 5.4107,
      "duration": 0.134,
      "velocity": 76,
      "chip": "ym2612"
    },
    {
      "channel": 0,
      "note": 52,
      "start": 5.5423,
      "duration": 0.1476,
      "velocity": 101,
      "chip": "ym2612"
    },
    {
      "channel": 1,
      "note": 76,
      "start": 5.543,
      "duration": 0.3799,
      "velocity": 97,
      "chip": "ym2612"
    },
    {
      "channel": 2,
      "note": 64,
      "start": 5.5437,
      "duration": 0.38,
      "velocity": 97,
      "chip": "ym2612"
    },
    {
      "channel": 3,
      "note": 76,
      "start": 5.5445,
      "duration": 0.0569,
      "velocity": 76,
      "chip": "ym2612"
    },
    {
      "channel": 4,
      "note": 64,
      "start": 5.5453,
      "duration": 0.0564,
      "velocity": 76,
      "chip": "ym2612"
    },
    {
      "channel": 3,
      "note": 83,
      "start": 5.6603,
      "duration": 0.0309,
      "velocity": 76,
      "chip": "ym2612"
    },
    {
      "channel": 4,
      "note": 71,
      "start": 5.6611,
      "duration": 0.0305,
      "velocity": 76,
      "chip": "ym2612"
    },
    {
      "channel": 0,
      "note": 57,
      "start": 5.6903,
      "duration": 0.1408,
      "velocity": 101,
      "chip": "ym2612"
    },
    {
      "channel": 3,
      "note": 72,
      "start": 5.7744,
      "duration": 0.0582,
      "velocity": 76,
      "chip": "ym2612"
    },
    {
      "channel": 4,
      "note": 60,
      "start": 5.7751,
      "duration": 0.0578,
      "velocity": 76,
      "chip": "ym2612"
    },
    {
      "channel": 0,
      "note": 50,
      "start": 5.8316,
      "duration": 0.3247,
      "velocity": 101,
      "chip": "ym2612"
    },
    {
      "channel": 3,
      "note": 78,
      "start": 5.8911,
      "duration": 0.1326,
      "velocity": 76,
      "chip": "ym2612"
    },
    {
      "channel": 4,
      "note": 66,
      "start": 5.8918,
      "duration": 0.1322,
      "velocity": 76,
      "chip": "ym2612"
    },
    {
      "channel": 1,
      "note": 78,
      "start": 5.9236,
      "duration": 0.1827,
      "velocity": 97,
      "chip": "ym2612"
    },
    {
      "channel": 2,
      "note": 66,
      "start": 5.9243,
      "duration": 0.1828,
      "velocity": 97,
      "chip": "ym2612"
    },
    {
      "channel": 1,
      "note": 79,
      "start": 6.1069,
      "duration": 0.1082,
      "velocity": 97,
      "chip": "ym2612"
    },
    {
      "channel": 2,
      "note": 67,
      "start": 6.1076,
      "duration": 0.1081,
      "velocity": 97,
      "chip": "ym2612"
    },
    {
      "channel": 0,
      "note": 57,
      "start": 6.1568,
      "duration": 0.1493,
      "velocity": 101,
      "chip": "ym2612"
    },
    {
      "channel": 3,
      "note": 76,
      "start": 6.1583,
      "duration": 0.0582,
      "velocity": 76,
      "chip": "ym2612"
    },
    {
      "channel": 4,
      "note": 64,
      "start": 6.1591,
      "duration": 0.0577,
      "velocity": 76,
      "chip": "ym2612"
    },
    {
      "channel": 1,
      "note": 81,
      "start": 6.2156,
      "duration": 0.0671,
      "velocity": 97,
      "chip": "ym2612"
    },
    {
      "channel": 2,
      "note": 69,
      "start": 6.2164,
      "duration": 0.0671,
      "velocity": 97,
      "chip": "ym2612"
    },
    {
      "channel": 3,
      "note": 83,
      "start": 6.275,
      "duration": 0.0325,
      "velocity": 76,
      "chip": "ym2612"
    },
    {
      "channel": 4,
      "note": 71,
      "start": 6.2758,
      "duration": 0.0325,
      "velocity": 76,
      "chip": "ym2612"
    },
    {
      "channel": 1,
      "note": 78,
      "start": 6.2834,
      "duration": 0.0437,
      "velocity": 97,
      "chip": "ym2612"
    },
    {
      "channel": 2,
      "note": 66,
      "start": 6.2841,
      "duration": 0.0437,
      "velocity": 97,
      "chip": "ym2612"
    },
    {
      "channel": 0,
      "note": 62,
      "start": 6.3066,
      "duration": 0.0587,
      "velocity": 101,
      "chip": "ym2612"
    },
    {
      "channel": 3,
      "note": 72,
      "start": 6.308,
      "duration": 0.0315,
      "velocity": 76,
      "chip": "ym2612"
    },
    {
      "channel": 4,
      "note": 60,
      "start": 6.3088,
      "duration": 0.0311,
      "velocity": 76,
      "chip": "ym2612"
    },
    {
      "channel": 1,
      "note": 76,
      "start": 6.3277,
      "duration": 0.0381,
      "velocity": 97,
      "chip": "ym2612"
    },
    {
      "channel": 2,
      "note": 64,
      "start": 6.3284,
      "duration": 0.0382,
      "velocity": 97,
      "chip": "ym2612"
    },
    {
      "channel": 0,
      "note": 43,
      "start": 6.3657,
      "duration": 0.3244,
      "velocity": 101,
      "chip": "ym2612"
    },
    {
      "channel": 1,
      "note": 76,
      "start": 6.3665,
      "duration": 0.0165,
      "velocity": 97,
      "chip": "ym2612"
    },
    {
      "channel": 2,
      "note": 64,
      "start": 6.3672,
      "duration": 0.0165,
      "velocity": 97,
      "chip": "ym2612"
    },
    {
      "channel": 3,
      "note": 71,
      "start": 6.3679,
      "duration": 0.057,
      "velocity": 76,
      "chip": "ym2612"
    },
    {
      "channel": 4,
      "note": 59,
      "start": 6.3687,
      "duration": 0.0566,
      "velocity": 76,
      "chip": "ym2612"
    },
    {
      "channel": 1,
      "note": 78,
      "start": 6.3836,
      "duration": 0.0399,
      "velocity": 97,
      "chip": "ym2612"
    },
    {
      "channel": 2,
      "note": 66,
      "start": 6.3843,
      "duration": 0.0399,
      "velocity": 97,
      "chip": "ym2612"
    },
    {
      "channel": 1,
      "note": 76,
      "start": 6.424,
      "duration": 0.2667,
      "velocity": 97,
      "chip": "ym2612"
    },
    {
      "channel": 2,
      "note": 64,
      "start": 6.4248,
      "duration": 0.2667,
      "velocity": 97,
      "chip": "ym2612"
    },
    {
      "channel": 3,
      "note": 78,
      "start": 6.5583,
      "duration": 0.134,
      "velocity": 76,
      "chip": "ym2612"
    },
    {
      "channel": 4,
      "note": 66,
      "start": 6.559,
      "duration": 0.134,
      "velocity": 76,
      "chip": "ym2612"
    },
    {
      "channel": 0,
      "note": 50,
      "start": 6.6906,
      "duration": 0.1476,
      "velocity": 101,
      "chip": "ym2612"
    },
    {
      "channel": 1,
      "note": 74,
      "start": 6.6913,
      "duration": 0.3054,
      "velocity": 97,
      "chip": "ym2612"
    },
    {
      "channel": 2,
      "note": 62,
      "start": 6.692,
      "duration": 0.3055,
      "velocity": 97,
      "chip": "ym2612"
    },
    {
      "channel": 3,
      "note": 74,
      "start": 6.6928,
      "duration": 0.0569,
      "velocity": 76,
      "chip": "ym2612"
    },
    {
      "channel": 4,
      "note": 62,
      "start": 6.6936,
      "duration": 0.0564,
      "velocity": 76,
      "chip": "ym2612"
    },
    {
      "channel": 3,
      "note": 81,
      "start": 6.8086,
      "duration": 0.0309,
      "velocity": 76,
      "chip": "ym2612"
    },
    {
      "channel": 4,
      "note": 69,
      "start": 6.8094,
      "duration": 0.0305,
      "velocity": 76,
      "chip": "ym2612"
    },
    {
      "channel": 0,
      "note": 55,
      "start": 6.8386,
      "duration": 0.1408,
      "velocity": 101,
      "chip": "ym2612"
    },
    {
      "channel": 3,
      "note": 71,
      "start": 6.9227,
      "duration": 0.0582,
      "velocity": 76,
      "chip": "ym2612"
    },
    {
      "channel": 4,
      "note": 59,
      "start": 6.9234,
      "duration": 0.0578,
      "velocity": 76,
      "chip": "ym2612"
    },
    {
      "channel": 0,
      "note": 52,
      "start": 6.9799,
      "duration": 0.3246,
      "velocity": 101,
      "chip": "ym2612"
    },
    {
      "channel": 1,
      "note": 75,
      "start": 6.9974,
      "duration": 0.0739,
      "velocity": 97,
      "chip": "ym2612"
    },
    {
      "channel": 2,
      "note": 63,
      "start": 6.9981,
      "duration": 0.0739,
      "velocity": 97,
      "chip": "ym2612"
    },
    {
      "channel": 3,
      "note": 78,
      "start": 7.0394,
      "duration": 0.1326,
      "velocity": 76,
      "chip": "ym2612"
    },
    {
      "channel": 4,
      "note": 66,
      "start": 7.0401,
      "duration": 0.1322,
      "velocity": 76,
      "chip": "ym2612"
    },
    {
      "channel": 1,
      "note": 76,
      "start": 7.0718,
      "duration": 0.1827,
      "velocity": 97,
      "chip": "ym2612"
    },
    {
      "channel": 2,
      "note": 64,
      "start": 7.0726,
      "duration": 0.1828,
      "velocity": 97,
      "chip": "ym2612"
    },
    {
      "channel": 1,
      "note": 78,
      "start": 7.2552,
      "duration": 0.1082,
      "velocity": 97,
      "chip": "ym2612"
    },
    {
      "channel": 2,
      "note": 66,
      "start": 7.2559,
      "duration": 0.1081,
      "velocity": 97,
      "chip": "ym2612"
    },
    {
      "channel": 0,
      "note": 59,
      "start": 7.305,
      "duration": 0.1493,
      "velocity": 101,
      "chip": "ym2612"
    },
    {
      "channel": 3,
      "note": 76,
      "start": 7.3066,
      "duration": 0.0582,
      "velocity": 76,
      "chip": "ym2612"
    },
    {
      "channel": 4,
      "note": 64,
      "start": 7.3074,
      "duration": 0.0577,
      "velocity": 76,
      "chip": "ym2612"
    },
    {
      "channel": 1,
      "note": 80,
      "start": 7.3639,
      "duration": 0.0671,
      "velocity": 97,
      "chip": "ym2612"
    },
    {
      "channel": 2,
      "note": 68,
      "start": 7.3646,
      "duration": 0.0672,
      "velocity": 97,
      "chip": "ym2612"
    },
    {
      "channel": 3,
      "note": 83,
      "start": 7.4233,
      "duration": 0.0325,
      "velocity": 76,
      "chip": "ym2612"
    },
    {
      "channel": 4,
      "note": 71,
      "start": 7.424,
      "duration": 0.0325,
      "velocity": 76,
      "chip": "ym2612"
    },
    {
      "channel": 1,
      "note": 81,
      "start": 7.4317,
      "duration": 0.0436,
      "velocity": 97,
      "chip": "ym2612"
    },
    {
      "channel": 2,
      "note": 69,
      "start": 7.4324,
      "duration": 0.0436,
      "velocity": 97,
      "chip": "ym2612"
    },
    {
      "channel": 0,
      "note": 64,
      "start": 7.4549,
      "duration": 0.0585,
      "velocity": 101,
      "chip": "ym2612"
    },
    {
      "channel": 3,
      "note": 71,
      "start": 7.4563,
      "duration": 0.0313,
      "velocity": 76,
      "chip": "ym2612"
    },
    {
      "channel": 4,
      "note": 59,
      "start": 7.4571,
      "duration": 0.0308,
      "velocity": 76,
      "chip": "ym2612"
    },
    {
      "channel": 1,
      "note": 83,
      "start": 7.4759,
      "duration": 0.0381,
      "velocity": 97,
      "chip": "ym2612"
    },
    {
      "channel": 2,
      "note": 71,
      "start": 7.4766,
      "duration": 0.0382,
      "velocity": 97,
      "chip": "ym2612"
    },
    {
      "channel": 0,
      "note": 45,
      "start": 7.5139,
      "duration": 0.3244,
      "velocity": 101,
      "chip": "ym2612"
    },
    {
      "channel": 1,
      "note": 84,
      "start": 7.5146,
      "duration": 0.3243,
      "velocity": 97,
      "chip": "ym2612"
    },
    {
      "channel": 2,
      "note": 72,
      "start": 7.5154,
      "duration": 0.3243,
      "velocity": 97,
      "chip": "ym2612"
    },
    {
      "channel": 3,
      "note": 72,
      "start": 7.5161,
      "duration": 0.0564,
      "velocity": 76,
      "chip": "ym2612"
    },
    {
      "channel": 4,
      "note": 60,
      "start": 7.5169,
      "duration": 0.0559,
      "velocity": 76,
      "chip": "ym2612"
    },
    {
      "channel": 3,
      "note": 79,
      "start": 7.7064,
      "duration": 0.134,
      "velocity": 76,
      "chip": "ym2612"
    },
    {
      "channel": 4,
      "note": 67,
      "start": 7.7071,
      "duration": 0.134,
      "velocity": 76,
      "chip": "ym2612"
    },
    {
      "channel": 0,
      "note": 52,
      "start": 7.8388,
      "duration": 0.1476,
      "velocity": 101,
      "chip": "ym2612"
    },
    {
      "channel": 1,
      "note": 76,
      "start": 7.8395,
      "duration": 0.1474,
      "velocity": 97,
      "chip": "ym2612"
    },
    {
      "channel": 2,
      "note": 64,
      "start": 7.8402,
      "duration": 0.1475,
      "velocity": 97,
      "chip": "ym2612"
    },
    {
      "channel": 3,
      "note": 76,
      "start": 7.841,
      "duration": 0.0569,
      "velocity": 76,
      "chip": "ym2612"
    },
    {
      "channel": 4,
      "note": 64,
      "start": 7.8417,
      "duration": 0.0564,
      "velocity": 76,
      "chip": "ym2612"
    },
    {
      "channel": 3,
      "note": 83,
      "start": 7.9568,
      "duration": 0.0316,
      "velocity": 76,
      "chip": "ym2612"
    },
    {
      "channel": 4,
      "note": 71,
      "start": 7.9576,
      "duration": 0.0312,
      "velocity": 76,
      "chip": "ym2612"
    },
    {
      "channel": 0,
      "note": 57,
      "start": 7.9868,
      "duration": 0.1409,
      "velocity": 101,
      "chip": "ym2612"
    },
    {
      "channel": 1,
      "note": 79,
      "start": 7.9875,
      "duration": 0.1408,
      "velocity": 97,
      "chip": "ym2612"
    },
    {
      "channel": 2,
      "note": 67,
      "start": 7.9883,
      "duration": 0.1407,
      "velocity": 97,
      "chip": "ym2612"
    },
    {
      "channel": 3,
      "note": 72,
      "start": 8.0709,
      "duration": 0.0589,
      "velocity": 76,
      "chip": "ym2612"
    },
    {
      "channel": 4,
      "note": 60,
      "start": 8.0716,
      "duration": 0.0584,
      "velocity": 76,
      "chip": "ym2612"
    },
    {
      "channel": 0,
      "note": 50,
      "start": 8.1281,
      "duration": 0.3247,
      "velocity": 101,
      "chip": "ym2612"
    },
    {
      "channel": 1,
      "note": 78,
      "start": 8.1289,
      "duration": 0.3246,
      "velocity": 97,
      "chip": "ym2612"
    },
    {
      "channel": 2,
      "note": 66,
      "start": 8.1296,
      "duration": 0.3246,
      "velocity": 97,
      "chip": "ym2612"
    },
    {
      "channel": 3,
      "note": 78,
      "start": 8.1876,
      "duration": 0.1326,
      "velocity": 76,
      "chip": "ym2612"
    },
    {
      "channel": 4,
      "note": 66,
      "start": 8.1883,
      "duration": 0.1322,
      "velocity": 76,
      "chip": "ym2612"
    },
    {
      "channel": 0,
      "note": 57,
      "start": 8.4533,
      "duration": 0.1492,
      "velocity": 101,
      "chip": "ym2612"
    },
    {
      "channel": 1,
      "note": 76,
      "start": 8.4541,
      "duration": 0.149,
      "velocity": 97,
      "chip": "ym2612"
    },
    {
      "channel": 2,
      "note": 64,
      "start": 8.4548,
      "duration": 0.1491,
      "velocity": 97,
      "chip": "ym2612"
    },
    {
      "channel": 3,
      "note": 76,
      "start": 8.4555,
      "duration": 0.0569,
      "velocity": 76,
      "chip": "ym2612"
    },
    {
      "channel": 4,
      "note": 64,
      "start": 8.4563,
      "duration": 0.0564,
      "velocity": 76,
      "chip": "ym2612"
    },
    {
      "channel": 3,
      "note": 83,
      "start": 8.5714,
      "duration": 0.0332,
      "velocity": 76,
      "chip": "ym2612"
    },
    {
      "channel": 4,
      "note": 71,
      "start": 8.5721,
      "duration": 0.0332,
      "velocity": 76,
      "chip": "ym2612"
    },
    {
      "channel": 0,
      "note": 62,
      "start": 8.603,
      "duration": 0.0584,
      "velocity": 101,
      "chip": "ym2612"
    },
    {
      "channel": 1,
      "note": 78,
      "start": 8.6037,
      "duration": 0.0583,
      "velocity": 97,
      "chip": "ym2612"
    },
    {
      "channel": 2,
      "note": 66,
      "start": 8.6044,
      "duration": 0.0583,
      "velocity": 97,
      "chip": "ym2612"
    },
    {
      "channel": 3,
      "note": 72,
      "start": 8.6051,
      "duration": 0.0305,
      "velocity": 76,
      "chip": "ym2612"
    },
    {
      "channel": 4,
      "note": 60,
      "start": 8.6059,
      "duration": 0.03,
      "velocity": 76,
      "chip": "ym2612"
    },
    {
      "channel": 0,
      "note": 43,
      "start": 8.6618,
      "duration": 0.0317,
      "velocity": 101,
      "chip": "ym2612"
    },
    {
      "channel": 1,
      "note": 79,
      "start": 8.6626,
      "duration": 0.0316,
      "velocity": 97,
      "chip": "ym2612"
    },
    {
      "channel": 2,
      "note": 67,
      "start": 8.6633,
      "duration": 0.0316,
      "velocity": 97,
      "chip": "ym2612"
    },
    {
      "channel": 3,
      "note": 74,
      "start": 8.664,
      "duration": 0.0315,
      "velocity": 76,
      "chip": "ym2612"
    },
    {
      "channel": 4,
      "note": 71,
      "start": 8.6648,
      "duration": 0.0316,
      "velocity": 76,
      "chip": "ym2612"
    },
    {
      "channel": 0,
      "note": 43,
      "start": 8.694,
      "duration": 0.0317,
      "velocity": 101,
      "chip": "ym2612"
    },
    {
      "channel": 1,
      "note": 79,
      "start": 8.6948,
      "duration": 0.0316,
      "velocity": 97,
      "chip": "ym2612"
    },
    {
      "channel": 2,
      "note": 67,
      "start": 8.6955,
      "duration": 0.0316,
      "velocity": 97,
      "chip": "ym2612"
    },
    {
      "channel": 3,
      "note": 74,
      "start": 8.6961,
      "duration": 0.0316,
      "velocity": 76,
      "chip": "ym2612"
    },
    {
      "channel": 4,
      "note": 71,
      "start": 8.6969,
      "duration": 0.0316,
      "velocity": 76,
      "chip": "ym2612"
    },
    {
      "channel": 0,
      "note": 43,
      "start": 8.7262,
      "duration": 0.0314,
      "velocity": 101,
      "chip": "ym2612"
    },
    {
      "channel": 1,
      "note": 79,
      "start": 8.727,
      "duration": 0.1702,
      "velocity": 97,
      "chip": "ym2612"
    },
    {
      "channel": 2,
      "note": 67,
      "start": 8.7277,
      "duration": 0.1702,
      "velocity": 97,
      "chip": "ym2612"
    },
    {
      "channel": 3,
      "note": 74,
      "start": 8.7283,
      "duration": 0.0304,
      "velocity": 76,
      "chip": "ym2612"
    },
    {
      "channel": 4,
      "note": 71,
      "start": 8.7291,
      "duration": 0.0299,
      "velocity": 76,
      "chip": "ym2612"
    },
    {
      "channel": 0,
      "note": 43,
      "start": 8.8969,
      "duration": 0.0317,
      "velocity": 101,
      "chip": "ym2612"
    },
    {
      "channel": 1,
      "note": 79,
      "start": 8.8977,
      "duration": 0.0316,
      "velocity": 97,
      "chip": "ym2612"
    },
    {
      "channel": 2,
      "note": 67,
      "start": 8.8984,
      "duration": 0.0316,
      "velocity": 97,
      "chip": "ym2612"
    },
    {
      "channel": 3,
      "note": 74,
      "start": 8.8992,
      "duration": 0.0316,
      "velocity": 76,
      "chip": "ym2612"
    },
    {
      "channel": 4,
      "note": 71,
      "start": 8.8999,
      "duration": 0.0316,
      "velocity": 76,
      "chip": "ym2612"
    },
    {
      "channel": 0,
      "note": 43,
      "start": 8.9291,
      "duration": 0.0318,
      "velocity": 101,
      "chip": "ym2612"
    },
    {
      "channel": 1,
      "note": 79,
      "start": 8.9299,
      "duration": 0.0316,
      "velocity": 97,
      "chip": "ym2612"
    },
    {
      "channel": 2,
      "note": 67,
      "start": 8.9306,
      "duration": 0.0317,
      "velocity": 97,
      "chip": "ym2612"
    },
    {
      "channel": 3,
      "note": 74,
      "start": 8.9313,
      "duration": 0.0317,
      "velocity": 76,
      "chip": "ym2612"
    },
    {
      "channel": 4,
      "note": 71,
      "start": 8.9321,
      "duration": 0.0317,
      "velocity": 76,
      "chip": "ym2612"
    },
    {
      "channel": 0,
      "note": 43,
      "start": 8.9614,
      "duration": 0.0316,
      "velocity": 101,
      "chip": "ym2612"
    },
    {
      "channel": 1,
      "note": 79,
      "start": 8.9622,
      "duration": 0.5062,
      "velocity": 92,
      "chip": "ym2612"
    },
    {
      "channel": 2,
      "note": 67,
      "start": 8.9629,
      "duration": 0.64,
      "velocity": 92,
      "chip": "ym2612"
    },
    {
      "channel": 3,
      "note": 74,
      "start": 8.9635,
      "duration": 0.0306,
      "velocity": 76,
      "chip": "ym2612"
    },
    {
      "channel": 4,
      "note": 71,
      "start": 8.9643,
      "duration": 0.0301,
      "velocity": 76,
      "chip": "ym2612"
    },
    {
      "channel": 1,
      "note": 93,
      "start": 9.469,
      "duration": 0.0637,
      "velocity": 92,
      "chip": "ym2612"
    },
    {
      "channel": 1,
      "note": 95,
      "start": 9.6,
      "duration": 0.066,
      "velocity": 92,
      "chip": "ym2612"
    },
    {
      "channel": 2,
      "note": 93,
      "start": 9.6034,
      "duration": 0.063,
      "velocity": 92,
      "chip": "ym2612"
    },
    {
      "channel": 0,
      "note": 50,
      "start": 9.7335,
      "duration": 0.3245,
      "velocity": 101,
      "chip": "ym2612"
    },
    {
      "channel": 1,
      "note": 96,
      "start": 9.7342,
      "duration": 0.3244,
      "velocity": 92,
      "chip": "ym2612"
    },
    {
      "channel": 2,
      "note": 95,
      "start": 9.735,
      "duration": 0.012,
      "velocity": 92,
      "chip": "ym2612"
    },
    {
      "channel": 2,
      "note": 96,
      "start": 9.7922,
      "duration": 0.3249,
      "velocity": 92,
      "chip": "ym2612"
    },
    {
      "channel": 3,
      "note": 72,
      "start": 9.9284,
      "duration": 0.0637,
      "velocity": 106,
      "chip": "ym2612"
    },
    {
      "channel": 4,
      "note": 65,
      "start": 9.9315,
      "duration": 0.0608,
      "velocity": 106,
      "chip": "ym2612"
    },
    {
      "channel": 0,
      "note": 57,
      "start": 10.0585,
      "duration": 0.146,
      "velocity": 101,
      "chip": "ym2612"
    },
    {
      "channel": 1,
      "note": 89,
      "start": 10.0592,
      "duration": 0.1459,
      "velocity": 92,
      "chip": "ym2612"
    },
    {
      "channel": 2,
      "note": 89,
      "start": 10.1178,
      "duration": 0.1718,
      "velocity": 92,
      "chip": "ym2612"
    },
    {
      "channel": 3,
      "note": 72,
      "start": 10.1766,
      "duration": 0.0159,
      "velocity": 106,
      "chip": "ym2612"
    },
    {
      "channel": 4,
      "note": 65,
      "start": 10.1773,
      "duration": 0.0155,
      "velocity": 106,
      "chip": "ym2612"
    },
    {
      "channel": 0,
      "note": 62,
      "start": 10.2049,
      "duration": 0.1426,
      "velocity": 101,
      "chip": "ym2612"
    },
    {
      "channel": 1,
      "note": 96,
      "start": 10.2057,
      "duration": 0.1425,
      "velocity": 92,
      "chip": "ym2612"
    },
    {
      "channel": 2,
      "note": 96,
      "start": 10.2902,
      "duration": 0.1161,
      "velocity": 92,
      "chip": "ym2612"
    },
    {
      "channel": 0,
      "note": 43,
      "start": 10.348,
      "duration": 0.3246,
      "velocity": 101,
      "chip": "ym2612"
    },
    {
      "channel": 1,
      "note": 95,
      "start": 10.3488,
      "duration": 0.3826,
      "velocity": 92,
      "chip": "ym2612"
    },
    {
      "channel": 3,
      "note": 71,
      "start": 10.3498,
      "duration": 0.1902,
      "velocity": 106,
      "chip": "ym2612"
    },
    {
      "channel": 4,
      "note": 65,
      "start": 10.3506,
      "duration": 0.1897,
      "velocity": 106,
      "chip": "ym2612"
    },
    {
      "channel": 2,
      "note": 95,
      "start": 10.4069,
      "duration": 0.383,
      "velocity": 92,
      "chip": "ym2612"
    },
    {
      "channel": 0,
      "note": 50,
      "start": 10.6731,
      "duration": 0.1379,
      "velocity": 101,
      "chip": "ym2612"
    },
    {
      "channel": 3,
      "note": 71,
      "start": 10.6746,
      "duration": 0.0164,
      "velocity": 106,
      "chip": "ym2612"
    },
    {
      "channel": 4,
      "note": 65,
      "start": 10.6754,
      "duration": 0.0159,
      "velocity": 106,
      "chip": "ym2612"
    },
    {
      "channel": 0,
      "note": 55,
      "start": 10.8115,
      "duration": 0.0585,
      "velocity": 101,
      "chip": "ym2612"
    },
    {
      "channel": 1,
      "note": 91,
      "start": 10.8123,
      "duration": 0.0151,
      "velocity": 92,
      "chip": "ym2612"
    },
    {
      "channel": 3,
      "note": 71,
      "start": 10.8131,
      "duration": 0.0592,
      "velocity": 106,
      "chip": "ym2612"
    },
    {
      "channel": 4,
      "note": 65,
      "start": 10.8138,
      "duration": 0.0587,
      "velocity": 106,
      "chip": "ym2612"
    },
    {
      "channel": 1,
      "note": 93,
      "start": 10.8413,
      "duration": 0.0152,
      "velocity": 92,
      "chip": "ym2612"
    },
    {
      "channel": 2,
      "note": 91,
      "start": 10.842,
      "duration": 0.0148,
      "velocity": 92,
      "chip": "ym2612"
    },
    {
      "channel": 0,
      "note": 48,
      "start": 10.8706,
      "duration": 0.3244,
      "velocity": 101,
      "chip": "ym2612"
    },
    {
      "channel": 1,
      "note": 95,
      "start": 10.8714,
      "duration": 0.3242,
      "velocity": 92,
      "chip": "ym2612"
    },
    {
      "channel": 2,
      "note": 93,
      "start": 10.8721,
      "duration": 0.0128,
      "velocity": 92,
      "chip": "ym2612"
    },
    {
      "channel": 2,
      "note": 95,
      "start": 10.9292,
      "duration": 0.3248,
      "velocity": 92,
      "chip": "ym2612"
    },
    {
      "channel": 3,
      "note": 71,
      "start": 11.0629,
      "duration": 0.0661,
      "velocity": 106,
      "chip": "ym2612"
    },
    {
      "channel": 4,
      "note": 64,
      "start": 11.0637,
      "duration": 0.0656,
      "velocity": 106,
      "chip": "ym2612"
    },
    {
      "channel": 0,
      "note": 55,
      "start": 11.1954,
      "duration": 0.146,
      "velocity": 101,
      "chip": "ym2612"
    },
    {
      "channel": 1,
      "note": 100,
      "start": 11.1962,
      "duration": 0.1459,
      "velocity": 92,
      "chip": "ym2612"
    },
    {
      "channel": 2,
      "note": 100,
      "start": 11.2546,
      "duration": 0.1719,
      "velocity": 92,
      "chip": "ym2612"
    },
    {
      "channel": 3,
      "note": 71,
      "start": 11.3135,
      "duration": 0.0159,
      "velocity": 106,
      "chip": "ym2612"
    },
    {
      "channel": 4,
      "note": 64,
      "start": 11.3143,
      "duration": 0.0155,
      "velocity": 106,
      "chip": "ym2612"
    },
    {
      "channel": 0,
      "note": 60,
      "start": 11.3419,
      "duration": 0.1426,
      "velocity": 101,
      "chip": "ym2612"
    },
    {
      "channel": 1,
      "note": 95,
      "start": 11.3426,
      "duration": 0.1425,
      "velocity": 92,
      "chip": "ym2612"
    },
    {
      "channel": 2,
      "note": 95,
      "start": 11.4271,
      "duration": 0.1161,
      "velocity": 92,
      "chip": "ym2612"
    },
    {
      "channel": 0,
      "note": 48,
      "start": 11.485,
      "duration": 0.3246,
      "velocity": 101,
      "chip": "ym2612"
    },
    {
      "channel": 1,
      "note": 93,
      "start": 11.4857,
      "duration": 0.3827,
      "velocity": 92,
      "chip": "ym2612"
    },
    {
      "channel": 3,
      "note": 69,
      "start": 11.4868,
      "duration": 0.1902,
      "velocity": 106,
      "chip": "ym2612"
    },
    {
      "channel": 4,
      "note": 64,
      "start": 11.4875,
      "duration": 0.1897,
      "velocity": 106,
      "chip": "ym2612"
    },
    {
      "channel": 2,
      "note": 93,
      "start": 11.5438,
      "duration": 0.3831,
      "velocity": 92,
      "chip": "ym2612"
    },
    {
      "channel": 0,
      "note": 55,
      "start": 11.81,
      "duration": 0.1397,
      "velocity": 101,
      "chip": "ym2612"
    },
    {
      "channel": 3,
      "note": 71,
      "start": 11.8116,
      "duration": 0.1157,
      "velocity": 106,
      "chip": "ym2612"
    },
    {
      "channel": 4,
      "note": 62,
      "start": 11.8123,
      "duration": 0.1152,
      "velocity": 106,
      "chip": "ym2612"
    },
    {
      "channel": 0,
      "note": 60,
      "start": 11.9502,
      "duration": 0.0586,
      "velocity": 101,
      "chip": "ym2612"
    },
    {
      "channel": 1,
      "note": 93,
      "start": 11.9509,
      "duration": 0.0153,
      "velocity": 92,
      "chip": "ym2612"
    },
    {
      "channel": 3,
      "note": 72,
      "start": 11.9517,
      "duration": 0.0593,
      "velocity": 106,
      "chip": "ym2612"
    },
    {
      "channel": 4,
      "note": 64,
      "start": 11.9525,
      "duration": 0.0588,
      "velocity": 106,
      "chip": "ym2612"
    },
    {
      "channel": 1,
      "note": 95,
      "start": 11.98,
      "duration": 0.0153,
      "velocity": 92,
      "chip": "ym2612"
    },
    {
      "channel": 2,
      "note": 93,
      "start": 11.9807,
      "duration": 0.0149,
      "velocity": 92,
      "chip": "ym2612"
    },
    {
      "channel": 0,
      "note": 50,
      "start": 12.0094,
      "duration": 0.3244,
      "velocity": 101,
      "chip": "ym2612"
    },
    {
      "channel": 1,
      "note": 96,
      "start": 12.0101,
      "duration": 0.3242,
      "velocity": 92,
      "chip": "ym2612"
    },
    {
      "channel": 2,
      "note": 95,
      "start": 12.0109,
      "duration": 0.0128,
      "velocity": 92,
      "chip": "ym2612"
    },
    {
      "channel": 2,
      "note": 96,
      "start": 12.068,
      "duration": 0.3248,
      "velocity": 92,
      "chip": "ym2612"
    },
    {
      "channel": 3,
      "note": 72,
      "start": 12.2017,
      "duration": 0.0661,
      "velocity": 106,
      "chip": "ym2612"
    },
    {
      "channel": 4,
      "note": 65,
      "start": 12.2024,
      "duration": 0.0656,
      "velocity": 106,
      "chip": "ym2612"
    },
    {
      "channel": 0,
      "note": 57,
      "start": 12.3342,
      "duration": 0.1459,
      "velocity": 101,
      "chip": "ym2612"
    },
    {
      "channel": 1,
      "note": 89,
      "start": 12.3349,
      "duration": 0.1459,
      "velocity": 92,
      "chip": "ym2612"
    },
    {
      "channel": 2,
      "note": 89,
      "start": 12.3934,
      "duration": 0.1719,
      "velocity": 92,
      "chip": "ym2612"
    },
    {
      "channel": 3,
      "note": 72,
      "start": 12.4523,
      "duration": 0.0159,
      "velocity": 106,
      "chip": "ym2612"
    },
    {
      "channel": 4,
      "note": 65,
      "start": 12.453,
      "duration": 0.0155,
      "velocity": 106,
      "chip": "ym2612"
    },
    {
      "channel": 0,
      "note": 62,
      "start": 12.4806,
      "duration": 0.1426,
      "velocity": 101,
      "chip": "ym2612"
    },
    {
      "channel": 1,
      "note": 96,
      "start": 12.4814,
      "duration": 0.1425,
      "velocity": 92,
      "chip": "ym2612"
    },
    {
      "channel": 2,
      "note": 96,
      "start": 12.5659,
      "duration": 0.1161,
      "velocity": 92,
      "chip": "ym2612"
    },
    {
      "channel": 0,
      "note": 43,
      "start": 12.6237,
      "duration": 0.3246,
      "velocity": 101,
      "chip": "ym2612"
    },
    {
      "channel": 1,
      "note": 95,
      "start": 12.6245,
      "duration": 0.3245,
      "velocity": 92,
      "chip": "ym2612"
    },
    {
      "channel": 3,
      "note": 71,
      "start": 12.6255,
      "duration": 0.1902,
      "velocity": 106,
      "chip": "ym2612"
    },
    {
      "channel": 4,
      "note": 65,
      "start": 12.6263,
      "duration": 0.1897,
      "velocity": 106,
      "chip": "ym2612"
    },
    {
      "channel": 2,
      "note": 95,
      "start": 12.6826,
      "duration": 0.3248,
      "velocity": 92,
      "chip": "ym2612"
    },
    {
      "channel": 0,
      "note": 50,
      "start": 12.9488,
      "duration": 0.142,
      "velocity": 101,
      "chip": "ym2612"
    },
    {
      "channel": 1,
      "note": 98,
      "start": 12.9496,
      "duration": 0.1418,
      "velocity": 92,
      "chip": "ym2612"
    },
    {
      "channel": 3,
      "note": 71,
      "start": 12.9507,
      "duration": 0.0159,
      "velocity": 106,
      "chip": "ym2612"
    },
    {
      "channel": 4,
      "note": 65,
      "start": 12.9515,
      "duration": 0.0155,
      "velocity": 106,
      "chip": "ym2612"
    },
    {
      "channel": 2,
      "note": 98,
      "start": 13.008,
      "duration": 0.1158,
      "velocity": 92,
      "chip": "ym2612"
    },
    {
      "channel": 0,
      "note": 55,
      "start": 13.0912,
      "duration": 0.0629,
      "velocity": 101,
      "chip": "ym2612"
    },
    {
      "channel": 1,
      "note": 95,
      "start": 13.092,
      "duration": 0.0628,
      "velocity": 92,
      "chip": "ym2612"
    },
    {
      "channel": 3,
      "note": 71,
      "start": 13.0931,
      "duration": 0.0627,
      "velocity": 106,
      "chip": "ym2612"
    },
    {
      "channel": 4,
      "note": 65,
      "start": 13.0939,
      "duration": 0.0622,
      "velocity": 106,
      "chip": "ym2612"
    },
    {
      "channel": 2,
      "note": 95,
      "start": 13.1244,
      "duration": 0.0888,
      "velocity": 92,
      "chip": "ym2612"
    },
    {
      "channel": 0,
      "note": 48,
      "start": 13.1546,
      "duration": 0.3244,
      "velocity": 101,
      "chip": "ym2612"
    },
    {
      "channel": 1,
      "note": 93,
      "start": 13.1554,
      "duration": 0.0127,
      "velocity": 92,
      "chip": "ym2612"
    },
    {
      "channel": 1,
      "note": 95,
      "start": 13.1688,
      "duration": 0.0436,
      "velocity": 92,
      "chip": "ym2612"
    },
    {
      "channel": 1,
      "note": 93,
      "start": 13.213,
      "duration": 0.2667,
      "velocity": 92,
      "chip": "ym2612"
    },
    {
      "channel": 2,
      "note": 93,
      "start": 13.2138,
      "duration": 0.0655,
      "velocity": 92,
      "chip": "ym2612"
    },
    {
      "channel": 3,
      "note": 76,
      "start": 13.2145,
      "duration": 0.0656,
      "velocity": 106,
      "chip": "ym2612"
    },
    {
      "channel": 4,
      "note": 67,
      "start": 13.2152,
      "duration": 0.0651,
      "velocity": 106,
      "chip": "ym2612"
    },
    {
      "channel": 2,
      "note": 95,
      "start": 13.2799,
      "duration": 0.066,
      "velocity": 92,
      "chip": "ym2612"
    },
    {
      "channel": 2,
      "note": 93,
      "start": 13.3466,
      "duration": 0.1914,
      "velocity": 92,
      "chip": "ym2612"
    },
    {
      "channel": 3,
      "note": 77,
      "start": 13.3473,
      "duration": 0.0656,
      "velocity": 106,
      "chip": "ym2612"
    },
    {
      "channel": 4,
      "note": 69,
      "start": 13.348,
      "duration": 0.0652,
      "velocity": 106,
      "chip": "ym2612"
    },
    {
      "channel": 0,
      "note": 55,
      "start": 13.4795,
      "duration": 0.1458,
      "velocity": 101,
      "chip": "ym2612"
    },
    {
      "channel": 1,
      "note": 91,
      "start": 13.4802,
      "duration": 0.6722,
      "velocity": 92,
      "chip": "ym2612"
    },
    {
      "channel": 3,
      "note": 79,
      "start": 13.4813,
      "duration": 0.0154,
      "velocity": 106,
      "chip": "ym2612"
    },
    {
      "channel": 4,
      "note": 71,
      "start": 13.482,
      "duration": 0.015,
      "velocity": 106,
      "chip": "ym2612"
    },
    {
      "channel": 2,
      "note": 91,
      "start": 13.5386,
      "duration": 0.6723,
      "velocity": 92,
      "chip": "ym2612"
    },
    {
      "channel": 3,
      "note": 84,
      "start": 13.5393,
      "duration": 0.0155,
      "velocity": 106,
      "chip": "ym2612"
    },
    {
      "channel": 4,
      "note": 76,
      "start": 13.54,
      "duration": 0.0151,
      "velocity": 106,
      "chip": "ym2612"
    },
    {
      "channel": 3,
      "note": 83,
      "start": 13.5974,
      "duration": 0.0159,
      "velocity": 106,
      "chip": "ym2612"
    },
    {
      "channel": 4,
      "note": 74,
      "start": 13.5981,
      "duration": 0.0154,
      "velocity": 106,
      "chip": "ym2612"
    },
    {
      "channel": 0,
      "note": 60,
      "start": 13.6258,
      "duration": 0.1427,
      "velocity": 101,
      "chip": "ym2612"
    },
    {
      "channel": 3,
      "note": 79,
      "start": 13.6273,
      "duration": 0.017,
      "velocity": 106,
      "chip": "ym2612"
    },
    {
      "channel": 4,
      "note": 71,
      "start": 13.628,
      "duration": 0.0165,
      "velocity": 106,
      "chip": "ym2612"
    },
    {
      "channel": 3,
      "note": 76,
      "start": 13.7117,
      "duration": 0.2493,
      "velocity": 106,
      "chip": "ym2612"
    },
    {
      "channel": 4,
      "note": 67,
      "start": 13.7124,
      "duration": 0.2489,
      "velocity": 106,
      "chip": "ym2612"
    },
    {
      "channel": 0,
      "note": 48,
      "start": 13.7689,
      "duration": 0.3246,
      "velocity": 101,
      "chip": "ym2612"
    },
    {
      "channel": 0,
      "note": 50,
      "start": 14.094,
      "duration": 0.1381,
      "velocity": 101,
      "chip": "ym2612"
    },
    {
      "channel": 0,
      "note": 51,
      "start": 14.2326,
      "duration": 0.0461,
      "velocity": 101,
      "chip": "ym2612"
    },
    {
      "channel": 1,
      "note": 95,
      "start": 14.2334,
      "duration": 0.0112,
      "velocity": 92,
      "chip": "ym2612"
    },
    {
      "channel": 1,
      "note": 97,
      "start": 14.2555,
      "duration": 0.0124,
      "velocity": 92,
      "chip": "ym2612"
    },
    {
      "channel": 2,
      "note": 95,
      "start": 14.2562,
      "duration": 0.012,
      "velocity": 92,
      "chip": "ym2612"
    },
    {
      "channel": 0,
      "note": 52,
      "start": 14.2792,
      "duration": 0.3244,
      "velocity": 101,
      "chip": "ym2612"
    },
    {
      "channel": 1,
      "note": 98,
      "start": 14.28,
      "duration": 0.3242,
      "velocity": 92,
      "chip": "ym2612"
    },
    {
      "channel": 2,
      "note": 97,
      "start": 14.2807,
      "duration": 0.0123,
      "velocity": 92,
      "chip": "ym2612"
    },
    {
      "channel": 2,
      "note": 98,
      "start": 14.3378,
      "duration": 0.3248,
      "velocity": 92,
      "chip": "ym2612"
    },
    {
      "channel": 3,
      "note": 74,
      "start": 14.474,
      "duration": 0.0637,
      "velocity": 106,
      "chip": "ym2612"
    },
    {
      "channel": 4,
      "note": 67,
      "start": 14.4771,
      "duration": 0.0608,
      "velocity": 106,
      "chip": "ym2612"
    },
    {
      "channel": 0,
      "note": 59,
      "start": 14.6041,
      "duration": 0.1459,
      "velocity": 101,
      "chip": "ym2612"
    },
    {
      "channel": 1,
      "note": 91,
      "start": 14.6048,
      "duration": 0.1459,
      "velocity": 92,
      "chip": "ym2612"
    },
    {
      "channel": 2,
      "note": 91,
      "start": 14.6632,
      "duration": 0.1719,
      "velocity": 92,
      "chip": "ym2612"
    },
    {
      "channel": 3,
      "note": 74,
      "start": 14.7222,
      "duration": 0.0159,
      "velocity": 106,
      "chip": "ym2612"
    },
    {
      "channel": 4,
      "note": 67,
      "start": 14.7229,
      "duration": 0.0155,
      "velocity": 106,
      "chip": "ym2612"
    },
    {
      "channel": 0,
      "note": 64,
      "start": 14.7505,
      "duration": 0.1426,
      "velocity": 101,
      "chip": "ym2612"
    },
    {
      "channel": 1,
      "note": 98,
      "start": 14.7513,
      "duration": 0.1425,
      "velocity": 92,
      "chip": "ym2612"
    },
    {
      "channel": 2,
      "note": 98,
      "start": 14.8358,
      "duration": 0.1161,
      "velocity": 92,
      "chip": "ym2612"
    },
    {
      "channel": 0,
      "note": 45,
      "start": 14.8936,
      "duration": 0.3246,
      "velocity": 101,
      "chip": "ym2612"
    },
    {
      "channel": 1,
      "note": 97,
      "start": 14.8944,
      "duration": 0.3826,
      "velocity": 92,
      "chip": "ym2612"
    },
    {
      "channel": 3,
      "note": 73,
      "start": 14.8954,
      "duration": 0.1902,
      "velocity": 106,
      "chip": "ym2612"
    },
    {
      "channel": 4,
      "note": 67,
      "start": 14.8961,
      "duration": 0.1897,
      "velocity": 106,
      "chip": "ym2612"
    },
    {
      "channel": 2,
      "note": 97,
      "start": 14.9525,
      "duration": 0.383,
      "velocity": 92,
      "chip": "ym2612"
    },
    {
      "channel": 0,
      "note": 52,
      "start": 15.2187,
      "duration": 0.1379,
      "velocity": 101,
      "chip": "ym2612"
    },
    {
      "channel": 3,
      "note": 73,
      "start": 15.2202,
      "duration": 0.0164,
      "velocity": 106,
      "chip": "ym2612"
    },
    {
      "channel": 4,
      "note": 67,
      "start": 15.221,
      "duration": 0.0159,
      "velocity": 106,
      "chip": "ym2612"
    },
    {
      "channel": 0,
      "note": 57,
      "start": 15.3571,
      "duration": 0.0585,
      "velocity": 101,
      "chip": "ym2612"
    },
    {
      "channel": 1,
      "note": 93,
      "start": 15.3579,
      "duration": 0.0151,
      "velocity": 92,
      "chip": "ym2612"
    },
    {
      "channel": 3,
      "note": 73,
      "start": 15.3586,
      "duration": 0.0592,
      "velocity": 106,
      "chip": "ym2612"
    },
    {
      "channel": 4,
      "note": 67,
      "start": 15.3594,
      "duration": 0.0587,
      "velocity": 106,
      "chip": "ym2612"
    },
    {
      "channel": 1,
      "note": 95,
      "start": 15.3869,
      "duration": 0.0152,
      "velocity": 92,
      "chip": "ym2612"
    },
    {
      "channel": 2,
      "note": 93,
      "start": 15.3876,
      "duration": 0.0148,
      "velocity": 92,
      "chip": "ym2612"
    },
    {
      "channel": 0,
      "note": 50,
      "start": 15.4161,
      "duration": 0.3244,
      "velocity": 101,
      "chip": "ym2612"
    },
    {
      "channel": 1,
      "note": 97,
      "start": 15.4169,
      "duration": 0.3242,
      "velocity": 92,
      "chip": "ym2612"
    },
    {
      "channel": 2,
      "note": 95,
      "start": 15.4177,
      "duration": 0.0128,
      "velocity": 92,
      "chip": "ym2612"
    },
    {
      "channel": 2,
      "note": 97,
      "start": 15.4747,
      "duration": 0.3247,
      "velocity": 92,
      "chip": "ym2612"
    },
    {
      "channel": 3,
      "note": 73,
      "start": 15.6085,
      "duration": 0.0661,
      "velocity": 106,
      "chip": "ym2612"
    },
    {
      "channel": 4,
      "note": 66,
      "start": 15.6092,
      "duration": 0.0656,
      "velocity": 106,
      "chip": "ym2612"
    },
    {
      "channel": 0,
      "note": 57,
      "start": 15.741,
      "duration": 0.146,
      "velocity": 101,
      "chip": "ym2612"
    },
    {
      "channel": 1,
      "note": 102,
      "start": 15.7417,
      "duration": 0.1459,
      "velocity": 92,
      "chip": "ym2612"
    },
    {
      "channel": 2,
      "note": 102,
      "start": 15.8001,
      "duration": 0.1719,
      "velocity": 92,
      "chip": "ym2612"
    },
    {
      "channel": 3,
      "note": 73,
      "start": 15.859,
      "duration": 0.0159,
      "velocity": 106,
      "chip": "ym2612"
    },
    {
      "channel": 4,
      "note": 66,
      "start": 15.8598,
      "duration": 0.0154,
      "velocity": 106,
      "chip": "ym2612"
    },
    {
      "channel": 0,
      "note": 62,
      "start": 15.8875,
      "duration": 0.1426,
      "velocity": 101,
      "chip": "ym2612"
    },
    {
      "channel": 1,
      "note": 97,
      "start": 15.8883,
      "duration": 0.1424,
      "velocity": 92,
      "chip": "ym2612"
    },
    {
      "channel": 2,
      "note": 97,
      "start": 15.9727,
      "duration": 0.1161,
      "velocity": 92,
      "chip": "ym2612"
    },
    {
      "channel": 0,
      "note": 47,
      "start": 16.0305,
      "duration": 0.3246,
      "velocity": 101,
      "chip": "ym2612"
    },
    {
      "channel": 1,
      "note": 95,
      "start": 16.0313,
      "duration": 0.3827,
      "velocity": 92,
      "chip": "ym2612"
    },
    {
      "channel": 3,
      "note": 71,
      "start": 16.0323,
      "duration": 0.1902,
      "velocity": 106,
      "chip": "ym2612"
    },
    {
      "channel": 4,
      "note": 66,
      "start": 16.0331,
      "duration": 0.1897,
      "velocity": 106,
      "chip": "ym2612"
    },
    {
      "channel": 2,
      "note": 95,
      "start": 16.0894,
      "duration": 0.3831,
      "velocity": 92,
      "chip": "ym2612"
    },
    {
      "channel": 0,
      "note": 54,
      "start": 16.3556,
      "duration": 0.1382,
      "velocity": 101,
      "chip": "ym2612"
    },
    {
      "channel": 3,
      "note": 73,
      "start": 16.3571,
      "duration": 0.1157,
      "velocity": 106,
      "chip": "ym2612"
    },
    {
      "channel": 4,
      "note": 64,
      "start": 16.3579,
      "duration": 0.1152,
      "velocity": 106,
      "chip": "ym2612"
    },
    {
      "channel": 0,
      "note": 59,
      "start": 16.4943,
      "duration": 0.0611,
      "velocity": 101,
      "chip": "ym2612"
    },
    {
      "channel": 1,
      "note": 90,
      "start": 16.495,
      "duration": 0.029,
      "velocity": 92,
      "chip": "ym2612"
    },
    {
      "channel": 3,
      "note": 74,
      "start": 16.4958,
      "duration": 0.0617,
      "velocity": 106,
      "chip": "ym2612"
    },
    {
      "channel": 4,
      "note": 66,
      "start": 16.4966,
      "duration": 0.0612,
      "velocity": 106,
      "chip": "ym2612"
    },
    {
      "channel": 1,
      "note": 91,
      "start": 16.5246,
      "duration": 0.0315,
      "velocity": 92,
      "chip": "ym2612"
    },
    {
      "channel": 2,
      "note": 90,
      "start": 16.5253,
      "duration": 0.0315,
      "velocity": 92,
      "chip": "ym2612"
    },
    {
      "channel": 0,
      "note": 52,
      "start": 16.5559,
      "duration": 0.3244,
      "velocity": 101,
      "chip": "ym2612"
    },
    {
      "channel": 1,
      "note": 93,
      "start": 16.5567,
      "duration": 0.0132,
      "velocity": 92,
      "chip": "ym2612"
    },
    {
      "channel": 2,
      "note": 91,
      "start": 16.5574,
      "duration": 0.0563,
      "velocity": 92,
      "chip": "ym2612"
    },
    {
      "channel": 2,
      "note": 93,
      "start": 16.6144,
      "duration": 0.066,
      "velocity": 92,
      "chip": "ym2612"
    },
    {
      "channel": 1,
      "note": 95,
      "start": 16.7476,
      "duration": 0.066,
      "velocity": 92,
      "chip": "ym2612"
    },
    {
      "channel": 3,
      "note": 74,
      "start": 16.7484,
      "duration": 0.0656,
      "velocity": 106,
      "chip": "ym2612"
    },
    {
      "channel": 4,
      "note": 67,
      "start": 16.7492,
      "duration": 0.0652,
      "velocity": 106,
      "chip": "ym2612"
    },
    {
      "channel": 0,
      "note": 59,
      "start": 16.8808,
      "duration": 0.1427,
      "velocity": 101,
      "chip": "ym2612"
    },
    {
      "channel": 1,
      "note": 91,
      "start": 16.8816,
      "duration": 0.0125,
      "velocity": 92,
      "chip": "ym2612"
    },
    {
      "channel": 2,
      "note": 95,
      "start": 16.8823,
      "duration": 0.012,
      "velocity": 92,
      "chip": "ym2612"
    },
    {
      "channel": 2,
      "note": 91,
      "start": 16.9398,
      "duration": 0.0111,
      "velocity": 92,
      "chip": "ym2612"
    },
    {
      "channel": 1,
      "note": 93,
      "start": 16.9981,
      "duration": 0.0151,
      "velocity": 92,
      "chip": "ym2612"
    },
    {
      "channel": 3,
      "note": 74,
      "start": 16.9989,
      "duration": 0.0146,
      "velocity": 106,
      "chip": "ym2612"
    },
    {
      "channel": 4,
      "note": 67,
      "start": 16.9997,
      "duration": 0.0141,
      "velocity": 106,
      "chip": "ym2612"
    },
    {
      "channel": 0,
      "note": 64,
      "start": 17.0241,
      "duration": 0.1456,
      "velocity": 101,
      "chip": "ym2612"
    },
    {
      "channel": 2,
      "note": 93,
      "start": 17.0249,
      "duration": 0.0197,
      "velocity": 92,
      "chip": "ym2612"
    },
    {
      "channel": 1,
      "note": 90,
      "start": 17.112,
      "duration": 0.0112,
      "velocity": 92,
      "chip": "ym2612"
    },
    {
      "channel": 0,
      "note": 45,
      "start": 17.1701,
      "duration": 0.3247,
      "velocity": 101,
      "chip": "ym2612"
    },
    {
      "channel": 2,
      "note": 90,
      "start": 17.1709,
      "duration": 0.0151,
      "velocity": 92,
      "chip": "ym2612"
    },
    {
      "channel": 3,
      "note": 73,
      "start": 17.1717,
      "duration": 0.1906,
      "velocity": 106,
      "chip": "ym2612"
    },
    {
      "channel": 4,
      "note": 67,
      "start": 17.1724,
      "duration": 0.1902,
      "velocity": 106,
      "chip": "ym2612"
    },
    {
      "channel": 1,
      "note": 91,
      "start": 17.2288,
      "duration": 0.066,
      "velocity": 92,
      "chip": "ym2612"
    },
    {
      "channel": 2,
      "note": 91,
      "start": 17.3622,
      "duration": 0.066,
      "velocity": 92,
      "chip": "ym2612"
    },
    {
      "channel": 0,
      "note": 52,
      "start": 17.4952,
      "duration": 0.1397,
      "velocity": 101,
      "chip": "ym2612"
    },
    {
      "channel": 1,
      "note": 88,
      "start": 17.496,
      "duration": 0.015,
      "velocity": 92,
      "chip": "ym2612"
    },
    {
      "channel": 3,
      "note": 73,
      "start": 17.4968,
      "duration": 0.0146,
      "velocity": 106,
      "chip": "ym2612"
    },
    {
      "channel": 4,
      "note": 67,
      "start": 17.4975,
      "duration": 0.0142,
      "velocity": 106,
      "chip": "ym2612"
    },
    {
      "channel": 2,
      "note": 88,
      "start": 17.5541,
      "duration": 0.0112,
      "velocity": 92,
      "chip": "ym2612"
    },
    {
      "channel": 1,
      "note": 90,
      "start": 17.6126,
      "duration": 0.0544,
      "velocity": 92,
      "chip": "ym2612"
    },
    {
      "channel": 0,
      "note": 57,
      "start": 17.6354,
      "duration": 0.0627,
      "velocity": 101,
      "chip": "ym2612"
    },
    {
      "channel": 2,
      "note": 90,
      "start": 17.6365,
      "duration": 0.0631,
      "velocity": 92,
      "chip": "ym2612"
    },
    {
      "channel": 3,
      "note": 73,
      "start": 17.6372,
      "duration": 0.063,
      "velocity": 106,
      "chip": "ym2612"
    },
    {
      "channel": 4,
      "note": 67,
      "start": 17.638,
      "duration": 0.063,
      "velocity": 106,
      "chip": "ym2612"
    },
    {
      "channel": 1,
      "note": 89,
      "start": 17.6677,
      "duration": 0.0075,
      "velocity": 92,
      "chip": "ym2612"
    },
    {
      "channel": 1,
      "note": 88,
      "start": 17.6758,
      "duration": 0.0108,
      "velocity": 92,
      "chip": "ym2612"
    },
    {
      "channel": 1,
      "note": 87,
      "start": 17.6871,
      "duration": 0.0117,
      "velocity": 92,
      "chip": "ym2612"
    },
    {
      "channel": 0,
      "note": 50,
      "start": 17.6987,
      "duration": 0.3244,
      "velocity": 101,
      "chip": "ym2612"
    },
    {
      "channel": 1,
      "note": 86,
      "start": 17.6994,
      "duration": 0.057,
      "velocity": 92,
      "chip": "ym2612"
    },
    {
      "channel": 2,
      "note": 89,
      "start": 17.7001,
      "duration": 0.0085,
      "velocity": 92,
      "chip": "ym2612"
    },
    {
      "channel": 3,
      "note": 74,
      "start": 17.7009,
      "duration": 0.1893,
      "velocity": 106,
      "chip": "ym2612"
    },
    {
      "channel": 4,
      "note": 66,
      "start": 17.7016,
      "duration": 0.1889,
      "velocity": 106,
      "chip": "ym2612"
    },
    {
      "channel": 2,
      "note": 88,
      "start": 17.7093,
      "duration": 0.0108,
      "velocity": 92,
      "chip": "ym2612"
    },
    {
      "channel": 2,
      "note": 87,
      "start": 17.7207,
      "duration": 0.036,
      "velocity": 92,
      "chip": "ym2612"
    },
    {
      "channel": 2,
      "note": 86,
      "start": 17.7573,
      "duration": 0.1325,
      "velocity": 92,
      "chip": "ym2612"
    },
    {
      "channel": 0,
      "note": 45,
      "start": 18.0236,
      "duration": 0.1373,
      "velocity": 101,
      "chip": "ym2612"
    },
    {
      "channel": 3,
      "note": 74,
      "start": 18.0244,
      "duration": 0.1161,
      "velocity": 106,
      "chip": "ym2612"
    },
    {
      "channel": 4,
      "note": 66,
      "start": 18.0252,
      "duration": 0.1156,
      "velocity": 106,
      "chip": "ym2612"
    },
    {
      "channel": 0,
      "note": 38,
      "start": 18.1613,
      "duration": 0.1512,
      "velocity": 101,
      "chip": "ym2612"
    },
    {
      "channel": 3,
      "note": 74,
      "start": 18.1622,
      "duration": 0.0923,
      "velocity": 106,
      "chip": "ym2612"
    },
    {
      "channel": 4,
      "note": 66,
      "start": 18.1629,
      "duration": 0.0918,
      "velocity": 106,
      "chip": "ym2612"
    },
    {
      "channel": 1,
      "note": 79,
      "start": 18.374,
      "duration": 0.0855,
      "velocity": 97,
      "chip": "ym2612"
    },
    {
      "channel": 2,
      "note": 67,
      "start": 18.3776,
      "duration": 0.0827,
      "velocity": 97,
      "chip": "ym2612"
    },
    {
      "channel": 1,
      "note": 79,
      "start": 18.4601,
      "duration": 0.0238,
      "velocity": 97,
      "chip": "ym2612"
    },
    {
      "channel": 2,
      "note": 67,
      "start": 18.4608,
      "duration": 0.0238,
      "velocity": 97,
      "chip": "ym2612"
    },
    {
      "channel": 1,
      "note": 79,
      "start": 18.4844,
      "duration": 0.0297,
      "velocity": 97,
      "chip": "ym2612"
    },
    {
      "channel": 2,
      "note": 67,
      "start": 18.4852,
      "duration": 0.0296,
      "velocity": 97,
      "chip": "ym2612"
    },
    {
      "channel": 1,
      "note": 78,
      "start": 18.5147,
      "duration": 0.0727,
      "velocity": 97,
      "chip": "ym2612"
    },
    {
      "channel": 2,
      "note": 66,
      "start": 18.5155,
      "duration": 0.0726,
      "velocity": 97,
      "chip": "ym2612"
    },
    {
      "channel": 1,
      "note": 79,
      "start": 18.588,
      "duration": 0.0333,
      "velocity": 97,
      "chip": "ym2612"
    },
    {
      "channel": 2,
      "note": 67,
      "start": 18.5888,
      "duration": 0.0333,
      "velocity": 97,
      "chip": "ym2612"
    },
    {
      "channel": 0,
      "note": 45,
      "start": 18.6212,
      "duration": 0.3245,
      "velocity": 101,
      "chip": "ym2612"
    },
    {
      "channel": 1,
      "note": 78,
      "start": 18.622,
      "duration": 0.0216,
      "velocity": 97,
      "chip": "ym2612"
    },
    {
      "channel": 2,
      "note": 66,
      "start": 18.6227,
      "duration": 0.0216,
      "velocity": 97,
      "chip": "ym2612"
    },
    {
      "channel": 3,
      "note": 72,
      "start": 18.6258,
      "duration": 0.0547,
      "velocity": 76,
      "chip": "ym2612"
    },
    {
      "channel": 4,
      "note": 60,
      "start": 18.629,
      "duration": 0.0518,
      "velocity": 76,
      "chip": "ym2612"
    },
    {
      "channel": 1,
      "note": 79,
      "start": 18.6441,
      "duration": 0.035,
      "velocity": 97,
      "chip": "ym2612"
    },
    {
      "channel": 2,
      "note": 67,
      "start": 18.6448,
      "duration": 0.035,
      "velocity": 97,
      "chip": "ym2612"
    },
    {
      "channel": 1,
      "note": 78,
      "start": 18.6796,
      "duration": 0.2667,
      "velocity": 97,
      "chip": "ym2612"
    },
    {
      "channel": 2,
      "note": 66,
      "start": 18.6804,
      "duration": 0.2667,
      "velocity": 97,
      "chip": "ym2612"
    },
    {
      "channel": 3,
      "note": 79,
      "start": 18.8139,
      "duration": 0.134,
      "velocity": 76,
      "chip": "ym2612"
    },
    {
      "channel": 4,
      "note": 67,
      "start": 18.8146,
      "duration": 0.134,
      "velocity": 76,
      "chip": "ym2612"
    },
    {
      "channel": 0,
      "note": 52,
      "start": 18.9462,
      "duration": 0.1476,
      "velocity": 101,
      "chip": "ym2612"
    },
    {
      "channel": 1,
      "note": 76,
      "start": 18.9469,
      "duration": 0.3801,
      "velocity": 97,
      "chip": "ym2612"
    },
    {
      "channel": 2,
      "note": 64,
      "start": 18.9476,
      "duration": 0.3801,
      "velocity": 97,
      "chip": "ym2612"
    },
    {
      "channel": 3,
      "note": 76,
      "start": 18.9484,
      "duration": 0.0569,
      "velocity": 76,
      "chip": "ym2612"
    },
    {
      "channel": 4,
      "note": 64,
      "start": 18.9492,
      "duration": 0.0564,
      "velocity": 76,
      "chip": "ym2612"
    },
    {
      "channel": 3,
      "note": 83,
      "start": 19.0642,
      "duration": 0.0309,
      "velocity": 76,
      "chip": "ym2612"
    },
    {
      "channel": 4,
      "note": 71,
      "start": 19.065,
      "duration": 0.0305,
      "velocity": 76,
      "chip": "ym2612"
    },
    {
      "channel": 0,
      "note": 57,
      "start": 19.0943,
      "duration": 0.1408,
      "velocity": 101,
      "chip": "ym2612"
    },
    {
      "channel": 3,
      "note": 72,
      "start": 19.1783,
      "duration": 0.0582,
      "velocity": 76,
      "chip": "ym2612"
    },
    {
      "channel": 4,
      "note": 60,
      "start": 19.1791,
      "duration": 0.0578,
      "velocity": 76,
      "chip": "ym2612"
    },
    {
      "channel": 0,
      "note": 50,
      "start": 19.2356,
      "duration": 0.3247,
      "velocity": 101,
      "chip": "ym2612"
    },
    {
      "channel": 3,
      "note": 78,
      "start": 19.295,
      "duration": 0.1326,
      "velocity": 76,
      "chip": "ym2612"
    },
    {
      "channel": 4,
      "note": 66,
      "start": 19.2957,
      "duration": 0.1322,
      "velocity": 76,
      "chip": "ym2612"
    },
    {
      "channel": 1,
      "note": 78,
      "start": 19.3276,
      "duration": 0.1826,
      "velocity": 97,
      "chip": "ym2612"
    },
    {
      "channel": 2,
      "note": 66,
      "start": 19.3284,
      "duration": 0.1826,
      "velocity": 97,
      "chip": "ym2612"
    },
    {
      "channel": 1,
      "note": 79,
      "start": 19.5108,
      "duration": 0.1082,
      "velocity": 97,
      "chip": "ym2612"
    },
    {
      "channel": 2,
      "note": 67,
      "start": 19.5116,
      "duration": 0.1081,
      "velocity": 97,
      "chip": "ym2612"
    },
    {
      "channel": 0,
      "note": 57,
      "start": 19.5607,
      "duration": 0.1493,
      "velocity": 101,
      "chip": "ym2612"
    },
    {
      "channel": 3,
      "note": 76,
      "start": 19.5623,
      "duration": 0.0582,
      "velocity": 76,
      "chip": "ym2612"
    },
    {
      "channel": 4,
      "note": 64,
      "start": 19.563,
      "duration": 0.0577,
      "velocity": 76,
      "chip": "ym2612"
    },
    {
      "channel": 1,
      "note": 81,
      "start": 19.6196,
      "duration": 0.0671,
      "velocity": 97,
      "chip": "ym2612"
    },
    {
      "channel": 2,
      "note": 69,
      "start": 19.6203,
      "duration": 0.0671,
      "velocity": 97,
      "chip": "ym2612"
    },
    {
      "channel": 3,
      "note": 83,
      "start": 19.6789,
      "duration": 0.0325,
      "velocity": 76,
      "chip": "ym2612"
    },
    {
      "channel": 4,
      "note": 71,
      "start": 19.6797,
      "duration": 0.0325,
      "velocity": 76,
      "chip": "ym2612"
    },
    {
      "channel": 1,
      "note": 78,
      "start": 19.6873,
      "duration": 0.0436,
      "velocity": 97,
      "chip": "ym2612"
    },
    {
      "channel": 2,
      "note": 66,
      "start": 19.688,
      "duration": 0.0436,
      "velocity": 97,
      "chip": "ym2612"
    },
    {
      "channel": 0,
      "note": 62,
      "start": 19.7105,
      "duration": 0.0585,
      "velocity": 101,
      "chip": "ym2612"
    },
    {
      "channel": 3,
      "note": 72,
      "start": 19.712,
      "duration": 0.0313,
      "velocity": 76,
      "chip": "ym2612"
    },
    {
      "channel": 4,
      "note": 60,
      "start": 19.7127,
      "duration": 0.0308,
      "velocity": 76,
      "chip": "ym2612"
    },
    {
      "channel": 1,
      "note": 76,
      "start": 19.7315,
      "duration": 0.0381,
      "velocity": 97,
      "chip": "ym2612"
    },
    {
      "channel": 2,
      "note": 64,
      "start": 19.7322,
      "duration": 0.0382,
      "velocity": 97,
      "chip": "ym2612"
    },
    {
      "channel": 0,
      "note": 43,
      "start": 19.7695,
      "duration": 0.3244,
      "velocity": 101,
      "chip": "ym2612"
    },
    {
      "channel": 1,
      "note": 76,
      "start": 19.7703,
      "duration": 0.0165,
      "velocity": 97,
      "chip": "ym2612"
    },
    {
      "channel": 2,
      "note": 64,
      "start": 19.771,
      "duration": 0.0166,
      "velocity": 97,
      "chip": "ym2612"
    },
    {
      "channel": 3,
      "note": 71,
      "start": 19.7717,
      "duration": 0.0571,
      "velocity": 76,
      "chip": "ym2612"
    },
    {
      "channel": 4,
      "note": 59,
      "start": 19.7724,
      "duration": 0.0566,
      "velocity": 76,
      "chip": "ym2612"
    },
    {
      "channel": 1,
      "note": 78,
      "start": 19.7874,
      "duration": 0.0399,
      "velocity": 97,
      "chip": "ym2612"
    },
    {
      "channel": 2,
      "note": 66,
      "start": 19.7881,
      "duration": 0.0399,
      "velocity": 97,
      "chip": "ym2612"
    },
    {
      "channel": 1,
      "note": 76,
      "start": 19.8279,
      "duration": 0.2667,
      "velocity": 97,
      "chip": "ym2612"
    },
    {
      "channel": 2,
      "note": 64,
      "start": 19.8286,
      "duration": 0.2667,
      "velocity": 97,
      "chip": "ym2612"
    },
    {
      "channel": 3,
      "note": 78,
      "start": 19.9621,
      "duration": 0.134,
      "velocity": 76,
      "chip": "ym2612"
    },
    {
      "channel": 4,
      "note": 66,
      "start": 19.9628,
      "duration": 0.134,
      "velocity": 76,
      "chip": "ym2612"
    },
    {
      "channel": 0,
      "note": 50,
      "start": 20.0944,
      "duration": 0.1476,
      "velocity": 101,
      "chip": "ym2612"
    },
    {
      "channel": 1,
      "note": 74,
      "start": 20.0952,
      "duration": 0.3054,
      "velocity": 97,
      "chip": "ym2612"
    },
    {
      "channel": 2,
      "note": 62,
      "start": 20.0959,
      "duration": 0.3055,
      "velocity": 97,
      "chip": "ym2612"
    },
    {
      "channel": 3,
      "note": 74,
      "start": 20.0966,
      "duration": 0.0569,
      "velocity": 76,
      "chip": "ym2612"
    },
    {
      "channel": 4,
      "note": 62,
      "start": 20.0974,
      "duration": 0.0564,
      "velocity": 76,
      "chip": "ym2612"
    },
    {
      "channel": 3,
      "note": 81,
      "start": 20.2124,
      "duration": 0.0309,
      "velocity": 76,
      "chip": "ym2612"
    },
    {
      "channel": 4,
      "note": 69,
      "start": 20.2132,
      "duration": 0.0305,
      "velocity": 76,
      "chip": "ym2612"
    },
    {
      "channel": 0,
      "note": 55,
      "start": 20.2425,
      "duration": 0.1408,
      "velocity": 101,
      "chip": "ym2612"
    },
    {
      "channel": 3,
      "note": 71,
      "start": 20.3265,
      "duration": 0.0582,
      "velocity": 76,
      "chip": "ym2612"
    },
    {
      "channel": 4,
      "note": 59,
      "start": 20.3273,
      "duration": 0.0578,
      "velocity": 76,
      "chip": "ym2612"
    },
    {
      "channel": 0,
      "note": 52,
      "start": 20.3838,
      "duration": 0.3246,
      "velocity": 101,
      "chip": "ym2612"
    },
    {
      "channel": 1,
      "note": 75,
      "start": 20.4012,
      "duration": 0.0739,
      "velocity": 97,
      "chip": "ym2612"
    },
    {
      "channel": 2,
      "note": 63,
      "start": 20.402,
      "duration": 0.0739,
      "velocity": 97,
      "chip": "ym2612"
    },
    {
      "channel": 3,
      "note": 78,
      "start": 20.4432,
      "duration": 0.1326,
      "velocity": 76,
      "chip": "ym2612"
    },
    {
      "channel": 4,
      "note": 66,
      "start": 20.4439,
      "duration": 0.1322,
      "velocity": 76,
      "chip": "ym2612"
    },
    {
      "channel": 1,
      "note": 76,
      "start": 20.4757,
      "duration": 0.1827,
      "velocity": 97,
      "chip": "ym2612"
    },
    {
      "channel": 2,
      "note": 64,
      "start": 20.4764,
      "duration": 0.1828,
      "velocity": 97,
      "chip": "ym2612"
    },
    {
      "channel": 1,
      "note": 78,
      "start": 20.659,
      "duration": 0.1082,
      "velocity": 97,
      "chip": "ym2612"
    },
    {
      "channel": 2,
      "note": 66,
      "start": 20.6598,
      "duration": 0.1081,
      "velocity": 97,
      "chip": "ym2612"
    },
    {
      "channel": 0,
      "note": 59,
      "start": 20.7089,
      "duration": 0.1493,
      "velocity": 101,
      "chip": "ym2612"
    },
    {
      "channel": 3,
      "note": 76,
      "start": 20.7105,
      "duration": 0.0582,
      "velocity": 76,
      "chip": "ym2612"
    },
    {
      "channel": 4,
      "note": 64,
      "start": 20.7112,
      "duration": 0.0577,
      "velocity": 76,
      "chip": "ym2612"
    },
    {
      "channel": 1,
      "note": 80,
      "start": 20.7678,
      "duration": 0.0671,
      "velocity": 97,
      "chip": "ym2612"
    },
    {
      "channel": 2,
      "note": 68,
      "start": 20.7685,
      "duration": 0.0672,
      "velocity": 97,
      "chip": "ym2612"
    },
    {
      "channel": 3,
      "note": 83,
      "start": 20.8271,
      "duration": 0.0325,
      "velocity": 76,
      "chip": "ym2612"
    },
    {
      "channel": 4,
      "note": 71,
      "start": 20.8279,
      "duration": 0.0325,
      "velocity": 76,
      "chip": "ym2612"
    },
    {
      "channel": 1,
      "note": 81,
      "start": 20.8355,
      "duration": 0.0436,
      "velocity": 97,
      "chip": "ym2612"
    },
    {
      "channel": 2,
      "note": 69,
      "start": 20.8362,
      "duration": 0.0436,
      "velocity": 97,
      "chip": "ym2612"
    },
    {
      "channel": 0,
      "note": 64,
      "start": 20.8587,
      "duration": 0.0585,
      "velocity": 101,
      "chip": "ym2612"
    },
    {
      "channel": 3,
      "note": 71,
      "start": 20.8601,
      "duration": 0.0313,
      "velocity": 76,
      "chip": "ym2612"
    },
    {
      "channel": 4,
      "note": 59,
      "start": 20.8609,
      "duration": 0.0308,
      "velocity": 76,
      "chip": "ym2612"
    },
    {
      "channel": 1,
      "note": 83,
      "start": 20.8797,
      "duration": 0.038,
      "velocity": 97,
      "chip": "ym2612"
    },
    {
      "channel": 2,
      "note": 71,
      "start": 20.8804,
      "duration": 0.038,
      "velocity": 97,
      "chip": "ym2612"
    },
    {
      "channel": 0,
      "note": 45,
      "start": 20.9176,
      "duration": 0.3246,
      "velocity": 101,
      "chip": "ym2612"
    },
    {
      "channel": 1,
      "note": 84,
      "start": 20.9183,
      "duration": 0.3244,
      "velocity": 97,
      "chip": "ym2612"
    },
    {
      "channel": 2,
      "note": 72,
      "start": 20.9191,
      "duration": 0.3244,
      "velocity": 97,
      "chip": "ym2612"
    },
    {
      "channel": 3,
      "note": 72,
      "start": 20.9198,
      "duration": 0.0564,
      "velocity": 76,
      "chip": "ym2612"
    },
    {
      "channel": 4,
      "note": 60,
      "start": 20.9206,
      "duration": 0.056,
      "velocity": 76,
      "chip": "ym2612"
    },
    {
      "channel": 3,
      "note": 79,
      "start": 21.1101,
      "duration": 0.1341,
      "velocity": 76,
      "chip": "ym2612"
    },
    {
      "channel": 4,
      "note": 67,
      "start": 21.1108,
      "duration": 0.1341,
      "velocity": 76,
      "chip": "ym2612"
    },
    {
      "channel": 0,
      "note": 52,
      "start": 21.2427,
      "duration": 0.1475,
      "velocity": 101,
      "chip": "ym2612"
    },
    {
      "channel": 1,
      "note": 76,
      "start": 21.2434,
      "duration": 0.1474,
      "velocity": 97,
      "chip": "ym2612"
    },
    {
      "channel": 2,
      "note": 64,
      "start": 21.2441,
      "duration": 0.1474,
      "velocity": 97,
      "chip": "ym2612"
    },
    {
      "channel": 3,
      "note": 76,
      "start": 21.2448,
      "duration": 0.0568,
      "velocity": 76,
      "chip": "ym2612"
    },
    {
      "channel": 4,
      "note": 64,
      "start": 21.2456,
      "duration": 0.0564,
      "velocity": 76,
      "chip": "ym2612"
    },
    {
      "channel": 3,
      "note": 83,
      "start": 21.3606,
      "duration": 0.0316,
      "velocity": 76,
      "chip": "ym2612"
    },
    {
      "channel": 4,
      "note": 71,
      "start": 21.3614,
      "duration": 0.0312,
      "velocity": 76,
      "chip": "ym2612"
    },
    {
      "channel": 0,
      "note": 57,
      "start": 21.3906,
      "duration": 0.1409,
      "velocity": 101,
      "chip": "ym2612"
    },
    {
      "channel": 1,
      "note": 79,
      "start": 21.3913,
      "duration": 0.1408,
      "velocity": 97,
      "chip": "ym2612"
    },
    {
      "channel": 2,
      "note": 67,
      "start": 21.3921,
      "duration": 0.1407,
      "velocity": 97,
      "chip": "ym2612"
    },
    {
      "channel": 3,
      "note": 72,
      "start": 21.4747,
      "duration": 0.0589,
      "velocity": 76,
      "chip": "ym2612"
    },
    {
      "channel": 4,
      "note": 60,
      "start": 21.4754,
      "duration": 0.0584,
      "velocity": 76,
      "chip": "ym2612"
    },
    {
      "channel": 0,
      "note": 50,
      "start": 21.532,
      "duration": 0.3247,
      "velocity": 101,
      "chip": "ym2612"
    },
    {
      "channel": 1,
      "note": 78,
      "start": 21.5327,
      "duration": 0.3246,
      "velocity": 97,
      "chip": "ym2612"
    },
    {
      "channel": 2,
      "note": 66,
      "start": 21.5334,
      "duration": 0.3246,
      "velocity": 97,
      "chip": "ym2612"
    },
    {
      "channel": 3,
      "note": 78,
      "start": 21.5915,
      "duration": 0.1326,
      "velocity": 76,
      "chip": "ym2612"
    },
    {
      "channel": 4,
      "note": 66,
      "start": 21.5922,
      "duration": 0.1322,
      "velocity": 76,
      "chip": "ym2612"
    },
    {
      "channel": 0,
      "note": 57,
      "start": 21.8571,
      "duration": 0.1492,
      "velocity": 101,
      "chip": "ym2612"
    },
    {
      "channel": 1,
      "note": 76,
      "start": 21.8579,
      "duration": 0.149,
      "velocity": 97,
      "chip": "ym2612"
    },
    {
      "channel": 2,
      "note": 64,
      "start": 21.8586,
      "duration": 0.1491,
      "velocity": 97,
      "chip": "ym2612"
    },
    {
      "channel": 3,
      "note": 76,
      "start": 21.8593,
      "duration": 0.0569,
      "velocity": 76,
      "chip": "ym2612"
    },
    {
      "channel": 4,
      "note": 64,
      "start": 21.8601,
      "duration": 0.0564,
      "velocity": 76,
      "chip": "ym2612"
    },
    {
      "channel": 3,
      "note": 83,
      "start": 21.9751,
      "duration": 0.0332,
      "velocity": 76,
      "chip": "ym2612"
    },
    {
      "channel": 4,
      "note": 71,
      "start": 21.9759,
      "duration": 0.0332,
      "velocity": 76,
      "chip": "ym2612"
    },
    {
      "channel": 0,
      "note": 62,
      "start": 22.0068,
      "duration": 0.0582,
      "velocity": 101,
      "chip": "ym2612"
    },
    {
      "channel": 1,
      "note": 78,
      "start": 22.0075,
      "duration": 0.0581,
      "velocity": 97,
      "chip": "ym2612"
    },
    {
      "channel": 2,
      "note": 66,
      "start": 22.0082,
      "duration": 0.058,
      "velocity": 97,
      "chip": "ym2612"
    },
    {
      "channel": 3,
      "note": 72,
      "start": 22.0089,
      "duration": 0.0305,
      "velocity": 76,
      "chip": "ym2612"
    },
    {
      "channel": 4,
      "note": 60,
      "start": 22.0097,
      "duration": 0.03,
      "velocity": 76,
      "chip": "ym2612"
    },
    {
      "channel": 0,
      "note": 43,
      "start": 22.0654,
      "duration": 0.032,
      "velocity": 101,
      "chip": "ym2612"
    },
    {
      "channel": 1,
      "note": 79,
      "start": 22.0662,
      "duration": 0.0318,
      "velocity": 97,
      "chip": "ym2612"
    },
    {
      "channel": 2,
      "note": 67,
      "start": 22.0669,
      "duration": 0.0319,
      "velocity": 97,
      "chip": "ym2612"
    },
    {
      "channel": 3,
      "note": 74,
      "start": 22.0676,
      "duration": 0.0318,
      "velocity": 76,
      "chip": "ym2612"
    },
    {
      "channel": 4,
      "note": 71,
      "start": 22.0684,
      "duration": 0.0318,
      "velocity": 76,
      "chip": "ym2612"
    },
    {
      "channel": 0,
      "note": 43,
      "start": 22.0978,
      "duration": 0.0317,
      "velocity": 101,
      "chip": "ym2612"
    },
    {
      "channel": 1,
      "note": 79,
      "start": 22.0986,
      "duration": 0.0315,
      "velocity": 97,
      "chip": "ym2612"
    },
    {
      "channel": 2,
      "note": 67,
      "start": 22.0993,
      "duration": 0.0315,
      "velocity": 97,
      "chip": "ym2612"
    },
    {
      "channel": 3,
      "note": 74,
      "start": 22.1,
      "duration": 0.0316,
      "velocity": 76,
      "chip": "ym2612"
    },
    {
      "channel": 4,
      "note": 71,
      "start": 22.1008,
      "duration": 0.0316,
      "velocity": 76,
      "chip": "ym2612"
    },
    {
      "channel": 0,
      "note": 43,
      "start": 22.13,
      "duration": 0.0313,
      "velocity": 101,
      "chip": "ym2612"
    },
    {
      "channel": 1,
      "note": 79,
      "start": 22.1307,
      "duration": 0.1702,
      "velocity": 97,
      "chip": "ym2612"
    },
    {
      "channel": 2,
      "note": 67,
      "start": 22.1315,
      "duration": 0.1702,
      "velocity": 97,
      "chip": "ym2612"
    },
    {
      "channel": 3,
      "note": 74,
      "start": 22.1321,
      "duration": 0.0303,
      "velocity": 76,
      "chip": "ym2612"
    },
    {
      "channel": 4,
      "note": 71,
      "start": 22.1329,
      "duration": 0.0298,
      "velocity": 76,
      "chip": "ym2612"
    },
    {
      "channel": 0,
      "note": 43,
      "start": 22.3007,
      "duration": 0.0317,
      "velocity": 101,
      "chip": "ym2612"
    },
    {
      "channel": 1,
      "note": 79,
      "start": 22.3015,
      "duration": 0.0316,
      "velocity": 97,
      "chip": "ym2612"
    },
    {
      "channel": 2,
      "note": 67,
      "start": 22.3022,
      "duration": 0.0316,
      "velocity": 97,
      "chip": "ym2612"
    },
    {
      "channel": 3,
      "note": 74,
      "start": 22.303,
      "duration": 0.0316,
      "velocity": 76,
      "chip": "ym2612"
    },
    {
      "channel": 4,
      "note": 71,
      "start": 22.3037,
      "duration": 0.0316,
      "velocity": 76,
      "chip": "ym2612"
    },
    {
      "channel": 0,
      "note": 43,
      "start": 22.3329,
      "duration": 0.0318,
      "velocity": 101,
      "chip": "ym2612"
    },
    {
      "channel": 1,
      "note": 79,
      "start": 22.3337,
      "duration": 0.0316,
      "velocity": 97,
      "chip": "ym2612"
    },
    {
      "channel": 2,
      "note": 67,
      "start": 22.3344,
      "duration": 0.0317,
      "velocity": 97,
      "chip": "ym2612"
    },
    {
      "channel": 3,
      "note": 74,
      "start": 22.3351,
      "duration": 0.0317,
      "velocity": 76,
      "chip": "ym2612"
    },
    {
      "channel": 4,
      "note": 71,
      "start": 22.3359,
      "duration": 0.0317,
      "velocity": 76,
      "chip": "ym2612"
    },
    {
      "channel": 0,
      "note": 43,
      "start": 22.3652,
      "duration": 0.0316,
      "velocity": 101,
      "chip": "ym2612"
    },
    {
      "channel": 1,
      "note": 79,
      "start": 22.366,
      "duration": 0.8316,
      "velocity": 101,
      "chip": "ym2612"
    },
    {
      "channel": 2,
      "note": 67,
      "start": 22.3667,
      "duration": 0.834,
      "velocity": 101,
      "chip": "ym2612"
    },
    {
      "channel": 3,
      "note": 74,
      "start": 22.3673,
      "duration": 0.0306,
      "velocity": 76,
      "chip": "ym2612"
    },
    {
      "channel": 4,
      "note": 71,
      "start": 22.3681,
      "duration": 0.0301,
      "velocity": 76,
      "chip": "ym2612"
    },
    {
      "channel": 0,
      "note": 50,
      "start": 23.1372,
      "duration": 0.3246,
      "velocity": 101,
      "chip": "ym2612"
    },
    {
      "channel": 1,
      "note": 72,
      "start": 23.1981,
      "duration": 0.0637,
      "velocity": 101,
      "chip": "ym2612"
    },
    {
      "channel": 2,
      "note": 69,
      "start": 23.2012,
      "duration": 0.0609,
      "velocity": 101,
      "chip": "ym2612"
    },
    {
      "channel": 3,
      "note": 72,
      "start": 23.2044,
      "duration": 0.058,
      "velocity": 106,
      "chip": "ym2612"
    },
    {
      "channel": 4,
      "note": 69,
      "start": 23.2076,
      "duration": 0.0551,
      "velocity": 106,
      "chip": "ym2612"
    },
    {
      "channel": 1,
      "note": 76,
      "start": 23.329,
      "duration": 0.0661,
      "velocity": 101,
      "chip": "ym2612"
    },
    {
      "channel": 2,
      "note": 72,
      "start": 23.3298,
      "duration": 0.0656,
      "velocity": 101,
      "chip": "ym2612"
    },
    {
      "channel": 3,
      "note": 76,
      "start": 23.3305,
      "duration": 0.0652,
      "velocity": 106,
      "chip": "ym2612"
    },
    {
      "channel": 4,
      "note": 72,
      "start": 23.3313,
      "duration": 0.0648,
      "velocity": 106,
      "chip": "ym2612"
    },
    {
      "channel": 0,
      "note": 57,
      "start": 23.4622,
      "duration": 0.138,
      "velocity": 101,
      "chip": "ym2612"
    },
    {
      "channel": 1,
      "note": 79,
      "start": 23.463,
      "duration": 0.0163,
      "velocity": 101,
      "chip": "ym2612"
    },
    {
      "channel": 2,
      "note": 76,
      "start": 23.4637,
      "duration": 0.0159,
      "velocity": 101,
      "chip": "ym2612"
    },
    {
      "channel": 3,
      "note": 79,
      "start": 23.4645,
      "duration": 0.0155,
      "velocity": 106,
      "chip": "ym2612"
    },
    {
      "channel": 4,
      "note": 76,
      "start": 23.4652,
      "duration": 0.015,
      "velocity": 106,
      "chip": "ym2612"
    },
    {
      "channel": 1,
      "note": 83,
      "start": 23.5211,
      "duration": 0.0156,
      "velocity": 101,
      "chip": "ym2612"
    },
    {
      "channel": 2,
      "note": 79,
      "start": 23.5219,
      "duration": 0.0151,
      "velocity": 101,
      "chip": "ym2612"
    },
    {
      "channel": 3,
      "note": 83,
      "start": 23.5226,
      "duration": 0.0147,
      "velocity": 106,
      "chip": "ym2612"
    },
    {
      "channel": 4,
      "note": 79,
      "start": 23.5234,
      "duration": 0.0143,
      "velocity": 106,
      "chip": "ym2612"
    },
    {
      "channel": 0,
      "note": 62,
      "start": 23.6007,
      "duration": 0.1505,
      "velocity": 101,
      "chip": "ym2612"
    },
    {
      "channel": 1,
      "note": 81,
      "start": 23.6015,
      "duration": 0.0246,
      "velocity": 101,
      "chip": "ym2612"
    },
    {
      "channel": 2,
      "note": 78,
      "start": 23.6022,
      "duration": 0.0243,
      "velocity": 101,
      "chip": "ym2612"
    },
    {
      "channel": 3,
      "note": 81,
      "start": 23.603,
      "duration": 0.0238,
      "velocity": 106,
      "chip": "ym2612"
    },
    {
      "channel": 4,
      "note": 78,
      "start": 23.6037,
      "duration": 0.0233,
      "velocity": 106,
      "chip": "ym2612"
    },
    {
      "channel": 1,
      "note": 83,
      "start": 23.6937,
      "duration": 0.0162,
      "velocity": 101,
      "chip": "ym2612"
    },
    {
      "channel": 2,
      "note": 79,
      "start": 23.6944,
      "duration": 0.0158,
      "velocity": 101,
      "chip": "ym2612"
    },
    {
      "channel": 3,
      "note": 83,
      "start": 23.6951,
      "duration": 0.0154,
      "velocity": 106,
      "chip": "ym2612"
    },
    {
      "channel": 4,
      "note": 79,
      "start": 23.6959,
      "duration": 0.0149,
      "velocity": 106,
      "chip": "ym2612"
    },
    {
      "channel": 0,
      "note": 50,
      "start": 23.7517,
      "duration": 0.3248,
      "velocity": 101,
      "chip": "ym2612"
    },
    {
      "channel": 1,
      "note": 81,
      "start": 23.8105,
      "duration": 0.066,
      "velocity": 101,
      "chip": "ym2612"
    },
    {
      "channel": 2,
      "note": 78,
      "start": 23.8112,
      "duration": 0.0656,
      "velocity": 101,
      "chip": "ym2612"
    },
    {
      "channel": 3,
      "note": 81,
      "start": 23.812,
      "duration": 0.0651,
      "velocity": 106,
      "chip": "ym2612"
    },
    {
      "channel": 4,
      "note": 78,
      "start": 23.8127,
      "duration": 0.0647,
      "velocity": 106,
      "chip": "ym2612"
    },
    {
      "channel": 1,
      "note": 83,
      "start": 23.9438,
      "duration": 0.0661,
      "velocity": 101,
      "chip": "ym2612"
    },
    {
      "channel": 2,
      "note": 79,
      "start": 23.9445,
      "duration": 0.0656,
      "velocity": 101,
      "chip": "ym2612"
    },
    {
      "channel": 3,
      "note": 83,
      "start": 23.9453,
      "duration": 0.0651,
      "velocity": 106,
      "chip": "ym2612"
    },
    {
      "channel": 4,
      "note": 79,
      "start": 23.946,
      "duration": 0.0648,
      "velocity": 106,
      "chip": "ym2612"
    },
    {
      "channel": 0,
      "note": 57,
      "start": 24.077,
      "duration": 0.1493,
      "velocity": 101,
      "chip": "ym2612"
    },
    {
      "channel": 1,
      "note": 81,
      "start": 24.0778,
      "duration": 0.1491,
      "velocity": 101,
      "chip": "ym2612"
    },
    {
      "channel": 2,
      "note": 78,
      "start": 24.0785,
      "duration": 0.1487,
      "velocity": 101,
      "chip": "ym2612"
    },
    {
      "channel": 3,
      "note": 81,
      "start": 24.0792,
      "duration": 0.1483,
      "velocity": 106,
      "chip": "ym2612"
    },
    {
      "channel": 4,
      "note": 78,
      "start": 24.08,
      "duration": 0.1478,
      "velocity": 106,
      "chip": "ym2612"
    },
    {
      "channel": 0,
      "note": 62,
      "start": 24.2268,
      "duration": 0.0444,
      "velocity": 101,
      "chip": "ym2612"
    },
    {
      "channel": 0,
      "note": 50,
      "start": 24.2717,
      "duration": 0.3244,
      "velocity": 101,
      "chip": "ym2612"
    },
    {
      "channel": 1,
      "note": 71,
      "start": 24.33,
      "duration": 0.0661,
      "velocity": 101,
      "chip": "ym2612"
    },
    {
      "channel": 2,
      "note": 67,
      "start": 24.3308,
      "duration": 0.0656,
      "velocity": 101,
      "chip": "ym2612"
    },
    {
      "channel": 3,
      "note": 71,
      "start": 24.3316,
      "duration": 0.0651,
      "velocity": 106,
      "chip": "ym2612"
    },
    {
      "channel": 4,
      "note": 67,
      "start": 24.3323,
      "duration": 0.0648,
      "velocity": 106,
      "chip": "ym2612"
    },
    {
      "channel": 1,
      "note": 74,
      "start": 24.4634,
      "duration": 0.0661,
      "velocity": 101,
      "chip": "ym2612"
    },
    {
      "channel": 2,
      "note": 71,
      "start": 24.4641,
      "duration": 0.0656,
      "velocity": 101,
      "chip": "ym2612"
    },
    {
      "channel": 3,
      "note": 74,
      "start": 24.4648,
      "duration": 0.0652,
      "velocity": 106,
      "chip": "ym2612"
    },
    {
      "channel": 4,
      "note": 71,
      "start": 24.4656,
      "duration": 0.0648,
      "velocity": 106,
      "chip": "ym2612"
    },
    {
      "channel": 0,
      "note": 57,
      "start": 24.5966,
      "duration": 0.1379,
      "velocity": 101,
      "chip": "ym2612"
    },
    {
      "channel": 1,
      "note": 78,
      "start": 24.5973,
      "duration": 0.0162,
      "velocity": 101,
      "chip": "ym2612"
    },
    {
      "channel": 2,
      "note": 74,
      "start": 24.598,
      "duration": 0.0159,
      "velocity": 101,
      "chip": "ym2612"
    },
    {
      "channel": 3,
      "note": 78,
      "start": 24.5988,
      "duration": 0.0154,
      "velocity": 106,
      "chip": "ym2612"
    },
    {
      "channel": 4,
      "note": 74,
      "start": 24.5996,
      "duration": 0.0149,
      "velocity": 106,
      "chip": "ym2612"
    },
    {
      "channel": 1,
      "note": 81,
      "start": 24.6554,
      "duration": 0.0157,
      "velocity": 101,
      "chip": "ym2612"
    },
    {
      "channel": 2,
      "note": 78,
      "start": 24.6562,
      "duration": 0.0152,
      "velocity": 101,
      "chip": "ym2612"
    },
    {
      "channel": 3,
      "note": 81,
      "start": 24.6569,
      "duration": 0.0148,
      "velocity": 106,
      "chip": "ym2612"
    },
    {
      "channel": 4,
      "note": 78,
      "start": 24.6576,
      "duration": 0.0144,
      "velocity": 106,
      "chip": "ym2612"
    },
    {
      "channel": 0,
      "note": 62,
      "start": 24.735,
      "duration": 0.1506,
      "velocity": 101,
      "chip": "ym2612"
    },
    {
      "channel": 1,
      "note": 79,
      "start": 24.7356,
      "duration": 0.0247,
      "velocity": 101,
      "chip": "ym2612"
    },
    {
      "channel": 2,
      "note": 76,
      "start": 24.7364,
      "duration": 0.0243,
      "velocity": 101,
      "chip": "ym2612"
    },
    {
      "channel": 3,
      "note": 79,
      "start": 24.7372,
      "duration": 0.0238,
      "velocity": 106,
      "chip": "ym2612"
    },
    {
      "channel": 4,
      "note": 76,
      "start": 24.7379,
      "duration": 0.0234,
      "velocity": 106,
      "chip": "ym2612"
    },
    {
      "channel": 1,
      "note": 81,
      "start": 24.8279,
      "duration": 0.0164,
      "velocity": 101,
      "chip": "ym2612"
    },
    {
      "channel": 2,
      "note": 78,
      "start": 24.8287,
      "duration": 0.0159,
      "velocity": 101,
      "chip": "ym2612"
    },
    {
      "channel": 3,
      "note": 81,
      "start": 24.8293,
      "duration": 0.0155,
      "velocity": 106,
      "chip": "ym2612"
    },
    {
      "channel": 4,
      "note": 78,
      "start": 24.8301,
      "duration": 0.0151,
      "velocity": 106,
      "chip": "ym2612"
    },
    {
      "channel": 0,
      "note": 52,
      "start": 24.8861,
      "duration": 0.383,
      "velocity": 101,
      "chip": "ym2612"
    },
    {
      "channel": 1,
      "note": 79,
      "start": 24.9446,
      "duration": 0.0661,
      "velocity": 101,
      "chip": "ym2612"
    },
    {
      "channel": 2,
      "note": 76,
      "start": 24.9453,
      "duration": 0.0656,
      "velocity": 101,
      "chip": "ym2612"
    },
    {
      "channel": 3,
      "note": 79,
      "start": 24.9461,
      "duration": 0.0651,
      "velocity": 106,
      "chip": "ym2612"
    },
    {
      "channel": 4,
      "note": 76,
      "start": 24.9468,
      "duration": 0.0648,
      "velocity": 106,
      "chip": "ym2612"
    },
    {
      "channel": 1,
      "note": 81,
      "start": 25.0779,
      "duration": 0.0661,
      "velocity": 101,
      "chip": "ym2612"
    },
    {
      "channel": 2,
      "note": 78,
      "start": 25.0787,
      "duration": 0.0656,
      "velocity": 101,
      "chip": "ym2612"
    },
    {
      "channel": 3,
      "note": 81,
      "start": 25.0794,
      "duration": 0.0651,
      "velocity": 106,
      "chip": "ym2612"
    },
    {
      "channel": 4,
      "note": 78,
      "start": 25.0801,
      "duration": 0.0648,
      "velocity": 106,
      "chip": "ym2612"
    },
    {
      "channel": 1,
      "note": 79,
      "start": 25.2115,
      "duration": 0.1188,
      "velocity": 76,
      "chip": "ym2612"
    },
    {
      "channel": 2,
      "note": 76,
      "start": 25.2123,
      "duration": 0.1211,
      "velocity": 76,
      "chip": "ym2612"
    },
    {
      "channel": 3,
      "note": 79,
      "start": 25.2129,
      "duration": 0.1236,
      "velocity": 76,
      "chip": "ym2612"
    },
    {
      "channel": 4,
      "note": 76,
      "start": 25.2137,
      "duration": 0.126,
      "velocity": 76,
      "chip": "ym2612"
    },
    {
      "channel": 0,
      "note": 51,
      "start": 25.2696,
      "duration": 0.1547,
      "velocity": 101,
      "chip": "ym2612"
    },
    {
      "channel": 1,
      "note": 76,
      "start": 25.3308,
      "duration": 0.0232,
      "velocity": 76,
      "chip": "ym2612"
    },
    {
      "channel": 2,
      "note": 72,
      "start": 25.334,
      "duration": 0.0204,
      "velocity": 76,
      "chip": "ym2612"
    },
    {
      "channel": 3,
      "note": 76,
      "start": 25.3371,
      "duration": 0.0175,
      "velocity": 76,
      "chip": "ym2612"
    },
    {
      "channel": 4,
      "note": 72,
      "start": 25.3404,
      "duration": 0.0146,
      "velocity": 76,
      "chip": "ym2612"
    },
    {
      "channel": 1,
      "note": 78,
      "start": 25.3662,
      "duration": 0.0283,
      "velocity": 76,
      "chip": "ym2612"
    },
    {
      "channel": 2,
      "note": 74,
      "start": 25.367,
      "duration": 0.0283,
      "velocity": 76,
      "chip": "ym2612"
    },
    {
      "channel": 3,
      "note": 78,
      "start": 25.3677,
      "duration": 0.0149,
      "velocity": 76,
      "chip": "ym2612"
    },
    {
      "channel": 4,
      "note": 74,
      "start": 25.3684,
      "duration": 0.0145,
      "velocity": 76,
      "chip": "ym2612"
    },
    {
      "channel": 1,
      "note": 79,
      "start": 25.3951,
      "duration": 0.0899,
      "velocity": 101,
      "chip": "ym2612"
    },
    {
      "channel": 2,
      "note": 76,
      "start": 25.3958,
      "duration": 0.0922,
      "velocity": 101,
      "chip": "ym2612"
    },
    {
      "channel": 3,
      "note": 79,
      "start": 25.3965,
      "duration": 0.0149,
      "velocity": 76,
      "chip": "ym2612"
    },
    {
      "channel": 4,
      "note": 76,
      "start": 25.3973,
      "duration": 0.0144,
      "velocity": 76,
      "chip": "ym2612"
    },
    {
      "channel": 0,
      "note": 50,
      "start": 25.4248,
      "duration": 0.3244,
      "velocity": 101,
      "chip": "ym2612"
    },
    {
      "channel": 1,
      "note": 72,
      "start": 25.4855,
      "duration": 0.1303,
      "velocity": 101,
      "chip": "ym2612"
    },
    {
      "channel": 2,
      "note": 69,
      "start": 25.4886,
      "duration": 0.128,
      "velocity": 101,
      "chip": "ym2612"
    },
    {
      "channel": 3,
      "note": 72,
      "start": 25.4918,
      "duration": 0.058,
      "velocity": 106,
      "chip": "ym2612"
    },
    {
      "channel": 4,
      "note": 69,
      "start": 25.495,
      "duration": 0.0551,
      "velocity": 106,
      "chip": "ym2612"
    },
    {
      "channel": 1,
      "note": 76,
      "start": 25.6164,
      "duration": 0.0661,
      "velocity": 101,
      "chip": "ym2612"
    },
    {
      "channel": 2,
      "note": 72,
      "start": 25.6172,
      "duration": 0.0656,
      "velocity": 101,
      "chip": "ym2612"
    },
    {
      "channel": 3,
      "note": 76,
      "start": 25.6179,
      "duration": 0.0652,
      "velocity": 106,
      "chip": "ym2612"
    },
    {
      "channel": 4,
      "note": 72,
      "start": 25.6187,
      "duration": 0.0648,
      "velocity": 106,
      "chip": "ym2612"
    },
    {
      "channel": 0,
      "note": 57,
      "start": 25.7496,
      "duration": 0.1379,
      "velocity": 101,
      "chip": "ym2612"
    },
    {
      "channel": 1,
      "note": 79,
      "start": 25.7504,
      "duration": 0.0162,
      "velocity": 101,
      "chip": "ym2612"
    },
    {
      "channel": 2,
      "note": 76,
      "start": 25.7511,
      "duration": 0.0159,
      "velocity": 101,
      "chip": "ym2612"
    },
    {
      "channel": 3,
      "note": 79,
      "start": 25.7519,
      "duration": 0.0154,
      "velocity": 106,
      "chip": "ym2612"
    },
    {
      "channel": 4,
      "note": 76,
      "start": 25.7526,
      "duration": 0.0149,
      "velocity": 106,
      "chip": "ym2612"
    },
    {
      "channel": 1,
      "note": 83,
      "start": 25.8085,
      "duration": 0.0157,
      "velocity": 101,
      "chip": "ym2612"
    },
    {
      "channel": 2,
      "note": 79,
      "start": 25.8093,
      "duration": 0.0152,
      "velocity": 101,
      "chip": "ym2612"
    },
    {
      "channel": 3,
      "note": 83,
      "start": 25.8099,
      "duration": 0.0148,
      "velocity": 106,
      "chip": "ym2612"
    },
    {
      "channel": 4,
      "note": 79,
      "start": 25.8107,
      "duration": 0.0144,
      "velocity": 106,
      "chip": "ym2612"
    },
    {
      "channel": 0,
      "note": 62,
      "start": 25.888,
      "duration": 0.1506,
      "velocity": 101,
      "chip": "ym2612"
    },
    {
      "channel": 1,
      "note": 81,
      "start": 25.8888,
      "duration": 0.0246,
      "velocity": 101,
      "chip": "ym2612"
    },
    {
      "channel": 2,
      "note": 78,
      "start": 25.8895,
      "duration": 0.0243,
      "velocity": 101,
      "chip": "ym2612"
    },
    {
      "channel": 3,
      "note": 81,
      "start": 25.8902,
      "duration": 0.0238,
      "velocity": 106,
      "chip": "ym2612"
    },
    {
      "channel": 4,
      "note": 78,
      "start": 25.891,
      "duration": 0.0233,
      "velocity": 106,
      "chip": "ym2612"
    },
    {
      "channel": 1,
      "note": 83,
      "start": 25.9809,
      "duration": 0.0163,
      "velocity": 101,
      "chip": "ym2612"
    },
    {
      "channel": 2,
      "note": 79,
      "start": 25.9817,
      "duration": 0.0159,
      "velocity": 101,
      "chip": "ym2612"
    },
    {
      "channel": 3,
      "note": 83,
      "start": 25.9824,
      "duration": 0.0154,
      "velocity": 106,
      "chip": "ym2612"
    },
    {
      "channel": 4,
      "note": 79,
      "start": 25.9832,
      "duration": 0.015,
      "velocity": 106,
      "chip": "ym2612"
    },
    {
      "channel": 0,
      "note": 50,
      "start": 26.039,
      "duration": 0.3247,
      "velocity": 101,
      "chip": "ym2612"
    },
    {
      "channel": 1,
      "note": 81,
      "start": 26.0978,
      "duration": 0.066,
      "velocity": 101,
      "chip": "ym2612"
    },
    {
      "channel": 2,
      "note": 78,
      "start": 26.0985,
      "duration": 0.0656,
      "velocity": 101,
      "chip": "ym2612"
    },
    {
      "channel": 3,
      "note": 81,
      "start": 26.0992,
      "duration": 0.0651,
      "velocity": 106,
      "chip": "ym2612"
    },
    {
      "channel": 4,
      "note": 78,
      "start": 26.1,
      "duration": 0.0647,
      "velocity": 106,
      "chip": "ym2612"
    },
    {
      "channel": 1,
      "note": 83,
      "start": 26.231,
      "duration": 0.0661,
      "velocity": 101,
      "chip": "ym2612"
    },
    {
      "channel": 2,
      "note": 79,
      "start": 26.2318,
      "duration": 0.0656,
      "velocity": 101,
      "chip": "ym2612"
    },
    {
      "channel": 3,
      "note": 83,
      "start": 26.2326,
      "duration": 0.0651,
      "velocity": 106,
      "chip": "ym2612"
    },
    {
      "channel": 4,
      "note": 79,
      "start": 26.2333,
      "duration": 0.0648,
      "velocity": 106,
      "chip": "ym2612"
    },
    {
      "channel": 0,
      "note": 57,
      "start": 26.3642,
      "duration": 0.1491,
      "velocity": 101,
      "chip": "ym2612"
    },
    {
      "channel": 1,
      "note": 81,
      "start": 26.365,
      "duration": 0.149,
      "velocity": 101,
      "chip": "ym2612"
    },
    {
      "channel": 2,
      "note": 78,
      "start": 26.3658,
      "duration": 0.1485,
      "velocity": 101,
      "chip": "ym2612"
    },
    {
      "channel": 3,
      "note": 81,
      "start": 26.3665,
      "duration": 0.1481,
      "velocity": 106,
      "chip": "ym2612"
    },
    {
      "channel": 4,
      "note": 78,
      "start": 26.3672,
      "duration": 0.1477,
      "velocity": 106,
      "chip": "ym2612"
    },
    {
      "channel": 0,
      "note": 62,
      "start": 26.5139,
      "duration": 0.0444,
      "velocity": 101,
      "chip": "ym2612"
    },
    {
      "channel": 0,
      "note": 55,
      "start": 26.5588,
      "duration": 0.2234,
      "velocity": 101,
      "chip": "ym2612"
    },
    {
      "channel": 3,
      "note": 71,
      "start": 26.5622,
      "duration": 0.0346,
      "velocity": 76,
      "chip": "ym2612"
    },
    {
      "channel": 4,
      "note": 67,
      "start": 26.5654,
      "duration": 0.0317,
      "velocity": 76,
      "chip": "ym2612"
    },
    {
      "channel": 1,
      "note": 91,
      "start": 26.5935,
      "duration": 0.0554,
      "velocity": 92,
      "chip": "ym2612"
    },
    {
      "channel": 2,
      "note": 88,
      "start": 26.5966,
      "duration": 0.0531,
      "velocity": 92,
      "chip": "ym2612"
    },
    {
      "channel": 1,
      "note": 90,
      "start": 26.6495,
      "duration": 0.1334,
      "velocity": 92,
      "chip": "ym2612"
    },
    {
      "channel": 2,
      "note": 86,
      "start": 26.6502,
      "duration": 0.1333,
      "velocity": 92,
      "chip": "ym2612"
    },
    {
      "channel": 0,
      "note": 55,
      "start": 26.7827,
      "duration": 0.0317,
      "velocity": 101,
      "chip": "ym2612"
    },
    {
      "channel": 1,
      "note": 86,
      "start": 26.7834,
      "duration": 0.0313,
      "velocity": 92,
      "chip": "ym2612"
    },
    {
      "channel": 2,
      "note": 83,
      "start": 26.7842,
      "duration": 0.0313,
      "velocity": 92,
      "chip": "ym2612"
    },
    {
      "channel": 3,
      "note": 72,
      "start": 26.7849,
      "duration": 0.0313,
      "velocity": 76,
      "chip": "ym2612"
    },
    {
      "channel": 4,
      "note": 69,
      "start": 26.7857,
      "duration": 0.0308,
      "velocity": 76,
      "chip": "ym2612"
    },
    {
      "channel": 1,
      "note": 83,
      "start": 26.8154,
      "duration": 0.0581,
      "velocity": 92,
      "chip": "ym2612"
    },
    {
      "channel": 2,
      "note": 79,
      "start": 26.8161,
      "duration": 0.0581,
      "velocity": 92,
      "chip": "ym2612"
    },
    {
      "channel": 0,
      "note": 50,
      "start": 26.8733,
      "duration": 0.0259,
      "velocity": 101,
      "chip": "ym2612"
    },
    {
      "channel": 1,
      "note": 79,
      "start": 26.8741,
      "duration": 0.0258,
      "velocity": 92,
      "chip": "ym2612"
    },
    {
      "channel": 2,
      "note": 76,
      "start": 26.8748,
      "duration": 0.0258,
      "velocity": 92,
      "chip": "ym2612"
    },
    {
      "channel": 0,
      "note": 51,
      "start": 26.8996,
      "duration": 0.0317,
      "velocity": 101,
      "chip": "ym2612"
    },
    {
      "channel": 1,
      "note": 78,
      "start": 26.9004,
      "duration": 0.0316,
      "velocity": 92,
      "chip": "ym2612"
    },
    {
      "channel": 2,
      "note": 74,
      "start": 26.9011,
      "duration": 0.0316,
      "velocity": 92,
      "chip": "ym2612"
    },
    {
      "channel": 3,
      "note": 74,
      "start": 26.9019,
      "duration": 0.0316,
      "velocity": 76,
      "chip": "ym2612"
    },
    {
      "channel": 4,
      "note": 71,
      "start": 26.9026,
      "duration": 0.0312,
      "velocity": 76,
      "chip": "ym2612"
    },
    {
      "channel": 0,
      "note": 52,
      "start": 26.9318,
      "duration": 0.0675,
      "velocity": 101,
      "chip": "ym2612"
    },
    {
      "channel": 1,
      "note": 76,
      "start": 26.9326,
      "duration": 0.0673,
      "velocity": 92,
      "chip": "ym2612"
    },
    {
      "channel": 2,
      "note": 71,
      "start": 26.9333,
      "duration": 0.0669,
      "velocity": 92,
      "chip": "ym2612"
    },
    {
      "channel": 0,
      "note": 52,
      "start": 26.9998,
      "duration": 0.0578,
      "velocity": 101,
      "chip": "ym2612"
    },
    {
      "channel": 0,
      "note": 59,
      "start": 27.058,
      "duration": 0.2664,
      "velocity": 101,
      "chip": "ym2612"
    },
    {
      "channel": 0,
      "note": 64,
      "start": 27.3249,
      "duration": 0.058,
      "velocity": 101,
      "chip": "ym2612"
    },
    {
      "channel": 0,
      "note": 59,
      "start": 27.3834,
      "duration": 0.058,
      "velocity": 101,
      "chip": "ym2612"
    },
    {
      "channel": 0,
      "note": 52,
      "start": 27.4419,
      "duration": 0.1137,
      "velocity": 101,
      "chip": "ym2612"
    },
    {
      "channel": 0,
      "note": 50,
      "start": 27.5561,
      "duration": 0.3246,
      "velocity": 101,
      "chip": "ym2612"
    },
    {
      "channel": 1,
      "note": 72,
      "start": 27.617,
      "duration": 0.0637,
      "velocity": 101,
      "chip": "ym2612"
    },
    {
      "channel": 2,
      "note": 69,
      "start": 27.6202,
      "duration": 0.0609,
      "velocity": 101,
      "chip": "ym2612"
    },
    {
      "channel": 3,
      "note": 72,
      "start": 27.6233,
      "duration": 0.058,
      "velocity": 106,
      "chip": "ym2612"
    },
    {
      "channel": 4,
      "note": 69,
      "start": 27.6265,
      "duration": 0.0551,
      "velocity": 106,
      "chip": "ym2612"
    },
    {
      "channel": 1,
      "note": 76,
      "start": 27.748,
      "duration": 0.0661,
      "velocity": 101,
      "chip": "ym2612"
    },
    {
      "channel": 2,
      "note": 72,
      "start": 27.7487,
      "duration": 0.0656,
      "velocity": 101,
      "chip": "ym2612"
    },
    {
      "channel": 3,
      "note": 76,
      "start": 27.7494,
      "duration": 0.0652,
      "velocity": 106,
      "chip": "ym2612"
    },
    {
      "channel": 4,
      "note": 72,
      "start": 27.7502,
      "duration": 0.0648,
      "velocity": 106,
      "chip": "ym2612"
    },
    {
      "channel": 0,
      "note": 57,
      "start": 27.8812,
      "duration": 0.1381,
      "velocity": 101,
      "chip": "ym2612"
    },
    {
      "channel": 1,
      "note": 79,
      "start": 27.8819,
      "duration": 0.0162,
      "velocity": 101,
      "chip": "ym2612"
    },
    {
      "channel": 2,
      "note": 76,
      "start": 27.8826,
      "duration": 0.0159,
      "velocity": 101,
      "chip": "ym2612"
    },
    {
      "channel": 3,
      "note": 79,
      "start": 27.8834,
      "duration": 0.0154,
      "velocity": 106,
      "chip": "ym2612"
    },
    {
      "channel": 4,
      "note": 76,
      "start": 27.8841,
      "duration": 0.0149,
      "velocity": 106,
      "chip": "ym2612"
    },
    {
      "channel": 1,
      "note": 83,
      "start": 27.94,
      "duration": 0.0158,
      "velocity": 101,
      "chip": "ym2612"
    },
    {
      "channel": 2,
      "note": 79,
      "start": 27.9408,
      "duration": 0.0153,
      "velocity": 101,
      "chip": "ym2612"
    },
    {
      "channel": 3,
      "note": 83,
      "start": 27.9415,
      "duration": 0.0149,
      "velocity": 106,
      "chip": "ym2612"
    },
    {
      "channel": 4,
      "note": 79,
      "start": 27.9422,
      "duration": 0.0144,
      "velocity": 106,
      "chip": "ym2612"
    },
    {
      "channel": 0,
      "note": 62,
      "start": 28.0198,
      "duration": 0.1503,
      "velocity": 101,
      "chip": "ym2612"
    },
    {
      "channel": 1,
      "note": 81,
      "start": 28.0206,
      "duration": 0.0244,
      "velocity": 101,
      "chip": "ym2612"
    },
    {
      "channel": 2,
      "note": 78,
      "start": 28.0213,
      "duration": 0.024,
      "velocity": 101,
      "chip": "ym2612"
    },
    {
      "channel": 3,
      "note": 81,
      "start": 28.022,
      "duration": 0.0235,
      "velocity": 106,
      "chip": "ym2612"
    },
    {
      "channel": 4,
      "note": 78,
      "start": 28.0228,
      "duration": 0.0231,
      "velocity": 106,
      "chip": "ym2612"
    },
    {
      "channel": 1,
      "note": 83,
      "start": 28.1125,
      "duration": 0.0163,
      "velocity": 101,
      "chip": "ym2612"
    },
    {
      "channel": 2,
      "note": 79,
      "start": 28.1133,
      "duration": 0.0159,
      "velocity": 101,
      "chip": "ym2612"
    },
    {
      "channel": 3,
      "note": 83,
      "start": 28.1139,
      "duration": 0.0155,
      "velocity": 106,
      "chip": "ym2612"
    },
    {
      "channel": 4,
      "note": 79,
      "start": 28.1147,
      "duration": 0.015,
      "velocity": 106,
      "chip": "ym2612"
    },
    {
      "channel": 0,
      "note": 50,
      "start": 28.1706,
      "duration": 0.3247,
      "velocity": 101,
      "chip": "ym2612"
    },
    {
      "channel": 1,
      "note": 81,
      "start": 28.2293,
      "duration": 0.066,
      "velocity": 101,
      "chip": "ym2612"
    },
    {
      "channel": 2,
      "note": 78,
      "start": 28.23,
      "duration": 0.0656,
      "velocity": 101,
      "chip": "ym2612"
    },
    {
      "channel": 3,
      "note": 81,
      "start": 28.2307,
      "duration": 0.0651,
      "velocity": 106,
      "chip": "ym2612"
    },
    {
      "channel": 4,
      "note": 78,
      "start": 28.2315,
      "duration": 0.0647,
      "velocity": 106,
      "chip": "ym2612"
    },
    {
      "channel": 1,
      "note": 83,
      "start": 28.3626,
      "duration": 0.0661,
      "velocity": 101,
      "chip": "ym2612"
    },
    {
      "channel": 2,
      "note": 79,
      "start": 28.3633,
      "duration": 0.0656,
      "velocity": 101,
      "chip": "ym2612"
    },
    {
      "channel": 3,
      "note": 83,
      "start": 28.3641,
      "duration": 0.0651,
      "velocity": 106,
      "chip": "ym2612"
    },
    {
      "channel": 4,
      "note": 79,
      "start": 28.3648,
      "duration": 0.0648,
      "velocity": 106,
      "chip": "ym2612"
    },
    {
      "channel": 0,
      "note": 57,
      "start": 28.4958,
      "duration": 0.1491,
      "velocity": 101,
      "chip": "ym2612"
    },
    {
      "channel": 1,
      "note": 81,
      "start": 28.4965,
      "duration": 0.1489,
      "velocity": 101,
      "chip": "ym2612"
    },
    {
      "channel": 2,
      "note": 78,
      "start": 28.4973,
      "duration": 0.1485,
      "velocity": 101,
      "chip": "ym2612"
    },
    {
      "channel": 3,
      "note": 81,
      "start": 28.498,
      "duration": 0.1481,
      "velocity": 106,
      "chip": "ym2612"
    },
    {
      "channel": 4,
      "note": 78,
      "start": 28.4988,
      "duration": 0.1476,
      "velocity": 106,
      "chip": "ym2612"
    },
    {
      "channel": 0,
      "note": 62,
      "start": 28.6454,
      "duration": 0.0444,
      "velocity": 101,
      "chip": "ym2612"
    },
    {
      "channel": 0,
      "note": 50,
      "start": 28.6902,
      "duration": 0.3244,
      "velocity": 101,
      "chip": "ym2612"
    },
    {
      "channel": 1,
      "note": 71,
      "start": 28.7485,
      "duration": 0.0661,
      "velocity": 101,
      "chip": "ym2612"
    },
    {
      "channel": 2,
      "note": 67,
      "start": 28.7493,
      "duration": 0.0656,
      "velocity": 101,
      "chip": "ym2612"
    },
    {
      "channel": 3,
      "note": 71,
      "start": 28.75,
      "duration": 0.0651,
      "velocity": 106,
      "chip": "ym2612"
    },
    {
      "channel": 4,
      "note": 67,
      "start": 28.7507,
      "duration": 0.0648,
      "velocity": 106,
      "chip": "ym2612"
    },
    {
      "channel": 1,
      "note": 74,
      "start": 28.8819,
      "duration": 0.0661,
      "velocity": 101,
      "chip": "ym2612"
    },
    {
      "channel": 2,
      "note": 71,
      "start": 28.8826,
      "duration": 0.0656,
      "velocity": 101,
      "chip": "ym2612"
    },
    {
      "channel": 3,
      "note": 74,
      "start": 28.8833,
      "duration": 0.0652,
      "velocity": 106,
      "chip": "ym2612"
    },
    {
      "channel": 4,
      "note": 71,
      "start": 28.8841,
      "duration": 0.0648,
      "velocity": 106,
      "chip": "ym2612"
    },
    {
      "channel": 0,
      "note": 57,
      "start": 29.0151,
      "duration": 0.138,
      "velocity": 101,
      "chip": "ym2612"
    },
    {
      "channel": 1,
      "note": 78,
      "start": 29.0158,
      "duration": 0.0162,
      "velocity": 101,
      "chip": "ym2612"
    },
    {
      "channel": 2,
      "note": 74,
      "start": 29.0165,
      "duration": 0.0159,
      "velocity": 101,
      "chip": "ym2612"
    },
    {
      "channel": 3,
      "note": 78,
      "start": 29.0173,
      "duration": 0.0154,
      "velocity": 106,
      "chip": "ym2612"
    },
    {
      "channel": 4,
      "note": 74,
      "start": 29.018,
      "duration": 0.0149,
      "velocity": 106,
      "chip": "ym2612"
    },
    {
      "channel": 1,
      "note": 81,
      "start": 29.0739,
      "duration": 0.0156,
      "velocity": 101,
      "chip": "ym2612"
    },
    {
      "channel": 2,
      "note": 78,
      "start": 29.0747,
      "duration": 0.0152,
      "velocity": 101,
      "chip": "ym2612"
    },
    {
      "channel": 3,
      "note": 81,
      "start": 29.0754,
      "duration": 0.0148,
      "velocity": 106,
      "chip": "ym2612"
    },
    {
      "channel": 4,
      "note": 78,
      "start": 29.0761,
      "duration": 0.0143,
      "velocity": 106,
      "chip": "ym2612"
    },
    {
      "channel": 0,
      "note": 62,
      "start": 29.1536,
      "duration": 0.1505,
      "velocity": 101,
      "chip": "ym2612"
    },
    {
      "channel": 1,
      "note": 79,
      "start": 29.1544,
      "duration": 0.0245,
      "velocity": 101,
      "chip": "ym2612"
    },
    {
      "channel": 2,
      "note": 76,
      "start": 29.1551,
      "duration": 0.0241,
      "velocity": 101,
      "chip": "ym2612"
    },
    {
      "channel": 3,
      "note": 79,
      "start": 29.1558,
      "duration": 0.0237,
      "velocity": 106,
      "chip": "ym2612"
    },
    {
      "channel": 4,
      "note": 76,
      "start": 29.1566,
      "duration": 0.0232,
      "velocity": 106,
      "chip": "ym2612"
    },
    {
      "channel": 1,
      "note": 81,
      "start": 29.2464,
      "duration": 0.0163,
      "velocity": 101,
      "chip": "ym2612"
    },
    {
      "channel": 2,
      "note": 78,
      "start": 29.2472,
      "duration": 0.0159,
      "velocity": 101,
      "chip": "ym2612"
    },
    {
      "channel": 3,
      "note": 81,
      "start": 29.2478,
      "duration": 0.0154,
      "velocity": 106,
      "chip": "ym2612"
    },
    {
      "channel": 4,
      "note": 78,
      "start": 29.2486,
      "duration": 0.015,
      "velocity": 106,
      "chip": "ym2612"
    },
    {
      "channel": 0,
      "note": 52,
      "start": 29.3045,
      "duration": 0.3832,
      "velocity": 101,
      "chip": "ym2612"
    },
    {
      "channel": 1,
      "note": 79,
      "start": 29.3632,
      "duration": 0.0661,
      "velocity": 101,
      "chip": "ym2612"
    },
    {
      "channel": 2,
      "note": 76,
      "start": 29.3639,
      "duration": 0.0656,
      "velocity": 101,
      "chip": "ym2612"
    },
    {
      "channel": 3,
      "note": 79,
      "start": 29.3647,
      "duration": 0.0651,
      "velocity": 106,
      "chip": "ym2612"
    },
    {
      "channel": 4,
      "note": 76,
      "start": 29.3654,
      "duration": 0.0648,
      "velocity": 106,
      "chip": "ym2612"
    },
    {
      "channel": 1,
      "note": 81,
      "start": 29.4965,
      "duration": 0.0661,
      "velocity": 101,
      "chip": "ym2612"
    },
    {
      "channel": 2,
      "note": 78,
      "start": 29.4973,
      "duration": 0.0656,
      "velocity": 101,
      "chip": "ym2612"
    },
    {
      "channel": 3,
      "note": 81,
      "start": 29.498,
      "duration": 0.0651,
      "velocity": 106,
      "chip": "ym2612"
    },
    {
      "channel": 4,
      "note": 78,
      "start": 29.4988,
      "duration": 0.0648,
      "velocity": 106,
      "chip": "ym2612"
    },
    {
      "channel": 1,
      "note": 79,
      "start": 29.6301,
      "duration": 0.1188,
      "velocity": 76,
      "chip": "ym2612"
    },
    {
      "channel": 2,
      "note": 76,
      "start": 29.6309,
      "duration": 0.1211,
      "velocity": 76,
      "chip": "ym2612"
    },
    {
      "channel": 3,
      "note": 79,
      "start": 29.6316,
      "duration": 0.1236,
      "velocity": 76,
      "chip": "ym2612"
    },
    {
      "channel": 4,
      "note": 76,
      "start": 29.6323,
      "duration": 0.126,
      "velocity": 76,
      "chip": "ym2612"
    },
    {
      "channel": 0,
      "note": 51,
      "start": 29.6882,
      "duration": 0.1545,
      "velocity": 101,
      "chip": "ym2612"
    },
    {
      "channel": 1,
      "note": 76,
      "start": 29.7494,
      "duration": 0.0231,
      "velocity": 76,
      "chip": "ym2612"
    },
    {
      "channel": 2,
      "note": 72,
      "start": 29.7526,
      "duration": 0.0203,
      "velocity": 76,
      "chip": "ym2612"
    },
    {
      "channel": 3,
      "note": 76,
      "start": 29.7557,
      "duration": 0.0174,
      "velocity": 76,
      "chip": "ym2612"
    },
    {
      "channel": 4,
      "note": 72,
      "start": 29.759,
      "duration": 0.0145,
      "velocity": 76,
      "chip": "ym2612"
    },
    {
      "channel": 1,
      "note": 78,
      "start": 29.7847,
      "duration": 0.0283,
      "velocity": 76,
      "chip": "ym2612"
    },
    {
      "channel": 2,
      "note": 74,
      "start": 29.7855,
      "duration": 0.0283,
      "velocity": 76,
      "chip": "ym2612"
    },
    {
      "channel": 3,
      "note": 78,
      "start": 29.7861,
      "duration": 0.015,
      "velocity": 76,
      "chip": "ym2612"
    },
    {
      "channel": 4,
      "note": 74,
      "start": 29.7869,
      "duration": 0.0146,
      "velocity": 76,
      "chip": "ym2612"
    },
    {
      "channel": 1,
      "note": 79,
      "start": 29.8136,
      "duration": 0.0899,
      "velocity": 101,
      "chip": "ym2612"
    },
    {
      "channel": 2,
      "note": 76,
      "start": 29.8144,
      "duration": 0.0923,
      "velocity": 101,
      "chip": "ym2612"
    },
    {
      "channel": 3,
      "note": 79,
      "start": 29.8151,
      "duration": 0.0149,
      "velocity": 76,
      "chip": "ym2612"
    },
    {
      "channel": 4,
      "note": 76,
      "start": 29.8159,
      "duration": 0.0144,
      "velocity": 76,
      "chip": "ym2612"
    },
    {
      "channel": 0,
      "note": 50,
      "start": 29.8432,
      "duration": 0.3246,
      "velocity": 101,
      "chip": "ym2612"
    },
    {
      "channel": 1,
      "note": 72,
      "start": 29.9041,
      "duration": 0.0637,
      "velocity": 101,
      "chip": "ym2612"
    },
    {
      "channel": 2,
      "note": 69,
      "start": 29.9072,
      "duration": 0.0609,
      "velocity": 101,
      "chip": "ym2612"
    },
    {
      "channel": 3,
      "note": 72,
      "start": 29.9104,
      "duration": 0.058,
      "velocity": 106,
      "chip": "ym2612"
    },
    {
      "channel": 4,
      "note": 69,
      "start": 29.9136,
      "duration": 0.0551,
      "velocity": 106,
      "chip": "ym2612"
    },
    {
      "channel": 1,
      "note": 76,
      "start": 30.035,
      "duration": 0.0661,
      "velocity": 101,
      "chip": "ym2612"
    },
    {
      "channel": 2,
      "note": 72,
      "start": 30.0358,
      "duration": 0.0656,
      "velocity": 101,
      "chip": "ym2612"
    },
    {
      "channel": 3,
      "note": 76,
      "start": 30.0365,
      "duration": 0.0652,
      "velocity": 106,
      "chip": "ym2612"
    },
    {
      "channel": 4,
      "note": 72,
      "start": 30.0373,
      "duration": 0.0648,
      "velocity": 106,
      "chip": "ym2612"
    },
    {
      "channel": 0,
      "note": 57,
      "start": 30.1682,
      "duration": 0.138,
      "velocity": 101,
      "chip": "ym2612"
    },
    {
      "channel": 1,
      "note": 79,
      "start": 30.169,
      "duration": 0.0164,
      "velocity": 101,
      "chip": "ym2612"
    },
    {
      "channel": 2,
      "note": 76,
      "start": 30.1697,
      "duration": 0.016,
      "velocity": 101,
      "chip": "ym2612"
    },
    {
      "channel": 3,
      "note": 79,
      "start": 30.1705,
      "duration": 0.0156,
      "velocity": 106,
      "chip": "ym2612"
    },
    {
      "channel": 4,
      "note": 76,
      "start": 30.1712,
      "duration": 0.0151,
      "velocity": 106,
      "chip": "ym2612"
    },
    {
      "channel": 1,
      "note": 83,
      "start": 30.2271,
      "duration": 0.0157,
      "velocity": 101,
      "chip": "ym2612"
    },
    {
      "channel": 2,
      "note": 79,
      "start": 30.2279,
      "duration": 0.0152,
      "velocity": 101,
      "chip": "ym2612"
    },
    {
      "channel": 3,
      "note": 83,
      "start": 30.2285,
      "duration": 0.0149,
      "velocity": 106,
      "chip": "ym2612"
    },
    {
      "channel": 4,
      "note": 79,
      "start": 30.2293,
      "duration": 0.0144,
      "velocity": 106,
      "chip": "ym2612"
    },
    {
      "channel": 0,
      "note": 62,
      "start": 30.3067,
      "duration": 0.1506,
      "velocity": 101,
      "chip": "ym2612"
    },
    {
      "channel": 1,
      "note": 81,
      "start": 30.3075,
      "duration": 0.0246,
      "velocity": 101,
      "chip": "ym2612"
    },
    {
      "channel": 2,
      "note": 78,
      "start": 30.3082,
      "duration": 0.0243,
      "velocity": 101,
      "chip": "ym2612"
    },
    {
      "channel": 3,
      "note": 81,
      "start": 30.309,
      "duration": 0.0238,
      "velocity": 106,
      "chip": "ym2612"
    },
    {
      "channel": 4,
      "note": 78,
      "start": 30.3097,
      "duration": 0.0233,
      "velocity": 106,
      "chip": "ym2612"
    },
    {
      "channel": 1,
      "note": 83,
      "start": 30.3996,
      "duration": 0.0164,
      "velocity": 101,
      "chip": "ym2612"
    },
    {
      "channel": 2,
      "note": 79,
      "start": 30.4004,
      "duration": 0.016,
      "velocity": 101,
      "chip": "ym2612"
    },
    {
      "channel": 3,
      "note": 83,
      "start": 30.4011,
      "duration": 0.0156,
      "velocity": 106,
      "chip": "ym2612"
    },
    {
      "channel": 4,
      "note": 79,
      "start": 30.4019,
      "duration": 0.0151,
      "velocity": 106,
      "chip": "ym2612"
    },
    {
      "channel": 0,
      "note": 50,
      "start": 30.4578,
      "duration": 0.3247,
      "velocity": 101,
      "chip": "ym2612"
    },
    {
      "channel": 1,
      "note": 81,
      "start": 30.5164,
      "duration": 0.066,
      "velocity": 101,
      "chip": "ym2612"
    },
    {
      "channel": 2,
      "note": 78,
      "start": 30.5171,
      "duration": 0.0656,
      "velocity": 101,
      "chip": "ym2612"
    },
    {
      "channel": 3,
      "note": 81,
      "start": 30.5179,
      "duration": 0.0651,
      "velocity": 106,
      "chip": "ym2612"
    },
    {
      "channel": 4,
      "note": 78,
      "start": 30.5187,
      "duration": 0.0647,
      "velocity": 106,
      "chip": "ym2612"
    },
    {
      "channel": 1,
      "note": 83,
      "start": 30.6497,
      "duration": 0.0661,
      "velocity": 101,
      "chip": "ym2612"
    },
    {
      "channel": 2,
      "note": 79,
      "start": 30.6505,
      "duration": 0.0656,
      "velocity": 101,
      "chip": "ym2612"
    },
    {
      "channel": 3,
      "note": 83,
      "start": 30.6512,
      "duration": 0.0651,
      "velocity": 106,
      "chip": "ym2612"
    },
    {
      "channel": 4,
      "note": 79,
      "start": 30.652,
      "duration": 0.0648,
      "velocity": 106,
      "chip": "ym2612"
    },
    {
      "channel": 0,
      "note": 57,
      "start": 30.7829,
      "duration": 0.1491,
      "velocity": 101,
      "chip": "ym2612"
    },
    {
      "channel": 1,
      "note": 81,
      "start": 30.7837,
      "duration": 0.149,
      "velocity": 101,
      "chip": "ym2612"
    },
    {
      "channel": 2,
      "note": 78,
      "start": 30.7844,
      "duration": 0.1485,
      "velocity": 101,
      "chip": "ym2612"
    },
    {
      "channel": 3,
      "note": 81,
      "start": 30.7851,
      "duration": 0.1481,
      "velocity": 106,
      "chip": "ym2612"
    },
    {
      "channel": 4,
      "note": 78,
      "start": 30.7859,
      "duration": 0.1477,
      "velocity": 106,
      "chip": "ym2612"
    },
    {
      "channel": 0,
      "note": 62,
      "start": 30.9326,
      "duration": 0.0457,
      "velocity": 101,
      "chip": "ym2612"
    },
    {
      "channel": 0,
      "note": 43,
      "start": 30.9788,
      "duration": 0.1196,
      "velocity": 101,
      "chip": "ym2612"
    },
    {
      "channel": 3,
      "note": 71,
      "start": 30.9821,
      "duration": 0.0331,
      "velocity": 76,
      "chip": "ym2612"
    },
    {
      "channel": 4,
      "note": 67,
      "start": 30.9853,
      "duration": 0.0302,
      "velocity": 76,
      "chip": "ym2612"
    },
    {
      "channel": 1,
      "note": 91,
      "start": 31.012,
      "duration": 0.0282,
      "velocity": 92,
      "chip": "ym2612"
    },
    {
      "channel": 2,
      "note": 88,
      "start": 31.015,
      "duration": 0.0259,
      "velocity": 92,
      "chip": "ym2612"
    },
    {
      "channel": 1,
      "note": 90,
      "start": 31.0408,
      "duration": 0.0582,
      "velocity": 92,
      "chip": "ym2612"
    },
    {
      "channel": 2,
      "note": 86,
      "start": 31.0415,
      "duration": 0.0582,
      "velocity": 92,
      "chip": "ym2612"
    },
    {
      "channel": 0,
      "note": 45,
      "start": 31.0988,
      "duration": 0.1142,
      "velocity": 101,
      "chip": "ym2612"
    },
    {
      "channel": 1,
      "note": 86,
      "start": 31.0996,
      "duration": 0.0297,
      "velocity": 92,
      "chip": "ym2612"
    },
    {
      "channel": 2,
      "note": 83,
      "start": 31.1003,
      "duration": 0.0297,
      "velocity": 92,
      "chip": "ym2612"
    },
    {
      "channel": 3,
      "note": 72,
      "start": 31.101,
      "duration": 0.0297,
      "velocity": 76,
      "chip": "ym2612"
    },
    {
      "channel": 4,
      "note": 69,
      "start": 31.1018,
      "duration": 0.0292,
      "velocity": 76,
      "chip": "ym2612"
    },
    {
      "channel": 1,
      "note": 83,
      "start": 31.1298,
      "duration": 0.025,
      "velocity": 92,
      "chip": "ym2612"
    },
    {
      "channel": 2,
      "note": 79,
      "start": 31.1306,
      "duration": 0.025,
      "velocity": 92,
      "chip": "ym2612"
    },
    {
      "channel": 1,
      "note": 79,
      "start": 31.1554,
      "duration": 0.0583,
      "velocity": 92,
      "chip": "ym2612"
    },
    {
      "channel": 2,
      "note": 76,
      "start": 31.1561,
      "duration": 0.0583,
      "velocity": 92,
      "chip": "ym2612"
    },
    {
      "channel": 0,
      "note": 47,
      "start": 31.2135,
      "duration": 0.0563,
      "velocity": 101,
      "chip": "ym2612"
    },
    {
      "channel": 1,
      "note": 78,
      "start": 31.2143,
      "duration": 0.0297,
      "velocity": 92,
      "chip": "ym2612"
    },
    {
      "channel": 2,
      "note": 74,
      "start": 31.215,
      "duration": 0.0298,
      "velocity": 92,
      "chip": "ym2612"
    },
    {
      "channel": 3,
      "note": 74,
      "start": 31.2158,
      "duration": 0.0298,
      "velocity": 76,
      "chip": "ym2612"
    },
    {
      "channel": 4,
      "note": 71,
      "start": 31.2165,
      "duration": 0.0293,
      "velocity": 76,
      "chip": "ym2612"
    },
    {
      "channel": 1,
      "note": 76,
      "start": 31.2446,
      "duration": 0.1415,
      "velocity": 97,
      "chip": "ym2612"
    },
    {
      "channel": 2,
      "note": 71,
      "start": 31.2454,
      "duration": 0.1439,
      "velocity": 97,
      "chip": "ym2612"
    },
    {
      "channel": 1,
      "note": 79,
      "start": 31.3867,
      "duration": 0.2636,
      "velocity": 97,
      "chip": "ym2612"
    },
    {
      "channel": 2,
      "note": 67,
      "start": 31.3899,
      "duration": 0.1608,
      "velocity": 97,
      "chip": "ym2612"
    },
    {
      "channel": 1,
      "note": 79,
      "start": 31.6509,
      "duration": 0.1328,
      "velocity": 97,
      "chip": "ym2612"
    },
    {
      "channel": 2,
      "note": 67,
      "start": 31.6516,
      "duration": 0.1328,
      "velocity": 97,
      "chip": "ym2612"
    },
    {
      "channel": 1,
      "note": 79,
      "start": 31.7842,
      "duration": 0.1661,
      "velocity": 97,
      "chip": "ym2612"
    },
    {
      "channel": 2,
      "note": 67,
      "start": 31.785,
      "duration": 0.166,
      "velocity": 97,
      "chip": "ym2612"
    },
    {
      "channel": 1,
      "note": 78,
      "start": 31.9509,
      "duration": 0.1828,
      "velocity": 97,
      "chip": "ym2612"
    },
    {
      "channel": 2,
      "note": 66,
      "start": 31.9516,
      "duration": 0.1827,
      "velocity": 97,
      "chip": "ym2612"
    },
    {
      "channel": 1,
      "note": 79,
      "start": 32.1342,
      "duration": 28.5171,
      "velocity": 97,
      "chip": "ym2612"
    },
    {
      "channel": 2,
      "note": 67,
      "start": 32.135,
      "duration": 28.5163,
      "velocity": 97,
      "chip": "ym2612"
    },
    {
      "channel": 0,
      "note": 45,
      "start": 32.3199,
      "duration": 28.3314,
      "velocity": 101,
      "chip": "ym2612"
    }
  ]
}