{
  "track_name": "33 - Because You're the Number One",
  "duration_sec": 35.474,
  "sample_rate": 44100,
  "note_count": 686,
  "unique_pitches": 31,
  "pitch_range": 55,
  "avg_note_duration": 0.2197,
  "reconstruction_stats": {
    "notes_reconstructed": 686,
    "keyon_events": 686,
    "keyoff_events": 681,
    "orphan_keyons": 5,
    "unique_pitches": 31,
    "pitch_range": 55,
    "avg_duration_sec": 0.2197
  },
  "metadata": {
    "source": "T\\Thunder Force IV\\33 - Because You're the Number One.vgz"
  },
  "notes": [
    {
      "channel": 0,
      "note": 21,
      "start": 0.0,
      "duration": 2.0097,
      "velocity": 122,
      "chip": "ym2612"
    },
    {
      "channel": 1,
      "note": 49,
      "start": 0.0,
      "duration": 0.0,
      "velocity": 108,
      "chip": "ym2612"
    },
    {
      "channel": 1,
      "note": 21,
      "start": 0.0,
      "duration": 2.0099,
      "velocity": 122,
      "chip": "ym2612"
    },
    {
      "channel": 2,
      "note": 21,
      "start": 0.0,
      "duration": 2.0101,
      "velocity": 122,
      "chip": "ym2612"
    },
    {
      "channel": 3,
      "note": 61,
      "start": 0.0,
      "duration": 0.0,
      "velocity": 127,
      "chip": "ym2612"
    },
    {
      "channel": 3,
      "note": 61,
      "start": 0.0003,
      "duration": 0.0866,
      "velocity": 127,
      "chip": "ym2612"
    },
    {
      "channel": 4,
      "note": 21,
      "start": 0.002,
      "duration": 2.0086,
      "velocity": 122,
      "chip": "ym2612"
    },
    {
      "channel": 3,
      "note": 76,
      "start": 0.1349,
      "duration": 0.0166,
      "velocity": 112,
      "chip": "ym2612"
    },
    {
      "channel": 3,
      "note": 76,
      "start": 0.1743,
      "duration": 0.02,
      "velocity": 112,
      "chip": "ym2612"
    },
    {
      "channel": 5,
      "note": 21,
      "start": 0.196,
      "duration": 2.0285,
      "velocity": 122,
      "chip": "ym2612"
    },
    {
      "channel": 3,
      "note": 61,
      "start": 0.3913,
      "duration": 0.0803,
      "velocity": 127,
      "chip": "ym2612"
    },
    {
      "channel": 3,
      "note": 71,
      "start": 0.5194,
      "duration": 0.0173,
      "velocity": 112,
      "chip": "ym2612"
    },
    {
      "channel": 3,
      "note": 71,
      "start": 0.5598,
      "duration": 0.0191,
      "velocity": 112,
      "chip": "ym2612"
    },
    {
      "channel": 3,
      "note": 61,
      "start": 0.7767,
      "duration": 0.0795,
      "velocity": 127,
      "chip": "ym2612"
    },
    {
      "channel": 3,
      "note": 66,
      "start": 0.9041,
      "duration": 0.0166,
      "velocity": 112,
      "chip": "ym2612"
    },
    {
      "channel": 3,
      "note": 66,
      "start": 0.9648,
      "duration": 0.02,
      "velocity": 112,
      "chip": "ym2612"
    },
    {
      "channel": 3,
      "note": 66,
      "start": 1.029,
      "duration": 0.02,
      "velocity": 112,
      "chip": "ym2612"
    },
    {
      "channel": 3,
      "note": 66,
      "start": 1.1571,
      "duration": 0.02,
      "velocity": 112,
      "chip": "ym2612"
    },
    {
      "channel": 3,
      "note": 61,
      "start": 1.2888,
      "duration": 0.0588,
      "velocity": 127,
      "chip": "ym2612"
    },
    {
      "channel": 3,
      "note": 61,
      "start": 1.3708,
      "duration": 0.0623,
      "velocity": 127,
      "chip": "ym2612"
    },
    {
      "channel": 3,
      "note": 61,
      "start": 1.4563,
      "duration": 0.0623,
      "velocity": 127,
      "chip": "ym2612"
    },
    {
      "channel": 3,
      "note": 61,
      "start": 1.5426,
      "duration": 0.0835,
      "velocity": 127,
      "chip": "ym2612"
    },
    {
      "channel": 3,
      "note": 61,
      "start": 1.67,
      "duration": 0.0837,
      "velocity": 127,
      "chip": "ym2612"
    },
    {
      "channel": 3,
      "note": 61,
      "start": 1.7982,
      "duration": 0.0837,
      "velocity": 127,
      "chip": "ym2612"
    },
    {
      "channel": 3,
      "note": 61,
      "start": 1.9273,
      "duration": 0.0831,
      "velocity": 127,
      "chip": "ym2612"
    },
    {
      "channel": 0,
      "note": 62,
      "start": 2.0578,
      "duration": 0.7425,
      "velocity": 101,
      "chip": "ym2612"
    },
    {
      "channel": 1,
      "note": 52,
      "start": 2.0608,
      "duration": 0.2268,
      "velocity": 122,
      "chip": "ym2612"
    },
    {
      "channel": 2,
      "note": 55,
      "start": 2.0659,
      "duration": 1.6321,
      "velocity": 105,
      "chip": "ym2612"
    },
    {
      "channel": 3,
      "note": 61,
      "start": 2.0717,
      "duration": 0.088,
      "velocity": 127,
      "chip": "ym2612"
    },
    {
      "channel": 4,
      "note": 52,
      "start": 2.0779,
      "duration": 1.6205,
      "velocity": 105,
      "chip": "ym2612"
    },
    {
      "channel": 3,
      "note": 61,
      "start": 2.2074,
      "duration": 0.0168,
      "velocity": 119,
      "chip": "ym2612"
    },
    {
      "channel": 5,
      "note": 62,
      "start": 2.2725,
      "duration": 0.7211,
      "velocity": 101,
      "chip": "ym2612"
    },
    {
      "channel": 1,
      "note": 64,
      "start": 2.3318,
      "duration": 0.2123,
      "velocity": 122,
      "chip": "ym2612"
    },
    {
      "channel": 3,
      "note": 61,
      "start": 2.3339,
      "duration": 0.0185,
      "velocity": 119,
      "chip": "ym2612"
    },
    {
      "channel": 3,
      "note": 61,
      "start": 2.4613,
      "duration": 0.0831,
      "velocity": 119,
      "chip": "ym2612"
    },
    {
      "channel": 1,
      "note": 52,
      "start": 2.5883,
      "duration": 0.0839,
      "velocity": 122,
      "chip": "ym2612"
    },
    {
      "channel": 3,
      "note": 61,
      "start": 2.5945,
      "duration": 0.0781,
      "velocity": 127,
      "chip": "ym2612"
    },
    {
      "channel": 1,
      "note": 62,
      "start": 2.7164,
      "duration": 0.0841,
      "velocity": 122,
      "chip": "ym2612"
    },
    {
      "channel": 0,
      "note": 54,
      "start": 2.8449,
      "duration": 0.0837,
      "velocity": 101,
      "chip": "ym2612"
    },
    {
      "channel": 3,
      "note": 61,
      "start": 2.8504,
      "duration": 0.0148,
      "velocity": 119,
      "chip": "ym2612"
    },
    {
      "channel": 0,
      "note": 55,
      "start": 2.9727,
      "duration": 0.084,
      "velocity": 101,
      "chip": "ym2612"
    },
    {
      "channel": 1,
      "note": 64,
      "start": 2.9744,
      "duration": 0.0825,
      "velocity": 122,
      "chip": "ym2612"
    },
    {
      "channel": 3,
      "note": 61,
      "start": 2.9806,
      "duration": 0.0767,
      "velocity": 127,
      "chip": "ym2612"
    },
    {
      "channel": 5,
      "note": 54,
      "start": 3.0374,
      "duration": 0.0844,
      "velocity": 101,
      "chip": "ym2612"
    },
    {
      "channel": 0,
      "note": 59,
      "start": 3.101,
      "duration": 0.3404,
      "velocity": 101,
      "chip": "ym2612"
    },
    {
      "channel": 1,
      "note": 50,
      "start": 3.1026,
      "duration": 0.2106,
      "velocity": 122,
      "chip": "ym2612"
    },
    {
      "channel": 3,
      "note": 61,
      "start": 3.108,
      "duration": 0.0773,
      "velocity": 119,
      "chip": "ym2612"
    },
    {
      "channel": 5,
      "note": 55,
      "start": 3.1655,
      "duration": 0.0845,
      "velocity": 101,
      "chip": "ym2612"
    },
    {
      "channel": 3,
      "note": 61,
      "start": 3.2345,
      "duration": 0.0791,
      "velocity": 127,
      "chip": "ym2612"
    },
    {
      "channel": 5,
      "note": 59,
      "start": 3.2944,
      "duration": 0.3402,
      "velocity": 101,
      "chip": "ym2612"
    },
    {
      "channel": 1,
      "note": 64,
      "start": 3.3574,
      "duration": 0.085,
      "velocity": 122,
      "chip": "ym2612"
    },
    {
      "channel": 3,
      "note": 61,
      "start": 3.3605,
      "duration": 0.0823,
      "velocity": 127,
      "chip": "ym2612"
    },
    {
      "channel": 0,
      "note": 62,
      "start": 3.4856,
      "duration": 0.3404,
      "velocity": 101,
      "chip": "ym2612"
    },
    {
      "channel": 1,
      "note": 64,
      "start": 3.4872,
      "duration": 0.0824,
      "velocity": 122,
      "chip": "ym2612"
    },
    {
      "channel": 3,
      "note": 61,
      "start": 3.4934,
      "duration": 0.0767,
      "velocity": 119,
      "chip": "ym2612"
    },
    {
      "channel": 1,
      "note": 50,
      "start": 3.6138,
      "duration": 0.2123,
      "velocity": 122,
      "chip": "ym2612"
    },
    {
      "channel": 3,
      "note": 61,
      "start": 3.6192,
      "duration": 0.079,
      "velocity": 127,
      "chip": "ym2612"
    },
    {
      "channel": 5,
      "note": 62,
      "start": 3.6784,
      "duration": 0.3408,
      "velocity": 101,
      "chip": "ym2612"
    },
    {
      "channel": 2,
      "note": 55,
      "start": 3.7444,
      "duration": 0.3382,
      "velocity": 105,
      "chip": "ym2612"
    },
    {
      "channel": 4,
      "note": 52,
      "start": 3.7466,
      "duration": 0.3365,
      "velocity": 105,
      "chip": "ym2612"
    },
    {
      "channel": 0,
      "note": 63,
      "start": 3.8702,
      "duration": 0.0839,
      "velocity": 101,
      "chip": "ym2612"
    },
    {
      "channel": 1,
      "note": 64,
      "start": 3.8719,
      "duration": 0.0824,
      "velocity": 122,
      "chip": "ym2612"
    },
    {
      "channel": 3,
      "note": 61,
      "start": 3.8781,
      "duration": 0.0128,
      "velocity": 119,
      "chip": "ym2612"
    },
    {
      "channel": 3,
      "note": 61,
      "start": 4.0023,
      "duration": 0.0806,
      "velocity": 127,
      "chip": "ym2612"
    },
    {
      "channel": 5,
      "note": 63,
      "start": 4.063,
      "duration": 0.0847,
      "velocity": 101,
      "chip": "ym2612"
    },
    {
      "channel": 0,
      "note": 61,
      "start": 4.1273,
      "duration": 0.0405,
      "velocity": 101,
      "chip": "ym2612"
    },
    {
      "channel": 1,
      "note": 51,
      "start": 4.1293,
      "duration": 0.2096,
      "velocity": 122,
      "chip": "ym2612"
    },
    {
      "channel": 2,
      "note": 55,
      "start": 4.1312,
      "duration": 1.6191,
      "velocity": 105,
      "chip": "ym2612"
    },
    {
      "channel": 3,
      "note": 61,
      "start": 4.1367,
      "duration": 0.0743,
      "velocity": 127,
      "chip": "ym2612"
    },
    {
      "channel": 4,
      "note": 51,
      "start": 4.1386,
      "duration": 1.6122,
      "velocity": 105,
      "chip": "ym2612"
    },
    {
      "channel": 0,
      "note": 62,
      "start": 4.1907,
      "duration": 0.8104,
      "velocity": 101,
      "chip": "ym2612"
    },
    {
      "channel": 3,
      "note": 61,
      "start": 4.2595,
      "duration": 0.017,
      "velocity": 119,
      "chip": "ym2612"
    },
    {
      "channel": 5,
      "note": 61,
      "start": 4.3199,
      "duration": 0.0412,
      "velocity": 101,
      "chip": "ym2612"
    },
    {
      "channel": 1,
      "note": 63,
      "start": 4.383,
      "duration": 0.2123,
      "velocity": 122,
      "chip": "ym2612"
    },
    {
      "channel": 3,
      "note": 61,
      "start": 4.3853,
      "duration": 0.0185,
      "velocity": 119,
      "chip": "ym2612"
    },
    {
      "channel": 5,
      "note": 62,
      "start": 4.3871,
      "duration": 0.807,
      "velocity": 101,
      "chip": "ym2612"
    },
    {
      "channel": 3,
      "note": 61,
      "start": 4.512,
      "duration": 0.0838,
      "velocity": 119,
      "chip": "ym2612"
    },
    {
      "channel": 1,
      "note": 51,
      "start": 4.6395,
      "duration": 0.084,
      "velocity": 122,
      "chip": "ym2612"
    },
    {
      "channel": 3,
      "note": 61,
      "start": 4.6458,
      "duration": 0.0782,
      "velocity": 127,
      "chip": "ym2612"
    },
    {
      "channel": 1,
      "note": 62,
      "start": 4.7676,
      "duration": 0.084,
      "velocity": 122,
      "chip": "ym2612"
    },
    {
      "channel": 3,
      "note": 61,
      "start": 4.8997,
      "duration": 0.0168,
      "velocity": 119,
      "chip": "ym2612"
    },
    {
      "channel": 0,
      "note": 63,
      "start": 5.0242,
      "duration": 0.3403,
      "velocity": 101,
      "chip": "ym2612"
    },
    {
      "channel": 1,
      "note": 63,
      "start": 5.0267,
      "duration": 0.0824,
      "velocity": 122,
      "chip": "ym2612"
    },
    {
      "channel": 3,
      "note": 61,
      "start": 5.0321,
      "duration": 0.0773,
      "velocity": 127,
      "chip": "ym2612"
    },
    {
      "channel": 1,
      "note": 50,
      "start": 5.1538,
      "duration": 0.2109,
      "velocity": 122,
      "chip": "ym2612"
    },
    {
      "channel": 3,
      "note": 61,
      "start": 5.16,
      "duration": 0.0767,
      "velocity": 119,
      "chip": "ym2612"
    },
    {
      "channel": 5,
      "note": 63,
      "start": 5.2176,
      "duration": 0.3401,
      "velocity": 101,
      "chip": "ym2612"
    },
    {
      "channel": 3,
      "note": 61,
      "start": 5.2858,
      "duration": 0.0793,
      "velocity": 127,
      "chip": "ym2612"
    },
    {
      "channel": 1,
      "note": 63,
      "start": 5.4096,
      "duration": 0.0833,
      "velocity": 122,
      "chip": "ym2612"
    },
    {
      "channel": 3,
      "note": 61,
      "start": 5.4117,
      "duration": 0.0815,
      "velocity": 127,
      "chip": "ym2612"
    },
    {
      "channel": 0,
      "note": 63,
      "start": 5.5369,
      "duration": 0.213,
      "velocity": 101,
      "chip": "ym2612"
    },
    {
      "channel": 1,
      "note": 63,
      "start": 5.5386,
      "duration": 0.0824,
      "velocity": 122,
      "chip": "ym2612"
    },
    {
      "channel": 3,
      "note": 61,
      "start": 5.5447,
      "duration": 0.0766,
      "velocity": 119,
      "chip": "ym2612"
    },
    {
      "channel": 1,
      "note": 50,
      "start": 5.6652,
      "duration": 0.2122,
      "velocity": 122,
      "chip": "ym2612"
    },
    {
      "channel": 3,
      "note": 61,
      "start": 5.6706,
      "duration": 0.08,
      "velocity": 127,
      "chip": "ym2612"
    },
    {
      "channel": 5,
      "note": 63,
      "start": 5.7297,
      "duration": 0.2137,
      "velocity": 101,
      "chip": "ym2612"
    },
    {
      "channel": 2,
      "note": 55,
      "start": 5.7956,
      "duration": 0.3384,
      "velocity": 105,
      "chip": "ym2612"
    },
    {
      "channel": 4,
      "note": 51,
      "start": 5.7978,
      "duration": 0.3366,
      "velocity": 105,
      "chip": "ym2612"
    },
    {
      "channel": 0,
      "note": 62,
      "start": 5.9215,
      "duration": 0.2122,
      "velocity": 101,
      "chip": "ym2612"
    },
    {
      "channel": 1,
      "note": 63,
      "start": 5.9232,
      "duration": 0.0824,
      "velocity": 122,
      "chip": "ym2612"
    },
    {
      "channel": 3,
      "note": 61,
      "start": 5.9294,
      "duration": 0.0137,
      "velocity": 119,
      "chip": "ym2612"
    },
    {
      "channel": 3,
      "note": 61,
      "start": 6.0536,
      "duration": 0.0807,
      "velocity": 127,
      "chip": "ym2612"
    },
    {
      "channel": 5,
      "note": 62,
      "start": 6.1143,
      "duration": 0.2128,
      "velocity": 101,
      "chip": "ym2612"
    },
    {
      "channel": 0,
      "note": 60,
      "start": 6.1783,
      "duration": 0.0837,
      "velocity": 101,
      "chip": "ym2612"
    },
    {
      "channel": 1,
      "note": 50,
      "start": 6.1803,
      "duration": 0.21,
      "velocity": 122,
      "chip": "ym2612"
    },
    {
      "channel": 2,
      "note": 53,
      "start": 6.1823,
      "duration": 1.6184,
      "velocity": 105,
      "chip": "ym2612"
    },
    {
      "channel": 3,
      "note": 61,
      "start": 6.1877,
      "duration": 0.0747,
      "velocity": 127,
      "chip": "ym2612"
    },
    {
      "channel": 4,
      "note": 50,
      "start": 6.1897,
      "duration": 1.6115,
      "velocity": 105,
      "chip": "ym2612"
    },
    {
      "channel": 0,
      "note": 58,
      "start": 6.3061,
      "duration": 0.084,
      "velocity": 101,
      "chip": "ym2612"
    },
    {
      "channel": 3,
      "note": 61,
      "start": 6.3125,
      "duration": 0.0143,
      "velocity": 119,
      "chip": "ym2612"
    },
    {
      "channel": 5,
      "note": 60,
      "start": 6.3715,
      "duration": 0.0839,
      "velocity": 101,
      "chip": "ym2612"
    },
    {
      "channel": 0,
      "note": 60,
      "start": 6.4344,
      "duration": 0.0847,
      "velocity": 101,
      "chip": "ym2612"
    },
    {
      "channel": 1,
      "note": 62,
      "start": 6.436,
      "duration": 0.2107,
      "velocity": 122,
      "chip": "ym2612"
    },
    {
      "channel": 3,
      "note": 61,
      "start": 6.4382,
      "duration": 0.0168,
      "velocity": 119,
      "chip": "ym2612"
    },
    {
      "channel": 5,
      "note": 58,
      "start": 6.4994,
      "duration": 0.084,
      "velocity": 101,
      "chip": "ym2612"
    },
    {
      "channel": 0,
      "note": 58,
      "start": 6.5625,
      "duration": 0.084,
      "velocity": 101,
      "chip": "ym2612"
    },
    {
      "channel": 3,
      "note": 61,
      "start": 6.5649,
      "duration": 0.0822,
      "velocity": 119,
      "chip": "ym2612"
    },
    {
      "channel": 5,
      "note": 60,
      "start": 6.6278,
      "duration": 0.0838,
      "velocity": 101,
      "chip": "ym2612"
    },
    {
      "channel": 1,
      "note": 50,
      "start": 6.6908,
      "duration": 0.0849,
      "velocity": 122,
      "chip": "ym2612"
    },
    {
      "channel": 3,
      "note": 61,
      "start": 6.697,
      "duration": 0.0791,
      "velocity": 127,
      "chip": "ym2612"
    },
    {
      "channel": 5,
      "note": 58,
      "start": 6.7557,
      "duration": 0.0841,
      "velocity": 101,
      "chip": "ym2612"
    },
    {
      "channel": 0,
      "note": 57,
      "start": 6.819,
      "duration": 0.0839,
      "velocity": 101,
      "chip": "ym2612"
    },
    {
      "channel": 1,
      "note": 60,
      "start": 6.8206,
      "duration": 0.0825,
      "velocity": 122,
      "chip": "ym2612"
    },
    {
      "channel": 3,
      "note": 61,
      "start": 6.951,
      "duration": 0.0168,
      "velocity": 119,
      "chip": "ym2612"
    },
    {
      "channel": 5,
      "note": 57,
      "start": 7.0122,
      "duration": 0.084,
      "velocity": 101,
      "chip": "ym2612"
    },
    {
      "channel": 0,
      "note": 58,
      "start": 7.0762,
      "duration": 0.2119,
      "velocity": 101,
      "chip": "ym2612"
    },
    {
      "channel": 1,
      "note": 62,
      "start": 7.0779,
      "duration": 0.082,
      "velocity": 122,
      "chip": "ym2612"
    },
    {
      "channel": 3,
      "note": 61,
      "start": 7.0833,
      "duration": 0.077,
      "velocity": 127,
      "chip": "ym2612"
    },
    {
      "channel": 1,
      "note": 48,
      "start": 7.2041,
      "duration": 0.2119,
      "velocity": 122,
      "chip": "ym2612"
    },
    {
      "channel": 3,
      "note": 61,
      "start": 7.2102,
      "duration": 0.0784,
      "velocity": 119,
      "chip": "ym2612"
    },
    {
      "channel": 5,
      "note": 58,
      "start": 7.2682,
      "duration": 0.2127,
      "velocity": 101,
      "chip": "ym2612"
    },
    {
      "channel": 0,
      "note": 58,
      "start": 7.3319,
      "duration": 0.0839,
      "velocity": 101,
      "chip": "ym2612"
    },
    {
      "channel": 3,
      "note": 61,
      "start": 7.3388,
      "duration": 0.0776,
      "velocity": 127,
      "chip": "ym2612"
    },
    {
      "channel": 0,
      "note": 60,
      "start": 7.4606,
      "duration": 0.0833,
      "velocity": 101,
      "chip": "ym2612"
    },
    {
      "channel": 1,
      "note": 62,
      "start": 7.4623,
      "duration": 0.0819,
      "velocity": 122,
      "chip": "ym2612"
    },
    {
      "channel": 3,
      "note": 61,
      "start": 7.4645,
      "duration": 0.08,
      "velocity": 127,
      "chip": "ym2612"
    },
    {
      "channel": 5,
      "note": 58,
      "start": 7.5256,
      "duration": 0.0844,
      "velocity": 101,
      "chip": "ym2612"
    },
    {
      "channel": 0,
      "note": 61,
      "start": 7.5883,
      "duration": 0.0839,
      "velocity": 101,
      "chip": "ym2612"
    },
    {
      "channel": 1,
      "note": 62,
      "start": 7.5899,
      "duration": 0.0825,
      "velocity": 122,
      "chip": "ym2612"
    },
    {
      "channel": 3,
      "note": 61,
      "start": 7.5961,
      "duration": 0.0767,
      "velocity": 119,
      "chip": "ym2612"
    },
    {
      "channel": 5,
      "note": 60,
      "start": 7.6529,
      "duration": 0.0844,
      "velocity": 101,
      "chip": "ym2612"
    },
    {
      "channel": 0,
      "note": 62,
      "start": 7.7164,
      "duration": 0.084,
      "velocity": 101,
      "chip": "ym2612"
    },
    {
      "channel": 1,
      "note": 48,
      "start": 7.7181,
      "duration": 0.2106,
      "velocity": 122,
      "chip": "ym2612"
    },
    {
      "channel": 3,
      "note": 61,
      "start": 7.7236,
      "duration": 0.0774,
      "velocity": 127,
      "chip": "ym2612"
    },
    {
      "channel": 5,
      "note": 61,
      "start": 7.7811,
      "duration": 0.0844,
      "velocity": 101,
      "chip": "ym2612"
    },
    {
      "channel": 0,
      "note": 60,
      "start": 7.8447,
      "duration": 0.0839,
      "velocity": 101,
      "chip": "ym2612"
    },
    {
      "channel": 2,
      "note": 53,
      "start": 7.8478,
      "duration": 0.3375,
      "velocity": 105,
      "chip": "ym2612"
    },
    {
      "channel": 4,
      "note": 50,
      "start": 7.8501,
      "duration": 0.3356,
      "velocity": 105,
      "chip": "ym2612"
    },
    {
      "channel": 5,
      "note": 62,
      "start": 7.9105,
      "duration": 0.0836,
      "velocity": 101,
      "chip": "ym2612"
    },
    {
      "channel": 0,
      "note": 58,
      "start": 7.9729,
      "duration": 0.0844,
      "velocity": 101,
      "chip": "ym2612"
    },
    {
      "channel": 1,
      "note": 62,
      "start": 7.9745,
      "duration": 0.0829,
      "velocity": 122,
      "chip": "ym2612"
    },
    {
      "channel": 3,
      "note": 61,
      "start": 7.9807,
      "duration": 0.013,
      "velocity": 119,
      "chip": "ym2612"
    },
    {
      "channel": 5,
      "note": 60,
      "start": 8.0379,
      "duration": 0.084,
      "velocity": 101,
      "chip": "ym2612"
    },
    {
      "channel": 0,
      "note": 57,
      "start": 8.1011,
      "duration": 0.0839,
      "velocity": 101,
      "chip": "ym2612"
    },
    {
      "channel": 3,
      "note": 61,
      "start": 8.1066,
      "duration": 0.079,
      "velocity": 127,
      "chip": "ym2612"
    },
    {
      "channel": 5,
      "note": 58,
      "start": 8.1657,
      "duration": 0.0844,
      "velocity": 101,
      "chip": "ym2612"
    },
    {
      "channel": 0,
      "note": 60,
      "start": 8.2293,
      "duration": 0.2976,
      "velocity": 101,
      "chip": "ym2612"
    },
    {
      "channel": 1,
      "note": 49,
      "start": 8.2313,
      "duration": 0.211,
      "velocity": 122,
      "chip": "ym2612"
    },
    {
      "channel": 2,
      "note": 53,
      "start": 8.233,
      "duration": 0.9781,
      "velocity": 105,
      "chip": "ym2612"
    },
    {
      "channel": 3,
      "note": 61,
      "start": 8.2388,
      "duration": 0.0749,
      "velocity": 127,
      "chip": "ym2612"
    },
    {
      "channel": 4,
      "note": 49,
      "start": 8.2407,
      "duration": 0.9708,
      "velocity": 105,
      "chip": "ym2612"
    },
    {
      "channel": 5,
      "note": 57,
      "start": 8.2947,
      "duration": 0.0839,
      "velocity": 101,
      "chip": "ym2612"
    },
    {
      "channel": 3,
      "note": 61,
      "start": 8.3622,
      "duration": 0.016,
      "velocity": 119,
      "chip": "ym2612"
    },
    {
      "channel": 5,
      "note": 60,
      "start": 8.4225,
      "duration": 0.2976,
      "velocity": 101,
      "chip": "ym2612"
    },
    {
      "channel": 1,
      "note": 61,
      "start": 8.4856,
      "duration": 0.2123,
      "velocity": 122,
      "chip": "ym2612"
    },
    {
      "channel": 3,
      "note": 61,
      "start": 8.4879,
      "duration": 0.0185,
      "velocity": 119,
      "chip": "ym2612"
    },
    {
      "channel": 0,
      "note": 58,
      "start": 8.6139,
      "duration": 0.2977,
      "velocity": 101,
      "chip": "ym2612"
    },
    {
      "channel": 3,
      "note": 61,
      "start": 8.6162,
      "duration": 0.0821,
      "velocity": 119,
      "chip": "ym2612"
    },
    {
      "channel": 1,
      "note": 49,
      "start": 8.7429,
      "duration": 0.0839,
      "velocity": 122,
      "chip": "ym2612"
    },
    {
      "channel": 3,
      "note": 61,
      "start": 8.7484,
      "duration": 0.0789,
      "velocity": 127,
      "chip": "ym2612"
    },
    {
      "channel": 5,
      "note": 58,
      "start": 8.8067,
      "duration": 0.2981,
      "velocity": 101,
      "chip": "ym2612"
    },
    {
      "channel": 1,
      "note": 60,
      "start": 8.8703,
      "duration": 0.084,
      "velocity": 122,
      "chip": "ym2612"
    },
    {
      "channel": 0,
      "note": 56,
      "start": 8.9985,
      "duration": 0.2121,
      "velocity": 101,
      "chip": "ym2612"
    },
    {
      "channel": 3,
      "note": 61,
      "start": 9.004,
      "duration": 0.0151,
      "velocity": 119,
      "chip": "ym2612"
    },
    {
      "channel": 1,
      "note": 61,
      "start": 9.1282,
      "duration": 0.0826,
      "velocity": 122,
      "chip": "ym2612"
    },
    {
      "channel": 3,
      "note": 61,
      "start": 9.1336,
      "duration": 0.0777,
      "velocity": 127,
      "chip": "ym2612"
    },
    {
      "channel": 5,
      "note": 56,
      "start": 9.1914,
      "duration": 0.2126,
      "velocity": 101,
      "chip": "ym2612"
    },
    {
      "channel": 0,
      "note": 58,
      "start": 9.255,
      "duration": 0.4686,
      "velocity": 101,
      "chip": "ym2612"
    },
    {
      "channel": 1,
      "note": 48,
      "start": 9.2566,
      "duration": 0.0823,
      "velocity": 122,
      "chip": "ym2612"
    },
    {
      "channel": 2,
      "note": 51,
      "start": 9.2591,
      "duration": 0.4648,
      "velocity": 105,
      "chip": "ym2612"
    },
    {
      "channel": 3,
      "note": 61,
      "start": 9.2612,
      "duration": 0.0781,
      "velocity": 127,
      "chip": "ym2612"
    },
    {
      "channel": 4,
      "note": 48,
      "start": 9.2629,
      "duration": 0.4616,
      "velocity": 105,
      "chip": "ym2612"
    },
    {
      "channel": 1,
      "note": 58,
      "start": 9.3832,
      "duration": 0.2123,
      "velocity": 122,
      "chip": "ym2612"
    },
    {
      "channel": 3,
      "note": 61,
      "start": 9.3886,
      "duration": 0.0789,
      "velocity": 127,
      "chip": "ym2612"
    },
    {
      "channel": 5,
      "note": 58,
      "start": 9.4478,
      "duration": 0.469,
      "velocity": 101,
      "chip": "ym2612"
    },
    {
      "channel": 3,
      "note": 61,
      "start": 9.5135,
      "duration": 0.0823,
      "velocity": 127,
      "chip": "ym2612"
    },
    {
      "channel": 1,
      "note": 48,
      "start": 9.6395,
      "duration": 0.0842,
      "velocity": 122,
      "chip": "ym2612"
    },
    {
      "channel": 3,
      "note": 61,
      "start": 9.6458,
      "duration": 0.0785,
      "velocity": 127,
      "chip": "ym2612"
    },
    {
      "channel": 0,
      "note": 60,
      "start": 9.7678,
      "duration": 0.4685,
      "velocity": 101,
      "chip": "ym2612"
    },
    {
      "channel": 1,
      "note": 50,
      "start": 9.7695,
      "duration": 0.0823,
      "velocity": 122,
      "chip": "ym2612"
    },
    {
      "channel": 2,
      "note": 53,
      "start": 9.7715,
      "duration": 0.4653,
      "velocity": 105,
      "chip": "ym2612"
    },
    {
      "channel": 3,
      "note": 61,
      "start": 9.7776,
      "duration": 0.0746,
      "velocity": 127,
      "chip": "ym2612"
    },
    {
      "channel": 4,
      "note": 50,
      "start": 9.7795,
      "duration": 0.4577,
      "velocity": 105,
      "chip": "ym2612"
    },
    {
      "channel": 1,
      "note": 60,
      "start": 9.8967,
      "duration": 0.2123,
      "velocity": 122,
      "chip": "ym2612"
    },
    {
      "channel": 3,
      "note": 61,
      "start": 9.8989,
      "duration": 0.0814,
      "velocity": 127,
      "chip": "ym2612"
    },
    {
      "channel": 5,
      "note": 60,
      "start": 9.9612,
      "duration": 0.49,
      "velocity": 101,
      "chip": "ym2612"
    },
    {
      "channel": 3,
      "note": 61,
      "start": 10.0271,
      "duration": 0.0823,
      "velocity": 127,
      "chip": "ym2612"
    },
    {
      "channel": 1,
      "note": 50,
      "start": 10.1524,
      "duration": 0.0842,
      "velocity": 122,
      "chip": "ym2612"
    },
    {
      "channel": 3,
      "note": 61,
      "start": 10.1546,
      "duration": 0.0824,
      "velocity": 127,
      "chip": "ym2612"
    },
    {
      "channel": 0,
      "note": 62,
      "start": 10.2843,
      "duration": 0.7426,
      "velocity": 101,
      "chip": "ym2612"
    },
    {
      "channel": 1,
      "note": 52,
      "start": 10.2862,
      "duration": 0.228,
      "velocity": 122,
      "chip": "ym2612"
    },
    {
      "channel": 2,
      "note": 55,
      "start": 10.2882,
      "duration": 1.6364,
      "velocity": 105,
      "chip": "ym2612"
    },
    {
      "channel": 3,
      "note": 61,
      "start": 10.2947,
      "duration": 0.0915,
      "velocity": 127,
      "chip": "ym2612"
    },
    {
      "channel": 4,
      "note": 52,
      "start": 10.2968,
      "duration": 1.6291,
      "velocity": 105,
      "chip": "ym2612"
    },
    {
      "channel": 3,
      "note": 61,
      "start": 10.434,
      "duration": 0.0168,
      "velocity": 119,
      "chip": "ym2612"
    },
    {
      "channel": 5,
      "note": 62,
      "start": 10.4988,
      "duration": 0.7214,
      "velocity": 101,
      "chip": "ym2612"
    },
    {
      "channel": 1,
      "note": 64,
      "start": 10.5592,
      "duration": 0.2115,
      "velocity": 122,
      "chip": "ym2612"
    },
    {
      "channel": 3,
      "note": 61,
      "start": 10.5614,
      "duration": 0.0176,
      "velocity": 119,
      "chip": "ym2612"
    },
    {
      "channel": 3,
      "note": 61,
      "start": 10.6872,
      "duration": 0.0838,
      "velocity": 119,
      "chip": "ym2612"
    },
    {
      "channel": 1,
      "note": 52,
      "start": 10.8148,
      "duration": 0.0841,
      "velocity": 122,
      "chip": "ym2612"
    },
    {
      "channel": 3,
      "note": 61,
      "start": 10.8202,
      "duration": 0.0791,
      "velocity": 127,
      "chip": "ym2612"
    },
    {
      "channel": 1,
      "note": 62,
      "start": 10.9438,
      "duration": 0.0833,
      "velocity": 122,
      "chip": "ym2612"
    },
    {
      "channel": 0,
      "note": 54,
      "start": 11.0712,
      "duration": 0.0839,
      "velocity": 101,
      "chip": "ym2612"
    },
    {
      "channel": 3,
      "note": 61,
      "start": 11.0776,
      "duration": 0.0151,
      "velocity": 119,
      "chip": "ym2612"
    },
    {
      "channel": 0,
      "note": 55,
      "start": 11.2004,
      "duration": 0.0829,
      "velocity": 101,
      "chip": "ym2612"
    },
    {
      "channel": 1,
      "note": 64,
      "start": 11.2021,
      "duration": 0.0815,
      "velocity": 122,
      "chip": "ym2612"
    },
    {
      "channel": 3,
      "note": 61,
      "start": 11.2075,
      "duration": 0.0765,
      "velocity": 127,
      "chip": "ym2612"
    },
    {
      "channel": 5,
      "note": 54,
      "start": 11.264,
      "duration": 0.0844,
      "velocity": 101,
      "chip": "ym2612"
    },
    {
      "channel": 0,
      "note": 59,
      "start": 11.3276,
      "duration": 0.3405,
      "velocity": 101,
      "chip": "ym2612"
    },
    {
      "channel": 1,
      "note": 50,
      "start": 11.3293,
      "duration": 0.2106,
      "velocity": 122,
      "chip": "ym2612"
    },
    {
      "channel": 3,
      "note": 61,
      "start": 11.3347,
      "duration": 0.0772,
      "velocity": 119,
      "chip": "ym2612"
    },
    {
      "channel": 5,
      "note": 55,
      "start": 11.393,
      "duration": 0.0838,
      "velocity": 101,
      "chip": "ym2612"
    },
    {
      "channel": 3,
      "note": 61,
      "start": 11.4619,
      "duration": 0.0783,
      "velocity": 127,
      "chip": "ym2612"
    },
    {
      "channel": 5,
      "note": 59,
      "start": 11.5204,
      "duration": 0.3408,
      "velocity": 101,
      "chip": "ym2612"
    },
    {
      "channel": 1,
      "note": 64,
      "start": 11.584,
      "duration": 0.0844,
      "velocity": 122,
      "chip": "ym2612"
    },
    {
      "channel": 3,
      "note": 61,
      "start": 11.5862,
      "duration": 0.0825,
      "velocity": 127,
      "chip": "ym2612"
    },
    {
      "channel": 0,
      "note": 62,
      "start": 11.7122,
      "duration": 0.3403,
      "velocity": 101,
      "chip": "ym2612"
    },
    {
      "channel": 1,
      "note": 64,
      "start": 11.7139,
      "duration": 0.0824,
      "velocity": 122,
      "chip": "ym2612"
    },
    {
      "channel": 3,
      "note": 61,
      "start": 11.7192,
      "duration": 0.0774,
      "velocity": 119,
      "chip": "ym2612"
    },
    {
      "channel": 1,
      "note": 50,
      "start": 11.8404,
      "duration": 0.2123,
      "velocity": 122,
      "chip": "ym2612"
    },
    {
      "channel": 3,
      "note": 61,
      "start": 11.8466,
      "duration": 0.0791,
      "velocity": 127,
      "chip": "ym2612"
    },
    {
      "channel": 5,
      "note": 62,
      "start": 11.905,
      "duration": 0.3408,
      "velocity": 101,
      "chip": "ym2612"
    },
    {
      "channel": 2,
      "note": 55,
      "start": 11.9708,
      "duration": 0.3385,
      "velocity": 105,
      "chip": "ym2612"
    },
    {
      "channel": 4,
      "note": 52,
      "start": 11.9731,
      "duration": 0.3367,
      "velocity": 105,
      "chip": "ym2612"
    },
    {
      "channel": 0,
      "note": 63,
      "start": 12.0969,
      "duration": 0.0839,
      "velocity": 101,
      "chip": "ym2612"
    },
    {
      "channel": 1,
      "note": 64,
      "start": 12.0985,
      "duration": 0.0824,
      "velocity": 122,
      "chip": "ym2612"
    },
    {
      "channel": 3,
      "note": 61,
      "start": 12.104,
      "duration": 0.0135,
      "velocity": 119,
      "chip": "ym2612"
    },
    {
      "channel": 3,
      "note": 61,
      "start": 12.2297,
      "duration": 0.0799,
      "velocity": 127,
      "chip": "ym2612"
    },
    {
      "channel": 5,
      "note": 63,
      "start": 12.2897,
      "duration": 0.0844,
      "velocity": 101,
      "chip": "ym2612"
    },
    {
      "channel": 0,
      "note": 61,
      "start": 12.3533,
      "duration": 0.0412,
      "velocity": 101,
      "chip": "ym2612"
    },
    {
      "channel": 1,
      "note": 51,
      "start": 12.3552,
      "duration": 0.2102,
      "velocity": 122,
      "chip": "ym2612"
    },
    {
      "channel": 2,
      "note": 55,
      "start": 12.3572,
      "duration": 1.6191,
      "velocity": 105,
      "chip": "ym2612"
    },
    {
      "channel": 3,
      "note": 61,
      "start": 12.3635,
      "duration": 0.074,
      "velocity": 127,
      "chip": "ym2612"
    },
    {
      "channel": 4,
      "note": 51,
      "start": 12.3654,
      "duration": 1.6113,
      "velocity": 105,
      "chip": "ym2612"
    },
    {
      "channel": 0,
      "note": 62,
      "start": 12.4174,
      "duration": 0.8104,
      "velocity": 101,
      "chip": "ym2612"
    },
    {
      "channel": 3,
      "note": 61,
      "start": 12.4853,
      "duration": 0.0177,
      "velocity": 119,
      "chip": "ym2612"
    },
    {
      "channel": 5,
      "note": 61,
      "start": 12.5465,
      "duration": 0.0412,
      "velocity": 101,
      "chip": "ym2612"
    },
    {
      "channel": 1,
      "note": 63,
      "start": 12.6106,
      "duration": 0.2114,
      "velocity": 122,
      "chip": "ym2612"
    },
    {
      "channel": 3,
      "note": 61,
      "start": 12.6127,
      "duration": 0.0176,
      "velocity": 119,
      "chip": "ym2612"
    },
    {
      "channel": 5,
      "note": 62,
      "start": 12.6146,
      "duration": 0.8061,
      "velocity": 101,
      "chip": "ym2612"
    },
    {
      "channel": 3,
      "note": 61,
      "start": 12.739,
      "duration": 0.0833,
      "velocity": 119,
      "chip": "ym2612"
    },
    {
      "channel": 1,
      "note": 51,
      "start": 12.8662,
      "duration": 0.084,
      "velocity": 122,
      "chip": "ym2612"
    },
    {
      "channel": 3,
      "note": 61,
      "start": 12.8716,
      "duration": 0.079,
      "velocity": 127,
      "chip": "ym2612"
    },
    {
      "channel": 1,
      "note": 62,
      "start": 12.9943,
      "duration": 0.084,
      "velocity": 122,
      "chip": "ym2612"
    },
    {
      "channel": 3,
      "note": 61,
      "start": 13.1272,
      "duration": 0.0161,
      "velocity": 119,
      "chip": "ym2612"
    },
    {
      "channel": 0,
      "note": 63,
      "start": 13.2508,
      "duration": 0.3403,
      "velocity": 101,
      "chip": "ym2612"
    },
    {
      "channel": 1,
      "note": 63,
      "start": 13.2524,
      "duration": 0.0823,
      "velocity": 122,
      "chip": "ym2612"
    },
    {
      "channel": 3,
      "note": 61,
      "start": 13.2578,
      "duration": 0.0773,
      "velocity": 127,
      "chip": "ym2612"
    },
    {
      "channel": 1,
      "note": 50,
      "start": 13.3804,
      "duration": 0.2108,
      "velocity": 122,
      "chip": "ym2612"
    },
    {
      "channel": 3,
      "note": 61,
      "start": 13.3858,
      "duration": 0.0775,
      "velocity": 119,
      "chip": "ym2612"
    },
    {
      "channel": 5,
      "note": 63,
      "start": 13.4446,
      "duration": 0.3398,
      "velocity": 101,
      "chip": "ym2612"
    },
    {
      "channel": 3,
      "note": 61,
      "start": 13.5136,
      "duration": 0.079,
      "velocity": 127,
      "chip": "ym2612"
    },
    {
      "channel": 1,
      "note": 63,
      "start": 13.6353,
      "duration": 0.0841,
      "velocity": 122,
      "chip": "ym2612"
    },
    {
      "channel": 3,
      "note": 61,
      "start": 13.6375,
      "duration": 0.0823,
      "velocity": 127,
      "chip": "ym2612"
    },
    {
      "channel": 0,
      "note": 63,
      "start": 13.7636,
      "duration": 0.2124,
      "velocity": 101,
      "chip": "ym2612"
    },
    {
      "channel": 1,
      "note": 63,
      "start": 13.7652,
      "duration": 0.0824,
      "velocity": 122,
      "chip": "ym2612"
    },
    {
      "channel": 3,
      "note": 61,
      "start": 13.7706,
      "duration": 0.0773,
      "velocity": 119,
      "chip": "ym2612"
    },
    {
      "channel": 1,
      "note": 50,
      "start": 13.8926,
      "duration": 0.2114,
      "velocity": 122,
      "chip": "ym2612"
    },
    {
      "channel": 3,
      "note": 61,
      "start": 13.898,
      "duration": 0.0786,
      "velocity": 127,
      "chip": "ym2612"
    },
    {
      "channel": 5,
      "note": 63,
      "start": 13.9563,
      "duration": 0.2128,
      "velocity": 101,
      "chip": "ym2612"
    },
    {
      "channel": 2,
      "note": 55,
      "start": 14.0215,
      "duration": 0.3391,
      "velocity": 105,
      "chip": "ym2612"
    },
    {
      "channel": 4,
      "note": 51,
      "start": 14.0237,
      "duration": 0.3373,
      "velocity": 105,
      "chip": "ym2612"
    },
    {
      "channel": 0,
      "note": 62,
      "start": 14.1481,
      "duration": 0.2121,
      "velocity": 101,
      "chip": "ym2612"
    },
    {
      "channel": 1,
      "note": 63,
      "start": 14.1498,
      "duration": 0.0824,
      "velocity": 122,
      "chip": "ym2612"
    },
    {
      "channel": 3,
      "note": 61,
      "start": 14.1552,
      "duration": 0.0136,
      "velocity": 119,
      "chip": "ym2612"
    },
    {
      "channel": 3,
      "note": 61,
      "start": 14.2812,
      "duration": 0.0797,
      "velocity": 127,
      "chip": "ym2612"
    },
    {
      "channel": 5,
      "note": 62,
      "start": 14.3409,
      "duration": 0.2128,
      "velocity": 101,
      "chip": "ym2612"
    },
    {
      "channel": 0,
      "note": 60,
      "start": 14.405,
      "duration": 0.0835,
      "velocity": 101,
      "chip": "ym2612"
    },
    {
      "channel": 1,
      "note": 50,
      "start": 14.407,
      "duration": 0.2098,
      "velocity": 122,
      "chip": "ym2612"
    },
    {
      "channel": 2,
      "note": 53,
      "start": 14.4098,
      "duration": 1.6174,
      "velocity": 105,
      "chip": "ym2612"
    },
    {
      "channel": 3,
      "note": 61,
      "start": 14.4153,
      "duration": 0.0737,
      "velocity": 127,
      "chip": "ym2612"
    },
    {
      "channel": 4,
      "note": 50,
      "start": 14.4172,
      "duration": 1.6106,
      "velocity": 105,
      "chip": "ym2612"
    },
    {
      "channel": 0,
      "note": 65,
      "start": 14.5328,
      "duration": 0.0625,
      "velocity": 101,
      "chip": "ym2612"
    },
    {
      "channel": 3,
      "note": 61,
      "start": 14.5383,
      "duration": 0.0151,
      "velocity": 119,
      "chip": "ym2612"
    },
    {
      "channel": 5,
      "note": 60,
      "start": 14.5983,
      "duration": 0.0837,
      "velocity": 101,
      "chip": "ym2612"
    },
    {
      "channel": 0,
      "note": 69,
      "start": 14.661,
      "duration": 0.1053,
      "velocity": 101,
      "chip": "ym2612"
    },
    {
      "channel": 1,
      "note": 62,
      "start": 14.6626,
      "duration": 0.2107,
      "velocity": 122,
      "chip": "ym2612"
    },
    {
      "channel": 3,
      "note": 61,
      "start": 14.6648,
      "duration": 0.0168,
      "velocity": 119,
      "chip": "ym2612"
    },
    {
      "channel": 5,
      "note": 65,
      "start": 14.7268,
      "duration": 0.066,
      "velocity": 101,
      "chip": "ym2612"
    },
    {
      "channel": 0,
      "note": 60,
      "start": 14.7893,
      "duration": 0.0838,
      "velocity": 101,
      "chip": "ym2612"
    },
    {
      "channel": 3,
      "note": 61,
      "start": 14.7924,
      "duration": 0.0812,
      "velocity": 119,
      "chip": "ym2612"
    },
    {
      "channel": 5,
      "note": 69,
      "start": 14.8538,
      "duration": 0.1059,
      "velocity": 101,
      "chip": "ym2612"
    },
    {
      "channel": 0,
      "note": 65,
      "start": 14.9174,
      "duration": 0.0625,
      "velocity": 101,
      "chip": "ym2612"
    },
    {
      "channel": 1,
      "note": 50,
      "start": 14.919,
      "duration": 0.0824,
      "velocity": 122,
      "chip": "ym2612"
    },
    {
      "channel": 3,
      "note": 61,
      "start": 14.9244,
      "duration": 0.0773,
      "velocity": 127,
      "chip": "ym2612"
    },
    {
      "channel": 5,
      "note": 60,
      "start": 14.9822,
      "duration": 0.0842,
      "velocity": 101,
      "chip": "ym2612"
    },
    {
      "channel": 0,
      "note": 69,
      "start": 15.0456,
      "duration": 0.1054,
      "velocity": 101,
      "chip": "ym2612"
    },
    {
      "channel": 1,
      "note": 60,
      "start": 15.0472,
      "duration": 0.0824,
      "velocity": 122,
      "chip": "ym2612"
    },
    {
      "channel": 5,
      "note": 65,
      "start": 15.1115,
      "duration": 0.0691,
      "velocity": 101,
      "chip": "ym2612"
    },
    {
      "channel": 0,
      "note": 60,
      "start": 15.1739,
      "duration": 0.0838,
      "velocity": 101,
      "chip": "ym2612"
    },
    {
      "channel": 3,
      "note": 61,
      "start": 15.1802,
      "duration": 0.0143,
      "velocity": 119,
      "chip": "ym2612"
    },
    {
      "channel": 5,
      "note": 69,
      "start": 15.2388,
      "duration": 0.1055,
      "velocity": 101,
      "chip": "ym2612"
    },
    {
      "channel": 0,
      "note": 65,
      "start": 15.302,
      "duration": 0.0626,
      "velocity": 101,
      "chip": "ym2612"
    },
    {
      "channel": 1,
      "note": 62,
      "start": 15.3037,
      "duration": 0.0824,
      "velocity": 122,
      "chip": "ym2612"
    },
    {
      "channel": 3,
      "note": 61,
      "start": 15.3099,
      "duration": 0.0765,
      "velocity": 127,
      "chip": "ym2612"
    },
    {
      "channel": 5,
      "note": 60,
      "start": 15.3668,
      "duration": 0.0842,
      "velocity": 101,
      "chip": "ym2612"
    },
    {
      "channel": 0,
      "note": 69,
      "start": 15.4302,
      "duration": 0.1053,
      "velocity": 101,
      "chip": "ym2612"
    },
    {
      "channel": 1,
      "note": 48,
      "start": 15.4319,
      "duration": 0.2107,
      "velocity": 122,
      "chip": "ym2612"
    },
    {
      "channel": 3,
      "note": 61,
      "start": 15.4372,
      "duration": 0.0773,
      "velocity": 119,
      "chip": "ym2612"
    },
    {
      "channel": 5,
      "note": 65,
      "start": 15.4948,
      "duration": 0.0718,
      "velocity": 101,
      "chip": "ym2612"
    },
    {
      "channel": 0,
      "note": 60,
      "start": 15.5594,
      "duration": 0.0831,
      "velocity": 101,
      "chip": "ym2612"
    },
    {
      "channel": 3,
      "note": 61,
      "start": 15.5663,
      "duration": 0.0767,
      "velocity": 127,
      "chip": "ym2612"
    },
    {
      "channel": 5,
      "note": 69,
      "start": 15.623,
      "duration": 0.1053,
      "velocity": 101,
      "chip": "ym2612"
    },
    {
      "channel": 0,
      "note": 65,
      "start": 15.6866,
      "duration": 0.0626,
      "velocity": 101,
      "chip": "ym2612"
    },
    {
      "channel": 1,
      "note": 62,
      "start": 15.6883,
      "duration": 0.0824,
      "velocity": 122,
      "chip": "ym2612"
    },
    {
      "channel": 3,
      "note": 61,
      "start": 15.6905,
      "duration": 0.0806,
      "velocity": 127,
      "chip": "ym2612"
    },
    {
      "channel": 5,
      "note": 60,
      "start": 15.7514,
      "duration": 0.0842,
      "velocity": 101,
      "chip": "ym2612"
    },
    {
      "channel": 0,
      "note": 69,
      "start": 15.8148,
      "duration": 0.1053,
      "velocity": 101,
      "chip": "ym2612"
    },
    {
      "channel": 1,
      "note": 62,
      "start": 15.8165,
      "duration": 0.0824,
      "velocity": 122,
      "chip": "ym2612"
    },
    {
      "channel": 3,
      "note": 61,
      "start": 15.8218,
      "duration": 0.0774,
      "velocity": 119,
      "chip": "ym2612"
    },
    {
      "channel": 5,
      "note": 65,
      "start": 15.8802,
      "duration": 0.0712,
      "velocity": 101,
      "chip": "ym2612"
    },
    {
      "channel": 0,
      "note": 60,
      "start": 15.9441,
      "duration": 0.0828,
      "velocity": 101,
      "chip": "ym2612"
    },
    {
      "channel": 1,
      "note": 48,
      "start": 15.9458,
      "duration": 0.2095,
      "velocity": 122,
      "chip": "ym2612"
    },
    {
      "channel": 3,
      "note": 61,
      "start": 15.9512,
      "duration": 0.0764,
      "velocity": 127,
      "chip": "ym2612"
    },
    {
      "channel": 5,
      "note": 69,
      "start": 16.0076,
      "duration": 0.1062,
      "velocity": 101,
      "chip": "ym2612"
    },
    {
      "channel": 0,
      "note": 65,
      "start": 16.0712,
      "duration": 0.0626,
      "velocity": 101,
      "chip": "ym2612"
    },
    {
      "channel": 2,
      "note": 53,
      "start": 16.0744,
      "duration": 0.339,
      "velocity": 105,
      "chip": "ym2612"
    },
    {
      "channel": 4,
      "note": 50,
      "start": 16.0776,
      "duration": 0.3364,
      "velocity": 105,
      "chip": "ym2612"
    },
    {
      "channel": 5,
      "note": 60,
      "start": 16.1365,
      "duration": 0.084,
      "velocity": 101,
      "chip": "ym2612"
    },
    {
      "channel": 0,
      "note": 69,
      "start": 16.1995,
      "duration": 0.1053,
      "velocity": 101,
      "chip": "ym2612"
    },
    {
      "channel": 1,
      "note": 62,
      "start": 16.2011,
      "duration": 0.0824,
      "velocity": 122,
      "chip": "ym2612"
    },
    {
      "channel": 3,
      "note": 61,
      "start": 16.2065,
      "duration": 0.0136,
      "velocity": 119,
      "chip": "ym2612"
    },
    {
      "channel": 5,
      "note": 65,
      "start": 16.2645,
      "duration": 0.0691,
      "velocity": 101,
      "chip": "ym2612"
    },
    {
      "channel": 0,
      "note": 70,
      "start": 16.3278,
      "duration": 1.1313,
      "velocity": 101,
      "chip": "ym2612"
    },
    {
      "channel": 3,
      "note": 61,
      "start": 16.3333,
      "duration": 0.0805,
      "velocity": 127,
      "chip": "ym2612"
    },
    {
      "channel": 5,
      "note": 69,
      "start": 16.3931,
      "duration": 0.105,
      "velocity": 101,
      "chip": "ym2612"
    },
    {
      "channel": 1,
      "note": 49,
      "start": 16.4567,
      "duration": 0.2119,
      "velocity": 122,
      "chip": "ym2612"
    },
    {
      "channel": 2,
      "note": 53,
      "start": 16.4593,
      "duration": 0.9783,
      "velocity": 105,
      "chip": "ym2612"
    },
    {
      "channel": 3,
      "note": 61,
      "start": 16.465,
      "duration": 0.0757,
      "velocity": 127,
      "chip": "ym2612"
    },
    {
      "channel": 4,
      "note": 49,
      "start": 16.4669,
      "duration": 0.9711,
      "velocity": 105,
      "chip": "ym2612"
    },
    {
      "channel": 5,
      "note": 70,
      "start": 16.5211,
      "duration": 1.131,
      "velocity": 101,
      "chip": "ym2612"
    },
    {
      "channel": 3,
      "note": 61,
      "start": 16.5884,
      "duration": 0.0168,
      "velocity": 119,
      "chip": "ym2612"
    },
    {
      "channel": 1,
      "note": 61,
      "start": 16.7127,
      "duration": 0.2118,
      "velocity": 122,
      "chip": "ym2612"
    },
    {
      "channel": 3,
      "note": 61,
      "start": 16.7149,
      "duration": 0.0186,
      "velocity": 119,
      "chip": "ym2612"
    },
    {
      "channel": 3,
      "note": 61,
      "start": 16.8412,
      "duration": 0.0845,
      "velocity": 119,
      "chip": "ym2612"
    },
    {
      "channel": 1,
      "note": 49,
      "start": 16.9687,
      "duration": 0.084,
      "velocity": 122,
      "chip": "ym2612"
    },
    {
      "channel": 3,
      "note": 61,
      "start": 16.9741,
      "duration": 0.079,
      "velocity": 127,
      "chip": "ym2612"
    },
    {
      "channel": 1,
      "note": 60,
      "start": 17.0969,
      "duration": 0.0849,
      "velocity": 122,
      "chip": "ym2612"
    },
    {
      "channel": 3,
      "note": 61,
      "start": 17.2298,
      "duration": 0.016,
      "velocity": 119,
      "chip": "ym2612"
    },
    {
      "channel": 1,
      "note": 61,
      "start": 17.3533,
      "duration": 0.084,
      "velocity": 122,
      "chip": "ym2612"
    },
    {
      "channel": 3,
      "note": 61,
      "start": 17.3596,
      "duration": 0.0782,
      "velocity": 127,
      "chip": "ym2612"
    },
    {
      "channel": 0,
      "note": 70,
      "start": 17.4816,
      "duration": 0.4904,
      "velocity": 101,
      "chip": "ym2612"
    },
    {
      "channel": 1,
      "note": 46,
      "start": 17.4832,
      "duration": 0.2106,
      "velocity": 122,
      "chip": "ym2612"
    },
    {
      "channel": 2,
      "note": 51,
      "start": 17.4849,
      "duration": 0.4667,
      "velocity": 105,
      "chip": "ym2612"
    },
    {
      "channel": 3,
      "note": 76,
      "start": 17.4904,
      "duration": 0.0118,
      "velocity": 112,
      "chip": "ym2612"
    },
    {
      "channel": 4,
      "note": 48,
      "start": 17.4929,
      "duration": 0.4594,
      "velocity": 105,
      "chip": "ym2612"
    },
    {
      "channel": 3,
      "note": 76,
      "start": 17.5463,
      "duration": 0.02,
      "velocity": 112,
      "chip": "ym2612"
    },
    {
      "channel": 3,
      "note": 76,
      "start": 17.6128,
      "duration": 0.0176,
      "velocity": 112,
      "chip": "ym2612"
    },
    {
      "channel": 5,
      "note": 70,
      "start": 17.6756,
      "duration": 0.4896,
      "velocity": 101,
      "chip": "ym2612"
    },
    {
      "channel": 1,
      "note": 60,
      "start": 17.7379,
      "duration": 0.0845,
      "velocity": 122,
      "chip": "ym2612"
    },
    {
      "channel": 1,
      "note": 48,
      "start": 17.8666,
      "duration": 0.0849,
      "velocity": 122,
      "chip": "ym2612"
    },
    {
      "channel": 3,
      "note": 71,
      "start": 17.869,
      "duration": 0.0183,
      "velocity": 112,
      "chip": "ym2612"
    },
    {
      "channel": 0,
      "note": 68,
      "start": 17.9944,
      "duration": 0.4899,
      "velocity": 101,
      "chip": "ym2612"
    },
    {
      "channel": 1,
      "note": 44,
      "start": 17.9961,
      "duration": 0.2105,
      "velocity": 122,
      "chip": "ym2612"
    },
    {
      "channel": 2,
      "note": 49,
      "start": 17.998,
      "duration": 0.4652,
      "velocity": 105,
      "chip": "ym2612"
    },
    {
      "channel": 3,
      "note": 71,
      "start": 18.0001,
      "duration": 0.0149,
      "velocity": 112,
      "chip": "ym2612"
    },
    {
      "channel": 4,
      "note": 46,
      "start": 18.0021,
      "duration": 0.4619,
      "velocity": 105,
      "chip": "ym2612"
    },
    {
      "channel": 3,
      "note": 71,
      "start": 18.0599,
      "duration": 0.0192,
      "velocity": 112,
      "chip": "ym2612"
    },
    {
      "channel": 3,
      "note": 66,
      "start": 18.1258,
      "duration": 0.0176,
      "velocity": 112,
      "chip": "ym2612"
    },
    {
      "channel": 5,
      "note": 68,
      "start": 18.1879,
      "duration": 0.5109,
      "velocity": 101,
      "chip": "ym2612"
    },
    {
      "channel": 1,
      "note": 58,
      "start": 18.2507,
      "duration": 0.0841,
      "velocity": 122,
      "chip": "ym2612"
    },
    {
      "channel": 3,
      "note": 66,
      "start": 18.2529,
      "duration": 0.0185,
      "velocity": 112,
      "chip": "ym2612"
    },
    {
      "channel": 1,
      "note": 46,
      "start": 18.379,
      "duration": 0.0841,
      "velocity": 122,
      "chip": "ym2612"
    },
    {
      "channel": 3,
      "note": 66,
      "start": 18.3812,
      "duration": 0.0185,
      "velocity": 112,
      "chip": "ym2612"
    },
    {
      "channel": 0,
      "note": 67,
      "start": 18.5119,
      "duration": 0.1006,
      "velocity": 99,
      "chip": "ym2612"
    },
    {
      "channel": 1,
      "note": 56,
      "start": 18.5138,
      "duration": 0.7409,
      "velocity": 122,
      "chip": "ym2612"
    },
    {
      "channel": 2,
      "note": 67,
      "start": 18.5192,
      "duration": 0.0722,
      "velocity": 101,
      "chip": "ym2612"
    },
    {
      "channel": 3,
      "note": 61,
      "start": 18.5261,
      "duration": 0.0869,
      "velocity": 127,
      "chip": "ym2612"
    },
    {
      "channel": 4,
      "note": 63,
      "start": 18.5313,
      "duration": 0.0611,
      "velocity": 101,
      "chip": "ym2612"
    },
    {
      "channel": 2,
      "note": 67,
      "start": 18.6571,
      "duration": 0.0632,
      "velocity": 101,
      "chip": "ym2612"
    },
    {
      "channel": 4,
      "note": 63,
      "start": 18.6604,
      "duration": 0.0607,
      "velocity": 101,
      "chip": "ym2612"
    },
    {
      "channel": 5,
      "note": 67,
      "start": 18.7274,
      "duration": 0.0786,
      "velocity": 99,
      "chip": "ym2612"
    },
    {
      "channel": 0,
      "note": 63,
      "start": 18.785,
      "duration": 0.0838,
      "velocity": 99,
      "chip": "ym2612"
    },
    {
      "channel": 2,
      "note": 67,
      "start": 18.787,
      "duration": 0.0607,
      "velocity": 101,
      "chip": "ym2612"
    },
    {
      "channel": 3,
      "note": 61,
      "start": 18.7932,
      "duration": 0.0125,
      "velocity": 119,
      "chip": "ym2612"
    },
    {
      "channel": 4,
      "note": 63,
      "start": 18.795,
      "duration": 0.0535,
      "velocity": 101,
      "chip": "ym2612"
    },
    {
      "channel": 0,
      "note": 60,
      "start": 18.9132,
      "duration": 1.1104,
      "velocity": 99,
      "chip": "ym2612"
    },
    {
      "channel": 2,
      "note": 67,
      "start": 18.9152,
      "duration": 0.0608,
      "velocity": 101,
      "chip": "ym2612"
    },
    {
      "channel": 4,
      "note": 63,
      "start": 18.9176,
      "duration": 0.0591,
      "velocity": 101,
      "chip": "ym2612"
    },
    {
      "channel": 5,
      "note": 63,
      "start": 18.9785,
      "duration": 0.0839,
      "velocity": 99,
      "chip": "ym2612"
    },
    {
      "channel": 3,
      "note": 61,
      "start": 19.0428,
      "duration": 0.0192,
      "velocity": 119,
      "chip": "ym2612"
    },
    {
      "channel": 5,
      "note": 60,
      "start": 19.1064,
      "duration": 1.1097,
      "velocity": 99,
      "chip": "ym2612"
    },
    {
      "channel": 1,
      "note": 56,
      "start": 19.2978,
      "duration": 0.9815,
      "velocity": 122,
      "chip": "ym2612"
    },
    {
      "channel": 2,
      "note": 67,
      "start": 19.2995,
      "duration": 0.0611,
      "velocity": 101,
      "chip": "ym2612"
    },
    {
      "channel": 3,
      "note": 61,
      "start": 19.3049,
      "duration": 0.0772,
      "velocity": 127,
      "chip": "ym2612"
    },
    {
      "channel": 4,
      "note": 63,
      "start": 19.3066,
      "duration": 0.0543,
      "velocity": 101,
      "chip": "ym2612"
    },
    {
      "channel": 2,
      "note": 67,
      "start": 19.4272,
      "duration": 0.0622,
      "velocity": 101,
      "chip": "ym2612"
    },
    {
      "channel": 4,
      "note": 63,
      "start": 19.4296,
      "duration": 0.0606,
      "velocity": 101,
      "chip": "ym2612"
    },
    {
      "channel": 2,
      "note": 67,
      "start": 19.5545,
      "duration": 0.0624,
      "velocity": 101,
      "chip": "ym2612"
    },
    {
      "channel": 3,
      "note": 61,
      "start": 19.5606,
      "duration": 0.0151,
      "velocity": 119,
      "chip": "ym2612"
    },
    {
      "channel": 4,
      "note": 63,
      "start": 19.5625,
      "duration": 0.0552,
      "velocity": 101,
      "chip": "ym2612"
    },
    {
      "channel": 2,
      "note": 67,
      "start": 19.6828,
      "duration": 0.0624,
      "velocity": 101,
      "chip": "ym2612"
    },
    {
      "channel": 4,
      "note": 63,
      "start": 19.6852,
      "duration": 0.0607,
      "velocity": 101,
      "chip": "ym2612"
    },
    {
      "channel": 3,
      "note": 61,
      "start": 19.8113,
      "duration": 0.02,
      "velocity": 119,
      "chip": "ym2612"
    },
    {
      "channel": 0,
      "note": 60,
      "start": 20.0671,
      "duration": 0.0839,
      "velocity": 99,
      "chip": "ym2612"
    },
    {
      "channel": 3,
      "note": 61,
      "start": 20.0727,
      "duration": 0.0787,
      "velocity": 127,
      "chip": "ym2612"
    },
    {
      "channel": 0,
      "note": 67,
      "start": 20.1952,
      "duration": 0.3403,
      "velocity": 99,
      "chip": "ym2612"
    },
    {
      "channel": 5,
      "note": 60,
      "start": 20.2616,
      "duration": 0.0827,
      "velocity": 99,
      "chip": "ym2612"
    },
    {
      "channel": 1,
      "note": 56,
      "start": 20.3234,
      "duration": 0.2123,
      "velocity": 122,
      "chip": "ym2612"
    },
    {
      "channel": 2,
      "note": 67,
      "start": 20.326,
      "duration": 0.21,
      "velocity": 101,
      "chip": "ym2612"
    },
    {
      "channel": 3,
      "note": 61,
      "start": 20.3312,
      "duration": 0.0765,
      "velocity": 127,
      "chip": "ym2612"
    },
    {
      "channel": 4,
      "note": 63,
      "start": 20.333,
      "duration": 0.2038,
      "velocity": 101,
      "chip": "ym2612"
    },
    {
      "channel": 5,
      "note": 67,
      "start": 20.388,
      "duration": 0.3408,
      "velocity": 99,
      "chip": "ym2612"
    },
    {
      "channel": 0,
      "note": 65,
      "start": 20.5799,
      "duration": 0.7249,
      "velocity": 99,
      "chip": "ym2612"
    },
    {
      "channel": 1,
      "note": 55,
      "start": 20.5816,
      "duration": 0.7235,
      "velocity": 122,
      "chip": "ym2612"
    },
    {
      "channel": 2,
      "note": 65,
      "start": 20.5839,
      "duration": 0.0588,
      "velocity": 101,
      "chip": "ym2612"
    },
    {
      "channel": 3,
      "note": 61,
      "start": 20.5895,
      "duration": 0.0747,
      "velocity": 127,
      "chip": "ym2612"
    },
    {
      "channel": 4,
      "note": 62,
      "start": 20.5924,
      "duration": 0.0506,
      "velocity": 101,
      "chip": "ym2612"
    },
    {
      "channel": 2,
      "note": 65,
      "start": 20.7093,
      "duration": 0.0616,
      "velocity": 101,
      "chip": "ym2612"
    },
    {
      "channel": 4,
      "note": 62,
      "start": 20.7117,
      "duration": 0.0599,
      "velocity": 101,
      "chip": "ym2612"
    },
    {
      "channel": 5,
      "note": 65,
      "start": 20.7733,
      "duration": 0.7248,
      "velocity": 99,
      "chip": "ym2612"
    },
    {
      "channel": 2,
      "note": 65,
      "start": 20.8366,
      "duration": 0.0625,
      "velocity": 101,
      "chip": "ym2612"
    },
    {
      "channel": 3,
      "note": 61,
      "start": 20.8428,
      "duration": 0.0142,
      "velocity": 119,
      "chip": "ym2612"
    },
    {
      "channel": 4,
      "note": 62,
      "start": 20.8447,
      "duration": 0.0551,
      "velocity": 101,
      "chip": "ym2612"
    },
    {
      "channel": 2,
      "note": 65,
      "start": 20.9648,
      "duration": 0.0627,
      "velocity": 101,
      "chip": "ym2612"
    },
    {
      "channel": 4,
      "note": 62,
      "start": 20.9673,
      "duration": 0.061,
      "velocity": 101,
      "chip": "ym2612"
    },
    {
      "channel": 3,
      "note": 61,
      "start": 21.0942,
      "duration": 0.0192,
      "velocity": 119,
      "chip": "ym2612"
    },
    {
      "channel": 0,
      "note": 58,
      "start": 21.3491,
      "duration": 0.725,
      "velocity": 99,
      "chip": "ym2612"
    },
    {
      "channel": 1,
      "note": 55,
      "start": 21.3508,
      "duration": 0.9802,
      "velocity": 122,
      "chip": "ym2612"
    },
    {
      "channel": 2,
      "note": 65,
      "start": 21.3525,
      "duration": 0.0594,
      "velocity": 101,
      "chip": "ym2612"
    },
    {
      "channel": 3,
      "note": 61,
      "start": 21.3579,
      "duration": 0.0755,
      "velocity": 127,
      "chip": "ym2612"
    },
    {
      "channel": 4,
      "note": 62,
      "start": 21.3605,
      "duration": 0.0517,
      "velocity": 101,
      "chip": "ym2612"
    },
    {
      "channel": 2,
      "note": 65,
      "start": 21.4777,
      "duration": 0.0624,
      "velocity": 101,
      "chip": "ym2612"
    },
    {
      "channel": 4,
      "note": 62,
      "start": 21.4801,
      "duration": 0.0607,
      "velocity": 101,
      "chip": "ym2612"
    },
    {
      "channel": 5,
      "note": 58,
      "start": 21.5433,
      "duration": 0.724,
      "velocity": 99,
      "chip": "ym2612"
    },
    {
      "channel": 2,
      "note": 65,
      "start": 21.6059,
      "duration": 0.0624,
      "velocity": 101,
      "chip": "ym2612"
    },
    {
      "channel": 3,
      "note": 61,
      "start": 21.612,
      "duration": 0.0146,
      "velocity": 119,
      "chip": "ym2612"
    },
    {
      "channel": 4,
      "note": 62,
      "start": 21.6138,
      "duration": 0.0552,
      "velocity": 101,
      "chip": "ym2612"
    },
    {
      "channel": 2,
      "note": 65,
      "start": 21.7341,
      "duration": 0.0625,
      "velocity": 101,
      "chip": "ym2612"
    },
    {
      "channel": 4,
      "note": 62,
      "start": 21.7365,
      "duration": 0.0608,
      "velocity": 101,
      "chip": "ym2612"
    },
    {
      "channel": 3,
      "note": 61,
      "start": 21.8625,
      "duration": 0.0201,
      "velocity": 119,
      "chip": "ym2612"
    },
    {
      "channel": 0,
      "note": 55,
      "start": 22.1184,
      "duration": 0.0838,
      "velocity": 99,
      "chip": "ym2612"
    },
    {
      "channel": 3,
      "note": 61,
      "start": 22.1241,
      "duration": 0.0787,
      "velocity": 127,
      "chip": "ym2612"
    },
    {
      "channel": 0,
      "note": 58,
      "start": 22.2465,
      "duration": 0.0843,
      "velocity": 99,
      "chip": "ym2612"
    },
    {
      "channel": 5,
      "note": 55,
      "start": 22.3116,
      "duration": 0.084,
      "velocity": 99,
      "chip": "ym2612"
    },
    {
      "channel": 0,
      "note": 62,
      "start": 22.3756,
      "duration": 0.0835,
      "velocity": 99,
      "chip": "ym2612"
    },
    {
      "channel": 1,
      "note": 55,
      "start": 22.3773,
      "duration": 0.2098,
      "velocity": 122,
      "chip": "ym2612"
    },
    {
      "channel": 2,
      "note": 65,
      "start": 22.379,
      "duration": 0.2083,
      "velocity": 101,
      "chip": "ym2612"
    },
    {
      "channel": 3,
      "note": 61,
      "start": 22.3842,
      "duration": 0.0754,
      "velocity": 127,
      "chip": "ym2612"
    },
    {
      "channel": 4,
      "note": 62,
      "start": 22.3859,
      "duration": 0.2022,
      "velocity": 101,
      "chip": "ym2612"
    },
    {
      "channel": 5,
      "note": 58,
      "start": 22.4393,
      "duration": 0.0844,
      "velocity": 99,
      "chip": "ym2612"
    },
    {
      "channel": 0,
      "note": 65,
      "start": 22.5029,
      "duration": 0.084,
      "velocity": 99,
      "chip": "ym2612"
    },
    {
      "channel": 5,
      "note": 62,
      "start": 22.568,
      "duration": 0.084,
      "velocity": 99,
      "chip": "ym2612"
    },
    {
      "channel": 0,
      "note": 65,
      "start": 22.6321,
      "duration": 0.3394,
      "velocity": 99,
      "chip": "ym2612"
    },
    {
      "channel": 1,
      "note": 54,
      "start": 22.634,
      "duration": 0.7223,
      "velocity": 122,
      "chip": "ym2612"
    },
    {
      "channel": 2,
      "note": 65,
      "start": 22.6362,
      "duration": 0.0577,
      "velocity": 101,
      "chip": "ym2612"
    },
    {
      "channel": 3,
      "note": 61,
      "start": 22.6426,
      "duration": 0.0729,
      "velocity": 127,
      "chip": "ym2612"
    },
    {
      "channel": 4,
      "note": 61,
      "start": 22.6447,
      "duration": 0.0495,
      "velocity": 101,
      "chip": "ym2612"
    },
    {
      "channel": 5,
      "note": 65,
      "start": 22.6959,
      "duration": 0.0842,
      "velocity": 99,
      "chip": "ym2612"
    },
    {
      "channel": 2,
      "note": 65,
      "start": 22.7605,
      "duration": 0.0616,
      "velocity": 101,
      "chip": "ym2612"
    },
    {
      "channel": 4,
      "note": 61,
      "start": 22.763,
      "duration": 0.0599,
      "velocity": 101,
      "chip": "ym2612"
    },
    {
      "channel": 5,
      "note": 65,
      "start": 22.8246,
      "duration": 0.3404,
      "velocity": 99,
      "chip": "ym2612"
    },
    {
      "channel": 2,
      "note": 65,
      "start": 22.8879,
      "duration": 0.0624,
      "velocity": 101,
      "chip": "ym2612"
    },
    {
      "channel": 3,
      "note": 61,
      "start": 22.894,
      "duration": 0.0151,
      "velocity": 119,
      "chip": "ym2612"
    },
    {
      "channel": 4,
      "note": 61,
      "start": 22.8959,
      "duration": 0.0552,
      "velocity": 101,
      "chip": "ym2612"
    },
    {
      "channel": 0,
      "note": 61,
      "start": 23.0158,
      "duration": 0.3403,
      "velocity": 99,
      "chip": "ym2612"
    },
    {
      "channel": 2,
      "note": 65,
      "start": 23.0178,
      "duration": 0.0607,
      "velocity": 101,
      "chip": "ym2612"
    },
    {
      "channel": 4,
      "note": 61,
      "start": 23.0202,
      "duration": 0.059,
      "velocity": 101,
      "chip": "ym2612"
    },
    {
      "channel": 3,
      "note": 61,
      "start": 23.1447,
      "duration": 0.02,
      "velocity": 119,
      "chip": "ym2612"
    },
    {
      "channel": 5,
      "note": 61,
      "start": 23.2099,
      "duration": 0.3395,
      "velocity": 99,
      "chip": "ym2612"
    },
    {
      "channel": 0,
      "note": 58,
      "start": 23.4013,
      "duration": 0.3394,
      "velocity": 99,
      "chip": "ym2612"
    },
    {
      "channel": 1,
      "note": 54,
      "start": 23.4029,
      "duration": 0.9791,
      "velocity": 122,
      "chip": "ym2612"
    },
    {
      "channel": 2,
      "note": 65,
      "start": 23.4046,
      "duration": 0.0586,
      "velocity": 101,
      "chip": "ym2612"
    },
    {
      "channel": 3,
      "note": 61,
      "start": 23.4109,
      "duration": 0.0739,
      "velocity": 127,
      "chip": "ym2612"
    },
    {
      "channel": 4,
      "note": 61,
      "start": 23.4125,
      "duration": 0.051,
      "velocity": 101,
      "chip": "ym2612"
    },
    {
      "channel": 2,
      "note": 65,
      "start": 23.529,
      "duration": 0.0632,
      "velocity": 101,
      "chip": "ym2612"
    },
    {
      "channel": 4,
      "note": 61,
      "start": 23.5314,
      "duration": 0.0616,
      "velocity": 101,
      "chip": "ym2612"
    },
    {
      "channel": 5,
      "note": 58,
      "start": 23.5947,
      "duration": 0.3407,
      "velocity": 99,
      "chip": "ym2612"
    },
    {
      "channel": 2,
      "note": 65,
      "start": 23.6571,
      "duration": 0.0625,
      "velocity": 101,
      "chip": "ym2612"
    },
    {
      "channel": 3,
      "note": 61,
      "start": 23.6633,
      "duration": 0.0142,
      "velocity": 119,
      "chip": "ym2612"
    },
    {
      "channel": 4,
      "note": 61,
      "start": 23.6652,
      "duration": 0.0551,
      "velocity": 101,
      "chip": "ym2612"
    },
    {
      "channel": 0,
      "note": 54,
      "start": 23.785,
      "duration": 0.3408,
      "velocity": 99,
      "chip": "ym2612"
    },
    {
      "channel": 2,
      "note": 65,
      "start": 23.7871,
      "duration": 0.0607,
      "velocity": 101,
      "chip": "ym2612"
    },
    {
      "channel": 4,
      "note": 61,
      "start": 23.7895,
      "duration": 0.059,
      "velocity": 101,
      "chip": "ym2612"
    },
    {
      "channel": 3,
      "note": 61,
      "start": 23.9138,
      "duration": 0.0212,
      "velocity": 119,
      "chip": "ym2612"
    },
    {
      "channel": 5,
      "note": 54,
      "start": 23.9783,
      "duration": 0.3404,
      "velocity": 99,
      "chip": "ym2612"
    },
    {
      "channel": 0,
      "note": 58,
      "start": 24.1702,
      "duration": 0.2116,
      "velocity": 99,
      "chip": "ym2612"
    },
    {
      "channel": 3,
      "note": 61,
      "start": 24.1767,
      "duration": 0.0773,
      "velocity": 127,
      "chip": "ym2612"
    },
    {
      "channel": 5,
      "note": 58,
      "start": 24.3629,
      "duration": 0.213,
      "velocity": 99,
      "chip": "ym2612"
    },
    {
      "channel": 0,
      "note": 61,
      "start": 24.4269,
      "duration": 0.2113,
      "velocity": 99,
      "chip": "ym2612"
    },
    {
      "channel": 1,
      "note": 54,
      "start": 24.4285,
      "duration": 0.2098,
      "velocity": 122,
      "chip": "ym2612"
    },
    {
      "channel": 2,
      "note": 65,
      "start": 24.4302,
      "duration": 0.2083,
      "velocity": 101,
      "chip": "ym2612"
    },
    {
      "channel": 3,
      "note": 61,
      "start": 24.4355,
      "duration": 0.0749,
      "velocity": 127,
      "chip": "ym2612"
    },
    {
      "channel": 4,
      "note": 61,
      "start": 24.4372,
      "duration": 0.2021,
      "velocity": 101,
      "chip": "ym2612"
    },
    {
      "channel": 5,
      "note": 61,
      "start": 24.6193,
      "duration": 0.2122,
      "velocity": 99,
      "chip": "ym2612"
    },
    {
      "channel": 0,
      "note": 63,
      "start": 24.6825,
      "duration": 0.725,
      "velocity": 99,
      "chip": "ym2612"
    },
    {
      "channel": 1,
      "note": 53,
      "start": 24.6841,
      "duration": 0.7236,
      "velocity": 122,
      "chip": "ym2612"
    },
    {
      "channel": 2,
      "note": 63,
      "start": 24.6862,
      "duration": 0.059,
      "velocity": 101,
      "chip": "ym2612"
    },
    {
      "channel": 3,
      "note": 61,
      "start": 24.6928,
      "duration": 0.074,
      "velocity": 127,
      "chip": "ym2612"
    },
    {
      "channel": 4,
      "note": 60,
      "start": 24.6948,
      "duration": 0.0507,
      "velocity": 101,
      "chip": "ym2612"
    },
    {
      "channel": 2,
      "note": 63,
      "start": 24.811,
      "duration": 0.0624,
      "velocity": 101,
      "chip": "ym2612"
    },
    {
      "channel": 4,
      "note": 60,
      "start": 24.8135,
      "duration": 0.0607,
      "velocity": 101,
      "chip": "ym2612"
    },
    {
      "channel": 5,
      "note": 63,
      "start": 24.8768,
      "duration": 0.7239,
      "velocity": 99,
      "chip": "ym2612"
    },
    {
      "channel": 2,
      "note": 63,
      "start": 24.9397,
      "duration": 0.0619,
      "velocity": 101,
      "chip": "ym2612"
    },
    {
      "channel": 3,
      "note": 61,
      "start": 24.9459,
      "duration": 0.0141,
      "velocity": 119,
      "chip": "ym2612"
    },
    {
      "channel": 4,
      "note": 60,
      "start": 24.9477,
      "duration": 0.0546,
      "velocity": 101,
      "chip": "ym2612"
    },
    {
      "channel": 2,
      "note": 63,
      "start": 25.0674,
      "duration": 0.0624,
      "velocity": 101,
      "chip": "ym2612"
    },
    {
      "channel": 4,
      "note": 60,
      "start": 25.0699,
      "duration": 0.0607,
      "velocity": 101,
      "chip": "ym2612"
    },
    {
      "channel": 3,
      "note": 61,
      "start": 25.1992,
      "duration": 0.0805,
      "velocity": 127,
      "chip": "ym2612"
    },
    {
      "channel": 0,
      "note": 62,
      "start": 25.4517,
      "duration": 0.9814,
      "velocity": 99,
      "chip": "ym2612"
    },
    {
      "channel": 1,
      "note": 55,
      "start": 25.4534,
      "duration": 0.9799,
      "velocity": 122,
      "chip": "ym2612"
    },
    {
      "channel": 2,
      "note": 65,
      "start": 25.4551,
      "duration": 0.0594,
      "velocity": 101,
      "chip": "ym2612"
    },
    {
      "channel": 3,
      "note": 61,
      "start": 25.4612,
      "duration": 0.0748,
      "velocity": 127,
      "chip": "ym2612"
    },
    {
      "channel": 4,
      "note": 62,
      "start": 25.4629,
      "duration": 0.0519,
      "velocity": 101,
      "chip": "ym2612"
    },
    {
      "channel": 2,
      "note": 65,
      "start": 25.5802,
      "duration": 0.0625,
      "velocity": 101,
      "chip": "ym2612"
    },
    {
      "channel": 4,
      "note": 62,
      "start": 25.5827,
      "duration": 0.0608,
      "velocity": 101,
      "chip": "ym2612"
    },
    {
      "channel": 5,
      "note": 62,
      "start": 25.6452,
      "duration": 0.9815,
      "velocity": 99,
      "chip": "ym2612"
    },
    {
      "channel": 2,
      "note": 65,
      "start": 25.7094,
      "duration": 0.0615,
      "velocity": 101,
      "chip": "ym2612"
    },
    {
      "channel": 3,
      "note": 61,
      "start": 25.7148,
      "duration": 0.014,
      "velocity": 119,
      "chip": "ym2612"
    },
    {
      "channel": 4,
      "note": 62,
      "start": 25.7166,
      "duration": 0.055,
      "velocity": 101,
      "chip": "ym2612"
    },
    {
      "channel": 2,
      "note": 65,
      "start": 25.8367,
      "duration": 0.0625,
      "velocity": 101,
      "chip": "ym2612"
    },
    {
      "channel": 4,
      "note": 62,
      "start": 25.8391,
      "duration": 0.0607,
      "velocity": 101,
      "chip": "ym2612"
    },
    {
      "channel": 3,
      "note": 61,
      "start": 25.9684,
      "duration": 0.0805,
      "velocity": 127,
      "chip": "ym2612"
    },
    {
      "channel": 3,
      "note": 61,
      "start": 26.2217,
      "duration": 0.0837,
      "velocity": 127,
      "chip": "ym2612"
    },
    {
      "channel": 3,
      "note": 61,
      "start": 26.3498,
      "duration": 0.0839,
      "velocity": 127,
      "chip": "ym2612"
    },
    {
      "channel": 0,
      "note": 65,
      "start": 26.4786,
      "duration": 0.211,
      "velocity": 99,
      "chip": "ym2612"
    },
    {
      "channel": 1,
      "note": 55,
      "start": 26.4802,
      "duration": 0.2095,
      "velocity": 122,
      "chip": "ym2612"
    },
    {
      "channel": 2,
      "note": 65,
      "start": 26.4819,
      "duration": 0.208,
      "velocity": 101,
      "chip": "ym2612"
    },
    {
      "channel": 3,
      "note": 61,
      "start": 26.4872,
      "duration": 0.0744,
      "velocity": 127,
      "chip": "ym2612"
    },
    {
      "channel": 4,
      "note": 62,
      "start": 26.4889,
      "duration": 0.2018,
      "velocity": 101,
      "chip": "ym2612"
    },
    {
      "channel": 5,
      "note": 65,
      "start": 26.6706,
      "duration": 0.2122,
      "velocity": 99,
      "chip": "ym2612"
    },
    {
      "channel": 0,
      "note": 67,
      "start": 26.7338,
      "duration": 1.4941,
      "velocity": 99,
      "chip": "ym2612"
    },
    {
      "channel": 1,
      "note": 56,
      "start": 26.7358,
      "duration": 0.7235,
      "velocity": 122,
      "chip": "ym2612"
    },
    {
      "channel": 2,
      "note": 67,
      "start": 26.7379,
      "duration": 0.0586,
      "velocity": 101,
      "chip": "ym2612"
    },
    {
      "channel": 3,
      "note": 61,
      "start": 26.7447,
      "duration": 0.0734,
      "velocity": 127,
      "chip": "ym2612"
    },
    {
      "channel": 4,
      "note": 63,
      "start": 26.7466,
      "duration": 0.0502,
      "velocity": 101,
      "chip": "ym2612"
    },
    {
      "channel": 2,
      "note": 67,
      "start": 26.8623,
      "duration": 0.0633,
      "velocity": 101,
      "chip": "ym2612"
    },
    {
      "channel": 4,
      "note": 63,
      "start": 26.8648,
      "duration": 0.0616,
      "velocity": 101,
      "chip": "ym2612"
    },
    {
      "channel": 5,
      "note": 67,
      "start": 26.9281,
      "duration": 1.4932,
      "velocity": 99,
      "chip": "ym2612"
    },
    {
      "channel": 2,
      "note": 67,
      "start": 26.9905,
      "duration": 0.0624,
      "velocity": 101,
      "chip": "ym2612"
    },
    {
      "channel": 3,
      "note": 61,
      "start": 26.9966,
      "duration": 0.0146,
      "velocity": 119,
      "chip": "ym2612"
    },
    {
      "channel": 4,
      "note": 63,
      "start": 26.9985,
      "duration": 0.0552,
      "velocity": 101,
      "chip": "ym2612"
    },
    {
      "channel": 2,
      "note": 67,
      "start": 27.1187,
      "duration": 0.0624,
      "velocity": 101,
      "chip": "ym2612"
    },
    {
      "channel": 4,
      "note": 63,
      "start": 27.1212,
      "duration": 0.0607,
      "velocity": 101,
      "chip": "ym2612"
    },
    {
      "channel": 3,
      "note": 61,
      "start": 27.2472,
      "duration": 0.0201,
      "velocity": 119,
      "chip": "ym2612"
    },
    {
      "channel": 1,
      "note": 56,
      "start": 27.5031,
      "duration": 0.9814,
      "velocity": 122,
      "chip": "ym2612"
    },
    {
      "channel": 2,
      "note": 67,
      "start": 27.5047,
      "duration": 0.0611,
      "velocity": 101,
      "chip": "ym2612"
    },
    {
      "channel": 3,
      "note": 61,
      "start": 27.511,
      "duration": 0.0763,
      "velocity": 127,
      "chip": "ym2612"
    },
    {
      "channel": 4,
      "note": 63,
      "start": 27.5127,
      "duration": 0.0534,
      "velocity": 101,
      "chip": "ym2612"
    },
    {
      "channel": 2,
      "note": 67,
      "start": 27.6315,
      "duration": 0.0625,
      "velocity": 101,
      "chip": "ym2612"
    },
    {
      "channel": 4,
      "note": 63,
      "start": 27.634,
      "duration": 0.0607,
      "velocity": 101,
      "chip": "ym2612"
    },
    {
      "channel": 2,
      "note": 67,
      "start": 27.7606,
      "duration": 0.0616,
      "velocity": 101,
      "chip": "ym2612"
    },
    {
      "channel": 3,
      "note": 61,
      "start": 27.7659,
      "duration": 0.0145,
      "velocity": 119,
      "chip": "ym2612"
    },
    {
      "channel": 4,
      "note": 63,
      "start": 27.7678,
      "duration": 0.0551,
      "velocity": 101,
      "chip": "ym2612"
    },
    {
      "channel": 2,
      "note": 67,
      "start": 27.888,
      "duration": 0.0624,
      "velocity": 101,
      "chip": "ym2612"
    },
    {
      "channel": 4,
      "note": 63,
      "start": 27.8904,
      "duration": 0.0607,
      "velocity": 101,
      "chip": "ym2612"
    },
    {
      "channel": 3,
      "note": 61,
      "start": 28.0164,
      "duration": 0.02,
      "velocity": 119,
      "chip": "ym2612"
    },
    {
      "channel": 0,
      "note": 72,
      "start": 28.2723,
      "duration": 0.4686,
      "velocity": 99,
      "chip": "ym2612"
    },
    {
      "channel": 3,
      "note": 61,
      "start": 28.2788,
      "duration": 0.0778,
      "velocity": 127,
      "chip": "ym2612"
    },
    {
      "channel": 5,
      "note": 72,
      "start": 28.4655,
      "duration": 0.4686,
      "velocity": 99,
      "chip": "ym2612"
    },
    {
      "channel": 1,
      "note": 56,
      "start": 28.5287,
      "duration": 0.2123,
      "velocity": 122,
      "chip": "ym2612"
    },
    {
      "channel": 2,
      "note": 67,
      "start": 28.5304,
      "duration": 0.211,
      "velocity": 101,
      "chip": "ym2612"
    },
    {
      "channel": 3,
      "note": 61,
      "start": 28.5356,
      "duration": 0.0773,
      "velocity": 127,
      "chip": "ym2612"
    },
    {
      "channel": 4,
      "note": 63,
      "start": 28.5374,
      "duration": 0.2056,
      "velocity": 101,
      "chip": "ym2612"
    },
    {
      "channel": 0,
      "note": 73,
      "start": 28.7851,
      "duration": 0.0839,
      "velocity": 99,
      "chip": "ym2612"
    },
    {
      "channel": 1,
      "note": 55,
      "start": 28.7868,
      "duration": 0.7234,
      "velocity": 122,
      "chip": "ym2612"
    },
    {
      "channel": 2,
      "note": 65,
      "start": 28.7891,
      "duration": 0.0595,
      "velocity": 101,
      "chip": "ym2612"
    },
    {
      "channel": 3,
      "note": 61,
      "start": 28.7955,
      "duration": 0.074,
      "velocity": 127,
      "chip": "ym2612"
    },
    {
      "channel": 4,
      "note": 62,
      "start": 28.7976,
      "duration": 0.0513,
      "velocity": 101,
      "chip": "ym2612"
    },
    {
      "channel": 0,
      "note": 74,
      "start": 28.8928,
      "duration": 0.6387,
      "velocity": 99,
      "chip": "ym2612"
    },
    {
      "channel": 2,
      "note": 65,
      "start": 28.9136,
      "duration": 0.0624,
      "velocity": 101,
      "chip": "ym2612"
    },
    {
      "channel": 4,
      "note": 62,
      "start": 28.9161,
      "duration": 0.0607,
      "velocity": 101,
      "chip": "ym2612"
    },
    {
      "channel": 5,
      "note": 73,
      "start": 28.9785,
      "duration": 0.084,
      "velocity": 99,
      "chip": "ym2612"
    },
    {
      "channel": 2,
      "note": 65,
      "start": 29.0426,
      "duration": 0.0617,
      "velocity": 101,
      "chip": "ym2612"
    },
    {
      "channel": 3,
      "note": 61,
      "start": 29.048,
      "duration": 0.0142,
      "velocity": 119,
      "chip": "ym2612"
    },
    {
      "channel": 4,
      "note": 62,
      "start": 29.0498,
      "duration": 0.0552,
      "velocity": 101,
      "chip": "ym2612"
    },
    {
      "channel": 5,
      "note": 74,
      "start": 29.0854,
      "duration": 0.64,
      "velocity": 99,
      "chip": "ym2612"
    },
    {
      "channel": 2,
      "note": 65,
      "start": 29.1701,
      "duration": 0.0624,
      "velocity": 101,
      "chip": "ym2612"
    },
    {
      "channel": 4,
      "note": 62,
      "start": 29.1725,
      "duration": 0.0607,
      "velocity": 101,
      "chip": "ym2612"
    },
    {
      "channel": 3,
      "note": 61,
      "start": 29.2986,
      "duration": 0.02,
      "velocity": 119,
      "chip": "ym2612"
    },
    {
      "channel": 0,
      "note": 70,
      "start": 29.5544,
      "duration": 0.7249,
      "velocity": 99,
      "chip": "ym2612"
    },
    {
      "channel": 1,
      "note": 55,
      "start": 29.5561,
      "duration": 0.9798,
      "velocity": 122,
      "chip": "ym2612"
    },
    {
      "channel": 2,
      "note": 65,
      "start": 29.5578,
      "duration": 0.0599,
      "velocity": 101,
      "chip": "ym2612"
    },
    {
      "channel": 3,
      "note": 61,
      "start": 29.564,
      "duration": 0.0746,
      "velocity": 127,
      "chip": "ym2612"
    },
    {
      "channel": 4,
      "note": 62,
      "start": 29.5657,
      "duration": 0.0523,
      "velocity": 101,
      "chip": "ym2612"
    },
    {
      "channel": 2,
      "note": 65,
      "start": 29.6828,
      "duration": 0.0624,
      "velocity": 101,
      "chip": "ym2612"
    },
    {
      "channel": 4,
      "note": 62,
      "start": 29.6853,
      "duration": 0.0607,
      "velocity": 101,
      "chip": "ym2612"
    },
    {
      "channel": 5,
      "note": 70,
      "start": 29.7477,
      "duration": 0.7248,
      "velocity": 99,
      "chip": "ym2612"
    },
    {
      "channel": 2,
      "note": 65,
      "start": 29.8111,
      "duration": 0.0624,
      "velocity": 101,
      "chip": "ym2612"
    },
    {
      "channel": 3,
      "note": 61,
      "start": 29.8164,
      "duration": 0.015,
      "velocity": 119,
      "chip": "ym2612"
    },
    {
      "channel": 4,
      "note": 62,
      "start": 29.8182,
      "duration": 0.0561,
      "velocity": 101,
      "chip": "ym2612"
    },
    {
      "channel": 2,
      "note": 65,
      "start": 29.9393,
      "duration": 0.0624,
      "velocity": 101,
      "chip": "ym2612"
    },
    {
      "channel": 4,
      "note": 62,
      "start": 29.9426,
      "duration": 0.0598,
      "velocity": 101,
      "chip": "ym2612"
    },
    {
      "channel": 3,
      "note": 61,
      "start": 30.0678,
      "duration": 0.0201,
      "velocity": 119,
      "chip": "ym2612"
    },
    {
      "channel": 0,
      "note": 67,
      "start": 30.3236,
      "duration": 0.4689,
      "velocity": 99,
      "chip": "ym2612"
    },
    {
      "channel": 3,
      "note": 61,
      "start": 30.3301,
      "duration": 0.0778,
      "velocity": 127,
      "chip": "ym2612"
    },
    {
      "channel": 5,
      "note": 67,
      "start": 30.5168,
      "duration": 0.4686,
      "velocity": 99,
      "chip": "ym2612"
    },
    {
      "channel": 1,
      "note": 55,
      "start": 30.58,
      "duration": 0.2127,
      "velocity": 122,
      "chip": "ym2612"
    },
    {
      "channel": 2,
      "note": 65,
      "start": 30.5817,
      "duration": 0.2112,
      "velocity": 101,
      "chip": "ym2612"
    },
    {
      "channel": 3,
      "note": 61,
      "start": 30.587,
      "duration": 0.0773,
      "velocity": 127,
      "chip": "ym2612"
    },
    {
      "channel": 4,
      "note": 62,
      "start": 30.5887,
      "duration": 0.205,
      "velocity": 101,
      "chip": "ym2612"
    },
    {
      "channel": 0,
      "note": 68,
      "start": 30.8364,
      "duration": 0.619,
      "velocity": 99,
      "chip": "ym2612"
    },
    {
      "channel": 1,
      "note": 53,
      "start": 30.8384,
      "duration": 0.7248,
      "velocity": 122,
      "chip": "ym2612"
    },
    {
      "channel": 2,
      "note": 63,
      "start": 30.8407,
      "duration": 0.0585,
      "velocity": 101,
      "chip": "ym2612"
    },
    {
      "channel": 3,
      "note": 61,
      "start": 30.8471,
      "duration": 0.0742,
      "velocity": 127,
      "chip": "ym2612"
    },
    {
      "channel": 4,
      "note": 60,
      "start": 30.8492,
      "duration": 0.0503,
      "velocity": 101,
      "chip": "ym2612"
    },
    {
      "channel": 2,
      "note": 63,
      "start": 30.9649,
      "duration": 0.0625,
      "velocity": 101,
      "chip": "ym2612"
    },
    {
      "channel": 4,
      "note": 60,
      "start": 30.9674,
      "duration": 0.0607,
      "velocity": 101,
      "chip": "ym2612"
    },
    {
      "channel": 5,
      "note": 68,
      "start": 31.0299,
      "duration": 0.6175,
      "velocity": 99,
      "chip": "ym2612"
    },
    {
      "channel": 2,
      "note": 63,
      "start": 31.094,
      "duration": 0.0618,
      "velocity": 101,
      "chip": "ym2612"
    },
    {
      "channel": 3,
      "note": 61,
      "start": 31.0994,
      "duration": 0.0141,
      "velocity": 119,
      "chip": "ym2612"
    },
    {
      "channel": 4,
      "note": 60,
      "start": 31.1012,
      "duration": 0.0554,
      "velocity": 101,
      "chip": "ym2612"
    },
    {
      "channel": 2,
      "note": 63,
      "start": 31.2214,
      "duration": 0.0624,
      "velocity": 101,
      "chip": "ym2612"
    },
    {
      "channel": 4,
      "note": 60,
      "start": 31.2238,
      "duration": 0.0607,
      "velocity": 101,
      "chip": "ym2612"
    },
    {
      "channel": 3,
      "note": 61,
      "start": 31.3499,
      "duration": 0.02,
      "velocity": 119,
      "chip": "ym2612"
    },
    {
      "channel": 0,
      "note": 66,
      "start": 31.4774,
      "duration": 0.0198,
      "velocity": 99,
      "chip": "ym2612"
    },
    {
      "channel": 0,
      "note": 65,
      "start": 31.5201,
      "duration": 0.0199,
      "velocity": 99,
      "chip": "ym2612"
    },
    {
      "channel": 0,
      "note": 64,
      "start": 31.5629,
      "duration": 0.0198,
      "velocity": 99,
      "chip": "ym2612"
    },
    {
      "channel": 0,
      "note": 63,
      "start": 31.6057,
      "duration": 0.4686,
      "velocity": 99,
      "chip": "ym2612"
    },
    {
      "channel": 1,
      "note": 53,
      "start": 31.6073,
      "duration": 0.9798,
      "velocity": 122,
      "chip": "ym2612"
    },
    {
      "channel": 2,
      "note": 63,
      "start": 31.6099,
      "duration": 0.0585,
      "velocity": 101,
      "chip": "ym2612"
    },
    {
      "channel": 3,
      "note": 61,
      "start": 31.6153,
      "duration": 0.0751,
      "velocity": 127,
      "chip": "ym2612"
    },
    {
      "channel": 4,
      "note": 60,
      "start": 31.617,
      "duration": 0.0517,
      "velocity": 101,
      "chip": "ym2612"
    },
    {
      "channel": 5,
      "note": 66,
      "start": 31.6704,
      "duration": 0.0203,
      "velocity": 99,
      "chip": "ym2612"
    },
    {
      "channel": 5,
      "note": 65,
      "start": 31.7134,
      "duration": 0.0235,
      "velocity": 99,
      "chip": "ym2612"
    },
    {
      "channel": 2,
      "note": 63,
      "start": 31.7342,
      "duration": 0.0624,
      "velocity": 101,
      "chip": "ym2612"
    },
    {
      "channel": 4,
      "note": 60,
      "start": 31.7366,
      "duration": 0.0607,
      "velocity": 101,
      "chip": "ym2612"
    },
    {
      "channel": 5,
      "note": 64,
      "start": 31.7561,
      "duration": 0.0206,
      "velocity": 99,
      "chip": "ym2612"
    },
    {
      "channel": 5,
      "note": 63,
      "start": 31.7991,
      "duration": 0.4684,
      "velocity": 99,
      "chip": "ym2612"
    },
    {
      "channel": 2,
      "note": 63,
      "start": 31.8624,
      "duration": 0.0633,
      "velocity": 101,
      "chip": "ym2612"
    },
    {
      "channel": 3,
      "note": 61,
      "start": 31.8677,
      "duration": 0.015,
      "velocity": 119,
      "chip": "ym2612"
    },
    {
      "channel": 4,
      "note": 60,
      "start": 31.8695,
      "duration": 0.0569,
      "velocity": 101,
      "chip": "ym2612"
    },
    {
      "channel": 2,
      "note": 63,
      "start": 31.9926,
      "duration": 0.0604,
      "velocity": 101,
      "chip": "ym2612"
    },
    {
      "channel": 4,
      "note": 60,
      "start": 31.995,
      "duration": 0.0588,
      "velocity": 101,
      "chip": "ym2612"
    },
    {
      "channel": 0,
      "note": 65,
      "start": 32.1185,
      "duration": 0.725,
      "velocity": 99,
      "chip": "ym2612"
    },
    {
      "channel": 3,
      "note": 61,
      "start": 32.1207,
      "duration": 0.0184,
      "velocity": 119,
      "chip": "ym2612"
    },
    {
      "channel": 5,
      "note": 65,
      "start": 32.3117,
      "duration": 0.725,
      "velocity": 99,
      "chip": "ym2612"
    },
    {
      "channel": 3,
      "note": 61,
      "start": 32.3797,
      "duration": 0.0806,
      "velocity": 127,
      "chip": "ym2612"
    },
    {
      "channel": 1,
      "note": 53,
      "start": 32.6313,
      "duration": 0.2123,
      "velocity": 122,
      "chip": "ym2612"
    },
    {
      "channel": 2,
      "note": 63,
      "start": 32.633,
      "duration": 0.211,
      "velocity": 101,
      "chip": "ym2612"
    },
    {
      "channel": 3,
      "note": 61,
      "start": 32.6383,
      "duration": 0.0774,
      "velocity": 127,
      "chip": "ym2612"
    },
    {
      "channel": 4,
      "note": 60,
      "start": 32.64,
      "duration": 0.2046,
      "velocity": 101,
      "chip": "ym2612"
    },
    {
      "channel": 0,
      "note": 67,
      "start": 32.8877,
      "duration": 2.0069,
      "velocity": 99,
      "chip": "ym2612"
    },
    {
      "channel": 1,
      "note": 53,
      "start": 32.8894,
      "duration": 1.1081,
      "velocity": 122,
      "chip": "ym2612"
    },
    {
      "channel": 2,
      "note": 62,
      "start": 32.8923,
      "duration": 2.0027,
      "velocity": 101,
      "chip": "ym2612"
    },
    {
      "channel": 3,
      "note": 61,
      "start": 32.898,
      "duration": 0.074,
      "velocity": 127,
      "chip": "ym2612"
    },
    {
      "channel": 4,
      "note": 60,
      "start": 32.9001,
      "duration": 1.9957,
      "velocity": 101,
      "chip": "ym2612"
    },
    {
      "channel": 3,
      "note": 61,
      "start": 33.0197,
      "duration": 0.0805,
      "velocity": 127,
      "chip": "ym2612"
    },
    {
      "channel": 5,
      "note": 67,
      "start": 33.0805,
      "duration": 2.0297,
      "velocity": 99,
      "chip": "ym2612"
    },
    {
      "channel": 3,
      "note": 61,
      "start": 33.1448,
      "duration": 0.0837,
      "velocity": 127,
      "chip": "ym2612"
    },
    {
      "channel": 3,
      "note": 61,
      "start": 33.273,
      "duration": 0.0837,
      "velocity": 127,
      "chip": "ym2612"
    },
    {
      "channel": 3,
      "note": 61,
      "start": 33.4012,
      "duration": 0.0837,
      "velocity": 127,
      "chip": "ym2612"
    },
    {
      "channel": 3,
      "note": 61,
      "start": 33.5304,
      "duration": 0.0827,
      "velocity": 127,
      "chip": "ym2612"
    },
    {
      "channel": 3,
      "note": 61,
      "start": 33.6617,
      "duration": 0.0368,
      "velocity": 127,
      "chip": "ym2612"
    },
    {
      "channel": 3,
      "note": 61,
      "start": 33.7439,
      "duration": 0.0401,
      "velocity": 127,
      "chip": "ym2612"
    },
    {
      "channel": 3,
      "note": 61,
      "start": 33.8285,
      "duration": 0.041,
      "velocity": 127,
      "chip": "ym2612"
    },
    {
      "channel": 3,
      "note": 76,
      "start": 33.9174,
      "duration": 0.0166,
      "velocity": 112,
      "chip": "ym2612"
    },
    {
      "channel": 3,
      "note": 76,
      "start": 33.9998,
      "duration": 0.0197,
      "velocity": 112,
      "chip": "ym2612"
    },
    {
      "channel": 1,
      "note": 50,
      "start": 34.0424,
      "duration": 0.0835,
      "velocity": 122,
      "chip": "ym2612"
    },
    {
      "channel": 3,
      "note": 76,
      "start": 34.0849,
      "duration": 0.02,
      "velocity": 112,
      "chip": "ym2612"
    },
    {
      "channel": 1,
      "note": 52,
      "start": 34.1697,
      "duration": 0.084,
      "velocity": 122,
      "chip": "ym2612"
    },
    {
      "channel": 3,
      "note": 76,
      "start": 34.172,
      "duration": 0.0184,
      "velocity": 112,
      "chip": "ym2612"
    },
    {
      "channel": 1,
      "note": 48,
      "start": 34.2985,
      "duration": 0.0835,
      "velocity": 122,
      "chip": "ym2612"
    },
    {
      "channel": 3,
      "note": 71,
      "start": 34.301,
      "duration": 0.0177,
      "velocity": 112,
      "chip": "ym2612"
    },
    {
      "channel": 3,
      "note": 71,
      "start": 34.3627,
      "duration": 0.0201,
      "velocity": 112,
      "chip": "ym2612"
    },
    {
      "channel": 1,
      "note": 53,
      "start": 34.427,
      "duration": 0.0832,
      "velocity": 122,
      "chip": "ym2612"
    },
    {
      "channel": 3,
      "note": 71,
      "start": 34.4292,
      "duration": 0.0176,
      "velocity": 112,
      "chip": "ym2612"
    },
    {
      "channel": 1,
      "note": 65,
      "start": 34.5544,
      "duration": 0.084,
      "velocity": 122,
      "chip": "ym2612"
    },
    {
      "channel": 3,
      "note": 71,
      "start": 34.5566,
      "duration": 0.0193,
      "velocity": 112,
      "chip": "ym2612"
    },
    {
      "channel": 1,
      "note": 62,
      "start": 34.6826,
      "duration": 0.0627,
      "velocity": 122,
      "chip": "ym2612"
    },
    {
      "channel": 3,
      "note": 66,
      "start": 34.685,
      "duration": 0.0183,
      "velocity": 112,
      "chip": "ym2612"
    },
    {
      "channel": 1,
      "note": 60,
      "start": 34.768,
      "duration": 0.0636,
      "velocity": 122,
      "chip": "ym2612"
    },
    {
      "channel": 3,
      "note": 66,
      "start": 34.7702,
      "duration": 0.0184,
      "velocity": 112,
      "chip": "ym2612"
    },
    {
      "channel": 1,
      "note": 53,
      "start": 34.8535,
      "duration": 0.0627,
      "velocity": 122,
      "chip": "ym2612"
    },
    {
      "channel": 3,
      "note": 66,
      "start": 34.8557,
      "duration": 0.0185,
      "velocity": 112,
      "chip": "ym2612"
    },
    {
      "channel": 0,
      "note": 62,
      "start": 34.9447,
      "duration": 0.5297,
      "velocity": 101,
      "chip": "ym2612"
    },
    {
      "channel": 1,
      "note": 52,
      "start": 34.9475,
      "duration": 0.2251,
      "velocity": 122,
      "chip": "ym2612"
    },
    {
      "channel": 2,
      "note": 55,
      "start": 34.9536,
      "duration": 0.5208,
      "velocity": 105,
      "chip": "ym2612"
    },
    {
      "channel": 3,
      "note": 61,
      "start": 34.9614,
      "duration": 0.0833,
      "velocity": 127,
      "chip": "ym2612"
    },
    {
      "channel": 4,
      "note": 52,
      "start": 34.9677,
      "duration": 0.5067,
      "velocity": 105,
      "chip": "ym2612"
    },
    {
      "channel": 3,
      "note": 61,
      "start": 35.0933,
      "duration": 0.0167,
      "velocity": 119,
      "chip": "ym2612"
    },
    {
      "channel": 5,
      "note": 62,
      "start": 35.1594,
      "duration": 0.315,
      "velocity": 101,
      "chip": "ym2612"
    },
    {
      "channel": 1,
      "note": 64,
      "start": 35.2168,
      "duration": 0.2123,
      "velocity": 122,
      "chip": "ym2612"
    },
    {
      "channel": 3,
      "note": 61,
      "start": 35.219,
      "duration": 0.0184,
      "velocity": 119,
      "chip": "ym2612"
    },
    {
      "channel": 3,
      "note": 61,
      "start": 35.3457,
      "duration": 0.0838,
      "velocity": 119,
      "chip": "ym2612"
    },
    {
      "channel": 1,
      "note": 52,
      "start": 35.4732,
      "duration": 0.0012,
      "velocity": 122,
      "chip": "ym2612"
    }
  ]
}