{
  "track_name": "33 - Unknown Track 1",
  "duration_sec": 44.701,
  "sample_rate": 44100,
  "note_count": 1180,
  "unique_pitches": 49,
  "pitch_range": 68,
  "avg_note_duration": 0.16,
  "reconstruction_stats": {
    "notes_reconstructed": 1180,
    "keyon_events": 1180,
    "keyoff_events": 1177,
    "orphan_keyons": 3,
    "unique_pitches": 49,
    "pitch_range": 68,
    "avg_duration_sec": 0.16
  },
  "metadata": {
    "source": "S\\Sorcerer's Kingdom\\33 - Unknown Track 1.vgm"
  },
  "notes": [
    {
      "channel": 0,
      "note": 44,
      "start": 0.0068,
      "duration": 2.0021,
      "velocity": 117,
      "chip": "ym2612"
    },
    {
      "channel": 1,
      "note": 56,
      "start": 0.0068,
      "duration": 2.0021,
      "velocity": 117,
      "chip": "ym2612"
    },
    {
      "channel": 2,
      "note": 56,
      "start": 0.0069,
      "duration": 1.9133,
      "velocity": 91,
      "chip": "ym2612"
    },
    {
      "channel": 3,
      "note": 43,
      "start": 0.007,
      "duration": 0.0798,
      "velocity": 127,
      "chip": "ym2612"
    },
    {
      "channel": 4,
      "note": 48,
      "start": 0.6724,
      "duration": 1.3368,
      "velocity": 117,
      "chip": "ym2612"
    },
    {
      "channel": 0,
      "note": 45,
      "start": 2.0089,
      "duration": 0.3309,
      "velocity": 117,
      "chip": "ym2612"
    },
    {
      "channel": 1,
      "note": 57,
      "start": 2.009,
      "duration": 0.3308,
      "velocity": 117,
      "chip": "ym2612"
    },
    {
      "channel": 2,
      "note": 57,
      "start": 2.0091,
      "duration": 0.2777,
      "velocity": 91,
      "chip": "ym2612"
    },
    {
      "channel": 3,
      "note": 43,
      "start": 2.0091,
      "duration": 0.0276,
      "velocity": 127,
      "chip": "ym2612"
    },
    {
      "channel": 4,
      "note": 92,
      "start": 2.0093,
      "duration": 0.0788,
      "velocity": 117,
      "chip": "ym2612"
    },
    {
      "channel": 3,
      "note": 43,
      "start": 2.0879,
      "duration": 0.0321,
      "velocity": 127,
      "chip": "ym2612"
    },
    {
      "channel": 4,
      "note": 93,
      "start": 2.088,
      "duration": 0.0833,
      "velocity": 117,
      "chip": "ym2612"
    },
    {
      "channel": 3,
      "note": 43,
      "start": 2.1713,
      "duration": 0.0321,
      "velocity": 127,
      "chip": "ym2612"
    },
    {
      "channel": 4,
      "note": 92,
      "start": 2.1713,
      "duration": 0.0833,
      "velocity": 117,
      "chip": "ym2612"
    },
    {
      "channel": 3,
      "note": 43,
      "start": 2.2545,
      "duration": 0.0323,
      "velocity": 127,
      "chip": "ym2612"
    },
    {
      "channel": 4,
      "note": 90,
      "start": 2.2546,
      "duration": 0.0855,
      "velocity": 117,
      "chip": "ym2612"
    },
    {
      "channel": 0,
      "note": 42,
      "start": 2.3398,
      "duration": 0.3398,
      "velocity": 117,
      "chip": "ym2612"
    },
    {
      "channel": 1,
      "note": 54,
      "start": 2.3399,
      "duration": 0.3398,
      "velocity": 117,
      "chip": "ym2612"
    },
    {
      "channel": 2,
      "note": 54,
      "start": 2.34,
      "duration": 0.2801,
      "velocity": 91,
      "chip": "ym2612"
    },
    {
      "channel": 3,
      "note": 43,
      "start": 2.34,
      "duration": 0.03,
      "velocity": 127,
      "chip": "ym2612"
    },
    {
      "channel": 4,
      "note": 88,
      "start": 2.3402,
      "duration": 0.081,
      "velocity": 117,
      "chip": "ym2612"
    },
    {
      "channel": 3,
      "note": 43,
      "start": 2.4212,
      "duration": 0.0321,
      "velocity": 127,
      "chip": "ym2612"
    },
    {
      "channel": 4,
      "note": 90,
      "start": 2.4213,
      "duration": 0.0833,
      "velocity": 117,
      "chip": "ym2612"
    },
    {
      "channel": 3,
      "note": 43,
      "start": 2.5045,
      "duration": 0.0322,
      "velocity": 127,
      "chip": "ym2612"
    },
    {
      "channel": 4,
      "note": 88,
      "start": 2.5045,
      "duration": 0.0833,
      "velocity": 117,
      "chip": "ym2612"
    },
    {
      "channel": 3,
      "note": 43,
      "start": 2.5878,
      "duration": 0.0323,
      "velocity": 127,
      "chip": "ym2612"
    },
    {
      "channel": 4,
      "note": 87,
      "start": 2.5879,
      "duration": 0.0921,
      "velocity": 117,
      "chip": "ym2612"
    },
    {
      "channel": 0,
      "note": 44,
      "start": 2.6797,
      "duration": 2.1618,
      "velocity": 117,
      "chip": "ym2612"
    },
    {
      "channel": 1,
      "note": 56,
      "start": 2.6798,
      "duration": 2.1617,
      "velocity": 117,
      "chip": "ym2612"
    },
    {
      "channel": 2,
      "note": 56,
      "start": 2.6799,
      "duration": 2.1236,
      "velocity": 91,
      "chip": "ym2612"
    },
    {
      "channel": 3,
      "note": 36,
      "start": 2.6799,
      "duration": 0.0403,
      "velocity": 101,
      "chip": "ym2612"
    },
    {
      "channel": 4,
      "note": 104,
      "start": 2.68,
      "duration": 1.3326,
      "velocity": 97,
      "chip": "ym2612"
    },
    {
      "channel": 3,
      "note": 43,
      "start": 2.84,
      "duration": 0.0802,
      "velocity": 127,
      "chip": "ym2612"
    },
    {
      "channel": 3,
      "note": 36,
      "start": 3.0068,
      "duration": 0.0468,
      "velocity": 101,
      "chip": "ym2612"
    },
    {
      "channel": 3,
      "note": 43,
      "start": 3.1734,
      "duration": 0.0802,
      "velocity": 127,
      "chip": "ym2612"
    },
    {
      "channel": 3,
      "note": 36,
      "start": 3.3402,
      "duration": 0.0467,
      "velocity": 101,
      "chip": "ym2612"
    },
    {
      "channel": 3,
      "note": 43,
      "start": 3.5067,
      "duration": 0.0801,
      "velocity": 127,
      "chip": "ym2612"
    },
    {
      "channel": 3,
      "note": 36,
      "start": 3.6735,
      "duration": 0.0467,
      "velocity": 101,
      "chip": "ym2612"
    },
    {
      "channel": 3,
      "note": 43,
      "start": 3.84,
      "duration": 0.0801,
      "velocity": 127,
      "chip": "ym2612"
    },
    {
      "channel": 3,
      "note": 36,
      "start": 4.0125,
      "duration": 0.041,
      "velocity": 101,
      "chip": "ym2612"
    },
    {
      "channel": 4,
      "note": 81,
      "start": 4.0126,
      "duration": 0.1243,
      "velocity": 97,
      "chip": "ym2612"
    },
    {
      "channel": 3,
      "note": 43,
      "start": 4.1743,
      "duration": 0.0792,
      "velocity": 127,
      "chip": "ym2612"
    },
    {
      "channel": 4,
      "note": 92,
      "start": 4.1743,
      "duration": 0.1292,
      "velocity": 97,
      "chip": "ym2612"
    },
    {
      "channel": 3,
      "note": 36,
      "start": 4.3411,
      "duration": 0.0457,
      "velocity": 101,
      "chip": "ym2612"
    },
    {
      "channel": 4,
      "note": 94,
      "start": 4.3411,
      "duration": 0.8625,
      "velocity": 97,
      "chip": "ym2612"
    },
    {
      "channel": 3,
      "note": 43,
      "start": 4.5066,
      "duration": 0.0802,
      "velocity": 127,
      "chip": "ym2612"
    },
    {
      "channel": 3,
      "note": 43,
      "start": 4.675,
      "duration": 0.0285,
      "velocity": 127,
      "chip": "ym2612"
    },
    {
      "channel": 3,
      "note": 43,
      "start": 4.754,
      "duration": 0.0328,
      "velocity": 127,
      "chip": "ym2612"
    },
    {
      "channel": 0,
      "note": 42,
      "start": 4.8414,
      "duration": 0.1644,
      "velocity": 117,
      "chip": "ym2612"
    },
    {
      "channel": 1,
      "note": 54,
      "start": 4.8416,
      "duration": 0.1643,
      "velocity": 117,
      "chip": "ym2612"
    },
    {
      "channel": 2,
      "note": 54,
      "start": 4.8416,
      "duration": 0.1284,
      "velocity": 91,
      "chip": "ym2612"
    },
    {
      "channel": 3,
      "note": 43,
      "start": 4.8417,
      "duration": 0.0284,
      "velocity": 127,
      "chip": "ym2612"
    },
    {
      "channel": 3,
      "note": 43,
      "start": 4.9206,
      "duration": 0.0329,
      "velocity": 127,
      "chip": "ym2612"
    },
    {
      "channel": 0,
      "note": 42,
      "start": 5.0058,
      "duration": 0.3435,
      "velocity": 117,
      "chip": "ym2612"
    },
    {
      "channel": 1,
      "note": 54,
      "start": 5.0059,
      "duration": 0.3434,
      "velocity": 117,
      "chip": "ym2612"
    },
    {
      "channel": 2,
      "note": 54,
      "start": 5.006,
      "duration": 0.2808,
      "velocity": 91,
      "chip": "ym2612"
    },
    {
      "channel": 3,
      "note": 43,
      "start": 5.0061,
      "duration": 0.0307,
      "velocity": 127,
      "chip": "ym2612"
    },
    {
      "channel": 3,
      "note": 43,
      "start": 5.0872,
      "duration": 0.0329,
      "velocity": 127,
      "chip": "ym2612"
    },
    {
      "channel": 3,
      "note": 43,
      "start": 5.1706,
      "duration": 0.0329,
      "velocity": 127,
      "chip": "ym2612"
    },
    {
      "channel": 3,
      "note": 43,
      "start": 5.2539,
      "duration": 0.0329,
      "velocity": 127,
      "chip": "ym2612"
    },
    {
      "channel": 0,
      "note": 44,
      "start": 5.3494,
      "duration": 0.0893,
      "velocity": 117,
      "chip": "ym2612"
    },
    {
      "channel": 1,
      "note": 44,
      "start": 5.3495,
      "duration": 0.0893,
      "velocity": 117,
      "chip": "ym2612"
    },
    {
      "channel": 2,
      "note": 56,
      "start": 5.3495,
      "duration": 0.1373,
      "velocity": 91,
      "chip": "ym2612"
    },
    {
      "channel": 3,
      "note": 36,
      "start": 5.3496,
      "duration": 0.0206,
      "velocity": 101,
      "chip": "ym2612"
    },
    {
      "channel": 4,
      "note": 78,
      "start": 5.3496,
      "duration": 0.6793,
      "velocity": 117,
      "chip": "ym2612"
    },
    {
      "channel": 0,
      "note": 44,
      "start": 5.4386,
      "duration": 0.0873,
      "velocity": 117,
      "chip": "ym2612"
    },
    {
      "channel": 1,
      "note": 44,
      "start": 5.4388,
      "duration": 0.0872,
      "velocity": 117,
      "chip": "ym2612"
    },
    {
      "channel": 3,
      "note": 36,
      "start": 5.4388,
      "duration": 0.0147,
      "velocity": 101,
      "chip": "ym2612"
    },
    {
      "channel": 0,
      "note": 44,
      "start": 5.526,
      "duration": 0.0794,
      "velocity": 117,
      "chip": "ym2612"
    },
    {
      "channel": 1,
      "note": 44,
      "start": 5.5261,
      "duration": 0.0794,
      "velocity": 117,
      "chip": "ym2612"
    },
    {
      "channel": 2,
      "note": 56,
      "start": 5.5261,
      "duration": 0.0607,
      "velocity": 91,
      "chip": "ym2612"
    },
    {
      "channel": 3,
      "note": 43,
      "start": 5.5262,
      "duration": 0.0795,
      "velocity": 127,
      "chip": "ym2612"
    },
    {
      "channel": 0,
      "note": 44,
      "start": 5.6054,
      "duration": 0.167,
      "velocity": 117,
      "chip": "ym2612"
    },
    {
      "channel": 1,
      "note": 44,
      "start": 5.6055,
      "duration": 0.1671,
      "velocity": 117,
      "chip": "ym2612"
    },
    {
      "channel": 2,
      "note": 56,
      "start": 5.6056,
      "duration": 0.0646,
      "velocity": 91,
      "chip": "ym2612"
    },
    {
      "channel": 2,
      "note": 56,
      "start": 5.6912,
      "duration": 0.0622,
      "velocity": 91,
      "chip": "ym2612"
    },
    {
      "channel": 3,
      "note": 36,
      "start": 5.6913,
      "duration": 0.0122,
      "velocity": 101,
      "chip": "ym2612"
    },
    {
      "channel": 0,
      "note": 42,
      "start": 5.7725,
      "duration": 0.086,
      "velocity": 117,
      "chip": "ym2612"
    },
    {
      "channel": 1,
      "note": 42,
      "start": 5.7726,
      "duration": 0.0859,
      "velocity": 117,
      "chip": "ym2612"
    },
    {
      "channel": 2,
      "note": 56,
      "start": 5.7727,
      "duration": 0.0641,
      "velocity": 91,
      "chip": "ym2612"
    },
    {
      "channel": 3,
      "note": 36,
      "start": 5.7727,
      "duration": 0.0141,
      "velocity": 101,
      "chip": "ym2612"
    },
    {
      "channel": 0,
      "note": 44,
      "start": 5.8585,
      "duration": 0.17,
      "velocity": 117,
      "chip": "ym2612"
    },
    {
      "channel": 1,
      "note": 44,
      "start": 5.8586,
      "duration": 0.1701,
      "velocity": 117,
      "chip": "ym2612"
    },
    {
      "channel": 2,
      "note": 56,
      "start": 5.8587,
      "duration": 0.0615,
      "velocity": 91,
      "chip": "ym2612"
    },
    {
      "channel": 3,
      "note": 43,
      "start": 5.8587,
      "duration": 0.0787,
      "velocity": 127,
      "chip": "ym2612"
    },
    {
      "channel": 2,
      "note": 56,
      "start": 5.9374,
      "duration": 0.0661,
      "velocity": 91,
      "chip": "ym2612"
    },
    {
      "channel": 0,
      "note": 44,
      "start": 6.0287,
      "duration": 0.0766,
      "velocity": 117,
      "chip": "ym2612"
    },
    {
      "channel": 1,
      "note": 44,
      "start": 6.0288,
      "duration": 0.0766,
      "velocity": 117,
      "chip": "ym2612"
    },
    {
      "channel": 2,
      "note": 56,
      "start": 6.0288,
      "duration": 0.1246,
      "velocity": 91,
      "chip": "ym2612"
    },
    {
      "channel": 3,
      "note": 36,
      "start": 6.0289,
      "duration": 0.0079,
      "velocity": 101,
      "chip": "ym2612"
    },
    {
      "channel": 4,
      "note": 78,
      "start": 6.029,
      "duration": 0.6674,
      "velocity": 117,
      "chip": "ym2612"
    },
    {
      "channel": 0,
      "note": 44,
      "start": 6.1053,
      "duration": 0.0873,
      "velocity": 117,
      "chip": "ym2612"
    },
    {
      "channel": 1,
      "note": 44,
      "start": 6.1054,
      "duration": 0.0872,
      "velocity": 117,
      "chip": "ym2612"
    },
    {
      "channel": 3,
      "note": 36,
      "start": 6.1055,
      "duration": 0.0147,
      "velocity": 101,
      "chip": "ym2612"
    },
    {
      "channel": 0,
      "note": 44,
      "start": 6.1927,
      "duration": 0.0794,
      "velocity": 117,
      "chip": "ym2612"
    },
    {
      "channel": 1,
      "note": 44,
      "start": 6.1927,
      "duration": 0.0794,
      "velocity": 117,
      "chip": "ym2612"
    },
    {
      "channel": 2,
      "note": 56,
      "start": 6.1928,
      "duration": 0.0607,
      "velocity": 91,
      "chip": "ym2612"
    },
    {
      "channel": 3,
      "note": 43,
      "start": 6.1928,
      "duration": 0.0795,
      "velocity": 127,
      "chip": "ym2612"
    },
    {
      "channel": 0,
      "note": 44,
      "start": 6.2721,
      "duration": 0.167,
      "velocity": 117,
      "chip": "ym2612"
    },
    {
      "channel": 1,
      "note": 44,
      "start": 6.2722,
      "duration": 0.1671,
      "velocity": 117,
      "chip": "ym2612"
    },
    {
      "channel": 2,
      "note": 56,
      "start": 6.2722,
      "duration": 0.0646,
      "velocity": 91,
      "chip": "ym2612"
    },
    {
      "channel": 2,
      "note": 56,
      "start": 6.3579,
      "duration": 0.0622,
      "velocity": 91,
      "chip": "ym2612"
    },
    {
      "channel": 3,
      "note": 36,
      "start": 6.358,
      "duration": 0.0122,
      "velocity": 101,
      "chip": "ym2612"
    },
    {
      "channel": 0,
      "note": 42,
      "start": 6.4391,
      "duration": 0.086,
      "velocity": 117,
      "chip": "ym2612"
    },
    {
      "channel": 1,
      "note": 42,
      "start": 6.4393,
      "duration": 0.0859,
      "velocity": 117,
      "chip": "ym2612"
    },
    {
      "channel": 2,
      "note": 56,
      "start": 6.4393,
      "duration": 0.0641,
      "velocity": 91,
      "chip": "ym2612"
    },
    {
      "channel": 3,
      "note": 36,
      "start": 6.4394,
      "duration": 0.0141,
      "velocity": 101,
      "chip": "ym2612"
    },
    {
      "channel": 0,
      "note": 44,
      "start": 6.5252,
      "duration": 0.1709,
      "velocity": 117,
      "chip": "ym2612"
    },
    {
      "channel": 1,
      "note": 44,
      "start": 6.5253,
      "duration": 0.1709,
      "velocity": 117,
      "chip": "ym2612"
    },
    {
      "channel": 2,
      "note": 56,
      "start": 6.5254,
      "duration": 0.0615,
      "velocity": 91,
      "chip": "ym2612"
    },
    {
      "channel": 3,
      "note": 43,
      "start": 6.5254,
      "duration": 0.0787,
      "velocity": 127,
      "chip": "ym2612"
    },
    {
      "channel": 2,
      "note": 56,
      "start": 6.604,
      "duration": 0.0661,
      "velocity": 91,
      "chip": "ym2612"
    },
    {
      "channel": 0,
      "note": 44,
      "start": 6.6961,
      "duration": 0.0758,
      "velocity": 117,
      "chip": "ym2612"
    },
    {
      "channel": 1,
      "note": 44,
      "start": 6.6962,
      "duration": 0.0758,
      "velocity": 117,
      "chip": "ym2612"
    },
    {
      "channel": 2,
      "note": 56,
      "start": 6.6963,
      "duration": 0.1239,
      "velocity": 91,
      "chip": "ym2612"
    },
    {
      "channel": 3,
      "note": 36,
      "start": 6.6963,
      "duration": 0.0072,
      "velocity": 101,
      "chip": "ym2612"
    },
    {
      "channel": 4,
      "note": 78,
      "start": 6.6965,
      "duration": 0.6641,
      "velocity": 117,
      "chip": "ym2612"
    },
    {
      "channel": 0,
      "note": 44,
      "start": 6.772,
      "duration": 0.0842,
      "velocity": 117,
      "chip": "ym2612"
    },
    {
      "channel": 1,
      "note": 44,
      "start": 6.7721,
      "duration": 0.0841,
      "velocity": 117,
      "chip": "ym2612"
    },
    {
      "channel": 3,
      "note": 36,
      "start": 6.7722,
      "duration": 0.0147,
      "velocity": 101,
      "chip": "ym2612"
    },
    {
      "channel": 0,
      "note": 44,
      "start": 6.8563,
      "duration": 0.0856,
      "velocity": 117,
      "chip": "ym2612"
    },
    {
      "channel": 1,
      "note": 44,
      "start": 6.8563,
      "duration": 0.0856,
      "velocity": 117,
      "chip": "ym2612"
    },
    {
      "channel": 2,
      "note": 56,
      "start": 6.8564,
      "duration": 0.0637,
      "velocity": 91,
      "chip": "ym2612"
    },
    {
      "channel": 0,
      "note": 44,
      "start": 6.9419,
      "duration": 0.1663,
      "velocity": 117,
      "chip": "ym2612"
    },
    {
      "channel": 1,
      "note": 44,
      "start": 6.942,
      "duration": 0.1663,
      "velocity": 117,
      "chip": "ym2612"
    },
    {
      "channel": 2,
      "note": 56,
      "start": 6.942,
      "duration": 0.0615,
      "velocity": 91,
      "chip": "ym2612"
    },
    {
      "channel": 3,
      "note": 43,
      "start": 6.9421,
      "duration": 0.0797,
      "velocity": 127,
      "chip": "ym2612"
    },
    {
      "channel": 2,
      "note": 56,
      "start": 7.0217,
      "duration": 0.0651,
      "velocity": 91,
      "chip": "ym2612"
    },
    {
      "channel": 0,
      "note": 42,
      "start": 7.1082,
      "duration": 0.0836,
      "velocity": 117,
      "chip": "ym2612"
    },
    {
      "channel": 1,
      "note": 42,
      "start": 7.1084,
      "duration": 0.0835,
      "velocity": 117,
      "chip": "ym2612"
    },
    {
      "channel": 2,
      "note": 56,
      "start": 7.1084,
      "duration": 0.0617,
      "velocity": 91,
      "chip": "ym2612"
    },
    {
      "channel": 3,
      "note": 36,
      "start": 7.1085,
      "duration": 0.0117,
      "velocity": 101,
      "chip": "ym2612"
    },
    {
      "channel": 0,
      "note": 44,
      "start": 7.1919,
      "duration": 0.1684,
      "velocity": 117,
      "chip": "ym2612"
    },
    {
      "channel": 1,
      "note": 44,
      "start": 7.192,
      "duration": 0.1684,
      "velocity": 117,
      "chip": "ym2612"
    },
    {
      "channel": 2,
      "note": 56,
      "start": 7.192,
      "duration": 0.0615,
      "velocity": 91,
      "chip": "ym2612"
    },
    {
      "channel": 3,
      "note": 43,
      "start": 7.1921,
      "duration": 0.0787,
      "velocity": 127,
      "chip": "ym2612"
    },
    {
      "channel": 2,
      "note": 56,
      "start": 7.2707,
      "duration": 0.0661,
      "velocity": 91,
      "chip": "ym2612"
    },
    {
      "channel": 0,
      "note": 45,
      "start": 7.3603,
      "duration": 0.0807,
      "velocity": 117,
      "chip": "ym2612"
    },
    {
      "channel": 1,
      "note": 45,
      "start": 7.3604,
      "duration": 0.0807,
      "velocity": 117,
      "chip": "ym2612"
    },
    {
      "channel": 2,
      "note": 45,
      "start": 7.3605,
      "duration": 0.2263,
      "velocity": 91,
      "chip": "ym2612"
    },
    {
      "channel": 3,
      "note": 43,
      "start": 7.3605,
      "duration": 0.0263,
      "velocity": 127,
      "chip": "ym2612"
    },
    {
      "channel": 4,
      "note": 80,
      "start": 7.3606,
      "duration": 0.1661,
      "velocity": 117,
      "chip": "ym2612"
    },
    {
      "channel": 0,
      "note": 45,
      "start": 7.441,
      "duration": 0.0854,
      "velocity": 117,
      "chip": "ym2612"
    },
    {
      "channel": 1,
      "note": 45,
      "start": 7.4411,
      "duration": 0.0854,
      "velocity": 117,
      "chip": "ym2612"
    },
    {
      "channel": 3,
      "note": 36,
      "start": 7.4412,
      "duration": 0.0123,
      "velocity": 101,
      "chip": "ym2612"
    },
    {
      "channel": 0,
      "note": 45,
      "start": 7.5265,
      "duration": 0.0819,
      "velocity": 117,
      "chip": "ym2612"
    },
    {
      "channel": 1,
      "note": 45,
      "start": 7.5266,
      "duration": 0.0819,
      "velocity": 117,
      "chip": "ym2612"
    },
    {
      "channel": 3,
      "note": 43,
      "start": 7.5266,
      "duration": 0.0268,
      "velocity": 127,
      "chip": "ym2612"
    },
    {
      "channel": 4,
      "note": 80,
      "start": 7.5267,
      "duration": 0.1661,
      "velocity": 117,
      "chip": "ym2612"
    },
    {
      "channel": 0,
      "note": 42,
      "start": 7.6084,
      "duration": 0.2474,
      "velocity": 117,
      "chip": "ym2612"
    },
    {
      "channel": 1,
      "note": 42,
      "start": 7.6085,
      "duration": 0.2474,
      "velocity": 117,
      "chip": "ym2612"
    },
    {
      "channel": 2,
      "note": 42,
      "start": 7.6085,
      "duration": 0.2115,
      "velocity": 91,
      "chip": "ym2612"
    },
    {
      "channel": 3,
      "note": 36,
      "start": 7.6086,
      "duration": 0.0115,
      "velocity": 101,
      "chip": "ym2612"
    },
    {
      "channel": 3,
      "note": 43,
      "start": 7.6928,
      "duration": 0.0273,
      "velocity": 127,
      "chip": "ym2612"
    },
    {
      "channel": 4,
      "note": 102,
      "start": 7.6929,
      "duration": 0.3387,
      "velocity": 117,
      "chip": "ym2612"
    },
    {
      "channel": 3,
      "note": 43,
      "start": 7.7706,
      "duration": 0.0328,
      "velocity": 127,
      "chip": "ym2612"
    },
    {
      "channel": 0,
      "note": 42,
      "start": 7.8559,
      "duration": 0.1753,
      "velocity": 117,
      "chip": "ym2612"
    },
    {
      "channel": 1,
      "note": 42,
      "start": 7.8559,
      "duration": 0.1754,
      "velocity": 117,
      "chip": "ym2612"
    },
    {
      "channel": 2,
      "note": 42,
      "start": 7.856,
      "duration": 0.1307,
      "velocity": 91,
      "chip": "ym2612"
    },
    {
      "channel": 3,
      "note": 43,
      "start": 7.8561,
      "duration": 0.0307,
      "velocity": 127,
      "chip": "ym2612"
    },
    {
      "channel": 3,
      "note": 43,
      "start": 7.9373,
      "duration": 0.0328,
      "velocity": 127,
      "chip": "ym2612"
    },
    {
      "channel": 0,
      "note": 44,
      "start": 8.0313,
      "duration": 0.074,
      "velocity": 117,
      "chip": "ym2612"
    },
    {
      "channel": 1,
      "note": 44,
      "start": 8.0314,
      "duration": 0.074,
      "velocity": 117,
      "chip": "ym2612"
    },
    {
      "channel": 2,
      "note": 56,
      "start": 8.0315,
      "duration": 0.122,
      "velocity": 91,
      "chip": "ym2612"
    },
    {
      "channel": 3,
      "note": 36,
      "start": 8.0315,
      "duration": 0.0053,
      "velocity": 101,
      "chip": "ym2612"
    },
    {
      "channel": 4,
      "note": 78,
      "start": 8.0316,
      "duration": 0.6641,
      "velocity": 117,
      "chip": "ym2612"
    },
    {
      "channel": 0,
      "note": 44,
      "start": 8.1053,
      "duration": 0.0873,
      "velocity": 117,
      "chip": "ym2612"
    },
    {
      "channel": 1,
      "note": 44,
      "start": 8.1054,
      "duration": 0.0872,
      "velocity": 117,
      "chip": "ym2612"
    },
    {
      "channel": 3,
      "note": 36,
      "start": 8.1055,
      "duration": 0.0147,
      "velocity": 101,
      "chip": "ym2612"
    },
    {
      "channel": 0,
      "note": 44,
      "start": 8.1927,
      "duration": 0.0794,
      "velocity": 117,
      "chip": "ym2612"
    },
    {
      "channel": 1,
      "note": 44,
      "start": 8.1927,
      "duration": 0.0794,
      "velocity": 117,
      "chip": "ym2612"
    },
    {
      "channel": 2,
      "note": 56,
      "start": 8.1928,
      "duration": 0.0607,
      "velocity": 91,
      "chip": "ym2612"
    },
    {
      "channel": 3,
      "note": 43,
      "start": 8.1928,
      "duration": 0.0795,
      "velocity": 127,
      "chip": "ym2612"
    },
    {
      "channel": 0,
      "note": 44,
      "start": 8.2721,
      "duration": 0.167,
      "velocity": 117,
      "chip": "ym2612"
    },
    {
      "channel": 1,
      "note": 44,
      "start": 8.2722,
      "duration": 0.1671,
      "velocity": 117,
      "chip": "ym2612"
    },
    {
      "channel": 2,
      "note": 56,
      "start": 8.2722,
      "duration": 0.0646,
      "velocity": 91,
      "chip": "ym2612"
    },
    {
      "channel": 2,
      "note": 56,
      "start": 8.3579,
      "duration": 0.0622,
      "velocity": 91,
      "chip": "ym2612"
    },
    {
      "channel": 3,
      "note": 36,
      "start": 8.358,
      "duration": 0.0122,
      "velocity": 101,
      "chip": "ym2612"
    },
    {
      "channel": 0,
      "note": 42,
      "start": 8.4391,
      "duration": 0.086,
      "velocity": 117,
      "chip": "ym2612"
    },
    {
      "channel": 1,
      "note": 42,
      "start": 8.4393,
      "duration": 0.0859,
      "velocity": 117,
      "chip": "ym2612"
    },
    {
      "channel": 2,
      "note": 56,
      "start": 8.4393,
      "duration": 0.0641,
      "velocity": 91,
      "chip": "ym2612"
    },
    {
      "channel": 3,
      "note": 36,
      "start": 8.4394,
      "duration": 0.0141,
      "velocity": 101,
      "chip": "ym2612"
    },
    {
      "channel": 0,
      "note": 44,
      "start": 8.5252,
      "duration": 0.17,
      "velocity": 117,
      "chip": "ym2612"
    },
    {
      "channel": 1,
      "note": 44,
      "start": 8.5253,
      "duration": 0.1701,
      "velocity": 117,
      "chip": "ym2612"
    },
    {
      "channel": 2,
      "note": 56,
      "start": 8.5254,
      "duration": 0.0615,
      "velocity": 91,
      "chip": "ym2612"
    },
    {
      "channel": 3,
      "note": 43,
      "start": 8.5254,
      "duration": 0.0787,
      "velocity": 127,
      "chip": "ym2612"
    },
    {
      "channel": 2,
      "note": 56,
      "start": 8.604,
      "duration": 0.0661,
      "velocity": 91,
      "chip": "ym2612"
    },
    {
      "channel": 0,
      "note": 44,
      "start": 8.6953,
      "duration": 0.0766,
      "velocity": 117,
      "chip": "ym2612"
    },
    {
      "channel": 1,
      "note": 44,
      "start": 8.6954,
      "duration": 0.0766,
      "velocity": 117,
      "chip": "ym2612"
    },
    {
      "channel": 2,
      "note": 56,
      "start": 8.6955,
      "duration": 0.1246,
      "velocity": 91,
      "chip": "ym2612"
    },
    {
      "channel": 3,
      "note": 36,
      "start": 8.6956,
      "duration": 0.0079,
      "velocity": 101,
      "chip": "ym2612"
    },
    {
      "channel": 4,
      "note": 78,
      "start": 8.6956,
      "duration": 0.6674,
      "velocity": 117,
      "chip": "ym2612"
    },
    {
      "channel": 0,
      "note": 44,
      "start": 8.772,
      "duration": 0.0873,
      "velocity": 117,
      "chip": "ym2612"
    },
    {
      "channel": 1,
      "note": 44,
      "start": 8.7721,
      "duration": 0.0872,
      "velocity": 117,
      "chip": "ym2612"
    },
    {
      "channel": 3,
      "note": 36,
      "start": 8.7722,
      "duration": 0.0147,
      "velocity": 101,
      "chip": "ym2612"
    },
    {
      "channel": 0,
      "note": 44,
      "start": 8.8593,
      "duration": 0.0794,
      "velocity": 117,
      "chip": "ym2612"
    },
    {
      "channel": 1,
      "note": 44,
      "start": 8.8594,
      "duration": 0.0794,
      "velocity": 117,
      "chip": "ym2612"
    },
    {
      "channel": 2,
      "note": 56,
      "start": 8.8594,
      "duration": 0.0607,
      "velocity": 91,
      "chip": "ym2612"
    },
    {
      "channel": 3,
      "note": 43,
      "start": 8.8595,
      "duration": 0.0795,
      "velocity": 127,
      "chip": "ym2612"
    },
    {
      "channel": 0,
      "note": 44,
      "start": 8.9388,
      "duration": 0.167,
      "velocity": 117,
      "chip": "ym2612"
    },
    {
      "channel": 1,
      "note": 44,
      "start": 8.9388,
      "duration": 0.1671,
      "velocity": 117,
      "chip": "ym2612"
    },
    {
      "channel": 2,
      "note": 56,
      "start": 8.9389,
      "duration": 0.0646,
      "velocity": 91,
      "chip": "ym2612"
    },
    {
      "channel": 2,
      "note": 56,
      "start": 9.0246,
      "duration": 0.0622,
      "velocity": 91,
      "chip": "ym2612"
    },
    {
      "channel": 3,
      "note": 36,
      "start": 9.0246,
      "duration": 0.0122,
      "velocity": 101,
      "chip": "ym2612"
    },
    {
      "channel": 0,
      "note": 42,
      "start": 9.1058,
      "duration": 0.086,
      "velocity": 117,
      "chip": "ym2612"
    },
    {
      "channel": 1,
      "note": 42,
      "start": 9.1059,
      "duration": 0.0859,
      "velocity": 117,
      "chip": "ym2612"
    },
    {
      "channel": 2,
      "note": 56,
      "start": 9.106,
      "duration": 0.0641,
      "velocity": 91,
      "chip": "ym2612"
    },
    {
      "channel": 3,
      "note": 36,
      "start": 9.1061,
      "duration": 0.0141,
      "velocity": 101,
      "chip": "ym2612"
    },
    {
      "channel": 0,
      "note": 44,
      "start": 9.1919,
      "duration": 0.1709,
      "velocity": 117,
      "chip": "ym2612"
    },
    {
      "channel": 1,
      "note": 44,
      "start": 9.192,
      "duration": 0.1709,
      "velocity": 117,
      "chip": "ym2612"
    },
    {
      "channel": 2,
      "note": 56,
      "start": 9.192,
      "duration": 0.0615,
      "velocity": 91,
      "chip": "ym2612"
    },
    {
      "channel": 3,
      "note": 43,
      "start": 9.1921,
      "duration": 0.0787,
      "velocity": 127,
      "chip": "ym2612"
    },
    {
      "channel": 2,
      "note": 56,
      "start": 9.2707,
      "duration": 0.0661,
      "velocity": 91,
      "chip": "ym2612"
    },
    {
      "channel": 0,
      "note": 44,
      "start": 9.3628,
      "duration": 0.0758,
      "velocity": 117,
      "chip": "ym2612"
    },
    {
      "channel": 1,
      "note": 44,
      "start": 9.3629,
      "duration": 0.0758,
      "velocity": 117,
      "chip": "ym2612"
    },
    {
      "channel": 2,
      "note": 56,
      "start": 9.3629,
      "duration": 0.1239,
      "velocity": 91,
      "chip": "ym2612"
    },
    {
      "channel": 3,
      "note": 36,
      "start": 9.363,
      "duration": 0.0072,
      "velocity": 101,
      "chip": "ym2612"
    },
    {
      "channel": 4,
      "note": 78,
      "start": 9.3631,
      "duration": 0.6641,
      "velocity": 117,
      "chip": "ym2612"
    },
    {
      "channel": 0,
      "note": 44,
      "start": 9.4386,
      "duration": 0.0842,
      "velocity": 117,
      "chip": "ym2612"
    },
    {
      "channel": 1,
      "note": 44,
      "start": 9.4388,
      "duration": 0.0841,
      "velocity": 117,
      "chip": "ym2612"
    },
    {
      "channel": 3,
      "note": 36,
      "start": 9.4388,
      "duration": 0.0147,
      "velocity": 101,
      "chip": "ym2612"
    },
    {
      "channel": 0,
      "note": 44,
      "start": 9.5229,
      "duration": 0.0856,
      "velocity": 117,
      "chip": "ym2612"
    },
    {
      "channel": 1,
      "note": 44,
      "start": 9.523,
      "duration": 0.0856,
      "velocity": 117,
      "chip": "ym2612"
    },
    {
      "channel": 2,
      "note": 56,
      "start": 9.5231,
      "duration": 0.0637,
      "velocity": 91,
      "chip": "ym2612"
    },
    {
      "channel": 0,
      "note": 44,
      "start": 9.6085,
      "duration": 0.1663,
      "velocity": 117,
      "chip": "ym2612"
    },
    {
      "channel": 1,
      "note": 44,
      "start": 9.6086,
      "duration": 0.1663,
      "velocity": 117,
      "chip": "ym2612"
    },
    {
      "channel": 2,
      "note": 56,
      "start": 9.6087,
      "duration": 0.0615,
      "velocity": 91,
      "chip": "ym2612"
    },
    {
      "channel": 3,
      "note": 43,
      "start": 9.6087,
      "duration": 0.0797,
      "velocity": 127,
      "chip": "ym2612"
    },
    {
      "channel": 2,
      "note": 56,
      "start": 9.6884,
      "duration": 0.0651,
      "velocity": 91,
      "chip": "ym2612"
    },
    {
      "channel": 0,
      "note": 42,
      "start": 9.7749,
      "duration": 0.0836,
      "velocity": 117,
      "chip": "ym2612"
    },
    {
      "channel": 1,
      "note": 42,
      "start": 9.775,
      "duration": 0.0835,
      "velocity": 117,
      "chip": "ym2612"
    },
    {
      "channel": 2,
      "note": 56,
      "start": 9.7751,
      "duration": 0.0617,
      "velocity": 91,
      "chip": "ym2612"
    },
    {
      "channel": 3,
      "note": 36,
      "start": 9.7751,
      "duration": 0.0117,
      "velocity": 101,
      "chip": "ym2612"
    },
    {
      "channel": 0,
      "note": 44,
      "start": 9.8585,
      "duration": 0.1684,
      "velocity": 117,
      "chip": "ym2612"
    },
    {
      "channel": 1,
      "note": 44,
      "start": 9.8586,
      "duration": 0.1684,
      "velocity": 117,
      "chip": "ym2612"
    },
    {
      "channel": 2,
      "note": 56,
      "start": 9.8587,
      "duration": 0.0615,
      "velocity": 91,
      "chip": "ym2612"
    },
    {
      "channel": 3,
      "note": 43,
      "start": 9.8587,
      "duration": 0.0787,
      "velocity": 127,
      "chip": "ym2612"
    },
    {
      "channel": 2,
      "note": 56,
      "start": 9.9374,
      "duration": 0.0661,
      "velocity": 91,
      "chip": "ym2612"
    },
    {
      "channel": 0,
      "note": 45,
      "start": 10.0269,
      "duration": 0.0807,
      "velocity": 117,
      "chip": "ym2612"
    },
    {
      "channel": 1,
      "note": 45,
      "start": 10.0271,
      "duration": 0.0807,
      "velocity": 117,
      "chip": "ym2612"
    },
    {
      "channel": 2,
      "note": 45,
      "start": 10.0271,
      "duration": 0.2263,
      "velocity": 91,
      "chip": "ym2612"
    },
    {
      "channel": 3,
      "note": 43,
      "start": 10.0272,
      "duration": 0.0263,
      "velocity": 127,
      "chip": "ym2612"
    },
    {
      "channel": 4,
      "note": 80,
      "start": 10.0273,
      "duration": 0.1661,
      "velocity": 117,
      "chip": "ym2612"
    },
    {
      "channel": 0,
      "note": 45,
      "start": 10.1077,
      "duration": 0.0854,
      "velocity": 117,
      "chip": "ym2612"
    },
    {
      "channel": 1,
      "note": 45,
      "start": 10.1078,
      "duration": 0.0854,
      "velocity": 117,
      "chip": "ym2612"
    },
    {
      "channel": 3,
      "note": 36,
      "start": 10.1078,
      "duration": 0.0123,
      "velocity": 101,
      "chip": "ym2612"
    },
    {
      "channel": 0,
      "note": 45,
      "start": 10.1932,
      "duration": 0.0819,
      "velocity": 117,
      "chip": "ym2612"
    },
    {
      "channel": 1,
      "note": 45,
      "start": 10.1932,
      "duration": 0.0819,
      "velocity": 117,
      "chip": "ym2612"
    },
    {
      "channel": 3,
      "note": 43,
      "start": 10.1933,
      "duration": 0.0268,
      "velocity": 127,
      "chip": "ym2612"
    },
    {
      "channel": 4,
      "note": 80,
      "start": 10.1934,
      "duration": 0.1661,
      "velocity": 117,
      "chip": "ym2612"
    },
    {
      "channel": 0,
      "note": 42,
      "start": 10.275,
      "duration": 0.2474,
      "velocity": 117,
      "chip": "ym2612"
    },
    {
      "channel": 1,
      "note": 42,
      "start": 10.2751,
      "duration": 0.2474,
      "velocity": 117,
      "chip": "ym2612"
    },
    {
      "channel": 2,
      "note": 42,
      "start": 10.2752,
      "duration": 0.2115,
      "velocity": 91,
      "chip": "ym2612"
    },
    {
      "channel": 3,
      "note": 36,
      "start": 10.2753,
      "duration": 0.0115,
      "velocity": 101,
      "chip": "ym2612"
    },
    {
      "channel": 3,
      "note": 43,
      "start": 10.3595,
      "duration": 0.0273,
      "velocity": 127,
      "chip": "ym2612"
    },
    {
      "channel": 4,
      "note": 102,
      "start": 10.3596,
      "duration": 0.3408,
      "velocity": 97,
      "chip": "ym2612"
    },
    {
      "channel": 3,
      "note": 43,
      "start": 10.4373,
      "duration": 0.0328,
      "velocity": 127,
      "chip": "ym2612"
    },
    {
      "channel": 0,
      "note": 42,
      "start": 10.5225,
      "duration": 0.1775,
      "velocity": 117,
      "chip": "ym2612"
    },
    {
      "channel": 1,
      "note": 42,
      "start": 10.5226,
      "duration": 0.1776,
      "velocity": 117,
      "chip": "ym2612"
    },
    {
      "channel": 2,
      "note": 42,
      "start": 10.5227,
      "duration": 0.1307,
      "velocity": 91,
      "chip": "ym2612"
    },
    {
      "channel": 3,
      "note": 43,
      "start": 10.5227,
      "duration": 0.0307,
      "velocity": 127,
      "chip": "ym2612"
    },
    {
      "channel": 3,
      "note": 43,
      "start": 10.604,
      "duration": 0.0328,
      "velocity": 127,
      "chip": "ym2612"
    },
    {
      "channel": 0,
      "note": 44,
      "start": 10.7001,
      "duration": 0.0894,
      "velocity": 117,
      "chip": "ym2612"
    },
    {
      "channel": 1,
      "note": 44,
      "start": 10.7002,
      "duration": 0.0894,
      "velocity": 117,
      "chip": "ym2612"
    },
    {
      "channel": 2,
      "note": 56,
      "start": 10.7003,
      "duration": 0.1365,
      "velocity": 91,
      "chip": "ym2612"
    },
    {
      "channel": 3,
      "note": 36,
      "start": 10.7003,
      "duration": 0.0198,
      "velocity": 101,
      "chip": "ym2612"
    },
    {
      "channel": 4,
      "note": 90,
      "start": 10.7004,
      "duration": 0.0697,
      "velocity": 97,
      "chip": "ym2612"
    },
    {
      "channel": 0,
      "note": 44,
      "start": 10.7896,
      "duration": 0.0872,
      "velocity": 117,
      "chip": "ym2612"
    },
    {
      "channel": 1,
      "note": 44,
      "start": 10.7897,
      "duration": 0.0872,
      "velocity": 117,
      "chip": "ym2612"
    },
    {
      "channel": 3,
      "note": 36,
      "start": 10.7898,
      "duration": 0.0137,
      "velocity": 101,
      "chip": "ym2612"
    },
    {
      "channel": 4,
      "note": 58,
      "start": 10.7898,
      "duration": 0.0636,
      "velocity": 97,
      "chip": "ym2612"
    },
    {
      "channel": 0,
      "note": 44,
      "start": 10.8769,
      "duration": 0.0794,
      "velocity": 117,
      "chip": "ym2612"
    },
    {
      "channel": 1,
      "note": 44,
      "start": 10.8769,
      "duration": 0.0795,
      "velocity": 117,
      "chip": "ym2612"
    },
    {
      "channel": 2,
      "note": 56,
      "start": 10.877,
      "duration": 0.0598,
      "velocity": 91,
      "chip": "ym2612"
    },
    {
      "channel": 3,
      "note": 43,
      "start": 10.8771,
      "duration": 0.0794,
      "velocity": 127,
      "chip": "ym2612"
    },
    {
      "channel": 4,
      "note": 60,
      "start": 10.8771,
      "duration": 0.0598,
      "velocity": 97,
      "chip": "ym2612"
    },
    {
      "channel": 0,
      "note": 44,
      "start": 10.9563,
      "duration": 0.1671,
      "velocity": 117,
      "chip": "ym2612"
    },
    {
      "channel": 1,
      "note": 44,
      "start": 10.9564,
      "duration": 0.1671,
      "velocity": 117,
      "chip": "ym2612"
    },
    {
      "channel": 2,
      "note": 56,
      "start": 10.9565,
      "duration": 0.0637,
      "velocity": 91,
      "chip": "ym2612"
    },
    {
      "channel": 4,
      "note": 62,
      "start": 10.9566,
      "duration": 0.0637,
      "velocity": 97,
      "chip": "ym2612"
    },
    {
      "channel": 2,
      "note": 56,
      "start": 11.0422,
      "duration": 0.0613,
      "velocity": 91,
      "chip": "ym2612"
    },
    {
      "channel": 3,
      "note": 36,
      "start": 11.0423,
      "duration": 0.0112,
      "velocity": 101,
      "chip": "ym2612"
    },
    {
      "channel": 4,
      "note": 65,
      "start": 11.0423,
      "duration": 0.0612,
      "velocity": 97,
      "chip": "ym2612"
    },
    {
      "channel": 0,
      "note": 42,
      "start": 11.1234,
      "duration": 0.086,
      "velocity": 117,
      "chip": "ym2612"
    },
    {
      "channel": 1,
      "note": 42,
      "start": 11.1235,
      "duration": 0.086,
      "velocity": 117,
      "chip": "ym2612"
    },
    {
      "channel": 2,
      "note": 56,
      "start": 11.1236,
      "duration": 0.0632,
      "velocity": 91,
      "chip": "ym2612"
    },
    {
      "channel": 3,
      "note": 36,
      "start": 11.1237,
      "duration": 0.0131,
      "velocity": 101,
      "chip": "ym2612"
    },
    {
      "channel": 4,
      "note": 67,
      "start": 11.1237,
      "duration": 0.0632,
      "velocity": 97,
      "chip": "ym2612"
    },
    {
      "channel": 0,
      "note": 44,
      "start": 11.2095,
      "duration": 0.1686,
      "velocity": 117,
      "chip": "ym2612"
    },
    {
      "channel": 1,
      "note": 44,
      "start": 11.2096,
      "duration": 0.1686,
      "velocity": 117,
      "chip": "ym2612"
    },
    {
      "channel": 2,
      "note": 56,
      "start": 11.2096,
      "duration": 0.0605,
      "velocity": 91,
      "chip": "ym2612"
    },
    {
      "channel": 3,
      "note": 43,
      "start": 11.2097,
      "duration": 0.0786,
      "velocity": 127,
      "chip": "ym2612"
    },
    {
      "channel": 4,
      "note": 70,
      "start": 11.2098,
      "duration": 0.0605,
      "velocity": 97,
      "chip": "ym2612"
    },
    {
      "channel": 2,
      "note": 56,
      "start": 11.2883,
      "duration": 0.0652,
      "velocity": 91,
      "chip": "ym2612"
    },
    {
      "channel": 4,
      "note": 72,
      "start": 11.2885,
      "duration": 0.0651,
      "velocity": 97,
      "chip": "ym2612"
    },
    {
      "channel": 0,
      "note": 44,
      "start": 11.3781,
      "duration": 0.078,
      "velocity": 117,
      "chip": "ym2612"
    },
    {
      "channel": 1,
      "note": 44,
      "start": 11.3782,
      "duration": 0.0781,
      "velocity": 117,
      "chip": "ym2612"
    },
    {
      "channel": 2,
      "note": 56,
      "start": 11.3783,
      "duration": 0.1251,
      "velocity": 91,
      "chip": "ym2612"
    },
    {
      "channel": 3,
      "note": 36,
      "start": 11.3784,
      "duration": 0.0084,
      "velocity": 101,
      "chip": "ym2612"
    },
    {
      "channel": 4,
      "note": 74,
      "start": 11.3784,
      "duration": 0.0583,
      "velocity": 97,
      "chip": "ym2612"
    },
    {
      "channel": 0,
      "note": 44,
      "start": 11.4563,
      "duration": 0.0872,
      "velocity": 117,
      "chip": "ym2612"
    },
    {
      "channel": 1,
      "note": 44,
      "start": 11.4564,
      "duration": 0.0872,
      "velocity": 117,
      "chip": "ym2612"
    },
    {
      "channel": 3,
      "note": 36,
      "start": 11.4565,
      "duration": 0.0137,
      "velocity": 101,
      "chip": "ym2612"
    },
    {
      "channel": 4,
      "note": 74,
      "start": 11.4565,
      "duration": 0.0636,
      "velocity": 97,
      "chip": "ym2612"
    },
    {
      "channel": 0,
      "note": 44,
      "start": 11.5435,
      "duration": 0.0794,
      "velocity": 117,
      "chip": "ym2612"
    },
    {
      "channel": 1,
      "note": 44,
      "start": 11.5436,
      "duration": 0.0795,
      "velocity": 117,
      "chip": "ym2612"
    },
    {
      "channel": 2,
      "note": 56,
      "start": 11.5437,
      "duration": 0.0598,
      "velocity": 91,
      "chip": "ym2612"
    },
    {
      "channel": 3,
      "note": 43,
      "start": 11.5438,
      "duration": 0.0795,
      "velocity": 127,
      "chip": "ym2612"
    },
    {
      "channel": 4,
      "note": 74,
      "start": 11.5438,
      "duration": 0.0598,
      "velocity": 97,
      "chip": "ym2612"
    },
    {
      "channel": 0,
      "note": 44,
      "start": 11.623,
      "duration": 0.1671,
      "velocity": 117,
      "chip": "ym2612"
    },
    {
      "channel": 1,
      "note": 44,
      "start": 11.6231,
      "duration": 0.167,
      "velocity": 117,
      "chip": "ym2612"
    },
    {
      "channel": 2,
      "note": 56,
      "start": 11.6232,
      "duration": 0.0637,
      "velocity": 91,
      "chip": "ym2612"
    },
    {
      "channel": 4,
      "note": 77,
      "start": 11.6233,
      "duration": 0.0636,
      "velocity": 97,
      "chip": "ym2612"
    },
    {
      "channel": 2,
      "note": 56,
      "start": 11.7089,
      "duration": 0.0612,
      "velocity": 91,
      "chip": "ym2612"
    },
    {
      "channel": 3,
      "note": 36,
      "start": 11.709,
      "duration": 0.0111,
      "velocity": 101,
      "chip": "ym2612"
    },
    {
      "channel": 4,
      "note": 77,
      "start": 11.7091,
      "duration": 0.0612,
      "velocity": 97,
      "chip": "ym2612"
    },
    {
      "channel": 0,
      "note": 42,
      "start": 11.7901,
      "duration": 0.086,
      "velocity": 117,
      "chip": "ym2612"
    },
    {
      "channel": 1,
      "note": 42,
      "start": 11.7902,
      "duration": 0.086,
      "velocity": 117,
      "chip": "ym2612"
    },
    {
      "channel": 2,
      "note": 56,
      "start": 11.7902,
      "duration": 0.0632,
      "velocity": 91,
      "chip": "ym2612"
    },
    {
      "channel": 3,
      "note": 36,
      "start": 11.7903,
      "duration": 0.0131,
      "velocity": 101,
      "chip": "ym2612"
    },
    {
      "channel": 4,
      "note": 77,
      "start": 11.7904,
      "duration": 0.0632,
      "velocity": 97,
      "chip": "ym2612"
    },
    {
      "channel": 0,
      "note": 44,
      "start": 11.8761,
      "duration": 0.1698,
      "velocity": 117,
      "chip": "ym2612"
    },
    {
      "channel": 1,
      "note": 44,
      "start": 11.8762,
      "duration": 0.1697,
      "velocity": 117,
      "chip": "ym2612"
    },
    {
      "channel": 2,
      "note": 56,
      "start": 11.8763,
      "duration": 0.0605,
      "velocity": 91,
      "chip": "ym2612"
    },
    {
      "channel": 3,
      "note": 43,
      "start": 11.8764,
      "duration": 0.0787,
      "velocity": 127,
      "chip": "ym2612"
    },
    {
      "channel": 4,
      "note": 79,
      "start": 11.8764,
      "duration": 0.0605,
      "velocity": 97,
      "chip": "ym2612"
    },
    {
      "channel": 2,
      "note": 56,
      "start": 11.955,
      "duration": 0.0652,
      "velocity": 91,
      "chip": "ym2612"
    },
    {
      "channel": 4,
      "note": 82,
      "start": 11.9551,
      "duration": 0.0651,
      "velocity": 97,
      "chip": "ym2612"
    },
    {
      "channel": 0,
      "note": 44,
      "start": 12.0459,
      "duration": 0.076,
      "velocity": 117,
      "chip": "ym2612"
    },
    {
      "channel": 1,
      "note": 44,
      "start": 12.046,
      "duration": 0.076,
      "velocity": 117,
      "chip": "ym2612"
    },
    {
      "channel": 2,
      "note": 56,
      "start": 12.0461,
      "duration": 0.1241,
      "velocity": 91,
      "chip": "ym2612"
    },
    {
      "channel": 3,
      "note": 36,
      "start": 12.0461,
      "duration": 0.0073,
      "velocity": 101,
      "chip": "ym2612"
    },
    {
      "channel": 4,
      "note": 85,
      "start": 12.0462,
      "duration": 1.16,
      "velocity": 97,
      "chip": "ym2612"
    },
    {
      "channel": 0,
      "note": 44,
      "start": 12.122,
      "duration": 0.0842,
      "velocity": 117,
      "chip": "ym2612"
    },
    {
      "channel": 1,
      "note": 44,
      "start": 12.122,
      "duration": 0.0842,
      "velocity": 117,
      "chip": "ym2612"
    },
    {
      "channel": 3,
      "note": 36,
      "start": 12.1222,
      "duration": 0.0146,
      "velocity": 101,
      "chip": "ym2612"
    },
    {
      "channel": 0,
      "note": 44,
      "start": 12.2063,
      "duration": 0.0856,
      "velocity": 117,
      "chip": "ym2612"
    },
    {
      "channel": 1,
      "note": 44,
      "start": 12.2063,
      "duration": 0.0856,
      "velocity": 117,
      "chip": "ym2612"
    },
    {
      "channel": 2,
      "note": 56,
      "start": 12.2064,
      "duration": 0.0637,
      "velocity": 91,
      "chip": "ym2612"
    },
    {
      "channel": 0,
      "note": 44,
      "start": 12.2919,
      "duration": 0.1663,
      "velocity": 117,
      "chip": "ym2612"
    },
    {
      "channel": 1,
      "note": 44,
      "start": 12.292,
      "duration": 0.1663,
      "velocity": 117,
      "chip": "ym2612"
    },
    {
      "channel": 2,
      "note": 56,
      "start": 12.292,
      "duration": 0.0615,
      "velocity": 91,
      "chip": "ym2612"
    },
    {
      "channel": 3,
      "note": 43,
      "start": 12.2921,
      "duration": 0.0797,
      "velocity": 127,
      "chip": "ym2612"
    },
    {
      "channel": 2,
      "note": 56,
      "start": 12.3718,
      "duration": 0.0651,
      "velocity": 91,
      "chip": "ym2612"
    },
    {
      "channel": 0,
      "note": 42,
      "start": 12.4583,
      "duration": 0.0835,
      "velocity": 117,
      "chip": "ym2612"
    },
    {
      "channel": 1,
      "note": 42,
      "start": 12.4584,
      "duration": 0.0835,
      "velocity": 117,
      "chip": "ym2612"
    },
    {
      "channel": 2,
      "note": 56,
      "start": 12.4584,
      "duration": 0.0617,
      "velocity": 91,
      "chip": "ym2612"
    },
    {
      "channel": 3,
      "note": 36,
      "start": 12.4585,
      "duration": 0.0117,
      "velocity": 101,
      "chip": "ym2612"
    },
    {
      "channel": 0,
      "note": 44,
      "start": 12.5419,
      "duration": 0.1669,
      "velocity": 117,
      "chip": "ym2612"
    },
    {
      "channel": 1,
      "note": 44,
      "start": 12.542,
      "duration": 0.1669,
      "velocity": 117,
      "chip": "ym2612"
    },
    {
      "channel": 2,
      "note": 56,
      "start": 12.542,
      "duration": 0.0615,
      "velocity": 91,
      "chip": "ym2612"
    },
    {
      "channel": 3,
      "note": 43,
      "start": 12.5421,
      "duration": 0.0787,
      "velocity": 127,
      "chip": "ym2612"
    },
    {
      "channel": 2,
      "note": 56,
      "start": 12.6207,
      "duration": 0.0661,
      "velocity": 91,
      "chip": "ym2612"
    },
    {
      "channel": 0,
      "note": 45,
      "start": 12.7089,
      "duration": 0.0821,
      "velocity": 117,
      "chip": "ym2612"
    },
    {
      "channel": 1,
      "note": 45,
      "start": 12.7089,
      "duration": 0.0821,
      "velocity": 117,
      "chip": "ym2612"
    },
    {
      "channel": 2,
      "note": 45,
      "start": 12.709,
      "duration": 0.2277,
      "velocity": 91,
      "chip": "ym2612"
    },
    {
      "channel": 3,
      "note": 43,
      "start": 12.7091,
      "duration": 0.0277,
      "velocity": 127,
      "chip": "ym2612"
    },
    {
      "channel": 0,
      "note": 45,
      "start": 12.7911,
      "duration": 0.0839,
      "velocity": 117,
      "chip": "ym2612"
    },
    {
      "channel": 1,
      "note": 45,
      "start": 12.7911,
      "duration": 0.084,
      "velocity": 117,
      "chip": "ym2612"
    },
    {
      "channel": 3,
      "note": 36,
      "start": 12.7912,
      "duration": 0.0123,
      "velocity": 101,
      "chip": "ym2612"
    },
    {
      "channel": 0,
      "note": 45,
      "start": 12.875,
      "duration": 0.0833,
      "velocity": 117,
      "chip": "ym2612"
    },
    {
      "channel": 1,
      "note": 45,
      "start": 12.8751,
      "duration": 0.0833,
      "velocity": 117,
      "chip": "ym2612"
    },
    {
      "channel": 3,
      "note": 43,
      "start": 12.8752,
      "duration": 0.0283,
      "velocity": 127,
      "chip": "ym2612"
    },
    {
      "channel": 0,
      "note": 42,
      "start": 12.9584,
      "duration": 0.2475,
      "velocity": 117,
      "chip": "ym2612"
    },
    {
      "channel": 1,
      "note": 42,
      "start": 12.9585,
      "duration": 0.2475,
      "velocity": 117,
      "chip": "ym2612"
    },
    {
      "channel": 2,
      "note": 42,
      "start": 12.9585,
      "duration": 0.2115,
      "velocity": 91,
      "chip": "ym2612"
    },
    {
      "channel": 3,
      "note": 36,
      "start": 12.9586,
      "duration": 0.0115,
      "velocity": 101,
      "chip": "ym2612"
    },
    {
      "channel": 3,
      "note": 43,
      "start": 13.0414,
      "duration": 0.0288,
      "velocity": 127,
      "chip": "ym2612"
    },
    {
      "channel": 3,
      "note": 43,
      "start": 13.1206,
      "duration": 0.0328,
      "velocity": 127,
      "chip": "ym2612"
    },
    {
      "channel": 0,
      "note": 42,
      "start": 13.2059,
      "duration": 0.174,
      "velocity": 117,
      "chip": "ym2612"
    },
    {
      "channel": 1,
      "note": 42,
      "start": 13.206,
      "duration": 0.174,
      "velocity": 117,
      "chip": "ym2612"
    },
    {
      "channel": 2,
      "note": 42,
      "start": 13.2061,
      "duration": 0.1307,
      "velocity": 91,
      "chip": "ym2612"
    },
    {
      "channel": 3,
      "note": 43,
      "start": 13.2061,
      "duration": 0.0306,
      "velocity": 127,
      "chip": "ym2612"
    },
    {
      "channel": 3,
      "note": 43,
      "start": 13.2872,
      "duration": 0.0329,
      "velocity": 127,
      "chip": "ym2612"
    },
    {
      "channel": 0,
      "note": 44,
      "start": 13.3799,
      "duration": 0.0758,
      "velocity": 117,
      "chip": "ym2612"
    },
    {
      "channel": 1,
      "note": 44,
      "start": 13.38,
      "duration": 0.0758,
      "velocity": 117,
      "chip": "ym2612"
    },
    {
      "channel": 2,
      "note": 56,
      "start": 13.3801,
      "duration": 0.1232,
      "velocity": 91,
      "chip": "ym2612"
    },
    {
      "channel": 3,
      "note": 36,
      "start": 13.3802,
      "duration": 0.0066,
      "velocity": 101,
      "chip": "ym2612"
    },
    {
      "channel": 4,
      "note": 83,
      "start": 13.3802,
      "duration": 0.0565,
      "velocity": 97,
      "chip": "ym2612"
    },
    {
      "channel": 0,
      "note": 44,
      "start": 13.4558,
      "duration": 0.0872,
      "velocity": 117,
      "chip": "ym2612"
    },
    {
      "channel": 1,
      "note": 44,
      "start": 13.4559,
      "duration": 0.0872,
      "velocity": 117,
      "chip": "ym2612"
    },
    {
      "channel": 3,
      "note": 36,
      "start": 13.4559,
      "duration": 0.0141,
      "velocity": 101,
      "chip": "ym2612"
    },
    {
      "channel": 4,
      "note": 80,
      "start": 13.456,
      "duration": 0.0641,
      "velocity": 97,
      "chip": "ym2612"
    },
    {
      "channel": 0,
      "note": 44,
      "start": 13.543,
      "duration": 0.0794,
      "velocity": 117,
      "chip": "ym2612"
    },
    {
      "channel": 1,
      "note": 44,
      "start": 13.5431,
      "duration": 0.0794,
      "velocity": 117,
      "chip": "ym2612"
    },
    {
      "channel": 2,
      "note": 56,
      "start": 13.5432,
      "duration": 0.0602,
      "velocity": 91,
      "chip": "ym2612"
    },
    {
      "channel": 3,
      "note": 43,
      "start": 13.5432,
      "duration": 0.0795,
      "velocity": 127,
      "chip": "ym2612"
    },
    {
      "channel": 4,
      "note": 78,
      "start": 13.5433,
      "duration": 0.0602,
      "velocity": 97,
      "chip": "ym2612"
    },
    {
      "channel": 0,
      "note": 44,
      "start": 13.6225,
      "duration": 0.1671,
      "velocity": 117,
      "chip": "ym2612"
    },
    {
      "channel": 1,
      "note": 44,
      "start": 13.6225,
      "duration": 0.1671,
      "velocity": 117,
      "chip": "ym2612"
    },
    {
      "channel": 2,
      "note": 56,
      "start": 13.6226,
      "duration": 0.0642,
      "velocity": 91,
      "chip": "ym2612"
    },
    {
      "channel": 4,
      "note": 75,
      "start": 13.6227,
      "duration": 0.0641,
      "velocity": 97,
      "chip": "ym2612"
    },
    {
      "channel": 2,
      "note": 56,
      "start": 13.7084,
      "duration": 0.0617,
      "velocity": 91,
      "chip": "ym2612"
    },
    {
      "channel": 3,
      "note": 36,
      "start": 13.7084,
      "duration": 0.0117,
      "velocity": 101,
      "chip": "ym2612"
    },
    {
      "channel": 4,
      "note": 78,
      "start": 13.7085,
      "duration": 0.0617,
      "velocity": 97,
      "chip": "ym2612"
    },
    {
      "channel": 0,
      "note": 42,
      "start": 13.7896,
      "duration": 0.0859,
      "velocity": 117,
      "chip": "ym2612"
    },
    {
      "channel": 1,
      "note": 42,
      "start": 13.7897,
      "duration": 0.0859,
      "velocity": 117,
      "chip": "ym2612"
    },
    {
      "channel": 2,
      "note": 56,
      "start": 13.7897,
      "duration": 0.0637,
      "velocity": 91,
      "chip": "ym2612"
    },
    {
      "channel": 3,
      "note": 36,
      "start": 13.7898,
      "duration": 0.0135,
      "velocity": 101,
      "chip": "ym2612"
    },
    {
      "channel": 4,
      "note": 73,
      "start": 13.7898,
      "duration": 0.0636,
      "velocity": 97,
      "chip": "ym2612"
    },
    {
      "channel": 0,
      "note": 44,
      "start": 13.8756,
      "duration": 0.1686,
      "velocity": 117,
      "chip": "ym2612"
    },
    {
      "channel": 1,
      "note": 44,
      "start": 13.8757,
      "duration": 0.1686,
      "velocity": 117,
      "chip": "ym2612"
    },
    {
      "channel": 2,
      "note": 56,
      "start": 13.8757,
      "duration": 0.061,
      "velocity": 91,
      "chip": "ym2612"
    },
    {
      "channel": 3,
      "note": 43,
      "start": 13.8758,
      "duration": 0.0787,
      "velocity": 127,
      "chip": "ym2612"
    },
    {
      "channel": 4,
      "note": 75,
      "start": 13.8759,
      "duration": 0.061,
      "velocity": 97,
      "chip": "ym2612"
    },
    {
      "channel": 2,
      "note": 56,
      "start": 13.9544,
      "duration": 0.0657,
      "velocity": 91,
      "chip": "ym2612"
    },
    {
      "channel": 4,
      "note": 73,
      "start": 13.9545,
      "duration": 0.0656,
      "velocity": 97,
      "chip": "ym2612"
    },
    {
      "channel": 0,
      "note": 44,
      "start": 14.0443,
      "duration": 0.078,
      "velocity": 117,
      "chip": "ym2612"
    },
    {
      "channel": 1,
      "note": 44,
      "start": 14.0444,
      "duration": 0.0781,
      "velocity": 117,
      "chip": "ym2612"
    },
    {
      "channel": 2,
      "note": 56,
      "start": 14.0444,
      "duration": 0.1256,
      "velocity": 91,
      "chip": "ym2612"
    },
    {
      "channel": 3,
      "note": 36,
      "start": 14.0445,
      "duration": 0.0089,
      "velocity": 101,
      "chip": "ym2612"
    },
    {
      "channel": 4,
      "note": 71,
      "start": 14.0446,
      "duration": 0.0588,
      "velocity": 97,
      "chip": "ym2612"
    },
    {
      "channel": 0,
      "note": 44,
      "start": 14.1224,
      "duration": 0.0872,
      "velocity": 117,
      "chip": "ym2612"
    },
    {
      "channel": 1,
      "note": 44,
      "start": 14.1225,
      "duration": 0.0872,
      "velocity": 117,
      "chip": "ym2612"
    },
    {
      "channel": 3,
      "note": 36,
      "start": 14.1226,
      "duration": 0.0141,
      "velocity": 101,
      "chip": "ym2612"
    },
    {
      "channel": 4,
      "note": 68,
      "start": 14.1227,
      "duration": 0.0641,
      "velocity": 97,
      "chip": "ym2612"
    },
    {
      "channel": 0,
      "note": 44,
      "start": 14.2097,
      "duration": 0.0794,
      "velocity": 117,
      "chip": "ym2612"
    },
    {
      "channel": 1,
      "note": 44,
      "start": 14.2098,
      "duration": 0.0794,
      "velocity": 117,
      "chip": "ym2612"
    },
    {
      "channel": 2,
      "note": 56,
      "start": 14.2098,
      "duration": 0.0602,
      "velocity": 91,
      "chip": "ym2612"
    },
    {
      "channel": 3,
      "note": 43,
      "start": 14.2099,
      "duration": 0.0795,
      "velocity": 127,
      "chip": "ym2612"
    },
    {
      "channel": 4,
      "note": 66,
      "start": 14.21,
      "duration": 0.0602,
      "velocity": 97,
      "chip": "ym2612"
    },
    {
      "channel": 0,
      "note": 44,
      "start": 14.2891,
      "duration": 0.1671,
      "velocity": 117,
      "chip": "ym2612"
    },
    {
      "channel": 1,
      "note": 44,
      "start": 14.2892,
      "duration": 0.1671,
      "velocity": 117,
      "chip": "ym2612"
    },
    {
      "channel": 2,
      "note": 56,
      "start": 14.2893,
      "duration": 0.0641,
      "velocity": 91,
      "chip": "ym2612"
    },
    {
      "channel": 4,
      "note": 63,
      "start": 14.2894,
      "duration": 0.0641,
      "velocity": 97,
      "chip": "ym2612"
    },
    {
      "channel": 2,
      "note": 56,
      "start": 14.375,
      "duration": 0.0617,
      "velocity": 91,
      "chip": "ym2612"
    },
    {
      "channel": 3,
      "note": 36,
      "start": 14.3751,
      "duration": 0.0117,
      "velocity": 101,
      "chip": "ym2612"
    },
    {
      "channel": 4,
      "note": 61,
      "start": 14.3751,
      "duration": 0.0617,
      "velocity": 97,
      "chip": "ym2612"
    },
    {
      "channel": 0,
      "note": 42,
      "start": 14.4562,
      "duration": 0.0861,
      "velocity": 117,
      "chip": "ym2612"
    },
    {
      "channel": 1,
      "note": 42,
      "start": 14.4563,
      "duration": 0.086,
      "velocity": 117,
      "chip": "ym2612"
    },
    {
      "channel": 2,
      "note": 56,
      "start": 14.4564,
      "duration": 0.0637,
      "velocity": 91,
      "chip": "ym2612"
    },
    {
      "channel": 3,
      "note": 36,
      "start": 14.4565,
      "duration": 0.0135,
      "velocity": 101,
      "chip": "ym2612"
    },
    {
      "channel": 4,
      "note": 59,
      "start": 14.4565,
      "duration": 0.0636,
      "velocity": 97,
      "chip": "ym2612"
    },
    {
      "channel": 0,
      "note": 44,
      "start": 14.5423,
      "duration": 0.1694,
      "velocity": 117,
      "chip": "ym2612"
    },
    {
      "channel": 1,
      "note": 44,
      "start": 14.5424,
      "duration": 0.1694,
      "velocity": 117,
      "chip": "ym2612"
    },
    {
      "channel": 2,
      "note": 56,
      "start": 14.5424,
      "duration": 0.0609,
      "velocity": 91,
      "chip": "ym2612"
    },
    {
      "channel": 3,
      "note": 43,
      "start": 14.5425,
      "duration": 0.0786,
      "velocity": 127,
      "chip": "ym2612"
    },
    {
      "channel": 4,
      "note": 56,
      "start": 14.5426,
      "duration": 0.1443,
      "velocity": 97,
      "chip": "ym2612"
    },
    {
      "channel": 2,
      "note": 56,
      "start": 14.6211,
      "duration": 0.0657,
      "velocity": 91,
      "chip": "ym2612"
    },
    {
      "channel": 0,
      "note": 44,
      "start": 14.7117,
      "duration": 0.0772,
      "velocity": 117,
      "chip": "ym2612"
    },
    {
      "channel": 1,
      "note": 44,
      "start": 14.7119,
      "duration": 0.0772,
      "velocity": 117,
      "chip": "ym2612"
    },
    {
      "channel": 2,
      "note": 56,
      "start": 14.7119,
      "duration": 0.1247,
      "velocity": 91,
      "chip": "ym2612"
    },
    {
      "channel": 3,
      "note": 36,
      "start": 14.712,
      "duration": 0.0081,
      "velocity": 101,
      "chip": "ym2612"
    },
    {
      "channel": 4,
      "note": 59,
      "start": 14.712,
      "duration": 0.058,
      "velocity": 97,
      "chip": "ym2612"
    },
    {
      "channel": 0,
      "note": 44,
      "start": 14.789,
      "duration": 0.0842,
      "velocity": 117,
      "chip": "ym2612"
    },
    {
      "channel": 1,
      "note": 44,
      "start": 14.7891,
      "duration": 0.0842,
      "velocity": 117,
      "chip": "ym2612"
    },
    {
      "channel": 3,
      "note": 36,
      "start": 14.7892,
      "duration": 0.0142,
      "velocity": 101,
      "chip": "ym2612"
    },
    {
      "channel": 4,
      "note": 61,
      "start": 14.7893,
      "duration": 0.0641,
      "velocity": 97,
      "chip": "ym2612"
    },
    {
      "channel": 0,
      "note": 44,
      "start": 14.8733,
      "duration": 0.0856,
      "velocity": 117,
      "chip": "ym2612"
    },
    {
      "channel": 1,
      "note": 44,
      "start": 14.8734,
      "duration": 0.0856,
      "velocity": 117,
      "chip": "ym2612"
    },
    {
      "channel": 2,
      "note": 56,
      "start": 14.8734,
      "duration": 0.0633,
      "velocity": 91,
      "chip": "ym2612"
    },
    {
      "channel": 4,
      "note": 63,
      "start": 14.8735,
      "duration": 0.0633,
      "velocity": 97,
      "chip": "ym2612"
    },
    {
      "channel": 0,
      "note": 44,
      "start": 14.9589,
      "duration": 0.1664,
      "velocity": 117,
      "chip": "ym2612"
    },
    {
      "channel": 1,
      "note": 44,
      "start": 14.959,
      "duration": 0.1664,
      "velocity": 117,
      "chip": "ym2612"
    },
    {
      "channel": 2,
      "note": 56,
      "start": 14.9591,
      "duration": 0.061,
      "velocity": 91,
      "chip": "ym2612"
    },
    {
      "channel": 3,
      "note": 43,
      "start": 14.9591,
      "duration": 0.0797,
      "velocity": 127,
      "chip": "ym2612"
    },
    {
      "channel": 4,
      "note": 66,
      "start": 14.9592,
      "duration": 0.061,
      "velocity": 97,
      "chip": "ym2612"
    },
    {
      "channel": 2,
      "note": 56,
      "start": 15.0388,
      "duration": 0.0647,
      "velocity": 91,
      "chip": "ym2612"
    },
    {
      "channel": 4,
      "note": 68,
      "start": 15.0389,
      "duration": 0.0646,
      "velocity": 97,
      "chip": "ym2612"
    },
    {
      "channel": 0,
      "note": 42,
      "start": 15.1254,
      "duration": 0.0835,
      "velocity": 117,
      "chip": "ym2612"
    },
    {
      "channel": 1,
      "note": 42,
      "start": 15.1255,
      "duration": 0.0835,
      "velocity": 117,
      "chip": "ym2612"
    },
    {
      "channel": 2,
      "note": 56,
      "start": 15.1255,
      "duration": 0.0612,
      "velocity": 91,
      "chip": "ym2612"
    },
    {
      "channel": 3,
      "note": 36,
      "start": 15.1256,
      "duration": 0.0111,
      "velocity": 101,
      "chip": "ym2612"
    },
    {
      "channel": 4,
      "note": 71,
      "start": 15.1257,
      "duration": 0.0611,
      "velocity": 97,
      "chip": "ym2612"
    },
    {
      "channel": 0,
      "note": 44,
      "start": 15.2089,
      "duration": 0.1669,
      "velocity": 117,
      "chip": "ym2612"
    },
    {
      "channel": 1,
      "note": 44,
      "start": 15.209,
      "duration": 0.1669,
      "velocity": 117,
      "chip": "ym2612"
    },
    {
      "channel": 2,
      "note": 56,
      "start": 15.2091,
      "duration": 0.061,
      "velocity": 91,
      "chip": "ym2612"
    },
    {
      "channel": 3,
      "note": 43,
      "start": 15.2091,
      "duration": 0.0787,
      "velocity": 127,
      "chip": "ym2612"
    },
    {
      "channel": 4,
      "note": 73,
      "start": 15.2092,
      "duration": 0.061,
      "velocity": 97,
      "chip": "ym2612"
    },
    {
      "channel": 2,
      "note": 56,
      "start": 15.2878,
      "duration": 0.0657,
      "velocity": 91,
      "chip": "ym2612"
    },
    {
      "channel": 4,
      "note": 75,
      "start": 15.2879,
      "duration": 0.0656,
      "velocity": 97,
      "chip": "ym2612"
    },
    {
      "channel": 0,
      "note": 45,
      "start": 15.3759,
      "duration": 0.0821,
      "velocity": 117,
      "chip": "ym2612"
    },
    {
      "channel": 1,
      "note": 45,
      "start": 15.376,
      "duration": 0.0821,
      "velocity": 117,
      "chip": "ym2612"
    },
    {
      "channel": 2,
      "note": 45,
      "start": 15.3761,
      "duration": 0.2273,
      "velocity": 91,
      "chip": "ym2612"
    },
    {
      "channel": 3,
      "note": 43,
      "start": 15.3761,
      "duration": 0.0272,
      "velocity": 127,
      "chip": "ym2612"
    },
    {
      "channel": 4,
      "note": 73,
      "start": 15.3762,
      "duration": 0.0605,
      "velocity": 97,
      "chip": "ym2612"
    },
    {
      "channel": 0,
      "note": 45,
      "start": 15.458,
      "duration": 0.084,
      "velocity": 117,
      "chip": "ym2612"
    },
    {
      "channel": 1,
      "note": 45,
      "start": 15.4582,
      "duration": 0.084,
      "velocity": 117,
      "chip": "ym2612"
    },
    {
      "channel": 3,
      "note": 36,
      "start": 15.4582,
      "duration": 0.0118,
      "velocity": 101,
      "chip": "ym2612"
    },
    {
      "channel": 4,
      "note": 75,
      "start": 15.4583,
      "duration": 0.0617,
      "velocity": 97,
      "chip": "ym2612"
    },
    {
      "channel": 0,
      "note": 45,
      "start": 15.5421,
      "duration": 0.0833,
      "velocity": 117,
      "chip": "ym2612"
    },
    {
      "channel": 1,
      "note": 45,
      "start": 15.5421,
      "duration": 0.0833,
      "velocity": 117,
      "chip": "ym2612"
    },
    {
      "channel": 3,
      "note": 43,
      "start": 15.5423,
      "duration": 0.0277,
      "velocity": 127,
      "chip": "ym2612"
    },
    {
      "channel": 4,
      "note": 78,
      "start": 15.5423,
      "duration": 0.0611,
      "velocity": 97,
      "chip": "ym2612"
    },
    {
      "channel": 0,
      "note": 42,
      "start": 15.6254,
      "duration": 0.2475,
      "velocity": 117,
      "chip": "ym2612"
    },
    {
      "channel": 1,
      "note": 42,
      "start": 15.6255,
      "duration": 0.2475,
      "velocity": 117,
      "chip": "ym2612"
    },
    {
      "channel": 2,
      "note": 42,
      "start": 15.6255,
      "duration": 0.2111,
      "velocity": 91,
      "chip": "ym2612"
    },
    {
      "channel": 3,
      "note": 36,
      "start": 15.6257,
      "duration": 0.011,
      "velocity": 101,
      "chip": "ym2612"
    },
    {
      "channel": 4,
      "note": 75,
      "start": 15.6257,
      "duration": 0.061,
      "velocity": 97,
      "chip": "ym2612"
    },
    {
      "channel": 3,
      "note": 43,
      "start": 15.7084,
      "duration": 0.0283,
      "velocity": 127,
      "chip": "ym2612"
    },
    {
      "channel": 4,
      "note": 78,
      "start": 15.7085,
      "duration": 0.0615,
      "velocity": 97,
      "chip": "ym2612"
    },
    {
      "channel": 3,
      "note": 43,
      "start": 15.7877,
      "duration": 0.0323,
      "velocity": 127,
      "chip": "ym2612"
    },
    {
      "channel": 4,
      "note": 80,
      "start": 15.7878,
      "duration": 0.0656,
      "velocity": 97,
      "chip": "ym2612"
    },
    {
      "channel": 0,
      "note": 42,
      "start": 15.8729,
      "duration": 0.1735,
      "velocity": 117,
      "chip": "ym2612"
    },
    {
      "channel": 1,
      "note": 42,
      "start": 15.8731,
      "duration": 0.1735,
      "velocity": 117,
      "chip": "ym2612"
    },
    {
      "channel": 2,
      "note": 42,
      "start": 15.8731,
      "duration": 0.1301,
      "velocity": 91,
      "chip": "ym2612"
    },
    {
      "channel": 3,
      "note": 43,
      "start": 15.8732,
      "duration": 0.0302,
      "velocity": 127,
      "chip": "ym2612"
    },
    {
      "channel": 4,
      "note": 83,
      "start": 15.8732,
      "duration": 0.0634,
      "velocity": 97,
      "chip": "ym2612"
    },
    {
      "channel": 3,
      "note": 43,
      "start": 15.9543,
      "duration": 0.0324,
      "velocity": 127,
      "chip": "ym2612"
    },
    {
      "channel": 4,
      "note": 85,
      "start": 15.9544,
      "duration": 1.1658,
      "velocity": 97,
      "chip": "ym2612"
    },
    {
      "channel": 0,
      "note": 61,
      "start": 16.0465,
      "duration": 1.3292,
      "velocity": 117,
      "chip": "ym2612"
    },
    {
      "channel": 1,
      "note": 61,
      "start": 16.0466,
      "duration": 0.3271,
      "velocity": 117,
      "chip": "ym2612"
    },
    {
      "channel": 2,
      "note": 49,
      "start": 16.0467,
      "duration": 1.1595,
      "velocity": 91,
      "chip": "ym2612"
    },
    {
      "channel": 3,
      "note": 36,
      "start": 16.0468,
      "duration": 0.1066,
      "velocity": 101,
      "chip": "ym2612"
    },
    {
      "channel": 5,
      "note": 73,
      "start": 16.0468,
      "duration": 1.3292,
      "velocity": 109,
      "chip": "ym2612"
    },
    {
      "channel": 1,
      "note": 68,
      "start": 16.3738,
      "duration": 0.3303,
      "velocity": 117,
      "chip": "ym2612"
    },
    {
      "channel": 3,
      "note": 43,
      "start": 16.3739,
      "duration": 0.1628,
      "velocity": 127,
      "chip": "ym2612"
    },
    {
      "channel": 1,
      "note": 73,
      "start": 16.7042,
      "duration": 0.3363,
      "velocity": 117,
      "chip": "ym2612"
    },
    {
      "channel": 3,
      "note": 36,
      "start": 16.8729,
      "duration": 0.0471,
      "velocity": 101,
      "chip": "ym2612"
    },
    {
      "channel": 1,
      "note": 68,
      "start": 17.0405,
      "duration": 0.3353,
      "velocity": 117,
      "chip": "ym2612"
    },
    {
      "channel": 3,
      "note": 43,
      "start": 17.0405,
      "duration": 0.0795,
      "velocity": 127,
      "chip": "ym2612"
    },
    {
      "channel": 3,
      "note": 36,
      "start": 17.2063,
      "duration": 0.047,
      "velocity": 101,
      "chip": "ym2612"
    },
    {
      "channel": 4,
      "note": 84,
      "start": 17.2871,
      "duration": 1.1672,
      "velocity": 97,
      "chip": "ym2612"
    },
    {
      "channel": 0,
      "note": 60,
      "start": 17.3758,
      "duration": 1.3339,
      "velocity": 117,
      "chip": "ym2612"
    },
    {
      "channel": 1,
      "note": 60,
      "start": 17.3759,
      "duration": 0.3312,
      "velocity": 117,
      "chip": "ym2612"
    },
    {
      "channel": 2,
      "note": 48,
      "start": 17.3759,
      "duration": 1.1616,
      "velocity": 91,
      "chip": "ym2612"
    },
    {
      "channel": 3,
      "note": 36,
      "start": 17.376,
      "duration": 0.1107,
      "velocity": 101,
      "chip": "ym2612"
    },
    {
      "channel": 5,
      "note": 72,
      "start": 17.3761,
      "duration": 1.3339,
      "velocity": 109,
      "chip": "ym2612"
    },
    {
      "channel": 1,
      "note": 67,
      "start": 17.7071,
      "duration": 0.3309,
      "velocity": 117,
      "chip": "ym2612"
    },
    {
      "channel": 3,
      "note": 43,
      "start": 17.7072,
      "duration": 0.1628,
      "velocity": 127,
      "chip": "ym2612"
    },
    {
      "channel": 1,
      "note": 72,
      "start": 18.0381,
      "duration": 0.3334,
      "velocity": 117,
      "chip": "ym2612"
    },
    {
      "channel": 3,
      "note": 43,
      "start": 18.0381,
      "duration": 0.0318,
      "velocity": 127,
      "chip": "ym2612"
    },
    {
      "channel": 3,
      "note": 43,
      "start": 18.1208,
      "duration": 0.0325,
      "velocity": 127,
      "chip": "ym2612"
    },
    {
      "channel": 3,
      "note": 43,
      "start": 18.2042,
      "duration": 0.0325,
      "velocity": 127,
      "chip": "ym2612"
    },
    {
      "channel": 3,
      "note": 43,
      "start": 18.2875,
      "duration": 0.0325,
      "velocity": 127,
      "chip": "ym2612"
    },
    {
      "channel": 1,
      "note": 67,
      "start": 18.3716,
      "duration": 0.3381,
      "velocity": 117,
      "chip": "ym2612"
    },
    {
      "channel": 3,
      "note": 43,
      "start": 18.3717,
      "duration": 0.0316,
      "velocity": 127,
      "chip": "ym2612"
    },
    {
      "channel": 3,
      "note": 43,
      "start": 18.4543,
      "duration": 0.0323,
      "velocity": 127,
      "chip": "ym2612"
    },
    {
      "channel": 3,
      "note": 43,
      "start": 18.5376,
      "duration": 0.0323,
      "velocity": 127,
      "chip": "ym2612"
    },
    {
      "channel": 3,
      "note": 43,
      "start": 18.6213,
      "duration": 0.032,
      "velocity": 127,
      "chip": "ym2612"
    },
    {
      "channel": 4,
      "note": 83,
      "start": 18.6213,
      "duration": 1.1655,
      "velocity": 97,
      "chip": "ym2612"
    },
    {
      "channel": 0,
      "note": 59,
      "start": 18.7097,
      "duration": 1.3347,
      "velocity": 117,
      "chip": "ym2612"
    },
    {
      "channel": 1,
      "note": 59,
      "start": 18.7098,
      "duration": 0.3307,
      "velocity": 117,
      "chip": "ym2612"
    },
    {
      "channel": 2,
      "note": 47,
      "start": 18.7098,
      "duration": 1.1631,
      "velocity": 91,
      "chip": "ym2612"
    },
    {
      "channel": 3,
      "note": 36,
      "start": 18.7099,
      "duration": 0.1101,
      "velocity": 101,
      "chip": "ym2612"
    },
    {
      "channel": 5,
      "note": 71,
      "start": 18.71,
      "duration": 1.3347,
      "velocity": 109,
      "chip": "ym2612"
    },
    {
      "channel": 1,
      "note": 66,
      "start": 19.0405,
      "duration": 0.3303,
      "velocity": 117,
      "chip": "ym2612"
    },
    {
      "channel": 3,
      "note": 43,
      "start": 19.0405,
      "duration": 0.1628,
      "velocity": 127,
      "chip": "ym2612"
    },
    {
      "channel": 1,
      "note": 71,
      "start": 19.3708,
      "duration": 0.3363,
      "velocity": 117,
      "chip": "ym2612"
    },
    {
      "channel": 3,
      "note": 36,
      "start": 19.5395,
      "duration": 0.0471,
      "velocity": 101,
      "chip": "ym2612"
    },
    {
      "channel": 1,
      "note": 66,
      "start": 19.7071,
      "duration": 0.3373,
      "velocity": 117,
      "chip": "ym2612"
    },
    {
      "channel": 3,
      "note": 43,
      "start": 19.7072,
      "duration": 0.0795,
      "velocity": 127,
      "chip": "ym2612"
    },
    {
      "channel": 3,
      "note": 36,
      "start": 19.873,
      "duration": 0.0469,
      "velocity": 101,
      "chip": "ym2612"
    },
    {
      "channel": 4,
      "note": 81,
      "start": 19.9537,
      "duration": 0.5831,
      "velocity": 97,
      "chip": "ym2612"
    },
    {
      "channel": 0,
      "note": 57,
      "start": 20.0445,
      "duration": 0.662,
      "velocity": 117,
      "chip": "ym2612"
    },
    {
      "channel": 1,
      "note": 57,
      "start": 20.0446,
      "duration": 0.662,
      "velocity": 117,
      "chip": "ym2612"
    },
    {
      "channel": 2,
      "note": 45,
      "start": 20.0446,
      "duration": 0.5758,
      "velocity": 91,
      "chip": "ym2612"
    },
    {
      "channel": 3,
      "note": 36,
      "start": 20.0447,
      "duration": 0.1086,
      "velocity": 101,
      "chip": "ym2612"
    },
    {
      "channel": 5,
      "note": 69,
      "start": 20.0448,
      "duration": 0.662,
      "velocity": 109,
      "chip": "ym2612"
    },
    {
      "channel": 3,
      "note": 43,
      "start": 20.3731,
      "duration": 0.1636,
      "velocity": 127,
      "chip": "ym2612"
    },
    {
      "channel": 4,
      "note": 83,
      "start": 20.6205,
      "duration": 0.5838,
      "velocity": 97,
      "chip": "ym2612"
    },
    {
      "channel": 0,
      "note": 59,
      "start": 20.7065,
      "duration": 0.6733,
      "velocity": 117,
      "chip": "ym2612"
    },
    {
      "channel": 1,
      "note": 59,
      "start": 20.7066,
      "duration": 0.6734,
      "velocity": 117,
      "chip": "ym2612"
    },
    {
      "channel": 2,
      "note": 47,
      "start": 20.7066,
      "duration": 0.5814,
      "velocity": 91,
      "chip": "ym2612"
    },
    {
      "channel": 3,
      "note": 43,
      "start": 20.7067,
      "duration": 0.03,
      "velocity": 127,
      "chip": "ym2612"
    },
    {
      "channel": 5,
      "note": 71,
      "start": 20.7068,
      "duration": 0.6734,
      "velocity": 109,
      "chip": "ym2612"
    },
    {
      "channel": 3,
      "note": 43,
      "start": 20.7875,
      "duration": 0.0325,
      "velocity": 127,
      "chip": "ym2612"
    },
    {
      "channel": 3,
      "note": 43,
      "start": 20.8708,
      "duration": 0.0325,
      "velocity": 127,
      "chip": "ym2612"
    },
    {
      "channel": 3,
      "note": 43,
      "start": 20.9542,
      "duration": 0.0325,
      "velocity": 127,
      "chip": "ym2612"
    },
    {
      "channel": 3,
      "note": 43,
      "start": 21.0375,
      "duration": 0.0324,
      "velocity": 127,
      "chip": "ym2612"
    },
    {
      "channel": 3,
      "note": 43,
      "start": 21.1208,
      "duration": 0.0324,
      "velocity": 127,
      "chip": "ym2612"
    },
    {
      "channel": 3,
      "note": 43,
      "start": 21.2043,
      "duration": 0.0323,
      "velocity": 127,
      "chip": "ym2612"
    },
    {
      "channel": 3,
      "note": 43,
      "start": 21.2881,
      "duration": 0.0318,
      "velocity": 127,
      "chip": "ym2612"
    },
    {
      "channel": 4,
      "note": 85,
      "start": 21.2882,
      "duration": 1.1653,
      "velocity": 97,
      "chip": "ym2612"
    },
    {
      "channel": 0,
      "note": 61,
      "start": 21.3799,
      "duration": 1.3292,
      "velocity": 117,
      "chip": "ym2612"
    },
    {
      "channel": 1,
      "note": 61,
      "start": 21.38,
      "duration": 0.3271,
      "velocity": 117,
      "chip": "ym2612"
    },
    {
      "channel": 2,
      "note": 49,
      "start": 21.38,
      "duration": 1.1595,
      "velocity": 91,
      "chip": "ym2612"
    },
    {
      "channel": 3,
      "note": 36,
      "start": 21.3801,
      "duration": 0.1066,
      "velocity": 101,
      "chip": "ym2612"
    },
    {
      "channel": 5,
      "note": 73,
      "start": 21.3802,
      "duration": 1.3291,
      "velocity": 109,
      "chip": "ym2612"
    },
    {
      "channel": 1,
      "note": 68,
      "start": 21.7071,
      "duration": 0.3303,
      "velocity": 117,
      "chip": "ym2612"
    },
    {
      "channel": 3,
      "note": 43,
      "start": 21.7072,
      "duration": 0.1628,
      "velocity": 127,
      "chip": "ym2612"
    },
    {
      "channel": 1,
      "note": 73,
      "start": 22.0375,
      "duration": 0.3363,
      "velocity": 117,
      "chip": "ym2612"
    },
    {
      "channel": 3,
      "note": 36,
      "start": 22.2062,
      "duration": 0.0471,
      "velocity": 101,
      "chip": "ym2612"
    },
    {
      "channel": 1,
      "note": 68,
      "start": 22.3738,
      "duration": 0.3353,
      "velocity": 117,
      "chip": "ym2612"
    },
    {
      "channel": 3,
      "note": 43,
      "start": 22.3739,
      "duration": 0.0795,
      "velocity": 127,
      "chip": "ym2612"
    },
    {
      "channel": 3,
      "note": 36,
      "start": 22.5397,
      "duration": 0.047,
      "velocity": 101,
      "chip": "ym2612"
    },
    {
      "channel": 4,
      "note": 84,
      "start": 22.6204,
      "duration": 1.1672,
      "velocity": 97,
      "chip": "ym2612"
    },
    {
      "channel": 0,
      "note": 60,
      "start": 22.7091,
      "duration": 1.3339,
      "velocity": 117,
      "chip": "ym2612"
    },
    {
      "channel": 1,
      "note": 60,
      "start": 22.7092,
      "duration": 0.3312,
      "velocity": 117,
      "chip": "ym2612"
    },
    {
      "channel": 2,
      "note": 48,
      "start": 22.7093,
      "duration": 1.1616,
      "velocity": 91,
      "chip": "ym2612"
    },
    {
      "channel": 3,
      "note": 36,
      "start": 22.7093,
      "duration": 0.1107,
      "velocity": 101,
      "chip": "ym2612"
    },
    {
      "channel": 5,
      "note": 72,
      "start": 22.7094,
      "duration": 1.3339,
      "velocity": 109,
      "chip": "ym2612"
    },
    {
      "channel": 1,
      "note": 67,
      "start": 23.0405,
      "duration": 0.3309,
      "velocity": 117,
      "chip": "ym2612"
    },
    {
      "channel": 3,
      "note": 43,
      "start": 23.0405,
      "duration": 0.1628,
      "velocity": 127,
      "chip": "ym2612"
    },
    {
      "channel": 1,
      "note": 72,
      "start": 23.3715,
      "duration": 0.3334,
      "velocity": 117,
      "chip": "ym2612"
    },
    {
      "channel": 3,
      "note": 43,
      "start": 23.3715,
      "duration": 0.0318,
      "velocity": 127,
      "chip": "ym2612"
    },
    {
      "channel": 3,
      "note": 43,
      "start": 23.4542,
      "duration": 0.0325,
      "velocity": 127,
      "chip": "ym2612"
    },
    {
      "channel": 3,
      "note": 43,
      "start": 23.5375,
      "duration": 0.0324,
      "velocity": 127,
      "chip": "ym2612"
    },
    {
      "channel": 3,
      "note": 43,
      "start": 23.6208,
      "duration": 0.0325,
      "velocity": 127,
      "chip": "ym2612"
    },
    {
      "channel": 1,
      "note": 67,
      "start": 23.7049,
      "duration": 0.3381,
      "velocity": 117,
      "chip": "ym2612"
    },
    {
      "channel": 3,
      "note": 43,
      "start": 23.705,
      "duration": 0.0316,
      "velocity": 127,
      "chip": "ym2612"
    },
    {
      "channel": 3,
      "note": 43,
      "start": 23.7876,
      "duration": 0.0323,
      "velocity": 127,
      "chip": "ym2612"
    },
    {
      "channel": 3,
      "note": 43,
      "start": 23.871,
      "duration": 0.0323,
      "velocity": 127,
      "chip": "ym2612"
    },
    {
      "channel": 3,
      "note": 43,
      "start": 23.9546,
      "duration": 0.032,
      "velocity": 127,
      "chip": "ym2612"
    },
    {
      "channel": 4,
      "note": 83,
      "start": 23.9547,
      "duration": 1.1655,
      "velocity": 97,
      "chip": "ym2612"
    },
    {
      "channel": 0,
      "note": 59,
      "start": 24.043,
      "duration": 1.3349,
      "velocity": 117,
      "chip": "ym2612"
    },
    {
      "channel": 1,
      "note": 59,
      "start": 24.0431,
      "duration": 0.3307,
      "velocity": 117,
      "chip": "ym2612"
    },
    {
      "channel": 2,
      "note": 47,
      "start": 24.0432,
      "duration": 1.1631,
      "velocity": 91,
      "chip": "ym2612"
    },
    {
      "channel": 3,
      "note": 36,
      "start": 24.0432,
      "duration": 0.1101,
      "velocity": 101,
      "chip": "ym2612"
    },
    {
      "channel": 5,
      "note": 71,
      "start": 24.0434,
      "duration": 1.3349,
      "velocity": 109,
      "chip": "ym2612"
    },
    {
      "channel": 1,
      "note": 66,
      "start": 24.3738,
      "duration": 0.3303,
      "velocity": 117,
      "chip": "ym2612"
    },
    {
      "channel": 3,
      "note": 43,
      "start": 24.3739,
      "duration": 0.1628,
      "velocity": 127,
      "chip": "ym2612"
    },
    {
      "channel": 1,
      "note": 71,
      "start": 24.7042,
      "duration": 0.3363,
      "velocity": 117,
      "chip": "ym2612"
    },
    {
      "channel": 3,
      "note": 36,
      "start": 24.8729,
      "duration": 0.0471,
      "velocity": 101,
      "chip": "ym2612"
    },
    {
      "channel": 1,
      "note": 66,
      "start": 25.0405,
      "duration": 0.3375,
      "velocity": 117,
      "chip": "ym2612"
    },
    {
      "channel": 3,
      "note": 43,
      "start": 25.0405,
      "duration": 0.0795,
      "velocity": 127,
      "chip": "ym2612"
    },
    {
      "channel": 3,
      "note": 36,
      "start": 25.2063,
      "duration": 0.0469,
      "velocity": 101,
      "chip": "ym2612"
    },
    {
      "channel": 4,
      "note": 81,
      "start": 25.288,
      "duration": 1.1664,
      "velocity": 97,
      "chip": "ym2612"
    },
    {
      "channel": 0,
      "note": 57,
      "start": 25.378,
      "duration": 0.662,
      "velocity": 117,
      "chip": "ym2612"
    },
    {
      "channel": 1,
      "note": 57,
      "start": 25.378,
      "duration": 0.662,
      "velocity": 117,
      "chip": "ym2612"
    },
    {
      "channel": 2,
      "note": 45,
      "start": 25.3781,
      "duration": 0.5753,
      "velocity": 91,
      "chip": "ym2612"
    },
    {
      "channel": 3,
      "note": 36,
      "start": 25.3781,
      "duration": 0.1086,
      "velocity": 101,
      "chip": "ym2612"
    },
    {
      "channel": 5,
      "note": 69,
      "start": 25.3783,
      "duration": 0.662,
      "velocity": 109,
      "chip": "ym2612"
    },
    {
      "channel": 3,
      "note": 43,
      "start": 25.7065,
      "duration": 0.1636,
      "velocity": 127,
      "chip": "ym2612"
    },
    {
      "channel": 0,
      "note": 59,
      "start": 26.0399,
      "duration": 0.6732,
      "velocity": 117,
      "chip": "ym2612"
    },
    {
      "channel": 1,
      "note": 59,
      "start": 26.04,
      "duration": 0.6732,
      "velocity": 117,
      "chip": "ym2612"
    },
    {
      "channel": 2,
      "note": 47,
      "start": 26.0401,
      "duration": 0.5814,
      "velocity": 91,
      "chip": "ym2612"
    },
    {
      "channel": 3,
      "note": 43,
      "start": 26.0402,
      "duration": 0.0299,
      "velocity": 127,
      "chip": "ym2612"
    },
    {
      "channel": 5,
      "note": 71,
      "start": 26.0403,
      "duration": 0.6732,
      "velocity": 109,
      "chip": "ym2612"
    },
    {
      "channel": 3,
      "note": 43,
      "start": 26.121,
      "duration": 0.0324,
      "velocity": 127,
      "chip": "ym2612"
    },
    {
      "channel": 3,
      "note": 43,
      "start": 26.2042,
      "duration": 0.0325,
      "velocity": 127,
      "chip": "ym2612"
    },
    {
      "channel": 3,
      "note": 43,
      "start": 26.2876,
      "duration": 0.0325,
      "velocity": 127,
      "chip": "ym2612"
    },
    {
      "channel": 3,
      "note": 43,
      "start": 26.3709,
      "duration": 0.0325,
      "velocity": 127,
      "chip": "ym2612"
    },
    {
      "channel": 3,
      "note": 43,
      "start": 26.4544,
      "duration": 0.0323,
      "velocity": 127,
      "chip": "ym2612"
    },
    {
      "channel": 3,
      "note": 43,
      "start": 26.5376,
      "duration": 0.0324,
      "velocity": 127,
      "chip": "ym2612"
    },
    {
      "channel": 3,
      "note": 43,
      "start": 26.6215,
      "duration": 0.0317,
      "velocity": 127,
      "chip": "ym2612"
    },
    {
      "channel": 4,
      "note": 71,
      "start": 26.6216,
      "duration": 0.065,
      "velocity": 97,
      "chip": "ym2612"
    },
    {
      "channel": 0,
      "note": 49,
      "start": 26.7132,
      "duration": 0.0762,
      "velocity": 117,
      "chip": "ym2612"
    },
    {
      "channel": 1,
      "note": 49,
      "start": 26.7133,
      "duration": 0.0763,
      "velocity": 117,
      "chip": "ym2612"
    },
    {
      "channel": 2,
      "note": 49,
      "start": 26.7133,
      "duration": 0.0561,
      "velocity": 91,
      "chip": "ym2612"
    },
    {
      "channel": 3,
      "note": 36,
      "start": 26.7134,
      "duration": 0.0393,
      "velocity": 101,
      "chip": "ym2612"
    },
    {
      "channel": 4,
      "note": 73,
      "start": 26.7134,
      "duration": 0.0561,
      "velocity": 97,
      "chip": "ym2612"
    },
    {
      "channel": 0,
      "note": 49,
      "start": 26.7895,
      "duration": 0.0865,
      "velocity": 117,
      "chip": "ym2612"
    },
    {
      "channel": 1,
      "note": 49,
      "start": 26.7896,
      "duration": 0.0865,
      "velocity": 117,
      "chip": "ym2612"
    },
    {
      "channel": 2,
      "note": 49,
      "start": 26.7897,
      "duration": 0.0631,
      "velocity": 91,
      "chip": "ym2612"
    },
    {
      "channel": 4,
      "note": 78,
      "start": 26.7897,
      "duration": 0.0631,
      "velocity": 97,
      "chip": "ym2612"
    },
    {
      "channel": 0,
      "note": 49,
      "start": 26.8761,
      "duration": 0.0801,
      "velocity": 117,
      "chip": "ym2612"
    },
    {
      "channel": 1,
      "note": 49,
      "start": 26.8761,
      "duration": 0.0802,
      "velocity": 117,
      "chip": "ym2612"
    },
    {
      "channel": 2,
      "note": 49,
      "start": 26.8762,
      "duration": 0.0599,
      "velocity": 91,
      "chip": "ym2612"
    },
    {
      "channel": 3,
      "note": 43,
      "start": 26.8762,
      "duration": 0.0802,
      "velocity": 127,
      "chip": "ym2612"
    },
    {
      "channel": 4,
      "note": 71,
      "start": 26.8763,
      "duration": 0.0599,
      "velocity": 97,
      "chip": "ym2612"
    },
    {
      "channel": 0,
      "note": 49,
      "start": 26.9562,
      "duration": 0.0862,
      "velocity": 117,
      "chip": "ym2612"
    },
    {
      "channel": 1,
      "note": 49,
      "start": 26.9563,
      "duration": 0.0862,
      "velocity": 117,
      "chip": "ym2612"
    },
    {
      "channel": 2,
      "note": 49,
      "start": 26.9564,
      "duration": 0.063,
      "velocity": 91,
      "chip": "ym2612"
    },
    {
      "channel": 4,
      "note": 71,
      "start": 26.9565,
      "duration": 0.063,
      "velocity": 97,
      "chip": "ym2612"
    },
    {
      "channel": 0,
      "note": 49,
      "start": 27.0424,
      "duration": 0.0809,
      "velocity": 117,
      "chip": "ym2612"
    },
    {
      "channel": 1,
      "note": 49,
      "start": 27.0426,
      "duration": 0.0808,
      "velocity": 117,
      "chip": "ym2612"
    },
    {
      "channel": 2,
      "note": 49,
      "start": 27.0427,
      "duration": 0.0601,
      "velocity": 91,
      "chip": "ym2612"
    },
    {
      "channel": 3,
      "note": 36,
      "start": 27.0427,
      "duration": 0.01,
      "velocity": 101,
      "chip": "ym2612"
    },
    {
      "channel": 4,
      "note": 73,
      "start": 27.0428,
      "duration": 0.0601,
      "velocity": 97,
      "chip": "ym2612"
    },
    {
      "channel": 0,
      "note": 49,
      "start": 27.1234,
      "duration": 0.0859,
      "velocity": 117,
      "chip": "ym2612"
    },
    {
      "channel": 1,
      "note": 49,
      "start": 27.1234,
      "duration": 0.0859,
      "velocity": 117,
      "chip": "ym2612"
    },
    {
      "channel": 2,
      "note": 49,
      "start": 27.1235,
      "duration": 0.0626,
      "velocity": 91,
      "chip": "ym2612"
    },
    {
      "channel": 3,
      "note": 36,
      "start": 27.1236,
      "duration": 0.0125,
      "velocity": 101,
      "chip": "ym2612"
    },
    {
      "channel": 4,
      "note": 78,
      "start": 27.1236,
      "duration": 0.0625,
      "velocity": 97,
      "chip": "ym2612"
    },
    {
      "channel": 0,
      "note": 49,
      "start": 27.2094,
      "duration": 0.0801,
      "velocity": 117,
      "chip": "ym2612"
    },
    {
      "channel": 1,
      "note": 49,
      "start": 27.2094,
      "duration": 0.0802,
      "velocity": 117,
      "chip": "ym2612"
    },
    {
      "channel": 2,
      "note": 49,
      "start": 27.2095,
      "duration": 0.0599,
      "velocity": 91,
      "chip": "ym2612"
    },
    {
      "channel": 3,
      "note": 43,
      "start": 27.2096,
      "duration": 0.0802,
      "velocity": 127,
      "chip": "ym2612"
    },
    {
      "channel": 4,
      "note": 71,
      "start": 27.2096,
      "duration": 0.0599,
      "velocity": 97,
      "chip": "ym2612"
    },
    {
      "channel": 0,
      "note": 49,
      "start": 27.2895,
      "duration": 0.0865,
      "velocity": 117,
      "chip": "ym2612"
    },
    {
      "channel": 1,
      "note": 49,
      "start": 27.2897,
      "duration": 0.0865,
      "velocity": 117,
      "chip": "ym2612"
    },
    {
      "channel": 2,
      "note": 49,
      "start": 27.2897,
      "duration": 0.063,
      "velocity": 91,
      "chip": "ym2612"
    },
    {
      "channel": 4,
      "note": 71,
      "start": 27.2898,
      "duration": 0.063,
      "velocity": 97,
      "chip": "ym2612"
    },
    {
      "channel": 0,
      "note": 49,
      "start": 27.3761,
      "duration": 0.08,
      "velocity": 117,
      "chip": "ym2612"
    },
    {
      "channel": 1,
      "note": 49,
      "start": 27.3762,
      "duration": 0.08,
      "velocity": 117,
      "chip": "ym2612"
    },
    {
      "channel": 2,
      "note": 49,
      "start": 27.3763,
      "duration": 0.0598,
      "velocity": 91,
      "chip": "ym2612"
    },
    {
      "channel": 3,
      "note": 36,
      "start": 27.3764,
      "duration": 0.043,
      "velocity": 101,
      "chip": "ym2612"
    },
    {
      "channel": 4,
      "note": 73,
      "start": 27.3764,
      "duration": 0.0598,
      "velocity": 97,
      "chip": "ym2612"
    },
    {
      "channel": 0,
      "note": 49,
      "start": 27.4561,
      "duration": 0.0865,
      "velocity": 117,
      "chip": "ym2612"
    },
    {
      "channel": 1,
      "note": 49,
      "start": 27.4563,
      "duration": 0.0865,
      "velocity": 117,
      "chip": "ym2612"
    },
    {
      "channel": 2,
      "note": 49,
      "start": 27.4563,
      "duration": 0.0631,
      "velocity": 91,
      "chip": "ym2612"
    },
    {
      "channel": 4,
      "note": 78,
      "start": 27.4564,
      "duration": 0.0631,
      "velocity": 97,
      "chip": "ym2612"
    },
    {
      "channel": 0,
      "note": 49,
      "start": 27.5427,
      "duration": 0.0801,
      "velocity": 117,
      "chip": "ym2612"
    },
    {
      "channel": 1,
      "note": 49,
      "start": 27.5428,
      "duration": 0.0802,
      "velocity": 117,
      "chip": "ym2612"
    },
    {
      "channel": 2,
      "note": 49,
      "start": 27.5428,
      "duration": 0.0599,
      "velocity": 91,
      "chip": "ym2612"
    },
    {
      "channel": 3,
      "note": 43,
      "start": 27.5429,
      "duration": 0.0802,
      "velocity": 127,
      "chip": "ym2612"
    },
    {
      "channel": 4,
      "note": 71,
      "start": 27.543,
      "duration": 0.0599,
      "velocity": 97,
      "chip": "ym2612"
    },
    {
      "channel": 0,
      "note": 49,
      "start": 27.6229,
      "duration": 0.0862,
      "velocity": 117,
      "chip": "ym2612"
    },
    {
      "channel": 1,
      "note": 49,
      "start": 27.623,
      "duration": 0.0862,
      "velocity": 117,
      "chip": "ym2612"
    },
    {
      "channel": 2,
      "note": 49,
      "start": 27.6231,
      "duration": 0.063,
      "velocity": 91,
      "chip": "ym2612"
    },
    {
      "channel": 4,
      "note": 71,
      "start": 27.6232,
      "duration": 0.063,
      "velocity": 97,
      "chip": "ym2612"
    },
    {
      "channel": 0,
      "note": 49,
      "start": 27.7091,
      "duration": 0.0809,
      "velocity": 117,
      "chip": "ym2612"
    },
    {
      "channel": 1,
      "note": 49,
      "start": 27.7093,
      "duration": 0.0808,
      "velocity": 117,
      "chip": "ym2612"
    },
    {
      "channel": 2,
      "note": 49,
      "start": 27.7093,
      "duration": 0.0601,
      "velocity": 91,
      "chip": "ym2612"
    },
    {
      "channel": 3,
      "note": 36,
      "start": 27.7094,
      "duration": 0.01,
      "velocity": 101,
      "chip": "ym2612"
    },
    {
      "channel": 4,
      "note": 73,
      "start": 27.7094,
      "duration": 0.0601,
      "velocity": 97,
      "chip": "ym2612"
    },
    {
      "channel": 0,
      "note": 49,
      "start": 27.79,
      "duration": 0.0859,
      "velocity": 117,
      "chip": "ym2612"
    },
    {
      "channel": 1,
      "note": 49,
      "start": 27.7901,
      "duration": 0.0859,
      "velocity": 117,
      "chip": "ym2612"
    },
    {
      "channel": 2,
      "note": 49,
      "start": 27.7902,
      "duration": 0.0626,
      "velocity": 91,
      "chip": "ym2612"
    },
    {
      "channel": 3,
      "note": 36,
      "start": 27.7902,
      "duration": 0.0125,
      "velocity": 101,
      "chip": "ym2612"
    },
    {
      "channel": 4,
      "note": 78,
      "start": 27.7903,
      "duration": 0.0625,
      "velocity": 97,
      "chip": "ym2612"
    },
    {
      "channel": 0,
      "note": 49,
      "start": 27.8761,
      "duration": 0.081,
      "velocity": 117,
      "chip": "ym2612"
    },
    {
      "channel": 1,
      "note": 49,
      "start": 27.8761,
      "duration": 0.081,
      "velocity": 117,
      "chip": "ym2612"
    },
    {
      "channel": 2,
      "note": 49,
      "start": 27.8762,
      "duration": 0.0599,
      "velocity": 91,
      "chip": "ym2612"
    },
    {
      "channel": 3,
      "note": 43,
      "start": 27.8762,
      "duration": 0.0811,
      "velocity": 127,
      "chip": "ym2612"
    },
    {
      "channel": 4,
      "note": 71,
      "start": 27.8763,
      "duration": 0.0599,
      "velocity": 97,
      "chip": "ym2612"
    },
    {
      "channel": 0,
      "note": 49,
      "start": 27.9571,
      "duration": 0.0852,
      "velocity": 117,
      "chip": "ym2612"
    },
    {
      "channel": 1,
      "note": 49,
      "start": 27.9572,
      "duration": 0.0852,
      "velocity": 117,
      "chip": "ym2612"
    },
    {
      "channel": 2,
      "note": 49,
      "start": 27.9573,
      "duration": 0.0622,
      "velocity": 91,
      "chip": "ym2612"
    },
    {
      "channel": 4,
      "note": 71,
      "start": 27.9574,
      "duration": 0.5852,
      "velocity": 97,
      "chip": "ym2612"
    },
    {
      "channel": 0,
      "note": 49,
      "start": 28.0424,
      "duration": 0.08,
      "velocity": 117,
      "chip": "ym2612"
    },
    {
      "channel": 1,
      "note": 49,
      "start": 28.0424,
      "duration": 0.08,
      "velocity": 117,
      "chip": "ym2612"
    },
    {
      "channel": 2,
      "note": 49,
      "start": 28.0425,
      "duration": 0.0602,
      "velocity": 91,
      "chip": "ym2612"
    },
    {
      "channel": 3,
      "note": 36,
      "start": 28.0426,
      "duration": 0.0436,
      "velocity": 101,
      "chip": "ym2612"
    },
    {
      "channel": 0,
      "note": 49,
      "start": 28.1224,
      "duration": 0.0865,
      "velocity": 117,
      "chip": "ym2612"
    },
    {
      "channel": 1,
      "note": 49,
      "start": 28.1225,
      "duration": 0.0865,
      "velocity": 117,
      "chip": "ym2612"
    },
    {
      "channel": 2,
      "note": 49,
      "start": 28.1225,
      "duration": 0.0636,
      "velocity": 91,
      "chip": "ym2612"
    },
    {
      "channel": 0,
      "note": 49,
      "start": 28.209,
      "duration": 0.0801,
      "velocity": 117,
      "chip": "ym2612"
    },
    {
      "channel": 1,
      "note": 49,
      "start": 28.2091,
      "duration": 0.0801,
      "velocity": 117,
      "chip": "ym2612"
    },
    {
      "channel": 2,
      "note": 49,
      "start": 28.2091,
      "duration": 0.0604,
      "velocity": 91,
      "chip": "ym2612"
    },
    {
      "channel": 3,
      "note": 43,
      "start": 28.2092,
      "duration": 0.0802,
      "velocity": 127,
      "chip": "ym2612"
    },
    {
      "channel": 0,
      "note": 49,
      "start": 28.2891,
      "duration": 0.0862,
      "velocity": 117,
      "chip": "ym2612"
    },
    {
      "channel": 1,
      "note": 49,
      "start": 28.2892,
      "duration": 0.0862,
      "velocity": 117,
      "chip": "ym2612"
    },
    {
      "channel": 2,
      "note": 49,
      "start": 28.2893,
      "duration": 0.0636,
      "velocity": 91,
      "chip": "ym2612"
    },
    {
      "channel": 0,
      "note": 49,
      "start": 28.3754,
      "duration": 0.0808,
      "velocity": 117,
      "chip": "ym2612"
    },
    {
      "channel": 1,
      "note": 49,
      "start": 28.3755,
      "duration": 0.0809,
      "velocity": 117,
      "chip": "ym2612"
    },
    {
      "channel": 2,
      "note": 49,
      "start": 28.3755,
      "duration": 0.0606,
      "velocity": 91,
      "chip": "ym2612"
    },
    {
      "channel": 3,
      "note": 36,
      "start": 28.3756,
      "duration": 0.0106,
      "velocity": 101,
      "chip": "ym2612"
    },
    {
      "channel": 0,
      "note": 49,
      "start": 28.4563,
      "duration": 0.086,
      "velocity": 117,
      "chip": "ym2612"
    },
    {
      "channel": 1,
      "note": 49,
      "start": 28.4563,
      "duration": 0.0861,
      "velocity": 117,
      "chip": "ym2612"
    },
    {
      "channel": 2,
      "note": 49,
      "start": 28.4564,
      "duration": 0.063,
      "velocity": 91,
      "chip": "ym2612"
    },
    {
      "channel": 3,
      "note": 36,
      "start": 28.4565,
      "duration": 0.013,
      "velocity": 101,
      "chip": "ym2612"
    },
    {
      "channel": 0,
      "note": 49,
      "start": 28.5423,
      "duration": 0.0805,
      "velocity": 117,
      "chip": "ym2612"
    },
    {
      "channel": 1,
      "note": 49,
      "start": 28.5424,
      "duration": 0.0805,
      "velocity": 117,
      "chip": "ym2612"
    },
    {
      "channel": 2,
      "note": 49,
      "start": 28.5425,
      "duration": 0.0602,
      "velocity": 91,
      "chip": "ym2612"
    },
    {
      "channel": 3,
      "note": 43,
      "start": 28.5426,
      "duration": 0.0806,
      "velocity": 127,
      "chip": "ym2612"
    },
    {
      "channel": 0,
      "note": 49,
      "start": 28.6229,
      "duration": 0.0887,
      "velocity": 117,
      "chip": "ym2612"
    },
    {
      "channel": 1,
      "note": 49,
      "start": 28.6231,
      "duration": 0.0886,
      "velocity": 117,
      "chip": "ym2612"
    },
    {
      "channel": 2,
      "note": 49,
      "start": 28.6231,
      "duration": 0.063,
      "velocity": 91,
      "chip": "ym2612"
    },
    {
      "channel": 4,
      "note": 73,
      "start": 28.6232,
      "duration": 0.0629,
      "velocity": 97,
      "chip": "ym2612"
    },
    {
      "channel": 0,
      "note": 52,
      "start": 28.7117,
      "duration": 0.2469,
      "velocity": 117,
      "chip": "ym2612"
    },
    {
      "channel": 1,
      "note": 52,
      "start": 28.7117,
      "duration": 0.247,
      "velocity": 117,
      "chip": "ym2612"
    },
    {
      "channel": 2,
      "note": 52,
      "start": 28.7118,
      "duration": 0.2243,
      "velocity": 91,
      "chip": "ym2612"
    },
    {
      "channel": 3,
      "note": 43,
      "start": 28.7119,
      "duration": 0.0242,
      "velocity": 127,
      "chip": "ym2612"
    },
    {
      "channel": 4,
      "note": 71,
      "start": 28.7119,
      "duration": 0.0574,
      "velocity": 97,
      "chip": "ym2612"
    },
    {
      "channel": 3,
      "note": 43,
      "start": 28.79,
      "duration": 0.0293,
      "velocity": 127,
      "chip": "ym2612"
    },
    {
      "channel": 4,
      "note": 69,
      "start": 28.7901,
      "duration": 0.0626,
      "velocity": 97,
      "chip": "ym2612"
    },
    {
      "channel": 3,
      "note": 43,
      "start": 28.8749,
      "duration": 0.0278,
      "velocity": 127,
      "chip": "ym2612"
    },
    {
      "channel": 4,
      "note": 68,
      "start": 28.875,
      "duration": 0.0612,
      "velocity": 97,
      "chip": "ym2612"
    },
    {
      "channel": 0,
      "note": 52,
      "start": 28.9586,
      "duration": 0.2499,
      "velocity": 117,
      "chip": "ym2612"
    },
    {
      "channel": 1,
      "note": 52,
      "start": 28.9587,
      "duration": 0.25,
      "velocity": 117,
      "chip": "ym2612"
    },
    {
      "channel": 2,
      "note": 52,
      "start": 28.9588,
      "duration": 0.2273,
      "velocity": 91,
      "chip": "ym2612"
    },
    {
      "channel": 3,
      "note": 43,
      "start": 28.9589,
      "duration": 0.0272,
      "velocity": 127,
      "chip": "ym2612"
    },
    {
      "channel": 4,
      "note": 69,
      "start": 28.9589,
      "duration": 0.0604,
      "velocity": 97,
      "chip": "ym2612"
    },
    {
      "channel": 3,
      "note": 43,
      "start": 29.0401,
      "duration": 0.0293,
      "velocity": 127,
      "chip": "ym2612"
    },
    {
      "channel": 4,
      "note": 68,
      "start": 29.0402,
      "duration": 0.0625,
      "velocity": 97,
      "chip": "ym2612"
    },
    {
      "channel": 3,
      "note": 43,
      "start": 29.1248,
      "duration": 0.0279,
      "velocity": 127,
      "chip": "ym2612"
    },
    {
      "channel": 4,
      "note": 66,
      "start": 29.1249,
      "duration": 0.0613,
      "velocity": 97,
      "chip": "ym2612"
    },
    {
      "channel": 0,
      "note": 52,
      "start": 29.2086,
      "duration": 0.1692,
      "velocity": 117,
      "chip": "ym2612"
    },
    {
      "channel": 1,
      "note": 52,
      "start": 29.2087,
      "duration": 0.1692,
      "velocity": 117,
      "chip": "ym2612"
    },
    {
      "channel": 2,
      "note": 52,
      "start": 29.2087,
      "duration": 0.1274,
      "velocity": 91,
      "chip": "ym2612"
    },
    {
      "channel": 3,
      "note": 43,
      "start": 29.2089,
      "duration": 0.0272,
      "velocity": 127,
      "chip": "ym2612"
    },
    {
      "channel": 4,
      "note": 64,
      "start": 29.2089,
      "duration": 0.0605,
      "velocity": 97,
      "chip": "ym2612"
    },
    {
      "channel": 3,
      "note": 43,
      "start": 29.2911,
      "duration": 0.0284,
      "velocity": 127,
      "chip": "ym2612"
    },
    {
      "channel": 4,
      "note": 73,
      "start": 29.2911,
      "duration": 1.7513,
      "velocity": 97,
      "chip": "ym2612"
    },
    {
      "channel": 0,
      "note": 49,
      "start": 29.3779,
      "duration": 0.0778,
      "velocity": 117,
      "chip": "ym2612"
    },
    {
      "channel": 1,
      "note": 49,
      "start": 29.378,
      "duration": 0.0778,
      "velocity": 117,
      "chip": "ym2612"
    },
    {
      "channel": 2,
      "note": 49,
      "start": 29.378,
      "duration": 0.0581,
      "velocity": 91,
      "chip": "ym2612"
    },
    {
      "channel": 3,
      "note": 36,
      "start": 29.3781,
      "duration": 0.0414,
      "velocity": 101,
      "chip": "ym2612"
    },
    {
      "channel": 0,
      "note": 49,
      "start": 29.4558,
      "duration": 0.0865,
      "velocity": 117,
      "chip": "ym2612"
    },
    {
      "channel": 1,
      "note": 49,
      "start": 29.4558,
      "duration": 0.0865,
      "velocity": 117,
      "chip": "ym2612"
    },
    {
      "channel": 2,
      "note": 49,
      "start": 29.4559,
      "duration": 0.0636,
      "velocity": 91,
      "chip": "ym2612"
    },
    {
      "channel": 0,
      "note": 49,
      "start": 29.5423,
      "duration": 0.0801,
      "velocity": 117,
      "chip": "ym2612"
    },
    {
      "channel": 1,
      "note": 49,
      "start": 29.5424,
      "duration": 0.0801,
      "velocity": 117,
      "chip": "ym2612"
    },
    {
      "channel": 2,
      "note": 49,
      "start": 29.5424,
      "duration": 0.0603,
      "velocity": 91,
      "chip": "ym2612"
    },
    {
      "channel": 3,
      "note": 43,
      "start": 29.5425,
      "duration": 0.0802,
      "velocity": 127,
      "chip": "ym2612"
    },
    {
      "channel": 0,
      "note": 49,
      "start": 29.6225,
      "duration": 0.0862,
      "velocity": 117,
      "chip": "ym2612"
    },
    {
      "channel": 1,
      "note": 49,
      "start": 29.6226,
      "duration": 0.0861,
      "velocity": 117,
      "chip": "ym2612"
    },
    {
      "channel": 2,
      "note": 49,
      "start": 29.6227,
      "duration": 0.0635,
      "velocity": 91,
      "chip": "ym2612"
    },
    {
      "channel": 0,
      "note": 49,
      "start": 29.7087,
      "duration": 0.0808,
      "velocity": 117,
      "chip": "ym2612"
    },
    {
      "channel": 1,
      "note": 49,
      "start": 29.7088,
      "duration": 0.0809,
      "velocity": 117,
      "chip": "ym2612"
    },
    {
      "channel": 2,
      "note": 49,
      "start": 29.7089,
      "duration": 0.0606,
      "velocity": 91,
      "chip": "ym2612"
    },
    {
      "channel": 3,
      "note": 36,
      "start": 29.7089,
      "duration": 0.0106,
      "velocity": 101,
      "chip": "ym2612"
    },
    {
      "channel": 0,
      "note": 49,
      "start": 29.7896,
      "duration": 0.0859,
      "velocity": 117,
      "chip": "ym2612"
    },
    {
      "channel": 1,
      "note": 49,
      "start": 29.7897,
      "duration": 0.0859,
      "velocity": 117,
      "chip": "ym2612"
    },
    {
      "channel": 2,
      "note": 49,
      "start": 29.7898,
      "duration": 0.0629,
      "velocity": 91,
      "chip": "ym2612"
    },
    {
      "channel": 3,
      "note": 36,
      "start": 29.7898,
      "duration": 0.0129,
      "velocity": 101,
      "chip": "ym2612"
    },
    {
      "channel": 0,
      "note": 49,
      "start": 29.8756,
      "duration": 0.0801,
      "velocity": 117,
      "chip": "ym2612"
    },
    {
      "channel": 1,
      "note": 49,
      "start": 29.8757,
      "duration": 0.0801,
      "velocity": 117,
      "chip": "ym2612"
    },
    {
      "channel": 2,
      "note": 49,
      "start": 29.8757,
      "duration": 0.0604,
      "velocity": 91,
      "chip": "ym2612"
    },
    {
      "channel": 3,
      "note": 43,
      "start": 29.8758,
      "duration": 0.0802,
      "velocity": 127,
      "chip": "ym2612"
    },
    {
      "channel": 0,
      "note": 49,
      "start": 29.9558,
      "duration": 0.0866,
      "velocity": 117,
      "chip": "ym2612"
    },
    {
      "channel": 1,
      "note": 49,
      "start": 29.9559,
      "duration": 0.0865,
      "velocity": 117,
      "chip": "ym2612"
    },
    {
      "channel": 2,
      "note": 49,
      "start": 29.9559,
      "duration": 0.0635,
      "velocity": 91,
      "chip": "ym2612"
    },
    {
      "channel": 0,
      "note": 49,
      "start": 30.0423,
      "duration": 0.08,
      "velocity": 117,
      "chip": "ym2612"
    },
    {
      "channel": 1,
      "note": 49,
      "start": 30.0424,
      "duration": 0.08,
      "velocity": 117,
      "chip": "ym2612"
    },
    {
      "channel": 2,
      "note": 49,
      "start": 30.0425,
      "duration": 0.0602,
      "velocity": 91,
      "chip": "ym2612"
    },
    {
      "channel": 3,
      "note": 36,
      "start": 30.0426,
      "duration": 0.0435,
      "velocity": 101,
      "chip": "ym2612"
    },
    {
      "channel": 0,
      "note": 49,
      "start": 30.1224,
      "duration": 0.0865,
      "velocity": 117,
      "chip": "ym2612"
    },
    {
      "channel": 1,
      "note": 49,
      "start": 30.1225,
      "duration": 0.0865,
      "velocity": 117,
      "chip": "ym2612"
    },
    {
      "channel": 2,
      "note": 49,
      "start": 30.1225,
      "duration": 0.0635,
      "velocity": 91,
      "chip": "ym2612"
    },
    {
      "channel": 0,
      "note": 49,
      "start": 30.2089,
      "duration": 0.0801,
      "velocity": 117,
      "chip": "ym2612"
    },
    {
      "channel": 1,
      "note": 49,
      "start": 30.209,
      "duration": 0.0801,
      "velocity": 117,
      "chip": "ym2612"
    },
    {
      "channel": 2,
      "note": 49,
      "start": 30.2091,
      "duration": 0.0604,
      "velocity": 91,
      "chip": "ym2612"
    },
    {
      "channel": 3,
      "note": 43,
      "start": 30.2091,
      "duration": 0.0802,
      "velocity": 127,
      "chip": "ym2612"
    },
    {
      "channel": 0,
      "note": 49,
      "start": 30.2891,
      "duration": 0.0862,
      "velocity": 117,
      "chip": "ym2612"
    },
    {
      "channel": 1,
      "note": 49,
      "start": 30.2892,
      "duration": 0.0862,
      "velocity": 117,
      "chip": "ym2612"
    },
    {
      "channel": 2,
      "note": 49,
      "start": 30.2893,
      "duration": 0.0635,
      "velocity": 91,
      "chip": "ym2612"
    },
    {
      "channel": 0,
      "note": 49,
      "start": 30.3754,
      "duration": 0.0808,
      "velocity": 117,
      "chip": "ym2612"
    },
    {
      "channel": 1,
      "note": 49,
      "start": 30.3755,
      "duration": 0.0808,
      "velocity": 117,
      "chip": "ym2612"
    },
    {
      "channel": 2,
      "note": 49,
      "start": 30.3755,
      "duration": 0.0605,
      "velocity": 91,
      "chip": "ym2612"
    },
    {
      "channel": 3,
      "note": 36,
      "start": 30.3756,
      "duration": 0.0105,
      "velocity": 101,
      "chip": "ym2612"
    },
    {
      "channel": 0,
      "note": 49,
      "start": 30.4563,
      "duration": 0.0859,
      "velocity": 117,
      "chip": "ym2612"
    },
    {
      "channel": 1,
      "note": 49,
      "start": 30.4563,
      "duration": 0.0859,
      "velocity": 117,
      "chip": "ym2612"
    },
    {
      "channel": 2,
      "note": 49,
      "start": 30.4564,
      "duration": 0.063,
      "velocity": 91,
      "chip": "ym2612"
    },
    {
      "channel": 3,
      "note": 36,
      "start": 30.4565,
      "duration": 0.013,
      "velocity": 101,
      "chip": "ym2612"
    },
    {
      "channel": 0,
      "note": 49,
      "start": 30.5423,
      "duration": 0.0802,
      "velocity": 117,
      "chip": "ym2612"
    },
    {
      "channel": 1,
      "note": 49,
      "start": 30.5423,
      "duration": 0.0801,
      "velocity": 117,
      "chip": "ym2612"
    },
    {
      "channel": 2,
      "note": 49,
      "start": 30.5424,
      "duration": 0.0603,
      "velocity": 91,
      "chip": "ym2612"
    },
    {
      "channel": 3,
      "note": 43,
      "start": 30.5424,
      "duration": 0.0802,
      "velocity": 127,
      "chip": "ym2612"
    },
    {
      "channel": 0,
      "note": 49,
      "start": 30.6224,
      "duration": 0.0865,
      "velocity": 117,
      "chip": "ym2612"
    },
    {
      "channel": 1,
      "note": 49,
      "start": 30.6225,
      "duration": 0.0865,
      "velocity": 117,
      "chip": "ym2612"
    },
    {
      "channel": 2,
      "note": 49,
      "start": 30.6226,
      "duration": 0.0635,
      "velocity": 91,
      "chip": "ym2612"
    },
    {
      "channel": 0,
      "note": 49,
      "start": 30.709,
      "duration": 0.08,
      "velocity": 117,
      "chip": "ym2612"
    },
    {
      "channel": 1,
      "note": 49,
      "start": 30.7091,
      "duration": 0.0799,
      "velocity": 117,
      "chip": "ym2612"
    },
    {
      "channel": 2,
      "note": 49,
      "start": 30.7092,
      "duration": 0.0602,
      "velocity": 91,
      "chip": "ym2612"
    },
    {
      "channel": 3,
      "note": 36,
      "start": 30.7093,
      "duration": 0.0435,
      "velocity": 101,
      "chip": "ym2612"
    },
    {
      "channel": 0,
      "note": 49,
      "start": 30.789,
      "duration": 0.0865,
      "velocity": 117,
      "chip": "ym2612"
    },
    {
      "channel": 1,
      "note": 49,
      "start": 30.7891,
      "duration": 0.0865,
      "velocity": 117,
      "chip": "ym2612"
    },
    {
      "channel": 2,
      "note": 49,
      "start": 30.7891,
      "duration": 0.0636,
      "velocity": 91,
      "chip": "ym2612"
    },
    {
      "channel": 0,
      "note": 49,
      "start": 30.8755,
      "duration": 0.0802,
      "velocity": 117,
      "chip": "ym2612"
    },
    {
      "channel": 1,
      "note": 49,
      "start": 30.8757,
      "duration": 0.0801,
      "velocity": 117,
      "chip": "ym2612"
    },
    {
      "channel": 2,
      "note": 49,
      "start": 30.8757,
      "duration": 0.0603,
      "velocity": 91,
      "chip": "ym2612"
    },
    {
      "channel": 3,
      "note": 43,
      "start": 30.8758,
      "duration": 0.0802,
      "velocity": 127,
      "chip": "ym2612"
    },
    {
      "channel": 0,
      "note": 49,
      "start": 30.9558,
      "duration": 0.0863,
      "velocity": 117,
      "chip": "ym2612"
    },
    {
      "channel": 1,
      "note": 49,
      "start": 30.9559,
      "duration": 0.0863,
      "velocity": 117,
      "chip": "ym2612"
    },
    {
      "channel": 2,
      "note": 49,
      "start": 30.9559,
      "duration": 0.0635,
      "velocity": 91,
      "chip": "ym2612"
    },
    {
      "channel": 0,
      "note": 49,
      "start": 31.0421,
      "duration": 0.0808,
      "velocity": 117,
      "chip": "ym2612"
    },
    {
      "channel": 1,
      "note": 49,
      "start": 31.0422,
      "duration": 0.0807,
      "velocity": 117,
      "chip": "ym2612"
    },
    {
      "channel": 2,
      "note": 49,
      "start": 31.0423,
      "duration": 0.0604,
      "velocity": 91,
      "chip": "ym2612"
    },
    {
      "channel": 3,
      "note": 36,
      "start": 31.0423,
      "duration": 0.0104,
      "velocity": 101,
      "chip": "ym2612"
    },
    {
      "channel": 0,
      "note": 49,
      "start": 31.1229,
      "duration": 0.086,
      "velocity": 117,
      "chip": "ym2612"
    },
    {
      "channel": 1,
      "note": 49,
      "start": 31.123,
      "duration": 0.0859,
      "velocity": 117,
      "chip": "ym2612"
    },
    {
      "channel": 2,
      "note": 49,
      "start": 31.1231,
      "duration": 0.063,
      "velocity": 91,
      "chip": "ym2612"
    },
    {
      "channel": 3,
      "note": 36,
      "start": 31.1231,
      "duration": 0.013,
      "velocity": 101,
      "chip": "ym2612"
    },
    {
      "channel": 0,
      "note": 49,
      "start": 31.2089,
      "duration": 0.0807,
      "velocity": 117,
      "chip": "ym2612"
    },
    {
      "channel": 1,
      "note": 49,
      "start": 31.209,
      "duration": 0.0807,
      "velocity": 117,
      "chip": "ym2612"
    },
    {
      "channel": 2,
      "note": 49,
      "start": 31.2091,
      "duration": 0.0603,
      "velocity": 91,
      "chip": "ym2612"
    },
    {
      "channel": 3,
      "note": 43,
      "start": 31.2091,
      "duration": 0.0808,
      "velocity": 127,
      "chip": "ym2612"
    },
    {
      "channel": 0,
      "note": 49,
      "start": 31.2897,
      "duration": 0.0886,
      "velocity": 117,
      "chip": "ym2612"
    },
    {
      "channel": 1,
      "note": 49,
      "start": 31.2898,
      "duration": 0.0885,
      "velocity": 117,
      "chip": "ym2612"
    },
    {
      "channel": 2,
      "note": 49,
      "start": 31.2898,
      "duration": 0.0629,
      "velocity": 91,
      "chip": "ym2612"
    },
    {
      "channel": 4,
      "note": 76,
      "start": 31.29,
      "duration": 0.0629,
      "velocity": 97,
      "chip": "ym2612"
    },
    {
      "channel": 0,
      "note": 52,
      "start": 31.3783,
      "duration": 0.2469,
      "velocity": 117,
      "chip": "ym2612"
    },
    {
      "channel": 1,
      "note": 52,
      "start": 31.3784,
      "duration": 0.2469,
      "velocity": 117,
      "chip": "ym2612"
    },
    {
      "channel": 2,
      "note": 52,
      "start": 31.3785,
      "duration": 0.2243,
      "velocity": 91,
      "chip": "ym2612"
    },
    {
      "channel": 3,
      "note": 43,
      "start": 31.3785,
      "duration": 0.0242,
      "velocity": 127,
      "chip": "ym2612"
    },
    {
      "channel": 4,
      "note": 75,
      "start": 31.3786,
      "duration": 0.0574,
      "velocity": 97,
      "chip": "ym2612"
    },
    {
      "channel": 3,
      "note": 43,
      "start": 31.4567,
      "duration": 0.0293,
      "velocity": 127,
      "chip": "ym2612"
    },
    {
      "channel": 4,
      "note": 76,
      "start": 31.4568,
      "duration": 0.0626,
      "velocity": 97,
      "chip": "ym2612"
    },
    {
      "channel": 3,
      "note": 43,
      "start": 31.5415,
      "duration": 0.0279,
      "velocity": 127,
      "chip": "ym2612"
    },
    {
      "channel": 4,
      "note": 78,
      "start": 31.5416,
      "duration": 0.0613,
      "velocity": 97,
      "chip": "ym2612"
    },
    {
      "channel": 0,
      "note": 52,
      "start": 31.6253,
      "duration": 0.2494,
      "velocity": 117,
      "chip": "ym2612"
    },
    {
      "channel": 1,
      "note": 52,
      "start": 31.6254,
      "duration": 0.2495,
      "velocity": 117,
      "chip": "ym2612"
    },
    {
      "channel": 2,
      "note": 52,
      "start": 31.6254,
      "duration": 0.2273,
      "velocity": 91,
      "chip": "ym2612"
    },
    {
      "channel": 3,
      "note": 43,
      "start": 31.6255,
      "duration": 0.0272,
      "velocity": 127,
      "chip": "ym2612"
    },
    {
      "channel": 4,
      "note": 76,
      "start": 31.6255,
      "duration": 0.0605,
      "velocity": 97,
      "chip": "ym2612"
    },
    {
      "channel": 3,
      "note": 43,
      "start": 31.7067,
      "duration": 0.0293,
      "velocity": 127,
      "chip": "ym2612"
    },
    {
      "channel": 4,
      "note": 78,
      "start": 31.7068,
      "duration": 0.0626,
      "velocity": 97,
      "chip": "ym2612"
    },
    {
      "channel": 3,
      "note": 43,
      "start": 31.7915,
      "duration": 0.0279,
      "velocity": 127,
      "chip": "ym2612"
    },
    {
      "channel": 4,
      "note": 88,
      "start": 31.7916,
      "duration": 0.1279,
      "velocity": 97,
      "chip": "ym2612"
    },
    {
      "channel": 0,
      "note": 52,
      "start": 31.8748,
      "duration": 0.1697,
      "velocity": 117,
      "chip": "ym2612"
    },
    {
      "channel": 1,
      "note": 52,
      "start": 31.8748,
      "duration": 0.1698,
      "velocity": 117,
      "chip": "ym2612"
    },
    {
      "channel": 2,
      "note": 52,
      "start": 31.8749,
      "duration": 0.1278,
      "velocity": 91,
      "chip": "ym2612"
    },
    {
      "channel": 3,
      "note": 43,
      "start": 31.875,
      "duration": 0.0277,
      "velocity": 127,
      "chip": "ym2612"
    },
    {
      "channel": 3,
      "note": 43,
      "start": 31.959,
      "duration": 0.0271,
      "velocity": 127,
      "chip": "ym2612"
    },
    {
      "channel": 4,
      "note": 80,
      "start": 31.9591,
      "duration": 0.2508,
      "velocity": 117,
      "chip": "ym2612"
    },
    {
      "channel": 0,
      "note": 56,
      "start": 32.0446,
      "duration": 0.0778,
      "velocity": 117,
      "chip": "ym2612"
    },
    {
      "channel": 1,
      "note": 56,
      "start": 32.0446,
      "duration": 0.0778,
      "velocity": 117,
      "chip": "ym2612"
    },
    {
      "channel": 2,
      "note": 56,
      "start": 32.0447,
      "duration": 0.0581,
      "velocity": 91,
      "chip": "ym2612"
    },
    {
      "channel": 3,
      "note": 36,
      "start": 32.0448,
      "duration": 0.0414,
      "velocity": 101,
      "chip": "ym2612"
    },
    {
      "channel": 0,
      "note": 56,
      "start": 32.1224,
      "duration": 0.0871,
      "velocity": 117,
      "chip": "ym2612"
    },
    {
      "channel": 1,
      "note": 56,
      "start": 32.1225,
      "duration": 0.0872,
      "velocity": 117,
      "chip": "ym2612"
    },
    {
      "channel": 2,
      "note": 56,
      "start": 32.1225,
      "duration": 0.0636,
      "velocity": 91,
      "chip": "ym2612"
    },
    {
      "channel": 0,
      "note": 56,
      "start": 32.2096,
      "duration": 0.0795,
      "velocity": 117,
      "chip": "ym2612"
    },
    {
      "channel": 1,
      "note": 56,
      "start": 32.2097,
      "duration": 0.0794,
      "velocity": 117,
      "chip": "ym2612"
    },
    {
      "channel": 2,
      "note": 56,
      "start": 32.2098,
      "duration": 0.0597,
      "velocity": 91,
      "chip": "ym2612"
    },
    {
      "channel": 3,
      "note": 43,
      "start": 32.2098,
      "duration": 0.0795,
      "velocity": 127,
      "chip": "ym2612"
    },
    {
      "channel": 4,
      "note": 78,
      "start": 32.2099,
      "duration": 0.2473,
      "velocity": 117,
      "chip": "ym2612"
    },
    {
      "channel": 0,
      "note": 56,
      "start": 32.2891,
      "duration": 0.0862,
      "velocity": 117,
      "chip": "ym2612"
    },
    {
      "channel": 1,
      "note": 56,
      "start": 32.2892,
      "duration": 0.0862,
      "velocity": 117,
      "chip": "ym2612"
    },
    {
      "channel": 2,
      "note": 56,
      "start": 32.2893,
      "duration": 0.0635,
      "velocity": 91,
      "chip": "ym2612"
    },
    {
      "channel": 0,
      "note": 56,
      "start": 32.3754,
      "duration": 0.0815,
      "velocity": 117,
      "chip": "ym2612"
    },
    {
      "channel": 1,
      "note": 56,
      "start": 32.3755,
      "duration": 0.0815,
      "velocity": 117,
      "chip": "ym2612"
    },
    {
      "channel": 2,
      "note": 56,
      "start": 32.3755,
      "duration": 0.0606,
      "velocity": 91,
      "chip": "ym2612"
    },
    {
      "channel": 3,
      "note": 36,
      "start": 32.3756,
      "duration": 0.0105,
      "velocity": 101,
      "chip": "ym2612"
    },
    {
      "channel": 0,
      "note": 56,
      "start": 32.457,
      "duration": 0.0853,
      "velocity": 117,
      "chip": "ym2612"
    },
    {
      "channel": 1,
      "note": 56,
      "start": 32.457,
      "duration": 0.0853,
      "velocity": 117,
      "chip": "ym2612"
    },
    {
      "channel": 2,
      "note": 56,
      "start": 32.4571,
      "duration": 0.0623,
      "velocity": 91,
      "chip": "ym2612"
    },
    {
      "channel": 3,
      "note": 36,
      "start": 32.4571,
      "duration": 0.0124,
      "velocity": 101,
      "chip": "ym2612"
    },
    {
      "channel": 4,
      "note": 80,
      "start": 32.4573,
      "duration": 0.1662,
      "velocity": 117,
      "chip": "ym2612"
    },
    {
      "channel": 0,
      "note": 56,
      "start": 32.5423,
      "duration": 0.0809,
      "velocity": 117,
      "chip": "ym2612"
    },
    {
      "channel": 1,
      "note": 56,
      "start": 32.5424,
      "duration": 0.0808,
      "velocity": 117,
      "chip": "ym2612"
    },
    {
      "channel": 2,
      "note": 56,
      "start": 32.5424,
      "duration": 0.0603,
      "velocity": 91,
      "chip": "ym2612"
    },
    {
      "channel": 3,
      "note": 43,
      "start": 32.5425,
      "duration": 0.0809,
      "velocity": 127,
      "chip": "ym2612"
    },
    {
      "channel": 0,
      "note": 56,
      "start": 32.6232,
      "duration": 0.0858,
      "velocity": 117,
      "chip": "ym2612"
    },
    {
      "channel": 1,
      "note": 56,
      "start": 32.6232,
      "duration": 0.0859,
      "velocity": 117,
      "chip": "ym2612"
    },
    {
      "channel": 2,
      "note": 56,
      "start": 32.6233,
      "duration": 0.0629,
      "velocity": 91,
      "chip": "ym2612"
    },
    {
      "channel": 4,
      "note": 81,
      "start": 32.6235,
      "duration": 0.253,
      "velocity": 117,
      "chip": "ym2612"
    },
    {
      "channel": 0,
      "note": 56,
      "start": 32.7091,
      "duration": 0.08,
      "velocity": 117,
      "chip": "ym2612"
    },
    {
      "channel": 1,
      "note": 56,
      "start": 32.7091,
      "duration": 0.08,
      "velocity": 117,
      "chip": "ym2612"
    },
    {
      "channel": 2,
      "note": 56,
      "start": 32.7092,
      "duration": 0.0602,
      "velocity": 91,
      "chip": "ym2612"
    },
    {
      "channel": 3,
      "note": 36,
      "start": 32.7093,
      "duration": 0.0435,
      "velocity": 101,
      "chip": "ym2612"
    },
    {
      "channel": 0,
      "note": 56,
      "start": 32.7891,
      "duration": 0.0871,
      "velocity": 117,
      "chip": "ym2612"
    },
    {
      "channel": 1,
      "note": 56,
      "start": 32.7891,
      "duration": 0.0872,
      "velocity": 117,
      "chip": "ym2612"
    },
    {
      "channel": 2,
      "note": 56,
      "start": 32.7892,
      "duration": 0.0636,
      "velocity": 91,
      "chip": "ym2612"
    },
    {
      "channel": 0,
      "note": 56,
      "start": 32.8762,
      "duration": 0.0795,
      "velocity": 117,
      "chip": "ym2612"
    },
    {
      "channel": 1,
      "note": 56,
      "start": 32.8764,
      "duration": 0.0795,
      "velocity": 117,
      "chip": "ym2612"
    },
    {
      "channel": 2,
      "note": 56,
      "start": 32.8764,
      "duration": 0.0597,
      "velocity": 91,
      "chip": "ym2612"
    },
    {
      "channel": 3,
      "note": 43,
      "start": 32.8765,
      "duration": 0.0795,
      "velocity": 127,
      "chip": "ym2612"
    },
    {
      "channel": 4,
      "note": 83,
      "start": 32.8766,
      "duration": 0.2473,
      "velocity": 117,
      "chip": "ym2612"
    },
    {
      "channel": 0,
      "note": 56,
      "start": 32.9558,
      "duration": 0.0862,
      "velocity": 117,
      "chip": "ym2612"
    },
    {
      "channel": 1,
      "note": 56,
      "start": 32.9559,
      "duration": 0.0862,
      "velocity": 117,
      "chip": "ym2612"
    },
    {
      "channel": 2,
      "note": 56,
      "start": 32.9559,
      "duration": 0.0635,
      "velocity": 91,
      "chip": "ym2612"
    },
    {
      "channel": 0,
      "note": 56,
      "start": 33.0421,
      "duration": 0.0815,
      "velocity": 117,
      "chip": "ym2612"
    },
    {
      "channel": 1,
      "note": 56,
      "start": 33.0421,
      "duration": 0.0815,
      "velocity": 117,
      "chip": "ym2612"
    },
    {
      "channel": 2,
      "note": 56,
      "start": 33.0422,
      "duration": 0.0606,
      "velocity": 91,
      "chip": "ym2612"
    },
    {
      "channel": 3,
      "note": 36,
      "start": 33.0423,
      "duration": 0.0106,
      "velocity": 101,
      "chip": "ym2612"
    },
    {
      "channel": 0,
      "note": 56,
      "start": 33.1236,
      "duration": 0.0853,
      "velocity": 117,
      "chip": "ym2612"
    },
    {
      "channel": 1,
      "note": 56,
      "start": 33.1237,
      "duration": 0.0853,
      "velocity": 117,
      "chip": "ym2612"
    },
    {
      "channel": 2,
      "note": 56,
      "start": 33.1238,
      "duration": 0.0623,
      "velocity": 91,
      "chip": "ym2612"
    },
    {
      "channel": 3,
      "note": 36,
      "start": 33.1238,
      "duration": 0.0124,
      "velocity": 101,
      "chip": "ym2612"
    },
    {
      "channel": 4,
      "note": 85,
      "start": 33.1239,
      "duration": 0.1671,
      "velocity": 117,
      "chip": "ym2612"
    },
    {
      "channel": 0,
      "note": 56,
      "start": 33.2089,
      "duration": 0.0817,
      "velocity": 117,
      "chip": "ym2612"
    },
    {
      "channel": 1,
      "note": 56,
      "start": 33.2091,
      "duration": 0.0817,
      "velocity": 117,
      "chip": "ym2612"
    },
    {
      "channel": 2,
      "note": 56,
      "start": 33.2091,
      "duration": 0.0603,
      "velocity": 91,
      "chip": "ym2612"
    },
    {
      "channel": 3,
      "note": 43,
      "start": 33.2092,
      "duration": 0.0817,
      "velocity": 127,
      "chip": "ym2612"
    },
    {
      "channel": 0,
      "note": 56,
      "start": 33.2907,
      "duration": 0.085,
      "velocity": 117,
      "chip": "ym2612"
    },
    {
      "channel": 1,
      "note": 56,
      "start": 33.2908,
      "duration": 0.0851,
      "velocity": 117,
      "chip": "ym2612"
    },
    {
      "channel": 2,
      "note": 56,
      "start": 33.2909,
      "duration": 0.062,
      "velocity": 91,
      "chip": "ym2612"
    },
    {
      "channel": 4,
      "note": 75,
      "start": 33.2911,
      "duration": 1.3327,
      "velocity": 117,
      "chip": "ym2612"
    },
    {
      "channel": 0,
      "note": 56,
      "start": 33.3758,
      "duration": 0.08,
      "velocity": 117,
      "chip": "ym2612"
    },
    {
      "channel": 1,
      "note": 56,
      "start": 33.3759,
      "duration": 0.0799,
      "velocity": 117,
      "chip": "ym2612"
    },
    {
      "channel": 2,
      "note": 56,
      "start": 33.376,
      "duration": 0.0602,
      "velocity": 91,
      "chip": "ym2612"
    },
    {
      "channel": 3,
      "note": 36,
      "start": 33.3761,
      "duration": 0.0435,
      "velocity": 101,
      "chip": "ym2612"
    },
    {
      "channel": 0,
      "note": 56,
      "start": 33.4558,
      "duration": 0.0865,
      "velocity": 117,
      "chip": "ym2612"
    },
    {
      "channel": 1,
      "note": 56,
      "start": 33.4559,
      "duration": 0.0865,
      "velocity": 117,
      "chip": "ym2612"
    },
    {
      "channel": 2,
      "note": 56,
      "start": 33.4559,
      "duration": 0.0636,
      "velocity": 91,
      "chip": "ym2612"
    },
    {
      "channel": 0,
      "note": 56,
      "start": 33.5424,
      "duration": 0.0801,
      "velocity": 117,
      "chip": "ym2612"
    },
    {
      "channel": 1,
      "note": 56,
      "start": 33.5424,
      "duration": 0.0802,
      "velocity": 117,
      "chip": "ym2612"
    },
    {
      "channel": 2,
      "note": 56,
      "start": 33.5425,
      "duration": 0.0603,
      "velocity": 91,
      "chip": "ym2612"
    },
    {
      "channel": 3,
      "note": 43,
      "start": 33.5426,
      "duration": 0.0802,
      "velocity": 127,
      "chip": "ym2612"
    },
    {
      "channel": 0,
      "note": 56,
      "start": 33.6225,
      "duration": 0.0862,
      "velocity": 117,
      "chip": "ym2612"
    },
    {
      "channel": 1,
      "note": 56,
      "start": 33.6227,
      "duration": 0.0862,
      "velocity": 117,
      "chip": "ym2612"
    },
    {
      "channel": 2,
      "note": 56,
      "start": 33.6227,
      "duration": 0.0635,
      "velocity": 91,
      "chip": "ym2612"
    },
    {
      "channel": 0,
      "note": 56,
      "start": 33.7088,
      "duration": 0.0809,
      "velocity": 117,
      "chip": "ym2612"
    },
    {
      "channel": 1,
      "note": 56,
      "start": 33.7089,
      "duration": 0.0809,
      "velocity": 117,
      "chip": "ym2612"
    },
    {
      "channel": 2,
      "note": 56,
      "start": 33.7089,
      "duration": 0.0606,
      "velocity": 91,
      "chip": "ym2612"
    },
    {
      "channel": 3,
      "note": 36,
      "start": 33.7091,
      "duration": 0.0105,
      "velocity": 101,
      "chip": "ym2612"
    },
    {
      "channel": 0,
      "note": 56,
      "start": 33.7897,
      "duration": 0.0859,
      "velocity": 117,
      "chip": "ym2612"
    },
    {
      "channel": 1,
      "note": 56,
      "start": 33.7898,
      "duration": 0.0859,
      "velocity": 117,
      "chip": "ym2612"
    },
    {
      "channel": 2,
      "note": 56,
      "start": 33.7898,
      "duration": 0.063,
      "velocity": 91,
      "chip": "ym2612"
    },
    {
      "channel": 3,
      "note": 36,
      "start": 33.7899,
      "duration": 0.013,
      "velocity": 101,
      "chip": "ym2612"
    },
    {
      "channel": 0,
      "note": 56,
      "start": 33.8757,
      "duration": 0.0801,
      "velocity": 117,
      "chip": "ym2612"
    },
    {
      "channel": 1,
      "note": 56,
      "start": 33.8758,
      "duration": 0.0802,
      "velocity": 117,
      "chip": "ym2612"
    },
    {
      "channel": 2,
      "note": 56,
      "start": 33.8759,
      "duration": 0.0603,
      "velocity": 91,
      "chip": "ym2612"
    },
    {
      "channel": 3,
      "note": 43,
      "start": 33.8759,
      "duration": 0.0802,
      "velocity": 127,
      "chip": "ym2612"
    },
    {
      "channel": 0,
      "note": 56,
      "start": 33.9559,
      "duration": 0.0886,
      "velocity": 117,
      "chip": "ym2612"
    },
    {
      "channel": 1,
      "note": 56,
      "start": 33.956,
      "duration": 0.0886,
      "velocity": 117,
      "chip": "ym2612"
    },
    {
      "channel": 2,
      "note": 56,
      "start": 33.9561,
      "duration": 0.0635,
      "velocity": 91,
      "chip": "ym2612"
    },
    {
      "channel": 0,
      "note": 45,
      "start": 34.0446,
      "duration": 0.2469,
      "velocity": 117,
      "chip": "ym2612"
    },
    {
      "channel": 1,
      "note": 45,
      "start": 34.0447,
      "duration": 0.2469,
      "velocity": 117,
      "chip": "ym2612"
    },
    {
      "channel": 2,
      "note": 45,
      "start": 34.0447,
      "duration": 0.2247,
      "velocity": 91,
      "chip": "ym2612"
    },
    {
      "channel": 3,
      "note": 43,
      "start": 34.0448,
      "duration": 0.0247,
      "velocity": 127,
      "chip": "ym2612"
    },
    {
      "channel": 3,
      "note": 43,
      "start": 34.123,
      "duration": 0.0298,
      "velocity": 127,
      "chip": "ym2612"
    },
    {
      "channel": 3,
      "note": 43,
      "start": 34.2077,
      "duration": 0.0284,
      "velocity": 127,
      "chip": "ym2612"
    },
    {
      "channel": 0,
      "note": 45,
      "start": 34.2915,
      "duration": 0.2499,
      "velocity": 117,
      "chip": "ym2612"
    },
    {
      "channel": 1,
      "note": 45,
      "start": 34.2916,
      "duration": 0.2499,
      "velocity": 117,
      "chip": "ym2612"
    },
    {
      "channel": 2,
      "note": 45,
      "start": 34.2917,
      "duration": 0.2277,
      "velocity": 91,
      "chip": "ym2612"
    },
    {
      "channel": 3,
      "note": 43,
      "start": 34.2917,
      "duration": 0.0278,
      "velocity": 127,
      "chip": "ym2612"
    },
    {
      "channel": 3,
      "note": 43,
      "start": 34.373,
      "duration": 0.0298,
      "velocity": 127,
      "chip": "ym2612"
    },
    {
      "channel": 3,
      "note": 43,
      "start": 34.4577,
      "duration": 0.0284,
      "velocity": 127,
      "chip": "ym2612"
    },
    {
      "channel": 0,
      "note": 45,
      "start": 34.5415,
      "duration": 0.1703,
      "velocity": 117,
      "chip": "ym2612"
    },
    {
      "channel": 1,
      "note": 45,
      "start": 34.5416,
      "duration": 0.1702,
      "velocity": 117,
      "chip": "ym2612"
    },
    {
      "channel": 2,
      "note": 45,
      "start": 34.5417,
      "duration": 0.1277,
      "velocity": 91,
      "chip": "ym2612"
    },
    {
      "channel": 3,
      "note": 43,
      "start": 34.5417,
      "duration": 0.0278,
      "velocity": 127,
      "chip": "ym2612"
    },
    {
      "channel": 3,
      "note": 43,
      "start": 34.6237,
      "duration": 0.0291,
      "velocity": 127,
      "chip": "ym2612"
    },
    {
      "channel": 4,
      "note": 95,
      "start": 34.6238,
      "duration": 0.0883,
      "velocity": 117,
      "chip": "ym2612"
    },
    {
      "channel": 0,
      "note": 56,
      "start": 34.7119,
      "duration": 0.0779,
      "velocity": 117,
      "chip": "ym2612"
    },
    {
      "channel": 1,
      "note": 56,
      "start": 34.7119,
      "duration": 0.0779,
      "velocity": 117,
      "chip": "ym2612"
    },
    {
      "channel": 2,
      "note": 56,
      "start": 34.712,
      "duration": 0.0574,
      "velocity": 91,
      "chip": "ym2612"
    },
    {
      "channel": 3,
      "note": 36,
      "start": 34.712,
      "duration": 0.0408,
      "velocity": 101,
      "chip": "ym2612"
    },
    {
      "channel": 4,
      "note": 93,
      "start": 34.7122,
      "duration": 0.0778,
      "velocity": 117,
      "chip": "ym2612"
    },
    {
      "channel": 0,
      "note": 56,
      "start": 34.7897,
      "duration": 0.0864,
      "velocity": 117,
      "chip": "ym2612"
    },
    {
      "channel": 1,
      "note": 56,
      "start": 34.7898,
      "duration": 0.0865,
      "velocity": 117,
      "chip": "ym2612"
    },
    {
      "channel": 2,
      "note": 56,
      "start": 34.7899,
      "duration": 0.0629,
      "velocity": 91,
      "chip": "ym2612"
    },
    {
      "channel": 4,
      "note": 92,
      "start": 34.79,
      "duration": 0.0864,
      "velocity": 117,
      "chip": "ym2612"
    },
    {
      "channel": 0,
      "note": 56,
      "start": 34.8762,
      "duration": 0.0802,
      "velocity": 117,
      "chip": "ym2612"
    },
    {
      "channel": 1,
      "note": 56,
      "start": 34.8764,
      "duration": 0.0801,
      "velocity": 117,
      "chip": "ym2612"
    },
    {
      "channel": 2,
      "note": 56,
      "start": 34.8764,
      "duration": 0.0597,
      "velocity": 91,
      "chip": "ym2612"
    },
    {
      "channel": 3,
      "note": 43,
      "start": 34.8765,
      "duration": 0.0802,
      "velocity": 127,
      "chip": "ym2612"
    },
    {
      "channel": 4,
      "note": 90,
      "start": 34.8766,
      "duration": 0.0802,
      "velocity": 117,
      "chip": "ym2612"
    },
    {
      "channel": 0,
      "note": 56,
      "start": 34.9565,
      "duration": 0.0861,
      "velocity": 117,
      "chip": "ym2612"
    },
    {
      "channel": 1,
      "note": 56,
      "start": 34.9566,
      "duration": 0.0861,
      "velocity": 117,
      "chip": "ym2612"
    },
    {
      "channel": 2,
      "note": 56,
      "start": 34.9566,
      "duration": 0.0628,
      "velocity": 91,
      "chip": "ym2612"
    },
    {
      "channel": 4,
      "note": 95,
      "start": 34.9568,
      "duration": 0.0861,
      "velocity": 117,
      "chip": "ym2612"
    },
    {
      "channel": 0,
      "note": 56,
      "start": 35.0427,
      "duration": 0.0809,
      "velocity": 117,
      "chip": "ym2612"
    },
    {
      "channel": 1,
      "note": 56,
      "start": 35.0428,
      "duration": 0.0809,
      "velocity": 117,
      "chip": "ym2612"
    },
    {
      "channel": 2,
      "note": 56,
      "start": 35.0428,
      "duration": 0.0599,
      "velocity": 91,
      "chip": "ym2612"
    },
    {
      "channel": 3,
      "note": 36,
      "start": 35.0429,
      "duration": 0.0099,
      "velocity": 101,
      "chip": "ym2612"
    },
    {
      "channel": 4,
      "note": 93,
      "start": 35.043,
      "duration": 0.0809,
      "velocity": 117,
      "chip": "ym2612"
    },
    {
      "channel": 0,
      "note": 56,
      "start": 35.1236,
      "duration": 0.0859,
      "velocity": 117,
      "chip": "ym2612"
    },
    {
      "channel": 1,
      "note": 56,
      "start": 35.1238,
      "duration": 0.0859,
      "velocity": 117,
      "chip": "ym2612"
    },
    {
      "channel": 2,
      "note": 56,
      "start": 35.1238,
      "duration": 0.0623,
      "velocity": 91,
      "chip": "ym2612"
    },
    {
      "channel": 3,
      "note": 36,
      "start": 35.1239,
      "duration": 0.0123,
      "velocity": 101,
      "chip": "ym2612"
    },
    {
      "channel": 4,
      "note": 92,
      "start": 35.1239,
      "duration": 0.0859,
      "velocity": 117,
      "chip": "ym2612"
    },
    {
      "channel": 0,
      "note": 56,
      "start": 35.2096,
      "duration": 0.0802,
      "velocity": 117,
      "chip": "ym2612"
    },
    {
      "channel": 1,
      "note": 56,
      "start": 35.2097,
      "duration": 0.0801,
      "velocity": 117,
      "chip": "ym2612"
    },
    {
      "channel": 2,
      "note": 56,
      "start": 35.2098,
      "duration": 0.0597,
      "velocity": 91,
      "chip": "ym2612"
    },
    {
      "channel": 3,
      "note": 43,
      "start": 35.2098,
      "duration": 0.0802,
      "velocity": 127,
      "chip": "ym2612"
    },
    {
      "channel": 4,
      "note": 90,
      "start": 35.2099,
      "duration": 0.0802,
      "velocity": 117,
      "chip": "ym2612"
    },
    {
      "channel": 0,
      "note": 56,
      "start": 35.2898,
      "duration": 0.0865,
      "velocity": 117,
      "chip": "ym2612"
    },
    {
      "channel": 1,
      "note": 56,
      "start": 35.2899,
      "duration": 0.0865,
      "velocity": 117,
      "chip": "ym2612"
    },
    {
      "channel": 2,
      "note": 56,
      "start": 35.29,
      "duration": 0.0629,
      "velocity": 91,
      "chip": "ym2612"
    },
    {
      "channel": 4,
      "note": 95,
      "start": 35.2902,
      "duration": 0.0865,
      "velocity": 117,
      "chip": "ym2612"
    },
    {
      "channel": 0,
      "note": 56,
      "start": 35.3764,
      "duration": 0.08,
      "velocity": 117,
      "chip": "ym2612"
    },
    {
      "channel": 1,
      "note": 56,
      "start": 35.3764,
      "duration": 0.08,
      "velocity": 117,
      "chip": "ym2612"
    },
    {
      "channel": 2,
      "note": 56,
      "start": 35.3765,
      "duration": 0.0596,
      "velocity": 91,
      "chip": "ym2612"
    },
    {
      "channel": 3,
      "note": 36,
      "start": 35.3766,
      "duration": 0.0429,
      "velocity": 101,
      "chip": "ym2612"
    },
    {
      "channel": 4,
      "note": 93,
      "start": 35.3767,
      "duration": 0.08,
      "velocity": 117,
      "chip": "ym2612"
    },
    {
      "channel": 0,
      "note": 56,
      "start": 35.4564,
      "duration": 0.0864,
      "velocity": 117,
      "chip": "ym2612"
    },
    {
      "channel": 1,
      "note": 56,
      "start": 35.4565,
      "duration": 0.0865,
      "velocity": 117,
      "chip": "ym2612"
    },
    {
      "channel": 2,
      "note": 56,
      "start": 35.4566,
      "duration": 0.0629,
      "velocity": 91,
      "chip": "ym2612"
    },
    {
      "channel": 4,
      "note": 92,
      "start": 35.4567,
      "duration": 0.0864,
      "velocity": 117,
      "chip": "ym2612"
    },
    {
      "channel": 0,
      "note": 56,
      "start": 35.5429,
      "duration": 0.0802,
      "velocity": 117,
      "chip": "ym2612"
    },
    {
      "channel": 1,
      "note": 56,
      "start": 35.543,
      "duration": 0.0801,
      "velocity": 117,
      "chip": "ym2612"
    },
    {
      "channel": 2,
      "note": 56,
      "start": 35.5431,
      "duration": 0.0597,
      "velocity": 91,
      "chip": "ym2612"
    },
    {
      "channel": 3,
      "note": 43,
      "start": 35.5432,
      "duration": 0.0802,
      "velocity": 127,
      "chip": "ym2612"
    },
    {
      "channel": 4,
      "note": 90,
      "start": 35.5432,
      "duration": 0.0802,
      "velocity": 117,
      "chip": "ym2612"
    },
    {
      "channel": 0,
      "note": 56,
      "start": 35.6232,
      "duration": 0.0861,
      "velocity": 117,
      "chip": "ym2612"
    },
    {
      "channel": 1,
      "note": 56,
      "start": 35.6232,
      "duration": 0.0861,
      "velocity": 117,
      "chip": "ym2612"
    },
    {
      "channel": 2,
      "note": 56,
      "start": 35.6233,
      "duration": 0.0628,
      "velocity": 91,
      "chip": "ym2612"
    },
    {
      "channel": 4,
      "note": 95,
      "start": 35.6235,
      "duration": 0.0861,
      "velocity": 117,
      "chip": "ym2612"
    },
    {
      "channel": 0,
      "note": 56,
      "start": 35.7094,
      "duration": 0.0809,
      "velocity": 117,
      "chip": "ym2612"
    },
    {
      "channel": 1,
      "note": 56,
      "start": 35.7094,
      "duration": 0.0809,
      "velocity": 117,
      "chip": "ym2612"
    },
    {
      "channel": 2,
      "note": 56,
      "start": 35.7095,
      "duration": 0.0599,
      "velocity": 91,
      "chip": "ym2612"
    },
    {
      "channel": 3,
      "note": 36,
      "start": 35.7096,
      "duration": 0.0099,
      "velocity": 101,
      "chip": "ym2612"
    },
    {
      "channel": 4,
      "note": 93,
      "start": 35.7097,
      "duration": 0.0809,
      "velocity": 117,
      "chip": "ym2612"
    },
    {
      "channel": 0,
      "note": 56,
      "start": 35.7903,
      "duration": 0.0859,
      "velocity": 117,
      "chip": "ym2612"
    },
    {
      "channel": 1,
      "note": 56,
      "start": 35.7904,
      "duration": 0.0859,
      "velocity": 117,
      "chip": "ym2612"
    },
    {
      "channel": 2,
      "note": 56,
      "start": 35.7905,
      "duration": 0.0623,
      "velocity": 91,
      "chip": "ym2612"
    },
    {
      "channel": 3,
      "note": 36,
      "start": 35.7905,
      "duration": 0.0123,
      "velocity": 101,
      "chip": "ym2612"
    },
    {
      "channel": 4,
      "note": 92,
      "start": 35.7906,
      "duration": 0.0859,
      "velocity": 117,
      "chip": "ym2612"
    },
    {
      "channel": 0,
      "note": 56,
      "start": 35.8762,
      "duration": 0.0802,
      "velocity": 117,
      "chip": "ym2612"
    },
    {
      "channel": 1,
      "note": 56,
      "start": 35.8764,
      "duration": 0.0802,
      "velocity": 117,
      "chip": "ym2612"
    },
    {
      "channel": 2,
      "note": 56,
      "start": 35.8764,
      "duration": 0.0597,
      "velocity": 91,
      "chip": "ym2612"
    },
    {
      "channel": 3,
      "note": 43,
      "start": 35.8765,
      "duration": 0.0803,
      "velocity": 127,
      "chip": "ym2612"
    },
    {
      "channel": 4,
      "note": 90,
      "start": 35.8766,
      "duration": 0.0802,
      "velocity": 117,
      "chip": "ym2612"
    },
    {
      "channel": 0,
      "note": 56,
      "start": 35.9565,
      "duration": 0.0859,
      "velocity": 117,
      "chip": "ym2612"
    },
    {
      "channel": 1,
      "note": 56,
      "start": 35.9566,
      "duration": 0.0858,
      "velocity": 117,
      "chip": "ym2612"
    },
    {
      "channel": 2,
      "note": 56,
      "start": 35.9567,
      "duration": 0.0628,
      "velocity": 91,
      "chip": "ym2612"
    },
    {
      "channel": 4,
      "note": 104,
      "start": 35.9568,
      "duration": 2.663,
      "velocity": 117,
      "chip": "ym2612"
    },
    {
      "channel": 0,
      "note": 56,
      "start": 36.0424,
      "duration": 0.08,
      "velocity": 117,
      "chip": "ym2612"
    },
    {
      "channel": 1,
      "note": 56,
      "start": 36.0425,
      "duration": 0.08,
      "velocity": 117,
      "chip": "ym2612"
    },
    {
      "channel": 2,
      "note": 56,
      "start": 36.0426,
      "duration": 0.0602,
      "velocity": 91,
      "chip": "ym2612"
    },
    {
      "channel": 3,
      "note": 36,
      "start": 36.0427,
      "duration": 0.0435,
      "velocity": 101,
      "chip": "ym2612"
    },
    {
      "channel": 0,
      "note": 56,
      "start": 36.1224,
      "duration": 0.0865,
      "velocity": 117,
      "chip": "ym2612"
    },
    {
      "channel": 1,
      "note": 56,
      "start": 36.1225,
      "duration": 0.0865,
      "velocity": 117,
      "chip": "ym2612"
    },
    {
      "channel": 2,
      "note": 56,
      "start": 36.1226,
      "duration": 0.0636,
      "velocity": 91,
      "chip": "ym2612"
    },
    {
      "channel": 0,
      "note": 56,
      "start": 36.209,
      "duration": 0.0801,
      "velocity": 117,
      "chip": "ym2612"
    },
    {
      "channel": 1,
      "note": 56,
      "start": 36.2091,
      "duration": 0.0801,
      "velocity": 117,
      "chip": "ym2612"
    },
    {
      "channel": 2,
      "note": 56,
      "start": 36.2091,
      "duration": 0.0604,
      "velocity": 91,
      "chip": "ym2612"
    },
    {
      "channel": 3,
      "note": 43,
      "start": 36.2092,
      "duration": 0.0802,
      "velocity": 127,
      "chip": "ym2612"
    },
    {
      "channel": 0,
      "note": 56,
      "start": 36.2891,
      "duration": 0.0862,
      "velocity": 117,
      "chip": "ym2612"
    },
    {
      "channel": 1,
      "note": 56,
      "start": 36.2893,
      "duration": 0.0862,
      "velocity": 117,
      "chip": "ym2612"
    },
    {
      "channel": 2,
      "note": 56,
      "start": 36.2893,
      "duration": 0.0635,
      "velocity": 91,
      "chip": "ym2612"
    },
    {
      "channel": 0,
      "note": 56,
      "start": 36.3754,
      "duration": 0.0809,
      "velocity": 117,
      "chip": "ym2612"
    },
    {
      "channel": 1,
      "note": 56,
      "start": 36.3755,
      "duration": 0.0808,
      "velocity": 117,
      "chip": "ym2612"
    },
    {
      "channel": 2,
      "note": 56,
      "start": 36.3756,
      "duration": 0.0606,
      "velocity": 91,
      "chip": "ym2612"
    },
    {
      "channel": 3,
      "note": 36,
      "start": 36.3757,
      "duration": 0.0105,
      "velocity": 101,
      "chip": "ym2612"
    },
    {
      "channel": 0,
      "note": 56,
      "start": 36.4563,
      "duration": 0.0859,
      "velocity": 117,
      "chip": "ym2612"
    },
    {
      "channel": 1,
      "note": 56,
      "start": 36.4564,
      "duration": 0.0859,
      "velocity": 117,
      "chip": "ym2612"
    },
    {
      "channel": 2,
      "note": 56,
      "start": 36.4565,
      "duration": 0.063,
      "velocity": 91,
      "chip": "ym2612"
    },
    {
      "channel": 3,
      "note": 36,
      "start": 36.4565,
      "duration": 0.013,
      "velocity": 101,
      "chip": "ym2612"
    },
    {
      "channel": 0,
      "note": 56,
      "start": 36.5423,
      "duration": 0.0801,
      "velocity": 117,
      "chip": "ym2612"
    },
    {
      "channel": 1,
      "note": 56,
      "start": 36.5424,
      "duration": 0.0801,
      "velocity": 117,
      "chip": "ym2612"
    },
    {
      "channel": 2,
      "note": 56,
      "start": 36.5424,
      "duration": 0.0604,
      "velocity": 91,
      "chip": "ym2612"
    },
    {
      "channel": 3,
      "note": 43,
      "start": 36.5425,
      "duration": 0.0802,
      "velocity": 127,
      "chip": "ym2612"
    },
    {
      "channel": 0,
      "note": 56,
      "start": 36.6225,
      "duration": 0.0887,
      "velocity": 117,
      "chip": "ym2612"
    },
    {
      "channel": 1,
      "note": 56,
      "start": 36.6226,
      "duration": 0.0886,
      "velocity": 117,
      "chip": "ym2612"
    },
    {
      "channel": 2,
      "note": 56,
      "start": 36.6227,
      "duration": 0.0635,
      "velocity": 91,
      "chip": "ym2612"
    },
    {
      "channel": 0,
      "note": 45,
      "start": 36.7112,
      "duration": 0.2469,
      "velocity": 117,
      "chip": "ym2612"
    },
    {
      "channel": 1,
      "note": 45,
      "start": 36.7113,
      "duration": 0.2469,
      "velocity": 117,
      "chip": "ym2612"
    },
    {
      "channel": 2,
      "note": 45,
      "start": 36.7114,
      "duration": 0.2247,
      "velocity": 91,
      "chip": "ym2612"
    },
    {
      "channel": 3,
      "note": 43,
      "start": 36.7114,
      "duration": 0.0247,
      "velocity": 127,
      "chip": "ym2612"
    },
    {
      "channel": 3,
      "note": 43,
      "start": 36.7896,
      "duration": 0.0298,
      "velocity": 127,
      "chip": "ym2612"
    },
    {
      "channel": 3,
      "note": 43,
      "start": 36.8744,
      "duration": 0.0284,
      "velocity": 127,
      "chip": "ym2612"
    },
    {
      "channel": 0,
      "note": 45,
      "start": 36.9582,
      "duration": 0.2499,
      "velocity": 117,
      "chip": "ym2612"
    },
    {
      "channel": 1,
      "note": 45,
      "start": 36.9582,
      "duration": 0.2499,
      "velocity": 117,
      "chip": "ym2612"
    },
    {
      "channel": 2,
      "note": 45,
      "start": 36.9583,
      "duration": 0.2278,
      "velocity": 91,
      "chip": "ym2612"
    },
    {
      "channel": 3,
      "note": 43,
      "start": 36.9584,
      "duration": 0.0277,
      "velocity": 127,
      "chip": "ym2612"
    },
    {
      "channel": 3,
      "note": 43,
      "start": 37.0396,
      "duration": 0.0298,
      "velocity": 127,
      "chip": "ym2612"
    },
    {
      "channel": 3,
      "note": 43,
      "start": 37.1244,
      "duration": 0.0284,
      "velocity": 127,
      "chip": "ym2612"
    },
    {
      "channel": 0,
      "note": 45,
      "start": 37.2082,
      "duration": 0.169,
      "velocity": 117,
      "chip": "ym2612"
    },
    {
      "channel": 1,
      "note": 45,
      "start": 37.2082,
      "duration": 0.169,
      "velocity": 117,
      "chip": "ym2612"
    },
    {
      "channel": 2,
      "note": 45,
      "start": 37.2083,
      "duration": 0.1278,
      "velocity": 91,
      "chip": "ym2612"
    },
    {
      "channel": 3,
      "note": 43,
      "start": 37.2084,
      "duration": 0.0277,
      "velocity": 127,
      "chip": "ym2612"
    },
    {
      "channel": 3,
      "note": 43,
      "start": 37.2896,
      "duration": 0.0298,
      "velocity": 127,
      "chip": "ym2612"
    },
    {
      "channel": 0,
      "note": 61,
      "start": 37.3772,
      "duration": 2.0,
      "velocity": 117,
      "chip": "ym2612"
    },
    {
      "channel": 1,
      "note": 61,
      "start": 37.3773,
      "duration": 2.0,
      "velocity": 117,
      "chip": "ym2612"
    },
    {
      "channel": 2,
      "note": 61,
      "start": 37.3774,
      "duration": 1.9088,
      "velocity": 91,
      "chip": "ym2612"
    },
    {
      "channel": 3,
      "note": 36,
      "start": 37.3774,
      "duration": 0.042,
      "velocity": 101,
      "chip": "ym2612"
    },
    {
      "channel": 3,
      "note": 43,
      "start": 37.5393,
      "duration": 0.0802,
      "velocity": 127,
      "chip": "ym2612"
    },
    {
      "channel": 3,
      "note": 36,
      "start": 37.7057,
      "duration": 0.0137,
      "velocity": 101,
      "chip": "ym2612"
    },
    {
      "channel": 3,
      "note": 36,
      "start": 37.7866,
      "duration": 0.0162,
      "velocity": 101,
      "chip": "ym2612"
    },
    {
      "channel": 3,
      "note": 43,
      "start": 37.8726,
      "duration": 0.0802,
      "velocity": 127,
      "chip": "ym2612"
    },
    {
      "channel": 3,
      "note": 36,
      "start": 38.0394,
      "duration": 0.0467,
      "velocity": 101,
      "chip": "ym2612"
    },
    {
      "channel": 3,
      "note": 43,
      "start": 38.2059,
      "duration": 0.0802,
      "velocity": 127,
      "chip": "ym2612"
    },
    {
      "channel": 3,
      "note": 36,
      "start": 38.3724,
      "duration": 0.0137,
      "velocity": 101,
      "chip": "ym2612"
    },
    {
      "channel": 3,
      "note": 36,
      "start": 38.4533,
      "duration": 0.0162,
      "velocity": 101,
      "chip": "ym2612"
    },
    {
      "channel": 3,
      "note": 43,
      "start": 38.5393,
      "duration": 0.0805,
      "velocity": 127,
      "chip": "ym2612"
    },
    {
      "channel": 3,
      "note": 36,
      "start": 38.7075,
      "duration": 0.0453,
      "velocity": 101,
      "chip": "ym2612"
    },
    {
      "channel": 3,
      "note": 43,
      "start": 38.8726,
      "duration": 0.0802,
      "velocity": 127,
      "chip": "ym2612"
    },
    {
      "channel": 3,
      "note": 36,
      "start": 39.039,
      "duration": 0.0137,
      "velocity": 101,
      "chip": "ym2612"
    },
    {
      "channel": 3,
      "note": 36,
      "start": 39.1199,
      "duration": 0.0162,
      "velocity": 101,
      "chip": "ym2612"
    },
    {
      "channel": 3,
      "note": 43,
      "start": 39.2059,
      "duration": 0.0803,
      "velocity": 127,
      "chip": "ym2612"
    },
    {
      "channel": 0,
      "note": 64,
      "start": 39.3773,
      "duration": 0.2475,
      "velocity": 117,
      "chip": "ym2612"
    },
    {
      "channel": 1,
      "note": 64,
      "start": 39.3774,
      "duration": 0.2475,
      "velocity": 117,
      "chip": "ym2612"
    },
    {
      "channel": 2,
      "note": 64,
      "start": 39.3774,
      "duration": 0.2253,
      "velocity": 91,
      "chip": "ym2612"
    },
    {
      "channel": 3,
      "note": 43,
      "start": 39.3775,
      "duration": 0.0253,
      "velocity": 127,
      "chip": "ym2612"
    },
    {
      "channel": 3,
      "note": 43,
      "start": 39.4563,
      "duration": 0.0298,
      "velocity": 127,
      "chip": "ym2612"
    },
    {
      "channel": 3,
      "note": 43,
      "start": 39.5411,
      "duration": 0.0284,
      "velocity": 127,
      "chip": "ym2612"
    },
    {
      "channel": 0,
      "note": 66,
      "start": 39.6248,
      "duration": 0.2499,
      "velocity": 117,
      "chip": "ym2612"
    },
    {
      "channel": 1,
      "note": 66,
      "start": 39.6249,
      "duration": 0.2499,
      "velocity": 117,
      "chip": "ym2612"
    },
    {
      "channel": 2,
      "note": 66,
      "start": 39.625,
      "duration": 0.2278,
      "velocity": 91,
      "chip": "ym2612"
    },
    {
      "channel": 3,
      "note": 43,
      "start": 39.625,
      "duration": 0.0278,
      "velocity": 127,
      "chip": "ym2612"
    },
    {
      "channel": 3,
      "note": 43,
      "start": 39.7063,
      "duration": 0.0298,
      "velocity": 127,
      "chip": "ym2612"
    },
    {
      "channel": 3,
      "note": 43,
      "start": 39.7911,
      "duration": 0.0284,
      "velocity": 127,
      "chip": "ym2612"
    },
    {
      "channel": 0,
      "note": 63,
      "start": 39.8748,
      "duration": 0.1688,
      "velocity": 117,
      "chip": "ym2612"
    },
    {
      "channel": 1,
      "note": 63,
      "start": 39.8749,
      "duration": 0.1688,
      "velocity": 117,
      "chip": "ym2612"
    },
    {
      "channel": 2,
      "note": 63,
      "start": 39.875,
      "duration": 0.1278,
      "velocity": 91,
      "chip": "ym2612"
    },
    {
      "channel": 3,
      "note": 43,
      "start": 39.875,
      "duration": 0.0278,
      "velocity": 127,
      "chip": "ym2612"
    },
    {
      "channel": 3,
      "note": 43,
      "start": 39.9563,
      "duration": 0.0298,
      "velocity": 127,
      "chip": "ym2612"
    },
    {
      "channel": 0,
      "note": 61,
      "start": 40.0437,
      "duration": 2.0002,
      "velocity": 117,
      "chip": "ym2612"
    },
    {
      "channel": 1,
      "note": 61,
      "start": 40.0438,
      "duration": 2.0002,
      "velocity": 117,
      "chip": "ym2612"
    },
    {
      "channel": 2,
      "note": 61,
      "start": 40.0439,
      "duration": 1.9104,
      "velocity": 91,
      "chip": "ym2612"
    },
    {
      "channel": 3,
      "note": 36,
      "start": 40.0439,
      "duration": 0.0422,
      "velocity": 101,
      "chip": "ym2612"
    },
    {
      "channel": 3,
      "note": 43,
      "start": 40.2059,
      "duration": 0.0802,
      "velocity": 127,
      "chip": "ym2612"
    },
    {
      "channel": 3,
      "note": 36,
      "start": 40.3724,
      "duration": 0.0137,
      "velocity": 101,
      "chip": "ym2612"
    },
    {
      "channel": 3,
      "note": 36,
      "start": 40.4533,
      "duration": 0.0162,
      "velocity": 101,
      "chip": "ym2612"
    },
    {
      "channel": 3,
      "note": 43,
      "start": 40.5393,
      "duration": 0.0802,
      "velocity": 127,
      "chip": "ym2612"
    },
    {
      "channel": 3,
      "note": 36,
      "start": 40.7061,
      "duration": 0.0467,
      "velocity": 101,
      "chip": "ym2612"
    },
    {
      "channel": 3,
      "note": 43,
      "start": 40.8726,
      "duration": 0.0802,
      "velocity": 127,
      "chip": "ym2612"
    },
    {
      "channel": 3,
      "note": 36,
      "start": 41.039,
      "duration": 0.0137,
      "velocity": 101,
      "chip": "ym2612"
    },
    {
      "channel": 3,
      "note": 36,
      "start": 41.1199,
      "duration": 0.0162,
      "velocity": 101,
      "chip": "ym2612"
    },
    {
      "channel": 3,
      "note": 43,
      "start": 41.2059,
      "duration": 0.0826,
      "velocity": 127,
      "chip": "ym2612"
    },
    {
      "channel": 3,
      "note": 36,
      "start": 41.3741,
      "duration": 0.0453,
      "velocity": 101,
      "chip": "ym2612"
    },
    {
      "channel": 3,
      "note": 43,
      "start": 41.5393,
      "duration": 0.0802,
      "velocity": 127,
      "chip": "ym2612"
    },
    {
      "channel": 3,
      "note": 36,
      "start": 41.7057,
      "duration": 0.0137,
      "velocity": 101,
      "chip": "ym2612"
    },
    {
      "channel": 3,
      "note": 36,
      "start": 41.7866,
      "duration": 0.0162,
      "velocity": 101,
      "chip": "ym2612"
    },
    {
      "channel": 3,
      "note": 43,
      "start": 41.8726,
      "duration": 0.0817,
      "velocity": 127,
      "chip": "ym2612"
    },
    {
      "channel": 4,
      "note": 48,
      "start": 41.9544,
      "duration": 1.3324,
      "velocity": 117,
      "chip": "ym2612"
    },
    {
      "channel": 0,
      "note": 59,
      "start": 42.044,
      "duration": 0.2474,
      "velocity": 117,
      "chip": "ym2612"
    },
    {
      "channel": 1,
      "note": 59,
      "start": 42.044,
      "duration": 0.2475,
      "velocity": 117,
      "chip": "ym2612"
    },
    {
      "channel": 2,
      "note": 59,
      "start": 42.0441,
      "duration": 0.2254,
      "velocity": 91,
      "chip": "ym2612"
    },
    {
      "channel": 3,
      "note": 43,
      "start": 42.0442,
      "duration": 0.0253,
      "velocity": 127,
      "chip": "ym2612"
    },
    {
      "channel": 3,
      "note": 43,
      "start": 42.123,
      "duration": 0.0298,
      "velocity": 127,
      "chip": "ym2612"
    },
    {
      "channel": 3,
      "note": 43,
      "start": 42.2077,
      "duration": 0.0284,
      "velocity": 127,
      "chip": "ym2612"
    },
    {
      "channel": 0,
      "note": 59,
      "start": 42.2915,
      "duration": 0.4195,
      "velocity": 117,
      "chip": "ym2612"
    },
    {
      "channel": 1,
      "note": 59,
      "start": 42.2916,
      "duration": 0.4195,
      "velocity": 117,
      "chip": "ym2612"
    },
    {
      "channel": 2,
      "note": 59,
      "start": 42.2917,
      "duration": 0.3778,
      "velocity": 91,
      "chip": "ym2612"
    },
    {
      "channel": 3,
      "note": 43,
      "start": 42.2917,
      "duration": 0.0278,
      "velocity": 127,
      "chip": "ym2612"
    },
    {
      "channel": 3,
      "note": 43,
      "start": 42.373,
      "duration": 0.0298,
      "velocity": 127,
      "chip": "ym2612"
    },
    {
      "channel": 3,
      "note": 43,
      "start": 42.4577,
      "duration": 0.0284,
      "velocity": 127,
      "chip": "ym2612"
    },
    {
      "channel": 3,
      "note": 43,
      "start": 42.5411,
      "duration": 0.0284,
      "velocity": 127,
      "chip": "ym2612"
    },
    {
      "channel": 3,
      "note": 43,
      "start": 42.6231,
      "duration": 0.0298,
      "velocity": 127,
      "chip": "ym2612"
    },
    {
      "channel": 0,
      "note": 44,
      "start": 42.7111,
      "duration": 1.9899,
      "velocity": 117,
      "chip": "ym2612"
    },
    {
      "channel": 1,
      "note": 56,
      "start": 42.7112,
      "duration": 1.9898,
      "velocity": 117,
      "chip": "ym2612"
    },
    {
      "channel": 2,
      "note": 56,
      "start": 42.7112,
      "duration": 1.9083,
      "velocity": 91,
      "chip": "ym2612"
    },
    {
      "channel": 3,
      "note": 43,
      "start": 42.7114,
      "duration": 0.0749,
      "velocity": 127,
      "chip": "ym2612"
    },
    {
      "channel": 4,
      "note": 92,
      "start": 43.2868,
      "duration": 0.0834,
      "velocity": 117,
      "chip": "ym2612"
    },
    {
      "channel": 4,
      "note": 93,
      "start": 43.3703,
      "duration": 0.0832,
      "velocity": 117,
      "chip": "ym2612"
    },
    {
      "channel": 4,
      "note": 92,
      "start": 43.4535,
      "duration": 0.0833,
      "velocity": 117,
      "chip": "ym2612"
    },
    {
      "channel": 4,
      "note": 90,
      "start": 43.5367,
      "duration": 0.0833,
      "velocity": 117,
      "chip": "ym2612"
    },
    {
      "channel": 4,
      "note": 88,
      "start": 43.6201,
      "duration": 0.0833,
      "velocity": 117,
      "chip": "ym2612"
    },
    {
      "channel": 4,
      "note": 90,
      "start": 43.7034,
      "duration": 0.0833,
      "velocity": 117,
      "chip": "ym2612"
    },
    {
      "channel": 4,
      "note": 88,
      "start": 43.7867,
      "duration": 0.0833,
      "velocity": 117,
      "chip": "ym2612"
    },
    {
      "channel": 4,
      "note": 87,
      "start": 43.8701,
      "duration": 0.0842,
      "velocity": 117,
      "chip": "ym2612"
    },
    {
      "channel": 4,
      "note": 104,
      "start": 43.9544,
      "duration": 0.7466,
      "velocity": 117,
      "chip": "ym2612"
    }
  ]
}