{
  "track_name": "34 - Mega Man 3- Topman Stage",
  "duration_sec": 49.485,
  "sample_rate": 44100,
  "note_count": 1192,
  "unique_pitches": 43,
  "pitch_range": 63,
  "avg_note_duration": 0.1658,
  "reconstruction_stats": {
    "notes_reconstructed": 1192,
    "keyon_events": 1192,
    "keyoff_events": 1191,
    "orphan_keyons": 1,
    "unique_pitches": 43,
    "pitch_range": 63,
    "avg_duration_sec": 0.1658
  },
  "metadata": {
    "source": "M\\Mega Man - The Wily Wars\\34 - Mega Man 3- Topman Stage.vgm"
  },
  "notes": [
    {
      "channel": 0,
      "note": 74,
      "start": 0.0,
      "duration": 0.1339,
      "velocity": 112,
      "chip": "ym2612"
    },
    {
      "channel": 1,
      "note": 62,
      "start": 0.0035,
      "duration": 0.1311,
      "velocity": 112,
      "chip": "ym2612"
    },
    {
      "channel": 2,
      "note": 50,
      "start": 0.0069,
      "duration": 0.1285,
      "velocity": 104,
      "chip": "ym2612"
    },
    {
      "channel": 3,
      "note": 62,
      "start": 0.0104,
      "duration": 0.1258,
      "velocity": 85,
      "chip": "ym2612"
    },
    {
      "channel": 0,
      "note": 73,
      "start": 0.1345,
      "duration": 0.1494,
      "velocity": 112,
      "chip": "ym2612"
    },
    {
      "channel": 1,
      "note": 61,
      "start": 0.1352,
      "duration": 0.1494,
      "velocity": 112,
      "chip": "ym2612"
    },
    {
      "channel": 2,
      "note": 49,
      "start": 0.1361,
      "duration": 0.1494,
      "velocity": 104,
      "chip": "ym2612"
    },
    {
      "channel": 3,
      "note": 61,
      "start": 0.1368,
      "duration": 0.1494,
      "velocity": 85,
      "chip": "ym2612"
    },
    {
      "channel": 0,
      "note": 71,
      "start": 0.2845,
      "duration": 0.1494,
      "velocity": 112,
      "chip": "ym2612"
    },
    {
      "channel": 1,
      "note": 59,
      "start": 0.2852,
      "duration": 0.1494,
      "velocity": 112,
      "chip": "ym2612"
    },
    {
      "channel": 2,
      "note": 47,
      "start": 0.2861,
      "duration": 0.1494,
      "velocity": 104,
      "chip": "ym2612"
    },
    {
      "channel": 3,
      "note": 59,
      "start": 0.2868,
      "duration": 0.1494,
      "velocity": 85,
      "chip": "ym2612"
    },
    {
      "channel": 0,
      "note": 76,
      "start": 0.4345,
      "duration": 0.4661,
      "velocity": 112,
      "chip": "ym2612"
    },
    {
      "channel": 1,
      "note": 64,
      "start": 0.4352,
      "duration": 0.466,
      "velocity": 112,
      "chip": "ym2612"
    },
    {
      "channel": 2,
      "note": 52,
      "start": 0.4361,
      "duration": 0.466,
      "velocity": 104,
      "chip": "ym2612"
    },
    {
      "channel": 3,
      "note": 64,
      "start": 0.4368,
      "duration": 0.4661,
      "velocity": 85,
      "chip": "ym2612"
    },
    {
      "channel": 0,
      "note": 74,
      "start": 0.9012,
      "duration": 0.1494,
      "velocity": 112,
      "chip": "ym2612"
    },
    {
      "channel": 1,
      "note": 62,
      "start": 0.9019,
      "duration": 0.1494,
      "velocity": 112,
      "chip": "ym2612"
    },
    {
      "channel": 2,
      "note": 50,
      "start": 0.9027,
      "duration": 0.1494,
      "velocity": 104,
      "chip": "ym2612"
    },
    {
      "channel": 3,
      "note": 62,
      "start": 0.9034,
      "duration": 0.1494,
      "velocity": 85,
      "chip": "ym2612"
    },
    {
      "channel": 0,
      "note": 73,
      "start": 1.0512,
      "duration": 0.1661,
      "velocity": 112,
      "chip": "ym2612"
    },
    {
      "channel": 1,
      "note": 61,
      "start": 1.0519,
      "duration": 0.166,
      "velocity": 112,
      "chip": "ym2612"
    },
    {
      "channel": 2,
      "note": 49,
      "start": 1.0527,
      "duration": 0.166,
      "velocity": 104,
      "chip": "ym2612"
    },
    {
      "channel": 3,
      "note": 61,
      "start": 1.0534,
      "duration": 0.1661,
      "velocity": 85,
      "chip": "ym2612"
    },
    {
      "channel": 0,
      "note": 71,
      "start": 1.2178,
      "duration": 0.1494,
      "velocity": 112,
      "chip": "ym2612"
    },
    {
      "channel": 1,
      "note": 59,
      "start": 1.2186,
      "duration": 0.1494,
      "velocity": 112,
      "chip": "ym2612"
    },
    {
      "channel": 2,
      "note": 47,
      "start": 1.2194,
      "duration": 0.1494,
      "velocity": 104,
      "chip": "ym2612"
    },
    {
      "channel": 3,
      "note": 59,
      "start": 1.2201,
      "duration": 0.1494,
      "velocity": 85,
      "chip": "ym2612"
    },
    {
      "channel": 0,
      "note": 76,
      "start": 1.3678,
      "duration": 0.4661,
      "velocity": 112,
      "chip": "ym2612"
    },
    {
      "channel": 1,
      "note": 64,
      "start": 1.3686,
      "duration": 0.4662,
      "velocity": 112,
      "chip": "ym2612"
    },
    {
      "channel": 2,
      "note": 52,
      "start": 1.3694,
      "duration": 0.4663,
      "velocity": 104,
      "chip": "ym2612"
    },
    {
      "channel": 3,
      "note": 64,
      "start": 1.3701,
      "duration": 0.4665,
      "velocity": 85,
      "chip": "ym2612"
    },
    {
      "channel": 0,
      "note": 77,
      "start": 1.8346,
      "duration": 0.1493,
      "velocity": 112,
      "chip": "ym2612"
    },
    {
      "channel": 1,
      "note": 65,
      "start": 1.8355,
      "duration": 0.1491,
      "velocity": 112,
      "chip": "ym2612"
    },
    {
      "channel": 2,
      "note": 53,
      "start": 1.8363,
      "duration": 0.1491,
      "velocity": 104,
      "chip": "ym2612"
    },
    {
      "channel": 3,
      "note": 65,
      "start": 1.8372,
      "duration": 0.149,
      "velocity": 85,
      "chip": "ym2612"
    },
    {
      "channel": 0,
      "note": 78,
      "start": 1.9845,
      "duration": 0.1494,
      "velocity": 112,
      "chip": "ym2612"
    },
    {
      "channel": 1,
      "note": 66,
      "start": 1.9852,
      "duration": 0.1494,
      "velocity": 112,
      "chip": "ym2612"
    },
    {
      "channel": 2,
      "note": 54,
      "start": 1.9861,
      "duration": 0.1494,
      "velocity": 104,
      "chip": "ym2612"
    },
    {
      "channel": 3,
      "note": 66,
      "start": 1.9868,
      "duration": 0.1494,
      "velocity": 85,
      "chip": "ym2612"
    },
    {
      "channel": 0,
      "note": 71,
      "start": 2.1345,
      "duration": 0.1494,
      "velocity": 112,
      "chip": "ym2612"
    },
    {
      "channel": 1,
      "note": 59,
      "start": 2.1352,
      "duration": 0.1494,
      "velocity": 112,
      "chip": "ym2612"
    },
    {
      "channel": 2,
      "note": 47,
      "start": 2.1361,
      "duration": 0.1494,
      "velocity": 104,
      "chip": "ym2612"
    },
    {
      "channel": 3,
      "note": 59,
      "start": 2.1368,
      "duration": 0.1494,
      "velocity": 85,
      "chip": "ym2612"
    },
    {
      "channel": 0,
      "note": 69,
      "start": 2.2845,
      "duration": 0.1663,
      "velocity": 112,
      "chip": "ym2612"
    },
    {
      "channel": 1,
      "note": 57,
      "start": 2.2852,
      "duration": 0.1664,
      "velocity": 112,
      "chip": "ym2612"
    },
    {
      "channel": 2,
      "note": 45,
      "start": 2.2861,
      "duration": 0.1665,
      "velocity": 104,
      "chip": "ym2612"
    },
    {
      "channel": 3,
      "note": 57,
      "start": 2.2868,
      "duration": 0.1667,
      "velocity": 85,
      "chip": "ym2612"
    },
    {
      "channel": 0,
      "note": 74,
      "start": 2.4514,
      "duration": 0.1492,
      "velocity": 112,
      "chip": "ym2612"
    },
    {
      "channel": 1,
      "note": 62,
      "start": 2.4523,
      "duration": 0.149,
      "velocity": 112,
      "chip": "ym2612"
    },
    {
      "channel": 2,
      "note": 50,
      "start": 2.4532,
      "duration": 0.1489,
      "velocity": 104,
      "chip": "ym2612"
    },
    {
      "channel": 3,
      "note": 62,
      "start": 2.454,
      "duration": 0.1489,
      "velocity": 85,
      "chip": "ym2612"
    },
    {
      "channel": 0,
      "note": 73,
      "start": 2.6012,
      "duration": 0.1494,
      "velocity": 112,
      "chip": "ym2612"
    },
    {
      "channel": 1,
      "note": 61,
      "start": 2.6019,
      "duration": 0.1494,
      "velocity": 112,
      "chip": "ym2612"
    },
    {
      "channel": 2,
      "note": 49,
      "start": 2.6027,
      "duration": 0.1494,
      "velocity": 104,
      "chip": "ym2612"
    },
    {
      "channel": 3,
      "note": 61,
      "start": 2.6034,
      "duration": 0.1494,
      "velocity": 85,
      "chip": "ym2612"
    },
    {
      "channel": 0,
      "note": 71,
      "start": 2.7512,
      "duration": 0.1494,
      "velocity": 112,
      "chip": "ym2612"
    },
    {
      "channel": 1,
      "note": 59,
      "start": 2.7519,
      "duration": 0.1494,
      "velocity": 112,
      "chip": "ym2612"
    },
    {
      "channel": 2,
      "note": 47,
      "start": 2.7527,
      "duration": 0.1494,
      "velocity": 104,
      "chip": "ym2612"
    },
    {
      "channel": 3,
      "note": 59,
      "start": 2.7534,
      "duration": 0.1494,
      "velocity": 85,
      "chip": "ym2612"
    },
    {
      "channel": 0,
      "note": 76,
      "start": 2.9012,
      "duration": 0.4661,
      "velocity": 112,
      "chip": "ym2612"
    },
    {
      "channel": 1,
      "note": 64,
      "start": 2.9019,
      "duration": 0.466,
      "velocity": 112,
      "chip": "ym2612"
    },
    {
      "channel": 2,
      "note": 52,
      "start": 2.9027,
      "duration": 0.466,
      "velocity": 104,
      "chip": "ym2612"
    },
    {
      "channel": 3,
      "note": 64,
      "start": 2.9034,
      "duration": 0.4661,
      "velocity": 85,
      "chip": "ym2612"
    },
    {
      "channel": 0,
      "note": 74,
      "start": 3.3678,
      "duration": 0.1494,
      "velocity": 112,
      "chip": "ym2612"
    },
    {
      "channel": 1,
      "note": 62,
      "start": 3.3686,
      "duration": 0.1494,
      "velocity": 112,
      "chip": "ym2612"
    },
    {
      "channel": 2,
      "note": 50,
      "start": 3.3694,
      "duration": 0.1494,
      "velocity": 104,
      "chip": "ym2612"
    },
    {
      "channel": 3,
      "note": 62,
      "start": 3.3701,
      "duration": 0.1494,
      "velocity": 85,
      "chip": "ym2612"
    },
    {
      "channel": 0,
      "note": 73,
      "start": 3.5178,
      "duration": 0.1661,
      "velocity": 112,
      "chip": "ym2612"
    },
    {
      "channel": 1,
      "note": 61,
      "start": 3.5186,
      "duration": 0.1661,
      "velocity": 112,
      "chip": "ym2612"
    },
    {
      "channel": 2,
      "note": 49,
      "start": 3.5194,
      "duration": 0.166,
      "velocity": 104,
      "chip": "ym2612"
    },
    {
      "channel": 3,
      "note": 61,
      "start": 3.5201,
      "duration": 0.1661,
      "velocity": 85,
      "chip": "ym2612"
    },
    {
      "channel": 0,
      "note": 71,
      "start": 3.6845,
      "duration": 0.1494,
      "velocity": 112,
      "chip": "ym2612"
    },
    {
      "channel": 1,
      "note": 59,
      "start": 3.6853,
      "duration": 0.1493,
      "velocity": 112,
      "chip": "ym2612"
    },
    {
      "channel": 2,
      "note": 47,
      "start": 3.6861,
      "duration": 0.1494,
      "velocity": 104,
      "chip": "ym2612"
    },
    {
      "channel": 3,
      "note": 59,
      "start": 3.6868,
      "duration": 0.1494,
      "velocity": 85,
      "chip": "ym2612"
    },
    {
      "channel": 0,
      "note": 76,
      "start": 3.8345,
      "duration": 0.4687,
      "velocity": 112,
      "chip": "ym2612"
    },
    {
      "channel": 1,
      "note": 64,
      "start": 3.8352,
      "duration": 0.4688,
      "velocity": 112,
      "chip": "ym2612"
    },
    {
      "channel": 2,
      "note": 52,
      "start": 3.8361,
      "duration": 0.4688,
      "velocity": 104,
      "chip": "ym2612"
    },
    {
      "channel": 3,
      "note": 64,
      "start": 3.8368,
      "duration": 0.469,
      "velocity": 85,
      "chip": "ym2612"
    },
    {
      "channel": 0,
      "note": 77,
      "start": 4.3038,
      "duration": 0.1493,
      "velocity": 112,
      "chip": "ym2612"
    },
    {
      "channel": 1,
      "note": 65,
      "start": 4.3047,
      "duration": 0.1491,
      "velocity": 112,
      "chip": "ym2612"
    },
    {
      "channel": 2,
      "note": 53,
      "start": 4.3055,
      "duration": 0.1491,
      "velocity": 104,
      "chip": "ym2612"
    },
    {
      "channel": 3,
      "note": 65,
      "start": 4.3064,
      "duration": 0.149,
      "velocity": 85,
      "chip": "ym2612"
    },
    {
      "channel": 5,
      "note": 75,
      "start": 4.3071,
      "duration": 0.06,
      "velocity": 120,
      "chip": "ym2612"
    },
    {
      "channel": 5,
      "note": 75,
      "start": 4.3718,
      "duration": 0.0788,
      "velocity": 120,
      "chip": "ym2612"
    },
    {
      "channel": 0,
      "note": 78,
      "start": 4.4537,
      "duration": 0.1494,
      "velocity": 112,
      "chip": "ym2612"
    },
    {
      "channel": 1,
      "note": 66,
      "start": 4.4545,
      "duration": 0.1494,
      "velocity": 112,
      "chip": "ym2612"
    },
    {
      "channel": 2,
      "note": 54,
      "start": 4.4553,
      "duration": 0.1494,
      "velocity": 104,
      "chip": "ym2612"
    },
    {
      "channel": 3,
      "note": 66,
      "start": 4.456,
      "duration": 0.1494,
      "velocity": 85,
      "chip": "ym2612"
    },
    {
      "channel": 5,
      "note": 75,
      "start": 4.4568,
      "duration": 0.0604,
      "velocity": 120,
      "chip": "ym2612"
    },
    {
      "channel": 5,
      "note": 75,
      "start": 4.5218,
      "duration": 0.0788,
      "velocity": 120,
      "chip": "ym2612"
    },
    {
      "channel": 0,
      "note": 75,
      "start": 4.6037,
      "duration": 0.1494,
      "velocity": 112,
      "chip": "ym2612"
    },
    {
      "channel": 1,
      "note": 63,
      "start": 4.6045,
      "duration": 0.1494,
      "velocity": 112,
      "chip": "ym2612"
    },
    {
      "channel": 2,
      "note": 51,
      "start": 4.6053,
      "duration": 0.1494,
      "velocity": 104,
      "chip": "ym2612"
    },
    {
      "channel": 3,
      "note": 63,
      "start": 4.606,
      "duration": 0.1494,
      "velocity": 85,
      "chip": "ym2612"
    },
    {
      "channel": 5,
      "note": 75,
      "start": 4.6068,
      "duration": 0.0771,
      "velocity": 120,
      "chip": "ym2612"
    },
    {
      "channel": 5,
      "note": 75,
      "start": 4.6886,
      "duration": 0.0619,
      "velocity": 120,
      "chip": "ym2612"
    },
    {
      "channel": 0,
      "note": 76,
      "start": 4.7537,
      "duration": 0.1662,
      "velocity": 112,
      "chip": "ym2612"
    },
    {
      "channel": 1,
      "note": 64,
      "start": 4.7545,
      "duration": 0.1662,
      "velocity": 112,
      "chip": "ym2612"
    },
    {
      "channel": 2,
      "note": 52,
      "start": 4.7553,
      "duration": 0.1666,
      "velocity": 94,
      "chip": "ym2612"
    },
    {
      "channel": 3,
      "note": 64,
      "start": 4.756,
      "duration": 0.1668,
      "velocity": 85,
      "chip": "ym2612"
    },
    {
      "channel": 5,
      "note": 75,
      "start": 4.7568,
      "duration": 0.0771,
      "velocity": 120,
      "chip": "ym2612"
    },
    {
      "channel": 5,
      "note": 75,
      "start": 4.8386,
      "duration": 0.0787,
      "velocity": 120,
      "chip": "ym2612"
    },
    {
      "channel": 0,
      "note": 71,
      "start": 4.9205,
      "duration": 0.0968,
      "velocity": 112,
      "chip": "ym2612"
    },
    {
      "channel": 1,
      "note": 66,
      "start": 4.9213,
      "duration": 0.0963,
      "velocity": 112,
      "chip": "ym2612"
    },
    {
      "channel": 2,
      "note": 59,
      "start": 4.9225,
      "duration": 0.0954,
      "velocity": 94,
      "chip": "ym2612"
    },
    {
      "channel": 3,
      "note": 59,
      "start": 4.9234,
      "duration": 0.0949,
      "velocity": 85,
      "chip": "ym2612"
    },
    {
      "channel": 5,
      "note": 32,
      "start": 4.9242,
      "duration": 0.1945,
      "velocity": 114,
      "chip": "ym2612"
    },
    {
      "channel": 0,
      "note": 71,
      "start": 5.0689,
      "duration": 0.1513,
      "velocity": 112,
      "chip": "ym2612"
    },
    {
      "channel": 1,
      "note": 66,
      "start": 5.0698,
      "duration": 0.1511,
      "velocity": 112,
      "chip": "ym2612"
    },
    {
      "channel": 2,
      "note": 59,
      "start": 5.0707,
      "duration": 0.151,
      "velocity": 94,
      "chip": "ym2612"
    },
    {
      "channel": 3,
      "note": 59,
      "start": 5.0714,
      "duration": 0.0971,
      "velocity": 85,
      "chip": "ym2612"
    },
    {
      "channel": 0,
      "note": 78,
      "start": 5.2207,
      "duration": 0.1475,
      "velocity": 112,
      "chip": "ym2612"
    },
    {
      "channel": 1,
      "note": 71,
      "start": 5.2216,
      "duration": 0.1473,
      "velocity": 112,
      "chip": "ym2612"
    },
    {
      "channel": 2,
      "note": 66,
      "start": 5.2223,
      "duration": 0.1474,
      "velocity": 94,
      "chip": "ym2612"
    },
    {
      "channel": 3,
      "note": 59,
      "start": 5.2231,
      "duration": 0.0954,
      "velocity": 85,
      "chip": "ym2612"
    },
    {
      "channel": 5,
      "note": 75,
      "start": 5.2239,
      "duration": 0.3104,
      "velocity": 120,
      "chip": "ym2612"
    },
    {
      "channel": 0,
      "note": 71,
      "start": 5.3688,
      "duration": 0.1681,
      "velocity": 112,
      "chip": "ym2612"
    },
    {
      "channel": 1,
      "note": 66,
      "start": 5.3695,
      "duration": 0.168,
      "velocity": 112,
      "chip": "ym2612"
    },
    {
      "channel": 2,
      "note": 59,
      "start": 5.3704,
      "duration": 0.168,
      "velocity": 94,
      "chip": "ym2612"
    },
    {
      "channel": 3,
      "note": 59,
      "start": 5.3711,
      "duration": 0.1142,
      "velocity": 85,
      "chip": "ym2612"
    },
    {
      "channel": 0,
      "note": 76,
      "start": 5.5374,
      "duration": 0.1494,
      "velocity": 112,
      "chip": "ym2612"
    },
    {
      "channel": 1,
      "note": 69,
      "start": 5.5382,
      "duration": 0.1494,
      "velocity": 112,
      "chip": "ym2612"
    },
    {
      "channel": 2,
      "note": 64,
      "start": 5.539,
      "duration": 0.1494,
      "velocity": 94,
      "chip": "ym2612"
    },
    {
      "channel": 3,
      "note": 59,
      "start": 5.54,
      "duration": 0.0952,
      "velocity": 85,
      "chip": "ym2612"
    },
    {
      "channel": 5,
      "note": 32,
      "start": 5.5409,
      "duration": 0.1433,
      "velocity": 114,
      "chip": "ym2612"
    },
    {
      "channel": 0,
      "note": 71,
      "start": 5.6874,
      "duration": 0.1494,
      "velocity": 112,
      "chip": "ym2612"
    },
    {
      "channel": 1,
      "note": 66,
      "start": 5.6882,
      "duration": 0.1494,
      "velocity": 112,
      "chip": "ym2612"
    },
    {
      "channel": 2,
      "note": 59,
      "start": 5.689,
      "duration": 0.1494,
      "velocity": 94,
      "chip": "ym2612"
    },
    {
      "channel": 3,
      "note": 59,
      "start": 5.6898,
      "duration": 0.0954,
      "velocity": 85,
      "chip": "ym2612"
    },
    {
      "channel": 5,
      "note": 32,
      "start": 5.6906,
      "duration": 0.1437,
      "velocity": 114,
      "chip": "ym2612"
    },
    {
      "channel": 0,
      "note": 74,
      "start": 5.8374,
      "duration": 0.1475,
      "velocity": 112,
      "chip": "ym2612"
    },
    {
      "channel": 1,
      "note": 67,
      "start": 5.8382,
      "duration": 0.1473,
      "velocity": 112,
      "chip": "ym2612"
    },
    {
      "channel": 2,
      "note": 62,
      "start": 5.839,
      "duration": 0.1474,
      "velocity": 94,
      "chip": "ym2612"
    },
    {
      "channel": 3,
      "note": 59,
      "start": 5.8398,
      "duration": 0.0954,
      "velocity": 85,
      "chip": "ym2612"
    },
    {
      "channel": 5,
      "note": 75,
      "start": 5.8405,
      "duration": 0.3106,
      "velocity": 120,
      "chip": "ym2612"
    },
    {
      "channel": 0,
      "note": 71,
      "start": 5.9854,
      "duration": 0.1683,
      "velocity": 112,
      "chip": "ym2612"
    },
    {
      "channel": 1,
      "note": 66,
      "start": 5.9862,
      "duration": 0.1683,
      "velocity": 112,
      "chip": "ym2612"
    },
    {
      "channel": 2,
      "note": 59,
      "start": 5.987,
      "duration": 0.1683,
      "velocity": 94,
      "chip": "ym2612"
    },
    {
      "channel": 3,
      "note": 59,
      "start": 5.9877,
      "duration": 0.1141,
      "velocity": 85,
      "chip": "ym2612"
    },
    {
      "channel": 0,
      "note": 69,
      "start": 6.1543,
      "duration": 0.1492,
      "velocity": 112,
      "chip": "ym2612"
    },
    {
      "channel": 1,
      "note": 64,
      "start": 6.1551,
      "duration": 0.1492,
      "velocity": 112,
      "chip": "ym2612"
    },
    {
      "channel": 2,
      "note": 57,
      "start": 6.1559,
      "duration": 0.1491,
      "velocity": 94,
      "chip": "ym2612"
    },
    {
      "channel": 3,
      "note": 59,
      "start": 6.1569,
      "duration": 0.0949,
      "velocity": 85,
      "chip": "ym2612"
    },
    {
      "channel": 5,
      "note": 32,
      "start": 6.1578,
      "duration": 0.1431,
      "velocity": 114,
      "chip": "ym2612"
    },
    {
      "channel": 0,
      "note": 71,
      "start": 6.3041,
      "duration": 0.1494,
      "velocity": 112,
      "chip": "ym2612"
    },
    {
      "channel": 1,
      "note": 66,
      "start": 6.3049,
      "duration": 0.1494,
      "velocity": 112,
      "chip": "ym2612"
    },
    {
      "channel": 2,
      "note": 59,
      "start": 6.3057,
      "duration": 0.1494,
      "velocity": 94,
      "chip": "ym2612"
    },
    {
      "channel": 3,
      "note": 59,
      "start": 6.3064,
      "duration": 0.0954,
      "velocity": 85,
      "chip": "ym2612"
    },
    {
      "channel": 5,
      "note": 32,
      "start": 6.3073,
      "duration": 0.1437,
      "velocity": 114,
      "chip": "ym2612"
    },
    {
      "channel": 0,
      "note": 74,
      "start": 6.4541,
      "duration": 0.149,
      "velocity": 112,
      "chip": "ym2612"
    },
    {
      "channel": 1,
      "note": 69,
      "start": 6.4549,
      "duration": 0.1489,
      "velocity": 112,
      "chip": "ym2612"
    },
    {
      "channel": 2,
      "note": 62,
      "start": 6.4557,
      "duration": 0.149,
      "velocity": 94,
      "chip": "ym2612"
    },
    {
      "channel": 3,
      "note": 59,
      "start": 6.4564,
      "duration": 0.0954,
      "velocity": 85,
      "chip": "ym2612"
    },
    {
      "channel": 5,
      "note": 75,
      "start": 6.4572,
      "duration": 0.1433,
      "velocity": 120,
      "chip": "ym2612"
    },
    {
      "channel": 0,
      "note": 71,
      "start": 6.6037,
      "duration": 0.1645,
      "velocity": 112,
      "chip": "ym2612"
    },
    {
      "channel": 1,
      "note": 66,
      "start": 6.6045,
      "duration": 0.1644,
      "velocity": 112,
      "chip": "ym2612"
    },
    {
      "channel": 2,
      "note": 59,
      "start": 6.6053,
      "duration": 0.1644,
      "velocity": 94,
      "chip": "ym2612"
    },
    {
      "channel": 3,
      "note": 59,
      "start": 6.606,
      "duration": 0.1125,
      "velocity": 85,
      "chip": "ym2612"
    },
    {
      "channel": 5,
      "note": 32,
      "start": 6.6069,
      "duration": 0.2118,
      "velocity": 114,
      "chip": "ym2612"
    },
    {
      "channel": 0,
      "note": 76,
      "start": 6.7688,
      "duration": 0.1514,
      "velocity": 112,
      "chip": "ym2612"
    },
    {
      "channel": 1,
      "note": 71,
      "start": 6.7695,
      "duration": 0.1514,
      "velocity": 112,
      "chip": "ym2612"
    },
    {
      "channel": 2,
      "note": 64,
      "start": 6.7704,
      "duration": 0.1513,
      "velocity": 94,
      "chip": "ym2612"
    },
    {
      "channel": 3,
      "note": 59,
      "start": 6.7714,
      "duration": 0.0971,
      "velocity": 85,
      "chip": "ym2612"
    },
    {
      "channel": 0,
      "note": 71,
      "start": 6.9207,
      "duration": 0.1494,
      "velocity": 112,
      "chip": "ym2612"
    },
    {
      "channel": 1,
      "note": 66,
      "start": 6.9216,
      "duration": 0.1494,
      "velocity": 112,
      "chip": "ym2612"
    },
    {
      "channel": 2,
      "note": 59,
      "start": 6.9223,
      "duration": 0.1494,
      "velocity": 94,
      "chip": "ym2612"
    },
    {
      "channel": 3,
      "note": 59,
      "start": 6.9231,
      "duration": 0.0954,
      "velocity": 85,
      "chip": "ym2612"
    },
    {
      "channel": 5,
      "note": 32,
      "start": 6.9239,
      "duration": 0.1437,
      "velocity": 114,
      "chip": "ym2612"
    },
    {
      "channel": 0,
      "note": 74,
      "start": 7.0707,
      "duration": 0.1475,
      "velocity": 112,
      "chip": "ym2612"
    },
    {
      "channel": 1,
      "note": 69,
      "start": 7.0716,
      "duration": 0.1475,
      "velocity": 112,
      "chip": "ym2612"
    },
    {
      "channel": 2,
      "note": 62,
      "start": 7.0723,
      "duration": 0.1476,
      "velocity": 94,
      "chip": "ym2612"
    },
    {
      "channel": 3,
      "note": 59,
      "start": 7.0731,
      "duration": 0.0954,
      "velocity": 85,
      "chip": "ym2612"
    },
    {
      "channel": 5,
      "note": 75,
      "start": 7.0739,
      "duration": 0.3107,
      "velocity": 120,
      "chip": "ym2612"
    },
    {
      "channel": 0,
      "note": 71,
      "start": 7.2188,
      "duration": 0.2651,
      "velocity": 112,
      "chip": "ym2612"
    },
    {
      "channel": 1,
      "note": 66,
      "start": 7.2197,
      "duration": 0.2645,
      "velocity": 112,
      "chip": "ym2612"
    },
    {
      "channel": 2,
      "note": 59,
      "start": 7.2206,
      "duration": 0.2639,
      "velocity": 94,
      "chip": "ym2612"
    },
    {
      "channel": 3,
      "note": 59,
      "start": 7.2214,
      "duration": 0.1138,
      "velocity": 85,
      "chip": "ym2612"
    },
    {
      "channel": 3,
      "note": 59,
      "start": 7.3893,
      "duration": 0.0957,
      "velocity": 85,
      "chip": "ym2612"
    },
    {
      "channel": 5,
      "note": 32,
      "start": 7.3901,
      "duration": 0.1952,
      "velocity": 114,
      "chip": "ym2612"
    },
    {
      "channel": 0,
      "note": 71,
      "start": 7.5356,
      "duration": 0.1513,
      "velocity": 112,
      "chip": "ym2612"
    },
    {
      "channel": 1,
      "note": 66,
      "start": 7.5365,
      "duration": 0.1511,
      "velocity": 112,
      "chip": "ym2612"
    },
    {
      "channel": 2,
      "note": 59,
      "start": 7.5373,
      "duration": 0.151,
      "velocity": 94,
      "chip": "ym2612"
    },
    {
      "channel": 3,
      "note": 59,
      "start": 7.538,
      "duration": 0.0971,
      "velocity": 85,
      "chip": "ym2612"
    },
    {
      "channel": 0,
      "note": 78,
      "start": 7.6874,
      "duration": 0.1475,
      "velocity": 112,
      "chip": "ym2612"
    },
    {
      "channel": 1,
      "note": 71,
      "start": 7.6882,
      "duration": 0.1473,
      "velocity": 112,
      "chip": "ym2612"
    },
    {
      "channel": 2,
      "note": 66,
      "start": 7.689,
      "duration": 0.1474,
      "velocity": 94,
      "chip": "ym2612"
    },
    {
      "channel": 3,
      "note": 59,
      "start": 7.6898,
      "duration": 0.0954,
      "velocity": 85,
      "chip": "ym2612"
    },
    {
      "channel": 5,
      "note": 75,
      "start": 7.6905,
      "duration": 0.3104,
      "velocity": 120,
      "chip": "ym2612"
    },
    {
      "channel": 0,
      "note": 71,
      "start": 7.8354,
      "duration": 0.1681,
      "velocity": 112,
      "chip": "ym2612"
    },
    {
      "channel": 1,
      "note": 66,
      "start": 7.8362,
      "duration": 0.168,
      "velocity": 112,
      "chip": "ym2612"
    },
    {
      "channel": 2,
      "note": 59,
      "start": 7.837,
      "duration": 0.168,
      "velocity": 94,
      "chip": "ym2612"
    },
    {
      "channel": 3,
      "note": 59,
      "start": 7.8377,
      "duration": 0.1142,
      "velocity": 85,
      "chip": "ym2612"
    },
    {
      "channel": 0,
      "note": 76,
      "start": 8.0041,
      "duration": 0.1494,
      "velocity": 112,
      "chip": "ym2612"
    },
    {
      "channel": 1,
      "note": 69,
      "start": 8.0049,
      "duration": 0.1494,
      "velocity": 112,
      "chip": "ym2612"
    },
    {
      "channel": 2,
      "note": 64,
      "start": 8.0057,
      "duration": 0.1494,
      "velocity": 94,
      "chip": "ym2612"
    },
    {
      "channel": 3,
      "note": 59,
      "start": 8.0067,
      "duration": 0.0951,
      "velocity": 85,
      "chip": "ym2612"
    },
    {
      "channel": 5,
      "note": 32,
      "start": 8.0076,
      "duration": 0.1433,
      "velocity": 114,
      "chip": "ym2612"
    },
    {
      "channel": 0,
      "note": 71,
      "start": 8.1541,
      "duration": 0.1494,
      "velocity": 112,
      "chip": "ym2612"
    },
    {
      "channel": 1,
      "note": 66,
      "start": 8.1549,
      "duration": 0.1494,
      "velocity": 112,
      "chip": "ym2612"
    },
    {
      "channel": 2,
      "note": 59,
      "start": 8.1557,
      "duration": 0.1494,
      "velocity": 94,
      "chip": "ym2612"
    },
    {
      "channel": 3,
      "note": 59,
      "start": 8.1564,
      "duration": 0.0954,
      "velocity": 85,
      "chip": "ym2612"
    },
    {
      "channel": 5,
      "note": 32,
      "start": 8.1573,
      "duration": 0.1437,
      "velocity": 114,
      "chip": "ym2612"
    },
    {
      "channel": 0,
      "note": 74,
      "start": 8.3041,
      "duration": 0.1475,
      "velocity": 112,
      "chip": "ym2612"
    },
    {
      "channel": 1,
      "note": 67,
      "start": 8.3049,
      "duration": 0.1473,
      "velocity": 112,
      "chip": "ym2612"
    },
    {
      "channel": 2,
      "note": 62,
      "start": 8.3057,
      "duration": 0.1474,
      "velocity": 94,
      "chip": "ym2612"
    },
    {
      "channel": 3,
      "note": 59,
      "start": 8.3064,
      "duration": 0.0954,
      "velocity": 85,
      "chip": "ym2612"
    },
    {
      "channel": 5,
      "note": 75,
      "start": 8.3072,
      "duration": 0.3106,
      "velocity": 120,
      "chip": "ym2612"
    },
    {
      "channel": 0,
      "note": 71,
      "start": 8.4521,
      "duration": 0.1683,
      "velocity": 112,
      "chip": "ym2612"
    },
    {
      "channel": 1,
      "note": 66,
      "start": 8.4529,
      "duration": 0.1683,
      "velocity": 112,
      "chip": "ym2612"
    },
    {
      "channel": 2,
      "note": 59,
      "start": 8.4537,
      "duration": 0.1682,
      "velocity": 94,
      "chip": "ym2612"
    },
    {
      "channel": 3,
      "note": 59,
      "start": 8.4544,
      "duration": 0.1141,
      "velocity": 85,
      "chip": "ym2612"
    },
    {
      "channel": 0,
      "note": 69,
      "start": 8.6209,
      "duration": 0.1493,
      "velocity": 112,
      "chip": "ym2612"
    },
    {
      "channel": 1,
      "note": 64,
      "start": 8.6218,
      "duration": 0.1492,
      "velocity": 112,
      "chip": "ym2612"
    },
    {
      "channel": 2,
      "note": 57,
      "start": 8.6225,
      "duration": 0.1492,
      "velocity": 94,
      "chip": "ym2612"
    },
    {
      "channel": 3,
      "note": 59,
      "start": 8.6235,
      "duration": 0.0949,
      "velocity": 85,
      "chip": "ym2612"
    },
    {
      "channel": 5,
      "note": 32,
      "start": 8.6244,
      "duration": 0.1431,
      "velocity": 114,
      "chip": "ym2612"
    },
    {
      "channel": 0,
      "note": 71,
      "start": 8.7707,
      "duration": 0.1494,
      "velocity": 112,
      "chip": "ym2612"
    },
    {
      "channel": 1,
      "note": 66,
      "start": 8.7716,
      "duration": 0.1494,
      "velocity": 112,
      "chip": "ym2612"
    },
    {
      "channel": 2,
      "note": 59,
      "start": 8.7723,
      "duration": 0.1494,
      "velocity": 94,
      "chip": "ym2612"
    },
    {
      "channel": 3,
      "note": 59,
      "start": 8.7731,
      "duration": 0.0954,
      "velocity": 85,
      "chip": "ym2612"
    },
    {
      "channel": 5,
      "note": 32,
      "start": 8.7739,
      "duration": 0.1437,
      "velocity": 114,
      "chip": "ym2612"
    },
    {
      "channel": 0,
      "note": 74,
      "start": 8.9207,
      "duration": 0.149,
      "velocity": 112,
      "chip": "ym2612"
    },
    {
      "channel": 1,
      "note": 69,
      "start": 8.9216,
      "duration": 0.149,
      "velocity": 112,
      "chip": "ym2612"
    },
    {
      "channel": 2,
      "note": 62,
      "start": 8.9223,
      "duration": 0.149,
      "velocity": 94,
      "chip": "ym2612"
    },
    {
      "channel": 3,
      "note": 59,
      "start": 8.9231,
      "duration": 0.0954,
      "velocity": 85,
      "chip": "ym2612"
    },
    {
      "channel": 5,
      "note": 75,
      "start": 8.9239,
      "duration": 0.1433,
      "velocity": 120,
      "chip": "ym2612"
    },
    {
      "channel": 0,
      "note": 71,
      "start": 9.0704,
      "duration": 0.1645,
      "velocity": 112,
      "chip": "ym2612"
    },
    {
      "channel": 1,
      "note": 66,
      "start": 9.0712,
      "duration": 0.1644,
      "velocity": 112,
      "chip": "ym2612"
    },
    {
      "channel": 2,
      "note": 59,
      "start": 9.072,
      "duration": 0.1644,
      "velocity": 94,
      "chip": "ym2612"
    },
    {
      "channel": 3,
      "note": 59,
      "start": 9.0727,
      "duration": 0.1125,
      "velocity": 85,
      "chip": "ym2612"
    },
    {
      "channel": 5,
      "note": 32,
      "start": 9.0735,
      "duration": 0.2118,
      "velocity": 114,
      "chip": "ym2612"
    },
    {
      "channel": 0,
      "note": 76,
      "start": 9.2354,
      "duration": 0.1514,
      "velocity": 112,
      "chip": "ym2612"
    },
    {
      "channel": 1,
      "note": 71,
      "start": 9.2363,
      "duration": 0.1513,
      "velocity": 112,
      "chip": "ym2612"
    },
    {
      "channel": 2,
      "note": 64,
      "start": 9.237,
      "duration": 0.1513,
      "velocity": 94,
      "chip": "ym2612"
    },
    {
      "channel": 3,
      "note": 59,
      "start": 9.238,
      "duration": 0.0971,
      "velocity": 85,
      "chip": "ym2612"
    },
    {
      "channel": 0,
      "note": 71,
      "start": 9.3874,
      "duration": 0.1494,
      "velocity": 112,
      "chip": "ym2612"
    },
    {
      "channel": 1,
      "note": 66,
      "start": 9.3882,
      "duration": 0.1494,
      "velocity": 112,
      "chip": "ym2612"
    },
    {
      "channel": 2,
      "note": 59,
      "start": 9.389,
      "duration": 0.1494,
      "velocity": 94,
      "chip": "ym2612"
    },
    {
      "channel": 3,
      "note": 59,
      "start": 9.3898,
      "duration": 0.0954,
      "velocity": 85,
      "chip": "ym2612"
    },
    {
      "channel": 5,
      "note": 32,
      "start": 9.3906,
      "duration": 0.1437,
      "velocity": 114,
      "chip": "ym2612"
    },
    {
      "channel": 0,
      "note": 74,
      "start": 9.5374,
      "duration": 0.1476,
      "velocity": 112,
      "chip": "ym2612"
    },
    {
      "channel": 1,
      "note": 69,
      "start": 9.5382,
      "duration": 0.1477,
      "velocity": 112,
      "chip": "ym2612"
    },
    {
      "channel": 2,
      "note": 62,
      "start": 9.539,
      "duration": 0.1478,
      "velocity": 94,
      "chip": "ym2612"
    },
    {
      "channel": 3,
      "note": 59,
      "start": 9.5398,
      "duration": 0.0954,
      "velocity": 85,
      "chip": "ym2612"
    },
    {
      "channel": 5,
      "note": 75,
      "start": 9.5405,
      "duration": 0.3107,
      "velocity": 120,
      "chip": "ym2612"
    },
    {
      "channel": 0,
      "note": 69,
      "start": 9.6856,
      "duration": 0.265,
      "velocity": 112,
      "chip": "ym2612"
    },
    {
      "channel": 1,
      "note": 64,
      "start": 9.6865,
      "duration": 0.2644,
      "velocity": 112,
      "chip": "ym2612"
    },
    {
      "channel": 2,
      "note": 57,
      "start": 9.6875,
      "duration": 0.2637,
      "velocity": 94,
      "chip": "ym2612"
    },
    {
      "channel": 3,
      "note": 59,
      "start": 9.6882,
      "duration": 0.1137,
      "velocity": 85,
      "chip": "ym2612"
    },
    {
      "channel": 3,
      "note": 57,
      "start": 9.8559,
      "duration": 0.0956,
      "velocity": 85,
      "chip": "ym2612"
    },
    {
      "channel": 5,
      "note": 32,
      "start": 9.8568,
      "duration": 0.1953,
      "velocity": 114,
      "chip": "ym2612"
    },
    {
      "channel": 0,
      "note": 69,
      "start": 10.0021,
      "duration": 0.1514,
      "velocity": 112,
      "chip": "ym2612"
    },
    {
      "channel": 1,
      "note": 64,
      "start": 10.003,
      "duration": 0.1513,
      "velocity": 112,
      "chip": "ym2612"
    },
    {
      "channel": 2,
      "note": 57,
      "start": 10.0038,
      "duration": 0.1513,
      "velocity": 94,
      "chip": "ym2612"
    },
    {
      "channel": 3,
      "note": 57,
      "start": 10.0045,
      "duration": 0.0973,
      "velocity": 85,
      "chip": "ym2612"
    },
    {
      "channel": 0,
      "note": 76,
      "start": 10.1541,
      "duration": 0.1475,
      "velocity": 112,
      "chip": "ym2612"
    },
    {
      "channel": 1,
      "note": 69,
      "start": 10.1549,
      "duration": 0.1473,
      "velocity": 112,
      "chip": "ym2612"
    },
    {
      "channel": 2,
      "note": 64,
      "start": 10.1557,
      "duration": 0.1474,
      "velocity": 94,
      "chip": "ym2612"
    },
    {
      "channel": 3,
      "note": 57,
      "start": 10.1564,
      "duration": 0.0954,
      "velocity": 85,
      "chip": "ym2612"
    },
    {
      "channel": 5,
      "note": 75,
      "start": 10.1572,
      "duration": 0.3104,
      "velocity": 120,
      "chip": "ym2612"
    },
    {
      "channel": 0,
      "note": 69,
      "start": 10.3021,
      "duration": 0.1681,
      "velocity": 112,
      "chip": "ym2612"
    },
    {
      "channel": 1,
      "note": 64,
      "start": 10.3029,
      "duration": 0.168,
      "velocity": 112,
      "chip": "ym2612"
    },
    {
      "channel": 2,
      "note": 57,
      "start": 10.3037,
      "duration": 0.168,
      "velocity": 94,
      "chip": "ym2612"
    },
    {
      "channel": 3,
      "note": 57,
      "start": 10.3044,
      "duration": 0.1141,
      "velocity": 85,
      "chip": "ym2612"
    },
    {
      "channel": 0,
      "note": 74,
      "start": 10.4707,
      "duration": 0.1494,
      "velocity": 112,
      "chip": "ym2612"
    },
    {
      "channel": 1,
      "note": 67,
      "start": 10.4716,
      "duration": 0.1494,
      "velocity": 112,
      "chip": "ym2612"
    },
    {
      "channel": 2,
      "note": 62,
      "start": 10.4723,
      "duration": 0.1494,
      "velocity": 94,
      "chip": "ym2612"
    },
    {
      "channel": 3,
      "note": 57,
      "start": 10.4734,
      "duration": 0.0952,
      "velocity": 85,
      "chip": "ym2612"
    },
    {
      "channel": 5,
      "note": 32,
      "start": 10.4742,
      "duration": 0.1433,
      "velocity": 114,
      "chip": "ym2612"
    },
    {
      "channel": 0,
      "note": 69,
      "start": 10.6207,
      "duration": 0.1494,
      "velocity": 112,
      "chip": "ym2612"
    },
    {
      "channel": 1,
      "note": 64,
      "start": 10.6216,
      "duration": 0.1494,
      "velocity": 112,
      "chip": "ym2612"
    },
    {
      "channel": 2,
      "note": 57,
      "start": 10.6223,
      "duration": 0.1494,
      "velocity": 94,
      "chip": "ym2612"
    },
    {
      "channel": 3,
      "note": 57,
      "start": 10.6231,
      "duration": 0.0954,
      "velocity": 85,
      "chip": "ym2612"
    },
    {
      "channel": 5,
      "note": 32,
      "start": 10.6239,
      "duration": 0.1437,
      "velocity": 114,
      "chip": "ym2612"
    },
    {
      "channel": 0,
      "note": 73,
      "start": 10.7707,
      "duration": 0.1475,
      "velocity": 112,
      "chip": "ym2612"
    },
    {
      "channel": 1,
      "note": 66,
      "start": 10.7716,
      "duration": 0.1475,
      "velocity": 112,
      "chip": "ym2612"
    },
    {
      "channel": 2,
      "note": 61,
      "start": 10.7723,
      "duration": 0.1476,
      "velocity": 94,
      "chip": "ym2612"
    },
    {
      "channel": 3,
      "note": 57,
      "start": 10.7731,
      "duration": 0.0954,
      "velocity": 85,
      "chip": "ym2612"
    },
    {
      "channel": 5,
      "note": 75,
      "start": 10.7739,
      "duration": 0.3106,
      "velocity": 120,
      "chip": "ym2612"
    },
    {
      "channel": 0,
      "note": 69,
      "start": 10.9188,
      "duration": 0.2651,
      "velocity": 112,
      "chip": "ym2612"
    },
    {
      "channel": 1,
      "note": 64,
      "start": 10.9197,
      "duration": 0.1678,
      "velocity": 112,
      "chip": "ym2612"
    },
    {
      "channel": 2,
      "note": 57,
      "start": 10.9205,
      "duration": 0.2641,
      "velocity": 94,
      "chip": "ym2612"
    },
    {
      "channel": 3,
      "note": 57,
      "start": 10.9212,
      "duration": 0.114,
      "velocity": 85,
      "chip": "ym2612"
    },
    {
      "channel": 1,
      "note": 62,
      "start": 11.088,
      "duration": 0.1495,
      "velocity": 112,
      "chip": "ym2612"
    },
    {
      "channel": 3,
      "note": 57,
      "start": 11.0895,
      "duration": 0.0956,
      "velocity": 85,
      "chip": "ym2612"
    },
    {
      "channel": 5,
      "note": 32,
      "start": 11.0903,
      "duration": 0.1439,
      "velocity": 114,
      "chip": "ym2612"
    },
    {
      "channel": 0,
      "note": 69,
      "start": 11.2374,
      "duration": 0.1494,
      "velocity": 112,
      "chip": "ym2612"
    },
    {
      "channel": 1,
      "note": 64,
      "start": 11.2382,
      "duration": 0.1494,
      "velocity": 112,
      "chip": "ym2612"
    },
    {
      "channel": 2,
      "note": 57,
      "start": 11.239,
      "duration": 0.1494,
      "velocity": 94,
      "chip": "ym2612"
    },
    {
      "channel": 3,
      "note": 57,
      "start": 11.2398,
      "duration": 0.0954,
      "velocity": 85,
      "chip": "ym2612"
    },
    {
      "channel": 5,
      "note": 32,
      "start": 11.2406,
      "duration": 0.1437,
      "velocity": 114,
      "chip": "ym2612"
    },
    {
      "channel": 0,
      "note": 73,
      "start": 11.3874,
      "duration": 0.149,
      "velocity": 112,
      "chip": "ym2612"
    },
    {
      "channel": 1,
      "note": 66,
      "start": 11.3882,
      "duration": 0.1489,
      "velocity": 112,
      "chip": "ym2612"
    },
    {
      "channel": 2,
      "note": 61,
      "start": 11.389,
      "duration": 0.149,
      "velocity": 94,
      "chip": "ym2612"
    },
    {
      "channel": 3,
      "note": 57,
      "start": 11.3898,
      "duration": 0.0954,
      "velocity": 85,
      "chip": "ym2612"
    },
    {
      "channel": 5,
      "note": 75,
      "start": 11.3905,
      "duration": 0.1433,
      "velocity": 120,
      "chip": "ym2612"
    },
    {
      "channel": 0,
      "note": 69,
      "start": 11.537,
      "duration": 0.1645,
      "velocity": 112,
      "chip": "ym2612"
    },
    {
      "channel": 1,
      "note": 64,
      "start": 11.5378,
      "duration": 0.1644,
      "velocity": 112,
      "chip": "ym2612"
    },
    {
      "channel": 2,
      "note": 57,
      "start": 11.5386,
      "duration": 0.1644,
      "velocity": 94,
      "chip": "ym2612"
    },
    {
      "channel": 3,
      "note": 57,
      "start": 11.5393,
      "duration": 0.1125,
      "velocity": 85,
      "chip": "ym2612"
    },
    {
      "channel": 5,
      "note": 32,
      "start": 11.5402,
      "duration": 0.2118,
      "velocity": 114,
      "chip": "ym2612"
    },
    {
      "channel": 0,
      "note": 74,
      "start": 11.7021,
      "duration": 0.1514,
      "velocity": 112,
      "chip": "ym2612"
    },
    {
      "channel": 1,
      "note": 67,
      "start": 11.7029,
      "duration": 0.1514,
      "velocity": 112,
      "chip": "ym2612"
    },
    {
      "channel": 2,
      "note": 62,
      "start": 11.7037,
      "duration": 0.1513,
      "velocity": 94,
      "chip": "ym2612"
    },
    {
      "channel": 3,
      "note": 57,
      "start": 11.7047,
      "duration": 0.0971,
      "velocity": 85,
      "chip": "ym2612"
    },
    {
      "channel": 0,
      "note": 69,
      "start": 11.8541,
      "duration": 0.1494,
      "velocity": 112,
      "chip": "ym2612"
    },
    {
      "channel": 1,
      "note": 64,
      "start": 11.8549,
      "duration": 0.1494,
      "velocity": 112,
      "chip": "ym2612"
    },
    {
      "channel": 2,
      "note": 57,
      "start": 11.8557,
      "duration": 0.1494,
      "velocity": 94,
      "chip": "ym2612"
    },
    {
      "channel": 3,
      "note": 57,
      "start": 11.8564,
      "duration": 0.0954,
      "velocity": 85,
      "chip": "ym2612"
    },
    {
      "channel": 5,
      "note": 32,
      "start": 11.8573,
      "duration": 0.1437,
      "velocity": 114,
      "chip": "ym2612"
    },
    {
      "channel": 0,
      "note": 73,
      "start": 12.0041,
      "duration": 0.1476,
      "velocity": 112,
      "chip": "ym2612"
    },
    {
      "channel": 1,
      "note": 66,
      "start": 12.0049,
      "duration": 0.1475,
      "velocity": 112,
      "chip": "ym2612"
    },
    {
      "channel": 2,
      "note": 61,
      "start": 12.0057,
      "duration": 0.1477,
      "velocity": 94,
      "chip": "ym2612"
    },
    {
      "channel": 3,
      "note": 57,
      "start": 12.0064,
      "duration": 0.0954,
      "velocity": 85,
      "chip": "ym2612"
    },
    {
      "channel": 5,
      "note": 75,
      "start": 12.0072,
      "duration": 0.3107,
      "velocity": 120,
      "chip": "ym2612"
    },
    {
      "channel": 0,
      "note": 69,
      "start": 12.1522,
      "duration": 0.265,
      "velocity": 112,
      "chip": "ym2612"
    },
    {
      "channel": 1,
      "note": 64,
      "start": 12.1531,
      "duration": 0.2644,
      "velocity": 112,
      "chip": "ym2612"
    },
    {
      "channel": 2,
      "note": 57,
      "start": 12.154,
      "duration": 0.2639,
      "velocity": 94,
      "chip": "ym2612"
    },
    {
      "channel": 3,
      "note": 57,
      "start": 12.1547,
      "duration": 0.1138,
      "velocity": 85,
      "chip": "ym2612"
    },
    {
      "channel": 3,
      "note": 57,
      "start": 12.3226,
      "duration": 0.0956,
      "velocity": 85,
      "chip": "ym2612"
    },
    {
      "channel": 5,
      "note": 32,
      "start": 12.3235,
      "duration": 0.1952,
      "velocity": 114,
      "chip": "ym2612"
    },
    {
      "channel": 0,
      "note": 69,
      "start": 12.4688,
      "duration": 0.1514,
      "velocity": 112,
      "chip": "ym2612"
    },
    {
      "channel": 1,
      "note": 64,
      "start": 12.4695,
      "duration": 0.1514,
      "velocity": 112,
      "chip": "ym2612"
    },
    {
      "channel": 2,
      "note": 57,
      "start": 12.4704,
      "duration": 0.1513,
      "velocity": 94,
      "chip": "ym2612"
    },
    {
      "channel": 3,
      "note": 57,
      "start": 12.4711,
      "duration": 0.0974,
      "velocity": 85,
      "chip": "ym2612"
    },
    {
      "channel": 0,
      "note": 76,
      "start": 12.6207,
      "duration": 0.1641,
      "velocity": 112,
      "chip": "ym2612"
    },
    {
      "channel": 1,
      "note": 69,
      "start": 12.6216,
      "duration": 0.164,
      "velocity": 112,
      "chip": "ym2612"
    },
    {
      "channel": 2,
      "note": 64,
      "start": 12.6223,
      "duration": 0.1641,
      "velocity": 94,
      "chip": "ym2612"
    },
    {
      "channel": 3,
      "note": 57,
      "start": 12.6231,
      "duration": 0.0954,
      "velocity": 85,
      "chip": "ym2612"
    },
    {
      "channel": 5,
      "note": 75,
      "start": 12.6239,
      "duration": 0.3104,
      "velocity": 120,
      "chip": "ym2612"
    },
    {
      "channel": 0,
      "note": 69,
      "start": 12.7854,
      "duration": 0.1514,
      "velocity": 112,
      "chip": "ym2612"
    },
    {
      "channel": 1,
      "note": 64,
      "start": 12.7862,
      "duration": 0.1514,
      "velocity": 112,
      "chip": "ym2612"
    },
    {
      "channel": 2,
      "note": 57,
      "start": 12.787,
      "duration": 0.1513,
      "velocity": 94,
      "chip": "ym2612"
    },
    {
      "channel": 3,
      "note": 57,
      "start": 12.7877,
      "duration": 0.0975,
      "velocity": 85,
      "chip": "ym2612"
    },
    {
      "channel": 0,
      "note": 74,
      "start": 12.9374,
      "duration": 0.1494,
      "velocity": 112,
      "chip": "ym2612"
    },
    {
      "channel": 1,
      "note": 67,
      "start": 12.9382,
      "duration": 0.1494,
      "velocity": 112,
      "chip": "ym2612"
    },
    {
      "channel": 2,
      "note": 62,
      "start": 12.939,
      "duration": 0.1494,
      "velocity": 94,
      "chip": "ym2612"
    },
    {
      "channel": 3,
      "note": 57,
      "start": 12.94,
      "duration": 0.0951,
      "velocity": 85,
      "chip": "ym2612"
    },
    {
      "channel": 5,
      "note": 32,
      "start": 12.9409,
      "duration": 0.1433,
      "velocity": 114,
      "chip": "ym2612"
    },
    {
      "channel": 0,
      "note": 69,
      "start": 13.0874,
      "duration": 0.1494,
      "velocity": 112,
      "chip": "ym2612"
    },
    {
      "channel": 1,
      "note": 64,
      "start": 13.0882,
      "duration": 0.1494,
      "velocity": 112,
      "chip": "ym2612"
    },
    {
      "channel": 2,
      "note": 57,
      "start": 13.089,
      "duration": 0.1494,
      "velocity": 94,
      "chip": "ym2612"
    },
    {
      "channel": 3,
      "note": 57,
      "start": 13.0898,
      "duration": 0.0954,
      "velocity": 85,
      "chip": "ym2612"
    },
    {
      "channel": 5,
      "note": 32,
      "start": 13.0906,
      "duration": 0.1437,
      "velocity": 114,
      "chip": "ym2612"
    },
    {
      "channel": 0,
      "note": 73,
      "start": 13.2374,
      "duration": 0.1642,
      "velocity": 112,
      "chip": "ym2612"
    },
    {
      "channel": 1,
      "note": 66,
      "start": 13.2382,
      "duration": 0.1641,
      "velocity": 112,
      "chip": "ym2612"
    },
    {
      "channel": 2,
      "note": 61,
      "start": 13.239,
      "duration": 0.1642,
      "velocity": 94,
      "chip": "ym2612"
    },
    {
      "channel": 3,
      "note": 57,
      "start": 13.2398,
      "duration": 0.0954,
      "velocity": 85,
      "chip": "ym2612"
    },
    {
      "channel": 5,
      "note": 75,
      "start": 13.2405,
      "duration": 0.3105,
      "velocity": 120,
      "chip": "ym2612"
    },
    {
      "channel": 0,
      "note": 69,
      "start": 13.4022,
      "duration": 0.0984,
      "velocity": 112,
      "chip": "ym2612"
    },
    {
      "channel": 1,
      "note": 64,
      "start": 13.403,
      "duration": 0.1513,
      "velocity": 112,
      "chip": "ym2612"
    },
    {
      "channel": 2,
      "note": 57,
      "start": 13.4039,
      "duration": 0.0975,
      "velocity": 94,
      "chip": "ym2612"
    },
    {
      "channel": 3,
      "note": 57,
      "start": 13.4046,
      "duration": 0.0974,
      "velocity": 85,
      "chip": "ym2612"
    },
    {
      "channel": 2,
      "note": 57,
      "start": 13.5019,
      "duration": 0.0533,
      "velocity": 94,
      "chip": "ym2612"
    },
    {
      "channel": 0,
      "note": 69,
      "start": 13.5542,
      "duration": 0.1489,
      "velocity": 112,
      "chip": "ym2612"
    },
    {
      "channel": 1,
      "note": 57,
      "start": 13.555,
      "duration": 0.1489,
      "velocity": 112,
      "chip": "ym2612"
    },
    {
      "channel": 2,
      "note": 57,
      "start": 13.5558,
      "duration": 0.1488,
      "velocity": 94,
      "chip": "ym2612"
    },
    {
      "channel": 3,
      "note": 57,
      "start": 13.5567,
      "duration": 0.1488,
      "velocity": 85,
      "chip": "ym2612"
    },
    {
      "channel": 5,
      "note": 75,
      "start": 13.5575,
      "duration": 0.1431,
      "velocity": 120,
      "chip": "ym2612"
    },
    {
      "channel": 0,
      "note": 70,
      "start": 13.7037,
      "duration": 0.147,
      "velocity": 112,
      "chip": "ym2612"
    },
    {
      "channel": 1,
      "note": 58,
      "start": 13.7045,
      "duration": 0.1465,
      "velocity": 112,
      "chip": "ym2612"
    },
    {
      "channel": 2,
      "note": 58,
      "start": 13.7053,
      "duration": 0.1461,
      "velocity": 94,
      "chip": "ym2612"
    },
    {
      "channel": 3,
      "note": 58,
      "start": 13.7061,
      "duration": 0.1456,
      "velocity": 85,
      "chip": "ym2612"
    },
    {
      "channel": 5,
      "note": 75,
      "start": 13.7068,
      "duration": 0.3104,
      "velocity": 120,
      "chip": "ym2612"
    },
    {
      "channel": 0,
      "note": 71,
      "start": 14.0204,
      "duration": 0.147,
      "velocity": 112,
      "chip": "ym2612"
    },
    {
      "channel": 1,
      "note": 59,
      "start": 14.0211,
      "duration": 0.1466,
      "velocity": 112,
      "chip": "ym2612"
    },
    {
      "channel": 2,
      "note": 59,
      "start": 14.022,
      "duration": 0.1461,
      "velocity": 94,
      "chip": "ym2612"
    },
    {
      "channel": 3,
      "note": 59,
      "start": 14.0227,
      "duration": 0.1457,
      "velocity": 85,
      "chip": "ym2612"
    },
    {
      "channel": 5,
      "note": 75,
      "start": 14.0234,
      "duration": 0.2938,
      "velocity": 120,
      "chip": "ym2612"
    },
    {
      "channel": 0,
      "note": 74,
      "start": 14.3204,
      "duration": 0.1494,
      "velocity": 112,
      "chip": "ym2612"
    },
    {
      "channel": 1,
      "note": 62,
      "start": 14.3211,
      "duration": 0.1494,
      "velocity": 112,
      "chip": "ym2612"
    },
    {
      "channel": 2,
      "note": 62,
      "start": 14.322,
      "duration": 0.1494,
      "velocity": 94,
      "chip": "ym2612"
    },
    {
      "channel": 3,
      "note": 62,
      "start": 14.3227,
      "duration": 0.1495,
      "velocity": 85,
      "chip": "ym2612"
    },
    {
      "channel": 5,
      "note": 75,
      "start": 14.3234,
      "duration": 0.1438,
      "velocity": 120,
      "chip": "ym2612"
    },
    {
      "channel": 0,
      "note": 73,
      "start": 14.4704,
      "duration": 0.1661,
      "velocity": 112,
      "chip": "ym2612"
    },
    {
      "channel": 1,
      "note": 61,
      "start": 14.4712,
      "duration": 0.166,
      "velocity": 112,
      "chip": "ym2612"
    },
    {
      "channel": 2,
      "note": 61,
      "start": 14.472,
      "duration": 0.166,
      "velocity": 94,
      "chip": "ym2612"
    },
    {
      "channel": 3,
      "note": 61,
      "start": 14.4727,
      "duration": 0.1661,
      "velocity": 85,
      "chip": "ym2612"
    },
    {
      "channel": 5,
      "note": 75,
      "start": 14.4735,
      "duration": 0.1604,
      "velocity": 120,
      "chip": "ym2612"
    },
    {
      "channel": 0,
      "note": 71,
      "start": 14.637,
      "duration": 0.15,
      "velocity": 112,
      "chip": "ym2612"
    },
    {
      "channel": 1,
      "note": 59,
      "start": 14.6378,
      "duration": 0.0631,
      "velocity": 112,
      "chip": "ym2612"
    },
    {
      "channel": 2,
      "note": 59,
      "start": 14.6386,
      "duration": 0.1521,
      "velocity": 94,
      "chip": "ym2612"
    },
    {
      "channel": 3,
      "note": 59,
      "start": 14.6394,
      "duration": 0.0954,
      "velocity": 85,
      "chip": "ym2612"
    },
    {
      "channel": 5,
      "note": 75,
      "start": 14.6401,
      "duration": 0.1438,
      "velocity": 120,
      "chip": "ym2612"
    },
    {
      "channel": 1,
      "note": 71,
      "start": 14.7905,
      "duration": 0.0935,
      "velocity": 99,
      "chip": "ym2612"
    },
    {
      "channel": 2,
      "note": 66,
      "start": 14.7914,
      "duration": 0.0929,
      "velocity": 94,
      "chip": "ym2612"
    },
    {
      "channel": 3,
      "note": 59,
      "start": 14.7922,
      "duration": 0.0925,
      "velocity": 85,
      "chip": "ym2612"
    },
    {
      "channel": 5,
      "note": 32,
      "start": 14.793,
      "duration": 0.1921,
      "velocity": 114,
      "chip": "ym2612"
    },
    {
      "channel": 1,
      "note": 71,
      "start": 14.9357,
      "duration": 0.1513,
      "velocity": 99,
      "chip": "ym2612"
    },
    {
      "channel": 2,
      "note": 66,
      "start": 14.9366,
      "duration": 0.1512,
      "velocity": 94,
      "chip": "ym2612"
    },
    {
      "channel": 3,
      "note": 59,
      "start": 14.9373,
      "duration": 0.0975,
      "velocity": 85,
      "chip": "ym2612"
    },
    {
      "channel": 1,
      "note": 78,
      "start": 15.0876,
      "duration": 0.164,
      "velocity": 99,
      "chip": "ym2612"
    },
    {
      "channel": 2,
      "note": 74,
      "start": 15.0884,
      "duration": 0.164,
      "velocity": 94,
      "chip": "ym2612"
    },
    {
      "channel": 3,
      "note": 59,
      "start": 15.0891,
      "duration": 0.0957,
      "velocity": 85,
      "chip": "ym2612"
    },
    {
      "channel": 5,
      "note": 75,
      "start": 15.0899,
      "duration": 0.311,
      "velocity": 120,
      "chip": "ym2612"
    },
    {
      "channel": 1,
      "note": 71,
      "start": 15.2522,
      "duration": 0.1514,
      "velocity": 99,
      "chip": "ym2612"
    },
    {
      "channel": 2,
      "note": 66,
      "start": 15.2531,
      "duration": 0.1513,
      "velocity": 94,
      "chip": "ym2612"
    },
    {
      "channel": 3,
      "note": 59,
      "start": 15.2538,
      "duration": 0.0978,
      "velocity": 85,
      "chip": "ym2612"
    },
    {
      "channel": 1,
      "note": 76,
      "start": 15.4043,
      "duration": 0.1494,
      "velocity": 99,
      "chip": "ym2612"
    },
    {
      "channel": 2,
      "note": 73,
      "start": 15.4051,
      "duration": 0.1493,
      "velocity": 94,
      "chip": "ym2612"
    },
    {
      "channel": 3,
      "note": 59,
      "start": 15.4061,
      "duration": 0.0955,
      "velocity": 85,
      "chip": "ym2612"
    },
    {
      "channel": 5,
      "note": 32,
      "start": 15.4069,
      "duration": 0.144,
      "velocity": 114,
      "chip": "ym2612"
    },
    {
      "channel": 1,
      "note": 71,
      "start": 15.5543,
      "duration": 0.1494,
      "velocity": 99,
      "chip": "ym2612"
    },
    {
      "channel": 2,
      "note": 66,
      "start": 15.555,
      "duration": 0.1494,
      "velocity": 94,
      "chip": "ym2612"
    },
    {
      "channel": 3,
      "note": 59,
      "start": 15.5558,
      "duration": 0.0957,
      "velocity": 85,
      "chip": "ym2612"
    },
    {
      "channel": 5,
      "note": 32,
      "start": 15.5566,
      "duration": 0.1443,
      "velocity": 114,
      "chip": "ym2612"
    },
    {
      "channel": 1,
      "note": 74,
      "start": 15.7043,
      "duration": 0.1641,
      "velocity": 99,
      "chip": "ym2612"
    },
    {
      "channel": 2,
      "note": 71,
      "start": 15.7051,
      "duration": 0.1642,
      "velocity": 94,
      "chip": "ym2612"
    },
    {
      "channel": 3,
      "note": 59,
      "start": 15.7058,
      "duration": 0.0958,
      "velocity": 85,
      "chip": "ym2612"
    },
    {
      "channel": 5,
      "note": 75,
      "start": 15.7066,
      "duration": 0.3112,
      "velocity": 120,
      "chip": "ym2612"
    },
    {
      "channel": 1,
      "note": 71,
      "start": 15.869,
      "duration": 0.2483,
      "velocity": 99,
      "chip": "ym2612"
    },
    {
      "channel": 2,
      "note": 66,
      "start": 15.8699,
      "duration": 0.2477,
      "velocity": 94,
      "chip": "ym2612"
    },
    {
      "channel": 3,
      "note": 59,
      "start": 15.8706,
      "duration": 0.0976,
      "velocity": 85,
      "chip": "ym2612"
    },
    {
      "channel": 3,
      "note": 59,
      "start": 16.0222,
      "duration": 0.0958,
      "velocity": 85,
      "chip": "ym2612"
    },
    {
      "channel": 5,
      "note": 32,
      "start": 16.0231,
      "duration": 0.1445,
      "velocity": 114,
      "chip": "ym2612"
    },
    {
      "channel": 1,
      "note": 71,
      "start": 16.1711,
      "duration": 0.1492,
      "velocity": 99,
      "chip": "ym2612"
    },
    {
      "channel": 2,
      "note": 66,
      "start": 16.172,
      "duration": 0.1491,
      "velocity": 94,
      "chip": "ym2612"
    },
    {
      "channel": 3,
      "note": 59,
      "start": 16.1727,
      "duration": 0.0956,
      "velocity": 85,
      "chip": "ym2612"
    },
    {
      "channel": 5,
      "note": 32,
      "start": 16.1735,
      "duration": 0.144,
      "velocity": 114,
      "chip": "ym2612"
    },
    {
      "channel": 1,
      "note": 78,
      "start": 16.3209,
      "duration": 0.1656,
      "velocity": 99,
      "chip": "ym2612"
    },
    {
      "channel": 2,
      "note": 74,
      "start": 16.3218,
      "duration": 0.1656,
      "velocity": 94,
      "chip": "ym2612"
    },
    {
      "channel": 3,
      "note": 59,
      "start": 16.3225,
      "duration": 0.0957,
      "velocity": 85,
      "chip": "ym2612"
    },
    {
      "channel": 5,
      "note": 75,
      "start": 16.3232,
      "duration": 0.1606,
      "velocity": 120,
      "chip": "ym2612"
    },
    {
      "channel": 1,
      "note": 71,
      "start": 16.4872,
      "duration": 0.1477,
      "velocity": 99,
      "chip": "ym2612"
    },
    {
      "channel": 2,
      "note": 66,
      "start": 16.488,
      "duration": 0.1478,
      "velocity": 94,
      "chip": "ym2612"
    },
    {
      "channel": 3,
      "note": 59,
      "start": 16.4888,
      "duration": 0.0962,
      "velocity": 85,
      "chip": "ym2612"
    },
    {
      "channel": 5,
      "note": 32,
      "start": 16.4896,
      "duration": 0.1956,
      "velocity": 114,
      "chip": "ym2612"
    },
    {
      "channel": 1,
      "note": 76,
      "start": 16.6356,
      "duration": 0.1514,
      "velocity": 99,
      "chip": "ym2612"
    },
    {
      "channel": 2,
      "note": 73,
      "start": 16.6364,
      "duration": 0.1513,
      "velocity": 94,
      "chip": "ym2612"
    },
    {
      "channel": 3,
      "note": 59,
      "start": 16.6374,
      "duration": 0.0975,
      "velocity": 85,
      "chip": "ym2612"
    },
    {
      "channel": 1,
      "note": 71,
      "start": 16.7876,
      "duration": 0.1494,
      "velocity": 99,
      "chip": "ym2612"
    },
    {
      "channel": 2,
      "note": 66,
      "start": 16.7884,
      "duration": 0.1494,
      "velocity": 94,
      "chip": "ym2612"
    },
    {
      "channel": 3,
      "note": 59,
      "start": 16.7891,
      "duration": 0.0958,
      "velocity": 85,
      "chip": "ym2612"
    },
    {
      "channel": 5,
      "note": 32,
      "start": 16.79,
      "duration": 0.1443,
      "velocity": 114,
      "chip": "ym2612"
    },
    {
      "channel": 1,
      "note": 74,
      "start": 16.9376,
      "duration": 0.1641,
      "velocity": 99,
      "chip": "ym2612"
    },
    {
      "channel": 2,
      "note": 71,
      "start": 16.9384,
      "duration": 0.1642,
      "velocity": 94,
      "chip": "ym2612"
    },
    {
      "channel": 3,
      "note": 59,
      "start": 16.9391,
      "duration": 0.1124,
      "velocity": 85,
      "chip": "ym2612"
    },
    {
      "channel": 5,
      "note": 75,
      "start": 16.9399,
      "duration": 0.3113,
      "velocity": 120,
      "chip": "ym2612"
    },
    {
      "channel": 1,
      "note": 71,
      "start": 17.1024,
      "duration": 0.2485,
      "velocity": 99,
      "chip": "ym2612"
    },
    {
      "channel": 2,
      "note": 66,
      "start": 17.1032,
      "duration": 0.248,
      "velocity": 94,
      "chip": "ym2612"
    },
    {
      "channel": 3,
      "note": 59,
      "start": 17.1039,
      "duration": 0.0976,
      "velocity": 85,
      "chip": "ym2612"
    },
    {
      "channel": 0,
      "note": 83,
      "start": 17.2566,
      "duration": 0.0606,
      "velocity": 100,
      "chip": "ym2612"
    },
    {
      "channel": 3,
      "note": 59,
      "start": 17.2585,
      "duration": 0.0931,
      "velocity": 85,
      "chip": "ym2612"
    },
    {
      "channel": 5,
      "note": 32,
      "start": 17.2594,
      "duration": 0.1927,
      "velocity": 114,
      "chip": "ym2612"
    },
    {
      "channel": 0,
      "note": 83,
      "start": 17.3178,
      "duration": 0.0837,
      "velocity": 100,
      "chip": "ym2612"
    },
    {
      "channel": 0,
      "note": 83,
      "start": 17.4021,
      "duration": 0.0818,
      "velocity": 100,
      "chip": "ym2612"
    },
    {
      "channel": 1,
      "note": 71,
      "start": 17.403,
      "duration": 0.1513,
      "velocity": 99,
      "chip": "ym2612"
    },
    {
      "channel": 2,
      "note": 66,
      "start": 17.4039,
      "duration": 0.1512,
      "velocity": 94,
      "chip": "ym2612"
    },
    {
      "channel": 3,
      "note": 59,
      "start": 17.4046,
      "duration": 0.0971,
      "velocity": 85,
      "chip": "ym2612"
    },
    {
      "channel": 0,
      "note": 83,
      "start": 17.4845,
      "duration": 0.069,
      "velocity": 100,
      "chip": "ym2612"
    },
    {
      "channel": 0,
      "note": 85,
      "start": 17.5541,
      "duration": 0.0798,
      "velocity": 100,
      "chip": "ym2612"
    },
    {
      "channel": 1,
      "note": 78,
      "start": 17.5549,
      "duration": 0.164,
      "velocity": 99,
      "chip": "ym2612"
    },
    {
      "channel": 2,
      "note": 74,
      "start": 17.5557,
      "duration": 0.164,
      "velocity": 94,
      "chip": "ym2612"
    },
    {
      "channel": 3,
      "note": 59,
      "start": 17.5564,
      "duration": 0.1121,
      "velocity": 85,
      "chip": "ym2612"
    },
    {
      "channel": 5,
      "note": 75,
      "start": 17.5572,
      "duration": 0.3104,
      "velocity": 120,
      "chip": "ym2612"
    },
    {
      "channel": 0,
      "note": 85,
      "start": 17.6345,
      "duration": 0.0837,
      "velocity": 100,
      "chip": "ym2612"
    },
    {
      "channel": 0,
      "note": 85,
      "start": 17.7188,
      "duration": 0.0651,
      "velocity": 100,
      "chip": "ym2612"
    },
    {
      "channel": 1,
      "note": 71,
      "start": 17.7196,
      "duration": 0.1513,
      "velocity": 99,
      "chip": "ym2612"
    },
    {
      "channel": 2,
      "note": 66,
      "start": 17.7204,
      "duration": 0.1513,
      "velocity": 94,
      "chip": "ym2612"
    },
    {
      "channel": 3,
      "note": 59,
      "start": 17.7211,
      "duration": 0.0974,
      "velocity": 85,
      "chip": "ym2612"
    },
    {
      "channel": 0,
      "note": 85,
      "start": 17.7845,
      "duration": 0.0857,
      "velocity": 100,
      "chip": "ym2612"
    },
    {
      "channel": 0,
      "note": 86,
      "start": 17.8707,
      "duration": 0.0632,
      "velocity": 100,
      "chip": "ym2612"
    },
    {
      "channel": 1,
      "note": 76,
      "start": 17.8716,
      "duration": 0.1494,
      "velocity": 99,
      "chip": "ym2612"
    },
    {
      "channel": 2,
      "note": 73,
      "start": 17.8724,
      "duration": 0.1493,
      "velocity": 94,
      "chip": "ym2612"
    },
    {
      "channel": 3,
      "note": 59,
      "start": 17.8734,
      "duration": 0.0951,
      "velocity": 85,
      "chip": "ym2612"
    },
    {
      "channel": 5,
      "note": 32,
      "start": 17.8742,
      "duration": 0.1433,
      "velocity": 114,
      "chip": "ym2612"
    },
    {
      "channel": 0,
      "note": 86,
      "start": 17.9345,
      "duration": 0.0857,
      "velocity": 100,
      "chip": "ym2612"
    },
    {
      "channel": 0,
      "note": 86,
      "start": 18.0207,
      "duration": 0.0798,
      "velocity": 100,
      "chip": "ym2612"
    },
    {
      "channel": 1,
      "note": 71,
      "start": 18.0216,
      "duration": 0.1494,
      "velocity": 99,
      "chip": "ym2612"
    },
    {
      "channel": 2,
      "note": 66,
      "start": 18.0223,
      "duration": 0.1494,
      "velocity": 94,
      "chip": "ym2612"
    },
    {
      "channel": 3,
      "note": 59,
      "start": 18.0231,
      "duration": 0.0954,
      "velocity": 85,
      "chip": "ym2612"
    },
    {
      "channel": 5,
      "note": 32,
      "start": 18.0239,
      "duration": 0.1437,
      "velocity": 114,
      "chip": "ym2612"
    },
    {
      "channel": 0,
      "note": 86,
      "start": 18.1012,
      "duration": 0.069,
      "velocity": 100,
      "chip": "ym2612"
    },
    {
      "channel": 0,
      "note": 93,
      "start": 18.1708,
      "duration": 0.0798,
      "velocity": 100,
      "chip": "ym2612"
    },
    {
      "channel": 1,
      "note": 74,
      "start": 18.1716,
      "duration": 0.1641,
      "velocity": 99,
      "chip": "ym2612"
    },
    {
      "channel": 2,
      "note": 71,
      "start": 18.1724,
      "duration": 0.1642,
      "velocity": 94,
      "chip": "ym2612"
    },
    {
      "channel": 3,
      "note": 59,
      "start": 18.1731,
      "duration": 0.1121,
      "velocity": 85,
      "chip": "ym2612"
    },
    {
      "channel": 5,
      "note": 75,
      "start": 18.1739,
      "duration": 0.3106,
      "velocity": 120,
      "chip": "ym2612"
    },
    {
      "channel": 0,
      "note": 93,
      "start": 18.2512,
      "duration": 0.0837,
      "velocity": 100,
      "chip": "ym2612"
    },
    {
      "channel": 0,
      "note": 93,
      "start": 18.3354,
      "duration": 0.0651,
      "velocity": 100,
      "chip": "ym2612"
    },
    {
      "channel": 1,
      "note": 71,
      "start": 18.3363,
      "duration": 0.2479,
      "velocity": 99,
      "chip": "ym2612"
    },
    {
      "channel": 2,
      "note": 68,
      "start": 18.3372,
      "duration": 0.2473,
      "velocity": 94,
      "chip": "ym2612"
    },
    {
      "channel": 3,
      "note": 59,
      "start": 18.338,
      "duration": 0.0971,
      "velocity": 85,
      "chip": "ym2612"
    },
    {
      "channel": 0,
      "note": 93,
      "start": 18.4012,
      "duration": 0.086,
      "velocity": 100,
      "chip": "ym2612"
    },
    {
      "channel": 0,
      "note": 92,
      "start": 18.4877,
      "duration": 0.0629,
      "velocity": 100,
      "chip": "ym2612"
    },
    {
      "channel": 3,
      "note": 64,
      "start": 18.4896,
      "duration": 0.0953,
      "velocity": 85,
      "chip": "ym2612"
    },
    {
      "channel": 5,
      "note": 32,
      "start": 18.4905,
      "duration": 0.1438,
      "velocity": 114,
      "chip": "ym2612"
    },
    {
      "channel": 0,
      "note": 92,
      "start": 18.5512,
      "duration": 0.0857,
      "velocity": 100,
      "chip": "ym2612"
    },
    {
      "channel": 0,
      "note": 92,
      "start": 18.6374,
      "duration": 0.0798,
      "velocity": 100,
      "chip": "ym2612"
    },
    {
      "channel": 1,
      "note": 71,
      "start": 18.6384,
      "duration": 0.1492,
      "velocity": 99,
      "chip": "ym2612"
    },
    {
      "channel": 2,
      "note": 68,
      "start": 18.6393,
      "duration": 0.1491,
      "velocity": 94,
      "chip": "ym2612"
    },
    {
      "channel": 3,
      "note": 64,
      "start": 18.64,
      "duration": 0.0952,
      "velocity": 85,
      "chip": "ym2612"
    },
    {
      "channel": 5,
      "note": 32,
      "start": 18.6408,
      "duration": 0.1434,
      "velocity": 114,
      "chip": "ym2612"
    },
    {
      "channel": 0,
      "note": 92,
      "start": 18.7178,
      "duration": 0.069,
      "velocity": 100,
      "chip": "ym2612"
    },
    {
      "channel": 0,
      "note": 88,
      "start": 18.7874,
      "duration": 0.0798,
      "velocity": 100,
      "chip": "ym2612"
    },
    {
      "channel": 1,
      "note": 80,
      "start": 18.7882,
      "duration": 0.1656,
      "velocity": 99,
      "chip": "ym2612"
    },
    {
      "channel": 2,
      "note": 76,
      "start": 18.7891,
      "duration": 0.1656,
      "velocity": 94,
      "chip": "ym2612"
    },
    {
      "channel": 3,
      "note": 64,
      "start": 18.7898,
      "duration": 0.1121,
      "velocity": 85,
      "chip": "ym2612"
    },
    {
      "channel": 5,
      "note": 75,
      "start": 18.7905,
      "duration": 0.16,
      "velocity": 120,
      "chip": "ym2612"
    },
    {
      "channel": 0,
      "note": 88,
      "start": 18.8678,
      "duration": 0.0853,
      "velocity": 100,
      "chip": "ym2612"
    },
    {
      "channel": 0,
      "note": 88,
      "start": 18.9537,
      "duration": 0.0636,
      "velocity": 100,
      "chip": "ym2612"
    },
    {
      "channel": 1,
      "note": 71,
      "start": 18.9545,
      "duration": 0.1477,
      "velocity": 99,
      "chip": "ym2612"
    },
    {
      "channel": 2,
      "note": 68,
      "start": 18.9553,
      "duration": 0.1478,
      "velocity": 94,
      "chip": "ym2612"
    },
    {
      "channel": 3,
      "note": 64,
      "start": 18.956,
      "duration": 0.0959,
      "velocity": 85,
      "chip": "ym2612"
    },
    {
      "channel": 5,
      "note": 32,
      "start": 18.9569,
      "duration": 0.1952,
      "velocity": 114,
      "chip": "ym2612"
    },
    {
      "channel": 0,
      "note": 88,
      "start": 19.0178,
      "duration": 0.0837,
      "velocity": 100,
      "chip": "ym2612"
    },
    {
      "channel": 0,
      "note": 88,
      "start": 19.1021,
      "duration": 0.0818,
      "velocity": 100,
      "chip": "ym2612"
    },
    {
      "channel": 1,
      "note": 78,
      "start": 19.1029,
      "duration": 0.1513,
      "velocity": 99,
      "chip": "ym2612"
    },
    {
      "channel": 2,
      "note": 74,
      "start": 19.1037,
      "duration": 0.1513,
      "velocity": 94,
      "chip": "ym2612"
    },
    {
      "channel": 3,
      "note": 64,
      "start": 19.1044,
      "duration": 0.0974,
      "velocity": 85,
      "chip": "ym2612"
    },
    {
      "channel": 0,
      "note": 88,
      "start": 19.1845,
      "duration": 0.069,
      "velocity": 100,
      "chip": "ym2612"
    },
    {
      "channel": 0,
      "note": 88,
      "start": 19.2541,
      "duration": 0.0798,
      "velocity": 100,
      "chip": "ym2612"
    },
    {
      "channel": 1,
      "note": 71,
      "start": 19.2549,
      "duration": 0.1494,
      "velocity": 99,
      "chip": "ym2612"
    },
    {
      "channel": 2,
      "note": 68,
      "start": 19.2557,
      "duration": 0.1494,
      "velocity": 94,
      "chip": "ym2612"
    },
    {
      "channel": 3,
      "note": 64,
      "start": 19.2564,
      "duration": 0.0954,
      "velocity": 85,
      "chip": "ym2612"
    },
    {
      "channel": 5,
      "note": 32,
      "start": 19.2573,
      "duration": 0.1437,
      "velocity": 114,
      "chip": "ym2612"
    },
    {
      "channel": 0,
      "note": 88,
      "start": 19.3345,
      "duration": 0.069,
      "velocity": 100,
      "chip": "ym2612"
    },
    {
      "channel": 0,
      "note": 92,
      "start": 19.4041,
      "duration": 0.1135,
      "velocity": 100,
      "chip": "ym2612"
    },
    {
      "channel": 1,
      "note": 76,
      "start": 19.4049,
      "duration": 0.1646,
      "velocity": 99,
      "chip": "ym2612"
    },
    {
      "channel": 2,
      "note": 73,
      "start": 19.4057,
      "duration": 0.1647,
      "velocity": 94,
      "chip": "ym2612"
    },
    {
      "channel": 3,
      "note": 64,
      "start": 19.4064,
      "duration": 0.1128,
      "velocity": 85,
      "chip": "ym2612"
    },
    {
      "channel": 5,
      "note": 75,
      "start": 19.4072,
      "duration": 0.3107,
      "velocity": 120,
      "chip": "ym2612"
    },
    {
      "channel": 0,
      "note": 91,
      "start": 19.5182,
      "duration": 0.0504,
      "velocity": 100,
      "chip": "ym2612"
    },
    {
      "channel": 0,
      "note": 90,
      "start": 19.5693,
      "duration": 1.0676,
      "velocity": 100,
      "chip": "ym2612"
    },
    {
      "channel": 1,
      "note": 71,
      "start": 19.5702,
      "duration": 0.2475,
      "velocity": 99,
      "chip": "ym2612"
    },
    {
      "channel": 2,
      "note": 66,
      "start": 19.5711,
      "duration": 0.2469,
      "velocity": 94,
      "chip": "ym2612"
    },
    {
      "channel": 3,
      "note": 64,
      "start": 19.5718,
      "duration": 0.0967,
      "velocity": 85,
      "chip": "ym2612"
    },
    {
      "channel": 3,
      "note": 59,
      "start": 19.7225,
      "duration": 0.0958,
      "velocity": 85,
      "chip": "ym2612"
    },
    {
      "channel": 5,
      "note": 32,
      "start": 19.7234,
      "duration": 0.1955,
      "velocity": 114,
      "chip": "ym2612"
    },
    {
      "channel": 1,
      "note": 71,
      "start": 19.8693,
      "duration": 0.1519,
      "velocity": 102,
      "chip": "ym2612"
    },
    {
      "channel": 2,
      "note": 66,
      "start": 19.8701,
      "duration": 0.1524,
      "velocity": 97,
      "chip": "ym2612"
    },
    {
      "channel": 3,
      "note": 59,
      "start": 19.8708,
      "duration": 0.0978,
      "velocity": 85,
      "chip": "ym2612"
    },
    {
      "channel": 1,
      "note": 88,
      "start": 20.0218,
      "duration": 0.1635,
      "velocity": 102,
      "chip": "ym2612"
    },
    {
      "channel": 2,
      "note": 83,
      "start": 20.0231,
      "duration": 0.1625,
      "velocity": 97,
      "chip": "ym2612"
    },
    {
      "channel": 3,
      "note": 59,
      "start": 20.0239,
      "duration": 0.1115,
      "velocity": 85,
      "chip": "ym2612"
    },
    {
      "channel": 5,
      "note": 75,
      "start": 20.0246,
      "duration": 0.3096,
      "velocity": 120,
      "chip": "ym2612"
    },
    {
      "channel": 3,
      "note": 59,
      "start": 20.1865,
      "duration": 0.098,
      "velocity": 85,
      "chip": "ym2612"
    },
    {
      "channel": 1,
      "note": 88,
      "start": 20.338,
      "duration": 0.1494,
      "velocity": 102,
      "chip": "ym2612"
    },
    {
      "channel": 2,
      "note": 83,
      "start": 20.3388,
      "duration": 0.0961,
      "velocity": 97,
      "chip": "ym2612"
    },
    {
      "channel": 3,
      "note": 59,
      "start": 20.3398,
      "duration": 0.0954,
      "velocity": 85,
      "chip": "ym2612"
    },
    {
      "channel": 5,
      "note": 32,
      "start": 20.3407,
      "duration": 0.1436,
      "velocity": 114,
      "chip": "ym2612"
    },
    {
      "channel": 1,
      "note": 86,
      "start": 20.488,
      "duration": 0.4665,
      "velocity": 99,
      "chip": "ym2612"
    },
    {
      "channel": 2,
      "note": 83,
      "start": 20.4888,
      "duration": 0.467,
      "velocity": 94,
      "chip": "ym2612"
    },
    {
      "channel": 3,
      "note": 59,
      "start": 20.4896,
      "duration": 0.0957,
      "velocity": 85,
      "chip": "ym2612"
    },
    {
      "channel": 5,
      "note": 32,
      "start": 20.4904,
      "duration": 0.1438,
      "velocity": 114,
      "chip": "ym2612"
    },
    {
      "channel": 0,
      "note": 88,
      "start": 20.6375,
      "duration": 0.164,
      "velocity": 100,
      "chip": "ym2612"
    },
    {
      "channel": 3,
      "note": 59,
      "start": 20.6392,
      "duration": 0.1127,
      "velocity": 85,
      "chip": "ym2612"
    },
    {
      "channel": 5,
      "note": 75,
      "start": 20.6399,
      "duration": 0.3112,
      "velocity": 120,
      "chip": "ym2612"
    },
    {
      "channel": 0,
      "note": 90,
      "start": 20.8022,
      "duration": 1.2984,
      "velocity": 100,
      "chip": "ym2612"
    },
    {
      "channel": 3,
      "note": 59,
      "start": 20.8039,
      "duration": 0.098,
      "velocity": 85,
      "chip": "ym2612"
    },
    {
      "channel": 1,
      "note": 71,
      "start": 20.9552,
      "duration": 0.0959,
      "velocity": 99,
      "chip": "ym2612"
    },
    {
      "channel": 2,
      "note": 66,
      "start": 20.9564,
      "duration": 0.0949,
      "velocity": 94,
      "chip": "ym2612"
    },
    {
      "channel": 3,
      "note": 59,
      "start": 20.9575,
      "duration": 0.0942,
      "velocity": 85,
      "chip": "ym2612"
    },
    {
      "channel": 5,
      "note": 32,
      "start": 20.9583,
      "duration": 0.1426,
      "velocity": 114,
      "chip": "ym2612"
    },
    {
      "channel": 1,
      "note": 71,
      "start": 21.1046,
      "duration": 0.1498,
      "velocity": 102,
      "chip": "ym2612"
    },
    {
      "channel": 2,
      "note": 66,
      "start": 21.1054,
      "duration": 0.1504,
      "velocity": 97,
      "chip": "ym2612"
    },
    {
      "channel": 3,
      "note": 59,
      "start": 21.1062,
      "duration": 0.0957,
      "velocity": 85,
      "chip": "ym2612"
    },
    {
      "channel": 5,
      "note": 32,
      "start": 21.107,
      "duration": 0.1439,
      "velocity": 114,
      "chip": "ym2612"
    },
    {
      "channel": 1,
      "note": 88,
      "start": 21.2552,
      "duration": 0.1651,
      "velocity": 102,
      "chip": "ym2612"
    },
    {
      "channel": 2,
      "note": 83,
      "start": 21.2564,
      "duration": 0.1641,
      "velocity": 97,
      "chip": "ym2612"
    },
    {
      "channel": 3,
      "note": 59,
      "start": 21.2572,
      "duration": 0.1115,
      "velocity": 85,
      "chip": "ym2612"
    },
    {
      "channel": 5,
      "note": 75,
      "start": 21.258,
      "duration": 0.1592,
      "velocity": 120,
      "chip": "ym2612"
    },
    {
      "channel": 3,
      "note": 59,
      "start": 21.4215,
      "duration": 0.0964,
      "velocity": 85,
      "chip": "ym2612"
    },
    {
      "channel": 5,
      "note": 32,
      "start": 21.4223,
      "duration": 0.1966,
      "velocity": 114,
      "chip": "ym2612"
    },
    {
      "channel": 1,
      "note": 88,
      "start": 21.5693,
      "duration": 0.1514,
      "velocity": 102,
      "chip": "ym2612"
    },
    {
      "channel": 2,
      "note": 83,
      "start": 21.5701,
      "duration": 0.098,
      "velocity": 97,
      "chip": "ym2612"
    },
    {
      "channel": 3,
      "note": 59,
      "start": 21.5711,
      "duration": 0.0973,
      "velocity": 85,
      "chip": "ym2612"
    },
    {
      "channel": 1,
      "note": 86,
      "start": 21.7213,
      "duration": 0.4673,
      "velocity": 99,
      "chip": "ym2612"
    },
    {
      "channel": 2,
      "note": 83,
      "start": 21.7222,
      "duration": 0.4677,
      "velocity": 94,
      "chip": "ym2612"
    },
    {
      "channel": 3,
      "note": 59,
      "start": 21.7229,
      "duration": 0.0957,
      "velocity": 85,
      "chip": "ym2612"
    },
    {
      "channel": 5,
      "note": 32,
      "start": 21.7237,
      "duration": 0.1438,
      "velocity": 114,
      "chip": "ym2612"
    },
    {
      "channel": 3,
      "note": 59,
      "start": 21.8722,
      "duration": 0.1132,
      "velocity": 85,
      "chip": "ym2612"
    },
    {
      "channel": 5,
      "note": 75,
      "start": 21.8729,
      "duration": 0.3117,
      "velocity": 120,
      "chip": "ym2612"
    },
    {
      "channel": 3,
      "note": 59,
      "start": 22.0368,
      "duration": 0.0981,
      "velocity": 85,
      "chip": "ym2612"
    },
    {
      "channel": 0,
      "note": 83,
      "start": 22.188,
      "duration": 0.0793,
      "velocity": 100,
      "chip": "ym2612"
    },
    {
      "channel": 1,
      "note": 71,
      "start": 22.1893,
      "duration": 0.095,
      "velocity": 99,
      "chip": "ym2612"
    },
    {
      "channel": 2,
      "note": 66,
      "start": 22.1906,
      "duration": 0.094,
      "velocity": 94,
      "chip": "ym2612"
    },
    {
      "channel": 3,
      "note": 59,
      "start": 22.1915,
      "duration": 0.0934,
      "velocity": 85,
      "chip": "ym2612"
    },
    {
      "channel": 5,
      "note": 32,
      "start": 22.1924,
      "duration": 0.1929,
      "velocity": 114,
      "chip": "ym2612"
    },
    {
      "channel": 0,
      "note": 83,
      "start": 22.2679,
      "duration": 0.067,
      "velocity": 100,
      "chip": "ym2612"
    },
    {
      "channel": 0,
      "note": 83,
      "start": 22.3355,
      "duration": 0.0817,
      "velocity": 100,
      "chip": "ym2612"
    },
    {
      "channel": 1,
      "note": 71,
      "start": 22.3365,
      "duration": 0.1512,
      "velocity": 99,
      "chip": "ym2612"
    },
    {
      "channel": 2,
      "note": 66,
      "start": 22.3373,
      "duration": 0.1512,
      "velocity": 94,
      "chip": "ym2612"
    },
    {
      "channel": 3,
      "note": 59,
      "start": 22.338,
      "duration": 0.0971,
      "velocity": 85,
      "chip": "ym2612"
    },
    {
      "channel": 0,
      "note": 83,
      "start": 22.4179,
      "duration": 0.069,
      "velocity": 100,
      "chip": "ym2612"
    },
    {
      "channel": 0,
      "note": 85,
      "start": 22.4875,
      "duration": 0.0797,
      "velocity": 100,
      "chip": "ym2612"
    },
    {
      "channel": 1,
      "note": 78,
      "start": 22.4883,
      "duration": 0.1641,
      "velocity": 99,
      "chip": "ym2612"
    },
    {
      "channel": 2,
      "note": 74,
      "start": 22.4891,
      "duration": 0.164,
      "velocity": 94,
      "chip": "ym2612"
    },
    {
      "channel": 3,
      "note": 59,
      "start": 22.4898,
      "duration": 0.1121,
      "velocity": 85,
      "chip": "ym2612"
    },
    {
      "channel": 5,
      "note": 75,
      "start": 22.4906,
      "duration": 0.3103,
      "velocity": 120,
      "chip": "ym2612"
    },
    {
      "channel": 0,
      "note": 85,
      "start": 22.5679,
      "duration": 0.0837,
      "velocity": 100,
      "chip": "ym2612"
    },
    {
      "channel": 0,
      "note": 85,
      "start": 22.6522,
      "duration": 0.0651,
      "velocity": 100,
      "chip": "ym2612"
    },
    {
      "channel": 1,
      "note": 71,
      "start": 22.653,
      "duration": 0.1513,
      "velocity": 99,
      "chip": "ym2612"
    },
    {
      "channel": 2,
      "note": 66,
      "start": 22.6538,
      "duration": 0.1514,
      "velocity": 94,
      "chip": "ym2612"
    },
    {
      "channel": 3,
      "note": 59,
      "start": 22.6545,
      "duration": 0.0973,
      "velocity": 85,
      "chip": "ym2612"
    },
    {
      "channel": 0,
      "note": 85,
      "start": 22.7179,
      "duration": 0.0856,
      "velocity": 100,
      "chip": "ym2612"
    },
    {
      "channel": 0,
      "note": 86,
      "start": 22.8042,
      "duration": 0.0797,
      "velocity": 100,
      "chip": "ym2612"
    },
    {
      "channel": 1,
      "note": 76,
      "start": 22.805,
      "duration": 0.1494,
      "velocity": 99,
      "chip": "ym2612"
    },
    {
      "channel": 2,
      "note": 73,
      "start": 22.8058,
      "duration": 0.1494,
      "velocity": 94,
      "chip": "ym2612"
    },
    {
      "channel": 3,
      "note": 59,
      "start": 22.8068,
      "duration": 0.0951,
      "velocity": 85,
      "chip": "ym2612"
    },
    {
      "channel": 5,
      "note": 32,
      "start": 22.8076,
      "duration": 0.1433,
      "velocity": 114,
      "chip": "ym2612"
    },
    {
      "channel": 0,
      "note": 86,
      "start": 22.8846,
      "duration": 0.0689,
      "velocity": 100,
      "chip": "ym2612"
    },
    {
      "channel": 0,
      "note": 86,
      "start": 22.9542,
      "duration": 0.0797,
      "velocity": 100,
      "chip": "ym2612"
    },
    {
      "channel": 1,
      "note": 71,
      "start": 22.955,
      "duration": 0.1494,
      "velocity": 99,
      "chip": "ym2612"
    },
    {
      "channel": 2,
      "note": 66,
      "start": 22.9558,
      "duration": 0.1494,
      "velocity": 94,
      "chip": "ym2612"
    },
    {
      "channel": 3,
      "note": 59,
      "start": 22.9565,
      "duration": 0.0954,
      "velocity": 85,
      "chip": "ym2612"
    },
    {
      "channel": 5,
      "note": 32,
      "start": 22.9574,
      "duration": 0.1435,
      "velocity": 114,
      "chip": "ym2612"
    },
    {
      "channel": 0,
      "note": 86,
      "start": 23.0346,
      "duration": 0.069,
      "velocity": 100,
      "chip": "ym2612"
    },
    {
      "channel": 0,
      "note": 93,
      "start": 23.1042,
      "duration": 0.0797,
      "velocity": 100,
      "chip": "ym2612"
    },
    {
      "channel": 1,
      "note": 74,
      "start": 23.105,
      "duration": 0.1641,
      "velocity": 99,
      "chip": "ym2612"
    },
    {
      "channel": 2,
      "note": 71,
      "start": 23.1058,
      "duration": 0.1642,
      "velocity": 94,
      "chip": "ym2612"
    },
    {
      "channel": 3,
      "note": 59,
      "start": 23.1065,
      "duration": 0.1121,
      "velocity": 85,
      "chip": "ym2612"
    },
    {
      "channel": 5,
      "note": 75,
      "start": 23.1073,
      "duration": 0.3105,
      "velocity": 120,
      "chip": "ym2612"
    },
    {
      "channel": 0,
      "note": 93,
      "start": 23.1846,
      "duration": 0.0836,
      "velocity": 100,
      "chip": "ym2612"
    },
    {
      "channel": 0,
      "note": 93,
      "start": 23.2688,
      "duration": 0.0651,
      "velocity": 100,
      "chip": "ym2612"
    },
    {
      "channel": 1,
      "note": 71,
      "start": 23.2698,
      "duration": 0.2478,
      "velocity": 99,
      "chip": "ym2612"
    },
    {
      "channel": 2,
      "note": 68,
      "start": 23.2707,
      "duration": 0.2472,
      "velocity": 94,
      "chip": "ym2612"
    },
    {
      "channel": 3,
      "note": 59,
      "start": 23.2714,
      "duration": 0.0971,
      "velocity": 85,
      "chip": "ym2612"
    },
    {
      "channel": 0,
      "note": 93,
      "start": 23.3346,
      "duration": 0.0859,
      "velocity": 100,
      "chip": "ym2612"
    },
    {
      "channel": 0,
      "note": 95,
      "start": 23.4211,
      "duration": 0.0795,
      "velocity": 100,
      "chip": "ym2612"
    },
    {
      "channel": 3,
      "note": 64,
      "start": 23.423,
      "duration": 0.0952,
      "velocity": 85,
      "chip": "ym2612"
    },
    {
      "channel": 5,
      "note": 32,
      "start": 23.4239,
      "duration": 0.1437,
      "velocity": 114,
      "chip": "ym2612"
    },
    {
      "channel": 0,
      "note": 95,
      "start": 23.5013,
      "duration": 0.0689,
      "velocity": 100,
      "chip": "ym2612"
    },
    {
      "channel": 0,
      "note": 95,
      "start": 23.5709,
      "duration": 0.0797,
      "velocity": 100,
      "chip": "ym2612"
    },
    {
      "channel": 1,
      "note": 71,
      "start": 23.5718,
      "duration": 0.1492,
      "velocity": 99,
      "chip": "ym2612"
    },
    {
      "channel": 2,
      "note": 68,
      "start": 23.5727,
      "duration": 0.1492,
      "velocity": 94,
      "chip": "ym2612"
    },
    {
      "channel": 3,
      "note": 64,
      "start": 23.5734,
      "duration": 0.0951,
      "velocity": 85,
      "chip": "ym2612"
    },
    {
      "channel": 5,
      "note": 32,
      "start": 23.5742,
      "duration": 0.1433,
      "velocity": 114,
      "chip": "ym2612"
    },
    {
      "channel": 0,
      "note": 95,
      "start": 23.6513,
      "duration": 0.0689,
      "velocity": 100,
      "chip": "ym2612"
    },
    {
      "channel": 0,
      "note": 93,
      "start": 23.7209,
      "duration": 0.0797,
      "velocity": 100,
      "chip": "ym2612"
    },
    {
      "channel": 1,
      "note": 80,
      "start": 23.7217,
      "duration": 0.1656,
      "velocity": 99,
      "chip": "ym2612"
    },
    {
      "channel": 2,
      "note": 76,
      "start": 23.7225,
      "duration": 0.1656,
      "velocity": 94,
      "chip": "ym2612"
    },
    {
      "channel": 3,
      "note": 64,
      "start": 23.7232,
      "duration": 0.1121,
      "velocity": 85,
      "chip": "ym2612"
    },
    {
      "channel": 5,
      "note": 75,
      "start": 23.7239,
      "duration": 0.1599,
      "velocity": 120,
      "chip": "ym2612"
    },
    {
      "channel": 0,
      "note": 93,
      "start": 23.8013,
      "duration": 0.0852,
      "velocity": 100,
      "chip": "ym2612"
    },
    {
      "channel": 0,
      "note": 93,
      "start": 23.8872,
      "duration": 0.0634,
      "velocity": 100,
      "chip": "ym2612"
    },
    {
      "channel": 1,
      "note": 71,
      "start": 23.8879,
      "duration": 0.1478,
      "velocity": 99,
      "chip": "ym2612"
    },
    {
      "channel": 2,
      "note": 68,
      "start": 23.8887,
      "duration": 0.1478,
      "velocity": 94,
      "chip": "ym2612"
    },
    {
      "channel": 3,
      "note": 64,
      "start": 23.8895,
      "duration": 0.0957,
      "velocity": 85,
      "chip": "ym2612"
    },
    {
      "channel": 5,
      "note": 32,
      "start": 23.8903,
      "duration": 0.1951,
      "velocity": 114,
      "chip": "ym2612"
    },
    {
      "channel": 0,
      "note": 93,
      "start": 23.9513,
      "duration": 0.0836,
      "velocity": 100,
      "chip": "ym2612"
    },
    {
      "channel": 0,
      "note": 92,
      "start": 24.0355,
      "duration": 0.0817,
      "velocity": 100,
      "chip": "ym2612"
    },
    {
      "channel": 1,
      "note": 78,
      "start": 24.0363,
      "duration": 0.1513,
      "velocity": 99,
      "chip": "ym2612"
    },
    {
      "channel": 2,
      "note": 74,
      "start": 24.0372,
      "duration": 0.1513,
      "velocity": 94,
      "chip": "ym2612"
    },
    {
      "channel": 3,
      "note": 64,
      "start": 24.0378,
      "duration": 0.0973,
      "velocity": 85,
      "chip": "ym2612"
    },
    {
      "channel": 0,
      "note": 92,
      "start": 24.1179,
      "duration": 0.069,
      "velocity": 100,
      "chip": "ym2612"
    },
    {
      "channel": 0,
      "note": 92,
      "start": 24.1875,
      "duration": 0.0797,
      "velocity": 100,
      "chip": "ym2612"
    },
    {
      "channel": 1,
      "note": 71,
      "start": 24.1883,
      "duration": 0.1494,
      "velocity": 99,
      "chip": "ym2612"
    },
    {
      "channel": 2,
      "note": 68,
      "start": 24.1891,
      "duration": 0.1494,
      "velocity": 94,
      "chip": "ym2612"
    },
    {
      "channel": 3,
      "note": 64,
      "start": 24.1898,
      "duration": 0.0954,
      "velocity": 85,
      "chip": "ym2612"
    },
    {
      "channel": 5,
      "note": 32,
      "start": 24.1907,
      "duration": 0.1435,
      "velocity": 114,
      "chip": "ym2612"
    },
    {
      "channel": 0,
      "note": 92,
      "start": 24.2679,
      "duration": 0.069,
      "velocity": 100,
      "chip": "ym2612"
    },
    {
      "channel": 0,
      "note": 88,
      "start": 24.3376,
      "duration": 0.1639,
      "velocity": 100,
      "chip": "ym2612"
    },
    {
      "channel": 1,
      "note": 76,
      "start": 24.3384,
      "duration": 0.164,
      "velocity": 99,
      "chip": "ym2612"
    },
    {
      "channel": 2,
      "note": 73,
      "start": 24.3392,
      "duration": 0.1641,
      "velocity": 94,
      "chip": "ym2612"
    },
    {
      "channel": 3,
      "note": 64,
      "start": 24.3399,
      "duration": 0.112,
      "velocity": 85,
      "chip": "ym2612"
    },
    {
      "channel": 5,
      "note": 75,
      "start": 24.3407,
      "duration": 0.3106,
      "velocity": 120,
      "chip": "ym2612"
    },
    {
      "channel": 0,
      "note": 90,
      "start": 24.5022,
      "duration": 0.9984,
      "velocity": 100,
      "chip": "ym2612"
    },
    {
      "channel": 1,
      "note": 71,
      "start": 24.5031,
      "duration": 0.2479,
      "velocity": 99,
      "chip": "ym2612"
    },
    {
      "channel": 2,
      "note": 66,
      "start": 24.504,
      "duration": 0.2473,
      "velocity": 94,
      "chip": "ym2612"
    },
    {
      "channel": 3,
      "note": 64,
      "start": 24.5047,
      "duration": 0.0971,
      "velocity": 85,
      "chip": "ym2612"
    },
    {
      "channel": 3,
      "note": 59,
      "start": 24.6559,
      "duration": 0.0959,
      "velocity": 85,
      "chip": "ym2612"
    },
    {
      "channel": 5,
      "note": 32,
      "start": 24.6567,
      "duration": 0.1955,
      "velocity": 114,
      "chip": "ym2612"
    },
    {
      "channel": 1,
      "note": 71,
      "start": 24.8026,
      "duration": 0.1519,
      "velocity": 102,
      "chip": "ym2612"
    },
    {
      "channel": 2,
      "note": 66,
      "start": 24.8034,
      "duration": 0.1524,
      "velocity": 97,
      "chip": "ym2612"
    },
    {
      "channel": 3,
      "note": 59,
      "start": 24.8041,
      "duration": 0.0978,
      "velocity": 85,
      "chip": "ym2612"
    },
    {
      "channel": 1,
      "note": 88,
      "start": 24.9552,
      "duration": 0.1635,
      "velocity": 102,
      "chip": "ym2612"
    },
    {
      "channel": 2,
      "note": 83,
      "start": 24.9564,
      "duration": 0.1625,
      "velocity": 97,
      "chip": "ym2612"
    },
    {
      "channel": 3,
      "note": 59,
      "start": 24.9572,
      "duration": 0.1115,
      "velocity": 85,
      "chip": "ym2612"
    },
    {
      "channel": 5,
      "note": 75,
      "start": 24.958,
      "duration": 0.3096,
      "velocity": 120,
      "chip": "ym2612"
    },
    {
      "channel": 3,
      "note": 59,
      "start": 25.1199,
      "duration": 0.098,
      "velocity": 85,
      "chip": "ym2612"
    },
    {
      "channel": 1,
      "note": 88,
      "start": 25.2713,
      "duration": 0.1494,
      "velocity": 102,
      "chip": "ym2612"
    },
    {
      "channel": 2,
      "note": 83,
      "start": 25.2721,
      "duration": 0.0961,
      "velocity": 97,
      "chip": "ym2612"
    },
    {
      "channel": 3,
      "note": 59,
      "start": 25.273,
      "duration": 0.0954,
      "velocity": 85,
      "chip": "ym2612"
    },
    {
      "channel": 5,
      "note": 32,
      "start": 25.2739,
      "duration": 0.1437,
      "velocity": 114,
      "chip": "ym2612"
    },
    {
      "channel": 1,
      "note": 86,
      "start": 25.4213,
      "duration": 0.4666,
      "velocity": 99,
      "chip": "ym2612"
    },
    {
      "channel": 2,
      "note": 83,
      "start": 25.4222,
      "duration": 0.467,
      "velocity": 94,
      "chip": "ym2612"
    },
    {
      "channel": 3,
      "note": 59,
      "start": 25.4229,
      "duration": 0.0953,
      "velocity": 85,
      "chip": "ym2612"
    },
    {
      "channel": 5,
      "note": 32,
      "start": 25.4237,
      "duration": 0.1605,
      "velocity": 114,
      "chip": "ym2612"
    },
    {
      "channel": 0,
      "note": 88,
      "start": 25.5875,
      "duration": 0.1473,
      "velocity": 100,
      "chip": "ym2612"
    },
    {
      "channel": 3,
      "note": 59,
      "start": 25.5892,
      "duration": 0.096,
      "velocity": 85,
      "chip": "ym2612"
    },
    {
      "channel": 5,
      "note": 75,
      "start": 25.5899,
      "duration": 0.2946,
      "velocity": 120,
      "chip": "ym2612"
    },
    {
      "channel": 0,
      "note": 90,
      "start": 25.7355,
      "duration": 1.2984,
      "velocity": 100,
      "chip": "ym2612"
    },
    {
      "channel": 3,
      "note": 59,
      "start": 25.7372,
      "duration": 0.098,
      "velocity": 85,
      "chip": "ym2612"
    },
    {
      "channel": 1,
      "note": 71,
      "start": 25.8885,
      "duration": 0.0958,
      "velocity": 99,
      "chip": "ym2612"
    },
    {
      "channel": 2,
      "note": 66,
      "start": 25.8898,
      "duration": 0.0949,
      "velocity": 94,
      "chip": "ym2612"
    },
    {
      "channel": 3,
      "note": 59,
      "start": 25.8908,
      "duration": 0.0941,
      "velocity": 85,
      "chip": "ym2612"
    },
    {
      "channel": 5,
      "note": 32,
      "start": 25.8917,
      "duration": 0.1425,
      "velocity": 114,
      "chip": "ym2612"
    },
    {
      "channel": 1,
      "note": 71,
      "start": 26.038,
      "duration": 0.1665,
      "velocity": 102,
      "chip": "ym2612"
    },
    {
      "channel": 2,
      "note": 66,
      "start": 26.0388,
      "duration": 0.1672,
      "velocity": 97,
      "chip": "ym2612"
    },
    {
      "channel": 3,
      "note": 59,
      "start": 26.0395,
      "duration": 0.0957,
      "velocity": 85,
      "chip": "ym2612"
    },
    {
      "channel": 5,
      "note": 32,
      "start": 26.0403,
      "duration": 0.1606,
      "velocity": 114,
      "chip": "ym2612"
    },
    {
      "channel": 1,
      "note": 88,
      "start": 26.2052,
      "duration": 0.1483,
      "velocity": 102,
      "chip": "ym2612"
    },
    {
      "channel": 2,
      "note": 83,
      "start": 26.2066,
      "duration": 0.1473,
      "velocity": 97,
      "chip": "ym2612"
    },
    {
      "channel": 3,
      "note": 59,
      "start": 26.2073,
      "duration": 0.0946,
      "velocity": 85,
      "chip": "ym2612"
    },
    {
      "channel": 5,
      "note": 75,
      "start": 26.2081,
      "duration": 0.1424,
      "velocity": 120,
      "chip": "ym2612"
    },
    {
      "channel": 3,
      "note": 59,
      "start": 26.3548,
      "duration": 0.0964,
      "velocity": 85,
      "chip": "ym2612"
    },
    {
      "channel": 5,
      "note": 32,
      "start": 26.3556,
      "duration": 0.1966,
      "velocity": 114,
      "chip": "ym2612"
    },
    {
      "channel": 1,
      "note": 88,
      "start": 26.5026,
      "duration": 0.1514,
      "velocity": 102,
      "chip": "ym2612"
    },
    {
      "channel": 2,
      "note": 83,
      "start": 26.5034,
      "duration": 0.098,
      "velocity": 97,
      "chip": "ym2612"
    },
    {
      "channel": 3,
      "note": 59,
      "start": 26.5044,
      "duration": 0.0974,
      "velocity": 85,
      "chip": "ym2612"
    },
    {
      "channel": 1,
      "note": 86,
      "start": 26.6546,
      "duration": 0.4669,
      "velocity": 99,
      "chip": "ym2612"
    },
    {
      "channel": 2,
      "note": 83,
      "start": 26.6555,
      "duration": 0.4674,
      "velocity": 94,
      "chip": "ym2612"
    },
    {
      "channel": 3,
      "note": 59,
      "start": 26.6562,
      "duration": 0.0957,
      "velocity": 85,
      "chip": "ym2612"
    },
    {
      "channel": 5,
      "note": 32,
      "start": 26.6571,
      "duration": 0.1605,
      "velocity": 114,
      "chip": "ym2612"
    },
    {
      "channel": 3,
      "note": 59,
      "start": 26.8222,
      "duration": 0.0964,
      "velocity": 85,
      "chip": "ym2612"
    },
    {
      "channel": 5,
      "note": 75,
      "start": 26.8229,
      "duration": 0.295,
      "velocity": 120,
      "chip": "ym2612"
    },
    {
      "channel": 3,
      "note": 59,
      "start": 26.9702,
      "duration": 0.0981,
      "velocity": 85,
      "chip": "ym2612"
    },
    {
      "channel": 1,
      "note": 71,
      "start": 27.1222,
      "duration": 0.0951,
      "velocity": 99,
      "chip": "ym2612"
    },
    {
      "channel": 2,
      "note": 66,
      "start": 27.1235,
      "duration": 0.0941,
      "velocity": 94,
      "chip": "ym2612"
    },
    {
      "channel": 3,
      "note": 59,
      "start": 27.1246,
      "duration": 0.0934,
      "velocity": 85,
      "chip": "ym2612"
    },
    {
      "channel": 5,
      "note": 32,
      "start": 27.1254,
      "duration": 0.193,
      "velocity": 114,
      "chip": "ym2612"
    },
    {
      "channel": 1,
      "note": 71,
      "start": 27.269,
      "duration": 0.1679,
      "velocity": 99,
      "chip": "ym2612"
    },
    {
      "channel": 2,
      "note": 66,
      "start": 27.2699,
      "duration": 0.1678,
      "velocity": 94,
      "chip": "ym2612"
    },
    {
      "channel": 3,
      "note": 59,
      "start": 27.2707,
      "duration": 0.0976,
      "velocity": 85,
      "chip": "ym2612"
    },
    {
      "channel": 1,
      "note": 78,
      "start": 27.4376,
      "duration": 0.1473,
      "velocity": 99,
      "chip": "ym2612"
    },
    {
      "channel": 2,
      "note": 74,
      "start": 27.4384,
      "duration": 0.1473,
      "velocity": 94,
      "chip": "ym2612"
    },
    {
      "channel": 3,
      "note": 59,
      "start": 27.4391,
      "duration": 0.0958,
      "velocity": 85,
      "chip": "ym2612"
    },
    {
      "channel": 5,
      "note": 75,
      "start": 27.4399,
      "duration": 0.2944,
      "velocity": 120,
      "chip": "ym2612"
    },
    {
      "channel": 1,
      "note": 71,
      "start": 27.5856,
      "duration": 0.1513,
      "velocity": 99,
      "chip": "ym2612"
    },
    {
      "channel": 2,
      "note": 66,
      "start": 27.5864,
      "duration": 0.1513,
      "velocity": 94,
      "chip": "ym2612"
    },
    {
      "channel": 3,
      "note": 59,
      "start": 27.5871,
      "duration": 0.0978,
      "velocity": 85,
      "chip": "ym2612"
    },
    {
      "channel": 1,
      "note": 76,
      "start": 27.7376,
      "duration": 0.1494,
      "velocity": 99,
      "chip": "ym2612"
    },
    {
      "channel": 2,
      "note": 73,
      "start": 27.7384,
      "duration": 0.1493,
      "velocity": 94,
      "chip": "ym2612"
    },
    {
      "channel": 3,
      "note": 59,
      "start": 27.7394,
      "duration": 0.0955,
      "velocity": 85,
      "chip": "ym2612"
    },
    {
      "channel": 5,
      "note": 32,
      "start": 27.7403,
      "duration": 0.144,
      "velocity": 114,
      "chip": "ym2612"
    },
    {
      "channel": 1,
      "note": 71,
      "start": 27.8876,
      "duration": 0.166,
      "velocity": 99,
      "chip": "ym2612"
    },
    {
      "channel": 2,
      "note": 66,
      "start": 27.8884,
      "duration": 0.166,
      "velocity": 94,
      "chip": "ym2612"
    },
    {
      "channel": 3,
      "note": 59,
      "start": 27.8891,
      "duration": 0.0958,
      "velocity": 85,
      "chip": "ym2612"
    },
    {
      "channel": 5,
      "note": 32,
      "start": 27.89,
      "duration": 0.161,
      "velocity": 114,
      "chip": "ym2612"
    },
    {
      "channel": 1,
      "note": 74,
      "start": 28.0543,
      "duration": 0.1475,
      "velocity": 99,
      "chip": "ym2612"
    },
    {
      "channel": 2,
      "note": 71,
      "start": 28.0551,
      "duration": 0.1475,
      "velocity": 94,
      "chip": "ym2612"
    },
    {
      "channel": 3,
      "note": 59,
      "start": 28.0558,
      "duration": 0.0957,
      "velocity": 85,
      "chip": "ym2612"
    },
    {
      "channel": 5,
      "note": 75,
      "start": 28.0566,
      "duration": 0.2946,
      "velocity": 120,
      "chip": "ym2612"
    },
    {
      "channel": 1,
      "note": 71,
      "start": 28.2024,
      "duration": 0.2483,
      "velocity": 99,
      "chip": "ym2612"
    },
    {
      "channel": 2,
      "note": 66,
      "start": 28.2032,
      "duration": 0.2477,
      "velocity": 94,
      "chip": "ym2612"
    },
    {
      "channel": 3,
      "note": 59,
      "start": 28.2039,
      "duration": 0.0976,
      "velocity": 85,
      "chip": "ym2612"
    },
    {
      "channel": 3,
      "note": 59,
      "start": 28.3556,
      "duration": 0.0957,
      "velocity": 85,
      "chip": "ym2612"
    },
    {
      "channel": 5,
      "note": 32,
      "start": 28.3564,
      "duration": 0.1445,
      "velocity": 114,
      "chip": "ym2612"
    },
    {
      "channel": 1,
      "note": 71,
      "start": 28.5044,
      "duration": 0.1659,
      "velocity": 99,
      "chip": "ym2612"
    },
    {
      "channel": 2,
      "note": 66,
      "start": 28.5053,
      "duration": 0.1658,
      "velocity": 94,
      "chip": "ym2612"
    },
    {
      "channel": 3,
      "note": 59,
      "start": 28.506,
      "duration": 0.0956,
      "velocity": 85,
      "chip": "ym2612"
    },
    {
      "channel": 5,
      "note": 32,
      "start": 28.5069,
      "duration": 0.1607,
      "velocity": 114,
      "chip": "ym2612"
    },
    {
      "channel": 1,
      "note": 78,
      "start": 28.6709,
      "duration": 0.1489,
      "velocity": 99,
      "chip": "ym2612"
    },
    {
      "channel": 2,
      "note": 74,
      "start": 28.6718,
      "duration": 0.1489,
      "velocity": 94,
      "chip": "ym2612"
    },
    {
      "channel": 3,
      "note": 59,
      "start": 28.6725,
      "duration": 0.0957,
      "velocity": 85,
      "chip": "ym2612"
    },
    {
      "channel": 5,
      "note": 75,
      "start": 28.6732,
      "duration": 0.144,
      "velocity": 120,
      "chip": "ym2612"
    },
    {
      "channel": 1,
      "note": 71,
      "start": 28.8205,
      "duration": 0.1477,
      "velocity": 99,
      "chip": "ym2612"
    },
    {
      "channel": 2,
      "note": 66,
      "start": 28.8213,
      "duration": 0.1478,
      "velocity": 94,
      "chip": "ym2612"
    },
    {
      "channel": 3,
      "note": 59,
      "start": 28.822,
      "duration": 0.0962,
      "velocity": 85,
      "chip": "ym2612"
    },
    {
      "channel": 5,
      "note": 32,
      "start": 28.8229,
      "duration": 0.1956,
      "velocity": 114,
      "chip": "ym2612"
    },
    {
      "channel": 1,
      "note": 76,
      "start": 28.9689,
      "duration": 0.1514,
      "velocity": 99,
      "chip": "ym2612"
    },
    {
      "channel": 2,
      "note": 73,
      "start": 28.9697,
      "duration": 0.1513,
      "velocity": 94,
      "chip": "ym2612"
    },
    {
      "channel": 3,
      "note": 59,
      "start": 28.9707,
      "duration": 0.0975,
      "velocity": 85,
      "chip": "ym2612"
    },
    {
      "channel": 1,
      "note": 71,
      "start": 29.1209,
      "duration": 0.166,
      "velocity": 99,
      "chip": "ym2612"
    },
    {
      "channel": 2,
      "note": 66,
      "start": 29.1217,
      "duration": 0.166,
      "velocity": 94,
      "chip": "ym2612"
    },
    {
      "channel": 3,
      "note": 59,
      "start": 29.1225,
      "duration": 0.0957,
      "velocity": 85,
      "chip": "ym2612"
    },
    {
      "channel": 5,
      "note": 32,
      "start": 29.1233,
      "duration": 0.161,
      "velocity": 114,
      "chip": "ym2612"
    },
    {
      "channel": 1,
      "note": 74,
      "start": 29.2876,
      "duration": 0.1475,
      "velocity": 99,
      "chip": "ym2612"
    },
    {
      "channel": 2,
      "note": 71,
      "start": 29.2884,
      "duration": 0.1475,
      "velocity": 94,
      "chip": "ym2612"
    },
    {
      "channel": 3,
      "note": 59,
      "start": 29.2891,
      "duration": 0.0958,
      "velocity": 85,
      "chip": "ym2612"
    },
    {
      "channel": 5,
      "note": 75,
      "start": 29.2899,
      "duration": 0.2947,
      "velocity": 120,
      "chip": "ym2612"
    },
    {
      "channel": 1,
      "note": 71,
      "start": 29.4357,
      "duration": 0.2485,
      "velocity": 99,
      "chip": "ym2612"
    },
    {
      "channel": 2,
      "note": 66,
      "start": 29.4366,
      "duration": 0.248,
      "velocity": 94,
      "chip": "ym2612"
    },
    {
      "channel": 3,
      "note": 59,
      "start": 29.4373,
      "duration": 0.0976,
      "velocity": 85,
      "chip": "ym2612"
    },
    {
      "channel": 0,
      "note": 83,
      "start": 29.59,
      "duration": 0.0772,
      "velocity": 100,
      "chip": "ym2612"
    },
    {
      "channel": 3,
      "note": 59,
      "start": 29.5919,
      "duration": 0.093,
      "velocity": 85,
      "chip": "ym2612"
    },
    {
      "channel": 5,
      "note": 32,
      "start": 29.5928,
      "duration": 0.1926,
      "velocity": 114,
      "chip": "ym2612"
    },
    {
      "channel": 0,
      "note": 83,
      "start": 29.6679,
      "duration": 0.067,
      "velocity": 100,
      "chip": "ym2612"
    },
    {
      "channel": 0,
      "note": 83,
      "start": 29.7355,
      "duration": 0.0817,
      "velocity": 100,
      "chip": "ym2612"
    },
    {
      "channel": 1,
      "note": 71,
      "start": 29.7365,
      "duration": 0.1679,
      "velocity": 99,
      "chip": "ym2612"
    },
    {
      "channel": 2,
      "note": 66,
      "start": 29.7373,
      "duration": 0.1678,
      "velocity": 94,
      "chip": "ym2612"
    },
    {
      "channel": 3,
      "note": 59,
      "start": 29.738,
      "duration": 0.1139,
      "velocity": 85,
      "chip": "ym2612"
    },
    {
      "channel": 0,
      "note": 83,
      "start": 29.8179,
      "duration": 0.0856,
      "velocity": 100,
      "chip": "ym2612"
    },
    {
      "channel": 0,
      "note": 85,
      "start": 29.9042,
      "duration": 0.0631,
      "velocity": 100,
      "chip": "ym2612"
    },
    {
      "channel": 1,
      "note": 78,
      "start": 29.905,
      "duration": 0.1474,
      "velocity": 99,
      "chip": "ym2612"
    },
    {
      "channel": 2,
      "note": 74,
      "start": 29.9058,
      "duration": 0.1473,
      "velocity": 94,
      "chip": "ym2612"
    },
    {
      "channel": 3,
      "note": 59,
      "start": 29.9065,
      "duration": 0.0954,
      "velocity": 85,
      "chip": "ym2612"
    },
    {
      "channel": 5,
      "note": 75,
      "start": 29.9073,
      "duration": 0.2937,
      "velocity": 120,
      "chip": "ym2612"
    },
    {
      "channel": 0,
      "note": 85,
      "start": 29.9679,
      "duration": 0.0837,
      "velocity": 100,
      "chip": "ym2612"
    },
    {
      "channel": 0,
      "note": 85,
      "start": 30.0522,
      "duration": 0.0651,
      "velocity": 100,
      "chip": "ym2612"
    },
    {
      "channel": 1,
      "note": 71,
      "start": 30.053,
      "duration": 0.1513,
      "velocity": 99,
      "chip": "ym2612"
    },
    {
      "channel": 2,
      "note": 66,
      "start": 30.0538,
      "duration": 0.1514,
      "velocity": 94,
      "chip": "ym2612"
    },
    {
      "channel": 3,
      "note": 59,
      "start": 30.0545,
      "duration": 0.0973,
      "velocity": 85,
      "chip": "ym2612"
    },
    {
      "channel": 0,
      "note": 85,
      "start": 30.1179,
      "duration": 0.0856,
      "velocity": 100,
      "chip": "ym2612"
    },
    {
      "channel": 0,
      "note": 86,
      "start": 30.2042,
      "duration": 0.0797,
      "velocity": 100,
      "chip": "ym2612"
    },
    {
      "channel": 1,
      "note": 76,
      "start": 30.205,
      "duration": 0.1494,
      "velocity": 99,
      "chip": "ym2612"
    },
    {
      "channel": 2,
      "note": 73,
      "start": 30.2058,
      "duration": 0.1494,
      "velocity": 94,
      "chip": "ym2612"
    },
    {
      "channel": 3,
      "note": 59,
      "start": 30.2068,
      "duration": 0.0951,
      "velocity": 85,
      "chip": "ym2612"
    },
    {
      "channel": 5,
      "note": 32,
      "start": 30.2076,
      "duration": 0.1433,
      "velocity": 114,
      "chip": "ym2612"
    },
    {
      "channel": 0,
      "note": 86,
      "start": 30.2846,
      "duration": 0.069,
      "velocity": 100,
      "chip": "ym2612"
    },
    {
      "channel": 0,
      "note": 86,
      "start": 30.3542,
      "duration": 0.0797,
      "velocity": 100,
      "chip": "ym2612"
    },
    {
      "channel": 1,
      "note": 71,
      "start": 30.355,
      "duration": 0.166,
      "velocity": 99,
      "chip": "ym2612"
    },
    {
      "channel": 2,
      "note": 66,
      "start": 30.3558,
      "duration": 0.166,
      "velocity": 94,
      "chip": "ym2612"
    },
    {
      "channel": 3,
      "note": 59,
      "start": 30.3565,
      "duration": 0.1121,
      "velocity": 85,
      "chip": "ym2612"
    },
    {
      "channel": 5,
      "note": 32,
      "start": 30.3574,
      "duration": 0.1602,
      "velocity": 114,
      "chip": "ym2612"
    },
    {
      "channel": 0,
      "note": 86,
      "start": 30.4346,
      "duration": 0.0856,
      "velocity": 100,
      "chip": "ym2612"
    },
    {
      "channel": 0,
      "note": 93,
      "start": 30.5209,
      "duration": 0.0631,
      "velocity": 100,
      "chip": "ym2612"
    },
    {
      "channel": 1,
      "note": 74,
      "start": 30.5217,
      "duration": 0.1474,
      "velocity": 99,
      "chip": "ym2612"
    },
    {
      "channel": 2,
      "note": 71,
      "start": 30.5225,
      "duration": 0.1475,
      "velocity": 94,
      "chip": "ym2612"
    },
    {
      "channel": 3,
      "note": 59,
      "start": 30.5232,
      "duration": 0.0954,
      "velocity": 85,
      "chip": "ym2612"
    },
    {
      "channel": 5,
      "note": 75,
      "start": 30.5239,
      "duration": 0.2938,
      "velocity": 120,
      "chip": "ym2612"
    },
    {
      "channel": 0,
      "note": 93,
      "start": 30.5846,
      "duration": 0.0836,
      "velocity": 100,
      "chip": "ym2612"
    },
    {
      "channel": 0,
      "note": 93,
      "start": 30.6689,
      "duration": 0.065,
      "velocity": 100,
      "chip": "ym2612"
    },
    {
      "channel": 1,
      "note": 71,
      "start": 30.6698,
      "duration": 0.2478,
      "velocity": 99,
      "chip": "ym2612"
    },
    {
      "channel": 2,
      "note": 68,
      "start": 30.6707,
      "duration": 0.2472,
      "velocity": 94,
      "chip": "ym2612"
    },
    {
      "channel": 3,
      "note": 59,
      "start": 30.6714,
      "duration": 0.0971,
      "velocity": 85,
      "chip": "ym2612"
    },
    {
      "channel": 0,
      "note": 93,
      "start": 30.7346,
      "duration": 0.0859,
      "velocity": 100,
      "chip": "ym2612"
    },
    {
      "channel": 0,
      "note": 92,
      "start": 30.8211,
      "duration": 0.0795,
      "velocity": 100,
      "chip": "ym2612"
    },
    {
      "channel": 3,
      "note": 64,
      "start": 30.823,
      "duration": 0.0952,
      "velocity": 85,
      "chip": "ym2612"
    },
    {
      "channel": 5,
      "note": 32,
      "start": 30.8239,
      "duration": 0.1437,
      "velocity": 114,
      "chip": "ym2612"
    },
    {
      "channel": 0,
      "note": 92,
      "start": 30.9012,
      "duration": 0.069,
      "velocity": 100,
      "chip": "ym2612"
    },
    {
      "channel": 0,
      "note": 92,
      "start": 30.9709,
      "duration": 0.0797,
      "velocity": 100,
      "chip": "ym2612"
    },
    {
      "channel": 1,
      "note": 71,
      "start": 30.9718,
      "duration": 0.1659,
      "velocity": 99,
      "chip": "ym2612"
    },
    {
      "channel": 2,
      "note": 68,
      "start": 30.9727,
      "duration": 0.1659,
      "velocity": 94,
      "chip": "ym2612"
    },
    {
      "channel": 3,
      "note": 64,
      "start": 30.9734,
      "duration": 0.1119,
      "velocity": 85,
      "chip": "ym2612"
    },
    {
      "channel": 5,
      "note": 32,
      "start": 30.9742,
      "duration": 0.16,
      "velocity": 114,
      "chip": "ym2612"
    },
    {
      "channel": 0,
      "note": 92,
      "start": 31.0512,
      "duration": 0.0856,
      "velocity": 100,
      "chip": "ym2612"
    },
    {
      "channel": 0,
      "note": 88,
      "start": 31.1375,
      "duration": 0.0631,
      "velocity": 100,
      "chip": "ym2612"
    },
    {
      "channel": 1,
      "note": 80,
      "start": 31.1383,
      "duration": 0.149,
      "velocity": 99,
      "chip": "ym2612"
    },
    {
      "channel": 2,
      "note": 76,
      "start": 31.1391,
      "duration": 0.149,
      "velocity": 94,
      "chip": "ym2612"
    },
    {
      "channel": 3,
      "note": 64,
      "start": 31.1398,
      "duration": 0.0954,
      "velocity": 85,
      "chip": "ym2612"
    },
    {
      "channel": 5,
      "note": 75,
      "start": 31.1406,
      "duration": 0.1433,
      "velocity": 120,
      "chip": "ym2612"
    },
    {
      "channel": 0,
      "note": 88,
      "start": 31.2012,
      "duration": 0.0852,
      "velocity": 100,
      "chip": "ym2612"
    },
    {
      "channel": 0,
      "note": 88,
      "start": 31.2872,
      "duration": 0.0634,
      "velocity": 100,
      "chip": "ym2612"
    },
    {
      "channel": 1,
      "note": 71,
      "start": 31.2879,
      "duration": 0.1478,
      "velocity": 99,
      "chip": "ym2612"
    },
    {
      "channel": 2,
      "note": 68,
      "start": 31.2888,
      "duration": 0.1477,
      "velocity": 94,
      "chip": "ym2612"
    },
    {
      "channel": 3,
      "note": 64,
      "start": 31.2895,
      "duration": 0.0957,
      "velocity": 85,
      "chip": "ym2612"
    },
    {
      "channel": 5,
      "note": 32,
      "start": 31.2903,
      "duration": 0.195,
      "velocity": 114,
      "chip": "ym2612"
    },
    {
      "channel": 0,
      "note": 88,
      "start": 31.3512,
      "duration": 0.0837,
      "velocity": 100,
      "chip": "ym2612"
    },
    {
      "channel": 0,
      "note": 88,
      "start": 31.4355,
      "duration": 0.0817,
      "velocity": 100,
      "chip": "ym2612"
    },
    {
      "channel": 1,
      "note": 78,
      "start": 31.4363,
      "duration": 0.1513,
      "velocity": 99,
      "chip": "ym2612"
    },
    {
      "channel": 2,
      "note": 74,
      "start": 31.4372,
      "duration": 0.1513,
      "velocity": 94,
      "chip": "ym2612"
    },
    {
      "channel": 3,
      "note": 64,
      "start": 31.4378,
      "duration": 0.0973,
      "velocity": 85,
      "chip": "ym2612"
    },
    {
      "channel": 0,
      "note": 88,
      "start": 31.5179,
      "duration": 0.069,
      "velocity": 100,
      "chip": "ym2612"
    },
    {
      "channel": 0,
      "note": 88,
      "start": 31.5875,
      "duration": 0.0797,
      "velocity": 100,
      "chip": "ym2612"
    },
    {
      "channel": 1,
      "note": 71,
      "start": 31.5883,
      "duration": 0.166,
      "velocity": 99,
      "chip": "ym2612"
    },
    {
      "channel": 2,
      "note": 68,
      "start": 31.5891,
      "duration": 0.166,
      "velocity": 94,
      "chip": "ym2612"
    },
    {
      "channel": 3,
      "note": 64,
      "start": 31.5898,
      "duration": 0.1121,
      "velocity": 85,
      "chip": "ym2612"
    },
    {
      "channel": 5,
      "note": 32,
      "start": 31.5907,
      "duration": 0.1602,
      "velocity": 114,
      "chip": "ym2612"
    },
    {
      "channel": 0,
      "note": 88,
      "start": 31.6679,
      "duration": 0.0856,
      "velocity": 100,
      "chip": "ym2612"
    },
    {
      "channel": 0,
      "note": 92,
      "start": 31.7542,
      "duration": 0.0968,
      "velocity": 100,
      "chip": "ym2612"
    },
    {
      "channel": 1,
      "note": 76,
      "start": 31.755,
      "duration": 0.1478,
      "velocity": 99,
      "chip": "ym2612"
    },
    {
      "channel": 2,
      "note": 73,
      "start": 31.7558,
      "duration": 0.148,
      "velocity": 94,
      "chip": "ym2612"
    },
    {
      "channel": 3,
      "note": 64,
      "start": 31.7565,
      "duration": 0.0962,
      "velocity": 85,
      "chip": "ym2612"
    },
    {
      "channel": 5,
      "note": 75,
      "start": 31.7573,
      "duration": 0.294,
      "velocity": 120,
      "chip": "ym2612"
    },
    {
      "channel": 0,
      "note": 91,
      "start": 31.8516,
      "duration": 0.0504,
      "velocity": 100,
      "chip": "ym2612"
    },
    {
      "channel": 0,
      "note": 90,
      "start": 31.9026,
      "duration": 1.0842,
      "velocity": 100,
      "chip": "ym2612"
    },
    {
      "channel": 1,
      "note": 71,
      "start": 31.9036,
      "duration": 0.2475,
      "velocity": 99,
      "chip": "ym2612"
    },
    {
      "channel": 2,
      "note": 66,
      "start": 31.9045,
      "duration": 0.2469,
      "velocity": 94,
      "chip": "ym2612"
    },
    {
      "channel": 3,
      "note": 64,
      "start": 31.9052,
      "duration": 0.0967,
      "velocity": 85,
      "chip": "ym2612"
    },
    {
      "channel": 3,
      "note": 59,
      "start": 32.0559,
      "duration": 0.0958,
      "velocity": 85,
      "chip": "ym2612"
    },
    {
      "channel": 5,
      "note": 32,
      "start": 32.0567,
      "duration": 0.1955,
      "velocity": 114,
      "chip": "ym2612"
    },
    {
      "channel": 1,
      "note": 71,
      "start": 32.2026,
      "duration": 0.1685,
      "velocity": 102,
      "chip": "ym2612"
    },
    {
      "channel": 2,
      "note": 66,
      "start": 32.2034,
      "duration": 0.169,
      "velocity": 97,
      "chip": "ym2612"
    },
    {
      "channel": 3,
      "note": 59,
      "start": 32.2041,
      "duration": 0.1145,
      "velocity": 85,
      "chip": "ym2612"
    },
    {
      "channel": 1,
      "note": 88,
      "start": 32.3718,
      "duration": 0.1469,
      "velocity": 102,
      "chip": "ym2612"
    },
    {
      "channel": 2,
      "note": 83,
      "start": 32.3731,
      "duration": 0.1459,
      "velocity": 97,
      "chip": "ym2612"
    },
    {
      "channel": 3,
      "note": 59,
      "start": 32.3738,
      "duration": 0.0948,
      "velocity": 85,
      "chip": "ym2612"
    },
    {
      "channel": 5,
      "note": 75,
      "start": 32.3746,
      "duration": 0.293,
      "velocity": 120,
      "chip": "ym2612"
    },
    {
      "channel": 3,
      "note": 59,
      "start": 32.5199,
      "duration": 0.098,
      "velocity": 85,
      "chip": "ym2612"
    },
    {
      "channel": 1,
      "note": 88,
      "start": 32.6713,
      "duration": 0.1494,
      "velocity": 102,
      "chip": "ym2612"
    },
    {
      "channel": 2,
      "note": 83,
      "start": 32.6721,
      "duration": 0.0961,
      "velocity": 97,
      "chip": "ym2612"
    },
    {
      "channel": 3,
      "note": 59,
      "start": 32.6731,
      "duration": 0.0954,
      "velocity": 85,
      "chip": "ym2612"
    },
    {
      "channel": 5,
      "note": 32,
      "start": 32.674,
      "duration": 0.1436,
      "velocity": 114,
      "chip": "ym2612"
    },
    {
      "channel": 1,
      "note": 86,
      "start": 32.8213,
      "duration": 0.4666,
      "velocity": 99,
      "chip": "ym2612"
    },
    {
      "channel": 2,
      "note": 83,
      "start": 32.8222,
      "duration": 0.467,
      "velocity": 94,
      "chip": "ym2612"
    },
    {
      "channel": 3,
      "note": 59,
      "start": 32.8229,
      "duration": 0.1125,
      "velocity": 85,
      "chip": "ym2612"
    },
    {
      "channel": 5,
      "note": 32,
      "start": 32.8237,
      "duration": 0.1605,
      "velocity": 114,
      "chip": "ym2612"
    },
    {
      "channel": 0,
      "note": 88,
      "start": 32.9875,
      "duration": 0.1473,
      "velocity": 100,
      "chip": "ym2612"
    },
    {
      "channel": 3,
      "note": 59,
      "start": 32.9892,
      "duration": 0.096,
      "velocity": 85,
      "chip": "ym2612"
    },
    {
      "channel": 5,
      "note": 75,
      "start": 32.9899,
      "duration": 0.2946,
      "velocity": 120,
      "chip": "ym2612"
    },
    {
      "channel": 0,
      "note": 90,
      "start": 33.1355,
      "duration": 1.3151,
      "velocity": 100,
      "chip": "ym2612"
    },
    {
      "channel": 3,
      "note": 59,
      "start": 33.1372,
      "duration": 0.098,
      "velocity": 85,
      "chip": "ym2612"
    },
    {
      "channel": 1,
      "note": 71,
      "start": 33.2885,
      "duration": 0.0958,
      "velocity": 99,
      "chip": "ym2612"
    },
    {
      "channel": 2,
      "note": 66,
      "start": 33.2898,
      "duration": 0.0949,
      "velocity": 94,
      "chip": "ym2612"
    },
    {
      "channel": 3,
      "note": 59,
      "start": 33.2908,
      "duration": 0.0942,
      "velocity": 85,
      "chip": "ym2612"
    },
    {
      "channel": 5,
      "note": 32,
      "start": 33.2917,
      "duration": 0.1425,
      "velocity": 114,
      "chip": "ym2612"
    },
    {
      "channel": 1,
      "note": 71,
      "start": 33.438,
      "duration": 0.1665,
      "velocity": 102,
      "chip": "ym2612"
    },
    {
      "channel": 2,
      "note": 66,
      "start": 33.4388,
      "duration": 0.167,
      "velocity": 97,
      "chip": "ym2612"
    },
    {
      "channel": 3,
      "note": 59,
      "start": 33.4395,
      "duration": 0.1125,
      "velocity": 85,
      "chip": "ym2612"
    },
    {
      "channel": 5,
      "note": 32,
      "start": 33.4403,
      "duration": 0.1606,
      "velocity": 114,
      "chip": "ym2612"
    },
    {
      "channel": 1,
      "note": 88,
      "start": 33.6051,
      "duration": 0.1485,
      "velocity": 102,
      "chip": "ym2612"
    },
    {
      "channel": 2,
      "note": 83,
      "start": 33.6064,
      "duration": 0.1474,
      "velocity": 97,
      "chip": "ym2612"
    },
    {
      "channel": 3,
      "note": 59,
      "start": 33.6071,
      "duration": 0.0948,
      "velocity": 85,
      "chip": "ym2612"
    },
    {
      "channel": 5,
      "note": 75,
      "start": 33.6079,
      "duration": 0.1426,
      "velocity": 120,
      "chip": "ym2612"
    },
    {
      "channel": 3,
      "note": 59,
      "start": 33.7548,
      "duration": 0.0964,
      "velocity": 85,
      "chip": "ym2612"
    },
    {
      "channel": 5,
      "note": 32,
      "start": 33.7557,
      "duration": 0.1965,
      "velocity": 114,
      "chip": "ym2612"
    },
    {
      "channel": 1,
      "note": 88,
      "start": 33.9026,
      "duration": 0.1514,
      "velocity": 102,
      "chip": "ym2612"
    },
    {
      "channel": 2,
      "note": 83,
      "start": 33.9034,
      "duration": 0.098,
      "velocity": 97,
      "chip": "ym2612"
    },
    {
      "channel": 3,
      "note": 59,
      "start": 33.9045,
      "duration": 0.0973,
      "velocity": 85,
      "chip": "ym2612"
    },
    {
      "channel": 1,
      "note": 86,
      "start": 34.0546,
      "duration": 0.4673,
      "velocity": 99,
      "chip": "ym2612"
    },
    {
      "channel": 2,
      "note": 83,
      "start": 34.0555,
      "duration": 0.4677,
      "velocity": 94,
      "chip": "ym2612"
    },
    {
      "channel": 3,
      "note": 59,
      "start": 34.0562,
      "duration": 0.1125,
      "velocity": 85,
      "chip": "ym2612"
    },
    {
      "channel": 5,
      "note": 32,
      "start": 34.0571,
      "duration": 0.1605,
      "velocity": 114,
      "chip": "ym2612"
    },
    {
      "channel": 3,
      "note": 59,
      "start": 34.2222,
      "duration": 0.0964,
      "velocity": 85,
      "chip": "ym2612"
    },
    {
      "channel": 5,
      "note": 75,
      "start": 34.2229,
      "duration": 0.295,
      "velocity": 120,
      "chip": "ym2612"
    },
    {
      "channel": 3,
      "note": 59,
      "start": 34.3702,
      "duration": 0.0981,
      "velocity": 85,
      "chip": "ym2612"
    },
    {
      "channel": 0,
      "note": 83,
      "start": 34.5213,
      "duration": 0.0793,
      "velocity": 100,
      "chip": "ym2612"
    },
    {
      "channel": 1,
      "note": 71,
      "start": 34.5227,
      "duration": 0.0949,
      "velocity": 99,
      "chip": "ym2612"
    },
    {
      "channel": 2,
      "note": 66,
      "start": 34.5239,
      "duration": 0.094,
      "velocity": 94,
      "chip": "ym2612"
    },
    {
      "channel": 3,
      "note": 59,
      "start": 34.5249,
      "duration": 0.0934,
      "velocity": 85,
      "chip": "ym2612"
    },
    {
      "channel": 5,
      "note": 32,
      "start": 34.5258,
      "duration": 0.2096,
      "velocity": 114,
      "chip": "ym2612"
    },
    {
      "channel": 0,
      "note": 83,
      "start": 34.6012,
      "duration": 0.067,
      "velocity": 100,
      "chip": "ym2612"
    },
    {
      "channel": 0,
      "note": 83,
      "start": 34.6688,
      "duration": 0.0817,
      "velocity": 100,
      "chip": "ym2612"
    },
    {
      "channel": 1,
      "note": 71,
      "start": 34.6698,
      "duration": 0.1679,
      "velocity": 99,
      "chip": "ym2612"
    },
    {
      "channel": 2,
      "note": 66,
      "start": 34.6707,
      "duration": 0.1678,
      "velocity": 94,
      "chip": "ym2612"
    },
    {
      "channel": 3,
      "note": 59,
      "start": 34.6714,
      "duration": 0.1139,
      "velocity": 85,
      "chip": "ym2612"
    },
    {
      "channel": 0,
      "note": 83,
      "start": 34.7512,
      "duration": 0.0856,
      "velocity": 100,
      "chip": "ym2612"
    },
    {
      "channel": 0,
      "note": 85,
      "start": 34.8375,
      "duration": 0.0631,
      "velocity": 100,
      "chip": "ym2612"
    },
    {
      "channel": 1,
      "note": 78,
      "start": 34.8383,
      "duration": 0.1474,
      "velocity": 99,
      "chip": "ym2612"
    },
    {
      "channel": 2,
      "note": 74,
      "start": 34.8391,
      "duration": 0.1473,
      "velocity": 94,
      "chip": "ym2612"
    },
    {
      "channel": 3,
      "note": 59,
      "start": 34.8398,
      "duration": 0.0954,
      "velocity": 85,
      "chip": "ym2612"
    },
    {
      "channel": 5,
      "note": 75,
      "start": 34.8406,
      "duration": 0.2937,
      "velocity": 120,
      "chip": "ym2612"
    },
    {
      "channel": 0,
      "note": 85,
      "start": 34.9012,
      "duration": 0.0837,
      "velocity": 100,
      "chip": "ym2612"
    },
    {
      "channel": 0,
      "note": 85,
      "start": 34.9855,
      "duration": 0.0817,
      "velocity": 100,
      "chip": "ym2612"
    },
    {
      "channel": 1,
      "note": 71,
      "start": 34.9863,
      "duration": 0.1513,
      "velocity": 99,
      "chip": "ym2612"
    },
    {
      "channel": 2,
      "note": 66,
      "start": 34.9871,
      "duration": 0.1514,
      "velocity": 94,
      "chip": "ym2612"
    },
    {
      "channel": 3,
      "note": 59,
      "start": 34.9878,
      "duration": 0.0973,
      "velocity": 85,
      "chip": "ym2612"
    },
    {
      "channel": 0,
      "note": 85,
      "start": 35.0679,
      "duration": 0.069,
      "velocity": 100,
      "chip": "ym2612"
    },
    {
      "channel": 0,
      "note": 86,
      "start": 35.1375,
      "duration": 0.0797,
      "velocity": 100,
      "chip": "ym2612"
    },
    {
      "channel": 1,
      "note": 76,
      "start": 35.1383,
      "duration": 0.1494,
      "velocity": 99,
      "chip": "ym2612"
    },
    {
      "channel": 2,
      "note": 73,
      "start": 35.1391,
      "duration": 0.1494,
      "velocity": 94,
      "chip": "ym2612"
    },
    {
      "channel": 3,
      "note": 59,
      "start": 35.1401,
      "duration": 0.0951,
      "velocity": 85,
      "chip": "ym2612"
    },
    {
      "channel": 5,
      "note": 32,
      "start": 35.141,
      "duration": 0.1433,
      "velocity": 114,
      "chip": "ym2612"
    },
    {
      "channel": 0,
      "note": 86,
      "start": 35.2179,
      "duration": 0.069,
      "velocity": 100,
      "chip": "ym2612"
    },
    {
      "channel": 0,
      "note": 86,
      "start": 35.2875,
      "duration": 0.0797,
      "velocity": 100,
      "chip": "ym2612"
    },
    {
      "channel": 1,
      "note": 71,
      "start": 35.2883,
      "duration": 0.166,
      "velocity": 99,
      "chip": "ym2612"
    },
    {
      "channel": 2,
      "note": 66,
      "start": 35.2891,
      "duration": 0.166,
      "velocity": 94,
      "chip": "ym2612"
    },
    {
      "channel": 3,
      "note": 59,
      "start": 35.2898,
      "duration": 0.1121,
      "velocity": 85,
      "chip": "ym2612"
    },
    {
      "channel": 5,
      "note": 32,
      "start": 35.2907,
      "duration": 0.1602,
      "velocity": 114,
      "chip": "ym2612"
    },
    {
      "channel": 0,
      "note": 86,
      "start": 35.3679,
      "duration": 0.0856,
      "velocity": 100,
      "chip": "ym2612"
    },
    {
      "channel": 0,
      "note": 93,
      "start": 35.4542,
      "duration": 0.0631,
      "velocity": 100,
      "chip": "ym2612"
    },
    {
      "channel": 1,
      "note": 74,
      "start": 35.455,
      "duration": 0.1474,
      "velocity": 99,
      "chip": "ym2612"
    },
    {
      "channel": 2,
      "note": 71,
      "start": 35.4558,
      "duration": 0.1475,
      "velocity": 94,
      "chip": "ym2612"
    },
    {
      "channel": 3,
      "note": 59,
      "start": 35.4565,
      "duration": 0.0954,
      "velocity": 85,
      "chip": "ym2612"
    },
    {
      "channel": 5,
      "note": 75,
      "start": 35.4573,
      "duration": 0.2938,
      "velocity": 120,
      "chip": "ym2612"
    },
    {
      "channel": 0,
      "note": 93,
      "start": 35.5179,
      "duration": 0.0836,
      "velocity": 100,
      "chip": "ym2612"
    },
    {
      "channel": 0,
      "note": 93,
      "start": 35.6022,
      "duration": 0.0817,
      "velocity": 100,
      "chip": "ym2612"
    },
    {
      "channel": 1,
      "note": 71,
      "start": 35.6031,
      "duration": 0.2478,
      "velocity": 99,
      "chip": "ym2612"
    },
    {
      "channel": 2,
      "note": 68,
      "start": 35.604,
      "duration": 0.2473,
      "velocity": 94,
      "chip": "ym2612"
    },
    {
      "channel": 3,
      "note": 59,
      "start": 35.6047,
      "duration": 0.0971,
      "velocity": 85,
      "chip": "ym2612"
    },
    {
      "channel": 0,
      "note": 93,
      "start": 35.6846,
      "duration": 0.0692,
      "velocity": 100,
      "chip": "ym2612"
    },
    {
      "channel": 0,
      "note": 95,
      "start": 35.7545,
      "duration": 0.0795,
      "velocity": 100,
      "chip": "ym2612"
    },
    {
      "channel": 3,
      "note": 64,
      "start": 35.7564,
      "duration": 0.0952,
      "velocity": 85,
      "chip": "ym2612"
    },
    {
      "channel": 5,
      "note": 32,
      "start": 35.7573,
      "duration": 0.1437,
      "velocity": 114,
      "chip": "ym2612"
    },
    {
      "channel": 0,
      "note": 95,
      "start": 35.8346,
      "duration": 0.0689,
      "velocity": 100,
      "chip": "ym2612"
    },
    {
      "channel": 0,
      "note": 95,
      "start": 35.9042,
      "duration": 0.0797,
      "velocity": 100,
      "chip": "ym2612"
    },
    {
      "channel": 1,
      "note": 71,
      "start": 35.9051,
      "duration": 0.1659,
      "velocity": 99,
      "chip": "ym2612"
    },
    {
      "channel": 2,
      "note": 68,
      "start": 35.906,
      "duration": 0.1659,
      "velocity": 94,
      "chip": "ym2612"
    },
    {
      "channel": 3,
      "note": 64,
      "start": 35.9068,
      "duration": 0.1118,
      "velocity": 85,
      "chip": "ym2612"
    },
    {
      "channel": 5,
      "note": 32,
      "start": 35.9076,
      "duration": 0.16,
      "velocity": 114,
      "chip": "ym2612"
    },
    {
      "channel": 0,
      "note": 95,
      "start": 35.9846,
      "duration": 0.0856,
      "velocity": 100,
      "chip": "ym2612"
    },
    {
      "channel": 0,
      "note": 93,
      "start": 36.0709,
      "duration": 0.0631,
      "velocity": 100,
      "chip": "ym2612"
    },
    {
      "channel": 1,
      "note": 80,
      "start": 36.0717,
      "duration": 0.1489,
      "velocity": 99,
      "chip": "ym2612"
    },
    {
      "channel": 2,
      "note": 76,
      "start": 36.0725,
      "duration": 0.1489,
      "velocity": 94,
      "chip": "ym2612"
    },
    {
      "channel": 3,
      "note": 64,
      "start": 36.0732,
      "duration": 0.0954,
      "velocity": 85,
      "chip": "ym2612"
    },
    {
      "channel": 5,
      "note": 75,
      "start": 36.0739,
      "duration": 0.1433,
      "velocity": 120,
      "chip": "ym2612"
    },
    {
      "channel": 0,
      "note": 93,
      "start": 36.1346,
      "duration": 0.0852,
      "velocity": 100,
      "chip": "ym2612"
    },
    {
      "channel": 0,
      "note": 93,
      "start": 36.2205,
      "duration": 0.0801,
      "velocity": 100,
      "chip": "ym2612"
    },
    {
      "channel": 1,
      "note": 71,
      "start": 36.2212,
      "duration": 0.1478,
      "velocity": 99,
      "chip": "ym2612"
    },
    {
      "channel": 2,
      "note": 68,
      "start": 36.222,
      "duration": 0.1478,
      "velocity": 94,
      "chip": "ym2612"
    },
    {
      "channel": 3,
      "note": 64,
      "start": 36.2228,
      "duration": 0.0957,
      "velocity": 85,
      "chip": "ym2612"
    },
    {
      "channel": 5,
      "note": 32,
      "start": 36.2236,
      "duration": 0.1951,
      "velocity": 114,
      "chip": "ym2612"
    },
    {
      "channel": 0,
      "note": 93,
      "start": 36.3013,
      "duration": 0.0669,
      "velocity": 100,
      "chip": "ym2612"
    },
    {
      "channel": 0,
      "note": 92,
      "start": 36.3688,
      "duration": 0.0817,
      "velocity": 100,
      "chip": "ym2612"
    },
    {
      "channel": 1,
      "note": 78,
      "start": 36.3697,
      "duration": 0.1513,
      "velocity": 99,
      "chip": "ym2612"
    },
    {
      "channel": 2,
      "note": 74,
      "start": 36.3705,
      "duration": 0.1513,
      "velocity": 94,
      "chip": "ym2612"
    },
    {
      "channel": 3,
      "note": 64,
      "start": 36.3712,
      "duration": 0.0973,
      "velocity": 85,
      "chip": "ym2612"
    },
    {
      "channel": 0,
      "note": 92,
      "start": 36.4512,
      "duration": 0.069,
      "velocity": 100,
      "chip": "ym2612"
    },
    {
      "channel": 0,
      "note": 92,
      "start": 36.5209,
      "duration": 0.0797,
      "velocity": 100,
      "chip": "ym2612"
    },
    {
      "channel": 1,
      "note": 71,
      "start": 36.5216,
      "duration": 0.1661,
      "velocity": 99,
      "chip": "ym2612"
    },
    {
      "channel": 2,
      "note": 68,
      "start": 36.5225,
      "duration": 0.1661,
      "velocity": 94,
      "chip": "ym2612"
    },
    {
      "channel": 3,
      "note": 64,
      "start": 36.5232,
      "duration": 0.1121,
      "velocity": 85,
      "chip": "ym2612"
    },
    {
      "channel": 5,
      "note": 32,
      "start": 36.5241,
      "duration": 0.1602,
      "velocity": 114,
      "chip": "ym2612"
    },
    {
      "channel": 0,
      "note": 92,
      "start": 36.6012,
      "duration": 0.0857,
      "velocity": 100,
      "chip": "ym2612"
    },
    {
      "channel": 0,
      "note": 88,
      "start": 36.6876,
      "duration": 0.1473,
      "velocity": 100,
      "chip": "ym2612"
    },
    {
      "channel": 1,
      "note": 76,
      "start": 36.6884,
      "duration": 0.1473,
      "velocity": 99,
      "chip": "ym2612"
    },
    {
      "channel": 2,
      "note": 73,
      "start": 36.6892,
      "duration": 0.1475,
      "velocity": 94,
      "chip": "ym2612"
    },
    {
      "channel": 3,
      "note": 64,
      "start": 36.6899,
      "duration": 0.0953,
      "velocity": 85,
      "chip": "ym2612"
    },
    {
      "channel": 5,
      "note": 75,
      "start": 36.6907,
      "duration": 0.2939,
      "velocity": 120,
      "chip": "ym2612"
    },
    {
      "channel": 0,
      "note": 90,
      "start": 36.8355,
      "duration": 0.9984,
      "velocity": 100,
      "chip": "ym2612"
    },
    {
      "channel": 1,
      "note": 71,
      "start": 36.8365,
      "duration": 0.2479,
      "velocity": 99,
      "chip": "ym2612"
    },
    {
      "channel": 2,
      "note": 66,
      "start": 36.8373,
      "duration": 0.2473,
      "velocity": 94,
      "chip": "ym2612"
    },
    {
      "channel": 3,
      "note": 64,
      "start": 36.838,
      "duration": 0.0971,
      "velocity": 85,
      "chip": "ym2612"
    },
    {
      "channel": 3,
      "note": 59,
      "start": 36.9892,
      "duration": 0.0958,
      "velocity": 85,
      "chip": "ym2612"
    },
    {
      "channel": 5,
      "note": 32,
      "start": 36.99,
      "duration": 0.2122,
      "velocity": 114,
      "chip": "ym2612"
    },
    {
      "channel": 1,
      "note": 71,
      "start": 37.1359,
      "duration": 0.1685,
      "velocity": 102,
      "chip": "ym2612"
    },
    {
      "channel": 2,
      "note": 66,
      "start": 37.1368,
      "duration": 0.169,
      "velocity": 97,
      "chip": "ym2612"
    },
    {
      "channel": 3,
      "note": 59,
      "start": 37.1375,
      "duration": 0.1145,
      "velocity": 85,
      "chip": "ym2612"
    },
    {
      "channel": 1,
      "note": 88,
      "start": 37.3051,
      "duration": 0.1469,
      "velocity": 102,
      "chip": "ym2612"
    },
    {
      "channel": 2,
      "note": 83,
      "start": 37.3064,
      "duration": 0.1459,
      "velocity": 97,
      "chip": "ym2612"
    },
    {
      "channel": 3,
      "note": 59,
      "start": 37.3071,
      "duration": 0.0948,
      "velocity": 85,
      "chip": "ym2612"
    },
    {
      "channel": 5,
      "note": 75,
      "start": 37.3079,
      "duration": 0.293,
      "velocity": 120,
      "chip": "ym2612"
    },
    {
      "channel": 3,
      "note": 59,
      "start": 37.4532,
      "duration": 0.098,
      "velocity": 85,
      "chip": "ym2612"
    },
    {
      "channel": 1,
      "note": 88,
      "start": 37.6046,
      "duration": 0.1494,
      "velocity": 102,
      "chip": "ym2612"
    },
    {
      "channel": 2,
      "note": 83,
      "start": 37.6054,
      "duration": 0.0961,
      "velocity": 97,
      "chip": "ym2612"
    },
    {
      "channel": 3,
      "note": 59,
      "start": 37.6064,
      "duration": 0.0954,
      "velocity": 85,
      "chip": "ym2612"
    },
    {
      "channel": 5,
      "note": 32,
      "start": 37.6073,
      "duration": 0.1436,
      "velocity": 114,
      "chip": "ym2612"
    },
    {
      "channel": 1,
      "note": 86,
      "start": 37.7546,
      "duration": 0.4665,
      "velocity": 99,
      "chip": "ym2612"
    },
    {
      "channel": 2,
      "note": 83,
      "start": 37.7555,
      "duration": 0.4669,
      "velocity": 94,
      "chip": "ym2612"
    },
    {
      "channel": 3,
      "note": 59,
      "start": 37.7562,
      "duration": 0.1121,
      "velocity": 85,
      "chip": "ym2612"
    },
    {
      "channel": 5,
      "note": 32,
      "start": 37.7571,
      "duration": 0.1605,
      "velocity": 114,
      "chip": "ym2612"
    },
    {
      "channel": 0,
      "note": 88,
      "start": 37.9209,
      "duration": 0.1473,
      "velocity": 100,
      "chip": "ym2612"
    },
    {
      "channel": 3,
      "note": 59,
      "start": 37.9225,
      "duration": 0.096,
      "velocity": 85,
      "chip": "ym2612"
    },
    {
      "channel": 5,
      "note": 75,
      "start": 37.9232,
      "duration": 0.2945,
      "velocity": 120,
      "chip": "ym2612"
    },
    {
      "channel": 0,
      "note": 90,
      "start": 38.0688,
      "duration": 1.3151,
      "velocity": 100,
      "chip": "ym2612"
    },
    {
      "channel": 3,
      "note": 59,
      "start": 38.0705,
      "duration": 0.098,
      "velocity": 85,
      "chip": "ym2612"
    },
    {
      "channel": 1,
      "note": 71,
      "start": 38.2218,
      "duration": 0.0959,
      "velocity": 99,
      "chip": "ym2612"
    },
    {
      "channel": 2,
      "note": 66,
      "start": 38.223,
      "duration": 0.095,
      "velocity": 94,
      "chip": "ym2612"
    },
    {
      "channel": 3,
      "note": 59,
      "start": 38.2241,
      "duration": 0.0943,
      "velocity": 85,
      "chip": "ym2612"
    },
    {
      "channel": 5,
      "note": 32,
      "start": 38.2249,
      "duration": 0.2106,
      "velocity": 114,
      "chip": "ym2612"
    },
    {
      "channel": 1,
      "note": 71,
      "start": 38.3859,
      "duration": 0.1519,
      "velocity": 102,
      "chip": "ym2612"
    },
    {
      "channel": 2,
      "note": 66,
      "start": 38.3868,
      "duration": 0.1523,
      "velocity": 97,
      "chip": "ym2612"
    },
    {
      "channel": 3,
      "note": 59,
      "start": 38.3875,
      "duration": 0.0978,
      "velocity": 85,
      "chip": "ym2612"
    },
    {
      "channel": 1,
      "note": 88,
      "start": 38.5384,
      "duration": 0.1488,
      "velocity": 102,
      "chip": "ym2612"
    },
    {
      "channel": 2,
      "note": 83,
      "start": 38.5398,
      "duration": 0.1478,
      "velocity": 97,
      "chip": "ym2612"
    },
    {
      "channel": 3,
      "note": 59,
      "start": 38.5405,
      "duration": 0.0948,
      "velocity": 85,
      "chip": "ym2612"
    },
    {
      "channel": 5,
      "note": 75,
      "start": 38.5412,
      "duration": 0.143,
      "velocity": 120,
      "chip": "ym2612"
    },
    {
      "channel": 3,
      "note": 59,
      "start": 38.6885,
      "duration": 0.0961,
      "velocity": 85,
      "chip": "ym2612"
    },
    {
      "channel": 5,
      "note": 32,
      "start": 38.6894,
      "duration": 0.1961,
      "velocity": 114,
      "chip": "ym2612"
    },
    {
      "channel": 1,
      "note": 88,
      "start": 38.8359,
      "duration": 0.318,
      "velocity": 102,
      "chip": "ym2612"
    },
    {
      "channel": 2,
      "note": 83,
      "start": 38.8368,
      "duration": 0.3179,
      "velocity": 102,
      "chip": "ym2612"
    },
    {
      "channel": 3,
      "note": 59,
      "start": 38.8376,
      "duration": 0.0976,
      "velocity": 85,
      "chip": "ym2612"
    },
    {
      "channel": 3,
      "note": 59,
      "start": 39.0055,
      "duration": 0.15,
      "velocity": 85,
      "chip": "ym2612"
    },
    {
      "channel": 5,
      "note": 32,
      "start": 39.0063,
      "duration": 0.1446,
      "velocity": 114,
      "chip": "ym2612"
    },
    {
      "channel": 2,
      "note": 59,
      "start": 39.1554,
      "duration": 0.1482,
      "velocity": 102,
      "chip": "ym2612"
    },
    {
      "channel": 3,
      "note": 58,
      "start": 39.1561,
      "duration": 0.1483,
      "velocity": 85,
      "chip": "ym2612"
    },
    {
      "channel": 5,
      "note": 75,
      "start": 39.1569,
      "duration": 0.1437,
      "velocity": 120,
      "chip": "ym2612"
    },
    {
      "channel": 2,
      "note": 57,
      "start": 39.3043,
      "duration": 1.3804,
      "velocity": 102,
      "chip": "ym2612"
    },
    {
      "channel": 3,
      "note": 57,
      "start": 39.305,
      "duration": 1.38,
      "velocity": 85,
      "chip": "ym2612"
    },
    {
      "channel": 5,
      "note": 75,
      "start": 39.3058,
      "duration": 0.1447,
      "velocity": 120,
      "chip": "ym2612"
    },
    {
      "channel": 5,
      "note": 48,
      "start": 39.4601,
      "duration": 0.2582,
      "velocity": 127,
      "chip": "ym2612"
    },
    {
      "channel": 0,
      "note": 74,
      "start": 39.7679,
      "duration": 0.1494,
      "velocity": 112,
      "chip": "ym2612"
    },
    {
      "channel": 1,
      "note": 69,
      "start": 39.7687,
      "duration": 0.1489,
      "velocity": 112,
      "chip": "ym2612"
    },
    {
      "channel": 0,
      "note": 74,
      "start": 40.0679,
      "duration": 0.166,
      "velocity": 112,
      "chip": "ym2612"
    },
    {
      "channel": 1,
      "note": 69,
      "start": 40.0687,
      "duration": 0.0989,
      "velocity": 112,
      "chip": "ym2612"
    },
    {
      "channel": 0,
      "note": 73,
      "start": 40.2346,
      "duration": 0.1494,
      "velocity": 112,
      "chip": "ym2612"
    },
    {
      "channel": 1,
      "note": 69,
      "start": 40.2354,
      "duration": 0.1489,
      "velocity": 112,
      "chip": "ym2612"
    },
    {
      "channel": 0,
      "note": 74,
      "start": 40.5346,
      "duration": 0.1495,
      "velocity": 112,
      "chip": "ym2612"
    },
    {
      "channel": 1,
      "note": 69,
      "start": 40.5354,
      "duration": 0.149,
      "velocity": 112,
      "chip": "ym2612"
    },
    {
      "channel": 0,
      "note": 74,
      "start": 40.8512,
      "duration": 0.1494,
      "velocity": 112,
      "chip": "ym2612"
    },
    {
      "channel": 1,
      "note": 69,
      "start": 40.852,
      "duration": 0.1489,
      "velocity": 112,
      "chip": "ym2612"
    },
    {
      "channel": 0,
      "note": 73,
      "start": 41.1512,
      "duration": 0.7688,
      "velocity": 112,
      "chip": "ym2612"
    },
    {
      "channel": 1,
      "note": 69,
      "start": 41.152,
      "duration": 0.7683,
      "velocity": 112,
      "chip": "ym2612"
    },
    {
      "channel": 2,
      "note": 57,
      "start": 41.4716,
      "duration": 0.1489,
      "velocity": 97,
      "chip": "ym2612"
    },
    {
      "channel": 3,
      "note": 57,
      "start": 41.4724,
      "duration": 0.149,
      "velocity": 85,
      "chip": "ym2612"
    },
    {
      "channel": 5,
      "note": 75,
      "start": 41.4732,
      "duration": 0.144,
      "velocity": 120,
      "chip": "ym2612"
    },
    {
      "channel": 2,
      "note": 56,
      "start": 41.6212,
      "duration": 0.1494,
      "velocity": 97,
      "chip": "ym2612"
    },
    {
      "channel": 3,
      "note": 56,
      "start": 41.622,
      "duration": 0.1495,
      "velocity": 85,
      "chip": "ym2612"
    },
    {
      "channel": 5,
      "note": 75,
      "start": 41.6227,
      "duration": 0.1445,
      "velocity": 120,
      "chip": "ym2612"
    },
    {
      "channel": 2,
      "note": 54,
      "start": 41.7712,
      "duration": 0.7643,
      "velocity": 97,
      "chip": "ym2612"
    },
    {
      "channel": 3,
      "note": 54,
      "start": 41.772,
      "duration": 0.7639,
      "velocity": 85,
      "chip": "ym2612"
    },
    {
      "channel": 5,
      "note": 75,
      "start": 41.7727,
      "duration": 0.1445,
      "velocity": 120,
      "chip": "ym2612"
    },
    {
      "channel": 5,
      "note": 48,
      "start": 41.922,
      "duration": 0.263,
      "velocity": 127,
      "chip": "ym2612"
    },
    {
      "channel": 0,
      "note": 74,
      "start": 42.2346,
      "duration": 0.1494,
      "velocity": 112,
      "chip": "ym2612"
    },
    {
      "channel": 1,
      "note": 67,
      "start": 42.2354,
      "duration": 0.1489,
      "velocity": 112,
      "chip": "ym2612"
    },
    {
      "channel": 0,
      "note": 74,
      "start": 42.5346,
      "duration": 0.166,
      "velocity": 112,
      "chip": "ym2612"
    },
    {
      "channel": 1,
      "note": 67,
      "start": 42.5354,
      "duration": 0.1155,
      "velocity": 112,
      "chip": "ym2612"
    },
    {
      "channel": 0,
      "note": 73,
      "start": 42.7012,
      "duration": 0.1494,
      "velocity": 112,
      "chip": "ym2612"
    },
    {
      "channel": 1,
      "note": 67,
      "start": 42.702,
      "duration": 0.1489,
      "velocity": 112,
      "chip": "ym2612"
    },
    {
      "channel": 0,
      "note": 74,
      "start": 43.0012,
      "duration": 0.1519,
      "velocity": 112,
      "chip": "ym2612"
    },
    {
      "channel": 1,
      "note": 67,
      "start": 43.002,
      "duration": 0.1514,
      "velocity": 112,
      "chip": "ym2612"
    },
    {
      "channel": 5,
      "note": 48,
      "start": 43.1545,
      "duration": 0.2637,
      "velocity": 127,
      "chip": "ym2612"
    },
    {
      "channel": 0,
      "note": 74,
      "start": 43.3179,
      "duration": 0.1494,
      "velocity": 112,
      "chip": "ym2612"
    },
    {
      "channel": 1,
      "note": 67,
      "start": 43.3187,
      "duration": 0.1489,
      "velocity": 112,
      "chip": "ym2612"
    },
    {
      "channel": 0,
      "note": 73,
      "start": 43.6179,
      "duration": 0.7714,
      "velocity": 100,
      "chip": "ym2612"
    },
    {
      "channel": 1,
      "note": 67,
      "start": 43.6187,
      "duration": 0.7735,
      "velocity": 102,
      "chip": "ym2612"
    },
    {
      "channel": 5,
      "note": 75,
      "start": 43.7714,
      "duration": 0.0791,
      "velocity": 120,
      "chip": "ym2612"
    },
    {
      "channel": 5,
      "note": 75,
      "start": 43.8547,
      "duration": 0.0791,
      "velocity": 120,
      "chip": "ym2612"
    },
    {
      "channel": 2,
      "note": 54,
      "start": 43.9379,
      "duration": 0.1494,
      "velocity": 97,
      "chip": "ym2612"
    },
    {
      "channel": 3,
      "note": 54,
      "start": 43.9386,
      "duration": 0.1494,
      "velocity": 85,
      "chip": "ym2612"
    },
    {
      "channel": 5,
      "note": 75,
      "start": 43.9394,
      "duration": 0.0611,
      "velocity": 120,
      "chip": "ym2612"
    },
    {
      "channel": 5,
      "note": 75,
      "start": 44.0052,
      "duration": 0.0786,
      "velocity": 120,
      "chip": "ym2612"
    },
    {
      "channel": 2,
      "note": 53,
      "start": 44.0879,
      "duration": 0.1494,
      "velocity": 97,
      "chip": "ym2612"
    },
    {
      "channel": 3,
      "note": 53,
      "start": 44.0886,
      "duration": 0.1494,
      "velocity": 85,
      "chip": "ym2612"
    },
    {
      "channel": 5,
      "note": 75,
      "start": 44.0894,
      "duration": 0.0611,
      "velocity": 120,
      "chip": "ym2612"
    },
    {
      "channel": 5,
      "note": 75,
      "start": 44.1552,
      "duration": 0.0786,
      "velocity": 120,
      "chip": "ym2612"
    },
    {
      "channel": 2,
      "note": 52,
      "start": 44.2379,
      "duration": 0.0826,
      "velocity": 97,
      "chip": "ym2612"
    },
    {
      "channel": 3,
      "note": 52,
      "start": 44.2386,
      "duration": 0.0962,
      "velocity": 85,
      "chip": "ym2612"
    },
    {
      "channel": 5,
      "note": 75,
      "start": 44.2394,
      "duration": 0.0778,
      "velocity": 120,
      "chip": "ym2612"
    },
    {
      "channel": 5,
      "note": 75,
      "start": 44.3218,
      "duration": 0.0621,
      "velocity": 120,
      "chip": "ym2612"
    },
    {
      "channel": 0,
      "note": 83,
      "start": 44.39,
      "duration": 0.1616,
      "velocity": 100,
      "chip": "ym2612"
    },
    {
      "channel": 1,
      "note": 62,
      "start": 44.3928,
      "duration": 0.6111,
      "velocity": 102,
      "chip": "ym2612"
    },
    {
      "channel": 2,
      "note": 67,
      "start": 44.3957,
      "duration": 0.1566,
      "velocity": 112,
      "chip": "ym2612"
    },
    {
      "channel": 3,
      "note": 64,
      "start": 44.3966,
      "duration": 0.1053,
      "velocity": 85,
      "chip": "ym2612"
    },
    {
      "channel": 5,
      "note": 32,
      "start": 44.3974,
      "duration": 0.2043,
      "velocity": 114,
      "chip": "ym2612"
    },
    {
      "channel": 3,
      "note": 64,
      "start": 44.5532,
      "duration": 0.098,
      "velocity": 85,
      "chip": "ym2612"
    },
    {
      "channel": 0,
      "note": 83,
      "start": 44.7042,
      "duration": 0.466,
      "velocity": 100,
      "chip": "ym2612"
    },
    {
      "channel": 2,
      "note": 67,
      "start": 44.7055,
      "duration": 0.466,
      "velocity": 112,
      "chip": "ym2612"
    },
    {
      "channel": 3,
      "note": 64,
      "start": 44.7062,
      "duration": 0.0957,
      "velocity": 85,
      "chip": "ym2612"
    },
    {
      "channel": 5,
      "note": 75,
      "start": 44.7069,
      "duration": 0.294,
      "velocity": 120,
      "chip": "ym2612"
    },
    {
      "channel": 3,
      "note": 64,
      "start": 44.8534,
      "duration": 0.0985,
      "velocity": 85,
      "chip": "ym2612"
    },
    {
      "channel": 1,
      "note": 61,
      "start": 45.0045,
      "duration": 0.6161,
      "velocity": 102,
      "chip": "ym2612"
    },
    {
      "channel": 3,
      "note": 64,
      "start": 45.0057,
      "duration": 0.1129,
      "velocity": 85,
      "chip": "ym2612"
    },
    {
      "channel": 5,
      "note": 32,
      "start": 45.0066,
      "duration": 0.161,
      "velocity": 114,
      "chip": "ym2612"
    },
    {
      "channel": 0,
      "note": 81,
      "start": 45.1709,
      "duration": 0.1493,
      "velocity": 100,
      "chip": "ym2612"
    },
    {
      "channel": 2,
      "note": 66,
      "start": 45.1721,
      "duration": 0.1494,
      "velocity": 112,
      "chip": "ym2612"
    },
    {
      "channel": 3,
      "note": 64,
      "start": 45.1728,
      "duration": 0.0957,
      "velocity": 85,
      "chip": "ym2612"
    },
    {
      "channel": 5,
      "note": 32,
      "start": 45.1737,
      "duration": 0.1439,
      "velocity": 114,
      "chip": "ym2612"
    },
    {
      "channel": 0,
      "note": 83,
      "start": 45.3209,
      "duration": 0.1475,
      "velocity": 100,
      "chip": "ym2612"
    },
    {
      "channel": 2,
      "note": 67,
      "start": 45.3222,
      "duration": 0.1475,
      "velocity": 112,
      "chip": "ym2612"
    },
    {
      "channel": 3,
      "note": 64,
      "start": 45.3228,
      "duration": 0.0957,
      "velocity": 85,
      "chip": "ym2612"
    },
    {
      "channel": 5,
      "note": 75,
      "start": 45.3236,
      "duration": 0.2941,
      "velocity": 120,
      "chip": "ym2612"
    },
    {
      "channel": 0,
      "note": 86,
      "start": 45.469,
      "duration": 0.3178,
      "velocity": 100,
      "chip": "ym2612"
    },
    {
      "channel": 2,
      "note": 71,
      "start": 45.4703,
      "duration": 0.3178,
      "velocity": 112,
      "chip": "ym2612"
    },
    {
      "channel": 3,
      "note": 64,
      "start": 45.4711,
      "duration": 0.0975,
      "velocity": 85,
      "chip": "ym2612"
    },
    {
      "channel": 1,
      "note": 62,
      "start": 45.6212,
      "duration": 0.616,
      "velocity": 102,
      "chip": "ym2612"
    },
    {
      "channel": 3,
      "note": 64,
      "start": 45.6227,
      "duration": 0.1125,
      "velocity": 85,
      "chip": "ym2612"
    },
    {
      "channel": 5,
      "note": 32,
      "start": 45.6235,
      "duration": 0.1608,
      "velocity": 114,
      "chip": "ym2612"
    },
    {
      "channel": 0,
      "note": 81,
      "start": 45.7875,
      "duration": 0.1493,
      "velocity": 100,
      "chip": "ym2612"
    },
    {
      "channel": 2,
      "note": 66,
      "start": 45.7888,
      "duration": 0.1494,
      "velocity": 112,
      "chip": "ym2612"
    },
    {
      "channel": 3,
      "note": 64,
      "start": 45.7895,
      "duration": 0.0957,
      "velocity": 85,
      "chip": "ym2612"
    },
    {
      "channel": 5,
      "note": 32,
      "start": 45.7903,
      "duration": 0.1439,
      "velocity": 114,
      "chip": "ym2612"
    },
    {
      "channel": 0,
      "note": 83,
      "start": 45.9375,
      "duration": 0.1495,
      "velocity": 100,
      "chip": "ym2612"
    },
    {
      "channel": 2,
      "note": 67,
      "start": 45.9388,
      "duration": 0.1495,
      "velocity": 112,
      "chip": "ym2612"
    },
    {
      "channel": 3,
      "note": 64,
      "start": 45.9395,
      "duration": 0.0957,
      "velocity": 85,
      "chip": "ym2612"
    },
    {
      "channel": 5,
      "note": 75,
      "start": 45.9403,
      "duration": 0.144,
      "velocity": 120,
      "chip": "ym2612"
    },
    {
      "channel": 0,
      "note": 86,
      "start": 46.0877,
      "duration": 0.3158,
      "velocity": 100,
      "chip": "ym2612"
    },
    {
      "channel": 2,
      "note": 71,
      "start": 46.089,
      "duration": 0.3158,
      "velocity": 112,
      "chip": "ym2612"
    },
    {
      "channel": 3,
      "note": 64,
      "start": 46.0897,
      "duration": 0.0955,
      "velocity": 85,
      "chip": "ym2612"
    },
    {
      "channel": 5,
      "note": 32,
      "start": 46.0905,
      "duration": 0.1437,
      "velocity": 114,
      "chip": "ym2612"
    },
    {
      "channel": 1,
      "note": 64,
      "start": 46.2378,
      "duration": 0.6167,
      "velocity": 102,
      "chip": "ym2612"
    },
    {
      "channel": 3,
      "note": 64,
      "start": 46.239,
      "duration": 0.1129,
      "velocity": 85,
      "chip": "ym2612"
    },
    {
      "channel": 5,
      "note": 32,
      "start": 46.2399,
      "duration": 0.161,
      "velocity": 114,
      "chip": "ym2612"
    },
    {
      "channel": 0,
      "note": 81,
      "start": 46.4042,
      "duration": 0.1493,
      "velocity": 100,
      "chip": "ym2612"
    },
    {
      "channel": 2,
      "note": 66,
      "start": 46.4054,
      "duration": 0.1494,
      "velocity": 112,
      "chip": "ym2612"
    },
    {
      "channel": 3,
      "note": 64,
      "start": 46.4062,
      "duration": 0.0957,
      "velocity": 85,
      "chip": "ym2612"
    },
    {
      "channel": 5,
      "note": 32,
      "start": 46.407,
      "duration": 0.1439,
      "velocity": 114,
      "chip": "ym2612"
    },
    {
      "channel": 0,
      "note": 83,
      "start": 46.5542,
      "duration": 0.1474,
      "velocity": 100,
      "chip": "ym2612"
    },
    {
      "channel": 2,
      "note": 67,
      "start": 46.5555,
      "duration": 0.1474,
      "velocity": 112,
      "chip": "ym2612"
    },
    {
      "channel": 3,
      "note": 64,
      "start": 46.5562,
      "duration": 0.0957,
      "velocity": 85,
      "chip": "ym2612"
    },
    {
      "channel": 5,
      "note": 75,
      "start": 46.5569,
      "duration": 0.2941,
      "velocity": 120,
      "chip": "ym2612"
    },
    {
      "channel": 0,
      "note": 86,
      "start": 46.7023,
      "duration": 0.1515,
      "velocity": 100,
      "chip": "ym2612"
    },
    {
      "channel": 2,
      "note": 71,
      "start": 46.7036,
      "duration": 0.1518,
      "velocity": 112,
      "chip": "ym2612"
    },
    {
      "channel": 3,
      "note": 64,
      "start": 46.7043,
      "duration": 0.0976,
      "velocity": 85,
      "chip": "ym2612"
    },
    {
      "channel": 0,
      "note": 83,
      "start": 46.8544,
      "duration": 0.1638,
      "velocity": 100,
      "chip": "ym2612"
    },
    {
      "channel": 1,
      "note": 66,
      "start": 46.8552,
      "duration": 0.6153,
      "velocity": 102,
      "chip": "ym2612"
    },
    {
      "channel": 2,
      "note": 69,
      "start": 46.8561,
      "duration": 0.1629,
      "velocity": 112,
      "chip": "ym2612"
    },
    {
      "channel": 3,
      "note": 57,
      "start": 46.8569,
      "duration": 0.1116,
      "velocity": 85,
      "chip": "ym2612"
    },
    {
      "channel": 5,
      "note": 32,
      "start": 46.8578,
      "duration": 0.2105,
      "velocity": 114,
      "chip": "ym2612"
    },
    {
      "channel": 3,
      "note": 57,
      "start": 47.0199,
      "duration": 0.098,
      "velocity": 85,
      "chip": "ym2612"
    },
    {
      "channel": 0,
      "note": 83,
      "start": 47.1709,
      "duration": 0.466,
      "velocity": 100,
      "chip": "ym2612"
    },
    {
      "channel": 2,
      "note": 69,
      "start": 47.1722,
      "duration": 0.466,
      "velocity": 112,
      "chip": "ym2612"
    },
    {
      "channel": 3,
      "note": 57,
      "start": 47.1729,
      "duration": 0.0956,
      "velocity": 85,
      "chip": "ym2612"
    },
    {
      "channel": 5,
      "note": 75,
      "start": 47.1737,
      "duration": 0.2939,
      "velocity": 120,
      "chip": "ym2612"
    },
    {
      "channel": 3,
      "note": 57,
      "start": 47.32,
      "duration": 0.0985,
      "velocity": 85,
      "chip": "ym2612"
    },
    {
      "channel": 1,
      "note": 67,
      "start": 47.4712,
      "duration": 0.6186,
      "velocity": 102,
      "chip": "ym2612"
    },
    {
      "channel": 3,
      "note": 57,
      "start": 47.4725,
      "duration": 0.1127,
      "velocity": 85,
      "chip": "ym2612"
    },
    {
      "channel": 5,
      "note": 32,
      "start": 47.4734,
      "duration": 0.1608,
      "velocity": 114,
      "chip": "ym2612"
    },
    {
      "channel": 0,
      "note": 81,
      "start": 47.6375,
      "duration": 0.1493,
      "velocity": 100,
      "chip": "ym2612"
    },
    {
      "channel": 2,
      "note": 64,
      "start": 47.6388,
      "duration": 0.1494,
      "velocity": 112,
      "chip": "ym2612"
    },
    {
      "channel": 3,
      "note": 57,
      "start": 47.6395,
      "duration": 0.0957,
      "velocity": 85,
      "chip": "ym2612"
    },
    {
      "channel": 5,
      "note": 32,
      "start": 47.6403,
      "duration": 0.1439,
      "velocity": 114,
      "chip": "ym2612"
    },
    {
      "channel": 0,
      "note": 83,
      "start": 47.7875,
      "duration": 0.1474,
      "velocity": 100,
      "chip": "ym2612"
    },
    {
      "channel": 2,
      "note": 67,
      "start": 47.7888,
      "duration": 0.1474,
      "velocity": 112,
      "chip": "ym2612"
    },
    {
      "channel": 3,
      "note": 57,
      "start": 47.7895,
      "duration": 0.0957,
      "velocity": 85,
      "chip": "ym2612"
    },
    {
      "channel": 5,
      "note": 75,
      "start": 47.7903,
      "duration": 0.2941,
      "velocity": 120,
      "chip": "ym2612"
    },
    {
      "channel": 0,
      "note": 86,
      "start": 47.9356,
      "duration": 0.1538,
      "velocity": 112,
      "chip": "ym2612"
    },
    {
      "channel": 2,
      "note": 69,
      "start": 47.9369,
      "duration": 0.1553,
      "velocity": 97,
      "chip": "ym2612"
    },
    {
      "channel": 3,
      "note": 57,
      "start": 47.9376,
      "duration": 0.0976,
      "velocity": 85,
      "chip": "ym2612"
    },
    {
      "channel": 5,
      "note": 75,
      "start": 48.0936,
      "duration": 0.1569,
      "velocity": 120,
      "chip": "ym2612"
    },
    {
      "channel": 0,
      "note": 67,
      "start": 48.2538,
      "duration": 0.1494,
      "velocity": 112,
      "chip": "ym2612"
    },
    {
      "channel": 1,
      "note": 55,
      "start": 48.2545,
      "duration": 0.1489,
      "velocity": 102,
      "chip": "ym2612"
    },
    {
      "channel": 2,
      "note": 55,
      "start": 48.2554,
      "duration": 0.1484,
      "velocity": 97,
      "chip": "ym2612"
    },
    {
      "channel": 3,
      "note": 55,
      "start": 48.2561,
      "duration": 0.148,
      "velocity": 85,
      "chip": "ym2612"
    },
    {
      "channel": 5,
      "note": 32,
      "start": 48.2569,
      "duration": 0.1437,
      "velocity": 114,
      "chip": "ym2612"
    },
    {
      "channel": 5,
      "note": 75,
      "start": 48.405,
      "duration": 0.1456,
      "velocity": 120,
      "chip": "ym2612"
    },
    {
      "channel": 0,
      "note": 68,
      "start": 48.5538,
      "duration": 0.1494,
      "velocity": 112,
      "chip": "ym2612"
    },
    {
      "channel": 1,
      "note": 56,
      "start": 48.5545,
      "duration": 0.1489,
      "velocity": 102,
      "chip": "ym2612"
    },
    {
      "channel": 2,
      "note": 56,
      "start": 48.5554,
      "duration": 0.1484,
      "velocity": 97,
      "chip": "ym2612"
    },
    {
      "channel": 3,
      "note": 56,
      "start": 48.5561,
      "duration": 0.148,
      "velocity": 85,
      "chip": "ym2612"
    },
    {
      "channel": 5,
      "note": 32,
      "start": 48.5569,
      "duration": 0.1437,
      "velocity": 114,
      "chip": "ym2612"
    },
    {
      "channel": 5,
      "note": 75,
      "start": 48.705,
      "duration": 0.1622,
      "velocity": 120,
      "chip": "ym2612"
    },
    {
      "channel": 0,
      "note": 69,
      "start": 48.8704,
      "duration": 0.1494,
      "velocity": 112,
      "chip": "ym2612"
    },
    {
      "channel": 1,
      "note": 57,
      "start": 48.8712,
      "duration": 0.1489,
      "velocity": 102,
      "chip": "ym2612"
    },
    {
      "channel": 2,
      "note": 57,
      "start": 48.872,
      "duration": 0.1484,
      "velocity": 97,
      "chip": "ym2612"
    },
    {
      "channel": 3,
      "note": 57,
      "start": 48.8728,
      "duration": 0.148,
      "velocity": 85,
      "chip": "ym2612"
    },
    {
      "channel": 5,
      "note": 32,
      "start": 48.8736,
      "duration": 0.1436,
      "velocity": 114,
      "chip": "ym2612"
    },
    {
      "channel": 5,
      "note": 75,
      "start": 49.0216,
      "duration": 0.1456,
      "velocity": 120,
      "chip": "ym2612"
    },
    {
      "channel": 0,
      "note": 70,
      "start": 49.1704,
      "duration": 0.1496,
      "velocity": 112,
      "chip": "ym2612"
    },
    {
      "channel": 1,
      "note": 58,
      "start": 49.1712,
      "duration": 0.0984,
      "velocity": 112,
      "chip": "ym2612"
    },
    {
      "channel": 2,
      "note": 58,
      "start": 49.172,
      "duration": 0.1506,
      "velocity": 94,
      "chip": "ym2612"
    },
    {
      "channel": 3,
      "note": 58,
      "start": 49.1728,
      "duration": 0.1507,
      "velocity": 85,
      "chip": "ym2612"
    },
    {
      "channel": 5,
      "note": 32,
      "start": 49.1736,
      "duration": 0.1438,
      "velocity": 114,
      "chip": "ym2612"
    },
    {
      "channel": 0,
      "note": 71,
      "start": 49.3207,
      "duration": 0.1132,
      "velocity": 112,
      "chip": "ym2612"
    },
    {
      "channel": 1,
      "note": 66,
      "start": 49.322,
      "duration": 0.1123,
      "velocity": 112,
      "chip": "ym2612"
    },
    {
      "channel": 2,
      "note": 59,
      "start": 49.3232,
      "duration": 0.1113,
      "velocity": 94,
      "chip": "ym2612"
    },
    {
      "channel": 3,
      "note": 59,
      "start": 49.3241,
      "duration": 0.1108,
      "velocity": 85,
      "chip": "ym2612"
    },
    {
      "channel": 5,
      "note": 32,
      "start": 49.325,
      "duration": 0.1605,
      "velocity": 114,
      "chip": "ym2612"
    }
  ]
}