{
  "track_name": "34 - Remember of ''Knight of Legend''",
  "duration_sec": 36.751,
  "sample_rate": 44100,
  "note_count": 492,
  "unique_pitches": 10,
  "pitch_range": 16,
  "avg_note_duration": 0.3207,
  "reconstruction_stats": {
    "notes_reconstructed": 492,
    "keyon_events": 492,
    "keyoff_events": 486,
    "orphan_keyons": 6,
    "unique_pitches": 10,
    "pitch_range": 16,
    "avg_duration_sec": 0.3207
  },
  "metadata": {
    "source": "T\\Thunder Force IV\\34 - Remember of ''Knight of Legend''.vgz"
  },
  "notes": [
    {
      "channel": 0,
      "note": 63,
      "start": 0.0,
      "duration": 0.0,
      "velocity": 101,
      "chip": "ym2612"
    },
    {
      "channel": 0,
      "note": 59,
      "start": 0.0,
      "duration": 0.017,
      "velocity": 108,
      "chip": "ym2612"
    },
    {
      "channel": 1,
      "note": 63,
      "start": 0.0,
      "duration": 0.0,
      "velocity": 122,
      "chip": "ym2612"
    },
    {
      "channel": 3,
      "note": 61,
      "start": 0.0,
      "duration": 0.0,
      "velocity": 119,
      "chip": "ym2612"
    },
    {
      "channel": 1,
      "note": 47,
      "start": 0.0002,
      "duration": 0.1469,
      "velocity": 108,
      "chip": "ym2612"
    },
    {
      "channel": 2,
      "note": 59,
      "start": 0.0019,
      "duration": 0.0154,
      "velocity": 108,
      "chip": "ym2612"
    },
    {
      "channel": 3,
      "note": 61,
      "start": 0.0068,
      "duration": 0.0545,
      "velocity": 127,
      "chip": "ym2612"
    },
    {
      "channel": 1,
      "note": 59,
      "start": 0.1783,
      "duration": 0.1422,
      "velocity": 108,
      "chip": "ym2612"
    },
    {
      "channel": 4,
      "note": 59,
      "start": 0.265,
      "duration": 0.0134,
      "velocity": 108,
      "chip": "ym2612"
    },
    {
      "channel": 5,
      "note": 59,
      "start": 0.2668,
      "duration": 0.0118,
      "velocity": 108,
      "chip": "ym2612"
    },
    {
      "channel": 1,
      "note": 47,
      "start": 0.3551,
      "duration": 0.1392,
      "velocity": 108,
      "chip": "ym2612"
    },
    {
      "channel": 3,
      "note": 61,
      "start": 0.3614,
      "duration": 0.0461,
      "velocity": 127,
      "chip": "ym2612"
    },
    {
      "channel": 1,
      "note": 59,
      "start": 0.5241,
      "duration": 0.143,
      "velocity": 108,
      "chip": "ym2612"
    },
    {
      "channel": 1,
      "note": 47,
      "start": 0.7018,
      "duration": 0.1387,
      "velocity": 108,
      "chip": "ym2612"
    },
    {
      "channel": 3,
      "note": 61,
      "start": 0.7072,
      "duration": 0.047,
      "velocity": 127,
      "chip": "ym2612"
    },
    {
      "channel": 1,
      "note": 59,
      "start": 0.8708,
      "duration": 0.1431,
      "velocity": 108,
      "chip": "ym2612"
    },
    {
      "channel": 3,
      "note": 61,
      "start": 0.8731,
      "duration": 0.0549,
      "velocity": 127,
      "chip": "ym2612"
    },
    {
      "channel": 1,
      "note": 47,
      "start": 1.0493,
      "duration": 0.1379,
      "velocity": 108,
      "chip": "ym2612"
    },
    {
      "channel": 3,
      "note": 61,
      "start": 1.0547,
      "duration": 0.0461,
      "velocity": 127,
      "chip": "ym2612"
    },
    {
      "channel": 1,
      "note": 59,
      "start": 1.2175,
      "duration": 0.1439,
      "velocity": 108,
      "chip": "ym2612"
    },
    {
      "channel": 0,
      "note": 59,
      "start": 1.3909,
      "duration": 0.0273,
      "velocity": 108,
      "chip": "ym2612"
    },
    {
      "channel": 1,
      "note": 47,
      "start": 1.3977,
      "duration": 0.1507,
      "velocity": 108,
      "chip": "ym2612"
    },
    {
      "channel": 2,
      "note": 59,
      "start": 1.3995,
      "duration": 0.0191,
      "velocity": 108,
      "chip": "ym2612"
    },
    {
      "channel": 3,
      "note": 61,
      "start": 1.4051,
      "duration": 0.0569,
      "velocity": 127,
      "chip": "ym2612"
    },
    {
      "channel": 1,
      "note": 59,
      "start": 1.579,
      "duration": 0.1427,
      "velocity": 108,
      "chip": "ym2612"
    },
    {
      "channel": 4,
      "note": 59,
      "start": 1.6663,
      "duration": 0.0128,
      "velocity": 108,
      "chip": "ym2612"
    },
    {
      "channel": 5,
      "note": 59,
      "start": 1.668,
      "duration": 0.0113,
      "velocity": 108,
      "chip": "ym2612"
    },
    {
      "channel": 1,
      "note": 47,
      "start": 1.7563,
      "duration": 0.1388,
      "velocity": 108,
      "chip": "ym2612"
    },
    {
      "channel": 3,
      "note": 61,
      "start": 1.7626,
      "duration": 0.0461,
      "velocity": 127,
      "chip": "ym2612"
    },
    {
      "channel": 1,
      "note": 59,
      "start": 1.9254,
      "duration": 0.143,
      "velocity": 108,
      "chip": "ym2612"
    },
    {
      "channel": 1,
      "note": 47,
      "start": 2.103,
      "duration": 0.1388,
      "velocity": 108,
      "chip": "ym2612"
    },
    {
      "channel": 3,
      "note": 61,
      "start": 2.1084,
      "duration": 0.0478,
      "velocity": 127,
      "chip": "ym2612"
    },
    {
      "channel": 1,
      "note": 59,
      "start": 2.2721,
      "duration": 0.143,
      "velocity": 108,
      "chip": "ym2612"
    },
    {
      "channel": 3,
      "note": 61,
      "start": 2.2743,
      "duration": 0.0544,
      "velocity": 127,
      "chip": "ym2612"
    },
    {
      "channel": 1,
      "note": 47,
      "start": 2.45,
      "duration": 0.1384,
      "velocity": 108,
      "chip": "ym2612"
    },
    {
      "channel": 3,
      "note": 61,
      "start": 2.4554,
      "duration": 0.0467,
      "velocity": 127,
      "chip": "ym2612"
    },
    {
      "channel": 1,
      "note": 59,
      "start": 2.6188,
      "duration": 0.143,
      "velocity": 108,
      "chip": "ym2612"
    },
    {
      "channel": 0,
      "note": 59,
      "start": 2.7921,
      "duration": 0.0274,
      "velocity": 108,
      "chip": "ym2612"
    },
    {
      "channel": 1,
      "note": 47,
      "start": 2.799,
      "duration": 0.1507,
      "velocity": 108,
      "chip": "ym2612"
    },
    {
      "channel": 2,
      "note": 59,
      "start": 2.8007,
      "duration": 0.0191,
      "velocity": 108,
      "chip": "ym2612"
    },
    {
      "channel": 3,
      "note": 61,
      "start": 2.8063,
      "duration": 0.0569,
      "velocity": 127,
      "chip": "ym2612"
    },
    {
      "channel": 1,
      "note": 59,
      "start": 2.9799,
      "duration": 0.143,
      "velocity": 108,
      "chip": "ym2612"
    },
    {
      "channel": 4,
      "note": 59,
      "start": 3.0675,
      "duration": 0.0128,
      "velocity": 108,
      "chip": "ym2612"
    },
    {
      "channel": 5,
      "note": 59,
      "start": 3.0692,
      "duration": 0.0113,
      "velocity": 108,
      "chip": "ym2612"
    },
    {
      "channel": 1,
      "note": 47,
      "start": 3.1576,
      "duration": 0.1387,
      "velocity": 108,
      "chip": "ym2612"
    },
    {
      "channel": 3,
      "note": 61,
      "start": 3.1638,
      "duration": 0.0469,
      "velocity": 127,
      "chip": "ym2612"
    },
    {
      "channel": 1,
      "note": 59,
      "start": 3.3274,
      "duration": 0.1422,
      "velocity": 108,
      "chip": "ym2612"
    },
    {
      "channel": 1,
      "note": 47,
      "start": 3.5043,
      "duration": 0.1388,
      "velocity": 108,
      "chip": "ym2612"
    },
    {
      "channel": 3,
      "note": 61,
      "start": 3.5097,
      "duration": 0.0469,
      "velocity": 127,
      "chip": "ym2612"
    },
    {
      "channel": 1,
      "note": 59,
      "start": 3.6733,
      "duration": 0.1431,
      "velocity": 108,
      "chip": "ym2612"
    },
    {
      "channel": 3,
      "note": 61,
      "start": 3.6755,
      "duration": 0.0545,
      "velocity": 127,
      "chip": "ym2612"
    },
    {
      "channel": 1,
      "note": 47,
      "start": 3.851,
      "duration": 0.1388,
      "velocity": 108,
      "chip": "ym2612"
    },
    {
      "channel": 3,
      "note": 61,
      "start": 3.8564,
      "duration": 0.0469,
      "velocity": 127,
      "chip": "ym2612"
    },
    {
      "channel": 1,
      "note": 59,
      "start": 4.0201,
      "duration": 0.1431,
      "velocity": 108,
      "chip": "ym2612"
    },
    {
      "channel": 0,
      "note": 59,
      "start": 4.1942,
      "duration": 0.0265,
      "velocity": 108,
      "chip": "ym2612"
    },
    {
      "channel": 1,
      "note": 47,
      "start": 4.2002,
      "duration": 0.1507,
      "velocity": 108,
      "chip": "ym2612"
    },
    {
      "channel": 2,
      "note": 59,
      "start": 4.2019,
      "duration": 0.0191,
      "velocity": 108,
      "chip": "ym2612"
    },
    {
      "channel": 3,
      "note": 61,
      "start": 4.2075,
      "duration": 0.0569,
      "velocity": 127,
      "chip": "ym2612"
    },
    {
      "channel": 1,
      "note": 59,
      "start": 4.3812,
      "duration": 0.143,
      "velocity": 108,
      "chip": "ym2612"
    },
    {
      "channel": 3,
      "note": 61,
      "start": 4.3867,
      "duration": 0.0511,
      "velocity": 127,
      "chip": "ym2612"
    },
    {
      "channel": 4,
      "note": 59,
      "start": 4.4687,
      "duration": 0.0129,
      "velocity": 108,
      "chip": "ym2612"
    },
    {
      "channel": 5,
      "note": 59,
      "start": 4.4705,
      "duration": 0.0113,
      "velocity": 108,
      "chip": "ym2612"
    },
    {
      "channel": 1,
      "note": 47,
      "start": 4.5588,
      "duration": 0.139,
      "velocity": 108,
      "chip": "ym2612"
    },
    {
      "channel": 3,
      "note": 61,
      "start": 4.562,
      "duration": 0.0493,
      "velocity": 127,
      "chip": "ym2612"
    },
    {
      "channel": 1,
      "note": 59,
      "start": 4.7287,
      "duration": 0.1422,
      "velocity": 108,
      "chip": "ym2612"
    },
    {
      "channel": 3,
      "note": 61,
      "start": 4.7311,
      "duration": 0.0534,
      "velocity": 127,
      "chip": "ym2612"
    },
    {
      "channel": 1,
      "note": 47,
      "start": 4.9055,
      "duration": 0.1388,
      "velocity": 108,
      "chip": "ym2612"
    },
    {
      "channel": 3,
      "note": 61,
      "start": 4.9078,
      "duration": 0.051,
      "velocity": 127,
      "chip": "ym2612"
    },
    {
      "channel": 1,
      "note": 59,
      "start": 5.0746,
      "duration": 0.143,
      "velocity": 108,
      "chip": "ym2612"
    },
    {
      "channel": 3,
      "note": 61,
      "start": 5.0778,
      "duration": 0.0535,
      "velocity": 127,
      "chip": "ym2612"
    },
    {
      "channel": 1,
      "note": 47,
      "start": 5.2522,
      "duration": 0.1387,
      "velocity": 108,
      "chip": "ym2612"
    },
    {
      "channel": 3,
      "note": 61,
      "start": 5.2545,
      "duration": 0.0501,
      "velocity": 127,
      "chip": "ym2612"
    },
    {
      "channel": 1,
      "note": 59,
      "start": 5.4213,
      "duration": 0.143,
      "velocity": 108,
      "chip": "ym2612"
    },
    {
      "channel": 3,
      "note": 61,
      "start": 5.4236,
      "duration": 0.0543,
      "velocity": 127,
      "chip": "ym2612"
    },
    {
      "channel": 0,
      "note": 57,
      "start": 5.5992,
      "duration": 1.2218,
      "velocity": 101,
      "chip": "ym2612"
    },
    {
      "channel": 1,
      "note": 47,
      "start": 5.6051,
      "duration": 0.147,
      "velocity": 108,
      "chip": "ym2612"
    },
    {
      "channel": 2,
      "note": 54,
      "start": 5.6114,
      "duration": 1.21,
      "velocity": 101,
      "chip": "ym2612"
    },
    {
      "channel": 3,
      "note": 61,
      "start": 5.6171,
      "duration": 0.0487,
      "velocity": 127,
      "chip": "ym2612"
    },
    {
      "channel": 1,
      "note": 59,
      "start": 5.7825,
      "duration": 0.1574,
      "velocity": 108,
      "chip": "ym2612"
    },
    {
      "channel": 4,
      "note": 57,
      "start": 5.8739,
      "duration": 1.2236,
      "velocity": 101,
      "chip": "ym2612"
    },
    {
      "channel": 5,
      "note": 54,
      "start": 5.8804,
      "duration": 1.2173,
      "velocity": 101,
      "chip": "ym2612"
    },
    {
      "channel": 1,
      "note": 47,
      "start": 5.9745,
      "duration": 0.1532,
      "velocity": 108,
      "chip": "ym2612"
    },
    {
      "channel": 3,
      "note": 61,
      "start": 5.9807,
      "duration": 0.0606,
      "velocity": 127,
      "chip": "ym2612"
    },
    {
      "channel": 1,
      "note": 59,
      "start": 6.158,
      "duration": 0.1431,
      "velocity": 108,
      "chip": "ym2612"
    },
    {
      "channel": 1,
      "note": 47,
      "start": 6.3356,
      "duration": 0.1388,
      "velocity": 108,
      "chip": "ym2612"
    },
    {
      "channel": 3,
      "note": 61,
      "start": 6.3411,
      "duration": 0.047,
      "velocity": 127,
      "chip": "ym2612"
    },
    {
      "channel": 1,
      "note": 59,
      "start": 6.5047,
      "duration": 0.143,
      "velocity": 108,
      "chip": "ym2612"
    },
    {
      "channel": 3,
      "note": 61,
      "start": 6.507,
      "duration": 0.0554,
      "velocity": 127,
      "chip": "ym2612"
    },
    {
      "channel": 1,
      "note": 47,
      "start": 6.6832,
      "duration": 0.138,
      "velocity": 108,
      "chip": "ym2612"
    },
    {
      "channel": 3,
      "note": 61,
      "start": 6.6886,
      "duration": 0.0462,
      "velocity": 127,
      "chip": "ym2612"
    },
    {
      "channel": 0,
      "note": 57,
      "start": 6.8521,
      "duration": 1.3702,
      "velocity": 101,
      "chip": "ym2612"
    },
    {
      "channel": 1,
      "note": 59,
      "start": 6.8537,
      "duration": 0.1552,
      "velocity": 108,
      "chip": "ym2612"
    },
    {
      "channel": 2,
      "note": 54,
      "start": 6.8561,
      "duration": 1.3666,
      "velocity": 101,
      "chip": "ym2612"
    },
    {
      "channel": 3,
      "note": 61,
      "start": 6.8626,
      "duration": 0.06,
      "velocity": 127,
      "chip": "ym2612"
    },
    {
      "channel": 1,
      "note": 47,
      "start": 7.0444,
      "duration": 0.1379,
      "velocity": 108,
      "chip": "ym2612"
    },
    {
      "channel": 4,
      "note": 57,
      "start": 7.1282,
      "duration": 1.355,
      "velocity": 101,
      "chip": "ym2612"
    },
    {
      "channel": 5,
      "note": 54,
      "start": 7.1306,
      "duration": 1.3529,
      "velocity": 101,
      "chip": "ym2612"
    },
    {
      "channel": 1,
      "note": 59,
      "start": 7.2126,
      "duration": 0.1431,
      "velocity": 108,
      "chip": "ym2612"
    },
    {
      "channel": 3,
      "note": 61,
      "start": 7.2149,
      "duration": 0.0545,
      "velocity": 127,
      "chip": "ym2612"
    },
    {
      "channel": 1,
      "note": 47,
      "start": 7.3902,
      "duration": 0.1388,
      "velocity": 108,
      "chip": "ym2612"
    },
    {
      "channel": 3,
      "note": 61,
      "start": 7.3965,
      "duration": 0.0462,
      "velocity": 127,
      "chip": "ym2612"
    },
    {
      "channel": 1,
      "note": 59,
      "start": 7.5593,
      "duration": 0.1431,
      "velocity": 108,
      "chip": "ym2612"
    },
    {
      "channel": 1,
      "note": 47,
      "start": 7.7369,
      "duration": 0.1388,
      "velocity": 108,
      "chip": "ym2612"
    },
    {
      "channel": 3,
      "note": 61,
      "start": 7.7423,
      "duration": 0.047,
      "velocity": 127,
      "chip": "ym2612"
    },
    {
      "channel": 1,
      "note": 59,
      "start": 7.9059,
      "duration": 0.1431,
      "velocity": 108,
      "chip": "ym2612"
    },
    {
      "channel": 3,
      "note": 61,
      "start": 7.9082,
      "duration": 0.0545,
      "velocity": 127,
      "chip": "ym2612"
    },
    {
      "channel": 1,
      "note": 47,
      "start": 8.0836,
      "duration": 0.1389,
      "velocity": 108,
      "chip": "ym2612"
    },
    {
      "channel": 3,
      "note": 61,
      "start": 8.089,
      "duration": 0.0469,
      "velocity": 127,
      "chip": "ym2612"
    },
    {
      "channel": 0,
      "note": 56,
      "start": 8.2528,
      "duration": 1.3563,
      "velocity": 101,
      "chip": "ym2612"
    },
    {
      "channel": 1,
      "note": 59,
      "start": 8.2544,
      "duration": 0.1414,
      "velocity": 108,
      "chip": "ym2612"
    },
    {
      "channel": 2,
      "note": 52,
      "start": 8.2561,
      "duration": 1.3534,
      "velocity": 101,
      "chip": "ym2612"
    },
    {
      "channel": 3,
      "note": 61,
      "start": 8.2626,
      "duration": 0.0468,
      "velocity": 127,
      "chip": "ym2612"
    },
    {
      "channel": 1,
      "note": 47,
      "start": 8.4311,
      "duration": 0.1382,
      "velocity": 108,
      "chip": "ym2612"
    },
    {
      "channel": 4,
      "note": 56,
      "start": 8.5136,
      "duration": 1.3564,
      "velocity": 101,
      "chip": "ym2612"
    },
    {
      "channel": 5,
      "note": 52,
      "start": 8.5154,
      "duration": 1.3549,
      "velocity": 101,
      "chip": "ym2612"
    },
    {
      "channel": 1,
      "note": 59,
      "start": 8.5994,
      "duration": 0.1431,
      "velocity": 108,
      "chip": "ym2612"
    },
    {
      "channel": 3,
      "note": 61,
      "start": 8.6016,
      "duration": 0.0545,
      "velocity": 127,
      "chip": "ym2612"
    },
    {
      "channel": 1,
      "note": 47,
      "start": 8.7779,
      "duration": 0.1378,
      "velocity": 108,
      "chip": "ym2612"
    },
    {
      "channel": 3,
      "note": 61,
      "start": 8.7833,
      "duration": 0.0473,
      "velocity": 127,
      "chip": "ym2612"
    },
    {
      "channel": 1,
      "note": 59,
      "start": 8.9461,
      "duration": 0.143,
      "velocity": 108,
      "chip": "ym2612"
    },
    {
      "channel": 1,
      "note": 47,
      "start": 9.1238,
      "duration": 0.1387,
      "velocity": 108,
      "chip": "ym2612"
    },
    {
      "channel": 3,
      "note": 61,
      "start": 9.13,
      "duration": 0.0461,
      "velocity": 127,
      "chip": "ym2612"
    },
    {
      "channel": 1,
      "note": 59,
      "start": 9.2928,
      "duration": 0.1431,
      "velocity": 108,
      "chip": "ym2612"
    },
    {
      "channel": 3,
      "note": 61,
      "start": 9.2958,
      "duration": 0.0536,
      "velocity": 127,
      "chip": "ym2612"
    },
    {
      "channel": 1,
      "note": 47,
      "start": 9.4705,
      "duration": 0.1388,
      "velocity": 108,
      "chip": "ym2612"
    },
    {
      "channel": 3,
      "note": 61,
      "start": 9.4759,
      "duration": 0.047,
      "velocity": 127,
      "chip": "ym2612"
    },
    {
      "channel": 0,
      "note": 57,
      "start": 9.6397,
      "duration": 0.4895,
      "velocity": 101,
      "chip": "ym2612"
    },
    {
      "channel": 1,
      "note": 59,
      "start": 9.6413,
      "duration": 0.1412,
      "velocity": 108,
      "chip": "ym2612"
    },
    {
      "channel": 2,
      "note": 54,
      "start": 9.643,
      "duration": 0.4866,
      "velocity": 101,
      "chip": "ym2612"
    },
    {
      "channel": 3,
      "note": 61,
      "start": 9.6496,
      "duration": 0.0466,
      "velocity": 127,
      "chip": "ym2612"
    },
    {
      "channel": 1,
      "note": 47,
      "start": 9.8171,
      "duration": 0.1387,
      "velocity": 108,
      "chip": "ym2612"
    },
    {
      "channel": 4,
      "note": 57,
      "start": 9.9012,
      "duration": 0.5032,
      "velocity": 101,
      "chip": "ym2612"
    },
    {
      "channel": 5,
      "note": 54,
      "start": 9.903,
      "duration": 0.5017,
      "velocity": 101,
      "chip": "ym2612"
    },
    {
      "channel": 1,
      "note": 59,
      "start": 9.9862,
      "duration": 0.1432,
      "velocity": 108,
      "chip": "ym2612"
    },
    {
      "channel": 3,
      "note": 61,
      "start": 9.9884,
      "duration": 0.0545,
      "velocity": 127,
      "chip": "ym2612"
    },
    {
      "channel": 0,
      "note": 61,
      "start": 10.1596,
      "duration": 0.3307,
      "velocity": 101,
      "chip": "ym2612"
    },
    {
      "channel": 1,
      "note": 47,
      "start": 10.1664,
      "duration": 0.1506,
      "velocity": 108,
      "chip": "ym2612"
    },
    {
      "channel": 2,
      "note": 57,
      "start": 10.1682,
      "duration": 0.3225,
      "velocity": 101,
      "chip": "ym2612"
    },
    {
      "channel": 3,
      "note": 61,
      "start": 10.1734,
      "duration": 0.0572,
      "velocity": 127,
      "chip": "ym2612"
    },
    {
      "channel": 1,
      "note": 59,
      "start": 10.3473,
      "duration": 0.1431,
      "velocity": 108,
      "chip": "ym2612"
    },
    {
      "channel": 4,
      "note": 61,
      "start": 10.4356,
      "duration": 0.3298,
      "velocity": 101,
      "chip": "ym2612"
    },
    {
      "channel": 5,
      "note": 57,
      "start": 10.4374,
      "duration": 0.3283,
      "velocity": 101,
      "chip": "ym2612"
    },
    {
      "channel": 0,
      "note": 59,
      "start": 10.5208,
      "duration": 0.1573,
      "velocity": 101,
      "chip": "ym2612"
    },
    {
      "channel": 1,
      "note": 47,
      "start": 10.5275,
      "duration": 0.1508,
      "velocity": 108,
      "chip": "ym2612"
    },
    {
      "channel": 2,
      "note": 56,
      "start": 10.5293,
      "duration": 0.1492,
      "velocity": 101,
      "chip": "ym2612"
    },
    {
      "channel": 3,
      "note": 61,
      "start": 10.5346,
      "duration": 0.0572,
      "velocity": 127,
      "chip": "ym2612"
    },
    {
      "channel": 0,
      "note": 57,
      "start": 10.7085,
      "duration": 0.1429,
      "velocity": 101,
      "chip": "ym2612"
    },
    {
      "channel": 1,
      "note": 59,
      "start": 10.711,
      "duration": 0.1406,
      "velocity": 108,
      "chip": "ym2612"
    },
    {
      "channel": 2,
      "note": 54,
      "start": 10.7128,
      "duration": 0.139,
      "velocity": 101,
      "chip": "ym2612"
    },
    {
      "channel": 3,
      "note": 61,
      "start": 10.7149,
      "duration": 0.0502,
      "velocity": 127,
      "chip": "ym2612"
    },
    {
      "channel": 4,
      "note": 59,
      "start": 10.7967,
      "duration": 0.142,
      "velocity": 101,
      "chip": "ym2612"
    },
    {
      "channel": 5,
      "note": 56,
      "start": 10.7984,
      "duration": 0.1405,
      "velocity": 101,
      "chip": "ym2612"
    },
    {
      "channel": 1,
      "note": 47,
      "start": 10.8862,
      "duration": 0.1387,
      "velocity": 108,
      "chip": "ym2612"
    },
    {
      "channel": 3,
      "note": 61,
      "start": 10.8916,
      "duration": 0.047,
      "velocity": 127,
      "chip": "ym2612"
    },
    {
      "channel": 4,
      "note": 57,
      "start": 10.9703,
      "duration": 0.1422,
      "velocity": 101,
      "chip": "ym2612"
    },
    {
      "channel": 5,
      "note": 54,
      "start": 10.972,
      "duration": 0.1407,
      "velocity": 101,
      "chip": "ym2612"
    },
    {
      "channel": 0,
      "note": 56,
      "start": 11.0556,
      "duration": 1.356,
      "velocity": 101,
      "chip": "ym2612"
    },
    {
      "channel": 1,
      "note": 59,
      "start": 11.0571,
      "duration": 0.141,
      "velocity": 108,
      "chip": "ym2612"
    },
    {
      "channel": 2,
      "note": 52,
      "start": 11.0592,
      "duration": 1.3528,
      "velocity": 101,
      "chip": "ym2612"
    },
    {
      "channel": 3,
      "note": 61,
      "start": 11.0657,
      "duration": 0.0466,
      "velocity": 127,
      "chip": "ym2612"
    },
    {
      "channel": 1,
      "note": 47,
      "start": 11.2346,
      "duration": 0.1372,
      "velocity": 108,
      "chip": "ym2612"
    },
    {
      "channel": 4,
      "note": 56,
      "start": 11.3164,
      "duration": 1.3561,
      "velocity": 101,
      "chip": "ym2612"
    },
    {
      "channel": 5,
      "note": 52,
      "start": 11.3185,
      "duration": 1.3542,
      "velocity": 101,
      "chip": "ym2612"
    },
    {
      "channel": 1,
      "note": 59,
      "start": 11.4019,
      "duration": 0.1431,
      "velocity": 108,
      "chip": "ym2612"
    },
    {
      "channel": 3,
      "note": 61,
      "start": 11.4041,
      "duration": 0.0545,
      "velocity": 127,
      "chip": "ym2612"
    },
    {
      "channel": 1,
      "note": 47,
      "start": 11.5804,
      "duration": 0.1379,
      "velocity": 108,
      "chip": "ym2612"
    },
    {
      "channel": 3,
      "note": 61,
      "start": 11.5858,
      "duration": 0.0473,
      "velocity": 127,
      "chip": "ym2612"
    },
    {
      "channel": 1,
      "note": 59,
      "start": 11.7486,
      "duration": 0.1431,
      "velocity": 108,
      "chip": "ym2612"
    },
    {
      "channel": 1,
      "note": 47,
      "start": 11.9262,
      "duration": 0.1387,
      "velocity": 108,
      "chip": "ym2612"
    },
    {
      "channel": 3,
      "note": 61,
      "start": 11.9325,
      "duration": 0.0461,
      "velocity": 127,
      "chip": "ym2612"
    },
    {
      "channel": 1,
      "note": 59,
      "start": 12.0958,
      "duration": 0.1426,
      "velocity": 108,
      "chip": "ym2612"
    },
    {
      "channel": 3,
      "note": 61,
      "start": 12.098,
      "duration": 0.0539,
      "velocity": 127,
      "chip": "ym2612"
    },
    {
      "channel": 1,
      "note": 47,
      "start": 12.2729,
      "duration": 0.1388,
      "velocity": 108,
      "chip": "ym2612"
    },
    {
      "channel": 3,
      "note": 61,
      "start": 12.2792,
      "duration": 0.0461,
      "velocity": 127,
      "chip": "ym2612"
    },
    {
      "channel": 0,
      "note": 57,
      "start": 12.4422,
      "duration": 1.3561,
      "velocity": 101,
      "chip": "ym2612"
    },
    {
      "channel": 1,
      "note": 59,
      "start": 12.4446,
      "duration": 0.1404,
      "velocity": 108,
      "chip": "ym2612"
    },
    {
      "channel": 2,
      "note": 54,
      "start": 12.4464,
      "duration": 1.3524,
      "velocity": 101,
      "chip": "ym2612"
    },
    {
      "channel": 3,
      "note": 61,
      "start": 12.452,
      "duration": 0.0466,
      "velocity": 127,
      "chip": "ym2612"
    },
    {
      "channel": 1,
      "note": 47,
      "start": 12.6196,
      "duration": 0.1388,
      "velocity": 108,
      "chip": "ym2612"
    },
    {
      "channel": 4,
      "note": 57,
      "start": 12.7038,
      "duration": 1.3555,
      "velocity": 101,
      "chip": "ym2612"
    },
    {
      "channel": 5,
      "note": 54,
      "start": 12.7055,
      "duration": 1.354,
      "velocity": 101,
      "chip": "ym2612"
    },
    {
      "channel": 1,
      "note": 59,
      "start": 12.7887,
      "duration": 0.1431,
      "velocity": 108,
      "chip": "ym2612"
    },
    {
      "channel": 3,
      "note": 61,
      "start": 12.7909,
      "duration": 0.0548,
      "velocity": 127,
      "chip": "ym2612"
    },
    {
      "channel": 1,
      "note": 47,
      "start": 12.9668,
      "duration": 0.1388,
      "velocity": 108,
      "chip": "ym2612"
    },
    {
      "channel": 3,
      "note": 61,
      "start": 12.9722,
      "duration": 0.0466,
      "velocity": 127,
      "chip": "ym2612"
    },
    {
      "channel": 1,
      "note": 59,
      "start": 13.1353,
      "duration": 0.1431,
      "velocity": 108,
      "chip": "ym2612"
    },
    {
      "channel": 1,
      "note": 47,
      "start": 13.3139,
      "duration": 0.1378,
      "velocity": 108,
      "chip": "ym2612"
    },
    {
      "channel": 3,
      "note": 61,
      "start": 13.3193,
      "duration": 0.0461,
      "velocity": 127,
      "chip": "ym2612"
    },
    {
      "channel": 1,
      "note": 59,
      "start": 13.4821,
      "duration": 0.143,
      "velocity": 108,
      "chip": "ym2612"
    },
    {
      "channel": 3,
      "note": 61,
      "start": 13.4843,
      "duration": 0.0545,
      "velocity": 127,
      "chip": "ym2612"
    },
    {
      "channel": 1,
      "note": 47,
      "start": 13.6597,
      "duration": 0.1389,
      "velocity": 108,
      "chip": "ym2612"
    },
    {
      "channel": 3,
      "note": 61,
      "start": 13.6661,
      "duration": 0.0461,
      "velocity": 127,
      "chip": "ym2612"
    },
    {
      "channel": 0,
      "note": 56,
      "start": 13.8295,
      "duration": 2.7433,
      "velocity": 101,
      "chip": "ym2612"
    },
    {
      "channel": 1,
      "note": 59,
      "start": 13.8311,
      "duration": 0.1407,
      "velocity": 108,
      "chip": "ym2612"
    },
    {
      "channel": 2,
      "note": 52,
      "start": 13.8331,
      "duration": 2.74,
      "velocity": 101,
      "chip": "ym2612"
    },
    {
      "channel": 3,
      "note": 61,
      "start": 13.8387,
      "duration": 0.0468,
      "velocity": 127,
      "chip": "ym2612"
    },
    {
      "channel": 1,
      "note": 47,
      "start": 14.0065,
      "duration": 0.1387,
      "velocity": 108,
      "chip": "ym2612"
    },
    {
      "channel": 4,
      "note": 56,
      "start": 14.09,
      "duration": 2.7576,
      "velocity": 101,
      "chip": "ym2612"
    },
    {
      "channel": 5,
      "note": 52,
      "start": 14.0921,
      "duration": 2.7557,
      "velocity": 101,
      "chip": "ym2612"
    },
    {
      "channel": 1,
      "note": 59,
      "start": 14.1758,
      "duration": 0.1428,
      "velocity": 108,
      "chip": "ym2612"
    },
    {
      "channel": 3,
      "note": 61,
      "start": 14.1788,
      "duration": 0.0534,
      "velocity": 127,
      "chip": "ym2612"
    },
    {
      "channel": 1,
      "note": 47,
      "start": 14.3532,
      "duration": 0.1387,
      "velocity": 108,
      "chip": "ym2612"
    },
    {
      "channel": 3,
      "note": 61,
      "start": 14.3585,
      "duration": 0.047,
      "velocity": 127,
      "chip": "ym2612"
    },
    {
      "channel": 1,
      "note": 59,
      "start": 14.5222,
      "duration": 0.1431,
      "velocity": 108,
      "chip": "ym2612"
    },
    {
      "channel": 1,
      "note": 47,
      "start": 14.7,
      "duration": 0.1391,
      "velocity": 108,
      "chip": "ym2612"
    },
    {
      "channel": 3,
      "note": 61,
      "start": 14.7055,
      "duration": 0.0467,
      "velocity": 127,
      "chip": "ym2612"
    },
    {
      "channel": 1,
      "note": 59,
      "start": 14.8689,
      "duration": 0.1431,
      "velocity": 108,
      "chip": "ym2612"
    },
    {
      "channel": 3,
      "note": 61,
      "start": 14.8711,
      "duration": 0.0544,
      "velocity": 127,
      "chip": "ym2612"
    },
    {
      "channel": 1,
      "note": 47,
      "start": 15.0473,
      "duration": 0.1379,
      "velocity": 108,
      "chip": "ym2612"
    },
    {
      "channel": 3,
      "note": 61,
      "start": 15.0528,
      "duration": 0.0461,
      "velocity": 127,
      "chip": "ym2612"
    },
    {
      "channel": 1,
      "note": 59,
      "start": 15.2171,
      "duration": 0.1415,
      "velocity": 108,
      "chip": "ym2612"
    },
    {
      "channel": 3,
      "note": 61,
      "start": 15.2243,
      "duration": 0.0479,
      "velocity": 127,
      "chip": "ym2612"
    },
    {
      "channel": 1,
      "note": 47,
      "start": 15.3941,
      "duration": 0.1379,
      "velocity": 108,
      "chip": "ym2612"
    },
    {
      "channel": 1,
      "note": 59,
      "start": 15.5624,
      "duration": 0.1429,
      "velocity": 108,
      "chip": "ym2612"
    },
    {
      "channel": 3,
      "note": 61,
      "start": 15.5647,
      "duration": 0.0542,
      "velocity": 127,
      "chip": "ym2612"
    },
    {
      "channel": 1,
      "note": 47,
      "start": 15.7399,
      "duration": 0.1388,
      "velocity": 108,
      "chip": "ym2612"
    },
    {
      "channel": 3,
      "note": 61,
      "start": 15.7461,
      "duration": 0.0461,
      "velocity": 127,
      "chip": "ym2612"
    },
    {
      "channel": 1,
      "note": 59,
      "start": 15.9094,
      "duration": 0.1426,
      "velocity": 108,
      "chip": "ym2612"
    },
    {
      "channel": 3,
      "note": 61,
      "start": 15.9157,
      "duration": 0.05,
      "velocity": 127,
      "chip": "ym2612"
    },
    {
      "channel": 1,
      "note": 47,
      "start": 16.0866,
      "duration": 0.1388,
      "velocity": 108,
      "chip": "ym2612"
    },
    {
      "channel": 3,
      "note": 61,
      "start": 16.0888,
      "duration": 0.0501,
      "velocity": 127,
      "chip": "ym2612"
    },
    {
      "channel": 1,
      "note": 59,
      "start": 16.2556,
      "duration": 0.1431,
      "velocity": 108,
      "chip": "ym2612"
    },
    {
      "channel": 3,
      "note": 61,
      "start": 16.2619,
      "duration": 0.0505,
      "velocity": 127,
      "chip": "ym2612"
    },
    {
      "channel": 1,
      "note": 47,
      "start": 16.4334,
      "duration": 0.1396,
      "velocity": 108,
      "chip": "ym2612"
    },
    {
      "channel": 3,
      "note": 61,
      "start": 16.4356,
      "duration": 0.0501,
      "velocity": 127,
      "chip": "ym2612"
    },
    {
      "channel": 0,
      "note": 57,
      "start": 16.6024,
      "duration": 1.3852,
      "velocity": 101,
      "chip": "ym2612"
    },
    {
      "channel": 1,
      "note": 59,
      "start": 16.604,
      "duration": 0.1567,
      "velocity": 108,
      "chip": "ym2612"
    },
    {
      "channel": 2,
      "note": 54,
      "start": 16.6058,
      "duration": 1.3822,
      "velocity": 101,
      "chip": "ym2612"
    },
    {
      "channel": 3,
      "note": 61,
      "start": 16.6122,
      "duration": 0.0612,
      "velocity": 127,
      "chip": "ym2612"
    },
    {
      "channel": 1,
      "note": 47,
      "start": 16.7953,
      "duration": 0.1378,
      "velocity": 108,
      "chip": "ym2612"
    },
    {
      "channel": 4,
      "note": 57,
      "start": 16.8786,
      "duration": 1.37,
      "velocity": 101,
      "chip": "ym2612"
    },
    {
      "channel": 5,
      "note": 54,
      "start": 16.8803,
      "duration": 1.3684,
      "velocity": 101,
      "chip": "ym2612"
    },
    {
      "channel": 1,
      "note": 59,
      "start": 16.9635,
      "duration": 0.144,
      "velocity": 108,
      "chip": "ym2612"
    },
    {
      "channel": 3,
      "note": 61,
      "start": 16.9657,
      "duration": 0.0545,
      "velocity": 127,
      "chip": "ym2612"
    },
    {
      "channel": 1,
      "note": 47,
      "start": 17.1412,
      "duration": 0.1532,
      "velocity": 108,
      "chip": "ym2612"
    },
    {
      "channel": 3,
      "note": 61,
      "start": 17.1474,
      "duration": 0.0606,
      "velocity": 127,
      "chip": "ym2612"
    },
    {
      "channel": 1,
      "note": 59,
      "start": 17.3246,
      "duration": 0.1431,
      "velocity": 108,
      "chip": "ym2612"
    },
    {
      "channel": 1,
      "note": 47,
      "start": 17.5023,
      "duration": 0.1394,
      "velocity": 108,
      "chip": "ym2612"
    },
    {
      "channel": 3,
      "note": 61,
      "start": 17.5077,
      "duration": 0.0469,
      "velocity": 127,
      "chip": "ym2612"
    },
    {
      "channel": 1,
      "note": 59,
      "start": 17.6713,
      "duration": 0.1431,
      "velocity": 108,
      "chip": "ym2612"
    },
    {
      "channel": 3,
      "note": 61,
      "start": 17.6736,
      "duration": 0.0545,
      "velocity": 127,
      "chip": "ym2612"
    },
    {
      "channel": 1,
      "note": 47,
      "start": 17.8499,
      "duration": 0.1379,
      "velocity": 108,
      "chip": "ym2612"
    },
    {
      "channel": 3,
      "note": 61,
      "start": 17.8553,
      "duration": 0.0461,
      "velocity": 127,
      "chip": "ym2612"
    },
    {
      "channel": 0,
      "note": 57,
      "start": 18.0184,
      "duration": 1.3569,
      "velocity": 101,
      "chip": "ym2612"
    },
    {
      "channel": 1,
      "note": 59,
      "start": 18.02,
      "duration": 0.1411,
      "velocity": 108,
      "chip": "ym2612"
    },
    {
      "channel": 2,
      "note": 54,
      "start": 18.022,
      "duration": 1.3536,
      "velocity": 101,
      "chip": "ym2612"
    },
    {
      "channel": 3,
      "note": 61,
      "start": 18.0285,
      "duration": 0.0463,
      "velocity": 127,
      "chip": "ym2612"
    },
    {
      "channel": 1,
      "note": 47,
      "start": 18.1965,
      "duration": 0.1379,
      "velocity": 108,
      "chip": "ym2612"
    },
    {
      "channel": 4,
      "note": 57,
      "start": 18.2801,
      "duration": 1.3552,
      "velocity": 101,
      "chip": "ym2612"
    },
    {
      "channel": 5,
      "note": 54,
      "start": 18.2822,
      "duration": 1.3534,
      "velocity": 101,
      "chip": "ym2612"
    },
    {
      "channel": 1,
      "note": 59,
      "start": 18.3648,
      "duration": 0.1431,
      "velocity": 108,
      "chip": "ym2612"
    },
    {
      "channel": 3,
      "note": 61,
      "start": 18.367,
      "duration": 0.0545,
      "velocity": 127,
      "chip": "ym2612"
    },
    {
      "channel": 1,
      "note": 47,
      "start": 18.5424,
      "duration": 0.1387,
      "velocity": 108,
      "chip": "ym2612"
    },
    {
      "channel": 3,
      "note": 61,
      "start": 18.5487,
      "duration": 0.0461,
      "velocity": 127,
      "chip": "ym2612"
    },
    {
      "channel": 1,
      "note": 59,
      "start": 18.7129,
      "duration": 0.1416,
      "velocity": 108,
      "chip": "ym2612"
    },
    {
      "channel": 1,
      "note": 47,
      "start": 18.8891,
      "duration": 0.1387,
      "velocity": 108,
      "chip": "ym2612"
    },
    {
      "channel": 3,
      "note": 61,
      "start": 18.8953,
      "duration": 0.0462,
      "velocity": 127,
      "chip": "ym2612"
    },
    {
      "channel": 1,
      "note": 59,
      "start": 19.0581,
      "duration": 0.1431,
      "velocity": 108,
      "chip": "ym2612"
    },
    {
      "channel": 3,
      "note": 61,
      "start": 19.0612,
      "duration": 0.0538,
      "velocity": 127,
      "chip": "ym2612"
    },
    {
      "channel": 1,
      "note": 47,
      "start": 19.2358,
      "duration": 0.1397,
      "velocity": 108,
      "chip": "ym2612"
    },
    {
      "channel": 3,
      "note": 61,
      "start": 19.2412,
      "duration": 0.0469,
      "velocity": 127,
      "chip": "ym2612"
    },
    {
      "channel": 0,
      "note": 56,
      "start": 19.4049,
      "duration": 1.3563,
      "velocity": 101,
      "chip": "ym2612"
    },
    {
      "channel": 1,
      "note": 59,
      "start": 19.4065,
      "duration": 0.1414,
      "velocity": 108,
      "chip": "ym2612"
    },
    {
      "channel": 2,
      "note": 52,
      "start": 19.4083,
      "duration": 1.3533,
      "velocity": 101,
      "chip": "ym2612"
    },
    {
      "channel": 3,
      "note": 61,
      "start": 19.4147,
      "duration": 0.0468,
      "velocity": 127,
      "chip": "ym2612"
    },
    {
      "channel": 1,
      "note": 47,
      "start": 19.5834,
      "duration": 0.1378,
      "velocity": 108,
      "chip": "ym2612"
    },
    {
      "channel": 4,
      "note": 56,
      "start": 19.6657,
      "duration": 1.3564,
      "velocity": 101,
      "chip": "ym2612"
    },
    {
      "channel": 5,
      "note": 52,
      "start": 19.6675,
      "duration": 1.3548,
      "velocity": 101,
      "chip": "ym2612"
    },
    {
      "channel": 1,
      "note": 59,
      "start": 19.7516,
      "duration": 0.1431,
      "velocity": 108,
      "chip": "ym2612"
    },
    {
      "channel": 3,
      "note": 61,
      "start": 19.7538,
      "duration": 0.0545,
      "velocity": 127,
      "chip": "ym2612"
    },
    {
      "channel": 1,
      "note": 47,
      "start": 19.93,
      "duration": 0.1379,
      "velocity": 108,
      "chip": "ym2612"
    },
    {
      "channel": 3,
      "note": 61,
      "start": 19.9355,
      "duration": 0.0462,
      "velocity": 127,
      "chip": "ym2612"
    },
    {
      "channel": 1,
      "note": 59,
      "start": 20.0983,
      "duration": 0.1431,
      "velocity": 108,
      "chip": "ym2612"
    },
    {
      "channel": 1,
      "note": 47,
      "start": 20.2759,
      "duration": 0.1388,
      "velocity": 108,
      "chip": "ym2612"
    },
    {
      "channel": 3,
      "note": 61,
      "start": 20.2822,
      "duration": 0.0461,
      "velocity": 127,
      "chip": "ym2612"
    },
    {
      "channel": 1,
      "note": 59,
      "start": 20.4466,
      "duration": 0.1414,
      "velocity": 108,
      "chip": "ym2612"
    },
    {
      "channel": 3,
      "note": 61,
      "start": 20.4488,
      "duration": 0.0528,
      "velocity": 127,
      "chip": "ym2612"
    },
    {
      "channel": 1,
      "note": 47,
      "start": 20.6226,
      "duration": 0.1388,
      "velocity": 108,
      "chip": "ym2612"
    },
    {
      "channel": 3,
      "note": 61,
      "start": 20.6288,
      "duration": 0.0461,
      "velocity": 127,
      "chip": "ym2612"
    },
    {
      "channel": 0,
      "note": 57,
      "start": 20.7918,
      "duration": 0.4896,
      "velocity": 101,
      "chip": "ym2612"
    },
    {
      "channel": 1,
      "note": 59,
      "start": 20.7942,
      "duration": 0.1405,
      "velocity": 108,
      "chip": "ym2612"
    },
    {
      "channel": 2,
      "note": 54,
      "start": 20.796,
      "duration": 0.4858,
      "velocity": 101,
      "chip": "ym2612"
    },
    {
      "channel": 3,
      "note": 61,
      "start": 20.8016,
      "duration": 0.0471,
      "velocity": 127,
      "chip": "ym2612"
    },
    {
      "channel": 1,
      "note": 47,
      "start": 20.9693,
      "duration": 0.1398,
      "velocity": 108,
      "chip": "ym2612"
    },
    {
      "channel": 4,
      "note": 57,
      "start": 21.0526,
      "duration": 0.5041,
      "velocity": 101,
      "chip": "ym2612"
    },
    {
      "channel": 5,
      "note": 54,
      "start": 21.0544,
      "duration": 0.5025,
      "velocity": 101,
      "chip": "ym2612"
    },
    {
      "channel": 1,
      "note": 59,
      "start": 21.1383,
      "duration": 0.1433,
      "velocity": 108,
      "chip": "ym2612"
    },
    {
      "channel": 3,
      "note": 61,
      "start": 21.1405,
      "duration": 0.0545,
      "velocity": 127,
      "chip": "ym2612"
    },
    {
      "channel": 0,
      "note": 61,
      "start": 21.3125,
      "duration": 0.3317,
      "velocity": 101,
      "chip": "ym2612"
    },
    {
      "channel": 1,
      "note": 47,
      "start": 21.3184,
      "duration": 0.1508,
      "velocity": 108,
      "chip": "ym2612"
    },
    {
      "channel": 2,
      "note": 57,
      "start": 21.3202,
      "duration": 0.3245,
      "velocity": 101,
      "chip": "ym2612"
    },
    {
      "channel": 3,
      "note": 61,
      "start": 21.3255,
      "duration": 0.0578,
      "velocity": 127,
      "chip": "ym2612"
    },
    {
      "channel": 1,
      "note": 59,
      "start": 21.4995,
      "duration": 0.1449,
      "velocity": 108,
      "chip": "ym2612"
    },
    {
      "channel": 4,
      "note": 61,
      "start": 21.5871,
      "duration": 0.3306,
      "velocity": 101,
      "chip": "ym2612"
    },
    {
      "channel": 5,
      "note": 57,
      "start": 21.5889,
      "duration": 0.3291,
      "velocity": 101,
      "chip": "ym2612"
    },
    {
      "channel": 0,
      "note": 59,
      "start": 21.6729,
      "duration": 0.1573,
      "velocity": 101,
      "chip": "ym2612"
    },
    {
      "channel": 1,
      "note": 47,
      "start": 21.6797,
      "duration": 0.1507,
      "velocity": 108,
      "chip": "ym2612"
    },
    {
      "channel": 2,
      "note": 56,
      "start": 21.6815,
      "duration": 0.1492,
      "velocity": 101,
      "chip": "ym2612"
    },
    {
      "channel": 3,
      "note": 61,
      "start": 21.6867,
      "duration": 0.058,
      "velocity": 127,
      "chip": "ym2612"
    },
    {
      "channel": 0,
      "note": 57,
      "start": 21.8615,
      "duration": 0.142,
      "velocity": 101,
      "chip": "ym2612"
    },
    {
      "channel": 1,
      "note": 59,
      "start": 21.8632,
      "duration": 0.1406,
      "velocity": 108,
      "chip": "ym2612"
    },
    {
      "channel": 2,
      "note": 54,
      "start": 21.865,
      "duration": 0.139,
      "velocity": 101,
      "chip": "ym2612"
    },
    {
      "channel": 3,
      "note": 61,
      "start": 21.8671,
      "duration": 0.0505,
      "velocity": 127,
      "chip": "ym2612"
    },
    {
      "channel": 4,
      "note": 59,
      "start": 21.9483,
      "duration": 0.1426,
      "velocity": 101,
      "chip": "ym2612"
    },
    {
      "channel": 5,
      "note": 56,
      "start": 21.95,
      "duration": 0.1411,
      "velocity": 101,
      "chip": "ym2612"
    },
    {
      "channel": 1,
      "note": 47,
      "start": 22.0383,
      "duration": 0.1405,
      "velocity": 108,
      "chip": "ym2612"
    },
    {
      "channel": 3,
      "note": 61,
      "start": 22.0446,
      "duration": 0.0461,
      "velocity": 127,
      "chip": "ym2612"
    },
    {
      "channel": 4,
      "note": 57,
      "start": 22.1216,
      "duration": 0.1427,
      "velocity": 101,
      "chip": "ym2612"
    },
    {
      "channel": 5,
      "note": 54,
      "start": 22.1233,
      "duration": 0.1412,
      "velocity": 101,
      "chip": "ym2612"
    },
    {
      "channel": 0,
      "note": 56,
      "start": 22.2077,
      "duration": 1.356,
      "velocity": 101,
      "chip": "ym2612"
    },
    {
      "channel": 1,
      "note": 59,
      "start": 22.2093,
      "duration": 0.1411,
      "velocity": 108,
      "chip": "ym2612"
    },
    {
      "channel": 2,
      "note": 52,
      "start": 22.2122,
      "duration": 1.3519,
      "velocity": 101,
      "chip": "ym2612"
    },
    {
      "channel": 3,
      "note": 61,
      "start": 22.2178,
      "duration": 0.0462,
      "velocity": 127,
      "chip": "ym2612"
    },
    {
      "channel": 1,
      "note": 47,
      "start": 22.385,
      "duration": 0.1388,
      "velocity": 108,
      "chip": "ym2612"
    },
    {
      "channel": 4,
      "note": 56,
      "start": 22.4686,
      "duration": 1.3561,
      "velocity": 101,
      "chip": "ym2612"
    },
    {
      "channel": 5,
      "note": 52,
      "start": 22.4706,
      "duration": 1.3543,
      "velocity": 101,
      "chip": "ym2612"
    },
    {
      "channel": 1,
      "note": 59,
      "start": 22.554,
      "duration": 0.1431,
      "velocity": 108,
      "chip": "ym2612"
    },
    {
      "channel": 3,
      "note": 61,
      "start": 22.5563,
      "duration": 0.0551,
      "velocity": 127,
      "chip": "ym2612"
    },
    {
      "channel": 1,
      "note": 47,
      "start": 22.7325,
      "duration": 0.1379,
      "velocity": 108,
      "chip": "ym2612"
    },
    {
      "channel": 3,
      "note": 61,
      "start": 22.7379,
      "duration": 0.0462,
      "velocity": 127,
      "chip": "ym2612"
    },
    {
      "channel": 1,
      "note": 59,
      "start": 22.9007,
      "duration": 0.1436,
      "velocity": 108,
      "chip": "ym2612"
    },
    {
      "channel": 1,
      "note": 47,
      "start": 23.0792,
      "duration": 0.1379,
      "velocity": 108,
      "chip": "ym2612"
    },
    {
      "channel": 3,
      "note": 61,
      "start": 23.0846,
      "duration": 0.0461,
      "velocity": 127,
      "chip": "ym2612"
    },
    {
      "channel": 1,
      "note": 59,
      "start": 23.2483,
      "duration": 0.1422,
      "velocity": 108,
      "chip": "ym2612"
    },
    {
      "channel": 3,
      "note": 61,
      "start": 23.2504,
      "duration": 0.0537,
      "velocity": 127,
      "chip": "ym2612"
    },
    {
      "channel": 1,
      "note": 47,
      "start": 23.4251,
      "duration": 0.1388,
      "velocity": 108,
      "chip": "ym2612"
    },
    {
      "channel": 3,
      "note": 61,
      "start": 23.4313,
      "duration": 0.0466,
      "velocity": 127,
      "chip": "ym2612"
    },
    {
      "channel": 0,
      "note": 57,
      "start": 23.595,
      "duration": 1.3555,
      "velocity": 101,
      "chip": "ym2612"
    },
    {
      "channel": 1,
      "note": 59,
      "start": 23.5967,
      "duration": 0.1405,
      "velocity": 108,
      "chip": "ym2612"
    },
    {
      "channel": 2,
      "note": 54,
      "start": 23.5984,
      "duration": 1.3526,
      "velocity": 101,
      "chip": "ym2612"
    },
    {
      "channel": 3,
      "note": 61,
      "start": 23.604,
      "duration": 0.0472,
      "velocity": 127,
      "chip": "ym2612"
    },
    {
      "channel": 1,
      "note": 47,
      "start": 23.7718,
      "duration": 0.1402,
      "velocity": 108,
      "chip": "ym2612"
    },
    {
      "channel": 4,
      "note": 57,
      "start": 23.8551,
      "duration": 1.3708,
      "velocity": 101,
      "chip": "ym2612"
    },
    {
      "channel": 5,
      "note": 54,
      "start": 23.8568,
      "duration": 1.3693,
      "velocity": 101,
      "chip": "ym2612"
    },
    {
      "channel": 1,
      "note": 59,
      "start": 23.9409,
      "duration": 0.1431,
      "velocity": 108,
      "chip": "ym2612"
    },
    {
      "channel": 3,
      "note": 61,
      "start": 23.9431,
      "duration": 0.0545,
      "velocity": 127,
      "chip": "ym2612"
    },
    {
      "channel": 1,
      "note": 47,
      "start": 24.1185,
      "duration": 0.1387,
      "velocity": 108,
      "chip": "ym2612"
    },
    {
      "channel": 3,
      "note": 61,
      "start": 24.1239,
      "duration": 0.047,
      "velocity": 127,
      "chip": "ym2612"
    },
    {
      "channel": 1,
      "note": 59,
      "start": 24.2875,
      "duration": 0.1431,
      "velocity": 108,
      "chip": "ym2612"
    },
    {
      "channel": 1,
      "note": 47,
      "start": 24.466,
      "duration": 0.1379,
      "velocity": 108,
      "chip": "ym2612"
    },
    {
      "channel": 3,
      "note": 61,
      "start": 24.4715,
      "duration": 0.0461,
      "velocity": 127,
      "chip": "ym2612"
    },
    {
      "channel": 1,
      "note": 59,
      "start": 24.6343,
      "duration": 0.1434,
      "velocity": 108,
      "chip": "ym2612"
    },
    {
      "channel": 3,
      "note": 61,
      "start": 24.6365,
      "duration": 0.0544,
      "velocity": 127,
      "chip": "ym2612"
    },
    {
      "channel": 1,
      "note": 47,
      "start": 24.8127,
      "duration": 0.138,
      "velocity": 108,
      "chip": "ym2612"
    },
    {
      "channel": 3,
      "note": 61,
      "start": 24.8182,
      "duration": 0.0461,
      "velocity": 127,
      "chip": "ym2612"
    },
    {
      "channel": 0,
      "note": 56,
      "start": 24.9823,
      "duration": 2.7707,
      "velocity": 101,
      "chip": "ym2612"
    },
    {
      "channel": 1,
      "note": 59,
      "start": 24.9839,
      "duration": 0.1546,
      "velocity": 108,
      "chip": "ym2612"
    },
    {
      "channel": 2,
      "note": 52,
      "start": 24.9859,
      "duration": 2.7675,
      "velocity": 101,
      "chip": "ym2612"
    },
    {
      "channel": 3,
      "note": 61,
      "start": 24.9915,
      "duration": 0.0606,
      "velocity": 127,
      "chip": "ym2612"
    },
    {
      "channel": 1,
      "note": 47,
      "start": 25.1731,
      "duration": 0.1387,
      "velocity": 108,
      "chip": "ym2612"
    },
    {
      "channel": 4,
      "note": 56,
      "start": 25.2568,
      "duration": 2.7716,
      "velocity": 101,
      "chip": "ym2612"
    },
    {
      "channel": 5,
      "note": 52,
      "start": 25.2589,
      "duration": 2.7697,
      "velocity": 101,
      "chip": "ym2612"
    },
    {
      "channel": 1,
      "note": 59,
      "start": 25.3421,
      "duration": 0.1431,
      "velocity": 108,
      "chip": "ym2612"
    },
    {
      "channel": 3,
      "note": 61,
      "start": 25.3451,
      "duration": 0.0537,
      "velocity": 127,
      "chip": "ym2612"
    },
    {
      "channel": 1,
      "note": 47,
      "start": 25.5206,
      "duration": 0.1523,
      "velocity": 108,
      "chip": "ym2612"
    },
    {
      "channel": 3,
      "note": 61,
      "start": 25.5261,
      "duration": 0.0605,
      "velocity": 127,
      "chip": "ym2612"
    },
    {
      "channel": 1,
      "note": 59,
      "start": 25.7032,
      "duration": 0.1431,
      "velocity": 108,
      "chip": "ym2612"
    },
    {
      "channel": 1,
      "note": 47,
      "start": 25.8817,
      "duration": 0.1379,
      "velocity": 108,
      "chip": "ym2612"
    },
    {
      "channel": 3,
      "note": 61,
      "start": 25.8871,
      "duration": 0.0461,
      "velocity": 127,
      "chip": "ym2612"
    },
    {
      "channel": 1,
      "note": 59,
      "start": 26.0507,
      "duration": 0.1422,
      "velocity": 108,
      "chip": "ym2612"
    },
    {
      "channel": 3,
      "note": 61,
      "start": 26.0529,
      "duration": 0.0536,
      "velocity": 127,
      "chip": "ym2612"
    },
    {
      "channel": 1,
      "note": 47,
      "start": 26.2284,
      "duration": 0.1379,
      "velocity": 108,
      "chip": "ym2612"
    },
    {
      "channel": 3,
      "note": 61,
      "start": 26.2339,
      "duration": 0.0461,
      "velocity": 127,
      "chip": "ym2612"
    },
    {
      "channel": 1,
      "note": 59,
      "start": 26.3982,
      "duration": 0.1415,
      "velocity": 108,
      "chip": "ym2612"
    },
    {
      "channel": 3,
      "note": 61,
      "start": 26.4054,
      "duration": 0.0483,
      "velocity": 127,
      "chip": "ym2612"
    },
    {
      "channel": 1,
      "note": 47,
      "start": 26.5743,
      "duration": 0.1388,
      "velocity": 108,
      "chip": "ym2612"
    },
    {
      "channel": 1,
      "note": 59,
      "start": 26.7442,
      "duration": 0.1422,
      "velocity": 108,
      "chip": "ym2612"
    },
    {
      "channel": 3,
      "note": 61,
      "start": 26.7464,
      "duration": 0.0536,
      "velocity": 127,
      "chip": "ym2612"
    },
    {
      "channel": 1,
      "note": 47,
      "start": 26.921,
      "duration": 0.1388,
      "velocity": 108,
      "chip": "ym2612"
    },
    {
      "channel": 3,
      "note": 61,
      "start": 26.9264,
      "duration": 0.047,
      "velocity": 127,
      "chip": "ym2612"
    },
    {
      "channel": 1,
      "note": 59,
      "start": 27.09,
      "duration": 0.1431,
      "velocity": 108,
      "chip": "ym2612"
    },
    {
      "channel": 1,
      "note": 47,
      "start": 27.2678,
      "duration": 0.1386,
      "velocity": 108,
      "chip": "ym2612"
    },
    {
      "channel": 3,
      "note": 61,
      "start": 27.2732,
      "duration": 0.0469,
      "velocity": 127,
      "chip": "ym2612"
    },
    {
      "channel": 1,
      "note": 59,
      "start": 27.4367,
      "duration": 0.143,
      "velocity": 108,
      "chip": "ym2612"
    },
    {
      "channel": 3,
      "note": 61,
      "start": 27.439,
      "duration": 0.0553,
      "velocity": 127,
      "chip": "ym2612"
    },
    {
      "channel": 1,
      "note": 47,
      "start": 27.6152,
      "duration": 0.138,
      "velocity": 108,
      "chip": "ym2612"
    },
    {
      "channel": 3,
      "note": 61,
      "start": 27.6206,
      "duration": 0.0461,
      "velocity": 127,
      "chip": "ym2612"
    },
    {
      "channel": 0,
      "note": 54,
      "start": 27.7848,
      "duration": 2.7707,
      "velocity": 101,
      "chip": "ym2612"
    },
    {
      "channel": 1,
      "note": 59,
      "start": 27.7864,
      "duration": 0.1545,
      "velocity": 108,
      "chip": "ym2612"
    },
    {
      "channel": 2,
      "note": 50,
      "start": 27.7885,
      "duration": 2.7675,
      "velocity": 101,
      "chip": "ym2612"
    },
    {
      "channel": 3,
      "note": 61,
      "start": 27.7949,
      "duration": 0.0597,
      "velocity": 127,
      "chip": "ym2612"
    },
    {
      "channel": 1,
      "note": 47,
      "start": 27.9755,
      "duration": 0.1388,
      "velocity": 108,
      "chip": "ym2612"
    },
    {
      "channel": 4,
      "note": 54,
      "start": 28.0596,
      "duration": 2.7713,
      "velocity": 101,
      "chip": "ym2612"
    },
    {
      "channel": 5,
      "note": 50,
      "start": 28.0624,
      "duration": 2.7686,
      "velocity": 101,
      "chip": "ym2612"
    },
    {
      "channel": 1,
      "note": 59,
      "start": 28.1454,
      "duration": 0.1423,
      "velocity": 108,
      "chip": "ym2612"
    },
    {
      "channel": 3,
      "note": 61,
      "start": 28.1476,
      "duration": 0.0537,
      "velocity": 127,
      "chip": "ym2612"
    },
    {
      "channel": 1,
      "note": 47,
      "start": 28.3232,
      "duration": 0.1522,
      "velocity": 108,
      "chip": "ym2612"
    },
    {
      "channel": 3,
      "note": 61,
      "start": 28.3295,
      "duration": 0.0597,
      "velocity": 127,
      "chip": "ym2612"
    },
    {
      "channel": 1,
      "note": 59,
      "start": 28.5058,
      "duration": 0.143,
      "velocity": 108,
      "chip": "ym2612"
    },
    {
      "channel": 1,
      "note": 47,
      "start": 28.6834,
      "duration": 0.1387,
      "velocity": 108,
      "chip": "ym2612"
    },
    {
      "channel": 3,
      "note": 61,
      "start": 28.6888,
      "duration": 0.0469,
      "velocity": 127,
      "chip": "ym2612"
    },
    {
      "channel": 1,
      "note": 59,
      "start": 28.8533,
      "duration": 0.1422,
      "velocity": 108,
      "chip": "ym2612"
    },
    {
      "channel": 3,
      "note": 61,
      "start": 28.8555,
      "duration": 0.0536,
      "velocity": 127,
      "chip": "ym2612"
    },
    {
      "channel": 1,
      "note": 47,
      "start": 29.031,
      "duration": 0.1378,
      "velocity": 108,
      "chip": "ym2612"
    },
    {
      "channel": 3,
      "note": 61,
      "start": 29.0363,
      "duration": 0.0461,
      "velocity": 127,
      "chip": "ym2612"
    },
    {
      "channel": 1,
      "note": 59,
      "start": 29.2007,
      "duration": 0.1415,
      "velocity": 108,
      "chip": "ym2612"
    },
    {
      "channel": 3,
      "note": 61,
      "start": 29.2079,
      "duration": 0.0483,
      "velocity": 127,
      "chip": "ym2612"
    },
    {
      "channel": 1,
      "note": 47,
      "start": 29.3776,
      "duration": 0.1379,
      "velocity": 108,
      "chip": "ym2612"
    },
    {
      "channel": 1,
      "note": 59,
      "start": 29.5458,
      "duration": 0.1431,
      "velocity": 108,
      "chip": "ym2612"
    },
    {
      "channel": 3,
      "note": 61,
      "start": 29.548,
      "duration": 0.0545,
      "velocity": 127,
      "chip": "ym2612"
    },
    {
      "channel": 1,
      "note": 47,
      "start": 29.7235,
      "duration": 0.1387,
      "velocity": 108,
      "chip": "ym2612"
    },
    {
      "channel": 3,
      "note": 61,
      "start": 29.7297,
      "duration": 0.0461,
      "velocity": 127,
      "chip": "ym2612"
    },
    {
      "channel": 1,
      "note": 59,
      "start": 29.8925,
      "duration": 0.1431,
      "velocity": 108,
      "chip": "ym2612"
    },
    {
      "channel": 1,
      "note": 47,
      "start": 30.0701,
      "duration": 0.1387,
      "velocity": 108,
      "chip": "ym2612"
    },
    {
      "channel": 3,
      "note": 61,
      "start": 30.0756,
      "duration": 0.0469,
      "velocity": 127,
      "chip": "ym2612"
    },
    {
      "channel": 1,
      "note": 59,
      "start": 30.2392,
      "duration": 0.1431,
      "velocity": 108,
      "chip": "ym2612"
    },
    {
      "channel": 3,
      "note": 61,
      "start": 30.2415,
      "duration": 0.0544,
      "velocity": 127,
      "chip": "ym2612"
    },
    {
      "channel": 1,
      "note": 47,
      "start": 30.4169,
      "duration": 0.1388,
      "velocity": 108,
      "chip": "ym2612"
    },
    {
      "channel": 3,
      "note": 61,
      "start": 30.4223,
      "duration": 0.0469,
      "velocity": 127,
      "chip": "ym2612"
    },
    {
      "channel": 0,
      "note": 54,
      "start": 30.5873,
      "duration": 2.7707,
      "velocity": 101,
      "chip": "ym2612"
    },
    {
      "channel": 1,
      "note": 59,
      "start": 30.589,
      "duration": 0.1554,
      "velocity": 108,
      "chip": "ym2612"
    },
    {
      "channel": 2,
      "note": 51,
      "start": 30.591,
      "duration": 2.7674,
      "velocity": 101,
      "chip": "ym2612"
    },
    {
      "channel": 3,
      "note": 61,
      "start": 30.5974,
      "duration": 0.0597,
      "velocity": 127,
      "chip": "ym2612"
    },
    {
      "channel": 1,
      "note": 47,
      "start": 30.7788,
      "duration": 0.1379,
      "velocity": 108,
      "chip": "ym2612"
    },
    {
      "channel": 4,
      "note": 54,
      "start": 30.8629,
      "duration": 2.7704,
      "velocity": 101,
      "chip": "ym2612"
    },
    {
      "channel": 5,
      "note": 51,
      "start": 30.865,
      "duration": 2.7686,
      "velocity": 101,
      "chip": "ym2612"
    },
    {
      "channel": 1,
      "note": 59,
      "start": 30.947,
      "duration": 0.1431,
      "velocity": 108,
      "chip": "ym2612"
    },
    {
      "channel": 3,
      "note": 61,
      "start": 30.9493,
      "duration": 0.0546,
      "velocity": 127,
      "chip": "ym2612"
    },
    {
      "channel": 1,
      "note": 47,
      "start": 31.1257,
      "duration": 0.1522,
      "velocity": 108,
      "chip": "ym2612"
    },
    {
      "channel": 3,
      "note": 61,
      "start": 31.132,
      "duration": 0.0597,
      "velocity": 127,
      "chip": "ym2612"
    },
    {
      "channel": 1,
      "note": 59,
      "start": 31.3082,
      "duration": 0.143,
      "velocity": 108,
      "chip": "ym2612"
    },
    {
      "channel": 1,
      "note": 47,
      "start": 31.4859,
      "duration": 0.1387,
      "velocity": 108,
      "chip": "ym2612"
    },
    {
      "channel": 3,
      "note": 61,
      "start": 31.4912,
      "duration": 0.047,
      "velocity": 127,
      "chip": "ym2612"
    },
    {
      "channel": 1,
      "note": 59,
      "start": 31.6559,
      "duration": 0.1421,
      "velocity": 108,
      "chip": "ym2612"
    },
    {
      "channel": 3,
      "note": 61,
      "start": 31.658,
      "duration": 0.0536,
      "velocity": 127,
      "chip": "ym2612"
    },
    {
      "channel": 1,
      "note": 47,
      "start": 31.8334,
      "duration": 0.1379,
      "velocity": 108,
      "chip": "ym2612"
    },
    {
      "channel": 3,
      "note": 61,
      "start": 31.8388,
      "duration": 0.0461,
      "velocity": 127,
      "chip": "ym2612"
    },
    {
      "channel": 1,
      "note": 59,
      "start": 32.0032,
      "duration": 0.1415,
      "velocity": 108,
      "chip": "ym2612"
    },
    {
      "channel": 3,
      "note": 61,
      "start": 32.0112,
      "duration": 0.0476,
      "velocity": 127,
      "chip": "ym2612"
    },
    {
      "channel": 1,
      "note": 47,
      "start": 32.1801,
      "duration": 0.1378,
      "velocity": 108,
      "chip": "ym2612"
    },
    {
      "channel": 1,
      "note": 59,
      "start": 32.3483,
      "duration": 0.1431,
      "velocity": 108,
      "chip": "ym2612"
    },
    {
      "channel": 3,
      "note": 61,
      "start": 32.3505,
      "duration": 0.0544,
      "velocity": 127,
      "chip": "ym2612"
    },
    {
      "channel": 1,
      "note": 47,
      "start": 32.526,
      "duration": 0.1387,
      "velocity": 108,
      "chip": "ym2612"
    },
    {
      "channel": 3,
      "note": 61,
      "start": 32.5322,
      "duration": 0.0461,
      "velocity": 127,
      "chip": "ym2612"
    },
    {
      "channel": 1,
      "note": 59,
      "start": 32.6958,
      "duration": 0.1422,
      "velocity": 108,
      "chip": "ym2612"
    },
    {
      "channel": 1,
      "note": 47,
      "start": 32.8727,
      "duration": 0.1387,
      "velocity": 108,
      "chip": "ym2612"
    },
    {
      "channel": 3,
      "note": 61,
      "start": 32.8789,
      "duration": 0.0461,
      "velocity": 127,
      "chip": "ym2612"
    },
    {
      "channel": 1,
      "note": 59,
      "start": 33.0417,
      "duration": 0.1431,
      "velocity": 108,
      "chip": "ym2612"
    },
    {
      "channel": 3,
      "note": 61,
      "start": 33.0447,
      "duration": 0.0536,
      "velocity": 127,
      "chip": "ym2612"
    },
    {
      "channel": 1,
      "note": 47,
      "start": 33.2194,
      "duration": 0.1388,
      "velocity": 108,
      "chip": "ym2612"
    },
    {
      "channel": 3,
      "note": 61,
      "start": 33.2248,
      "duration": 0.0469,
      "velocity": 127,
      "chip": "ym2612"
    },
    {
      "channel": 0,
      "note": 54,
      "start": 33.3888,
      "duration": 2.2517,
      "velocity": 101,
      "chip": "ym2612"
    },
    {
      "channel": 1,
      "note": 59,
      "start": 33.3904,
      "duration": 0.1555,
      "velocity": 108,
      "chip": "ym2612"
    },
    {
      "channel": 2,
      "note": 50,
      "start": 33.3924,
      "duration": 2.2484,
      "velocity": 101,
      "chip": "ym2612"
    },
    {
      "channel": 3,
      "note": 61,
      "start": 33.3989,
      "duration": 0.0607,
      "velocity": 127,
      "chip": "ym2612"
    },
    {
      "channel": 1,
      "note": 47,
      "start": 33.5813,
      "duration": 0.1379,
      "velocity": 108,
      "chip": "ym2612"
    },
    {
      "channel": 4,
      "note": 54,
      "start": 33.6649,
      "duration": 2.2507,
      "velocity": 101,
      "chip": "ym2612"
    },
    {
      "channel": 5,
      "note": 50,
      "start": 33.667,
      "duration": 2.2488,
      "velocity": 101,
      "chip": "ym2612"
    },
    {
      "channel": 1,
      "note": 59,
      "start": 33.7496,
      "duration": 0.1431,
      "velocity": 108,
      "chip": "ym2612"
    },
    {
      "channel": 3,
      "note": 61,
      "start": 33.7518,
      "duration": 0.0545,
      "velocity": 127,
      "chip": "ym2612"
    },
    {
      "channel": 1,
      "note": 47,
      "start": 33.9291,
      "duration": 0.1513,
      "velocity": 108,
      "chip": "ym2612"
    },
    {
      "channel": 3,
      "note": 61,
      "start": 33.9345,
      "duration": 0.0602,
      "velocity": 127,
      "chip": "ym2612"
    },
    {
      "channel": 1,
      "note": 59,
      "start": 34.1115,
      "duration": 0.1422,
      "velocity": 108,
      "chip": "ym2612"
    },
    {
      "channel": 1,
      "note": 47,
      "start": 34.2883,
      "duration": 0.1394,
      "velocity": 108,
      "chip": "ym2612"
    },
    {
      "channel": 3,
      "note": 61,
      "start": 34.2946,
      "duration": 0.0461,
      "velocity": 127,
      "chip": "ym2612"
    },
    {
      "channel": 1,
      "note": 59,
      "start": 34.4584,
      "duration": 0.1421,
      "velocity": 108,
      "chip": "ym2612"
    },
    {
      "channel": 3,
      "note": 61,
      "start": 34.4615,
      "duration": 0.0526,
      "velocity": 127,
      "chip": "ym2612"
    },
    {
      "channel": 1,
      "note": 47,
      "start": 34.6351,
      "duration": 0.1387,
      "velocity": 108,
      "chip": "ym2612"
    },
    {
      "channel": 3,
      "note": 61,
      "start": 34.6405,
      "duration": 0.047,
      "velocity": 127,
      "chip": "ym2612"
    },
    {
      "channel": 1,
      "note": 59,
      "start": 34.8056,
      "duration": 0.1415,
      "velocity": 108,
      "chip": "ym2612"
    },
    {
      "channel": 3,
      "note": 61,
      "start": 34.8137,
      "duration": 0.0487,
      "velocity": 127,
      "chip": "ym2612"
    },
    {
      "channel": 1,
      "note": 47,
      "start": 34.9826,
      "duration": 0.1379,
      "velocity": 108,
      "chip": "ym2612"
    },
    {
      "channel": 1,
      "note": 59,
      "start": 35.1508,
      "duration": 0.1435,
      "velocity": 108,
      "chip": "ym2612"
    },
    {
      "channel": 3,
      "note": 61,
      "start": 35.1562,
      "duration": 0.0513,
      "velocity": 127,
      "chip": "ym2612"
    },
    {
      "channel": 1,
      "note": 47,
      "start": 35.3293,
      "duration": 0.1379,
      "velocity": 108,
      "chip": "ym2612"
    },
    {
      "channel": 3,
      "note": 61,
      "start": 35.3315,
      "duration": 0.0493,
      "velocity": 127,
      "chip": "ym2612"
    },
    {
      "channel": 1,
      "note": 59,
      "start": 35.4975,
      "duration": 0.1431,
      "velocity": 108,
      "chip": "ym2612"
    },
    {
      "channel": 3,
      "note": 61,
      "start": 35.5029,
      "duration": 0.0513,
      "velocity": 127,
      "chip": "ym2612"
    },
    {
      "channel": 0,
      "note": 54,
      "start": 35.671,
      "duration": 0.1573,
      "velocity": 101,
      "chip": "ym2612"
    },
    {
      "channel": 1,
      "note": 47,
      "start": 35.6777,
      "duration": 0.1507,
      "velocity": 108,
      "chip": "ym2612"
    },
    {
      "channel": 2,
      "note": 51,
      "start": 35.6795,
      "duration": 0.1492,
      "velocity": 101,
      "chip": "ym2612"
    },
    {
      "channel": 3,
      "note": 61,
      "start": 35.6848,
      "duration": 0.0572,
      "velocity": 127,
      "chip": "ym2612"
    },
    {
      "channel": 0,
      "note": 54,
      "start": 35.8588,
      "duration": 0.1428,
      "velocity": 101,
      "chip": "ym2612"
    },
    {
      "channel": 1,
      "note": 59,
      "start": 35.8612,
      "duration": 0.1407,
      "velocity": 108,
      "chip": "ym2612"
    },
    {
      "channel": 2,
      "note": 51,
      "start": 35.8629,
      "duration": 0.139,
      "velocity": 101,
      "chip": "ym2612"
    },
    {
      "channel": 3,
      "note": 61,
      "start": 35.865,
      "duration": 0.0503,
      "velocity": 127,
      "chip": "ym2612"
    },
    {
      "channel": 4,
      "note": 54,
      "start": 35.9467,
      "duration": 0.1425,
      "velocity": 101,
      "chip": "ym2612"
    },
    {
      "channel": 5,
      "note": 51,
      "start": 35.9484,
      "duration": 0.141,
      "velocity": 101,
      "chip": "ym2612"
    },
    {
      "channel": 1,
      "note": 47,
      "start": 36.0363,
      "duration": 0.1388,
      "velocity": 108,
      "chip": "ym2612"
    },
    {
      "channel": 4,
      "note": 54,
      "start": 36.1196,
      "duration": 0.1579,
      "velocity": 101,
      "chip": "ym2612"
    },
    {
      "channel": 5,
      "note": 51,
      "start": 36.1213,
      "duration": 0.1564,
      "velocity": 101,
      "chip": "ym2612"
    },
    {
      "channel": 0,
      "note": 56,
      "start": 36.2054,
      "duration": 0.5451,
      "velocity": 101,
      "chip": "ym2612"
    },
    {
      "channel": 1,
      "note": 59,
      "start": 36.207,
      "duration": 0.1558,
      "velocity": 108,
      "chip": "ym2612"
    },
    {
      "channel": 2,
      "note": 52,
      "start": 36.2088,
      "duration": 0.5418,
      "velocity": 101,
      "chip": "ym2612"
    },
    {
      "channel": 3,
      "note": 61,
      "start": 36.2152,
      "duration": 0.0612,
      "velocity": 127,
      "chip": "ym2612"
    },
    {
      "channel": 1,
      "note": 47,
      "start": 36.3983,
      "duration": 0.1378,
      "velocity": 108,
      "chip": "ym2612"
    },
    {
      "channel": 4,
      "note": 56,
      "start": 36.4807,
      "duration": 0.2698,
      "velocity": 101,
      "chip": "ym2612"
    },
    {
      "channel": 5,
      "note": 52,
      "start": 36.4825,
      "duration": 0.268,
      "velocity": 101,
      "chip": "ym2612"
    },
    {
      "channel": 1,
      "note": 59,
      "start": 36.5665,
      "duration": 0.1431,
      "velocity": 108,
      "chip": "ym2612"
    },
    {
      "channel": 3,
      "note": 61,
      "start": 36.5687,
      "duration": 0.0545,
      "velocity": 127,
      "chip": "ym2612"
    },
    {
      "channel": 1,
      "note": 47,
      "start": 36.745,
      "duration": 0.0056,
      "velocity": 108,
      "chip": "ym2612"
    },
    {
      "channel": 3,
      "note": 61,
      "start": 36.7504,
      "duration": 0.0002,
      "velocity": 127,
      "chip": "ym2612"
    }
  ]
}