{
  "track_name": "34 - Unknown Track 2",
  "duration_sec": 77.446,
  "sample_rate": 44100,
  "note_count": 1112,
  "unique_pitches": 34,
  "pitch_range": 71,
  "avg_note_duration": 0.2933,
  "reconstruction_stats": {
    "notes_reconstructed": 1112,
    "keyon_events": 1112,
    "keyoff_events": 1109,
    "orphan_keyons": 3,
    "unique_pitches": 34,
    "pitch_range": 71,
    "avg_duration_sec": 0.2933
  },
  "metadata": {
    "source": "S\\Sorcerer's Kingdom\\34 - Unknown Track 2.vgm"
  },
  "notes": [
    {
      "channel": 0,
      "note": 88,
      "start": 0.0068,
      "duration": 0.5118,
      "velocity": 85,
      "chip": "ym2612"
    },
    {
      "channel": 1,
      "note": 64,
      "start": 0.0068,
      "duration": 2.7986,
      "velocity": 92,
      "chip": "ym2612"
    },
    {
      "channel": 2,
      "note": 64,
      "start": 0.0069,
      "duration": 0.1988,
      "velocity": 117,
      "chip": "ym2612"
    },
    {
      "channel": 3,
      "note": 76,
      "start": 0.007,
      "duration": 3.2046,
      "velocity": 94,
      "chip": "ym2612"
    },
    {
      "channel": 4,
      "note": 55,
      "start": 0.007,
      "duration": 0.1989,
      "velocity": 127,
      "chip": "ym2612"
    },
    {
      "channel": 5,
      "note": 55,
      "start": 0.0071,
      "duration": 0.1989,
      "velocity": 127,
      "chip": "ym2612"
    },
    {
      "channel": 2,
      "note": 49,
      "start": 0.2058,
      "duration": 0.1976,
      "velocity": 117,
      "chip": "ym2612"
    },
    {
      "channel": 2,
      "note": 78,
      "start": 0.4035,
      "duration": 1.2007,
      "velocity": 117,
      "chip": "ym2612"
    },
    {
      "channel": 0,
      "note": 83,
      "start": 0.6024,
      "duration": 0.5162,
      "velocity": 85,
      "chip": "ym2612"
    },
    {
      "channel": 0,
      "note": 92,
      "start": 1.2023,
      "duration": 0.3495,
      "velocity": 85,
      "chip": "ym2612"
    },
    {
      "channel": 0,
      "note": 88,
      "start": 1.6041,
      "duration": 0.5144,
      "velocity": 85,
      "chip": "ym2612"
    },
    {
      "channel": 0,
      "note": 83,
      "start": 2.2023,
      "duration": 0.5162,
      "velocity": 85,
      "chip": "ym2612"
    },
    {
      "channel": 4,
      "note": 55,
      "start": 2.6083,
      "duration": 0.0437,
      "velocity": 127,
      "chip": "ym2612"
    },
    {
      "channel": 5,
      "note": 55,
      "start": 2.6084,
      "duration": 0.0437,
      "velocity": 127,
      "chip": "ym2612"
    },
    {
      "channel": 4,
      "note": 55,
      "start": 2.7029,
      "duration": 0.049,
      "velocity": 127,
      "chip": "ym2612"
    },
    {
      "channel": 5,
      "note": 55,
      "start": 2.703,
      "duration": 0.049,
      "velocity": 127,
      "chip": "ym2612"
    },
    {
      "channel": 0,
      "note": 83,
      "start": 2.8054,
      "duration": 0.3464,
      "velocity": 85,
      "chip": "ym2612"
    },
    {
      "channel": 1,
      "note": 59,
      "start": 2.8055,
      "duration": 0.4059,
      "velocity": 92,
      "chip": "ym2612"
    },
    {
      "channel": 2,
      "note": 35,
      "start": 2.8056,
      "duration": 0.4059,
      "velocity": 117,
      "chip": "ym2612"
    },
    {
      "channel": 4,
      "note": 55,
      "start": 2.8057,
      "duration": 0.1963,
      "velocity": 127,
      "chip": "ym2612"
    },
    {
      "channel": 5,
      "note": 55,
      "start": 2.8057,
      "duration": 0.1963,
      "velocity": 127,
      "chip": "ym2612"
    },
    {
      "channel": 0,
      "note": 86,
      "start": 3.2113,
      "duration": 0.5072,
      "velocity": 85,
      "chip": "ym2612"
    },
    {
      "channel": 1,
      "note": 62,
      "start": 3.2114,
      "duration": 1.6004,
      "velocity": 92,
      "chip": "ym2612"
    },
    {
      "channel": 2,
      "note": 38,
      "start": 3.2115,
      "duration": 0.1906,
      "velocity": 117,
      "chip": "ym2612"
    },
    {
      "channel": 3,
      "note": 74,
      "start": 3.2116,
      "duration": 1.6004,
      "velocity": 94,
      "chip": "ym2612"
    },
    {
      "channel": 4,
      "note": 55,
      "start": 3.2117,
      "duration": 0.1906,
      "velocity": 127,
      "chip": "ym2612"
    },
    {
      "channel": 5,
      "note": 55,
      "start": 3.2117,
      "duration": 0.1905,
      "velocity": 127,
      "chip": "ym2612"
    },
    {
      "channel": 0,
      "note": 85,
      "start": 3.8023,
      "duration": 0.5162,
      "velocity": 85,
      "chip": "ym2612"
    },
    {
      "channel": 0,
      "note": 81,
      "start": 4.4023,
      "duration": 0.3495,
      "velocity": 85,
      "chip": "ym2612"
    },
    {
      "channel": 0,
      "note": 86,
      "start": 4.8118,
      "duration": 0.5067,
      "velocity": 85,
      "chip": "ym2612"
    },
    {
      "channel": 1,
      "note": 57,
      "start": 4.8119,
      "duration": 1.1939,
      "velocity": 92,
      "chip": "ym2612"
    },
    {
      "channel": 2,
      "note": 33,
      "start": 4.8119,
      "duration": 1.6019,
      "velocity": 127,
      "chip": "ym2612"
    },
    {
      "channel": 3,
      "note": 76,
      "start": 4.8121,
      "duration": 4.7999,
      "velocity": 94,
      "chip": "ym2612"
    },
    {
      "channel": 4,
      "note": 55,
      "start": 4.8121,
      "duration": 0.0897,
      "velocity": 127,
      "chip": "ym2612"
    },
    {
      "channel": 5,
      "note": 36,
      "start": 4.8122,
      "duration": 0.0563,
      "velocity": 101,
      "chip": "ym2612"
    },
    {
      "channel": 4,
      "note": 55,
      "start": 5.0045,
      "duration": 0.0973,
      "velocity": 127,
      "chip": "ym2612"
    },
    {
      "channel": 5,
      "note": 36,
      "start": 5.0046,
      "duration": 0.064,
      "velocity": 101,
      "chip": "ym2612"
    },
    {
      "channel": 4,
      "note": 55,
      "start": 5.2046,
      "duration": 0.0973,
      "velocity": 127,
      "chip": "ym2612"
    },
    {
      "channel": 5,
      "note": 36,
      "start": 5.2046,
      "duration": 0.0639,
      "velocity": 101,
      "chip": "ym2612"
    },
    {
      "channel": 0,
      "note": 85,
      "start": 5.405,
      "duration": 0.5135,
      "velocity": 85,
      "chip": "ym2612"
    },
    {
      "channel": 4,
      "note": 55,
      "start": 5.4051,
      "duration": 0.0967,
      "velocity": 127,
      "chip": "ym2612"
    },
    {
      "channel": 5,
      "note": 36,
      "start": 5.4052,
      "duration": 0.0634,
      "velocity": 101,
      "chip": "ym2612"
    },
    {
      "channel": 4,
      "note": 55,
      "start": 5.6046,
      "duration": 0.0973,
      "velocity": 127,
      "chip": "ym2612"
    },
    {
      "channel": 5,
      "note": 36,
      "start": 5.6046,
      "duration": 0.0639,
      "velocity": 101,
      "chip": "ym2612"
    },
    {
      "channel": 4,
      "note": 55,
      "start": 5.8046,
      "duration": 0.0973,
      "velocity": 127,
      "chip": "ym2612"
    },
    {
      "channel": 5,
      "note": 36,
      "start": 5.8046,
      "duration": 0.0639,
      "velocity": 101,
      "chip": "ym2612"
    },
    {
      "channel": 0,
      "note": 81,
      "start": 6.0057,
      "duration": 0.3461,
      "velocity": 85,
      "chip": "ym2612"
    },
    {
      "channel": 1,
      "note": 57,
      "start": 6.0058,
      "duration": 0.1994,
      "velocity": 92,
      "chip": "ym2612"
    },
    {
      "channel": 4,
      "note": 55,
      "start": 6.0059,
      "duration": 0.0959,
      "velocity": 127,
      "chip": "ym2612"
    },
    {
      "channel": 5,
      "note": 36,
      "start": 6.006,
      "duration": 0.0626,
      "velocity": 101,
      "chip": "ym2612"
    },
    {
      "channel": 1,
      "note": 59,
      "start": 6.2053,
      "duration": 0.2085,
      "velocity": 92,
      "chip": "ym2612"
    },
    {
      "channel": 4,
      "note": 55,
      "start": 6.2053,
      "duration": 0.0965,
      "velocity": 127,
      "chip": "ym2612"
    },
    {
      "channel": 5,
      "note": 36,
      "start": 6.2054,
      "duration": 0.0632,
      "velocity": 101,
      "chip": "ym2612"
    },
    {
      "channel": 0,
      "note": 88,
      "start": 6.4137,
      "duration": 0.5048,
      "velocity": 85,
      "chip": "ym2612"
    },
    {
      "channel": 1,
      "note": 64,
      "start": 6.4138,
      "duration": 0.3932,
      "velocity": 92,
      "chip": "ym2612"
    },
    {
      "channel": 2,
      "note": 88,
      "start": 6.4139,
      "duration": 0.9899,
      "velocity": 127,
      "chip": "ym2612"
    },
    {
      "channel": 4,
      "note": 36,
      "start": 6.414,
      "duration": 0.1379,
      "velocity": 101,
      "chip": "ym2612"
    },
    {
      "channel": 5,
      "note": 85,
      "start": 6.414,
      "duration": 0.0545,
      "velocity": 114,
      "chip": "ym2612"
    },
    {
      "channel": 5,
      "note": 85,
      "start": 6.6027,
      "duration": 0.0658,
      "velocity": 114,
      "chip": "ym2612"
    },
    {
      "channel": 1,
      "note": 64,
      "start": 6.807,
      "duration": 0.4001,
      "velocity": 92,
      "chip": "ym2612"
    },
    {
      "channel": 4,
      "note": 55,
      "start": 6.8071,
      "duration": 0.1963,
      "velocity": 127,
      "chip": "ym2612"
    },
    {
      "channel": 5,
      "note": 85,
      "start": 6.8072,
      "duration": 0.0615,
      "velocity": 114,
      "chip": "ym2612"
    },
    {
      "channel": 0,
      "note": 83,
      "start": 7.0033,
      "duration": 0.5153,
      "velocity": 85,
      "chip": "ym2612"
    },
    {
      "channel": 5,
      "note": 85,
      "start": 7.0034,
      "duration": 0.0652,
      "velocity": 114,
      "chip": "ym2612"
    },
    {
      "channel": 1,
      "note": 64,
      "start": 7.2072,
      "duration": 0.4009,
      "velocity": 92,
      "chip": "ym2612"
    },
    {
      "channel": 4,
      "note": 36,
      "start": 7.2073,
      "duration": 0.0613,
      "velocity": 101,
      "chip": "ym2612"
    },
    {
      "channel": 5,
      "note": 85,
      "start": 7.2074,
      "duration": 0.0613,
      "velocity": 114,
      "chip": "ym2612"
    },
    {
      "channel": 2,
      "note": 88,
      "start": 7.4039,
      "duration": 0.2044,
      "velocity": 127,
      "chip": "ym2612"
    },
    {
      "channel": 4,
      "note": 36,
      "start": 7.404,
      "duration": 0.0646,
      "velocity": 101,
      "chip": "ym2612"
    },
    {
      "channel": 5,
      "note": 85,
      "start": 7.404,
      "duration": 0.0646,
      "velocity": 114,
      "chip": "ym2612"
    },
    {
      "channel": 0,
      "note": 92,
      "start": 7.608,
      "duration": 0.3438,
      "velocity": 85,
      "chip": "ym2612"
    },
    {
      "channel": 1,
      "note": 64,
      "start": 7.6082,
      "duration": 0.4035,
      "velocity": 92,
      "chip": "ym2612"
    },
    {
      "channel": 2,
      "note": 90,
      "start": 7.6083,
      "duration": 0.1951,
      "velocity": 127,
      "chip": "ym2612"
    },
    {
      "channel": 4,
      "note": 55,
      "start": 7.6084,
      "duration": 0.1952,
      "velocity": 127,
      "chip": "ym2612"
    },
    {
      "channel": 5,
      "note": 85,
      "start": 7.6084,
      "duration": 0.0601,
      "velocity": 114,
      "chip": "ym2612"
    },
    {
      "channel": 2,
      "note": 92,
      "start": 7.8034,
      "duration": 0.2083,
      "velocity": 127,
      "chip": "ym2612"
    },
    {
      "channel": 5,
      "note": 85,
      "start": 7.8036,
      "duration": 0.065,
      "velocity": 114,
      "chip": "ym2612"
    },
    {
      "channel": 0,
      "note": 88,
      "start": 8.0116,
      "duration": 0.5069,
      "velocity": 85,
      "chip": "ym2612"
    },
    {
      "channel": 1,
      "note": 64,
      "start": 8.0117,
      "duration": 0.3952,
      "velocity": 92,
      "chip": "ym2612"
    },
    {
      "channel": 2,
      "note": 93,
      "start": 8.0118,
      "duration": 0.5922,
      "velocity": 127,
      "chip": "ym2612"
    },
    {
      "channel": 4,
      "note": 36,
      "start": 8.0119,
      "duration": 0.14,
      "velocity": 101,
      "chip": "ym2612"
    },
    {
      "channel": 5,
      "note": 85,
      "start": 8.0119,
      "duration": 0.0566,
      "velocity": 114,
      "chip": "ym2612"
    },
    {
      "channel": 5,
      "note": 85,
      "start": 8.2028,
      "duration": 0.0659,
      "velocity": 114,
      "chip": "ym2612"
    },
    {
      "channel": 1,
      "note": 64,
      "start": 8.407,
      "duration": 0.3997,
      "velocity": 92,
      "chip": "ym2612"
    },
    {
      "channel": 4,
      "note": 55,
      "start": 8.4071,
      "duration": 0.197,
      "velocity": 127,
      "chip": "ym2612"
    },
    {
      "channel": 5,
      "note": 85,
      "start": 8.4072,
      "duration": 0.0615,
      "velocity": 114,
      "chip": "ym2612"
    },
    {
      "channel": 0,
      "note": 83,
      "start": 8.6039,
      "duration": 0.5146,
      "velocity": 85,
      "chip": "ym2612"
    },
    {
      "channel": 2,
      "note": 92,
      "start": 8.604,
      "duration": 0.6041,
      "velocity": 127,
      "chip": "ym2612"
    },
    {
      "channel": 5,
      "note": 85,
      "start": 8.6042,
      "duration": 0.0644,
      "velocity": 114,
      "chip": "ym2612"
    },
    {
      "channel": 1,
      "note": 64,
      "start": 8.8068,
      "duration": 0.4013,
      "velocity": 92,
      "chip": "ym2612"
    },
    {
      "channel": 4,
      "note": 36,
      "start": 8.8069,
      "duration": 0.0618,
      "velocity": 101,
      "chip": "ym2612"
    },
    {
      "channel": 5,
      "note": 85,
      "start": 8.807,
      "duration": 0.0618,
      "velocity": 114,
      "chip": "ym2612"
    },
    {
      "channel": 4,
      "note": 36,
      "start": 9.0032,
      "duration": 0.0655,
      "velocity": 101,
      "chip": "ym2612"
    },
    {
      "channel": 5,
      "note": 85,
      "start": 9.0033,
      "duration": 0.0654,
      "velocity": 114,
      "chip": "ym2612"
    },
    {
      "channel": 0,
      "note": 83,
      "start": 9.208,
      "duration": 0.3438,
      "velocity": 85,
      "chip": "ym2612"
    },
    {
      "channel": 1,
      "note": 64,
      "start": 9.2081,
      "duration": 0.4037,
      "velocity": 92,
      "chip": "ym2612"
    },
    {
      "channel": 2,
      "note": 88,
      "start": 9.2083,
      "duration": 0.4036,
      "velocity": 127,
      "chip": "ym2612"
    },
    {
      "channel": 4,
      "note": 55,
      "start": 9.2083,
      "duration": 0.1945,
      "velocity": 127,
      "chip": "ym2612"
    },
    {
      "channel": 5,
      "note": 85,
      "start": 9.2084,
      "duration": 0.0602,
      "velocity": 114,
      "chip": "ym2612"
    },
    {
      "channel": 5,
      "note": 85,
      "start": 9.4028,
      "duration": 0.0658,
      "velocity": 114,
      "chip": "ym2612"
    },
    {
      "channel": 0,
      "note": 86,
      "start": 9.6117,
      "duration": 0.5068,
      "velocity": 85,
      "chip": "ym2612"
    },
    {
      "channel": 1,
      "note": 62,
      "start": 9.6119,
      "duration": 0.3951,
      "velocity": 92,
      "chip": "ym2612"
    },
    {
      "channel": 2,
      "note": 86,
      "start": 9.6119,
      "duration": 0.9919,
      "velocity": 127,
      "chip": "ym2612"
    },
    {
      "channel": 3,
      "note": 74,
      "start": 9.6121,
      "duration": 1.5999,
      "velocity": 94,
      "chip": "ym2612"
    },
    {
      "channel": 4,
      "note": 36,
      "start": 9.6121,
      "duration": 0.1398,
      "velocity": 101,
      "chip": "ym2612"
    },
    {
      "channel": 5,
      "note": 85,
      "start": 9.6122,
      "duration": 0.0563,
      "velocity": 114,
      "chip": "ym2612"
    },
    {
      "channel": 5,
      "note": 85,
      "start": 9.8027,
      "duration": 0.0659,
      "velocity": 114,
      "chip": "ym2612"
    },
    {
      "channel": 1,
      "note": 62,
      "start": 10.007,
      "duration": 0.4001,
      "velocity": 92,
      "chip": "ym2612"
    },
    {
      "channel": 4,
      "note": 55,
      "start": 10.0071,
      "duration": 0.1963,
      "velocity": 127,
      "chip": "ym2612"
    },
    {
      "channel": 5,
      "note": 85,
      "start": 10.0072,
      "duration": 0.0615,
      "velocity": 114,
      "chip": "ym2612"
    },
    {
      "channel": 0,
      "note": 85,
      "start": 10.2033,
      "duration": 0.5153,
      "velocity": 85,
      "chip": "ym2612"
    },
    {
      "channel": 5,
      "note": 85,
      "start": 10.2035,
      "duration": 0.0651,
      "velocity": 114,
      "chip": "ym2612"
    },
    {
      "channel": 1,
      "note": 62,
      "start": 10.4072,
      "duration": 0.4009,
      "velocity": 92,
      "chip": "ym2612"
    },
    {
      "channel": 4,
      "note": 36,
      "start": 10.4073,
      "duration": 0.0613,
      "velocity": 101,
      "chip": "ym2612"
    },
    {
      "channel": 5,
      "note": 85,
      "start": 10.4074,
      "duration": 0.0613,
      "velocity": 114,
      "chip": "ym2612"
    },
    {
      "channel": 2,
      "note": 85,
      "start": 10.6038,
      "duration": 0.2044,
      "velocity": 127,
      "chip": "ym2612"
    },
    {
      "channel": 4,
      "note": 36,
      "start": 10.6039,
      "duration": 0.0647,
      "velocity": 101,
      "chip": "ym2612"
    },
    {
      "channel": 5,
      "note": 85,
      "start": 10.604,
      "duration": 0.0647,
      "velocity": 114,
      "chip": "ym2612"
    },
    {
      "channel": 0,
      "note": 88,
      "start": 10.808,
      "duration": 0.3438,
      "velocity": 85,
      "chip": "ym2612"
    },
    {
      "channel": 1,
      "note": 62,
      "start": 10.8081,
      "duration": 0.4037,
      "velocity": 92,
      "chip": "ym2612"
    },
    {
      "channel": 2,
      "note": 86,
      "start": 10.8083,
      "duration": 0.1951,
      "velocity": 127,
      "chip": "ym2612"
    },
    {
      "channel": 4,
      "note": 55,
      "start": 10.8083,
      "duration": 0.1952,
      "velocity": 127,
      "chip": "ym2612"
    },
    {
      "channel": 5,
      "note": 85,
      "start": 10.8084,
      "duration": 0.0602,
      "velocity": 114,
      "chip": "ym2612"
    },
    {
      "channel": 2,
      "note": 88,
      "start": 11.0034,
      "duration": 0.2086,
      "velocity": 127,
      "chip": "ym2612"
    },
    {
      "channel": 5,
      "note": 85,
      "start": 11.0035,
      "duration": 0.065,
      "velocity": 114,
      "chip": "ym2612"
    },
    {
      "channel": 0,
      "note": 86,
      "start": 11.2117,
      "duration": 0.5068,
      "velocity": 85,
      "chip": "ym2612"
    },
    {
      "channel": 1,
      "note": 57,
      "start": 11.2119,
      "duration": 0.3947,
      "velocity": 92,
      "chip": "ym2612"
    },
    {
      "channel": 2,
      "note": 81,
      "start": 11.2119,
      "duration": 1.6002,
      "velocity": 127,
      "chip": "ym2612"
    },
    {
      "channel": 3,
      "note": 76,
      "start": 11.2121,
      "duration": 1.6002,
      "velocity": 94,
      "chip": "ym2612"
    },
    {
      "channel": 4,
      "note": 55,
      "start": 11.2121,
      "duration": 0.0897,
      "velocity": 127,
      "chip": "ym2612"
    },
    {
      "channel": 5,
      "note": 85,
      "start": 11.2122,
      "duration": 0.0563,
      "velocity": 114,
      "chip": "ym2612"
    },
    {
      "channel": 4,
      "note": 36,
      "start": 11.4053,
      "duration": 0.0634,
      "velocity": 101,
      "chip": "ym2612"
    },
    {
      "channel": 5,
      "note": 85,
      "start": 11.4054,
      "duration": 0.0633,
      "velocity": 114,
      "chip": "ym2612"
    },
    {
      "channel": 1,
      "note": 57,
      "start": 11.6066,
      "duration": 0.4007,
      "velocity": 92,
      "chip": "ym2612"
    },
    {
      "channel": 4,
      "note": 55,
      "start": 11.6067,
      "duration": 0.0952,
      "velocity": 127,
      "chip": "ym2612"
    },
    {
      "channel": 5,
      "note": 85,
      "start": 11.6068,
      "duration": 0.0618,
      "velocity": 114,
      "chip": "ym2612"
    },
    {
      "channel": 0,
      "note": 85,
      "start": 11.8058,
      "duration": 0.5127,
      "velocity": 85,
      "chip": "ym2612"
    },
    {
      "channel": 4,
      "note": 36,
      "start": 11.806,
      "duration": 0.0627,
      "velocity": 101,
      "chip": "ym2612"
    },
    {
      "channel": 5,
      "note": 85,
      "start": 11.806,
      "duration": 0.0627,
      "velocity": 114,
      "chip": "ym2612"
    },
    {
      "channel": 1,
      "note": 57,
      "start": 12.0074,
      "duration": 0.3998,
      "velocity": 92,
      "chip": "ym2612"
    },
    {
      "channel": 4,
      "note": 55,
      "start": 12.0075,
      "duration": 0.1944,
      "velocity": 127,
      "chip": "ym2612"
    },
    {
      "channel": 5,
      "note": 85,
      "start": 12.0076,
      "duration": 0.1444,
      "velocity": 114,
      "chip": "ym2612"
    },
    {
      "channel": 0,
      "note": 81,
      "start": 12.4071,
      "duration": 0.3447,
      "velocity": 85,
      "chip": "ym2612"
    },
    {
      "channel": 1,
      "note": 57,
      "start": 12.4072,
      "duration": 0.4048,
      "velocity": 92,
      "chip": "ym2612"
    },
    {
      "channel": 4,
      "note": 55,
      "start": 12.4073,
      "duration": 0.1947,
      "velocity": 127,
      "chip": "ym2612"
    },
    {
      "channel": 5,
      "note": 85,
      "start": 12.4073,
      "duration": 0.1446,
      "velocity": 114,
      "chip": "ym2612"
    },
    {
      "channel": 0,
      "note": 88,
      "start": 12.812,
      "duration": 0.5066,
      "velocity": 85,
      "chip": "ym2612"
    },
    {
      "channel": 1,
      "note": 64,
      "start": 12.8121,
      "duration": 0.3948,
      "velocity": 92,
      "chip": "ym2612"
    },
    {
      "channel": 2,
      "note": 88,
      "start": 12.8122,
      "duration": 0.9916,
      "velocity": 127,
      "chip": "ym2612"
    },
    {
      "channel": 3,
      "note": 88,
      "start": 12.8123,
      "duration": 3.1998,
      "velocity": 94,
      "chip": "ym2612"
    },
    {
      "channel": 4,
      "note": 36,
      "start": 12.8124,
      "duration": 0.1395,
      "velocity": 101,
      "chip": "ym2612"
    },
    {
      "channel": 5,
      "note": 85,
      "start": 12.8124,
      "duration": 0.0561,
      "velocity": 114,
      "chip": "ym2612"
    },
    {
      "channel": 5,
      "note": 85,
      "start": 13.0027,
      "duration": 0.0659,
      "velocity": 114,
      "chip": "ym2612"
    },
    {
      "channel": 1,
      "note": 64,
      "start": 13.207,
      "duration": 0.4002,
      "velocity": 92,
      "chip": "ym2612"
    },
    {
      "channel": 4,
      "note": 55,
      "start": 13.2071,
      "duration": 0.1963,
      "velocity": 127,
      "chip": "ym2612"
    },
    {
      "channel": 5,
      "note": 85,
      "start": 13.2072,
      "duration": 0.0615,
      "velocity": 114,
      "chip": "ym2612"
    },
    {
      "channel": 0,
      "note": 83,
      "start": 13.4033,
      "duration": 0.5153,
      "velocity": 85,
      "chip": "ym2612"
    },
    {
      "channel": 5,
      "note": 85,
      "start": 13.4035,
      "duration": 0.0651,
      "velocity": 114,
      "chip": "ym2612"
    },
    {
      "channel": 1,
      "note": 64,
      "start": 13.6073,
      "duration": 0.4008,
      "velocity": 92,
      "chip": "ym2612"
    },
    {
      "channel": 4,
      "note": 36,
      "start": 13.6073,
      "duration": 0.0613,
      "velocity": 101,
      "chip": "ym2612"
    },
    {
      "channel": 5,
      "note": 85,
      "start": 13.6074,
      "duration": 0.0613,
      "velocity": 114,
      "chip": "ym2612"
    },
    {
      "channel": 2,
      "note": 88,
      "start": 13.8039,
      "duration": 0.2044,
      "velocity": 127,
      "chip": "ym2612"
    },
    {
      "channel": 4,
      "note": 36,
      "start": 13.8039,
      "duration": 0.0648,
      "velocity": 101,
      "chip": "ym2612"
    },
    {
      "channel": 5,
      "note": 85,
      "start": 13.804,
      "duration": 0.0647,
      "velocity": 114,
      "chip": "ym2612"
    },
    {
      "channel": 0,
      "note": 92,
      "start": 14.008,
      "duration": 0.3438,
      "velocity": 85,
      "chip": "ym2612"
    },
    {
      "channel": 1,
      "note": 64,
      "start": 14.0082,
      "duration": 0.403,
      "velocity": 92,
      "chip": "ym2612"
    },
    {
      "channel": 2,
      "note": 90,
      "start": 14.0083,
      "duration": 0.1951,
      "velocity": 127,
      "chip": "ym2612"
    },
    {
      "channel": 4,
      "note": 55,
      "start": 14.0084,
      "duration": 0.1952,
      "velocity": 127,
      "chip": "ym2612"
    },
    {
      "channel": 5,
      "note": 85,
      "start": 14.0084,
      "duration": 0.0602,
      "velocity": 114,
      "chip": "ym2612"
    },
    {
      "channel": 2,
      "note": 92,
      "start": 14.2034,
      "duration": 0.2079,
      "velocity": 127,
      "chip": "ym2612"
    },
    {
      "channel": 5,
      "note": 85,
      "start": 14.2036,
      "duration": 0.065,
      "velocity": 114,
      "chip": "ym2612"
    },
    {
      "channel": 0,
      "note": 88,
      "start": 14.4112,
      "duration": 0.5074,
      "velocity": 85,
      "chip": "ym2612"
    },
    {
      "channel": 1,
      "note": 64,
      "start": 14.4113,
      "duration": 0.3957,
      "velocity": 92,
      "chip": "ym2612"
    },
    {
      "channel": 2,
      "note": 93,
      "start": 14.4114,
      "duration": 0.5926,
      "velocity": 127,
      "chip": "ym2612"
    },
    {
      "channel": 4,
      "note": 36,
      "start": 14.4114,
      "duration": 0.1405,
      "velocity": 101,
      "chip": "ym2612"
    },
    {
      "channel": 5,
      "note": 85,
      "start": 14.4115,
      "duration": 0.0571,
      "velocity": 114,
      "chip": "ym2612"
    },
    {
      "channel": 5,
      "note": 85,
      "start": 14.6028,
      "duration": 0.0659,
      "velocity": 114,
      "chip": "ym2612"
    },
    {
      "channel": 1,
      "note": 64,
      "start": 14.807,
      "duration": 0.3997,
      "velocity": 92,
      "chip": "ym2612"
    },
    {
      "channel": 4,
      "note": 55,
      "start": 14.8071,
      "duration": 0.197,
      "velocity": 127,
      "chip": "ym2612"
    },
    {
      "channel": 5,
      "note": 85,
      "start": 14.8072,
      "duration": 0.0615,
      "velocity": 114,
      "chip": "ym2612"
    },
    {
      "channel": 0,
      "note": 83,
      "start": 15.0039,
      "duration": 0.5146,
      "velocity": 85,
      "chip": "ym2612"
    },
    {
      "channel": 2,
      "note": 92,
      "start": 15.004,
      "duration": 0.6042,
      "velocity": 127,
      "chip": "ym2612"
    },
    {
      "channel": 5,
      "note": 85,
      "start": 15.0042,
      "duration": 0.0644,
      "velocity": 114,
      "chip": "ym2612"
    },
    {
      "channel": 1,
      "note": 64,
      "start": 15.2068,
      "duration": 0.4013,
      "velocity": 92,
      "chip": "ym2612"
    },
    {
      "channel": 4,
      "note": 36,
      "start": 15.2069,
      "duration": 0.0618,
      "velocity": 101,
      "chip": "ym2612"
    },
    {
      "channel": 5,
      "note": 85,
      "start": 15.207,
      "duration": 0.0618,
      "velocity": 114,
      "chip": "ym2612"
    },
    {
      "channel": 4,
      "note": 36,
      "start": 15.4033,
      "duration": 0.0654,
      "velocity": 101,
      "chip": "ym2612"
    },
    {
      "channel": 5,
      "note": 85,
      "start": 15.4034,
      "duration": 0.0654,
      "velocity": 114,
      "chip": "ym2612"
    },
    {
      "channel": 0,
      "note": 83,
      "start": 15.608,
      "duration": 0.3438,
      "velocity": 85,
      "chip": "ym2612"
    },
    {
      "channel": 1,
      "note": 64,
      "start": 15.6082,
      "duration": 0.4037,
      "velocity": 92,
      "chip": "ym2612"
    },
    {
      "channel": 2,
      "note": 88,
      "start": 15.6083,
      "duration": 0.4037,
      "velocity": 127,
      "chip": "ym2612"
    },
    {
      "channel": 4,
      "note": 55,
      "start": 15.6084,
      "duration": 0.1944,
      "velocity": 127,
      "chip": "ym2612"
    },
    {
      "channel": 5,
      "note": 85,
      "start": 15.6084,
      "duration": 0.0601,
      "velocity": 114,
      "chip": "ym2612"
    },
    {
      "channel": 5,
      "note": 85,
      "start": 15.8028,
      "duration": 0.0658,
      "velocity": 114,
      "chip": "ym2612"
    },
    {
      "channel": 0,
      "note": 86,
      "start": 16.0118,
      "duration": 0.5067,
      "velocity": 85,
      "chip": "ym2612"
    },
    {
      "channel": 1,
      "note": 62,
      "start": 16.0119,
      "duration": 0.395,
      "velocity": 92,
      "chip": "ym2612"
    },
    {
      "channel": 2,
      "note": 95,
      "start": 16.012,
      "duration": 1.5999,
      "velocity": 127,
      "chip": "ym2612"
    },
    {
      "channel": 3,
      "note": 86,
      "start": 16.0121,
      "duration": 1.5999,
      "velocity": 94,
      "chip": "ym2612"
    },
    {
      "channel": 4,
      "note": 36,
      "start": 16.0122,
      "duration": 0.1397,
      "velocity": 101,
      "chip": "ym2612"
    },
    {
      "channel": 5,
      "note": 85,
      "start": 16.0122,
      "duration": 0.0563,
      "velocity": 114,
      "chip": "ym2612"
    },
    {
      "channel": 5,
      "note": 85,
      "start": 16.2027,
      "duration": 0.0659,
      "velocity": 114,
      "chip": "ym2612"
    },
    {
      "channel": 1,
      "note": 62,
      "start": 16.407,
      "duration": 0.3997,
      "velocity": 92,
      "chip": "ym2612"
    },
    {
      "channel": 4,
      "note": 55,
      "start": 16.4071,
      "duration": 0.1963,
      "velocity": 127,
      "chip": "ym2612"
    },
    {
      "channel": 5,
      "note": 85,
      "start": 16.4072,
      "duration": 0.0615,
      "velocity": 114,
      "chip": "ym2612"
    },
    {
      "channel": 0,
      "note": 85,
      "start": 16.6033,
      "duration": 0.5153,
      "velocity": 85,
      "chip": "ym2612"
    },
    {
      "channel": 5,
      "note": 85,
      "start": 16.6035,
      "duration": 0.0651,
      "velocity": 114,
      "chip": "ym2612"
    },
    {
      "channel": 1,
      "note": 62,
      "start": 16.8068,
      "duration": 0.4008,
      "velocity": 92,
      "chip": "ym2612"
    },
    {
      "channel": 4,
      "note": 36,
      "start": 16.8069,
      "duration": 0.0618,
      "velocity": 101,
      "chip": "ym2612"
    },
    {
      "channel": 5,
      "note": 85,
      "start": 16.807,
      "duration": 0.0618,
      "velocity": 114,
      "chip": "ym2612"
    },
    {
      "channel": 4,
      "note": 36,
      "start": 17.0032,
      "duration": 0.0655,
      "velocity": 101,
      "chip": "ym2612"
    },
    {
      "channel": 5,
      "note": 85,
      "start": 17.0033,
      "duration": 0.0654,
      "velocity": 114,
      "chip": "ym2612"
    },
    {
      "channel": 0,
      "note": 88,
      "start": 17.2075,
      "duration": 0.3444,
      "velocity": 85,
      "chip": "ym2612"
    },
    {
      "channel": 1,
      "note": 62,
      "start": 17.2076,
      "duration": 0.4041,
      "velocity": 92,
      "chip": "ym2612"
    },
    {
      "channel": 4,
      "note": 55,
      "start": 17.2077,
      "duration": 0.1952,
      "velocity": 127,
      "chip": "ym2612"
    },
    {
      "channel": 5,
      "note": 85,
      "start": 17.2077,
      "duration": 0.0609,
      "velocity": 114,
      "chip": "ym2612"
    },
    {
      "channel": 5,
      "note": 85,
      "start": 17.4029,
      "duration": 0.0657,
      "velocity": 114,
      "chip": "ym2612"
    },
    {
      "channel": 0,
      "note": 86,
      "start": 17.6117,
      "duration": 0.5068,
      "velocity": 85,
      "chip": "ym2612"
    },
    {
      "channel": 1,
      "note": 57,
      "start": 17.6118,
      "duration": 0.3948,
      "velocity": 92,
      "chip": "ym2612"
    },
    {
      "channel": 2,
      "note": 100,
      "start": 17.6119,
      "duration": 1.6022,
      "velocity": 117,
      "chip": "ym2612"
    },
    {
      "channel": 3,
      "note": 88,
      "start": 17.612,
      "duration": 1.6022,
      "velocity": 94,
      "chip": "ym2612"
    },
    {
      "channel": 4,
      "note": 55,
      "start": 17.6121,
      "duration": 0.0898,
      "velocity": 127,
      "chip": "ym2612"
    },
    {
      "channel": 5,
      "note": 85,
      "start": 17.6121,
      "duration": 0.0564,
      "velocity": 114,
      "chip": "ym2612"
    },
    {
      "channel": 4,
      "note": 36,
      "start": 17.8054,
      "duration": 0.0633,
      "velocity": 101,
      "chip": "ym2612"
    },
    {
      "channel": 5,
      "note": 85,
      "start": 17.8054,
      "duration": 0.0633,
      "velocity": 114,
      "chip": "ym2612"
    },
    {
      "channel": 1,
      "note": 57,
      "start": 18.0066,
      "duration": 0.4007,
      "velocity": 92,
      "chip": "ym2612"
    },
    {
      "channel": 4,
      "note": 55,
      "start": 18.0067,
      "duration": 0.0952,
      "velocity": 127,
      "chip": "ym2612"
    },
    {
      "channel": 5,
      "note": 85,
      "start": 18.0068,
      "duration": 0.0618,
      "velocity": 114,
      "chip": "ym2612"
    },
    {
      "channel": 0,
      "note": 85,
      "start": 18.2058,
      "duration": 0.5127,
      "velocity": 85,
      "chip": "ym2612"
    },
    {
      "channel": 4,
      "note": 36,
      "start": 18.206,
      "duration": 0.0627,
      "velocity": 101,
      "chip": "ym2612"
    },
    {
      "channel": 5,
      "note": 85,
      "start": 18.206,
      "duration": 0.0627,
      "velocity": 114,
      "chip": "ym2612"
    },
    {
      "channel": 1,
      "note": 57,
      "start": 18.4074,
      "duration": 0.3998,
      "velocity": 92,
      "chip": "ym2612"
    },
    {
      "channel": 4,
      "note": 55,
      "start": 18.4075,
      "duration": 0.1945,
      "velocity": 127,
      "chip": "ym2612"
    },
    {
      "channel": 5,
      "note": 85,
      "start": 18.4076,
      "duration": 0.1444,
      "velocity": 114,
      "chip": "ym2612"
    },
    {
      "channel": 0,
      "note": 81,
      "start": 18.8071,
      "duration": 0.3448,
      "velocity": 85,
      "chip": "ym2612"
    },
    {
      "channel": 1,
      "note": 57,
      "start": 18.8072,
      "duration": 0.4067,
      "velocity": 92,
      "chip": "ym2612"
    },
    {
      "channel": 4,
      "note": 55,
      "start": 18.8073,
      "duration": 0.1947,
      "velocity": 127,
      "chip": "ym2612"
    },
    {
      "channel": 5,
      "note": 85,
      "start": 18.8073,
      "duration": 0.1446,
      "velocity": 114,
      "chip": "ym2612"
    },
    {
      "channel": 0,
      "note": 83,
      "start": 19.214,
      "duration": 0.3546,
      "velocity": 85,
      "chip": "ym2612"
    },
    {
      "channel": 1,
      "note": 59,
      "start": 19.214,
      "duration": 0.4095,
      "velocity": 92,
      "chip": "ym2612"
    },
    {
      "channel": 2,
      "note": 71,
      "start": 19.2141,
      "duration": 0.4094,
      "velocity": 117,
      "chip": "ym2612"
    },
    {
      "channel": 3,
      "note": 83,
      "start": 19.2142,
      "duration": 1.6091,
      "velocity": 94,
      "chip": "ym2612"
    },
    {
      "channel": 4,
      "note": 55,
      "start": 19.2143,
      "duration": 0.2043,
      "velocity": 127,
      "chip": "ym2612"
    },
    {
      "channel": 5,
      "note": 85,
      "start": 19.2144,
      "duration": 0.1543,
      "velocity": 114,
      "chip": "ym2612"
    },
    {
      "channel": 4,
      "note": 36,
      "start": 19.6236,
      "duration": 0.1451,
      "velocity": 101,
      "chip": "ym2612"
    },
    {
      "channel": 5,
      "note": 85,
      "start": 19.6237,
      "duration": 0.145,
      "velocity": 114,
      "chip": "ym2612"
    },
    {
      "channel": 4,
      "note": 36,
      "start": 20.0196,
      "duration": 0.1491,
      "velocity": 101,
      "chip": "ym2612"
    },
    {
      "channel": 5,
      "note": 85,
      "start": 20.0196,
      "duration": 0.149,
      "velocity": 114,
      "chip": "ym2612"
    },
    {
      "channel": 4,
      "note": 36,
      "start": 20.4203,
      "duration": 0.1483,
      "velocity": 101,
      "chip": "ym2612"
    },
    {
      "channel": 5,
      "note": 85,
      "start": 20.4204,
      "duration": 0.1483,
      "velocity": 114,
      "chip": "ym2612"
    },
    {
      "channel": 5,
      "note": 85,
      "start": 20.8234,
      "duration": 0.1452,
      "velocity": 114,
      "chip": "ym2612"
    },
    {
      "channel": 0,
      "note": 86,
      "start": 21.0236,
      "duration": 0.1616,
      "velocity": 85,
      "chip": "ym2612"
    },
    {
      "channel": 1,
      "note": 57,
      "start": 21.0236,
      "duration": 0.1981,
      "velocity": 92,
      "chip": "ym2612"
    },
    {
      "channel": 2,
      "note": 74,
      "start": 21.0237,
      "duration": 0.1982,
      "velocity": 117,
      "chip": "ym2612"
    },
    {
      "channel": 4,
      "note": 55,
      "start": 21.0238,
      "duration": 0.0948,
      "velocity": 127,
      "chip": "ym2612"
    },
    {
      "channel": 0,
      "note": 85,
      "start": 21.2217,
      "duration": 0.1635,
      "velocity": 85,
      "chip": "ym2612"
    },
    {
      "channel": 1,
      "note": 57,
      "start": 21.2218,
      "duration": 0.1994,
      "velocity": 92,
      "chip": "ym2612"
    },
    {
      "channel": 2,
      "note": 73,
      "start": 21.2219,
      "duration": 0.1995,
      "velocity": 117,
      "chip": "ym2612"
    },
    {
      "channel": 4,
      "note": 55,
      "start": 21.222,
      "duration": 0.0966,
      "velocity": 127,
      "chip": "ym2612"
    },
    {
      "channel": 5,
      "note": 85,
      "start": 21.222,
      "duration": 0.1466,
      "velocity": 114,
      "chip": "ym2612"
    },
    {
      "channel": 0,
      "note": 86,
      "start": 21.4212,
      "duration": 0.1641,
      "velocity": 85,
      "chip": "ym2612"
    },
    {
      "channel": 1,
      "note": 57,
      "start": 21.4213,
      "duration": 0.2004,
      "velocity": 92,
      "chip": "ym2612"
    },
    {
      "channel": 2,
      "note": 74,
      "start": 21.4213,
      "duration": 0.2005,
      "velocity": 117,
      "chip": "ym2612"
    },
    {
      "channel": 4,
      "note": 55,
      "start": 21.4215,
      "duration": 0.0971,
      "velocity": 127,
      "chip": "ym2612"
    },
    {
      "channel": 0,
      "note": 88,
      "start": 21.6217,
      "duration": 0.1635,
      "velocity": 85,
      "chip": "ym2612"
    },
    {
      "channel": 1,
      "note": 57,
      "start": 21.6218,
      "duration": 0.1994,
      "velocity": 92,
      "chip": "ym2612"
    },
    {
      "channel": 2,
      "note": 76,
      "start": 21.6219,
      "duration": 0.1995,
      "velocity": 117,
      "chip": "ym2612"
    },
    {
      "channel": 4,
      "note": 55,
      "start": 21.622,
      "duration": 0.0966,
      "velocity": 127,
      "chip": "ym2612"
    },
    {
      "channel": 5,
      "note": 85,
      "start": 21.622,
      "duration": 0.1466,
      "velocity": 114,
      "chip": "ym2612"
    },
    {
      "channel": 0,
      "note": 90,
      "start": 21.8212,
      "duration": 0.1641,
      "velocity": 85,
      "chip": "ym2612"
    },
    {
      "channel": 1,
      "note": 57,
      "start": 21.8213,
      "duration": 0.2013,
      "velocity": 92,
      "chip": "ym2612"
    },
    {
      "channel": 2,
      "note": 74,
      "start": 21.8213,
      "duration": 0.2013,
      "velocity": 117,
      "chip": "ym2612"
    },
    {
      "channel": 4,
      "note": 55,
      "start": 21.8215,
      "duration": 0.0971,
      "velocity": 127,
      "chip": "ym2612"
    },
    {
      "channel": 0,
      "note": 92,
      "start": 22.0225,
      "duration": 0.1627,
      "velocity": 85,
      "chip": "ym2612"
    },
    {
      "channel": 1,
      "note": 57,
      "start": 22.0226,
      "duration": 0.1982,
      "velocity": 92,
      "chip": "ym2612"
    },
    {
      "channel": 2,
      "note": 71,
      "start": 22.0227,
      "duration": 0.1982,
      "velocity": 117,
      "chip": "ym2612"
    },
    {
      "channel": 4,
      "note": 55,
      "start": 22.0227,
      "duration": 0.1983,
      "velocity": 127,
      "chip": "ym2612"
    },
    {
      "channel": 5,
      "note": 85,
      "start": 22.0228,
      "duration": 0.1458,
      "velocity": 114,
      "chip": "ym2612"
    },
    {
      "channel": 0,
      "note": 93,
      "start": 22.2208,
      "duration": 0.1644,
      "velocity": 85,
      "chip": "ym2612"
    },
    {
      "channel": 1,
      "note": 57,
      "start": 22.2208,
      "duration": 0.2071,
      "velocity": 92,
      "chip": "ym2612"
    },
    {
      "channel": 2,
      "note": 69,
      "start": 22.221,
      "duration": 0.2071,
      "velocity": 117,
      "chip": "ym2612"
    },
    {
      "channel": 0,
      "note": 95,
      "start": 22.428,
      "duration": 0.3406,
      "velocity": 85,
      "chip": "ym2612"
    },
    {
      "channel": 1,
      "note": 59,
      "start": 22.428,
      "duration": 0.3955,
      "velocity": 92,
      "chip": "ym2612"
    },
    {
      "channel": 2,
      "note": 71,
      "start": 22.4282,
      "duration": 0.3954,
      "velocity": 117,
      "chip": "ym2612"
    },
    {
      "channel": 3,
      "note": 83,
      "start": 22.4282,
      "duration": 1.5951,
      "velocity": 94,
      "chip": "ym2612"
    },
    {
      "channel": 4,
      "note": 55,
      "start": 22.4283,
      "duration": 0.1903,
      "velocity": 127,
      "chip": "ym2612"
    },
    {
      "channel": 5,
      "note": 85,
      "start": 22.4283,
      "duration": 0.1403,
      "velocity": 114,
      "chip": "ym2612"
    },
    {
      "channel": 4,
      "note": 36,
      "start": 22.8236,
      "duration": 0.1451,
      "velocity": 101,
      "chip": "ym2612"
    },
    {
      "channel": 5,
      "note": 85,
      "start": 22.8237,
      "duration": 0.145,
      "velocity": 114,
      "chip": "ym2612"
    },
    {
      "channel": 4,
      "note": 36,
      "start": 23.2196,
      "duration": 0.1491,
      "velocity": 101,
      "chip": "ym2612"
    },
    {
      "channel": 5,
      "note": 85,
      "start": 23.2196,
      "duration": 0.1491,
      "velocity": 114,
      "chip": "ym2612"
    },
    {
      "channel": 4,
      "note": 36,
      "start": 23.6203,
      "duration": 0.1483,
      "velocity": 101,
      "chip": "ym2612"
    },
    {
      "channel": 5,
      "note": 85,
      "start": 23.6204,
      "duration": 0.1483,
      "velocity": 114,
      "chip": "ym2612"
    },
    {
      "channel": 5,
      "note": 85,
      "start": 24.0234,
      "duration": 0.1452,
      "velocity": 114,
      "chip": "ym2612"
    },
    {
      "channel": 0,
      "note": 98,
      "start": 24.2236,
      "duration": 0.1616,
      "velocity": 85,
      "chip": "ym2612"
    },
    {
      "channel": 1,
      "note": 62,
      "start": 24.2236,
      "duration": 0.1981,
      "velocity": 92,
      "chip": "ym2612"
    },
    {
      "channel": 2,
      "note": 76,
      "start": 24.2237,
      "duration": 0.1982,
      "velocity": 117,
      "chip": "ym2612"
    },
    {
      "channel": 4,
      "note": 55,
      "start": 24.2238,
      "duration": 0.0948,
      "velocity": 127,
      "chip": "ym2612"
    },
    {
      "channel": 0,
      "note": 97,
      "start": 24.4217,
      "duration": 0.1635,
      "velocity": 85,
      "chip": "ym2612"
    },
    {
      "channel": 1,
      "note": 62,
      "start": 24.4218,
      "duration": 0.1994,
      "velocity": 92,
      "chip": "ym2612"
    },
    {
      "channel": 2,
      "note": 74,
      "start": 24.4219,
      "duration": 0.1994,
      "velocity": 117,
      "chip": "ym2612"
    },
    {
      "channel": 4,
      "note": 55,
      "start": 24.422,
      "duration": 0.0966,
      "velocity": 127,
      "chip": "ym2612"
    },
    {
      "channel": 5,
      "note": 85,
      "start": 24.422,
      "duration": 0.1466,
      "velocity": 114,
      "chip": "ym2612"
    },
    {
      "channel": 0,
      "note": 98,
      "start": 24.6212,
      "duration": 0.164,
      "velocity": 85,
      "chip": "ym2612"
    },
    {
      "channel": 1,
      "note": 62,
      "start": 24.6213,
      "duration": 0.2004,
      "velocity": 92,
      "chip": "ym2612"
    },
    {
      "channel": 2,
      "note": 76,
      "start": 24.6214,
      "duration": 0.2005,
      "velocity": 117,
      "chip": "ym2612"
    },
    {
      "channel": 4,
      "note": 55,
      "start": 24.6215,
      "duration": 0.0971,
      "velocity": 127,
      "chip": "ym2612"
    },
    {
      "channel": 0,
      "note": 100,
      "start": 24.8217,
      "duration": 0.1635,
      "velocity": 85,
      "chip": "ym2612"
    },
    {
      "channel": 1,
      "note": 62,
      "start": 24.8218,
      "duration": 0.1993,
      "velocity": 92,
      "chip": "ym2612"
    },
    {
      "channel": 2,
      "note": 78,
      "start": 24.8219,
      "duration": 0.1992,
      "velocity": 117,
      "chip": "ym2612"
    },
    {
      "channel": 4,
      "note": 55,
      "start": 24.822,
      "duration": 0.0966,
      "velocity": 127,
      "chip": "ym2612"
    },
    {
      "channel": 5,
      "note": 85,
      "start": 24.822,
      "duration": 0.1466,
      "velocity": 114,
      "chip": "ym2612"
    },
    {
      "channel": 0,
      "note": 102,
      "start": 25.021,
      "duration": 0.5142,
      "velocity": 85,
      "chip": "ym2612"
    },
    {
      "channel": 1,
      "note": 64,
      "start": 25.0211,
      "duration": 0.607,
      "velocity": 92,
      "chip": "ym2612"
    },
    {
      "channel": 2,
      "note": 80,
      "start": 25.0212,
      "duration": 0.6069,
      "velocity": 117,
      "chip": "ym2612"
    },
    {
      "channel": 4,
      "note": 55,
      "start": 25.0213,
      "duration": 0.0973,
      "velocity": 127,
      "chip": "ym2612"
    },
    {
      "channel": 4,
      "note": 55,
      "start": 25.2204,
      "duration": 0.1982,
      "velocity": 127,
      "chip": "ym2612"
    },
    {
      "channel": 5,
      "note": 85,
      "start": 25.2205,
      "duration": 0.1482,
      "velocity": 114,
      "chip": "ym2612"
    },
    {
      "channel": 0,
      "note": 88,
      "start": 25.628,
      "duration": 0.5072,
      "velocity": 85,
      "chip": "ym2612"
    },
    {
      "channel": 1,
      "note": 64,
      "start": 25.6282,
      "duration": 0.3955,
      "velocity": 92,
      "chip": "ym2612"
    },
    {
      "channel": 2,
      "note": 76,
      "start": 25.6282,
      "duration": 1.6004,
      "velocity": 117,
      "chip": "ym2612"
    },
    {
      "channel": 3,
      "note": 88,
      "start": 25.6283,
      "duration": 0.9922,
      "velocity": 94,
      "chip": "ym2612"
    },
    {
      "channel": 4,
      "note": 36,
      "start": 25.6283,
      "duration": 0.1402,
      "velocity": 101,
      "chip": "ym2612"
    },
    {
      "channel": 5,
      "note": 85,
      "start": 25.6284,
      "duration": 0.0568,
      "velocity": 114,
      "chip": "ym2612"
    },
    {
      "channel": 5,
      "note": 85,
      "start": 25.8194,
      "duration": 0.0659,
      "velocity": 114,
      "chip": "ym2612"
    },
    {
      "channel": 1,
      "note": 64,
      "start": 26.0237,
      "duration": 0.4001,
      "velocity": 92,
      "chip": "ym2612"
    },
    {
      "channel": 4,
      "note": 55,
      "start": 26.0238,
      "duration": 0.1963,
      "velocity": 127,
      "chip": "ym2612"
    },
    {
      "channel": 5,
      "note": 85,
      "start": 26.0238,
      "duration": 0.0615,
      "velocity": 114,
      "chip": "ym2612"
    },
    {
      "channel": 0,
      "note": 83,
      "start": 26.22,
      "duration": 0.5152,
      "velocity": 85,
      "chip": "ym2612"
    },
    {
      "channel": 5,
      "note": 85,
      "start": 26.2201,
      "duration": 0.0652,
      "velocity": 114,
      "chip": "ym2612"
    },
    {
      "channel": 1,
      "note": 64,
      "start": 26.4239,
      "duration": 0.4009,
      "velocity": 92,
      "chip": "ym2612"
    },
    {
      "channel": 4,
      "note": 36,
      "start": 26.424,
      "duration": 0.0613,
      "velocity": 101,
      "chip": "ym2612"
    },
    {
      "channel": 5,
      "note": 85,
      "start": 26.4241,
      "duration": 0.0613,
      "velocity": 114,
      "chip": "ym2612"
    },
    {
      "channel": 3,
      "note": 88,
      "start": 26.6205,
      "duration": 0.2043,
      "velocity": 94,
      "chip": "ym2612"
    },
    {
      "channel": 4,
      "note": 36,
      "start": 26.6206,
      "duration": 0.0647,
      "velocity": 101,
      "chip": "ym2612"
    },
    {
      "channel": 5,
      "note": 85,
      "start": 26.6207,
      "duration": 0.0647,
      "velocity": 114,
      "chip": "ym2612"
    },
    {
      "channel": 0,
      "note": 92,
      "start": 26.8247,
      "duration": 0.3438,
      "velocity": 85,
      "chip": "ym2612"
    },
    {
      "channel": 1,
      "note": 64,
      "start": 26.8248,
      "duration": 0.4037,
      "velocity": 92,
      "chip": "ym2612"
    },
    {
      "channel": 3,
      "note": 90,
      "start": 26.8249,
      "duration": 0.1951,
      "velocity": 94,
      "chip": "ym2612"
    },
    {
      "channel": 4,
      "note": 55,
      "start": 26.825,
      "duration": 0.1952,
      "velocity": 127,
      "chip": "ym2612"
    },
    {
      "channel": 5,
      "note": 85,
      "start": 26.825,
      "duration": 0.0602,
      "velocity": 114,
      "chip": "ym2612"
    },
    {
      "channel": 3,
      "note": 92,
      "start": 27.0201,
      "duration": 0.2086,
      "velocity": 94,
      "chip": "ym2612"
    },
    {
      "channel": 5,
      "note": 85,
      "start": 27.0203,
      "duration": 0.065,
      "velocity": 114,
      "chip": "ym2612"
    },
    {
      "channel": 0,
      "note": 90,
      "start": 27.2285,
      "duration": 0.5067,
      "velocity": 85,
      "chip": "ym2612"
    },
    {
      "channel": 1,
      "note": 59,
      "start": 27.2286,
      "duration": 0.395,
      "velocity": 92,
      "chip": "ym2612"
    },
    {
      "channel": 2,
      "note": 71,
      "start": 27.2287,
      "duration": 1.5999,
      "velocity": 117,
      "chip": "ym2612"
    },
    {
      "channel": 3,
      "note": 93,
      "start": 27.2288,
      "duration": 0.5919,
      "velocity": 94,
      "chip": "ym2612"
    },
    {
      "channel": 4,
      "note": 36,
      "start": 27.2289,
      "duration": 0.1397,
      "velocity": 101,
      "chip": "ym2612"
    },
    {
      "channel": 5,
      "note": 85,
      "start": 27.2289,
      "duration": 0.0563,
      "velocity": 114,
      "chip": "ym2612"
    },
    {
      "channel": 5,
      "note": 85,
      "start": 27.4194,
      "duration": 0.0659,
      "velocity": 114,
      "chip": "ym2612"
    },
    {
      "channel": 1,
      "note": 59,
      "start": 27.6237,
      "duration": 0.3997,
      "velocity": 92,
      "chip": "ym2612"
    },
    {
      "channel": 4,
      "note": 55,
      "start": 27.6238,
      "duration": 0.197,
      "velocity": 127,
      "chip": "ym2612"
    },
    {
      "channel": 5,
      "note": 85,
      "start": 27.6238,
      "duration": 0.0615,
      "velocity": 114,
      "chip": "ym2612"
    },
    {
      "channel": 0,
      "note": 83,
      "start": 27.8206,
      "duration": 0.5146,
      "velocity": 85,
      "chip": "ym2612"
    },
    {
      "channel": 3,
      "note": 92,
      "start": 27.8207,
      "duration": 0.6041,
      "velocity": 94,
      "chip": "ym2612"
    },
    {
      "channel": 5,
      "note": 85,
      "start": 27.8208,
      "duration": 0.0644,
      "velocity": 114,
      "chip": "ym2612"
    },
    {
      "channel": 1,
      "note": 59,
      "start": 28.0234,
      "duration": 0.4013,
      "velocity": 92,
      "chip": "ym2612"
    },
    {
      "channel": 4,
      "note": 36,
      "start": 28.0235,
      "duration": 0.0618,
      "velocity": 101,
      "chip": "ym2612"
    },
    {
      "channel": 5,
      "note": 85,
      "start": 28.0236,
      "duration": 0.0618,
      "velocity": 114,
      "chip": "ym2612"
    },
    {
      "channel": 4,
      "note": 36,
      "start": 28.2199,
      "duration": 0.0655,
      "velocity": 101,
      "chip": "ym2612"
    },
    {
      "channel": 5,
      "note": 85,
      "start": 28.22,
      "duration": 0.0654,
      "velocity": 114,
      "chip": "ym2612"
    },
    {
      "channel": 0,
      "note": 83,
      "start": 28.4247,
      "duration": 0.3438,
      "velocity": 85,
      "chip": "ym2612"
    },
    {
      "channel": 1,
      "note": 59,
      "start": 28.4248,
      "duration": 0.4037,
      "velocity": 92,
      "chip": "ym2612"
    },
    {
      "channel": 3,
      "note": 88,
      "start": 28.4249,
      "duration": 0.4038,
      "velocity": 94,
      "chip": "ym2612"
    },
    {
      "channel": 4,
      "note": 55,
      "start": 28.425,
      "duration": 0.1945,
      "velocity": 127,
      "chip": "ym2612"
    },
    {
      "channel": 5,
      "note": 85,
      "start": 28.425,
      "duration": 0.0602,
      "velocity": 114,
      "chip": "ym2612"
    },
    {
      "channel": 5,
      "note": 85,
      "start": 28.6195,
      "duration": 0.0658,
      "velocity": 114,
      "chip": "ym2612"
    },
    {
      "channel": 0,
      "note": 81,
      "start": 28.8285,
      "duration": 0.5067,
      "velocity": 85,
      "chip": "ym2612"
    },
    {
      "channel": 1,
      "note": 62,
      "start": 28.8285,
      "duration": 0.3951,
      "velocity": 92,
      "chip": "ym2612"
    },
    {
      "channel": 2,
      "note": 74,
      "start": 28.8287,
      "duration": 1.6,
      "velocity": 117,
      "chip": "ym2612"
    },
    {
      "channel": 3,
      "note": 86,
      "start": 28.8287,
      "duration": 0.9917,
      "velocity": 94,
      "chip": "ym2612"
    },
    {
      "channel": 4,
      "note": 36,
      "start": 28.8288,
      "duration": 0.1398,
      "velocity": 101,
      "chip": "ym2612"
    },
    {
      "channel": 5,
      "note": 85,
      "start": 28.8289,
      "duration": 0.0563,
      "velocity": 114,
      "chip": "ym2612"
    },
    {
      "channel": 5,
      "note": 85,
      "start": 29.0194,
      "duration": 0.0659,
      "velocity": 114,
      "chip": "ym2612"
    },
    {
      "channel": 1,
      "note": 62,
      "start": 29.2237,
      "duration": 0.4001,
      "velocity": 92,
      "chip": "ym2612"
    },
    {
      "channel": 4,
      "note": 55,
      "start": 29.2238,
      "duration": 0.1963,
      "velocity": 127,
      "chip": "ym2612"
    },
    {
      "channel": 5,
      "note": 85,
      "start": 29.2238,
      "duration": 0.0615,
      "velocity": 114,
      "chip": "ym2612"
    },
    {
      "channel": 0,
      "note": 90,
      "start": 29.42,
      "duration": 0.5152,
      "velocity": 85,
      "chip": "ym2612"
    },
    {
      "channel": 5,
      "note": 85,
      "start": 29.4201,
      "duration": 0.0652,
      "velocity": 114,
      "chip": "ym2612"
    },
    {
      "channel": 1,
      "note": 62,
      "start": 29.6239,
      "duration": 0.4009,
      "velocity": 92,
      "chip": "ym2612"
    },
    {
      "channel": 4,
      "note": 36,
      "start": 29.624,
      "duration": 0.0613,
      "velocity": 101,
      "chip": "ym2612"
    },
    {
      "channel": 5,
      "note": 85,
      "start": 29.6241,
      "duration": 0.0613,
      "velocity": 114,
      "chip": "ym2612"
    },
    {
      "channel": 3,
      "note": 85,
      "start": 29.8205,
      "duration": 0.2043,
      "velocity": 94,
      "chip": "ym2612"
    },
    {
      "channel": 4,
      "note": 36,
      "start": 29.8206,
      "duration": 0.0647,
      "velocity": 101,
      "chip": "ym2612"
    },
    {
      "channel": 5,
      "note": 85,
      "start": 29.8207,
      "duration": 0.0647,
      "velocity": 114,
      "chip": "ym2612"
    },
    {
      "channel": 0,
      "note": 90,
      "start": 30.0247,
      "duration": 0.1604,
      "velocity": 85,
      "chip": "ym2612"
    },
    {
      "channel": 1,
      "note": 62,
      "start": 30.0248,
      "duration": 0.4037,
      "velocity": 92,
      "chip": "ym2612"
    },
    {
      "channel": 3,
      "note": 86,
      "start": 30.0249,
      "duration": 0.1957,
      "velocity": 94,
      "chip": "ym2612"
    },
    {
      "channel": 4,
      "note": 55,
      "start": 30.025,
      "duration": 0.1958,
      "velocity": 127,
      "chip": "ym2612"
    },
    {
      "channel": 5,
      "note": 85,
      "start": 30.025,
      "duration": 0.0602,
      "velocity": 114,
      "chip": "ym2612"
    },
    {
      "channel": 0,
      "note": 93,
      "start": 30.2206,
      "duration": 0.1646,
      "velocity": 85,
      "chip": "ym2612"
    },
    {
      "channel": 3,
      "note": 88,
      "start": 30.2207,
      "duration": 0.2081,
      "velocity": 94,
      "chip": "ym2612"
    },
    {
      "channel": 5,
      "note": 85,
      "start": 30.2208,
      "duration": 0.0644,
      "velocity": 114,
      "chip": "ym2612"
    },
    {
      "channel": 0,
      "note": 92,
      "start": 30.4285,
      "duration": 0.5067,
      "velocity": 85,
      "chip": "ym2612"
    },
    {
      "channel": 1,
      "note": 57,
      "start": 30.4286,
      "duration": 0.3947,
      "velocity": 92,
      "chip": "ym2612"
    },
    {
      "channel": 2,
      "note": 69,
      "start": 30.4287,
      "duration": 1.1956,
      "velocity": 117,
      "chip": "ym2612"
    },
    {
      "channel": 3,
      "note": 81,
      "start": 30.4288,
      "duration": 1.5995,
      "velocity": 94,
      "chip": "ym2612"
    },
    {
      "channel": 4,
      "note": 55,
      "start": 30.4289,
      "duration": 0.0897,
      "velocity": 127,
      "chip": "ym2612"
    },
    {
      "channel": 5,
      "note": 85,
      "start": 30.4289,
      "duration": 0.0563,
      "velocity": 114,
      "chip": "ym2612"
    },
    {
      "channel": 4,
      "note": 36,
      "start": 30.622,
      "duration": 0.0634,
      "velocity": 101,
      "chip": "ym2612"
    },
    {
      "channel": 5,
      "note": 85,
      "start": 30.622,
      "duration": 0.0634,
      "velocity": 114,
      "chip": "ym2612"
    },
    {
      "channel": 1,
      "note": 57,
      "start": 30.8233,
      "duration": 0.4007,
      "velocity": 92,
      "chip": "ym2612"
    },
    {
      "channel": 4,
      "note": 55,
      "start": 30.8234,
      "duration": 0.0952,
      "velocity": 127,
      "chip": "ym2612"
    },
    {
      "channel": 5,
      "note": 85,
      "start": 30.8234,
      "duration": 0.0618,
      "velocity": 114,
      "chip": "ym2612"
    },
    {
      "channel": 0,
      "note": 90,
      "start": 31.0225,
      "duration": 0.5127,
      "velocity": 85,
      "chip": "ym2612"
    },
    {
      "channel": 4,
      "note": 36,
      "start": 31.0226,
      "duration": 0.0627,
      "velocity": 101,
      "chip": "ym2612"
    },
    {
      "channel": 5,
      "note": 85,
      "start": 31.0227,
      "duration": 0.0627,
      "velocity": 114,
      "chip": "ym2612"
    },
    {
      "channel": 1,
      "note": 57,
      "start": 31.2241,
      "duration": 0.4001,
      "velocity": 92,
      "chip": "ym2612"
    },
    {
      "channel": 4,
      "note": 55,
      "start": 31.2241,
      "duration": 0.1944,
      "velocity": 127,
      "chip": "ym2612"
    },
    {
      "channel": 5,
      "note": 85,
      "start": 31.2242,
      "duration": 0.1444,
      "velocity": 114,
      "chip": "ym2612"
    },
    {
      "channel": 0,
      "note": 88,
      "start": 31.6242,
      "duration": 0.3443,
      "velocity": 85,
      "chip": "ym2612"
    },
    {
      "channel": 1,
      "note": 57,
      "start": 31.6243,
      "duration": 0.195,
      "velocity": 92,
      "chip": "ym2612"
    },
    {
      "channel": 2,
      "note": 71,
      "start": 31.6244,
      "duration": 0.4038,
      "velocity": 117,
      "chip": "ym2612"
    },
    {
      "channel": 4,
      "note": 55,
      "start": 31.6245,
      "duration": 0.1949,
      "velocity": 127,
      "chip": "ym2612"
    },
    {
      "channel": 5,
      "note": 85,
      "start": 31.6245,
      "duration": 0.1441,
      "velocity": 114,
      "chip": "ym2612"
    },
    {
      "channel": 1,
      "note": 59,
      "start": 31.8193,
      "duration": 0.2088,
      "velocity": 92,
      "chip": "ym2612"
    },
    {
      "channel": 0,
      "note": 88,
      "start": 32.028,
      "duration": 0.5072,
      "velocity": 85,
      "chip": "ym2612"
    },
    {
      "channel": 1,
      "note": 64,
      "start": 32.0282,
      "duration": 0.3955,
      "velocity": 92,
      "chip": "ym2612"
    },
    {
      "channel": 2,
      "note": 76,
      "start": 32.0282,
      "duration": 1.6004,
      "velocity": 117,
      "chip": "ym2612"
    },
    {
      "channel": 3,
      "note": 88,
      "start": 32.0283,
      "duration": 0.9921,
      "velocity": 94,
      "chip": "ym2612"
    },
    {
      "channel": 4,
      "note": 36,
      "start": 32.0284,
      "duration": 0.1401,
      "velocity": 101,
      "chip": "ym2612"
    },
    {
      "channel": 5,
      "note": 85,
      "start": 32.0285,
      "duration": 0.0567,
      "velocity": 114,
      "chip": "ym2612"
    },
    {
      "channel": 5,
      "note": 85,
      "start": 32.2194,
      "duration": 0.0659,
      "velocity": 114,
      "chip": "ym2612"
    },
    {
      "channel": 1,
      "note": 64,
      "start": 32.4237,
      "duration": 0.4001,
      "velocity": 92,
      "chip": "ym2612"
    },
    {
      "channel": 4,
      "note": 55,
      "start": 32.4238,
      "duration": 0.1963,
      "velocity": 127,
      "chip": "ym2612"
    },
    {
      "channel": 5,
      "note": 85,
      "start": 32.4238,
      "duration": 0.0615,
      "velocity": 114,
      "chip": "ym2612"
    },
    {
      "channel": 0,
      "note": 83,
      "start": 32.62,
      "duration": 0.5152,
      "velocity": 85,
      "chip": "ym2612"
    },
    {
      "channel": 5,
      "note": 85,
      "start": 32.6201,
      "duration": 0.0652,
      "velocity": 114,
      "chip": "ym2612"
    },
    {
      "channel": 1,
      "note": 64,
      "start": 32.8239,
      "duration": 0.4009,
      "velocity": 92,
      "chip": "ym2612"
    },
    {
      "channel": 4,
      "note": 36,
      "start": 32.824,
      "duration": 0.0613,
      "velocity": 101,
      "chip": "ym2612"
    },
    {
      "channel": 5,
      "note": 85,
      "start": 32.8241,
      "duration": 0.0613,
      "velocity": 114,
      "chip": "ym2612"
    },
    {
      "channel": 3,
      "note": 88,
      "start": 33.0205,
      "duration": 0.2043,
      "velocity": 94,
      "chip": "ym2612"
    },
    {
      "channel": 4,
      "note": 36,
      "start": 33.0206,
      "duration": 0.0647,
      "velocity": 101,
      "chip": "ym2612"
    },
    {
      "channel": 5,
      "note": 85,
      "start": 33.0207,
      "duration": 0.0647,
      "velocity": 114,
      "chip": "ym2612"
    },
    {
      "channel": 0,
      "note": 92,
      "start": 33.2247,
      "duration": 0.3438,
      "velocity": 85,
      "chip": "ym2612"
    },
    {
      "channel": 1,
      "note": 64,
      "start": 33.2248,
      "duration": 0.4037,
      "velocity": 92,
      "chip": "ym2612"
    },
    {
      "channel": 3,
      "note": 90,
      "start": 33.2249,
      "duration": 0.1951,
      "velocity": 94,
      "chip": "ym2612"
    },
    {
      "channel": 4,
      "note": 55,
      "start": 33.225,
      "duration": 0.1952,
      "velocity": 127,
      "chip": "ym2612"
    },
    {
      "channel": 5,
      "note": 85,
      "start": 33.225,
      "duration": 0.0602,
      "velocity": 114,
      "chip": "ym2612"
    },
    {
      "channel": 3,
      "note": 92,
      "start": 33.4201,
      "duration": 0.2086,
      "velocity": 94,
      "chip": "ym2612"
    },
    {
      "channel": 5,
      "note": 85,
      "start": 33.4203,
      "duration": 0.065,
      "velocity": 114,
      "chip": "ym2612"
    },
    {
      "channel": 0,
      "note": 90,
      "start": 33.6285,
      "duration": 0.5067,
      "velocity": 85,
      "chip": "ym2612"
    },
    {
      "channel": 1,
      "note": 59,
      "start": 33.6286,
      "duration": 0.395,
      "velocity": 92,
      "chip": "ym2612"
    },
    {
      "channel": 2,
      "note": 71,
      "start": 33.6287,
      "duration": 1.6,
      "velocity": 117,
      "chip": "ym2612"
    },
    {
      "channel": 3,
      "note": 93,
      "start": 33.6288,
      "duration": 0.5919,
      "velocity": 94,
      "chip": "ym2612"
    },
    {
      "channel": 4,
      "note": 36,
      "start": 33.6289,
      "duration": 0.1397,
      "velocity": 101,
      "chip": "ym2612"
    },
    {
      "channel": 5,
      "note": 85,
      "start": 33.6289,
      "duration": 0.0563,
      "velocity": 114,
      "chip": "ym2612"
    },
    {
      "channel": 5,
      "note": 85,
      "start": 33.8194,
      "duration": 0.0659,
      "velocity": 114,
      "chip": "ym2612"
    },
    {
      "channel": 1,
      "note": 59,
      "start": 34.0237,
      "duration": 0.3997,
      "velocity": 92,
      "chip": "ym2612"
    },
    {
      "channel": 4,
      "note": 55,
      "start": 34.0238,
      "duration": 0.197,
      "velocity": 127,
      "chip": "ym2612"
    },
    {
      "channel": 5,
      "note": 85,
      "start": 34.0238,
      "duration": 0.0615,
      "velocity": 114,
      "chip": "ym2612"
    },
    {
      "channel": 0,
      "note": 85,
      "start": 34.2206,
      "duration": 0.5146,
      "velocity": 85,
      "chip": "ym2612"
    },
    {
      "channel": 3,
      "note": 92,
      "start": 34.2207,
      "duration": 0.6041,
      "velocity": 94,
      "chip": "ym2612"
    },
    {
      "channel": 5,
      "note": 85,
      "start": 34.2208,
      "duration": 0.0644,
      "velocity": 114,
      "chip": "ym2612"
    },
    {
      "channel": 1,
      "note": 59,
      "start": 34.4234,
      "duration": 0.4013,
      "velocity": 92,
      "chip": "ym2612"
    },
    {
      "channel": 4,
      "note": 36,
      "start": 34.4235,
      "duration": 0.0618,
      "velocity": 101,
      "chip": "ym2612"
    },
    {
      "channel": 5,
      "note": 85,
      "start": 34.4236,
      "duration": 0.0618,
      "velocity": 114,
      "chip": "ym2612"
    },
    {
      "channel": 4,
      "note": 36,
      "start": 34.6199,
      "duration": 0.0655,
      "velocity": 101,
      "chip": "ym2612"
    },
    {
      "channel": 5,
      "note": 85,
      "start": 34.62,
      "duration": 0.0654,
      "velocity": 114,
      "chip": "ym2612"
    },
    {
      "channel": 0,
      "note": 92,
      "start": 34.8247,
      "duration": 0.3438,
      "velocity": 85,
      "chip": "ym2612"
    },
    {
      "channel": 1,
      "note": 59,
      "start": 34.8248,
      "duration": 0.4037,
      "velocity": 92,
      "chip": "ym2612"
    },
    {
      "channel": 3,
      "note": 88,
      "start": 34.8249,
      "duration": 0.4039,
      "velocity": 94,
      "chip": "ym2612"
    },
    {
      "channel": 4,
      "note": 55,
      "start": 34.825,
      "duration": 0.1945,
      "velocity": 127,
      "chip": "ym2612"
    },
    {
      "channel": 5,
      "note": 85,
      "start": 34.825,
      "duration": 0.0602,
      "velocity": 114,
      "chip": "ym2612"
    },
    {
      "channel": 5,
      "note": 85,
      "start": 35.0195,
      "duration": 0.0658,
      "velocity": 114,
      "chip": "ym2612"
    },
    {
      "channel": 0,
      "note": 93,
      "start": 35.2285,
      "duration": 0.5068,
      "velocity": 85,
      "chip": "ym2612"
    },
    {
      "channel": 1,
      "note": 57,
      "start": 35.2286,
      "duration": 0.395,
      "velocity": 92,
      "chip": "ym2612"
    },
    {
      "channel": 2,
      "note": 69,
      "start": 35.2287,
      "duration": 1.5996,
      "velocity": 117,
      "chip": "ym2612"
    },
    {
      "channel": 3,
      "note": 95,
      "start": 35.2288,
      "duration": 1.5997,
      "velocity": 94,
      "chip": "ym2612"
    },
    {
      "channel": 4,
      "note": 36,
      "start": 35.2289,
      "duration": 0.1397,
      "velocity": 101,
      "chip": "ym2612"
    },
    {
      "channel": 5,
      "note": 85,
      "start": 35.2289,
      "duration": 0.0563,
      "velocity": 114,
      "chip": "ym2612"
    },
    {
      "channel": 5,
      "note": 85,
      "start": 35.4194,
      "duration": 0.0659,
      "velocity": 114,
      "chip": "ym2612"
    },
    {
      "channel": 1,
      "note": 57,
      "start": 35.6237,
      "duration": 0.3997,
      "velocity": 92,
      "chip": "ym2612"
    },
    {
      "channel": 4,
      "note": 55,
      "start": 35.6238,
      "duration": 0.1964,
      "velocity": 127,
      "chip": "ym2612"
    },
    {
      "channel": 5,
      "note": 85,
      "start": 35.6238,
      "duration": 0.0615,
      "velocity": 114,
      "chip": "ym2612"
    },
    {
      "channel": 0,
      "note": 92,
      "start": 35.82,
      "duration": 0.5152,
      "velocity": 85,
      "chip": "ym2612"
    },
    {
      "channel": 5,
      "note": 85,
      "start": 35.8202,
      "duration": 0.0651,
      "velocity": 114,
      "chip": "ym2612"
    },
    {
      "channel": 1,
      "note": 57,
      "start": 36.0234,
      "duration": 0.4008,
      "velocity": 92,
      "chip": "ym2612"
    },
    {
      "channel": 4,
      "note": 36,
      "start": 36.0236,
      "duration": 0.0618,
      "velocity": 101,
      "chip": "ym2612"
    },
    {
      "channel": 5,
      "note": 85,
      "start": 36.0236,
      "duration": 0.0618,
      "velocity": 114,
      "chip": "ym2612"
    },
    {
      "channel": 4,
      "note": 36,
      "start": 36.22,
      "duration": 0.0654,
      "velocity": 101,
      "chip": "ym2612"
    },
    {
      "channel": 5,
      "note": 85,
      "start": 36.22,
      "duration": 0.0654,
      "velocity": 114,
      "chip": "ym2612"
    },
    {
      "channel": 0,
      "note": 90,
      "start": 36.4241,
      "duration": 0.3444,
      "velocity": 85,
      "chip": "ym2612"
    },
    {
      "channel": 1,
      "note": 57,
      "start": 36.4242,
      "duration": 0.404,
      "velocity": 92,
      "chip": "ym2612"
    },
    {
      "channel": 4,
      "note": 55,
      "start": 36.4243,
      "duration": 0.1952,
      "velocity": 127,
      "chip": "ym2612"
    },
    {
      "channel": 5,
      "note": 85,
      "start": 36.4244,
      "duration": 0.0609,
      "velocity": 114,
      "chip": "ym2612"
    },
    {
      "channel": 5,
      "note": 85,
      "start": 36.6196,
      "duration": 0.0657,
      "velocity": 114,
      "chip": "ym2612"
    },
    {
      "channel": 0,
      "note": 88,
      "start": 36.8282,
      "duration": 1.3904,
      "velocity": 85,
      "chip": "ym2612"
    },
    {
      "channel": 1,
      "note": 64,
      "start": 36.8283,
      "duration": 0.3946,
      "velocity": 92,
      "chip": "ym2612"
    },
    {
      "channel": 2,
      "note": 76,
      "start": 36.8284,
      "duration": 1.6002,
      "velocity": 117,
      "chip": "ym2612"
    },
    {
      "channel": 3,
      "note": 100,
      "start": 36.8285,
      "duration": 1.6002,
      "velocity": 94,
      "chip": "ym2612"
    },
    {
      "channel": 4,
      "note": 55,
      "start": 36.8285,
      "duration": 0.09,
      "velocity": 127,
      "chip": "ym2612"
    },
    {
      "channel": 5,
      "note": 85,
      "start": 36.8286,
      "duration": 0.0566,
      "velocity": 114,
      "chip": "ym2612"
    },
    {
      "channel": 4,
      "note": 36,
      "start": 37.022,
      "duration": 0.0634,
      "velocity": 101,
      "chip": "ym2612"
    },
    {
      "channel": 5,
      "note": 85,
      "start": 37.022,
      "duration": 0.0634,
      "velocity": 114,
      "chip": "ym2612"
    },
    {
      "channel": 1,
      "note": 64,
      "start": 37.2229,
      "duration": 0.4007,
      "velocity": 92,
      "chip": "ym2612"
    },
    {
      "channel": 4,
      "note": 55,
      "start": 37.223,
      "duration": 0.0956,
      "velocity": 127,
      "chip": "ym2612"
    },
    {
      "channel": 5,
      "note": 85,
      "start": 37.2231,
      "duration": 0.0622,
      "velocity": 114,
      "chip": "ym2612"
    },
    {
      "channel": 4,
      "note": 36,
      "start": 37.422,
      "duration": 0.0633,
      "velocity": 101,
      "chip": "ym2612"
    },
    {
      "channel": 5,
      "note": 85,
      "start": 37.4221,
      "duration": 0.0633,
      "velocity": 114,
      "chip": "ym2612"
    },
    {
      "channel": 1,
      "note": 64,
      "start": 37.6237,
      "duration": 0.8048,
      "velocity": 92,
      "chip": "ym2612"
    },
    {
      "channel": 4,
      "note": 55,
      "start": 37.6238,
      "duration": 0.1948,
      "velocity": 127,
      "chip": "ym2612"
    },
    {
      "channel": 5,
      "note": 85,
      "start": 37.6238,
      "duration": 0.1448,
      "velocity": 114,
      "chip": "ym2612"
    },
    {
      "channel": 4,
      "note": 55,
      "start": 38.0222,
      "duration": 0.1965,
      "velocity": 127,
      "chip": "ym2612"
    },
    {
      "channel": 5,
      "note": 85,
      "start": 38.0223,
      "duration": 0.1463,
      "velocity": 114,
      "chip": "ym2612"
    },
    {
      "channel": 0,
      "note": 90,
      "start": 38.4284,
      "duration": 0.1567,
      "velocity": 85,
      "chip": "ym2612"
    },
    {
      "channel": 1,
      "note": 66,
      "start": 38.4285,
      "duration": 0.1923,
      "velocity": 92,
      "chip": "ym2612"
    },
    {
      "channel": 2,
      "note": 78,
      "start": 38.4287,
      "duration": 0.1923,
      "velocity": 117,
      "chip": "ym2612"
    },
    {
      "channel": 3,
      "note": 90,
      "start": 38.4287,
      "duration": 0.7924,
      "velocity": 94,
      "chip": "ym2612"
    },
    {
      "channel": 4,
      "note": 55,
      "start": 38.4288,
      "duration": 0.1922,
      "velocity": 127,
      "chip": "ym2612"
    },
    {
      "channel": 5,
      "note": 55,
      "start": 38.4289,
      "duration": 0.1922,
      "velocity": 127,
      "chip": "ym2612"
    },
    {
      "channel": 0,
      "note": 90,
      "start": 38.6208,
      "duration": 0.1643,
      "velocity": 85,
      "chip": "ym2612"
    },
    {
      "channel": 1,
      "note": 66,
      "start": 38.6209,
      "duration": 0.2001,
      "velocity": 92,
      "chip": "ym2612"
    },
    {
      "channel": 0,
      "note": 90,
      "start": 38.8209,
      "duration": 0.1642,
      "velocity": 85,
      "chip": "ym2612"
    },
    {
      "channel": 1,
      "note": 66,
      "start": 38.821,
      "duration": 0.1994,
      "velocity": 92,
      "chip": "ym2612"
    },
    {
      "channel": 0,
      "note": 90,
      "start": 39.0204,
      "duration": 0.1648,
      "velocity": 85,
      "chip": "ym2612"
    },
    {
      "channel": 1,
      "note": 66,
      "start": 39.0205,
      "duration": 0.2006,
      "velocity": 92,
      "chip": "ym2612"
    },
    {
      "channel": 0,
      "note": 90,
      "start": 39.221,
      "duration": 0.1642,
      "velocity": 85,
      "chip": "ym2612"
    },
    {
      "channel": 1,
      "note": 66,
      "start": 39.2211,
      "duration": 0.2,
      "velocity": 92,
      "chip": "ym2612"
    },
    {
      "channel": 3,
      "note": 90,
      "start": 39.2212,
      "duration": 0.2,
      "velocity": 94,
      "chip": "ym2612"
    },
    {
      "channel": 0,
      "note": 90,
      "start": 39.421,
      "duration": 0.1641,
      "velocity": 85,
      "chip": "ym2612"
    },
    {
      "channel": 1,
      "note": 66,
      "start": 39.4212,
      "duration": 0.2003,
      "velocity": 92,
      "chip": "ym2612"
    },
    {
      "channel": 3,
      "note": 88,
      "start": 39.4212,
      "duration": 0.2005,
      "velocity": 94,
      "chip": "ym2612"
    },
    {
      "channel": 0,
      "note": 90,
      "start": 39.6215,
      "duration": 0.1636,
      "velocity": 85,
      "chip": "ym2612"
    },
    {
      "channel": 1,
      "note": 66,
      "start": 39.6215,
      "duration": 0.1994,
      "velocity": 92,
      "chip": "ym2612"
    },
    {
      "channel": 2,
      "note": 78,
      "start": 39.6216,
      "duration": 0.4012,
      "velocity": 117,
      "chip": "ym2612"
    },
    {
      "channel": 3,
      "note": 90,
      "start": 39.6217,
      "duration": 0.1994,
      "velocity": 94,
      "chip": "ym2612"
    },
    {
      "channel": 0,
      "note": 90,
      "start": 39.8209,
      "duration": 0.1642,
      "velocity": 85,
      "chip": "ym2612"
    },
    {
      "channel": 1,
      "note": 66,
      "start": 39.821,
      "duration": 0.2017,
      "velocity": 92,
      "chip": "ym2612"
    },
    {
      "channel": 3,
      "note": 90,
      "start": 39.8212,
      "duration": 0.2018,
      "velocity": 94,
      "chip": "ym2612"
    },
    {
      "channel": 0,
      "note": 92,
      "start": 40.0227,
      "duration": 0.1625,
      "velocity": 85,
      "chip": "ym2612"
    },
    {
      "channel": 1,
      "note": 68,
      "start": 40.0228,
      "duration": 0.198,
      "velocity": 92,
      "chip": "ym2612"
    },
    {
      "channel": 2,
      "note": 80,
      "start": 40.0229,
      "duration": 0.198,
      "velocity": 117,
      "chip": "ym2612"
    },
    {
      "channel": 3,
      "note": 92,
      "start": 40.023,
      "duration": 1.0046,
      "velocity": 94,
      "chip": "ym2612"
    },
    {
      "channel": 0,
      "note": 92,
      "start": 40.2208,
      "duration": 0.1645,
      "velocity": 85,
      "chip": "ym2612"
    },
    {
      "channel": 1,
      "note": 68,
      "start": 40.2208,
      "duration": 0.2,
      "velocity": 92,
      "chip": "ym2612"
    },
    {
      "channel": 0,
      "note": 92,
      "start": 40.4208,
      "duration": 0.1645,
      "velocity": 85,
      "chip": "ym2612"
    },
    {
      "channel": 1,
      "note": 68,
      "start": 40.4209,
      "duration": 0.1995,
      "velocity": 92,
      "chip": "ym2612"
    },
    {
      "channel": 0,
      "note": 92,
      "start": 40.6205,
      "duration": 0.1648,
      "velocity": 85,
      "chip": "ym2612"
    },
    {
      "channel": 1,
      "note": 68,
      "start": 40.6205,
      "duration": 0.2008,
      "velocity": 92,
      "chip": "ym2612"
    },
    {
      "channel": 0,
      "note": 92,
      "start": 40.8212,
      "duration": 0.164,
      "velocity": 85,
      "chip": "ym2612"
    },
    {
      "channel": 1,
      "note": 68,
      "start": 40.8213,
      "duration": 0.2062,
      "velocity": 92,
      "chip": "ym2612"
    },
    {
      "channel": 0,
      "note": 92,
      "start": 41.0275,
      "duration": 0.1577,
      "velocity": 85,
      "chip": "ym2612"
    },
    {
      "channel": 1,
      "note": 68,
      "start": 41.0276,
      "duration": 0.1949,
      "velocity": 92,
      "chip": "ym2612"
    },
    {
      "channel": 3,
      "note": 90,
      "start": 41.0277,
      "duration": 0.195,
      "velocity": 94,
      "chip": "ym2612"
    },
    {
      "channel": 4,
      "note": 55,
      "start": 41.0278,
      "duration": 0.0409,
      "velocity": 127,
      "chip": "ym2612"
    },
    {
      "channel": 5,
      "note": 55,
      "start": 41.0278,
      "duration": 0.041,
      "velocity": 127,
      "chip": "ym2612"
    },
    {
      "channel": 4,
      "note": 55,
      "start": 41.1196,
      "duration": 0.049,
      "velocity": 127,
      "chip": "ym2612"
    },
    {
      "channel": 5,
      "note": 55,
      "start": 41.1197,
      "duration": 0.049,
      "velocity": 127,
      "chip": "ym2612"
    },
    {
      "channel": 0,
      "note": 92,
      "start": 41.2224,
      "duration": 0.1628,
      "velocity": 85,
      "chip": "ym2612"
    },
    {
      "channel": 1,
      "note": 66,
      "start": 41.2226,
      "duration": 0.1983,
      "velocity": 92,
      "chip": "ym2612"
    },
    {
      "channel": 2,
      "note": 80,
      "start": 41.2226,
      "duration": 0.4062,
      "velocity": 117,
      "chip": "ym2612"
    },
    {
      "channel": 3,
      "note": 92,
      "start": 41.2227,
      "duration": 0.1982,
      "velocity": 94,
      "chip": "ym2612"
    },
    {
      "channel": 4,
      "note": 55,
      "start": 41.2228,
      "duration": 0.1983,
      "velocity": 127,
      "chip": "ym2612"
    },
    {
      "channel": 5,
      "note": 55,
      "start": 41.2229,
      "duration": 0.1983,
      "velocity": 127,
      "chip": "ym2612"
    },
    {
      "channel": 0,
      "note": 92,
      "start": 41.4208,
      "duration": 0.1643,
      "velocity": 85,
      "chip": "ym2612"
    },
    {
      "channel": 1,
      "note": 68,
      "start": 41.4209,
      "duration": 0.2079,
      "velocity": 92,
      "chip": "ym2612"
    },
    {
      "channel": 3,
      "note": 92,
      "start": 41.421,
      "duration": 0.208,
      "velocity": 94,
      "chip": "ym2612"
    },
    {
      "channel": 0,
      "note": 93,
      "start": 41.6287,
      "duration": 0.1565,
      "velocity": 85,
      "chip": "ym2612"
    },
    {
      "channel": 1,
      "note": 69,
      "start": 41.6289,
      "duration": 0.192,
      "velocity": 92,
      "chip": "ym2612"
    },
    {
      "channel": 2,
      "note": 81,
      "start": 41.6289,
      "duration": 0.1921,
      "velocity": 117,
      "chip": "ym2612"
    },
    {
      "channel": 3,
      "note": 93,
      "start": 41.629,
      "duration": 0.9922,
      "velocity": 94,
      "chip": "ym2612"
    },
    {
      "channel": 4,
      "note": 55,
      "start": 41.6291,
      "duration": 0.1919,
      "velocity": 127,
      "chip": "ym2612"
    },
    {
      "channel": 5,
      "note": 55,
      "start": 41.6292,
      "duration": 0.1919,
      "velocity": 127,
      "chip": "ym2612"
    },
    {
      "channel": 0,
      "note": 93,
      "start": 41.8208,
      "duration": 0.1643,
      "velocity": 85,
      "chip": "ym2612"
    },
    {
      "channel": 1,
      "note": 69,
      "start": 41.821,
      "duration": 0.2,
      "velocity": 92,
      "chip": "ym2612"
    },
    {
      "channel": 0,
      "note": 93,
      "start": 42.021,
      "duration": 0.1642,
      "velocity": 85,
      "chip": "ym2612"
    },
    {
      "channel": 1,
      "note": 69,
      "start": 42.021,
      "duration": 0.1994,
      "velocity": 92,
      "chip": "ym2612"
    },
    {
      "channel": 0,
      "note": 93,
      "start": 42.2204,
      "duration": 0.1648,
      "velocity": 85,
      "chip": "ym2612"
    },
    {
      "channel": 1,
      "note": 69,
      "start": 42.2205,
      "duration": 0.2004,
      "velocity": 92,
      "chip": "ym2612"
    },
    {
      "channel": 0,
      "note": 93,
      "start": 42.4209,
      "duration": 0.1643,
      "velocity": 85,
      "chip": "ym2612"
    },
    {
      "channel": 1,
      "note": 69,
      "start": 42.421,
      "duration": 0.2001,
      "velocity": 92,
      "chip": "ym2612"
    },
    {
      "channel": 0,
      "note": 93,
      "start": 42.6211,
      "duration": 0.1641,
      "velocity": 85,
      "chip": "ym2612"
    },
    {
      "channel": 1,
      "note": 69,
      "start": 42.6212,
      "duration": 0.2004,
      "velocity": 92,
      "chip": "ym2612"
    },
    {
      "channel": 3,
      "note": 104,
      "start": 42.6213,
      "duration": 0.2004,
      "velocity": 94,
      "chip": "ym2612"
    },
    {
      "channel": 0,
      "note": 93,
      "start": 42.8215,
      "duration": 0.1637,
      "velocity": 85,
      "chip": "ym2612"
    },
    {
      "channel": 1,
      "note": 69,
      "start": 42.8216,
      "duration": 0.1994,
      "velocity": 92,
      "chip": "ym2612"
    },
    {
      "channel": 2,
      "note": 81,
      "start": 42.8217,
      "duration": 0.4013,
      "velocity": 117,
      "chip": "ym2612"
    },
    {
      "channel": 3,
      "note": 93,
      "start": 42.8218,
      "duration": 0.1993,
      "velocity": 94,
      "chip": "ym2612"
    },
    {
      "channel": 0,
      "note": 93,
      "start": 43.021,
      "duration": 0.1642,
      "velocity": 85,
      "chip": "ym2612"
    },
    {
      "channel": 1,
      "note": 69,
      "start": 43.021,
      "duration": 0.2019,
      "velocity": 92,
      "chip": "ym2612"
    },
    {
      "channel": 3,
      "note": 93,
      "start": 43.0212,
      "duration": 0.2019,
      "velocity": 94,
      "chip": "ym2612"
    },
    {
      "channel": 0,
      "note": 95,
      "start": 43.2228,
      "duration": 0.1623,
      "velocity": 85,
      "chip": "ym2612"
    },
    {
      "channel": 1,
      "note": 71,
      "start": 43.2229,
      "duration": 0.1975,
      "velocity": 92,
      "chip": "ym2612"
    },
    {
      "channel": 2,
      "note": 83,
      "start": 43.223,
      "duration": 0.3982,
      "velocity": 117,
      "chip": "ym2612"
    },
    {
      "channel": 3,
      "note": 95,
      "start": 43.2231,
      "duration": 1.6058,
      "velocity": 94,
      "chip": "ym2612"
    },
    {
      "channel": 0,
      "note": 95,
      "start": 43.4204,
      "duration": 0.1648,
      "velocity": 85,
      "chip": "ym2612"
    },
    {
      "channel": 1,
      "note": 71,
      "start": 43.4205,
      "duration": 0.2006,
      "velocity": 92,
      "chip": "ym2612"
    },
    {
      "channel": 0,
      "note": 95,
      "start": 43.6211,
      "duration": 0.1641,
      "velocity": 85,
      "chip": "ym2612"
    },
    {
      "channel": 1,
      "note": 71,
      "start": 43.6212,
      "duration": 0.1993,
      "velocity": 92,
      "chip": "ym2612"
    },
    {
      "channel": 2,
      "note": 81,
      "start": 43.6213,
      "duration": 0.4,
      "velocity": 117,
      "chip": "ym2612"
    },
    {
      "channel": 0,
      "note": 95,
      "start": 43.8204,
      "duration": 0.1648,
      "velocity": 85,
      "chip": "ym2612"
    },
    {
      "channel": 1,
      "note": 71,
      "start": 43.8205,
      "duration": 0.2007,
      "velocity": 92,
      "chip": "ym2612"
    },
    {
      "channel": 0,
      "note": 95,
      "start": 44.0212,
      "duration": 0.164,
      "velocity": 85,
      "chip": "ym2612"
    },
    {
      "channel": 1,
      "note": 71,
      "start": 44.0213,
      "duration": 0.2053,
      "velocity": 92,
      "chip": "ym2612"
    },
    {
      "channel": 2,
      "note": 80,
      "start": 44.0214,
      "duration": 0.4005,
      "velocity": 117,
      "chip": "ym2612"
    },
    {
      "channel": 0,
      "note": 95,
      "start": 44.2265,
      "duration": 0.1586,
      "velocity": 85,
      "chip": "ym2612"
    },
    {
      "channel": 1,
      "note": 69,
      "start": 44.2266,
      "duration": 0.1952,
      "velocity": 92,
      "chip": "ym2612"
    },
    {
      "channel": 4,
      "note": 55,
      "start": 44.2267,
      "duration": 0.042,
      "velocity": 127,
      "chip": "ym2612"
    },
    {
      "channel": 5,
      "note": 55,
      "start": 44.2268,
      "duration": 0.042,
      "velocity": 127,
      "chip": "ym2612"
    },
    {
      "channel": 4,
      "note": 55,
      "start": 44.3196,
      "duration": 0.049,
      "velocity": 127,
      "chip": "ym2612"
    },
    {
      "channel": 5,
      "note": 55,
      "start": 44.3197,
      "duration": 0.049,
      "velocity": 127,
      "chip": "ym2612"
    },
    {
      "channel": 0,
      "note": 95,
      "start": 44.4218,
      "duration": 0.1634,
      "velocity": 85,
      "chip": "ym2612"
    },
    {
      "channel": 1,
      "note": 68,
      "start": 44.4219,
      "duration": 0.1983,
      "velocity": 92,
      "chip": "ym2612"
    },
    {
      "channel": 2,
      "note": 78,
      "start": 44.422,
      "duration": 0.4069,
      "velocity": 117,
      "chip": "ym2612"
    },
    {
      "channel": 4,
      "note": 55,
      "start": 44.422,
      "duration": 0.1983,
      "velocity": 127,
      "chip": "ym2612"
    },
    {
      "channel": 5,
      "note": 55,
      "start": 44.4221,
      "duration": 0.1983,
      "velocity": 127,
      "chip": "ym2612"
    },
    {
      "channel": 0,
      "note": 95,
      "start": 44.6202,
      "duration": 0.1649,
      "velocity": 85,
      "chip": "ym2612"
    },
    {
      "channel": 1,
      "note": 66,
      "start": 44.6203,
      "duration": 0.2084,
      "velocity": 92,
      "chip": "ym2612"
    },
    {
      "channel": 0,
      "note": 90,
      "start": 44.8287,
      "duration": 0.1565,
      "velocity": 85,
      "chip": "ym2612"
    },
    {
      "channel": 1,
      "note": 66,
      "start": 44.8288,
      "duration": 0.192,
      "velocity": 92,
      "chip": "ym2612"
    },
    {
      "channel": 2,
      "note": 78,
      "start": 44.8289,
      "duration": 0.1921,
      "velocity": 117,
      "chip": "ym2612"
    },
    {
      "channel": 3,
      "note": 90,
      "start": 44.829,
      "duration": 0.7922,
      "velocity": 94,
      "chip": "ym2612"
    },
    {
      "channel": 4,
      "note": 55,
      "start": 44.829,
      "duration": 0.192,
      "velocity": 127,
      "chip": "ym2612"
    },
    {
      "channel": 5,
      "note": 55,
      "start": 44.8291,
      "duration": 0.192,
      "velocity": 127,
      "chip": "ym2612"
    },
    {
      "channel": 0,
      "note": 90,
      "start": 45.0208,
      "duration": 0.1643,
      "velocity": 85,
      "chip": "ym2612"
    },
    {
      "channel": 1,
      "note": 66,
      "start": 45.0209,
      "duration": 0.2001,
      "velocity": 92,
      "chip": "ym2612"
    },
    {
      "channel": 0,
      "note": 90,
      "start": 45.2209,
      "duration": 0.1642,
      "velocity": 85,
      "chip": "ym2612"
    },
    {
      "channel": 1,
      "note": 66,
      "start": 45.221,
      "duration": 0.1994,
      "velocity": 92,
      "chip": "ym2612"
    },
    {
      "channel": 0,
      "note": 90,
      "start": 45.4204,
      "duration": 0.1648,
      "velocity": 85,
      "chip": "ym2612"
    },
    {
      "channel": 1,
      "note": 66,
      "start": 45.4205,
      "duration": 0.2006,
      "velocity": 92,
      "chip": "ym2612"
    },
    {
      "channel": 0,
      "note": 90,
      "start": 45.621,
      "duration": 0.1642,
      "velocity": 85,
      "chip": "ym2612"
    },
    {
      "channel": 1,
      "note": 66,
      "start": 45.6211,
      "duration": 0.2,
      "velocity": 92,
      "chip": "ym2612"
    },
    {
      "channel": 3,
      "note": 90,
      "start": 45.6212,
      "duration": 0.2,
      "velocity": 94,
      "chip": "ym2612"
    },
    {
      "channel": 0,
      "note": 90,
      "start": 45.821,
      "duration": 0.1641,
      "velocity": 85,
      "chip": "ym2612"
    },
    {
      "channel": 1,
      "note": 66,
      "start": 45.8212,
      "duration": 0.2003,
      "velocity": 92,
      "chip": "ym2612"
    },
    {
      "channel": 3,
      "note": 88,
      "start": 45.8212,
      "duration": 0.2005,
      "velocity": 94,
      "chip": "ym2612"
    },
    {
      "channel": 0,
      "note": 90,
      "start": 46.0215,
      "duration": 0.1636,
      "velocity": 85,
      "chip": "ym2612"
    },
    {
      "channel": 1,
      "note": 66,
      "start": 46.0215,
      "duration": 0.1994,
      "velocity": 92,
      "chip": "ym2612"
    },
    {
      "channel": 2,
      "note": 78,
      "start": 46.0216,
      "duration": 0.4012,
      "velocity": 117,
      "chip": "ym2612"
    },
    {
      "channel": 3,
      "note": 90,
      "start": 46.0217,
      "duration": 0.1994,
      "velocity": 94,
      "chip": "ym2612"
    },
    {
      "channel": 0,
      "note": 90,
      "start": 46.2209,
      "duration": 0.1642,
      "velocity": 85,
      "chip": "ym2612"
    },
    {
      "channel": 1,
      "note": 66,
      "start": 46.221,
      "duration": 0.2017,
      "velocity": 92,
      "chip": "ym2612"
    },
    {
      "channel": 3,
      "note": 90,
      "start": 46.2212,
      "duration": 0.2018,
      "velocity": 94,
      "chip": "ym2612"
    },
    {
      "channel": 0,
      "note": 92,
      "start": 46.4227,
      "duration": 0.1625,
      "velocity": 85,
      "chip": "ym2612"
    },
    {
      "channel": 1,
      "note": 68,
      "start": 46.4228,
      "duration": 0.198,
      "velocity": 92,
      "chip": "ym2612"
    },
    {
      "channel": 2,
      "note": 80,
      "start": 46.4229,
      "duration": 0.198,
      "velocity": 117,
      "chip": "ym2612"
    },
    {
      "channel": 3,
      "note": 92,
      "start": 46.423,
      "duration": 1.0046,
      "velocity": 94,
      "chip": "ym2612"
    },
    {
      "channel": 0,
      "note": 92,
      "start": 46.6208,
      "duration": 0.1645,
      "velocity": 85,
      "chip": "ym2612"
    },
    {
      "channel": 1,
      "note": 68,
      "start": 46.6208,
      "duration": 0.2,
      "velocity": 92,
      "chip": "ym2612"
    },
    {
      "channel": 0,
      "note": 92,
      "start": 46.8208,
      "duration": 0.1645,
      "velocity": 85,
      "chip": "ym2612"
    },
    {
      "channel": 1,
      "note": 68,
      "start": 46.8209,
      "duration": 0.1995,
      "velocity": 92,
      "chip": "ym2612"
    },
    {
      "channel": 0,
      "note": 92,
      "start": 47.0205,
      "duration": 0.1648,
      "velocity": 85,
      "chip": "ym2612"
    },
    {
      "channel": 1,
      "note": 68,
      "start": 47.0205,
      "duration": 0.2008,
      "velocity": 92,
      "chip": "ym2612"
    },
    {
      "channel": 0,
      "note": 92,
      "start": 47.2212,
      "duration": 0.164,
      "velocity": 85,
      "chip": "ym2612"
    },
    {
      "channel": 1,
      "note": 68,
      "start": 47.2213,
      "duration": 0.2062,
      "velocity": 92,
      "chip": "ym2612"
    },
    {
      "channel": 0,
      "note": 92,
      "start": 47.4275,
      "duration": 0.1577,
      "velocity": 85,
      "chip": "ym2612"
    },
    {
      "channel": 1,
      "note": 68,
      "start": 47.4276,
      "duration": 0.1949,
      "velocity": 92,
      "chip": "ym2612"
    },
    {
      "channel": 3,
      "note": 90,
      "start": 47.4277,
      "duration": 0.195,
      "velocity": 94,
      "chip": "ym2612"
    },
    {
      "channel": 4,
      "note": 55,
      "start": 47.4278,
      "duration": 0.0409,
      "velocity": 127,
      "chip": "ym2612"
    },
    {
      "channel": 5,
      "note": 55,
      "start": 47.4278,
      "duration": 0.041,
      "velocity": 127,
      "chip": "ym2612"
    },
    {
      "channel": 4,
      "note": 55,
      "start": 47.5196,
      "duration": 0.049,
      "velocity": 127,
      "chip": "ym2612"
    },
    {
      "channel": 5,
      "note": 55,
      "start": 47.5197,
      "duration": 0.049,
      "velocity": 127,
      "chip": "ym2612"
    },
    {
      "channel": 0,
      "note": 92,
      "start": 47.6224,
      "duration": 0.1628,
      "velocity": 85,
      "chip": "ym2612"
    },
    {
      "channel": 1,
      "note": 66,
      "start": 47.6226,
      "duration": 0.1983,
      "velocity": 92,
      "chip": "ym2612"
    },
    {
      "channel": 2,
      "note": 80,
      "start": 47.6226,
      "duration": 0.4062,
      "velocity": 117,
      "chip": "ym2612"
    },
    {
      "channel": 3,
      "note": 92,
      "start": 47.6227,
      "duration": 0.1982,
      "velocity": 94,
      "chip": "ym2612"
    },
    {
      "channel": 4,
      "note": 55,
      "start": 47.6228,
      "duration": 0.1983,
      "velocity": 127,
      "chip": "ym2612"
    },
    {
      "channel": 5,
      "note": 55,
      "start": 47.6229,
      "duration": 0.1983,
      "velocity": 127,
      "chip": "ym2612"
    },
    {
      "channel": 0,
      "note": 92,
      "start": 47.8208,
      "duration": 0.1643,
      "velocity": 85,
      "chip": "ym2612"
    },
    {
      "channel": 1,
      "note": 68,
      "start": 47.8209,
      "duration": 0.2079,
      "velocity": 92,
      "chip": "ym2612"
    },
    {
      "channel": 3,
      "note": 92,
      "start": 47.821,
      "duration": 0.208,
      "velocity": 94,
      "chip": "ym2612"
    },
    {
      "channel": 0,
      "note": 93,
      "start": 48.0287,
      "duration": 0.1565,
      "velocity": 85,
      "chip": "ym2612"
    },
    {
      "channel": 1,
      "note": 69,
      "start": 48.0289,
      "duration": 0.192,
      "velocity": 92,
      "chip": "ym2612"
    },
    {
      "channel": 2,
      "note": 81,
      "start": 48.0289,
      "duration": 0.1921,
      "velocity": 117,
      "chip": "ym2612"
    },
    {
      "channel": 3,
      "note": 93,
      "start": 48.029,
      "duration": 0.9922,
      "velocity": 94,
      "chip": "ym2612"
    },
    {
      "channel": 4,
      "note": 55,
      "start": 48.0291,
      "duration": 0.1919,
      "velocity": 127,
      "chip": "ym2612"
    },
    {
      "channel": 5,
      "note": 55,
      "start": 48.0292,
      "duration": 0.1919,
      "velocity": 127,
      "chip": "ym2612"
    },
    {
      "channel": 0,
      "note": 93,
      "start": 48.2208,
      "duration": 0.1643,
      "velocity": 85,
      "chip": "ym2612"
    },
    {
      "channel": 1,
      "note": 69,
      "start": 48.221,
      "duration": 0.2,
      "velocity": 92,
      "chip": "ym2612"
    },
    {
      "channel": 0,
      "note": 93,
      "start": 48.421,
      "duration": 0.1642,
      "velocity": 85,
      "chip": "ym2612"
    },
    {
      "channel": 1,
      "note": 69,
      "start": 48.421,
      "duration": 0.1994,
      "velocity": 92,
      "chip": "ym2612"
    },
    {
      "channel": 0,
      "note": 93,
      "start": 48.6204,
      "duration": 0.1648,
      "velocity": 85,
      "chip": "ym2612"
    },
    {
      "channel": 1,
      "note": 69,
      "start": 48.6205,
      "duration": 0.2004,
      "velocity": 92,
      "chip": "ym2612"
    },
    {
      "channel": 0,
      "note": 93,
      "start": 48.8209,
      "duration": 0.1643,
      "velocity": 85,
      "chip": "ym2612"
    },
    {
      "channel": 1,
      "note": 69,
      "start": 48.821,
      "duration": 0.2001,
      "velocity": 92,
      "chip": "ym2612"
    },
    {
      "channel": 0,
      "note": 93,
      "start": 49.0211,
      "duration": 0.1641,
      "velocity": 85,
      "chip": "ym2612"
    },
    {
      "channel": 1,
      "note": 69,
      "start": 49.0212,
      "duration": 0.2004,
      "velocity": 92,
      "chip": "ym2612"
    },
    {
      "channel": 3,
      "note": 104,
      "start": 49.0213,
      "duration": 0.2004,
      "velocity": 94,
      "chip": "ym2612"
    },
    {
      "channel": 0,
      "note": 93,
      "start": 49.2215,
      "duration": 0.1637,
      "velocity": 85,
      "chip": "ym2612"
    },
    {
      "channel": 1,
      "note": 69,
      "start": 49.2216,
      "duration": 0.1994,
      "velocity": 92,
      "chip": "ym2612"
    },
    {
      "channel": 2,
      "note": 81,
      "start": 49.2217,
      "duration": 0.4072,
      "velocity": 117,
      "chip": "ym2612"
    },
    {
      "channel": 3,
      "note": 93,
      "start": 49.2218,
      "duration": 0.1993,
      "velocity": 94,
      "chip": "ym2612"
    },
    {
      "channel": 0,
      "note": 93,
      "start": 49.421,
      "duration": 0.1642,
      "velocity": 85,
      "chip": "ym2612"
    },
    {
      "channel": 1,
      "note": 69,
      "start": 49.421,
      "duration": 0.2077,
      "velocity": 92,
      "chip": "ym2612"
    },
    {
      "channel": 3,
      "note": 93,
      "start": 49.4212,
      "duration": 0.2078,
      "velocity": 94,
      "chip": "ym2612"
    },
    {
      "channel": 0,
      "note": 95,
      "start": 49.6287,
      "duration": 0.1565,
      "velocity": 85,
      "chip": "ym2612"
    },
    {
      "channel": 1,
      "note": 71,
      "start": 49.6288,
      "duration": 0.1944,
      "velocity": 92,
      "chip": "ym2612"
    },
    {
      "channel": 2,
      "note": 83,
      "start": 49.6289,
      "duration": 0.395,
      "velocity": 117,
      "chip": "ym2612"
    },
    {
      "channel": 3,
      "note": 95,
      "start": 49.629,
      "duration": 1.5997,
      "velocity": 94,
      "chip": "ym2612"
    },
    {
      "channel": 4,
      "note": 55,
      "start": 49.629,
      "duration": 0.0894,
      "velocity": 127,
      "chip": "ym2612"
    },
    {
      "channel": 5,
      "note": 36,
      "start": 49.6291,
      "duration": 0.0561,
      "velocity": 101,
      "chip": "ym2612"
    },
    {
      "channel": 0,
      "note": 95,
      "start": 49.8231,
      "duration": 0.1621,
      "velocity": 85,
      "chip": "ym2612"
    },
    {
      "channel": 1,
      "note": 71,
      "start": 49.8232,
      "duration": 0.2006,
      "velocity": 92,
      "chip": "ym2612"
    },
    {
      "channel": 4,
      "note": 55,
      "start": 49.8233,
      "duration": 0.0952,
      "velocity": 127,
      "chip": "ym2612"
    },
    {
      "channel": 5,
      "note": 36,
      "start": 49.8234,
      "duration": 0.0619,
      "velocity": 101,
      "chip": "ym2612"
    },
    {
      "channel": 0,
      "note": 95,
      "start": 50.0238,
      "duration": 0.1615,
      "velocity": 85,
      "chip": "ym2612"
    },
    {
      "channel": 1,
      "note": 71,
      "start": 50.0238,
      "duration": 0.1994,
      "velocity": 92,
      "chip": "ym2612"
    },
    {
      "channel": 2,
      "note": 83,
      "start": 50.0239,
      "duration": 0.3998,
      "velocity": 117,
      "chip": "ym2612"
    },
    {
      "channel": 4,
      "note": 55,
      "start": 50.024,
      "duration": 0.0945,
      "velocity": 127,
      "chip": "ym2612"
    },
    {
      "channel": 5,
      "note": 36,
      "start": 50.0241,
      "duration": 0.0611,
      "velocity": 101,
      "chip": "ym2612"
    },
    {
      "channel": 0,
      "note": 95,
      "start": 50.2232,
      "duration": 0.162,
      "velocity": 85,
      "chip": "ym2612"
    },
    {
      "channel": 1,
      "note": 71,
      "start": 50.2233,
      "duration": 0.2004,
      "velocity": 92,
      "chip": "ym2612"
    },
    {
      "channel": 4,
      "note": 55,
      "start": 50.2234,
      "duration": 0.0952,
      "velocity": 127,
      "chip": "ym2612"
    },
    {
      "channel": 5,
      "note": 36,
      "start": 50.2234,
      "duration": 0.0618,
      "velocity": 101,
      "chip": "ym2612"
    },
    {
      "channel": 0,
      "note": 95,
      "start": 50.4236,
      "duration": 0.1616,
      "velocity": 85,
      "chip": "ym2612"
    },
    {
      "channel": 1,
      "note": 71,
      "start": 50.4236,
      "duration": 0.8048,
      "velocity": 92,
      "chip": "ym2612"
    },
    {
      "channel": 2,
      "note": 83,
      "start": 50.4238,
      "duration": 0.8048,
      "velocity": 117,
      "chip": "ym2612"
    },
    {
      "channel": 4,
      "note": 55,
      "start": 50.4238,
      "duration": 0.0947,
      "velocity": 127,
      "chip": "ym2612"
    },
    {
      "channel": 5,
      "note": 36,
      "start": 50.4239,
      "duration": 0.0613,
      "velocity": 101,
      "chip": "ym2612"
    },
    {
      "channel": 0,
      "note": 95,
      "start": 50.6221,
      "duration": 0.1631,
      "velocity": 85,
      "chip": "ym2612"
    },
    {
      "channel": 4,
      "note": 55,
      "start": 50.6222,
      "duration": 0.0963,
      "velocity": 127,
      "chip": "ym2612"
    },
    {
      "channel": 5,
      "note": 36,
      "start": 50.6223,
      "duration": 0.063,
      "velocity": 101,
      "chip": "ym2612"
    },
    {
      "channel": 0,
      "note": 95,
      "start": 50.8221,
      "duration": 0.1631,
      "velocity": 85,
      "chip": "ym2612"
    },
    {
      "channel": 4,
      "note": 55,
      "start": 50.8222,
      "duration": 0.0963,
      "velocity": 127,
      "chip": "ym2612"
    },
    {
      "channel": 5,
      "note": 36,
      "start": 50.8223,
      "duration": 0.063,
      "velocity": 101,
      "chip": "ym2612"
    },
    {
      "channel": 0,
      "note": 95,
      "start": 51.0221,
      "duration": 0.1631,
      "velocity": 85,
      "chip": "ym2612"
    },
    {
      "channel": 4,
      "note": 55,
      "start": 51.0222,
      "duration": 0.0963,
      "velocity": 127,
      "chip": "ym2612"
    },
    {
      "channel": 5,
      "note": 36,
      "start": 51.0223,
      "duration": 0.063,
      "velocity": 101,
      "chip": "ym2612"
    },
    {
      "channel": 0,
      "note": 88,
      "start": 51.2284,
      "duration": 0.5068,
      "velocity": 85,
      "chip": "ym2612"
    },
    {
      "channel": 1,
      "note": 64,
      "start": 51.2285,
      "duration": 0.3951,
      "velocity": 92,
      "chip": "ym2612"
    },
    {
      "channel": 2,
      "note": 76,
      "start": 51.2286,
      "duration": 1.6,
      "velocity": 117,
      "chip": "ym2612"
    },
    {
      "channel": 3,
      "note": 88,
      "start": 51.2287,
      "duration": 0.9918,
      "velocity": 94,
      "chip": "ym2612"
    },
    {
      "channel": 4,
      "note": 36,
      "start": 51.2287,
      "duration": 0.1398,
      "velocity": 101,
      "chip": "ym2612"
    },
    {
      "channel": 5,
      "note": 85,
      "start": 51.2288,
      "duration": 0.0564,
      "velocity": 114,
      "chip": "ym2612"
    },
    {
      "channel": 5,
      "note": 85,
      "start": 51.4194,
      "duration": 0.0659,
      "velocity": 114,
      "chip": "ym2612"
    },
    {
      "channel": 1,
      "note": 64,
      "start": 51.6237,
      "duration": 0.4001,
      "velocity": 92,
      "chip": "ym2612"
    },
    {
      "channel": 4,
      "note": 55,
      "start": 51.6238,
      "duration": 0.1963,
      "velocity": 127,
      "chip": "ym2612"
    },
    {
      "channel": 5,
      "note": 85,
      "start": 51.6238,
      "duration": 0.0615,
      "velocity": 114,
      "chip": "ym2612"
    },
    {
      "channel": 0,
      "note": 83,
      "start": 51.82,
      "duration": 0.5152,
      "velocity": 85,
      "chip": "ym2612"
    },
    {
      "channel": 5,
      "note": 85,
      "start": 51.8201,
      "duration": 0.0652,
      "velocity": 114,
      "chip": "ym2612"
    },
    {
      "channel": 1,
      "note": 64,
      "start": 52.0239,
      "duration": 0.4009,
      "velocity": 92,
      "chip": "ym2612"
    },
    {
      "channel": 4,
      "note": 36,
      "start": 52.024,
      "duration": 0.0613,
      "velocity": 101,
      "chip": "ym2612"
    },
    {
      "channel": 5,
      "note": 85,
      "start": 52.0241,
      "duration": 0.0613,
      "velocity": 114,
      "chip": "ym2612"
    },
    {
      "channel": 3,
      "note": 88,
      "start": 52.2205,
      "duration": 0.2043,
      "velocity": 94,
      "chip": "ym2612"
    },
    {
      "channel": 4,
      "note": 36,
      "start": 52.2206,
      "duration": 0.0647,
      "velocity": 101,
      "chip": "ym2612"
    },
    {
      "channel": 5,
      "note": 85,
      "start": 52.2207,
      "duration": 0.0647,
      "velocity": 114,
      "chip": "ym2612"
    },
    {
      "channel": 0,
      "note": 92,
      "start": 52.4247,
      "duration": 0.3438,
      "velocity": 85,
      "chip": "ym2612"
    },
    {
      "channel": 1,
      "note": 64,
      "start": 52.4248,
      "duration": 0.4037,
      "velocity": 92,
      "chip": "ym2612"
    },
    {
      "channel": 3,
      "note": 90,
      "start": 52.4249,
      "duration": 0.1951,
      "velocity": 94,
      "chip": "ym2612"
    },
    {
      "channel": 4,
      "note": 55,
      "start": 52.425,
      "duration": 0.1952,
      "velocity": 127,
      "chip": "ym2612"
    },
    {
      "channel": 5,
      "note": 85,
      "start": 52.425,
      "duration": 0.0602,
      "velocity": 114,
      "chip": "ym2612"
    },
    {
      "channel": 3,
      "note": 92,
      "start": 52.6201,
      "duration": 0.2086,
      "velocity": 94,
      "chip": "ym2612"
    },
    {
      "channel": 5,
      "note": 85,
      "start": 52.6203,
      "duration": 0.065,
      "velocity": 114,
      "chip": "ym2612"
    },
    {
      "channel": 0,
      "note": 90,
      "start": 52.8285,
      "duration": 0.5067,
      "velocity": 85,
      "chip": "ym2612"
    },
    {
      "channel": 1,
      "note": 59,
      "start": 52.8286,
      "duration": 0.395,
      "velocity": 92,
      "chip": "ym2612"
    },
    {
      "channel": 2,
      "note": 71,
      "start": 52.8287,
      "duration": 1.5999,
      "velocity": 117,
      "chip": "ym2612"
    },
    {
      "channel": 3,
      "note": 93,
      "start": 52.8288,
      "duration": 0.5919,
      "velocity": 94,
      "chip": "ym2612"
    },
    {
      "channel": 4,
      "note": 36,
      "start": 52.8289,
      "duration": 0.1397,
      "velocity": 101,
      "chip": "ym2612"
    },
    {
      "channel": 5,
      "note": 85,
      "start": 52.8289,
      "duration": 0.0563,
      "velocity": 114,
      "chip": "ym2612"
    },
    {
      "channel": 5,
      "note": 85,
      "start": 53.0194,
      "duration": 0.0659,
      "velocity": 114,
      "chip": "ym2612"
    },
    {
      "channel": 1,
      "note": 59,
      "start": 53.2237,
      "duration": 0.3997,
      "velocity": 92,
      "chip": "ym2612"
    },
    {
      "channel": 4,
      "note": 55,
      "start": 53.2238,
      "duration": 0.197,
      "velocity": 127,
      "chip": "ym2612"
    },
    {
      "channel": 5,
      "note": 85,
      "start": 53.2238,
      "duration": 0.0615,
      "velocity": 114,
      "chip": "ym2612"
    },
    {
      "channel": 0,
      "note": 83,
      "start": 53.4206,
      "duration": 0.5146,
      "velocity": 85,
      "chip": "ym2612"
    },
    {
      "channel": 3,
      "note": 92,
      "start": 53.4207,
      "duration": 0.6041,
      "velocity": 94,
      "chip": "ym2612"
    },
    {
      "channel": 5,
      "note": 85,
      "start": 53.4208,
      "duration": 0.0644,
      "velocity": 114,
      "chip": "ym2612"
    },
    {
      "channel": 1,
      "note": 59,
      "start": 53.6234,
      "duration": 0.4013,
      "velocity": 92,
      "chip": "ym2612"
    },
    {
      "channel": 4,
      "note": 36,
      "start": 53.6235,
      "duration": 0.0618,
      "velocity": 101,
      "chip": "ym2612"
    },
    {
      "channel": 5,
      "note": 85,
      "start": 53.6236,
      "duration": 0.0618,
      "velocity": 114,
      "chip": "ym2612"
    },
    {
      "channel": 4,
      "note": 36,
      "start": 53.8199,
      "duration": 0.0655,
      "velocity": 101,
      "chip": "ym2612"
    },
    {
      "channel": 5,
      "note": 85,
      "start": 53.82,
      "duration": 0.0654,
      "velocity": 114,
      "chip": "ym2612"
    },
    {
      "channel": 0,
      "note": 83,
      "start": 54.0247,
      "duration": 0.3438,
      "velocity": 85,
      "chip": "ym2612"
    },
    {
      "channel": 1,
      "note": 59,
      "start": 54.0248,
      "duration": 0.4037,
      "velocity": 92,
      "chip": "ym2612"
    },
    {
      "channel": 3,
      "note": 88,
      "start": 54.0249,
      "duration": 0.4038,
      "velocity": 94,
      "chip": "ym2612"
    },
    {
      "channel": 4,
      "note": 55,
      "start": 54.025,
      "duration": 0.1945,
      "velocity": 127,
      "chip": "ym2612"
    },
    {
      "channel": 5,
      "note": 85,
      "start": 54.025,
      "duration": 0.0602,
      "velocity": 114,
      "chip": "ym2612"
    },
    {
      "channel": 5,
      "note": 85,
      "start": 54.2195,
      "duration": 0.0658,
      "velocity": 114,
      "chip": "ym2612"
    },
    {
      "channel": 0,
      "note": 81,
      "start": 54.4285,
      "duration": 0.5067,
      "velocity": 85,
      "chip": "ym2612"
    },
    {
      "channel": 1,
      "note": 62,
      "start": 54.4285,
      "duration": 0.3951,
      "velocity": 92,
      "chip": "ym2612"
    },
    {
      "channel": 2,
      "note": 74,
      "start": 54.4287,
      "duration": 1.6,
      "velocity": 117,
      "chip": "ym2612"
    },
    {
      "channel": 3,
      "note": 86,
      "start": 54.4287,
      "duration": 0.9917,
      "velocity": 94,
      "chip": "ym2612"
    },
    {
      "channel": 4,
      "note": 36,
      "start": 54.4288,
      "duration": 0.1398,
      "velocity": 101,
      "chip": "ym2612"
    },
    {
      "channel": 5,
      "note": 85,
      "start": 54.4289,
      "duration": 0.0563,
      "velocity": 114,
      "chip": "ym2612"
    },
    {
      "channel": 5,
      "note": 85,
      "start": 54.6194,
      "duration": 0.0659,
      "velocity": 114,
      "chip": "ym2612"
    },
    {
      "channel": 1,
      "note": 62,
      "start": 54.8237,
      "duration": 0.4001,
      "velocity": 92,
      "chip": "ym2612"
    },
    {
      "channel": 4,
      "note": 55,
      "start": 54.8238,
      "duration": 0.1963,
      "velocity": 127,
      "chip": "ym2612"
    },
    {
      "channel": 5,
      "note": 85,
      "start": 54.8238,
      "duration": 0.0615,
      "velocity": 114,
      "chip": "ym2612"
    },
    {
      "channel": 0,
      "note": 90,
      "start": 55.02,
      "duration": 0.5152,
      "velocity": 85,
      "chip": "ym2612"
    },
    {
      "channel": 5,
      "note": 85,
      "start": 55.0201,
      "duration": 0.0652,
      "velocity": 114,
      "chip": "ym2612"
    },
    {
      "channel": 1,
      "note": 62,
      "start": 55.2239,
      "duration": 0.4009,
      "velocity": 92,
      "chip": "ym2612"
    },
    {
      "channel": 4,
      "note": 36,
      "start": 55.224,
      "duration": 0.0613,
      "velocity": 101,
      "chip": "ym2612"
    },
    {
      "channel": 5,
      "note": 85,
      "start": 55.2241,
      "duration": 0.0613,
      "velocity": 114,
      "chip": "ym2612"
    },
    {
      "channel": 3,
      "note": 85,
      "start": 55.4205,
      "duration": 0.2043,
      "velocity": 94,
      "chip": "ym2612"
    },
    {
      "channel": 4,
      "note": 36,
      "start": 55.4206,
      "duration": 0.0647,
      "velocity": 101,
      "chip": "ym2612"
    },
    {
      "channel": 5,
      "note": 85,
      "start": 55.4207,
      "duration": 0.0647,
      "velocity": 114,
      "chip": "ym2612"
    },
    {
      "channel": 0,
      "note": 90,
      "start": 55.6247,
      "duration": 0.1604,
      "velocity": 85,
      "chip": "ym2612"
    },
    {
      "channel": 1,
      "note": 62,
      "start": 55.6248,
      "duration": 0.4037,
      "velocity": 92,
      "chip": "ym2612"
    },
    {
      "channel": 3,
      "note": 86,
      "start": 55.6249,
      "duration": 0.1957,
      "velocity": 94,
      "chip": "ym2612"
    },
    {
      "channel": 4,
      "note": 55,
      "start": 55.625,
      "duration": 0.1958,
      "velocity": 127,
      "chip": "ym2612"
    },
    {
      "channel": 5,
      "note": 85,
      "start": 55.625,
      "duration": 0.0602,
      "velocity": 114,
      "chip": "ym2612"
    },
    {
      "channel": 0,
      "note": 93,
      "start": 55.8206,
      "duration": 0.1646,
      "velocity": 85,
      "chip": "ym2612"
    },
    {
      "channel": 3,
      "note": 88,
      "start": 55.8207,
      "duration": 0.2081,
      "velocity": 94,
      "chip": "ym2612"
    },
    {
      "channel": 5,
      "note": 85,
      "start": 55.8208,
      "duration": 0.0644,
      "velocity": 114,
      "chip": "ym2612"
    },
    {
      "channel": 0,
      "note": 92,
      "start": 56.0285,
      "duration": 0.5067,
      "velocity": 85,
      "chip": "ym2612"
    },
    {
      "channel": 1,
      "note": 57,
      "start": 56.0286,
      "duration": 0.3947,
      "velocity": 92,
      "chip": "ym2612"
    },
    {
      "channel": 2,
      "note": 69,
      "start": 56.0287,
      "duration": 1.1956,
      "velocity": 117,
      "chip": "ym2612"
    },
    {
      "channel": 3,
      "note": 93,
      "start": 56.0288,
      "duration": 1.5995,
      "velocity": 94,
      "chip": "ym2612"
    },
    {
      "channel": 4,
      "note": 55,
      "start": 56.0289,
      "duration": 0.0897,
      "velocity": 127,
      "chip": "ym2612"
    },
    {
      "channel": 5,
      "note": 85,
      "start": 56.0289,
      "duration": 0.0563,
      "velocity": 114,
      "chip": "ym2612"
    },
    {
      "channel": 4,
      "note": 36,
      "start": 56.222,
      "duration": 0.0634,
      "velocity": 101,
      "chip": "ym2612"
    },
    {
      "channel": 5,
      "note": 85,
      "start": 56.222,
      "duration": 0.0634,
      "velocity": 114,
      "chip": "ym2612"
    },
    {
      "channel": 1,
      "note": 57,
      "start": 56.4233,
      "duration": 0.4007,
      "velocity": 92,
      "chip": "ym2612"
    },
    {
      "channel": 4,
      "note": 55,
      "start": 56.4234,
      "duration": 0.0952,
      "velocity": 127,
      "chip": "ym2612"
    },
    {
      "channel": 5,
      "note": 85,
      "start": 56.4234,
      "duration": 0.0618,
      "velocity": 114,
      "chip": "ym2612"
    },
    {
      "channel": 0,
      "note": 90,
      "start": 56.6225,
      "duration": 0.5127,
      "velocity": 85,
      "chip": "ym2612"
    },
    {
      "channel": 4,
      "note": 36,
      "start": 56.6226,
      "duration": 0.0627,
      "velocity": 101,
      "chip": "ym2612"
    },
    {
      "channel": 5,
      "note": 85,
      "start": 56.6227,
      "duration": 0.0627,
      "velocity": 114,
      "chip": "ym2612"
    },
    {
      "channel": 1,
      "note": 57,
      "start": 56.8241,
      "duration": 0.4001,
      "velocity": 92,
      "chip": "ym2612"
    },
    {
      "channel": 4,
      "note": 55,
      "start": 56.8241,
      "duration": 0.1945,
      "velocity": 127,
      "chip": "ym2612"
    },
    {
      "channel": 5,
      "note": 85,
      "start": 56.8242,
      "duration": 0.1444,
      "velocity": 114,
      "chip": "ym2612"
    },
    {
      "channel": 0,
      "note": 88,
      "start": 57.2242,
      "duration": 0.3443,
      "velocity": 85,
      "chip": "ym2612"
    },
    {
      "channel": 1,
      "note": 57,
      "start": 57.2243,
      "duration": 0.195,
      "velocity": 92,
      "chip": "ym2612"
    },
    {
      "channel": 2,
      "note": 71,
      "start": 57.2244,
      "duration": 0.4038,
      "velocity": 117,
      "chip": "ym2612"
    },
    {
      "channel": 4,
      "note": 55,
      "start": 57.2245,
      "duration": 0.1949,
      "velocity": 127,
      "chip": "ym2612"
    },
    {
      "channel": 5,
      "note": 85,
      "start": 57.2245,
      "duration": 0.1441,
      "velocity": 114,
      "chip": "ym2612"
    },
    {
      "channel": 1,
      "note": 59,
      "start": 57.4193,
      "duration": 0.2088,
      "velocity": 92,
      "chip": "ym2612"
    },
    {
      "channel": 0,
      "note": 88,
      "start": 57.628,
      "duration": 0.5072,
      "velocity": 85,
      "chip": "ym2612"
    },
    {
      "channel": 1,
      "note": 64,
      "start": 57.6282,
      "duration": 0.3955,
      "velocity": 92,
      "chip": "ym2612"
    },
    {
      "channel": 2,
      "note": 76,
      "start": 57.6282,
      "duration": 1.6004,
      "velocity": 117,
      "chip": "ym2612"
    },
    {
      "channel": 3,
      "note": 88,
      "start": 57.6283,
      "duration": 0.9921,
      "velocity": 94,
      "chip": "ym2612"
    },
    {
      "channel": 4,
      "note": 36,
      "start": 57.6284,
      "duration": 0.1401,
      "velocity": 101,
      "chip": "ym2612"
    },
    {
      "channel": 5,
      "note": 85,
      "start": 57.6285,
      "duration": 0.0567,
      "velocity": 114,
      "chip": "ym2612"
    },
    {
      "channel": 5,
      "note": 85,
      "start": 57.8194,
      "duration": 0.0659,
      "velocity": 114,
      "chip": "ym2612"
    },
    {
      "channel": 1,
      "note": 64,
      "start": 58.0237,
      "duration": 0.4001,
      "velocity": 92,
      "chip": "ym2612"
    },
    {
      "channel": 4,
      "note": 55,
      "start": 58.0238,
      "duration": 0.1963,
      "velocity": 127,
      "chip": "ym2612"
    },
    {
      "channel": 5,
      "note": 85,
      "start": 58.0238,
      "duration": 0.0615,
      "velocity": 114,
      "chip": "ym2612"
    },
    {
      "channel": 0,
      "note": 83,
      "start": 58.22,
      "duration": 0.5152,
      "velocity": 85,
      "chip": "ym2612"
    },
    {
      "channel": 5,
      "note": 85,
      "start": 58.2201,
      "duration": 0.0652,
      "velocity": 114,
      "chip": "ym2612"
    },
    {
      "channel": 1,
      "note": 64,
      "start": 58.4239,
      "duration": 0.4009,
      "velocity": 92,
      "chip": "ym2612"
    },
    {
      "channel": 4,
      "note": 36,
      "start": 58.424,
      "duration": 0.0613,
      "velocity": 101,
      "chip": "ym2612"
    },
    {
      "channel": 5,
      "note": 85,
      "start": 58.4241,
      "duration": 0.0613,
      "velocity": 114,
      "chip": "ym2612"
    },
    {
      "channel": 3,
      "note": 88,
      "start": 58.6205,
      "duration": 0.2043,
      "velocity": 94,
      "chip": "ym2612"
    },
    {
      "channel": 4,
      "note": 36,
      "start": 58.6206,
      "duration": 0.0647,
      "velocity": 101,
      "chip": "ym2612"
    },
    {
      "channel": 5,
      "note": 85,
      "start": 58.6207,
      "duration": 0.0647,
      "velocity": 114,
      "chip": "ym2612"
    },
    {
      "channel": 0,
      "note": 92,
      "start": 58.8247,
      "duration": 0.3438,
      "velocity": 85,
      "chip": "ym2612"
    },
    {
      "channel": 1,
      "note": 64,
      "start": 58.8248,
      "duration": 0.4037,
      "velocity": 92,
      "chip": "ym2612"
    },
    {
      "channel": 3,
      "note": 90,
      "start": 58.8249,
      "duration": 0.1951,
      "velocity": 94,
      "chip": "ym2612"
    },
    {
      "channel": 4,
      "note": 55,
      "start": 58.825,
      "duration": 0.1952,
      "velocity": 127,
      "chip": "ym2612"
    },
    {
      "channel": 5,
      "note": 85,
      "start": 58.825,
      "duration": 0.0602,
      "velocity": 114,
      "chip": "ym2612"
    },
    {
      "channel": 3,
      "note": 92,
      "start": 59.0201,
      "duration": 0.2086,
      "velocity": 94,
      "chip": "ym2612"
    },
    {
      "channel": 5,
      "note": 85,
      "start": 59.0203,
      "duration": 0.065,
      "velocity": 114,
      "chip": "ym2612"
    },
    {
      "channel": 0,
      "note": 90,
      "start": 59.2285,
      "duration": 0.5067,
      "velocity": 85,
      "chip": "ym2612"
    },
    {
      "channel": 1,
      "note": 59,
      "start": 59.2286,
      "duration": 0.395,
      "velocity": 92,
      "chip": "ym2612"
    },
    {
      "channel": 2,
      "note": 71,
      "start": 59.2287,
      "duration": 1.6,
      "velocity": 117,
      "chip": "ym2612"
    },
    {
      "channel": 3,
      "note": 93,
      "start": 59.2288,
      "duration": 0.5919,
      "velocity": 94,
      "chip": "ym2612"
    },
    {
      "channel": 4,
      "note": 36,
      "start": 59.2289,
      "duration": 0.1397,
      "velocity": 101,
      "chip": "ym2612"
    },
    {
      "channel": 5,
      "note": 85,
      "start": 59.2289,
      "duration": 0.0563,
      "velocity": 114,
      "chip": "ym2612"
    },
    {
      "channel": 5,
      "note": 85,
      "start": 59.4194,
      "duration": 0.0659,
      "velocity": 114,
      "chip": "ym2612"
    },
    {
      "channel": 1,
      "note": 59,
      "start": 59.6237,
      "duration": 0.3997,
      "velocity": 92,
      "chip": "ym2612"
    },
    {
      "channel": 4,
      "note": 55,
      "start": 59.6238,
      "duration": 0.197,
      "velocity": 127,
      "chip": "ym2612"
    },
    {
      "channel": 5,
      "note": 85,
      "start": 59.6238,
      "duration": 0.0615,
      "velocity": 114,
      "chip": "ym2612"
    },
    {
      "channel": 0,
      "note": 85,
      "start": 59.8206,
      "duration": 0.5146,
      "velocity": 85,
      "chip": "ym2612"
    },
    {
      "channel": 3,
      "note": 92,
      "start": 59.8207,
      "duration": 0.6041,
      "velocity": 94,
      "chip": "ym2612"
    },
    {
      "channel": 5,
      "note": 85,
      "start": 59.8208,
      "duration": 0.0644,
      "velocity": 114,
      "chip": "ym2612"
    },
    {
      "channel": 1,
      "note": 59,
      "start": 60.0234,
      "duration": 0.4013,
      "velocity": 92,
      "chip": "ym2612"
    },
    {
      "channel": 4,
      "note": 36,
      "start": 60.0235,
      "duration": 0.0618,
      "velocity": 101,
      "chip": "ym2612"
    },
    {
      "channel": 5,
      "note": 85,
      "start": 60.0236,
      "duration": 0.0618,
      "velocity": 114,
      "chip": "ym2612"
    },
    {
      "channel": 4,
      "note": 36,
      "start": 60.2199,
      "duration": 0.0655,
      "velocity": 101,
      "chip": "ym2612"
    },
    {
      "channel": 5,
      "note": 85,
      "start": 60.22,
      "duration": 0.0654,
      "velocity": 114,
      "chip": "ym2612"
    },
    {
      "channel": 0,
      "note": 92,
      "start": 60.4247,
      "duration": 0.3438,
      "velocity": 85,
      "chip": "ym2612"
    },
    {
      "channel": 1,
      "note": 59,
      "start": 60.4248,
      "duration": 0.4037,
      "velocity": 92,
      "chip": "ym2612"
    },
    {
      "channel": 3,
      "note": 88,
      "start": 60.4249,
      "duration": 0.4039,
      "velocity": 94,
      "chip": "ym2612"
    },
    {
      "channel": 4,
      "note": 55,
      "start": 60.425,
      "duration": 0.1945,
      "velocity": 127,
      "chip": "ym2612"
    },
    {
      "channel": 5,
      "note": 85,
      "start": 60.425,
      "duration": 0.0602,
      "velocity": 114,
      "chip": "ym2612"
    },
    {
      "channel": 5,
      "note": 85,
      "start": 60.6195,
      "duration": 0.0658,
      "velocity": 114,
      "chip": "ym2612"
    },
    {
      "channel": 0,
      "note": 93,
      "start": 60.8285,
      "duration": 0.5068,
      "velocity": 85,
      "chip": "ym2612"
    },
    {
      "channel": 1,
      "note": 57,
      "start": 60.8286,
      "duration": 0.395,
      "velocity": 92,
      "chip": "ym2612"
    },
    {
      "channel": 2,
      "note": 69,
      "start": 60.8287,
      "duration": 1.5999,
      "velocity": 117,
      "chip": "ym2612"
    },
    {
      "channel": 3,
      "note": 95,
      "start": 60.8288,
      "duration": 1.5999,
      "velocity": 94,
      "chip": "ym2612"
    },
    {
      "channel": 4,
      "note": 36,
      "start": 60.8289,
      "duration": 0.1397,
      "velocity": 101,
      "chip": "ym2612"
    },
    {
      "channel": 5,
      "note": 85,
      "start": 60.8289,
      "duration": 0.0563,
      "velocity": 114,
      "chip": "ym2612"
    },
    {
      "channel": 5,
      "note": 85,
      "start": 61.0194,
      "duration": 0.0659,
      "velocity": 114,
      "chip": "ym2612"
    },
    {
      "channel": 1,
      "note": 57,
      "start": 61.2237,
      "duration": 0.3997,
      "velocity": 92,
      "chip": "ym2612"
    },
    {
      "channel": 4,
      "note": 55,
      "start": 61.2238,
      "duration": 0.1964,
      "velocity": 127,
      "chip": "ym2612"
    },
    {
      "channel": 5,
      "note": 85,
      "start": 61.2238,
      "duration": 0.0615,
      "velocity": 114,
      "chip": "ym2612"
    },
    {
      "channel": 0,
      "note": 92,
      "start": 61.42,
      "duration": 0.5152,
      "velocity": 85,
      "chip": "ym2612"
    },
    {
      "channel": 5,
      "note": 85,
      "start": 61.4202,
      "duration": 0.0651,
      "velocity": 114,
      "chip": "ym2612"
    },
    {
      "channel": 1,
      "note": 57,
      "start": 61.6234,
      "duration": 0.4008,
      "velocity": 92,
      "chip": "ym2612"
    },
    {
      "channel": 4,
      "note": 36,
      "start": 61.6236,
      "duration": 0.0618,
      "velocity": 101,
      "chip": "ym2612"
    },
    {
      "channel": 5,
      "note": 85,
      "start": 61.6236,
      "duration": 0.0618,
      "velocity": 114,
      "chip": "ym2612"
    },
    {
      "channel": 4,
      "note": 36,
      "start": 61.82,
      "duration": 0.0654,
      "velocity": 101,
      "chip": "ym2612"
    },
    {
      "channel": 5,
      "note": 85,
      "start": 61.82,
      "duration": 0.0654,
      "velocity": 114,
      "chip": "ym2612"
    },
    {
      "channel": 0,
      "note": 90,
      "start": 62.0241,
      "duration": 0.3444,
      "velocity": 85,
      "chip": "ym2612"
    },
    {
      "channel": 1,
      "note": 57,
      "start": 62.0242,
      "duration": 0.4043,
      "velocity": 92,
      "chip": "ym2612"
    },
    {
      "channel": 4,
      "note": 55,
      "start": 62.0243,
      "duration": 0.1952,
      "velocity": 127,
      "chip": "ym2612"
    },
    {
      "channel": 5,
      "note": 85,
      "start": 62.0244,
      "duration": 0.0609,
      "velocity": 114,
      "chip": "ym2612"
    },
    {
      "channel": 5,
      "note": 85,
      "start": 62.2196,
      "duration": 0.0657,
      "velocity": 114,
      "chip": "ym2612"
    },
    {
      "channel": 0,
      "note": 88,
      "start": 62.4284,
      "duration": 1.3902,
      "velocity": 85,
      "chip": "ym2612"
    },
    {
      "channel": 1,
      "note": 64,
      "start": 62.4285,
      "duration": 0.3947,
      "velocity": 92,
      "chip": "ym2612"
    },
    {
      "channel": 2,
      "note": 76,
      "start": 62.4286,
      "duration": 1.6028,
      "velocity": 127,
      "chip": "ym2612"
    },
    {
      "channel": 3,
      "note": 100,
      "start": 62.4287,
      "duration": 1.6027,
      "velocity": 94,
      "chip": "ym2612"
    },
    {
      "channel": 4,
      "note": 55,
      "start": 62.4288,
      "duration": 0.0897,
      "velocity": 127,
      "chip": "ym2612"
    },
    {
      "channel": 5,
      "note": 85,
      "start": 62.4289,
      "duration": 0.0563,
      "velocity": 114,
      "chip": "ym2612"
    },
    {
      "channel": 4,
      "note": 36,
      "start": 62.622,
      "duration": 0.0634,
      "velocity": 101,
      "chip": "ym2612"
    },
    {
      "channel": 5,
      "note": 85,
      "start": 62.622,
      "duration": 0.0634,
      "velocity": 114,
      "chip": "ym2612"
    },
    {
      "channel": 1,
      "note": 64,
      "start": 62.8233,
      "duration": 0.4007,
      "velocity": 92,
      "chip": "ym2612"
    },
    {
      "channel": 4,
      "note": 55,
      "start": 62.8234,
      "duration": 0.0952,
      "velocity": 127,
      "chip": "ym2612"
    },
    {
      "channel": 5,
      "note": 85,
      "start": 62.8234,
      "duration": 0.0618,
      "velocity": 114,
      "chip": "ym2612"
    },
    {
      "channel": 4,
      "note": 36,
      "start": 63.022,
      "duration": 0.0633,
      "velocity": 101,
      "chip": "ym2612"
    },
    {
      "channel": 5,
      "note": 85,
      "start": 63.0221,
      "duration": 0.0633,
      "velocity": 114,
      "chip": "ym2612"
    },
    {
      "channel": 1,
      "note": 64,
      "start": 63.2241,
      "duration": 0.3992,
      "velocity": 92,
      "chip": "ym2612"
    },
    {
      "channel": 4,
      "note": 55,
      "start": 63.2241,
      "duration": 0.1944,
      "velocity": 127,
      "chip": "ym2612"
    },
    {
      "channel": 5,
      "note": 85,
      "start": 63.2242,
      "duration": 0.1444,
      "velocity": 114,
      "chip": "ym2612"
    },
    {
      "channel": 1,
      "note": 64,
      "start": 63.6233,
      "duration": 0.408,
      "velocity": 92,
      "chip": "ym2612"
    },
    {
      "channel": 4,
      "note": 55,
      "start": 63.6234,
      "duration": 0.1954,
      "velocity": 127,
      "chip": "ym2612"
    },
    {
      "channel": 5,
      "note": 85,
      "start": 63.6234,
      "duration": 0.1452,
      "velocity": 114,
      "chip": "ym2612"
    },
    {
      "channel": 0,
      "note": 88,
      "start": 64.0312,
      "duration": 0.5207,
      "velocity": 85,
      "chip": "ym2612"
    },
    {
      "channel": 1,
      "note": 64,
      "start": 64.0313,
      "duration": 0.4051,
      "velocity": 92,
      "chip": "ym2612"
    },
    {
      "channel": 2,
      "note": 88,
      "start": 64.0314,
      "duration": 0.6049,
      "velocity": 127,
      "chip": "ym2612"
    },
    {
      "channel": 3,
      "note": 88,
      "start": 64.0315,
      "duration": 1.0043,
      "velocity": 94,
      "chip": "ym2612"
    },
    {
      "channel": 4,
      "note": 55,
      "start": 64.0316,
      "duration": 0.2037,
      "velocity": 127,
      "chip": "ym2612"
    },
    {
      "channel": 5,
      "note": 55,
      "start": 64.0317,
      "duration": 0.2037,
      "velocity": 127,
      "chip": "ym2612"
    },
    {
      "channel": 1,
      "note": 64,
      "start": 64.4366,
      "duration": 0.4001,
      "velocity": 92,
      "chip": "ym2612"
    },
    {
      "channel": 0,
      "note": 83,
      "start": 64.6362,
      "duration": 0.5156,
      "velocity": 85,
      "chip": "ym2612"
    },
    {
      "channel": 2,
      "note": 83,
      "start": 64.6364,
      "duration": 0.6016,
      "velocity": 127,
      "chip": "ym2612"
    },
    {
      "channel": 1,
      "note": 64,
      "start": 64.8367,
      "duration": 0.4012,
      "velocity": 92,
      "chip": "ym2612"
    },
    {
      "channel": 3,
      "note": 88,
      "start": 65.0359,
      "duration": 0.2022,
      "velocity": 94,
      "chip": "ym2612"
    },
    {
      "channel": 0,
      "note": 92,
      "start": 65.2378,
      "duration": 0.3473,
      "velocity": 85,
      "chip": "ym2612"
    },
    {
      "channel": 1,
      "note": 64,
      "start": 65.238,
      "duration": 0.4011,
      "velocity": 92,
      "chip": "ym2612"
    },
    {
      "channel": 2,
      "note": 92,
      "start": 65.238,
      "duration": 0.4011,
      "velocity": 127,
      "chip": "ym2612"
    },
    {
      "channel": 3,
      "note": 90,
      "start": 65.2381,
      "duration": 0.1976,
      "velocity": 94,
      "chip": "ym2612"
    },
    {
      "channel": 3,
      "note": 92,
      "start": 65.4358,
      "duration": 0.2034,
      "velocity": 94,
      "chip": "ym2612"
    },
    {
      "channel": 0,
      "note": 90,
      "start": 65.639,
      "duration": 0.5129,
      "velocity": 85,
      "chip": "ym2612"
    },
    {
      "channel": 1,
      "note": 59,
      "start": 65.6391,
      "duration": 0.3972,
      "velocity": 92,
      "chip": "ym2612"
    },
    {
      "channel": 2,
      "note": 93,
      "start": 65.6392,
      "duration": 0.5978,
      "velocity": 127,
      "chip": "ym2612"
    },
    {
      "channel": 3,
      "note": 93,
      "start": 65.6393,
      "duration": 0.5978,
      "velocity": 94,
      "chip": "ym2612"
    },
    {
      "channel": 1,
      "note": 59,
      "start": 66.0364,
      "duration": 0.4001,
      "velocity": 92,
      "chip": "ym2612"
    },
    {
      "channel": 0,
      "note": 83,
      "start": 66.2369,
      "duration": 0.5151,
      "velocity": 85,
      "chip": "ym2612"
    },
    {
      "channel": 2,
      "note": 92,
      "start": 66.237,
      "duration": 1.0082,
      "velocity": 127,
      "chip": "ym2612"
    },
    {
      "channel": 3,
      "note": 92,
      "start": 66.2371,
      "duration": 0.6019,
      "velocity": 94,
      "chip": "ym2612"
    },
    {
      "channel": 1,
      "note": 59,
      "start": 66.4366,
      "duration": 0.4024,
      "velocity": 92,
      "chip": "ym2612"
    },
    {
      "channel": 4,
      "note": 55,
      "start": 66.6417,
      "duration": 0.0437,
      "velocity": 127,
      "chip": "ym2612"
    },
    {
      "channel": 5,
      "note": 55,
      "start": 66.6418,
      "duration": 0.0436,
      "velocity": 127,
      "chip": "ym2612"
    },
    {
      "channel": 4,
      "note": 55,
      "start": 66.7364,
      "duration": 0.049,
      "velocity": 127,
      "chip": "ym2612"
    },
    {
      "channel": 5,
      "note": 55,
      "start": 66.7364,
      "duration": 0.049,
      "velocity": 127,
      "chip": "ym2612"
    },
    {
      "channel": 0,
      "note": 83,
      "start": 66.8388,
      "duration": 0.3464,
      "velocity": 85,
      "chip": "ym2612"
    },
    {
      "channel": 1,
      "note": 59,
      "start": 66.839,
      "duration": 0.4062,
      "velocity": 92,
      "chip": "ym2612"
    },
    {
      "channel": 3,
      "note": 88,
      "start": 66.839,
      "duration": 0.4063,
      "velocity": 94,
      "chip": "ym2612"
    },
    {
      "channel": 4,
      "note": 55,
      "start": 66.8391,
      "duration": 0.1962,
      "velocity": 127,
      "chip": "ym2612"
    },
    {
      "channel": 5,
      "note": 55,
      "start": 66.8392,
      "duration": 0.1962,
      "velocity": 127,
      "chip": "ym2612"
    },
    {
      "channel": 0,
      "note": 81,
      "start": 67.2451,
      "duration": 0.5068,
      "velocity": 85,
      "chip": "ym2612"
    },
    {
      "channel": 1,
      "note": 62,
      "start": 67.2452,
      "duration": 0.3913,
      "velocity": 92,
      "chip": "ym2612"
    },
    {
      "channel": 2,
      "note": 95,
      "start": 67.2453,
      "duration": 1.5998,
      "velocity": 127,
      "chip": "ym2612"
    },
    {
      "channel": 3,
      "note": 86,
      "start": 67.2454,
      "duration": 0.9904,
      "velocity": 94,
      "chip": "ym2612"
    },
    {
      "channel": 4,
      "note": 55,
      "start": 67.2455,
      "duration": 0.1898,
      "velocity": 127,
      "chip": "ym2612"
    },
    {
      "channel": 5,
      "note": 55,
      "start": 67.2455,
      "duration": 0.1898,
      "velocity": 127,
      "chip": "ym2612"
    },
    {
      "channel": 1,
      "note": 62,
      "start": 67.6366,
      "duration": 0.4001,
      "velocity": 92,
      "chip": "ym2612"
    },
    {
      "channel": 0,
      "note": 90,
      "start": 67.8357,
      "duration": 0.5161,
      "velocity": 85,
      "chip": "ym2612"
    },
    {
      "channel": 1,
      "note": 62,
      "start": 68.0367,
      "duration": 0.4006,
      "velocity": 92,
      "chip": "ym2612"
    },
    {
      "channel": 3,
      "note": 85,
      "start": 68.2359,
      "duration": 0.2016,
      "velocity": 94,
      "chip": "ym2612"
    },
    {
      "channel": 0,
      "note": 90,
      "start": 68.4373,
      "duration": 0.1645,
      "velocity": 85,
      "chip": "ym2612"
    },
    {
      "channel": 1,
      "note": 62,
      "start": 68.4374,
      "duration": 0.4076,
      "velocity": 92,
      "chip": "ym2612"
    },
    {
      "channel": 3,
      "note": 86,
      "start": 68.4375,
      "duration": 0.1988,
      "velocity": 94,
      "chip": "ym2612"
    },
    {
      "channel": 0,
      "note": 93,
      "start": 68.6362,
      "duration": 0.1656,
      "velocity": 85,
      "chip": "ym2612"
    },
    {
      "channel": 3,
      "note": 88,
      "start": 68.6364,
      "duration": 0.2088,
      "velocity": 94,
      "chip": "ym2612"
    },
    {
      "channel": 0,
      "note": 92,
      "start": 68.8449,
      "duration": 0.5069,
      "velocity": 85,
      "chip": "ym2612"
    },
    {
      "channel": 1,
      "note": 57,
      "start": 68.845,
      "duration": 0.3945,
      "velocity": 92,
      "chip": "ym2612"
    },
    {
      "channel": 2,
      "note": 88,
      "start": 68.8451,
      "duration": 0.0906,
      "velocity": 127,
      "chip": "ym2612"
    },
    {
      "channel": 3,
      "note": 81,
      "start": 68.8452,
      "duration": 1.5998,
      "velocity": 94,
      "chip": "ym2612"
    },
    {
      "channel": 4,
      "note": 55,
      "start": 68.8453,
      "duration": 0.0906,
      "velocity": 127,
      "chip": "ym2612"
    },
    {
      "channel": 5,
      "note": 36,
      "start": 68.8453,
      "duration": 0.0566,
      "velocity": 101,
      "chip": "ym2612"
    },
    {
      "channel": 2,
      "note": 86,
      "start": 68.9358,
      "duration": 0.1026,
      "velocity": 127,
      "chip": "ym2612"
    },
    {
      "channel": 2,
      "note": 85,
      "start": 69.0385,
      "duration": 0.0973,
      "velocity": 127,
      "chip": "ym2612"
    },
    {
      "channel": 4,
      "note": 55,
      "start": 69.0386,
      "duration": 0.0973,
      "velocity": 127,
      "chip": "ym2612"
    },
    {
      "channel": 5,
      "note": 36,
      "start": 69.0387,
      "duration": 0.0632,
      "velocity": 101,
      "chip": "ym2612"
    },
    {
      "channel": 2,
      "note": 83,
      "start": 69.1358,
      "duration": 0.1038,
      "velocity": 127,
      "chip": "ym2612"
    },
    {
      "channel": 1,
      "note": 57,
      "start": 69.2396,
      "duration": 0.3999,
      "velocity": 92,
      "chip": "ym2612"
    },
    {
      "channel": 2,
      "note": 81,
      "start": 69.2397,
      "duration": 0.0961,
      "velocity": 127,
      "chip": "ym2612"
    },
    {
      "channel": 4,
      "note": 55,
      "start": 69.2397,
      "duration": 0.0962,
      "velocity": 127,
      "chip": "ym2612"
    },
    {
      "channel": 5,
      "note": 36,
      "start": 69.2398,
      "duration": 0.0621,
      "velocity": 101,
      "chip": "ym2612"
    },
    {
      "channel": 2,
      "note": 83,
      "start": 69.3359,
      "duration": 0.1032,
      "velocity": 127,
      "chip": "ym2612"
    },
    {
      "channel": 0,
      "note": 90,
      "start": 69.439,
      "duration": 0.5128,
      "velocity": 85,
      "chip": "ym2612"
    },
    {
      "channel": 2,
      "note": 85,
      "start": 69.4391,
      "duration": 0.0966,
      "velocity": 127,
      "chip": "ym2612"
    },
    {
      "channel": 4,
      "note": 55,
      "start": 69.4392,
      "duration": 0.0967,
      "velocity": 127,
      "chip": "ym2612"
    },
    {
      "channel": 5,
      "note": 36,
      "start": 69.4392,
      "duration": 0.0627,
      "velocity": 101,
      "chip": "ym2612"
    },
    {
      "channel": 2,
      "note": 86,
      "start": 69.5358,
      "duration": 0.1038,
      "velocity": 127,
      "chip": "ym2612"
    },
    {
      "channel": 1,
      "note": 57,
      "start": 69.6395,
      "duration": 0.4004,
      "velocity": 92,
      "chip": "ym2612"
    },
    {
      "channel": 2,
      "note": 90,
      "start": 69.6397,
      "duration": 0.0961,
      "velocity": 127,
      "chip": "ym2612"
    },
    {
      "channel": 4,
      "note": 55,
      "start": 69.6397,
      "duration": 0.0962,
      "velocity": 127,
      "chip": "ym2612"
    },
    {
      "channel": 5,
      "note": 36,
      "start": 69.6398,
      "duration": 0.0621,
      "velocity": 101,
      "chip": "ym2612"
    },
    {
      "channel": 2,
      "note": 83,
      "start": 69.7358,
      "duration": 0.1027,
      "velocity": 127,
      "chip": "ym2612"
    },
    {
      "channel": 2,
      "note": 86,
      "start": 69.8385,
      "duration": 0.0973,
      "velocity": 127,
      "chip": "ym2612"
    },
    {
      "channel": 4,
      "note": 55,
      "start": 69.8386,
      "duration": 0.0973,
      "velocity": 127,
      "chip": "ym2612"
    },
    {
      "channel": 5,
      "note": 36,
      "start": 69.8387,
      "duration": 0.0632,
      "velocity": 101,
      "chip": "ym2612"
    },
    {
      "channel": 2,
      "note": 88,
      "start": 69.9358,
      "duration": 0.1042,
      "velocity": 127,
      "chip": "ym2612"
    },
    {
      "channel": 0,
      "note": 88,
      "start": 70.0399,
      "duration": 0.3453,
      "velocity": 85,
      "chip": "ym2612"
    },
    {
      "channel": 1,
      "note": 57,
      "start": 70.0399,
      "duration": 0.1987,
      "velocity": 92,
      "chip": "ym2612"
    },
    {
      "channel": 2,
      "note": 95,
      "start": 70.04,
      "duration": 0.4048,
      "velocity": 127,
      "chip": "ym2612"
    },
    {
      "channel": 4,
      "note": 55,
      "start": 70.0401,
      "duration": 0.095,
      "velocity": 127,
      "chip": "ym2612"
    },
    {
      "channel": 5,
      "note": 36,
      "start": 70.0402,
      "duration": 0.0617,
      "velocity": 101,
      "chip": "ym2612"
    },
    {
      "channel": 1,
      "note": 59,
      "start": 70.2387,
      "duration": 0.2061,
      "velocity": 92,
      "chip": "ym2612"
    },
    {
      "channel": 4,
      "note": 55,
      "start": 70.2387,
      "duration": 0.0965,
      "velocity": 127,
      "chip": "ym2612"
    },
    {
      "channel": 5,
      "note": 36,
      "start": 70.2388,
      "duration": 0.0631,
      "velocity": 101,
      "chip": "ym2612"
    },
    {
      "channel": 0,
      "note": 88,
      "start": 70.4447,
      "duration": 0.5072,
      "velocity": 85,
      "chip": "ym2612"
    },
    {
      "channel": 1,
      "note": 64,
      "start": 70.4448,
      "duration": 0.3955,
      "velocity": 92,
      "chip": "ym2612"
    },
    {
      "channel": 2,
      "note": 100,
      "start": 70.4449,
      "duration": 0.5924,
      "velocity": 127,
      "chip": "ym2612"
    },
    {
      "channel": 3,
      "note": 88,
      "start": 70.445,
      "duration": 0.9921,
      "velocity": 94,
      "chip": "ym2612"
    },
    {
      "channel": 4,
      "note": 36,
      "start": 70.4451,
      "duration": 0.1401,
      "velocity": 101,
      "chip": "ym2612"
    },
    {
      "channel": 5,
      "note": 85,
      "start": 70.4451,
      "duration": 0.0567,
      "velocity": 114,
      "chip": "ym2612"
    },
    {
      "channel": 5,
      "note": 85,
      "start": 70.6361,
      "duration": 0.0659,
      "velocity": 114,
      "chip": "ym2612"
    },
    {
      "channel": 1,
      "note": 64,
      "start": 70.8404,
      "duration": 0.4001,
      "velocity": 92,
      "chip": "ym2612"
    },
    {
      "channel": 4,
      "note": 55,
      "start": 70.8404,
      "duration": 0.1969,
      "velocity": 127,
      "chip": "ym2612"
    },
    {
      "channel": 5,
      "note": 85,
      "start": 70.8405,
      "duration": 0.0615,
      "velocity": 114,
      "chip": "ym2612"
    },
    {
      "channel": 0,
      "note": 83,
      "start": 71.0372,
      "duration": 0.5146,
      "velocity": 85,
      "chip": "ym2612"
    },
    {
      "channel": 2,
      "note": 99,
      "start": 71.0373,
      "duration": 0.6048,
      "velocity": 127,
      "chip": "ym2612"
    },
    {
      "channel": 5,
      "note": 85,
      "start": 71.0374,
      "duration": 0.0645,
      "velocity": 114,
      "chip": "ym2612"
    },
    {
      "channel": 1,
      "note": 64,
      "start": 71.2406,
      "duration": 0.4015,
      "velocity": 92,
      "chip": "ym2612"
    },
    {
      "channel": 4,
      "note": 36,
      "start": 71.2407,
      "duration": 0.0613,
      "velocity": 101,
      "chip": "ym2612"
    },
    {
      "channel": 5,
      "note": 85,
      "start": 71.2407,
      "duration": 0.0613,
      "velocity": 114,
      "chip": "ym2612"
    },
    {
      "channel": 3,
      "note": 88,
      "start": 71.4372,
      "duration": 0.205,
      "velocity": 94,
      "chip": "ym2612"
    },
    {
      "channel": 4,
      "note": 36,
      "start": 71.4373,
      "duration": 0.0648,
      "velocity": 101,
      "chip": "ym2612"
    },
    {
      "channel": 5,
      "note": 85,
      "start": 71.4373,
      "duration": 0.0647,
      "velocity": 114,
      "chip": "ym2612"
    },
    {
      "channel": 0,
      "note": 92,
      "start": 71.642,
      "duration": 0.3433,
      "velocity": 85,
      "chip": "ym2612"
    },
    {
      "channel": 1,
      "note": 64,
      "start": 71.6421,
      "duration": 0.4031,
      "velocity": 92,
      "chip": "ym2612"
    },
    {
      "channel": 2,
      "note": 97,
      "start": 71.6422,
      "duration": 0.0936,
      "velocity": 127,
      "chip": "ym2612"
    },
    {
      "channel": 3,
      "note": 90,
      "start": 71.6423,
      "duration": 0.1951,
      "velocity": 94,
      "chip": "ym2612"
    },
    {
      "channel": 4,
      "note": 55,
      "start": 71.6423,
      "duration": 0.1952,
      "velocity": 127,
      "chip": "ym2612"
    },
    {
      "channel": 5,
      "note": 85,
      "start": 71.6424,
      "duration": 0.0595,
      "velocity": 114,
      "chip": "ym2612"
    },
    {
      "channel": 2,
      "note": 95,
      "start": 71.7357,
      "duration": 0.1016,
      "velocity": 127,
      "chip": "ym2612"
    },
    {
      "channel": 2,
      "note": 93,
      "start": 71.8373,
      "duration": 0.0985,
      "velocity": 127,
      "chip": "ym2612"
    },
    {
      "channel": 3,
      "note": 92,
      "start": 71.8374,
      "duration": 0.208,
      "velocity": 94,
      "chip": "ym2612"
    },
    {
      "channel": 5,
      "note": 85,
      "start": 71.8376,
      "duration": 0.0643,
      "velocity": 114,
      "chip": "ym2612"
    },
    {
      "channel": 2,
      "note": 92,
      "start": 71.9359,
      "duration": 0.1094,
      "velocity": 127,
      "chip": "ym2612"
    },
    {
      "channel": 0,
      "note": 90,
      "start": 72.0451,
      "duration": 0.5067,
      "velocity": 85,
      "chip": "ym2612"
    },
    {
      "channel": 1,
      "note": 59,
      "start": 72.0453,
      "duration": 0.3956,
      "velocity": 92,
      "chip": "ym2612"
    },
    {
      "channel": 2,
      "note": 90,
      "start": 72.0453,
      "duration": 0.0903,
      "velocity": 127,
      "chip": "ym2612"
    },
    {
      "channel": 3,
      "note": 93,
      "start": 72.0455,
      "duration": 0.5925,
      "velocity": 94,
      "chip": "ym2612"
    },
    {
      "channel": 4,
      "note": 36,
      "start": 72.0455,
      "duration": 0.1397,
      "velocity": 101,
      "chip": "ym2612"
    },
    {
      "channel": 5,
      "note": 85,
      "start": 72.0456,
      "duration": 0.0563,
      "velocity": 114,
      "chip": "ym2612"
    },
    {
      "channel": 2,
      "note": 88,
      "start": 72.1357,
      "duration": 0.1008,
      "velocity": 127,
      "chip": "ym2612"
    },
    {
      "channel": 2,
      "note": 86,
      "start": 72.2366,
      "duration": 0.0991,
      "velocity": 127,
      "chip": "ym2612"
    },
    {
      "channel": 5,
      "note": 85,
      "start": 72.2367,
      "duration": 0.0652,
      "velocity": 114,
      "chip": "ym2612"
    },
    {
      "channel": 2,
      "note": 88,
      "start": 72.3358,
      "duration": 0.1052,
      "velocity": 127,
      "chip": "ym2612"
    },
    {
      "channel": 1,
      "note": 59,
      "start": 72.441,
      "duration": 0.3997,
      "velocity": 92,
      "chip": "ym2612"
    },
    {
      "channel": 2,
      "note": 90,
      "start": 72.441,
      "duration": 0.0947,
      "velocity": 127,
      "chip": "ym2612"
    },
    {
      "channel": 4,
      "note": 55,
      "start": 72.4411,
      "duration": 0.197,
      "velocity": 127,
      "chip": "ym2612"
    },
    {
      "channel": 5,
      "note": 85,
      "start": 72.4411,
      "duration": 0.0607,
      "velocity": 114,
      "chip": "ym2612"
    },
    {
      "channel": 2,
      "note": 88,
      "start": 72.5358,
      "duration": 0.1021,
      "velocity": 127,
      "chip": "ym2612"
    },
    {
      "channel": 0,
      "note": 85,
      "start": 72.6378,
      "duration": 0.514,
      "velocity": 85,
      "chip": "ym2612"
    },
    {
      "channel": 2,
      "note": 85,
      "start": 72.638,
      "duration": 0.0978,
      "velocity": 127,
      "chip": "ym2612"
    },
    {
      "channel": 3,
      "note": 92,
      "start": 72.6381,
      "duration": 0.6041,
      "velocity": 94,
      "chip": "ym2612"
    },
    {
      "channel": 5,
      "note": 85,
      "start": 72.6382,
      "duration": 0.0637,
      "velocity": 114,
      "chip": "ym2612"
    },
    {
      "channel": 2,
      "note": 83,
      "start": 72.7358,
      "duration": 0.105,
      "velocity": 127,
      "chip": "ym2612"
    },
    {
      "channel": 1,
      "note": 59,
      "start": 72.8407,
      "duration": 0.4013,
      "velocity": 92,
      "chip": "ym2612"
    },
    {
      "channel": 2,
      "note": 81,
      "start": 72.8408,
      "duration": 0.0949,
      "velocity": 127,
      "chip": "ym2612"
    },
    {
      "channel": 4,
      "note": 36,
      "start": 72.8409,
      "duration": 0.0611,
      "velocity": 101,
      "chip": "ym2612"
    },
    {
      "channel": 5,
      "note": 85,
      "start": 72.841,
      "duration": 0.0611,
      "velocity": 114,
      "chip": "ym2612"
    },
    {
      "channel": 2,
      "note": 83,
      "start": 72.9358,
      "duration": 0.1014,
      "velocity": 127,
      "chip": "ym2612"
    },
    {
      "channel": 2,
      "note": 85,
      "start": 73.0372,
      "duration": 0.0985,
      "velocity": 127,
      "chip": "ym2612"
    },
    {
      "channel": 4,
      "note": 36,
      "start": 73.0373,
      "duration": 0.0646,
      "velocity": 101,
      "chip": "ym2612"
    },
    {
      "channel": 5,
      "note": 85,
      "start": 73.0374,
      "duration": 0.0646,
      "velocity": 114,
      "chip": "ym2612"
    },
    {
      "channel": 2,
      "note": 86,
      "start": 73.1358,
      "duration": 0.1064,
      "velocity": 127,
      "chip": "ym2612"
    },
    {
      "channel": 0,
      "note": 92,
      "start": 73.242,
      "duration": 0.3433,
      "velocity": 85,
      "chip": "ym2612"
    },
    {
      "channel": 1,
      "note": 59,
      "start": 73.2421,
      "duration": 0.4031,
      "velocity": 92,
      "chip": "ym2612"
    },
    {
      "channel": 2,
      "note": 92,
      "start": 73.2422,
      "duration": 0.0936,
      "velocity": 127,
      "chip": "ym2612"
    },
    {
      "channel": 3,
      "note": 88,
      "start": 73.2423,
      "duration": 0.4032,
      "velocity": 94,
      "chip": "ym2612"
    },
    {
      "channel": 4,
      "note": 55,
      "start": 73.2423,
      "duration": 0.1945,
      "velocity": 127,
      "chip": "ym2612"
    },
    {
      "channel": 5,
      "note": 85,
      "start": 73.2424,
      "duration": 0.0595,
      "velocity": 114,
      "chip": "ym2612"
    },
    {
      "channel": 2,
      "note": 93,
      "start": 73.3358,
      "duration": 0.1009,
      "velocity": 127,
      "chip": "ym2612"
    },
    {
      "channel": 2,
      "note": 95,
      "start": 73.4367,
      "duration": 0.099,
      "velocity": 127,
      "chip": "ym2612"
    },
    {
      "channel": 5,
      "note": 85,
      "start": 73.4369,
      "duration": 0.0651,
      "velocity": 114,
      "chip": "ym2612"
    },
    {
      "channel": 2,
      "note": 97,
      "start": 73.5358,
      "duration": 0.1095,
      "velocity": 127,
      "chip": "ym2612"
    },
    {
      "channel": 0,
      "note": 93,
      "start": 73.6452,
      "duration": 0.5068,
      "velocity": 85,
      "chip": "ym2612"
    },
    {
      "channel": 1,
      "note": 57,
      "start": 73.6453,
      "duration": 0.395,
      "velocity": 92,
      "chip": "ym2612"
    },
    {
      "channel": 2,
      "note": 93,
      "start": 73.6454,
      "duration": 0.592,
      "velocity": 127,
      "chip": "ym2612"
    },
    {
      "channel": 3,
      "note": 95,
      "start": 73.6455,
      "duration": 1.5999,
      "velocity": 94,
      "chip": "ym2612"
    },
    {
      "channel": 4,
      "note": 36,
      "start": 73.6455,
      "duration": 0.1397,
      "velocity": 101,
      "chip": "ym2612"
    },
    {
      "channel": 5,
      "note": 85,
      "start": 73.6456,
      "duration": 0.0563,
      "velocity": 114,
      "chip": "ym2612"
    },
    {
      "channel": 5,
      "note": 85,
      "start": 73.8361,
      "duration": 0.0659,
      "velocity": 114,
      "chip": "ym2612"
    },
    {
      "channel": 1,
      "note": 57,
      "start": 74.0404,
      "duration": 0.3998,
      "velocity": 92,
      "chip": "ym2612"
    },
    {
      "channel": 4,
      "note": 55,
      "start": 74.0405,
      "duration": 0.197,
      "velocity": 127,
      "chip": "ym2612"
    },
    {
      "channel": 5,
      "note": 85,
      "start": 74.0406,
      "duration": 0.0614,
      "velocity": 114,
      "chip": "ym2612"
    },
    {
      "channel": 0,
      "note": 92,
      "start": 74.2373,
      "duration": 0.5146,
      "velocity": 85,
      "chip": "ym2612"
    },
    {
      "channel": 2,
      "note": 92,
      "start": 74.2374,
      "duration": 0.6041,
      "velocity": 127,
      "chip": "ym2612"
    },
    {
      "channel": 5,
      "note": 85,
      "start": 74.2376,
      "duration": 0.0644,
      "velocity": 114,
      "chip": "ym2612"
    },
    {
      "channel": 1,
      "note": 57,
      "start": 74.4402,
      "duration": 0.4013,
      "velocity": 92,
      "chip": "ym2612"
    },
    {
      "channel": 4,
      "note": 36,
      "start": 74.4402,
      "duration": 0.0618,
      "velocity": 101,
      "chip": "ym2612"
    },
    {
      "channel": 5,
      "note": 85,
      "start": 74.4403,
      "duration": 0.0618,
      "velocity": 114,
      "chip": "ym2612"
    },
    {
      "channel": 4,
      "note": 36,
      "start": 74.6366,
      "duration": 0.0654,
      "velocity": 101,
      "chip": "ym2612"
    },
    {
      "channel": 5,
      "note": 85,
      "start": 74.6367,
      "duration": 0.0654,
      "velocity": 114,
      "chip": "ym2612"
    },
    {
      "channel": 0,
      "note": 90,
      "start": 74.8414,
      "duration": 0.3438,
      "velocity": 85,
      "chip": "ym2612"
    },
    {
      "channel": 1,
      "note": 57,
      "start": 74.8415,
      "duration": 0.4036,
      "velocity": 92,
      "chip": "ym2612"
    },
    {
      "channel": 2,
      "note": 90,
      "start": 74.8416,
      "duration": 0.4037,
      "velocity": 127,
      "chip": "ym2612"
    },
    {
      "channel": 4,
      "note": 55,
      "start": 74.8417,
      "duration": 0.1945,
      "velocity": 127,
      "chip": "ym2612"
    },
    {
      "channel": 5,
      "note": 85,
      "start": 74.8418,
      "duration": 0.0602,
      "velocity": 114,
      "chip": "ym2612"
    },
    {
      "channel": 5,
      "note": 85,
      "start": 75.0362,
      "duration": 0.0657,
      "velocity": 114,
      "chip": "ym2612"
    },
    {
      "channel": 0,
      "note": 88,
      "start": 75.2451,
      "duration": 1.3902,
      "velocity": 85,
      "chip": "ym2612"
    },
    {
      "channel": 1,
      "note": 64,
      "start": 75.2452,
      "duration": 0.3947,
      "velocity": 92,
      "chip": "ym2612"
    },
    {
      "channel": 2,
      "note": 88,
      "start": 75.2453,
      "duration": 1.6031,
      "velocity": 127,
      "chip": "ym2612"
    },
    {
      "channel": 3,
      "note": 100,
      "start": 75.2454,
      "duration": 1.6031,
      "velocity": 94,
      "chip": "ym2612"
    },
    {
      "channel": 4,
      "note": 55,
      "start": 75.2455,
      "duration": 0.0897,
      "velocity": 127,
      "chip": "ym2612"
    },
    {
      "channel": 5,
      "note": 85,
      "start": 75.2455,
      "duration": 0.0563,
      "velocity": 114,
      "chip": "ym2612"
    },
    {
      "channel": 4,
      "note": 36,
      "start": 75.4387,
      "duration": 0.0633,
      "velocity": 101,
      "chip": "ym2612"
    },
    {
      "channel": 5,
      "note": 85,
      "start": 75.4388,
      "duration": 0.0633,
      "velocity": 114,
      "chip": "ym2612"
    },
    {
      "channel": 1,
      "note": 64,
      "start": 75.64,
      "duration": 0.4007,
      "velocity": 92,
      "chip": "ym2612"
    },
    {
      "channel": 4,
      "note": 55,
      "start": 75.64,
      "duration": 0.0952,
      "velocity": 127,
      "chip": "ym2612"
    },
    {
      "channel": 5,
      "note": 85,
      "start": 75.6401,
      "duration": 0.0618,
      "velocity": 114,
      "chip": "ym2612"
    },
    {
      "channel": 4,
      "note": 36,
      "start": 75.8387,
      "duration": 0.0633,
      "velocity": 101,
      "chip": "ym2612"
    },
    {
      "channel": 5,
      "note": 85,
      "start": 75.8388,
      "duration": 0.0633,
      "velocity": 114,
      "chip": "ym2612"
    },
    {
      "channel": 1,
      "note": 64,
      "start": 76.0407,
      "duration": 0.3992,
      "velocity": 92,
      "chip": "ym2612"
    },
    {
      "channel": 4,
      "note": 55,
      "start": 76.0408,
      "duration": 0.1945,
      "velocity": 127,
      "chip": "ym2612"
    },
    {
      "channel": 5,
      "note": 85,
      "start": 76.0409,
      "duration": 0.1444,
      "velocity": 114,
      "chip": "ym2612"
    },
    {
      "channel": 1,
      "note": 64,
      "start": 76.44,
      "duration": 0.4083,
      "velocity": 92,
      "chip": "ym2612"
    },
    {
      "channel": 4,
      "note": 55,
      "start": 76.44,
      "duration": 0.1954,
      "velocity": 127,
      "chip": "ym2612"
    },
    {
      "channel": 5,
      "note": 85,
      "start": 76.4401,
      "duration": 0.1452,
      "velocity": 114,
      "chip": "ym2612"
    },
    {
      "channel": 0,
      "note": 88,
      "start": 76.8482,
      "duration": 0.5204,
      "velocity": 85,
      "chip": "ym2612"
    },
    {
      "channel": 1,
      "note": 64,
      "start": 76.8483,
      "duration": 0.4048,
      "velocity": 92,
      "chip": "ym2612"
    },
    {
      "channel": 2,
      "note": 88,
      "start": 76.8485,
      "duration": 0.5973,
      "velocity": 127,
      "chip": "ym2612"
    },
    {
      "channel": 3,
      "note": 88,
      "start": 76.8485,
      "duration": 0.5972,
      "velocity": 94,
      "chip": "ym2612"
    },
    {
      "channel": 4,
      "note": 55,
      "start": 76.8486,
      "duration": 0.2034,
      "velocity": 127,
      "chip": "ym2612"
    },
    {
      "channel": 5,
      "note": 55,
      "start": 76.8486,
      "duration": 0.2034,
      "velocity": 127,
      "chip": "ym2612"
    },
    {
      "channel": 1,
      "note": 64,
      "start": 77.2532,
      "duration": 0.1925,
      "velocity": 92,
      "chip": "ym2612"
    }
  ]
}