{
  "track_name": "36 - Rykros Field",
  "duration_sec": 51.2,
  "sample_rate": 44100,
  "note_count": 504,
  "unique_pitches": 17,
  "pitch_range": 32,
  "avg_note_duration": 0.318,
  "reconstruction_stats": {
    "notes_reconstructed": 504,
    "keyon_events": 504,
    "keyoff_events": 481,
    "orphan_keyons": 3,
    "unique_pitches": 17,
    "pitch_range": 32,
    "avg_duration_sec": 0.318
  },
  "metadata": {
    "source": "P\\Phantasy Star IV\\36 - Rykros Field.vgm"
  },
  "notes": [
    {
      "channel": 0,
      "note": 80,
      "start": 0.0011,
      "duration": 0.082,
      "velocity": 87,
      "chip": "ym2612"
    },
    {
      "channel": 1,
      "note": 56,
      "start": 0.0022,
      "duration": 0.0218,
      "velocity": 87,
      "chip": "ym2612"
    },
    {
      "channel": 2,
      "note": 56,
      "start": 0.0031,
      "duration": 0.1574,
      "velocity": 98,
      "chip": "ym2612"
    },
    {
      "channel": 3,
      "note": 80,
      "start": 0.0136,
      "duration": 0.079,
      "velocity": 87,
      "chip": "ym2612"
    },
    {
      "channel": 4,
      "note": 56,
      "start": 0.0147,
      "duration": 0.0215,
      "velocity": 87,
      "chip": "ym2612"
    },
    {
      "channel": 1,
      "note": 63,
      "start": 0.0241,
      "duration": 0.0215,
      "velocity": 87,
      "chip": "ym2612"
    },
    {
      "channel": 4,
      "note": 63,
      "start": 0.0364,
      "duration": 0.0192,
      "velocity": 87,
      "chip": "ym2612"
    },
    {
      "channel": 1,
      "note": 68,
      "start": 0.0458,
      "duration": 0.0189,
      "velocity": 87,
      "chip": "ym2612"
    },
    {
      "channel": 4,
      "note": 68,
      "start": 0.0559,
      "duration": 0.0187,
      "velocity": 87,
      "chip": "ym2612"
    },
    {
      "channel": 1,
      "note": 75,
      "start": 0.065,
      "duration": 0.0183,
      "velocity": 87,
      "chip": "ym2612"
    },
    {
      "channel": 4,
      "note": 75,
      "start": 0.0747,
      "duration": 0.0182,
      "velocity": 87,
      "chip": "ym2612"
    },
    {
      "channel": 0,
      "note": 75,
      "start": 0.0832,
      "duration": 0.0768,
      "velocity": 87,
      "chip": "ym2612"
    },
    {
      "channel": 1,
      "note": 80,
      "start": 0.0836,
      "duration": 0.0191,
      "velocity": 87,
      "chip": "ym2612"
    },
    {
      "channel": 3,
      "note": 75,
      "start": 0.0929,
      "duration": 0.0761,
      "velocity": 87,
      "chip": "ym2612"
    },
    {
      "channel": 4,
      "note": 80,
      "start": 0.093,
      "duration": 0.0199,
      "velocity": 87,
      "chip": "ym2612"
    },
    {
      "channel": 1,
      "note": 75,
      "start": 0.1029,
      "duration": 0.0196,
      "velocity": 87,
      "chip": "ym2612"
    },
    {
      "channel": 4,
      "note": 75,
      "start": 0.113,
      "duration": 0.0193,
      "velocity": 87,
      "chip": "ym2612"
    },
    {
      "channel": 1,
      "note": 68,
      "start": 0.1227,
      "duration": 0.0188,
      "velocity": 87,
      "chip": "ym2612"
    },
    {
      "channel": 4,
      "note": 68,
      "start": 0.1324,
      "duration": 0.0191,
      "velocity": 87,
      "chip": "ym2612"
    },
    {
      "channel": 1,
      "note": 63,
      "start": 0.1417,
      "duration": 0.0185,
      "velocity": 87,
      "chip": "ym2612"
    },
    {
      "channel": 4,
      "note": 63,
      "start": 0.1517,
      "duration": 0.0172,
      "velocity": 87,
      "chip": "ym2612"
    },
    {
      "channel": 0,
      "note": 75,
      "start": 0.16,
      "duration": 0.1307,
      "velocity": 87,
      "chip": "ym2612"
    },
    {
      "channel": 1,
      "note": 56,
      "start": 0.1604,
      "duration": 0.0161,
      "velocity": 87,
      "chip": "ym2612"
    },
    {
      "channel": 2,
      "note": 56,
      "start": 0.1606,
      "duration": 0.1307,
      "velocity": 98,
      "chip": "ym2612"
    },
    {
      "channel": 3,
      "note": 75,
      "start": 0.1689,
      "duration": 0.1317,
      "velocity": 87,
      "chip": "ym2612"
    },
    {
      "channel": 4,
      "note": 56,
      "start": 0.1691,
      "duration": 0.0159,
      "velocity": 87,
      "chip": "ym2612"
    },
    {
      "channel": 1,
      "note": 63,
      "start": 0.1768,
      "duration": 0.016,
      "velocity": 87,
      "chip": "ym2612"
    },
    {
      "channel": 4,
      "note": 63,
      "start": 0.1851,
      "duration": 0.016,
      "velocity": 87,
      "chip": "ym2612"
    },
    {
      "channel": 1,
      "note": 68,
      "start": 0.1929,
      "duration": 0.016,
      "velocity": 87,
      "chip": "ym2612"
    },
    {
      "channel": 4,
      "note": 68,
      "start": 0.2014,
      "duration": 0.016,
      "velocity": 87,
      "chip": "ym2612"
    },
    {
      "channel": 1,
      "note": 75,
      "start": 0.2092,
      "duration": 0.0163,
      "velocity": 87,
      "chip": "ym2612"
    },
    {
      "channel": 4,
      "note": 75,
      "start": 0.2176,
      "duration": 0.0166,
      "velocity": 87,
      "chip": "ym2612"
    },
    {
      "channel": 1,
      "note": 80,
      "start": 0.2256,
      "duration": 0.0163,
      "velocity": 87,
      "chip": "ym2612"
    },
    {
      "channel": 4,
      "note": 80,
      "start": 0.2343,
      "duration": 0.0159,
      "velocity": 87,
      "chip": "ym2612"
    },
    {
      "channel": 1,
      "note": 75,
      "start": 0.2422,
      "duration": 0.016,
      "velocity": 87,
      "chip": "ym2612"
    },
    {
      "channel": 4,
      "note": 75,
      "start": 0.2505,
      "duration": 0.0165,
      "velocity": 87,
      "chip": "ym2612"
    },
    {
      "channel": 1,
      "note": 68,
      "start": 0.2585,
      "duration": 0.0162,
      "velocity": 87,
      "chip": "ym2612"
    },
    {
      "channel": 4,
      "note": 68,
      "start": 0.2672,
      "duration": 0.016,
      "velocity": 87,
      "chip": "ym2612"
    },
    {
      "channel": 1,
      "note": 63,
      "start": 0.2749,
      "duration": 0.0161,
      "velocity": 87,
      "chip": "ym2612"
    },
    {
      "channel": 4,
      "note": 63,
      "start": 0.2834,
      "duration": 0.0176,
      "velocity": 87,
      "chip": "ym2612"
    },
    {
      "channel": 0,
      "note": 80,
      "start": 0.291,
      "duration": 0.0758,
      "velocity": 87,
      "chip": "ym2612"
    },
    {
      "channel": 1,
      "note": 56,
      "start": 0.2912,
      "duration": 0.0188,
      "velocity": 87,
      "chip": "ym2612"
    },
    {
      "channel": 2,
      "note": 56,
      "start": 0.2915,
      "duration": 0.1531,
      "velocity": 98,
      "chip": "ym2612"
    },
    {
      "channel": 3,
      "note": 80,
      "start": 0.3008,
      "duration": 0.0758,
      "velocity": 87,
      "chip": "ym2612"
    },
    {
      "channel": 4,
      "note": 56,
      "start": 0.3012,
      "duration": 0.0184,
      "velocity": 87,
      "chip": "ym2612"
    },
    {
      "channel": 1,
      "note": 62,
      "start": 0.3102,
      "duration": 0.0189,
      "velocity": 87,
      "chip": "ym2612"
    },
    {
      "channel": 4,
      "note": 62,
      "start": 0.3197,
      "duration": 0.0194,
      "velocity": 87,
      "chip": "ym2612"
    },
    {
      "channel": 1,
      "note": 68,
      "start": 0.3293,
      "duration": 0.0191,
      "velocity": 87,
      "chip": "ym2612"
    },
    {
      "channel": 4,
      "note": 68,
      "start": 0.3393,
      "duration": 0.0189,
      "velocity": 87,
      "chip": "ym2612"
    },
    {
      "channel": 1,
      "note": 74,
      "start": 0.3487,
      "duration": 0.0184,
      "velocity": 87,
      "chip": "ym2612"
    },
    {
      "channel": 4,
      "note": 74,
      "start": 0.3584,
      "duration": 0.0185,
      "velocity": 87,
      "chip": "ym2612"
    },
    {
      "channel": 0,
      "note": 74,
      "start": 0.367,
      "duration": 0.0771,
      "velocity": 87,
      "chip": "ym2612"
    },
    {
      "channel": 1,
      "note": 80,
      "start": 0.3673,
      "duration": 0.0189,
      "velocity": 87,
      "chip": "ym2612"
    },
    {
      "channel": 3,
      "note": 74,
      "start": 0.3768,
      "duration": 0.0766,
      "velocity": 87,
      "chip": "ym2612"
    },
    {
      "channel": 4,
      "note": 80,
      "start": 0.3771,
      "duration": 0.0193,
      "velocity": 87,
      "chip": "ym2612"
    },
    {
      "channel": 1,
      "note": 74,
      "start": 0.3864,
      "duration": 0.0191,
      "velocity": 87,
      "chip": "ym2612"
    },
    {
      "channel": 4,
      "note": 74,
      "start": 0.3965,
      "duration": 0.0194,
      "velocity": 87,
      "chip": "ym2612"
    },
    {
      "channel": 1,
      "note": 68,
      "start": 0.4057,
      "duration": 0.0199,
      "velocity": 87,
      "chip": "ym2612"
    },
    {
      "channel": 4,
      "note": 68,
      "start": 0.4161,
      "duration": 0.0196,
      "velocity": 87,
      "chip": "ym2612"
    },
    {
      "channel": 1,
      "note": 62,
      "start": 0.4259,
      "duration": 0.0184,
      "velocity": 87,
      "chip": "ym2612"
    },
    {
      "channel": 4,
      "note": 62,
      "start": 0.4358,
      "duration": 0.0178,
      "velocity": 87,
      "chip": "ym2612"
    },
    {
      "channel": 0,
      "note": 74,
      "start": 0.4441,
      "duration": 0.1345,
      "velocity": 87,
      "chip": "ym2612"
    },
    {
      "channel": 1,
      "note": 56,
      "start": 0.4445,
      "duration": 0.017,
      "velocity": 87,
      "chip": "ym2612"
    },
    {
      "channel": 2,
      "note": 56,
      "start": 0.4447,
      "duration": 0.1346,
      "velocity": 98,
      "chip": "ym2612"
    },
    {
      "channel": 3,
      "note": 74,
      "start": 0.4534,
      "duration": 0.1354,
      "velocity": 87,
      "chip": "ym2612"
    },
    {
      "channel": 4,
      "note": 56,
      "start": 0.4538,
      "duration": 0.0162,
      "velocity": 87,
      "chip": "ym2612"
    },
    {
      "channel": 1,
      "note": 62,
      "start": 0.4616,
      "duration": 0.0163,
      "velocity": 87,
      "chip": "ym2612"
    },
    {
      "channel": 4,
      "note": 62,
      "start": 0.4702,
      "duration": 0.0164,
      "velocity": 87,
      "chip": "ym2612"
    },
    {
      "channel": 1,
      "note": 68,
      "start": 0.4781,
      "duration": 0.0164,
      "velocity": 87,
      "chip": "ym2612"
    },
    {
      "channel": 4,
      "note": 68,
      "start": 0.4867,
      "duration": 0.0186,
      "velocity": 87,
      "chip": "ym2612"
    },
    {
      "channel": 1,
      "note": 74,
      "start": 0.4947,
      "duration": 0.0187,
      "velocity": 87,
      "chip": "ym2612"
    },
    {
      "channel": 4,
      "note": 74,
      "start": 0.5055,
      "duration": 0.0166,
      "velocity": 87,
      "chip": "ym2612"
    },
    {
      "channel": 1,
      "note": 80,
      "start": 0.5136,
      "duration": 0.0163,
      "velocity": 87,
      "chip": "ym2612"
    },
    {
      "channel": 4,
      "note": 80,
      "start": 0.5223,
      "duration": 0.0159,
      "velocity": 87,
      "chip": "ym2612"
    },
    {
      "channel": 1,
      "note": 74,
      "start": 0.5302,
      "duration": 0.016,
      "velocity": 87,
      "chip": "ym2612"
    },
    {
      "channel": 4,
      "note": 74,
      "start": 0.5384,
      "duration": 0.0165,
      "velocity": 87,
      "chip": "ym2612"
    },
    {
      "channel": 1,
      "note": 68,
      "start": 0.5464,
      "duration": 0.0162,
      "velocity": 87,
      "chip": "ym2612"
    },
    {
      "channel": 4,
      "note": 68,
      "start": 0.5551,
      "duration": 0.016,
      "velocity": 87,
      "chip": "ym2612"
    },
    {
      "channel": 1,
      "note": 62,
      "start": 0.5629,
      "duration": 0.0161,
      "velocity": 87,
      "chip": "ym2612"
    },
    {
      "channel": 4,
      "note": 62,
      "start": 0.5713,
      "duration": 0.0178,
      "velocity": 87,
      "chip": "ym2612"
    },
    {
      "channel": 0,
      "note": 80,
      "start": 0.5789,
      "duration": 0.0768,
      "velocity": 87,
      "chip": "ym2612"
    },
    {
      "channel": 1,
      "note": 56,
      "start": 0.5793,
      "duration": 0.0197,
      "velocity": 87,
      "chip": "ym2612"
    },
    {
      "channel": 2,
      "note": 56,
      "start": 0.5796,
      "duration": 0.154,
      "velocity": 98,
      "chip": "ym2612"
    },
    {
      "channel": 3,
      "note": 80,
      "start": 0.589,
      "duration": 0.0763,
      "velocity": 87,
      "chip": "ym2612"
    },
    {
      "channel": 4,
      "note": 56,
      "start": 0.5894,
      "duration": 0.0194,
      "velocity": 87,
      "chip": "ym2612"
    },
    {
      "channel": 1,
      "note": 63,
      "start": 0.5991,
      "duration": 0.0193,
      "velocity": 87,
      "chip": "ym2612"
    },
    {
      "channel": 4,
      "note": 63,
      "start": 0.609,
      "duration": 0.0194,
      "velocity": 87,
      "chip": "ym2612"
    },
    {
      "channel": 1,
      "note": 68,
      "start": 0.6186,
      "duration": 0.0189,
      "velocity": 87,
      "chip": "ym2612"
    },
    {
      "channel": 4,
      "note": 68,
      "start": 0.6286,
      "duration": 0.0187,
      "velocity": 87,
      "chip": "ym2612"
    },
    {
      "channel": 1,
      "note": 75,
      "start": 0.6377,
      "duration": 0.0183,
      "velocity": 87,
      "chip": "ym2612"
    },
    {
      "channel": 4,
      "note": 75,
      "start": 0.6475,
      "duration": 0.0182,
      "velocity": 87,
      "chip": "ym2612"
    },
    {
      "channel": 0,
      "note": 75,
      "start": 0.656,
      "duration": 0.0772,
      "velocity": 87,
      "chip": "ym2612"
    },
    {
      "channel": 1,
      "note": 80,
      "start": 0.6563,
      "duration": 0.0191,
      "velocity": 87,
      "chip": "ym2612"
    },
    {
      "channel": 3,
      "note": 75,
      "start": 0.6656,
      "duration": 0.0767,
      "velocity": 87,
      "chip": "ym2612"
    },
    {
      "channel": 4,
      "note": 80,
      "start": 0.6658,
      "duration": 0.0199,
      "velocity": 87,
      "chip": "ym2612"
    },
    {
      "channel": 1,
      "note": 75,
      "start": 0.6756,
      "duration": 0.0196,
      "velocity": 87,
      "chip": "ym2612"
    },
    {
      "channel": 4,
      "note": 75,
      "start": 0.6858,
      "duration": 0.0193,
      "velocity": 87,
      "chip": "ym2612"
    },
    {
      "channel": 1,
      "note": 68,
      "start": 0.6954,
      "duration": 0.0187,
      "velocity": 87,
      "chip": "ym2612"
    },
    {
      "channel": 4,
      "note": 68,
      "start": 0.7051,
      "duration": 0.0193,
      "velocity": 87,
      "chip": "ym2612"
    },
    {
      "channel": 1,
      "note": 63,
      "start": 0.7143,
      "duration": 0.019,
      "velocity": 87,
      "chip": "ym2612"
    },
    {
      "channel": 4,
      "note": 63,
      "start": 0.7246,
      "duration": 0.0177,
      "velocity": 87,
      "chip": "ym2612"
    },
    {
      "channel": 0,
      "note": 75,
      "start": 0.7332,
      "duration": 0.1309,
      "velocity": 87,
      "chip": "ym2612"
    },
    {
      "channel": 1,
      "note": 56,
      "start": 0.7335,
      "duration": 0.0163,
      "velocity": 87,
      "chip": "ym2612"
    },
    {
      "channel": 2,
      "note": 56,
      "start": 0.7338,
      "duration": 0.1308,
      "velocity": 98,
      "chip": "ym2612"
    },
    {
      "channel": 3,
      "note": 75,
      "start": 0.7423,
      "duration": 0.1316,
      "velocity": 87,
      "chip": "ym2612"
    },
    {
      "channel": 4,
      "note": 56,
      "start": 0.7425,
      "duration": 0.0159,
      "velocity": 87,
      "chip": "ym2612"
    },
    {
      "channel": 1,
      "note": 63,
      "start": 0.7501,
      "duration": 0.016,
      "velocity": 87,
      "chip": "ym2612"
    },
    {
      "channel": 4,
      "note": 63,
      "start": 0.7584,
      "duration": 0.016,
      "velocity": 87,
      "chip": "ym2612"
    },
    {
      "channel": 1,
      "note": 68,
      "start": 0.7663,
      "duration": 0.016,
      "velocity": 87,
      "chip": "ym2612"
    },
    {
      "channel": 4,
      "note": 68,
      "start": 0.7747,
      "duration": 0.016,
      "velocity": 87,
      "chip": "ym2612"
    },
    {
      "channel": 1,
      "note": 75,
      "start": 0.7825,
      "duration": 0.0163,
      "velocity": 87,
      "chip": "ym2612"
    },
    {
      "channel": 4,
      "note": 75,
      "start": 0.7909,
      "duration": 0.0166,
      "velocity": 87,
      "chip": "ym2612"
    },
    {
      "channel": 1,
      "note": 80,
      "start": 0.799,
      "duration": 0.0163,
      "velocity": 87,
      "chip": "ym2612"
    },
    {
      "channel": 4,
      "note": 80,
      "start": 0.8077,
      "duration": 0.0159,
      "velocity": 87,
      "chip": "ym2612"
    },
    {
      "channel": 1,
      "note": 75,
      "start": 0.8155,
      "duration": 0.0161,
      "velocity": 87,
      "chip": "ym2612"
    },
    {
      "channel": 4,
      "note": 75,
      "start": 0.8238,
      "duration": 0.0165,
      "velocity": 87,
      "chip": "ym2612"
    },
    {
      "channel": 1,
      "note": 68,
      "start": 0.8318,
      "duration": 0.0162,
      "velocity": 87,
      "chip": "ym2612"
    },
    {
      "channel": 4,
      "note": 68,
      "start": 0.8405,
      "duration": 0.016,
      "velocity": 87,
      "chip": "ym2612"
    },
    {
      "channel": 1,
      "note": 63,
      "start": 0.8483,
      "duration": 0.0161,
      "velocity": 87,
      "chip": "ym2612"
    },
    {
      "channel": 4,
      "note": 63,
      "start": 0.8567,
      "duration": 0.0176,
      "velocity": 87,
      "chip": "ym2612"
    },
    {
      "channel": 0,
      "note": 80,
      "start": 0.8643,
      "duration": 0.0757,
      "velocity": 87,
      "chip": "ym2612"
    },
    {
      "channel": 1,
      "note": 56,
      "start": 0.8646,
      "duration": 0.0188,
      "velocity": 87,
      "chip": "ym2612"
    },
    {
      "channel": 2,
      "note": 56,
      "start": 0.8648,
      "duration": 0.1525,
      "velocity": 98,
      "chip": "ym2612"
    },
    {
      "channel": 3,
      "note": 80,
      "start": 0.8741,
      "duration": 0.0755,
      "velocity": 87,
      "chip": "ym2612"
    },
    {
      "channel": 4,
      "note": 56,
      "start": 0.8745,
      "duration": 0.0184,
      "velocity": 87,
      "chip": "ym2612"
    },
    {
      "channel": 1,
      "note": 62,
      "start": 0.8835,
      "duration": 0.0189,
      "velocity": 87,
      "chip": "ym2612"
    },
    {
      "channel": 4,
      "note": 62,
      "start": 0.8931,
      "duration": 0.0194,
      "velocity": 87,
      "chip": "ym2612"
    },
    {
      "channel": 1,
      "note": 68,
      "start": 0.9027,
      "duration": 0.0191,
      "velocity": 87,
      "chip": "ym2612"
    },
    {
      "channel": 4,
      "note": 68,
      "start": 0.9127,
      "duration": 0.0189,
      "velocity": 87,
      "chip": "ym2612"
    },
    {
      "channel": 1,
      "note": 74,
      "start": 0.922,
      "duration": 0.0183,
      "velocity": 87,
      "chip": "ym2612"
    },
    {
      "channel": 4,
      "note": 74,
      "start": 0.9317,
      "duration": 0.0182,
      "velocity": 87,
      "chip": "ym2612"
    },
    {
      "channel": 0,
      "note": 74,
      "start": 0.9402,
      "duration": 0.0767,
      "velocity": 87,
      "chip": "ym2612"
    },
    {
      "channel": 1,
      "note": 80,
      "start": 0.9405,
      "duration": 0.0191,
      "velocity": 87,
      "chip": "ym2612"
    },
    {
      "channel": 3,
      "note": 74,
      "start": 0.9498,
      "duration": 0.0763,
      "velocity": 87,
      "chip": "ym2612"
    },
    {
      "channel": 4,
      "note": 80,
      "start": 0.95,
      "duration": 0.0199,
      "velocity": 87,
      "chip": "ym2612"
    },
    {
      "channel": 1,
      "note": 74,
      "start": 0.9599,
      "duration": 0.0196,
      "velocity": 87,
      "chip": "ym2612"
    },
    {
      "channel": 4,
      "note": 74,
      "start": 0.97,
      "duration": 0.0193,
      "velocity": 87,
      "chip": "ym2612"
    },
    {
      "channel": 1,
      "note": 68,
      "start": 0.9796,
      "duration": 0.0188,
      "velocity": 87,
      "chip": "ym2612"
    },
    {
      "channel": 4,
      "note": 68,
      "start": 0.9894,
      "duration": 0.019,
      "velocity": 87,
      "chip": "ym2612"
    },
    {
      "channel": 1,
      "note": 62,
      "start": 0.9986,
      "duration": 0.0183,
      "velocity": 87,
      "chip": "ym2612"
    },
    {
      "channel": 4,
      "note": 62,
      "start": 1.0086,
      "duration": 0.0178,
      "velocity": 87,
      "chip": "ym2612"
    },
    {
      "channel": 0,
      "note": 74,
      "start": 1.0169,
      "duration": 0.1347,
      "velocity": 87,
      "chip": "ym2612"
    },
    {
      "channel": 1,
      "note": 56,
      "start": 1.0172,
      "duration": 0.017,
      "velocity": 87,
      "chip": "ym2612"
    },
    {
      "channel": 2,
      "note": 56,
      "start": 1.0175,
      "duration": 0.1348,
      "velocity": 98,
      "chip": "ym2612"
    },
    {
      "channel": 3,
      "note": 74,
      "start": 1.0262,
      "duration": 0.1353,
      "velocity": 87,
      "chip": "ym2612"
    },
    {
      "channel": 4,
      "note": 56,
      "start": 1.0266,
      "duration": 0.0162,
      "velocity": 87,
      "chip": "ym2612"
    },
    {
      "channel": 1,
      "note": 62,
      "start": 1.0344,
      "duration": 0.0164,
      "velocity": 87,
      "chip": "ym2612"
    },
    {
      "channel": 4,
      "note": 62,
      "start": 1.0429,
      "duration": 0.0165,
      "velocity": 87,
      "chip": "ym2612"
    },
    {
      "channel": 1,
      "note": 68,
      "start": 1.0509,
      "duration": 0.0167,
      "velocity": 87,
      "chip": "ym2612"
    },
    {
      "channel": 4,
      "note": 68,
      "start": 1.0595,
      "duration": 0.0191,
      "velocity": 87,
      "chip": "ym2612"
    },
    {
      "channel": 1,
      "note": 74,
      "start": 1.0678,
      "duration": 0.0188,
      "velocity": 87,
      "chip": "ym2612"
    },
    {
      "channel": 4,
      "note": 74,
      "start": 1.0789,
      "duration": 0.0162,
      "velocity": 87,
      "chip": "ym2612"
    },
    {
      "channel": 1,
      "note": 80,
      "start": 1.0867,
      "duration": 0.0161,
      "velocity": 87,
      "chip": "ym2612"
    },
    {
      "channel": 4,
      "note": 80,
      "start": 1.0952,
      "duration": 0.0159,
      "velocity": 87,
      "chip": "ym2612"
    },
    {
      "channel": 1,
      "note": 74,
      "start": 1.1031,
      "duration": 0.016,
      "velocity": 87,
      "chip": "ym2612"
    },
    {
      "channel": 4,
      "note": 74,
      "start": 1.1113,
      "duration": 0.0165,
      "velocity": 87,
      "chip": "ym2612"
    },
    {
      "channel": 1,
      "note": 68,
      "start": 1.1193,
      "duration": 0.0162,
      "velocity": 87,
      "chip": "ym2612"
    },
    {
      "channel": 4,
      "note": 68,
      "start": 1.128,
      "duration": 0.016,
      "velocity": 87,
      "chip": "ym2612"
    },
    {
      "channel": 1,
      "note": 62,
      "start": 1.1358,
      "duration": 0.0161,
      "velocity": 87,
      "chip": "ym2612"
    },
    {
      "channel": 4,
      "note": 62,
      "start": 1.1442,
      "duration": 0.0176,
      "velocity": 87,
      "chip": "ym2612"
    },
    {
      "channel": 0,
      "note": 80,
      "start": 1.1518,
      "duration": 0.0763,
      "velocity": 87,
      "chip": "ym2612"
    },
    {
      "channel": 1,
      "note": 56,
      "start": 1.1521,
      "duration": 0.0191,
      "velocity": 87,
      "chip": "ym2612"
    },
    {
      "channel": 2,
      "note": 56,
      "start": 1.1523,
      "duration": 0.1532,
      "velocity": 98,
      "chip": "ym2612"
    },
    {
      "channel": 3,
      "note": 80,
      "start": 1.1616,
      "duration": 0.0761,
      "velocity": 87,
      "chip": "ym2612"
    },
    {
      "channel": 4,
      "note": 56,
      "start": 1.162,
      "duration": 0.0192,
      "velocity": 87,
      "chip": "ym2612"
    },
    {
      "channel": 1,
      "note": 63,
      "start": 1.1715,
      "duration": 0.0192,
      "velocity": 87,
      "chip": "ym2612"
    },
    {
      "channel": 4,
      "note": 63,
      "start": 1.1813,
      "duration": 0.0194,
      "velocity": 87,
      "chip": "ym2612"
    },
    {
      "channel": 1,
      "note": 68,
      "start": 1.191,
      "duration": 0.0189,
      "velocity": 87,
      "chip": "ym2612"
    },
    {
      "channel": 4,
      "note": 68,
      "start": 1.2009,
      "duration": 0.0187,
      "velocity": 87,
      "chip": "ym2612"
    },
    {
      "channel": 1,
      "note": 75,
      "start": 1.2101,
      "duration": 0.0183,
      "velocity": 87,
      "chip": "ym2612"
    },
    {
      "channel": 4,
      "note": 75,
      "start": 1.2198,
      "duration": 0.0182,
      "velocity": 87,
      "chip": "ym2612"
    },
    {
      "channel": 0,
      "note": 87,
      "start": 1.2283,
      "duration": 0.0767,
      "velocity": 87,
      "chip": "ym2612"
    },
    {
      "channel": 1,
      "note": 80,
      "start": 1.2286,
      "duration": 0.0191,
      "velocity": 87,
      "chip": "ym2612"
    },
    {
      "channel": 3,
      "note": 87,
      "start": 1.2379,
      "duration": 0.0764,
      "velocity": 87,
      "chip": "ym2612"
    },
    {
      "channel": 4,
      "note": 80,
      "start": 1.2381,
      "duration": 0.0199,
      "velocity": 87,
      "chip": "ym2612"
    },
    {
      "channel": 1,
      "note": 75,
      "start": 1.248,
      "duration": 0.0197,
      "velocity": 87,
      "chip": "ym2612"
    },
    {
      "channel": 4,
      "note": 75,
      "start": 1.2581,
      "duration": 0.0193,
      "velocity": 87,
      "chip": "ym2612"
    },
    {
      "channel": 1,
      "note": 68,
      "start": 1.2678,
      "duration": 0.0188,
      "velocity": 87,
      "chip": "ym2612"
    },
    {
      "channel": 4,
      "note": 68,
      "start": 1.2776,
      "duration": 0.019,
      "velocity": 87,
      "chip": "ym2612"
    },
    {
      "channel": 1,
      "note": 63,
      "start": 1.2868,
      "duration": 0.0183,
      "velocity": 87,
      "chip": "ym2612"
    },
    {
      "channel": 4,
      "note": 63,
      "start": 1.2967,
      "duration": 0.0178,
      "velocity": 87,
      "chip": "ym2612"
    },
    {
      "channel": 0,
      "note": 87,
      "start": 1.3051,
      "duration": 0.102,
      "velocity": 87,
      "chip": "ym2612"
    },
    {
      "channel": 1,
      "note": 56,
      "start": 1.3054,
      "duration": 0.017,
      "velocity": 87,
      "chip": "ym2612"
    },
    {
      "channel": 2,
      "note": 56,
      "start": 1.3056,
      "duration": 0.1364,
      "velocity": 98,
      "chip": "ym2612"
    },
    {
      "channel": 3,
      "note": 87,
      "start": 1.3144,
      "duration": 0.102,
      "velocity": 87,
      "chip": "ym2612"
    },
    {
      "channel": 4,
      "note": 56,
      "start": 1.3147,
      "duration": 0.0162,
      "velocity": 87,
      "chip": "ym2612"
    },
    {
      "channel": 1,
      "note": 63,
      "start": 1.3225,
      "duration": 0.0163,
      "velocity": 87,
      "chip": "ym2612"
    },
    {
      "channel": 4,
      "note": 63,
      "start": 1.3311,
      "duration": 0.0165,
      "velocity": 87,
      "chip": "ym2612"
    },
    {
      "channel": 1,
      "note": 68,
      "start": 1.339,
      "duration": 0.0167,
      "velocity": 87,
      "chip": "ym2612"
    },
    {
      "channel": 4,
      "note": 68,
      "start": 1.3477,
      "duration": 0.0191,
      "velocity": 87,
      "chip": "ym2612"
    },
    {
      "channel": 1,
      "note": 75,
      "start": 1.3559,
      "duration": 0.0186,
      "velocity": 87,
      "chip": "ym2612"
    },
    {
      "channel": 4,
      "note": 75,
      "start": 1.367,
      "duration": 0.0161,
      "velocity": 87,
      "chip": "ym2612"
    },
    {
      "channel": 1,
      "note": 80,
      "start": 1.3748,
      "duration": 0.0162,
      "velocity": 87,
      "chip": "ym2612"
    },
    {
      "channel": 4,
      "note": 80,
      "start": 1.3834,
      "duration": 0.0158,
      "velocity": 87,
      "chip": "ym2612"
    },
    {
      "channel": 1,
      "note": 75,
      "start": 1.3912,
      "duration": 0.0162,
      "velocity": 87,
      "chip": "ym2612"
    },
    {
      "channel": 4,
      "note": 75,
      "start": 1.3994,
      "duration": 0.0171,
      "velocity": 87,
      "chip": "ym2612"
    },
    {
      "channel": 0,
      "note": 80,
      "start": 1.4073,
      "duration": 0.0171,
      "velocity": 87,
      "chip": "ym2612"
    },
    {
      "channel": 1,
      "note": 68,
      "start": 1.4077,
      "duration": 0.0171,
      "velocity": 87,
      "chip": "ym2612"
    },
    {
      "channel": 3,
      "note": 80,
      "start": 1.4165,
      "duration": 0.0168,
      "velocity": 87,
      "chip": "ym2612"
    },
    {
      "channel": 4,
      "note": 68,
      "start": 1.4168,
      "duration": 0.0168,
      "velocity": 87,
      "chip": "ym2612"
    },
    {
      "channel": 0,
      "note": 87,
      "start": 1.4246,
      "duration": 0.0167,
      "velocity": 87,
      "chip": "ym2612"
    },
    {
      "channel": 1,
      "note": 63,
      "start": 1.425,
      "duration": 0.0167,
      "velocity": 87,
      "chip": "ym2612"
    },
    {
      "channel": 3,
      "note": 87,
      "start": 1.4335,
      "duration": 0.0203,
      "velocity": 87,
      "chip": "ym2612"
    },
    {
      "channel": 4,
      "note": 63,
      "start": 1.4338,
      "duration": 0.0202,
      "velocity": 87,
      "chip": "ym2612"
    },
    {
      "channel": 0,
      "note": 86,
      "start": 1.4416,
      "duration": 0.0784,
      "velocity": 87,
      "chip": "ym2612"
    },
    {
      "channel": 1,
      "note": 56,
      "start": 1.4419,
      "duration": 0.0213,
      "velocity": 87,
      "chip": "ym2612"
    },
    {
      "channel": 2,
      "note": 56,
      "start": 1.4423,
      "duration": 0.1552,
      "velocity": 98,
      "chip": "ym2612"
    },
    {
      "channel": 3,
      "note": 86,
      "start": 1.4539,
      "duration": 0.076,
      "velocity": 87,
      "chip": "ym2612"
    },
    {
      "channel": 4,
      "note": 56,
      "start": 1.4543,
      "duration": 0.0184,
      "velocity": 87,
      "chip": "ym2612"
    },
    {
      "channel": 1,
      "note": 62,
      "start": 1.4634,
      "duration": 0.0189,
      "velocity": 87,
      "chip": "ym2612"
    },
    {
      "channel": 4,
      "note": 62,
      "start": 1.4729,
      "duration": 0.0192,
      "velocity": 87,
      "chip": "ym2612"
    },
    {
      "channel": 1,
      "note": 68,
      "start": 1.4825,
      "duration": 0.0192,
      "velocity": 87,
      "chip": "ym2612"
    },
    {
      "channel": 4,
      "note": 68,
      "start": 1.4923,
      "duration": 0.0193,
      "velocity": 87,
      "chip": "ym2612"
    },
    {
      "channel": 1,
      "note": 74,
      "start": 1.5019,
      "duration": 0.0184,
      "velocity": 87,
      "chip": "ym2612"
    },
    {
      "channel": 4,
      "note": 74,
      "start": 1.5118,
      "duration": 0.0184,
      "velocity": 87,
      "chip": "ym2612"
    },
    {
      "channel": 0,
      "note": 82,
      "start": 1.5203,
      "duration": 0.0768,
      "velocity": 87,
      "chip": "ym2612"
    },
    {
      "channel": 1,
      "note": 80,
      "start": 1.5206,
      "duration": 0.0185,
      "velocity": 87,
      "chip": "ym2612"
    },
    {
      "channel": 3,
      "note": 82,
      "start": 1.5301,
      "duration": 0.0763,
      "velocity": 87,
      "chip": "ym2612"
    },
    {
      "channel": 4,
      "note": 80,
      "start": 1.5303,
      "duration": 0.019,
      "velocity": 87,
      "chip": "ym2612"
    },
    {
      "channel": 1,
      "note": 74,
      "start": 1.5393,
      "duration": 0.0191,
      "velocity": 87,
      "chip": "ym2612"
    },
    {
      "channel": 4,
      "note": 74,
      "start": 1.5494,
      "duration": 0.0194,
      "velocity": 87,
      "chip": "ym2612"
    },
    {
      "channel": 1,
      "note": 68,
      "start": 1.5586,
      "duration": 0.0199,
      "velocity": 87,
      "chip": "ym2612"
    },
    {
      "channel": 4,
      "note": 68,
      "start": 1.569,
      "duration": 0.0196,
      "velocity": 87,
      "chip": "ym2612"
    },
    {
      "channel": 1,
      "note": 62,
      "start": 1.5788,
      "duration": 0.0184,
      "velocity": 87,
      "chip": "ym2612"
    },
    {
      "channel": 4,
      "note": 62,
      "start": 1.5887,
      "duration": 0.0178,
      "velocity": 87,
      "chip": "ym2612"
    },
    {
      "channel": 0,
      "note": 82,
      "start": 1.5971,
      "duration": 0.1021,
      "velocity": 87,
      "chip": "ym2612"
    },
    {
      "channel": 1,
      "note": 56,
      "start": 1.5974,
      "duration": 0.017,
      "velocity": 87,
      "chip": "ym2612"
    },
    {
      "channel": 2,
      "note": 56,
      "start": 1.5976,
      "duration": 0.1353,
      "velocity": 98,
      "chip": "ym2612"
    },
    {
      "channel": 3,
      "note": 82,
      "start": 1.6063,
      "duration": 0.102,
      "velocity": 87,
      "chip": "ym2612"
    },
    {
      "channel": 4,
      "note": 56,
      "start": 1.6067,
      "duration": 0.0162,
      "velocity": 87,
      "chip": "ym2612"
    },
    {
      "channel": 1,
      "note": 62,
      "start": 1.6145,
      "duration": 0.0163,
      "velocity": 87,
      "chip": "ym2612"
    },
    {
      "channel": 4,
      "note": 62,
      "start": 1.6231,
      "duration": 0.0165,
      "velocity": 87,
      "chip": "ym2612"
    },
    {
      "channel": 1,
      "note": 68,
      "start": 1.631,
      "duration": 0.0167,
      "velocity": 87,
      "chip": "ym2612"
    },
    {
      "channel": 4,
      "note": 68,
      "start": 1.6397,
      "duration": 0.0191,
      "velocity": 87,
      "chip": "ym2612"
    },
    {
      "channel": 1,
      "note": 74,
      "start": 1.6479,
      "duration": 0.0188,
      "velocity": 87,
      "chip": "ym2612"
    },
    {
      "channel": 4,
      "note": 74,
      "start": 1.659,
      "duration": 0.0162,
      "velocity": 87,
      "chip": "ym2612"
    },
    {
      "channel": 1,
      "note": 80,
      "start": 1.6669,
      "duration": 0.0161,
      "velocity": 87,
      "chip": "ym2612"
    },
    {
      "channel": 4,
      "note": 80,
      "start": 1.6754,
      "duration": 0.0159,
      "velocity": 87,
      "chip": "ym2612"
    },
    {
      "channel": 1,
      "note": 74,
      "start": 1.6832,
      "duration": 0.0162,
      "velocity": 87,
      "chip": "ym2612"
    },
    {
      "channel": 4,
      "note": 74,
      "start": 1.6915,
      "duration": 0.0171,
      "velocity": 87,
      "chip": "ym2612"
    },
    {
      "channel": 0,
      "note": 84,
      "start": 1.6994,
      "duration": 0.0329,
      "velocity": 87,
      "chip": "ym2612"
    },
    {
      "channel": 1,
      "note": 68,
      "start": 1.6997,
      "duration": 0.0168,
      "velocity": 87,
      "chip": "ym2612"
    },
    {
      "channel": 3,
      "note": 84,
      "start": 1.7085,
      "duration": 0.0336,
      "velocity": 87,
      "chip": "ym2612"
    },
    {
      "channel": 4,
      "note": 68,
      "start": 1.7088,
      "duration": 0.0159,
      "velocity": 87,
      "chip": "ym2612"
    },
    {
      "channel": 1,
      "note": 62,
      "start": 1.7168,
      "duration": 0.016,
      "velocity": 87,
      "chip": "ym2612"
    },
    {
      "channel": 4,
      "note": 62,
      "start": 1.7249,
      "duration": 0.0176,
      "velocity": 87,
      "chip": "ym2612"
    },
    {
      "channel": 0,
      "note": 85,
      "start": 1.7326,
      "duration": 0.1526,
      "velocity": 87,
      "chip": "ym2612"
    },
    {
      "channel": 1,
      "note": 56,
      "start": 1.7329,
      "duration": 0.0187,
      "velocity": 87,
      "chip": "ym2612"
    },
    {
      "channel": 2,
      "note": 56,
      "start": 1.7331,
      "duration": 0.1527,
      "velocity": 98,
      "chip": "ym2612"
    },
    {
      "channel": 3,
      "note": 85,
      "start": 1.7423,
      "duration": 0.1524,
      "velocity": 87,
      "chip": "ym2612"
    },
    {
      "channel": 4,
      "note": 56,
      "start": 1.7426,
      "duration": 0.0185,
      "velocity": 87,
      "chip": "ym2612"
    },
    {
      "channel": 1,
      "note": 61,
      "start": 1.7519,
      "duration": 0.0188,
      "velocity": 87,
      "chip": "ym2612"
    },
    {
      "channel": 4,
      "note": 61,
      "start": 1.7613,
      "duration": 0.0194,
      "velocity": 87,
      "chip": "ym2612"
    },
    {
      "channel": 1,
      "note": 68,
      "start": 1.7709,
      "duration": 0.0189,
      "velocity": 87,
      "chip": "ym2612"
    },
    {
      "channel": 4,
      "note": 68,
      "start": 1.7809,
      "duration": 0.0187,
      "velocity": 87,
      "chip": "ym2612"
    },
    {
      "channel": 1,
      "note": 73,
      "start": 1.79,
      "duration": 0.0181,
      "velocity": 87,
      "chip": "ym2612"
    },
    {
      "channel": 4,
      "note": 73,
      "start": 1.7998,
      "duration": 0.018,
      "velocity": 87,
      "chip": "ym2612"
    },
    {
      "channel": 1,
      "note": 80,
      "start": 1.8083,
      "duration": 0.0188,
      "velocity": 87,
      "chip": "ym2612"
    },
    {
      "channel": 4,
      "note": 80,
      "start": 1.8179,
      "duration": 0.0196,
      "velocity": 87,
      "chip": "ym2612"
    },
    {
      "channel": 1,
      "note": 73,
      "start": 1.8274,
      "duration": 0.0198,
      "velocity": 87,
      "chip": "ym2612"
    },
    {
      "channel": 4,
      "note": 73,
      "start": 1.8377,
      "duration": 0.0197,
      "velocity": 87,
      "chip": "ym2612"
    },
    {
      "channel": 1,
      "note": 68,
      "start": 1.8474,
      "duration": 0.0187,
      "velocity": 87,
      "chip": "ym2612"
    },
    {
      "channel": 4,
      "note": 68,
      "start": 1.8576,
      "duration": 0.0191,
      "velocity": 87,
      "chip": "ym2612"
    },
    {
      "channel": 1,
      "note": 61,
      "start": 1.8663,
      "duration": 0.0193,
      "velocity": 87,
      "chip": "ym2612"
    },
    {
      "channel": 4,
      "note": 61,
      "start": 1.8769,
      "duration": 0.018,
      "velocity": 87,
      "chip": "ym2612"
    },
    {
      "channel": 0,
      "note": 88,
      "start": 1.8854,
      "duration": 0.1309,
      "velocity": 87,
      "chip": "ym2612"
    },
    {
      "channel": 1,
      "note": 56,
      "start": 1.8857,
      "duration": 0.0171,
      "velocity": 87,
      "chip": "ym2612"
    },
    {
      "channel": 2,
      "note": 56,
      "start": 1.886,
      "duration": 0.1308,
      "velocity": 98,
      "chip": "ym2612"
    },
    {
      "channel": 3,
      "note": 88,
      "start": 1.8948,
      "duration": 0.1312,
      "velocity": 87,
      "chip": "ym2612"
    },
    {
      "channel": 4,
      "note": 56,
      "start": 1.8951,
      "duration": 0.0162,
      "velocity": 87,
      "chip": "ym2612"
    },
    {
      "channel": 1,
      "note": 61,
      "start": 1.903,
      "duration": 0.0162,
      "velocity": 87,
      "chip": "ym2612"
    },
    {
      "channel": 4,
      "note": 61,
      "start": 1.9114,
      "duration": 0.0161,
      "velocity": 87,
      "chip": "ym2612"
    },
    {
      "channel": 1,
      "note": 68,
      "start": 1.9194,
      "duration": 0.016,
      "velocity": 87,
      "chip": "ym2612"
    },
    {
      "channel": 4,
      "note": 68,
      "start": 1.9277,
      "duration": 0.0161,
      "velocity": 87,
      "chip": "ym2612"
    },
    {
      "channel": 1,
      "note": 73,
      "start": 1.9356,
      "duration": 0.0159,
      "velocity": 87,
      "chip": "ym2612"
    },
    {
      "channel": 4,
      "note": 73,
      "start": 1.944,
      "duration": 0.0161,
      "velocity": 87,
      "chip": "ym2612"
    },
    {
      "channel": 1,
      "note": 80,
      "start": 1.9517,
      "duration": 0.0164,
      "velocity": 87,
      "chip": "ym2612"
    },
    {
      "channel": 4,
      "note": 80,
      "start": 1.9603,
      "duration": 0.016,
      "velocity": 87,
      "chip": "ym2612"
    },
    {
      "channel": 1,
      "note": 73,
      "start": 1.9683,
      "duration": 0.0158,
      "velocity": 87,
      "chip": "ym2612"
    },
    {
      "channel": 4,
      "note": 73,
      "start": 1.9765,
      "duration": 0.0159,
      "velocity": 87,
      "chip": "ym2612"
    },
    {
      "channel": 1,
      "note": 68,
      "start": 1.9843,
      "duration": 0.0159,
      "velocity": 87,
      "chip": "ym2612"
    },
    {
      "channel": 4,
      "note": 68,
      "start": 1.9926,
      "duration": 0.0161,
      "velocity": 87,
      "chip": "ym2612"
    },
    {
      "channel": 1,
      "note": 61,
      "start": 2.0005,
      "duration": 0.0162,
      "velocity": 87,
      "chip": "ym2612"
    },
    {
      "channel": 4,
      "note": 61,
      "start": 2.0088,
      "duration": 0.0175,
      "velocity": 87,
      "chip": "ym2612"
    },
    {
      "channel": 0,
      "note": 87,
      "start": 2.0166,
      "duration": 0.1532,
      "velocity": 87,
      "chip": "ym2612"
    },
    {
      "channel": 1,
      "note": 56,
      "start": 2.0168,
      "duration": 0.0188,
      "velocity": 87,
      "chip": "ym2612"
    },
    {
      "channel": 2,
      "note": 56,
      "start": 2.0171,
      "duration": 0.1531,
      "velocity": 98,
      "chip": "ym2612"
    },
    {
      "channel": 3,
      "note": 87,
      "start": 2.0263,
      "duration": 0.1529,
      "velocity": 87,
      "chip": "ym2612"
    },
    {
      "channel": 4,
      "note": 56,
      "start": 2.0264,
      "duration": 0.0193,
      "velocity": 87,
      "chip": "ym2612"
    },
    {
      "channel": 1,
      "note": 60,
      "start": 2.0358,
      "duration": 0.0194,
      "velocity": 87,
      "chip": "ym2612"
    },
    {
      "channel": 4,
      "note": 60,
      "start": 2.0459,
      "duration": 0.0193,
      "velocity": 87,
      "chip": "ym2612"
    },
    {
      "channel": 1,
      "note": 68,
      "start": 2.0554,
      "duration": 0.0189,
      "velocity": 87,
      "chip": "ym2612"
    },
    {
      "channel": 4,
      "note": 68,
      "start": 2.0654,
      "duration": 0.0187,
      "velocity": 87,
      "chip": "ym2612"
    },
    {
      "channel": 1,
      "note": 72,
      "start": 2.0746,
      "duration": 0.0181,
      "velocity": 87,
      "chip": "ym2612"
    },
    {
      "channel": 4,
      "note": 72,
      "start": 2.0843,
      "duration": 0.018,
      "velocity": 87,
      "chip": "ym2612"
    },
    {
      "channel": 1,
      "note": 80,
      "start": 2.0929,
      "duration": 0.0188,
      "velocity": 87,
      "chip": "ym2612"
    },
    {
      "channel": 4,
      "note": 80,
      "start": 2.1024,
      "duration": 0.0196,
      "velocity": 87,
      "chip": "ym2612"
    },
    {
      "channel": 1,
      "note": 72,
      "start": 2.1119,
      "duration": 0.0198,
      "velocity": 87,
      "chip": "ym2612"
    },
    {
      "channel": 4,
      "note": 72,
      "start": 2.1222,
      "duration": 0.0197,
      "velocity": 87,
      "chip": "ym2612"
    },
    {
      "channel": 1,
      "note": 68,
      "start": 2.132,
      "duration": 0.0187,
      "velocity": 87,
      "chip": "ym2612"
    },
    {
      "channel": 4,
      "note": 68,
      "start": 2.1421,
      "duration": 0.0191,
      "velocity": 87,
      "chip": "ym2612"
    },
    {
      "channel": 1,
      "note": 60,
      "start": 2.1508,
      "duration": 0.0191,
      "velocity": 87,
      "chip": "ym2612"
    },
    {
      "channel": 4,
      "note": 60,
      "start": 2.1615,
      "duration": 0.0178,
      "velocity": 87,
      "chip": "ym2612"
    },
    {
      "channel": 0,
      "note": 87,
      "start": 2.1698,
      "duration": 0.1349,
      "velocity": 87,
      "chip": "ym2612"
    },
    {
      "channel": 1,
      "note": 56,
      "start": 2.1701,
      "duration": 0.017,
      "velocity": 87,
      "chip": "ym2612"
    },
    {
      "channel": 2,
      "note": 56,
      "start": 2.1704,
      "duration": 0.135,
      "velocity": 98,
      "chip": "ym2612"
    },
    {
      "channel": 3,
      "note": 87,
      "start": 2.1791,
      "duration": 0.1353,
      "velocity": 87,
      "chip": "ym2612"
    },
    {
      "channel": 4,
      "note": 56,
      "start": 2.1795,
      "duration": 0.016,
      "velocity": 87,
      "chip": "ym2612"
    },
    {
      "channel": 1,
      "note": 60,
      "start": 2.1873,
      "duration": 0.016,
      "velocity": 87,
      "chip": "ym2612"
    },
    {
      "channel": 4,
      "note": 60,
      "start": 2.1957,
      "duration": 0.016,
      "velocity": 87,
      "chip": "ym2612"
    },
    {
      "channel": 1,
      "note": 68,
      "start": 2.2035,
      "duration": 0.0162,
      "velocity": 87,
      "chip": "ym2612"
    },
    {
      "channel": 4,
      "note": 68,
      "start": 2.2118,
      "duration": 0.0163,
      "velocity": 87,
      "chip": "ym2612"
    },
    {
      "channel": 1,
      "note": 72,
      "start": 2.22,
      "duration": 0.0161,
      "velocity": 87,
      "chip": "ym2612"
    },
    {
      "channel": 4,
      "note": 72,
      "start": 2.2283,
      "duration": 0.0165,
      "velocity": 87,
      "chip": "ym2612"
    },
    {
      "channel": 1,
      "note": 80,
      "start": 2.2363,
      "duration": 0.0164,
      "velocity": 87,
      "chip": "ym2612"
    },
    {
      "channel": 4,
      "note": 80,
      "start": 2.2449,
      "duration": 0.0165,
      "velocity": 87,
      "chip": "ym2612"
    },
    {
      "channel": 1,
      "note": 72,
      "start": 2.2528,
      "duration": 0.0168,
      "velocity": 87,
      "chip": "ym2612"
    },
    {
      "channel": 4,
      "note": 72,
      "start": 2.2615,
      "duration": 0.0164,
      "velocity": 87,
      "chip": "ym2612"
    },
    {
      "channel": 1,
      "note": 68,
      "start": 2.2698,
      "duration": 0.0163,
      "velocity": 87,
      "chip": "ym2612"
    },
    {
      "channel": 4,
      "note": 68,
      "start": 2.278,
      "duration": 0.019,
      "velocity": 87,
      "chip": "ym2612"
    },
    {
      "channel": 1,
      "note": 60,
      "start": 2.2863,
      "duration": 0.0188,
      "velocity": 87,
      "chip": "ym2612"
    },
    {
      "channel": 4,
      "note": 60,
      "start": 2.2971,
      "duration": 0.0176,
      "velocity": 87,
      "chip": "ym2612"
    },
    {
      "channel": 0,
      "note": 80,
      "start": 2.305,
      "duration": 0.0761,
      "velocity": 87,
      "chip": "ym2612"
    },
    {
      "channel": 1,
      "note": 56,
      "start": 2.3053,
      "duration": 0.0188,
      "velocity": 87,
      "chip": "ym2612"
    },
    {
      "channel": 2,
      "note": 56,
      "start": 2.3055,
      "duration": 0.1529,
      "velocity": 98,
      "chip": "ym2612"
    },
    {
      "channel": 3,
      "note": 80,
      "start": 2.3146,
      "duration": 0.0761,
      "velocity": 87,
      "chip": "ym2612"
    },
    {
      "channel": 4,
      "note": 56,
      "start": 2.315,
      "duration": 0.0191,
      "velocity": 87,
      "chip": "ym2612"
    },
    {
      "channel": 1,
      "note": 63,
      "start": 2.3243,
      "duration": 0.0193,
      "velocity": 87,
      "chip": "ym2612"
    },
    {
      "channel": 4,
      "note": 63,
      "start": 2.3344,
      "duration": 0.0193,
      "velocity": 87,
      "chip": "ym2612"
    },
    {
      "channel": 1,
      "note": 68,
      "start": 2.3439,
      "duration": 0.0189,
      "velocity": 87,
      "chip": "ym2612"
    },
    {
      "channel": 4,
      "note": 68,
      "start": 2.3539,
      "duration": 0.0187,
      "velocity": 87,
      "chip": "ym2612"
    },
    {
      "channel": 1,
      "note": 75,
      "start": 2.363,
      "duration": 0.0183,
      "velocity": 87,
      "chip": "ym2612"
    },
    {
      "channel": 4,
      "note": 75,
      "start": 2.3728,
      "duration": 0.0183,
      "velocity": 87,
      "chip": "ym2612"
    },
    {
      "channel": 0,
      "note": 87,
      "start": 2.3813,
      "duration": 0.0768,
      "velocity": 87,
      "chip": "ym2612"
    },
    {
      "channel": 1,
      "note": 80,
      "start": 2.3816,
      "duration": 0.0192,
      "velocity": 87,
      "chip": "ym2612"
    },
    {
      "channel": 3,
      "note": 87,
      "start": 2.391,
      "duration": 0.0762,
      "velocity": 87,
      "chip": "ym2612"
    },
    {
      "channel": 4,
      "note": 80,
      "start": 2.3912,
      "duration": 0.0199,
      "velocity": 87,
      "chip": "ym2612"
    },
    {
      "channel": 1,
      "note": 75,
      "start": 2.401,
      "duration": 0.0196,
      "velocity": 87,
      "chip": "ym2612"
    },
    {
      "channel": 4,
      "note": 75,
      "start": 2.4112,
      "duration": 0.0193,
      "velocity": 87,
      "chip": "ym2612"
    },
    {
      "channel": 1,
      "note": 68,
      "start": 2.4208,
      "duration": 0.0188,
      "velocity": 87,
      "chip": "ym2612"
    },
    {
      "channel": 4,
      "note": 68,
      "start": 2.4305,
      "duration": 0.019,
      "velocity": 87,
      "chip": "ym2612"
    },
    {
      "channel": 1,
      "note": 63,
      "start": 2.4398,
      "duration": 0.0183,
      "velocity": 87,
      "chip": "ym2612"
    },
    {
      "channel": 4,
      "note": 63,
      "start": 2.4497,
      "duration": 0.0176,
      "velocity": 87,
      "chip": "ym2612"
    },
    {
      "channel": 0,
      "note": 87,
      "start": 2.458,
      "duration": 0.1103,
      "velocity": 87,
      "chip": "ym2612"
    },
    {
      "channel": 1,
      "note": 56,
      "start": 2.4583,
      "duration": 0.0181,
      "velocity": 87,
      "chip": "ym2612"
    },
    {
      "channel": 2,
      "note": 56,
      "start": 2.4586,
      "duration": 0.1523,
      "velocity": 98,
      "chip": "ym2612"
    },
    {
      "channel": 3,
      "note": 87,
      "start": 2.4672,
      "duration": 0.111,
      "velocity": 87,
      "chip": "ym2612"
    },
    {
      "channel": 4,
      "note": 56,
      "start": 2.4675,
      "duration": 0.0185,
      "velocity": 87,
      "chip": "ym2612"
    },
    {
      "channel": 1,
      "note": 63,
      "start": 2.4767,
      "duration": 0.0185,
      "velocity": 87,
      "chip": "ym2612"
    },
    {
      "channel": 4,
      "note": 63,
      "start": 2.4862,
      "duration": 0.0188,
      "velocity": 87,
      "chip": "ym2612"
    },
    {
      "channel": 1,
      "note": 68,
      "start": 2.4954,
      "duration": 0.0194,
      "velocity": 87,
      "chip": "ym2612"
    },
    {
      "channel": 4,
      "note": 68,
      "start": 2.5051,
      "duration": 0.0225,
      "velocity": 87,
      "chip": "ym2612"
    },
    {
      "channel": 1,
      "note": 75,
      "start": 2.5149,
      "duration": 0.0213,
      "velocity": 87,
      "chip": "ym2612"
    },
    {
      "channel": 4,
      "note": 75,
      "start": 2.5278,
      "duration": 0.017,
      "velocity": 87,
      "chip": "ym2612"
    },
    {
      "channel": 1,
      "note": 80,
      "start": 2.5364,
      "duration": 0.0161,
      "velocity": 87,
      "chip": "ym2612"
    },
    {
      "channel": 4,
      "note": 80,
      "start": 2.5449,
      "duration": 0.0157,
      "velocity": 87,
      "chip": "ym2612"
    },
    {
      "channel": 1,
      "note": 75,
      "start": 2.5528,
      "duration": 0.0158,
      "velocity": 87,
      "chip": "ym2612"
    },
    {
      "channel": 4,
      "note": 75,
      "start": 2.5608,
      "duration": 0.0176,
      "velocity": 87,
      "chip": "ym2612"
    },
    {
      "channel": 0,
      "note": 80,
      "start": 2.5686,
      "duration": 0.0192,
      "velocity": 87,
      "chip": "ym2612"
    },
    {
      "channel": 1,
      "note": 68,
      "start": 2.5688,
      "duration": 0.0192,
      "velocity": 87,
      "chip": "ym2612"
    },
    {
      "channel": 3,
      "note": 80,
      "start": 2.5783,
      "duration": 0.0222,
      "velocity": 87,
      "chip": "ym2612"
    },
    {
      "channel": 4,
      "note": 68,
      "start": 2.5786,
      "duration": 0.0222,
      "velocity": 87,
      "chip": "ym2612"
    },
    {
      "channel": 0,
      "note": 87,
      "start": 2.588,
      "duration": 0.0222,
      "velocity": 87,
      "chip": "ym2612"
    },
    {
      "channel": 1,
      "note": 63,
      "start": 2.5883,
      "duration": 0.0222,
      "velocity": 87,
      "chip": "ym2612"
    },
    {
      "channel": 3,
      "note": 87,
      "start": 2.6007,
      "duration": 0.022,
      "velocity": 87,
      "chip": "ym2612"
    },
    {
      "channel": 4,
      "note": 63,
      "start": 2.601,
      "duration": 0.0219,
      "velocity": 87,
      "chip": "ym2612"
    },
    {
      "channel": 0,
      "note": 86,
      "start": 2.6105,
      "duration": 0.0795,
      "velocity": 87,
      "chip": "ym2612"
    },
    {
      "channel": 1,
      "note": 56,
      "start": 2.6108,
      "duration": 0.0211,
      "velocity": 87,
      "chip": "ym2612"
    },
    {
      "channel": 2,
      "note": 56,
      "start": 2.6112,
      "duration": 0.1566,
      "velocity": 98,
      "chip": "ym2612"
    },
    {
      "channel": 3,
      "note": 86,
      "start": 2.6228,
      "duration": 0.0772,
      "velocity": 87,
      "chip": "ym2612"
    },
    {
      "channel": 4,
      "note": 56,
      "start": 2.623,
      "duration": 0.0187,
      "velocity": 87,
      "chip": "ym2612"
    },
    {
      "channel": 1,
      "note": 62,
      "start": 2.6321,
      "duration": 0.0192,
      "velocity": 87,
      "chip": "ym2612"
    },
    {
      "channel": 4,
      "note": 62,
      "start": 2.6419,
      "duration": 0.0193,
      "velocity": 87,
      "chip": "ym2612"
    },
    {
      "channel": 1,
      "note": 68,
      "start": 2.6515,
      "duration": 0.0193,
      "velocity": 87,
      "chip": "ym2612"
    },
    {
      "channel": 4,
      "note": 68,
      "start": 2.6614,
      "duration": 0.0194,
      "velocity": 87,
      "chip": "ym2612"
    },
    {
      "channel": 1,
      "note": 74,
      "start": 2.671,
      "duration": 0.0193,
      "velocity": 87,
      "chip": "ym2612"
    },
    {
      "channel": 4,
      "note": 74,
      "start": 2.681,
      "duration": 0.0192,
      "velocity": 87,
      "chip": "ym2612"
    },
    {
      "channel": 0,
      "note": 82,
      "start": 2.6902,
      "duration": 0.0771,
      "velocity": 87,
      "chip": "ym2612"
    },
    {
      "channel": 1,
      "note": 80,
      "start": 2.6905,
      "duration": 0.0187,
      "velocity": 87,
      "chip": "ym2612"
    },
    {
      "channel": 3,
      "note": 82,
      "start": 2.7002,
      "duration": 0.0772,
      "velocity": 87,
      "chip": "ym2612"
    },
    {
      "channel": 4,
      "note": 80,
      "start": 2.7004,
      "duration": 0.019,
      "velocity": 87,
      "chip": "ym2612"
    },
    {
      "channel": 1,
      "note": 74,
      "start": 2.7094,
      "duration": 0.0193,
      "velocity": 87,
      "chip": "ym2612"
    },
    {
      "channel": 4,
      "note": 74,
      "start": 2.7195,
      "duration": 0.0192,
      "velocity": 87,
      "chip": "ym2612"
    },
    {
      "channel": 1,
      "note": 68,
      "start": 2.7288,
      "duration": 0.0195,
      "velocity": 87,
      "chip": "ym2612"
    },
    {
      "channel": 4,
      "note": 68,
      "start": 2.7389,
      "duration": 0.0196,
      "velocity": 87,
      "chip": "ym2612"
    },
    {
      "channel": 1,
      "note": 62,
      "start": 2.7486,
      "duration": 0.0187,
      "velocity": 87,
      "chip": "ym2612"
    },
    {
      "channel": 4,
      "note": 62,
      "start": 2.7586,
      "duration": 0.0189,
      "velocity": 87,
      "chip": "ym2612"
    },
    {
      "channel": 0,
      "note": 82,
      "start": 2.7673,
      "duration": 0.1097,
      "velocity": 87,
      "chip": "ym2612"
    },
    {
      "channel": 1,
      "note": 56,
      "start": 2.7676,
      "duration": 0.0193,
      "velocity": 87,
      "chip": "ym2612"
    },
    {
      "channel": 2,
      "note": 56,
      "start": 2.7678,
      "duration": 0.1427,
      "velocity": 98,
      "chip": "ym2612"
    },
    {
      "channel": 3,
      "note": 82,
      "start": 2.7773,
      "duration": 0.1084,
      "velocity": 87,
      "chip": "ym2612"
    },
    {
      "channel": 4,
      "note": 56,
      "start": 2.7777,
      "duration": 0.0196,
      "velocity": 87,
      "chip": "ym2612"
    },
    {
      "channel": 1,
      "note": 62,
      "start": 2.7872,
      "duration": 0.0193,
      "velocity": 87,
      "chip": "ym2612"
    },
    {
      "channel": 4,
      "note": 62,
      "start": 2.7974,
      "duration": 0.0193,
      "velocity": 87,
      "chip": "ym2612"
    },
    {
      "channel": 1,
      "note": 68,
      "start": 2.8066,
      "duration": 0.0195,
      "velocity": 87,
      "chip": "ym2612"
    },
    {
      "channel": 4,
      "note": 68,
      "start": 2.817,
      "duration": 0.0189,
      "velocity": 87,
      "chip": "ym2612"
    },
    {
      "channel": 1,
      "note": 74,
      "start": 2.8264,
      "duration": 0.0183,
      "velocity": 87,
      "chip": "ym2612"
    },
    {
      "channel": 4,
      "note": 74,
      "start": 2.836,
      "duration": 0.0172,
      "velocity": 87,
      "chip": "ym2612"
    },
    {
      "channel": 1,
      "note": 80,
      "start": 2.8449,
      "duration": 0.0164,
      "velocity": 87,
      "chip": "ym2612"
    },
    {
      "channel": 4,
      "note": 80,
      "start": 2.8534,
      "duration": 0.016,
      "velocity": 87,
      "chip": "ym2612"
    },
    {
      "channel": 1,
      "note": 74,
      "start": 2.8615,
      "duration": 0.0158,
      "velocity": 87,
      "chip": "ym2612"
    },
    {
      "channel": 4,
      "note": 74,
      "start": 2.8695,
      "duration": 0.0165,
      "velocity": 87,
      "chip": "ym2612"
    },
    {
      "channel": 0,
      "note": 84,
      "start": 2.8772,
      "duration": 0.0327,
      "velocity": 87,
      "chip": "ym2612"
    },
    {
      "channel": 1,
      "note": 68,
      "start": 2.8775,
      "duration": 0.0162,
      "velocity": 87,
      "chip": "ym2612"
    },
    {
      "channel": 3,
      "note": 84,
      "start": 2.886,
      "duration": 0.0333,
      "velocity": 87,
      "chip": "ym2612"
    },
    {
      "channel": 4,
      "note": 68,
      "start": 2.8862,
      "duration": 0.0161,
      "velocity": 87,
      "chip": "ym2612"
    },
    {
      "channel": 1,
      "note": 62,
      "start": 2.894,
      "duration": 0.0163,
      "velocity": 87,
      "chip": "ym2612"
    },
    {
      "channel": 4,
      "note": 62,
      "start": 2.9024,
      "duration": 0.0172,
      "velocity": 87,
      "chip": "ym2612"
    },
    {
      "channel": 0,
      "note": 85,
      "start": 2.9102,
      "duration": 0.0761,
      "velocity": 87,
      "chip": "ym2612"
    },
    {
      "channel": 1,
      "note": 56,
      "start": 2.9104,
      "duration": 0.019,
      "velocity": 87,
      "chip": "ym2612"
    },
    {
      "channel": 2,
      "note": 56,
      "start": 2.9107,
      "duration": 0.1529,
      "velocity": 98,
      "chip": "ym2612"
    },
    {
      "channel": 3,
      "note": 85,
      "start": 2.9195,
      "duration": 0.0764,
      "velocity": 87,
      "chip": "ym2612"
    },
    {
      "channel": 4,
      "note": 56,
      "start": 2.9199,
      "duration": 0.0194,
      "velocity": 87,
      "chip": "ym2612"
    },
    {
      "channel": 1,
      "note": 61,
      "start": 2.9296,
      "duration": 0.0193,
      "velocity": 87,
      "chip": "ym2612"
    },
    {
      "channel": 4,
      "note": 61,
      "start": 2.9395,
      "duration": 0.0194,
      "velocity": 87,
      "chip": "ym2612"
    },
    {
      "channel": 1,
      "note": 68,
      "start": 2.9491,
      "duration": 0.0189,
      "velocity": 87,
      "chip": "ym2612"
    },
    {
      "channel": 4,
      "note": 68,
      "start": 2.9591,
      "duration": 0.0187,
      "velocity": 87,
      "chip": "ym2612"
    },
    {
      "channel": 1,
      "note": 73,
      "start": 2.9682,
      "duration": 0.0183,
      "velocity": 87,
      "chip": "ym2612"
    },
    {
      "channel": 4,
      "note": 73,
      "start": 2.978,
      "duration": 0.0182,
      "velocity": 87,
      "chip": "ym2612"
    },
    {
      "channel": 0,
      "note": 88,
      "start": 2.9865,
      "duration": 0.0767,
      "velocity": 87,
      "chip": "ym2612"
    },
    {
      "channel": 1,
      "note": 80,
      "start": 2.9868,
      "duration": 0.0191,
      "velocity": 87,
      "chip": "ym2612"
    },
    {
      "channel": 3,
      "note": 88,
      "start": 2.9961,
      "duration": 0.0762,
      "velocity": 87,
      "chip": "ym2612"
    },
    {
      "channel": 4,
      "note": 80,
      "start": 2.9963,
      "duration": 0.0199,
      "velocity": 87,
      "chip": "ym2612"
    },
    {
      "channel": 1,
      "note": 73,
      "start": 3.0061,
      "duration": 0.0196,
      "velocity": 87,
      "chip": "ym2612"
    },
    {
      "channel": 4,
      "note": 73,
      "start": 3.0163,
      "duration": 0.0193,
      "velocity": 87,
      "chip": "ym2612"
    },
    {
      "channel": 1,
      "note": 68,
      "start": 3.0259,
      "duration": 0.0188,
      "velocity": 87,
      "chip": "ym2612"
    },
    {
      "channel": 4,
      "note": 68,
      "start": 3.0357,
      "duration": 0.019,
      "velocity": 87,
      "chip": "ym2612"
    },
    {
      "channel": 1,
      "note": 61,
      "start": 3.0449,
      "duration": 0.0183,
      "velocity": 87,
      "chip": "ym2612"
    },
    {
      "channel": 4,
      "note": 61,
      "start": 3.0548,
      "duration": 0.0176,
      "velocity": 87,
      "chip": "ym2612"
    },
    {
      "channel": 0,
      "note": 88,
      "start": 3.0632,
      "duration": 0.1082,
      "velocity": 87,
      "chip": "ym2612"
    },
    {
      "channel": 1,
      "note": 56,
      "start": 3.0635,
      "duration": 0.0181,
      "velocity": 87,
      "chip": "ym2612"
    },
    {
      "channel": 2,
      "note": 56,
      "start": 3.0637,
      "duration": 0.1495,
      "velocity": 98,
      "chip": "ym2612"
    },
    {
      "channel": 3,
      "note": 88,
      "start": 3.0723,
      "duration": 0.1089,
      "velocity": 87,
      "chip": "ym2612"
    },
    {
      "channel": 4,
      "note": 56,
      "start": 3.0727,
      "duration": 0.0185,
      "velocity": 87,
      "chip": "ym2612"
    },
    {
      "channel": 1,
      "note": 61,
      "start": 3.0818,
      "duration": 0.0185,
      "velocity": 87,
      "chip": "ym2612"
    },
    {
      "channel": 4,
      "note": 61,
      "start": 3.0913,
      "duration": 0.0193,
      "velocity": 87,
      "chip": "ym2612"
    },
    {
      "channel": 1,
      "note": 68,
      "start": 3.1005,
      "duration": 0.0195,
      "velocity": 87,
      "chip": "ym2612"
    },
    {
      "channel": 4,
      "note": 68,
      "start": 3.1109,
      "duration": 0.0189,
      "velocity": 87,
      "chip": "ym2612"
    },
    {
      "channel": 1,
      "note": 73,
      "start": 3.1202,
      "duration": 0.0183,
      "velocity": 87,
      "chip": "ym2612"
    },
    {
      "channel": 4,
      "note": 73,
      "start": 3.1299,
      "duration": 0.0172,
      "velocity": 87,
      "chip": "ym2612"
    },
    {
      "channel": 1,
      "note": 80,
      "start": 3.1388,
      "duration": 0.0164,
      "velocity": 87,
      "chip": "ym2612"
    },
    {
      "channel": 4,
      "note": 80,
      "start": 3.1473,
      "duration": 0.016,
      "velocity": 87,
      "chip": "ym2612"
    },
    {
      "channel": 1,
      "note": 73,
      "start": 3.1554,
      "duration": 0.0163,
      "velocity": 87,
      "chip": "ym2612"
    },
    {
      "channel": 4,
      "note": 73,
      "start": 3.1634,
      "duration": 0.0182,
      "velocity": 87,
      "chip": "ym2612"
    },
    {
      "channel": 0,
      "note": 88,
      "start": 3.1716,
      "duration": 0.0412,
      "velocity": 87,
      "chip": "ym2612"
    },
    {
      "channel": 1,
      "note": 68,
      "start": 3.1718,
      "duration": 0.0192,
      "velocity": 87,
      "chip": "ym2612"
    },
    {
      "channel": 3,
      "note": 88,
      "start": 3.1815,
      "duration": 0.0416,
      "velocity": 87,
      "chip": "ym2612"
    },
    {
      "channel": 4,
      "note": 68,
      "start": 3.1817,
      "duration": 0.0218,
      "velocity": 87,
      "chip": "ym2612"
    },
    {
      "channel": 1,
      "note": 61,
      "start": 3.1913,
      "duration": 0.0217,
      "velocity": 87,
      "chip": "ym2612"
    },
    {
      "channel": 4,
      "note": 61,
      "start": 3.2036,
      "duration": 0.0197,
      "velocity": 87,
      "chip": "ym2612"
    },
    {
      "channel": 0,
      "note": 87,
      "start": 3.2129,
      "duration": 0.0192,
      "velocity": 87,
      "chip": "ym2612"
    },
    {
      "channel": 1,
      "note": 56,
      "start": 3.2132,
      "duration": 0.0192,
      "velocity": 87,
      "chip": "ym2612"
    },
    {
      "channel": 2,
      "note": 56,
      "start": 3.2135,
      "duration": 0.1417,
      "velocity": 98,
      "chip": "ym2612"
    },
    {
      "channel": 3,
      "note": 87,
      "start": 3.2232,
      "duration": 0.0191,
      "velocity": 87,
      "chip": "ym2612"
    },
    {
      "channel": 4,
      "note": 56,
      "start": 3.2234,
      "duration": 0.0191,
      "velocity": 87,
      "chip": "ym2612"
    },
    {
      "channel": 0,
      "note": 80,
      "start": 3.2323,
      "duration": 0.0195,
      "velocity": 87,
      "chip": "ym2612"
    },
    {
      "channel": 1,
      "note": 60,
      "start": 3.2326,
      "duration": 0.0195,
      "velocity": 87,
      "chip": "ym2612"
    },
    {
      "channel": 3,
      "note": 80,
      "start": 3.2425,
      "duration": 0.0182,
      "velocity": 87,
      "chip": "ym2612"
    },
    {
      "channel": 4,
      "note": 60,
      "start": 3.2427,
      "duration": 0.018,
      "velocity": 87,
      "chip": "ym2612"
    },
    {
      "channel": 1,
      "note": 68,
      "start": 3.2523,
      "duration": 0.0166,
      "velocity": 87,
      "chip": "ym2612"
    },
    {
      "channel": 4,
      "note": 68,
      "start": 3.261,
      "duration": 0.0176,
      "velocity": 87,
      "chip": "ym2612"
    },
    {
      "channel": 0,
      "note": 87,
      "start": 3.2688,
      "duration": 0.0183,
      "velocity": 87,
      "chip": "ym2612"
    },
    {
      "channel": 1,
      "note": 72,
      "start": 3.269,
      "duration": 0.0184,
      "velocity": 87,
      "chip": "ym2612"
    },
    {
      "channel": 3,
      "note": 87,
      "start": 3.2785,
      "duration": 0.0172,
      "velocity": 87,
      "chip": "ym2612"
    },
    {
      "channel": 4,
      "note": 72,
      "start": 3.2787,
      "duration": 0.0173,
      "velocity": 87,
      "chip": "ym2612"
    },
    {
      "channel": 0,
      "note": 80,
      "start": 3.2873,
      "duration": 0.0163,
      "velocity": 87,
      "chip": "ym2612"
    },
    {
      "channel": 1,
      "note": 80,
      "start": 3.2876,
      "duration": 0.0162,
      "velocity": 87,
      "chip": "ym2612"
    },
    {
      "channel": 3,
      "note": 80,
      "start": 3.2959,
      "duration": 0.0153,
      "velocity": 87,
      "chip": "ym2612"
    },
    {
      "channel": 4,
      "note": 80,
      "start": 3.2962,
      "duration": 0.0151,
      "velocity": 87,
      "chip": "ym2612"
    },
    {
      "channel": 1,
      "note": 72,
      "start": 3.304,
      "duration": 0.0154,
      "velocity": 87,
      "chip": "ym2612"
    },
    {
      "channel": 4,
      "note": 72,
      "start": 3.3116,
      "duration": 0.0162,
      "velocity": 87,
      "chip": "ym2612"
    },
    {
      "channel": 0,
      "note": 87,
      "start": 3.3193,
      "duration": 0.0164,
      "velocity": 87,
      "chip": "ym2612"
    },
    {
      "channel": 1,
      "note": 68,
      "start": 3.3197,
      "duration": 0.0165,
      "velocity": 87,
      "chip": "ym2612"
    },
    {
      "channel": 3,
      "note": 87,
      "start": 3.3276,
      "duration": 0.0189,
      "velocity": 87,
      "chip": "ym2612"
    },
    {
      "channel": 4,
      "note": 68,
      "start": 3.3279,
      "duration": 0.019,
      "velocity": 87,
      "chip": "ym2612"
    },
    {
      "channel": 0,
      "note": 80,
      "start": 3.3361,
      "duration": 0.0185,
      "velocity": 87,
      "chip": "ym2612"
    },
    {
      "channel": 1,
      "note": 60,
      "start": 3.3364,
      "duration": 0.0184,
      "velocity": 87,
      "chip": "ym2612"
    },
    {
      "channel": 3,
      "note": 80,
      "start": 3.3467,
      "duration": 0.0195,
      "velocity": 87,
      "chip": "ym2612"
    },
    {
      "channel": 4,
      "note": 60,
      "start": 3.3471,
      "duration": 0.0193,
      "velocity": 87,
      "chip": "ym2612"
    },
    {
      "channel": 1,
      "note": 56,
      "start": 3.3551,
      "duration": 0.0198,
      "velocity": 87,
      "chip": "ym2612"
    },
    {
      "channel": 2,
      "note": 56,
      "start": 3.3554,
      "duration": 47.8443,
      "velocity": 98,
      "chip": "ym2612"
    },
    {
      "channel": 4,
      "note": 56,
      "start": 3.3665,
      "duration": 0.0183,
      "velocity": 87,
      "chip": "ym2612"
    },
    {
      "channel": 0,
      "note": 87,
      "start": 3.3748,
      "duration": 0.0194,
      "velocity": 87,
      "chip": "ym2612"
    },
    {
      "channel": 1,
      "note": 60,
      "start": 3.375,
      "duration": 0.0195,
      "velocity": 87,
      "chip": "ym2612"
    },
    {
      "channel": 3,
      "note": 87,
      "start": 3.3847,
      "duration": 0.0196,
      "velocity": 87,
      "chip": "ym2612"
    },
    {
      "channel": 4,
      "note": 60,
      "start": 3.385,
      "duration": 0.0196,
      "velocity": 87,
      "chip": "ym2612"
    },
    {
      "channel": 0,
      "note": 80,
      "start": 3.3944,
      "duration": 0.0198,
      "velocity": 87,
      "chip": "ym2612"
    },
    {
      "channel": 1,
      "note": 68,
      "start": 3.3946,
      "duration": 0.0197,
      "velocity": 87,
      "chip": "ym2612"
    },
    {
      "channel": 3,
      "note": 80,
      "start": 3.4045,
      "duration": 0.0188,
      "velocity": 87,
      "chip": "ym2612"
    },
    {
      "channel": 4,
      "note": 68,
      "start": 3.4048,
      "duration": 0.0187,
      "velocity": 87,
      "chip": "ym2612"
    },
    {
      "channel": 1,
      "note": 72,
      "start": 3.4145,
      "duration": 0.0162,
      "velocity": 87,
      "chip": "ym2612"
    },
    {
      "channel": 4,
      "note": 72,
      "start": 3.4236,
      "duration": 0.0153,
      "velocity": 87,
      "chip": "ym2612"
    },
    {
      "channel": 0,
      "note": 87,
      "start": 3.4307,
      "duration": 0.0163,
      "velocity": 87,
      "chip": "ym2612"
    },
    {
      "channel": 1,
      "note": 80,
      "start": 3.431,
      "duration": 0.0163,
      "velocity": 87,
      "chip": "ym2612"
    },
    {
      "channel": 3,
      "note": 87,
      "start": 3.4388,
      "duration": 0.017,
      "velocity": 87,
      "chip": "ym2612"
    },
    {
      "channel": 4,
      "note": 80,
      "start": 3.4391,
      "duration": 0.017,
      "velocity": 87,
      "chip": "ym2612"
    },
    {
      "channel": 0,
      "note": 80,
      "start": 3.4472,
      "duration": 0.0167,
      "velocity": 87,
      "chip": "ym2612"
    },
    {
      "channel": 1,
      "note": 72,
      "start": 3.4475,
      "duration": 0.0166,
      "velocity": 87,
      "chip": "ym2612"
    },
    {
      "channel": 3,
      "note": 80,
      "start": 3.456,
      "duration": 0.0157,
      "velocity": 87,
      "chip": "ym2612"
    },
    {
      "channel": 4,
      "note": 72,
      "start": 3.4562,
      "duration": 0.0156,
      "velocity": 87,
      "chip": "ym2612"
    },
    {
      "channel": 1,
      "note": 68,
      "start": 3.4643,
      "duration": 0.0155,
      "velocity": 87,
      "chip": "ym2612"
    },
    {
      "channel": 4,
      "note": 68,
      "start": 3.472,
      "duration": 0.0146,
      "velocity": 87,
      "chip": "ym2612"
    },
    {
      "channel": 1,
      "note": 60,
      "start": 3.48,
      "duration": 47.7197,
      "velocity": 87,
      "chip": "ym2612"
    },
    {
      "channel": 4,
      "note": 60,
      "start": 3.4866,
      "duration": 47.713,
      "velocity": 87,
      "chip": "ym2612"
    }
  ]
}