{
  "track_name": "36 - Mega Man 3- Sparkman Stage",
  "duration_sec": 38.581,
  "sample_rate": 44100,
  "note_count": 1073,
  "unique_pitches": 39,
  "pitch_range": 63,
  "avg_note_duration": 0.1188,
  "reconstruction_stats": {
    "notes_reconstructed": 1073,
    "keyon_events": 1073,
    "keyoff_events": 1072,
    "orphan_keyons": 1,
    "unique_pitches": 39,
    "pitch_range": 63,
    "avg_duration_sec": 0.1188
  },
  "metadata": {
    "source": "M\\Mega Man - The Wily Wars\\36 - Mega Man 3- Sparkman Stage.vgm"
  },
  "notes": [
    {
      "channel": 0,
      "note": 71,
      "start": 0.0,
      "duration": 0.3816,
      "velocity": 95,
      "chip": "ym2612"
    },
    {
      "channel": 1,
      "note": 79,
      "start": 0.0,
      "duration": 0.0,
      "velocity": 1,
      "chip": "ym2612"
    },
    {
      "channel": 1,
      "note": 78,
      "start": 0.0013,
      "duration": 0.0777,
      "velocity": 76,
      "chip": "ym2612"
    },
    {
      "channel": 2,
      "note": 59,
      "start": 0.0045,
      "duration": 0.0752,
      "velocity": 87,
      "chip": "ym2612"
    },
    {
      "channel": 3,
      "note": 64,
      "start": 0.008,
      "duration": 0.0721,
      "velocity": 91,
      "chip": "ym2612"
    },
    {
      "channel": 5,
      "note": 32,
      "start": 0.0088,
      "duration": 0.1041,
      "velocity": 114,
      "chip": "ym2612"
    },
    {
      "channel": 1,
      "note": 79,
      "start": 0.0795,
      "duration": 0.1006,
      "velocity": 76,
      "chip": "ym2612"
    },
    {
      "channel": 1,
      "note": 78,
      "start": 0.1807,
      "duration": 0.0994,
      "velocity": 76,
      "chip": "ym2612"
    },
    {
      "channel": 2,
      "note": 59,
      "start": 0.1814,
      "duration": 0.048,
      "velocity": 87,
      "chip": "ym2612"
    },
    {
      "channel": 3,
      "note": 64,
      "start": 0.1821,
      "duration": 0.0476,
      "velocity": 91,
      "chip": "ym2612"
    },
    {
      "channel": 1,
      "note": 76,
      "start": 0.2806,
      "duration": 0.1013,
      "velocity": 76,
      "chip": "ym2612"
    },
    {
      "channel": 2,
      "note": 59,
      "start": 0.2813,
      "duration": 0.0482,
      "velocity": 87,
      "chip": "ym2612"
    },
    {
      "channel": 3,
      "note": 64,
      "start": 0.282,
      "duration": 0.0478,
      "velocity": 91,
      "chip": "ym2612"
    },
    {
      "channel": 1,
      "note": 78,
      "start": 0.3825,
      "duration": 0.0962,
      "velocity": 76,
      "chip": "ym2612"
    },
    {
      "channel": 2,
      "note": 59,
      "start": 0.3832,
      "duration": 0.0962,
      "velocity": 87,
      "chip": "ym2612"
    },
    {
      "channel": 3,
      "note": 64,
      "start": 0.3839,
      "duration": 0.0959,
      "velocity": 91,
      "chip": "ym2612"
    },
    {
      "channel": 5,
      "note": 75,
      "start": 0.3847,
      "duration": 0.2979,
      "velocity": 120,
      "chip": "ym2612"
    },
    {
      "channel": 1,
      "note": 79,
      "start": 0.4793,
      "duration": 0.1011,
      "velocity": 76,
      "chip": "ym2612"
    },
    {
      "channel": 0,
      "note": 71,
      "start": 0.5802,
      "duration": 0.0994,
      "velocity": 95,
      "chip": "ym2612"
    },
    {
      "channel": 1,
      "note": 78,
      "start": 0.581,
      "duration": 0.0994,
      "velocity": 76,
      "chip": "ym2612"
    },
    {
      "channel": 2,
      "note": 59,
      "start": 0.5817,
      "duration": 0.0476,
      "velocity": 87,
      "chip": "ym2612"
    },
    {
      "channel": 3,
      "note": 64,
      "start": 0.5824,
      "duration": 0.0473,
      "velocity": 91,
      "chip": "ym2612"
    },
    {
      "channel": 0,
      "note": 74,
      "start": 0.6802,
      "duration": 0.1013,
      "velocity": 95,
      "chip": "ym2612"
    },
    {
      "channel": 1,
      "note": 76,
      "start": 0.681,
      "duration": 0.1015,
      "velocity": 76,
      "chip": "ym2612"
    },
    {
      "channel": 2,
      "note": 59,
      "start": 0.6817,
      "duration": 0.0476,
      "velocity": 87,
      "chip": "ym2612"
    },
    {
      "channel": 3,
      "note": 64,
      "start": 0.6824,
      "duration": 0.0473,
      "velocity": 91,
      "chip": "ym2612"
    },
    {
      "channel": 0,
      "note": 79,
      "start": 0.7823,
      "duration": 0.3993,
      "velocity": 95,
      "chip": "ym2612"
    },
    {
      "channel": 1,
      "note": 78,
      "start": 0.783,
      "duration": 0.096,
      "velocity": 76,
      "chip": "ym2612"
    },
    {
      "channel": 2,
      "note": 59,
      "start": 0.7839,
      "duration": 0.0959,
      "velocity": 87,
      "chip": "ym2612"
    },
    {
      "channel": 3,
      "note": 64,
      "start": 0.7848,
      "duration": 0.0952,
      "velocity": 91,
      "chip": "ym2612"
    },
    {
      "channel": 5,
      "note": 32,
      "start": 0.7856,
      "duration": 0.1273,
      "velocity": 114,
      "chip": "ym2612"
    },
    {
      "channel": 1,
      "note": 79,
      "start": 0.8795,
      "duration": 0.1006,
      "velocity": 76,
      "chip": "ym2612"
    },
    {
      "channel": 1,
      "note": 78,
      "start": 0.9807,
      "duration": 0.0994,
      "velocity": 76,
      "chip": "ym2612"
    },
    {
      "channel": 2,
      "note": 59,
      "start": 0.9814,
      "duration": 0.048,
      "velocity": 87,
      "chip": "ym2612"
    },
    {
      "channel": 3,
      "note": 64,
      "start": 0.9821,
      "duration": 0.0476,
      "velocity": 91,
      "chip": "ym2612"
    },
    {
      "channel": 1,
      "note": 76,
      "start": 1.0806,
      "duration": 0.1018,
      "velocity": 76,
      "chip": "ym2612"
    },
    {
      "channel": 2,
      "note": 59,
      "start": 1.0813,
      "duration": 0.0481,
      "velocity": 87,
      "chip": "ym2612"
    },
    {
      "channel": 3,
      "note": 64,
      "start": 1.082,
      "duration": 0.0477,
      "velocity": 91,
      "chip": "ym2612"
    },
    {
      "channel": 0,
      "note": 78,
      "start": 1.1823,
      "duration": 0.2973,
      "velocity": 95,
      "chip": "ym2612"
    },
    {
      "channel": 1,
      "note": 78,
      "start": 1.183,
      "duration": 0.096,
      "velocity": 76,
      "chip": "ym2612"
    },
    {
      "channel": 2,
      "note": 59,
      "start": 1.1837,
      "duration": 0.0961,
      "velocity": 87,
      "chip": "ym2612"
    },
    {
      "channel": 3,
      "note": 64,
      "start": 1.1844,
      "duration": 0.0956,
      "velocity": 91,
      "chip": "ym2612"
    },
    {
      "channel": 5,
      "note": 75,
      "start": 1.1852,
      "duration": 0.2974,
      "velocity": 120,
      "chip": "ym2612"
    },
    {
      "channel": 1,
      "note": 79,
      "start": 1.2795,
      "duration": 0.1006,
      "velocity": 76,
      "chip": "ym2612"
    },
    {
      "channel": 1,
      "note": 78,
      "start": 1.3807,
      "duration": 0.0998,
      "velocity": 76,
      "chip": "ym2612"
    },
    {
      "channel": 2,
      "note": 59,
      "start": 1.3814,
      "duration": 0.048,
      "velocity": 87,
      "chip": "ym2612"
    },
    {
      "channel": 3,
      "note": 64,
      "start": 1.3821,
      "duration": 0.0476,
      "velocity": 91,
      "chip": "ym2612"
    },
    {
      "channel": 0,
      "note": 74,
      "start": 1.4802,
      "duration": 0.1017,
      "velocity": 95,
      "chip": "ym2612"
    },
    {
      "channel": 1,
      "note": 76,
      "start": 1.481,
      "duration": 0.102,
      "velocity": 76,
      "chip": "ym2612"
    },
    {
      "channel": 2,
      "note": 59,
      "start": 1.4817,
      "duration": 0.0476,
      "velocity": 87,
      "chip": "ym2612"
    },
    {
      "channel": 3,
      "note": 64,
      "start": 1.4824,
      "duration": 0.0473,
      "velocity": 91,
      "chip": "ym2612"
    },
    {
      "channel": 0,
      "note": 76,
      "start": 1.5826,
      "duration": 0.4461,
      "velocity": 95,
      "chip": "ym2612"
    },
    {
      "channel": 1,
      "note": 78,
      "start": 1.5836,
      "duration": 0.0954,
      "velocity": 76,
      "chip": "ym2612"
    },
    {
      "channel": 2,
      "note": 52,
      "start": 1.5845,
      "duration": 0.0952,
      "velocity": 87,
      "chip": "ym2612"
    },
    {
      "channel": 3,
      "note": 57,
      "start": 1.5854,
      "duration": 0.0946,
      "velocity": 91,
      "chip": "ym2612"
    },
    {
      "channel": 5,
      "note": 32,
      "start": 1.5863,
      "duration": 0.1266,
      "velocity": 114,
      "chip": "ym2612"
    },
    {
      "channel": 1,
      "note": 79,
      "start": 1.6796,
      "duration": 0.1005,
      "velocity": 76,
      "chip": "ym2612"
    },
    {
      "channel": 1,
      "note": 78,
      "start": 1.7807,
      "duration": 0.0994,
      "velocity": 76,
      "chip": "ym2612"
    },
    {
      "channel": 2,
      "note": 52,
      "start": 1.7814,
      "duration": 0.0481,
      "velocity": 87,
      "chip": "ym2612"
    },
    {
      "channel": 3,
      "note": 57,
      "start": 1.7821,
      "duration": 0.0477,
      "velocity": 91,
      "chip": "ym2612"
    },
    {
      "channel": 1,
      "note": 76,
      "start": 1.8806,
      "duration": 0.1015,
      "velocity": 76,
      "chip": "ym2612"
    },
    {
      "channel": 2,
      "note": 52,
      "start": 1.8813,
      "duration": 0.0481,
      "velocity": 87,
      "chip": "ym2612"
    },
    {
      "channel": 3,
      "note": 57,
      "start": 1.882,
      "duration": 0.0477,
      "velocity": 91,
      "chip": "ym2612"
    },
    {
      "channel": 1,
      "note": 78,
      "start": 1.9827,
      "duration": 0.0961,
      "velocity": 76,
      "chip": "ym2612"
    },
    {
      "channel": 2,
      "note": 52,
      "start": 1.9834,
      "duration": 0.0961,
      "velocity": 87,
      "chip": "ym2612"
    },
    {
      "channel": 3,
      "note": 57,
      "start": 1.9841,
      "duration": 0.0957,
      "velocity": 91,
      "chip": "ym2612"
    },
    {
      "channel": 5,
      "note": 75,
      "start": 1.9848,
      "duration": 0.2978,
      "velocity": 120,
      "chip": "ym2612"
    },
    {
      "channel": 1,
      "note": 79,
      "start": 2.0793,
      "duration": 0.1011,
      "velocity": 76,
      "chip": "ym2612"
    },
    {
      "channel": 0,
      "note": 74,
      "start": 2.1802,
      "duration": 0.0994,
      "velocity": 95,
      "chip": "ym2612"
    },
    {
      "channel": 1,
      "note": 78,
      "start": 2.181,
      "duration": 0.0994,
      "velocity": 76,
      "chip": "ym2612"
    },
    {
      "channel": 2,
      "note": 52,
      "start": 2.1817,
      "duration": 0.0476,
      "velocity": 87,
      "chip": "ym2612"
    },
    {
      "channel": 3,
      "note": 57,
      "start": 2.1824,
      "duration": 0.0473,
      "velocity": 91,
      "chip": "ym2612"
    },
    {
      "channel": 0,
      "note": 73,
      "start": 2.2802,
      "duration": 0.1013,
      "velocity": 95,
      "chip": "ym2612"
    },
    {
      "channel": 1,
      "note": 76,
      "start": 2.281,
      "duration": 0.1014,
      "velocity": 76,
      "chip": "ym2612"
    },
    {
      "channel": 2,
      "note": 52,
      "start": 2.2817,
      "duration": 0.0476,
      "velocity": 87,
      "chip": "ym2612"
    },
    {
      "channel": 3,
      "note": 57,
      "start": 2.2824,
      "duration": 0.0473,
      "velocity": 91,
      "chip": "ym2612"
    },
    {
      "channel": 0,
      "note": 74,
      "start": 2.3823,
      "duration": 0.1973,
      "velocity": 95,
      "chip": "ym2612"
    },
    {
      "channel": 1,
      "note": 78,
      "start": 2.383,
      "duration": 0.096,
      "velocity": 76,
      "chip": "ym2612"
    },
    {
      "channel": 2,
      "note": 52,
      "start": 2.3839,
      "duration": 0.0959,
      "velocity": 87,
      "chip": "ym2612"
    },
    {
      "channel": 3,
      "note": 57,
      "start": 2.3848,
      "duration": 0.0953,
      "velocity": 91,
      "chip": "ym2612"
    },
    {
      "channel": 5,
      "note": 32,
      "start": 2.3856,
      "duration": 0.1272,
      "velocity": 114,
      "chip": "ym2612"
    },
    {
      "channel": 1,
      "note": 79,
      "start": 2.4795,
      "duration": 0.1009,
      "velocity": 76,
      "chip": "ym2612"
    },
    {
      "channel": 0,
      "note": 73,
      "start": 2.5803,
      "duration": 0.0993,
      "velocity": 95,
      "chip": "ym2612"
    },
    {
      "channel": 1,
      "note": 78,
      "start": 2.581,
      "duration": 0.0994,
      "velocity": 76,
      "chip": "ym2612"
    },
    {
      "channel": 2,
      "note": 52,
      "start": 2.5817,
      "duration": 0.0476,
      "velocity": 87,
      "chip": "ym2612"
    },
    {
      "channel": 3,
      "note": 57,
      "start": 2.5824,
      "duration": 0.0473,
      "velocity": 91,
      "chip": "ym2612"
    },
    {
      "channel": 0,
      "note": 71,
      "start": 2.6802,
      "duration": 0.1013,
      "velocity": 95,
      "chip": "ym2612"
    },
    {
      "channel": 1,
      "note": 76,
      "start": 2.681,
      "duration": 0.1015,
      "velocity": 76,
      "chip": "ym2612"
    },
    {
      "channel": 2,
      "note": 52,
      "start": 2.6817,
      "duration": 0.0476,
      "velocity": 87,
      "chip": "ym2612"
    },
    {
      "channel": 3,
      "note": 57,
      "start": 2.6824,
      "duration": 0.0473,
      "velocity": 91,
      "chip": "ym2612"
    },
    {
      "channel": 0,
      "note": 73,
      "start": 2.7823,
      "duration": 0.1973,
      "velocity": 95,
      "chip": "ym2612"
    },
    {
      "channel": 1,
      "note": 78,
      "start": 2.783,
      "duration": 0.096,
      "velocity": 76,
      "chip": "ym2612"
    },
    {
      "channel": 2,
      "note": 52,
      "start": 2.7837,
      "duration": 0.0961,
      "velocity": 87,
      "chip": "ym2612"
    },
    {
      "channel": 3,
      "note": 57,
      "start": 2.7844,
      "duration": 0.0957,
      "velocity": 91,
      "chip": "ym2612"
    },
    {
      "channel": 5,
      "note": 75,
      "start": 2.7851,
      "duration": 0.2974,
      "velocity": 120,
      "chip": "ym2612"
    },
    {
      "channel": 1,
      "note": 79,
      "start": 2.8796,
      "duration": 0.1008,
      "velocity": 76,
      "chip": "ym2612"
    },
    {
      "channel": 0,
      "note": 71,
      "start": 2.9802,
      "duration": 0.0994,
      "velocity": 95,
      "chip": "ym2612"
    },
    {
      "channel": 1,
      "note": 78,
      "start": 2.981,
      "duration": 0.0994,
      "velocity": 76,
      "chip": "ym2612"
    },
    {
      "channel": 2,
      "note": 52,
      "start": 2.9817,
      "duration": 0.0476,
      "velocity": 87,
      "chip": "ym2612"
    },
    {
      "channel": 3,
      "note": 57,
      "start": 2.9824,
      "duration": 0.0473,
      "velocity": 91,
      "chip": "ym2612"
    },
    {
      "channel": 0,
      "note": 69,
      "start": 3.0802,
      "duration": 0.1017,
      "velocity": 95,
      "chip": "ym2612"
    },
    {
      "channel": 1,
      "note": 76,
      "start": 3.081,
      "duration": 0.102,
      "velocity": 76,
      "chip": "ym2612"
    },
    {
      "channel": 2,
      "note": 52,
      "start": 3.0817,
      "duration": 0.0476,
      "velocity": 87,
      "chip": "ym2612"
    },
    {
      "channel": 3,
      "note": 57,
      "start": 3.0824,
      "duration": 0.0473,
      "velocity": 91,
      "chip": "ym2612"
    },
    {
      "channel": 0,
      "note": 76,
      "start": 3.1826,
      "duration": 0.399,
      "velocity": 95,
      "chip": "ym2612"
    },
    {
      "channel": 1,
      "note": 78,
      "start": 3.1836,
      "duration": 0.0954,
      "velocity": 76,
      "chip": "ym2612"
    },
    {
      "channel": 2,
      "note": 55,
      "start": 3.1845,
      "duration": 0.0952,
      "velocity": 87,
      "chip": "ym2612"
    },
    {
      "channel": 3,
      "note": 60,
      "start": 3.1854,
      "duration": 0.0946,
      "velocity": 91,
      "chip": "ym2612"
    },
    {
      "channel": 5,
      "note": 32,
      "start": 3.1863,
      "duration": 0.1267,
      "velocity": 114,
      "chip": "ym2612"
    },
    {
      "channel": 1,
      "note": 79,
      "start": 3.2795,
      "duration": 0.1006,
      "velocity": 76,
      "chip": "ym2612"
    },
    {
      "channel": 1,
      "note": 78,
      "start": 3.3807,
      "duration": 0.0994,
      "velocity": 76,
      "chip": "ym2612"
    },
    {
      "channel": 2,
      "note": 55,
      "start": 3.3814,
      "duration": 0.048,
      "velocity": 87,
      "chip": "ym2612"
    },
    {
      "channel": 3,
      "note": 60,
      "start": 3.3821,
      "duration": 0.0476,
      "velocity": 91,
      "chip": "ym2612"
    },
    {
      "channel": 1,
      "note": 76,
      "start": 3.4806,
      "duration": 0.1013,
      "velocity": 76,
      "chip": "ym2612"
    },
    {
      "channel": 2,
      "note": 55,
      "start": 3.4813,
      "duration": 0.0481,
      "velocity": 87,
      "chip": "ym2612"
    },
    {
      "channel": 3,
      "note": 60,
      "start": 3.482,
      "duration": 0.0477,
      "velocity": 91,
      "chip": "ym2612"
    },
    {
      "channel": 1,
      "note": 78,
      "start": 3.5825,
      "duration": 0.0962,
      "velocity": 76,
      "chip": "ym2612"
    },
    {
      "channel": 2,
      "note": 55,
      "start": 3.5832,
      "duration": 0.0962,
      "velocity": 87,
      "chip": "ym2612"
    },
    {
      "channel": 3,
      "note": 60,
      "start": 3.5839,
      "duration": 0.0959,
      "velocity": 91,
      "chip": "ym2612"
    },
    {
      "channel": 5,
      "note": 75,
      "start": 3.5847,
      "duration": 0.2979,
      "velocity": 120,
      "chip": "ym2612"
    },
    {
      "channel": 1,
      "note": 79,
      "start": 3.6793,
      "duration": 0.1011,
      "velocity": 76,
      "chip": "ym2612"
    },
    {
      "channel": 0,
      "note": 76,
      "start": 3.7803,
      "duration": 0.0993,
      "velocity": 95,
      "chip": "ym2612"
    },
    {
      "channel": 1,
      "note": 78,
      "start": 3.781,
      "duration": 0.0994,
      "velocity": 76,
      "chip": "ym2612"
    },
    {
      "channel": 2,
      "note": 55,
      "start": 3.7817,
      "duration": 0.0476,
      "velocity": 87,
      "chip": "ym2612"
    },
    {
      "channel": 3,
      "note": 60,
      "start": 3.7824,
      "duration": 0.0473,
      "velocity": 91,
      "chip": "ym2612"
    },
    {
      "channel": 0,
      "note": 78,
      "start": 3.8802,
      "duration": 0.1013,
      "velocity": 95,
      "chip": "ym2612"
    },
    {
      "channel": 1,
      "note": 76,
      "start": 3.881,
      "duration": 0.1015,
      "velocity": 76,
      "chip": "ym2612"
    },
    {
      "channel": 2,
      "note": 55,
      "start": 3.8817,
      "duration": 0.0476,
      "velocity": 87,
      "chip": "ym2612"
    },
    {
      "channel": 3,
      "note": 60,
      "start": 3.8824,
      "duration": 0.0473,
      "velocity": 91,
      "chip": "ym2612"
    },
    {
      "channel": 0,
      "note": 79,
      "start": 3.9823,
      "duration": 0.3993,
      "velocity": 95,
      "chip": "ym2612"
    },
    {
      "channel": 1,
      "note": 78,
      "start": 3.983,
      "duration": 0.096,
      "velocity": 76,
      "chip": "ym2612"
    },
    {
      "channel": 2,
      "note": 55,
      "start": 3.9839,
      "duration": 0.0959,
      "velocity": 87,
      "chip": "ym2612"
    },
    {
      "channel": 3,
      "note": 60,
      "start": 3.9848,
      "duration": 0.0953,
      "velocity": 91,
      "chip": "ym2612"
    },
    {
      "channel": 5,
      "note": 32,
      "start": 3.9856,
      "duration": 0.1272,
      "velocity": 114,
      "chip": "ym2612"
    },
    {
      "channel": 1,
      "note": 79,
      "start": 4.0796,
      "duration": 0.1005,
      "velocity": 76,
      "chip": "ym2612"
    },
    {
      "channel": 1,
      "note": 78,
      "start": 4.1807,
      "duration": 0.0994,
      "velocity": 76,
      "chip": "ym2612"
    },
    {
      "channel": 2,
      "note": 55,
      "start": 4.1814,
      "duration": 0.0481,
      "velocity": 87,
      "chip": "ym2612"
    },
    {
      "channel": 3,
      "note": 60,
      "start": 4.1821,
      "duration": 0.0477,
      "velocity": 91,
      "chip": "ym2612"
    },
    {
      "channel": 1,
      "note": 76,
      "start": 4.2806,
      "duration": 0.1018,
      "velocity": 76,
      "chip": "ym2612"
    },
    {
      "channel": 2,
      "note": 55,
      "start": 4.2813,
      "duration": 0.0481,
      "velocity": 87,
      "chip": "ym2612"
    },
    {
      "channel": 3,
      "note": 60,
      "start": 4.282,
      "duration": 0.0477,
      "velocity": 91,
      "chip": "ym2612"
    },
    {
      "channel": 0,
      "note": 78,
      "start": 4.3823,
      "duration": 0.2973,
      "velocity": 95,
      "chip": "ym2612"
    },
    {
      "channel": 1,
      "note": 78,
      "start": 4.383,
      "duration": 0.096,
      "velocity": 76,
      "chip": "ym2612"
    },
    {
      "channel": 2,
      "note": 55,
      "start": 4.3837,
      "duration": 0.0961,
      "velocity": 87,
      "chip": "ym2612"
    },
    {
      "channel": 3,
      "note": 60,
      "start": 4.3844,
      "duration": 0.0957,
      "velocity": 91,
      "chip": "ym2612"
    },
    {
      "channel": 5,
      "note": 75,
      "start": 4.3851,
      "duration": 0.2975,
      "velocity": 120,
      "chip": "ym2612"
    },
    {
      "channel": 1,
      "note": 79,
      "start": 4.4795,
      "duration": 0.1006,
      "velocity": 76,
      "chip": "ym2612"
    },
    {
      "channel": 1,
      "note": 78,
      "start": 4.5807,
      "duration": 0.0998,
      "velocity": 76,
      "chip": "ym2612"
    },
    {
      "channel": 2,
      "note": 55,
      "start": 4.5814,
      "duration": 0.048,
      "velocity": 87,
      "chip": "ym2612"
    },
    {
      "channel": 3,
      "note": 60,
      "start": 4.5821,
      "duration": 0.0476,
      "velocity": 91,
      "chip": "ym2612"
    },
    {
      "channel": 0,
      "note": 79,
      "start": 4.6802,
      "duration": 0.1017,
      "velocity": 95,
      "chip": "ym2612"
    },
    {
      "channel": 1,
      "note": 76,
      "start": 4.681,
      "duration": 0.102,
      "velocity": 76,
      "chip": "ym2612"
    },
    {
      "channel": 2,
      "note": 55,
      "start": 4.6817,
      "duration": 0.0476,
      "velocity": 87,
      "chip": "ym2612"
    },
    {
      "channel": 3,
      "note": 60,
      "start": 4.6824,
      "duration": 0.0473,
      "velocity": 91,
      "chip": "ym2612"
    },
    {
      "channel": 0,
      "note": 81,
      "start": 4.7826,
      "duration": 0.399,
      "velocity": 95,
      "chip": "ym2612"
    },
    {
      "channel": 1,
      "note": 78,
      "start": 4.7836,
      "duration": 0.0954,
      "velocity": 76,
      "chip": "ym2612"
    },
    {
      "channel": 2,
      "note": 57,
      "start": 4.7845,
      "duration": 0.0952,
      "velocity": 87,
      "chip": "ym2612"
    },
    {
      "channel": 3,
      "note": 62,
      "start": 4.7854,
      "duration": 0.0946,
      "velocity": 91,
      "chip": "ym2612"
    },
    {
      "channel": 5,
      "note": 32,
      "start": 4.7863,
      "duration": 0.1266,
      "velocity": 114,
      "chip": "ym2612"
    },
    {
      "channel": 1,
      "note": 79,
      "start": 4.8795,
      "duration": 0.1006,
      "velocity": 76,
      "chip": "ym2612"
    },
    {
      "channel": 1,
      "note": 78,
      "start": 4.9807,
      "duration": 0.0994,
      "velocity": 76,
      "chip": "ym2612"
    },
    {
      "channel": 2,
      "note": 57,
      "start": 4.9814,
      "duration": 0.048,
      "velocity": 87,
      "chip": "ym2612"
    },
    {
      "channel": 3,
      "note": 62,
      "start": 4.9821,
      "duration": 0.0476,
      "velocity": 91,
      "chip": "ym2612"
    },
    {
      "channel": 1,
      "note": 76,
      "start": 5.0806,
      "duration": 0.1013,
      "velocity": 76,
      "chip": "ym2612"
    },
    {
      "channel": 2,
      "note": 57,
      "start": 5.0813,
      "duration": 0.0482,
      "velocity": 87,
      "chip": "ym2612"
    },
    {
      "channel": 3,
      "note": 62,
      "start": 5.082,
      "duration": 0.0478,
      "velocity": 91,
      "chip": "ym2612"
    },
    {
      "channel": 1,
      "note": 78,
      "start": 5.1825,
      "duration": 0.0962,
      "velocity": 76,
      "chip": "ym2612"
    },
    {
      "channel": 2,
      "note": 57,
      "start": 5.1832,
      "duration": 0.0962,
      "velocity": 87,
      "chip": "ym2612"
    },
    {
      "channel": 3,
      "note": 62,
      "start": 5.1839,
      "duration": 0.0959,
      "velocity": 91,
      "chip": "ym2612"
    },
    {
      "channel": 5,
      "note": 75,
      "start": 5.1847,
      "duration": 0.298,
      "velocity": 120,
      "chip": "ym2612"
    },
    {
      "channel": 1,
      "note": 79,
      "start": 5.2793,
      "duration": 0.1011,
      "velocity": 76,
      "chip": "ym2612"
    },
    {
      "channel": 0,
      "note": 79,
      "start": 5.3802,
      "duration": 0.0994,
      "velocity": 95,
      "chip": "ym2612"
    },
    {
      "channel": 1,
      "note": 78,
      "start": 5.381,
      "duration": 0.0994,
      "velocity": 76,
      "chip": "ym2612"
    },
    {
      "channel": 2,
      "note": 57,
      "start": 5.3817,
      "duration": 0.0476,
      "velocity": 87,
      "chip": "ym2612"
    },
    {
      "channel": 3,
      "note": 62,
      "start": 5.3824,
      "duration": 0.0473,
      "velocity": 91,
      "chip": "ym2612"
    },
    {
      "channel": 0,
      "note": 81,
      "start": 5.4802,
      "duration": 0.1013,
      "velocity": 95,
      "chip": "ym2612"
    },
    {
      "channel": 1,
      "note": 76,
      "start": 5.481,
      "duration": 0.1014,
      "velocity": 76,
      "chip": "ym2612"
    },
    {
      "channel": 2,
      "note": 57,
      "start": 5.4817,
      "duration": 0.0476,
      "velocity": 87,
      "chip": "ym2612"
    },
    {
      "channel": 3,
      "note": 62,
      "start": 5.4824,
      "duration": 0.0473,
      "velocity": 91,
      "chip": "ym2612"
    },
    {
      "channel": 0,
      "note": 83,
      "start": 5.5823,
      "duration": 0.1973,
      "velocity": 95,
      "chip": "ym2612"
    },
    {
      "channel": 1,
      "note": 78,
      "start": 5.583,
      "duration": 0.096,
      "velocity": 76,
      "chip": "ym2612"
    },
    {
      "channel": 2,
      "note": 57,
      "start": 5.5839,
      "duration": 0.0958,
      "velocity": 87,
      "chip": "ym2612"
    },
    {
      "channel": 3,
      "note": 62,
      "start": 5.5848,
      "duration": 0.0952,
      "velocity": 91,
      "chip": "ym2612"
    },
    {
      "channel": 5,
      "note": 32,
      "start": 5.5857,
      "duration": 0.1272,
      "velocity": 114,
      "chip": "ym2612"
    },
    {
      "channel": 1,
      "note": 79,
      "start": 5.6795,
      "duration": 0.1009,
      "velocity": 76,
      "chip": "ym2612"
    },
    {
      "channel": 0,
      "note": 81,
      "start": 5.7802,
      "duration": 0.2013,
      "velocity": 95,
      "chip": "ym2612"
    },
    {
      "channel": 1,
      "note": 78,
      "start": 5.781,
      "duration": 0.0989,
      "velocity": 76,
      "chip": "ym2612"
    },
    {
      "channel": 2,
      "note": 57,
      "start": 5.7817,
      "duration": 0.0476,
      "velocity": 87,
      "chip": "ym2612"
    },
    {
      "channel": 3,
      "note": 62,
      "start": 5.7824,
      "duration": 0.0473,
      "velocity": 91,
      "chip": "ym2612"
    },
    {
      "channel": 1,
      "note": 76,
      "start": 5.8805,
      "duration": 0.1019,
      "velocity": 76,
      "chip": "ym2612"
    },
    {
      "channel": 2,
      "note": 57,
      "start": 5.8813,
      "duration": 0.0481,
      "velocity": 87,
      "chip": "ym2612"
    },
    {
      "channel": 3,
      "note": 62,
      "start": 5.882,
      "duration": 0.0477,
      "velocity": 91,
      "chip": "ym2612"
    },
    {
      "channel": 0,
      "note": 79,
      "start": 5.9823,
      "duration": 0.1973,
      "velocity": 95,
      "chip": "ym2612"
    },
    {
      "channel": 1,
      "note": 78,
      "start": 5.983,
      "duration": 0.096,
      "velocity": 76,
      "chip": "ym2612"
    },
    {
      "channel": 2,
      "note": 57,
      "start": 5.9837,
      "duration": 0.0961,
      "velocity": 87,
      "chip": "ym2612"
    },
    {
      "channel": 3,
      "note": 62,
      "start": 5.9844,
      "duration": 0.0957,
      "velocity": 91,
      "chip": "ym2612"
    },
    {
      "channel": 5,
      "note": 75,
      "start": 5.9851,
      "duration": 0.297,
      "velocity": 120,
      "chip": "ym2612"
    },
    {
      "channel": 1,
      "note": 79,
      "start": 6.0795,
      "duration": 0.1009,
      "velocity": 76,
      "chip": "ym2612"
    },
    {
      "channel": 0,
      "note": 78,
      "start": 6.1803,
      "duration": 0.1484,
      "velocity": 95,
      "chip": "ym2612"
    },
    {
      "channel": 1,
      "note": 78,
      "start": 6.181,
      "duration": 0.0989,
      "velocity": 76,
      "chip": "ym2612"
    },
    {
      "channel": 2,
      "note": 57,
      "start": 6.1817,
      "duration": 0.0476,
      "velocity": 87,
      "chip": "ym2612"
    },
    {
      "channel": 3,
      "note": 62,
      "start": 6.1824,
      "duration": 0.0473,
      "velocity": 91,
      "chip": "ym2612"
    },
    {
      "channel": 1,
      "note": 76,
      "start": 6.2805,
      "duration": 0.1026,
      "velocity": 76,
      "chip": "ym2612"
    },
    {
      "channel": 2,
      "note": 57,
      "start": 6.2813,
      "duration": 0.0481,
      "velocity": 87,
      "chip": "ym2612"
    },
    {
      "channel": 3,
      "note": 62,
      "start": 6.282,
      "duration": 0.0477,
      "velocity": 91,
      "chip": "ym2612"
    },
    {
      "channel": 0,
      "note": 71,
      "start": 6.3827,
      "duration": 0.3989,
      "velocity": 95,
      "chip": "ym2612"
    },
    {
      "channel": 1,
      "note": 78,
      "start": 6.3837,
      "duration": 0.0953,
      "velocity": 76,
      "chip": "ym2612"
    },
    {
      "channel": 2,
      "note": 59,
      "start": 6.3847,
      "duration": 0.095,
      "velocity": 87,
      "chip": "ym2612"
    },
    {
      "channel": 3,
      "note": 64,
      "start": 6.3857,
      "duration": 0.0943,
      "velocity": 91,
      "chip": "ym2612"
    },
    {
      "channel": 5,
      "note": 32,
      "start": 6.3865,
      "duration": 0.1263,
      "velocity": 114,
      "chip": "ym2612"
    },
    {
      "channel": 1,
      "note": 79,
      "start": 6.4796,
      "duration": 0.1005,
      "velocity": 76,
      "chip": "ym2612"
    },
    {
      "channel": 1,
      "note": 78,
      "start": 6.5807,
      "duration": 0.0994,
      "velocity": 76,
      "chip": "ym2612"
    },
    {
      "channel": 2,
      "note": 59,
      "start": 6.5814,
      "duration": 0.0481,
      "velocity": 87,
      "chip": "ym2612"
    },
    {
      "channel": 3,
      "note": 64,
      "start": 6.5821,
      "duration": 0.0477,
      "velocity": 91,
      "chip": "ym2612"
    },
    {
      "channel": 1,
      "note": 76,
      "start": 6.6806,
      "duration": 0.1013,
      "velocity": 76,
      "chip": "ym2612"
    },
    {
      "channel": 2,
      "note": 59,
      "start": 6.6813,
      "duration": 0.0481,
      "velocity": 87,
      "chip": "ym2612"
    },
    {
      "channel": 3,
      "note": 64,
      "start": 6.682,
      "duration": 0.0477,
      "velocity": 91,
      "chip": "ym2612"
    },
    {
      "channel": 1,
      "note": 78,
      "start": 6.7825,
      "duration": 0.0962,
      "velocity": 76,
      "chip": "ym2612"
    },
    {
      "channel": 2,
      "note": 59,
      "start": 6.7832,
      "duration": 0.0962,
      "velocity": 87,
      "chip": "ym2612"
    },
    {
      "channel": 3,
      "note": 64,
      "start": 6.7839,
      "duration": 0.0959,
      "velocity": 91,
      "chip": "ym2612"
    },
    {
      "channel": 5,
      "note": 75,
      "start": 6.7847,
      "duration": 0.298,
      "velocity": 120,
      "chip": "ym2612"
    },
    {
      "channel": 1,
      "note": 79,
      "start": 6.8793,
      "duration": 0.1011,
      "velocity": 76,
      "chip": "ym2612"
    },
    {
      "channel": 0,
      "note": 71,
      "start": 6.9802,
      "duration": 0.0994,
      "velocity": 95,
      "chip": "ym2612"
    },
    {
      "channel": 1,
      "note": 78,
      "start": 6.981,
      "duration": 0.0994,
      "velocity": 76,
      "chip": "ym2612"
    },
    {
      "channel": 2,
      "note": 59,
      "start": 6.9817,
      "duration": 0.0476,
      "velocity": 87,
      "chip": "ym2612"
    },
    {
      "channel": 3,
      "note": 64,
      "start": 6.9824,
      "duration": 0.0473,
      "velocity": 91,
      "chip": "ym2612"
    },
    {
      "channel": 0,
      "note": 74,
      "start": 7.0802,
      "duration": 0.1013,
      "velocity": 95,
      "chip": "ym2612"
    },
    {
      "channel": 1,
      "note": 76,
      "start": 7.081,
      "duration": 0.1014,
      "velocity": 76,
      "chip": "ym2612"
    },
    {
      "channel": 2,
      "note": 59,
      "start": 7.0817,
      "duration": 0.0476,
      "velocity": 87,
      "chip": "ym2612"
    },
    {
      "channel": 3,
      "note": 64,
      "start": 7.0824,
      "duration": 0.0473,
      "velocity": 91,
      "chip": "ym2612"
    },
    {
      "channel": 0,
      "note": 79,
      "start": 7.1823,
      "duration": 0.3993,
      "velocity": 95,
      "chip": "ym2612"
    },
    {
      "channel": 1,
      "note": 78,
      "start": 7.183,
      "duration": 0.096,
      "velocity": 76,
      "chip": "ym2612"
    },
    {
      "channel": 2,
      "note": 59,
      "start": 7.1839,
      "duration": 0.0959,
      "velocity": 87,
      "chip": "ym2612"
    },
    {
      "channel": 3,
      "note": 64,
      "start": 7.1848,
      "duration": 0.0952,
      "velocity": 91,
      "chip": "ym2612"
    },
    {
      "channel": 5,
      "note": 32,
      "start": 7.1856,
      "duration": 0.1272,
      "velocity": 114,
      "chip": "ym2612"
    },
    {
      "channel": 1,
      "note": 79,
      "start": 7.2795,
      "duration": 0.1006,
      "velocity": 76,
      "chip": "ym2612"
    },
    {
      "channel": 1,
      "note": 78,
      "start": 7.3807,
      "duration": 0.0994,
      "velocity": 76,
      "chip": "ym2612"
    },
    {
      "channel": 2,
      "note": 59,
      "start": 7.3814,
      "duration": 0.048,
      "velocity": 87,
      "chip": "ym2612"
    },
    {
      "channel": 3,
      "note": 64,
      "start": 7.3821,
      "duration": 0.0476,
      "velocity": 91,
      "chip": "ym2612"
    },
    {
      "channel": 1,
      "note": 76,
      "start": 7.4806,
      "duration": 0.1018,
      "velocity": 76,
      "chip": "ym2612"
    },
    {
      "channel": 2,
      "note": 59,
      "start": 7.4813,
      "duration": 0.0482,
      "velocity": 87,
      "chip": "ym2612"
    },
    {
      "channel": 3,
      "note": 64,
      "start": 7.482,
      "duration": 0.0478,
      "velocity": 91,
      "chip": "ym2612"
    },
    {
      "channel": 0,
      "note": 78,
      "start": 7.5823,
      "duration": 0.2973,
      "velocity": 95,
      "chip": "ym2612"
    },
    {
      "channel": 1,
      "note": 78,
      "start": 7.583,
      "duration": 0.096,
      "velocity": 76,
      "chip": "ym2612"
    },
    {
      "channel": 2,
      "note": 59,
      "start": 7.5837,
      "duration": 0.0961,
      "velocity": 87,
      "chip": "ym2612"
    },
    {
      "channel": 3,
      "note": 64,
      "start": 7.5844,
      "duration": 0.0956,
      "velocity": 91,
      "chip": "ym2612"
    },
    {
      "channel": 5,
      "note": 75,
      "start": 7.5852,
      "duration": 0.2974,
      "velocity": 120,
      "chip": "ym2612"
    },
    {
      "channel": 1,
      "note": 79,
      "start": 7.6796,
      "duration": 0.1005,
      "velocity": 76,
      "chip": "ym2612"
    },
    {
      "channel": 1,
      "note": 78,
      "start": 7.7807,
      "duration": 0.0998,
      "velocity": 76,
      "chip": "ym2612"
    },
    {
      "channel": 2,
      "note": 59,
      "start": 7.7814,
      "duration": 0.0481,
      "velocity": 87,
      "chip": "ym2612"
    },
    {
      "channel": 3,
      "note": 64,
      "start": 7.7821,
      "duration": 0.0477,
      "velocity": 91,
      "chip": "ym2612"
    },
    {
      "channel": 0,
      "note": 74,
      "start": 7.8802,
      "duration": 0.1017,
      "velocity": 95,
      "chip": "ym2612"
    },
    {
      "channel": 1,
      "note": 76,
      "start": 7.881,
      "duration": 0.102,
      "velocity": 76,
      "chip": "ym2612"
    },
    {
      "channel": 2,
      "note": 59,
      "start": 7.8817,
      "duration": 0.0476,
      "velocity": 87,
      "chip": "ym2612"
    },
    {
      "channel": 3,
      "note": 64,
      "start": 7.8824,
      "duration": 0.0473,
      "velocity": 91,
      "chip": "ym2612"
    },
    {
      "channel": 0,
      "note": 76,
      "start": 7.9826,
      "duration": 0.4461,
      "velocity": 95,
      "chip": "ym2612"
    },
    {
      "channel": 1,
      "note": 78,
      "start": 7.9836,
      "duration": 0.0954,
      "velocity": 76,
      "chip": "ym2612"
    },
    {
      "channel": 2,
      "note": 52,
      "start": 7.9845,
      "duration": 0.0952,
      "velocity": 87,
      "chip": "ym2612"
    },
    {
      "channel": 3,
      "note": 57,
      "start": 7.9854,
      "duration": 0.0946,
      "velocity": 91,
      "chip": "ym2612"
    },
    {
      "channel": 5,
      "note": 32,
      "start": 7.9863,
      "duration": 0.1267,
      "velocity": 114,
      "chip": "ym2612"
    },
    {
      "channel": 1,
      "note": 79,
      "start": 8.0795,
      "duration": 0.1006,
      "velocity": 76,
      "chip": "ym2612"
    },
    {
      "channel": 1,
      "note": 78,
      "start": 8.1807,
      "duration": 0.0994,
      "velocity": 76,
      "chip": "ym2612"
    },
    {
      "channel": 2,
      "note": 52,
      "start": 8.1814,
      "duration": 0.048,
      "velocity": 87,
      "chip": "ym2612"
    },
    {
      "channel": 3,
      "note": 57,
      "start": 8.1821,
      "duration": 0.0476,
      "velocity": 91,
      "chip": "ym2612"
    },
    {
      "channel": 1,
      "note": 76,
      "start": 8.2806,
      "duration": 0.1015,
      "velocity": 76,
      "chip": "ym2612"
    },
    {
      "channel": 2,
      "note": 52,
      "start": 8.2813,
      "duration": 0.0481,
      "velocity": 87,
      "chip": "ym2612"
    },
    {
      "channel": 3,
      "note": 57,
      "start": 8.282,
      "duration": 0.0477,
      "velocity": 91,
      "chip": "ym2612"
    },
    {
      "channel": 1,
      "note": 78,
      "start": 8.3827,
      "duration": 0.0961,
      "velocity": 76,
      "chip": "ym2612"
    },
    {
      "channel": 2,
      "note": 52,
      "start": 8.3834,
      "duration": 0.0961,
      "velocity": 87,
      "chip": "ym2612"
    },
    {
      "channel": 3,
      "note": 57,
      "start": 8.3841,
      "duration": 0.0957,
      "velocity": 91,
      "chip": "ym2612"
    },
    {
      "channel": 5,
      "note": 75,
      "start": 8.3848,
      "duration": 0.2978,
      "velocity": 120,
      "chip": "ym2612"
    },
    {
      "channel": 1,
      "note": 79,
      "start": 8.4793,
      "duration": 0.1011,
      "velocity": 76,
      "chip": "ym2612"
    },
    {
      "channel": 0,
      "note": 74,
      "start": 8.5803,
      "duration": 0.0993,
      "velocity": 95,
      "chip": "ym2612"
    },
    {
      "channel": 1,
      "note": 78,
      "start": 8.581,
      "duration": 0.0994,
      "velocity": 76,
      "chip": "ym2612"
    },
    {
      "channel": 2,
      "note": 52,
      "start": 8.5817,
      "duration": 0.0476,
      "velocity": 87,
      "chip": "ym2612"
    },
    {
      "channel": 3,
      "note": 57,
      "start": 8.5824,
      "duration": 0.0473,
      "velocity": 91,
      "chip": "ym2612"
    },
    {
      "channel": 0,
      "note": 73,
      "start": 8.6802,
      "duration": 0.1013,
      "velocity": 95,
      "chip": "ym2612"
    },
    {
      "channel": 1,
      "note": 76,
      "start": 8.681,
      "duration": 0.1015,
      "velocity": 76,
      "chip": "ym2612"
    },
    {
      "channel": 2,
      "note": 52,
      "start": 8.6817,
      "duration": 0.0476,
      "velocity": 87,
      "chip": "ym2612"
    },
    {
      "channel": 3,
      "note": 57,
      "start": 8.6824,
      "duration": 0.0473,
      "velocity": 91,
      "chip": "ym2612"
    },
    {
      "channel": 0,
      "note": 74,
      "start": 8.7823,
      "duration": 0.1973,
      "velocity": 95,
      "chip": "ym2612"
    },
    {
      "channel": 1,
      "note": 78,
      "start": 8.783,
      "duration": 0.096,
      "velocity": 76,
      "chip": "ym2612"
    },
    {
      "channel": 2,
      "note": 52,
      "start": 8.7839,
      "duration": 0.0959,
      "velocity": 87,
      "chip": "ym2612"
    },
    {
      "channel": 3,
      "note": 57,
      "start": 8.7848,
      "duration": 0.0953,
      "velocity": 91,
      "chip": "ym2612"
    },
    {
      "channel": 5,
      "note": 32,
      "start": 8.7856,
      "duration": 0.1272,
      "velocity": 114,
      "chip": "ym2612"
    },
    {
      "channel": 1,
      "note": 79,
      "start": 8.8796,
      "duration": 0.1008,
      "velocity": 76,
      "chip": "ym2612"
    },
    {
      "channel": 0,
      "note": 73,
      "start": 8.9802,
      "duration": 0.0994,
      "velocity": 95,
      "chip": "ym2612"
    },
    {
      "channel": 1,
      "note": 78,
      "start": 8.981,
      "duration": 0.0994,
      "velocity": 76,
      "chip": "ym2612"
    },
    {
      "channel": 2,
      "note": 52,
      "start": 8.9817,
      "duration": 0.0476,
      "velocity": 87,
      "chip": "ym2612"
    },
    {
      "channel": 3,
      "note": 57,
      "start": 8.9824,
      "duration": 0.0473,
      "velocity": 91,
      "chip": "ym2612"
    },
    {
      "channel": 0,
      "note": 71,
      "start": 9.0802,
      "duration": 0.1013,
      "velocity": 95,
      "chip": "ym2612"
    },
    {
      "channel": 1,
      "note": 76,
      "start": 9.081,
      "duration": 0.1015,
      "velocity": 76,
      "chip": "ym2612"
    },
    {
      "channel": 2,
      "note": 52,
      "start": 9.0817,
      "duration": 0.0476,
      "velocity": 87,
      "chip": "ym2612"
    },
    {
      "channel": 3,
      "note": 57,
      "start": 9.0824,
      "duration": 0.0473,
      "velocity": 91,
      "chip": "ym2612"
    },
    {
      "channel": 0,
      "note": 73,
      "start": 9.1823,
      "duration": 0.1973,
      "velocity": 95,
      "chip": "ym2612"
    },
    {
      "channel": 1,
      "note": 78,
      "start": 9.183,
      "duration": 0.096,
      "velocity": 76,
      "chip": "ym2612"
    },
    {
      "channel": 2,
      "note": 52,
      "start": 9.1837,
      "duration": 0.0961,
      "velocity": 87,
      "chip": "ym2612"
    },
    {
      "channel": 3,
      "note": 57,
      "start": 9.1844,
      "duration": 0.0957,
      "velocity": 91,
      "chip": "ym2612"
    },
    {
      "channel": 5,
      "note": 75,
      "start": 9.1851,
      "duration": 0.2974,
      "velocity": 120,
      "chip": "ym2612"
    },
    {
      "channel": 1,
      "note": 79,
      "start": 9.2795,
      "duration": 0.1009,
      "velocity": 76,
      "chip": "ym2612"
    },
    {
      "channel": 0,
      "note": 71,
      "start": 9.3802,
      "duration": 0.0994,
      "velocity": 95,
      "chip": "ym2612"
    },
    {
      "channel": 1,
      "note": 78,
      "start": 9.381,
      "duration": 0.0994,
      "velocity": 76,
      "chip": "ym2612"
    },
    {
      "channel": 2,
      "note": 52,
      "start": 9.3817,
      "duration": 0.0476,
      "velocity": 87,
      "chip": "ym2612"
    },
    {
      "channel": 3,
      "note": 57,
      "start": 9.3824,
      "duration": 0.0473,
      "velocity": 91,
      "chip": "ym2612"
    },
    {
      "channel": 0,
      "note": 69,
      "start": 9.4802,
      "duration": 0.1017,
      "velocity": 95,
      "chip": "ym2612"
    },
    {
      "channel": 1,
      "note": 76,
      "start": 9.481,
      "duration": 0.102,
      "velocity": 76,
      "chip": "ym2612"
    },
    {
      "channel": 2,
      "note": 52,
      "start": 9.4817,
      "duration": 0.0476,
      "velocity": 87,
      "chip": "ym2612"
    },
    {
      "channel": 3,
      "note": 57,
      "start": 9.4824,
      "duration": 0.0473,
      "velocity": 91,
      "chip": "ym2612"
    },
    {
      "channel": 0,
      "note": 76,
      "start": 9.5826,
      "duration": 0.399,
      "velocity": 95,
      "chip": "ym2612"
    },
    {
      "channel": 1,
      "note": 78,
      "start": 9.5836,
      "duration": 0.0954,
      "velocity": 76,
      "chip": "ym2612"
    },
    {
      "channel": 2,
      "note": 55,
      "start": 9.5845,
      "duration": 0.0952,
      "velocity": 87,
      "chip": "ym2612"
    },
    {
      "channel": 3,
      "note": 60,
      "start": 9.5854,
      "duration": 0.0946,
      "velocity": 91,
      "chip": "ym2612"
    },
    {
      "channel": 5,
      "note": 32,
      "start": 9.5863,
      "duration": 0.1266,
      "velocity": 114,
      "chip": "ym2612"
    },
    {
      "channel": 1,
      "note": 79,
      "start": 9.6795,
      "duration": 0.1006,
      "velocity": 76,
      "chip": "ym2612"
    },
    {
      "channel": 1,
      "note": 78,
      "start": 9.7807,
      "duration": 0.0994,
      "velocity": 76,
      "chip": "ym2612"
    },
    {
      "channel": 2,
      "note": 55,
      "start": 9.7814,
      "duration": 0.048,
      "velocity": 87,
      "chip": "ym2612"
    },
    {
      "channel": 3,
      "note": 60,
      "start": 9.7821,
      "duration": 0.0476,
      "velocity": 91,
      "chip": "ym2612"
    },
    {
      "channel": 1,
      "note": 76,
      "start": 9.8806,
      "duration": 0.1013,
      "velocity": 76,
      "chip": "ym2612"
    },
    {
      "channel": 2,
      "note": 55,
      "start": 9.8813,
      "duration": 0.0482,
      "velocity": 87,
      "chip": "ym2612"
    },
    {
      "channel": 3,
      "note": 60,
      "start": 9.882,
      "duration": 0.0478,
      "velocity": 91,
      "chip": "ym2612"
    },
    {
      "channel": 1,
      "note": 78,
      "start": 9.9825,
      "duration": 0.0962,
      "velocity": 76,
      "chip": "ym2612"
    },
    {
      "channel": 2,
      "note": 55,
      "start": 9.9832,
      "duration": 0.0962,
      "velocity": 87,
      "chip": "ym2612"
    },
    {
      "channel": 3,
      "note": 60,
      "start": 9.9839,
      "duration": 0.0959,
      "velocity": 91,
      "chip": "ym2612"
    },
    {
      "channel": 5,
      "note": 75,
      "start": 9.9847,
      "duration": 0.2979,
      "velocity": 120,
      "chip": "ym2612"
    },
    {
      "channel": 1,
      "note": 79,
      "start": 10.0793,
      "duration": 0.1011,
      "velocity": 76,
      "chip": "ym2612"
    },
    {
      "channel": 0,
      "note": 76,
      "start": 10.1802,
      "duration": 0.0994,
      "velocity": 95,
      "chip": "ym2612"
    },
    {
      "channel": 1,
      "note": 78,
      "start": 10.181,
      "duration": 0.0994,
      "velocity": 76,
      "chip": "ym2612"
    },
    {
      "channel": 2,
      "note": 55,
      "start": 10.1817,
      "duration": 0.0476,
      "velocity": 87,
      "chip": "ym2612"
    },
    {
      "channel": 3,
      "note": 60,
      "start": 10.1824,
      "duration": 0.0473,
      "velocity": 91,
      "chip": "ym2612"
    },
    {
      "channel": 0,
      "note": 78,
      "start": 10.2802,
      "duration": 0.1013,
      "velocity": 95,
      "chip": "ym2612"
    },
    {
      "channel": 1,
      "note": 76,
      "start": 10.281,
      "duration": 0.1015,
      "velocity": 76,
      "chip": "ym2612"
    },
    {
      "channel": 2,
      "note": 55,
      "start": 10.2817,
      "duration": 0.0476,
      "velocity": 87,
      "chip": "ym2612"
    },
    {
      "channel": 3,
      "note": 60,
      "start": 10.2824,
      "duration": 0.0473,
      "velocity": 91,
      "chip": "ym2612"
    },
    {
      "channel": 0,
      "note": 79,
      "start": 10.3823,
      "duration": 0.3993,
      "velocity": 95,
      "chip": "ym2612"
    },
    {
      "channel": 1,
      "note": 78,
      "start": 10.383,
      "duration": 0.096,
      "velocity": 76,
      "chip": "ym2612"
    },
    {
      "channel": 2,
      "note": 55,
      "start": 10.3839,
      "duration": 0.0959,
      "velocity": 87,
      "chip": "ym2612"
    },
    {
      "channel": 3,
      "note": 60,
      "start": 10.3848,
      "duration": 0.0953,
      "velocity": 91,
      "chip": "ym2612"
    },
    {
      "channel": 5,
      "note": 32,
      "start": 10.3856,
      "duration": 0.1273,
      "velocity": 114,
      "chip": "ym2612"
    },
    {
      "channel": 1,
      "note": 79,
      "start": 10.4795,
      "duration": 0.1006,
      "velocity": 76,
      "chip": "ym2612"
    },
    {
      "channel": 1,
      "note": 78,
      "start": 10.5807,
      "duration": 0.0994,
      "velocity": 76,
      "chip": "ym2612"
    },
    {
      "channel": 2,
      "note": 55,
      "start": 10.5814,
      "duration": 0.048,
      "velocity": 87,
      "chip": "ym2612"
    },
    {
      "channel": 3,
      "note": 60,
      "start": 10.5821,
      "duration": 0.0476,
      "velocity": 91,
      "chip": "ym2612"
    },
    {
      "channel": 1,
      "note": 76,
      "start": 10.6806,
      "duration": 0.1018,
      "velocity": 76,
      "chip": "ym2612"
    },
    {
      "channel": 2,
      "note": 55,
      "start": 10.6813,
      "duration": 0.0481,
      "velocity": 87,
      "chip": "ym2612"
    },
    {
      "channel": 3,
      "note": 60,
      "start": 10.682,
      "duration": 0.0477,
      "velocity": 91,
      "chip": "ym2612"
    },
    {
      "channel": 0,
      "note": 78,
      "start": 10.7823,
      "duration": 0.2973,
      "velocity": 95,
      "chip": "ym2612"
    },
    {
      "channel": 1,
      "note": 78,
      "start": 10.783,
      "duration": 0.096,
      "velocity": 76,
      "chip": "ym2612"
    },
    {
      "channel": 2,
      "note": 55,
      "start": 10.7837,
      "duration": 0.0961,
      "velocity": 87,
      "chip": "ym2612"
    },
    {
      "channel": 3,
      "note": 60,
      "start": 10.7844,
      "duration": 0.0957,
      "velocity": 91,
      "chip": "ym2612"
    },
    {
      "channel": 5,
      "note": 75,
      "start": 10.7851,
      "duration": 0.2974,
      "velocity": 120,
      "chip": "ym2612"
    },
    {
      "channel": 1,
      "note": 79,
      "start": 10.8795,
      "duration": 0.1006,
      "velocity": 76,
      "chip": "ym2612"
    },
    {
      "channel": 1,
      "note": 78,
      "start": 10.9807,
      "duration": 0.0998,
      "velocity": 76,
      "chip": "ym2612"
    },
    {
      "channel": 2,
      "note": 55,
      "start": 10.9814,
      "duration": 0.048,
      "velocity": 87,
      "chip": "ym2612"
    },
    {
      "channel": 3,
      "note": 60,
      "start": 10.9821,
      "duration": 0.0476,
      "velocity": 91,
      "chip": "ym2612"
    },
    {
      "channel": 0,
      "note": 79,
      "start": 11.0802,
      "duration": 0.1015,
      "velocity": 95,
      "chip": "ym2612"
    },
    {
      "channel": 1,
      "note": 76,
      "start": 11.081,
      "duration": 0.1018,
      "velocity": 76,
      "chip": "ym2612"
    },
    {
      "channel": 2,
      "note": 55,
      "start": 11.0817,
      "duration": 0.0476,
      "velocity": 87,
      "chip": "ym2612"
    },
    {
      "channel": 3,
      "note": 60,
      "start": 11.0824,
      "duration": 0.0473,
      "velocity": 91,
      "chip": "ym2612"
    },
    {
      "channel": 0,
      "note": 81,
      "start": 11.1825,
      "duration": 0.3987,
      "velocity": 95,
      "chip": "ym2612"
    },
    {
      "channel": 1,
      "note": 78,
      "start": 11.1834,
      "duration": 0.0982,
      "velocity": 76,
      "chip": "ym2612"
    },
    {
      "channel": 2,
      "note": 57,
      "start": 11.1842,
      "duration": 0.098,
      "velocity": 87,
      "chip": "ym2612"
    },
    {
      "channel": 3,
      "note": 62,
      "start": 11.1852,
      "duration": 0.0974,
      "velocity": 91,
      "chip": "ym2612"
    },
    {
      "channel": 5,
      "note": 59,
      "start": 11.1861,
      "duration": 0.0925,
      "velocity": 117,
      "chip": "ym2612"
    },
    {
      "channel": 1,
      "note": 79,
      "start": 11.2822,
      "duration": 0.0995,
      "velocity": 76,
      "chip": "ym2612"
    },
    {
      "channel": 5,
      "note": 59,
      "start": 11.2837,
      "duration": 0.0949,
      "velocity": 117,
      "chip": "ym2612"
    },
    {
      "channel": 1,
      "note": 78,
      "start": 11.3823,
      "duration": 0.097,
      "velocity": 76,
      "chip": "ym2612"
    },
    {
      "channel": 2,
      "note": 57,
      "start": 11.383,
      "duration": 0.0465,
      "velocity": 87,
      "chip": "ym2612"
    },
    {
      "channel": 3,
      "note": 62,
      "start": 11.3837,
      "duration": 0.0461,
      "velocity": 91,
      "chip": "ym2612"
    },
    {
      "channel": 5,
      "note": 54,
      "start": 11.3847,
      "duration": 0.1939,
      "velocity": 117,
      "chip": "ym2612"
    },
    {
      "channel": 1,
      "note": 76,
      "start": 11.4798,
      "duration": 0.1017,
      "velocity": 76,
      "chip": "ym2612"
    },
    {
      "channel": 2,
      "note": 57,
      "start": 11.4805,
      "duration": 0.0489,
      "velocity": 87,
      "chip": "ym2612"
    },
    {
      "channel": 3,
      "note": 62,
      "start": 11.4812,
      "duration": 0.0485,
      "velocity": 91,
      "chip": "ym2612"
    },
    {
      "channel": 1,
      "note": 78,
      "start": 11.5822,
      "duration": 0.0991,
      "velocity": 76,
      "chip": "ym2612"
    },
    {
      "channel": 2,
      "note": 57,
      "start": 11.5829,
      "duration": 0.0992,
      "velocity": 87,
      "chip": "ym2612"
    },
    {
      "channel": 3,
      "note": 62,
      "start": 11.5836,
      "duration": 0.0988,
      "velocity": 91,
      "chip": "ym2612"
    },
    {
      "channel": 5,
      "note": 59,
      "start": 11.5844,
      "duration": 0.0941,
      "velocity": 117,
      "chip": "ym2612"
    },
    {
      "channel": 1,
      "note": 79,
      "start": 11.6818,
      "duration": 0.1002,
      "velocity": 76,
      "chip": "ym2612"
    },
    {
      "channel": 5,
      "note": 59,
      "start": 11.6834,
      "duration": 0.0952,
      "velocity": 117,
      "chip": "ym2612"
    },
    {
      "channel": 0,
      "note": 79,
      "start": 11.7818,
      "duration": 0.0969,
      "velocity": 95,
      "chip": "ym2612"
    },
    {
      "channel": 1,
      "note": 78,
      "start": 11.7826,
      "duration": 0.097,
      "velocity": 76,
      "chip": "ym2612"
    },
    {
      "channel": 2,
      "note": 57,
      "start": 11.7833,
      "duration": 0.0461,
      "velocity": 87,
      "chip": "ym2612"
    },
    {
      "channel": 3,
      "note": 62,
      "start": 11.784,
      "duration": 0.0457,
      "velocity": 91,
      "chip": "ym2612"
    },
    {
      "channel": 5,
      "note": 54,
      "start": 11.785,
      "duration": 0.1936,
      "velocity": 117,
      "chip": "ym2612"
    },
    {
      "channel": 0,
      "note": 81,
      "start": 11.8795,
      "duration": 0.1017,
      "velocity": 95,
      "chip": "ym2612"
    },
    {
      "channel": 1,
      "note": 76,
      "start": 11.8802,
      "duration": 0.1018,
      "velocity": 76,
      "chip": "ym2612"
    },
    {
      "channel": 2,
      "note": 57,
      "start": 11.8809,
      "duration": 0.0485,
      "velocity": 87,
      "chip": "ym2612"
    },
    {
      "channel": 3,
      "note": 62,
      "start": 11.8816,
      "duration": 0.0481,
      "velocity": 91,
      "chip": "ym2612"
    },
    {
      "channel": 0,
      "note": 83,
      "start": 11.9818,
      "duration": 0.1994,
      "velocity": 95,
      "chip": "ym2612"
    },
    {
      "channel": 1,
      "note": 78,
      "start": 11.9826,
      "duration": 0.0989,
      "velocity": 76,
      "chip": "ym2612"
    },
    {
      "channel": 2,
      "note": 57,
      "start": 11.9835,
      "duration": 0.0988,
      "velocity": 87,
      "chip": "ym2612"
    },
    {
      "channel": 3,
      "note": 62,
      "start": 11.9844,
      "duration": 0.0982,
      "velocity": 91,
      "chip": "ym2612"
    },
    {
      "channel": 5,
      "note": 50,
      "start": 11.9854,
      "duration": 0.0932,
      "velocity": 117,
      "chip": "ym2612"
    },
    {
      "channel": 1,
      "note": 79,
      "start": 12.0821,
      "duration": 0.0999,
      "velocity": 76,
      "chip": "ym2612"
    },
    {
      "channel": 5,
      "note": 54,
      "start": 12.0837,
      "duration": 0.0949,
      "velocity": 117,
      "chip": "ym2612"
    },
    {
      "channel": 0,
      "note": 81,
      "start": 12.1819,
      "duration": 0.1993,
      "velocity": 95,
      "chip": "ym2612"
    },
    {
      "channel": 1,
      "note": 81,
      "start": 12.1826,
      "duration": 0.0989,
      "velocity": 76,
      "chip": "ym2612"
    },
    {
      "channel": 2,
      "note": 57,
      "start": 12.1833,
      "duration": 0.0461,
      "velocity": 87,
      "chip": "ym2612"
    },
    {
      "channel": 3,
      "note": 62,
      "start": 12.1841,
      "duration": 0.0456,
      "velocity": 91,
      "chip": "ym2612"
    },
    {
      "channel": 5,
      "note": 54,
      "start": 12.185,
      "duration": 0.0936,
      "velocity": 117,
      "chip": "ym2612"
    },
    {
      "channel": 1,
      "note": 83,
      "start": 12.2821,
      "duration": 0.0999,
      "velocity": 76,
      "chip": "ym2612"
    },
    {
      "channel": 2,
      "note": 57,
      "start": 12.2829,
      "duration": 0.0465,
      "velocity": 87,
      "chip": "ym2612"
    },
    {
      "channel": 3,
      "note": 62,
      "start": 12.2836,
      "duration": 0.0461,
      "velocity": 91,
      "chip": "ym2612"
    },
    {
      "channel": 5,
      "note": 50,
      "start": 12.2845,
      "duration": 0.0941,
      "velocity": 117,
      "chip": "ym2612"
    },
    {
      "channel": 0,
      "note": 79,
      "start": 12.3818,
      "duration": 0.1994,
      "velocity": 95,
      "chip": "ym2612"
    },
    {
      "channel": 1,
      "note": 86,
      "start": 12.3826,
      "duration": 0.099,
      "velocity": 76,
      "chip": "ym2612"
    },
    {
      "channel": 2,
      "note": 57,
      "start": 12.3833,
      "duration": 0.099,
      "velocity": 87,
      "chip": "ym2612"
    },
    {
      "channel": 3,
      "note": 62,
      "start": 12.384,
      "duration": 0.0986,
      "velocity": 91,
      "chip": "ym2612"
    },
    {
      "channel": 5,
      "note": 54,
      "start": 12.385,
      "duration": 0.0936,
      "velocity": 117,
      "chip": "ym2612"
    },
    {
      "channel": 1,
      "note": 90,
      "start": 12.4822,
      "duration": 0.0999,
      "velocity": 76,
      "chip": "ym2612"
    },
    {
      "channel": 5,
      "note": 54,
      "start": 12.4838,
      "duration": 0.0948,
      "velocity": 117,
      "chip": "ym2612"
    },
    {
      "channel": 0,
      "note": 78,
      "start": 12.5818,
      "duration": 0.1468,
      "velocity": 95,
      "chip": "ym2612"
    },
    {
      "channel": 1,
      "note": 93,
      "start": 12.5826,
      "duration": 0.0989,
      "velocity": 76,
      "chip": "ym2612"
    },
    {
      "channel": 2,
      "note": 57,
      "start": 12.5833,
      "duration": 0.0461,
      "velocity": 87,
      "chip": "ym2612"
    },
    {
      "channel": 3,
      "note": 62,
      "start": 12.5841,
      "duration": 0.0456,
      "velocity": 91,
      "chip": "ym2612"
    },
    {
      "channel": 5,
      "note": 50,
      "start": 12.585,
      "duration": 0.0936,
      "velocity": 117,
      "chip": "ym2612"
    },
    {
      "channel": 1,
      "note": 95,
      "start": 12.6822,
      "duration": 0.1057,
      "velocity": 92,
      "chip": "ym2612"
    },
    {
      "channel": 2,
      "note": 57,
      "start": 12.6829,
      "duration": 0.0464,
      "velocity": 87,
      "chip": "ym2612"
    },
    {
      "channel": 3,
      "note": 62,
      "start": 12.6836,
      "duration": 0.0461,
      "velocity": 91,
      "chip": "ym2612"
    },
    {
      "channel": 5,
      "note": 50,
      "start": 12.6845,
      "duration": 0.0942,
      "velocity": 117,
      "chip": "ym2612"
    },
    {
      "channel": 0,
      "note": 64,
      "start": 12.7847,
      "duration": 0.344,
      "velocity": 106,
      "chip": "ym2612"
    },
    {
      "channel": 1,
      "note": 76,
      "start": 12.7885,
      "duration": 0.0905,
      "velocity": 92,
      "chip": "ym2612"
    },
    {
      "channel": 2,
      "note": 59,
      "start": 12.7895,
      "duration": 0.0898,
      "velocity": 87,
      "chip": "ym2612"
    },
    {
      "channel": 3,
      "note": 64,
      "start": 12.7904,
      "duration": 0.0892,
      "velocity": 91,
      "chip": "ym2612"
    },
    {
      "channel": 5,
      "note": 32,
      "start": 12.7913,
      "duration": 0.1214,
      "velocity": 114,
      "chip": "ym2612"
    },
    {
      "channel": 1,
      "note": 71,
      "start": 12.9807,
      "duration": 0.0994,
      "velocity": 92,
      "chip": "ym2612"
    },
    {
      "channel": 2,
      "note": 59,
      "start": 12.9814,
      "duration": 0.048,
      "velocity": 87,
      "chip": "ym2612"
    },
    {
      "channel": 3,
      "note": 64,
      "start": 12.9821,
      "duration": 0.0476,
      "velocity": 91,
      "chip": "ym2612"
    },
    {
      "channel": 2,
      "note": 59,
      "start": 13.081,
      "duration": 0.0481,
      "velocity": 87,
      "chip": "ym2612"
    },
    {
      "channel": 3,
      "note": 64,
      "start": 13.0816,
      "duration": 0.0477,
      "velocity": 91,
      "chip": "ym2612"
    },
    {
      "channel": 0,
      "note": 64,
      "start": 13.1822,
      "duration": 0.2974,
      "velocity": 106,
      "chip": "ym2612"
    },
    {
      "channel": 1,
      "note": 74,
      "start": 13.183,
      "duration": 0.096,
      "velocity": 92,
      "chip": "ym2612"
    },
    {
      "channel": 2,
      "note": 59,
      "start": 13.1837,
      "duration": 0.0961,
      "velocity": 87,
      "chip": "ym2612"
    },
    {
      "channel": 3,
      "note": 64,
      "start": 13.1844,
      "duration": 0.0957,
      "velocity": 91,
      "chip": "ym2612"
    },
    {
      "channel": 5,
      "note": 75,
      "start": 13.1851,
      "duration": 0.2974,
      "velocity": 120,
      "chip": "ym2612"
    },
    {
      "channel": 1,
      "note": 76,
      "start": 13.2795,
      "duration": 0.1495,
      "velocity": 92,
      "chip": "ym2612"
    },
    {
      "channel": 2,
      "note": 59,
      "start": 13.381,
      "duration": 0.0484,
      "velocity": 87,
      "chip": "ym2612"
    },
    {
      "channel": 3,
      "note": 64,
      "start": 13.3817,
      "duration": 0.048,
      "velocity": 91,
      "chip": "ym2612"
    },
    {
      "channel": 0,
      "note": 62,
      "start": 13.4802,
      "duration": 0.1013,
      "velocity": 106,
      "chip": "ym2612"
    },
    {
      "channel": 1,
      "note": 76,
      "start": 13.481,
      "duration": 0.0481,
      "velocity": 92,
      "chip": "ym2612"
    },
    {
      "channel": 2,
      "note": 59,
      "start": 13.4817,
      "duration": 0.0476,
      "velocity": 87,
      "chip": "ym2612"
    },
    {
      "channel": 3,
      "note": 64,
      "start": 13.4824,
      "duration": 0.0473,
      "velocity": 91,
      "chip": "ym2612"
    },
    {
      "channel": 0,
      "note": 64,
      "start": 13.5822,
      "duration": 0.0964,
      "velocity": 106,
      "chip": "ym2612"
    },
    {
      "channel": 1,
      "note": 76,
      "start": 13.583,
      "duration": 0.096,
      "velocity": 92,
      "chip": "ym2612"
    },
    {
      "channel": 2,
      "note": 59,
      "start": 13.5839,
      "duration": 0.0954,
      "velocity": 87,
      "chip": "ym2612"
    },
    {
      "channel": 3,
      "note": 64,
      "start": 13.5848,
      "duration": 0.0948,
      "velocity": 91,
      "chip": "ym2612"
    },
    {
      "channel": 5,
      "note": 32,
      "start": 13.5856,
      "duration": 0.1267,
      "velocity": 114,
      "chip": "ym2612"
    },
    {
      "channel": 0,
      "note": 67,
      "start": 13.7802,
      "duration": 0.3994,
      "velocity": 106,
      "chip": "ym2612"
    },
    {
      "channel": 1,
      "note": 71,
      "start": 13.781,
      "duration": 0.0989,
      "velocity": 92,
      "chip": "ym2612"
    },
    {
      "channel": 2,
      "note": 59,
      "start": 13.7817,
      "duration": 0.0476,
      "velocity": 87,
      "chip": "ym2612"
    },
    {
      "channel": 3,
      "note": 64,
      "start": 13.7824,
      "duration": 0.0473,
      "velocity": 91,
      "chip": "ym2612"
    },
    {
      "channel": 2,
      "note": 59,
      "start": 13.8808,
      "duration": 0.0483,
      "velocity": 87,
      "chip": "ym2612"
    },
    {
      "channel": 3,
      "note": 64,
      "start": 13.8815,
      "duration": 0.0479,
      "velocity": 91,
      "chip": "ym2612"
    },
    {
      "channel": 1,
      "note": 74,
      "start": 13.9827,
      "duration": 0.0964,
      "velocity": 92,
      "chip": "ym2612"
    },
    {
      "channel": 2,
      "note": 59,
      "start": 13.9834,
      "duration": 0.0964,
      "velocity": 87,
      "chip": "ym2612"
    },
    {
      "channel": 3,
      "note": 64,
      "start": 13.9841,
      "duration": 0.0961,
      "velocity": 91,
      "chip": "ym2612"
    },
    {
      "channel": 5,
      "note": 75,
      "start": 13.9848,
      "duration": 0.2978,
      "velocity": 120,
      "chip": "ym2612"
    },
    {
      "channel": 1,
      "note": 76,
      "start": 14.0797,
      "duration": 0.1493,
      "velocity": 92,
      "chip": "ym2612"
    },
    {
      "channel": 0,
      "note": 59,
      "start": 14.1804,
      "duration": 0.0993,
      "velocity": 106,
      "chip": "ym2612"
    },
    {
      "channel": 2,
      "note": 59,
      "start": 14.1814,
      "duration": 0.0479,
      "velocity": 87,
      "chip": "ym2612"
    },
    {
      "channel": 3,
      "note": 64,
      "start": 14.1821,
      "duration": 0.0475,
      "velocity": 91,
      "chip": "ym2612"
    },
    {
      "channel": 0,
      "note": 62,
      "start": 14.2802,
      "duration": 0.1018,
      "velocity": 106,
      "chip": "ym2612"
    },
    {
      "channel": 1,
      "note": 76,
      "start": 14.281,
      "duration": 0.048,
      "velocity": 92,
      "chip": "ym2612"
    },
    {
      "channel": 2,
      "note": 59,
      "start": 14.2817,
      "duration": 0.0476,
      "velocity": 87,
      "chip": "ym2612"
    },
    {
      "channel": 3,
      "note": 64,
      "start": 14.2824,
      "duration": 0.0472,
      "velocity": 91,
      "chip": "ym2612"
    },
    {
      "channel": 0,
      "note": 64,
      "start": 14.3827,
      "duration": 0.346,
      "velocity": 106,
      "chip": "ym2612"
    },
    {
      "channel": 1,
      "note": 76,
      "start": 14.3836,
      "duration": 0.0954,
      "velocity": 92,
      "chip": "ym2612"
    },
    {
      "channel": 2,
      "note": 59,
      "start": 14.3845,
      "duration": 0.0948,
      "velocity": 87,
      "chip": "ym2612"
    },
    {
      "channel": 3,
      "note": 64,
      "start": 14.3854,
      "duration": 0.0942,
      "velocity": 91,
      "chip": "ym2612"
    },
    {
      "channel": 5,
      "note": 32,
      "start": 14.3863,
      "duration": 0.1263,
      "velocity": 114,
      "chip": "ym2612"
    },
    {
      "channel": 1,
      "note": 71,
      "start": 14.5807,
      "duration": 0.0994,
      "velocity": 92,
      "chip": "ym2612"
    },
    {
      "channel": 2,
      "note": 59,
      "start": 14.5814,
      "duration": 0.048,
      "velocity": 87,
      "chip": "ym2612"
    },
    {
      "channel": 3,
      "note": 64,
      "start": 14.5821,
      "duration": 0.0476,
      "velocity": 91,
      "chip": "ym2612"
    },
    {
      "channel": 2,
      "note": 59,
      "start": 14.681,
      "duration": 0.0481,
      "velocity": 87,
      "chip": "ym2612"
    },
    {
      "channel": 3,
      "note": 64,
      "start": 14.6816,
      "duration": 0.0478,
      "velocity": 91,
      "chip": "ym2612"
    },
    {
      "channel": 0,
      "note": 64,
      "start": 14.7822,
      "duration": 0.2974,
      "velocity": 106,
      "chip": "ym2612"
    },
    {
      "channel": 1,
      "note": 74,
      "start": 14.783,
      "duration": 0.096,
      "velocity": 92,
      "chip": "ym2612"
    },
    {
      "channel": 2,
      "note": 59,
      "start": 14.7837,
      "duration": 0.0961,
      "velocity": 87,
      "chip": "ym2612"
    },
    {
      "channel": 3,
      "note": 64,
      "start": 14.7844,
      "duration": 0.0957,
      "velocity": 91,
      "chip": "ym2612"
    },
    {
      "channel": 5,
      "note": 75,
      "start": 14.7851,
      "duration": 0.2974,
      "velocity": 120,
      "chip": "ym2612"
    },
    {
      "channel": 1,
      "note": 76,
      "start": 14.8796,
      "duration": 0.1495,
      "velocity": 92,
      "chip": "ym2612"
    },
    {
      "channel": 2,
      "note": 59,
      "start": 14.981,
      "duration": 0.0484,
      "velocity": 87,
      "chip": "ym2612"
    },
    {
      "channel": 3,
      "note": 64,
      "start": 14.9817,
      "duration": 0.048,
      "velocity": 91,
      "chip": "ym2612"
    },
    {
      "channel": 0,
      "note": 62,
      "start": 15.0802,
      "duration": 0.1013,
      "velocity": 106,
      "chip": "ym2612"
    },
    {
      "channel": 1,
      "note": 76,
      "start": 15.081,
      "duration": 0.048,
      "velocity": 92,
      "chip": "ym2612"
    },
    {
      "channel": 2,
      "note": 59,
      "start": 15.0817,
      "duration": 0.0476,
      "velocity": 87,
      "chip": "ym2612"
    },
    {
      "channel": 3,
      "note": 64,
      "start": 15.0824,
      "duration": 0.0472,
      "velocity": 91,
      "chip": "ym2612"
    },
    {
      "channel": 0,
      "note": 64,
      "start": 15.1822,
      "duration": 0.0964,
      "velocity": 106,
      "chip": "ym2612"
    },
    {
      "channel": 1,
      "note": 76,
      "start": 15.183,
      "duration": 0.096,
      "velocity": 92,
      "chip": "ym2612"
    },
    {
      "channel": 2,
      "note": 59,
      "start": 15.1839,
      "duration": 0.0954,
      "velocity": 87,
      "chip": "ym2612"
    },
    {
      "channel": 3,
      "note": 64,
      "start": 15.1848,
      "duration": 0.0948,
      "velocity": 91,
      "chip": "ym2612"
    },
    {
      "channel": 5,
      "note": 32,
      "start": 15.1856,
      "duration": 0.1267,
      "velocity": 114,
      "chip": "ym2612"
    },
    {
      "channel": 0,
      "note": 67,
      "start": 15.3802,
      "duration": 0.3994,
      "velocity": 106,
      "chip": "ym2612"
    },
    {
      "channel": 1,
      "note": 71,
      "start": 15.381,
      "duration": 0.0989,
      "velocity": 92,
      "chip": "ym2612"
    },
    {
      "channel": 2,
      "note": 59,
      "start": 15.3817,
      "duration": 0.0476,
      "velocity": 87,
      "chip": "ym2612"
    },
    {
      "channel": 3,
      "note": 64,
      "start": 15.3824,
      "duration": 0.0473,
      "velocity": 91,
      "chip": "ym2612"
    },
    {
      "channel": 2,
      "note": 59,
      "start": 15.4808,
      "duration": 0.0483,
      "velocity": 87,
      "chip": "ym2612"
    },
    {
      "channel": 3,
      "note": 64,
      "start": 15.4815,
      "duration": 0.0479,
      "velocity": 91,
      "chip": "ym2612"
    },
    {
      "channel": 1,
      "note": 74,
      "start": 15.5827,
      "duration": 0.0964,
      "velocity": 92,
      "chip": "ym2612"
    },
    {
      "channel": 2,
      "note": 59,
      "start": 15.5834,
      "duration": 0.0964,
      "velocity": 87,
      "chip": "ym2612"
    },
    {
      "channel": 3,
      "note": 64,
      "start": 15.5841,
      "duration": 0.0961,
      "velocity": 91,
      "chip": "ym2612"
    },
    {
      "channel": 5,
      "note": 75,
      "start": 15.5848,
      "duration": 0.2978,
      "velocity": 120,
      "chip": "ym2612"
    },
    {
      "channel": 1,
      "note": 76,
      "start": 15.6797,
      "duration": 0.1493,
      "velocity": 92,
      "chip": "ym2612"
    },
    {
      "channel": 0,
      "note": 64,
      "start": 15.7804,
      "duration": 0.0993,
      "velocity": 106,
      "chip": "ym2612"
    },
    {
      "channel": 2,
      "note": 59,
      "start": 15.7815,
      "duration": 0.0479,
      "velocity": 87,
      "chip": "ym2612"
    },
    {
      "channel": 3,
      "note": 64,
      "start": 15.7822,
      "duration": 0.0475,
      "velocity": 91,
      "chip": "ym2612"
    },
    {
      "channel": 0,
      "note": 67,
      "start": 15.8802,
      "duration": 0.1017,
      "velocity": 106,
      "chip": "ym2612"
    },
    {
      "channel": 1,
      "note": 76,
      "start": 15.881,
      "duration": 0.0481,
      "velocity": 92,
      "chip": "ym2612"
    },
    {
      "channel": 2,
      "note": 59,
      "start": 15.8817,
      "duration": 0.0476,
      "velocity": 87,
      "chip": "ym2612"
    },
    {
      "channel": 3,
      "note": 64,
      "start": 15.8824,
      "duration": 0.0473,
      "velocity": 91,
      "chip": "ym2612"
    },
    {
      "channel": 0,
      "note": 69,
      "start": 15.9825,
      "duration": 0.0961,
      "velocity": 106,
      "chip": "ym2612"
    },
    {
      "channel": 1,
      "note": 76,
      "start": 15.9835,
      "duration": 0.0955,
      "velocity": 92,
      "chip": "ym2612"
    },
    {
      "channel": 2,
      "note": 60,
      "start": 15.9844,
      "duration": 0.0949,
      "velocity": 87,
      "chip": "ym2612"
    },
    {
      "channel": 3,
      "note": 65,
      "start": 15.9853,
      "duration": 0.0943,
      "velocity": 91,
      "chip": "ym2612"
    },
    {
      "channel": 5,
      "note": 32,
      "start": 15.9862,
      "duration": 0.1262,
      "velocity": 114,
      "chip": "ym2612"
    },
    {
      "channel": 0,
      "note": 69,
      "start": 16.1802,
      "duration": 0.0994,
      "velocity": 106,
      "chip": "ym2612"
    },
    {
      "channel": 1,
      "note": 71,
      "start": 16.181,
      "duration": 0.0989,
      "velocity": 92,
      "chip": "ym2612"
    },
    {
      "channel": 2,
      "note": 60,
      "start": 16.1817,
      "duration": 0.0476,
      "velocity": 87,
      "chip": "ym2612"
    },
    {
      "channel": 3,
      "note": 65,
      "start": 16.1824,
      "duration": 0.0473,
      "velocity": 91,
      "chip": "ym2612"
    },
    {
      "channel": 2,
      "note": 60,
      "start": 16.2808,
      "duration": 0.048,
      "velocity": 87,
      "chip": "ym2612"
    },
    {
      "channel": 3,
      "note": 65,
      "start": 16.2815,
      "duration": 0.0476,
      "velocity": 91,
      "chip": "ym2612"
    },
    {
      "channel": 0,
      "note": 69,
      "start": 16.3823,
      "duration": 0.0964,
      "velocity": 106,
      "chip": "ym2612"
    },
    {
      "channel": 1,
      "note": 74,
      "start": 16.383,
      "duration": 0.0964,
      "velocity": 92,
      "chip": "ym2612"
    },
    {
      "channel": 2,
      "note": 60,
      "start": 16.3837,
      "duration": 0.0965,
      "velocity": 87,
      "chip": "ym2612"
    },
    {
      "channel": 3,
      "note": 65,
      "start": 16.3844,
      "duration": 0.0961,
      "velocity": 91,
      "chip": "ym2612"
    },
    {
      "channel": 5,
      "note": 75,
      "start": 16.3851,
      "duration": 0.2975,
      "velocity": 120,
      "chip": "ym2612"
    },
    {
      "channel": 0,
      "note": 67,
      "start": 16.4793,
      "duration": 0.1003,
      "velocity": 106,
      "chip": "ym2612"
    },
    {
      "channel": 1,
      "note": 76,
      "start": 16.48,
      "duration": 0.1487,
      "velocity": 92,
      "chip": "ym2612"
    },
    {
      "channel": 2,
      "note": 60,
      "start": 16.5808,
      "duration": 0.0482,
      "velocity": 87,
      "chip": "ym2612"
    },
    {
      "channel": 3,
      "note": 65,
      "start": 16.5815,
      "duration": 0.0478,
      "velocity": 91,
      "chip": "ym2612"
    },
    {
      "channel": 0,
      "note": 69,
      "start": 16.6802,
      "duration": 0.7994,
      "velocity": 106,
      "chip": "ym2612"
    },
    {
      "channel": 1,
      "note": 76,
      "start": 16.681,
      "duration": 0.048,
      "velocity": 92,
      "chip": "ym2612"
    },
    {
      "channel": 2,
      "note": 60,
      "start": 16.6817,
      "duration": 0.0476,
      "velocity": 87,
      "chip": "ym2612"
    },
    {
      "channel": 3,
      "note": 65,
      "start": 16.6824,
      "duration": 0.0472,
      "velocity": 91,
      "chip": "ym2612"
    },
    {
      "channel": 1,
      "note": 76,
      "start": 16.7825,
      "duration": 0.0966,
      "velocity": 92,
      "chip": "ym2612"
    },
    {
      "channel": 2,
      "note": 60,
      "start": 16.7834,
      "duration": 0.0961,
      "velocity": 87,
      "chip": "ym2612"
    },
    {
      "channel": 3,
      "note": 65,
      "start": 16.7844,
      "duration": 0.0954,
      "velocity": 91,
      "chip": "ym2612"
    },
    {
      "channel": 5,
      "note": 32,
      "start": 16.7852,
      "duration": 0.1275,
      "velocity": 114,
      "chip": "ym2612"
    },
    {
      "channel": 1,
      "note": 71,
      "start": 16.9806,
      "duration": 0.0994,
      "velocity": 92,
      "chip": "ym2612"
    },
    {
      "channel": 2,
      "note": 60,
      "start": 16.9814,
      "duration": 0.048,
      "velocity": 87,
      "chip": "ym2612"
    },
    {
      "channel": 3,
      "note": 65,
      "start": 16.9821,
      "duration": 0.0476,
      "velocity": 91,
      "chip": "ym2612"
    },
    {
      "channel": 2,
      "note": 60,
      "start": 17.081,
      "duration": 0.0483,
      "velocity": 87,
      "chip": "ym2612"
    },
    {
      "channel": 3,
      "note": 65,
      "start": 17.0816,
      "duration": 0.0479,
      "velocity": 91,
      "chip": "ym2612"
    },
    {
      "channel": 1,
      "note": 74,
      "start": 17.1826,
      "duration": 0.0966,
      "velocity": 92,
      "chip": "ym2612"
    },
    {
      "channel": 2,
      "note": 60,
      "start": 17.1834,
      "duration": 0.0965,
      "velocity": 87,
      "chip": "ym2612"
    },
    {
      "channel": 3,
      "note": 65,
      "start": 17.1841,
      "duration": 0.0961,
      "velocity": 91,
      "chip": "ym2612"
    },
    {
      "channel": 5,
      "note": 75,
      "start": 17.1848,
      "duration": 0.2973,
      "velocity": 120,
      "chip": "ym2612"
    },
    {
      "channel": 1,
      "note": 76,
      "start": 17.2797,
      "duration": 0.1494,
      "velocity": 92,
      "chip": "ym2612"
    },
    {
      "channel": 2,
      "note": 60,
      "start": 17.381,
      "duration": 0.0485,
      "velocity": 87,
      "chip": "ym2612"
    },
    {
      "channel": 3,
      "note": 65,
      "start": 17.3817,
      "duration": 0.048,
      "velocity": 91,
      "chip": "ym2612"
    },
    {
      "channel": 1,
      "note": 76,
      "start": 17.4805,
      "duration": 0.0482,
      "velocity": 92,
      "chip": "ym2612"
    },
    {
      "channel": 2,
      "note": 60,
      "start": 17.4812,
      "duration": 0.0478,
      "velocity": 87,
      "chip": "ym2612"
    },
    {
      "channel": 3,
      "note": 65,
      "start": 17.4819,
      "duration": 0.0474,
      "velocity": 91,
      "chip": "ym2612"
    },
    {
      "channel": 0,
      "note": 72,
      "start": 17.5826,
      "duration": 0.297,
      "velocity": 106,
      "chip": "ym2612"
    },
    {
      "channel": 1,
      "note": 67,
      "start": 17.5863,
      "duration": 0.2941,
      "velocity": 106,
      "chip": "ym2612"
    },
    {
      "channel": 2,
      "note": 60,
      "start": 17.5872,
      "duration": 0.0922,
      "velocity": 87,
      "chip": "ym2612"
    },
    {
      "channel": 3,
      "note": 65,
      "start": 17.5881,
      "duration": 0.0916,
      "velocity": 91,
      "chip": "ym2612"
    },
    {
      "channel": 5,
      "note": 32,
      "start": 17.589,
      "duration": 0.124,
      "velocity": 114,
      "chip": "ym2612"
    },
    {
      "channel": 2,
      "note": 60,
      "start": 17.781,
      "duration": 0.0484,
      "velocity": 87,
      "chip": "ym2612"
    },
    {
      "channel": 3,
      "note": 65,
      "start": 17.7817,
      "duration": 0.048,
      "velocity": 91,
      "chip": "ym2612"
    },
    {
      "channel": 0,
      "note": 73,
      "start": 17.8802,
      "duration": 0.2994,
      "velocity": 106,
      "chip": "ym2612"
    },
    {
      "channel": 1,
      "note": 68,
      "start": 17.881,
      "duration": 0.2994,
      "velocity": 106,
      "chip": "ym2612"
    },
    {
      "channel": 2,
      "note": 60,
      "start": 17.8817,
      "duration": 0.0476,
      "velocity": 87,
      "chip": "ym2612"
    },
    {
      "channel": 3,
      "note": 65,
      "start": 17.8824,
      "duration": 0.0473,
      "velocity": 91,
      "chip": "ym2612"
    },
    {
      "channel": 2,
      "note": 60,
      "start": 17.9829,
      "duration": 0.0966,
      "velocity": 87,
      "chip": "ym2612"
    },
    {
      "channel": 3,
      "note": 65,
      "start": 17.9836,
      "duration": 0.0962,
      "velocity": 91,
      "chip": "ym2612"
    },
    {
      "channel": 5,
      "note": 75,
      "start": 17.9843,
      "duration": 0.2975,
      "velocity": 120,
      "chip": "ym2612"
    },
    {
      "channel": 0,
      "note": 74,
      "start": 18.1803,
      "duration": 0.1484,
      "velocity": 106,
      "chip": "ym2612"
    },
    {
      "channel": 1,
      "note": 69,
      "start": 18.181,
      "duration": 0.148,
      "velocity": 106,
      "chip": "ym2612"
    },
    {
      "channel": 2,
      "note": 60,
      "start": 18.1817,
      "duration": 0.0476,
      "velocity": 87,
      "chip": "ym2612"
    },
    {
      "channel": 3,
      "note": 65,
      "start": 18.1825,
      "duration": 0.0472,
      "velocity": 91,
      "chip": "ym2612"
    },
    {
      "channel": 2,
      "note": 60,
      "start": 18.2808,
      "duration": 0.0485,
      "velocity": 87,
      "chip": "ym2612"
    },
    {
      "channel": 3,
      "note": 65,
      "start": 18.2816,
      "duration": 0.048,
      "velocity": 91,
      "chip": "ym2612"
    },
    {
      "channel": 0,
      "note": 75,
      "start": 18.3823,
      "duration": 0.2973,
      "velocity": 106,
      "chip": "ym2612"
    },
    {
      "channel": 1,
      "note": 70,
      "start": 18.383,
      "duration": 0.2974,
      "velocity": 106,
      "chip": "ym2612"
    },
    {
      "channel": 2,
      "note": 60,
      "start": 18.3839,
      "duration": 0.0955,
      "velocity": 87,
      "chip": "ym2612"
    },
    {
      "channel": 3,
      "note": 65,
      "start": 18.3848,
      "duration": 0.0948,
      "velocity": 91,
      "chip": "ym2612"
    },
    {
      "channel": 5,
      "note": 32,
      "start": 18.3856,
      "duration": 0.1272,
      "velocity": 114,
      "chip": "ym2612"
    },
    {
      "channel": 2,
      "note": 60,
      "start": 18.581,
      "duration": 0.0485,
      "velocity": 87,
      "chip": "ym2612"
    },
    {
      "channel": 3,
      "note": 65,
      "start": 18.5817,
      "duration": 0.0481,
      "velocity": 91,
      "chip": "ym2612"
    },
    {
      "channel": 0,
      "note": 76,
      "start": 18.6802,
      "duration": 0.2994,
      "velocity": 106,
      "chip": "ym2612"
    },
    {
      "channel": 1,
      "note": 71,
      "start": 18.681,
      "duration": 0.2995,
      "velocity": 106,
      "chip": "ym2612"
    },
    {
      "channel": 2,
      "note": 60,
      "start": 18.6817,
      "duration": 0.0476,
      "velocity": 87,
      "chip": "ym2612"
    },
    {
      "channel": 3,
      "note": 65,
      "start": 18.6824,
      "duration": 0.0473,
      "velocity": 91,
      "chip": "ym2612"
    },
    {
      "channel": 2,
      "note": 60,
      "start": 18.7829,
      "duration": 0.0966,
      "velocity": 87,
      "chip": "ym2612"
    },
    {
      "channel": 3,
      "note": 65,
      "start": 18.7836,
      "duration": 0.0962,
      "velocity": 91,
      "chip": "ym2612"
    },
    {
      "channel": 5,
      "note": 75,
      "start": 18.7843,
      "duration": 0.2975,
      "velocity": 120,
      "chip": "ym2612"
    },
    {
      "channel": 0,
      "note": 77,
      "start": 18.9802,
      "duration": 0.1484,
      "velocity": 106,
      "chip": "ym2612"
    },
    {
      "channel": 1,
      "note": 72,
      "start": 18.981,
      "duration": 0.148,
      "velocity": 106,
      "chip": "ym2612"
    },
    {
      "channel": 2,
      "note": 60,
      "start": 18.9817,
      "duration": 0.0476,
      "velocity": 87,
      "chip": "ym2612"
    },
    {
      "channel": 3,
      "note": 65,
      "start": 18.9825,
      "duration": 0.0472,
      "velocity": 91,
      "chip": "ym2612"
    },
    {
      "channel": 2,
      "note": 60,
      "start": 19.0809,
      "duration": 0.0484,
      "velocity": 87,
      "chip": "ym2612"
    },
    {
      "channel": 3,
      "note": 65,
      "start": 19.0816,
      "duration": 0.048,
      "velocity": 91,
      "chip": "ym2612"
    },
    {
      "channel": 0,
      "note": 64,
      "start": 19.1827,
      "duration": 0.3459,
      "velocity": 106,
      "chip": "ym2612"
    },
    {
      "channel": 1,
      "note": 76,
      "start": 19.1867,
      "duration": 0.0923,
      "velocity": 92,
      "chip": "ym2612"
    },
    {
      "channel": 2,
      "note": 59,
      "start": 19.1877,
      "duration": 0.0916,
      "velocity": 87,
      "chip": "ym2612"
    },
    {
      "channel": 3,
      "note": 64,
      "start": 19.1886,
      "duration": 0.091,
      "velocity": 91,
      "chip": "ym2612"
    },
    {
      "channel": 5,
      "note": 32,
      "start": 19.1895,
      "duration": 0.1231,
      "velocity": 114,
      "chip": "ym2612"
    },
    {
      "channel": 1,
      "note": 71,
      "start": 19.3807,
      "duration": 0.0994,
      "velocity": 92,
      "chip": "ym2612"
    },
    {
      "channel": 2,
      "note": 59,
      "start": 19.3814,
      "duration": 0.048,
      "velocity": 87,
      "chip": "ym2612"
    },
    {
      "channel": 3,
      "note": 64,
      "start": 19.3821,
      "duration": 0.0476,
      "velocity": 91,
      "chip": "ym2612"
    },
    {
      "channel": 2,
      "note": 59,
      "start": 19.481,
      "duration": 0.0481,
      "velocity": 87,
      "chip": "ym2612"
    },
    {
      "channel": 3,
      "note": 64,
      "start": 19.4816,
      "duration": 0.0478,
      "velocity": 91,
      "chip": "ym2612"
    },
    {
      "channel": 0,
      "note": 64,
      "start": 19.5822,
      "duration": 0.2974,
      "velocity": 106,
      "chip": "ym2612"
    },
    {
      "channel": 1,
      "note": 74,
      "start": 19.583,
      "duration": 0.096,
      "velocity": 92,
      "chip": "ym2612"
    },
    {
      "channel": 2,
      "note": 59,
      "start": 19.5837,
      "duration": 0.0961,
      "velocity": 87,
      "chip": "ym2612"
    },
    {
      "channel": 3,
      "note": 64,
      "start": 19.5844,
      "duration": 0.0957,
      "velocity": 91,
      "chip": "ym2612"
    },
    {
      "channel": 5,
      "note": 75,
      "start": 19.5851,
      "duration": 0.2974,
      "velocity": 120,
      "chip": "ym2612"
    },
    {
      "channel": 1,
      "note": 76,
      "start": 19.6796,
      "duration": 0.1495,
      "velocity": 92,
      "chip": "ym2612"
    },
    {
      "channel": 2,
      "note": 59,
      "start": 19.781,
      "duration": 0.0484,
      "velocity": 87,
      "chip": "ym2612"
    },
    {
      "channel": 3,
      "note": 64,
      "start": 19.7817,
      "duration": 0.048,
      "velocity": 91,
      "chip": "ym2612"
    },
    {
      "channel": 0,
      "note": 62,
      "start": 19.8802,
      "duration": 0.1013,
      "velocity": 106,
      "chip": "ym2612"
    },
    {
      "channel": 1,
      "note": 76,
      "start": 19.881,
      "duration": 0.048,
      "velocity": 92,
      "chip": "ym2612"
    },
    {
      "channel": 2,
      "note": 59,
      "start": 19.8817,
      "duration": 0.0476,
      "velocity": 87,
      "chip": "ym2612"
    },
    {
      "channel": 3,
      "note": 64,
      "start": 19.8824,
      "duration": 0.0472,
      "velocity": 91,
      "chip": "ym2612"
    },
    {
      "channel": 0,
      "note": 64,
      "start": 19.9822,
      "duration": 0.0964,
      "velocity": 106,
      "chip": "ym2612"
    },
    {
      "channel": 1,
      "note": 76,
      "start": 19.983,
      "duration": 0.096,
      "velocity": 92,
      "chip": "ym2612"
    },
    {
      "channel": 2,
      "note": 59,
      "start": 19.9839,
      "duration": 0.0954,
      "velocity": 87,
      "chip": "ym2612"
    },
    {
      "channel": 3,
      "note": 64,
      "start": 19.9848,
      "duration": 0.0948,
      "velocity": 91,
      "chip": "ym2612"
    },
    {
      "channel": 5,
      "note": 32,
      "start": 19.9856,
      "duration": 0.1267,
      "velocity": 114,
      "chip": "ym2612"
    },
    {
      "channel": 0,
      "note": 67,
      "start": 20.1802,
      "duration": 0.3994,
      "velocity": 106,
      "chip": "ym2612"
    },
    {
      "channel": 1,
      "note": 71,
      "start": 20.181,
      "duration": 0.0989,
      "velocity": 92,
      "chip": "ym2612"
    },
    {
      "channel": 2,
      "note": 59,
      "start": 20.1817,
      "duration": 0.0476,
      "velocity": 87,
      "chip": "ym2612"
    },
    {
      "channel": 3,
      "note": 64,
      "start": 20.1824,
      "duration": 0.0473,
      "velocity": 91,
      "chip": "ym2612"
    },
    {
      "channel": 2,
      "note": 59,
      "start": 20.2808,
      "duration": 0.0483,
      "velocity": 87,
      "chip": "ym2612"
    },
    {
      "channel": 3,
      "note": 64,
      "start": 20.2815,
      "duration": 0.0479,
      "velocity": 91,
      "chip": "ym2612"
    },
    {
      "channel": 1,
      "note": 74,
      "start": 20.3827,
      "duration": 0.0964,
      "velocity": 92,
      "chip": "ym2612"
    },
    {
      "channel": 2,
      "note": 59,
      "start": 20.3834,
      "duration": 0.0964,
      "velocity": 87,
      "chip": "ym2612"
    },
    {
      "channel": 3,
      "note": 64,
      "start": 20.3841,
      "duration": 0.0961,
      "velocity": 91,
      "chip": "ym2612"
    },
    {
      "channel": 5,
      "note": 75,
      "start": 20.3848,
      "duration": 0.2978,
      "velocity": 120,
      "chip": "ym2612"
    },
    {
      "channel": 1,
      "note": 76,
      "start": 20.4797,
      "duration": 0.1493,
      "velocity": 92,
      "chip": "ym2612"
    },
    {
      "channel": 0,
      "note": 59,
      "start": 20.5804,
      "duration": 0.0993,
      "velocity": 106,
      "chip": "ym2612"
    },
    {
      "channel": 2,
      "note": 59,
      "start": 20.5815,
      "duration": 0.0479,
      "velocity": 87,
      "chip": "ym2612"
    },
    {
      "channel": 3,
      "note": 64,
      "start": 20.5822,
      "duration": 0.0475,
      "velocity": 91,
      "chip": "ym2612"
    },
    {
      "channel": 0,
      "note": 62,
      "start": 20.6802,
      "duration": 0.1018,
      "velocity": 106,
      "chip": "ym2612"
    },
    {
      "channel": 1,
      "note": 76,
      "start": 20.681,
      "duration": 0.0481,
      "velocity": 92,
      "chip": "ym2612"
    },
    {
      "channel": 2,
      "note": 59,
      "start": 20.6817,
      "duration": 0.0476,
      "velocity": 87,
      "chip": "ym2612"
    },
    {
      "channel": 3,
      "note": 64,
      "start": 20.6824,
      "duration": 0.0473,
      "velocity": 91,
      "chip": "ym2612"
    },
    {
      "channel": 0,
      "note": 64,
      "start": 20.7827,
      "duration": 0.346,
      "velocity": 106,
      "chip": "ym2612"
    },
    {
      "channel": 1,
      "note": 76,
      "start": 20.7836,
      "duration": 0.0954,
      "velocity": 92,
      "chip": "ym2612"
    },
    {
      "channel": 2,
      "note": 59,
      "start": 20.7845,
      "duration": 0.0948,
      "velocity": 87,
      "chip": "ym2612"
    },
    {
      "channel": 3,
      "note": 64,
      "start": 20.7854,
      "duration": 0.0942,
      "velocity": 91,
      "chip": "ym2612"
    },
    {
      "channel": 5,
      "note": 32,
      "start": 20.7863,
      "duration": 0.1263,
      "velocity": 114,
      "chip": "ym2612"
    },
    {
      "channel": 1,
      "note": 71,
      "start": 20.9807,
      "duration": 0.0994,
      "velocity": 92,
      "chip": "ym2612"
    },
    {
      "channel": 2,
      "note": 59,
      "start": 20.9814,
      "duration": 0.0481,
      "velocity": 87,
      "chip": "ym2612"
    },
    {
      "channel": 3,
      "note": 64,
      "start": 20.9821,
      "duration": 0.0477,
      "velocity": 91,
      "chip": "ym2612"
    },
    {
      "channel": 2,
      "note": 59,
      "start": 21.081,
      "duration": 0.0481,
      "velocity": 87,
      "chip": "ym2612"
    },
    {
      "channel": 3,
      "note": 64,
      "start": 21.0816,
      "duration": 0.0477,
      "velocity": 91,
      "chip": "ym2612"
    },
    {
      "channel": 0,
      "note": 64,
      "start": 21.1822,
      "duration": 0.2974,
      "velocity": 106,
      "chip": "ym2612"
    },
    {
      "channel": 1,
      "note": 74,
      "start": 21.183,
      "duration": 0.096,
      "velocity": 92,
      "chip": "ym2612"
    },
    {
      "channel": 2,
      "note": 59,
      "start": 21.1837,
      "duration": 0.0961,
      "velocity": 87,
      "chip": "ym2612"
    },
    {
      "channel": 3,
      "note": 64,
      "start": 21.1844,
      "duration": 0.0957,
      "velocity": 91,
      "chip": "ym2612"
    },
    {
      "channel": 5,
      "note": 75,
      "start": 21.1851,
      "duration": 0.2975,
      "velocity": 120,
      "chip": "ym2612"
    },
    {
      "channel": 1,
      "note": 76,
      "start": 21.2795,
      "duration": 0.1495,
      "velocity": 92,
      "chip": "ym2612"
    },
    {
      "channel": 2,
      "note": 59,
      "start": 21.381,
      "duration": 0.0484,
      "velocity": 87,
      "chip": "ym2612"
    },
    {
      "channel": 3,
      "note": 64,
      "start": 21.3817,
      "duration": 0.048,
      "velocity": 91,
      "chip": "ym2612"
    },
    {
      "channel": 0,
      "note": 62,
      "start": 21.4802,
      "duration": 0.1013,
      "velocity": 106,
      "chip": "ym2612"
    },
    {
      "channel": 1,
      "note": 76,
      "start": 21.481,
      "duration": 0.048,
      "velocity": 92,
      "chip": "ym2612"
    },
    {
      "channel": 2,
      "note": 59,
      "start": 21.4817,
      "duration": 0.0476,
      "velocity": 87,
      "chip": "ym2612"
    },
    {
      "channel": 3,
      "note": 64,
      "start": 21.4824,
      "duration": 0.0472,
      "velocity": 91,
      "chip": "ym2612"
    },
    {
      "channel": 0,
      "note": 64,
      "start": 21.5822,
      "duration": 0.0964,
      "velocity": 106,
      "chip": "ym2612"
    },
    {
      "channel": 1,
      "note": 76,
      "start": 21.583,
      "duration": 0.096,
      "velocity": 92,
      "chip": "ym2612"
    },
    {
      "channel": 2,
      "note": 59,
      "start": 21.5839,
      "duration": 0.0954,
      "velocity": 87,
      "chip": "ym2612"
    },
    {
      "channel": 3,
      "note": 64,
      "start": 21.5848,
      "duration": 0.0948,
      "velocity": 91,
      "chip": "ym2612"
    },
    {
      "channel": 5,
      "note": 32,
      "start": 21.5856,
      "duration": 0.1267,
      "velocity": 114,
      "chip": "ym2612"
    },
    {
      "channel": 0,
      "note": 67,
      "start": 21.7802,
      "duration": 0.3994,
      "velocity": 106,
      "chip": "ym2612"
    },
    {
      "channel": 1,
      "note": 71,
      "start": 21.781,
      "duration": 0.0989,
      "velocity": 92,
      "chip": "ym2612"
    },
    {
      "channel": 2,
      "note": 59,
      "start": 21.7817,
      "duration": 0.0476,
      "velocity": 87,
      "chip": "ym2612"
    },
    {
      "channel": 3,
      "note": 64,
      "start": 21.7824,
      "duration": 0.0473,
      "velocity": 91,
      "chip": "ym2612"
    },
    {
      "channel": 2,
      "note": 59,
      "start": 21.8808,
      "duration": 0.0483,
      "velocity": 87,
      "chip": "ym2612"
    },
    {
      "channel": 3,
      "note": 64,
      "start": 21.8815,
      "duration": 0.0479,
      "velocity": 91,
      "chip": "ym2612"
    },
    {
      "channel": 1,
      "note": 74,
      "start": 21.9827,
      "duration": 0.0964,
      "velocity": 92,
      "chip": "ym2612"
    },
    {
      "channel": 2,
      "note": 59,
      "start": 21.9834,
      "duration": 0.0965,
      "velocity": 87,
      "chip": "ym2612"
    },
    {
      "channel": 3,
      "note": 64,
      "start": 21.9841,
      "duration": 0.0961,
      "velocity": 91,
      "chip": "ym2612"
    },
    {
      "channel": 5,
      "note": 75,
      "start": 21.9848,
      "duration": 0.2978,
      "velocity": 120,
      "chip": "ym2612"
    },
    {
      "channel": 1,
      "note": 76,
      "start": 22.0797,
      "duration": 0.1494,
      "velocity": 92,
      "chip": "ym2612"
    },
    {
      "channel": 0,
      "note": 64,
      "start": 22.1804,
      "duration": 0.0993,
      "velocity": 106,
      "chip": "ym2612"
    },
    {
      "channel": 2,
      "note": 59,
      "start": 22.1814,
      "duration": 0.048,
      "velocity": 87,
      "chip": "ym2612"
    },
    {
      "channel": 3,
      "note": 64,
      "start": 22.1821,
      "duration": 0.0476,
      "velocity": 91,
      "chip": "ym2612"
    },
    {
      "channel": 0,
      "note": 67,
      "start": 22.2802,
      "duration": 0.1017,
      "velocity": 106,
      "chip": "ym2612"
    },
    {
      "channel": 1,
      "note": 76,
      "start": 22.281,
      "duration": 0.048,
      "velocity": 92,
      "chip": "ym2612"
    },
    {
      "channel": 2,
      "note": 59,
      "start": 22.2817,
      "duration": 0.0476,
      "velocity": 87,
      "chip": "ym2612"
    },
    {
      "channel": 3,
      "note": 64,
      "start": 22.2824,
      "duration": 0.0472,
      "velocity": 91,
      "chip": "ym2612"
    },
    {
      "channel": 0,
      "note": 69,
      "start": 22.3825,
      "duration": 0.0961,
      "velocity": 106,
      "chip": "ym2612"
    },
    {
      "channel": 1,
      "note": 76,
      "start": 22.3835,
      "duration": 0.0955,
      "velocity": 92,
      "chip": "ym2612"
    },
    {
      "channel": 2,
      "note": 60,
      "start": 22.3844,
      "duration": 0.0949,
      "velocity": 87,
      "chip": "ym2612"
    },
    {
      "channel": 3,
      "note": 65,
      "start": 22.3853,
      "duration": 0.0943,
      "velocity": 91,
      "chip": "ym2612"
    },
    {
      "channel": 5,
      "note": 32,
      "start": 22.3862,
      "duration": 0.1262,
      "velocity": 114,
      "chip": "ym2612"
    },
    {
      "channel": 0,
      "note": 69,
      "start": 22.5802,
      "duration": 0.0994,
      "velocity": 106,
      "chip": "ym2612"
    },
    {
      "channel": 1,
      "note": 71,
      "start": 22.581,
      "duration": 0.0989,
      "velocity": 92,
      "chip": "ym2612"
    },
    {
      "channel": 2,
      "note": 60,
      "start": 22.5817,
      "duration": 0.0476,
      "velocity": 87,
      "chip": "ym2612"
    },
    {
      "channel": 3,
      "note": 65,
      "start": 22.5824,
      "duration": 0.0473,
      "velocity": 91,
      "chip": "ym2612"
    },
    {
      "channel": 2,
      "note": 60,
      "start": 22.6808,
      "duration": 0.048,
      "velocity": 87,
      "chip": "ym2612"
    },
    {
      "channel": 3,
      "note": 65,
      "start": 22.6815,
      "duration": 0.0476,
      "velocity": 91,
      "chip": "ym2612"
    },
    {
      "channel": 0,
      "note": 69,
      "start": 22.7823,
      "duration": 0.0964,
      "velocity": 106,
      "chip": "ym2612"
    },
    {
      "channel": 1,
      "note": 74,
      "start": 22.783,
      "duration": 0.0964,
      "velocity": 92,
      "chip": "ym2612"
    },
    {
      "channel": 2,
      "note": 60,
      "start": 22.7837,
      "duration": 0.0965,
      "velocity": 87,
      "chip": "ym2612"
    },
    {
      "channel": 3,
      "note": 65,
      "start": 22.7844,
      "duration": 0.0961,
      "velocity": 91,
      "chip": "ym2612"
    },
    {
      "channel": 5,
      "note": 75,
      "start": 22.7851,
      "duration": 0.2975,
      "velocity": 120,
      "chip": "ym2612"
    },
    {
      "channel": 0,
      "note": 67,
      "start": 22.8793,
      "duration": 0.1003,
      "velocity": 106,
      "chip": "ym2612"
    },
    {
      "channel": 1,
      "note": 76,
      "start": 22.88,
      "duration": 0.1487,
      "velocity": 92,
      "chip": "ym2612"
    },
    {
      "channel": 2,
      "note": 60,
      "start": 22.9809,
      "duration": 0.0481,
      "velocity": 87,
      "chip": "ym2612"
    },
    {
      "channel": 3,
      "note": 65,
      "start": 22.9816,
      "duration": 0.0478,
      "velocity": 91,
      "chip": "ym2612"
    },
    {
      "channel": 0,
      "note": 69,
      "start": 23.0802,
      "duration": 0.7994,
      "velocity": 106,
      "chip": "ym2612"
    },
    {
      "channel": 1,
      "note": 76,
      "start": 23.081,
      "duration": 0.048,
      "velocity": 92,
      "chip": "ym2612"
    },
    {
      "channel": 2,
      "note": 60,
      "start": 23.0817,
      "duration": 0.0476,
      "velocity": 87,
      "chip": "ym2612"
    },
    {
      "channel": 3,
      "note": 65,
      "start": 23.0824,
      "duration": 0.0473,
      "velocity": 91,
      "chip": "ym2612"
    },
    {
      "channel": 1,
      "note": 76,
      "start": 23.1825,
      "duration": 0.0966,
      "velocity": 92,
      "chip": "ym2612"
    },
    {
      "channel": 2,
      "note": 60,
      "start": 23.1834,
      "duration": 0.0961,
      "velocity": 87,
      "chip": "ym2612"
    },
    {
      "channel": 3,
      "note": 65,
      "start": 23.1844,
      "duration": 0.0954,
      "velocity": 91,
      "chip": "ym2612"
    },
    {
      "channel": 5,
      "note": 32,
      "start": 23.1852,
      "duration": 0.1275,
      "velocity": 114,
      "chip": "ym2612"
    },
    {
      "channel": 1,
      "note": 71,
      "start": 23.3806,
      "duration": 0.0994,
      "velocity": 92,
      "chip": "ym2612"
    },
    {
      "channel": 2,
      "note": 60,
      "start": 23.3813,
      "duration": 0.0482,
      "velocity": 87,
      "chip": "ym2612"
    },
    {
      "channel": 3,
      "note": 65,
      "start": 23.3821,
      "duration": 0.0477,
      "velocity": 91,
      "chip": "ym2612"
    },
    {
      "channel": 2,
      "note": 60,
      "start": 23.481,
      "duration": 0.0482,
      "velocity": 87,
      "chip": "ym2612"
    },
    {
      "channel": 3,
      "note": 65,
      "start": 23.4816,
      "duration": 0.0478,
      "velocity": 91,
      "chip": "ym2612"
    },
    {
      "channel": 1,
      "note": 74,
      "start": 23.5826,
      "duration": 0.0966,
      "velocity": 92,
      "chip": "ym2612"
    },
    {
      "channel": 2,
      "note": 60,
      "start": 23.5834,
      "duration": 0.0965,
      "velocity": 87,
      "chip": "ym2612"
    },
    {
      "channel": 3,
      "note": 65,
      "start": 23.5841,
      "duration": 0.0961,
      "velocity": 91,
      "chip": "ym2612"
    },
    {
      "channel": 5,
      "note": 75,
      "start": 23.5848,
      "duration": 0.2973,
      "velocity": 120,
      "chip": "ym2612"
    },
    {
      "channel": 1,
      "note": 76,
      "start": 23.6797,
      "duration": 0.1494,
      "velocity": 92,
      "chip": "ym2612"
    },
    {
      "channel": 2,
      "note": 60,
      "start": 23.781,
      "duration": 0.0485,
      "velocity": 87,
      "chip": "ym2612"
    },
    {
      "channel": 3,
      "note": 65,
      "start": 23.7817,
      "duration": 0.048,
      "velocity": 91,
      "chip": "ym2612"
    },
    {
      "channel": 1,
      "note": 76,
      "start": 23.8805,
      "duration": 0.0482,
      "velocity": 92,
      "chip": "ym2612"
    },
    {
      "channel": 2,
      "note": 60,
      "start": 23.8812,
      "duration": 0.0478,
      "velocity": 87,
      "chip": "ym2612"
    },
    {
      "channel": 3,
      "note": 65,
      "start": 23.8819,
      "duration": 0.0474,
      "velocity": 91,
      "chip": "ym2612"
    },
    {
      "channel": 0,
      "note": 72,
      "start": 23.9826,
      "duration": 0.297,
      "velocity": 106,
      "chip": "ym2612"
    },
    {
      "channel": 1,
      "note": 67,
      "start": 23.9863,
      "duration": 0.2941,
      "velocity": 106,
      "chip": "ym2612"
    },
    {
      "channel": 2,
      "note": 60,
      "start": 23.9872,
      "duration": 0.0922,
      "velocity": 87,
      "chip": "ym2612"
    },
    {
      "channel": 3,
      "note": 65,
      "start": 23.9881,
      "duration": 0.0916,
      "velocity": 91,
      "chip": "ym2612"
    },
    {
      "channel": 5,
      "note": 32,
      "start": 23.989,
      "duration": 0.1239,
      "velocity": 114,
      "chip": "ym2612"
    },
    {
      "channel": 2,
      "note": 60,
      "start": 24.181,
      "duration": 0.0484,
      "velocity": 87,
      "chip": "ym2612"
    },
    {
      "channel": 3,
      "note": 65,
      "start": 24.1817,
      "duration": 0.048,
      "velocity": 91,
      "chip": "ym2612"
    },
    {
      "channel": 0,
      "note": 73,
      "start": 24.2802,
      "duration": 0.2994,
      "velocity": 106,
      "chip": "ym2612"
    },
    {
      "channel": 1,
      "note": 68,
      "start": 24.281,
      "duration": 0.2995,
      "velocity": 106,
      "chip": "ym2612"
    },
    {
      "channel": 2,
      "note": 60,
      "start": 24.2816,
      "duration": 0.0477,
      "velocity": 87,
      "chip": "ym2612"
    },
    {
      "channel": 3,
      "note": 65,
      "start": 24.2823,
      "duration": 0.0473,
      "velocity": 91,
      "chip": "ym2612"
    },
    {
      "channel": 2,
      "note": 60,
      "start": 24.3829,
      "duration": 0.0966,
      "velocity": 87,
      "chip": "ym2612"
    },
    {
      "channel": 3,
      "note": 65,
      "start": 24.3836,
      "duration": 0.0962,
      "velocity": 91,
      "chip": "ym2612"
    },
    {
      "channel": 5,
      "note": 75,
      "start": 24.3843,
      "duration": 0.2975,
      "velocity": 120,
      "chip": "ym2612"
    },
    {
      "channel": 0,
      "note": 74,
      "start": 24.5802,
      "duration": 0.1484,
      "velocity": 106,
      "chip": "ym2612"
    },
    {
      "channel": 1,
      "note": 69,
      "start": 24.581,
      "duration": 0.148,
      "velocity": 106,
      "chip": "ym2612"
    },
    {
      "channel": 2,
      "note": 60,
      "start": 24.5817,
      "duration": 0.0476,
      "velocity": 87,
      "chip": "ym2612"
    },
    {
      "channel": 3,
      "note": 65,
      "start": 24.5825,
      "duration": 0.0472,
      "velocity": 91,
      "chip": "ym2612"
    },
    {
      "channel": 2,
      "note": 60,
      "start": 24.6808,
      "duration": 0.0485,
      "velocity": 87,
      "chip": "ym2612"
    },
    {
      "channel": 3,
      "note": 65,
      "start": 24.6816,
      "duration": 0.048,
      "velocity": 91,
      "chip": "ym2612"
    },
    {
      "channel": 0,
      "note": 75,
      "start": 24.7823,
      "duration": 0.2973,
      "velocity": 106,
      "chip": "ym2612"
    },
    {
      "channel": 1,
      "note": 70,
      "start": 24.783,
      "duration": 0.2975,
      "velocity": 106,
      "chip": "ym2612"
    },
    {
      "channel": 2,
      "note": 60,
      "start": 24.7839,
      "duration": 0.0955,
      "velocity": 87,
      "chip": "ym2612"
    },
    {
      "channel": 3,
      "note": 65,
      "start": 24.7848,
      "duration": 0.0948,
      "velocity": 91,
      "chip": "ym2612"
    },
    {
      "channel": 5,
      "note": 32,
      "start": 24.7856,
      "duration": 0.1273,
      "velocity": 114,
      "chip": "ym2612"
    },
    {
      "channel": 2,
      "note": 60,
      "start": 24.981,
      "duration": 0.0484,
      "velocity": 87,
      "chip": "ym2612"
    },
    {
      "channel": 3,
      "note": 65,
      "start": 24.9817,
      "duration": 0.048,
      "velocity": 91,
      "chip": "ym2612"
    },
    {
      "channel": 0,
      "note": 76,
      "start": 25.0802,
      "duration": 0.2994,
      "velocity": 106,
      "chip": "ym2612"
    },
    {
      "channel": 1,
      "note": 71,
      "start": 25.081,
      "duration": 0.2994,
      "velocity": 106,
      "chip": "ym2612"
    },
    {
      "channel": 2,
      "note": 60,
      "start": 25.0817,
      "duration": 0.0476,
      "velocity": 87,
      "chip": "ym2612"
    },
    {
      "channel": 3,
      "note": 65,
      "start": 25.0824,
      "duration": 0.0473,
      "velocity": 91,
      "chip": "ym2612"
    },
    {
      "channel": 2,
      "note": 60,
      "start": 25.1829,
      "duration": 0.0966,
      "velocity": 87,
      "chip": "ym2612"
    },
    {
      "channel": 3,
      "note": 65,
      "start": 25.1836,
      "duration": 0.0962,
      "velocity": 91,
      "chip": "ym2612"
    },
    {
      "channel": 5,
      "note": 75,
      "start": 25.1843,
      "duration": 0.2975,
      "velocity": 120,
      "chip": "ym2612"
    },
    {
      "channel": 0,
      "note": 77,
      "start": 25.3803,
      "duration": 0.1484,
      "velocity": 106,
      "chip": "ym2612"
    },
    {
      "channel": 1,
      "note": 72,
      "start": 25.381,
      "duration": 0.148,
      "velocity": 106,
      "chip": "ym2612"
    },
    {
      "channel": 2,
      "note": 60,
      "start": 25.3817,
      "duration": 0.0476,
      "velocity": 87,
      "chip": "ym2612"
    },
    {
      "channel": 3,
      "note": 65,
      "start": 25.3825,
      "duration": 0.0472,
      "velocity": 91,
      "chip": "ym2612"
    },
    {
      "channel": 2,
      "note": 60,
      "start": 25.4808,
      "duration": 0.0485,
      "velocity": 87,
      "chip": "ym2612"
    },
    {
      "channel": 3,
      "note": 65,
      "start": 25.4816,
      "duration": 0.048,
      "velocity": 91,
      "chip": "ym2612"
    },
    {
      "channel": 0,
      "note": 88,
      "start": 25.5852,
      "duration": 0.1944,
      "velocity": 99,
      "chip": "ym2612"
    },
    {
      "channel": 1,
      "note": 69,
      "start": 25.5886,
      "duration": 1.5941,
      "velocity": 95,
      "chip": "ym2612"
    },
    {
      "channel": 2,
      "note": 52,
      "start": 25.5896,
      "duration": 0.0898,
      "velocity": 87,
      "chip": "ym2612"
    },
    {
      "channel": 3,
      "note": 57,
      "start": 25.5906,
      "duration": 0.089,
      "velocity": 91,
      "chip": "ym2612"
    },
    {
      "channel": 5,
      "note": 32,
      "start": 25.5914,
      "duration": 0.1215,
      "velocity": 114,
      "chip": "ym2612"
    },
    {
      "channel": 0,
      "note": 86,
      "start": 25.7802,
      "duration": 0.0994,
      "velocity": 99,
      "chip": "ym2612"
    },
    {
      "channel": 2,
      "note": 52,
      "start": 25.7813,
      "duration": 0.048,
      "velocity": 87,
      "chip": "ym2612"
    },
    {
      "channel": 3,
      "note": 57,
      "start": 25.782,
      "duration": 0.0476,
      "velocity": 91,
      "chip": "ym2612"
    },
    {
      "channel": 2,
      "note": 52,
      "start": 25.8808,
      "duration": 0.0482,
      "velocity": 87,
      "chip": "ym2612"
    },
    {
      "channel": 3,
      "note": 57,
      "start": 25.8815,
      "duration": 0.0478,
      "velocity": 91,
      "chip": "ym2612"
    },
    {
      "channel": 0,
      "note": 84,
      "start": 25.9823,
      "duration": 0.1973,
      "velocity": 99,
      "chip": "ym2612"
    },
    {
      "channel": 2,
      "note": 52,
      "start": 25.9833,
      "duration": 0.097,
      "velocity": 87,
      "chip": "ym2612"
    },
    {
      "channel": 3,
      "note": 57,
      "start": 25.9841,
      "duration": 0.0966,
      "velocity": 91,
      "chip": "ym2612"
    },
    {
      "channel": 5,
      "note": 75,
      "start": 25.9848,
      "duration": 0.2941,
      "velocity": 120,
      "chip": "ym2612"
    },
    {
      "channel": 0,
      "note": 83,
      "start": 26.1802,
      "duration": 0.1013,
      "velocity": 99,
      "chip": "ym2612"
    },
    {
      "channel": 2,
      "note": 52,
      "start": 26.1813,
      "duration": 0.048,
      "velocity": 87,
      "chip": "ym2612"
    },
    {
      "channel": 3,
      "note": 57,
      "start": 26.182,
      "duration": 0.0476,
      "velocity": 91,
      "chip": "ym2612"
    },
    {
      "channel": 2,
      "note": 52,
      "start": 26.2828,
      "duration": 0.0463,
      "velocity": 87,
      "chip": "ym2612"
    },
    {
      "channel": 3,
      "note": 57,
      "start": 26.2836,
      "duration": 0.0459,
      "velocity": 91,
      "chip": "ym2612"
    },
    {
      "channel": 5,
      "note": 32,
      "start": 26.2844,
      "duration": 0.1291,
      "velocity": 114,
      "chip": "ym2612"
    },
    {
      "channel": 0,
      "note": 84,
      "start": 26.3802,
      "duration": 0.1013,
      "velocity": 99,
      "chip": "ym2612"
    },
    {
      "channel": 2,
      "note": 57,
      "start": 26.3815,
      "duration": 0.1012,
      "velocity": 87,
      "chip": "ym2612"
    },
    {
      "channel": 3,
      "note": 62,
      "start": 26.3824,
      "duration": 0.1006,
      "velocity": 91,
      "chip": "ym2612"
    },
    {
      "channel": 0,
      "note": 83,
      "start": 26.4823,
      "duration": 0.0973,
      "velocity": 99,
      "chip": "ym2612"
    },
    {
      "channel": 5,
      "note": 32,
      "start": 26.4841,
      "duration": 0.1291,
      "velocity": 114,
      "chip": "ym2612"
    },
    {
      "channel": 2,
      "note": 57,
      "start": 26.5808,
      "duration": 0.0483,
      "velocity": 87,
      "chip": "ym2612"
    },
    {
      "channel": 3,
      "note": 62,
      "start": 26.5815,
      "duration": 0.0479,
      "velocity": 91,
      "chip": "ym2612"
    },
    {
      "channel": 0,
      "note": 81,
      "start": 26.6799,
      "duration": 0.502,
      "velocity": 99,
      "chip": "ym2612"
    },
    {
      "channel": 2,
      "note": 57,
      "start": 26.681,
      "duration": 0.0484,
      "velocity": 87,
      "chip": "ym2612"
    },
    {
      "channel": 3,
      "note": 62,
      "start": 26.6816,
      "duration": 0.048,
      "velocity": 91,
      "chip": "ym2612"
    },
    {
      "channel": 2,
      "note": 57,
      "start": 26.7829,
      "duration": 0.0966,
      "velocity": 87,
      "chip": "ym2612"
    },
    {
      "channel": 3,
      "note": 62,
      "start": 26.7836,
      "duration": 0.0962,
      "velocity": 91,
      "chip": "ym2612"
    },
    {
      "channel": 5,
      "note": 75,
      "start": 26.7843,
      "duration": 0.2976,
      "velocity": 120,
      "chip": "ym2612"
    },
    {
      "channel": 2,
      "note": 57,
      "start": 26.981,
      "duration": 0.0485,
      "velocity": 87,
      "chip": "ym2612"
    },
    {
      "channel": 3,
      "note": 62,
      "start": 26.9817,
      "duration": 0.0481,
      "velocity": 91,
      "chip": "ym2612"
    },
    {
      "channel": 2,
      "note": 57,
      "start": 27.081,
      "duration": 0.0484,
      "velocity": 87,
      "chip": "ym2612"
    },
    {
      "channel": 3,
      "note": 62,
      "start": 27.0817,
      "duration": 0.048,
      "velocity": 91,
      "chip": "ym2612"
    },
    {
      "channel": 0,
      "note": 86,
      "start": 27.1826,
      "duration": 0.197,
      "velocity": 99,
      "chip": "ym2612"
    },
    {
      "channel": 1,
      "note": 72,
      "start": 27.1833,
      "duration": 1.1987,
      "velocity": 95,
      "chip": "ym2612"
    },
    {
      "channel": 2,
      "note": 54,
      "start": 27.1841,
      "duration": 0.0952,
      "velocity": 87,
      "chip": "ym2612"
    },
    {
      "channel": 3,
      "note": 59,
      "start": 27.1849,
      "duration": 0.0948,
      "velocity": 91,
      "chip": "ym2612"
    },
    {
      "channel": 5,
      "note": 32,
      "start": 27.1858,
      "duration": 0.1272,
      "velocity": 114,
      "chip": "ym2612"
    },
    {
      "channel": 0,
      "note": 84,
      "start": 27.3802,
      "duration": 0.0994,
      "velocity": 99,
      "chip": "ym2612"
    },
    {
      "channel": 2,
      "note": 54,
      "start": 27.3813,
      "duration": 0.048,
      "velocity": 87,
      "chip": "ym2612"
    },
    {
      "channel": 3,
      "note": 59,
      "start": 27.382,
      "duration": 0.0476,
      "velocity": 91,
      "chip": "ym2612"
    },
    {
      "channel": 2,
      "note": 54,
      "start": 27.4808,
      "duration": 0.0483,
      "velocity": 87,
      "chip": "ym2612"
    },
    {
      "channel": 3,
      "note": 59,
      "start": 27.4815,
      "duration": 0.0479,
      "velocity": 91,
      "chip": "ym2612"
    },
    {
      "channel": 0,
      "note": 83,
      "start": 27.5823,
      "duration": 0.1973,
      "velocity": 99,
      "chip": "ym2612"
    },
    {
      "channel": 2,
      "note": 54,
      "start": 27.5833,
      "duration": 0.097,
      "velocity": 87,
      "chip": "ym2612"
    },
    {
      "channel": 3,
      "note": 59,
      "start": 27.5841,
      "duration": 0.0966,
      "velocity": 91,
      "chip": "ym2612"
    },
    {
      "channel": 5,
      "note": 75,
      "start": 27.5848,
      "duration": 0.2941,
      "velocity": 120,
      "chip": "ym2612"
    },
    {
      "channel": 0,
      "note": 81,
      "start": 27.7802,
      "duration": 0.1013,
      "velocity": 99,
      "chip": "ym2612"
    },
    {
      "channel": 2,
      "note": 54,
      "start": 27.7813,
      "duration": 0.048,
      "velocity": 87,
      "chip": "ym2612"
    },
    {
      "channel": 3,
      "note": 59,
      "start": 27.782,
      "duration": 0.0476,
      "velocity": 91,
      "chip": "ym2612"
    },
    {
      "channel": 2,
      "note": 54,
      "start": 27.8828,
      "duration": 0.0463,
      "velocity": 87,
      "chip": "ym2612"
    },
    {
      "channel": 3,
      "note": 59,
      "start": 27.8836,
      "duration": 0.0459,
      "velocity": 91,
      "chip": "ym2612"
    },
    {
      "channel": 5,
      "note": 32,
      "start": 27.8844,
      "duration": 0.129,
      "velocity": 114,
      "chip": "ym2612"
    },
    {
      "channel": 0,
      "note": 81,
      "start": 27.9802,
      "duration": 0.1013,
      "velocity": 99,
      "chip": "ym2612"
    },
    {
      "channel": 2,
      "note": 59,
      "start": 27.9815,
      "duration": 0.1013,
      "velocity": 87,
      "chip": "ym2612"
    },
    {
      "channel": 3,
      "note": 64,
      "start": 27.9823,
      "duration": 0.1008,
      "velocity": 91,
      "chip": "ym2612"
    },
    {
      "channel": 0,
      "note": 80,
      "start": 28.0823,
      "duration": 0.0973,
      "velocity": 99,
      "chip": "ym2612"
    },
    {
      "channel": 5,
      "note": 32,
      "start": 28.0841,
      "duration": 0.1291,
      "velocity": 114,
      "chip": "ym2612"
    },
    {
      "channel": 2,
      "note": 59,
      "start": 28.1808,
      "duration": 0.0483,
      "velocity": 87,
      "chip": "ym2612"
    },
    {
      "channel": 3,
      "note": 64,
      "start": 28.1815,
      "duration": 0.0479,
      "velocity": 91,
      "chip": "ym2612"
    },
    {
      "channel": 0,
      "note": 83,
      "start": 28.2799,
      "duration": 0.2998,
      "velocity": 99,
      "chip": "ym2612"
    },
    {
      "channel": 2,
      "note": 59,
      "start": 28.281,
      "duration": 0.0484,
      "velocity": 87,
      "chip": "ym2612"
    },
    {
      "channel": 3,
      "note": 64,
      "start": 28.2816,
      "duration": 0.048,
      "velocity": 91,
      "chip": "ym2612"
    },
    {
      "channel": 1,
      "note": 71,
      "start": 28.3825,
      "duration": 0.4003,
      "velocity": 95,
      "chip": "ym2612"
    },
    {
      "channel": 2,
      "note": 59,
      "start": 28.3832,
      "duration": 0.0962,
      "velocity": 87,
      "chip": "ym2612"
    },
    {
      "channel": 3,
      "note": 64,
      "start": 28.384,
      "duration": 0.0958,
      "velocity": 91,
      "chip": "ym2612"
    },
    {
      "channel": 5,
      "note": 75,
      "start": 28.3848,
      "duration": 0.297,
      "velocity": 120,
      "chip": "ym2612"
    },
    {
      "channel": 0,
      "note": 76,
      "start": 28.5802,
      "duration": 0.2018,
      "velocity": 99,
      "chip": "ym2612"
    },
    {
      "channel": 2,
      "note": 59,
      "start": 28.5813,
      "duration": 0.048,
      "velocity": 87,
      "chip": "ym2612"
    },
    {
      "channel": 3,
      "note": 64,
      "start": 28.582,
      "duration": 0.0476,
      "velocity": 91,
      "chip": "ym2612"
    },
    {
      "channel": 2,
      "note": 59,
      "start": 28.6809,
      "duration": 0.0485,
      "velocity": 87,
      "chip": "ym2612"
    },
    {
      "channel": 3,
      "note": 64,
      "start": 28.6816,
      "duration": 0.0481,
      "velocity": 91,
      "chip": "ym2612"
    },
    {
      "channel": 0,
      "note": 84,
      "start": 28.7827,
      "duration": 0.297,
      "velocity": 99,
      "chip": "ym2612"
    },
    {
      "channel": 1,
      "note": 64,
      "start": 28.7834,
      "duration": 1.5456,
      "velocity": 95,
      "chip": "ym2612"
    },
    {
      "channel": 2,
      "note": 52,
      "start": 28.7843,
      "duration": 0.095,
      "velocity": 87,
      "chip": "ym2612"
    },
    {
      "channel": 3,
      "note": 57,
      "start": 28.7852,
      "duration": 0.0944,
      "velocity": 91,
      "chip": "ym2612"
    },
    {
      "channel": 5,
      "note": 32,
      "start": 28.7861,
      "duration": 0.1268,
      "velocity": 114,
      "chip": "ym2612"
    },
    {
      "channel": 2,
      "note": 52,
      "start": 28.981,
      "duration": 0.0484,
      "velocity": 87,
      "chip": "ym2612"
    },
    {
      "channel": 3,
      "note": 57,
      "start": 28.9817,
      "duration": 0.048,
      "velocity": 91,
      "chip": "ym2612"
    },
    {
      "channel": 0,
      "note": 86,
      "start": 29.0802,
      "duration": 0.2994,
      "velocity": 99,
      "chip": "ym2612"
    },
    {
      "channel": 2,
      "note": 52,
      "start": 29.0813,
      "duration": 0.048,
      "velocity": 87,
      "chip": "ym2612"
    },
    {
      "channel": 3,
      "note": 57,
      "start": 29.082,
      "duration": 0.0476,
      "velocity": 91,
      "chip": "ym2612"
    },
    {
      "channel": 2,
      "note": 52,
      "start": 29.1829,
      "duration": 0.0976,
      "velocity": 87,
      "chip": "ym2612"
    },
    {
      "channel": 3,
      "note": 57,
      "start": 29.1836,
      "duration": 0.0972,
      "velocity": 91,
      "chip": "ym2612"
    },
    {
      "channel": 5,
      "note": 75,
      "start": 29.1843,
      "duration": 0.2947,
      "velocity": 120,
      "chip": "ym2612"
    },
    {
      "channel": 0,
      "note": 88,
      "start": 29.3802,
      "duration": 0.1484,
      "velocity": 99,
      "chip": "ym2612"
    },
    {
      "channel": 2,
      "note": 52,
      "start": 29.3813,
      "duration": 0.048,
      "velocity": 87,
      "chip": "ym2612"
    },
    {
      "channel": 3,
      "note": 57,
      "start": 29.382,
      "duration": 0.0476,
      "velocity": 91,
      "chip": "ym2612"
    },
    {
      "channel": 2,
      "note": 52,
      "start": 29.4829,
      "duration": 0.0464,
      "velocity": 87,
      "chip": "ym2612"
    },
    {
      "channel": 3,
      "note": 57,
      "start": 29.4836,
      "duration": 0.0461,
      "velocity": 91,
      "chip": "ym2612"
    },
    {
      "channel": 5,
      "note": 32,
      "start": 29.4844,
      "duration": 0.129,
      "velocity": 114,
      "chip": "ym2612"
    },
    {
      "channel": 0,
      "note": 84,
      "start": 29.5804,
      "duration": 0.2988,
      "velocity": 99,
      "chip": "ym2612"
    },
    {
      "channel": 2,
      "note": 50,
      "start": 29.5816,
      "duration": 0.1007,
      "velocity": 87,
      "chip": "ym2612"
    },
    {
      "channel": 3,
      "note": 55,
      "start": 29.5824,
      "duration": 0.1002,
      "velocity": 91,
      "chip": "ym2612"
    },
    {
      "channel": 5,
      "note": 32,
      "start": 29.6836,
      "duration": 0.1299,
      "velocity": 114,
      "chip": "ym2612"
    },
    {
      "channel": 2,
      "note": 50,
      "start": 29.781,
      "duration": 0.0485,
      "velocity": 87,
      "chip": "ym2612"
    },
    {
      "channel": 3,
      "note": 55,
      "start": 29.7817,
      "duration": 0.048,
      "velocity": 91,
      "chip": "ym2612"
    },
    {
      "channel": 0,
      "note": 86,
      "start": 29.8799,
      "duration": 0.2998,
      "velocity": 99,
      "chip": "ym2612"
    },
    {
      "channel": 2,
      "note": 50,
      "start": 29.881,
      "duration": 0.0484,
      "velocity": 87,
      "chip": "ym2612"
    },
    {
      "channel": 3,
      "note": 55,
      "start": 29.8816,
      "duration": 0.048,
      "velocity": 91,
      "chip": "ym2612"
    },
    {
      "channel": 2,
      "note": 50,
      "start": 29.9829,
      "duration": 0.0966,
      "velocity": 87,
      "chip": "ym2612"
    },
    {
      "channel": 3,
      "note": 55,
      "start": 29.9836,
      "duration": 0.0962,
      "velocity": 91,
      "chip": "ym2612"
    },
    {
      "channel": 5,
      "note": 75,
      "start": 29.9843,
      "duration": 0.2975,
      "velocity": 120,
      "chip": "ym2612"
    },
    {
      "channel": 0,
      "note": 88,
      "start": 30.1803,
      "duration": 0.1484,
      "velocity": 99,
      "chip": "ym2612"
    },
    {
      "channel": 2,
      "note": 50,
      "start": 30.1813,
      "duration": 0.048,
      "velocity": 87,
      "chip": "ym2612"
    },
    {
      "channel": 3,
      "note": 55,
      "start": 30.182,
      "duration": 0.0476,
      "velocity": 91,
      "chip": "ym2612"
    },
    {
      "channel": 2,
      "note": 50,
      "start": 30.2808,
      "duration": 0.0485,
      "velocity": 87,
      "chip": "ym2612"
    },
    {
      "channel": 3,
      "note": 55,
      "start": 30.2815,
      "duration": 0.0481,
      "velocity": 91,
      "chip": "ym2612"
    },
    {
      "channel": 0,
      "note": 84,
      "start": 30.3829,
      "duration": 0.2968,
      "velocity": 99,
      "chip": "ym2612"
    },
    {
      "channel": 1,
      "note": 74,
      "start": 30.3837,
      "duration": 1.1987,
      "velocity": 95,
      "chip": "ym2612"
    },
    {
      "channel": 2,
      "note": 48,
      "start": 30.3846,
      "duration": 0.0947,
      "velocity": 87,
      "chip": "ym2612"
    },
    {
      "channel": 3,
      "note": 53,
      "start": 30.3856,
      "duration": 0.0941,
      "velocity": 91,
      "chip": "ym2612"
    },
    {
      "channel": 5,
      "note": 32,
      "start": 30.3864,
      "duration": 0.1265,
      "velocity": 114,
      "chip": "ym2612"
    },
    {
      "channel": 2,
      "note": 48,
      "start": 30.581,
      "duration": 0.0485,
      "velocity": 87,
      "chip": "ym2612"
    },
    {
      "channel": 3,
      "note": 53,
      "start": 30.5817,
      "duration": 0.0481,
      "velocity": 91,
      "chip": "ym2612"
    },
    {
      "channel": 0,
      "note": 86,
      "start": 30.6802,
      "duration": 0.2994,
      "velocity": 99,
      "chip": "ym2612"
    },
    {
      "channel": 2,
      "note": 48,
      "start": 30.6813,
      "duration": 0.048,
      "velocity": 87,
      "chip": "ym2612"
    },
    {
      "channel": 3,
      "note": 53,
      "start": 30.682,
      "duration": 0.0476,
      "velocity": 91,
      "chip": "ym2612"
    },
    {
      "channel": 2,
      "note": 48,
      "start": 30.7829,
      "duration": 0.0976,
      "velocity": 87,
      "chip": "ym2612"
    },
    {
      "channel": 3,
      "note": 53,
      "start": 30.7836,
      "duration": 0.0972,
      "velocity": 91,
      "chip": "ym2612"
    },
    {
      "channel": 5,
      "note": 75,
      "start": 30.7843,
      "duration": 0.2947,
      "velocity": 120,
      "chip": "ym2612"
    },
    {
      "channel": 0,
      "note": 88,
      "start": 30.9802,
      "duration": 0.1484,
      "velocity": 99,
      "chip": "ym2612"
    },
    {
      "channel": 2,
      "note": 48,
      "start": 30.9813,
      "duration": 0.048,
      "velocity": 87,
      "chip": "ym2612"
    },
    {
      "channel": 3,
      "note": 53,
      "start": 30.982,
      "duration": 0.0476,
      "velocity": 91,
      "chip": "ym2612"
    },
    {
      "channel": 2,
      "note": 48,
      "start": 31.0829,
      "duration": 0.0464,
      "velocity": 87,
      "chip": "ym2612"
    },
    {
      "channel": 3,
      "note": 53,
      "start": 31.0836,
      "duration": 0.0461,
      "velocity": 91,
      "chip": "ym2612"
    },
    {
      "channel": 5,
      "note": 32,
      "start": 31.0844,
      "duration": 0.1291,
      "velocity": 114,
      "chip": "ym2612"
    },
    {
      "channel": 0,
      "note": 86,
      "start": 31.1804,
      "duration": 0.1993,
      "velocity": 99,
      "chip": "ym2612"
    },
    {
      "channel": 2,
      "note": 47,
      "start": 31.1816,
      "duration": 0.1007,
      "velocity": 87,
      "chip": "ym2612"
    },
    {
      "channel": 3,
      "note": 52,
      "start": 31.1825,
      "duration": 0.1,
      "velocity": 91,
      "chip": "ym2612"
    },
    {
      "channel": 5,
      "note": 32,
      "start": 31.2836,
      "duration": 0.1298,
      "velocity": 114,
      "chip": "ym2612"
    },
    {
      "channel": 0,
      "note": 84,
      "start": 31.3802,
      "duration": 0.099,
      "velocity": 99,
      "chip": "ym2612"
    },
    {
      "channel": 2,
      "note": 47,
      "start": 31.3813,
      "duration": 0.048,
      "velocity": 87,
      "chip": "ym2612"
    },
    {
      "channel": 3,
      "note": 52,
      "start": 31.382,
      "duration": 0.0476,
      "velocity": 91,
      "chip": "ym2612"
    },
    {
      "channel": 2,
      "note": 47,
      "start": 31.4804,
      "duration": 0.0487,
      "velocity": 87,
      "chip": "ym2612"
    },
    {
      "channel": 3,
      "note": 52,
      "start": 31.4811,
      "duration": 0.0483,
      "velocity": 91,
      "chip": "ym2612"
    },
    {
      "channel": 0,
      "note": 83,
      "start": 31.5823,
      "duration": 0.0964,
      "velocity": 99,
      "chip": "ym2612"
    },
    {
      "channel": 1,
      "note": 72,
      "start": 31.583,
      "duration": 0.4,
      "velocity": 95,
      "chip": "ym2612"
    },
    {
      "channel": 2,
      "note": 47,
      "start": 31.5837,
      "duration": 0.0961,
      "velocity": 87,
      "chip": "ym2612"
    },
    {
      "channel": 3,
      "note": 52,
      "start": 31.5844,
      "duration": 0.0957,
      "velocity": 91,
      "chip": "ym2612"
    },
    {
      "channel": 5,
      "note": 75,
      "start": 31.5851,
      "duration": 0.2968,
      "velocity": 120,
      "chip": "ym2612"
    },
    {
      "channel": 0,
      "note": 80,
      "start": 31.6793,
      "duration": 0.2494,
      "velocity": 99,
      "chip": "ym2612"
    },
    {
      "channel": 2,
      "note": 47,
      "start": 31.7808,
      "duration": 0.0485,
      "velocity": 87,
      "chip": "ym2612"
    },
    {
      "channel": 3,
      "note": 52,
      "start": 31.7816,
      "duration": 0.0481,
      "velocity": 91,
      "chip": "ym2612"
    },
    {
      "channel": 2,
      "note": 47,
      "start": 31.881,
      "duration": 0.0483,
      "velocity": 87,
      "chip": "ym2612"
    },
    {
      "channel": 3,
      "note": 52,
      "start": 31.8817,
      "duration": 0.0479,
      "velocity": 91,
      "chip": "ym2612"
    },
    {
      "channel": 0,
      "note": 88,
      "start": 31.9827,
      "duration": 0.197,
      "velocity": 99,
      "chip": "ym2612"
    },
    {
      "channel": 1,
      "note": 69,
      "start": 31.9835,
      "duration": 1.5992,
      "velocity": 95,
      "chip": "ym2612"
    },
    {
      "channel": 2,
      "note": 52,
      "start": 31.9846,
      "duration": 0.0948,
      "velocity": 87,
      "chip": "ym2612"
    },
    {
      "channel": 3,
      "note": 57,
      "start": 31.9856,
      "duration": 0.094,
      "velocity": 91,
      "chip": "ym2612"
    },
    {
      "channel": 5,
      "note": 32,
      "start": 31.9865,
      "duration": 0.1265,
      "velocity": 114,
      "chip": "ym2612"
    },
    {
      "channel": 0,
      "note": 86,
      "start": 32.1802,
      "duration": 0.0994,
      "velocity": 99,
      "chip": "ym2612"
    },
    {
      "channel": 2,
      "note": 52,
      "start": 32.1813,
      "duration": 0.048,
      "velocity": 87,
      "chip": "ym2612"
    },
    {
      "channel": 3,
      "note": 57,
      "start": 32.182,
      "duration": 0.0476,
      "velocity": 91,
      "chip": "ym2612"
    },
    {
      "channel": 2,
      "note": 52,
      "start": 32.2808,
      "duration": 0.0483,
      "velocity": 87,
      "chip": "ym2612"
    },
    {
      "channel": 3,
      "note": 57,
      "start": 32.2815,
      "duration": 0.0479,
      "velocity": 91,
      "chip": "ym2612"
    },
    {
      "channel": 0,
      "note": 84,
      "start": 32.3823,
      "duration": 0.1973,
      "velocity": 99,
      "chip": "ym2612"
    },
    {
      "channel": 2,
      "note": 52,
      "start": 32.3833,
      "duration": 0.097,
      "velocity": 87,
      "chip": "ym2612"
    },
    {
      "channel": 3,
      "note": 57,
      "start": 32.3841,
      "duration": 0.0966,
      "velocity": 91,
      "chip": "ym2612"
    },
    {
      "channel": 5,
      "note": 75,
      "start": 32.3848,
      "duration": 0.2941,
      "velocity": 120,
      "chip": "ym2612"
    },
    {
      "channel": 0,
      "note": 83,
      "start": 32.5802,
      "duration": 0.1013,
      "velocity": 99,
      "chip": "ym2612"
    },
    {
      "channel": 2,
      "note": 52,
      "start": 32.5813,
      "duration": 0.048,
      "velocity": 87,
      "chip": "ym2612"
    },
    {
      "channel": 3,
      "note": 57,
      "start": 32.582,
      "duration": 0.0476,
      "velocity": 91,
      "chip": "ym2612"
    },
    {
      "channel": 2,
      "note": 52,
      "start": 32.6828,
      "duration": 0.0463,
      "velocity": 87,
      "chip": "ym2612"
    },
    {
      "channel": 3,
      "note": 57,
      "start": 32.6836,
      "duration": 0.0459,
      "velocity": 91,
      "chip": "ym2612"
    },
    {
      "channel": 5,
      "note": 32,
      "start": 32.6844,
      "duration": 0.129,
      "velocity": 114,
      "chip": "ym2612"
    },
    {
      "channel": 0,
      "note": 84,
      "start": 32.7802,
      "duration": 0.1013,
      "velocity": 99,
      "chip": "ym2612"
    },
    {
      "channel": 2,
      "note": 57,
      "start": 32.7815,
      "duration": 0.1012,
      "velocity": 87,
      "chip": "ym2612"
    },
    {
      "channel": 3,
      "note": 62,
      "start": 32.7824,
      "duration": 0.1006,
      "velocity": 91,
      "chip": "ym2612"
    },
    {
      "channel": 0,
      "note": 83,
      "start": 32.8823,
      "duration": 0.0973,
      "velocity": 99,
      "chip": "ym2612"
    },
    {
      "channel": 5,
      "note": 32,
      "start": 32.8841,
      "duration": 0.1291,
      "velocity": 114,
      "chip": "ym2612"
    },
    {
      "channel": 2,
      "note": 57,
      "start": 32.9808,
      "duration": 0.0483,
      "velocity": 87,
      "chip": "ym2612"
    },
    {
      "channel": 3,
      "note": 62,
      "start": 32.9815,
      "duration": 0.0479,
      "velocity": 91,
      "chip": "ym2612"
    },
    {
      "channel": 0,
      "note": 81,
      "start": 33.0799,
      "duration": 0.502,
      "velocity": 99,
      "chip": "ym2612"
    },
    {
      "channel": 2,
      "note": 57,
      "start": 33.081,
      "duration": 0.0484,
      "velocity": 87,
      "chip": "ym2612"
    },
    {
      "channel": 3,
      "note": 62,
      "start": 33.0816,
      "duration": 0.048,
      "velocity": 91,
      "chip": "ym2612"
    },
    {
      "channel": 2,
      "note": 57,
      "start": 33.1829,
      "duration": 0.0966,
      "velocity": 87,
      "chip": "ym2612"
    },
    {
      "channel": 3,
      "note": 62,
      "start": 33.1836,
      "duration": 0.0962,
      "velocity": 91,
      "chip": "ym2612"
    },
    {
      "channel": 5,
      "note": 75,
      "start": 33.1843,
      "duration": 0.2976,
      "velocity": 120,
      "chip": "ym2612"
    },
    {
      "channel": 2,
      "note": 57,
      "start": 33.381,
      "duration": 0.0485,
      "velocity": 87,
      "chip": "ym2612"
    },
    {
      "channel": 3,
      "note": 62,
      "start": 33.3817,
      "duration": 0.048,
      "velocity": 91,
      "chip": "ym2612"
    },
    {
      "channel": 2,
      "note": 57,
      "start": 33.481,
      "duration": 0.0484,
      "velocity": 87,
      "chip": "ym2612"
    },
    {
      "channel": 3,
      "note": 62,
      "start": 33.4817,
      "duration": 0.048,
      "velocity": 91,
      "chip": "ym2612"
    },
    {
      "channel": 0,
      "note": 86,
      "start": 33.5826,
      "duration": 0.197,
      "velocity": 99,
      "chip": "ym2612"
    },
    {
      "channel": 1,
      "note": 72,
      "start": 33.5833,
      "duration": 1.1987,
      "velocity": 95,
      "chip": "ym2612"
    },
    {
      "channel": 2,
      "note": 54,
      "start": 33.5841,
      "duration": 0.0952,
      "velocity": 87,
      "chip": "ym2612"
    },
    {
      "channel": 3,
      "note": 59,
      "start": 33.5849,
      "duration": 0.0948,
      "velocity": 91,
      "chip": "ym2612"
    },
    {
      "channel": 5,
      "note": 32,
      "start": 33.5858,
      "duration": 0.1271,
      "velocity": 114,
      "chip": "ym2612"
    },
    {
      "channel": 0,
      "note": 84,
      "start": 33.7803,
      "duration": 0.0993,
      "velocity": 99,
      "chip": "ym2612"
    },
    {
      "channel": 2,
      "note": 54,
      "start": 33.7813,
      "duration": 0.048,
      "velocity": 87,
      "chip": "ym2612"
    },
    {
      "channel": 3,
      "note": 59,
      "start": 33.782,
      "duration": 0.0476,
      "velocity": 91,
      "chip": "ym2612"
    },
    {
      "channel": 2,
      "note": 54,
      "start": 33.8808,
      "duration": 0.0483,
      "velocity": 87,
      "chip": "ym2612"
    },
    {
      "channel": 3,
      "note": 59,
      "start": 33.8815,
      "duration": 0.0479,
      "velocity": 91,
      "chip": "ym2612"
    },
    {
      "channel": 0,
      "note": 83,
      "start": 33.9823,
      "duration": 0.1973,
      "velocity": 99,
      "chip": "ym2612"
    },
    {
      "channel": 2,
      "note": 54,
      "start": 33.9833,
      "duration": 0.097,
      "velocity": 87,
      "chip": "ym2612"
    },
    {
      "channel": 3,
      "note": 59,
      "start": 33.9841,
      "duration": 0.0966,
      "velocity": 91,
      "chip": "ym2612"
    },
    {
      "channel": 5,
      "note": 75,
      "start": 33.9848,
      "duration": 0.2941,
      "velocity": 120,
      "chip": "ym2612"
    },
    {
      "channel": 0,
      "note": 81,
      "start": 34.1802,
      "duration": 0.1013,
      "velocity": 99,
      "chip": "ym2612"
    },
    {
      "channel": 2,
      "note": 54,
      "start": 34.1813,
      "duration": 0.048,
      "velocity": 87,
      "chip": "ym2612"
    },
    {
      "channel": 3,
      "note": 59,
      "start": 34.182,
      "duration": 0.0476,
      "velocity": 91,
      "chip": "ym2612"
    },
    {
      "channel": 2,
      "note": 54,
      "start": 34.2828,
      "duration": 0.0462,
      "velocity": 87,
      "chip": "ym2612"
    },
    {
      "channel": 3,
      "note": 59,
      "start": 34.2836,
      "duration": 0.0458,
      "velocity": 91,
      "chip": "ym2612"
    },
    {
      "channel": 5,
      "note": 32,
      "start": 34.2844,
      "duration": 0.129,
      "velocity": 114,
      "chip": "ym2612"
    },
    {
      "channel": 0,
      "note": 81,
      "start": 34.3802,
      "duration": 0.1013,
      "velocity": 99,
      "chip": "ym2612"
    },
    {
      "channel": 2,
      "note": 59,
      "start": 34.3815,
      "duration": 0.1013,
      "velocity": 87,
      "chip": "ym2612"
    },
    {
      "channel": 3,
      "note": 64,
      "start": 34.3823,
      "duration": 0.1008,
      "velocity": 91,
      "chip": "ym2612"
    },
    {
      "channel": 0,
      "note": 80,
      "start": 34.4823,
      "duration": 0.0973,
      "velocity": 99,
      "chip": "ym2612"
    },
    {
      "channel": 5,
      "note": 32,
      "start": 34.4841,
      "duration": 0.1291,
      "velocity": 114,
      "chip": "ym2612"
    },
    {
      "channel": 2,
      "note": 59,
      "start": 34.5808,
      "duration": 0.0482,
      "velocity": 87,
      "chip": "ym2612"
    },
    {
      "channel": 3,
      "note": 64,
      "start": 34.5815,
      "duration": 0.0478,
      "velocity": 91,
      "chip": "ym2612"
    },
    {
      "channel": 0,
      "note": 83,
      "start": 34.6799,
      "duration": 0.2998,
      "velocity": 99,
      "chip": "ym2612"
    },
    {
      "channel": 2,
      "note": 59,
      "start": 34.681,
      "duration": 0.0484,
      "velocity": 87,
      "chip": "ym2612"
    },
    {
      "channel": 3,
      "note": 64,
      "start": 34.6816,
      "duration": 0.048,
      "velocity": 91,
      "chip": "ym2612"
    },
    {
      "channel": 1,
      "note": 71,
      "start": 34.7825,
      "duration": 0.4003,
      "velocity": 95,
      "chip": "ym2612"
    },
    {
      "channel": 2,
      "note": 59,
      "start": 34.7832,
      "duration": 0.0962,
      "velocity": 87,
      "chip": "ym2612"
    },
    {
      "channel": 3,
      "note": 64,
      "start": 34.784,
      "duration": 0.0958,
      "velocity": 91,
      "chip": "ym2612"
    },
    {
      "channel": 5,
      "note": 75,
      "start": 34.7848,
      "duration": 0.297,
      "velocity": 120,
      "chip": "ym2612"
    },
    {
      "channel": 0,
      "note": 76,
      "start": 34.9803,
      "duration": 0.2017,
      "velocity": 99,
      "chip": "ym2612"
    },
    {
      "channel": 2,
      "note": 59,
      "start": 34.9813,
      "duration": 0.048,
      "velocity": 87,
      "chip": "ym2612"
    },
    {
      "channel": 3,
      "note": 64,
      "start": 34.982,
      "duration": 0.0476,
      "velocity": 91,
      "chip": "ym2612"
    },
    {
      "channel": 2,
      "note": 59,
      "start": 35.0808,
      "duration": 0.0485,
      "velocity": 87,
      "chip": "ym2612"
    },
    {
      "channel": 3,
      "note": 64,
      "start": 35.0816,
      "duration": 0.0481,
      "velocity": 91,
      "chip": "ym2612"
    },
    {
      "channel": 0,
      "note": 84,
      "start": 35.1827,
      "duration": 0.297,
      "velocity": 99,
      "chip": "ym2612"
    },
    {
      "channel": 1,
      "note": 64,
      "start": 35.1834,
      "duration": 1.5456,
      "velocity": 95,
      "chip": "ym2612"
    },
    {
      "channel": 2,
      "note": 52,
      "start": 35.1843,
      "duration": 0.095,
      "velocity": 87,
      "chip": "ym2612"
    },
    {
      "channel": 3,
      "note": 57,
      "start": 35.1852,
      "duration": 0.0944,
      "velocity": 91,
      "chip": "ym2612"
    },
    {
      "channel": 5,
      "note": 32,
      "start": 35.1861,
      "duration": 0.1268,
      "velocity": 114,
      "chip": "ym2612"
    },
    {
      "channel": 2,
      "note": 52,
      "start": 35.381,
      "duration": 0.0485,
      "velocity": 87,
      "chip": "ym2612"
    },
    {
      "channel": 3,
      "note": 57,
      "start": 35.3817,
      "duration": 0.0481,
      "velocity": 91,
      "chip": "ym2612"
    },
    {
      "channel": 0,
      "note": 86,
      "start": 35.4802,
      "duration": 0.2994,
      "velocity": 99,
      "chip": "ym2612"
    },
    {
      "channel": 2,
      "note": 52,
      "start": 35.4813,
      "duration": 0.048,
      "velocity": 87,
      "chip": "ym2612"
    },
    {
      "channel": 3,
      "note": 57,
      "start": 35.482,
      "duration": 0.0476,
      "velocity": 91,
      "chip": "ym2612"
    },
    {
      "channel": 2,
      "note": 52,
      "start": 35.5829,
      "duration": 0.0976,
      "velocity": 87,
      "chip": "ym2612"
    },
    {
      "channel": 3,
      "note": 57,
      "start": 35.5836,
      "duration": 0.0972,
      "velocity": 91,
      "chip": "ym2612"
    },
    {
      "channel": 5,
      "note": 75,
      "start": 35.5843,
      "duration": 0.2947,
      "velocity": 120,
      "chip": "ym2612"
    },
    {
      "channel": 0,
      "note": 88,
      "start": 35.7802,
      "duration": 0.1484,
      "velocity": 99,
      "chip": "ym2612"
    },
    {
      "channel": 2,
      "note": 52,
      "start": 35.7813,
      "duration": 0.048,
      "velocity": 87,
      "chip": "ym2612"
    },
    {
      "channel": 3,
      "note": 57,
      "start": 35.782,
      "duration": 0.0476,
      "velocity": 91,
      "chip": "ym2612"
    },
    {
      "channel": 2,
      "note": 52,
      "start": 35.8829,
      "duration": 0.0464,
      "velocity": 87,
      "chip": "ym2612"
    },
    {
      "channel": 3,
      "note": 57,
      "start": 35.8836,
      "duration": 0.0461,
      "velocity": 91,
      "chip": "ym2612"
    },
    {
      "channel": 5,
      "note": 32,
      "start": 35.8844,
      "duration": 0.1291,
      "velocity": 114,
      "chip": "ym2612"
    },
    {
      "channel": 0,
      "note": 84,
      "start": 35.9804,
      "duration": 0.2988,
      "velocity": 99,
      "chip": "ym2612"
    },
    {
      "channel": 2,
      "note": 50,
      "start": 35.9816,
      "duration": 0.1007,
      "velocity": 87,
      "chip": "ym2612"
    },
    {
      "channel": 3,
      "note": 55,
      "start": 35.9824,
      "duration": 0.1002,
      "velocity": 91,
      "chip": "ym2612"
    },
    {
      "channel": 5,
      "note": 32,
      "start": 36.0836,
      "duration": 0.1299,
      "velocity": 114,
      "chip": "ym2612"
    },
    {
      "channel": 2,
      "note": 50,
      "start": 36.181,
      "duration": 0.0484,
      "velocity": 87,
      "chip": "ym2612"
    },
    {
      "channel": 3,
      "note": 55,
      "start": 36.1817,
      "duration": 0.048,
      "velocity": 91,
      "chip": "ym2612"
    },
    {
      "channel": 0,
      "note": 86,
      "start": 36.2799,
      "duration": 0.2998,
      "velocity": 99,
      "chip": "ym2612"
    },
    {
      "channel": 2,
      "note": 50,
      "start": 36.281,
      "duration": 0.0484,
      "velocity": 87,
      "chip": "ym2612"
    },
    {
      "channel": 3,
      "note": 55,
      "start": 36.2816,
      "duration": 0.048,
      "velocity": 91,
      "chip": "ym2612"
    },
    {
      "channel": 2,
      "note": 50,
      "start": 36.3829,
      "duration": 0.0966,
      "velocity": 87,
      "chip": "ym2612"
    },
    {
      "channel": 3,
      "note": 55,
      "start": 36.3836,
      "duration": 0.0962,
      "velocity": 91,
      "chip": "ym2612"
    },
    {
      "channel": 5,
      "note": 75,
      "start": 36.3843,
      "duration": 0.2975,
      "velocity": 120,
      "chip": "ym2612"
    },
    {
      "channel": 0,
      "note": 88,
      "start": 36.5802,
      "duration": 0.1484,
      "velocity": 99,
      "chip": "ym2612"
    },
    {
      "channel": 2,
      "note": 50,
      "start": 36.5813,
      "duration": 0.048,
      "velocity": 87,
      "chip": "ym2612"
    },
    {
      "channel": 3,
      "note": 55,
      "start": 36.582,
      "duration": 0.0476,
      "velocity": 91,
      "chip": "ym2612"
    },
    {
      "channel": 2,
      "note": 50,
      "start": 36.6808,
      "duration": 0.0485,
      "velocity": 87,
      "chip": "ym2612"
    },
    {
      "channel": 3,
      "note": 55,
      "start": 36.6815,
      "duration": 0.0481,
      "velocity": 91,
      "chip": "ym2612"
    },
    {
      "channel": 0,
      "note": 79,
      "start": 36.7827,
      "duration": 0.0961,
      "velocity": 99,
      "chip": "ym2612"
    },
    {
      "channel": 1,
      "note": 62,
      "start": 36.7855,
      "duration": 0.0936,
      "velocity": 106,
      "chip": "ym2612"
    },
    {
      "channel": 2,
      "note": 50,
      "start": 36.7863,
      "duration": 0.0931,
      "velocity": 87,
      "chip": "ym2612"
    },
    {
      "channel": 3,
      "note": 55,
      "start": 36.7871,
      "duration": 0.0926,
      "velocity": 91,
      "chip": "ym2612"
    },
    {
      "channel": 5,
      "note": 75,
      "start": 36.7879,
      "duration": 0.1907,
      "velocity": 120,
      "chip": "ym2612"
    },
    {
      "channel": 0,
      "note": 79,
      "start": 36.9818,
      "duration": 0.0969,
      "velocity": 99,
      "chip": "ym2612"
    },
    {
      "channel": 1,
      "note": 62,
      "start": 36.9826,
      "duration": 0.0965,
      "velocity": 106,
      "chip": "ym2612"
    },
    {
      "channel": 2,
      "note": 50,
      "start": 36.9833,
      "duration": 0.0961,
      "velocity": 87,
      "chip": "ym2612"
    },
    {
      "channel": 3,
      "note": 55,
      "start": 36.984,
      "duration": 0.0957,
      "velocity": 91,
      "chip": "ym2612"
    },
    {
      "channel": 5,
      "note": 75,
      "start": 36.9847,
      "duration": 0.1939,
      "velocity": 120,
      "chip": "ym2612"
    },
    {
      "channel": 0,
      "note": 79,
      "start": 37.1818,
      "duration": 0.0468,
      "velocity": 99,
      "chip": "ym2612"
    },
    {
      "channel": 1,
      "note": 62,
      "start": 37.1826,
      "duration": 0.0464,
      "velocity": 106,
      "chip": "ym2612"
    },
    {
      "channel": 2,
      "note": 50,
      "start": 37.1833,
      "duration": 0.046,
      "velocity": 87,
      "chip": "ym2612"
    },
    {
      "channel": 3,
      "note": 55,
      "start": 37.184,
      "duration": 0.0456,
      "velocity": 91,
      "chip": "ym2612"
    },
    {
      "channel": 5,
      "note": 75,
      "start": 37.1848,
      "duration": 0.0938,
      "velocity": 120,
      "chip": "ym2612"
    },
    {
      "channel": 0,
      "note": 79,
      "start": 37.2818,
      "duration": 0.0969,
      "velocity": 99,
      "chip": "ym2612"
    },
    {
      "channel": 1,
      "note": 62,
      "start": 37.2826,
      "duration": 0.0965,
      "velocity": 106,
      "chip": "ym2612"
    },
    {
      "channel": 2,
      "note": 50,
      "start": 37.2833,
      "duration": 0.0961,
      "velocity": 87,
      "chip": "ym2612"
    },
    {
      "channel": 3,
      "note": 55,
      "start": 37.284,
      "duration": 0.0957,
      "velocity": 91,
      "chip": "ym2612"
    },
    {
      "channel": 5,
      "note": 75,
      "start": 37.2848,
      "duration": 0.1938,
      "velocity": 120,
      "chip": "ym2612"
    },
    {
      "channel": 0,
      "note": 79,
      "start": 37.4818,
      "duration": 0.0468,
      "velocity": 99,
      "chip": "ym2612"
    },
    {
      "channel": 1,
      "note": 62,
      "start": 37.4826,
      "duration": 0.0464,
      "velocity": 106,
      "chip": "ym2612"
    },
    {
      "channel": 2,
      "note": 50,
      "start": 37.4833,
      "duration": 0.046,
      "velocity": 87,
      "chip": "ym2612"
    },
    {
      "channel": 3,
      "note": 55,
      "start": 37.484,
      "duration": 0.0456,
      "velocity": 91,
      "chip": "ym2612"
    },
    {
      "channel": 5,
      "note": 75,
      "start": 37.4848,
      "duration": 0.0938,
      "velocity": 120,
      "chip": "ym2612"
    },
    {
      "channel": 0,
      "note": 79,
      "start": 37.5818,
      "duration": 0.3994,
      "velocity": 99,
      "chip": "ym2612"
    },
    {
      "channel": 1,
      "note": 62,
      "start": 37.5826,
      "duration": 0.3994,
      "velocity": 106,
      "chip": "ym2612"
    },
    {
      "channel": 2,
      "note": 50,
      "start": 37.5833,
      "duration": 0.3994,
      "velocity": 87,
      "chip": "ym2612"
    },
    {
      "channel": 3,
      "note": 55,
      "start": 37.584,
      "duration": 0.3994,
      "velocity": 91,
      "chip": "ym2612"
    },
    {
      "channel": 5,
      "note": 59,
      "start": 37.5849,
      "duration": 0.0937,
      "velocity": 117,
      "chip": "ym2612"
    },
    {
      "channel": 5,
      "note": 59,
      "start": 37.6833,
      "duration": 0.0953,
      "velocity": 117,
      "chip": "ym2612"
    },
    {
      "channel": 5,
      "note": 54,
      "start": 37.7836,
      "duration": 0.095,
      "velocity": 117,
      "chip": "ym2612"
    },
    {
      "channel": 5,
      "note": 50,
      "start": 37.8835,
      "duration": 0.0951,
      "velocity": 117,
      "chip": "ym2612"
    },
    {
      "channel": 0,
      "note": 80,
      "start": 37.9819,
      "duration": 0.3468,
      "velocity": 99,
      "chip": "ym2612"
    },
    {
      "channel": 1,
      "note": 63,
      "start": 37.9826,
      "duration": 0.3464,
      "velocity": 106,
      "chip": "ym2612"
    },
    {
      "channel": 2,
      "note": 51,
      "start": 37.9833,
      "duration": 0.4052,
      "velocity": 87,
      "chip": "ym2612"
    },
    {
      "channel": 3,
      "note": 56,
      "start": 37.984,
      "duration": 0.4054,
      "velocity": 91,
      "chip": "ym2612"
    },
    {
      "channel": 5,
      "note": 59,
      "start": 37.9849,
      "duration": 0.0937,
      "velocity": 117,
      "chip": "ym2612"
    },
    {
      "channel": 5,
      "note": 59,
      "start": 38.0833,
      "duration": 0.0953,
      "velocity": 117,
      "chip": "ym2612"
    },
    {
      "channel": 5,
      "note": 54,
      "start": 38.1836,
      "duration": 0.095,
      "velocity": 117,
      "chip": "ym2612"
    },
    {
      "channel": 5,
      "note": 50,
      "start": 38.2835,
      "duration": 0.0953,
      "velocity": 117,
      "chip": "ym2612"
    },
    {
      "channel": 0,
      "note": 64,
      "start": 38.3848,
      "duration": 0.1959,
      "velocity": 106,
      "chip": "ym2612"
    },
    {
      "channel": 1,
      "note": 76,
      "start": 38.3881,
      "duration": 0.0908,
      "velocity": 92,
      "chip": "ym2612"
    },
    {
      "channel": 2,
      "note": 59,
      "start": 38.389,
      "duration": 0.0903,
      "velocity": 87,
      "chip": "ym2612"
    },
    {
      "channel": 3,
      "note": 64,
      "start": 38.3899,
      "duration": 0.0897,
      "velocity": 91,
      "chip": "ym2612"
    },
    {
      "channel": 5,
      "note": 32,
      "start": 38.3908,
      "duration": 0.1218,
      "velocity": 114,
      "chip": "ym2612"
    }
  ]
}