{
  "track_name": "36 - Verhansa Suburbs",
  "duration_sec": 80.073,
  "sample_rate": 44100,
  "note_count": 612,
  "unique_pitches": 24,
  "pitch_range": 41,
  "avg_note_duration": 0.2568,
  "reconstruction_stats": {
    "notes_reconstructed": 612,
    "keyon_events": 612,
    "keyoff_events": 612,
    "orphan_keyons": 0,
    "unique_pitches": 24,
    "pitch_range": 41,
    "avg_duration_sec": 0.2568
  },
  "metadata": {
    "source": "P\\Pier Solar and the Great Architects\\36 - Verhansa Suburbs.vgz"
  },
  "notes": [
    {
      "channel": 0,
      "note": 73,
      "start": 0.1392,
      "duration": 0.8325,
      "velocity": 90,
      "chip": "ym2612"
    },
    {
      "channel": 4,
      "note": 78,
      "start": 0.1412,
      "duration": 0.831,
      "velocity": 90,
      "chip": "ym2612"
    },
    {
      "channel": 2,
      "note": 73,
      "start": 0.2793,
      "duration": 0.8314,
      "velocity": 90,
      "chip": "ym2612"
    },
    {
      "channel": 3,
      "note": 78,
      "start": 0.2807,
      "duration": 0.8302,
      "velocity": 90,
      "chip": "ym2612"
    },
    {
      "channel": 0,
      "note": 73,
      "start": 0.9719,
      "duration": 1.3876,
      "velocity": 90,
      "chip": "ym2612"
    },
    {
      "channel": 4,
      "note": 78,
      "start": 0.9723,
      "duration": 1.3876,
      "velocity": 90,
      "chip": "ym2612"
    },
    {
      "channel": 2,
      "note": 73,
      "start": 1.1107,
      "duration": 1.3876,
      "velocity": 90,
      "chip": "ym2612"
    },
    {
      "channel": 3,
      "note": 78,
      "start": 1.111,
      "duration": 1.3876,
      "velocity": 90,
      "chip": "ym2612"
    },
    {
      "channel": 0,
      "note": 69,
      "start": 2.3596,
      "duration": 0.8325,
      "velocity": 90,
      "chip": "ym2612"
    },
    {
      "channel": 4,
      "note": 74,
      "start": 2.36,
      "duration": 0.8325,
      "velocity": 90,
      "chip": "ym2612"
    },
    {
      "channel": 2,
      "note": 69,
      "start": 2.4985,
      "duration": 0.8325,
      "velocity": 90,
      "chip": "ym2612"
    },
    {
      "channel": 3,
      "note": 74,
      "start": 2.4987,
      "duration": 0.8325,
      "velocity": 90,
      "chip": "ym2612"
    },
    {
      "channel": 0,
      "note": 71,
      "start": 3.1922,
      "duration": 0.8325,
      "velocity": 90,
      "chip": "ym2612"
    },
    {
      "channel": 4,
      "note": 76,
      "start": 3.1927,
      "duration": 0.8325,
      "velocity": 90,
      "chip": "ym2612"
    },
    {
      "channel": 2,
      "note": 71,
      "start": 3.3311,
      "duration": 0.8325,
      "velocity": 90,
      "chip": "ym2612"
    },
    {
      "channel": 3,
      "note": 76,
      "start": 3.3314,
      "duration": 0.8325,
      "velocity": 90,
      "chip": "ym2612"
    },
    {
      "channel": 0,
      "note": 73,
      "start": 4.0249,
      "duration": 0.5549,
      "velocity": 90,
      "chip": "ym2612"
    },
    {
      "channel": 4,
      "note": 76,
      "start": 4.0253,
      "duration": 0.5549,
      "velocity": 90,
      "chip": "ym2612"
    },
    {
      "channel": 2,
      "note": 73,
      "start": 4.1637,
      "duration": 0.5549,
      "velocity": 90,
      "chip": "ym2612"
    },
    {
      "channel": 3,
      "note": 76,
      "start": 4.164,
      "duration": 0.5549,
      "velocity": 90,
      "chip": "ym2612"
    },
    {
      "channel": 0,
      "note": 73,
      "start": 4.5799,
      "duration": 0.8325,
      "velocity": 90,
      "chip": "ym2612"
    },
    {
      "channel": 4,
      "note": 78,
      "start": 4.5804,
      "duration": 0.8325,
      "velocity": 90,
      "chip": "ym2612"
    },
    {
      "channel": 2,
      "note": 73,
      "start": 4.7188,
      "duration": 0.8325,
      "velocity": 90,
      "chip": "ym2612"
    },
    {
      "channel": 3,
      "note": 78,
      "start": 4.7191,
      "duration": 0.8325,
      "velocity": 90,
      "chip": "ym2612"
    },
    {
      "channel": 0,
      "note": 73,
      "start": 5.4126,
      "duration": 1.3876,
      "velocity": 90,
      "chip": "ym2612"
    },
    {
      "channel": 4,
      "note": 78,
      "start": 5.413,
      "duration": 1.3878,
      "velocity": 90,
      "chip": "ym2612"
    },
    {
      "channel": 2,
      "note": 73,
      "start": 5.5515,
      "duration": 1.3876,
      "velocity": 90,
      "chip": "ym2612"
    },
    {
      "channel": 3,
      "note": 78,
      "start": 5.5517,
      "duration": 1.3876,
      "velocity": 90,
      "chip": "ym2612"
    },
    {
      "channel": 0,
      "note": 69,
      "start": 6.8003,
      "duration": 0.8325,
      "velocity": 90,
      "chip": "ym2612"
    },
    {
      "channel": 1,
      "note": 83,
      "start": 6.8005,
      "duration": 0.8325,
      "velocity": 98,
      "chip": "ym2612"
    },
    {
      "channel": 4,
      "note": 74,
      "start": 6.801,
      "duration": 0.8325,
      "velocity": 90,
      "chip": "ym2612"
    },
    {
      "channel": 2,
      "note": 69,
      "start": 6.9392,
      "duration": 0.8327,
      "velocity": 90,
      "chip": "ym2612"
    },
    {
      "channel": 3,
      "note": 74,
      "start": 6.9394,
      "duration": 0.8327,
      "velocity": 90,
      "chip": "ym2612"
    },
    {
      "channel": 0,
      "note": 71,
      "start": 7.6329,
      "duration": 0.8325,
      "velocity": 90,
      "chip": "ym2612"
    },
    {
      "channel": 1,
      "note": 83,
      "start": 7.6332,
      "duration": 0.1384,
      "velocity": 98,
      "chip": "ym2612"
    },
    {
      "channel": 4,
      "note": 76,
      "start": 7.6336,
      "duration": 0.8325,
      "velocity": 90,
      "chip": "ym2612"
    },
    {
      "channel": 1,
      "note": 80,
      "start": 7.7717,
      "duration": 0.1386,
      "velocity": 98,
      "chip": "ym2612"
    },
    {
      "channel": 2,
      "note": 71,
      "start": 7.772,
      "duration": 0.8323,
      "velocity": 90,
      "chip": "ym2612"
    },
    {
      "channel": 3,
      "note": 76,
      "start": 7.7723,
      "duration": 0.8323,
      "velocity": 90,
      "chip": "ym2612"
    },
    {
      "channel": 1,
      "note": 76,
      "start": 7.9105,
      "duration": 0.5551,
      "velocity": 98,
      "chip": "ym2612"
    },
    {
      "channel": 0,
      "note": 69,
      "start": 8.4656,
      "duration": 0.555,
      "velocity": 90,
      "chip": "ym2612"
    },
    {
      "channel": 1,
      "note": 73,
      "start": 8.4658,
      "duration": 0.555,
      "velocity": 98,
      "chip": "ym2612"
    },
    {
      "channel": 4,
      "note": 73,
      "start": 8.4662,
      "duration": 0.5553,
      "velocity": 90,
      "chip": "ym2612"
    },
    {
      "channel": 2,
      "note": 69,
      "start": 8.6045,
      "duration": 0.1386,
      "velocity": 90,
      "chip": "ym2612"
    },
    {
      "channel": 3,
      "note": 73,
      "start": 8.6047,
      "duration": 0.4165,
      "velocity": 90,
      "chip": "ym2612"
    },
    {
      "channel": 0,
      "note": 73,
      "start": 9.0207,
      "duration": 0.6494,
      "velocity": 90,
      "chip": "ym2612"
    },
    {
      "channel": 1,
      "note": 78,
      "start": 9.0209,
      "duration": 3.4472,
      "velocity": 98,
      "chip": "ym2612"
    },
    {
      "channel": 2,
      "note": 54,
      "start": 9.0212,
      "duration": 0.216,
      "velocity": 114,
      "chip": "ym2612"
    },
    {
      "channel": 4,
      "note": 78,
      "start": 9.0228,
      "duration": 0.6478,
      "velocity": 90,
      "chip": "ym2612"
    },
    {
      "channel": 3,
      "note": 78,
      "start": 9.0998,
      "duration": 0.6483,
      "velocity": 90,
      "chip": "ym2612"
    },
    {
      "channel": 2,
      "note": 54,
      "start": 9.2373,
      "duration": 0.2774,
      "velocity": 114,
      "chip": "ym2612"
    },
    {
      "channel": 2,
      "note": 59,
      "start": 9.5148,
      "duration": 0.1556,
      "velocity": 114,
      "chip": "ym2612"
    },
    {
      "channel": 0,
      "note": 73,
      "start": 9.6702,
      "duration": 1.1435,
      "velocity": 90,
      "chip": "ym2612"
    },
    {
      "channel": 2,
      "note": 61,
      "start": 9.6705,
      "duration": 0.7103,
      "velocity": 114,
      "chip": "ym2612"
    },
    {
      "channel": 4,
      "note": 78,
      "start": 9.6708,
      "duration": 1.1435,
      "velocity": 90,
      "chip": "ym2612"
    },
    {
      "channel": 3,
      "note": 78,
      "start": 9.7481,
      "duration": 1.1435,
      "velocity": 90,
      "chip": "ym2612"
    },
    {
      "channel": 2,
      "note": 59,
      "start": 10.3809,
      "duration": 0.1554,
      "velocity": 114,
      "chip": "ym2612"
    },
    {
      "channel": 2,
      "note": 56,
      "start": 10.5364,
      "duration": 0.2776,
      "velocity": 114,
      "chip": "ym2612"
    },
    {
      "channel": 0,
      "note": 69,
      "start": 10.8139,
      "duration": 0.6494,
      "velocity": 90,
      "chip": "ym2612"
    },
    {
      "channel": 2,
      "note": 52,
      "start": 10.8142,
      "duration": 0.2162,
      "velocity": 114,
      "chip": "ym2612"
    },
    {
      "channel": 4,
      "note": 74,
      "start": 10.8145,
      "duration": 0.6494,
      "velocity": 90,
      "chip": "ym2612"
    },
    {
      "channel": 3,
      "note": 74,
      "start": 10.8918,
      "duration": 0.6494,
      "velocity": 90,
      "chip": "ym2612"
    },
    {
      "channel": 2,
      "note": 52,
      "start": 11.0305,
      "duration": 0.2774,
      "velocity": 114,
      "chip": "ym2612"
    },
    {
      "channel": 2,
      "note": 57,
      "start": 11.308,
      "duration": 0.1555,
      "velocity": 114,
      "chip": "ym2612"
    },
    {
      "channel": 0,
      "note": 71,
      "start": 11.4634,
      "duration": 0.7104,
      "velocity": 90,
      "chip": "ym2612"
    },
    {
      "channel": 2,
      "note": 59,
      "start": 11.4637,
      "duration": 0.4327,
      "velocity": 114,
      "chip": "ym2612"
    },
    {
      "channel": 4,
      "note": 76,
      "start": 11.464,
      "duration": 0.7104,
      "velocity": 90,
      "chip": "ym2612"
    },
    {
      "channel": 3,
      "note": 76,
      "start": 11.5413,
      "duration": 0.6495,
      "velocity": 90,
      "chip": "ym2612"
    },
    {
      "channel": 2,
      "note": 59,
      "start": 11.8965,
      "duration": 0.2776,
      "velocity": 114,
      "chip": "ym2612"
    },
    {
      "channel": 0,
      "note": 73,
      "start": 12.1739,
      "duration": 0.4329,
      "velocity": 90,
      "chip": "ym2612"
    },
    {
      "channel": 2,
      "note": 57,
      "start": 12.1743,
      "duration": 0.1552,
      "velocity": 114,
      "chip": "ym2612"
    },
    {
      "channel": 4,
      "note": 76,
      "start": 12.1746,
      "duration": 0.4331,
      "velocity": 90,
      "chip": "ym2612"
    },
    {
      "channel": 3,
      "note": 76,
      "start": 12.1909,
      "duration": 0.4953,
      "velocity": 90,
      "chip": "ym2612"
    },
    {
      "channel": 2,
      "note": 56,
      "start": 12.3296,
      "duration": 0.2777,
      "velocity": 114,
      "chip": "ym2612"
    },
    {
      "channel": 0,
      "note": 73,
      "start": 12.607,
      "duration": 0.6495,
      "velocity": 90,
      "chip": "ym2612"
    },
    {
      "channel": 2,
      "note": 54,
      "start": 12.6074,
      "duration": 0.2161,
      "velocity": 114,
      "chip": "ym2612"
    },
    {
      "channel": 4,
      "note": 78,
      "start": 12.6078,
      "duration": 0.6493,
      "velocity": 90,
      "chip": "ym2612"
    },
    {
      "channel": 1,
      "note": 73,
      "start": 12.686,
      "duration": 0.6483,
      "velocity": 90,
      "chip": "ym2612"
    },
    {
      "channel": 3,
      "note": 78,
      "start": 12.6863,
      "duration": 0.6483,
      "velocity": 90,
      "chip": "ym2612"
    },
    {
      "channel": 2,
      "note": 54,
      "start": 12.8237,
      "duration": 0.2774,
      "velocity": 114,
      "chip": "ym2612"
    },
    {
      "channel": 2,
      "note": 59,
      "start": 13.1012,
      "duration": 0.1556,
      "velocity": 114,
      "chip": "ym2612"
    },
    {
      "channel": 0,
      "note": 73,
      "start": 13.2566,
      "duration": 1.1436,
      "velocity": 90,
      "chip": "ym2612"
    },
    {
      "channel": 2,
      "note": 61,
      "start": 13.2569,
      "duration": 0.7103,
      "velocity": 114,
      "chip": "ym2612"
    },
    {
      "channel": 4,
      "note": 78,
      "start": 13.2573,
      "duration": 1.1435,
      "velocity": 90,
      "chip": "ym2612"
    },
    {
      "channel": 1,
      "note": 73,
      "start": 13.3345,
      "duration": 1.1435,
      "velocity": 90,
      "chip": "ym2612"
    },
    {
      "channel": 3,
      "note": 78,
      "start": 13.3348,
      "duration": 1.1435,
      "velocity": 90,
      "chip": "ym2612"
    },
    {
      "channel": 2,
      "note": 61,
      "start": 13.9674,
      "duration": 0.1554,
      "velocity": 114,
      "chip": "ym2612"
    },
    {
      "channel": 2,
      "note": 59,
      "start": 14.1229,
      "duration": 0.2776,
      "velocity": 114,
      "chip": "ym2612"
    },
    {
      "channel": 0,
      "note": 69,
      "start": 14.4003,
      "duration": 0.6494,
      "velocity": 90,
      "chip": "ym2612"
    },
    {
      "channel": 2,
      "note": 64,
      "start": 14.4006,
      "duration": 0.2162,
      "velocity": 114,
      "chip": "ym2612"
    },
    {
      "channel": 4,
      "note": 74,
      "start": 14.401,
      "duration": 0.6494,
      "velocity": 90,
      "chip": "ym2612"
    },
    {
      "channel": 1,
      "note": 69,
      "start": 14.4781,
      "duration": 0.6494,
      "velocity": 90,
      "chip": "ym2612"
    },
    {
      "channel": 3,
      "note": 74,
      "start": 14.4785,
      "duration": 0.6494,
      "velocity": 90,
      "chip": "ym2612"
    },
    {
      "channel": 2,
      "note": 62,
      "start": 14.617,
      "duration": 0.2774,
      "velocity": 114,
      "chip": "ym2612"
    },
    {
      "channel": 2,
      "note": 57,
      "start": 14.8945,
      "duration": 0.1555,
      "velocity": 114,
      "chip": "ym2612"
    },
    {
      "channel": 0,
      "note": 71,
      "start": 15.0499,
      "duration": 0.7105,
      "velocity": 90,
      "chip": "ym2612"
    },
    {
      "channel": 2,
      "note": 59,
      "start": 15.0502,
      "duration": 0.4328,
      "velocity": 114,
      "chip": "ym2612"
    },
    {
      "channel": 4,
      "note": 76,
      "start": 15.0505,
      "duration": 0.7105,
      "velocity": 90,
      "chip": "ym2612"
    },
    {
      "channel": 1,
      "note": 71,
      "start": 15.1277,
      "duration": 0.6494,
      "velocity": 90,
      "chip": "ym2612"
    },
    {
      "channel": 3,
      "note": 76,
      "start": 15.128,
      "duration": 0.6494,
      "velocity": 90,
      "chip": "ym2612"
    },
    {
      "channel": 2,
      "note": 59,
      "start": 15.4831,
      "duration": 0.2776,
      "velocity": 114,
      "chip": "ym2612"
    },
    {
      "channel": 0,
      "note": 69,
      "start": 15.7605,
      "duration": 0.4329,
      "velocity": 90,
      "chip": "ym2612"
    },
    {
      "channel": 2,
      "note": 57,
      "start": 15.7608,
      "duration": 0.1551,
      "velocity": 114,
      "chip": "ym2612"
    },
    {
      "channel": 4,
      "note": 73,
      "start": 15.7611,
      "duration": 0.4329,
      "velocity": 90,
      "chip": "ym2612"
    },
    {
      "channel": 1,
      "note": 69,
      "start": 15.7772,
      "duration": 0.4939,
      "velocity": 90,
      "chip": "ym2612"
    },
    {
      "channel": 3,
      "note": 73,
      "start": 15.7776,
      "duration": 0.4939,
      "velocity": 90,
      "chip": "ym2612"
    },
    {
      "channel": 2,
      "note": 56,
      "start": 15.9161,
      "duration": 0.2776,
      "velocity": 114,
      "chip": "ym2612"
    },
    {
      "channel": 0,
      "note": 73,
      "start": 16.1935,
      "duration": 0.5253,
      "velocity": 90,
      "chip": "ym2612"
    },
    {
      "channel": 2,
      "note": 54,
      "start": 16.1938,
      "duration": 0.2162,
      "velocity": 114,
      "chip": "ym2612"
    },
    {
      "channel": 4,
      "note": 78,
      "start": 16.1941,
      "duration": 0.5253,
      "velocity": 90,
      "chip": "ym2612"
    },
    {
      "channel": 1,
      "note": 73,
      "start": 16.2713,
      "duration": 0.4636,
      "velocity": 90,
      "chip": "ym2612"
    },
    {
      "channel": 3,
      "note": 78,
      "start": 16.2717,
      "duration": 0.4636,
      "velocity": 90,
      "chip": "ym2612"
    },
    {
      "channel": 2,
      "note": 54,
      "start": 16.4102,
      "duration": 0.2774,
      "velocity": 114,
      "chip": "ym2612"
    },
    {
      "channel": 2,
      "note": 59,
      "start": 16.6877,
      "duration": 0.0314,
      "velocity": 114,
      "chip": "ym2612"
    },
    {
      "channel": 0,
      "note": 73,
      "start": 16.719,
      "duration": 0.1532,
      "velocity": 90,
      "chip": "ym2612"
    },
    {
      "channel": 2,
      "note": 61,
      "start": 16.7193,
      "duration": 0.0925,
      "velocity": 114,
      "chip": "ym2612"
    },
    {
      "channel": 4,
      "note": 78,
      "start": 16.7196,
      "duration": 0.1532,
      "velocity": 90,
      "chip": "ym2612"
    },
    {
      "channel": 1,
      "note": 73,
      "start": 16.735,
      "duration": 0.1532,
      "velocity": 90,
      "chip": "ym2612"
    },
    {
      "channel": 3,
      "note": 78,
      "start": 16.7354,
      "duration": 0.1532,
      "velocity": 90,
      "chip": "ym2612"
    },
    {
      "channel": 2,
      "note": 59,
      "start": 16.8119,
      "duration": 0.0302,
      "velocity": 114,
      "chip": "ym2612"
    },
    {
      "channel": 2,
      "note": 56,
      "start": 16.8423,
      "duration": 0.0302,
      "velocity": 114,
      "chip": "ym2612"
    },
    {
      "channel": 0,
      "note": 69,
      "start": 16.8723,
      "duration": 0.0926,
      "velocity": 90,
      "chip": "ym2612"
    },
    {
      "channel": 2,
      "note": 52,
      "start": 16.8727,
      "duration": 0.031,
      "velocity": 114,
      "chip": "ym2612"
    },
    {
      "channel": 4,
      "note": 74,
      "start": 16.873,
      "duration": 0.0926,
      "velocity": 90,
      "chip": "ym2612"
    },
    {
      "channel": 1,
      "note": 69,
      "start": 16.8884,
      "duration": 0.0928,
      "velocity": 90,
      "chip": "ym2612"
    },
    {
      "channel": 3,
      "note": 74,
      "start": 16.8887,
      "duration": 0.0928,
      "velocity": 90,
      "chip": "ym2612"
    },
    {
      "channel": 2,
      "note": 52,
      "start": 16.9038,
      "duration": 0.0311,
      "velocity": 114,
      "chip": "ym2612"
    },
    {
      "channel": 2,
      "note": 57,
      "start": 16.9351,
      "duration": 0.0302,
      "velocity": 114,
      "chip": "ym2612"
    },
    {
      "channel": 0,
      "note": 71,
      "start": 16.9651,
      "duration": 0.0929,
      "velocity": 90,
      "chip": "ym2612"
    },
    {
      "channel": 2,
      "note": 59,
      "start": 16.9654,
      "duration": 0.0616,
      "velocity": 114,
      "chip": "ym2612"
    },
    {
      "channel": 4,
      "note": 76,
      "start": 16.9658,
      "duration": 0.0929,
      "velocity": 90,
      "chip": "ym2612"
    },
    {
      "channel": 1,
      "note": 71,
      "start": 16.9813,
      "duration": 0.0924,
      "velocity": 90,
      "chip": "ym2612"
    },
    {
      "channel": 3,
      "note": 76,
      "start": 16.9816,
      "duration": 0.0924,
      "velocity": 90,
      "chip": "ym2612"
    },
    {
      "channel": 2,
      "note": 59,
      "start": 17.0272,
      "duration": 0.0312,
      "velocity": 114,
      "chip": "ym2612"
    },
    {
      "channel": 0,
      "note": 73,
      "start": 17.0582,
      "duration": 0.061,
      "velocity": 90,
      "chip": "ym2612"
    },
    {
      "channel": 2,
      "note": 57,
      "start": 17.0585,
      "duration": 0.0307,
      "velocity": 114,
      "chip": "ym2612"
    },
    {
      "channel": 4,
      "note": 76,
      "start": 17.0588,
      "duration": 0.061,
      "velocity": 90,
      "chip": "ym2612"
    },
    {
      "channel": 1,
      "note": 73,
      "start": 17.0739,
      "duration": 0.0615,
      "velocity": 90,
      "chip": "ym2612"
    },
    {
      "channel": 3,
      "note": 76,
      "start": 17.0742,
      "duration": 0.0615,
      "velocity": 90,
      "chip": "ym2612"
    },
    {
      "channel": 2,
      "note": 56,
      "start": 17.0893,
      "duration": 0.0302,
      "velocity": 114,
      "chip": "ym2612"
    },
    {
      "channel": 0,
      "note": 73,
      "start": 17.1193,
      "duration": 0.0927,
      "velocity": 90,
      "chip": "ym2612"
    },
    {
      "channel": 2,
      "note": 54,
      "start": 17.1197,
      "duration": 0.0312,
      "velocity": 114,
      "chip": "ym2612"
    },
    {
      "channel": 4,
      "note": 78,
      "start": 17.12,
      "duration": 0.0927,
      "velocity": 90,
      "chip": "ym2612"
    },
    {
      "channel": 1,
      "note": 73,
      "start": 17.1356,
      "duration": 0.0927,
      "velocity": 90,
      "chip": "ym2612"
    },
    {
      "channel": 3,
      "note": 78,
      "start": 17.1359,
      "duration": 0.0927,
      "velocity": 90,
      "chip": "ym2612"
    },
    {
      "channel": 2,
      "note": 54,
      "start": 17.151,
      "duration": 0.031,
      "velocity": 114,
      "chip": "ym2612"
    },
    {
      "channel": 2,
      "note": 59,
      "start": 17.1821,
      "duration": 0.0302,
      "velocity": 114,
      "chip": "ym2612"
    },
    {
      "channel": 0,
      "note": 73,
      "start": 17.2122,
      "duration": 0.1533,
      "velocity": 90,
      "chip": "ym2612"
    },
    {
      "channel": 2,
      "note": 61,
      "start": 17.2125,
      "duration": 0.0927,
      "velocity": 114,
      "chip": "ym2612"
    },
    {
      "channel": 4,
      "note": 78,
      "start": 17.2129,
      "duration": 0.1533,
      "velocity": 90,
      "chip": "ym2612"
    },
    {
      "channel": 1,
      "note": 73,
      "start": 17.2284,
      "duration": 0.1538,
      "velocity": 90,
      "chip": "ym2612"
    },
    {
      "channel": 3,
      "note": 78,
      "start": 17.2287,
      "duration": 0.1538,
      "velocity": 90,
      "chip": "ym2612"
    },
    {
      "channel": 2,
      "note": 61,
      "start": 17.3054,
      "duration": 0.0302,
      "velocity": 114,
      "chip": "ym2612"
    },
    {
      "channel": 2,
      "note": 59,
      "start": 17.3357,
      "duration": 0.0301,
      "velocity": 114,
      "chip": "ym2612"
    },
    {
      "channel": 0,
      "note": 78,
      "start": 17.3657,
      "duration": 0.0325,
      "velocity": 90,
      "chip": "ym2612"
    },
    {
      "channel": 2,
      "note": 52,
      "start": 17.366,
      "duration": 0.0325,
      "velocity": 114,
      "chip": "ym2612"
    },
    {
      "channel": 4,
      "note": 83,
      "start": 17.3663,
      "duration": 0.0325,
      "velocity": 90,
      "chip": "ym2612"
    },
    {
      "channel": 1,
      "note": 78,
      "start": 17.3823,
      "duration": 0.0324,
      "velocity": 90,
      "chip": "ym2612"
    },
    {
      "channel": 3,
      "note": 83,
      "start": 17.3826,
      "duration": 0.0324,
      "velocity": 90,
      "chip": "ym2612"
    },
    {
      "channel": 0,
      "note": 71,
      "start": 17.3983,
      "duration": 0.0325,
      "velocity": 90,
      "chip": "ym2612"
    },
    {
      "channel": 2,
      "note": 52,
      "start": 17.3986,
      "duration": 0.0323,
      "velocity": 114,
      "chip": "ym2612"
    },
    {
      "channel": 4,
      "note": 76,
      "start": 17.3989,
      "duration": 0.0321,
      "velocity": 90,
      "chip": "ym2612"
    },
    {
      "channel": 1,
      "note": 71,
      "start": 17.4148,
      "duration": 0.0312,
      "velocity": 90,
      "chip": "ym2612"
    },
    {
      "channel": 3,
      "note": 76,
      "start": 17.4151,
      "duration": 0.031,
      "velocity": 90,
      "chip": "ym2612"
    },
    {
      "channel": 0,
      "note": 71,
      "start": 17.4621,
      "duration": 0.0325,
      "velocity": 90,
      "chip": "ym2612"
    },
    {
      "channel": 2,
      "note": 52,
      "start": 17.4624,
      "duration": 0.0324,
      "velocity": 114,
      "chip": "ym2612"
    },
    {
      "channel": 4,
      "note": 76,
      "start": 17.4628,
      "duration": 0.0325,
      "velocity": 90,
      "chip": "ym2612"
    },
    {
      "channel": 1,
      "note": 71,
      "start": 17.4788,
      "duration": 0.0323,
      "velocity": 90,
      "chip": "ym2612"
    },
    {
      "channel": 3,
      "note": 76,
      "start": 17.4791,
      "duration": 0.0324,
      "velocity": 90,
      "chip": "ym2612"
    },
    {
      "channel": 0,
      "note": 78,
      "start": 17.4947,
      "duration": 0.0324,
      "velocity": 90,
      "chip": "ym2612"
    },
    {
      "channel": 2,
      "note": 52,
      "start": 17.4951,
      "duration": 0.0324,
      "velocity": 114,
      "chip": "ym2612"
    },
    {
      "channel": 4,
      "note": 83,
      "start": 17.4954,
      "duration": 0.0325,
      "velocity": 90,
      "chip": "ym2612"
    },
    {
      "channel": 1,
      "note": 78,
      "start": 17.5113,
      "duration": 0.0325,
      "velocity": 90,
      "chip": "ym2612"
    },
    {
      "channel": 3,
      "note": 83,
      "start": 17.5116,
      "duration": 0.0325,
      "velocity": 90,
      "chip": "ym2612"
    },
    {
      "channel": 0,
      "note": 71,
      "start": 17.5273,
      "duration": 0.0327,
      "velocity": 90,
      "chip": "ym2612"
    },
    {
      "channel": 2,
      "note": 52,
      "start": 17.5277,
      "duration": 0.0325,
      "velocity": 114,
      "chip": "ym2612"
    },
    {
      "channel": 4,
      "note": 76,
      "start": 17.528,
      "duration": 0.0324,
      "velocity": 90,
      "chip": "ym2612"
    },
    {
      "channel": 1,
      "note": 71,
      "start": 17.5439,
      "duration": 0.0314,
      "velocity": 90,
      "chip": "ym2612"
    },
    {
      "channel": 3,
      "note": 76,
      "start": 17.5443,
      "duration": 0.0312,
      "velocity": 90,
      "chip": "ym2612"
    },
    {
      "channel": 0,
      "note": 78,
      "start": 17.6302,
      "duration": 0.1546,
      "velocity": 90,
      "chip": "ym2612"
    },
    {
      "channel": 2,
      "note": 54,
      "start": 17.6305,
      "duration": 0.1546,
      "velocity": 114,
      "chip": "ym2612"
    },
    {
      "channel": 1,
      "note": 78,
      "start": 17.6464,
      "duration": 0.2773,
      "velocity": 90,
      "chip": "ym2612"
    },
    {
      "channel": 0,
      "note": 78,
      "start": 17.785,
      "duration": 0.2774,
      "velocity": 90,
      "chip": "ym2612"
    },
    {
      "channel": 2,
      "note": 54,
      "start": 17.7853,
      "duration": 0.2773,
      "velocity": 114,
      "chip": "ym2612"
    },
    {
      "channel": 1,
      "note": 78,
      "start": 17.9238,
      "duration": 0.156,
      "velocity": 90,
      "chip": "ym2612"
    },
    {
      "channel": 0,
      "note": 80,
      "start": 18.0625,
      "duration": 0.0323,
      "velocity": 90,
      "chip": "ym2612"
    },
    {
      "channel": 1,
      "note": 80,
      "start": 18.08,
      "duration": 0.0835,
      "velocity": 90,
      "chip": "ym2612"
    },
    {
      "channel": 0,
      "note": 81,
      "start": 18.095,
      "duration": 0.6402,
      "velocity": 90,
      "chip": "ym2612"
    },
    {
      "channel": 2,
      "note": 54,
      "start": 18.0953,
      "duration": 0.207,
      "velocity": 114,
      "chip": "ym2612"
    },
    {
      "channel": 1,
      "note": 81,
      "start": 18.1636,
      "duration": 0.5887,
      "velocity": 90,
      "chip": "ym2612"
    },
    {
      "channel": 2,
      "note": 54,
      "start": 18.3025,
      "duration": 0.1553,
      "velocity": 114,
      "chip": "ym2612"
    },
    {
      "channel": 2,
      "note": 54,
      "start": 18.4579,
      "duration": 0.2776,
      "velocity": 114,
      "chip": "ym2612"
    },
    {
      "channel": 0,
      "note": 80,
      "start": 18.7353,
      "duration": 0.0322,
      "velocity": 90,
      "chip": "ym2612"
    },
    {
      "channel": 1,
      "note": 80,
      "start": 18.7525,
      "duration": 0.1345,
      "velocity": 90,
      "chip": "ym2612"
    },
    {
      "channel": 0,
      "note": 78,
      "start": 18.7676,
      "duration": 0.2581,
      "velocity": 90,
      "chip": "ym2612"
    },
    {
      "channel": 1,
      "note": 78,
      "start": 18.8872,
      "duration": 0.1553,
      "velocity": 90,
      "chip": "ym2612"
    },
    {
      "channel": 0,
      "note": 76,
      "start": 19.0259,
      "duration": 0.1553,
      "velocity": 90,
      "chip": "ym2612"
    },
    {
      "channel": 2,
      "note": 52,
      "start": 19.0262,
      "duration": 0.1553,
      "velocity": 114,
      "chip": "ym2612"
    },
    {
      "channel": 1,
      "note": 76,
      "start": 19.0426,
      "duration": 0.2774,
      "velocity": 90,
      "chip": "ym2612"
    },
    {
      "channel": 0,
      "note": 76,
      "start": 19.1814,
      "duration": 0.2774,
      "velocity": 90,
      "chip": "ym2612"
    },
    {
      "channel": 2,
      "note": 52,
      "start": 19.1817,
      "duration": 0.2773,
      "velocity": 114,
      "chip": "ym2612"
    },
    {
      "channel": 1,
      "note": 76,
      "start": 19.3202,
      "duration": 0.156,
      "velocity": 90,
      "chip": "ym2612"
    },
    {
      "channel": 0,
      "note": 78,
      "start": 19.4589,
      "duration": 0.0323,
      "velocity": 90,
      "chip": "ym2612"
    },
    {
      "channel": 1,
      "note": 78,
      "start": 19.4763,
      "duration": 0.0835,
      "velocity": 90,
      "chip": "ym2612"
    },
    {
      "channel": 0,
      "note": 73,
      "start": 19.4914,
      "duration": 0.3626,
      "velocity": 90,
      "chip": "ym2612"
    },
    {
      "channel": 2,
      "note": 52,
      "start": 19.4917,
      "duration": 0.207,
      "velocity": 114,
      "chip": "ym2612"
    },
    {
      "channel": 1,
      "note": 73,
      "start": 19.56,
      "duration": 0.4329,
      "velocity": 90,
      "chip": "ym2612"
    },
    {
      "channel": 2,
      "note": 52,
      "start": 19.6988,
      "duration": 0.1555,
      "velocity": 114,
      "chip": "ym2612"
    },
    {
      "channel": 0,
      "note": 71,
      "start": 19.8541,
      "duration": 0.2774,
      "velocity": 90,
      "chip": "ym2612"
    },
    {
      "channel": 2,
      "note": 52,
      "start": 19.8544,
      "duration": 0.2773,
      "velocity": 114,
      "chip": "ym2612"
    },
    {
      "channel": 1,
      "note": 71,
      "start": 19.993,
      "duration": 0.156,
      "velocity": 90,
      "chip": "ym2612"
    },
    {
      "channel": 0,
      "note": 69,
      "start": 20.1317,
      "duration": 0.0323,
      "velocity": 90,
      "chip": "ym2612"
    },
    {
      "channel": 1,
      "note": 69,
      "start": 20.1491,
      "duration": 0.1344,
      "velocity": 90,
      "chip": "ym2612"
    },
    {
      "channel": 0,
      "note": 71,
      "start": 20.1641,
      "duration": 0.2581,
      "velocity": 90,
      "chip": "ym2612"
    },
    {
      "channel": 2,
      "note": 52,
      "start": 20.1644,
      "duration": 0.2581,
      "velocity": 114,
      "chip": "ym2612"
    },
    {
      "channel": 1,
      "note": 71,
      "start": 20.2836,
      "duration": 0.1553,
      "velocity": 90,
      "chip": "ym2612"
    },
    {
      "channel": 0,
      "note": 73,
      "start": 20.4223,
      "duration": 1.3962,
      "velocity": 90,
      "chip": "ym2612"
    },
    {
      "channel": 2,
      "note": 54,
      "start": 20.4227,
      "duration": 0.1551,
      "velocity": 114,
      "chip": "ym2612"
    },
    {
      "channel": 1,
      "note": 73,
      "start": 20.439,
      "duration": 1.3963,
      "velocity": 90,
      "chip": "ym2612"
    },
    {
      "channel": 2,
      "note": 54,
      "start": 20.5779,
      "duration": 0.2773,
      "velocity": 114,
      "chip": "ym2612"
    },
    {
      "channel": 2,
      "note": 54,
      "start": 20.8876,
      "duration": 0.2076,
      "velocity": 114,
      "chip": "ym2612"
    },
    {
      "channel": 2,
      "note": 54,
      "start": 21.0954,
      "duration": 0.1553,
      "velocity": 114,
      "chip": "ym2612"
    },
    {
      "channel": 2,
      "note": 54,
      "start": 21.2508,
      "duration": 0.2773,
      "velocity": 114,
      "chip": "ym2612"
    },
    {
      "channel": 2,
      "note": 54,
      "start": 21.5602,
      "duration": 0.2586,
      "velocity": 114,
      "chip": "ym2612"
    },
    {
      "channel": 0,
      "note": 76,
      "start": 21.8187,
      "duration": 0.1554,
      "velocity": 90,
      "chip": "ym2612"
    },
    {
      "channel": 2,
      "note": 49,
      "start": 21.819,
      "duration": 0.1554,
      "velocity": 114,
      "chip": "ym2612"
    },
    {
      "channel": 1,
      "note": 76,
      "start": 21.8355,
      "duration": 0.2774,
      "velocity": 90,
      "chip": "ym2612"
    },
    {
      "channel": 0,
      "note": 76,
      "start": 21.9743,
      "duration": 0.2774,
      "velocity": 90,
      "chip": "ym2612"
    },
    {
      "channel": 2,
      "note": 49,
      "start": 21.9746,
      "duration": 0.2773,
      "velocity": 114,
      "chip": "ym2612"
    },
    {
      "channel": 1,
      "note": 76,
      "start": 22.1131,
      "duration": 0.156,
      "velocity": 90,
      "chip": "ym2612"
    },
    {
      "channel": 0,
      "note": 76,
      "start": 22.2518,
      "duration": 0.0323,
      "velocity": 90,
      "chip": "ym2612"
    },
    {
      "channel": 1,
      "note": 76,
      "start": 22.2692,
      "duration": 0.0835,
      "velocity": 90,
      "chip": "ym2612"
    },
    {
      "channel": 0,
      "note": 73,
      "start": 22.2842,
      "duration": 0.3627,
      "velocity": 90,
      "chip": "ym2612"
    },
    {
      "channel": 2,
      "note": 49,
      "start": 22.2846,
      "duration": 0.207,
      "velocity": 114,
      "chip": "ym2612"
    },
    {
      "channel": 1,
      "note": 73,
      "start": 22.3529,
      "duration": 0.4329,
      "velocity": 90,
      "chip": "ym2612"
    },
    {
      "channel": 2,
      "note": 52,
      "start": 22.4917,
      "duration": 0.1556,
      "velocity": 114,
      "chip": "ym2612"
    },
    {
      "channel": 0,
      "note": 73,
      "start": 22.6471,
      "duration": 0.2774,
      "velocity": 90,
      "chip": "ym2612"
    },
    {
      "channel": 2,
      "note": 52,
      "start": 22.6474,
      "duration": 0.2773,
      "velocity": 114,
      "chip": "ym2612"
    },
    {
      "channel": 1,
      "note": 73,
      "start": 22.7859,
      "duration": 0.1559,
      "velocity": 90,
      "chip": "ym2612"
    },
    {
      "channel": 0,
      "note": 78,
      "start": 22.9246,
      "duration": 0.0322,
      "velocity": 90,
      "chip": "ym2612"
    },
    {
      "channel": 1,
      "note": 78,
      "start": 22.942,
      "duration": 0.1344,
      "velocity": 90,
      "chip": "ym2612"
    },
    {
      "channel": 0,
      "note": 80,
      "start": 22.957,
      "duration": 0.2581,
      "velocity": 90,
      "chip": "ym2612"
    },
    {
      "channel": 1,
      "note": 80,
      "start": 23.0765,
      "duration": 0.1553,
      "velocity": 90,
      "chip": "ym2612"
    },
    {
      "channel": 0,
      "note": 81,
      "start": 23.2152,
      "duration": 0.1553,
      "velocity": 90,
      "chip": "ym2612"
    },
    {
      "channel": 2,
      "note": 54,
      "start": 23.2156,
      "duration": 0.1553,
      "velocity": 114,
      "chip": "ym2612"
    },
    {
      "channel": 1,
      "note": 81,
      "start": 23.2319,
      "duration": 0.2774,
      "velocity": 90,
      "chip": "ym2612"
    },
    {
      "channel": 0,
      "note": 81,
      "start": 23.3706,
      "duration": 0.2774,
      "velocity": 90,
      "chip": "ym2612"
    },
    {
      "channel": 2,
      "note": 54,
      "start": 23.371,
      "duration": 0.2773,
      "velocity": 114,
      "chip": "ym2612"
    },
    {
      "channel": 1,
      "note": 81,
      "start": 23.5095,
      "duration": 0.1559,
      "velocity": 90,
      "chip": "ym2612"
    },
    {
      "channel": 0,
      "note": 81,
      "start": 23.6482,
      "duration": 0.0322,
      "velocity": 90,
      "chip": "ym2612"
    },
    {
      "channel": 1,
      "note": 81,
      "start": 23.6655,
      "duration": 0.0836,
      "velocity": 90,
      "chip": "ym2612"
    },
    {
      "channel": 0,
      "note": 78,
      "start": 23.6805,
      "duration": 0.6403,
      "velocity": 90,
      "chip": "ym2612"
    },
    {
      "channel": 2,
      "note": 54,
      "start": 23.6808,
      "duration": 0.2071,
      "velocity": 114,
      "chip": "ym2612"
    },
    {
      "channel": 1,
      "note": 78,
      "start": 23.7492,
      "duration": 0.589,
      "velocity": 90,
      "chip": "ym2612"
    },
    {
      "channel": 2,
      "note": 54,
      "start": 23.888,
      "duration": 0.1554,
      "velocity": 114,
      "chip": "ym2612"
    },
    {
      "channel": 2,
      "note": 54,
      "start": 24.0436,
      "duration": 0.2775,
      "velocity": 114,
      "chip": "ym2612"
    },
    {
      "channel": 0,
      "note": 80,
      "start": 24.321,
      "duration": 0.0324,
      "velocity": 90,
      "chip": "ym2612"
    },
    {
      "channel": 1,
      "note": 80,
      "start": 24.3383,
      "duration": 0.1345,
      "velocity": 90,
      "chip": "ym2612"
    },
    {
      "channel": 0,
      "note": 81,
      "start": 24.3535,
      "duration": 0.2581,
      "velocity": 90,
      "chip": "ym2612"
    },
    {
      "channel": 1,
      "note": 81,
      "start": 24.473,
      "duration": 0.1554,
      "velocity": 90,
      "chip": "ym2612"
    },
    {
      "channel": 0,
      "note": 83,
      "start": 24.6117,
      "duration": 0.1554,
      "velocity": 90,
      "chip": "ym2612"
    },
    {
      "channel": 2,
      "note": 52,
      "start": 24.612,
      "duration": 0.1554,
      "velocity": 114,
      "chip": "ym2612"
    },
    {
      "channel": 1,
      "note": 83,
      "start": 24.6285,
      "duration": 0.2774,
      "velocity": 90,
      "chip": "ym2612"
    },
    {
      "channel": 0,
      "note": 83,
      "start": 24.7672,
      "duration": 0.2774,
      "velocity": 90,
      "chip": "ym2612"
    },
    {
      "channel": 2,
      "note": 52,
      "start": 24.7676,
      "duration": 0.2773,
      "velocity": 114,
      "chip": "ym2612"
    },
    {
      "channel": 1,
      "note": 83,
      "start": 24.9061,
      "duration": 0.1559,
      "velocity": 90,
      "chip": "ym2612"
    },
    {
      "channel": 0,
      "note": 83,
      "start": 25.0448,
      "duration": 0.0322,
      "velocity": 90,
      "chip": "ym2612"
    },
    {
      "channel": 1,
      "note": 83,
      "start": 25.0621,
      "duration": 0.0836,
      "velocity": 90,
      "chip": "ym2612"
    },
    {
      "channel": 0,
      "note": 76,
      "start": 25.0771,
      "duration": 0.3628,
      "velocity": 90,
      "chip": "ym2612"
    },
    {
      "channel": 2,
      "note": 52,
      "start": 25.0775,
      "duration": 0.2071,
      "velocity": 114,
      "chip": "ym2612"
    },
    {
      "channel": 1,
      "note": 76,
      "start": 25.1458,
      "duration": 0.4329,
      "velocity": 90,
      "chip": "ym2612"
    },
    {
      "channel": 2,
      "note": 52,
      "start": 25.2847,
      "duration": 0.1556,
      "velocity": 114,
      "chip": "ym2612"
    },
    {
      "channel": 0,
      "note": 83,
      "start": 25.44,
      "duration": 0.2774,
      "velocity": 90,
      "chip": "ym2612"
    },
    {
      "channel": 2,
      "note": 52,
      "start": 25.4404,
      "duration": 0.2774,
      "velocity": 114,
      "chip": "ym2612"
    },
    {
      "channel": 1,
      "note": 83,
      "start": 25.5789,
      "duration": 0.156,
      "velocity": 90,
      "chip": "ym2612"
    },
    {
      "channel": 0,
      "note": 81,
      "start": 25.7176,
      "duration": 0.0323,
      "velocity": 90,
      "chip": "ym2612"
    },
    {
      "channel": 1,
      "note": 81,
      "start": 25.735,
      "duration": 0.1344,
      "velocity": 90,
      "chip": "ym2612"
    },
    {
      "channel": 0,
      "note": 80,
      "start": 25.75,
      "duration": 0.258,
      "velocity": 90,
      "chip": "ym2612"
    },
    {
      "channel": 2,
      "note": 52,
      "start": 25.7504,
      "duration": 0.258,
      "velocity": 114,
      "chip": "ym2612"
    },
    {
      "channel": 1,
      "note": 80,
      "start": 25.8695,
      "duration": 0.1555,
      "velocity": 90,
      "chip": "ym2612"
    },
    {
      "channel": 0,
      "note": 78,
      "start": 26.0083,
      "duration": 0.1554,
      "velocity": 90,
      "chip": "ym2612"
    },
    {
      "channel": 2,
      "note": 54,
      "start": 26.0085,
      "duration": 0.1555,
      "velocity": 114,
      "chip": "ym2612"
    },
    {
      "channel": 1,
      "note": 78,
      "start": 26.0251,
      "duration": 0.2774,
      "velocity": 90,
      "chip": "ym2612"
    },
    {
      "channel": 0,
      "note": 81,
      "start": 26.1639,
      "duration": 0.2774,
      "velocity": 90,
      "chip": "ym2612"
    },
    {
      "channel": 2,
      "note": 54,
      "start": 26.1642,
      "duration": 0.2773,
      "velocity": 114,
      "chip": "ym2612"
    },
    {
      "channel": 1,
      "note": 81,
      "start": 26.3027,
      "duration": 0.156,
      "velocity": 90,
      "chip": "ym2612"
    },
    {
      "channel": 0,
      "note": 83,
      "start": 26.4414,
      "duration": 0.0323,
      "velocity": 90,
      "chip": "ym2612"
    },
    {
      "channel": 1,
      "note": 83,
      "start": 26.4589,
      "duration": 0.0835,
      "velocity": 90,
      "chip": "ym2612"
    },
    {
      "channel": 0,
      "note": 85,
      "start": 26.4739,
      "duration": 0.9307,
      "velocity": 90,
      "chip": "ym2612"
    },
    {
      "channel": 2,
      "note": 54,
      "start": 26.4742,
      "duration": 0.207,
      "velocity": 114,
      "chip": "ym2612"
    },
    {
      "channel": 1,
      "note": 85,
      "start": 26.5425,
      "duration": 0.879,
      "velocity": 90,
      "chip": "ym2612"
    },
    {
      "channel": 2,
      "note": 54,
      "start": 26.6813,
      "duration": 0.1553,
      "velocity": 114,
      "chip": "ym2612"
    },
    {
      "channel": 2,
      "note": 54,
      "start": 26.8368,
      "duration": 0.2773,
      "velocity": 114,
      "chip": "ym2612"
    },
    {
      "channel": 2,
      "note": 54,
      "start": 27.1463,
      "duration": 0.2586,
      "velocity": 114,
      "chip": "ym2612"
    },
    {
      "channel": 0,
      "note": 88,
      "start": 27.4048,
      "duration": 0.4329,
      "velocity": 90,
      "chip": "ym2612"
    },
    {
      "channel": 2,
      "note": 49,
      "start": 27.4051,
      "duration": 0.1552,
      "velocity": 114,
      "chip": "ym2612"
    },
    {
      "channel": 1,
      "note": 88,
      "start": 27.4216,
      "duration": 0.4335,
      "velocity": 90,
      "chip": "ym2612"
    },
    {
      "channel": 2,
      "note": 49,
      "start": 27.5604,
      "duration": 0.2775,
      "velocity": 114,
      "chip": "ym2612"
    },
    {
      "channel": 0,
      "note": 83,
      "start": 27.8378,
      "duration": 0.2398,
      "velocity": 90,
      "chip": "ym2612"
    },
    {
      "channel": 1,
      "note": 83,
      "start": 27.8552,
      "duration": 0.2392,
      "velocity": 90,
      "chip": "ym2612"
    },
    {
      "channel": 2,
      "note": 49,
      "start": 27.8704,
      "duration": 0.2075,
      "velocity": 114,
      "chip": "ym2612"
    },
    {
      "channel": 0,
      "note": 85,
      "start": 28.0777,
      "duration": 0.7236,
      "velocity": 90,
      "chip": "ym2612"
    },
    {
      "channel": 2,
      "note": 52,
      "start": 28.078,
      "duration": 0.1552,
      "velocity": 114,
      "chip": "ym2612"
    },
    {
      "channel": 1,
      "note": 85,
      "start": 28.0945,
      "duration": 0.7845,
      "velocity": 90,
      "chip": "ym2612"
    },
    {
      "channel": 2,
      "note": 52,
      "start": 28.2334,
      "duration": 0.2773,
      "velocity": 114,
      "chip": "ym2612"
    },
    {
      "channel": 0,
      "note": 90,
      "start": 28.8014,
      "duration": 0.2164,
      "velocity": 90,
      "chip": "ym2612"
    },
    {
      "channel": 2,
      "note": 50,
      "start": 28.8018,
      "duration": 0.2177,
      "velocity": 114,
      "chip": "ym2612"
    },
    {
      "channel": 3,
      "note": 90,
      "start": 28.8795,
      "duration": 0.2773,
      "velocity": 90,
      "chip": "ym2612"
    },
    {
      "channel": 0,
      "note": 85,
      "start": 29.018,
      "duration": 0.2774,
      "velocity": 90,
      "chip": "ym2612"
    },
    {
      "channel": 1,
      "note": 69,
      "start": 29.0194,
      "duration": 0.2763,
      "velocity": 98,
      "chip": "ym2612"
    },
    {
      "channel": 2,
      "note": 50,
      "start": 29.0196,
      "duration": 0.2762,
      "velocity": 114,
      "chip": "ym2612"
    },
    {
      "channel": 3,
      "note": 85,
      "start": 29.1569,
      "duration": 0.1553,
      "velocity": 90,
      "chip": "ym2612"
    },
    {
      "channel": 4,
      "note": 69,
      "start": 29.1584,
      "duration": 0.1541,
      "velocity": 98,
      "chip": "ym2612"
    },
    {
      "channel": 0,
      "note": 83,
      "start": 29.2955,
      "duration": 0.0319,
      "velocity": 90,
      "chip": "ym2612"
    },
    {
      "channel": 1,
      "note": 71,
      "start": 29.2958,
      "duration": 0.0319,
      "velocity": 98,
      "chip": "ym2612"
    },
    {
      "channel": 3,
      "note": 83,
      "start": 29.3124,
      "duration": 0.0312,
      "velocity": 90,
      "chip": "ym2612"
    },
    {
      "channel": 4,
      "note": 71,
      "start": 29.3127,
      "duration": 0.0312,
      "velocity": 98,
      "chip": "ym2612"
    },
    {
      "channel": 0,
      "note": 85,
      "start": 29.3276,
      "duration": 0.092,
      "velocity": 90,
      "chip": "ym2612"
    },
    {
      "channel": 1,
      "note": 73,
      "start": 29.3278,
      "duration": 0.1235,
      "velocity": 98,
      "chip": "ym2612"
    },
    {
      "channel": 2,
      "note": 50,
      "start": 29.3281,
      "duration": 0.0308,
      "velocity": 114,
      "chip": "ym2612"
    },
    {
      "channel": 3,
      "note": 85,
      "start": 29.3438,
      "duration": 0.0922,
      "velocity": 90,
      "chip": "ym2612"
    },
    {
      "channel": 4,
      "note": 73,
      "start": 29.344,
      "duration": 0.1228,
      "velocity": 98,
      "chip": "ym2612"
    },
    {
      "channel": 2,
      "note": 50,
      "start": 29.359,
      "duration": 0.0304,
      "velocity": 114,
      "chip": "ym2612"
    },
    {
      "channel": 2,
      "note": 50,
      "start": 29.3896,
      "duration": 0.0302,
      "velocity": 114,
      "chip": "ym2612"
    },
    {
      "channel": 0,
      "note": 81,
      "start": 29.4197,
      "duration": 0.0315,
      "velocity": 90,
      "chip": "ym2612"
    },
    {
      "channel": 3,
      "note": 81,
      "start": 29.4362,
      "duration": 0.0305,
      "velocity": 90,
      "chip": "ym2612"
    },
    {
      "channel": 0,
      "note": 85,
      "start": 29.4513,
      "duration": 0.0304,
      "velocity": 90,
      "chip": "ym2612"
    },
    {
      "channel": 2,
      "note": 50,
      "start": 29.4516,
      "duration": 0.0303,
      "velocity": 114,
      "chip": "ym2612"
    },
    {
      "channel": 3,
      "note": 85,
      "start": 29.4668,
      "duration": 0.031,
      "velocity": 90,
      "chip": "ym2612"
    },
    {
      "channel": 0,
      "note": 83,
      "start": 29.4818,
      "duration": 0.031,
      "velocity": 90,
      "chip": "ym2612"
    },
    {
      "channel": 2,
      "note": 52,
      "start": 29.4821,
      "duration": 0.0312,
      "velocity": 114,
      "chip": "ym2612"
    },
    {
      "channel": 3,
      "note": 83,
      "start": 29.498,
      "duration": 0.0305,
      "velocity": 90,
      "chip": "ym2612"
    },
    {
      "channel": 0,
      "note": 80,
      "start": 29.5129,
      "duration": 0.0309,
      "velocity": 90,
      "chip": "ym2612"
    },
    {
      "channel": 1,
      "note": 73,
      "start": 29.5132,
      "duration": 0.0309,
      "velocity": 98,
      "chip": "ym2612"
    },
    {
      "channel": 2,
      "note": 52,
      "start": 29.5134,
      "duration": 0.0308,
      "velocity": 114,
      "chip": "ym2612"
    },
    {
      "channel": 3,
      "note": 80,
      "start": 29.5287,
      "duration": 0.0318,
      "velocity": 90,
      "chip": "ym2612"
    },
    {
      "channel": 4,
      "note": 73,
      "start": 29.5289,
      "duration": 0.0318,
      "velocity": 98,
      "chip": "ym2612"
    },
    {
      "channel": 0,
      "note": 78,
      "start": 29.5439,
      "duration": 0.0317,
      "velocity": 90,
      "chip": "ym2612"
    },
    {
      "channel": 1,
      "note": 74,
      "start": 29.5442,
      "duration": 0.0317,
      "velocity": 98,
      "chip": "ym2612"
    },
    {
      "channel": 3,
      "note": 78,
      "start": 29.5606,
      "duration": 0.0313,
      "velocity": 90,
      "chip": "ym2612"
    },
    {
      "channel": 4,
      "note": 74,
      "start": 29.5609,
      "duration": 0.0313,
      "velocity": 98,
      "chip": "ym2612"
    },
    {
      "channel": 0,
      "note": 76,
      "start": 29.5758,
      "duration": 0.0619,
      "velocity": 90,
      "chip": "ym2612"
    },
    {
      "channel": 1,
      "note": 76,
      "start": 29.576,
      "duration": 0.124,
      "velocity": 98,
      "chip": "ym2612"
    },
    {
      "channel": 2,
      "note": 52,
      "start": 29.5763,
      "duration": 0.031,
      "velocity": 114,
      "chip": "ym2612"
    },
    {
      "channel": 3,
      "note": 76,
      "start": 29.5921,
      "duration": 0.0611,
      "velocity": 90,
      "chip": "ym2612"
    },
    {
      "channel": 4,
      "note": 76,
      "start": 29.5924,
      "duration": 0.1232,
      "velocity": 98,
      "chip": "ym2612"
    },
    {
      "channel": 2,
      "note": 52,
      "start": 29.6074,
      "duration": 0.0306,
      "velocity": 114,
      "chip": "ym2612"
    },
    {
      "channel": 0,
      "note": 76,
      "start": 29.6378,
      "duration": 0.0303,
      "velocity": 90,
      "chip": "ym2612"
    },
    {
      "channel": 2,
      "note": 52,
      "start": 29.6381,
      "duration": 0.0303,
      "velocity": 114,
      "chip": "ym2612"
    },
    {
      "channel": 3,
      "note": 76,
      "start": 29.6534,
      "duration": 0.0303,
      "velocity": 90,
      "chip": "ym2612"
    },
    {
      "channel": 0,
      "note": 81,
      "start": 29.6683,
      "duration": 0.0315,
      "velocity": 90,
      "chip": "ym2612"
    },
    {
      "channel": 3,
      "note": 81,
      "start": 29.6838,
      "duration": 0.0315,
      "velocity": 90,
      "chip": "ym2612"
    },
    {
      "channel": 0,
      "note": 85,
      "start": 29.6999,
      "duration": 0.0304,
      "velocity": 90,
      "chip": "ym2612"
    },
    {
      "channel": 2,
      "note": 52,
      "start": 29.7003,
      "duration": 0.0303,
      "velocity": 114,
      "chip": "ym2612"
    },
    {
      "channel": 3,
      "note": 85,
      "start": 29.7154,
      "duration": 0.0312,
      "velocity": 90,
      "chip": "ym2612"
    },
    {
      "channel": 0,
      "note": 78,
      "start": 29.7304,
      "duration": 0.1549,
      "velocity": 90,
      "chip": "ym2612"
    },
    {
      "channel": 2,
      "note": 49,
      "start": 29.7307,
      "duration": 0.0312,
      "velocity": 114,
      "chip": "ym2612"
    },
    {
      "channel": 3,
      "note": 78,
      "start": 29.7468,
      "duration": 0.1541,
      "velocity": 90,
      "chip": "ym2612"
    },
    {
      "channel": 1,
      "note": 74,
      "start": 29.7618,
      "duration": 0.0303,
      "velocity": 98,
      "chip": "ym2612"
    },
    {
      "channel": 2,
      "note": 49,
      "start": 29.7621,
      "duration": 0.0302,
      "velocity": 114,
      "chip": "ym2612"
    },
    {
      "channel": 4,
      "note": 74,
      "start": 29.7773,
      "duration": 0.0302,
      "velocity": 98,
      "chip": "ym2612"
    },
    {
      "channel": 1,
      "note": 76,
      "start": 29.7922,
      "duration": 0.0314,
      "velocity": 98,
      "chip": "ym2612"
    },
    {
      "channel": 4,
      "note": 76,
      "start": 29.8077,
      "duration": 0.032,
      "velocity": 98,
      "chip": "ym2612"
    },
    {
      "channel": 1,
      "note": 78,
      "start": 29.8237,
      "duration": 0.0923,
      "velocity": 98,
      "chip": "ym2612"
    },
    {
      "channel": 2,
      "note": 49,
      "start": 29.824,
      "duration": 0.0307,
      "velocity": 114,
      "chip": "ym2612"
    },
    {
      "channel": 4,
      "note": 78,
      "start": 29.8398,
      "duration": 0.0919,
      "velocity": 98,
      "chip": "ym2612"
    },
    {
      "channel": 2,
      "note": 49,
      "start": 29.8548,
      "duration": 0.0309,
      "velocity": 114,
      "chip": "ym2612"
    },
    {
      "channel": 0,
      "note": 78,
      "start": 29.8855,
      "duration": 0.0303,
      "velocity": 90,
      "chip": "ym2612"
    },
    {
      "channel": 2,
      "note": 49,
      "start": 29.8858,
      "duration": 0.0304,
      "velocity": 114,
      "chip": "ym2612"
    },
    {
      "channel": 3,
      "note": 78,
      "start": 29.901,
      "duration": 0.0305,
      "velocity": 90,
      "chip": "ym2612"
    },
    {
      "channel": 0,
      "note": 81,
      "start": 29.9159,
      "duration": 0.0318,
      "velocity": 90,
      "chip": "ym2612"
    },
    {
      "channel": 1,
      "note": 73,
      "start": 29.9162,
      "duration": 0.0623,
      "velocity": 98,
      "chip": "ym2612"
    },
    {
      "channel": 3,
      "note": 81,
      "start": 29.9316,
      "duration": 0.0317,
      "velocity": 90,
      "chip": "ym2612"
    },
    {
      "channel": 4,
      "note": 73,
      "start": 29.9319,
      "duration": 0.0629,
      "velocity": 98,
      "chip": "ym2612"
    },
    {
      "channel": 0,
      "note": 85,
      "start": 29.9479,
      "duration": 0.0304,
      "velocity": 90,
      "chip": "ym2612"
    },
    {
      "channel": 2,
      "note": 49,
      "start": 29.9482,
      "duration": 0.0305,
      "velocity": 114,
      "chip": "ym2612"
    },
    {
      "channel": 3,
      "note": 85,
      "start": 29.9634,
      "duration": 0.0311,
      "velocity": 90,
      "chip": "ym2612"
    },
    {
      "channel": 0,
      "note": 76,
      "start": 29.9784,
      "duration": 0.1839,
      "velocity": 90,
      "chip": "ym2612"
    },
    {
      "channel": 1,
      "note": 71,
      "start": 29.9786,
      "duration": 0.1839,
      "velocity": 98,
      "chip": "ym2612"
    },
    {
      "channel": 2,
      "note": 54,
      "start": 29.9789,
      "duration": 0.0309,
      "velocity": 114,
      "chip": "ym2612"
    },
    {
      "channel": 3,
      "note": 76,
      "start": 29.9946,
      "duration": 0.1839,
      "velocity": 90,
      "chip": "ym2612"
    },
    {
      "channel": 4,
      "note": 71,
      "start": 29.9949,
      "duration": 0.1839,
      "velocity": 98,
      "chip": "ym2612"
    },
    {
      "channel": 2,
      "note": 54,
      "start": 30.0099,
      "duration": 0.03,
      "velocity": 114,
      "chip": "ym2612"
    },
    {
      "channel": 2,
      "note": 54,
      "start": 30.0712,
      "duration": 0.0307,
      "velocity": 114,
      "chip": "ym2612"
    },
    {
      "channel": 2,
      "note": 52,
      "start": 30.102,
      "duration": 0.0607,
      "velocity": 114,
      "chip": "ym2612"
    },
    {
      "channel": 0,
      "note": 81,
      "start": 30.1624,
      "duration": 0.0323,
      "velocity": 90,
      "chip": "ym2612"
    },
    {
      "channel": 2,
      "note": 49,
      "start": 30.1628,
      "duration": 0.0723,
      "velocity": 114,
      "chip": "ym2612"
    },
    {
      "channel": 3,
      "note": 81,
      "start": 30.1787,
      "duration": 0.0313,
      "velocity": 90,
      "chip": "ym2612"
    },
    {
      "channel": 0,
      "note": 83,
      "start": 30.1949,
      "duration": 0.0399,
      "velocity": 90,
      "chip": "ym2612"
    },
    {
      "channel": 3,
      "note": 83,
      "start": 30.2101,
      "duration": 0.0409,
      "velocity": 90,
      "chip": "ym2612"
    },
    {
      "channel": 0,
      "note": 90,
      "start": 30.2349,
      "duration": 0.0311,
      "velocity": 90,
      "chip": "ym2612"
    },
    {
      "channel": 2,
      "note": 50,
      "start": 30.2352,
      "duration": 0.0313,
      "velocity": 114,
      "chip": "ym2612"
    },
    {
      "channel": 3,
      "note": 90,
      "start": 30.2512,
      "duration": 0.0306,
      "velocity": 90,
      "chip": "ym2612"
    },
    {
      "channel": 0,
      "note": 85,
      "start": 30.2661,
      "duration": 0.0307,
      "velocity": 90,
      "chip": "ym2612"
    },
    {
      "channel": 1,
      "note": 66,
      "start": 30.2664,
      "duration": 0.0307,
      "velocity": 98,
      "chip": "ym2612"
    },
    {
      "channel": 2,
      "note": 50,
      "start": 30.2666,
      "duration": 0.0307,
      "velocity": 114,
      "chip": "ym2612"
    },
    {
      "channel": 3,
      "note": 85,
      "start": 30.2819,
      "duration": 0.0307,
      "velocity": 90,
      "chip": "ym2612"
    },
    {
      "channel": 4,
      "note": 66,
      "start": 30.2822,
      "duration": 0.0306,
      "velocity": 98,
      "chip": "ym2612"
    },
    {
      "channel": 0,
      "note": 83,
      "start": 30.297,
      "duration": 0.0318,
      "velocity": 90,
      "chip": "ym2612"
    },
    {
      "channel": 1,
      "note": 68,
      "start": 30.2973,
      "duration": 0.0318,
      "velocity": 98,
      "chip": "ym2612"
    },
    {
      "channel": 3,
      "note": 83,
      "start": 30.3127,
      "duration": 0.0324,
      "velocity": 90,
      "chip": "ym2612"
    },
    {
      "channel": 4,
      "note": 68,
      "start": 30.3129,
      "duration": 0.0325,
      "velocity": 98,
      "chip": "ym2612"
    },
    {
      "channel": 0,
      "note": 85,
      "start": 30.329,
      "duration": 0.0921,
      "velocity": 90,
      "chip": "ym2612"
    },
    {
      "channel": 1,
      "note": 69,
      "start": 30.3293,
      "duration": 0.1236,
      "velocity": 98,
      "chip": "ym2612"
    },
    {
      "channel": 2,
      "note": 50,
      "start": 30.3295,
      "duration": 0.0309,
      "velocity": 114,
      "chip": "ym2612"
    },
    {
      "channel": 3,
      "note": 85,
      "start": 30.3453,
      "duration": 0.0913,
      "velocity": 90,
      "chip": "ym2612"
    },
    {
      "channel": 4,
      "note": 69,
      "start": 30.3455,
      "duration": 0.1229,
      "velocity": 98,
      "chip": "ym2612"
    },
    {
      "channel": 2,
      "note": 50,
      "start": 30.3606,
      "duration": 0.0305,
      "velocity": 114,
      "chip": "ym2612"
    },
    {
      "channel": 2,
      "note": 50,
      "start": 30.3912,
      "duration": 0.0301,
      "velocity": 114,
      "chip": "ym2612"
    },
    {
      "channel": 0,
      "note": 81,
      "start": 30.4212,
      "duration": 0.0314,
      "velocity": 90,
      "chip": "ym2612"
    },
    {
      "channel": 3,
      "note": 81,
      "start": 30.4367,
      "duration": 0.0316,
      "velocity": 90,
      "chip": "ym2612"
    },
    {
      "channel": 0,
      "note": 85,
      "start": 30.4528,
      "duration": 0.0304,
      "velocity": 90,
      "chip": "ym2612"
    },
    {
      "channel": 2,
      "note": 50,
      "start": 30.4532,
      "duration": 0.0304,
      "velocity": 114,
      "chip": "ym2612"
    },
    {
      "channel": 3,
      "note": 85,
      "start": 30.4684,
      "duration": 0.031,
      "velocity": 90,
      "chip": "ym2612"
    },
    {
      "channel": 0,
      "note": 83,
      "start": 30.4834,
      "duration": 0.0309,
      "velocity": 90,
      "chip": "ym2612"
    },
    {
      "channel": 2,
      "note": 52,
      "start": 30.4837,
      "duration": 0.0311,
      "velocity": 114,
      "chip": "ym2612"
    },
    {
      "channel": 3,
      "note": 83,
      "start": 30.4995,
      "duration": 0.0305,
      "velocity": 90,
      "chip": "ym2612"
    },
    {
      "channel": 0,
      "note": 80,
      "start": 30.5144,
      "duration": 0.0309,
      "velocity": 90,
      "chip": "ym2612"
    },
    {
      "channel": 1,
      "note": 68,
      "start": 30.5147,
      "duration": 0.0309,
      "velocity": 98,
      "chip": "ym2612"
    },
    {
      "channel": 2,
      "note": 52,
      "start": 30.5149,
      "duration": 0.0308,
      "velocity": 114,
      "chip": "ym2612"
    },
    {
      "channel": 3,
      "note": 80,
      "start": 30.5301,
      "duration": 0.0308,
      "velocity": 90,
      "chip": "ym2612"
    },
    {
      "channel": 4,
      "note": 68,
      "start": 30.5304,
      "duration": 0.0308,
      "velocity": 98,
      "chip": "ym2612"
    },
    {
      "channel": 0,
      "note": 78,
      "start": 30.5454,
      "duration": 0.0307,
      "velocity": 90,
      "chip": "ym2612"
    },
    {
      "channel": 1,
      "note": 69,
      "start": 30.5457,
      "duration": 0.0307,
      "velocity": 98,
      "chip": "ym2612"
    },
    {
      "channel": 3,
      "note": 78,
      "start": 30.5611,
      "duration": 0.0314,
      "velocity": 90,
      "chip": "ym2612"
    },
    {
      "channel": 4,
      "note": 69,
      "start": 30.5613,
      "duration": 0.0314,
      "velocity": 98,
      "chip": "ym2612"
    },
    {
      "channel": 0,
      "note": 76,
      "start": 30.5762,
      "duration": 0.0632,
      "velocity": 90,
      "chip": "ym2612"
    },
    {
      "channel": 1,
      "note": 71,
      "start": 30.5765,
      "duration": 0.1244,
      "velocity": 98,
      "chip": "ym2612"
    },
    {
      "channel": 2,
      "note": 52,
      "start": 30.5767,
      "duration": 0.0321,
      "velocity": 114,
      "chip": "ym2612"
    },
    {
      "channel": 3,
      "note": 76,
      "start": 30.5926,
      "duration": 0.0624,
      "velocity": 90,
      "chip": "ym2612"
    },
    {
      "channel": 4,
      "note": 71,
      "start": 30.5929,
      "duration": 0.1235,
      "velocity": 98,
      "chip": "ym2612"
    },
    {
      "channel": 2,
      "note": 52,
      "start": 30.609,
      "duration": 0.0307,
      "velocity": 114,
      "chip": "ym2612"
    },
    {
      "channel": 0,
      "note": 76,
      "start": 30.6395,
      "duration": 0.0304,
      "velocity": 90,
      "chip": "ym2612"
    },
    {
      "channel": 2,
      "note": 52,
      "start": 30.6398,
      "duration": 0.0304,
      "velocity": 114,
      "chip": "ym2612"
    },
    {
      "channel": 3,
      "note": 76,
      "start": 30.6551,
      "duration": 0.0306,
      "velocity": 90,
      "chip": "ym2612"
    },
    {
      "channel": 0,
      "note": 81,
      "start": 30.67,
      "duration": 0.0306,
      "velocity": 90,
      "chip": "ym2612"
    },
    {
      "channel": 2,
      "note": 57,
      "start": 30.6704,
      "duration": 0.0306,
      "velocity": 114,
      "chip": "ym2612"
    },
    {
      "channel": 3,
      "note": 81,
      "start": 30.6858,
      "duration": 0.0303,
      "velocity": 90,
      "chip": "ym2612"
    },
    {
      "channel": 0,
      "note": 85,
      "start": 30.7008,
      "duration": 0.0314,
      "velocity": 90,
      "chip": "ym2612"
    },
    {
      "channel": 2,
      "note": 61,
      "start": 30.7011,
      "duration": 0.0314,
      "velocity": 114,
      "chip": "ym2612"
    },
    {
      "channel": 3,
      "note": 85,
      "start": 30.7163,
      "duration": 0.0321,
      "velocity": 90,
      "chip": "ym2612"
    },
    {
      "channel": 0,
      "note": 78,
      "start": 30.7324,
      "duration": 0.1551,
      "velocity": 90,
      "chip": "ym2612"
    },
    {
      "channel": 2,
      "note": 54,
      "start": 30.7327,
      "duration": 0.031,
      "velocity": 114,
      "chip": "ym2612"
    },
    {
      "channel": 3,
      "note": 78,
      "start": 30.7486,
      "duration": 0.1546,
      "velocity": 90,
      "chip": "ym2612"
    },
    {
      "channel": 1,
      "note": 69,
      "start": 30.7636,
      "duration": 0.0303,
      "velocity": 98,
      "chip": "ym2612"
    },
    {
      "channel": 2,
      "note": 54,
      "start": 30.7639,
      "duration": 0.0303,
      "velocity": 114,
      "chip": "ym2612"
    },
    {
      "channel": 4,
      "note": 69,
      "start": 30.7791,
      "duration": 0.0303,
      "velocity": 98,
      "chip": "ym2612"
    },
    {
      "channel": 1,
      "note": 71,
      "start": 30.7941,
      "duration": 0.0303,
      "velocity": 98,
      "chip": "ym2612"
    },
    {
      "channel": 4,
      "note": 71,
      "start": 30.8096,
      "duration": 0.031,
      "velocity": 98,
      "chip": "ym2612"
    },
    {
      "channel": 1,
      "note": 73,
      "start": 30.8246,
      "duration": 0.0631,
      "velocity": 98,
      "chip": "ym2612"
    },
    {
      "channel": 2,
      "note": 54,
      "start": 30.8248,
      "duration": 0.0318,
      "velocity": 114,
      "chip": "ym2612"
    },
    {
      "channel": 4,
      "note": 73,
      "start": 30.8408,
      "duration": 0.0627,
      "velocity": 98,
      "chip": "ym2612"
    },
    {
      "channel": 2,
      "note": 54,
      "start": 30.8568,
      "duration": 0.0312,
      "velocity": 114,
      "chip": "ym2612"
    },
    {
      "channel": 0,
      "note": 78,
      "start": 30.8876,
      "duration": 0.0308,
      "velocity": 90,
      "chip": "ym2612"
    },
    {
      "channel": 1,
      "note": 71,
      "start": 30.8878,
      "duration": 0.0308,
      "velocity": 98,
      "chip": "ym2612"
    },
    {
      "channel": 2,
      "note": 54,
      "start": 30.8881,
      "duration": 0.0307,
      "velocity": 114,
      "chip": "ym2612"
    },
    {
      "channel": 3,
      "note": 78,
      "start": 30.9033,
      "duration": 0.0307,
      "velocity": 90,
      "chip": "ym2612"
    },
    {
      "channel": 4,
      "note": 71,
      "start": 30.9036,
      "duration": 0.0307,
      "velocity": 98,
      "chip": "ym2612"
    },
    {
      "channel": 0,
      "note": 81,
      "start": 30.9185,
      "duration": 0.0306,
      "velocity": 90,
      "chip": "ym2612"
    },
    {
      "channel": 1,
      "note": 73,
      "start": 30.9187,
      "duration": 0.0306,
      "velocity": 98,
      "chip": "ym2612"
    },
    {
      "channel": 3,
      "note": 81,
      "start": 30.9341,
      "duration": 0.0307,
      "velocity": 90,
      "chip": "ym2612"
    },
    {
      "channel": 4,
      "note": 73,
      "start": 30.9344,
      "duration": 0.0307,
      "velocity": 98,
      "chip": "ym2612"
    },
    {
      "channel": 0,
      "note": 85,
      "start": 30.9493,
      "duration": 0.0309,
      "velocity": 90,
      "chip": "ym2612"
    },
    {
      "channel": 1,
      "note": 74,
      "start": 30.9495,
      "duration": 0.0309,
      "velocity": 98,
      "chip": "ym2612"
    },
    {
      "channel": 2,
      "note": 54,
      "start": 30.9498,
      "duration": 0.0309,
      "velocity": 114,
      "chip": "ym2612"
    },
    {
      "channel": 3,
      "note": 85,
      "start": 30.965,
      "duration": 0.0324,
      "velocity": 90,
      "chip": "ym2612"
    },
    {
      "channel": 4,
      "note": 74,
      "start": 30.9653,
      "duration": 0.0324,
      "velocity": 98,
      "chip": "ym2612"
    },
    {
      "channel": 0,
      "note": 76,
      "start": 30.9803,
      "duration": 0.1855,
      "velocity": 90,
      "chip": "ym2612"
    },
    {
      "channel": 1,
      "note": 71,
      "start": 30.9805,
      "duration": 0.1239,
      "velocity": 98,
      "chip": "ym2612"
    },
    {
      "channel": 2,
      "note": 50,
      "start": 30.9808,
      "duration": 0.032,
      "velocity": 114,
      "chip": "ym2612"
    },
    {
      "channel": 3,
      "note": 76,
      "start": 30.9976,
      "duration": 0.1844,
      "velocity": 90,
      "chip": "ym2612"
    },
    {
      "channel": 4,
      "note": 71,
      "start": 30.9978,
      "duration": 0.1228,
      "velocity": 98,
      "chip": "ym2612"
    },
    {
      "channel": 2,
      "note": 50,
      "start": 31.0129,
      "duration": 0.0298,
      "velocity": 114,
      "chip": "ym2612"
    },
    {
      "channel": 2,
      "note": 50,
      "start": 31.073,
      "duration": 0.0317,
      "velocity": 114,
      "chip": "ym2612"
    },
    {
      "channel": 1,
      "note": 68,
      "start": 31.1046,
      "duration": 0.133,
      "velocity": 98,
      "chip": "ym2612"
    },
    {
      "channel": 2,
      "note": 52,
      "start": 31.1049,
      "duration": 0.0307,
      "velocity": 114,
      "chip": "ym2612"
    },
    {
      "channel": 4,
      "note": 68,
      "start": 31.1208,
      "duration": 0.0765,
      "velocity": 98,
      "chip": "ym2612"
    },
    {
      "channel": 2,
      "note": 52,
      "start": 31.1357,
      "duration": 0.0303,
      "velocity": 114,
      "chip": "ym2612"
    },
    {
      "channel": 0,
      "note": 81,
      "start": 31.1659,
      "duration": 0.031,
      "velocity": 90,
      "chip": "ym2612"
    },
    {
      "channel": 2,
      "note": 49,
      "start": 31.1662,
      "duration": 0.0715,
      "velocity": 114,
      "chip": "ym2612"
    },
    {
      "channel": 3,
      "note": 81,
      "start": 31.1821,
      "duration": 0.0302,
      "velocity": 90,
      "chip": "ym2612"
    },
    {
      "channel": 0,
      "note": 83,
      "start": 31.1971,
      "duration": 0.0403,
      "velocity": 90,
      "chip": "ym2612"
    },
    {
      "channel": 3,
      "note": 83,
      "start": 31.2125,
      "duration": 0.0255,
      "velocity": 90,
      "chip": "ym2612"
    },
    {
      "channel": 0,
      "note": 73,
      "start": 31.2375,
      "duration": 0.2119,
      "velocity": 90,
      "chip": "ym2612"
    },
    {
      "channel": 2,
      "note": 54,
      "start": 31.2379,
      "duration": 0.0335,
      "velocity": 114,
      "chip": "ym2612"
    },
    {
      "channel": 4,
      "note": 78,
      "start": 31.2395,
      "duration": 0.2105,
      "velocity": 90,
      "chip": "ym2612"
    },
    {
      "channel": 3,
      "note": 78,
      "start": 31.2563,
      "duration": 0.271,
      "velocity": 90,
      "chip": "ym2612"
    },
    {
      "channel": 2,
      "note": 54,
      "start": 31.2715,
      "duration": 0.0309,
      "velocity": 114,
      "chip": "ym2612"
    },
    {
      "channel": 2,
      "note": 59,
      "start": 31.3025,
      "duration": 0.1472,
      "velocity": 114,
      "chip": "ym2612"
    },
    {
      "channel": 0,
      "note": 73,
      "start": 31.4495,
      "duration": 1.1434,
      "velocity": 90,
      "chip": "ym2612"
    },
    {
      "channel": 2,
      "note": 61,
      "start": 31.4498,
      "duration": 0.7102,
      "velocity": 114,
      "chip": "ym2612"
    },
    {
      "channel": 4,
      "note": 78,
      "start": 31.4502,
      "duration": 1.1434,
      "velocity": 90,
      "chip": "ym2612"
    },
    {
      "channel": 3,
      "note": 78,
      "start": 31.5275,
      "duration": 1.1435,
      "velocity": 90,
      "chip": "ym2612"
    },
    {
      "channel": 2,
      "note": 59,
      "start": 32.1602,
      "duration": 0.1553,
      "velocity": 114,
      "chip": "ym2612"
    },
    {
      "channel": 2,
      "note": 56,
      "start": 32.3157,
      "duration": 0.2776,
      "velocity": 114,
      "chip": "ym2612"
    },
    {
      "channel": 0,
      "note": 69,
      "start": 32.5931,
      "duration": 0.6494,
      "velocity": 90,
      "chip": "ym2612"
    },
    {
      "channel": 2,
      "note": 52,
      "start": 32.5934,
      "duration": 0.2162,
      "velocity": 114,
      "chip": "ym2612"
    },
    {
      "channel": 4,
      "note": 74,
      "start": 32.5937,
      "duration": 0.6494,
      "velocity": 90,
      "chip": "ym2612"
    },
    {
      "channel": 3,
      "note": 74,
      "start": 32.6711,
      "duration": 0.6494,
      "velocity": 90,
      "chip": "ym2612"
    },
    {
      "channel": 2,
      "note": 52,
      "start": 32.8098,
      "duration": 0.2774,
      "velocity": 114,
      "chip": "ym2612"
    },
    {
      "channel": 2,
      "note": 57,
      "start": 33.0873,
      "duration": 0.1555,
      "velocity": 114,
      "chip": "ym2612"
    },
    {
      "channel": 0,
      "note": 71,
      "start": 33.2427,
      "duration": 0.7105,
      "velocity": 90,
      "chip": "ym2612"
    },
    {
      "channel": 2,
      "note": 59,
      "start": 33.243,
      "duration": 0.4327,
      "velocity": 114,
      "chip": "ym2612"
    },
    {
      "channel": 4,
      "note": 76,
      "start": 33.2433,
      "duration": 0.7105,
      "velocity": 90,
      "chip": "ym2612"
    },
    {
      "channel": 3,
      "note": 76,
      "start": 33.3206,
      "duration": 0.6493,
      "velocity": 90,
      "chip": "ym2612"
    },
    {
      "channel": 2,
      "note": 59,
      "start": 33.6758,
      "duration": 0.2776,
      "velocity": 114,
      "chip": "ym2612"
    },
    {
      "channel": 0,
      "note": 73,
      "start": 33.9533,
      "duration": 0.4328,
      "velocity": 90,
      "chip": "ym2612"
    },
    {
      "channel": 2,
      "note": 57,
      "start": 33.9536,
      "duration": 0.1551,
      "velocity": 114,
      "chip": "ym2612"
    },
    {
      "channel": 4,
      "note": 76,
      "start": 33.9539,
      "duration": 0.4328,
      "velocity": 90,
      "chip": "ym2612"
    },
    {
      "channel": 3,
      "note": 76,
      "start": 33.9701,
      "duration": 0.4939,
      "velocity": 90,
      "chip": "ym2612"
    },
    {
      "channel": 2,
      "note": 56,
      "start": 34.1088,
      "duration": 0.2776,
      "velocity": 114,
      "chip": "ym2612"
    },
    {
      "channel": 0,
      "note": 73,
      "start": 34.3862,
      "duration": 0.6494,
      "velocity": 90,
      "chip": "ym2612"
    },
    {
      "channel": 2,
      "note": 54,
      "start": 34.3865,
      "duration": 0.2162,
      "velocity": 114,
      "chip": "ym2612"
    },
    {
      "channel": 4,
      "note": 78,
      "start": 34.3868,
      "duration": 0.6494,
      "velocity": 90,
      "chip": "ym2612"
    },
    {
      "channel": 3,
      "note": 78,
      "start": 34.4641,
      "duration": 0.6494,
      "velocity": 90,
      "chip": "ym2612"
    },
    {
      "channel": 2,
      "note": 54,
      "start": 34.6028,
      "duration": 0.2774,
      "velocity": 114,
      "chip": "ym2612"
    },
    {
      "channel": 2,
      "note": 59,
      "start": 34.8804,
      "duration": 0.1556,
      "velocity": 114,
      "chip": "ym2612"
    },
    {
      "channel": 0,
      "note": 73,
      "start": 35.0357,
      "duration": 1.1435,
      "velocity": 90,
      "chip": "ym2612"
    },
    {
      "channel": 2,
      "note": 61,
      "start": 35.0361,
      "duration": 0.7103,
      "velocity": 114,
      "chip": "ym2612"
    },
    {
      "channel": 4,
      "note": 78,
      "start": 35.0364,
      "duration": 1.1437,
      "velocity": 90,
      "chip": "ym2612"
    },
    {
      "channel": 3,
      "note": 78,
      "start": 35.1137,
      "duration": 1.1435,
      "velocity": 90,
      "chip": "ym2612"
    },
    {
      "channel": 2,
      "note": 61,
      "start": 35.7465,
      "duration": 0.1554,
      "velocity": 114,
      "chip": "ym2612"
    },
    {
      "channel": 2,
      "note": 59,
      "start": 35.902,
      "duration": 0.2778,
      "velocity": 114,
      "chip": "ym2612"
    },
    {
      "channel": 0,
      "note": 69,
      "start": 36.1794,
      "duration": 0.6494,
      "velocity": 90,
      "chip": "ym2612"
    },
    {
      "channel": 1,
      "note": 83,
      "start": 36.1797,
      "duration": 0.6494,
      "velocity": 98,
      "chip": "ym2612"
    },
    {
      "channel": 2,
      "note": 64,
      "start": 36.1799,
      "duration": 0.216,
      "velocity": 114,
      "chip": "ym2612"
    },
    {
      "channel": 4,
      "note": 74,
      "start": 36.1802,
      "duration": 0.6494,
      "velocity": 90,
      "chip": "ym2612"
    },
    {
      "channel": 3,
      "note": 74,
      "start": 36.2573,
      "duration": 0.6496,
      "velocity": 90,
      "chip": "ym2612"
    },
    {
      "channel": 2,
      "note": 62,
      "start": 36.396,
      "duration": 0.2774,
      "velocity": 114,
      "chip": "ym2612"
    },
    {
      "channel": 2,
      "note": 57,
      "start": 36.6736,
      "duration": 0.1557,
      "velocity": 114,
      "chip": "ym2612"
    },
    {
      "channel": 0,
      "note": 71,
      "start": 36.829,
      "duration": 0.7104,
      "velocity": 90,
      "chip": "ym2612"
    },
    {
      "channel": 1,
      "note": 83,
      "start": 36.8292,
      "duration": 0.0774,
      "velocity": 98,
      "chip": "ym2612"
    },
    {
      "channel": 2,
      "note": 59,
      "start": 36.8295,
      "duration": 0.4325,
      "velocity": 114,
      "chip": "ym2612"
    },
    {
      "channel": 4,
      "note": 76,
      "start": 36.8298,
      "duration": 0.7104,
      "velocity": 90,
      "chip": "ym2612"
    },
    {
      "channel": 1,
      "note": 80,
      "start": 36.9068,
      "duration": 0.1386,
      "velocity": 98,
      "chip": "ym2612"
    },
    {
      "channel": 3,
      "note": 76,
      "start": 36.9071,
      "duration": 0.6492,
      "velocity": 90,
      "chip": "ym2612"
    },
    {
      "channel": 1,
      "note": 76,
      "start": 37.0456,
      "duration": 0.4941,
      "velocity": 98,
      "chip": "ym2612"
    },
    {
      "channel": 2,
      "note": 59,
      "start": 37.2621,
      "duration": 0.2778,
      "velocity": 114,
      "chip": "ym2612"
    },
    {
      "channel": 0,
      "note": 69,
      "start": 37.5395,
      "duration": 0.4329,
      "velocity": 90,
      "chip": "ym2612"
    },
    {
      "channel": 1,
      "note": 73,
      "start": 37.5398,
      "duration": 0.4329,
      "velocity": 98,
      "chip": "ym2612"
    },
    {
      "channel": 2,
      "note": 57,
      "start": 37.54,
      "duration": 0.155,
      "velocity": 114,
      "chip": "ym2612"
    },
    {
      "channel": 4,
      "note": 73,
      "start": 37.5404,
      "duration": 0.4329,
      "velocity": 90,
      "chip": "ym2612"
    },
    {
      "channel": 3,
      "note": 73,
      "start": 37.5565,
      "duration": 0.4939,
      "velocity": 90,
      "chip": "ym2612"
    },
    {
      "channel": 2,
      "note": 56,
      "start": 37.6951,
      "duration": 0.2778,
      "velocity": 114,
      "chip": "ym2612"
    },
    {
      "channel": 0,
      "note": 73,
      "start": 37.9726,
      "duration": 0.5253,
      "velocity": 90,
      "chip": "ym2612"
    },
    {
      "channel": 1,
      "note": 78,
      "start": 37.9728,
      "duration": 0.9098,
      "velocity": 98,
      "chip": "ym2612"
    },
    {
      "channel": 2,
      "note": 54,
      "start": 37.9731,
      "duration": 0.216,
      "velocity": 114,
      "chip": "ym2612"
    },
    {
      "channel": 4,
      "note": 78,
      "start": 37.9734,
      "duration": 0.5251,
      "velocity": 90,
      "chip": "ym2612"
    },
    {
      "channel": 3,
      "note": 78,
      "start": 38.0505,
      "duration": 0.4636,
      "velocity": 90,
      "chip": "ym2612"
    },
    {
      "channel": 2,
      "note": 54,
      "start": 38.1892,
      "duration": 0.2774,
      "velocity": 114,
      "chip": "ym2612"
    },
    {
      "channel": 2,
      "note": 59,
      "start": 38.4668,
      "duration": 0.0314,
      "velocity": 114,
      "chip": "ym2612"
    },
    {
      "channel": 0,
      "note": 73,
      "start": 38.498,
      "duration": 0.1529,
      "velocity": 90,
      "chip": "ym2612"
    },
    {
      "channel": 2,
      "note": 61,
      "start": 38.4983,
      "duration": 0.0922,
      "velocity": 114,
      "chip": "ym2612"
    },
    {
      "channel": 4,
      "note": 78,
      "start": 38.4987,
      "duration": 0.1529,
      "velocity": 90,
      "chip": "ym2612"
    },
    {
      "channel": 3,
      "note": 78,
      "start": 38.5142,
      "duration": 0.153,
      "velocity": 90,
      "chip": "ym2612"
    },
    {
      "channel": 2,
      "note": 59,
      "start": 38.5907,
      "duration": 0.0302,
      "velocity": 114,
      "chip": "ym2612"
    },
    {
      "channel": 2,
      "note": 56,
      "start": 38.6211,
      "duration": 0.0302,
      "velocity": 114,
      "chip": "ym2612"
    },
    {
      "channel": 0,
      "note": 69,
      "start": 38.6511,
      "duration": 0.0924,
      "velocity": 90,
      "chip": "ym2612"
    },
    {
      "channel": 2,
      "note": 52,
      "start": 38.6514,
      "duration": 0.0308,
      "velocity": 114,
      "chip": "ym2612"
    },
    {
      "channel": 4,
      "note": 74,
      "start": 38.6518,
      "duration": 0.0924,
      "velocity": 90,
      "chip": "ym2612"
    },
    {
      "channel": 3,
      "note": 74,
      "start": 38.6673,
      "duration": 0.0924,
      "velocity": 90,
      "chip": "ym2612"
    },
    {
      "channel": 2,
      "note": 52,
      "start": 38.6824,
      "duration": 0.031,
      "velocity": 114,
      "chip": "ym2612"
    },
    {
      "channel": 2,
      "note": 57,
      "start": 38.7135,
      "duration": 0.0303,
      "velocity": 114,
      "chip": "ym2612"
    },
    {
      "channel": 0,
      "note": 71,
      "start": 38.7436,
      "duration": 0.093,
      "velocity": 90,
      "chip": "ym2612"
    },
    {
      "channel": 2,
      "note": 59,
      "start": 38.7439,
      "duration": 0.0615,
      "velocity": 114,
      "chip": "ym2612"
    },
    {
      "channel": 4,
      "note": 76,
      "start": 38.7443,
      "duration": 0.093,
      "velocity": 90,
      "chip": "ym2612"
    },
    {
      "channel": 3,
      "note": 76,
      "start": 38.76,
      "duration": 0.0925,
      "velocity": 90,
      "chip": "ym2612"
    },
    {
      "channel": 2,
      "note": 59,
      "start": 38.8056,
      "duration": 0.0313,
      "velocity": 114,
      "chip": "ym2612"
    },
    {
      "channel": 0,
      "note": 73,
      "start": 38.8368,
      "duration": 0.0607,
      "velocity": 90,
      "chip": "ym2612"
    },
    {
      "channel": 2,
      "note": 57,
      "start": 38.8371,
      "duration": 0.0305,
      "velocity": 114,
      "chip": "ym2612"
    },
    {
      "channel": 4,
      "note": 76,
      "start": 38.8374,
      "duration": 0.0609,
      "velocity": 90,
      "chip": "ym2612"
    },
    {
      "channel": 3,
      "note": 76,
      "start": 38.8526,
      "duration": 0.0626,
      "velocity": 90,
      "chip": "ym2612"
    },
    {
      "channel": 2,
      "note": 56,
      "start": 38.8677,
      "duration": 0.0302,
      "velocity": 114,
      "chip": "ym2612"
    },
    {
      "channel": 0,
      "note": 73,
      "start": 38.8977,
      "duration": 0.0941,
      "velocity": 90,
      "chip": "ym2612"
    },
    {
      "channel": 2,
      "note": 54,
      "start": 38.8981,
      "duration": 0.0324,
      "velocity": 114,
      "chip": "ym2612"
    },
    {
      "channel": 4,
      "note": 78,
      "start": 38.8984,
      "duration": 0.0939,
      "velocity": 90,
      "chip": "ym2612"
    },
    {
      "channel": 1,
      "note": 73,
      "start": 38.9151,
      "duration": 0.0928,
      "velocity": 90,
      "chip": "ym2612"
    },
    {
      "channel": 3,
      "note": 78,
      "start": 38.9154,
      "duration": 0.0928,
      "velocity": 90,
      "chip": "ym2612"
    },
    {
      "channel": 2,
      "note": 54,
      "start": 38.9306,
      "duration": 0.031,
      "velocity": 114,
      "chip": "ym2612"
    },
    {
      "channel": 2,
      "note": 59,
      "start": 38.9618,
      "duration": 0.0302,
      "velocity": 114,
      "chip": "ym2612"
    },
    {
      "channel": 0,
      "note": 73,
      "start": 38.9919,
      "duration": 0.1533,
      "velocity": 90,
      "chip": "ym2612"
    },
    {
      "channel": 2,
      "note": 61,
      "start": 38.9922,
      "duration": 0.0927,
      "velocity": 114,
      "chip": "ym2612"
    },
    {
      "channel": 4,
      "note": 78,
      "start": 38.9925,
      "duration": 0.1533,
      "velocity": 90,
      "chip": "ym2612"
    },
    {
      "channel": 1,
      "note": 73,
      "start": 39.008,
      "duration": 0.1538,
      "velocity": 90,
      "chip": "ym2612"
    },
    {
      "channel": 3,
      "note": 78,
      "start": 39.0083,
      "duration": 0.1538,
      "velocity": 90,
      "chip": "ym2612"
    },
    {
      "channel": 2,
      "note": 61,
      "start": 39.085,
      "duration": 0.0302,
      "velocity": 114,
      "chip": "ym2612"
    },
    {
      "channel": 2,
      "note": 59,
      "start": 39.1154,
      "duration": 0.0301,
      "velocity": 114,
      "chip": "ym2612"
    },
    {
      "channel": 0,
      "note": 78,
      "start": 39.1453,
      "duration": 0.0325,
      "velocity": 90,
      "chip": "ym2612"
    },
    {
      "channel": 2,
      "note": 52,
      "start": 39.1456,
      "duration": 0.0325,
      "velocity": 114,
      "chip": "ym2612"
    },
    {
      "channel": 4,
      "note": 83,
      "start": 39.1459,
      "duration": 0.0325,
      "velocity": 90,
      "chip": "ym2612"
    },
    {
      "channel": 1,
      "note": 78,
      "start": 39.1619,
      "duration": 0.0324,
      "velocity": 90,
      "chip": "ym2612"
    },
    {
      "channel": 3,
      "note": 83,
      "start": 39.1623,
      "duration": 0.0324,
      "velocity": 90,
      "chip": "ym2612"
    },
    {
      "channel": 0,
      "note": 71,
      "start": 39.1779,
      "duration": 0.0325,
      "velocity": 90,
      "chip": "ym2612"
    },
    {
      "channel": 2,
      "note": 52,
      "start": 39.1783,
      "duration": 0.0323,
      "velocity": 114,
      "chip": "ym2612"
    },
    {
      "channel": 4,
      "note": 76,
      "start": 39.1786,
      "duration": 0.0322,
      "velocity": 90,
      "chip": "ym2612"
    },
    {
      "channel": 1,
      "note": 71,
      "start": 39.1945,
      "duration": 0.0312,
      "velocity": 90,
      "chip": "ym2612"
    },
    {
      "channel": 3,
      "note": 76,
      "start": 39.1948,
      "duration": 0.031,
      "velocity": 90,
      "chip": "ym2612"
    },
    {
      "channel": 0,
      "note": 71,
      "start": 39.2419,
      "duration": 0.0325,
      "velocity": 90,
      "chip": "ym2612"
    },
    {
      "channel": 2,
      "note": 52,
      "start": 39.2422,
      "duration": 0.0325,
      "velocity": 114,
      "chip": "ym2612"
    },
    {
      "channel": 4,
      "note": 76,
      "start": 39.2425,
      "duration": 0.0325,
      "velocity": 90,
      "chip": "ym2612"
    },
    {
      "channel": 1,
      "note": 71,
      "start": 39.2585,
      "duration": 0.0323,
      "velocity": 90,
      "chip": "ym2612"
    },
    {
      "channel": 3,
      "note": 76,
      "start": 39.2588,
      "duration": 0.0324,
      "velocity": 90,
      "chip": "ym2612"
    },
    {
      "channel": 0,
      "note": 78,
      "start": 39.2745,
      "duration": 0.0324,
      "velocity": 90,
      "chip": "ym2612"
    },
    {
      "channel": 2,
      "note": 52,
      "start": 39.2748,
      "duration": 0.0324,
      "velocity": 114,
      "chip": "ym2612"
    },
    {
      "channel": 4,
      "note": 83,
      "start": 39.2751,
      "duration": 0.0324,
      "velocity": 90,
      "chip": "ym2612"
    },
    {
      "channel": 1,
      "note": 78,
      "start": 39.291,
      "duration": 0.0325,
      "velocity": 90,
      "chip": "ym2612"
    },
    {
      "channel": 3,
      "note": 83,
      "start": 39.2913,
      "duration": 0.0325,
      "velocity": 90,
      "chip": "ym2612"
    },
    {
      "channel": 0,
      "note": 71,
      "start": 39.3071,
      "duration": 0.0327,
      "velocity": 90,
      "chip": "ym2612"
    },
    {
      "channel": 2,
      "note": 52,
      "start": 39.3074,
      "duration": 0.0325,
      "velocity": 114,
      "chip": "ym2612"
    },
    {
      "channel": 4,
      "note": 76,
      "start": 39.3077,
      "duration": 0.0324,
      "velocity": 90,
      "chip": "ym2612"
    },
    {
      "channel": 1,
      "note": 71,
      "start": 39.3236,
      "duration": 0.0314,
      "velocity": 90,
      "chip": "ym2612"
    },
    {
      "channel": 3,
      "note": 76,
      "start": 39.324,
      "duration": 0.0312,
      "velocity": 90,
      "chip": "ym2612"
    }
  ]
}