{
  "track_name": "38 - Sigh & Tear",
  "duration_sec": 65.945,
  "sample_rate": 44100,
  "note_count": 531,
  "unique_pitches": 29,
  "pitch_range": 41,
  "avg_note_duration": 0.7301,
  "reconstruction_stats": {
    "notes_reconstructed": 531,
    "keyon_events": 531,
    "keyoff_events": 525,
    "orphan_keyons": 6,
    "unique_pitches": 29,
    "pitch_range": 41,
    "avg_duration_sec": 0.7301
  },
  "metadata": {
    "source": "S\\Sorcerian (Genesis)\\38 - Sigh & Tear.vgz"
  },
  "notes": [
    {
      "channel": 0,
      "note": 52,
      "start": 0.0,
      "duration": 0.3879,
      "velocity": 87,
      "chip": "ym2612"
    },
    {
      "channel": 5,
      "note": 40,
      "start": 0.0051,
      "duration": 0.3838,
      "velocity": 87,
      "chip": "ym2612"
    },
    {
      "channel": 0,
      "note": 64,
      "start": 0.3885,
      "duration": 0.4038,
      "velocity": 87,
      "chip": "ym2612"
    },
    {
      "channel": 5,
      "note": 44,
      "start": 0.3895,
      "duration": 0.4039,
      "velocity": 87,
      "chip": "ym2612"
    },
    {
      "channel": 2,
      "note": 52,
      "start": 0.3943,
      "duration": 0.3999,
      "velocity": 87,
      "chip": "ym2612"
    },
    {
      "channel": 0,
      "note": 59,
      "start": 0.7931,
      "duration": 0.4038,
      "velocity": 87,
      "chip": "ym2612"
    },
    {
      "channel": 5,
      "note": 47,
      "start": 0.794,
      "duration": 0.4112,
      "velocity": 87,
      "chip": "ym2612"
    },
    {
      "channel": 2,
      "note": 64,
      "start": 0.7948,
      "duration": 0.4111,
      "velocity": 87,
      "chip": "ym2612"
    },
    {
      "channel": 0,
      "note": 59,
      "start": 1.1975,
      "duration": 1.2128,
      "velocity": 87,
      "chip": "ym2612"
    },
    {
      "channel": 1,
      "note": 40,
      "start": 1.2008,
      "duration": 1.2103,
      "velocity": 106,
      "chip": "ym2612"
    },
    {
      "channel": 3,
      "note": 63,
      "start": 1.2042,
      "duration": 1.2075,
      "velocity": 106,
      "chip": "ym2612"
    },
    {
      "channel": 4,
      "note": 59,
      "start": 1.2051,
      "duration": 1.2073,
      "velocity": 106,
      "chip": "ym2612"
    },
    {
      "channel": 5,
      "note": 49,
      "start": 1.2058,
      "duration": 1.2071,
      "velocity": 87,
      "chip": "ym2612"
    },
    {
      "channel": 2,
      "note": 59,
      "start": 1.208,
      "duration": 0.395,
      "velocity": 87,
      "chip": "ym2612"
    },
    {
      "channel": 2,
      "note": 59,
      "start": 1.6037,
      "duration": 1.2128,
      "velocity": 87,
      "chip": "ym2612"
    },
    {
      "channel": 0,
      "note": 61,
      "start": 2.411,
      "duration": 0.8083,
      "velocity": 87,
      "chip": "ym2612"
    },
    {
      "channel": 1,
      "note": 40,
      "start": 2.4116,
      "duration": 1.6175,
      "velocity": 106,
      "chip": "ym2612"
    },
    {
      "channel": 3,
      "note": 63,
      "start": 2.4122,
      "duration": 2.0221,
      "velocity": 106,
      "chip": "ym2612"
    },
    {
      "channel": 4,
      "note": 59,
      "start": 2.4128,
      "duration": 2.0223,
      "velocity": 106,
      "chip": "ym2612"
    },
    {
      "channel": 5,
      "note": 52,
      "start": 2.4135,
      "duration": 0.8076,
      "velocity": 87,
      "chip": "ym2612"
    },
    {
      "channel": 2,
      "note": 61,
      "start": 2.8172,
      "duration": 0.8107,
      "velocity": 87,
      "chip": "ym2612"
    },
    {
      "channel": 0,
      "note": 52,
      "start": 3.22,
      "duration": 0.4054,
      "velocity": 87,
      "chip": "ym2612"
    },
    {
      "channel": 5,
      "note": 49,
      "start": 3.2217,
      "duration": 0.4055,
      "velocity": 87,
      "chip": "ym2612"
    },
    {
      "channel": 0,
      "note": 64,
      "start": 3.626,
      "duration": 0.4022,
      "velocity": 87,
      "chip": "ym2612"
    },
    {
      "channel": 5,
      "note": 56,
      "start": 3.6278,
      "duration": 0.4027,
      "velocity": 87,
      "chip": "ym2612"
    },
    {
      "channel": 2,
      "note": 52,
      "start": 3.6286,
      "duration": 0.4026,
      "velocity": 87,
      "chip": "ym2612"
    },
    {
      "channel": 0,
      "note": 59,
      "start": 4.0289,
      "duration": 0.4038,
      "velocity": 87,
      "chip": "ym2612"
    },
    {
      "channel": 1,
      "note": 39,
      "start": 4.0296,
      "duration": 0.4039,
      "velocity": 106,
      "chip": "ym2612"
    },
    {
      "channel": 5,
      "note": 52,
      "start": 4.0311,
      "duration": 0.4047,
      "velocity": 87,
      "chip": "ym2612"
    },
    {
      "channel": 2,
      "note": 64,
      "start": 4.0319,
      "duration": 0.4046,
      "velocity": 87,
      "chip": "ym2612"
    },
    {
      "channel": 0,
      "note": 59,
      "start": 4.4334,
      "duration": 1.2128,
      "velocity": 87,
      "chip": "ym2612"
    },
    {
      "channel": 1,
      "note": 37,
      "start": 4.4341,
      "duration": 1.2129,
      "velocity": 106,
      "chip": "ym2612"
    },
    {
      "channel": 3,
      "note": 63,
      "start": 4.4349,
      "duration": 1.2127,
      "velocity": 106,
      "chip": "ym2612"
    },
    {
      "channel": 4,
      "note": 59,
      "start": 4.4357,
      "duration": 1.2125,
      "velocity": 106,
      "chip": "ym2612"
    },
    {
      "channel": 5,
      "note": 49,
      "start": 4.4364,
      "duration": 1.2125,
      "velocity": 87,
      "chip": "ym2612"
    },
    {
      "channel": 2,
      "note": 59,
      "start": 4.4372,
      "duration": 0.4017,
      "velocity": 87,
      "chip": "ym2612"
    },
    {
      "channel": 2,
      "note": 59,
      "start": 4.8396,
      "duration": 1.2128,
      "velocity": 87,
      "chip": "ym2612"
    },
    {
      "channel": 0,
      "note": 61,
      "start": 5.6469,
      "duration": 0.8083,
      "velocity": 87,
      "chip": "ym2612"
    },
    {
      "channel": 1,
      "note": 37,
      "start": 5.6474,
      "duration": 1.6175,
      "velocity": 106,
      "chip": "ym2612"
    },
    {
      "channel": 3,
      "note": 63,
      "start": 5.6481,
      "duration": 2.0221,
      "velocity": 106,
      "chip": "ym2612"
    },
    {
      "channel": 4,
      "note": 59,
      "start": 5.6486,
      "duration": 2.0223,
      "velocity": 106,
      "chip": "ym2612"
    },
    {
      "channel": 5,
      "note": 57,
      "start": 5.6494,
      "duration": 0.809,
      "velocity": 87,
      "chip": "ym2612"
    },
    {
      "channel": 2,
      "note": 61,
      "start": 6.0531,
      "duration": 0.8091,
      "velocity": 87,
      "chip": "ym2612"
    },
    {
      "channel": 0,
      "note": 61,
      "start": 6.4558,
      "duration": 0.4038,
      "velocity": 87,
      "chip": "ym2612"
    },
    {
      "channel": 5,
      "note": 57,
      "start": 6.459,
      "duration": 0.4025,
      "velocity": 87,
      "chip": "ym2612"
    },
    {
      "channel": 0,
      "note": 59,
      "start": 6.8603,
      "duration": 0.4038,
      "velocity": 87,
      "chip": "ym2612"
    },
    {
      "channel": 5,
      "note": 56,
      "start": 6.8621,
      "duration": 0.4043,
      "velocity": 87,
      "chip": "ym2612"
    },
    {
      "channel": 2,
      "note": 61,
      "start": 6.8629,
      "duration": 0.4042,
      "velocity": 87,
      "chip": "ym2612"
    },
    {
      "channel": 0,
      "note": 57,
      "start": 7.2648,
      "duration": 0.4038,
      "velocity": 87,
      "chip": "ym2612"
    },
    {
      "channel": 1,
      "note": 35,
      "start": 7.2655,
      "duration": 0.4039,
      "velocity": 106,
      "chip": "ym2612"
    },
    {
      "channel": 5,
      "note": 49,
      "start": 7.267,
      "duration": 0.4046,
      "velocity": 87,
      "chip": "ym2612"
    },
    {
      "channel": 2,
      "note": 59,
      "start": 7.2678,
      "duration": 0.4046,
      "velocity": 87,
      "chip": "ym2612"
    },
    {
      "channel": 0,
      "note": 61,
      "start": 7.6693,
      "duration": 0.4038,
      "velocity": 87,
      "chip": "ym2612"
    },
    {
      "channel": 1,
      "note": 33,
      "start": 7.67,
      "duration": 1.2128,
      "velocity": 106,
      "chip": "ym2612"
    },
    {
      "channel": 3,
      "note": 64,
      "start": 7.6707,
      "duration": 1.2127,
      "velocity": 106,
      "chip": "ym2612"
    },
    {
      "channel": 4,
      "note": 61,
      "start": 7.6715,
      "duration": 1.2124,
      "velocity": 106,
      "chip": "ym2612"
    },
    {
      "channel": 5,
      "note": 57,
      "start": 7.6722,
      "duration": 0.4041,
      "velocity": 87,
      "chip": "ym2612"
    },
    {
      "channel": 2,
      "note": 57,
      "start": 7.673,
      "duration": 0.404,
      "velocity": 87,
      "chip": "ym2612"
    },
    {
      "channel": 0,
      "note": 59,
      "start": 8.0751,
      "duration": 0.2001,
      "velocity": 87,
      "chip": "ym2612"
    },
    {
      "channel": 5,
      "note": 54,
      "start": 8.0769,
      "duration": 0.2002,
      "velocity": 87,
      "chip": "ym2612"
    },
    {
      "channel": 2,
      "note": 61,
      "start": 8.0777,
      "duration": 0.4016,
      "velocity": 87,
      "chip": "ym2612"
    },
    {
      "channel": 0,
      "note": 57,
      "start": 8.2759,
      "duration": 1.4158,
      "velocity": 87,
      "chip": "ym2612"
    },
    {
      "channel": 5,
      "note": 54,
      "start": 8.2776,
      "duration": 1.416,
      "velocity": 87,
      "chip": "ym2612"
    },
    {
      "channel": 2,
      "note": 59,
      "start": 8.48,
      "duration": 0.2015,
      "velocity": 87,
      "chip": "ym2612"
    },
    {
      "channel": 2,
      "note": 57,
      "start": 8.6822,
      "duration": 1.4158,
      "velocity": 87,
      "chip": "ym2612"
    },
    {
      "channel": 1,
      "note": 33,
      "start": 8.8833,
      "duration": 1.6175,
      "velocity": 106,
      "chip": "ym2612"
    },
    {
      "channel": 3,
      "note": 64,
      "start": 8.8838,
      "duration": 2.0221,
      "velocity": 106,
      "chip": "ym2612"
    },
    {
      "channel": 4,
      "note": 61,
      "start": 8.8844,
      "duration": 2.0237,
      "velocity": 106,
      "chip": "ym2612"
    },
    {
      "channel": 0,
      "note": 54,
      "start": 9.6924,
      "duration": 0.403,
      "velocity": 87,
      "chip": "ym2612"
    },
    {
      "channel": 5,
      "note": 45,
      "start": 9.6942,
      "duration": 0.4031,
      "velocity": 87,
      "chip": "ym2612"
    },
    {
      "channel": 0,
      "note": 57,
      "start": 10.0961,
      "duration": 0.4038,
      "velocity": 87,
      "chip": "ym2612"
    },
    {
      "channel": 5,
      "note": 49,
      "start": 10.0979,
      "duration": 0.4043,
      "velocity": 87,
      "chip": "ym2612"
    },
    {
      "channel": 2,
      "note": 54,
      "start": 10.0987,
      "duration": 0.4042,
      "velocity": 87,
      "chip": "ym2612"
    },
    {
      "channel": 0,
      "note": 59,
      "start": 10.5006,
      "duration": 0.4039,
      "velocity": 87,
      "chip": "ym2612"
    },
    {
      "channel": 1,
      "note": 34,
      "start": 10.5013,
      "duration": 0.4039,
      "velocity": 106,
      "chip": "ym2612"
    },
    {
      "channel": 5,
      "note": 54,
      "start": 10.5028,
      "duration": 0.4061,
      "velocity": 87,
      "chip": "ym2612"
    },
    {
      "channel": 2,
      "note": 57,
      "start": 10.5035,
      "duration": 0.4061,
      "velocity": 87,
      "chip": "ym2612"
    },
    {
      "channel": 0,
      "note": 56,
      "start": 10.9051,
      "duration": 0.4038,
      "velocity": 87,
      "chip": "ym2612"
    },
    {
      "channel": 1,
      "note": 35,
      "start": 10.9058,
      "duration": 1.2124,
      "velocity": 106,
      "chip": "ym2612"
    },
    {
      "channel": 3,
      "note": 66,
      "start": 10.9079,
      "duration": 1.2109,
      "velocity": 106,
      "chip": "ym2612"
    },
    {
      "channel": 4,
      "note": 63,
      "start": 10.9087,
      "duration": 1.2107,
      "velocity": 106,
      "chip": "ym2612"
    },
    {
      "channel": 5,
      "note": 52,
      "start": 10.9095,
      "duration": 0.4013,
      "velocity": 87,
      "chip": "ym2612"
    },
    {
      "channel": 2,
      "note": 59,
      "start": 10.9102,
      "duration": 0.4013,
      "velocity": 87,
      "chip": "ym2612"
    },
    {
      "channel": 0,
      "note": 54,
      "start": 11.3096,
      "duration": 0.2018,
      "velocity": 87,
      "chip": "ym2612"
    },
    {
      "channel": 5,
      "note": 47,
      "start": 11.3114,
      "duration": 0.202,
      "velocity": 87,
      "chip": "ym2612"
    },
    {
      "channel": 2,
      "note": 56,
      "start": 11.3121,
      "duration": 0.403,
      "velocity": 87,
      "chip": "ym2612"
    },
    {
      "channel": 0,
      "note": 52,
      "start": 11.5121,
      "duration": 1.4147,
      "velocity": 87,
      "chip": "ym2612"
    },
    {
      "channel": 5,
      "note": 47,
      "start": 11.5138,
      "duration": 1.4149,
      "velocity": 87,
      "chip": "ym2612"
    },
    {
      "channel": 2,
      "note": 54,
      "start": 11.7158,
      "duration": 0.2016,
      "velocity": 87,
      "chip": "ym2612"
    },
    {
      "channel": 2,
      "note": 52,
      "start": 11.918,
      "duration": 1.4168,
      "velocity": 87,
      "chip": "ym2612"
    },
    {
      "channel": 1,
      "note": 35,
      "start": 12.1186,
      "duration": 1.2135,
      "velocity": 106,
      "chip": "ym2612"
    },
    {
      "channel": 3,
      "note": 66,
      "start": 12.1193,
      "duration": 1.2136,
      "velocity": 106,
      "chip": "ym2612"
    },
    {
      "channel": 4,
      "note": 63,
      "start": 12.1198,
      "duration": 1.2136,
      "velocity": 106,
      "chip": "ym2612"
    },
    {
      "channel": 0,
      "note": 52,
      "start": 12.9275,
      "duration": 0.4038,
      "velocity": 87,
      "chip": "ym2612"
    },
    {
      "channel": 5,
      "note": 47,
      "start": 12.9291,
      "duration": 0.4051,
      "velocity": 87,
      "chip": "ym2612"
    },
    {
      "channel": 0,
      "note": 64,
      "start": 13.332,
      "duration": 0.4038,
      "velocity": 87,
      "chip": "ym2612"
    },
    {
      "channel": 1,
      "note": 39,
      "start": 13.3327,
      "duration": 0.8103,
      "velocity": 106,
      "chip": "ym2612"
    },
    {
      "channel": 3,
      "note": 66,
      "start": 13.3333,
      "duration": 0.8104,
      "velocity": 106,
      "chip": "ym2612"
    },
    {
      "channel": 4,
      "note": 57,
      "start": 13.3341,
      "duration": 0.8104,
      "velocity": 106,
      "chip": "ym2612"
    },
    {
      "channel": 5,
      "note": 52,
      "start": 13.3348,
      "duration": 0.4029,
      "velocity": 87,
      "chip": "ym2612"
    },
    {
      "channel": 2,
      "note": 52,
      "start": 13.3356,
      "duration": 0.4028,
      "velocity": 87,
      "chip": "ym2612"
    },
    {
      "channel": 0,
      "note": 59,
      "start": 13.7365,
      "duration": 0.4055,
      "velocity": 87,
      "chip": "ym2612"
    },
    {
      "channel": 5,
      "note": 56,
      "start": 13.7383,
      "duration": 0.4069,
      "velocity": 87,
      "chip": "ym2612"
    },
    {
      "channel": 2,
      "note": 64,
      "start": 13.7391,
      "duration": 0.4068,
      "velocity": 87,
      "chip": "ym2612"
    },
    {
      "channel": 0,
      "note": 59,
      "start": 14.1427,
      "duration": 1.211,
      "velocity": 87,
      "chip": "ym2612"
    },
    {
      "channel": 1,
      "note": 40,
      "start": 14.1436,
      "duration": 1.211,
      "velocity": 106,
      "chip": "ym2612"
    },
    {
      "channel": 3,
      "note": 63,
      "start": 14.1443,
      "duration": 1.2109,
      "velocity": 106,
      "chip": "ym2612"
    },
    {
      "channel": 4,
      "note": 59,
      "start": 14.1451,
      "duration": 1.2107,
      "velocity": 106,
      "chip": "ym2612"
    },
    {
      "channel": 5,
      "note": 49,
      "start": 14.1458,
      "duration": 0.4004,
      "velocity": 87,
      "chip": "ym2612"
    },
    {
      "channel": 2,
      "note": 59,
      "start": 14.1466,
      "duration": 0.4003,
      "velocity": 87,
      "chip": "ym2612"
    },
    {
      "channel": 5,
      "note": 52,
      "start": 14.5467,
      "duration": 0.8097,
      "velocity": 87,
      "chip": "ym2612"
    },
    {
      "channel": 2,
      "note": 59,
      "start": 14.5476,
      "duration": 1.2125,
      "velocity": 87,
      "chip": "ym2612"
    },
    {
      "channel": 0,
      "note": 61,
      "start": 15.3544,
      "duration": 0.8082,
      "velocity": 87,
      "chip": "ym2612"
    },
    {
      "channel": 1,
      "note": 40,
      "start": 15.355,
      "duration": 1.6175,
      "velocity": 106,
      "chip": "ym2612"
    },
    {
      "channel": 3,
      "note": 63,
      "start": 15.3556,
      "duration": 2.022,
      "velocity": 106,
      "chip": "ym2612"
    },
    {
      "channel": 4,
      "note": 59,
      "start": 15.3562,
      "duration": 2.0222,
      "velocity": 106,
      "chip": "ym2612"
    },
    {
      "channel": 5,
      "note": 52,
      "start": 15.3582,
      "duration": 0.8064,
      "velocity": 87,
      "chip": "ym2612"
    },
    {
      "channel": 2,
      "note": 61,
      "start": 15.7607,
      "duration": 0.809,
      "velocity": 87,
      "chip": "ym2612"
    },
    {
      "channel": 0,
      "note": 52,
      "start": 16.1633,
      "duration": 0.4038,
      "velocity": 87,
      "chip": "ym2612"
    },
    {
      "channel": 5,
      "note": 49,
      "start": 16.1651,
      "duration": 0.4039,
      "velocity": 87,
      "chip": "ym2612"
    },
    {
      "channel": 0,
      "note": 64,
      "start": 16.5678,
      "duration": 0.4039,
      "velocity": 87,
      "chip": "ym2612"
    },
    {
      "channel": 5,
      "note": 52,
      "start": 16.5696,
      "duration": 0.4057,
      "velocity": 87,
      "chip": "ym2612"
    },
    {
      "channel": 2,
      "note": 52,
      "start": 16.5704,
      "duration": 0.4057,
      "velocity": 87,
      "chip": "ym2612"
    },
    {
      "channel": 0,
      "note": 59,
      "start": 16.9724,
      "duration": 0.4037,
      "velocity": 87,
      "chip": "ym2612"
    },
    {
      "channel": 1,
      "note": 39,
      "start": 16.9731,
      "duration": 0.4039,
      "velocity": 106,
      "chip": "ym2612"
    },
    {
      "channel": 5,
      "note": 56,
      "start": 16.9759,
      "duration": 0.4033,
      "velocity": 87,
      "chip": "ym2612"
    },
    {
      "channel": 2,
      "note": 64,
      "start": 16.9767,
      "duration": 0.4032,
      "velocity": 87,
      "chip": "ym2612"
    },
    {
      "channel": 0,
      "note": 59,
      "start": 17.3768,
      "duration": 0.4038,
      "velocity": 87,
      "chip": "ym2612"
    },
    {
      "channel": 1,
      "note": 37,
      "start": 17.3775,
      "duration": 1.2139,
      "velocity": 106,
      "chip": "ym2612"
    },
    {
      "channel": 3,
      "note": 63,
      "start": 17.3783,
      "duration": 1.2137,
      "velocity": 106,
      "chip": "ym2612"
    },
    {
      "channel": 4,
      "note": 59,
      "start": 17.379,
      "duration": 1.2136,
      "velocity": 106,
      "chip": "ym2612"
    },
    {
      "channel": 5,
      "note": 49,
      "start": 17.3798,
      "duration": 0.4027,
      "velocity": 87,
      "chip": "ym2612"
    },
    {
      "channel": 2,
      "note": 59,
      "start": 17.3806,
      "duration": 0.4027,
      "velocity": 87,
      "chip": "ym2612"
    },
    {
      "channel": 0,
      "note": 61,
      "start": 17.7813,
      "duration": 0.2015,
      "velocity": 87,
      "chip": "ym2612"
    },
    {
      "channel": 5,
      "note": 57,
      "start": 17.7831,
      "duration": 0.2017,
      "velocity": 87,
      "chip": "ym2612"
    },
    {
      "channel": 2,
      "note": 59,
      "start": 17.7839,
      "duration": 0.403,
      "velocity": 87,
      "chip": "ym2612"
    },
    {
      "channel": 0,
      "note": 57,
      "start": 17.9835,
      "duration": 1.4153,
      "velocity": 87,
      "chip": "ym2612"
    },
    {
      "channel": 5,
      "note": 49,
      "start": 17.9853,
      "duration": 1.4154,
      "velocity": 87,
      "chip": "ym2612"
    },
    {
      "channel": 2,
      "note": 61,
      "start": 18.1876,
      "duration": 0.2016,
      "velocity": 87,
      "chip": "ym2612"
    },
    {
      "channel": 2,
      "note": 57,
      "start": 18.3911,
      "duration": 1.415,
      "velocity": 87,
      "chip": "ym2612"
    },
    {
      "channel": 1,
      "note": 37,
      "start": 18.5918,
      "duration": 1.6173,
      "velocity": 106,
      "chip": "ym2612"
    },
    {
      "channel": 3,
      "note": 63,
      "start": 18.5924,
      "duration": 1.2118,
      "velocity": 106,
      "chip": "ym2612"
    },
    {
      "channel": 4,
      "note": 59,
      "start": 18.5931,
      "duration": 1.2118,
      "velocity": 106,
      "chip": "ym2612"
    },
    {
      "channel": 0,
      "note": 54,
      "start": 19.3995,
      "duration": 0.4036,
      "velocity": 87,
      "chip": "ym2612"
    },
    {
      "channel": 5,
      "note": 45,
      "start": 19.4013,
      "duration": 0.4041,
      "velocity": 87,
      "chip": "ym2612"
    },
    {
      "channel": 0,
      "note": 57,
      "start": 19.8037,
      "duration": 0.4045,
      "velocity": 87,
      "chip": "ym2612"
    },
    {
      "channel": 3,
      "note": 63,
      "start": 19.8047,
      "duration": 0.8088,
      "velocity": 106,
      "chip": "ym2612"
    },
    {
      "channel": 4,
      "note": 59,
      "start": 19.8053,
      "duration": 0.8091,
      "velocity": 106,
      "chip": "ym2612"
    },
    {
      "channel": 5,
      "note": 49,
      "start": 19.806,
      "duration": 0.4046,
      "velocity": 87,
      "chip": "ym2612"
    },
    {
      "channel": 2,
      "note": 54,
      "start": 19.8081,
      "duration": 0.4031,
      "velocity": 87,
      "chip": "ym2612"
    },
    {
      "channel": 0,
      "note": 59,
      "start": 20.209,
      "duration": 0.4031,
      "velocity": 87,
      "chip": "ym2612"
    },
    {
      "channel": 1,
      "note": 35,
      "start": 20.2097,
      "duration": 0.4031,
      "velocity": 106,
      "chip": "ym2612"
    },
    {
      "channel": 5,
      "note": 56,
      "start": 20.2111,
      "duration": 0.404,
      "velocity": 87,
      "chip": "ym2612"
    },
    {
      "channel": 2,
      "note": 57,
      "start": 20.212,
      "duration": 0.4039,
      "velocity": 87,
      "chip": "ym2612"
    },
    {
      "channel": 0,
      "note": 61,
      "start": 20.6127,
      "duration": 0.4039,
      "velocity": 87,
      "chip": "ym2612"
    },
    {
      "channel": 1,
      "note": 33,
      "start": 20.6133,
      "duration": 1.2125,
      "velocity": 106,
      "chip": "ym2612"
    },
    {
      "channel": 3,
      "note": 64,
      "start": 20.6141,
      "duration": 1.2125,
      "velocity": 106,
      "chip": "ym2612"
    },
    {
      "channel": 4,
      "note": 61,
      "start": 20.6149,
      "duration": 1.2124,
      "velocity": 106,
      "chip": "ym2612"
    },
    {
      "channel": 5,
      "note": 57,
      "start": 20.6157,
      "duration": 0.4027,
      "velocity": 87,
      "chip": "ym2612"
    },
    {
      "channel": 2,
      "note": 59,
      "start": 20.6165,
      "duration": 0.4026,
      "velocity": 87,
      "chip": "ym2612"
    },
    {
      "channel": 0,
      "note": 59,
      "start": 21.0172,
      "duration": 0.2015,
      "velocity": 87,
      "chip": "ym2612"
    },
    {
      "channel": 5,
      "note": 54,
      "start": 21.019,
      "duration": 0.2016,
      "velocity": 87,
      "chip": "ym2612"
    },
    {
      "channel": 2,
      "note": 61,
      "start": 21.0198,
      "duration": 0.403,
      "velocity": 87,
      "chip": "ym2612"
    },
    {
      "channel": 0,
      "note": 57,
      "start": 21.2194,
      "duration": 1.0106,
      "velocity": 87,
      "chip": "ym2612"
    },
    {
      "channel": 5,
      "note": 54,
      "start": 21.221,
      "duration": 1.012,
      "velocity": 87,
      "chip": "ym2612"
    },
    {
      "channel": 2,
      "note": 59,
      "start": 21.4247,
      "duration": 0.2016,
      "velocity": 87,
      "chip": "ym2612"
    },
    {
      "channel": 2,
      "note": 57,
      "start": 21.627,
      "duration": 1.0093,
      "velocity": 87,
      "chip": "ym2612"
    },
    {
      "channel": 1,
      "note": 34,
      "start": 21.8265,
      "duration": 0.4043,
      "velocity": 106,
      "chip": "ym2612"
    },
    {
      "channel": 3,
      "note": 61,
      "start": 21.8273,
      "duration": 0.4042,
      "velocity": 106,
      "chip": "ym2612"
    },
    {
      "channel": 4,
      "note": 58,
      "start": 21.828,
      "duration": 0.4042,
      "velocity": 106,
      "chip": "ym2612"
    },
    {
      "channel": 0,
      "note": 59,
      "start": 22.2306,
      "duration": 0.8083,
      "velocity": 87,
      "chip": "ym2612"
    },
    {
      "channel": 1,
      "note": 35,
      "start": 22.2313,
      "duration": 0.8084,
      "velocity": 106,
      "chip": "ym2612"
    },
    {
      "channel": 3,
      "note": 63,
      "start": 22.2321,
      "duration": 1.6174,
      "velocity": 106,
      "chip": "ym2612"
    },
    {
      "channel": 4,
      "note": 59,
      "start": 22.2329,
      "duration": 1.6174,
      "velocity": 106,
      "chip": "ym2612"
    },
    {
      "channel": 5,
      "note": 56,
      "start": 22.2336,
      "duration": 0.8088,
      "velocity": 87,
      "chip": "ym2612"
    },
    {
      "channel": 2,
      "note": 59,
      "start": 22.6369,
      "duration": 0.8082,
      "velocity": 87,
      "chip": "ym2612"
    },
    {
      "channel": 0,
      "note": 59,
      "start": 23.0396,
      "duration": 0.8083,
      "velocity": 87,
      "chip": "ym2612"
    },
    {
      "channel": 1,
      "note": 35,
      "start": 23.0415,
      "duration": 0.8072,
      "velocity": 106,
      "chip": "ym2612"
    },
    {
      "channel": 5,
      "note": 56,
      "start": 23.0428,
      "duration": 0.8081,
      "velocity": 87,
      "chip": "ym2612"
    },
    {
      "channel": 2,
      "note": 59,
      "start": 23.4458,
      "duration": 0.8084,
      "velocity": 87,
      "chip": "ym2612"
    },
    {
      "channel": 0,
      "note": 57,
      "start": 23.8486,
      "duration": 2.4264,
      "velocity": 87,
      "chip": "ym2612"
    },
    {
      "channel": 1,
      "note": 40,
      "start": 23.8493,
      "duration": 1.2125,
      "velocity": 106,
      "chip": "ym2612"
    },
    {
      "channel": 3,
      "note": 63,
      "start": 23.85,
      "duration": 1.2124,
      "velocity": 106,
      "chip": "ym2612"
    },
    {
      "channel": 4,
      "note": 56,
      "start": 23.8508,
      "duration": 1.2124,
      "velocity": 106,
      "chip": "ym2612"
    },
    {
      "channel": 5,
      "note": 52,
      "start": 23.8516,
      "duration": 2.4261,
      "velocity": 87,
      "chip": "ym2612"
    },
    {
      "channel": 2,
      "note": 57,
      "start": 24.2548,
      "duration": 2.4278,
      "velocity": 87,
      "chip": "ym2612"
    },
    {
      "channel": 1,
      "note": 40,
      "start": 25.0622,
      "duration": 0.8085,
      "velocity": 106,
      "chip": "ym2612"
    },
    {
      "channel": 3,
      "note": 64,
      "start": 25.0631,
      "duration": 0.8083,
      "velocity": 106,
      "chip": "ym2612"
    },
    {
      "channel": 4,
      "note": 56,
      "start": 25.0637,
      "duration": 0.8084,
      "velocity": 106,
      "chip": "ym2612"
    },
    {
      "channel": 1,
      "note": 40,
      "start": 25.8712,
      "duration": 1.2138,
      "velocity": 106,
      "chip": "ym2612"
    },
    {
      "channel": 3,
      "note": 59,
      "start": 25.8719,
      "duration": 0.4042,
      "velocity": 106,
      "chip": "ym2612"
    },
    {
      "channel": 4,
      "note": 56,
      "start": 25.8725,
      "duration": 0.4044,
      "velocity": 106,
      "chip": "ym2612"
    },
    {
      "channel": 0,
      "note": 61,
      "start": 26.2757,
      "duration": 0.4036,
      "velocity": 87,
      "chip": "ym2612"
    },
    {
      "channel": 3,
      "note": 61,
      "start": 26.2768,
      "duration": 0.4036,
      "velocity": 106,
      "chip": "ym2612"
    },
    {
      "channel": 4,
      "note": 57,
      "start": 26.2775,
      "duration": 0.4037,
      "velocity": 106,
      "chip": "ym2612"
    },
    {
      "channel": 5,
      "note": 56,
      "start": 26.2782,
      "duration": 0.4036,
      "velocity": 87,
      "chip": "ym2612"
    },
    {
      "channel": 0,
      "note": 64,
      "start": 26.6799,
      "duration": 0.4041,
      "velocity": 87,
      "chip": "ym2612"
    },
    {
      "channel": 3,
      "note": 63,
      "start": 26.681,
      "duration": 0.4048,
      "velocity": 106,
      "chip": "ym2612"
    },
    {
      "channel": 4,
      "note": 59,
      "start": 26.6817,
      "duration": 0.4047,
      "velocity": 106,
      "chip": "ym2612"
    },
    {
      "channel": 5,
      "note": 61,
      "start": 26.6824,
      "duration": 0.4049,
      "velocity": 87,
      "chip": "ym2612"
    },
    {
      "channel": 2,
      "note": 61,
      "start": 26.6833,
      "duration": 0.4048,
      "velocity": 87,
      "chip": "ym2612"
    },
    {
      "channel": 0,
      "note": 66,
      "start": 27.0847,
      "duration": 2.4259,
      "velocity": 87,
      "chip": "ym2612"
    },
    {
      "channel": 1,
      "note": 45,
      "start": 27.0856,
      "duration": 1.4144,
      "velocity": 106,
      "chip": "ym2612"
    },
    {
      "channel": 3,
      "note": 64,
      "start": 27.0863,
      "duration": 0.8073,
      "velocity": 106,
      "chip": "ym2612"
    },
    {
      "channel": 4,
      "note": 61,
      "start": 27.0871,
      "duration": 0.8074,
      "velocity": 106,
      "chip": "ym2612"
    },
    {
      "channel": 5,
      "note": 57,
      "start": 27.0879,
      "duration": 2.4253,
      "velocity": 87,
      "chip": "ym2612"
    },
    {
      "channel": 2,
      "note": 64,
      "start": 27.0887,
      "duration": 0.4029,
      "velocity": 87,
      "chip": "ym2612"
    },
    {
      "channel": 2,
      "note": 66,
      "start": 27.4922,
      "duration": 2.4263,
      "velocity": 87,
      "chip": "ym2612"
    },
    {
      "channel": 3,
      "note": 64,
      "start": 27.8943,
      "duration": 0.8087,
      "velocity": 106,
      "chip": "ym2612"
    },
    {
      "channel": 4,
      "note": 61,
      "start": 27.895,
      "duration": 0.8088,
      "velocity": 106,
      "chip": "ym2612"
    },
    {
      "channel": 1,
      "note": 40,
      "start": 28.5005,
      "duration": 0.2017,
      "velocity": 106,
      "chip": "ym2612"
    },
    {
      "channel": 1,
      "note": 45,
      "start": 28.7027,
      "duration": 0.4052,
      "velocity": 106,
      "chip": "ym2612"
    },
    {
      "channel": 3,
      "note": 64,
      "start": 28.7035,
      "duration": 0.8083,
      "velocity": 106,
      "chip": "ym2612"
    },
    {
      "channel": 4,
      "note": 61,
      "start": 28.7042,
      "duration": 0.8085,
      "velocity": 106,
      "chip": "ym2612"
    },
    {
      "channel": 1,
      "note": 45,
      "start": 29.1084,
      "duration": 0.8079,
      "velocity": 106,
      "chip": "ym2612"
    },
    {
      "channel": 0,
      "note": 68,
      "start": 29.5113,
      "duration": 0.4041,
      "velocity": 87,
      "chip": "ym2612"
    },
    {
      "channel": 3,
      "note": 64,
      "start": 29.5124,
      "duration": 0.8083,
      "velocity": 106,
      "chip": "ym2612"
    },
    {
      "channel": 4,
      "note": 61,
      "start": 29.5131,
      "duration": 0.8085,
      "velocity": 106,
      "chip": "ym2612"
    },
    {
      "channel": 5,
      "note": 62,
      "start": 29.5139,
      "duration": 0.4039,
      "velocity": 87,
      "chip": "ym2612"
    },
    {
      "channel": 0,
      "note": 69,
      "start": 29.9161,
      "duration": 1.2124,
      "velocity": 87,
      "chip": "ym2612"
    },
    {
      "channel": 1,
      "note": 40,
      "start": 29.9168,
      "duration": 0.4031,
      "velocity": 106,
      "chip": "ym2612"
    },
    {
      "channel": 5,
      "note": 66,
      "start": 29.9183,
      "duration": 1.2127,
      "velocity": 87,
      "chip": "ym2612"
    },
    {
      "channel": 2,
      "note": 68,
      "start": 29.9191,
      "duration": 0.4034,
      "velocity": 87,
      "chip": "ym2612"
    },
    {
      "channel": 1,
      "note": 45,
      "start": 30.3205,
      "duration": 1.4151,
      "velocity": 106,
      "chip": "ym2612"
    },
    {
      "channel": 3,
      "note": 64,
      "start": 30.3214,
      "duration": 0.8082,
      "velocity": 106,
      "chip": "ym2612"
    },
    {
      "channel": 4,
      "note": 61,
      "start": 30.322,
      "duration": 0.8084,
      "velocity": 106,
      "chip": "ym2612"
    },
    {
      "channel": 2,
      "note": 69,
      "start": 30.3245,
      "duration": 1.2104,
      "velocity": 87,
      "chip": "ym2612"
    },
    {
      "channel": 0,
      "note": 69,
      "start": 31.129,
      "duration": 0.8085,
      "velocity": 87,
      "chip": "ym2612"
    },
    {
      "channel": 3,
      "note": 64,
      "start": 31.1303,
      "duration": 0.8089,
      "velocity": 106,
      "chip": "ym2612"
    },
    {
      "channel": 4,
      "note": 61,
      "start": 31.1308,
      "duration": 0.8104,
      "velocity": 106,
      "chip": "ym2612"
    },
    {
      "channel": 5,
      "note": 66,
      "start": 31.1315,
      "duration": 0.8104,
      "velocity": 87,
      "chip": "ym2612"
    },
    {
      "channel": 2,
      "note": 69,
      "start": 31.5354,
      "duration": 0.8095,
      "velocity": 87,
      "chip": "ym2612"
    },
    {
      "channel": 1,
      "note": 40,
      "start": 31.7362,
      "duration": 0.2021,
      "velocity": 106,
      "chip": "ym2612"
    },
    {
      "channel": 0,
      "note": 71,
      "start": 31.9382,
      "duration": 0.4039,
      "velocity": 87,
      "chip": "ym2612"
    },
    {
      "channel": 1,
      "note": 45,
      "start": 31.939,
      "duration": 0.4039,
      "velocity": 106,
      "chip": "ym2612"
    },
    {
      "channel": 3,
      "note": 64,
      "start": 31.9398,
      "duration": 0.8075,
      "velocity": 106,
      "chip": "ym2612"
    },
    {
      "channel": 4,
      "note": 61,
      "start": 31.9417,
      "duration": 0.8063,
      "velocity": 106,
      "chip": "ym2612"
    },
    {
      "channel": 5,
      "note": 68,
      "start": 31.9425,
      "duration": 0.4017,
      "velocity": 87,
      "chip": "ym2612"
    },
    {
      "channel": 0,
      "note": 69,
      "start": 32.3427,
      "duration": 1.2127,
      "velocity": 87,
      "chip": "ym2612"
    },
    {
      "channel": 1,
      "note": 45,
      "start": 32.3434,
      "duration": 0.8081,
      "velocity": 106,
      "chip": "ym2612"
    },
    {
      "channel": 5,
      "note": 66,
      "start": 32.3448,
      "duration": 1.2153,
      "velocity": 87,
      "chip": "ym2612"
    },
    {
      "channel": 2,
      "note": 71,
      "start": 32.3457,
      "duration": 0.4034,
      "velocity": 87,
      "chip": "ym2612"
    },
    {
      "channel": 3,
      "note": 64,
      "start": 32.748,
      "duration": 0.8105,
      "velocity": 106,
      "chip": "ym2612"
    },
    {
      "channel": 4,
      "note": 61,
      "start": 32.7485,
      "duration": 0.8108,
      "velocity": 106,
      "chip": "ym2612"
    },
    {
      "channel": 2,
      "note": 69,
      "start": 32.7497,
      "duration": 1.212,
      "velocity": 87,
      "chip": "ym2612"
    },
    {
      "channel": 1,
      "note": 45,
      "start": 33.152,
      "duration": 0.4044,
      "velocity": 106,
      "chip": "ym2612"
    },
    {
      "channel": 0,
      "note": 73,
      "start": 33.5561,
      "duration": 2.0219,
      "velocity": 87,
      "chip": "ym2612"
    },
    {
      "channel": 1,
      "note": 40,
      "start": 33.5583,
      "duration": 1.4134,
      "velocity": 106,
      "chip": "ym2612"
    },
    {
      "channel": 3,
      "note": 64,
      "start": 33.5591,
      "duration": 0.8063,
      "velocity": 106,
      "chip": "ym2612"
    },
    {
      "channel": 4,
      "note": 59,
      "start": 33.5599,
      "duration": 0.8064,
      "velocity": 106,
      "chip": "ym2612"
    },
    {
      "channel": 5,
      "note": 64,
      "start": 33.5607,
      "duration": 2.0193,
      "velocity": 87,
      "chip": "ym2612"
    },
    {
      "channel": 2,
      "note": 73,
      "start": 33.9624,
      "duration": 2.0234,
      "velocity": 87,
      "chip": "ym2612"
    },
    {
      "channel": 3,
      "note": 64,
      "start": 34.366,
      "duration": 0.8104,
      "velocity": 106,
      "chip": "ym2612"
    },
    {
      "channel": 4,
      "note": 59,
      "start": 34.3667,
      "duration": 0.8104,
      "velocity": 106,
      "chip": "ym2612"
    },
    {
      "channel": 1,
      "note": 35,
      "start": 34.9722,
      "duration": 0.2034,
      "velocity": 106,
      "chip": "ym2612"
    },
    {
      "channel": 1,
      "note": 40,
      "start": 35.1761,
      "duration": 0.4026,
      "velocity": 106,
      "chip": "ym2612"
    },
    {
      "channel": 3,
      "note": 64,
      "start": 35.177,
      "duration": 0.8067,
      "velocity": 106,
      "chip": "ym2612"
    },
    {
      "channel": 4,
      "note": 59,
      "start": 35.1776,
      "duration": 0.8067,
      "velocity": 106,
      "chip": "ym2612"
    },
    {
      "channel": 0,
      "note": 73,
      "start": 35.5785,
      "duration": 0.4039,
      "velocity": 87,
      "chip": "ym2612"
    },
    {
      "channel": 1,
      "note": 40,
      "start": 35.5791,
      "duration": 0.8085,
      "velocity": 106,
      "chip": "ym2612"
    },
    {
      "channel": 5,
      "note": 69,
      "start": 35.5807,
      "duration": 0.4043,
      "velocity": 87,
      "chip": "ym2612"
    },
    {
      "channel": 0,
      "note": 71,
      "start": 35.983,
      "duration": 0.4038,
      "velocity": 87,
      "chip": "ym2612"
    },
    {
      "channel": 3,
      "note": 64,
      "start": 35.9842,
      "duration": 0.8092,
      "velocity": 106,
      "chip": "ym2612"
    },
    {
      "channel": 4,
      "note": 59,
      "start": 35.9848,
      "duration": 0.8093,
      "velocity": 106,
      "chip": "ym2612"
    },
    {
      "channel": 5,
      "note": 68,
      "start": 35.9856,
      "duration": 0.4036,
      "velocity": 87,
      "chip": "ym2612"
    },
    {
      "channel": 2,
      "note": 73,
      "start": 35.9863,
      "duration": 0.4049,
      "velocity": 87,
      "chip": "ym2612"
    },
    {
      "channel": 0,
      "note": 69,
      "start": 36.3875,
      "duration": 0.4041,
      "velocity": 87,
      "chip": "ym2612"
    },
    {
      "channel": 1,
      "note": 35,
      "start": 36.3882,
      "duration": 0.4043,
      "velocity": 106,
      "chip": "ym2612"
    },
    {
      "channel": 5,
      "note": 64,
      "start": 36.3897,
      "duration": 0.4051,
      "velocity": 87,
      "chip": "ym2612"
    },
    {
      "channel": 2,
      "note": 71,
      "start": 36.3919,
      "duration": 0.4036,
      "velocity": 87,
      "chip": "ym2612"
    },
    {
      "channel": 0,
      "note": 64,
      "start": 36.7924,
      "duration": 0.4034,
      "velocity": 87,
      "chip": "ym2612"
    },
    {
      "channel": 1,
      "note": 40,
      "start": 36.7932,
      "duration": 1.4155,
      "velocity": 106,
      "chip": "ym2612"
    },
    {
      "channel": 3,
      "note": 64,
      "start": 36.794,
      "duration": 0.8076,
      "velocity": 106,
      "chip": "ym2612"
    },
    {
      "channel": 4,
      "note": 59,
      "start": 36.7946,
      "duration": 0.8078,
      "velocity": 106,
      "chip": "ym2612"
    },
    {
      "channel": 5,
      "note": 61,
      "start": 36.7954,
      "duration": 0.4023,
      "velocity": 87,
      "chip": "ym2612"
    },
    {
      "channel": 2,
      "note": 69,
      "start": 36.7962,
      "duration": 0.4022,
      "velocity": 87,
      "chip": "ym2612"
    },
    {
      "channel": 0,
      "note": 61,
      "start": 37.1965,
      "duration": 0.4038,
      "velocity": 87,
      "chip": "ym2612"
    },
    {
      "channel": 5,
      "note": 57,
      "start": 37.1983,
      "duration": 0.4046,
      "velocity": 87,
      "chip": "ym2612"
    },
    {
      "channel": 2,
      "note": 64,
      "start": 37.1991,
      "duration": 0.4046,
      "velocity": 87,
      "chip": "ym2612"
    },
    {
      "channel": 0,
      "note": 59,
      "start": 37.601,
      "duration": 0.4038,
      "velocity": 87,
      "chip": "ym2612"
    },
    {
      "channel": 3,
      "note": 64,
      "start": 37.6022,
      "duration": 0.8088,
      "velocity": 106,
      "chip": "ym2612"
    },
    {
      "channel": 4,
      "note": 59,
      "start": 37.6028,
      "duration": 0.8089,
      "velocity": 106,
      "chip": "ym2612"
    },
    {
      "channel": 5,
      "note": 56,
      "start": 37.6035,
      "duration": 0.4046,
      "velocity": 87,
      "chip": "ym2612"
    },
    {
      "channel": 2,
      "note": 61,
      "start": 37.6043,
      "duration": 0.4045,
      "velocity": 87,
      "chip": "ym2612"
    },
    {
      "channel": 0,
      "note": 57,
      "start": 38.0055,
      "duration": 0.4038,
      "velocity": 87,
      "chip": "ym2612"
    },
    {
      "channel": 5,
      "note": 52,
      "start": 38.0087,
      "duration": 0.4036,
      "velocity": 87,
      "chip": "ym2612"
    },
    {
      "channel": 2,
      "note": 59,
      "start": 38.0095,
      "duration": 0.4036,
      "velocity": 87,
      "chip": "ym2612"
    },
    {
      "channel": 1,
      "note": 35,
      "start": 38.2093,
      "duration": 0.2008,
      "velocity": 106,
      "chip": "ym2612"
    },
    {
      "channel": 0,
      "note": 52,
      "start": 38.4099,
      "duration": 0.4038,
      "velocity": 87,
      "chip": "ym2612"
    },
    {
      "channel": 1,
      "note": 40,
      "start": 38.4107,
      "duration": 0.4038,
      "velocity": 106,
      "chip": "ym2612"
    },
    {
      "channel": 3,
      "note": 64,
      "start": 38.4115,
      "duration": 0.808,
      "velocity": 106,
      "chip": "ym2612"
    },
    {
      "channel": 4,
      "note": 59,
      "start": 38.4121,
      "duration": 0.8081,
      "velocity": 106,
      "chip": "ym2612"
    },
    {
      "channel": 5,
      "note": 49,
      "start": 38.4128,
      "duration": 0.403,
      "velocity": 87,
      "chip": "ym2612"
    },
    {
      "channel": 2,
      "note": 57,
      "start": 38.4137,
      "duration": 0.4029,
      "velocity": 87,
      "chip": "ym2612"
    },
    {
      "channel": 0,
      "note": 49,
      "start": 38.8144,
      "duration": 0.4039,
      "velocity": 87,
      "chip": "ym2612"
    },
    {
      "channel": 1,
      "note": 40,
      "start": 38.8149,
      "duration": 0.8099,
      "velocity": 106,
      "chip": "ym2612"
    },
    {
      "channel": 5,
      "note": 45,
      "start": 38.8164,
      "duration": 0.4045,
      "velocity": 87,
      "chip": "ym2612"
    },
    {
      "channel": 2,
      "note": 52,
      "start": 38.8172,
      "duration": 0.4044,
      "velocity": 87,
      "chip": "ym2612"
    },
    {
      "channel": 0,
      "note": 47,
      "start": 39.2189,
      "duration": 0.4038,
      "velocity": 87,
      "chip": "ym2612"
    },
    {
      "channel": 3,
      "note": 64,
      "start": 39.2201,
      "duration": 0.8091,
      "velocity": 106,
      "chip": "ym2612"
    },
    {
      "channel": 4,
      "note": 59,
      "start": 39.2207,
      "duration": 0.8093,
      "velocity": 106,
      "chip": "ym2612"
    },
    {
      "channel": 5,
      "note": 44,
      "start": 39.2214,
      "duration": 0.4049,
      "velocity": 87,
      "chip": "ym2612"
    },
    {
      "channel": 2,
      "note": 49,
      "start": 39.2222,
      "duration": 0.4049,
      "velocity": 87,
      "chip": "ym2612"
    },
    {
      "channel": 0,
      "note": 45,
      "start": 39.6247,
      "duration": 0.4026,
      "velocity": 87,
      "chip": "ym2612"
    },
    {
      "channel": 1,
      "note": 35,
      "start": 39.6255,
      "duration": 0.4029,
      "velocity": 106,
      "chip": "ym2612"
    },
    {
      "channel": 5,
      "note": 40,
      "start": 39.6269,
      "duration": 0.4039,
      "velocity": 87,
      "chip": "ym2612"
    },
    {
      "channel": 2,
      "note": 47,
      "start": 39.6277,
      "duration": 0.4039,
      "velocity": 87,
      "chip": "ym2612"
    },
    {
      "channel": 0,
      "note": 66,
      "start": 40.028,
      "duration": 2.4261,
      "velocity": 87,
      "chip": "ym2612"
    },
    {
      "channel": 1,
      "note": 45,
      "start": 40.0289,
      "duration": 1.4144,
      "velocity": 106,
      "chip": "ym2612"
    },
    {
      "channel": 3,
      "note": 64,
      "start": 40.0298,
      "duration": 0.8074,
      "velocity": 106,
      "chip": "ym2612"
    },
    {
      "channel": 4,
      "note": 61,
      "start": 40.0306,
      "duration": 0.8074,
      "velocity": 106,
      "chip": "ym2612"
    },
    {
      "channel": 5,
      "note": 57,
      "start": 40.0315,
      "duration": 2.4266,
      "velocity": 87,
      "chip": "ym2612"
    },
    {
      "channel": 2,
      "note": 45,
      "start": 40.0322,
      "duration": 0.4016,
      "velocity": 87,
      "chip": "ym2612"
    },
    {
      "channel": 2,
      "note": 66,
      "start": 40.4345,
      "duration": 2.4272,
      "velocity": 87,
      "chip": "ym2612"
    },
    {
      "channel": 3,
      "note": 64,
      "start": 40.8377,
      "duration": 0.8088,
      "velocity": 106,
      "chip": "ym2612"
    },
    {
      "channel": 4,
      "note": 61,
      "start": 40.8384,
      "duration": 0.8088,
      "velocity": 106,
      "chip": "ym2612"
    },
    {
      "channel": 1,
      "note": 40,
      "start": 41.4439,
      "duration": 0.2017,
      "velocity": 106,
      "chip": "ym2612"
    },
    {
      "channel": 1,
      "note": 45,
      "start": 41.6462,
      "duration": 0.4039,
      "velocity": 106,
      "chip": "ym2612"
    },
    {
      "channel": 3,
      "note": 64,
      "start": 41.6471,
      "duration": 0.8083,
      "velocity": 106,
      "chip": "ym2612"
    },
    {
      "channel": 4,
      "note": 61,
      "start": 41.6477,
      "duration": 0.8084,
      "velocity": 106,
      "chip": "ym2612"
    },
    {
      "channel": 1,
      "note": 45,
      "start": 42.0506,
      "duration": 0.809,
      "velocity": 106,
      "chip": "ym2612"
    },
    {
      "channel": 0,
      "note": 68,
      "start": 42.4548,
      "duration": 0.4039,
      "velocity": 87,
      "chip": "ym2612"
    },
    {
      "channel": 3,
      "note": 64,
      "start": 42.456,
      "duration": 0.8083,
      "velocity": 106,
      "chip": "ym2612"
    },
    {
      "channel": 4,
      "note": 61,
      "start": 42.4579,
      "duration": 0.8071,
      "velocity": 106,
      "chip": "ym2612"
    },
    {
      "channel": 5,
      "note": 62,
      "start": 42.4587,
      "duration": 0.4023,
      "velocity": 87,
      "chip": "ym2612"
    },
    {
      "channel": 0,
      "note": 69,
      "start": 42.8594,
      "duration": 1.2127,
      "velocity": 87,
      "chip": "ym2612"
    },
    {
      "channel": 1,
      "note": 40,
      "start": 42.8602,
      "duration": 0.4032,
      "velocity": 106,
      "chip": "ym2612"
    },
    {
      "channel": 5,
      "note": 66,
      "start": 42.8616,
      "duration": 1.2142,
      "velocity": 87,
      "chip": "ym2612"
    },
    {
      "channel": 2,
      "note": 68,
      "start": 42.8624,
      "duration": 0.4035,
      "velocity": 87,
      "chip": "ym2612"
    },
    {
      "channel": 1,
      "note": 45,
      "start": 43.264,
      "duration": 1.4151,
      "velocity": 106,
      "chip": "ym2612"
    },
    {
      "channel": 3,
      "note": 64,
      "start": 43.2649,
      "duration": 0.8097,
      "velocity": 106,
      "chip": "ym2612"
    },
    {
      "channel": 4,
      "note": 61,
      "start": 43.2654,
      "duration": 0.8099,
      "velocity": 106,
      "chip": "ym2612"
    },
    {
      "channel": 2,
      "note": 69,
      "start": 43.2666,
      "duration": 1.2117,
      "velocity": 87,
      "chip": "ym2612"
    },
    {
      "channel": 0,
      "note": 69,
      "start": 44.0726,
      "duration": 0.8084,
      "velocity": 87,
      "chip": "ym2612"
    },
    {
      "channel": 3,
      "note": 64,
      "start": 44.0752,
      "duration": 0.8075,
      "velocity": 106,
      "chip": "ym2612"
    },
    {
      "channel": 4,
      "note": 61,
      "start": 44.0758,
      "duration": 0.8077,
      "velocity": 106,
      "chip": "ym2612"
    },
    {
      "channel": 5,
      "note": 66,
      "start": 44.0763,
      "duration": 0.8077,
      "velocity": 87,
      "chip": "ym2612"
    },
    {
      "channel": 2,
      "note": 69,
      "start": 44.4788,
      "duration": 0.8096,
      "velocity": 87,
      "chip": "ym2612"
    },
    {
      "channel": 1,
      "note": 40,
      "start": 44.6798,
      "duration": 0.2021,
      "velocity": 106,
      "chip": "ym2612"
    },
    {
      "channel": 0,
      "note": 71,
      "start": 44.8817,
      "duration": 0.4038,
      "velocity": 87,
      "chip": "ym2612"
    },
    {
      "channel": 1,
      "note": 45,
      "start": 44.8824,
      "duration": 0.4039,
      "velocity": 106,
      "chip": "ym2612"
    },
    {
      "channel": 3,
      "note": 64,
      "start": 44.8833,
      "duration": 0.8092,
      "velocity": 106,
      "chip": "ym2612"
    },
    {
      "channel": 4,
      "note": 61,
      "start": 44.8839,
      "duration": 0.8093,
      "velocity": 106,
      "chip": "ym2612"
    },
    {
      "channel": 5,
      "note": 68,
      "start": 44.8846,
      "duration": 0.403,
      "velocity": 87,
      "chip": "ym2612"
    },
    {
      "channel": 0,
      "note": 69,
      "start": 45.2862,
      "duration": 1.2127,
      "velocity": 87,
      "chip": "ym2612"
    },
    {
      "channel": 1,
      "note": 45,
      "start": 45.2868,
      "duration": 0.8082,
      "velocity": 106,
      "chip": "ym2612"
    },
    {
      "channel": 5,
      "note": 66,
      "start": 45.2882,
      "duration": 1.214,
      "velocity": 87,
      "chip": "ym2612"
    },
    {
      "channel": 2,
      "note": 71,
      "start": 45.289,
      "duration": 0.4051,
      "velocity": 87,
      "chip": "ym2612"
    },
    {
      "channel": 3,
      "note": 64,
      "start": 45.6931,
      "duration": 0.8076,
      "velocity": 106,
      "chip": "ym2612"
    },
    {
      "channel": 4,
      "note": 61,
      "start": 45.6936,
      "duration": 0.8078,
      "velocity": 106,
      "chip": "ym2612"
    },
    {
      "channel": 2,
      "note": 69,
      "start": 45.6948,
      "duration": 1.2107,
      "velocity": 87,
      "chip": "ym2612"
    },
    {
      "channel": 1,
      "note": 45,
      "start": 46.0954,
      "duration": 0.4044,
      "velocity": 106,
      "chip": "ym2612"
    },
    {
      "channel": 0,
      "note": 73,
      "start": 46.4996,
      "duration": 2.0218,
      "velocity": 87,
      "chip": "ym2612"
    },
    {
      "channel": 1,
      "note": 44,
      "start": 46.5004,
      "duration": 0.4034,
      "velocity": 106,
      "chip": "ym2612"
    },
    {
      "channel": 3,
      "note": 63,
      "start": 46.5012,
      "duration": 0.8082,
      "velocity": 106,
      "chip": "ym2612"
    },
    {
      "channel": 4,
      "note": 59,
      "start": 46.5021,
      "duration": 0.8081,
      "velocity": 106,
      "chip": "ym2612"
    },
    {
      "channel": 5,
      "note": 64,
      "start": 46.5029,
      "duration": 2.0222,
      "velocity": 87,
      "chip": "ym2612"
    },
    {
      "channel": 1,
      "note": 44,
      "start": 46.9044,
      "duration": 0.4044,
      "velocity": 106,
      "chip": "ym2612"
    },
    {
      "channel": 2,
      "note": 73,
      "start": 46.9063,
      "duration": 2.0234,
      "velocity": 87,
      "chip": "ym2612"
    },
    {
      "channel": 1,
      "note": 44,
      "start": 47.3093,
      "duration": 0.4036,
      "velocity": 106,
      "chip": "ym2612"
    },
    {
      "channel": 3,
      "note": 63,
      "start": 47.3101,
      "duration": 0.808,
      "velocity": 106,
      "chip": "ym2612"
    },
    {
      "channel": 4,
      "note": 59,
      "start": 47.3108,
      "duration": 0.808,
      "velocity": 106,
      "chip": "ym2612"
    },
    {
      "channel": 1,
      "note": 44,
      "start": 47.7135,
      "duration": 0.4039,
      "velocity": 106,
      "chip": "ym2612"
    },
    {
      "channel": 1,
      "note": 44,
      "start": 48.1179,
      "duration": 0.4044,
      "velocity": 106,
      "chip": "ym2612"
    },
    {
      "channel": 3,
      "note": 63,
      "start": 48.1187,
      "duration": 0.8087,
      "velocity": 106,
      "chip": "ym2612"
    },
    {
      "channel": 4,
      "note": 59,
      "start": 48.1194,
      "duration": 0.8087,
      "velocity": 106,
      "chip": "ym2612"
    },
    {
      "channel": 0,
      "note": 61,
      "start": 48.5221,
      "duration": 0.4037,
      "velocity": 87,
      "chip": "ym2612"
    },
    {
      "channel": 1,
      "note": 42,
      "start": 48.5228,
      "duration": 0.4039,
      "velocity": 106,
      "chip": "ym2612"
    },
    {
      "channel": 5,
      "note": 56,
      "start": 48.5257,
      "duration": 0.4032,
      "velocity": 87,
      "chip": "ym2612"
    },
    {
      "channel": 0,
      "note": 68,
      "start": 48.9265,
      "duration": 0.4038,
      "velocity": 87,
      "chip": "ym2612"
    },
    {
      "channel": 1,
      "note": 40,
      "start": 48.9272,
      "duration": 0.4039,
      "velocity": 106,
      "chip": "ym2612"
    },
    {
      "channel": 3,
      "note": 63,
      "start": 48.928,
      "duration": 0.8084,
      "velocity": 106,
      "chip": "ym2612"
    },
    {
      "channel": 4,
      "note": 59,
      "start": 48.9287,
      "duration": 0.8085,
      "velocity": 106,
      "chip": "ym2612"
    },
    {
      "channel": 5,
      "note": 61,
      "start": 48.9294,
      "duration": 0.4031,
      "velocity": 87,
      "chip": "ym2612"
    },
    {
      "channel": 2,
      "note": 61,
      "start": 48.9303,
      "duration": 0.4029,
      "velocity": 87,
      "chip": "ym2612"
    },
    {
      "channel": 0,
      "note": 71,
      "start": 49.331,
      "duration": 0.4039,
      "velocity": 87,
      "chip": "ym2612"
    },
    {
      "channel": 1,
      "note": 39,
      "start": 49.3317,
      "duration": 0.404,
      "velocity": 106,
      "chip": "ym2612"
    },
    {
      "channel": 5,
      "note": 64,
      "start": 49.3331,
      "duration": 0.4048,
      "velocity": 87,
      "chip": "ym2612"
    },
    {
      "channel": 2,
      "note": 68,
      "start": 49.3339,
      "duration": 0.4047,
      "velocity": 87,
      "chip": "ym2612"
    },
    {
      "channel": 0,
      "note": 69,
      "start": 49.7356,
      "duration": 2.0228,
      "velocity": 87,
      "chip": "ym2612"
    },
    {
      "channel": 1,
      "note": 37,
      "start": 49.7362,
      "duration": 1.4147,
      "velocity": 106,
      "chip": "ym2612"
    },
    {
      "channel": 3,
      "note": 64,
      "start": 49.737,
      "duration": 0.8076,
      "velocity": 106,
      "chip": "ym2612"
    },
    {
      "channel": 4,
      "note": 56,
      "start": 49.7377,
      "duration": 0.8076,
      "velocity": 106,
      "chip": "ym2612"
    },
    {
      "channel": 5,
      "note": 66,
      "start": 49.7385,
      "duration": 0.4036,
      "velocity": 87,
      "chip": "ym2612"
    },
    {
      "channel": 2,
      "note": 71,
      "start": 49.7393,
      "duration": 0.4035,
      "velocity": 87,
      "chip": "ym2612"
    },
    {
      "channel": 5,
      "note": 61,
      "start": 50.1426,
      "duration": 1.6182,
      "velocity": 87,
      "chip": "ym2612"
    },
    {
      "channel": 2,
      "note": 69,
      "start": 50.1434,
      "duration": 2.0218,
      "velocity": 87,
      "chip": "ym2612"
    },
    {
      "channel": 3,
      "note": 64,
      "start": 50.5451,
      "duration": 0.8087,
      "velocity": 106,
      "chip": "ym2612"
    },
    {
      "channel": 4,
      "note": 56,
      "start": 50.5459,
      "duration": 0.8087,
      "velocity": 106,
      "chip": "ym2612"
    },
    {
      "channel": 1,
      "note": 32,
      "start": 51.1515,
      "duration": 0.2017,
      "velocity": 106,
      "chip": "ym2612"
    },
    {
      "channel": 1,
      "note": 37,
      "start": 51.3537,
      "duration": 0.4052,
      "velocity": 106,
      "chip": "ym2612"
    },
    {
      "channel": 3,
      "note": 64,
      "start": 51.3545,
      "duration": 0.4051,
      "velocity": 106,
      "chip": "ym2612"
    },
    {
      "channel": 4,
      "note": 56,
      "start": 51.3553,
      "duration": 0.4049,
      "velocity": 106,
      "chip": "ym2612"
    },
    {
      "channel": 0,
      "note": 69,
      "start": 51.7588,
      "duration": 0.4029,
      "velocity": 87,
      "chip": "ym2612"
    },
    {
      "channel": 1,
      "note": 37,
      "start": 51.7594,
      "duration": 0.4031,
      "velocity": 106,
      "chip": "ym2612"
    },
    {
      "channel": 3,
      "note": 64,
      "start": 51.76,
      "duration": 0.4032,
      "velocity": 106,
      "chip": "ym2612"
    },
    {
      "channel": 4,
      "note": 56,
      "start": 51.7606,
      "duration": 0.4032,
      "velocity": 106,
      "chip": "ym2612"
    },
    {
      "channel": 5,
      "note": 61,
      "start": 51.7612,
      "duration": 0.4033,
      "velocity": 87,
      "chip": "ym2612"
    },
    {
      "channel": 0,
      "note": 68,
      "start": 52.1623,
      "duration": 0.4039,
      "velocity": 87,
      "chip": "ym2612"
    },
    {
      "channel": 1,
      "note": 49,
      "start": 52.1631,
      "duration": 0.4039,
      "velocity": 106,
      "chip": "ym2612"
    },
    {
      "channel": 3,
      "note": 64,
      "start": 52.1637,
      "duration": 0.4041,
      "velocity": 106,
      "chip": "ym2612"
    },
    {
      "channel": 4,
      "note": 57,
      "start": 52.1644,
      "duration": 0.404,
      "velocity": 106,
      "chip": "ym2612"
    },
    {
      "channel": 5,
      "note": 64,
      "start": 52.1651,
      "duration": 0.4039,
      "velocity": 87,
      "chip": "ym2612"
    },
    {
      "channel": 2,
      "note": 69,
      "start": 52.1658,
      "duration": 0.404,
      "velocity": 87,
      "chip": "ym2612"
    },
    {
      "channel": 0,
      "note": 66,
      "start": 52.5669,
      "duration": 0.4037,
      "velocity": 87,
      "chip": "ym2612"
    },
    {
      "channel": 1,
      "note": 47,
      "start": 52.5676,
      "duration": 0.4039,
      "velocity": 106,
      "chip": "ym2612"
    },
    {
      "channel": 3,
      "note": 64,
      "start": 52.5682,
      "duration": 0.404,
      "velocity": 106,
      "chip": "ym2612"
    },
    {
      "channel": 4,
      "note": 59,
      "start": 52.5689,
      "duration": 0.404,
      "velocity": 106,
      "chip": "ym2612"
    },
    {
      "channel": 5,
      "note": 62,
      "start": 52.5696,
      "duration": 0.4054,
      "velocity": 87,
      "chip": "ym2612"
    },
    {
      "channel": 2,
      "note": 68,
      "start": 52.5705,
      "duration": 0.4053,
      "velocity": 87,
      "chip": "ym2612"
    },
    {
      "channel": 0,
      "note": 69,
      "start": 52.9713,
      "duration": 1.2129,
      "velocity": 87,
      "chip": "ym2612"
    },
    {
      "channel": 1,
      "note": 45,
      "start": 52.9721,
      "duration": 1.4146,
      "velocity": 106,
      "chip": "ym2612"
    },
    {
      "channel": 3,
      "note": 64,
      "start": 52.9728,
      "duration": 0.8078,
      "velocity": 106,
      "chip": "ym2612"
    },
    {
      "channel": 4,
      "note": 61,
      "start": 52.9749,
      "duration": 0.8065,
      "velocity": 106,
      "chip": "ym2612"
    },
    {
      "channel": 5,
      "note": 66,
      "start": 52.9756,
      "duration": 1.2104,
      "velocity": 87,
      "chip": "ym2612"
    },
    {
      "channel": 2,
      "note": 66,
      "start": 52.9764,
      "duration": 0.4006,
      "velocity": 87,
      "chip": "ym2612"
    },
    {
      "channel": 2,
      "note": 69,
      "start": 53.3777,
      "duration": 1.2153,
      "velocity": 87,
      "chip": "ym2612"
    },
    {
      "channel": 3,
      "note": 64,
      "start": 53.7812,
      "duration": 0.81,
      "velocity": 106,
      "chip": "ym2612"
    },
    {
      "channel": 4,
      "note": 61,
      "start": 53.7819,
      "duration": 0.81,
      "velocity": 106,
      "chip": "ym2612"
    },
    {
      "channel": 0,
      "note": 66,
      "start": 54.1849,
      "duration": 0.8082,
      "velocity": 87,
      "chip": "ym2612"
    },
    {
      "channel": 5,
      "note": 57,
      "start": 54.1866,
      "duration": 0.8086,
      "velocity": 87,
      "chip": "ym2612"
    },
    {
      "channel": 1,
      "note": 40,
      "start": 54.3873,
      "duration": 0.2017,
      "velocity": 106,
      "chip": "ym2612"
    },
    {
      "channel": 1,
      "note": 45,
      "start": 54.5895,
      "duration": 0.4043,
      "velocity": 106,
      "chip": "ym2612"
    },
    {
      "channel": 3,
      "note": 64,
      "start": 54.5917,
      "duration": 0.8071,
      "velocity": 106,
      "chip": "ym2612"
    },
    {
      "channel": 4,
      "note": 61,
      "start": 54.5925,
      "duration": 0.8071,
      "velocity": 106,
      "chip": "ym2612"
    },
    {
      "channel": 2,
      "note": 66,
      "start": 54.5936,
      "duration": 0.8074,
      "velocity": 87,
      "chip": "ym2612"
    },
    {
      "channel": 0,
      "note": 69,
      "start": 54.9937,
      "duration": 0.4038,
      "velocity": 87,
      "chip": "ym2612"
    },
    {
      "channel": 1,
      "note": 45,
      "start": 54.9943,
      "duration": 0.8085,
      "velocity": 106,
      "chip": "ym2612"
    },
    {
      "channel": 5,
      "note": 66,
      "start": 54.9958,
      "duration": 0.4045,
      "velocity": 87,
      "chip": "ym2612"
    },
    {
      "channel": 0,
      "note": 68,
      "start": 55.3982,
      "duration": 0.4038,
      "velocity": 87,
      "chip": "ym2612"
    },
    {
      "channel": 3,
      "note": 64,
      "start": 55.3994,
      "duration": 0.8104,
      "velocity": 106,
      "chip": "ym2612"
    },
    {
      "channel": 4,
      "note": 61,
      "start": 55.4001,
      "duration": 0.8105,
      "velocity": 106,
      "chip": "ym2612"
    },
    {
      "channel": 5,
      "note": 62,
      "start": 55.4009,
      "duration": 0.4032,
      "velocity": 87,
      "chip": "ym2612"
    },
    {
      "channel": 2,
      "note": 69,
      "start": 55.4017,
      "duration": 0.4032,
      "velocity": 87,
      "chip": "ym2612"
    },
    {
      "channel": 0,
      "note": 66,
      "start": 55.8027,
      "duration": 0.4055,
      "velocity": 87,
      "chip": "ym2612"
    },
    {
      "channel": 1,
      "note": 45,
      "start": 55.8032,
      "duration": 0.4058,
      "velocity": 106,
      "chip": "ym2612"
    },
    {
      "channel": 5,
      "note": 57,
      "start": 55.8047,
      "duration": 0.4067,
      "velocity": 87,
      "chip": "ym2612"
    },
    {
      "channel": 2,
      "note": 68,
      "start": 55.8055,
      "duration": 0.4066,
      "velocity": 87,
      "chip": "ym2612"
    },
    {
      "channel": 0,
      "note": 69,
      "start": 56.2088,
      "duration": 0.8068,
      "velocity": 87,
      "chip": "ym2612"
    },
    {
      "channel": 1,
      "note": 45,
      "start": 56.2096,
      "duration": 1.413,
      "velocity": 106,
      "chip": "ym2612"
    },
    {
      "channel": 3,
      "note": 64,
      "start": 56.2105,
      "duration": 0.8062,
      "velocity": 106,
      "chip": "ym2612"
    },
    {
      "channel": 4,
      "note": 60,
      "start": 56.2112,
      "duration": 0.8062,
      "velocity": 106,
      "chip": "ym2612"
    },
    {
      "channel": 5,
      "note": 65,
      "start": 56.212,
      "duration": 0.8062,
      "velocity": 87,
      "chip": "ym2612"
    },
    {
      "channel": 2,
      "note": 66,
      "start": 56.2128,
      "duration": 0.4001,
      "velocity": 87,
      "chip": "ym2612"
    },
    {
      "channel": 2,
      "note": 69,
      "start": 56.6135,
      "duration": 0.8083,
      "velocity": 87,
      "chip": "ym2612"
    },
    {
      "channel": 0,
      "note": 69,
      "start": 57.0161,
      "duration": 0.8088,
      "velocity": 87,
      "chip": "ym2612"
    },
    {
      "channel": 3,
      "note": 64,
      "start": 57.0172,
      "duration": 0.8093,
      "velocity": 106,
      "chip": "ym2612"
    },
    {
      "channel": 4,
      "note": 60,
      "start": 57.018,
      "duration": 0.8094,
      "velocity": 106,
      "chip": "ym2612"
    },
    {
      "channel": 5,
      "note": 65,
      "start": 57.0186,
      "duration": 0.8095,
      "velocity": 87,
      "chip": "ym2612"
    },
    {
      "channel": 2,
      "note": 69,
      "start": 57.4222,
      "duration": 0.8087,
      "velocity": 87,
      "chip": "ym2612"
    },
    {
      "channel": 1,
      "note": 40,
      "start": 57.6245,
      "duration": 0.2013,
      "velocity": 106,
      "chip": "ym2612"
    },
    {
      "channel": 0,
      "note": 71,
      "start": 57.8256,
      "duration": 0.8078,
      "velocity": 87,
      "chip": "ym2612"
    },
    {
      "channel": 1,
      "note": 45,
      "start": 57.8264,
      "duration": 0.4029,
      "velocity": 106,
      "chip": "ym2612"
    },
    {
      "channel": 3,
      "note": 64,
      "start": 57.8272,
      "duration": 0.8075,
      "velocity": 106,
      "chip": "ym2612"
    },
    {
      "channel": 4,
      "note": 60,
      "start": 57.8279,
      "duration": 0.8076,
      "velocity": 106,
      "chip": "ym2612"
    },
    {
      "channel": 5,
      "note": 65,
      "start": 57.8285,
      "duration": 0.8076,
      "velocity": 87,
      "chip": "ym2612"
    },
    {
      "channel": 1,
      "note": 45,
      "start": 58.2298,
      "duration": 0.8085,
      "velocity": 106,
      "chip": "ym2612"
    },
    {
      "channel": 2,
      "note": 71,
      "start": 58.2317,
      "duration": 0.8096,
      "velocity": 87,
      "chip": "ym2612"
    },
    {
      "channel": 0,
      "note": 69,
      "start": 58.6341,
      "duration": 0.8084,
      "velocity": 87,
      "chip": "ym2612"
    },
    {
      "channel": 3,
      "note": 64,
      "start": 58.6353,
      "duration": 0.812,
      "velocity": 87,
      "chip": "ym2612"
    },
    {
      "channel": 4,
      "note": 60,
      "start": 58.6361,
      "duration": 0.8116,
      "velocity": 106,
      "chip": "ym2612"
    },
    {
      "channel": 5,
      "note": 65,
      "start": 58.6366,
      "duration": 0.8118,
      "velocity": 87,
      "chip": "ym2612"
    },
    {
      "channel": 1,
      "note": 45,
      "start": 59.0387,
      "duration": 0.4048,
      "velocity": 106,
      "chip": "ym2612"
    },
    {
      "channel": 2,
      "note": 69,
      "start": 59.042,
      "duration": 0.8078,
      "velocity": 87,
      "chip": "ym2612"
    },
    {
      "channel": 0,
      "note": 68,
      "start": 59.4432,
      "duration": 0.2013,
      "velocity": 87,
      "chip": "ym2612"
    },
    {
      "channel": 1,
      "note": 40,
      "start": 59.4441,
      "duration": 1.4145,
      "velocity": 106,
      "chip": "ym2612"
    },
    {
      "channel": 4,
      "note": 59,
      "start": 59.4483,
      "duration": 0.8051,
      "velocity": 106,
      "chip": "ym2612"
    },
    {
      "channel": 5,
      "note": 64,
      "start": 59.449,
      "duration": 0.1971,
      "velocity": 87,
      "chip": "ym2612"
    },
    {
      "channel": 0,
      "note": 69,
      "start": 59.6453,
      "duration": 0.2016,
      "velocity": 87,
      "chip": "ym2612"
    },
    {
      "channel": 5,
      "note": 66,
      "start": 59.6468,
      "duration": 0.2017,
      "velocity": 87,
      "chip": "ym2612"
    },
    {
      "channel": 0,
      "note": 68,
      "start": 59.8476,
      "duration": 0.2015,
      "velocity": 87,
      "chip": "ym2612"
    },
    {
      "channel": 5,
      "note": 64,
      "start": 59.849,
      "duration": 0.2017,
      "velocity": 87,
      "chip": "ym2612"
    },
    {
      "channel": 2,
      "note": 68,
      "start": 59.8505,
      "duration": 0.201,
      "velocity": 87,
      "chip": "ym2612"
    },
    {
      "channel": 0,
      "note": 69,
      "start": 60.0498,
      "duration": 0.2016,
      "velocity": 87,
      "chip": "ym2612"
    },
    {
      "channel": 5,
      "note": 66,
      "start": 60.0512,
      "duration": 0.2029,
      "velocity": 87,
      "chip": "ym2612"
    },
    {
      "channel": 2,
      "note": 69,
      "start": 60.0521,
      "duration": 0.2029,
      "velocity": 87,
      "chip": "ym2612"
    },
    {
      "channel": 0,
      "note": 68,
      "start": 60.2521,
      "duration": 0.8082,
      "velocity": 87,
      "chip": "ym2612"
    },
    {
      "channel": 3,
      "note": 68,
      "start": 60.2533,
      "duration": 0.201,
      "velocity": 87,
      "chip": "ym2612"
    },
    {
      "channel": 4,
      "note": 59,
      "start": 60.254,
      "duration": 0.8085,
      "velocity": 106,
      "chip": "ym2612"
    },
    {
      "channel": 5,
      "note": 64,
      "start": 60.2548,
      "duration": 1.0097,
      "velocity": 87,
      "chip": "ym2612"
    },
    {
      "channel": 2,
      "note": 68,
      "start": 60.2556,
      "duration": 0.2001,
      "velocity": 87,
      "chip": "ym2612"
    },
    {
      "channel": 3,
      "note": 69,
      "start": 60.4549,
      "duration": 0.203,
      "velocity": 87,
      "chip": "ym2612"
    },
    {
      "channel": 2,
      "note": 69,
      "start": 60.4564,
      "duration": 0.2029,
      "velocity": 87,
      "chip": "ym2612"
    },
    {
      "channel": 3,
      "note": 68,
      "start": 60.6584,
      "duration": 0.2009,
      "velocity": 87,
      "chip": "ym2612"
    },
    {
      "channel": 2,
      "note": 68,
      "start": 60.66,
      "duration": 0.808,
      "velocity": 87,
      "chip": "ym2612"
    },
    {
      "channel": 1,
      "note": 35,
      "start": 60.8592,
      "duration": 0.2018,
      "velocity": 106,
      "chip": "ym2612"
    },
    {
      "channel": 3,
      "note": 69,
      "start": 60.8599,
      "duration": 0.2018,
      "velocity": 87,
      "chip": "ym2612"
    },
    {
      "channel": 0,
      "note": 68,
      "start": 61.0608,
      "duration": 0.2018,
      "velocity": 87,
      "chip": "ym2612"
    },
    {
      "channel": 1,
      "note": 40,
      "start": 61.0616,
      "duration": 0.4043,
      "velocity": 106,
      "chip": "ym2612"
    },
    {
      "channel": 3,
      "note": 68,
      "start": 61.0623,
      "duration": 0.8081,
      "velocity": 87,
      "chip": "ym2612"
    },
    {
      "channel": 4,
      "note": 59,
      "start": 61.063,
      "duration": 0.808,
      "velocity": 106,
      "chip": "ym2612"
    },
    {
      "channel": 0,
      "note": 69,
      "start": 61.2632,
      "duration": 0.2019,
      "velocity": 87,
      "chip": "ym2612"
    },
    {
      "channel": 5,
      "note": 66,
      "start": 61.2651,
      "duration": 0.2022,
      "velocity": 87,
      "chip": "ym2612"
    },
    {
      "channel": 0,
      "note": 68,
      "start": 61.4658,
      "duration": 0.2013,
      "velocity": 87,
      "chip": "ym2612"
    },
    {
      "channel": 1,
      "note": 40,
      "start": 61.4663,
      "duration": 0.809,
      "velocity": 106,
      "chip": "ym2612"
    },
    {
      "channel": 5,
      "note": 64,
      "start": 61.4678,
      "duration": 0.2011,
      "velocity": 87,
      "chip": "ym2612"
    },
    {
      "channel": 2,
      "note": 68,
      "start": 61.4685,
      "duration": 0.2012,
      "velocity": 87,
      "chip": "ym2612"
    },
    {
      "channel": 0,
      "note": 69,
      "start": 61.6677,
      "duration": 0.2015,
      "velocity": 87,
      "chip": "ym2612"
    },
    {
      "channel": 5,
      "note": 66,
      "start": 61.6695,
      "duration": 0.2023,
      "velocity": 87,
      "chip": "ym2612"
    },
    {
      "channel": 2,
      "note": 69,
      "start": 61.6703,
      "duration": 0.2022,
      "velocity": 87,
      "chip": "ym2612"
    },
    {
      "channel": 0,
      "note": 68,
      "start": 61.87,
      "duration": 0.8083,
      "velocity": 87,
      "chip": "ym2612"
    },
    {
      "channel": 3,
      "note": 68,
      "start": 61.8709,
      "duration": 0.2013,
      "velocity": 87,
      "chip": "ym2612"
    },
    {
      "channel": 4,
      "note": 59,
      "start": 61.8716,
      "duration": 0.8088,
      "velocity": 106,
      "chip": "ym2612"
    },
    {
      "channel": 5,
      "note": 64,
      "start": 61.8724,
      "duration": 2.8301,
      "velocity": 87,
      "chip": "ym2612"
    },
    {
      "channel": 2,
      "note": 68,
      "start": 61.8745,
      "duration": 0.2005,
      "velocity": 87,
      "chip": "ym2612"
    },
    {
      "channel": 3,
      "note": 69,
      "start": 62.0728,
      "duration": 0.2031,
      "velocity": 87,
      "chip": "ym2612"
    },
    {
      "channel": 2,
      "note": 69,
      "start": 62.0757,
      "duration": 0.2017,
      "velocity": 87,
      "chip": "ym2612"
    },
    {
      "channel": 1,
      "note": 40,
      "start": 62.2758,
      "duration": 0.4032,
      "velocity": 106,
      "chip": "ym2612"
    },
    {
      "channel": 3,
      "note": 68,
      "start": 62.2765,
      "duration": 0.2002,
      "velocity": 87,
      "chip": "ym2612"
    },
    {
      "channel": 2,
      "note": 68,
      "start": 62.278,
      "duration": 0.8065,
      "velocity": 87,
      "chip": "ym2612"
    },
    {
      "channel": 3,
      "note": 69,
      "start": 62.4773,
      "duration": 0.2023,
      "velocity": 87,
      "chip": "ym2612"
    },
    {
      "channel": 0,
      "note": 68,
      "start": 62.6788,
      "duration": 2.022,
      "velocity": 87,
      "chip": "ym2612"
    },
    {
      "channel": 1,
      "note": 40,
      "start": 62.6796,
      "duration": 3.238,
      "velocity": 106,
      "chip": "ym2612"
    },
    {
      "channel": 3,
      "note": 68,
      "start": 62.6803,
      "duration": 0.8078,
      "velocity": 87,
      "chip": "ym2612"
    },
    {
      "channel": 4,
      "note": 59,
      "start": 62.6811,
      "duration": 1.6163,
      "velocity": 106,
      "chip": "ym2612"
    },
    {
      "channel": 2,
      "note": 68,
      "start": 63.0851,
      "duration": 2.024,
      "velocity": 87,
      "chip": "ym2612"
    },
    {
      "channel": 3,
      "note": 68,
      "start": 63.4885,
      "duration": 1.2135,
      "velocity": 87,
      "chip": "ym2612"
    },
    {
      "channel": 0,
      "note": 52,
      "start": 64.7015,
      "duration": 0.4036,
      "velocity": 87,
      "chip": "ym2612"
    },
    {
      "channel": 5,
      "note": 40,
      "start": 64.7031,
      "duration": 0.4034,
      "velocity": 87,
      "chip": "ym2612"
    },
    {
      "channel": 0,
      "note": 64,
      "start": 65.1058,
      "duration": 0.4038,
      "velocity": 87,
      "chip": "ym2612"
    },
    {
      "channel": 5,
      "note": 44,
      "start": 65.1084,
      "duration": 0.4026,
      "velocity": 87,
      "chip": "ym2612"
    },
    {
      "channel": 2,
      "note": 52,
      "start": 65.1098,
      "duration": 0.4019,
      "velocity": 87,
      "chip": "ym2612"
    },
    {
      "channel": 0,
      "note": 59,
      "start": 65.5103,
      "duration": 0.4039,
      "velocity": 87,
      "chip": "ym2612"
    },
    {
      "channel": 5,
      "note": 47,
      "start": 65.5116,
      "duration": 0.413,
      "velocity": 87,
      "chip": "ym2612"
    },
    {
      "channel": 2,
      "note": 64,
      "start": 65.5124,
      "duration": 0.4129,
      "velocity": 87,
      "chip": "ym2612"
    },
    {
      "channel": 0,
      "note": 59,
      "start": 65.9148,
      "duration": 0.0306,
      "velocity": 87,
      "chip": "ym2612"
    },
    {
      "channel": 1,
      "note": 40,
      "start": 65.9182,
      "duration": 0.0272,
      "velocity": 106,
      "chip": "ym2612"
    },
    {
      "channel": 3,
      "note": 63,
      "start": 65.9221,
      "duration": 0.0232,
      "velocity": 106,
      "chip": "ym2612"
    },
    {
      "channel": 4,
      "note": 59,
      "start": 65.9231,
      "duration": 0.0223,
      "velocity": 106,
      "chip": "ym2612"
    },
    {
      "channel": 5,
      "note": 49,
      "start": 65.9252,
      "duration": 0.0202,
      "velocity": 87,
      "chip": "ym2612"
    },
    {
      "channel": 2,
      "note": 59,
      "start": 65.926,
      "duration": 0.0194,
      "velocity": 87,
      "chip": "ym2612"
    }
  ]
}