{
  "track_name": "39 - Ending I",
  "duration_sec": 247.057,
  "sample_rate": 44100,
  "note_count": 1980,
  "unique_pitches": 41,
  "pitch_range": 58,
  "avg_note_duration": 0.7094,
  "reconstruction_stats": {
    "notes_reconstructed": 1980,
    "keyon_events": 1980,
    "keyoff_events": 1980,
    "orphan_keyons": 0,
    "unique_pitches": 41,
    "pitch_range": 58,
    "avg_duration_sec": 0.7094
  },
  "metadata": {
    "source": "S\\Sorcerian (Genesis)\\39 - Ending I.vgz"
  },
  "notes": [
    {
      "channel": 0,
      "note": 62,
      "start": 0.0,
      "duration": 0.3849,
      "velocity": 106,
      "chip": "ym2612"
    },
    {
      "channel": 1,
      "note": 45,
      "start": 0.0032,
      "duration": 2.747,
      "velocity": 97,
      "chip": "ym2612"
    },
    {
      "channel": 3,
      "note": 69,
      "start": 0.0067,
      "duration": 3.1393,
      "velocity": 100,
      "chip": "ym2612"
    },
    {
      "channel": 5,
      "note": 59,
      "start": 0.0124,
      "duration": 0.7682,
      "velocity": 106,
      "chip": "ym2612"
    },
    {
      "channel": 2,
      "note": 69,
      "start": 0.0158,
      "duration": 3.1319,
      "velocity": 100,
      "chip": "ym2612"
    },
    {
      "channel": 0,
      "note": 57,
      "start": 0.3855,
      "duration": 0.3936,
      "velocity": 106,
      "chip": "ym2612"
    },
    {
      "channel": 0,
      "note": 62,
      "start": 0.7796,
      "duration": 0.3934,
      "velocity": 106,
      "chip": "ym2612"
    },
    {
      "channel": 5,
      "note": 59,
      "start": 0.7812,
      "duration": 0.7876,
      "velocity": 106,
      "chip": "ym2612"
    },
    {
      "channel": 0,
      "note": 57,
      "start": 1.1737,
      "duration": 0.3936,
      "velocity": 106,
      "chip": "ym2612"
    },
    {
      "channel": 0,
      "note": 62,
      "start": 1.5678,
      "duration": 0.3934,
      "velocity": 106,
      "chip": "ym2612"
    },
    {
      "channel": 5,
      "note": 59,
      "start": 1.5694,
      "duration": 0.7875,
      "velocity": 106,
      "chip": "ym2612"
    },
    {
      "channel": 0,
      "note": 57,
      "start": 1.9619,
      "duration": 0.3935,
      "velocity": 106,
      "chip": "ym2612"
    },
    {
      "channel": 0,
      "note": 62,
      "start": 2.356,
      "duration": 0.3935,
      "velocity": 106,
      "chip": "ym2612"
    },
    {
      "channel": 5,
      "note": 59,
      "start": 2.3575,
      "duration": 0.7895,
      "velocity": 106,
      "chip": "ym2612"
    },
    {
      "channel": 0,
      "note": 57,
      "start": 2.75,
      "duration": 0.3944,
      "velocity": 106,
      "chip": "ym2612"
    },
    {
      "channel": 1,
      "note": 40,
      "start": 2.7508,
      "duration": 0.3945,
      "velocity": 97,
      "chip": "ym2612"
    },
    {
      "channel": 0,
      "note": 64,
      "start": 3.1451,
      "duration": 0.3927,
      "velocity": 106,
      "chip": "ym2612"
    },
    {
      "channel": 1,
      "note": 45,
      "start": 3.1459,
      "duration": 2.7572,
      "velocity": 97,
      "chip": "ym2612"
    },
    {
      "channel": 3,
      "note": 69,
      "start": 3.1465,
      "duration": 3.1515,
      "velocity": 100,
      "chip": "ym2612"
    },
    {
      "channel": 5,
      "note": 61,
      "start": 3.1476,
      "duration": 0.7858,
      "velocity": 106,
      "chip": "ym2612"
    },
    {
      "channel": 2,
      "note": 69,
      "start": 3.1481,
      "duration": 3.1515,
      "velocity": 100,
      "chip": "ym2612"
    },
    {
      "channel": 0,
      "note": 57,
      "start": 3.5383,
      "duration": 0.3935,
      "velocity": 106,
      "chip": "ym2612"
    },
    {
      "channel": 0,
      "note": 64,
      "start": 3.9324,
      "duration": 0.3935,
      "velocity": 106,
      "chip": "ym2612"
    },
    {
      "channel": 5,
      "note": 61,
      "start": 3.9339,
      "duration": 0.7875,
      "velocity": 106,
      "chip": "ym2612"
    },
    {
      "channel": 0,
      "note": 57,
      "start": 4.3279,
      "duration": 0.3921,
      "velocity": 106,
      "chip": "ym2612"
    },
    {
      "channel": 0,
      "note": 64,
      "start": 4.7206,
      "duration": 0.3935,
      "velocity": 106,
      "chip": "ym2612"
    },
    {
      "channel": 5,
      "note": 61,
      "start": 4.7221,
      "duration": 0.789,
      "velocity": 106,
      "chip": "ym2612"
    },
    {
      "channel": 0,
      "note": 57,
      "start": 5.1147,
      "duration": 0.3936,
      "velocity": 106,
      "chip": "ym2612"
    },
    {
      "channel": 0,
      "note": 64,
      "start": 5.5088,
      "duration": 0.3935,
      "velocity": 106,
      "chip": "ym2612"
    },
    {
      "channel": 5,
      "note": 61,
      "start": 5.5117,
      "duration": 0.7872,
      "velocity": 106,
      "chip": "ym2612"
    },
    {
      "channel": 0,
      "note": 57,
      "start": 5.9029,
      "duration": 0.3935,
      "velocity": 106,
      "chip": "ym2612"
    },
    {
      "channel": 1,
      "note": 40,
      "start": 5.9037,
      "duration": 0.3936,
      "velocity": 97,
      "chip": "ym2612"
    },
    {
      "channel": 0,
      "note": 62,
      "start": 6.297,
      "duration": 0.3936,
      "velocity": 106,
      "chip": "ym2612"
    },
    {
      "channel": 1,
      "note": 45,
      "start": 6.2978,
      "duration": 2.7581,
      "velocity": 97,
      "chip": "ym2612"
    },
    {
      "channel": 3,
      "note": 69,
      "start": 6.2985,
      "duration": 3.1524,
      "velocity": 100,
      "chip": "ym2612"
    },
    {
      "channel": 5,
      "note": 59,
      "start": 6.2995,
      "duration": 0.7867,
      "velocity": 106,
      "chip": "ym2612"
    },
    {
      "channel": 2,
      "note": 69,
      "start": 6.3001,
      "duration": 3.1524,
      "velocity": 100,
      "chip": "ym2612"
    },
    {
      "channel": 0,
      "note": 57,
      "start": 6.6911,
      "duration": 0.3935,
      "velocity": 106,
      "chip": "ym2612"
    },
    {
      "channel": 0,
      "note": 62,
      "start": 7.0852,
      "duration": 0.3934,
      "velocity": 106,
      "chip": "ym2612"
    },
    {
      "channel": 5,
      "note": 59,
      "start": 7.0868,
      "duration": 0.7876,
      "velocity": 106,
      "chip": "ym2612"
    },
    {
      "channel": 0,
      "note": 57,
      "start": 7.4793,
      "duration": 0.3936,
      "velocity": 106,
      "chip": "ym2612"
    },
    {
      "channel": 0,
      "note": 62,
      "start": 7.8734,
      "duration": 0.3934,
      "velocity": 106,
      "chip": "ym2612"
    },
    {
      "channel": 5,
      "note": 59,
      "start": 7.875,
      "duration": 0.7876,
      "velocity": 106,
      "chip": "ym2612"
    },
    {
      "channel": 0,
      "note": 57,
      "start": 8.2675,
      "duration": 0.3936,
      "velocity": 106,
      "chip": "ym2612"
    },
    {
      "channel": 0,
      "note": 62,
      "start": 8.6616,
      "duration": 0.3935,
      "velocity": 106,
      "chip": "ym2612"
    },
    {
      "channel": 5,
      "note": 59,
      "start": 8.6632,
      "duration": 0.7886,
      "velocity": 106,
      "chip": "ym2612"
    },
    {
      "channel": 0,
      "note": 57,
      "start": 9.0557,
      "duration": 0.3935,
      "velocity": 106,
      "chip": "ym2612"
    },
    {
      "channel": 1,
      "note": 40,
      "start": 9.0565,
      "duration": 0.3936,
      "velocity": 97,
      "chip": "ym2612"
    },
    {
      "channel": 0,
      "note": 64,
      "start": 9.4499,
      "duration": 0.3946,
      "velocity": 106,
      "chip": "ym2612"
    },
    {
      "channel": 1,
      "note": 45,
      "start": 9.4507,
      "duration": 3.1581,
      "velocity": 97,
      "chip": "ym2612"
    },
    {
      "channel": 3,
      "note": 69,
      "start": 9.4512,
      "duration": 3.1598,
      "velocity": 100,
      "chip": "ym2612"
    },
    {
      "channel": 5,
      "note": 61,
      "start": 9.4523,
      "duration": 0.7866,
      "velocity": 106,
      "chip": "ym2612"
    },
    {
      "channel": 2,
      "note": 69,
      "start": 9.4529,
      "duration": 3.1667,
      "velocity": 100,
      "chip": "ym2612"
    },
    {
      "channel": 0,
      "note": 57,
      "start": 9.8451,
      "duration": 0.3923,
      "velocity": 106,
      "chip": "ym2612"
    },
    {
      "channel": 0,
      "note": 64,
      "start": 10.238,
      "duration": 0.3936,
      "velocity": 106,
      "chip": "ym2612"
    },
    {
      "channel": 5,
      "note": 61,
      "start": 10.2395,
      "duration": 0.789,
      "velocity": 106,
      "chip": "ym2612"
    },
    {
      "channel": 0,
      "note": 57,
      "start": 10.6321,
      "duration": 0.3935,
      "velocity": 106,
      "chip": "ym2612"
    },
    {
      "channel": 0,
      "note": 64,
      "start": 11.0275,
      "duration": 1.5779,
      "velocity": 106,
      "chip": "ym2612"
    },
    {
      "channel": 5,
      "note": 61,
      "start": 11.029,
      "duration": 1.5898,
      "velocity": 95,
      "chip": "ym2612"
    },
    {
      "channel": 0,
      "note": 73,
      "start": 12.6061,
      "duration": 1.5723,
      "velocity": 106,
      "chip": "ym2612"
    },
    {
      "channel": 1,
      "note": 45,
      "start": 12.6108,
      "duration": 1.5684,
      "velocity": 97,
      "chip": "ym2612"
    },
    {
      "channel": 3,
      "note": 81,
      "start": 12.6117,
      "duration": 1.5682,
      "velocity": 100,
      "chip": "ym2612"
    },
    {
      "channel": 4,
      "note": 76,
      "start": 12.6153,
      "duration": 1.5653,
      "velocity": 100,
      "chip": "ym2612"
    },
    {
      "channel": 5,
      "note": 76,
      "start": 12.6194,
      "duration": 0.3782,
      "velocity": 95,
      "chip": "ym2612"
    },
    {
      "channel": 2,
      "note": 81,
      "start": 12.6203,
      "duration": 1.5619,
      "velocity": 100,
      "chip": "ym2612"
    },
    {
      "channel": 5,
      "note": 73,
      "start": 12.9981,
      "duration": 0.3935,
      "velocity": 95,
      "chip": "ym2612"
    },
    {
      "channel": 5,
      "note": 76,
      "start": 13.3923,
      "duration": 0.3934,
      "velocity": 95,
      "chip": "ym2612"
    },
    {
      "channel": 5,
      "note": 81,
      "start": 13.7864,
      "duration": 0.395,
      "velocity": 95,
      "chip": "ym2612"
    },
    {
      "channel": 0,
      "note": 74,
      "start": 14.179,
      "duration": 0.5832,
      "velocity": 106,
      "chip": "ym2612"
    },
    {
      "channel": 1,
      "note": 44,
      "start": 14.1798,
      "duration": 1.5758,
      "velocity": 97,
      "chip": "ym2612"
    },
    {
      "channel": 3,
      "note": 80,
      "start": 14.1805,
      "duration": 1.5758,
      "velocity": 100,
      "chip": "ym2612"
    },
    {
      "channel": 4,
      "note": 76,
      "start": 14.1813,
      "duration": 1.5758,
      "velocity": 100,
      "chip": "ym2612"
    },
    {
      "channel": 5,
      "note": 80,
      "start": 14.182,
      "duration": 0.392,
      "velocity": 95,
      "chip": "ym2612"
    },
    {
      "channel": 2,
      "note": 80,
      "start": 14.1827,
      "duration": 1.5758,
      "velocity": 100,
      "chip": "ym2612"
    },
    {
      "channel": 5,
      "note": 76,
      "start": 14.5745,
      "duration": 0.3935,
      "velocity": 95,
      "chip": "ym2612"
    },
    {
      "channel": 0,
      "note": 73,
      "start": 14.7628,
      "duration": 0.5983,
      "velocity": 106,
      "chip": "ym2612"
    },
    {
      "channel": 5,
      "note": 71,
      "start": 14.9687,
      "duration": 0.3943,
      "velocity": 95,
      "chip": "ym2612"
    },
    {
      "channel": 0,
      "note": 68,
      "start": 15.3617,
      "duration": 0.3931,
      "velocity": 106,
      "chip": "ym2612"
    },
    {
      "channel": 5,
      "note": 76,
      "start": 15.3636,
      "duration": 0.3942,
      "velocity": 95,
      "chip": "ym2612"
    },
    {
      "channel": 0,
      "note": 71,
      "start": 15.7554,
      "duration": 1.1817,
      "velocity": 106,
      "chip": "ym2612"
    },
    {
      "channel": 1,
      "note": 42,
      "start": 15.7561,
      "duration": 1.5759,
      "velocity": 97,
      "chip": "ym2612"
    },
    {
      "channel": 3,
      "note": 78,
      "start": 15.7569,
      "duration": 1.5758,
      "velocity": 100,
      "chip": "ym2612"
    },
    {
      "channel": 4,
      "note": 73,
      "start": 15.7576,
      "duration": 1.5759,
      "velocity": 100,
      "chip": "ym2612"
    },
    {
      "channel": 5,
      "note": 78,
      "start": 15.7584,
      "duration": 0.392,
      "velocity": 95,
      "chip": "ym2612"
    },
    {
      "channel": 2,
      "note": 78,
      "start": 15.7591,
      "duration": 1.5759,
      "velocity": 100,
      "chip": "ym2612"
    },
    {
      "channel": 5,
      "note": 73,
      "start": 16.151,
      "duration": 0.3947,
      "velocity": 95,
      "chip": "ym2612"
    },
    {
      "channel": 5,
      "note": 78,
      "start": 16.5463,
      "duration": 0.3927,
      "velocity": 95,
      "chip": "ym2612"
    },
    {
      "channel": 0,
      "note": 69,
      "start": 16.9378,
      "duration": 0.1901,
      "velocity": 106,
      "chip": "ym2612"
    },
    {
      "channel": 5,
      "note": 81,
      "start": 16.9395,
      "duration": 0.3947,
      "velocity": 95,
      "chip": "ym2612"
    },
    {
      "channel": 0,
      "note": 68,
      "start": 17.1284,
      "duration": 0.2029,
      "velocity": 106,
      "chip": "ym2612"
    },
    {
      "channel": 0,
      "note": 69,
      "start": 17.3319,
      "duration": 0.7876,
      "velocity": 106,
      "chip": "ym2612"
    },
    {
      "channel": 1,
      "note": 40,
      "start": 17.3326,
      "duration": 1.5758,
      "velocity": 97,
      "chip": "ym2612"
    },
    {
      "channel": 3,
      "note": 76,
      "start": 17.3334,
      "duration": 0.787,
      "velocity": 100,
      "chip": "ym2612"
    },
    {
      "channel": 4,
      "note": 73,
      "start": 17.3341,
      "duration": 0.787,
      "velocity": 100,
      "chip": "ym2612"
    },
    {
      "channel": 5,
      "note": 76,
      "start": 17.3348,
      "duration": 0.3932,
      "velocity": 95,
      "chip": "ym2612"
    },
    {
      "channel": 2,
      "note": 76,
      "start": 17.3356,
      "duration": 0.787,
      "velocity": 100,
      "chip": "ym2612"
    },
    {
      "channel": 5,
      "note": 69,
      "start": 17.7287,
      "duration": 0.3933,
      "velocity": 95,
      "chip": "ym2612"
    },
    {
      "channel": 0,
      "note": 69,
      "start": 18.1199,
      "duration": 0.3937,
      "velocity": 106,
      "chip": "ym2612"
    },
    {
      "channel": 3,
      "note": 78,
      "start": 18.121,
      "duration": 0.3936,
      "velocity": 100,
      "chip": "ym2612"
    },
    {
      "channel": 4,
      "note": 73,
      "start": 18.1217,
      "duration": 0.3936,
      "velocity": 100,
      "chip": "ym2612"
    },
    {
      "channel": 5,
      "note": 73,
      "start": 18.1225,
      "duration": 0.3936,
      "velocity": 95,
      "chip": "ym2612"
    },
    {
      "channel": 2,
      "note": 78,
      "start": 18.1233,
      "duration": 0.3936,
      "velocity": 100,
      "chip": "ym2612"
    },
    {
      "channel": 0,
      "note": 68,
      "start": 18.5141,
      "duration": 0.3936,
      "velocity": 106,
      "chip": "ym2612"
    },
    {
      "channel": 3,
      "note": 76,
      "start": 18.5152,
      "duration": 0.3939,
      "velocity": 100,
      "chip": "ym2612"
    },
    {
      "channel": 4,
      "note": 71,
      "start": 18.5159,
      "duration": 0.3953,
      "velocity": 100,
      "chip": "ym2612"
    },
    {
      "channel": 5,
      "note": 71,
      "start": 18.5166,
      "duration": 0.3954,
      "velocity": 95,
      "chip": "ym2612"
    },
    {
      "channel": 2,
      "note": 76,
      "start": 18.5174,
      "duration": 0.3954,
      "velocity": 100,
      "chip": "ym2612"
    },
    {
      "channel": 0,
      "note": 66,
      "start": 18.9083,
      "duration": 1.5761,
      "velocity": 106,
      "chip": "ym2612"
    },
    {
      "channel": 1,
      "note": 38,
      "start": 18.909,
      "duration": 1.5757,
      "velocity": 97,
      "chip": "ym2612"
    },
    {
      "channel": 3,
      "note": 74,
      "start": 18.9111,
      "duration": 1.9681,
      "velocity": 100,
      "chip": "ym2612"
    },
    {
      "channel": 4,
      "note": 69,
      "start": 18.9119,
      "duration": 1.9681,
      "velocity": 100,
      "chip": "ym2612"
    },
    {
      "channel": 5,
      "note": 69,
      "start": 18.9126,
      "duration": 0.3905,
      "velocity": 95,
      "chip": "ym2612"
    },
    {
      "channel": 2,
      "note": 74,
      "start": 18.9133,
      "duration": 1.9681,
      "velocity": 100,
      "chip": "ym2612"
    },
    {
      "channel": 5,
      "note": 69,
      "start": 19.3037,
      "duration": 0.3936,
      "velocity": 95,
      "chip": "ym2612"
    },
    {
      "channel": 5,
      "note": 74,
      "start": 19.6978,
      "duration": 0.3935,
      "velocity": 95,
      "chip": "ym2612"
    },
    {
      "channel": 5,
      "note": 78,
      "start": 20.092,
      "duration": 0.3941,
      "velocity": 95,
      "chip": "ym2612"
    },
    {
      "channel": 1,
      "note": 37,
      "start": 20.4852,
      "duration": 1.5766,
      "velocity": 97,
      "chip": "ym2612"
    },
    {
      "channel": 5,
      "note": 76,
      "start": 20.4867,
      "duration": 0.3941,
      "velocity": 95,
      "chip": "ym2612"
    },
    {
      "channel": 0,
      "note": 64,
      "start": 20.8787,
      "duration": 0.3934,
      "velocity": 106,
      "chip": "ym2612"
    },
    {
      "channel": 3,
      "note": 73,
      "start": 20.8798,
      "duration": 0.3934,
      "velocity": 100,
      "chip": "ym2612"
    },
    {
      "channel": 4,
      "note": 69,
      "start": 20.8806,
      "duration": 0.3935,
      "velocity": 100,
      "chip": "ym2612"
    },
    {
      "channel": 5,
      "note": 73,
      "start": 20.8813,
      "duration": 0.3934,
      "velocity": 95,
      "chip": "ym2612"
    },
    {
      "channel": 2,
      "note": 73,
      "start": 20.8821,
      "duration": 0.3934,
      "velocity": 100,
      "chip": "ym2612"
    },
    {
      "channel": 0,
      "note": 57,
      "start": 21.2727,
      "duration": 0.3936,
      "velocity": 106,
      "chip": "ym2612"
    },
    {
      "channel": 3,
      "note": 64,
      "start": 21.2738,
      "duration": 0.3935,
      "velocity": 100,
      "chip": "ym2612"
    },
    {
      "channel": 4,
      "note": 61,
      "start": 21.2746,
      "duration": 0.3935,
      "velocity": 100,
      "chip": "ym2612"
    },
    {
      "channel": 5,
      "note": 69,
      "start": 21.2754,
      "duration": 0.3935,
      "velocity": 95,
      "chip": "ym2612"
    },
    {
      "channel": 2,
      "note": 64,
      "start": 21.2775,
      "duration": 0.3921,
      "velocity": 100,
      "chip": "ym2612"
    },
    {
      "channel": 0,
      "note": 61,
      "start": 21.6669,
      "duration": 0.3942,
      "velocity": 106,
      "chip": "ym2612"
    },
    {
      "channel": 3,
      "note": 69,
      "start": 21.668,
      "duration": 0.3946,
      "velocity": 100,
      "chip": "ym2612"
    },
    {
      "channel": 4,
      "note": 64,
      "start": 21.6687,
      "duration": 0.3946,
      "velocity": 100,
      "chip": "ym2612"
    },
    {
      "channel": 5,
      "note": 73,
      "start": 21.6695,
      "duration": 0.3946,
      "velocity": 95,
      "chip": "ym2612"
    },
    {
      "channel": 2,
      "note": 69,
      "start": 21.6702,
      "duration": 0.3946,
      "velocity": 100,
      "chip": "ym2612"
    },
    {
      "channel": 0,
      "note": 61,
      "start": 22.0617,
      "duration": 1.1823,
      "velocity": 106,
      "chip": "ym2612"
    },
    {
      "channel": 1,
      "note": 35,
      "start": 22.0624,
      "duration": 1.5752,
      "velocity": 97,
      "chip": "ym2612"
    },
    {
      "channel": 3,
      "note": 69,
      "start": 22.0632,
      "duration": 1.1819,
      "velocity": 100,
      "chip": "ym2612"
    },
    {
      "channel": 4,
      "note": 64,
      "start": 22.0639,
      "duration": 1.182,
      "velocity": 100,
      "chip": "ym2612"
    },
    {
      "channel": 5,
      "note": 74,
      "start": 22.0647,
      "duration": 0.3913,
      "velocity": 95,
      "chip": "ym2612"
    },
    {
      "channel": 2,
      "note": 69,
      "start": 22.0654,
      "duration": 1.1818,
      "velocity": 100,
      "chip": "ym2612"
    },
    {
      "channel": 5,
      "note": 73,
      "start": 22.4565,
      "duration": 0.3934,
      "velocity": 95,
      "chip": "ym2612"
    },
    {
      "channel": 5,
      "note": 71,
      "start": 22.8506,
      "duration": 0.3959,
      "velocity": 95,
      "chip": "ym2612"
    },
    {
      "channel": 0,
      "note": 62,
      "start": 23.2446,
      "duration": 0.1879,
      "velocity": 106,
      "chip": "ym2612"
    },
    {
      "channel": 3,
      "note": 71,
      "start": 23.2457,
      "duration": 0.1878,
      "velocity": 100,
      "chip": "ym2612"
    },
    {
      "channel": 4,
      "note": 64,
      "start": 23.2463,
      "duration": 0.1879,
      "velocity": 100,
      "chip": "ym2612"
    },
    {
      "channel": 5,
      "note": 69,
      "start": 23.2471,
      "duration": 0.3926,
      "velocity": 95,
      "chip": "ym2612"
    },
    {
      "channel": 2,
      "note": 71,
      "start": 23.2478,
      "duration": 0.1874,
      "velocity": 100,
      "chip": "ym2612"
    },
    {
      "channel": 0,
      "note": 61,
      "start": 23.4331,
      "duration": 0.2037,
      "velocity": 106,
      "chip": "ym2612"
    },
    {
      "channel": 3,
      "note": 69,
      "start": 23.4341,
      "duration": 0.2041,
      "velocity": 100,
      "chip": "ym2612"
    },
    {
      "channel": 4,
      "note": 64,
      "start": 23.4347,
      "duration": 0.2043,
      "velocity": 100,
      "chip": "ym2612"
    },
    {
      "channel": 2,
      "note": 69,
      "start": 23.4359,
      "duration": 0.2045,
      "velocity": 100,
      "chip": "ym2612"
    },
    {
      "channel": 0,
      "note": 59,
      "start": 23.6374,
      "duration": 1.5759,
      "velocity": 106,
      "chip": "ym2612"
    },
    {
      "channel": 1,
      "note": 40,
      "start": 23.6381,
      "duration": 1.5759,
      "velocity": 97,
      "chip": "ym2612"
    },
    {
      "channel": 3,
      "note": 68,
      "start": 23.6388,
      "duration": 1.5759,
      "velocity": 100,
      "chip": "ym2612"
    },
    {
      "channel": 4,
      "note": 64,
      "start": 23.6395,
      "duration": 1.576,
      "velocity": 100,
      "chip": "ym2612"
    },
    {
      "channel": 5,
      "note": 68,
      "start": 23.6402,
      "duration": 0.3921,
      "velocity": 95,
      "chip": "ym2612"
    },
    {
      "channel": 2,
      "note": 68,
      "start": 23.641,
      "duration": 1.5761,
      "velocity": 100,
      "chip": "ym2612"
    },
    {
      "channel": 5,
      "note": 64,
      "start": 24.0329,
      "duration": 0.3949,
      "velocity": 95,
      "chip": "ym2612"
    },
    {
      "channel": 5,
      "note": 68,
      "start": 24.4283,
      "duration": 0.3922,
      "velocity": 95,
      "chip": "ym2612"
    },
    {
      "channel": 5,
      "note": 74,
      "start": 24.8212,
      "duration": 0.3951,
      "velocity": 95,
      "chip": "ym2612"
    },
    {
      "channel": 0,
      "note": 61,
      "start": 25.2139,
      "duration": 1.5758,
      "velocity": 106,
      "chip": "ym2612"
    },
    {
      "channel": 1,
      "note": 45,
      "start": 25.2146,
      "duration": 1.5758,
      "velocity": 97,
      "chip": "ym2612"
    },
    {
      "channel": 3,
      "note": 69,
      "start": 25.2154,
      "duration": 1.5757,
      "velocity": 100,
      "chip": "ym2612"
    },
    {
      "channel": 4,
      "note": 64,
      "start": 25.2161,
      "duration": 1.5757,
      "velocity": 100,
      "chip": "ym2612"
    },
    {
      "channel": 5,
      "note": 73,
      "start": 25.2168,
      "duration": 0.3919,
      "velocity": 95,
      "chip": "ym2612"
    },
    {
      "channel": 2,
      "note": 69,
      "start": 25.2176,
      "duration": 1.5771,
      "velocity": 100,
      "chip": "ym2612"
    },
    {
      "channel": 5,
      "note": 64,
      "start": 25.6093,
      "duration": 0.3934,
      "velocity": 95,
      "chip": "ym2612"
    },
    {
      "channel": 5,
      "note": 76,
      "start": 26.0034,
      "duration": 0.3936,
      "velocity": 95,
      "chip": "ym2612"
    },
    {
      "channel": 5,
      "note": 64,
      "start": 26.3976,
      "duration": 0.395,
      "velocity": 95,
      "chip": "ym2612"
    },
    {
      "channel": 0,
      "note": 64,
      "start": 26.7902,
      "duration": 0.3936,
      "velocity": 106,
      "chip": "ym2612"
    },
    {
      "channel": 1,
      "note": 44,
      "start": 26.7909,
      "duration": 1.5759,
      "velocity": 97,
      "chip": "ym2612"
    },
    {
      "channel": 3,
      "note": 71,
      "start": 26.7917,
      "duration": 0.3931,
      "velocity": 100,
      "chip": "ym2612"
    },
    {
      "channel": 4,
      "note": 68,
      "start": 26.7925,
      "duration": 0.3931,
      "velocity": 100,
      "chip": "ym2612"
    },
    {
      "channel": 5,
      "note": 71,
      "start": 26.7946,
      "duration": 0.3917,
      "velocity": 95,
      "chip": "ym2612"
    },
    {
      "channel": 2,
      "note": 71,
      "start": 26.7953,
      "duration": 0.3917,
      "velocity": 100,
      "chip": "ym2612"
    },
    {
      "channel": 0,
      "note": 64,
      "start": 27.1843,
      "duration": 0.3935,
      "velocity": 106,
      "chip": "ym2612"
    },
    {
      "channel": 3,
      "note": 71,
      "start": 27.1854,
      "duration": 0.3935,
      "velocity": 100,
      "chip": "ym2612"
    },
    {
      "channel": 4,
      "note": 68,
      "start": 27.1862,
      "duration": 0.3935,
      "velocity": 100,
      "chip": "ym2612"
    },
    {
      "channel": 5,
      "note": 68,
      "start": 27.1869,
      "duration": 0.3936,
      "velocity": 95,
      "chip": "ym2612"
    },
    {
      "channel": 2,
      "note": 71,
      "start": 27.1876,
      "duration": 0.3936,
      "velocity": 100,
      "chip": "ym2612"
    },
    {
      "channel": 0,
      "note": 71,
      "start": 27.5785,
      "duration": 0.3934,
      "velocity": 106,
      "chip": "ym2612"
    },
    {
      "channel": 3,
      "note": 80,
      "start": 27.5796,
      "duration": 0.3934,
      "velocity": 100,
      "chip": "ym2612"
    },
    {
      "channel": 4,
      "note": 76,
      "start": 27.5803,
      "duration": 0.3934,
      "velocity": 100,
      "chip": "ym2612"
    },
    {
      "channel": 5,
      "note": 76,
      "start": 27.581,
      "duration": 0.3934,
      "velocity": 95,
      "chip": "ym2612"
    },
    {
      "channel": 2,
      "note": 80,
      "start": 27.5818,
      "duration": 0.3934,
      "velocity": 100,
      "chip": "ym2612"
    },
    {
      "channel": 0,
      "note": 68,
      "start": 27.9725,
      "duration": 0.3935,
      "velocity": 106,
      "chip": "ym2612"
    },
    {
      "channel": 3,
      "note": 76,
      "start": 27.9736,
      "duration": 0.3939,
      "velocity": 100,
      "chip": "ym2612"
    },
    {
      "channel": 4,
      "note": 71,
      "start": 27.9744,
      "duration": 0.3939,
      "velocity": 100,
      "chip": "ym2612"
    },
    {
      "channel": 5,
      "note": 71,
      "start": 27.9751,
      "duration": 0.3939,
      "velocity": 95,
      "chip": "ym2612"
    },
    {
      "channel": 2,
      "note": 76,
      "start": 27.9758,
      "duration": 0.394,
      "velocity": 100,
      "chip": "ym2612"
    },
    {
      "channel": 0,
      "note": 69,
      "start": 28.3666,
      "duration": 1.9699,
      "velocity": 106,
      "chip": "ym2612"
    },
    {
      "channel": 1,
      "note": 42,
      "start": 28.3673,
      "duration": 1.5768,
      "velocity": 97,
      "chip": "ym2612"
    },
    {
      "channel": 3,
      "note": 78,
      "start": 28.3681,
      "duration": 1.9695,
      "velocity": 100,
      "chip": "ym2612"
    },
    {
      "channel": 4,
      "note": 73,
      "start": 28.3689,
      "duration": 1.9695,
      "velocity": 100,
      "chip": "ym2612"
    },
    {
      "channel": 5,
      "note": 73,
      "start": 28.3696,
      "duration": 0.393,
      "velocity": 95,
      "chip": "ym2612"
    },
    {
      "channel": 2,
      "note": 78,
      "start": 28.3703,
      "duration": 1.9695,
      "velocity": 100,
      "chip": "ym2612"
    },
    {
      "channel": 5,
      "note": 66,
      "start": 28.7632,
      "duration": 0.3925,
      "velocity": 95,
      "chip": "ym2612"
    },
    {
      "channel": 5,
      "note": 73,
      "start": 29.1563,
      "duration": 0.3934,
      "velocity": 95,
      "chip": "ym2612"
    },
    {
      "channel": 5,
      "note": 69,
      "start": 29.5503,
      "duration": 0.3952,
      "velocity": 95,
      "chip": "ym2612"
    },
    {
      "channel": 1,
      "note": 40,
      "start": 29.9447,
      "duration": 1.5748,
      "velocity": 97,
      "chip": "ym2612"
    },
    {
      "channel": 5,
      "note": 68,
      "start": 29.9462,
      "duration": 0.393,
      "velocity": 95,
      "chip": "ym2612"
    },
    {
      "channel": 0,
      "note": 68,
      "start": 30.3371,
      "duration": 0.3935,
      "velocity": 106,
      "chip": "ym2612"
    },
    {
      "channel": 3,
      "note": 76,
      "start": 30.3382,
      "duration": 1.1821,
      "velocity": 100,
      "chip": "ym2612"
    },
    {
      "channel": 4,
      "note": 71,
      "start": 30.339,
      "duration": 1.1821,
      "velocity": 100,
      "chip": "ym2612"
    },
    {
      "channel": 5,
      "note": 64,
      "start": 30.3397,
      "duration": 0.3928,
      "velocity": 95,
      "chip": "ym2612"
    },
    {
      "channel": 2,
      "note": 76,
      "start": 30.3405,
      "duration": 1.182,
      "velocity": 100,
      "chip": "ym2612"
    },
    {
      "channel": 0,
      "note": 69,
      "start": 30.7313,
      "duration": 0.3934,
      "velocity": 106,
      "chip": "ym2612"
    },
    {
      "channel": 5,
      "note": 66,
      "start": 30.7331,
      "duration": 0.3948,
      "velocity": 95,
      "chip": "ym2612"
    },
    {
      "channel": 0,
      "note": 71,
      "start": 31.1254,
      "duration": 0.3934,
      "velocity": 106,
      "chip": "ym2612"
    },
    {
      "channel": 5,
      "note": 68,
      "start": 31.1284,
      "duration": 0.3934,
      "velocity": 95,
      "chip": "ym2612"
    },
    {
      "channel": 0,
      "note": 66,
      "start": 31.5194,
      "duration": 1.1817,
      "velocity": 106,
      "chip": "ym2612"
    },
    {
      "channel": 1,
      "note": 38,
      "start": 31.5201,
      "duration": 1.5759,
      "velocity": 97,
      "chip": "ym2612"
    },
    {
      "channel": 3,
      "note": 74,
      "start": 31.5208,
      "duration": 1.5758,
      "velocity": 100,
      "chip": "ym2612"
    },
    {
      "channel": 4,
      "note": 69,
      "start": 31.5216,
      "duration": 1.5758,
      "velocity": 100,
      "chip": "ym2612"
    },
    {
      "channel": 5,
      "note": 74,
      "start": 31.5224,
      "duration": 0.392,
      "velocity": 95,
      "chip": "ym2612"
    },
    {
      "channel": 2,
      "note": 74,
      "start": 31.5231,
      "duration": 1.5758,
      "velocity": 100,
      "chip": "ym2612"
    },
    {
      "channel": 5,
      "note": 66,
      "start": 31.9149,
      "duration": 0.3934,
      "velocity": 95,
      "chip": "ym2612"
    },
    {
      "channel": 5,
      "note": 69,
      "start": 32.309,
      "duration": 0.3938,
      "velocity": 95,
      "chip": "ym2612"
    },
    {
      "channel": 0,
      "note": 66,
      "start": 32.7016,
      "duration": 0.1893,
      "velocity": 106,
      "chip": "ym2612"
    },
    {
      "channel": 5,
      "note": 66,
      "start": 32.7034,
      "duration": 0.3949,
      "velocity": 95,
      "chip": "ym2612"
    },
    {
      "channel": 0,
      "note": 68,
      "start": 32.8915,
      "duration": 0.2038,
      "velocity": 106,
      "chip": "ym2612"
    },
    {
      "channel": 0,
      "note": 69,
      "start": 33.0958,
      "duration": 0.3935,
      "velocity": 106,
      "chip": "ym2612"
    },
    {
      "channel": 1,
      "note": 40,
      "start": 33.0965,
      "duration": 1.5759,
      "velocity": 97,
      "chip": "ym2612"
    },
    {
      "channel": 3,
      "note": 78,
      "start": 33.0973,
      "duration": 0.3929,
      "velocity": 100,
      "chip": "ym2612"
    },
    {
      "channel": 4,
      "note": 71,
      "start": 33.0981,
      "duration": 0.3928,
      "velocity": 100,
      "chip": "ym2612"
    },
    {
      "channel": 5,
      "note": 74,
      "start": 33.0988,
      "duration": 0.3927,
      "velocity": 95,
      "chip": "ym2612"
    },
    {
      "channel": 2,
      "note": 78,
      "start": 33.0995,
      "duration": 0.3927,
      "velocity": 100,
      "chip": "ym2612"
    },
    {
      "channel": 0,
      "note": 69,
      "start": 33.4897,
      "duration": 0.1894,
      "velocity": 106,
      "chip": "ym2612"
    },
    {
      "channel": 3,
      "note": 78,
      "start": 33.4907,
      "duration": 0.1894,
      "velocity": 100,
      "chip": "ym2612"
    },
    {
      "channel": 4,
      "note": 71,
      "start": 33.4913,
      "duration": 0.1893,
      "velocity": 100,
      "chip": "ym2612"
    },
    {
      "channel": 5,
      "note": 64,
      "start": 33.492,
      "duration": 0.3928,
      "velocity": 95,
      "chip": "ym2612"
    },
    {
      "channel": 2,
      "note": 78,
      "start": 33.4927,
      "duration": 0.1889,
      "velocity": 100,
      "chip": "ym2612"
    },
    {
      "channel": 0,
      "note": 69,
      "start": 33.6796,
      "duration": 0.3936,
      "velocity": 106,
      "chip": "ym2612"
    },
    {
      "channel": 3,
      "note": 78,
      "start": 33.6805,
      "duration": 0.3938,
      "velocity": 100,
      "chip": "ym2612"
    },
    {
      "channel": 4,
      "note": 71,
      "start": 33.6811,
      "duration": 0.3939,
      "velocity": 100,
      "chip": "ym2612"
    },
    {
      "channel": 2,
      "note": 78,
      "start": 33.682,
      "duration": 0.394,
      "velocity": 100,
      "chip": "ym2612"
    },
    {
      "channel": 5,
      "note": 66,
      "start": 33.8854,
      "duration": 0.3938,
      "velocity": 95,
      "chip": "ym2612"
    },
    {
      "channel": 0,
      "note": 68,
      "start": 34.0738,
      "duration": 0.5979,
      "velocity": 106,
      "chip": "ym2612"
    },
    {
      "channel": 3,
      "note": 76,
      "start": 34.0749,
      "duration": 0.5983,
      "velocity": 100,
      "chip": "ym2612"
    },
    {
      "channel": 4,
      "note": 71,
      "start": 34.0755,
      "duration": 0.5984,
      "velocity": 100,
      "chip": "ym2612"
    },
    {
      "channel": 2,
      "note": 76,
      "start": 34.0779,
      "duration": 0.5975,
      "velocity": 100,
      "chip": "ym2612"
    },
    {
      "channel": 5,
      "note": 68,
      "start": 34.2798,
      "duration": 0.3949,
      "velocity": 95,
      "chip": "ym2612"
    },
    {
      "channel": 0,
      "note": 69,
      "start": 34.6722,
      "duration": 3.1569,
      "velocity": 105,
      "chip": "ym2612"
    },
    {
      "channel": 1,
      "note": 45,
      "start": 34.673,
      "duration": 0.7885,
      "velocity": 97,
      "chip": "ym2612"
    },
    {
      "channel": 3,
      "note": 76,
      "start": 34.6738,
      "duration": 3.1627,
      "velocity": 100,
      "chip": "ym2612"
    },
    {
      "channel": 4,
      "note": 73,
      "start": 34.6745,
      "duration": 3.1655,
      "velocity": 100,
      "chip": "ym2612"
    },
    {
      "channel": 5,
      "note": 69,
      "start": 34.6753,
      "duration": 0.3919,
      "velocity": 95,
      "chip": "ym2612"
    },
    {
      "channel": 2,
      "note": 76,
      "start": 34.6774,
      "duration": 3.1709,
      "velocity": 100,
      "chip": "ym2612"
    },
    {
      "channel": 5,
      "note": 64,
      "start": 35.0677,
      "duration": 0.3951,
      "velocity": 95,
      "chip": "ym2612"
    },
    {
      "channel": 1,
      "note": 45,
      "start": 35.462,
      "duration": 0.7864,
      "velocity": 97,
      "chip": "ym2612"
    },
    {
      "channel": 5,
      "note": 76,
      "start": 35.4634,
      "duration": 0.3919,
      "velocity": 95,
      "chip": "ym2612"
    },
    {
      "channel": 5,
      "note": 64,
      "start": 35.8559,
      "duration": 0.3938,
      "velocity": 95,
      "chip": "ym2612"
    },
    {
      "channel": 1,
      "note": 45,
      "start": 36.2488,
      "duration": 0.7877,
      "velocity": 97,
      "chip": "ym2612"
    },
    {
      "channel": 5,
      "note": 69,
      "start": 36.2502,
      "duration": 0.3947,
      "velocity": 95,
      "chip": "ym2612"
    },
    {
      "channel": 5,
      "note": 64,
      "start": 36.6456,
      "duration": 0.3922,
      "velocity": 95,
      "chip": "ym2612"
    },
    {
      "channel": 1,
      "note": 45,
      "start": 37.037,
      "duration": 0.7957,
      "velocity": 97,
      "chip": "ym2612"
    },
    {
      "channel": 5,
      "note": 67,
      "start": 37.0385,
      "duration": 0.3933,
      "velocity": 95,
      "chip": "ym2612"
    },
    {
      "channel": 5,
      "note": 76,
      "start": 37.4324,
      "duration": 0.4123,
      "velocity": 97,
      "chip": "ym2612"
    },
    {
      "channel": 0,
      "note": 66,
      "start": 37.8298,
      "duration": 1.5711,
      "velocity": 105,
      "chip": "ym2612"
    },
    {
      "channel": 1,
      "note": 38,
      "start": 37.8333,
      "duration": 0.7798,
      "velocity": 97,
      "chip": "ym2612"
    },
    {
      "channel": 3,
      "note": 74,
      "start": 37.8371,
      "duration": 0.7767,
      "velocity": 100,
      "chip": "ym2612"
    },
    {
      "channel": 5,
      "note": 78,
      "start": 37.8453,
      "duration": 0.17,
      "velocity": 97,
      "chip": "ym2612"
    },
    {
      "channel": 2,
      "note": 74,
      "start": 37.849,
      "duration": 0.7664,
      "velocity": 100,
      "chip": "ym2612"
    },
    {
      "channel": 5,
      "note": 74,
      "start": 38.0159,
      "duration": 0.2039,
      "velocity": 97,
      "chip": "ym2612"
    },
    {
      "channel": 5,
      "note": 69,
      "start": 38.2204,
      "duration": 0.1905,
      "velocity": 97,
      "chip": "ym2612"
    },
    {
      "channel": 5,
      "note": 74,
      "start": 38.4115,
      "duration": 0.2032,
      "velocity": 97,
      "chip": "ym2612"
    },
    {
      "channel": 1,
      "note": 38,
      "start": 38.6137,
      "duration": 0.788,
      "velocity": 97,
      "chip": "ym2612"
    },
    {
      "channel": 3,
      "note": 74,
      "start": 38.6144,
      "duration": 0.788,
      "velocity": 100,
      "chip": "ym2612"
    },
    {
      "channel": 5,
      "note": 78,
      "start": 38.6152,
      "duration": 0.1884,
      "velocity": 97,
      "chip": "ym2612"
    },
    {
      "channel": 2,
      "note": 74,
      "start": 38.616,
      "duration": 0.788,
      "velocity": 100,
      "chip": "ym2612"
    },
    {
      "channel": 5,
      "note": 74,
      "start": 38.8042,
      "duration": 0.2038,
      "velocity": 97,
      "chip": "ym2612"
    },
    {
      "channel": 5,
      "note": 69,
      "start": 39.0086,
      "duration": 0.1892,
      "velocity": 97,
      "chip": "ym2612"
    },
    {
      "channel": 5,
      "note": 74,
      "start": 39.1983,
      "duration": 0.2049,
      "velocity": 97,
      "chip": "ym2612"
    },
    {
      "channel": 0,
      "note": 68,
      "start": 39.4016,
      "duration": 0.3933,
      "velocity": 105,
      "chip": "ym2612"
    },
    {
      "channel": 1,
      "note": 40,
      "start": 39.4023,
      "duration": 0.7871,
      "velocity": 97,
      "chip": "ym2612"
    },
    {
      "channel": 3,
      "note": 76,
      "start": 39.403,
      "duration": 0.787,
      "velocity": 100,
      "chip": "ym2612"
    },
    {
      "channel": 5,
      "note": 80,
      "start": 39.4039,
      "duration": 0.1878,
      "velocity": 97,
      "chip": "ym2612"
    },
    {
      "channel": 2,
      "note": 76,
      "start": 39.4046,
      "duration": 0.7871,
      "velocity": 100,
      "chip": "ym2612"
    },
    {
      "channel": 5,
      "note": 76,
      "start": 39.5923,
      "duration": 0.2043,
      "velocity": 97,
      "chip": "ym2612"
    },
    {
      "channel": 0,
      "note": 69,
      "start": 39.7956,
      "duration": 0.1891,
      "velocity": 105,
      "chip": "ym2612"
    },
    {
      "channel": 5,
      "note": 71,
      "start": 39.7971,
      "duration": 0.1892,
      "velocity": 97,
      "chip": "ym2612"
    },
    {
      "channel": 0,
      "note": 71,
      "start": 39.9854,
      "duration": 0.3934,
      "velocity": 105,
      "chip": "ym2612"
    },
    {
      "channel": 5,
      "note": 76,
      "start": 39.9869,
      "duration": 0.204,
      "velocity": 97,
      "chip": "ym2612"
    },
    {
      "channel": 1,
      "note": 40,
      "start": 40.1899,
      "duration": 0.7882,
      "velocity": 97,
      "chip": "ym2612"
    },
    {
      "channel": 3,
      "note": 76,
      "start": 40.1907,
      "duration": 0.7882,
      "velocity": 100,
      "chip": "ym2612"
    },
    {
      "channel": 5,
      "note": 80,
      "start": 40.1915,
      "duration": 0.1889,
      "velocity": 97,
      "chip": "ym2612"
    },
    {
      "channel": 2,
      "note": 76,
      "start": 40.1922,
      "duration": 0.7885,
      "velocity": 100,
      "chip": "ym2612"
    },
    {
      "channel": 0,
      "note": 68,
      "start": 40.3794,
      "duration": 0.3935,
      "velocity": 105,
      "chip": "ym2612"
    },
    {
      "channel": 5,
      "note": 76,
      "start": 40.381,
      "duration": 0.2033,
      "velocity": 97,
      "chip": "ym2612"
    },
    {
      "channel": 5,
      "note": 71,
      "start": 40.5848,
      "duration": 0.1897,
      "velocity": 97,
      "chip": "ym2612"
    },
    {
      "channel": 0,
      "note": 64,
      "start": 40.7736,
      "duration": 1.78,
      "velocity": 105,
      "chip": "ym2612"
    },
    {
      "channel": 5,
      "note": 76,
      "start": 40.7751,
      "duration": 0.2048,
      "velocity": 97,
      "chip": "ym2612"
    },
    {
      "channel": 1,
      "note": 45,
      "start": 40.9787,
      "duration": 0.7871,
      "velocity": 97,
      "chip": "ym2612"
    },
    {
      "channel": 3,
      "note": 73,
      "start": 40.9795,
      "duration": 0.7871,
      "velocity": 100,
      "chip": "ym2612"
    },
    {
      "channel": 5,
      "note": 76,
      "start": 40.9805,
      "duration": 0.1876,
      "velocity": 97,
      "chip": "ym2612"
    },
    {
      "channel": 2,
      "note": 73,
      "start": 40.9813,
      "duration": 0.7869,
      "velocity": 100,
      "chip": "ym2612"
    },
    {
      "channel": 5,
      "note": 73,
      "start": 41.1688,
      "duration": 0.2038,
      "velocity": 97,
      "chip": "ym2612"
    },
    {
      "channel": 5,
      "note": 69,
      "start": 41.3731,
      "duration": 0.1893,
      "velocity": 97,
      "chip": "ym2612"
    },
    {
      "channel": 5,
      "note": 73,
      "start": 41.5629,
      "duration": 0.2045,
      "velocity": 97,
      "chip": "ym2612"
    },
    {
      "channel": 1,
      "note": 45,
      "start": 41.7665,
      "duration": 0.788,
      "velocity": 97,
      "chip": "ym2612"
    },
    {
      "channel": 3,
      "note": 73,
      "start": 41.7672,
      "duration": 0.788,
      "velocity": 100,
      "chip": "ym2612"
    },
    {
      "channel": 5,
      "note": 76,
      "start": 41.768,
      "duration": 0.1884,
      "velocity": 97,
      "chip": "ym2612"
    },
    {
      "channel": 2,
      "note": 73,
      "start": 41.7688,
      "duration": 0.788,
      "velocity": 100,
      "chip": "ym2612"
    },
    {
      "channel": 5,
      "note": 73,
      "start": 41.957,
      "duration": 0.2051,
      "velocity": 97,
      "chip": "ym2612"
    },
    {
      "channel": 5,
      "note": 69,
      "start": 42.1626,
      "duration": 0.1879,
      "velocity": 97,
      "chip": "ym2612"
    },
    {
      "channel": 5,
      "note": 73,
      "start": 42.3511,
      "duration": 0.2049,
      "velocity": 97,
      "chip": "ym2612"
    },
    {
      "channel": 0,
      "note": 66,
      "start": 42.5543,
      "duration": 0.3934,
      "velocity": 105,
      "chip": "ym2612"
    },
    {
      "channel": 1,
      "note": 42,
      "start": 42.555,
      "duration": 0.7872,
      "velocity": 97,
      "chip": "ym2612"
    },
    {
      "channel": 3,
      "note": 73,
      "start": 42.5558,
      "duration": 0.7885,
      "velocity": 100,
      "chip": "ym2612"
    },
    {
      "channel": 5,
      "note": 78,
      "start": 42.5566,
      "duration": 0.189,
      "velocity": 97,
      "chip": "ym2612"
    },
    {
      "channel": 2,
      "note": 73,
      "start": 42.5574,
      "duration": 0.7885,
      "velocity": 100,
      "chip": "ym2612"
    },
    {
      "channel": 5,
      "note": 73,
      "start": 42.7462,
      "duration": 0.2032,
      "velocity": 97,
      "chip": "ym2612"
    },
    {
      "channel": 0,
      "note": 67,
      "start": 42.9484,
      "duration": 0.189,
      "velocity": 105,
      "chip": "ym2612"
    },
    {
      "channel": 5,
      "note": 70,
      "start": 42.9499,
      "duration": 0.1891,
      "velocity": 97,
      "chip": "ym2612"
    },
    {
      "channel": 0,
      "note": 66,
      "start": 43.1381,
      "duration": 0.3934,
      "velocity": 105,
      "chip": "ym2612"
    },
    {
      "channel": 5,
      "note": 73,
      "start": 43.1397,
      "duration": 0.2054,
      "velocity": 97,
      "chip": "ym2612"
    },
    {
      "channel": 1,
      "note": 42,
      "start": 43.3441,
      "duration": 0.7863,
      "velocity": 97,
      "chip": "ym2612"
    },
    {
      "channel": 3,
      "note": 73,
      "start": 43.3448,
      "duration": 0.7863,
      "velocity": 100,
      "chip": "ym2612"
    },
    {
      "channel": 5,
      "note": 66,
      "start": 43.3456,
      "duration": 0.1876,
      "velocity": 97,
      "chip": "ym2612"
    },
    {
      "channel": 2,
      "note": 73,
      "start": 43.3464,
      "duration": 0.7865,
      "velocity": 100,
      "chip": "ym2612"
    },
    {
      "channel": 0,
      "note": 61,
      "start": 43.5322,
      "duration": 0.3934,
      "velocity": 105,
      "chip": "ym2612"
    },
    {
      "channel": 5,
      "note": 70,
      "start": 43.5338,
      "duration": 0.2033,
      "velocity": 97,
      "chip": "ym2612"
    },
    {
      "channel": 5,
      "note": 73,
      "start": 43.7376,
      "duration": 0.191,
      "velocity": 97,
      "chip": "ym2612"
    },
    {
      "channel": 0,
      "note": 62,
      "start": 43.9277,
      "duration": 1.3847,
      "velocity": 105,
      "chip": "ym2612"
    },
    {
      "channel": 5,
      "note": 76,
      "start": 43.9293,
      "duration": 0.203,
      "velocity": 97,
      "chip": "ym2612"
    },
    {
      "channel": 1,
      "note": 47,
      "start": 44.131,
      "duration": 0.7878,
      "velocity": 97,
      "chip": "ym2612"
    },
    {
      "channel": 3,
      "note": 71,
      "start": 44.1317,
      "duration": 0.7877,
      "velocity": 100,
      "chip": "ym2612"
    },
    {
      "channel": 5,
      "note": 74,
      "start": 44.1328,
      "duration": 0.1882,
      "velocity": 97,
      "chip": "ym2612"
    },
    {
      "channel": 2,
      "note": 71,
      "start": 44.1336,
      "duration": 0.7875,
      "velocity": 100,
      "chip": "ym2612"
    },
    {
      "channel": 5,
      "note": 71,
      "start": 44.3216,
      "duration": 0.2037,
      "velocity": 97,
      "chip": "ym2612"
    },
    {
      "channel": 5,
      "note": 66,
      "start": 44.526,
      "duration": 0.1891,
      "velocity": 97,
      "chip": "ym2612"
    },
    {
      "channel": 5,
      "note": 71,
      "start": 44.7157,
      "duration": 0.2046,
      "velocity": 97,
      "chip": "ym2612"
    },
    {
      "channel": 1,
      "note": 47,
      "start": 44.9193,
      "duration": 0.7879,
      "velocity": 97,
      "chip": "ym2612"
    },
    {
      "channel": 3,
      "note": 71,
      "start": 44.92,
      "duration": 0.7879,
      "velocity": 100,
      "chip": "ym2612"
    },
    {
      "channel": 5,
      "note": 74,
      "start": 44.9208,
      "duration": 0.1884,
      "velocity": 97,
      "chip": "ym2612"
    },
    {
      "channel": 2,
      "note": 71,
      "start": 44.9216,
      "duration": 0.7893,
      "velocity": 100,
      "chip": "ym2612"
    },
    {
      "channel": 5,
      "note": 71,
      "start": 45.1112,
      "duration": 0.2027,
      "velocity": 97,
      "chip": "ym2612"
    },
    {
      "channel": 0,
      "note": 61,
      "start": 45.313,
      "duration": 0.3934,
      "velocity": 105,
      "chip": "ym2612"
    },
    {
      "channel": 5,
      "note": 66,
      "start": 45.3146,
      "duration": 0.1887,
      "velocity": 97,
      "chip": "ym2612"
    },
    {
      "channel": 5,
      "note": 71,
      "start": 45.5038,
      "duration": 0.205,
      "velocity": 97,
      "chip": "ym2612"
    },
    {
      "channel": 0,
      "note": 59,
      "start": 45.7071,
      "duration": 0.3938,
      "velocity": 105,
      "chip": "ym2612"
    },
    {
      "channel": 1,
      "note": 40,
      "start": 45.7078,
      "duration": 0.7877,
      "velocity": 97,
      "chip": "ym2612"
    },
    {
      "channel": 3,
      "note": 68,
      "start": 45.7085,
      "duration": 0.7877,
      "velocity": 100,
      "chip": "ym2612"
    },
    {
      "channel": 5,
      "note": 74,
      "start": 45.7107,
      "duration": 0.1866,
      "velocity": 97,
      "chip": "ym2612"
    },
    {
      "channel": 2,
      "note": 68,
      "start": 45.7115,
      "duration": 0.7863,
      "velocity": 100,
      "chip": "ym2612"
    },
    {
      "channel": 5,
      "note": 71,
      "start": 45.8979,
      "duration": 0.2046,
      "velocity": 97,
      "chip": "ym2612"
    },
    {
      "channel": 0,
      "note": 66,
      "start": 46.1016,
      "duration": 0.3931,
      "velocity": 105,
      "chip": "ym2612"
    },
    {
      "channel": 5,
      "note": 64,
      "start": 46.1031,
      "duration": 0.1883,
      "velocity": 97,
      "chip": "ym2612"
    },
    {
      "channel": 5,
      "note": 71,
      "start": 46.292,
      "duration": 0.205,
      "velocity": 97,
      "chip": "ym2612"
    },
    {
      "channel": 0,
      "note": 64,
      "start": 46.4953,
      "duration": 0.3934,
      "velocity": 105,
      "chip": "ym2612"
    },
    {
      "channel": 1,
      "note": 40,
      "start": 46.496,
      "duration": 0.7876,
      "velocity": 97,
      "chip": "ym2612"
    },
    {
      "channel": 3,
      "note": 68,
      "start": 46.4967,
      "duration": 0.7876,
      "velocity": 100,
      "chip": "ym2612"
    },
    {
      "channel": 5,
      "note": 74,
      "start": 46.4976,
      "duration": 0.188,
      "velocity": 97,
      "chip": "ym2612"
    },
    {
      "channel": 2,
      "note": 68,
      "start": 46.4983,
      "duration": 0.7878,
      "velocity": 100,
      "chip": "ym2612"
    },
    {
      "channel": 5,
      "note": 71,
      "start": 46.6861,
      "duration": 0.2042,
      "velocity": 97,
      "chip": "ym2612"
    },
    {
      "channel": 0,
      "note": 62,
      "start": 46.8894,
      "duration": 0.3934,
      "velocity": 105,
      "chip": "ym2612"
    },
    {
      "channel": 5,
      "note": 64,
      "start": 46.891,
      "duration": 0.1887,
      "velocity": 97,
      "chip": "ym2612"
    },
    {
      "channel": 5,
      "note": 71,
      "start": 47.0802,
      "duration": 0.2052,
      "velocity": 97,
      "chip": "ym2612"
    },
    {
      "channel": 0,
      "note": 61,
      "start": 47.2835,
      "duration": 0.3942,
      "velocity": 105,
      "chip": "ym2612"
    },
    {
      "channel": 1,
      "note": 45,
      "start": 47.2842,
      "duration": 0.7872,
      "velocity": 97,
      "chip": "ym2612"
    },
    {
      "channel": 3,
      "note": 69,
      "start": 47.285,
      "duration": 0.7871,
      "velocity": 100,
      "chip": "ym2612"
    },
    {
      "channel": 5,
      "note": 73,
      "start": 47.286,
      "duration": 0.1879,
      "velocity": 97,
      "chip": "ym2612"
    },
    {
      "channel": 2,
      "note": 69,
      "start": 47.2868,
      "duration": 0.7869,
      "velocity": 100,
      "chip": "ym2612"
    },
    {
      "channel": 5,
      "note": 69,
      "start": 47.4745,
      "duration": 0.2048,
      "velocity": 97,
      "chip": "ym2612"
    },
    {
      "channel": 0,
      "note": 62,
      "start": 47.6784,
      "duration": 0.1883,
      "velocity": 105,
      "chip": "ym2612"
    },
    {
      "channel": 5,
      "note": 64,
      "start": 47.6799,
      "duration": 0.1884,
      "velocity": 97,
      "chip": "ym2612"
    },
    {
      "channel": 0,
      "note": 64,
      "start": 47.8674,
      "duration": 2.5682,
      "velocity": 105,
      "chip": "ym2612"
    },
    {
      "channel": 5,
      "note": 69,
      "start": 47.8689,
      "duration": 0.204,
      "velocity": 97,
      "chip": "ym2612"
    },
    {
      "channel": 1,
      "note": 45,
      "start": 48.0719,
      "duration": 0.789,
      "velocity": 97,
      "chip": "ym2612"
    },
    {
      "channel": 3,
      "note": 73,
      "start": 48.0727,
      "duration": 0.1893,
      "velocity": 100,
      "chip": "ym2612"
    },
    {
      "channel": 5,
      "note": 73,
      "start": 48.0735,
      "duration": 0.1893,
      "velocity": 97,
      "chip": "ym2612"
    },
    {
      "channel": 2,
      "note": 73,
      "start": 48.0743,
      "duration": 0.1893,
      "velocity": 100,
      "chip": "ym2612"
    },
    {
      "channel": 3,
      "note": 69,
      "start": 48.2626,
      "duration": 0.2034,
      "velocity": 100,
      "chip": "ym2612"
    },
    {
      "channel": 5,
      "note": 69,
      "start": 48.2634,
      "duration": 0.2034,
      "velocity": 97,
      "chip": "ym2612"
    },
    {
      "channel": 2,
      "note": 69,
      "start": 48.2642,
      "duration": 0.2034,
      "velocity": 100,
      "chip": "ym2612"
    },
    {
      "channel": 3,
      "note": 73,
      "start": 48.4666,
      "duration": 0.1891,
      "velocity": 100,
      "chip": "ym2612"
    },
    {
      "channel": 5,
      "note": 64,
      "start": 48.4673,
      "duration": 0.1892,
      "velocity": 97,
      "chip": "ym2612"
    },
    {
      "channel": 2,
      "note": 73,
      "start": 48.4681,
      "duration": 0.1892,
      "velocity": 100,
      "chip": "ym2612"
    },
    {
      "channel": 3,
      "note": 76,
      "start": 48.6563,
      "duration": 0.2055,
      "velocity": 100,
      "chip": "ym2612"
    },
    {
      "channel": 5,
      "note": 69,
      "start": 48.6571,
      "duration": 0.2055,
      "velocity": 97,
      "chip": "ym2612"
    },
    {
      "channel": 2,
      "note": 76,
      "start": 48.6579,
      "duration": 0.2055,
      "velocity": 100,
      "chip": "ym2612"
    },
    {
      "channel": 1,
      "note": 45,
      "start": 48.8616,
      "duration": 0.7864,
      "velocity": 97,
      "chip": "ym2612"
    },
    {
      "channel": 3,
      "note": 81,
      "start": 48.8624,
      "duration": 0.3917,
      "velocity": 100,
      "chip": "ym2612"
    },
    {
      "channel": 5,
      "note": 73,
      "start": 48.8632,
      "duration": 0.187,
      "velocity": 97,
      "chip": "ym2612"
    },
    {
      "channel": 2,
      "note": 81,
      "start": 48.864,
      "duration": 0.3917,
      "velocity": 100,
      "chip": "ym2612"
    },
    {
      "channel": 5,
      "note": 69,
      "start": 49.0508,
      "duration": 0.2041,
      "velocity": 97,
      "chip": "ym2612"
    },
    {
      "channel": 3,
      "note": 79,
      "start": 49.2547,
      "duration": 0.3939,
      "velocity": 100,
      "chip": "ym2612"
    },
    {
      "channel": 5,
      "note": 67,
      "start": 49.2555,
      "duration": 0.1903,
      "velocity": 97,
      "chip": "ym2612"
    },
    {
      "channel": 2,
      "note": 79,
      "start": 49.2563,
      "duration": 0.3939,
      "velocity": 100,
      "chip": "ym2612"
    },
    {
      "channel": 5,
      "note": 69,
      "start": 49.4463,
      "duration": 0.2031,
      "velocity": 97,
      "chip": "ym2612"
    },
    {
      "channel": 1,
      "note": 45,
      "start": 49.6485,
      "duration": 0.7879,
      "velocity": 97,
      "chip": "ym2612"
    },
    {
      "channel": 3,
      "note": 78,
      "start": 49.6492,
      "duration": 0.3931,
      "velocity": 100,
      "chip": "ym2612"
    },
    {
      "channel": 5,
      "note": 73,
      "start": 49.65,
      "duration": 0.1884,
      "velocity": 97,
      "chip": "ym2612"
    },
    {
      "channel": 2,
      "note": 78,
      "start": 49.6508,
      "duration": 0.3944,
      "velocity": 100,
      "chip": "ym2612"
    },
    {
      "channel": 5,
      "note": 69,
      "start": 49.839,
      "duration": 0.2055,
      "velocity": 97,
      "chip": "ym2612"
    },
    {
      "channel": 3,
      "note": 76,
      "start": 50.0443,
      "duration": 0.3929,
      "velocity": 100,
      "chip": "ym2612"
    },
    {
      "channel": 5,
      "note": 67,
      "start": 50.045,
      "duration": 0.1875,
      "velocity": 97,
      "chip": "ym2612"
    },
    {
      "channel": 2,
      "note": 76,
      "start": 50.0458,
      "duration": 0.3936,
      "velocity": 100,
      "chip": "ym2612"
    },
    {
      "channel": 5,
      "note": 69,
      "start": 50.2331,
      "duration": 0.2055,
      "velocity": 97,
      "chip": "ym2612"
    },
    {
      "channel": 0,
      "note": 66,
      "start": 50.4362,
      "duration": 1.5758,
      "velocity": 105,
      "chip": "ym2612"
    },
    {
      "channel": 1,
      "note": 38,
      "start": 50.437,
      "duration": 0.7873,
      "velocity": 97,
      "chip": "ym2612"
    },
    {
      "channel": 3,
      "note": 74,
      "start": 50.4378,
      "duration": 0.7873,
      "velocity": 100,
      "chip": "ym2612"
    },
    {
      "channel": 4,
      "note": 69,
      "start": 50.4385,
      "duration": 0.7872,
      "velocity": 100,
      "chip": "ym2612"
    },
    {
      "channel": 5,
      "note": 78,
      "start": 50.4393,
      "duration": 0.1889,
      "velocity": 97,
      "chip": "ym2612"
    },
    {
      "channel": 2,
      "note": 74,
      "start": 50.44,
      "duration": 0.7885,
      "velocity": 100,
      "chip": "ym2612"
    },
    {
      "channel": 5,
      "note": 74,
      "start": 50.6288,
      "duration": 0.2025,
      "velocity": 97,
      "chip": "ym2612"
    },
    {
      "channel": 5,
      "note": 69,
      "start": 50.8319,
      "duration": 0.1891,
      "velocity": 97,
      "chip": "ym2612"
    },
    {
      "channel": 5,
      "note": 74,
      "start": 51.0216,
      "duration": 0.2062,
      "velocity": 97,
      "chip": "ym2612"
    },
    {
      "channel": 1,
      "note": 38,
      "start": 51.2249,
      "duration": 0.788,
      "velocity": 97,
      "chip": "ym2612"
    },
    {
      "channel": 3,
      "note": 74,
      "start": 51.2256,
      "duration": 0.7879,
      "velocity": 100,
      "chip": "ym2612"
    },
    {
      "channel": 4,
      "note": 69,
      "start": 51.2276,
      "duration": 0.7866,
      "velocity": 100,
      "chip": "ym2612"
    },
    {
      "channel": 5,
      "note": 78,
      "start": 51.2284,
      "duration": 0.1866,
      "velocity": 97,
      "chip": "ym2612"
    },
    {
      "channel": 2,
      "note": 74,
      "start": 51.2292,
      "duration": 0.7866,
      "velocity": 100,
      "chip": "ym2612"
    },
    {
      "channel": 5,
      "note": 74,
      "start": 51.4157,
      "duration": 0.2038,
      "velocity": 97,
      "chip": "ym2612"
    },
    {
      "channel": 5,
      "note": 69,
      "start": 51.62,
      "duration": 0.1892,
      "velocity": 97,
      "chip": "ym2612"
    },
    {
      "channel": 5,
      "note": 74,
      "start": 51.8112,
      "duration": 0.2038,
      "velocity": 97,
      "chip": "ym2612"
    },
    {
      "channel": 0,
      "note": 68,
      "start": 52.0126,
      "duration": 0.3935,
      "velocity": 105,
      "chip": "ym2612"
    },
    {
      "channel": 1,
      "note": 40,
      "start": 52.0134,
      "duration": 0.7872,
      "velocity": 97,
      "chip": "ym2612"
    },
    {
      "channel": 3,
      "note": 76,
      "start": 52.0141,
      "duration": 0.7872,
      "velocity": 100,
      "chip": "ym2612"
    },
    {
      "channel": 4,
      "note": 71,
      "start": 52.0149,
      "duration": 0.7872,
      "velocity": 100,
      "chip": "ym2612"
    },
    {
      "channel": 5,
      "note": 80,
      "start": 52.0156,
      "duration": 0.1876,
      "velocity": 97,
      "chip": "ym2612"
    },
    {
      "channel": 2,
      "note": 76,
      "start": 52.0163,
      "duration": 0.7872,
      "velocity": 100,
      "chip": "ym2612"
    },
    {
      "channel": 5,
      "note": 76,
      "start": 52.2038,
      "duration": 0.2043,
      "velocity": 97,
      "chip": "ym2612"
    },
    {
      "channel": 0,
      "note": 69,
      "start": 52.4068,
      "duration": 0.189,
      "velocity": 105,
      "chip": "ym2612"
    },
    {
      "channel": 5,
      "note": 71,
      "start": 52.4086,
      "duration": 0.1891,
      "velocity": 97,
      "chip": "ym2612"
    },
    {
      "channel": 0,
      "note": 71,
      "start": 52.5966,
      "duration": 0.3934,
      "velocity": 105,
      "chip": "ym2612"
    },
    {
      "channel": 5,
      "note": 76,
      "start": 52.5983,
      "duration": 0.2045,
      "velocity": 97,
      "chip": "ym2612"
    },
    {
      "channel": 1,
      "note": 40,
      "start": 52.8012,
      "duration": 0.7877,
      "velocity": 97,
      "chip": "ym2612"
    },
    {
      "channel": 3,
      "note": 76,
      "start": 52.8019,
      "duration": 0.7878,
      "velocity": 100,
      "chip": "ym2612"
    },
    {
      "channel": 4,
      "note": 71,
      "start": 52.8027,
      "duration": 0.7878,
      "velocity": 100,
      "chip": "ym2612"
    },
    {
      "channel": 5,
      "note": 80,
      "start": 52.8034,
      "duration": 0.1884,
      "velocity": 97,
      "chip": "ym2612"
    },
    {
      "channel": 2,
      "note": 76,
      "start": 52.8041,
      "duration": 0.788,
      "velocity": 100,
      "chip": "ym2612"
    },
    {
      "channel": 0,
      "note": 68,
      "start": 52.9906,
      "duration": 0.3934,
      "velocity": 105,
      "chip": "ym2612"
    },
    {
      "channel": 5,
      "note": 76,
      "start": 52.9924,
      "duration": 0.2035,
      "velocity": 97,
      "chip": "ym2612"
    },
    {
      "channel": 5,
      "note": 71,
      "start": 53.1965,
      "duration": 0.1895,
      "velocity": 97,
      "chip": "ym2612"
    },
    {
      "channel": 0,
      "note": 64,
      "start": 53.3848,
      "duration": 0.9931,
      "velocity": 105,
      "chip": "ym2612"
    },
    {
      "channel": 5,
      "note": 76,
      "start": 53.3866,
      "duration": 0.2048,
      "velocity": 97,
      "chip": "ym2612"
    },
    {
      "channel": 1,
      "note": 45,
      "start": 53.5895,
      "duration": 0.7893,
      "velocity": 97,
      "chip": "ym2612"
    },
    {
      "channel": 3,
      "note": 73,
      "start": 53.5903,
      "duration": 0.7892,
      "velocity": 100,
      "chip": "ym2612"
    },
    {
      "channel": 4,
      "note": 69,
      "start": 53.5911,
      "duration": 0.7891,
      "velocity": 100,
      "chip": "ym2612"
    },
    {
      "channel": 5,
      "note": 76,
      "start": 53.5919,
      "duration": 0.1878,
      "velocity": 97,
      "chip": "ym2612"
    },
    {
      "channel": 2,
      "note": 73,
      "start": 53.5941,
      "duration": 0.7877,
      "velocity": 100,
      "chip": "ym2612"
    },
    {
      "channel": 5,
      "note": 73,
      "start": 53.7803,
      "duration": 0.2037,
      "velocity": 97,
      "chip": "ym2612"
    },
    {
      "channel": 5,
      "note": 69,
      "start": 53.9846,
      "duration": 0.1892,
      "velocity": 97,
      "chip": "ym2612"
    },
    {
      "channel": 5,
      "note": 73,
      "start": 54.1744,
      "duration": 0.2066,
      "velocity": 97,
      "chip": "ym2612"
    },
    {
      "channel": 0,
      "note": 69,
      "start": 54.3786,
      "duration": 0.7863,
      "velocity": 105,
      "chip": "ym2612"
    },
    {
      "channel": 1,
      "note": 44,
      "start": 54.3793,
      "duration": 0.7864,
      "velocity": 97,
      "chip": "ym2612"
    },
    {
      "channel": 3,
      "note": 76,
      "start": 54.3801,
      "duration": 0.7863,
      "velocity": 100,
      "chip": "ym2612"
    },
    {
      "channel": 4,
      "note": 73,
      "start": 54.3808,
      "duration": 0.7863,
      "velocity": 100,
      "chip": "ym2612"
    },
    {
      "channel": 5,
      "note": 76,
      "start": 54.3815,
      "duration": 0.1863,
      "velocity": 97,
      "chip": "ym2612"
    },
    {
      "channel": 2,
      "note": 76,
      "start": 54.3823,
      "duration": 0.7863,
      "velocity": 100,
      "chip": "ym2612"
    },
    {
      "channel": 5,
      "note": 73,
      "start": 54.5684,
      "duration": 0.2039,
      "velocity": 97,
      "chip": "ym2612"
    },
    {
      "channel": 5,
      "note": 69,
      "start": 54.7728,
      "duration": 0.1899,
      "velocity": 97,
      "chip": "ym2612"
    },
    {
      "channel": 5,
      "note": 73,
      "start": 54.9633,
      "duration": 0.2046,
      "velocity": 97,
      "chip": "ym2612"
    },
    {
      "channel": 0,
      "note": 73,
      "start": 55.1655,
      "duration": 1.1816,
      "velocity": 105,
      "chip": "ym2612"
    },
    {
      "channel": 1,
      "note": 42,
      "start": 55.1663,
      "duration": 0.7873,
      "velocity": 97,
      "chip": "ym2612"
    },
    {
      "channel": 3,
      "note": 81,
      "start": 55.167,
      "duration": 0.7872,
      "velocity": 100,
      "chip": "ym2612"
    },
    {
      "channel": 4,
      "note": 78,
      "start": 55.1677,
      "duration": 0.7873,
      "velocity": 100,
      "chip": "ym2612"
    },
    {
      "channel": 5,
      "note": 78,
      "start": 55.1685,
      "duration": 0.1875,
      "velocity": 97,
      "chip": "ym2612"
    },
    {
      "channel": 2,
      "note": 81,
      "start": 55.1693,
      "duration": 0.7872,
      "velocity": 100,
      "chip": "ym2612"
    },
    {
      "channel": 5,
      "note": 73,
      "start": 55.3565,
      "duration": 0.2053,
      "velocity": 97,
      "chip": "ym2612"
    },
    {
      "channel": 5,
      "note": 69,
      "start": 55.5624,
      "duration": 0.1878,
      "velocity": 97,
      "chip": "ym2612"
    },
    {
      "channel": 5,
      "note": 73,
      "start": 55.7508,
      "duration": 0.2049,
      "velocity": 97,
      "chip": "ym2612"
    },
    {
      "channel": 1,
      "note": 40,
      "start": 55.9541,
      "duration": 0.7878,
      "velocity": 97,
      "chip": "ym2612"
    },
    {
      "channel": 3,
      "note": 80,
      "start": 55.9548,
      "duration": 0.7879,
      "velocity": 100,
      "chip": "ym2612"
    },
    {
      "channel": 4,
      "note": 76,
      "start": 55.9556,
      "duration": 0.7891,
      "velocity": 100,
      "chip": "ym2612"
    },
    {
      "channel": 5,
      "note": 78,
      "start": 55.9563,
      "duration": 0.1893,
      "velocity": 97,
      "chip": "ym2612"
    },
    {
      "channel": 2,
      "note": 80,
      "start": 55.9571,
      "duration": 0.7892,
      "velocity": 100,
      "chip": "ym2612"
    },
    {
      "channel": 5,
      "note": 73,
      "start": 56.1462,
      "duration": 0.2027,
      "velocity": 97,
      "chip": "ym2612"
    },
    {
      "channel": 0,
      "note": 73,
      "start": 56.3477,
      "duration": 0.3936,
      "velocity": 105,
      "chip": "ym2612"
    },
    {
      "channel": 5,
      "note": 69,
      "start": 56.3495,
      "duration": 0.1889,
      "velocity": 97,
      "chip": "ym2612"
    },
    {
      "channel": 5,
      "note": 73,
      "start": 56.5389,
      "duration": 0.2066,
      "velocity": 97,
      "chip": "ym2612"
    },
    {
      "channel": 0,
      "note": 73,
      "start": 56.7418,
      "duration": 0.3935,
      "velocity": 105,
      "chip": "ym2612"
    },
    {
      "channel": 1,
      "note": 38,
      "start": 56.7425,
      "duration": 0.7878,
      "velocity": 97,
      "chip": "ym2612"
    },
    {
      "channel": 3,
      "note": 78,
      "start": 56.7446,
      "duration": 0.7864,
      "velocity": 100,
      "chip": "ym2612"
    },
    {
      "channel": 4,
      "note": 74,
      "start": 56.7453,
      "duration": 0.7864,
      "velocity": 100,
      "chip": "ym2612"
    },
    {
      "channel": 5,
      "note": 81,
      "start": 56.7461,
      "duration": 0.3911,
      "velocity": 97,
      "chip": "ym2612"
    },
    {
      "channel": 2,
      "note": 78,
      "start": 56.7468,
      "duration": 0.7864,
      "velocity": 100,
      "chip": "ym2612"
    },
    {
      "channel": 0,
      "note": 71,
      "start": 57.136,
      "duration": 0.3934,
      "velocity": 105,
      "chip": "ym2612"
    },
    {
      "channel": 5,
      "note": 80,
      "start": 57.1378,
      "duration": 0.3947,
      "velocity": 97,
      "chip": "ym2612"
    },
    {
      "channel": 0,
      "note": 71,
      "start": 57.5301,
      "duration": 0.3934,
      "velocity": 105,
      "chip": "ym2612"
    },
    {
      "channel": 1,
      "note": 38,
      "start": 57.5308,
      "duration": 0.7876,
      "velocity": 97,
      "chip": "ym2612"
    },
    {
      "channel": 3,
      "note": 78,
      "start": 57.5316,
      "duration": 0.7876,
      "velocity": 100,
      "chip": "ym2612"
    },
    {
      "channel": 4,
      "note": 74,
      "start": 57.5323,
      "duration": 0.7876,
      "velocity": 100,
      "chip": "ym2612"
    },
    {
      "channel": 5,
      "note": 80,
      "start": 57.5331,
      "duration": 0.3924,
      "velocity": 97,
      "chip": "ym2612"
    },
    {
      "channel": 2,
      "note": 78,
      "start": 57.5338,
      "duration": 0.7876,
      "velocity": 100,
      "chip": "ym2612"
    },
    {
      "channel": 0,
      "note": 69,
      "start": 57.9242,
      "duration": 0.3934,
      "velocity": 105,
      "chip": "ym2612"
    },
    {
      "channel": 5,
      "note": 78,
      "start": 57.926,
      "duration": 0.3946,
      "velocity": 97,
      "chip": "ym2612"
    },
    {
      "channel": 0,
      "note": 69,
      "start": 58.3183,
      "duration": 0.3934,
      "velocity": 105,
      "chip": "ym2612"
    },
    {
      "channel": 1,
      "note": 40,
      "start": 58.319,
      "duration": 0.7877,
      "velocity": 97,
      "chip": "ym2612"
    },
    {
      "channel": 3,
      "note": 76,
      "start": 58.3198,
      "duration": 0.7876,
      "velocity": 100,
      "chip": "ym2612"
    },
    {
      "channel": 4,
      "note": 71,
      "start": 58.3205,
      "duration": 0.7876,
      "velocity": 100,
      "chip": "ym2612"
    },
    {
      "channel": 5,
      "note": 78,
      "start": 58.3212,
      "duration": 0.3924,
      "velocity": 97,
      "chip": "ym2612"
    },
    {
      "channel": 2,
      "note": 76,
      "start": 58.322,
      "duration": 0.789,
      "velocity": 100,
      "chip": "ym2612"
    },
    {
      "channel": 0,
      "note": 68,
      "start": 58.7124,
      "duration": 0.3934,
      "velocity": 105,
      "chip": "ym2612"
    },
    {
      "channel": 5,
      "note": 76,
      "start": 58.7142,
      "duration": 0.3946,
      "velocity": 97,
      "chip": "ym2612"
    },
    {
      "channel": 0,
      "note": 69,
      "start": 59.1065,
      "duration": 0.3934,
      "velocity": 105,
      "chip": "ym2612"
    },
    {
      "channel": 1,
      "note": 40,
      "start": 59.1072,
      "duration": 0.7883,
      "velocity": 97,
      "chip": "ym2612"
    },
    {
      "channel": 3,
      "note": 76,
      "start": 59.108,
      "duration": 0.7883,
      "velocity": 100,
      "chip": "ym2612"
    },
    {
      "channel": 4,
      "note": 71,
      "start": 59.1087,
      "duration": 0.7884,
      "velocity": 100,
      "chip": "ym2612"
    },
    {
      "channel": 5,
      "note": 78,
      "start": 59.1109,
      "duration": 0.3909,
      "velocity": 97,
      "chip": "ym2612"
    },
    {
      "channel": 2,
      "note": 76,
      "start": 59.1116,
      "duration": 0.7877,
      "velocity": 100,
      "chip": "ym2612"
    },
    {
      "channel": 0,
      "note": 71,
      "start": 59.5005,
      "duration": 0.394,
      "velocity": 105,
      "chip": "ym2612"
    },
    {
      "channel": 5,
      "note": 80,
      "start": 59.5023,
      "duration": 0.3961,
      "velocity": 97,
      "chip": "ym2612"
    },
    {
      "channel": 0,
      "note": 71,
      "start": 59.8953,
      "duration": 1.1824,
      "velocity": 105,
      "chip": "ym2612"
    },
    {
      "channel": 1,
      "note": 45,
      "start": 59.8961,
      "duration": 2.7571,
      "velocity": 97,
      "chip": "ym2612"
    },
    {
      "channel": 3,
      "note": 76,
      "start": 59.897,
      "duration": 1.182,
      "velocity": 100,
      "chip": "ym2612"
    },
    {
      "channel": 4,
      "note": 73,
      "start": 59.8978,
      "duration": 1.1819,
      "velocity": 100,
      "chip": "ym2612"
    },
    {
      "channel": 5,
      "note": 74,
      "start": 59.899,
      "duration": 1.1814,
      "velocity": 97,
      "chip": "ym2612"
    },
    {
      "channel": 2,
      "note": 76,
      "start": 59.8999,
      "duration": 1.1813,
      "velocity": 100,
      "chip": "ym2612"
    },
    {
      "channel": 0,
      "note": 69,
      "start": 61.0784,
      "duration": 4.333,
      "velocity": 105,
      "chip": "ym2612"
    },
    {
      "channel": 3,
      "note": 76,
      "start": 61.0795,
      "duration": 1.1815,
      "velocity": 100,
      "chip": "ym2612"
    },
    {
      "channel": 4,
      "note": 73,
      "start": 61.0802,
      "duration": 1.1816,
      "velocity": 100,
      "chip": "ym2612"
    },
    {
      "channel": 5,
      "note": 73,
      "start": 61.081,
      "duration": 4.3318,
      "velocity": 97,
      "chip": "ym2612"
    },
    {
      "channel": 2,
      "note": 76,
      "start": 61.0817,
      "duration": 1.1812,
      "velocity": 100,
      "chip": "ym2612"
    },
    {
      "channel": 3,
      "note": 74,
      "start": 62.2616,
      "duration": 0.7864,
      "velocity": 100,
      "chip": "ym2612"
    },
    {
      "channel": 4,
      "note": 71,
      "start": 62.2624,
      "duration": 0.7864,
      "velocity": 100,
      "chip": "ym2612"
    },
    {
      "channel": 2,
      "note": 74,
      "start": 62.2635,
      "duration": 0.7864,
      "velocity": 100,
      "chip": "ym2612"
    },
    {
      "channel": 1,
      "note": 40,
      "start": 62.6538,
      "duration": 0.3935,
      "velocity": 97,
      "chip": "ym2612"
    },
    {
      "channel": 1,
      "note": 45,
      "start": 63.0479,
      "duration": 2.7578,
      "velocity": 97,
      "chip": "ym2612"
    },
    {
      "channel": 3,
      "note": 73,
      "start": 63.0486,
      "duration": 1.1813,
      "velocity": 100,
      "chip": "ym2612"
    },
    {
      "channel": 4,
      "note": 69,
      "start": 63.0494,
      "duration": 1.1812,
      "velocity": 100,
      "chip": "ym2612"
    },
    {
      "channel": 2,
      "note": 73,
      "start": 63.0505,
      "duration": 1.181,
      "velocity": 100,
      "chip": "ym2612"
    },
    {
      "channel": 3,
      "note": 73,
      "start": 64.2304,
      "duration": 1.9767,
      "velocity": 100,
      "chip": "ym2612"
    },
    {
      "channel": 4,
      "note": 69,
      "start": 64.231,
      "duration": 1.977,
      "velocity": 100,
      "chip": "ym2612"
    },
    {
      "channel": 2,
      "note": 73,
      "start": 64.232,
      "duration": 1.9823,
      "velocity": 100,
      "chip": "ym2612"
    },
    {
      "channel": 1,
      "note": 40,
      "start": 65.8062,
      "duration": 0.3999,
      "velocity": 97,
      "chip": "ym2612"
    },
    {
      "channel": 0,
      "note": 73,
      "start": 66.2033,
      "duration": 1.5742,
      "velocity": 106,
      "chip": "ym2612"
    },
    {
      "channel": 1,
      "note": 45,
      "start": 66.2067,
      "duration": 1.5716,
      "velocity": 97,
      "chip": "ym2612"
    },
    {
      "channel": 3,
      "note": 81,
      "start": 66.2077,
      "duration": 1.5712,
      "velocity": 100,
      "chip": "ym2612"
    },
    {
      "channel": 4,
      "note": 76,
      "start": 66.2086,
      "duration": 1.571,
      "velocity": 100,
      "chip": "ym2612"
    },
    {
      "channel": 5,
      "note": 76,
      "start": 66.2139,
      "duration": 0.3821,
      "velocity": 95,
      "chip": "ym2612"
    },
    {
      "channel": 2,
      "note": 81,
      "start": 66.2149,
      "duration": 1.5663,
      "velocity": 100,
      "chip": "ym2612"
    },
    {
      "channel": 5,
      "note": 73,
      "start": 66.5966,
      "duration": 0.3927,
      "velocity": 95,
      "chip": "ym2612"
    },
    {
      "channel": 5,
      "note": 76,
      "start": 66.9898,
      "duration": 0.3935,
      "velocity": 95,
      "chip": "ym2612"
    },
    {
      "channel": 5,
      "note": 81,
      "start": 67.3839,
      "duration": 0.3964,
      "velocity": 95,
      "chip": "ym2612"
    },
    {
      "channel": 0,
      "note": 74,
      "start": 67.778,
      "duration": 0.5831,
      "velocity": 106,
      "chip": "ym2612"
    },
    {
      "channel": 1,
      "note": 44,
      "start": 67.7788,
      "duration": 1.5744,
      "velocity": 97,
      "chip": "ym2612"
    },
    {
      "channel": 3,
      "note": 80,
      "start": 67.7795,
      "duration": 1.5744,
      "velocity": 100,
      "chip": "ym2612"
    },
    {
      "channel": 4,
      "note": 76,
      "start": 67.7802,
      "duration": 1.5744,
      "velocity": 100,
      "chip": "ym2612"
    },
    {
      "channel": 5,
      "note": 80,
      "start": 67.781,
      "duration": 0.3905,
      "velocity": 95,
      "chip": "ym2612"
    },
    {
      "channel": 2,
      "note": 80,
      "start": 67.7817,
      "duration": 1.5744,
      "velocity": 100,
      "chip": "ym2612"
    },
    {
      "channel": 5,
      "note": 76,
      "start": 68.1721,
      "duration": 0.3935,
      "velocity": 95,
      "chip": "ym2612"
    },
    {
      "channel": 0,
      "note": 73,
      "start": 68.3617,
      "duration": 0.5966,
      "velocity": 106,
      "chip": "ym2612"
    },
    {
      "channel": 5,
      "note": 71,
      "start": 68.5662,
      "duration": 0.3953,
      "velocity": 95,
      "chip": "ym2612"
    },
    {
      "channel": 0,
      "note": 68,
      "start": 68.959,
      "duration": 0.3935,
      "velocity": 106,
      "chip": "ym2612"
    },
    {
      "channel": 5,
      "note": 76,
      "start": 68.9621,
      "duration": 0.3934,
      "velocity": 95,
      "chip": "ym2612"
    },
    {
      "channel": 0,
      "note": 71,
      "start": 69.3531,
      "duration": 1.1817,
      "velocity": 106,
      "chip": "ym2612"
    },
    {
      "channel": 1,
      "note": 42,
      "start": 69.3538,
      "duration": 1.5758,
      "velocity": 97,
      "chip": "ym2612"
    },
    {
      "channel": 3,
      "note": 78,
      "start": 69.3546,
      "duration": 1.5757,
      "velocity": 100,
      "chip": "ym2612"
    },
    {
      "channel": 4,
      "note": 73,
      "start": 69.3553,
      "duration": 1.5758,
      "velocity": 100,
      "chip": "ym2612"
    },
    {
      "channel": 5,
      "note": 78,
      "start": 69.356,
      "duration": 0.3919,
      "velocity": 95,
      "chip": "ym2612"
    },
    {
      "channel": 2,
      "note": 78,
      "start": 69.3568,
      "duration": 1.5758,
      "velocity": 100,
      "chip": "ym2612"
    },
    {
      "channel": 5,
      "note": 73,
      "start": 69.7485,
      "duration": 0.3935,
      "velocity": 95,
      "chip": "ym2612"
    },
    {
      "channel": 5,
      "note": 78,
      "start": 70.1426,
      "duration": 0.394,
      "velocity": 95,
      "chip": "ym2612"
    },
    {
      "channel": 0,
      "note": 69,
      "start": 70.5354,
      "duration": 0.1891,
      "velocity": 106,
      "chip": "ym2612"
    },
    {
      "channel": 5,
      "note": 81,
      "start": 70.5372,
      "duration": 0.3946,
      "velocity": 95,
      "chip": "ym2612"
    },
    {
      "channel": 0,
      "note": 68,
      "start": 70.7251,
      "duration": 0.2037,
      "velocity": 106,
      "chip": "ym2612"
    },
    {
      "channel": 0,
      "note": 69,
      "start": 70.9294,
      "duration": 0.7876,
      "velocity": 106,
      "chip": "ym2612"
    },
    {
      "channel": 1,
      "note": 40,
      "start": 70.9301,
      "duration": 1.5759,
      "velocity": 97,
      "chip": "ym2612"
    },
    {
      "channel": 3,
      "note": 76,
      "start": 70.9309,
      "duration": 0.7871,
      "velocity": 100,
      "chip": "ym2612"
    },
    {
      "channel": 4,
      "note": 73,
      "start": 70.9317,
      "duration": 0.7871,
      "velocity": 100,
      "chip": "ym2612"
    },
    {
      "channel": 5,
      "note": 76,
      "start": 70.9324,
      "duration": 0.3919,
      "velocity": 95,
      "chip": "ym2612"
    },
    {
      "channel": 2,
      "note": 76,
      "start": 70.9332,
      "duration": 0.787,
      "velocity": 100,
      "chip": "ym2612"
    },
    {
      "channel": 5,
      "note": 69,
      "start": 71.3249,
      "duration": 0.3946,
      "velocity": 95,
      "chip": "ym2612"
    },
    {
      "channel": 0,
      "note": 69,
      "start": 71.7175,
      "duration": 0.3936,
      "velocity": 106,
      "chip": "ym2612"
    },
    {
      "channel": 3,
      "note": 78,
      "start": 71.7185,
      "duration": 0.3937,
      "velocity": 100,
      "chip": "ym2612"
    },
    {
      "channel": 4,
      "note": 73,
      "start": 71.7193,
      "duration": 0.3936,
      "velocity": 100,
      "chip": "ym2612"
    },
    {
      "channel": 5,
      "note": 73,
      "start": 71.7201,
      "duration": 0.3936,
      "velocity": 95,
      "chip": "ym2612"
    },
    {
      "channel": 2,
      "note": 78,
      "start": 71.7208,
      "duration": 0.3936,
      "velocity": 100,
      "chip": "ym2612"
    },
    {
      "channel": 0,
      "note": 68,
      "start": 72.1117,
      "duration": 0.3936,
      "velocity": 106,
      "chip": "ym2612"
    },
    {
      "channel": 3,
      "note": 76,
      "start": 72.1128,
      "duration": 0.3939,
      "velocity": 100,
      "chip": "ym2612"
    },
    {
      "channel": 4,
      "note": 71,
      "start": 72.1135,
      "duration": 0.3939,
      "velocity": 100,
      "chip": "ym2612"
    },
    {
      "channel": 5,
      "note": 71,
      "start": 72.1143,
      "duration": 0.394,
      "velocity": 95,
      "chip": "ym2612"
    },
    {
      "channel": 2,
      "note": 76,
      "start": 72.115,
      "duration": 0.394,
      "velocity": 100,
      "chip": "ym2612"
    },
    {
      "channel": 0,
      "note": 66,
      "start": 72.5058,
      "duration": 1.5758,
      "velocity": 106,
      "chip": "ym2612"
    },
    {
      "channel": 1,
      "note": 38,
      "start": 72.5066,
      "duration": 1.5754,
      "velocity": 97,
      "chip": "ym2612"
    },
    {
      "channel": 3,
      "note": 74,
      "start": 72.5074,
      "duration": 1.9708,
      "velocity": 100,
      "chip": "ym2612"
    },
    {
      "channel": 4,
      "note": 69,
      "start": 72.5081,
      "duration": 1.9708,
      "velocity": 100,
      "chip": "ym2612"
    },
    {
      "channel": 5,
      "note": 69,
      "start": 72.5088,
      "duration": 0.3919,
      "velocity": 95,
      "chip": "ym2612"
    },
    {
      "channel": 2,
      "note": 74,
      "start": 72.511,
      "duration": 1.9695,
      "velocity": 100,
      "chip": "ym2612"
    },
    {
      "channel": 5,
      "note": 69,
      "start": 72.9013,
      "duration": 0.3946,
      "velocity": 95,
      "chip": "ym2612"
    },
    {
      "channel": 5,
      "note": 74,
      "start": 73.2966,
      "duration": 0.3924,
      "velocity": 95,
      "chip": "ym2612"
    },
    {
      "channel": 5,
      "note": 78,
      "start": 73.6895,
      "duration": 0.3939,
      "velocity": 95,
      "chip": "ym2612"
    },
    {
      "channel": 1,
      "note": 37,
      "start": 74.0825,
      "duration": 1.5763,
      "velocity": 97,
      "chip": "ym2612"
    },
    {
      "channel": 5,
      "note": 76,
      "start": 74.0839,
      "duration": 0.3957,
      "velocity": 95,
      "chip": "ym2612"
    },
    {
      "channel": 0,
      "note": 64,
      "start": 74.4776,
      "duration": 0.3922,
      "velocity": 106,
      "chip": "ym2612"
    },
    {
      "channel": 3,
      "note": 73,
      "start": 74.4788,
      "duration": 0.392,
      "velocity": 100,
      "chip": "ym2612"
    },
    {
      "channel": 4,
      "note": 69,
      "start": 74.4796,
      "duration": 0.392,
      "velocity": 100,
      "chip": "ym2612"
    },
    {
      "channel": 5,
      "note": 73,
      "start": 74.4802,
      "duration": 0.3921,
      "velocity": 95,
      "chip": "ym2612"
    },
    {
      "channel": 2,
      "note": 73,
      "start": 74.481,
      "duration": 0.392,
      "velocity": 100,
      "chip": "ym2612"
    },
    {
      "channel": 0,
      "note": 57,
      "start": 74.8704,
      "duration": 0.3935,
      "velocity": 106,
      "chip": "ym2612"
    },
    {
      "channel": 3,
      "note": 64,
      "start": 74.8715,
      "duration": 0.3935,
      "velocity": 100,
      "chip": "ym2612"
    },
    {
      "channel": 4,
      "note": 61,
      "start": 74.8722,
      "duration": 0.3935,
      "velocity": 100,
      "chip": "ym2612"
    },
    {
      "channel": 5,
      "note": 69,
      "start": 74.8729,
      "duration": 0.3935,
      "velocity": 95,
      "chip": "ym2612"
    },
    {
      "channel": 2,
      "note": 64,
      "start": 74.8737,
      "duration": 0.3935,
      "velocity": 100,
      "chip": "ym2612"
    },
    {
      "channel": 0,
      "note": 61,
      "start": 75.2645,
      "duration": 0.3936,
      "velocity": 106,
      "chip": "ym2612"
    },
    {
      "channel": 3,
      "note": 69,
      "start": 75.2656,
      "duration": 0.3953,
      "velocity": 100,
      "chip": "ym2612"
    },
    {
      "channel": 4,
      "note": 64,
      "start": 75.2663,
      "duration": 0.3954,
      "velocity": 100,
      "chip": "ym2612"
    },
    {
      "channel": 5,
      "note": 73,
      "start": 75.267,
      "duration": 0.3954,
      "velocity": 95,
      "chip": "ym2612"
    },
    {
      "channel": 2,
      "note": 69,
      "start": 75.2678,
      "duration": 0.3954,
      "velocity": 100,
      "chip": "ym2612"
    },
    {
      "channel": 0,
      "note": 61,
      "start": 75.6587,
      "duration": 1.1816,
      "velocity": 106,
      "chip": "ym2612"
    },
    {
      "channel": 1,
      "note": 35,
      "start": 75.6607,
      "duration": 1.5746,
      "velocity": 97,
      "chip": "ym2612"
    },
    {
      "channel": 3,
      "note": 69,
      "start": 75.6615,
      "duration": 1.18,
      "velocity": 100,
      "chip": "ym2612"
    },
    {
      "channel": 4,
      "note": 64,
      "start": 75.6623,
      "duration": 1.18,
      "velocity": 100,
      "chip": "ym2612"
    },
    {
      "channel": 5,
      "note": 74,
      "start": 75.6629,
      "duration": 0.3906,
      "velocity": 95,
      "chip": "ym2612"
    },
    {
      "channel": 2,
      "note": 69,
      "start": 75.6637,
      "duration": 1.1812,
      "velocity": 100,
      "chip": "ym2612"
    },
    {
      "channel": 5,
      "note": 73,
      "start": 76.0542,
      "duration": 0.3934,
      "velocity": 95,
      "chip": "ym2612"
    },
    {
      "channel": 5,
      "note": 71,
      "start": 76.4482,
      "duration": 0.3959,
      "velocity": 95,
      "chip": "ym2612"
    },
    {
      "channel": 0,
      "note": 62,
      "start": 76.841,
      "duration": 0.1891,
      "velocity": 106,
      "chip": "ym2612"
    },
    {
      "channel": 3,
      "note": 71,
      "start": 76.842,
      "duration": 0.1891,
      "velocity": 100,
      "chip": "ym2612"
    },
    {
      "channel": 4,
      "note": 64,
      "start": 76.8427,
      "duration": 0.1892,
      "velocity": 100,
      "chip": "ym2612"
    },
    {
      "channel": 5,
      "note": 69,
      "start": 76.8447,
      "duration": 0.3926,
      "velocity": 95,
      "chip": "ym2612"
    },
    {
      "channel": 2,
      "note": 71,
      "start": 76.8455,
      "duration": 0.1874,
      "velocity": 100,
      "chip": "ym2612"
    },
    {
      "channel": 0,
      "note": 61,
      "start": 77.0307,
      "duration": 0.2038,
      "velocity": 106,
      "chip": "ym2612"
    },
    {
      "channel": 3,
      "note": 69,
      "start": 77.0318,
      "duration": 0.2041,
      "velocity": 100,
      "chip": "ym2612"
    },
    {
      "channel": 4,
      "note": 64,
      "start": 77.0324,
      "duration": 0.2043,
      "velocity": 100,
      "chip": "ym2612"
    },
    {
      "channel": 2,
      "note": 69,
      "start": 77.0335,
      "duration": 0.2045,
      "velocity": 100,
      "chip": "ym2612"
    },
    {
      "channel": 0,
      "note": 59,
      "start": 77.2351,
      "duration": 1.5761,
      "velocity": 106,
      "chip": "ym2612"
    },
    {
      "channel": 1,
      "note": 40,
      "start": 77.2358,
      "duration": 1.5761,
      "velocity": 97,
      "chip": "ym2612"
    },
    {
      "channel": 3,
      "note": 68,
      "start": 77.2366,
      "duration": 1.5761,
      "velocity": 100,
      "chip": "ym2612"
    },
    {
      "channel": 4,
      "note": 64,
      "start": 77.2371,
      "duration": 1.5763,
      "velocity": 100,
      "chip": "ym2612"
    },
    {
      "channel": 5,
      "note": 68,
      "start": 77.2379,
      "duration": 0.392,
      "velocity": 95,
      "chip": "ym2612"
    },
    {
      "channel": 2,
      "note": 68,
      "start": 77.2387,
      "duration": 1.5763,
      "velocity": 100,
      "chip": "ym2612"
    },
    {
      "channel": 5,
      "note": 64,
      "start": 77.6305,
      "duration": 0.3936,
      "velocity": 95,
      "chip": "ym2612"
    },
    {
      "channel": 5,
      "note": 68,
      "start": 78.0247,
      "duration": 0.3936,
      "velocity": 95,
      "chip": "ym2612"
    },
    {
      "channel": 5,
      "note": 74,
      "start": 78.4188,
      "duration": 0.3954,
      "velocity": 95,
      "chip": "ym2612"
    },
    {
      "channel": 0,
      "note": 61,
      "start": 78.8117,
      "duration": 1.5754,
      "velocity": 106,
      "chip": "ym2612"
    },
    {
      "channel": 1,
      "note": 45,
      "start": 78.8125,
      "duration": 1.5754,
      "velocity": 97,
      "chip": "ym2612"
    },
    {
      "channel": 3,
      "note": 69,
      "start": 78.8133,
      "duration": 1.5754,
      "velocity": 100,
      "chip": "ym2612"
    },
    {
      "channel": 4,
      "note": 64,
      "start": 78.814,
      "duration": 1.5754,
      "velocity": 100,
      "chip": "ym2612"
    },
    {
      "channel": 5,
      "note": 73,
      "start": 78.8147,
      "duration": 0.3916,
      "velocity": 95,
      "chip": "ym2612"
    },
    {
      "channel": 2,
      "note": 69,
      "start": 78.8155,
      "duration": 1.5754,
      "velocity": 100,
      "chip": "ym2612"
    },
    {
      "channel": 5,
      "note": 64,
      "start": 79.207,
      "duration": 0.3934,
      "velocity": 95,
      "chip": "ym2612"
    },
    {
      "channel": 5,
      "note": 76,
      "start": 79.6011,
      "duration": 0.3949,
      "velocity": 95,
      "chip": "ym2612"
    },
    {
      "channel": 5,
      "note": 64,
      "start": 79.9965,
      "duration": 0.3937,
      "velocity": 95,
      "chip": "ym2612"
    },
    {
      "channel": 0,
      "note": 64,
      "start": 80.3878,
      "duration": 0.3935,
      "velocity": 106,
      "chip": "ym2612"
    },
    {
      "channel": 1,
      "note": 44,
      "start": 80.3885,
      "duration": 1.5758,
      "velocity": 97,
      "chip": "ym2612"
    },
    {
      "channel": 3,
      "note": 71,
      "start": 80.3893,
      "duration": 0.3931,
      "velocity": 100,
      "chip": "ym2612"
    },
    {
      "channel": 4,
      "note": 68,
      "start": 80.39,
      "duration": 0.3931,
      "velocity": 100,
      "chip": "ym2612"
    },
    {
      "channel": 5,
      "note": 71,
      "start": 80.3908,
      "duration": 0.3931,
      "velocity": 95,
      "chip": "ym2612"
    },
    {
      "channel": 2,
      "note": 71,
      "start": 80.3916,
      "duration": 0.393,
      "velocity": 100,
      "chip": "ym2612"
    },
    {
      "channel": 0,
      "note": 64,
      "start": 80.7819,
      "duration": 0.3936,
      "velocity": 106,
      "chip": "ym2612"
    },
    {
      "channel": 3,
      "note": 71,
      "start": 80.783,
      "duration": 0.395,
      "velocity": 100,
      "chip": "ym2612"
    },
    {
      "channel": 4,
      "note": 68,
      "start": 80.7837,
      "duration": 0.395,
      "velocity": 100,
      "chip": "ym2612"
    },
    {
      "channel": 5,
      "note": 68,
      "start": 80.7845,
      "duration": 0.395,
      "velocity": 95,
      "chip": "ym2612"
    },
    {
      "channel": 2,
      "note": 71,
      "start": 80.7852,
      "duration": 0.395,
      "velocity": 100,
      "chip": "ym2612"
    },
    {
      "channel": 0,
      "note": 71,
      "start": 81.1775,
      "duration": 0.3921,
      "velocity": 106,
      "chip": "ym2612"
    },
    {
      "channel": 3,
      "note": 80,
      "start": 81.1785,
      "duration": 0.3921,
      "velocity": 100,
      "chip": "ym2612"
    },
    {
      "channel": 4,
      "note": 76,
      "start": 81.1793,
      "duration": 0.3921,
      "velocity": 100,
      "chip": "ym2612"
    },
    {
      "channel": 5,
      "note": 76,
      "start": 81.18,
      "duration": 0.3921,
      "velocity": 95,
      "chip": "ym2612"
    },
    {
      "channel": 2,
      "note": 80,
      "start": 81.1808,
      "duration": 0.3921,
      "velocity": 100,
      "chip": "ym2612"
    },
    {
      "channel": 0,
      "note": 68,
      "start": 81.5701,
      "duration": 0.3934,
      "velocity": 106,
      "chip": "ym2612"
    },
    {
      "channel": 3,
      "note": 76,
      "start": 81.5712,
      "duration": 0.3938,
      "velocity": 100,
      "chip": "ym2612"
    },
    {
      "channel": 4,
      "note": 71,
      "start": 81.572,
      "duration": 0.3939,
      "velocity": 100,
      "chip": "ym2612"
    },
    {
      "channel": 5,
      "note": 71,
      "start": 81.5727,
      "duration": 0.3939,
      "velocity": 95,
      "chip": "ym2612"
    },
    {
      "channel": 2,
      "note": 76,
      "start": 81.5734,
      "duration": 0.3939,
      "velocity": 100,
      "chip": "ym2612"
    },
    {
      "channel": 0,
      "note": 69,
      "start": 81.9642,
      "duration": 1.9698,
      "velocity": 106,
      "chip": "ym2612"
    },
    {
      "channel": 1,
      "note": 42,
      "start": 81.9649,
      "duration": 1.5755,
      "velocity": 97,
      "chip": "ym2612"
    },
    {
      "channel": 3,
      "note": 78,
      "start": 81.9657,
      "duration": 1.9695,
      "velocity": 100,
      "chip": "ym2612"
    },
    {
      "channel": 4,
      "note": 73,
      "start": 81.9665,
      "duration": 1.9695,
      "velocity": 100,
      "chip": "ym2612"
    },
    {
      "channel": 5,
      "note": 73,
      "start": 81.9672,
      "duration": 0.3919,
      "velocity": 95,
      "chip": "ym2612"
    },
    {
      "channel": 2,
      "note": 78,
      "start": 81.968,
      "duration": 1.9695,
      "velocity": 100,
      "chip": "ym2612"
    },
    {
      "channel": 5,
      "note": 66,
      "start": 82.361,
      "duration": 0.3923,
      "velocity": 95,
      "chip": "ym2612"
    },
    {
      "channel": 5,
      "note": 73,
      "start": 82.7539,
      "duration": 0.3934,
      "velocity": 95,
      "chip": "ym2612"
    },
    {
      "channel": 5,
      "note": 69,
      "start": 83.1479,
      "duration": 0.3939,
      "velocity": 95,
      "chip": "ym2612"
    },
    {
      "channel": 1,
      "note": 40,
      "start": 83.541,
      "duration": 1.5763,
      "velocity": 97,
      "chip": "ym2612"
    },
    {
      "channel": 5,
      "note": 68,
      "start": 83.5423,
      "duration": 0.3944,
      "velocity": 95,
      "chip": "ym2612"
    },
    {
      "channel": 0,
      "note": 68,
      "start": 83.9347,
      "duration": 0.3936,
      "velocity": 106,
      "chip": "ym2612"
    },
    {
      "channel": 3,
      "note": 76,
      "start": 83.9358,
      "duration": 1.1821,
      "velocity": 100,
      "chip": "ym2612"
    },
    {
      "channel": 4,
      "note": 71,
      "start": 83.9366,
      "duration": 1.1821,
      "velocity": 100,
      "chip": "ym2612"
    },
    {
      "channel": 5,
      "note": 64,
      "start": 83.9373,
      "duration": 0.3927,
      "velocity": 95,
      "chip": "ym2612"
    },
    {
      "channel": 2,
      "note": 76,
      "start": 83.9381,
      "duration": 1.1821,
      "velocity": 100,
      "chip": "ym2612"
    },
    {
      "channel": 0,
      "note": 69,
      "start": 84.3289,
      "duration": 0.3935,
      "velocity": 106,
      "chip": "ym2612"
    },
    {
      "channel": 5,
      "note": 66,
      "start": 84.3306,
      "duration": 0.3935,
      "velocity": 95,
      "chip": "ym2612"
    },
    {
      "channel": 0,
      "note": 71,
      "start": 84.7229,
      "duration": 0.3935,
      "velocity": 106,
      "chip": "ym2612"
    },
    {
      "channel": 5,
      "note": 68,
      "start": 84.7247,
      "duration": 0.3947,
      "velocity": 95,
      "chip": "ym2612"
    },
    {
      "channel": 0,
      "note": 66,
      "start": 85.117,
      "duration": 1.1817,
      "velocity": 106,
      "chip": "ym2612"
    },
    {
      "channel": 1,
      "note": 38,
      "start": 85.1178,
      "duration": 1.5771,
      "velocity": 97,
      "chip": "ym2612"
    },
    {
      "channel": 3,
      "note": 74,
      "start": 85.1185,
      "duration": 1.5771,
      "velocity": 100,
      "chip": "ym2612"
    },
    {
      "channel": 4,
      "note": 69,
      "start": 85.1193,
      "duration": 1.5771,
      "velocity": 100,
      "chip": "ym2612"
    },
    {
      "channel": 5,
      "note": 74,
      "start": 85.12,
      "duration": 0.3926,
      "velocity": 95,
      "chip": "ym2612"
    },
    {
      "channel": 2,
      "note": 74,
      "start": 85.1208,
      "duration": 1.5772,
      "velocity": 100,
      "chip": "ym2612"
    },
    {
      "channel": 5,
      "note": 66,
      "start": 85.5132,
      "duration": 0.3929,
      "velocity": 95,
      "chip": "ym2612"
    },
    {
      "channel": 5,
      "note": 69,
      "start": 85.9067,
      "duration": 0.3938,
      "velocity": 95,
      "chip": "ym2612"
    },
    {
      "channel": 0,
      "note": 66,
      "start": 86.2992,
      "duration": 0.1893,
      "velocity": 106,
      "chip": "ym2612"
    },
    {
      "channel": 5,
      "note": 66,
      "start": 86.301,
      "duration": 0.3962,
      "velocity": 95,
      "chip": "ym2612"
    },
    {
      "channel": 0,
      "note": 68,
      "start": 86.489,
      "duration": 0.2051,
      "velocity": 106,
      "chip": "ym2612"
    },
    {
      "channel": 0,
      "note": 69,
      "start": 86.6948,
      "duration": 0.3922,
      "velocity": 106,
      "chip": "ym2612"
    },
    {
      "channel": 1,
      "note": 40,
      "start": 86.6955,
      "duration": 1.5745,
      "velocity": 97,
      "chip": "ym2612"
    },
    {
      "channel": 3,
      "note": 78,
      "start": 86.6963,
      "duration": 0.3916,
      "velocity": 100,
      "chip": "ym2612"
    },
    {
      "channel": 4,
      "note": 71,
      "start": 86.6971,
      "duration": 0.3915,
      "velocity": 100,
      "chip": "ym2612"
    },
    {
      "channel": 5,
      "note": 74,
      "start": 86.6978,
      "duration": 0.3913,
      "velocity": 95,
      "chip": "ym2612"
    },
    {
      "channel": 2,
      "note": 78,
      "start": 86.6985,
      "duration": 0.3913,
      "velocity": 100,
      "chip": "ym2612"
    },
    {
      "channel": 0,
      "note": 69,
      "start": 87.0874,
      "duration": 0.1903,
      "velocity": 106,
      "chip": "ym2612"
    },
    {
      "channel": 3,
      "note": 78,
      "start": 87.0884,
      "duration": 0.1903,
      "velocity": 100,
      "chip": "ym2612"
    },
    {
      "channel": 4,
      "note": 71,
      "start": 87.089,
      "duration": 0.1903,
      "velocity": 100,
      "chip": "ym2612"
    },
    {
      "channel": 5,
      "note": 64,
      "start": 87.0897,
      "duration": 0.3927,
      "velocity": 95,
      "chip": "ym2612"
    },
    {
      "channel": 2,
      "note": 78,
      "start": 87.0903,
      "duration": 0.1899,
      "velocity": 100,
      "chip": "ym2612"
    },
    {
      "channel": 0,
      "note": 69,
      "start": 87.2782,
      "duration": 0.3925,
      "velocity": 106,
      "chip": "ym2612"
    },
    {
      "channel": 3,
      "note": 78,
      "start": 87.2792,
      "duration": 0.3927,
      "velocity": 100,
      "chip": "ym2612"
    },
    {
      "channel": 4,
      "note": 71,
      "start": 87.2798,
      "duration": 0.3929,
      "velocity": 100,
      "chip": "ym2612"
    },
    {
      "channel": 2,
      "note": 78,
      "start": 87.2807,
      "duration": 0.3929,
      "velocity": 100,
      "chip": "ym2612"
    },
    {
      "channel": 5,
      "note": 66,
      "start": 87.483,
      "duration": 0.3949,
      "velocity": 95,
      "chip": "ym2612"
    },
    {
      "channel": 0,
      "note": 68,
      "start": 87.6714,
      "duration": 0.5979,
      "velocity": 106,
      "chip": "ym2612"
    },
    {
      "channel": 3,
      "note": 76,
      "start": 87.6724,
      "duration": 0.5983,
      "velocity": 100,
      "chip": "ym2612"
    },
    {
      "channel": 4,
      "note": 71,
      "start": 87.6731,
      "duration": 0.5985,
      "velocity": 100,
      "chip": "ym2612"
    },
    {
      "channel": 2,
      "note": 76,
      "start": 87.6741,
      "duration": 0.5989,
      "velocity": 100,
      "chip": "ym2612"
    },
    {
      "channel": 5,
      "note": 68,
      "start": 87.8785,
      "duration": 0.3938,
      "velocity": 95,
      "chip": "ym2612"
    },
    {
      "channel": 0,
      "note": 69,
      "start": 88.2699,
      "duration": 3.1555,
      "velocity": 105,
      "chip": "ym2612"
    },
    {
      "channel": 1,
      "note": 45,
      "start": 88.2706,
      "duration": 0.7871,
      "velocity": 97,
      "chip": "ym2612"
    },
    {
      "channel": 3,
      "note": 76,
      "start": 88.2714,
      "duration": 3.1601,
      "velocity": 100,
      "chip": "ym2612"
    },
    {
      "channel": 4,
      "note": 73,
      "start": 88.2721,
      "duration": 3.1603,
      "velocity": 100,
      "chip": "ym2612"
    },
    {
      "channel": 5,
      "note": 69,
      "start": 88.2729,
      "duration": 0.3919,
      "velocity": 95,
      "chip": "ym2612"
    },
    {
      "channel": 2,
      "note": 76,
      "start": 88.2737,
      "duration": 3.1633,
      "velocity": 100,
      "chip": "ym2612"
    },
    {
      "channel": 5,
      "note": 64,
      "start": 88.6653,
      "duration": 0.3938,
      "velocity": 95,
      "chip": "ym2612"
    },
    {
      "channel": 1,
      "note": 45,
      "start": 89.0582,
      "duration": 0.7878,
      "velocity": 97,
      "chip": "ym2612"
    },
    {
      "channel": 5,
      "note": 76,
      "start": 89.061,
      "duration": 0.3919,
      "velocity": 95,
      "chip": "ym2612"
    },
    {
      "channel": 5,
      "note": 64,
      "start": 89.4535,
      "duration": 0.3938,
      "velocity": 95,
      "chip": "ym2612"
    },
    {
      "channel": 1,
      "note": 45,
      "start": 89.8465,
      "duration": 0.7877,
      "velocity": 97,
      "chip": "ym2612"
    },
    {
      "channel": 5,
      "note": 69,
      "start": 89.8479,
      "duration": 0.3933,
      "velocity": 95,
      "chip": "ym2612"
    },
    {
      "channel": 5,
      "note": 64,
      "start": 90.2418,
      "duration": 0.3937,
      "velocity": 95,
      "chip": "ym2612"
    },
    {
      "channel": 1,
      "note": 45,
      "start": 90.6346,
      "duration": 0.7958,
      "velocity": 97,
      "chip": "ym2612"
    },
    {
      "channel": 5,
      "note": 67,
      "start": 90.6361,
      "duration": 0.3933,
      "velocity": 95,
      "chip": "ym2612"
    },
    {
      "channel": 5,
      "note": 76,
      "start": 91.03,
      "duration": 0.4058,
      "velocity": 97,
      "chip": "ym2612"
    },
    {
      "channel": 0,
      "note": 66,
      "start": 91.4274,
      "duration": 1.5711,
      "velocity": 105,
      "chip": "ym2612"
    },
    {
      "channel": 1,
      "note": 38,
      "start": 91.431,
      "duration": 0.7807,
      "velocity": 97,
      "chip": "ym2612"
    },
    {
      "channel": 3,
      "note": 74,
      "start": 91.4321,
      "duration": 0.7803,
      "velocity": 100,
      "chip": "ym2612"
    },
    {
      "channel": 5,
      "note": 78,
      "start": 91.4364,
      "duration": 0.1765,
      "velocity": 97,
      "chip": "ym2612"
    },
    {
      "channel": 2,
      "note": 74,
      "start": 91.4375,
      "duration": 0.7765,
      "velocity": 100,
      "chip": "ym2612"
    },
    {
      "channel": 5,
      "note": 74,
      "start": 91.6135,
      "duration": 0.2039,
      "velocity": 97,
      "chip": "ym2612"
    },
    {
      "channel": 5,
      "note": 69,
      "start": 91.8179,
      "duration": 0.1893,
      "velocity": 97,
      "chip": "ym2612"
    },
    {
      "channel": 5,
      "note": 74,
      "start": 92.0077,
      "duration": 0.2055,
      "velocity": 97,
      "chip": "ym2612"
    },
    {
      "channel": 1,
      "note": 38,
      "start": 92.2123,
      "duration": 0.787,
      "velocity": 97,
      "chip": "ym2612"
    },
    {
      "channel": 3,
      "note": 74,
      "start": 92.213,
      "duration": 0.787,
      "velocity": 100,
      "chip": "ym2612"
    },
    {
      "channel": 5,
      "note": 78,
      "start": 92.2139,
      "duration": 0.1873,
      "velocity": 97,
      "chip": "ym2612"
    },
    {
      "channel": 2,
      "note": 74,
      "start": 92.2146,
      "duration": 0.787,
      "velocity": 100,
      "chip": "ym2612"
    },
    {
      "channel": 5,
      "note": 74,
      "start": 92.4018,
      "duration": 0.2038,
      "velocity": 97,
      "chip": "ym2612"
    },
    {
      "channel": 5,
      "note": 69,
      "start": 92.6061,
      "duration": 0.1896,
      "velocity": 97,
      "chip": "ym2612"
    },
    {
      "channel": 5,
      "note": 74,
      "start": 92.7963,
      "duration": 0.2045,
      "velocity": 97,
      "chip": "ym2612"
    },
    {
      "channel": 0,
      "note": 68,
      "start": 92.9992,
      "duration": 0.3933,
      "velocity": 105,
      "chip": "ym2612"
    },
    {
      "channel": 1,
      "note": 40,
      "start": 92.9999,
      "duration": 0.7871,
      "velocity": 97,
      "chip": "ym2612"
    },
    {
      "channel": 3,
      "note": 76,
      "start": 93.0006,
      "duration": 0.7871,
      "velocity": 100,
      "chip": "ym2612"
    },
    {
      "channel": 5,
      "note": 80,
      "start": 93.0015,
      "duration": 0.1878,
      "velocity": 97,
      "chip": "ym2612"
    },
    {
      "channel": 2,
      "note": 76,
      "start": 93.0021,
      "duration": 0.7871,
      "velocity": 100,
      "chip": "ym2612"
    },
    {
      "channel": 5,
      "note": 76,
      "start": 93.1899,
      "duration": 0.2056,
      "velocity": 97,
      "chip": "ym2612"
    },
    {
      "channel": 0,
      "note": 69,
      "start": 93.3946,
      "duration": 0.1877,
      "velocity": 105,
      "chip": "ym2612"
    },
    {
      "channel": 5,
      "note": 71,
      "start": 93.3961,
      "duration": 0.1878,
      "velocity": 97,
      "chip": "ym2612"
    },
    {
      "channel": 0,
      "note": 71,
      "start": 93.583,
      "duration": 0.3946,
      "velocity": 105,
      "chip": "ym2612"
    },
    {
      "channel": 5,
      "note": 76,
      "start": 93.5845,
      "duration": 0.204,
      "velocity": 97,
      "chip": "ym2612"
    },
    {
      "channel": 1,
      "note": 40,
      "start": 93.7875,
      "duration": 0.7877,
      "velocity": 97,
      "chip": "ym2612"
    },
    {
      "channel": 3,
      "note": 76,
      "start": 93.7883,
      "duration": 0.7877,
      "velocity": 100,
      "chip": "ym2612"
    },
    {
      "channel": 5,
      "note": 80,
      "start": 93.7891,
      "duration": 0.1902,
      "velocity": 97,
      "chip": "ym2612"
    },
    {
      "channel": 2,
      "note": 76,
      "start": 93.7899,
      "duration": 0.7893,
      "velocity": 100,
      "chip": "ym2612"
    },
    {
      "channel": 0,
      "note": 68,
      "start": 93.9783,
      "duration": 0.3922,
      "velocity": 105,
      "chip": "ym2612"
    },
    {
      "channel": 5,
      "note": 76,
      "start": 93.9799,
      "duration": 0.202,
      "velocity": 97,
      "chip": "ym2612"
    },
    {
      "channel": 5,
      "note": 71,
      "start": 94.1825,
      "duration": 0.1896,
      "velocity": 97,
      "chip": "ym2612"
    },
    {
      "channel": 0,
      "note": 64,
      "start": 94.3712,
      "duration": 1.78,
      "velocity": 105,
      "chip": "ym2612"
    },
    {
      "channel": 5,
      "note": 76,
      "start": 94.3727,
      "duration": 0.2056,
      "velocity": 97,
      "chip": "ym2612"
    },
    {
      "channel": 1,
      "note": 45,
      "start": 94.5757,
      "duration": 0.7878,
      "velocity": 97,
      "chip": "ym2612"
    },
    {
      "channel": 3,
      "note": 73,
      "start": 94.5779,
      "duration": 0.7863,
      "velocity": 100,
      "chip": "ym2612"
    },
    {
      "channel": 5,
      "note": 76,
      "start": 94.5789,
      "duration": 0.1869,
      "velocity": 97,
      "chip": "ym2612"
    },
    {
      "channel": 2,
      "note": 73,
      "start": 94.5797,
      "duration": 0.7861,
      "velocity": 100,
      "chip": "ym2612"
    },
    {
      "channel": 5,
      "note": 73,
      "start": 94.7664,
      "duration": 0.2038,
      "velocity": 97,
      "chip": "ym2612"
    },
    {
      "channel": 5,
      "note": 69,
      "start": 94.9708,
      "duration": 0.1905,
      "velocity": 97,
      "chip": "ym2612"
    },
    {
      "channel": 5,
      "note": 73,
      "start": 95.1618,
      "duration": 0.2032,
      "velocity": 97,
      "chip": "ym2612"
    },
    {
      "channel": 1,
      "note": 45,
      "start": 95.3641,
      "duration": 0.7879,
      "velocity": 97,
      "chip": "ym2612"
    },
    {
      "channel": 3,
      "note": 73,
      "start": 95.3649,
      "duration": 0.7878,
      "velocity": 100,
      "chip": "ym2612"
    },
    {
      "channel": 5,
      "note": 76,
      "start": 95.3657,
      "duration": 0.1884,
      "velocity": 97,
      "chip": "ym2612"
    },
    {
      "channel": 2,
      "note": 73,
      "start": 95.3664,
      "duration": 0.7879,
      "velocity": 100,
      "chip": "ym2612"
    },
    {
      "channel": 5,
      "note": 73,
      "start": 95.5546,
      "duration": 0.2037,
      "velocity": 97,
      "chip": "ym2612"
    },
    {
      "channel": 5,
      "note": 69,
      "start": 95.759,
      "duration": 0.1892,
      "velocity": 97,
      "chip": "ym2612"
    },
    {
      "channel": 5,
      "note": 73,
      "start": 95.9487,
      "duration": 0.2049,
      "velocity": 97,
      "chip": "ym2612"
    },
    {
      "channel": 0,
      "note": 66,
      "start": 96.1519,
      "duration": 0.3935,
      "velocity": 105,
      "chip": "ym2612"
    },
    {
      "channel": 1,
      "note": 42,
      "start": 96.1526,
      "duration": 0.7871,
      "velocity": 97,
      "chip": "ym2612"
    },
    {
      "channel": 3,
      "note": 73,
      "start": 96.1534,
      "duration": 0.7871,
      "velocity": 100,
      "chip": "ym2612"
    },
    {
      "channel": 5,
      "note": 78,
      "start": 96.1542,
      "duration": 0.188,
      "velocity": 97,
      "chip": "ym2612"
    },
    {
      "channel": 2,
      "note": 73,
      "start": 96.1549,
      "duration": 0.7871,
      "velocity": 100,
      "chip": "ym2612"
    },
    {
      "channel": 5,
      "note": 73,
      "start": 96.3441,
      "duration": 0.2029,
      "velocity": 97,
      "chip": "ym2612"
    },
    {
      "channel": 0,
      "note": 67,
      "start": 96.546,
      "duration": 0.1891,
      "velocity": 105,
      "chip": "ym2612"
    },
    {
      "channel": 5,
      "note": 70,
      "start": 96.5476,
      "duration": 0.1891,
      "velocity": 97,
      "chip": "ym2612"
    },
    {
      "channel": 0,
      "note": 66,
      "start": 96.7357,
      "duration": 0.3934,
      "velocity": 105,
      "chip": "ym2612"
    },
    {
      "channel": 5,
      "note": 73,
      "start": 96.7373,
      "duration": 0.2041,
      "velocity": 97,
      "chip": "ym2612"
    },
    {
      "channel": 1,
      "note": 42,
      "start": 96.9403,
      "duration": 0.7877,
      "velocity": 97,
      "chip": "ym2612"
    },
    {
      "channel": 3,
      "note": 73,
      "start": 96.9411,
      "duration": 0.7877,
      "velocity": 100,
      "chip": "ym2612"
    },
    {
      "channel": 5,
      "note": 66,
      "start": 96.9419,
      "duration": 0.1889,
      "velocity": 97,
      "chip": "ym2612"
    },
    {
      "channel": 2,
      "note": 73,
      "start": 96.9426,
      "duration": 0.788,
      "velocity": 100,
      "chip": "ym2612"
    },
    {
      "channel": 0,
      "note": 61,
      "start": 97.1299,
      "duration": 0.3934,
      "velocity": 105,
      "chip": "ym2612"
    },
    {
      "channel": 5,
      "note": 70,
      "start": 97.1314,
      "duration": 0.2033,
      "velocity": 97,
      "chip": "ym2612"
    },
    {
      "channel": 5,
      "note": 73,
      "start": 97.3353,
      "duration": 0.1896,
      "velocity": 97,
      "chip": "ym2612"
    },
    {
      "channel": 0,
      "note": 62,
      "start": 97.5239,
      "duration": 1.3873,
      "velocity": 105,
      "chip": "ym2612"
    },
    {
      "channel": 5,
      "note": 76,
      "start": 97.5254,
      "duration": 0.2045,
      "velocity": 97,
      "chip": "ym2612"
    },
    {
      "channel": 1,
      "note": 47,
      "start": 97.7286,
      "duration": 0.7876,
      "velocity": 97,
      "chip": "ym2612"
    },
    {
      "channel": 3,
      "note": 71,
      "start": 97.7294,
      "duration": 0.7877,
      "velocity": 100,
      "chip": "ym2612"
    },
    {
      "channel": 5,
      "note": 74,
      "start": 97.7305,
      "duration": 0.1882,
      "velocity": 97,
      "chip": "ym2612"
    },
    {
      "channel": 2,
      "note": 71,
      "start": 97.7312,
      "duration": 0.7874,
      "velocity": 100,
      "chip": "ym2612"
    },
    {
      "channel": 5,
      "note": 71,
      "start": 97.9192,
      "duration": 0.2038,
      "velocity": 97,
      "chip": "ym2612"
    },
    {
      "channel": 5,
      "note": 66,
      "start": 98.1236,
      "duration": 0.1891,
      "velocity": 97,
      "chip": "ym2612"
    },
    {
      "channel": 5,
      "note": 71,
      "start": 98.3133,
      "duration": 0.2046,
      "velocity": 97,
      "chip": "ym2612"
    },
    {
      "channel": 1,
      "note": 47,
      "start": 98.5168,
      "duration": 0.788,
      "velocity": 97,
      "chip": "ym2612"
    },
    {
      "channel": 3,
      "note": 71,
      "start": 98.5176,
      "duration": 0.788,
      "velocity": 100,
      "chip": "ym2612"
    },
    {
      "channel": 5,
      "note": 74,
      "start": 98.5184,
      "duration": 0.1888,
      "velocity": 97,
      "chip": "ym2612"
    },
    {
      "channel": 2,
      "note": 71,
      "start": 98.5192,
      "duration": 0.788,
      "velocity": 100,
      "chip": "ym2612"
    },
    {
      "channel": 5,
      "note": 71,
      "start": 98.7078,
      "duration": 0.205,
      "velocity": 97,
      "chip": "ym2612"
    },
    {
      "channel": 0,
      "note": 61,
      "start": 98.9118,
      "duration": 0.3922,
      "velocity": 105,
      "chip": "ym2612"
    },
    {
      "channel": 5,
      "note": 66,
      "start": 98.9133,
      "duration": 0.1875,
      "velocity": 97,
      "chip": "ym2612"
    },
    {
      "channel": 5,
      "note": 71,
      "start": 99.1014,
      "duration": 0.205,
      "velocity": 97,
      "chip": "ym2612"
    },
    {
      "channel": 0,
      "note": 59,
      "start": 99.3048,
      "duration": 0.3933,
      "velocity": 105,
      "chip": "ym2612"
    },
    {
      "channel": 1,
      "note": 40,
      "start": 99.3054,
      "duration": 0.7889,
      "velocity": 97,
      "chip": "ym2612"
    },
    {
      "channel": 3,
      "note": 68,
      "start": 99.3061,
      "duration": 0.7889,
      "velocity": 100,
      "chip": "ym2612"
    },
    {
      "channel": 5,
      "note": 74,
      "start": 99.307,
      "duration": 0.1887,
      "velocity": 97,
      "chip": "ym2612"
    },
    {
      "channel": 2,
      "note": 68,
      "start": 99.3077,
      "duration": 0.7889,
      "velocity": 100,
      "chip": "ym2612"
    },
    {
      "channel": 5,
      "note": 71,
      "start": 99.4962,
      "duration": 0.2034,
      "velocity": 97,
      "chip": "ym2612"
    },
    {
      "channel": 0,
      "note": 66,
      "start": 99.6988,
      "duration": 0.3934,
      "velocity": 105,
      "chip": "ym2612"
    },
    {
      "channel": 5,
      "note": 64,
      "start": 99.7003,
      "duration": 0.1888,
      "velocity": 97,
      "chip": "ym2612"
    },
    {
      "channel": 5,
      "note": 71,
      "start": 99.8897,
      "duration": 0.2062,
      "velocity": 97,
      "chip": "ym2612"
    },
    {
      "channel": 0,
      "note": 64,
      "start": 100.0943,
      "duration": 0.392,
      "velocity": 105,
      "chip": "ym2612"
    },
    {
      "channel": 1,
      "note": 40,
      "start": 100.0949,
      "duration": 0.7863,
      "velocity": 97,
      "chip": "ym2612"
    },
    {
      "channel": 3,
      "note": 68,
      "start": 100.0956,
      "duration": 0.7863,
      "velocity": 100,
      "chip": "ym2612"
    },
    {
      "channel": 5,
      "note": 74,
      "start": 100.0965,
      "duration": 0.1867,
      "velocity": 97,
      "chip": "ym2612"
    },
    {
      "channel": 2,
      "note": 68,
      "start": 100.0972,
      "duration": 0.7866,
      "velocity": 100,
      "chip": "ym2612"
    },
    {
      "channel": 5,
      "note": 71,
      "start": 100.2838,
      "duration": 0.2041,
      "velocity": 97,
      "chip": "ym2612"
    },
    {
      "channel": 0,
      "note": 62,
      "start": 100.487,
      "duration": 0.3934,
      "velocity": 105,
      "chip": "ym2612"
    },
    {
      "channel": 5,
      "note": 64,
      "start": 100.4885,
      "duration": 0.19,
      "velocity": 97,
      "chip": "ym2612"
    },
    {
      "channel": 5,
      "note": 71,
      "start": 100.6791,
      "duration": 0.2039,
      "velocity": 97,
      "chip": "ym2612"
    },
    {
      "channel": 0,
      "note": 61,
      "start": 100.8812,
      "duration": 0.3934,
      "velocity": 105,
      "chip": "ym2612"
    },
    {
      "channel": 1,
      "note": 45,
      "start": 100.8819,
      "duration": 0.7871,
      "velocity": 97,
      "chip": "ym2612"
    },
    {
      "channel": 3,
      "note": 69,
      "start": 100.8826,
      "duration": 0.7871,
      "velocity": 100,
      "chip": "ym2612"
    },
    {
      "channel": 5,
      "note": 73,
      "start": 100.8836,
      "duration": 0.1877,
      "velocity": 97,
      "chip": "ym2612"
    },
    {
      "channel": 2,
      "note": 69,
      "start": 100.8844,
      "duration": 0.7869,
      "velocity": 100,
      "chip": "ym2612"
    },
    {
      "channel": 5,
      "note": 69,
      "start": 101.0719,
      "duration": 0.2057,
      "velocity": 97,
      "chip": "ym2612"
    },
    {
      "channel": 0,
      "note": 62,
      "start": 101.2752,
      "duration": 0.189,
      "velocity": 105,
      "chip": "ym2612"
    },
    {
      "channel": 5,
      "note": 64,
      "start": 101.2782,
      "duration": 0.1878,
      "velocity": 97,
      "chip": "ym2612"
    },
    {
      "channel": 0,
      "note": 64,
      "start": 101.465,
      "duration": 2.5686,
      "velocity": 105,
      "chip": "ym2612"
    },
    {
      "channel": 5,
      "note": 69,
      "start": 101.4665,
      "duration": 0.2041,
      "velocity": 97,
      "chip": "ym2612"
    },
    {
      "channel": 1,
      "note": 45,
      "start": 101.6696,
      "duration": 0.7877,
      "velocity": 97,
      "chip": "ym2612"
    },
    {
      "channel": 3,
      "note": 73,
      "start": 101.6703,
      "duration": 0.1889,
      "velocity": 100,
      "chip": "ym2612"
    },
    {
      "channel": 5,
      "note": 73,
      "start": 101.6712,
      "duration": 0.1902,
      "velocity": 97,
      "chip": "ym2612"
    },
    {
      "channel": 2,
      "note": 73,
      "start": 101.6719,
      "duration": 0.1901,
      "velocity": 100,
      "chip": "ym2612"
    },
    {
      "channel": 3,
      "note": 69,
      "start": 101.8611,
      "duration": 0.2024,
      "velocity": 100,
      "chip": "ym2612"
    },
    {
      "channel": 5,
      "note": 69,
      "start": 101.862,
      "duration": 0.2024,
      "velocity": 97,
      "chip": "ym2612"
    },
    {
      "channel": 2,
      "note": 69,
      "start": 101.8627,
      "duration": 0.2024,
      "velocity": 100,
      "chip": "ym2612"
    },
    {
      "channel": 3,
      "note": 73,
      "start": 102.0641,
      "duration": 0.1891,
      "velocity": 100,
      "chip": "ym2612"
    },
    {
      "channel": 5,
      "note": 64,
      "start": 102.0649,
      "duration": 0.1891,
      "velocity": 97,
      "chip": "ym2612"
    },
    {
      "channel": 2,
      "note": 73,
      "start": 102.0656,
      "duration": 0.1892,
      "velocity": 100,
      "chip": "ym2612"
    },
    {
      "channel": 3,
      "note": 76,
      "start": 102.2539,
      "duration": 0.2042,
      "velocity": 100,
      "chip": "ym2612"
    },
    {
      "channel": 5,
      "note": 69,
      "start": 102.2547,
      "duration": 0.2042,
      "velocity": 97,
      "chip": "ym2612"
    },
    {
      "channel": 2,
      "note": 76,
      "start": 102.2554,
      "duration": 0.2055,
      "velocity": 100,
      "chip": "ym2612"
    },
    {
      "channel": 1,
      "note": 45,
      "start": 102.4579,
      "duration": 0.7877,
      "velocity": 97,
      "chip": "ym2612"
    },
    {
      "channel": 3,
      "note": 81,
      "start": 102.4586,
      "duration": 0.3931,
      "velocity": 100,
      "chip": "ym2612"
    },
    {
      "channel": 5,
      "note": 73,
      "start": 102.4608,
      "duration": 0.1871,
      "velocity": 97,
      "chip": "ym2612"
    },
    {
      "channel": 2,
      "note": 81,
      "start": 102.4616,
      "duration": 0.3917,
      "velocity": 100,
      "chip": "ym2612"
    },
    {
      "channel": 5,
      "note": 69,
      "start": 102.6485,
      "duration": 0.2041,
      "velocity": 97,
      "chip": "ym2612"
    },
    {
      "channel": 3,
      "note": 79,
      "start": 102.8523,
      "duration": 0.3939,
      "velocity": 100,
      "chip": "ym2612"
    },
    {
      "channel": 5,
      "note": 67,
      "start": 102.8532,
      "duration": 0.1888,
      "velocity": 97,
      "chip": "ym2612"
    },
    {
      "channel": 2,
      "note": 79,
      "start": 102.8539,
      "duration": 0.394,
      "velocity": 100,
      "chip": "ym2612"
    },
    {
      "channel": 5,
      "note": 69,
      "start": 103.0425,
      "duration": 0.2046,
      "velocity": 97,
      "chip": "ym2612"
    },
    {
      "channel": 1,
      "note": 45,
      "start": 103.2461,
      "duration": 0.7883,
      "velocity": 97,
      "chip": "ym2612"
    },
    {
      "channel": 3,
      "note": 78,
      "start": 103.2469,
      "duration": 0.3931,
      "velocity": 100,
      "chip": "ym2612"
    },
    {
      "channel": 5,
      "note": 73,
      "start": 103.2477,
      "duration": 0.1883,
      "velocity": 97,
      "chip": "ym2612"
    },
    {
      "channel": 2,
      "note": 78,
      "start": 103.2484,
      "duration": 0.3931,
      "velocity": 100,
      "chip": "ym2612"
    },
    {
      "channel": 5,
      "note": 69,
      "start": 103.4366,
      "duration": 0.2043,
      "velocity": 97,
      "chip": "ym2612"
    },
    {
      "channel": 3,
      "note": 76,
      "start": 103.6406,
      "duration": 0.3945,
      "velocity": 100,
      "chip": "ym2612"
    },
    {
      "channel": 5,
      "note": 67,
      "start": 103.6414,
      "duration": 0.1888,
      "velocity": 97,
      "chip": "ym2612"
    },
    {
      "channel": 2,
      "note": 76,
      "start": 103.6421,
      "duration": 0.3953,
      "velocity": 100,
      "chip": "ym2612"
    },
    {
      "channel": 5,
      "note": 69,
      "start": 103.8307,
      "duration": 0.2059,
      "velocity": 97,
      "chip": "ym2612"
    },
    {
      "channel": 0,
      "note": 66,
      "start": 104.0343,
      "duration": 1.5768,
      "velocity": 105,
      "chip": "ym2612"
    },
    {
      "channel": 1,
      "note": 38,
      "start": 104.035,
      "duration": 0.7869,
      "velocity": 97,
      "chip": "ym2612"
    },
    {
      "channel": 3,
      "note": 74,
      "start": 104.0357,
      "duration": 0.7868,
      "velocity": 100,
      "chip": "ym2612"
    },
    {
      "channel": 4,
      "note": 69,
      "start": 104.0365,
      "duration": 0.7868,
      "velocity": 100,
      "chip": "ym2612"
    },
    {
      "channel": 5,
      "note": 78,
      "start": 104.0373,
      "duration": 0.1871,
      "velocity": 97,
      "chip": "ym2612"
    },
    {
      "channel": 2,
      "note": 74,
      "start": 104.038,
      "duration": 0.7868,
      "velocity": 100,
      "chip": "ym2612"
    },
    {
      "channel": 5,
      "note": 74,
      "start": 104.225,
      "duration": 0.2042,
      "velocity": 97,
      "chip": "ym2612"
    },
    {
      "channel": 5,
      "note": 69,
      "start": 104.4299,
      "duration": 0.1887,
      "velocity": 97,
      "chip": "ym2612"
    },
    {
      "channel": 5,
      "note": 74,
      "start": 104.6192,
      "duration": 0.2049,
      "velocity": 97,
      "chip": "ym2612"
    },
    {
      "channel": 1,
      "note": 38,
      "start": 104.8224,
      "duration": 0.7895,
      "velocity": 97,
      "chip": "ym2612"
    },
    {
      "channel": 3,
      "note": 74,
      "start": 104.8232,
      "duration": 0.7894,
      "velocity": 100,
      "chip": "ym2612"
    },
    {
      "channel": 4,
      "note": 69,
      "start": 104.8239,
      "duration": 0.7894,
      "velocity": 100,
      "chip": "ym2612"
    },
    {
      "channel": 5,
      "note": 78,
      "start": 104.8247,
      "duration": 0.188,
      "velocity": 97,
      "chip": "ym2612"
    },
    {
      "channel": 2,
      "note": 74,
      "start": 104.8254,
      "duration": 0.7894,
      "velocity": 100,
      "chip": "ym2612"
    },
    {
      "channel": 5,
      "note": 74,
      "start": 105.0133,
      "duration": 0.2038,
      "velocity": 97,
      "chip": "ym2612"
    },
    {
      "channel": 5,
      "note": 69,
      "start": 105.2177,
      "duration": 0.189,
      "velocity": 97,
      "chip": "ym2612"
    },
    {
      "channel": 5,
      "note": 74,
      "start": 105.4074,
      "duration": 0.2067,
      "velocity": 97,
      "chip": "ym2612"
    },
    {
      "channel": 0,
      "note": 68,
      "start": 105.6117,
      "duration": 0.392,
      "velocity": 105,
      "chip": "ym2612"
    },
    {
      "channel": 1,
      "note": 40,
      "start": 105.6124,
      "duration": 0.7857,
      "velocity": 97,
      "chip": "ym2612"
    },
    {
      "channel": 3,
      "note": 76,
      "start": 105.6132,
      "duration": 0.7857,
      "velocity": 100,
      "chip": "ym2612"
    },
    {
      "channel": 4,
      "note": 71,
      "start": 105.6139,
      "duration": 0.7857,
      "velocity": 100,
      "chip": "ym2612"
    },
    {
      "channel": 5,
      "note": 80,
      "start": 105.6147,
      "duration": 0.1861,
      "velocity": 97,
      "chip": "ym2612"
    },
    {
      "channel": 2,
      "note": 76,
      "start": 105.6154,
      "duration": 0.7857,
      "velocity": 100,
      "chip": "ym2612"
    },
    {
      "channel": 5,
      "note": 76,
      "start": 105.8014,
      "duration": 0.2043,
      "velocity": 97,
      "chip": "ym2612"
    },
    {
      "channel": 0,
      "note": 69,
      "start": 106.0044,
      "duration": 0.1902,
      "velocity": 105,
      "chip": "ym2612"
    },
    {
      "channel": 5,
      "note": 71,
      "start": 106.0062,
      "duration": 0.1903,
      "velocity": 97,
      "chip": "ym2612"
    },
    {
      "channel": 0,
      "note": 71,
      "start": 106.1953,
      "duration": 0.3924,
      "velocity": 105,
      "chip": "ym2612"
    },
    {
      "channel": 5,
      "note": 76,
      "start": 106.1971,
      "duration": 0.2033,
      "velocity": 97,
      "chip": "ym2612"
    },
    {
      "channel": 1,
      "note": 40,
      "start": 106.3987,
      "duration": 0.7878,
      "velocity": 97,
      "chip": "ym2612"
    },
    {
      "channel": 3,
      "note": 76,
      "start": 106.3995,
      "duration": 0.7878,
      "velocity": 100,
      "chip": "ym2612"
    },
    {
      "channel": 4,
      "note": 71,
      "start": 106.4002,
      "duration": 0.7879,
      "velocity": 100,
      "chip": "ym2612"
    },
    {
      "channel": 5,
      "note": 80,
      "start": 106.4009,
      "duration": 0.1886,
      "velocity": 97,
      "chip": "ym2612"
    },
    {
      "channel": 2,
      "note": 76,
      "start": 106.4017,
      "duration": 0.788,
      "velocity": 100,
      "chip": "ym2612"
    },
    {
      "channel": 0,
      "note": 68,
      "start": 106.5883,
      "duration": 0.3934,
      "velocity": 105,
      "chip": "ym2612"
    },
    {
      "channel": 5,
      "note": 76,
      "start": 106.5901,
      "duration": 0.2046,
      "velocity": 97,
      "chip": "ym2612"
    },
    {
      "channel": 5,
      "note": 71,
      "start": 106.7953,
      "duration": 0.1883,
      "velocity": 97,
      "chip": "ym2612"
    },
    {
      "channel": 0,
      "note": 64,
      "start": 106.9824,
      "duration": 0.992,
      "velocity": 105,
      "chip": "ym2612"
    },
    {
      "channel": 5,
      "note": 76,
      "start": 106.9842,
      "duration": 0.2047,
      "velocity": 97,
      "chip": "ym2612"
    },
    {
      "channel": 1,
      "note": 45,
      "start": 107.1871,
      "duration": 0.7881,
      "velocity": 97,
      "chip": "ym2612"
    },
    {
      "channel": 3,
      "note": 73,
      "start": 107.1879,
      "duration": 0.788,
      "velocity": 100,
      "chip": "ym2612"
    },
    {
      "channel": 4,
      "note": 69,
      "start": 107.1887,
      "duration": 0.7893,
      "velocity": 100,
      "chip": "ym2612"
    },
    {
      "channel": 5,
      "note": 76,
      "start": 107.1895,
      "duration": 0.1891,
      "velocity": 97,
      "chip": "ym2612"
    },
    {
      "channel": 2,
      "note": 73,
      "start": 107.1903,
      "duration": 0.7892,
      "velocity": 100,
      "chip": "ym2612"
    },
    {
      "channel": 5,
      "note": 73,
      "start": 107.3792,
      "duration": 0.2025,
      "velocity": 97,
      "chip": "ym2612"
    },
    {
      "channel": 5,
      "note": 69,
      "start": 107.5823,
      "duration": 0.1891,
      "velocity": 97,
      "chip": "ym2612"
    },
    {
      "channel": 5,
      "note": 73,
      "start": 107.772,
      "duration": 0.2067,
      "velocity": 97,
      "chip": "ym2612"
    },
    {
      "channel": 0,
      "note": 69,
      "start": 107.975,
      "duration": 0.7875,
      "velocity": 105,
      "chip": "ym2612"
    },
    {
      "channel": 1,
      "note": 44,
      "start": 107.9757,
      "duration": 0.7875,
      "velocity": 97,
      "chip": "ym2612"
    },
    {
      "channel": 3,
      "note": 76,
      "start": 107.9778,
      "duration": 0.7861,
      "velocity": 100,
      "chip": "ym2612"
    },
    {
      "channel": 4,
      "note": 73,
      "start": 107.9786,
      "duration": 0.7861,
      "velocity": 100,
      "chip": "ym2612"
    },
    {
      "channel": 5,
      "note": 76,
      "start": 107.9793,
      "duration": 0.1861,
      "velocity": 97,
      "chip": "ym2612"
    },
    {
      "channel": 2,
      "note": 76,
      "start": 107.9801,
      "duration": 0.7861,
      "velocity": 100,
      "chip": "ym2612"
    },
    {
      "channel": 5,
      "note": 73,
      "start": 108.166,
      "duration": 0.2039,
      "velocity": 97,
      "chip": "ym2612"
    },
    {
      "channel": 5,
      "note": 69,
      "start": 108.3705,
      "duration": 0.1905,
      "velocity": 97,
      "chip": "ym2612"
    },
    {
      "channel": 5,
      "note": 73,
      "start": 108.5615,
      "duration": 0.204,
      "velocity": 97,
      "chip": "ym2612"
    },
    {
      "channel": 0,
      "note": 73,
      "start": 108.7632,
      "duration": 1.1815,
      "velocity": 105,
      "chip": "ym2612"
    },
    {
      "channel": 1,
      "note": 42,
      "start": 108.7639,
      "duration": 0.7873,
      "velocity": 97,
      "chip": "ym2612"
    },
    {
      "channel": 3,
      "note": 81,
      "start": 108.7646,
      "duration": 0.7872,
      "velocity": 100,
      "chip": "ym2612"
    },
    {
      "channel": 4,
      "note": 78,
      "start": 108.7653,
      "duration": 0.7873,
      "velocity": 100,
      "chip": "ym2612"
    },
    {
      "channel": 5,
      "note": 78,
      "start": 108.7661,
      "duration": 0.1875,
      "velocity": 97,
      "chip": "ym2612"
    },
    {
      "channel": 2,
      "note": 81,
      "start": 108.7668,
      "duration": 0.7872,
      "velocity": 100,
      "chip": "ym2612"
    },
    {
      "channel": 5,
      "note": 73,
      "start": 108.9542,
      "duration": 0.2038,
      "velocity": 97,
      "chip": "ym2612"
    },
    {
      "channel": 5,
      "note": 69,
      "start": 109.1586,
      "duration": 0.1892,
      "velocity": 97,
      "chip": "ym2612"
    },
    {
      "channel": 5,
      "note": 73,
      "start": 109.3485,
      "duration": 0.2049,
      "velocity": 97,
      "chip": "ym2612"
    },
    {
      "channel": 1,
      "note": 40,
      "start": 109.5517,
      "duration": 0.7878,
      "velocity": 97,
      "chip": "ym2612"
    },
    {
      "channel": 3,
      "note": 80,
      "start": 109.5525,
      "duration": 0.7877,
      "velocity": 100,
      "chip": "ym2612"
    },
    {
      "channel": 4,
      "note": 76,
      "start": 109.5532,
      "duration": 0.7878,
      "velocity": 100,
      "chip": "ym2612"
    },
    {
      "channel": 5,
      "note": 78,
      "start": 109.5539,
      "duration": 0.188,
      "velocity": 97,
      "chip": "ym2612"
    },
    {
      "channel": 2,
      "note": 80,
      "start": 109.5547,
      "duration": 0.7877,
      "velocity": 100,
      "chip": "ym2612"
    },
    {
      "channel": 5,
      "note": 73,
      "start": 109.7425,
      "duration": 0.204,
      "velocity": 97,
      "chip": "ym2612"
    },
    {
      "channel": 0,
      "note": 73,
      "start": 109.9453,
      "duration": 0.3935,
      "velocity": 105,
      "chip": "ym2612"
    },
    {
      "channel": 5,
      "note": 69,
      "start": 109.9471,
      "duration": 0.1888,
      "velocity": 97,
      "chip": "ym2612"
    },
    {
      "channel": 5,
      "note": 73,
      "start": 110.1364,
      "duration": 0.2052,
      "velocity": 97,
      "chip": "ym2612"
    },
    {
      "channel": 0,
      "note": 73,
      "start": 110.3393,
      "duration": 0.3936,
      "velocity": 105,
      "chip": "ym2612"
    },
    {
      "channel": 1,
      "note": 38,
      "start": 110.34,
      "duration": 0.7886,
      "velocity": 97,
      "chip": "ym2612"
    },
    {
      "channel": 3,
      "note": 78,
      "start": 110.3407,
      "duration": 0.7885,
      "velocity": 100,
      "chip": "ym2612"
    },
    {
      "channel": 4,
      "note": 74,
      "start": 110.3415,
      "duration": 0.7885,
      "velocity": 100,
      "chip": "ym2612"
    },
    {
      "channel": 5,
      "note": 81,
      "start": 110.3423,
      "duration": 0.3925,
      "velocity": 97,
      "chip": "ym2612"
    },
    {
      "channel": 2,
      "note": 78,
      "start": 110.3443,
      "duration": 0.7872,
      "velocity": 100,
      "chip": "ym2612"
    },
    {
      "channel": 0,
      "note": 71,
      "start": 110.7336,
      "duration": 0.3941,
      "velocity": 105,
      "chip": "ym2612"
    },
    {
      "channel": 5,
      "note": 80,
      "start": 110.7354,
      "duration": 0.3954,
      "velocity": 97,
      "chip": "ym2612"
    },
    {
      "channel": 0,
      "note": 71,
      "start": 111.1285,
      "duration": 0.3927,
      "velocity": 105,
      "chip": "ym2612"
    },
    {
      "channel": 1,
      "note": 38,
      "start": 111.1292,
      "duration": 0.7869,
      "velocity": 97,
      "chip": "ym2612"
    },
    {
      "channel": 3,
      "note": 78,
      "start": 111.1299,
      "duration": 0.7868,
      "velocity": 100,
      "chip": "ym2612"
    },
    {
      "channel": 4,
      "note": 74,
      "start": 111.1306,
      "duration": 0.7869,
      "velocity": 100,
      "chip": "ym2612"
    },
    {
      "channel": 5,
      "note": 80,
      "start": 111.1314,
      "duration": 0.3917,
      "velocity": 97,
      "chip": "ym2612"
    },
    {
      "channel": 2,
      "note": 78,
      "start": 111.1322,
      "duration": 0.7869,
      "velocity": 100,
      "chip": "ym2612"
    },
    {
      "channel": 0,
      "note": 69,
      "start": 111.5219,
      "duration": 0.3934,
      "velocity": 105,
      "chip": "ym2612"
    },
    {
      "channel": 5,
      "note": 78,
      "start": 111.5237,
      "duration": 0.3946,
      "velocity": 97,
      "chip": "ym2612"
    },
    {
      "channel": 0,
      "note": 69,
      "start": 111.9159,
      "duration": 0.3948,
      "velocity": 105,
      "chip": "ym2612"
    },
    {
      "channel": 1,
      "note": 40,
      "start": 111.9166,
      "duration": 0.7876,
      "velocity": 97,
      "chip": "ym2612"
    },
    {
      "channel": 3,
      "note": 76,
      "start": 111.9174,
      "duration": 0.7875,
      "velocity": 100,
      "chip": "ym2612"
    },
    {
      "channel": 4,
      "note": 71,
      "start": 111.9182,
      "duration": 0.7876,
      "velocity": 100,
      "chip": "ym2612"
    },
    {
      "channel": 5,
      "note": 78,
      "start": 111.9189,
      "duration": 0.3938,
      "velocity": 97,
      "chip": "ym2612"
    },
    {
      "channel": 2,
      "note": 76,
      "start": 111.9196,
      "duration": 0.7875,
      "velocity": 100,
      "chip": "ym2612"
    },
    {
      "channel": 0,
      "note": 68,
      "start": 112.3114,
      "duration": 0.392,
      "velocity": 105,
      "chip": "ym2612"
    },
    {
      "channel": 5,
      "note": 76,
      "start": 112.3132,
      "duration": 0.3932,
      "velocity": 97,
      "chip": "ym2612"
    },
    {
      "channel": 0,
      "note": 69,
      "start": 112.7041,
      "duration": 0.3935,
      "velocity": 105,
      "chip": "ym2612"
    },
    {
      "channel": 1,
      "note": 40,
      "start": 112.7048,
      "duration": 0.7879,
      "velocity": 97,
      "chip": "ym2612"
    },
    {
      "channel": 3,
      "note": 76,
      "start": 112.7056,
      "duration": 0.7893,
      "velocity": 100,
      "chip": "ym2612"
    },
    {
      "channel": 4,
      "note": 71,
      "start": 112.7063,
      "duration": 0.7894,
      "velocity": 100,
      "chip": "ym2612"
    },
    {
      "channel": 5,
      "note": 78,
      "start": 112.7071,
      "duration": 0.3924,
      "velocity": 97,
      "chip": "ym2612"
    },
    {
      "channel": 2,
      "note": 76,
      "start": 112.7078,
      "duration": 0.79,
      "velocity": 100,
      "chip": "ym2612"
    },
    {
      "channel": 0,
      "note": 71,
      "start": 113.0982,
      "duration": 0.3936,
      "velocity": 105,
      "chip": "ym2612"
    },
    {
      "channel": 5,
      "note": 80,
      "start": 113.1,
      "duration": 0.3969,
      "velocity": 97,
      "chip": "ym2612"
    },
    {
      "channel": 0,
      "note": 71,
      "start": 113.4924,
      "duration": 1.1815,
      "velocity": 105,
      "chip": "ym2612"
    },
    {
      "channel": 1,
      "note": 45,
      "start": 113.4946,
      "duration": 2.7562,
      "velocity": 97,
      "chip": "ym2612"
    },
    {
      "channel": 3,
      "note": 76,
      "start": 113.4955,
      "duration": 1.1796,
      "velocity": 100,
      "chip": "ym2612"
    },
    {
      "channel": 4,
      "note": 73,
      "start": 113.4962,
      "duration": 1.1796,
      "velocity": 100,
      "chip": "ym2612"
    },
    {
      "channel": 5,
      "note": 74,
      "start": 113.4975,
      "duration": 1.1805,
      "velocity": 97,
      "chip": "ym2612"
    },
    {
      "channel": 2,
      "note": 76,
      "start": 113.4984,
      "duration": 1.1803,
      "velocity": 100,
      "chip": "ym2612"
    },
    {
      "channel": 0,
      "note": 69,
      "start": 114.6746,
      "duration": 4.3345,
      "velocity": 105,
      "chip": "ym2612"
    },
    {
      "channel": 3,
      "note": 76,
      "start": 114.6757,
      "duration": 1.1814,
      "velocity": 100,
      "chip": "ym2612"
    },
    {
      "channel": 4,
      "note": 73,
      "start": 114.6778,
      "duration": 1.18,
      "velocity": 100,
      "chip": "ym2612"
    },
    {
      "channel": 5,
      "note": 73,
      "start": 114.6786,
      "duration": 4.3332,
      "velocity": 97,
      "chip": "ym2612"
    },
    {
      "channel": 2,
      "note": 76,
      "start": 114.6793,
      "duration": 1.1797,
      "velocity": 100,
      "chip": "ym2612"
    },
    {
      "channel": 3,
      "note": 74,
      "start": 115.8577,
      "duration": 0.788,
      "velocity": 100,
      "chip": "ym2612"
    },
    {
      "channel": 4,
      "note": 71,
      "start": 115.8584,
      "duration": 0.788,
      "velocity": 100,
      "chip": "ym2612"
    },
    {
      "channel": 2,
      "note": 74,
      "start": 115.8609,
      "duration": 0.7866,
      "velocity": 100,
      "chip": "ym2612"
    },
    {
      "channel": 1,
      "note": 40,
      "start": 116.2514,
      "duration": 0.3935,
      "velocity": 97,
      "chip": "ym2612"
    },
    {
      "channel": 1,
      "note": 45,
      "start": 116.6455,
      "duration": 2.7578,
      "velocity": 97,
      "chip": "ym2612"
    },
    {
      "channel": 3,
      "note": 73,
      "start": 116.6462,
      "duration": 1.1824,
      "velocity": 100,
      "chip": "ym2612"
    },
    {
      "channel": 4,
      "note": 69,
      "start": 116.647,
      "duration": 1.1822,
      "velocity": 100,
      "chip": "ym2612"
    },
    {
      "channel": 2,
      "note": 73,
      "start": 116.6481,
      "duration": 1.182,
      "velocity": 100,
      "chip": "ym2612"
    },
    {
      "channel": 3,
      "note": 73,
      "start": 117.829,
      "duration": 1.9776,
      "velocity": 100,
      "chip": "ym2612"
    },
    {
      "channel": 4,
      "note": 69,
      "start": 117.8296,
      "duration": 1.9818,
      "velocity": 100,
      "chip": "ym2612"
    },
    {
      "channel": 2,
      "note": 73,
      "start": 117.8306,
      "duration": 1.988,
      "velocity": 100,
      "chip": "ym2612"
    },
    {
      "channel": 1,
      "note": 40,
      "start": 119.4038,
      "duration": 0.3995,
      "velocity": 97,
      "chip": "ym2612"
    },
    {
      "channel": 0,
      "note": 80,
      "start": 119.8006,
      "duration": 1.9671,
      "velocity": 98,
      "chip": "ym2612"
    },
    {
      "channel": 1,
      "note": 42,
      "start": 119.8039,
      "duration": 0.7821,
      "velocity": 97,
      "chip": "ym2612"
    },
    {
      "channel": 3,
      "note": 85,
      "start": 119.8073,
      "duration": 3.1443,
      "velocity": 100,
      "chip": "ym2612"
    },
    {
      "channel": 4,
      "note": 81,
      "start": 119.8121,
      "duration": 3.1403,
      "velocity": 100,
      "chip": "ym2612"
    },
    {
      "channel": 5,
      "note": 73,
      "start": 119.8159,
      "duration": 0.1725,
      "velocity": 94,
      "chip": "ym2612"
    },
    {
      "channel": 2,
      "note": 85,
      "start": 119.8192,
      "duration": 3.1347,
      "velocity": 100,
      "chip": "ym2612"
    },
    {
      "channel": 5,
      "note": 61,
      "start": 119.989,
      "duration": 0.2053,
      "velocity": 94,
      "chip": "ym2612"
    },
    {
      "channel": 5,
      "note": 66,
      "start": 120.1949,
      "duration": 0.1876,
      "velocity": 94,
      "chip": "ym2612"
    },
    {
      "channel": 5,
      "note": 69,
      "start": 120.3832,
      "duration": 0.2042,
      "velocity": 94,
      "chip": "ym2612"
    },
    {
      "channel": 1,
      "note": 42,
      "start": 120.5865,
      "duration": 0.7877,
      "velocity": 97,
      "chip": "ym2612"
    },
    {
      "channel": 5,
      "note": 73,
      "start": 120.5881,
      "duration": 0.1899,
      "velocity": 94,
      "chip": "ym2612"
    },
    {
      "channel": 5,
      "note": 61,
      "start": 120.7786,
      "duration": 0.2025,
      "velocity": 94,
      "chip": "ym2612"
    },
    {
      "channel": 5,
      "note": 66,
      "start": 120.9817,
      "duration": 0.1891,
      "velocity": 94,
      "chip": "ym2612"
    },
    {
      "channel": 5,
      "note": 69,
      "start": 121.1714,
      "duration": 0.2043,
      "velocity": 94,
      "chip": "ym2612"
    },
    {
      "channel": 1,
      "note": 42,
      "start": 121.3747,
      "duration": 0.7879,
      "velocity": 97,
      "chip": "ym2612"
    },
    {
      "channel": 5,
      "note": 73,
      "start": 121.3776,
      "duration": 0.1872,
      "velocity": 94,
      "chip": "ym2612"
    },
    {
      "channel": 5,
      "note": 61,
      "start": 121.5655,
      "duration": 0.2041,
      "velocity": 94,
      "chip": "ym2612"
    },
    {
      "channel": 0,
      "note": 78,
      "start": 121.7684,
      "duration": 0.3934,
      "velocity": 98,
      "chip": "ym2612"
    },
    {
      "channel": 5,
      "note": 66,
      "start": 121.7701,
      "duration": 0.1888,
      "velocity": 94,
      "chip": "ym2612"
    },
    {
      "channel": 5,
      "note": 69,
      "start": 121.9608,
      "duration": 0.2034,
      "velocity": 94,
      "chip": "ym2612"
    },
    {
      "channel": 0,
      "note": 80,
      "start": 122.1625,
      "duration": 0.3934,
      "velocity": 98,
      "chip": "ym2612"
    },
    {
      "channel": 1,
      "note": 42,
      "start": 122.1632,
      "duration": 0.7876,
      "velocity": 97,
      "chip": "ym2612"
    },
    {
      "channel": 5,
      "note": 73,
      "start": 122.1647,
      "duration": 0.1883,
      "velocity": 94,
      "chip": "ym2612"
    },
    {
      "channel": 5,
      "note": 61,
      "start": 122.3536,
      "duration": 0.2043,
      "velocity": 94,
      "chip": "ym2612"
    },
    {
      "channel": 0,
      "note": 81,
      "start": 122.5567,
      "duration": 0.3934,
      "velocity": 98,
      "chip": "ym2612"
    },
    {
      "channel": 5,
      "note": 66,
      "start": 122.5584,
      "duration": 0.1887,
      "velocity": 94,
      "chip": "ym2612"
    },
    {
      "channel": 5,
      "note": 69,
      "start": 122.7478,
      "duration": 0.2054,
      "velocity": 94,
      "chip": "ym2612"
    },
    {
      "channel": 0,
      "note": 80,
      "start": 122.9507,
      "duration": 1.1817,
      "velocity": 98,
      "chip": "ym2612"
    },
    {
      "channel": 1,
      "note": 39,
      "start": 122.9515,
      "duration": 0.7872,
      "velocity": 97,
      "chip": "ym2612"
    },
    {
      "channel": 3,
      "note": 85,
      "start": 122.9522,
      "duration": 3.1518,
      "velocity": 100,
      "chip": "ym2612"
    },
    {
      "channel": 4,
      "note": 81,
      "start": 122.953,
      "duration": 3.1518,
      "velocity": 100,
      "chip": "ym2612"
    },
    {
      "channel": 5,
      "note": 73,
      "start": 122.9538,
      "duration": 0.1874,
      "velocity": 94,
      "chip": "ym2612"
    },
    {
      "channel": 2,
      "note": 85,
      "start": 122.9546,
      "duration": 3.1518,
      "velocity": 100,
      "chip": "ym2612"
    },
    {
      "channel": 5,
      "note": 61,
      "start": 123.1418,
      "duration": 0.2042,
      "velocity": 94,
      "chip": "ym2612"
    },
    {
      "channel": 5,
      "note": 66,
      "start": 123.3466,
      "duration": 0.1888,
      "velocity": 94,
      "chip": "ym2612"
    },
    {
      "channel": 5,
      "note": 69,
      "start": 123.536,
      "duration": 0.2042,
      "velocity": 94,
      "chip": "ym2612"
    },
    {
      "channel": 1,
      "note": 39,
      "start": 123.7392,
      "duration": 0.789,
      "velocity": 97,
      "chip": "ym2612"
    },
    {
      "channel": 5,
      "note": 73,
      "start": 123.7407,
      "duration": 0.1887,
      "velocity": 94,
      "chip": "ym2612"
    },
    {
      "channel": 5,
      "note": 61,
      "start": 123.9301,
      "duration": 0.2042,
      "velocity": 94,
      "chip": "ym2612"
    },
    {
      "channel": 0,
      "note": 78,
      "start": 124.1331,
      "duration": 2.758,
      "velocity": 98,
      "chip": "ym2612"
    },
    {
      "channel": 5,
      "note": 66,
      "start": 124.1348,
      "duration": 0.1886,
      "velocity": 94,
      "chip": "ym2612"
    },
    {
      "channel": 5,
      "note": 69,
      "start": 124.3241,
      "duration": 0.2057,
      "velocity": 94,
      "chip": "ym2612"
    },
    {
      "channel": 1,
      "note": 39,
      "start": 124.5288,
      "duration": 0.7863,
      "velocity": 97,
      "chip": "ym2612"
    },
    {
      "channel": 5,
      "note": 73,
      "start": 124.5303,
      "duration": 0.1873,
      "velocity": 94,
      "chip": "ym2612"
    },
    {
      "channel": 5,
      "note": 61,
      "start": 124.7182,
      "duration": 0.2038,
      "velocity": 94,
      "chip": "ym2612"
    },
    {
      "channel": 5,
      "note": 66,
      "start": 124.9226,
      "duration": 0.19,
      "velocity": 94,
      "chip": "ym2612"
    },
    {
      "channel": 5,
      "note": 69,
      "start": 125.1132,
      "duration": 0.2034,
      "velocity": 94,
      "chip": "ym2612"
    },
    {
      "channel": 1,
      "note": 39,
      "start": 125.3156,
      "duration": 0.7877,
      "velocity": 97,
      "chip": "ym2612"
    },
    {
      "channel": 5,
      "note": 73,
      "start": 125.3172,
      "duration": 0.1887,
      "velocity": 94,
      "chip": "ym2612"
    },
    {
      "channel": 5,
      "note": 61,
      "start": 125.5065,
      "duration": 0.2051,
      "velocity": 94,
      "chip": "ym2612"
    },
    {
      "channel": 5,
      "note": 66,
      "start": 125.7123,
      "duration": 0.1877,
      "velocity": 94,
      "chip": "ym2612"
    },
    {
      "channel": 5,
      "note": 69,
      "start": 125.9005,
      "duration": 0.205,
      "velocity": 94,
      "chip": "ym2612"
    },
    {
      "channel": 1,
      "note": 38,
      "start": 126.1039,
      "duration": 0.788,
      "velocity": 97,
      "chip": "ym2612"
    },
    {
      "channel": 3,
      "note": 85,
      "start": 126.1046,
      "duration": 3.1525,
      "velocity": 100,
      "chip": "ym2612"
    },
    {
      "channel": 4,
      "note": 81,
      "start": 126.1054,
      "duration": 3.1525,
      "velocity": 100,
      "chip": "ym2612"
    },
    {
      "channel": 5,
      "note": 73,
      "start": 126.1062,
      "duration": 0.1893,
      "velocity": 94,
      "chip": "ym2612"
    },
    {
      "channel": 2,
      "note": 85,
      "start": 126.107,
      "duration": 3.1538,
      "velocity": 100,
      "chip": "ym2612"
    },
    {
      "channel": 5,
      "note": 61,
      "start": 126.296,
      "duration": 0.2024,
      "velocity": 94,
      "chip": "ym2612"
    },
    {
      "channel": 5,
      "note": 66,
      "start": 126.499,
      "duration": 0.1892,
      "velocity": 94,
      "chip": "ym2612"
    },
    {
      "channel": 5,
      "note": 69,
      "start": 126.6888,
      "duration": 0.206,
      "velocity": 94,
      "chip": "ym2612"
    },
    {
      "channel": 0,
      "note": 80,
      "start": 126.8917,
      "duration": 0.7876,
      "velocity": 98,
      "chip": "ym2612"
    },
    {
      "channel": 1,
      "note": 38,
      "start": 126.8924,
      "duration": 0.7877,
      "velocity": 97,
      "chip": "ym2612"
    },
    {
      "channel": 5,
      "note": 73,
      "start": 126.8953,
      "duration": 0.1868,
      "velocity": 94,
      "chip": "ym2612"
    },
    {
      "channel": 5,
      "note": 61,
      "start": 127.0827,
      "duration": 0.2039,
      "velocity": 94,
      "chip": "ym2612"
    },
    {
      "channel": 5,
      "note": 66,
      "start": 127.2873,
      "duration": 0.1904,
      "velocity": 94,
      "chip": "ym2612"
    },
    {
      "channel": 5,
      "note": 69,
      "start": 127.4783,
      "duration": 0.2033,
      "velocity": 94,
      "chip": "ym2612"
    },
    {
      "channel": 0,
      "note": 81,
      "start": 127.6799,
      "duration": 0.7876,
      "velocity": 98,
      "chip": "ym2612"
    },
    {
      "channel": 1,
      "note": 38,
      "start": 127.6806,
      "duration": 0.7877,
      "velocity": 97,
      "chip": "ym2612"
    },
    {
      "channel": 5,
      "note": 73,
      "start": 127.6822,
      "duration": 0.1882,
      "velocity": 94,
      "chip": "ym2612"
    },
    {
      "channel": 5,
      "note": 61,
      "start": 127.871,
      "duration": 0.2039,
      "velocity": 94,
      "chip": "ym2612"
    },
    {
      "channel": 5,
      "note": 66,
      "start": 128.0754,
      "duration": 0.1892,
      "velocity": 94,
      "chip": "ym2612"
    },
    {
      "channel": 5,
      "note": 69,
      "start": 128.2652,
      "duration": 0.2046,
      "velocity": 94,
      "chip": "ym2612"
    },
    {
      "channel": 0,
      "note": 80,
      "start": 128.4681,
      "duration": 0.7875,
      "velocity": 98,
      "chip": "ym2612"
    },
    {
      "channel": 1,
      "note": 38,
      "start": 128.4688,
      "duration": 0.7877,
      "velocity": 97,
      "chip": "ym2612"
    },
    {
      "channel": 5,
      "note": 73,
      "start": 128.4704,
      "duration": 0.1882,
      "velocity": 94,
      "chip": "ym2612"
    },
    {
      "channel": 5,
      "note": 61,
      "start": 128.6591,
      "duration": 0.2039,
      "velocity": 94,
      "chip": "ym2612"
    },
    {
      "channel": 5,
      "note": 66,
      "start": 128.8637,
      "duration": 0.1891,
      "velocity": 94,
      "chip": "ym2612"
    },
    {
      "channel": 5,
      "note": 69,
      "start": 129.0534,
      "duration": 0.2053,
      "velocity": 94,
      "chip": "ym2612"
    },
    {
      "channel": 0,
      "note": 78,
      "start": 129.2563,
      "duration": 0.7882,
      "velocity": 98,
      "chip": "ym2612"
    },
    {
      "channel": 1,
      "note": 37,
      "start": 129.2571,
      "duration": 0.7883,
      "velocity": 97,
      "chip": "ym2612"
    },
    {
      "channel": 3,
      "note": 83,
      "start": 129.2578,
      "duration": 3.1536,
      "velocity": 100,
      "chip": "ym2612"
    },
    {
      "channel": 4,
      "note": 80,
      "start": 129.2585,
      "duration": 3.1537,
      "velocity": 100,
      "chip": "ym2612"
    },
    {
      "channel": 5,
      "note": 71,
      "start": 129.2607,
      "duration": 0.1861,
      "velocity": 94,
      "chip": "ym2612"
    },
    {
      "channel": 2,
      "note": 83,
      "start": 129.2614,
      "duration": 3.1523,
      "velocity": 100,
      "chip": "ym2612"
    },
    {
      "channel": 5,
      "note": 59,
      "start": 129.4474,
      "duration": 0.2038,
      "velocity": 94,
      "chip": "ym2612"
    },
    {
      "channel": 5,
      "note": 64,
      "start": 129.6518,
      "duration": 0.1892,
      "velocity": 94,
      "chip": "ym2612"
    },
    {
      "channel": 5,
      "note": 68,
      "start": 129.8417,
      "duration": 0.2052,
      "velocity": 94,
      "chip": "ym2612"
    },
    {
      "channel": 0,
      "note": 80,
      "start": 130.0452,
      "duration": 0.3927,
      "velocity": 98,
      "chip": "ym2612"
    },
    {
      "channel": 1,
      "note": 37,
      "start": 130.0459,
      "duration": 0.7865,
      "velocity": 97,
      "chip": "ym2612"
    },
    {
      "channel": 5,
      "note": 71,
      "start": 130.0474,
      "duration": 0.1875,
      "velocity": 94,
      "chip": "ym2612"
    },
    {
      "channel": 5,
      "note": 59,
      "start": 130.2355,
      "duration": 0.2043,
      "velocity": 94,
      "chip": "ym2612"
    },
    {
      "channel": 0,
      "note": 76,
      "start": 130.4387,
      "duration": 1.9698,
      "velocity": 98,
      "chip": "ym2612"
    },
    {
      "channel": 5,
      "note": 64,
      "start": 130.4404,
      "duration": 0.1888,
      "velocity": 94,
      "chip": "ym2612"
    },
    {
      "channel": 5,
      "note": 68,
      "start": 130.6299,
      "duration": 0.2041,
      "velocity": 94,
      "chip": "ym2612"
    },
    {
      "channel": 1,
      "note": 37,
      "start": 130.833,
      "duration": 0.7877,
      "velocity": 97,
      "chip": "ym2612"
    },
    {
      "channel": 5,
      "note": 71,
      "start": 130.8346,
      "duration": 0.1889,
      "velocity": 94,
      "chip": "ym2612"
    },
    {
      "channel": 5,
      "note": 59,
      "start": 131.0241,
      "duration": 0.2049,
      "velocity": 94,
      "chip": "ym2612"
    },
    {
      "channel": 5,
      "note": 64,
      "start": 131.2295,
      "duration": 0.1879,
      "velocity": 94,
      "chip": "ym2612"
    },
    {
      "channel": 5,
      "note": 68,
      "start": 131.418,
      "duration": 0.2042,
      "velocity": 94,
      "chip": "ym2612"
    },
    {
      "channel": 1,
      "note": 37,
      "start": 131.6212,
      "duration": 0.7881,
      "velocity": 97,
      "chip": "ym2612"
    },
    {
      "channel": 5,
      "note": 71,
      "start": 131.6227,
      "duration": 0.19,
      "velocity": 94,
      "chip": "ym2612"
    },
    {
      "channel": 5,
      "note": 59,
      "start": 131.8133,
      "duration": 0.2025,
      "velocity": 94,
      "chip": "ym2612"
    },
    {
      "channel": 5,
      "note": 64,
      "start": 132.0164,
      "duration": 0.1892,
      "velocity": 94,
      "chip": "ym2612"
    },
    {
      "channel": 5,
      "note": 68,
      "start": 132.2062,
      "duration": 0.2068,
      "velocity": 94,
      "chip": "ym2612"
    },
    {
      "channel": 0,
      "note": 76,
      "start": 132.4091,
      "duration": 1.9698,
      "velocity": 98,
      "chip": "ym2612"
    },
    {
      "channel": 1,
      "note": 36,
      "start": 132.4112,
      "duration": 0.7859,
      "velocity": 97,
      "chip": "ym2612"
    },
    {
      "channel": 3,
      "note": 83,
      "start": 132.412,
      "duration": 3.1508,
      "velocity": 100,
      "chip": "ym2612"
    },
    {
      "channel": 4,
      "note": 79,
      "start": 132.4128,
      "duration": 3.1508,
      "velocity": 100,
      "chip": "ym2612"
    },
    {
      "channel": 5,
      "note": 71,
      "start": 132.4136,
      "duration": 0.186,
      "velocity": 94,
      "chip": "ym2612"
    },
    {
      "channel": 2,
      "note": 83,
      "start": 132.4144,
      "duration": 3.1508,
      "velocity": 100,
      "chip": "ym2612"
    },
    {
      "channel": 5,
      "note": 59,
      "start": 132.6002,
      "duration": 0.2038,
      "velocity": 94,
      "chip": "ym2612"
    },
    {
      "channel": 5,
      "note": 64,
      "start": 132.8046,
      "duration": 0.1906,
      "velocity": 94,
      "chip": "ym2612"
    },
    {
      "channel": 5,
      "note": 67,
      "start": 132.9959,
      "duration": 0.2028,
      "velocity": 94,
      "chip": "ym2612"
    },
    {
      "channel": 1,
      "note": 36,
      "start": 133.1977,
      "duration": 0.7876,
      "velocity": 97,
      "chip": "ym2612"
    },
    {
      "channel": 5,
      "note": 71,
      "start": 133.1992,
      "duration": 0.1887,
      "velocity": 94,
      "chip": "ym2612"
    },
    {
      "channel": 5,
      "note": 59,
      "start": 133.3885,
      "duration": 0.2038,
      "velocity": 94,
      "chip": "ym2612"
    },
    {
      "channel": 5,
      "note": 64,
      "start": 133.5943,
      "duration": 0.1878,
      "velocity": 94,
      "chip": "ym2612"
    },
    {
      "channel": 5,
      "note": 67,
      "start": 133.7826,
      "duration": 0.2042,
      "velocity": 94,
      "chip": "ym2612"
    },
    {
      "channel": 1,
      "note": 36,
      "start": 133.9859,
      "duration": 0.788,
      "velocity": 97,
      "chip": "ym2612"
    },
    {
      "channel": 5,
      "note": 71,
      "start": 133.9874,
      "duration": 0.19,
      "velocity": 94,
      "chip": "ym2612"
    },
    {
      "channel": 5,
      "note": 59,
      "start": 134.178,
      "duration": 0.2027,
      "velocity": 94,
      "chip": "ym2612"
    },
    {
      "channel": 0,
      "note": 76,
      "start": 134.3795,
      "duration": 0.3936,
      "velocity": 98,
      "chip": "ym2612"
    },
    {
      "channel": 5,
      "note": 64,
      "start": 134.3813,
      "duration": 0.1889,
      "velocity": 94,
      "chip": "ym2612"
    },
    {
      "channel": 5,
      "note": 67,
      "start": 134.5707,
      "duration": 0.2047,
      "velocity": 94,
      "chip": "ym2612"
    },
    {
      "channel": 0,
      "note": 78,
      "start": 134.7738,
      "duration": 0.3934,
      "velocity": 98,
      "chip": "ym2612"
    },
    {
      "channel": 1,
      "note": 36,
      "start": 134.7745,
      "duration": 0.7876,
      "velocity": 97,
      "chip": "ym2612"
    },
    {
      "channel": 5,
      "note": 71,
      "start": 134.7774,
      "duration": 0.1868,
      "velocity": 94,
      "chip": "ym2612"
    },
    {
      "channel": 5,
      "note": 59,
      "start": 134.9648,
      "duration": 0.2042,
      "velocity": 94,
      "chip": "ym2612"
    },
    {
      "channel": 0,
      "note": 79,
      "start": 135.1678,
      "duration": 0.3934,
      "velocity": 98,
      "chip": "ym2612"
    },
    {
      "channel": 5,
      "note": 64,
      "start": 135.1696,
      "duration": 0.1888,
      "velocity": 94,
      "chip": "ym2612"
    },
    {
      "channel": 5,
      "note": 67,
      "start": 135.3589,
      "duration": 0.2055,
      "velocity": 94,
      "chip": "ym2612"
    },
    {
      "channel": 0,
      "note": 78,
      "start": 135.562,
      "duration": 1.5757,
      "velocity": 98,
      "chip": "ym2612"
    },
    {
      "channel": 1,
      "note": 35,
      "start": 135.5626,
      "duration": 0.7872,
      "velocity": 97,
      "chip": "ym2612"
    },
    {
      "channel": 3,
      "note": 81,
      "start": 135.5634,
      "duration": 3.1522,
      "velocity": 100,
      "chip": "ym2612"
    },
    {
      "channel": 4,
      "note": 78,
      "start": 135.5641,
      "duration": 3.1522,
      "velocity": 100,
      "chip": "ym2612"
    },
    {
      "channel": 5,
      "note": 69,
      "start": 135.5649,
      "duration": 0.1876,
      "velocity": 94,
      "chip": "ym2612"
    },
    {
      "channel": 2,
      "note": 81,
      "start": 135.5657,
      "duration": 3.1522,
      "velocity": 100,
      "chip": "ym2612"
    },
    {
      "channel": 5,
      "note": 59,
      "start": 135.753,
      "duration": 0.2038,
      "velocity": 94,
      "chip": "ym2612"
    },
    {
      "channel": 5,
      "note": 62,
      "start": 135.9574,
      "duration": 0.1893,
      "velocity": 94,
      "chip": "ym2612"
    },
    {
      "channel": 5,
      "note": 66,
      "start": 136.1472,
      "duration": 0.2041,
      "velocity": 94,
      "chip": "ym2612"
    },
    {
      "channel": 1,
      "note": 35,
      "start": 136.3504,
      "duration": 0.788,
      "velocity": 97,
      "chip": "ym2612"
    },
    {
      "channel": 5,
      "note": 69,
      "start": 136.352,
      "duration": 0.1888,
      "velocity": 94,
      "chip": "ym2612"
    },
    {
      "channel": 5,
      "note": 59,
      "start": 136.5413,
      "duration": 0.2047,
      "velocity": 94,
      "chip": "ym2612"
    },
    {
      "channel": 5,
      "note": 62,
      "start": 136.7466,
      "duration": 0.1882,
      "velocity": 94,
      "chip": "ym2612"
    },
    {
      "channel": 5,
      "note": 66,
      "start": 136.9354,
      "duration": 0.2046,
      "velocity": 94,
      "chip": "ym2612"
    },
    {
      "channel": 0,
      "note": 71,
      "start": 137.1383,
      "duration": 1.5757,
      "velocity": 98,
      "chip": "ym2612"
    },
    {
      "channel": 1,
      "note": 35,
      "start": 137.139,
      "duration": 0.7885,
      "velocity": 97,
      "chip": "ym2612"
    },
    {
      "channel": 5,
      "note": 69,
      "start": 137.1406,
      "duration": 0.1887,
      "velocity": 94,
      "chip": "ym2612"
    },
    {
      "channel": 5,
      "note": 59,
      "start": 137.3298,
      "duration": 0.2034,
      "velocity": 94,
      "chip": "ym2612"
    },
    {
      "channel": 5,
      "note": 62,
      "start": 137.5338,
      "duration": 0.1892,
      "velocity": 94,
      "chip": "ym2612"
    },
    {
      "channel": 5,
      "note": 66,
      "start": 137.7237,
      "duration": 0.2055,
      "velocity": 94,
      "chip": "ym2612"
    },
    {
      "channel": 1,
      "note": 35,
      "start": 137.9282,
      "duration": 0.7867,
      "velocity": 97,
      "chip": "ym2612"
    },
    {
      "channel": 5,
      "note": 69,
      "start": 137.9297,
      "duration": 0.1874,
      "velocity": 94,
      "chip": "ym2612"
    },
    {
      "channel": 5,
      "note": 59,
      "start": 138.1177,
      "duration": 0.2038,
      "velocity": 94,
      "chip": "ym2612"
    },
    {
      "channel": 5,
      "note": 62,
      "start": 138.322,
      "duration": 0.1905,
      "velocity": 94,
      "chip": "ym2612"
    },
    {
      "channel": 5,
      "note": 66,
      "start": 138.5132,
      "duration": 0.204,
      "velocity": 94,
      "chip": "ym2612"
    },
    {
      "channel": 0,
      "note": 78,
      "start": 138.7147,
      "duration": 1.9699,
      "velocity": 98,
      "chip": "ym2612"
    },
    {
      "channel": 1,
      "note": 40,
      "start": 138.7154,
      "duration": 0.7873,
      "velocity": 97,
      "chip": "ym2612"
    },
    {
      "channel": 3,
      "note": 86,
      "start": 138.7161,
      "duration": 3.1548,
      "velocity": 100,
      "chip": "ym2612"
    },
    {
      "channel": 4,
      "note": 81,
      "start": 138.7169,
      "duration": 3.1575,
      "velocity": 100,
      "chip": "ym2612"
    },
    {
      "channel": 5,
      "note": 69,
      "start": 138.7177,
      "duration": 0.1875,
      "velocity": 94,
      "chip": "ym2612"
    },
    {
      "channel": 2,
      "note": 86,
      "start": 138.7185,
      "duration": 3.1613,
      "velocity": 100,
      "chip": "ym2612"
    },
    {
      "channel": 5,
      "note": 59,
      "start": 138.9058,
      "duration": 0.2052,
      "velocity": 94,
      "chip": "ym2612"
    },
    {
      "channel": 5,
      "note": 62,
      "start": 139.1116,
      "duration": 0.1879,
      "velocity": 94,
      "chip": "ym2612"
    },
    {
      "channel": 5,
      "note": 66,
      "start": 139.3,
      "duration": 0.2042,
      "velocity": 94,
      "chip": "ym2612"
    },
    {
      "channel": 1,
      "note": 40,
      "start": 139.5033,
      "duration": 0.7876,
      "velocity": 97,
      "chip": "ym2612"
    },
    {
      "channel": 5,
      "note": 69,
      "start": 139.5048,
      "duration": 0.19,
      "velocity": 94,
      "chip": "ym2612"
    },
    {
      "channel": 5,
      "note": 59,
      "start": 139.6955,
      "duration": 0.2024,
      "velocity": 94,
      "chip": "ym2612"
    },
    {
      "channel": 5,
      "note": 62,
      "start": 139.8985,
      "duration": 0.1891,
      "velocity": 94,
      "chip": "ym2612"
    },
    {
      "channel": 5,
      "note": 66,
      "start": 140.0881,
      "duration": 0.2043,
      "velocity": 94,
      "chip": "ym2612"
    },
    {
      "channel": 1,
      "note": 40,
      "start": 140.2915,
      "duration": 0.788,
      "velocity": 97,
      "chip": "ym2612"
    },
    {
      "channel": 5,
      "note": 69,
      "start": 140.2944,
      "duration": 0.1873,
      "velocity": 94,
      "chip": "ym2612"
    },
    {
      "channel": 5,
      "note": 59,
      "start": 140.4823,
      "duration": 0.2042,
      "velocity": 94,
      "chip": "ym2612"
    },
    {
      "channel": 0,
      "note": 81,
      "start": 140.6853,
      "duration": 0.3934,
      "velocity": 98,
      "chip": "ym2612"
    },
    {
      "channel": 5,
      "note": 62,
      "start": 140.6871,
      "duration": 0.1887,
      "velocity": 94,
      "chip": "ym2612"
    },
    {
      "channel": 5,
      "note": 66,
      "start": 140.8776,
      "duration": 0.2034,
      "velocity": 94,
      "chip": "ym2612"
    },
    {
      "channel": 0,
      "note": 83,
      "start": 141.0793,
      "duration": 0.3934,
      "velocity": 98,
      "chip": "ym2612"
    },
    {
      "channel": 1,
      "note": 40,
      "start": 141.0801,
      "duration": 0.7875,
      "velocity": 97,
      "chip": "ym2612"
    },
    {
      "channel": 5,
      "note": 69,
      "start": 141.0816,
      "duration": 0.1882,
      "velocity": 94,
      "chip": "ym2612"
    },
    {
      "channel": 5,
      "note": 59,
      "start": 141.2704,
      "duration": 0.2043,
      "velocity": 94,
      "chip": "ym2612"
    },
    {
      "channel": 0,
      "note": 81,
      "start": 141.4734,
      "duration": 0.3933,
      "velocity": 98,
      "chip": "ym2612"
    },
    {
      "channel": 5,
      "note": 62,
      "start": 141.4752,
      "duration": 0.1887,
      "velocity": 94,
      "chip": "ym2612"
    },
    {
      "channel": 5,
      "note": 66,
      "start": 141.6645,
      "duration": 0.2107,
      "velocity": 94,
      "chip": "ym2612"
    },
    {
      "channel": 0,
      "note": 81,
      "start": 141.8675,
      "duration": 1.1817,
      "velocity": 98,
      "chip": "ym2612"
    },
    {
      "channel": 1,
      "note": 40,
      "start": 141.8682,
      "duration": 1.1817,
      "velocity": 97,
      "chip": "ym2612"
    },
    {
      "channel": 3,
      "note": 88,
      "start": 141.8716,
      "duration": 6.706,
      "velocity": 100,
      "chip": "ym2612"
    },
    {
      "channel": 4,
      "note": 83,
      "start": 141.875,
      "duration": 6.7034,
      "velocity": 100,
      "chip": "ym2612"
    },
    {
      "channel": 5,
      "note": 52,
      "start": 141.8758,
      "duration": 3.1461,
      "velocity": 94,
      "chip": "ym2612"
    },
    {
      "channel": 2,
      "note": 88,
      "start": 141.8805,
      "duration": 6.7047,
      "velocity": 100,
      "chip": "ym2612"
    },
    {
      "channel": 0,
      "note": 80,
      "start": 143.0498,
      "duration": 5.5198,
      "velocity": 106,
      "chip": "ym2612"
    },
    {
      "channel": 1,
      "note": 40,
      "start": 143.0505,
      "duration": 1.1814,
      "velocity": 97,
      "chip": "ym2612"
    },
    {
      "channel": 1,
      "note": 35,
      "start": 144.2325,
      "duration": 0.7876,
      "velocity": 97,
      "chip": "ym2612"
    },
    {
      "channel": 1,
      "note": 40,
      "start": 145.0207,
      "duration": 1.1817,
      "velocity": 97,
      "chip": "ym2612"
    },
    {
      "channel": 1,
      "note": 40,
      "start": 146.2028,
      "duration": 2.37,
      "velocity": 97,
      "chip": "ym2612"
    },
    {
      "channel": 0,
      "note": 62,
      "start": 148.5702,
      "duration": 0.3909,
      "velocity": 106,
      "chip": "ym2612"
    },
    {
      "channel": 1,
      "note": 45,
      "start": 148.5734,
      "duration": 2.7526,
      "velocity": 97,
      "chip": "ym2612"
    },
    {
      "channel": 3,
      "note": 69,
      "start": 148.5782,
      "duration": 3.1427,
      "velocity": 100,
      "chip": "ym2612"
    },
    {
      "channel": 5,
      "note": 59,
      "start": 148.5825,
      "duration": 0.7737,
      "velocity": 106,
      "chip": "ym2612"
    },
    {
      "channel": 2,
      "note": 69,
      "start": 148.5857,
      "duration": 3.1369,
      "velocity": 100,
      "chip": "ym2612"
    },
    {
      "channel": 0,
      "note": 57,
      "start": 148.9617,
      "duration": 0.3931,
      "velocity": 106,
      "chip": "ym2612"
    },
    {
      "channel": 0,
      "note": 62,
      "start": 149.3553,
      "duration": 0.3935,
      "velocity": 106,
      "chip": "ym2612"
    },
    {
      "channel": 5,
      "note": 59,
      "start": 149.3568,
      "duration": 0.7889,
      "velocity": 106,
      "chip": "ym2612"
    },
    {
      "channel": 0,
      "note": 57,
      "start": 149.7494,
      "duration": 0.3949,
      "velocity": 106,
      "chip": "ym2612"
    },
    {
      "channel": 0,
      "note": 62,
      "start": 150.1448,
      "duration": 0.3922,
      "velocity": 106,
      "chip": "ym2612"
    },
    {
      "channel": 5,
      "note": 59,
      "start": 150.1463,
      "duration": 0.7863,
      "velocity": 106,
      "chip": "ym2612"
    },
    {
      "channel": 0,
      "note": 57,
      "start": 150.5376,
      "duration": 0.3934,
      "velocity": 106,
      "chip": "ym2612"
    },
    {
      "channel": 0,
      "note": 62,
      "start": 150.9317,
      "duration": 0.3936,
      "velocity": 106,
      "chip": "ym2612"
    },
    {
      "channel": 5,
      "note": 59,
      "start": 150.9332,
      "duration": 0.7887,
      "velocity": 106,
      "chip": "ym2612"
    },
    {
      "channel": 0,
      "note": 57,
      "start": 151.3259,
      "duration": 0.3935,
      "velocity": 106,
      "chip": "ym2612"
    },
    {
      "channel": 1,
      "note": 40,
      "start": 151.3279,
      "duration": 0.3923,
      "velocity": 97,
      "chip": "ym2612"
    },
    {
      "channel": 0,
      "note": 64,
      "start": 151.72,
      "duration": 0.3935,
      "velocity": 106,
      "chip": "ym2612"
    },
    {
      "channel": 1,
      "note": 45,
      "start": 151.7208,
      "duration": 2.758,
      "velocity": 97,
      "chip": "ym2612"
    },
    {
      "channel": 3,
      "note": 69,
      "start": 151.7214,
      "duration": 3.1523,
      "velocity": 100,
      "chip": "ym2612"
    },
    {
      "channel": 5,
      "note": 61,
      "start": 151.7224,
      "duration": 0.7866,
      "velocity": 106,
      "chip": "ym2612"
    },
    {
      "channel": 2,
      "note": 69,
      "start": 151.7231,
      "duration": 3.1523,
      "velocity": 100,
      "chip": "ym2612"
    },
    {
      "channel": 0,
      "note": 57,
      "start": 152.114,
      "duration": 0.3934,
      "velocity": 106,
      "chip": "ym2612"
    },
    {
      "channel": 0,
      "note": 64,
      "start": 152.5081,
      "duration": 0.3936,
      "velocity": 106,
      "chip": "ym2612"
    },
    {
      "channel": 5,
      "note": 61,
      "start": 152.511,
      "duration": 0.7863,
      "velocity": 106,
      "chip": "ym2612"
    },
    {
      "channel": 0,
      "note": 57,
      "start": 152.9023,
      "duration": 0.3934,
      "velocity": 106,
      "chip": "ym2612"
    },
    {
      "channel": 0,
      "note": 64,
      "start": 153.2963,
      "duration": 0.3936,
      "velocity": 106,
      "chip": "ym2612"
    },
    {
      "channel": 5,
      "note": 61,
      "start": 153.2978,
      "duration": 0.7876,
      "velocity": 106,
      "chip": "ym2612"
    },
    {
      "channel": 0,
      "note": 57,
      "start": 153.6904,
      "duration": 0.3935,
      "velocity": 106,
      "chip": "ym2612"
    },
    {
      "channel": 0,
      "note": 64,
      "start": 154.0845,
      "duration": 0.3936,
      "velocity": 106,
      "chip": "ym2612"
    },
    {
      "channel": 5,
      "note": 61,
      "start": 154.0861,
      "duration": 0.7885,
      "velocity": 106,
      "chip": "ym2612"
    },
    {
      "channel": 0,
      "note": 57,
      "start": 154.4787,
      "duration": 0.3934,
      "velocity": 106,
      "chip": "ym2612"
    },
    {
      "channel": 1,
      "note": 40,
      "start": 154.4794,
      "duration": 0.3936,
      "velocity": 97,
      "chip": "ym2612"
    },
    {
      "channel": 0,
      "note": 62,
      "start": 154.8727,
      "duration": 0.3935,
      "velocity": 106,
      "chip": "ym2612"
    },
    {
      "channel": 1,
      "note": 45,
      "start": 154.8735,
      "duration": 2.7581,
      "velocity": 97,
      "chip": "ym2612"
    },
    {
      "channel": 3,
      "note": 69,
      "start": 154.8741,
      "duration": 3.1536,
      "velocity": 100,
      "chip": "ym2612"
    },
    {
      "channel": 5,
      "note": 59,
      "start": 154.8752,
      "duration": 0.7875,
      "velocity": 106,
      "chip": "ym2612"
    },
    {
      "channel": 2,
      "note": 69,
      "start": 154.8758,
      "duration": 3.1536,
      "velocity": 100,
      "chip": "ym2612"
    },
    {
      "channel": 0,
      "note": 57,
      "start": 155.2668,
      "duration": 0.3943,
      "velocity": 106,
      "chip": "ym2612"
    },
    {
      "channel": 0,
      "note": 62,
      "start": 155.6617,
      "duration": 0.3927,
      "velocity": 106,
      "chip": "ym2612"
    },
    {
      "channel": 5,
      "note": 59,
      "start": 155.6633,
      "duration": 0.7868,
      "velocity": 106,
      "chip": "ym2612"
    },
    {
      "channel": 0,
      "note": 57,
      "start": 156.0551,
      "duration": 0.3935,
      "velocity": 106,
      "chip": "ym2612"
    },
    {
      "channel": 0,
      "note": 62,
      "start": 156.4492,
      "duration": 0.3935,
      "velocity": 106,
      "chip": "ym2612"
    },
    {
      "channel": 5,
      "note": 59,
      "start": 156.4507,
      "duration": 0.7876,
      "velocity": 106,
      "chip": "ym2612"
    },
    {
      "channel": 0,
      "note": 57,
      "start": 156.8445,
      "duration": 0.3922,
      "velocity": 106,
      "chip": "ym2612"
    },
    {
      "channel": 0,
      "note": 62,
      "start": 157.2373,
      "duration": 0.3936,
      "velocity": 106,
      "chip": "ym2612"
    },
    {
      "channel": 5,
      "note": 59,
      "start": 157.2388,
      "duration": 0.7899,
      "velocity": 106,
      "chip": "ym2612"
    },
    {
      "channel": 0,
      "note": 57,
      "start": 157.6315,
      "duration": 0.3934,
      "velocity": 106,
      "chip": "ym2612"
    },
    {
      "channel": 1,
      "note": 40,
      "start": 157.6322,
      "duration": 0.3936,
      "velocity": 97,
      "chip": "ym2612"
    },
    {
      "channel": 0,
      "note": 64,
      "start": 158.0255,
      "duration": 0.3936,
      "velocity": 106,
      "chip": "ym2612"
    },
    {
      "channel": 1,
      "note": 45,
      "start": 158.0276,
      "duration": 3.157,
      "velocity": 97,
      "chip": "ym2612"
    },
    {
      "channel": 3,
      "note": 69,
      "start": 158.0282,
      "duration": 3.1573,
      "velocity": 100,
      "chip": "ym2612"
    },
    {
      "channel": 5,
      "note": 61,
      "start": 158.0293,
      "duration": 0.7854,
      "velocity": 106,
      "chip": "ym2612"
    },
    {
      "channel": 2,
      "note": 69,
      "start": 158.0299,
      "duration": 3.1654,
      "velocity": 100,
      "chip": "ym2612"
    },
    {
      "channel": 0,
      "note": 57,
      "start": 158.4196,
      "duration": 0.3935,
      "velocity": 106,
      "chip": "ym2612"
    },
    {
      "channel": 0,
      "note": 64,
      "start": 158.8137,
      "duration": 0.3936,
      "velocity": 106,
      "chip": "ym2612"
    },
    {
      "channel": 5,
      "note": 61,
      "start": 158.8152,
      "duration": 0.7876,
      "velocity": 106,
      "chip": "ym2612"
    },
    {
      "channel": 0,
      "note": 57,
      "start": 159.2079,
      "duration": 0.3934,
      "velocity": 106,
      "chip": "ym2612"
    },
    {
      "channel": 0,
      "note": 64,
      "start": 159.6019,
      "duration": 1.5794,
      "velocity": 106,
      "chip": "ym2612"
    },
    {
      "channel": 5,
      "note": 61,
      "start": 159.6034,
      "duration": 1.591,
      "velocity": 95,
      "chip": "ym2612"
    },
    {
      "channel": 0,
      "note": 73,
      "start": 161.1819,
      "duration": 1.5722,
      "velocity": 106,
      "chip": "ym2612"
    },
    {
      "channel": 1,
      "note": 45,
      "start": 161.1853,
      "duration": 1.5696,
      "velocity": 97,
      "chip": "ym2612"
    },
    {
      "channel": 3,
      "note": 81,
      "start": 161.1862,
      "duration": 1.5694,
      "velocity": 100,
      "chip": "ym2612"
    },
    {
      "channel": 4,
      "note": 76,
      "start": 161.1896,
      "duration": 1.5667,
      "velocity": 100,
      "chip": "ym2612"
    },
    {
      "channel": 5,
      "note": 76,
      "start": 161.195,
      "duration": 0.3782,
      "velocity": 95,
      "chip": "ym2612"
    },
    {
      "channel": 2,
      "note": 81,
      "start": 161.1959,
      "duration": 1.5619,
      "velocity": 100,
      "chip": "ym2612"
    },
    {
      "channel": 5,
      "note": 73,
      "start": 161.5738,
      "duration": 0.3937,
      "velocity": 95,
      "chip": "ym2612"
    },
    {
      "channel": 5,
      "note": 76,
      "start": 161.9681,
      "duration": 0.3945,
      "velocity": 95,
      "chip": "ym2612"
    },
    {
      "channel": 5,
      "note": 81,
      "start": 162.3632,
      "duration": 0.3939,
      "velocity": 95,
      "chip": "ym2612"
    },
    {
      "channel": 0,
      "note": 74,
      "start": 162.7548,
      "duration": 0.5832,
      "velocity": 106,
      "chip": "ym2612"
    },
    {
      "channel": 1,
      "note": 44,
      "start": 162.7554,
      "duration": 1.5759,
      "velocity": 97,
      "chip": "ym2612"
    },
    {
      "channel": 3,
      "note": 80,
      "start": 162.7562,
      "duration": 1.5758,
      "velocity": 100,
      "chip": "ym2612"
    },
    {
      "channel": 4,
      "note": 76,
      "start": 162.7569,
      "duration": 1.5759,
      "velocity": 100,
      "chip": "ym2612"
    },
    {
      "channel": 5,
      "note": 80,
      "start": 162.7577,
      "duration": 0.392,
      "velocity": 95,
      "chip": "ym2612"
    },
    {
      "channel": 2,
      "note": 80,
      "start": 162.7584,
      "duration": 1.5758,
      "velocity": 100,
      "chip": "ym2612"
    },
    {
      "channel": 5,
      "note": 76,
      "start": 163.1502,
      "duration": 0.3949,
      "velocity": 95,
      "chip": "ym2612"
    },
    {
      "channel": 0,
      "note": 73,
      "start": 163.3386,
      "duration": 0.5978,
      "velocity": 106,
      "chip": "ym2612"
    },
    {
      "channel": 5,
      "note": 71,
      "start": 163.5457,
      "duration": 0.3926,
      "velocity": 95,
      "chip": "ym2612"
    },
    {
      "channel": 0,
      "note": 68,
      "start": 163.9371,
      "duration": 0.3935,
      "velocity": 106,
      "chip": "ym2612"
    },
    {
      "channel": 5,
      "note": 76,
      "start": 163.9388,
      "duration": 0.3947,
      "velocity": 95,
      "chip": "ym2612"
    },
    {
      "channel": 0,
      "note": 71,
      "start": 164.3312,
      "duration": 1.1817,
      "velocity": 106,
      "chip": "ym2612"
    },
    {
      "channel": 1,
      "note": 42,
      "start": 164.3319,
      "duration": 1.5758,
      "velocity": 97,
      "chip": "ym2612"
    },
    {
      "channel": 3,
      "note": 78,
      "start": 164.3326,
      "duration": 1.5758,
      "velocity": 100,
      "chip": "ym2612"
    },
    {
      "channel": 4,
      "note": 73,
      "start": 164.3334,
      "duration": 1.5758,
      "velocity": 100,
      "chip": "ym2612"
    },
    {
      "channel": 5,
      "note": 78,
      "start": 164.3341,
      "duration": 0.3932,
      "velocity": 95,
      "chip": "ym2612"
    },
    {
      "channel": 2,
      "note": 78,
      "start": 164.3348,
      "duration": 1.5772,
      "velocity": 100,
      "chip": "ym2612"
    },
    {
      "channel": 5,
      "note": 73,
      "start": 164.728,
      "duration": 0.3921,
      "velocity": 95,
      "chip": "ym2612"
    },
    {
      "channel": 5,
      "note": 78,
      "start": 165.1207,
      "duration": 0.3939,
      "velocity": 95,
      "chip": "ym2612"
    },
    {
      "channel": 0,
      "note": 69,
      "start": 165.5134,
      "duration": 0.1893,
      "velocity": 106,
      "chip": "ym2612"
    },
    {
      "channel": 5,
      "note": 81,
      "start": 165.5152,
      "duration": 0.3961,
      "velocity": 95,
      "chip": "ym2612"
    },
    {
      "channel": 0,
      "note": 68,
      "start": 165.7032,
      "duration": 0.2037,
      "velocity": 106,
      "chip": "ym2612"
    },
    {
      "channel": 0,
      "note": 69,
      "start": 165.9075,
      "duration": 0.7876,
      "velocity": 106,
      "chip": "ym2612"
    },
    {
      "channel": 1,
      "note": 40,
      "start": 165.9083,
      "duration": 1.5758,
      "velocity": 97,
      "chip": "ym2612"
    },
    {
      "channel": 3,
      "note": 76,
      "start": 165.909,
      "duration": 0.787,
      "velocity": 100,
      "chip": "ym2612"
    },
    {
      "channel": 4,
      "note": 73,
      "start": 165.9111,
      "duration": 0.7857,
      "velocity": 100,
      "chip": "ym2612"
    },
    {
      "channel": 5,
      "note": 76,
      "start": 165.9119,
      "duration": 0.3905,
      "velocity": 95,
      "chip": "ym2612"
    },
    {
      "channel": 2,
      "note": 76,
      "start": 165.9126,
      "duration": 0.7857,
      "velocity": 100,
      "chip": "ym2612"
    },
    {
      "channel": 5,
      "note": 69,
      "start": 166.303,
      "duration": 0.3945,
      "velocity": 95,
      "chip": "ym2612"
    },
    {
      "channel": 0,
      "note": 69,
      "start": 166.6955,
      "duration": 0.3937,
      "velocity": 106,
      "chip": "ym2612"
    },
    {
      "channel": 3,
      "note": 78,
      "start": 166.6967,
      "duration": 0.3937,
      "velocity": 100,
      "chip": "ym2612"
    },
    {
      "channel": 4,
      "note": 73,
      "start": 166.6974,
      "duration": 0.3936,
      "velocity": 100,
      "chip": "ym2612"
    },
    {
      "channel": 5,
      "note": 73,
      "start": 166.6982,
      "duration": 0.3936,
      "velocity": 95,
      "chip": "ym2612"
    },
    {
      "channel": 2,
      "note": 78,
      "start": 166.699,
      "duration": 0.3936,
      "velocity": 100,
      "chip": "ym2612"
    },
    {
      "channel": 0,
      "note": 68,
      "start": 167.0898,
      "duration": 0.3935,
      "velocity": 106,
      "chip": "ym2612"
    },
    {
      "channel": 3,
      "note": 76,
      "start": 167.0909,
      "duration": 0.3939,
      "velocity": 100,
      "chip": "ym2612"
    },
    {
      "channel": 4,
      "note": 71,
      "start": 167.0917,
      "duration": 0.3939,
      "velocity": 100,
      "chip": "ym2612"
    },
    {
      "channel": 5,
      "note": 71,
      "start": 167.0924,
      "duration": 0.3939,
      "velocity": 95,
      "chip": "ym2612"
    },
    {
      "channel": 2,
      "note": 76,
      "start": 167.0945,
      "duration": 0.3926,
      "velocity": 100,
      "chip": "ym2612"
    },
    {
      "channel": 0,
      "note": 66,
      "start": 167.4839,
      "duration": 1.5772,
      "velocity": 106,
      "chip": "ym2612"
    },
    {
      "channel": 1,
      "note": 38,
      "start": 167.4846,
      "duration": 1.5768,
      "velocity": 97,
      "chip": "ym2612"
    },
    {
      "channel": 3,
      "note": 74,
      "start": 167.4854,
      "duration": 1.9695,
      "velocity": 100,
      "chip": "ym2612"
    },
    {
      "channel": 4,
      "note": 69,
      "start": 167.4862,
      "duration": 1.9695,
      "velocity": 100,
      "chip": "ym2612"
    },
    {
      "channel": 5,
      "note": 69,
      "start": 167.4869,
      "duration": 0.3924,
      "velocity": 95,
      "chip": "ym2612"
    },
    {
      "channel": 2,
      "note": 74,
      "start": 167.4876,
      "duration": 1.9695,
      "velocity": 100,
      "chip": "ym2612"
    },
    {
      "channel": 5,
      "note": 69,
      "start": 167.8799,
      "duration": 0.3931,
      "velocity": 95,
      "chip": "ym2612"
    },
    {
      "channel": 5,
      "note": 74,
      "start": 168.2736,
      "duration": 0.3935,
      "velocity": 95,
      "chip": "ym2612"
    },
    {
      "channel": 5,
      "note": 78,
      "start": 168.6677,
      "duration": 0.3952,
      "velocity": 95,
      "chip": "ym2612"
    },
    {
      "channel": 1,
      "note": 37,
      "start": 169.062,
      "duration": 1.5749,
      "velocity": 97,
      "chip": "ym2612"
    },
    {
      "channel": 5,
      "note": 76,
      "start": 169.0635,
      "duration": 0.393,
      "velocity": 95,
      "chip": "ym2612"
    },
    {
      "channel": 0,
      "note": 64,
      "start": 169.4544,
      "duration": 0.3935,
      "velocity": 106,
      "chip": "ym2612"
    },
    {
      "channel": 3,
      "note": 73,
      "start": 169.4555,
      "duration": 0.3935,
      "velocity": 100,
      "chip": "ym2612"
    },
    {
      "channel": 4,
      "note": 69,
      "start": 169.4563,
      "duration": 0.3935,
      "velocity": 100,
      "chip": "ym2612"
    },
    {
      "channel": 5,
      "note": 73,
      "start": 169.4571,
      "duration": 0.3934,
      "velocity": 95,
      "chip": "ym2612"
    },
    {
      "channel": 2,
      "note": 73,
      "start": 169.4578,
      "duration": 0.3934,
      "velocity": 100,
      "chip": "ym2612"
    },
    {
      "channel": 0,
      "note": 57,
      "start": 169.8485,
      "duration": 0.3935,
      "velocity": 106,
      "chip": "ym2612"
    },
    {
      "channel": 3,
      "note": 64,
      "start": 169.8496,
      "duration": 0.3949,
      "velocity": 100,
      "chip": "ym2612"
    },
    {
      "channel": 4,
      "note": 61,
      "start": 169.8504,
      "duration": 0.3949,
      "velocity": 100,
      "chip": "ym2612"
    },
    {
      "channel": 5,
      "note": 69,
      "start": 169.8511,
      "duration": 0.3948,
      "velocity": 95,
      "chip": "ym2612"
    },
    {
      "channel": 2,
      "note": 64,
      "start": 169.8518,
      "duration": 0.3949,
      "velocity": 100,
      "chip": "ym2612"
    },
    {
      "channel": 0,
      "note": 61,
      "start": 170.2426,
      "duration": 0.3936,
      "velocity": 106,
      "chip": "ym2612"
    },
    {
      "channel": 3,
      "note": 69,
      "start": 170.245,
      "duration": 0.3926,
      "velocity": 100,
      "chip": "ym2612"
    },
    {
      "channel": 4,
      "note": 64,
      "start": 170.2458,
      "duration": 0.3926,
      "velocity": 100,
      "chip": "ym2612"
    },
    {
      "channel": 5,
      "note": 73,
      "start": 170.2466,
      "duration": 0.3926,
      "velocity": 95,
      "chip": "ym2612"
    },
    {
      "channel": 2,
      "note": 69,
      "start": 170.2472,
      "duration": 0.3927,
      "velocity": 100,
      "chip": "ym2612"
    },
    {
      "channel": 0,
      "note": 61,
      "start": 170.6368,
      "duration": 1.1816,
      "velocity": 106,
      "chip": "ym2612"
    },
    {
      "channel": 1,
      "note": 35,
      "start": 170.6375,
      "duration": 1.5758,
      "velocity": 97,
      "chip": "ym2612"
    },
    {
      "channel": 3,
      "note": 69,
      "start": 170.6383,
      "duration": 1.1812,
      "velocity": 100,
      "chip": "ym2612"
    },
    {
      "channel": 4,
      "note": 64,
      "start": 170.639,
      "duration": 1.1812,
      "velocity": 100,
      "chip": "ym2612"
    },
    {
      "channel": 5,
      "note": 74,
      "start": 170.6397,
      "duration": 0.3919,
      "velocity": 95,
      "chip": "ym2612"
    },
    {
      "channel": 2,
      "note": 69,
      "start": 170.6405,
      "duration": 1.1811,
      "velocity": 100,
      "chip": "ym2612"
    },
    {
      "channel": 5,
      "note": 73,
      "start": 171.0323,
      "duration": 0.3934,
      "velocity": 95,
      "chip": "ym2612"
    },
    {
      "channel": 5,
      "note": 71,
      "start": 171.4276,
      "duration": 0.3932,
      "velocity": 95,
      "chip": "ym2612"
    },
    {
      "channel": 0,
      "note": 62,
      "start": 171.819,
      "duration": 0.1892,
      "velocity": 106,
      "chip": "ym2612"
    },
    {
      "channel": 3,
      "note": 71,
      "start": 171.8201,
      "duration": 0.1892,
      "velocity": 100,
      "chip": "ym2612"
    },
    {
      "channel": 4,
      "note": 64,
      "start": 171.8207,
      "duration": 0.1907,
      "velocity": 100,
      "chip": "ym2612"
    },
    {
      "channel": 5,
      "note": 69,
      "start": 171.8214,
      "duration": 0.394,
      "velocity": 95,
      "chip": "ym2612"
    },
    {
      "channel": 2,
      "note": 71,
      "start": 171.8222,
      "duration": 0.1902,
      "velocity": 100,
      "chip": "ym2612"
    },
    {
      "channel": 0,
      "note": 61,
      "start": 172.0088,
      "duration": 0.2038,
      "velocity": 106,
      "chip": "ym2612"
    },
    {
      "channel": 3,
      "note": 69,
      "start": 172.0112,
      "duration": 0.2028,
      "velocity": 100,
      "chip": "ym2612"
    },
    {
      "channel": 4,
      "note": 64,
      "start": 172.0119,
      "duration": 0.2029,
      "velocity": 100,
      "chip": "ym2612"
    },
    {
      "channel": 2,
      "note": 69,
      "start": 172.0129,
      "duration": 0.2032,
      "velocity": 100,
      "chip": "ym2612"
    },
    {
      "channel": 0,
      "note": 59,
      "start": 172.2132,
      "duration": 1.5757,
      "velocity": 106,
      "chip": "ym2612"
    },
    {
      "channel": 1,
      "note": 40,
      "start": 172.2139,
      "duration": 1.5758,
      "velocity": 97,
      "chip": "ym2612"
    },
    {
      "channel": 3,
      "note": 68,
      "start": 172.2147,
      "duration": 1.5758,
      "velocity": 100,
      "chip": "ym2612"
    },
    {
      "channel": 4,
      "note": 64,
      "start": 172.2152,
      "duration": 1.576,
      "velocity": 100,
      "chip": "ym2612"
    },
    {
      "channel": 5,
      "note": 68,
      "start": 172.216,
      "duration": 0.392,
      "velocity": 95,
      "chip": "ym2612"
    },
    {
      "channel": 2,
      "note": 68,
      "start": 172.2168,
      "duration": 1.5773,
      "velocity": 100,
      "chip": "ym2612"
    },
    {
      "channel": 5,
      "note": 64,
      "start": 172.6086,
      "duration": 0.3935,
      "velocity": 95,
      "chip": "ym2612"
    },
    {
      "channel": 5,
      "note": 68,
      "start": 173.0028,
      "duration": 0.3935,
      "velocity": 95,
      "chip": "ym2612"
    },
    {
      "channel": 5,
      "note": 74,
      "start": 173.3969,
      "duration": 0.3951,
      "velocity": 95,
      "chip": "ym2612"
    },
    {
      "channel": 0,
      "note": 61,
      "start": 173.7895,
      "duration": 1.5758,
      "velocity": 106,
      "chip": "ym2612"
    },
    {
      "channel": 1,
      "note": 45,
      "start": 173.7902,
      "duration": 1.5759,
      "velocity": 97,
      "chip": "ym2612"
    },
    {
      "channel": 3,
      "note": 69,
      "start": 173.7911,
      "duration": 1.5758,
      "velocity": 100,
      "chip": "ym2612"
    },
    {
      "channel": 4,
      "note": 64,
      "start": 173.7918,
      "duration": 1.5758,
      "velocity": 100,
      "chip": "ym2612"
    },
    {
      "channel": 5,
      "note": 73,
      "start": 173.7925,
      "duration": 0.3919,
      "velocity": 95,
      "chip": "ym2612"
    },
    {
      "channel": 2,
      "note": 69,
      "start": 173.7947,
      "duration": 1.5744,
      "velocity": 100,
      "chip": "ym2612"
    },
    {
      "channel": 5,
      "note": 64,
      "start": 174.185,
      "duration": 0.3942,
      "velocity": 95,
      "chip": "ym2612"
    },
    {
      "channel": 5,
      "note": 76,
      "start": 174.5798,
      "duration": 0.3928,
      "velocity": 95,
      "chip": "ym2612"
    },
    {
      "channel": 5,
      "note": 64,
      "start": 174.9732,
      "duration": 0.3952,
      "velocity": 95,
      "chip": "ym2612"
    },
    {
      "channel": 0,
      "note": 64,
      "start": 175.3659,
      "duration": 0.3948,
      "velocity": 106,
      "chip": "ym2612"
    },
    {
      "channel": 1,
      "note": 44,
      "start": 175.3666,
      "duration": 1.5758,
      "velocity": 97,
      "chip": "ym2612"
    },
    {
      "channel": 3,
      "note": 71,
      "start": 175.3675,
      "duration": 0.3943,
      "velocity": 100,
      "chip": "ym2612"
    },
    {
      "channel": 4,
      "note": 68,
      "start": 175.3682,
      "duration": 0.3944,
      "velocity": 100,
      "chip": "ym2612"
    },
    {
      "channel": 5,
      "note": 71,
      "start": 175.3689,
      "duration": 0.3944,
      "velocity": 95,
      "chip": "ym2612"
    },
    {
      "channel": 2,
      "note": 71,
      "start": 175.3697,
      "duration": 0.3943,
      "velocity": 100,
      "chip": "ym2612"
    },
    {
      "channel": 0,
      "note": 64,
      "start": 175.7614,
      "duration": 0.3922,
      "velocity": 106,
      "chip": "ym2612"
    },
    {
      "channel": 3,
      "note": 71,
      "start": 175.7624,
      "duration": 0.3922,
      "velocity": 100,
      "chip": "ym2612"
    },
    {
      "channel": 4,
      "note": 68,
      "start": 175.7632,
      "duration": 0.3922,
      "velocity": 100,
      "chip": "ym2612"
    },
    {
      "channel": 5,
      "note": 68,
      "start": 175.7639,
      "duration": 0.3922,
      "velocity": 95,
      "chip": "ym2612"
    },
    {
      "channel": 2,
      "note": 71,
      "start": 175.7647,
      "duration": 0.3922,
      "velocity": 100,
      "chip": "ym2612"
    },
    {
      "channel": 0,
      "note": 71,
      "start": 176.1542,
      "duration": 0.3934,
      "velocity": 106,
      "chip": "ym2612"
    },
    {
      "channel": 3,
      "note": 80,
      "start": 176.1553,
      "duration": 0.3934,
      "velocity": 100,
      "chip": "ym2612"
    },
    {
      "channel": 4,
      "note": 76,
      "start": 176.156,
      "duration": 0.3934,
      "velocity": 100,
      "chip": "ym2612"
    },
    {
      "channel": 5,
      "note": 76,
      "start": 176.1567,
      "duration": 0.3935,
      "velocity": 95,
      "chip": "ym2612"
    },
    {
      "channel": 2,
      "note": 80,
      "start": 176.1575,
      "duration": 0.3934,
      "velocity": 100,
      "chip": "ym2612"
    },
    {
      "channel": 0,
      "note": 68,
      "start": 176.5482,
      "duration": 0.3935,
      "velocity": 106,
      "chip": "ym2612"
    },
    {
      "channel": 3,
      "note": 76,
      "start": 176.5493,
      "duration": 0.3952,
      "velocity": 100,
      "chip": "ym2612"
    },
    {
      "channel": 4,
      "note": 71,
      "start": 176.55,
      "duration": 0.3952,
      "velocity": 100,
      "chip": "ym2612"
    },
    {
      "channel": 5,
      "note": 71,
      "start": 176.5508,
      "duration": 0.3952,
      "velocity": 95,
      "chip": "ym2612"
    },
    {
      "channel": 2,
      "note": 76,
      "start": 176.5515,
      "duration": 0.3953,
      "velocity": 100,
      "chip": "ym2612"
    },
    {
      "channel": 0,
      "note": 69,
      "start": 176.9423,
      "duration": 1.9699,
      "velocity": 106,
      "chip": "ym2612"
    },
    {
      "channel": 1,
      "note": 42,
      "start": 176.9444,
      "duration": 1.5741,
      "velocity": 97,
      "chip": "ym2612"
    },
    {
      "channel": 3,
      "note": 78,
      "start": 176.9451,
      "duration": 1.9683,
      "velocity": 100,
      "chip": "ym2612"
    },
    {
      "channel": 4,
      "note": 73,
      "start": 176.9459,
      "duration": 1.9683,
      "velocity": 100,
      "chip": "ym2612"
    },
    {
      "channel": 5,
      "note": 73,
      "start": 176.9466,
      "duration": 0.3906,
      "velocity": 95,
      "chip": "ym2612"
    },
    {
      "channel": 2,
      "note": 78,
      "start": 176.9474,
      "duration": 1.9683,
      "velocity": 100,
      "chip": "ym2612"
    },
    {
      "channel": 5,
      "note": 66,
      "start": 177.3378,
      "duration": 0.3936,
      "velocity": 95,
      "chip": "ym2612"
    },
    {
      "channel": 5,
      "note": 73,
      "start": 177.732,
      "duration": 0.3934,
      "velocity": 95,
      "chip": "ym2612"
    },
    {
      "channel": 5,
      "note": 69,
      "start": 178.1273,
      "duration": 0.3926,
      "velocity": 95,
      "chip": "ym2612"
    },
    {
      "channel": 1,
      "note": 40,
      "start": 178.5191,
      "duration": 1.5763,
      "velocity": 97,
      "chip": "ym2612"
    },
    {
      "channel": 5,
      "note": 68,
      "start": 178.5205,
      "duration": 0.3945,
      "velocity": 95,
      "chip": "ym2612"
    },
    {
      "channel": 0,
      "note": 68,
      "start": 178.9129,
      "duration": 0.3934,
      "velocity": 106,
      "chip": "ym2612"
    },
    {
      "channel": 3,
      "note": 76,
      "start": 178.914,
      "duration": 1.1821,
      "velocity": 100,
      "chip": "ym2612"
    },
    {
      "channel": 4,
      "note": 71,
      "start": 178.9147,
      "duration": 1.1821,
      "velocity": 100,
      "chip": "ym2612"
    },
    {
      "channel": 5,
      "note": 64,
      "start": 178.9155,
      "duration": 0.3926,
      "velocity": 95,
      "chip": "ym2612"
    },
    {
      "channel": 2,
      "note": 76,
      "start": 178.9163,
      "duration": 1.1821,
      "velocity": 100,
      "chip": "ym2612"
    },
    {
      "channel": 0,
      "note": 69,
      "start": 179.3069,
      "duration": 0.3936,
      "velocity": 106,
      "chip": "ym2612"
    },
    {
      "channel": 5,
      "note": 66,
      "start": 179.3087,
      "duration": 0.3936,
      "velocity": 95,
      "chip": "ym2612"
    },
    {
      "channel": 0,
      "note": 71,
      "start": 179.7011,
      "duration": 0.3935,
      "velocity": 106,
      "chip": "ym2612"
    },
    {
      "channel": 5,
      "note": 68,
      "start": 179.7028,
      "duration": 0.3947,
      "velocity": 95,
      "chip": "ym2612"
    },
    {
      "channel": 0,
      "note": 66,
      "start": 180.0952,
      "duration": 1.1826,
      "velocity": 106,
      "chip": "ym2612"
    },
    {
      "channel": 1,
      "note": 38,
      "start": 180.0959,
      "duration": 1.5758,
      "velocity": 97,
      "chip": "ym2612"
    },
    {
      "channel": 3,
      "note": 74,
      "start": 180.0967,
      "duration": 1.5757,
      "velocity": 100,
      "chip": "ym2612"
    },
    {
      "channel": 4,
      "note": 69,
      "start": 180.0974,
      "duration": 1.5758,
      "velocity": 100,
      "chip": "ym2612"
    },
    {
      "channel": 5,
      "note": 74,
      "start": 180.0982,
      "duration": 0.3918,
      "velocity": 95,
      "chip": "ym2612"
    },
    {
      "channel": 2,
      "note": 74,
      "start": 180.099,
      "duration": 1.5757,
      "velocity": 100,
      "chip": "ym2612"
    },
    {
      "channel": 5,
      "note": 66,
      "start": 180.4906,
      "duration": 0.3935,
      "velocity": 95,
      "chip": "ym2612"
    },
    {
      "channel": 5,
      "note": 69,
      "start": 180.8848,
      "duration": 0.3947,
      "velocity": 95,
      "chip": "ym2612"
    },
    {
      "channel": 0,
      "note": 66,
      "start": 181.2783,
      "duration": 0.1883,
      "velocity": 106,
      "chip": "ym2612"
    },
    {
      "channel": 5,
      "note": 66,
      "start": 181.2801,
      "duration": 0.3938,
      "velocity": 95,
      "chip": "ym2612"
    },
    {
      "channel": 0,
      "note": 68,
      "start": 181.4672,
      "duration": 0.2037,
      "velocity": 106,
      "chip": "ym2612"
    },
    {
      "channel": 0,
      "note": 69,
      "start": 181.6715,
      "duration": 0.3935,
      "velocity": 106,
      "chip": "ym2612"
    },
    {
      "channel": 1,
      "note": 40,
      "start": 181.6722,
      "duration": 1.5759,
      "velocity": 97,
      "chip": "ym2612"
    },
    {
      "channel": 3,
      "note": 78,
      "start": 181.673,
      "duration": 0.393,
      "velocity": 100,
      "chip": "ym2612"
    },
    {
      "channel": 4,
      "note": 71,
      "start": 181.6738,
      "duration": 0.3928,
      "velocity": 100,
      "chip": "ym2612"
    },
    {
      "channel": 5,
      "note": 74,
      "start": 181.6745,
      "duration": 0.3927,
      "velocity": 95,
      "chip": "ym2612"
    },
    {
      "channel": 2,
      "note": 78,
      "start": 181.6753,
      "duration": 0.3926,
      "velocity": 100,
      "chip": "ym2612"
    },
    {
      "channel": 0,
      "note": 69,
      "start": 182.0655,
      "duration": 0.1893,
      "velocity": 106,
      "chip": "ym2612"
    },
    {
      "channel": 3,
      "note": 78,
      "start": 182.0665,
      "duration": 0.1893,
      "velocity": 100,
      "chip": "ym2612"
    },
    {
      "channel": 4,
      "note": 71,
      "start": 182.067,
      "duration": 0.1893,
      "velocity": 100,
      "chip": "ym2612"
    },
    {
      "channel": 5,
      "note": 64,
      "start": 182.0678,
      "duration": 0.394,
      "velocity": 95,
      "chip": "ym2612"
    },
    {
      "channel": 2,
      "note": 78,
      "start": 182.0684,
      "duration": 0.1889,
      "velocity": 100,
      "chip": "ym2612"
    },
    {
      "channel": 0,
      "note": 69,
      "start": 182.2553,
      "duration": 0.3936,
      "velocity": 106,
      "chip": "ym2612"
    },
    {
      "channel": 3,
      "note": 78,
      "start": 182.2562,
      "duration": 0.3938,
      "velocity": 100,
      "chip": "ym2612"
    },
    {
      "channel": 4,
      "note": 71,
      "start": 182.2568,
      "duration": 0.394,
      "velocity": 100,
      "chip": "ym2612"
    },
    {
      "channel": 2,
      "note": 78,
      "start": 182.2577,
      "duration": 0.394,
      "velocity": 100,
      "chip": "ym2612"
    },
    {
      "channel": 5,
      "note": 66,
      "start": 182.4624,
      "duration": 0.3922,
      "velocity": 95,
      "chip": "ym2612"
    },
    {
      "channel": 0,
      "note": 68,
      "start": 182.6495,
      "duration": 0.5978,
      "velocity": 106,
      "chip": "ym2612"
    },
    {
      "channel": 3,
      "note": 76,
      "start": 182.6506,
      "duration": 0.5983,
      "velocity": 100,
      "chip": "ym2612"
    },
    {
      "channel": 4,
      "note": 71,
      "start": 182.6512,
      "duration": 0.5984,
      "velocity": 100,
      "chip": "ym2612"
    },
    {
      "channel": 2,
      "note": 76,
      "start": 182.6523,
      "duration": 0.5988,
      "velocity": 100,
      "chip": "ym2612"
    },
    {
      "channel": 5,
      "note": 68,
      "start": 182.8552,
      "duration": 0.3952,
      "velocity": 95,
      "chip": "ym2612"
    },
    {
      "channel": 0,
      "note": 69,
      "start": 183.248,
      "duration": 3.1554,
      "velocity": 105,
      "chip": "ym2612"
    },
    {
      "channel": 1,
      "note": 45,
      "start": 183.2487,
      "duration": 0.7871,
      "velocity": 97,
      "chip": "ym2612"
    },
    {
      "channel": 3,
      "note": 76,
      "start": 183.2495,
      "duration": 3.1624,
      "velocity": 100,
      "chip": "ym2612"
    },
    {
      "channel": 4,
      "note": 73,
      "start": 183.2503,
      "duration": 3.165,
      "velocity": 100,
      "chip": "ym2612"
    },
    {
      "channel": 5,
      "note": 69,
      "start": 183.251,
      "duration": 0.3931,
      "velocity": 95,
      "chip": "ym2612"
    },
    {
      "channel": 2,
      "note": 76,
      "start": 183.2518,
      "duration": 3.1703,
      "velocity": 100,
      "chip": "ym2612"
    },
    {
      "channel": 5,
      "note": 64,
      "start": 183.6448,
      "duration": 0.3924,
      "velocity": 95,
      "chip": "ym2612"
    },
    {
      "channel": 1,
      "note": 45,
      "start": 184.0363,
      "duration": 0.7877,
      "velocity": 97,
      "chip": "ym2612"
    },
    {
      "channel": 5,
      "note": 76,
      "start": 184.0377,
      "duration": 0.3933,
      "velocity": 95,
      "chip": "ym2612"
    },
    {
      "channel": 5,
      "note": 64,
      "start": 184.4316,
      "duration": 0.3938,
      "velocity": 95,
      "chip": "ym2612"
    },
    {
      "channel": 1,
      "note": 45,
      "start": 184.8245,
      "duration": 0.7878,
      "velocity": 97,
      "chip": "ym2612"
    },
    {
      "channel": 5,
      "note": 69,
      "start": 184.8259,
      "duration": 0.3933,
      "velocity": 95,
      "chip": "ym2612"
    },
    {
      "channel": 5,
      "note": 64,
      "start": 185.2198,
      "duration": 0.3937,
      "velocity": 95,
      "chip": "ym2612"
    },
    {
      "channel": 1,
      "note": 45,
      "start": 185.6127,
      "duration": 0.7942,
      "velocity": 97,
      "chip": "ym2612"
    },
    {
      "channel": 5,
      "note": 67,
      "start": 185.6142,
      "duration": 0.3932,
      "velocity": 95,
      "chip": "ym2612"
    },
    {
      "channel": 5,
      "note": 76,
      "start": 186.008,
      "duration": 0.4105,
      "velocity": 97,
      "chip": "ym2612"
    },
    {
      "channel": 0,
      "note": 66,
      "start": 186.4041,
      "duration": 1.5739,
      "velocity": 105,
      "chip": "ym2612"
    },
    {
      "channel": 1,
      "note": 38,
      "start": 186.4075,
      "duration": 0.7814,
      "velocity": 97,
      "chip": "ym2612"
    },
    {
      "channel": 3,
      "note": 74,
      "start": 186.4124,
      "duration": 0.7771,
      "velocity": 100,
      "chip": "ym2612"
    },
    {
      "channel": 5,
      "note": 78,
      "start": 186.4191,
      "duration": 0.1719,
      "velocity": 97,
      "chip": "ym2612"
    },
    {
      "channel": 2,
      "note": 74,
      "start": 186.4227,
      "duration": 0.7684,
      "velocity": 100,
      "chip": "ym2612"
    },
    {
      "channel": 5,
      "note": 74,
      "start": 186.5916,
      "duration": 0.2041,
      "velocity": 97,
      "chip": "ym2612"
    },
    {
      "channel": 5,
      "note": 69,
      "start": 186.7963,
      "duration": 0.1889,
      "velocity": 97,
      "chip": "ym2612"
    },
    {
      "channel": 5,
      "note": 74,
      "start": 186.9858,
      "duration": 0.2046,
      "velocity": 97,
      "chip": "ym2612"
    },
    {
      "channel": 1,
      "note": 38,
      "start": 187.1894,
      "duration": 0.7893,
      "velocity": 97,
      "chip": "ym2612"
    },
    {
      "channel": 3,
      "note": 74,
      "start": 187.1901,
      "duration": 0.7893,
      "velocity": 100,
      "chip": "ym2612"
    },
    {
      "channel": 5,
      "note": 78,
      "start": 187.191,
      "duration": 0.1883,
      "velocity": 97,
      "chip": "ym2612"
    },
    {
      "channel": 2,
      "note": 74,
      "start": 187.1917,
      "duration": 0.7893,
      "velocity": 100,
      "chip": "ym2612"
    },
    {
      "channel": 5,
      "note": 74,
      "start": 187.3799,
      "duration": 0.2041,
      "velocity": 97,
      "chip": "ym2612"
    },
    {
      "channel": 5,
      "note": 69,
      "start": 187.5845,
      "duration": 0.1889,
      "velocity": 97,
      "chip": "ym2612"
    },
    {
      "channel": 5,
      "note": 74,
      "start": 187.774,
      "duration": 0.2062,
      "velocity": 97,
      "chip": "ym2612"
    },
    {
      "channel": 0,
      "note": 68,
      "start": 187.9785,
      "duration": 0.3921,
      "velocity": 105,
      "chip": "ym2612"
    },
    {
      "channel": 1,
      "note": 40,
      "start": 187.9793,
      "duration": 0.7858,
      "velocity": 97,
      "chip": "ym2612"
    },
    {
      "channel": 3,
      "note": 76,
      "start": 187.98,
      "duration": 0.7858,
      "velocity": 100,
      "chip": "ym2612"
    },
    {
      "channel": 5,
      "note": 80,
      "start": 187.9808,
      "duration": 0.1866,
      "velocity": 97,
      "chip": "ym2612"
    },
    {
      "channel": 2,
      "note": 76,
      "start": 187.9816,
      "duration": 0.7858,
      "velocity": 100,
      "chip": "ym2612"
    },
    {
      "channel": 5,
      "note": 76,
      "start": 188.168,
      "duration": 0.2043,
      "velocity": 97,
      "chip": "ym2612"
    },
    {
      "channel": 0,
      "note": 69,
      "start": 188.3714,
      "duration": 0.1897,
      "velocity": 105,
      "chip": "ym2612"
    },
    {
      "channel": 5,
      "note": 71,
      "start": 188.3729,
      "duration": 0.1898,
      "velocity": 97,
      "chip": "ym2612"
    },
    {
      "channel": 0,
      "note": 71,
      "start": 188.5617,
      "duration": 0.3927,
      "velocity": 105,
      "chip": "ym2612"
    },
    {
      "channel": 5,
      "note": 76,
      "start": 188.5633,
      "duration": 0.2034,
      "velocity": 97,
      "chip": "ym2612"
    },
    {
      "channel": 1,
      "note": 40,
      "start": 188.7656,
      "duration": 0.7877,
      "velocity": 97,
      "chip": "ym2612"
    },
    {
      "channel": 3,
      "note": 76,
      "start": 188.7664,
      "duration": 0.7877,
      "velocity": 100,
      "chip": "ym2612"
    },
    {
      "channel": 5,
      "note": 80,
      "start": 188.7672,
      "duration": 0.1889,
      "velocity": 97,
      "chip": "ym2612"
    },
    {
      "channel": 2,
      "note": 76,
      "start": 188.768,
      "duration": 0.7879,
      "velocity": 100,
      "chip": "ym2612"
    },
    {
      "channel": 0,
      "note": 68,
      "start": 188.9552,
      "duration": 0.3934,
      "velocity": 105,
      "chip": "ym2612"
    },
    {
      "channel": 5,
      "note": 76,
      "start": 188.9567,
      "duration": 0.2046,
      "velocity": 97,
      "chip": "ym2612"
    },
    {
      "channel": 5,
      "note": 71,
      "start": 189.162,
      "duration": 0.1882,
      "velocity": 97,
      "chip": "ym2612"
    },
    {
      "channel": 0,
      "note": 64,
      "start": 189.3493,
      "duration": 1.78,
      "velocity": 105,
      "chip": "ym2612"
    },
    {
      "channel": 5,
      "note": 76,
      "start": 189.3508,
      "duration": 0.2043,
      "velocity": 97,
      "chip": "ym2612"
    },
    {
      "channel": 1,
      "note": 45,
      "start": 189.5539,
      "duration": 0.7877,
      "velocity": 97,
      "chip": "ym2612"
    },
    {
      "channel": 3,
      "note": 73,
      "start": 189.5547,
      "duration": 0.7876,
      "velocity": 100,
      "chip": "ym2612"
    },
    {
      "channel": 5,
      "note": 76,
      "start": 189.5557,
      "duration": 0.1895,
      "velocity": 97,
      "chip": "ym2612"
    },
    {
      "channel": 2,
      "note": 73,
      "start": 189.5565,
      "duration": 0.7888,
      "velocity": 100,
      "chip": "ym2612"
    },
    {
      "channel": 5,
      "note": 73,
      "start": 189.7459,
      "duration": 0.2024,
      "velocity": 97,
      "chip": "ym2612"
    },
    {
      "channel": 5,
      "note": 69,
      "start": 189.9488,
      "duration": 0.1892,
      "velocity": 97,
      "chip": "ym2612"
    },
    {
      "channel": 5,
      "note": 73,
      "start": 190.1386,
      "duration": 0.2059,
      "velocity": 97,
      "chip": "ym2612"
    },
    {
      "channel": 1,
      "note": 45,
      "start": 190.3422,
      "duration": 0.7879,
      "velocity": 97,
      "chip": "ym2612"
    },
    {
      "channel": 3,
      "note": 73,
      "start": 190.3443,
      "duration": 0.7866,
      "velocity": 100,
      "chip": "ym2612"
    },
    {
      "channel": 5,
      "note": 76,
      "start": 190.3451,
      "duration": 0.1871,
      "velocity": 97,
      "chip": "ym2612"
    },
    {
      "channel": 2,
      "note": 73,
      "start": 190.3459,
      "duration": 0.7866,
      "velocity": 100,
      "chip": "ym2612"
    },
    {
      "channel": 5,
      "note": 73,
      "start": 190.5327,
      "duration": 0.2037,
      "velocity": 97,
      "chip": "ym2612"
    },
    {
      "channel": 5,
      "note": 69,
      "start": 190.7371,
      "duration": 0.1905,
      "velocity": 97,
      "chip": "ym2612"
    },
    {
      "channel": 5,
      "note": 73,
      "start": 190.9282,
      "duration": 0.2036,
      "velocity": 97,
      "chip": "ym2612"
    },
    {
      "channel": 0,
      "note": 66,
      "start": 191.13,
      "duration": 0.3934,
      "velocity": 105,
      "chip": "ym2612"
    },
    {
      "channel": 1,
      "note": 42,
      "start": 191.1307,
      "duration": 0.7872,
      "velocity": 97,
      "chip": "ym2612"
    },
    {
      "channel": 3,
      "note": 73,
      "start": 191.1315,
      "duration": 0.7871,
      "velocity": 100,
      "chip": "ym2612"
    },
    {
      "channel": 5,
      "note": 78,
      "start": 191.1323,
      "duration": 0.1879,
      "velocity": 97,
      "chip": "ym2612"
    },
    {
      "channel": 2,
      "note": 73,
      "start": 191.1331,
      "duration": 0.7871,
      "velocity": 100,
      "chip": "ym2612"
    },
    {
      "channel": 5,
      "note": 73,
      "start": 191.3208,
      "duration": 0.2043,
      "velocity": 97,
      "chip": "ym2612"
    },
    {
      "channel": 0,
      "note": 67,
      "start": 191.5241,
      "duration": 0.1891,
      "velocity": 105,
      "chip": "ym2612"
    },
    {
      "channel": 5,
      "note": 70,
      "start": 191.5257,
      "duration": 0.1892,
      "velocity": 97,
      "chip": "ym2612"
    },
    {
      "channel": 0,
      "note": 66,
      "start": 191.7139,
      "duration": 0.3934,
      "velocity": 105,
      "chip": "ym2612"
    },
    {
      "channel": 5,
      "note": 73,
      "start": 191.7154,
      "duration": 0.204,
      "velocity": 97,
      "chip": "ym2612"
    },
    {
      "channel": 1,
      "note": 42,
      "start": 191.9185,
      "duration": 0.7876,
      "velocity": 97,
      "chip": "ym2612"
    },
    {
      "channel": 3,
      "note": 73,
      "start": 191.9192,
      "duration": 0.7877,
      "velocity": 100,
      "chip": "ym2612"
    },
    {
      "channel": 5,
      "note": 66,
      "start": 191.92,
      "duration": 0.1889,
      "velocity": 97,
      "chip": "ym2612"
    },
    {
      "channel": 2,
      "note": 73,
      "start": 191.9208,
      "duration": 0.7879,
      "velocity": 100,
      "chip": "ym2612"
    },
    {
      "channel": 0,
      "note": 61,
      "start": 192.1079,
      "duration": 0.3934,
      "velocity": 105,
      "chip": "ym2612"
    },
    {
      "channel": 5,
      "note": 70,
      "start": 192.1109,
      "duration": 0.2019,
      "velocity": 97,
      "chip": "ym2612"
    },
    {
      "channel": 5,
      "note": 73,
      "start": 192.3133,
      "duration": 0.1896,
      "velocity": 97,
      "chip": "ym2612"
    },
    {
      "channel": 0,
      "note": 62,
      "start": 192.502,
      "duration": 1.3861,
      "velocity": 105,
      "chip": "ym2612"
    },
    {
      "channel": 5,
      "note": 76,
      "start": 192.5035,
      "duration": 0.2044,
      "velocity": 97,
      "chip": "ym2612"
    },
    {
      "channel": 1,
      "note": 47,
      "start": 192.7067,
      "duration": 0.7883,
      "velocity": 97,
      "chip": "ym2612"
    },
    {
      "channel": 3,
      "note": 71,
      "start": 192.7074,
      "duration": 0.7883,
      "velocity": 100,
      "chip": "ym2612"
    },
    {
      "channel": 5,
      "note": 74,
      "start": 192.7085,
      "duration": 0.1882,
      "velocity": 97,
      "chip": "ym2612"
    },
    {
      "channel": 2,
      "note": 71,
      "start": 192.7093,
      "duration": 0.788,
      "velocity": 100,
      "chip": "ym2612"
    },
    {
      "channel": 5,
      "note": 71,
      "start": 192.8973,
      "duration": 0.2038,
      "velocity": 97,
      "chip": "ym2612"
    },
    {
      "channel": 5,
      "note": 66,
      "start": 193.1016,
      "duration": 0.1892,
      "velocity": 97,
      "chip": "ym2612"
    },
    {
      "channel": 5,
      "note": 71,
      "start": 193.2914,
      "duration": 0.2052,
      "velocity": 97,
      "chip": "ym2612"
    },
    {
      "channel": 1,
      "note": 47,
      "start": 193.4955,
      "duration": 0.7875,
      "velocity": 97,
      "chip": "ym2612"
    },
    {
      "channel": 3,
      "note": 71,
      "start": 193.4963,
      "duration": 0.7874,
      "velocity": 100,
      "chip": "ym2612"
    },
    {
      "channel": 5,
      "note": 74,
      "start": 193.4971,
      "duration": 0.1878,
      "velocity": 97,
      "chip": "ym2612"
    },
    {
      "channel": 2,
      "note": 71,
      "start": 193.4979,
      "duration": 0.7873,
      "velocity": 100,
      "chip": "ym2612"
    },
    {
      "channel": 5,
      "note": 71,
      "start": 193.6855,
      "duration": 0.2042,
      "velocity": 97,
      "chip": "ym2612"
    },
    {
      "channel": 0,
      "note": 61,
      "start": 193.8887,
      "duration": 0.3934,
      "velocity": 105,
      "chip": "ym2612"
    },
    {
      "channel": 5,
      "note": 66,
      "start": 193.8902,
      "duration": 0.1887,
      "velocity": 97,
      "chip": "ym2612"
    },
    {
      "channel": 5,
      "note": 71,
      "start": 194.0796,
      "duration": 0.2049,
      "velocity": 97,
      "chip": "ym2612"
    },
    {
      "channel": 0,
      "note": 59,
      "start": 194.2828,
      "duration": 0.3948,
      "velocity": 105,
      "chip": "ym2612"
    },
    {
      "channel": 1,
      "note": 40,
      "start": 194.2835,
      "duration": 0.7876,
      "velocity": 97,
      "chip": "ym2612"
    },
    {
      "channel": 3,
      "note": 68,
      "start": 194.2843,
      "duration": 0.7877,
      "velocity": 100,
      "chip": "ym2612"
    },
    {
      "channel": 5,
      "note": 74,
      "start": 194.2851,
      "duration": 0.188,
      "velocity": 97,
      "chip": "ym2612"
    },
    {
      "channel": 2,
      "note": 68,
      "start": 194.2858,
      "duration": 0.7876,
      "velocity": 100,
      "chip": "ym2612"
    },
    {
      "channel": 5,
      "note": 71,
      "start": 194.4737,
      "duration": 0.2056,
      "velocity": 97,
      "chip": "ym2612"
    },
    {
      "channel": 0,
      "note": 66,
      "start": 194.6783,
      "duration": 0.3921,
      "velocity": 105,
      "chip": "ym2612"
    },
    {
      "channel": 5,
      "note": 64,
      "start": 194.6798,
      "duration": 0.1873,
      "velocity": 97,
      "chip": "ym2612"
    },
    {
      "channel": 5,
      "note": 71,
      "start": 194.8677,
      "duration": 0.205,
      "velocity": 97,
      "chip": "ym2612"
    },
    {
      "channel": 0,
      "note": 64,
      "start": 195.071,
      "duration": 0.3934,
      "velocity": 105,
      "chip": "ym2612"
    },
    {
      "channel": 1,
      "note": 40,
      "start": 195.0717,
      "duration": 0.7876,
      "velocity": 97,
      "chip": "ym2612"
    },
    {
      "channel": 3,
      "note": 68,
      "start": 195.0725,
      "duration": 0.7889,
      "velocity": 100,
      "chip": "ym2612"
    },
    {
      "channel": 5,
      "note": 74,
      "start": 195.0733,
      "duration": 0.1889,
      "velocity": 97,
      "chip": "ym2612"
    },
    {
      "channel": 2,
      "note": 68,
      "start": 195.074,
      "duration": 0.7891,
      "velocity": 100,
      "chip": "ym2612"
    },
    {
      "channel": 5,
      "note": 71,
      "start": 195.2628,
      "duration": 0.2032,
      "velocity": 97,
      "chip": "ym2612"
    },
    {
      "channel": 0,
      "note": 62,
      "start": 195.4651,
      "duration": 0.3934,
      "velocity": 105,
      "chip": "ym2612"
    },
    {
      "channel": 5,
      "note": 64,
      "start": 195.4666,
      "duration": 0.1887,
      "velocity": 97,
      "chip": "ym2612"
    },
    {
      "channel": 5,
      "note": 71,
      "start": 195.6559,
      "duration": 0.2066,
      "velocity": 97,
      "chip": "ym2612"
    },
    {
      "channel": 0,
      "note": 61,
      "start": 195.8592,
      "duration": 0.3934,
      "velocity": 105,
      "chip": "ym2612"
    },
    {
      "channel": 1,
      "note": 45,
      "start": 195.8612,
      "duration": 0.7859,
      "velocity": 97,
      "chip": "ym2612"
    },
    {
      "channel": 3,
      "note": 69,
      "start": 195.862,
      "duration": 0.7859,
      "velocity": 100,
      "chip": "ym2612"
    },
    {
      "channel": 5,
      "note": 73,
      "start": 195.863,
      "duration": 0.1864,
      "velocity": 97,
      "chip": "ym2612"
    },
    {
      "channel": 2,
      "note": 69,
      "start": 195.8638,
      "duration": 0.7857,
      "velocity": 100,
      "chip": "ym2612"
    },
    {
      "channel": 5,
      "note": 69,
      "start": 196.05,
      "duration": 0.2043,
      "velocity": 97,
      "chip": "ym2612"
    },
    {
      "channel": 0,
      "note": 62,
      "start": 196.2534,
      "duration": 0.189,
      "velocity": 105,
      "chip": "ym2612"
    },
    {
      "channel": 5,
      "note": 64,
      "start": 196.2549,
      "duration": 0.1904,
      "velocity": 97,
      "chip": "ym2612"
    },
    {
      "channel": 0,
      "note": 64,
      "start": 196.4444,
      "duration": 2.5669,
      "velocity": 105,
      "chip": "ym2612"
    },
    {
      "channel": 5,
      "note": 69,
      "start": 196.4459,
      "duration": 0.2028,
      "velocity": 97,
      "chip": "ym2612"
    },
    {
      "channel": 1,
      "note": 45,
      "start": 196.6477,
      "duration": 0.7877,
      "velocity": 97,
      "chip": "ym2612"
    },
    {
      "channel": 3,
      "note": 73,
      "start": 196.6485,
      "duration": 0.1889,
      "velocity": 100,
      "chip": "ym2612"
    },
    {
      "channel": 5,
      "note": 73,
      "start": 196.6493,
      "duration": 0.1889,
      "velocity": 97,
      "chip": "ym2612"
    },
    {
      "channel": 2,
      "note": 73,
      "start": 196.65,
      "duration": 0.1888,
      "velocity": 100,
      "chip": "ym2612"
    },
    {
      "channel": 3,
      "note": 69,
      "start": 196.8379,
      "duration": 0.2038,
      "velocity": 100,
      "chip": "ym2612"
    },
    {
      "channel": 5,
      "note": 69,
      "start": 196.8387,
      "duration": 0.2037,
      "velocity": 97,
      "chip": "ym2612"
    },
    {
      "channel": 2,
      "note": 69,
      "start": 196.8395,
      "duration": 0.2051,
      "velocity": 100,
      "chip": "ym2612"
    },
    {
      "channel": 3,
      "note": 73,
      "start": 197.0423,
      "duration": 0.189,
      "velocity": 100,
      "chip": "ym2612"
    },
    {
      "channel": 5,
      "note": 64,
      "start": 197.0444,
      "duration": 0.1878,
      "velocity": 97,
      "chip": "ym2612"
    },
    {
      "channel": 2,
      "note": 73,
      "start": 197.0451,
      "duration": 0.1878,
      "velocity": 100,
      "chip": "ym2612"
    },
    {
      "channel": 3,
      "note": 76,
      "start": 197.232,
      "duration": 0.2041,
      "velocity": 100,
      "chip": "ym2612"
    },
    {
      "channel": 5,
      "note": 69,
      "start": 197.2328,
      "duration": 0.2042,
      "velocity": 97,
      "chip": "ym2612"
    },
    {
      "channel": 2,
      "note": 76,
      "start": 197.2335,
      "duration": 0.2042,
      "velocity": 100,
      "chip": "ym2612"
    },
    {
      "channel": 1,
      "note": 45,
      "start": 197.436,
      "duration": 0.7877,
      "velocity": 97,
      "chip": "ym2612"
    },
    {
      "channel": 3,
      "note": 81,
      "start": 197.4368,
      "duration": 0.3931,
      "velocity": 100,
      "chip": "ym2612"
    },
    {
      "channel": 5,
      "note": 73,
      "start": 197.4376,
      "duration": 0.1884,
      "velocity": 97,
      "chip": "ym2612"
    },
    {
      "channel": 2,
      "note": 81,
      "start": 197.4383,
      "duration": 0.393,
      "velocity": 100,
      "chip": "ym2612"
    },
    {
      "channel": 5,
      "note": 69,
      "start": 197.6279,
      "duration": 0.2027,
      "velocity": 97,
      "chip": "ym2612"
    },
    {
      "channel": 3,
      "note": 79,
      "start": 197.8304,
      "duration": 0.394,
      "velocity": 100,
      "chip": "ym2612"
    },
    {
      "channel": 5,
      "note": 67,
      "start": 197.8312,
      "duration": 0.1889,
      "velocity": 97,
      "chip": "ym2612"
    },
    {
      "channel": 2,
      "note": 79,
      "start": 197.8319,
      "duration": 0.394,
      "velocity": 100,
      "chip": "ym2612"
    },
    {
      "channel": 5,
      "note": 69,
      "start": 198.0207,
      "duration": 0.2045,
      "velocity": 97,
      "chip": "ym2612"
    },
    {
      "channel": 1,
      "note": 45,
      "start": 198.2242,
      "duration": 0.7879,
      "velocity": 97,
      "chip": "ym2612"
    },
    {
      "channel": 3,
      "note": 78,
      "start": 198.225,
      "duration": 0.3931,
      "velocity": 100,
      "chip": "ym2612"
    },
    {
      "channel": 5,
      "note": 73,
      "start": 198.2258,
      "duration": 0.1886,
      "velocity": 97,
      "chip": "ym2612"
    },
    {
      "channel": 2,
      "note": 78,
      "start": 198.2278,
      "duration": 0.3917,
      "velocity": 100,
      "chip": "ym2612"
    },
    {
      "channel": 5,
      "note": 69,
      "start": 198.4151,
      "duration": 0.2038,
      "velocity": 97,
      "chip": "ym2612"
    },
    {
      "channel": 3,
      "note": 76,
      "start": 198.6186,
      "duration": 0.3942,
      "velocity": 100,
      "chip": "ym2612"
    },
    {
      "channel": 5,
      "note": 67,
      "start": 198.6195,
      "duration": 0.1887,
      "velocity": 97,
      "chip": "ym2612"
    },
    {
      "channel": 2,
      "note": 76,
      "start": 198.6201,
      "duration": 0.3951,
      "velocity": 100,
      "chip": "ym2612"
    },
    {
      "channel": 5,
      "note": 69,
      "start": 198.8088,
      "duration": 0.2057,
      "velocity": 97,
      "chip": "ym2612"
    },
    {
      "channel": 0,
      "note": 66,
      "start": 199.012,
      "duration": 1.5758,
      "velocity": 105,
      "chip": "ym2612"
    },
    {
      "channel": 1,
      "note": 38,
      "start": 199.0127,
      "duration": 0.7873,
      "velocity": 97,
      "chip": "ym2612"
    },
    {
      "channel": 3,
      "note": 74,
      "start": 199.0135,
      "duration": 0.7872,
      "velocity": 100,
      "chip": "ym2612"
    },
    {
      "channel": 4,
      "note": 69,
      "start": 199.0142,
      "duration": 0.7872,
      "velocity": 100,
      "chip": "ym2612"
    },
    {
      "channel": 5,
      "note": 78,
      "start": 199.015,
      "duration": 0.1875,
      "velocity": 97,
      "chip": "ym2612"
    },
    {
      "channel": 2,
      "note": 74,
      "start": 199.0158,
      "duration": 0.7872,
      "velocity": 100,
      "chip": "ym2612"
    },
    {
      "channel": 5,
      "note": 74,
      "start": 199.2031,
      "duration": 0.2039,
      "velocity": 97,
      "chip": "ym2612"
    },
    {
      "channel": 5,
      "note": 69,
      "start": 199.4076,
      "duration": 0.1892,
      "velocity": 97,
      "chip": "ym2612"
    },
    {
      "channel": 5,
      "note": 74,
      "start": 199.5973,
      "duration": 0.2049,
      "velocity": 97,
      "chip": "ym2612"
    },
    {
      "channel": 1,
      "note": 38,
      "start": 199.8005,
      "duration": 0.788,
      "velocity": 97,
      "chip": "ym2612"
    },
    {
      "channel": 3,
      "note": 74,
      "start": 199.8013,
      "duration": 0.788,
      "velocity": 100,
      "chip": "ym2612"
    },
    {
      "channel": 4,
      "note": 69,
      "start": 199.8021,
      "duration": 0.788,
      "velocity": 100,
      "chip": "ym2612"
    },
    {
      "channel": 5,
      "note": 78,
      "start": 199.8028,
      "duration": 0.188,
      "velocity": 97,
      "chip": "ym2612"
    },
    {
      "channel": 2,
      "note": 74,
      "start": 199.8035,
      "duration": 0.788,
      "velocity": 100,
      "chip": "ym2612"
    },
    {
      "channel": 5,
      "note": 74,
      "start": 199.9913,
      "duration": 0.2048,
      "velocity": 97,
      "chip": "ym2612"
    },
    {
      "channel": 5,
      "note": 69,
      "start": 200.1967,
      "duration": 0.1882,
      "velocity": 97,
      "chip": "ym2612"
    },
    {
      "channel": 5,
      "note": 74,
      "start": 200.3855,
      "duration": 0.2054,
      "velocity": 97,
      "chip": "ym2612"
    },
    {
      "channel": 0,
      "note": 68,
      "start": 200.5885,
      "duration": 0.3934,
      "velocity": 105,
      "chip": "ym2612"
    },
    {
      "channel": 1,
      "note": 40,
      "start": 200.5892,
      "duration": 0.7885,
      "velocity": 97,
      "chip": "ym2612"
    },
    {
      "channel": 3,
      "note": 76,
      "start": 200.5899,
      "duration": 0.7885,
      "velocity": 100,
      "chip": "ym2612"
    },
    {
      "channel": 4,
      "note": 71,
      "start": 200.5907,
      "duration": 0.7885,
      "velocity": 100,
      "chip": "ym2612"
    },
    {
      "channel": 5,
      "note": 80,
      "start": 200.5914,
      "duration": 0.1879,
      "velocity": 97,
      "chip": "ym2612"
    },
    {
      "channel": 2,
      "note": 76,
      "start": 200.5922,
      "duration": 0.7885,
      "velocity": 100,
      "chip": "ym2612"
    },
    {
      "channel": 5,
      "note": 76,
      "start": 200.7798,
      "duration": 0.2039,
      "velocity": 97,
      "chip": "ym2612"
    },
    {
      "channel": 0,
      "note": 69,
      "start": 200.9825,
      "duration": 0.1891,
      "velocity": 105,
      "chip": "ym2612"
    },
    {
      "channel": 5,
      "note": 71,
      "start": 200.9843,
      "duration": 0.1892,
      "velocity": 97,
      "chip": "ym2612"
    },
    {
      "channel": 0,
      "note": 71,
      "start": 201.1723,
      "duration": 0.3934,
      "velocity": 105,
      "chip": "ym2612"
    },
    {
      "channel": 5,
      "note": 76,
      "start": 201.1741,
      "duration": 0.2058,
      "velocity": 97,
      "chip": "ym2612"
    },
    {
      "channel": 1,
      "note": 40,
      "start": 201.3783,
      "duration": 0.7863,
      "velocity": 97,
      "chip": "ym2612"
    },
    {
      "channel": 3,
      "note": 76,
      "start": 201.379,
      "duration": 0.7864,
      "velocity": 100,
      "chip": "ym2612"
    },
    {
      "channel": 4,
      "note": 71,
      "start": 201.3798,
      "duration": 0.7864,
      "velocity": 100,
      "chip": "ym2612"
    },
    {
      "channel": 5,
      "note": 80,
      "start": 201.3805,
      "duration": 0.187,
      "velocity": 97,
      "chip": "ym2612"
    },
    {
      "channel": 2,
      "note": 76,
      "start": 201.3812,
      "duration": 0.7866,
      "velocity": 100,
      "chip": "ym2612"
    },
    {
      "channel": 0,
      "note": 68,
      "start": 201.5663,
      "duration": 0.3948,
      "velocity": 105,
      "chip": "ym2612"
    },
    {
      "channel": 5,
      "note": 76,
      "start": 201.5682,
      "duration": 0.2033,
      "velocity": 97,
      "chip": "ym2612"
    },
    {
      "channel": 5,
      "note": 71,
      "start": 201.7721,
      "duration": 0.191,
      "velocity": 97,
      "chip": "ym2612"
    },
    {
      "channel": 0,
      "note": 64,
      "start": 201.9618,
      "duration": 0.9906,
      "velocity": 105,
      "chip": "ym2612"
    },
    {
      "channel": 5,
      "note": 76,
      "start": 201.9636,
      "duration": 0.2034,
      "velocity": 97,
      "chip": "ym2612"
    },
    {
      "channel": 1,
      "note": 45,
      "start": 202.1651,
      "duration": 0.7881,
      "velocity": 97,
      "chip": "ym2612"
    },
    {
      "channel": 3,
      "note": 73,
      "start": 202.1659,
      "duration": 0.788,
      "velocity": 100,
      "chip": "ym2612"
    },
    {
      "channel": 4,
      "note": 69,
      "start": 202.1667,
      "duration": 0.788,
      "velocity": 100,
      "chip": "ym2612"
    },
    {
      "channel": 5,
      "note": 76,
      "start": 202.1675,
      "duration": 0.1879,
      "velocity": 97,
      "chip": "ym2612"
    },
    {
      "channel": 2,
      "note": 73,
      "start": 202.1684,
      "duration": 0.7878,
      "velocity": 100,
      "chip": "ym2612"
    },
    {
      "channel": 5,
      "note": 73,
      "start": 202.356,
      "duration": 0.205,
      "velocity": 97,
      "chip": "ym2612"
    },
    {
      "channel": 5,
      "note": 69,
      "start": 202.5617,
      "duration": 0.1878,
      "velocity": 97,
      "chip": "ym2612"
    },
    {
      "channel": 5,
      "note": 73,
      "start": 202.7501,
      "duration": 0.2053,
      "velocity": 97,
      "chip": "ym2612"
    },
    {
      "channel": 0,
      "note": 69,
      "start": 202.9531,
      "duration": 0.7875,
      "velocity": 105,
      "chip": "ym2612"
    },
    {
      "channel": 1,
      "note": 44,
      "start": 202.9538,
      "duration": 0.7877,
      "velocity": 97,
      "chip": "ym2612"
    },
    {
      "channel": 3,
      "note": 76,
      "start": 202.9546,
      "duration": 0.7877,
      "velocity": 100,
      "chip": "ym2612"
    },
    {
      "channel": 4,
      "note": 73,
      "start": 202.9553,
      "duration": 0.789,
      "velocity": 100,
      "chip": "ym2612"
    },
    {
      "channel": 5,
      "note": 76,
      "start": 202.956,
      "duration": 0.1888,
      "velocity": 97,
      "chip": "ym2612"
    },
    {
      "channel": 2,
      "note": 76,
      "start": 202.9568,
      "duration": 0.789,
      "velocity": 100,
      "chip": "ym2612"
    },
    {
      "channel": 5,
      "note": 73,
      "start": 203.1454,
      "duration": 0.2025,
      "velocity": 97,
      "chip": "ym2612"
    },
    {
      "channel": 5,
      "note": 69,
      "start": 203.3485,
      "duration": 0.1892,
      "velocity": 97,
      "chip": "ym2612"
    },
    {
      "channel": 5,
      "note": 73,
      "start": 203.5383,
      "duration": 0.2067,
      "velocity": 97,
      "chip": "ym2612"
    },
    {
      "channel": 0,
      "note": 73,
      "start": 203.7413,
      "duration": 1.1815,
      "velocity": 105,
      "chip": "ym2612"
    },
    {
      "channel": 1,
      "note": 42,
      "start": 203.742,
      "duration": 0.7872,
      "velocity": 97,
      "chip": "ym2612"
    },
    {
      "channel": 3,
      "note": 81,
      "start": 203.7441,
      "duration": 0.7858,
      "velocity": 100,
      "chip": "ym2612"
    },
    {
      "channel": 4,
      "note": 78,
      "start": 203.7449,
      "duration": 0.7857,
      "velocity": 100,
      "chip": "ym2612"
    },
    {
      "channel": 5,
      "note": 78,
      "start": 203.7456,
      "duration": 0.1861,
      "velocity": 97,
      "chip": "ym2612"
    },
    {
      "channel": 2,
      "note": 81,
      "start": 203.7463,
      "duration": 0.7858,
      "velocity": 100,
      "chip": "ym2612"
    },
    {
      "channel": 5,
      "note": 73,
      "start": 203.9323,
      "duration": 0.2038,
      "velocity": 97,
      "chip": "ym2612"
    },
    {
      "channel": 5,
      "note": 69,
      "start": 204.1368,
      "duration": 0.1892,
      "velocity": 97,
      "chip": "ym2612"
    },
    {
      "channel": 5,
      "note": 73,
      "start": 204.3279,
      "duration": 0.2035,
      "velocity": 97,
      "chip": "ym2612"
    },
    {
      "channel": 1,
      "note": 40,
      "start": 204.5298,
      "duration": 0.7878,
      "velocity": 97,
      "chip": "ym2612"
    },
    {
      "channel": 3,
      "note": 80,
      "start": 204.5305,
      "duration": 0.7878,
      "velocity": 100,
      "chip": "ym2612"
    },
    {
      "channel": 4,
      "note": 76,
      "start": 204.5313,
      "duration": 0.7878,
      "velocity": 100,
      "chip": "ym2612"
    },
    {
      "channel": 5,
      "note": 78,
      "start": 204.532,
      "duration": 0.188,
      "velocity": 97,
      "chip": "ym2612"
    },
    {
      "channel": 2,
      "note": 80,
      "start": 204.5327,
      "duration": 0.7878,
      "velocity": 100,
      "chip": "ym2612"
    },
    {
      "channel": 5,
      "note": 73,
      "start": 204.7206,
      "duration": 0.204,
      "velocity": 97,
      "chip": "ym2612"
    },
    {
      "channel": 0,
      "note": 73,
      "start": 204.9234,
      "duration": 0.3935,
      "velocity": 105,
      "chip": "ym2612"
    },
    {
      "channel": 5,
      "note": 69,
      "start": 204.9252,
      "duration": 0.1888,
      "velocity": 97,
      "chip": "ym2612"
    },
    {
      "channel": 5,
      "note": 73,
      "start": 205.1146,
      "duration": 0.2052,
      "velocity": 97,
      "chip": "ym2612"
    },
    {
      "channel": 0,
      "note": 73,
      "start": 205.3174,
      "duration": 0.3938,
      "velocity": 105,
      "chip": "ym2612"
    },
    {
      "channel": 1,
      "note": 38,
      "start": 205.3182,
      "duration": 0.7877,
      "velocity": 97,
      "chip": "ym2612"
    },
    {
      "channel": 3,
      "note": 78,
      "start": 205.3189,
      "duration": 0.7878,
      "velocity": 100,
      "chip": "ym2612"
    },
    {
      "channel": 4,
      "note": 74,
      "start": 205.3196,
      "duration": 0.7877,
      "velocity": 100,
      "chip": "ym2612"
    },
    {
      "channel": 5,
      "note": 81,
      "start": 205.3204,
      "duration": 0.3927,
      "velocity": 97,
      "chip": "ym2612"
    },
    {
      "channel": 2,
      "note": 78,
      "start": 205.3212,
      "duration": 0.7877,
      "velocity": 100,
      "chip": "ym2612"
    },
    {
      "channel": 0,
      "note": 71,
      "start": 205.7119,
      "duration": 0.3932,
      "velocity": 105,
      "chip": "ym2612"
    },
    {
      "channel": 5,
      "note": 80,
      "start": 205.7137,
      "duration": 0.3945,
      "velocity": 97,
      "chip": "ym2612"
    },
    {
      "channel": 0,
      "note": 71,
      "start": 206.1058,
      "duration": 0.3935,
      "velocity": 105,
      "chip": "ym2612"
    },
    {
      "channel": 1,
      "note": 38,
      "start": 206.1065,
      "duration": 0.7889,
      "velocity": 97,
      "chip": "ym2612"
    },
    {
      "channel": 3,
      "note": 78,
      "start": 206.1072,
      "duration": 0.7888,
      "velocity": 100,
      "chip": "ym2612"
    },
    {
      "channel": 4,
      "note": 74,
      "start": 206.108,
      "duration": 0.7888,
      "velocity": 100,
      "chip": "ym2612"
    },
    {
      "channel": 5,
      "note": 80,
      "start": 206.1087,
      "duration": 0.3925,
      "velocity": 97,
      "chip": "ym2612"
    },
    {
      "channel": 2,
      "note": 78,
      "start": 206.1107,
      "duration": 0.7875,
      "velocity": 100,
      "chip": "ym2612"
    },
    {
      "channel": 0,
      "note": 69,
      "start": 206.5,
      "duration": 0.3945,
      "velocity": 105,
      "chip": "ym2612"
    },
    {
      "channel": 5,
      "note": 78,
      "start": 206.5018,
      "duration": 0.3957,
      "velocity": 97,
      "chip": "ym2612"
    },
    {
      "channel": 0,
      "note": 69,
      "start": 206.8951,
      "duration": 0.3923,
      "velocity": 105,
      "chip": "ym2612"
    },
    {
      "channel": 1,
      "note": 40,
      "start": 206.8959,
      "duration": 0.7865,
      "velocity": 97,
      "chip": "ym2612"
    },
    {
      "channel": 3,
      "note": 76,
      "start": 206.8966,
      "duration": 0.7865,
      "velocity": 100,
      "chip": "ym2612"
    },
    {
      "channel": 4,
      "note": 71,
      "start": 206.8974,
      "duration": 0.7865,
      "velocity": 100,
      "chip": "ym2612"
    },
    {
      "channel": 5,
      "note": 78,
      "start": 206.8981,
      "duration": 0.3912,
      "velocity": 97,
      "chip": "ym2612"
    },
    {
      "channel": 2,
      "note": 76,
      "start": 206.8988,
      "duration": 0.7864,
      "velocity": 100,
      "chip": "ym2612"
    },
    {
      "channel": 0,
      "note": 68,
      "start": 207.2881,
      "duration": 0.3934,
      "velocity": 105,
      "chip": "ym2612"
    },
    {
      "channel": 5,
      "note": 76,
      "start": 207.2899,
      "duration": 0.3946,
      "velocity": 97,
      "chip": "ym2612"
    },
    {
      "channel": 0,
      "note": 69,
      "start": 207.6822,
      "duration": 0.3935,
      "velocity": 105,
      "chip": "ym2612"
    },
    {
      "channel": 1,
      "note": 40,
      "start": 207.6829,
      "duration": 0.7878,
      "velocity": 97,
      "chip": "ym2612"
    },
    {
      "channel": 3,
      "note": 76,
      "start": 207.6836,
      "duration": 0.7879,
      "velocity": 100,
      "chip": "ym2612"
    },
    {
      "channel": 4,
      "note": 71,
      "start": 207.6844,
      "duration": 0.7879,
      "velocity": 100,
      "chip": "ym2612"
    },
    {
      "channel": 5,
      "note": 78,
      "start": 207.6851,
      "duration": 0.3938,
      "velocity": 97,
      "chip": "ym2612"
    },
    {
      "channel": 2,
      "note": 76,
      "start": 207.6859,
      "duration": 0.7881,
      "velocity": 100,
      "chip": "ym2612"
    },
    {
      "channel": 0,
      "note": 71,
      "start": 208.0777,
      "duration": 0.3921,
      "velocity": 105,
      "chip": "ym2612"
    },
    {
      "channel": 5,
      "note": 80,
      "start": 208.0795,
      "duration": 0.3936,
      "velocity": 97,
      "chip": "ym2612"
    },
    {
      "channel": 0,
      "note": 71,
      "start": 208.4705,
      "duration": 1.1816,
      "velocity": 105,
      "chip": "ym2612"
    },
    {
      "channel": 1,
      "note": 45,
      "start": 208.4713,
      "duration": 0.7871,
      "velocity": 97,
      "chip": "ym2612"
    },
    {
      "channel": 3,
      "note": 74,
      "start": 208.4721,
      "duration": 0.787,
      "velocity": 100,
      "chip": "ym2612"
    },
    {
      "channel": 4,
      "note": 71,
      "start": 208.4729,
      "duration": 0.7884,
      "velocity": 100,
      "chip": "ym2612"
    },
    {
      "channel": 5,
      "note": 74,
      "start": 208.4737,
      "duration": 1.1802,
      "velocity": 97,
      "chip": "ym2612"
    },
    {
      "channel": 2,
      "note": 74,
      "start": 208.4745,
      "duration": 0.7878,
      "velocity": 100,
      "chip": "ym2612"
    },
    {
      "channel": 1,
      "note": 45,
      "start": 209.259,
      "duration": 0.7876,
      "velocity": 97,
      "chip": "ym2612"
    },
    {
      "channel": 3,
      "note": 73,
      "start": 209.261,
      "duration": 0.7863,
      "velocity": 100,
      "chip": "ym2612"
    },
    {
      "channel": 4,
      "note": 69,
      "start": 209.2618,
      "duration": 0.7862,
      "velocity": 100,
      "chip": "ym2612"
    },
    {
      "channel": 2,
      "note": 73,
      "start": 209.2629,
      "duration": 0.7862,
      "velocity": 100,
      "chip": "ym2612"
    },
    {
      "channel": 0,
      "note": 69,
      "start": 209.6527,
      "duration": 1.9724,
      "velocity": 105,
      "chip": "ym2612"
    },
    {
      "channel": 5,
      "note": 73,
      "start": 209.6546,
      "duration": 1.9779,
      "velocity": 97,
      "chip": "ym2612"
    },
    {
      "channel": 1,
      "note": 47,
      "start": 210.0471,
      "duration": 0.7877,
      "velocity": 97,
      "chip": "ym2612"
    },
    {
      "channel": 3,
      "note": 74,
      "start": 210.0479,
      "duration": 0.7876,
      "velocity": 100,
      "chip": "ym2612"
    },
    {
      "channel": 4,
      "note": 71,
      "start": 210.0486,
      "duration": 0.7876,
      "velocity": 100,
      "chip": "ym2612"
    },
    {
      "channel": 2,
      "note": 74,
      "start": 210.0497,
      "duration": 0.7876,
      "velocity": 100,
      "chip": "ym2612"
    },
    {
      "channel": 1,
      "note": 49,
      "start": 210.8354,
      "duration": 0.792,
      "velocity": 97,
      "chip": "ym2612"
    },
    {
      "channel": 3,
      "note": 76,
      "start": 210.8361,
      "duration": 0.7922,
      "velocity": 100,
      "chip": "ym2612"
    },
    {
      "channel": 4,
      "note": 73,
      "start": 210.8369,
      "duration": 0.7922,
      "velocity": 100,
      "chip": "ym2612"
    },
    {
      "channel": 2,
      "note": 76,
      "start": 210.838,
      "duration": 0.7955,
      "velocity": 100,
      "chip": "ym2612"
    },
    {
      "channel": 0,
      "note": 66,
      "start": 211.6258,
      "duration": 1.5731,
      "velocity": 105,
      "chip": "ym2612"
    },
    {
      "channel": 1,
      "note": 38,
      "start": 211.628,
      "duration": 0.7837,
      "velocity": 97,
      "chip": "ym2612"
    },
    {
      "channel": 3,
      "note": 86,
      "start": 211.6289,
      "duration": 0.7834,
      "velocity": 100,
      "chip": "ym2612"
    },
    {
      "channel": 4,
      "note": 81,
      "start": 211.6297,
      "duration": 0.7834,
      "velocity": 100,
      "chip": "ym2612"
    },
    {
      "channel": 5,
      "note": 78,
      "start": 211.6331,
      "duration": 0.1806,
      "velocity": 97,
      "chip": "ym2612"
    },
    {
      "channel": 2,
      "note": 86,
      "start": 211.6341,
      "duration": 0.7805,
      "velocity": 100,
      "chip": "ym2612"
    },
    {
      "channel": 5,
      "note": 74,
      "start": 211.8144,
      "duration": 0.2038,
      "velocity": 97,
      "chip": "ym2612"
    },
    {
      "channel": 5,
      "note": 69,
      "start": 212.0188,
      "duration": 0.1892,
      "velocity": 97,
      "chip": "ym2612"
    },
    {
      "channel": 5,
      "note": 74,
      "start": 212.2086,
      "duration": 0.2053,
      "velocity": 97,
      "chip": "ym2612"
    },
    {
      "channel": 1,
      "note": 38,
      "start": 212.4122,
      "duration": 0.7875,
      "velocity": 97,
      "chip": "ym2612"
    },
    {
      "channel": 3,
      "note": 86,
      "start": 212.4129,
      "duration": 0.7876,
      "velocity": 100,
      "chip": "ym2612"
    },
    {
      "channel": 4,
      "note": 81,
      "start": 212.4137,
      "duration": 0.7875,
      "velocity": 100,
      "chip": "ym2612"
    },
    {
      "channel": 5,
      "note": 78,
      "start": 212.4144,
      "duration": 0.1875,
      "velocity": 97,
      "chip": "ym2612"
    },
    {
      "channel": 2,
      "note": 86,
      "start": 212.4152,
      "duration": 0.7875,
      "velocity": 100,
      "chip": "ym2612"
    },
    {
      "channel": 5,
      "note": 74,
      "start": 212.6025,
      "duration": 0.2038,
      "velocity": 97,
      "chip": "ym2612"
    },
    {
      "channel": 5,
      "note": 69,
      "start": 212.807,
      "duration": 0.189,
      "velocity": 97,
      "chip": "ym2612"
    },
    {
      "channel": 5,
      "note": 74,
      "start": 212.9967,
      "duration": 0.2054,
      "velocity": 97,
      "chip": "ym2612"
    },
    {
      "channel": 0,
      "note": 68,
      "start": 213.1996,
      "duration": 0.3949,
      "velocity": 105,
      "chip": "ym2612"
    },
    {
      "channel": 1,
      "note": 40,
      "start": 213.2003,
      "duration": 0.7872,
      "velocity": 97,
      "chip": "ym2612"
    },
    {
      "channel": 3,
      "note": 88,
      "start": 213.2011,
      "duration": 0.7871,
      "velocity": 100,
      "chip": "ym2612"
    },
    {
      "channel": 4,
      "note": 83,
      "start": 213.2018,
      "duration": 0.7872,
      "velocity": 100,
      "chip": "ym2612"
    },
    {
      "channel": 5,
      "note": 80,
      "start": 213.2026,
      "duration": 0.1875,
      "velocity": 97,
      "chip": "ym2612"
    },
    {
      "channel": 2,
      "note": 88,
      "start": 213.2034,
      "duration": 0.7871,
      "velocity": 100,
      "chip": "ym2612"
    },
    {
      "channel": 5,
      "note": 76,
      "start": 213.3907,
      "duration": 0.2056,
      "velocity": 97,
      "chip": "ym2612"
    },
    {
      "channel": 0,
      "note": 69,
      "start": 213.5951,
      "duration": 0.1877,
      "velocity": 105,
      "chip": "ym2612"
    },
    {
      "channel": 5,
      "note": 71,
      "start": 213.5969,
      "duration": 0.1878,
      "velocity": 97,
      "chip": "ym2612"
    },
    {
      "channel": 0,
      "note": 71,
      "start": 213.7835,
      "duration": 0.3943,
      "velocity": 105,
      "chip": "ym2612"
    },
    {
      "channel": 5,
      "note": 76,
      "start": 213.7853,
      "duration": 0.2044,
      "velocity": 97,
      "chip": "ym2612"
    },
    {
      "channel": 1,
      "note": 40,
      "start": 213.9881,
      "duration": 0.7876,
      "velocity": 97,
      "chip": "ym2612"
    },
    {
      "channel": 3,
      "note": 88,
      "start": 213.9888,
      "duration": 0.789,
      "velocity": 100,
      "chip": "ym2612"
    },
    {
      "channel": 4,
      "note": 83,
      "start": 213.9896,
      "duration": 0.789,
      "velocity": 100,
      "chip": "ym2612"
    },
    {
      "channel": 5,
      "note": 80,
      "start": 213.9903,
      "duration": 0.1894,
      "velocity": 97,
      "chip": "ym2612"
    },
    {
      "channel": 2,
      "note": 88,
      "start": 213.9911,
      "duration": 0.789,
      "velocity": 100,
      "chip": "ym2612"
    },
    {
      "channel": 0,
      "note": 68,
      "start": 214.1785,
      "duration": 0.3926,
      "velocity": 105,
      "chip": "ym2612"
    },
    {
      "channel": 5,
      "note": 76,
      "start": 214.1803,
      "duration": 0.2023,
      "velocity": 97,
      "chip": "ym2612"
    },
    {
      "channel": 5,
      "note": 71,
      "start": 214.3832,
      "duration": 0.1898,
      "velocity": 97,
      "chip": "ym2612"
    },
    {
      "channel": 0,
      "note": 64,
      "start": 214.5718,
      "duration": 1.78,
      "velocity": 105,
      "chip": "ym2612"
    },
    {
      "channel": 5,
      "note": 76,
      "start": 214.5736,
      "duration": 0.2058,
      "velocity": 97,
      "chip": "ym2612"
    },
    {
      "channel": 1,
      "note": 45,
      "start": 214.7776,
      "duration": 0.7864,
      "velocity": 97,
      "chip": "ym2612"
    },
    {
      "channel": 3,
      "note": 85,
      "start": 214.7784,
      "duration": 0.7863,
      "velocity": 100,
      "chip": "ym2612"
    },
    {
      "channel": 4,
      "note": 81,
      "start": 214.7792,
      "duration": 0.7863,
      "velocity": 100,
      "chip": "ym2612"
    },
    {
      "channel": 5,
      "note": 76,
      "start": 214.7799,
      "duration": 0.1866,
      "velocity": 97,
      "chip": "ym2612"
    },
    {
      "channel": 2,
      "note": 85,
      "start": 214.7807,
      "duration": 0.7863,
      "velocity": 100,
      "chip": "ym2612"
    },
    {
      "channel": 5,
      "note": 73,
      "start": 214.9672,
      "duration": 0.2037,
      "velocity": 97,
      "chip": "ym2612"
    },
    {
      "channel": 5,
      "note": 69,
      "start": 215.1715,
      "duration": 0.1905,
      "velocity": 97,
      "chip": "ym2612"
    },
    {
      "channel": 5,
      "note": 73,
      "start": 215.3626,
      "duration": 0.2037,
      "velocity": 97,
      "chip": "ym2612"
    },
    {
      "channel": 1,
      "note": 45,
      "start": 215.5646,
      "duration": 0.788,
      "velocity": 97,
      "chip": "ym2612"
    },
    {
      "channel": 3,
      "note": 85,
      "start": 215.5654,
      "duration": 0.7879,
      "velocity": 100,
      "chip": "ym2612"
    },
    {
      "channel": 4,
      "note": 81,
      "start": 215.5661,
      "duration": 0.7879,
      "velocity": 100,
      "chip": "ym2612"
    },
    {
      "channel": 5,
      "note": 76,
      "start": 215.5668,
      "duration": 0.188,
      "velocity": 97,
      "chip": "ym2612"
    },
    {
      "channel": 2,
      "note": 85,
      "start": 215.5676,
      "duration": 0.7879,
      "velocity": 100,
      "chip": "ym2612"
    },
    {
      "channel": 5,
      "note": 73,
      "start": 215.7554,
      "duration": 0.2038,
      "velocity": 97,
      "chip": "ym2612"
    },
    {
      "channel": 5,
      "note": 69,
      "start": 215.9611,
      "duration": 0.1878,
      "velocity": 97,
      "chip": "ym2612"
    },
    {
      "channel": 5,
      "note": 73,
      "start": 216.1495,
      "duration": 0.2053,
      "velocity": 97,
      "chip": "ym2612"
    },
    {
      "channel": 0,
      "note": 66,
      "start": 216.3524,
      "duration": 0.3935,
      "velocity": 105,
      "chip": "ym2612"
    },
    {
      "channel": 1,
      "note": 42,
      "start": 216.3531,
      "duration": 0.7871,
      "velocity": 97,
      "chip": "ym2612"
    },
    {
      "channel": 3,
      "note": 85,
      "start": 216.3539,
      "duration": 0.7872,
      "velocity": 100,
      "chip": "ym2612"
    },
    {
      "channel": 4,
      "note": 82,
      "start": 216.3546,
      "duration": 0.7871,
      "velocity": 100,
      "chip": "ym2612"
    },
    {
      "channel": 5,
      "note": 78,
      "start": 216.3554,
      "duration": 0.1888,
      "velocity": 97,
      "chip": "ym2612"
    },
    {
      "channel": 2,
      "note": 85,
      "start": 216.3561,
      "duration": 0.7884,
      "velocity": 100,
      "chip": "ym2612"
    },
    {
      "channel": 5,
      "note": 73,
      "start": 216.5448,
      "duration": 0.2029,
      "velocity": 97,
      "chip": "ym2612"
    },
    {
      "channel": 0,
      "note": 67,
      "start": 216.7466,
      "duration": 0.189,
      "velocity": 105,
      "chip": "ym2612"
    },
    {
      "channel": 5,
      "note": 70,
      "start": 216.7484,
      "duration": 0.1891,
      "velocity": 97,
      "chip": "ym2612"
    },
    {
      "channel": 0,
      "note": 66,
      "start": 216.9363,
      "duration": 0.3934,
      "velocity": 105,
      "chip": "ym2612"
    },
    {
      "channel": 5,
      "note": 73,
      "start": 216.9381,
      "duration": 0.2044,
      "velocity": 97,
      "chip": "ym2612"
    },
    {
      "channel": 1,
      "note": 42,
      "start": 217.1408,
      "duration": 0.7877,
      "velocity": 97,
      "chip": "ym2612"
    },
    {
      "channel": 3,
      "note": 85,
      "start": 217.1416,
      "duration": 0.7876,
      "velocity": 100,
      "chip": "ym2612"
    },
    {
      "channel": 4,
      "note": 82,
      "start": 217.1423,
      "duration": 0.7876,
      "velocity": 100,
      "chip": "ym2612"
    },
    {
      "channel": 5,
      "note": 66,
      "start": 217.1444,
      "duration": 0.1871,
      "velocity": 97,
      "chip": "ym2612"
    },
    {
      "channel": 2,
      "note": 85,
      "start": 217.1451,
      "duration": 0.7863,
      "velocity": 100,
      "chip": "ym2612"
    },
    {
      "channel": 0,
      "note": 61,
      "start": 217.3303,
      "duration": 0.3934,
      "velocity": 105,
      "chip": "ym2612"
    },
    {
      "channel": 5,
      "note": 70,
      "start": 217.3322,
      "duration": 0.2032,
      "velocity": 97,
      "chip": "ym2612"
    },
    {
      "channel": 5,
      "note": 73,
      "start": 217.5361,
      "duration": 0.1896,
      "velocity": 97,
      "chip": "ym2612"
    },
    {
      "channel": 0,
      "note": 62,
      "start": 217.7245,
      "duration": 1.3866,
      "velocity": 105,
      "chip": "ym2612"
    },
    {
      "channel": 5,
      "note": 76,
      "start": 217.7276,
      "duration": 0.2031,
      "velocity": 97,
      "chip": "ym2612"
    },
    {
      "channel": 1,
      "note": 47,
      "start": 217.929,
      "duration": 0.7878,
      "velocity": 97,
      "chip": "ym2612"
    },
    {
      "channel": 3,
      "note": 83,
      "start": 217.9298,
      "duration": 0.7877,
      "velocity": 100,
      "chip": "ym2612"
    },
    {
      "channel": 4,
      "note": 78,
      "start": 217.9305,
      "duration": 0.7878,
      "velocity": 100,
      "chip": "ym2612"
    },
    {
      "channel": 5,
      "note": 74,
      "start": 217.9313,
      "duration": 0.1882,
      "velocity": 97,
      "chip": "ym2612"
    },
    {
      "channel": 2,
      "note": 83,
      "start": 217.932,
      "duration": 0.7877,
      "velocity": 100,
      "chip": "ym2612"
    },
    {
      "channel": 5,
      "note": 71,
      "start": 218.12,
      "duration": 0.2037,
      "velocity": 97,
      "chip": "ym2612"
    },
    {
      "channel": 5,
      "note": 66,
      "start": 218.3244,
      "duration": 0.1891,
      "velocity": 97,
      "chip": "ym2612"
    },
    {
      "channel": 5,
      "note": 71,
      "start": 218.514,
      "duration": 0.205,
      "velocity": 97,
      "chip": "ym2612"
    },
    {
      "channel": 1,
      "note": 47,
      "start": 218.7174,
      "duration": 0.788,
      "velocity": 97,
      "chip": "ym2612"
    },
    {
      "channel": 3,
      "note": 83,
      "start": 218.7182,
      "duration": 0.7879,
      "velocity": 100,
      "chip": "ym2612"
    },
    {
      "channel": 4,
      "note": 78,
      "start": 218.7189,
      "duration": 0.788,
      "velocity": 100,
      "chip": "ym2612"
    },
    {
      "channel": 5,
      "note": 74,
      "start": 218.7196,
      "duration": 0.188,
      "velocity": 97,
      "chip": "ym2612"
    },
    {
      "channel": 2,
      "note": 83,
      "start": 218.7204,
      "duration": 0.7879,
      "velocity": 100,
      "chip": "ym2612"
    },
    {
      "channel": 5,
      "note": 71,
      "start": 218.9082,
      "duration": 0.2048,
      "velocity": 97,
      "chip": "ym2612"
    },
    {
      "channel": 0,
      "note": 61,
      "start": 219.1118,
      "duration": 0.3927,
      "velocity": 105,
      "chip": "ym2612"
    },
    {
      "channel": 5,
      "note": 66,
      "start": 219.1136,
      "duration": 0.188,
      "velocity": 97,
      "chip": "ym2612"
    },
    {
      "channel": 5,
      "note": 71,
      "start": 219.3022,
      "duration": 0.2054,
      "velocity": 97,
      "chip": "ym2612"
    },
    {
      "channel": 0,
      "note": 59,
      "start": 219.5052,
      "duration": 0.3934,
      "velocity": 105,
      "chip": "ym2612"
    },
    {
      "channel": 1,
      "note": 40,
      "start": 219.5059,
      "duration": 0.789,
      "velocity": 97,
      "chip": "ym2612"
    },
    {
      "channel": 3,
      "note": 80,
      "start": 219.5067,
      "duration": 0.789,
      "velocity": 100,
      "chip": "ym2612"
    },
    {
      "channel": 4,
      "note": 80,
      "start": 219.5074,
      "duration": 0.789,
      "velocity": 100,
      "chip": "ym2612"
    },
    {
      "channel": 5,
      "note": 74,
      "start": 219.5082,
      "duration": 0.1878,
      "velocity": 97,
      "chip": "ym2612"
    },
    {
      "channel": 2,
      "note": 80,
      "start": 219.5089,
      "duration": 0.789,
      "velocity": 100,
      "chip": "ym2612"
    },
    {
      "channel": 5,
      "note": 71,
      "start": 219.6966,
      "duration": 0.2039,
      "velocity": 97,
      "chip": "ym2612"
    },
    {
      "channel": 0,
      "note": 66,
      "start": 219.8993,
      "duration": 0.3949,
      "velocity": 105,
      "chip": "ym2612"
    },
    {
      "channel": 5,
      "note": 64,
      "start": 219.9011,
      "duration": 0.1887,
      "velocity": 97,
      "chip": "ym2612"
    },
    {
      "channel": 5,
      "note": 71,
      "start": 220.0904,
      "duration": 0.2068,
      "velocity": 97,
      "chip": "ym2612"
    },
    {
      "channel": 0,
      "note": 64,
      "start": 220.2948,
      "duration": 0.392,
      "velocity": 105,
      "chip": "ym2612"
    },
    {
      "channel": 1,
      "note": 40,
      "start": 220.2955,
      "duration": 0.7862,
      "velocity": 97,
      "chip": "ym2612"
    },
    {
      "channel": 3,
      "note": 80,
      "start": 220.2963,
      "duration": 0.7861,
      "velocity": 100,
      "chip": "ym2612"
    },
    {
      "channel": 4,
      "note": 80,
      "start": 220.297,
      "duration": 0.7862,
      "velocity": 100,
      "chip": "ym2612"
    },
    {
      "channel": 5,
      "note": 74,
      "start": 220.2978,
      "duration": 0.1862,
      "velocity": 97,
      "chip": "ym2612"
    },
    {
      "channel": 2,
      "note": 80,
      "start": 220.2985,
      "duration": 0.7862,
      "velocity": 100,
      "chip": "ym2612"
    },
    {
      "channel": 5,
      "note": 71,
      "start": 220.4845,
      "duration": 0.2042,
      "velocity": 97,
      "chip": "ym2612"
    },
    {
      "channel": 0,
      "note": 62,
      "start": 220.6875,
      "duration": 0.3934,
      "velocity": 105,
      "chip": "ym2612"
    },
    {
      "channel": 5,
      "note": 64,
      "start": 220.6893,
      "duration": 0.19,
      "velocity": 97,
      "chip": "ym2612"
    },
    {
      "channel": 5,
      "note": 71,
      "start": 220.8798,
      "duration": 0.2041,
      "velocity": 97,
      "chip": "ym2612"
    },
    {
      "channel": 0,
      "note": 61,
      "start": 221.0816,
      "duration": 0.3934,
      "velocity": 105,
      "chip": "ym2612"
    },
    {
      "channel": 1,
      "note": 45,
      "start": 221.0823,
      "duration": 0.7872,
      "velocity": 97,
      "chip": "ym2612"
    },
    {
      "channel": 3,
      "note": 81,
      "start": 221.0831,
      "duration": 0.7871,
      "velocity": 100,
      "chip": "ym2612"
    },
    {
      "channel": 4,
      "note": 81,
      "start": 221.0838,
      "duration": 0.7871,
      "velocity": 100,
      "chip": "ym2612"
    },
    {
      "channel": 5,
      "note": 73,
      "start": 221.0845,
      "duration": 0.1876,
      "velocity": 97,
      "chip": "ym2612"
    },
    {
      "channel": 2,
      "note": 81,
      "start": 221.0853,
      "duration": 0.7872,
      "velocity": 100,
      "chip": "ym2612"
    },
    {
      "channel": 5,
      "note": 69,
      "start": 221.2727,
      "duration": 0.2056,
      "velocity": 97,
      "chip": "ym2612"
    },
    {
      "channel": 0,
      "note": 62,
      "start": 221.4757,
      "duration": 0.189,
      "velocity": 105,
      "chip": "ym2612"
    },
    {
      "channel": 5,
      "note": 64,
      "start": 221.4789,
      "duration": 0.1877,
      "velocity": 97,
      "chip": "ym2612"
    },
    {
      "channel": 0,
      "note": 64,
      "start": 221.6654,
      "duration": 2.5683,
      "velocity": 105,
      "chip": "ym2612"
    },
    {
      "channel": 5,
      "note": 69,
      "start": 221.6672,
      "duration": 0.2045,
      "velocity": 97,
      "chip": "ym2612"
    },
    {
      "channel": 1,
      "note": 45,
      "start": 221.8701,
      "duration": 0.7877,
      "velocity": 97,
      "chip": "ym2612"
    },
    {
      "channel": 3,
      "note": 85,
      "start": 221.8708,
      "duration": 0.1901,
      "velocity": 100,
      "chip": "ym2612"
    },
    {
      "channel": 4,
      "note": 81,
      "start": 221.8716,
      "duration": 0.7877,
      "velocity": 100,
      "chip": "ym2612"
    },
    {
      "channel": 5,
      "note": 73,
      "start": 221.8723,
      "duration": 0.1898,
      "velocity": 97,
      "chip": "ym2612"
    },
    {
      "channel": 2,
      "note": 85,
      "start": 221.8731,
      "duration": 0.1898,
      "velocity": 100,
      "chip": "ym2612"
    },
    {
      "channel": 3,
      "note": 81,
      "start": 222.0616,
      "duration": 0.2024,
      "velocity": 100,
      "chip": "ym2612"
    },
    {
      "channel": 5,
      "note": 69,
      "start": 222.0627,
      "duration": 0.2024,
      "velocity": 97,
      "chip": "ym2612"
    },
    {
      "channel": 2,
      "note": 81,
      "start": 222.0635,
      "duration": 0.2024,
      "velocity": 100,
      "chip": "ym2612"
    },
    {
      "channel": 3,
      "note": 85,
      "start": 222.2646,
      "duration": 0.1891,
      "velocity": 100,
      "chip": "ym2612"
    },
    {
      "channel": 5,
      "note": 64,
      "start": 222.2657,
      "duration": 0.1892,
      "velocity": 97,
      "chip": "ym2612"
    },
    {
      "channel": 2,
      "note": 85,
      "start": 222.2665,
      "duration": 0.1892,
      "velocity": 100,
      "chip": "ym2612"
    },
    {
      "channel": 3,
      "note": 88,
      "start": 222.4544,
      "duration": 0.2041,
      "velocity": 100,
      "chip": "ym2612"
    },
    {
      "channel": 5,
      "note": 69,
      "start": 222.4554,
      "duration": 0.2059,
      "velocity": 97,
      "chip": "ym2612"
    },
    {
      "channel": 2,
      "note": 88,
      "start": 222.4562,
      "duration": 0.2059,
      "velocity": 100,
      "chip": "ym2612"
    },
    {
      "channel": 1,
      "note": 45,
      "start": 222.6584,
      "duration": 0.7876,
      "velocity": 97,
      "chip": "ym2612"
    },
    {
      "channel": 3,
      "note": 93,
      "start": 222.6591,
      "duration": 0.3931,
      "velocity": 100,
      "chip": "ym2612"
    },
    {
      "channel": 4,
      "note": 81,
      "start": 222.6612,
      "duration": 0.7863,
      "velocity": 100,
      "chip": "ym2612"
    },
    {
      "channel": 5,
      "note": 73,
      "start": 222.662,
      "duration": 0.1866,
      "velocity": 97,
      "chip": "ym2612"
    },
    {
      "channel": 2,
      "note": 93,
      "start": 222.6627,
      "duration": 0.3914,
      "velocity": 100,
      "chip": "ym2612"
    },
    {
      "channel": 5,
      "note": 69,
      "start": 222.8492,
      "duration": 0.2042,
      "velocity": 97,
      "chip": "ym2612"
    },
    {
      "channel": 3,
      "note": 91,
      "start": 223.0529,
      "duration": 0.3938,
      "velocity": 100,
      "chip": "ym2612"
    },
    {
      "channel": 5,
      "note": 67,
      "start": 223.054,
      "duration": 0.1901,
      "velocity": 97,
      "chip": "ym2612"
    },
    {
      "channel": 2,
      "note": 91,
      "start": 223.0548,
      "duration": 0.3942,
      "velocity": 100,
      "chip": "ym2612"
    },
    {
      "channel": 5,
      "note": 69,
      "start": 223.2446,
      "duration": 0.2036,
      "velocity": 97,
      "chip": "ym2612"
    },
    {
      "channel": 1,
      "note": 45,
      "start": 223.4466,
      "duration": 0.788,
      "velocity": 97,
      "chip": "ym2612"
    },
    {
      "channel": 3,
      "note": 90,
      "start": 223.4473,
      "duration": 0.3931,
      "velocity": 100,
      "chip": "ym2612"
    },
    {
      "channel": 4,
      "note": 81,
      "start": 223.4481,
      "duration": 0.788,
      "velocity": 100,
      "chip": "ym2612"
    },
    {
      "channel": 5,
      "note": 73,
      "start": 223.4488,
      "duration": 0.188,
      "velocity": 97,
      "chip": "ym2612"
    },
    {
      "channel": 2,
      "note": 90,
      "start": 223.4496,
      "duration": 0.3927,
      "velocity": 100,
      "chip": "ym2612"
    },
    {
      "channel": 5,
      "note": 69,
      "start": 223.6374,
      "duration": 0.2041,
      "velocity": 97,
      "chip": "ym2612"
    },
    {
      "channel": 3,
      "note": 88,
      "start": 223.8411,
      "duration": 0.3942,
      "velocity": 100,
      "chip": "ym2612"
    },
    {
      "channel": 5,
      "note": 67,
      "start": 223.8422,
      "duration": 0.1888,
      "velocity": 97,
      "chip": "ym2612"
    },
    {
      "channel": 2,
      "note": 88,
      "start": 223.8442,
      "duration": 0.3934,
      "velocity": 100,
      "chip": "ym2612"
    },
    {
      "channel": 5,
      "note": 69,
      "start": 224.0315,
      "duration": 0.2053,
      "velocity": 97,
      "chip": "ym2612"
    },
    {
      "channel": 0,
      "note": 66,
      "start": 224.2344,
      "duration": 1.5768,
      "velocity": 105,
      "chip": "ym2612"
    },
    {
      "channel": 1,
      "note": 38,
      "start": 224.2351,
      "duration": 0.7873,
      "velocity": 97,
      "chip": "ym2612"
    },
    {
      "channel": 3,
      "note": 86,
      "start": 224.2359,
      "duration": 0.7872,
      "velocity": 100,
      "chip": "ym2612"
    },
    {
      "channel": 4,
      "note": 81,
      "start": 224.2367,
      "duration": 0.7872,
      "velocity": 100,
      "chip": "ym2612"
    },
    {
      "channel": 5,
      "note": 78,
      "start": 224.2374,
      "duration": 0.1875,
      "velocity": 97,
      "chip": "ym2612"
    },
    {
      "channel": 2,
      "note": 86,
      "start": 224.2382,
      "duration": 0.7872,
      "velocity": 100,
      "chip": "ym2612"
    },
    {
      "channel": 5,
      "note": 74,
      "start": 224.4255,
      "duration": 0.2039,
      "velocity": 97,
      "chip": "ym2612"
    },
    {
      "channel": 5,
      "note": 69,
      "start": 224.6299,
      "duration": 0.1893,
      "velocity": 97,
      "chip": "ym2612"
    },
    {
      "channel": 5,
      "note": 74,
      "start": 224.8198,
      "duration": 0.2049,
      "velocity": 97,
      "chip": "ym2612"
    },
    {
      "channel": 1,
      "note": 38,
      "start": 225.023,
      "duration": 0.789,
      "velocity": 97,
      "chip": "ym2612"
    },
    {
      "channel": 3,
      "note": 86,
      "start": 225.0238,
      "duration": 0.7889,
      "velocity": 100,
      "chip": "ym2612"
    },
    {
      "channel": 4,
      "note": 81,
      "start": 225.0245,
      "duration": 0.7889,
      "velocity": 100,
      "chip": "ym2612"
    },
    {
      "channel": 5,
      "note": 78,
      "start": 225.0252,
      "duration": 0.188,
      "velocity": 97,
      "chip": "ym2612"
    },
    {
      "channel": 2,
      "note": 86,
      "start": 225.0273,
      "duration": 0.7877,
      "velocity": 100,
      "chip": "ym2612"
    },
    {
      "channel": 5,
      "note": 74,
      "start": 225.2138,
      "duration": 0.2038,
      "velocity": 97,
      "chip": "ym2612"
    },
    {
      "channel": 5,
      "note": 69,
      "start": 225.4182,
      "duration": 0.1891,
      "velocity": 97,
      "chip": "ym2612"
    },
    {
      "channel": 5,
      "note": 74,
      "start": 225.6079,
      "duration": 0.2064,
      "velocity": 97,
      "chip": "ym2612"
    },
    {
      "channel": 0,
      "note": 68,
      "start": 225.8119,
      "duration": 0.3924,
      "velocity": 105,
      "chip": "ym2612"
    },
    {
      "channel": 1,
      "note": 40,
      "start": 225.8126,
      "duration": 0.7861,
      "velocity": 97,
      "chip": "ym2612"
    },
    {
      "channel": 3,
      "note": 88,
      "start": 225.8133,
      "duration": 0.7861,
      "velocity": 100,
      "chip": "ym2612"
    },
    {
      "channel": 4,
      "note": 83,
      "start": 225.8141,
      "duration": 0.7861,
      "velocity": 100,
      "chip": "ym2612"
    },
    {
      "channel": 5,
      "note": 80,
      "start": 225.8148,
      "duration": 0.1865,
      "velocity": 97,
      "chip": "ym2612"
    },
    {
      "channel": 2,
      "note": 88,
      "start": 225.8156,
      "duration": 0.7861,
      "velocity": 100,
      "chip": "ym2612"
    },
    {
      "channel": 5,
      "note": 76,
      "start": 226.002,
      "duration": 0.2041,
      "velocity": 97,
      "chip": "ym2612"
    },
    {
      "channel": 0,
      "note": 69,
      "start": 226.2049,
      "duration": 0.1896,
      "velocity": 105,
      "chip": "ym2612"
    },
    {
      "channel": 5,
      "note": 71,
      "start": 226.2067,
      "duration": 0.1897,
      "velocity": 97,
      "chip": "ym2612"
    },
    {
      "channel": 0,
      "note": 71,
      "start": 226.3952,
      "duration": 0.3929,
      "velocity": 105,
      "chip": "ym2612"
    },
    {
      "channel": 5,
      "note": 76,
      "start": 226.397,
      "duration": 0.2039,
      "velocity": 97,
      "chip": "ym2612"
    },
    {
      "channel": 1,
      "note": 40,
      "start": 226.5993,
      "duration": 0.7877,
      "velocity": 97,
      "chip": "ym2612"
    },
    {
      "channel": 3,
      "note": 88,
      "start": 226.6,
      "duration": 0.7878,
      "velocity": 100,
      "chip": "ym2612"
    },
    {
      "channel": 4,
      "note": 83,
      "start": 226.6008,
      "duration": 0.7878,
      "velocity": 100,
      "chip": "ym2612"
    },
    {
      "channel": 5,
      "note": 80,
      "start": 226.6015,
      "duration": 0.1885,
      "velocity": 97,
      "chip": "ym2612"
    },
    {
      "channel": 2,
      "note": 88,
      "start": 226.6023,
      "duration": 0.788,
      "velocity": 100,
      "chip": "ym2612"
    },
    {
      "channel": 0,
      "note": 68,
      "start": 226.7888,
      "duration": 0.3934,
      "velocity": 105,
      "chip": "ym2612"
    },
    {
      "channel": 5,
      "note": 76,
      "start": 226.7906,
      "duration": 0.2046,
      "velocity": 97,
      "chip": "ym2612"
    },
    {
      "channel": 5,
      "note": 71,
      "start": 226.9959,
      "duration": 0.1882,
      "velocity": 97,
      "chip": "ym2612"
    },
    {
      "channel": 0,
      "note": 64,
      "start": 227.1829,
      "duration": 0.992,
      "velocity": 105,
      "chip": "ym2612"
    },
    {
      "channel": 5,
      "note": 76,
      "start": 227.1846,
      "duration": 0.2048,
      "velocity": 97,
      "chip": "ym2612"
    },
    {
      "channel": 1,
      "note": 45,
      "start": 227.3876,
      "duration": 0.7881,
      "velocity": 97,
      "chip": "ym2612"
    },
    {
      "channel": 3,
      "note": 85,
      "start": 227.3884,
      "duration": 0.7894,
      "velocity": 100,
      "chip": "ym2612"
    },
    {
      "channel": 4,
      "note": 81,
      "start": 227.3892,
      "duration": 0.7894,
      "velocity": 100,
      "chip": "ym2612"
    },
    {
      "channel": 5,
      "note": 76,
      "start": 227.39,
      "duration": 0.1892,
      "velocity": 97,
      "chip": "ym2612"
    },
    {
      "channel": 2,
      "note": 85,
      "start": 227.3909,
      "duration": 0.7892,
      "velocity": 100,
      "chip": "ym2612"
    },
    {
      "channel": 5,
      "note": 73,
      "start": 227.5798,
      "duration": 0.2024,
      "velocity": 97,
      "chip": "ym2612"
    },
    {
      "channel": 5,
      "note": 69,
      "start": 227.7827,
      "duration": 0.1891,
      "velocity": 97,
      "chip": "ym2612"
    },
    {
      "channel": 5,
      "note": 73,
      "start": 227.9725,
      "duration": 0.2068,
      "velocity": 97,
      "chip": "ym2612"
    },
    {
      "channel": 0,
      "note": 69,
      "start": 228.1755,
      "duration": 0.8459,
      "velocity": 105,
      "chip": "ym2612"
    },
    {
      "channel": 1,
      "note": 44,
      "start": 228.1776,
      "duration": 0.8446,
      "velocity": 97,
      "chip": "ym2612"
    },
    {
      "channel": 3,
      "note": 88,
      "start": 228.1784,
      "duration": 0.8445,
      "velocity": 100,
      "chip": "ym2612"
    },
    {
      "channel": 4,
      "note": 85,
      "start": 228.1792,
      "duration": 0.8445,
      "velocity": 100,
      "chip": "ym2612"
    },
    {
      "channel": 5,
      "note": 76,
      "start": 228.1799,
      "duration": 0.1859,
      "velocity": 97,
      "chip": "ym2612"
    },
    {
      "channel": 2,
      "note": 88,
      "start": 228.1807,
      "duration": 0.8445,
      "velocity": 100,
      "chip": "ym2612"
    },
    {
      "channel": 5,
      "note": 73,
      "start": 228.3665,
      "duration": 0.2039,
      "velocity": 97,
      "chip": "ym2612"
    },
    {
      "channel": 5,
      "note": 69,
      "start": 228.571,
      "duration": 0.1905,
      "velocity": 97,
      "chip": "ym2612"
    },
    {
      "channel": 5,
      "note": 73,
      "start": 228.7621,
      "duration": 0.2623,
      "velocity": 97,
      "chip": "ym2612"
    },
    {
      "channel": 0,
      "note": 73,
      "start": 229.0221,
      "duration": 2.2676,
      "velocity": 105,
      "chip": "ym2612"
    },
    {
      "channel": 1,
      "note": 42,
      "start": 229.0228,
      "duration": 1.7797,
      "velocity": 97,
      "chip": "ym2612"
    },
    {
      "channel": 3,
      "note": 93,
      "start": 229.0236,
      "duration": 2.7557,
      "velocity": 100,
      "chip": "ym2612"
    },
    {
      "channel": 4,
      "note": 90,
      "start": 229.0244,
      "duration": 2.7557,
      "velocity": 100,
      "chip": "ym2612"
    },
    {
      "channel": 5,
      "note": 78,
      "start": 229.0251,
      "duration": 2.2662,
      "velocity": 97,
      "chip": "ym2612"
    },
    {
      "channel": 2,
      "note": 93,
      "start": 229.0259,
      "duration": 2.7557,
      "velocity": 100,
      "chip": "ym2612"
    },
    {
      "channel": 1,
      "note": 40,
      "start": 230.8031,
      "duration": 0.9754,
      "velocity": 97,
      "chip": "ym2612"
    },
    {
      "channel": 0,
      "note": 73,
      "start": 231.2901,
      "duration": 0.4878,
      "velocity": 105,
      "chip": "ym2612"
    },
    {
      "channel": 5,
      "note": 78,
      "start": 231.2918,
      "duration": 0.4891,
      "velocity": 97,
      "chip": "ym2612"
    },
    {
      "channel": 0,
      "note": 73,
      "start": 231.7784,
      "duration": 0.4863,
      "velocity": 105,
      "chip": "ym2612"
    },
    {
      "channel": 1,
      "note": 38,
      "start": 231.7791,
      "duration": 0.974,
      "velocity": 97,
      "chip": "ym2612"
    },
    {
      "channel": 3,
      "note": 90,
      "start": 231.7799,
      "duration": 0.974,
      "velocity": 100,
      "chip": "ym2612"
    },
    {
      "channel": 4,
      "note": 86,
      "start": 231.7807,
      "duration": 0.9739,
      "velocity": 100,
      "chip": "ym2612"
    },
    {
      "channel": 5,
      "note": 81,
      "start": 231.7815,
      "duration": 0.4851,
      "velocity": 97,
      "chip": "ym2612"
    },
    {
      "channel": 2,
      "note": 90,
      "start": 231.7822,
      "duration": 0.9739,
      "velocity": 100,
      "chip": "ym2612"
    },
    {
      "channel": 0,
      "note": 71,
      "start": 232.2654,
      "duration": 0.487,
      "velocity": 105,
      "chip": "ym2612"
    },
    {
      "channel": 5,
      "note": 80,
      "start": 232.2672,
      "duration": 0.4882,
      "velocity": 97,
      "chip": "ym2612"
    },
    {
      "channel": 0,
      "note": 71,
      "start": 232.753,
      "duration": 0.4869,
      "velocity": 105,
      "chip": "ym2612"
    },
    {
      "channel": 1,
      "note": 38,
      "start": 232.7537,
      "duration": 0.975,
      "velocity": 97,
      "chip": "ym2612"
    },
    {
      "channel": 3,
      "note": 90,
      "start": 232.7544,
      "duration": 0.9749,
      "velocity": 100,
      "chip": "ym2612"
    },
    {
      "channel": 4,
      "note": 86,
      "start": 232.7552,
      "duration": 0.9749,
      "velocity": 100,
      "chip": "ym2612"
    },
    {
      "channel": 5,
      "note": 80,
      "start": 232.756,
      "duration": 0.4857,
      "velocity": 97,
      "chip": "ym2612"
    },
    {
      "channel": 2,
      "note": 90,
      "start": 232.7567,
      "duration": 0.9749,
      "velocity": 100,
      "chip": "ym2612"
    },
    {
      "channel": 0,
      "note": 69,
      "start": 233.2405,
      "duration": 0.4873,
      "velocity": 105,
      "chip": "ym2612"
    },
    {
      "channel": 5,
      "note": 78,
      "start": 233.2423,
      "duration": 0.4886,
      "velocity": 97,
      "chip": "ym2612"
    },
    {
      "channel": 0,
      "note": 69,
      "start": 233.7285,
      "duration": 0.4864,
      "velocity": 105,
      "chip": "ym2612"
    },
    {
      "channel": 1,
      "note": 40,
      "start": 233.7292,
      "duration": 0.9741,
      "velocity": 97,
      "chip": "ym2612"
    },
    {
      "channel": 3,
      "note": 88,
      "start": 233.7299,
      "duration": 0.9741,
      "velocity": 100,
      "chip": "ym2612"
    },
    {
      "channel": 4,
      "note": 83,
      "start": 233.7307,
      "duration": 0.9741,
      "velocity": 100,
      "chip": "ym2612"
    },
    {
      "channel": 5,
      "note": 78,
      "start": 233.7315,
      "duration": 0.4853,
      "velocity": 97,
      "chip": "ym2612"
    },
    {
      "channel": 2,
      "note": 88,
      "start": 233.7322,
      "duration": 0.9741,
      "velocity": 100,
      "chip": "ym2612"
    },
    {
      "channel": 0,
      "note": 68,
      "start": 234.2156,
      "duration": 0.4869,
      "velocity": 105,
      "chip": "ym2612"
    },
    {
      "channel": 5,
      "note": 76,
      "start": 234.2173,
      "duration": 0.4882,
      "velocity": 97,
      "chip": "ym2612"
    },
    {
      "channel": 0,
      "note": 69,
      "start": 234.7032,
      "duration": 0.4869,
      "velocity": 105,
      "chip": "ym2612"
    },
    {
      "channel": 1,
      "note": 40,
      "start": 234.7039,
      "duration": 0.9748,
      "velocity": 97,
      "chip": "ym2612"
    },
    {
      "channel": 3,
      "note": 88,
      "start": 234.7046,
      "duration": 0.9747,
      "velocity": 100,
      "chip": "ym2612"
    },
    {
      "channel": 4,
      "note": 83,
      "start": 234.7054,
      "duration": 0.9747,
      "velocity": 100,
      "chip": "ym2612"
    },
    {
      "channel": 5,
      "note": 78,
      "start": 234.7061,
      "duration": 0.4858,
      "velocity": 97,
      "chip": "ym2612"
    },
    {
      "channel": 2,
      "note": 88,
      "start": 234.7068,
      "duration": 0.9748,
      "velocity": 100,
      "chip": "ym2612"
    },
    {
      "channel": 0,
      "note": 71,
      "start": 235.1907,
      "duration": 0.4871,
      "velocity": 105,
      "chip": "ym2612"
    },
    {
      "channel": 5,
      "note": 80,
      "start": 235.1925,
      "duration": 0.4884,
      "velocity": 97,
      "chip": "ym2612"
    },
    {
      "channel": 0,
      "note": 69,
      "start": 235.6785,
      "duration": 1.9494,
      "velocity": 105,
      "chip": "ym2612"
    },
    {
      "channel": 1,
      "note": 41,
      "start": 235.6793,
      "duration": 1.9494,
      "velocity": 97,
      "chip": "ym2612"
    },
    {
      "channel": 3,
      "note": 86,
      "start": 235.68,
      "duration": 1.9494,
      "velocity": 100,
      "chip": "ym2612"
    },
    {
      "channel": 4,
      "note": 81,
      "start": 235.6808,
      "duration": 1.9492,
      "velocity": 100,
      "chip": "ym2612"
    },
    {
      "channel": 5,
      "note": 65,
      "start": 235.6815,
      "duration": 1.9491,
      "velocity": 97,
      "chip": "ym2612"
    },
    {
      "channel": 2,
      "note": 86,
      "start": 235.6823,
      "duration": 1.949,
      "velocity": 100,
      "chip": "ym2612"
    },
    {
      "channel": 0,
      "note": 69,
      "start": 237.6285,
      "duration": 3.8996,
      "velocity": 105,
      "chip": "ym2612"
    },
    {
      "channel": 1,
      "note": 43,
      "start": 237.6293,
      "duration": 4.7115,
      "velocity": 97,
      "chip": "ym2612"
    },
    {
      "channel": 3,
      "note": 86,
      "start": 237.6299,
      "duration": 4.7116,
      "velocity": 100,
      "chip": "ym2612"
    },
    {
      "channel": 4,
      "note": 81,
      "start": 237.6305,
      "duration": 4.7118,
      "velocity": 100,
      "chip": "ym2612"
    },
    {
      "channel": 5,
      "note": 67,
      "start": 237.6312,
      "duration": 4.7131,
      "velocity": 97,
      "chip": "ym2612"
    },
    {
      "channel": 2,
      "note": 86,
      "start": 237.6318,
      "duration": 4.7133,
      "velocity": 100,
      "chip": "ym2612"
    },
    {
      "channel": 1,
      "note": 45,
      "start": 242.3413,
      "duration": 4.7124,
      "velocity": 97,
      "chip": "ym2612"
    },
    {
      "channel": 3,
      "note": 85,
      "start": 242.342,
      "duration": 4.712,
      "velocity": 100,
      "chip": "ym2612"
    },
    {
      "channel": 4,
      "note": 76,
      "start": 242.3442,
      "duration": 4.7102,
      "velocity": 100,
      "chip": "ym2612"
    },
    {
      "channel": 5,
      "note": 68,
      "start": 242.3449,
      "duration": 4.7099,
      "velocity": 97,
      "chip": "ym2612"
    },
    {
      "channel": 2,
      "note": 85,
      "start": 242.3456,
      "duration": 4.7095,
      "velocity": 100,
      "chip": "ym2612"
    }
  ]
}