{
  "track_name": "39 - Knuckles' Theme (S&K)",
  "duration_sec": 16.4,
  "sample_rate": 44100,
  "note_count": 315,
  "unique_pitches": 22,
  "pitch_range": 36,
  "avg_note_duration": 0.0816,
  "reconstruction_stats": {
    "notes_reconstructed": 315,
    "keyon_events": 315,
    "keyoff_events": 314,
    "orphan_keyons": 1,
    "unique_pitches": 22,
    "pitch_range": 36,
    "avg_duration_sec": 0.0816
  },
  "metadata": {
    "source": "S\\Sonic 3 & Knuckles\\39 - Knuckles' Theme (S&K).vgz"
  },
  "notes": [
    {
      "channel": 0,
      "note": 83,
      "start": 0.0,
      "duration": 0.0,
      "velocity": 103,
      "chip": "ym2612"
    },
    {
      "channel": 0,
      "note": 83,
      "start": 0.0,
      "duration": 0.0,
      "velocity": 1,
      "chip": "ym2612"
    },
    {
      "channel": 0,
      "note": 78,
      "start": 0.0,
      "duration": 0.0232,
      "velocity": 76,
      "chip": "ym2612"
    },
    {
      "channel": 1,
      "note": 67,
      "start": 0.0,
      "duration": 0.0,
      "velocity": 102,
      "chip": "ym2612"
    },
    {
      "channel": 1,
      "note": 55,
      "start": 0.0,
      "duration": 0.0,
      "velocity": 102,
      "chip": "ym2612"
    },
    {
      "channel": 1,
      "note": 67,
      "start": 0.0,
      "duration": 0.0,
      "velocity": 1,
      "chip": "ym2612"
    },
    {
      "channel": 2,
      "note": 83,
      "start": 0.0,
      "duration": 0.0,
      "velocity": 103,
      "chip": "ym2612"
    },
    {
      "channel": 2,
      "note": 83,
      "start": 0.0,
      "duration": 0.0,
      "velocity": 1,
      "chip": "ym2612"
    },
    {
      "channel": 4,
      "note": 71,
      "start": 0.0,
      "duration": 0.0,
      "velocity": 106,
      "chip": "ym2612"
    },
    {
      "channel": 4,
      "note": 74,
      "start": 0.0,
      "duration": 0.0,
      "velocity": 1,
      "chip": "ym2612"
    },
    {
      "channel": 3,
      "note": 78,
      "start": 0.0035,
      "duration": 0.0174,
      "velocity": 103,
      "chip": "ym2612"
    },
    {
      "channel": 4,
      "note": 90,
      "start": 0.0066,
      "duration": 0.0144,
      "velocity": 103,
      "chip": "ym2612"
    },
    {
      "channel": 0,
      "note": 76,
      "start": 0.0237,
      "duration": 0.0178,
      "velocity": 76,
      "chip": "ym2612"
    },
    {
      "channel": 3,
      "note": 76,
      "start": 0.0244,
      "duration": 0.0147,
      "velocity": 103,
      "chip": "ym2612"
    },
    {
      "channel": 4,
      "note": 88,
      "start": 0.0251,
      "duration": 0.0142,
      "velocity": 103,
      "chip": "ym2612"
    },
    {
      "channel": 0,
      "note": 76,
      "start": 0.042,
      "duration": 0.0248,
      "velocity": 76,
      "chip": "ym2612"
    },
    {
      "channel": 2,
      "note": 78,
      "start": 0.0449,
      "duration": 0.0226,
      "velocity": 76,
      "chip": "ym2612"
    },
    {
      "channel": 3,
      "note": 76,
      "start": 0.0456,
      "duration": 0.0158,
      "velocity": 103,
      "chip": "ym2612"
    },
    {
      "channel": 4,
      "note": 88,
      "start": 0.0462,
      "duration": 0.0154,
      "velocity": 103,
      "chip": "ym2612"
    },
    {
      "channel": 0,
      "note": 76,
      "start": 0.0673,
      "duration": 0.0193,
      "velocity": 76,
      "chip": "ym2612"
    },
    {
      "channel": 2,
      "note": 76,
      "start": 0.068,
      "duration": 0.0193,
      "velocity": 76,
      "chip": "ym2612"
    },
    {
      "channel": 3,
      "note": 76,
      "start": 0.0686,
      "duration": 0.0157,
      "velocity": 103,
      "chip": "ym2612"
    },
    {
      "channel": 4,
      "note": 88,
      "start": 0.0693,
      "duration": 0.0152,
      "velocity": 103,
      "chip": "ym2612"
    },
    {
      "channel": 0,
      "note": 76,
      "start": 0.0871,
      "duration": 0.0225,
      "velocity": 76,
      "chip": "ym2612"
    },
    {
      "channel": 2,
      "note": 76,
      "start": 0.0878,
      "duration": 0.0225,
      "velocity": 76,
      "chip": "ym2612"
    },
    {
      "channel": 3,
      "note": 76,
      "start": 0.0884,
      "duration": 0.0158,
      "velocity": 103,
      "chip": "ym2612"
    },
    {
      "channel": 4,
      "note": 88,
      "start": 0.0891,
      "duration": 0.0153,
      "velocity": 103,
      "chip": "ym2612"
    },
    {
      "channel": 0,
      "note": 73,
      "start": 0.1101,
      "duration": 0.0193,
      "velocity": 76,
      "chip": "ym2612"
    },
    {
      "channel": 2,
      "note": 76,
      "start": 0.1108,
      "duration": 0.0194,
      "velocity": 76,
      "chip": "ym2612"
    },
    {
      "channel": 3,
      "note": 73,
      "start": 0.1115,
      "duration": 0.0157,
      "velocity": 103,
      "chip": "ym2612"
    },
    {
      "channel": 4,
      "note": 85,
      "start": 0.1122,
      "duration": 0.0153,
      "velocity": 103,
      "chip": "ym2612"
    },
    {
      "channel": 0,
      "note": 73,
      "start": 0.13,
      "duration": 0.0455,
      "velocity": 76,
      "chip": "ym2612"
    },
    {
      "channel": 2,
      "note": 76,
      "start": 0.1307,
      "duration": 0.0455,
      "velocity": 76,
      "chip": "ym2612"
    },
    {
      "channel": 3,
      "note": 73,
      "start": 0.1313,
      "duration": 0.028,
      "velocity": 103,
      "chip": "ym2612"
    },
    {
      "channel": 4,
      "note": 85,
      "start": 0.132,
      "duration": 0.0276,
      "velocity": 103,
      "chip": "ym2612"
    },
    {
      "channel": 0,
      "note": 73,
      "start": 0.176,
      "duration": 0.1161,
      "velocity": 76,
      "chip": "ym2612"
    },
    {
      "channel": 2,
      "note": 73,
      "start": 0.1767,
      "duration": 0.1162,
      "velocity": 76,
      "chip": "ym2612"
    },
    {
      "channel": 3,
      "note": 73,
      "start": 0.1773,
      "duration": 0.082,
      "velocity": 103,
      "chip": "ym2612"
    },
    {
      "channel": 4,
      "note": 85,
      "start": 0.178,
      "duration": 0.0816,
      "velocity": 103,
      "chip": "ym2612"
    },
    {
      "channel": 0,
      "note": 71,
      "start": 0.2927,
      "duration": 0.0995,
      "velocity": 76,
      "chip": "ym2612"
    },
    {
      "channel": 2,
      "note": 73,
      "start": 0.2934,
      "duration": 0.0995,
      "velocity": 76,
      "chip": "ym2612"
    },
    {
      "channel": 3,
      "note": 71,
      "start": 0.294,
      "duration": 0.082,
      "velocity": 103,
      "chip": "ym2612"
    },
    {
      "channel": 4,
      "note": 83,
      "start": 0.2947,
      "duration": 0.0816,
      "velocity": 103,
      "chip": "ym2612"
    },
    {
      "channel": 0,
      "note": 73,
      "start": 0.3927,
      "duration": 0.1164,
      "velocity": 76,
      "chip": "ym2612"
    },
    {
      "channel": 2,
      "note": 73,
      "start": 0.3934,
      "duration": 0.1164,
      "velocity": 76,
      "chip": "ym2612"
    },
    {
      "channel": 3,
      "note": 73,
      "start": 0.394,
      "duration": 0.082,
      "velocity": 103,
      "chip": "ym2612"
    },
    {
      "channel": 4,
      "note": 85,
      "start": 0.3947,
      "duration": 0.0816,
      "velocity": 103,
      "chip": "ym2612"
    },
    {
      "channel": 0,
      "note": 71,
      "start": 0.5096,
      "duration": 0.0205,
      "velocity": 76,
      "chip": "ym2612"
    },
    {
      "channel": 2,
      "note": 71,
      "start": 0.5103,
      "duration": 0.0205,
      "velocity": 76,
      "chip": "ym2612"
    },
    {
      "channel": 3,
      "note": 71,
      "start": 0.5109,
      "duration": 0.0163,
      "velocity": 103,
      "chip": "ym2612"
    },
    {
      "channel": 4,
      "note": 83,
      "start": 0.5116,
      "duration": 0.0158,
      "velocity": 103,
      "chip": "ym2612"
    },
    {
      "channel": 0,
      "note": 69,
      "start": 0.5306,
      "duration": 0.0198,
      "velocity": 76,
      "chip": "ym2612"
    },
    {
      "channel": 2,
      "note": 73,
      "start": 0.5313,
      "duration": 0.0198,
      "velocity": 76,
      "chip": "ym2612"
    },
    {
      "channel": 3,
      "note": 69,
      "start": 0.532,
      "duration": 0.0161,
      "velocity": 103,
      "chip": "ym2612"
    },
    {
      "channel": 4,
      "note": 81,
      "start": 0.5327,
      "duration": 0.0156,
      "velocity": 103,
      "chip": "ym2612"
    },
    {
      "channel": 0,
      "note": 69,
      "start": 0.551,
      "duration": 0.023,
      "velocity": 76,
      "chip": "ym2612"
    },
    {
      "channel": 2,
      "note": 71,
      "start": 0.5517,
      "duration": 0.0231,
      "velocity": 76,
      "chip": "ym2612"
    },
    {
      "channel": 3,
      "note": 69,
      "start": 0.5523,
      "duration": 0.0162,
      "velocity": 103,
      "chip": "ym2612"
    },
    {
      "channel": 4,
      "note": 81,
      "start": 0.553,
      "duration": 0.0157,
      "velocity": 103,
      "chip": "ym2612"
    },
    {
      "channel": 0,
      "note": 66,
      "start": 0.5745,
      "duration": 0.0205,
      "velocity": 76,
      "chip": "ym2612"
    },
    {
      "channel": 2,
      "note": 69,
      "start": 0.5753,
      "duration": 0.0204,
      "velocity": 76,
      "chip": "ym2612"
    },
    {
      "channel": 3,
      "note": 66,
      "start": 0.5759,
      "duration": 0.0161,
      "velocity": 103,
      "chip": "ym2612"
    },
    {
      "channel": 4,
      "note": 78,
      "start": 0.5766,
      "duration": 0.0157,
      "velocity": 103,
      "chip": "ym2612"
    },
    {
      "channel": 0,
      "note": 66,
      "start": 0.5955,
      "duration": 0.0231,
      "velocity": 76,
      "chip": "ym2612"
    },
    {
      "channel": 2,
      "note": 69,
      "start": 0.5962,
      "duration": 0.0231,
      "velocity": 76,
      "chip": "ym2612"
    },
    {
      "channel": 3,
      "note": 66,
      "start": 0.5968,
      "duration": 0.0161,
      "velocity": 103,
      "chip": "ym2612"
    },
    {
      "channel": 4,
      "note": 78,
      "start": 0.5975,
      "duration": 0.0157,
      "velocity": 103,
      "chip": "ym2612"
    },
    {
      "channel": 0,
      "note": 66,
      "start": 0.6191,
      "duration": 0.0197,
      "velocity": 76,
      "chip": "ym2612"
    },
    {
      "channel": 2,
      "note": 66,
      "start": 0.6198,
      "duration": 0.0222,
      "velocity": 76,
      "chip": "ym2612"
    },
    {
      "channel": 3,
      "note": 66,
      "start": 0.6205,
      "duration": 0.0159,
      "velocity": 103,
      "chip": "ym2612"
    },
    {
      "channel": 4,
      "note": 78,
      "start": 0.6211,
      "duration": 0.0154,
      "velocity": 103,
      "chip": "ym2612"
    },
    {
      "channel": 1,
      "note": 61,
      "start": 0.6419,
      "duration": 0.0609,
      "velocity": 93,
      "chip": "ym2612"
    },
    {
      "channel": 2,
      "note": 66,
      "start": 0.6425,
      "duration": 0.0183,
      "velocity": 76,
      "chip": "ym2612"
    },
    {
      "channel": 2,
      "note": 66,
      "start": 0.6613,
      "duration": 0.0208,
      "velocity": 76,
      "chip": "ym2612"
    },
    {
      "channel": 0,
      "note": 73,
      "start": 0.6817,
      "duration": 0.0391,
      "velocity": 76,
      "chip": "ym2612"
    },
    {
      "channel": 1,
      "note": 61,
      "start": 0.7034,
      "duration": 0.018,
      "velocity": 93,
      "chip": "ym2612"
    },
    {
      "channel": 0,
      "note": 73,
      "start": 0.7213,
      "duration": 0.0402,
      "velocity": 76,
      "chip": "ym2612"
    },
    {
      "channel": 1,
      "note": 56,
      "start": 0.7221,
      "duration": 0.0422,
      "velocity": 115,
      "chip": "ym2612"
    },
    {
      "channel": 2,
      "note": 73,
      "start": 0.7227,
      "duration": 0.0418,
      "velocity": 76,
      "chip": "ym2612"
    },
    {
      "channel": 0,
      "note": 71,
      "start": 0.762,
      "duration": 0.1041,
      "velocity": 76,
      "chip": "ym2612"
    },
    {
      "channel": 2,
      "note": 73,
      "start": 0.765,
      "duration": 0.1048,
      "velocity": 76,
      "chip": "ym2612"
    },
    {
      "channel": 0,
      "note": 69,
      "start": 0.8666,
      "duration": 0.0441,
      "velocity": 76,
      "chip": "ym2612"
    },
    {
      "channel": 1,
      "note": 61,
      "start": 0.8696,
      "duration": 0.0657,
      "velocity": 93,
      "chip": "ym2612"
    },
    {
      "channel": 2,
      "note": 71,
      "start": 0.8703,
      "duration": 0.0415,
      "velocity": 76,
      "chip": "ym2612"
    },
    {
      "channel": 0,
      "note": 66,
      "start": 0.9112,
      "duration": 0.0427,
      "velocity": 76,
      "chip": "ym2612"
    },
    {
      "channel": 2,
      "note": 69,
      "start": 0.9123,
      "duration": 0.0431,
      "velocity": 76,
      "chip": "ym2612"
    },
    {
      "channel": 1,
      "note": 61,
      "start": 0.9359,
      "duration": 0.0187,
      "velocity": 93,
      "chip": "ym2612"
    },
    {
      "channel": 0,
      "note": 66,
      "start": 0.9544,
      "duration": 0.0424,
      "velocity": 76,
      "chip": "ym2612"
    },
    {
      "channel": 1,
      "note": 56,
      "start": 0.9552,
      "duration": 0.0444,
      "velocity": 115,
      "chip": "ym2612"
    },
    {
      "channel": 2,
      "note": 66,
      "start": 0.9559,
      "duration": 0.044,
      "velocity": 76,
      "chip": "ym2612"
    },
    {
      "channel": 0,
      "note": 66,
      "start": 0.9973,
      "duration": 0.0371,
      "velocity": 76,
      "chip": "ym2612"
    },
    {
      "channel": 2,
      "note": 66,
      "start": 1.0004,
      "duration": 0.0378,
      "velocity": 76,
      "chip": "ym2612"
    },
    {
      "channel": 0,
      "note": 64,
      "start": 1.035,
      "duration": 0.0448,
      "velocity": 76,
      "chip": "ym2612"
    },
    {
      "channel": 1,
      "note": 61,
      "start": 1.038,
      "duration": 0.0681,
      "velocity": 93,
      "chip": "ym2612"
    },
    {
      "channel": 2,
      "note": 66,
      "start": 1.0386,
      "duration": 0.0422,
      "velocity": 76,
      "chip": "ym2612"
    },
    {
      "channel": 0,
      "note": 66,
      "start": 1.0803,
      "duration": 0.0417,
      "velocity": 76,
      "chip": "ym2612"
    },
    {
      "channel": 2,
      "note": 64,
      "start": 1.0814,
      "duration": 0.0422,
      "velocity": 76,
      "chip": "ym2612"
    },
    {
      "channel": 1,
      "note": 61,
      "start": 1.1067,
      "duration": 0.016,
      "velocity": 93,
      "chip": "ym2612"
    },
    {
      "channel": 0,
      "note": 66,
      "start": 1.1225,
      "duration": 0.0439,
      "velocity": 76,
      "chip": "ym2612"
    },
    {
      "channel": 1,
      "note": 56,
      "start": 1.1234,
      "duration": 0.0459,
      "velocity": 115,
      "chip": "ym2612"
    },
    {
      "channel": 2,
      "note": 66,
      "start": 1.124,
      "duration": 0.0454,
      "velocity": 76,
      "chip": "ym2612"
    },
    {
      "channel": 0,
      "note": 66,
      "start": 1.167,
      "duration": 0.1171,
      "velocity": 76,
      "chip": "ym2612"
    },
    {
      "channel": 2,
      "note": 66,
      "start": 1.17,
      "duration": 0.1178,
      "velocity": 76,
      "chip": "ym2612"
    },
    {
      "channel": 0,
      "note": 69,
      "start": 1.2846,
      "duration": 0.0417,
      "velocity": 76,
      "chip": "ym2612"
    },
    {
      "channel": 1,
      "note": 61,
      "start": 1.2876,
      "duration": 0.0679,
      "velocity": 93,
      "chip": "ym2612"
    },
    {
      "channel": 2,
      "note": 66,
      "start": 1.2882,
      "duration": 0.039,
      "velocity": 76,
      "chip": "ym2612"
    },
    {
      "channel": 0,
      "note": 66,
      "start": 1.3267,
      "duration": 0.0447,
      "velocity": 76,
      "chip": "ym2612"
    },
    {
      "channel": 2,
      "note": 69,
      "start": 1.3278,
      "duration": 0.0452,
      "velocity": 76,
      "chip": "ym2612"
    },
    {
      "channel": 1,
      "note": 61,
      "start": 1.356,
      "duration": 0.0161,
      "velocity": 93,
      "chip": "ym2612"
    },
    {
      "channel": 0,
      "note": 66,
      "start": 1.3719,
      "duration": 0.0443,
      "velocity": 76,
      "chip": "ym2612"
    },
    {
      "channel": 1,
      "note": 56,
      "start": 1.3728,
      "duration": 0.0462,
      "velocity": 115,
      "chip": "ym2612"
    },
    {
      "channel": 2,
      "note": 66,
      "start": 1.3734,
      "duration": 0.0458,
      "velocity": 76,
      "chip": "ym2612"
    },
    {
      "channel": 0,
      "note": 66,
      "start": 1.4167,
      "duration": 0.04,
      "velocity": 76,
      "chip": "ym2612"
    },
    {
      "channel": 2,
      "note": 66,
      "start": 1.4198,
      "duration": 0.0403,
      "velocity": 76,
      "chip": "ym2612"
    },
    {
      "channel": 1,
      "note": 61,
      "start": 1.4599,
      "duration": 0.0614,
      "velocity": 93,
      "chip": "ym2612"
    },
    {
      "channel": 2,
      "note": 66,
      "start": 1.4606,
      "duration": 0.0399,
      "velocity": 76,
      "chip": "ym2612"
    },
    {
      "channel": 0,
      "note": 73,
      "start": 1.5,
      "duration": 0.0364,
      "velocity": 76,
      "chip": "ym2612"
    },
    {
      "channel": 1,
      "note": 61,
      "start": 1.5219,
      "duration": 0.0151,
      "velocity": 93,
      "chip": "ym2612"
    },
    {
      "channel": 0,
      "note": 73,
      "start": 1.5369,
      "duration": 0.0436,
      "velocity": 76,
      "chip": "ym2612"
    },
    {
      "channel": 1,
      "note": 56,
      "start": 1.5378,
      "duration": 0.0456,
      "velocity": 115,
      "chip": "ym2612"
    },
    {
      "channel": 2,
      "note": 73,
      "start": 1.5384,
      "duration": 0.0452,
      "velocity": 76,
      "chip": "ym2612"
    },
    {
      "channel": 0,
      "note": 71,
      "start": 1.5811,
      "duration": 0.1173,
      "velocity": 76,
      "chip": "ym2612"
    },
    {
      "channel": 2,
      "note": 73,
      "start": 1.5841,
      "duration": 0.118,
      "velocity": 76,
      "chip": "ym2612"
    },
    {
      "channel": 0,
      "note": 69,
      "start": 1.699,
      "duration": 0.0442,
      "velocity": 76,
      "chip": "ym2612"
    },
    {
      "channel": 1,
      "note": 61,
      "start": 1.702,
      "duration": 0.0658,
      "velocity": 93,
      "chip": "ym2612"
    },
    {
      "channel": 2,
      "note": 71,
      "start": 1.7027,
      "duration": 0.0415,
      "velocity": 76,
      "chip": "ym2612"
    },
    {
      "channel": 0,
      "note": 66,
      "start": 1.7436,
      "duration": 0.0432,
      "velocity": 76,
      "chip": "ym2612"
    },
    {
      "channel": 2,
      "note": 69,
      "start": 1.7447,
      "duration": 0.0436,
      "velocity": 76,
      "chip": "ym2612"
    },
    {
      "channel": 1,
      "note": 61,
      "start": 1.7683,
      "duration": 0.0191,
      "velocity": 93,
      "chip": "ym2612"
    },
    {
      "channel": 0,
      "note": 66,
      "start": 1.7873,
      "duration": 0.0429,
      "velocity": 76,
      "chip": "ym2612"
    },
    {
      "channel": 1,
      "note": 56,
      "start": 1.7881,
      "duration": 0.0448,
      "velocity": 115,
      "chip": "ym2612"
    },
    {
      "channel": 2,
      "note": 66,
      "start": 1.7888,
      "duration": 0.0444,
      "velocity": 76,
      "chip": "ym2612"
    },
    {
      "channel": 0,
      "note": 66,
      "start": 1.8307,
      "duration": 0.0403,
      "velocity": 76,
      "chip": "ym2612"
    },
    {
      "channel": 2,
      "note": 66,
      "start": 1.8337,
      "duration": 0.0409,
      "velocity": 76,
      "chip": "ym2612"
    },
    {
      "channel": 0,
      "note": 78,
      "start": 1.8715,
      "duration": 0.0504,
      "velocity": 76,
      "chip": "ym2612"
    },
    {
      "channel": 1,
      "note": 61,
      "start": 1.8744,
      "duration": 0.0744,
      "velocity": 93,
      "chip": "ym2612"
    },
    {
      "channel": 2,
      "note": 66,
      "start": 1.8751,
      "duration": 0.0478,
      "velocity": 76,
      "chip": "ym2612"
    },
    {
      "channel": 3,
      "note": 78,
      "start": 1.8758,
      "duration": 0.019,
      "velocity": 103,
      "chip": "ym2612"
    },
    {
      "channel": 4,
      "note": 90,
      "start": 1.8764,
      "duration": 0.0185,
      "velocity": 103,
      "chip": "ym2612"
    },
    {
      "channel": 0,
      "note": 78,
      "start": 1.9224,
      "duration": 0.0478,
      "velocity": 76,
      "chip": "ym2612"
    },
    {
      "channel": 2,
      "note": 78,
      "start": 1.9234,
      "duration": 0.0483,
      "velocity": 76,
      "chip": "ym2612"
    },
    {
      "channel": 3,
      "note": 78,
      "start": 1.924,
      "duration": 0.04,
      "velocity": 103,
      "chip": "ym2612"
    },
    {
      "channel": 4,
      "note": 90,
      "start": 1.9246,
      "duration": 0.0396,
      "velocity": 103,
      "chip": "ym2612"
    },
    {
      "channel": 1,
      "note": 61,
      "start": 1.9495,
      "duration": 0.0215,
      "velocity": 93,
      "chip": "ym2612"
    },
    {
      "channel": 0,
      "note": 76,
      "start": 1.9708,
      "duration": 0.048,
      "velocity": 76,
      "chip": "ym2612"
    },
    {
      "channel": 1,
      "note": 56,
      "start": 1.9716,
      "duration": 0.0499,
      "velocity": 115,
      "chip": "ym2612"
    },
    {
      "channel": 2,
      "note": 78,
      "start": 1.9722,
      "duration": 0.0495,
      "velocity": 76,
      "chip": "ym2612"
    },
    {
      "channel": 3,
      "note": 76,
      "start": 1.9729,
      "duration": 0.0397,
      "velocity": 103,
      "chip": "ym2612"
    },
    {
      "channel": 4,
      "note": 88,
      "start": 1.9736,
      "duration": 0.0392,
      "velocity": 103,
      "chip": "ym2612"
    },
    {
      "channel": 0,
      "note": 73,
      "start": 2.0193,
      "duration": 0.0949,
      "velocity": 76,
      "chip": "ym2612"
    },
    {
      "channel": 2,
      "note": 76,
      "start": 2.0222,
      "duration": 0.0956,
      "velocity": 76,
      "chip": "ym2612"
    },
    {
      "channel": 3,
      "note": 73,
      "start": 2.0229,
      "duration": 0.0749,
      "velocity": 103,
      "chip": "ym2612"
    },
    {
      "channel": 4,
      "note": 85,
      "start": 2.0236,
      "duration": 0.0744,
      "velocity": 103,
      "chip": "ym2612"
    },
    {
      "channel": 0,
      "note": 73,
      "start": 2.1147,
      "duration": 0.0508,
      "velocity": 76,
      "chip": "ym2612"
    },
    {
      "channel": 1,
      "note": 61,
      "start": 2.1177,
      "duration": 0.0776,
      "velocity": 93,
      "chip": "ym2612"
    },
    {
      "channel": 2,
      "note": 73,
      "start": 2.1184,
      "duration": 0.0481,
      "velocity": 76,
      "chip": "ym2612"
    },
    {
      "channel": 3,
      "note": 73,
      "start": 2.119,
      "duration": 0.0772,
      "velocity": 103,
      "chip": "ym2612"
    },
    {
      "channel": 4,
      "note": 85,
      "start": 2.1198,
      "duration": 0.0766,
      "velocity": 103,
      "chip": "ym2612"
    },
    {
      "channel": 0,
      "note": 66,
      "start": 2.1659,
      "duration": 0.0467,
      "velocity": 76,
      "chip": "ym2612"
    },
    {
      "channel": 2,
      "note": 73,
      "start": 2.167,
      "duration": 0.0468,
      "velocity": 76,
      "chip": "ym2612"
    },
    {
      "channel": 1,
      "note": 61,
      "start": 2.1958,
      "duration": 0.0171,
      "velocity": 93,
      "chip": "ym2612"
    },
    {
      "channel": 1,
      "note": 56,
      "start": 2.2136,
      "duration": 0.0466,
      "velocity": 115,
      "chip": "ym2612"
    },
    {
      "channel": 2,
      "note": 66,
      "start": 2.2143,
      "duration": 0.0462,
      "velocity": 76,
      "chip": "ym2612"
    },
    {
      "channel": 0,
      "note": 66,
      "start": 2.258,
      "duration": 0.0365,
      "velocity": 76,
      "chip": "ym2612"
    },
    {
      "channel": 1,
      "note": 61,
      "start": 2.2977,
      "duration": 0.0604,
      "velocity": 93,
      "chip": "ym2612"
    },
    {
      "channel": 2,
      "note": 66,
      "start": 2.2983,
      "duration": 0.0362,
      "velocity": 76,
      "chip": "ym2612"
    },
    {
      "channel": 0,
      "note": 73,
      "start": 2.334,
      "duration": 0.0389,
      "velocity": 76,
      "chip": "ym2612"
    },
    {
      "channel": 1,
      "note": 61,
      "start": 2.3586,
      "duration": 0.015,
      "velocity": 93,
      "chip": "ym2612"
    },
    {
      "channel": 0,
      "note": 73,
      "start": 2.3735,
      "duration": 0.0412,
      "velocity": 76,
      "chip": "ym2612"
    },
    {
      "channel": 1,
      "note": 56,
      "start": 2.3743,
      "duration": 0.0431,
      "velocity": 115,
      "chip": "ym2612"
    },
    {
      "channel": 2,
      "note": 73,
      "start": 2.3749,
      "duration": 0.0428,
      "velocity": 76,
      "chip": "ym2612"
    },
    {
      "channel": 0,
      "note": 71,
      "start": 2.4151,
      "duration": 0.1179,
      "velocity": 76,
      "chip": "ym2612"
    },
    {
      "channel": 2,
      "note": 73,
      "start": 2.4182,
      "duration": 0.1186,
      "velocity": 76,
      "chip": "ym2612"
    },
    {
      "channel": 0,
      "note": 69,
      "start": 2.5336,
      "duration": 0.0446,
      "velocity": 76,
      "chip": "ym2612"
    },
    {
      "channel": 1,
      "note": 61,
      "start": 2.5366,
      "duration": 0.066,
      "velocity": 93,
      "chip": "ym2612"
    },
    {
      "channel": 2,
      "note": 71,
      "start": 2.5373,
      "duration": 0.0419,
      "velocity": 76,
      "chip": "ym2612"
    },
    {
      "channel": 0,
      "note": 66,
      "start": 2.5786,
      "duration": 0.0393,
      "velocity": 76,
      "chip": "ym2612"
    },
    {
      "channel": 2,
      "note": 69,
      "start": 2.5797,
      "duration": 0.0397,
      "velocity": 76,
      "chip": "ym2612"
    },
    {
      "channel": 1,
      "note": 61,
      "start": 2.6031,
      "duration": 0.0154,
      "velocity": 93,
      "chip": "ym2612"
    },
    {
      "channel": 0,
      "note": 66,
      "start": 2.6184,
      "duration": 0.042,
      "velocity": 76,
      "chip": "ym2612"
    },
    {
      "channel": 1,
      "note": 56,
      "start": 2.6192,
      "duration": 0.044,
      "velocity": 115,
      "chip": "ym2612"
    },
    {
      "channel": 2,
      "note": 66,
      "start": 2.6198,
      "duration": 0.0436,
      "velocity": 76,
      "chip": "ym2612"
    },
    {
      "channel": 0,
      "note": 66,
      "start": 2.6609,
      "duration": 0.04,
      "velocity": 76,
      "chip": "ym2612"
    },
    {
      "channel": 2,
      "note": 66,
      "start": 2.6639,
      "duration": 0.0406,
      "velocity": 76,
      "chip": "ym2612"
    },
    {
      "channel": 0,
      "note": 64,
      "start": 2.7014,
      "duration": 0.0448,
      "velocity": 76,
      "chip": "ym2612"
    },
    {
      "channel": 1,
      "note": 61,
      "start": 2.7044,
      "duration": 0.0649,
      "velocity": 93,
      "chip": "ym2612"
    },
    {
      "channel": 2,
      "note": 66,
      "start": 2.705,
      "duration": 0.0422,
      "velocity": 76,
      "chip": "ym2612"
    },
    {
      "channel": 0,
      "note": 66,
      "start": 2.7467,
      "duration": 0.0418,
      "velocity": 76,
      "chip": "ym2612"
    },
    {
      "channel": 2,
      "note": 64,
      "start": 2.7477,
      "duration": 0.0423,
      "velocity": 76,
      "chip": "ym2612"
    },
    {
      "channel": 1,
      "note": 61,
      "start": 2.7699,
      "duration": 0.0193,
      "velocity": 93,
      "chip": "ym2612"
    },
    {
      "channel": 0,
      "note": 66,
      "start": 2.789,
      "duration": 0.0404,
      "velocity": 76,
      "chip": "ym2612"
    },
    {
      "channel": 1,
      "note": 56,
      "start": 2.7899,
      "duration": 0.0423,
      "velocity": 115,
      "chip": "ym2612"
    },
    {
      "channel": 2,
      "note": 66,
      "start": 2.7905,
      "duration": 0.0419,
      "velocity": 76,
      "chip": "ym2612"
    },
    {
      "channel": 0,
      "note": 66,
      "start": 2.8299,
      "duration": 0.1037,
      "velocity": 76,
      "chip": "ym2612"
    },
    {
      "channel": 2,
      "note": 66,
      "start": 2.8329,
      "duration": 0.1044,
      "velocity": 76,
      "chip": "ym2612"
    },
    {
      "channel": 0,
      "note": 69,
      "start": 2.9342,
      "duration": 0.0443,
      "velocity": 76,
      "chip": "ym2612"
    },
    {
      "channel": 1,
      "note": 61,
      "start": 2.9372,
      "duration": 0.0661,
      "velocity": 93,
      "chip": "ym2612"
    },
    {
      "channel": 2,
      "note": 66,
      "start": 2.9378,
      "duration": 0.0417,
      "velocity": 76,
      "chip": "ym2612"
    },
    {
      "channel": 0,
      "note": 66,
      "start": 2.9789,
      "duration": 0.0431,
      "velocity": 76,
      "chip": "ym2612"
    },
    {
      "channel": 2,
      "note": 69,
      "start": 2.98,
      "duration": 0.0436,
      "velocity": 76,
      "chip": "ym2612"
    },
    {
      "channel": 1,
      "note": 61,
      "start": 3.0039,
      "duration": 0.0188,
      "velocity": 93,
      "chip": "ym2612"
    },
    {
      "channel": 0,
      "note": 66,
      "start": 3.0226,
      "duration": 0.0443,
      "velocity": 76,
      "chip": "ym2612"
    },
    {
      "channel": 1,
      "note": 56,
      "start": 3.0234,
      "duration": 0.0462,
      "velocity": 115,
      "chip": "ym2612"
    },
    {
      "channel": 2,
      "note": 66,
      "start": 3.024,
      "duration": 0.0458,
      "velocity": 76,
      "chip": "ym2612"
    },
    {
      "channel": 0,
      "note": 66,
      "start": 3.0674,
      "duration": 0.0369,
      "velocity": 76,
      "chip": "ym2612"
    },
    {
      "channel": 2,
      "note": 66,
      "start": 3.0704,
      "duration": 0.0373,
      "velocity": 76,
      "chip": "ym2612"
    },
    {
      "channel": 1,
      "note": 61,
      "start": 3.1075,
      "duration": 0.0638,
      "velocity": 93,
      "chip": "ym2612"
    },
    {
      "channel": 2,
      "note": 66,
      "start": 3.1081,
      "duration": 0.0396,
      "velocity": 76,
      "chip": "ym2612"
    },
    {
      "channel": 0,
      "note": 73,
      "start": 3.1472,
      "duration": 0.039,
      "velocity": 76,
      "chip": "ym2612"
    },
    {
      "channel": 1,
      "note": 61,
      "start": 3.1719,
      "duration": 0.015,
      "velocity": 93,
      "chip": "ym2612"
    },
    {
      "channel": 0,
      "note": 73,
      "start": 3.1868,
      "duration": 0.0434,
      "velocity": 76,
      "chip": "ym2612"
    },
    {
      "channel": 1,
      "note": 56,
      "start": 3.1876,
      "duration": 0.0453,
      "velocity": 115,
      "chip": "ym2612"
    },
    {
      "channel": 2,
      "note": 73,
      "start": 3.1882,
      "duration": 0.0449,
      "velocity": 76,
      "chip": "ym2612"
    },
    {
      "channel": 0,
      "note": 71,
      "start": 3.2306,
      "duration": 0.1175,
      "velocity": 76,
      "chip": "ym2612"
    },
    {
      "channel": 2,
      "note": 73,
      "start": 3.2336,
      "duration": 0.1182,
      "velocity": 76,
      "chip": "ym2612"
    },
    {
      "channel": 0,
      "note": 69,
      "start": 3.3486,
      "duration": 0.0418,
      "velocity": 76,
      "chip": "ym2612"
    },
    {
      "channel": 1,
      "note": 61,
      "start": 3.3516,
      "duration": 0.068,
      "velocity": 93,
      "chip": "ym2612"
    },
    {
      "channel": 2,
      "note": 71,
      "start": 3.3523,
      "duration": 0.0391,
      "velocity": 76,
      "chip": "ym2612"
    },
    {
      "channel": 0,
      "note": 66,
      "start": 3.3909,
      "duration": 0.0448,
      "velocity": 76,
      "chip": "ym2612"
    },
    {
      "channel": 2,
      "note": 69,
      "start": 3.392,
      "duration": 0.0452,
      "velocity": 76,
      "chip": "ym2612"
    },
    {
      "channel": 1,
      "note": 61,
      "start": 3.4202,
      "duration": 0.0161,
      "velocity": 93,
      "chip": "ym2612"
    },
    {
      "channel": 0,
      "note": 66,
      "start": 3.4361,
      "duration": 0.0445,
      "velocity": 76,
      "chip": "ym2612"
    },
    {
      "channel": 1,
      "note": 56,
      "start": 3.437,
      "duration": 0.0464,
      "velocity": 115,
      "chip": "ym2612"
    },
    {
      "channel": 2,
      "note": 66,
      "start": 3.4377,
      "duration": 0.046,
      "velocity": 76,
      "chip": "ym2612"
    },
    {
      "channel": 0,
      "note": 66,
      "start": 3.4811,
      "duration": 0.0402,
      "velocity": 76,
      "chip": "ym2612"
    },
    {
      "channel": 2,
      "note": 66,
      "start": 3.4842,
      "duration": 0.0408,
      "velocity": 76,
      "chip": "ym2612"
    },
    {
      "channel": 0,
      "note": 64,
      "start": 3.5218,
      "duration": 0.0451,
      "velocity": 76,
      "chip": "ym2612"
    },
    {
      "channel": 1,
      "note": 61,
      "start": 3.5248,
      "duration": 0.0647,
      "velocity": 93,
      "chip": "ym2612"
    },
    {
      "channel": 2,
      "note": 66,
      "start": 3.5254,
      "duration": 0.0425,
      "velocity": 76,
      "chip": "ym2612"
    },
    {
      "channel": 0,
      "note": 66,
      "start": 3.5674,
      "duration": 0.0375,
      "velocity": 76,
      "chip": "ym2612"
    },
    {
      "channel": 2,
      "note": 64,
      "start": 3.5685,
      "duration": 0.038,
      "velocity": 76,
      "chip": "ym2612"
    },
    {
      "channel": 1,
      "note": 61,
      "start": 3.59,
      "duration": 0.0156,
      "velocity": 93,
      "chip": "ym2612"
    },
    {
      "channel": 0,
      "note": 78,
      "start": 3.6055,
      "duration": 0.0488,
      "velocity": 76,
      "chip": "ym2612"
    },
    {
      "channel": 1,
      "note": 56,
      "start": 3.6063,
      "duration": 0.0507,
      "velocity": 115,
      "chip": "ym2612"
    },
    {
      "channel": 2,
      "note": 66,
      "start": 3.6069,
      "duration": 0.0504,
      "velocity": 76,
      "chip": "ym2612"
    },
    {
      "channel": 3,
      "note": 78,
      "start": 3.6076,
      "duration": 0.0442,
      "velocity": 103,
      "chip": "ym2612"
    },
    {
      "channel": 4,
      "note": 90,
      "start": 3.6083,
      "duration": 0.0436,
      "velocity": 103,
      "chip": "ym2612"
    },
    {
      "channel": 0,
      "note": 76,
      "start": 3.6548,
      "duration": 0.1122,
      "velocity": 76,
      "chip": "ym2612"
    },
    {
      "channel": 2,
      "note": 78,
      "start": 3.6578,
      "duration": 0.1129,
      "velocity": 76,
      "chip": "ym2612"
    },
    {
      "channel": 3,
      "note": 76,
      "start": 3.6585,
      "duration": 0.0922,
      "velocity": 103,
      "chip": "ym2612"
    },
    {
      "channel": 4,
      "note": 88,
      "start": 3.6592,
      "duration": 0.0917,
      "velocity": 103,
      "chip": "ym2612"
    },
    {
      "channel": 0,
      "note": 78,
      "start": 3.7676,
      "duration": 0.0254,
      "velocity": 76,
      "chip": "ym2612"
    },
    {
      "channel": 1,
      "note": 61,
      "start": 3.7705,
      "duration": 0.0734,
      "velocity": 93,
      "chip": "ym2612"
    },
    {
      "channel": 2,
      "note": 76,
      "start": 3.7712,
      "duration": 0.0485,
      "velocity": 76,
      "chip": "ym2612"
    },
    {
      "channel": 3,
      "note": 78,
      "start": 3.7719,
      "duration": 0.044,
      "velocity": 103,
      "chip": "ym2612"
    },
    {
      "channel": 4,
      "note": 90,
      "start": 3.7725,
      "duration": 0.0435,
      "velocity": 103,
      "chip": "ym2612"
    },
    {
      "channel": 0,
      "note": 54,
      "start": 3.7935,
      "duration": 0.0141,
      "velocity": 76,
      "chip": "ym2612"
    },
    {
      "channel": 0,
      "note": 56,
      "start": 3.808,
      "duration": 0.0107,
      "velocity": 76,
      "chip": "ym2612"
    },
    {
      "channel": 0,
      "note": 57,
      "start": 3.8191,
      "duration": 0.0102,
      "velocity": 76,
      "chip": "ym2612"
    },
    {
      "channel": 2,
      "note": 78,
      "start": 3.8202,
      "duration": 0.0204,
      "velocity": 76,
      "chip": "ym2612"
    },
    {
      "channel": 0,
      "note": 59,
      "start": 3.8299,
      "duration": 0.0097,
      "velocity": 76,
      "chip": "ym2612"
    },
    {
      "channel": 0,
      "note": 61,
      "start": 3.8401,
      "duration": 0.0099,
      "velocity": 76,
      "chip": "ym2612"
    },
    {
      "channel": 2,
      "note": 54,
      "start": 3.8411,
      "duration": 0.0099,
      "velocity": 76,
      "chip": "ym2612"
    },
    {
      "channel": 1,
      "note": 61,
      "start": 3.8445,
      "duration": 0.0194,
      "velocity": 93,
      "chip": "ym2612"
    },
    {
      "channel": 0,
      "note": 62,
      "start": 3.8505,
      "duration": 0.0126,
      "velocity": 76,
      "chip": "ym2612"
    },
    {
      "channel": 2,
      "note": 56,
      "start": 3.8516,
      "duration": 0.0131,
      "velocity": 76,
      "chip": "ym2612"
    },
    {
      "channel": 0,
      "note": 64,
      "start": 3.8637,
      "duration": 0.0103,
      "velocity": 76,
      "chip": "ym2612"
    },
    {
      "channel": 1,
      "note": 56,
      "start": 3.8645,
      "duration": 0.0431,
      "velocity": 115,
      "chip": "ym2612"
    },
    {
      "channel": 2,
      "note": 57,
      "start": 3.8652,
      "duration": 0.0098,
      "velocity": 76,
      "chip": "ym2612"
    },
    {
      "channel": 0,
      "note": 66,
      "start": 3.8745,
      "duration": 0.0094,
      "velocity": 76,
      "chip": "ym2612"
    },
    {
      "channel": 2,
      "note": 59,
      "start": 3.8755,
      "duration": 0.0095,
      "velocity": 76,
      "chip": "ym2612"
    },
    {
      "channel": 0,
      "note": 68,
      "start": 3.8844,
      "duration": 0.0096,
      "velocity": 76,
      "chip": "ym2612"
    },
    {
      "channel": 2,
      "note": 61,
      "start": 3.8855,
      "duration": 0.0095,
      "velocity": 76,
      "chip": "ym2612"
    },
    {
      "channel": 0,
      "note": 69,
      "start": 3.8945,
      "duration": 0.0104,
      "velocity": 76,
      "chip": "ym2612"
    },
    {
      "channel": 2,
      "note": 62,
      "start": 3.8955,
      "duration": 0.0123,
      "velocity": 76,
      "chip": "ym2612"
    },
    {
      "channel": 0,
      "note": 71,
      "start": 3.9054,
      "duration": 0.0141,
      "velocity": 76,
      "chip": "ym2612"
    },
    {
      "channel": 2,
      "note": 64,
      "start": 3.9084,
      "duration": 0.0118,
      "velocity": 76,
      "chip": "ym2612"
    },
    {
      "channel": 0,
      "note": 73,
      "start": 3.92,
      "duration": 0.0085,
      "velocity": 76,
      "chip": "ym2612"
    },
    {
      "channel": 2,
      "note": 66,
      "start": 3.9207,
      "duration": 0.0085,
      "velocity": 76,
      "chip": "ym2612"
    },
    {
      "channel": 0,
      "note": 74,
      "start": 3.9291,
      "duration": 0.0084,
      "velocity": 76,
      "chip": "ym2612"
    },
    {
      "channel": 2,
      "note": 68,
      "start": 3.9298,
      "duration": 0.0084,
      "velocity": 76,
      "chip": "ym2612"
    },
    {
      "channel": 0,
      "note": 76,
      "start": 3.938,
      "duration": 0.0106,
      "velocity": 76,
      "chip": "ym2612"
    },
    {
      "channel": 2,
      "note": 69,
      "start": 3.9387,
      "duration": 0.011,
      "velocity": 76,
      "chip": "ym2612"
    },
    {
      "channel": 0,
      "note": 78,
      "start": 3.9491,
      "duration": 0.0288,
      "velocity": 76,
      "chip": "ym2612"
    },
    {
      "channel": 2,
      "note": 71,
      "start": 3.9502,
      "duration": 0.0154,
      "velocity": 76,
      "chip": "ym2612"
    },
    {
      "channel": 3,
      "note": 78,
      "start": 3.9532,
      "duration": 0.0193,
      "velocity": 103,
      "chip": "ym2612"
    },
    {
      "channel": 4,
      "note": 90,
      "start": 3.9561,
      "duration": 0.0165,
      "velocity": 103,
      "chip": "ym2612"
    },
    {
      "channel": 2,
      "note": 73,
      "start": 3.9661,
      "duration": 0.0125,
      "velocity": 76,
      "chip": "ym2612"
    },
    {
      "channel": 0,
      "note": 76,
      "start": 3.9784,
      "duration": 0.0197,
      "velocity": 76,
      "chip": "ym2612"
    },
    {
      "channel": 2,
      "note": 74,
      "start": 3.9791,
      "duration": 0.0099,
      "velocity": 76,
      "chip": "ym2612"
    },
    {
      "channel": 3,
      "note": 76,
      "start": 3.9798,
      "duration": 0.0161,
      "velocity": 103,
      "chip": "ym2612"
    },
    {
      "channel": 4,
      "note": 88,
      "start": 3.9804,
      "duration": 0.0156,
      "velocity": 103,
      "chip": "ym2612"
    },
    {
      "channel": 2,
      "note": 76,
      "start": 3.9895,
      "duration": 0.0094,
      "velocity": 76,
      "chip": "ym2612"
    },
    {
      "channel": 0,
      "note": 76,
      "start": 3.9987,
      "duration": 0.0194,
      "velocity": 76,
      "chip": "ym2612"
    },
    {
      "channel": 2,
      "note": 78,
      "start": 3.9994,
      "duration": 0.0194,
      "velocity": 76,
      "chip": "ym2612"
    },
    {
      "channel": 3,
      "note": 76,
      "start": 4.0,
      "duration": 0.0158,
      "velocity": 103,
      "chip": "ym2612"
    },
    {
      "channel": 4,
      "note": 88,
      "start": 4.0007,
      "duration": 0.0153,
      "velocity": 103,
      "chip": "ym2612"
    },
    {
      "channel": 0,
      "note": 76,
      "start": 4.0186,
      "duration": 0.0225,
      "velocity": 76,
      "chip": "ym2612"
    },
    {
      "channel": 2,
      "note": 76,
      "start": 4.0193,
      "duration": 0.0226,
      "velocity": 76,
      "chip": "ym2612"
    },
    {
      "channel": 3,
      "note": 76,
      "start": 4.02,
      "duration": 0.0159,
      "velocity": 103,
      "chip": "ym2612"
    },
    {
      "channel": 4,
      "note": 88,
      "start": 4.0206,
      "duration": 0.0154,
      "velocity": 103,
      "chip": "ym2612"
    },
    {
      "channel": 0,
      "note": 76,
      "start": 4.0417,
      "duration": 0.0193,
      "velocity": 76,
      "chip": "ym2612"
    },
    {
      "channel": 2,
      "note": 76,
      "start": 4.0424,
      "duration": 0.0193,
      "velocity": 76,
      "chip": "ym2612"
    },
    {
      "channel": 3,
      "note": 76,
      "start": 4.043,
      "duration": 0.0157,
      "velocity": 103,
      "chip": "ym2612"
    },
    {
      "channel": 4,
      "note": 88,
      "start": 4.0437,
      "duration": 0.0152,
      "velocity": 103,
      "chip": "ym2612"
    },
    {
      "channel": 0,
      "note": 73,
      "start": 4.0615,
      "duration": 0.0226,
      "velocity": 76,
      "chip": "ym2612"
    },
    {
      "channel": 2,
      "note": 76,
      "start": 4.0622,
      "duration": 0.0226,
      "velocity": 76,
      "chip": "ym2612"
    },
    {
      "channel": 3,
      "note": 73,
      "start": 4.0629,
      "duration": 0.0157,
      "velocity": 103,
      "chip": "ym2612"
    },
    {
      "channel": 4,
      "note": 85,
      "start": 4.0635,
      "duration": 0.0153,
      "velocity": 103,
      "chip": "ym2612"
    },
    {
      "channel": 0,
      "note": 73,
      "start": 4.0846,
      "duration": 0.0735,
      "velocity": 76,
      "chip": "ym2612"
    },
    {
      "channel": 2,
      "note": 76,
      "start": 4.0853,
      "duration": 0.0735,
      "velocity": 76,
      "chip": "ym2612"
    },
    {
      "channel": 3,
      "note": 73,
      "start": 4.0859,
      "duration": 0.0561,
      "velocity": 103,
      "chip": "ym2612"
    },
    {
      "channel": 4,
      "note": 85,
      "start": 4.0866,
      "duration": 0.0556,
      "velocity": 103,
      "chip": "ym2612"
    },
    {
      "channel": 0,
      "note": 73,
      "start": 4.1586,
      "duration": 0.0995,
      "velocity": 76,
      "chip": "ym2612"
    },
    {
      "channel": 2,
      "note": 73,
      "start": 4.1593,
      "duration": 0.0995,
      "velocity": 76,
      "chip": "ym2612"
    },
    {
      "channel": 3,
      "note": 73,
      "start": 4.1599,
      "duration": 0.082,
      "velocity": 103,
      "chip": "ym2612"
    },
    {
      "channel": 4,
      "note": 85,
      "start": 4.1606,
      "duration": 0.0816,
      "velocity": 103,
      "chip": "ym2612"
    },
    {
      "channel": 0,
      "note": 71,
      "start": 4.2586,
      "duration": 0.1161,
      "velocity": 76,
      "chip": "ym2612"
    },
    {
      "channel": 2,
      "note": 73,
      "start": 4.2593,
      "duration": 0.1162,
      "velocity": 76,
      "chip": "ym2612"
    },
    {
      "channel": 3,
      "note": 71,
      "start": 4.2599,
      "duration": 0.082,
      "velocity": 103,
      "chip": "ym2612"
    },
    {
      "channel": 4,
      "note": 83,
      "start": 4.2606,
      "duration": 0.0816,
      "velocity": 103,
      "chip": "ym2612"
    },
    {
      "channel": 0,
      "note": 73,
      "start": 4.3753,
      "duration": 0.0997,
      "velocity": 76,
      "chip": "ym2612"
    },
    {
      "channel": 2,
      "note": 73,
      "start": 4.3759,
      "duration": 12.0237,
      "velocity": 76,
      "chip": "ym2612"
    },
    {
      "channel": 3,
      "note": 73,
      "start": 4.3766,
      "duration": 0.082,
      "velocity": 103,
      "chip": "ym2612"
    },
    {
      "channel": 4,
      "note": 85,
      "start": 4.3773,
      "duration": 0.0816,
      "velocity": 103,
      "chip": "ym2612"
    }
  ]
}