{
  "track_name": "40 - Ending II",
  "duration_sec": 117.127,
  "sample_rate": 44100,
  "note_count": 1563,
  "unique_pitches": 55,
  "pitch_range": 75,
  "avg_note_duration": 0.4453,
  "reconstruction_stats": {
    "notes_reconstructed": 1563,
    "keyon_events": 1563,
    "keyoff_events": 1559,
    "orphan_keyons": 4,
    "unique_pitches": 55,
    "pitch_range": 75,
    "avg_duration_sec": 0.4453
  },
  "metadata": {
    "source": "S\\Sorcerian (Genesis)\\40 - Ending II.vgz"
  },
  "notes": [
    {
      "channel": 1,
      "note": 50,
      "start": 0.0,
      "duration": 0.3174,
      "velocity": 105,
      "chip": "ym2612"
    },
    {
      "channel": 2,
      "note": 50,
      "start": 0.0101,
      "duration": 0.6443,
      "velocity": 105,
      "chip": "ym2612"
    },
    {
      "channel": 0,
      "note": 50,
      "start": 0.3172,
      "duration": 0.6742,
      "velocity": 105,
      "chip": "ym2612"
    },
    {
      "channel": 1,
      "note": 57,
      "start": 0.3182,
      "duration": 0.6741,
      "velocity": 105,
      "chip": "ym2612"
    },
    {
      "channel": 3,
      "note": 88,
      "start": 0.3189,
      "duration": 1.0151,
      "velocity": 100,
      "chip": "ym2612"
    },
    {
      "channel": 4,
      "note": 84,
      "start": 0.3197,
      "duration": 1.0151,
      "velocity": 100,
      "chip": "ym2612"
    },
    {
      "channel": 5,
      "note": 88,
      "start": 0.6542,
      "duration": 1.0194,
      "velocity": 100,
      "chip": "ym2612"
    },
    {
      "channel": 2,
      "note": 53,
      "start": 0.6551,
      "duration": 0.3391,
      "velocity": 105,
      "chip": "ym2612"
    },
    {
      "channel": 0,
      "note": 53,
      "start": 0.9922,
      "duration": 0.3387,
      "velocity": 105,
      "chip": "ym2612"
    },
    {
      "channel": 1,
      "note": 56,
      "start": 0.993,
      "duration": 0.3401,
      "velocity": 105,
      "chip": "ym2612"
    },
    {
      "channel": 2,
      "note": 44,
      "start": 0.995,
      "duration": 0.3409,
      "velocity": 105,
      "chip": "ym2612"
    },
    {
      "channel": 0,
      "note": 44,
      "start": 1.333,
      "duration": 0.3373,
      "velocity": 105,
      "chip": "ym2612"
    },
    {
      "channel": 1,
      "note": 55,
      "start": 1.3339,
      "duration": 0.3373,
      "velocity": 105,
      "chip": "ym2612"
    },
    {
      "channel": 3,
      "note": 88,
      "start": 1.3346,
      "duration": 0.3375,
      "velocity": 100,
      "chip": "ym2612"
    },
    {
      "channel": 4,
      "note": 83,
      "start": 1.3354,
      "duration": 0.3375,
      "velocity": 100,
      "chip": "ym2612"
    },
    {
      "channel": 2,
      "note": 53,
      "start": 1.3367,
      "duration": 0.676,
      "velocity": 105,
      "chip": "ym2612"
    },
    {
      "channel": 0,
      "note": 53,
      "start": 1.6711,
      "duration": 0.6788,
      "velocity": 105,
      "chip": "ym2612"
    },
    {
      "channel": 1,
      "note": 55,
      "start": 1.672,
      "duration": 0.3383,
      "velocity": 105,
      "chip": "ym2612"
    },
    {
      "channel": 3,
      "note": 86,
      "start": 1.6727,
      "duration": 0.679,
      "velocity": 100,
      "chip": "ym2612"
    },
    {
      "channel": 4,
      "note": 83,
      "start": 1.6735,
      "duration": 0.6789,
      "velocity": 100,
      "chip": "ym2612"
    },
    {
      "channel": 5,
      "note": 88,
      "start": 1.6743,
      "duration": 0.3376,
      "velocity": 100,
      "chip": "ym2612"
    },
    {
      "channel": 1,
      "note": 43,
      "start": 2.011,
      "duration": 0.3398,
      "velocity": 105,
      "chip": "ym2612"
    },
    {
      "channel": 5,
      "note": 86,
      "start": 2.0125,
      "duration": 0.6796,
      "velocity": 100,
      "chip": "ym2612"
    },
    {
      "channel": 2,
      "note": 43,
      "start": 2.0134,
      "duration": 0.3402,
      "velocity": 105,
      "chip": "ym2612"
    },
    {
      "channel": 0,
      "note": 43,
      "start": 2.3507,
      "duration": 0.3382,
      "velocity": 105,
      "chip": "ym2612"
    },
    {
      "channel": 1,
      "note": 55,
      "start": 2.3516,
      "duration": 0.3382,
      "velocity": 105,
      "chip": "ym2612"
    },
    {
      "channel": 3,
      "note": 86,
      "start": 2.3523,
      "duration": 0.3383,
      "velocity": 100,
      "chip": "ym2612"
    },
    {
      "channel": 4,
      "note": 83,
      "start": 2.3531,
      "duration": 0.3383,
      "velocity": 100,
      "chip": "ym2612"
    },
    {
      "channel": 2,
      "note": 53,
      "start": 2.3544,
      "duration": 0.6768,
      "velocity": 105,
      "chip": "ym2612"
    },
    {
      "channel": 0,
      "note": 53,
      "start": 2.6896,
      "duration": 0.6782,
      "velocity": 105,
      "chip": "ym2612"
    },
    {
      "channel": 1,
      "note": 55,
      "start": 2.6905,
      "duration": 0.3382,
      "velocity": 105,
      "chip": "ym2612"
    },
    {
      "channel": 3,
      "note": 88,
      "start": 2.6913,
      "duration": 0.6783,
      "velocity": 100,
      "chip": "ym2612"
    },
    {
      "channel": 4,
      "note": 83,
      "start": 2.692,
      "duration": 0.6783,
      "velocity": 100,
      "chip": "ym2612"
    },
    {
      "channel": 5,
      "note": 86,
      "start": 2.6928,
      "duration": 0.3375,
      "velocity": 100,
      "chip": "ym2612"
    },
    {
      "channel": 1,
      "note": 48,
      "start": 3.0295,
      "duration": 0.3392,
      "velocity": 105,
      "chip": "ym2612"
    },
    {
      "channel": 5,
      "note": 88,
      "start": 3.031,
      "duration": 0.6797,
      "velocity": 100,
      "chip": "ym2612"
    },
    {
      "channel": 2,
      "note": 48,
      "start": 3.0332,
      "duration": 0.3383,
      "velocity": 105,
      "chip": "ym2612"
    },
    {
      "channel": 0,
      "note": 48,
      "start": 3.3685,
      "duration": 0.3388,
      "velocity": 105,
      "chip": "ym2612"
    },
    {
      "channel": 1,
      "note": 55,
      "start": 3.3694,
      "duration": 0.3388,
      "velocity": 105,
      "chip": "ym2612"
    },
    {
      "channel": 3,
      "note": 86,
      "start": 3.3702,
      "duration": 0.3389,
      "velocity": 100,
      "chip": "ym2612"
    },
    {
      "channel": 4,
      "note": 81,
      "start": 3.371,
      "duration": 0.3389,
      "velocity": 100,
      "chip": "ym2612"
    },
    {
      "channel": 2,
      "note": 52,
      "start": 3.3722,
      "duration": 0.6787,
      "velocity": 105,
      "chip": "ym2612"
    },
    {
      "channel": 0,
      "note": 52,
      "start": 3.708,
      "duration": 0.6781,
      "velocity": 105,
      "chip": "ym2612"
    },
    {
      "channel": 1,
      "note": 55,
      "start": 3.709,
      "duration": 0.3382,
      "velocity": 105,
      "chip": "ym2612"
    },
    {
      "channel": 3,
      "note": 84,
      "start": 3.7097,
      "duration": 0.6783,
      "velocity": 100,
      "chip": "ym2612"
    },
    {
      "channel": 4,
      "note": 81,
      "start": 3.7105,
      "duration": 0.6783,
      "velocity": 100,
      "chip": "ym2612"
    },
    {
      "channel": 5,
      "note": 86,
      "start": 3.7112,
      "duration": 0.3389,
      "velocity": 100,
      "chip": "ym2612"
    },
    {
      "channel": 1,
      "note": 50,
      "start": 4.0479,
      "duration": 0.3391,
      "velocity": 105,
      "chip": "ym2612"
    },
    {
      "channel": 5,
      "note": 84,
      "start": 4.0508,
      "duration": 0.6765,
      "velocity": 100,
      "chip": "ym2612"
    },
    {
      "channel": 2,
      "note": 50,
      "start": 4.0517,
      "duration": 0.6764,
      "velocity": 105,
      "chip": "ym2612"
    },
    {
      "channel": 0,
      "note": 50,
      "start": 4.3869,
      "duration": 0.6796,
      "velocity": 105,
      "chip": "ym2612"
    },
    {
      "channel": 1,
      "note": 57,
      "start": 4.3878,
      "duration": 0.6797,
      "velocity": 105,
      "chip": "ym2612"
    },
    {
      "channel": 3,
      "note": 88,
      "start": 4.3886,
      "duration": 1.0178,
      "velocity": 100,
      "chip": "ym2612"
    },
    {
      "channel": 4,
      "note": 84,
      "start": 4.3894,
      "duration": 1.0178,
      "velocity": 100,
      "chip": "ym2612"
    },
    {
      "channel": 5,
      "note": 88,
      "start": 4.728,
      "duration": 1.0195,
      "velocity": 100,
      "chip": "ym2612"
    },
    {
      "channel": 2,
      "note": 53,
      "start": 4.7289,
      "duration": 0.3406,
      "velocity": 105,
      "chip": "ym2612"
    },
    {
      "channel": 0,
      "note": 53,
      "start": 5.0673,
      "duration": 0.3373,
      "velocity": 105,
      "chip": "ym2612"
    },
    {
      "channel": 1,
      "note": 44,
      "start": 5.0682,
      "duration": 0.3373,
      "velocity": 105,
      "chip": "ym2612"
    },
    {
      "channel": 2,
      "note": 44,
      "start": 5.0701,
      "duration": 0.3382,
      "velocity": 105,
      "chip": "ym2612"
    },
    {
      "channel": 0,
      "note": 44,
      "start": 5.4054,
      "duration": 0.3387,
      "velocity": 105,
      "chip": "ym2612"
    },
    {
      "channel": 1,
      "note": 56,
      "start": 5.4063,
      "duration": 0.3387,
      "velocity": 105,
      "chip": "ym2612"
    },
    {
      "channel": 3,
      "note": 88,
      "start": 5.407,
      "duration": 0.3389,
      "velocity": 100,
      "chip": "ym2612"
    },
    {
      "channel": 4,
      "note": 83,
      "start": 5.4078,
      "duration": 0.3389,
      "velocity": 100,
      "chip": "ym2612"
    },
    {
      "channel": 2,
      "note": 52,
      "start": 5.4091,
      "duration": 0.6781,
      "velocity": 105,
      "chip": "ym2612"
    },
    {
      "channel": 0,
      "note": 52,
      "start": 5.7449,
      "duration": 0.6782,
      "velocity": 105,
      "chip": "ym2612"
    },
    {
      "channel": 1,
      "note": 56,
      "start": 5.7458,
      "duration": 0.3382,
      "velocity": 105,
      "chip": "ym2612"
    },
    {
      "channel": 3,
      "note": 86,
      "start": 5.7466,
      "duration": 0.3383,
      "velocity": 100,
      "chip": "ym2612"
    },
    {
      "channel": 4,
      "note": 83,
      "start": 5.7473,
      "duration": 0.3384,
      "velocity": 100,
      "chip": "ym2612"
    },
    {
      "channel": 5,
      "note": 88,
      "start": 5.7481,
      "duration": 0.3384,
      "velocity": 100,
      "chip": "ym2612"
    },
    {
      "channel": 1,
      "note": 57,
      "start": 6.0848,
      "duration": 2.0366,
      "velocity": 105,
      "chip": "ym2612"
    },
    {
      "channel": 3,
      "note": 88,
      "start": 6.0855,
      "duration": 2.3761,
      "velocity": 100,
      "chip": "ym2612"
    },
    {
      "channel": 4,
      "note": 84,
      "start": 6.0863,
      "duration": 0.3384,
      "velocity": 100,
      "chip": "ym2612"
    },
    {
      "channel": 5,
      "note": 86,
      "start": 6.0871,
      "duration": 0.3384,
      "velocity": 100,
      "chip": "ym2612"
    },
    {
      "channel": 2,
      "note": 45,
      "start": 6.088,
      "duration": 0.3383,
      "velocity": 105,
      "chip": "ym2612"
    },
    {
      "channel": 0,
      "note": 45,
      "start": 6.4238,
      "duration": 0.3388,
      "velocity": 105,
      "chip": "ym2612"
    },
    {
      "channel": 4,
      "note": 88,
      "start": 6.4254,
      "duration": 0.3389,
      "velocity": 100,
      "chip": "ym2612"
    },
    {
      "channel": 5,
      "note": 88,
      "start": 6.4261,
      "duration": 2.3756,
      "velocity": 100,
      "chip": "ym2612"
    },
    {
      "channel": 2,
      "note": 48,
      "start": 6.427,
      "duration": 0.3396,
      "velocity": 105,
      "chip": "ym2612"
    },
    {
      "channel": 0,
      "note": 48,
      "start": 6.7633,
      "duration": 0.3387,
      "velocity": 105,
      "chip": "ym2612"
    },
    {
      "channel": 4,
      "note": 91,
      "start": 6.7648,
      "duration": 0.3389,
      "velocity": 100,
      "chip": "ym2612"
    },
    {
      "channel": 2,
      "note": 52,
      "start": 6.7674,
      "duration": 0.3374,
      "velocity": 105,
      "chip": "ym2612"
    },
    {
      "channel": 0,
      "note": 52,
      "start": 7.1027,
      "duration": 0.3387,
      "velocity": 105,
      "chip": "ym2612"
    },
    {
      "channel": 4,
      "note": 95,
      "start": 7.1043,
      "duration": 0.3389,
      "velocity": 100,
      "chip": "ym2612"
    },
    {
      "channel": 2,
      "note": 55,
      "start": 7.1055,
      "duration": 0.3388,
      "velocity": 105,
      "chip": "ym2612"
    },
    {
      "channel": 0,
      "note": 55,
      "start": 7.4422,
      "duration": 0.3387,
      "velocity": 105,
      "chip": "ym2612"
    },
    {
      "channel": 4,
      "note": 93,
      "start": 7.4438,
      "duration": 0.3401,
      "velocity": 100,
      "chip": "ym2612"
    },
    {
      "channel": 2,
      "note": 53,
      "start": 7.445,
      "duration": 0.34,
      "velocity": 105,
      "chip": "ym2612"
    },
    {
      "channel": 0,
      "note": 53,
      "start": 7.783,
      "duration": 0.3375,
      "velocity": 105,
      "chip": "ym2612"
    },
    {
      "channel": 4,
      "note": 91,
      "start": 7.7846,
      "duration": 0.338,
      "velocity": 100,
      "chip": "ym2612"
    },
    {
      "channel": 2,
      "note": 52,
      "start": 7.7858,
      "duration": 0.3375,
      "velocity": 105,
      "chip": "ym2612"
    },
    {
      "channel": 0,
      "note": 52,
      "start": 8.1212,
      "duration": 0.3387,
      "velocity": 105,
      "chip": "ym2612"
    },
    {
      "channel": 1,
      "note": 50,
      "start": 8.1221,
      "duration": 0.3387,
      "velocity": 105,
      "chip": "ym2612"
    },
    {
      "channel": 2,
      "note": 50,
      "start": 8.124,
      "duration": 0.6784,
      "velocity": 105,
      "chip": "ym2612"
    },
    {
      "channel": 0,
      "note": 50,
      "start": 8.4607,
      "duration": 0.6782,
      "velocity": 105,
      "chip": "ym2612"
    },
    {
      "channel": 1,
      "note": 57,
      "start": 8.4616,
      "duration": 0.6782,
      "velocity": 105,
      "chip": "ym2612"
    },
    {
      "channel": 3,
      "note": 88,
      "start": 8.4623,
      "duration": 1.0178,
      "velocity": 100,
      "chip": "ym2612"
    },
    {
      "channel": 4,
      "note": 84,
      "start": 8.4631,
      "duration": 1.0178,
      "velocity": 100,
      "chip": "ym2612"
    },
    {
      "channel": 5,
      "note": 88,
      "start": 8.8023,
      "duration": 1.0188,
      "velocity": 100,
      "chip": "ym2612"
    },
    {
      "channel": 2,
      "note": 53,
      "start": 8.8032,
      "duration": 0.3385,
      "velocity": 105,
      "chip": "ym2612"
    },
    {
      "channel": 0,
      "note": 53,
      "start": 9.1396,
      "duration": 0.3388,
      "velocity": 105,
      "chip": "ym2612"
    },
    {
      "channel": 1,
      "note": 44,
      "start": 9.1405,
      "duration": 0.3388,
      "velocity": 105,
      "chip": "ym2612"
    },
    {
      "channel": 2,
      "note": 44,
      "start": 9.1424,
      "duration": 0.341,
      "velocity": 105,
      "chip": "ym2612"
    },
    {
      "channel": 0,
      "note": 44,
      "start": 9.4791,
      "duration": 0.3387,
      "velocity": 105,
      "chip": "ym2612"
    },
    {
      "channel": 1,
      "note": 55,
      "start": 9.48,
      "duration": 0.3387,
      "velocity": 105,
      "chip": "ym2612"
    },
    {
      "channel": 3,
      "note": 88,
      "start": 9.4808,
      "duration": 0.3388,
      "velocity": 100,
      "chip": "ym2612"
    },
    {
      "channel": 4,
      "note": 83,
      "start": 9.4815,
      "duration": 0.3388,
      "velocity": 100,
      "chip": "ym2612"
    },
    {
      "channel": 2,
      "note": 53,
      "start": 9.4841,
      "duration": 0.6759,
      "velocity": 105,
      "chip": "ym2612"
    },
    {
      "channel": 0,
      "note": 53,
      "start": 9.8185,
      "duration": 0.6782,
      "velocity": 105,
      "chip": "ym2612"
    },
    {
      "channel": 1,
      "note": 55,
      "start": 9.8194,
      "duration": 0.3383,
      "velocity": 105,
      "chip": "ym2612"
    },
    {
      "channel": 3,
      "note": 86,
      "start": 9.8202,
      "duration": 0.6796,
      "velocity": 100,
      "chip": "ym2612"
    },
    {
      "channel": 4,
      "note": 83,
      "start": 9.821,
      "duration": 0.6796,
      "velocity": 100,
      "chip": "ym2612"
    },
    {
      "channel": 5,
      "note": 88,
      "start": 9.8217,
      "duration": 0.3376,
      "velocity": 100,
      "chip": "ym2612"
    },
    {
      "channel": 1,
      "note": 43,
      "start": 10.1585,
      "duration": 0.3391,
      "velocity": 105,
      "chip": "ym2612"
    },
    {
      "channel": 5,
      "note": 86,
      "start": 10.16,
      "duration": 0.6797,
      "velocity": 100,
      "chip": "ym2612"
    },
    {
      "channel": 2,
      "note": 43,
      "start": 10.1609,
      "duration": 0.3408,
      "velocity": 105,
      "chip": "ym2612"
    },
    {
      "channel": 0,
      "note": 43,
      "start": 10.4975,
      "duration": 0.3388,
      "velocity": 105,
      "chip": "ym2612"
    },
    {
      "channel": 1,
      "note": 55,
      "start": 10.4997,
      "duration": 0.3375,
      "velocity": 105,
      "chip": "ym2612"
    },
    {
      "channel": 3,
      "note": 86,
      "start": 10.5005,
      "duration": 0.3376,
      "velocity": 100,
      "chip": "ym2612"
    },
    {
      "channel": 4,
      "note": 83,
      "start": 10.5012,
      "duration": 0.3376,
      "velocity": 100,
      "chip": "ym2612"
    },
    {
      "channel": 2,
      "note": 53,
      "start": 10.5024,
      "duration": 0.6761,
      "velocity": 105,
      "chip": "ym2612"
    },
    {
      "channel": 0,
      "note": 53,
      "start": 10.837,
      "duration": 0.6796,
      "velocity": 105,
      "chip": "ym2612"
    },
    {
      "channel": 1,
      "note": 55,
      "start": 10.8379,
      "duration": 0.3383,
      "velocity": 105,
      "chip": "ym2612"
    },
    {
      "channel": 3,
      "note": 88,
      "start": 10.8387,
      "duration": 0.6797,
      "velocity": 100,
      "chip": "ym2612"
    },
    {
      "channel": 4,
      "note": 83,
      "start": 10.8394,
      "duration": 0.6797,
      "velocity": 100,
      "chip": "ym2612"
    },
    {
      "channel": 5,
      "note": 86,
      "start": 10.8402,
      "duration": 0.3376,
      "velocity": 100,
      "chip": "ym2612"
    },
    {
      "channel": 1,
      "note": 48,
      "start": 11.177,
      "duration": 0.3405,
      "velocity": 105,
      "chip": "ym2612"
    },
    {
      "channel": 5,
      "note": 88,
      "start": 11.1784,
      "duration": 0.6795,
      "velocity": 100,
      "chip": "ym2612"
    },
    {
      "channel": 2,
      "note": 48,
      "start": 11.1793,
      "duration": 0.3409,
      "velocity": 105,
      "chip": "ym2612"
    },
    {
      "channel": 0,
      "note": 48,
      "start": 11.5173,
      "duration": 0.3373,
      "velocity": 105,
      "chip": "ym2612"
    },
    {
      "channel": 1,
      "note": 55,
      "start": 11.5182,
      "duration": 0.3373,
      "velocity": 105,
      "chip": "ym2612"
    },
    {
      "channel": 3,
      "note": 86,
      "start": 11.5189,
      "duration": 0.3375,
      "velocity": 100,
      "chip": "ym2612"
    },
    {
      "channel": 4,
      "note": 81,
      "start": 11.5197,
      "duration": 0.3375,
      "velocity": 100,
      "chip": "ym2612"
    },
    {
      "channel": 2,
      "note": 52,
      "start": 11.521,
      "duration": 0.6761,
      "velocity": 105,
      "chip": "ym2612"
    },
    {
      "channel": 0,
      "note": 52,
      "start": 11.8554,
      "duration": 0.6916,
      "velocity": 105,
      "chip": "ym2612"
    },
    {
      "channel": 1,
      "note": 55,
      "start": 11.8563,
      "duration": 0.3383,
      "velocity": 105,
      "chip": "ym2612"
    },
    {
      "channel": 3,
      "note": 84,
      "start": 11.857,
      "duration": 0.6931,
      "velocity": 100,
      "chip": "ym2612"
    },
    {
      "channel": 4,
      "note": 81,
      "start": 11.8578,
      "duration": 0.6931,
      "velocity": 100,
      "chip": "ym2612"
    },
    {
      "channel": 5,
      "note": 86,
      "start": 11.8586,
      "duration": 0.3377,
      "velocity": 100,
      "chip": "ym2612"
    },
    {
      "channel": 1,
      "note": 50,
      "start": 12.1954,
      "duration": 0.3525,
      "velocity": 105,
      "chip": "ym2612"
    },
    {
      "channel": 5,
      "note": 84,
      "start": 12.1969,
      "duration": 0.7202,
      "velocity": 100,
      "chip": "ym2612"
    },
    {
      "channel": 2,
      "note": 50,
      "start": 12.1978,
      "duration": 0.72,
      "velocity": 105,
      "chip": "ym2612"
    },
    {
      "channel": 0,
      "note": 50,
      "start": 12.5478,
      "duration": 0.7357,
      "velocity": 105,
      "chip": "ym2612"
    },
    {
      "channel": 1,
      "note": 57,
      "start": 12.55,
      "duration": 0.7344,
      "velocity": 105,
      "chip": "ym2612"
    },
    {
      "channel": 3,
      "note": 88,
      "start": 12.5507,
      "duration": 1.1085,
      "velocity": 100,
      "chip": "ym2612"
    },
    {
      "channel": 4,
      "note": 84,
      "start": 12.5515,
      "duration": 1.1085,
      "velocity": 100,
      "chip": "ym2612"
    },
    {
      "channel": 5,
      "note": 88,
      "start": 12.9177,
      "duration": 1.1252,
      "velocity": 100,
      "chip": "ym2612"
    },
    {
      "channel": 2,
      "note": 53,
      "start": 12.9186,
      "duration": 0.3678,
      "velocity": 105,
      "chip": "ym2612"
    },
    {
      "channel": 0,
      "note": 53,
      "start": 13.2842,
      "duration": 0.3733,
      "velocity": 105,
      "chip": "ym2612"
    },
    {
      "channel": 1,
      "note": 43,
      "start": 13.2851,
      "duration": 0.3733,
      "velocity": 105,
      "chip": "ym2612"
    },
    {
      "channel": 2,
      "note": 43,
      "start": 13.2871,
      "duration": 0.3741,
      "velocity": 105,
      "chip": "ym2612"
    },
    {
      "channel": 0,
      "note": 43,
      "start": 13.6583,
      "duration": 0.3814,
      "velocity": 105,
      "chip": "ym2612"
    },
    {
      "channel": 1,
      "note": 55,
      "start": 13.6591,
      "duration": 0.3814,
      "velocity": 105,
      "chip": "ym2612"
    },
    {
      "channel": 3,
      "note": 88,
      "start": 13.6599,
      "duration": 0.3815,
      "velocity": 100,
      "chip": "ym2612"
    },
    {
      "channel": 4,
      "note": 83,
      "start": 13.6607,
      "duration": 0.3815,
      "velocity": 100,
      "chip": "ym2612"
    },
    {
      "channel": 2,
      "note": 53,
      "start": 13.6619,
      "duration": 0.7727,
      "velocity": 95,
      "chip": "ym2612"
    },
    {
      "channel": 0,
      "note": 53,
      "start": 14.0404,
      "duration": 0.7477,
      "velocity": 95,
      "chip": "ym2612"
    },
    {
      "channel": 1,
      "note": 55,
      "start": 14.0413,
      "duration": 0.3843,
      "velocity": 92,
      "chip": "ym2612"
    },
    {
      "channel": 3,
      "note": 86,
      "start": 14.042,
      "duration": 0.387,
      "velocity": 100,
      "chip": "ym2612"
    },
    {
      "channel": 4,
      "note": 83,
      "start": 14.0428,
      "duration": 0.7498,
      "velocity": 100,
      "chip": "ym2612"
    },
    {
      "channel": 5,
      "note": 88,
      "start": 14.0436,
      "duration": 0.3862,
      "velocity": 100,
      "chip": "ym2612"
    },
    {
      "channel": 1,
      "note": 48,
      "start": 14.4261,
      "duration": 2.0592,
      "velocity": 92,
      "chip": "ym2612"
    },
    {
      "channel": 5,
      "note": 86,
      "start": 14.4303,
      "duration": 0.3633,
      "velocity": 100,
      "chip": "ym2612"
    },
    {
      "channel": 2,
      "note": 60,
      "start": 14.4351,
      "duration": 0.3588,
      "velocity": 95,
      "chip": "ym2612"
    },
    {
      "channel": 0,
      "note": 60,
      "start": 14.7887,
      "duration": 0.338,
      "velocity": 95,
      "chip": "ym2612"
    },
    {
      "channel": 3,
      "note": 83,
      "start": 14.7898,
      "duration": 0.338,
      "velocity": 100,
      "chip": "ym2612"
    },
    {
      "channel": 4,
      "note": 79,
      "start": 14.7932,
      "duration": 0.3354,
      "velocity": 100,
      "chip": "ym2612"
    },
    {
      "channel": 2,
      "note": 67,
      "start": 14.7945,
      "duration": 0.3355,
      "velocity": 95,
      "chip": "ym2612"
    },
    {
      "channel": 0,
      "note": 67,
      "start": 15.1273,
      "duration": 0.3395,
      "velocity": 95,
      "chip": "ym2612"
    },
    {
      "channel": 3,
      "note": 81,
      "start": 15.1283,
      "duration": 0.3395,
      "velocity": 100,
      "chip": "ym2612"
    },
    {
      "channel": 4,
      "note": 77,
      "start": 15.1291,
      "duration": 0.3395,
      "velocity": 100,
      "chip": "ym2612"
    },
    {
      "channel": 5,
      "note": 83,
      "start": 15.1299,
      "duration": 0.3395,
      "velocity": 100,
      "chip": "ym2612"
    },
    {
      "channel": 2,
      "note": 69,
      "start": 15.1306,
      "duration": 0.3396,
      "velocity": 95,
      "chip": "ym2612"
    },
    {
      "channel": 0,
      "note": 69,
      "start": 15.4673,
      "duration": 0.3382,
      "velocity": 95,
      "chip": "ym2612"
    },
    {
      "channel": 3,
      "note": 79,
      "start": 15.4685,
      "duration": 1.3566,
      "velocity": 100,
      "chip": "ym2612"
    },
    {
      "channel": 4,
      "note": 76,
      "start": 15.4693,
      "duration": 1.3566,
      "velocity": 100,
      "chip": "ym2612"
    },
    {
      "channel": 5,
      "note": 81,
      "start": 15.47,
      "duration": 0.3373,
      "velocity": 100,
      "chip": "ym2612"
    },
    {
      "channel": 2,
      "note": 71,
      "start": 15.4707,
      "duration": 0.3374,
      "velocity": 95,
      "chip": "ym2612"
    },
    {
      "channel": 0,
      "note": 71,
      "start": 15.8061,
      "duration": 0.3389,
      "velocity": 95,
      "chip": "ym2612"
    },
    {
      "channel": 5,
      "note": 79,
      "start": 15.808,
      "duration": 1.3594,
      "velocity": 100,
      "chip": "ym2612"
    },
    {
      "channel": 2,
      "note": 69,
      "start": 15.8087,
      "duration": 0.3385,
      "velocity": 95,
      "chip": "ym2612"
    },
    {
      "channel": 0,
      "note": 69,
      "start": 16.1457,
      "duration": 0.3389,
      "velocity": 95,
      "chip": "ym2612"
    },
    {
      "channel": 2,
      "note": 67,
      "start": 16.1478,
      "duration": 0.3393,
      "velocity": 95,
      "chip": "ym2612"
    },
    {
      "channel": 0,
      "note": 67,
      "start": 16.4851,
      "duration": 0.3389,
      "velocity": 95,
      "chip": "ym2612"
    },
    {
      "channel": 1,
      "note": 48,
      "start": 16.4859,
      "duration": 2.0388,
      "velocity": 99,
      "chip": "ym2612"
    },
    {
      "channel": 2,
      "note": 60,
      "start": 16.4876,
      "duration": 0.3393,
      "velocity": 95,
      "chip": "ym2612"
    },
    {
      "channel": 0,
      "note": 60,
      "start": 16.8246,
      "duration": 0.3389,
      "velocity": 95,
      "chip": "ym2612"
    },
    {
      "channel": 3,
      "note": 83,
      "start": 16.8257,
      "duration": 0.3389,
      "velocity": 100,
      "chip": "ym2612"
    },
    {
      "channel": 4,
      "note": 79,
      "start": 16.8265,
      "duration": 0.3401,
      "velocity": 100,
      "chip": "ym2612"
    },
    {
      "channel": 2,
      "note": 67,
      "start": 16.8276,
      "duration": 0.3406,
      "velocity": 95,
      "chip": "ym2612"
    },
    {
      "channel": 0,
      "note": 67,
      "start": 17.1641,
      "duration": 0.3389,
      "velocity": 95,
      "chip": "ym2612"
    },
    {
      "channel": 3,
      "note": 81,
      "start": 17.1665,
      "duration": 0.3376,
      "velocity": 100,
      "chip": "ym2612"
    },
    {
      "channel": 4,
      "note": 77,
      "start": 17.1673,
      "duration": 0.3375,
      "velocity": 100,
      "chip": "ym2612"
    },
    {
      "channel": 5,
      "note": 83,
      "start": 17.168,
      "duration": 0.3375,
      "velocity": 100,
      "chip": "ym2612"
    },
    {
      "channel": 2,
      "note": 69,
      "start": 17.1688,
      "duration": 0.3376,
      "velocity": 95,
      "chip": "ym2612"
    },
    {
      "channel": 0,
      "note": 69,
      "start": 17.5035,
      "duration": 0.339,
      "velocity": 95,
      "chip": "ym2612"
    },
    {
      "channel": 3,
      "note": 79,
      "start": 17.5047,
      "duration": 1.0207,
      "velocity": 100,
      "chip": "ym2612"
    },
    {
      "channel": 4,
      "note": 76,
      "start": 17.5054,
      "duration": 1.0207,
      "velocity": 100,
      "chip": "ym2612"
    },
    {
      "channel": 5,
      "note": 81,
      "start": 17.5062,
      "duration": 0.3381,
      "velocity": 100,
      "chip": "ym2612"
    },
    {
      "channel": 2,
      "note": 71,
      "start": 17.5069,
      "duration": 0.3382,
      "velocity": 95,
      "chip": "ym2612"
    },
    {
      "channel": 0,
      "note": 71,
      "start": 17.8431,
      "duration": 0.3401,
      "velocity": 95,
      "chip": "ym2612"
    },
    {
      "channel": 5,
      "note": 79,
      "start": 17.8449,
      "duration": 1.0186,
      "velocity": 100,
      "chip": "ym2612"
    },
    {
      "channel": 2,
      "note": 69,
      "start": 17.8456,
      "duration": 0.3397,
      "velocity": 95,
      "chip": "ym2612"
    },
    {
      "channel": 0,
      "note": 69,
      "start": 18.1838,
      "duration": 0.3376,
      "velocity": 95,
      "chip": "ym2612"
    },
    {
      "channel": 2,
      "note": 67,
      "start": 18.186,
      "duration": 0.3412,
      "velocity": 95,
      "chip": "ym2612"
    },
    {
      "channel": 0,
      "note": 67,
      "start": 18.522,
      "duration": 0.3389,
      "velocity": 95,
      "chip": "ym2612"
    },
    {
      "channel": 1,
      "note": 81,
      "start": 18.5252,
      "duration": 2.0338,
      "velocity": 99,
      "chip": "ym2612"
    },
    {
      "channel": 3,
      "note": 96,
      "start": 18.526,
      "duration": 0.336,
      "velocity": 100,
      "chip": "ym2612"
    },
    {
      "channel": 4,
      "note": 77,
      "start": 18.5268,
      "duration": 0.1655,
      "velocity": 100,
      "chip": "ym2612"
    },
    {
      "channel": 2,
      "note": 62,
      "start": 18.5278,
      "duration": 0.3364,
      "velocity": 95,
      "chip": "ym2612"
    },
    {
      "channel": 4,
      "note": 81,
      "start": 18.6929,
      "duration": 0.1699,
      "velocity": 100,
      "chip": "ym2612"
    },
    {
      "channel": 0,
      "note": 62,
      "start": 18.8615,
      "duration": 0.3389,
      "velocity": 95,
      "chip": "ym2612"
    },
    {
      "channel": 3,
      "note": 98,
      "start": 18.8626,
      "duration": 0.3389,
      "velocity": 100,
      "chip": "ym2612"
    },
    {
      "channel": 4,
      "note": 83,
      "start": 18.8633,
      "duration": 0.1698,
      "velocity": 100,
      "chip": "ym2612"
    },
    {
      "channel": 5,
      "note": 96,
      "start": 18.8642,
      "duration": 0.3389,
      "velocity": 100,
      "chip": "ym2612"
    },
    {
      "channel": 2,
      "note": 69,
      "start": 18.8663,
      "duration": 0.3375,
      "velocity": 95,
      "chip": "ym2612"
    },
    {
      "channel": 4,
      "note": 77,
      "start": 19.0338,
      "duration": 0.1685,
      "velocity": 100,
      "chip": "ym2612"
    },
    {
      "channel": 0,
      "note": 69,
      "start": 19.201,
      "duration": 0.3389,
      "velocity": 95,
      "chip": "ym2612"
    },
    {
      "channel": 3,
      "note": 93,
      "start": 19.2021,
      "duration": 0.3388,
      "velocity": 100,
      "chip": "ym2612"
    },
    {
      "channel": 4,
      "note": 81,
      "start": 19.2029,
      "duration": 0.1683,
      "velocity": 100,
      "chip": "ym2612"
    },
    {
      "channel": 5,
      "note": 98,
      "start": 19.2037,
      "duration": 0.3389,
      "velocity": 100,
      "chip": "ym2612"
    },
    {
      "channel": 2,
      "note": 71,
      "start": 19.2044,
      "duration": 0.339,
      "velocity": 95,
      "chip": "ym2612"
    },
    {
      "channel": 4,
      "note": 83,
      "start": 19.3718,
      "duration": 0.17,
      "velocity": 100,
      "chip": "ym2612"
    },
    {
      "channel": 0,
      "note": 71,
      "start": 19.5405,
      "duration": 0.3388,
      "velocity": 95,
      "chip": "ym2612"
    },
    {
      "channel": 3,
      "note": 96,
      "start": 19.5416,
      "duration": 0.3388,
      "velocity": 100,
      "chip": "ym2612"
    },
    {
      "channel": 4,
      "note": 77,
      "start": 19.5425,
      "duration": 0.1682,
      "velocity": 100,
      "chip": "ym2612"
    },
    {
      "channel": 5,
      "note": 93,
      "start": 19.5432,
      "duration": 0.3401,
      "velocity": 100,
      "chip": "ym2612"
    },
    {
      "channel": 2,
      "note": 72,
      "start": 19.5439,
      "duration": 0.3401,
      "velocity": 95,
      "chip": "ym2612"
    },
    {
      "channel": 4,
      "note": 81,
      "start": 19.7112,
      "duration": 0.17,
      "velocity": 100,
      "chip": "ym2612"
    },
    {
      "channel": 0,
      "note": 72,
      "start": 19.8799,
      "duration": 0.3389,
      "velocity": 95,
      "chip": "ym2612"
    },
    {
      "channel": 3,
      "note": 98,
      "start": 19.881,
      "duration": 0.3389,
      "velocity": 100,
      "chip": "ym2612"
    },
    {
      "channel": 4,
      "note": 83,
      "start": 19.8832,
      "duration": 0.168,
      "velocity": 100,
      "chip": "ym2612"
    },
    {
      "channel": 5,
      "note": 96,
      "start": 19.8839,
      "duration": 0.3375,
      "velocity": 100,
      "chip": "ym2612"
    },
    {
      "channel": 2,
      "note": 71,
      "start": 19.8847,
      "duration": 0.3375,
      "velocity": 95,
      "chip": "ym2612"
    },
    {
      "channel": 4,
      "note": 77,
      "start": 20.0518,
      "duration": 0.1689,
      "velocity": 100,
      "chip": "ym2612"
    },
    {
      "channel": 0,
      "note": 71,
      "start": 20.2194,
      "duration": 0.3389,
      "velocity": 95,
      "chip": "ym2612"
    },
    {
      "channel": 3,
      "note": 93,
      "start": 20.2205,
      "duration": 0.3393,
      "velocity": 100,
      "chip": "ym2612"
    },
    {
      "channel": 4,
      "note": 81,
      "start": 20.2212,
      "duration": 0.1684,
      "velocity": 100,
      "chip": "ym2612"
    },
    {
      "channel": 5,
      "note": 98,
      "start": 20.222,
      "duration": 0.3394,
      "velocity": 100,
      "chip": "ym2612"
    },
    {
      "channel": 2,
      "note": 69,
      "start": 20.2227,
      "duration": 0.3395,
      "velocity": 95,
      "chip": "ym2612"
    },
    {
      "channel": 4,
      "note": 83,
      "start": 20.3902,
      "duration": 0.1705,
      "velocity": 100,
      "chip": "ym2612"
    },
    {
      "channel": 0,
      "note": 69,
      "start": 20.5589,
      "duration": 0.3389,
      "velocity": 95,
      "chip": "ym2612"
    },
    {
      "channel": 1,
      "note": 81,
      "start": 20.5596,
      "duration": 2.0363,
      "velocity": 99,
      "chip": "ym2612"
    },
    {
      "channel": 3,
      "note": 96,
      "start": 20.5604,
      "duration": 0.3397,
      "velocity": 100,
      "chip": "ym2612"
    },
    {
      "channel": 4,
      "note": 77,
      "start": 20.5612,
      "duration": 0.1678,
      "velocity": 100,
      "chip": "ym2612"
    },
    {
      "channel": 5,
      "note": 93,
      "start": 20.562,
      "duration": 0.3396,
      "velocity": 100,
      "chip": "ym2612"
    },
    {
      "channel": 2,
      "note": 62,
      "start": 20.5628,
      "duration": 0.3396,
      "velocity": 95,
      "chip": "ym2612"
    },
    {
      "channel": 4,
      "note": 81,
      "start": 20.7297,
      "duration": 0.1712,
      "velocity": 100,
      "chip": "ym2612"
    },
    {
      "channel": 0,
      "note": 62,
      "start": 20.8996,
      "duration": 0.3376,
      "velocity": 95,
      "chip": "ym2612"
    },
    {
      "channel": 3,
      "note": 98,
      "start": 20.9007,
      "duration": 0.3375,
      "velocity": 100,
      "chip": "ym2612"
    },
    {
      "channel": 4,
      "note": 83,
      "start": 20.9015,
      "duration": 0.1671,
      "velocity": 100,
      "chip": "ym2612"
    },
    {
      "channel": 5,
      "note": 96,
      "start": 20.9023,
      "duration": 0.3376,
      "velocity": 100,
      "chip": "ym2612"
    },
    {
      "channel": 2,
      "note": 69,
      "start": 20.903,
      "duration": 0.3377,
      "velocity": 95,
      "chip": "ym2612"
    },
    {
      "channel": 4,
      "note": 77,
      "start": 21.0693,
      "duration": 0.1698,
      "velocity": 100,
      "chip": "ym2612"
    },
    {
      "channel": 0,
      "note": 69,
      "start": 21.2378,
      "duration": 0.3389,
      "velocity": 95,
      "chip": "ym2612"
    },
    {
      "channel": 3,
      "note": 93,
      "start": 21.2389,
      "duration": 0.3389,
      "velocity": 100,
      "chip": "ym2612"
    },
    {
      "channel": 4,
      "note": 81,
      "start": 21.2397,
      "duration": 0.1684,
      "velocity": 100,
      "chip": "ym2612"
    },
    {
      "channel": 5,
      "note": 98,
      "start": 21.2404,
      "duration": 0.339,
      "velocity": 100,
      "chip": "ym2612"
    },
    {
      "channel": 2,
      "note": 71,
      "start": 21.2412,
      "duration": 0.339,
      "velocity": 95,
      "chip": "ym2612"
    },
    {
      "channel": 4,
      "note": 83,
      "start": 21.4087,
      "duration": 0.17,
      "velocity": 100,
      "chip": "ym2612"
    },
    {
      "channel": 0,
      "note": 71,
      "start": 21.5773,
      "duration": 0.3398,
      "velocity": 95,
      "chip": "ym2612"
    },
    {
      "channel": 3,
      "note": 96,
      "start": 21.5784,
      "duration": 0.3397,
      "velocity": 100,
      "chip": "ym2612"
    },
    {
      "channel": 4,
      "note": 77,
      "start": 21.5793,
      "duration": 0.1683,
      "velocity": 100,
      "chip": "ym2612"
    },
    {
      "channel": 5,
      "note": 93,
      "start": 21.58,
      "duration": 0.3396,
      "velocity": 100,
      "chip": "ym2612"
    },
    {
      "channel": 2,
      "note": 72,
      "start": 21.5808,
      "duration": 0.3396,
      "velocity": 95,
      "chip": "ym2612"
    },
    {
      "channel": 4,
      "note": 81,
      "start": 21.7481,
      "duration": 0.1708,
      "velocity": 100,
      "chip": "ym2612"
    },
    {
      "channel": 0,
      "note": 72,
      "start": 21.9176,
      "duration": 0.3381,
      "velocity": 95,
      "chip": "ym2612"
    },
    {
      "channel": 3,
      "note": 98,
      "start": 21.9187,
      "duration": 0.3381,
      "velocity": 100,
      "chip": "ym2612"
    },
    {
      "channel": 4,
      "note": 83,
      "start": 21.9194,
      "duration": 0.1676,
      "velocity": 100,
      "chip": "ym2612"
    },
    {
      "channel": 5,
      "note": 96,
      "start": 21.9202,
      "duration": 0.3382,
      "velocity": 100,
      "chip": "ym2612"
    },
    {
      "channel": 2,
      "note": 71,
      "start": 21.921,
      "duration": 0.3382,
      "velocity": 95,
      "chip": "ym2612"
    },
    {
      "channel": 4,
      "note": 77,
      "start": 22.0877,
      "duration": 0.1699,
      "velocity": 100,
      "chip": "ym2612"
    },
    {
      "channel": 0,
      "note": 71,
      "start": 22.2563,
      "duration": 0.3388,
      "velocity": 95,
      "chip": "ym2612"
    },
    {
      "channel": 3,
      "note": 93,
      "start": 22.2574,
      "duration": 0.3392,
      "velocity": 100,
      "chip": "ym2612"
    },
    {
      "channel": 4,
      "note": 81,
      "start": 22.2582,
      "duration": 0.1683,
      "velocity": 100,
      "chip": "ym2612"
    },
    {
      "channel": 5,
      "note": 98,
      "start": 22.259,
      "duration": 0.3406,
      "velocity": 100,
      "chip": "ym2612"
    },
    {
      "channel": 2,
      "note": 69,
      "start": 22.2597,
      "duration": 0.3407,
      "velocity": 95,
      "chip": "ym2612"
    },
    {
      "channel": 4,
      "note": 83,
      "start": 22.4271,
      "duration": 0.1704,
      "velocity": 100,
      "chip": "ym2612"
    },
    {
      "channel": 0,
      "note": 69,
      "start": 22.5957,
      "duration": 0.3389,
      "velocity": 95,
      "chip": "ym2612"
    },
    {
      "channel": 1,
      "note": 79,
      "start": 22.5965,
      "duration": 2.0377,
      "velocity": 99,
      "chip": "ym2612"
    },
    {
      "channel": 3,
      "note": 95,
      "start": 22.5972,
      "duration": 0.6779,
      "velocity": 100,
      "chip": "ym2612"
    },
    {
      "channel": 4,
      "note": 79,
      "start": 22.5981,
      "duration": 0.1691,
      "velocity": 100,
      "chip": "ym2612"
    },
    {
      "channel": 5,
      "note": 93,
      "start": 22.6002,
      "duration": 0.3366,
      "velocity": 100,
      "chip": "ym2612"
    },
    {
      "channel": 2,
      "note": 60,
      "start": 22.6009,
      "duration": 0.3366,
      "velocity": 95,
      "chip": "ym2612"
    },
    {
      "channel": 4,
      "note": 81,
      "start": 22.7678,
      "duration": 0.1683,
      "velocity": 100,
      "chip": "ym2612"
    },
    {
      "channel": 0,
      "note": 60,
      "start": 22.9351,
      "duration": 0.3389,
      "velocity": 95,
      "chip": "ym2612"
    },
    {
      "channel": 4,
      "note": 84,
      "start": 22.9366,
      "duration": 0.1688,
      "velocity": 100,
      "chip": "ym2612"
    },
    {
      "channel": 5,
      "note": 95,
      "start": 22.9374,
      "duration": 0.6802,
      "velocity": 100,
      "chip": "ym2612"
    },
    {
      "channel": 2,
      "note": 67,
      "start": 22.9381,
      "duration": 0.3389,
      "velocity": 95,
      "chip": "ym2612"
    },
    {
      "channel": 4,
      "note": 79,
      "start": 23.106,
      "duration": 0.1699,
      "velocity": 100,
      "chip": "ym2612"
    },
    {
      "channel": 0,
      "note": 67,
      "start": 23.2747,
      "duration": 0.339,
      "velocity": 95,
      "chip": "ym2612"
    },
    {
      "channel": 3,
      "note": 91,
      "start": 23.2758,
      "duration": 0.3389,
      "velocity": 100,
      "chip": "ym2612"
    },
    {
      "channel": 4,
      "note": 81,
      "start": 23.2766,
      "duration": 0.1683,
      "velocity": 100,
      "chip": "ym2612"
    },
    {
      "channel": 2,
      "note": 69,
      "start": 23.2776,
      "duration": 0.3408,
      "velocity": 95,
      "chip": "ym2612"
    },
    {
      "channel": 4,
      "note": 84,
      "start": 23.4455,
      "duration": 0.1714,
      "velocity": 100,
      "chip": "ym2612"
    },
    {
      "channel": 0,
      "note": 69,
      "start": 23.6143,
      "duration": 0.3388,
      "velocity": 95,
      "chip": "ym2612"
    },
    {
      "channel": 3,
      "note": 88,
      "start": 23.6168,
      "duration": 1.3558,
      "velocity": 100,
      "chip": "ym2612"
    },
    {
      "channel": 4,
      "note": 103,
      "start": 23.6175,
      "duration": 0.1669,
      "velocity": 100,
      "chip": "ym2612"
    },
    {
      "channel": 5,
      "note": 91,
      "start": 23.6183,
      "duration": 0.337,
      "velocity": 100,
      "chip": "ym2612"
    },
    {
      "channel": 2,
      "note": 71,
      "start": 23.619,
      "duration": 0.3371,
      "velocity": 95,
      "chip": "ym2612"
    },
    {
      "channel": 4,
      "note": 105,
      "start": 23.785,
      "duration": 0.1695,
      "velocity": 100,
      "chip": "ym2612"
    },
    {
      "channel": 0,
      "note": 71,
      "start": 23.9537,
      "duration": 0.3389,
      "velocity": 95,
      "chip": "ym2612"
    },
    {
      "channel": 4,
      "note": 115,
      "start": 23.9552,
      "duration": 0.3388,
      "velocity": 100,
      "chip": "ym2612"
    },
    {
      "channel": 5,
      "note": 88,
      "start": 23.956,
      "duration": 1.3576,
      "velocity": 100,
      "chip": "ym2612"
    },
    {
      "channel": 2,
      "note": 69,
      "start": 23.9567,
      "duration": 0.3385,
      "velocity": 95,
      "chip": "ym2612"
    },
    {
      "channel": 0,
      "note": 69,
      "start": 24.2932,
      "duration": 0.3402,
      "velocity": 95,
      "chip": "ym2612"
    },
    {
      "channel": 4,
      "note": 112,
      "start": 24.2946,
      "duration": 0.3406,
      "velocity": 100,
      "chip": "ym2612"
    },
    {
      "channel": 2,
      "note": 67,
      "start": 24.2957,
      "duration": 0.3407,
      "velocity": 95,
      "chip": "ym2612"
    },
    {
      "channel": 0,
      "note": 67,
      "start": 24.634,
      "duration": 0.3375,
      "velocity": 95,
      "chip": "ym2612"
    },
    {
      "channel": 1,
      "note": 79,
      "start": 24.6347,
      "duration": 2.0349,
      "velocity": 99,
      "chip": "ym2612"
    },
    {
      "channel": 4,
      "note": 107,
      "start": 24.6359,
      "duration": 0.3375,
      "velocity": 100,
      "chip": "ym2612"
    },
    {
      "channel": 2,
      "note": 60,
      "start": 24.6369,
      "duration": 0.3375,
      "velocity": 95,
      "chip": "ym2612"
    },
    {
      "channel": 0,
      "note": 60,
      "start": 24.9721,
      "duration": 0.3389,
      "velocity": 95,
      "chip": "ym2612"
    },
    {
      "channel": 3,
      "note": 95,
      "start": 24.9732,
      "duration": 0.3389,
      "velocity": 100,
      "chip": "ym2612"
    },
    {
      "channel": 4,
      "note": 103,
      "start": 24.974,
      "duration": 0.3389,
      "velocity": 100,
      "chip": "ym2612"
    },
    {
      "channel": 2,
      "note": 67,
      "start": 24.975,
      "duration": 0.3393,
      "velocity": 95,
      "chip": "ym2612"
    },
    {
      "channel": 0,
      "note": 67,
      "start": 25.3116,
      "duration": 0.3389,
      "velocity": 95,
      "chip": "ym2612"
    },
    {
      "channel": 3,
      "note": 103,
      "start": 25.3127,
      "duration": 0.3389,
      "velocity": 100,
      "chip": "ym2612"
    },
    {
      "channel": 4,
      "note": 100,
      "start": 25.3135,
      "duration": 0.3389,
      "velocity": 100,
      "chip": "ym2612"
    },
    {
      "channel": 5,
      "note": 95,
      "start": 25.3142,
      "duration": 0.3389,
      "velocity": 100,
      "chip": "ym2612"
    },
    {
      "channel": 2,
      "note": 69,
      "start": 25.3163,
      "duration": 0.3376,
      "velocity": 95,
      "chip": "ym2612"
    },
    {
      "channel": 0,
      "note": 69,
      "start": 25.6511,
      "duration": 0.3389,
      "velocity": 95,
      "chip": "ym2612"
    },
    {
      "channel": 3,
      "note": 100,
      "start": 25.6521,
      "duration": 0.3389,
      "velocity": 100,
      "chip": "ym2612"
    },
    {
      "channel": 4,
      "note": 95,
      "start": 25.6529,
      "duration": 0.3389,
      "velocity": 100,
      "chip": "ym2612"
    },
    {
      "channel": 5,
      "note": 103,
      "start": 25.6537,
      "duration": 0.3389,
      "velocity": 100,
      "chip": "ym2612"
    },
    {
      "channel": 2,
      "note": 71,
      "start": 25.6544,
      "duration": 0.3389,
      "velocity": 95,
      "chip": "ym2612"
    },
    {
      "channel": 0,
      "note": 71,
      "start": 25.9906,
      "duration": 0.3389,
      "velocity": 95,
      "chip": "ym2612"
    },
    {
      "channel": 3,
      "note": 95,
      "start": 25.9917,
      "duration": 0.3389,
      "velocity": 100,
      "chip": "ym2612"
    },
    {
      "channel": 4,
      "note": 91,
      "start": 25.9924,
      "duration": 0.3389,
      "velocity": 100,
      "chip": "ym2612"
    },
    {
      "channel": 5,
      "note": 100,
      "start": 25.9932,
      "duration": 0.3402,
      "velocity": 100,
      "chip": "ym2612"
    },
    {
      "channel": 2,
      "note": 69,
      "start": 25.9939,
      "duration": 0.3402,
      "velocity": 95,
      "chip": "ym2612"
    },
    {
      "channel": 0,
      "note": 69,
      "start": 26.33,
      "duration": 0.3388,
      "velocity": 95,
      "chip": "ym2612"
    },
    {
      "channel": 3,
      "note": 91,
      "start": 26.3312,
      "duration": 0.3393,
      "velocity": 100,
      "chip": "ym2612"
    },
    {
      "channel": 4,
      "note": 88,
      "start": 26.3332,
      "duration": 0.3381,
      "velocity": 100,
      "chip": "ym2612"
    },
    {
      "channel": 5,
      "note": 95,
      "start": 26.3339,
      "duration": 0.3381,
      "velocity": 100,
      "chip": "ym2612"
    },
    {
      "channel": 2,
      "note": 67,
      "start": 26.3347,
      "duration": 0.3381,
      "velocity": 95,
      "chip": "ym2612"
    },
    {
      "channel": 0,
      "note": 67,
      "start": 26.6694,
      "duration": 0.3389,
      "velocity": 95,
      "chip": "ym2612"
    },
    {
      "channel": 1,
      "note": 81,
      "start": 26.6701,
      "duration": 2.0363,
      "velocity": 99,
      "chip": "ym2612"
    },
    {
      "channel": 3,
      "note": 96,
      "start": 26.671,
      "duration": 0.3383,
      "velocity": 100,
      "chip": "ym2612"
    },
    {
      "channel": 4,
      "note": 77,
      "start": 26.6719,
      "duration": 0.1678,
      "velocity": 100,
      "chip": "ym2612"
    },
    {
      "channel": 5,
      "note": 91,
      "start": 26.6727,
      "duration": 0.3383,
      "velocity": 100,
      "chip": "ym2612"
    },
    {
      "channel": 2,
      "note": 62,
      "start": 26.6734,
      "duration": 0.3384,
      "velocity": 95,
      "chip": "ym2612"
    },
    {
      "channel": 4,
      "note": 81,
      "start": 26.8402,
      "duration": 0.1699,
      "velocity": 100,
      "chip": "ym2612"
    },
    {
      "channel": 0,
      "note": 62,
      "start": 27.0089,
      "duration": 0.339,
      "velocity": 95,
      "chip": "ym2612"
    },
    {
      "channel": 3,
      "note": 98,
      "start": 27.01,
      "duration": 0.3403,
      "velocity": 100,
      "chip": "ym2612"
    },
    {
      "channel": 4,
      "note": 83,
      "start": 27.0108,
      "duration": 0.1685,
      "velocity": 100,
      "chip": "ym2612"
    },
    {
      "channel": 5,
      "note": 96,
      "start": 27.0116,
      "duration": 0.3402,
      "velocity": 100,
      "chip": "ym2612"
    },
    {
      "channel": 2,
      "note": 69,
      "start": 27.0124,
      "duration": 0.3402,
      "velocity": 95,
      "chip": "ym2612"
    },
    {
      "channel": 4,
      "note": 77,
      "start": 27.1798,
      "duration": 0.1712,
      "velocity": 100,
      "chip": "ym2612"
    },
    {
      "channel": 0,
      "note": 69,
      "start": 27.3498,
      "duration": 0.3375,
      "velocity": 95,
      "chip": "ym2612"
    },
    {
      "channel": 3,
      "note": 93,
      "start": 27.3509,
      "duration": 0.3375,
      "velocity": 100,
      "chip": "ym2612"
    },
    {
      "channel": 4,
      "note": 81,
      "start": 27.3517,
      "duration": 0.1669,
      "velocity": 100,
      "chip": "ym2612"
    },
    {
      "channel": 5,
      "note": 98,
      "start": 27.3524,
      "duration": 0.3376,
      "velocity": 100,
      "chip": "ym2612"
    },
    {
      "channel": 2,
      "note": 71,
      "start": 27.3532,
      "duration": 0.3376,
      "velocity": 95,
      "chip": "ym2612"
    },
    {
      "channel": 4,
      "note": 83,
      "start": 27.5193,
      "duration": 0.17,
      "velocity": 100,
      "chip": "ym2612"
    },
    {
      "channel": 0,
      "note": 71,
      "start": 27.6879,
      "duration": 0.3389,
      "velocity": 95,
      "chip": "ym2612"
    },
    {
      "channel": 3,
      "note": 96,
      "start": 27.689,
      "duration": 0.3389,
      "velocity": 100,
      "chip": "ym2612"
    },
    {
      "channel": 4,
      "note": 77,
      "start": 27.6899,
      "duration": 0.1683,
      "velocity": 100,
      "chip": "ym2612"
    },
    {
      "channel": 5,
      "note": 93,
      "start": 27.6906,
      "duration": 0.3388,
      "velocity": 100,
      "chip": "ym2612"
    },
    {
      "channel": 2,
      "note": 72,
      "start": 27.6913,
      "duration": 0.3389,
      "velocity": 95,
      "chip": "ym2612"
    },
    {
      "channel": 4,
      "note": 81,
      "start": 27.8587,
      "duration": 0.17,
      "velocity": 100,
      "chip": "ym2612"
    },
    {
      "channel": 0,
      "note": 72,
      "start": 28.0274,
      "duration": 0.3394,
      "velocity": 95,
      "chip": "ym2612"
    },
    {
      "channel": 3,
      "note": 98,
      "start": 28.0285,
      "duration": 0.3393,
      "velocity": 100,
      "chip": "ym2612"
    },
    {
      "channel": 4,
      "note": 83,
      "start": 28.0293,
      "duration": 0.1683,
      "velocity": 100,
      "chip": "ym2612"
    },
    {
      "channel": 5,
      "note": 96,
      "start": 28.0301,
      "duration": 0.3393,
      "velocity": 100,
      "chip": "ym2612"
    },
    {
      "channel": 2,
      "note": 71,
      "start": 28.0308,
      "duration": 0.3394,
      "velocity": 95,
      "chip": "ym2612"
    },
    {
      "channel": 4,
      "note": 77,
      "start": 28.1996,
      "duration": 0.169,
      "velocity": 100,
      "chip": "ym2612"
    },
    {
      "channel": 0,
      "note": 71,
      "start": 28.3673,
      "duration": 0.3384,
      "velocity": 95,
      "chip": "ym2612"
    },
    {
      "channel": 3,
      "note": 93,
      "start": 28.3685,
      "duration": 0.3388,
      "velocity": 100,
      "chip": "ym2612"
    },
    {
      "channel": 4,
      "note": 81,
      "start": 28.3693,
      "duration": 0.1678,
      "velocity": 100,
      "chip": "ym2612"
    },
    {
      "channel": 5,
      "note": 98,
      "start": 28.37,
      "duration": 0.3389,
      "velocity": 100,
      "chip": "ym2612"
    },
    {
      "channel": 2,
      "note": 69,
      "start": 28.3707,
      "duration": 0.3389,
      "velocity": 95,
      "chip": "ym2612"
    },
    {
      "channel": 4,
      "note": 83,
      "start": 28.5377,
      "duration": 0.1704,
      "velocity": 100,
      "chip": "ym2612"
    },
    {
      "channel": 0,
      "note": 69,
      "start": 28.7063,
      "duration": 0.3389,
      "velocity": 95,
      "chip": "ym2612"
    },
    {
      "channel": 1,
      "note": 81,
      "start": 28.7071,
      "duration": 2.0362,
      "velocity": 99,
      "chip": "ym2612"
    },
    {
      "channel": 3,
      "note": 96,
      "start": 28.7079,
      "duration": 0.3384,
      "velocity": 100,
      "chip": "ym2612"
    },
    {
      "channel": 4,
      "note": 77,
      "start": 28.7087,
      "duration": 0.1678,
      "velocity": 100,
      "chip": "ym2612"
    },
    {
      "channel": 5,
      "note": 93,
      "start": 28.7095,
      "duration": 0.3384,
      "velocity": 100,
      "chip": "ym2612"
    },
    {
      "channel": 2,
      "note": 62,
      "start": 28.7102,
      "duration": 0.3397,
      "velocity": 95,
      "chip": "ym2612"
    },
    {
      "channel": 4,
      "note": 81,
      "start": 28.8771,
      "duration": 0.1699,
      "velocity": 100,
      "chip": "ym2612"
    },
    {
      "channel": 0,
      "note": 62,
      "start": 29.0458,
      "duration": 0.3389,
      "velocity": 95,
      "chip": "ym2612"
    },
    {
      "channel": 3,
      "note": 98,
      "start": 29.0469,
      "duration": 0.3388,
      "velocity": 100,
      "chip": "ym2612"
    },
    {
      "channel": 4,
      "note": 83,
      "start": 29.0477,
      "duration": 0.1697,
      "velocity": 100,
      "chip": "ym2612"
    },
    {
      "channel": 5,
      "note": 96,
      "start": 29.0497,
      "duration": 0.3375,
      "velocity": 100,
      "chip": "ym2612"
    },
    {
      "channel": 2,
      "note": 69,
      "start": 29.0505,
      "duration": 0.3376,
      "velocity": 95,
      "chip": "ym2612"
    },
    {
      "channel": 4,
      "note": 77,
      "start": 29.218,
      "duration": 0.1685,
      "velocity": 100,
      "chip": "ym2612"
    },
    {
      "channel": 0,
      "note": 69,
      "start": 29.3852,
      "duration": 0.339,
      "velocity": 95,
      "chip": "ym2612"
    },
    {
      "channel": 3,
      "note": 93,
      "start": 29.3864,
      "duration": 0.3389,
      "velocity": 100,
      "chip": "ym2612"
    },
    {
      "channel": 4,
      "note": 81,
      "start": 29.3871,
      "duration": 0.1684,
      "velocity": 100,
      "chip": "ym2612"
    },
    {
      "channel": 5,
      "note": 98,
      "start": 29.3879,
      "duration": 0.339,
      "velocity": 100,
      "chip": "ym2612"
    },
    {
      "channel": 2,
      "note": 71,
      "start": 29.3886,
      "duration": 0.339,
      "velocity": 95,
      "chip": "ym2612"
    },
    {
      "channel": 4,
      "note": 83,
      "start": 29.5561,
      "duration": 0.17,
      "velocity": 100,
      "chip": "ym2612"
    },
    {
      "channel": 0,
      "note": 71,
      "start": 29.7248,
      "duration": 0.3388,
      "velocity": 95,
      "chip": "ym2612"
    },
    {
      "channel": 3,
      "note": 96,
      "start": 29.7259,
      "duration": 0.3388,
      "velocity": 100,
      "chip": "ym2612"
    },
    {
      "channel": 4,
      "note": 77,
      "start": 29.7268,
      "duration": 0.1682,
      "velocity": 100,
      "chip": "ym2612"
    },
    {
      "channel": 5,
      "note": 93,
      "start": 29.7275,
      "duration": 0.34,
      "velocity": 100,
      "chip": "ym2612"
    },
    {
      "channel": 2,
      "note": 72,
      "start": 29.7282,
      "duration": 0.3401,
      "velocity": 95,
      "chip": "ym2612"
    },
    {
      "channel": 4,
      "note": 81,
      "start": 29.8955,
      "duration": 0.1712,
      "velocity": 100,
      "chip": "ym2612"
    },
    {
      "channel": 0,
      "note": 72,
      "start": 30.0642,
      "duration": 0.3389,
      "velocity": 95,
      "chip": "ym2612"
    },
    {
      "channel": 3,
      "note": 98,
      "start": 30.0666,
      "duration": 0.3376,
      "velocity": 100,
      "chip": "ym2612"
    },
    {
      "channel": 4,
      "note": 83,
      "start": 30.0674,
      "duration": 0.1674,
      "velocity": 100,
      "chip": "ym2612"
    },
    {
      "channel": 5,
      "note": 96,
      "start": 30.0682,
      "duration": 0.3376,
      "velocity": 100,
      "chip": "ym2612"
    },
    {
      "channel": 2,
      "note": 71,
      "start": 30.0689,
      "duration": 0.3377,
      "velocity": 95,
      "chip": "ym2612"
    },
    {
      "channel": 4,
      "note": 77,
      "start": 30.2354,
      "duration": 0.1696,
      "velocity": 100,
      "chip": "ym2612"
    },
    {
      "channel": 0,
      "note": 71,
      "start": 30.4037,
      "duration": 0.3389,
      "velocity": 95,
      "chip": "ym2612"
    },
    {
      "channel": 3,
      "note": 93,
      "start": 30.4048,
      "duration": 0.3393,
      "velocity": 100,
      "chip": "ym2612"
    },
    {
      "channel": 4,
      "note": 81,
      "start": 30.4056,
      "duration": 0.1684,
      "velocity": 100,
      "chip": "ym2612"
    },
    {
      "channel": 5,
      "note": 98,
      "start": 30.4063,
      "duration": 0.3393,
      "velocity": 100,
      "chip": "ym2612"
    },
    {
      "channel": 2,
      "note": 69,
      "start": 30.4071,
      "duration": 0.3393,
      "velocity": 95,
      "chip": "ym2612"
    },
    {
      "channel": 4,
      "note": 83,
      "start": 30.5745,
      "duration": 0.1704,
      "velocity": 100,
      "chip": "ym2612"
    },
    {
      "channel": 0,
      "note": 69,
      "start": 30.7432,
      "duration": 0.3402,
      "velocity": 95,
      "chip": "ym2612"
    },
    {
      "channel": 1,
      "note": 79,
      "start": 30.7439,
      "duration": 2.0363,
      "velocity": 99,
      "chip": "ym2612"
    },
    {
      "channel": 3,
      "note": 95,
      "start": 30.7447,
      "duration": 0.6779,
      "velocity": 100,
      "chip": "ym2612"
    },
    {
      "channel": 4,
      "note": 79,
      "start": 30.7455,
      "duration": 0.1678,
      "velocity": 100,
      "chip": "ym2612"
    },
    {
      "channel": 5,
      "note": 93,
      "start": 30.7463,
      "duration": 0.3393,
      "velocity": 100,
      "chip": "ym2612"
    },
    {
      "channel": 2,
      "note": 60,
      "start": 30.747,
      "duration": 0.3393,
      "velocity": 95,
      "chip": "ym2612"
    },
    {
      "channel": 4,
      "note": 81,
      "start": 30.914,
      "duration": 0.1708,
      "velocity": 100,
      "chip": "ym2612"
    },
    {
      "channel": 0,
      "note": 60,
      "start": 31.0839,
      "duration": 0.3376,
      "velocity": 95,
      "chip": "ym2612"
    },
    {
      "channel": 4,
      "note": 84,
      "start": 31.0854,
      "duration": 0.1675,
      "velocity": 100,
      "chip": "ym2612"
    },
    {
      "channel": 5,
      "note": 95,
      "start": 31.0862,
      "duration": 0.6775,
      "velocity": 100,
      "chip": "ym2612"
    },
    {
      "channel": 2,
      "note": 67,
      "start": 31.0869,
      "duration": 0.3376,
      "velocity": 95,
      "chip": "ym2612"
    },
    {
      "channel": 4,
      "note": 79,
      "start": 31.2535,
      "duration": 0.1699,
      "velocity": 100,
      "chip": "ym2612"
    },
    {
      "channel": 0,
      "note": 67,
      "start": 31.4221,
      "duration": 0.3389,
      "velocity": 95,
      "chip": "ym2612"
    },
    {
      "channel": 3,
      "note": 91,
      "start": 31.4233,
      "duration": 0.3389,
      "velocity": 100,
      "chip": "ym2612"
    },
    {
      "channel": 4,
      "note": 81,
      "start": 31.424,
      "duration": 0.1683,
      "velocity": 100,
      "chip": "ym2612"
    },
    {
      "channel": 2,
      "note": 69,
      "start": 31.4251,
      "duration": 0.3393,
      "velocity": 95,
      "chip": "ym2612"
    },
    {
      "channel": 4,
      "note": 84,
      "start": 31.5929,
      "duration": 0.17,
      "velocity": 100,
      "chip": "ym2612"
    },
    {
      "channel": 0,
      "note": 69,
      "start": 31.7616,
      "duration": 0.3389,
      "velocity": 95,
      "chip": "ym2612"
    },
    {
      "channel": 3,
      "note": 88,
      "start": 31.7627,
      "duration": 1.3573,
      "velocity": 100,
      "chip": "ym2612"
    },
    {
      "channel": 4,
      "note": 103,
      "start": 31.7635,
      "duration": 0.1697,
      "velocity": 100,
      "chip": "ym2612"
    },
    {
      "channel": 5,
      "note": 91,
      "start": 31.7642,
      "duration": 0.3385,
      "velocity": 100,
      "chip": "ym2612"
    },
    {
      "channel": 2,
      "note": 71,
      "start": 31.7663,
      "duration": 0.3372,
      "velocity": 95,
      "chip": "ym2612"
    },
    {
      "channel": 4,
      "note": 105,
      "start": 31.9338,
      "duration": 0.1681,
      "velocity": 100,
      "chip": "ym2612"
    },
    {
      "channel": 0,
      "note": 71,
      "start": 32.1011,
      "duration": 0.3389,
      "velocity": 95,
      "chip": "ym2612"
    },
    {
      "channel": 4,
      "note": 115,
      "start": 32.1026,
      "duration": 0.3389,
      "velocity": 100,
      "chip": "ym2612"
    },
    {
      "channel": 5,
      "note": 88,
      "start": 32.1034,
      "duration": 1.3577,
      "velocity": 100,
      "chip": "ym2612"
    },
    {
      "channel": 2,
      "note": 69,
      "start": 32.1041,
      "duration": 0.3385,
      "velocity": 95,
      "chip": "ym2612"
    },
    {
      "channel": 0,
      "note": 69,
      "start": 32.4406,
      "duration": 0.3389,
      "velocity": 95,
      "chip": "ym2612"
    },
    {
      "channel": 4,
      "note": 112,
      "start": 32.4421,
      "duration": 0.3392,
      "velocity": 100,
      "chip": "ym2612"
    },
    {
      "channel": 2,
      "note": 67,
      "start": 32.4432,
      "duration": 0.3406,
      "velocity": 95,
      "chip": "ym2612"
    },
    {
      "channel": 0,
      "note": 67,
      "start": 32.7801,
      "duration": 0.3389,
      "velocity": 95,
      "chip": "ym2612"
    },
    {
      "channel": 1,
      "note": 79,
      "start": 32.7808,
      "duration": 2.0366,
      "velocity": 99,
      "chip": "ym2612"
    },
    {
      "channel": 4,
      "note": 107,
      "start": 32.7833,
      "duration": 0.3375,
      "velocity": 100,
      "chip": "ym2612"
    },
    {
      "channel": 2,
      "note": 60,
      "start": 32.7844,
      "duration": 0.3375,
      "velocity": 95,
      "chip": "ym2612"
    },
    {
      "channel": 0,
      "note": 60,
      "start": 33.1195,
      "duration": 0.3389,
      "velocity": 95,
      "chip": "ym2612"
    },
    {
      "channel": 3,
      "note": 95,
      "start": 33.1207,
      "duration": 0.3389,
      "velocity": 100,
      "chip": "ym2612"
    },
    {
      "channel": 4,
      "note": 103,
      "start": 33.1214,
      "duration": 0.3389,
      "velocity": 100,
      "chip": "ym2612"
    },
    {
      "channel": 2,
      "note": 67,
      "start": 33.1225,
      "duration": 0.3393,
      "velocity": 95,
      "chip": "ym2612"
    },
    {
      "channel": 0,
      "note": 67,
      "start": 33.459,
      "duration": 0.3389,
      "velocity": 95,
      "chip": "ym2612"
    },
    {
      "channel": 3,
      "note": 103,
      "start": 33.4601,
      "duration": 0.3402,
      "velocity": 100,
      "chip": "ym2612"
    },
    {
      "channel": 4,
      "note": 100,
      "start": 33.4609,
      "duration": 0.3402,
      "velocity": 100,
      "chip": "ym2612"
    },
    {
      "channel": 5,
      "note": 95,
      "start": 33.4617,
      "duration": 0.3401,
      "velocity": 100,
      "chip": "ym2612"
    },
    {
      "channel": 2,
      "note": 69,
      "start": 33.4624,
      "duration": 0.3402,
      "velocity": 95,
      "chip": "ym2612"
    },
    {
      "channel": 0,
      "note": 69,
      "start": 33.7998,
      "duration": 0.3375,
      "velocity": 95,
      "chip": "ym2612"
    },
    {
      "channel": 3,
      "note": 100,
      "start": 33.8009,
      "duration": 0.3375,
      "velocity": 100,
      "chip": "ym2612"
    },
    {
      "channel": 4,
      "note": 95,
      "start": 33.8017,
      "duration": 0.3375,
      "velocity": 100,
      "chip": "ym2612"
    },
    {
      "channel": 5,
      "note": 103,
      "start": 33.8024,
      "duration": 0.3375,
      "velocity": 100,
      "chip": "ym2612"
    },
    {
      "channel": 2,
      "note": 71,
      "start": 33.8032,
      "duration": 0.3375,
      "velocity": 95,
      "chip": "ym2612"
    },
    {
      "channel": 0,
      "note": 71,
      "start": 34.1379,
      "duration": 0.339,
      "velocity": 95,
      "chip": "ym2612"
    },
    {
      "channel": 3,
      "note": 95,
      "start": 34.139,
      "duration": 0.3389,
      "velocity": 100,
      "chip": "ym2612"
    },
    {
      "channel": 4,
      "note": 91,
      "start": 34.1398,
      "duration": 0.3389,
      "velocity": 100,
      "chip": "ym2612"
    },
    {
      "channel": 5,
      "note": 100,
      "start": 34.1406,
      "duration": 0.3389,
      "velocity": 100,
      "chip": "ym2612"
    },
    {
      "channel": 2,
      "note": 69,
      "start": 34.1413,
      "duration": 0.339,
      "velocity": 95,
      "chip": "ym2612"
    },
    {
      "channel": 0,
      "note": 69,
      "start": 34.4775,
      "duration": 0.3393,
      "velocity": 95,
      "chip": "ym2612"
    },
    {
      "channel": 3,
      "note": 91,
      "start": 34.4785,
      "duration": 0.3398,
      "velocity": 100,
      "chip": "ym2612"
    },
    {
      "channel": 4,
      "note": 88,
      "start": 34.4793,
      "duration": 0.3398,
      "velocity": 100,
      "chip": "ym2612"
    },
    {
      "channel": 5,
      "note": 95,
      "start": 34.4801,
      "duration": 0.3398,
      "velocity": 100,
      "chip": "ym2612"
    },
    {
      "channel": 2,
      "note": 67,
      "start": 34.4808,
      "duration": 0.3398,
      "velocity": 95,
      "chip": "ym2612"
    },
    {
      "channel": 0,
      "note": 67,
      "start": 34.8173,
      "duration": 0.3385,
      "velocity": 95,
      "chip": "ym2612"
    },
    {
      "channel": 1,
      "note": 84,
      "start": 34.818,
      "duration": 1.0174,
      "velocity": 99,
      "chip": "ym2612"
    },
    {
      "channel": 3,
      "note": 95,
      "start": 34.8189,
      "duration": 0.6773,
      "velocity": 100,
      "chip": "ym2612"
    },
    {
      "channel": 4,
      "note": 65,
      "start": 34.8198,
      "duration": 0.6773,
      "velocity": 100,
      "chip": "ym2612"
    },
    {
      "channel": 5,
      "note": 91,
      "start": 34.8205,
      "duration": 0.3371,
      "velocity": 100,
      "chip": "ym2612"
    },
    {
      "channel": 2,
      "note": 65,
      "start": 34.8212,
      "duration": 0.3372,
      "velocity": 95,
      "chip": "ym2612"
    },
    {
      "channel": 0,
      "note": 65,
      "start": 35.1563,
      "duration": 0.3389,
      "velocity": 95,
      "chip": "ym2612"
    },
    {
      "channel": 5,
      "note": 95,
      "start": 35.1583,
      "duration": 0.6793,
      "velocity": 100,
      "chip": "ym2612"
    },
    {
      "channel": 2,
      "note": 72,
      "start": 35.159,
      "duration": 0.339,
      "velocity": 95,
      "chip": "ym2612"
    },
    {
      "channel": 0,
      "note": 72,
      "start": 35.4959,
      "duration": 0.3389,
      "velocity": 95,
      "chip": "ym2612"
    },
    {
      "channel": 3,
      "note": 93,
      "start": 35.4969,
      "duration": 0.3393,
      "velocity": 100,
      "chip": "ym2612"
    },
    {
      "channel": 4,
      "note": 65,
      "start": 35.4976,
      "duration": 0.3395,
      "velocity": 100,
      "chip": "ym2612"
    },
    {
      "channel": 2,
      "note": 74,
      "start": 35.5,
      "duration": 0.3384,
      "velocity": 95,
      "chip": "ym2612"
    },
    {
      "channel": 0,
      "note": 74,
      "start": 35.8354,
      "duration": 0.3389,
      "velocity": 95,
      "chip": "ym2612"
    },
    {
      "channel": 1,
      "note": 88,
      "start": 35.8361,
      "duration": 1.0179,
      "velocity": 99,
      "chip": "ym2612"
    },
    {
      "channel": 3,
      "note": 93,
      "start": 35.8369,
      "duration": 0.3385,
      "velocity": 100,
      "chip": "ym2612"
    },
    {
      "channel": 4,
      "note": 65,
      "start": 35.8374,
      "duration": 0.3387,
      "velocity": 100,
      "chip": "ym2612"
    },
    {
      "channel": 5,
      "note": 93,
      "start": 35.8382,
      "duration": 0.3385,
      "velocity": 100,
      "chip": "ym2612"
    },
    {
      "channel": 2,
      "note": 76,
      "start": 35.839,
      "duration": 0.3385,
      "velocity": 95,
      "chip": "ym2612"
    },
    {
      "channel": 0,
      "note": 76,
      "start": 36.1749,
      "duration": 0.3388,
      "velocity": 95,
      "chip": "ym2612"
    },
    {
      "channel": 3,
      "note": 95,
      "start": 36.1759,
      "duration": 0.3388,
      "velocity": 100,
      "chip": "ym2612"
    },
    {
      "channel": 4,
      "note": 65,
      "start": 36.1766,
      "duration": 0.3403,
      "velocity": 100,
      "chip": "ym2612"
    },
    {
      "channel": 5,
      "note": 93,
      "start": 36.1773,
      "duration": 0.3403,
      "velocity": 100,
      "chip": "ym2612"
    },
    {
      "channel": 2,
      "note": 74,
      "start": 36.178,
      "duration": 0.3404,
      "velocity": 95,
      "chip": "ym2612"
    },
    {
      "channel": 0,
      "note": 74,
      "start": 36.5143,
      "duration": 0.3389,
      "velocity": 95,
      "chip": "ym2612"
    },
    {
      "channel": 3,
      "note": 96,
      "start": 36.5168,
      "duration": 0.338,
      "velocity": 100,
      "chip": "ym2612"
    },
    {
      "channel": 4,
      "note": 69,
      "start": 36.5175,
      "duration": 0.338,
      "velocity": 100,
      "chip": "ym2612"
    },
    {
      "channel": 5,
      "note": 95,
      "start": 36.5182,
      "duration": 0.338,
      "velocity": 100,
      "chip": "ym2612"
    },
    {
      "channel": 2,
      "note": 72,
      "start": 36.519,
      "duration": 0.338,
      "velocity": 95,
      "chip": "ym2612"
    },
    {
      "channel": 0,
      "note": 72,
      "start": 36.8539,
      "duration": 0.3388,
      "velocity": 95,
      "chip": "ym2612"
    },
    {
      "channel": 1,
      "note": 86,
      "start": 36.8546,
      "duration": 1.0178,
      "velocity": 99,
      "chip": "ym2612"
    },
    {
      "channel": 3,
      "note": 96,
      "start": 36.8554,
      "duration": 0.679,
      "velocity": 100,
      "chip": "ym2612"
    },
    {
      "channel": 4,
      "note": 69,
      "start": 36.8561,
      "duration": 0.679,
      "velocity": 100,
      "chip": "ym2612"
    },
    {
      "channel": 5,
      "note": 96,
      "start": 36.8569,
      "duration": 0.3376,
      "velocity": 100,
      "chip": "ym2612"
    },
    {
      "channel": 2,
      "note": 67,
      "start": 36.8576,
      "duration": 0.3376,
      "velocity": 95,
      "chip": "ym2612"
    },
    {
      "channel": 0,
      "note": 67,
      "start": 37.1933,
      "duration": 0.34,
      "velocity": 95,
      "chip": "ym2612"
    },
    {
      "channel": 5,
      "note": 96,
      "start": 37.1951,
      "duration": 0.6795,
      "velocity": 100,
      "chip": "ym2612"
    },
    {
      "channel": 2,
      "note": 74,
      "start": 37.1959,
      "duration": 0.3404,
      "velocity": 95,
      "chip": "ym2612"
    },
    {
      "channel": 0,
      "note": 74,
      "start": 37.5339,
      "duration": 0.3377,
      "velocity": 95,
      "chip": "ym2612"
    },
    {
      "channel": 3,
      "note": 95,
      "start": 37.535,
      "duration": 0.3381,
      "velocity": 100,
      "chip": "ym2612"
    },
    {
      "channel": 4,
      "note": 67,
      "start": 37.5358,
      "duration": 0.3381,
      "velocity": 100,
      "chip": "ym2612"
    },
    {
      "channel": 2,
      "note": 76,
      "start": 37.5369,
      "duration": 0.3385,
      "velocity": 95,
      "chip": "ym2612"
    },
    {
      "channel": 0,
      "note": 76,
      "start": 37.8722,
      "duration": 0.3388,
      "velocity": 95,
      "chip": "ym2612"
    },
    {
      "channel": 1,
      "note": 89,
      "start": 37.873,
      "duration": 1.0177,
      "velocity": 99,
      "chip": "ym2612"
    },
    {
      "channel": 3,
      "note": 95,
      "start": 37.8738,
      "duration": 0.3384,
      "velocity": 100,
      "chip": "ym2612"
    },
    {
      "channel": 4,
      "note": 67,
      "start": 37.8745,
      "duration": 0.3384,
      "velocity": 100,
      "chip": "ym2612"
    },
    {
      "channel": 5,
      "note": 95,
      "start": 37.8753,
      "duration": 0.3383,
      "velocity": 100,
      "chip": "ym2612"
    },
    {
      "channel": 2,
      "note": 77,
      "start": 37.876,
      "duration": 0.3384,
      "velocity": 95,
      "chip": "ym2612"
    },
    {
      "channel": 0,
      "note": 77,
      "start": 38.2116,
      "duration": 0.3389,
      "velocity": 95,
      "chip": "ym2612"
    },
    {
      "channel": 3,
      "note": 96,
      "start": 38.2128,
      "duration": 0.3389,
      "velocity": 100,
      "chip": "ym2612"
    },
    {
      "channel": 4,
      "note": 69,
      "start": 38.2135,
      "duration": 0.3389,
      "velocity": 100,
      "chip": "ym2612"
    },
    {
      "channel": 5,
      "note": 95,
      "start": 38.2142,
      "duration": 0.3389,
      "velocity": 100,
      "chip": "ym2612"
    },
    {
      "channel": 2,
      "note": 76,
      "start": 38.2163,
      "duration": 0.3377,
      "velocity": 95,
      "chip": "ym2612"
    },
    {
      "channel": 0,
      "note": 76,
      "start": 38.5511,
      "duration": 0.3389,
      "velocity": 95,
      "chip": "ym2612"
    },
    {
      "channel": 3,
      "note": 98,
      "start": 38.5523,
      "duration": 0.3393,
      "velocity": 100,
      "chip": "ym2612"
    },
    {
      "channel": 4,
      "note": 71,
      "start": 38.553,
      "duration": 0.3393,
      "velocity": 100,
      "chip": "ym2612"
    },
    {
      "channel": 5,
      "note": 96,
      "start": 38.5537,
      "duration": 0.3393,
      "velocity": 100,
      "chip": "ym2612"
    },
    {
      "channel": 2,
      "note": 74,
      "start": 38.5545,
      "duration": 0.3393,
      "velocity": 95,
      "chip": "ym2612"
    },
    {
      "channel": 0,
      "note": 74,
      "start": 38.8906,
      "duration": 0.3389,
      "velocity": 95,
      "chip": "ym2612"
    },
    {
      "channel": 1,
      "note": 88,
      "start": 38.8914,
      "duration": 1.0179,
      "velocity": 99,
      "chip": "ym2612"
    },
    {
      "channel": 3,
      "note": 98,
      "start": 38.8922,
      "duration": 0.6779,
      "velocity": 100,
      "chip": "ym2612"
    },
    {
      "channel": 4,
      "note": 77,
      "start": 38.8929,
      "duration": 0.6779,
      "velocity": 100,
      "chip": "ym2612"
    },
    {
      "channel": 5,
      "note": 98,
      "start": 38.8937,
      "duration": 0.3377,
      "velocity": 100,
      "chip": "ym2612"
    },
    {
      "channel": 2,
      "note": 69,
      "start": 38.8944,
      "duration": 0.3391,
      "velocity": 95,
      "chip": "ym2612"
    },
    {
      "channel": 0,
      "note": 69,
      "start": 39.2301,
      "duration": 0.3389,
      "velocity": 95,
      "chip": "ym2612"
    },
    {
      "channel": 5,
      "note": 98,
      "start": 39.2333,
      "duration": 0.6782,
      "velocity": 100,
      "chip": "ym2612"
    },
    {
      "channel": 2,
      "note": 76,
      "start": 39.2341,
      "duration": 0.3378,
      "velocity": 95,
      "chip": "ym2612"
    },
    {
      "channel": 0,
      "note": 76,
      "start": 39.5696,
      "duration": 0.3389,
      "velocity": 95,
      "chip": "ym2612"
    },
    {
      "channel": 3,
      "note": 96,
      "start": 39.5707,
      "duration": 0.3393,
      "velocity": 100,
      "chip": "ym2612"
    },
    {
      "channel": 4,
      "note": 76,
      "start": 39.5715,
      "duration": 0.3393,
      "velocity": 100,
      "chip": "ym2612"
    },
    {
      "channel": 2,
      "note": 77,
      "start": 39.5726,
      "duration": 0.3397,
      "velocity": 95,
      "chip": "ym2612"
    },
    {
      "channel": 0,
      "note": 77,
      "start": 39.9091,
      "duration": 0.3389,
      "velocity": 95,
      "chip": "ym2612"
    },
    {
      "channel": 1,
      "note": 91,
      "start": 39.9098,
      "duration": 1.0178,
      "velocity": 99,
      "chip": "ym2612"
    },
    {
      "channel": 3,
      "note": 96,
      "start": 39.9106,
      "duration": 0.3398,
      "velocity": 100,
      "chip": "ym2612"
    },
    {
      "channel": 4,
      "note": 76,
      "start": 39.9114,
      "duration": 0.3398,
      "velocity": 100,
      "chip": "ym2612"
    },
    {
      "channel": 5,
      "note": 96,
      "start": 39.9121,
      "duration": 0.3398,
      "velocity": 100,
      "chip": "ym2612"
    },
    {
      "channel": 2,
      "note": 79,
      "start": 39.9129,
      "duration": 0.3398,
      "velocity": 95,
      "chip": "ym2612"
    },
    {
      "channel": 0,
      "note": 79,
      "start": 40.2499,
      "duration": 0.3375,
      "velocity": 95,
      "chip": "ym2612"
    },
    {
      "channel": 3,
      "note": 98,
      "start": 40.251,
      "duration": 0.3375,
      "velocity": 100,
      "chip": "ym2612"
    },
    {
      "channel": 4,
      "note": 77,
      "start": 40.2518,
      "duration": 0.3375,
      "velocity": 100,
      "chip": "ym2612"
    },
    {
      "channel": 5,
      "note": 96,
      "start": 40.2525,
      "duration": 0.3375,
      "velocity": 100,
      "chip": "ym2612"
    },
    {
      "channel": 2,
      "note": 77,
      "start": 40.2533,
      "duration": 0.3375,
      "velocity": 95,
      "chip": "ym2612"
    },
    {
      "channel": 0,
      "note": 77,
      "start": 40.588,
      "duration": 0.3389,
      "velocity": 95,
      "chip": "ym2612"
    },
    {
      "channel": 3,
      "note": 100,
      "start": 40.5891,
      "duration": 0.3393,
      "velocity": 100,
      "chip": "ym2612"
    },
    {
      "channel": 4,
      "note": 79,
      "start": 40.5898,
      "duration": 0.3394,
      "velocity": 100,
      "chip": "ym2612"
    },
    {
      "channel": 5,
      "note": 98,
      "start": 40.5906,
      "duration": 0.3394,
      "velocity": 100,
      "chip": "ym2612"
    },
    {
      "channel": 2,
      "note": 76,
      "start": 40.5913,
      "duration": 0.3394,
      "velocity": 95,
      "chip": "ym2612"
    },
    {
      "channel": 0,
      "note": 76,
      "start": 40.9275,
      "duration": 0.3395,
      "velocity": 95,
      "chip": "ym2612"
    },
    {
      "channel": 1,
      "note": 89,
      "start": 40.9282,
      "duration": 1.0179,
      "velocity": 99,
      "chip": "ym2612"
    },
    {
      "channel": 3,
      "note": 103,
      "start": 40.929,
      "duration": 0.6779,
      "velocity": 100,
      "chip": "ym2612"
    },
    {
      "channel": 4,
      "note": 82,
      "start": 40.9298,
      "duration": 0.3386,
      "velocity": 100,
      "chip": "ym2612"
    },
    {
      "channel": 5,
      "note": 100,
      "start": 40.9306,
      "duration": 0.3386,
      "velocity": 100,
      "chip": "ym2612"
    },
    {
      "channel": 2,
      "note": 70,
      "start": 40.9313,
      "duration": 0.3387,
      "velocity": 95,
      "chip": "ym2612"
    },
    {
      "channel": 0,
      "note": 70,
      "start": 41.2676,
      "duration": 0.3382,
      "velocity": 95,
      "chip": "ym2612"
    },
    {
      "channel": 4,
      "note": 81,
      "start": 41.2691,
      "duration": 0.3386,
      "velocity": 100,
      "chip": "ym2612"
    },
    {
      "channel": 5,
      "note": 103,
      "start": 41.2698,
      "duration": 0.6798,
      "velocity": 100,
      "chip": "ym2612"
    },
    {
      "channel": 2,
      "note": 77,
      "start": 41.2706,
      "duration": 0.3382,
      "velocity": 95,
      "chip": "ym2612"
    },
    {
      "channel": 0,
      "note": 77,
      "start": 41.6064,
      "duration": 0.3389,
      "velocity": 95,
      "chip": "ym2612"
    },
    {
      "channel": 3,
      "note": 101,
      "start": 41.6076,
      "duration": 0.3393,
      "velocity": 100,
      "chip": "ym2612"
    },
    {
      "channel": 4,
      "note": 77,
      "start": 41.6083,
      "duration": 0.3394,
      "velocity": 100,
      "chip": "ym2612"
    },
    {
      "channel": 2,
      "note": 79,
      "start": 41.6094,
      "duration": 0.341,
      "velocity": 95,
      "chip": "ym2612"
    },
    {
      "channel": 0,
      "note": 79,
      "start": 41.9459,
      "duration": 0.3389,
      "velocity": 95,
      "chip": "ym2612"
    },
    {
      "channel": 1,
      "note": 93,
      "start": 41.9467,
      "duration": 1.0178,
      "velocity": 99,
      "chip": "ym2612"
    },
    {
      "channel": 3,
      "note": 100,
      "start": 41.9474,
      "duration": 0.3385,
      "velocity": 100,
      "chip": "ym2612"
    },
    {
      "channel": 4,
      "note": 74,
      "start": 41.9482,
      "duration": 0.3385,
      "velocity": 100,
      "chip": "ym2612"
    },
    {
      "channel": 5,
      "note": 101,
      "start": 41.9503,
      "duration": 0.3371,
      "velocity": 100,
      "chip": "ym2612"
    },
    {
      "channel": 2,
      "note": 81,
      "start": 41.9511,
      "duration": 0.3371,
      "velocity": 95,
      "chip": "ym2612"
    },
    {
      "channel": 0,
      "note": 81,
      "start": 42.2854,
      "duration": 0.3389,
      "velocity": 95,
      "chip": "ym2612"
    },
    {
      "channel": 3,
      "note": 101,
      "start": 42.2866,
      "duration": 0.3388,
      "velocity": 100,
      "chip": "ym2612"
    },
    {
      "channel": 4,
      "note": 69,
      "start": 42.2873,
      "duration": 0.3389,
      "velocity": 100,
      "chip": "ym2612"
    },
    {
      "channel": 5,
      "note": 100,
      "start": 42.288,
      "duration": 0.3388,
      "velocity": 100,
      "chip": "ym2612"
    },
    {
      "channel": 2,
      "note": 79,
      "start": 42.2888,
      "duration": 0.3388,
      "velocity": 95,
      "chip": "ym2612"
    },
    {
      "channel": 0,
      "note": 79,
      "start": 42.6249,
      "duration": 0.3389,
      "velocity": 95,
      "chip": "ym2612"
    },
    {
      "channel": 3,
      "note": 103,
      "start": 42.6259,
      "duration": 0.3406,
      "velocity": 100,
      "chip": "ym2612"
    },
    {
      "channel": 4,
      "note": 70,
      "start": 42.6267,
      "duration": 0.3407,
      "velocity": 100,
      "chip": "ym2612"
    },
    {
      "channel": 5,
      "note": 101,
      "start": 42.6275,
      "duration": 0.3407,
      "velocity": 100,
      "chip": "ym2612"
    },
    {
      "channel": 2,
      "note": 77,
      "start": 42.6282,
      "duration": 0.3406,
      "velocity": 95,
      "chip": "ym2612"
    },
    {
      "channel": 0,
      "note": 77,
      "start": 42.9644,
      "duration": 0.3389,
      "velocity": 95,
      "chip": "ym2612"
    },
    {
      "channel": 1,
      "note": 91,
      "start": 42.9664,
      "duration": 1.0178,
      "velocity": 99,
      "chip": "ym2612"
    },
    {
      "channel": 3,
      "note": 100,
      "start": 42.9671,
      "duration": 2.7136,
      "velocity": 100,
      "chip": "ym2612"
    },
    {
      "channel": 4,
      "note": 72,
      "start": 42.9679,
      "duration": 1.0173,
      "velocity": 100,
      "chip": "ym2612"
    },
    {
      "channel": 5,
      "note": 103,
      "start": 42.9687,
      "duration": 0.3364,
      "velocity": 100,
      "chip": "ym2612"
    },
    {
      "channel": 2,
      "note": 60,
      "start": 42.9694,
      "duration": 0.3364,
      "velocity": 95,
      "chip": "ym2612"
    },
    {
      "channel": 0,
      "note": 60,
      "start": 43.3039,
      "duration": 0.3389,
      "velocity": 95,
      "chip": "ym2612"
    },
    {
      "channel": 5,
      "note": 100,
      "start": 43.3057,
      "duration": 2.7287,
      "velocity": 100,
      "chip": "ym2612"
    },
    {
      "channel": 2,
      "note": 67,
      "start": 43.3064,
      "duration": 0.3385,
      "velocity": 95,
      "chip": "ym2612"
    },
    {
      "channel": 0,
      "note": 67,
      "start": 43.6433,
      "duration": 0.3401,
      "velocity": 95,
      "chip": "ym2612"
    },
    {
      "channel": 2,
      "note": 69,
      "start": 43.6455,
      "duration": 0.3408,
      "velocity": 95,
      "chip": "ym2612"
    },
    {
      "channel": 0,
      "note": 69,
      "start": 43.9839,
      "duration": 0.3377,
      "velocity": 95,
      "chip": "ym2612"
    },
    {
      "channel": 1,
      "note": 96,
      "start": 43.9847,
      "duration": 1.0167,
      "velocity": 99,
      "chip": "ym2612"
    },
    {
      "channel": 4,
      "note": 79,
      "start": 43.9859,
      "duration": 1.0166,
      "velocity": 100,
      "chip": "ym2612"
    },
    {
      "channel": 2,
      "note": 71,
      "start": 43.9869,
      "duration": 0.3369,
      "velocity": 95,
      "chip": "ym2612"
    },
    {
      "channel": 0,
      "note": 71,
      "start": 44.3222,
      "duration": 0.3389,
      "velocity": 95,
      "chip": "ym2612"
    },
    {
      "channel": 2,
      "note": 69,
      "start": 44.3244,
      "duration": 0.3389,
      "velocity": 95,
      "chip": "ym2612"
    },
    {
      "channel": 0,
      "note": 69,
      "start": 44.6617,
      "duration": 0.3389,
      "velocity": 95,
      "chip": "ym2612"
    },
    {
      "channel": 2,
      "note": 67,
      "start": 44.6639,
      "duration": 0.3397,
      "velocity": 95,
      "chip": "ym2612"
    },
    {
      "channel": 0,
      "note": 67,
      "start": 45.0012,
      "duration": 0.3389,
      "velocity": 95,
      "chip": "ym2612"
    },
    {
      "channel": 1,
      "note": 97,
      "start": 45.002,
      "duration": 1.0204,
      "velocity": 97,
      "chip": "ym2612"
    },
    {
      "channel": 4,
      "note": 76,
      "start": 45.0031,
      "duration": 1.0263,
      "velocity": 100,
      "chip": "ym2612"
    },
    {
      "channel": 2,
      "note": 69,
      "start": 45.0042,
      "duration": 0.3381,
      "velocity": 95,
      "chip": "ym2612"
    },
    {
      "channel": 0,
      "note": 69,
      "start": 45.3407,
      "duration": 0.3389,
      "velocity": 95,
      "chip": "ym2612"
    },
    {
      "channel": 2,
      "note": 73,
      "start": 45.3429,
      "duration": 0.3402,
      "velocity": 95,
      "chip": "ym2612"
    },
    {
      "channel": 0,
      "note": 73,
      "start": 45.6802,
      "duration": 0.3388,
      "velocity": 95,
      "chip": "ym2612"
    },
    {
      "channel": 2,
      "note": 76,
      "start": 45.6837,
      "duration": 0.354,
      "velocity": 102,
      "chip": "ym2612"
    },
    {
      "channel": 0,
      "note": 76,
      "start": 46.0196,
      "duration": 0.3415,
      "velocity": 102,
      "chip": "ym2612"
    },
    {
      "channel": 1,
      "note": 45,
      "start": 46.0229,
      "duration": 0.339,
      "velocity": 97,
      "chip": "ym2612"
    },
    {
      "channel": 3,
      "note": 76,
      "start": 46.0264,
      "duration": 0.3362,
      "velocity": 100,
      "chip": "ym2612"
    },
    {
      "channel": 4,
      "note": 73,
      "start": 46.0299,
      "duration": 0.3335,
      "velocity": 100,
      "chip": "ym2612"
    },
    {
      "channel": 5,
      "note": 85,
      "start": 46.035,
      "duration": 0.3291,
      "velocity": 100,
      "chip": "ym2612"
    },
    {
      "channel": 2,
      "note": 64,
      "start": 46.0383,
      "duration": 0.3278,
      "velocity": 102,
      "chip": "ym2612"
    },
    {
      "channel": 0,
      "note": 64,
      "start": 46.3617,
      "duration": 0.3363,
      "velocity": 102,
      "chip": "ym2612"
    },
    {
      "channel": 1,
      "note": 47,
      "start": 46.3625,
      "duration": 0.3376,
      "velocity": 97,
      "chip": "ym2612"
    },
    {
      "channel": 3,
      "note": 77,
      "start": 46.3632,
      "duration": 0.3376,
      "velocity": 100,
      "chip": "ym2612"
    },
    {
      "channel": 4,
      "note": 74,
      "start": 46.364,
      "duration": 0.3377,
      "velocity": 100,
      "chip": "ym2612"
    },
    {
      "channel": 5,
      "note": 86,
      "start": 46.3647,
      "duration": 0.3377,
      "velocity": 100,
      "chip": "ym2612"
    },
    {
      "channel": 2,
      "note": 65,
      "start": 46.3668,
      "duration": 0.3363,
      "velocity": 102,
      "chip": "ym2612"
    },
    {
      "channel": 0,
      "note": 65,
      "start": 46.7,
      "duration": 0.3375,
      "velocity": 102,
      "chip": "ym2612"
    },
    {
      "channel": 1,
      "note": 49,
      "start": 46.7007,
      "duration": 0.3376,
      "velocity": 97,
      "chip": "ym2612"
    },
    {
      "channel": 3,
      "note": 79,
      "start": 46.7015,
      "duration": 0.6767,
      "velocity": 100,
      "chip": "ym2612"
    },
    {
      "channel": 4,
      "note": 76,
      "start": 46.7023,
      "duration": 0.6766,
      "velocity": 100,
      "chip": "ym2612"
    },
    {
      "channel": 5,
      "note": 88,
      "start": 46.703,
      "duration": 0.3368,
      "velocity": 100,
      "chip": "ym2612"
    },
    {
      "channel": 2,
      "note": 67,
      "start": 46.7038,
      "duration": 0.3368,
      "velocity": 102,
      "chip": "ym2612"
    },
    {
      "channel": 0,
      "note": 67,
      "start": 47.0382,
      "duration": 0.3388,
      "velocity": 102,
      "chip": "ym2612"
    },
    {
      "channel": 1,
      "note": 50,
      "start": 47.0389,
      "duration": 0.6783,
      "velocity": 97,
      "chip": "ym2612"
    },
    {
      "channel": 5,
      "note": 89,
      "start": 47.0404,
      "duration": 1.0174,
      "velocity": 100,
      "chip": "ym2612"
    },
    {
      "channel": 2,
      "note": 69,
      "start": 47.0412,
      "duration": 1.0173,
      "velocity": 102,
      "chip": "ym2612"
    },
    {
      "channel": 0,
      "note": 69,
      "start": 47.3776,
      "duration": 1.0178,
      "velocity": 102,
      "chip": "ym2612"
    },
    {
      "channel": 3,
      "note": 77,
      "start": 47.3788,
      "duration": 0.339,
      "velocity": 100,
      "chip": "ym2612"
    },
    {
      "channel": 4,
      "note": 74,
      "start": 47.3796,
      "duration": 0.3388,
      "velocity": 100,
      "chip": "ym2612"
    },
    {
      "channel": 1,
      "note": 50,
      "start": 47.7177,
      "duration": 0.3387,
      "velocity": 97,
      "chip": "ym2612"
    },
    {
      "channel": 3,
      "note": 77,
      "start": 47.7182,
      "duration": 0.6783,
      "velocity": 100,
      "chip": "ym2612"
    },
    {
      "channel": 4,
      "note": 74,
      "start": 47.7188,
      "duration": 0.6783,
      "velocity": 100,
      "chip": "ym2612"
    },
    {
      "channel": 1,
      "note": 50,
      "start": 48.0568,
      "duration": 0.6789,
      "velocity": 97,
      "chip": "ym2612"
    },
    {
      "channel": 5,
      "note": 84,
      "start": 48.0583,
      "duration": 0.3394,
      "velocity": 100,
      "chip": "ym2612"
    },
    {
      "channel": 2,
      "note": 65,
      "start": 48.0591,
      "duration": 0.3407,
      "velocity": 102,
      "chip": "ym2612"
    },
    {
      "channel": 0,
      "note": 65,
      "start": 48.396,
      "duration": 0.3389,
      "velocity": 102,
      "chip": "ym2612"
    },
    {
      "channel": 3,
      "note": 77,
      "start": 48.397,
      "duration": 0.3393,
      "velocity": 100,
      "chip": "ym2612"
    },
    {
      "channel": 4,
      "note": 74,
      "start": 48.3976,
      "duration": 0.3394,
      "velocity": 100,
      "chip": "ym2612"
    },
    {
      "channel": 5,
      "note": 89,
      "start": 48.3997,
      "duration": 0.3378,
      "velocity": 100,
      "chip": "ym2612"
    },
    {
      "channel": 2,
      "note": 69,
      "start": 48.4005,
      "duration": 0.3378,
      "velocity": 102,
      "chip": "ym2612"
    },
    {
      "channel": 0,
      "note": 69,
      "start": 48.7356,
      "duration": 0.3387,
      "velocity": 102,
      "chip": "ym2612"
    },
    {
      "channel": 1,
      "note": 50,
      "start": 48.7362,
      "duration": 0.339,
      "velocity": 97,
      "chip": "ym2612"
    },
    {
      "channel": 3,
      "note": 77,
      "start": 48.7368,
      "duration": 0.6796,
      "velocity": 100,
      "chip": "ym2612"
    },
    {
      "channel": 4,
      "note": 74,
      "start": 48.7374,
      "duration": 0.6798,
      "velocity": 100,
      "chip": "ym2612"
    },
    {
      "channel": 5,
      "note": 84,
      "start": 48.7381,
      "duration": 0.3385,
      "velocity": 100,
      "chip": "ym2612"
    },
    {
      "channel": 2,
      "note": 65,
      "start": 48.7389,
      "duration": 0.3385,
      "velocity": 102,
      "chip": "ym2612"
    },
    {
      "channel": 0,
      "note": 65,
      "start": 49.075,
      "duration": 0.3388,
      "velocity": 102,
      "chip": "ym2612"
    },
    {
      "channel": 1,
      "note": 55,
      "start": 49.0757,
      "duration": 0.678,
      "velocity": 97,
      "chip": "ym2612"
    },
    {
      "channel": 5,
      "note": 83,
      "start": 49.0772,
      "duration": 0.6784,
      "velocity": 100,
      "chip": "ym2612"
    },
    {
      "channel": 2,
      "note": 64,
      "start": 49.078,
      "duration": 0.6781,
      "velocity": 102,
      "chip": "ym2612"
    },
    {
      "channel": 0,
      "note": 64,
      "start": 49.4145,
      "duration": 0.6783,
      "velocity": 102,
      "chip": "ym2612"
    },
    {
      "channel": 3,
      "note": 79,
      "start": 49.417,
      "duration": 0.3373,
      "velocity": 100,
      "chip": "ym2612"
    },
    {
      "channel": 4,
      "note": 74,
      "start": 49.4178,
      "duration": 0.3372,
      "velocity": 100,
      "chip": "ym2612"
    },
    {
      "channel": 1,
      "note": 55,
      "start": 49.7542,
      "duration": 0.3394,
      "velocity": 97,
      "chip": "ym2612"
    },
    {
      "channel": 3,
      "note": 79,
      "start": 49.7548,
      "duration": 0.6797,
      "velocity": 100,
      "chip": "ym2612"
    },
    {
      "channel": 4,
      "note": 74,
      "start": 49.7554,
      "duration": 0.6796,
      "velocity": 100,
      "chip": "ym2612"
    },
    {
      "channel": 5,
      "note": 83,
      "start": 49.756,
      "duration": 0.3389,
      "velocity": 100,
      "chip": "ym2612"
    },
    {
      "channel": 2,
      "note": 62,
      "start": 49.7568,
      "duration": 0.3389,
      "velocity": 102,
      "chip": "ym2612"
    },
    {
      "channel": 0,
      "note": 62,
      "start": 50.0935,
      "duration": 0.3398,
      "velocity": 102,
      "chip": "ym2612"
    },
    {
      "channel": 1,
      "note": 55,
      "start": 50.0941,
      "duration": 0.6784,
      "velocity": 97,
      "chip": "ym2612"
    },
    {
      "channel": 5,
      "note": 83,
      "start": 50.0956,
      "duration": 0.3401,
      "velocity": 100,
      "chip": "ym2612"
    },
    {
      "channel": 2,
      "note": 62,
      "start": 50.0963,
      "duration": 0.3401,
      "velocity": 102,
      "chip": "ym2612"
    },
    {
      "channel": 0,
      "note": 62,
      "start": 50.4339,
      "duration": 0.3378,
      "velocity": 102,
      "chip": "ym2612"
    },
    {
      "channel": 3,
      "note": 79,
      "start": 50.4349,
      "duration": 0.3382,
      "velocity": 100,
      "chip": "ym2612"
    },
    {
      "channel": 4,
      "note": 74,
      "start": 50.4355,
      "duration": 0.3384,
      "velocity": 100,
      "chip": "ym2612"
    },
    {
      "channel": 5,
      "note": 84,
      "start": 50.4362,
      "duration": 0.3382,
      "velocity": 100,
      "chip": "ym2612"
    },
    {
      "channel": 2,
      "note": 64,
      "start": 50.4371,
      "duration": 0.3382,
      "velocity": 102,
      "chip": "ym2612"
    },
    {
      "channel": 0,
      "note": 64,
      "start": 50.7724,
      "duration": 0.3389,
      "velocity": 102,
      "chip": "ym2612"
    },
    {
      "channel": 1,
      "note": 55,
      "start": 50.7729,
      "duration": 0.3391,
      "velocity": 97,
      "chip": "ym2612"
    },
    {
      "channel": 3,
      "note": 77,
      "start": 50.7737,
      "duration": 0.6781,
      "velocity": 100,
      "chip": "ym2612"
    },
    {
      "channel": 4,
      "note": 74,
      "start": 50.7743,
      "duration": 0.6783,
      "velocity": 100,
      "chip": "ym2612"
    },
    {
      "channel": 5,
      "note": 86,
      "start": 50.7751,
      "duration": 0.3384,
      "velocity": 100,
      "chip": "ym2612"
    },
    {
      "channel": 2,
      "note": 65,
      "start": 50.7759,
      "duration": 0.3384,
      "velocity": 102,
      "chip": "ym2612"
    },
    {
      "channel": 0,
      "note": 65,
      "start": 51.1119,
      "duration": 0.3387,
      "velocity": 102,
      "chip": "ym2612"
    },
    {
      "channel": 1,
      "note": 48,
      "start": 51.1126,
      "duration": 0.678,
      "velocity": 97,
      "chip": "ym2612"
    },
    {
      "channel": 5,
      "note": 88,
      "start": 51.1141,
      "duration": 1.0173,
      "velocity": 100,
      "chip": "ym2612"
    },
    {
      "channel": 2,
      "note": 67,
      "start": 51.1163,
      "duration": 1.0172,
      "velocity": 102,
      "chip": "ym2612"
    },
    {
      "channel": 0,
      "note": 67,
      "start": 51.4513,
      "duration": 1.0178,
      "velocity": 102,
      "chip": "ym2612"
    },
    {
      "channel": 3,
      "note": 79,
      "start": 51.4524,
      "duration": 0.3388,
      "velocity": 100,
      "chip": "ym2612"
    },
    {
      "channel": 4,
      "note": 76,
      "start": 51.4532,
      "duration": 0.3387,
      "velocity": 100,
      "chip": "ym2612"
    },
    {
      "channel": 1,
      "note": 48,
      "start": 51.7911,
      "duration": 0.339,
      "velocity": 97,
      "chip": "ym2612"
    },
    {
      "channel": 3,
      "note": 79,
      "start": 51.7917,
      "duration": 0.6786,
      "velocity": 100,
      "chip": "ym2612"
    },
    {
      "channel": 4,
      "note": 76,
      "start": 51.7923,
      "duration": 0.6785,
      "velocity": 100,
      "chip": "ym2612"
    },
    {
      "channel": 1,
      "note": 48,
      "start": 52.1305,
      "duration": 0.6789,
      "velocity": 97,
      "chip": "ym2612"
    },
    {
      "channel": 5,
      "note": 83,
      "start": 52.1334,
      "duration": 0.338,
      "velocity": 100,
      "chip": "ym2612"
    },
    {
      "channel": 2,
      "note": 64,
      "start": 52.1342,
      "duration": 0.338,
      "velocity": 102,
      "chip": "ym2612"
    },
    {
      "channel": 0,
      "note": 64,
      "start": 52.4698,
      "duration": 0.3389,
      "velocity": 102,
      "chip": "ym2612"
    },
    {
      "channel": 3,
      "note": 79,
      "start": 52.4707,
      "duration": 0.3392,
      "velocity": 100,
      "chip": "ym2612"
    },
    {
      "channel": 4,
      "note": 76,
      "start": 52.4713,
      "duration": 0.3393,
      "velocity": 100,
      "chip": "ym2612"
    },
    {
      "channel": 5,
      "note": 88,
      "start": 52.4721,
      "duration": 0.3391,
      "velocity": 100,
      "chip": "ym2612"
    },
    {
      "channel": 2,
      "note": 67,
      "start": 52.4729,
      "duration": 0.339,
      "velocity": 102,
      "chip": "ym2612"
    },
    {
      "channel": 0,
      "note": 67,
      "start": 52.8093,
      "duration": 0.3389,
      "velocity": 102,
      "chip": "ym2612"
    },
    {
      "channel": 1,
      "note": 48,
      "start": 52.8098,
      "duration": 0.3405,
      "velocity": 97,
      "chip": "ym2612"
    },
    {
      "channel": 3,
      "note": 79,
      "start": 52.8104,
      "duration": 0.6783,
      "velocity": 100,
      "chip": "ym2612"
    },
    {
      "channel": 4,
      "note": 76,
      "start": 52.811,
      "duration": 0.6784,
      "velocity": 100,
      "chip": "ym2612"
    },
    {
      "channel": 5,
      "note": 83,
      "start": 52.8118,
      "duration": 0.34,
      "velocity": 100,
      "chip": "ym2612"
    },
    {
      "channel": 2,
      "note": 64,
      "start": 52.8126,
      "duration": 0.3399,
      "velocity": 102,
      "chip": "ym2612"
    },
    {
      "channel": 0,
      "note": 64,
      "start": 53.1502,
      "duration": 0.3373,
      "velocity": 102,
      "chip": "ym2612"
    },
    {
      "channel": 1,
      "note": 45,
      "start": 53.1509,
      "duration": 0.6766,
      "velocity": 97,
      "chip": "ym2612"
    },
    {
      "channel": 5,
      "note": 79,
      "start": 53.1523,
      "duration": 0.6769,
      "velocity": 100,
      "chip": "ym2612"
    },
    {
      "channel": 2,
      "note": 59,
      "start": 53.1532,
      "duration": 0.6768,
      "velocity": 102,
      "chip": "ym2612"
    },
    {
      "channel": 0,
      "note": 59,
      "start": 53.4881,
      "duration": 0.6785,
      "velocity": 102,
      "chip": "ym2612"
    },
    {
      "channel": 3,
      "note": 81,
      "start": 53.4893,
      "duration": 0.3387,
      "velocity": 100,
      "chip": "ym2612"
    },
    {
      "channel": 4,
      "note": 76,
      "start": 53.49,
      "duration": 0.3386,
      "velocity": 100,
      "chip": "ym2612"
    },
    {
      "channel": 1,
      "note": 45,
      "start": 53.8279,
      "duration": 0.3396,
      "velocity": 97,
      "chip": "ym2612"
    },
    {
      "channel": 3,
      "note": 81,
      "start": 53.8285,
      "duration": 0.6787,
      "velocity": 100,
      "chip": "ym2612"
    },
    {
      "channel": 4,
      "note": 76,
      "start": 53.8291,
      "duration": 0.6786,
      "velocity": 100,
      "chip": "ym2612"
    },
    {
      "channel": 5,
      "note": 76,
      "start": 53.8299,
      "duration": 0.3389,
      "velocity": 100,
      "chip": "ym2612"
    },
    {
      "channel": 2,
      "note": 57,
      "start": 53.8307,
      "duration": 0.3388,
      "velocity": 102,
      "chip": "ym2612"
    },
    {
      "channel": 0,
      "note": 57,
      "start": 54.1673,
      "duration": 0.3387,
      "velocity": 102,
      "chip": "ym2612"
    },
    {
      "channel": 1,
      "note": 45,
      "start": 54.1679,
      "duration": 0.6783,
      "velocity": 97,
      "chip": "ym2612"
    },
    {
      "channel": 5,
      "note": 81,
      "start": 54.1694,
      "duration": 0.339,
      "velocity": 100,
      "chip": "ym2612"
    },
    {
      "channel": 2,
      "note": 60,
      "start": 54.1702,
      "duration": 0.3389,
      "velocity": 102,
      "chip": "ym2612"
    },
    {
      "channel": 0,
      "note": 60,
      "start": 54.5067,
      "duration": 0.3387,
      "velocity": 102,
      "chip": "ym2612"
    },
    {
      "channel": 3,
      "note": 81,
      "start": 54.5076,
      "duration": 0.3392,
      "velocity": 100,
      "chip": "ym2612"
    },
    {
      "channel": 4,
      "note": 76,
      "start": 54.5082,
      "duration": 0.3393,
      "velocity": 100,
      "chip": "ym2612"
    },
    {
      "channel": 5,
      "note": 83,
      "start": 54.509,
      "duration": 0.339,
      "velocity": 100,
      "chip": "ym2612"
    },
    {
      "channel": 2,
      "note": 62,
      "start": 54.5098,
      "duration": 0.3403,
      "velocity": 102,
      "chip": "ym2612"
    },
    {
      "channel": 0,
      "note": 62,
      "start": 54.8461,
      "duration": 0.3388,
      "velocity": 102,
      "chip": "ym2612"
    },
    {
      "channel": 1,
      "note": 45,
      "start": 54.8467,
      "duration": 0.3391,
      "velocity": 97,
      "chip": "ym2612"
    },
    {
      "channel": 3,
      "note": 81,
      "start": 54.8472,
      "duration": 0.6783,
      "velocity": 100,
      "chip": "ym2612"
    },
    {
      "channel": 4,
      "note": 76,
      "start": 54.8479,
      "duration": 0.6783,
      "velocity": 100,
      "chip": "ym2612"
    },
    {
      "channel": 5,
      "note": 84,
      "start": 54.8499,
      "duration": 0.3373,
      "velocity": 100,
      "chip": "ym2612"
    },
    {
      "channel": 2,
      "note": 64,
      "start": 54.8507,
      "duration": 0.3372,
      "velocity": 102,
      "chip": "ym2612"
    },
    {
      "channel": 0,
      "note": 64,
      "start": 55.1856,
      "duration": 0.3388,
      "velocity": 102,
      "chip": "ym2612"
    },
    {
      "channel": 1,
      "note": 53,
      "start": 55.1863,
      "duration": 0.678,
      "velocity": 97,
      "chip": "ym2612"
    },
    {
      "channel": 5,
      "note": 84,
      "start": 55.1878,
      "duration": 1.0174,
      "velocity": 100,
      "chip": "ym2612"
    },
    {
      "channel": 2,
      "note": 65,
      "start": 55.1886,
      "duration": 1.0173,
      "velocity": 102,
      "chip": "ym2612"
    },
    {
      "channel": 0,
      "note": 65,
      "start": 55.525,
      "duration": 1.0178,
      "velocity": 102,
      "chip": "ym2612"
    },
    {
      "channel": 3,
      "note": 81,
      "start": 55.526,
      "duration": 0.3403,
      "velocity": 100,
      "chip": "ym2612"
    },
    {
      "channel": 4,
      "note": 77,
      "start": 55.5268,
      "duration": 0.3401,
      "velocity": 100,
      "chip": "ym2612"
    },
    {
      "channel": 1,
      "note": 53,
      "start": 55.8647,
      "duration": 0.339,
      "velocity": 97,
      "chip": "ym2612"
    },
    {
      "channel": 3,
      "note": 81,
      "start": 55.8667,
      "duration": 0.6772,
      "velocity": 100,
      "chip": "ym2612"
    },
    {
      "channel": 4,
      "note": 77,
      "start": 55.8673,
      "duration": 0.6772,
      "velocity": 100,
      "chip": "ym2612"
    },
    {
      "channel": 1,
      "note": 53,
      "start": 56.2042,
      "duration": 0.68,
      "velocity": 97,
      "chip": "ym2612"
    },
    {
      "channel": 5,
      "note": 81,
      "start": 56.2057,
      "duration": 0.3394,
      "velocity": 100,
      "chip": "ym2612"
    },
    {
      "channel": 2,
      "note": 60,
      "start": 56.2065,
      "duration": 0.3394,
      "velocity": 102,
      "chip": "ym2612"
    },
    {
      "channel": 0,
      "note": 60,
      "start": 56.5435,
      "duration": 0.3399,
      "velocity": 102,
      "chip": "ym2612"
    },
    {
      "channel": 3,
      "note": 81,
      "start": 56.5444,
      "duration": 0.3404,
      "velocity": 100,
      "chip": "ym2612"
    },
    {
      "channel": 4,
      "note": 77,
      "start": 56.545,
      "duration": 0.3404,
      "velocity": 100,
      "chip": "ym2612"
    },
    {
      "channel": 5,
      "note": 84,
      "start": 56.5458,
      "duration": 0.3402,
      "velocity": 100,
      "chip": "ym2612"
    },
    {
      "channel": 2,
      "note": 65,
      "start": 56.5466,
      "duration": 0.3402,
      "velocity": 102,
      "chip": "ym2612"
    },
    {
      "channel": 0,
      "note": 65,
      "start": 56.8841,
      "duration": 0.3376,
      "velocity": 102,
      "chip": "ym2612"
    },
    {
      "channel": 1,
      "note": 53,
      "start": 56.8846,
      "duration": 0.3379,
      "velocity": 97,
      "chip": "ym2612"
    },
    {
      "channel": 3,
      "note": 81,
      "start": 56.8852,
      "duration": 0.6772,
      "velocity": 100,
      "chip": "ym2612"
    },
    {
      "channel": 4,
      "note": 77,
      "start": 56.8859,
      "duration": 0.6773,
      "velocity": 100,
      "chip": "ym2612"
    },
    {
      "channel": 5,
      "note": 81,
      "start": 56.8866,
      "duration": 0.3374,
      "velocity": 100,
      "chip": "ym2612"
    },
    {
      "channel": 2,
      "note": 60,
      "start": 56.8874,
      "duration": 0.3374,
      "velocity": 102,
      "chip": "ym2612"
    },
    {
      "channel": 0,
      "note": 60,
      "start": 57.2224,
      "duration": 0.3388,
      "velocity": 102,
      "chip": "ym2612"
    },
    {
      "channel": 1,
      "note": 55,
      "start": 57.2231,
      "duration": 0.678,
      "velocity": 97,
      "chip": "ym2612"
    },
    {
      "channel": 5,
      "note": 79,
      "start": 57.2246,
      "duration": 0.6784,
      "velocity": 100,
      "chip": "ym2612"
    },
    {
      "channel": 2,
      "note": 59,
      "start": 57.2254,
      "duration": 0.6781,
      "velocity": 102,
      "chip": "ym2612"
    },
    {
      "channel": 0,
      "note": 59,
      "start": 57.5619,
      "duration": 0.6784,
      "velocity": 102,
      "chip": "ym2612"
    },
    {
      "channel": 3,
      "note": 79,
      "start": 57.563,
      "duration": 0.3388,
      "velocity": 100,
      "chip": "ym2612"
    },
    {
      "channel": 4,
      "note": 74,
      "start": 57.5638,
      "duration": 0.3385,
      "velocity": 100,
      "chip": "ym2612"
    },
    {
      "channel": 1,
      "note": 55,
      "start": 57.9016,
      "duration": 0.3393,
      "velocity": 97,
      "chip": "ym2612"
    },
    {
      "channel": 3,
      "note": 79,
      "start": 57.9022,
      "duration": 0.6786,
      "velocity": 100,
      "chip": "ym2612"
    },
    {
      "channel": 4,
      "note": 74,
      "start": 57.9028,
      "duration": 0.6786,
      "velocity": 100,
      "chip": "ym2612"
    },
    {
      "channel": 5,
      "note": 79,
      "start": 57.9034,
      "duration": 0.3388,
      "velocity": 100,
      "chip": "ym2612"
    },
    {
      "channel": 2,
      "note": 59,
      "start": 57.9041,
      "duration": 0.3389,
      "velocity": 102,
      "chip": "ym2612"
    },
    {
      "channel": 0,
      "note": 59,
      "start": 58.2407,
      "duration": 0.3389,
      "velocity": 102,
      "chip": "ym2612"
    },
    {
      "channel": 1,
      "note": 55,
      "start": 58.2413,
      "duration": 0.6788,
      "velocity": 97,
      "chip": "ym2612"
    },
    {
      "channel": 5,
      "note": 79,
      "start": 58.2428,
      "duration": 0.3405,
      "velocity": 100,
      "chip": "ym2612"
    },
    {
      "channel": 2,
      "note": 59,
      "start": 58.2436,
      "duration": 0.3405,
      "velocity": 102,
      "chip": "ym2612"
    },
    {
      "channel": 0,
      "note": 59,
      "start": 58.5803,
      "duration": 0.3389,
      "velocity": 102,
      "chip": "ym2612"
    },
    {
      "channel": 3,
      "note": 79,
      "start": 58.5812,
      "duration": 0.3395,
      "velocity": 100,
      "chip": "ym2612"
    },
    {
      "channel": 4,
      "note": 74,
      "start": 58.5831,
      "duration": 0.3382,
      "velocity": 100,
      "chip": "ym2612"
    },
    {
      "channel": 5,
      "note": 81,
      "start": 58.5839,
      "duration": 0.338,
      "velocity": 100,
      "chip": "ym2612"
    },
    {
      "channel": 2,
      "note": 60,
      "start": 58.5847,
      "duration": 0.3379,
      "velocity": 102,
      "chip": "ym2612"
    },
    {
      "channel": 0,
      "note": 60,
      "start": 58.92,
      "duration": 0.3387,
      "velocity": 102,
      "chip": "ym2612"
    },
    {
      "channel": 1,
      "note": 55,
      "start": 58.9205,
      "duration": 0.3389,
      "velocity": 97,
      "chip": "ym2612"
    },
    {
      "channel": 3,
      "note": 79,
      "start": 58.9211,
      "duration": 0.3391,
      "velocity": 100,
      "chip": "ym2612"
    },
    {
      "channel": 4,
      "note": 74,
      "start": 58.9217,
      "duration": 0.3392,
      "velocity": 100,
      "chip": "ym2612"
    },
    {
      "channel": 5,
      "note": 83,
      "start": 58.9225,
      "duration": 0.3392,
      "velocity": 100,
      "chip": "ym2612"
    },
    {
      "channel": 2,
      "note": 62,
      "start": 58.9233,
      "duration": 0.3392,
      "velocity": 102,
      "chip": "ym2612"
    },
    {
      "channel": 0,
      "note": 62,
      "start": 59.2593,
      "duration": 0.3388,
      "velocity": 102,
      "chip": "ym2612"
    },
    {
      "channel": 1,
      "note": 48,
      "start": 59.26,
      "duration": 0.6784,
      "velocity": 97,
      "chip": "ym2612"
    },
    {
      "channel": 3,
      "note": 72,
      "start": 59.2608,
      "duration": 0.3398,
      "velocity": 100,
      "chip": "ym2612"
    },
    {
      "channel": 4,
      "note": 72,
      "start": 59.2616,
      "duration": 0.3398,
      "velocity": 100,
      "chip": "ym2612"
    },
    {
      "channel": 5,
      "note": 88,
      "start": 59.2623,
      "duration": 2.7147,
      "velocity": 100,
      "chip": "ym2612"
    },
    {
      "channel": 2,
      "note": 64,
      "start": 59.2631,
      "duration": 0.3394,
      "velocity": 102,
      "chip": "ym2612"
    },
    {
      "channel": 0,
      "note": 64,
      "start": 59.6001,
      "duration": 0.3375,
      "velocity": 102,
      "chip": "ym2612"
    },
    {
      "channel": 3,
      "note": 79,
      "start": 59.6012,
      "duration": 0.3379,
      "velocity": 100,
      "chip": "ym2612"
    },
    {
      "channel": 4,
      "note": 76,
      "start": 59.602,
      "duration": 0.3378,
      "velocity": 100,
      "chip": "ym2612"
    },
    {
      "channel": 2,
      "note": 67,
      "start": 59.6031,
      "duration": 2.7156,
      "velocity": 102,
      "chip": "ym2612"
    },
    {
      "channel": 0,
      "note": 67,
      "start": 59.9383,
      "duration": 2.7151,
      "velocity": 102,
      "chip": "ym2612"
    },
    {
      "channel": 1,
      "note": 48,
      "start": 59.9388,
      "duration": 0.3387,
      "velocity": 97,
      "chip": "ym2612"
    },
    {
      "channel": 3,
      "note": 72,
      "start": 59.9396,
      "duration": 0.3386,
      "velocity": 100,
      "chip": "ym2612"
    },
    {
      "channel": 4,
      "note": 72,
      "start": 59.9404,
      "duration": 0.3386,
      "velocity": 100,
      "chip": "ym2612"
    },
    {
      "channel": 1,
      "note": 47,
      "start": 60.2781,
      "duration": 0.6784,
      "velocity": 97,
      "chip": "ym2612"
    },
    {
      "channel": 3,
      "note": 71,
      "start": 60.2789,
      "duration": 0.3387,
      "velocity": 100,
      "chip": "ym2612"
    },
    {
      "channel": 4,
      "note": 71,
      "start": 60.2796,
      "duration": 0.3387,
      "velocity": 100,
      "chip": "ym2612"
    },
    {
      "channel": 3,
      "note": 79,
      "start": 60.6182,
      "duration": 0.3389,
      "velocity": 100,
      "chip": "ym2612"
    },
    {
      "channel": 4,
      "note": 76,
      "start": 60.6189,
      "duration": 0.3389,
      "velocity": 100,
      "chip": "ym2612"
    },
    {
      "channel": 1,
      "note": 47,
      "start": 60.9569,
      "duration": 0.339,
      "velocity": 97,
      "chip": "ym2612"
    },
    {
      "channel": 3,
      "note": 71,
      "start": 60.9577,
      "duration": 0.339,
      "velocity": 100,
      "chip": "ym2612"
    },
    {
      "channel": 4,
      "note": 71,
      "start": 60.9584,
      "duration": 0.3391,
      "velocity": 100,
      "chip": "ym2612"
    },
    {
      "channel": 1,
      "note": 46,
      "start": 61.2966,
      "duration": 0.6784,
      "velocity": 97,
      "chip": "ym2612"
    },
    {
      "channel": 3,
      "note": 70,
      "start": 61.2972,
      "duration": 0.3385,
      "velocity": 100,
      "chip": "ym2612"
    },
    {
      "channel": 4,
      "note": 70,
      "start": 61.298,
      "duration": 0.3385,
      "velocity": 100,
      "chip": "ym2612"
    },
    {
      "channel": 3,
      "note": 79,
      "start": 61.6364,
      "duration": 0.3392,
      "velocity": 100,
      "chip": "ym2612"
    },
    {
      "channel": 4,
      "note": 76,
      "start": 61.6371,
      "duration": 0.3392,
      "velocity": 100,
      "chip": "ym2612"
    },
    {
      "channel": 1,
      "note": 46,
      "start": 61.9754,
      "duration": 0.339,
      "velocity": 97,
      "chip": "ym2612"
    },
    {
      "channel": 3,
      "note": 70,
      "start": 61.9761,
      "duration": 0.3403,
      "velocity": 100,
      "chip": "ym2612"
    },
    {
      "channel": 4,
      "note": 70,
      "start": 61.9769,
      "duration": 0.3403,
      "velocity": 100,
      "chip": "ym2612"
    },
    {
      "channel": 1,
      "note": 45,
      "start": 62.3163,
      "duration": 0.338,
      "velocity": 97,
      "chip": "ym2612"
    },
    {
      "channel": 3,
      "note": 73,
      "start": 62.317,
      "duration": 0.3378,
      "velocity": 100,
      "chip": "ym2612"
    },
    {
      "channel": 4,
      "note": 69,
      "start": 62.3178,
      "duration": 0.3378,
      "velocity": 100,
      "chip": "ym2612"
    },
    {
      "channel": 5,
      "note": 85,
      "start": 62.3185,
      "duration": 0.3378,
      "velocity": 100,
      "chip": "ym2612"
    },
    {
      "channel": 2,
      "note": 64,
      "start": 62.3194,
      "duration": 0.3377,
      "velocity": 102,
      "chip": "ym2612"
    },
    {
      "channel": 0,
      "note": 64,
      "start": 62.6541,
      "duration": 0.3389,
      "velocity": 102,
      "chip": "ym2612"
    },
    {
      "channel": 1,
      "note": 45,
      "start": 62.6547,
      "duration": 0.6798,
      "velocity": 97,
      "chip": "ym2612"
    },
    {
      "channel": 3,
      "note": 81,
      "start": 62.6554,
      "duration": 0.3386,
      "velocity": 100,
      "chip": "ym2612"
    },
    {
      "channel": 4,
      "note": 76,
      "start": 62.6561,
      "duration": 0.3387,
      "velocity": 100,
      "chip": "ym2612"
    },
    {
      "channel": 5,
      "note": 86,
      "start": 62.6569,
      "duration": 0.3387,
      "velocity": 100,
      "chip": "ym2612"
    },
    {
      "channel": 2,
      "note": 65,
      "start": 62.6577,
      "duration": 0.3386,
      "velocity": 102,
      "chip": "ym2612"
    },
    {
      "channel": 0,
      "note": 65,
      "start": 62.9936,
      "duration": 0.3401,
      "velocity": 102,
      "chip": "ym2612"
    },
    {
      "channel": 3,
      "note": 73,
      "start": 62.9947,
      "duration": 0.6783,
      "velocity": 100,
      "chip": "ym2612"
    },
    {
      "channel": 4,
      "note": 69,
      "start": 62.9955,
      "duration": 0.6783,
      "velocity": 100,
      "chip": "ym2612"
    },
    {
      "channel": 5,
      "note": 88,
      "start": 62.9962,
      "duration": 0.3397,
      "velocity": 100,
      "chip": "ym2612"
    },
    {
      "channel": 2,
      "note": 67,
      "start": 62.997,
      "duration": 0.3397,
      "velocity": 102,
      "chip": "ym2612"
    },
    {
      "channel": 0,
      "note": 67,
      "start": 63.3343,
      "duration": 0.3375,
      "velocity": 102,
      "chip": "ym2612"
    },
    {
      "channel": 1,
      "note": 50,
      "start": 63.3351,
      "duration": 0.6767,
      "velocity": 97,
      "chip": "ym2612"
    },
    {
      "channel": 5,
      "note": 89,
      "start": 63.3366,
      "duration": 1.016,
      "velocity": 100,
      "chip": "ym2612"
    },
    {
      "channel": 2,
      "note": 69,
      "start": 63.3374,
      "duration": 1.016,
      "velocity": 102,
      "chip": "ym2612"
    },
    {
      "channel": 0,
      "note": 69,
      "start": 63.6726,
      "duration": 1.0177,
      "velocity": 102,
      "chip": "ym2612"
    },
    {
      "channel": 3,
      "note": 77,
      "start": 63.6737,
      "duration": 0.3387,
      "velocity": 100,
      "chip": "ym2612"
    },
    {
      "channel": 4,
      "note": 74,
      "start": 63.6744,
      "duration": 0.3385,
      "velocity": 100,
      "chip": "ym2612"
    },
    {
      "channel": 1,
      "note": 50,
      "start": 64.0122,
      "duration": 0.339,
      "velocity": 97,
      "chip": "ym2612"
    },
    {
      "channel": 3,
      "note": 77,
      "start": 64.0128,
      "duration": 0.6785,
      "velocity": 100,
      "chip": "ym2612"
    },
    {
      "channel": 4,
      "note": 74,
      "start": 64.0134,
      "duration": 0.6786,
      "velocity": 100,
      "chip": "ym2612"
    },
    {
      "channel": 1,
      "note": 50,
      "start": 64.3517,
      "duration": 0.6789,
      "velocity": 97,
      "chip": "ym2612"
    },
    {
      "channel": 5,
      "note": 86,
      "start": 64.3532,
      "duration": 0.3395,
      "velocity": 100,
      "chip": "ym2612"
    },
    {
      "channel": 2,
      "note": 65,
      "start": 64.354,
      "duration": 0.3394,
      "velocity": 102,
      "chip": "ym2612"
    },
    {
      "channel": 0,
      "note": 65,
      "start": 64.691,
      "duration": 0.3388,
      "velocity": 102,
      "chip": "ym2612"
    },
    {
      "channel": 3,
      "note": 77,
      "start": 64.6918,
      "duration": 0.3393,
      "velocity": 100,
      "chip": "ym2612"
    },
    {
      "channel": 4,
      "note": 74,
      "start": 64.6925,
      "duration": 0.3407,
      "velocity": 100,
      "chip": "ym2612"
    },
    {
      "channel": 5,
      "note": 89,
      "start": 64.6932,
      "duration": 0.3405,
      "velocity": 100,
      "chip": "ym2612"
    },
    {
      "channel": 2,
      "note": 69,
      "start": 64.6941,
      "duration": 0.3404,
      "velocity": 102,
      "chip": "ym2612"
    },
    {
      "channel": 0,
      "note": 69,
      "start": 65.0305,
      "duration": 0.3388,
      "velocity": 102,
      "chip": "ym2612"
    },
    {
      "channel": 1,
      "note": 50,
      "start": 65.031,
      "duration": 0.339,
      "velocity": 97,
      "chip": "ym2612"
    },
    {
      "channel": 3,
      "note": 77,
      "start": 65.033,
      "duration": 0.6768,
      "velocity": 100,
      "chip": "ym2612"
    },
    {
      "channel": 4,
      "note": 74,
      "start": 65.0336,
      "duration": 0.6771,
      "velocity": 100,
      "chip": "ym2612"
    },
    {
      "channel": 5,
      "note": 84,
      "start": 65.0343,
      "duration": 0.3371,
      "velocity": 100,
      "chip": "ym2612"
    },
    {
      "channel": 2,
      "note": 65,
      "start": 65.0351,
      "duration": 0.3371,
      "velocity": 102,
      "chip": "ym2612"
    },
    {
      "channel": 0,
      "note": 65,
      "start": 65.3699,
      "duration": 0.3388,
      "velocity": 102,
      "chip": "ym2612"
    },
    {
      "channel": 1,
      "note": 55,
      "start": 65.3706,
      "duration": 0.6793,
      "velocity": 97,
      "chip": "ym2612"
    },
    {
      "channel": 5,
      "note": 83,
      "start": 65.3721,
      "duration": 0.6796,
      "velocity": 100,
      "chip": "ym2612"
    },
    {
      "channel": 2,
      "note": 64,
      "start": 65.3729,
      "duration": 0.6793,
      "velocity": 102,
      "chip": "ym2612"
    },
    {
      "channel": 0,
      "note": 64,
      "start": 65.7094,
      "duration": 0.6783,
      "velocity": 102,
      "chip": "ym2612"
    },
    {
      "channel": 3,
      "note": 79,
      "start": 65.7105,
      "duration": 0.34,
      "velocity": 100,
      "chip": "ym2612"
    },
    {
      "channel": 4,
      "note": 74,
      "start": 65.7112,
      "duration": 0.3399,
      "velocity": 100,
      "chip": "ym2612"
    },
    {
      "channel": 1,
      "note": 55,
      "start": 66.0504,
      "duration": 0.3382,
      "velocity": 97,
      "chip": "ym2612"
    },
    {
      "channel": 3,
      "note": 79,
      "start": 66.0509,
      "duration": 0.6773,
      "velocity": 100,
      "chip": "ym2612"
    },
    {
      "channel": 4,
      "note": 74,
      "start": 66.0516,
      "duration": 0.6773,
      "velocity": 100,
      "chip": "ym2612"
    },
    {
      "channel": 5,
      "note": 83,
      "start": 66.0521,
      "duration": 0.3377,
      "velocity": 100,
      "chip": "ym2612"
    },
    {
      "channel": 2,
      "note": 62,
      "start": 66.053,
      "duration": 0.3376,
      "velocity": 102,
      "chip": "ym2612"
    },
    {
      "channel": 0,
      "note": 62,
      "start": 66.3883,
      "duration": 0.3388,
      "velocity": 102,
      "chip": "ym2612"
    },
    {
      "channel": 1,
      "note": 55,
      "start": 66.389,
      "duration": 0.6785,
      "velocity": 97,
      "chip": "ym2612"
    },
    {
      "channel": 5,
      "note": 83,
      "start": 66.3904,
      "duration": 0.3391,
      "velocity": 100,
      "chip": "ym2612"
    },
    {
      "channel": 2,
      "note": 62,
      "start": 66.3912,
      "duration": 0.339,
      "velocity": 102,
      "chip": "ym2612"
    },
    {
      "channel": 0,
      "note": 62,
      "start": 66.7278,
      "duration": 0.3388,
      "velocity": 102,
      "chip": "ym2612"
    },
    {
      "channel": 3,
      "note": 79,
      "start": 66.7287,
      "duration": 0.3393,
      "velocity": 100,
      "chip": "ym2612"
    },
    {
      "channel": 4,
      "note": 74,
      "start": 66.7294,
      "duration": 0.3394,
      "velocity": 100,
      "chip": "ym2612"
    },
    {
      "channel": 5,
      "note": 84,
      "start": 66.7301,
      "duration": 0.3393,
      "velocity": 100,
      "chip": "ym2612"
    },
    {
      "channel": 2,
      "note": 64,
      "start": 66.7309,
      "duration": 0.3393,
      "velocity": 102,
      "chip": "ym2612"
    },
    {
      "channel": 0,
      "note": 64,
      "start": 67.0673,
      "duration": 0.3387,
      "velocity": 102,
      "chip": "ym2612"
    },
    {
      "channel": 1,
      "note": 55,
      "start": 67.0679,
      "duration": 0.339,
      "velocity": 97,
      "chip": "ym2612"
    },
    {
      "channel": 3,
      "note": 77,
      "start": 67.0687,
      "duration": 0.6781,
      "velocity": 100,
      "chip": "ym2612"
    },
    {
      "channel": 4,
      "note": 74,
      "start": 67.0693,
      "duration": 0.6783,
      "velocity": 100,
      "chip": "ym2612"
    },
    {
      "channel": 5,
      "note": 86,
      "start": 67.07,
      "duration": 0.3383,
      "velocity": 100,
      "chip": "ym2612"
    },
    {
      "channel": 2,
      "note": 65,
      "start": 67.0708,
      "duration": 0.3383,
      "velocity": 102,
      "chip": "ym2612"
    },
    {
      "channel": 0,
      "note": 65,
      "start": 67.4068,
      "duration": 0.3389,
      "velocity": 102,
      "chip": "ym2612"
    },
    {
      "channel": 1,
      "note": 48,
      "start": 67.4075,
      "duration": 0.678,
      "velocity": 97,
      "chip": "ym2612"
    },
    {
      "channel": 5,
      "note": 88,
      "start": 67.409,
      "duration": 1.0173,
      "velocity": 100,
      "chip": "ym2612"
    },
    {
      "channel": 2,
      "note": 67,
      "start": 67.4098,
      "duration": 1.0172,
      "velocity": 102,
      "chip": "ym2612"
    },
    {
      "channel": 0,
      "note": 67,
      "start": 67.7463,
      "duration": 1.0178,
      "velocity": 102,
      "chip": "ym2612"
    },
    {
      "channel": 3,
      "note": 79,
      "start": 67.7474,
      "duration": 0.3387,
      "velocity": 100,
      "chip": "ym2612"
    },
    {
      "channel": 4,
      "note": 76,
      "start": 67.7482,
      "duration": 0.3385,
      "velocity": 100,
      "chip": "ym2612"
    },
    {
      "channel": 1,
      "note": 48,
      "start": 68.086,
      "duration": 0.339,
      "velocity": 97,
      "chip": "ym2612"
    },
    {
      "channel": 3,
      "note": 79,
      "start": 68.0866,
      "duration": 0.68,
      "velocity": 100,
      "chip": "ym2612"
    },
    {
      "channel": 4,
      "note": 76,
      "start": 68.0871,
      "duration": 0.68,
      "velocity": 100,
      "chip": "ym2612"
    },
    {
      "channel": 1,
      "note": 48,
      "start": 68.4254,
      "duration": 0.6788,
      "velocity": 97,
      "chip": "ym2612"
    },
    {
      "channel": 5,
      "note": 83,
      "start": 68.4269,
      "duration": 0.3408,
      "velocity": 100,
      "chip": "ym2612"
    },
    {
      "channel": 2,
      "note": 64,
      "start": 68.4277,
      "duration": 0.3408,
      "velocity": 102,
      "chip": "ym2612"
    },
    {
      "channel": 0,
      "note": 64,
      "start": 68.7647,
      "duration": 0.3388,
      "velocity": 102,
      "chip": "ym2612"
    },
    {
      "channel": 3,
      "note": 79,
      "start": 68.767,
      "duration": 0.3378,
      "velocity": 100,
      "chip": "ym2612"
    },
    {
      "channel": 4,
      "note": 76,
      "start": 68.7676,
      "duration": 0.3378,
      "velocity": 100,
      "chip": "ym2612"
    },
    {
      "channel": 5,
      "note": 88,
      "start": 68.7684,
      "duration": 0.3377,
      "velocity": 100,
      "chip": "ym2612"
    },
    {
      "channel": 2,
      "note": 67,
      "start": 68.7691,
      "duration": 0.3377,
      "velocity": 102,
      "chip": "ym2612"
    },
    {
      "channel": 0,
      "note": 67,
      "start": 69.1041,
      "duration": 0.3389,
      "velocity": 102,
      "chip": "ym2612"
    },
    {
      "channel": 1,
      "note": 48,
      "start": 69.1047,
      "duration": 0.339,
      "velocity": 97,
      "chip": "ym2612"
    },
    {
      "channel": 3,
      "note": 79,
      "start": 69.1053,
      "duration": 0.6793,
      "velocity": 100,
      "chip": "ym2612"
    },
    {
      "channel": 4,
      "note": 76,
      "start": 69.1059,
      "duration": 0.6795,
      "velocity": 100,
      "chip": "ym2612"
    },
    {
      "channel": 5,
      "note": 83,
      "start": 69.1067,
      "duration": 0.3385,
      "velocity": 100,
      "chip": "ym2612"
    },
    {
      "channel": 2,
      "note": 64,
      "start": 69.1074,
      "duration": 0.3385,
      "velocity": 102,
      "chip": "ym2612"
    },
    {
      "channel": 0,
      "note": 64,
      "start": 69.4436,
      "duration": 0.3398,
      "velocity": 102,
      "chip": "ym2612"
    },
    {
      "channel": 1,
      "note": 45,
      "start": 69.4443,
      "duration": 0.678,
      "velocity": 97,
      "chip": "ym2612"
    },
    {
      "channel": 5,
      "note": 88,
      "start": 69.4459,
      "duration": 0.6782,
      "velocity": 100,
      "chip": "ym2612"
    },
    {
      "channel": 2,
      "note": 71,
      "start": 69.4467,
      "duration": 0.678,
      "velocity": 102,
      "chip": "ym2612"
    },
    {
      "channel": 0,
      "note": 71,
      "start": 69.7841,
      "duration": 0.6773,
      "velocity": 102,
      "chip": "ym2612"
    },
    {
      "channel": 3,
      "note": 81,
      "start": 69.7852,
      "duration": 0.3377,
      "velocity": 100,
      "chip": "ym2612"
    },
    {
      "channel": 4,
      "note": 76,
      "start": 69.786,
      "duration": 0.3375,
      "velocity": 100,
      "chip": "ym2612"
    },
    {
      "channel": 1,
      "note": 45,
      "start": 70.1227,
      "duration": 0.3395,
      "velocity": 97,
      "chip": "ym2612"
    },
    {
      "channel": 3,
      "note": 81,
      "start": 70.1234,
      "duration": 0.6787,
      "velocity": 100,
      "chip": "ym2612"
    },
    {
      "channel": 4,
      "note": 76,
      "start": 70.124,
      "duration": 0.6787,
      "velocity": 100,
      "chip": "ym2612"
    },
    {
      "channel": 5,
      "note": 88,
      "start": 70.1245,
      "duration": 0.339,
      "velocity": 100,
      "chip": "ym2612"
    },
    {
      "channel": 2,
      "note": 69,
      "start": 70.1254,
      "duration": 0.3388,
      "velocity": 102,
      "chip": "ym2612"
    },
    {
      "channel": 0,
      "note": 69,
      "start": 70.4621,
      "duration": 0.3388,
      "velocity": 102,
      "chip": "ym2612"
    },
    {
      "channel": 1,
      "note": 45,
      "start": 70.4626,
      "duration": 0.6785,
      "velocity": 97,
      "chip": "ym2612"
    },
    {
      "channel": 5,
      "note": 88,
      "start": 70.464,
      "duration": 0.3393,
      "velocity": 100,
      "chip": "ym2612"
    },
    {
      "channel": 2,
      "note": 69,
      "start": 70.4648,
      "duration": 0.339,
      "velocity": 102,
      "chip": "ym2612"
    },
    {
      "channel": 0,
      "note": 69,
      "start": 70.8016,
      "duration": 0.3388,
      "velocity": 102,
      "chip": "ym2612"
    },
    {
      "channel": 3,
      "note": 81,
      "start": 70.8025,
      "duration": 0.3392,
      "velocity": 100,
      "chip": "ym2612"
    },
    {
      "channel": 4,
      "note": 76,
      "start": 70.8031,
      "duration": 0.3392,
      "velocity": 100,
      "chip": "ym2612"
    },
    {
      "channel": 5,
      "note": 88,
      "start": 70.8037,
      "duration": 0.3392,
      "velocity": 100,
      "chip": "ym2612"
    },
    {
      "channel": 2,
      "note": 68,
      "start": 70.8045,
      "duration": 0.339,
      "velocity": 102,
      "chip": "ym2612"
    },
    {
      "channel": 0,
      "note": 68,
      "start": 71.141,
      "duration": 0.3389,
      "velocity": 102,
      "chip": "ym2612"
    },
    {
      "channel": 1,
      "note": 45,
      "start": 71.1415,
      "duration": 0.3391,
      "velocity": 97,
      "chip": "ym2612"
    },
    {
      "channel": 3,
      "note": 81,
      "start": 71.1422,
      "duration": 0.6783,
      "velocity": 100,
      "chip": "ym2612"
    },
    {
      "channel": 4,
      "note": 76,
      "start": 71.1427,
      "duration": 0.6783,
      "velocity": 100,
      "chip": "ym2612"
    },
    {
      "channel": 5,
      "note": 88,
      "start": 71.1433,
      "duration": 0.3401,
      "velocity": 100,
      "chip": "ym2612"
    },
    {
      "channel": 2,
      "note": 69,
      "start": 71.1441,
      "duration": 0.34,
      "velocity": 102,
      "chip": "ym2612"
    },
    {
      "channel": 0,
      "note": 69,
      "start": 71.4805,
      "duration": 0.3387,
      "velocity": 102,
      "chip": "ym2612"
    },
    {
      "channel": 1,
      "note": 50,
      "start": 71.4812,
      "duration": 0.6781,
      "velocity": 97,
      "chip": "ym2612"
    },
    {
      "channel": 5,
      "note": 89,
      "start": 71.484,
      "duration": 1.0177,
      "velocity": 100,
      "chip": "ym2612"
    },
    {
      "channel": 2,
      "note": 72,
      "start": 71.4848,
      "duration": 0.6766,
      "velocity": 102,
      "chip": "ym2612"
    },
    {
      "channel": 0,
      "note": 72,
      "start": 71.82,
      "duration": 0.6796,
      "velocity": 102,
      "chip": "ym2612"
    },
    {
      "channel": 3,
      "note": 81,
      "start": 71.8209,
      "duration": 0.339,
      "velocity": 100,
      "chip": "ym2612"
    },
    {
      "channel": 4,
      "note": 77,
      "start": 71.8217,
      "duration": 0.3388,
      "velocity": 100,
      "chip": "ym2612"
    },
    {
      "channel": 1,
      "note": 50,
      "start": 72.1598,
      "duration": 0.3407,
      "velocity": 97,
      "chip": "ym2612"
    },
    {
      "channel": 3,
      "note": 81,
      "start": 72.1603,
      "duration": 0.6786,
      "velocity": 100,
      "chip": "ym2612"
    },
    {
      "channel": 4,
      "note": 77,
      "start": 72.1609,
      "duration": 0.6785,
      "velocity": 100,
      "chip": "ym2612"
    },
    {
      "channel": 2,
      "note": 65,
      "start": 72.1621,
      "duration": 0.3402,
      "velocity": 102,
      "chip": "ym2612"
    },
    {
      "channel": 0,
      "note": 65,
      "start": 72.5003,
      "duration": 0.3375,
      "velocity": 102,
      "chip": "ym2612"
    },
    {
      "channel": 1,
      "note": 50,
      "start": 72.5009,
      "duration": 0.6768,
      "velocity": 97,
      "chip": "ym2612"
    },
    {
      "channel": 5,
      "note": 89,
      "start": 72.5021,
      "duration": 1.0165,
      "velocity": 100,
      "chip": "ym2612"
    },
    {
      "channel": 2,
      "note": 72,
      "start": 72.503,
      "duration": 1.0164,
      "velocity": 102,
      "chip": "ym2612"
    },
    {
      "channel": 0,
      "note": 72,
      "start": 72.8384,
      "duration": 1.0178,
      "velocity": 102,
      "chip": "ym2612"
    },
    {
      "channel": 3,
      "note": 81,
      "start": 72.8394,
      "duration": 0.3389,
      "velocity": 100,
      "chip": "ym2612"
    },
    {
      "channel": 4,
      "note": 77,
      "start": 72.8399,
      "duration": 0.3389,
      "velocity": 100,
      "chip": "ym2612"
    },
    {
      "channel": 1,
      "note": 50,
      "start": 73.1781,
      "duration": 0.339,
      "velocity": 97,
      "chip": "ym2612"
    },
    {
      "channel": 3,
      "note": 81,
      "start": 73.1787,
      "duration": 0.6785,
      "velocity": 100,
      "chip": "ym2612"
    },
    {
      "channel": 4,
      "note": 77,
      "start": 73.1793,
      "duration": 0.6784,
      "velocity": 100,
      "chip": "ym2612"
    },
    {
      "channel": 1,
      "note": 51,
      "start": 73.5178,
      "duration": 0.6784,
      "velocity": 97,
      "chip": "ym2612"
    },
    {
      "channel": 5,
      "note": 90,
      "start": 73.5193,
      "duration": 1.0176,
      "velocity": 100,
      "chip": "ym2612"
    },
    {
      "channel": 2,
      "note": 72,
      "start": 73.5199,
      "duration": 1.0176,
      "velocity": 102,
      "chip": "ym2612"
    },
    {
      "channel": 0,
      "note": 72,
      "start": 73.8567,
      "duration": 1.0179,
      "velocity": 102,
      "chip": "ym2612"
    },
    {
      "channel": 3,
      "note": 81,
      "start": 73.8576,
      "duration": 0.3391,
      "velocity": 100,
      "chip": "ym2612"
    },
    {
      "channel": 4,
      "note": 78,
      "start": 73.8584,
      "duration": 0.3389,
      "velocity": 100,
      "chip": "ym2612"
    },
    {
      "channel": 1,
      "note": 51,
      "start": 74.1966,
      "duration": 0.3389,
      "velocity": 97,
      "chip": "ym2612"
    },
    {
      "channel": 3,
      "note": 81,
      "start": 74.1972,
      "duration": 0.6784,
      "velocity": 100,
      "chip": "ym2612"
    },
    {
      "channel": 4,
      "note": 78,
      "start": 74.1978,
      "duration": 0.6784,
      "velocity": 100,
      "chip": "ym2612"
    },
    {
      "channel": 1,
      "note": 51,
      "start": 74.536,
      "duration": 0.6787,
      "velocity": 97,
      "chip": "ym2612"
    },
    {
      "channel": 5,
      "note": 90,
      "start": 74.5373,
      "duration": 0.3395,
      "velocity": 100,
      "chip": "ym2612"
    },
    {
      "channel": 2,
      "note": 72,
      "start": 74.538,
      "duration": 0.3394,
      "velocity": 102,
      "chip": "ym2612"
    },
    {
      "channel": 0,
      "note": 72,
      "start": 74.875,
      "duration": 0.339,
      "velocity": 102,
      "chip": "ym2612"
    },
    {
      "channel": 3,
      "note": 81,
      "start": 74.876,
      "duration": 0.3406,
      "velocity": 100,
      "chip": "ym2612"
    },
    {
      "channel": 4,
      "note": 78,
      "start": 74.8766,
      "duration": 0.3406,
      "velocity": 100,
      "chip": "ym2612"
    },
    {
      "channel": 5,
      "note": 90,
      "start": 74.8772,
      "duration": 0.3406,
      "velocity": 100,
      "chip": "ym2612"
    },
    {
      "channel": 2,
      "note": 72,
      "start": 74.8778,
      "duration": 0.3405,
      "velocity": 102,
      "chip": "ym2612"
    },
    {
      "channel": 0,
      "note": 72,
      "start": 75.2145,
      "duration": 0.339,
      "velocity": 102,
      "chip": "ym2612"
    },
    {
      "channel": 1,
      "note": 51,
      "start": 75.2165,
      "duration": 0.3379,
      "velocity": 97,
      "chip": "ym2612"
    },
    {
      "channel": 3,
      "note": 81,
      "start": 75.217,
      "duration": 0.338,
      "velocity": 100,
      "chip": "ym2612"
    },
    {
      "channel": 4,
      "note": 78,
      "start": 75.2177,
      "duration": 0.3382,
      "velocity": 100,
      "chip": "ym2612"
    },
    {
      "channel": 5,
      "note": 90,
      "start": 75.2182,
      "duration": 0.3414,
      "velocity": 97,
      "chip": "ym2612"
    },
    {
      "channel": 2,
      "note": 74,
      "start": 75.2191,
      "duration": 0.3413,
      "velocity": 102,
      "chip": "ym2612"
    },
    {
      "channel": 0,
      "note": 74,
      "start": 75.5542,
      "duration": 0.3388,
      "velocity": 102,
      "chip": "ym2612"
    },
    {
      "channel": 1,
      "note": 52,
      "start": 75.5549,
      "duration": 0.3389,
      "velocity": 97,
      "chip": "ym2612"
    },
    {
      "channel": 3,
      "note": 76,
      "start": 75.5557,
      "duration": 0.3389,
      "velocity": 100,
      "chip": "ym2612"
    },
    {
      "channel": 4,
      "note": 80,
      "start": 75.5565,
      "duration": 0.3389,
      "velocity": 100,
      "chip": "ym2612"
    },
    {
      "channel": 5,
      "note": 40,
      "start": 75.5602,
      "duration": 4.2102,
      "velocity": 100,
      "chip": "ym2612"
    },
    {
      "channel": 2,
      "note": 71,
      "start": 75.561,
      "duration": 2.0314,
      "velocity": 102,
      "chip": "ym2612"
    },
    {
      "channel": 0,
      "note": 71,
      "start": 75.8937,
      "duration": 2.0362,
      "velocity": 102,
      "chip": "ym2612"
    },
    {
      "channel": 1,
      "note": 56,
      "start": 75.8944,
      "duration": 0.3393,
      "velocity": 97,
      "chip": "ym2612"
    },
    {
      "channel": 3,
      "note": 80,
      "start": 75.8951,
      "duration": 0.3394,
      "velocity": 100,
      "chip": "ym2612"
    },
    {
      "channel": 4,
      "note": 83,
      "start": 75.8959,
      "duration": 0.3394,
      "velocity": 100,
      "chip": "ym2612"
    },
    {
      "channel": 1,
      "note": 52,
      "start": 76.2343,
      "duration": 0.3382,
      "velocity": 97,
      "chip": "ym2612"
    },
    {
      "channel": 3,
      "note": 76,
      "start": 76.2351,
      "duration": 0.3382,
      "velocity": 100,
      "chip": "ym2612"
    },
    {
      "channel": 4,
      "note": 80,
      "start": 76.2359,
      "duration": 0.3382,
      "velocity": 100,
      "chip": "ym2612"
    },
    {
      "channel": 1,
      "note": 59,
      "start": 76.5731,
      "duration": 0.3389,
      "velocity": 97,
      "chip": "ym2612"
    },
    {
      "channel": 3,
      "note": 83,
      "start": 76.5738,
      "duration": 0.3388,
      "velocity": 100,
      "chip": "ym2612"
    },
    {
      "channel": 4,
      "note": 76,
      "start": 76.5746,
      "duration": 0.3388,
      "velocity": 100,
      "chip": "ym2612"
    },
    {
      "channel": 1,
      "note": 56,
      "start": 76.9125,
      "duration": 0.3389,
      "velocity": 97,
      "chip": "ym2612"
    },
    {
      "channel": 3,
      "note": 80,
      "start": 76.9132,
      "duration": 0.3389,
      "velocity": 100,
      "chip": "ym2612"
    },
    {
      "channel": 4,
      "note": 71,
      "start": 76.914,
      "duration": 0.3389,
      "velocity": 100,
      "chip": "ym2612"
    },
    {
      "channel": 1,
      "note": 52,
      "start": 77.252,
      "duration": 0.6788,
      "velocity": 97,
      "chip": "ym2612"
    },
    {
      "channel": 3,
      "note": 76,
      "start": 77.2527,
      "duration": 0.6787,
      "velocity": 100,
      "chip": "ym2612"
    },
    {
      "channel": 4,
      "note": 68,
      "start": 77.2534,
      "duration": 0.6801,
      "velocity": 100,
      "chip": "ym2612"
    },
    {
      "channel": 2,
      "note": 59,
      "start": 77.5931,
      "duration": 0.3417,
      "velocity": 102,
      "chip": "ym2612"
    },
    {
      "channel": 0,
      "note": 59,
      "start": 77.9306,
      "duration": 0.3528,
      "velocity": 102,
      "chip": "ym2612"
    },
    {
      "channel": 1,
      "note": 56,
      "start": 77.9313,
      "duration": 0.3529,
      "velocity": 97,
      "chip": "ym2612"
    },
    {
      "channel": 3,
      "note": 80,
      "start": 77.9334,
      "duration": 0.3515,
      "velocity": 100,
      "chip": "ym2612"
    },
    {
      "channel": 4,
      "note": 71,
      "start": 77.9342,
      "duration": 0.3515,
      "velocity": 100,
      "chip": "ym2612"
    },
    {
      "channel": 2,
      "note": 64,
      "start": 77.9354,
      "duration": 0.3513,
      "velocity": 102,
      "chip": "ym2612"
    },
    {
      "channel": 0,
      "note": 64,
      "start": 78.284,
      "duration": 0.366,
      "velocity": 102,
      "chip": "ym2612"
    },
    {
      "channel": 1,
      "note": 59,
      "start": 78.2848,
      "duration": 0.366,
      "velocity": 97,
      "chip": "ym2612"
    },
    {
      "channel": 3,
      "note": 83,
      "start": 78.2855,
      "duration": 0.366,
      "velocity": 100,
      "chip": "ym2612"
    },
    {
      "channel": 4,
      "note": 76,
      "start": 78.2862,
      "duration": 0.366,
      "velocity": 100,
      "chip": "ym2612"
    },
    {
      "channel": 2,
      "note": 68,
      "start": 78.2874,
      "duration": 0.3659,
      "velocity": 102,
      "chip": "ym2612"
    },
    {
      "channel": 0,
      "note": 68,
      "start": 78.6506,
      "duration": 0.3675,
      "velocity": 102,
      "chip": "ym2612"
    },
    {
      "channel": 1,
      "note": 52,
      "start": 78.6514,
      "duration": 1.1065,
      "velocity": 105,
      "chip": "ym2612"
    },
    {
      "channel": 3,
      "note": 76,
      "start": 78.6521,
      "duration": 1.1095,
      "velocity": 100,
      "chip": "ym2612"
    },
    {
      "channel": 4,
      "note": 80,
      "start": 78.6529,
      "duration": 1.1136,
      "velocity": 100,
      "chip": "ym2612"
    },
    {
      "channel": 2,
      "note": 71,
      "start": 78.6541,
      "duration": 1.1193,
      "velocity": 95,
      "chip": "ym2612"
    },
    {
      "channel": 0,
      "note": 71,
      "start": 79.0188,
      "duration": 1.0938,
      "velocity": 95,
      "chip": "ym2612"
    },
    {
      "channel": 1,
      "note": 60,
      "start": 79.7586,
      "duration": 0.3548,
      "velocity": 105,
      "chip": "ym2612"
    },
    {
      "channel": 3,
      "note": 96,
      "start": 79.7622,
      "duration": 0.352,
      "velocity": 100,
      "chip": "ym2612"
    },
    {
      "channel": 4,
      "note": 81,
      "start": 79.767,
      "duration": 0.3494,
      "velocity": 100,
      "chip": "ym2612"
    },
    {
      "channel": 2,
      "note": 62,
      "start": 79.774,
      "duration": 0.344,
      "velocity": 95,
      "chip": "ym2612"
    },
    {
      "channel": 0,
      "note": 62,
      "start": 80.1133,
      "duration": 0.3373,
      "velocity": 95,
      "chip": "ym2612"
    },
    {
      "channel": 1,
      "note": 62,
      "start": 80.1142,
      "duration": 0.3373,
      "velocity": 105,
      "chip": "ym2612"
    },
    {
      "channel": 3,
      "note": 98,
      "start": 80.1163,
      "duration": 0.3361,
      "velocity": 100,
      "chip": "ym2612"
    },
    {
      "channel": 4,
      "note": 83,
      "start": 80.117,
      "duration": 0.3361,
      "velocity": 100,
      "chip": "ym2612"
    },
    {
      "channel": 5,
      "note": 96,
      "start": 80.1179,
      "duration": 0.3359,
      "velocity": 100,
      "chip": "ym2612"
    },
    {
      "channel": 2,
      "note": 69,
      "start": 80.1188,
      "duration": 0.3359,
      "velocity": 95,
      "chip": "ym2612"
    },
    {
      "channel": 0,
      "note": 69,
      "start": 80.4513,
      "duration": 0.3388,
      "velocity": 95,
      "chip": "ym2612"
    },
    {
      "channel": 1,
      "note": 57,
      "start": 80.4522,
      "duration": 0.3388,
      "velocity": 105,
      "chip": "ym2612"
    },
    {
      "channel": 3,
      "note": 93,
      "start": 80.453,
      "duration": 0.3389,
      "velocity": 100,
      "chip": "ym2612"
    },
    {
      "channel": 4,
      "note": 77,
      "start": 80.4537,
      "duration": 0.339,
      "velocity": 100,
      "chip": "ym2612"
    },
    {
      "channel": 5,
      "note": 98,
      "start": 80.4545,
      "duration": 0.339,
      "velocity": 100,
      "chip": "ym2612"
    },
    {
      "channel": 2,
      "note": 71,
      "start": 80.4553,
      "duration": 0.3389,
      "velocity": 95,
      "chip": "ym2612"
    },
    {
      "channel": 0,
      "note": 71,
      "start": 80.7908,
      "duration": 0.3388,
      "velocity": 95,
      "chip": "ym2612"
    },
    {
      "channel": 1,
      "note": 60,
      "start": 80.7917,
      "duration": 0.3387,
      "velocity": 105,
      "chip": "ym2612"
    },
    {
      "channel": 3,
      "note": 96,
      "start": 80.7925,
      "duration": 0.3388,
      "velocity": 100,
      "chip": "ym2612"
    },
    {
      "channel": 4,
      "note": 81,
      "start": 80.7933,
      "duration": 0.3402,
      "velocity": 100,
      "chip": "ym2612"
    },
    {
      "channel": 5,
      "note": 93,
      "start": 80.7941,
      "duration": 0.3401,
      "velocity": 100,
      "chip": "ym2612"
    },
    {
      "channel": 2,
      "note": 72,
      "start": 80.7949,
      "duration": 0.3401,
      "velocity": 95,
      "chip": "ym2612"
    },
    {
      "channel": 0,
      "note": 72,
      "start": 81.1302,
      "duration": 0.3389,
      "velocity": 95,
      "chip": "ym2612"
    },
    {
      "channel": 1,
      "note": 62,
      "start": 81.1312,
      "duration": 0.3388,
      "velocity": 105,
      "chip": "ym2612"
    },
    {
      "channel": 3,
      "note": 98,
      "start": 81.1333,
      "duration": 0.3375,
      "velocity": 100,
      "chip": "ym2612"
    },
    {
      "channel": 4,
      "note": 83,
      "start": 81.1341,
      "duration": 0.3375,
      "velocity": 100,
      "chip": "ym2612"
    },
    {
      "channel": 5,
      "note": 96,
      "start": 81.1348,
      "duration": 0.3376,
      "velocity": 100,
      "chip": "ym2612"
    },
    {
      "channel": 2,
      "note": 71,
      "start": 81.1357,
      "duration": 0.3375,
      "velocity": 95,
      "chip": "ym2612"
    },
    {
      "channel": 0,
      "note": 71,
      "start": 81.4698,
      "duration": 0.3388,
      "velocity": 95,
      "chip": "ym2612"
    },
    {
      "channel": 1,
      "note": 57,
      "start": 81.4707,
      "duration": 0.3387,
      "velocity": 105,
      "chip": "ym2612"
    },
    {
      "channel": 3,
      "note": 93,
      "start": 81.4715,
      "duration": 0.3388,
      "velocity": 100,
      "chip": "ym2612"
    },
    {
      "channel": 4,
      "note": 77,
      "start": 81.4722,
      "duration": 0.339,
      "velocity": 100,
      "chip": "ym2612"
    },
    {
      "channel": 5,
      "note": 98,
      "start": 81.4729,
      "duration": 0.339,
      "velocity": 100,
      "chip": "ym2612"
    },
    {
      "channel": 2,
      "note": 69,
      "start": 81.4738,
      "duration": 0.3389,
      "velocity": 95,
      "chip": "ym2612"
    },
    {
      "channel": 0,
      "note": 69,
      "start": 81.8093,
      "duration": 0.3387,
      "velocity": 95,
      "chip": "ym2612"
    },
    {
      "channel": 1,
      "note": 60,
      "start": 81.8102,
      "duration": 0.34,
      "velocity": 105,
      "chip": "ym2612"
    },
    {
      "channel": 3,
      "note": 96,
      "start": 81.8109,
      "duration": 0.3401,
      "velocity": 100,
      "chip": "ym2612"
    },
    {
      "channel": 4,
      "note": 81,
      "start": 81.8117,
      "duration": 0.3401,
      "velocity": 100,
      "chip": "ym2612"
    },
    {
      "channel": 5,
      "note": 93,
      "start": 81.8125,
      "duration": 0.3401,
      "velocity": 100,
      "chip": "ym2612"
    },
    {
      "channel": 2,
      "note": 62,
      "start": 81.8133,
      "duration": 0.34,
      "velocity": 95,
      "chip": "ym2612"
    },
    {
      "channel": 0,
      "note": 62,
      "start": 82.15,
      "duration": 0.3376,
      "velocity": 95,
      "chip": "ym2612"
    },
    {
      "channel": 1,
      "note": 62,
      "start": 82.1509,
      "duration": 0.3375,
      "velocity": 105,
      "chip": "ym2612"
    },
    {
      "channel": 3,
      "note": 98,
      "start": 82.1517,
      "duration": 0.3377,
      "velocity": 100,
      "chip": "ym2612"
    },
    {
      "channel": 4,
      "note": 83,
      "start": 82.1524,
      "duration": 0.3377,
      "velocity": 100,
      "chip": "ym2612"
    },
    {
      "channel": 5,
      "note": 96,
      "start": 82.1532,
      "duration": 0.3376,
      "velocity": 100,
      "chip": "ym2612"
    },
    {
      "channel": 2,
      "note": 69,
      "start": 82.1541,
      "duration": 0.3375,
      "velocity": 95,
      "chip": "ym2612"
    },
    {
      "channel": 0,
      "note": 69,
      "start": 82.4883,
      "duration": 0.3387,
      "velocity": 95,
      "chip": "ym2612"
    },
    {
      "channel": 1,
      "note": 57,
      "start": 82.4892,
      "duration": 0.3387,
      "velocity": 105,
      "chip": "ym2612"
    },
    {
      "channel": 3,
      "note": 93,
      "start": 82.4899,
      "duration": 0.3388,
      "velocity": 100,
      "chip": "ym2612"
    },
    {
      "channel": 4,
      "note": 77,
      "start": 82.4907,
      "duration": 0.3389,
      "velocity": 100,
      "chip": "ym2612"
    },
    {
      "channel": 5,
      "note": 98,
      "start": 82.4915,
      "duration": 0.3389,
      "velocity": 100,
      "chip": "ym2612"
    },
    {
      "channel": 2,
      "note": 71,
      "start": 82.4923,
      "duration": 0.3389,
      "velocity": 95,
      "chip": "ym2612"
    },
    {
      "channel": 0,
      "note": 71,
      "start": 82.8277,
      "duration": 0.3389,
      "velocity": 95,
      "chip": "ym2612"
    },
    {
      "channel": 1,
      "note": 60,
      "start": 82.8286,
      "duration": 0.3389,
      "velocity": 105,
      "chip": "ym2612"
    },
    {
      "channel": 3,
      "note": 96,
      "start": 82.8294,
      "duration": 0.339,
      "velocity": 100,
      "chip": "ym2612"
    },
    {
      "channel": 4,
      "note": 81,
      "start": 82.8302,
      "duration": 0.3389,
      "velocity": 100,
      "chip": "ym2612"
    },
    {
      "channel": 5,
      "note": 93,
      "start": 82.831,
      "duration": 0.3389,
      "velocity": 100,
      "chip": "ym2612"
    },
    {
      "channel": 2,
      "note": 72,
      "start": 82.8331,
      "duration": 0.3375,
      "velocity": 95,
      "chip": "ym2612"
    },
    {
      "channel": 0,
      "note": 72,
      "start": 83.1673,
      "duration": 0.3385,
      "velocity": 95,
      "chip": "ym2612"
    },
    {
      "channel": 1,
      "note": 62,
      "start": 83.1682,
      "duration": 0.3385,
      "velocity": 105,
      "chip": "ym2612"
    },
    {
      "channel": 3,
      "note": 98,
      "start": 83.169,
      "duration": 0.3386,
      "velocity": 100,
      "chip": "ym2612"
    },
    {
      "channel": 4,
      "note": 83,
      "start": 83.1698,
      "duration": 0.3386,
      "velocity": 100,
      "chip": "ym2612"
    },
    {
      "channel": 5,
      "note": 96,
      "start": 83.1705,
      "duration": 0.3386,
      "velocity": 100,
      "chip": "ym2612"
    },
    {
      "channel": 2,
      "note": 71,
      "start": 83.1714,
      "duration": 0.3385,
      "velocity": 95,
      "chip": "ym2612"
    },
    {
      "channel": 0,
      "note": 71,
      "start": 83.5066,
      "duration": 0.3388,
      "velocity": 95,
      "chip": "ym2612"
    },
    {
      "channel": 1,
      "note": 57,
      "start": 83.5075,
      "duration": 0.3388,
      "velocity": 105,
      "chip": "ym2612"
    },
    {
      "channel": 3,
      "note": 93,
      "start": 83.5083,
      "duration": 0.3389,
      "velocity": 100,
      "chip": "ym2612"
    },
    {
      "channel": 4,
      "note": 77,
      "start": 83.509,
      "duration": 0.339,
      "velocity": 100,
      "chip": "ym2612"
    },
    {
      "channel": 5,
      "note": 98,
      "start": 83.5098,
      "duration": 0.3403,
      "velocity": 100,
      "chip": "ym2612"
    },
    {
      "channel": 2,
      "note": 69,
      "start": 83.5106,
      "duration": 0.3402,
      "velocity": 95,
      "chip": "ym2612"
    },
    {
      "channel": 0,
      "note": 69,
      "start": 83.8461,
      "duration": 0.3389,
      "velocity": 95,
      "chip": "ym2612"
    },
    {
      "channel": 1,
      "note": 59,
      "start": 83.847,
      "duration": 0.6782,
      "velocity": 105,
      "chip": "ym2612"
    },
    {
      "channel": 3,
      "note": 95,
      "start": 83.8478,
      "duration": 0.6783,
      "velocity": 100,
      "chip": "ym2612"
    },
    {
      "channel": 4,
      "note": 79,
      "start": 83.85,
      "duration": 0.6768,
      "velocity": 100,
      "chip": "ym2612"
    },
    {
      "channel": 5,
      "note": 93,
      "start": 83.8507,
      "duration": 0.3362,
      "velocity": 100,
      "chip": "ym2612"
    },
    {
      "channel": 2,
      "note": 60,
      "start": 83.8516,
      "duration": 0.3361,
      "velocity": 95,
      "chip": "ym2612"
    },
    {
      "channel": 0,
      "note": 60,
      "start": 84.1856,
      "duration": 0.3387,
      "velocity": 95,
      "chip": "ym2612"
    },
    {
      "channel": 5,
      "note": 95,
      "start": 84.1876,
      "duration": 0.6809,
      "velocity": 100,
      "chip": "ym2612"
    },
    {
      "channel": 2,
      "note": 67,
      "start": 84.1883,
      "duration": 0.3396,
      "velocity": 95,
      "chip": "ym2612"
    },
    {
      "channel": 0,
      "note": 67,
      "start": 84.525,
      "duration": 0.3388,
      "velocity": 95,
      "chip": "ym2612"
    },
    {
      "channel": 1,
      "note": 55,
      "start": 84.5259,
      "duration": 0.3387,
      "velocity": 105,
      "chip": "ym2612"
    },
    {
      "channel": 3,
      "note": 91,
      "start": 84.5267,
      "duration": 0.3402,
      "velocity": 100,
      "chip": "ym2612"
    },
    {
      "channel": 4,
      "note": 76,
      "start": 84.5275,
      "duration": 0.3403,
      "velocity": 100,
      "chip": "ym2612"
    },
    {
      "channel": 2,
      "note": 69,
      "start": 84.5286,
      "duration": 0.3407,
      "velocity": 95,
      "chip": "ym2612"
    },
    {
      "channel": 0,
      "note": 69,
      "start": 84.8645,
      "duration": 0.3388,
      "velocity": 95,
      "chip": "ym2612"
    },
    {
      "channel": 1,
      "note": 52,
      "start": 84.8668,
      "duration": 2.7137,
      "velocity": 105,
      "chip": "ym2612"
    },
    {
      "channel": 3,
      "note": 88,
      "start": 84.8675,
      "duration": 1.3555,
      "velocity": 100,
      "chip": "ym2612"
    },
    {
      "channel": 4,
      "note": 103,
      "start": 84.8683,
      "duration": 0.1666,
      "velocity": 100,
      "chip": "ym2612"
    },
    {
      "channel": 5,
      "note": 91,
      "start": 84.8691,
      "duration": 0.3366,
      "velocity": 100,
      "chip": "ym2612"
    },
    {
      "channel": 2,
      "note": 71,
      "start": 84.8699,
      "duration": 0.3366,
      "velocity": 95,
      "chip": "ym2612"
    },
    {
      "channel": 4,
      "note": 105,
      "start": 85.0355,
      "duration": 0.1694,
      "velocity": 100,
      "chip": "ym2612"
    },
    {
      "channel": 0,
      "note": 71,
      "start": 85.204,
      "duration": 0.3389,
      "velocity": 95,
      "chip": "ym2612"
    },
    {
      "channel": 4,
      "note": 115,
      "start": 85.2056,
      "duration": 0.3389,
      "velocity": 100,
      "chip": "ym2612"
    },
    {
      "channel": 5,
      "note": 88,
      "start": 85.2063,
      "duration": 1.3577,
      "velocity": 100,
      "chip": "ym2612"
    },
    {
      "channel": 2,
      "note": 69,
      "start": 85.2072,
      "duration": 0.3384,
      "velocity": 95,
      "chip": "ym2612"
    },
    {
      "channel": 0,
      "note": 69,
      "start": 85.5436,
      "duration": 0.3401,
      "velocity": 95,
      "chip": "ym2612"
    },
    {
      "channel": 4,
      "note": 112,
      "start": 85.5451,
      "duration": 0.3401,
      "velocity": 100,
      "chip": "ym2612"
    },
    {
      "channel": 2,
      "note": 67,
      "start": 85.5463,
      "duration": 0.3402,
      "velocity": 95,
      "chip": "ym2612"
    },
    {
      "channel": 0,
      "note": 67,
      "start": 85.8843,
      "duration": 0.3374,
      "velocity": 95,
      "chip": "ym2612"
    },
    {
      "channel": 4,
      "note": 107,
      "start": 85.8859,
      "duration": 0.3378,
      "velocity": 100,
      "chip": "ym2612"
    },
    {
      "channel": 2,
      "note": 60,
      "start": 85.8871,
      "duration": 0.3378,
      "velocity": 95,
      "chip": "ym2612"
    },
    {
      "channel": 0,
      "note": 60,
      "start": 86.2224,
      "duration": 0.3388,
      "velocity": 95,
      "chip": "ym2612"
    },
    {
      "channel": 3,
      "note": 95,
      "start": 86.2237,
      "duration": 0.3389,
      "velocity": 100,
      "chip": "ym2612"
    },
    {
      "channel": 4,
      "note": 103,
      "start": 86.2244,
      "duration": 0.3389,
      "velocity": 100,
      "chip": "ym2612"
    },
    {
      "channel": 2,
      "note": 67,
      "start": 86.2256,
      "duration": 0.3393,
      "velocity": 95,
      "chip": "ym2612"
    },
    {
      "channel": 0,
      "note": 67,
      "start": 86.5619,
      "duration": 0.3389,
      "velocity": 95,
      "chip": "ym2612"
    },
    {
      "channel": 3,
      "note": 103,
      "start": 86.5631,
      "duration": 0.339,
      "velocity": 100,
      "chip": "ym2612"
    },
    {
      "channel": 4,
      "note": 100,
      "start": 86.5639,
      "duration": 0.339,
      "velocity": 100,
      "chip": "ym2612"
    },
    {
      "channel": 5,
      "note": 95,
      "start": 86.5647,
      "duration": 0.3389,
      "velocity": 100,
      "chip": "ym2612"
    },
    {
      "channel": 2,
      "note": 69,
      "start": 86.5668,
      "duration": 0.3376,
      "velocity": 95,
      "chip": "ym2612"
    },
    {
      "channel": 0,
      "note": 69,
      "start": 86.9015,
      "duration": 0.3387,
      "velocity": 95,
      "chip": "ym2612"
    },
    {
      "channel": 3,
      "note": 100,
      "start": 86.9027,
      "duration": 0.3388,
      "velocity": 100,
      "chip": "ym2612"
    },
    {
      "channel": 4,
      "note": 95,
      "start": 86.9034,
      "duration": 0.3388,
      "velocity": 100,
      "chip": "ym2612"
    },
    {
      "channel": 5,
      "note": 103,
      "start": 86.9042,
      "duration": 0.3388,
      "velocity": 100,
      "chip": "ym2612"
    },
    {
      "channel": 2,
      "note": 71,
      "start": 86.905,
      "duration": 0.3387,
      "velocity": 95,
      "chip": "ym2612"
    },
    {
      "channel": 0,
      "note": 71,
      "start": 87.2409,
      "duration": 0.3388,
      "velocity": 95,
      "chip": "ym2612"
    },
    {
      "channel": 3,
      "note": 95,
      "start": 87.2421,
      "duration": 0.3387,
      "velocity": 100,
      "chip": "ym2612"
    },
    {
      "channel": 4,
      "note": 91,
      "start": 87.2429,
      "duration": 0.3401,
      "velocity": 100,
      "chip": "ym2612"
    },
    {
      "channel": 5,
      "note": 100,
      "start": 87.2436,
      "duration": 0.3401,
      "velocity": 100,
      "chip": "ym2612"
    },
    {
      "channel": 2,
      "note": 69,
      "start": 87.2444,
      "duration": 0.34,
      "velocity": 95,
      "chip": "ym2612"
    },
    {
      "channel": 0,
      "note": 69,
      "start": 87.5803,
      "duration": 0.3388,
      "velocity": 95,
      "chip": "ym2612"
    },
    {
      "channel": 3,
      "note": 91,
      "start": 87.5814,
      "duration": 0.3396,
      "velocity": 100,
      "chip": "ym2612"
    },
    {
      "channel": 4,
      "note": 88,
      "start": 87.5836,
      "duration": 0.3384,
      "velocity": 100,
      "chip": "ym2612"
    },
    {
      "channel": 5,
      "note": 95,
      "start": 87.5843,
      "duration": 0.3384,
      "velocity": 100,
      "chip": "ym2612"
    },
    {
      "channel": 2,
      "note": 67,
      "start": 87.5851,
      "duration": 0.3384,
      "velocity": 95,
      "chip": "ym2612"
    },
    {
      "channel": 0,
      "note": 67,
      "start": 87.9198,
      "duration": 0.3389,
      "velocity": 95,
      "chip": "ym2612"
    },
    {
      "channel": 1,
      "note": 60,
      "start": 87.9208,
      "duration": 0.3388,
      "velocity": 105,
      "chip": "ym2612"
    },
    {
      "channel": 3,
      "note": 96,
      "start": 87.9217,
      "duration": 0.3387,
      "velocity": 100,
      "chip": "ym2612"
    },
    {
      "channel": 4,
      "note": 81,
      "start": 87.9225,
      "duration": 0.3387,
      "velocity": 100,
      "chip": "ym2612"
    },
    {
      "channel": 5,
      "note": 91,
      "start": 87.9233,
      "duration": 0.3387,
      "velocity": 100,
      "chip": "ym2612"
    },
    {
      "channel": 2,
      "note": 62,
      "start": 87.9242,
      "duration": 0.3385,
      "velocity": 95,
      "chip": "ym2612"
    },
    {
      "channel": 0,
      "note": 62,
      "start": 88.2593,
      "duration": 0.3388,
      "velocity": 95,
      "chip": "ym2612"
    },
    {
      "channel": 1,
      "note": 62,
      "start": 88.2602,
      "duration": 0.3401,
      "velocity": 105,
      "chip": "ym2612"
    },
    {
      "channel": 3,
      "note": 98,
      "start": 88.261,
      "duration": 0.3402,
      "velocity": 100,
      "chip": "ym2612"
    },
    {
      "channel": 4,
      "note": 83,
      "start": 88.2617,
      "duration": 0.3402,
      "velocity": 100,
      "chip": "ym2612"
    },
    {
      "channel": 5,
      "note": 96,
      "start": 88.2626,
      "duration": 0.34,
      "velocity": 100,
      "chip": "ym2612"
    },
    {
      "channel": 2,
      "note": 69,
      "start": 88.2635,
      "duration": 0.34,
      "velocity": 95,
      "chip": "ym2612"
    },
    {
      "channel": 0,
      "note": 69,
      "start": 88.6001,
      "duration": 0.3375,
      "velocity": 95,
      "chip": "ym2612"
    },
    {
      "channel": 1,
      "note": 57,
      "start": 88.601,
      "duration": 0.3373,
      "velocity": 105,
      "chip": "ym2612"
    },
    {
      "channel": 3,
      "note": 93,
      "start": 88.6018,
      "duration": 0.3375,
      "velocity": 100,
      "chip": "ym2612"
    },
    {
      "channel": 4,
      "note": 77,
      "start": 88.6025,
      "duration": 0.3376,
      "velocity": 100,
      "chip": "ym2612"
    },
    {
      "channel": 5,
      "note": 98,
      "start": 88.6033,
      "duration": 0.3376,
      "velocity": 100,
      "chip": "ym2612"
    },
    {
      "channel": 2,
      "note": 71,
      "start": 88.6041,
      "duration": 0.3376,
      "velocity": 95,
      "chip": "ym2612"
    },
    {
      "channel": 0,
      "note": 71,
      "start": 88.9382,
      "duration": 0.3388,
      "velocity": 95,
      "chip": "ym2612"
    },
    {
      "channel": 1,
      "note": 60,
      "start": 88.9391,
      "duration": 0.3388,
      "velocity": 105,
      "chip": "ym2612"
    },
    {
      "channel": 3,
      "note": 96,
      "start": 88.9399,
      "duration": 0.3389,
      "velocity": 100,
      "chip": "ym2612"
    },
    {
      "channel": 4,
      "note": 81,
      "start": 88.9407,
      "duration": 0.3388,
      "velocity": 100,
      "chip": "ym2612"
    },
    {
      "channel": 5,
      "note": 93,
      "start": 88.9415,
      "duration": 0.3387,
      "velocity": 100,
      "chip": "ym2612"
    },
    {
      "channel": 2,
      "note": 72,
      "start": 88.9423,
      "duration": 0.3387,
      "velocity": 95,
      "chip": "ym2612"
    },
    {
      "channel": 0,
      "note": 72,
      "start": 89.2777,
      "duration": 0.3394,
      "velocity": 95,
      "chip": "ym2612"
    },
    {
      "channel": 1,
      "note": 62,
      "start": 89.2786,
      "duration": 0.3393,
      "velocity": 105,
      "chip": "ym2612"
    },
    {
      "channel": 3,
      "note": 98,
      "start": 89.2794,
      "duration": 0.3394,
      "velocity": 100,
      "chip": "ym2612"
    },
    {
      "channel": 4,
      "note": 83,
      "start": 89.2801,
      "duration": 0.3394,
      "velocity": 100,
      "chip": "ym2612"
    },
    {
      "channel": 5,
      "note": 96,
      "start": 89.2809,
      "duration": 0.3395,
      "velocity": 100,
      "chip": "ym2612"
    },
    {
      "channel": 2,
      "note": 71,
      "start": 89.283,
      "duration": 0.3381,
      "velocity": 95,
      "chip": "ym2612"
    },
    {
      "channel": 0,
      "note": 71,
      "start": 89.6178,
      "duration": 0.3382,
      "velocity": 95,
      "chip": "ym2612"
    },
    {
      "channel": 1,
      "note": 57,
      "start": 89.6187,
      "duration": 0.3381,
      "velocity": 105,
      "chip": "ym2612"
    },
    {
      "channel": 3,
      "note": 93,
      "start": 89.6194,
      "duration": 0.3382,
      "velocity": 100,
      "chip": "ym2612"
    },
    {
      "channel": 4,
      "note": 77,
      "start": 89.6202,
      "duration": 0.3384,
      "velocity": 100,
      "chip": "ym2612"
    },
    {
      "channel": 5,
      "note": 98,
      "start": 89.621,
      "duration": 0.3383,
      "velocity": 100,
      "chip": "ym2612"
    },
    {
      "channel": 2,
      "note": 69,
      "start": 89.6218,
      "duration": 0.3383,
      "velocity": 95,
      "chip": "ym2612"
    },
    {
      "channel": 0,
      "note": 69,
      "start": 89.9567,
      "duration": 0.3388,
      "velocity": 95,
      "chip": "ym2612"
    },
    {
      "channel": 1,
      "note": 60,
      "start": 89.9576,
      "duration": 0.3387,
      "velocity": 105,
      "chip": "ym2612"
    },
    {
      "channel": 3,
      "note": 96,
      "start": 89.9583,
      "duration": 0.3389,
      "velocity": 100,
      "chip": "ym2612"
    },
    {
      "channel": 4,
      "note": 81,
      "start": 89.9591,
      "duration": 0.3388,
      "velocity": 100,
      "chip": "ym2612"
    },
    {
      "channel": 5,
      "note": 93,
      "start": 89.9599,
      "duration": 0.3401,
      "velocity": 100,
      "chip": "ym2612"
    },
    {
      "channel": 2,
      "note": 62,
      "start": 89.9607,
      "duration": 0.3401,
      "velocity": 95,
      "chip": "ym2612"
    },
    {
      "channel": 0,
      "note": 62,
      "start": 90.2962,
      "duration": 0.3388,
      "velocity": 95,
      "chip": "ym2612"
    },
    {
      "channel": 1,
      "note": 62,
      "start": 90.2971,
      "duration": 0.3387,
      "velocity": 105,
      "chip": "ym2612"
    },
    {
      "channel": 3,
      "note": 98,
      "start": 90.2978,
      "duration": 0.3389,
      "velocity": 100,
      "chip": "ym2612"
    },
    {
      "channel": 4,
      "note": 83,
      "start": 90.2998,
      "duration": 0.3376,
      "velocity": 100,
      "chip": "ym2612"
    },
    {
      "channel": 5,
      "note": 96,
      "start": 90.3007,
      "duration": 0.3375,
      "velocity": 100,
      "chip": "ym2612"
    },
    {
      "channel": 2,
      "note": 69,
      "start": 90.3015,
      "duration": 0.3375,
      "velocity": 95,
      "chip": "ym2612"
    },
    {
      "channel": 0,
      "note": 69,
      "start": 90.6357,
      "duration": 0.3387,
      "velocity": 95,
      "chip": "ym2612"
    },
    {
      "channel": 1,
      "note": 57,
      "start": 90.6366,
      "duration": 0.3387,
      "velocity": 105,
      "chip": "ym2612"
    },
    {
      "channel": 3,
      "note": 93,
      "start": 90.6373,
      "duration": 0.3388,
      "velocity": 100,
      "chip": "ym2612"
    },
    {
      "channel": 4,
      "note": 77,
      "start": 90.6381,
      "duration": 0.3389,
      "velocity": 100,
      "chip": "ym2612"
    },
    {
      "channel": 5,
      "note": 98,
      "start": 90.6388,
      "duration": 0.3389,
      "velocity": 100,
      "chip": "ym2612"
    },
    {
      "channel": 2,
      "note": 71,
      "start": 90.6397,
      "duration": 0.3389,
      "velocity": 95,
      "chip": "ym2612"
    },
    {
      "channel": 0,
      "note": 71,
      "start": 90.9751,
      "duration": 0.3389,
      "velocity": 95,
      "chip": "ym2612"
    },
    {
      "channel": 1,
      "note": 60,
      "start": 90.976,
      "duration": 0.3388,
      "velocity": 105,
      "chip": "ym2612"
    },
    {
      "channel": 3,
      "note": 96,
      "start": 90.9768,
      "duration": 0.3403,
      "velocity": 100,
      "chip": "ym2612"
    },
    {
      "channel": 4,
      "note": 81,
      "start": 90.9776,
      "duration": 0.3402,
      "velocity": 100,
      "chip": "ym2612"
    },
    {
      "channel": 5,
      "note": 93,
      "start": 90.9783,
      "duration": 0.3402,
      "velocity": 100,
      "chip": "ym2612"
    },
    {
      "channel": 2,
      "note": 72,
      "start": 90.9792,
      "duration": 0.3401,
      "velocity": 95,
      "chip": "ym2612"
    },
    {
      "channel": 0,
      "note": 72,
      "start": 91.3147,
      "duration": 0.3387,
      "velocity": 95,
      "chip": "ym2612"
    },
    {
      "channel": 1,
      "note": 62,
      "start": 91.3169,
      "duration": 0.3373,
      "velocity": 105,
      "chip": "ym2612"
    },
    {
      "channel": 3,
      "note": 98,
      "start": 91.3177,
      "duration": 0.3374,
      "velocity": 100,
      "chip": "ym2612"
    },
    {
      "channel": 4,
      "note": 83,
      "start": 91.3184,
      "duration": 0.3374,
      "velocity": 100,
      "chip": "ym2612"
    },
    {
      "channel": 5,
      "note": 96,
      "start": 91.3192,
      "duration": 0.3374,
      "velocity": 100,
      "chip": "ym2612"
    },
    {
      "channel": 2,
      "note": 71,
      "start": 91.32,
      "duration": 0.3373,
      "velocity": 95,
      "chip": "ym2612"
    },
    {
      "channel": 0,
      "note": 71,
      "start": 91.6541,
      "duration": 0.3388,
      "velocity": 95,
      "chip": "ym2612"
    },
    {
      "channel": 1,
      "note": 57,
      "start": 91.6549,
      "duration": 0.3387,
      "velocity": 105,
      "chip": "ym2612"
    },
    {
      "channel": 3,
      "note": 93,
      "start": 91.6557,
      "duration": 0.3389,
      "velocity": 100,
      "chip": "ym2612"
    },
    {
      "channel": 4,
      "note": 77,
      "start": 91.6565,
      "duration": 0.339,
      "velocity": 100,
      "chip": "ym2612"
    },
    {
      "channel": 5,
      "note": 98,
      "start": 91.6572,
      "duration": 0.339,
      "velocity": 100,
      "chip": "ym2612"
    },
    {
      "channel": 2,
      "note": 69,
      "start": 91.658,
      "duration": 0.3389,
      "velocity": 95,
      "chip": "ym2612"
    },
    {
      "channel": 0,
      "note": 69,
      "start": 91.9936,
      "duration": 0.3398,
      "velocity": 95,
      "chip": "ym2612"
    },
    {
      "channel": 1,
      "note": 59,
      "start": 91.9944,
      "duration": 0.6782,
      "velocity": 105,
      "chip": "ym2612"
    },
    {
      "channel": 3,
      "note": 95,
      "start": 91.9952,
      "duration": 0.6783,
      "velocity": 100,
      "chip": "ym2612"
    },
    {
      "channel": 4,
      "note": 79,
      "start": 91.996,
      "duration": 0.6783,
      "velocity": 100,
      "chip": "ym2612"
    },
    {
      "channel": 5,
      "note": 93,
      "start": 91.9968,
      "duration": 0.3385,
      "velocity": 100,
      "chip": "ym2612"
    },
    {
      "channel": 2,
      "note": 60,
      "start": 91.9976,
      "duration": 0.3385,
      "velocity": 95,
      "chip": "ym2612"
    },
    {
      "channel": 0,
      "note": 60,
      "start": 92.3341,
      "duration": 0.3377,
      "velocity": 95,
      "chip": "ym2612"
    },
    {
      "channel": 5,
      "note": 95,
      "start": 92.336,
      "duration": 0.6785,
      "velocity": 100,
      "chip": "ym2612"
    },
    {
      "channel": 2,
      "note": 67,
      "start": 92.3368,
      "duration": 0.3385,
      "velocity": 95,
      "chip": "ym2612"
    },
    {
      "channel": 0,
      "note": 67,
      "start": 92.6725,
      "duration": 0.3388,
      "velocity": 95,
      "chip": "ym2612"
    },
    {
      "channel": 1,
      "note": 55,
      "start": 92.6734,
      "duration": 0.3387,
      "velocity": 105,
      "chip": "ym2612"
    },
    {
      "channel": 3,
      "note": 91,
      "start": 92.6741,
      "duration": 0.3388,
      "velocity": 100,
      "chip": "ym2612"
    },
    {
      "channel": 4,
      "note": 76,
      "start": 92.6749,
      "duration": 0.3388,
      "velocity": 100,
      "chip": "ym2612"
    },
    {
      "channel": 2,
      "note": 69,
      "start": 92.6761,
      "duration": 0.3406,
      "velocity": 95,
      "chip": "ym2612"
    },
    {
      "channel": 0,
      "note": 69,
      "start": 93.0119,
      "duration": 0.3388,
      "velocity": 95,
      "chip": "ym2612"
    },
    {
      "channel": 1,
      "note": 52,
      "start": 93.0128,
      "duration": 2.7152,
      "velocity": 105,
      "chip": "ym2612"
    },
    {
      "channel": 3,
      "note": 88,
      "start": 93.0136,
      "duration": 1.3569,
      "velocity": 100,
      "chip": "ym2612"
    },
    {
      "channel": 4,
      "note": 103,
      "start": 93.0144,
      "duration": 0.1693,
      "velocity": 100,
      "chip": "ym2612"
    },
    {
      "channel": 5,
      "note": 91,
      "start": 93.0165,
      "duration": 0.3367,
      "velocity": 100,
      "chip": "ym2612"
    },
    {
      "channel": 2,
      "note": 71,
      "start": 93.0173,
      "duration": 0.3366,
      "velocity": 95,
      "chip": "ym2612"
    },
    {
      "channel": 4,
      "note": 105,
      "start": 93.1843,
      "duration": 0.1681,
      "velocity": 100,
      "chip": "ym2612"
    },
    {
      "channel": 0,
      "note": 71,
      "start": 93.3515,
      "duration": 0.3388,
      "velocity": 95,
      "chip": "ym2612"
    },
    {
      "channel": 4,
      "note": 115,
      "start": 93.353,
      "duration": 0.3389,
      "velocity": 100,
      "chip": "ym2612"
    },
    {
      "channel": 5,
      "note": 88,
      "start": 93.3538,
      "duration": 1.3576,
      "velocity": 100,
      "chip": "ym2612"
    },
    {
      "channel": 2,
      "note": 69,
      "start": 93.3546,
      "duration": 0.3383,
      "velocity": 95,
      "chip": "ym2612"
    },
    {
      "channel": 0,
      "note": 69,
      "start": 93.691,
      "duration": 0.3388,
      "velocity": 95,
      "chip": "ym2612"
    },
    {
      "channel": 4,
      "note": 112,
      "start": 93.6925,
      "duration": 0.3389,
      "velocity": 100,
      "chip": "ym2612"
    },
    {
      "channel": 2,
      "note": 67,
      "start": 93.6937,
      "duration": 0.3401,
      "velocity": 95,
      "chip": "ym2612"
    },
    {
      "channel": 0,
      "note": 67,
      "start": 94.0305,
      "duration": 0.3387,
      "velocity": 95,
      "chip": "ym2612"
    },
    {
      "channel": 4,
      "note": 107,
      "start": 94.0333,
      "duration": 0.3379,
      "velocity": 100,
      "chip": "ym2612"
    },
    {
      "channel": 2,
      "note": 60,
      "start": 94.0345,
      "duration": 0.3379,
      "velocity": 95,
      "chip": "ym2612"
    },
    {
      "channel": 0,
      "note": 60,
      "start": 94.3699,
      "duration": 0.3388,
      "velocity": 95,
      "chip": "ym2612"
    },
    {
      "channel": 3,
      "note": 95,
      "start": 94.3711,
      "duration": 0.3388,
      "velocity": 100,
      "chip": "ym2612"
    },
    {
      "channel": 4,
      "note": 103,
      "start": 94.3719,
      "duration": 0.3388,
      "velocity": 100,
      "chip": "ym2612"
    },
    {
      "channel": 2,
      "note": 67,
      "start": 94.373,
      "duration": 0.3392,
      "velocity": 95,
      "chip": "ym2612"
    },
    {
      "channel": 0,
      "note": 67,
      "start": 94.7093,
      "duration": 0.3389,
      "velocity": 95,
      "chip": "ym2612"
    },
    {
      "channel": 3,
      "note": 103,
      "start": 94.7105,
      "duration": 0.3403,
      "velocity": 100,
      "chip": "ym2612"
    },
    {
      "channel": 4,
      "note": 100,
      "start": 94.7113,
      "duration": 0.3403,
      "velocity": 100,
      "chip": "ym2612"
    },
    {
      "channel": 5,
      "note": 95,
      "start": 94.7121,
      "duration": 0.3403,
      "velocity": 100,
      "chip": "ym2612"
    },
    {
      "channel": 2,
      "note": 69,
      "start": 94.7129,
      "duration": 0.3402,
      "velocity": 95,
      "chip": "ym2612"
    },
    {
      "channel": 0,
      "note": 69,
      "start": 95.0502,
      "duration": 0.3375,
      "velocity": 95,
      "chip": "ym2612"
    },
    {
      "channel": 3,
      "note": 100,
      "start": 95.0514,
      "duration": 0.3375,
      "velocity": 100,
      "chip": "ym2612"
    },
    {
      "channel": 4,
      "note": 95,
      "start": 95.0521,
      "duration": 0.3376,
      "velocity": 100,
      "chip": "ym2612"
    },
    {
      "channel": 5,
      "note": 103,
      "start": 95.0529,
      "duration": 0.3375,
      "velocity": 100,
      "chip": "ym2612"
    },
    {
      "channel": 2,
      "note": 71,
      "start": 95.0537,
      "duration": 0.3375,
      "velocity": 95,
      "chip": "ym2612"
    },
    {
      "channel": 0,
      "note": 71,
      "start": 95.3883,
      "duration": 0.3389,
      "velocity": 95,
      "chip": "ym2612"
    },
    {
      "channel": 3,
      "note": 95,
      "start": 95.3895,
      "duration": 0.3388,
      "velocity": 100,
      "chip": "ym2612"
    },
    {
      "channel": 4,
      "note": 91,
      "start": 95.3903,
      "duration": 0.3388,
      "velocity": 100,
      "chip": "ym2612"
    },
    {
      "channel": 5,
      "note": 100,
      "start": 95.3911,
      "duration": 0.3388,
      "velocity": 100,
      "chip": "ym2612"
    },
    {
      "channel": 2,
      "note": 69,
      "start": 95.3919,
      "duration": 0.3387,
      "velocity": 95,
      "chip": "ym2612"
    },
    {
      "channel": 0,
      "note": 69,
      "start": 95.7279,
      "duration": 0.3387,
      "velocity": 95,
      "chip": "ym2612"
    },
    {
      "channel": 3,
      "note": 91,
      "start": 95.729,
      "duration": 0.3396,
      "velocity": 100,
      "chip": "ym2612"
    },
    {
      "channel": 4,
      "note": 88,
      "start": 95.7298,
      "duration": 0.3397,
      "velocity": 100,
      "chip": "ym2612"
    },
    {
      "channel": 5,
      "note": 95,
      "start": 95.7305,
      "duration": 0.3397,
      "velocity": 100,
      "chip": "ym2612"
    },
    {
      "channel": 2,
      "note": 67,
      "start": 95.7313,
      "duration": 0.3398,
      "velocity": 95,
      "chip": "ym2612"
    },
    {
      "channel": 0,
      "note": 67,
      "start": 96.0673,
      "duration": 0.3388,
      "velocity": 95,
      "chip": "ym2612"
    },
    {
      "channel": 1,
      "note": 60,
      "start": 96.0684,
      "duration": 0.3386,
      "velocity": 105,
      "chip": "ym2612"
    },
    {
      "channel": 3,
      "note": 96,
      "start": 96.0692,
      "duration": 0.3387,
      "velocity": 100,
      "chip": "ym2612"
    },
    {
      "channel": 4,
      "note": 81,
      "start": 96.0701,
      "duration": 0.3385,
      "velocity": 100,
      "chip": "ym2612"
    },
    {
      "channel": 5,
      "note": 91,
      "start": 96.0708,
      "duration": 0.3387,
      "velocity": 100,
      "chip": "ym2612"
    },
    {
      "channel": 2,
      "note": 62,
      "start": 96.0717,
      "duration": 0.3386,
      "velocity": 95,
      "chip": "ym2612"
    },
    {
      "channel": 0,
      "note": 62,
      "start": 96.4068,
      "duration": 0.3387,
      "velocity": 95,
      "chip": "ym2612"
    },
    {
      "channel": 1,
      "note": 62,
      "start": 96.4077,
      "duration": 0.3386,
      "velocity": 105,
      "chip": "ym2612"
    },
    {
      "channel": 3,
      "note": 98,
      "start": 96.4085,
      "duration": 0.3387,
      "velocity": 100,
      "chip": "ym2612"
    },
    {
      "channel": 4,
      "note": 83,
      "start": 96.4093,
      "duration": 0.3388,
      "velocity": 100,
      "chip": "ym2612"
    },
    {
      "channel": 5,
      "note": 96,
      "start": 96.4101,
      "duration": 0.3401,
      "velocity": 100,
      "chip": "ym2612"
    },
    {
      "channel": 2,
      "note": 69,
      "start": 96.4109,
      "duration": 0.34,
      "velocity": 95,
      "chip": "ym2612"
    },
    {
      "channel": 0,
      "note": 69,
      "start": 96.7462,
      "duration": 0.3388,
      "velocity": 95,
      "chip": "ym2612"
    },
    {
      "channel": 1,
      "note": 57,
      "start": 96.7471,
      "duration": 0.3387,
      "velocity": 105,
      "chip": "ym2612"
    },
    {
      "channel": 3,
      "note": 93,
      "start": 96.7479,
      "duration": 0.3389,
      "velocity": 100,
      "chip": "ym2612"
    },
    {
      "channel": 4,
      "note": 77,
      "start": 96.75,
      "duration": 0.3376,
      "velocity": 100,
      "chip": "ym2612"
    },
    {
      "channel": 5,
      "note": 98,
      "start": 96.7508,
      "duration": 0.3376,
      "velocity": 100,
      "chip": "ym2612"
    },
    {
      "channel": 2,
      "note": 71,
      "start": 96.7516,
      "duration": 0.3375,
      "velocity": 95,
      "chip": "ym2612"
    },
    {
      "channel": 0,
      "note": 71,
      "start": 97.0857,
      "duration": 0.3388,
      "velocity": 95,
      "chip": "ym2612"
    },
    {
      "channel": 1,
      "note": 60,
      "start": 97.0866,
      "duration": 0.3387,
      "velocity": 105,
      "chip": "ym2612"
    },
    {
      "channel": 3,
      "note": 96,
      "start": 97.0874,
      "duration": 0.3389,
      "velocity": 100,
      "chip": "ym2612"
    },
    {
      "channel": 4,
      "note": 81,
      "start": 97.0882,
      "duration": 0.3388,
      "velocity": 100,
      "chip": "ym2612"
    },
    {
      "channel": 5,
      "note": 93,
      "start": 97.089,
      "duration": 0.3388,
      "velocity": 100,
      "chip": "ym2612"
    },
    {
      "channel": 2,
      "note": 72,
      "start": 97.0898,
      "duration": 0.3388,
      "velocity": 95,
      "chip": "ym2612"
    },
    {
      "channel": 0,
      "note": 72,
      "start": 97.4252,
      "duration": 0.3387,
      "velocity": 95,
      "chip": "ym2612"
    },
    {
      "channel": 1,
      "note": 62,
      "start": 97.4261,
      "duration": 0.3387,
      "velocity": 105,
      "chip": "ym2612"
    },
    {
      "channel": 3,
      "note": 98,
      "start": 97.4269,
      "duration": 0.3402,
      "velocity": 100,
      "chip": "ym2612"
    },
    {
      "channel": 4,
      "note": 83,
      "start": 97.4276,
      "duration": 0.3402,
      "velocity": 100,
      "chip": "ym2612"
    },
    {
      "channel": 5,
      "note": 96,
      "start": 97.4284,
      "duration": 0.3402,
      "velocity": 100,
      "chip": "ym2612"
    },
    {
      "channel": 2,
      "note": 71,
      "start": 97.4293,
      "duration": 0.3401,
      "velocity": 95,
      "chip": "ym2612"
    },
    {
      "channel": 0,
      "note": 71,
      "start": 97.7647,
      "duration": 0.3388,
      "velocity": 95,
      "chip": "ym2612"
    },
    {
      "channel": 1,
      "note": 57,
      "start": 97.767,
      "duration": 0.3373,
      "velocity": 105,
      "chip": "ym2612"
    },
    {
      "channel": 3,
      "note": 93,
      "start": 97.7677,
      "duration": 0.3375,
      "velocity": 100,
      "chip": "ym2612"
    },
    {
      "channel": 4,
      "note": 77,
      "start": 97.7684,
      "duration": 0.3376,
      "velocity": 100,
      "chip": "ym2612"
    },
    {
      "channel": 5,
      "note": 98,
      "start": 97.7692,
      "duration": 0.3377,
      "velocity": 100,
      "chip": "ym2612"
    },
    {
      "channel": 2,
      "note": 69,
      "start": 97.77,
      "duration": 0.3376,
      "velocity": 95,
      "chip": "ym2612"
    },
    {
      "channel": 0,
      "note": 69,
      "start": 98.1042,
      "duration": 0.3388,
      "velocity": 95,
      "chip": "ym2612"
    },
    {
      "channel": 1,
      "note": 60,
      "start": 98.1051,
      "duration": 0.3387,
      "velocity": 105,
      "chip": "ym2612"
    },
    {
      "channel": 3,
      "note": 96,
      "start": 98.1058,
      "duration": 0.3388,
      "velocity": 100,
      "chip": "ym2612"
    },
    {
      "channel": 4,
      "note": 81,
      "start": 98.1067,
      "duration": 0.3387,
      "velocity": 100,
      "chip": "ym2612"
    },
    {
      "channel": 5,
      "note": 93,
      "start": 98.1074,
      "duration": 0.3388,
      "velocity": 100,
      "chip": "ym2612"
    },
    {
      "channel": 2,
      "note": 62,
      "start": 98.1083,
      "duration": 0.3387,
      "velocity": 95,
      "chip": "ym2612"
    },
    {
      "channel": 0,
      "note": 62,
      "start": 98.4436,
      "duration": 0.3397,
      "velocity": 95,
      "chip": "ym2612"
    },
    {
      "channel": 1,
      "note": 62,
      "start": 98.4445,
      "duration": 0.3396,
      "velocity": 105,
      "chip": "ym2612"
    },
    {
      "channel": 3,
      "note": 98,
      "start": 98.4453,
      "duration": 0.3398,
      "velocity": 100,
      "chip": "ym2612"
    },
    {
      "channel": 4,
      "note": 83,
      "start": 98.446,
      "duration": 0.3398,
      "velocity": 100,
      "chip": "ym2612"
    },
    {
      "channel": 5,
      "note": 96,
      "start": 98.4468,
      "duration": 0.3397,
      "velocity": 100,
      "chip": "ym2612"
    },
    {
      "channel": 2,
      "note": 69,
      "start": 98.4476,
      "duration": 0.3396,
      "velocity": 95,
      "chip": "ym2612"
    },
    {
      "channel": 0,
      "note": 69,
      "start": 98.7839,
      "duration": 0.3379,
      "velocity": 95,
      "chip": "ym2612"
    },
    {
      "channel": 1,
      "note": 57,
      "start": 98.7848,
      "duration": 0.3379,
      "velocity": 105,
      "chip": "ym2612"
    },
    {
      "channel": 3,
      "note": 93,
      "start": 98.7856,
      "duration": 0.338,
      "velocity": 100,
      "chip": "ym2612"
    },
    {
      "channel": 4,
      "note": 77,
      "start": 98.7864,
      "duration": 0.3381,
      "velocity": 100,
      "chip": "ym2612"
    },
    {
      "channel": 5,
      "note": 98,
      "start": 98.7871,
      "duration": 0.3381,
      "velocity": 100,
      "chip": "ym2612"
    },
    {
      "channel": 2,
      "note": 71,
      "start": 98.788,
      "duration": 0.338,
      "velocity": 95,
      "chip": "ym2612"
    },
    {
      "channel": 0,
      "note": 71,
      "start": 99.1226,
      "duration": 0.3388,
      "velocity": 95,
      "chip": "ym2612"
    },
    {
      "channel": 1,
      "note": 60,
      "start": 99.1234,
      "duration": 0.3388,
      "velocity": 105,
      "chip": "ym2612"
    },
    {
      "channel": 3,
      "note": 96,
      "start": 99.1242,
      "duration": 0.3389,
      "velocity": 100,
      "chip": "ym2612"
    },
    {
      "channel": 4,
      "note": 81,
      "start": 99.125,
      "duration": 0.3388,
      "velocity": 100,
      "chip": "ym2612"
    },
    {
      "channel": 5,
      "note": 93,
      "start": 99.1258,
      "duration": 0.3388,
      "velocity": 100,
      "chip": "ym2612"
    },
    {
      "channel": 2,
      "note": 72,
      "start": 99.1266,
      "duration": 0.3401,
      "velocity": 95,
      "chip": "ym2612"
    },
    {
      "channel": 0,
      "note": 72,
      "start": 99.4621,
      "duration": 0.3388,
      "velocity": 95,
      "chip": "ym2612"
    },
    {
      "channel": 1,
      "note": 62,
      "start": 99.4629,
      "duration": 0.3388,
      "velocity": 105,
      "chip": "ym2612"
    },
    {
      "channel": 3,
      "note": 98,
      "start": 99.4637,
      "duration": 0.3389,
      "velocity": 100,
      "chip": "ym2612"
    },
    {
      "channel": 4,
      "note": 83,
      "start": 99.4645,
      "duration": 0.3389,
      "velocity": 100,
      "chip": "ym2612"
    },
    {
      "channel": 5,
      "note": 96,
      "start": 99.4666,
      "duration": 0.3375,
      "velocity": 100,
      "chip": "ym2612"
    },
    {
      "channel": 2,
      "note": 71,
      "start": 99.4674,
      "duration": 0.3375,
      "velocity": 95,
      "chip": "ym2612"
    },
    {
      "channel": 0,
      "note": 71,
      "start": 99.8016,
      "duration": 0.3388,
      "velocity": 95,
      "chip": "ym2612"
    },
    {
      "channel": 1,
      "note": 57,
      "start": 99.8024,
      "duration": 0.3388,
      "velocity": 105,
      "chip": "ym2612"
    },
    {
      "channel": 3,
      "note": 93,
      "start": 99.8032,
      "duration": 0.3389,
      "velocity": 100,
      "chip": "ym2612"
    },
    {
      "channel": 4,
      "note": 77,
      "start": 99.804,
      "duration": 0.339,
      "velocity": 100,
      "chip": "ym2612"
    },
    {
      "channel": 5,
      "note": 98,
      "start": 99.8047,
      "duration": 0.339,
      "velocity": 100,
      "chip": "ym2612"
    },
    {
      "channel": 2,
      "note": 69,
      "start": 99.8056,
      "duration": 0.3389,
      "velocity": 95,
      "chip": "ym2612"
    },
    {
      "channel": 0,
      "note": 69,
      "start": 100.1411,
      "duration": 0.3388,
      "velocity": 95,
      "chip": "ym2612"
    },
    {
      "channel": 1,
      "note": 59,
      "start": 100.142,
      "duration": 0.678,
      "velocity": 105,
      "chip": "ym2612"
    },
    {
      "channel": 3,
      "note": 95,
      "start": 100.1427,
      "duration": 0.6782,
      "velocity": 100,
      "chip": "ym2612"
    },
    {
      "channel": 4,
      "note": 79,
      "start": 100.1436,
      "duration": 0.6781,
      "velocity": 100,
      "chip": "ym2612"
    },
    {
      "channel": 5,
      "note": 93,
      "start": 100.1443,
      "duration": 0.3389,
      "velocity": 100,
      "chip": "ym2612"
    },
    {
      "channel": 2,
      "note": 60,
      "start": 100.1451,
      "duration": 0.3388,
      "velocity": 95,
      "chip": "ym2612"
    },
    {
      "channel": 0,
      "note": 60,
      "start": 100.4805,
      "duration": 0.3387,
      "velocity": 95,
      "chip": "ym2612"
    },
    {
      "channel": 5,
      "note": 95,
      "start": 100.4838,
      "duration": 0.6782,
      "velocity": 100,
      "chip": "ym2612"
    },
    {
      "channel": 2,
      "note": 67,
      "start": 100.4846,
      "duration": 0.3381,
      "velocity": 95,
      "chip": "ym2612"
    },
    {
      "channel": 0,
      "note": 67,
      "start": 100.8199,
      "duration": 0.3389,
      "velocity": 95,
      "chip": "ym2612"
    },
    {
      "channel": 1,
      "note": 55,
      "start": 100.8208,
      "duration": 0.3388,
      "velocity": 105,
      "chip": "ym2612"
    },
    {
      "channel": 3,
      "note": 91,
      "start": 100.8215,
      "duration": 0.3389,
      "velocity": 100,
      "chip": "ym2612"
    },
    {
      "channel": 4,
      "note": 76,
      "start": 100.8223,
      "duration": 0.3389,
      "velocity": 100,
      "chip": "ym2612"
    },
    {
      "channel": 2,
      "note": 69,
      "start": 100.8234,
      "duration": 0.3393,
      "velocity": 95,
      "chip": "ym2612"
    },
    {
      "channel": 0,
      "note": 69,
      "start": 101.1594,
      "duration": 0.3402,
      "velocity": 95,
      "chip": "ym2612"
    },
    {
      "channel": 1,
      "note": 52,
      "start": 101.1603,
      "duration": 2.7151,
      "velocity": 105,
      "chip": "ym2612"
    },
    {
      "channel": 3,
      "note": 88,
      "start": 101.161,
      "duration": 1.3569,
      "velocity": 100,
      "chip": "ym2612"
    },
    {
      "channel": 4,
      "note": 103,
      "start": 101.1619,
      "duration": 0.1679,
      "velocity": 100,
      "chip": "ym2612"
    },
    {
      "channel": 5,
      "note": 91,
      "start": 101.1626,
      "duration": 0.3394,
      "velocity": 100,
      "chip": "ym2612"
    },
    {
      "channel": 2,
      "note": 71,
      "start": 101.1635,
      "duration": 0.3393,
      "velocity": 95,
      "chip": "ym2612"
    },
    {
      "channel": 4,
      "note": 105,
      "start": 101.3304,
      "duration": 0.1709,
      "velocity": 100,
      "chip": "ym2612"
    },
    {
      "channel": 0,
      "note": 71,
      "start": 101.5003,
      "duration": 0.3374,
      "velocity": 95,
      "chip": "ym2612"
    },
    {
      "channel": 4,
      "note": 115,
      "start": 101.5019,
      "duration": 0.3375,
      "velocity": 100,
      "chip": "ym2612"
    },
    {
      "channel": 5,
      "note": 88,
      "start": 101.5027,
      "duration": 1.3563,
      "velocity": 100,
      "chip": "ym2612"
    },
    {
      "channel": 2,
      "note": 69,
      "start": 101.5035,
      "duration": 0.337,
      "velocity": 95,
      "chip": "ym2612"
    },
    {
      "channel": 0,
      "note": 69,
      "start": 101.8384,
      "duration": 0.3388,
      "velocity": 95,
      "chip": "ym2612"
    },
    {
      "channel": 4,
      "note": 112,
      "start": 101.84,
      "duration": 0.3389,
      "velocity": 100,
      "chip": "ym2612"
    },
    {
      "channel": 2,
      "note": 67,
      "start": 101.8411,
      "duration": 0.3388,
      "velocity": 95,
      "chip": "ym2612"
    },
    {
      "channel": 0,
      "note": 67,
      "start": 102.1779,
      "duration": 0.3387,
      "velocity": 95,
      "chip": "ym2612"
    },
    {
      "channel": 4,
      "note": 107,
      "start": 102.1795,
      "duration": 0.3392,
      "velocity": 100,
      "chip": "ym2612"
    },
    {
      "channel": 2,
      "note": 60,
      "start": 102.1806,
      "duration": 0.3392,
      "velocity": 95,
      "chip": "ym2612"
    },
    {
      "channel": 0,
      "note": 60,
      "start": 102.5173,
      "duration": 0.3388,
      "velocity": 95,
      "chip": "ym2612"
    },
    {
      "channel": 3,
      "note": 95,
      "start": 102.5185,
      "duration": 0.3389,
      "velocity": 100,
      "chip": "ym2612"
    },
    {
      "channel": 4,
      "note": 103,
      "start": 102.5193,
      "duration": 0.3389,
      "velocity": 100,
      "chip": "ym2612"
    },
    {
      "channel": 2,
      "note": 67,
      "start": 102.5205,
      "duration": 0.3393,
      "velocity": 95,
      "chip": "ym2612"
    },
    {
      "channel": 0,
      "note": 67,
      "start": 102.8568,
      "duration": 0.3389,
      "velocity": 95,
      "chip": "ym2612"
    },
    {
      "channel": 3,
      "note": 103,
      "start": 102.858,
      "duration": 0.3389,
      "velocity": 100,
      "chip": "ym2612"
    },
    {
      "channel": 4,
      "note": 100,
      "start": 102.8588,
      "duration": 0.3389,
      "velocity": 100,
      "chip": "ym2612"
    },
    {
      "channel": 5,
      "note": 95,
      "start": 102.8596,
      "duration": 0.3401,
      "velocity": 100,
      "chip": "ym2612"
    },
    {
      "channel": 2,
      "note": 69,
      "start": 102.8604,
      "duration": 0.3401,
      "velocity": 95,
      "chip": "ym2612"
    },
    {
      "channel": 0,
      "note": 69,
      "start": 103.1963,
      "duration": 0.3388,
      "velocity": 95,
      "chip": "ym2612"
    },
    {
      "channel": 3,
      "note": 100,
      "start": 103.1975,
      "duration": 0.3389,
      "velocity": 100,
      "chip": "ym2612"
    },
    {
      "channel": 4,
      "note": 95,
      "start": 103.1996,
      "duration": 0.3375,
      "velocity": 100,
      "chip": "ym2612"
    },
    {
      "channel": 5,
      "note": 103,
      "start": 103.2004,
      "duration": 0.3375,
      "velocity": 100,
      "chip": "ym2612"
    },
    {
      "channel": 2,
      "note": 71,
      "start": 103.2012,
      "duration": 0.3375,
      "velocity": 95,
      "chip": "ym2612"
    },
    {
      "channel": 0,
      "note": 71,
      "start": 103.5358,
      "duration": 0.3388,
      "velocity": 95,
      "chip": "ym2612"
    },
    {
      "channel": 3,
      "note": 95,
      "start": 103.537,
      "duration": 0.3387,
      "velocity": 100,
      "chip": "ym2612"
    },
    {
      "channel": 4,
      "note": 91,
      "start": 103.5378,
      "duration": 0.3387,
      "velocity": 100,
      "chip": "ym2612"
    },
    {
      "channel": 5,
      "note": 100,
      "start": 103.5385,
      "duration": 0.3387,
      "velocity": 100,
      "chip": "ym2612"
    },
    {
      "channel": 2,
      "note": 69,
      "start": 103.5394,
      "duration": 0.3386,
      "velocity": 95,
      "chip": "ym2612"
    },
    {
      "channel": 0,
      "note": 69,
      "start": 103.8752,
      "duration": 0.3388,
      "velocity": 95,
      "chip": "ym2612"
    },
    {
      "channel": 3,
      "note": 91,
      "start": 103.8763,
      "duration": 0.341,
      "velocity": 100,
      "chip": "ym2612"
    },
    {
      "channel": 4,
      "note": 88,
      "start": 103.8771,
      "duration": 0.3411,
      "velocity": 100,
      "chip": "ym2612"
    },
    {
      "channel": 5,
      "note": 95,
      "start": 103.8778,
      "duration": 0.3411,
      "velocity": 100,
      "chip": "ym2612"
    },
    {
      "channel": 2,
      "note": 67,
      "start": 103.8786,
      "duration": 0.3412,
      "velocity": 95,
      "chip": "ym2612"
    },
    {
      "channel": 0,
      "note": 67,
      "start": 104.2147,
      "duration": 0.3389,
      "velocity": 95,
      "chip": "ym2612"
    },
    {
      "channel": 1,
      "note": 60,
      "start": 104.2171,
      "duration": 0.3374,
      "velocity": 105,
      "chip": "ym2612"
    },
    {
      "channel": 3,
      "note": 96,
      "start": 104.218,
      "duration": 0.3374,
      "velocity": 100,
      "chip": "ym2612"
    },
    {
      "channel": 4,
      "note": 81,
      "start": 104.2188,
      "duration": 0.3373,
      "velocity": 100,
      "chip": "ym2612"
    },
    {
      "channel": 5,
      "note": 91,
      "start": 104.2196,
      "duration": 0.3374,
      "velocity": 100,
      "chip": "ym2612"
    },
    {
      "channel": 2,
      "note": 62,
      "start": 104.2205,
      "duration": 0.3373,
      "velocity": 95,
      "chip": "ym2612"
    },
    {
      "channel": 0,
      "note": 62,
      "start": 104.5544,
      "duration": 0.3386,
      "velocity": 95,
      "chip": "ym2612"
    },
    {
      "channel": 1,
      "note": 62,
      "start": 104.5553,
      "duration": 0.3385,
      "velocity": 105,
      "chip": "ym2612"
    },
    {
      "channel": 3,
      "note": 98,
      "start": 104.556,
      "duration": 0.3387,
      "velocity": 100,
      "chip": "ym2612"
    },
    {
      "channel": 4,
      "note": 83,
      "start": 104.5568,
      "duration": 0.3387,
      "velocity": 100,
      "chip": "ym2612"
    },
    {
      "channel": 5,
      "note": 96,
      "start": 104.5576,
      "duration": 0.3386,
      "velocity": 100,
      "chip": "ym2612"
    },
    {
      "channel": 2,
      "note": 69,
      "start": 104.5584,
      "duration": 0.3385,
      "velocity": 95,
      "chip": "ym2612"
    },
    {
      "channel": 0,
      "note": 69,
      "start": 104.8937,
      "duration": 0.3396,
      "velocity": 95,
      "chip": "ym2612"
    },
    {
      "channel": 1,
      "note": 57,
      "start": 104.8946,
      "duration": 0.3396,
      "velocity": 105,
      "chip": "ym2612"
    },
    {
      "channel": 3,
      "note": 93,
      "start": 104.8953,
      "duration": 0.3397,
      "velocity": 100,
      "chip": "ym2612"
    },
    {
      "channel": 4,
      "note": 77,
      "start": 104.8961,
      "duration": 0.3397,
      "velocity": 100,
      "chip": "ym2612"
    },
    {
      "channel": 5,
      "note": 98,
      "start": 104.8969,
      "duration": 0.3397,
      "velocity": 100,
      "chip": "ym2612"
    },
    {
      "channel": 2,
      "note": 71,
      "start": 104.8977,
      "duration": 0.3397,
      "velocity": 95,
      "chip": "ym2612"
    },
    {
      "channel": 0,
      "note": 71,
      "start": 105.234,
      "duration": 0.3513,
      "velocity": 95,
      "chip": "ym2612"
    },
    {
      "channel": 1,
      "note": 60,
      "start": 105.2349,
      "duration": 0.3512,
      "velocity": 105,
      "chip": "ym2612"
    },
    {
      "channel": 3,
      "note": 96,
      "start": 105.2357,
      "duration": 0.3513,
      "velocity": 100,
      "chip": "ym2612"
    },
    {
      "channel": 4,
      "note": 81,
      "start": 105.2364,
      "duration": 0.3513,
      "velocity": 100,
      "chip": "ym2612"
    },
    {
      "channel": 5,
      "note": 93,
      "start": 105.2372,
      "duration": 0.3513,
      "velocity": 100,
      "chip": "ym2612"
    },
    {
      "channel": 2,
      "note": 72,
      "start": 105.2381,
      "duration": 0.3512,
      "velocity": 95,
      "chip": "ym2612"
    },
    {
      "channel": 0,
      "note": 72,
      "start": 105.586,
      "duration": 0.3664,
      "velocity": 95,
      "chip": "ym2612"
    },
    {
      "channel": 1,
      "note": 62,
      "start": 105.5869,
      "duration": 0.3663,
      "velocity": 105,
      "chip": "ym2612"
    },
    {
      "channel": 3,
      "note": 98,
      "start": 105.5876,
      "duration": 0.3664,
      "velocity": 100,
      "chip": "ym2612"
    },
    {
      "channel": 4,
      "note": 83,
      "start": 105.5884,
      "duration": 0.3665,
      "velocity": 100,
      "chip": "ym2612"
    },
    {
      "channel": 5,
      "note": 96,
      "start": 105.5892,
      "duration": 0.3664,
      "velocity": 100,
      "chip": "ym2612"
    },
    {
      "channel": 2,
      "note": 71,
      "start": 105.59,
      "duration": 0.3663,
      "velocity": 95,
      "chip": "ym2612"
    },
    {
      "channel": 0,
      "note": 71,
      "start": 105.953,
      "duration": 0.3677,
      "velocity": 95,
      "chip": "ym2612"
    },
    {
      "channel": 1,
      "note": 57,
      "start": 105.9539,
      "duration": 0.3676,
      "velocity": 105,
      "chip": "ym2612"
    },
    {
      "channel": 3,
      "note": 93,
      "start": 105.9547,
      "duration": 0.3677,
      "velocity": 100,
      "chip": "ym2612"
    },
    {
      "channel": 4,
      "note": 77,
      "start": 105.9554,
      "duration": 0.3678,
      "velocity": 100,
      "chip": "ym2612"
    },
    {
      "channel": 5,
      "note": 98,
      "start": 105.9562,
      "duration": 0.3678,
      "velocity": 100,
      "chip": "ym2612"
    },
    {
      "channel": 2,
      "note": 69,
      "start": 105.957,
      "duration": 0.3678,
      "velocity": 95,
      "chip": "ym2612"
    },
    {
      "channel": 0,
      "note": 69,
      "start": 106.3214,
      "duration": 0.3744,
      "velocity": 95,
      "chip": "ym2612"
    },
    {
      "channel": 1,
      "note": 60,
      "start": 106.3223,
      "duration": 0.7564,
      "velocity": 105,
      "chip": "ym2612"
    },
    {
      "channel": 3,
      "note": 96,
      "start": 106.3231,
      "duration": 0.7564,
      "velocity": 100,
      "chip": "ym2612"
    },
    {
      "channel": 4,
      "note": 79,
      "start": 106.3238,
      "duration": 0.7562,
      "velocity": 100,
      "chip": "ym2612"
    },
    {
      "channel": 5,
      "note": 93,
      "start": 106.3246,
      "duration": 0.3732,
      "velocity": 100,
      "chip": "ym2612"
    },
    {
      "channel": 2,
      "note": 67,
      "start": 106.3255,
      "duration": 0.3744,
      "velocity": 95,
      "chip": "ym2612"
    },
    {
      "channel": 0,
      "note": 67,
      "start": 106.6965,
      "duration": 0.3814,
      "velocity": 95,
      "chip": "ym2612"
    },
    {
      "channel": 5,
      "note": 96,
      "start": 106.6997,
      "duration": 0.7642,
      "velocity": 100,
      "chip": "ym2612"
    },
    {
      "channel": 2,
      "note": 74,
      "start": 106.7005,
      "duration": 0.3805,
      "velocity": 95,
      "chip": "ym2612"
    },
    {
      "channel": 0,
      "note": 74,
      "start": 107.0786,
      "duration": 0.3821,
      "velocity": 95,
      "chip": "ym2612"
    },
    {
      "channel": 1,
      "note": 60,
      "start": 107.0794,
      "duration": 0.3822,
      "velocity": 105,
      "chip": "ym2612"
    },
    {
      "channel": 3,
      "note": 96,
      "start": 107.0799,
      "duration": 0.3825,
      "velocity": 100,
      "chip": "ym2612"
    },
    {
      "channel": 4,
      "note": 79,
      "start": 107.0805,
      "duration": 0.3827,
      "velocity": 100,
      "chip": "ym2612"
    },
    {
      "channel": 2,
      "note": 76,
      "start": 107.0831,
      "duration": 0.3815,
      "velocity": 95,
      "chip": "ym2612"
    },
    {
      "channel": 0,
      "note": 76,
      "start": 107.4614,
      "duration": 0.3821,
      "velocity": 95,
      "chip": "ym2612"
    },
    {
      "channel": 1,
      "note": 59,
      "start": 107.4623,
      "duration": 0.7649,
      "velocity": 105,
      "chip": "ym2612"
    },
    {
      "channel": 3,
      "note": 95,
      "start": 107.4631,
      "duration": 0.7649,
      "velocity": 100,
      "chip": "ym2612"
    },
    {
      "channel": 4,
      "note": 74,
      "start": 107.4639,
      "duration": 0.7647,
      "velocity": 100,
      "chip": "ym2612"
    },
    {
      "channel": 5,
      "note": 96,
      "start": 107.4644,
      "duration": 0.3811,
      "velocity": 100,
      "chip": "ym2612"
    },
    {
      "channel": 2,
      "note": 77,
      "start": 107.4665,
      "duration": 0.3798,
      "velocity": 95,
      "chip": "ym2612"
    },
    {
      "channel": 0,
      "note": 77,
      "start": 107.8443,
      "duration": 0.3821,
      "velocity": 95,
      "chip": "ym2612"
    },
    {
      "channel": 5,
      "note": 95,
      "start": 107.8462,
      "duration": 0.7662,
      "velocity": 100,
      "chip": "ym2612"
    },
    {
      "channel": 2,
      "note": 76,
      "start": 107.847,
      "duration": 0.3825,
      "velocity": 95,
      "chip": "ym2612"
    },
    {
      "channel": 0,
      "note": 76,
      "start": 108.2271,
      "duration": 0.3821,
      "velocity": 95,
      "chip": "ym2612"
    },
    {
      "channel": 1,
      "note": 59,
      "start": 108.2278,
      "duration": 0.3821,
      "velocity": 105,
      "chip": "ym2612"
    },
    {
      "channel": 3,
      "note": 95,
      "start": 108.2284,
      "duration": 0.3824,
      "velocity": 100,
      "chip": "ym2612"
    },
    {
      "channel": 4,
      "note": 74,
      "start": 108.229,
      "duration": 0.3826,
      "velocity": 100,
      "chip": "ym2612"
    },
    {
      "channel": 2,
      "note": 74,
      "start": 108.2302,
      "duration": 0.3829,
      "velocity": 95,
      "chip": "ym2612"
    },
    {
      "channel": 0,
      "note": 74,
      "start": 108.6098,
      "duration": 0.3623,
      "velocity": 95,
      "chip": "ym2612"
    },
    {
      "channel": 1,
      "note": 60,
      "start": 108.6107,
      "duration": 2.0614,
      "velocity": 105,
      "chip": "ym2612"
    },
    {
      "channel": 3,
      "note": 96,
      "start": 108.6115,
      "duration": 2.0615,
      "velocity": 100,
      "chip": "ym2612"
    },
    {
      "channel": 4,
      "note": 79,
      "start": 108.6122,
      "duration": 2.0615,
      "velocity": 100,
      "chip": "ym2612"
    },
    {
      "channel": 5,
      "note": 95,
      "start": 108.6128,
      "duration": 0.3613,
      "velocity": 100,
      "chip": "ym2612"
    },
    {
      "channel": 2,
      "note": 60,
      "start": 108.6137,
      "duration": 0.3612,
      "velocity": 95,
      "chip": "ym2612"
    },
    {
      "channel": 0,
      "note": 60,
      "start": 108.9728,
      "duration": 0.3406,
      "velocity": 95,
      "chip": "ym2612"
    },
    {
      "channel": 5,
      "note": 96,
      "start": 108.9748,
      "duration": 2.0381,
      "velocity": 100,
      "chip": "ym2612"
    },
    {
      "channel": 2,
      "note": 67,
      "start": 108.9756,
      "duration": 0.3415,
      "velocity": 95,
      "chip": "ym2612"
    },
    {
      "channel": 0,
      "note": 67,
      "start": 109.314,
      "duration": 0.3389,
      "velocity": 95,
      "chip": "ym2612"
    },
    {
      "channel": 2,
      "note": 69,
      "start": 109.3177,
      "duration": 0.3375,
      "velocity": 95,
      "chip": "ym2612"
    },
    {
      "channel": 0,
      "note": 69,
      "start": 109.6535,
      "duration": 0.3388,
      "velocity": 95,
      "chip": "ym2612"
    },
    {
      "channel": 2,
      "note": 71,
      "start": 109.6559,
      "duration": 0.3388,
      "velocity": 95,
      "chip": "ym2612"
    },
    {
      "channel": 0,
      "note": 71,
      "start": 109.993,
      "duration": 0.3401,
      "velocity": 95,
      "chip": "ym2612"
    },
    {
      "channel": 2,
      "note": 69,
      "start": 109.9953,
      "duration": 0.3401,
      "velocity": 95,
      "chip": "ym2612"
    },
    {
      "channel": 0,
      "note": 69,
      "start": 110.3338,
      "duration": 0.3375,
      "velocity": 95,
      "chip": "ym2612"
    },
    {
      "channel": 2,
      "note": 67,
      "start": 110.3361,
      "duration": 0.3389,
      "velocity": 95,
      "chip": "ym2612"
    },
    {
      "channel": 0,
      "note": 67,
      "start": 110.672,
      "duration": 0.3389,
      "velocity": 95,
      "chip": "ym2612"
    },
    {
      "channel": 1,
      "note": 60,
      "start": 110.6729,
      "duration": 2.0361,
      "velocity": 105,
      "chip": "ym2612"
    },
    {
      "channel": 3,
      "note": 96,
      "start": 110.6737,
      "duration": 2.0362,
      "velocity": 100,
      "chip": "ym2612"
    },
    {
      "channel": 4,
      "note": 79,
      "start": 110.6744,
      "duration": 2.0362,
      "velocity": 100,
      "chip": "ym2612"
    },
    {
      "channel": 2,
      "note": 60,
      "start": 110.6756,
      "duration": 0.338,
      "velocity": 95,
      "chip": "ym2612"
    },
    {
      "channel": 0,
      "note": 60,
      "start": 111.0116,
      "duration": 0.3387,
      "velocity": 95,
      "chip": "ym2612"
    },
    {
      "channel": 5,
      "note": 96,
      "start": 111.0135,
      "duration": 2.0376,
      "velocity": 100,
      "chip": "ym2612"
    },
    {
      "channel": 2,
      "note": 67,
      "start": 111.0143,
      "duration": 0.3383,
      "velocity": 95,
      "chip": "ym2612"
    },
    {
      "channel": 0,
      "note": 67,
      "start": 111.3509,
      "duration": 0.3389,
      "velocity": 95,
      "chip": "ym2612"
    },
    {
      "channel": 2,
      "note": 69,
      "start": 111.3532,
      "duration": 0.3389,
      "velocity": 95,
      "chip": "ym2612"
    },
    {
      "channel": 0,
      "note": 69,
      "start": 111.6905,
      "duration": 0.3387,
      "velocity": 95,
      "chip": "ym2612"
    },
    {
      "channel": 2,
      "note": 71,
      "start": 111.6928,
      "duration": 0.3388,
      "velocity": 95,
      "chip": "ym2612"
    },
    {
      "channel": 0,
      "note": 71,
      "start": 112.0299,
      "duration": 0.3388,
      "velocity": 95,
      "chip": "ym2612"
    },
    {
      "channel": 2,
      "note": 69,
      "start": 112.0336,
      "duration": 0.3375,
      "velocity": 95,
      "chip": "ym2612"
    },
    {
      "channel": 0,
      "note": 69,
      "start": 112.3694,
      "duration": 0.3387,
      "velocity": 95,
      "chip": "ym2612"
    },
    {
      "channel": 2,
      "note": 67,
      "start": 112.3717,
      "duration": 0.3401,
      "velocity": 95,
      "chip": "ym2612"
    },
    {
      "channel": 0,
      "note": 67,
      "start": 112.7088,
      "duration": 0.3389,
      "velocity": 95,
      "chip": "ym2612"
    },
    {
      "channel": 1,
      "note": 59,
      "start": 112.7097,
      "duration": 2.0361,
      "velocity": 105,
      "chip": "ym2612"
    },
    {
      "channel": 3,
      "note": 100,
      "start": 112.7105,
      "duration": 2.0367,
      "velocity": 100,
      "chip": "ym2612"
    },
    {
      "channel": 4,
      "note": 79,
      "start": 112.7112,
      "duration": 1.017,
      "velocity": 100,
      "chip": "ym2612"
    },
    {
      "channel": 2,
      "note": 60,
      "start": 112.7125,
      "duration": 0.3394,
      "velocity": 95,
      "chip": "ym2612"
    },
    {
      "channel": 0,
      "note": 60,
      "start": 113.0498,
      "duration": 0.3373,
      "velocity": 95,
      "chip": "ym2612"
    },
    {
      "channel": 5,
      "note": 100,
      "start": 113.0517,
      "duration": 2.0365,
      "velocity": 100,
      "chip": "ym2612"
    },
    {
      "channel": 2,
      "note": 67,
      "start": 113.0525,
      "duration": 0.337,
      "velocity": 95,
      "chip": "ym2612"
    },
    {
      "channel": 0,
      "note": 67,
      "start": 113.3878,
      "duration": 0.3388,
      "velocity": 95,
      "chip": "ym2612"
    },
    {
      "channel": 2,
      "note": 69,
      "start": 113.3901,
      "duration": 0.3392,
      "velocity": 95,
      "chip": "ym2612"
    },
    {
      "channel": 0,
      "note": 69,
      "start": 113.7273,
      "duration": 0.3394,
      "velocity": 95,
      "chip": "ym2612"
    },
    {
      "channel": 4,
      "note": 76,
      "start": 113.7288,
      "duration": 0.3395,
      "velocity": 100,
      "chip": "ym2612"
    },
    {
      "channel": 2,
      "note": 71,
      "start": 113.73,
      "duration": 0.3394,
      "velocity": 95,
      "chip": "ym2612"
    },
    {
      "channel": 0,
      "note": 71,
      "start": 114.0673,
      "duration": 0.3382,
      "velocity": 95,
      "chip": "ym2612"
    },
    {
      "channel": 4,
      "note": 72,
      "start": 114.0689,
      "duration": 0.3383,
      "velocity": 100,
      "chip": "ym2612"
    },
    {
      "channel": 2,
      "note": 69,
      "start": 114.0701,
      "duration": 0.3382,
      "velocity": 95,
      "chip": "ym2612"
    },
    {
      "channel": 0,
      "note": 69,
      "start": 114.4062,
      "duration": 0.3388,
      "velocity": 95,
      "chip": "ym2612"
    },
    {
      "channel": 4,
      "note": 67,
      "start": 114.4077,
      "duration": 0.3419,
      "velocity": 100,
      "chip": "ym2612"
    },
    {
      "channel": 2,
      "note": 67,
      "start": 114.409,
      "duration": 0.3419,
      "velocity": 95,
      "chip": "ym2612"
    },
    {
      "channel": 0,
      "note": 67,
      "start": 114.7457,
      "duration": 0.3389,
      "velocity": 95,
      "chip": "ym2612"
    },
    {
      "channel": 1,
      "note": 60,
      "start": 114.7466,
      "duration": 0.3388,
      "velocity": 105,
      "chip": "ym2612"
    },
    {
      "channel": 3,
      "note": 60,
      "start": 114.7478,
      "duration": 0.1693,
      "velocity": 100,
      "chip": "ym2612"
    },
    {
      "channel": 4,
      "note": 64,
      "start": 114.7502,
      "duration": 0.1676,
      "velocity": 100,
      "chip": "ym2612"
    },
    {
      "channel": 2,
      "note": 64,
      "start": 114.7515,
      "duration": 0.3375,
      "velocity": 95,
      "chip": "ym2612"
    },
    {
      "channel": 3,
      "note": 64,
      "start": 114.9176,
      "duration": 0.1687,
      "velocity": 100,
      "chip": "ym2612"
    },
    {
      "channel": 4,
      "note": 67,
      "start": 114.9184,
      "duration": 0.1687,
      "velocity": 100,
      "chip": "ym2612"
    },
    {
      "channel": 0,
      "note": 64,
      "start": 115.0853,
      "duration": 0.3387,
      "velocity": 95,
      "chip": "ym2612"
    },
    {
      "channel": 1,
      "note": 64,
      "start": 115.0862,
      "duration": 0.3387,
      "velocity": 105,
      "chip": "ym2612"
    },
    {
      "channel": 3,
      "note": 67,
      "start": 115.0869,
      "duration": 0.1683,
      "velocity": 100,
      "chip": "ym2612"
    },
    {
      "channel": 4,
      "note": 72,
      "start": 115.0876,
      "duration": 0.1683,
      "velocity": 100,
      "chip": "ym2612"
    },
    {
      "channel": 5,
      "note": 60,
      "start": 115.0888,
      "duration": 0.1679,
      "velocity": 100,
      "chip": "ym2612"
    },
    {
      "channel": 2,
      "note": 67,
      "start": 115.0896,
      "duration": 0.3383,
      "velocity": 95,
      "chip": "ym2612"
    },
    {
      "channel": 3,
      "note": 72,
      "start": 115.2558,
      "duration": 0.17,
      "velocity": 100,
      "chip": "ym2612"
    },
    {
      "channel": 4,
      "note": 76,
      "start": 115.2565,
      "duration": 0.17,
      "velocity": 100,
      "chip": "ym2612"
    },
    {
      "channel": 5,
      "note": 64,
      "start": 115.2572,
      "duration": 0.17,
      "velocity": 100,
      "chip": "ym2612"
    },
    {
      "channel": 0,
      "note": 67,
      "start": 115.4247,
      "duration": 0.3387,
      "velocity": 95,
      "chip": "ym2612"
    },
    {
      "channel": 1,
      "note": 67,
      "start": 115.4256,
      "duration": 0.3386,
      "velocity": 105,
      "chip": "ym2612"
    },
    {
      "channel": 3,
      "note": 76,
      "start": 115.4264,
      "duration": 0.1683,
      "velocity": 100,
      "chip": "ym2612"
    },
    {
      "channel": 4,
      "note": 79,
      "start": 115.4271,
      "duration": 0.1683,
      "velocity": 100,
      "chip": "ym2612"
    },
    {
      "channel": 5,
      "note": 67,
      "start": 115.4278,
      "duration": 0.1683,
      "velocity": 100,
      "chip": "ym2612"
    },
    {
      "channel": 2,
      "note": 72,
      "start": 115.4287,
      "duration": 0.3401,
      "velocity": 95,
      "chip": "ym2612"
    },
    {
      "channel": 3,
      "note": 79,
      "start": 115.5952,
      "duration": 0.1713,
      "velocity": 100,
      "chip": "ym2612"
    },
    {
      "channel": 4,
      "note": 84,
      "start": 115.596,
      "duration": 0.1713,
      "velocity": 100,
      "chip": "ym2612"
    },
    {
      "channel": 5,
      "note": 72,
      "start": 115.5967,
      "duration": 0.1713,
      "velocity": 100,
      "chip": "ym2612"
    },
    {
      "channel": 0,
      "note": 72,
      "start": 115.7641,
      "duration": 0.3389,
      "velocity": 95,
      "chip": "ym2612"
    },
    {
      "channel": 1,
      "note": 72,
      "start": 115.7664,
      "duration": 0.3375,
      "velocity": 105,
      "chip": "ym2612"
    },
    {
      "channel": 3,
      "note": 84,
      "start": 115.7671,
      "duration": 0.1672,
      "velocity": 100,
      "chip": "ym2612"
    },
    {
      "channel": 4,
      "note": 88,
      "start": 115.7679,
      "duration": 0.1672,
      "velocity": 100,
      "chip": "ym2612"
    },
    {
      "channel": 5,
      "note": 76,
      "start": 115.7686,
      "duration": 0.1672,
      "velocity": 100,
      "chip": "ym2612"
    },
    {
      "channel": 2,
      "note": 76,
      "start": 115.7694,
      "duration": 0.3376,
      "velocity": 95,
      "chip": "ym2612"
    },
    {
      "channel": 3,
      "note": 88,
      "start": 115.935,
      "duration": 0.1698,
      "velocity": 100,
      "chip": "ym2612"
    },
    {
      "channel": 4,
      "note": 91,
      "start": 115.9357,
      "duration": 0.1698,
      "velocity": 100,
      "chip": "ym2612"
    },
    {
      "channel": 5,
      "note": 79,
      "start": 115.9364,
      "duration": 0.1698,
      "velocity": 100,
      "chip": "ym2612"
    },
    {
      "channel": 0,
      "note": 76,
      "start": 116.1037,
      "duration": 0.3387,
      "velocity": 95,
      "chip": "ym2612"
    },
    {
      "channel": 1,
      "note": 76,
      "start": 116.1046,
      "duration": 0.682,
      "velocity": 105,
      "chip": "ym2612"
    },
    {
      "channel": 3,
      "note": 91,
      "start": 116.1054,
      "duration": 0.1682,
      "velocity": 100,
      "chip": "ym2612"
    },
    {
      "channel": 4,
      "note": 96,
      "start": 116.1061,
      "duration": 0.1682,
      "velocity": 100,
      "chip": "ym2612"
    },
    {
      "channel": 5,
      "note": 84,
      "start": 116.1069,
      "duration": 0.1682,
      "velocity": 100,
      "chip": "ym2612"
    },
    {
      "channel": 2,
      "note": 79,
      "start": 116.1077,
      "duration": 0.3388,
      "velocity": 95,
      "chip": "ym2612"
    },
    {
      "channel": 3,
      "note": 96,
      "start": 116.2742,
      "duration": 0.17,
      "velocity": 100,
      "chip": "ym2612"
    },
    {
      "channel": 4,
      "note": 100,
      "start": 116.275,
      "duration": 0.17,
      "velocity": 100,
      "chip": "ym2612"
    },
    {
      "channel": 5,
      "note": 88,
      "start": 116.2757,
      "duration": 0.17,
      "velocity": 100,
      "chip": "ym2612"
    },
    {
      "channel": 0,
      "note": 79,
      "start": 116.4431,
      "duration": 0.3401,
      "velocity": 95,
      "chip": "ym2612"
    },
    {
      "channel": 3,
      "note": 100,
      "start": 116.4448,
      "duration": 0.3455,
      "velocity": 100,
      "chip": "ym2612"
    },
    {
      "channel": 4,
      "note": 103,
      "start": 116.4456,
      "duration": 0.3483,
      "velocity": 100,
      "chip": "ym2612"
    },
    {
      "channel": 5,
      "note": 91,
      "start": 116.4463,
      "duration": 0.1674,
      "velocity": 100,
      "chip": "ym2612"
    },
    {
      "channel": 2,
      "note": 60,
      "start": 116.4472,
      "duration": 0.3506,
      "velocity": 105,
      "chip": "ym2612"
    },
    {
      "channel": 5,
      "note": 96,
      "start": 116.6144,
      "duration": 0.1803,
      "velocity": 100,
      "chip": "ym2612"
    },
    {
      "channel": 0,
      "note": 60,
      "start": 116.7839,
      "duration": 0.3402,
      "velocity": 105,
      "chip": "ym2612"
    },
    {
      "channel": 1,
      "note": 50,
      "start": 116.7874,
      "duration": 0.3376,
      "velocity": 105,
      "chip": "ym2612"
    },
    {
      "channel": 2,
      "note": 50,
      "start": 116.7998,
      "duration": 0.3268,
      "velocity": 105,
      "chip": "ym2612"
    },
    {
      "channel": 0,
      "note": 50,
      "start": 117.1249,
      "duration": 0.0017,
      "velocity": 105,
      "chip": "ym2612"
    },
    {
      "channel": 1,
      "note": 57,
      "start": 117.1258,
      "duration": 0.0008,
      "velocity": 105,
      "chip": "ym2612"
    },
    {
      "channel": 3,
      "note": 88,
      "start": 117.1266,
      "duration": 0.0,
      "velocity": 100,
      "chip": "ym2612"
    }
  ]
}