{
  "track_name": "41 - Omake 7",
  "duration_sec": 112.77,
  "sample_rate": 44100,
  "note_count": 1364,
  "unique_pitches": 29,
  "pitch_range": 36,
  "avg_note_duration": 0.3635,
  "reconstruction_stats": {
    "notes_reconstructed": 1364,
    "keyon_events": 1364,
    "keyoff_events": 1360,
    "orphan_keyons": 4,
    "unique_pitches": 29,
    "pitch_range": 36,
    "avg_duration_sec": 0.3635
  },
  "metadata": {
    "source": "T\\Thunder Force IV\\41 - Omake 7.vgz"
  },
  "notes": [
    {
      "channel": 0,
      "note": 44,
      "start": 0.0,
      "duration": 1.842,
      "velocity": 87,
      "chip": "ym2612"
    },
    {
      "channel": 1,
      "note": 49,
      "start": 0.0021,
      "duration": 0.4321,
      "velocity": 111,
      "chip": "ym2612"
    },
    {
      "channel": 2,
      "note": 73,
      "start": 0.0086,
      "duration": 0.1917,
      "velocity": 111,
      "chip": "ym2612"
    },
    {
      "channel": 3,
      "note": 61,
      "start": 0.0147,
      "duration": 0.0689,
      "velocity": 127,
      "chip": "ym2612"
    },
    {
      "channel": 2,
      "note": 68,
      "start": 0.241,
      "duration": 0.194,
      "velocity": 111,
      "chip": "ym2612"
    },
    {
      "channel": 3,
      "note": 61,
      "start": 0.2471,
      "duration": 0.0139,
      "velocity": 119,
      "chip": "ym2612"
    },
    {
      "channel": 4,
      "note": 44,
      "start": 0.3654,
      "duration": 1.8321,
      "velocity": 87,
      "chip": "ym2612"
    },
    {
      "channel": 5,
      "note": 73,
      "start": 0.3719,
      "duration": 0.1831,
      "velocity": 111,
      "chip": "ym2612"
    },
    {
      "channel": 1,
      "note": 49,
      "start": 0.475,
      "duration": 0.4288,
      "velocity": 111,
      "chip": "ym2612"
    },
    {
      "channel": 2,
      "note": 73,
      "start": 0.4776,
      "duration": 0.192,
      "velocity": 111,
      "chip": "ym2612"
    },
    {
      "channel": 3,
      "note": 61,
      "start": 0.4797,
      "duration": 0.016,
      "velocity": 119,
      "chip": "ym2612"
    },
    {
      "channel": 5,
      "note": 68,
      "start": 0.5966,
      "duration": 0.1928,
      "velocity": 111,
      "chip": "ym2612"
    },
    {
      "channel": 2,
      "note": 74,
      "start": 0.7113,
      "duration": 0.1932,
      "velocity": 111,
      "chip": "ym2612"
    },
    {
      "channel": 3,
      "note": 61,
      "start": 0.7166,
      "duration": 0.0713,
      "velocity": 127,
      "chip": "ym2612"
    },
    {
      "channel": 5,
      "note": 73,
      "start": 0.8313,
      "duration": 0.1929,
      "velocity": 111,
      "chip": "ym2612"
    },
    {
      "channel": 1,
      "note": 49,
      "start": 0.9453,
      "duration": 0.428,
      "velocity": 111,
      "chip": "ym2612"
    },
    {
      "channel": 2,
      "note": 73,
      "start": 0.9473,
      "duration": 0.1919,
      "velocity": 111,
      "chip": "ym2612"
    },
    {
      "channel": 3,
      "note": 61,
      "start": 0.9528,
      "duration": 0.0698,
      "velocity": 127,
      "chip": "ym2612"
    },
    {
      "channel": 5,
      "note": 74,
      "start": 1.066,
      "duration": 0.1931,
      "velocity": 111,
      "chip": "ym2612"
    },
    {
      "channel": 2,
      "note": 68,
      "start": 1.1806,
      "duration": 0.1935,
      "velocity": 111,
      "chip": "ym2612"
    },
    {
      "channel": 3,
      "note": 61,
      "start": 1.186,
      "duration": 0.0131,
      "velocity": 119,
      "chip": "ym2612"
    },
    {
      "channel": 5,
      "note": 73,
      "start": 1.3001,
      "duration": 0.1946,
      "velocity": 111,
      "chip": "ym2612"
    },
    {
      "channel": 1,
      "note": 49,
      "start": 1.4139,
      "duration": 0.4289,
      "velocity": 111,
      "chip": "ym2612"
    },
    {
      "channel": 2,
      "note": 73,
      "start": 1.4158,
      "duration": 0.1929,
      "velocity": 111,
      "chip": "ym2612"
    },
    {
      "channel": 3,
      "note": 61,
      "start": 1.4179,
      "duration": 0.0159,
      "velocity": 119,
      "chip": "ym2612"
    },
    {
      "channel": 5,
      "note": 68,
      "start": 1.5347,
      "duration": 0.1945,
      "velocity": 111,
      "chip": "ym2612"
    },
    {
      "channel": 2,
      "note": 74,
      "start": 1.6495,
      "duration": 0.195,
      "velocity": 111,
      "chip": "ym2612"
    },
    {
      "channel": 3,
      "note": 61,
      "start": 1.6547,
      "duration": 0.0729,
      "velocity": 127,
      "chip": "ym2612"
    },
    {
      "channel": 5,
      "note": 73,
      "start": 1.7695,
      "duration": 0.1945,
      "velocity": 111,
      "chip": "ym2612"
    },
    {
      "channel": 0,
      "note": 49,
      "start": 1.8826,
      "duration": 1.8377,
      "velocity": 87,
      "chip": "ym2612"
    },
    {
      "channel": 1,
      "note": 49,
      "start": 1.8844,
      "duration": 0.4278,
      "velocity": 111,
      "chip": "ym2612"
    },
    {
      "channel": 2,
      "note": 73,
      "start": 1.8864,
      "duration": 0.1934,
      "velocity": 111,
      "chip": "ym2612"
    },
    {
      "channel": 3,
      "note": 61,
      "start": 1.8919,
      "duration": 0.0707,
      "velocity": 127,
      "chip": "ym2612"
    },
    {
      "channel": 5,
      "note": 74,
      "start": 2.0041,
      "duration": 0.1941,
      "velocity": 111,
      "chip": "ym2612"
    },
    {
      "channel": 2,
      "note": 68,
      "start": 2.1189,
      "duration": 0.1941,
      "velocity": 111,
      "chip": "ym2612"
    },
    {
      "channel": 3,
      "note": 61,
      "start": 2.1243,
      "duration": 0.0139,
      "velocity": 119,
      "chip": "ym2612"
    },
    {
      "channel": 4,
      "note": 49,
      "start": 2.238,
      "duration": 1.8375,
      "velocity": 87,
      "chip": "ym2612"
    },
    {
      "channel": 5,
      "note": 73,
      "start": 2.24,
      "duration": 0.1938,
      "velocity": 111,
      "chip": "ym2612"
    },
    {
      "channel": 1,
      "note": 49,
      "start": 2.3529,
      "duration": 0.4295,
      "velocity": 111,
      "chip": "ym2612"
    },
    {
      "channel": 2,
      "note": 73,
      "start": 2.3549,
      "duration": 0.1937,
      "velocity": 111,
      "chip": "ym2612"
    },
    {
      "channel": 3,
      "note": 61,
      "start": 2.357,
      "duration": 0.0159,
      "velocity": 119,
      "chip": "ym2612"
    },
    {
      "channel": 5,
      "note": 68,
      "start": 2.4746,
      "duration": 0.1936,
      "velocity": 111,
      "chip": "ym2612"
    },
    {
      "channel": 2,
      "note": 74,
      "start": 2.5892,
      "duration": 0.194,
      "velocity": 111,
      "chip": "ym2612"
    },
    {
      "channel": 3,
      "note": 61,
      "start": 2.5954,
      "duration": 0.0712,
      "velocity": 127,
      "chip": "ym2612"
    },
    {
      "channel": 5,
      "note": 73,
      "start": 2.7092,
      "duration": 0.1937,
      "velocity": 111,
      "chip": "ym2612"
    },
    {
      "channel": 1,
      "note": 49,
      "start": 2.8231,
      "duration": 0.4286,
      "velocity": 111,
      "chip": "ym2612"
    },
    {
      "channel": 2,
      "note": 73,
      "start": 2.8251,
      "duration": 0.1926,
      "velocity": 111,
      "chip": "ym2612"
    },
    {
      "channel": 3,
      "note": 61,
      "start": 2.8314,
      "duration": 0.0698,
      "velocity": 127,
      "chip": "ym2612"
    },
    {
      "channel": 5,
      "note": 74,
      "start": 2.9447,
      "duration": 0.193,
      "velocity": 111,
      "chip": "ym2612"
    },
    {
      "channel": 2,
      "note": 68,
      "start": 3.0588,
      "duration": 0.1937,
      "velocity": 111,
      "chip": "ym2612"
    },
    {
      "channel": 3,
      "note": 61,
      "start": 3.0649,
      "duration": 0.013,
      "velocity": 119,
      "chip": "ym2612"
    },
    {
      "channel": 5,
      "note": 73,
      "start": 3.1794,
      "duration": 0.1929,
      "velocity": 111,
      "chip": "ym2612"
    },
    {
      "channel": 1,
      "note": 49,
      "start": 3.2923,
      "duration": 0.4288,
      "velocity": 111,
      "chip": "ym2612"
    },
    {
      "channel": 2,
      "note": 73,
      "start": 3.2951,
      "duration": 0.1919,
      "velocity": 111,
      "chip": "ym2612"
    },
    {
      "channel": 3,
      "note": 61,
      "start": 3.2972,
      "duration": 0.0155,
      "velocity": 119,
      "chip": "ym2612"
    },
    {
      "channel": 5,
      "note": 68,
      "start": 3.4139,
      "duration": 0.1927,
      "velocity": 111,
      "chip": "ym2612"
    },
    {
      "channel": 2,
      "note": 74,
      "start": 3.5286,
      "duration": 0.1933,
      "velocity": 111,
      "chip": "ym2612"
    },
    {
      "channel": 3,
      "note": 61,
      "start": 3.534,
      "duration": 0.0711,
      "velocity": 127,
      "chip": "ym2612"
    },
    {
      "channel": 5,
      "note": 73,
      "start": 3.6485,
      "duration": 0.1928,
      "velocity": 111,
      "chip": "ym2612"
    },
    {
      "channel": 0,
      "note": 50,
      "start": 3.7619,
      "duration": 3.7139,
      "velocity": 87,
      "chip": "ym2612"
    },
    {
      "channel": 1,
      "note": 50,
      "start": 3.7638,
      "duration": 0.4263,
      "velocity": 111,
      "chip": "ym2612"
    },
    {
      "channel": 2,
      "note": 74,
      "start": 3.7662,
      "duration": 0.19,
      "velocity": 111,
      "chip": "ym2612"
    },
    {
      "channel": 3,
      "note": 61,
      "start": 3.7717,
      "duration": 0.068,
      "velocity": 127,
      "chip": "ym2612"
    },
    {
      "channel": 5,
      "note": 74,
      "start": 3.8833,
      "duration": 0.1931,
      "velocity": 111,
      "chip": "ym2612"
    },
    {
      "channel": 2,
      "note": 69,
      "start": 3.998,
      "duration": 0.193,
      "velocity": 111,
      "chip": "ym2612"
    },
    {
      "channel": 3,
      "note": 61,
      "start": 4.0033,
      "duration": 0.0128,
      "velocity": 119,
      "chip": "ym2612"
    },
    {
      "channel": 4,
      "note": 50,
      "start": 4.1166,
      "duration": 3.7148,
      "velocity": 87,
      "chip": "ym2612"
    },
    {
      "channel": 5,
      "note": 74,
      "start": 4.1191,
      "duration": 0.1927,
      "velocity": 111,
      "chip": "ym2612"
    },
    {
      "channel": 1,
      "note": 50,
      "start": 4.2309,
      "duration": 0.4288,
      "velocity": 111,
      "chip": "ym2612"
    },
    {
      "channel": 2,
      "note": 74,
      "start": 4.2328,
      "duration": 0.1928,
      "velocity": 111,
      "chip": "ym2612"
    },
    {
      "channel": 3,
      "note": 61,
      "start": 4.2349,
      "duration": 0.016,
      "velocity": 119,
      "chip": "ym2612"
    },
    {
      "channel": 5,
      "note": 69,
      "start": 4.3517,
      "duration": 0.1945,
      "velocity": 111,
      "chip": "ym2612"
    },
    {
      "channel": 2,
      "note": 75,
      "start": 4.4664,
      "duration": 0.1949,
      "velocity": 111,
      "chip": "ym2612"
    },
    {
      "channel": 3,
      "note": 61,
      "start": 4.4717,
      "duration": 0.0729,
      "velocity": 127,
      "chip": "ym2612"
    },
    {
      "channel": 5,
      "note": 74,
      "start": 4.5863,
      "duration": 0.1945,
      "velocity": 111,
      "chip": "ym2612"
    },
    {
      "channel": 1,
      "note": 50,
      "start": 4.7004,
      "duration": 0.4287,
      "velocity": 111,
      "chip": "ym2612"
    },
    {
      "channel": 2,
      "note": 74,
      "start": 4.7024,
      "duration": 0.1933,
      "velocity": 111,
      "chip": "ym2612"
    },
    {
      "channel": 3,
      "note": 61,
      "start": 4.708,
      "duration": 0.0714,
      "velocity": 127,
      "chip": "ym2612"
    },
    {
      "channel": 5,
      "note": 75,
      "start": 4.8211,
      "duration": 0.1945,
      "velocity": 111,
      "chip": "ym2612"
    },
    {
      "channel": 2,
      "note": 69,
      "start": 4.9358,
      "duration": 0.1941,
      "velocity": 111,
      "chip": "ym2612"
    },
    {
      "channel": 3,
      "note": 61,
      "start": 4.9412,
      "duration": 0.0138,
      "velocity": 119,
      "chip": "ym2612"
    },
    {
      "channel": 5,
      "note": 74,
      "start": 5.0561,
      "duration": 0.1938,
      "velocity": 111,
      "chip": "ym2612"
    },
    {
      "channel": 1,
      "note": 50,
      "start": 5.1698,
      "duration": 0.4288,
      "velocity": 111,
      "chip": "ym2612"
    },
    {
      "channel": 2,
      "note": 74,
      "start": 5.1717,
      "duration": 0.1928,
      "velocity": 111,
      "chip": "ym2612"
    },
    {
      "channel": 3,
      "note": 61,
      "start": 5.1738,
      "duration": 0.016,
      "velocity": 119,
      "chip": "ym2612"
    },
    {
      "channel": 5,
      "note": 69,
      "start": 5.2907,
      "duration": 0.1937,
      "velocity": 111,
      "chip": "ym2612"
    },
    {
      "channel": 2,
      "note": 75,
      "start": 5.4054,
      "duration": 0.194,
      "velocity": 111,
      "chip": "ym2612"
    },
    {
      "channel": 3,
      "note": 61,
      "start": 5.4115,
      "duration": 0.0713,
      "velocity": 127,
      "chip": "ym2612"
    },
    {
      "channel": 5,
      "note": 74,
      "start": 5.5254,
      "duration": 0.1937,
      "velocity": 111,
      "chip": "ym2612"
    },
    {
      "channel": 1,
      "note": 50,
      "start": 5.6402,
      "duration": 0.428,
      "velocity": 111,
      "chip": "ym2612"
    },
    {
      "channel": 2,
      "note": 74,
      "start": 5.6422,
      "duration": 0.1919,
      "velocity": 111,
      "chip": "ym2612"
    },
    {
      "channel": 3,
      "note": 61,
      "start": 5.6485,
      "duration": 0.069,
      "velocity": 127,
      "chip": "ym2612"
    },
    {
      "channel": 5,
      "note": 75,
      "start": 5.7609,
      "duration": 0.1931,
      "velocity": 111,
      "chip": "ym2612"
    },
    {
      "channel": 2,
      "note": 69,
      "start": 5.8749,
      "duration": 0.1941,
      "velocity": 111,
      "chip": "ym2612"
    },
    {
      "channel": 3,
      "note": 61,
      "start": 5.8811,
      "duration": 0.0137,
      "velocity": 119,
      "chip": "ym2612"
    },
    {
      "channel": 5,
      "note": 74,
      "start": 5.9967,
      "duration": 0.1921,
      "velocity": 111,
      "chip": "ym2612"
    },
    {
      "channel": 1,
      "note": 50,
      "start": 6.1088,
      "duration": 0.4288,
      "velocity": 111,
      "chip": "ym2612"
    },
    {
      "channel": 2,
      "note": 74,
      "start": 6.1115,
      "duration": 0.192,
      "velocity": 111,
      "chip": "ym2612"
    },
    {
      "channel": 3,
      "note": 61,
      "start": 6.1136,
      "duration": 0.016,
      "velocity": 119,
      "chip": "ym2612"
    },
    {
      "channel": 5,
      "note": 69,
      "start": 6.2304,
      "duration": 0.1929,
      "velocity": 111,
      "chip": "ym2612"
    },
    {
      "channel": 2,
      "note": 75,
      "start": 6.3452,
      "duration": 0.1932,
      "velocity": 111,
      "chip": "ym2612"
    },
    {
      "channel": 3,
      "note": 61,
      "start": 6.3505,
      "duration": 0.0712,
      "velocity": 127,
      "chip": "ym2612"
    },
    {
      "channel": 5,
      "note": 74,
      "start": 6.4652,
      "duration": 0.1929,
      "velocity": 111,
      "chip": "ym2612"
    },
    {
      "channel": 1,
      "note": 50,
      "start": 6.5791,
      "duration": 0.4279,
      "velocity": 111,
      "chip": "ym2612"
    },
    {
      "channel": 2,
      "note": 74,
      "start": 6.5811,
      "duration": 0.1919,
      "velocity": 111,
      "chip": "ym2612"
    },
    {
      "channel": 3,
      "note": 61,
      "start": 6.5866,
      "duration": 0.07,
      "velocity": 127,
      "chip": "ym2612"
    },
    {
      "channel": 5,
      "note": 75,
      "start": 6.6999,
      "duration": 0.1931,
      "velocity": 111,
      "chip": "ym2612"
    },
    {
      "channel": 2,
      "note": 69,
      "start": 6.8139,
      "duration": 0.1939,
      "velocity": 111,
      "chip": "ym2612"
    },
    {
      "channel": 3,
      "note": 61,
      "start": 6.8192,
      "duration": 0.0137,
      "velocity": 119,
      "chip": "ym2612"
    },
    {
      "channel": 5,
      "note": 74,
      "start": 6.9339,
      "duration": 0.1947,
      "velocity": 111,
      "chip": "ym2612"
    },
    {
      "channel": 1,
      "note": 50,
      "start": 7.0478,
      "duration": 0.4296,
      "velocity": 111,
      "chip": "ym2612"
    },
    {
      "channel": 2,
      "note": 74,
      "start": 7.0497,
      "duration": 0.1929,
      "velocity": 111,
      "chip": "ym2612"
    },
    {
      "channel": 3,
      "note": 61,
      "start": 7.0519,
      "duration": 0.0159,
      "velocity": 119,
      "chip": "ym2612"
    },
    {
      "channel": 5,
      "note": 69,
      "start": 7.1685,
      "duration": 0.1946,
      "velocity": 111,
      "chip": "ym2612"
    },
    {
      "channel": 2,
      "note": 75,
      "start": 7.2833,
      "duration": 0.195,
      "velocity": 111,
      "chip": "ym2612"
    },
    {
      "channel": 3,
      "note": 61,
      "start": 7.2886,
      "duration": 0.073,
      "velocity": 127,
      "chip": "ym2612"
    },
    {
      "channel": 5,
      "note": 74,
      "start": 7.4033,
      "duration": 0.1946,
      "velocity": 111,
      "chip": "ym2612"
    },
    {
      "channel": 0,
      "note": 44,
      "start": 7.5166,
      "duration": 1.8372,
      "velocity": 87,
      "chip": "ym2612"
    },
    {
      "channel": 1,
      "note": 49,
      "start": 7.5187,
      "duration": 0.4273,
      "velocity": 111,
      "chip": "ym2612"
    },
    {
      "channel": 2,
      "note": 73,
      "start": 7.5215,
      "duration": 0.1907,
      "velocity": 111,
      "chip": "ym2612"
    },
    {
      "channel": 3,
      "note": 61,
      "start": 7.5278,
      "duration": 0.0686,
      "velocity": 127,
      "chip": "ym2612"
    },
    {
      "channel": 5,
      "note": 75,
      "start": 7.6381,
      "duration": 0.1941,
      "velocity": 111,
      "chip": "ym2612"
    },
    {
      "channel": 2,
      "note": 68,
      "start": 7.7528,
      "duration": 0.1941,
      "velocity": 111,
      "chip": "ym2612"
    },
    {
      "channel": 3,
      "note": 61,
      "start": 7.7581,
      "duration": 0.0139,
      "velocity": 119,
      "chip": "ym2612"
    },
    {
      "channel": 4,
      "note": 44,
      "start": 7.872,
      "duration": 1.8372,
      "velocity": 87,
      "chip": "ym2612"
    },
    {
      "channel": 5,
      "note": 73,
      "start": 7.8748,
      "duration": 0.192,
      "velocity": 111,
      "chip": "ym2612"
    },
    {
      "channel": 1,
      "note": 49,
      "start": 7.9868,
      "duration": 0.4288,
      "velocity": 111,
      "chip": "ym2612"
    },
    {
      "channel": 2,
      "note": 73,
      "start": 7.9886,
      "duration": 0.1929,
      "velocity": 111,
      "chip": "ym2612"
    },
    {
      "channel": 3,
      "note": 61,
      "start": 7.9907,
      "duration": 0.016,
      "velocity": 119,
      "chip": "ym2612"
    },
    {
      "channel": 5,
      "note": 68,
      "start": 8.1076,
      "duration": 0.1936,
      "velocity": 111,
      "chip": "ym2612"
    },
    {
      "channel": 2,
      "note": 74,
      "start": 8.2224,
      "duration": 0.1941,
      "velocity": 111,
      "chip": "ym2612"
    },
    {
      "channel": 3,
      "note": 61,
      "start": 8.2286,
      "duration": 0.071,
      "velocity": 127,
      "chip": "ym2612"
    },
    {
      "channel": 5,
      "note": 73,
      "start": 8.3423,
      "duration": 0.1937,
      "velocity": 111,
      "chip": "ym2612"
    },
    {
      "channel": 1,
      "note": 49,
      "start": 8.4563,
      "duration": 0.4288,
      "velocity": 111,
      "chip": "ym2612"
    },
    {
      "channel": 2,
      "note": 73,
      "start": 8.4583,
      "duration": 0.1927,
      "velocity": 111,
      "chip": "ym2612"
    },
    {
      "channel": 3,
      "note": 61,
      "start": 8.4646,
      "duration": 0.0698,
      "velocity": 127,
      "chip": "ym2612"
    },
    {
      "channel": 5,
      "note": 74,
      "start": 8.5779,
      "duration": 0.1931,
      "velocity": 111,
      "chip": "ym2612"
    },
    {
      "channel": 2,
      "note": 68,
      "start": 8.6917,
      "duration": 0.1941,
      "velocity": 111,
      "chip": "ym2612"
    },
    {
      "channel": 3,
      "note": 61,
      "start": 8.6979,
      "duration": 0.0139,
      "velocity": 119,
      "chip": "ym2612"
    },
    {
      "channel": 5,
      "note": 73,
      "start": 8.8128,
      "duration": 0.193,
      "velocity": 111,
      "chip": "ym2612"
    },
    {
      "channel": 1,
      "note": 49,
      "start": 8.9257,
      "duration": 0.4289,
      "velocity": 111,
      "chip": "ym2612"
    },
    {
      "channel": 2,
      "note": 73,
      "start": 8.9285,
      "duration": 0.192,
      "velocity": 111,
      "chip": "ym2612"
    },
    {
      "channel": 3,
      "note": 61,
      "start": 8.9306,
      "duration": 0.016,
      "velocity": 119,
      "chip": "ym2612"
    },
    {
      "channel": 5,
      "note": 68,
      "start": 9.0473,
      "duration": 0.1929,
      "velocity": 111,
      "chip": "ym2612"
    },
    {
      "channel": 2,
      "note": 74,
      "start": 9.1621,
      "duration": 0.1933,
      "velocity": 111,
      "chip": "ym2612"
    },
    {
      "channel": 3,
      "note": 61,
      "start": 9.1674,
      "duration": 0.0712,
      "velocity": 127,
      "chip": "ym2612"
    },
    {
      "channel": 5,
      "note": 73,
      "start": 9.2821,
      "duration": 0.1929,
      "velocity": 111,
      "chip": "ym2612"
    },
    {
      "channel": 0,
      "note": 49,
      "start": 9.3953,
      "duration": 1.8364,
      "velocity": 87,
      "chip": "ym2612"
    },
    {
      "channel": 1,
      "note": 49,
      "start": 9.3972,
      "duration": 0.4262,
      "velocity": 111,
      "chip": "ym2612"
    },
    {
      "channel": 2,
      "note": 73,
      "start": 9.3992,
      "duration": 0.1908,
      "velocity": 111,
      "chip": "ym2612"
    },
    {
      "channel": 3,
      "note": 61,
      "start": 9.4047,
      "duration": 0.0687,
      "velocity": 127,
      "chip": "ym2612"
    },
    {
      "channel": 5,
      "note": 74,
      "start": 9.5166,
      "duration": 0.1944,
      "velocity": 111,
      "chip": "ym2612"
    },
    {
      "channel": 2,
      "note": 68,
      "start": 9.6307,
      "duration": 0.1928,
      "velocity": 111,
      "chip": "ym2612"
    },
    {
      "channel": 3,
      "note": 61,
      "start": 9.6361,
      "duration": 0.0138,
      "velocity": 119,
      "chip": "ym2612"
    },
    {
      "channel": 4,
      "note": 49,
      "start": 9.7498,
      "duration": 1.8349,
      "velocity": 87,
      "chip": "ym2612"
    },
    {
      "channel": 5,
      "note": 73,
      "start": 9.7519,
      "duration": 0.1904,
      "velocity": 111,
      "chip": "ym2612"
    },
    {
      "channel": 1,
      "note": 49,
      "start": 9.8641,
      "duration": 0.4288,
      "velocity": 111,
      "chip": "ym2612"
    },
    {
      "channel": 2,
      "note": 73,
      "start": 9.866,
      "duration": 0.1922,
      "velocity": 111,
      "chip": "ym2612"
    },
    {
      "channel": 3,
      "note": 61,
      "start": 9.8681,
      "duration": 0.0148,
      "velocity": 119,
      "chip": "ym2612"
    },
    {
      "channel": 5,
      "note": 68,
      "start": 9.9831,
      "duration": 0.193,
      "velocity": 111,
      "chip": "ym2612"
    },
    {
      "channel": 2,
      "note": 74,
      "start": 10.099,
      "duration": 0.1941,
      "velocity": 111,
      "chip": "ym2612"
    },
    {
      "channel": 3,
      "note": 61,
      "start": 10.1043,
      "duration": 0.0715,
      "velocity": 127,
      "chip": "ym2612"
    },
    {
      "channel": 5,
      "note": 73,
      "start": 10.2171,
      "duration": 0.1943,
      "velocity": 111,
      "chip": "ym2612"
    },
    {
      "channel": 1,
      "note": 49,
      "start": 10.3336,
      "duration": 0.4288,
      "velocity": 111,
      "chip": "ym2612"
    },
    {
      "channel": 2,
      "note": 73,
      "start": 10.3356,
      "duration": 0.1921,
      "velocity": 111,
      "chip": "ym2612"
    },
    {
      "channel": 3,
      "note": 61,
      "start": 10.3411,
      "duration": 0.0702,
      "velocity": 127,
      "chip": "ym2612"
    },
    {
      "channel": 5,
      "note": 74,
      "start": 10.4519,
      "duration": 0.194,
      "velocity": 111,
      "chip": "ym2612"
    },
    {
      "channel": 2,
      "note": 68,
      "start": 10.5685,
      "duration": 0.1941,
      "velocity": 111,
      "chip": "ym2612"
    },
    {
      "channel": 3,
      "note": 61,
      "start": 10.5738,
      "duration": 0.0132,
      "velocity": 119,
      "chip": "ym2612"
    },
    {
      "channel": 5,
      "note": 73,
      "start": 10.6868,
      "duration": 0.1938,
      "velocity": 111,
      "chip": "ym2612"
    },
    {
      "channel": 1,
      "note": 49,
      "start": 10.8031,
      "duration": 0.4289,
      "velocity": 111,
      "chip": "ym2612"
    },
    {
      "channel": 2,
      "note": 73,
      "start": 10.8049,
      "duration": 0.1923,
      "velocity": 111,
      "chip": "ym2612"
    },
    {
      "channel": 3,
      "note": 61,
      "start": 10.807,
      "duration": 0.0148,
      "velocity": 119,
      "chip": "ym2612"
    },
    {
      "channel": 5,
      "note": 68,
      "start": 10.9214,
      "duration": 0.1936,
      "velocity": 111,
      "chip": "ym2612"
    },
    {
      "channel": 2,
      "note": 74,
      "start": 11.038,
      "duration": 0.1941,
      "velocity": 111,
      "chip": "ym2612"
    },
    {
      "channel": 3,
      "note": 61,
      "start": 11.0442,
      "duration": 0.0706,
      "velocity": 127,
      "chip": "ym2612"
    },
    {
      "channel": 5,
      "note": 73,
      "start": 11.1561,
      "duration": 0.1937,
      "velocity": 111,
      "chip": "ym2612"
    },
    {
      "channel": 0,
      "note": 50,
      "start": 11.2724,
      "duration": 3.7152,
      "velocity": 87,
      "chip": "ym2612"
    },
    {
      "channel": 1,
      "note": 50,
      "start": 11.2743,
      "duration": 0.427,
      "velocity": 111,
      "chip": "ym2612"
    },
    {
      "channel": 2,
      "note": 74,
      "start": 11.2776,
      "duration": 0.1891,
      "velocity": 111,
      "chip": "ym2612"
    },
    {
      "channel": 3,
      "note": 61,
      "start": 11.283,
      "duration": 0.0665,
      "velocity": 127,
      "chip": "ym2612"
    },
    {
      "channel": 5,
      "note": 74,
      "start": 11.3909,
      "duration": 0.1941,
      "velocity": 111,
      "chip": "ym2612"
    },
    {
      "channel": 2,
      "note": 69,
      "start": 11.5075,
      "duration": 0.1941,
      "velocity": 111,
      "chip": "ym2612"
    },
    {
      "channel": 3,
      "note": 61,
      "start": 11.5136,
      "duration": 0.0124,
      "velocity": 119,
      "chip": "ym2612"
    },
    {
      "channel": 4,
      "note": 50,
      "start": 11.6254,
      "duration": 3.7357,
      "velocity": 87,
      "chip": "ym2612"
    },
    {
      "channel": 5,
      "note": 74,
      "start": 11.6286,
      "duration": 0.191,
      "velocity": 111,
      "chip": "ym2612"
    },
    {
      "channel": 1,
      "note": 50,
      "start": 11.7421,
      "duration": 0.4288,
      "velocity": 111,
      "chip": "ym2612"
    },
    {
      "channel": 2,
      "note": 74,
      "start": 11.7448,
      "duration": 0.1914,
      "velocity": 111,
      "chip": "ym2612"
    },
    {
      "channel": 3,
      "note": 61,
      "start": 11.7469,
      "duration": 0.0148,
      "velocity": 119,
      "chip": "ym2612"
    },
    {
      "channel": 5,
      "note": 69,
      "start": 11.8613,
      "duration": 0.1927,
      "velocity": 111,
      "chip": "ym2612"
    },
    {
      "channel": 2,
      "note": 75,
      "start": 11.9778,
      "duration": 0.1933,
      "velocity": 111,
      "chip": "ym2612"
    },
    {
      "channel": 3,
      "note": 61,
      "start": 11.9831,
      "duration": 0.0706,
      "velocity": 127,
      "chip": "ym2612"
    },
    {
      "channel": 5,
      "note": 74,
      "start": 12.096,
      "duration": 0.1928,
      "velocity": 111,
      "chip": "ym2612"
    },
    {
      "channel": 1,
      "note": 50,
      "start": 12.2124,
      "duration": 0.4279,
      "velocity": 111,
      "chip": "ym2612"
    },
    {
      "channel": 2,
      "note": 74,
      "start": 12.2145,
      "duration": 0.1912,
      "velocity": 111,
      "chip": "ym2612"
    },
    {
      "channel": 3,
      "note": 61,
      "start": 12.2199,
      "duration": 0.0686,
      "velocity": 127,
      "chip": "ym2612"
    },
    {
      "channel": 5,
      "note": 75,
      "start": 12.3301,
      "duration": 0.1937,
      "velocity": 111,
      "chip": "ym2612"
    },
    {
      "channel": 2,
      "note": 69,
      "start": 12.4465,
      "duration": 0.1941,
      "velocity": 111,
      "chip": "ym2612"
    },
    {
      "channel": 3,
      "note": 61,
      "start": 12.4517,
      "duration": 0.0133,
      "velocity": 119,
      "chip": "ym2612"
    },
    {
      "channel": 5,
      "note": 74,
      "start": 12.5647,
      "duration": 0.1938,
      "velocity": 111,
      "chip": "ym2612"
    },
    {
      "channel": 1,
      "note": 50,
      "start": 12.681,
      "duration": 0.4297,
      "velocity": 111,
      "chip": "ym2612"
    },
    {
      "channel": 2,
      "note": 74,
      "start": 12.6829,
      "duration": 0.1922,
      "velocity": 111,
      "chip": "ym2612"
    },
    {
      "channel": 3,
      "note": 61,
      "start": 12.685,
      "duration": 0.0147,
      "velocity": 119,
      "chip": "ym2612"
    },
    {
      "channel": 5,
      "note": 69,
      "start": 12.7993,
      "duration": 0.1937,
      "velocity": 111,
      "chip": "ym2612"
    },
    {
      "channel": 2,
      "note": 75,
      "start": 12.9159,
      "duration": 0.1949,
      "velocity": 111,
      "chip": "ym2612"
    },
    {
      "channel": 3,
      "note": 61,
      "start": 12.9212,
      "duration": 0.0715,
      "velocity": 127,
      "chip": "ym2612"
    },
    {
      "channel": 5,
      "note": 74,
      "start": 13.0341,
      "duration": 0.1941,
      "velocity": 111,
      "chip": "ym2612"
    },
    {
      "channel": 1,
      "note": 50,
      "start": 13.152,
      "duration": 0.4273,
      "velocity": 111,
      "chip": "ym2612"
    },
    {
      "channel": 2,
      "note": 74,
      "start": 13.154,
      "duration": 0.1906,
      "velocity": 111,
      "chip": "ym2612"
    },
    {
      "channel": 3,
      "note": 61,
      "start": 13.1595,
      "duration": 0.0684,
      "velocity": 127,
      "chip": "ym2612"
    },
    {
      "channel": 5,
      "note": 75,
      "start": 13.2688,
      "duration": 0.1939,
      "velocity": 111,
      "chip": "ym2612"
    },
    {
      "channel": 2,
      "note": 69,
      "start": 13.3855,
      "duration": 0.194,
      "velocity": 111,
      "chip": "ym2612"
    },
    {
      "channel": 3,
      "note": 61,
      "start": 13.3907,
      "duration": 0.0132,
      "velocity": 119,
      "chip": "ym2612"
    },
    {
      "channel": 5,
      "note": 74,
      "start": 13.5052,
      "duration": 0.1923,
      "velocity": 111,
      "chip": "ym2612"
    },
    {
      "channel": 1,
      "note": 50,
      "start": 13.62,
      "duration": 0.4288,
      "velocity": 111,
      "chip": "ym2612"
    },
    {
      "channel": 2,
      "note": 74,
      "start": 13.6219,
      "duration": 0.1922,
      "velocity": 111,
      "chip": "ym2612"
    },
    {
      "channel": 3,
      "note": 61,
      "start": 13.624,
      "duration": 0.0147,
      "velocity": 119,
      "chip": "ym2612"
    },
    {
      "channel": 5,
      "note": 69,
      "start": 13.7383,
      "duration": 0.1937,
      "velocity": 111,
      "chip": "ym2612"
    },
    {
      "channel": 2,
      "note": 75,
      "start": 13.8549,
      "duration": 0.1941,
      "velocity": 111,
      "chip": "ym2612"
    },
    {
      "channel": 3,
      "note": 61,
      "start": 13.8611,
      "duration": 0.0706,
      "velocity": 127,
      "chip": "ym2612"
    },
    {
      "channel": 5,
      "note": 74,
      "start": 13.9731,
      "duration": 0.1937,
      "velocity": 111,
      "chip": "ym2612"
    },
    {
      "channel": 1,
      "note": 50,
      "start": 14.0895,
      "duration": 0.4288,
      "velocity": 111,
      "chip": "ym2612"
    },
    {
      "channel": 2,
      "note": 74,
      "start": 14.0915,
      "duration": 0.1921,
      "velocity": 111,
      "chip": "ym2612"
    },
    {
      "channel": 3,
      "note": 61,
      "start": 14.0978,
      "duration": 0.0686,
      "velocity": 127,
      "chip": "ym2612"
    },
    {
      "channel": 5,
      "note": 75,
      "start": 14.2078,
      "duration": 0.194,
      "velocity": 111,
      "chip": "ym2612"
    },
    {
      "channel": 2,
      "note": 69,
      "start": 14.3244,
      "duration": 0.1941,
      "velocity": 111,
      "chip": "ym2612"
    },
    {
      "channel": 3,
      "note": 61,
      "start": 14.3305,
      "duration": 0.0125,
      "velocity": 119,
      "chip": "ym2612"
    },
    {
      "channel": 5,
      "note": 74,
      "start": 14.4427,
      "duration": 0.1938,
      "velocity": 111,
      "chip": "ym2612"
    },
    {
      "channel": 1,
      "note": 50,
      "start": 14.559,
      "duration": 0.4289,
      "velocity": 111,
      "chip": "ym2612"
    },
    {
      "channel": 2,
      "note": 74,
      "start": 14.5617,
      "duration": 0.1914,
      "velocity": 111,
      "chip": "ym2612"
    },
    {
      "channel": 3,
      "note": 61,
      "start": 14.5638,
      "duration": 0.0146,
      "velocity": 119,
      "chip": "ym2612"
    },
    {
      "channel": 5,
      "note": 69,
      "start": 14.6781,
      "duration": 0.1928,
      "velocity": 111,
      "chip": "ym2612"
    },
    {
      "channel": 2,
      "note": 75,
      "start": 14.7947,
      "duration": 0.1933,
      "velocity": 111,
      "chip": "ym2612"
    },
    {
      "channel": 3,
      "note": 61,
      "start": 14.8,
      "duration": 0.0707,
      "velocity": 127,
      "chip": "ym2612"
    },
    {
      "channel": 5,
      "note": 74,
      "start": 14.9129,
      "duration": 0.2124,
      "velocity": 111,
      "chip": "ym2612"
    },
    {
      "channel": 0,
      "note": 56,
      "start": 15.033,
      "duration": 1.8526,
      "velocity": 87,
      "chip": "ym2612"
    },
    {
      "channel": 1,
      "note": 49,
      "start": 15.0351,
      "duration": 0.4434,
      "velocity": 111,
      "chip": "ym2612"
    },
    {
      "channel": 2,
      "note": 73,
      "start": 15.0379,
      "duration": 0.2043,
      "velocity": 111,
      "chip": "ym2612"
    },
    {
      "channel": 3,
      "note": 61,
      "start": 15.0442,
      "duration": 0.0809,
      "velocity": 127,
      "chip": "ym2612"
    },
    {
      "channel": 5,
      "note": 75,
      "start": 15.1664,
      "duration": 0.1949,
      "velocity": 111,
      "chip": "ym2612"
    },
    {
      "channel": 2,
      "note": 68,
      "start": 15.2829,
      "duration": 0.1957,
      "velocity": 111,
      "chip": "ym2612"
    },
    {
      "channel": 3,
      "note": 61,
      "start": 15.2883,
      "duration": 0.0132,
      "velocity": 119,
      "chip": "ym2612"
    },
    {
      "channel": 4,
      "note": 56,
      "start": 15.4048,
      "duration": 1.8337,
      "velocity": 87,
      "chip": "ym2612"
    },
    {
      "channel": 5,
      "note": 73,
      "start": 15.4075,
      "duration": 0.1877,
      "velocity": 111,
      "chip": "ym2612"
    },
    {
      "channel": 1,
      "note": 49,
      "start": 15.5175,
      "duration": 0.4296,
      "velocity": 111,
      "chip": "ym2612"
    },
    {
      "channel": 2,
      "note": 73,
      "start": 15.5194,
      "duration": 0.1922,
      "velocity": 111,
      "chip": "ym2612"
    },
    {
      "channel": 3,
      "note": 61,
      "start": 15.5215,
      "duration": 0.0148,
      "velocity": 119,
      "chip": "ym2612"
    },
    {
      "channel": 5,
      "note": 68,
      "start": 15.6359,
      "duration": 0.1937,
      "velocity": 111,
      "chip": "ym2612"
    },
    {
      "channel": 2,
      "note": 74,
      "start": 15.7524,
      "duration": 0.195,
      "velocity": 111,
      "chip": "ym2612"
    },
    {
      "channel": 3,
      "note": 61,
      "start": 15.7577,
      "duration": 0.0715,
      "velocity": 127,
      "chip": "ym2612"
    },
    {
      "channel": 5,
      "note": 73,
      "start": 15.8706,
      "duration": 0.1945,
      "velocity": 111,
      "chip": "ym2612"
    },
    {
      "channel": 1,
      "note": 49,
      "start": 15.9879,
      "duration": 0.4286,
      "velocity": 111,
      "chip": "ym2612"
    },
    {
      "channel": 2,
      "note": 73,
      "start": 15.99,
      "duration": 0.192,
      "velocity": 111,
      "chip": "ym2612"
    },
    {
      "channel": 3,
      "note": 61,
      "start": 15.9963,
      "duration": 0.0686,
      "velocity": 127,
      "chip": "ym2612"
    },
    {
      "channel": 5,
      "note": 74,
      "start": 16.1063,
      "duration": 0.1938,
      "velocity": 111,
      "chip": "ym2612"
    },
    {
      "channel": 2,
      "note": 68,
      "start": 16.2227,
      "duration": 0.194,
      "velocity": 111,
      "chip": "ym2612"
    },
    {
      "channel": 3,
      "note": 61,
      "start": 16.2288,
      "duration": 0.0116,
      "velocity": 119,
      "chip": "ym2612"
    },
    {
      "channel": 5,
      "note": 73,
      "start": 16.3409,
      "duration": 0.1937,
      "velocity": 111,
      "chip": "ym2612"
    },
    {
      "channel": 1,
      "note": 49,
      "start": 16.4574,
      "duration": 0.4284,
      "velocity": 111,
      "chip": "ym2612"
    },
    {
      "channel": 2,
      "note": 73,
      "start": 16.4593,
      "duration": 0.192,
      "velocity": 111,
      "chip": "ym2612"
    },
    {
      "channel": 3,
      "note": 61,
      "start": 16.4622,
      "duration": 0.013,
      "velocity": 119,
      "chip": "ym2612"
    },
    {
      "channel": 5,
      "note": 68,
      "start": 16.5754,
      "duration": 0.1937,
      "velocity": 111,
      "chip": "ym2612"
    },
    {
      "channel": 2,
      "note": 74,
      "start": 16.692,
      "duration": 0.1941,
      "velocity": 111,
      "chip": "ym2612"
    },
    {
      "channel": 3,
      "note": 61,
      "start": 16.6981,
      "duration": 0.0706,
      "velocity": 127,
      "chip": "ym2612"
    },
    {
      "channel": 5,
      "note": 73,
      "start": 16.8109,
      "duration": 0.1927,
      "velocity": 111,
      "chip": "ym2612"
    },
    {
      "channel": 0,
      "note": 61,
      "start": 16.9263,
      "duration": 1.8368,
      "velocity": 87,
      "chip": "ym2612"
    },
    {
      "channel": 1,
      "note": 49,
      "start": 16.9289,
      "duration": 0.4261,
      "velocity": 111,
      "chip": "ym2612"
    },
    {
      "channel": 2,
      "note": 73,
      "start": 16.9309,
      "duration": 0.1896,
      "velocity": 111,
      "chip": "ym2612"
    },
    {
      "channel": 3,
      "note": 61,
      "start": 16.9364,
      "duration": 0.067,
      "velocity": 127,
      "chip": "ym2612"
    },
    {
      "channel": 5,
      "note": 74,
      "start": 17.0455,
      "duration": 0.1932,
      "velocity": 111,
      "chip": "ym2612"
    },
    {
      "channel": 2,
      "note": 68,
      "start": 17.1622,
      "duration": 0.193,
      "velocity": 111,
      "chip": "ym2612"
    },
    {
      "channel": 3,
      "note": 61,
      "start": 17.1676,
      "duration": 0.0119,
      "velocity": 119,
      "chip": "ym2612"
    },
    {
      "channel": 4,
      "note": 61,
      "start": 17.2799,
      "duration": 1.8362,
      "velocity": 87,
      "chip": "ym2612"
    },
    {
      "channel": 5,
      "note": 73,
      "start": 17.282,
      "duration": 0.1912,
      "velocity": 111,
      "chip": "ym2612"
    },
    {
      "channel": 1,
      "note": 49,
      "start": 17.3966,
      "duration": 0.4276,
      "velocity": 111,
      "chip": "ym2612"
    },
    {
      "channel": 2,
      "note": 73,
      "start": 17.3985,
      "duration": 0.1912,
      "velocity": 111,
      "chip": "ym2612"
    },
    {
      "channel": 3,
      "note": 61,
      "start": 17.4006,
      "duration": 0.0137,
      "velocity": 119,
      "chip": "ym2612"
    },
    {
      "channel": 5,
      "note": 68,
      "start": 17.5145,
      "duration": 0.1931,
      "velocity": 111,
      "chip": "ym2612"
    },
    {
      "channel": 2,
      "note": 74,
      "start": 17.6305,
      "duration": 0.1939,
      "velocity": 111,
      "chip": "ym2612"
    },
    {
      "channel": 3,
      "note": 61,
      "start": 17.6358,
      "duration": 0.0715,
      "velocity": 127,
      "chip": "ym2612"
    },
    {
      "channel": 5,
      "note": 73,
      "start": 17.7486,
      "duration": 0.1936,
      "velocity": 111,
      "chip": "ym2612"
    },
    {
      "channel": 1,
      "note": 49,
      "start": 17.8652,
      "duration": 0.4292,
      "velocity": 111,
      "chip": "ym2612"
    },
    {
      "channel": 2,
      "note": 73,
      "start": 17.8672,
      "duration": 0.1918,
      "velocity": 111,
      "chip": "ym2612"
    },
    {
      "channel": 3,
      "note": 61,
      "start": 17.8727,
      "duration": 0.0692,
      "velocity": 127,
      "chip": "ym2612"
    },
    {
      "channel": 5,
      "note": 74,
      "start": 17.9833,
      "duration": 0.1948,
      "velocity": 111,
      "chip": "ym2612"
    },
    {
      "channel": 2,
      "note": 68,
      "start": 18.0999,
      "duration": 0.1947,
      "velocity": 111,
      "chip": "ym2612"
    },
    {
      "channel": 3,
      "note": 61,
      "start": 18.1052,
      "duration": 0.0132,
      "velocity": 119,
      "chip": "ym2612"
    },
    {
      "channel": 5,
      "note": 73,
      "start": 18.2182,
      "duration": 0.1944,
      "velocity": 111,
      "chip": "ym2612"
    },
    {
      "channel": 1,
      "note": 49,
      "start": 18.3344,
      "duration": 0.4289,
      "velocity": 111,
      "chip": "ym2612"
    },
    {
      "channel": 2,
      "note": 73,
      "start": 18.3363,
      "duration": 0.1922,
      "velocity": 111,
      "chip": "ym2612"
    },
    {
      "channel": 3,
      "note": 61,
      "start": 18.3385,
      "duration": 0.0147,
      "velocity": 119,
      "chip": "ym2612"
    },
    {
      "channel": 5,
      "note": 68,
      "start": 18.4528,
      "duration": 0.1937,
      "velocity": 111,
      "chip": "ym2612"
    },
    {
      "channel": 2,
      "note": 74,
      "start": 18.5694,
      "duration": 0.1941,
      "velocity": 111,
      "chip": "ym2612"
    },
    {
      "channel": 3,
      "note": 61,
      "start": 18.5746,
      "duration": 0.0715,
      "velocity": 127,
      "chip": "ym2612"
    },
    {
      "channel": 5,
      "note": 73,
      "start": 18.6875,
      "duration": 0.1937,
      "velocity": 111,
      "chip": "ym2612"
    },
    {
      "channel": 0,
      "note": 62,
      "start": 18.8038,
      "duration": 3.7152,
      "velocity": 87,
      "chip": "ym2612"
    },
    {
      "channel": 1,
      "note": 50,
      "start": 18.8058,
      "duration": 0.427,
      "velocity": 111,
      "chip": "ym2612"
    },
    {
      "channel": 2,
      "note": 74,
      "start": 18.8082,
      "duration": 0.19,
      "velocity": 111,
      "chip": "ym2612"
    },
    {
      "channel": 3,
      "note": 61,
      "start": 18.8145,
      "duration": 0.0665,
      "velocity": 127,
      "chip": "ym2612"
    },
    {
      "channel": 5,
      "note": 74,
      "start": 18.9223,
      "duration": 0.194,
      "velocity": 111,
      "chip": "ym2612"
    },
    {
      "channel": 2,
      "note": 69,
      "start": 19.0389,
      "duration": 0.194,
      "velocity": 111,
      "chip": "ym2612"
    },
    {
      "channel": 3,
      "note": 61,
      "start": 19.045,
      "duration": 0.0124,
      "velocity": 119,
      "chip": "ym2612"
    },
    {
      "channel": 4,
      "note": 62,
      "start": 19.1567,
      "duration": 3.7153,
      "velocity": 87,
      "chip": "ym2612"
    },
    {
      "channel": 5,
      "note": 74,
      "start": 19.1591,
      "duration": 0.1919,
      "velocity": 111,
      "chip": "ym2612"
    },
    {
      "channel": 1,
      "note": 50,
      "start": 19.2734,
      "duration": 0.4288,
      "velocity": 111,
      "chip": "ym2612"
    },
    {
      "channel": 2,
      "note": 74,
      "start": 19.2754,
      "duration": 0.1922,
      "velocity": 111,
      "chip": "ym2612"
    },
    {
      "channel": 3,
      "note": 61,
      "start": 19.2783,
      "duration": 0.0139,
      "velocity": 119,
      "chip": "ym2612"
    },
    {
      "channel": 5,
      "note": 69,
      "start": 19.3918,
      "duration": 0.1937,
      "velocity": 111,
      "chip": "ym2612"
    },
    {
      "channel": 2,
      "note": 75,
      "start": 19.5084,
      "duration": 0.1941,
      "velocity": 111,
      "chip": "ym2612"
    },
    {
      "channel": 3,
      "note": 61,
      "start": 19.5145,
      "duration": 0.0707,
      "velocity": 127,
      "chip": "ym2612"
    },
    {
      "channel": 5,
      "note": 74,
      "start": 19.6273,
      "duration": 0.1929,
      "velocity": 111,
      "chip": "ym2612"
    },
    {
      "channel": 1,
      "note": 50,
      "start": 19.7429,
      "duration": 0.4288,
      "velocity": 111,
      "chip": "ym2612"
    },
    {
      "channel": 2,
      "note": 74,
      "start": 19.7458,
      "duration": 0.1913,
      "velocity": 111,
      "chip": "ym2612"
    },
    {
      "channel": 3,
      "note": 61,
      "start": 19.7512,
      "duration": 0.0686,
      "velocity": 127,
      "chip": "ym2612"
    },
    {
      "channel": 5,
      "note": 75,
      "start": 19.862,
      "duration": 0.1931,
      "velocity": 111,
      "chip": "ym2612"
    },
    {
      "channel": 2,
      "note": 69,
      "start": 19.9786,
      "duration": 0.1933,
      "velocity": 111,
      "chip": "ym2612"
    },
    {
      "channel": 3,
      "note": 61,
      "start": 19.984,
      "duration": 0.0124,
      "velocity": 119,
      "chip": "ym2612"
    },
    {
      "channel": 5,
      "note": 74,
      "start": 20.097,
      "duration": 0.1929,
      "velocity": 111,
      "chip": "ym2612"
    },
    {
      "channel": 1,
      "note": 50,
      "start": 20.2125,
      "duration": 0.4287,
      "velocity": 111,
      "chip": "ym2612"
    },
    {
      "channel": 2,
      "note": 74,
      "start": 20.2143,
      "duration": 0.1922,
      "velocity": 111,
      "chip": "ym2612"
    },
    {
      "channel": 3,
      "note": 61,
      "start": 20.2164,
      "duration": 0.0147,
      "velocity": 119,
      "chip": "ym2612"
    },
    {
      "channel": 5,
      "note": 69,
      "start": 20.3307,
      "duration": 0.1937,
      "velocity": 111,
      "chip": "ym2612"
    },
    {
      "channel": 2,
      "note": 75,
      "start": 20.4473,
      "duration": 0.194,
      "velocity": 111,
      "chip": "ym2612"
    },
    {
      "channel": 3,
      "note": 61,
      "start": 20.4526,
      "duration": 0.0715,
      "velocity": 127,
      "chip": "ym2612"
    },
    {
      "channel": 5,
      "note": 74,
      "start": 20.5655,
      "duration": 0.1936,
      "velocity": 111,
      "chip": "ym2612"
    },
    {
      "channel": 1,
      "note": 50,
      "start": 20.6834,
      "duration": 0.4275,
      "velocity": 111,
      "chip": "ym2612"
    },
    {
      "channel": 2,
      "note": 74,
      "start": 20.6855,
      "duration": 0.1906,
      "velocity": 111,
      "chip": "ym2612"
    },
    {
      "channel": 3,
      "note": 61,
      "start": 20.6909,
      "duration": 0.0679,
      "velocity": 127,
      "chip": "ym2612"
    },
    {
      "channel": 5,
      "note": 75,
      "start": 20.8002,
      "duration": 0.1948,
      "velocity": 111,
      "chip": "ym2612"
    },
    {
      "channel": 2,
      "note": 69,
      "start": 20.9168,
      "duration": 0.1943,
      "velocity": 111,
      "chip": "ym2612"
    },
    {
      "channel": 3,
      "note": 61,
      "start": 20.9221,
      "duration": 0.0132,
      "velocity": 119,
      "chip": "ym2612"
    },
    {
      "channel": 5,
      "note": 74,
      "start": 21.0366,
      "duration": 0.1923,
      "velocity": 111,
      "chip": "ym2612"
    },
    {
      "channel": 1,
      "note": 50,
      "start": 21.1514,
      "duration": 0.4288,
      "velocity": 111,
      "chip": "ym2612"
    },
    {
      "channel": 2,
      "note": 74,
      "start": 21.1533,
      "duration": 0.1922,
      "velocity": 111,
      "chip": "ym2612"
    },
    {
      "channel": 3,
      "note": 61,
      "start": 21.1554,
      "duration": 0.0148,
      "velocity": 119,
      "chip": "ym2612"
    },
    {
      "channel": 5,
      "note": 69,
      "start": 21.2697,
      "duration": 0.1937,
      "velocity": 111,
      "chip": "ym2612"
    },
    {
      "channel": 2,
      "note": 75,
      "start": 21.3863,
      "duration": 0.1941,
      "velocity": 111,
      "chip": "ym2612"
    },
    {
      "channel": 3,
      "note": 61,
      "start": 21.3916,
      "duration": 0.0714,
      "velocity": 127,
      "chip": "ym2612"
    },
    {
      "channel": 5,
      "note": 74,
      "start": 21.5045,
      "duration": 0.1937,
      "velocity": 111,
      "chip": "ym2612"
    },
    {
      "channel": 1,
      "note": 50,
      "start": 21.6209,
      "duration": 0.4288,
      "velocity": 111,
      "chip": "ym2612"
    },
    {
      "channel": 2,
      "note": 74,
      "start": 21.6229,
      "duration": 0.1921,
      "velocity": 111,
      "chip": "ym2612"
    },
    {
      "channel": 3,
      "note": 61,
      "start": 21.6292,
      "duration": 0.0686,
      "velocity": 127,
      "chip": "ym2612"
    },
    {
      "channel": 5,
      "note": 75,
      "start": 21.7392,
      "duration": 0.1939,
      "velocity": 111,
      "chip": "ym2612"
    },
    {
      "channel": 2,
      "note": 69,
      "start": 21.8558,
      "duration": 0.194,
      "velocity": 111,
      "chip": "ym2612"
    },
    {
      "channel": 3,
      "note": 61,
      "start": 21.8619,
      "duration": 0.0124,
      "velocity": 119,
      "chip": "ym2612"
    },
    {
      "channel": 5,
      "note": 74,
      "start": 21.9741,
      "duration": 0.1938,
      "velocity": 111,
      "chip": "ym2612"
    },
    {
      "channel": 1,
      "note": 50,
      "start": 22.0904,
      "duration": 0.4289,
      "velocity": 111,
      "chip": "ym2612"
    },
    {
      "channel": 2,
      "note": 74,
      "start": 22.0923,
      "duration": 0.1922,
      "velocity": 111,
      "chip": "ym2612"
    },
    {
      "channel": 3,
      "note": 61,
      "start": 22.0952,
      "duration": 0.0139,
      "velocity": 119,
      "chip": "ym2612"
    },
    {
      "channel": 5,
      "note": 69,
      "start": 22.2087,
      "duration": 0.1937,
      "velocity": 111,
      "chip": "ym2612"
    },
    {
      "channel": 2,
      "note": 75,
      "start": 22.3253,
      "duration": 0.1941,
      "velocity": 111,
      "chip": "ym2612"
    },
    {
      "channel": 3,
      "note": 61,
      "start": 22.3314,
      "duration": 0.0707,
      "velocity": 127,
      "chip": "ym2612"
    },
    {
      "channel": 5,
      "note": 74,
      "start": 22.4442,
      "duration": 0.1929,
      "velocity": 111,
      "chip": "ym2612"
    },
    {
      "channel": 0,
      "note": 56,
      "start": 22.5607,
      "duration": 1.8363,
      "velocity": 87,
      "chip": "ym2612"
    },
    {
      "channel": 1,
      "note": 49,
      "start": 22.5627,
      "duration": 0.4259,
      "velocity": 111,
      "chip": "ym2612"
    },
    {
      "channel": 2,
      "note": 73,
      "start": 22.5655,
      "duration": 0.1885,
      "velocity": 111,
      "chip": "ym2612"
    },
    {
      "channel": 3,
      "note": 61,
      "start": 22.571,
      "duration": 0.0659,
      "velocity": 127,
      "chip": "ym2612"
    },
    {
      "channel": 5,
      "note": 75,
      "start": 22.6791,
      "duration": 0.1931,
      "velocity": 111,
      "chip": "ym2612"
    },
    {
      "channel": 2,
      "note": 68,
      "start": 22.7956,
      "duration": 0.1932,
      "velocity": 111,
      "chip": "ym2612"
    },
    {
      "channel": 3,
      "note": 61,
      "start": 22.8009,
      "duration": 0.0124,
      "velocity": 119,
      "chip": "ym2612"
    },
    {
      "channel": 4,
      "note": 56,
      "start": 22.9133,
      "duration": 1.8366,
      "velocity": 87,
      "chip": "ym2612"
    },
    {
      "channel": 5,
      "note": 73,
      "start": 22.9161,
      "duration": 0.1908,
      "velocity": 111,
      "chip": "ym2612"
    },
    {
      "channel": 1,
      "note": 49,
      "start": 23.0293,
      "duration": 0.4288,
      "velocity": 111,
      "chip": "ym2612"
    },
    {
      "channel": 2,
      "note": 73,
      "start": 23.0313,
      "duration": 0.1922,
      "velocity": 111,
      "chip": "ym2612"
    },
    {
      "channel": 3,
      "note": 61,
      "start": 23.0334,
      "duration": 0.0148,
      "velocity": 119,
      "chip": "ym2612"
    },
    {
      "channel": 5,
      "note": 68,
      "start": 23.1477,
      "duration": 0.1936,
      "velocity": 111,
      "chip": "ym2612"
    },
    {
      "channel": 2,
      "note": 74,
      "start": 23.2643,
      "duration": 0.1941,
      "velocity": 111,
      "chip": "ym2612"
    },
    {
      "channel": 3,
      "note": 61,
      "start": 23.2695,
      "duration": 0.0715,
      "velocity": 127,
      "chip": "ym2612"
    },
    {
      "channel": 5,
      "note": 73,
      "start": 23.3824,
      "duration": 0.1937,
      "velocity": 111,
      "chip": "ym2612"
    },
    {
      "channel": 1,
      "note": 49,
      "start": 23.4988,
      "duration": 0.4288,
      "velocity": 111,
      "chip": "ym2612"
    },
    {
      "channel": 2,
      "note": 73,
      "start": 23.5009,
      "duration": 0.1921,
      "velocity": 111,
      "chip": "ym2612"
    },
    {
      "channel": 3,
      "note": 61,
      "start": 23.5063,
      "duration": 0.0695,
      "velocity": 127,
      "chip": "ym2612"
    },
    {
      "channel": 5,
      "note": 74,
      "start": 23.6171,
      "duration": 0.1946,
      "velocity": 111,
      "chip": "ym2612"
    },
    {
      "channel": 2,
      "note": 68,
      "start": 23.7337,
      "duration": 0.1941,
      "velocity": 111,
      "chip": "ym2612"
    },
    {
      "channel": 3,
      "note": 61,
      "start": 23.739,
      "duration": 0.0133,
      "velocity": 119,
      "chip": "ym2612"
    },
    {
      "channel": 5,
      "note": 73,
      "start": 23.8521,
      "duration": 0.1938,
      "velocity": 111,
      "chip": "ym2612"
    },
    {
      "channel": 1,
      "note": 49,
      "start": 23.9683,
      "duration": 0.4289,
      "velocity": 111,
      "chip": "ym2612"
    },
    {
      "channel": 2,
      "note": 73,
      "start": 23.9702,
      "duration": 0.1922,
      "velocity": 111,
      "chip": "ym2612"
    },
    {
      "channel": 3,
      "note": 61,
      "start": 23.9723,
      "duration": 0.0148,
      "velocity": 119,
      "chip": "ym2612"
    },
    {
      "channel": 5,
      "note": 68,
      "start": 24.0866,
      "duration": 0.1937,
      "velocity": 111,
      "chip": "ym2612"
    },
    {
      "channel": 2,
      "note": 74,
      "start": 24.2033,
      "duration": 0.1941,
      "velocity": 111,
      "chip": "ym2612"
    },
    {
      "channel": 3,
      "note": 61,
      "start": 24.2085,
      "duration": 0.0714,
      "velocity": 127,
      "chip": "ym2612"
    },
    {
      "channel": 5,
      "note": 73,
      "start": 24.3214,
      "duration": 0.1936,
      "velocity": 111,
      "chip": "ym2612"
    },
    {
      "channel": 0,
      "note": 61,
      "start": 24.4376,
      "duration": 1.8373,
      "velocity": 87,
      "chip": "ym2612"
    },
    {
      "channel": 1,
      "note": 49,
      "start": 24.4395,
      "duration": 0.4271,
      "velocity": 111,
      "chip": "ym2612"
    },
    {
      "channel": 2,
      "note": 73,
      "start": 24.4415,
      "duration": 0.1905,
      "velocity": 111,
      "chip": "ym2612"
    },
    {
      "channel": 3,
      "note": 61,
      "start": 24.4478,
      "duration": 0.067,
      "velocity": 127,
      "chip": "ym2612"
    },
    {
      "channel": 5,
      "note": 74,
      "start": 24.5561,
      "duration": 0.1941,
      "velocity": 111,
      "chip": "ym2612"
    },
    {
      "channel": 2,
      "note": 68,
      "start": 24.6727,
      "duration": 0.1941,
      "velocity": 111,
      "chip": "ym2612"
    },
    {
      "channel": 3,
      "note": 61,
      "start": 24.6788,
      "duration": 0.0125,
      "velocity": 119,
      "chip": "ym2612"
    },
    {
      "channel": 4,
      "note": 61,
      "start": 24.7905,
      "duration": 1.8378,
      "velocity": 87,
      "chip": "ym2612"
    },
    {
      "channel": 5,
      "note": 73,
      "start": 24.7927,
      "duration": 0.1922,
      "velocity": 111,
      "chip": "ym2612"
    },
    {
      "channel": 1,
      "note": 49,
      "start": 24.9073,
      "duration": 0.4288,
      "velocity": 111,
      "chip": "ym2612"
    },
    {
      "channel": 2,
      "note": 73,
      "start": 24.9092,
      "duration": 0.1922,
      "velocity": 111,
      "chip": "ym2612"
    },
    {
      "channel": 3,
      "note": 61,
      "start": 24.9121,
      "duration": 0.014,
      "velocity": 119,
      "chip": "ym2612"
    },
    {
      "channel": 5,
      "note": 68,
      "start": 25.0257,
      "duration": 0.1936,
      "velocity": 111,
      "chip": "ym2612"
    },
    {
      "channel": 2,
      "note": 74,
      "start": 25.1422,
      "duration": 0.1941,
      "velocity": 111,
      "chip": "ym2612"
    },
    {
      "channel": 3,
      "note": 61,
      "start": 25.1484,
      "duration": 0.0706,
      "velocity": 127,
      "chip": "ym2612"
    },
    {
      "channel": 5,
      "note": 73,
      "start": 25.2612,
      "duration": 0.1929,
      "velocity": 111,
      "chip": "ym2612"
    },
    {
      "channel": 1,
      "note": 49,
      "start": 25.3776,
      "duration": 0.4279,
      "velocity": 111,
      "chip": "ym2612"
    },
    {
      "channel": 2,
      "note": 73,
      "start": 25.3797,
      "duration": 0.1912,
      "velocity": 111,
      "chip": "ym2612"
    },
    {
      "channel": 3,
      "note": 61,
      "start": 25.3851,
      "duration": 0.0686,
      "velocity": 127,
      "chip": "ym2612"
    },
    {
      "channel": 5,
      "note": 74,
      "start": 25.496,
      "duration": 0.1931,
      "velocity": 111,
      "chip": "ym2612"
    },
    {
      "channel": 2,
      "note": 68,
      "start": 25.6126,
      "duration": 0.1931,
      "velocity": 111,
      "chip": "ym2612"
    },
    {
      "channel": 3,
      "note": 61,
      "start": 25.6179,
      "duration": 0.0124,
      "velocity": 119,
      "chip": "ym2612"
    },
    {
      "channel": 5,
      "note": 73,
      "start": 25.7302,
      "duration": 0.1935,
      "velocity": 111,
      "chip": "ym2612"
    },
    {
      "channel": 1,
      "note": 49,
      "start": 25.8463,
      "duration": 0.4289,
      "velocity": 111,
      "chip": "ym2612"
    },
    {
      "channel": 2,
      "note": 73,
      "start": 25.8482,
      "duration": 0.1922,
      "velocity": 111,
      "chip": "ym2612"
    },
    {
      "channel": 3,
      "note": 61,
      "start": 25.8503,
      "duration": 0.0147,
      "velocity": 119,
      "chip": "ym2612"
    },
    {
      "channel": 5,
      "note": 68,
      "start": 25.9646,
      "duration": 0.1937,
      "velocity": 111,
      "chip": "ym2612"
    },
    {
      "channel": 2,
      "note": 74,
      "start": 26.0812,
      "duration": 0.1941,
      "velocity": 111,
      "chip": "ym2612"
    },
    {
      "channel": 3,
      "note": 61,
      "start": 26.0865,
      "duration": 0.0715,
      "velocity": 127,
      "chip": "ym2612"
    },
    {
      "channel": 5,
      "note": 73,
      "start": 26.1993,
      "duration": 0.1937,
      "velocity": 111,
      "chip": "ym2612"
    },
    {
      "channel": 0,
      "note": 62,
      "start": 26.3156,
      "duration": 3.7153,
      "velocity": 87,
      "chip": "ym2612"
    },
    {
      "channel": 1,
      "note": 50,
      "start": 26.3176,
      "duration": 0.427,
      "velocity": 111,
      "chip": "ym2612"
    },
    {
      "channel": 2,
      "note": 74,
      "start": 26.32,
      "duration": 0.1907,
      "velocity": 111,
      "chip": "ym2612"
    },
    {
      "channel": 3,
      "note": 61,
      "start": 26.3254,
      "duration": 0.0674,
      "velocity": 127,
      "chip": "ym2612"
    },
    {
      "channel": 5,
      "note": 74,
      "start": 26.4341,
      "duration": 0.1944,
      "velocity": 111,
      "chip": "ym2612"
    },
    {
      "channel": 2,
      "note": 69,
      "start": 26.5507,
      "duration": 0.1941,
      "velocity": 111,
      "chip": "ym2612"
    },
    {
      "channel": 3,
      "note": 61,
      "start": 26.556,
      "duration": 0.0132,
      "velocity": 119,
      "chip": "ym2612"
    },
    {
      "channel": 4,
      "note": 62,
      "start": 26.6685,
      "duration": 3.7154,
      "velocity": 87,
      "chip": "ym2612"
    },
    {
      "channel": 5,
      "note": 74,
      "start": 26.671,
      "duration": 0.1919,
      "velocity": 111,
      "chip": "ym2612"
    },
    {
      "channel": 1,
      "note": 50,
      "start": 26.7853,
      "duration": 0.4288,
      "velocity": 111,
      "chip": "ym2612"
    },
    {
      "channel": 2,
      "note": 74,
      "start": 26.7872,
      "duration": 0.1922,
      "velocity": 111,
      "chip": "ym2612"
    },
    {
      "channel": 3,
      "note": 61,
      "start": 26.7893,
      "duration": 0.0148,
      "velocity": 119,
      "chip": "ym2612"
    },
    {
      "channel": 5,
      "note": 69,
      "start": 26.9037,
      "duration": 0.1936,
      "velocity": 111,
      "chip": "ym2612"
    },
    {
      "channel": 2,
      "note": 75,
      "start": 27.0202,
      "duration": 0.194,
      "velocity": 111,
      "chip": "ym2612"
    },
    {
      "channel": 3,
      "note": 61,
      "start": 27.0255,
      "duration": 0.0715,
      "velocity": 127,
      "chip": "ym2612"
    },
    {
      "channel": 5,
      "note": 74,
      "start": 27.1383,
      "duration": 0.1937,
      "velocity": 111,
      "chip": "ym2612"
    },
    {
      "channel": 1,
      "note": 50,
      "start": 27.2547,
      "duration": 0.4288,
      "velocity": 111,
      "chip": "ym2612"
    },
    {
      "channel": 2,
      "note": 74,
      "start": 27.2568,
      "duration": 0.1921,
      "velocity": 111,
      "chip": "ym2612"
    },
    {
      "channel": 3,
      "note": 61,
      "start": 27.2631,
      "duration": 0.0686,
      "velocity": 127,
      "chip": "ym2612"
    },
    {
      "channel": 5,
      "note": 75,
      "start": 27.3731,
      "duration": 0.1939,
      "velocity": 111,
      "chip": "ym2612"
    },
    {
      "channel": 2,
      "note": 69,
      "start": 27.4897,
      "duration": 0.1941,
      "velocity": 111,
      "chip": "ym2612"
    },
    {
      "channel": 3,
      "note": 61,
      "start": 27.4958,
      "duration": 0.0125,
      "velocity": 119,
      "chip": "ym2612"
    },
    {
      "channel": 5,
      "note": 74,
      "start": 27.608,
      "duration": 0.1938,
      "velocity": 111,
      "chip": "ym2612"
    },
    {
      "channel": 1,
      "note": 50,
      "start": 27.7243,
      "duration": 0.4288,
      "velocity": 111,
      "chip": "ym2612"
    },
    {
      "channel": 2,
      "note": 74,
      "start": 27.7261,
      "duration": 0.1922,
      "velocity": 111,
      "chip": "ym2612"
    },
    {
      "channel": 3,
      "note": 61,
      "start": 27.729,
      "duration": 0.0139,
      "velocity": 119,
      "chip": "ym2612"
    },
    {
      "channel": 5,
      "note": 69,
      "start": 27.8425,
      "duration": 0.1937,
      "velocity": 111,
      "chip": "ym2612"
    },
    {
      "channel": 2,
      "note": 75,
      "start": 27.9591,
      "duration": 0.1941,
      "velocity": 111,
      "chip": "ym2612"
    },
    {
      "channel": 3,
      "note": 61,
      "start": 27.9653,
      "duration": 0.0707,
      "velocity": 127,
      "chip": "ym2612"
    },
    {
      "channel": 5,
      "note": 74,
      "start": 28.0781,
      "duration": 0.1928,
      "velocity": 111,
      "chip": "ym2612"
    },
    {
      "channel": 1,
      "note": 50,
      "start": 28.1961,
      "duration": 0.4264,
      "velocity": 111,
      "chip": "ym2612"
    },
    {
      "channel": 2,
      "note": 74,
      "start": 28.1981,
      "duration": 0.1898,
      "velocity": 111,
      "chip": "ym2612"
    },
    {
      "channel": 3,
      "note": 61,
      "start": 28.2035,
      "duration": 0.0672,
      "velocity": 127,
      "chip": "ym2612"
    },
    {
      "channel": 5,
      "note": 75,
      "start": 28.3129,
      "duration": 0.1928,
      "velocity": 111,
      "chip": "ym2612"
    },
    {
      "channel": 2,
      "note": 69,
      "start": 28.4293,
      "duration": 0.1934,
      "velocity": 111,
      "chip": "ym2612"
    },
    {
      "channel": 3,
      "note": 61,
      "start": 28.4348,
      "duration": 0.0706,
      "velocity": 127,
      "chip": "ym2612"
    },
    {
      "channel": 5,
      "note": 74,
      "start": 28.5485,
      "duration": 0.192,
      "velocity": 111,
      "chip": "ym2612"
    },
    {
      "channel": 1,
      "note": 50,
      "start": 28.6632,
      "duration": 0.4288,
      "velocity": 111,
      "chip": "ym2612"
    },
    {
      "channel": 2,
      "note": 74,
      "start": 28.6651,
      "duration": 0.1922,
      "velocity": 111,
      "chip": "ym2612"
    },
    {
      "channel": 3,
      "note": 61,
      "start": 28.6673,
      "duration": 0.0728,
      "velocity": 127,
      "chip": "ym2612"
    },
    {
      "channel": 5,
      "note": 69,
      "start": 28.7815,
      "duration": 0.1937,
      "velocity": 111,
      "chip": "ym2612"
    },
    {
      "channel": 2,
      "note": 75,
      "start": 28.8981,
      "duration": 0.1941,
      "velocity": 111,
      "chip": "ym2612"
    },
    {
      "channel": 3,
      "note": 61,
      "start": 28.9004,
      "duration": 0.0745,
      "velocity": 127,
      "chip": "ym2612"
    },
    {
      "channel": 5,
      "note": 74,
      "start": 29.0163,
      "duration": 0.1945,
      "velocity": 111,
      "chip": "ym2612"
    },
    {
      "channel": 1,
      "note": 50,
      "start": 29.1327,
      "duration": 0.4288,
      "velocity": 111,
      "chip": "ym2612"
    },
    {
      "channel": 2,
      "note": 74,
      "start": 29.1347,
      "duration": 0.193,
      "velocity": 111,
      "chip": "ym2612"
    },
    {
      "channel": 3,
      "note": 61,
      "start": 29.137,
      "duration": 0.0727,
      "velocity": 127,
      "chip": "ym2612"
    },
    {
      "channel": 5,
      "note": 75,
      "start": 29.251,
      "duration": 0.1938,
      "velocity": 111,
      "chip": "ym2612"
    },
    {
      "channel": 2,
      "note": 69,
      "start": 29.3676,
      "duration": 0.1941,
      "velocity": 111,
      "chip": "ym2612"
    },
    {
      "channel": 3,
      "note": 61,
      "start": 29.3699,
      "duration": 0.0747,
      "velocity": 127,
      "chip": "ym2612"
    },
    {
      "channel": 5,
      "note": 74,
      "start": 29.4859,
      "duration": 0.1936,
      "velocity": 111,
      "chip": "ym2612"
    },
    {
      "channel": 1,
      "note": 50,
      "start": 29.6022,
      "duration": 0.4289,
      "velocity": 111,
      "chip": "ym2612"
    },
    {
      "channel": 2,
      "note": 74,
      "start": 29.604,
      "duration": 0.1923,
      "velocity": 111,
      "chip": "ym2612"
    },
    {
      "channel": 3,
      "note": 61,
      "start": 29.6063,
      "duration": 0.0728,
      "velocity": 127,
      "chip": "ym2612"
    },
    {
      "channel": 5,
      "note": 69,
      "start": 29.7205,
      "duration": 0.1937,
      "velocity": 111,
      "chip": "ym2612"
    },
    {
      "channel": 2,
      "note": 75,
      "start": 29.8371,
      "duration": 0.1941,
      "velocity": 111,
      "chip": "ym2612"
    },
    {
      "channel": 3,
      "note": 61,
      "start": 29.8394,
      "duration": 0.0745,
      "velocity": 127,
      "chip": "ym2612"
    },
    {
      "channel": 5,
      "note": 74,
      "start": 29.9552,
      "duration": 0.1937,
      "velocity": 111,
      "chip": "ym2612"
    },
    {
      "channel": 0,
      "note": 65,
      "start": 30.0722,
      "duration": 1.8366,
      "velocity": 87,
      "chip": "ym2612"
    },
    {
      "channel": 1,
      "note": 53,
      "start": 30.0746,
      "duration": 0.4258,
      "velocity": 111,
      "chip": "ym2612"
    },
    {
      "channel": 2,
      "note": 77,
      "start": 30.0783,
      "duration": 0.1875,
      "velocity": 111,
      "chip": "ym2612"
    },
    {
      "channel": 3,
      "note": 61,
      "start": 30.084,
      "duration": 0.0646,
      "velocity": 127,
      "chip": "ym2612"
    },
    {
      "channel": 5,
      "note": 75,
      "start": 30.19,
      "duration": 0.194,
      "velocity": 111,
      "chip": "ym2612"
    },
    {
      "channel": 2,
      "note": 72,
      "start": 30.3066,
      "duration": 0.1941,
      "velocity": 111,
      "chip": "ym2612"
    },
    {
      "channel": 3,
      "note": 61,
      "start": 30.3127,
      "duration": 0.0129,
      "velocity": 119,
      "chip": "ym2612"
    },
    {
      "channel": 4,
      "note": 65,
      "start": 30.4251,
      "duration": 1.8366,
      "velocity": 87,
      "chip": "ym2612"
    },
    {
      "channel": 5,
      "note": 77,
      "start": 30.4288,
      "duration": 0.19,
      "velocity": 111,
      "chip": "ym2612"
    },
    {
      "channel": 1,
      "note": 53,
      "start": 30.5412,
      "duration": 0.4288,
      "velocity": 111,
      "chip": "ym2612"
    },
    {
      "channel": 2,
      "note": 77,
      "start": 30.5431,
      "duration": 0.1922,
      "velocity": 111,
      "chip": "ym2612"
    },
    {
      "channel": 3,
      "note": 61,
      "start": 30.546,
      "duration": 0.0153,
      "velocity": 119,
      "chip": "ym2612"
    },
    {
      "channel": 5,
      "note": 72,
      "start": 30.6596,
      "duration": 0.1936,
      "velocity": 111,
      "chip": "ym2612"
    },
    {
      "channel": 2,
      "note": 78,
      "start": 30.7761,
      "duration": 0.194,
      "velocity": 111,
      "chip": "ym2612"
    },
    {
      "channel": 3,
      "note": 61,
      "start": 30.7823,
      "duration": 0.0706,
      "velocity": 127,
      "chip": "ym2612"
    },
    {
      "channel": 5,
      "note": 77,
      "start": 30.8951,
      "duration": 0.1929,
      "velocity": 111,
      "chip": "ym2612"
    },
    {
      "channel": 1,
      "note": 53,
      "start": 31.0115,
      "duration": 0.428,
      "velocity": 111,
      "chip": "ym2612"
    },
    {
      "channel": 2,
      "note": 77,
      "start": 31.0135,
      "duration": 0.1913,
      "velocity": 111,
      "chip": "ym2612"
    },
    {
      "channel": 3,
      "note": 61,
      "start": 31.019,
      "duration": 0.0686,
      "velocity": 127,
      "chip": "ym2612"
    },
    {
      "channel": 5,
      "note": 78,
      "start": 31.1299,
      "duration": 0.1931,
      "velocity": 111,
      "chip": "ym2612"
    },
    {
      "channel": 2,
      "note": 72,
      "start": 31.246,
      "duration": 0.1937,
      "velocity": 111,
      "chip": "ym2612"
    },
    {
      "channel": 3,
      "note": 61,
      "start": 31.2513,
      "duration": 0.0129,
      "velocity": 119,
      "chip": "ym2612"
    },
    {
      "channel": 5,
      "note": 77,
      "start": 31.3639,
      "duration": 0.1938,
      "velocity": 111,
      "chip": "ym2612"
    },
    {
      "channel": 1,
      "note": 53,
      "start": 31.4801,
      "duration": 0.4289,
      "velocity": 111,
      "chip": "ym2612"
    },
    {
      "channel": 2,
      "note": 77,
      "start": 31.482,
      "duration": 0.1922,
      "velocity": 111,
      "chip": "ym2612"
    },
    {
      "channel": 3,
      "note": 61,
      "start": 31.4841,
      "duration": 0.0148,
      "velocity": 119,
      "chip": "ym2612"
    },
    {
      "channel": 5,
      "note": 72,
      "start": 31.5985,
      "duration": 0.1936,
      "velocity": 111,
      "chip": "ym2612"
    },
    {
      "channel": 2,
      "note": 78,
      "start": 31.7151,
      "duration": 0.1941,
      "velocity": 111,
      "chip": "ym2612"
    },
    {
      "channel": 3,
      "note": 61,
      "start": 31.7205,
      "duration": 0.0714,
      "velocity": 127,
      "chip": "ym2612"
    },
    {
      "channel": 5,
      "note": 77,
      "start": 31.8332,
      "duration": 0.1946,
      "velocity": 111,
      "chip": "ym2612"
    },
    {
      "channel": 0,
      "note": 66,
      "start": 31.9495,
      "duration": 0.8983,
      "velocity": 87,
      "chip": "ym2612"
    },
    {
      "channel": 1,
      "note": 54,
      "start": 31.9512,
      "duration": 0.4272,
      "velocity": 111,
      "chip": "ym2612"
    },
    {
      "channel": 2,
      "note": 78,
      "start": 31.9535,
      "duration": 0.1909,
      "velocity": 111,
      "chip": "ym2612"
    },
    {
      "channel": 3,
      "note": 61,
      "start": 31.9589,
      "duration": 0.0686,
      "velocity": 127,
      "chip": "ym2612"
    },
    {
      "channel": 5,
      "note": 78,
      "start": 32.068,
      "duration": 0.194,
      "velocity": 111,
      "chip": "ym2612"
    },
    {
      "channel": 2,
      "note": 73,
      "start": 32.1846,
      "duration": 0.1941,
      "velocity": 111,
      "chip": "ym2612"
    },
    {
      "channel": 3,
      "note": 61,
      "start": 32.1899,
      "duration": 0.0132,
      "velocity": 119,
      "chip": "ym2612"
    },
    {
      "channel": 4,
      "note": 66,
      "start": 32.3024,
      "duration": 0.8981,
      "velocity": 87,
      "chip": "ym2612"
    },
    {
      "channel": 5,
      "note": 78,
      "start": 32.3046,
      "duration": 0.1921,
      "velocity": 111,
      "chip": "ym2612"
    },
    {
      "channel": 1,
      "note": 54,
      "start": 32.419,
      "duration": 0.429,
      "velocity": 111,
      "chip": "ym2612"
    },
    {
      "channel": 2,
      "note": 78,
      "start": 32.4208,
      "duration": 0.1924,
      "velocity": 111,
      "chip": "ym2612"
    },
    {
      "channel": 3,
      "note": 61,
      "start": 32.4229,
      "duration": 0.0149,
      "velocity": 119,
      "chip": "ym2612"
    },
    {
      "channel": 5,
      "note": 73,
      "start": 32.5375,
      "duration": 0.1937,
      "velocity": 111,
      "chip": "ym2612"
    },
    {
      "channel": 2,
      "note": 79,
      "start": 32.654,
      "duration": 0.1941,
      "velocity": 111,
      "chip": "ym2612"
    },
    {
      "channel": 3,
      "note": 61,
      "start": 32.6594,
      "duration": 0.0715,
      "velocity": 127,
      "chip": "ym2612"
    },
    {
      "channel": 5,
      "note": 78,
      "start": 32.7722,
      "duration": 0.1937,
      "velocity": 111,
      "chip": "ym2612"
    },
    {
      "channel": 0,
      "note": 63,
      "start": 32.8885,
      "duration": 0.8983,
      "velocity": 87,
      "chip": "ym2612"
    },
    {
      "channel": 1,
      "note": 51,
      "start": 32.89,
      "duration": 0.4273,
      "velocity": 111,
      "chip": "ym2612"
    },
    {
      "channel": 2,
      "note": 75,
      "start": 32.8922,
      "duration": 0.1906,
      "velocity": 111,
      "chip": "ym2612"
    },
    {
      "channel": 3,
      "note": 61,
      "start": 32.8984,
      "duration": 0.0672,
      "velocity": 127,
      "chip": "ym2612"
    },
    {
      "channel": 5,
      "note": 79,
      "start": 33.007,
      "duration": 0.1938,
      "velocity": 111,
      "chip": "ym2612"
    },
    {
      "channel": 2,
      "note": 70,
      "start": 33.1236,
      "duration": 0.1941,
      "velocity": 111,
      "chip": "ym2612"
    },
    {
      "channel": 3,
      "note": 61,
      "start": 33.1297,
      "duration": 0.0707,
      "velocity": 127,
      "chip": "ym2612"
    },
    {
      "channel": 4,
      "note": 63,
      "start": 33.2414,
      "duration": 0.8983,
      "velocity": 87,
      "chip": "ym2612"
    },
    {
      "channel": 5,
      "note": 75,
      "start": 33.2444,
      "duration": 0.191,
      "velocity": 111,
      "chip": "ym2612"
    },
    {
      "channel": 1,
      "note": 51,
      "start": 33.358,
      "duration": 0.429,
      "velocity": 111,
      "chip": "ym2612"
    },
    {
      "channel": 2,
      "note": 75,
      "start": 33.3607,
      "duration": 0.1915,
      "velocity": 111,
      "chip": "ym2612"
    },
    {
      "channel": 3,
      "note": 61,
      "start": 33.3628,
      "duration": 0.0723,
      "velocity": 127,
      "chip": "ym2612"
    },
    {
      "channel": 5,
      "note": 70,
      "start": 33.4773,
      "duration": 0.1928,
      "velocity": 111,
      "chip": "ym2612"
    },
    {
      "channel": 2,
      "note": 76,
      "start": 33.593,
      "duration": 0.1941,
      "velocity": 111,
      "chip": "ym2612"
    },
    {
      "channel": 3,
      "note": 61,
      "start": 33.596,
      "duration": 0.0739,
      "velocity": 127,
      "chip": "ym2612"
    },
    {
      "channel": 5,
      "note": 75,
      "start": 33.712,
      "duration": 0.1929,
      "velocity": 111,
      "chip": "ym2612"
    },
    {
      "channel": 0,
      "note": 65,
      "start": 33.8284,
      "duration": 1.8363,
      "velocity": 87,
      "chip": "ym2612"
    },
    {
      "channel": 1,
      "note": 53,
      "start": 33.8304,
      "duration": 0.426,
      "velocity": 111,
      "chip": "ym2612"
    },
    {
      "channel": 2,
      "note": 77,
      "start": 33.8329,
      "duration": 0.1889,
      "velocity": 111,
      "chip": "ym2612"
    },
    {
      "channel": 3,
      "note": 61,
      "start": 33.8385,
      "duration": 0.0661,
      "velocity": 127,
      "chip": "ym2612"
    },
    {
      "channel": 5,
      "note": 76,
      "start": 33.9468,
      "duration": 0.1932,
      "velocity": 111,
      "chip": "ym2612"
    },
    {
      "channel": 2,
      "note": 72,
      "start": 34.0627,
      "duration": 0.1939,
      "velocity": 111,
      "chip": "ym2612"
    },
    {
      "channel": 3,
      "note": 61,
      "start": 34.068,
      "duration": 0.0131,
      "velocity": 119,
      "chip": "ym2612"
    },
    {
      "channel": 4,
      "note": 65,
      "start": 34.1805,
      "duration": 1.8372,
      "velocity": 87,
      "chip": "ym2612"
    },
    {
      "channel": 5,
      "note": 77,
      "start": 34.183,
      "duration": 0.1916,
      "velocity": 111,
      "chip": "ym2612"
    },
    {
      "channel": 1,
      "note": 53,
      "start": 34.2971,
      "duration": 0.4288,
      "velocity": 111,
      "chip": "ym2612"
    },
    {
      "channel": 2,
      "note": 77,
      "start": 34.2989,
      "duration": 0.1922,
      "velocity": 111,
      "chip": "ym2612"
    },
    {
      "channel": 3,
      "note": 61,
      "start": 34.301,
      "duration": 0.0148,
      "velocity": 119,
      "chip": "ym2612"
    },
    {
      "channel": 5,
      "note": 72,
      "start": 34.4155,
      "duration": 0.1936,
      "velocity": 111,
      "chip": "ym2612"
    },
    {
      "channel": 2,
      "note": 78,
      "start": 34.532,
      "duration": 0.194,
      "velocity": 111,
      "chip": "ym2612"
    },
    {
      "channel": 3,
      "note": 61,
      "start": 34.5374,
      "duration": 0.0714,
      "velocity": 127,
      "chip": "ym2612"
    },
    {
      "channel": 5,
      "note": 77,
      "start": 34.6502,
      "duration": 0.1945,
      "velocity": 111,
      "chip": "ym2612"
    },
    {
      "channel": 1,
      "note": 53,
      "start": 34.7666,
      "duration": 0.4288,
      "velocity": 111,
      "chip": "ym2612"
    },
    {
      "channel": 2,
      "note": 77,
      "start": 34.7686,
      "duration": 0.1924,
      "velocity": 111,
      "chip": "ym2612"
    },
    {
      "channel": 3,
      "note": 61,
      "start": 34.7741,
      "duration": 0.0703,
      "velocity": 127,
      "chip": "ym2612"
    },
    {
      "channel": 5,
      "note": 78,
      "start": 34.8849,
      "duration": 0.194,
      "velocity": 111,
      "chip": "ym2612"
    },
    {
      "channel": 2,
      "note": 72,
      "start": 35.0015,
      "duration": 0.1941,
      "velocity": 111,
      "chip": "ym2612"
    },
    {
      "channel": 3,
      "note": 61,
      "start": 35.0068,
      "duration": 0.0132,
      "velocity": 119,
      "chip": "ym2612"
    },
    {
      "channel": 5,
      "note": 77,
      "start": 35.1198,
      "duration": 0.1938,
      "velocity": 111,
      "chip": "ym2612"
    },
    {
      "channel": 1,
      "note": 53,
      "start": 35.2361,
      "duration": 0.4289,
      "velocity": 111,
      "chip": "ym2612"
    },
    {
      "channel": 2,
      "note": 77,
      "start": 35.2379,
      "duration": 0.1922,
      "velocity": 111,
      "chip": "ym2612"
    },
    {
      "channel": 3,
      "note": 61,
      "start": 35.24,
      "duration": 0.0147,
      "velocity": 119,
      "chip": "ym2612"
    },
    {
      "channel": 5,
      "note": 72,
      "start": 35.3544,
      "duration": 0.1936,
      "velocity": 111,
      "chip": "ym2612"
    },
    {
      "channel": 2,
      "note": 78,
      "start": 35.471,
      "duration": 0.1941,
      "velocity": 111,
      "chip": "ym2612"
    },
    {
      "channel": 3,
      "note": 61,
      "start": 35.4764,
      "duration": 0.0714,
      "velocity": 127,
      "chip": "ym2612"
    },
    {
      "channel": 5,
      "note": 77,
      "start": 35.5891,
      "duration": 0.1937,
      "velocity": 111,
      "chip": "ym2612"
    },
    {
      "channel": 0,
      "note": 66,
      "start": 35.7054,
      "duration": 0.8983,
      "velocity": 87,
      "chip": "ym2612"
    },
    {
      "channel": 1,
      "note": 54,
      "start": 35.7071,
      "duration": 0.4272,
      "velocity": 111,
      "chip": "ym2612"
    },
    {
      "channel": 2,
      "note": 78,
      "start": 35.7094,
      "duration": 0.1903,
      "velocity": 111,
      "chip": "ym2612"
    },
    {
      "channel": 3,
      "note": 61,
      "start": 35.7156,
      "duration": 0.0669,
      "velocity": 127,
      "chip": "ym2612"
    },
    {
      "channel": 5,
      "note": 78,
      "start": 35.8239,
      "duration": 0.194,
      "velocity": 111,
      "chip": "ym2612"
    },
    {
      "channel": 2,
      "note": 73,
      "start": 35.9405,
      "duration": 0.1941,
      "velocity": 111,
      "chip": "ym2612"
    },
    {
      "channel": 3,
      "note": 61,
      "start": 35.9466,
      "duration": 0.0124,
      "velocity": 119,
      "chip": "ym2612"
    },
    {
      "channel": 4,
      "note": 66,
      "start": 36.0584,
      "duration": 0.8981,
      "velocity": 87,
      "chip": "ym2612"
    },
    {
      "channel": 5,
      "note": 78,
      "start": 36.0613,
      "duration": 0.1913,
      "velocity": 111,
      "chip": "ym2612"
    },
    {
      "channel": 1,
      "note": 54,
      "start": 36.1749,
      "duration": 0.429,
      "velocity": 111,
      "chip": "ym2612"
    },
    {
      "channel": 2,
      "note": 78,
      "start": 36.1776,
      "duration": 0.1915,
      "velocity": 111,
      "chip": "ym2612"
    },
    {
      "channel": 3,
      "note": 61,
      "start": 36.1797,
      "duration": 0.015,
      "velocity": 119,
      "chip": "ym2612"
    },
    {
      "channel": 5,
      "note": 73,
      "start": 36.2942,
      "duration": 0.1928,
      "velocity": 111,
      "chip": "ym2612"
    },
    {
      "channel": 2,
      "note": 79,
      "start": 36.4108,
      "duration": 0.1933,
      "velocity": 111,
      "chip": "ym2612"
    },
    {
      "channel": 3,
      "note": 61,
      "start": 36.4161,
      "duration": 0.0706,
      "velocity": 127,
      "chip": "ym2612"
    },
    {
      "channel": 5,
      "note": 78,
      "start": 36.529,
      "duration": 0.1928,
      "velocity": 111,
      "chip": "ym2612"
    },
    {
      "channel": 0,
      "note": 63,
      "start": 36.6452,
      "duration": 0.8975,
      "velocity": 87,
      "chip": "ym2612"
    },
    {
      "channel": 1,
      "note": 51,
      "start": 36.6468,
      "duration": 0.4265,
      "velocity": 111,
      "chip": "ym2612"
    },
    {
      "channel": 2,
      "note": 75,
      "start": 36.6489,
      "duration": 0.1898,
      "velocity": 111,
      "chip": "ym2612"
    },
    {
      "channel": 3,
      "note": 61,
      "start": 36.6544,
      "duration": 0.0672,
      "velocity": 127,
      "chip": "ym2612"
    },
    {
      "channel": 5,
      "note": 79,
      "start": 36.7634,
      "duration": 0.1932,
      "velocity": 111,
      "chip": "ym2612"
    },
    {
      "channel": 2,
      "note": 70,
      "start": 36.8795,
      "duration": 0.194,
      "velocity": 111,
      "chip": "ym2612"
    },
    {
      "channel": 3,
      "note": 61,
      "start": 36.8848,
      "duration": 0.0715,
      "velocity": 127,
      "chip": "ym2612"
    },
    {
      "channel": 4,
      "note": 63,
      "start": 36.9973,
      "duration": 0.8984,
      "velocity": 87,
      "chip": "ym2612"
    },
    {
      "channel": 5,
      "note": 75,
      "start": 36.9995,
      "duration": 0.1919,
      "velocity": 111,
      "chip": "ym2612"
    },
    {
      "channel": 1,
      "note": 51,
      "start": 37.1139,
      "duration": 0.429,
      "velocity": 111,
      "chip": "ym2612"
    },
    {
      "channel": 2,
      "note": 75,
      "start": 37.1157,
      "duration": 0.1924,
      "velocity": 111,
      "chip": "ym2612"
    },
    {
      "channel": 3,
      "note": 61,
      "start": 37.1178,
      "duration": 0.0732,
      "velocity": 127,
      "chip": "ym2612"
    },
    {
      "channel": 5,
      "note": 70,
      "start": 37.2324,
      "duration": 0.1936,
      "velocity": 111,
      "chip": "ym2612"
    },
    {
      "channel": 2,
      "note": 76,
      "start": 37.3489,
      "duration": 0.1949,
      "velocity": 111,
      "chip": "ym2612"
    },
    {
      "channel": 3,
      "note": 61,
      "start": 37.351,
      "duration": 0.0747,
      "velocity": 127,
      "chip": "ym2612"
    },
    {
      "channel": 5,
      "note": 75,
      "start": 37.4671,
      "duration": 0.1944,
      "velocity": 111,
      "chip": "ym2612"
    },
    {
      "channel": 0,
      "note": 65,
      "start": 37.5836,
      "duration": 1.8371,
      "velocity": 87,
      "chip": "ym2612"
    },
    {
      "channel": 1,
      "note": 53,
      "start": 37.5855,
      "duration": 0.4268,
      "velocity": 111,
      "chip": "ym2612"
    },
    {
      "channel": 2,
      "note": 77,
      "start": 37.588,
      "duration": 0.1898,
      "velocity": 111,
      "chip": "ym2612"
    },
    {
      "channel": 3,
      "note": 61,
      "start": 37.5944,
      "duration": 0.0668,
      "velocity": 127,
      "chip": "ym2612"
    },
    {
      "channel": 5,
      "note": 76,
      "start": 37.7019,
      "duration": 0.194,
      "velocity": 111,
      "chip": "ym2612"
    },
    {
      "channel": 2,
      "note": 72,
      "start": 37.8184,
      "duration": 0.1941,
      "velocity": 111,
      "chip": "ym2612"
    },
    {
      "channel": 3,
      "note": 61,
      "start": 37.8237,
      "duration": 0.0132,
      "velocity": 119,
      "chip": "ym2612"
    },
    {
      "channel": 4,
      "note": 65,
      "start": 37.9364,
      "duration": 1.8372,
      "velocity": 87,
      "chip": "ym2612"
    },
    {
      "channel": 5,
      "note": 77,
      "start": 37.939,
      "duration": 0.1916,
      "velocity": 111,
      "chip": "ym2612"
    },
    {
      "channel": 1,
      "note": 53,
      "start": 38.053,
      "duration": 0.4288,
      "velocity": 111,
      "chip": "ym2612"
    },
    {
      "channel": 2,
      "note": 77,
      "start": 38.0549,
      "duration": 0.1922,
      "velocity": 111,
      "chip": "ym2612"
    },
    {
      "channel": 3,
      "note": 61,
      "start": 38.057,
      "duration": 0.0148,
      "velocity": 119,
      "chip": "ym2612"
    },
    {
      "channel": 5,
      "note": 72,
      "start": 38.1714,
      "duration": 0.1936,
      "velocity": 111,
      "chip": "ym2612"
    },
    {
      "channel": 2,
      "note": 78,
      "start": 38.2879,
      "duration": 0.194,
      "velocity": 111,
      "chip": "ym2612"
    },
    {
      "channel": 3,
      "note": 61,
      "start": 38.2941,
      "duration": 0.0706,
      "velocity": 127,
      "chip": "ym2612"
    },
    {
      "channel": 5,
      "note": 77,
      "start": 38.4061,
      "duration": 0.1937,
      "velocity": 111,
      "chip": "ym2612"
    },
    {
      "channel": 1,
      "note": 53,
      "start": 38.5225,
      "duration": 0.4288,
      "velocity": 111,
      "chip": "ym2612"
    },
    {
      "channel": 2,
      "note": 77,
      "start": 38.5245,
      "duration": 0.1921,
      "velocity": 111,
      "chip": "ym2612"
    },
    {
      "channel": 3,
      "note": 61,
      "start": 38.5308,
      "duration": 0.0686,
      "velocity": 127,
      "chip": "ym2612"
    },
    {
      "channel": 5,
      "note": 78,
      "start": 38.6408,
      "duration": 0.194,
      "velocity": 111,
      "chip": "ym2612"
    },
    {
      "channel": 2,
      "note": 72,
      "start": 38.7574,
      "duration": 0.1941,
      "velocity": 111,
      "chip": "ym2612"
    },
    {
      "channel": 3,
      "note": 61,
      "start": 38.7635,
      "duration": 0.0125,
      "velocity": 119,
      "chip": "ym2612"
    },
    {
      "channel": 5,
      "note": 77,
      "start": 38.8757,
      "duration": 0.1938,
      "velocity": 111,
      "chip": "ym2612"
    },
    {
      "channel": 1,
      "note": 53,
      "start": 38.992,
      "duration": 0.4289,
      "velocity": 111,
      "chip": "ym2612"
    },
    {
      "channel": 2,
      "note": 77,
      "start": 38.9947,
      "duration": 0.1914,
      "velocity": 111,
      "chip": "ym2612"
    },
    {
      "channel": 3,
      "note": 61,
      "start": 38.9968,
      "duration": 0.0148,
      "velocity": 119,
      "chip": "ym2612"
    },
    {
      "channel": 5,
      "note": 72,
      "start": 39.1112,
      "duration": 0.1928,
      "velocity": 111,
      "chip": "ym2612"
    },
    {
      "channel": 2,
      "note": 78,
      "start": 39.2278,
      "duration": 0.1933,
      "velocity": 111,
      "chip": "ym2612"
    },
    {
      "channel": 3,
      "note": 61,
      "start": 39.233,
      "duration": 0.0707,
      "velocity": 127,
      "chip": "ym2612"
    },
    {
      "channel": 5,
      "note": 77,
      "start": 39.3459,
      "duration": 0.1928,
      "velocity": 111,
      "chip": "ym2612"
    },
    {
      "channel": 0,
      "note": 66,
      "start": 39.4622,
      "duration": 0.8975,
      "velocity": 87,
      "chip": "ym2612"
    },
    {
      "channel": 1,
      "note": 54,
      "start": 39.4639,
      "duration": 0.4263,
      "velocity": 111,
      "chip": "ym2612"
    },
    {
      "channel": 2,
      "note": 78,
      "start": 39.4661,
      "duration": 0.1895,
      "velocity": 111,
      "chip": "ym2612"
    },
    {
      "channel": 3,
      "note": 61,
      "start": 39.4715,
      "duration": 0.0669,
      "velocity": 127,
      "chip": "ym2612"
    },
    {
      "channel": 5,
      "note": 78,
      "start": 39.5801,
      "duration": 0.1937,
      "velocity": 111,
      "chip": "ym2612"
    },
    {
      "channel": 2,
      "note": 73,
      "start": 39.6964,
      "duration": 0.1941,
      "velocity": 111,
      "chip": "ym2612"
    },
    {
      "channel": 3,
      "note": 61,
      "start": 39.7017,
      "duration": 0.0132,
      "velocity": 119,
      "chip": "ym2612"
    },
    {
      "channel": 4,
      "note": 66,
      "start": 39.8143,
      "duration": 0.8981,
      "velocity": 87,
      "chip": "ym2612"
    },
    {
      "channel": 5,
      "note": 78,
      "start": 39.8164,
      "duration": 0.1921,
      "velocity": 111,
      "chip": "ym2612"
    },
    {
      "channel": 1,
      "note": 54,
      "start": 39.9308,
      "duration": 0.43,
      "velocity": 111,
      "chip": "ym2612"
    },
    {
      "channel": 2,
      "note": 78,
      "start": 39.9327,
      "duration": 0.1924,
      "velocity": 111,
      "chip": "ym2612"
    },
    {
      "channel": 3,
      "note": 61,
      "start": 39.9348,
      "duration": 0.0149,
      "velocity": 119,
      "chip": "ym2612"
    },
    {
      "channel": 5,
      "note": 73,
      "start": 40.0493,
      "duration": 0.1937,
      "velocity": 111,
      "chip": "ym2612"
    },
    {
      "channel": 2,
      "note": 79,
      "start": 40.1659,
      "duration": 0.1951,
      "velocity": 111,
      "chip": "ym2612"
    },
    {
      "channel": 3,
      "note": 61,
      "start": 40.1712,
      "duration": 0.0715,
      "velocity": 127,
      "chip": "ym2612"
    },
    {
      "channel": 5,
      "note": 78,
      "start": 40.284,
      "duration": 0.1942,
      "velocity": 111,
      "chip": "ym2612"
    },
    {
      "channel": 0,
      "note": 63,
      "start": 40.4003,
      "duration": 0.8983,
      "velocity": 87,
      "chip": "ym2612"
    },
    {
      "channel": 1,
      "note": 51,
      "start": 40.4019,
      "duration": 0.4274,
      "velocity": 111,
      "chip": "ym2612"
    },
    {
      "channel": 2,
      "note": 75,
      "start": 40.404,
      "duration": 0.1905,
      "velocity": 111,
      "chip": "ym2612"
    },
    {
      "channel": 3,
      "note": 61,
      "start": 40.4094,
      "duration": 0.0685,
      "velocity": 127,
      "chip": "ym2612"
    },
    {
      "channel": 5,
      "note": 79,
      "start": 40.5187,
      "duration": 0.1938,
      "velocity": 111,
      "chip": "ym2612"
    },
    {
      "channel": 2,
      "note": 70,
      "start": 40.6354,
      "duration": 0.194,
      "velocity": 111,
      "chip": "ym2612"
    },
    {
      "channel": 3,
      "note": 61,
      "start": 40.6407,
      "duration": 0.0715,
      "velocity": 127,
      "chip": "ym2612"
    },
    {
      "channel": 4,
      "note": 63,
      "start": 40.7532,
      "duration": 0.8983,
      "velocity": 87,
      "chip": "ym2612"
    },
    {
      "channel": 5,
      "note": 75,
      "start": 40.7554,
      "duration": 0.1919,
      "velocity": 111,
      "chip": "ym2612"
    },
    {
      "channel": 1,
      "note": 51,
      "start": 40.8698,
      "duration": 0.4291,
      "velocity": 111,
      "chip": "ym2612"
    },
    {
      "channel": 2,
      "note": 75,
      "start": 40.8717,
      "duration": 0.1924,
      "velocity": 111,
      "chip": "ym2612"
    },
    {
      "channel": 3,
      "note": 61,
      "start": 40.8737,
      "duration": 0.0732,
      "velocity": 127,
      "chip": "ym2612"
    },
    {
      "channel": 5,
      "note": 70,
      "start": 40.9883,
      "duration": 0.1936,
      "velocity": 111,
      "chip": "ym2612"
    },
    {
      "channel": 2,
      "note": 76,
      "start": 41.1049,
      "duration": 0.1941,
      "velocity": 111,
      "chip": "ym2612"
    },
    {
      "channel": 3,
      "note": 61,
      "start": 41.107,
      "duration": 0.0747,
      "velocity": 127,
      "chip": "ym2612"
    },
    {
      "channel": 5,
      "note": 75,
      "start": 41.223,
      "duration": 0.1937,
      "velocity": 111,
      "chip": "ym2612"
    },
    {
      "channel": 0,
      "note": 65,
      "start": 41.3394,
      "duration": 3.7151,
      "velocity": 87,
      "chip": "ym2612"
    },
    {
      "channel": 1,
      "note": 53,
      "start": 41.3414,
      "duration": 0.4268,
      "velocity": 111,
      "chip": "ym2612"
    },
    {
      "channel": 2,
      "note": 77,
      "start": 41.3447,
      "duration": 0.1889,
      "velocity": 111,
      "chip": "ym2612"
    },
    {
      "channel": 3,
      "note": 61,
      "start": 41.3503,
      "duration": 0.0661,
      "velocity": 127,
      "chip": "ym2612"
    },
    {
      "channel": 5,
      "note": 76,
      "start": 41.4578,
      "duration": 0.194,
      "velocity": 111,
      "chip": "ym2612"
    },
    {
      "channel": 2,
      "note": 72,
      "start": 41.5743,
      "duration": 0.1941,
      "velocity": 111,
      "chip": "ym2612"
    },
    {
      "channel": 3,
      "note": 61,
      "start": 41.5805,
      "duration": 0.0124,
      "velocity": 119,
      "chip": "ym2612"
    },
    {
      "channel": 4,
      "note": 65,
      "start": 41.6923,
      "duration": 3.7356,
      "velocity": 87,
      "chip": "ym2612"
    },
    {
      "channel": 5,
      "note": 77,
      "start": 41.6957,
      "duration": 0.1908,
      "velocity": 111,
      "chip": "ym2612"
    },
    {
      "channel": 1,
      "note": 53,
      "start": 41.8089,
      "duration": 0.4288,
      "velocity": 111,
      "chip": "ym2612"
    },
    {
      "channel": 2,
      "note": 77,
      "start": 41.8117,
      "duration": 0.1914,
      "velocity": 111,
      "chip": "ym2612"
    },
    {
      "channel": 3,
      "note": 61,
      "start": 41.8138,
      "duration": 0.0146,
      "velocity": 119,
      "chip": "ym2612"
    },
    {
      "channel": 5,
      "note": 72,
      "start": 41.9281,
      "duration": 0.1927,
      "velocity": 111,
      "chip": "ym2612"
    },
    {
      "channel": 2,
      "note": 78,
      "start": 42.0447,
      "duration": 0.1932,
      "velocity": 111,
      "chip": "ym2612"
    },
    {
      "channel": 3,
      "note": 61,
      "start": 42.05,
      "duration": 0.0706,
      "velocity": 127,
      "chip": "ym2612"
    },
    {
      "channel": 5,
      "note": 77,
      "start": 42.1628,
      "duration": 0.1929,
      "velocity": 111,
      "chip": "ym2612"
    },
    {
      "channel": 1,
      "note": 53,
      "start": 42.28,
      "duration": 0.4272,
      "velocity": 111,
      "chip": "ym2612"
    },
    {
      "channel": 2,
      "note": 77,
      "start": 42.2821,
      "duration": 0.1905,
      "velocity": 111,
      "chip": "ym2612"
    },
    {
      "channel": 3,
      "note": 61,
      "start": 42.2874,
      "duration": 0.0679,
      "velocity": 127,
      "chip": "ym2612"
    },
    {
      "channel": 5,
      "note": 78,
      "start": 42.3968,
      "duration": 0.1939,
      "velocity": 111,
      "chip": "ym2612"
    },
    {
      "channel": 2,
      "note": 72,
      "start": 42.5133,
      "duration": 0.1941,
      "velocity": 111,
      "chip": "ym2612"
    },
    {
      "channel": 3,
      "note": 61,
      "start": 42.5186,
      "duration": 0.0132,
      "velocity": 119,
      "chip": "ym2612"
    },
    {
      "channel": 5,
      "note": 77,
      "start": 42.6316,
      "duration": 0.1938,
      "velocity": 111,
      "chip": "ym2612"
    },
    {
      "channel": 1,
      "note": 53,
      "start": 42.7479,
      "duration": 0.4306,
      "velocity": 111,
      "chip": "ym2612"
    },
    {
      "channel": 2,
      "note": 77,
      "start": 42.7498,
      "duration": 0.1922,
      "velocity": 111,
      "chip": "ym2612"
    },
    {
      "channel": 3,
      "note": 61,
      "start": 42.7519,
      "duration": 0.0148,
      "velocity": 119,
      "chip": "ym2612"
    },
    {
      "channel": 5,
      "note": 72,
      "start": 42.8662,
      "duration": 0.1954,
      "velocity": 111,
      "chip": "ym2612"
    },
    {
      "channel": 2,
      "note": 78,
      "start": 42.9829,
      "duration": 0.1958,
      "velocity": 111,
      "chip": "ym2612"
    },
    {
      "channel": 3,
      "note": 61,
      "start": 42.9881,
      "duration": 0.0732,
      "velocity": 127,
      "chip": "ym2612"
    },
    {
      "channel": 5,
      "note": 77,
      "start": 43.1019,
      "duration": 0.1938,
      "velocity": 111,
      "chip": "ym2612"
    },
    {
      "channel": 1,
      "note": 53,
      "start": 43.2198,
      "duration": 0.427,
      "velocity": 111,
      "chip": "ym2612"
    },
    {
      "channel": 2,
      "note": 77,
      "start": 43.2218,
      "duration": 0.1905,
      "velocity": 111,
      "chip": "ym2612"
    },
    {
      "channel": 3,
      "note": 61,
      "start": 43.2281,
      "duration": 0.0674,
      "velocity": 127,
      "chip": "ym2612"
    },
    {
      "channel": 5,
      "note": 78,
      "start": 43.3365,
      "duration": 0.1938,
      "velocity": 111,
      "chip": "ym2612"
    },
    {
      "channel": 2,
      "note": 72,
      "start": 43.453,
      "duration": 0.1939,
      "velocity": 111,
      "chip": "ym2612"
    },
    {
      "channel": 3,
      "note": 61,
      "start": 43.4583,
      "duration": 0.0125,
      "velocity": 119,
      "chip": "ym2612"
    },
    {
      "channel": 5,
      "note": 77,
      "start": 43.5728,
      "duration": 0.1922,
      "velocity": 111,
      "chip": "ym2612"
    },
    {
      "channel": 1,
      "note": 53,
      "start": 43.6875,
      "duration": 0.4286,
      "velocity": 111,
      "chip": "ym2612"
    },
    {
      "channel": 2,
      "note": 77,
      "start": 43.6893,
      "duration": 0.1922,
      "velocity": 111,
      "chip": "ym2612"
    },
    {
      "channel": 3,
      "note": 61,
      "start": 43.6914,
      "duration": 0.0142,
      "velocity": 119,
      "chip": "ym2612"
    },
    {
      "channel": 5,
      "note": 72,
      "start": 43.8058,
      "duration": 0.1936,
      "velocity": 111,
      "chip": "ym2612"
    },
    {
      "channel": 2,
      "note": 78,
      "start": 43.9223,
      "duration": 0.1939,
      "velocity": 111,
      "chip": "ym2612"
    },
    {
      "channel": 3,
      "note": 61,
      "start": 43.9285,
      "duration": 0.0706,
      "velocity": 127,
      "chip": "ym2612"
    },
    {
      "channel": 5,
      "note": 77,
      "start": 44.0404,
      "duration": 0.1935,
      "velocity": 111,
      "chip": "ym2612"
    },
    {
      "channel": 1,
      "note": 53,
      "start": 44.1568,
      "duration": 0.4286,
      "velocity": 111,
      "chip": "ym2612"
    },
    {
      "channel": 2,
      "note": 77,
      "start": 44.1588,
      "duration": 0.192,
      "velocity": 111,
      "chip": "ym2612"
    },
    {
      "channel": 3,
      "note": 61,
      "start": 44.1649,
      "duration": 0.0688,
      "velocity": 127,
      "chip": "ym2612"
    },
    {
      "channel": 5,
      "note": 78,
      "start": 44.275,
      "duration": 0.1938,
      "velocity": 111,
      "chip": "ym2612"
    },
    {
      "channel": 2,
      "note": 72,
      "start": 44.3916,
      "duration": 0.1939,
      "velocity": 111,
      "chip": "ym2612"
    },
    {
      "channel": 3,
      "note": 61,
      "start": 44.3977,
      "duration": 0.013,
      "velocity": 119,
      "chip": "ym2612"
    },
    {
      "channel": 5,
      "note": 77,
      "start": 44.5106,
      "duration": 0.1929,
      "velocity": 111,
      "chip": "ym2612"
    },
    {
      "channel": 1,
      "note": 53,
      "start": 44.626,
      "duration": 0.4287,
      "velocity": 111,
      "chip": "ym2612"
    },
    {
      "channel": 2,
      "note": 77,
      "start": 44.6287,
      "duration": 0.1914,
      "velocity": 111,
      "chip": "ym2612"
    },
    {
      "channel": 3,
      "note": 61,
      "start": 44.6308,
      "duration": 0.0142,
      "velocity": 119,
      "chip": "ym2612"
    },
    {
      "channel": 5,
      "note": 72,
      "start": 44.7451,
      "duration": 0.1927,
      "velocity": 111,
      "chip": "ym2612"
    },
    {
      "channel": 2,
      "note": 78,
      "start": 44.8618,
      "duration": 0.1931,
      "velocity": 111,
      "chip": "ym2612"
    },
    {
      "channel": 3,
      "note": 61,
      "start": 44.8671,
      "duration": 0.0705,
      "velocity": 127,
      "chip": "ym2612"
    },
    {
      "channel": 5,
      "note": 77,
      "start": 44.9797,
      "duration": 0.2124,
      "velocity": 111,
      "chip": "ym2612"
    },
    {
      "channel": 0,
      "note": 56,
      "start": 45.0995,
      "duration": 0.0333,
      "velocity": 101,
      "chip": "ym2612"
    },
    {
      "channel": 1,
      "note": 49,
      "start": 45.1019,
      "duration": 0.4424,
      "velocity": 111,
      "chip": "ym2612"
    },
    {
      "channel": 2,
      "note": 56,
      "start": 45.1071,
      "duration": 3.7232,
      "velocity": 101,
      "chip": "ym2612"
    },
    {
      "channel": 3,
      "note": 61,
      "start": 45.1136,
      "duration": 0.0782,
      "velocity": 127,
      "chip": "ym2612"
    },
    {
      "channel": 5,
      "note": 78,
      "start": 45.2332,
      "duration": 0.1949,
      "velocity": 111,
      "chip": "ym2612"
    },
    {
      "channel": 3,
      "note": 61,
      "start": 45.3533,
      "duration": 0.015,
      "velocity": 119,
      "chip": "ym2612"
    },
    {
      "channel": 4,
      "note": 56,
      "start": 45.4715,
      "duration": 0.0143,
      "velocity": 101,
      "chip": "ym2612"
    },
    {
      "channel": 5,
      "note": 56,
      "start": 45.4779,
      "duration": 3.7053,
      "velocity": 101,
      "chip": "ym2612"
    },
    {
      "channel": 1,
      "note": 49,
      "start": 45.5844,
      "duration": 0.4288,
      "velocity": 111,
      "chip": "ym2612"
    },
    {
      "channel": 3,
      "note": 61,
      "start": 45.5898,
      "duration": 0.0716,
      "velocity": 127,
      "chip": "ym2612"
    },
    {
      "channel": 3,
      "note": 61,
      "start": 45.8228,
      "duration": 0.0151,
      "velocity": 119,
      "chip": "ym2612"
    },
    {
      "channel": 1,
      "note": 49,
      "start": 46.0538,
      "duration": 0.4288,
      "velocity": 111,
      "chip": "ym2612"
    },
    {
      "channel": 3,
      "note": 61,
      "start": 46.0594,
      "duration": 0.0714,
      "velocity": 127,
      "chip": "ym2612"
    },
    {
      "channel": 3,
      "note": 61,
      "start": 46.2923,
      "duration": 0.015,
      "velocity": 119,
      "chip": "ym2612"
    },
    {
      "channel": 1,
      "note": 49,
      "start": 46.5234,
      "duration": 0.4288,
      "velocity": 111,
      "chip": "ym2612"
    },
    {
      "channel": 3,
      "note": 61,
      "start": 46.5296,
      "duration": 0.0707,
      "velocity": 127,
      "chip": "ym2612"
    },
    {
      "channel": 3,
      "note": 61,
      "start": 46.7626,
      "duration": 0.015,
      "velocity": 119,
      "chip": "ym2612"
    },
    {
      "channel": 0,
      "note": 61,
      "start": 46.9926,
      "duration": 1.8374,
      "velocity": 101,
      "chip": "ym2612"
    },
    {
      "channel": 1,
      "note": 49,
      "start": 46.9953,
      "duration": 0.4264,
      "velocity": 111,
      "chip": "ym2612"
    },
    {
      "channel": 3,
      "note": 61,
      "start": 47.0022,
      "duration": 0.0676,
      "velocity": 127,
      "chip": "ym2612"
    },
    {
      "channel": 3,
      "note": 61,
      "start": 47.2322,
      "duration": 0.0142,
      "velocity": 119,
      "chip": "ym2612"
    },
    {
      "channel": 4,
      "note": 61,
      "start": 47.3465,
      "duration": 1.8365,
      "velocity": 101,
      "chip": "ym2612"
    },
    {
      "channel": 1,
      "note": 49,
      "start": 47.4625,
      "duration": 0.4286,
      "velocity": 111,
      "chip": "ym2612"
    },
    {
      "channel": 3,
      "note": 61,
      "start": 47.4679,
      "duration": 0.0714,
      "velocity": 127,
      "chip": "ym2612"
    },
    {
      "channel": 3,
      "note": 61,
      "start": 47.7008,
      "duration": 0.015,
      "velocity": 119,
      "chip": "ym2612"
    },
    {
      "channel": 1,
      "note": 49,
      "start": 47.9318,
      "duration": 0.4291,
      "velocity": 111,
      "chip": "ym2612"
    },
    {
      "channel": 3,
      "note": 61,
      "start": 47.9374,
      "duration": 0.0714,
      "velocity": 127,
      "chip": "ym2612"
    },
    {
      "channel": 3,
      "note": 61,
      "start": 48.1702,
      "duration": 0.015,
      "velocity": 119,
      "chip": "ym2612"
    },
    {
      "channel": 1,
      "note": 49,
      "start": 48.4013,
      "duration": 0.4289,
      "velocity": 111,
      "chip": "ym2612"
    },
    {
      "channel": 3,
      "note": 61,
      "start": 48.4067,
      "duration": 0.0716,
      "velocity": 127,
      "chip": "ym2612"
    },
    {
      "channel": 3,
      "note": 61,
      "start": 48.6398,
      "duration": 0.015,
      "velocity": 119,
      "chip": "ym2612"
    },
    {
      "channel": 0,
      "note": 62,
      "start": 48.8706,
      "duration": 2.7763,
      "velocity": 101,
      "chip": "ym2612"
    },
    {
      "channel": 1,
      "note": 50,
      "start": 48.8725,
      "duration": 0.4271,
      "velocity": 111,
      "chip": "ym2612"
    },
    {
      "channel": 2,
      "note": 57,
      "start": 48.8741,
      "duration": 2.7732,
      "velocity": 101,
      "chip": "ym2612"
    },
    {
      "channel": 3,
      "note": 61,
      "start": 48.8804,
      "duration": 0.0673,
      "velocity": 127,
      "chip": "ym2612"
    },
    {
      "channel": 3,
      "note": 61,
      "start": 49.1093,
      "duration": 0.015,
      "velocity": 119,
      "chip": "ym2612"
    },
    {
      "channel": 4,
      "note": 62,
      "start": 49.2236,
      "duration": 2.7763,
      "velocity": 101,
      "chip": "ym2612"
    },
    {
      "channel": 5,
      "note": 57,
      "start": 49.2252,
      "duration": 2.7749,
      "velocity": 101,
      "chip": "ym2612"
    },
    {
      "channel": 1,
      "note": 50,
      "start": 49.3403,
      "duration": 0.4288,
      "velocity": 111,
      "chip": "ym2612"
    },
    {
      "channel": 3,
      "note": 61,
      "start": 49.3466,
      "duration": 0.0707,
      "velocity": 127,
      "chip": "ym2612"
    },
    {
      "channel": 3,
      "note": 61,
      "start": 49.5796,
      "duration": 0.0151,
      "velocity": 119,
      "chip": "ym2612"
    },
    {
      "channel": 1,
      "note": 50,
      "start": 49.8105,
      "duration": 0.428,
      "velocity": 111,
      "chip": "ym2612"
    },
    {
      "channel": 3,
      "note": 61,
      "start": 49.8161,
      "duration": 0.0706,
      "velocity": 127,
      "chip": "ym2612"
    },
    {
      "channel": 3,
      "note": 61,
      "start": 50.0491,
      "duration": 0.0142,
      "velocity": 119,
      "chip": "ym2612"
    },
    {
      "channel": 1,
      "note": 50,
      "start": 50.2793,
      "duration": 0.4288,
      "velocity": 111,
      "chip": "ym2612"
    },
    {
      "channel": 3,
      "note": 61,
      "start": 50.2847,
      "duration": 0.0716,
      "velocity": 127,
      "chip": "ym2612"
    },
    {
      "channel": 3,
      "note": 61,
      "start": 50.5177,
      "duration": 0.015,
      "velocity": 119,
      "chip": "ym2612"
    },
    {
      "channel": 1,
      "note": 50,
      "start": 50.7502,
      "duration": 0.4274,
      "velocity": 111,
      "chip": "ym2612"
    },
    {
      "channel": 3,
      "note": 61,
      "start": 50.7572,
      "duration": 0.0685,
      "velocity": 127,
      "chip": "ym2612"
    },
    {
      "channel": 3,
      "note": 61,
      "start": 50.9872,
      "duration": 0.0151,
      "velocity": 119,
      "chip": "ym2612"
    },
    {
      "channel": 1,
      "note": 50,
      "start": 51.2182,
      "duration": 0.4289,
      "velocity": 111,
      "chip": "ym2612"
    },
    {
      "channel": 3,
      "note": 61,
      "start": 51.2237,
      "duration": 0.0715,
      "velocity": 127,
      "chip": "ym2612"
    },
    {
      "channel": 3,
      "note": 61,
      "start": 51.4567,
      "duration": 0.015,
      "velocity": 119,
      "chip": "ym2612"
    },
    {
      "channel": 0,
      "note": 61,
      "start": 51.6875,
      "duration": 0.1941,
      "velocity": 101,
      "chip": "ym2612"
    },
    {
      "channel": 1,
      "note": 50,
      "start": 51.6893,
      "duration": 0.4273,
      "velocity": 111,
      "chip": "ym2612"
    },
    {
      "channel": 2,
      "note": 56,
      "start": 51.691,
      "duration": 0.191,
      "velocity": 101,
      "chip": "ym2612"
    },
    {
      "channel": 3,
      "note": 61,
      "start": 51.6973,
      "duration": 0.0674,
      "velocity": 127,
      "chip": "ym2612"
    },
    {
      "channel": 0,
      "note": 64,
      "start": 51.9222,
      "duration": 0.1941,
      "velocity": 101,
      "chip": "ym2612"
    },
    {
      "channel": 2,
      "note": 59,
      "start": 51.9239,
      "duration": 0.1929,
      "velocity": 101,
      "chip": "ym2612"
    },
    {
      "channel": 3,
      "note": 61,
      "start": 51.93,
      "duration": 0.0111,
      "velocity": 119,
      "chip": "ym2612"
    },
    {
      "channel": 4,
      "note": 61,
      "start": 52.0405,
      "duration": 0.1939,
      "velocity": 101,
      "chip": "ym2612"
    },
    {
      "channel": 5,
      "note": 56,
      "start": 52.0421,
      "duration": 0.1924,
      "velocity": 101,
      "chip": "ym2612"
    },
    {
      "channel": 0,
      "note": 62,
      "start": 52.157,
      "duration": 0.1942,
      "velocity": 101,
      "chip": "ym2612"
    },
    {
      "channel": 1,
      "note": 50,
      "start": 52.1587,
      "duration": 0.4274,
      "velocity": 111,
      "chip": "ym2612"
    },
    {
      "channel": 2,
      "note": 57,
      "start": 52.1612,
      "duration": 0.1902,
      "velocity": 101,
      "chip": "ym2612"
    },
    {
      "channel": 3,
      "note": 61,
      "start": 52.1666,
      "duration": 0.0676,
      "velocity": 127,
      "chip": "ym2612"
    },
    {
      "channel": 4,
      "note": 64,
      "start": 52.2752,
      "duration": 0.1941,
      "velocity": 101,
      "chip": "ym2612"
    },
    {
      "channel": 5,
      "note": 59,
      "start": 52.2777,
      "duration": 0.1919,
      "velocity": 101,
      "chip": "ym2612"
    },
    {
      "channel": 0,
      "note": 61,
      "start": 52.3917,
      "duration": 0.1942,
      "velocity": 101,
      "chip": "ym2612"
    },
    {
      "channel": 2,
      "note": 56,
      "start": 52.3943,
      "duration": 0.192,
      "velocity": 101,
      "chip": "ym2612"
    },
    {
      "channel": 3,
      "note": 61,
      "start": 52.3996,
      "duration": 0.012,
      "velocity": 119,
      "chip": "ym2612"
    },
    {
      "channel": 4,
      "note": 62,
      "start": 52.5108,
      "duration": 0.1931,
      "velocity": 101,
      "chip": "ym2612"
    },
    {
      "channel": 5,
      "note": 57,
      "start": 52.5124,
      "duration": 0.1917,
      "velocity": 101,
      "chip": "ym2612"
    },
    {
      "channel": 0,
      "note": 56,
      "start": 52.6274,
      "duration": 0.0172,
      "velocity": 101,
      "chip": "ym2612"
    },
    {
      "channel": 1,
      "note": 49,
      "start": 52.6295,
      "duration": 0.426,
      "velocity": 111,
      "chip": "ym2612"
    },
    {
      "channel": 2,
      "note": 56,
      "start": 52.6313,
      "duration": 3.7109,
      "velocity": 101,
      "chip": "ym2612"
    },
    {
      "channel": 3,
      "note": 61,
      "start": 52.6367,
      "duration": 0.067,
      "velocity": 127,
      "chip": "ym2612"
    },
    {
      "channel": 4,
      "note": 61,
      "start": 52.7455,
      "duration": 0.1934,
      "velocity": 101,
      "chip": "ym2612"
    },
    {
      "channel": 5,
      "note": 56,
      "start": 52.7472,
      "duration": 0.1919,
      "velocity": 101,
      "chip": "ym2612"
    },
    {
      "channel": 3,
      "note": 61,
      "start": 52.8661,
      "duration": 0.0141,
      "velocity": 119,
      "chip": "ym2612"
    },
    {
      "channel": 4,
      "note": 56,
      "start": 52.9799,
      "duration": 0.0177,
      "velocity": 101,
      "chip": "ym2612"
    },
    {
      "channel": 5,
      "note": 56,
      "start": 52.9816,
      "duration": 3.7144,
      "velocity": 101,
      "chip": "ym2612"
    },
    {
      "channel": 1,
      "note": 49,
      "start": 53.0962,
      "duration": 0.4288,
      "velocity": 111,
      "chip": "ym2612"
    },
    {
      "channel": 3,
      "note": 61,
      "start": 53.1016,
      "duration": 0.0716,
      "velocity": 127,
      "chip": "ym2612"
    },
    {
      "channel": 3,
      "note": 61,
      "start": 53.3346,
      "duration": 0.015,
      "velocity": 119,
      "chip": "ym2612"
    },
    {
      "channel": 1,
      "note": 49,
      "start": 53.5657,
      "duration": 0.4288,
      "velocity": 111,
      "chip": "ym2612"
    },
    {
      "channel": 3,
      "note": 61,
      "start": 53.5713,
      "duration": 0.0714,
      "velocity": 127,
      "chip": "ym2612"
    },
    {
      "channel": 3,
      "note": 61,
      "start": 53.8041,
      "duration": 0.015,
      "velocity": 119,
      "chip": "ym2612"
    },
    {
      "channel": 1,
      "note": 49,
      "start": 54.0352,
      "duration": 0.4288,
      "velocity": 111,
      "chip": "ym2612"
    },
    {
      "channel": 3,
      "note": 61,
      "start": 54.0406,
      "duration": 0.0715,
      "velocity": 127,
      "chip": "ym2612"
    },
    {
      "channel": 3,
      "note": 61,
      "start": 54.2736,
      "duration": 0.015,
      "velocity": 119,
      "chip": "ym2612"
    },
    {
      "channel": 0,
      "note": 61,
      "start": 54.5044,
      "duration": 1.8374,
      "velocity": 101,
      "chip": "ym2612"
    },
    {
      "channel": 1,
      "note": 49,
      "start": 54.5063,
      "duration": 0.4272,
      "velocity": 111,
      "chip": "ym2612"
    },
    {
      "channel": 3,
      "note": 61,
      "start": 54.5141,
      "duration": 0.0676,
      "velocity": 127,
      "chip": "ym2612"
    },
    {
      "channel": 3,
      "note": 61,
      "start": 54.7439,
      "duration": 0.0143,
      "velocity": 119,
      "chip": "ym2612"
    },
    {
      "channel": 4,
      "note": 61,
      "start": 54.8574,
      "duration": 1.8383,
      "velocity": 101,
      "chip": "ym2612"
    },
    {
      "channel": 1,
      "note": 49,
      "start": 54.9741,
      "duration": 0.4288,
      "velocity": 111,
      "chip": "ym2612"
    },
    {
      "channel": 3,
      "note": 61,
      "start": 54.9804,
      "duration": 0.0707,
      "velocity": 127,
      "chip": "ym2612"
    },
    {
      "channel": 3,
      "note": 61,
      "start": 55.2134,
      "duration": 0.0149,
      "velocity": 119,
      "chip": "ym2612"
    },
    {
      "channel": 1,
      "note": 49,
      "start": 55.4445,
      "duration": 0.4279,
      "velocity": 111,
      "chip": "ym2612"
    },
    {
      "channel": 3,
      "note": 61,
      "start": 55.45,
      "duration": 0.0705,
      "velocity": 127,
      "chip": "ym2612"
    },
    {
      "channel": 3,
      "note": 61,
      "start": 55.6838,
      "duration": 0.0133,
      "velocity": 119,
      "chip": "ym2612"
    },
    {
      "channel": 1,
      "note": 49,
      "start": 55.9131,
      "duration": 0.4289,
      "velocity": 111,
      "chip": "ym2612"
    },
    {
      "channel": 3,
      "note": 61,
      "start": 55.9185,
      "duration": 0.0716,
      "velocity": 127,
      "chip": "ym2612"
    },
    {
      "channel": 3,
      "note": 61,
      "start": 56.1515,
      "duration": 0.0151,
      "velocity": 119,
      "chip": "ym2612"
    },
    {
      "channel": 0,
      "note": 62,
      "start": 56.3824,
      "duration": 2.7763,
      "velocity": 101,
      "chip": "ym2612"
    },
    {
      "channel": 1,
      "note": 50,
      "start": 56.3843,
      "duration": 0.4278,
      "velocity": 111,
      "chip": "ym2612"
    },
    {
      "channel": 2,
      "note": 57,
      "start": 56.386,
      "duration": 2.7732,
      "velocity": 101,
      "chip": "ym2612"
    },
    {
      "channel": 3,
      "note": 61,
      "start": 56.3914,
      "duration": 0.0681,
      "velocity": 127,
      "chip": "ym2612"
    },
    {
      "channel": 3,
      "note": 61,
      "start": 56.622,
      "duration": 0.0141,
      "velocity": 119,
      "chip": "ym2612"
    },
    {
      "channel": 4,
      "note": 62,
      "start": 56.7362,
      "duration": 2.7759,
      "velocity": 101,
      "chip": "ym2612"
    },
    {
      "channel": 5,
      "note": 57,
      "start": 56.7378,
      "duration": 2.7744,
      "velocity": 101,
      "chip": "ym2612"
    },
    {
      "channel": 1,
      "note": 50,
      "start": 56.8528,
      "duration": 0.4285,
      "velocity": 111,
      "chip": "ym2612"
    },
    {
      "channel": 3,
      "note": 61,
      "start": 56.8582,
      "duration": 0.0715,
      "velocity": 127,
      "chip": "ym2612"
    },
    {
      "channel": 3,
      "note": 61,
      "start": 57.0911,
      "duration": 0.0144,
      "velocity": 119,
      "chip": "ym2612"
    },
    {
      "channel": 1,
      "note": 50,
      "start": 57.3221,
      "duration": 0.4285,
      "velocity": 111,
      "chip": "ym2612"
    },
    {
      "channel": 3,
      "note": 61,
      "start": 57.3285,
      "duration": 0.0705,
      "velocity": 127,
      "chip": "ym2612"
    },
    {
      "channel": 3,
      "note": 61,
      "start": 57.5612,
      "duration": 0.0139,
      "velocity": 119,
      "chip": "ym2612"
    },
    {
      "channel": 1,
      "note": 50,
      "start": 57.7913,
      "duration": 0.4285,
      "velocity": 111,
      "chip": "ym2612"
    },
    {
      "channel": 3,
      "note": 61,
      "start": 57.7976,
      "duration": 0.0707,
      "velocity": 127,
      "chip": "ym2612"
    },
    {
      "channel": 3,
      "note": 61,
      "start": 58.0305,
      "duration": 0.0145,
      "velocity": 119,
      "chip": "ym2612"
    },
    {
      "channel": 1,
      "note": 50,
      "start": 58.2629,
      "duration": 0.4264,
      "velocity": 111,
      "chip": "ym2612"
    },
    {
      "channel": 3,
      "note": 61,
      "start": 58.2699,
      "duration": 0.0676,
      "velocity": 127,
      "chip": "ym2612"
    },
    {
      "channel": 3,
      "note": 61,
      "start": 58.4998,
      "duration": 0.0142,
      "velocity": 119,
      "chip": "ym2612"
    },
    {
      "channel": 1,
      "note": 50,
      "start": 58.73,
      "duration": 0.4289,
      "velocity": 111,
      "chip": "ym2612"
    },
    {
      "channel": 3,
      "note": 61,
      "start": 58.7355,
      "duration": 0.0715,
      "velocity": 127,
      "chip": "ym2612"
    },
    {
      "channel": 3,
      "note": 61,
      "start": 58.9685,
      "duration": 0.015,
      "velocity": 119,
      "chip": "ym2612"
    },
    {
      "channel": 0,
      "note": 61,
      "start": 59.1993,
      "duration": 0.1948,
      "velocity": 101,
      "chip": "ym2612"
    },
    {
      "channel": 1,
      "note": 50,
      "start": 59.2012,
      "duration": 0.4273,
      "velocity": 111,
      "chip": "ym2612"
    },
    {
      "channel": 2,
      "note": 56,
      "start": 59.2028,
      "duration": 0.1916,
      "velocity": 101,
      "chip": "ym2612"
    },
    {
      "channel": 3,
      "note": 61,
      "start": 59.2083,
      "duration": 0.0691,
      "velocity": 127,
      "chip": "ym2612"
    },
    {
      "channel": 0,
      "note": 64,
      "start": 59.4341,
      "duration": 0.1942,
      "velocity": 101,
      "chip": "ym2612"
    },
    {
      "channel": 2,
      "note": 59,
      "start": 59.4358,
      "duration": 0.1929,
      "velocity": 101,
      "chip": "ym2612"
    },
    {
      "channel": 3,
      "note": 61,
      "start": 59.4411,
      "duration": 0.012,
      "velocity": 119,
      "chip": "ym2612"
    },
    {
      "channel": 4,
      "note": 61,
      "start": 59.5523,
      "duration": 0.1939,
      "velocity": 101,
      "chip": "ym2612"
    },
    {
      "channel": 5,
      "note": 56,
      "start": 59.554,
      "duration": 0.1924,
      "velocity": 101,
      "chip": "ym2612"
    },
    {
      "channel": 0,
      "note": 62,
      "start": 59.6688,
      "duration": 0.1942,
      "velocity": 101,
      "chip": "ym2612"
    },
    {
      "channel": 1,
      "note": 50,
      "start": 59.6706,
      "duration": 0.4274,
      "velocity": 111,
      "chip": "ym2612"
    },
    {
      "channel": 2,
      "note": 57,
      "start": 59.6722,
      "duration": 0.191,
      "velocity": 101,
      "chip": "ym2612"
    },
    {
      "channel": 3,
      "note": 61,
      "start": 59.6784,
      "duration": 0.0676,
      "velocity": 127,
      "chip": "ym2612"
    },
    {
      "channel": 4,
      "note": 64,
      "start": 59.7871,
      "duration": 0.1941,
      "velocity": 101,
      "chip": "ym2612"
    },
    {
      "channel": 5,
      "note": 59,
      "start": 59.7887,
      "duration": 0.1927,
      "velocity": 101,
      "chip": "ym2612"
    },
    {
      "channel": 0,
      "note": 61,
      "start": 59.9035,
      "duration": 0.1942,
      "velocity": 101,
      "chip": "ym2612"
    },
    {
      "channel": 2,
      "note": 56,
      "start": 59.9052,
      "duration": 0.1929,
      "velocity": 101,
      "chip": "ym2612"
    },
    {
      "channel": 3,
      "note": 61,
      "start": 59.9114,
      "duration": 0.0111,
      "velocity": 119,
      "chip": "ym2612"
    },
    {
      "channel": 4,
      "note": 62,
      "start": 60.0218,
      "duration": 0.2135,
      "velocity": 101,
      "chip": "ym2612"
    },
    {
      "channel": 5,
      "note": 57,
      "start": 60.0234,
      "duration": 0.212,
      "velocity": 101,
      "chip": "ym2612"
    },
    {
      "channel": 0,
      "note": 68,
      "start": 60.142,
      "duration": 0.034,
      "velocity": 101,
      "chip": "ym2612"
    },
    {
      "channel": 1,
      "note": 49,
      "start": 60.1449,
      "duration": 0.4419,
      "velocity": 111,
      "chip": "ym2612"
    },
    {
      "channel": 2,
      "note": 68,
      "start": 60.1503,
      "duration": 3.7234,
      "velocity": 101,
      "chip": "ym2612"
    },
    {
      "channel": 3,
      "note": 61,
      "start": 60.1558,
      "duration": 0.0793,
      "velocity": 127,
      "chip": "ym2612"
    },
    {
      "channel": 4,
      "note": 61,
      "start": 60.276,
      "duration": 0.1942,
      "velocity": 101,
      "chip": "ym2612"
    },
    {
      "channel": 5,
      "note": 56,
      "start": 60.2785,
      "duration": 0.1919,
      "velocity": 101,
      "chip": "ym2612"
    },
    {
      "channel": 3,
      "note": 61,
      "start": 60.3973,
      "duration": 0.0143,
      "velocity": 119,
      "chip": "ym2612"
    },
    {
      "channel": 4,
      "note": 68,
      "start": 60.5154,
      "duration": 0.0136,
      "velocity": 101,
      "chip": "ym2612"
    },
    {
      "channel": 5,
      "note": 68,
      "start": 60.5208,
      "duration": 3.7056,
      "velocity": 101,
      "chip": "ym2612"
    },
    {
      "channel": 1,
      "note": 49,
      "start": 60.6284,
      "duration": 0.428,
      "velocity": 111,
      "chip": "ym2612"
    },
    {
      "channel": 3,
      "note": 61,
      "start": 60.6339,
      "duration": 0.0707,
      "velocity": 127,
      "chip": "ym2612"
    },
    {
      "channel": 3,
      "note": 61,
      "start": 60.8662,
      "duration": 0.0149,
      "velocity": 119,
      "chip": "ym2612"
    },
    {
      "channel": 1,
      "note": 49,
      "start": 61.0971,
      "duration": 0.4288,
      "velocity": 111,
      "chip": "ym2612"
    },
    {
      "channel": 3,
      "note": 61,
      "start": 61.1026,
      "duration": 0.0715,
      "velocity": 127,
      "chip": "ym2612"
    },
    {
      "channel": 3,
      "note": 61,
      "start": 61.3355,
      "duration": 0.015,
      "velocity": 119,
      "chip": "ym2612"
    },
    {
      "channel": 1,
      "note": 49,
      "start": 61.5666,
      "duration": 0.4288,
      "velocity": 111,
      "chip": "ym2612"
    },
    {
      "channel": 3,
      "note": 61,
      "start": 61.572,
      "duration": 0.0724,
      "velocity": 127,
      "chip": "ym2612"
    },
    {
      "channel": 3,
      "note": 61,
      "start": 61.805,
      "duration": 0.0151,
      "velocity": 119,
      "chip": "ym2612"
    },
    {
      "channel": 0,
      "note": 73,
      "start": 62.0358,
      "duration": 1.8373,
      "velocity": 101,
      "chip": "ym2612"
    },
    {
      "channel": 1,
      "note": 49,
      "start": 62.0377,
      "duration": 0.4272,
      "velocity": 111,
      "chip": "ym2612"
    },
    {
      "channel": 3,
      "note": 61,
      "start": 62.0455,
      "duration": 0.0675,
      "velocity": 127,
      "chip": "ym2612"
    },
    {
      "channel": 3,
      "note": 61,
      "start": 62.2745,
      "duration": 0.015,
      "velocity": 119,
      "chip": "ym2612"
    },
    {
      "channel": 4,
      "note": 73,
      "start": 62.3888,
      "duration": 1.8373,
      "velocity": 101,
      "chip": "ym2612"
    },
    {
      "channel": 1,
      "note": 49,
      "start": 62.5056,
      "duration": 0.4288,
      "velocity": 111,
      "chip": "ym2612"
    },
    {
      "channel": 3,
      "note": 61,
      "start": 62.5118,
      "duration": 0.0707,
      "velocity": 127,
      "chip": "ym2612"
    },
    {
      "channel": 3,
      "note": 61,
      "start": 62.7448,
      "duration": 0.0142,
      "velocity": 119,
      "chip": "ym2612"
    },
    {
      "channel": 1,
      "note": 49,
      "start": 62.975,
      "duration": 0.4288,
      "velocity": 111,
      "chip": "ym2612"
    },
    {
      "channel": 3,
      "note": 61,
      "start": 62.9814,
      "duration": 0.0706,
      "velocity": 127,
      "chip": "ym2612"
    },
    {
      "channel": 3,
      "note": 61,
      "start": 63.2143,
      "duration": 0.0143,
      "velocity": 119,
      "chip": "ym2612"
    },
    {
      "channel": 1,
      "note": 49,
      "start": 63.4453,
      "duration": 0.4281,
      "velocity": 111,
      "chip": "ym2612"
    },
    {
      "channel": 3,
      "note": 61,
      "start": 63.4508,
      "duration": 0.0707,
      "velocity": 127,
      "chip": "ym2612"
    },
    {
      "channel": 3,
      "note": 61,
      "start": 63.683,
      "duration": 0.015,
      "velocity": 119,
      "chip": "ym2612"
    },
    {
      "channel": 0,
      "note": 74,
      "start": 63.9138,
      "duration": 2.7764,
      "velocity": 101,
      "chip": "ym2612"
    },
    {
      "channel": 1,
      "note": 50,
      "start": 63.9157,
      "duration": 0.427,
      "velocity": 111,
      "chip": "ym2612"
    },
    {
      "channel": 2,
      "note": 69,
      "start": 63.9174,
      "duration": 2.7732,
      "velocity": 101,
      "chip": "ym2612"
    },
    {
      "channel": 3,
      "note": 61,
      "start": 63.9229,
      "duration": 0.0681,
      "velocity": 127,
      "chip": "ym2612"
    },
    {
      "channel": 3,
      "note": 61,
      "start": 64.1524,
      "duration": 0.015,
      "velocity": 119,
      "chip": "ym2612"
    },
    {
      "channel": 4,
      "note": 74,
      "start": 64.2668,
      "duration": 2.7771,
      "velocity": 101,
      "chip": "ym2612"
    },
    {
      "channel": 5,
      "note": 69,
      "start": 64.2685,
      "duration": 2.7756,
      "velocity": 101,
      "chip": "ym2612"
    },
    {
      "channel": 1,
      "note": 50,
      "start": 64.3835,
      "duration": 0.4288,
      "velocity": 111,
      "chip": "ym2612"
    },
    {
      "channel": 3,
      "note": 61,
      "start": 64.3889,
      "duration": 0.0723,
      "velocity": 127,
      "chip": "ym2612"
    },
    {
      "channel": 3,
      "note": 61,
      "start": 64.622,
      "duration": 0.015,
      "velocity": 119,
      "chip": "ym2612"
    },
    {
      "channel": 1,
      "note": 50,
      "start": 64.853,
      "duration": 0.4288,
      "velocity": 111,
      "chip": "ym2612"
    },
    {
      "channel": 3,
      "note": 61,
      "start": 64.8585,
      "duration": 0.0714,
      "velocity": 127,
      "chip": "ym2612"
    },
    {
      "channel": 3,
      "note": 61,
      "start": 65.0914,
      "duration": 0.015,
      "velocity": 119,
      "chip": "ym2612"
    },
    {
      "channel": 1,
      "note": 50,
      "start": 65.3225,
      "duration": 0.4288,
      "velocity": 111,
      "chip": "ym2612"
    },
    {
      "channel": 3,
      "note": 61,
      "start": 65.3288,
      "duration": 0.0707,
      "velocity": 127,
      "chip": "ym2612"
    },
    {
      "channel": 3,
      "note": 61,
      "start": 65.5618,
      "duration": 0.0141,
      "velocity": 119,
      "chip": "ym2612"
    },
    {
      "channel": 1,
      "note": 50,
      "start": 65.7942,
      "duration": 0.4265,
      "velocity": 111,
      "chip": "ym2612"
    },
    {
      "channel": 3,
      "note": 61,
      "start": 65.8013,
      "duration": 0.0676,
      "velocity": 127,
      "chip": "ym2612"
    },
    {
      "channel": 3,
      "note": 61,
      "start": 66.0313,
      "duration": 0.0142,
      "velocity": 119,
      "chip": "ym2612"
    },
    {
      "channel": 1,
      "note": 50,
      "start": 66.2624,
      "duration": 0.428,
      "velocity": 111,
      "chip": "ym2612"
    },
    {
      "channel": 3,
      "note": 61,
      "start": 66.2678,
      "duration": 0.0706,
      "velocity": 127,
      "chip": "ym2612"
    },
    {
      "channel": 3,
      "note": 61,
      "start": 66.4999,
      "duration": 0.015,
      "velocity": 119,
      "chip": "ym2612"
    },
    {
      "channel": 0,
      "note": 73,
      "start": 66.7307,
      "duration": 0.1942,
      "velocity": 101,
      "chip": "ym2612"
    },
    {
      "channel": 1,
      "note": 50,
      "start": 66.7325,
      "duration": 0.4282,
      "velocity": 111,
      "chip": "ym2612"
    },
    {
      "channel": 2,
      "note": 68,
      "start": 66.7342,
      "duration": 0.191,
      "velocity": 101,
      "chip": "ym2612"
    },
    {
      "channel": 3,
      "note": 61,
      "start": 66.7397,
      "duration": 0.0683,
      "velocity": 127,
      "chip": "ym2612"
    },
    {
      "channel": 0,
      "note": 76,
      "start": 66.9654,
      "duration": 0.1942,
      "velocity": 101,
      "chip": "ym2612"
    },
    {
      "channel": 2,
      "note": 71,
      "start": 66.9672,
      "duration": 0.1938,
      "velocity": 101,
      "chip": "ym2612"
    },
    {
      "channel": 3,
      "note": 61,
      "start": 66.9725,
      "duration": 0.012,
      "velocity": 119,
      "chip": "ym2612"
    },
    {
      "channel": 4,
      "note": 73,
      "start": 67.0837,
      "duration": 0.1944,
      "velocity": 101,
      "chip": "ym2612"
    },
    {
      "channel": 5,
      "note": 68,
      "start": 67.0854,
      "duration": 0.1929,
      "velocity": 101,
      "chip": "ym2612"
    },
    {
      "channel": 0,
      "note": 74,
      "start": 67.2002,
      "duration": 0.1942,
      "velocity": 101,
      "chip": "ym2612"
    },
    {
      "channel": 1,
      "note": 50,
      "start": 67.202,
      "duration": 0.4273,
      "velocity": 111,
      "chip": "ym2612"
    },
    {
      "channel": 2,
      "note": 69,
      "start": 67.2037,
      "duration": 0.191,
      "velocity": 101,
      "chip": "ym2612"
    },
    {
      "channel": 3,
      "note": 61,
      "start": 67.2089,
      "duration": 0.069,
      "velocity": 127,
      "chip": "ym2612"
    },
    {
      "channel": 4,
      "note": 76,
      "start": 67.3184,
      "duration": 0.1942,
      "velocity": 101,
      "chip": "ym2612"
    },
    {
      "channel": 5,
      "note": 71,
      "start": 67.3201,
      "duration": 0.1927,
      "velocity": 101,
      "chip": "ym2612"
    },
    {
      "channel": 0,
      "note": 73,
      "start": 67.4349,
      "duration": 0.1941,
      "velocity": 101,
      "chip": "ym2612"
    },
    {
      "channel": 2,
      "note": 68,
      "start": 67.4367,
      "duration": 0.1929,
      "velocity": 101,
      "chip": "ym2612"
    },
    {
      "channel": 3,
      "note": 61,
      "start": 67.442,
      "duration": 0.0119,
      "velocity": 119,
      "chip": "ym2612"
    },
    {
      "channel": 4,
      "note": 74,
      "start": 67.5532,
      "duration": 0.1939,
      "velocity": 101,
      "chip": "ym2612"
    },
    {
      "channel": 5,
      "note": 69,
      "start": 67.5548,
      "duration": 0.1925,
      "velocity": 101,
      "chip": "ym2612"
    },
    {
      "channel": 0,
      "note": 68,
      "start": 67.6698,
      "duration": 0.018,
      "velocity": 101,
      "chip": "ym2612"
    },
    {
      "channel": 1,
      "note": 49,
      "start": 67.6718,
      "duration": 0.4268,
      "velocity": 111,
      "chip": "ym2612"
    },
    {
      "channel": 2,
      "note": 68,
      "start": 67.6737,
      "duration": 3.712,
      "velocity": 101,
      "chip": "ym2612"
    },
    {
      "channel": 3,
      "note": 61,
      "start": 67.6799,
      "duration": 0.067,
      "velocity": 127,
      "chip": "ym2612"
    },
    {
      "channel": 4,
      "note": 73,
      "start": 67.7879,
      "duration": 0.1941,
      "velocity": 101,
      "chip": "ym2612"
    },
    {
      "channel": 5,
      "note": 68,
      "start": 67.7896,
      "duration": 0.1927,
      "velocity": 101,
      "chip": "ym2612"
    },
    {
      "channel": 3,
      "note": 61,
      "start": 67.9084,
      "duration": 0.015,
      "velocity": 119,
      "chip": "ym2612"
    },
    {
      "channel": 4,
      "note": 68,
      "start": 68.0228,
      "duration": 0.018,
      "velocity": 101,
      "chip": "ym2612"
    },
    {
      "channel": 5,
      "note": 68,
      "start": 68.0246,
      "duration": 3.7137,
      "velocity": 101,
      "chip": "ym2612"
    },
    {
      "channel": 1,
      "note": 49,
      "start": 68.1394,
      "duration": 0.4288,
      "velocity": 111,
      "chip": "ym2612"
    },
    {
      "channel": 3,
      "note": 61,
      "start": 68.1457,
      "duration": 0.0707,
      "velocity": 127,
      "chip": "ym2612"
    },
    {
      "channel": 3,
      "note": 61,
      "start": 68.3786,
      "duration": 0.0143,
      "velocity": 119,
      "chip": "ym2612"
    },
    {
      "channel": 1,
      "note": 49,
      "start": 68.6089,
      "duration": 0.4288,
      "velocity": 111,
      "chip": "ym2612"
    },
    {
      "channel": 3,
      "note": 61,
      "start": 68.6153,
      "duration": 0.0706,
      "velocity": 127,
      "chip": "ym2612"
    },
    {
      "channel": 3,
      "note": 61,
      "start": 68.8482,
      "duration": 0.0142,
      "velocity": 119,
      "chip": "ym2612"
    },
    {
      "channel": 1,
      "note": 49,
      "start": 69.0801,
      "duration": 0.427,
      "velocity": 111,
      "chip": "ym2612"
    },
    {
      "channel": 3,
      "note": 61,
      "start": 69.0855,
      "duration": 0.0699,
      "velocity": 127,
      "chip": "ym2612"
    },
    {
      "channel": 3,
      "note": 61,
      "start": 69.3169,
      "duration": 0.015,
      "velocity": 119,
      "chip": "ym2612"
    },
    {
      "channel": 0,
      "note": 73,
      "start": 69.5477,
      "duration": 1.8376,
      "velocity": 101,
      "chip": "ym2612"
    },
    {
      "channel": 1,
      "note": 49,
      "start": 69.5495,
      "duration": 0.4291,
      "velocity": 111,
      "chip": "ym2612"
    },
    {
      "channel": 3,
      "note": 61,
      "start": 69.5564,
      "duration": 0.0684,
      "velocity": 127,
      "chip": "ym2612"
    },
    {
      "channel": 3,
      "note": 61,
      "start": 69.7863,
      "duration": 0.015,
      "velocity": 119,
      "chip": "ym2612"
    },
    {
      "channel": 4,
      "note": 73,
      "start": 69.9007,
      "duration": 1.8374,
      "velocity": 101,
      "chip": "ym2612"
    },
    {
      "channel": 1,
      "note": 49,
      "start": 70.0174,
      "duration": 0.4295,
      "velocity": 111,
      "chip": "ym2612"
    },
    {
      "channel": 3,
      "note": 61,
      "start": 70.0228,
      "duration": 0.0728,
      "velocity": 127,
      "chip": "ym2612"
    },
    {
      "channel": 3,
      "note": 61,
      "start": 70.2566,
      "duration": 0.0142,
      "velocity": 119,
      "chip": "ym2612"
    },
    {
      "channel": 1,
      "note": 49,
      "start": 70.4875,
      "duration": 0.4286,
      "velocity": 111,
      "chip": "ym2612"
    },
    {
      "channel": 3,
      "note": 61,
      "start": 70.4931,
      "duration": 0.0714,
      "velocity": 127,
      "chip": "ym2612"
    },
    {
      "channel": 3,
      "note": 61,
      "start": 70.7259,
      "duration": 0.0145,
      "velocity": 119,
      "chip": "ym2612"
    },
    {
      "channel": 1,
      "note": 49,
      "start": 70.9568,
      "duration": 0.4287,
      "velocity": 111,
      "chip": "ym2612"
    },
    {
      "channel": 3,
      "note": 61,
      "start": 70.9631,
      "duration": 0.0707,
      "velocity": 127,
      "chip": "ym2612"
    },
    {
      "channel": 3,
      "note": 61,
      "start": 71.196,
      "duration": 0.0147,
      "velocity": 119,
      "chip": "ym2612"
    },
    {
      "channel": 0,
      "note": 74,
      "start": 71.4258,
      "duration": 2.7762,
      "velocity": 101,
      "chip": "ym2612"
    },
    {
      "channel": 1,
      "note": 50,
      "start": 71.4286,
      "duration": 0.426,
      "velocity": 111,
      "chip": "ym2612"
    },
    {
      "channel": 2,
      "note": 69,
      "start": 71.4302,
      "duration": 2.7721,
      "velocity": 101,
      "chip": "ym2612"
    },
    {
      "channel": 3,
      "note": 61,
      "start": 71.4357,
      "duration": 0.0672,
      "velocity": 127,
      "chip": "ym2612"
    },
    {
      "channel": 3,
      "note": 61,
      "start": 71.6652,
      "duration": 0.0141,
      "velocity": 119,
      "chip": "ym2612"
    },
    {
      "channel": 4,
      "note": 74,
      "start": 71.7795,
      "duration": 2.7754,
      "velocity": 101,
      "chip": "ym2612"
    },
    {
      "channel": 5,
      "note": 69,
      "start": 71.7813,
      "duration": 2.7739,
      "velocity": 101,
      "chip": "ym2612"
    },
    {
      "channel": 1,
      "note": 50,
      "start": 71.8962,
      "duration": 0.4279,
      "velocity": 111,
      "chip": "ym2612"
    },
    {
      "channel": 3,
      "note": 61,
      "start": 71.9017,
      "duration": 0.0706,
      "velocity": 127,
      "chip": "ym2612"
    },
    {
      "channel": 3,
      "note": 61,
      "start": 72.1338,
      "duration": 0.015,
      "velocity": 119,
      "chip": "ym2612"
    },
    {
      "channel": 1,
      "note": 50,
      "start": 72.3648,
      "duration": 0.4295,
      "velocity": 111,
      "chip": "ym2612"
    },
    {
      "channel": 3,
      "note": 61,
      "start": 72.3704,
      "duration": 0.0714,
      "velocity": 127,
      "chip": "ym2612"
    },
    {
      "channel": 3,
      "note": 61,
      "start": 72.6033,
      "duration": 0.015,
      "velocity": 119,
      "chip": "ym2612"
    },
    {
      "channel": 1,
      "note": 50,
      "start": 72.8343,
      "duration": 0.4288,
      "velocity": 111,
      "chip": "ym2612"
    },
    {
      "channel": 3,
      "note": 61,
      "start": 72.8397,
      "duration": 0.0719,
      "velocity": 127,
      "chip": "ym2612"
    },
    {
      "channel": 3,
      "note": 61,
      "start": 73.0727,
      "duration": 0.0151,
      "velocity": 119,
      "chip": "ym2612"
    },
    {
      "channel": 1,
      "note": 50,
      "start": 73.3052,
      "duration": 0.4273,
      "velocity": 111,
      "chip": "ym2612"
    },
    {
      "channel": 3,
      "note": 76,
      "start": 73.3133,
      "duration": 0.0092,
      "velocity": 112,
      "chip": "ym2612"
    },
    {
      "channel": 3,
      "note": 76,
      "start": 73.4217,
      "duration": 0.0183,
      "velocity": 112,
      "chip": "ym2612"
    },
    {
      "channel": 3,
      "note": 76,
      "start": 73.5391,
      "duration": 0.0182,
      "velocity": 112,
      "chip": "ym2612"
    },
    {
      "channel": 1,
      "note": 50,
      "start": 73.7733,
      "duration": 0.4289,
      "velocity": 111,
      "chip": "ym2612"
    },
    {
      "channel": 3,
      "note": 76,
      "start": 73.7755,
      "duration": 0.0165,
      "velocity": 112,
      "chip": "ym2612"
    },
    {
      "channel": 3,
      "note": 71,
      "start": 74.0087,
      "duration": 0.0188,
      "velocity": 112,
      "chip": "ym2612"
    },
    {
      "channel": 3,
      "note": 71,
      "start": 74.1259,
      "duration": 0.0191,
      "velocity": 112,
      "chip": "ym2612"
    },
    {
      "channel": 0,
      "note": 73,
      "start": 74.2426,
      "duration": 0.1941,
      "velocity": 101,
      "chip": "ym2612"
    },
    {
      "channel": 1,
      "note": 50,
      "start": 74.2452,
      "duration": 0.4265,
      "velocity": 111,
      "chip": "ym2612"
    },
    {
      "channel": 2,
      "note": 68,
      "start": 74.2468,
      "duration": 0.1901,
      "velocity": 101,
      "chip": "ym2612"
    },
    {
      "channel": 3,
      "note": 71,
      "start": 74.2489,
      "duration": 0.0127,
      "velocity": 112,
      "chip": "ym2612"
    },
    {
      "channel": 3,
      "note": 71,
      "start": 74.3615,
      "duration": 0.0174,
      "velocity": 112,
      "chip": "ym2612"
    },
    {
      "channel": 0,
      "note": 76,
      "start": 74.4781,
      "duration": 0.1934,
      "velocity": 101,
      "chip": "ym2612"
    },
    {
      "channel": 2,
      "note": 71,
      "start": 74.4799,
      "duration": 0.192,
      "velocity": 101,
      "chip": "ym2612"
    },
    {
      "channel": 3,
      "note": 66,
      "start": 74.4822,
      "duration": 0.0141,
      "velocity": 112,
      "chip": "ym2612"
    },
    {
      "channel": 4,
      "note": 73,
      "start": 74.5965,
      "duration": 0.1932,
      "velocity": 101,
      "chip": "ym2612"
    },
    {
      "channel": 5,
      "note": 68,
      "start": 74.5981,
      "duration": 0.1918,
      "velocity": 101,
      "chip": "ym2612"
    },
    {
      "channel": 0,
      "note": 74,
      "start": 74.7122,
      "duration": 0.1939,
      "velocity": 101,
      "chip": "ym2612"
    },
    {
      "channel": 1,
      "note": 50,
      "start": 74.714,
      "duration": 0.4271,
      "velocity": 111,
      "chip": "ym2612"
    },
    {
      "channel": 2,
      "note": 69,
      "start": 74.7157,
      "duration": 0.1908,
      "velocity": 101,
      "chip": "ym2612"
    },
    {
      "channel": 3,
      "note": 66,
      "start": 74.7178,
      "duration": 0.0132,
      "velocity": 112,
      "chip": "ym2612"
    },
    {
      "channel": 4,
      "note": 76,
      "start": 74.8302,
      "duration": 0.1939,
      "velocity": 101,
      "chip": "ym2612"
    },
    {
      "channel": 5,
      "note": 71,
      "start": 74.8319,
      "duration": 0.1924,
      "velocity": 101,
      "chip": "ym2612"
    },
    {
      "channel": 0,
      "note": 73,
      "start": 74.9467,
      "duration": 0.1942,
      "velocity": 101,
      "chip": "ym2612"
    },
    {
      "channel": 2,
      "note": 68,
      "start": 74.9485,
      "duration": 0.1928,
      "velocity": 101,
      "chip": "ym2612"
    },
    {
      "channel": 3,
      "note": 61,
      "start": 74.954,
      "duration": 0.0699,
      "velocity": 127,
      "chip": "ym2612"
    },
    {
      "channel": 4,
      "note": 74,
      "start": 75.065,
      "duration": 0.1938,
      "velocity": 101,
      "chip": "ym2612"
    },
    {
      "channel": 5,
      "note": 69,
      "start": 75.0666,
      "duration": 0.1923,
      "velocity": 101,
      "chip": "ym2612"
    },
    {
      "channel": 0,
      "note": 80,
      "start": 75.1822,
      "duration": 0.663,
      "velocity": 101,
      "chip": "ym2612"
    },
    {
      "channel": 1,
      "note": 56,
      "start": 75.1846,
      "duration": 0.6607,
      "velocity": 111,
      "chip": "ym2612"
    },
    {
      "channel": 2,
      "note": 68,
      "start": 75.1868,
      "duration": 0.013,
      "velocity": 101,
      "chip": "ym2612"
    },
    {
      "channel": 3,
      "note": 61,
      "start": 75.1924,
      "duration": 0.0082,
      "velocity": 127,
      "chip": "ym2612"
    },
    {
      "channel": 3,
      "note": 61,
      "start": 75.2214,
      "duration": 0.0765,
      "velocity": 127,
      "chip": "ym2612"
    },
    {
      "channel": 4,
      "note": 73,
      "start": 75.2995,
      "duration": 0.1951,
      "velocity": 101,
      "chip": "ym2612"
    },
    {
      "channel": 5,
      "note": 68,
      "start": 75.3012,
      "duration": 0.1936,
      "velocity": 101,
      "chip": "ym2612"
    },
    {
      "channel": 3,
      "note": 61,
      "start": 75.4202,
      "duration": 0.0742,
      "velocity": 127,
      "chip": "ym2612"
    },
    {
      "channel": 4,
      "note": 80,
      "start": 75.5351,
      "duration": 0.6627,
      "velocity": 101,
      "chip": "ym2612"
    },
    {
      "channel": 5,
      "note": 68,
      "start": 75.5373,
      "duration": 0.0154,
      "velocity": 101,
      "chip": "ym2612"
    },
    {
      "channel": 3,
      "note": 61,
      "start": 75.6517,
      "duration": 0.0765,
      "velocity": 127,
      "chip": "ym2612"
    },
    {
      "channel": 0,
      "note": 79,
      "start": 75.8857,
      "duration": 0.6637,
      "velocity": 101,
      "chip": "ym2612"
    },
    {
      "channel": 1,
      "note": 55,
      "start": 75.8874,
      "duration": 0.6622,
      "velocity": 111,
      "chip": "ym2612"
    },
    {
      "channel": 3,
      "note": 61,
      "start": 75.893,
      "duration": 0.0117,
      "velocity": 127,
      "chip": "ym2612"
    },
    {
      "channel": 3,
      "note": 61,
      "start": 75.9257,
      "duration": 0.0764,
      "velocity": 127,
      "chip": "ym2612"
    },
    {
      "channel": 3,
      "note": 61,
      "start": 76.1244,
      "duration": 0.0732,
      "velocity": 127,
      "chip": "ym2612"
    },
    {
      "channel": 4,
      "note": 79,
      "start": 76.2387,
      "duration": 0.6634,
      "velocity": 101,
      "chip": "ym2612"
    },
    {
      "channel": 3,
      "note": 61,
      "start": 76.356,
      "duration": 0.0765,
      "velocity": 127,
      "chip": "ym2612"
    },
    {
      "channel": 0,
      "note": 78,
      "start": 76.59,
      "duration": 0.4289,
      "velocity": 101,
      "chip": "ym2612"
    },
    {
      "channel": 1,
      "note": 54,
      "start": 76.5917,
      "duration": 0.4274,
      "velocity": 111,
      "chip": "ym2612"
    },
    {
      "channel": 3,
      "note": 61,
      "start": 76.598,
      "duration": 0.0109,
      "velocity": 127,
      "chip": "ym2612"
    },
    {
      "channel": 3,
      "note": 61,
      "start": 76.6299,
      "duration": 0.0764,
      "velocity": 127,
      "chip": "ym2612"
    },
    {
      "channel": 3,
      "note": 61,
      "start": 76.8295,
      "duration": 0.0724,
      "velocity": 127,
      "chip": "ym2612"
    },
    {
      "channel": 4,
      "note": 78,
      "start": 76.943,
      "duration": 0.4286,
      "velocity": 101,
      "chip": "ym2612"
    },
    {
      "channel": 0,
      "note": 80,
      "start": 77.0596,
      "duration": 0.6635,
      "velocity": 101,
      "chip": "ym2612"
    },
    {
      "channel": 1,
      "note": 56,
      "start": 77.0622,
      "duration": 0.6611,
      "velocity": 111,
      "chip": "ym2612"
    },
    {
      "channel": 2,
      "note": 63,
      "start": 77.0639,
      "duration": 0.6597,
      "velocity": 101,
      "chip": "ym2612"
    },
    {
      "channel": 3,
      "note": 61,
      "start": 77.0695,
      "duration": 0.009,
      "velocity": 127,
      "chip": "ym2612"
    },
    {
      "channel": 3,
      "note": 61,
      "start": 77.0994,
      "duration": 0.0764,
      "velocity": 127,
      "chip": "ym2612"
    },
    {
      "channel": 3,
      "note": 61,
      "start": 77.299,
      "duration": 0.0724,
      "velocity": 127,
      "chip": "ym2612"
    },
    {
      "channel": 4,
      "note": 80,
      "start": 77.4133,
      "duration": 0.6626,
      "velocity": 101,
      "chip": "ym2612"
    },
    {
      "channel": 5,
      "note": 63,
      "start": 77.415,
      "duration": 0.6611,
      "velocity": 101,
      "chip": "ym2612"
    },
    {
      "channel": 3,
      "note": 61,
      "start": 77.5297,
      "duration": 0.0765,
      "velocity": 127,
      "chip": "ym2612"
    },
    {
      "channel": 0,
      "note": 79,
      "start": 77.7637,
      "duration": 0.6637,
      "velocity": 101,
      "chip": "ym2612"
    },
    {
      "channel": 1,
      "note": 55,
      "start": 77.7654,
      "duration": 0.6623,
      "velocity": 111,
      "chip": "ym2612"
    },
    {
      "channel": 2,
      "note": 62,
      "start": 77.7669,
      "duration": 0.661,
      "velocity": 101,
      "chip": "ym2612"
    },
    {
      "channel": 3,
      "note": 61,
      "start": 77.7724,
      "duration": 0.0102,
      "velocity": 127,
      "chip": "ym2612"
    },
    {
      "channel": 3,
      "note": 61,
      "start": 77.8036,
      "duration": 0.0765,
      "velocity": 127,
      "chip": "ym2612"
    },
    {
      "channel": 3,
      "note": 61,
      "start": 78.0024,
      "duration": 0.0733,
      "velocity": 127,
      "chip": "ym2612"
    },
    {
      "channel": 4,
      "note": 79,
      "start": 78.1166,
      "duration": 0.6635,
      "velocity": 101,
      "chip": "ym2612"
    },
    {
      "channel": 5,
      "note": 62,
      "start": 78.1183,
      "duration": 0.662,
      "velocity": 101,
      "chip": "ym2612"
    },
    {
      "channel": 3,
      "note": 61,
      "start": 78.2339,
      "duration": 0.0773,
      "velocity": 127,
      "chip": "ym2612"
    },
    {
      "channel": 0,
      "note": 78,
      "start": 78.468,
      "duration": 0.4289,
      "velocity": 101,
      "chip": "ym2612"
    },
    {
      "channel": 1,
      "note": 54,
      "start": 78.4696,
      "duration": 0.4274,
      "velocity": 111,
      "chip": "ym2612"
    },
    {
      "channel": 2,
      "note": 61,
      "start": 78.4713,
      "duration": 0.426,
      "velocity": 101,
      "chip": "ym2612"
    },
    {
      "channel": 3,
      "note": 61,
      "start": 78.4776,
      "duration": 0.0093,
      "velocity": 127,
      "chip": "ym2612"
    },
    {
      "channel": 3,
      "note": 61,
      "start": 78.5078,
      "duration": 0.0764,
      "velocity": 127,
      "chip": "ym2612"
    },
    {
      "channel": 3,
      "note": 61,
      "start": 78.7066,
      "duration": 0.0732,
      "velocity": 127,
      "chip": "ym2612"
    },
    {
      "channel": 4,
      "note": 78,
      "start": 78.821,
      "duration": 0.4286,
      "velocity": 101,
      "chip": "ym2612"
    },
    {
      "channel": 5,
      "note": 61,
      "start": 78.8226,
      "duration": 0.4272,
      "velocity": 101,
      "chip": "ym2612"
    },
    {
      "channel": 0,
      "note": 80,
      "start": 78.9376,
      "duration": 0.6636,
      "velocity": 101,
      "chip": "ym2612"
    },
    {
      "channel": 1,
      "note": 56,
      "start": 78.9394,
      "duration": 0.6619,
      "velocity": 111,
      "chip": "ym2612"
    },
    {
      "channel": 2,
      "note": 63,
      "start": 78.9411,
      "duration": 0.6604,
      "velocity": 101,
      "chip": "ym2612"
    },
    {
      "channel": 3,
      "note": 61,
      "start": 78.9475,
      "duration": 0.0089,
      "velocity": 127,
      "chip": "ym2612"
    },
    {
      "channel": 3,
      "note": 61,
      "start": 78.9781,
      "duration": 0.0756,
      "velocity": 127,
      "chip": "ym2612"
    },
    {
      "channel": 3,
      "note": 61,
      "start": 79.1761,
      "duration": 0.0733,
      "velocity": 127,
      "chip": "ym2612"
    },
    {
      "channel": 4,
      "note": 80,
      "start": 79.2905,
      "duration": 0.6632,
      "velocity": 101,
      "chip": "ym2612"
    },
    {
      "channel": 5,
      "note": 63,
      "start": 79.2923,
      "duration": 0.6618,
      "velocity": 101,
      "chip": "ym2612"
    },
    {
      "channel": 3,
      "note": 61,
      "start": 79.4077,
      "duration": 0.0765,
      "velocity": 127,
      "chip": "ym2612"
    },
    {
      "channel": 0,
      "note": 79,
      "start": 79.6416,
      "duration": 0.6637,
      "velocity": 101,
      "chip": "ym2612"
    },
    {
      "channel": 1,
      "note": 55,
      "start": 79.6441,
      "duration": 0.6615,
      "velocity": 111,
      "chip": "ym2612"
    },
    {
      "channel": 2,
      "note": 62,
      "start": 79.6458,
      "duration": 0.66,
      "velocity": 101,
      "chip": "ym2612"
    },
    {
      "channel": 3,
      "note": 61,
      "start": 79.6512,
      "duration": 0.0103,
      "velocity": 127,
      "chip": "ym2612"
    },
    {
      "channel": 3,
      "note": 61,
      "start": 79.6816,
      "duration": 0.0764,
      "velocity": 127,
      "chip": "ym2612"
    },
    {
      "channel": 3,
      "note": 61,
      "start": 79.8812,
      "duration": 0.0724,
      "velocity": 127,
      "chip": "ym2612"
    },
    {
      "channel": 4,
      "note": 79,
      "start": 79.9955,
      "duration": 0.6628,
      "velocity": 101,
      "chip": "ym2612"
    },
    {
      "channel": 5,
      "note": 62,
      "start": 79.9972,
      "duration": 0.6613,
      "velocity": 101,
      "chip": "ym2612"
    },
    {
      "channel": 3,
      "note": 61,
      "start": 80.1128,
      "duration": 0.0756,
      "velocity": 127,
      "chip": "ym2612"
    },
    {
      "channel": 0,
      "note": 78,
      "start": 80.3459,
      "duration": 2.3069,
      "velocity": 101,
      "chip": "ym2612"
    },
    {
      "channel": 1,
      "note": 54,
      "start": 80.3476,
      "duration": 2.3054,
      "velocity": 111,
      "chip": "ym2612"
    },
    {
      "channel": 2,
      "note": 61,
      "start": 80.3493,
      "duration": 2.3039,
      "velocity": 101,
      "chip": "ym2612"
    },
    {
      "channel": 3,
      "note": 61,
      "start": 80.3517,
      "duration": 0.0714,
      "velocity": 127,
      "chip": "ym2612"
    },
    {
      "channel": 4,
      "note": 78,
      "start": 80.6989,
      "duration": 2.3092,
      "velocity": 101,
      "chip": "ym2612"
    },
    {
      "channel": 5,
      "note": 61,
      "start": 80.7005,
      "duration": 2.3078,
      "velocity": 101,
      "chip": "ym2612"
    },
    {
      "channel": 3,
      "note": 61,
      "start": 80.8207,
      "duration": 0.0719,
      "velocity": 127,
      "chip": "ym2612"
    },
    {
      "channel": 3,
      "note": 61,
      "start": 81.2858,
      "duration": 0.0763,
      "velocity": 127,
      "chip": "ym2612"
    },
    {
      "channel": 3,
      "note": 61,
      "start": 81.7552,
      "duration": 0.0763,
      "velocity": 127,
      "chip": "ym2612"
    },
    {
      "channel": 3,
      "note": 61,
      "start": 82.2248,
      "duration": 0.0763,
      "velocity": 127,
      "chip": "ym2612"
    },
    {
      "channel": 0,
      "note": 49,
      "start": 82.6983,
      "duration": 3.7104,
      "velocity": 95,
      "chip": "ym2612"
    },
    {
      "channel": 1,
      "note": 49,
      "start": 82.7009,
      "duration": 3.7087,
      "velocity": 111,
      "chip": "ym2612"
    },
    {
      "channel": 2,
      "note": 61,
      "start": 82.7035,
      "duration": 0.0094,
      "velocity": 101,
      "chip": "ym2612"
    },
    {
      "channel": 3,
      "note": 61,
      "start": 82.7066,
      "duration": 0.0076,
      "velocity": 127,
      "chip": "ym2612"
    },
    {
      "channel": 4,
      "note": 49,
      "start": 83.0531,
      "duration": 3.711,
      "velocity": 95,
      "chip": "ym2612"
    },
    {
      "channel": 5,
      "note": 61,
      "start": 83.0556,
      "duration": 0.0119,
      "velocity": 101,
      "chip": "ym2612"
    },
    {
      "channel": 2,
      "note": 61,
      "start": 84.5746,
      "duration": 0.0167,
      "velocity": 101,
      "chip": "ym2612"
    },
    {
      "channel": 3,
      "note": 61,
      "start": 84.5764,
      "duration": 0.0158,
      "velocity": 127,
      "chip": "ym2612"
    },
    {
      "channel": 5,
      "note": 61,
      "start": 84.9292,
      "duration": 0.0174,
      "velocity": 101,
      "chip": "ym2612"
    },
    {
      "channel": 0,
      "note": 49,
      "start": 86.4494,
      "duration": 3.7152,
      "velocity": 95,
      "chip": "ym2612"
    },
    {
      "channel": 1,
      "note": 49,
      "start": 86.4512,
      "duration": 3.7142,
      "velocity": 111,
      "chip": "ym2612"
    },
    {
      "channel": 2,
      "note": 61,
      "start": 86.453,
      "duration": 0.0158,
      "velocity": 101,
      "chip": "ym2612"
    },
    {
      "channel": 3,
      "note": 61,
      "start": 86.4548,
      "duration": 0.0149,
      "velocity": 127,
      "chip": "ym2612"
    },
    {
      "channel": 4,
      "note": 49,
      "start": 86.8049,
      "duration": 3.715,
      "velocity": 95,
      "chip": "ym2612"
    },
    {
      "channel": 5,
      "note": 61,
      "start": 86.8067,
      "duration": 0.0167,
      "velocity": 101,
      "chip": "ym2612"
    },
    {
      "channel": 2,
      "note": 61,
      "start": 88.3313,
      "duration": 0.0155,
      "velocity": 101,
      "chip": "ym2612"
    },
    {
      "channel": 3,
      "note": 61,
      "start": 88.3331,
      "duration": 0.0145,
      "velocity": 127,
      "chip": "ym2612"
    },
    {
      "channel": 5,
      "note": 61,
      "start": 88.6842,
      "duration": 0.0172,
      "velocity": 101,
      "chip": "ym2612"
    },
    {
      "channel": 0,
      "note": 49,
      "start": 90.2053,
      "duration": 3.7152,
      "velocity": 95,
      "chip": "ym2612"
    },
    {
      "channel": 1,
      "note": 49,
      "start": 90.2071,
      "duration": 3.7142,
      "velocity": 111,
      "chip": "ym2612"
    },
    {
      "channel": 2,
      "note": 61,
      "start": 90.2089,
      "duration": 0.0158,
      "velocity": 101,
      "chip": "ym2612"
    },
    {
      "channel": 3,
      "note": 61,
      "start": 90.2115,
      "duration": 0.0141,
      "velocity": 127,
      "chip": "ym2612"
    },
    {
      "channel": 4,
      "note": 49,
      "start": 90.5617,
      "duration": 3.7141,
      "velocity": 95,
      "chip": "ym2612"
    },
    {
      "channel": 5,
      "note": 61,
      "start": 90.5635,
      "duration": 0.0167,
      "velocity": 101,
      "chip": "ym2612"
    },
    {
      "channel": 2,
      "note": 61,
      "start": 92.0864,
      "duration": 0.0163,
      "velocity": 101,
      "chip": "ym2612"
    },
    {
      "channel": 3,
      "note": 61,
      "start": 92.0882,
      "duration": 0.0153,
      "velocity": 127,
      "chip": "ym2612"
    },
    {
      "channel": 5,
      "note": 61,
      "start": 92.4402,
      "duration": 0.0171,
      "velocity": 101,
      "chip": "ym2612"
    },
    {
      "channel": 0,
      "note": 49,
      "start": 93.962,
      "duration": 3.7159,
      "velocity": 95,
      "chip": "ym2612"
    },
    {
      "channel": 1,
      "note": 49,
      "start": 93.9639,
      "duration": 3.7149,
      "velocity": 111,
      "chip": "ym2612"
    },
    {
      "channel": 2,
      "note": 61,
      "start": 93.9657,
      "duration": 0.0149,
      "velocity": 101,
      "chip": "ym2612"
    },
    {
      "channel": 3,
      "note": 61,
      "start": 93.9675,
      "duration": 0.0141,
      "velocity": 127,
      "chip": "ym2612"
    },
    {
      "channel": 4,
      "note": 49,
      "start": 94.3167,
      "duration": 3.7347,
      "velocity": 95,
      "chip": "ym2612"
    },
    {
      "channel": 5,
      "note": 61,
      "start": 94.3185,
      "duration": 0.0168,
      "velocity": 101,
      "chip": "ym2612"
    },
    {
      "channel": 2,
      "note": 61,
      "start": 95.8423,
      "duration": 0.0163,
      "velocity": 101,
      "chip": "ym2612"
    },
    {
      "channel": 3,
      "note": 61,
      "start": 95.8449,
      "duration": 0.0145,
      "velocity": 127,
      "chip": "ym2612"
    },
    {
      "channel": 5,
      "note": 61,
      "start": 96.197,
      "duration": 0.0171,
      "velocity": 101,
      "chip": "ym2612"
    },
    {
      "channel": 0,
      "note": 44,
      "start": 97.723,
      "duration": 1.851,
      "velocity": 87,
      "chip": "ym2612"
    },
    {
      "channel": 1,
      "note": 49,
      "start": 97.7276,
      "duration": 0.4386,
      "velocity": 111,
      "chip": "ym2612"
    },
    {
      "channel": 2,
      "note": 73,
      "start": 97.7348,
      "duration": 0.1974,
      "velocity": 111,
      "chip": "ym2612"
    },
    {
      "channel": 3,
      "note": 61,
      "start": 97.7418,
      "duration": 0.0738,
      "velocity": 127,
      "chip": "ym2612"
    },
    {
      "channel": 2,
      "note": 68,
      "start": 97.9729,
      "duration": 0.1941,
      "velocity": 111,
      "chip": "ym2612"
    },
    {
      "channel": 3,
      "note": 61,
      "start": 97.9791,
      "duration": 0.0136,
      "velocity": 119,
      "chip": "ym2612"
    },
    {
      "channel": 4,
      "note": 44,
      "start": 98.0984,
      "duration": 1.8318,
      "velocity": 87,
      "chip": "ym2612"
    },
    {
      "channel": 5,
      "note": 73,
      "start": 98.1058,
      "duration": 0.1813,
      "velocity": 111,
      "chip": "ym2612"
    },
    {
      "channel": 1,
      "note": 49,
      "start": 98.207,
      "duration": 0.4288,
      "velocity": 111,
      "chip": "ym2612"
    },
    {
      "channel": 2,
      "note": 73,
      "start": 98.2088,
      "duration": 0.1929,
      "velocity": 111,
      "chip": "ym2612"
    },
    {
      "channel": 3,
      "note": 61,
      "start": 98.2117,
      "duration": 0.0165,
      "velocity": 119,
      "chip": "ym2612"
    },
    {
      "channel": 5,
      "note": 68,
      "start": 98.3286,
      "duration": 0.1928,
      "velocity": 111,
      "chip": "ym2612"
    },
    {
      "channel": 2,
      "note": 74,
      "start": 98.4424,
      "duration": 0.194,
      "velocity": 111,
      "chip": "ym2612"
    },
    {
      "channel": 3,
      "note": 61,
      "start": 98.4486,
      "duration": 0.0714,
      "velocity": 127,
      "chip": "ym2612"
    },
    {
      "channel": 5,
      "note": 73,
      "start": 98.5633,
      "duration": 0.1928,
      "velocity": 111,
      "chip": "ym2612"
    },
    {
      "channel": 1,
      "note": 49,
      "start": 98.6764,
      "duration": 0.4288,
      "velocity": 111,
      "chip": "ym2612"
    },
    {
      "channel": 2,
      "note": 73,
      "start": 98.6793,
      "duration": 0.1918,
      "velocity": 111,
      "chip": "ym2612"
    },
    {
      "channel": 3,
      "note": 61,
      "start": 98.6848,
      "duration": 0.0698,
      "velocity": 127,
      "chip": "ym2612"
    },
    {
      "channel": 5,
      "note": 74,
      "start": 98.798,
      "duration": 0.1931,
      "velocity": 111,
      "chip": "ym2612"
    },
    {
      "channel": 2,
      "note": 68,
      "start": 98.9128,
      "duration": 0.1933,
      "velocity": 111,
      "chip": "ym2612"
    },
    {
      "channel": 3,
      "note": 61,
      "start": 98.9182,
      "duration": 0.0131,
      "velocity": 119,
      "chip": "ym2612"
    },
    {
      "channel": 5,
      "note": 73,
      "start": 99.0329,
      "duration": 0.1929,
      "velocity": 111,
      "chip": "ym2612"
    },
    {
      "channel": 1,
      "note": 49,
      "start": 99.1465,
      "duration": 0.4283,
      "velocity": 111,
      "chip": "ym2612"
    },
    {
      "channel": 2,
      "note": 73,
      "start": 99.1483,
      "duration": 0.1923,
      "velocity": 111,
      "chip": "ym2612"
    },
    {
      "channel": 3,
      "note": 61,
      "start": 99.1504,
      "duration": 0.0156,
      "velocity": 119,
      "chip": "ym2612"
    },
    {
      "channel": 5,
      "note": 68,
      "start": 99.2667,
      "duration": 0.1945,
      "velocity": 111,
      "chip": "ym2612"
    },
    {
      "channel": 2,
      "note": 74,
      "start": 99.3814,
      "duration": 0.1942,
      "velocity": 111,
      "chip": "ym2612"
    },
    {
      "channel": 3,
      "note": 61,
      "start": 99.3867,
      "duration": 0.0721,
      "velocity": 127,
      "chip": "ym2612"
    },
    {
      "channel": 5,
      "note": 73,
      "start": 99.5015,
      "duration": 0.1945,
      "velocity": 111,
      "chip": "ym2612"
    },
    {
      "channel": 0,
      "note": 49,
      "start": 99.6146,
      "duration": 1.8373,
      "velocity": 87,
      "chip": "ym2612"
    },
    {
      "channel": 1,
      "note": 49,
      "start": 99.6164,
      "duration": 0.4284,
      "velocity": 111,
      "chip": "ym2612"
    },
    {
      "channel": 2,
      "note": 73,
      "start": 99.6185,
      "duration": 0.1925,
      "velocity": 111,
      "chip": "ym2612"
    },
    {
      "channel": 3,
      "note": 61,
      "start": 99.6239,
      "duration": 0.0705,
      "velocity": 127,
      "chip": "ym2612"
    },
    {
      "channel": 5,
      "note": 74,
      "start": 99.7362,
      "duration": 0.1949,
      "velocity": 111,
      "chip": "ym2612"
    },
    {
      "channel": 2,
      "note": 68,
      "start": 99.8509,
      "duration": 0.1948,
      "velocity": 111,
      "chip": "ym2612"
    },
    {
      "channel": 3,
      "note": 61,
      "start": 99.8563,
      "duration": 0.0138,
      "velocity": 119,
      "chip": "ym2612"
    },
    {
      "channel": 4,
      "note": 49,
      "start": 99.97,
      "duration": 1.8373,
      "velocity": 87,
      "chip": "ym2612"
    },
    {
      "channel": 5,
      "note": 73,
      "start": 99.972,
      "duration": 0.1929,
      "velocity": 111,
      "chip": "ym2612"
    },
    {
      "channel": 1,
      "note": 49,
      "start": 100.0849,
      "duration": 0.4287,
      "velocity": 111,
      "chip": "ym2612"
    },
    {
      "channel": 2,
      "note": 73,
      "start": 100.0868,
      "duration": 0.1929,
      "velocity": 111,
      "chip": "ym2612"
    },
    {
      "channel": 3,
      "note": 61,
      "start": 100.089,
      "duration": 0.016,
      "velocity": 119,
      "chip": "ym2612"
    },
    {
      "channel": 5,
      "note": 68,
      "start": 100.2057,
      "duration": 0.1936,
      "velocity": 111,
      "chip": "ym2612"
    },
    {
      "channel": 2,
      "note": 74,
      "start": 100.3204,
      "duration": 0.1941,
      "velocity": 111,
      "chip": "ym2612"
    },
    {
      "channel": 3,
      "note": 61,
      "start": 100.3257,
      "duration": 0.0721,
      "velocity": 127,
      "chip": "ym2612"
    },
    {
      "channel": 5,
      "note": 73,
      "start": 100.4404,
      "duration": 0.1937,
      "velocity": 111,
      "chip": "ym2612"
    },
    {
      "channel": 1,
      "note": 49,
      "start": 100.5544,
      "duration": 0.4288,
      "velocity": 111,
      "chip": "ym2612"
    },
    {
      "channel": 2,
      "note": 73,
      "start": 100.5564,
      "duration": 0.1927,
      "velocity": 111,
      "chip": "ym2612"
    },
    {
      "channel": 3,
      "note": 61,
      "start": 100.5627,
      "duration": 0.0699,
      "velocity": 127,
      "chip": "ym2612"
    },
    {
      "channel": 5,
      "note": 74,
      "start": 100.6753,
      "duration": 0.1939,
      "velocity": 111,
      "chip": "ym2612"
    },
    {
      "channel": 2,
      "note": 68,
      "start": 100.7898,
      "duration": 0.1941,
      "velocity": 111,
      "chip": "ym2612"
    },
    {
      "channel": 3,
      "note": 61,
      "start": 100.796,
      "duration": 0.013,
      "velocity": 119,
      "chip": "ym2612"
    },
    {
      "channel": 5,
      "note": 73,
      "start": 100.9108,
      "duration": 0.193,
      "velocity": 111,
      "chip": "ym2612"
    },
    {
      "channel": 1,
      "note": 49,
      "start": 101.0238,
      "duration": 0.429,
      "velocity": 111,
      "chip": "ym2612"
    },
    {
      "channel": 2,
      "note": 73,
      "start": 101.0257,
      "duration": 0.1929,
      "velocity": 111,
      "chip": "ym2612"
    },
    {
      "channel": 3,
      "note": 61,
      "start": 101.0286,
      "duration": 0.016,
      "velocity": 119,
      "chip": "ym2612"
    },
    {
      "channel": 5,
      "note": 68,
      "start": 101.1454,
      "duration": 0.1929,
      "velocity": 111,
      "chip": "ym2612"
    },
    {
      "channel": 2,
      "note": 74,
      "start": 101.2594,
      "duration": 0.1941,
      "velocity": 111,
      "chip": "ym2612"
    },
    {
      "channel": 3,
      "note": 61,
      "start": 101.2656,
      "duration": 0.0712,
      "velocity": 127,
      "chip": "ym2612"
    },
    {
      "channel": 5,
      "note": 73,
      "start": 101.3802,
      "duration": 0.1928,
      "velocity": 111,
      "chip": "ym2612"
    },
    {
      "channel": 0,
      "note": 50,
      "start": 101.4926,
      "duration": 3.7153,
      "velocity": 87,
      "chip": "ym2612"
    },
    {
      "channel": 1,
      "note": 50,
      "start": 101.4954,
      "duration": 0.4268,
      "velocity": 111,
      "chip": "ym2612"
    },
    {
      "channel": 2,
      "note": 74,
      "start": 101.4978,
      "duration": 0.1903,
      "velocity": 111,
      "chip": "ym2612"
    },
    {
      "channel": 3,
      "note": 61,
      "start": 101.5033,
      "duration": 0.0683,
      "velocity": 127,
      "chip": "ym2612"
    },
    {
      "channel": 5,
      "note": 74,
      "start": 101.615,
      "duration": 0.1933,
      "velocity": 111,
      "chip": "ym2612"
    },
    {
      "channel": 2,
      "note": 69,
      "start": 101.7298,
      "duration": 0.1931,
      "velocity": 111,
      "chip": "ym2612"
    },
    {
      "channel": 3,
      "note": 61,
      "start": 101.7351,
      "duration": 0.013,
      "velocity": 119,
      "chip": "ym2612"
    },
    {
      "channel": 4,
      "note": 50,
      "start": 101.8489,
      "duration": 3.7128,
      "velocity": 87,
      "chip": "ym2612"
    },
    {
      "channel": 5,
      "note": 74,
      "start": 101.8514,
      "duration": 0.1916,
      "velocity": 111,
      "chip": "ym2612"
    },
    {
      "channel": 1,
      "note": 50,
      "start": 101.9631,
      "duration": 0.4285,
      "velocity": 111,
      "chip": "ym2612"
    },
    {
      "channel": 2,
      "note": 74,
      "start": 101.965,
      "duration": 0.1926,
      "velocity": 111,
      "chip": "ym2612"
    },
    {
      "channel": 3,
      "note": 61,
      "start": 101.9671,
      "duration": 0.0157,
      "velocity": 119,
      "chip": "ym2612"
    },
    {
      "channel": 5,
      "note": 69,
      "start": 102.0837,
      "duration": 0.1945,
      "velocity": 111,
      "chip": "ym2612"
    },
    {
      "channel": 2,
      "note": 75,
      "start": 102.1984,
      "duration": 0.194,
      "velocity": 111,
      "chip": "ym2612"
    },
    {
      "channel": 3,
      "note": 61,
      "start": 102.2037,
      "duration": 0.0721,
      "velocity": 127,
      "chip": "ym2612"
    },
    {
      "channel": 5,
      "note": 74,
      "start": 102.3183,
      "duration": 0.1945,
      "velocity": 111,
      "chip": "ym2612"
    },
    {
      "channel": 1,
      "note": 50,
      "start": 102.4324,
      "duration": 0.4291,
      "velocity": 111,
      "chip": "ym2612"
    },
    {
      "channel": 2,
      "note": 74,
      "start": 102.4344,
      "duration": 0.1936,
      "velocity": 111,
      "chip": "ym2612"
    },
    {
      "channel": 3,
      "note": 61,
      "start": 102.44,
      "duration": 0.0714,
      "velocity": 127,
      "chip": "ym2612"
    },
    {
      "channel": 5,
      "note": 75,
      "start": 102.5531,
      "duration": 0.1948,
      "velocity": 111,
      "chip": "ym2612"
    },
    {
      "channel": 2,
      "note": 69,
      "start": 102.6678,
      "duration": 0.1945,
      "velocity": 111,
      "chip": "ym2612"
    },
    {
      "channel": 3,
      "note": 61,
      "start": 102.6732,
      "duration": 0.0138,
      "velocity": 119,
      "chip": "ym2612"
    },
    {
      "channel": 5,
      "note": 74,
      "start": 102.788,
      "duration": 0.1938,
      "velocity": 111,
      "chip": "ym2612"
    },
    {
      "channel": 1,
      "note": 50,
      "start": 102.9018,
      "duration": 0.4288,
      "velocity": 111,
      "chip": "ym2612"
    },
    {
      "channel": 2,
      "note": 74,
      "start": 102.9037,
      "duration": 0.1928,
      "velocity": 111,
      "chip": "ym2612"
    },
    {
      "channel": 3,
      "note": 61,
      "start": 102.9058,
      "duration": 0.0159,
      "velocity": 119,
      "chip": "ym2612"
    },
    {
      "channel": 5,
      "note": 69,
      "start": 103.0227,
      "duration": 0.1937,
      "velocity": 111,
      "chip": "ym2612"
    },
    {
      "channel": 2,
      "note": 75,
      "start": 103.1374,
      "duration": 0.194,
      "velocity": 111,
      "chip": "ym2612"
    },
    {
      "channel": 3,
      "note": 61,
      "start": 103.1427,
      "duration": 0.0722,
      "velocity": 127,
      "chip": "ym2612"
    },
    {
      "channel": 5,
      "note": 74,
      "start": 103.2573,
      "duration": 0.1937,
      "velocity": 111,
      "chip": "ym2612"
    },
    {
      "channel": 1,
      "note": 50,
      "start": 103.3722,
      "duration": 0.428,
      "velocity": 111,
      "chip": "ym2612"
    },
    {
      "channel": 2,
      "note": 74,
      "start": 103.3742,
      "duration": 0.1919,
      "velocity": 111,
      "chip": "ym2612"
    },
    {
      "channel": 3,
      "note": 61,
      "start": 103.3805,
      "duration": 0.069,
      "velocity": 127,
      "chip": "ym2612"
    },
    {
      "channel": 5,
      "note": 75,
      "start": 103.4921,
      "duration": 0.194,
      "velocity": 111,
      "chip": "ym2612"
    },
    {
      "channel": 2,
      "note": 69,
      "start": 103.6069,
      "duration": 0.1941,
      "velocity": 111,
      "chip": "ym2612"
    },
    {
      "channel": 3,
      "note": 61,
      "start": 103.6131,
      "duration": 0.0129,
      "velocity": 119,
      "chip": "ym2612"
    },
    {
      "channel": 5,
      "note": 74,
      "start": 103.7287,
      "duration": 0.1921,
      "velocity": 111,
      "chip": "ym2612"
    },
    {
      "channel": 1,
      "note": 50,
      "start": 103.8408,
      "duration": 0.4288,
      "velocity": 111,
      "chip": "ym2612"
    },
    {
      "channel": 2,
      "note": 74,
      "start": 103.8427,
      "duration": 0.1929,
      "velocity": 111,
      "chip": "ym2612"
    },
    {
      "channel": 3,
      "note": 61,
      "start": 103.8456,
      "duration": 0.016,
      "velocity": 119,
      "chip": "ym2612"
    },
    {
      "channel": 5,
      "note": 69,
      "start": 103.9625,
      "duration": 0.1928,
      "velocity": 111,
      "chip": "ym2612"
    },
    {
      "channel": 2,
      "note": 75,
      "start": 104.0763,
      "duration": 0.1941,
      "velocity": 111,
      "chip": "ym2612"
    },
    {
      "channel": 3,
      "note": 61,
      "start": 104.0825,
      "duration": 0.0712,
      "velocity": 127,
      "chip": "ym2612"
    },
    {
      "channel": 5,
      "note": 74,
      "start": 104.1973,
      "duration": 0.1928,
      "velocity": 111,
      "chip": "ym2612"
    },
    {
      "channel": 1,
      "note": 50,
      "start": 104.3111,
      "duration": 0.4279,
      "velocity": 111,
      "chip": "ym2612"
    },
    {
      "channel": 2,
      "note": 74,
      "start": 104.3131,
      "duration": 0.1919,
      "velocity": 111,
      "chip": "ym2612"
    },
    {
      "channel": 3,
      "note": 61,
      "start": 104.3186,
      "duration": 0.07,
      "velocity": 127,
      "chip": "ym2612"
    },
    {
      "channel": 5,
      "note": 75,
      "start": 104.4318,
      "duration": 0.1931,
      "velocity": 111,
      "chip": "ym2612"
    },
    {
      "channel": 2,
      "note": 69,
      "start": 104.5466,
      "duration": 0.1932,
      "velocity": 111,
      "chip": "ym2612"
    },
    {
      "channel": 3,
      "note": 61,
      "start": 104.5519,
      "duration": 0.013,
      "velocity": 119,
      "chip": "ym2612"
    },
    {
      "channel": 5,
      "note": 74,
      "start": 104.6667,
      "duration": 0.1931,
      "velocity": 111,
      "chip": "ym2612"
    },
    {
      "channel": 1,
      "note": 50,
      "start": 104.7799,
      "duration": 0.4282,
      "velocity": 111,
      "chip": "ym2612"
    },
    {
      "channel": 2,
      "note": 74,
      "start": 104.7818,
      "duration": 0.1928,
      "velocity": 111,
      "chip": "ym2612"
    },
    {
      "channel": 3,
      "note": 61,
      "start": 104.7839,
      "duration": 0.0158,
      "velocity": 119,
      "chip": "ym2612"
    },
    {
      "channel": 5,
      "note": 69,
      "start": 104.9005,
      "duration": 0.1945,
      "velocity": 111,
      "chip": "ym2612"
    },
    {
      "channel": 2,
      "note": 75,
      "start": 105.0153,
      "duration": 0.1929,
      "velocity": 111,
      "chip": "ym2612"
    },
    {
      "channel": 3,
      "note": 61,
      "start": 105.0206,
      "duration": 0.0721,
      "velocity": 127,
      "chip": "ym2612"
    },
    {
      "channel": 5,
      "note": 74,
      "start": 105.1353,
      "duration": 0.1922,
      "velocity": 111,
      "chip": "ym2612"
    },
    {
      "channel": 0,
      "note": 44,
      "start": 105.2486,
      "duration": 1.8372,
      "velocity": 87,
      "chip": "ym2612"
    },
    {
      "channel": 1,
      "note": 49,
      "start": 105.2507,
      "duration": 0.4269,
      "velocity": 111,
      "chip": "ym2612"
    },
    {
      "channel": 2,
      "note": 73,
      "start": 105.2535,
      "duration": 0.1893,
      "velocity": 111,
      "chip": "ym2612"
    },
    {
      "channel": 3,
      "note": 61,
      "start": 105.2589,
      "duration": 0.0667,
      "velocity": 127,
      "chip": "ym2612"
    },
    {
      "channel": 5,
      "note": 75,
      "start": 105.3676,
      "duration": 0.1944,
      "velocity": 111,
      "chip": "ym2612"
    },
    {
      "channel": 2,
      "note": 68,
      "start": 105.4836,
      "duration": 0.1943,
      "velocity": 111,
      "chip": "ym2612"
    },
    {
      "channel": 3,
      "note": 61,
      "start": 105.4889,
      "duration": 0.0132,
      "velocity": 119,
      "chip": "ym2612"
    },
    {
      "channel": 4,
      "note": 44,
      "start": 105.6015,
      "duration": 1.8372,
      "velocity": 87,
      "chip": "ym2612"
    },
    {
      "channel": 5,
      "note": 73,
      "start": 105.6043,
      "duration": 0.1914,
      "velocity": 111,
      "chip": "ym2612"
    },
    {
      "channel": 1,
      "note": 49,
      "start": 105.7182,
      "duration": 0.4288,
      "velocity": 111,
      "chip": "ym2612"
    },
    {
      "channel": 2,
      "note": 73,
      "start": 105.72,
      "duration": 0.1922,
      "velocity": 111,
      "chip": "ym2612"
    },
    {
      "channel": 3,
      "note": 61,
      "start": 105.7221,
      "duration": 0.0148,
      "velocity": 119,
      "chip": "ym2612"
    },
    {
      "channel": 5,
      "note": 68,
      "start": 105.8365,
      "duration": 0.1936,
      "velocity": 111,
      "chip": "ym2612"
    },
    {
      "channel": 2,
      "note": 74,
      "start": 105.9531,
      "duration": 0.194,
      "velocity": 111,
      "chip": "ym2612"
    },
    {
      "channel": 3,
      "note": 61,
      "start": 105.9584,
      "duration": 0.0715,
      "velocity": 127,
      "chip": "ym2612"
    },
    {
      "channel": 5,
      "note": 73,
      "start": 106.0712,
      "duration": 0.1937,
      "velocity": 111,
      "chip": "ym2612"
    },
    {
      "channel": 1,
      "note": 49,
      "start": 106.1876,
      "duration": 0.4288,
      "velocity": 111,
      "chip": "ym2612"
    },
    {
      "channel": 2,
      "note": 73,
      "start": 106.1897,
      "duration": 0.1921,
      "velocity": 111,
      "chip": "ym2612"
    },
    {
      "channel": 3,
      "note": 61,
      "start": 106.196,
      "duration": 0.0686,
      "velocity": 127,
      "chip": "ym2612"
    },
    {
      "channel": 5,
      "note": 74,
      "start": 106.3059,
      "duration": 0.1939,
      "velocity": 111,
      "chip": "ym2612"
    },
    {
      "channel": 2,
      "note": 68,
      "start": 106.4225,
      "duration": 0.1941,
      "velocity": 111,
      "chip": "ym2612"
    },
    {
      "channel": 3,
      "note": 61,
      "start": 106.4286,
      "duration": 0.0124,
      "velocity": 119,
      "chip": "ym2612"
    },
    {
      "channel": 5,
      "note": 73,
      "start": 106.5408,
      "duration": 0.1938,
      "velocity": 111,
      "chip": "ym2612"
    },
    {
      "channel": 1,
      "note": 49,
      "start": 106.6571,
      "duration": 0.4289,
      "velocity": 111,
      "chip": "ym2612"
    },
    {
      "channel": 2,
      "note": 73,
      "start": 106.659,
      "duration": 0.1922,
      "velocity": 111,
      "chip": "ym2612"
    },
    {
      "channel": 3,
      "note": 61,
      "start": 106.6619,
      "duration": 0.0139,
      "velocity": 119,
      "chip": "ym2612"
    },
    {
      "channel": 5,
      "note": 68,
      "start": 106.7754,
      "duration": 0.1937,
      "velocity": 111,
      "chip": "ym2612"
    },
    {
      "channel": 2,
      "note": 74,
      "start": 106.892,
      "duration": 0.1941,
      "velocity": 111,
      "chip": "ym2612"
    },
    {
      "channel": 3,
      "note": 61,
      "start": 106.8981,
      "duration": 0.0707,
      "velocity": 127,
      "chip": "ym2612"
    },
    {
      "channel": 5,
      "note": 73,
      "start": 107.011,
      "duration": 0.1928,
      "velocity": 111,
      "chip": "ym2612"
    },
    {
      "channel": 0,
      "note": 49,
      "start": 107.1264,
      "duration": 1.8373,
      "velocity": 87,
      "chip": "ym2612"
    },
    {
      "channel": 1,
      "note": 49,
      "start": 107.129,
      "duration": 0.4263,
      "velocity": 111,
      "chip": "ym2612"
    },
    {
      "channel": 2,
      "note": 73,
      "start": 107.1311,
      "duration": 0.1896,
      "velocity": 111,
      "chip": "ym2612"
    },
    {
      "channel": 3,
      "note": 61,
      "start": 107.1365,
      "duration": 0.0671,
      "velocity": 127,
      "chip": "ym2612"
    },
    {
      "channel": 5,
      "note": 74,
      "start": 107.2458,
      "duration": 0.1932,
      "velocity": 111,
      "chip": "ym2612"
    },
    {
      "channel": 2,
      "note": 68,
      "start": 107.3624,
      "duration": 0.1931,
      "velocity": 111,
      "chip": "ym2612"
    },
    {
      "channel": 3,
      "note": 61,
      "start": 107.3677,
      "duration": 0.0123,
      "velocity": 119,
      "chip": "ym2612"
    },
    {
      "channel": 4,
      "note": 49,
      "start": 107.4798,
      "duration": 1.8369,
      "velocity": 87,
      "chip": "ym2612"
    },
    {
      "channel": 5,
      "note": 73,
      "start": 107.4818,
      "duration": 0.1919,
      "velocity": 111,
      "chip": "ym2612"
    },
    {
      "channel": 1,
      "note": 49,
      "start": 107.5961,
      "duration": 0.4288,
      "velocity": 111,
      "chip": "ym2612"
    },
    {
      "channel": 2,
      "note": 73,
      "start": 107.598,
      "duration": 0.1922,
      "velocity": 111,
      "chip": "ym2612"
    },
    {
      "channel": 3,
      "note": 61,
      "start": 107.6001,
      "duration": 0.0148,
      "velocity": 119,
      "chip": "ym2612"
    },
    {
      "channel": 5,
      "note": 68,
      "start": 107.7145,
      "duration": 0.1936,
      "velocity": 111,
      "chip": "ym2612"
    },
    {
      "channel": 2,
      "note": 74,
      "start": 107.831,
      "duration": 0.194,
      "velocity": 111,
      "chip": "ym2612"
    },
    {
      "channel": 3,
      "note": 61,
      "start": 107.8363,
      "duration": 0.0715,
      "velocity": 127,
      "chip": "ym2612"
    },
    {
      "channel": 5,
      "note": 73,
      "start": 107.9491,
      "duration": 0.1937,
      "velocity": 111,
      "chip": "ym2612"
    },
    {
      "channel": 1,
      "note": 49,
      "start": 108.0656,
      "duration": 0.4288,
      "velocity": 111,
      "chip": "ym2612"
    },
    {
      "channel": 2,
      "note": 73,
      "start": 108.0676,
      "duration": 0.1921,
      "velocity": 111,
      "chip": "ym2612"
    },
    {
      "channel": 3,
      "note": 61,
      "start": 108.0731,
      "duration": 0.0695,
      "velocity": 127,
      "chip": "ym2612"
    },
    {
      "channel": 5,
      "note": 74,
      "start": 108.1839,
      "duration": 0.1945,
      "velocity": 111,
      "chip": "ym2612"
    },
    {
      "channel": 2,
      "note": 68,
      "start": 108.3005,
      "duration": 0.1941,
      "velocity": 111,
      "chip": "ym2612"
    },
    {
      "channel": 3,
      "note": 61,
      "start": 108.3058,
      "duration": 0.0133,
      "velocity": 119,
      "chip": "ym2612"
    },
    {
      "channel": 5,
      "note": 73,
      "start": 108.4188,
      "duration": 0.1938,
      "velocity": 111,
      "chip": "ym2612"
    },
    {
      "channel": 1,
      "note": 49,
      "start": 108.5351,
      "duration": 0.4288,
      "velocity": 111,
      "chip": "ym2612"
    },
    {
      "channel": 2,
      "note": 73,
      "start": 108.5369,
      "duration": 0.1922,
      "velocity": 111,
      "chip": "ym2612"
    },
    {
      "channel": 3,
      "note": 61,
      "start": 108.539,
      "duration": 0.0148,
      "velocity": 119,
      "chip": "ym2612"
    },
    {
      "channel": 5,
      "note": 68,
      "start": 108.6533,
      "duration": 0.1937,
      "velocity": 111,
      "chip": "ym2612"
    },
    {
      "channel": 2,
      "note": 74,
      "start": 108.77,
      "duration": 0.1941,
      "velocity": 111,
      "chip": "ym2612"
    },
    {
      "channel": 3,
      "note": 61,
      "start": 108.7753,
      "duration": 0.0715,
      "velocity": 127,
      "chip": "ym2612"
    },
    {
      "channel": 5,
      "note": 73,
      "start": 108.8881,
      "duration": 0.1937,
      "velocity": 111,
      "chip": "ym2612"
    },
    {
      "channel": 0,
      "note": 50,
      "start": 109.0044,
      "duration": 3.7153,
      "velocity": 87,
      "chip": "ym2612"
    },
    {
      "channel": 1,
      "note": 50,
      "start": 109.0063,
      "duration": 0.427,
      "velocity": 111,
      "chip": "ym2612"
    },
    {
      "channel": 2,
      "note": 74,
      "start": 109.0087,
      "duration": 0.19,
      "velocity": 111,
      "chip": "ym2612"
    },
    {
      "channel": 3,
      "note": 61,
      "start": 109.015,
      "duration": 0.0665,
      "velocity": 127,
      "chip": "ym2612"
    },
    {
      "channel": 5,
      "note": 74,
      "start": 109.1229,
      "duration": 0.1941,
      "velocity": 111,
      "chip": "ym2612"
    },
    {
      "channel": 2,
      "note": 69,
      "start": 109.2395,
      "duration": 0.1941,
      "velocity": 111,
      "chip": "ym2612"
    },
    {
      "channel": 3,
      "note": 61,
      "start": 109.2456,
      "duration": 0.0123,
      "velocity": 119,
      "chip": "ym2612"
    },
    {
      "channel": 4,
      "note": 50,
      "start": 109.3573,
      "duration": 3.4127,
      "velocity": 87,
      "chip": "ym2612"
    },
    {
      "channel": 5,
      "note": 74,
      "start": 109.3605,
      "duration": 0.1911,
      "velocity": 111,
      "chip": "ym2612"
    },
    {
      "channel": 1,
      "note": 50,
      "start": 109.474,
      "duration": 0.4288,
      "velocity": 111,
      "chip": "ym2612"
    },
    {
      "channel": 2,
      "note": 74,
      "start": 109.4759,
      "duration": 0.1922,
      "velocity": 111,
      "chip": "ym2612"
    },
    {
      "channel": 3,
      "note": 61,
      "start": 109.4788,
      "duration": 0.014,
      "velocity": 119,
      "chip": "ym2612"
    },
    {
      "channel": 5,
      "note": 69,
      "start": 109.5924,
      "duration": 0.1937,
      "velocity": 111,
      "chip": "ym2612"
    },
    {
      "channel": 2,
      "note": 75,
      "start": 109.709,
      "duration": 0.194,
      "velocity": 111,
      "chip": "ym2612"
    },
    {
      "channel": 3,
      "note": 61,
      "start": 109.7151,
      "duration": 0.0706,
      "velocity": 127,
      "chip": "ym2612"
    },
    {
      "channel": 5,
      "note": 74,
      "start": 109.828,
      "duration": 0.1928,
      "velocity": 111,
      "chip": "ym2612"
    },
    {
      "channel": 1,
      "note": 50,
      "start": 109.9444,
      "duration": 0.4279,
      "velocity": 111,
      "chip": "ym2612"
    },
    {
      "channel": 2,
      "note": 74,
      "start": 109.9464,
      "duration": 0.1912,
      "velocity": 111,
      "chip": "ym2612"
    },
    {
      "channel": 3,
      "note": 61,
      "start": 109.9519,
      "duration": 0.0686,
      "velocity": 127,
      "chip": "ym2612"
    },
    {
      "channel": 5,
      "note": 75,
      "start": 110.0627,
      "duration": 0.1931,
      "velocity": 111,
      "chip": "ym2612"
    },
    {
      "channel": 2,
      "note": 69,
      "start": 110.1802,
      "duration": 0.1922,
      "velocity": 111,
      "chip": "ym2612"
    },
    {
      "channel": 3,
      "note": 61,
      "start": 110.1855,
      "duration": 0.0115,
      "velocity": 119,
      "chip": "ym2612"
    },
    {
      "channel": 5,
      "note": 74,
      "start": 110.2969,
      "duration": 0.1936,
      "velocity": 111,
      "chip": "ym2612"
    },
    {
      "channel": 1,
      "note": 50,
      "start": 110.413,
      "duration": 0.4297,
      "velocity": 111,
      "chip": "ym2612"
    },
    {
      "channel": 2,
      "note": 74,
      "start": 110.4149,
      "duration": 0.1922,
      "velocity": 111,
      "chip": "ym2612"
    },
    {
      "channel": 3,
      "note": 61,
      "start": 110.417,
      "duration": 0.0147,
      "velocity": 119,
      "chip": "ym2612"
    },
    {
      "channel": 5,
      "note": 69,
      "start": 110.5313,
      "duration": 0.1937,
      "velocity": 111,
      "chip": "ym2612"
    },
    {
      "channel": 2,
      "note": 75,
      "start": 110.6479,
      "duration": 0.195,
      "velocity": 111,
      "chip": "ym2612"
    },
    {
      "channel": 3,
      "note": 61,
      "start": 110.6533,
      "duration": 0.0715,
      "velocity": 127,
      "chip": "ym2612"
    },
    {
      "channel": 5,
      "note": 74,
      "start": 110.7661,
      "duration": 0.1955,
      "velocity": 111,
      "chip": "ym2612"
    },
    {
      "channel": 1,
      "note": 50,
      "start": 110.8849,
      "duration": 0.4271,
      "velocity": 111,
      "chip": "ym2612"
    },
    {
      "channel": 2,
      "note": 74,
      "start": 110.8869,
      "duration": 0.1914,
      "velocity": 111,
      "chip": "ym2612"
    },
    {
      "channel": 3,
      "note": 61,
      "start": 110.8924,
      "duration": 0.0688,
      "velocity": 127,
      "chip": "ym2612"
    },
    {
      "channel": 5,
      "note": 75,
      "start": 111.0017,
      "duration": 0.1943,
      "velocity": 111,
      "chip": "ym2612"
    },
    {
      "channel": 2,
      "note": 69,
      "start": 111.1182,
      "duration": 0.194,
      "velocity": 111,
      "chip": "ym2612"
    },
    {
      "channel": 3,
      "note": 61,
      "start": 111.1235,
      "duration": 0.0125,
      "velocity": 119,
      "chip": "ym2612"
    },
    {
      "channel": 5,
      "note": 74,
      "start": 111.2379,
      "duration": 0.1922,
      "velocity": 111,
      "chip": "ym2612"
    },
    {
      "channel": 1,
      "note": 50,
      "start": 111.3527,
      "duration": 0.4286,
      "velocity": 111,
      "chip": "ym2612"
    },
    {
      "channel": 2,
      "note": 74,
      "start": 111.3545,
      "duration": 0.1922,
      "velocity": 111,
      "chip": "ym2612"
    },
    {
      "channel": 3,
      "note": 61,
      "start": 111.3566,
      "duration": 0.0141,
      "velocity": 119,
      "chip": "ym2612"
    },
    {
      "channel": 5,
      "note": 69,
      "start": 111.4709,
      "duration": 0.1937,
      "velocity": 111,
      "chip": "ym2612"
    },
    {
      "channel": 2,
      "note": 75,
      "start": 111.5875,
      "duration": 0.194,
      "velocity": 111,
      "chip": "ym2612"
    },
    {
      "channel": 3,
      "note": 61,
      "start": 111.5928,
      "duration": 0.0715,
      "velocity": 127,
      "chip": "ym2612"
    },
    {
      "channel": 5,
      "note": 74,
      "start": 111.7056,
      "duration": 0.1936,
      "velocity": 111,
      "chip": "ym2612"
    },
    {
      "channel": 1,
      "note": 50,
      "start": 111.8219,
      "duration": 0.4286,
      "velocity": 111,
      "chip": "ym2612"
    },
    {
      "channel": 2,
      "note": 74,
      "start": 111.8239,
      "duration": 0.192,
      "velocity": 111,
      "chip": "ym2612"
    },
    {
      "channel": 3,
      "note": 61,
      "start": 111.8302,
      "duration": 0.0686,
      "velocity": 127,
      "chip": "ym2612"
    },
    {
      "channel": 5,
      "note": 75,
      "start": 111.9402,
      "duration": 0.1939,
      "velocity": 111,
      "chip": "ym2612"
    },
    {
      "channel": 2,
      "note": 69,
      "start": 112.0568,
      "duration": 0.194,
      "velocity": 111,
      "chip": "ym2612"
    },
    {
      "channel": 3,
      "note": 61,
      "start": 112.0629,
      "duration": 0.0121,
      "velocity": 119,
      "chip": "ym2612"
    },
    {
      "channel": 5,
      "note": 74,
      "start": 112.175,
      "duration": 0.1937,
      "velocity": 111,
      "chip": "ym2612"
    },
    {
      "channel": 1,
      "note": 50,
      "start": 112.2912,
      "duration": 0.4287,
      "velocity": 111,
      "chip": "ym2612"
    },
    {
      "channel": 2,
      "note": 74,
      "start": 112.293,
      "duration": 0.1922,
      "velocity": 111,
      "chip": "ym2612"
    },
    {
      "channel": 3,
      "note": 61,
      "start": 112.296,
      "duration": 0.0137,
      "velocity": 119,
      "chip": "ym2612"
    },
    {
      "channel": 5,
      "note": 69,
      "start": 112.4094,
      "duration": 0.1936,
      "velocity": 111,
      "chip": "ym2612"
    },
    {
      "channel": 2,
      "note": 75,
      "start": 112.526,
      "duration": 0.194,
      "velocity": 111,
      "chip": "ym2612"
    },
    {
      "channel": 3,
      "note": 61,
      "start": 112.5322,
      "duration": 0.0706,
      "velocity": 127,
      "chip": "ym2612"
    },
    {
      "channel": 5,
      "note": 74,
      "start": 112.6449,
      "duration": 0.1251,
      "velocity": 111,
      "chip": "ym2612"
    },
    {
      "channel": 0,
      "note": 56,
      "start": 112.7652,
      "duration": 0.0048,
      "velocity": 87,
      "chip": "ym2612"
    },
    {
      "channel": 1,
      "note": 49,
      "start": 112.7673,
      "duration": 0.0027,
      "velocity": 111,
      "chip": "ym2612"
    }
  ]
}