{
  "track_name": "41 - Mega Man 3- Dr. Wily Stage 2",
  "duration_sec": 41.187,
  "sample_rate": 44100,
  "note_count": 760,
  "unique_pitches": 22,
  "pitch_range": 43,
  "avg_note_duration": 0.2483,
  "reconstruction_stats": {
    "notes_reconstructed": 760,
    "keyon_events": 760,
    "keyoff_events": 758,
    "orphan_keyons": 2,
    "unique_pitches": 22,
    "pitch_range": 43,
    "avg_duration_sec": 0.2483
  },
  "metadata": {
    "source": "M\\Mega Man - The Wily Wars\\41 - Mega Man 3- Dr. Wily Stage 2.vgm"
  },
  "notes": [
    {
      "channel": 0,
      "note": 78,
      "start": 0.0,
      "duration": 0.0,
      "velocity": 1,
      "chip": "ym2612"
    },
    {
      "channel": 0,
      "note": 75,
      "start": 0.0,
      "duration": 0.0829,
      "velocity": 92,
      "chip": "ym2612"
    },
    {
      "channel": 3,
      "note": 51,
      "start": 0.0,
      "duration": 0.0,
      "velocity": 1,
      "chip": "ym2612"
    },
    {
      "channel": 1,
      "note": 71,
      "start": 0.0029,
      "duration": 0.0807,
      "velocity": 92,
      "chip": "ym2612"
    },
    {
      "channel": 3,
      "note": 56,
      "start": 0.0087,
      "duration": 0.3768,
      "velocity": 99,
      "chip": "ym2612"
    },
    {
      "channel": 4,
      "note": 75,
      "start": 0.0511,
      "duration": 0.0994,
      "velocity": 92,
      "chip": "ym2612"
    },
    {
      "channel": 0,
      "note": 73,
      "start": 0.0835,
      "duration": 0.1003,
      "velocity": 92,
      "chip": "ym2612"
    },
    {
      "channel": 1,
      "note": 70,
      "start": 0.0842,
      "duration": 0.1002,
      "velocity": 92,
      "chip": "ym2612"
    },
    {
      "channel": 4,
      "note": 73,
      "start": 0.1511,
      "duration": 0.0994,
      "velocity": 92,
      "chip": "ym2612"
    },
    {
      "channel": 0,
      "note": 78,
      "start": 0.1843,
      "duration": 0.0994,
      "velocity": 92,
      "chip": "ym2612"
    },
    {
      "channel": 1,
      "note": 75,
      "start": 0.185,
      "duration": 0.0994,
      "velocity": 92,
      "chip": "ym2612"
    },
    {
      "channel": 4,
      "note": 78,
      "start": 0.2511,
      "duration": 0.0994,
      "velocity": 92,
      "chip": "ym2612"
    },
    {
      "channel": 0,
      "note": 76,
      "start": 0.2843,
      "duration": 0.0996,
      "velocity": 92,
      "chip": "ym2612"
    },
    {
      "channel": 1,
      "note": 73,
      "start": 0.285,
      "duration": 0.0997,
      "velocity": 92,
      "chip": "ym2612"
    },
    {
      "channel": 4,
      "note": 76,
      "start": 0.3511,
      "duration": 0.0994,
      "velocity": 92,
      "chip": "ym2612"
    },
    {
      "channel": 0,
      "note": 75,
      "start": 0.3845,
      "duration": 0.0984,
      "velocity": 92,
      "chip": "ym2612"
    },
    {
      "channel": 1,
      "note": 71,
      "start": 0.3853,
      "duration": 0.0983,
      "velocity": 92,
      "chip": "ym2612"
    },
    {
      "channel": 3,
      "note": 54,
      "start": 0.386,
      "duration": 0.3994,
      "velocity": 99,
      "chip": "ym2612"
    },
    {
      "channel": 4,
      "note": 75,
      "start": 0.4511,
      "duration": 0.0994,
      "velocity": 92,
      "chip": "ym2612"
    },
    {
      "channel": 0,
      "note": 73,
      "start": 0.4835,
      "duration": 0.1003,
      "velocity": 92,
      "chip": "ym2612"
    },
    {
      "channel": 1,
      "note": 70,
      "start": 0.4842,
      "duration": 0.1002,
      "velocity": 92,
      "chip": "ym2612"
    },
    {
      "channel": 4,
      "note": 73,
      "start": 0.5511,
      "duration": 0.0994,
      "velocity": 92,
      "chip": "ym2612"
    },
    {
      "channel": 0,
      "note": 78,
      "start": 0.5843,
      "duration": 0.0994,
      "velocity": 92,
      "chip": "ym2612"
    },
    {
      "channel": 1,
      "note": 75,
      "start": 0.585,
      "duration": 0.0994,
      "velocity": 92,
      "chip": "ym2612"
    },
    {
      "channel": 4,
      "note": 78,
      "start": 0.6511,
      "duration": 0.0994,
      "velocity": 92,
      "chip": "ym2612"
    },
    {
      "channel": 0,
      "note": 76,
      "start": 0.6843,
      "duration": 0.0996,
      "velocity": 92,
      "chip": "ym2612"
    },
    {
      "channel": 1,
      "note": 73,
      "start": 0.685,
      "duration": 0.0997,
      "velocity": 92,
      "chip": "ym2612"
    },
    {
      "channel": 4,
      "note": 76,
      "start": 0.7511,
      "duration": 0.1161,
      "velocity": 92,
      "chip": "ym2612"
    },
    {
      "channel": 0,
      "note": 75,
      "start": 0.7845,
      "duration": 0.1151,
      "velocity": 92,
      "chip": "ym2612"
    },
    {
      "channel": 1,
      "note": 71,
      "start": 0.7853,
      "duration": 0.115,
      "velocity": 92,
      "chip": "ym2612"
    },
    {
      "channel": 3,
      "note": 52,
      "start": 0.786,
      "duration": 0.4168,
      "velocity": 99,
      "chip": "ym2612"
    },
    {
      "channel": 4,
      "note": 75,
      "start": 0.8678,
      "duration": 0.0994,
      "velocity": 92,
      "chip": "ym2612"
    },
    {
      "channel": 0,
      "note": 73,
      "start": 0.9001,
      "duration": 0.1003,
      "velocity": 92,
      "chip": "ym2612"
    },
    {
      "channel": 1,
      "note": 70,
      "start": 0.9008,
      "duration": 0.1002,
      "velocity": 92,
      "chip": "ym2612"
    },
    {
      "channel": 4,
      "note": 73,
      "start": 0.9678,
      "duration": 0.0994,
      "velocity": 92,
      "chip": "ym2612"
    },
    {
      "channel": 0,
      "note": 78,
      "start": 1.001,
      "duration": 0.0994,
      "velocity": 92,
      "chip": "ym2612"
    },
    {
      "channel": 1,
      "note": 75,
      "start": 1.0017,
      "duration": 0.0994,
      "velocity": 92,
      "chip": "ym2612"
    },
    {
      "channel": 4,
      "note": 78,
      "start": 1.0678,
      "duration": 0.0994,
      "velocity": 92,
      "chip": "ym2612"
    },
    {
      "channel": 0,
      "note": 76,
      "start": 1.101,
      "duration": 0.0996,
      "velocity": 92,
      "chip": "ym2612"
    },
    {
      "channel": 1,
      "note": 73,
      "start": 1.1017,
      "duration": 0.0997,
      "velocity": 92,
      "chip": "ym2612"
    },
    {
      "channel": 4,
      "note": 76,
      "start": 1.1678,
      "duration": 0.0994,
      "velocity": 92,
      "chip": "ym2612"
    },
    {
      "channel": 0,
      "note": 75,
      "start": 1.2012,
      "duration": 0.0984,
      "velocity": 92,
      "chip": "ym2612"
    },
    {
      "channel": 2,
      "note": 63,
      "start": 1.2027,
      "duration": 0.0977,
      "velocity": 92,
      "chip": "ym2612"
    },
    {
      "channel": 3,
      "note": 51,
      "start": 1.2034,
      "duration": 0.4017,
      "velocity": 99,
      "chip": "ym2612"
    },
    {
      "channel": 4,
      "note": 75,
      "start": 1.2678,
      "duration": 0.0994,
      "velocity": 92,
      "chip": "ym2612"
    },
    {
      "channel": 0,
      "note": 73,
      "start": 1.3001,
      "duration": 0.1003,
      "velocity": 92,
      "chip": "ym2612"
    },
    {
      "channel": 2,
      "note": 61,
      "start": 1.301,
      "duration": 0.1002,
      "velocity": 92,
      "chip": "ym2612"
    },
    {
      "channel": 4,
      "note": 73,
      "start": 1.3678,
      "duration": 0.0994,
      "velocity": 92,
      "chip": "ym2612"
    },
    {
      "channel": 0,
      "note": 71,
      "start": 1.401,
      "duration": 0.0994,
      "velocity": 92,
      "chip": "ym2612"
    },
    {
      "channel": 2,
      "note": 59,
      "start": 1.4018,
      "duration": 0.0994,
      "velocity": 92,
      "chip": "ym2612"
    },
    {
      "channel": 4,
      "note": 71,
      "start": 1.4678,
      "duration": 0.0994,
      "velocity": 92,
      "chip": "ym2612"
    },
    {
      "channel": 0,
      "note": 70,
      "start": 1.501,
      "duration": 0.1017,
      "velocity": 92,
      "chip": "ym2612"
    },
    {
      "channel": 2,
      "note": 58,
      "start": 1.5018,
      "duration": 0.1025,
      "velocity": 92,
      "chip": "ym2612"
    },
    {
      "channel": 4,
      "note": 70,
      "start": 1.5678,
      "duration": 0.0998,
      "velocity": 92,
      "chip": "ym2612"
    },
    {
      "channel": 0,
      "note": 73,
      "start": 1.6032,
      "duration": 0.2135,
      "velocity": 92,
      "chip": "ym2612"
    },
    {
      "channel": 1,
      "note": 66,
      "start": 1.604,
      "duration": 0.213,
      "velocity": 92,
      "chip": "ym2612"
    },
    {
      "channel": 2,
      "note": 56,
      "start": 1.6048,
      "duration": 0.162,
      "velocity": 92,
      "chip": "ym2612"
    },
    {
      "channel": 3,
      "note": 56,
      "start": 1.6056,
      "duration": 0.1615,
      "velocity": 99,
      "chip": "ym2612"
    },
    {
      "channel": 5,
      "note": 44,
      "start": 1.6068,
      "duration": 0.1443,
      "velocity": 114,
      "chip": "ym2612"
    },
    {
      "channel": 4,
      "note": 73,
      "start": 1.6681,
      "duration": 0.2155,
      "velocity": 92,
      "chip": "ym2612"
    },
    {
      "channel": 2,
      "note": 56,
      "start": 1.8179,
      "duration": 0.1484,
      "velocity": 92,
      "chip": "ym2612"
    },
    {
      "channel": 3,
      "note": 56,
      "start": 1.8186,
      "duration": 0.148,
      "velocity": 99,
      "chip": "ym2612"
    },
    {
      "channel": 0,
      "note": 73,
      "start": 2.0192,
      "duration": 0.1975,
      "velocity": 92,
      "chip": "ym2612"
    },
    {
      "channel": 1,
      "note": 66,
      "start": 2.0199,
      "duration": 0.1971,
      "velocity": 92,
      "chip": "ym2612"
    },
    {
      "channel": 2,
      "note": 56,
      "start": 2.0206,
      "duration": 0.1462,
      "velocity": 92,
      "chip": "ym2612"
    },
    {
      "channel": 3,
      "note": 56,
      "start": 2.0213,
      "duration": 0.1458,
      "velocity": 99,
      "chip": "ym2612"
    },
    {
      "channel": 5,
      "note": 87,
      "start": 2.0222,
      "duration": 0.2949,
      "velocity": 120,
      "chip": "ym2612"
    },
    {
      "channel": 4,
      "note": 73,
      "start": 2.0847,
      "duration": 0.1989,
      "velocity": 92,
      "chip": "ym2612"
    },
    {
      "channel": 2,
      "note": 56,
      "start": 2.2179,
      "duration": 0.1484,
      "velocity": 92,
      "chip": "ym2612"
    },
    {
      "channel": 3,
      "note": 56,
      "start": 2.2186,
      "duration": 0.148,
      "velocity": 99,
      "chip": "ym2612"
    },
    {
      "channel": 2,
      "note": 56,
      "start": 2.4197,
      "duration": 0.1633,
      "velocity": 92,
      "chip": "ym2612"
    },
    {
      "channel": 3,
      "note": 56,
      "start": 2.4207,
      "duration": 0.1626,
      "velocity": 99,
      "chip": "ym2612"
    },
    {
      "channel": 5,
      "note": 44,
      "start": 2.4216,
      "duration": 0.1455,
      "velocity": 114,
      "chip": "ym2612"
    },
    {
      "channel": 0,
      "note": 73,
      "start": 2.6343,
      "duration": 0.2014,
      "velocity": 92,
      "chip": "ym2612"
    },
    {
      "channel": 1,
      "note": 66,
      "start": 2.635,
      "duration": 0.201,
      "velocity": 92,
      "chip": "ym2612"
    },
    {
      "channel": 2,
      "note": 56,
      "start": 2.6357,
      "duration": 0.1478,
      "velocity": 92,
      "chip": "ym2612"
    },
    {
      "channel": 3,
      "note": 56,
      "start": 2.6365,
      "duration": 0.1473,
      "velocity": 99,
      "chip": "ym2612"
    },
    {
      "channel": 4,
      "note": 73,
      "start": 2.7014,
      "duration": 0.1989,
      "velocity": 92,
      "chip": "ym2612"
    },
    {
      "channel": 2,
      "note": 56,
      "start": 2.8369,
      "duration": 0.1461,
      "velocity": 92,
      "chip": "ym2612"
    },
    {
      "channel": 3,
      "note": 56,
      "start": 2.8376,
      "duration": 0.1457,
      "velocity": 99,
      "chip": "ym2612"
    },
    {
      "channel": 5,
      "note": 87,
      "start": 2.8387,
      "duration": 0.2968,
      "velocity": 120,
      "chip": "ym2612"
    },
    {
      "channel": 0,
      "note": 71,
      "start": 3.0343,
      "duration": 0.2015,
      "velocity": 92,
      "chip": "ym2612"
    },
    {
      "channel": 1,
      "note": 66,
      "start": 3.035,
      "duration": 0.2011,
      "velocity": 92,
      "chip": "ym2612"
    },
    {
      "channel": 2,
      "note": 56,
      "start": 3.0357,
      "duration": 0.1477,
      "velocity": 92,
      "chip": "ym2612"
    },
    {
      "channel": 3,
      "note": 56,
      "start": 3.0364,
      "duration": 0.1474,
      "velocity": 99,
      "chip": "ym2612"
    },
    {
      "channel": 4,
      "note": 71,
      "start": 3.1014,
      "duration": 0.1989,
      "velocity": 92,
      "chip": "ym2612"
    },
    {
      "channel": 2,
      "note": 56,
      "start": 3.2373,
      "duration": 0.1623,
      "velocity": 92,
      "chip": "ym2612"
    },
    {
      "channel": 3,
      "note": 56,
      "start": 3.2383,
      "duration": 0.1617,
      "velocity": 99,
      "chip": "ym2612"
    },
    {
      "channel": 5,
      "note": 44,
      "start": 3.2395,
      "duration": 0.1276,
      "velocity": 114,
      "chip": "ym2612"
    },
    {
      "channel": 0,
      "note": 68,
      "start": 3.4506,
      "duration": 0.2014,
      "velocity": 92,
      "chip": "ym2612"
    },
    {
      "channel": 1,
      "note": 64,
      "start": 3.4513,
      "duration": 0.1485,
      "velocity": 92,
      "chip": "ym2612"
    },
    {
      "channel": 2,
      "note": 56,
      "start": 3.452,
      "duration": 0.1481,
      "velocity": 92,
      "chip": "ym2612"
    },
    {
      "channel": 3,
      "note": 56,
      "start": 3.4527,
      "duration": 0.1478,
      "velocity": 99,
      "chip": "ym2612"
    },
    {
      "channel": 4,
      "note": 68,
      "start": 3.518,
      "duration": 0.1994,
      "velocity": 92,
      "chip": "ym2612"
    },
    {
      "channel": 0,
      "note": 70,
      "start": 3.6526,
      "duration": 0.1975,
      "velocity": 92,
      "chip": "ym2612"
    },
    {
      "channel": 1,
      "note": 64,
      "start": 3.6533,
      "duration": 0.1465,
      "velocity": 92,
      "chip": "ym2612"
    },
    {
      "channel": 2,
      "note": 56,
      "start": 3.654,
      "duration": 0.1461,
      "velocity": 92,
      "chip": "ym2612"
    },
    {
      "channel": 3,
      "note": 56,
      "start": 3.6547,
      "duration": 0.1457,
      "velocity": 99,
      "chip": "ym2612"
    },
    {
      "channel": 5,
      "note": 87,
      "start": 3.6558,
      "duration": 0.2954,
      "velocity": 120,
      "chip": "ym2612"
    },
    {
      "channel": 4,
      "note": 70,
      "start": 3.718,
      "duration": 0.1994,
      "velocity": 92,
      "chip": "ym2612"
    },
    {
      "channel": 0,
      "note": 68,
      "start": 3.8506,
      "duration": 0.2014,
      "velocity": 92,
      "chip": "ym2612"
    },
    {
      "channel": 1,
      "note": 64,
      "start": 3.8513,
      "duration": 0.1485,
      "velocity": 92,
      "chip": "ym2612"
    },
    {
      "channel": 2,
      "note": 56,
      "start": 3.852,
      "duration": 0.1481,
      "velocity": 92,
      "chip": "ym2612"
    },
    {
      "channel": 3,
      "note": 56,
      "start": 3.8527,
      "duration": 0.1478,
      "velocity": 99,
      "chip": "ym2612"
    },
    {
      "channel": 4,
      "note": 68,
      "start": 3.918,
      "duration": 0.1994,
      "velocity": 92,
      "chip": "ym2612"
    },
    {
      "channel": 0,
      "note": 70,
      "start": 4.0526,
      "duration": 0.2145,
      "velocity": 92,
      "chip": "ym2612"
    },
    {
      "channel": 1,
      "note": 64,
      "start": 4.0533,
      "duration": 0.1464,
      "velocity": 92,
      "chip": "ym2612"
    },
    {
      "channel": 2,
      "note": 56,
      "start": 4.0543,
      "duration": 0.1458,
      "velocity": 92,
      "chip": "ym2612"
    },
    {
      "channel": 3,
      "note": 56,
      "start": 4.0553,
      "duration": 0.1451,
      "velocity": 99,
      "chip": "ym2612"
    },
    {
      "channel": 5,
      "note": 44,
      "start": 4.0565,
      "duration": 0.128,
      "velocity": 114,
      "chip": "ym2612"
    },
    {
      "channel": 4,
      "note": 70,
      "start": 4.118,
      "duration": 0.2161,
      "velocity": 92,
      "chip": "ym2612"
    },
    {
      "channel": 0,
      "note": 71,
      "start": 4.2676,
      "duration": 0.2014,
      "velocity": 92,
      "chip": "ym2612"
    },
    {
      "channel": 1,
      "note": 64,
      "start": 4.2683,
      "duration": 0.1481,
      "velocity": 92,
      "chip": "ym2612"
    },
    {
      "channel": 2,
      "note": 56,
      "start": 4.269,
      "duration": 0.1477,
      "velocity": 92,
      "chip": "ym2612"
    },
    {
      "channel": 3,
      "note": 56,
      "start": 4.2698,
      "duration": 0.1473,
      "velocity": 99,
      "chip": "ym2612"
    },
    {
      "channel": 4,
      "note": 71,
      "start": 4.3347,
      "duration": 0.1994,
      "velocity": 92,
      "chip": "ym2612"
    },
    {
      "channel": 0,
      "note": 70,
      "start": 4.4696,
      "duration": 0.1975,
      "velocity": 92,
      "chip": "ym2612"
    },
    {
      "channel": 1,
      "note": 64,
      "start": 4.4704,
      "duration": 0.1461,
      "velocity": 92,
      "chip": "ym2612"
    },
    {
      "channel": 2,
      "note": 56,
      "start": 4.4711,
      "duration": 0.1457,
      "velocity": 92,
      "chip": "ym2612"
    },
    {
      "channel": 3,
      "note": 56,
      "start": 4.4718,
      "duration": 0.1454,
      "velocity": 99,
      "chip": "ym2612"
    },
    {
      "channel": 5,
      "note": 87,
      "start": 4.4729,
      "duration": 0.2959,
      "velocity": 120,
      "chip": "ym2612"
    },
    {
      "channel": 4,
      "note": 70,
      "start": 4.5347,
      "duration": 0.1994,
      "velocity": 92,
      "chip": "ym2612"
    },
    {
      "channel": 0,
      "note": 68,
      "start": 4.6676,
      "duration": 0.2017,
      "velocity": 92,
      "chip": "ym2612"
    },
    {
      "channel": 1,
      "note": 64,
      "start": 4.6683,
      "duration": 0.1481,
      "velocity": 92,
      "chip": "ym2612"
    },
    {
      "channel": 2,
      "note": 56,
      "start": 4.669,
      "duration": 0.1477,
      "velocity": 92,
      "chip": "ym2612"
    },
    {
      "channel": 3,
      "note": 56,
      "start": 4.6697,
      "duration": 0.1474,
      "velocity": 99,
      "chip": "ym2612"
    },
    {
      "channel": 4,
      "note": 68,
      "start": 4.7347,
      "duration": 0.1996,
      "velocity": 92,
      "chip": "ym2612"
    },
    {
      "channel": 0,
      "note": 73,
      "start": 4.8699,
      "duration": 0.1968,
      "velocity": 92,
      "chip": "ym2612"
    },
    {
      "channel": 1,
      "note": 66,
      "start": 4.8708,
      "duration": 0.1962,
      "velocity": 92,
      "chip": "ym2612"
    },
    {
      "channel": 2,
      "note": 56,
      "start": 4.8718,
      "duration": 0.145,
      "velocity": 92,
      "chip": "ym2612"
    },
    {
      "channel": 3,
      "note": 56,
      "start": 4.8728,
      "duration": 0.1443,
      "velocity": 99,
      "chip": "ym2612"
    },
    {
      "channel": 5,
      "note": 44,
      "start": 4.874,
      "duration": 0.1272,
      "velocity": 114,
      "chip": "ym2612"
    },
    {
      "channel": 4,
      "note": 73,
      "start": 4.9349,
      "duration": 0.2154,
      "velocity": 92,
      "chip": "ym2612"
    },
    {
      "channel": 2,
      "note": 56,
      "start": 5.0679,
      "duration": 0.1651,
      "velocity": 92,
      "chip": "ym2612"
    },
    {
      "channel": 3,
      "note": 56,
      "start": 5.0686,
      "duration": 0.1647,
      "velocity": 99,
      "chip": "ym2612"
    },
    {
      "channel": 0,
      "note": 73,
      "start": 5.2859,
      "duration": 0.1975,
      "velocity": 92,
      "chip": "ym2612"
    },
    {
      "channel": 1,
      "note": 66,
      "start": 5.2866,
      "duration": 0.1971,
      "velocity": 92,
      "chip": "ym2612"
    },
    {
      "channel": 2,
      "note": 56,
      "start": 5.2873,
      "duration": 0.1461,
      "velocity": 92,
      "chip": "ym2612"
    },
    {
      "channel": 3,
      "note": 56,
      "start": 5.288,
      "duration": 0.1458,
      "velocity": 99,
      "chip": "ym2612"
    },
    {
      "channel": 5,
      "note": 87,
      "start": 5.2888,
      "duration": 0.2949,
      "velocity": 120,
      "chip": "ym2612"
    },
    {
      "channel": 4,
      "note": 73,
      "start": 5.3514,
      "duration": 0.1989,
      "velocity": 92,
      "chip": "ym2612"
    },
    {
      "channel": 2,
      "note": 56,
      "start": 5.4846,
      "duration": 0.1484,
      "velocity": 92,
      "chip": "ym2612"
    },
    {
      "channel": 3,
      "note": 56,
      "start": 5.4853,
      "duration": 0.148,
      "velocity": 99,
      "chip": "ym2612"
    },
    {
      "channel": 2,
      "note": 56,
      "start": 5.6863,
      "duration": 0.1466,
      "velocity": 92,
      "chip": "ym2612"
    },
    {
      "channel": 3,
      "note": 56,
      "start": 5.6874,
      "duration": 0.1459,
      "velocity": 99,
      "chip": "ym2612"
    },
    {
      "channel": 5,
      "note": 44,
      "start": 5.6883,
      "duration": 0.1288,
      "velocity": 114,
      "chip": "ym2612"
    },
    {
      "channel": 0,
      "note": 73,
      "start": 5.8843,
      "duration": 0.2181,
      "velocity": 92,
      "chip": "ym2612"
    },
    {
      "channel": 1,
      "note": 66,
      "start": 5.885,
      "duration": 0.2177,
      "velocity": 92,
      "chip": "ym2612"
    },
    {
      "channel": 2,
      "note": 56,
      "start": 5.8857,
      "duration": 0.1644,
      "velocity": 92,
      "chip": "ym2612"
    },
    {
      "channel": 3,
      "note": 56,
      "start": 5.8865,
      "duration": 0.164,
      "velocity": 99,
      "chip": "ym2612"
    },
    {
      "channel": 4,
      "note": 73,
      "start": 5.968,
      "duration": 0.1989,
      "velocity": 92,
      "chip": "ym2612"
    },
    {
      "channel": 2,
      "note": 56,
      "start": 6.1036,
      "duration": 0.1461,
      "velocity": 92,
      "chip": "ym2612"
    },
    {
      "channel": 3,
      "note": 56,
      "start": 6.1043,
      "duration": 0.1457,
      "velocity": 99,
      "chip": "ym2612"
    },
    {
      "channel": 5,
      "note": 87,
      "start": 6.1054,
      "duration": 0.2968,
      "velocity": 120,
      "chip": "ym2612"
    },
    {
      "channel": 0,
      "note": 71,
      "start": 6.301,
      "duration": 0.2015,
      "velocity": 92,
      "chip": "ym2612"
    },
    {
      "channel": 1,
      "note": 66,
      "start": 6.3017,
      "duration": 0.2011,
      "velocity": 92,
      "chip": "ym2612"
    },
    {
      "channel": 2,
      "note": 56,
      "start": 6.3024,
      "duration": 0.1478,
      "velocity": 92,
      "chip": "ym2612"
    },
    {
      "channel": 3,
      "note": 56,
      "start": 6.3031,
      "duration": 0.1474,
      "velocity": 99,
      "chip": "ym2612"
    },
    {
      "channel": 4,
      "note": 71,
      "start": 6.368,
      "duration": 0.1989,
      "velocity": 92,
      "chip": "ym2612"
    },
    {
      "channel": 2,
      "note": 56,
      "start": 6.5039,
      "duration": 0.1457,
      "velocity": 92,
      "chip": "ym2612"
    },
    {
      "channel": 3,
      "note": 56,
      "start": 6.5049,
      "duration": 0.145,
      "velocity": 99,
      "chip": "ym2612"
    },
    {
      "channel": 5,
      "note": 44,
      "start": 6.5061,
      "duration": 0.1276,
      "velocity": 114,
      "chip": "ym2612"
    },
    {
      "channel": 0,
      "note": 68,
      "start": 6.7006,
      "duration": 0.2181,
      "velocity": 92,
      "chip": "ym2612"
    },
    {
      "channel": 1,
      "note": 64,
      "start": 6.7013,
      "duration": 0.1651,
      "velocity": 92,
      "chip": "ym2612"
    },
    {
      "channel": 2,
      "note": 56,
      "start": 6.702,
      "duration": 0.1648,
      "velocity": 92,
      "chip": "ym2612"
    },
    {
      "channel": 3,
      "note": 56,
      "start": 6.7027,
      "duration": 0.1644,
      "velocity": 99,
      "chip": "ym2612"
    },
    {
      "channel": 4,
      "note": 68,
      "start": 6.768,
      "duration": 0.2161,
      "velocity": 92,
      "chip": "ym2612"
    },
    {
      "channel": 0,
      "note": 70,
      "start": 6.9192,
      "duration": 0.1975,
      "velocity": 92,
      "chip": "ym2612"
    },
    {
      "channel": 1,
      "note": 64,
      "start": 6.9199,
      "duration": 0.1465,
      "velocity": 92,
      "chip": "ym2612"
    },
    {
      "channel": 2,
      "note": 56,
      "start": 6.9206,
      "duration": 0.1461,
      "velocity": 92,
      "chip": "ym2612"
    },
    {
      "channel": 3,
      "note": 56,
      "start": 6.9214,
      "duration": 0.1457,
      "velocity": 99,
      "chip": "ym2612"
    },
    {
      "channel": 5,
      "note": 87,
      "start": 6.9225,
      "duration": 0.2954,
      "velocity": 120,
      "chip": "ym2612"
    },
    {
      "channel": 4,
      "note": 70,
      "start": 6.9847,
      "duration": 0.1994,
      "velocity": 92,
      "chip": "ym2612"
    },
    {
      "channel": 0,
      "note": 68,
      "start": 7.1173,
      "duration": 0.2014,
      "velocity": 92,
      "chip": "ym2612"
    },
    {
      "channel": 1,
      "note": 64,
      "start": 7.118,
      "duration": 0.1485,
      "velocity": 92,
      "chip": "ym2612"
    },
    {
      "channel": 2,
      "note": 56,
      "start": 7.1187,
      "duration": 0.1481,
      "velocity": 92,
      "chip": "ym2612"
    },
    {
      "channel": 3,
      "note": 56,
      "start": 7.1194,
      "duration": 0.1478,
      "velocity": 99,
      "chip": "ym2612"
    },
    {
      "channel": 4,
      "note": 68,
      "start": 7.1847,
      "duration": 0.1994,
      "velocity": 92,
      "chip": "ym2612"
    },
    {
      "channel": 0,
      "note": 70,
      "start": 7.3192,
      "duration": 0.1978,
      "velocity": 92,
      "chip": "ym2612"
    },
    {
      "channel": 1,
      "note": 64,
      "start": 7.32,
      "duration": 0.1464,
      "velocity": 92,
      "chip": "ym2612"
    },
    {
      "channel": 2,
      "note": 56,
      "start": 7.3207,
      "duration": 0.146,
      "velocity": 92,
      "chip": "ym2612"
    },
    {
      "channel": 3,
      "note": 56,
      "start": 7.3216,
      "duration": 0.1455,
      "velocity": 99,
      "chip": "ym2612"
    },
    {
      "channel": 5,
      "note": 44,
      "start": 7.3228,
      "duration": 0.1284,
      "velocity": 114,
      "chip": "ym2612"
    },
    {
      "channel": 4,
      "note": 70,
      "start": 7.3847,
      "duration": 0.1994,
      "velocity": 92,
      "chip": "ym2612"
    },
    {
      "channel": 0,
      "note": 71,
      "start": 7.5176,
      "duration": 0.2181,
      "velocity": 92,
      "chip": "ym2612"
    },
    {
      "channel": 1,
      "note": 64,
      "start": 7.5183,
      "duration": 0.1648,
      "velocity": 92,
      "chip": "ym2612"
    },
    {
      "channel": 2,
      "note": 56,
      "start": 7.519,
      "duration": 0.1644,
      "velocity": 92,
      "chip": "ym2612"
    },
    {
      "channel": 3,
      "note": 56,
      "start": 7.5197,
      "duration": 0.1641,
      "velocity": 99,
      "chip": "ym2612"
    },
    {
      "channel": 4,
      "note": 71,
      "start": 7.5847,
      "duration": 0.2161,
      "velocity": 92,
      "chip": "ym2612"
    },
    {
      "channel": 0,
      "note": 70,
      "start": 7.7363,
      "duration": 0.1975,
      "velocity": 92,
      "chip": "ym2612"
    },
    {
      "channel": 1,
      "note": 64,
      "start": 7.7371,
      "duration": 0.1461,
      "velocity": 92,
      "chip": "ym2612"
    },
    {
      "channel": 2,
      "note": 54,
      "start": 7.7377,
      "duration": 0.1457,
      "velocity": 92,
      "chip": "ym2612"
    },
    {
      "channel": 3,
      "note": 54,
      "start": 7.7384,
      "duration": 0.1454,
      "velocity": 99,
      "chip": "ym2612"
    },
    {
      "channel": 5,
      "note": 87,
      "start": 7.7395,
      "duration": 0.2959,
      "velocity": 120,
      "chip": "ym2612"
    },
    {
      "channel": 4,
      "note": 70,
      "start": 7.8014,
      "duration": 0.1994,
      "velocity": 92,
      "chip": "ym2612"
    },
    {
      "channel": 0,
      "note": 68,
      "start": 7.9343,
      "duration": 0.2016,
      "velocity": 92,
      "chip": "ym2612"
    },
    {
      "channel": 1,
      "note": 64,
      "start": 7.935,
      "duration": 0.1481,
      "velocity": 92,
      "chip": "ym2612"
    },
    {
      "channel": 2,
      "note": 54,
      "start": 7.9357,
      "duration": 0.1477,
      "velocity": 92,
      "chip": "ym2612"
    },
    {
      "channel": 3,
      "note": 54,
      "start": 7.9364,
      "duration": 0.1474,
      "velocity": 99,
      "chip": "ym2612"
    },
    {
      "channel": 4,
      "note": 68,
      "start": 8.0014,
      "duration": 0.1995,
      "velocity": 92,
      "chip": "ym2612"
    },
    {
      "channel": 0,
      "note": 75,
      "start": 8.1365,
      "duration": 0.1969,
      "velocity": 92,
      "chip": "ym2612"
    },
    {
      "channel": 1,
      "note": 68,
      "start": 8.1373,
      "duration": 0.1964,
      "velocity": 92,
      "chip": "ym2612"
    },
    {
      "channel": 2,
      "note": 52,
      "start": 8.138,
      "duration": 0.1454,
      "velocity": 92,
      "chip": "ym2612"
    },
    {
      "channel": 3,
      "note": 52,
      "start": 8.1389,
      "duration": 0.1449,
      "velocity": 99,
      "chip": "ym2612"
    },
    {
      "channel": 5,
      "note": 44,
      "start": 8.1401,
      "duration": 0.1277,
      "velocity": 114,
      "chip": "ym2612"
    },
    {
      "channel": 4,
      "note": 75,
      "start": 8.2015,
      "duration": 0.1988,
      "velocity": 92,
      "chip": "ym2612"
    },
    {
      "channel": 2,
      "note": 52,
      "start": 8.3346,
      "duration": 0.1484,
      "velocity": 92,
      "chip": "ym2612"
    },
    {
      "channel": 3,
      "note": 52,
      "start": 8.3353,
      "duration": 0.148,
      "velocity": 99,
      "chip": "ym2612"
    },
    {
      "channel": 0,
      "note": 75,
      "start": 8.5526,
      "duration": 0.1975,
      "velocity": 92,
      "chip": "ym2612"
    },
    {
      "channel": 1,
      "note": 68,
      "start": 8.5533,
      "duration": 0.197,
      "velocity": 92,
      "chip": "ym2612"
    },
    {
      "channel": 2,
      "note": 52,
      "start": 8.554,
      "duration": 0.1461,
      "velocity": 92,
      "chip": "ym2612"
    },
    {
      "channel": 3,
      "note": 52,
      "start": 8.5547,
      "duration": 0.1457,
      "velocity": 99,
      "chip": "ym2612"
    },
    {
      "channel": 5,
      "note": 87,
      "start": 8.5556,
      "duration": 0.2949,
      "velocity": 120,
      "chip": "ym2612"
    },
    {
      "channel": 4,
      "note": 75,
      "start": 8.618,
      "duration": 0.1989,
      "velocity": 92,
      "chip": "ym2612"
    },
    {
      "channel": 2,
      "note": 52,
      "start": 8.7512,
      "duration": 0.1484,
      "velocity": 92,
      "chip": "ym2612"
    },
    {
      "channel": 3,
      "note": 52,
      "start": 8.7519,
      "duration": 0.148,
      "velocity": 99,
      "chip": "ym2612"
    },
    {
      "channel": 2,
      "note": 52,
      "start": 8.953,
      "duration": 0.1466,
      "velocity": 92,
      "chip": "ym2612"
    },
    {
      "channel": 3,
      "note": 52,
      "start": 8.954,
      "duration": 0.1459,
      "velocity": 99,
      "chip": "ym2612"
    },
    {
      "channel": 5,
      "note": 44,
      "start": 8.9549,
      "duration": 0.1288,
      "velocity": 114,
      "chip": "ym2612"
    },
    {
      "channel": 0,
      "note": 75,
      "start": 9.151,
      "duration": 0.2014,
      "velocity": 92,
      "chip": "ym2612"
    },
    {
      "channel": 1,
      "note": 68,
      "start": 9.1517,
      "duration": 0.201,
      "velocity": 92,
      "chip": "ym2612"
    },
    {
      "channel": 2,
      "note": 52,
      "start": 9.1524,
      "duration": 0.1477,
      "velocity": 92,
      "chip": "ym2612"
    },
    {
      "channel": 3,
      "note": 52,
      "start": 9.1531,
      "duration": 0.1473,
      "velocity": 99,
      "chip": "ym2612"
    },
    {
      "channel": 4,
      "note": 75,
      "start": 9.218,
      "duration": 0.2156,
      "velocity": 92,
      "chip": "ym2612"
    },
    {
      "channel": 2,
      "note": 52,
      "start": 9.3536,
      "duration": 0.1627,
      "velocity": 92,
      "chip": "ym2612"
    },
    {
      "channel": 3,
      "note": 52,
      "start": 9.3543,
      "duration": 0.1623,
      "velocity": 99,
      "chip": "ym2612"
    },
    {
      "channel": 5,
      "note": 87,
      "start": 9.3554,
      "duration": 0.3134,
      "velocity": 120,
      "chip": "ym2612"
    },
    {
      "channel": 0,
      "note": 71,
      "start": 9.5676,
      "duration": 0.2015,
      "velocity": 92,
      "chip": "ym2612"
    },
    {
      "channel": 1,
      "note": 68,
      "start": 9.5683,
      "duration": 0.2012,
      "velocity": 92,
      "chip": "ym2612"
    },
    {
      "channel": 2,
      "note": 52,
      "start": 9.569,
      "duration": 0.1477,
      "velocity": 92,
      "chip": "ym2612"
    },
    {
      "channel": 3,
      "note": 52,
      "start": 9.5697,
      "duration": 0.1474,
      "velocity": 99,
      "chip": "ym2612"
    },
    {
      "channel": 4,
      "note": 71,
      "start": 9.6347,
      "duration": 0.1992,
      "velocity": 92,
      "chip": "ym2612"
    },
    {
      "channel": 1,
      "note": 64,
      "start": 9.7701,
      "duration": 0.1461,
      "velocity": 92,
      "chip": "ym2612"
    },
    {
      "channel": 2,
      "note": 52,
      "start": 9.7711,
      "duration": 0.1454,
      "velocity": 92,
      "chip": "ym2612"
    },
    {
      "channel": 3,
      "note": 52,
      "start": 9.7721,
      "duration": 0.1448,
      "velocity": 99,
      "chip": "ym2612"
    },
    {
      "channel": 5,
      "note": 44,
      "start": 9.7733,
      "duration": 0.1273,
      "velocity": 114,
      "chip": "ym2612"
    },
    {
      "channel": 1,
      "note": 64,
      "start": 9.9673,
      "duration": 0.1488,
      "velocity": 92,
      "chip": "ym2612"
    },
    {
      "channel": 2,
      "note": 52,
      "start": 9.968,
      "duration": 0.1485,
      "velocity": 92,
      "chip": "ym2612"
    },
    {
      "channel": 3,
      "note": 52,
      "start": 9.9687,
      "duration": 0.1481,
      "velocity": 99,
      "chip": "ym2612"
    },
    {
      "channel": 1,
      "note": 64,
      "start": 10.1693,
      "duration": 0.1635,
      "velocity": 92,
      "chip": "ym2612"
    },
    {
      "channel": 2,
      "note": 52,
      "start": 10.17,
      "duration": 0.1632,
      "velocity": 92,
      "chip": "ym2612"
    },
    {
      "channel": 3,
      "note": 52,
      "start": 10.1707,
      "duration": 0.1628,
      "velocity": 99,
      "chip": "ym2612"
    },
    {
      "channel": 5,
      "note": 87,
      "start": 10.1716,
      "duration": 0.3133,
      "velocity": 120,
      "chip": "ym2612"
    },
    {
      "channel": 0,
      "note": 68,
      "start": 10.3839,
      "duration": 0.0989,
      "velocity": 92,
      "chip": "ym2612"
    },
    {
      "channel": 1,
      "note": 64,
      "start": 10.3846,
      "duration": 0.1485,
      "velocity": 92,
      "chip": "ym2612"
    },
    {
      "channel": 2,
      "note": 52,
      "start": 10.3853,
      "duration": 0.1481,
      "velocity": 92,
      "chip": "ym2612"
    },
    {
      "channel": 3,
      "note": 52,
      "start": 10.386,
      "duration": 0.1478,
      "velocity": 99,
      "chip": "ym2612"
    },
    {
      "channel": 4,
      "note": 68,
      "start": 10.4514,
      "duration": 0.0987,
      "velocity": 92,
      "chip": "ym2612"
    },
    {
      "channel": 0,
      "note": 70,
      "start": 10.4834,
      "duration": 0.102,
      "velocity": 92,
      "chip": "ym2612"
    },
    {
      "channel": 4,
      "note": 70,
      "start": 10.5506,
      "duration": 0.1002,
      "velocity": 92,
      "chip": "ym2612"
    },
    {
      "channel": 0,
      "note": 71,
      "start": 10.5859,
      "duration": 0.1978,
      "velocity": 92,
      "chip": "ym2612"
    },
    {
      "channel": 1,
      "note": 64,
      "start": 10.5868,
      "duration": 0.1463,
      "velocity": 92,
      "chip": "ym2612"
    },
    {
      "channel": 2,
      "note": 52,
      "start": 10.5878,
      "duration": 0.1456,
      "velocity": 92,
      "chip": "ym2612"
    },
    {
      "channel": 3,
      "note": 52,
      "start": 10.5888,
      "duration": 0.145,
      "velocity": 99,
      "chip": "ym2612"
    },
    {
      "channel": 5,
      "note": 44,
      "start": 10.59,
      "duration": 0.1278,
      "velocity": 114,
      "chip": "ym2612"
    },
    {
      "channel": 4,
      "note": 71,
      "start": 10.6514,
      "duration": 0.1994,
      "velocity": 92,
      "chip": "ym2612"
    },
    {
      "channel": 0,
      "note": 70,
      "start": 10.7843,
      "duration": 0.2014,
      "velocity": 92,
      "chip": "ym2612"
    },
    {
      "channel": 1,
      "note": 64,
      "start": 10.785,
      "duration": 0.1481,
      "velocity": 92,
      "chip": "ym2612"
    },
    {
      "channel": 2,
      "note": 52,
      "start": 10.7857,
      "duration": 0.1477,
      "velocity": 92,
      "chip": "ym2612"
    },
    {
      "channel": 3,
      "note": 52,
      "start": 10.7865,
      "duration": 0.1473,
      "velocity": 99,
      "chip": "ym2612"
    },
    {
      "channel": 4,
      "note": 70,
      "start": 10.8514,
      "duration": 0.1994,
      "velocity": 92,
      "chip": "ym2612"
    },
    {
      "channel": 0,
      "note": 71,
      "start": 10.9863,
      "duration": 0.2141,
      "velocity": 92,
      "chip": "ym2612"
    },
    {
      "channel": 1,
      "note": 64,
      "start": 10.9871,
      "duration": 0.1627,
      "velocity": 92,
      "chip": "ym2612"
    },
    {
      "channel": 2,
      "note": 52,
      "start": 10.9877,
      "duration": 0.1624,
      "velocity": 92,
      "chip": "ym2612"
    },
    {
      "channel": 3,
      "note": 52,
      "start": 10.9884,
      "duration": 0.162,
      "velocity": 99,
      "chip": "ym2612"
    },
    {
      "channel": 5,
      "note": 87,
      "start": 10.9895,
      "duration": 0.3126,
      "velocity": 120,
      "chip": "ym2612"
    },
    {
      "channel": 4,
      "note": 71,
      "start": 11.0514,
      "duration": 0.2161,
      "velocity": 92,
      "chip": "ym2612"
    },
    {
      "channel": 0,
      "note": 73,
      "start": 11.201,
      "duration": 0.2015,
      "velocity": 92,
      "chip": "ym2612"
    },
    {
      "channel": 1,
      "note": 64,
      "start": 11.2017,
      "duration": 0.1481,
      "velocity": 92,
      "chip": "ym2612"
    },
    {
      "channel": 2,
      "note": 52,
      "start": 11.2024,
      "duration": 0.1477,
      "velocity": 92,
      "chip": "ym2612"
    },
    {
      "channel": 3,
      "note": 52,
      "start": 11.2031,
      "duration": 0.1474,
      "velocity": 99,
      "chip": "ym2612"
    },
    {
      "channel": 4,
      "note": 73,
      "start": 11.268,
      "duration": 0.1994,
      "velocity": 92,
      "chip": "ym2612"
    },
    {
      "channel": 0,
      "note": 75,
      "start": 11.403,
      "duration": 0.197,
      "velocity": 92,
      "chip": "ym2612"
    },
    {
      "channel": 1,
      "note": 68,
      "start": 11.4038,
      "duration": 0.1965,
      "velocity": 92,
      "chip": "ym2612"
    },
    {
      "channel": 2,
      "note": 52,
      "start": 11.4049,
      "duration": 0.1453,
      "velocity": 92,
      "chip": "ym2612"
    },
    {
      "channel": 3,
      "note": 52,
      "start": 11.4058,
      "duration": 0.1446,
      "velocity": 99,
      "chip": "ym2612"
    },
    {
      "channel": 5,
      "note": 44,
      "start": 11.407,
      "duration": 0.1275,
      "velocity": 114,
      "chip": "ym2612"
    },
    {
      "channel": 4,
      "note": 75,
      "start": 11.468,
      "duration": 0.1989,
      "velocity": 92,
      "chip": "ym2612"
    },
    {
      "channel": 2,
      "note": 52,
      "start": 11.6012,
      "duration": 0.1484,
      "velocity": 92,
      "chip": "ym2612"
    },
    {
      "channel": 3,
      "note": 52,
      "start": 11.6019,
      "duration": 0.148,
      "velocity": 99,
      "chip": "ym2612"
    },
    {
      "channel": 0,
      "note": 75,
      "start": 11.8026,
      "duration": 0.2141,
      "velocity": 92,
      "chip": "ym2612"
    },
    {
      "channel": 1,
      "note": 68,
      "start": 11.8033,
      "duration": 0.2137,
      "velocity": 92,
      "chip": "ym2612"
    },
    {
      "channel": 2,
      "note": 52,
      "start": 11.804,
      "duration": 0.1628,
      "velocity": 92,
      "chip": "ym2612"
    },
    {
      "channel": 3,
      "note": 52,
      "start": 11.8047,
      "duration": 0.1624,
      "velocity": 99,
      "chip": "ym2612"
    },
    {
      "channel": 5,
      "note": 87,
      "start": 11.8055,
      "duration": 0.3116,
      "velocity": 120,
      "chip": "ym2612"
    },
    {
      "channel": 4,
      "note": 75,
      "start": 11.868,
      "duration": 0.2156,
      "velocity": 92,
      "chip": "ym2612"
    },
    {
      "channel": 2,
      "note": 52,
      "start": 12.0179,
      "duration": 0.1484,
      "velocity": 92,
      "chip": "ym2612"
    },
    {
      "channel": 3,
      "note": 52,
      "start": 12.0186,
      "duration": 0.148,
      "velocity": 99,
      "chip": "ym2612"
    },
    {
      "channel": 2,
      "note": 52,
      "start": 12.2197,
      "duration": 0.1466,
      "velocity": 92,
      "chip": "ym2612"
    },
    {
      "channel": 3,
      "note": 52,
      "start": 12.2207,
      "duration": 0.1459,
      "velocity": 99,
      "chip": "ym2612"
    },
    {
      "channel": 5,
      "note": 44,
      "start": 12.2216,
      "duration": 0.1288,
      "velocity": 114,
      "chip": "ym2612"
    },
    {
      "channel": 0,
      "note": 75,
      "start": 12.4176,
      "duration": 0.2014,
      "velocity": 92,
      "chip": "ym2612"
    },
    {
      "channel": 1,
      "note": 68,
      "start": 12.4183,
      "duration": 0.201,
      "velocity": 92,
      "chip": "ym2612"
    },
    {
      "channel": 2,
      "note": 52,
      "start": 12.419,
      "duration": 0.1477,
      "velocity": 92,
      "chip": "ym2612"
    },
    {
      "channel": 3,
      "note": 52,
      "start": 12.4198,
      "duration": 0.1473,
      "velocity": 99,
      "chip": "ym2612"
    },
    {
      "channel": 4,
      "note": 75,
      "start": 12.4847,
      "duration": 0.1989,
      "velocity": 92,
      "chip": "ym2612"
    },
    {
      "channel": 2,
      "note": 52,
      "start": 12.6202,
      "duration": 0.1627,
      "velocity": 92,
      "chip": "ym2612"
    },
    {
      "channel": 3,
      "note": 52,
      "start": 12.621,
      "duration": 0.1623,
      "velocity": 99,
      "chip": "ym2612"
    },
    {
      "channel": 5,
      "note": 87,
      "start": 12.622,
      "duration": 0.3134,
      "velocity": 120,
      "chip": "ym2612"
    },
    {
      "channel": 0,
      "note": 75,
      "start": 12.8343,
      "duration": 0.8157,
      "velocity": 92,
      "chip": "ym2612"
    },
    {
      "channel": 1,
      "note": 68,
      "start": 12.835,
      "duration": 0.1481,
      "velocity": 92,
      "chip": "ym2612"
    },
    {
      "channel": 2,
      "note": 52,
      "start": 12.8357,
      "duration": 0.1477,
      "velocity": 92,
      "chip": "ym2612"
    },
    {
      "channel": 3,
      "note": 52,
      "start": 12.8365,
      "duration": 0.1473,
      "velocity": 99,
      "chip": "ym2612"
    },
    {
      "channel": 4,
      "note": 75,
      "start": 12.9014,
      "duration": 0.8161,
      "velocity": 92,
      "chip": "ym2612"
    },
    {
      "channel": 1,
      "note": 68,
      "start": 13.0367,
      "duration": 0.816,
      "velocity": 92,
      "chip": "ym2612"
    },
    {
      "channel": 2,
      "note": 46,
      "start": 13.0377,
      "duration": 0.1458,
      "velocity": 92,
      "chip": "ym2612"
    },
    {
      "channel": 3,
      "note": 51,
      "start": 13.0386,
      "duration": 0.1451,
      "velocity": 99,
      "chip": "ym2612"
    },
    {
      "channel": 5,
      "note": 44,
      "start": 13.0398,
      "duration": 0.128,
      "velocity": 114,
      "chip": "ym2612"
    },
    {
      "channel": 2,
      "note": 46,
      "start": 13.2346,
      "duration": 0.1489,
      "velocity": 92,
      "chip": "ym2612"
    },
    {
      "channel": 3,
      "note": 51,
      "start": 13.2353,
      "duration": 0.1485,
      "velocity": 99,
      "chip": "ym2612"
    },
    {
      "channel": 2,
      "note": 46,
      "start": 13.4368,
      "duration": 0.1466,
      "velocity": 92,
      "chip": "ym2612"
    },
    {
      "channel": 3,
      "note": 51,
      "start": 13.4376,
      "duration": 0.1462,
      "velocity": 99,
      "chip": "ym2612"
    },
    {
      "channel": 5,
      "note": 87,
      "start": 13.4386,
      "duration": 0.3129,
      "velocity": 120,
      "chip": "ym2612"
    },
    {
      "channel": 0,
      "note": 76,
      "start": 13.6506,
      "duration": 0.0989,
      "velocity": 92,
      "chip": "ym2612"
    },
    {
      "channel": 2,
      "note": 46,
      "start": 13.6516,
      "duration": 0.1485,
      "velocity": 92,
      "chip": "ym2612"
    },
    {
      "channel": 3,
      "note": 51,
      "start": 13.6524,
      "duration": 0.1481,
      "velocity": 99,
      "chip": "ym2612"
    },
    {
      "channel": 4,
      "note": 76,
      "start": 13.718,
      "duration": 0.0989,
      "velocity": 92,
      "chip": "ym2612"
    },
    {
      "channel": 0,
      "note": 75,
      "start": 13.75,
      "duration": 0.102,
      "velocity": 92,
      "chip": "ym2612"
    },
    {
      "channel": 4,
      "note": 75,
      "start": 13.8175,
      "duration": 0.0999,
      "velocity": 92,
      "chip": "ym2612"
    },
    {
      "channel": 0,
      "note": 73,
      "start": 13.8526,
      "duration": 0.7145,
      "velocity": 92,
      "chip": "ym2612"
    },
    {
      "channel": 1,
      "note": 67,
      "start": 13.8533,
      "duration": 0.7141,
      "velocity": 92,
      "chip": "ym2612"
    },
    {
      "channel": 2,
      "note": 46,
      "start": 13.8543,
      "duration": 0.1459,
      "velocity": 92,
      "chip": "ym2612"
    },
    {
      "channel": 3,
      "note": 51,
      "start": 13.8552,
      "duration": 0.1452,
      "velocity": 99,
      "chip": "ym2612"
    },
    {
      "channel": 5,
      "note": 44,
      "start": 13.8564,
      "duration": 0.1281,
      "velocity": 114,
      "chip": "ym2612"
    },
    {
      "channel": 4,
      "note": 73,
      "start": 13.918,
      "duration": 0.7151,
      "velocity": 92,
      "chip": "ym2612"
    },
    {
      "channel": 2,
      "note": 46,
      "start": 14.0516,
      "duration": 0.1485,
      "velocity": 92,
      "chip": "ym2612"
    },
    {
      "channel": 3,
      "note": 51,
      "start": 14.0523,
      "duration": 0.1481,
      "velocity": 99,
      "chip": "ym2612"
    },
    {
      "channel": 2,
      "note": 46,
      "start": 14.2539,
      "duration": 0.1462,
      "velocity": 92,
      "chip": "ym2612"
    },
    {
      "channel": 3,
      "note": 51,
      "start": 14.2546,
      "duration": 0.1459,
      "velocity": 99,
      "chip": "ym2612"
    },
    {
      "channel": 5,
      "note": 87,
      "start": 14.2557,
      "duration": 0.3131,
      "velocity": 120,
      "chip": "ym2612"
    },
    {
      "channel": 2,
      "note": 46,
      "start": 14.4516,
      "duration": 0.1647,
      "velocity": 92,
      "chip": "ym2612"
    },
    {
      "channel": 3,
      "note": 51,
      "start": 14.4523,
      "duration": 0.1643,
      "velocity": 99,
      "chip": "ym2612"
    },
    {
      "channel": 0,
      "note": 68,
      "start": 14.6724,
      "duration": 0.8129,
      "velocity": 106,
      "chip": "ym2612"
    },
    {
      "channel": 1,
      "note": 63,
      "start": 14.6756,
      "duration": 0.1408,
      "velocity": 92,
      "chip": "ym2612"
    },
    {
      "channel": 3,
      "note": 56,
      "start": 14.6792,
      "duration": 0.138,
      "velocity": 99,
      "chip": "ym2612"
    },
    {
      "channel": 5,
      "note": 44,
      "start": 14.6801,
      "duration": 0.1211,
      "velocity": 114,
      "chip": "ym2612"
    },
    {
      "channel": 2,
      "note": 68,
      "start": 14.7176,
      "duration": 0.8159,
      "velocity": 106,
      "chip": "ym2612"
    },
    {
      "channel": 4,
      "note": 68,
      "start": 14.7376,
      "duration": 0.8132,
      "velocity": 106,
      "chip": "ym2612"
    },
    {
      "channel": 1,
      "note": 63,
      "start": 14.8677,
      "duration": 0.1488,
      "velocity": 92,
      "chip": "ym2612"
    },
    {
      "channel": 3,
      "note": 56,
      "start": 14.8688,
      "duration": 0.1485,
      "velocity": 99,
      "chip": "ym2612"
    },
    {
      "channel": 1,
      "note": 63,
      "start": 15.0697,
      "duration": 0.1469,
      "velocity": 92,
      "chip": "ym2612"
    },
    {
      "channel": 3,
      "note": 56,
      "start": 15.0708,
      "duration": 0.1465,
      "velocity": 99,
      "chip": "ym2612"
    },
    {
      "channel": 5,
      "note": 87,
      "start": 15.072,
      "duration": 0.3129,
      "velocity": 120,
      "chip": "ym2612"
    },
    {
      "channel": 1,
      "note": 63,
      "start": 15.2677,
      "duration": 0.1655,
      "velocity": 92,
      "chip": "ym2612"
    },
    {
      "channel": 3,
      "note": 56,
      "start": 15.2688,
      "duration": 0.1651,
      "velocity": 99,
      "chip": "ym2612"
    },
    {
      "channel": 0,
      "note": 70,
      "start": 15.486,
      "duration": 0.8165,
      "velocity": 106,
      "chip": "ym2612"
    },
    {
      "channel": 1,
      "note": 63,
      "start": 15.487,
      "duration": 0.1461,
      "velocity": 92,
      "chip": "ym2612"
    },
    {
      "channel": 3,
      "note": 56,
      "start": 15.4884,
      "duration": 0.1454,
      "velocity": 99,
      "chip": "ym2612"
    },
    {
      "channel": 5,
      "note": 44,
      "start": 15.4898,
      "duration": 0.1281,
      "velocity": 114,
      "chip": "ym2612"
    },
    {
      "channel": 2,
      "note": 70,
      "start": 15.5341,
      "duration": 0.816,
      "velocity": 106,
      "chip": "ym2612"
    },
    {
      "channel": 4,
      "note": 70,
      "start": 15.5515,
      "duration": 0.816,
      "velocity": 106,
      "chip": "ym2612"
    },
    {
      "channel": 1,
      "note": 63,
      "start": 15.6848,
      "duration": 0.1484,
      "velocity": 92,
      "chip": "ym2612"
    },
    {
      "channel": 3,
      "note": 56,
      "start": 15.6858,
      "duration": 0.1482,
      "velocity": 99,
      "chip": "ym2612"
    },
    {
      "channel": 1,
      "note": 63,
      "start": 15.8867,
      "duration": 0.1465,
      "velocity": 92,
      "chip": "ym2612"
    },
    {
      "channel": 3,
      "note": 56,
      "start": 15.8879,
      "duration": 0.1461,
      "velocity": 99,
      "chip": "ym2612"
    },
    {
      "channel": 5,
      "note": 87,
      "start": 15.8891,
      "duration": 0.3134,
      "velocity": 120,
      "chip": "ym2612"
    },
    {
      "channel": 1,
      "note": 63,
      "start": 16.0848,
      "duration": 0.1651,
      "velocity": 92,
      "chip": "ym2612"
    },
    {
      "channel": 3,
      "note": 56,
      "start": 16.0859,
      "duration": 0.1648,
      "velocity": 99,
      "chip": "ym2612"
    },
    {
      "channel": 0,
      "note": 71,
      "start": 16.3031,
      "duration": 0.8155,
      "velocity": 106,
      "chip": "ym2612"
    },
    {
      "channel": 1,
      "note": 63,
      "start": 16.3041,
      "duration": 0.1457,
      "velocity": 92,
      "chip": "ym2612"
    },
    {
      "channel": 3,
      "note": 56,
      "start": 16.3056,
      "duration": 0.1449,
      "velocity": 99,
      "chip": "ym2612"
    },
    {
      "channel": 5,
      "note": 44,
      "start": 16.3069,
      "duration": 0.1277,
      "velocity": 114,
      "chip": "ym2612"
    },
    {
      "channel": 2,
      "note": 71,
      "start": 16.3508,
      "duration": 0.816,
      "velocity": 106,
      "chip": "ym2612"
    },
    {
      "channel": 4,
      "note": 71,
      "start": 16.3681,
      "duration": 0.816,
      "velocity": 106,
      "chip": "ym2612"
    },
    {
      "channel": 1,
      "note": 63,
      "start": 16.501,
      "duration": 0.1488,
      "velocity": 92,
      "chip": "ym2612"
    },
    {
      "channel": 3,
      "note": 56,
      "start": 16.5021,
      "duration": 0.1485,
      "velocity": 99,
      "chip": "ym2612"
    },
    {
      "channel": 1,
      "note": 63,
      "start": 16.703,
      "duration": 0.1469,
      "velocity": 92,
      "chip": "ym2612"
    },
    {
      "channel": 3,
      "note": 56,
      "start": 16.7041,
      "duration": 0.1465,
      "velocity": 99,
      "chip": "ym2612"
    },
    {
      "channel": 5,
      "note": 87,
      "start": 16.7054,
      "duration": 0.2962,
      "velocity": 120,
      "chip": "ym2612"
    },
    {
      "channel": 1,
      "note": 63,
      "start": 16.901,
      "duration": 0.1655,
      "velocity": 92,
      "chip": "ym2612"
    },
    {
      "channel": 3,
      "note": 56,
      "start": 16.9022,
      "duration": 0.1651,
      "velocity": 99,
      "chip": "ym2612"
    },
    {
      "channel": 0,
      "note": 73,
      "start": 17.1193,
      "duration": 0.8165,
      "velocity": 106,
      "chip": "ym2612"
    },
    {
      "channel": 1,
      "note": 63,
      "start": 17.1203,
      "duration": 0.1461,
      "velocity": 92,
      "chip": "ym2612"
    },
    {
      "channel": 3,
      "note": 56,
      "start": 17.1218,
      "duration": 0.1454,
      "velocity": 99,
      "chip": "ym2612"
    },
    {
      "channel": 5,
      "note": 44,
      "start": 17.1231,
      "duration": 0.1281,
      "velocity": 114,
      "chip": "ym2612"
    },
    {
      "channel": 2,
      "note": 73,
      "start": 17.1674,
      "duration": 0.816,
      "velocity": 106,
      "chip": "ym2612"
    },
    {
      "channel": 4,
      "note": 73,
      "start": 17.1848,
      "duration": 0.816,
      "velocity": 106,
      "chip": "ym2612"
    },
    {
      "channel": 1,
      "note": 63,
      "start": 17.3181,
      "duration": 0.1485,
      "velocity": 92,
      "chip": "ym2612"
    },
    {
      "channel": 3,
      "note": 56,
      "start": 17.3192,
      "duration": 0.1482,
      "velocity": 99,
      "chip": "ym2612"
    },
    {
      "channel": 1,
      "note": 63,
      "start": 17.52,
      "duration": 0.1465,
      "velocity": 92,
      "chip": "ym2612"
    },
    {
      "channel": 3,
      "note": 56,
      "start": 17.5212,
      "duration": 0.1461,
      "velocity": 99,
      "chip": "ym2612"
    },
    {
      "channel": 5,
      "note": 87,
      "start": 17.5224,
      "duration": 0.2968,
      "velocity": 120,
      "chip": "ym2612"
    },
    {
      "channel": 1,
      "note": 63,
      "start": 17.7181,
      "duration": 0.1485,
      "velocity": 92,
      "chip": "ym2612"
    },
    {
      "channel": 3,
      "note": 56,
      "start": 17.7192,
      "duration": 0.1482,
      "velocity": 99,
      "chip": "ym2612"
    },
    {
      "channel": 0,
      "note": 75,
      "start": 17.9365,
      "duration": 1.4139,
      "velocity": 106,
      "chip": "ym2612"
    },
    {
      "channel": 1,
      "note": 59,
      "start": 17.9374,
      "duration": 0.1457,
      "velocity": 92,
      "chip": "ym2612"
    },
    {
      "channel": 3,
      "note": 54,
      "start": 17.9389,
      "duration": 0.1449,
      "velocity": 99,
      "chip": "ym2612"
    },
    {
      "channel": 5,
      "note": 44,
      "start": 17.9402,
      "duration": 0.1277,
      "velocity": 114,
      "chip": "ym2612"
    },
    {
      "channel": 2,
      "note": 75,
      "start": 17.9841,
      "duration": 1.416,
      "velocity": 106,
      "chip": "ym2612"
    },
    {
      "channel": 4,
      "note": 75,
      "start": 18.0015,
      "duration": 1.416,
      "velocity": 106,
      "chip": "ym2612"
    },
    {
      "channel": 1,
      "note": 59,
      "start": 18.1344,
      "duration": 0.1488,
      "velocity": 92,
      "chip": "ym2612"
    },
    {
      "channel": 3,
      "note": 54,
      "start": 18.1354,
      "duration": 0.1485,
      "velocity": 99,
      "chip": "ym2612"
    },
    {
      "channel": 1,
      "note": 59,
      "start": 18.3363,
      "duration": 0.1469,
      "velocity": 92,
      "chip": "ym2612"
    },
    {
      "channel": 3,
      "note": 54,
      "start": 18.3375,
      "duration": 0.1465,
      "velocity": 99,
      "chip": "ym2612"
    },
    {
      "channel": 5,
      "note": 87,
      "start": 18.3387,
      "duration": 0.2962,
      "velocity": 120,
      "chip": "ym2612"
    },
    {
      "channel": 1,
      "note": 59,
      "start": 18.5344,
      "duration": 0.1488,
      "velocity": 92,
      "chip": "ym2612"
    },
    {
      "channel": 3,
      "note": 54,
      "start": 18.5355,
      "duration": 0.1485,
      "velocity": 99,
      "chip": "ym2612"
    },
    {
      "channel": 1,
      "note": 59,
      "start": 18.7367,
      "duration": 0.1632,
      "velocity": 92,
      "chip": "ym2612"
    },
    {
      "channel": 3,
      "note": 54,
      "start": 18.7381,
      "duration": 0.1625,
      "velocity": 99,
      "chip": "ym2612"
    },
    {
      "channel": 5,
      "note": 44,
      "start": 18.7394,
      "duration": 0.1455,
      "velocity": 114,
      "chip": "ym2612"
    },
    {
      "channel": 1,
      "note": 59,
      "start": 18.9514,
      "duration": 0.1485,
      "velocity": 92,
      "chip": "ym2612"
    },
    {
      "channel": 3,
      "note": 54,
      "start": 18.9526,
      "duration": 0.1482,
      "velocity": 99,
      "chip": "ym2612"
    },
    {
      "channel": 1,
      "note": 59,
      "start": 19.1534,
      "duration": 0.1466,
      "velocity": 92,
      "chip": "ym2612"
    },
    {
      "channel": 3,
      "note": 54,
      "start": 19.1545,
      "duration": 0.1462,
      "velocity": 99,
      "chip": "ym2612"
    },
    {
      "channel": 5,
      "note": 87,
      "start": 19.1557,
      "duration": 0.2969,
      "velocity": 120,
      "chip": "ym2612"
    },
    {
      "channel": 0,
      "note": 76,
      "start": 19.351,
      "duration": 0.0994,
      "velocity": 106,
      "chip": "ym2612"
    },
    {
      "channel": 1,
      "note": 59,
      "start": 19.3518,
      "duration": 0.148,
      "velocity": 92,
      "chip": "ym2612"
    },
    {
      "channel": 3,
      "note": 54,
      "start": 19.353,
      "duration": 0.1479,
      "velocity": 99,
      "chip": "ym2612"
    },
    {
      "channel": 2,
      "note": 76,
      "start": 19.4008,
      "duration": 0.0993,
      "velocity": 106,
      "chip": "ym2612"
    },
    {
      "channel": 4,
      "note": 76,
      "start": 19.4181,
      "duration": 0.0988,
      "velocity": 106,
      "chip": "ym2612"
    },
    {
      "channel": 0,
      "note": 78,
      "start": 19.451,
      "duration": 0.1014,
      "velocity": 106,
      "chip": "ym2612"
    },
    {
      "channel": 2,
      "note": 78,
      "start": 19.5008,
      "duration": 0.116,
      "velocity": 106,
      "chip": "ym2612"
    },
    {
      "channel": 4,
      "note": 78,
      "start": 19.5176,
      "duration": 0.1165,
      "velocity": 106,
      "chip": "ym2612"
    },
    {
      "channel": 0,
      "note": 75,
      "start": 19.5531,
      "duration": 1.4306,
      "velocity": 106,
      "chip": "ym2612"
    },
    {
      "channel": 1,
      "note": 59,
      "start": 19.5541,
      "duration": 0.1623,
      "velocity": 92,
      "chip": "ym2612"
    },
    {
      "channel": 3,
      "note": 54,
      "start": 19.5555,
      "duration": 0.1616,
      "velocity": 99,
      "chip": "ym2612"
    },
    {
      "channel": 5,
      "note": 44,
      "start": 19.5566,
      "duration": 0.1446,
      "velocity": 114,
      "chip": "ym2612"
    },
    {
      "channel": 2,
      "note": 75,
      "start": 19.6174,
      "duration": 1.416,
      "velocity": 106,
      "chip": "ym2612"
    },
    {
      "channel": 4,
      "note": 75,
      "start": 19.6348,
      "duration": 1.416,
      "velocity": 106,
      "chip": "ym2612"
    },
    {
      "channel": 1,
      "note": 59,
      "start": 19.7677,
      "duration": 0.1489,
      "velocity": 92,
      "chip": "ym2612"
    },
    {
      "channel": 3,
      "note": 54,
      "start": 19.7687,
      "duration": 0.1487,
      "velocity": 99,
      "chip": "ym2612"
    },
    {
      "channel": 1,
      "note": 59,
      "start": 19.9697,
      "duration": 0.1469,
      "velocity": 92,
      "chip": "ym2612"
    },
    {
      "channel": 3,
      "note": 54,
      "start": 19.9708,
      "duration": 0.1465,
      "velocity": 99,
      "chip": "ym2612"
    },
    {
      "channel": 5,
      "note": 87,
      "start": 19.972,
      "duration": 0.2962,
      "velocity": 120,
      "chip": "ym2612"
    },
    {
      "channel": 1,
      "note": 59,
      "start": 20.1677,
      "duration": 0.1488,
      "velocity": 92,
      "chip": "ym2612"
    },
    {
      "channel": 3,
      "note": 54,
      "start": 20.1688,
      "duration": 0.1485,
      "velocity": 99,
      "chip": "ym2612"
    },
    {
      "channel": 1,
      "note": 59,
      "start": 20.37,
      "duration": 0.1632,
      "velocity": 92,
      "chip": "ym2612"
    },
    {
      "channel": 3,
      "note": 54,
      "start": 20.3715,
      "duration": 0.1625,
      "velocity": 99,
      "chip": "ym2612"
    },
    {
      "channel": 5,
      "note": 44,
      "start": 20.3727,
      "duration": 0.1455,
      "velocity": 114,
      "chip": "ym2612"
    },
    {
      "channel": 1,
      "note": 59,
      "start": 20.5848,
      "duration": 0.1485,
      "velocity": 92,
      "chip": "ym2612"
    },
    {
      "channel": 3,
      "note": 54,
      "start": 20.5859,
      "duration": 0.1482,
      "velocity": 99,
      "chip": "ym2612"
    },
    {
      "channel": 1,
      "note": 59,
      "start": 20.7867,
      "duration": 0.1465,
      "velocity": 92,
      "chip": "ym2612"
    },
    {
      "channel": 3,
      "note": 54,
      "start": 20.7879,
      "duration": 0.1461,
      "velocity": 99,
      "chip": "ym2612"
    },
    {
      "channel": 5,
      "note": 87,
      "start": 20.7891,
      "duration": 0.2969,
      "velocity": 120,
      "chip": "ym2612"
    },
    {
      "channel": 0,
      "note": 73,
      "start": 20.9844,
      "duration": 0.0994,
      "velocity": 106,
      "chip": "ym2612"
    },
    {
      "channel": 1,
      "note": 59,
      "start": 20.9851,
      "duration": 0.148,
      "velocity": 92,
      "chip": "ym2612"
    },
    {
      "channel": 3,
      "note": 54,
      "start": 20.9863,
      "duration": 0.1479,
      "velocity": 99,
      "chip": "ym2612"
    },
    {
      "channel": 2,
      "note": 73,
      "start": 21.0341,
      "duration": 0.0993,
      "velocity": 106,
      "chip": "ym2612"
    },
    {
      "channel": 4,
      "note": 73,
      "start": 21.0515,
      "duration": 0.0988,
      "velocity": 106,
      "chip": "ym2612"
    },
    {
      "channel": 0,
      "note": 71,
      "start": 21.0844,
      "duration": 0.1014,
      "velocity": 106,
      "chip": "ym2612"
    },
    {
      "channel": 2,
      "note": 71,
      "start": 21.1341,
      "duration": 0.0994,
      "velocity": 106,
      "chip": "ym2612"
    },
    {
      "channel": 4,
      "note": 71,
      "start": 21.151,
      "duration": 0.0998,
      "velocity": 106,
      "chip": "ym2612"
    },
    {
      "channel": 0,
      "note": 73,
      "start": 21.1865,
      "duration": 1.4306,
      "velocity": 106,
      "chip": "ym2612"
    },
    {
      "channel": 1,
      "note": 61,
      "start": 21.1874,
      "duration": 0.1624,
      "velocity": 92,
      "chip": "ym2612"
    },
    {
      "channel": 3,
      "note": 52,
      "start": 21.1888,
      "duration": 0.1617,
      "velocity": 99,
      "chip": "ym2612"
    },
    {
      "channel": 5,
      "note": 44,
      "start": 21.19,
      "duration": 0.1446,
      "velocity": 114,
      "chip": "ym2612"
    },
    {
      "channel": 2,
      "note": 73,
      "start": 21.2341,
      "duration": 1.4327,
      "velocity": 106,
      "chip": "ym2612"
    },
    {
      "channel": 4,
      "note": 73,
      "start": 21.2515,
      "duration": 1.4326,
      "velocity": 106,
      "chip": "ym2612"
    },
    {
      "channel": 1,
      "note": 61,
      "start": 21.401,
      "duration": 0.1489,
      "velocity": 92,
      "chip": "ym2612"
    },
    {
      "channel": 3,
      "note": 52,
      "start": 21.4021,
      "duration": 0.1487,
      "velocity": 99,
      "chip": "ym2612"
    },
    {
      "channel": 1,
      "note": 61,
      "start": 21.603,
      "duration": 0.1469,
      "velocity": 92,
      "chip": "ym2612"
    },
    {
      "channel": 3,
      "note": 52,
      "start": 21.6042,
      "duration": 0.1464,
      "velocity": 99,
      "chip": "ym2612"
    },
    {
      "channel": 5,
      "note": 87,
      "start": 21.6054,
      "duration": 0.2961,
      "velocity": 120,
      "chip": "ym2612"
    },
    {
      "channel": 1,
      "note": 61,
      "start": 21.801,
      "duration": 0.1488,
      "velocity": 92,
      "chip": "ym2612"
    },
    {
      "channel": 3,
      "note": 52,
      "start": 21.8022,
      "duration": 0.1485,
      "velocity": 99,
      "chip": "ym2612"
    },
    {
      "channel": 1,
      "note": 61,
      "start": 22.0033,
      "duration": 0.1466,
      "velocity": 92,
      "chip": "ym2612"
    },
    {
      "channel": 3,
      "note": 52,
      "start": 22.0048,
      "duration": 0.1459,
      "velocity": 99,
      "chip": "ym2612"
    },
    {
      "channel": 5,
      "note": 44,
      "start": 22.0061,
      "duration": 0.1288,
      "velocity": 114,
      "chip": "ym2612"
    },
    {
      "channel": 1,
      "note": 61,
      "start": 22.2181,
      "duration": 0.1485,
      "velocity": 92,
      "chip": "ym2612"
    },
    {
      "channel": 3,
      "note": 52,
      "start": 22.2192,
      "duration": 0.1481,
      "velocity": 99,
      "chip": "ym2612"
    },
    {
      "channel": 1,
      "note": 61,
      "start": 22.42,
      "duration": 0.1465,
      "velocity": 92,
      "chip": "ym2612"
    },
    {
      "channel": 3,
      "note": 52,
      "start": 22.4212,
      "duration": 0.1461,
      "velocity": 99,
      "chip": "ym2612"
    },
    {
      "channel": 5,
      "note": 87,
      "start": 22.4224,
      "duration": 0.2964,
      "velocity": 120,
      "chip": "ym2612"
    },
    {
      "channel": 0,
      "note": 68,
      "start": 22.6177,
      "duration": 0.1484,
      "velocity": 106,
      "chip": "ym2612"
    },
    {
      "channel": 1,
      "note": 61,
      "start": 22.6184,
      "duration": 0.148,
      "velocity": 92,
      "chip": "ym2612"
    },
    {
      "channel": 3,
      "note": 52,
      "start": 22.6195,
      "duration": 0.1476,
      "velocity": 99,
      "chip": "ym2612"
    },
    {
      "channel": 2,
      "note": 68,
      "start": 22.6674,
      "duration": 0.1535,
      "velocity": 106,
      "chip": "ym2612"
    },
    {
      "channel": 4,
      "note": 68,
      "start": 22.6848,
      "duration": 0.149,
      "velocity": 106,
      "chip": "ym2612"
    },
    {
      "channel": 0,
      "note": 68,
      "start": 22.8197,
      "duration": 1.3797,
      "velocity": 106,
      "chip": "ym2612"
    },
    {
      "channel": 1,
      "note": 61,
      "start": 22.8207,
      "duration": 0.1457,
      "velocity": 92,
      "chip": "ym2612"
    },
    {
      "channel": 3,
      "note": 52,
      "start": 22.8221,
      "duration": 0.145,
      "velocity": 99,
      "chip": "ym2612"
    },
    {
      "channel": 5,
      "note": 44,
      "start": 22.8233,
      "duration": 0.1279,
      "velocity": 114,
      "chip": "ym2612"
    },
    {
      "channel": 2,
      "note": 68,
      "start": 22.8674,
      "duration": 1.3845,
      "velocity": 106,
      "chip": "ym2612"
    },
    {
      "channel": 4,
      "note": 68,
      "start": 22.8848,
      "duration": 1.3824,
      "velocity": 106,
      "chip": "ym2612"
    },
    {
      "channel": 1,
      "note": 61,
      "start": 23.0344,
      "duration": 0.1489,
      "velocity": 92,
      "chip": "ym2612"
    },
    {
      "channel": 3,
      "note": 52,
      "start": 23.0354,
      "duration": 0.1487,
      "velocity": 99,
      "chip": "ym2612"
    },
    {
      "channel": 1,
      "note": 61,
      "start": 23.2363,
      "duration": 0.1469,
      "velocity": 92,
      "chip": "ym2612"
    },
    {
      "channel": 3,
      "note": 52,
      "start": 23.2376,
      "duration": 0.1464,
      "velocity": 99,
      "chip": "ym2612"
    },
    {
      "channel": 5,
      "note": 87,
      "start": 23.2388,
      "duration": 0.2961,
      "velocity": 120,
      "chip": "ym2612"
    },
    {
      "channel": 1,
      "note": 61,
      "start": 23.4344,
      "duration": 0.1488,
      "velocity": 92,
      "chip": "ym2612"
    },
    {
      "channel": 3,
      "note": 52,
      "start": 23.4355,
      "duration": 0.1485,
      "velocity": 99,
      "chip": "ym2612"
    },
    {
      "channel": 1,
      "note": 61,
      "start": 23.6367,
      "duration": 0.1466,
      "velocity": 92,
      "chip": "ym2612"
    },
    {
      "channel": 3,
      "note": 52,
      "start": 23.6381,
      "duration": 0.1459,
      "velocity": 99,
      "chip": "ym2612"
    },
    {
      "channel": 5,
      "note": 44,
      "start": 23.6394,
      "duration": 0.1288,
      "velocity": 114,
      "chip": "ym2612"
    },
    {
      "channel": 1,
      "note": 61,
      "start": 23.8348,
      "duration": 0.1651,
      "velocity": 92,
      "chip": "ym2612"
    },
    {
      "channel": 3,
      "note": 52,
      "start": 23.8359,
      "duration": 0.1648,
      "velocity": 99,
      "chip": "ym2612"
    },
    {
      "channel": 1,
      "note": 61,
      "start": 24.0534,
      "duration": 0.1464,
      "velocity": 92,
      "chip": "ym2612"
    },
    {
      "channel": 3,
      "note": 52,
      "start": 24.0545,
      "duration": 0.146,
      "velocity": 99,
      "chip": "ym2612"
    },
    {
      "channel": 5,
      "note": 87,
      "start": 24.0557,
      "duration": 0.2969,
      "velocity": 120,
      "chip": "ym2612"
    },
    {
      "channel": 0,
      "note": 71,
      "start": 24.251,
      "duration": 1.6327,
      "velocity": 106,
      "chip": "ym2612"
    },
    {
      "channel": 1,
      "note": 61,
      "start": 24.2518,
      "duration": 0.148,
      "velocity": 92,
      "chip": "ym2612"
    },
    {
      "channel": 3,
      "note": 52,
      "start": 24.2528,
      "duration": 0.1476,
      "velocity": 99,
      "chip": "ym2612"
    },
    {
      "channel": 2,
      "note": 68,
      "start": 24.3008,
      "duration": 0.0503,
      "velocity": 106,
      "chip": "ym2612"
    },
    {
      "channel": 4,
      "note": 71,
      "start": 24.3181,
      "duration": 1.6327,
      "velocity": 106,
      "chip": "ym2612"
    },
    {
      "channel": 2,
      "note": 71,
      "start": 24.3517,
      "duration": 1.5817,
      "velocity": 106,
      "chip": "ym2612"
    },
    {
      "channel": 1,
      "note": 56,
      "start": 24.4538,
      "duration": 0.1461,
      "velocity": 92,
      "chip": "ym2612"
    },
    {
      "channel": 3,
      "note": 51,
      "start": 24.4551,
      "duration": 0.1456,
      "velocity": 99,
      "chip": "ym2612"
    },
    {
      "channel": 5,
      "note": 44,
      "start": 24.4563,
      "duration": 0.1285,
      "velocity": 114,
      "chip": "ym2612"
    },
    {
      "channel": 1,
      "note": 56,
      "start": 24.651,
      "duration": 0.1655,
      "velocity": 92,
      "chip": "ym2612"
    },
    {
      "channel": 3,
      "note": 51,
      "start": 24.6522,
      "duration": 0.1651,
      "velocity": 99,
      "chip": "ym2612"
    },
    {
      "channel": 1,
      "note": 56,
      "start": 24.87,
      "duration": 0.1466,
      "velocity": 92,
      "chip": "ym2612"
    },
    {
      "channel": 3,
      "note": 51,
      "start": 24.8711,
      "duration": 0.1462,
      "velocity": 99,
      "chip": "ym2612"
    },
    {
      "channel": 5,
      "note": 87,
      "start": 24.8723,
      "duration": 0.2959,
      "velocity": 120,
      "chip": "ym2612"
    },
    {
      "channel": 1,
      "note": 56,
      "start": 25.0677,
      "duration": 0.1488,
      "velocity": 92,
      "chip": "ym2612"
    },
    {
      "channel": 3,
      "note": 51,
      "start": 25.0688,
      "duration": 0.1485,
      "velocity": 99,
      "chip": "ym2612"
    },
    {
      "channel": 1,
      "note": 56,
      "start": 25.27,
      "duration": 0.1466,
      "velocity": 92,
      "chip": "ym2612"
    },
    {
      "channel": 3,
      "note": 51,
      "start": 25.2714,
      "duration": 0.1459,
      "velocity": 99,
      "chip": "ym2612"
    },
    {
      "channel": 5,
      "note": 44,
      "start": 25.2727,
      "duration": 0.1288,
      "velocity": 114,
      "chip": "ym2612"
    },
    {
      "channel": 1,
      "note": 56,
      "start": 25.4681,
      "duration": 0.1651,
      "velocity": 92,
      "chip": "ym2612"
    },
    {
      "channel": 3,
      "note": 51,
      "start": 25.4692,
      "duration": 0.1648,
      "velocity": 99,
      "chip": "ym2612"
    },
    {
      "channel": 1,
      "note": 56,
      "start": 25.6871,
      "duration": 0.1462,
      "velocity": 92,
      "chip": "ym2612"
    },
    {
      "channel": 3,
      "note": 51,
      "start": 25.6882,
      "duration": 0.1458,
      "velocity": 99,
      "chip": "ym2612"
    },
    {
      "channel": 5,
      "note": 87,
      "start": 25.6894,
      "duration": 0.2961,
      "velocity": 120,
      "chip": "ym2612"
    },
    {
      "channel": 0,
      "note": 70,
      "start": 25.8844,
      "duration": 0.1484,
      "velocity": 106,
      "chip": "ym2612"
    },
    {
      "channel": 1,
      "note": 56,
      "start": 25.8851,
      "duration": 0.148,
      "velocity": 92,
      "chip": "ym2612"
    },
    {
      "channel": 3,
      "note": 51,
      "start": 25.8863,
      "duration": 0.1475,
      "velocity": 99,
      "chip": "ym2612"
    },
    {
      "channel": 2,
      "note": 70,
      "start": 25.9341,
      "duration": 0.1534,
      "velocity": 106,
      "chip": "ym2612"
    },
    {
      "channel": 4,
      "note": 70,
      "start": 25.9515,
      "duration": 0.149,
      "velocity": 106,
      "chip": "ym2612"
    },
    {
      "channel": 0,
      "note": 70,
      "start": 26.0865,
      "duration": 1.5306,
      "velocity": 106,
      "chip": "ym2612"
    },
    {
      "channel": 1,
      "note": 55,
      "start": 26.0874,
      "duration": 0.1457,
      "velocity": 92,
      "chip": "ym2612"
    },
    {
      "channel": 3,
      "note": 51,
      "start": 26.0888,
      "duration": 0.145,
      "velocity": 99,
      "chip": "ym2612"
    },
    {
      "channel": 5,
      "note": 44,
      "start": 26.0899,
      "duration": 0.128,
      "velocity": 114,
      "chip": "ym2612"
    },
    {
      "channel": 2,
      "note": 70,
      "start": 26.1341,
      "duration": 1.5325,
      "velocity": 106,
      "chip": "ym2612"
    },
    {
      "channel": 4,
      "note": 70,
      "start": 26.1515,
      "duration": 1.5316,
      "velocity": 106,
      "chip": "ym2612"
    },
    {
      "channel": 1,
      "note": 55,
      "start": 26.2844,
      "duration": 0.1656,
      "velocity": 92,
      "chip": "ym2612"
    },
    {
      "channel": 3,
      "note": 51,
      "start": 26.2854,
      "duration": 0.1653,
      "velocity": 99,
      "chip": "ym2612"
    },
    {
      "channel": 1,
      "note": 55,
      "start": 26.5033,
      "duration": 0.1466,
      "velocity": 92,
      "chip": "ym2612"
    },
    {
      "channel": 3,
      "note": 51,
      "start": 26.5045,
      "duration": 0.1462,
      "velocity": 99,
      "chip": "ym2612"
    },
    {
      "channel": 5,
      "note": 87,
      "start": 26.5057,
      "duration": 0.2959,
      "velocity": 120,
      "chip": "ym2612"
    },
    {
      "channel": 1,
      "note": 55,
      "start": 26.701,
      "duration": 0.1488,
      "velocity": 92,
      "chip": "ym2612"
    },
    {
      "channel": 3,
      "note": 51,
      "start": 26.7022,
      "duration": 0.1485,
      "velocity": 99,
      "chip": "ym2612"
    },
    {
      "channel": 1,
      "note": 55,
      "start": 26.9033,
      "duration": 0.1466,
      "velocity": 92,
      "chip": "ym2612"
    },
    {
      "channel": 3,
      "note": 51,
      "start": 26.9047,
      "duration": 0.1459,
      "velocity": 99,
      "chip": "ym2612"
    },
    {
      "channel": 5,
      "note": 44,
      "start": 26.9061,
      "duration": 0.1288,
      "velocity": 114,
      "chip": "ym2612"
    },
    {
      "channel": 1,
      "note": 55,
      "start": 27.1014,
      "duration": 0.1485,
      "velocity": 92,
      "chip": "ym2612"
    },
    {
      "channel": 3,
      "note": 51,
      "start": 27.1026,
      "duration": 0.1482,
      "velocity": 99,
      "chip": "ym2612"
    },
    {
      "channel": 1,
      "note": 55,
      "start": 27.3204,
      "duration": 0.1462,
      "velocity": 92,
      "chip": "ym2612"
    },
    {
      "channel": 3,
      "note": 51,
      "start": 27.3215,
      "duration": 0.1458,
      "velocity": 99,
      "chip": "ym2612"
    },
    {
      "channel": 5,
      "note": 87,
      "start": 27.3227,
      "duration": 0.2963,
      "velocity": 120,
      "chip": "ym2612"
    },
    {
      "channel": 1,
      "note": 55,
      "start": 27.5181,
      "duration": 0.1481,
      "velocity": 92,
      "chip": "ym2612"
    },
    {
      "channel": 3,
      "note": 51,
      "start": 27.5192,
      "duration": 0.1477,
      "velocity": 99,
      "chip": "ym2612"
    },
    {
      "channel": 0,
      "note": 68,
      "start": 27.72,
      "duration": 0.8153,
      "velocity": 106,
      "chip": "ym2612"
    },
    {
      "channel": 1,
      "note": 63,
      "start": 27.7211,
      "duration": 0.1453,
      "velocity": 92,
      "chip": "ym2612"
    },
    {
      "channel": 3,
      "note": 56,
      "start": 27.7223,
      "duration": 0.1448,
      "velocity": 99,
      "chip": "ym2612"
    },
    {
      "channel": 5,
      "note": 44,
      "start": 27.7232,
      "duration": 0.128,
      "velocity": 114,
      "chip": "ym2612"
    },
    {
      "channel": 2,
      "note": 68,
      "start": 27.7675,
      "duration": 0.816,
      "velocity": 106,
      "chip": "ym2612"
    },
    {
      "channel": 4,
      "note": 68,
      "start": 27.7851,
      "duration": 0.8157,
      "velocity": 106,
      "chip": "ym2612"
    },
    {
      "channel": 1,
      "note": 63,
      "start": 27.9177,
      "duration": 0.1488,
      "velocity": 92,
      "chip": "ym2612"
    },
    {
      "channel": 3,
      "note": 56,
      "start": 27.9188,
      "duration": 0.1485,
      "velocity": 99,
      "chip": "ym2612"
    },
    {
      "channel": 1,
      "note": 63,
      "start": 28.1197,
      "duration": 0.1635,
      "velocity": 92,
      "chip": "ym2612"
    },
    {
      "channel": 3,
      "note": 56,
      "start": 28.1208,
      "duration": 0.1632,
      "velocity": 99,
      "chip": "ym2612"
    },
    {
      "channel": 5,
      "note": 87,
      "start": 28.122,
      "duration": 0.3129,
      "velocity": 120,
      "chip": "ym2612"
    },
    {
      "channel": 1,
      "note": 63,
      "start": 28.3344,
      "duration": 0.1488,
      "velocity": 92,
      "chip": "ym2612"
    },
    {
      "channel": 3,
      "note": 56,
      "start": 28.3355,
      "duration": 0.1485,
      "velocity": 99,
      "chip": "ym2612"
    },
    {
      "channel": 0,
      "note": 70,
      "start": 28.536,
      "duration": 0.8165,
      "velocity": 106,
      "chip": "ym2612"
    },
    {
      "channel": 1,
      "note": 63,
      "start": 28.537,
      "duration": 0.1461,
      "velocity": 92,
      "chip": "ym2612"
    },
    {
      "channel": 3,
      "note": 56,
      "start": 28.5384,
      "duration": 0.1454,
      "velocity": 99,
      "chip": "ym2612"
    },
    {
      "channel": 5,
      "note": 44,
      "start": 28.5398,
      "duration": 0.1281,
      "velocity": 114,
      "chip": "ym2612"
    },
    {
      "channel": 2,
      "note": 70,
      "start": 28.5841,
      "duration": 0.816,
      "velocity": 106,
      "chip": "ym2612"
    },
    {
      "channel": 4,
      "note": 70,
      "start": 28.6015,
      "duration": 0.816,
      "velocity": 106,
      "chip": "ym2612"
    },
    {
      "channel": 1,
      "note": 63,
      "start": 28.7348,
      "duration": 0.1484,
      "velocity": 92,
      "chip": "ym2612"
    },
    {
      "channel": 3,
      "note": 56,
      "start": 28.7358,
      "duration": 0.1482,
      "velocity": 99,
      "chip": "ym2612"
    },
    {
      "channel": 1,
      "note": 63,
      "start": 28.9367,
      "duration": 0.1632,
      "velocity": 92,
      "chip": "ym2612"
    },
    {
      "channel": 3,
      "note": 56,
      "start": 28.9379,
      "duration": 0.1628,
      "velocity": 99,
      "chip": "ym2612"
    },
    {
      "channel": 5,
      "note": 87,
      "start": 28.9391,
      "duration": 0.3134,
      "velocity": 120,
      "chip": "ym2612"
    },
    {
      "channel": 1,
      "note": 63,
      "start": 29.1514,
      "duration": 0.1485,
      "velocity": 92,
      "chip": "ym2612"
    },
    {
      "channel": 3,
      "note": 56,
      "start": 29.1526,
      "duration": 0.1481,
      "velocity": 99,
      "chip": "ym2612"
    },
    {
      "channel": 0,
      "note": 71,
      "start": 29.3531,
      "duration": 0.8155,
      "velocity": 106,
      "chip": "ym2612"
    },
    {
      "channel": 1,
      "note": 63,
      "start": 29.3541,
      "duration": 0.1457,
      "velocity": 92,
      "chip": "ym2612"
    },
    {
      "channel": 3,
      "note": 56,
      "start": 29.3556,
      "duration": 0.1449,
      "velocity": 99,
      "chip": "ym2612"
    },
    {
      "channel": 5,
      "note": 44,
      "start": 29.3569,
      "duration": 0.1277,
      "velocity": 114,
      "chip": "ym2612"
    },
    {
      "channel": 2,
      "note": 71,
      "start": 29.4008,
      "duration": 0.816,
      "velocity": 106,
      "chip": "ym2612"
    },
    {
      "channel": 4,
      "note": 71,
      "start": 29.4181,
      "duration": 0.816,
      "velocity": 106,
      "chip": "ym2612"
    },
    {
      "channel": 1,
      "note": 63,
      "start": 29.551,
      "duration": 0.1488,
      "velocity": 92,
      "chip": "ym2612"
    },
    {
      "channel": 3,
      "note": 56,
      "start": 29.5521,
      "duration": 0.1485,
      "velocity": 99,
      "chip": "ym2612"
    },
    {
      "channel": 1,
      "note": 63,
      "start": 29.753,
      "duration": 0.1635,
      "velocity": 92,
      "chip": "ym2612"
    },
    {
      "channel": 3,
      "note": 56,
      "start": 29.7541,
      "duration": 0.1632,
      "velocity": 99,
      "chip": "ym2612"
    },
    {
      "channel": 5,
      "note": 87,
      "start": 29.7554,
      "duration": 0.3129,
      "velocity": 120,
      "chip": "ym2612"
    },
    {
      "channel": 1,
      "note": 63,
      "start": 29.9677,
      "duration": 0.1488,
      "velocity": 92,
      "chip": "ym2612"
    },
    {
      "channel": 3,
      "note": 56,
      "start": 29.9688,
      "duration": 0.1485,
      "velocity": 99,
      "chip": "ym2612"
    },
    {
      "channel": 0,
      "note": 73,
      "start": 30.1693,
      "duration": 0.8165,
      "velocity": 106,
      "chip": "ym2612"
    },
    {
      "channel": 1,
      "note": 63,
      "start": 30.1703,
      "duration": 0.1461,
      "velocity": 92,
      "chip": "ym2612"
    },
    {
      "channel": 3,
      "note": 56,
      "start": 30.1718,
      "duration": 0.1454,
      "velocity": 99,
      "chip": "ym2612"
    },
    {
      "channel": 5,
      "note": 44,
      "start": 30.1731,
      "duration": 0.1281,
      "velocity": 114,
      "chip": "ym2612"
    },
    {
      "channel": 2,
      "note": 73,
      "start": 30.2174,
      "duration": 0.816,
      "velocity": 106,
      "chip": "ym2612"
    },
    {
      "channel": 4,
      "note": 73,
      "start": 30.2348,
      "duration": 0.816,
      "velocity": 106,
      "chip": "ym2612"
    },
    {
      "channel": 1,
      "note": 63,
      "start": 30.3681,
      "duration": 0.1484,
      "velocity": 92,
      "chip": "ym2612"
    },
    {
      "channel": 3,
      "note": 56,
      "start": 30.3692,
      "duration": 0.1482,
      "velocity": 99,
      "chip": "ym2612"
    },
    {
      "channel": 1,
      "note": 63,
      "start": 30.57,
      "duration": 0.1632,
      "velocity": 92,
      "chip": "ym2612"
    },
    {
      "channel": 3,
      "note": 56,
      "start": 30.5712,
      "duration": 0.1628,
      "velocity": 99,
      "chip": "ym2612"
    },
    {
      "channel": 5,
      "note": 87,
      "start": 30.5724,
      "duration": 0.3134,
      "velocity": 120,
      "chip": "ym2612"
    },
    {
      "channel": 1,
      "note": 63,
      "start": 30.7848,
      "duration": 0.1485,
      "velocity": 92,
      "chip": "ym2612"
    },
    {
      "channel": 3,
      "note": 56,
      "start": 30.7859,
      "duration": 0.1481,
      "velocity": 99,
      "chip": "ym2612"
    },
    {
      "channel": 0,
      "note": 75,
      "start": 30.9865,
      "duration": 1.4306,
      "velocity": 106,
      "chip": "ym2612"
    },
    {
      "channel": 1,
      "note": 59,
      "start": 30.9874,
      "duration": 0.1457,
      "velocity": 92,
      "chip": "ym2612"
    },
    {
      "channel": 3,
      "note": 54,
      "start": 30.9889,
      "duration": 0.1449,
      "velocity": 99,
      "chip": "ym2612"
    },
    {
      "channel": 5,
      "note": 44,
      "start": 30.9902,
      "duration": 0.1277,
      "velocity": 114,
      "chip": "ym2612"
    },
    {
      "channel": 2,
      "note": 75,
      "start": 31.0341,
      "duration": 1.4327,
      "velocity": 106,
      "chip": "ym2612"
    },
    {
      "channel": 4,
      "note": 75,
      "start": 31.0515,
      "duration": 1.4327,
      "velocity": 106,
      "chip": "ym2612"
    },
    {
      "channel": 1,
      "note": 59,
      "start": 31.1844,
      "duration": 0.1488,
      "velocity": 92,
      "chip": "ym2612"
    },
    {
      "channel": 3,
      "note": 54,
      "start": 31.1854,
      "duration": 0.1485,
      "velocity": 99,
      "chip": "ym2612"
    },
    {
      "channel": 1,
      "note": 59,
      "start": 31.3863,
      "duration": 0.1469,
      "velocity": 92,
      "chip": "ym2612"
    },
    {
      "channel": 3,
      "note": 54,
      "start": 31.3875,
      "duration": 0.1465,
      "velocity": 99,
      "chip": "ym2612"
    },
    {
      "channel": 5,
      "note": 87,
      "start": 31.3887,
      "duration": 0.3129,
      "velocity": 120,
      "chip": "ym2612"
    },
    {
      "channel": 1,
      "note": 59,
      "start": 31.601,
      "duration": 0.1488,
      "velocity": 92,
      "chip": "ym2612"
    },
    {
      "channel": 3,
      "note": 54,
      "start": 31.6022,
      "duration": 0.1485,
      "velocity": 99,
      "chip": "ym2612"
    },
    {
      "channel": 1,
      "note": 59,
      "start": 31.8033,
      "duration": 0.1466,
      "velocity": 92,
      "chip": "ym2612"
    },
    {
      "channel": 3,
      "note": 54,
      "start": 31.8048,
      "duration": 0.1459,
      "velocity": 99,
      "chip": "ym2612"
    },
    {
      "channel": 5,
      "note": 44,
      "start": 31.8061,
      "duration": 0.1288,
      "velocity": 114,
      "chip": "ym2612"
    },
    {
      "channel": 1,
      "note": 59,
      "start": 32.0014,
      "duration": 0.1485,
      "velocity": 92,
      "chip": "ym2612"
    },
    {
      "channel": 3,
      "note": 54,
      "start": 32.0026,
      "duration": 0.1482,
      "velocity": 99,
      "chip": "ym2612"
    },
    {
      "channel": 1,
      "note": 59,
      "start": 32.2034,
      "duration": 0.1466,
      "velocity": 92,
      "chip": "ym2612"
    },
    {
      "channel": 3,
      "note": 54,
      "start": 32.2045,
      "duration": 0.1462,
      "velocity": 99,
      "chip": "ym2612"
    },
    {
      "channel": 5,
      "note": 87,
      "start": 32.2057,
      "duration": 0.3136,
      "velocity": 120,
      "chip": "ym2612"
    },
    {
      "channel": 0,
      "note": 76,
      "start": 32.4177,
      "duration": 0.0994,
      "velocity": 106,
      "chip": "ym2612"
    },
    {
      "channel": 1,
      "note": 59,
      "start": 32.4185,
      "duration": 0.148,
      "velocity": 92,
      "chip": "ym2612"
    },
    {
      "channel": 3,
      "note": 54,
      "start": 32.4196,
      "duration": 0.148,
      "velocity": 99,
      "chip": "ym2612"
    },
    {
      "channel": 2,
      "note": 76,
      "start": 32.4674,
      "duration": 0.0993,
      "velocity": 106,
      "chip": "ym2612"
    },
    {
      "channel": 4,
      "note": 76,
      "start": 32.4848,
      "duration": 0.0988,
      "velocity": 106,
      "chip": "ym2612"
    },
    {
      "channel": 0,
      "note": 78,
      "start": 32.5177,
      "duration": 0.1014,
      "velocity": 106,
      "chip": "ym2612"
    },
    {
      "channel": 2,
      "note": 78,
      "start": 32.5674,
      "duration": 0.0994,
      "velocity": 106,
      "chip": "ym2612"
    },
    {
      "channel": 4,
      "note": 78,
      "start": 32.5843,
      "duration": 0.0999,
      "velocity": 106,
      "chip": "ym2612"
    },
    {
      "channel": 0,
      "note": 75,
      "start": 32.6198,
      "duration": 1.4139,
      "velocity": 106,
      "chip": "ym2612"
    },
    {
      "channel": 1,
      "note": 59,
      "start": 32.6208,
      "duration": 0.1456,
      "velocity": 92,
      "chip": "ym2612"
    },
    {
      "channel": 3,
      "note": 54,
      "start": 32.6222,
      "duration": 0.145,
      "velocity": 99,
      "chip": "ym2612"
    },
    {
      "channel": 5,
      "note": 44,
      "start": 32.6233,
      "duration": 0.1279,
      "velocity": 114,
      "chip": "ym2612"
    },
    {
      "channel": 2,
      "note": 75,
      "start": 32.6674,
      "duration": 1.416,
      "velocity": 106,
      "chip": "ym2612"
    },
    {
      "channel": 4,
      "note": 75,
      "start": 32.6848,
      "duration": 1.4326,
      "velocity": 106,
      "chip": "ym2612"
    },
    {
      "channel": 1,
      "note": 59,
      "start": 32.8177,
      "duration": 0.1488,
      "velocity": 92,
      "chip": "ym2612"
    },
    {
      "channel": 3,
      "note": 54,
      "start": 32.8188,
      "duration": 0.1485,
      "velocity": 99,
      "chip": "ym2612"
    },
    {
      "channel": 1,
      "note": 59,
      "start": 33.0197,
      "duration": 0.1469,
      "velocity": 92,
      "chip": "ym2612"
    },
    {
      "channel": 3,
      "note": 54,
      "start": 33.0208,
      "duration": 0.1465,
      "velocity": 99,
      "chip": "ym2612"
    },
    {
      "channel": 5,
      "note": 87,
      "start": 33.022,
      "duration": 0.3129,
      "velocity": 120,
      "chip": "ym2612"
    },
    {
      "channel": 1,
      "note": 59,
      "start": 33.2177,
      "duration": 0.1655,
      "velocity": 92,
      "chip": "ym2612"
    },
    {
      "channel": 3,
      "note": 54,
      "start": 33.2188,
      "duration": 0.1651,
      "velocity": 99,
      "chip": "ym2612"
    },
    {
      "channel": 1,
      "note": 59,
      "start": 33.4367,
      "duration": 0.1466,
      "velocity": 92,
      "chip": "ym2612"
    },
    {
      "channel": 3,
      "note": 54,
      "start": 33.4381,
      "duration": 0.1459,
      "velocity": 99,
      "chip": "ym2612"
    },
    {
      "channel": 5,
      "note": 44,
      "start": 33.4394,
      "duration": 0.1288,
      "velocity": 114,
      "chip": "ym2612"
    },
    {
      "channel": 1,
      "note": 59,
      "start": 33.6348,
      "duration": 0.1485,
      "velocity": 92,
      "chip": "ym2612"
    },
    {
      "channel": 3,
      "note": 54,
      "start": 33.6359,
      "duration": 0.1482,
      "velocity": 99,
      "chip": "ym2612"
    },
    {
      "channel": 1,
      "note": 59,
      "start": 33.8367,
      "duration": 0.1466,
      "velocity": 92,
      "chip": "ym2612"
    },
    {
      "channel": 3,
      "note": 54,
      "start": 33.8379,
      "duration": 0.1462,
      "velocity": 99,
      "chip": "ym2612"
    },
    {
      "channel": 5,
      "note": 87,
      "start": 33.8391,
      "duration": 0.3136,
      "velocity": 120,
      "chip": "ym2612"
    },
    {
      "channel": 0,
      "note": 73,
      "start": 34.0344,
      "duration": 0.116,
      "velocity": 106,
      "chip": "ym2612"
    },
    {
      "channel": 1,
      "note": 59,
      "start": 34.0351,
      "duration": 0.1646,
      "velocity": 92,
      "chip": "ym2612"
    },
    {
      "channel": 3,
      "note": 54,
      "start": 34.0363,
      "duration": 0.1646,
      "velocity": 99,
      "chip": "ym2612"
    },
    {
      "channel": 2,
      "note": 73,
      "start": 34.0841,
      "duration": 0.116,
      "velocity": 106,
      "chip": "ym2612"
    },
    {
      "channel": 4,
      "note": 73,
      "start": 34.1181,
      "duration": 0.0988,
      "velocity": 106,
      "chip": "ym2612"
    },
    {
      "channel": 0,
      "note": 71,
      "start": 34.151,
      "duration": 0.1014,
      "velocity": 106,
      "chip": "ym2612"
    },
    {
      "channel": 2,
      "note": 71,
      "start": 34.2008,
      "duration": 0.0994,
      "velocity": 106,
      "chip": "ym2612"
    },
    {
      "channel": 4,
      "note": 71,
      "start": 34.2176,
      "duration": 0.0998,
      "velocity": 106,
      "chip": "ym2612"
    },
    {
      "channel": 0,
      "note": 73,
      "start": 34.2531,
      "duration": 1.4139,
      "velocity": 106,
      "chip": "ym2612"
    },
    {
      "channel": 1,
      "note": 61,
      "start": 34.2541,
      "duration": 0.1457,
      "velocity": 92,
      "chip": "ym2612"
    },
    {
      "channel": 3,
      "note": 52,
      "start": 34.2554,
      "duration": 0.145,
      "velocity": 99,
      "chip": "ym2612"
    },
    {
      "channel": 5,
      "note": 44,
      "start": 34.2566,
      "duration": 0.1279,
      "velocity": 114,
      "chip": "ym2612"
    },
    {
      "channel": 2,
      "note": 73,
      "start": 34.3008,
      "duration": 1.416,
      "velocity": 106,
      "chip": "ym2612"
    },
    {
      "channel": 4,
      "note": 73,
      "start": 34.3181,
      "duration": 1.416,
      "velocity": 106,
      "chip": "ym2612"
    },
    {
      "channel": 1,
      "note": 61,
      "start": 34.451,
      "duration": 0.1488,
      "velocity": 92,
      "chip": "ym2612"
    },
    {
      "channel": 3,
      "note": 52,
      "start": 34.4521,
      "duration": 0.1485,
      "velocity": 99,
      "chip": "ym2612"
    },
    {
      "channel": 1,
      "note": 61,
      "start": 34.653,
      "duration": 0.1469,
      "velocity": 92,
      "chip": "ym2612"
    },
    {
      "channel": 3,
      "note": 52,
      "start": 34.6541,
      "duration": 0.1465,
      "velocity": 99,
      "chip": "ym2612"
    },
    {
      "channel": 5,
      "note": 87,
      "start": 34.6554,
      "duration": 0.2962,
      "velocity": 120,
      "chip": "ym2612"
    },
    {
      "channel": 1,
      "note": 61,
      "start": 34.851,
      "duration": 0.1655,
      "velocity": 92,
      "chip": "ym2612"
    },
    {
      "channel": 3,
      "note": 52,
      "start": 34.8522,
      "duration": 0.1651,
      "velocity": 99,
      "chip": "ym2612"
    },
    {
      "channel": 1,
      "note": 61,
      "start": 35.07,
      "duration": 0.1466,
      "velocity": 92,
      "chip": "ym2612"
    },
    {
      "channel": 3,
      "note": 52,
      "start": 35.0715,
      "duration": 0.1459,
      "velocity": 99,
      "chip": "ym2612"
    },
    {
      "channel": 5,
      "note": 44,
      "start": 35.0727,
      "duration": 0.1288,
      "velocity": 114,
      "chip": "ym2612"
    },
    {
      "channel": 1,
      "note": 61,
      "start": 35.2681,
      "duration": 0.1485,
      "velocity": 92,
      "chip": "ym2612"
    },
    {
      "channel": 3,
      "note": 52,
      "start": 35.2692,
      "duration": 0.1482,
      "velocity": 99,
      "chip": "ym2612"
    },
    {
      "channel": 1,
      "note": 61,
      "start": 35.47,
      "duration": 0.1466,
      "velocity": 92,
      "chip": "ym2612"
    },
    {
      "channel": 3,
      "note": 52,
      "start": 35.4712,
      "duration": 0.1462,
      "velocity": 99,
      "chip": "ym2612"
    },
    {
      "channel": 5,
      "note": 87,
      "start": 35.4724,
      "duration": 0.2964,
      "velocity": 120,
      "chip": "ym2612"
    },
    {
      "channel": 0,
      "note": 68,
      "start": 35.6677,
      "duration": 0.1651,
      "velocity": 106,
      "chip": "ym2612"
    },
    {
      "channel": 1,
      "note": 61,
      "start": 35.6684,
      "duration": 0.1647,
      "velocity": 92,
      "chip": "ym2612"
    },
    {
      "channel": 3,
      "note": 52,
      "start": 35.6696,
      "duration": 0.1642,
      "velocity": 99,
      "chip": "ym2612"
    },
    {
      "channel": 2,
      "note": 68,
      "start": 35.7174,
      "duration": 0.1702,
      "velocity": 106,
      "chip": "ym2612"
    },
    {
      "channel": 4,
      "note": 68,
      "start": 35.7348,
      "duration": 0.1658,
      "velocity": 106,
      "chip": "ym2612"
    },
    {
      "channel": 0,
      "note": 68,
      "start": 35.8864,
      "duration": 1.3631,
      "velocity": 106,
      "chip": "ym2612"
    },
    {
      "channel": 1,
      "note": 61,
      "start": 35.8874,
      "duration": 0.1457,
      "velocity": 92,
      "chip": "ym2612"
    },
    {
      "channel": 3,
      "note": 52,
      "start": 35.8888,
      "duration": 0.145,
      "velocity": 99,
      "chip": "ym2612"
    },
    {
      "channel": 5,
      "note": 44,
      "start": 35.89,
      "duration": 0.1279,
      "velocity": 114,
      "chip": "ym2612"
    },
    {
      "channel": 2,
      "note": 68,
      "start": 35.9341,
      "duration": 1.3678,
      "velocity": 106,
      "chip": "ym2612"
    },
    {
      "channel": 4,
      "note": 68,
      "start": 35.9515,
      "duration": 1.3657,
      "velocity": 106,
      "chip": "ym2612"
    },
    {
      "channel": 1,
      "note": 61,
      "start": 36.0844,
      "duration": 0.1488,
      "velocity": 92,
      "chip": "ym2612"
    },
    {
      "channel": 3,
      "note": 52,
      "start": 36.0854,
      "duration": 0.1485,
      "velocity": 99,
      "chip": "ym2612"
    },
    {
      "channel": 1,
      "note": 61,
      "start": 36.2863,
      "duration": 0.1469,
      "velocity": 92,
      "chip": "ym2612"
    },
    {
      "channel": 3,
      "note": 52,
      "start": 36.2875,
      "duration": 0.1465,
      "velocity": 99,
      "chip": "ym2612"
    },
    {
      "channel": 5,
      "note": 87,
      "start": 36.2887,
      "duration": 0.2962,
      "velocity": 120,
      "chip": "ym2612"
    },
    {
      "channel": 1,
      "note": 61,
      "start": 36.4844,
      "duration": 0.1488,
      "velocity": 92,
      "chip": "ym2612"
    },
    {
      "channel": 3,
      "note": 52,
      "start": 36.4855,
      "duration": 0.1485,
      "velocity": 99,
      "chip": "ym2612"
    },
    {
      "channel": 1,
      "note": 61,
      "start": 36.7033,
      "duration": 0.1466,
      "velocity": 92,
      "chip": "ym2612"
    },
    {
      "channel": 3,
      "note": 52,
      "start": 36.7048,
      "duration": 0.1459,
      "velocity": 99,
      "chip": "ym2612"
    },
    {
      "channel": 5,
      "note": 44,
      "start": 36.7061,
      "duration": 0.1288,
      "velocity": 114,
      "chip": "ym2612"
    },
    {
      "channel": 1,
      "note": 61,
      "start": 36.9014,
      "duration": 0.1485,
      "velocity": 92,
      "chip": "ym2612"
    },
    {
      "channel": 3,
      "note": 52,
      "start": 36.9026,
      "duration": 0.1482,
      "velocity": 99,
      "chip": "ym2612"
    },
    {
      "channel": 1,
      "note": 61,
      "start": 37.1034,
      "duration": 0.1464,
      "velocity": 92,
      "chip": "ym2612"
    },
    {
      "channel": 3,
      "note": 52,
      "start": 37.1045,
      "duration": 0.146,
      "velocity": 99,
      "chip": "ym2612"
    },
    {
      "channel": 5,
      "note": 87,
      "start": 37.1057,
      "duration": 0.2969,
      "velocity": 120,
      "chip": "ym2612"
    },
    {
      "channel": 0,
      "note": 71,
      "start": 37.301,
      "duration": 1.6327,
      "velocity": 106,
      "chip": "ym2612"
    },
    {
      "channel": 1,
      "note": 61,
      "start": 37.3018,
      "duration": 0.148,
      "velocity": 92,
      "chip": "ym2612"
    },
    {
      "channel": 3,
      "note": 52,
      "start": 37.3028,
      "duration": 0.1476,
      "velocity": 99,
      "chip": "ym2612"
    },
    {
      "channel": 2,
      "note": 68,
      "start": 37.3508,
      "duration": 0.0503,
      "velocity": 106,
      "chip": "ym2612"
    },
    {
      "channel": 4,
      "note": 71,
      "start": 37.3681,
      "duration": 1.6326,
      "velocity": 106,
      "chip": "ym2612"
    },
    {
      "channel": 2,
      "note": 71,
      "start": 37.4017,
      "duration": 1.5817,
      "velocity": 106,
      "chip": "ym2612"
    },
    {
      "channel": 1,
      "note": 56,
      "start": 37.5038,
      "duration": 0.1629,
      "velocity": 92,
      "chip": "ym2612"
    },
    {
      "channel": 3,
      "note": 51,
      "start": 37.5051,
      "duration": 0.1623,
      "velocity": 99,
      "chip": "ym2612"
    },
    {
      "channel": 5,
      "note": 44,
      "start": 37.5063,
      "duration": 0.1453,
      "velocity": 114,
      "chip": "ym2612"
    },
    {
      "channel": 1,
      "note": 56,
      "start": 37.7177,
      "duration": 0.1488,
      "velocity": 92,
      "chip": "ym2612"
    },
    {
      "channel": 3,
      "note": 51,
      "start": 37.7188,
      "duration": 0.1485,
      "velocity": 99,
      "chip": "ym2612"
    },
    {
      "channel": 1,
      "note": 56,
      "start": 37.92,
      "duration": 0.1466,
      "velocity": 92,
      "chip": "ym2612"
    },
    {
      "channel": 3,
      "note": 51,
      "start": 37.9211,
      "duration": 0.1462,
      "velocity": 99,
      "chip": "ym2612"
    },
    {
      "channel": 5,
      "note": 87,
      "start": 37.9223,
      "duration": 0.2959,
      "velocity": 120,
      "chip": "ym2612"
    },
    {
      "channel": 1,
      "note": 56,
      "start": 38.1177,
      "duration": 0.1488,
      "velocity": 92,
      "chip": "ym2612"
    },
    {
      "channel": 3,
      "note": 51,
      "start": 38.1188,
      "duration": 0.1485,
      "velocity": 99,
      "chip": "ym2612"
    },
    {
      "channel": 1,
      "note": 56,
      "start": 38.32,
      "duration": 0.1632,
      "velocity": 92,
      "chip": "ym2612"
    },
    {
      "channel": 3,
      "note": 51,
      "start": 38.3214,
      "duration": 0.1626,
      "velocity": 99,
      "chip": "ym2612"
    },
    {
      "channel": 5,
      "note": 44,
      "start": 38.3227,
      "duration": 0.1455,
      "velocity": 114,
      "chip": "ym2612"
    },
    {
      "channel": 1,
      "note": 56,
      "start": 38.5348,
      "duration": 0.1485,
      "velocity": 92,
      "chip": "ym2612"
    },
    {
      "channel": 3,
      "note": 51,
      "start": 38.5359,
      "duration": 0.1482,
      "velocity": 99,
      "chip": "ym2612"
    },
    {
      "channel": 1,
      "note": 56,
      "start": 38.7371,
      "duration": 0.1462,
      "velocity": 92,
      "chip": "ym2612"
    },
    {
      "channel": 3,
      "note": 51,
      "start": 38.7382,
      "duration": 0.1458,
      "velocity": 99,
      "chip": "ym2612"
    },
    {
      "channel": 5,
      "note": 87,
      "start": 38.7394,
      "duration": 0.2961,
      "velocity": 120,
      "chip": "ym2612"
    },
    {
      "channel": 0,
      "note": 70,
      "start": 38.9344,
      "duration": 0.1484,
      "velocity": 106,
      "chip": "ym2612"
    },
    {
      "channel": 1,
      "note": 56,
      "start": 38.9351,
      "duration": 0.148,
      "velocity": 92,
      "chip": "ym2612"
    },
    {
      "channel": 3,
      "note": 51,
      "start": 38.9363,
      "duration": 0.1475,
      "velocity": 99,
      "chip": "ym2612"
    },
    {
      "channel": 2,
      "note": 70,
      "start": 38.9841,
      "duration": 0.1534,
      "velocity": 106,
      "chip": "ym2612"
    },
    {
      "channel": 4,
      "note": 70,
      "start": 39.0015,
      "duration": 0.1491,
      "velocity": 106,
      "chip": "ym2612"
    },
    {
      "channel": 0,
      "note": 70,
      "start": 39.1365,
      "duration": 1.5306,
      "velocity": 106,
      "chip": "ym2612"
    },
    {
      "channel": 1,
      "note": 55,
      "start": 39.1374,
      "duration": 0.1624,
      "velocity": 92,
      "chip": "ym2612"
    },
    {
      "channel": 3,
      "note": 51,
      "start": 39.1388,
      "duration": 0.1617,
      "velocity": 99,
      "chip": "ym2612"
    },
    {
      "channel": 5,
      "note": 44,
      "start": 39.1399,
      "duration": 0.1446,
      "velocity": 114,
      "chip": "ym2612"
    },
    {
      "channel": 2,
      "note": 70,
      "start": 39.1841,
      "duration": 1.5325,
      "velocity": 106,
      "chip": "ym2612"
    },
    {
      "channel": 4,
      "note": 70,
      "start": 39.2015,
      "duration": 1.5316,
      "velocity": 106,
      "chip": "ym2612"
    },
    {
      "channel": 1,
      "note": 55,
      "start": 39.351,
      "duration": 0.1489,
      "velocity": 92,
      "chip": "ym2612"
    },
    {
      "channel": 3,
      "note": 51,
      "start": 39.3521,
      "duration": 0.1487,
      "velocity": 99,
      "chip": "ym2612"
    },
    {
      "channel": 1,
      "note": 55,
      "start": 39.5533,
      "duration": 0.1466,
      "velocity": 92,
      "chip": "ym2612"
    },
    {
      "channel": 3,
      "note": 51,
      "start": 39.5545,
      "duration": 0.1462,
      "velocity": 99,
      "chip": "ym2612"
    },
    {
      "channel": 5,
      "note": 87,
      "start": 39.5557,
      "duration": 0.2959,
      "velocity": 120,
      "chip": "ym2612"
    },
    {
      "channel": 1,
      "note": 55,
      "start": 39.751,
      "duration": 0.1488,
      "velocity": 92,
      "chip": "ym2612"
    },
    {
      "channel": 3,
      "note": 51,
      "start": 39.7522,
      "duration": 0.1485,
      "velocity": 99,
      "chip": "ym2612"
    },
    {
      "channel": 1,
      "note": 55,
      "start": 39.9533,
      "duration": 0.1632,
      "velocity": 92,
      "chip": "ym2612"
    },
    {
      "channel": 3,
      "note": 51,
      "start": 39.9547,
      "duration": 0.1626,
      "velocity": 99,
      "chip": "ym2612"
    },
    {
      "channel": 5,
      "note": 44,
      "start": 39.9561,
      "duration": 0.1455,
      "velocity": 114,
      "chip": "ym2612"
    },
    {
      "channel": 1,
      "note": 55,
      "start": 40.1681,
      "duration": 0.1485,
      "velocity": 92,
      "chip": "ym2612"
    },
    {
      "channel": 3,
      "note": 51,
      "start": 40.1692,
      "duration": 0.1481,
      "velocity": 99,
      "chip": "ym2612"
    },
    {
      "channel": 1,
      "note": 55,
      "start": 40.3704,
      "duration": 0.1462,
      "velocity": 92,
      "chip": "ym2612"
    },
    {
      "channel": 3,
      "note": 51,
      "start": 40.3715,
      "duration": 0.1458,
      "velocity": 99,
      "chip": "ym2612"
    },
    {
      "channel": 5,
      "note": 87,
      "start": 40.3727,
      "duration": 0.2963,
      "velocity": 120,
      "chip": "ym2612"
    },
    {
      "channel": 1,
      "note": 55,
      "start": 40.5681,
      "duration": 0.1481,
      "velocity": 92,
      "chip": "ym2612"
    },
    {
      "channel": 3,
      "note": 51,
      "start": 40.5692,
      "duration": 0.1477,
      "velocity": 99,
      "chip": "ym2612"
    },
    {
      "channel": 0,
      "note": 73,
      "start": 40.7727,
      "duration": 0.2107,
      "velocity": 92,
      "chip": "ym2612"
    },
    {
      "channel": 1,
      "note": 66,
      "start": 40.7762,
      "duration": 0.2074,
      "velocity": 92,
      "chip": "ym2612"
    },
    {
      "channel": 2,
      "note": 56,
      "start": 40.7795,
      "duration": 0.1373,
      "velocity": 92,
      "chip": "ym2612"
    },
    {
      "channel": 3,
      "note": 56,
      "start": 40.7805,
      "duration": 0.1366,
      "velocity": 99,
      "chip": "ym2612"
    },
    {
      "channel": 5,
      "note": 44,
      "start": 40.7815,
      "duration": 0.1197,
      "velocity": 114,
      "chip": "ym2612"
    },
    {
      "channel": 4,
      "note": 73,
      "start": 40.8378,
      "duration": 0.2125,
      "velocity": 92,
      "chip": "ym2612"
    },
    {
      "channel": 2,
      "note": 56,
      "start": 40.9846,
      "duration": 0.1483,
      "velocity": 92,
      "chip": "ym2612"
    },
    {
      "channel": 3,
      "note": 56,
      "start": 40.9853,
      "duration": 0.148,
      "velocity": 99,
      "chip": "ym2612"
    },
    {
      "channel": 0,
      "note": 73,
      "start": 41.186,
      "duration": 0.0013,
      "velocity": 92,
      "chip": "ym2612"
    },
    {
      "channel": 1,
      "note": 66,
      "start": 41.1867,
      "duration": 0.0007,
      "velocity": 92,
      "chip": "ym2612"
    }
  ]
}