{
  "track_name": "41 - Kleoneo's Castle",
  "duration_sec": 80.988,
  "sample_rate": 44100,
  "note_count": 2108,
  "unique_pitches": 35,
  "pitch_range": 47,
  "avg_note_duration": 0.1856,
  "reconstruction_stats": {
    "notes_reconstructed": 2108,
    "keyon_events": 2108,
    "keyoff_events": 2103,
    "orphan_keyons": 5,
    "unique_pitches": 35,
    "pitch_range": 47,
    "avg_duration_sec": 0.1856
  },
  "metadata": {
    "source": "P\\Pier Solar and the Great Architects\\41 - Kleoneo's Castle.vgz"
  },
  "notes": [
    {
      "channel": 0,
      "note": 94,
      "start": 0.0995,
      "duration": 0.038,
      "velocity": 119,
      "chip": "ym2612"
    },
    {
      "channel": 4,
      "note": 51,
      "start": 0.1002,
      "duration": 0.137,
      "velocity": 105,
      "chip": "ym2612"
    },
    {
      "channel": 0,
      "note": 82,
      "start": 0.1377,
      "duration": 0.099,
      "velocity": 119,
      "chip": "ym2612"
    },
    {
      "channel": 0,
      "note": 93,
      "start": 0.2368,
      "duration": 0.099,
      "velocity": 119,
      "chip": "ym2612"
    },
    {
      "channel": 4,
      "note": 51,
      "start": 0.2374,
      "duration": 0.1981,
      "velocity": 105,
      "chip": "ym2612"
    },
    {
      "channel": 0,
      "note": 81,
      "start": 0.3359,
      "duration": 0.099,
      "velocity": 119,
      "chip": "ym2612"
    },
    {
      "channel": 1,
      "note": 94,
      "start": 0.3373,
      "duration": 0.0978,
      "velocity": 119,
      "chip": "ym2612"
    },
    {
      "channel": 0,
      "note": 92,
      "start": 0.435,
      "duration": 0.099,
      "velocity": 119,
      "chip": "ym2612"
    },
    {
      "channel": 1,
      "note": 82,
      "start": 0.4353,
      "duration": 0.099,
      "velocity": 119,
      "chip": "ym2612"
    },
    {
      "channel": 4,
      "note": 51,
      "start": 0.4357,
      "duration": 0.1983,
      "velocity": 105,
      "chip": "ym2612"
    },
    {
      "channel": 0,
      "note": 80,
      "start": 0.5342,
      "duration": 0.0991,
      "velocity": 119,
      "chip": "ym2612"
    },
    {
      "channel": 1,
      "note": 93,
      "start": 0.5344,
      "duration": 0.0991,
      "velocity": 119,
      "chip": "ym2612"
    },
    {
      "channel": 0,
      "note": 91,
      "start": 0.6334,
      "duration": 0.0378,
      "velocity": 119,
      "chip": "ym2612"
    },
    {
      "channel": 1,
      "note": 81,
      "start": 0.6337,
      "duration": 0.0378,
      "velocity": 119,
      "chip": "ym2612"
    },
    {
      "channel": 4,
      "note": 51,
      "start": 0.6341,
      "duration": 0.1369,
      "velocity": 105,
      "chip": "ym2612"
    },
    {
      "channel": 0,
      "note": 79,
      "start": 0.6714,
      "duration": 0.099,
      "velocity": 119,
      "chip": "ym2612"
    },
    {
      "channel": 1,
      "note": 92,
      "start": 0.6717,
      "duration": 0.099,
      "velocity": 119,
      "chip": "ym2612"
    },
    {
      "channel": 0,
      "note": 90,
      "start": 0.7705,
      "duration": 0.0379,
      "velocity": 119,
      "chip": "ym2612"
    },
    {
      "channel": 1,
      "note": 80,
      "start": 0.7708,
      "duration": 0.0379,
      "velocity": 119,
      "chip": "ym2612"
    },
    {
      "channel": 4,
      "note": 51,
      "start": 0.7713,
      "duration": 0.1369,
      "velocity": 105,
      "chip": "ym2612"
    },
    {
      "channel": 0,
      "note": 78,
      "start": 0.8086,
      "duration": 0.099,
      "velocity": 119,
      "chip": "ym2612"
    },
    {
      "channel": 1,
      "note": 91,
      "start": 0.8089,
      "duration": 0.099,
      "velocity": 119,
      "chip": "ym2612"
    },
    {
      "channel": 0,
      "note": 89,
      "start": 0.9077,
      "duration": 0.099,
      "velocity": 119,
      "chip": "ym2612"
    },
    {
      "channel": 1,
      "note": 79,
      "start": 0.908,
      "duration": 0.099,
      "velocity": 119,
      "chip": "ym2612"
    },
    {
      "channel": 4,
      "note": 51,
      "start": 0.9085,
      "duration": 0.1979,
      "velocity": 105,
      "chip": "ym2612"
    },
    {
      "channel": 0,
      "note": 77,
      "start": 1.0068,
      "duration": 0.099,
      "velocity": 119,
      "chip": "ym2612"
    },
    {
      "channel": 1,
      "note": 90,
      "start": 1.0071,
      "duration": 0.099,
      "velocity": 119,
      "chip": "ym2612"
    },
    {
      "channel": 0,
      "note": 88,
      "start": 1.106,
      "duration": 0.099,
      "velocity": 119,
      "chip": "ym2612"
    },
    {
      "channel": 1,
      "note": 78,
      "start": 1.1062,
      "duration": 0.099,
      "velocity": 119,
      "chip": "ym2612"
    },
    {
      "channel": 4,
      "note": 51,
      "start": 1.1066,
      "duration": 0.1981,
      "velocity": 105,
      "chip": "ym2612"
    },
    {
      "channel": 0,
      "note": 76,
      "start": 1.2051,
      "duration": 0.099,
      "velocity": 119,
      "chip": "ym2612"
    },
    {
      "channel": 1,
      "note": 89,
      "start": 1.2054,
      "duration": 0.099,
      "velocity": 119,
      "chip": "ym2612"
    },
    {
      "channel": 0,
      "note": 87,
      "start": 1.3042,
      "duration": 0.099,
      "velocity": 119,
      "chip": "ym2612"
    },
    {
      "channel": 1,
      "note": 77,
      "start": 1.3045,
      "duration": 0.099,
      "velocity": 119,
      "chip": "ym2612"
    },
    {
      "channel": 4,
      "note": 51,
      "start": 1.3049,
      "duration": 0.1981,
      "velocity": 105,
      "chip": "ym2612"
    },
    {
      "channel": 0,
      "note": 75,
      "start": 1.4034,
      "duration": 0.099,
      "velocity": 119,
      "chip": "ym2612"
    },
    {
      "channel": 1,
      "note": 88,
      "start": 1.4036,
      "duration": 0.099,
      "velocity": 119,
      "chip": "ym2612"
    },
    {
      "channel": 0,
      "note": 86,
      "start": 1.5025,
      "duration": 0.038,
      "velocity": 119,
      "chip": "ym2612"
    },
    {
      "channel": 1,
      "note": 76,
      "start": 1.5027,
      "duration": 0.038,
      "velocity": 119,
      "chip": "ym2612"
    },
    {
      "channel": 4,
      "note": 51,
      "start": 1.5033,
      "duration": 0.1369,
      "velocity": 105,
      "chip": "ym2612"
    },
    {
      "channel": 0,
      "note": 74,
      "start": 1.5406,
      "duration": 0.099,
      "velocity": 119,
      "chip": "ym2612"
    },
    {
      "channel": 1,
      "note": 87,
      "start": 1.5408,
      "duration": 0.099,
      "velocity": 119,
      "chip": "ym2612"
    },
    {
      "channel": 0,
      "note": 85,
      "start": 1.6397,
      "duration": 0.099,
      "velocity": 119,
      "chip": "ym2612"
    },
    {
      "channel": 1,
      "note": 75,
      "start": 1.64,
      "duration": 0.099,
      "velocity": 119,
      "chip": "ym2612"
    },
    {
      "channel": 4,
      "note": 51,
      "start": 1.6405,
      "duration": 0.1979,
      "velocity": 105,
      "chip": "ym2612"
    },
    {
      "channel": 0,
      "note": 73,
      "start": 1.7388,
      "duration": 0.099,
      "velocity": 119,
      "chip": "ym2612"
    },
    {
      "channel": 1,
      "note": 86,
      "start": 1.739,
      "duration": 0.099,
      "velocity": 119,
      "chip": "ym2612"
    },
    {
      "channel": 0,
      "note": 84,
      "start": 1.8379,
      "duration": 0.099,
      "velocity": 119,
      "chip": "ym2612"
    },
    {
      "channel": 1,
      "note": 74,
      "start": 1.8382,
      "duration": 0.099,
      "velocity": 119,
      "chip": "ym2612"
    },
    {
      "channel": 4,
      "note": 51,
      "start": 1.8386,
      "duration": 0.1981,
      "velocity": 105,
      "chip": "ym2612"
    },
    {
      "channel": 0,
      "note": 72,
      "start": 1.9371,
      "duration": 0.099,
      "velocity": 119,
      "chip": "ym2612"
    },
    {
      "channel": 1,
      "note": 85,
      "start": 1.9373,
      "duration": 0.099,
      "velocity": 119,
      "chip": "ym2612"
    },
    {
      "channel": 0,
      "note": 83,
      "start": 2.0362,
      "duration": 0.038,
      "velocity": 119,
      "chip": "ym2612"
    },
    {
      "channel": 1,
      "note": 73,
      "start": 2.0364,
      "duration": 0.038,
      "velocity": 119,
      "chip": "ym2612"
    },
    {
      "channel": 4,
      "note": 51,
      "start": 2.0368,
      "duration": 0.1371,
      "velocity": 105,
      "chip": "ym2612"
    },
    {
      "channel": 0,
      "note": 71,
      "start": 2.0743,
      "duration": 0.099,
      "velocity": 119,
      "chip": "ym2612"
    },
    {
      "channel": 1,
      "note": 84,
      "start": 2.0745,
      "duration": 0.099,
      "velocity": 119,
      "chip": "ym2612"
    },
    {
      "channel": 0,
      "note": 94,
      "start": 2.1734,
      "duration": 0.0379,
      "velocity": 119,
      "chip": "ym2612"
    },
    {
      "channel": 1,
      "note": 72,
      "start": 2.1737,
      "duration": 0.0379,
      "velocity": 119,
      "chip": "ym2612"
    },
    {
      "channel": 4,
      "note": 51,
      "start": 2.1742,
      "duration": 0.1369,
      "velocity": 105,
      "chip": "ym2612"
    },
    {
      "channel": 0,
      "note": 82,
      "start": 2.2115,
      "duration": 0.099,
      "velocity": 119,
      "chip": "ym2612"
    },
    {
      "channel": 1,
      "note": 83,
      "start": 2.2117,
      "duration": 0.099,
      "velocity": 119,
      "chip": "ym2612"
    },
    {
      "channel": 0,
      "note": 93,
      "start": 2.3106,
      "duration": 0.099,
      "velocity": 119,
      "chip": "ym2612"
    },
    {
      "channel": 1,
      "note": 71,
      "start": 2.3109,
      "duration": 0.099,
      "velocity": 119,
      "chip": "ym2612"
    },
    {
      "channel": 4,
      "note": 51,
      "start": 2.3114,
      "duration": 0.1979,
      "velocity": 105,
      "chip": "ym2612"
    },
    {
      "channel": 0,
      "note": 81,
      "start": 2.4097,
      "duration": 0.099,
      "velocity": 119,
      "chip": "ym2612"
    },
    {
      "channel": 1,
      "note": 94,
      "start": 2.41,
      "duration": 0.099,
      "velocity": 119,
      "chip": "ym2612"
    },
    {
      "channel": 0,
      "note": 92,
      "start": 2.5088,
      "duration": 0.099,
      "velocity": 119,
      "chip": "ym2612"
    },
    {
      "channel": 1,
      "note": 82,
      "start": 2.5091,
      "duration": 0.099,
      "velocity": 119,
      "chip": "ym2612"
    },
    {
      "channel": 4,
      "note": 51,
      "start": 2.5095,
      "duration": 0.1981,
      "velocity": 105,
      "chip": "ym2612"
    },
    {
      "channel": 0,
      "note": 80,
      "start": 2.608,
      "duration": 0.099,
      "velocity": 119,
      "chip": "ym2612"
    },
    {
      "channel": 1,
      "note": 93,
      "start": 2.6082,
      "duration": 0.099,
      "velocity": 119,
      "chip": "ym2612"
    },
    {
      "channel": 0,
      "note": 91,
      "start": 2.7071,
      "duration": 0.099,
      "velocity": 119,
      "chip": "ym2612"
    },
    {
      "channel": 1,
      "note": 81,
      "start": 2.7073,
      "duration": 0.099,
      "velocity": 119,
      "chip": "ym2612"
    },
    {
      "channel": 4,
      "note": 51,
      "start": 2.7077,
      "duration": 0.1981,
      "velocity": 105,
      "chip": "ym2612"
    },
    {
      "channel": 0,
      "note": 79,
      "start": 2.8062,
      "duration": 0.099,
      "velocity": 119,
      "chip": "ym2612"
    },
    {
      "channel": 1,
      "note": 92,
      "start": 2.8065,
      "duration": 0.099,
      "velocity": 119,
      "chip": "ym2612"
    },
    {
      "channel": 0,
      "note": 90,
      "start": 2.9054,
      "duration": 0.038,
      "velocity": 119,
      "chip": "ym2612"
    },
    {
      "channel": 1,
      "note": 80,
      "start": 2.9056,
      "duration": 0.038,
      "velocity": 119,
      "chip": "ym2612"
    },
    {
      "channel": 4,
      "note": 51,
      "start": 2.9061,
      "duration": 0.1369,
      "velocity": 105,
      "chip": "ym2612"
    },
    {
      "channel": 0,
      "note": 78,
      "start": 2.9434,
      "duration": 0.099,
      "velocity": 119,
      "chip": "ym2612"
    },
    {
      "channel": 1,
      "note": 91,
      "start": 2.9437,
      "duration": 0.099,
      "velocity": 119,
      "chip": "ym2612"
    },
    {
      "channel": 0,
      "note": 89,
      "start": 3.0426,
      "duration": 0.099,
      "velocity": 119,
      "chip": "ym2612"
    },
    {
      "channel": 1,
      "note": 79,
      "start": 3.0428,
      "duration": 0.099,
      "velocity": 119,
      "chip": "ym2612"
    },
    {
      "channel": 4,
      "note": 51,
      "start": 3.0434,
      "duration": 0.198,
      "velocity": 105,
      "chip": "ym2612"
    },
    {
      "channel": 0,
      "note": 77,
      "start": 3.1417,
      "duration": 0.099,
      "velocity": 119,
      "chip": "ym2612"
    },
    {
      "channel": 1,
      "note": 90,
      "start": 3.142,
      "duration": 0.099,
      "velocity": 119,
      "chip": "ym2612"
    },
    {
      "channel": 0,
      "note": 88,
      "start": 3.2408,
      "duration": 0.099,
      "velocity": 119,
      "chip": "ym2612"
    },
    {
      "channel": 1,
      "note": 78,
      "start": 3.2411,
      "duration": 0.099,
      "velocity": 119,
      "chip": "ym2612"
    },
    {
      "channel": 4,
      "note": 51,
      "start": 3.2415,
      "duration": 0.1983,
      "velocity": 105,
      "chip": "ym2612"
    },
    {
      "channel": 0,
      "note": 76,
      "start": 3.3399,
      "duration": 0.0992,
      "velocity": 119,
      "chip": "ym2612"
    },
    {
      "channel": 1,
      "note": 89,
      "start": 3.3402,
      "duration": 0.0992,
      "velocity": 119,
      "chip": "ym2612"
    },
    {
      "channel": 0,
      "note": 87,
      "start": 3.4392,
      "duration": 0.0378,
      "velocity": 119,
      "chip": "ym2612"
    },
    {
      "channel": 1,
      "note": 77,
      "start": 3.4395,
      "duration": 0.0378,
      "velocity": 119,
      "chip": "ym2612"
    },
    {
      "channel": 4,
      "note": 51,
      "start": 3.4399,
      "duration": 0.1369,
      "velocity": 105,
      "chip": "ym2612"
    },
    {
      "channel": 0,
      "note": 75,
      "start": 3.4772,
      "duration": 0.099,
      "velocity": 119,
      "chip": "ym2612"
    },
    {
      "channel": 1,
      "note": 88,
      "start": 3.4774,
      "duration": 0.099,
      "velocity": 119,
      "chip": "ym2612"
    },
    {
      "channel": 0,
      "note": 86,
      "start": 3.5763,
      "duration": 0.038,
      "velocity": 119,
      "chip": "ym2612"
    },
    {
      "channel": 1,
      "note": 76,
      "start": 3.5765,
      "duration": 0.038,
      "velocity": 119,
      "chip": "ym2612"
    },
    {
      "channel": 4,
      "note": 51,
      "start": 3.5771,
      "duration": 0.137,
      "velocity": 105,
      "chip": "ym2612"
    },
    {
      "channel": 0,
      "note": 74,
      "start": 3.6144,
      "duration": 0.099,
      "velocity": 119,
      "chip": "ym2612"
    },
    {
      "channel": 1,
      "note": 87,
      "start": 3.6147,
      "duration": 0.099,
      "velocity": 119,
      "chip": "ym2612"
    },
    {
      "channel": 0,
      "note": 85,
      "start": 3.7135,
      "duration": 0.099,
      "velocity": 119,
      "chip": "ym2612"
    },
    {
      "channel": 1,
      "note": 75,
      "start": 3.7138,
      "duration": 0.099,
      "velocity": 119,
      "chip": "ym2612"
    },
    {
      "channel": 4,
      "note": 51,
      "start": 3.7143,
      "duration": 0.198,
      "velocity": 105,
      "chip": "ym2612"
    },
    {
      "channel": 0,
      "note": 73,
      "start": 3.8127,
      "duration": 0.099,
      "velocity": 119,
      "chip": "ym2612"
    },
    {
      "channel": 1,
      "note": 86,
      "start": 3.8129,
      "duration": 0.099,
      "velocity": 119,
      "chip": "ym2612"
    },
    {
      "channel": 0,
      "note": 84,
      "start": 3.9118,
      "duration": 0.099,
      "velocity": 119,
      "chip": "ym2612"
    },
    {
      "channel": 1,
      "note": 74,
      "start": 3.912,
      "duration": 0.099,
      "velocity": 119,
      "chip": "ym2612"
    },
    {
      "channel": 4,
      "note": 51,
      "start": 3.9124,
      "duration": 0.1981,
      "velocity": 105,
      "chip": "ym2612"
    },
    {
      "channel": 0,
      "note": 72,
      "start": 4.0109,
      "duration": 0.099,
      "velocity": 119,
      "chip": "ym2612"
    },
    {
      "channel": 1,
      "note": 85,
      "start": 4.0112,
      "duration": 0.099,
      "velocity": 119,
      "chip": "ym2612"
    },
    {
      "channel": 0,
      "note": 83,
      "start": 4.11,
      "duration": 0.099,
      "velocity": 119,
      "chip": "ym2612"
    },
    {
      "channel": 1,
      "note": 73,
      "start": 4.1103,
      "duration": 0.099,
      "velocity": 119,
      "chip": "ym2612"
    },
    {
      "channel": 4,
      "note": 51,
      "start": 4.1107,
      "duration": 0.1981,
      "velocity": 105,
      "chip": "ym2612"
    },
    {
      "channel": 0,
      "note": 71,
      "start": 4.2091,
      "duration": 0.099,
      "velocity": 119,
      "chip": "ym2612"
    },
    {
      "channel": 1,
      "note": 84,
      "start": 4.2094,
      "duration": 0.099,
      "velocity": 119,
      "chip": "ym2612"
    },
    {
      "channel": 0,
      "note": 94,
      "start": 4.3083,
      "duration": 0.038,
      "velocity": 119,
      "chip": "ym2612"
    },
    {
      "channel": 1,
      "note": 72,
      "start": 4.3085,
      "duration": 0.038,
      "velocity": 119,
      "chip": "ym2612"
    },
    {
      "channel": 4,
      "note": 51,
      "start": 4.309,
      "duration": 0.1369,
      "velocity": 105,
      "chip": "ym2612"
    },
    {
      "channel": 0,
      "note": 82,
      "start": 4.3464,
      "duration": 0.099,
      "velocity": 119,
      "chip": "ym2612"
    },
    {
      "channel": 1,
      "note": 83,
      "start": 4.3466,
      "duration": 0.099,
      "velocity": 119,
      "chip": "ym2612"
    },
    {
      "channel": 0,
      "note": 93,
      "start": 4.4455,
      "duration": 0.099,
      "velocity": 119,
      "chip": "ym2612"
    },
    {
      "channel": 1,
      "note": 71,
      "start": 4.4457,
      "duration": 0.099,
      "velocity": 119,
      "chip": "ym2612"
    },
    {
      "channel": 4,
      "note": 51,
      "start": 4.4463,
      "duration": 0.198,
      "velocity": 105,
      "chip": "ym2612"
    },
    {
      "channel": 0,
      "note": 81,
      "start": 4.5446,
      "duration": 0.099,
      "velocity": 119,
      "chip": "ym2612"
    },
    {
      "channel": 1,
      "note": 94,
      "start": 4.5449,
      "duration": 0.099,
      "velocity": 119,
      "chip": "ym2612"
    },
    {
      "channel": 0,
      "note": 92,
      "start": 4.6437,
      "duration": 0.099,
      "velocity": 119,
      "chip": "ym2612"
    },
    {
      "channel": 1,
      "note": 82,
      "start": 4.644,
      "duration": 0.099,
      "velocity": 119,
      "chip": "ym2612"
    },
    {
      "channel": 4,
      "note": 51,
      "start": 4.6444,
      "duration": 0.1981,
      "velocity": 105,
      "chip": "ym2612"
    },
    {
      "channel": 0,
      "note": 80,
      "start": 4.7429,
      "duration": 0.099,
      "velocity": 119,
      "chip": "ym2612"
    },
    {
      "channel": 1,
      "note": 93,
      "start": 4.7431,
      "duration": 0.099,
      "velocity": 119,
      "chip": "ym2612"
    },
    {
      "channel": 0,
      "note": 91,
      "start": 4.842,
      "duration": 0.038,
      "velocity": 119,
      "chip": "ym2612"
    },
    {
      "channel": 1,
      "note": 81,
      "start": 4.8422,
      "duration": 0.038,
      "velocity": 119,
      "chip": "ym2612"
    },
    {
      "channel": 4,
      "note": 51,
      "start": 4.8426,
      "duration": 0.1371,
      "velocity": 105,
      "chip": "ym2612"
    },
    {
      "channel": 0,
      "note": 79,
      "start": 4.8801,
      "duration": 0.099,
      "velocity": 119,
      "chip": "ym2612"
    },
    {
      "channel": 1,
      "note": 92,
      "start": 4.8803,
      "duration": 0.099,
      "velocity": 119,
      "chip": "ym2612"
    },
    {
      "channel": 0,
      "note": 90,
      "start": 4.9792,
      "duration": 0.0379,
      "velocity": 119,
      "chip": "ym2612"
    },
    {
      "channel": 1,
      "note": 80,
      "start": 4.9795,
      "duration": 0.0379,
      "velocity": 119,
      "chip": "ym2612"
    },
    {
      "channel": 4,
      "note": 51,
      "start": 4.98,
      "duration": 0.1369,
      "velocity": 105,
      "chip": "ym2612"
    },
    {
      "channel": 0,
      "note": 78,
      "start": 5.0173,
      "duration": 0.099,
      "velocity": 119,
      "chip": "ym2612"
    },
    {
      "channel": 1,
      "note": 91,
      "start": 5.0176,
      "duration": 0.099,
      "velocity": 119,
      "chip": "ym2612"
    },
    {
      "channel": 0,
      "note": 89,
      "start": 5.1164,
      "duration": 0.099,
      "velocity": 119,
      "chip": "ym2612"
    },
    {
      "channel": 1,
      "note": 79,
      "start": 5.1167,
      "duration": 0.099,
      "velocity": 119,
      "chip": "ym2612"
    },
    {
      "channel": 4,
      "note": 51,
      "start": 5.1172,
      "duration": 0.1979,
      "velocity": 105,
      "chip": "ym2612"
    },
    {
      "channel": 0,
      "note": 77,
      "start": 5.2156,
      "duration": 0.099,
      "velocity": 119,
      "chip": "ym2612"
    },
    {
      "channel": 1,
      "note": 90,
      "start": 5.2158,
      "duration": 0.099,
      "velocity": 119,
      "chip": "ym2612"
    },
    {
      "channel": 0,
      "note": 88,
      "start": 5.3147,
      "duration": 0.099,
      "velocity": 119,
      "chip": "ym2612"
    },
    {
      "channel": 1,
      "note": 78,
      "start": 5.3149,
      "duration": 0.099,
      "velocity": 119,
      "chip": "ym2612"
    },
    {
      "channel": 4,
      "note": 51,
      "start": 5.3153,
      "duration": 0.1981,
      "velocity": 105,
      "chip": "ym2612"
    },
    {
      "channel": 0,
      "note": 76,
      "start": 5.4138,
      "duration": 0.099,
      "velocity": 119,
      "chip": "ym2612"
    },
    {
      "channel": 1,
      "note": 89,
      "start": 5.4141,
      "duration": 0.099,
      "velocity": 119,
      "chip": "ym2612"
    },
    {
      "channel": 0,
      "note": 87,
      "start": 5.5129,
      "duration": 0.099,
      "velocity": 119,
      "chip": "ym2612"
    },
    {
      "channel": 1,
      "note": 77,
      "start": 5.5132,
      "duration": 0.099,
      "velocity": 119,
      "chip": "ym2612"
    },
    {
      "channel": 4,
      "note": 51,
      "start": 5.5136,
      "duration": 0.1981,
      "velocity": 105,
      "chip": "ym2612"
    },
    {
      "channel": 0,
      "note": 75,
      "start": 5.6121,
      "duration": 0.099,
      "velocity": 119,
      "chip": "ym2612"
    },
    {
      "channel": 1,
      "note": 88,
      "start": 5.6123,
      "duration": 0.099,
      "velocity": 119,
      "chip": "ym2612"
    },
    {
      "channel": 0,
      "note": 86,
      "start": 5.7112,
      "duration": 0.0379,
      "velocity": 119,
      "chip": "ym2612"
    },
    {
      "channel": 1,
      "note": 76,
      "start": 5.7114,
      "duration": 0.0379,
      "velocity": 119,
      "chip": "ym2612"
    },
    {
      "channel": 4,
      "note": 51,
      "start": 5.712,
      "duration": 0.1369,
      "velocity": 105,
      "chip": "ym2612"
    },
    {
      "channel": 0,
      "note": 74,
      "start": 5.7493,
      "duration": 0.099,
      "velocity": 119,
      "chip": "ym2612"
    },
    {
      "channel": 1,
      "note": 87,
      "start": 5.7495,
      "duration": 0.099,
      "velocity": 119,
      "chip": "ym2612"
    },
    {
      "channel": 0,
      "note": 85,
      "start": 5.8484,
      "duration": 0.099,
      "velocity": 119,
      "chip": "ym2612"
    },
    {
      "channel": 1,
      "note": 75,
      "start": 5.8486,
      "duration": 0.099,
      "velocity": 119,
      "chip": "ym2612"
    },
    {
      "channel": 4,
      "note": 51,
      "start": 5.8492,
      "duration": 0.198,
      "velocity": 105,
      "chip": "ym2612"
    },
    {
      "channel": 0,
      "note": 73,
      "start": 5.9475,
      "duration": 0.099,
      "velocity": 119,
      "chip": "ym2612"
    },
    {
      "channel": 1,
      "note": 86,
      "start": 5.9478,
      "duration": 0.099,
      "velocity": 119,
      "chip": "ym2612"
    },
    {
      "channel": 0,
      "note": 84,
      "start": 6.0466,
      "duration": 0.099,
      "velocity": 119,
      "chip": "ym2612"
    },
    {
      "channel": 1,
      "note": 74,
      "start": 6.0469,
      "duration": 0.099,
      "velocity": 119,
      "chip": "ym2612"
    },
    {
      "channel": 4,
      "note": 51,
      "start": 6.0473,
      "duration": 0.1981,
      "velocity": 105,
      "chip": "ym2612"
    },
    {
      "channel": 0,
      "note": 72,
      "start": 6.1457,
      "duration": 0.099,
      "velocity": 119,
      "chip": "ym2612"
    },
    {
      "channel": 1,
      "note": 85,
      "start": 6.146,
      "duration": 0.099,
      "velocity": 119,
      "chip": "ym2612"
    },
    {
      "channel": 0,
      "note": 83,
      "start": 6.2449,
      "duration": 0.0379,
      "velocity": 119,
      "chip": "ym2612"
    },
    {
      "channel": 1,
      "note": 73,
      "start": 6.2451,
      "duration": 0.0379,
      "velocity": 119,
      "chip": "ym2612"
    },
    {
      "channel": 4,
      "note": 51,
      "start": 6.2455,
      "duration": 0.1379,
      "velocity": 105,
      "chip": "ym2612"
    },
    {
      "channel": 0,
      "note": 71,
      "start": 6.2829,
      "duration": 0.099,
      "velocity": 119,
      "chip": "ym2612"
    },
    {
      "channel": 1,
      "note": 84,
      "start": 6.2832,
      "duration": 0.099,
      "velocity": 119,
      "chip": "ym2612"
    },
    {
      "channel": 0,
      "note": 94,
      "start": 6.3821,
      "duration": 0.0382,
      "velocity": 119,
      "chip": "ym2612"
    },
    {
      "channel": 1,
      "note": 72,
      "start": 6.3823,
      "duration": 0.0382,
      "velocity": 119,
      "chip": "ym2612"
    },
    {
      "channel": 2,
      "note": 75,
      "start": 6.3828,
      "duration": 0.5336,
      "velocity": 98,
      "chip": "ym2612"
    },
    {
      "channel": 3,
      "note": 70,
      "start": 6.3832,
      "duration": 0.5334,
      "velocity": 98,
      "chip": "ym2612"
    },
    {
      "channel": 4,
      "note": 51,
      "start": 6.3837,
      "duration": 0.1364,
      "velocity": 105,
      "chip": "ym2612"
    },
    {
      "channel": 0,
      "note": 82,
      "start": 6.4204,
      "duration": 0.099,
      "velocity": 119,
      "chip": "ym2612"
    },
    {
      "channel": 1,
      "note": 83,
      "start": 6.4207,
      "duration": 0.099,
      "velocity": 119,
      "chip": "ym2612"
    },
    {
      "channel": 0,
      "note": 93,
      "start": 6.5195,
      "duration": 0.099,
      "velocity": 119,
      "chip": "ym2612"
    },
    {
      "channel": 1,
      "note": 71,
      "start": 6.5198,
      "duration": 0.099,
      "velocity": 119,
      "chip": "ym2612"
    },
    {
      "channel": 4,
      "note": 51,
      "start": 6.5203,
      "duration": 0.1979,
      "velocity": 105,
      "chip": "ym2612"
    },
    {
      "channel": 0,
      "note": 81,
      "start": 6.6186,
      "duration": 0.099,
      "velocity": 119,
      "chip": "ym2612"
    },
    {
      "channel": 1,
      "note": 94,
      "start": 6.6189,
      "duration": 0.099,
      "velocity": 119,
      "chip": "ym2612"
    },
    {
      "channel": 0,
      "note": 92,
      "start": 6.7178,
      "duration": 0.099,
      "velocity": 119,
      "chip": "ym2612"
    },
    {
      "channel": 1,
      "note": 82,
      "start": 6.718,
      "duration": 0.099,
      "velocity": 119,
      "chip": "ym2612"
    },
    {
      "channel": 4,
      "note": 51,
      "start": 6.7184,
      "duration": 0.1985,
      "velocity": 105,
      "chip": "ym2612"
    },
    {
      "channel": 0,
      "note": 80,
      "start": 6.8169,
      "duration": 0.099,
      "velocity": 119,
      "chip": "ym2612"
    },
    {
      "channel": 1,
      "note": 93,
      "start": 6.8171,
      "duration": 0.099,
      "velocity": 119,
      "chip": "ym2612"
    },
    {
      "channel": 0,
      "note": 91,
      "start": 6.916,
      "duration": 0.099,
      "velocity": 119,
      "chip": "ym2612"
    },
    {
      "channel": 1,
      "note": 81,
      "start": 6.9163,
      "duration": 0.099,
      "velocity": 119,
      "chip": "ym2612"
    },
    {
      "channel": 2,
      "note": 77,
      "start": 6.9165,
      "duration": 0.5336,
      "velocity": 98,
      "chip": "ym2612"
    },
    {
      "channel": 3,
      "note": 73,
      "start": 6.9168,
      "duration": 0.5336,
      "velocity": 98,
      "chip": "ym2612"
    },
    {
      "channel": 4,
      "note": 51,
      "start": 6.917,
      "duration": 0.1977,
      "velocity": 105,
      "chip": "ym2612"
    },
    {
      "channel": 0,
      "note": 79,
      "start": 7.0151,
      "duration": 0.099,
      "velocity": 119,
      "chip": "ym2612"
    },
    {
      "channel": 1,
      "note": 92,
      "start": 7.0154,
      "duration": 0.099,
      "velocity": 119,
      "chip": "ym2612"
    },
    {
      "channel": 0,
      "note": 90,
      "start": 7.1143,
      "duration": 0.0379,
      "velocity": 119,
      "chip": "ym2612"
    },
    {
      "channel": 1,
      "note": 80,
      "start": 7.1145,
      "duration": 0.0379,
      "velocity": 119,
      "chip": "ym2612"
    },
    {
      "channel": 4,
      "note": 51,
      "start": 7.1151,
      "duration": 0.1369,
      "velocity": 105,
      "chip": "ym2612"
    },
    {
      "channel": 0,
      "note": 78,
      "start": 7.1523,
      "duration": 0.099,
      "velocity": 119,
      "chip": "ym2612"
    },
    {
      "channel": 1,
      "note": 91,
      "start": 7.1526,
      "duration": 0.099,
      "velocity": 119,
      "chip": "ym2612"
    },
    {
      "channel": 0,
      "note": 89,
      "start": 7.2515,
      "duration": 0.099,
      "velocity": 119,
      "chip": "ym2612"
    },
    {
      "channel": 1,
      "note": 79,
      "start": 7.2517,
      "duration": 0.099,
      "velocity": 119,
      "chip": "ym2612"
    },
    {
      "channel": 4,
      "note": 51,
      "start": 7.2522,
      "duration": 0.1984,
      "velocity": 105,
      "chip": "ym2612"
    },
    {
      "channel": 0,
      "note": 77,
      "start": 7.3506,
      "duration": 0.099,
      "velocity": 119,
      "chip": "ym2612"
    },
    {
      "channel": 1,
      "note": 90,
      "start": 7.3508,
      "duration": 0.099,
      "velocity": 119,
      "chip": "ym2612"
    },
    {
      "channel": 0,
      "note": 88,
      "start": 7.4497,
      "duration": 0.099,
      "velocity": 119,
      "chip": "ym2612"
    },
    {
      "channel": 1,
      "note": 78,
      "start": 7.45,
      "duration": 0.099,
      "velocity": 119,
      "chip": "ym2612"
    },
    {
      "channel": 2,
      "note": 78,
      "start": 7.4502,
      "duration": 0.4725,
      "velocity": 98,
      "chip": "ym2612"
    },
    {
      "channel": 3,
      "note": 75,
      "start": 7.4505,
      "duration": 0.4725,
      "velocity": 98,
      "chip": "ym2612"
    },
    {
      "channel": 4,
      "note": 51,
      "start": 7.4507,
      "duration": 0.1977,
      "velocity": 105,
      "chip": "ym2612"
    },
    {
      "channel": 0,
      "note": 76,
      "start": 7.5488,
      "duration": 0.099,
      "velocity": 119,
      "chip": "ym2612"
    },
    {
      "channel": 1,
      "note": 89,
      "start": 7.5491,
      "duration": 0.099,
      "velocity": 119,
      "chip": "ym2612"
    },
    {
      "channel": 0,
      "note": 87,
      "start": 7.648,
      "duration": 0.038,
      "velocity": 119,
      "chip": "ym2612"
    },
    {
      "channel": 1,
      "note": 77,
      "start": 7.6482,
      "duration": 0.038,
      "velocity": 119,
      "chip": "ym2612"
    },
    {
      "channel": 4,
      "note": 51,
      "start": 7.6486,
      "duration": 0.1371,
      "velocity": 105,
      "chip": "ym2612"
    },
    {
      "channel": 0,
      "note": 75,
      "start": 7.6861,
      "duration": 0.099,
      "velocity": 119,
      "chip": "ym2612"
    },
    {
      "channel": 1,
      "note": 88,
      "start": 7.6863,
      "duration": 0.099,
      "velocity": 119,
      "chip": "ym2612"
    },
    {
      "channel": 0,
      "note": 86,
      "start": 7.7852,
      "duration": 0.038,
      "velocity": 119,
      "chip": "ym2612"
    },
    {
      "channel": 1,
      "note": 76,
      "start": 7.7854,
      "duration": 0.038,
      "velocity": 119,
      "chip": "ym2612"
    },
    {
      "channel": 4,
      "note": 51,
      "start": 7.786,
      "duration": 0.1373,
      "velocity": 105,
      "chip": "ym2612"
    },
    {
      "channel": 0,
      "note": 74,
      "start": 7.8233,
      "duration": 0.099,
      "velocity": 119,
      "chip": "ym2612"
    },
    {
      "channel": 1,
      "note": 87,
      "start": 7.8235,
      "duration": 0.099,
      "velocity": 119,
      "chip": "ym2612"
    },
    {
      "channel": 0,
      "note": 85,
      "start": 7.9224,
      "duration": 0.099,
      "velocity": 119,
      "chip": "ym2612"
    },
    {
      "channel": 1,
      "note": 75,
      "start": 7.9227,
      "duration": 0.099,
      "velocity": 119,
      "chip": "ym2612"
    },
    {
      "channel": 2,
      "note": 80,
      "start": 7.9229,
      "duration": 0.5946,
      "velocity": 98,
      "chip": "ym2612"
    },
    {
      "channel": 3,
      "note": 77,
      "start": 7.9232,
      "duration": 0.5946,
      "velocity": 98,
      "chip": "ym2612"
    },
    {
      "channel": 4,
      "note": 51,
      "start": 7.9236,
      "duration": 0.1976,
      "velocity": 105,
      "chip": "ym2612"
    },
    {
      "channel": 0,
      "note": 73,
      "start": 8.0215,
      "duration": 0.099,
      "velocity": 119,
      "chip": "ym2612"
    },
    {
      "channel": 1,
      "note": 86,
      "start": 8.0218,
      "duration": 0.099,
      "velocity": 119,
      "chip": "ym2612"
    },
    {
      "channel": 0,
      "note": 84,
      "start": 8.1207,
      "duration": 0.099,
      "velocity": 119,
      "chip": "ym2612"
    },
    {
      "channel": 1,
      "note": 74,
      "start": 8.1209,
      "duration": 0.099,
      "velocity": 119,
      "chip": "ym2612"
    },
    {
      "channel": 4,
      "note": 51,
      "start": 8.1213,
      "duration": 0.1981,
      "velocity": 105,
      "chip": "ym2612"
    },
    {
      "channel": 0,
      "note": 72,
      "start": 8.2198,
      "duration": 0.099,
      "velocity": 119,
      "chip": "ym2612"
    },
    {
      "channel": 1,
      "note": 85,
      "start": 8.22,
      "duration": 0.099,
      "velocity": 119,
      "chip": "ym2612"
    },
    {
      "channel": 0,
      "note": 83,
      "start": 8.3189,
      "duration": 0.099,
      "velocity": 119,
      "chip": "ym2612"
    },
    {
      "channel": 1,
      "note": 73,
      "start": 8.3191,
      "duration": 0.099,
      "velocity": 119,
      "chip": "ym2612"
    },
    {
      "channel": 4,
      "note": 51,
      "start": 8.3195,
      "duration": 0.1985,
      "velocity": 105,
      "chip": "ym2612"
    },
    {
      "channel": 0,
      "note": 71,
      "start": 8.418,
      "duration": 0.099,
      "velocity": 119,
      "chip": "ym2612"
    },
    {
      "channel": 1,
      "note": 84,
      "start": 8.4183,
      "duration": 0.099,
      "velocity": 119,
      "chip": "ym2612"
    },
    {
      "channel": 0,
      "note": 94,
      "start": 8.5172,
      "duration": 0.0379,
      "velocity": 119,
      "chip": "ym2612"
    },
    {
      "channel": 1,
      "note": 72,
      "start": 8.5174,
      "duration": 0.0379,
      "velocity": 119,
      "chip": "ym2612"
    },
    {
      "channel": 2,
      "note": 75,
      "start": 8.5177,
      "duration": 2.0736,
      "velocity": 98,
      "chip": "ym2612"
    },
    {
      "channel": 3,
      "note": 82,
      "start": 8.5179,
      "duration": 2.0736,
      "velocity": 98,
      "chip": "ym2612"
    },
    {
      "channel": 4,
      "note": 51,
      "start": 8.5183,
      "duration": 0.1366,
      "velocity": 105,
      "chip": "ym2612"
    },
    {
      "channel": 0,
      "note": 82,
      "start": 8.5552,
      "duration": 0.099,
      "velocity": 119,
      "chip": "ym2612"
    },
    {
      "channel": 1,
      "note": 83,
      "start": 8.5555,
      "duration": 0.099,
      "velocity": 119,
      "chip": "ym2612"
    },
    {
      "channel": 0,
      "note": 93,
      "start": 8.6544,
      "duration": 0.099,
      "velocity": 119,
      "chip": "ym2612"
    },
    {
      "channel": 1,
      "note": 71,
      "start": 8.6546,
      "duration": 0.099,
      "velocity": 119,
      "chip": "ym2612"
    },
    {
      "channel": 4,
      "note": 51,
      "start": 8.6552,
      "duration": 0.1979,
      "velocity": 105,
      "chip": "ym2612"
    },
    {
      "channel": 0,
      "note": 81,
      "start": 8.7535,
      "duration": 0.099,
      "velocity": 119,
      "chip": "ym2612"
    },
    {
      "channel": 1,
      "note": 94,
      "start": 8.7537,
      "duration": 0.099,
      "velocity": 119,
      "chip": "ym2612"
    },
    {
      "channel": 0,
      "note": 92,
      "start": 8.8526,
      "duration": 0.099,
      "velocity": 119,
      "chip": "ym2612"
    },
    {
      "channel": 1,
      "note": 82,
      "start": 8.8529,
      "duration": 0.099,
      "velocity": 119,
      "chip": "ym2612"
    },
    {
      "channel": 4,
      "note": 51,
      "start": 8.8532,
      "duration": 0.1983,
      "velocity": 105,
      "chip": "ym2612"
    },
    {
      "channel": 0,
      "note": 80,
      "start": 8.9517,
      "duration": 0.0991,
      "velocity": 119,
      "chip": "ym2612"
    },
    {
      "channel": 1,
      "note": 93,
      "start": 8.952,
      "duration": 0.0991,
      "velocity": 119,
      "chip": "ym2612"
    },
    {
      "channel": 0,
      "note": 91,
      "start": 9.051,
      "duration": 0.0378,
      "velocity": 119,
      "chip": "ym2612"
    },
    {
      "channel": 1,
      "note": 81,
      "start": 9.0512,
      "duration": 0.0378,
      "velocity": 119,
      "chip": "ym2612"
    },
    {
      "channel": 4,
      "note": 51,
      "start": 9.0516,
      "duration": 0.137,
      "velocity": 105,
      "chip": "ym2612"
    },
    {
      "channel": 0,
      "note": 79,
      "start": 9.089,
      "duration": 0.099,
      "velocity": 119,
      "chip": "ym2612"
    },
    {
      "channel": 1,
      "note": 92,
      "start": 9.0892,
      "duration": 0.099,
      "velocity": 119,
      "chip": "ym2612"
    },
    {
      "channel": 0,
      "note": 90,
      "start": 9.1881,
      "duration": 0.0379,
      "velocity": 119,
      "chip": "ym2612"
    },
    {
      "channel": 1,
      "note": 80,
      "start": 9.1883,
      "duration": 0.0379,
      "velocity": 119,
      "chip": "ym2612"
    },
    {
      "channel": 4,
      "note": 51,
      "start": 9.1889,
      "duration": 0.1369,
      "velocity": 105,
      "chip": "ym2612"
    },
    {
      "channel": 0,
      "note": 78,
      "start": 9.2262,
      "duration": 0.099,
      "velocity": 119,
      "chip": "ym2612"
    },
    {
      "channel": 1,
      "note": 91,
      "start": 9.2264,
      "duration": 0.099,
      "velocity": 119,
      "chip": "ym2612"
    },
    {
      "channel": 0,
      "note": 89,
      "start": 9.3253,
      "duration": 0.099,
      "velocity": 119,
      "chip": "ym2612"
    },
    {
      "channel": 1,
      "note": 79,
      "start": 9.3255,
      "duration": 0.099,
      "velocity": 119,
      "chip": "ym2612"
    },
    {
      "channel": 4,
      "note": 51,
      "start": 9.3261,
      "duration": 0.198,
      "velocity": 105,
      "chip": "ym2612"
    },
    {
      "channel": 0,
      "note": 77,
      "start": 9.4244,
      "duration": 0.099,
      "velocity": 119,
      "chip": "ym2612"
    },
    {
      "channel": 1,
      "note": 90,
      "start": 9.4247,
      "duration": 0.099,
      "velocity": 119,
      "chip": "ym2612"
    },
    {
      "channel": 0,
      "note": 88,
      "start": 9.5236,
      "duration": 0.099,
      "velocity": 119,
      "chip": "ym2612"
    },
    {
      "channel": 1,
      "note": 78,
      "start": 9.5238,
      "duration": 0.099,
      "velocity": 119,
      "chip": "ym2612"
    },
    {
      "channel": 4,
      "note": 51,
      "start": 9.5242,
      "duration": 0.1981,
      "velocity": 105,
      "chip": "ym2612"
    },
    {
      "channel": 0,
      "note": 76,
      "start": 9.6227,
      "duration": 0.099,
      "velocity": 119,
      "chip": "ym2612"
    },
    {
      "channel": 1,
      "note": 89,
      "start": 9.6229,
      "duration": 0.099,
      "velocity": 119,
      "chip": "ym2612"
    },
    {
      "channel": 0,
      "note": 87,
      "start": 9.7218,
      "duration": 0.099,
      "velocity": 119,
      "chip": "ym2612"
    },
    {
      "channel": 1,
      "note": 77,
      "start": 9.722,
      "duration": 0.099,
      "velocity": 119,
      "chip": "ym2612"
    },
    {
      "channel": 4,
      "note": 51,
      "start": 9.7224,
      "duration": 0.1981,
      "velocity": 105,
      "chip": "ym2612"
    },
    {
      "channel": 0,
      "note": 75,
      "start": 9.8209,
      "duration": 0.099,
      "velocity": 119,
      "chip": "ym2612"
    },
    {
      "channel": 1,
      "note": 88,
      "start": 9.8212,
      "duration": 0.099,
      "velocity": 119,
      "chip": "ym2612"
    },
    {
      "channel": 0,
      "note": 86,
      "start": 9.92,
      "duration": 0.038,
      "velocity": 119,
      "chip": "ym2612"
    },
    {
      "channel": 1,
      "note": 76,
      "start": 9.9203,
      "duration": 0.038,
      "velocity": 119,
      "chip": "ym2612"
    },
    {
      "channel": 4,
      "note": 51,
      "start": 9.9208,
      "duration": 0.1369,
      "velocity": 105,
      "chip": "ym2612"
    },
    {
      "channel": 0,
      "note": 74,
      "start": 9.9581,
      "duration": 0.099,
      "velocity": 119,
      "chip": "ym2612"
    },
    {
      "channel": 1,
      "note": 87,
      "start": 9.9584,
      "duration": 0.099,
      "velocity": 119,
      "chip": "ym2612"
    },
    {
      "channel": 0,
      "note": 85,
      "start": 10.0573,
      "duration": 0.099,
      "velocity": 119,
      "chip": "ym2612"
    },
    {
      "channel": 1,
      "note": 75,
      "start": 10.0575,
      "duration": 0.099,
      "velocity": 119,
      "chip": "ym2612"
    },
    {
      "channel": 4,
      "note": 51,
      "start": 10.058,
      "duration": 0.198,
      "velocity": 105,
      "chip": "ym2612"
    },
    {
      "channel": 0,
      "note": 73,
      "start": 10.1564,
      "duration": 0.099,
      "velocity": 119,
      "chip": "ym2612"
    },
    {
      "channel": 1,
      "note": 86,
      "start": 10.1566,
      "duration": 0.099,
      "velocity": 119,
      "chip": "ym2612"
    },
    {
      "channel": 0,
      "note": 84,
      "start": 10.2555,
      "duration": 0.099,
      "velocity": 119,
      "chip": "ym2612"
    },
    {
      "channel": 1,
      "note": 74,
      "start": 10.2558,
      "duration": 0.099,
      "velocity": 119,
      "chip": "ym2612"
    },
    {
      "channel": 4,
      "note": 51,
      "start": 10.2562,
      "duration": 0.1981,
      "velocity": 105,
      "chip": "ym2612"
    },
    {
      "channel": 0,
      "note": 72,
      "start": 10.3546,
      "duration": 0.099,
      "velocity": 119,
      "chip": "ym2612"
    },
    {
      "channel": 1,
      "note": 85,
      "start": 10.3549,
      "duration": 0.099,
      "velocity": 119,
      "chip": "ym2612"
    },
    {
      "channel": 0,
      "note": 83,
      "start": 10.4538,
      "duration": 0.0379,
      "velocity": 119,
      "chip": "ym2612"
    },
    {
      "channel": 1,
      "note": 73,
      "start": 10.454,
      "duration": 0.0379,
      "velocity": 119,
      "chip": "ym2612"
    },
    {
      "channel": 4,
      "note": 51,
      "start": 10.4544,
      "duration": 0.1374,
      "velocity": 105,
      "chip": "ym2612"
    },
    {
      "channel": 0,
      "note": 71,
      "start": 10.4918,
      "duration": 0.099,
      "velocity": 119,
      "chip": "ym2612"
    },
    {
      "channel": 1,
      "note": 84,
      "start": 10.4921,
      "duration": 0.099,
      "velocity": 119,
      "chip": "ym2612"
    },
    {
      "channel": 0,
      "note": 94,
      "start": 10.591,
      "duration": 0.038,
      "velocity": 119,
      "chip": "ym2612"
    },
    {
      "channel": 1,
      "note": 72,
      "start": 10.5912,
      "duration": 0.038,
      "velocity": 119,
      "chip": "ym2612"
    },
    {
      "channel": 2,
      "note": 75,
      "start": 10.5915,
      "duration": 2.1347,
      "velocity": 98,
      "chip": "ym2612"
    },
    {
      "channel": 3,
      "note": 80,
      "start": 10.5917,
      "duration": 2.1347,
      "velocity": 98,
      "chip": "ym2612"
    },
    {
      "channel": 4,
      "note": 51,
      "start": 10.5921,
      "duration": 0.1366,
      "velocity": 105,
      "chip": "ym2612"
    },
    {
      "channel": 0,
      "note": 82,
      "start": 10.629,
      "duration": 0.099,
      "velocity": 119,
      "chip": "ym2612"
    },
    {
      "channel": 1,
      "note": 83,
      "start": 10.6293,
      "duration": 0.099,
      "velocity": 119,
      "chip": "ym2612"
    },
    {
      "channel": 0,
      "note": 93,
      "start": 10.7282,
      "duration": 0.099,
      "velocity": 119,
      "chip": "ym2612"
    },
    {
      "channel": 1,
      "note": 71,
      "start": 10.7284,
      "duration": 0.099,
      "velocity": 119,
      "chip": "ym2612"
    },
    {
      "channel": 4,
      "note": 51,
      "start": 10.729,
      "duration": 0.198,
      "velocity": 105,
      "chip": "ym2612"
    },
    {
      "channel": 0,
      "note": 81,
      "start": 10.8273,
      "duration": 0.099,
      "velocity": 119,
      "chip": "ym2612"
    },
    {
      "channel": 1,
      "note": 94,
      "start": 10.8276,
      "duration": 0.099,
      "velocity": 119,
      "chip": "ym2612"
    },
    {
      "channel": 0,
      "note": 92,
      "start": 10.9264,
      "duration": 0.099,
      "velocity": 119,
      "chip": "ym2612"
    },
    {
      "channel": 1,
      "note": 82,
      "start": 10.9267,
      "duration": 0.099,
      "velocity": 119,
      "chip": "ym2612"
    },
    {
      "channel": 4,
      "note": 51,
      "start": 10.9271,
      "duration": 0.1981,
      "velocity": 105,
      "chip": "ym2612"
    },
    {
      "channel": 0,
      "note": 80,
      "start": 11.0256,
      "duration": 0.099,
      "velocity": 119,
      "chip": "ym2612"
    },
    {
      "channel": 1,
      "note": 93,
      "start": 11.0258,
      "duration": 0.099,
      "velocity": 119,
      "chip": "ym2612"
    },
    {
      "channel": 0,
      "note": 91,
      "start": 11.1247,
      "duration": 0.099,
      "velocity": 119,
      "chip": "ym2612"
    },
    {
      "channel": 1,
      "note": 81,
      "start": 11.1249,
      "duration": 0.099,
      "velocity": 119,
      "chip": "ym2612"
    },
    {
      "channel": 4,
      "note": 51,
      "start": 11.1253,
      "duration": 0.1981,
      "velocity": 105,
      "chip": "ym2612"
    },
    {
      "channel": 0,
      "note": 79,
      "start": 11.2238,
      "duration": 0.099,
      "velocity": 119,
      "chip": "ym2612"
    },
    {
      "channel": 1,
      "note": 92,
      "start": 11.2241,
      "duration": 0.099,
      "velocity": 119,
      "chip": "ym2612"
    },
    {
      "channel": 0,
      "note": 90,
      "start": 11.3229,
      "duration": 0.038,
      "velocity": 119,
      "chip": "ym2612"
    },
    {
      "channel": 1,
      "note": 80,
      "start": 11.3232,
      "duration": 0.038,
      "velocity": 119,
      "chip": "ym2612"
    },
    {
      "channel": 4,
      "note": 51,
      "start": 11.3237,
      "duration": 0.137,
      "velocity": 105,
      "chip": "ym2612"
    },
    {
      "channel": 0,
      "note": 78,
      "start": 11.361,
      "duration": 0.099,
      "velocity": 119,
      "chip": "ym2612"
    },
    {
      "channel": 1,
      "note": 91,
      "start": 11.3613,
      "duration": 0.099,
      "velocity": 119,
      "chip": "ym2612"
    },
    {
      "channel": 0,
      "note": 89,
      "start": 11.4602,
      "duration": 0.099,
      "velocity": 119,
      "chip": "ym2612"
    },
    {
      "channel": 1,
      "note": 79,
      "start": 11.4604,
      "duration": 0.099,
      "velocity": 119,
      "chip": "ym2612"
    },
    {
      "channel": 4,
      "note": 51,
      "start": 11.461,
      "duration": 0.198,
      "velocity": 105,
      "chip": "ym2612"
    },
    {
      "channel": 0,
      "note": 77,
      "start": 11.5593,
      "duration": 0.099,
      "velocity": 119,
      "chip": "ym2612"
    },
    {
      "channel": 1,
      "note": 90,
      "start": 11.5595,
      "duration": 0.099,
      "velocity": 119,
      "chip": "ym2612"
    },
    {
      "channel": 0,
      "note": 88,
      "start": 11.6584,
      "duration": 0.099,
      "velocity": 119,
      "chip": "ym2612"
    },
    {
      "channel": 1,
      "note": 78,
      "start": 11.6587,
      "duration": 0.099,
      "velocity": 119,
      "chip": "ym2612"
    },
    {
      "channel": 4,
      "note": 51,
      "start": 11.6591,
      "duration": 0.1983,
      "velocity": 105,
      "chip": "ym2612"
    },
    {
      "channel": 0,
      "note": 76,
      "start": 11.7576,
      "duration": 0.0991,
      "velocity": 119,
      "chip": "ym2612"
    },
    {
      "channel": 1,
      "note": 89,
      "start": 11.7578,
      "duration": 0.0991,
      "velocity": 119,
      "chip": "ym2612"
    },
    {
      "channel": 0,
      "note": 87,
      "start": 11.8568,
      "duration": 0.0378,
      "velocity": 119,
      "chip": "ym2612"
    },
    {
      "channel": 1,
      "note": 77,
      "start": 11.8571,
      "duration": 0.0378,
      "velocity": 119,
      "chip": "ym2612"
    },
    {
      "channel": 4,
      "note": 51,
      "start": 11.8575,
      "duration": 0.1369,
      "velocity": 105,
      "chip": "ym2612"
    },
    {
      "channel": 0,
      "note": 75,
      "start": 11.8948,
      "duration": 0.099,
      "velocity": 119,
      "chip": "ym2612"
    },
    {
      "channel": 1,
      "note": 88,
      "start": 11.895,
      "duration": 0.099,
      "velocity": 119,
      "chip": "ym2612"
    },
    {
      "channel": 0,
      "note": 86,
      "start": 11.9939,
      "duration": 0.0379,
      "velocity": 119,
      "chip": "ym2612"
    },
    {
      "channel": 1,
      "note": 76,
      "start": 11.9941,
      "duration": 0.0379,
      "velocity": 119,
      "chip": "ym2612"
    },
    {
      "channel": 4,
      "note": 51,
      "start": 11.9947,
      "duration": 0.1369,
      "velocity": 105,
      "chip": "ym2612"
    },
    {
      "channel": 0,
      "note": 74,
      "start": 12.032,
      "duration": 0.099,
      "velocity": 119,
      "chip": "ym2612"
    },
    {
      "channel": 1,
      "note": 87,
      "start": 12.0322,
      "duration": 0.099,
      "velocity": 119,
      "chip": "ym2612"
    },
    {
      "channel": 0,
      "note": 85,
      "start": 12.1311,
      "duration": 0.099,
      "velocity": 119,
      "chip": "ym2612"
    },
    {
      "channel": 1,
      "note": 75,
      "start": 12.1313,
      "duration": 0.099,
      "velocity": 119,
      "chip": "ym2612"
    },
    {
      "channel": 4,
      "note": 51,
      "start": 12.1319,
      "duration": 0.198,
      "velocity": 105,
      "chip": "ym2612"
    },
    {
      "channel": 0,
      "note": 73,
      "start": 12.2302,
      "duration": 0.099,
      "velocity": 119,
      "chip": "ym2612"
    },
    {
      "channel": 1,
      "note": 86,
      "start": 12.2305,
      "duration": 0.099,
      "velocity": 119,
      "chip": "ym2612"
    },
    {
      "channel": 0,
      "note": 84,
      "start": 12.3294,
      "duration": 0.099,
      "velocity": 119,
      "chip": "ym2612"
    },
    {
      "channel": 1,
      "note": 74,
      "start": 12.3296,
      "duration": 0.099,
      "velocity": 119,
      "chip": "ym2612"
    },
    {
      "channel": 4,
      "note": 51,
      "start": 12.33,
      "duration": 0.1981,
      "velocity": 105,
      "chip": "ym2612"
    },
    {
      "channel": 0,
      "note": 72,
      "start": 12.4285,
      "duration": 0.099,
      "velocity": 119,
      "chip": "ym2612"
    },
    {
      "channel": 1,
      "note": 85,
      "start": 12.4287,
      "duration": 0.099,
      "velocity": 119,
      "chip": "ym2612"
    },
    {
      "channel": 0,
      "note": 83,
      "start": 12.5276,
      "duration": 0.099,
      "velocity": 119,
      "chip": "ym2612"
    },
    {
      "channel": 1,
      "note": 73,
      "start": 12.5278,
      "duration": 0.099,
      "velocity": 119,
      "chip": "ym2612"
    },
    {
      "channel": 4,
      "note": 51,
      "start": 12.5282,
      "duration": 0.1985,
      "velocity": 105,
      "chip": "ym2612"
    },
    {
      "channel": 0,
      "note": 71,
      "start": 12.6267,
      "duration": 0.099,
      "velocity": 119,
      "chip": "ym2612"
    },
    {
      "channel": 1,
      "note": 84,
      "start": 12.627,
      "duration": 0.099,
      "velocity": 119,
      "chip": "ym2612"
    },
    {
      "channel": 0,
      "note": 94,
      "start": 12.7258,
      "duration": 0.038,
      "velocity": 119,
      "chip": "ym2612"
    },
    {
      "channel": 1,
      "note": 72,
      "start": 12.7261,
      "duration": 0.038,
      "velocity": 119,
      "chip": "ym2612"
    },
    {
      "channel": 2,
      "note": 75,
      "start": 12.7263,
      "duration": 0.5336,
      "velocity": 98,
      "chip": "ym2612"
    },
    {
      "channel": 3,
      "note": 77,
      "start": 12.7266,
      "duration": 0.5336,
      "velocity": 98,
      "chip": "ym2612"
    },
    {
      "channel": 4,
      "note": 51,
      "start": 12.727,
      "duration": 0.1366,
      "velocity": 105,
      "chip": "ym2612"
    },
    {
      "channel": 0,
      "note": 82,
      "start": 12.7639,
      "duration": 0.099,
      "velocity": 119,
      "chip": "ym2612"
    },
    {
      "channel": 1,
      "note": 83,
      "start": 12.7642,
      "duration": 0.099,
      "velocity": 119,
      "chip": "ym2612"
    },
    {
      "channel": 0,
      "note": 93,
      "start": 12.8631,
      "duration": 0.099,
      "velocity": 119,
      "chip": "ym2612"
    },
    {
      "channel": 1,
      "note": 71,
      "start": 12.8633,
      "duration": 0.099,
      "velocity": 119,
      "chip": "ym2612"
    },
    {
      "channel": 4,
      "note": 51,
      "start": 12.8639,
      "duration": 0.198,
      "velocity": 105,
      "chip": "ym2612"
    },
    {
      "channel": 0,
      "note": 81,
      "start": 12.9622,
      "duration": 0.099,
      "velocity": 119,
      "chip": "ym2612"
    },
    {
      "channel": 1,
      "note": 94,
      "start": 12.9624,
      "duration": 0.099,
      "velocity": 119,
      "chip": "ym2612"
    },
    {
      "channel": 0,
      "note": 92,
      "start": 13.0613,
      "duration": 0.099,
      "velocity": 119,
      "chip": "ym2612"
    },
    {
      "channel": 1,
      "note": 82,
      "start": 13.0616,
      "duration": 0.099,
      "velocity": 119,
      "chip": "ym2612"
    },
    {
      "channel": 4,
      "note": 51,
      "start": 13.062,
      "duration": 0.1985,
      "velocity": 105,
      "chip": "ym2612"
    },
    {
      "channel": 0,
      "note": 80,
      "start": 13.1605,
      "duration": 0.099,
      "velocity": 119,
      "chip": "ym2612"
    },
    {
      "channel": 1,
      "note": 93,
      "start": 13.1607,
      "duration": 0.099,
      "velocity": 119,
      "chip": "ym2612"
    },
    {
      "channel": 0,
      "note": 91,
      "start": 13.2596,
      "duration": 0.0379,
      "velocity": 119,
      "chip": "ym2612"
    },
    {
      "channel": 1,
      "note": 81,
      "start": 13.2598,
      "duration": 0.0379,
      "velocity": 119,
      "chip": "ym2612"
    },
    {
      "channel": 2,
      "note": 75,
      "start": 13.2601,
      "duration": 0.4726,
      "velocity": 98,
      "chip": "ym2612"
    },
    {
      "channel": 3,
      "note": 78,
      "start": 13.2603,
      "duration": 0.4726,
      "velocity": 98,
      "chip": "ym2612"
    },
    {
      "channel": 4,
      "note": 51,
      "start": 13.2606,
      "duration": 0.1367,
      "velocity": 105,
      "chip": "ym2612"
    },
    {
      "channel": 0,
      "note": 79,
      "start": 13.2976,
      "duration": 0.099,
      "velocity": 119,
      "chip": "ym2612"
    },
    {
      "channel": 1,
      "note": 92,
      "start": 13.2979,
      "duration": 0.099,
      "velocity": 119,
      "chip": "ym2612"
    },
    {
      "channel": 0,
      "note": 90,
      "start": 13.3968,
      "duration": 0.038,
      "velocity": 119,
      "chip": "ym2612"
    },
    {
      "channel": 1,
      "note": 80,
      "start": 13.397,
      "duration": 0.038,
      "velocity": 119,
      "chip": "ym2612"
    },
    {
      "channel": 4,
      "note": 51,
      "start": 13.3976,
      "duration": 0.1369,
      "velocity": 105,
      "chip": "ym2612"
    },
    {
      "channel": 0,
      "note": 78,
      "start": 13.4349,
      "duration": 0.099,
      "velocity": 119,
      "chip": "ym2612"
    },
    {
      "channel": 1,
      "note": 91,
      "start": 13.4351,
      "duration": 0.099,
      "velocity": 119,
      "chip": "ym2612"
    },
    {
      "channel": 0,
      "note": 89,
      "start": 13.534,
      "duration": 0.099,
      "velocity": 119,
      "chip": "ym2612"
    },
    {
      "channel": 1,
      "note": 79,
      "start": 13.5343,
      "duration": 0.099,
      "velocity": 119,
      "chip": "ym2612"
    },
    {
      "channel": 4,
      "note": 51,
      "start": 13.5348,
      "duration": 0.1984,
      "velocity": 105,
      "chip": "ym2612"
    },
    {
      "channel": 0,
      "note": 77,
      "start": 13.6332,
      "duration": 0.099,
      "velocity": 119,
      "chip": "ym2612"
    },
    {
      "channel": 1,
      "note": 90,
      "start": 13.6334,
      "duration": 0.099,
      "velocity": 119,
      "chip": "ym2612"
    },
    {
      "channel": 0,
      "note": 88,
      "start": 13.7323,
      "duration": 0.099,
      "velocity": 119,
      "chip": "ym2612"
    },
    {
      "channel": 1,
      "note": 78,
      "start": 13.7325,
      "duration": 0.099,
      "velocity": 119,
      "chip": "ym2612"
    },
    {
      "channel": 2,
      "note": 63,
      "start": 13.7328,
      "duration": 0.5336,
      "velocity": 98,
      "chip": "ym2612"
    },
    {
      "channel": 3,
      "note": 75,
      "start": 13.733,
      "duration": 0.5336,
      "velocity": 98,
      "chip": "ym2612"
    },
    {
      "channel": 4,
      "note": 51,
      "start": 13.7333,
      "duration": 0.1977,
      "velocity": 105,
      "chip": "ym2612"
    },
    {
      "channel": 0,
      "note": 76,
      "start": 13.8314,
      "duration": 0.099,
      "velocity": 119,
      "chip": "ym2612"
    },
    {
      "channel": 1,
      "note": 89,
      "start": 13.8316,
      "duration": 0.099,
      "velocity": 119,
      "chip": "ym2612"
    },
    {
      "channel": 0,
      "note": 87,
      "start": 13.9305,
      "duration": 0.099,
      "velocity": 119,
      "chip": "ym2612"
    },
    {
      "channel": 1,
      "note": 77,
      "start": 13.9308,
      "duration": 0.099,
      "velocity": 119,
      "chip": "ym2612"
    },
    {
      "channel": 4,
      "note": 51,
      "start": 13.9312,
      "duration": 0.1981,
      "velocity": 105,
      "chip": "ym2612"
    },
    {
      "channel": 0,
      "note": 75,
      "start": 14.0297,
      "duration": 0.099,
      "velocity": 119,
      "chip": "ym2612"
    },
    {
      "channel": 1,
      "note": 88,
      "start": 14.0299,
      "duration": 0.099,
      "velocity": 119,
      "chip": "ym2612"
    },
    {
      "channel": 0,
      "note": 86,
      "start": 14.1288,
      "duration": 0.038,
      "velocity": 119,
      "chip": "ym2612"
    },
    {
      "channel": 1,
      "note": 76,
      "start": 14.129,
      "duration": 0.038,
      "velocity": 119,
      "chip": "ym2612"
    },
    {
      "channel": 4,
      "note": 51,
      "start": 14.1295,
      "duration": 0.1373,
      "velocity": 105,
      "chip": "ym2612"
    },
    {
      "channel": 0,
      "note": 74,
      "start": 14.1669,
      "duration": 0.099,
      "velocity": 119,
      "chip": "ym2612"
    },
    {
      "channel": 1,
      "note": 87,
      "start": 14.1671,
      "duration": 0.099,
      "velocity": 119,
      "chip": "ym2612"
    },
    {
      "channel": 0,
      "note": 85,
      "start": 14.266,
      "duration": 0.099,
      "velocity": 119,
      "chip": "ym2612"
    },
    {
      "channel": 1,
      "note": 75,
      "start": 14.2663,
      "duration": 0.099,
      "velocity": 119,
      "chip": "ym2612"
    },
    {
      "channel": 2,
      "note": 65,
      "start": 14.2665,
      "duration": 0.5336,
      "velocity": 98,
      "chip": "ym2612"
    },
    {
      "channel": 3,
      "note": 69,
      "start": 14.2668,
      "duration": 0.5336,
      "velocity": 98,
      "chip": "ym2612"
    },
    {
      "channel": 4,
      "note": 51,
      "start": 14.2672,
      "duration": 0.1976,
      "velocity": 105,
      "chip": "ym2612"
    },
    {
      "channel": 0,
      "note": 73,
      "start": 14.3651,
      "duration": 0.099,
      "velocity": 119,
      "chip": "ym2612"
    },
    {
      "channel": 1,
      "note": 86,
      "start": 14.3654,
      "duration": 0.099,
      "velocity": 119,
      "chip": "ym2612"
    },
    {
      "channel": 0,
      "note": 84,
      "start": 14.4643,
      "duration": 0.099,
      "velocity": 119,
      "chip": "ym2612"
    },
    {
      "channel": 1,
      "note": 74,
      "start": 14.4645,
      "duration": 0.099,
      "velocity": 119,
      "chip": "ym2612"
    },
    {
      "channel": 4,
      "note": 51,
      "start": 14.4649,
      "duration": 0.1981,
      "velocity": 105,
      "chip": "ym2612"
    },
    {
      "channel": 0,
      "note": 72,
      "start": 14.5634,
      "duration": 0.099,
      "velocity": 119,
      "chip": "ym2612"
    },
    {
      "channel": 1,
      "note": 85,
      "start": 14.5636,
      "duration": 0.099,
      "velocity": 119,
      "chip": "ym2612"
    },
    {
      "channel": 0,
      "note": 83,
      "start": 14.6625,
      "duration": 0.038,
      "velocity": 119,
      "chip": "ym2612"
    },
    {
      "channel": 1,
      "note": 73,
      "start": 14.6627,
      "duration": 0.038,
      "velocity": 119,
      "chip": "ym2612"
    },
    {
      "channel": 4,
      "note": 51,
      "start": 14.6632,
      "duration": 0.1375,
      "velocity": 105,
      "chip": "ym2612"
    },
    {
      "channel": 0,
      "note": 71,
      "start": 14.7006,
      "duration": 0.099,
      "velocity": 119,
      "chip": "ym2612"
    },
    {
      "channel": 1,
      "note": 84,
      "start": 14.7009,
      "duration": 0.099,
      "velocity": 119,
      "chip": "ym2612"
    },
    {
      "channel": 0,
      "note": 94,
      "start": 14.7998,
      "duration": 0.038,
      "velocity": 119,
      "chip": "ym2612"
    },
    {
      "channel": 1,
      "note": 72,
      "start": 14.8,
      "duration": 0.038,
      "velocity": 119,
      "chip": "ym2612"
    },
    {
      "channel": 2,
      "note": 63,
      "start": 14.8002,
      "duration": 2.1348,
      "velocity": 98,
      "chip": "ym2612"
    },
    {
      "channel": 3,
      "note": 70,
      "start": 14.8005,
      "duration": 2.1348,
      "velocity": 98,
      "chip": "ym2612"
    },
    {
      "channel": 4,
      "note": 51,
      "start": 14.8009,
      "duration": 0.1366,
      "velocity": 105,
      "chip": "ym2612"
    },
    {
      "channel": 0,
      "note": 82,
      "start": 14.8379,
      "duration": 0.099,
      "velocity": 119,
      "chip": "ym2612"
    },
    {
      "channel": 1,
      "note": 83,
      "start": 14.8381,
      "duration": 0.099,
      "velocity": 119,
      "chip": "ym2612"
    },
    {
      "channel": 0,
      "note": 93,
      "start": 14.937,
      "duration": 0.099,
      "velocity": 119,
      "chip": "ym2612"
    },
    {
      "channel": 1,
      "note": 71,
      "start": 14.9373,
      "duration": 0.099,
      "velocity": 119,
      "chip": "ym2612"
    },
    {
      "channel": 4,
      "note": 51,
      "start": 14.9378,
      "duration": 0.198,
      "velocity": 105,
      "chip": "ym2612"
    },
    {
      "channel": 0,
      "note": 81,
      "start": 15.0361,
      "duration": 0.099,
      "velocity": 119,
      "chip": "ym2612"
    },
    {
      "channel": 1,
      "note": 94,
      "start": 15.0364,
      "duration": 0.099,
      "velocity": 119,
      "chip": "ym2612"
    },
    {
      "channel": 0,
      "note": 92,
      "start": 15.1353,
      "duration": 0.099,
      "velocity": 119,
      "chip": "ym2612"
    },
    {
      "channel": 1,
      "note": 82,
      "start": 15.1355,
      "duration": 0.099,
      "velocity": 119,
      "chip": "ym2612"
    },
    {
      "channel": 4,
      "note": 51,
      "start": 15.1359,
      "duration": 0.1981,
      "velocity": 105,
      "chip": "ym2612"
    },
    {
      "channel": 0,
      "note": 80,
      "start": 15.2344,
      "duration": 0.099,
      "velocity": 119,
      "chip": "ym2612"
    },
    {
      "channel": 1,
      "note": 93,
      "start": 15.2346,
      "duration": 0.099,
      "velocity": 119,
      "chip": "ym2612"
    },
    {
      "channel": 0,
      "note": 91,
      "start": 15.3335,
      "duration": 0.099,
      "velocity": 119,
      "chip": "ym2612"
    },
    {
      "channel": 1,
      "note": 81,
      "start": 15.3337,
      "duration": 0.099,
      "velocity": 119,
      "chip": "ym2612"
    },
    {
      "channel": 4,
      "note": 51,
      "start": 15.3341,
      "duration": 0.1981,
      "velocity": 105,
      "chip": "ym2612"
    },
    {
      "channel": 0,
      "note": 79,
      "start": 15.4326,
      "duration": 0.099,
      "velocity": 119,
      "chip": "ym2612"
    },
    {
      "channel": 1,
      "note": 92,
      "start": 15.4329,
      "duration": 0.099,
      "velocity": 119,
      "chip": "ym2612"
    },
    {
      "channel": 0,
      "note": 90,
      "start": 15.5317,
      "duration": 0.038,
      "velocity": 119,
      "chip": "ym2612"
    },
    {
      "channel": 1,
      "note": 80,
      "start": 15.532,
      "duration": 0.038,
      "velocity": 119,
      "chip": "ym2612"
    },
    {
      "channel": 4,
      "note": 51,
      "start": 15.5325,
      "duration": 0.137,
      "velocity": 105,
      "chip": "ym2612"
    },
    {
      "channel": 0,
      "note": 78,
      "start": 15.5699,
      "duration": 0.099,
      "velocity": 119,
      "chip": "ym2612"
    },
    {
      "channel": 1,
      "note": 91,
      "start": 15.5701,
      "duration": 0.099,
      "velocity": 119,
      "chip": "ym2612"
    },
    {
      "channel": 0,
      "note": 89,
      "start": 15.669,
      "duration": 0.099,
      "velocity": 119,
      "chip": "ym2612"
    },
    {
      "channel": 1,
      "note": 79,
      "start": 15.6693,
      "duration": 0.099,
      "velocity": 119,
      "chip": "ym2612"
    },
    {
      "channel": 4,
      "note": 51,
      "start": 15.6698,
      "duration": 0.198,
      "velocity": 105,
      "chip": "ym2612"
    },
    {
      "channel": 0,
      "note": 77,
      "start": 15.7681,
      "duration": 0.099,
      "velocity": 119,
      "chip": "ym2612"
    },
    {
      "channel": 1,
      "note": 90,
      "start": 15.7683,
      "duration": 0.099,
      "velocity": 119,
      "chip": "ym2612"
    },
    {
      "channel": 0,
      "note": 88,
      "start": 15.8673,
      "duration": 0.099,
      "velocity": 119,
      "chip": "ym2612"
    },
    {
      "channel": 1,
      "note": 78,
      "start": 15.8675,
      "duration": 0.099,
      "velocity": 119,
      "chip": "ym2612"
    },
    {
      "channel": 4,
      "note": 51,
      "start": 15.8679,
      "duration": 0.1981,
      "velocity": 105,
      "chip": "ym2612"
    },
    {
      "channel": 0,
      "note": 76,
      "start": 15.9663,
      "duration": 0.099,
      "velocity": 119,
      "chip": "ym2612"
    },
    {
      "channel": 1,
      "note": 89,
      "start": 15.9666,
      "duration": 0.099,
      "velocity": 119,
      "chip": "ym2612"
    },
    {
      "channel": 0,
      "note": 87,
      "start": 16.0655,
      "duration": 0.0379,
      "velocity": 119,
      "chip": "ym2612"
    },
    {
      "channel": 1,
      "note": 77,
      "start": 16.0658,
      "duration": 0.0379,
      "velocity": 119,
      "chip": "ym2612"
    },
    {
      "channel": 4,
      "note": 51,
      "start": 16.0661,
      "duration": 0.1371,
      "velocity": 105,
      "chip": "ym2612"
    },
    {
      "channel": 0,
      "note": 75,
      "start": 16.1036,
      "duration": 0.099,
      "velocity": 119,
      "chip": "ym2612"
    },
    {
      "channel": 1,
      "note": 88,
      "start": 16.1038,
      "duration": 0.099,
      "velocity": 119,
      "chip": "ym2612"
    },
    {
      "channel": 0,
      "note": 86,
      "start": 16.2027,
      "duration": 0.0379,
      "velocity": 119,
      "chip": "ym2612"
    },
    {
      "channel": 1,
      "note": 76,
      "start": 16.2029,
      "duration": 0.0379,
      "velocity": 119,
      "chip": "ym2612"
    },
    {
      "channel": 4,
      "note": 51,
      "start": 16.2035,
      "duration": 0.1369,
      "velocity": 105,
      "chip": "ym2612"
    },
    {
      "channel": 0,
      "note": 74,
      "start": 16.2408,
      "duration": 0.099,
      "velocity": 119,
      "chip": "ym2612"
    },
    {
      "channel": 1,
      "note": 87,
      "start": 16.241,
      "duration": 0.099,
      "velocity": 119,
      "chip": "ym2612"
    },
    {
      "channel": 0,
      "note": 85,
      "start": 16.3399,
      "duration": 0.099,
      "velocity": 119,
      "chip": "ym2612"
    },
    {
      "channel": 1,
      "note": 75,
      "start": 16.3402,
      "duration": 0.099,
      "velocity": 119,
      "chip": "ym2612"
    },
    {
      "channel": 4,
      "note": 51,
      "start": 16.3407,
      "duration": 0.198,
      "velocity": 105,
      "chip": "ym2612"
    },
    {
      "channel": 0,
      "note": 73,
      "start": 16.439,
      "duration": 0.099,
      "velocity": 119,
      "chip": "ym2612"
    },
    {
      "channel": 1,
      "note": 86,
      "start": 16.4393,
      "duration": 0.099,
      "velocity": 119,
      "chip": "ym2612"
    },
    {
      "channel": 0,
      "note": 84,
      "start": 16.5382,
      "duration": 0.099,
      "velocity": 119,
      "chip": "ym2612"
    },
    {
      "channel": 1,
      "note": 74,
      "start": 16.5384,
      "duration": 0.099,
      "velocity": 119,
      "chip": "ym2612"
    },
    {
      "channel": 4,
      "note": 51,
      "start": 16.5388,
      "duration": 0.1981,
      "velocity": 105,
      "chip": "ym2612"
    },
    {
      "channel": 0,
      "note": 72,
      "start": 16.6373,
      "duration": 0.099,
      "velocity": 119,
      "chip": "ym2612"
    },
    {
      "channel": 1,
      "note": 85,
      "start": 16.6376,
      "duration": 0.099,
      "velocity": 119,
      "chip": "ym2612"
    },
    {
      "channel": 0,
      "note": 83,
      "start": 16.7364,
      "duration": 0.099,
      "velocity": 119,
      "chip": "ym2612"
    },
    {
      "channel": 1,
      "note": 73,
      "start": 16.7367,
      "duration": 0.099,
      "velocity": 119,
      "chip": "ym2612"
    },
    {
      "channel": 4,
      "note": 51,
      "start": 16.7371,
      "duration": 0.1985,
      "velocity": 105,
      "chip": "ym2612"
    },
    {
      "channel": 0,
      "note": 71,
      "start": 16.8355,
      "duration": 0.099,
      "velocity": 119,
      "chip": "ym2612"
    },
    {
      "channel": 1,
      "note": 84,
      "start": 16.8358,
      "duration": 0.099,
      "velocity": 119,
      "chip": "ym2612"
    },
    {
      "channel": 0,
      "note": 94,
      "start": 16.9347,
      "duration": 0.0379,
      "velocity": 119,
      "chip": "ym2612"
    },
    {
      "channel": 1,
      "note": 72,
      "start": 16.9349,
      "duration": 0.0379,
      "velocity": 119,
      "chip": "ym2612"
    },
    {
      "channel": 2,
      "note": 65,
      "start": 16.9351,
      "duration": 1.6669,
      "velocity": 98,
      "chip": "ym2612"
    },
    {
      "channel": 3,
      "note": 73,
      "start": 16.9354,
      "duration": 1.6669,
      "velocity": 98,
      "chip": "ym2612"
    },
    {
      "channel": 4,
      "note": 49,
      "start": 16.9358,
      "duration": 0.1365,
      "velocity": 105,
      "chip": "ym2612"
    },
    {
      "channel": 0,
      "note": 82,
      "start": 16.9727,
      "duration": 0.099,
      "velocity": 119,
      "chip": "ym2612"
    },
    {
      "channel": 1,
      "note": 83,
      "start": 16.973,
      "duration": 0.099,
      "velocity": 119,
      "chip": "ym2612"
    },
    {
      "channel": 0,
      "note": 93,
      "start": 17.0719,
      "duration": 0.099,
      "velocity": 119,
      "chip": "ym2612"
    },
    {
      "channel": 1,
      "note": 71,
      "start": 17.0721,
      "duration": 0.099,
      "velocity": 119,
      "chip": "ym2612"
    },
    {
      "channel": 4,
      "note": 49,
      "start": 17.0727,
      "duration": 0.198,
      "velocity": 105,
      "chip": "ym2612"
    },
    {
      "channel": 0,
      "note": 81,
      "start": 17.171,
      "duration": 0.099,
      "velocity": 119,
      "chip": "ym2612"
    },
    {
      "channel": 1,
      "note": 94,
      "start": 17.1712,
      "duration": 0.099,
      "velocity": 119,
      "chip": "ym2612"
    },
    {
      "channel": 0,
      "note": 92,
      "start": 17.2701,
      "duration": 0.099,
      "velocity": 119,
      "chip": "ym2612"
    },
    {
      "channel": 1,
      "note": 82,
      "start": 17.2704,
      "duration": 0.099,
      "velocity": 119,
      "chip": "ym2612"
    },
    {
      "channel": 4,
      "note": 49,
      "start": 17.2707,
      "duration": 0.1983,
      "velocity": 105,
      "chip": "ym2612"
    },
    {
      "channel": 0,
      "note": 80,
      "start": 17.3693,
      "duration": 0.0991,
      "velocity": 119,
      "chip": "ym2612"
    },
    {
      "channel": 1,
      "note": 93,
      "start": 17.3695,
      "duration": 0.0991,
      "velocity": 119,
      "chip": "ym2612"
    },
    {
      "channel": 0,
      "note": 91,
      "start": 17.4685,
      "duration": 0.0378,
      "velocity": 119,
      "chip": "ym2612"
    },
    {
      "channel": 1,
      "note": 81,
      "start": 17.4688,
      "duration": 0.0378,
      "velocity": 119,
      "chip": "ym2612"
    },
    {
      "channel": 4,
      "note": 49,
      "start": 17.4692,
      "duration": 0.1369,
      "velocity": 105,
      "chip": "ym2612"
    },
    {
      "channel": 0,
      "note": 79,
      "start": 17.5064,
      "duration": 0.099,
      "velocity": 119,
      "chip": "ym2612"
    },
    {
      "channel": 1,
      "note": 92,
      "start": 17.5067,
      "duration": 0.099,
      "velocity": 119,
      "chip": "ym2612"
    },
    {
      "channel": 0,
      "note": 90,
      "start": 17.6056,
      "duration": 0.012,
      "velocity": 119,
      "chip": "ym2612"
    },
    {
      "channel": 1,
      "note": 80,
      "start": 17.6058,
      "duration": 0.012,
      "velocity": 119,
      "chip": "ym2612"
    },
    {
      "channel": 4,
      "note": 49,
      "start": 17.6063,
      "duration": 0.0236,
      "velocity": 105,
      "chip": "ym2612"
    },
    {
      "channel": 0,
      "note": 78,
      "start": 17.6177,
      "duration": 0.0116,
      "velocity": 119,
      "chip": "ym2612"
    },
    {
      "channel": 1,
      "note": 91,
      "start": 17.6179,
      "duration": 0.0116,
      "velocity": 119,
      "chip": "ym2612"
    },
    {
      "channel": 0,
      "note": 89,
      "start": 17.6295,
      "duration": 0.0108,
      "velocity": 119,
      "chip": "ym2612"
    },
    {
      "channel": 1,
      "note": 79,
      "start": 17.6297,
      "duration": 0.0108,
      "velocity": 119,
      "chip": "ym2612"
    },
    {
      "channel": 4,
      "note": 49,
      "start": 17.6302,
      "duration": 0.0224,
      "velocity": 105,
      "chip": "ym2612"
    },
    {
      "channel": 0,
      "note": 77,
      "start": 17.6404,
      "duration": 0.0116,
      "velocity": 119,
      "chip": "ym2612"
    },
    {
      "channel": 1,
      "note": 90,
      "start": 17.6406,
      "duration": 0.0116,
      "velocity": 119,
      "chip": "ym2612"
    },
    {
      "channel": 0,
      "note": 88,
      "start": 17.6521,
      "duration": 0.0421,
      "velocity": 119,
      "chip": "ym2612"
    },
    {
      "channel": 1,
      "note": 78,
      "start": 17.6524,
      "duration": 0.0421,
      "velocity": 119,
      "chip": "ym2612"
    },
    {
      "channel": 4,
      "note": 49,
      "start": 17.6528,
      "duration": 0.1412,
      "velocity": 105,
      "chip": "ym2612"
    },
    {
      "channel": 0,
      "note": 76,
      "start": 17.6944,
      "duration": 0.099,
      "velocity": 119,
      "chip": "ym2612"
    },
    {
      "channel": 1,
      "note": 89,
      "start": 17.6946,
      "duration": 0.099,
      "velocity": 119,
      "chip": "ym2612"
    },
    {
      "channel": 0,
      "note": 87,
      "start": 17.7935,
      "duration": 0.038,
      "velocity": 119,
      "chip": "ym2612"
    },
    {
      "channel": 1,
      "note": 77,
      "start": 17.7937,
      "duration": 0.038,
      "velocity": 119,
      "chip": "ym2612"
    },
    {
      "channel": 4,
      "note": 49,
      "start": 17.7941,
      "duration": 0.1371,
      "velocity": 105,
      "chip": "ym2612"
    },
    {
      "channel": 0,
      "note": 75,
      "start": 17.8316,
      "duration": 0.099,
      "velocity": 119,
      "chip": "ym2612"
    },
    {
      "channel": 1,
      "note": 88,
      "start": 17.8318,
      "duration": 0.099,
      "velocity": 119,
      "chip": "ym2612"
    },
    {
      "channel": 0,
      "note": 86,
      "start": 17.9307,
      "duration": 0.038,
      "velocity": 119,
      "chip": "ym2612"
    },
    {
      "channel": 1,
      "note": 76,
      "start": 17.931,
      "duration": 0.038,
      "velocity": 119,
      "chip": "ym2612"
    },
    {
      "channel": 4,
      "note": 49,
      "start": 17.9315,
      "duration": 0.137,
      "velocity": 105,
      "chip": "ym2612"
    },
    {
      "channel": 0,
      "note": 74,
      "start": 17.9688,
      "duration": 0.099,
      "velocity": 119,
      "chip": "ym2612"
    },
    {
      "channel": 1,
      "note": 87,
      "start": 17.969,
      "duration": 0.099,
      "velocity": 119,
      "chip": "ym2612"
    },
    {
      "channel": 0,
      "note": 85,
      "start": 18.068,
      "duration": 0.099,
      "velocity": 119,
      "chip": "ym2612"
    },
    {
      "channel": 1,
      "note": 75,
      "start": 18.0682,
      "duration": 0.099,
      "velocity": 119,
      "chip": "ym2612"
    },
    {
      "channel": 4,
      "note": 49,
      "start": 18.0688,
      "duration": 0.1979,
      "velocity": 105,
      "chip": "ym2612"
    },
    {
      "channel": 0,
      "note": 73,
      "start": 18.1671,
      "duration": 0.099,
      "velocity": 119,
      "chip": "ym2612"
    },
    {
      "channel": 1,
      "note": 86,
      "start": 18.1673,
      "duration": 0.099,
      "velocity": 119,
      "chip": "ym2612"
    },
    {
      "channel": 0,
      "note": 84,
      "start": 18.2662,
      "duration": 0.099,
      "velocity": 119,
      "chip": "ym2612"
    },
    {
      "channel": 1,
      "note": 74,
      "start": 18.2664,
      "duration": 0.099,
      "velocity": 119,
      "chip": "ym2612"
    },
    {
      "channel": 4,
      "note": 49,
      "start": 18.2668,
      "duration": 0.1981,
      "velocity": 105,
      "chip": "ym2612"
    },
    {
      "channel": 0,
      "note": 72,
      "start": 18.3653,
      "duration": 0.099,
      "velocity": 119,
      "chip": "ym2612"
    },
    {
      "channel": 1,
      "note": 85,
      "start": 18.3656,
      "duration": 0.099,
      "velocity": 119,
      "chip": "ym2612"
    },
    {
      "channel": 0,
      "note": 83,
      "start": 18.4644,
      "duration": 0.038,
      "velocity": 119,
      "chip": "ym2612"
    },
    {
      "channel": 1,
      "note": 73,
      "start": 18.4647,
      "duration": 0.038,
      "velocity": 119,
      "chip": "ym2612"
    },
    {
      "channel": 4,
      "note": 49,
      "start": 18.4651,
      "duration": 0.1375,
      "velocity": 105,
      "chip": "ym2612"
    },
    {
      "channel": 0,
      "note": 71,
      "start": 18.5026,
      "duration": 0.099,
      "velocity": 119,
      "chip": "ym2612"
    },
    {
      "channel": 1,
      "note": 84,
      "start": 18.5028,
      "duration": 0.099,
      "velocity": 119,
      "chip": "ym2612"
    },
    {
      "channel": 0,
      "note": 94,
      "start": 18.6017,
      "duration": 0.0126,
      "velocity": 119,
      "chip": "ym2612"
    },
    {
      "channel": 1,
      "note": 72,
      "start": 18.6019,
      "duration": 0.0126,
      "velocity": 119,
      "chip": "ym2612"
    },
    {
      "channel": 2,
      "note": 66,
      "start": 18.6022,
      "duration": 1.3211,
      "velocity": 98,
      "chip": "ym2612"
    },
    {
      "channel": 3,
      "note": 75,
      "start": 18.6024,
      "duration": 1.3213,
      "velocity": 98,
      "chip": "ym2612"
    },
    {
      "channel": 4,
      "note": 51,
      "start": 18.6029,
      "duration": 0.0237,
      "velocity": 105,
      "chip": "ym2612"
    },
    {
      "channel": 0,
      "note": 82,
      "start": 18.6144,
      "duration": 0.0115,
      "velocity": 119,
      "chip": "ym2612"
    },
    {
      "channel": 1,
      "note": 83,
      "start": 18.6146,
      "duration": 0.0115,
      "velocity": 119,
      "chip": "ym2612"
    },
    {
      "channel": 0,
      "note": 93,
      "start": 18.626,
      "duration": 0.0109,
      "velocity": 119,
      "chip": "ym2612"
    },
    {
      "channel": 1,
      "note": 71,
      "start": 18.6263,
      "duration": 0.0109,
      "velocity": 119,
      "chip": "ym2612"
    },
    {
      "channel": 4,
      "note": 51,
      "start": 18.6268,
      "duration": 0.0224,
      "velocity": 105,
      "chip": "ym2612"
    },
    {
      "channel": 0,
      "note": 81,
      "start": 18.6371,
      "duration": 0.0115,
      "velocity": 119,
      "chip": "ym2612"
    },
    {
      "channel": 1,
      "note": 94,
      "start": 18.6373,
      "duration": 0.0115,
      "velocity": 119,
      "chip": "ym2612"
    },
    {
      "channel": 0,
      "note": 92,
      "start": 18.6487,
      "duration": 0.0417,
      "velocity": 119,
      "chip": "ym2612"
    },
    {
      "channel": 1,
      "note": 82,
      "start": 18.6489,
      "duration": 0.0417,
      "velocity": 119,
      "chip": "ym2612"
    },
    {
      "channel": 4,
      "note": 51,
      "start": 18.6493,
      "duration": 0.1408,
      "velocity": 105,
      "chip": "ym2612"
    },
    {
      "channel": 0,
      "note": 80,
      "start": 18.6905,
      "duration": 0.099,
      "velocity": 119,
      "chip": "ym2612"
    },
    {
      "channel": 1,
      "note": 93,
      "start": 18.6907,
      "duration": 0.099,
      "velocity": 119,
      "chip": "ym2612"
    },
    {
      "channel": 0,
      "note": 91,
      "start": 18.7896,
      "duration": 0.038,
      "velocity": 119,
      "chip": "ym2612"
    },
    {
      "channel": 1,
      "note": 81,
      "start": 18.7898,
      "duration": 0.038,
      "velocity": 119,
      "chip": "ym2612"
    },
    {
      "channel": 4,
      "note": 51,
      "start": 18.7902,
      "duration": 0.1371,
      "velocity": 105,
      "chip": "ym2612"
    },
    {
      "channel": 0,
      "note": 79,
      "start": 18.8277,
      "duration": 0.099,
      "velocity": 119,
      "chip": "ym2612"
    },
    {
      "channel": 1,
      "note": 92,
      "start": 18.828,
      "duration": 0.099,
      "velocity": 119,
      "chip": "ym2612"
    },
    {
      "channel": 0,
      "note": 90,
      "start": 18.9268,
      "duration": 0.038,
      "velocity": 119,
      "chip": "ym2612"
    },
    {
      "channel": 1,
      "note": 80,
      "start": 18.9271,
      "duration": 0.038,
      "velocity": 119,
      "chip": "ym2612"
    },
    {
      "channel": 4,
      "note": 51,
      "start": 18.9276,
      "duration": 0.137,
      "velocity": 105,
      "chip": "ym2612"
    },
    {
      "channel": 0,
      "note": 78,
      "start": 18.9649,
      "duration": 0.099,
      "velocity": 119,
      "chip": "ym2612"
    },
    {
      "channel": 1,
      "note": 91,
      "start": 18.9652,
      "duration": 0.099,
      "velocity": 119,
      "chip": "ym2612"
    },
    {
      "channel": 0,
      "note": 89,
      "start": 19.0641,
      "duration": 0.099,
      "velocity": 119,
      "chip": "ym2612"
    },
    {
      "channel": 1,
      "note": 79,
      "start": 19.0643,
      "duration": 0.099,
      "velocity": 119,
      "chip": "ym2612"
    },
    {
      "channel": 4,
      "note": 51,
      "start": 19.0649,
      "duration": 0.198,
      "velocity": 105,
      "chip": "ym2612"
    },
    {
      "channel": 0,
      "note": 77,
      "start": 19.1632,
      "duration": 0.099,
      "velocity": 119,
      "chip": "ym2612"
    },
    {
      "channel": 1,
      "note": 90,
      "start": 19.1634,
      "duration": 0.099,
      "velocity": 119,
      "chip": "ym2612"
    },
    {
      "channel": 0,
      "note": 88,
      "start": 19.2623,
      "duration": 0.099,
      "velocity": 119,
      "chip": "ym2612"
    },
    {
      "channel": 1,
      "note": 78,
      "start": 19.2626,
      "duration": 0.099,
      "velocity": 119,
      "chip": "ym2612"
    },
    {
      "channel": 4,
      "note": 51,
      "start": 19.263,
      "duration": 0.1981,
      "velocity": 105,
      "chip": "ym2612"
    },
    {
      "channel": 0,
      "note": 76,
      "start": 19.3614,
      "duration": 0.099,
      "velocity": 119,
      "chip": "ym2612"
    },
    {
      "channel": 1,
      "note": 89,
      "start": 19.3617,
      "duration": 0.099,
      "velocity": 119,
      "chip": "ym2612"
    },
    {
      "channel": 0,
      "note": 87,
      "start": 19.4606,
      "duration": 0.038,
      "velocity": 119,
      "chip": "ym2612"
    },
    {
      "channel": 1,
      "note": 77,
      "start": 19.4608,
      "duration": 0.038,
      "velocity": 119,
      "chip": "ym2612"
    },
    {
      "channel": 4,
      "note": 51,
      "start": 19.4612,
      "duration": 0.1371,
      "velocity": 105,
      "chip": "ym2612"
    },
    {
      "channel": 0,
      "note": 75,
      "start": 19.4987,
      "duration": 0.099,
      "velocity": 119,
      "chip": "ym2612"
    },
    {
      "channel": 1,
      "note": 88,
      "start": 19.4989,
      "duration": 0.099,
      "velocity": 119,
      "chip": "ym2612"
    },
    {
      "channel": 0,
      "note": 86,
      "start": 19.5978,
      "duration": 0.012,
      "velocity": 119,
      "chip": "ym2612"
    },
    {
      "channel": 1,
      "note": 76,
      "start": 19.598,
      "duration": 0.012,
      "velocity": 119,
      "chip": "ym2612"
    },
    {
      "channel": 4,
      "note": 51,
      "start": 19.5986,
      "duration": 0.0236,
      "velocity": 105,
      "chip": "ym2612"
    },
    {
      "channel": 0,
      "note": 74,
      "start": 19.61,
      "duration": 0.0116,
      "velocity": 119,
      "chip": "ym2612"
    },
    {
      "channel": 1,
      "note": 87,
      "start": 19.6102,
      "duration": 0.0116,
      "velocity": 119,
      "chip": "ym2612"
    },
    {
      "channel": 0,
      "note": 85,
      "start": 19.6217,
      "duration": 0.0108,
      "velocity": 119,
      "chip": "ym2612"
    },
    {
      "channel": 1,
      "note": 75,
      "start": 19.622,
      "duration": 0.0108,
      "velocity": 119,
      "chip": "ym2612"
    },
    {
      "channel": 4,
      "note": 51,
      "start": 19.6225,
      "duration": 0.0224,
      "velocity": 105,
      "chip": "ym2612"
    },
    {
      "channel": 0,
      "note": 73,
      "start": 19.6327,
      "duration": 0.0116,
      "velocity": 119,
      "chip": "ym2612"
    },
    {
      "channel": 1,
      "note": 86,
      "start": 19.6329,
      "duration": 0.0116,
      "velocity": 119,
      "chip": "ym2612"
    },
    {
      "channel": 0,
      "note": 84,
      "start": 19.6444,
      "duration": 0.042,
      "velocity": 119,
      "chip": "ym2612"
    },
    {
      "channel": 1,
      "note": 74,
      "start": 19.6446,
      "duration": 0.042,
      "velocity": 119,
      "chip": "ym2612"
    },
    {
      "channel": 4,
      "note": 51,
      "start": 19.645,
      "duration": 0.1412,
      "velocity": 105,
      "chip": "ym2612"
    },
    {
      "channel": 0,
      "note": 72,
      "start": 19.6866,
      "duration": 0.099,
      "velocity": 119,
      "chip": "ym2612"
    },
    {
      "channel": 1,
      "note": 85,
      "start": 19.6868,
      "duration": 0.099,
      "velocity": 119,
      "chip": "ym2612"
    },
    {
      "channel": 0,
      "note": 83,
      "start": 19.7857,
      "duration": 0.038,
      "velocity": 119,
      "chip": "ym2612"
    },
    {
      "channel": 1,
      "note": 73,
      "start": 19.7859,
      "duration": 0.038,
      "velocity": 119,
      "chip": "ym2612"
    },
    {
      "channel": 4,
      "note": 51,
      "start": 19.7863,
      "duration": 0.1379,
      "velocity": 105,
      "chip": "ym2612"
    },
    {
      "channel": 0,
      "note": 71,
      "start": 19.8238,
      "duration": 0.099,
      "velocity": 119,
      "chip": "ym2612"
    },
    {
      "channel": 1,
      "note": 84,
      "start": 19.824,
      "duration": 0.099,
      "velocity": 119,
      "chip": "ym2612"
    },
    {
      "channel": 0,
      "note": 94,
      "start": 19.9229,
      "duration": 0.0379,
      "velocity": 119,
      "chip": "ym2612"
    },
    {
      "channel": 1,
      "note": 72,
      "start": 19.9232,
      "duration": 0.0379,
      "velocity": 119,
      "chip": "ym2612"
    },
    {
      "channel": 2,
      "note": 61,
      "start": 19.9236,
      "duration": 0.5333,
      "velocity": 98,
      "chip": "ym2612"
    },
    {
      "channel": 3,
      "note": 77,
      "start": 19.9241,
      "duration": 0.5331,
      "velocity": 98,
      "chip": "ym2612"
    },
    {
      "channel": 4,
      "note": 49,
      "start": 19.9245,
      "duration": 0.1361,
      "velocity": 105,
      "chip": "ym2612"
    },
    {
      "channel": 0,
      "note": 82,
      "start": 19.961,
      "duration": 0.099,
      "velocity": 119,
      "chip": "ym2612"
    },
    {
      "channel": 1,
      "note": 83,
      "start": 19.9612,
      "duration": 0.099,
      "velocity": 119,
      "chip": "ym2612"
    },
    {
      "channel": 0,
      "note": 93,
      "start": 20.0601,
      "duration": 0.099,
      "velocity": 119,
      "chip": "ym2612"
    },
    {
      "channel": 1,
      "note": 71,
      "start": 20.0604,
      "duration": 0.099,
      "velocity": 119,
      "chip": "ym2612"
    },
    {
      "channel": 4,
      "note": 49,
      "start": 20.0609,
      "duration": 0.198,
      "velocity": 105,
      "chip": "ym2612"
    },
    {
      "channel": 0,
      "note": 81,
      "start": 20.1593,
      "duration": 0.099,
      "velocity": 119,
      "chip": "ym2612"
    },
    {
      "channel": 1,
      "note": 94,
      "start": 20.1595,
      "duration": 0.099,
      "velocity": 119,
      "chip": "ym2612"
    },
    {
      "channel": 0,
      "note": 92,
      "start": 20.2584,
      "duration": 0.099,
      "velocity": 119,
      "chip": "ym2612"
    },
    {
      "channel": 1,
      "note": 82,
      "start": 20.2586,
      "duration": 0.099,
      "velocity": 119,
      "chip": "ym2612"
    },
    {
      "channel": 4,
      "note": 49,
      "start": 20.259,
      "duration": 0.1985,
      "velocity": 105,
      "chip": "ym2612"
    },
    {
      "channel": 0,
      "note": 80,
      "start": 20.3575,
      "duration": 0.099,
      "velocity": 119,
      "chip": "ym2612"
    },
    {
      "channel": 1,
      "note": 93,
      "start": 20.3577,
      "duration": 0.099,
      "velocity": 119,
      "chip": "ym2612"
    },
    {
      "channel": 0,
      "note": 91,
      "start": 20.4566,
      "duration": 0.0379,
      "velocity": 119,
      "chip": "ym2612"
    },
    {
      "channel": 1,
      "note": 81,
      "start": 20.4569,
      "duration": 0.0379,
      "velocity": 119,
      "chip": "ym2612"
    },
    {
      "channel": 2,
      "note": 63,
      "start": 20.4571,
      "duration": 0.1837,
      "velocity": 98,
      "chip": "ym2612"
    },
    {
      "channel": 3,
      "note": 78,
      "start": 20.4574,
      "duration": 0.1837,
      "velocity": 98,
      "chip": "ym2612"
    },
    {
      "channel": 4,
      "note": 49,
      "start": 20.4576,
      "duration": 0.1367,
      "velocity": 105,
      "chip": "ym2612"
    },
    {
      "channel": 0,
      "note": 79,
      "start": 20.4947,
      "duration": 0.099,
      "velocity": 119,
      "chip": "ym2612"
    },
    {
      "channel": 1,
      "note": 92,
      "start": 20.4949,
      "duration": 0.099,
      "velocity": 119,
      "chip": "ym2612"
    },
    {
      "channel": 0,
      "note": 90,
      "start": 20.5939,
      "duration": 0.0122,
      "velocity": 119,
      "chip": "ym2612"
    },
    {
      "channel": 1,
      "note": 80,
      "start": 20.5941,
      "duration": 0.0122,
      "velocity": 119,
      "chip": "ym2612"
    },
    {
      "channel": 4,
      "note": 49,
      "start": 20.5946,
      "duration": 0.0237,
      "velocity": 105,
      "chip": "ym2612"
    },
    {
      "channel": 0,
      "note": 78,
      "start": 20.6061,
      "duration": 0.0115,
      "velocity": 119,
      "chip": "ym2612"
    },
    {
      "channel": 1,
      "note": 91,
      "start": 20.6064,
      "duration": 0.0115,
      "velocity": 119,
      "chip": "ym2612"
    },
    {
      "channel": 0,
      "note": 89,
      "start": 20.6178,
      "duration": 0.0109,
      "velocity": 119,
      "chip": "ym2612"
    },
    {
      "channel": 1,
      "note": 79,
      "start": 20.618,
      "duration": 0.0109,
      "velocity": 119,
      "chip": "ym2612"
    },
    {
      "channel": 4,
      "note": 49,
      "start": 20.6186,
      "duration": 0.0228,
      "velocity": 105,
      "chip": "ym2612"
    },
    {
      "channel": 0,
      "note": 77,
      "start": 20.6288,
      "duration": 0.0115,
      "velocity": 119,
      "chip": "ym2612"
    },
    {
      "channel": 1,
      "note": 90,
      "start": 20.6291,
      "duration": 0.0115,
      "velocity": 119,
      "chip": "ym2612"
    },
    {
      "channel": 0,
      "note": 88,
      "start": 20.6405,
      "duration": 0.0421,
      "velocity": 119,
      "chip": "ym2612"
    },
    {
      "channel": 1,
      "note": 78,
      "start": 20.6407,
      "duration": 0.0421,
      "velocity": 119,
      "chip": "ym2612"
    },
    {
      "channel": 2,
      "note": 61,
      "start": 20.641,
      "duration": 0.4156,
      "velocity": 98,
      "chip": "ym2612"
    },
    {
      "channel": 3,
      "note": 77,
      "start": 20.6412,
      "duration": 0.4156,
      "velocity": 98,
      "chip": "ym2612"
    },
    {
      "channel": 4,
      "note": 49,
      "start": 20.6415,
      "duration": 0.1408,
      "velocity": 105,
      "chip": "ym2612"
    },
    {
      "channel": 0,
      "note": 76,
      "start": 20.6827,
      "duration": 0.099,
      "velocity": 119,
      "chip": "ym2612"
    },
    {
      "channel": 1,
      "note": 89,
      "start": 20.6829,
      "duration": 0.099,
      "velocity": 119,
      "chip": "ym2612"
    },
    {
      "channel": 0,
      "note": 87,
      "start": 20.7818,
      "duration": 0.0379,
      "velocity": 119,
      "chip": "ym2612"
    },
    {
      "channel": 1,
      "note": 77,
      "start": 20.7821,
      "duration": 0.0379,
      "velocity": 119,
      "chip": "ym2612"
    },
    {
      "channel": 4,
      "note": 49,
      "start": 20.7825,
      "duration": 0.137,
      "velocity": 105,
      "chip": "ym2612"
    },
    {
      "channel": 0,
      "note": 75,
      "start": 20.8199,
      "duration": 0.099,
      "velocity": 119,
      "chip": "ym2612"
    },
    {
      "channel": 1,
      "note": 88,
      "start": 20.8201,
      "duration": 0.099,
      "velocity": 119,
      "chip": "ym2612"
    },
    {
      "channel": 0,
      "note": 86,
      "start": 20.919,
      "duration": 0.038,
      "velocity": 119,
      "chip": "ym2612"
    },
    {
      "channel": 1,
      "note": 76,
      "start": 20.9193,
      "duration": 0.038,
      "velocity": 119,
      "chip": "ym2612"
    },
    {
      "channel": 4,
      "note": 49,
      "start": 20.9198,
      "duration": 0.1373,
      "velocity": 105,
      "chip": "ym2612"
    },
    {
      "channel": 0,
      "note": 74,
      "start": 20.9571,
      "duration": 0.099,
      "velocity": 119,
      "chip": "ym2612"
    },
    {
      "channel": 1,
      "note": 87,
      "start": 20.9574,
      "duration": 0.099,
      "velocity": 119,
      "chip": "ym2612"
    },
    {
      "channel": 0,
      "note": 85,
      "start": 21.0562,
      "duration": 0.099,
      "velocity": 119,
      "chip": "ym2612"
    },
    {
      "channel": 1,
      "note": 75,
      "start": 21.0565,
      "duration": 0.099,
      "velocity": 119,
      "chip": "ym2612"
    },
    {
      "channel": 2,
      "note": 58,
      "start": 21.0567,
      "duration": 0.5335,
      "velocity": 98,
      "chip": "ym2612"
    },
    {
      "channel": 3,
      "note": 73,
      "start": 21.057,
      "duration": 0.5335,
      "velocity": 98,
      "chip": "ym2612"
    },
    {
      "channel": 4,
      "note": 49,
      "start": 21.0574,
      "duration": 0.1976,
      "velocity": 105,
      "chip": "ym2612"
    },
    {
      "channel": 0,
      "note": 73,
      "start": 21.1554,
      "duration": 0.099,
      "velocity": 119,
      "chip": "ym2612"
    },
    {
      "channel": 1,
      "note": 86,
      "start": 21.1556,
      "duration": 0.099,
      "velocity": 119,
      "chip": "ym2612"
    },
    {
      "channel": 0,
      "note": 84,
      "start": 21.2545,
      "duration": 0.099,
      "velocity": 119,
      "chip": "ym2612"
    },
    {
      "channel": 1,
      "note": 74,
      "start": 21.2548,
      "duration": 0.099,
      "velocity": 119,
      "chip": "ym2612"
    },
    {
      "channel": 4,
      "note": 49,
      "start": 21.2551,
      "duration": 0.1981,
      "velocity": 105,
      "chip": "ym2612"
    },
    {
      "channel": 0,
      "note": 72,
      "start": 21.3536,
      "duration": 0.099,
      "velocity": 119,
      "chip": "ym2612"
    },
    {
      "channel": 1,
      "note": 85,
      "start": 21.3539,
      "duration": 0.099,
      "velocity": 119,
      "chip": "ym2612"
    },
    {
      "channel": 0,
      "note": 83,
      "start": 21.4527,
      "duration": 0.0379,
      "velocity": 119,
      "chip": "ym2612"
    },
    {
      "channel": 1,
      "note": 73,
      "start": 21.453,
      "duration": 0.0379,
      "velocity": 119,
      "chip": "ym2612"
    },
    {
      "channel": 4,
      "note": 49,
      "start": 21.4534,
      "duration": 0.1374,
      "velocity": 105,
      "chip": "ym2612"
    },
    {
      "channel": 0,
      "note": 71,
      "start": 21.4908,
      "duration": 0.099,
      "velocity": 119,
      "chip": "ym2612"
    },
    {
      "channel": 1,
      "note": 84,
      "start": 21.4911,
      "duration": 0.099,
      "velocity": 119,
      "chip": "ym2612"
    },
    {
      "channel": 0,
      "note": 94,
      "start": 21.5899,
      "duration": 0.0124,
      "velocity": 119,
      "chip": "ym2612"
    },
    {
      "channel": 1,
      "note": 72,
      "start": 21.5902,
      "duration": 0.0124,
      "velocity": 119,
      "chip": "ym2612"
    },
    {
      "channel": 2,
      "note": 66,
      "start": 21.5904,
      "duration": 1.3211,
      "velocity": 98,
      "chip": "ym2612"
    },
    {
      "channel": 3,
      "note": 75,
      "start": 21.5907,
      "duration": 1.3211,
      "velocity": 98,
      "chip": "ym2612"
    },
    {
      "channel": 4,
      "note": 51,
      "start": 21.5911,
      "duration": 0.0237,
      "velocity": 105,
      "chip": "ym2612"
    },
    {
      "channel": 0,
      "note": 82,
      "start": 21.6025,
      "duration": 0.0117,
      "velocity": 119,
      "chip": "ym2612"
    },
    {
      "channel": 1,
      "note": 83,
      "start": 21.6027,
      "duration": 0.0117,
      "velocity": 119,
      "chip": "ym2612"
    },
    {
      "channel": 0,
      "note": 93,
      "start": 21.6143,
      "duration": 0.0107,
      "velocity": 119,
      "chip": "ym2612"
    },
    {
      "channel": 1,
      "note": 71,
      "start": 21.6146,
      "duration": 0.0107,
      "velocity": 119,
      "chip": "ym2612"
    },
    {
      "channel": 4,
      "note": 51,
      "start": 21.6151,
      "duration": 0.0224,
      "velocity": 105,
      "chip": "ym2612"
    },
    {
      "channel": 0,
      "note": 81,
      "start": 21.6252,
      "duration": 0.0117,
      "velocity": 119,
      "chip": "ym2612"
    },
    {
      "channel": 1,
      "note": 94,
      "start": 21.6254,
      "duration": 0.0117,
      "velocity": 119,
      "chip": "ym2612"
    },
    {
      "channel": 0,
      "note": 92,
      "start": 21.637,
      "duration": 0.0416,
      "velocity": 119,
      "chip": "ym2612"
    },
    {
      "channel": 1,
      "note": 82,
      "start": 21.6373,
      "duration": 0.0416,
      "velocity": 119,
      "chip": "ym2612"
    },
    {
      "channel": 4,
      "note": 51,
      "start": 21.6377,
      "duration": 0.1407,
      "velocity": 105,
      "chip": "ym2612"
    },
    {
      "channel": 0,
      "note": 80,
      "start": 21.6788,
      "duration": 0.099,
      "velocity": 119,
      "chip": "ym2612"
    },
    {
      "channel": 1,
      "note": 93,
      "start": 21.679,
      "duration": 0.099,
      "velocity": 119,
      "chip": "ym2612"
    },
    {
      "channel": 0,
      "note": 91,
      "start": 21.7779,
      "duration": 0.0379,
      "velocity": 119,
      "chip": "ym2612"
    },
    {
      "channel": 1,
      "note": 81,
      "start": 21.7782,
      "duration": 0.0379,
      "velocity": 119,
      "chip": "ym2612"
    },
    {
      "channel": 4,
      "note": 51,
      "start": 21.7785,
      "duration": 0.1371,
      "velocity": 105,
      "chip": "ym2612"
    },
    {
      "channel": 0,
      "note": 79,
      "start": 21.816,
      "duration": 0.099,
      "velocity": 119,
      "chip": "ym2612"
    },
    {
      "channel": 1,
      "note": 92,
      "start": 21.8163,
      "duration": 0.099,
      "velocity": 119,
      "chip": "ym2612"
    },
    {
      "channel": 0,
      "note": 90,
      "start": 21.9151,
      "duration": 0.038,
      "velocity": 119,
      "chip": "ym2612"
    },
    {
      "channel": 1,
      "note": 80,
      "start": 21.9154,
      "duration": 0.038,
      "velocity": 119,
      "chip": "ym2612"
    },
    {
      "channel": 4,
      "note": 51,
      "start": 21.9159,
      "duration": 0.1369,
      "velocity": 105,
      "chip": "ym2612"
    },
    {
      "channel": 0,
      "note": 78,
      "start": 21.9532,
      "duration": 0.099,
      "velocity": 119,
      "chip": "ym2612"
    },
    {
      "channel": 1,
      "note": 91,
      "start": 21.9535,
      "duration": 0.099,
      "velocity": 119,
      "chip": "ym2612"
    },
    {
      "channel": 0,
      "note": 89,
      "start": 22.0524,
      "duration": 0.099,
      "velocity": 119,
      "chip": "ym2612"
    },
    {
      "channel": 1,
      "note": 79,
      "start": 22.0526,
      "duration": 0.099,
      "velocity": 119,
      "chip": "ym2612"
    },
    {
      "channel": 4,
      "note": 51,
      "start": 22.0532,
      "duration": 0.198,
      "velocity": 105,
      "chip": "ym2612"
    },
    {
      "channel": 0,
      "note": 77,
      "start": 22.1515,
      "duration": 0.099,
      "velocity": 119,
      "chip": "ym2612"
    },
    {
      "channel": 1,
      "note": 90,
      "start": 22.1517,
      "duration": 0.099,
      "velocity": 119,
      "chip": "ym2612"
    },
    {
      "channel": 0,
      "note": 88,
      "start": 22.2506,
      "duration": 0.099,
      "velocity": 119,
      "chip": "ym2612"
    },
    {
      "channel": 1,
      "note": 78,
      "start": 22.2509,
      "duration": 0.099,
      "velocity": 119,
      "chip": "ym2612"
    },
    {
      "channel": 4,
      "note": 51,
      "start": 22.2512,
      "duration": 0.1981,
      "velocity": 105,
      "chip": "ym2612"
    },
    {
      "channel": 0,
      "note": 76,
      "start": 22.3497,
      "duration": 0.099,
      "velocity": 119,
      "chip": "ym2612"
    },
    {
      "channel": 1,
      "note": 89,
      "start": 22.35,
      "duration": 0.099,
      "velocity": 119,
      "chip": "ym2612"
    },
    {
      "channel": 0,
      "note": 87,
      "start": 22.4488,
      "duration": 0.038,
      "velocity": 119,
      "chip": "ym2612"
    },
    {
      "channel": 1,
      "note": 77,
      "start": 22.4491,
      "duration": 0.038,
      "velocity": 119,
      "chip": "ym2612"
    },
    {
      "channel": 4,
      "note": 51,
      "start": 22.4495,
      "duration": 0.1371,
      "velocity": 105,
      "chip": "ym2612"
    },
    {
      "channel": 0,
      "note": 75,
      "start": 22.487,
      "duration": 0.099,
      "velocity": 119,
      "chip": "ym2612"
    },
    {
      "channel": 1,
      "note": 88,
      "start": 22.4872,
      "duration": 0.099,
      "velocity": 119,
      "chip": "ym2612"
    },
    {
      "channel": 0,
      "note": 86,
      "start": 22.5861,
      "duration": 0.0121,
      "velocity": 119,
      "chip": "ym2612"
    },
    {
      "channel": 1,
      "note": 76,
      "start": 22.5863,
      "duration": 0.0121,
      "velocity": 119,
      "chip": "ym2612"
    },
    {
      "channel": 4,
      "note": 51,
      "start": 22.5869,
      "duration": 0.0236,
      "velocity": 105,
      "chip": "ym2612"
    },
    {
      "channel": 0,
      "note": 74,
      "start": 22.5984,
      "duration": 0.0115,
      "velocity": 119,
      "chip": "ym2612"
    },
    {
      "channel": 1,
      "note": 87,
      "start": 22.5986,
      "duration": 0.0115,
      "velocity": 119,
      "chip": "ym2612"
    },
    {
      "channel": 0,
      "note": 85,
      "start": 22.61,
      "duration": 0.0109,
      "velocity": 119,
      "chip": "ym2612"
    },
    {
      "channel": 1,
      "note": 75,
      "start": 22.6102,
      "duration": 0.0109,
      "velocity": 119,
      "chip": "ym2612"
    },
    {
      "channel": 4,
      "note": 51,
      "start": 22.6108,
      "duration": 0.0224,
      "velocity": 105,
      "chip": "ym2612"
    },
    {
      "channel": 0,
      "note": 73,
      "start": 22.621,
      "duration": 0.0115,
      "velocity": 119,
      "chip": "ym2612"
    },
    {
      "channel": 1,
      "note": 86,
      "start": 22.6213,
      "duration": 0.0115,
      "velocity": 119,
      "chip": "ym2612"
    },
    {
      "channel": 0,
      "note": 84,
      "start": 22.6327,
      "duration": 0.042,
      "velocity": 119,
      "chip": "ym2612"
    },
    {
      "channel": 1,
      "note": 74,
      "start": 22.6329,
      "duration": 0.042,
      "velocity": 119,
      "chip": "ym2612"
    },
    {
      "channel": 4,
      "note": 51,
      "start": 22.6333,
      "duration": 0.1412,
      "velocity": 105,
      "chip": "ym2612"
    },
    {
      "channel": 0,
      "note": 72,
      "start": 22.6748,
      "duration": 0.099,
      "velocity": 119,
      "chip": "ym2612"
    },
    {
      "channel": 1,
      "note": 85,
      "start": 22.6751,
      "duration": 0.099,
      "velocity": 119,
      "chip": "ym2612"
    },
    {
      "channel": 0,
      "note": 83,
      "start": 22.7739,
      "duration": 0.038,
      "velocity": 119,
      "chip": "ym2612"
    },
    {
      "channel": 1,
      "note": 73,
      "start": 22.7742,
      "duration": 0.038,
      "velocity": 119,
      "chip": "ym2612"
    },
    {
      "channel": 4,
      "note": 51,
      "start": 22.7746,
      "duration": 0.1375,
      "velocity": 105,
      "chip": "ym2612"
    },
    {
      "channel": 0,
      "note": 71,
      "start": 22.8121,
      "duration": 0.099,
      "velocity": 119,
      "chip": "ym2612"
    },
    {
      "channel": 1,
      "note": 84,
      "start": 22.8123,
      "duration": 0.099,
      "velocity": 119,
      "chip": "ym2612"
    },
    {
      "channel": 0,
      "note": 94,
      "start": 22.9112,
      "duration": 0.0379,
      "velocity": 119,
      "chip": "ym2612"
    },
    {
      "channel": 1,
      "note": 72,
      "start": 22.9115,
      "duration": 0.0379,
      "velocity": 119,
      "chip": "ym2612"
    },
    {
      "channel": 2,
      "note": 75,
      "start": 22.9117,
      "duration": 0.5335,
      "velocity": 98,
      "chip": "ym2612"
    },
    {
      "channel": 3,
      "note": 68,
      "start": 22.912,
      "duration": 0.6569,
      "velocity": 98,
      "chip": "ym2612"
    },
    {
      "channel": 4,
      "note": 51,
      "start": 22.9124,
      "duration": 0.1365,
      "velocity": 105,
      "chip": "ym2612"
    },
    {
      "channel": 0,
      "note": 82,
      "start": 22.9493,
      "duration": 0.099,
      "velocity": 119,
      "chip": "ym2612"
    },
    {
      "channel": 1,
      "note": 83,
      "start": 22.9495,
      "duration": 0.099,
      "velocity": 119,
      "chip": "ym2612"
    },
    {
      "channel": 0,
      "note": 93,
      "start": 23.0484,
      "duration": 0.099,
      "velocity": 119,
      "chip": "ym2612"
    },
    {
      "channel": 1,
      "note": 71,
      "start": 23.0487,
      "duration": 0.099,
      "velocity": 119,
      "chip": "ym2612"
    },
    {
      "channel": 4,
      "note": 51,
      "start": 23.0492,
      "duration": 0.1979,
      "velocity": 105,
      "chip": "ym2612"
    },
    {
      "channel": 0,
      "note": 81,
      "start": 23.1475,
      "duration": 0.099,
      "velocity": 119,
      "chip": "ym2612"
    },
    {
      "channel": 1,
      "note": 94,
      "start": 23.1478,
      "duration": 0.099,
      "velocity": 119,
      "chip": "ym2612"
    },
    {
      "channel": 0,
      "note": 92,
      "start": 23.2466,
      "duration": 0.099,
      "velocity": 119,
      "chip": "ym2612"
    },
    {
      "channel": 1,
      "note": 82,
      "start": 23.2469,
      "duration": 0.099,
      "velocity": 119,
      "chip": "ym2612"
    },
    {
      "channel": 4,
      "note": 51,
      "start": 23.2473,
      "duration": 0.1983,
      "velocity": 105,
      "chip": "ym2612"
    },
    {
      "channel": 0,
      "note": 80,
      "start": 23.3458,
      "duration": 0.099,
      "velocity": 119,
      "chip": "ym2612"
    },
    {
      "channel": 1,
      "note": 93,
      "start": 23.346,
      "duration": 0.099,
      "velocity": 119,
      "chip": "ym2612"
    },
    {
      "channel": 0,
      "note": 91,
      "start": 23.4449,
      "duration": 0.038,
      "velocity": 119,
      "chip": "ym2612"
    },
    {
      "channel": 1,
      "note": 81,
      "start": 23.4451,
      "duration": 0.038,
      "velocity": 119,
      "chip": "ym2612"
    },
    {
      "channel": 2,
      "note": 77,
      "start": 23.4454,
      "duration": 0.1232,
      "velocity": 98,
      "chip": "ym2612"
    },
    {
      "channel": 4,
      "note": 51,
      "start": 23.4457,
      "duration": 0.0759,
      "velocity": 105,
      "chip": "ym2612"
    },
    {
      "channel": 0,
      "note": 79,
      "start": 23.483,
      "duration": 0.0379,
      "velocity": 119,
      "chip": "ym2612"
    },
    {
      "channel": 1,
      "note": 92,
      "start": 23.4833,
      "duration": 0.0379,
      "velocity": 119,
      "chip": "ym2612"
    },
    {
      "channel": 0,
      "note": 90,
      "start": 23.5211,
      "duration": 0.012,
      "velocity": 119,
      "chip": "ym2612"
    },
    {
      "channel": 1,
      "note": 80,
      "start": 23.5214,
      "duration": 0.012,
      "velocity": 119,
      "chip": "ym2612"
    },
    {
      "channel": 4,
      "note": 51,
      "start": 23.5219,
      "duration": 0.0237,
      "velocity": 105,
      "chip": "ym2612"
    },
    {
      "channel": 0,
      "note": 78,
      "start": 23.5332,
      "duration": 0.0117,
      "velocity": 119,
      "chip": "ym2612"
    },
    {
      "channel": 1,
      "note": 91,
      "start": 23.5335,
      "duration": 0.0117,
      "velocity": 119,
      "chip": "ym2612"
    },
    {
      "channel": 0,
      "note": 89,
      "start": 23.5451,
      "duration": 0.0113,
      "velocity": 119,
      "chip": "ym2612"
    },
    {
      "channel": 1,
      "note": 79,
      "start": 23.5453,
      "duration": 0.0113,
      "velocity": 119,
      "chip": "ym2612"
    },
    {
      "channel": 4,
      "note": 51,
      "start": 23.5459,
      "duration": 0.0233,
      "velocity": 105,
      "chip": "ym2612"
    },
    {
      "channel": 0,
      "note": 77,
      "start": 23.5565,
      "duration": 0.0117,
      "velocity": 119,
      "chip": "ym2612"
    },
    {
      "channel": 1,
      "note": 90,
      "start": 23.5567,
      "duration": 0.0117,
      "velocity": 119,
      "chip": "ym2612"
    },
    {
      "channel": 0,
      "note": 88,
      "start": 23.5683,
      "duration": 0.0112,
      "velocity": 119,
      "chip": "ym2612"
    },
    {
      "channel": 1,
      "note": 78,
      "start": 23.5685,
      "duration": 0.0112,
      "velocity": 119,
      "chip": "ym2612"
    },
    {
      "channel": 2,
      "note": 78,
      "start": 23.5688,
      "duration": 0.0694,
      "velocity": 98,
      "chip": "ym2612"
    },
    {
      "channel": 3,
      "note": 70,
      "start": 23.569,
      "duration": 0.1491,
      "velocity": 98,
      "chip": "ym2612"
    },
    {
      "channel": 4,
      "note": 51,
      "start": 23.5693,
      "duration": 0.0225,
      "velocity": 105,
      "chip": "ym2612"
    },
    {
      "channel": 0,
      "note": 76,
      "start": 23.5797,
      "duration": 0.0115,
      "velocity": 119,
      "chip": "ym2612"
    },
    {
      "channel": 1,
      "note": 89,
      "start": 23.5799,
      "duration": 0.0115,
      "velocity": 119,
      "chip": "ym2612"
    },
    {
      "channel": 0,
      "note": 87,
      "start": 23.5914,
      "duration": 0.0122,
      "velocity": 119,
      "chip": "ym2612"
    },
    {
      "channel": 1,
      "note": 77,
      "start": 23.5916,
      "duration": 0.0123,
      "velocity": 119,
      "chip": "ym2612"
    },
    {
      "channel": 4,
      "note": 51,
      "start": 23.592,
      "duration": 0.0229,
      "velocity": 105,
      "chip": "ym2612"
    },
    {
      "channel": 0,
      "note": 75,
      "start": 23.6037,
      "duration": 0.0105,
      "velocity": 119,
      "chip": "ym2612"
    },
    {
      "channel": 1,
      "note": 88,
      "start": 23.604,
      "duration": 0.0105,
      "velocity": 119,
      "chip": "ym2612"
    },
    {
      "channel": 0,
      "note": 86,
      "start": 23.6144,
      "duration": 0.0127,
      "velocity": 119,
      "chip": "ym2612"
    },
    {
      "channel": 1,
      "note": 76,
      "start": 23.6147,
      "duration": 0.0127,
      "velocity": 119,
      "chip": "ym2612"
    },
    {
      "channel": 4,
      "note": 51,
      "start": 23.6152,
      "duration": 0.0233,
      "velocity": 105,
      "chip": "ym2612"
    },
    {
      "channel": 0,
      "note": 74,
      "start": 23.6273,
      "duration": 0.0103,
      "velocity": 119,
      "chip": "ym2612"
    },
    {
      "channel": 1,
      "note": 87,
      "start": 23.6276,
      "duration": 0.0103,
      "velocity": 119,
      "chip": "ym2612"
    },
    {
      "channel": 0,
      "note": 85,
      "start": 23.6378,
      "duration": 0.0122,
      "velocity": 119,
      "chip": "ym2612"
    },
    {
      "channel": 1,
      "note": 75,
      "start": 23.638,
      "duration": 0.0122,
      "velocity": 119,
      "chip": "ym2612"
    },
    {
      "channel": 2,
      "note": 80,
      "start": 23.6383,
      "duration": 0.0796,
      "velocity": 98,
      "chip": "ym2612"
    },
    {
      "channel": 4,
      "note": 51,
      "start": 23.6388,
      "duration": 0.0235,
      "velocity": 105,
      "chip": "ym2612"
    },
    {
      "channel": 0,
      "note": 73,
      "start": 23.6502,
      "duration": 0.0115,
      "velocity": 119,
      "chip": "ym2612"
    },
    {
      "channel": 1,
      "note": 86,
      "start": 23.6504,
      "duration": 0.0115,
      "velocity": 119,
      "chip": "ym2612"
    },
    {
      "channel": 0,
      "note": 84,
      "start": 23.6618,
      "duration": 0.0114,
      "velocity": 119,
      "chip": "ym2612"
    },
    {
      "channel": 1,
      "note": 74,
      "start": 23.662,
      "duration": 0.0114,
      "velocity": 119,
      "chip": "ym2612"
    },
    {
      "channel": 4,
      "note": 51,
      "start": 23.6624,
      "duration": 0.0231,
      "velocity": 105,
      "chip": "ym2612"
    },
    {
      "channel": 0,
      "note": 72,
      "start": 23.6734,
      "duration": 0.0115,
      "velocity": 119,
      "chip": "ym2612"
    },
    {
      "channel": 1,
      "note": 85,
      "start": 23.6736,
      "duration": 0.0115,
      "velocity": 119,
      "chip": "ym2612"
    },
    {
      "channel": 0,
      "note": 83,
      "start": 23.685,
      "duration": 0.0118,
      "velocity": 119,
      "chip": "ym2612"
    },
    {
      "channel": 1,
      "note": 73,
      "start": 23.6852,
      "duration": 0.0118,
      "velocity": 119,
      "chip": "ym2612"
    },
    {
      "channel": 4,
      "note": 51,
      "start": 23.6856,
      "duration": 0.0328,
      "velocity": 105,
      "chip": "ym2612"
    },
    {
      "channel": 0,
      "note": 71,
      "start": 23.697,
      "duration": 0.0204,
      "velocity": 119,
      "chip": "ym2612"
    },
    {
      "channel": 1,
      "note": 84,
      "start": 23.6972,
      "duration": 0.0204,
      "velocity": 119,
      "chip": "ym2612"
    },
    {
      "channel": 0,
      "note": 94,
      "start": 23.7175,
      "duration": 0.013,
      "velocity": 119,
      "chip": "ym2612"
    },
    {
      "channel": 1,
      "note": 72,
      "start": 23.7178,
      "duration": 0.013,
      "velocity": 119,
      "chip": "ym2612"
    },
    {
      "channel": 2,
      "note": 82,
      "start": 23.718,
      "duration": 1.1545,
      "velocity": 98,
      "chip": "ym2612"
    },
    {
      "channel": 3,
      "note": 75,
      "start": 23.7183,
      "duration": 2.2518,
      "velocity": 98,
      "chip": "ym2612"
    },
    {
      "channel": 4,
      "note": 51,
      "start": 23.7187,
      "duration": 0.0717,
      "velocity": 105,
      "chip": "ym2612"
    },
    {
      "channel": 0,
      "note": 82,
      "start": 23.7307,
      "duration": 0.059,
      "velocity": 119,
      "chip": "ym2612"
    },
    {
      "channel": 1,
      "note": 83,
      "start": 23.731,
      "duration": 0.059,
      "velocity": 119,
      "chip": "ym2612"
    },
    {
      "channel": 0,
      "note": 93,
      "start": 23.7899,
      "duration": 0.099,
      "velocity": 119,
      "chip": "ym2612"
    },
    {
      "channel": 1,
      "note": 71,
      "start": 23.7901,
      "duration": 0.099,
      "velocity": 119,
      "chip": "ym2612"
    },
    {
      "channel": 4,
      "note": 51,
      "start": 23.7907,
      "duration": 0.198,
      "velocity": 105,
      "chip": "ym2612"
    },
    {
      "channel": 0,
      "note": 81,
      "start": 23.889,
      "duration": 0.099,
      "velocity": 119,
      "chip": "ym2612"
    },
    {
      "channel": 1,
      "note": 94,
      "start": 23.8893,
      "duration": 0.099,
      "velocity": 119,
      "chip": "ym2612"
    },
    {
      "channel": 0,
      "note": 92,
      "start": 23.9881,
      "duration": 0.0126,
      "velocity": 119,
      "chip": "ym2612"
    },
    {
      "channel": 1,
      "note": 82,
      "start": 23.9884,
      "duration": 0.0126,
      "velocity": 119,
      "chip": "ym2612"
    },
    {
      "channel": 4,
      "note": 51,
      "start": 23.9888,
      "duration": 0.0246,
      "velocity": 105,
      "chip": "ym2612"
    },
    {
      "channel": 0,
      "note": 80,
      "start": 24.0009,
      "duration": 0.0119,
      "velocity": 119,
      "chip": "ym2612"
    },
    {
      "channel": 1,
      "note": 93,
      "start": 24.0011,
      "duration": 0.0119,
      "velocity": 119,
      "chip": "ym2612"
    },
    {
      "channel": 0,
      "note": 91,
      "start": 24.0129,
      "duration": 0.0108,
      "velocity": 119,
      "chip": "ym2612"
    },
    {
      "channel": 1,
      "note": 81,
      "start": 24.0131,
      "duration": 0.0108,
      "velocity": 119,
      "chip": "ym2612"
    },
    {
      "channel": 4,
      "note": 51,
      "start": 24.0135,
      "duration": 0.1071,
      "velocity": 105,
      "chip": "ym2612"
    },
    {
      "channel": 0,
      "note": 79,
      "start": 24.0238,
      "duration": 0.0962,
      "velocity": 119,
      "chip": "ym2612"
    },
    {
      "channel": 1,
      "note": 92,
      "start": 24.024,
      "duration": 0.0962,
      "velocity": 119,
      "chip": "ym2612"
    },
    {
      "channel": 0,
      "note": 90,
      "start": 24.1202,
      "duration": 0.0126,
      "velocity": 119,
      "chip": "ym2612"
    },
    {
      "channel": 1,
      "note": 80,
      "start": 24.1204,
      "duration": 0.0126,
      "velocity": 119,
      "chip": "ym2612"
    },
    {
      "channel": 4,
      "note": 51,
      "start": 24.1209,
      "duration": 0.076,
      "velocity": 105,
      "chip": "ym2612"
    },
    {
      "channel": 0,
      "note": 78,
      "start": 24.1329,
      "duration": 0.0634,
      "velocity": 119,
      "chip": "ym2612"
    },
    {
      "channel": 1,
      "note": 91,
      "start": 24.1331,
      "duration": 0.0634,
      "velocity": 119,
      "chip": "ym2612"
    },
    {
      "channel": 0,
      "note": 89,
      "start": 24.1964,
      "duration": 0.0379,
      "velocity": 119,
      "chip": "ym2612"
    },
    {
      "channel": 1,
      "note": 79,
      "start": 24.1967,
      "duration": 0.0379,
      "velocity": 119,
      "chip": "ym2612"
    },
    {
      "channel": 4,
      "note": 51,
      "start": 24.1972,
      "duration": 0.1369,
      "velocity": 105,
      "chip": "ym2612"
    },
    {
      "channel": 0,
      "note": 77,
      "start": 24.2345,
      "duration": 0.099,
      "velocity": 119,
      "chip": "ym2612"
    },
    {
      "channel": 1,
      "note": 90,
      "start": 24.2347,
      "duration": 0.099,
      "velocity": 119,
      "chip": "ym2612"
    },
    {
      "channel": 0,
      "note": 88,
      "start": 24.3337,
      "duration": 0.0127,
      "velocity": 119,
      "chip": "ym2612"
    },
    {
      "channel": 1,
      "note": 78,
      "start": 24.3339,
      "duration": 0.0127,
      "velocity": 119,
      "chip": "ym2612"
    },
    {
      "channel": 4,
      "note": 51,
      "start": 24.3343,
      "duration": 0.0246,
      "velocity": 105,
      "chip": "ym2612"
    },
    {
      "channel": 0,
      "note": 76,
      "start": 24.3465,
      "duration": 0.0117,
      "velocity": 119,
      "chip": "ym2612"
    },
    {
      "channel": 1,
      "note": 89,
      "start": 24.3468,
      "duration": 0.0117,
      "velocity": 119,
      "chip": "ym2612"
    },
    {
      "channel": 0,
      "note": 87,
      "start": 24.3584,
      "duration": 0.0108,
      "velocity": 119,
      "chip": "ym2612"
    },
    {
      "channel": 1,
      "note": 77,
      "start": 24.3586,
      "duration": 0.0108,
      "velocity": 119,
      "chip": "ym2612"
    },
    {
      "channel": 4,
      "note": 51,
      "start": 24.359,
      "duration": 0.1071,
      "velocity": 105,
      "chip": "ym2612"
    },
    {
      "channel": 0,
      "note": 75,
      "start": 24.3693,
      "duration": 0.0962,
      "velocity": 119,
      "chip": "ym2612"
    },
    {
      "channel": 1,
      "note": 88,
      "start": 24.3696,
      "duration": 0.0962,
      "velocity": 119,
      "chip": "ym2612"
    },
    {
      "channel": 0,
      "note": 86,
      "start": 24.4657,
      "duration": 0.0126,
      "velocity": 119,
      "chip": "ym2612"
    },
    {
      "channel": 1,
      "note": 76,
      "start": 24.4659,
      "duration": 0.0126,
      "velocity": 119,
      "chip": "ym2612"
    },
    {
      "channel": 4,
      "note": 51,
      "start": 24.4665,
      "duration": 0.0759,
      "velocity": 105,
      "chip": "ym2612"
    },
    {
      "channel": 0,
      "note": 74,
      "start": 24.4784,
      "duration": 0.0634,
      "velocity": 119,
      "chip": "ym2612"
    },
    {
      "channel": 1,
      "note": 87,
      "start": 24.4787,
      "duration": 0.0634,
      "velocity": 119,
      "chip": "ym2612"
    },
    {
      "channel": 0,
      "note": 85,
      "start": 24.5419,
      "duration": 0.099,
      "velocity": 119,
      "chip": "ym2612"
    },
    {
      "channel": 1,
      "note": 75,
      "start": 24.5422,
      "duration": 0.099,
      "velocity": 119,
      "chip": "ym2612"
    },
    {
      "channel": 4,
      "note": 51,
      "start": 24.5427,
      "duration": 0.198,
      "velocity": 105,
      "chip": "ym2612"
    },
    {
      "channel": 0,
      "note": 73,
      "start": 24.6411,
      "duration": 0.099,
      "velocity": 119,
      "chip": "ym2612"
    },
    {
      "channel": 1,
      "note": 86,
      "start": 24.6413,
      "duration": 0.099,
      "velocity": 119,
      "chip": "ym2612"
    },
    {
      "channel": 0,
      "note": 84,
      "start": 24.7402,
      "duration": 0.0127,
      "velocity": 119,
      "chip": "ym2612"
    },
    {
      "channel": 1,
      "note": 74,
      "start": 24.7404,
      "duration": 0.0127,
      "velocity": 119,
      "chip": "ym2612"
    },
    {
      "channel": 4,
      "note": 51,
      "start": 24.7408,
      "duration": 0.0246,
      "velocity": 105,
      "chip": "ym2612"
    },
    {
      "channel": 0,
      "note": 72,
      "start": 24.753,
      "duration": 0.0117,
      "velocity": 119,
      "chip": "ym2612"
    },
    {
      "channel": 1,
      "note": 85,
      "start": 24.7533,
      "duration": 0.0117,
      "velocity": 119,
      "chip": "ym2612"
    },
    {
      "channel": 0,
      "note": 83,
      "start": 24.7649,
      "duration": 0.0107,
      "velocity": 119,
      "chip": "ym2612"
    },
    {
      "channel": 1,
      "note": 73,
      "start": 24.7651,
      "duration": 0.0108,
      "velocity": 119,
      "chip": "ym2612"
    },
    {
      "channel": 4,
      "note": 51,
      "start": 24.7656,
      "duration": 0.1073,
      "velocity": 105,
      "chip": "ym2612"
    },
    {
      "channel": 0,
      "note": 71,
      "start": 24.7758,
      "duration": 0.0963,
      "velocity": 119,
      "chip": "ym2612"
    },
    {
      "channel": 1,
      "note": 84,
      "start": 24.7761,
      "duration": 0.0963,
      "velocity": 119,
      "chip": "ym2612"
    },
    {
      "channel": 0,
      "note": 94,
      "start": 24.8722,
      "duration": 0.0127,
      "velocity": 119,
      "chip": "ym2612"
    },
    {
      "channel": 1,
      "note": 72,
      "start": 24.8724,
      "duration": 0.0127,
      "velocity": 119,
      "chip": "ym2612"
    },
    {
      "channel": 2,
      "note": 87,
      "start": 24.8727,
      "duration": 1.0972,
      "velocity": 98,
      "chip": "ym2612"
    },
    {
      "channel": 4,
      "note": 51,
      "start": 24.8732,
      "duration": 0.0756,
      "velocity": 105,
      "chip": "ym2612"
    },
    {
      "channel": 0,
      "note": 82,
      "start": 24.885,
      "duration": 0.0632,
      "velocity": 119,
      "chip": "ym2612"
    },
    {
      "channel": 1,
      "note": 83,
      "start": 24.8853,
      "duration": 0.0632,
      "velocity": 119,
      "chip": "ym2612"
    },
    {
      "channel": 0,
      "note": 93,
      "start": 24.9483,
      "duration": 0.038,
      "velocity": 119,
      "chip": "ym2612"
    },
    {
      "channel": 1,
      "note": 71,
      "start": 24.9486,
      "duration": 0.038,
      "velocity": 119,
      "chip": "ym2612"
    },
    {
      "channel": 4,
      "note": 51,
      "start": 24.9491,
      "duration": 0.137,
      "velocity": 105,
      "chip": "ym2612"
    },
    {
      "channel": 0,
      "note": 81,
      "start": 24.9864,
      "duration": 0.099,
      "velocity": 119,
      "chip": "ym2612"
    },
    {
      "channel": 1,
      "note": 94,
      "start": 24.9867,
      "duration": 0.099,
      "velocity": 119,
      "chip": "ym2612"
    },
    {
      "channel": 0,
      "note": 92,
      "start": 25.0856,
      "duration": 0.0126,
      "velocity": 119,
      "chip": "ym2612"
    },
    {
      "channel": 1,
      "note": 82,
      "start": 25.0858,
      "duration": 0.0126,
      "velocity": 119,
      "chip": "ym2612"
    },
    {
      "channel": 4,
      "note": 51,
      "start": 25.0862,
      "duration": 0.0244,
      "velocity": 105,
      "chip": "ym2612"
    },
    {
      "channel": 0,
      "note": 80,
      "start": 25.0983,
      "duration": 0.0117,
      "velocity": 119,
      "chip": "ym2612"
    },
    {
      "channel": 1,
      "note": 93,
      "start": 25.0985,
      "duration": 0.0117,
      "velocity": 119,
      "chip": "ym2612"
    },
    {
      "channel": 0,
      "note": 91,
      "start": 25.1102,
      "duration": 0.0107,
      "velocity": 119,
      "chip": "ym2612"
    },
    {
      "channel": 1,
      "note": 81,
      "start": 25.1104,
      "duration": 0.0107,
      "velocity": 119,
      "chip": "ym2612"
    },
    {
      "channel": 4,
      "note": 51,
      "start": 25.1108,
      "duration": 0.1073,
      "velocity": 105,
      "chip": "ym2612"
    },
    {
      "channel": 0,
      "note": 79,
      "start": 25.121,
      "duration": 0.0964,
      "velocity": 119,
      "chip": "ym2612"
    },
    {
      "channel": 1,
      "note": 92,
      "start": 25.1212,
      "duration": 0.0964,
      "velocity": 119,
      "chip": "ym2612"
    },
    {
      "channel": 0,
      "note": 90,
      "start": 25.2176,
      "duration": 0.0126,
      "velocity": 119,
      "chip": "ym2612"
    },
    {
      "channel": 1,
      "note": 80,
      "start": 25.2178,
      "duration": 0.0126,
      "velocity": 119,
      "chip": "ym2612"
    },
    {
      "channel": 4,
      "note": 51,
      "start": 25.2183,
      "duration": 0.0758,
      "velocity": 105,
      "chip": "ym2612"
    },
    {
      "channel": 0,
      "note": 78,
      "start": 25.2303,
      "duration": 0.0632,
      "velocity": 119,
      "chip": "ym2612"
    },
    {
      "channel": 1,
      "note": 91,
      "start": 25.2306,
      "duration": 0.0632,
      "velocity": 119,
      "chip": "ym2612"
    },
    {
      "channel": 0,
      "note": 89,
      "start": 25.2937,
      "duration": 0.099,
      "velocity": 119,
      "chip": "ym2612"
    },
    {
      "channel": 1,
      "note": 79,
      "start": 25.2939,
      "duration": 0.099,
      "velocity": 119,
      "chip": "ym2612"
    },
    {
      "channel": 4,
      "note": 51,
      "start": 25.2944,
      "duration": 0.1979,
      "velocity": 105,
      "chip": "ym2612"
    },
    {
      "channel": 0,
      "note": 77,
      "start": 25.3928,
      "duration": 0.099,
      "velocity": 119,
      "chip": "ym2612"
    },
    {
      "channel": 1,
      "note": 90,
      "start": 25.393,
      "duration": 0.099,
      "velocity": 119,
      "chip": "ym2612"
    },
    {
      "channel": 0,
      "note": 88,
      "start": 25.4919,
      "duration": 0.0126,
      "velocity": 119,
      "chip": "ym2612"
    },
    {
      "channel": 1,
      "note": 78,
      "start": 25.4921,
      "duration": 0.0126,
      "velocity": 119,
      "chip": "ym2612"
    },
    {
      "channel": 4,
      "note": 51,
      "start": 25.4925,
      "duration": 0.0246,
      "velocity": 105,
      "chip": "ym2612"
    },
    {
      "channel": 0,
      "note": 76,
      "start": 25.5046,
      "duration": 0.0119,
      "velocity": 119,
      "chip": "ym2612"
    },
    {
      "channel": 1,
      "note": 89,
      "start": 25.5049,
      "duration": 0.0119,
      "velocity": 119,
      "chip": "ym2612"
    },
    {
      "channel": 0,
      "note": 87,
      "start": 25.5167,
      "duration": 0.0108,
      "velocity": 119,
      "chip": "ym2612"
    },
    {
      "channel": 1,
      "note": 77,
      "start": 25.5169,
      "duration": 0.0108,
      "velocity": 119,
      "chip": "ym2612"
    },
    {
      "channel": 4,
      "note": 51,
      "start": 25.5173,
      "duration": 0.1072,
      "velocity": 105,
      "chip": "ym2612"
    },
    {
      "channel": 0,
      "note": 75,
      "start": 25.5276,
      "duration": 0.0963,
      "velocity": 119,
      "chip": "ym2612"
    },
    {
      "channel": 1,
      "note": 88,
      "start": 25.5279,
      "duration": 0.0963,
      "velocity": 119,
      "chip": "ym2612"
    },
    {
      "channel": 0,
      "note": 86,
      "start": 25.624,
      "duration": 0.0126,
      "velocity": 119,
      "chip": "ym2612"
    },
    {
      "channel": 1,
      "note": 76,
      "start": 25.6243,
      "duration": 0.0126,
      "velocity": 119,
      "chip": "ym2612"
    },
    {
      "channel": 4,
      "note": 51,
      "start": 25.6248,
      "duration": 0.0759,
      "velocity": 105,
      "chip": "ym2612"
    },
    {
      "channel": 0,
      "note": 74,
      "start": 25.6367,
      "duration": 0.0634,
      "velocity": 119,
      "chip": "ym2612"
    },
    {
      "channel": 1,
      "note": 87,
      "start": 25.637,
      "duration": 0.0634,
      "velocity": 119,
      "chip": "ym2612"
    },
    {
      "channel": 0,
      "note": 85,
      "start": 25.7002,
      "duration": 0.038,
      "velocity": 119,
      "chip": "ym2612"
    },
    {
      "channel": 1,
      "note": 75,
      "start": 25.7005,
      "duration": 0.038,
      "velocity": 119,
      "chip": "ym2612"
    },
    {
      "channel": 4,
      "note": 51,
      "start": 25.701,
      "duration": 0.137,
      "velocity": 105,
      "chip": "ym2612"
    },
    {
      "channel": 0,
      "note": 73,
      "start": 25.7384,
      "duration": 0.099,
      "velocity": 119,
      "chip": "ym2612"
    },
    {
      "channel": 1,
      "note": 86,
      "start": 25.7386,
      "duration": 0.099,
      "velocity": 119,
      "chip": "ym2612"
    },
    {
      "channel": 0,
      "note": 84,
      "start": 25.8375,
      "duration": 0.0127,
      "velocity": 119,
      "chip": "ym2612"
    },
    {
      "channel": 1,
      "note": 74,
      "start": 25.8378,
      "duration": 0.0127,
      "velocity": 119,
      "chip": "ym2612"
    },
    {
      "channel": 4,
      "note": 51,
      "start": 25.8381,
      "duration": 0.0246,
      "velocity": 105,
      "chip": "ym2612"
    },
    {
      "channel": 0,
      "note": 72,
      "start": 25.8503,
      "duration": 0.0117,
      "velocity": 119,
      "chip": "ym2612"
    },
    {
      "channel": 1,
      "note": 85,
      "start": 25.8506,
      "duration": 0.0117,
      "velocity": 119,
      "chip": "ym2612"
    },
    {
      "channel": 0,
      "note": 83,
      "start": 25.8622,
      "duration": 0.0108,
      "velocity": 119,
      "chip": "ym2612"
    },
    {
      "channel": 1,
      "note": 73,
      "start": 25.8625,
      "duration": 0.0108,
      "velocity": 119,
      "chip": "ym2612"
    },
    {
      "channel": 4,
      "note": 51,
      "start": 25.8629,
      "duration": 0.1076,
      "velocity": 105,
      "chip": "ym2612"
    },
    {
      "channel": 0,
      "note": 71,
      "start": 25.8731,
      "duration": 0.0962,
      "velocity": 119,
      "chip": "ym2612"
    },
    {
      "channel": 1,
      "note": 84,
      "start": 25.8734,
      "duration": 0.0962,
      "velocity": 119,
      "chip": "ym2612"
    },
    {
      "channel": 0,
      "note": 94,
      "start": 25.9695,
      "duration": 0.013,
      "velocity": 119,
      "chip": "ym2612"
    },
    {
      "channel": 1,
      "note": 72,
      "start": 25.9698,
      "duration": 0.0131,
      "velocity": 119,
      "chip": "ym2612"
    },
    {
      "channel": 2,
      "note": 85,
      "start": 25.97,
      "duration": 0.2992,
      "velocity": 98,
      "chip": "ym2612"
    },
    {
      "channel": 3,
      "note": 68,
      "start": 25.9703,
      "duration": 1.1585,
      "velocity": 98,
      "chip": "ym2612"
    },
    {
      "channel": 4,
      "note": 51,
      "start": 25.9707,
      "duration": 0.0756,
      "velocity": 105,
      "chip": "ym2612"
    },
    {
      "channel": 0,
      "note": 82,
      "start": 25.9827,
      "duration": 0.063,
      "velocity": 119,
      "chip": "ym2612"
    },
    {
      "channel": 1,
      "note": 83,
      "start": 25.9829,
      "duration": 0.063,
      "velocity": 119,
      "chip": "ym2612"
    },
    {
      "channel": 0,
      "note": 93,
      "start": 26.0458,
      "duration": 0.099,
      "velocity": 119,
      "chip": "ym2612"
    },
    {
      "channel": 1,
      "note": 71,
      "start": 26.0461,
      "duration": 0.099,
      "velocity": 119,
      "chip": "ym2612"
    },
    {
      "channel": 4,
      "note": 51,
      "start": 26.0466,
      "duration": 0.198,
      "velocity": 105,
      "chip": "ym2612"
    },
    {
      "channel": 0,
      "note": 81,
      "start": 26.1449,
      "duration": 0.099,
      "velocity": 119,
      "chip": "ym2612"
    },
    {
      "channel": 1,
      "note": 94,
      "start": 26.1452,
      "duration": 0.099,
      "velocity": 119,
      "chip": "ym2612"
    },
    {
      "channel": 0,
      "note": 92,
      "start": 26.2441,
      "duration": 0.0128,
      "velocity": 119,
      "chip": "ym2612"
    },
    {
      "channel": 1,
      "note": 82,
      "start": 26.2443,
      "duration": 0.0128,
      "velocity": 119,
      "chip": "ym2612"
    },
    {
      "channel": 4,
      "note": 51,
      "start": 26.2447,
      "duration": 0.0249,
      "velocity": 105,
      "chip": "ym2612"
    },
    {
      "channel": 0,
      "note": 80,
      "start": 26.257,
      "duration": 0.0117,
      "velocity": 119,
      "chip": "ym2612"
    },
    {
      "channel": 1,
      "note": 93,
      "start": 26.2572,
      "duration": 0.0118,
      "velocity": 119,
      "chip": "ym2612"
    },
    {
      "channel": 0,
      "note": 91,
      "start": 26.2689,
      "duration": 0.0109,
      "velocity": 119,
      "chip": "ym2612"
    },
    {
      "channel": 1,
      "note": 81,
      "start": 26.2691,
      "duration": 0.0109,
      "velocity": 119,
      "chip": "ym2612"
    },
    {
      "channel": 2,
      "note": 87,
      "start": 26.2694,
      "duration": 0.3205,
      "velocity": 98,
      "chip": "ym2612"
    },
    {
      "channel": 4,
      "note": 51,
      "start": 26.2697,
      "duration": 0.1069,
      "velocity": 105,
      "chip": "ym2612"
    },
    {
      "channel": 0,
      "note": 79,
      "start": 26.2799,
      "duration": 0.0961,
      "velocity": 119,
      "chip": "ym2612"
    },
    {
      "channel": 1,
      "note": 92,
      "start": 26.2802,
      "duration": 0.0961,
      "velocity": 119,
      "chip": "ym2612"
    },
    {
      "channel": 0,
      "note": 90,
      "start": 26.3761,
      "duration": 0.0125,
      "velocity": 119,
      "chip": "ym2612"
    },
    {
      "channel": 1,
      "note": 80,
      "start": 26.3764,
      "duration": 0.0125,
      "velocity": 119,
      "chip": "ym2612"
    },
    {
      "channel": 4,
      "note": 51,
      "start": 26.3769,
      "duration": 0.0758,
      "velocity": 105,
      "chip": "ym2612"
    },
    {
      "channel": 0,
      "note": 78,
      "start": 26.3888,
      "duration": 0.0633,
      "velocity": 119,
      "chip": "ym2612"
    },
    {
      "channel": 1,
      "note": 91,
      "start": 26.389,
      "duration": 0.0633,
      "velocity": 119,
      "chip": "ym2612"
    },
    {
      "channel": 0,
      "note": 89,
      "start": 26.4522,
      "duration": 0.038,
      "velocity": 119,
      "chip": "ym2612"
    },
    {
      "channel": 1,
      "note": 79,
      "start": 26.4525,
      "duration": 0.038,
      "velocity": 119,
      "chip": "ym2612"
    },
    {
      "channel": 4,
      "note": 51,
      "start": 26.453,
      "duration": 0.1371,
      "velocity": 105,
      "chip": "ym2612"
    },
    {
      "channel": 0,
      "note": 77,
      "start": 26.4904,
      "duration": 0.099,
      "velocity": 119,
      "chip": "ym2612"
    },
    {
      "channel": 1,
      "note": 90,
      "start": 26.4906,
      "duration": 0.099,
      "velocity": 119,
      "chip": "ym2612"
    },
    {
      "channel": 0,
      "note": 88,
      "start": 26.5895,
      "duration": 0.0128,
      "velocity": 119,
      "chip": "ym2612"
    },
    {
      "channel": 1,
      "note": 78,
      "start": 26.5898,
      "duration": 0.0128,
      "velocity": 119,
      "chip": "ym2612"
    },
    {
      "channel": 2,
      "note": 82,
      "start": 26.59,
      "duration": 0.2081,
      "velocity": 98,
      "chip": "ym2612"
    },
    {
      "channel": 4,
      "note": 51,
      "start": 26.5903,
      "duration": 0.0246,
      "velocity": 105,
      "chip": "ym2612"
    },
    {
      "channel": 0,
      "note": 76,
      "start": 26.6025,
      "duration": 0.0119,
      "velocity": 119,
      "chip": "ym2612"
    },
    {
      "channel": 1,
      "note": 89,
      "start": 26.6027,
      "duration": 0.0119,
      "velocity": 119,
      "chip": "ym2612"
    },
    {
      "channel": 0,
      "note": 87,
      "start": 26.6145,
      "duration": 0.0106,
      "velocity": 119,
      "chip": "ym2612"
    },
    {
      "channel": 1,
      "note": 77,
      "start": 26.6147,
      "duration": 0.0106,
      "velocity": 119,
      "chip": "ym2612"
    },
    {
      "channel": 4,
      "note": 51,
      "start": 26.6151,
      "duration": 0.107,
      "velocity": 105,
      "chip": "ym2612"
    },
    {
      "channel": 0,
      "note": 75,
      "start": 26.6253,
      "duration": 0.0962,
      "velocity": 119,
      "chip": "ym2612"
    },
    {
      "channel": 1,
      "note": 88,
      "start": 26.6255,
      "duration": 0.0962,
      "velocity": 119,
      "chip": "ym2612"
    },
    {
      "channel": 0,
      "note": 86,
      "start": 26.7216,
      "duration": 0.0127,
      "velocity": 119,
      "chip": "ym2612"
    },
    {
      "channel": 1,
      "note": 76,
      "start": 26.7218,
      "duration": 0.0127,
      "velocity": 119,
      "chip": "ym2612"
    },
    {
      "channel": 4,
      "note": 51,
      "start": 26.7224,
      "duration": 0.076,
      "velocity": 105,
      "chip": "ym2612"
    },
    {
      "channel": 0,
      "note": 74,
      "start": 26.7344,
      "duration": 0.0632,
      "velocity": 119,
      "chip": "ym2612"
    },
    {
      "channel": 1,
      "note": 87,
      "start": 26.7346,
      "duration": 0.0632,
      "velocity": 119,
      "chip": "ym2612"
    },
    {
      "channel": 0,
      "note": 85,
      "start": 26.7977,
      "duration": 0.099,
      "velocity": 119,
      "chip": "ym2612"
    },
    {
      "channel": 1,
      "note": 75,
      "start": 26.798,
      "duration": 0.099,
      "velocity": 119,
      "chip": "ym2612"
    },
    {
      "channel": 2,
      "note": 80,
      "start": 26.7982,
      "duration": 0.3303,
      "velocity": 98,
      "chip": "ym2612"
    },
    {
      "channel": 4,
      "note": 51,
      "start": 26.7987,
      "duration": 0.1978,
      "velocity": 105,
      "chip": "ym2612"
    },
    {
      "channel": 0,
      "note": 73,
      "start": 26.8968,
      "duration": 0.099,
      "velocity": 119,
      "chip": "ym2612"
    },
    {
      "channel": 1,
      "note": 86,
      "start": 26.8971,
      "duration": 0.099,
      "velocity": 119,
      "chip": "ym2612"
    },
    {
      "channel": 0,
      "note": 84,
      "start": 26.996,
      "duration": 0.0127,
      "velocity": 119,
      "chip": "ym2612"
    },
    {
      "channel": 1,
      "note": 74,
      "start": 26.9962,
      "duration": 0.0127,
      "velocity": 119,
      "chip": "ym2612"
    },
    {
      "channel": 4,
      "note": 51,
      "start": 26.9966,
      "duration": 0.0247,
      "velocity": 105,
      "chip": "ym2612"
    },
    {
      "channel": 0,
      "note": 72,
      "start": 27.0088,
      "duration": 0.0119,
      "velocity": 119,
      "chip": "ym2612"
    },
    {
      "channel": 1,
      "note": 85,
      "start": 27.009,
      "duration": 0.0119,
      "velocity": 119,
      "chip": "ym2612"
    },
    {
      "channel": 0,
      "note": 83,
      "start": 27.0208,
      "duration": 0.0108,
      "velocity": 119,
      "chip": "ym2612"
    },
    {
      "channel": 1,
      "note": 73,
      "start": 27.0211,
      "duration": 0.0108,
      "velocity": 119,
      "chip": "ym2612"
    },
    {
      "channel": 4,
      "note": 51,
      "start": 27.0215,
      "duration": 0.1076,
      "velocity": 105,
      "chip": "ym2612"
    },
    {
      "channel": 0,
      "note": 71,
      "start": 27.0318,
      "duration": 0.0963,
      "velocity": 119,
      "chip": "ym2612"
    },
    {
      "channel": 1,
      "note": 84,
      "start": 27.032,
      "duration": 0.0963,
      "velocity": 119,
      "chip": "ym2612"
    },
    {
      "channel": 0,
      "note": 94,
      "start": 27.1282,
      "duration": 0.013,
      "velocity": 119,
      "chip": "ym2612"
    },
    {
      "channel": 1,
      "note": 72,
      "start": 27.1284,
      "duration": 0.013,
      "velocity": 119,
      "chip": "ym2612"
    },
    {
      "channel": 2,
      "note": 82,
      "start": 27.1287,
      "duration": 1.0974,
      "velocity": 98,
      "chip": "ym2612"
    },
    {
      "channel": 3,
      "note": 75,
      "start": 27.1289,
      "duration": 1.0974,
      "velocity": 98,
      "chip": "ym2612"
    },
    {
      "channel": 4,
      "note": 51,
      "start": 27.1293,
      "duration": 0.0755,
      "velocity": 105,
      "chip": "ym2612"
    },
    {
      "channel": 0,
      "note": 82,
      "start": 27.1413,
      "duration": 0.0629,
      "velocity": 119,
      "chip": "ym2612"
    },
    {
      "channel": 1,
      "note": 83,
      "start": 27.1415,
      "duration": 0.0629,
      "velocity": 119,
      "chip": "ym2612"
    },
    {
      "channel": 0,
      "note": 93,
      "start": 27.2044,
      "duration": 0.0379,
      "velocity": 119,
      "chip": "ym2612"
    },
    {
      "channel": 1,
      "note": 71,
      "start": 27.2046,
      "duration": 0.0379,
      "velocity": 119,
      "chip": "ym2612"
    },
    {
      "channel": 4,
      "note": 51,
      "start": 27.2051,
      "duration": 0.1369,
      "velocity": 105,
      "chip": "ym2612"
    },
    {
      "channel": 0,
      "note": 81,
      "start": 27.2424,
      "duration": 0.099,
      "velocity": 119,
      "chip": "ym2612"
    },
    {
      "channel": 1,
      "note": 94,
      "start": 27.2427,
      "duration": 0.099,
      "velocity": 119,
      "chip": "ym2612"
    },
    {
      "channel": 0,
      "note": 92,
      "start": 27.3415,
      "duration": 0.0127,
      "velocity": 119,
      "chip": "ym2612"
    },
    {
      "channel": 1,
      "note": 82,
      "start": 27.3418,
      "duration": 0.0127,
      "velocity": 119,
      "chip": "ym2612"
    },
    {
      "channel": 4,
      "note": 51,
      "start": 27.3422,
      "duration": 0.0245,
      "velocity": 105,
      "chip": "ym2612"
    },
    {
      "channel": 0,
      "note": 80,
      "start": 27.3544,
      "duration": 0.0117,
      "velocity": 119,
      "chip": "ym2612"
    },
    {
      "channel": 1,
      "note": 93,
      "start": 27.3546,
      "duration": 0.0117,
      "velocity": 119,
      "chip": "ym2612"
    },
    {
      "channel": 0,
      "note": 91,
      "start": 27.3662,
      "duration": 0.0108,
      "velocity": 119,
      "chip": "ym2612"
    },
    {
      "channel": 1,
      "note": 81,
      "start": 27.3665,
      "duration": 0.0108,
      "velocity": 119,
      "chip": "ym2612"
    },
    {
      "channel": 4,
      "note": 51,
      "start": 27.3669,
      "duration": 0.1072,
      "velocity": 105,
      "chip": "ym2612"
    },
    {
      "channel": 0,
      "note": 79,
      "start": 27.3772,
      "duration": 0.0963,
      "velocity": 119,
      "chip": "ym2612"
    },
    {
      "channel": 1,
      "note": 92,
      "start": 27.3774,
      "duration": 0.0963,
      "velocity": 119,
      "chip": "ym2612"
    },
    {
      "channel": 0,
      "note": 90,
      "start": 27.4736,
      "duration": 0.0126,
      "velocity": 119,
      "chip": "ym2612"
    },
    {
      "channel": 1,
      "note": 80,
      "start": 27.4738,
      "duration": 0.0126,
      "velocity": 119,
      "chip": "ym2612"
    },
    {
      "channel": 4,
      "note": 51,
      "start": 27.4743,
      "duration": 0.076,
      "velocity": 105,
      "chip": "ym2612"
    },
    {
      "channel": 0,
      "note": 78,
      "start": 27.4863,
      "duration": 0.0634,
      "velocity": 119,
      "chip": "ym2612"
    },
    {
      "channel": 1,
      "note": 91,
      "start": 27.4866,
      "duration": 0.0634,
      "velocity": 119,
      "chip": "ym2612"
    },
    {
      "channel": 0,
      "note": 89,
      "start": 27.5498,
      "duration": 0.099,
      "velocity": 119,
      "chip": "ym2612"
    },
    {
      "channel": 1,
      "note": 79,
      "start": 27.5501,
      "duration": 0.099,
      "velocity": 119,
      "chip": "ym2612"
    },
    {
      "channel": 4,
      "note": 51,
      "start": 27.5506,
      "duration": 0.198,
      "velocity": 105,
      "chip": "ym2612"
    },
    {
      "channel": 0,
      "note": 77,
      "start": 27.649,
      "duration": 0.099,
      "velocity": 119,
      "chip": "ym2612"
    },
    {
      "channel": 1,
      "note": 90,
      "start": 27.6492,
      "duration": 0.099,
      "velocity": 119,
      "chip": "ym2612"
    },
    {
      "channel": 0,
      "note": 88,
      "start": 27.7481,
      "duration": 0.0127,
      "velocity": 119,
      "chip": "ym2612"
    },
    {
      "channel": 1,
      "note": 78,
      "start": 27.7483,
      "duration": 0.0127,
      "velocity": 119,
      "chip": "ym2612"
    },
    {
      "channel": 4,
      "note": 51,
      "start": 27.7487,
      "duration": 0.0246,
      "velocity": 105,
      "chip": "ym2612"
    },
    {
      "channel": 0,
      "note": 76,
      "start": 27.761,
      "duration": 0.0118,
      "velocity": 119,
      "chip": "ym2612"
    },
    {
      "channel": 1,
      "note": 89,
      "start": 27.7612,
      "duration": 0.0118,
      "velocity": 119,
      "chip": "ym2612"
    },
    {
      "channel": 0,
      "note": 87,
      "start": 27.7729,
      "duration": 0.0108,
      "velocity": 119,
      "chip": "ym2612"
    },
    {
      "channel": 1,
      "note": 77,
      "start": 27.7731,
      "duration": 0.0108,
      "velocity": 119,
      "chip": "ym2612"
    },
    {
      "channel": 4,
      "note": 51,
      "start": 27.7735,
      "duration": 0.1071,
      "velocity": 105,
      "chip": "ym2612"
    },
    {
      "channel": 0,
      "note": 75,
      "start": 27.7838,
      "duration": 0.0962,
      "velocity": 119,
      "chip": "ym2612"
    },
    {
      "channel": 1,
      "note": 88,
      "start": 27.7841,
      "duration": 0.0962,
      "velocity": 119,
      "chip": "ym2612"
    },
    {
      "channel": 0,
      "note": 86,
      "start": 27.8802,
      "duration": 0.0126,
      "velocity": 119,
      "chip": "ym2612"
    },
    {
      "channel": 1,
      "note": 76,
      "start": 27.8804,
      "duration": 0.0126,
      "velocity": 119,
      "chip": "ym2612"
    },
    {
      "channel": 4,
      "note": 51,
      "start": 27.881,
      "duration": 0.076,
      "velocity": 105,
      "chip": "ym2612"
    },
    {
      "channel": 0,
      "note": 74,
      "start": 27.8929,
      "duration": 0.0634,
      "velocity": 119,
      "chip": "ym2612"
    },
    {
      "channel": 1,
      "note": 87,
      "start": 27.8932,
      "duration": 0.0634,
      "velocity": 119,
      "chip": "ym2612"
    },
    {
      "channel": 0,
      "note": 85,
      "start": 27.9564,
      "duration": 0.0379,
      "velocity": 119,
      "chip": "ym2612"
    },
    {
      "channel": 1,
      "note": 75,
      "start": 27.9567,
      "duration": 0.0379,
      "velocity": 119,
      "chip": "ym2612"
    },
    {
      "channel": 4,
      "note": 51,
      "start": 27.9572,
      "duration": 0.1369,
      "velocity": 105,
      "chip": "ym2612"
    },
    {
      "channel": 0,
      "note": 73,
      "start": 27.9945,
      "duration": 0.099,
      "velocity": 119,
      "chip": "ym2612"
    },
    {
      "channel": 1,
      "note": 86,
      "start": 27.9948,
      "duration": 0.099,
      "velocity": 119,
      "chip": "ym2612"
    },
    {
      "channel": 0,
      "note": 84,
      "start": 28.0936,
      "duration": 0.0127,
      "velocity": 119,
      "chip": "ym2612"
    },
    {
      "channel": 1,
      "note": 74,
      "start": 28.0939,
      "duration": 0.0127,
      "velocity": 119,
      "chip": "ym2612"
    },
    {
      "channel": 4,
      "note": 51,
      "start": 28.0943,
      "duration": 0.0246,
      "velocity": 105,
      "chip": "ym2612"
    },
    {
      "channel": 0,
      "note": 72,
      "start": 28.1064,
      "duration": 0.0118,
      "velocity": 119,
      "chip": "ym2612"
    },
    {
      "channel": 1,
      "note": 85,
      "start": 28.1067,
      "duration": 0.0118,
      "velocity": 119,
      "chip": "ym2612"
    },
    {
      "channel": 0,
      "note": 83,
      "start": 28.1183,
      "duration": 0.0107,
      "velocity": 119,
      "chip": "ym2612"
    },
    {
      "channel": 1,
      "note": 73,
      "start": 28.1186,
      "duration": 0.0107,
      "velocity": 119,
      "chip": "ym2612"
    },
    {
      "channel": 4,
      "note": 51,
      "start": 28.119,
      "duration": 0.1077,
      "velocity": 105,
      "chip": "ym2612"
    },
    {
      "channel": 0,
      "note": 71,
      "start": 28.1292,
      "duration": 0.0964,
      "velocity": 119,
      "chip": "ym2612"
    },
    {
      "channel": 1,
      "note": 84,
      "start": 28.1295,
      "duration": 0.0964,
      "velocity": 119,
      "chip": "ym2612"
    },
    {
      "channel": 0,
      "note": 94,
      "start": 28.2257,
      "duration": 0.0132,
      "velocity": 119,
      "chip": "ym2612"
    },
    {
      "channel": 1,
      "note": 72,
      "start": 28.226,
      "duration": 0.0132,
      "velocity": 119,
      "chip": "ym2612"
    },
    {
      "channel": 2,
      "note": 85,
      "start": 28.2262,
      "duration": 1.1586,
      "velocity": 98,
      "chip": "ym2612"
    },
    {
      "channel": 3,
      "note": 77,
      "start": 28.2265,
      "duration": 1.1586,
      "velocity": 98,
      "chip": "ym2612"
    },
    {
      "channel": 4,
      "note": 49,
      "start": 28.2269,
      "duration": 0.0756,
      "velocity": 105,
      "chip": "ym2612"
    },
    {
      "channel": 0,
      "note": 82,
      "start": 28.2391,
      "duration": 0.0627,
      "velocity": 119,
      "chip": "ym2612"
    },
    {
      "channel": 1,
      "note": 83,
      "start": 28.2393,
      "duration": 0.0627,
      "velocity": 119,
      "chip": "ym2612"
    },
    {
      "channel": 0,
      "note": 93,
      "start": 28.302,
      "duration": 0.099,
      "velocity": 119,
      "chip": "ym2612"
    },
    {
      "channel": 1,
      "note": 71,
      "start": 28.3022,
      "duration": 0.099,
      "velocity": 119,
      "chip": "ym2612"
    },
    {
      "channel": 4,
      "note": 49,
      "start": 28.3028,
      "duration": 0.198,
      "velocity": 105,
      "chip": "ym2612"
    },
    {
      "channel": 0,
      "note": 81,
      "start": 28.4011,
      "duration": 0.099,
      "velocity": 119,
      "chip": "ym2612"
    },
    {
      "channel": 1,
      "note": 94,
      "start": 28.4013,
      "duration": 0.099,
      "velocity": 119,
      "chip": "ym2612"
    },
    {
      "channel": 0,
      "note": 92,
      "start": 28.5002,
      "duration": 0.0126,
      "velocity": 119,
      "chip": "ym2612"
    },
    {
      "channel": 1,
      "note": 82,
      "start": 28.5005,
      "duration": 0.0126,
      "velocity": 119,
      "chip": "ym2612"
    },
    {
      "channel": 4,
      "note": 49,
      "start": 28.5009,
      "duration": 0.0246,
      "velocity": 105,
      "chip": "ym2612"
    },
    {
      "channel": 0,
      "note": 80,
      "start": 28.5129,
      "duration": 0.0119,
      "velocity": 119,
      "chip": "ym2612"
    },
    {
      "channel": 1,
      "note": 93,
      "start": 28.5132,
      "duration": 0.0119,
      "velocity": 119,
      "chip": "ym2612"
    },
    {
      "channel": 0,
      "note": 91,
      "start": 28.5249,
      "duration": 0.0108,
      "velocity": 119,
      "chip": "ym2612"
    },
    {
      "channel": 1,
      "note": 81,
      "start": 28.5252,
      "duration": 0.0108,
      "velocity": 119,
      "chip": "ym2612"
    },
    {
      "channel": 4,
      "note": 49,
      "start": 28.5256,
      "duration": 0.1072,
      "velocity": 105,
      "chip": "ym2612"
    },
    {
      "channel": 0,
      "note": 79,
      "start": 28.5359,
      "duration": 0.0962,
      "velocity": 119,
      "chip": "ym2612"
    },
    {
      "channel": 1,
      "note": 92,
      "start": 28.5361,
      "duration": 0.0962,
      "velocity": 119,
      "chip": "ym2612"
    },
    {
      "channel": 0,
      "note": 90,
      "start": 28.6323,
      "duration": 0.0126,
      "velocity": 119,
      "chip": "ym2612"
    },
    {
      "channel": 1,
      "note": 80,
      "start": 28.6325,
      "duration": 0.0126,
      "velocity": 119,
      "chip": "ym2612"
    },
    {
      "channel": 4,
      "note": 49,
      "start": 28.633,
      "duration": 0.076,
      "velocity": 105,
      "chip": "ym2612"
    },
    {
      "channel": 0,
      "note": 78,
      "start": 28.645,
      "duration": 0.0634,
      "velocity": 119,
      "chip": "ym2612"
    },
    {
      "channel": 1,
      "note": 91,
      "start": 28.6452,
      "duration": 0.0634,
      "velocity": 119,
      "chip": "ym2612"
    },
    {
      "channel": 0,
      "note": 89,
      "start": 28.7085,
      "duration": 0.038,
      "velocity": 119,
      "chip": "ym2612"
    },
    {
      "channel": 1,
      "note": 79,
      "start": 28.7088,
      "duration": 0.038,
      "velocity": 119,
      "chip": "ym2612"
    },
    {
      "channel": 4,
      "note": 49,
      "start": 28.7093,
      "duration": 0.1369,
      "velocity": 105,
      "chip": "ym2612"
    },
    {
      "channel": 0,
      "note": 77,
      "start": 28.7466,
      "duration": 0.099,
      "velocity": 119,
      "chip": "ym2612"
    },
    {
      "channel": 1,
      "note": 90,
      "start": 28.7469,
      "duration": 0.099,
      "velocity": 119,
      "chip": "ym2612"
    },
    {
      "channel": 0,
      "note": 88,
      "start": 28.8457,
      "duration": 0.0128,
      "velocity": 119,
      "chip": "ym2612"
    },
    {
      "channel": 1,
      "note": 78,
      "start": 28.846,
      "duration": 0.0128,
      "velocity": 119,
      "chip": "ym2612"
    },
    {
      "channel": 4,
      "note": 49,
      "start": 28.8463,
      "duration": 0.0247,
      "velocity": 105,
      "chip": "ym2612"
    },
    {
      "channel": 0,
      "note": 76,
      "start": 28.8587,
      "duration": 0.0117,
      "velocity": 119,
      "chip": "ym2612"
    },
    {
      "channel": 1,
      "note": 89,
      "start": 28.8589,
      "duration": 0.0117,
      "velocity": 119,
      "chip": "ym2612"
    },
    {
      "channel": 0,
      "note": 87,
      "start": 28.8706,
      "duration": 0.0108,
      "velocity": 119,
      "chip": "ym2612"
    },
    {
      "channel": 1,
      "note": 77,
      "start": 28.8708,
      "duration": 0.0108,
      "velocity": 119,
      "chip": "ym2612"
    },
    {
      "channel": 4,
      "note": 49,
      "start": 28.8712,
      "duration": 0.1072,
      "velocity": 105,
      "chip": "ym2612"
    },
    {
      "channel": 0,
      "note": 75,
      "start": 28.8815,
      "duration": 0.0962,
      "velocity": 119,
      "chip": "ym2612"
    },
    {
      "channel": 1,
      "note": 88,
      "start": 28.8817,
      "duration": 0.0962,
      "velocity": 119,
      "chip": "ym2612"
    },
    {
      "channel": 0,
      "note": 86,
      "start": 28.9779,
      "duration": 0.0126,
      "velocity": 119,
      "chip": "ym2612"
    },
    {
      "channel": 1,
      "note": 76,
      "start": 28.9781,
      "duration": 0.0126,
      "velocity": 119,
      "chip": "ym2612"
    },
    {
      "channel": 4,
      "note": 49,
      "start": 28.9787,
      "duration": 0.0759,
      "velocity": 105,
      "chip": "ym2612"
    },
    {
      "channel": 0,
      "note": 74,
      "start": 28.9906,
      "duration": 0.0633,
      "velocity": 119,
      "chip": "ym2612"
    },
    {
      "channel": 1,
      "note": 87,
      "start": 28.9909,
      "duration": 0.0633,
      "velocity": 119,
      "chip": "ym2612"
    },
    {
      "channel": 0,
      "note": 85,
      "start": 29.0541,
      "duration": 0.099,
      "velocity": 119,
      "chip": "ym2612"
    },
    {
      "channel": 1,
      "note": 75,
      "start": 29.0543,
      "duration": 0.099,
      "velocity": 119,
      "chip": "ym2612"
    },
    {
      "channel": 4,
      "note": 49,
      "start": 29.0549,
      "duration": 0.198,
      "velocity": 105,
      "chip": "ym2612"
    },
    {
      "channel": 0,
      "note": 73,
      "start": 29.1532,
      "duration": 0.099,
      "velocity": 119,
      "chip": "ym2612"
    },
    {
      "channel": 1,
      "note": 86,
      "start": 29.1534,
      "duration": 0.099,
      "velocity": 119,
      "chip": "ym2612"
    },
    {
      "channel": 0,
      "note": 84,
      "start": 29.2523,
      "duration": 0.0128,
      "velocity": 119,
      "chip": "ym2612"
    },
    {
      "channel": 1,
      "note": 74,
      "start": 29.2526,
      "duration": 0.0128,
      "velocity": 119,
      "chip": "ym2612"
    },
    {
      "channel": 4,
      "note": 49,
      "start": 29.253,
      "duration": 0.0247,
      "velocity": 105,
      "chip": "ym2612"
    },
    {
      "channel": 0,
      "note": 72,
      "start": 29.2652,
      "duration": 0.0118,
      "velocity": 119,
      "chip": "ym2612"
    },
    {
      "channel": 1,
      "note": 85,
      "start": 29.2655,
      "duration": 0.0118,
      "velocity": 119,
      "chip": "ym2612"
    },
    {
      "channel": 0,
      "note": 83,
      "start": 29.2771,
      "duration": 0.0108,
      "velocity": 119,
      "chip": "ym2612"
    },
    {
      "channel": 1,
      "note": 73,
      "start": 29.2774,
      "duration": 0.0108,
      "velocity": 119,
      "chip": "ym2612"
    },
    {
      "channel": 4,
      "note": 49,
      "start": 29.2778,
      "duration": 0.1076,
      "velocity": 105,
      "chip": "ym2612"
    },
    {
      "channel": 0,
      "note": 71,
      "start": 29.2881,
      "duration": 0.0962,
      "velocity": 119,
      "chip": "ym2612"
    },
    {
      "channel": 1,
      "note": 84,
      "start": 29.2883,
      "duration": 0.0962,
      "velocity": 119,
      "chip": "ym2612"
    },
    {
      "channel": 0,
      "note": 94,
      "start": 29.3844,
      "duration": 0.0132,
      "velocity": 119,
      "chip": "ym2612"
    },
    {
      "channel": 1,
      "note": 72,
      "start": 29.3847,
      "duration": 0.0132,
      "velocity": 119,
      "chip": "ym2612"
    },
    {
      "channel": 2,
      "note": 87,
      "start": 29.3849,
      "duration": 1.0972,
      "velocity": 98,
      "chip": "ym2612"
    },
    {
      "channel": 3,
      "note": 70,
      "start": 29.3852,
      "duration": 1.0972,
      "velocity": 98,
      "chip": "ym2612"
    },
    {
      "channel": 4,
      "note": 51,
      "start": 29.3856,
      "duration": 0.0756,
      "velocity": 105,
      "chip": "ym2612"
    },
    {
      "channel": 0,
      "note": 82,
      "start": 29.3978,
      "duration": 0.0628,
      "velocity": 119,
      "chip": "ym2612"
    },
    {
      "channel": 1,
      "note": 83,
      "start": 29.398,
      "duration": 0.0628,
      "velocity": 119,
      "chip": "ym2612"
    },
    {
      "channel": 0,
      "note": 93,
      "start": 29.4607,
      "duration": 0.038,
      "velocity": 119,
      "chip": "ym2612"
    },
    {
      "channel": 1,
      "note": 71,
      "start": 29.461,
      "duration": 0.038,
      "velocity": 119,
      "chip": "ym2612"
    },
    {
      "channel": 4,
      "note": 51,
      "start": 29.4615,
      "duration": 0.1369,
      "velocity": 105,
      "chip": "ym2612"
    },
    {
      "channel": 0,
      "note": 81,
      "start": 29.4988,
      "duration": 0.099,
      "velocity": 119,
      "chip": "ym2612"
    },
    {
      "channel": 1,
      "note": 94,
      "start": 29.4991,
      "duration": 0.099,
      "velocity": 119,
      "chip": "ym2612"
    },
    {
      "channel": 0,
      "note": 92,
      "start": 29.598,
      "duration": 0.0127,
      "velocity": 119,
      "chip": "ym2612"
    },
    {
      "channel": 1,
      "note": 82,
      "start": 29.5982,
      "duration": 0.0127,
      "velocity": 119,
      "chip": "ym2612"
    },
    {
      "channel": 4,
      "note": 51,
      "start": 29.5986,
      "duration": 0.0246,
      "velocity": 105,
      "chip": "ym2612"
    },
    {
      "channel": 0,
      "note": 80,
      "start": 29.6107,
      "duration": 0.0117,
      "velocity": 119,
      "chip": "ym2612"
    },
    {
      "channel": 1,
      "note": 93,
      "start": 29.611,
      "duration": 0.0117,
      "velocity": 119,
      "chip": "ym2612"
    },
    {
      "channel": 0,
      "note": 91,
      "start": 29.6227,
      "duration": 0.0108,
      "velocity": 119,
      "chip": "ym2612"
    },
    {
      "channel": 1,
      "note": 81,
      "start": 29.6229,
      "duration": 0.0108,
      "velocity": 119,
      "chip": "ym2612"
    },
    {
      "channel": 4,
      "note": 51,
      "start": 29.6233,
      "duration": 0.1073,
      "velocity": 105,
      "chip": "ym2612"
    },
    {
      "channel": 0,
      "note": 79,
      "start": 29.6336,
      "duration": 0.0963,
      "velocity": 119,
      "chip": "ym2612"
    },
    {
      "channel": 1,
      "note": 92,
      "start": 29.6339,
      "duration": 0.0963,
      "velocity": 119,
      "chip": "ym2612"
    },
    {
      "channel": 0,
      "note": 90,
      "start": 29.7301,
      "duration": 0.0127,
      "velocity": 119,
      "chip": "ym2612"
    },
    {
      "channel": 1,
      "note": 80,
      "start": 29.7304,
      "duration": 0.0127,
      "velocity": 119,
      "chip": "ym2612"
    },
    {
      "channel": 4,
      "note": 51,
      "start": 29.7309,
      "duration": 0.076,
      "velocity": 105,
      "chip": "ym2612"
    },
    {
      "channel": 0,
      "note": 78,
      "start": 29.743,
      "duration": 0.0632,
      "velocity": 119,
      "chip": "ym2612"
    },
    {
      "channel": 1,
      "note": 91,
      "start": 29.7432,
      "duration": 0.0632,
      "velocity": 119,
      "chip": "ym2612"
    },
    {
      "channel": 0,
      "note": 89,
      "start": 29.8064,
      "duration": 0.099,
      "velocity": 119,
      "chip": "ym2612"
    },
    {
      "channel": 1,
      "note": 79,
      "start": 29.8066,
      "duration": 0.099,
      "velocity": 119,
      "chip": "ym2612"
    },
    {
      "channel": 4,
      "note": 51,
      "start": 29.8071,
      "duration": 0.1979,
      "velocity": 105,
      "chip": "ym2612"
    },
    {
      "channel": 0,
      "note": 77,
      "start": 29.9055,
      "duration": 0.099,
      "velocity": 119,
      "chip": "ym2612"
    },
    {
      "channel": 1,
      "note": 90,
      "start": 29.9057,
      "duration": 0.099,
      "velocity": 119,
      "chip": "ym2612"
    },
    {
      "channel": 0,
      "note": 88,
      "start": 30.0046,
      "duration": 0.0125,
      "velocity": 119,
      "chip": "ym2612"
    },
    {
      "channel": 1,
      "note": 78,
      "start": 30.0048,
      "duration": 0.0125,
      "velocity": 119,
      "chip": "ym2612"
    },
    {
      "channel": 4,
      "note": 51,
      "start": 30.0052,
      "duration": 0.0245,
      "velocity": 105,
      "chip": "ym2612"
    },
    {
      "channel": 0,
      "note": 76,
      "start": 30.0172,
      "duration": 0.0118,
      "velocity": 119,
      "chip": "ym2612"
    },
    {
      "channel": 1,
      "note": 89,
      "start": 30.0175,
      "duration": 0.0118,
      "velocity": 119,
      "chip": "ym2612"
    },
    {
      "channel": 0,
      "note": 87,
      "start": 30.0292,
      "duration": 0.0108,
      "velocity": 119,
      "chip": "ym2612"
    },
    {
      "channel": 1,
      "note": 77,
      "start": 30.0295,
      "duration": 0.0108,
      "velocity": 119,
      "chip": "ym2612"
    },
    {
      "channel": 4,
      "note": 51,
      "start": 30.0299,
      "duration": 0.1072,
      "velocity": 105,
      "chip": "ym2612"
    },
    {
      "channel": 0,
      "note": 75,
      "start": 30.0402,
      "duration": 0.0962,
      "velocity": 119,
      "chip": "ym2612"
    },
    {
      "channel": 1,
      "note": 88,
      "start": 30.0404,
      "duration": 0.0963,
      "velocity": 119,
      "chip": "ym2612"
    },
    {
      "channel": 0,
      "note": 86,
      "start": 30.1365,
      "duration": 0.0125,
      "velocity": 119,
      "chip": "ym2612"
    },
    {
      "channel": 1,
      "note": 76,
      "start": 30.1368,
      "duration": 0.0125,
      "velocity": 119,
      "chip": "ym2612"
    },
    {
      "channel": 4,
      "note": 51,
      "start": 30.1373,
      "duration": 0.0758,
      "velocity": 105,
      "chip": "ym2612"
    },
    {
      "channel": 0,
      "note": 74,
      "start": 30.1492,
      "duration": 0.0633,
      "velocity": 119,
      "chip": "ym2612"
    },
    {
      "channel": 1,
      "note": 87,
      "start": 30.1494,
      "duration": 0.0633,
      "velocity": 119,
      "chip": "ym2612"
    },
    {
      "channel": 0,
      "note": 85,
      "start": 30.2127,
      "duration": 0.0379,
      "velocity": 119,
      "chip": "ym2612"
    },
    {
      "channel": 1,
      "note": 75,
      "start": 30.2129,
      "duration": 0.038,
      "velocity": 119,
      "chip": "ym2612"
    },
    {
      "channel": 4,
      "note": 51,
      "start": 30.2134,
      "duration": 0.1369,
      "velocity": 105,
      "chip": "ym2612"
    },
    {
      "channel": 0,
      "note": 73,
      "start": 30.2507,
      "duration": 0.099,
      "velocity": 119,
      "chip": "ym2612"
    },
    {
      "channel": 1,
      "note": 86,
      "start": 30.251,
      "duration": 0.099,
      "velocity": 119,
      "chip": "ym2612"
    },
    {
      "channel": 0,
      "note": 84,
      "start": 30.3498,
      "duration": 0.0127,
      "velocity": 119,
      "chip": "ym2612"
    },
    {
      "channel": 1,
      "note": 74,
      "start": 30.3501,
      "duration": 0.0127,
      "velocity": 119,
      "chip": "ym2612"
    },
    {
      "channel": 4,
      "note": 51,
      "start": 30.3505,
      "duration": 0.0245,
      "velocity": 105,
      "chip": "ym2612"
    },
    {
      "channel": 0,
      "note": 72,
      "start": 30.3626,
      "duration": 0.0117,
      "velocity": 119,
      "chip": "ym2612"
    },
    {
      "channel": 1,
      "note": 85,
      "start": 30.3629,
      "duration": 0.0117,
      "velocity": 119,
      "chip": "ym2612"
    },
    {
      "channel": 0,
      "note": 83,
      "start": 30.3745,
      "duration": 0.0108,
      "velocity": 119,
      "chip": "ym2612"
    },
    {
      "channel": 1,
      "note": 73,
      "start": 30.3748,
      "duration": 0.0108,
      "velocity": 119,
      "chip": "ym2612"
    },
    {
      "channel": 4,
      "note": 51,
      "start": 30.3751,
      "duration": 0.1076,
      "velocity": 105,
      "chip": "ym2612"
    },
    {
      "channel": 0,
      "note": 71,
      "start": 30.3854,
      "duration": 0.0962,
      "velocity": 119,
      "chip": "ym2612"
    },
    {
      "channel": 1,
      "note": 84,
      "start": 30.3857,
      "duration": 0.0962,
      "velocity": 119,
      "chip": "ym2612"
    },
    {
      "channel": 0,
      "note": 94,
      "start": 30.4818,
      "duration": 0.013,
      "velocity": 119,
      "chip": "ym2612"
    },
    {
      "channel": 1,
      "note": 72,
      "start": 30.4821,
      "duration": 0.013,
      "velocity": 119,
      "chip": "ym2612"
    },
    {
      "channel": 2,
      "note": 89,
      "start": 30.4823,
      "duration": 0.2992,
      "velocity": 98,
      "chip": "ym2612"
    },
    {
      "channel": 3,
      "note": 73,
      "start": 30.4826,
      "duration": 1.1586,
      "velocity": 98,
      "chip": "ym2612"
    },
    {
      "channel": 4,
      "note": 49,
      "start": 30.483,
      "duration": 0.0756,
      "velocity": 105,
      "chip": "ym2612"
    },
    {
      "channel": 0,
      "note": 82,
      "start": 30.495,
      "duration": 0.0629,
      "velocity": 119,
      "chip": "ym2612"
    },
    {
      "channel": 1,
      "note": 83,
      "start": 30.4953,
      "duration": 0.0629,
      "velocity": 119,
      "chip": "ym2612"
    },
    {
      "channel": 0,
      "note": 93,
      "start": 30.558,
      "duration": 0.099,
      "velocity": 119,
      "chip": "ym2612"
    },
    {
      "channel": 1,
      "note": 71,
      "start": 30.5583,
      "duration": 0.099,
      "velocity": 119,
      "chip": "ym2612"
    },
    {
      "channel": 4,
      "note": 49,
      "start": 30.5588,
      "duration": 0.198,
      "velocity": 105,
      "chip": "ym2612"
    },
    {
      "channel": 0,
      "note": 81,
      "start": 30.6572,
      "duration": 0.099,
      "velocity": 119,
      "chip": "ym2612"
    },
    {
      "channel": 1,
      "note": 94,
      "start": 30.6574,
      "duration": 0.099,
      "velocity": 119,
      "chip": "ym2612"
    },
    {
      "channel": 0,
      "note": 92,
      "start": 30.7563,
      "duration": 0.0128,
      "velocity": 119,
      "chip": "ym2612"
    },
    {
      "channel": 1,
      "note": 82,
      "start": 30.7566,
      "duration": 0.0128,
      "velocity": 119,
      "chip": "ym2612"
    },
    {
      "channel": 4,
      "note": 49,
      "start": 30.757,
      "duration": 0.0248,
      "velocity": 105,
      "chip": "ym2612"
    },
    {
      "channel": 0,
      "note": 80,
      "start": 30.7693,
      "duration": 0.0117,
      "velocity": 119,
      "chip": "ym2612"
    },
    {
      "channel": 1,
      "note": 93,
      "start": 30.7695,
      "duration": 0.0117,
      "velocity": 119,
      "chip": "ym2612"
    },
    {
      "channel": 0,
      "note": 91,
      "start": 30.7811,
      "duration": 0.011,
      "velocity": 119,
      "chip": "ym2612"
    },
    {
      "channel": 1,
      "note": 81,
      "start": 30.7814,
      "duration": 0.011,
      "velocity": 119,
      "chip": "ym2612"
    },
    {
      "channel": 2,
      "note": 90,
      "start": 30.7816,
      "duration": 0.3207,
      "velocity": 98,
      "chip": "ym2612"
    },
    {
      "channel": 4,
      "note": 49,
      "start": 30.782,
      "duration": 0.1069,
      "velocity": 105,
      "chip": "ym2612"
    },
    {
      "channel": 0,
      "note": 79,
      "start": 30.7922,
      "duration": 0.096,
      "velocity": 119,
      "chip": "ym2612"
    },
    {
      "channel": 1,
      "note": 92,
      "start": 30.7925,
      "duration": 0.096,
      "velocity": 119,
      "chip": "ym2612"
    },
    {
      "channel": 0,
      "note": 90,
      "start": 30.8884,
      "duration": 0.0127,
      "velocity": 119,
      "chip": "ym2612"
    },
    {
      "channel": 1,
      "note": 80,
      "start": 30.8886,
      "duration": 0.0127,
      "velocity": 119,
      "chip": "ym2612"
    },
    {
      "channel": 4,
      "note": 49,
      "start": 30.8892,
      "duration": 0.076,
      "velocity": 105,
      "chip": "ym2612"
    },
    {
      "channel": 0,
      "note": 78,
      "start": 30.9012,
      "duration": 0.0633,
      "velocity": 119,
      "chip": "ym2612"
    },
    {
      "channel": 1,
      "note": 91,
      "start": 30.9015,
      "duration": 0.0634,
      "velocity": 119,
      "chip": "ym2612"
    },
    {
      "channel": 0,
      "note": 89,
      "start": 30.9647,
      "duration": 0.038,
      "velocity": 119,
      "chip": "ym2612"
    },
    {
      "channel": 1,
      "note": 79,
      "start": 30.9649,
      "duration": 0.038,
      "velocity": 119,
      "chip": "ym2612"
    },
    {
      "channel": 4,
      "note": 49,
      "start": 30.9655,
      "duration": 0.1371,
      "velocity": 105,
      "chip": "ym2612"
    },
    {
      "channel": 0,
      "note": 77,
      "start": 31.0028,
      "duration": 0.099,
      "velocity": 119,
      "chip": "ym2612"
    },
    {
      "channel": 1,
      "note": 90,
      "start": 31.0031,
      "duration": 0.099,
      "velocity": 119,
      "chip": "ym2612"
    },
    {
      "channel": 0,
      "note": 88,
      "start": 31.1019,
      "duration": 0.0128,
      "velocity": 119,
      "chip": "ym2612"
    },
    {
      "channel": 1,
      "note": 78,
      "start": 31.1022,
      "duration": 0.0128,
      "velocity": 119,
      "chip": "ym2612"
    },
    {
      "channel": 2,
      "note": 89,
      "start": 31.1024,
      "duration": 0.2081,
      "velocity": 98,
      "chip": "ym2612"
    },
    {
      "channel": 4,
      "note": 49,
      "start": 31.1027,
      "duration": 0.0247,
      "velocity": 105,
      "chip": "ym2612"
    },
    {
      "channel": 0,
      "note": 76,
      "start": 31.1149,
      "duration": 0.0119,
      "velocity": 119,
      "chip": "ym2612"
    },
    {
      "channel": 1,
      "note": 89,
      "start": 31.1151,
      "duration": 0.0119,
      "velocity": 119,
      "chip": "ym2612"
    },
    {
      "channel": 0,
      "note": 87,
      "start": 31.127,
      "duration": 0.0107,
      "velocity": 119,
      "chip": "ym2612"
    },
    {
      "channel": 1,
      "note": 77,
      "start": 31.1272,
      "duration": 0.0107,
      "velocity": 119,
      "chip": "ym2612"
    },
    {
      "channel": 4,
      "note": 49,
      "start": 31.1276,
      "duration": 0.107,
      "velocity": 105,
      "chip": "ym2612"
    },
    {
      "channel": 0,
      "note": 75,
      "start": 31.1378,
      "duration": 0.0962,
      "velocity": 119,
      "chip": "ym2612"
    },
    {
      "channel": 1,
      "note": 88,
      "start": 31.138,
      "duration": 0.0962,
      "velocity": 119,
      "chip": "ym2612"
    },
    {
      "channel": 0,
      "note": 86,
      "start": 31.2341,
      "duration": 0.0126,
      "velocity": 119,
      "chip": "ym2612"
    },
    {
      "channel": 1,
      "note": 76,
      "start": 31.2344,
      "duration": 0.0126,
      "velocity": 119,
      "chip": "ym2612"
    },
    {
      "channel": 4,
      "note": 49,
      "start": 31.2349,
      "duration": 0.076,
      "velocity": 105,
      "chip": "ym2612"
    },
    {
      "channel": 0,
      "note": 74,
      "start": 31.2469,
      "duration": 0.0632,
      "velocity": 119,
      "chip": "ym2612"
    },
    {
      "channel": 1,
      "note": 87,
      "start": 31.2471,
      "duration": 0.0632,
      "velocity": 119,
      "chip": "ym2612"
    },
    {
      "channel": 0,
      "note": 85,
      "start": 31.3102,
      "duration": 0.099,
      "velocity": 119,
      "chip": "ym2612"
    },
    {
      "channel": 1,
      "note": 75,
      "start": 31.3104,
      "duration": 0.099,
      "velocity": 119,
      "chip": "ym2612"
    },
    {
      "channel": 2,
      "note": 85,
      "start": 31.3107,
      "duration": 0.3302,
      "velocity": 98,
      "chip": "ym2612"
    },
    {
      "channel": 4,
      "note": 49,
      "start": 31.3112,
      "duration": 0.1978,
      "velocity": 105,
      "chip": "ym2612"
    },
    {
      "channel": 0,
      "note": 73,
      "start": 31.4093,
      "duration": 0.099,
      "velocity": 119,
      "chip": "ym2612"
    },
    {
      "channel": 1,
      "note": 86,
      "start": 31.4095,
      "duration": 0.099,
      "velocity": 119,
      "chip": "ym2612"
    },
    {
      "channel": 0,
      "note": 84,
      "start": 31.5084,
      "duration": 0.0127,
      "velocity": 119,
      "chip": "ym2612"
    },
    {
      "channel": 1,
      "note": 74,
      "start": 31.5087,
      "duration": 0.0127,
      "velocity": 119,
      "chip": "ym2612"
    },
    {
      "channel": 4,
      "note": 49,
      "start": 31.5091,
      "duration": 0.0247,
      "velocity": 105,
      "chip": "ym2612"
    },
    {
      "channel": 0,
      "note": 72,
      "start": 31.5212,
      "duration": 0.0119,
      "velocity": 119,
      "chip": "ym2612"
    },
    {
      "channel": 1,
      "note": 85,
      "start": 31.5215,
      "duration": 0.0119,
      "velocity": 119,
      "chip": "ym2612"
    },
    {
      "channel": 0,
      "note": 83,
      "start": 31.5332,
      "duration": 0.0108,
      "velocity": 119,
      "chip": "ym2612"
    },
    {
      "channel": 1,
      "note": 73,
      "start": 31.5335,
      "duration": 0.0108,
      "velocity": 119,
      "chip": "ym2612"
    },
    {
      "channel": 4,
      "note": 49,
      "start": 31.5339,
      "duration": 0.1076,
      "velocity": 105,
      "chip": "ym2612"
    },
    {
      "channel": 0,
      "note": 71,
      "start": 31.5442,
      "duration": 0.0962,
      "velocity": 119,
      "chip": "ym2612"
    },
    {
      "channel": 1,
      "note": 84,
      "start": 31.5444,
      "duration": 0.0962,
      "velocity": 119,
      "chip": "ym2612"
    },
    {
      "channel": 0,
      "note": 94,
      "start": 31.6406,
      "duration": 0.0129,
      "velocity": 119,
      "chip": "ym2612"
    },
    {
      "channel": 1,
      "note": 72,
      "start": 31.6408,
      "duration": 0.013,
      "velocity": 119,
      "chip": "ym2612"
    },
    {
      "channel": 2,
      "note": 87,
      "start": 31.641,
      "duration": 1.0972,
      "velocity": 98,
      "chip": "ym2612"
    },
    {
      "channel": 3,
      "note": 70,
      "start": 31.6413,
      "duration": 1.0972,
      "velocity": 98,
      "chip": "ym2612"
    },
    {
      "channel": 4,
      "note": 51,
      "start": 31.6417,
      "duration": 0.0756,
      "velocity": 105,
      "chip": "ym2612"
    },
    {
      "channel": 0,
      "note": 82,
      "start": 31.6537,
      "duration": 0.063,
      "velocity": 119,
      "chip": "ym2612"
    },
    {
      "channel": 1,
      "note": 83,
      "start": 31.6539,
      "duration": 0.063,
      "velocity": 119,
      "chip": "ym2612"
    },
    {
      "channel": 0,
      "note": 93,
      "start": 31.7168,
      "duration": 0.038,
      "velocity": 119,
      "chip": "ym2612"
    },
    {
      "channel": 1,
      "note": 71,
      "start": 31.717,
      "duration": 0.038,
      "velocity": 119,
      "chip": "ym2612"
    },
    {
      "channel": 4,
      "note": 51,
      "start": 31.7176,
      "duration": 0.1369,
      "velocity": 105,
      "chip": "ym2612"
    },
    {
      "channel": 0,
      "note": 81,
      "start": 31.7549,
      "duration": 0.099,
      "velocity": 119,
      "chip": "ym2612"
    },
    {
      "channel": 1,
      "note": 94,
      "start": 31.7551,
      "duration": 0.099,
      "velocity": 119,
      "chip": "ym2612"
    },
    {
      "channel": 0,
      "note": 92,
      "start": 31.854,
      "duration": 0.0128,
      "velocity": 119,
      "chip": "ym2612"
    },
    {
      "channel": 1,
      "note": 82,
      "start": 31.8543,
      "duration": 0.0128,
      "velocity": 119,
      "chip": "ym2612"
    },
    {
      "channel": 4,
      "note": 51,
      "start": 31.8546,
      "duration": 0.0247,
      "velocity": 105,
      "chip": "ym2612"
    },
    {
      "channel": 0,
      "note": 80,
      "start": 31.8669,
      "duration": 0.0117,
      "velocity": 119,
      "chip": "ym2612"
    },
    {
      "channel": 1,
      "note": 93,
      "start": 31.8672,
      "duration": 0.0117,
      "velocity": 119,
      "chip": "ym2612"
    },
    {
      "channel": 0,
      "note": 91,
      "start": 31.8788,
      "duration": 0.0108,
      "velocity": 119,
      "chip": "ym2612"
    },
    {
      "channel": 1,
      "note": 81,
      "start": 31.8791,
      "duration": 0.0108,
      "velocity": 119,
      "chip": "ym2612"
    },
    {
      "channel": 4,
      "note": 51,
      "start": 31.8795,
      "duration": 0.1072,
      "velocity": 105,
      "chip": "ym2612"
    },
    {
      "channel": 0,
      "note": 79,
      "start": 31.8898,
      "duration": 0.0963,
      "velocity": 119,
      "chip": "ym2612"
    },
    {
      "channel": 1,
      "note": 92,
      "start": 31.89,
      "duration": 0.0963,
      "velocity": 119,
      "chip": "ym2612"
    },
    {
      "channel": 0,
      "note": 90,
      "start": 31.9861,
      "duration": 0.0125,
      "velocity": 119,
      "chip": "ym2612"
    },
    {
      "channel": 1,
      "note": 80,
      "start": 31.9864,
      "duration": 0.0125,
      "velocity": 119,
      "chip": "ym2612"
    },
    {
      "channel": 4,
      "note": 51,
      "start": 31.9869,
      "duration": 0.0758,
      "velocity": 105,
      "chip": "ym2612"
    },
    {
      "channel": 0,
      "note": 78,
      "start": 31.9988,
      "duration": 0.0633,
      "velocity": 119,
      "chip": "ym2612"
    },
    {
      "channel": 1,
      "note": 91,
      "start": 31.999,
      "duration": 0.0633,
      "velocity": 119,
      "chip": "ym2612"
    },
    {
      "channel": 0,
      "note": 89,
      "start": 32.0622,
      "duration": 0.099,
      "velocity": 119,
      "chip": "ym2612"
    },
    {
      "channel": 1,
      "note": 79,
      "start": 32.0625,
      "duration": 0.099,
      "velocity": 119,
      "chip": "ym2612"
    },
    {
      "channel": 4,
      "note": 51,
      "start": 32.063,
      "duration": 0.1979,
      "velocity": 105,
      "chip": "ym2612"
    },
    {
      "channel": 0,
      "note": 77,
      "start": 32.1614,
      "duration": 0.099,
      "velocity": 119,
      "chip": "ym2612"
    },
    {
      "channel": 1,
      "note": 90,
      "start": 32.1616,
      "duration": 0.099,
      "velocity": 119,
      "chip": "ym2612"
    },
    {
      "channel": 0,
      "note": 88,
      "start": 32.2605,
      "duration": 0.0127,
      "velocity": 119,
      "chip": "ym2612"
    },
    {
      "channel": 1,
      "note": 78,
      "start": 32.2607,
      "duration": 0.0127,
      "velocity": 119,
      "chip": "ym2612"
    },
    {
      "channel": 4,
      "note": 51,
      "start": 32.2611,
      "duration": 0.0246,
      "velocity": 105,
      "chip": "ym2612"
    },
    {
      "channel": 0,
      "note": 76,
      "start": 32.2733,
      "duration": 0.0117,
      "velocity": 119,
      "chip": "ym2612"
    },
    {
      "channel": 1,
      "note": 89,
      "start": 32.2736,
      "duration": 0.0117,
      "velocity": 119,
      "chip": "ym2612"
    },
    {
      "channel": 0,
      "note": 87,
      "start": 32.2852,
      "duration": 0.0107,
      "velocity": 119,
      "chip": "ym2612"
    },
    {
      "channel": 1,
      "note": 77,
      "start": 32.2854,
      "duration": 0.0107,
      "velocity": 119,
      "chip": "ym2612"
    },
    {
      "channel": 4,
      "note": 51,
      "start": 32.2858,
      "duration": 0.1072,
      "velocity": 105,
      "chip": "ym2612"
    },
    {
      "channel": 0,
      "note": 75,
      "start": 32.2961,
      "duration": 0.0962,
      "velocity": 119,
      "chip": "ym2612"
    },
    {
      "channel": 1,
      "note": 88,
      "start": 32.2963,
      "duration": 0.0962,
      "velocity": 119,
      "chip": "ym2612"
    },
    {
      "channel": 0,
      "note": 86,
      "start": 32.3925,
      "duration": 0.0126,
      "velocity": 119,
      "chip": "ym2612"
    },
    {
      "channel": 1,
      "note": 76,
      "start": 32.3927,
      "duration": 0.0126,
      "velocity": 119,
      "chip": "ym2612"
    },
    {
      "channel": 4,
      "note": 51,
      "start": 32.3933,
      "duration": 0.076,
      "velocity": 105,
      "chip": "ym2612"
    },
    {
      "channel": 0,
      "note": 74,
      "start": 32.4053,
      "duration": 0.0634,
      "velocity": 119,
      "chip": "ym2612"
    },
    {
      "channel": 1,
      "note": 87,
      "start": 32.4055,
      "duration": 0.0634,
      "velocity": 119,
      "chip": "ym2612"
    },
    {
      "channel": 0,
      "note": 85,
      "start": 32.4688,
      "duration": 0.0379,
      "velocity": 119,
      "chip": "ym2612"
    },
    {
      "channel": 1,
      "note": 75,
      "start": 32.469,
      "duration": 0.0379,
      "velocity": 119,
      "chip": "ym2612"
    },
    {
      "channel": 4,
      "note": 51,
      "start": 32.4695,
      "duration": 0.1369,
      "velocity": 105,
      "chip": "ym2612"
    },
    {
      "channel": 0,
      "note": 73,
      "start": 32.5068,
      "duration": 0.099,
      "velocity": 119,
      "chip": "ym2612"
    },
    {
      "channel": 1,
      "note": 86,
      "start": 32.5071,
      "duration": 0.099,
      "velocity": 119,
      "chip": "ym2612"
    },
    {
      "channel": 0,
      "note": 84,
      "start": 32.6059,
      "duration": 0.0126,
      "velocity": 119,
      "chip": "ym2612"
    },
    {
      "channel": 1,
      "note": 74,
      "start": 32.6062,
      "duration": 0.0126,
      "velocity": 119,
      "chip": "ym2612"
    },
    {
      "channel": 4,
      "note": 51,
      "start": 32.6066,
      "duration": 0.0244,
      "velocity": 105,
      "chip": "ym2612"
    },
    {
      "channel": 0,
      "note": 72,
      "start": 32.6187,
      "duration": 0.0117,
      "velocity": 119,
      "chip": "ym2612"
    },
    {
      "channel": 1,
      "note": 85,
      "start": 32.6189,
      "duration": 0.0117,
      "velocity": 119,
      "chip": "ym2612"
    },
    {
      "channel": 0,
      "note": 83,
      "start": 32.6305,
      "duration": 0.0107,
      "velocity": 119,
      "chip": "ym2612"
    },
    {
      "channel": 1,
      "note": 73,
      "start": 32.6308,
      "duration": 0.0107,
      "velocity": 119,
      "chip": "ym2612"
    },
    {
      "channel": 4,
      "note": 51,
      "start": 32.6312,
      "duration": 0.1076,
      "velocity": 105,
      "chip": "ym2612"
    },
    {
      "channel": 0,
      "note": 71,
      "start": 32.6414,
      "duration": 0.0964,
      "velocity": 119,
      "chip": "ym2612"
    },
    {
      "channel": 1,
      "note": 84,
      "start": 32.6416,
      "duration": 0.0964,
      "velocity": 119,
      "chip": "ym2612"
    },
    {
      "channel": 0,
      "note": 94,
      "start": 32.7379,
      "duration": 0.0132,
      "velocity": 119,
      "chip": "ym2612"
    },
    {
      "channel": 1,
      "note": 72,
      "start": 32.7382,
      "duration": 0.0132,
      "velocity": 119,
      "chip": "ym2612"
    },
    {
      "channel": 2,
      "note": 87,
      "start": 32.7384,
      "duration": 0.2991,
      "velocity": 98,
      "chip": "ym2612"
    },
    {
      "channel": 3,
      "note": 82,
      "start": 32.7387,
      "duration": 0.6199,
      "velocity": 98,
      "chip": "ym2612"
    },
    {
      "channel": 4,
      "note": 51,
      "start": 32.7391,
      "duration": 0.0756,
      "velocity": 105,
      "chip": "ym2612"
    },
    {
      "channel": 0,
      "note": 82,
      "start": 32.7512,
      "duration": 0.0628,
      "velocity": 119,
      "chip": "ym2612"
    },
    {
      "channel": 1,
      "note": 83,
      "start": 32.7515,
      "duration": 0.0628,
      "velocity": 119,
      "chip": "ym2612"
    },
    {
      "channel": 0,
      "note": 93,
      "start": 32.8142,
      "duration": 0.099,
      "velocity": 119,
      "chip": "ym2612"
    },
    {
      "channel": 1,
      "note": 71,
      "start": 32.8144,
      "duration": 0.099,
      "velocity": 119,
      "chip": "ym2612"
    },
    {
      "channel": 4,
      "note": 51,
      "start": 32.815,
      "duration": 0.1979,
      "velocity": 105,
      "chip": "ym2612"
    },
    {
      "channel": 0,
      "note": 81,
      "start": 32.9133,
      "duration": 0.099,
      "velocity": 119,
      "chip": "ym2612"
    },
    {
      "channel": 1,
      "note": 94,
      "start": 32.9135,
      "duration": 0.099,
      "velocity": 119,
      "chip": "ym2612"
    },
    {
      "channel": 0,
      "note": 92,
      "start": 33.0124,
      "duration": 0.0126,
      "velocity": 119,
      "chip": "ym2612"
    },
    {
      "channel": 1,
      "note": 82,
      "start": 33.0127,
      "duration": 0.0126,
      "velocity": 119,
      "chip": "ym2612"
    },
    {
      "channel": 4,
      "note": 51,
      "start": 33.0131,
      "duration": 0.0248,
      "velocity": 105,
      "chip": "ym2612"
    },
    {
      "channel": 0,
      "note": 80,
      "start": 33.0251,
      "duration": 0.0118,
      "velocity": 119,
      "chip": "ym2612"
    },
    {
      "channel": 1,
      "note": 93,
      "start": 33.0254,
      "duration": 0.0118,
      "velocity": 119,
      "chip": "ym2612"
    },
    {
      "channel": 0,
      "note": 91,
      "start": 33.0371,
      "duration": 0.011,
      "velocity": 119,
      "chip": "ym2612"
    },
    {
      "channel": 1,
      "note": 81,
      "start": 33.0374,
      "duration": 0.011,
      "velocity": 119,
      "chip": "ym2612"
    },
    {
      "channel": 2,
      "note": 89,
      "start": 33.0376,
      "duration": 0.3206,
      "velocity": 98,
      "chip": "ym2612"
    },
    {
      "channel": 4,
      "note": 51,
      "start": 33.038,
      "duration": 0.107,
      "velocity": 105,
      "chip": "ym2612"
    },
    {
      "channel": 0,
      "note": 79,
      "start": 33.0483,
      "duration": 0.096,
      "velocity": 119,
      "chip": "ym2612"
    },
    {
      "channel": 1,
      "note": 92,
      "start": 33.0485,
      "duration": 0.096,
      "velocity": 119,
      "chip": "ym2612"
    },
    {
      "channel": 0,
      "note": 90,
      "start": 33.1444,
      "duration": 0.0126,
      "velocity": 119,
      "chip": "ym2612"
    },
    {
      "channel": 1,
      "note": 80,
      "start": 33.1447,
      "duration": 0.0126,
      "velocity": 119,
      "chip": "ym2612"
    },
    {
      "channel": 4,
      "note": 51,
      "start": 33.1452,
      "duration": 0.076,
      "velocity": 105,
      "chip": "ym2612"
    },
    {
      "channel": 0,
      "note": 78,
      "start": 33.1572,
      "duration": 0.0634,
      "velocity": 119,
      "chip": "ym2612"
    },
    {
      "channel": 1,
      "note": 91,
      "start": 33.1574,
      "duration": 0.0634,
      "velocity": 119,
      "chip": "ym2612"
    },
    {
      "channel": 0,
      "note": 89,
      "start": 33.2207,
      "duration": 0.0379,
      "velocity": 119,
      "chip": "ym2612"
    },
    {
      "channel": 1,
      "note": 79,
      "start": 33.221,
      "duration": 0.0379,
      "velocity": 119,
      "chip": "ym2612"
    },
    {
      "channel": 4,
      "note": 51,
      "start": 33.2215,
      "duration": 0.1373,
      "velocity": 105,
      "chip": "ym2612"
    },
    {
      "channel": 0,
      "note": 77,
      "start": 33.2588,
      "duration": 0.099,
      "velocity": 119,
      "chip": "ym2612"
    },
    {
      "channel": 1,
      "note": 90,
      "start": 33.259,
      "duration": 0.099,
      "velocity": 119,
      "chip": "ym2612"
    },
    {
      "channel": 0,
      "note": 88,
      "start": 33.3579,
      "duration": 0.013,
      "velocity": 119,
      "chip": "ym2612"
    },
    {
      "channel": 1,
      "note": 78,
      "start": 33.3582,
      "duration": 0.013,
      "velocity": 119,
      "chip": "ym2612"
    },
    {
      "channel": 2,
      "note": 90,
      "start": 33.3584,
      "duration": 0.208,
      "velocity": 98,
      "chip": "ym2612"
    },
    {
      "channel": 3,
      "note": 85,
      "start": 33.3587,
      "duration": 0.5384,
      "velocity": 98,
      "chip": "ym2612"
    },
    {
      "channel": 4,
      "note": 51,
      "start": 33.359,
      "duration": 0.0245,
      "velocity": 105,
      "chip": "ym2612"
    },
    {
      "channel": 0,
      "note": 76,
      "start": 33.3711,
      "duration": 0.0117,
      "velocity": 119,
      "chip": "ym2612"
    },
    {
      "channel": 1,
      "note": 89,
      "start": 33.3713,
      "duration": 0.0117,
      "velocity": 119,
      "chip": "ym2612"
    },
    {
      "channel": 0,
      "note": 87,
      "start": 33.3829,
      "duration": 0.0108,
      "velocity": 119,
      "chip": "ym2612"
    },
    {
      "channel": 1,
      "note": 77,
      "start": 33.3832,
      "duration": 0.0108,
      "velocity": 119,
      "chip": "ym2612"
    },
    {
      "channel": 4,
      "note": 51,
      "start": 33.3836,
      "duration": 0.1068,
      "velocity": 105,
      "chip": "ym2612"
    },
    {
      "channel": 0,
      "note": 75,
      "start": 33.3939,
      "duration": 0.0959,
      "velocity": 119,
      "chip": "ym2612"
    },
    {
      "channel": 1,
      "note": 88,
      "start": 33.3941,
      "duration": 0.0959,
      "velocity": 119,
      "chip": "ym2612"
    },
    {
      "channel": 0,
      "note": 86,
      "start": 33.4899,
      "duration": 0.0125,
      "velocity": 119,
      "chip": "ym2612"
    },
    {
      "channel": 1,
      "note": 76,
      "start": 33.4901,
      "duration": 0.0126,
      "velocity": 119,
      "chip": "ym2612"
    },
    {
      "channel": 4,
      "note": 51,
      "start": 33.4907,
      "duration": 0.0761,
      "velocity": 105,
      "chip": "ym2612"
    },
    {
      "channel": 0,
      "note": 74,
      "start": 33.5026,
      "duration": 0.0634,
      "velocity": 119,
      "chip": "ym2612"
    },
    {
      "channel": 1,
      "note": 87,
      "start": 33.5028,
      "duration": 0.0634,
      "velocity": 119,
      "chip": "ym2612"
    },
    {
      "channel": 0,
      "note": 85,
      "start": 33.5661,
      "duration": 0.099,
      "velocity": 119,
      "chip": "ym2612"
    },
    {
      "channel": 1,
      "note": 75,
      "start": 33.5663,
      "duration": 0.099,
      "velocity": 119,
      "chip": "ym2612"
    },
    {
      "channel": 2,
      "note": 92,
      "start": 33.5666,
      "duration": 0.3302,
      "velocity": 98,
      "chip": "ym2612"
    },
    {
      "channel": 4,
      "note": 51,
      "start": 33.5671,
      "duration": 0.1978,
      "velocity": 105,
      "chip": "ym2612"
    },
    {
      "channel": 0,
      "note": 73,
      "start": 33.6652,
      "duration": 0.099,
      "velocity": 119,
      "chip": "ym2612"
    },
    {
      "channel": 1,
      "note": 86,
      "start": 33.6655,
      "duration": 0.099,
      "velocity": 119,
      "chip": "ym2612"
    },
    {
      "channel": 0,
      "note": 84,
      "start": 33.7644,
      "duration": 0.0128,
      "velocity": 119,
      "chip": "ym2612"
    },
    {
      "channel": 1,
      "note": 74,
      "start": 33.7646,
      "duration": 0.0128,
      "velocity": 119,
      "chip": "ym2612"
    },
    {
      "channel": 4,
      "note": 51,
      "start": 33.765,
      "duration": 0.0247,
      "velocity": 105,
      "chip": "ym2612"
    },
    {
      "channel": 0,
      "note": 72,
      "start": 33.7773,
      "duration": 0.0118,
      "velocity": 119,
      "chip": "ym2612"
    },
    {
      "channel": 1,
      "note": 85,
      "start": 33.7775,
      "duration": 0.0118,
      "velocity": 119,
      "chip": "ym2612"
    },
    {
      "channel": 0,
      "note": 83,
      "start": 33.7892,
      "duration": 0.0108,
      "velocity": 119,
      "chip": "ym2612"
    },
    {
      "channel": 1,
      "note": 73,
      "start": 33.7894,
      "duration": 0.0108,
      "velocity": 119,
      "chip": "ym2612"
    },
    {
      "channel": 4,
      "note": 51,
      "start": 33.7898,
      "duration": 0.1076,
      "velocity": 105,
      "chip": "ym2612"
    },
    {
      "channel": 0,
      "note": 71,
      "start": 33.8001,
      "duration": 0.0962,
      "velocity": 119,
      "chip": "ym2612"
    },
    {
      "channel": 1,
      "note": 84,
      "start": 33.8004,
      "duration": 0.0962,
      "velocity": 119,
      "chip": "ym2612"
    },
    {
      "channel": 0,
      "note": 94,
      "start": 33.8965,
      "duration": 0.0131,
      "velocity": 119,
      "chip": "ym2612"
    },
    {
      "channel": 1,
      "note": 72,
      "start": 33.8967,
      "duration": 0.0131,
      "velocity": 119,
      "chip": "ym2612"
    },
    {
      "channel": 2,
      "note": 94,
      "start": 33.897,
      "duration": 0.0475,
      "velocity": 98,
      "chip": "ym2612"
    },
    {
      "channel": 3,
      "note": 90,
      "start": 33.8973,
      "duration": 0.0475,
      "velocity": 98,
      "chip": "ym2612"
    },
    {
      "channel": 4,
      "note": 51,
      "start": 33.8976,
      "duration": 0.0243,
      "velocity": 105,
      "chip": "ym2612"
    },
    {
      "channel": 0,
      "note": 82,
      "start": 33.9097,
      "duration": 0.0116,
      "velocity": 119,
      "chip": "ym2612"
    },
    {
      "channel": 1,
      "note": 83,
      "start": 33.91,
      "duration": 0.0116,
      "velocity": 119,
      "chip": "ym2612"
    },
    {
      "channel": 0,
      "note": 93,
      "start": 33.9214,
      "duration": 0.0109,
      "velocity": 119,
      "chip": "ym2612"
    },
    {
      "channel": 1,
      "note": 71,
      "start": 33.9217,
      "duration": 0.0109,
      "velocity": 119,
      "chip": "ym2612"
    },
    {
      "channel": 4,
      "note": 51,
      "start": 33.9222,
      "duration": 0.0228,
      "velocity": 105,
      "chip": "ym2612"
    },
    {
      "channel": 0,
      "note": 81,
      "start": 33.9325,
      "duration": 0.0115,
      "velocity": 119,
      "chip": "ym2612"
    },
    {
      "channel": 1,
      "note": 94,
      "start": 33.9327,
      "duration": 0.0115,
      "velocity": 119,
      "chip": "ym2612"
    },
    {
      "channel": 0,
      "note": 92,
      "start": 33.9441,
      "duration": 0.0112,
      "velocity": 119,
      "chip": "ym2612"
    },
    {
      "channel": 1,
      "note": 82,
      "start": 33.9444,
      "duration": 0.0112,
      "velocity": 119,
      "chip": "ym2612"
    },
    {
      "channel": 2,
      "note": 92,
      "start": 33.9446,
      "duration": 0.046,
      "velocity": 98,
      "chip": "ym2612"
    },
    {
      "channel": 3,
      "note": 89,
      "start": 33.9449,
      "duration": 0.046,
      "velocity": 98,
      "chip": "ym2612"
    },
    {
      "channel": 4,
      "note": 51,
      "start": 33.9452,
      "duration": 0.0225,
      "velocity": 105,
      "chip": "ym2612"
    },
    {
      "channel": 0,
      "note": 80,
      "start": 33.9555,
      "duration": 0.0115,
      "velocity": 119,
      "chip": "ym2612"
    },
    {
      "channel": 1,
      "note": 93,
      "start": 33.9557,
      "duration": 0.0115,
      "velocity": 119,
      "chip": "ym2612"
    },
    {
      "channel": 0,
      "note": 91,
      "start": 33.9671,
      "duration": 0.0125,
      "velocity": 119,
      "chip": "ym2612"
    },
    {
      "channel": 1,
      "note": 81,
      "start": 33.9674,
      "duration": 0.0125,
      "velocity": 119,
      "chip": "ym2612"
    },
    {
      "channel": 4,
      "note": 51,
      "start": 33.9678,
      "duration": 0.0234,
      "velocity": 105,
      "chip": "ym2612"
    },
    {
      "channel": 0,
      "note": 79,
      "start": 33.9798,
      "duration": 0.0103,
      "velocity": 119,
      "chip": "ym2612"
    },
    {
      "channel": 1,
      "note": 92,
      "start": 33.98,
      "duration": 0.0103,
      "velocity": 119,
      "chip": "ym2612"
    },
    {
      "channel": 0,
      "note": 90,
      "start": 33.9902,
      "duration": 0.0131,
      "velocity": 119,
      "chip": "ym2612"
    },
    {
      "channel": 1,
      "note": 80,
      "start": 33.9905,
      "duration": 0.0131,
      "velocity": 119,
      "chip": "ym2612"
    },
    {
      "channel": 2,
      "note": 90,
      "start": 33.9907,
      "duration": 0.0475,
      "velocity": 98,
      "chip": "ym2612"
    },
    {
      "channel": 3,
      "note": 87,
      "start": 33.991,
      "duration": 0.0475,
      "velocity": 98,
      "chip": "ym2612"
    },
    {
      "channel": 4,
      "note": 51,
      "start": 33.9914,
      "duration": 0.0232,
      "velocity": 105,
      "chip": "ym2612"
    },
    {
      "channel": 0,
      "note": 78,
      "start": 34.0035,
      "duration": 0.0105,
      "velocity": 119,
      "chip": "ym2612"
    },
    {
      "channel": 1,
      "note": 91,
      "start": 34.0037,
      "duration": 0.0105,
      "velocity": 119,
      "chip": "ym2612"
    },
    {
      "channel": 0,
      "note": 89,
      "start": 34.0141,
      "duration": 0.0119,
      "velocity": 119,
      "chip": "ym2612"
    },
    {
      "channel": 1,
      "note": 79,
      "start": 34.0144,
      "duration": 0.012,
      "velocity": 119,
      "chip": "ym2612"
    },
    {
      "channel": 4,
      "note": 51,
      "start": 34.0149,
      "duration": 0.0238,
      "velocity": 105,
      "chip": "ym2612"
    },
    {
      "channel": 0,
      "note": 77,
      "start": 34.0262,
      "duration": 0.0115,
      "velocity": 119,
      "chip": "ym2612"
    },
    {
      "channel": 1,
      "note": 90,
      "start": 34.0265,
      "duration": 0.0115,
      "velocity": 119,
      "chip": "ym2612"
    },
    {
      "channel": 0,
      "note": 88,
      "start": 34.0379,
      "duration": 0.0112,
      "velocity": 119,
      "chip": "ym2612"
    },
    {
      "channel": 1,
      "note": 78,
      "start": 34.0381,
      "duration": 0.0112,
      "velocity": 119,
      "chip": "ym2612"
    },
    {
      "channel": 2,
      "note": 89,
      "start": 34.0384,
      "duration": 0.069,
      "velocity": 98,
      "chip": "ym2612"
    },
    {
      "channel": 3,
      "note": 85,
      "start": 34.0386,
      "duration": 0.1388,
      "velocity": 98,
      "chip": "ym2612"
    },
    {
      "channel": 4,
      "note": 51,
      "start": 34.0389,
      "duration": 0.0226,
      "velocity": 105,
      "chip": "ym2612"
    },
    {
      "channel": 0,
      "note": 76,
      "start": 34.0492,
      "duration": 0.0116,
      "velocity": 119,
      "chip": "ym2612"
    },
    {
      "channel": 1,
      "note": 89,
      "start": 34.0494,
      "duration": 0.0116,
      "velocity": 119,
      "chip": "ym2612"
    },
    {
      "channel": 0,
      "note": 87,
      "start": 34.061,
      "duration": 0.0107,
      "velocity": 119,
      "chip": "ym2612"
    },
    {
      "channel": 1,
      "note": 77,
      "start": 34.0612,
      "duration": 0.0107,
      "velocity": 119,
      "chip": "ym2612"
    },
    {
      "channel": 4,
      "note": 51,
      "start": 34.0616,
      "duration": 0.0225,
      "velocity": 105,
      "chip": "ym2612"
    },
    {
      "channel": 0,
      "note": 75,
      "start": 34.0718,
      "duration": 0.0117,
      "velocity": 119,
      "chip": "ym2612"
    },
    {
      "channel": 1,
      "note": 88,
      "start": 34.072,
      "duration": 0.0117,
      "velocity": 119,
      "chip": "ym2612"
    },
    {
      "channel": 0,
      "note": 86,
      "start": 34.0836,
      "duration": 0.0125,
      "velocity": 119,
      "chip": "ym2612"
    },
    {
      "channel": 1,
      "note": 76,
      "start": 34.0839,
      "duration": 0.0125,
      "velocity": 119,
      "chip": "ym2612"
    },
    {
      "channel": 4,
      "note": 51,
      "start": 34.0844,
      "duration": 0.0233,
      "velocity": 105,
      "chip": "ym2612"
    },
    {
      "channel": 0,
      "note": 74,
      "start": 34.0963,
      "duration": 0.0106,
      "velocity": 119,
      "chip": "ym2612"
    },
    {
      "channel": 1,
      "note": 87,
      "start": 34.0965,
      "duration": 0.0106,
      "velocity": 119,
      "chip": "ym2612"
    },
    {
      "channel": 0,
      "note": 85,
      "start": 34.107,
      "duration": 0.0121,
      "velocity": 119,
      "chip": "ym2612"
    },
    {
      "channel": 1,
      "note": 75,
      "start": 34.1072,
      "duration": 0.0121,
      "velocity": 119,
      "chip": "ym2612"
    },
    {
      "channel": 2,
      "note": 90,
      "start": 34.1075,
      "duration": 0.0697,
      "velocity": 98,
      "chip": "ym2612"
    },
    {
      "channel": 4,
      "note": 51,
      "start": 34.108,
      "duration": 0.0225,
      "velocity": 105,
      "chip": "ym2612"
    },
    {
      "channel": 0,
      "note": 73,
      "start": 34.1193,
      "duration": 0.0106,
      "velocity": 119,
      "chip": "ym2612"
    },
    {
      "channel": 1,
      "note": 86,
      "start": 34.1195,
      "duration": 0.0106,
      "velocity": 119,
      "chip": "ym2612"
    },
    {
      "channel": 0,
      "note": 84,
      "start": 34.13,
      "duration": 0.0119,
      "velocity": 119,
      "chip": "ym2612"
    },
    {
      "channel": 1,
      "note": 74,
      "start": 34.1302,
      "duration": 0.0119,
      "velocity": 119,
      "chip": "ym2612"
    },
    {
      "channel": 4,
      "note": 51,
      "start": 34.1306,
      "duration": 0.0235,
      "velocity": 105,
      "chip": "ym2612"
    },
    {
      "channel": 0,
      "note": 72,
      "start": 34.142,
      "duration": 0.0115,
      "velocity": 119,
      "chip": "ym2612"
    },
    {
      "channel": 1,
      "note": 85,
      "start": 34.1423,
      "duration": 0.0115,
      "velocity": 119,
      "chip": "ym2612"
    },
    {
      "channel": 0,
      "note": 83,
      "start": 34.1537,
      "duration": 0.0113,
      "velocity": 119,
      "chip": "ym2612"
    },
    {
      "channel": 1,
      "note": 73,
      "start": 34.1539,
      "duration": 0.0113,
      "velocity": 119,
      "chip": "ym2612"
    },
    {
      "channel": 4,
      "note": 51,
      "start": 34.1543,
      "duration": 0.0234,
      "velocity": 105,
      "chip": "ym2612"
    },
    {
      "channel": 0,
      "note": 71,
      "start": 34.1651,
      "duration": 0.0115,
      "velocity": 119,
      "chip": "ym2612"
    },
    {
      "channel": 1,
      "note": 84,
      "start": 34.1654,
      "duration": 0.0115,
      "velocity": 119,
      "chip": "ym2612"
    },
    {
      "channel": 0,
      "note": 94,
      "start": 34.1768,
      "duration": 0.0119,
      "velocity": 119,
      "chip": "ym2612"
    },
    {
      "channel": 1,
      "note": 72,
      "start": 34.1771,
      "duration": 0.0119,
      "velocity": 119,
      "chip": "ym2612"
    },
    {
      "channel": 2,
      "note": 87,
      "start": 34.1773,
      "duration": 0.2877,
      "velocity": 98,
      "chip": "ym2612"
    },
    {
      "channel": 3,
      "note": 82,
      "start": 34.1776,
      "duration": 0.2877,
      "velocity": 98,
      "chip": "ym2612"
    },
    {
      "channel": 4,
      "note": 51,
      "start": 34.178,
      "duration": 0.023,
      "velocity": 105,
      "chip": "ym2612"
    },
    {
      "channel": 0,
      "note": 82,
      "start": 34.1889,
      "duration": 0.0115,
      "velocity": 119,
      "chip": "ym2612"
    },
    {
      "channel": 1,
      "note": 83,
      "start": 34.1891,
      "duration": 0.0115,
      "velocity": 119,
      "chip": "ym2612"
    },
    {
      "channel": 0,
      "note": 93,
      "start": 34.2005,
      "duration": 0.0121,
      "velocity": 119,
      "chip": "ym2612"
    },
    {
      "channel": 1,
      "note": 71,
      "start": 34.2008,
      "duration": 0.0121,
      "velocity": 119,
      "chip": "ym2612"
    },
    {
      "channel": 4,
      "note": 51,
      "start": 34.2013,
      "duration": 0.0226,
      "velocity": 105,
      "chip": "ym2612"
    },
    {
      "channel": 0,
      "note": 81,
      "start": 34.2128,
      "duration": 0.0105,
      "velocity": 119,
      "chip": "ym2612"
    },
    {
      "channel": 1,
      "note": 94,
      "start": 34.213,
      "duration": 0.0105,
      "velocity": 119,
      "chip": "ym2612"
    },
    {
      "channel": 0,
      "note": 92,
      "start": 34.2234,
      "duration": 0.0118,
      "velocity": 119,
      "chip": "ym2612"
    },
    {
      "channel": 1,
      "note": 82,
      "start": 34.2237,
      "duration": 0.0118,
      "velocity": 119,
      "chip": "ym2612"
    },
    {
      "channel": 4,
      "note": 51,
      "start": 34.2241,
      "duration": 0.0225,
      "velocity": 105,
      "chip": "ym2612"
    },
    {
      "channel": 0,
      "note": 80,
      "start": 34.2354,
      "duration": 0.0105,
      "velocity": 119,
      "chip": "ym2612"
    },
    {
      "channel": 1,
      "note": 93,
      "start": 34.2356,
      "duration": 0.0105,
      "velocity": 119,
      "chip": "ym2612"
    },
    {
      "channel": 0,
      "note": 91,
      "start": 34.2461,
      "duration": 0.0117,
      "velocity": 119,
      "chip": "ym2612"
    },
    {
      "channel": 1,
      "note": 81,
      "start": 34.2463,
      "duration": 0.0117,
      "velocity": 119,
      "chip": "ym2612"
    },
    {
      "channel": 4,
      "note": 51,
      "start": 34.2467,
      "duration": 0.0235,
      "velocity": 105,
      "chip": "ym2612"
    },
    {
      "channel": 0,
      "note": 79,
      "start": 34.2579,
      "duration": 0.0117,
      "velocity": 119,
      "chip": "ym2612"
    },
    {
      "channel": 1,
      "note": 92,
      "start": 34.2581,
      "duration": 0.0117,
      "velocity": 119,
      "chip": "ym2612"
    },
    {
      "channel": 0,
      "note": 90,
      "start": 34.2697,
      "duration": 0.0114,
      "velocity": 119,
      "chip": "ym2612"
    },
    {
      "channel": 1,
      "note": 80,
      "start": 34.27,
      "duration": 0.0114,
      "velocity": 119,
      "chip": "ym2612"
    },
    {
      "channel": 4,
      "note": 51,
      "start": 34.2705,
      "duration": 0.023,
      "velocity": 105,
      "chip": "ym2612"
    },
    {
      "channel": 0,
      "note": 78,
      "start": 34.2812,
      "duration": 0.0117,
      "velocity": 119,
      "chip": "ym2612"
    },
    {
      "channel": 1,
      "note": 91,
      "start": 34.2815,
      "duration": 0.0117,
      "velocity": 119,
      "chip": "ym2612"
    },
    {
      "channel": 0,
      "note": 89,
      "start": 34.293,
      "duration": 0.0119,
      "velocity": 119,
      "chip": "ym2612"
    },
    {
      "channel": 1,
      "note": 79,
      "start": 34.2933,
      "duration": 0.0119,
      "velocity": 119,
      "chip": "ym2612"
    },
    {
      "channel": 4,
      "note": 51,
      "start": 34.2938,
      "duration": 0.0224,
      "velocity": 105,
      "chip": "ym2612"
    },
    {
      "channel": 0,
      "note": 77,
      "start": 34.3051,
      "duration": 0.0106,
      "velocity": 119,
      "chip": "ym2612"
    },
    {
      "channel": 1,
      "note": 90,
      "start": 34.3053,
      "duration": 0.0106,
      "velocity": 119,
      "chip": "ym2612"
    },
    {
      "channel": 0,
      "note": 88,
      "start": 34.3158,
      "duration": 0.0118,
      "velocity": 119,
      "chip": "ym2612"
    },
    {
      "channel": 1,
      "note": 78,
      "start": 34.316,
      "duration": 0.0118,
      "velocity": 119,
      "chip": "ym2612"
    },
    {
      "channel": 4,
      "note": 51,
      "start": 34.3164,
      "duration": 0.0224,
      "velocity": 105,
      "chip": "ym2612"
    },
    {
      "channel": 0,
      "note": 76,
      "start": 34.3277,
      "duration": 0.0105,
      "velocity": 119,
      "chip": "ym2612"
    },
    {
      "channel": 1,
      "note": 89,
      "start": 34.3279,
      "duration": 0.0105,
      "velocity": 119,
      "chip": "ym2612"
    },
    {
      "channel": 0,
      "note": 87,
      "start": 34.3383,
      "duration": 0.0122,
      "velocity": 119,
      "chip": "ym2612"
    },
    {
      "channel": 1,
      "note": 77,
      "start": 34.3385,
      "duration": 0.0123,
      "velocity": 119,
      "chip": "ym2612"
    },
    {
      "channel": 4,
      "note": 51,
      "start": 34.3389,
      "duration": 0.0241,
      "velocity": 105,
      "chip": "ym2612"
    },
    {
      "channel": 0,
      "note": 75,
      "start": 34.3507,
      "duration": 0.0117,
      "velocity": 119,
      "chip": "ym2612"
    },
    {
      "channel": 1,
      "note": 88,
      "start": 34.3509,
      "duration": 0.0117,
      "velocity": 119,
      "chip": "ym2612"
    },
    {
      "channel": 0,
      "note": 86,
      "start": 34.3625,
      "duration": 0.0116,
      "velocity": 119,
      "chip": "ym2612"
    },
    {
      "channel": 1,
      "note": 76,
      "start": 34.3628,
      "duration": 0.0116,
      "velocity": 119,
      "chip": "ym2612"
    },
    {
      "channel": 4,
      "note": 51,
      "start": 34.3633,
      "duration": 0.0231,
      "velocity": 105,
      "chip": "ym2612"
    },
    {
      "channel": 0,
      "note": 74,
      "start": 34.3742,
      "duration": 0.0115,
      "velocity": 119,
      "chip": "ym2612"
    },
    {
      "channel": 1,
      "note": 87,
      "start": 34.3745,
      "duration": 0.0115,
      "velocity": 119,
      "chip": "ym2612"
    },
    {
      "channel": 0,
      "note": 85,
      "start": 34.3859,
      "duration": 0.011,
      "velocity": 119,
      "chip": "ym2612"
    },
    {
      "channel": 1,
      "note": 75,
      "start": 34.3861,
      "duration": 0.011,
      "velocity": 119,
      "chip": "ym2612"
    },
    {
      "channel": 4,
      "note": 51,
      "start": 34.3867,
      "duration": 0.0225,
      "velocity": 105,
      "chip": "ym2612"
    },
    {
      "channel": 0,
      "note": 73,
      "start": 34.397,
      "duration": 0.0115,
      "velocity": 119,
      "chip": "ym2612"
    },
    {
      "channel": 1,
      "note": 86,
      "start": 34.3973,
      "duration": 0.0115,
      "velocity": 119,
      "chip": "ym2612"
    },
    {
      "channel": 0,
      "note": 84,
      "start": 34.4087,
      "duration": 0.0126,
      "velocity": 119,
      "chip": "ym2612"
    },
    {
      "channel": 1,
      "note": 74,
      "start": 34.4089,
      "duration": 0.0126,
      "velocity": 119,
      "chip": "ym2612"
    },
    {
      "channel": 4,
      "note": 51,
      "start": 34.4093,
      "duration": 0.0231,
      "velocity": 105,
      "chip": "ym2612"
    },
    {
      "channel": 0,
      "note": 72,
      "start": 34.4214,
      "duration": 0.0104,
      "velocity": 119,
      "chip": "ym2612"
    },
    {
      "channel": 1,
      "note": 85,
      "start": 34.4217,
      "duration": 0.0104,
      "velocity": 119,
      "chip": "ym2612"
    },
    {
      "channel": 0,
      "note": 83,
      "start": 34.4319,
      "duration": 0.0119,
      "velocity": 119,
      "chip": "ym2612"
    },
    {
      "channel": 1,
      "note": 73,
      "start": 34.4322,
      "duration": 0.0119,
      "velocity": 119,
      "chip": "ym2612"
    },
    {
      "channel": 4,
      "note": 51,
      "start": 34.4326,
      "duration": 0.0329,
      "velocity": 105,
      "chip": "ym2612"
    },
    {
      "channel": 0,
      "note": 71,
      "start": 34.4439,
      "duration": 0.0205,
      "velocity": 119,
      "chip": "ym2612"
    },
    {
      "channel": 1,
      "note": 84,
      "start": 34.4442,
      "duration": 0.0205,
      "velocity": 119,
      "chip": "ym2612"
    },
    {
      "channel": 0,
      "note": 94,
      "start": 34.4646,
      "duration": 0.013,
      "velocity": 119,
      "chip": "ym2612"
    },
    {
      "channel": 1,
      "note": 72,
      "start": 34.4649,
      "duration": 0.013,
      "velocity": 119,
      "chip": "ym2612"
    },
    {
      "channel": 2,
      "note": 94,
      "start": 34.4651,
      "duration": 0.0475,
      "velocity": 98,
      "chip": "ym2612"
    },
    {
      "channel": 3,
      "note": 90,
      "start": 34.4654,
      "duration": 0.0475,
      "velocity": 98,
      "chip": "ym2612"
    },
    {
      "channel": 4,
      "note": 51,
      "start": 34.4658,
      "duration": 0.0241,
      "velocity": 105,
      "chip": "ym2612"
    },
    {
      "channel": 0,
      "note": 82,
      "start": 34.4778,
      "duration": 0.0115,
      "velocity": 119,
      "chip": "ym2612"
    },
    {
      "channel": 1,
      "note": 83,
      "start": 34.478,
      "duration": 0.0115,
      "velocity": 119,
      "chip": "ym2612"
    },
    {
      "channel": 0,
      "note": 93,
      "start": 34.4894,
      "duration": 0.0109,
      "velocity": 119,
      "chip": "ym2612"
    },
    {
      "channel": 1,
      "note": 71,
      "start": 34.4897,
      "duration": 0.0109,
      "velocity": 119,
      "chip": "ym2612"
    },
    {
      "channel": 4,
      "note": 51,
      "start": 34.4902,
      "duration": 0.0229,
      "velocity": 105,
      "chip": "ym2612"
    },
    {
      "channel": 0,
      "note": 81,
      "start": 34.5005,
      "duration": 0.0116,
      "velocity": 119,
      "chip": "ym2612"
    },
    {
      "channel": 1,
      "note": 94,
      "start": 34.5007,
      "duration": 0.0116,
      "velocity": 119,
      "chip": "ym2612"
    },
    {
      "channel": 0,
      "note": 92,
      "start": 34.5123,
      "duration": 0.011,
      "velocity": 119,
      "chip": "ym2612"
    },
    {
      "channel": 1,
      "note": 82,
      "start": 34.5125,
      "duration": 0.011,
      "velocity": 119,
      "chip": "ym2612"
    },
    {
      "channel": 2,
      "note": 92,
      "start": 34.5128,
      "duration": 0.046,
      "velocity": 98,
      "chip": "ym2612"
    },
    {
      "channel": 3,
      "note": 89,
      "start": 34.513,
      "duration": 0.046,
      "velocity": 98,
      "chip": "ym2612"
    },
    {
      "channel": 4,
      "note": 51,
      "start": 34.5133,
      "duration": 0.0224,
      "velocity": 105,
      "chip": "ym2612"
    },
    {
      "channel": 0,
      "note": 80,
      "start": 34.5234,
      "duration": 0.0117,
      "velocity": 119,
      "chip": "ym2612"
    },
    {
      "channel": 1,
      "note": 93,
      "start": 34.5237,
      "duration": 0.0117,
      "velocity": 119,
      "chip": "ym2612"
    },
    {
      "channel": 0,
      "note": 91,
      "start": 34.5353,
      "duration": 0.0123,
      "velocity": 119,
      "chip": "ym2612"
    },
    {
      "channel": 1,
      "note": 81,
      "start": 34.5355,
      "duration": 0.0123,
      "velocity": 119,
      "chip": "ym2612"
    },
    {
      "channel": 4,
      "note": 51,
      "start": 34.5359,
      "duration": 0.0234,
      "velocity": 105,
      "chip": "ym2612"
    },
    {
      "channel": 0,
      "note": 79,
      "start": 34.5477,
      "duration": 0.0106,
      "velocity": 119,
      "chip": "ym2612"
    },
    {
      "channel": 1,
      "note": 92,
      "start": 34.5479,
      "duration": 0.0106,
      "velocity": 119,
      "chip": "ym2612"
    },
    {
      "channel": 0,
      "note": 90,
      "start": 34.5584,
      "duration": 0.013,
      "velocity": 119,
      "chip": "ym2612"
    },
    {
      "channel": 1,
      "note": 80,
      "start": 34.5586,
      "duration": 0.013,
      "velocity": 119,
      "chip": "ym2612"
    },
    {
      "channel": 2,
      "note": 90,
      "start": 34.5589,
      "duration": 0.0476,
      "velocity": 98,
      "chip": "ym2612"
    },
    {
      "channel": 3,
      "note": 87,
      "start": 34.5592,
      "duration": 0.0476,
      "velocity": 98,
      "chip": "ym2612"
    },
    {
      "channel": 4,
      "note": 51,
      "start": 34.5596,
      "duration": 0.0232,
      "velocity": 105,
      "chip": "ym2612"
    },
    {
      "channel": 0,
      "note": 78,
      "start": 34.5716,
      "duration": 0.0106,
      "velocity": 119,
      "chip": "ym2612"
    },
    {
      "channel": 1,
      "note": 91,
      "start": 34.5718,
      "duration": 0.0106,
      "velocity": 119,
      "chip": "ym2612"
    },
    {
      "channel": 0,
      "note": 89,
      "start": 34.5823,
      "duration": 0.0121,
      "velocity": 119,
      "chip": "ym2612"
    },
    {
      "channel": 1,
      "note": 79,
      "start": 34.5825,
      "duration": 0.0121,
      "velocity": 119,
      "chip": "ym2612"
    },
    {
      "channel": 4,
      "note": 51,
      "start": 34.5831,
      "duration": 0.0239,
      "velocity": 105,
      "chip": "ym2612"
    },
    {
      "channel": 0,
      "note": 77,
      "start": 34.5945,
      "duration": 0.0115,
      "velocity": 119,
      "chip": "ym2612"
    },
    {
      "channel": 1,
      "note": 90,
      "start": 34.5948,
      "duration": 0.0115,
      "velocity": 119,
      "chip": "ym2612"
    },
    {
      "channel": 0,
      "note": 88,
      "start": 34.6061,
      "duration": 0.0112,
      "velocity": 119,
      "chip": "ym2612"
    },
    {
      "channel": 1,
      "note": 78,
      "start": 34.6064,
      "duration": 0.0112,
      "velocity": 119,
      "chip": "ym2612"
    },
    {
      "channel": 2,
      "note": 89,
      "start": 34.6066,
      "duration": 0.0688,
      "velocity": 98,
      "chip": "ym2612"
    },
    {
      "channel": 3,
      "note": 85,
      "start": 34.6069,
      "duration": 0.1387,
      "velocity": 98,
      "chip": "ym2612"
    },
    {
      "channel": 4,
      "note": 51,
      "start": 34.6072,
      "duration": 0.0224,
      "velocity": 105,
      "chip": "ym2612"
    },
    {
      "channel": 0,
      "note": 76,
      "start": 34.6174,
      "duration": 0.0115,
      "velocity": 119,
      "chip": "ym2612"
    },
    {
      "channel": 1,
      "note": 89,
      "start": 34.6177,
      "duration": 0.0115,
      "velocity": 119,
      "chip": "ym2612"
    },
    {
      "channel": 0,
      "note": 87,
      "start": 34.6291,
      "duration": 0.0108,
      "velocity": 119,
      "chip": "ym2612"
    },
    {
      "channel": 1,
      "note": 77,
      "start": 34.6294,
      "duration": 0.0108,
      "velocity": 119,
      "chip": "ym2612"
    },
    {
      "channel": 4,
      "note": 51,
      "start": 34.6298,
      "duration": 0.0224,
      "velocity": 105,
      "chip": "ym2612"
    },
    {
      "channel": 0,
      "note": 75,
      "start": 34.64,
      "duration": 0.0115,
      "velocity": 119,
      "chip": "ym2612"
    },
    {
      "channel": 1,
      "note": 88,
      "start": 34.6403,
      "duration": 0.0115,
      "velocity": 119,
      "chip": "ym2612"
    },
    {
      "channel": 0,
      "note": 86,
      "start": 34.6517,
      "duration": 0.0126,
      "velocity": 119,
      "chip": "ym2612"
    },
    {
      "channel": 1,
      "note": 76,
      "start": 34.652,
      "duration": 0.0126,
      "velocity": 119,
      "chip": "ym2612"
    },
    {
      "channel": 4,
      "note": 51,
      "start": 34.6525,
      "duration": 0.0233,
      "velocity": 105,
      "chip": "ym2612"
    },
    {
      "channel": 0,
      "note": 74,
      "start": 34.6645,
      "duration": 0.0105,
      "velocity": 119,
      "chip": "ym2612"
    },
    {
      "channel": 1,
      "note": 87,
      "start": 34.6647,
      "duration": 0.0105,
      "velocity": 119,
      "chip": "ym2612"
    },
    {
      "channel": 0,
      "note": 85,
      "start": 34.6751,
      "duration": 0.0121,
      "velocity": 119,
      "chip": "ym2612"
    },
    {
      "channel": 1,
      "note": 75,
      "start": 34.6754,
      "duration": 0.0121,
      "velocity": 119,
      "chip": "ym2612"
    },
    {
      "channel": 2,
      "note": 90,
      "start": 34.6756,
      "duration": 0.0697,
      "velocity": 98,
      "chip": "ym2612"
    },
    {
      "channel": 4,
      "note": 51,
      "start": 34.6761,
      "duration": 0.0224,
      "velocity": 105,
      "chip": "ym2612"
    },
    {
      "channel": 0,
      "note": 73,
      "start": 34.6873,
      "duration": 0.0105,
      "velocity": 119,
      "chip": "ym2612"
    },
    {
      "channel": 1,
      "note": 86,
      "start": 34.6876,
      "duration": 0.0105,
      "velocity": 119,
      "chip": "ym2612"
    },
    {
      "channel": 0,
      "note": 84,
      "start": 34.698,
      "duration": 0.0118,
      "velocity": 119,
      "chip": "ym2612"
    },
    {
      "channel": 1,
      "note": 74,
      "start": 34.6983,
      "duration": 0.0118,
      "velocity": 119,
      "chip": "ym2612"
    },
    {
      "channel": 4,
      "note": 51,
      "start": 34.6987,
      "duration": 0.0236,
      "velocity": 105,
      "chip": "ym2612"
    },
    {
      "channel": 0,
      "note": 72,
      "start": 34.71,
      "duration": 0.0117,
      "velocity": 119,
      "chip": "ym2612"
    },
    {
      "channel": 1,
      "note": 85,
      "start": 34.7102,
      "duration": 0.0117,
      "velocity": 119,
      "chip": "ym2612"
    },
    {
      "channel": 0,
      "note": 83,
      "start": 34.7218,
      "duration": 0.0112,
      "velocity": 119,
      "chip": "ym2612"
    },
    {
      "channel": 1,
      "note": 73,
      "start": 34.722,
      "duration": 0.0112,
      "velocity": 119,
      "chip": "ym2612"
    },
    {
      "channel": 4,
      "note": 51,
      "start": 34.7224,
      "duration": 0.0234,
      "velocity": 105,
      "chip": "ym2612"
    },
    {
      "channel": 0,
      "note": 71,
      "start": 34.7331,
      "duration": 0.0117,
      "velocity": 119,
      "chip": "ym2612"
    },
    {
      "channel": 1,
      "note": 84,
      "start": 34.7334,
      "duration": 0.0117,
      "velocity": 119,
      "chip": "ym2612"
    },
    {
      "channel": 0,
      "note": 94,
      "start": 34.7449,
      "duration": 0.012,
      "velocity": 119,
      "chip": "ym2612"
    },
    {
      "channel": 1,
      "note": 72,
      "start": 34.7452,
      "duration": 0.012,
      "velocity": 119,
      "chip": "ym2612"
    },
    {
      "channel": 2,
      "note": 87,
      "start": 34.7454,
      "duration": 0.2877,
      "velocity": 98,
      "chip": "ym2612"
    },
    {
      "channel": 3,
      "note": 82,
      "start": 34.7457,
      "duration": 0.2877,
      "velocity": 98,
      "chip": "ym2612"
    },
    {
      "channel": 4,
      "note": 51,
      "start": 34.7461,
      "duration": 0.0231,
      "velocity": 105,
      "chip": "ym2612"
    },
    {
      "channel": 0,
      "note": 82,
      "start": 34.7571,
      "duration": 0.0115,
      "velocity": 119,
      "chip": "ym2612"
    },
    {
      "channel": 1,
      "note": 83,
      "start": 34.7573,
      "duration": 0.0115,
      "velocity": 119,
      "chip": "ym2612"
    },
    {
      "channel": 0,
      "note": 93,
      "start": 34.7687,
      "duration": 0.0119,
      "velocity": 119,
      "chip": "ym2612"
    },
    {
      "channel": 1,
      "note": 71,
      "start": 34.769,
      "duration": 0.0119,
      "velocity": 119,
      "chip": "ym2612"
    },
    {
      "channel": 4,
      "note": 51,
      "start": 34.7695,
      "duration": 0.0224,
      "velocity": 105,
      "chip": "ym2612"
    },
    {
      "channel": 0,
      "note": 81,
      "start": 34.7808,
      "duration": 0.0105,
      "velocity": 119,
      "chip": "ym2612"
    },
    {
      "channel": 1,
      "note": 94,
      "start": 34.781,
      "duration": 0.0105,
      "velocity": 119,
      "chip": "ym2612"
    },
    {
      "channel": 0,
      "note": 92,
      "start": 34.7915,
      "duration": 0.012,
      "velocity": 119,
      "chip": "ym2612"
    },
    {
      "channel": 1,
      "note": 82,
      "start": 34.7917,
      "duration": 0.012,
      "velocity": 119,
      "chip": "ym2612"
    },
    {
      "channel": 4,
      "note": 51,
      "start": 34.7921,
      "duration": 0.0225,
      "velocity": 105,
      "chip": "ym2612"
    },
    {
      "channel": 0,
      "note": 80,
      "start": 34.8035,
      "duration": 0.0104,
      "velocity": 119,
      "chip": "ym2612"
    },
    {
      "channel": 1,
      "note": 93,
      "start": 34.8038,
      "duration": 0.0104,
      "velocity": 119,
      "chip": "ym2612"
    },
    {
      "channel": 0,
      "note": 91,
      "start": 34.8141,
      "duration": 0.012,
      "velocity": 119,
      "chip": "ym2612"
    },
    {
      "channel": 1,
      "note": 81,
      "start": 34.8144,
      "duration": 0.012,
      "velocity": 119,
      "chip": "ym2612"
    },
    {
      "channel": 4,
      "note": 51,
      "start": 34.8148,
      "duration": 0.0236,
      "velocity": 105,
      "chip": "ym2612"
    },
    {
      "channel": 0,
      "note": 79,
      "start": 34.8262,
      "duration": 0.0115,
      "velocity": 119,
      "chip": "ym2612"
    },
    {
      "channel": 1,
      "note": 92,
      "start": 34.8264,
      "duration": 0.0115,
      "velocity": 119,
      "chip": "ym2612"
    },
    {
      "channel": 0,
      "note": 90,
      "start": 34.8379,
      "duration": 0.0115,
      "velocity": 119,
      "chip": "ym2612"
    },
    {
      "channel": 1,
      "note": 80,
      "start": 34.8381,
      "duration": 0.0115,
      "velocity": 119,
      "chip": "ym2612"
    },
    {
      "channel": 4,
      "note": 51,
      "start": 34.8386,
      "duration": 0.0231,
      "velocity": 105,
      "chip": "ym2612"
    },
    {
      "channel": 0,
      "note": 78,
      "start": 34.8495,
      "duration": 0.0115,
      "velocity": 119,
      "chip": "ym2612"
    },
    {
      "channel": 1,
      "note": 91,
      "start": 34.8498,
      "duration": 0.0115,
      "velocity": 119,
      "chip": "ym2612"
    },
    {
      "channel": 0,
      "note": 89,
      "start": 34.8612,
      "duration": 0.011,
      "velocity": 119,
      "chip": "ym2612"
    },
    {
      "channel": 1,
      "note": 79,
      "start": 34.8615,
      "duration": 0.011,
      "velocity": 119,
      "chip": "ym2612"
    },
    {
      "channel": 4,
      "note": 51,
      "start": 34.862,
      "duration": 0.0224,
      "velocity": 105,
      "chip": "ym2612"
    },
    {
      "channel": 0,
      "note": 77,
      "start": 34.8723,
      "duration": 0.0115,
      "velocity": 119,
      "chip": "ym2612"
    },
    {
      "channel": 1,
      "note": 90,
      "start": 34.8726,
      "duration": 0.0115,
      "velocity": 119,
      "chip": "ym2612"
    },
    {
      "channel": 0,
      "note": 88,
      "start": 34.884,
      "duration": 0.0119,
      "velocity": 119,
      "chip": "ym2612"
    },
    {
      "channel": 1,
      "note": 78,
      "start": 34.8842,
      "duration": 0.0119,
      "velocity": 119,
      "chip": "ym2612"
    },
    {
      "channel": 4,
      "note": 51,
      "start": 34.8846,
      "duration": 0.0226,
      "velocity": 105,
      "chip": "ym2612"
    },
    {
      "channel": 0,
      "note": 76,
      "start": 34.896,
      "duration": 0.0105,
      "velocity": 119,
      "chip": "ym2612"
    },
    {
      "channel": 1,
      "note": 89,
      "start": 34.8963,
      "duration": 0.0105,
      "velocity": 119,
      "chip": "ym2612"
    },
    {
      "channel": 0,
      "note": 87,
      "start": 34.9067,
      "duration": 0.0123,
      "velocity": 119,
      "chip": "ym2612"
    },
    {
      "channel": 1,
      "note": 77,
      "start": 34.907,
      "duration": 0.0123,
      "velocity": 119,
      "chip": "ym2612"
    },
    {
      "channel": 4,
      "note": 51,
      "start": 34.9074,
      "duration": 0.023,
      "velocity": 105,
      "chip": "ym2612"
    },
    {
      "channel": 0,
      "note": 75,
      "start": 34.9192,
      "duration": 0.0105,
      "velocity": 119,
      "chip": "ym2612"
    },
    {
      "channel": 1,
      "note": 88,
      "start": 34.9194,
      "duration": 0.0105,
      "velocity": 119,
      "chip": "ym2612"
    },
    {
      "channel": 0,
      "note": 86,
      "start": 34.9298,
      "duration": 0.0125,
      "velocity": 119,
      "chip": "ym2612"
    },
    {
      "channel": 1,
      "note": 76,
      "start": 34.9301,
      "duration": 0.0125,
      "velocity": 119,
      "chip": "ym2612"
    },
    {
      "channel": 4,
      "note": 51,
      "start": 34.9306,
      "duration": 0.0242,
      "velocity": 105,
      "chip": "ym2612"
    },
    {
      "channel": 0,
      "note": 74,
      "start": 34.9425,
      "duration": 0.0117,
      "velocity": 119,
      "chip": "ym2612"
    },
    {
      "channel": 1,
      "note": 87,
      "start": 34.9427,
      "duration": 0.0117,
      "velocity": 119,
      "chip": "ym2612"
    },
    {
      "channel": 0,
      "note": 85,
      "start": 34.9544,
      "duration": 0.0107,
      "velocity": 119,
      "chip": "ym2612"
    },
    {
      "channel": 1,
      "note": 75,
      "start": 34.9546,
      "duration": 0.0107,
      "velocity": 119,
      "chip": "ym2612"
    },
    {
      "channel": 4,
      "note": 51,
      "start": 34.9551,
      "duration": 0.0224,
      "velocity": 105,
      "chip": "ym2612"
    },
    {
      "channel": 0,
      "note": 73,
      "start": 34.9652,
      "duration": 0.0117,
      "velocity": 119,
      "chip": "ym2612"
    },
    {
      "channel": 1,
      "note": 86,
      "start": 34.9655,
      "duration": 0.0117,
      "velocity": 119,
      "chip": "ym2612"
    },
    {
      "channel": 0,
      "note": 84,
      "start": 34.9771,
      "duration": 0.0115,
      "velocity": 119,
      "chip": "ym2612"
    },
    {
      "channel": 1,
      "note": 74,
      "start": 34.9773,
      "duration": 0.0115,
      "velocity": 119,
      "chip": "ym2612"
    },
    {
      "channel": 4,
      "note": 51,
      "start": 34.9777,
      "duration": 0.0231,
      "velocity": 105,
      "chip": "ym2612"
    },
    {
      "channel": 0,
      "note": 72,
      "start": 34.9887,
      "duration": 0.0115,
      "velocity": 119,
      "chip": "ym2612"
    },
    {
      "channel": 1,
      "note": 85,
      "start": 34.9889,
      "duration": 0.0115,
      "velocity": 119,
      "chip": "ym2612"
    },
    {
      "channel": 0,
      "note": 83,
      "start": 35.0003,
      "duration": 0.0118,
      "velocity": 119,
      "chip": "ym2612"
    },
    {
      "channel": 1,
      "note": 73,
      "start": 35.0006,
      "duration": 0.0118,
      "velocity": 119,
      "chip": "ym2612"
    },
    {
      "channel": 4,
      "note": 51,
      "start": 35.001,
      "duration": 0.0327,
      "velocity": 105,
      "chip": "ym2612"
    },
    {
      "channel": 0,
      "note": 71,
      "start": 35.0123,
      "duration": 0.0204,
      "velocity": 119,
      "chip": "ym2612"
    },
    {
      "channel": 1,
      "note": 84,
      "start": 35.0125,
      "duration": 0.0204,
      "velocity": 119,
      "chip": "ym2612"
    },
    {
      "channel": 0,
      "note": 94,
      "start": 35.0328,
      "duration": 0.0131,
      "velocity": 119,
      "chip": "ym2612"
    },
    {
      "channel": 1,
      "note": 72,
      "start": 35.033,
      "duration": 0.0131,
      "velocity": 119,
      "chip": "ym2612"
    },
    {
      "channel": 2,
      "note": 94,
      "start": 35.0333,
      "duration": 0.0476,
      "velocity": 98,
      "chip": "ym2612"
    },
    {
      "channel": 3,
      "note": 90,
      "start": 35.0335,
      "duration": 0.0476,
      "velocity": 98,
      "chip": "ym2612"
    },
    {
      "channel": 4,
      "note": 51,
      "start": 35.0339,
      "duration": 0.0231,
      "velocity": 105,
      "chip": "ym2612"
    },
    {
      "channel": 0,
      "note": 82,
      "start": 35.046,
      "duration": 0.0104,
      "velocity": 119,
      "chip": "ym2612"
    },
    {
      "channel": 1,
      "note": 83,
      "start": 35.0463,
      "duration": 0.0104,
      "velocity": 119,
      "chip": "ym2612"
    },
    {
      "channel": 0,
      "note": 93,
      "start": 35.0566,
      "duration": 0.0121,
      "velocity": 119,
      "chip": "ym2612"
    },
    {
      "channel": 1,
      "note": 71,
      "start": 35.0568,
      "duration": 0.0121,
      "velocity": 119,
      "chip": "ym2612"
    },
    {
      "channel": 4,
      "note": 51,
      "start": 35.0573,
      "duration": 0.024,
      "velocity": 105,
      "chip": "ym2612"
    },
    {
      "channel": 0,
      "note": 81,
      "start": 35.0688,
      "duration": 0.0115,
      "velocity": 119,
      "chip": "ym2612"
    },
    {
      "channel": 1,
      "note": 94,
      "start": 35.0691,
      "duration": 0.0115,
      "velocity": 119,
      "chip": "ym2612"
    },
    {
      "channel": 0,
      "note": 92,
      "start": 35.0805,
      "duration": 0.0118,
      "velocity": 119,
      "chip": "ym2612"
    },
    {
      "channel": 1,
      "note": 82,
      "start": 35.0807,
      "duration": 0.0118,
      "velocity": 119,
      "chip": "ym2612"
    },
    {
      "channel": 2,
      "note": 92,
      "start": 35.081,
      "duration": 0.0474,
      "velocity": 98,
      "chip": "ym2612"
    },
    {
      "channel": 3,
      "note": 89,
      "start": 35.0812,
      "duration": 0.0474,
      "velocity": 98,
      "chip": "ym2612"
    },
    {
      "channel": 4,
      "note": 51,
      "start": 35.0815,
      "duration": 0.0237,
      "velocity": 105,
      "chip": "ym2612"
    },
    {
      "channel": 0,
      "note": 80,
      "start": 35.0924,
      "duration": 0.0121,
      "velocity": 119,
      "chip": "ym2612"
    },
    {
      "channel": 1,
      "note": 93,
      "start": 35.0927,
      "duration": 0.0121,
      "velocity": 119,
      "chip": "ym2612"
    },
    {
      "channel": 0,
      "note": 91,
      "start": 35.1047,
      "duration": 0.0114,
      "velocity": 119,
      "chip": "ym2612"
    },
    {
      "channel": 1,
      "note": 81,
      "start": 35.105,
      "duration": 0.0114,
      "velocity": 119,
      "chip": "ym2612"
    },
    {
      "channel": 4,
      "note": 51,
      "start": 35.1054,
      "duration": 0.0236,
      "velocity": 105,
      "chip": "ym2612"
    },
    {
      "channel": 0,
      "note": 79,
      "start": 35.1163,
      "duration": 0.0117,
      "velocity": 119,
      "chip": "ym2612"
    },
    {
      "channel": 1,
      "note": 92,
      "start": 35.1165,
      "duration": 0.0117,
      "velocity": 119,
      "chip": "ym2612"
    },
    {
      "channel": 0,
      "note": 90,
      "start": 35.1281,
      "duration": 0.013,
      "velocity": 119,
      "chip": "ym2612"
    },
    {
      "channel": 1,
      "note": 80,
      "start": 35.1283,
      "duration": 0.013,
      "velocity": 119,
      "chip": "ym2612"
    },
    {
      "channel": 2,
      "note": 90,
      "start": 35.1286,
      "duration": 0.0464,
      "velocity": 98,
      "chip": "ym2612"
    },
    {
      "channel": 3,
      "note": 87,
      "start": 35.1288,
      "duration": 0.0464,
      "velocity": 98,
      "chip": "ym2612"
    },
    {
      "channel": 4,
      "note": 51,
      "start": 35.1292,
      "duration": 0.0232,
      "velocity": 105,
      "chip": "ym2612"
    },
    {
      "channel": 0,
      "note": 78,
      "start": 35.1412,
      "duration": 0.0105,
      "velocity": 119,
      "chip": "ym2612"
    },
    {
      "channel": 1,
      "note": 91,
      "start": 35.1415,
      "duration": 0.0105,
      "velocity": 119,
      "chip": "ym2612"
    },
    {
      "channel": 0,
      "note": 89,
      "start": 35.1519,
      "duration": 0.0119,
      "velocity": 119,
      "chip": "ym2612"
    },
    {
      "channel": 1,
      "note": 79,
      "start": 35.1521,
      "duration": 0.0119,
      "velocity": 119,
      "chip": "ym2612"
    },
    {
      "channel": 4,
      "note": 51,
      "start": 35.1527,
      "duration": 0.0228,
      "velocity": 105,
      "chip": "ym2612"
    },
    {
      "channel": 0,
      "note": 77,
      "start": 35.1639,
      "duration": 0.0106,
      "velocity": 119,
      "chip": "ym2612"
    },
    {
      "channel": 1,
      "note": 90,
      "start": 35.1641,
      "duration": 0.0106,
      "velocity": 119,
      "chip": "ym2612"
    },
    {
      "channel": 0,
      "note": 88,
      "start": 35.1746,
      "duration": 0.0128,
      "velocity": 119,
      "chip": "ym2612"
    },
    {
      "channel": 1,
      "note": 78,
      "start": 35.1749,
      "duration": 0.0128,
      "velocity": 119,
      "chip": "ym2612"
    },
    {
      "channel": 2,
      "note": 89,
      "start": 35.1751,
      "duration": 0.0715,
      "velocity": 98,
      "chip": "ym2612"
    },
    {
      "channel": 3,
      "note": 85,
      "start": 35.1754,
      "duration": 0.1413,
      "velocity": 98,
      "chip": "ym2612"
    },
    {
      "channel": 4,
      "note": 51,
      "start": 35.1756,
      "duration": 0.0236,
      "velocity": 105,
      "chip": "ym2612"
    },
    {
      "channel": 0,
      "note": 76,
      "start": 35.1876,
      "duration": 0.011,
      "velocity": 119,
      "chip": "ym2612"
    },
    {
      "channel": 1,
      "note": 89,
      "start": 35.1878,
      "duration": 0.011,
      "velocity": 119,
      "chip": "ym2612"
    },
    {
      "channel": 0,
      "note": 87,
      "start": 35.1987,
      "duration": 0.0125,
      "velocity": 119,
      "chip": "ym2612"
    },
    {
      "channel": 1,
      "note": 77,
      "start": 35.199,
      "duration": 0.0125,
      "velocity": 119,
      "chip": "ym2612"
    },
    {
      "channel": 4,
      "note": 51,
      "start": 35.1993,
      "duration": 0.0242,
      "velocity": 105,
      "chip": "ym2612"
    },
    {
      "channel": 0,
      "note": 75,
      "start": 35.2113,
      "duration": 0.0116,
      "velocity": 119,
      "chip": "ym2612"
    },
    {
      "channel": 1,
      "note": 88,
      "start": 35.2116,
      "duration": 0.0116,
      "velocity": 119,
      "chip": "ym2612"
    },
    {
      "channel": 0,
      "note": 86,
      "start": 35.223,
      "duration": 0.0115,
      "velocity": 119,
      "chip": "ym2612"
    },
    {
      "channel": 1,
      "note": 76,
      "start": 35.2233,
      "duration": 0.0115,
      "velocity": 119,
      "chip": "ym2612"
    },
    {
      "channel": 4,
      "note": 51,
      "start": 35.2238,
      "duration": 0.0232,
      "velocity": 105,
      "chip": "ym2612"
    },
    {
      "channel": 0,
      "note": 74,
      "start": 35.2346,
      "duration": 0.0115,
      "velocity": 119,
      "chip": "ym2612"
    },
    {
      "channel": 1,
      "note": 87,
      "start": 35.2349,
      "duration": 0.0115,
      "velocity": 119,
      "chip": "ym2612"
    },
    {
      "channel": 0,
      "note": 85,
      "start": 35.2463,
      "duration": 0.011,
      "velocity": 119,
      "chip": "ym2612"
    },
    {
      "channel": 1,
      "note": 75,
      "start": 35.2466,
      "duration": 0.011,
      "velocity": 119,
      "chip": "ym2612"
    },
    {
      "channel": 2,
      "note": 90,
      "start": 35.2468,
      "duration": 0.0696,
      "velocity": 98,
      "chip": "ym2612"
    },
    {
      "channel": 4,
      "note": 51,
      "start": 35.2473,
      "duration": 0.0224,
      "velocity": 105,
      "chip": "ym2612"
    },
    {
      "channel": 0,
      "note": 73,
      "start": 35.2575,
      "duration": 0.0115,
      "velocity": 119,
      "chip": "ym2612"
    },
    {
      "channel": 1,
      "note": 86,
      "start": 35.2578,
      "duration": 0.0115,
      "velocity": 119,
      "chip": "ym2612"
    },
    {
      "channel": 0,
      "note": 84,
      "start": 35.2692,
      "duration": 0.0126,
      "velocity": 119,
      "chip": "ym2612"
    },
    {
      "channel": 1,
      "note": 74,
      "start": 35.2694,
      "duration": 0.0126,
      "velocity": 119,
      "chip": "ym2612"
    },
    {
      "channel": 4,
      "note": 51,
      "start": 35.2698,
      "duration": 0.0237,
      "velocity": 105,
      "chip": "ym2612"
    },
    {
      "channel": 0,
      "note": 72,
      "start": 35.2819,
      "duration": 0.011,
      "velocity": 119,
      "chip": "ym2612"
    },
    {
      "channel": 1,
      "note": 85,
      "start": 35.2822,
      "duration": 0.011,
      "velocity": 119,
      "chip": "ym2612"
    },
    {
      "channel": 0,
      "note": 83,
      "start": 35.2931,
      "duration": 0.0123,
      "velocity": 119,
      "chip": "ym2612"
    },
    {
      "channel": 1,
      "note": 73,
      "start": 35.2933,
      "duration": 0.0123,
      "velocity": 119,
      "chip": "ym2612"
    },
    {
      "channel": 4,
      "note": 51,
      "start": 35.2937,
      "duration": 0.0233,
      "velocity": 105,
      "chip": "ym2612"
    },
    {
      "channel": 0,
      "note": 71,
      "start": 35.3055,
      "duration": 0.0105,
      "velocity": 119,
      "chip": "ym2612"
    },
    {
      "channel": 1,
      "note": 84,
      "start": 35.3057,
      "duration": 0.0105,
      "velocity": 119,
      "chip": "ym2612"
    },
    {
      "channel": 0,
      "note": 94,
      "start": 35.3161,
      "duration": 0.0129,
      "velocity": 119,
      "chip": "ym2612"
    },
    {
      "channel": 1,
      "note": 72,
      "start": 35.3163,
      "duration": 0.0129,
      "velocity": 119,
      "chip": "ym2612"
    },
    {
      "channel": 2,
      "note": 92,
      "start": 35.3166,
      "duration": 0.2918,
      "velocity": 98,
      "chip": "ym2612"
    },
    {
      "channel": 3,
      "note": 89,
      "start": 35.3169,
      "duration": 0.2918,
      "velocity": 98,
      "chip": "ym2612"
    },
    {
      "channel": 4,
      "note": 49,
      "start": 35.3173,
      "duration": 0.0231,
      "velocity": 105,
      "chip": "ym2612"
    },
    {
      "channel": 0,
      "note": 82,
      "start": 35.3292,
      "duration": 0.0105,
      "velocity": 119,
      "chip": "ym2612"
    },
    {
      "channel": 1,
      "note": 83,
      "start": 35.3294,
      "duration": 0.0105,
      "velocity": 119,
      "chip": "ym2612"
    },
    {
      "channel": 0,
      "note": 93,
      "start": 35.3398,
      "duration": 0.0121,
      "velocity": 119,
      "chip": "ym2612"
    },
    {
      "channel": 1,
      "note": 71,
      "start": 35.3401,
      "duration": 0.0121,
      "velocity": 119,
      "chip": "ym2612"
    },
    {
      "channel": 4,
      "note": 49,
      "start": 35.3406,
      "duration": 0.0236,
      "velocity": 105,
      "chip": "ym2612"
    },
    {
      "channel": 0,
      "note": 81,
      "start": 35.352,
      "duration": 0.0115,
      "velocity": 119,
      "chip": "ym2612"
    },
    {
      "channel": 1,
      "note": 94,
      "start": 35.3523,
      "duration": 0.0115,
      "velocity": 119,
      "chip": "ym2612"
    },
    {
      "channel": 0,
      "note": 92,
      "start": 35.3637,
      "duration": 0.0114,
      "velocity": 119,
      "chip": "ym2612"
    },
    {
      "channel": 1,
      "note": 82,
      "start": 35.364,
      "duration": 0.0114,
      "velocity": 119,
      "chip": "ym2612"
    },
    {
      "channel": 4,
      "note": 49,
      "start": 35.3644,
      "duration": 0.0236,
      "velocity": 105,
      "chip": "ym2612"
    },
    {
      "channel": 0,
      "note": 80,
      "start": 35.3752,
      "duration": 0.0121,
      "velocity": 119,
      "chip": "ym2612"
    },
    {
      "channel": 1,
      "note": 93,
      "start": 35.3755,
      "duration": 0.0121,
      "velocity": 119,
      "chip": "ym2612"
    },
    {
      "channel": 0,
      "note": 91,
      "start": 35.3875,
      "duration": 0.0113,
      "velocity": 119,
      "chip": "ym2612"
    },
    {
      "channel": 1,
      "note": 81,
      "start": 35.3877,
      "duration": 0.0113,
      "velocity": 119,
      "chip": "ym2612"
    },
    {
      "channel": 4,
      "note": 49,
      "start": 35.3881,
      "duration": 0.023,
      "velocity": 105,
      "chip": "ym2612"
    },
    {
      "channel": 0,
      "note": 79,
      "start": 35.3989,
      "duration": 0.0116,
      "velocity": 119,
      "chip": "ym2612"
    },
    {
      "channel": 1,
      "note": 92,
      "start": 35.3991,
      "duration": 0.0116,
      "velocity": 119,
      "chip": "ym2612"
    },
    {
      "channel": 0,
      "note": 90,
      "start": 35.4106,
      "duration": 0.0126,
      "velocity": 119,
      "chip": "ym2612"
    },
    {
      "channel": 1,
      "note": 80,
      "start": 35.4109,
      "duration": 0.0126,
      "velocity": 119,
      "chip": "ym2612"
    },
    {
      "channel": 4,
      "note": 49,
      "start": 35.4114,
      "duration": 0.0231,
      "velocity": 105,
      "chip": "ym2612"
    },
    {
      "channel": 0,
      "note": 78,
      "start": 35.4234,
      "duration": 0.0105,
      "velocity": 119,
      "chip": "ym2612"
    },
    {
      "channel": 1,
      "note": 91,
      "start": 35.4236,
      "duration": 0.0105,
      "velocity": 119,
      "chip": "ym2612"
    },
    {
      "channel": 0,
      "note": 89,
      "start": 35.434,
      "duration": 0.0119,
      "velocity": 119,
      "chip": "ym2612"
    },
    {
      "channel": 1,
      "note": 79,
      "start": 35.4343,
      "duration": 0.0119,
      "velocity": 119,
      "chip": "ym2612"
    },
    {
      "channel": 4,
      "note": 49,
      "start": 35.4348,
      "duration": 0.0224,
      "velocity": 105,
      "chip": "ym2612"
    },
    {
      "channel": 0,
      "note": 77,
      "start": 35.4461,
      "duration": 0.0106,
      "velocity": 119,
      "chip": "ym2612"
    },
    {
      "channel": 1,
      "note": 90,
      "start": 35.4463,
      "duration": 0.0106,
      "velocity": 119,
      "chip": "ym2612"
    },
    {
      "channel": 0,
      "note": 88,
      "start": 35.4568,
      "duration": 0.0125,
      "velocity": 119,
      "chip": "ym2612"
    },
    {
      "channel": 1,
      "note": 78,
      "start": 35.457,
      "duration": 0.0125,
      "velocity": 119,
      "chip": "ym2612"
    },
    {
      "channel": 4,
      "note": 49,
      "start": 35.4574,
      "duration": 0.0249,
      "velocity": 105,
      "chip": "ym2612"
    },
    {
      "channel": 0,
      "note": 76,
      "start": 35.4694,
      "duration": 0.0123,
      "velocity": 119,
      "chip": "ym2612"
    },
    {
      "channel": 1,
      "note": 89,
      "start": 35.4696,
      "duration": 0.0123,
      "velocity": 119,
      "chip": "ym2612"
    },
    {
      "channel": 0,
      "note": 87,
      "start": 35.4818,
      "duration": 0.0111,
      "velocity": 119,
      "chip": "ym2612"
    },
    {
      "channel": 1,
      "note": 77,
      "start": 35.482,
      "duration": 0.0111,
      "velocity": 119,
      "chip": "ym2612"
    },
    {
      "channel": 4,
      "note": 49,
      "start": 35.4824,
      "duration": 0.0229,
      "velocity": 105,
      "chip": "ym2612"
    },
    {
      "channel": 0,
      "note": 75,
      "start": 35.493,
      "duration": 0.0117,
      "velocity": 119,
      "chip": "ym2612"
    },
    {
      "channel": 1,
      "note": 88,
      "start": 35.4933,
      "duration": 0.0117,
      "velocity": 119,
      "chip": "ym2612"
    },
    {
      "channel": 0,
      "note": 86,
      "start": 35.5049,
      "duration": 0.0115,
      "velocity": 119,
      "chip": "ym2612"
    },
    {
      "channel": 1,
      "note": 76,
      "start": 35.5051,
      "duration": 0.0115,
      "velocity": 119,
      "chip": "ym2612"
    },
    {
      "channel": 4,
      "note": 49,
      "start": 35.5056,
      "duration": 0.0231,
      "velocity": 105,
      "chip": "ym2612"
    },
    {
      "channel": 0,
      "note": 74,
      "start": 35.5166,
      "duration": 0.0115,
      "velocity": 119,
      "chip": "ym2612"
    },
    {
      "channel": 1,
      "note": 87,
      "start": 35.5168,
      "duration": 0.0115,
      "velocity": 119,
      "chip": "ym2612"
    },
    {
      "channel": 0,
      "note": 85,
      "start": 35.5282,
      "duration": 0.0119,
      "velocity": 119,
      "chip": "ym2612"
    },
    {
      "channel": 1,
      "note": 75,
      "start": 35.5285,
      "duration": 0.0119,
      "velocity": 119,
      "chip": "ym2612"
    },
    {
      "channel": 4,
      "note": 49,
      "start": 35.529,
      "duration": 0.0224,
      "velocity": 105,
      "chip": "ym2612"
    },
    {
      "channel": 0,
      "note": 73,
      "start": 35.5403,
      "duration": 0.0105,
      "velocity": 119,
      "chip": "ym2612"
    },
    {
      "channel": 1,
      "note": 86,
      "start": 35.5405,
      "duration": 0.0105,
      "velocity": 119,
      "chip": "ym2612"
    },
    {
      "channel": 0,
      "note": 84,
      "start": 35.5509,
      "duration": 0.0127,
      "velocity": 119,
      "chip": "ym2612"
    },
    {
      "channel": 1,
      "note": 74,
      "start": 35.5512,
      "duration": 0.0127,
      "velocity": 119,
      "chip": "ym2612"
    },
    {
      "channel": 4,
      "note": 49,
      "start": 35.5515,
      "duration": 0.0238,
      "velocity": 105,
      "chip": "ym2612"
    },
    {
      "channel": 0,
      "note": 72,
      "start": 35.5638,
      "duration": 0.0108,
      "velocity": 119,
      "chip": "ym2612"
    },
    {
      "channel": 1,
      "note": 85,
      "start": 35.5641,
      "duration": 0.0108,
      "velocity": 119,
      "chip": "ym2612"
    },
    {
      "channel": 0,
      "note": 83,
      "start": 35.5748,
      "duration": 0.0125,
      "velocity": 119,
      "chip": "ym2612"
    },
    {
      "channel": 1,
      "note": 73,
      "start": 35.5751,
      "duration": 0.0125,
      "velocity": 119,
      "chip": "ym2612"
    },
    {
      "channel": 4,
      "note": 49,
      "start": 35.5754,
      "duration": 0.0335,
      "velocity": 105,
      "chip": "ym2612"
    },
    {
      "channel": 0,
      "note": 71,
      "start": 35.5874,
      "duration": 0.0205,
      "velocity": 119,
      "chip": "ym2612"
    },
    {
      "channel": 1,
      "note": 84,
      "start": 35.5877,
      "duration": 0.0205,
      "velocity": 119,
      "chip": "ym2612"
    },
    {
      "channel": 0,
      "note": 94,
      "start": 35.6081,
      "duration": 0.013,
      "velocity": 119,
      "chip": "ym2612"
    },
    {
      "channel": 1,
      "note": 72,
      "start": 35.6083,
      "duration": 0.013,
      "velocity": 119,
      "chip": "ym2612"
    },
    {
      "channel": 2,
      "note": 94,
      "start": 35.6086,
      "duration": 0.0476,
      "velocity": 98,
      "chip": "ym2612"
    },
    {
      "channel": 3,
      "note": 90,
      "start": 35.6088,
      "duration": 0.0476,
      "velocity": 98,
      "chip": "ym2612"
    },
    {
      "channel": 4,
      "note": 47,
      "start": 35.6093,
      "duration": 0.0241,
      "velocity": 105,
      "chip": "ym2612"
    },
    {
      "channel": 0,
      "note": 82,
      "start": 35.6212,
      "duration": 0.0115,
      "velocity": 119,
      "chip": "ym2612"
    },
    {
      "channel": 1,
      "note": 83,
      "start": 35.6215,
      "duration": 0.0115,
      "velocity": 119,
      "chip": "ym2612"
    },
    {
      "channel": 0,
      "note": 93,
      "start": 35.6329,
      "duration": 0.011,
      "velocity": 119,
      "chip": "ym2612"
    },
    {
      "channel": 1,
      "note": 71,
      "start": 35.6332,
      "duration": 0.011,
      "velocity": 119,
      "chip": "ym2612"
    },
    {
      "channel": 4,
      "note": 47,
      "start": 35.6337,
      "duration": 0.023,
      "velocity": 105,
      "chip": "ym2612"
    },
    {
      "channel": 0,
      "note": 81,
      "start": 35.644,
      "duration": 0.0117,
      "velocity": 119,
      "chip": "ym2612"
    },
    {
      "channel": 1,
      "note": 94,
      "start": 35.6442,
      "duration": 0.0117,
      "velocity": 119,
      "chip": "ym2612"
    },
    {
      "channel": 0,
      "note": 92,
      "start": 35.6558,
      "duration": 0.0117,
      "velocity": 119,
      "chip": "ym2612"
    },
    {
      "channel": 1,
      "note": 82,
      "start": 35.6561,
      "duration": 0.0117,
      "velocity": 119,
      "chip": "ym2612"
    },
    {
      "channel": 2,
      "note": 92,
      "start": 35.6563,
      "duration": 0.0473,
      "velocity": 98,
      "chip": "ym2612"
    },
    {
      "channel": 3,
      "note": 89,
      "start": 35.6566,
      "duration": 0.0473,
      "velocity": 98,
      "chip": "ym2612"
    },
    {
      "channel": 4,
      "note": 47,
      "start": 35.6568,
      "duration": 0.0238,
      "velocity": 105,
      "chip": "ym2612"
    },
    {
      "channel": 0,
      "note": 80,
      "start": 35.6676,
      "duration": 0.0123,
      "velocity": 119,
      "chip": "ym2612"
    },
    {
      "channel": 1,
      "note": 93,
      "start": 35.6679,
      "duration": 0.0123,
      "velocity": 119,
      "chip": "ym2612"
    },
    {
      "channel": 0,
      "note": 91,
      "start": 35.6801,
      "duration": 0.0123,
      "velocity": 119,
      "chip": "ym2612"
    },
    {
      "channel": 1,
      "note": 81,
      "start": 35.6804,
      "duration": 0.0123,
      "velocity": 119,
      "chip": "ym2612"
    },
    {
      "channel": 4,
      "note": 47,
      "start": 35.6808,
      "duration": 0.0234,
      "velocity": 105,
      "chip": "ym2612"
    },
    {
      "channel": 0,
      "note": 79,
      "start": 35.6925,
      "duration": 0.0106,
      "velocity": 119,
      "chip": "ym2612"
    },
    {
      "channel": 1,
      "note": 92,
      "start": 35.6928,
      "duration": 0.0106,
      "velocity": 119,
      "chip": "ym2612"
    },
    {
      "channel": 0,
      "note": 90,
      "start": 35.7032,
      "duration": 0.013,
      "velocity": 119,
      "chip": "ym2612"
    },
    {
      "channel": 1,
      "note": 80,
      "start": 35.7035,
      "duration": 0.013,
      "velocity": 119,
      "chip": "ym2612"
    },
    {
      "channel": 2,
      "note": 90,
      "start": 35.7037,
      "duration": 0.0475,
      "velocity": 98,
      "chip": "ym2612"
    },
    {
      "channel": 3,
      "note": 87,
      "start": 35.704,
      "duration": 0.0475,
      "velocity": 98,
      "chip": "ym2612"
    },
    {
      "channel": 4,
      "note": 47,
      "start": 35.7044,
      "duration": 0.0231,
      "velocity": 105,
      "chip": "ym2612"
    },
    {
      "channel": 0,
      "note": 78,
      "start": 35.7164,
      "duration": 0.0105,
      "velocity": 119,
      "chip": "ym2612"
    },
    {
      "channel": 1,
      "note": 91,
      "start": 35.7167,
      "duration": 0.0105,
      "velocity": 119,
      "chip": "ym2612"
    },
    {
      "channel": 0,
      "note": 89,
      "start": 35.7271,
      "duration": 0.012,
      "velocity": 119,
      "chip": "ym2612"
    },
    {
      "channel": 1,
      "note": 79,
      "start": 35.7273,
      "duration": 0.012,
      "velocity": 119,
      "chip": "ym2612"
    },
    {
      "channel": 4,
      "note": 47,
      "start": 35.7278,
      "duration": 0.024,
      "velocity": 105,
      "chip": "ym2612"
    },
    {
      "channel": 0,
      "note": 77,
      "start": 35.7393,
      "duration": 0.0115,
      "velocity": 119,
      "chip": "ym2612"
    },
    {
      "channel": 1,
      "note": 90,
      "start": 35.7395,
      "duration": 0.0115,
      "velocity": 119,
      "chip": "ym2612"
    },
    {
      "channel": 0,
      "note": 88,
      "start": 35.7509,
      "duration": 0.012,
      "velocity": 119,
      "chip": "ym2612"
    },
    {
      "channel": 1,
      "note": 78,
      "start": 35.7512,
      "duration": 0.012,
      "velocity": 119,
      "chip": "ym2612"
    },
    {
      "channel": 2,
      "note": 89,
      "start": 35.7514,
      "duration": 0.071,
      "velocity": 98,
      "chip": "ym2612"
    },
    {
      "channel": 3,
      "note": 85,
      "start": 35.7517,
      "duration": 0.1411,
      "velocity": 98,
      "chip": "ym2612"
    },
    {
      "channel": 4,
      "note": 49,
      "start": 35.7521,
      "duration": 0.0238,
      "velocity": 105,
      "chip": "ym2612"
    },
    {
      "channel": 0,
      "note": 76,
      "start": 35.763,
      "duration": 0.0122,
      "velocity": 119,
      "chip": "ym2612"
    },
    {
      "channel": 1,
      "note": 89,
      "start": 35.7633,
      "duration": 0.0122,
      "velocity": 119,
      "chip": "ym2612"
    },
    {
      "channel": 0,
      "note": 87,
      "start": 35.7754,
      "duration": 0.0114,
      "velocity": 119,
      "chip": "ym2612"
    },
    {
      "channel": 1,
      "note": 77,
      "start": 35.7756,
      "duration": 0.0114,
      "velocity": 119,
      "chip": "ym2612"
    },
    {
      "channel": 4,
      "note": 49,
      "start": 35.7762,
      "duration": 0.023,
      "velocity": 105,
      "chip": "ym2612"
    },
    {
      "channel": 0,
      "note": 75,
      "start": 35.7869,
      "duration": 0.0116,
      "velocity": 119,
      "chip": "ym2612"
    },
    {
      "channel": 1,
      "note": 88,
      "start": 35.7872,
      "duration": 0.0116,
      "velocity": 119,
      "chip": "ym2612"
    },
    {
      "channel": 0,
      "note": 86,
      "start": 35.7986,
      "duration": 0.0115,
      "velocity": 119,
      "chip": "ym2612"
    },
    {
      "channel": 1,
      "note": 76,
      "start": 35.7989,
      "duration": 0.0115,
      "velocity": 119,
      "chip": "ym2612"
    },
    {
      "channel": 4,
      "note": 49,
      "start": 35.7993,
      "duration": 0.0235,
      "velocity": 105,
      "chip": "ym2612"
    },
    {
      "channel": 0,
      "note": 74,
      "start": 35.8103,
      "duration": 0.0117,
      "velocity": 119,
      "chip": "ym2612"
    },
    {
      "channel": 1,
      "note": 87,
      "start": 35.8105,
      "duration": 0.0117,
      "velocity": 119,
      "chip": "ym2612"
    },
    {
      "channel": 0,
      "note": 85,
      "start": 35.8221,
      "duration": 0.012,
      "velocity": 119,
      "chip": "ym2612"
    },
    {
      "channel": 1,
      "note": 75,
      "start": 35.8223,
      "duration": 0.012,
      "velocity": 119,
      "chip": "ym2612"
    },
    {
      "channel": 2,
      "note": 90,
      "start": 35.8226,
      "duration": 0.0699,
      "velocity": 98,
      "chip": "ym2612"
    },
    {
      "channel": 4,
      "note": 49,
      "start": 35.8229,
      "duration": 0.0225,
      "velocity": 105,
      "chip": "ym2612"
    },
    {
      "channel": 0,
      "note": 73,
      "start": 35.8342,
      "duration": 0.0106,
      "velocity": 119,
      "chip": "ym2612"
    },
    {
      "channel": 1,
      "note": 86,
      "start": 35.8344,
      "duration": 0.0106,
      "velocity": 119,
      "chip": "ym2612"
    },
    {
      "channel": 0,
      "note": 84,
      "start": 35.8449,
      "duration": 0.0127,
      "velocity": 119,
      "chip": "ym2612"
    },
    {
      "channel": 1,
      "note": 74,
      "start": 35.8451,
      "duration": 0.0127,
      "velocity": 119,
      "chip": "ym2612"
    },
    {
      "channel": 4,
      "note": 49,
      "start": 35.8457,
      "duration": 0.0237,
      "velocity": 105,
      "chip": "ym2612"
    },
    {
      "channel": 0,
      "note": 72,
      "start": 35.8577,
      "duration": 0.0111,
      "velocity": 119,
      "chip": "ym2612"
    },
    {
      "channel": 1,
      "note": 85,
      "start": 35.8579,
      "duration": 0.0111,
      "velocity": 119,
      "chip": "ym2612"
    },
    {
      "channel": 0,
      "note": 83,
      "start": 35.8689,
      "duration": 0.0127,
      "velocity": 119,
      "chip": "ym2612"
    },
    {
      "channel": 1,
      "note": 73,
      "start": 35.8691,
      "duration": 0.0127,
      "velocity": 119,
      "chip": "ym2612"
    },
    {
      "channel": 4,
      "note": 49,
      "start": 35.8697,
      "duration": 0.0234,
      "velocity": 105,
      "chip": "ym2612"
    },
    {
      "channel": 0,
      "note": 71,
      "start": 35.8817,
      "duration": 0.0103,
      "velocity": 119,
      "chip": "ym2612"
    },
    {
      "channel": 1,
      "note": 84,
      "start": 35.8819,
      "duration": 0.0103,
      "velocity": 119,
      "chip": "ym2612"
    },
    {
      "channel": 0,
      "note": 94,
      "start": 35.8922,
      "duration": 0.0131,
      "velocity": 119,
      "chip": "ym2612"
    },
    {
      "channel": 1,
      "note": 72,
      "start": 35.8924,
      "duration": 0.0131,
      "velocity": 119,
      "chip": "ym2612"
    },
    {
      "channel": 2,
      "note": 87,
      "start": 35.8927,
      "duration": 0.2937,
      "velocity": 98,
      "chip": "ym2612"
    },
    {
      "channel": 3,
      "note": 82,
      "start": 35.8929,
      "duration": 0.2938,
      "velocity": 98,
      "chip": "ym2612"
    },
    {
      "channel": 4,
      "note": 51,
      "start": 35.8933,
      "duration": 0.0243,
      "velocity": 105,
      "chip": "ym2612"
    },
    {
      "channel": 0,
      "note": 82,
      "start": 35.9054,
      "duration": 0.0116,
      "velocity": 119,
      "chip": "ym2612"
    },
    {
      "channel": 1,
      "note": 83,
      "start": 35.9057,
      "duration": 0.0116,
      "velocity": 119,
      "chip": "ym2612"
    },
    {
      "channel": 0,
      "note": 93,
      "start": 35.9171,
      "duration": 0.011,
      "velocity": 119,
      "chip": "ym2612"
    },
    {
      "channel": 1,
      "note": 71,
      "start": 35.9174,
      "duration": 0.011,
      "velocity": 119,
      "chip": "ym2612"
    },
    {
      "channel": 4,
      "note": 51,
      "start": 35.9179,
      "duration": 0.0224,
      "velocity": 105,
      "chip": "ym2612"
    },
    {
      "channel": 0,
      "note": 81,
      "start": 35.9282,
      "duration": 0.0115,
      "velocity": 119,
      "chip": "ym2612"
    },
    {
      "channel": 1,
      "note": 94,
      "start": 35.9285,
      "duration": 0.0115,
      "velocity": 119,
      "chip": "ym2612"
    },
    {
      "channel": 0,
      "note": 92,
      "start": 35.9399,
      "duration": 0.0114,
      "velocity": 119,
      "chip": "ym2612"
    },
    {
      "channel": 1,
      "note": 82,
      "start": 35.9401,
      "duration": 0.0114,
      "velocity": 119,
      "chip": "ym2612"
    },
    {
      "channel": 4,
      "note": 51,
      "start": 35.9405,
      "duration": 0.0238,
      "velocity": 105,
      "chip": "ym2612"
    },
    {
      "channel": 0,
      "note": 80,
      "start": 35.9514,
      "duration": 0.0123,
      "velocity": 119,
      "chip": "ym2612"
    },
    {
      "channel": 1,
      "note": 93,
      "start": 35.9516,
      "duration": 0.0123,
      "velocity": 119,
      "chip": "ym2612"
    },
    {
      "channel": 0,
      "note": 91,
      "start": 35.9638,
      "duration": 0.0124,
      "velocity": 119,
      "chip": "ym2612"
    },
    {
      "channel": 1,
      "note": 81,
      "start": 35.964,
      "duration": 0.0124,
      "velocity": 119,
      "chip": "ym2612"
    },
    {
      "channel": 4,
      "note": 51,
      "start": 35.9644,
      "duration": 0.0231,
      "velocity": 105,
      "chip": "ym2612"
    },
    {
      "channel": 0,
      "note": 79,
      "start": 35.9763,
      "duration": 0.0105,
      "velocity": 119,
      "chip": "ym2612"
    },
    {
      "channel": 1,
      "note": 92,
      "start": 35.9766,
      "duration": 0.0105,
      "velocity": 119,
      "chip": "ym2612"
    },
    {
      "channel": 0,
      "note": 90,
      "start": 35.987,
      "duration": 0.0125,
      "velocity": 119,
      "chip": "ym2612"
    },
    {
      "channel": 1,
      "note": 80,
      "start": 35.9872,
      "duration": 0.0125,
      "velocity": 119,
      "chip": "ym2612"
    },
    {
      "channel": 4,
      "note": 51,
      "start": 35.9878,
      "duration": 0.023,
      "velocity": 105,
      "chip": "ym2612"
    },
    {
      "channel": 0,
      "note": 78,
      "start": 35.9997,
      "duration": 0.0105,
      "velocity": 119,
      "chip": "ym2612"
    },
    {
      "channel": 1,
      "note": 91,
      "start": 35.9999,
      "duration": 0.0105,
      "velocity": 119,
      "chip": "ym2612"
    },
    {
      "channel": 0,
      "note": 89,
      "start": 36.0103,
      "duration": 0.0119,
      "velocity": 119,
      "chip": "ym2612"
    },
    {
      "channel": 1,
      "note": 79,
      "start": 36.0105,
      "duration": 0.0119,
      "velocity": 119,
      "chip": "ym2612"
    },
    {
      "channel": 4,
      "note": 51,
      "start": 36.0111,
      "duration": 0.0236,
      "velocity": 105,
      "chip": "ym2612"
    },
    {
      "channel": 0,
      "note": 77,
      "start": 36.0224,
      "duration": 0.0117,
      "velocity": 119,
      "chip": "ym2612"
    },
    {
      "channel": 1,
      "note": 90,
      "start": 36.0226,
      "duration": 0.0117,
      "velocity": 119,
      "chip": "ym2612"
    },
    {
      "channel": 0,
      "note": 88,
      "start": 36.0342,
      "duration": 0.0115,
      "velocity": 119,
      "chip": "ym2612"
    },
    {
      "channel": 1,
      "note": 78,
      "start": 36.0344,
      "duration": 0.0115,
      "velocity": 119,
      "chip": "ym2612"
    },
    {
      "channel": 4,
      "note": 51,
      "start": 36.0348,
      "duration": 0.0238,
      "velocity": 105,
      "chip": "ym2612"
    },
    {
      "channel": 0,
      "note": 76,
      "start": 36.0458,
      "duration": 0.0121,
      "velocity": 119,
      "chip": "ym2612"
    },
    {
      "channel": 1,
      "note": 89,
      "start": 36.0461,
      "duration": 0.0121,
      "velocity": 119,
      "chip": "ym2612"
    },
    {
      "channel": 0,
      "note": 87,
      "start": 36.0581,
      "duration": 0.0114,
      "velocity": 119,
      "chip": "ym2612"
    },
    {
      "channel": 1,
      "note": 77,
      "start": 36.0583,
      "duration": 0.0114,
      "velocity": 119,
      "chip": "ym2612"
    },
    {
      "channel": 4,
      "note": 51,
      "start": 36.0587,
      "duration": 0.023,
      "velocity": 105,
      "chip": "ym2612"
    },
    {
      "channel": 0,
      "note": 75,
      "start": 36.0696,
      "duration": 0.0115,
      "velocity": 119,
      "chip": "ym2612"
    },
    {
      "channel": 1,
      "note": 88,
      "start": 36.0698,
      "duration": 0.0115,
      "velocity": 119,
      "chip": "ym2612"
    },
    {
      "channel": 0,
      "note": 86,
      "start": 36.0813,
      "duration": 0.0116,
      "velocity": 119,
      "chip": "ym2612"
    },
    {
      "channel": 1,
      "note": 76,
      "start": 36.0815,
      "duration": 0.0116,
      "velocity": 119,
      "chip": "ym2612"
    },
    {
      "channel": 4,
      "note": 51,
      "start": 36.0821,
      "duration": 0.0232,
      "velocity": 105,
      "chip": "ym2612"
    },
    {
      "channel": 0,
      "note": 74,
      "start": 36.093,
      "duration": 0.0115,
      "velocity": 119,
      "chip": "ym2612"
    },
    {
      "channel": 1,
      "note": 87,
      "start": 36.0933,
      "duration": 0.0115,
      "velocity": 119,
      "chip": "ym2612"
    },
    {
      "channel": 0,
      "note": 85,
      "start": 36.1047,
      "duration": 0.0121,
      "velocity": 119,
      "chip": "ym2612"
    },
    {
      "channel": 1,
      "note": 75,
      "start": 36.105,
      "duration": 0.0121,
      "velocity": 119,
      "chip": "ym2612"
    },
    {
      "channel": 4,
      "note": 51,
      "start": 36.1055,
      "duration": 0.0226,
      "velocity": 105,
      "chip": "ym2612"
    },
    {
      "channel": 0,
      "note": 73,
      "start": 36.117,
      "duration": 0.0105,
      "velocity": 119,
      "chip": "ym2612"
    },
    {
      "channel": 1,
      "note": 86,
      "start": 36.1172,
      "duration": 0.0105,
      "velocity": 119,
      "chip": "ym2612"
    },
    {
      "channel": 0,
      "note": 84,
      "start": 36.1276,
      "duration": 0.0126,
      "velocity": 119,
      "chip": "ym2612"
    },
    {
      "channel": 1,
      "note": 74,
      "start": 36.1279,
      "duration": 0.0126,
      "velocity": 119,
      "chip": "ym2612"
    },
    {
      "channel": 4,
      "note": 51,
      "start": 36.1283,
      "duration": 0.0239,
      "velocity": 105,
      "chip": "ym2612"
    },
    {
      "channel": 0,
      "note": 72,
      "start": 36.1404,
      "duration": 0.0111,
      "velocity": 119,
      "chip": "ym2612"
    },
    {
      "channel": 1,
      "note": 85,
      "start": 36.1406,
      "duration": 0.0111,
      "velocity": 119,
      "chip": "ym2612"
    },
    {
      "channel": 0,
      "note": 83,
      "start": 36.1517,
      "duration": 0.0123,
      "velocity": 119,
      "chip": "ym2612"
    },
    {
      "channel": 1,
      "note": 73,
      "start": 36.1519,
      "duration": 0.0123,
      "velocity": 119,
      "chip": "ym2612"
    },
    {
      "channel": 4,
      "note": 51,
      "start": 36.1523,
      "duration": 0.0346,
      "velocity": 105,
      "chip": "ym2612"
    },
    {
      "channel": 0,
      "note": 71,
      "start": 36.1641,
      "duration": 0.3093,
      "velocity": 119,
      "chip": "ym2612"
    },
    {
      "channel": 1,
      "note": 84,
      "start": 36.1643,
      "duration": 0.3461,
      "velocity": 119,
      "chip": "ym2612"
    },
    {
      "channel": 2,
      "note": 85,
      "start": 36.1866,
      "duration": 0.2871,
      "velocity": 98,
      "chip": "ym2612"
    },
    {
      "channel": 3,
      "note": 80,
      "start": 36.1868,
      "duration": 0.2872,
      "velocity": 98,
      "chip": "ym2612"
    },
    {
      "channel": 4,
      "note": 49,
      "start": 36.1871,
      "duration": 0.0224,
      "velocity": 105,
      "chip": "ym2612"
    },
    {
      "channel": 4,
      "note": 49,
      "start": 36.2096,
      "duration": 0.0223,
      "velocity": 105,
      "chip": "ym2612"
    },
    {
      "channel": 4,
      "note": 49,
      "start": 36.2321,
      "duration": 0.0224,
      "velocity": 105,
      "chip": "ym2612"
    },
    {
      "channel": 4,
      "note": 49,
      "start": 36.2546,
      "duration": 0.0235,
      "velocity": 105,
      "chip": "ym2612"
    },
    {
      "channel": 4,
      "note": 49,
      "start": 36.2783,
      "duration": 0.0223,
      "velocity": 105,
      "chip": "ym2612"
    },
    {
      "channel": 4,
      "note": 49,
      "start": 36.3007,
      "duration": 0.0223,
      "velocity": 105,
      "chip": "ym2612"
    },
    {
      "channel": 4,
      "note": 49,
      "start": 36.3232,
      "duration": 0.0122,
      "velocity": 105,
      "chip": "ym2612"
    },
    {
      "channel": 4,
      "note": 49,
      "start": 36.3462,
      "duration": 0.0122,
      "velocity": 105,
      "chip": "ym2612"
    },
    {
      "channel": 4,
      "note": 49,
      "start": 36.3695,
      "duration": 0.0122,
      "velocity": 105,
      "chip": "ym2612"
    },
    {
      "channel": 4,
      "note": 49,
      "start": 36.3938,
      "duration": 0.0112,
      "velocity": 105,
      "chip": "ym2612"
    },
    {
      "channel": 4,
      "note": 49,
      "start": 36.4172,
      "duration": 0.011,
      "velocity": 105,
      "chip": "ym2612"
    },
    {
      "channel": 4,
      "note": 49,
      "start": 36.4406,
      "duration": 0.0122,
      "velocity": 105,
      "chip": "ym2612"
    },
    {
      "channel": 0,
      "note": 94,
      "start": 36.4735,
      "duration": 0.0132,
      "velocity": 119,
      "chip": "ym2612"
    },
    {
      "channel": 2,
      "note": 87,
      "start": 36.4739,
      "duration": 5.2324,
      "velocity": 68,
      "chip": "ym2612"
    },
    {
      "channel": 3,
      "note": 82,
      "start": 36.4742,
      "duration": 5.2326,
      "velocity": 68,
      "chip": "ym2612"
    },
    {
      "channel": 4,
      "note": 51,
      "start": 36.4746,
      "duration": 0.0233,
      "velocity": 105,
      "chip": "ym2612"
    },
    {
      "channel": 0,
      "note": 82,
      "start": 36.4868,
      "duration": 0.0106,
      "velocity": 119,
      "chip": "ym2612"
    },
    {
      "channel": 0,
      "note": 93,
      "start": 36.4976,
      "duration": 0.0126,
      "velocity": 119,
      "chip": "ym2612"
    },
    {
      "channel": 4,
      "note": 51,
      "start": 36.4982,
      "duration": 0.0247,
      "velocity": 105,
      "chip": "ym2612"
    },
    {
      "channel": 0,
      "note": 81,
      "start": 36.5103,
      "duration": 0.012,
      "velocity": 119,
      "chip": "ym2612"
    },
    {
      "channel": 1,
      "note": 94,
      "start": 36.5117,
      "duration": 0.0108,
      "velocity": 119,
      "chip": "ym2612"
    },
    {
      "channel": 0,
      "note": 92,
      "start": 36.5224,
      "duration": 0.0124,
      "velocity": 119,
      "chip": "ym2612"
    },
    {
      "channel": 1,
      "note": 82,
      "start": 36.5227,
      "duration": 0.0124,
      "velocity": 119,
      "chip": "ym2612"
    },
    {
      "channel": 4,
      "note": 51,
      "start": 36.5231,
      "duration": 0.0233,
      "velocity": 105,
      "chip": "ym2612"
    },
    {
      "channel": 0,
      "note": 80,
      "start": 36.535,
      "duration": 0.0107,
      "velocity": 119,
      "chip": "ym2612"
    },
    {
      "channel": 1,
      "note": 93,
      "start": 36.5352,
      "duration": 0.0107,
      "velocity": 119,
      "chip": "ym2612"
    },
    {
      "channel": 0,
      "note": 91,
      "start": 36.5458,
      "duration": 0.0126,
      "velocity": 119,
      "chip": "ym2612"
    },
    {
      "channel": 1,
      "note": 81,
      "start": 36.5461,
      "duration": 0.0126,
      "velocity": 119,
      "chip": "ym2612"
    },
    {
      "channel": 4,
      "note": 51,
      "start": 36.5465,
      "duration": 0.025,
      "velocity": 105,
      "chip": "ym2612"
    },
    {
      "channel": 0,
      "note": 79,
      "start": 36.5585,
      "duration": 0.0123,
      "velocity": 119,
      "chip": "ym2612"
    },
    {
      "channel": 1,
      "note": 92,
      "start": 36.5588,
      "duration": 0.0123,
      "velocity": 119,
      "chip": "ym2612"
    },
    {
      "channel": 0,
      "note": 90,
      "start": 36.571,
      "duration": 0.0115,
      "velocity": 119,
      "chip": "ym2612"
    },
    {
      "channel": 1,
      "note": 80,
      "start": 36.5712,
      "duration": 0.0115,
      "velocity": 119,
      "chip": "ym2612"
    },
    {
      "channel": 4,
      "note": 51,
      "start": 36.5718,
      "duration": 0.0239,
      "velocity": 105,
      "chip": "ym2612"
    },
    {
      "channel": 0,
      "note": 78,
      "start": 36.5827,
      "duration": 0.0123,
      "velocity": 119,
      "chip": "ym2612"
    },
    {
      "channel": 1,
      "note": 91,
      "start": 36.5829,
      "duration": 0.0123,
      "velocity": 119,
      "chip": "ym2612"
    },
    {
      "channel": 0,
      "note": 89,
      "start": 36.5952,
      "duration": 0.0111,
      "velocity": 119,
      "chip": "ym2612"
    },
    {
      "channel": 1,
      "note": 79,
      "start": 36.5954,
      "duration": 0.0111,
      "velocity": 119,
      "chip": "ym2612"
    },
    {
      "channel": 4,
      "note": 51,
      "start": 36.596,
      "duration": 0.0232,
      "velocity": 105,
      "chip": "ym2612"
    },
    {
      "channel": 0,
      "note": 77,
      "start": 36.6064,
      "duration": 0.0122,
      "velocity": 119,
      "chip": "ym2612"
    },
    {
      "channel": 1,
      "note": 90,
      "start": 36.6067,
      "duration": 0.0122,
      "velocity": 119,
      "chip": "ym2612"
    },
    {
      "channel": 0,
      "note": 88,
      "start": 36.6187,
      "duration": 0.011,
      "velocity": 119,
      "chip": "ym2612"
    },
    {
      "channel": 1,
      "note": 78,
      "start": 36.619,
      "duration": 0.011,
      "velocity": 119,
      "chip": "ym2612"
    },
    {
      "channel": 4,
      "note": 51,
      "start": 36.6193,
      "duration": 0.0238,
      "velocity": 105,
      "chip": "ym2612"
    },
    {
      "channel": 0,
      "note": 76,
      "start": 36.6299,
      "duration": 0.0126,
      "velocity": 119,
      "chip": "ym2612"
    },
    {
      "channel": 1,
      "note": 89,
      "start": 36.6301,
      "duration": 0.0126,
      "velocity": 119,
      "chip": "ym2612"
    },
    {
      "channel": 0,
      "note": 87,
      "start": 36.6426,
      "duration": 0.0841,
      "velocity": 119,
      "chip": "ym2612"
    },
    {
      "channel": 1,
      "note": 77,
      "start": 36.6429,
      "duration": 0.0841,
      "velocity": 119,
      "chip": "ym2612"
    },
    {
      "channel": 4,
      "note": 51,
      "start": 36.6433,
      "duration": 0.1832,
      "velocity": 105,
      "chip": "ym2612"
    },
    {
      "channel": 0,
      "note": 75,
      "start": 36.7269,
      "duration": 0.099,
      "velocity": 119,
      "chip": "ym2612"
    },
    {
      "channel": 1,
      "note": 88,
      "start": 36.7271,
      "duration": 0.099,
      "velocity": 119,
      "chip": "ym2612"
    },
    {
      "channel": 0,
      "note": 86,
      "start": 36.826,
      "duration": 0.0379,
      "velocity": 119,
      "chip": "ym2612"
    },
    {
      "channel": 1,
      "note": 76,
      "start": 36.8262,
      "duration": 0.0379,
      "velocity": 119,
      "chip": "ym2612"
    },
    {
      "channel": 4,
      "note": 51,
      "start": 36.8268,
      "duration": 0.1369,
      "velocity": 105,
      "chip": "ym2612"
    },
    {
      "channel": 0,
      "note": 74,
      "start": 36.8641,
      "duration": 0.099,
      "velocity": 119,
      "chip": "ym2612"
    },
    {
      "channel": 1,
      "note": 87,
      "start": 36.8643,
      "duration": 0.099,
      "velocity": 119,
      "chip": "ym2612"
    },
    {
      "channel": 0,
      "note": 85,
      "start": 36.9632,
      "duration": 0.099,
      "velocity": 119,
      "chip": "ym2612"
    },
    {
      "channel": 1,
      "note": 75,
      "start": 36.9634,
      "duration": 0.099,
      "velocity": 119,
      "chip": "ym2612"
    },
    {
      "channel": 4,
      "note": 51,
      "start": 36.964,
      "duration": 0.198,
      "velocity": 105,
      "chip": "ym2612"
    },
    {
      "channel": 0,
      "note": 73,
      "start": 37.0623,
      "duration": 0.099,
      "velocity": 119,
      "chip": "ym2612"
    },
    {
      "channel": 1,
      "note": 86,
      "start": 37.0626,
      "duration": 0.099,
      "velocity": 119,
      "chip": "ym2612"
    },
    {
      "channel": 0,
      "note": 84,
      "start": 37.1614,
      "duration": 0.099,
      "velocity": 119,
      "chip": "ym2612"
    },
    {
      "channel": 1,
      "note": 74,
      "start": 37.1617,
      "duration": 0.099,
      "velocity": 119,
      "chip": "ym2612"
    },
    {
      "channel": 4,
      "note": 51,
      "start": 37.1621,
      "duration": 0.1981,
      "velocity": 105,
      "chip": "ym2612"
    },
    {
      "channel": 0,
      "note": 72,
      "start": 37.2606,
      "duration": 0.099,
      "velocity": 119,
      "chip": "ym2612"
    },
    {
      "channel": 1,
      "note": 85,
      "start": 37.2608,
      "duration": 0.099,
      "velocity": 119,
      "chip": "ym2612"
    },
    {
      "channel": 0,
      "note": 83,
      "start": 37.3597,
      "duration": 0.038,
      "velocity": 119,
      "chip": "ym2612"
    },
    {
      "channel": 1,
      "note": 73,
      "start": 37.3599,
      "duration": 0.038,
      "velocity": 119,
      "chip": "ym2612"
    },
    {
      "channel": 4,
      "note": 51,
      "start": 37.3603,
      "duration": 0.1376,
      "velocity": 105,
      "chip": "ym2612"
    },
    {
      "channel": 0,
      "note": 71,
      "start": 37.3978,
      "duration": 0.0994,
      "velocity": 119,
      "chip": "ym2612"
    },
    {
      "channel": 1,
      "note": 84,
      "start": 37.3981,
      "duration": 0.0994,
      "velocity": 119,
      "chip": "ym2612"
    },
    {
      "channel": 0,
      "note": 94,
      "start": 37.4974,
      "duration": 0.0375,
      "velocity": 119,
      "chip": "ym2612"
    },
    {
      "channel": 1,
      "note": 72,
      "start": 37.4976,
      "duration": 0.0375,
      "velocity": 119,
      "chip": "ym2612"
    },
    {
      "channel": 4,
      "note": 51,
      "start": 37.4982,
      "duration": 0.1365,
      "velocity": 105,
      "chip": "ym2612"
    },
    {
      "channel": 0,
      "note": 82,
      "start": 37.535,
      "duration": 0.099,
      "velocity": 119,
      "chip": "ym2612"
    },
    {
      "channel": 1,
      "note": 83,
      "start": 37.5353,
      "duration": 0.099,
      "velocity": 119,
      "chip": "ym2612"
    },
    {
      "channel": 0,
      "note": 93,
      "start": 37.6341,
      "duration": 0.099,
      "velocity": 119,
      "chip": "ym2612"
    },
    {
      "channel": 1,
      "note": 71,
      "start": 37.6344,
      "duration": 0.099,
      "velocity": 119,
      "chip": "ym2612"
    },
    {
      "channel": 4,
      "note": 51,
      "start": 37.6349,
      "duration": 0.198,
      "velocity": 105,
      "chip": "ym2612"
    },
    {
      "channel": 0,
      "note": 81,
      "start": 37.7333,
      "duration": 0.099,
      "velocity": 119,
      "chip": "ym2612"
    },
    {
      "channel": 1,
      "note": 94,
      "start": 37.7335,
      "duration": 0.099,
      "velocity": 119,
      "chip": "ym2612"
    },
    {
      "channel": 0,
      "note": 92,
      "start": 37.8324,
      "duration": 0.099,
      "velocity": 119,
      "chip": "ym2612"
    },
    {
      "channel": 1,
      "note": 82,
      "start": 37.8327,
      "duration": 0.099,
      "velocity": 119,
      "chip": "ym2612"
    },
    {
      "channel": 4,
      "note": 51,
      "start": 37.833,
      "duration": 0.1981,
      "velocity": 105,
      "chip": "ym2612"
    },
    {
      "channel": 0,
      "note": 80,
      "start": 37.9315,
      "duration": 0.0989,
      "velocity": 119,
      "chip": "ym2612"
    },
    {
      "channel": 1,
      "note": 93,
      "start": 37.9318,
      "duration": 0.099,
      "velocity": 119,
      "chip": "ym2612"
    },
    {
      "channel": 0,
      "note": 91,
      "start": 38.0306,
      "duration": 0.099,
      "velocity": 119,
      "chip": "ym2612"
    },
    {
      "channel": 1,
      "note": 81,
      "start": 38.0309,
      "duration": 0.099,
      "velocity": 119,
      "chip": "ym2612"
    },
    {
      "channel": 4,
      "note": 51,
      "start": 38.0313,
      "duration": 0.1981,
      "velocity": 105,
      "chip": "ym2612"
    },
    {
      "channel": 0,
      "note": 79,
      "start": 38.1298,
      "duration": 0.099,
      "velocity": 119,
      "chip": "ym2612"
    },
    {
      "channel": 1,
      "note": 92,
      "start": 38.13,
      "duration": 0.099,
      "velocity": 119,
      "chip": "ym2612"
    },
    {
      "channel": 0,
      "note": 90,
      "start": 38.2289,
      "duration": 0.0379,
      "velocity": 119,
      "chip": "ym2612"
    },
    {
      "channel": 1,
      "note": 80,
      "start": 38.2291,
      "duration": 0.0379,
      "velocity": 119,
      "chip": "ym2612"
    },
    {
      "channel": 4,
      "note": 51,
      "start": 38.2297,
      "duration": 0.1369,
      "velocity": 105,
      "chip": "ym2612"
    },
    {
      "channel": 0,
      "note": 78,
      "start": 38.267,
      "duration": 0.099,
      "velocity": 119,
      "chip": "ym2612"
    },
    {
      "channel": 1,
      "note": 91,
      "start": 38.2672,
      "duration": 0.099,
      "velocity": 119,
      "chip": "ym2612"
    },
    {
      "channel": 0,
      "note": 89,
      "start": 38.3661,
      "duration": 0.099,
      "velocity": 119,
      "chip": "ym2612"
    },
    {
      "channel": 1,
      "note": 79,
      "start": 38.3663,
      "duration": 0.099,
      "velocity": 119,
      "chip": "ym2612"
    },
    {
      "channel": 4,
      "note": 51,
      "start": 38.3669,
      "duration": 0.1984,
      "velocity": 105,
      "chip": "ym2612"
    },
    {
      "channel": 0,
      "note": 77,
      "start": 38.4652,
      "duration": 0.0994,
      "velocity": 119,
      "chip": "ym2612"
    },
    {
      "channel": 1,
      "note": 90,
      "start": 38.4655,
      "duration": 0.0994,
      "velocity": 119,
      "chip": "ym2612"
    },
    {
      "channel": 0,
      "note": 88,
      "start": 38.5648,
      "duration": 0.0985,
      "velocity": 119,
      "chip": "ym2612"
    },
    {
      "channel": 1,
      "note": 78,
      "start": 38.565,
      "duration": 0.0985,
      "velocity": 119,
      "chip": "ym2612"
    },
    {
      "channel": 4,
      "note": 51,
      "start": 38.5654,
      "duration": 0.1976,
      "velocity": 105,
      "chip": "ym2612"
    },
    {
      "channel": 0,
      "note": 76,
      "start": 38.6634,
      "duration": 0.099,
      "velocity": 119,
      "chip": "ym2612"
    },
    {
      "channel": 1,
      "note": 89,
      "start": 38.6637,
      "duration": 0.099,
      "velocity": 119,
      "chip": "ym2612"
    },
    {
      "channel": 0,
      "note": 87,
      "start": 38.7626,
      "duration": 0.038,
      "velocity": 119,
      "chip": "ym2612"
    },
    {
      "channel": 1,
      "note": 77,
      "start": 38.7628,
      "duration": 0.038,
      "velocity": 119,
      "chip": "ym2612"
    },
    {
      "channel": 4,
      "note": 51,
      "start": 38.7632,
      "duration": 0.1371,
      "velocity": 105,
      "chip": "ym2612"
    },
    {
      "channel": 0,
      "note": 75,
      "start": 38.8007,
      "duration": 0.099,
      "velocity": 119,
      "chip": "ym2612"
    },
    {
      "channel": 1,
      "note": 88,
      "start": 38.801,
      "duration": 0.099,
      "velocity": 119,
      "chip": "ym2612"
    },
    {
      "channel": 0,
      "note": 86,
      "start": 38.8998,
      "duration": 0.0379,
      "velocity": 119,
      "chip": "ym2612"
    },
    {
      "channel": 1,
      "note": 76,
      "start": 38.9001,
      "duration": 0.0379,
      "velocity": 119,
      "chip": "ym2612"
    },
    {
      "channel": 4,
      "note": 51,
      "start": 38.9006,
      "duration": 0.1369,
      "velocity": 105,
      "chip": "ym2612"
    },
    {
      "channel": 0,
      "note": 74,
      "start": 38.9379,
      "duration": 0.099,
      "velocity": 119,
      "chip": "ym2612"
    },
    {
      "channel": 1,
      "note": 87,
      "start": 38.9381,
      "duration": 0.099,
      "velocity": 119,
      "chip": "ym2612"
    },
    {
      "channel": 0,
      "note": 85,
      "start": 39.037,
      "duration": 0.099,
      "velocity": 119,
      "chip": "ym2612"
    },
    {
      "channel": 1,
      "note": 75,
      "start": 39.0372,
      "duration": 0.099,
      "velocity": 119,
      "chip": "ym2612"
    },
    {
      "channel": 4,
      "note": 51,
      "start": 39.0378,
      "duration": 0.198,
      "velocity": 105,
      "chip": "ym2612"
    },
    {
      "channel": 0,
      "note": 73,
      "start": 39.1361,
      "duration": 0.099,
      "velocity": 119,
      "chip": "ym2612"
    },
    {
      "channel": 1,
      "note": 86,
      "start": 39.1364,
      "duration": 0.099,
      "velocity": 119,
      "chip": "ym2612"
    },
    {
      "channel": 0,
      "note": 84,
      "start": 39.2353,
      "duration": 0.099,
      "velocity": 119,
      "chip": "ym2612"
    },
    {
      "channel": 1,
      "note": 74,
      "start": 39.2355,
      "duration": 0.099,
      "velocity": 119,
      "chip": "ym2612"
    },
    {
      "channel": 4,
      "note": 51,
      "start": 39.2359,
      "duration": 0.1981,
      "velocity": 105,
      "chip": "ym2612"
    },
    {
      "channel": 0,
      "note": 72,
      "start": 39.3344,
      "duration": 0.099,
      "velocity": 119,
      "chip": "ym2612"
    },
    {
      "channel": 1,
      "note": 85,
      "start": 39.3346,
      "duration": 0.099,
      "velocity": 119,
      "chip": "ym2612"
    },
    {
      "channel": 0,
      "note": 83,
      "start": 39.4335,
      "duration": 0.099,
      "velocity": 119,
      "chip": "ym2612"
    },
    {
      "channel": 1,
      "note": 73,
      "start": 39.4337,
      "duration": 0.099,
      "velocity": 119,
      "chip": "ym2612"
    },
    {
      "channel": 4,
      "note": 51,
      "start": 39.4341,
      "duration": 0.1985,
      "velocity": 105,
      "chip": "ym2612"
    },
    {
      "channel": 0,
      "note": 71,
      "start": 39.5326,
      "duration": 0.0994,
      "velocity": 119,
      "chip": "ym2612"
    },
    {
      "channel": 1,
      "note": 84,
      "start": 39.5329,
      "duration": 0.0994,
      "velocity": 119,
      "chip": "ym2612"
    },
    {
      "channel": 0,
      "note": 94,
      "start": 39.6322,
      "duration": 0.0375,
      "velocity": 119,
      "chip": "ym2612"
    },
    {
      "channel": 1,
      "note": 72,
      "start": 39.6324,
      "duration": 0.0375,
      "velocity": 119,
      "chip": "ym2612"
    },
    {
      "channel": 4,
      "note": 51,
      "start": 39.6329,
      "duration": 0.1365,
      "velocity": 105,
      "chip": "ym2612"
    },
    {
      "channel": 0,
      "note": 82,
      "start": 39.6698,
      "duration": 0.099,
      "velocity": 119,
      "chip": "ym2612"
    },
    {
      "channel": 1,
      "note": 83,
      "start": 39.67,
      "duration": 0.099,
      "velocity": 119,
      "chip": "ym2612"
    },
    {
      "channel": 0,
      "note": 93,
      "start": 39.7689,
      "duration": 0.099,
      "velocity": 119,
      "chip": "ym2612"
    },
    {
      "channel": 1,
      "note": 71,
      "start": 39.7692,
      "duration": 0.099,
      "velocity": 119,
      "chip": "ym2612"
    },
    {
      "channel": 4,
      "note": 51,
      "start": 39.7697,
      "duration": 0.1979,
      "velocity": 105,
      "chip": "ym2612"
    },
    {
      "channel": 0,
      "note": 81,
      "start": 39.868,
      "duration": 0.099,
      "velocity": 119,
      "chip": "ym2612"
    },
    {
      "channel": 1,
      "note": 94,
      "start": 39.8683,
      "duration": 0.099,
      "velocity": 119,
      "chip": "ym2612"
    },
    {
      "channel": 0,
      "note": 92,
      "start": 39.9671,
      "duration": 0.099,
      "velocity": 119,
      "chip": "ym2612"
    },
    {
      "channel": 1,
      "note": 82,
      "start": 39.9674,
      "duration": 0.099,
      "velocity": 119,
      "chip": "ym2612"
    },
    {
      "channel": 4,
      "note": 51,
      "start": 39.9678,
      "duration": 0.1981,
      "velocity": 105,
      "chip": "ym2612"
    },
    {
      "channel": 0,
      "note": 80,
      "start": 40.0663,
      "duration": 0.099,
      "velocity": 119,
      "chip": "ym2612"
    },
    {
      "channel": 1,
      "note": 93,
      "start": 40.0665,
      "duration": 0.099,
      "velocity": 119,
      "chip": "ym2612"
    },
    {
      "channel": 0,
      "note": 91,
      "start": 40.1654,
      "duration": 0.038,
      "velocity": 119,
      "chip": "ym2612"
    },
    {
      "channel": 1,
      "note": 81,
      "start": 40.1656,
      "duration": 0.038,
      "velocity": 119,
      "chip": "ym2612"
    },
    {
      "channel": 4,
      "note": 51,
      "start": 40.1661,
      "duration": 0.1371,
      "velocity": 105,
      "chip": "ym2612"
    },
    {
      "channel": 0,
      "note": 79,
      "start": 40.2035,
      "duration": 0.099,
      "velocity": 119,
      "chip": "ym2612"
    },
    {
      "channel": 1,
      "note": 92,
      "start": 40.2038,
      "duration": 0.099,
      "velocity": 119,
      "chip": "ym2612"
    },
    {
      "channel": 0,
      "note": 90,
      "start": 40.3027,
      "duration": 0.038,
      "velocity": 119,
      "chip": "ym2612"
    },
    {
      "channel": 1,
      "note": 80,
      "start": 40.3029,
      "duration": 0.038,
      "velocity": 119,
      "chip": "ym2612"
    },
    {
      "channel": 4,
      "note": 51,
      "start": 40.3034,
      "duration": 0.1369,
      "velocity": 105,
      "chip": "ym2612"
    },
    {
      "channel": 0,
      "note": 78,
      "start": 40.3407,
      "duration": 0.099,
      "velocity": 119,
      "chip": "ym2612"
    },
    {
      "channel": 1,
      "note": 91,
      "start": 40.341,
      "duration": 0.099,
      "velocity": 119,
      "chip": "ym2612"
    },
    {
      "channel": 0,
      "note": 89,
      "start": 40.4399,
      "duration": 0.099,
      "velocity": 119,
      "chip": "ym2612"
    },
    {
      "channel": 1,
      "note": 79,
      "start": 40.4401,
      "duration": 0.099,
      "velocity": 119,
      "chip": "ym2612"
    },
    {
      "channel": 4,
      "note": 51,
      "start": 40.4407,
      "duration": 0.1984,
      "velocity": 105,
      "chip": "ym2612"
    },
    {
      "channel": 0,
      "note": 77,
      "start": 40.539,
      "duration": 0.0994,
      "velocity": 119,
      "chip": "ym2612"
    },
    {
      "channel": 1,
      "note": 90,
      "start": 40.5393,
      "duration": 0.0994,
      "velocity": 119,
      "chip": "ym2612"
    },
    {
      "channel": 0,
      "note": 88,
      "start": 40.6386,
      "duration": 0.0985,
      "velocity": 119,
      "chip": "ym2612"
    },
    {
      "channel": 1,
      "note": 78,
      "start": 40.6388,
      "duration": 0.0985,
      "velocity": 119,
      "chip": "ym2612"
    },
    {
      "channel": 4,
      "note": 51,
      "start": 40.6392,
      "duration": 0.1978,
      "velocity": 105,
      "chip": "ym2612"
    },
    {
      "channel": 0,
      "note": 76,
      "start": 40.7373,
      "duration": 0.0991,
      "velocity": 119,
      "chip": "ym2612"
    },
    {
      "channel": 1,
      "note": 89,
      "start": 40.7375,
      "duration": 0.0991,
      "velocity": 119,
      "chip": "ym2612"
    },
    {
      "channel": 0,
      "note": 87,
      "start": 40.8365,
      "duration": 0.0988,
      "velocity": 119,
      "chip": "ym2612"
    },
    {
      "channel": 1,
      "note": 77,
      "start": 40.8368,
      "duration": 0.0988,
      "velocity": 119,
      "chip": "ym2612"
    },
    {
      "channel": 4,
      "note": 51,
      "start": 40.8372,
      "duration": 0.1979,
      "velocity": 105,
      "chip": "ym2612"
    },
    {
      "channel": 0,
      "note": 75,
      "start": 40.9355,
      "duration": 0.099,
      "velocity": 119,
      "chip": "ym2612"
    },
    {
      "channel": 1,
      "note": 88,
      "start": 40.9358,
      "duration": 0.099,
      "velocity": 119,
      "chip": "ym2612"
    },
    {
      "channel": 0,
      "note": 86,
      "start": 41.0346,
      "duration": 0.038,
      "velocity": 119,
      "chip": "ym2612"
    },
    {
      "channel": 1,
      "note": 76,
      "start": 41.0349,
      "duration": 0.038,
      "velocity": 119,
      "chip": "ym2612"
    },
    {
      "channel": 4,
      "note": 51,
      "start": 41.0354,
      "duration": 0.137,
      "velocity": 105,
      "chip": "ym2612"
    },
    {
      "channel": 0,
      "note": 74,
      "start": 41.0727,
      "duration": 0.099,
      "velocity": 119,
      "chip": "ym2612"
    },
    {
      "channel": 1,
      "note": 87,
      "start": 41.073,
      "duration": 0.099,
      "velocity": 119,
      "chip": "ym2612"
    },
    {
      "channel": 0,
      "note": 85,
      "start": 41.1719,
      "duration": 0.099,
      "velocity": 119,
      "chip": "ym2612"
    },
    {
      "channel": 1,
      "note": 75,
      "start": 41.1721,
      "duration": 0.099,
      "velocity": 119,
      "chip": "ym2612"
    },
    {
      "channel": 4,
      "note": 51,
      "start": 41.1727,
      "duration": 0.1979,
      "velocity": 105,
      "chip": "ym2612"
    },
    {
      "channel": 0,
      "note": 73,
      "start": 41.271,
      "duration": 0.099,
      "velocity": 119,
      "chip": "ym2612"
    },
    {
      "channel": 1,
      "note": 86,
      "start": 41.2712,
      "duration": 0.099,
      "velocity": 119,
      "chip": "ym2612"
    },
    {
      "channel": 0,
      "note": 84,
      "start": 41.3701,
      "duration": 0.099,
      "velocity": 119,
      "chip": "ym2612"
    },
    {
      "channel": 1,
      "note": 74,
      "start": 41.3703,
      "duration": 0.099,
      "velocity": 119,
      "chip": "ym2612"
    },
    {
      "channel": 4,
      "note": 51,
      "start": 41.3707,
      "duration": 0.1981,
      "velocity": 105,
      "chip": "ym2612"
    },
    {
      "channel": 0,
      "note": 72,
      "start": 41.4692,
      "duration": 0.099,
      "velocity": 119,
      "chip": "ym2612"
    },
    {
      "channel": 1,
      "note": 85,
      "start": 41.4695,
      "duration": 0.099,
      "velocity": 119,
      "chip": "ym2612"
    },
    {
      "channel": 0,
      "note": 83,
      "start": 41.5683,
      "duration": 0.0379,
      "velocity": 119,
      "chip": "ym2612"
    },
    {
      "channel": 1,
      "note": 73,
      "start": 41.5686,
      "duration": 0.0379,
      "velocity": 119,
      "chip": "ym2612"
    },
    {
      "channel": 4,
      "note": 51,
      "start": 41.569,
      "duration": 0.1383,
      "velocity": 105,
      "chip": "ym2612"
    },
    {
      "channel": 0,
      "note": 71,
      "start": 41.6064,
      "duration": 0.0994,
      "velocity": 119,
      "chip": "ym2612"
    },
    {
      "channel": 1,
      "note": 84,
      "start": 41.6067,
      "duration": 0.0994,
      "velocity": 119,
      "chip": "ym2612"
    },
    {
      "channel": 0,
      "note": 94,
      "start": 41.706,
      "duration": 39.2818,
      "velocity": 119,
      "chip": "ym2612"
    },
    {
      "channel": 1,
      "note": 72,
      "start": 41.7063,
      "duration": 39.2816,
      "velocity": 119,
      "chip": "ym2612"
    },
    {
      "channel": 2,
      "note": 75,
      "start": 41.7067,
      "duration": 39.2811,
      "velocity": 98,
      "chip": "ym2612"
    },
    {
      "channel": 3,
      "note": 70,
      "start": 41.7072,
      "duration": 39.2807,
      "velocity": 98,
      "chip": "ym2612"
    },
    {
      "channel": 4,
      "note": 51,
      "start": 41.7076,
      "duration": 39.2802,
      "velocity": 105,
      "chip": "ym2612"
    }
  ]
}