{
  "track_name": "45 - Jungle Jingle",
  "duration_sec": 69.04,
  "sample_rate": 44100,
  "note_count": 527,
  "unique_pitches": 36,
  "pitch_range": 49,
  "avg_note_duration": 0.0788,
  "reconstruction_stats": {
    "notes_reconstructed": 527,
    "keyon_events": 527,
    "keyoff_events": 527,
    "orphan_keyons": 0,
    "unique_pitches": 36,
    "pitch_range": 49,
    "avg_duration_sec": 0.0788
  },
  "metadata": {
    "source": "P\\Pier Solar and the Great Architects\\45 - Jungle Jingle.vgz"
  },
  "notes": [
    {
      "channel": 0,
      "note": 60,
      "start": 2.8235,
      "duration": 0.0333,
      "velocity": 85,
      "chip": "ym2612"
    },
    {
      "channel": 1,
      "note": 84,
      "start": 2.8249,
      "duration": 0.0321,
      "velocity": 85,
      "chip": "ym2612"
    },
    {
      "channel": 2,
      "note": 58,
      "start": 2.8251,
      "duration": 0.0321,
      "velocity": 100,
      "chip": "ym2612"
    },
    {
      "channel": 0,
      "note": 55,
      "start": 2.8569,
      "duration": 0.0309,
      "velocity": 85,
      "chip": "ym2612"
    },
    {
      "channel": 1,
      "note": 79,
      "start": 2.8571,
      "duration": 0.0309,
      "velocity": 85,
      "chip": "ym2612"
    },
    {
      "channel": 0,
      "note": 58,
      "start": 2.888,
      "duration": 0.0384,
      "velocity": 85,
      "chip": "ym2612"
    },
    {
      "channel": 1,
      "note": 82,
      "start": 2.8882,
      "duration": 0.0384,
      "velocity": 85,
      "chip": "ym2612"
    },
    {
      "channel": 2,
      "note": 60,
      "start": 2.8885,
      "duration": 0.0383,
      "velocity": 100,
      "chip": "ym2612"
    },
    {
      "channel": 0,
      "note": 67,
      "start": 2.9265,
      "duration": 0.1483,
      "velocity": 85,
      "chip": "ym2612"
    },
    {
      "channel": 1,
      "note": 91,
      "start": 2.9267,
      "duration": 0.1481,
      "velocity": 85,
      "chip": "ym2612"
    },
    {
      "channel": 2,
      "note": 58,
      "start": 3.0751,
      "duration": 0.0353,
      "velocity": 100,
      "chip": "ym2612"
    },
    {
      "channel": 0,
      "note": 66,
      "start": 3.1101,
      "duration": 0.147,
      "velocity": 85,
      "chip": "ym2612"
    },
    {
      "channel": 1,
      "note": 90,
      "start": 3.1104,
      "duration": 0.1469,
      "velocity": 85,
      "chip": "ym2612"
    },
    {
      "channel": 0,
      "note": 67,
      "start": 3.2572,
      "duration": 0.041,
      "velocity": 85,
      "chip": "ym2612"
    },
    {
      "channel": 1,
      "note": 91,
      "start": 3.2575,
      "duration": 0.041,
      "velocity": 85,
      "chip": "ym2612"
    },
    {
      "channel": 2,
      "note": 60,
      "start": 3.2577,
      "duration": 0.0409,
      "velocity": 100,
      "chip": "ym2612"
    },
    {
      "channel": 0,
      "note": 63,
      "start": 3.2983,
      "duration": 0.14,
      "velocity": 85,
      "chip": "ym2612"
    },
    {
      "channel": 1,
      "note": 87,
      "start": 3.2986,
      "duration": 0.14,
      "velocity": 85,
      "chip": "ym2612"
    },
    {
      "channel": 0,
      "note": 68,
      "start": 3.4384,
      "duration": 0.0351,
      "velocity": 85,
      "chip": "ym2612"
    },
    {
      "channel": 1,
      "note": 92,
      "start": 3.4387,
      "duration": 0.0351,
      "velocity": 85,
      "chip": "ym2612"
    },
    {
      "channel": 2,
      "note": 58,
      "start": 3.4389,
      "duration": 0.035,
      "velocity": 100,
      "chip": "ym2612"
    },
    {
      "channel": 0,
      "note": 66,
      "start": 3.4737,
      "duration": 0.1469,
      "velocity": 85,
      "chip": "ym2612"
    },
    {
      "channel": 1,
      "note": 90,
      "start": 3.4739,
      "duration": 0.1469,
      "velocity": 85,
      "chip": "ym2612"
    },
    {
      "channel": 0,
      "note": 67,
      "start": 3.6207,
      "duration": 0.0409,
      "velocity": 85,
      "chip": "ym2612"
    },
    {
      "channel": 1,
      "note": 91,
      "start": 3.621,
      "duration": 0.0409,
      "velocity": 85,
      "chip": "ym2612"
    },
    {
      "channel": 2,
      "note": 60,
      "start": 3.6212,
      "duration": 0.0409,
      "velocity": 100,
      "chip": "ym2612"
    },
    {
      "channel": 0,
      "note": 65,
      "start": 3.6618,
      "duration": 0.1399,
      "velocity": 85,
      "chip": "ym2612"
    },
    {
      "channel": 1,
      "note": 89,
      "start": 3.662,
      "duration": 0.1398,
      "velocity": 85,
      "chip": "ym2612"
    },
    {
      "channel": 2,
      "note": 58,
      "start": 3.8021,
      "duration": 0.0353,
      "velocity": 100,
      "chip": "ym2612"
    },
    {
      "channel": 0,
      "note": 67,
      "start": 3.8371,
      "duration": 0.1469,
      "velocity": 85,
      "chip": "ym2612"
    },
    {
      "channel": 1,
      "note": 91,
      "start": 3.8373,
      "duration": 0.147,
      "velocity": 85,
      "chip": "ym2612"
    },
    {
      "channel": 0,
      "note": 66,
      "start": 3.9841,
      "duration": 0.0409,
      "velocity": 85,
      "chip": "ym2612"
    },
    {
      "channel": 1,
      "note": 90,
      "start": 3.9844,
      "duration": 0.0409,
      "velocity": 85,
      "chip": "ym2612"
    },
    {
      "channel": 2,
      "note": 60,
      "start": 3.9846,
      "duration": 0.0408,
      "velocity": 100,
      "chip": "ym2612"
    },
    {
      "channel": 0,
      "note": 67,
      "start": 4.0251,
      "duration": 0.14,
      "velocity": 85,
      "chip": "ym2612"
    },
    {
      "channel": 1,
      "note": 91,
      "start": 4.0254,
      "duration": 0.14,
      "velocity": 85,
      "chip": "ym2612"
    },
    {
      "channel": 0,
      "note": 70,
      "start": 4.1653,
      "duration": 0.0418,
      "velocity": 85,
      "chip": "ym2612"
    },
    {
      "channel": 1,
      "note": 94,
      "start": 4.1655,
      "duration": 0.0417,
      "velocity": 85,
      "chip": "ym2612"
    },
    {
      "channel": 2,
      "note": 58,
      "start": 4.1658,
      "duration": 0.0415,
      "velocity": 100,
      "chip": "ym2612"
    },
    {
      "channel": 0,
      "note": 66,
      "start": 4.3447,
      "duration": 0.041,
      "velocity": 85,
      "chip": "ym2612"
    },
    {
      "channel": 1,
      "note": 90,
      "start": 4.345,
      "duration": 0.041,
      "velocity": 85,
      "chip": "ym2612"
    },
    {
      "channel": 2,
      "note": 60,
      "start": 4.3452,
      "duration": 0.041,
      "velocity": 100,
      "chip": "ym2612"
    },
    {
      "channel": 0,
      "note": 67,
      "start": 4.3859,
      "duration": 0.1304,
      "velocity": 85,
      "chip": "ym2612"
    },
    {
      "channel": 1,
      "note": 91,
      "start": 4.3861,
      "duration": 0.1302,
      "velocity": 85,
      "chip": "ym2612"
    },
    {
      "channel": 2,
      "note": 55,
      "start": 4.3863,
      "duration": 0.1301,
      "velocity": 100,
      "chip": "ym2612"
    },
    {
      "channel": 2,
      "note": 58,
      "start": 4.5166,
      "duration": 0.0419,
      "velocity": 100,
      "chip": "ym2612"
    },
    {
      "channel": 0,
      "note": 66,
      "start": 4.5582,
      "duration": 0.1375,
      "velocity": 85,
      "chip": "ym2612"
    },
    {
      "channel": 1,
      "note": 90,
      "start": 4.5585,
      "duration": 0.1375,
      "velocity": 85,
      "chip": "ym2612"
    },
    {
      "channel": 0,
      "note": 67,
      "start": 4.6959,
      "duration": 0.0408,
      "velocity": 85,
      "chip": "ym2612"
    },
    {
      "channel": 1,
      "note": 91,
      "start": 4.6961,
      "duration": 0.0406,
      "velocity": 85,
      "chip": "ym2612"
    },
    {
      "channel": 2,
      "note": 60,
      "start": 4.6963,
      "duration": 0.0405,
      "velocity": 100,
      "chip": "ym2612"
    },
    {
      "channel": 0,
      "note": 70,
      "start": 4.8675,
      "duration": 0.0417,
      "velocity": 85,
      "chip": "ym2612"
    },
    {
      "channel": 1,
      "note": 94,
      "start": 4.8678,
      "duration": 0.0417,
      "velocity": 85,
      "chip": "ym2612"
    },
    {
      "channel": 2,
      "note": 58,
      "start": 4.868,
      "duration": 0.0417,
      "velocity": 100,
      "chip": "ym2612"
    },
    {
      "channel": 0,
      "note": 67,
      "start": 4.9094,
      "duration": 0.1375,
      "velocity": 85,
      "chip": "ym2612"
    },
    {
      "channel": 1,
      "note": 91,
      "start": 4.9096,
      "duration": 0.1375,
      "velocity": 85,
      "chip": "ym2612"
    },
    {
      "channel": 0,
      "note": 65,
      "start": 5.0471,
      "duration": 0.041,
      "velocity": 85,
      "chip": "ym2612"
    },
    {
      "channel": 1,
      "note": 89,
      "start": 5.0473,
      "duration": 0.041,
      "velocity": 85,
      "chip": "ym2612"
    },
    {
      "channel": 2,
      "note": 60,
      "start": 5.0476,
      "duration": 0.041,
      "velocity": 100,
      "chip": "ym2612"
    },
    {
      "channel": 0,
      "note": 67,
      "start": 5.0882,
      "duration": 0.1305,
      "velocity": 85,
      "chip": "ym2612"
    },
    {
      "channel": 1,
      "note": 91,
      "start": 5.0884,
      "duration": 0.1304,
      "velocity": 85,
      "chip": "ym2612"
    },
    {
      "channel": 2,
      "note": 55,
      "start": 5.0887,
      "duration": 0.1303,
      "velocity": 100,
      "chip": "ym2612"
    },
    {
      "channel": 2,
      "note": 58,
      "start": 5.2191,
      "duration": 0.042,
      "velocity": 100,
      "chip": "ym2612"
    },
    {
      "channel": 0,
      "note": 66,
      "start": 5.2608,
      "duration": 0.1374,
      "velocity": 85,
      "chip": "ym2612"
    },
    {
      "channel": 1,
      "note": 90,
      "start": 5.261,
      "duration": 0.1374,
      "velocity": 85,
      "chip": "ym2612"
    },
    {
      "channel": 0,
      "note": 65,
      "start": 5.3983,
      "duration": 0.0409,
      "velocity": 85,
      "chip": "ym2612"
    },
    {
      "channel": 1,
      "note": 89,
      "start": 5.3985,
      "duration": 0.0409,
      "velocity": 85,
      "chip": "ym2612"
    },
    {
      "channel": 2,
      "note": 60,
      "start": 5.3988,
      "duration": 0.0409,
      "velocity": 100,
      "chip": "ym2612"
    },
    {
      "channel": 0,
      "note": 64,
      "start": 5.4394,
      "duration": 0.0402,
      "velocity": 85,
      "chip": "ym2612"
    },
    {
      "channel": 1,
      "note": 88,
      "start": 5.4396,
      "duration": 0.0402,
      "velocity": 85,
      "chip": "ym2612"
    },
    {
      "channel": 0,
      "note": 60,
      "start": 5.4798,
      "duration": 0.0324,
      "velocity": 85,
      "chip": "ym2612"
    },
    {
      "channel": 1,
      "note": 84,
      "start": 5.48,
      "duration": 0.0324,
      "velocity": 85,
      "chip": "ym2612"
    },
    {
      "channel": 2,
      "note": 58,
      "start": 5.4802,
      "duration": 0.0323,
      "velocity": 100,
      "chip": "ym2612"
    },
    {
      "channel": 0,
      "note": 67,
      "start": 5.5123,
      "duration": 0.0308,
      "velocity": 85,
      "chip": "ym2612"
    },
    {
      "channel": 1,
      "note": 91,
      "start": 5.5125,
      "duration": 0.0308,
      "velocity": 85,
      "chip": "ym2612"
    },
    {
      "channel": 0,
      "note": 65,
      "start": 5.5432,
      "duration": 0.0411,
      "velocity": 85,
      "chip": "ym2612"
    },
    {
      "channel": 1,
      "note": 89,
      "start": 5.5434,
      "duration": 0.0411,
      "velocity": 85,
      "chip": "ym2612"
    },
    {
      "channel": 2,
      "note": 60,
      "start": 5.5437,
      "duration": 0.0411,
      "velocity": 100,
      "chip": "ym2612"
    },
    {
      "channel": 0,
      "note": 66,
      "start": 5.5845,
      "duration": 0.1358,
      "velocity": 85,
      "chip": "ym2612"
    },
    {
      "channel": 1,
      "note": 90,
      "start": 5.5847,
      "duration": 0.1356,
      "velocity": 85,
      "chip": "ym2612"
    },
    {
      "channel": 2,
      "note": 58,
      "start": 5.7206,
      "duration": 0.0354,
      "velocity": 100,
      "chip": "ym2612"
    },
    {
      "channel": 0,
      "note": 65,
      "start": 5.7557,
      "duration": 0.1469,
      "velocity": 85,
      "chip": "ym2612"
    },
    {
      "channel": 1,
      "note": 89,
      "start": 5.7559,
      "duration": 0.1469,
      "velocity": 85,
      "chip": "ym2612"
    },
    {
      "channel": 0,
      "note": 66,
      "start": 5.9028,
      "duration": 0.041,
      "velocity": 85,
      "chip": "ym2612"
    },
    {
      "channel": 1,
      "note": 90,
      "start": 5.903,
      "duration": 0.041,
      "velocity": 85,
      "chip": "ym2612"
    },
    {
      "channel": 2,
      "note": 60,
      "start": 5.9033,
      "duration": 0.041,
      "velocity": 100,
      "chip": "ym2612"
    },
    {
      "channel": 0,
      "note": 65,
      "start": 5.9439,
      "duration": 0.14,
      "velocity": 85,
      "chip": "ym2612"
    },
    {
      "channel": 1,
      "note": 89,
      "start": 5.9442,
      "duration": 0.14,
      "velocity": 85,
      "chip": "ym2612"
    },
    {
      "channel": 0,
      "note": 68,
      "start": 6.084,
      "duration": 0.035,
      "velocity": 85,
      "chip": "ym2612"
    },
    {
      "channel": 1,
      "note": 92,
      "start": 6.0843,
      "duration": 0.035,
      "velocity": 85,
      "chip": "ym2612"
    },
    {
      "channel": 2,
      "note": 58,
      "start": 6.0845,
      "duration": 0.0349,
      "velocity": 100,
      "chip": "ym2612"
    },
    {
      "channel": 0,
      "note": 64,
      "start": 6.1192,
      "duration": 0.1469,
      "velocity": 85,
      "chip": "ym2612"
    },
    {
      "channel": 1,
      "note": 88,
      "start": 6.1194,
      "duration": 0.1469,
      "velocity": 85,
      "chip": "ym2612"
    },
    {
      "channel": 0,
      "note": 65,
      "start": 6.2663,
      "duration": 0.0411,
      "velocity": 85,
      "chip": "ym2612"
    },
    {
      "channel": 1,
      "note": 89,
      "start": 6.2665,
      "duration": 0.0411,
      "velocity": 85,
      "chip": "ym2612"
    },
    {
      "channel": 2,
      "note": 60,
      "start": 6.2668,
      "duration": 0.041,
      "velocity": 100,
      "chip": "ym2612"
    },
    {
      "channel": 0,
      "note": 64,
      "start": 6.3075,
      "duration": 0.1399,
      "velocity": 85,
      "chip": "ym2612"
    },
    {
      "channel": 1,
      "note": 88,
      "start": 6.3077,
      "duration": 0.1398,
      "velocity": 85,
      "chip": "ym2612"
    },
    {
      "channel": 2,
      "note": 58,
      "start": 6.4478,
      "duration": 0.0353,
      "velocity": 100,
      "chip": "ym2612"
    },
    {
      "channel": 0,
      "note": 64,
      "start": 6.4827,
      "duration": 0.1469,
      "velocity": 85,
      "chip": "ym2612"
    },
    {
      "channel": 1,
      "note": 88,
      "start": 6.483,
      "duration": 0.1469,
      "velocity": 85,
      "chip": "ym2612"
    },
    {
      "channel": 0,
      "note": 63,
      "start": 6.6298,
      "duration": 0.041,
      "velocity": 85,
      "chip": "ym2612"
    },
    {
      "channel": 1,
      "note": 87,
      "start": 6.63,
      "duration": 0.041,
      "velocity": 85,
      "chip": "ym2612"
    },
    {
      "channel": 2,
      "note": 60,
      "start": 6.6303,
      "duration": 0.041,
      "velocity": 100,
      "chip": "ym2612"
    },
    {
      "channel": 0,
      "note": 62,
      "start": 6.6709,
      "duration": 0.14,
      "velocity": 85,
      "chip": "ym2612"
    },
    {
      "channel": 1,
      "note": 86,
      "start": 6.6712,
      "duration": 0.14,
      "velocity": 85,
      "chip": "ym2612"
    },
    {
      "channel": 0,
      "note": 60,
      "start": 6.8111,
      "duration": 0.0417,
      "velocity": 85,
      "chip": "ym2612"
    },
    {
      "channel": 1,
      "note": 84,
      "start": 6.8113,
      "duration": 0.0417,
      "velocity": 85,
      "chip": "ym2612"
    },
    {
      "channel": 2,
      "note": 58,
      "start": 6.8116,
      "duration": 0.0417,
      "velocity": 100,
      "chip": "ym2612"
    },
    {
      "channel": 0,
      "note": 63,
      "start": 6.8529,
      "duration": 0.1374,
      "velocity": 85,
      "chip": "ym2612"
    },
    {
      "channel": 1,
      "note": 87,
      "start": 6.8532,
      "duration": 0.1374,
      "velocity": 85,
      "chip": "ym2612"
    },
    {
      "channel": 0,
      "note": 67,
      "start": 6.9905,
      "duration": 0.041,
      "velocity": 85,
      "chip": "ym2612"
    },
    {
      "channel": 1,
      "note": 91,
      "start": 6.9907,
      "duration": 0.041,
      "velocity": 85,
      "chip": "ym2612"
    },
    {
      "channel": 2,
      "note": 60,
      "start": 6.991,
      "duration": 0.041,
      "velocity": 100,
      "chip": "ym2612"
    },
    {
      "channel": 0,
      "note": 72,
      "start": 7.0316,
      "duration": 0.1304,
      "velocity": 85,
      "chip": "ym2612"
    },
    {
      "channel": 1,
      "note": 96,
      "start": 7.0318,
      "duration": 0.1302,
      "velocity": 85,
      "chip": "ym2612"
    },
    {
      "channel": 2,
      "note": 55,
      "start": 7.0321,
      "duration": 0.1301,
      "velocity": 100,
      "chip": "ym2612"
    },
    {
      "channel": 2,
      "note": 58,
      "start": 7.1624,
      "duration": 0.0418,
      "velocity": 100,
      "chip": "ym2612"
    },
    {
      "channel": 0,
      "note": 67,
      "start": 7.2039,
      "duration": 0.1376,
      "velocity": 85,
      "chip": "ym2612"
    },
    {
      "channel": 1,
      "note": 91,
      "start": 7.2041,
      "duration": 0.1376,
      "velocity": 85,
      "chip": "ym2612"
    },
    {
      "channel": 0,
      "note": 72,
      "start": 7.3416,
      "duration": 0.041,
      "velocity": 85,
      "chip": "ym2612"
    },
    {
      "channel": 1,
      "note": 96,
      "start": 7.3419,
      "duration": 0.041,
      "velocity": 85,
      "chip": "ym2612"
    },
    {
      "channel": 2,
      "note": 60,
      "start": 7.3421,
      "duration": 0.041,
      "velocity": 100,
      "chip": "ym2612"
    },
    {
      "channel": 0,
      "note": 69,
      "start": 7.3828,
      "duration": 0.1304,
      "velocity": 85,
      "chip": "ym2612"
    },
    {
      "channel": 1,
      "note": 93,
      "start": 7.383,
      "duration": 0.1304,
      "velocity": 85,
      "chip": "ym2612"
    },
    {
      "channel": 0,
      "note": 71,
      "start": 7.5133,
      "duration": 0.0419,
      "velocity": 85,
      "chip": "ym2612"
    },
    {
      "channel": 1,
      "note": 95,
      "start": 7.5136,
      "duration": 0.0419,
      "velocity": 85,
      "chip": "ym2612"
    },
    {
      "channel": 2,
      "note": 58,
      "start": 7.5138,
      "duration": 0.0418,
      "velocity": 100,
      "chip": "ym2612"
    },
    {
      "channel": 0,
      "note": 70,
      "start": 7.5553,
      "duration": 0.1375,
      "velocity": 85,
      "chip": "ym2612"
    },
    {
      "channel": 1,
      "note": 94,
      "start": 7.5556,
      "duration": 0.1375,
      "velocity": 85,
      "chip": "ym2612"
    },
    {
      "channel": 0,
      "note": 68,
      "start": 7.693,
      "duration": 0.0409,
      "velocity": 85,
      "chip": "ym2612"
    },
    {
      "channel": 1,
      "note": 92,
      "start": 7.6933,
      "duration": 0.0409,
      "velocity": 85,
      "chip": "ym2612"
    },
    {
      "channel": 2,
      "note": 60,
      "start": 7.6935,
      "duration": 0.0409,
      "velocity": 100,
      "chip": "ym2612"
    },
    {
      "channel": 0,
      "note": 70,
      "start": 7.734,
      "duration": 0.1306,
      "velocity": 85,
      "chip": "ym2612"
    },
    {
      "channel": 1,
      "note": 94,
      "start": 7.7343,
      "duration": 0.1304,
      "velocity": 85,
      "chip": "ym2612"
    },
    {
      "channel": 2,
      "note": 55,
      "start": 7.7345,
      "duration": 0.1303,
      "velocity": 100,
      "chip": "ym2612"
    },
    {
      "channel": 2,
      "note": 58,
      "start": 7.8649,
      "duration": 0.0421,
      "velocity": 100,
      "chip": "ym2612"
    },
    {
      "channel": 0,
      "note": 68,
      "start": 7.9067,
      "duration": 0.1374,
      "velocity": 85,
      "chip": "ym2612"
    },
    {
      "channel": 1,
      "note": 92,
      "start": 7.9069,
      "duration": 0.1374,
      "velocity": 85,
      "chip": "ym2612"
    },
    {
      "channel": 0,
      "note": 67,
      "start": 8.0442,
      "duration": 0.041,
      "velocity": 85,
      "chip": "ym2612"
    },
    {
      "channel": 1,
      "note": 91,
      "start": 8.0445,
      "duration": 0.041,
      "velocity": 85,
      "chip": "ym2612"
    },
    {
      "channel": 2,
      "note": 63,
      "start": 8.0447,
      "duration": 0.041,
      "velocity": 100,
      "chip": "ym2612"
    },
    {
      "channel": 0,
      "note": 63,
      "start": 8.0854,
      "duration": 0.0403,
      "velocity": 85,
      "chip": "ym2612"
    },
    {
      "channel": 1,
      "note": 87,
      "start": 8.0856,
      "duration": 0.0403,
      "velocity": 85,
      "chip": "ym2612"
    },
    {
      "channel": 2,
      "note": 65,
      "start": 8.0859,
      "duration": 0.0415,
      "velocity": 100,
      "chip": "ym2612"
    },
    {
      "channel": 0,
      "note": 60,
      "start": 8.1258,
      "duration": 0.0396,
      "velocity": 85,
      "chip": "ym2612"
    },
    {
      "channel": 1,
      "note": 79,
      "start": 8.1272,
      "duration": 0.0383,
      "velocity": 104,
      "chip": "ym2612"
    },
    {
      "channel": 2,
      "note": 58,
      "start": 8.1275,
      "duration": 0.0382,
      "velocity": 100,
      "chip": "ym2612"
    },
    {
      "channel": 4,
      "note": 79,
      "start": 8.1449,
      "duration": 0.0386,
      "velocity": 104,
      "chip": "ym2612"
    },
    {
      "channel": 1,
      "note": 79,
      "start": 8.1657,
      "duration": 0.1491,
      "velocity": 104,
      "chip": "ym2612"
    },
    {
      "channel": 4,
      "note": 79,
      "start": 8.1837,
      "duration": 0.1476,
      "velocity": 104,
      "chip": "ym2612"
    },
    {
      "channel": 1,
      "note": 79,
      "start": 8.3149,
      "duration": 0.0409,
      "velocity": 104,
      "chip": "ym2612"
    },
    {
      "channel": 2,
      "note": 60,
      "start": 8.3151,
      "duration": 0.0408,
      "velocity": 100,
      "chip": "ym2612"
    },
    {
      "channel": 4,
      "note": 79,
      "start": 8.3314,
      "duration": 0.04,
      "velocity": 104,
      "chip": "ym2612"
    },
    {
      "channel": 1,
      "note": 72,
      "start": 8.3559,
      "duration": 0.1399,
      "velocity": 104,
      "chip": "ym2612"
    },
    {
      "channel": 4,
      "note": 72,
      "start": 8.3715,
      "duration": 0.1407,
      "velocity": 104,
      "chip": "ym2612"
    },
    {
      "channel": 2,
      "note": 58,
      "start": 8.4961,
      "duration": 0.0412,
      "velocity": 100,
      "chip": "ym2612"
    },
    {
      "channel": 1,
      "note": 70,
      "start": 8.6871,
      "duration": 0.041,
      "velocity": 104,
      "chip": "ym2612"
    },
    {
      "channel": 2,
      "note": 60,
      "start": 8.6873,
      "duration": 0.041,
      "velocity": 100,
      "chip": "ym2612"
    },
    {
      "channel": 4,
      "note": 70,
      "start": 8.7037,
      "duration": 0.04,
      "velocity": 104,
      "chip": "ym2612"
    },
    {
      "channel": 1,
      "note": 72,
      "start": 8.7282,
      "duration": 0.14,
      "velocity": 104,
      "chip": "ym2612"
    },
    {
      "channel": 4,
      "note": 72,
      "start": 8.7439,
      "duration": 0.1409,
      "velocity": 104,
      "chip": "ym2612"
    },
    {
      "channel": 1,
      "note": 70,
      "start": 8.8684,
      "duration": 0.0414,
      "velocity": 104,
      "chip": "ym2612"
    },
    {
      "channel": 2,
      "note": 58,
      "start": 8.8686,
      "duration": 0.0413,
      "velocity": 100,
      "chip": "ym2612"
    },
    {
      "channel": 4,
      "note": 70,
      "start": 8.8849,
      "duration": 0.0429,
      "velocity": 104,
      "chip": "ym2612"
    },
    {
      "channel": 1,
      "note": 78,
      "start": 8.9099,
      "duration": 0.1657,
      "velocity": 104,
      "chip": "ym2612"
    },
    {
      "channel": 4,
      "note": 78,
      "start": 8.928,
      "duration": 0.1725,
      "velocity": 104,
      "chip": "ym2612"
    },
    {
      "channel": 2,
      "note": 60,
      "start": 9.0597,
      "duration": 0.0407,
      "velocity": 100,
      "chip": "ym2612"
    },
    {
      "channel": 1,
      "note": 77,
      "start": 9.2409,
      "duration": 0.0412,
      "velocity": 104,
      "chip": "ym2612"
    },
    {
      "channel": 2,
      "note": 58,
      "start": 9.2412,
      "duration": 0.041,
      "velocity": 100,
      "chip": "ym2612"
    },
    {
      "channel": 4,
      "note": 77,
      "start": 9.2575,
      "duration": 0.0426,
      "velocity": 104,
      "chip": "ym2612"
    },
    {
      "channel": 1,
      "note": 76,
      "start": 9.432,
      "duration": 0.0408,
      "velocity": 104,
      "chip": "ym2612"
    },
    {
      "channel": 2,
      "note": 60,
      "start": 9.4323,
      "duration": 0.0406,
      "velocity": 100,
      "chip": "ym2612"
    },
    {
      "channel": 4,
      "note": 76,
      "start": 9.4485,
      "duration": 0.0399,
      "velocity": 104,
      "chip": "ym2612"
    },
    {
      "channel": 0,
      "note": 47,
      "start": 9.6143,
      "duration": 0.04,
      "velocity": 100,
      "chip": "ym2612"
    },
    {
      "channel": 1,
      "note": 72,
      "start": 9.6146,
      "duration": 0.0399,
      "velocity": 104,
      "chip": "ym2612"
    },
    {
      "channel": 2,
      "note": 58,
      "start": 9.6148,
      "duration": 0.0397,
      "velocity": 100,
      "chip": "ym2612"
    },
    {
      "channel": 4,
      "note": 72,
      "start": 9.6311,
      "duration": 0.0412,
      "velocity": 104,
      "chip": "ym2612"
    },
    {
      "channel": 0,
      "note": 47,
      "start": 9.8042,
      "duration": 0.0407,
      "velocity": 100,
      "chip": "ym2612"
    },
    {
      "channel": 2,
      "note": 60,
      "start": 9.8045,
      "duration": 0.0405,
      "velocity": 100,
      "chip": "ym2612"
    },
    {
      "channel": 2,
      "note": 55,
      "start": 9.8452,
      "duration": 0.1405,
      "velocity": 100,
      "chip": "ym2612"
    },
    {
      "channel": 0,
      "note": 47,
      "start": 9.9854,
      "duration": 0.0413,
      "velocity": 100,
      "chip": "ym2612"
    },
    {
      "channel": 1,
      "note": 72,
      "start": 9.9856,
      "duration": 0.0411,
      "velocity": 104,
      "chip": "ym2612"
    },
    {
      "channel": 2,
      "note": 58,
      "start": 9.9859,
      "duration": 0.041,
      "velocity": 100,
      "chip": "ym2612"
    },
    {
      "channel": 4,
      "note": 72,
      "start": 10.0021,
      "duration": 0.0425,
      "velocity": 104,
      "chip": "ym2612"
    },
    {
      "channel": 0,
      "note": 47,
      "start": 10.1766,
      "duration": 0.041,
      "velocity": 100,
      "chip": "ym2612"
    },
    {
      "channel": 1,
      "note": 75,
      "start": 10.1768,
      "duration": 0.0409,
      "velocity": 104,
      "chip": "ym2612"
    },
    {
      "channel": 2,
      "note": 60,
      "start": 10.1771,
      "duration": 0.0408,
      "velocity": 100,
      "chip": "ym2612"
    },
    {
      "channel": 4,
      "note": 75,
      "start": 10.1933,
      "duration": 0.04,
      "velocity": 104,
      "chip": "ym2612"
    },
    {
      "channel": 1,
      "note": 75,
      "start": 10.2178,
      "duration": 0.14,
      "velocity": 104,
      "chip": "ym2612"
    },
    {
      "channel": 4,
      "note": 75,
      "start": 10.2334,
      "duration": 0.141,
      "velocity": 104,
      "chip": "ym2612"
    },
    {
      "channel": 0,
      "note": 47,
      "start": 10.3577,
      "duration": 0.0415,
      "velocity": 100,
      "chip": "ym2612"
    },
    {
      "channel": 1,
      "note": 75,
      "start": 10.358,
      "duration": 0.0413,
      "velocity": 104,
      "chip": "ym2612"
    },
    {
      "channel": 2,
      "note": 58,
      "start": 10.3582,
      "duration": 0.0413,
      "velocity": 100,
      "chip": "ym2612"
    },
    {
      "channel": 4,
      "note": 75,
      "start": 10.3746,
      "duration": 0.0428,
      "velocity": 104,
      "chip": "ym2612"
    },
    {
      "channel": 1,
      "note": 78,
      "start": 10.3994,
      "duration": 0.1905,
      "velocity": 104,
      "chip": "ym2612"
    },
    {
      "channel": 4,
      "note": 78,
      "start": 10.4175,
      "duration": 0.1883,
      "velocity": 104,
      "chip": "ym2612"
    },
    {
      "channel": 0,
      "note": 47,
      "start": 10.549,
      "duration": 0.0408,
      "velocity": 100,
      "chip": "ym2612"
    },
    {
      "channel": 2,
      "note": 60,
      "start": 10.5493,
      "duration": 0.0409,
      "velocity": 100,
      "chip": "ym2612"
    },
    {
      "channel": 1,
      "note": 77,
      "start": 10.5901,
      "duration": 0.1403,
      "velocity": 104,
      "chip": "ym2612"
    },
    {
      "channel": 2,
      "note": 55,
      "start": 10.5903,
      "duration": 0.1403,
      "velocity": 100,
      "chip": "ym2612"
    },
    {
      "channel": 4,
      "note": 77,
      "start": 10.6059,
      "duration": 0.1411,
      "velocity": 104,
      "chip": "ym2612"
    },
    {
      "channel": 0,
      "note": 49,
      "start": 10.7303,
      "duration": 0.0412,
      "velocity": 100,
      "chip": "ym2612"
    },
    {
      "channel": 1,
      "note": 76,
      "start": 10.7306,
      "duration": 0.0587,
      "velocity": 104,
      "chip": "ym2612"
    },
    {
      "channel": 2,
      "note": 58,
      "start": 10.7308,
      "duration": 0.0409,
      "velocity": 100,
      "chip": "ym2612"
    },
    {
      "channel": 4,
      "note": 76,
      "start": 10.7471,
      "duration": 0.1747,
      "velocity": 104,
      "chip": "ym2612"
    },
    {
      "channel": 0,
      "note": 47,
      "start": 10.9214,
      "duration": 0.0409,
      "velocity": 100,
      "chip": "ym2612"
    },
    {
      "channel": 2,
      "note": 60,
      "start": 10.9217,
      "duration": 0.0407,
      "velocity": 100,
      "chip": "ym2612"
    },
    {
      "channel": 1,
      "note": 79,
      "start": 11.0022,
      "duration": 0.04,
      "velocity": 104,
      "chip": "ym2612"
    },
    {
      "channel": 2,
      "note": 58,
      "start": 11.0025,
      "duration": 0.0399,
      "velocity": 100,
      "chip": "ym2612"
    },
    {
      "channel": 4,
      "note": 79,
      "start": 11.0187,
      "duration": 0.0415,
      "velocity": 104,
      "chip": "ym2612"
    },
    {
      "channel": 1,
      "note": 78,
      "start": 11.0423,
      "duration": 0.1495,
      "velocity": 104,
      "chip": "ym2612"
    },
    {
      "channel": 4,
      "note": 78,
      "start": 11.0603,
      "duration": 0.1481,
      "velocity": 104,
      "chip": "ym2612"
    },
    {
      "channel": 1,
      "note": 79,
      "start": 11.192,
      "duration": 0.041,
      "velocity": 104,
      "chip": "ym2612"
    },
    {
      "channel": 2,
      "note": 60,
      "start": 11.1922,
      "duration": 0.041,
      "velocity": 100,
      "chip": "ym2612"
    },
    {
      "channel": 4,
      "note": 79,
      "start": 11.2086,
      "duration": 0.0399,
      "velocity": 104,
      "chip": "ym2612"
    },
    {
      "channel": 1,
      "note": 82,
      "start": 11.2331,
      "duration": 0.1399,
      "velocity": 104,
      "chip": "ym2612"
    },
    {
      "channel": 4,
      "note": 82,
      "start": 11.2487,
      "duration": 0.1408,
      "velocity": 104,
      "chip": "ym2612"
    },
    {
      "channel": 2,
      "note": 58,
      "start": 11.3733,
      "duration": 0.0415,
      "velocity": 100,
      "chip": "ym2612"
    },
    {
      "channel": 1,
      "note": 79,
      "start": 11.5645,
      "duration": 0.041,
      "velocity": 104,
      "chip": "ym2612"
    },
    {
      "channel": 2,
      "note": 60,
      "start": 11.5648,
      "duration": 0.041,
      "velocity": 100,
      "chip": "ym2612"
    },
    {
      "channel": 4,
      "note": 79,
      "start": 11.581,
      "duration": 0.0401,
      "velocity": 104,
      "chip": "ym2612"
    },
    {
      "channel": 1,
      "note": 80,
      "start": 11.6057,
      "duration": 0.14,
      "velocity": 104,
      "chip": "ym2612"
    },
    {
      "channel": 4,
      "note": 80,
      "start": 11.6213,
      "duration": 0.1409,
      "velocity": 104,
      "chip": "ym2612"
    },
    {
      "channel": 1,
      "note": 79,
      "start": 11.7458,
      "duration": 0.0413,
      "velocity": 104,
      "chip": "ym2612"
    },
    {
      "channel": 2,
      "note": 58,
      "start": 11.7461,
      "duration": 0.0413,
      "velocity": 100,
      "chip": "ym2612"
    },
    {
      "channel": 4,
      "note": 79,
      "start": 11.7623,
      "duration": 0.0428,
      "velocity": 104,
      "chip": "ym2612"
    },
    {
      "channel": 1,
      "note": 78,
      "start": 11.7873,
      "duration": 0.1903,
      "velocity": 104,
      "chip": "ym2612"
    },
    {
      "channel": 4,
      "note": 78,
      "start": 11.8053,
      "duration": 0.1877,
      "velocity": 104,
      "chip": "ym2612"
    },
    {
      "channel": 2,
      "note": 60,
      "start": 11.937,
      "duration": 0.0407,
      "velocity": 100,
      "chip": "ym2612"
    },
    {
      "channel": 1,
      "note": 77,
      "start": 12.1183,
      "duration": 0.0414,
      "velocity": 104,
      "chip": "ym2612"
    },
    {
      "channel": 2,
      "note": 58,
      "start": 12.1185,
      "duration": 0.0412,
      "velocity": 100,
      "chip": "ym2612"
    },
    {
      "channel": 4,
      "note": 77,
      "start": 12.1349,
      "duration": 0.0425,
      "velocity": 104,
      "chip": "ym2612"
    },
    {
      "channel": 1,
      "note": 76,
      "start": 12.3095,
      "duration": 0.041,
      "velocity": 104,
      "chip": "ym2612"
    },
    {
      "channel": 2,
      "note": 60,
      "start": 12.3097,
      "duration": 0.0408,
      "velocity": 100,
      "chip": "ym2612"
    },
    {
      "channel": 4,
      "note": 76,
      "start": 12.3261,
      "duration": 0.0398,
      "velocity": 104,
      "chip": "ym2612"
    },
    {
      "channel": 0,
      "note": 47,
      "start": 12.4907,
      "duration": 0.0413,
      "velocity": 100,
      "chip": "ym2612"
    },
    {
      "channel": 1,
      "note": 72,
      "start": 12.4909,
      "duration": 0.0412,
      "velocity": 104,
      "chip": "ym2612"
    },
    {
      "channel": 2,
      "note": 58,
      "start": 12.4912,
      "duration": 0.041,
      "velocity": 100,
      "chip": "ym2612"
    },
    {
      "channel": 4,
      "note": 72,
      "start": 12.5075,
      "duration": 0.0424,
      "velocity": 104,
      "chip": "ym2612"
    },
    {
      "channel": 0,
      "note": 49,
      "start": 12.6818,
      "duration": 0.0408,
      "velocity": 100,
      "chip": "ym2612"
    },
    {
      "channel": 2,
      "note": 60,
      "start": 12.6821,
      "duration": 0.0407,
      "velocity": 100,
      "chip": "ym2612"
    },
    {
      "channel": 2,
      "note": 55,
      "start": 12.7229,
      "duration": 0.1406,
      "velocity": 100,
      "chip": "ym2612"
    },
    {
      "channel": 0,
      "note": 47,
      "start": 12.8632,
      "duration": 0.0415,
      "velocity": 100,
      "chip": "ym2612"
    },
    {
      "channel": 1,
      "note": 72,
      "start": 12.8634,
      "duration": 0.0413,
      "velocity": 104,
      "chip": "ym2612"
    },
    {
      "channel": 2,
      "note": 58,
      "start": 12.8637,
      "duration": 0.0412,
      "velocity": 100,
      "chip": "ym2612"
    },
    {
      "channel": 4,
      "note": 72,
      "start": 12.8801,
      "duration": 0.0425,
      "velocity": 104,
      "chip": "ym2612"
    },
    {
      "channel": 0,
      "note": 49,
      "start": 13.0545,
      "duration": 0.0411,
      "velocity": 100,
      "chip": "ym2612"
    },
    {
      "channel": 1,
      "note": 75,
      "start": 13.0547,
      "duration": 0.041,
      "velocity": 104,
      "chip": "ym2612"
    },
    {
      "channel": 2,
      "note": 60,
      "start": 13.055,
      "duration": 0.0409,
      "velocity": 100,
      "chip": "ym2612"
    },
    {
      "channel": 4,
      "note": 75,
      "start": 13.0712,
      "duration": 0.0401,
      "velocity": 104,
      "chip": "ym2612"
    },
    {
      "channel": 1,
      "note": 75,
      "start": 13.0959,
      "duration": 0.14,
      "velocity": 104,
      "chip": "ym2612"
    },
    {
      "channel": 4,
      "note": 75,
      "start": 13.1115,
      "duration": 0.1409,
      "velocity": 104,
      "chip": "ym2612"
    },
    {
      "channel": 0,
      "note": 47,
      "start": 13.2357,
      "duration": 0.0412,
      "velocity": 100,
      "chip": "ym2612"
    },
    {
      "channel": 1,
      "note": 75,
      "start": 13.2359,
      "duration": 0.0411,
      "velocity": 104,
      "chip": "ym2612"
    },
    {
      "channel": 2,
      "note": 58,
      "start": 13.2362,
      "duration": 0.0411,
      "velocity": 100,
      "chip": "ym2612"
    },
    {
      "channel": 4,
      "note": 75,
      "start": 13.2525,
      "duration": 0.0426,
      "velocity": 104,
      "chip": "ym2612"
    },
    {
      "channel": 1,
      "note": 78,
      "start": 13.2772,
      "duration": 0.1497,
      "velocity": 104,
      "chip": "ym2612"
    },
    {
      "channel": 4,
      "note": 78,
      "start": 13.2953,
      "duration": 0.1481,
      "velocity": 104,
      "chip": "ym2612"
    },
    {
      "channel": 0,
      "note": 49,
      "start": 13.4268,
      "duration": 0.041,
      "velocity": 100,
      "chip": "ym2612"
    },
    {
      "channel": 1,
      "note": 77,
      "start": 13.4271,
      "duration": 0.0409,
      "velocity": 104,
      "chip": "ym2612"
    },
    {
      "channel": 2,
      "note": 60,
      "start": 13.4273,
      "duration": 0.0409,
      "velocity": 100,
      "chip": "ym2612"
    },
    {
      "channel": 4,
      "note": 77,
      "start": 13.4435,
      "duration": 0.0402,
      "velocity": 104,
      "chip": "ym2612"
    },
    {
      "channel": 1,
      "note": 76,
      "start": 13.4681,
      "duration": 0.1813,
      "velocity": 104,
      "chip": "ym2612"
    },
    {
      "channel": 2,
      "note": 55,
      "start": 13.4683,
      "duration": 0.1397,
      "velocity": 100,
      "chip": "ym2612"
    },
    {
      "channel": 4,
      "note": 76,
      "start": 13.4838,
      "duration": 0.1834,
      "velocity": 104,
      "chip": "ym2612"
    },
    {
      "channel": 0,
      "note": 47,
      "start": 13.6079,
      "duration": 0.0415,
      "velocity": 100,
      "chip": "ym2612"
    },
    {
      "channel": 2,
      "note": 58,
      "start": 13.6082,
      "duration": 0.0413,
      "velocity": 100,
      "chip": "ym2612"
    },
    {
      "channel": 0,
      "note": 49,
      "start": 13.7992,
      "duration": 0.0407,
      "velocity": 100,
      "chip": "ym2612"
    },
    {
      "channel": 2,
      "note": 63,
      "start": 13.7995,
      "duration": 0.0406,
      "velocity": 100,
      "chip": "ym2612"
    },
    {
      "channel": 2,
      "note": 65,
      "start": 13.8402,
      "duration": 0.043,
      "velocity": 100,
      "chip": "ym2612"
    },
    {
      "channel": 0,
      "note": 72,
      "start": 13.8817,
      "duration": 0.0355,
      "velocity": 96,
      "chip": "ym2612"
    },
    {
      "channel": 1,
      "note": 60,
      "start": 13.8831,
      "duration": 0.0343,
      "velocity": 105,
      "chip": "ym2612"
    },
    {
      "channel": 2,
      "note": 67,
      "start": 13.8834,
      "duration": 0.0342,
      "velocity": 100,
      "chip": "ym2612"
    },
    {
      "channel": 3,
      "note": 72,
      "start": 13.9011,
      "duration": 0.0326,
      "velocity": 96,
      "chip": "ym2612"
    },
    {
      "channel": 4,
      "note": 60,
      "start": 13.9025,
      "duration": 0.0314,
      "velocity": 105,
      "chip": "ym2612"
    },
    {
      "channel": 0,
      "note": 72,
      "start": 13.9173,
      "duration": 0.0329,
      "velocity": 96,
      "chip": "ym2612"
    },
    {
      "channel": 1,
      "note": 60,
      "start": 13.9176,
      "duration": 0.0329,
      "velocity": 105,
      "chip": "ym2612"
    },
    {
      "channel": 3,
      "note": 72,
      "start": 13.9338,
      "duration": 0.0321,
      "velocity": 96,
      "chip": "ym2612"
    },
    {
      "channel": 4,
      "note": 60,
      "start": 13.9341,
      "duration": 0.0321,
      "velocity": 105,
      "chip": "ym2612"
    },
    {
      "channel": 0,
      "note": 75,
      "start": 13.9504,
      "duration": 0.0389,
      "velocity": 96,
      "chip": "ym2612"
    },
    {
      "channel": 1,
      "note": 63,
      "start": 13.9506,
      "duration": 0.0389,
      "velocity": 105,
      "chip": "ym2612"
    },
    {
      "channel": 2,
      "note": 60,
      "start": 13.9509,
      "duration": 0.0389,
      "velocity": 100,
      "chip": "ym2612"
    },
    {
      "channel": 3,
      "note": 75,
      "start": 13.966,
      "duration": 0.0417,
      "velocity": 96,
      "chip": "ym2612"
    },
    {
      "channel": 4,
      "note": 63,
      "start": 13.9663,
      "duration": 0.0417,
      "velocity": 105,
      "chip": "ym2612"
    },
    {
      "channel": 0,
      "note": 79,
      "start": 13.9894,
      "duration": 0.1432,
      "velocity": 96,
      "chip": "ym2612"
    },
    {
      "channel": 1,
      "note": 67,
      "start": 13.9897,
      "duration": 0.143,
      "velocity": 105,
      "chip": "ym2612"
    },
    {
      "channel": 3,
      "note": 79,
      "start": 14.0078,
      "duration": 0.1403,
      "velocity": 96,
      "chip": "ym2612"
    },
    {
      "channel": 4,
      "note": 67,
      "start": 14.0081,
      "duration": 0.1401,
      "velocity": 105,
      "chip": "ym2612"
    },
    {
      "channel": 2,
      "note": 67,
      "start": 14.133,
      "duration": 0.0353,
      "velocity": 100,
      "chip": "ym2612"
    },
    {
      "channel": 0,
      "note": 75,
      "start": 14.168,
      "duration": 0.1469,
      "velocity": 96,
      "chip": "ym2612"
    },
    {
      "channel": 1,
      "note": 63,
      "start": 14.1682,
      "duration": 0.1469,
      "velocity": 105,
      "chip": "ym2612"
    },
    {
      "channel": 3,
      "note": 75,
      "start": 14.1837,
      "duration": 0.148,
      "velocity": 96,
      "chip": "ym2612"
    },
    {
      "channel": 4,
      "note": 63,
      "start": 14.184,
      "duration": 0.148,
      "velocity": 105,
      "chip": "ym2612"
    },
    {
      "channel": 0,
      "note": 79,
      "start": 14.315,
      "duration": 0.0415,
      "velocity": 96,
      "chip": "ym2612"
    },
    {
      "channel": 1,
      "note": 67,
      "start": 14.3153,
      "duration": 0.0415,
      "velocity": 105,
      "chip": "ym2612"
    },
    {
      "channel": 2,
      "note": 60,
      "start": 14.3155,
      "duration": 0.0415,
      "velocity": 100,
      "chip": "ym2612"
    },
    {
      "channel": 3,
      "note": 79,
      "start": 14.3318,
      "duration": 0.0406,
      "velocity": 96,
      "chip": "ym2612"
    },
    {
      "channel": 4,
      "note": 67,
      "start": 14.3321,
      "duration": 0.0406,
      "velocity": 105,
      "chip": "ym2612"
    },
    {
      "channel": 0,
      "note": 75,
      "start": 14.3567,
      "duration": 0.1395,
      "velocity": 96,
      "chip": "ym2612"
    },
    {
      "channel": 1,
      "note": 63,
      "start": 14.3569,
      "duration": 0.1395,
      "velocity": 105,
      "chip": "ym2612"
    },
    {
      "channel": 3,
      "note": 75,
      "start": 14.3726,
      "duration": 0.1395,
      "velocity": 96,
      "chip": "ym2612"
    },
    {
      "channel": 4,
      "note": 63,
      "start": 14.3728,
      "duration": 0.1395,
      "velocity": 105,
      "chip": "ym2612"
    },
    {
      "channel": 0,
      "note": 80,
      "start": 14.4963,
      "duration": 0.035,
      "velocity": 96,
      "chip": "ym2612"
    },
    {
      "channel": 1,
      "note": 68,
      "start": 14.4965,
      "duration": 0.035,
      "velocity": 105,
      "chip": "ym2612"
    },
    {
      "channel": 2,
      "note": 68,
      "start": 14.4968,
      "duration": 0.035,
      "velocity": 100,
      "chip": "ym2612"
    },
    {
      "channel": 3,
      "note": 80,
      "start": 14.5122,
      "duration": 0.0349,
      "velocity": 96,
      "chip": "ym2612"
    },
    {
      "channel": 4,
      "note": 68,
      "start": 14.5124,
      "duration": 0.0349,
      "velocity": 105,
      "chip": "ym2612"
    },
    {
      "channel": 0,
      "note": 80,
      "start": 14.5315,
      "duration": 0.147,
      "velocity": 96,
      "chip": "ym2612"
    },
    {
      "channel": 1,
      "note": 68,
      "start": 14.5317,
      "duration": 0.147,
      "velocity": 105,
      "chip": "ym2612"
    },
    {
      "channel": 3,
      "note": 80,
      "start": 14.5472,
      "duration": 0.148,
      "velocity": 96,
      "chip": "ym2612"
    },
    {
      "channel": 4,
      "note": 68,
      "start": 14.5474,
      "duration": 0.148,
      "velocity": 105,
      "chip": "ym2612"
    },
    {
      "channel": 0,
      "note": 79,
      "start": 14.6785,
      "duration": 0.0415,
      "velocity": 96,
      "chip": "ym2612"
    },
    {
      "channel": 1,
      "note": 67,
      "start": 14.6788,
      "duration": 0.0415,
      "velocity": 105,
      "chip": "ym2612"
    },
    {
      "channel": 2,
      "note": 60,
      "start": 14.679,
      "duration": 0.0415,
      "velocity": 100,
      "chip": "ym2612"
    },
    {
      "channel": 3,
      "note": 79,
      "start": 14.6953,
      "duration": 0.0407,
      "velocity": 96,
      "chip": "ym2612"
    },
    {
      "channel": 4,
      "note": 67,
      "start": 14.6956,
      "duration": 0.0406,
      "velocity": 105,
      "chip": "ym2612"
    },
    {
      "channel": 0,
      "note": 77,
      "start": 14.7202,
      "duration": 0.1394,
      "velocity": 96,
      "chip": "ym2612"
    },
    {
      "channel": 1,
      "note": 65,
      "start": 14.7204,
      "duration": 0.1392,
      "velocity": 105,
      "chip": "ym2612"
    },
    {
      "channel": 3,
      "note": 77,
      "start": 14.7361,
      "duration": 0.139,
      "velocity": 96,
      "chip": "ym2612"
    },
    {
      "channel": 4,
      "note": 65,
      "start": 14.7363,
      "duration": 0.1388,
      "velocity": 105,
      "chip": "ym2612"
    },
    {
      "channel": 2,
      "note": 65,
      "start": 14.8599,
      "duration": 0.0354,
      "velocity": 100,
      "chip": "ym2612"
    },
    {
      "channel": 0,
      "note": 75,
      "start": 14.895,
      "duration": 0.1469,
      "velocity": 96,
      "chip": "ym2612"
    },
    {
      "channel": 1,
      "note": 63,
      "start": 14.8953,
      "duration": 0.1469,
      "velocity": 105,
      "chip": "ym2612"
    },
    {
      "channel": 3,
      "note": 75,
      "start": 14.9107,
      "duration": 0.1481,
      "velocity": 96,
      "chip": "ym2612"
    },
    {
      "channel": 4,
      "note": 63,
      "start": 14.911,
      "duration": 0.1481,
      "velocity": 105,
      "chip": "ym2612"
    },
    {
      "channel": 0,
      "note": 74,
      "start": 15.0421,
      "duration": 0.0416,
      "velocity": 96,
      "chip": "ym2612"
    },
    {
      "channel": 1,
      "note": 62,
      "start": 15.0424,
      "duration": 0.0416,
      "velocity": 105,
      "chip": "ym2612"
    },
    {
      "channel": 2,
      "note": 60,
      "start": 15.0426,
      "duration": 0.0415,
      "velocity": 100,
      "chip": "ym2612"
    },
    {
      "channel": 3,
      "note": 74,
      "start": 15.059,
      "duration": 0.0405,
      "velocity": 96,
      "chip": "ym2612"
    },
    {
      "channel": 4,
      "note": 62,
      "start": 15.0593,
      "duration": 0.0405,
      "velocity": 105,
      "chip": "ym2612"
    },
    {
      "channel": 0,
      "note": 70,
      "start": 15.0838,
      "duration": 0.1394,
      "velocity": 96,
      "chip": "ym2612"
    },
    {
      "channel": 1,
      "note": 58,
      "start": 15.0841,
      "duration": 0.1394,
      "velocity": 105,
      "chip": "ym2612"
    },
    {
      "channel": 3,
      "note": 70,
      "start": 15.0997,
      "duration": 0.1409,
      "velocity": 96,
      "chip": "ym2612"
    },
    {
      "channel": 4,
      "note": 58,
      "start": 15.0999,
      "duration": 0.1408,
      "velocity": 105,
      "chip": "ym2612"
    },
    {
      "channel": 0,
      "note": 72,
      "start": 15.2234,
      "duration": 0.0418,
      "velocity": 96,
      "chip": "ym2612"
    },
    {
      "channel": 1,
      "note": 60,
      "start": 15.2236,
      "duration": 0.0418,
      "velocity": 105,
      "chip": "ym2612"
    },
    {
      "channel": 2,
      "note": 67,
      "start": 15.2239,
      "duration": 0.0417,
      "velocity": 100,
      "chip": "ym2612"
    },
    {
      "channel": 3,
      "note": 72,
      "start": 15.2407,
      "duration": 0.0412,
      "velocity": 96,
      "chip": "ym2612"
    },
    {
      "channel": 4,
      "note": 60,
      "start": 15.2409,
      "duration": 0.0412,
      "velocity": 105,
      "chip": "ym2612"
    },
    {
      "channel": 0,
      "note": 72,
      "start": 15.2653,
      "duration": 0.1376,
      "velocity": 96,
      "chip": "ym2612"
    },
    {
      "channel": 1,
      "note": 60,
      "start": 15.2655,
      "duration": 0.1376,
      "velocity": 105,
      "chip": "ym2612"
    },
    {
      "channel": 3,
      "note": 72,
      "start": 15.282,
      "duration": 0.1377,
      "velocity": 96,
      "chip": "ym2612"
    },
    {
      "channel": 4,
      "note": 60,
      "start": 15.2823,
      "duration": 0.1377,
      "velocity": 105,
      "chip": "ym2612"
    },
    {
      "channel": 0,
      "note": 75,
      "start": 15.4029,
      "duration": 0.0416,
      "velocity": 96,
      "chip": "ym2612"
    },
    {
      "channel": 1,
      "note": 63,
      "start": 15.4032,
      "duration": 0.0416,
      "velocity": 105,
      "chip": "ym2612"
    },
    {
      "channel": 2,
      "note": 60,
      "start": 15.4034,
      "duration": 0.0416,
      "velocity": 100,
      "chip": "ym2612"
    },
    {
      "channel": 3,
      "note": 75,
      "start": 15.4198,
      "duration": 0.0404,
      "velocity": 96,
      "chip": "ym2612"
    },
    {
      "channel": 4,
      "note": 63,
      "start": 15.4201,
      "duration": 0.0404,
      "velocity": 105,
      "chip": "ym2612"
    },
    {
      "channel": 0,
      "note": 79,
      "start": 15.4447,
      "duration": 0.1299,
      "velocity": 96,
      "chip": "ym2612"
    },
    {
      "channel": 1,
      "note": 67,
      "start": 15.445,
      "duration": 0.1298,
      "velocity": 105,
      "chip": "ym2612"
    },
    {
      "channel": 3,
      "note": 79,
      "start": 15.4604,
      "duration": 0.1311,
      "velocity": 96,
      "chip": "ym2612"
    },
    {
      "channel": 4,
      "note": 67,
      "start": 15.4606,
      "duration": 0.1309,
      "velocity": 105,
      "chip": "ym2612"
    },
    {
      "channel": 2,
      "note": 67,
      "start": 15.575,
      "duration": 0.042,
      "velocity": 100,
      "chip": "ym2612"
    },
    {
      "channel": 0,
      "note": 75,
      "start": 15.6167,
      "duration": 0.1376,
      "velocity": 96,
      "chip": "ym2612"
    },
    {
      "channel": 1,
      "note": 63,
      "start": 15.6169,
      "duration": 0.1376,
      "velocity": 105,
      "chip": "ym2612"
    },
    {
      "channel": 3,
      "note": 75,
      "start": 15.6334,
      "duration": 0.1376,
      "velocity": 96,
      "chip": "ym2612"
    },
    {
      "channel": 4,
      "note": 63,
      "start": 15.6337,
      "duration": 0.1376,
      "velocity": 105,
      "chip": "ym2612"
    },
    {
      "channel": 0,
      "note": 79,
      "start": 15.7544,
      "duration": 0.0414,
      "velocity": 96,
      "chip": "ym2612"
    },
    {
      "channel": 1,
      "note": 67,
      "start": 15.7546,
      "duration": 0.0414,
      "velocity": 105,
      "chip": "ym2612"
    },
    {
      "channel": 2,
      "note": 60,
      "start": 15.7549,
      "duration": 0.0413,
      "velocity": 100,
      "chip": "ym2612"
    },
    {
      "channel": 3,
      "note": 79,
      "start": 15.7711,
      "duration": 0.0403,
      "velocity": 96,
      "chip": "ym2612"
    },
    {
      "channel": 4,
      "note": 67,
      "start": 15.7714,
      "duration": 0.0403,
      "velocity": 105,
      "chip": "ym2612"
    },
    {
      "channel": 0,
      "note": 75,
      "start": 15.7959,
      "duration": 0.13,
      "velocity": 96,
      "chip": "ym2612"
    },
    {
      "channel": 1,
      "note": 63,
      "start": 15.7961,
      "duration": 0.13,
      "velocity": 105,
      "chip": "ym2612"
    },
    {
      "channel": 3,
      "note": 75,
      "start": 15.8116,
      "duration": 0.1317,
      "velocity": 96,
      "chip": "ym2612"
    },
    {
      "channel": 4,
      "note": 63,
      "start": 15.8118,
      "duration": 0.1317,
      "velocity": 105,
      "chip": "ym2612"
    },
    {
      "channel": 0,
      "note": 82,
      "start": 15.9261,
      "duration": 0.0417,
      "velocity": 96,
      "chip": "ym2612"
    },
    {
      "channel": 1,
      "note": 70,
      "start": 15.9263,
      "duration": 0.0415,
      "velocity": 105,
      "chip": "ym2612"
    },
    {
      "channel": 2,
      "note": 68,
      "start": 15.9266,
      "duration": 0.0413,
      "velocity": 100,
      "chip": "ym2612"
    },
    {
      "channel": 3,
      "note": 82,
      "start": 15.9434,
      "duration": 0.0408,
      "velocity": 96,
      "chip": "ym2612"
    },
    {
      "channel": 4,
      "note": 70,
      "start": 15.9437,
      "duration": 0.0406,
      "velocity": 105,
      "chip": "ym2612"
    },
    {
      "channel": 0,
      "note": 84,
      "start": 16.1057,
      "duration": 0.0414,
      "velocity": 96,
      "chip": "ym2612"
    },
    {
      "channel": 1,
      "note": 72,
      "start": 16.1059,
      "duration": 0.0414,
      "velocity": 105,
      "chip": "ym2612"
    },
    {
      "channel": 2,
      "note": 60,
      "start": 16.1062,
      "duration": 0.0413,
      "velocity": 100,
      "chip": "ym2612"
    },
    {
      "channel": 3,
      "note": 84,
      "start": 16.1224,
      "duration": 0.0403,
      "velocity": 96,
      "chip": "ym2612"
    },
    {
      "channel": 4,
      "note": 72,
      "start": 16.1227,
      "duration": 0.0403,
      "velocity": 105,
      "chip": "ym2612"
    },
    {
      "channel": 0,
      "note": 79,
      "start": 16.1472,
      "duration": 0.13,
      "velocity": 96,
      "chip": "ym2612"
    },
    {
      "channel": 1,
      "note": 67,
      "start": 16.1474,
      "duration": 0.1298,
      "velocity": 105,
      "chip": "ym2612"
    },
    {
      "channel": 3,
      "note": 79,
      "start": 16.1628,
      "duration": 0.1312,
      "velocity": 96,
      "chip": "ym2612"
    },
    {
      "channel": 4,
      "note": 67,
      "start": 16.1631,
      "duration": 0.1311,
      "velocity": 105,
      "chip": "ym2612"
    },
    {
      "channel": 2,
      "note": 70,
      "start": 16.2775,
      "duration": 0.0421,
      "velocity": 100,
      "chip": "ym2612"
    },
    {
      "channel": 0,
      "note": 77,
      "start": 16.3193,
      "duration": 0.1374,
      "velocity": 96,
      "chip": "ym2612"
    },
    {
      "channel": 1,
      "note": 65,
      "start": 16.3195,
      "duration": 0.1374,
      "velocity": 105,
      "chip": "ym2612"
    },
    {
      "channel": 3,
      "note": 77,
      "start": 16.3359,
      "duration": 0.1375,
      "velocity": 96,
      "chip": "ym2612"
    },
    {
      "channel": 4,
      "note": 65,
      "start": 16.3361,
      "duration": 0.1375,
      "velocity": 105,
      "chip": "ym2612"
    },
    {
      "channel": 0,
      "note": 75,
      "start": 16.4568,
      "duration": 0.0415,
      "velocity": 96,
      "chip": "ym2612"
    },
    {
      "channel": 1,
      "note": 63,
      "start": 16.4571,
      "duration": 0.0415,
      "velocity": 105,
      "chip": "ym2612"
    },
    {
      "channel": 2,
      "note": 63,
      "start": 16.4573,
      "duration": 0.0415,
      "velocity": 100,
      "chip": "ym2612"
    },
    {
      "channel": 3,
      "note": 75,
      "start": 16.4735,
      "duration": 0.0403,
      "velocity": 96,
      "chip": "ym2612"
    },
    {
      "channel": 4,
      "note": 63,
      "start": 16.4738,
      "duration": 0.0403,
      "velocity": 105,
      "chip": "ym2612"
    },
    {
      "channel": 0,
      "note": 74,
      "start": 16.4985,
      "duration": 0.0407,
      "velocity": 96,
      "chip": "ym2612"
    },
    {
      "channel": 1,
      "note": 62,
      "start": 16.4987,
      "duration": 0.0407,
      "velocity": 105,
      "chip": "ym2612"
    },
    {
      "channel": 3,
      "note": 74,
      "start": 16.514,
      "duration": 0.0421,
      "velocity": 96,
      "chip": "ym2612"
    },
    {
      "channel": 4,
      "note": 62,
      "start": 16.5143,
      "duration": 0.0421,
      "velocity": 105,
      "chip": "ym2612"
    },
    {
      "channel": 0,
      "note": 72,
      "start": 16.5393,
      "duration": 0.033,
      "velocity": 96,
      "chip": "ym2612"
    },
    {
      "channel": 1,
      "note": 60,
      "start": 16.5395,
      "duration": 0.033,
      "velocity": 105,
      "chip": "ym2612"
    },
    {
      "channel": 2,
      "note": 67,
      "start": 16.5398,
      "duration": 0.0329,
      "velocity": 100,
      "chip": "ym2612"
    },
    {
      "channel": 3,
      "note": 72,
      "start": 16.5562,
      "duration": 0.0313,
      "velocity": 96,
      "chip": "ym2612"
    },
    {
      "channel": 4,
      "note": 60,
      "start": 16.5565,
      "duration": 0.0312,
      "velocity": 105,
      "chip": "ym2612"
    },
    {
      "channel": 0,
      "note": 72,
      "start": 16.5724,
      "duration": 0.0313,
      "velocity": 96,
      "chip": "ym2612"
    },
    {
      "channel": 1,
      "note": 60,
      "start": 16.5726,
      "duration": 0.0313,
      "velocity": 105,
      "chip": "ym2612"
    },
    {
      "channel": 3,
      "note": 72,
      "start": 16.5876,
      "duration": 0.0332,
      "velocity": 96,
      "chip": "ym2612"
    },
    {
      "channel": 4,
      "note": 60,
      "start": 16.5879,
      "duration": 0.0331,
      "velocity": 105,
      "chip": "ym2612"
    },
    {
      "channel": 0,
      "note": 77,
      "start": 16.6038,
      "duration": 0.0391,
      "velocity": 96,
      "chip": "ym2612"
    },
    {
      "channel": 1,
      "note": 65,
      "start": 16.6041,
      "duration": 0.0391,
      "velocity": 105,
      "chip": "ym2612"
    },
    {
      "channel": 2,
      "note": 60,
      "start": 16.6043,
      "duration": 0.0391,
      "velocity": 100,
      "chip": "ym2612"
    },
    {
      "channel": 3,
      "note": 77,
      "start": 16.6209,
      "duration": 0.0404,
      "velocity": 96,
      "chip": "ym2612"
    },
    {
      "channel": 4,
      "note": 65,
      "start": 16.6211,
      "duration": 0.0404,
      "velocity": 105,
      "chip": "ym2612"
    },
    {
      "channel": 0,
      "note": 82,
      "start": 16.6431,
      "duration": 0.1468,
      "velocity": 96,
      "chip": "ym2612"
    },
    {
      "channel": 1,
      "note": 70,
      "start": 16.6433,
      "duration": 0.1466,
      "velocity": 105,
      "chip": "ym2612"
    },
    {
      "channel": 3,
      "note": 82,
      "start": 16.6614,
      "duration": 0.1439,
      "velocity": 96,
      "chip": "ym2612"
    },
    {
      "channel": 4,
      "note": 70,
      "start": 16.6617,
      "duration": 0.1438,
      "velocity": 105,
      "chip": "ym2612"
    },
    {
      "channel": 2,
      "note": 67,
      "start": 16.7902,
      "duration": 0.0353,
      "velocity": 100,
      "chip": "ym2612"
    },
    {
      "channel": 0,
      "note": 75,
      "start": 16.8252,
      "duration": 0.147,
      "velocity": 96,
      "chip": "ym2612"
    },
    {
      "channel": 1,
      "note": 63,
      "start": 16.8255,
      "duration": 0.147,
      "velocity": 105,
      "chip": "ym2612"
    },
    {
      "channel": 3,
      "note": 75,
      "start": 16.841,
      "duration": 0.148,
      "velocity": 96,
      "chip": "ym2612"
    },
    {
      "channel": 4,
      "note": 63,
      "start": 16.8412,
      "duration": 0.148,
      "velocity": 105,
      "chip": "ym2612"
    },
    {
      "channel": 0,
      "note": 79,
      "start": 16.9723,
      "duration": 0.0414,
      "velocity": 96,
      "chip": "ym2612"
    },
    {
      "channel": 1,
      "note": 67,
      "start": 16.9726,
      "duration": 0.0414,
      "velocity": 105,
      "chip": "ym2612"
    },
    {
      "channel": 2,
      "note": 60,
      "start": 16.9728,
      "duration": 0.0413,
      "velocity": 100,
      "chip": "ym2612"
    },
    {
      "channel": 3,
      "note": 79,
      "start": 16.9891,
      "duration": 0.0405,
      "velocity": 96,
      "chip": "ym2612"
    },
    {
      "channel": 4,
      "note": 67,
      "start": 16.9894,
      "duration": 0.0405,
      "velocity": 105,
      "chip": "ym2612"
    },
    {
      "channel": 0,
      "note": 75,
      "start": 17.0139,
      "duration": 0.1394,
      "velocity": 96,
      "chip": "ym2612"
    },
    {
      "channel": 1,
      "note": 63,
      "start": 17.0141,
      "duration": 0.1394,
      "velocity": 105,
      "chip": "ym2612"
    },
    {
      "channel": 3,
      "note": 75,
      "start": 17.0298,
      "duration": 0.1395,
      "velocity": 96,
      "chip": "ym2612"
    },
    {
      "channel": 4,
      "note": 63,
      "start": 17.03,
      "duration": 0.1395,
      "velocity": 105,
      "chip": "ym2612"
    },
    {
      "channel": 0,
      "note": 80,
      "start": 17.1534,
      "duration": 0.0351,
      "velocity": 96,
      "chip": "ym2612"
    },
    {
      "channel": 1,
      "note": 68,
      "start": 17.1537,
      "duration": 0.0351,
      "velocity": 105,
      "chip": "ym2612"
    },
    {
      "channel": 2,
      "note": 68,
      "start": 17.1539,
      "duration": 0.0351,
      "velocity": 100,
      "chip": "ym2612"
    },
    {
      "channel": 3,
      "note": 80,
      "start": 17.1693,
      "duration": 0.0349,
      "velocity": 96,
      "chip": "ym2612"
    },
    {
      "channel": 4,
      "note": 68,
      "start": 17.1696,
      "duration": 0.0349,
      "velocity": 105,
      "chip": "ym2612"
    },
    {
      "channel": 0,
      "note": 80,
      "start": 17.1887,
      "duration": 0.1469,
      "velocity": 96,
      "chip": "ym2612"
    },
    {
      "channel": 1,
      "note": 68,
      "start": 17.189,
      "duration": 0.1469,
      "velocity": 105,
      "chip": "ym2612"
    },
    {
      "channel": 3,
      "note": 80,
      "start": 17.2044,
      "duration": 0.1479,
      "velocity": 96,
      "chip": "ym2612"
    },
    {
      "channel": 4,
      "note": 68,
      "start": 17.2047,
      "duration": 0.1479,
      "velocity": 105,
      "chip": "ym2612"
    },
    {
      "channel": 0,
      "note": 79,
      "start": 17.3358,
      "duration": 0.0415,
      "velocity": 96,
      "chip": "ym2612"
    },
    {
      "channel": 1,
      "note": 67,
      "start": 17.336,
      "duration": 0.0415,
      "velocity": 105,
      "chip": "ym2612"
    },
    {
      "channel": 2,
      "note": 60,
      "start": 17.3363,
      "duration": 0.0414,
      "velocity": 100,
      "chip": "ym2612"
    },
    {
      "channel": 3,
      "note": 79,
      "start": 17.3525,
      "duration": 0.0407,
      "velocity": 96,
      "chip": "ym2612"
    },
    {
      "channel": 4,
      "note": 67,
      "start": 17.3527,
      "duration": 0.0406,
      "velocity": 105,
      "chip": "ym2612"
    },
    {
      "channel": 0,
      "note": 77,
      "start": 17.3774,
      "duration": 0.1394,
      "velocity": 96,
      "chip": "ym2612"
    },
    {
      "channel": 1,
      "note": 65,
      "start": 17.3776,
      "duration": 0.1392,
      "velocity": 105,
      "chip": "ym2612"
    },
    {
      "channel": 3,
      "note": 77,
      "start": 17.3933,
      "duration": 0.139,
      "velocity": 96,
      "chip": "ym2612"
    },
    {
      "channel": 4,
      "note": 65,
      "start": 17.3935,
      "duration": 0.1389,
      "velocity": 105,
      "chip": "ym2612"
    },
    {
      "channel": 2,
      "note": 65,
      "start": 17.5171,
      "duration": 0.0353,
      "velocity": 100,
      "chip": "ym2612"
    },
    {
      "channel": 0,
      "note": 75,
      "start": 17.5522,
      "duration": 0.1469,
      "velocity": 96,
      "chip": "ym2612"
    },
    {
      "channel": 1,
      "note": 63,
      "start": 17.5524,
      "duration": 0.1469,
      "velocity": 105,
      "chip": "ym2612"
    },
    {
      "channel": 3,
      "note": 75,
      "start": 17.5678,
      "duration": 0.1481,
      "velocity": 96,
      "chip": "ym2612"
    },
    {
      "channel": 4,
      "note": 63,
      "start": 17.5681,
      "duration": 0.1481,
      "velocity": 105,
      "chip": "ym2612"
    },
    {
      "channel": 0,
      "note": 74,
      "start": 17.6992,
      "duration": 0.0416,
      "velocity": 96,
      "chip": "ym2612"
    },
    {
      "channel": 1,
      "note": 62,
      "start": 17.6995,
      "duration": 0.0416,
      "velocity": 105,
      "chip": "ym2612"
    },
    {
      "channel": 2,
      "note": 60,
      "start": 17.6997,
      "duration": 0.0415,
      "velocity": 100,
      "chip": "ym2612"
    },
    {
      "channel": 3,
      "note": 74,
      "start": 17.7161,
      "duration": 0.0405,
      "velocity": 96,
      "chip": "ym2612"
    },
    {
      "channel": 4,
      "note": 62,
      "start": 17.7164,
      "duration": 0.0405,
      "velocity": 105,
      "chip": "ym2612"
    },
    {
      "channel": 0,
      "note": 70,
      "start": 17.7409,
      "duration": 0.1394,
      "velocity": 96,
      "chip": "ym2612"
    },
    {
      "channel": 1,
      "note": 58,
      "start": 17.7412,
      "duration": 0.1394,
      "velocity": 105,
      "chip": "ym2612"
    },
    {
      "channel": 3,
      "note": 70,
      "start": 17.7568,
      "duration": 0.1407,
      "velocity": 96,
      "chip": "ym2612"
    },
    {
      "channel": 4,
      "note": 58,
      "start": 17.7571,
      "duration": 0.1407,
      "velocity": 105,
      "chip": "ym2612"
    },
    {
      "channel": 0,
      "note": 72,
      "start": 17.8805,
      "duration": 0.0417,
      "velocity": 96,
      "chip": "ym2612"
    },
    {
      "channel": 1,
      "note": 60,
      "start": 17.8807,
      "duration": 0.0417,
      "velocity": 105,
      "chip": "ym2612"
    },
    {
      "channel": 2,
      "note": 67,
      "start": 17.881,
      "duration": 0.0416,
      "velocity": 100,
      "chip": "ym2612"
    },
    {
      "channel": 3,
      "note": 72,
      "start": 17.8976,
      "duration": 0.0411,
      "velocity": 96,
      "chip": "ym2612"
    },
    {
      "channel": 4,
      "note": 60,
      "start": 17.8979,
      "duration": 0.0411,
      "velocity": 105,
      "chip": "ym2612"
    },
    {
      "channel": 0,
      "note": 72,
      "start": 17.9223,
      "duration": 0.1374,
      "velocity": 96,
      "chip": "ym2612"
    },
    {
      "channel": 1,
      "note": 60,
      "start": 17.9226,
      "duration": 0.1374,
      "velocity": 105,
      "chip": "ym2612"
    },
    {
      "channel": 3,
      "note": 72,
      "start": 17.9389,
      "duration": 0.1377,
      "velocity": 96,
      "chip": "ym2612"
    },
    {
      "channel": 4,
      "note": 60,
      "start": 17.9392,
      "duration": 0.1376,
      "velocity": 105,
      "chip": "ym2612"
    },
    {
      "channel": 0,
      "note": 79,
      "start": 18.0598,
      "duration": 0.0415,
      "velocity": 96,
      "chip": "ym2612"
    },
    {
      "channel": 1,
      "note": 67,
      "start": 18.0601,
      "duration": 0.0415,
      "velocity": 105,
      "chip": "ym2612"
    },
    {
      "channel": 2,
      "note": 60,
      "start": 18.0603,
      "duration": 0.0415,
      "velocity": 100,
      "chip": "ym2612"
    },
    {
      "channel": 3,
      "note": 79,
      "start": 18.0767,
      "duration": 0.0402,
      "velocity": 96,
      "chip": "ym2612"
    },
    {
      "channel": 4,
      "note": 67,
      "start": 18.0769,
      "duration": 0.0402,
      "velocity": 105,
      "chip": "ym2612"
    },
    {
      "channel": 0,
      "note": 84,
      "start": 18.1015,
      "duration": 0.1298,
      "velocity": 96,
      "chip": "ym2612"
    },
    {
      "channel": 1,
      "note": 72,
      "start": 18.1017,
      "duration": 0.1296,
      "velocity": 105,
      "chip": "ym2612"
    },
    {
      "channel": 3,
      "note": 84,
      "start": 18.117,
      "duration": 0.1311,
      "velocity": 96,
      "chip": "ym2612"
    },
    {
      "channel": 4,
      "note": 72,
      "start": 18.1173,
      "duration": 0.1309,
      "velocity": 105,
      "chip": "ym2612"
    },
    {
      "channel": 2,
      "note": 67,
      "start": 18.2317,
      "duration": 0.042,
      "velocity": 100,
      "chip": "ym2612"
    },
    {
      "channel": 0,
      "note": 75,
      "start": 18.2734,
      "duration": 0.1374,
      "velocity": 96,
      "chip": "ym2612"
    },
    {
      "channel": 1,
      "note": 63,
      "start": 18.2736,
      "duration": 0.1374,
      "velocity": 105,
      "chip": "ym2612"
    },
    {
      "channel": 3,
      "note": 75,
      "start": 18.29,
      "duration": 0.1375,
      "velocity": 96,
      "chip": "ym2612"
    },
    {
      "channel": 4,
      "note": 63,
      "start": 18.2903,
      "duration": 0.1375,
      "velocity": 105,
      "chip": "ym2612"
    },
    {
      "channel": 0,
      "note": 79,
      "start": 18.4109,
      "duration": 0.0415,
      "velocity": 96,
      "chip": "ym2612"
    },
    {
      "channel": 1,
      "note": 67,
      "start": 18.4112,
      "duration": 0.0415,
      "velocity": 105,
      "chip": "ym2612"
    },
    {
      "channel": 2,
      "note": 60,
      "start": 18.4114,
      "duration": 0.0414,
      "velocity": 100,
      "chip": "ym2612"
    },
    {
      "channel": 3,
      "note": 79,
      "start": 18.4277,
      "duration": 0.0404,
      "velocity": 96,
      "chip": "ym2612"
    },
    {
      "channel": 4,
      "note": 67,
      "start": 18.4279,
      "duration": 0.0404,
      "velocity": 105,
      "chip": "ym2612"
    },
    {
      "channel": 0,
      "note": 75,
      "start": 18.4525,
      "duration": 0.13,
      "velocity": 96,
      "chip": "ym2612"
    },
    {
      "channel": 1,
      "note": 63,
      "start": 18.4528,
      "duration": 0.13,
      "velocity": 105,
      "chip": "ym2612"
    },
    {
      "channel": 3,
      "note": 75,
      "start": 18.4682,
      "duration": 0.1316,
      "velocity": 96,
      "chip": "ym2612"
    },
    {
      "channel": 4,
      "note": 63,
      "start": 18.4684,
      "duration": 0.1317,
      "velocity": 105,
      "chip": "ym2612"
    },
    {
      "channel": 0,
      "note": 84,
      "start": 18.5827,
      "duration": 0.0417,
      "velocity": 96,
      "chip": "ym2612"
    },
    {
      "channel": 1,
      "note": 72,
      "start": 18.5829,
      "duration": 0.0415,
      "velocity": 105,
      "chip": "ym2612"
    },
    {
      "channel": 2,
      "note": 68,
      "start": 18.5832,
      "duration": 0.0414,
      "velocity": 100,
      "chip": "ym2612"
    },
    {
      "channel": 3,
      "note": 84,
      "start": 18.6,
      "duration": 0.0407,
      "velocity": 96,
      "chip": "ym2612"
    },
    {
      "channel": 4,
      "note": 72,
      "start": 18.6002,
      "duration": 0.0405,
      "velocity": 105,
      "chip": "ym2612"
    },
    {
      "channel": 0,
      "note": 87,
      "start": 18.7621,
      "duration": 0.0417,
      "velocity": 96,
      "chip": "ym2612"
    },
    {
      "channel": 1,
      "note": 75,
      "start": 18.7624,
      "duration": 0.0417,
      "velocity": 105,
      "chip": "ym2612"
    },
    {
      "channel": 2,
      "note": 60,
      "start": 18.7626,
      "duration": 0.0416,
      "velocity": 100,
      "chip": "ym2612"
    },
    {
      "channel": 3,
      "note": 87,
      "start": 18.779,
      "duration": 0.0403,
      "velocity": 96,
      "chip": "ym2612"
    },
    {
      "channel": 4,
      "note": 75,
      "start": 18.7793,
      "duration": 0.0403,
      "velocity": 105,
      "chip": "ym2612"
    },
    {
      "channel": 0,
      "note": 79,
      "start": 18.8039,
      "duration": 0.1299,
      "velocity": 96,
      "chip": "ym2612"
    },
    {
      "channel": 1,
      "note": 67,
      "start": 18.8042,
      "duration": 0.1297,
      "velocity": 105,
      "chip": "ym2612"
    },
    {
      "channel": 3,
      "note": 79,
      "start": 18.8195,
      "duration": 0.131,
      "velocity": 96,
      "chip": "ym2612"
    },
    {
      "channel": 4,
      "note": 67,
      "start": 18.8198,
      "duration": 0.1308,
      "velocity": 105,
      "chip": "ym2612"
    },
    {
      "channel": 2,
      "note": 70,
      "start": 18.9341,
      "duration": 0.042,
      "velocity": 100,
      "chip": "ym2612"
    },
    {
      "channel": 0,
      "note": 77,
      "start": 18.9758,
      "duration": 0.1376,
      "velocity": 96,
      "chip": "ym2612"
    },
    {
      "channel": 1,
      "note": 65,
      "start": 18.9761,
      "duration": 0.1376,
      "velocity": 105,
      "chip": "ym2612"
    },
    {
      "channel": 3,
      "note": 77,
      "start": 18.9926,
      "duration": 0.1375,
      "velocity": 96,
      "chip": "ym2612"
    },
    {
      "channel": 4,
      "note": 65,
      "start": 18.9929,
      "duration": 0.1375,
      "velocity": 105,
      "chip": "ym2612"
    },
    {
      "channel": 0,
      "note": 75,
      "start": 19.1135,
      "duration": 0.0415,
      "velocity": 96,
      "chip": "ym2612"
    },
    {
      "channel": 1,
      "note": 63,
      "start": 19.1138,
      "duration": 0.0415,
      "velocity": 105,
      "chip": "ym2612"
    },
    {
      "channel": 2,
      "note": 63,
      "start": 19.114,
      "duration": 0.0415,
      "velocity": 100,
      "chip": "ym2612"
    },
    {
      "channel": 3,
      "note": 75,
      "start": 19.1302,
      "duration": 0.0403,
      "velocity": 96,
      "chip": "ym2612"
    },
    {
      "channel": 4,
      "note": 63,
      "start": 19.1305,
      "duration": 0.0403,
      "velocity": 105,
      "chip": "ym2612"
    },
    {
      "channel": 0,
      "note": 74,
      "start": 19.1551,
      "duration": 0.1292,
      "velocity": 96,
      "chip": "ym2612"
    },
    {
      "channel": 1,
      "note": 62,
      "start": 19.1554,
      "duration": 0.1292,
      "velocity": 105,
      "chip": "ym2612"
    },
    {
      "channel": 3,
      "note": 74,
      "start": 19.1707,
      "duration": 0.1304,
      "velocity": 96,
      "chip": "ym2612"
    },
    {
      "channel": 4,
      "note": 62,
      "start": 19.171,
      "duration": 0.1304,
      "velocity": 105,
      "chip": "ym2612"
    },
    {
      "channel": 0,
      "note": 72,
      "start": 19.2845,
      "duration": 0.1373,
      "velocity": 96,
      "chip": "ym2612"
    },
    {
      "channel": 1,
      "note": 60,
      "start": 19.2847,
      "duration": 0.1372,
      "velocity": 105,
      "chip": "ym2612"
    },
    {
      "channel": 2,
      "note": 60,
      "start": 19.285,
      "duration": 0.1371,
      "velocity": 100,
      "chip": "ym2612"
    },
    {
      "channel": 3,
      "note": 72,
      "start": 19.3013,
      "duration": 0.1361,
      "velocity": 96,
      "chip": "ym2612"
    },
    {
      "channel": 4,
      "note": 60,
      "start": 19.3015,
      "duration": 0.1359,
      "velocity": 105,
      "chip": "ym2612"
    },
    {
      "channel": 2,
      "note": 60,
      "start": 19.4222,
      "duration": 0.0311,
      "velocity": 100,
      "chip": "ym2612"
    },
    {
      "channel": 2,
      "note": 60,
      "start": 20.66,
      "duration": 0.1319,
      "velocity": 100,
      "chip": "ym2612"
    },
    {
      "channel": 2,
      "note": 60,
      "start": 20.792,
      "duration": 0.0432,
      "velocity": 100,
      "chip": "ym2612"
    }
  ]
}