{
  "track_name": "46 - Wily's Tower- Light Lab",
  "duration_sec": 13.235,
  "sample_rate": 44100,
  "note_count": 375,
  "unique_pitches": 20,
  "pitch_range": 58,
  "avg_note_duration": 0.1912,
  "reconstruction_stats": {
    "notes_reconstructed": 375,
    "keyon_events": 375,
    "keyoff_events": 370,
    "orphan_keyons": 5,
    "unique_pitches": 20,
    "pitch_range": 58,
    "avg_duration_sec": 0.1912
  },
  "metadata": {
    "source": "M\\Mega Man - The Wily Wars\\46 - Wily's Tower- Light Lab.vgm"
  },
  "notes": [
    {
      "channel": 0,
      "note": 88,
      "start": 0.0,
      "duration": 0.183,
      "velocity": 106,
      "chip": "ym2612"
    },
    {
      "channel": 1,
      "note": 64,
      "start": 0.0027,
      "duration": 0.181,
      "velocity": 101,
      "chip": "ym2612"
    },
    {
      "channel": 2,
      "note": 83,
      "start": 0.0057,
      "duration": 0.1785,
      "velocity": 106,
      "chip": "ym2612"
    },
    {
      "channel": 3,
      "note": 79,
      "start": 0.0088,
      "duration": 0.1761,
      "velocity": 106,
      "chip": "ym2612"
    },
    {
      "channel": 5,
      "note": 32,
      "start": 0.01,
      "duration": 0.1056,
      "velocity": 114,
      "chip": "ym2612"
    },
    {
      "channel": 4,
      "note": 88,
      "start": 0.0849,
      "duration": 0.198,
      "velocity": 106,
      "chip": "ym2612"
    },
    {
      "channel": 0,
      "note": 88,
      "start": 0.1835,
      "duration": 0.097,
      "velocity": 106,
      "chip": "ym2612"
    },
    {
      "channel": 1,
      "note": 64,
      "start": 0.1841,
      "duration": 0.097,
      "velocity": 101,
      "chip": "ym2612"
    },
    {
      "channel": 2,
      "note": 83,
      "start": 0.1847,
      "duration": 0.0969,
      "velocity": 106,
      "chip": "ym2612"
    },
    {
      "channel": 3,
      "note": 79,
      "start": 0.1854,
      "duration": 0.0969,
      "velocity": 106,
      "chip": "ym2612"
    },
    {
      "channel": 5,
      "note": 32,
      "start": 0.1866,
      "duration": 0.129,
      "velocity": 114,
      "chip": "ym2612"
    },
    {
      "channel": 0,
      "note": 88,
      "start": 0.281,
      "duration": 0.102,
      "velocity": 106,
      "chip": "ym2612"
    },
    {
      "channel": 1,
      "note": 64,
      "start": 0.2815,
      "duration": 0.1043,
      "velocity": 101,
      "chip": "ym2612"
    },
    {
      "channel": 2,
      "note": 83,
      "start": 0.2822,
      "duration": 0.1043,
      "velocity": 106,
      "chip": "ym2612"
    },
    {
      "channel": 3,
      "note": 79,
      "start": 0.2828,
      "duration": 0.1043,
      "velocity": 106,
      "chip": "ym2612"
    },
    {
      "channel": 4,
      "note": 88,
      "start": 0.2834,
      "duration": 0.1043,
      "velocity": 106,
      "chip": "ym2612"
    },
    {
      "channel": 0,
      "note": 88,
      "start": 0.3835,
      "duration": 0.1995,
      "velocity": 106,
      "chip": "ym2612"
    },
    {
      "channel": 1,
      "note": 64,
      "start": 0.3863,
      "duration": 0.1973,
      "velocity": 101,
      "chip": "ym2612"
    },
    {
      "channel": 2,
      "note": 83,
      "start": 0.387,
      "duration": 0.1972,
      "velocity": 106,
      "chip": "ym2612"
    },
    {
      "channel": 3,
      "note": 79,
      "start": 0.3876,
      "duration": 0.1972,
      "velocity": 106,
      "chip": "ym2612"
    },
    {
      "channel": 4,
      "note": 88,
      "start": 0.3883,
      "duration": 0.0935,
      "velocity": 106,
      "chip": "ym2612"
    },
    {
      "channel": 5,
      "note": 75,
      "start": 0.389,
      "duration": 0.1914,
      "velocity": 120,
      "chip": "ym2612"
    },
    {
      "channel": 4,
      "note": 88,
      "start": 0.4823,
      "duration": 0.1998,
      "velocity": 106,
      "chip": "ym2612"
    },
    {
      "channel": 0,
      "note": 88,
      "start": 0.5835,
      "duration": 0.1996,
      "velocity": 106,
      "chip": "ym2612"
    },
    {
      "channel": 1,
      "note": 64,
      "start": 0.5841,
      "duration": 0.0968,
      "velocity": 101,
      "chip": "ym2612"
    },
    {
      "channel": 2,
      "note": 83,
      "start": 0.5847,
      "duration": 0.2019,
      "velocity": 106,
      "chip": "ym2612"
    },
    {
      "channel": 3,
      "note": 79,
      "start": 0.5854,
      "duration": 0.2019,
      "velocity": 106,
      "chip": "ym2612"
    },
    {
      "channel": 5,
      "note": 32,
      "start": 0.5866,
      "duration": 0.129,
      "velocity": 114,
      "chip": "ym2612"
    },
    {
      "channel": 1,
      "note": 64,
      "start": 0.6812,
      "duration": 0.1047,
      "velocity": 101,
      "chip": "ym2612"
    },
    {
      "channel": 4,
      "note": 88,
      "start": 0.6825,
      "duration": 0.1993,
      "velocity": 106,
      "chip": "ym2612"
    },
    {
      "channel": 0,
      "note": 88,
      "start": 0.7836,
      "duration": 0.1994,
      "velocity": 106,
      "chip": "ym2612"
    },
    {
      "channel": 1,
      "note": 64,
      "start": 0.7865,
      "duration": 0.1973,
      "velocity": 101,
      "chip": "ym2612"
    },
    {
      "channel": 2,
      "note": 83,
      "start": 0.7871,
      "duration": 0.1973,
      "velocity": 106,
      "chip": "ym2612"
    },
    {
      "channel": 3,
      "note": 79,
      "start": 0.7878,
      "duration": 0.1973,
      "velocity": 106,
      "chip": "ym2612"
    },
    {
      "channel": 5,
      "note": 32,
      "start": 0.789,
      "duration": 0.1266,
      "velocity": 114,
      "chip": "ym2612"
    },
    {
      "channel": 4,
      "note": 88,
      "start": 0.8824,
      "duration": 0.1997,
      "velocity": 106,
      "chip": "ym2612"
    },
    {
      "channel": 0,
      "note": 90,
      "start": 0.9837,
      "duration": 0.1993,
      "velocity": 106,
      "chip": "ym2612"
    },
    {
      "channel": 1,
      "note": 64,
      "start": 0.9843,
      "duration": 0.0965,
      "velocity": 101,
      "chip": "ym2612"
    },
    {
      "channel": 2,
      "note": 83,
      "start": 0.9849,
      "duration": 0.2013,
      "velocity": 106,
      "chip": "ym2612"
    },
    {
      "channel": 3,
      "note": 79,
      "start": 0.9855,
      "duration": 0.201,
      "velocity": 106,
      "chip": "ym2612"
    },
    {
      "channel": 5,
      "note": 32,
      "start": 0.9867,
      "duration": 0.1288,
      "velocity": 114,
      "chip": "ym2612"
    },
    {
      "channel": 1,
      "note": 64,
      "start": 1.0812,
      "duration": 0.1043,
      "velocity": 101,
      "chip": "ym2612"
    },
    {
      "channel": 4,
      "note": 90,
      "start": 1.0827,
      "duration": 0.1983,
      "velocity": 106,
      "chip": "ym2612"
    },
    {
      "channel": 1,
      "note": 64,
      "start": 1.186,
      "duration": 0.1978,
      "velocity": 101,
      "chip": "ym2612"
    },
    {
      "channel": 5,
      "note": 75,
      "start": 1.1878,
      "duration": 0.1926,
      "velocity": 120,
      "chip": "ym2612"
    },
    {
      "channel": 0,
      "note": 86,
      "start": 1.3837,
      "duration": 1.3993,
      "velocity": 106,
      "chip": "ym2612"
    },
    {
      "channel": 1,
      "note": 64,
      "start": 1.3842,
      "duration": 0.0966,
      "velocity": 101,
      "chip": "ym2612"
    },
    {
      "channel": 2,
      "note": 83,
      "start": 1.385,
      "duration": 0.4011,
      "velocity": 111,
      "chip": "ym2612"
    },
    {
      "channel": 3,
      "note": 79,
      "start": 1.3859,
      "duration": 0.4033,
      "velocity": 111,
      "chip": "ym2612"
    },
    {
      "channel": 5,
      "note": 32,
      "start": 1.3868,
      "duration": 0.1288,
      "velocity": 114,
      "chip": "ym2612"
    },
    {
      "channel": 1,
      "note": 64,
      "start": 1.4812,
      "duration": 0.1046,
      "velocity": 101,
      "chip": "ym2612"
    },
    {
      "channel": 4,
      "note": 86,
      "start": 1.4827,
      "duration": 1.399,
      "velocity": 106,
      "chip": "ym2612"
    },
    {
      "channel": 1,
      "note": 64,
      "start": 1.5864,
      "duration": 0.197,
      "velocity": 101,
      "chip": "ym2612"
    },
    {
      "channel": 5,
      "note": 32,
      "start": 1.5883,
      "duration": 0.1273,
      "velocity": 114,
      "chip": "ym2612"
    },
    {
      "channel": 1,
      "note": 64,
      "start": 1.7839,
      "duration": 0.097,
      "velocity": 101,
      "chip": "ym2612"
    },
    {
      "channel": 2,
      "note": 83,
      "start": 1.7867,
      "duration": 0.1996,
      "velocity": 111,
      "chip": "ym2612"
    },
    {
      "channel": 3,
      "note": 79,
      "start": 1.7899,
      "duration": 0.1971,
      "velocity": 111,
      "chip": "ym2612"
    },
    {
      "channel": 5,
      "note": 32,
      "start": 1.791,
      "duration": 0.1248,
      "velocity": 114,
      "chip": "ym2612"
    },
    {
      "channel": 1,
      "note": 64,
      "start": 1.8813,
      "duration": 0.1043,
      "velocity": 101,
      "chip": "ym2612"
    },
    {
      "channel": 1,
      "note": 64,
      "start": 1.9862,
      "duration": 0.1973,
      "velocity": 101,
      "chip": "ym2612"
    },
    {
      "channel": 2,
      "note": 83,
      "start": 1.9868,
      "duration": 0.1972,
      "velocity": 111,
      "chip": "ym2612"
    },
    {
      "channel": 3,
      "note": 79,
      "start": 1.9874,
      "duration": 0.1974,
      "velocity": 111,
      "chip": "ym2612"
    },
    {
      "channel": 5,
      "note": 75,
      "start": 1.9886,
      "duration": 0.1917,
      "velocity": 120,
      "chip": "ym2612"
    },
    {
      "channel": 1,
      "note": 64,
      "start": 2.1839,
      "duration": 0.097,
      "velocity": 101,
      "chip": "ym2612"
    },
    {
      "channel": 2,
      "note": 81,
      "start": 2.1846,
      "duration": 0.2018,
      "velocity": 111,
      "chip": "ym2612"
    },
    {
      "channel": 3,
      "note": 78,
      "start": 2.1855,
      "duration": 0.2013,
      "velocity": 111,
      "chip": "ym2612"
    },
    {
      "channel": 5,
      "note": 32,
      "start": 2.1867,
      "duration": 0.1291,
      "velocity": 114,
      "chip": "ym2612"
    },
    {
      "channel": 1,
      "note": 64,
      "start": 2.2813,
      "duration": 0.1044,
      "velocity": 101,
      "chip": "ym2612"
    },
    {
      "channel": 1,
      "note": 64,
      "start": 2.3863,
      "duration": 0.1971,
      "velocity": 101,
      "chip": "ym2612"
    },
    {
      "channel": 5,
      "note": 32,
      "start": 2.3882,
      "duration": 0.1271,
      "velocity": 114,
      "chip": "ym2612"
    },
    {
      "channel": 1,
      "note": 64,
      "start": 2.5839,
      "duration": 0.097,
      "velocity": 101,
      "chip": "ym2612"
    },
    {
      "channel": 2,
      "note": 81,
      "start": 2.5846,
      "duration": 0.202,
      "velocity": 111,
      "chip": "ym2612"
    },
    {
      "channel": 3,
      "note": 78,
      "start": 2.5855,
      "duration": 0.202,
      "velocity": 111,
      "chip": "ym2612"
    },
    {
      "channel": 5,
      "note": 32,
      "start": 2.5867,
      "duration": 0.1291,
      "velocity": 114,
      "chip": "ym2612"
    },
    {
      "channel": 1,
      "note": 64,
      "start": 2.6813,
      "duration": 0.1046,
      "velocity": 101,
      "chip": "ym2612"
    },
    {
      "channel": 0,
      "note": 83,
      "start": 2.7837,
      "duration": 0.1993,
      "velocity": 106,
      "chip": "ym2612"
    },
    {
      "channel": 1,
      "note": 64,
      "start": 2.7866,
      "duration": 0.1973,
      "velocity": 101,
      "chip": "ym2612"
    },
    {
      "channel": 2,
      "note": 83,
      "start": 2.7874,
      "duration": 0.4017,
      "velocity": 106,
      "chip": "ym2612"
    },
    {
      "channel": 3,
      "note": 79,
      "start": 2.7882,
      "duration": 0.4039,
      "velocity": 106,
      "chip": "ym2612"
    },
    {
      "channel": 5,
      "note": 75,
      "start": 2.7893,
      "duration": 0.191,
      "velocity": 120,
      "chip": "ym2612"
    },
    {
      "channel": 4,
      "note": 83,
      "start": 2.8825,
      "duration": 0.1996,
      "velocity": 106,
      "chip": "ym2612"
    },
    {
      "channel": 0,
      "note": 86,
      "start": 2.9837,
      "duration": 0.2017,
      "velocity": 106,
      "chip": "ym2612"
    },
    {
      "channel": 1,
      "note": 64,
      "start": 2.9842,
      "duration": 0.0966,
      "velocity": 101,
      "chip": "ym2612"
    },
    {
      "channel": 5,
      "note": 32,
      "start": 2.9861,
      "duration": 0.1295,
      "velocity": 114,
      "chip": "ym2612"
    },
    {
      "channel": 1,
      "note": 64,
      "start": 3.0812,
      "duration": 0.1051,
      "velocity": 101,
      "chip": "ym2612"
    },
    {
      "channel": 4,
      "note": 86,
      "start": 3.0827,
      "duration": 0.2015,
      "velocity": 106,
      "chip": "ym2612"
    },
    {
      "channel": 0,
      "note": 88,
      "start": 3.186,
      "duration": 0.197,
      "velocity": 106,
      "chip": "ym2612"
    },
    {
      "channel": 1,
      "note": 62,
      "start": 3.1869,
      "duration": 0.1968,
      "velocity": 101,
      "chip": "ym2612"
    },
    {
      "channel": 2,
      "note": 81,
      "start": 3.1897,
      "duration": 0.1945,
      "velocity": 106,
      "chip": "ym2612"
    },
    {
      "channel": 3,
      "note": 78,
      "start": 3.1928,
      "duration": 0.1921,
      "velocity": 106,
      "chip": "ym2612"
    },
    {
      "channel": 5,
      "note": 32,
      "start": 3.194,
      "duration": 0.1216,
      "velocity": 114,
      "chip": "ym2612"
    },
    {
      "channel": 4,
      "note": 88,
      "start": 3.2849,
      "duration": 0.198,
      "velocity": 106,
      "chip": "ym2612"
    },
    {
      "channel": 0,
      "note": 88,
      "start": 3.3835,
      "duration": 0.097,
      "velocity": 106,
      "chip": "ym2612"
    },
    {
      "channel": 1,
      "note": 62,
      "start": 3.3841,
      "duration": 0.097,
      "velocity": 101,
      "chip": "ym2612"
    },
    {
      "channel": 2,
      "note": 81,
      "start": 3.3847,
      "duration": 0.0969,
      "velocity": 106,
      "chip": "ym2612"
    },
    {
      "channel": 3,
      "note": 78,
      "start": 3.3854,
      "duration": 0.0969,
      "velocity": 106,
      "chip": "ym2612"
    },
    {
      "channel": 5,
      "note": 32,
      "start": 3.3866,
      "duration": 0.129,
      "velocity": 114,
      "chip": "ym2612"
    },
    {
      "channel": 0,
      "note": 88,
      "start": 3.481,
      "duration": 0.102,
      "velocity": 106,
      "chip": "ym2612"
    },
    {
      "channel": 1,
      "note": 62,
      "start": 3.4815,
      "duration": 0.1023,
      "velocity": 101,
      "chip": "ym2612"
    },
    {
      "channel": 2,
      "note": 81,
      "start": 3.4821,
      "duration": 0.1024,
      "velocity": 106,
      "chip": "ym2612"
    },
    {
      "channel": 3,
      "note": 78,
      "start": 3.4828,
      "duration": 0.1023,
      "velocity": 106,
      "chip": "ym2612"
    },
    {
      "channel": 4,
      "note": 88,
      "start": 3.4834,
      "duration": 0.1023,
      "velocity": 106,
      "chip": "ym2612"
    },
    {
      "channel": 0,
      "note": 88,
      "start": 3.5835,
      "duration": 0.1995,
      "velocity": 106,
      "chip": "ym2612"
    },
    {
      "channel": 1,
      "note": 62,
      "start": 3.5843,
      "duration": 0.1993,
      "velocity": 101,
      "chip": "ym2612"
    },
    {
      "channel": 2,
      "note": 81,
      "start": 3.585,
      "duration": 0.1992,
      "velocity": 106,
      "chip": "ym2612"
    },
    {
      "channel": 3,
      "note": 78,
      "start": 3.5856,
      "duration": 0.1992,
      "velocity": 106,
      "chip": "ym2612"
    },
    {
      "channel": 4,
      "note": 88,
      "start": 3.5862,
      "duration": 0.0956,
      "velocity": 106,
      "chip": "ym2612"
    },
    {
      "channel": 5,
      "note": 75,
      "start": 3.587,
      "duration": 0.1934,
      "velocity": 120,
      "chip": "ym2612"
    },
    {
      "channel": 4,
      "note": 88,
      "start": 3.6824,
      "duration": 0.1997,
      "velocity": 106,
      "chip": "ym2612"
    },
    {
      "channel": 0,
      "note": 88,
      "start": 3.7835,
      "duration": 0.1996,
      "velocity": 106,
      "chip": "ym2612"
    },
    {
      "channel": 1,
      "note": 62,
      "start": 3.7841,
      "duration": 0.0967,
      "velocity": 101,
      "chip": "ym2612"
    },
    {
      "channel": 2,
      "note": 81,
      "start": 3.7847,
      "duration": 0.1999,
      "velocity": 106,
      "chip": "ym2612"
    },
    {
      "channel": 3,
      "note": 78,
      "start": 3.7854,
      "duration": 0.1999,
      "velocity": 106,
      "chip": "ym2612"
    },
    {
      "channel": 5,
      "note": 32,
      "start": 3.7866,
      "duration": 0.129,
      "velocity": 114,
      "chip": "ym2612"
    },
    {
      "channel": 1,
      "note": 62,
      "start": 3.8812,
      "duration": 0.1026,
      "velocity": 101,
      "chip": "ym2612"
    },
    {
      "channel": 4,
      "note": 88,
      "start": 3.8825,
      "duration": 0.1992,
      "velocity": 106,
      "chip": "ym2612"
    },
    {
      "channel": 0,
      "note": 88,
      "start": 3.9836,
      "duration": 0.1994,
      "velocity": 106,
      "chip": "ym2612"
    },
    {
      "channel": 1,
      "note": 62,
      "start": 3.9844,
      "duration": 0.1994,
      "velocity": 101,
      "chip": "ym2612"
    },
    {
      "channel": 2,
      "note": 81,
      "start": 3.985,
      "duration": 0.1993,
      "velocity": 106,
      "chip": "ym2612"
    },
    {
      "channel": 3,
      "note": 78,
      "start": 3.9857,
      "duration": 0.1993,
      "velocity": 106,
      "chip": "ym2612"
    },
    {
      "channel": 5,
      "note": 32,
      "start": 3.9869,
      "duration": 0.1287,
      "velocity": 114,
      "chip": "ym2612"
    },
    {
      "channel": 4,
      "note": 88,
      "start": 4.0823,
      "duration": 0.2164,
      "velocity": 106,
      "chip": "ym2612"
    },
    {
      "channel": 0,
      "note": 90,
      "start": 4.1837,
      "duration": 0.216,
      "velocity": 106,
      "chip": "ym2612"
    },
    {
      "channel": 1,
      "note": 62,
      "start": 4.1842,
      "duration": 0.1132,
      "velocity": 101,
      "chip": "ym2612"
    },
    {
      "channel": 2,
      "note": 81,
      "start": 4.1848,
      "duration": 0.216,
      "velocity": 106,
      "chip": "ym2612"
    },
    {
      "channel": 3,
      "note": 78,
      "start": 4.1855,
      "duration": 0.2156,
      "velocity": 106,
      "chip": "ym2612"
    },
    {
      "channel": 5,
      "note": 32,
      "start": 4.1867,
      "duration": 0.1456,
      "velocity": 114,
      "chip": "ym2612"
    },
    {
      "channel": 1,
      "note": 62,
      "start": 4.2979,
      "duration": 0.1022,
      "velocity": 101,
      "chip": "ym2612"
    },
    {
      "channel": 4,
      "note": 90,
      "start": 4.2994,
      "duration": 0.1983,
      "velocity": 106,
      "chip": "ym2612"
    },
    {
      "channel": 1,
      "note": 62,
      "start": 4.4007,
      "duration": 0.1998,
      "velocity": 101,
      "chip": "ym2612"
    },
    {
      "channel": 5,
      "note": 75,
      "start": 4.4024,
      "duration": 0.1947,
      "velocity": 120,
      "chip": "ym2612"
    },
    {
      "channel": 0,
      "note": 86,
      "start": 4.6004,
      "duration": 1.3993,
      "velocity": 106,
      "chip": "ym2612"
    },
    {
      "channel": 1,
      "note": 62,
      "start": 4.6009,
      "duration": 0.0966,
      "velocity": 101,
      "chip": "ym2612"
    },
    {
      "channel": 2,
      "note": 81,
      "start": 4.6017,
      "duration": 0.4011,
      "velocity": 111,
      "chip": "ym2612"
    },
    {
      "channel": 3,
      "note": 78,
      "start": 4.6025,
      "duration": 0.4033,
      "velocity": 111,
      "chip": "ym2612"
    },
    {
      "channel": 5,
      "note": 32,
      "start": 4.6035,
      "duration": 0.1288,
      "velocity": 114,
      "chip": "ym2612"
    },
    {
      "channel": 1,
      "note": 62,
      "start": 4.6979,
      "duration": 0.1025,
      "velocity": 101,
      "chip": "ym2612"
    },
    {
      "channel": 4,
      "note": 86,
      "start": 4.6994,
      "duration": 1.399,
      "velocity": 106,
      "chip": "ym2612"
    },
    {
      "channel": 1,
      "note": 62,
      "start": 4.801,
      "duration": 0.1991,
      "velocity": 101,
      "chip": "ym2612"
    },
    {
      "channel": 5,
      "note": 32,
      "start": 4.8028,
      "duration": 0.1294,
      "velocity": 114,
      "chip": "ym2612"
    },
    {
      "channel": 1,
      "note": 62,
      "start": 5.0005,
      "duration": 0.097,
      "velocity": 101,
      "chip": "ym2612"
    },
    {
      "channel": 2,
      "note": 83,
      "start": 5.0034,
      "duration": 0.1975,
      "velocity": 111,
      "chip": "ym2612"
    },
    {
      "channel": 3,
      "note": 78,
      "start": 5.0065,
      "duration": 0.195,
      "velocity": 111,
      "chip": "ym2612"
    },
    {
      "channel": 5,
      "note": 32,
      "start": 5.0077,
      "duration": 0.1248,
      "velocity": 114,
      "chip": "ym2612"
    },
    {
      "channel": 1,
      "note": 62,
      "start": 5.098,
      "duration": 0.1022,
      "velocity": 101,
      "chip": "ym2612"
    },
    {
      "channel": 1,
      "note": 62,
      "start": 5.2008,
      "duration": 0.1993,
      "velocity": 101,
      "chip": "ym2612"
    },
    {
      "channel": 2,
      "note": 83,
      "start": 5.2014,
      "duration": 0.1993,
      "velocity": 111,
      "chip": "ym2612"
    },
    {
      "channel": 3,
      "note": 78,
      "start": 5.2021,
      "duration": 0.1994,
      "velocity": 111,
      "chip": "ym2612"
    },
    {
      "channel": 5,
      "note": 75,
      "start": 5.2033,
      "duration": 0.1938,
      "velocity": 120,
      "chip": "ym2612"
    },
    {
      "channel": 1,
      "note": 62,
      "start": 5.4005,
      "duration": 0.097,
      "velocity": 101,
      "chip": "ym2612"
    },
    {
      "channel": 2,
      "note": 81,
      "start": 5.4013,
      "duration": 0.1997,
      "velocity": 111,
      "chip": "ym2612"
    },
    {
      "channel": 3,
      "note": 76,
      "start": 5.4021,
      "duration": 0.1993,
      "velocity": 111,
      "chip": "ym2612"
    },
    {
      "channel": 5,
      "note": 32,
      "start": 5.4034,
      "duration": 0.1291,
      "velocity": 114,
      "chip": "ym2612"
    },
    {
      "channel": 1,
      "note": 62,
      "start": 5.498,
      "duration": 0.1023,
      "velocity": 101,
      "chip": "ym2612"
    },
    {
      "channel": 1,
      "note": 62,
      "start": 5.6009,
      "duration": 0.1992,
      "velocity": 101,
      "chip": "ym2612"
    },
    {
      "channel": 5,
      "note": 32,
      "start": 5.6028,
      "duration": 0.0942,
      "velocity": 114,
      "chip": "ym2612"
    },
    {
      "channel": 5,
      "note": 75,
      "start": 5.7017,
      "duration": 0.0954,
      "velocity": 120,
      "chip": "ym2612"
    },
    {
      "channel": 1,
      "note": 62,
      "start": 5.8005,
      "duration": 0.097,
      "velocity": 101,
      "chip": "ym2612"
    },
    {
      "channel": 2,
      "note": 81,
      "start": 5.8013,
      "duration": 0.2,
      "velocity": 111,
      "chip": "ym2612"
    },
    {
      "channel": 3,
      "note": 76,
      "start": 5.8021,
      "duration": 0.2,
      "velocity": 111,
      "chip": "ym2612"
    },
    {
      "channel": 5,
      "note": 32,
      "start": 5.8034,
      "duration": 0.1291,
      "velocity": 114,
      "chip": "ym2612"
    },
    {
      "channel": 1,
      "note": 62,
      "start": 5.898,
      "duration": 0.1025,
      "velocity": 101,
      "chip": "ym2612"
    },
    {
      "channel": 0,
      "note": 83,
      "start": 6.0004,
      "duration": 0.1993,
      "velocity": 106,
      "chip": "ym2612"
    },
    {
      "channel": 1,
      "note": 62,
      "start": 6.0011,
      "duration": 0.1994,
      "velocity": 101,
      "chip": "ym2612"
    },
    {
      "channel": 2,
      "note": 83,
      "start": 6.002,
      "duration": 0.4037,
      "velocity": 106,
      "chip": "ym2612"
    },
    {
      "channel": 3,
      "note": 78,
      "start": 6.0028,
      "duration": 0.4059,
      "velocity": 106,
      "chip": "ym2612"
    },
    {
      "channel": 5,
      "note": 75,
      "start": 6.004,
      "duration": 0.1931,
      "velocity": 120,
      "chip": "ym2612"
    },
    {
      "channel": 4,
      "note": 83,
      "start": 6.0991,
      "duration": 0.2021,
      "velocity": 106,
      "chip": "ym2612"
    },
    {
      "channel": 0,
      "note": 86,
      "start": 6.2004,
      "duration": 0.2016,
      "velocity": 106,
      "chip": "ym2612"
    },
    {
      "channel": 1,
      "note": 62,
      "start": 6.2009,
      "duration": 0.0992,
      "velocity": 101,
      "chip": "ym2612"
    },
    {
      "channel": 5,
      "note": 32,
      "start": 6.2028,
      "duration": 0.0943,
      "velocity": 114,
      "chip": "ym2612"
    },
    {
      "channel": 1,
      "note": 62,
      "start": 6.3004,
      "duration": 0.1024,
      "velocity": 101,
      "chip": "ym2612"
    },
    {
      "channel": 4,
      "note": 86,
      "start": 6.302,
      "duration": 0.1989,
      "velocity": 106,
      "chip": "ym2612"
    },
    {
      "channel": 5,
      "note": 75,
      "start": 6.3027,
      "duration": 0.0944,
      "velocity": 120,
      "chip": "ym2612"
    },
    {
      "channel": 0,
      "note": 88,
      "start": 6.4027,
      "duration": 0.197,
      "velocity": 106,
      "chip": "ym2612"
    },
    {
      "channel": 1,
      "note": 60,
      "start": 6.4034,
      "duration": 0.1969,
      "velocity": 101,
      "chip": "ym2612"
    },
    {
      "channel": 2,
      "note": 83,
      "start": 6.4063,
      "duration": 0.1946,
      "velocity": 106,
      "chip": "ym2612"
    },
    {
      "channel": 3,
      "note": 79,
      "start": 6.4093,
      "duration": 0.1922,
      "velocity": 106,
      "chip": "ym2612"
    },
    {
      "channel": 5,
      "note": 32,
      "start": 6.4105,
      "duration": 0.1217,
      "velocity": 114,
      "chip": "ym2612"
    },
    {
      "channel": 4,
      "note": 88,
      "start": 6.5016,
      "duration": 0.198,
      "velocity": 106,
      "chip": "ym2612"
    },
    {
      "channel": 0,
      "note": 88,
      "start": 6.6002,
      "duration": 0.097,
      "velocity": 106,
      "chip": "ym2612"
    },
    {
      "channel": 1,
      "note": 60,
      "start": 6.6007,
      "duration": 0.097,
      "velocity": 101,
      "chip": "ym2612"
    },
    {
      "channel": 2,
      "note": 83,
      "start": 6.6014,
      "duration": 0.0969,
      "velocity": 106,
      "chip": "ym2612"
    },
    {
      "channel": 3,
      "note": 79,
      "start": 6.602,
      "duration": 0.0969,
      "velocity": 106,
      "chip": "ym2612"
    },
    {
      "channel": 5,
      "note": 32,
      "start": 6.6032,
      "duration": 0.129,
      "velocity": 114,
      "chip": "ym2612"
    },
    {
      "channel": 0,
      "note": 88,
      "start": 6.6976,
      "duration": 0.102,
      "velocity": 106,
      "chip": "ym2612"
    },
    {
      "channel": 1,
      "note": 60,
      "start": 6.6981,
      "duration": 0.1023,
      "velocity": 101,
      "chip": "ym2612"
    },
    {
      "channel": 2,
      "note": 83,
      "start": 6.6988,
      "duration": 0.1024,
      "velocity": 106,
      "chip": "ym2612"
    },
    {
      "channel": 3,
      "note": 79,
      "start": 6.6995,
      "duration": 0.1023,
      "velocity": 106,
      "chip": "ym2612"
    },
    {
      "channel": 4,
      "note": 88,
      "start": 6.7001,
      "duration": 0.1023,
      "velocity": 106,
      "chip": "ym2612"
    },
    {
      "channel": 0,
      "note": 88,
      "start": 6.8002,
      "duration": 0.1995,
      "velocity": 106,
      "chip": "ym2612"
    },
    {
      "channel": 1,
      "note": 60,
      "start": 6.801,
      "duration": 0.1993,
      "velocity": 101,
      "chip": "ym2612"
    },
    {
      "channel": 2,
      "note": 83,
      "start": 6.8016,
      "duration": 0.1992,
      "velocity": 106,
      "chip": "ym2612"
    },
    {
      "channel": 3,
      "note": 79,
      "start": 6.8023,
      "duration": 0.1992,
      "velocity": 106,
      "chip": "ym2612"
    },
    {
      "channel": 4,
      "note": 88,
      "start": 6.8029,
      "duration": 0.0955,
      "velocity": 106,
      "chip": "ym2612"
    },
    {
      "channel": 5,
      "note": 75,
      "start": 6.8037,
      "duration": 0.1934,
      "velocity": 120,
      "chip": "ym2612"
    },
    {
      "channel": 4,
      "note": 88,
      "start": 6.899,
      "duration": 0.1998,
      "velocity": 106,
      "chip": "ym2612"
    },
    {
      "channel": 0,
      "note": 88,
      "start": 7.0002,
      "duration": 0.1996,
      "velocity": 106,
      "chip": "ym2612"
    },
    {
      "channel": 1,
      "note": 60,
      "start": 7.0007,
      "duration": 0.0967,
      "velocity": 101,
      "chip": "ym2612"
    },
    {
      "channel": 2,
      "note": 83,
      "start": 7.0014,
      "duration": 0.1999,
      "velocity": 106,
      "chip": "ym2612"
    },
    {
      "channel": 3,
      "note": 79,
      "start": 7.002,
      "duration": 0.1999,
      "velocity": 106,
      "chip": "ym2612"
    },
    {
      "channel": 5,
      "note": 32,
      "start": 7.0032,
      "duration": 0.129,
      "velocity": 114,
      "chip": "ym2612"
    },
    {
      "channel": 1,
      "note": 60,
      "start": 7.0979,
      "duration": 0.1026,
      "velocity": 101,
      "chip": "ym2612"
    },
    {
      "channel": 4,
      "note": 88,
      "start": 7.0992,
      "duration": 0.1992,
      "velocity": 106,
      "chip": "ym2612"
    },
    {
      "channel": 0,
      "note": 88,
      "start": 7.2003,
      "duration": 0.1994,
      "velocity": 106,
      "chip": "ym2612"
    },
    {
      "channel": 1,
      "note": 60,
      "start": 7.201,
      "duration": 0.1994,
      "velocity": 101,
      "chip": "ym2612"
    },
    {
      "channel": 2,
      "note": 83,
      "start": 7.2017,
      "duration": 0.1993,
      "velocity": 106,
      "chip": "ym2612"
    },
    {
      "channel": 3,
      "note": 79,
      "start": 7.2024,
      "duration": 0.1993,
      "velocity": 106,
      "chip": "ym2612"
    },
    {
      "channel": 5,
      "note": 32,
      "start": 7.2035,
      "duration": 0.1287,
      "velocity": 114,
      "chip": "ym2612"
    },
    {
      "channel": 4,
      "note": 88,
      "start": 7.299,
      "duration": 0.1998,
      "velocity": 106,
      "chip": "ym2612"
    },
    {
      "channel": 0,
      "note": 90,
      "start": 7.4004,
      "duration": 0.1993,
      "velocity": 106,
      "chip": "ym2612"
    },
    {
      "channel": 1,
      "note": 60,
      "start": 7.4009,
      "duration": 0.0966,
      "velocity": 101,
      "chip": "ym2612"
    },
    {
      "channel": 2,
      "note": 83,
      "start": 7.4015,
      "duration": 0.1993,
      "velocity": 106,
      "chip": "ym2612"
    },
    {
      "channel": 3,
      "note": 79,
      "start": 7.4022,
      "duration": 0.1989,
      "velocity": 106,
      "chip": "ym2612"
    },
    {
      "channel": 5,
      "note": 32,
      "start": 7.4033,
      "duration": 0.1289,
      "velocity": 114,
      "chip": "ym2612"
    },
    {
      "channel": 1,
      "note": 60,
      "start": 7.4979,
      "duration": 0.1022,
      "velocity": 101,
      "chip": "ym2612"
    },
    {
      "channel": 4,
      "note": 90,
      "start": 7.4994,
      "duration": 0.1983,
      "velocity": 106,
      "chip": "ym2612"
    },
    {
      "channel": 1,
      "note": 60,
      "start": 7.6007,
      "duration": 0.1998,
      "velocity": 101,
      "chip": "ym2612"
    },
    {
      "channel": 5,
      "note": 75,
      "start": 7.6024,
      "duration": 0.1947,
      "velocity": 120,
      "chip": "ym2612"
    },
    {
      "channel": 0,
      "note": 86,
      "start": 7.8004,
      "duration": 1.416,
      "velocity": 106,
      "chip": "ym2612"
    },
    {
      "channel": 1,
      "note": 60,
      "start": 7.8009,
      "duration": 0.0966,
      "velocity": 101,
      "chip": "ym2612"
    },
    {
      "channel": 2,
      "note": 83,
      "start": 7.8017,
      "duration": 0.4011,
      "velocity": 111,
      "chip": "ym2612"
    },
    {
      "channel": 3,
      "note": 79,
      "start": 7.8025,
      "duration": 0.4033,
      "velocity": 111,
      "chip": "ym2612"
    },
    {
      "channel": 5,
      "note": 32,
      "start": 7.8035,
      "duration": 0.1288,
      "velocity": 114,
      "chip": "ym2612"
    },
    {
      "channel": 1,
      "note": 60,
      "start": 7.8979,
      "duration": 0.1025,
      "velocity": 101,
      "chip": "ym2612"
    },
    {
      "channel": 4,
      "note": 86,
      "start": 7.8994,
      "duration": 1.4157,
      "velocity": 106,
      "chip": "ym2612"
    },
    {
      "channel": 1,
      "note": 60,
      "start": 8.001,
      "duration": 0.1991,
      "velocity": 101,
      "chip": "ym2612"
    },
    {
      "channel": 5,
      "note": 32,
      "start": 8.0028,
      "duration": 0.1294,
      "velocity": 114,
      "chip": "ym2612"
    },
    {
      "channel": 1,
      "note": 60,
      "start": 8.2005,
      "duration": 0.097,
      "velocity": 101,
      "chip": "ym2612"
    },
    {
      "channel": 2,
      "note": 83,
      "start": 8.2034,
      "duration": 0.1975,
      "velocity": 111,
      "chip": "ym2612"
    },
    {
      "channel": 3,
      "note": 79,
      "start": 8.2065,
      "duration": 0.195,
      "velocity": 111,
      "chip": "ym2612"
    },
    {
      "channel": 5,
      "note": 32,
      "start": 8.2077,
      "duration": 0.1248,
      "velocity": 114,
      "chip": "ym2612"
    },
    {
      "channel": 1,
      "note": 60,
      "start": 8.298,
      "duration": 0.1022,
      "velocity": 101,
      "chip": "ym2612"
    },
    {
      "channel": 1,
      "note": 60,
      "start": 8.4008,
      "duration": 0.216,
      "velocity": 101,
      "chip": "ym2612"
    },
    {
      "channel": 2,
      "note": 83,
      "start": 8.4014,
      "duration": 0.2159,
      "velocity": 111,
      "chip": "ym2612"
    },
    {
      "channel": 3,
      "note": 79,
      "start": 8.4021,
      "duration": 0.2161,
      "velocity": 111,
      "chip": "ym2612"
    },
    {
      "channel": 5,
      "note": 75,
      "start": 8.4033,
      "duration": 0.2104,
      "velocity": 120,
      "chip": "ym2612"
    },
    {
      "channel": 1,
      "note": 60,
      "start": 8.6172,
      "duration": 0.097,
      "velocity": 101,
      "chip": "ym2612"
    },
    {
      "channel": 2,
      "note": 81,
      "start": 8.618,
      "duration": 0.1997,
      "velocity": 111,
      "chip": "ym2612"
    },
    {
      "channel": 3,
      "note": 78,
      "start": 8.6188,
      "duration": 0.1993,
      "velocity": 111,
      "chip": "ym2612"
    },
    {
      "channel": 5,
      "note": 32,
      "start": 8.6201,
      "duration": 0.129,
      "velocity": 114,
      "chip": "ym2612"
    },
    {
      "channel": 1,
      "note": 60,
      "start": 8.7147,
      "duration": 0.1023,
      "velocity": 101,
      "chip": "ym2612"
    },
    {
      "channel": 1,
      "note": 60,
      "start": 8.8176,
      "duration": 0.1992,
      "velocity": 101,
      "chip": "ym2612"
    },
    {
      "channel": 5,
      "note": 32,
      "start": 8.8195,
      "duration": 0.1291,
      "velocity": 114,
      "chip": "ym2612"
    },
    {
      "channel": 1,
      "note": 60,
      "start": 9.0172,
      "duration": 0.097,
      "velocity": 101,
      "chip": "ym2612"
    },
    {
      "channel": 2,
      "note": 81,
      "start": 9.018,
      "duration": 0.2,
      "velocity": 111,
      "chip": "ym2612"
    },
    {
      "channel": 3,
      "note": 78,
      "start": 9.0188,
      "duration": 0.2,
      "velocity": 111,
      "chip": "ym2612"
    },
    {
      "channel": 5,
      "note": 32,
      "start": 9.0201,
      "duration": 0.1291,
      "velocity": 114,
      "chip": "ym2612"
    },
    {
      "channel": 1,
      "note": 60,
      "start": 9.1147,
      "duration": 0.1025,
      "velocity": 101,
      "chip": "ym2612"
    },
    {
      "channel": 0,
      "note": 83,
      "start": 9.217,
      "duration": 0.1993,
      "velocity": 106,
      "chip": "ym2612"
    },
    {
      "channel": 1,
      "note": 60,
      "start": 9.2178,
      "duration": 0.1994,
      "velocity": 101,
      "chip": "ym2612"
    },
    {
      "channel": 2,
      "note": 83,
      "start": 9.2186,
      "duration": 0.402,
      "velocity": 106,
      "chip": "ym2612"
    },
    {
      "channel": 3,
      "note": 79,
      "start": 9.2194,
      "duration": 0.4038,
      "velocity": 106,
      "chip": "ym2612"
    },
    {
      "channel": 5,
      "note": 75,
      "start": 9.2207,
      "duration": 0.1931,
      "velocity": 120,
      "chip": "ym2612"
    },
    {
      "channel": 4,
      "note": 83,
      "start": 9.3158,
      "duration": 0.1996,
      "velocity": 106,
      "chip": "ym2612"
    },
    {
      "channel": 0,
      "note": 86,
      "start": 9.417,
      "duration": 0.1995,
      "velocity": 106,
      "chip": "ym2612"
    },
    {
      "channel": 1,
      "note": 60,
      "start": 9.4175,
      "duration": 0.0966,
      "velocity": 101,
      "chip": "ym2612"
    },
    {
      "channel": 5,
      "note": 32,
      "start": 9.4194,
      "duration": 0.1295,
      "velocity": 114,
      "chip": "ym2612"
    },
    {
      "channel": 1,
      "note": 60,
      "start": 9.5145,
      "duration": 0.1029,
      "velocity": 101,
      "chip": "ym2612"
    },
    {
      "channel": 4,
      "note": 86,
      "start": 9.5161,
      "duration": 0.1989,
      "velocity": 106,
      "chip": "ym2612"
    },
    {
      "channel": 0,
      "note": 88,
      "start": 9.6172,
      "duration": 0.1991,
      "velocity": 106,
      "chip": "ym2612"
    },
    {
      "channel": 1,
      "note": 59,
      "start": 9.618,
      "duration": 0.1992,
      "velocity": 101,
      "chip": "ym2612"
    },
    {
      "channel": 3,
      "note": 71,
      "start": 9.6238,
      "duration": 0.3949,
      "velocity": 106,
      "chip": "ym2612"
    },
    {
      "channel": 5,
      "note": 75,
      "start": 9.6249,
      "duration": 0.1888,
      "velocity": 120,
      "chip": "ym2612"
    },
    {
      "channel": 4,
      "note": 88,
      "start": 9.7157,
      "duration": 0.1997,
      "velocity": 106,
      "chip": "ym2612"
    },
    {
      "channel": 0,
      "note": 86,
      "start": 9.817,
      "duration": 0.1993,
      "velocity": 106,
      "chip": "ym2612"
    },
    {
      "channel": 1,
      "note": 59,
      "start": 9.8175,
      "duration": 0.0966,
      "velocity": 101,
      "chip": "ym2612"
    },
    {
      "channel": 2,
      "note": 88,
      "start": 9.8184,
      "duration": 0.1995,
      "velocity": 106,
      "chip": "ym2612"
    },
    {
      "channel": 5,
      "note": 32,
      "start": 9.8199,
      "duration": 0.129,
      "velocity": 114,
      "chip": "ym2612"
    },
    {
      "channel": 1,
      "note": 59,
      "start": 9.9145,
      "duration": 0.1026,
      "velocity": 101,
      "chip": "ym2612"
    },
    {
      "channel": 4,
      "note": 86,
      "start": 9.9161,
      "duration": 0.1988,
      "velocity": 106,
      "chip": "ym2612"
    },
    {
      "channel": 0,
      "note": 83,
      "start": 10.017,
      "duration": 0.1993,
      "velocity": 106,
      "chip": "ym2612"
    },
    {
      "channel": 1,
      "note": 62,
      "start": 10.0177,
      "duration": 0.1994,
      "velocity": 101,
      "chip": "ym2612"
    },
    {
      "channel": 2,
      "note": 86,
      "start": 10.0185,
      "duration": 0.1993,
      "velocity": 106,
      "chip": "ym2612"
    },
    {
      "channel": 5,
      "note": 32,
      "start": 10.02,
      "duration": 0.1286,
      "velocity": 114,
      "chip": "ym2612"
    },
    {
      "channel": 4,
      "note": 83,
      "start": 10.1156,
      "duration": 0.1998,
      "velocity": 106,
      "chip": "ym2612"
    },
    {
      "channel": 0,
      "note": 88,
      "start": 10.217,
      "duration": 0.1993,
      "velocity": 106,
      "chip": "ym2612"
    },
    {
      "channel": 1,
      "note": 59,
      "start": 10.2177,
      "duration": 0.0964,
      "velocity": 101,
      "chip": "ym2612"
    },
    {
      "channel": 2,
      "note": 83,
      "start": 10.2185,
      "duration": 0.1994,
      "velocity": 106,
      "chip": "ym2612"
    },
    {
      "channel": 3,
      "note": 71,
      "start": 10.2193,
      "duration": 0.5994,
      "velocity": 106,
      "chip": "ym2612"
    },
    {
      "channel": 5,
      "note": 75,
      "start": 10.2204,
      "duration": 0.1933,
      "velocity": 120,
      "chip": "ym2612"
    },
    {
      "channel": 1,
      "note": 59,
      "start": 10.3145,
      "duration": 0.1026,
      "velocity": 101,
      "chip": "ym2612"
    },
    {
      "channel": 4,
      "note": 88,
      "start": 10.3161,
      "duration": 0.199,
      "velocity": 106,
      "chip": "ym2612"
    },
    {
      "channel": 0,
      "note": 86,
      "start": 10.417,
      "duration": 0.1993,
      "velocity": 106,
      "chip": "ym2612"
    },
    {
      "channel": 1,
      "note": 69,
      "start": 10.4177,
      "duration": 0.1994,
      "velocity": 101,
      "chip": "ym2612"
    },
    {
      "channel": 2,
      "note": 88,
      "start": 10.4185,
      "duration": 0.1993,
      "velocity": 106,
      "chip": "ym2612"
    },
    {
      "channel": 5,
      "note": 32,
      "start": 10.4201,
      "duration": 0.1288,
      "velocity": 114,
      "chip": "ym2612"
    },
    {
      "channel": 4,
      "note": 86,
      "start": 10.5158,
      "duration": 0.1997,
      "velocity": 106,
      "chip": "ym2612"
    },
    {
      "channel": 0,
      "note": 83,
      "start": 10.617,
      "duration": 0.1993,
      "velocity": 106,
      "chip": "ym2612"
    },
    {
      "channel": 1,
      "note": 59,
      "start": 10.6177,
      "duration": 0.0964,
      "velocity": 101,
      "chip": "ym2612"
    },
    {
      "channel": 2,
      "note": 86,
      "start": 10.6185,
      "duration": 0.1993,
      "velocity": 106,
      "chip": "ym2612"
    },
    {
      "channel": 5,
      "note": 32,
      "start": 10.6201,
      "duration": 0.1289,
      "velocity": 114,
      "chip": "ym2612"
    },
    {
      "channel": 1,
      "note": 59,
      "start": 10.7145,
      "duration": 0.1026,
      "velocity": 101,
      "chip": "ym2612"
    },
    {
      "channel": 4,
      "note": 83,
      "start": 10.7161,
      "duration": 0.199,
      "velocity": 106,
      "chip": "ym2612"
    },
    {
      "channel": 0,
      "note": 88,
      "start": 10.817,
      "duration": 0.1993,
      "velocity": 106,
      "chip": "ym2612"
    },
    {
      "channel": 1,
      "note": 67,
      "start": 10.8177,
      "duration": 0.1994,
      "velocity": 101,
      "chip": "ym2612"
    },
    {
      "channel": 2,
      "note": 83,
      "start": 10.8185,
      "duration": 0.1994,
      "velocity": 106,
      "chip": "ym2612"
    },
    {
      "channel": 3,
      "note": 71,
      "start": 10.8192,
      "duration": 0.3995,
      "velocity": 106,
      "chip": "ym2612"
    },
    {
      "channel": 5,
      "note": 75,
      "start": 10.8203,
      "duration": 0.1934,
      "velocity": 120,
      "chip": "ym2612"
    },
    {
      "channel": 4,
      "note": 88,
      "start": 10.9158,
      "duration": 0.1996,
      "velocity": 106,
      "chip": "ym2612"
    },
    {
      "channel": 0,
      "note": 86,
      "start": 11.017,
      "duration": 0.1993,
      "velocity": 106,
      "chip": "ym2612"
    },
    {
      "channel": 1,
      "note": 59,
      "start": 11.0177,
      "duration": 0.0964,
      "velocity": 101,
      "chip": "ym2612"
    },
    {
      "channel": 2,
      "note": 88,
      "start": 11.0185,
      "duration": 0.1994,
      "velocity": 106,
      "chip": "ym2612"
    },
    {
      "channel": 5,
      "note": 32,
      "start": 11.02,
      "duration": 0.1289,
      "velocity": 114,
      "chip": "ym2612"
    },
    {
      "channel": 1,
      "note": 59,
      "start": 11.1145,
      "duration": 0.1026,
      "velocity": 101,
      "chip": "ym2612"
    },
    {
      "channel": 4,
      "note": 86,
      "start": 11.1161,
      "duration": 0.1988,
      "velocity": 106,
      "chip": "ym2612"
    },
    {
      "channel": 0,
      "note": 83,
      "start": 11.217,
      "duration": 0.1993,
      "velocity": 106,
      "chip": "ym2612"
    },
    {
      "channel": 1,
      "note": 66,
      "start": 11.2177,
      "duration": 0.1994,
      "velocity": 101,
      "chip": "ym2612"
    },
    {
      "channel": 2,
      "note": 86,
      "start": 11.2185,
      "duration": 0.1993,
      "velocity": 106,
      "chip": "ym2612"
    },
    {
      "channel": 5,
      "note": 32,
      "start": 11.22,
      "duration": 0.1286,
      "velocity": 114,
      "chip": "ym2612"
    },
    {
      "channel": 4,
      "note": 83,
      "start": 11.3156,
      "duration": 0.1998,
      "velocity": 106,
      "chip": "ym2612"
    },
    {
      "channel": 0,
      "note": 88,
      "start": 11.417,
      "duration": 0.1993,
      "velocity": 106,
      "chip": "ym2612"
    },
    {
      "channel": 1,
      "note": 59,
      "start": 11.4177,
      "duration": 0.0964,
      "velocity": 101,
      "chip": "ym2612"
    },
    {
      "channel": 2,
      "note": 83,
      "start": 11.4185,
      "duration": 0.1994,
      "velocity": 106,
      "chip": "ym2612"
    },
    {
      "channel": 3,
      "note": 71,
      "start": 11.4193,
      "duration": 0.5994,
      "velocity": 106,
      "chip": "ym2612"
    },
    {
      "channel": 5,
      "note": 75,
      "start": 11.4204,
      "duration": 0.1933,
      "velocity": 120,
      "chip": "ym2612"
    },
    {
      "channel": 1,
      "note": 59,
      "start": 11.5145,
      "duration": 0.1026,
      "velocity": 101,
      "chip": "ym2612"
    },
    {
      "channel": 4,
      "note": 88,
      "start": 11.5161,
      "duration": 0.2016,
      "velocity": 106,
      "chip": "ym2612"
    },
    {
      "channel": 0,
      "note": 86,
      "start": 11.617,
      "duration": 0.1993,
      "velocity": 106,
      "chip": "ym2612"
    },
    {
      "channel": 1,
      "note": 64,
      "start": 11.6177,
      "duration": 0.1994,
      "velocity": 101,
      "chip": "ym2612"
    },
    {
      "channel": 2,
      "note": 88,
      "start": 11.6185,
      "duration": 0.1993,
      "velocity": 106,
      "chip": "ym2612"
    },
    {
      "channel": 5,
      "note": 75,
      "start": 11.62,
      "duration": 0.0938,
      "velocity": 120,
      "chip": "ym2612"
    },
    {
      "channel": 4,
      "note": 86,
      "start": 11.7184,
      "duration": 0.1997,
      "velocity": 106,
      "chip": "ym2612"
    },
    {
      "channel": 5,
      "note": 75,
      "start": 11.7191,
      "duration": 0.0946,
      "velocity": 120,
      "chip": "ym2612"
    },
    {
      "channel": 0,
      "note": 83,
      "start": 11.817,
      "duration": 0.1993,
      "velocity": 106,
      "chip": "ym2612"
    },
    {
      "channel": 1,
      "note": 59,
      "start": 11.8177,
      "duration": 0.099,
      "velocity": 101,
      "chip": "ym2612"
    },
    {
      "channel": 2,
      "note": 86,
      "start": 11.8185,
      "duration": 0.1994,
      "velocity": 106,
      "chip": "ym2612"
    },
    {
      "channel": 5,
      "note": 32,
      "start": 11.8201,
      "duration": 0.0936,
      "velocity": 114,
      "chip": "ym2612"
    },
    {
      "channel": 1,
      "note": 59,
      "start": 11.9171,
      "duration": 0.1001,
      "velocity": 101,
      "chip": "ym2612"
    },
    {
      "channel": 4,
      "note": 83,
      "start": 11.9187,
      "duration": 0.199,
      "velocity": 106,
      "chip": "ym2612"
    },
    {
      "channel": 5,
      "note": 75,
      "start": 11.9194,
      "duration": 0.0943,
      "velocity": 120,
      "chip": "ym2612"
    },
    {
      "channel": 0,
      "note": 88,
      "start": 12.017,
      "duration": 0.1993,
      "velocity": 106,
      "chip": "ym2612"
    },
    {
      "channel": 1,
      "note": 62,
      "start": 12.0177,
      "duration": 0.1994,
      "velocity": 101,
      "chip": "ym2612"
    },
    {
      "channel": 2,
      "note": 83,
      "start": 12.0185,
      "duration": 0.1993,
      "velocity": 106,
      "chip": "ym2612"
    },
    {
      "channel": 3,
      "note": 71,
      "start": 12.0192,
      "duration": 0.3995,
      "velocity": 106,
      "chip": "ym2612"
    },
    {
      "channel": 5,
      "note": 75,
      "start": 12.0203,
      "duration": 0.0934,
      "velocity": 120,
      "chip": "ym2612"
    },
    {
      "channel": 4,
      "note": 88,
      "start": 12.1184,
      "duration": 0.1995,
      "velocity": 106,
      "chip": "ym2612"
    },
    {
      "channel": 5,
      "note": 75,
      "start": 12.1191,
      "duration": 0.0946,
      "velocity": 120,
      "chip": "ym2612"
    },
    {
      "channel": 0,
      "note": 83,
      "start": 12.217,
      "duration": 0.1993,
      "velocity": 106,
      "chip": "ym2612"
    },
    {
      "channel": 1,
      "note": 59,
      "start": 12.2177,
      "duration": 0.099,
      "velocity": 101,
      "chip": "ym2612"
    },
    {
      "channel": 2,
      "note": 88,
      "start": 12.2185,
      "duration": 0.1993,
      "velocity": 106,
      "chip": "ym2612"
    },
    {
      "channel": 5,
      "note": 75,
      "start": 12.22,
      "duration": 0.0938,
      "velocity": 120,
      "chip": "ym2612"
    },
    {
      "channel": 1,
      "note": 59,
      "start": 12.3171,
      "duration": 0.1001,
      "velocity": 101,
      "chip": "ym2612"
    },
    {
      "channel": 4,
      "note": 83,
      "start": 12.3186,
      "duration": 0.1991,
      "velocity": 106,
      "chip": "ym2612"
    },
    {
      "channel": 5,
      "note": 75,
      "start": 12.3193,
      "duration": 0.0944,
      "velocity": 120,
      "chip": "ym2612"
    },
    {
      "channel": 0,
      "note": 86,
      "start": 12.417,
      "duration": 0.1993,
      "velocity": 106,
      "chip": "ym2612"
    },
    {
      "channel": 1,
      "note": 62,
      "start": 12.4177,
      "duration": 0.1994,
      "velocity": 101,
      "chip": "ym2612"
    },
    {
      "channel": 2,
      "note": 83,
      "start": 12.4185,
      "duration": 0.1993,
      "velocity": 106,
      "chip": "ym2612"
    },
    {
      "channel": 3,
      "note": 71,
      "start": 12.4192,
      "duration": 0.4256,
      "velocity": 106,
      "chip": "ym2612"
    },
    {
      "channel": 5,
      "note": 75,
      "start": 12.4203,
      "duration": 0.0934,
      "velocity": 120,
      "chip": "ym2612"
    },
    {
      "channel": 4,
      "note": 86,
      "start": 12.5184,
      "duration": 0.1993,
      "velocity": 106,
      "chip": "ym2612"
    },
    {
      "channel": 5,
      "note": 75,
      "start": 12.5191,
      "duration": 0.0946,
      "velocity": 120,
      "chip": "ym2612"
    },
    {
      "channel": 0,
      "note": 87,
      "start": 12.617,
      "duration": 0.2183,
      "velocity": 106,
      "chip": "ym2612"
    },
    {
      "channel": 1,
      "note": 63,
      "start": 12.6177,
      "duration": 0.2206,
      "velocity": 101,
      "chip": "ym2612"
    },
    {
      "channel": 2,
      "note": 86,
      "start": 12.6185,
      "duration": 0.2232,
      "velocity": 106,
      "chip": "ym2612"
    },
    {
      "channel": 5,
      "note": 75,
      "start": 12.62,
      "duration": 0.0938,
      "velocity": 120,
      "chip": "ym2612"
    },
    {
      "channel": 4,
      "note": 87,
      "start": 12.7184,
      "duration": 0.2158,
      "velocity": 106,
      "chip": "ym2612"
    },
    {
      "channel": 5,
      "note": 75,
      "start": 12.7191,
      "duration": 0.1113,
      "velocity": 120,
      "chip": "ym2612"
    },
    {
      "channel": 0,
      "note": 88,
      "start": 12.836,
      "duration": 0.197,
      "velocity": 106,
      "chip": "ym2612"
    },
    {
      "channel": 1,
      "note": 64,
      "start": 12.8388,
      "duration": 0.1948,
      "velocity": 101,
      "chip": "ym2612"
    },
    {
      "channel": 2,
      "note": 83,
      "start": 12.8423,
      "duration": 0.1919,
      "velocity": 106,
      "chip": "ym2612"
    },
    {
      "channel": 3,
      "note": 79,
      "start": 12.8455,
      "duration": 0.1894,
      "velocity": 106,
      "chip": "ym2612"
    },
    {
      "channel": 5,
      "note": 32,
      "start": 12.8467,
      "duration": 0.1189,
      "velocity": 114,
      "chip": "ym2612"
    },
    {
      "channel": 4,
      "note": 88,
      "start": 12.9348,
      "duration": 0.1981,
      "velocity": 106,
      "chip": "ym2612"
    },
    {
      "channel": 0,
      "note": 88,
      "start": 13.0335,
      "duration": 0.097,
      "velocity": 106,
      "chip": "ym2612"
    },
    {
      "channel": 1,
      "note": 64,
      "start": 13.0341,
      "duration": 0.097,
      "velocity": 101,
      "chip": "ym2612"
    },
    {
      "channel": 2,
      "note": 83,
      "start": 13.0347,
      "duration": 0.0969,
      "velocity": 106,
      "chip": "ym2612"
    },
    {
      "channel": 3,
      "note": 79,
      "start": 13.0354,
      "duration": 0.0969,
      "velocity": 106,
      "chip": "ym2612"
    },
    {
      "channel": 5,
      "note": 32,
      "start": 13.0366,
      "duration": 0.129,
      "velocity": 114,
      "chip": "ym2612"
    },
    {
      "channel": 0,
      "note": 88,
      "start": 13.131,
      "duration": 0.102,
      "velocity": 106,
      "chip": "ym2612"
    },
    {
      "channel": 1,
      "note": 64,
      "start": 13.1315,
      "duration": 0.1034,
      "velocity": 101,
      "chip": "ym2612"
    },
    {
      "channel": 2,
      "note": 83,
      "start": 13.1322,
      "duration": 0.1028,
      "velocity": 106,
      "chip": "ym2612"
    },
    {
      "channel": 3,
      "note": 79,
      "start": 13.1328,
      "duration": 0.1022,
      "velocity": 106,
      "chip": "ym2612"
    },
    {
      "channel": 4,
      "note": 88,
      "start": 13.1334,
      "duration": 0.1015,
      "velocity": 106,
      "chip": "ym2612"
    },
    {
      "channel": 0,
      "note": 88,
      "start": 13.2335,
      "duration": 0.0015,
      "velocity": 106,
      "chip": "ym2612"
    }
  ]
}