{
  "track_name": "48 - Wily's Tower- Mega Water-S Stage",
  "duration_sec": 39.832,
  "sample_rate": 44100,
  "note_count": 969,
  "unique_pitches": 25,
  "pitch_range": 56,
  "avg_note_duration": 0.2337,
  "reconstruction_stats": {
    "notes_reconstructed": 969,
    "keyon_events": 969,
    "keyoff_events": 967,
    "orphan_keyons": 2,
    "unique_pitches": 25,
    "pitch_range": 56,
    "avg_duration_sec": 0.2337
  },
  "metadata": {
    "source": "M\\Mega Man - The Wily Wars\\48 - Wily's Tower- Mega Water-S Stage.vgm"
  },
  "notes": [
    {
      "channel": 1,
      "note": 59,
      "start": 0.0,
      "duration": 0.0,
      "velocity": 1,
      "chip": "ym2612"
    },
    {
      "channel": 1,
      "note": 66,
      "start": 0.0,
      "duration": 0.1115,
      "velocity": 101,
      "chip": "ym2612"
    },
    {
      "channel": 5,
      "note": 75,
      "start": 0.0,
      "duration": 0.0,
      "velocity": 1,
      "chip": "ym2612"
    },
    {
      "channel": 2,
      "note": 73,
      "start": 0.0031,
      "duration": 0.1091,
      "velocity": 111,
      "chip": "ym2612"
    },
    {
      "channel": 5,
      "note": 32,
      "start": 0.007,
      "duration": 0.1555,
      "velocity": 114,
      "chip": "ym2612"
    },
    {
      "channel": 1,
      "note": 66,
      "start": 0.1121,
      "duration": 0.1527,
      "velocity": 101,
      "chip": "ym2612"
    },
    {
      "channel": 2,
      "note": 73,
      "start": 0.1127,
      "duration": 0.1528,
      "velocity": 111,
      "chip": "ym2612"
    },
    {
      "channel": 0,
      "note": 78,
      "start": 0.2646,
      "duration": 0.2827,
      "velocity": 106,
      "chip": "ym2612"
    },
    {
      "channel": 1,
      "note": 66,
      "start": 0.2654,
      "duration": 0.1464,
      "velocity": 101,
      "chip": "ym2612"
    },
    {
      "channel": 2,
      "note": 73,
      "start": 0.266,
      "duration": 0.2828,
      "velocity": 111,
      "chip": "ym2612"
    },
    {
      "channel": 3,
      "note": 73,
      "start": 0.2668,
      "duration": 0.2826,
      "velocity": 106,
      "chip": "ym2612"
    },
    {
      "channel": 5,
      "note": 75,
      "start": 0.2676,
      "duration": 0.2771,
      "velocity": 120,
      "chip": "ym2612"
    },
    {
      "channel": 1,
      "note": 66,
      "start": 0.4123,
      "duration": 0.1358,
      "velocity": 101,
      "chip": "ym2612"
    },
    {
      "channel": 4,
      "note": 78,
      "start": 0.414,
      "duration": 0.2863,
      "velocity": 106,
      "chip": "ym2612"
    },
    {
      "channel": 0,
      "note": 80,
      "start": 0.548,
      "duration": 0.1493,
      "velocity": 106,
      "chip": "ym2612"
    },
    {
      "channel": 1,
      "note": 66,
      "start": 0.5487,
      "duration": 0.1494,
      "velocity": 101,
      "chip": "ym2612"
    },
    {
      "channel": 2,
      "note": 73,
      "start": 0.5493,
      "duration": 0.1495,
      "velocity": 111,
      "chip": "ym2612"
    },
    {
      "channel": 3,
      "note": 76,
      "start": 0.5502,
      "duration": 0.1493,
      "velocity": 106,
      "chip": "ym2612"
    },
    {
      "channel": 5,
      "note": 32,
      "start": 0.5513,
      "duration": 0.1434,
      "velocity": 114,
      "chip": "ym2612"
    },
    {
      "channel": 0,
      "note": 81,
      "start": 0.698,
      "duration": 0.2993,
      "velocity": 106,
      "chip": "ym2612"
    },
    {
      "channel": 1,
      "note": 66,
      "start": 0.6987,
      "duration": 0.149,
      "velocity": 101,
      "chip": "ym2612"
    },
    {
      "channel": 2,
      "note": 73,
      "start": 0.6993,
      "duration": 0.2995,
      "velocity": 111,
      "chip": "ym2612"
    },
    {
      "channel": 3,
      "note": 78,
      "start": 0.7002,
      "duration": 0.2995,
      "velocity": 106,
      "chip": "ym2612"
    },
    {
      "channel": 4,
      "note": 80,
      "start": 0.701,
      "duration": 0.1482,
      "velocity": 106,
      "chip": "ym2612"
    },
    {
      "channel": 5,
      "note": 32,
      "start": 0.7017,
      "duration": 0.1429,
      "velocity": 114,
      "chip": "ym2612"
    },
    {
      "channel": 1,
      "note": 66,
      "start": 0.8483,
      "duration": 0.1499,
      "velocity": 101,
      "chip": "ym2612"
    },
    {
      "channel": 4,
      "note": 81,
      "start": 0.8498,
      "duration": 0.28,
      "velocity": 106,
      "chip": "ym2612"
    },
    {
      "channel": 5,
      "note": 75,
      "start": 0.8505,
      "duration": 0.1441,
      "velocity": 120,
      "chip": "ym2612"
    },
    {
      "channel": 0,
      "note": 78,
      "start": 0.998,
      "duration": 1.2994,
      "velocity": 106,
      "chip": "ym2612"
    },
    {
      "channel": 1,
      "note": 62,
      "start": 0.9987,
      "duration": 0.2824,
      "velocity": 101,
      "chip": "ym2612"
    },
    {
      "channel": 2,
      "note": 69,
      "start": 0.9995,
      "duration": 0.2824,
      "velocity": 111,
      "chip": "ym2612"
    },
    {
      "channel": 3,
      "note": 74,
      "start": 1.0003,
      "duration": 0.4321,
      "velocity": 106,
      "chip": "ym2612"
    },
    {
      "channel": 5,
      "note": 32,
      "start": 1.0015,
      "duration": 0.1785,
      "velocity": 114,
      "chip": "ym2612"
    },
    {
      "channel": 4,
      "note": 78,
      "start": 1.1304,
      "duration": 1.3162,
      "velocity": 106,
      "chip": "ym2612"
    },
    {
      "channel": 1,
      "note": 62,
      "start": 1.2817,
      "duration": 0.1494,
      "velocity": 101,
      "chip": "ym2612"
    },
    {
      "channel": 2,
      "note": 69,
      "start": 1.2824,
      "duration": 0.1494,
      "velocity": 111,
      "chip": "ym2612"
    },
    {
      "channel": 5,
      "note": 32,
      "start": 1.2842,
      "duration": 0.1438,
      "velocity": 114,
      "chip": "ym2612"
    },
    {
      "channel": 1,
      "note": 62,
      "start": 1.4317,
      "duration": 0.1469,
      "velocity": 101,
      "chip": "ym2612"
    },
    {
      "channel": 2,
      "note": 69,
      "start": 1.4323,
      "duration": 0.2828,
      "velocity": 111,
      "chip": "ym2612"
    },
    {
      "channel": 3,
      "note": 78,
      "start": 1.4331,
      "duration": 0.2826,
      "velocity": 106,
      "chip": "ym2612"
    },
    {
      "channel": 5,
      "note": 75,
      "start": 1.4343,
      "duration": 0.2771,
      "velocity": 120,
      "chip": "ym2612"
    },
    {
      "channel": 1,
      "note": 62,
      "start": 1.5792,
      "duration": 0.1352,
      "velocity": 101,
      "chip": "ym2612"
    },
    {
      "channel": 1,
      "note": 62,
      "start": 1.715,
      "duration": 0.1494,
      "velocity": 101,
      "chip": "ym2612"
    },
    {
      "channel": 2,
      "note": 69,
      "start": 1.7156,
      "duration": 0.1495,
      "velocity": 111,
      "chip": "ym2612"
    },
    {
      "channel": 3,
      "note": 80,
      "start": 1.7164,
      "duration": 0.1493,
      "velocity": 106,
      "chip": "ym2612"
    },
    {
      "channel": 5,
      "note": 32,
      "start": 1.7177,
      "duration": 0.1437,
      "velocity": 114,
      "chip": "ym2612"
    },
    {
      "channel": 1,
      "note": 62,
      "start": 1.865,
      "duration": 0.1494,
      "velocity": 101,
      "chip": "ym2612"
    },
    {
      "channel": 2,
      "note": 69,
      "start": 1.8656,
      "duration": 0.2803,
      "velocity": 111,
      "chip": "ym2612"
    },
    {
      "channel": 3,
      "note": 81,
      "start": 1.8664,
      "duration": 0.2803,
      "velocity": 106,
      "chip": "ym2612"
    },
    {
      "channel": 5,
      "note": 32,
      "start": 1.8677,
      "duration": 0.1437,
      "velocity": 114,
      "chip": "ym2612"
    },
    {
      "channel": 1,
      "note": 62,
      "start": 2.015,
      "duration": 0.1302,
      "velocity": 101,
      "chip": "ym2612"
    },
    {
      "channel": 5,
      "note": 75,
      "start": 2.017,
      "duration": 0.2778,
      "velocity": 120,
      "chip": "ym2612"
    },
    {
      "channel": 1,
      "note": 64,
      "start": 2.1458,
      "duration": 0.152,
      "velocity": 101,
      "chip": "ym2612"
    },
    {
      "channel": 2,
      "note": 71,
      "start": 2.1466,
      "duration": 0.152,
      "velocity": 111,
      "chip": "ym2612"
    },
    {
      "channel": 3,
      "note": 78,
      "start": 2.1474,
      "duration": 0.452,
      "velocity": 106,
      "chip": "ym2612"
    },
    {
      "channel": 1,
      "note": 66,
      "start": 2.2984,
      "duration": 0.1464,
      "velocity": 101,
      "chip": "ym2612"
    },
    {
      "channel": 2,
      "note": 73,
      "start": 2.2992,
      "duration": 0.1463,
      "velocity": 111,
      "chip": "ym2612"
    },
    {
      "channel": 5,
      "note": 32,
      "start": 2.3009,
      "duration": 0.1954,
      "velocity": 114,
      "chip": "ym2612"
    },
    {
      "channel": 1,
      "note": 66,
      "start": 2.4454,
      "duration": 0.1527,
      "velocity": 101,
      "chip": "ym2612"
    },
    {
      "channel": 2,
      "note": 73,
      "start": 2.446,
      "duration": 0.1528,
      "velocity": 111,
      "chip": "ym2612"
    },
    {
      "channel": 0,
      "note": 78,
      "start": 2.598,
      "duration": 0.2826,
      "velocity": 106,
      "chip": "ym2612"
    },
    {
      "channel": 1,
      "note": 66,
      "start": 2.5987,
      "duration": 0.1297,
      "velocity": 101,
      "chip": "ym2612"
    },
    {
      "channel": 2,
      "note": 73,
      "start": 2.5993,
      "duration": 0.2828,
      "velocity": 111,
      "chip": "ym2612"
    },
    {
      "channel": 3,
      "note": 73,
      "start": 2.6002,
      "duration": 0.2826,
      "velocity": 106,
      "chip": "ym2612"
    },
    {
      "channel": 5,
      "note": 75,
      "start": 2.6009,
      "duration": 0.2771,
      "velocity": 120,
      "chip": "ym2612"
    },
    {
      "channel": 1,
      "note": 66,
      "start": 2.729,
      "duration": 0.1525,
      "velocity": 101,
      "chip": "ym2612"
    },
    {
      "channel": 4,
      "note": 78,
      "start": 2.7306,
      "duration": 0.303,
      "velocity": 106,
      "chip": "ym2612"
    },
    {
      "channel": 0,
      "note": 80,
      "start": 2.8813,
      "duration": 0.1493,
      "velocity": 106,
      "chip": "ym2612"
    },
    {
      "channel": 1,
      "note": 66,
      "start": 2.882,
      "duration": 0.1494,
      "velocity": 101,
      "chip": "ym2612"
    },
    {
      "channel": 2,
      "note": 73,
      "start": 2.8827,
      "duration": 0.1495,
      "velocity": 111,
      "chip": "ym2612"
    },
    {
      "channel": 3,
      "note": 76,
      "start": 2.8835,
      "duration": 0.1493,
      "velocity": 106,
      "chip": "ym2612"
    },
    {
      "channel": 5,
      "note": 32,
      "start": 2.8846,
      "duration": 0.1434,
      "velocity": 114,
      "chip": "ym2612"
    },
    {
      "channel": 0,
      "note": 81,
      "start": 3.0313,
      "duration": 0.2826,
      "velocity": 106,
      "chip": "ym2612"
    },
    {
      "channel": 1,
      "note": 66,
      "start": 3.032,
      "duration": 0.149,
      "velocity": 101,
      "chip": "ym2612"
    },
    {
      "channel": 2,
      "note": 73,
      "start": 3.0327,
      "duration": 0.2828,
      "velocity": 111,
      "chip": "ym2612"
    },
    {
      "channel": 3,
      "note": 78,
      "start": 3.0335,
      "duration": 0.2828,
      "velocity": 106,
      "chip": "ym2612"
    },
    {
      "channel": 4,
      "note": 80,
      "start": 3.0343,
      "duration": 0.1482,
      "velocity": 106,
      "chip": "ym2612"
    },
    {
      "channel": 5,
      "note": 32,
      "start": 3.0351,
      "duration": 0.1429,
      "velocity": 114,
      "chip": "ym2612"
    },
    {
      "channel": 1,
      "note": 66,
      "start": 3.1816,
      "duration": 0.1332,
      "velocity": 101,
      "chip": "ym2612"
    },
    {
      "channel": 4,
      "note": 81,
      "start": 3.1832,
      "duration": 0.2802,
      "velocity": 106,
      "chip": "ym2612"
    },
    {
      "channel": 5,
      "note": 75,
      "start": 3.1839,
      "duration": 0.1275,
      "velocity": 120,
      "chip": "ym2612"
    },
    {
      "channel": 0,
      "note": 78,
      "start": 3.3147,
      "duration": 1.3161,
      "velocity": 106,
      "chip": "ym2612"
    },
    {
      "channel": 1,
      "note": 62,
      "start": 3.3154,
      "duration": 0.299,
      "velocity": 101,
      "chip": "ym2612"
    },
    {
      "channel": 2,
      "note": 69,
      "start": 3.3161,
      "duration": 0.299,
      "velocity": 111,
      "chip": "ym2612"
    },
    {
      "channel": 3,
      "note": 74,
      "start": 3.317,
      "duration": 0.7321,
      "velocity": 106,
      "chip": "ym2612"
    },
    {
      "channel": 5,
      "note": 32,
      "start": 3.3182,
      "duration": 0.1952,
      "velocity": 114,
      "chip": "ym2612"
    },
    {
      "channel": 4,
      "note": 78,
      "start": 3.464,
      "duration": 1.3159,
      "velocity": 106,
      "chip": "ym2612"
    },
    {
      "channel": 1,
      "note": 62,
      "start": 3.615,
      "duration": 0.1327,
      "velocity": 101,
      "chip": "ym2612"
    },
    {
      "channel": 2,
      "note": 69,
      "start": 3.6156,
      "duration": 0.1328,
      "velocity": 111,
      "chip": "ym2612"
    },
    {
      "channel": 5,
      "note": 32,
      "start": 3.6175,
      "duration": 0.1272,
      "velocity": 114,
      "chip": "ym2612"
    },
    {
      "channel": 1,
      "note": 62,
      "start": 3.7483,
      "duration": 0.1469,
      "velocity": 101,
      "chip": "ym2612"
    },
    {
      "channel": 2,
      "note": 69,
      "start": 3.749,
      "duration": 0.2995,
      "velocity": 111,
      "chip": "ym2612"
    },
    {
      "channel": 5,
      "note": 75,
      "start": 3.7506,
      "duration": 0.2941,
      "velocity": 120,
      "chip": "ym2612"
    },
    {
      "channel": 1,
      "note": 62,
      "start": 3.8958,
      "duration": 0.1519,
      "velocity": 101,
      "chip": "ym2612"
    },
    {
      "channel": 1,
      "note": 62,
      "start": 4.0483,
      "duration": 0.1494,
      "velocity": 101,
      "chip": "ym2612"
    },
    {
      "channel": 2,
      "note": 69,
      "start": 4.049,
      "duration": 0.1495,
      "velocity": 111,
      "chip": "ym2612"
    },
    {
      "channel": 3,
      "note": 85,
      "start": 4.0498,
      "duration": 0.1493,
      "velocity": 106,
      "chip": "ym2612"
    },
    {
      "channel": 5,
      "note": 32,
      "start": 4.051,
      "duration": 0.1437,
      "velocity": 114,
      "chip": "ym2612"
    },
    {
      "channel": 1,
      "note": 62,
      "start": 4.1983,
      "duration": 0.1327,
      "velocity": 101,
      "chip": "ym2612"
    },
    {
      "channel": 2,
      "note": 69,
      "start": 4.199,
      "duration": 0.2803,
      "velocity": 111,
      "chip": "ym2612"
    },
    {
      "channel": 3,
      "note": 83,
      "start": 4.1998,
      "duration": 0.2803,
      "velocity": 106,
      "chip": "ym2612"
    },
    {
      "channel": 5,
      "note": 32,
      "start": 4.201,
      "duration": 0.127,
      "velocity": 114,
      "chip": "ym2612"
    },
    {
      "channel": 1,
      "note": 62,
      "start": 4.3317,
      "duration": 0.1469,
      "velocity": 101,
      "chip": "ym2612"
    },
    {
      "channel": 5,
      "note": 75,
      "start": 4.3337,
      "duration": 0.2945,
      "velocity": 120,
      "chip": "ym2612"
    },
    {
      "channel": 1,
      "note": 64,
      "start": 4.4792,
      "duration": 0.152,
      "velocity": 101,
      "chip": "ym2612"
    },
    {
      "channel": 2,
      "note": 71,
      "start": 4.4799,
      "duration": 0.152,
      "velocity": 111,
      "chip": "ym2612"
    },
    {
      "channel": 3,
      "note": 81,
      "start": 4.4808,
      "duration": 0.1519,
      "velocity": 106,
      "chip": "ym2612"
    },
    {
      "channel": 1,
      "note": 66,
      "start": 4.6317,
      "duration": 0.1464,
      "velocity": 101,
      "chip": "ym2612"
    },
    {
      "channel": 2,
      "note": 73,
      "start": 4.6325,
      "duration": 0.1463,
      "velocity": 111,
      "chip": "ym2612"
    },
    {
      "channel": 3,
      "note": 78,
      "start": 4.6334,
      "duration": 0.2828,
      "velocity": 106,
      "chip": "ym2612"
    },
    {
      "channel": 5,
      "note": 32,
      "start": 4.6347,
      "duration": 0.1781,
      "velocity": 114,
      "chip": "ym2612"
    },
    {
      "channel": 1,
      "note": 66,
      "start": 4.7787,
      "duration": 0.1361,
      "velocity": 101,
      "chip": "ym2612"
    },
    {
      "channel": 2,
      "note": 73,
      "start": 4.7794,
      "duration": 0.1361,
      "velocity": 111,
      "chip": "ym2612"
    },
    {
      "channel": 0,
      "note": 78,
      "start": 4.9146,
      "duration": 0.2994,
      "velocity": 106,
      "chip": "ym2612"
    },
    {
      "channel": 1,
      "note": 66,
      "start": 4.9154,
      "duration": 0.1464,
      "velocity": 101,
      "chip": "ym2612"
    },
    {
      "channel": 2,
      "note": 73,
      "start": 4.916,
      "duration": 0.2995,
      "velocity": 111,
      "chip": "ym2612"
    },
    {
      "channel": 3,
      "note": 73,
      "start": 4.9168,
      "duration": 0.2993,
      "velocity": 106,
      "chip": "ym2612"
    },
    {
      "channel": 5,
      "note": 75,
      "start": 4.9176,
      "duration": 0.2938,
      "velocity": 120,
      "chip": "ym2612"
    },
    {
      "channel": 1,
      "note": 66,
      "start": 5.0623,
      "duration": 0.1525,
      "velocity": 101,
      "chip": "ym2612"
    },
    {
      "channel": 4,
      "note": 78,
      "start": 5.064,
      "duration": 0.2863,
      "velocity": 106,
      "chip": "ym2612"
    },
    {
      "channel": 0,
      "note": 80,
      "start": 5.2147,
      "duration": 0.1326,
      "velocity": 106,
      "chip": "ym2612"
    },
    {
      "channel": 1,
      "note": 66,
      "start": 5.2154,
      "duration": 0.1328,
      "velocity": 101,
      "chip": "ym2612"
    },
    {
      "channel": 2,
      "note": 73,
      "start": 5.216,
      "duration": 0.1328,
      "velocity": 111,
      "chip": "ym2612"
    },
    {
      "channel": 3,
      "note": 76,
      "start": 5.2168,
      "duration": 0.1326,
      "velocity": 106,
      "chip": "ym2612"
    },
    {
      "channel": 5,
      "note": 32,
      "start": 5.218,
      "duration": 0.1267,
      "velocity": 114,
      "chip": "ym2612"
    },
    {
      "channel": 0,
      "note": 81,
      "start": 5.348,
      "duration": 0.2993,
      "velocity": 106,
      "chip": "ym2612"
    },
    {
      "channel": 1,
      "note": 66,
      "start": 5.3487,
      "duration": 0.149,
      "velocity": 101,
      "chip": "ym2612"
    },
    {
      "channel": 2,
      "note": 73,
      "start": 5.3493,
      "duration": 0.2995,
      "velocity": 111,
      "chip": "ym2612"
    },
    {
      "channel": 3,
      "note": 78,
      "start": 5.3502,
      "duration": 0.2995,
      "velocity": 106,
      "chip": "ym2612"
    },
    {
      "channel": 4,
      "note": 80,
      "start": 5.351,
      "duration": 0.1482,
      "velocity": 106,
      "chip": "ym2612"
    },
    {
      "channel": 5,
      "note": 32,
      "start": 5.3517,
      "duration": 0.1429,
      "velocity": 114,
      "chip": "ym2612"
    },
    {
      "channel": 1,
      "note": 66,
      "start": 5.4983,
      "duration": 0.1499,
      "velocity": 101,
      "chip": "ym2612"
    },
    {
      "channel": 4,
      "note": 81,
      "start": 5.4998,
      "duration": 0.2964,
      "velocity": 106,
      "chip": "ym2612"
    },
    {
      "channel": 5,
      "note": 75,
      "start": 5.5005,
      "duration": 0.1441,
      "velocity": 120,
      "chip": "ym2612"
    },
    {
      "channel": 0,
      "note": 85,
      "start": 5.648,
      "duration": 0.866,
      "velocity": 106,
      "chip": "ym2612"
    },
    {
      "channel": 1,
      "note": 62,
      "start": 5.6487,
      "duration": 0.2824,
      "velocity": 101,
      "chip": "ym2612"
    },
    {
      "channel": 2,
      "note": 69,
      "start": 5.6495,
      "duration": 0.2823,
      "velocity": 111,
      "chip": "ym2612"
    },
    {
      "channel": 3,
      "note": 81,
      "start": 5.6503,
      "duration": 0.8658,
      "velocity": 106,
      "chip": "ym2612"
    },
    {
      "channel": 5,
      "note": 32,
      "start": 5.6515,
      "duration": 0.1952,
      "velocity": 114,
      "chip": "ym2612"
    },
    {
      "channel": 4,
      "note": 85,
      "start": 5.7969,
      "duration": 0.869,
      "velocity": 106,
      "chip": "ym2612"
    },
    {
      "channel": 1,
      "note": 62,
      "start": 5.9317,
      "duration": 0.1494,
      "velocity": 101,
      "chip": "ym2612"
    },
    {
      "channel": 2,
      "note": 69,
      "start": 5.9323,
      "duration": 0.1495,
      "velocity": 111,
      "chip": "ym2612"
    },
    {
      "channel": 5,
      "note": 32,
      "start": 5.9339,
      "duration": 0.1441,
      "velocity": 114,
      "chip": "ym2612"
    },
    {
      "channel": 1,
      "note": 62,
      "start": 6.0817,
      "duration": 0.1469,
      "velocity": 101,
      "chip": "ym2612"
    },
    {
      "channel": 2,
      "note": 69,
      "start": 6.0823,
      "duration": 0.2995,
      "velocity": 111,
      "chip": "ym2612"
    },
    {
      "channel": 5,
      "note": 75,
      "start": 6.0839,
      "duration": 0.2941,
      "velocity": 120,
      "chip": "ym2612"
    },
    {
      "channel": 1,
      "note": 62,
      "start": 6.2292,
      "duration": 0.1519,
      "velocity": 101,
      "chip": "ym2612"
    },
    {
      "channel": 1,
      "note": 62,
      "start": 6.3817,
      "duration": 0.1331,
      "velocity": 101,
      "chip": "ym2612"
    },
    {
      "channel": 2,
      "note": 69,
      "start": 6.3823,
      "duration": 0.1332,
      "velocity": 111,
      "chip": "ym2612"
    },
    {
      "channel": 5,
      "note": 32,
      "start": 6.3841,
      "duration": 0.1273,
      "velocity": 114,
      "chip": "ym2612"
    },
    {
      "channel": 0,
      "note": 78,
      "start": 6.5147,
      "duration": 0.4327,
      "velocity": 106,
      "chip": "ym2612"
    },
    {
      "channel": 1,
      "note": 62,
      "start": 6.5154,
      "duration": 0.149,
      "velocity": 101,
      "chip": "ym2612"
    },
    {
      "channel": 2,
      "note": 69,
      "start": 6.516,
      "duration": 0.4329,
      "velocity": 111,
      "chip": "ym2612"
    },
    {
      "channel": 3,
      "note": 73,
      "start": 6.5168,
      "duration": 0.4333,
      "velocity": 106,
      "chip": "ym2612"
    },
    {
      "channel": 5,
      "note": 32,
      "start": 6.5181,
      "duration": 0.1433,
      "velocity": 114,
      "chip": "ym2612"
    },
    {
      "channel": 1,
      "note": 62,
      "start": 6.6649,
      "duration": 0.1469,
      "velocity": 101,
      "chip": "ym2612"
    },
    {
      "channel": 4,
      "note": 78,
      "start": 6.6665,
      "duration": 0.4303,
      "velocity": 106,
      "chip": "ym2612"
    },
    {
      "channel": 5,
      "note": 75,
      "start": 6.6673,
      "duration": 0.2775,
      "velocity": 120,
      "chip": "ym2612"
    },
    {
      "channel": 1,
      "note": 62,
      "start": 6.8124,
      "duration": 0.1358,
      "velocity": 101,
      "chip": "ym2612"
    },
    {
      "channel": 0,
      "note": 83,
      "start": 6.948,
      "duration": 0.4467,
      "velocity": 106,
      "chip": "ym2612"
    },
    {
      "channel": 1,
      "note": 61,
      "start": 6.9488,
      "duration": 0.1463,
      "velocity": 101,
      "chip": "ym2612"
    },
    {
      "channel": 2,
      "note": 68,
      "start": 6.9496,
      "duration": 0.1462,
      "velocity": 111,
      "chip": "ym2612"
    },
    {
      "channel": 3,
      "note": 80,
      "start": 6.9508,
      "duration": 0.4459,
      "velocity": 106,
      "chip": "ym2612"
    },
    {
      "channel": 5,
      "note": 32,
      "start": 6.9521,
      "duration": 0.1946,
      "velocity": 114,
      "chip": "ym2612"
    },
    {
      "channel": 1,
      "note": 61,
      "start": 7.0956,
      "duration": 0.1521,
      "velocity": 101,
      "chip": "ym2612"
    },
    {
      "channel": 2,
      "note": 68,
      "start": 7.0963,
      "duration": 0.1522,
      "velocity": 111,
      "chip": "ym2612"
    },
    {
      "channel": 4,
      "note": 83,
      "start": 7.0975,
      "duration": 0.4352,
      "velocity": 106,
      "chip": "ym2612"
    },
    {
      "channel": 1,
      "note": 61,
      "start": 7.2483,
      "duration": 0.1473,
      "velocity": 101,
      "chip": "ym2612"
    },
    {
      "channel": 2,
      "note": 68,
      "start": 7.249,
      "duration": 0.2827,
      "velocity": 111,
      "chip": "ym2612"
    },
    {
      "channel": 5,
      "note": 75,
      "start": 7.2505,
      "duration": 0.2776,
      "velocity": 120,
      "chip": "ym2612"
    },
    {
      "channel": 0,
      "note": 81,
      "start": 7.3954,
      "duration": 0.4352,
      "velocity": 106,
      "chip": "ym2612"
    },
    {
      "channel": 1,
      "note": 61,
      "start": 7.3961,
      "duration": 0.1349,
      "velocity": 101,
      "chip": "ym2612"
    },
    {
      "channel": 3,
      "note": 78,
      "start": 7.3974,
      "duration": 0.4352,
      "velocity": 106,
      "chip": "ym2612"
    },
    {
      "channel": 1,
      "note": 61,
      "start": 7.5316,
      "duration": 0.1495,
      "velocity": 101,
      "chip": "ym2612"
    },
    {
      "channel": 2,
      "note": 68,
      "start": 7.5322,
      "duration": 0.1495,
      "velocity": 111,
      "chip": "ym2612"
    },
    {
      "channel": 4,
      "note": 81,
      "start": 7.5334,
      "duration": 0.4495,
      "velocity": 106,
      "chip": "ym2612"
    },
    {
      "channel": 5,
      "note": 32,
      "start": 7.5342,
      "duration": 0.1438,
      "velocity": 114,
      "chip": "ym2612"
    },
    {
      "channel": 1,
      "note": 61,
      "start": 7.6817,
      "duration": 0.1498,
      "velocity": 101,
      "chip": "ym2612"
    },
    {
      "channel": 2,
      "note": 68,
      "start": 7.6823,
      "duration": 0.2994,
      "velocity": 111,
      "chip": "ym2612"
    },
    {
      "channel": 5,
      "note": 32,
      "start": 7.6839,
      "duration": 0.1441,
      "velocity": 114,
      "chip": "ym2612"
    },
    {
      "channel": 0,
      "note": 80,
      "start": 7.8313,
      "duration": 0.2801,
      "velocity": 106,
      "chip": "ym2612"
    },
    {
      "channel": 1,
      "note": 61,
      "start": 7.832,
      "duration": 0.149,
      "velocity": 101,
      "chip": "ym2612"
    },
    {
      "channel": 3,
      "note": 77,
      "start": 7.8333,
      "duration": 0.2797,
      "velocity": 106,
      "chip": "ym2612"
    },
    {
      "channel": 5,
      "note": 75,
      "start": 7.8344,
      "duration": 0.1436,
      "velocity": 120,
      "chip": "ym2612"
    },
    {
      "channel": 1,
      "note": 62,
      "start": 7.9816,
      "duration": 0.2832,
      "velocity": 101,
      "chip": "ym2612"
    },
    {
      "channel": 2,
      "note": 69,
      "start": 7.9824,
      "duration": 0.2831,
      "velocity": 111,
      "chip": "ym2612"
    },
    {
      "channel": 4,
      "note": 80,
      "start": 7.9836,
      "duration": 0.2834,
      "velocity": 106,
      "chip": "ym2612"
    },
    {
      "channel": 5,
      "note": 32,
      "start": 7.9844,
      "duration": 0.179,
      "velocity": 114,
      "chip": "ym2612"
    },
    {
      "channel": 0,
      "note": 84,
      "start": 8.1121,
      "duration": 0.1519,
      "velocity": 106,
      "chip": "ym2612"
    },
    {
      "channel": 3,
      "note": 81,
      "start": 8.1137,
      "duration": 0.1524,
      "velocity": 106,
      "chip": "ym2612"
    },
    {
      "channel": 0,
      "note": 83,
      "start": 8.2647,
      "duration": 0.1497,
      "velocity": 106,
      "chip": "ym2612"
    },
    {
      "channel": 1,
      "note": 62,
      "start": 8.2654,
      "duration": 0.1498,
      "velocity": 101,
      "chip": "ym2612"
    },
    {
      "channel": 2,
      "note": 69,
      "start": 8.266,
      "duration": 0.1499,
      "velocity": 111,
      "chip": "ym2612"
    },
    {
      "channel": 3,
      "note": 80,
      "start": 8.2668,
      "duration": 0.1501,
      "velocity": 106,
      "chip": "ym2612"
    },
    {
      "channel": 4,
      "note": 84,
      "start": 8.2676,
      "duration": 0.1501,
      "velocity": 106,
      "chip": "ym2612"
    },
    {
      "channel": 5,
      "note": 32,
      "start": 8.2685,
      "duration": 0.1429,
      "velocity": 114,
      "chip": "ym2612"
    },
    {
      "channel": 0,
      "note": 83,
      "start": 8.415,
      "duration": 0.1301,
      "velocity": 106,
      "chip": "ym2612"
    },
    {
      "channel": 1,
      "note": 62,
      "start": 8.4157,
      "duration": 0.1302,
      "velocity": 101,
      "chip": "ym2612"
    },
    {
      "channel": 2,
      "note": 69,
      "start": 8.4164,
      "duration": 0.282,
      "velocity": 111,
      "chip": "ym2612"
    },
    {
      "channel": 3,
      "note": 80,
      "start": 8.4175,
      "duration": 0.13,
      "velocity": 106,
      "chip": "ym2612"
    },
    {
      "channel": 4,
      "note": 83,
      "start": 8.4183,
      "duration": 0.1303,
      "velocity": 106,
      "chip": "ym2612"
    },
    {
      "channel": 5,
      "note": 75,
      "start": 8.4191,
      "duration": 0.2756,
      "velocity": 120,
      "chip": "ym2612"
    },
    {
      "channel": 0,
      "note": 81,
      "start": 8.5458,
      "duration": 0.3015,
      "velocity": 106,
      "chip": "ym2612"
    },
    {
      "channel": 1,
      "note": 62,
      "start": 8.5465,
      "duration": 0.1512,
      "velocity": 101,
      "chip": "ym2612"
    },
    {
      "channel": 3,
      "note": 76,
      "start": 8.5482,
      "duration": 0.3013,
      "velocity": 106,
      "chip": "ym2612"
    },
    {
      "channel": 4,
      "note": 83,
      "start": 8.5494,
      "duration": 0.1505,
      "velocity": 106,
      "chip": "ym2612"
    },
    {
      "channel": 1,
      "note": 64,
      "start": 8.6983,
      "duration": 0.1499,
      "velocity": 101,
      "chip": "ym2612"
    },
    {
      "channel": 2,
      "note": 71,
      "start": 8.699,
      "duration": 0.1498,
      "velocity": 111,
      "chip": "ym2612"
    },
    {
      "channel": 4,
      "note": 81,
      "start": 8.7006,
      "duration": 0.2995,
      "velocity": 106,
      "chip": "ym2612"
    },
    {
      "channel": 5,
      "note": 32,
      "start": 8.7014,
      "duration": 0.1433,
      "velocity": 114,
      "chip": "ym2612"
    },
    {
      "channel": 0,
      "note": 78,
      "start": 8.848,
      "duration": 0.1493,
      "velocity": 106,
      "chip": "ym2612"
    },
    {
      "channel": 1,
      "note": 64,
      "start": 8.8487,
      "duration": 0.1494,
      "velocity": 101,
      "chip": "ym2612"
    },
    {
      "channel": 2,
      "note": 71,
      "start": 8.8493,
      "duration": 0.283,
      "velocity": 111,
      "chip": "ym2612"
    },
    {
      "channel": 3,
      "note": 76,
      "start": 8.85,
      "duration": 0.1493,
      "velocity": 106,
      "chip": "ym2612"
    },
    {
      "channel": 5,
      "note": 75,
      "start": 8.851,
      "duration": 0.1437,
      "velocity": 120,
      "chip": "ym2612"
    },
    {
      "channel": 0,
      "note": 76,
      "start": 8.998,
      "duration": 0.1327,
      "velocity": 106,
      "chip": "ym2612"
    },
    {
      "channel": 1,
      "note": 64,
      "start": 8.9987,
      "duration": 0.1328,
      "velocity": 101,
      "chip": "ym2612"
    },
    {
      "channel": 3,
      "note": 71,
      "start": 8.9999,
      "duration": 0.1335,
      "velocity": 106,
      "chip": "ym2612"
    },
    {
      "channel": 4,
      "note": 78,
      "start": 9.0007,
      "duration": 0.1335,
      "velocity": 106,
      "chip": "ym2612"
    },
    {
      "channel": 5,
      "note": 75,
      "start": 9.0015,
      "duration": 0.1265,
      "velocity": 120,
      "chip": "ym2612"
    },
    {
      "channel": 0,
      "note": 77,
      "start": 9.1314,
      "duration": 0.1495,
      "velocity": 106,
      "chip": "ym2612"
    },
    {
      "channel": 1,
      "note": 64,
      "start": 9.1321,
      "duration": 0.1492,
      "velocity": 101,
      "chip": "ym2612"
    },
    {
      "channel": 2,
      "note": 71,
      "start": 9.1328,
      "duration": 0.1493,
      "velocity": 111,
      "chip": "ym2612"
    },
    {
      "channel": 3,
      "note": 72,
      "start": 9.1341,
      "duration": 0.1489,
      "velocity": 106,
      "chip": "ym2612"
    },
    {
      "channel": 4,
      "note": 76,
      "start": 9.1349,
      "duration": 0.1485,
      "velocity": 106,
      "chip": "ym2612"
    },
    {
      "channel": 5,
      "note": 32,
      "start": 9.1357,
      "duration": 0.1424,
      "velocity": 114,
      "chip": "ym2612"
    },
    {
      "channel": 1,
      "note": 66,
      "start": 9.2818,
      "duration": 0.1463,
      "velocity": 101,
      "chip": "ym2612"
    },
    {
      "channel": 2,
      "note": 73,
      "start": 9.2828,
      "duration": 0.1461,
      "velocity": 111,
      "chip": "ym2612"
    },
    {
      "channel": 4,
      "note": 77,
      "start": 9.2841,
      "duration": 0.1456,
      "velocity": 106,
      "chip": "ym2612"
    },
    {
      "channel": 5,
      "note": 32,
      "start": 9.285,
      "duration": 0.1942,
      "velocity": 114,
      "chip": "ym2612"
    },
    {
      "channel": 1,
      "note": 66,
      "start": 9.4287,
      "duration": 0.1527,
      "velocity": 101,
      "chip": "ym2612"
    },
    {
      "channel": 2,
      "note": 73,
      "start": 9.4294,
      "duration": 0.1528,
      "velocity": 111,
      "chip": "ym2612"
    },
    {
      "channel": 0,
      "note": 78,
      "start": 9.5813,
      "duration": 0.2826,
      "velocity": 106,
      "chip": "ym2612"
    },
    {
      "channel": 1,
      "note": 66,
      "start": 9.582,
      "duration": 0.1297,
      "velocity": 101,
      "chip": "ym2612"
    },
    {
      "channel": 2,
      "note": 73,
      "start": 9.5827,
      "duration": 0.2828,
      "velocity": 111,
      "chip": "ym2612"
    },
    {
      "channel": 3,
      "note": 73,
      "start": 9.5835,
      "duration": 0.2826,
      "velocity": 106,
      "chip": "ym2612"
    },
    {
      "channel": 5,
      "note": 75,
      "start": 9.5843,
      "duration": 0.2771,
      "velocity": 120,
      "chip": "ym2612"
    },
    {
      "channel": 1,
      "note": 66,
      "start": 9.7123,
      "duration": 0.1525,
      "velocity": 101,
      "chip": "ym2612"
    },
    {
      "channel": 4,
      "note": 78,
      "start": 9.714,
      "duration": 0.303,
      "velocity": 106,
      "chip": "ym2612"
    },
    {
      "channel": 0,
      "note": 80,
      "start": 9.8647,
      "duration": 0.1493,
      "velocity": 106,
      "chip": "ym2612"
    },
    {
      "channel": 1,
      "note": 66,
      "start": 9.8654,
      "duration": 0.1494,
      "velocity": 101,
      "chip": "ym2612"
    },
    {
      "channel": 2,
      "note": 73,
      "start": 9.866,
      "duration": 0.1495,
      "velocity": 111,
      "chip": "ym2612"
    },
    {
      "channel": 3,
      "note": 76,
      "start": 9.8668,
      "duration": 0.1493,
      "velocity": 106,
      "chip": "ym2612"
    },
    {
      "channel": 5,
      "note": 32,
      "start": 9.868,
      "duration": 0.1434,
      "velocity": 114,
      "chip": "ym2612"
    },
    {
      "channel": 0,
      "note": 81,
      "start": 10.0147,
      "duration": 0.2826,
      "velocity": 106,
      "chip": "ym2612"
    },
    {
      "channel": 1,
      "note": 66,
      "start": 10.0154,
      "duration": 0.1323,
      "velocity": 101,
      "chip": "ym2612"
    },
    {
      "channel": 2,
      "note": 73,
      "start": 10.016,
      "duration": 0.2828,
      "velocity": 111,
      "chip": "ym2612"
    },
    {
      "channel": 3,
      "note": 78,
      "start": 10.0168,
      "duration": 0.2828,
      "velocity": 106,
      "chip": "ym2612"
    },
    {
      "channel": 4,
      "note": 80,
      "start": 10.0176,
      "duration": 0.1315,
      "velocity": 106,
      "chip": "ym2612"
    },
    {
      "channel": 5,
      "note": 32,
      "start": 10.0184,
      "duration": 0.1263,
      "velocity": 114,
      "chip": "ym2612"
    },
    {
      "channel": 1,
      "note": 66,
      "start": 10.1483,
      "duration": 0.1499,
      "velocity": 101,
      "chip": "ym2612"
    },
    {
      "channel": 4,
      "note": 81,
      "start": 10.1498,
      "duration": 0.2966,
      "velocity": 106,
      "chip": "ym2612"
    },
    {
      "channel": 5,
      "note": 75,
      "start": 10.1505,
      "duration": 0.1441,
      "velocity": 120,
      "chip": "ym2612"
    },
    {
      "channel": 0,
      "note": 78,
      "start": 10.298,
      "duration": 1.3161,
      "velocity": 106,
      "chip": "ym2612"
    },
    {
      "channel": 1,
      "note": 62,
      "start": 10.2987,
      "duration": 0.299,
      "velocity": 101,
      "chip": "ym2612"
    },
    {
      "channel": 2,
      "note": 69,
      "start": 10.2995,
      "duration": 0.299,
      "velocity": 111,
      "chip": "ym2612"
    },
    {
      "channel": 3,
      "note": 74,
      "start": 10.3003,
      "duration": 0.4321,
      "velocity": 106,
      "chip": "ym2612"
    },
    {
      "channel": 5,
      "note": 32,
      "start": 10.3015,
      "duration": 0.1952,
      "velocity": 114,
      "chip": "ym2612"
    },
    {
      "channel": 4,
      "note": 78,
      "start": 10.4471,
      "duration": 1.2996,
      "velocity": 106,
      "chip": "ym2612"
    },
    {
      "channel": 1,
      "note": 62,
      "start": 10.5983,
      "duration": 0.1327,
      "velocity": 101,
      "chip": "ym2612"
    },
    {
      "channel": 2,
      "note": 69,
      "start": 10.599,
      "duration": 0.1328,
      "velocity": 111,
      "chip": "ym2612"
    },
    {
      "channel": 5,
      "note": 32,
      "start": 10.6008,
      "duration": 0.1272,
      "velocity": 114,
      "chip": "ym2612"
    },
    {
      "channel": 1,
      "note": 62,
      "start": 10.7317,
      "duration": 0.1469,
      "velocity": 101,
      "chip": "ym2612"
    },
    {
      "channel": 2,
      "note": 69,
      "start": 10.7323,
      "duration": 0.2995,
      "velocity": 111,
      "chip": "ym2612"
    },
    {
      "channel": 3,
      "note": 78,
      "start": 10.7331,
      "duration": 0.2993,
      "velocity": 106,
      "chip": "ym2612"
    },
    {
      "channel": 5,
      "note": 75,
      "start": 10.7343,
      "duration": 0.2938,
      "velocity": 120,
      "chip": "ym2612"
    },
    {
      "channel": 1,
      "note": 62,
      "start": 10.8792,
      "duration": 0.1519,
      "velocity": 101,
      "chip": "ym2612"
    },
    {
      "channel": 1,
      "note": 62,
      "start": 11.0317,
      "duration": 0.1495,
      "velocity": 101,
      "chip": "ym2612"
    },
    {
      "channel": 2,
      "note": 69,
      "start": 11.0323,
      "duration": 0.1495,
      "velocity": 111,
      "chip": "ym2612"
    },
    {
      "channel": 3,
      "note": 80,
      "start": 11.0331,
      "duration": 0.1494,
      "velocity": 106,
      "chip": "ym2612"
    },
    {
      "channel": 5,
      "note": 32,
      "start": 11.0344,
      "duration": 0.1437,
      "velocity": 114,
      "chip": "ym2612"
    },
    {
      "channel": 1,
      "note": 62,
      "start": 11.1817,
      "duration": 0.1327,
      "velocity": 101,
      "chip": "ym2612"
    },
    {
      "channel": 2,
      "note": 69,
      "start": 11.1824,
      "duration": 0.2803,
      "velocity": 111,
      "chip": "ym2612"
    },
    {
      "channel": 3,
      "note": 81,
      "start": 11.1832,
      "duration": 0.2803,
      "velocity": 106,
      "chip": "ym2612"
    },
    {
      "channel": 5,
      "note": 32,
      "start": 11.1844,
      "duration": 0.1269,
      "velocity": 114,
      "chip": "ym2612"
    },
    {
      "channel": 1,
      "note": 62,
      "start": 11.315,
      "duration": 0.1469,
      "velocity": 101,
      "chip": "ym2612"
    },
    {
      "channel": 5,
      "note": 75,
      "start": 11.317,
      "duration": 0.2945,
      "velocity": 120,
      "chip": "ym2612"
    },
    {
      "channel": 1,
      "note": 64,
      "start": 11.4625,
      "duration": 0.152,
      "velocity": 101,
      "chip": "ym2612"
    },
    {
      "channel": 2,
      "note": 71,
      "start": 11.4633,
      "duration": 0.152,
      "velocity": 111,
      "chip": "ym2612"
    },
    {
      "channel": 3,
      "note": 78,
      "start": 11.4641,
      "duration": 0.4354,
      "velocity": 106,
      "chip": "ym2612"
    },
    {
      "channel": 1,
      "note": 66,
      "start": 11.6151,
      "duration": 0.1297,
      "velocity": 101,
      "chip": "ym2612"
    },
    {
      "channel": 2,
      "note": 73,
      "start": 11.6159,
      "duration": 0.1296,
      "velocity": 111,
      "chip": "ym2612"
    },
    {
      "channel": 5,
      "note": 32,
      "start": 11.6175,
      "duration": 0.1787,
      "velocity": 114,
      "chip": "ym2612"
    },
    {
      "channel": 1,
      "note": 66,
      "start": 11.7454,
      "duration": 0.1527,
      "velocity": 101,
      "chip": "ym2612"
    },
    {
      "channel": 2,
      "note": 73,
      "start": 11.746,
      "duration": 0.1528,
      "velocity": 111,
      "chip": "ym2612"
    },
    {
      "channel": 0,
      "note": 78,
      "start": 11.898,
      "duration": 0.2993,
      "velocity": 106,
      "chip": "ym2612"
    },
    {
      "channel": 1,
      "note": 66,
      "start": 11.8987,
      "duration": 0.1464,
      "velocity": 101,
      "chip": "ym2612"
    },
    {
      "channel": 2,
      "note": 73,
      "start": 11.8993,
      "duration": 0.2995,
      "velocity": 111,
      "chip": "ym2612"
    },
    {
      "channel": 3,
      "note": 73,
      "start": 11.9002,
      "duration": 0.2993,
      "velocity": 106,
      "chip": "ym2612"
    },
    {
      "channel": 5,
      "note": 75,
      "start": 11.9009,
      "duration": 0.2938,
      "velocity": 120,
      "chip": "ym2612"
    },
    {
      "channel": 1,
      "note": 66,
      "start": 12.0456,
      "duration": 0.1525,
      "velocity": 101,
      "chip": "ym2612"
    },
    {
      "channel": 4,
      "note": 78,
      "start": 12.0473,
      "duration": 0.2863,
      "velocity": 106,
      "chip": "ym2612"
    },
    {
      "channel": 0,
      "note": 80,
      "start": 12.198,
      "duration": 0.1326,
      "velocity": 106,
      "chip": "ym2612"
    },
    {
      "channel": 1,
      "note": 66,
      "start": 12.1987,
      "duration": 0.1328,
      "velocity": 101,
      "chip": "ym2612"
    },
    {
      "channel": 2,
      "note": 73,
      "start": 12.1993,
      "duration": 0.1328,
      "velocity": 111,
      "chip": "ym2612"
    },
    {
      "channel": 3,
      "note": 76,
      "start": 12.2002,
      "duration": 0.1326,
      "velocity": 106,
      "chip": "ym2612"
    },
    {
      "channel": 5,
      "note": 32,
      "start": 12.2013,
      "duration": 0.1267,
      "velocity": 114,
      "chip": "ym2612"
    },
    {
      "channel": 0,
      "note": 81,
      "start": 12.3313,
      "duration": 0.2993,
      "velocity": 106,
      "chip": "ym2612"
    },
    {
      "channel": 1,
      "note": 66,
      "start": 12.332,
      "duration": 0.149,
      "velocity": 101,
      "chip": "ym2612"
    },
    {
      "channel": 2,
      "note": 73,
      "start": 12.3327,
      "duration": 0.2995,
      "velocity": 111,
      "chip": "ym2612"
    },
    {
      "channel": 3,
      "note": 78,
      "start": 12.3335,
      "duration": 0.2995,
      "velocity": 106,
      "chip": "ym2612"
    },
    {
      "channel": 4,
      "note": 80,
      "start": 12.3343,
      "duration": 0.1482,
      "velocity": 106,
      "chip": "ym2612"
    },
    {
      "channel": 5,
      "note": 32,
      "start": 12.3351,
      "duration": 0.1429,
      "velocity": 114,
      "chip": "ym2612"
    },
    {
      "channel": 1,
      "note": 66,
      "start": 12.4816,
      "duration": 0.1499,
      "velocity": 101,
      "chip": "ym2612"
    },
    {
      "channel": 4,
      "note": 81,
      "start": 12.4832,
      "duration": 0.2968,
      "velocity": 106,
      "chip": "ym2612"
    },
    {
      "channel": 5,
      "note": 75,
      "start": 12.4839,
      "duration": 0.1441,
      "velocity": 120,
      "chip": "ym2612"
    },
    {
      "channel": 0,
      "note": 78,
      "start": 12.6313,
      "duration": 1.2994,
      "velocity": 106,
      "chip": "ym2612"
    },
    {
      "channel": 1,
      "note": 62,
      "start": 12.632,
      "duration": 0.2824,
      "velocity": 101,
      "chip": "ym2612"
    },
    {
      "channel": 2,
      "note": 69,
      "start": 12.6328,
      "duration": 0.2824,
      "velocity": 111,
      "chip": "ym2612"
    },
    {
      "channel": 3,
      "note": 74,
      "start": 12.6336,
      "duration": 0.7154,
      "velocity": 106,
      "chip": "ym2612"
    },
    {
      "channel": 5,
      "note": 32,
      "start": 12.6348,
      "duration": 0.1785,
      "velocity": 114,
      "chip": "ym2612"
    },
    {
      "channel": 4,
      "note": 78,
      "start": 12.7806,
      "duration": 1.2992,
      "velocity": 106,
      "chip": "ym2612"
    },
    {
      "channel": 1,
      "note": 62,
      "start": 12.915,
      "duration": 0.1494,
      "velocity": 101,
      "chip": "ym2612"
    },
    {
      "channel": 2,
      "note": 69,
      "start": 12.9156,
      "duration": 0.1495,
      "velocity": 111,
      "chip": "ym2612"
    },
    {
      "channel": 5,
      "note": 32,
      "start": 12.9175,
      "duration": 0.1439,
      "velocity": 114,
      "chip": "ym2612"
    },
    {
      "channel": 1,
      "note": 62,
      "start": 13.065,
      "duration": 0.1469,
      "velocity": 101,
      "chip": "ym2612"
    },
    {
      "channel": 2,
      "note": 69,
      "start": 13.0656,
      "duration": 0.2828,
      "velocity": 111,
      "chip": "ym2612"
    },
    {
      "channel": 5,
      "note": 75,
      "start": 13.0673,
      "duration": 0.2774,
      "velocity": 120,
      "chip": "ym2612"
    },
    {
      "channel": 1,
      "note": 62,
      "start": 13.2125,
      "duration": 0.1352,
      "velocity": 101,
      "chip": "ym2612"
    },
    {
      "channel": 1,
      "note": 62,
      "start": 13.3483,
      "duration": 0.1494,
      "velocity": 101,
      "chip": "ym2612"
    },
    {
      "channel": 2,
      "note": 69,
      "start": 13.349,
      "duration": 0.1495,
      "velocity": 111,
      "chip": "ym2612"
    },
    {
      "channel": 3,
      "note": 85,
      "start": 13.3498,
      "duration": 0.1493,
      "velocity": 106,
      "chip": "ym2612"
    },
    {
      "channel": 5,
      "note": 32,
      "start": 13.351,
      "duration": 0.1437,
      "velocity": 114,
      "chip": "ym2612"
    },
    {
      "channel": 1,
      "note": 62,
      "start": 13.4983,
      "duration": 0.1494,
      "velocity": 101,
      "chip": "ym2612"
    },
    {
      "channel": 2,
      "note": 69,
      "start": 13.499,
      "duration": 0.297,
      "velocity": 111,
      "chip": "ym2612"
    },
    {
      "channel": 3,
      "note": 83,
      "start": 13.4998,
      "duration": 0.297,
      "velocity": 106,
      "chip": "ym2612"
    },
    {
      "channel": 5,
      "note": 32,
      "start": 13.501,
      "duration": 0.1437,
      "velocity": 114,
      "chip": "ym2612"
    },
    {
      "channel": 1,
      "note": 62,
      "start": 13.6483,
      "duration": 0.1469,
      "velocity": 101,
      "chip": "ym2612"
    },
    {
      "channel": 5,
      "note": 75,
      "start": 13.6503,
      "duration": 0.2778,
      "velocity": 120,
      "chip": "ym2612"
    },
    {
      "channel": 1,
      "note": 64,
      "start": 13.7958,
      "duration": 0.1353,
      "velocity": 101,
      "chip": "ym2612"
    },
    {
      "channel": 2,
      "note": 71,
      "start": 13.7966,
      "duration": 0.1353,
      "velocity": 111,
      "chip": "ym2612"
    },
    {
      "channel": 3,
      "note": 81,
      "start": 13.7974,
      "duration": 0.1353,
      "velocity": 106,
      "chip": "ym2612"
    },
    {
      "channel": 1,
      "note": 66,
      "start": 13.9317,
      "duration": 0.1464,
      "velocity": 101,
      "chip": "ym2612"
    },
    {
      "channel": 2,
      "note": 73,
      "start": 13.9325,
      "duration": 0.1463,
      "velocity": 111,
      "chip": "ym2612"
    },
    {
      "channel": 3,
      "note": 78,
      "start": 13.9334,
      "duration": 0.2994,
      "velocity": 106,
      "chip": "ym2612"
    },
    {
      "channel": 5,
      "note": 32,
      "start": 13.9346,
      "duration": 0.1948,
      "velocity": 114,
      "chip": "ym2612"
    },
    {
      "channel": 1,
      "note": 66,
      "start": 14.0787,
      "duration": 0.1527,
      "velocity": 101,
      "chip": "ym2612"
    },
    {
      "channel": 2,
      "note": 73,
      "start": 14.0794,
      "duration": 0.1528,
      "velocity": 111,
      "chip": "ym2612"
    },
    {
      "channel": 0,
      "note": 78,
      "start": 14.2313,
      "duration": 0.2827,
      "velocity": 106,
      "chip": "ym2612"
    },
    {
      "channel": 1,
      "note": 66,
      "start": 14.232,
      "duration": 0.1464,
      "velocity": 101,
      "chip": "ym2612"
    },
    {
      "channel": 2,
      "note": 73,
      "start": 14.2327,
      "duration": 0.2828,
      "velocity": 111,
      "chip": "ym2612"
    },
    {
      "channel": 3,
      "note": 73,
      "start": 14.2335,
      "duration": 0.2826,
      "velocity": 106,
      "chip": "ym2612"
    },
    {
      "channel": 5,
      "note": 75,
      "start": 14.2343,
      "duration": 0.2771,
      "velocity": 120,
      "chip": "ym2612"
    },
    {
      "channel": 1,
      "note": 66,
      "start": 14.379,
      "duration": 0.1358,
      "velocity": 101,
      "chip": "ym2612"
    },
    {
      "channel": 4,
      "note": 78,
      "start": 14.3806,
      "duration": 0.2863,
      "velocity": 106,
      "chip": "ym2612"
    },
    {
      "channel": 0,
      "note": 80,
      "start": 14.5147,
      "duration": 0.1493,
      "velocity": 106,
      "chip": "ym2612"
    },
    {
      "channel": 1,
      "note": 66,
      "start": 14.5154,
      "duration": 0.1494,
      "velocity": 101,
      "chip": "ym2612"
    },
    {
      "channel": 2,
      "note": 73,
      "start": 14.516,
      "duration": 0.1495,
      "velocity": 111,
      "chip": "ym2612"
    },
    {
      "channel": 3,
      "note": 76,
      "start": 14.5168,
      "duration": 0.1493,
      "velocity": 106,
      "chip": "ym2612"
    },
    {
      "channel": 5,
      "note": 32,
      "start": 14.518,
      "duration": 0.1434,
      "velocity": 114,
      "chip": "ym2612"
    },
    {
      "channel": 0,
      "note": 81,
      "start": 14.6647,
      "duration": 0.2826,
      "velocity": 106,
      "chip": "ym2612"
    },
    {
      "channel": 1,
      "note": 66,
      "start": 14.6654,
      "duration": 0.149,
      "velocity": 101,
      "chip": "ym2612"
    },
    {
      "channel": 2,
      "note": 73,
      "start": 14.666,
      "duration": 0.2828,
      "velocity": 111,
      "chip": "ym2612"
    },
    {
      "channel": 3,
      "note": 78,
      "start": 14.6668,
      "duration": 0.2828,
      "velocity": 106,
      "chip": "ym2612"
    },
    {
      "channel": 4,
      "note": 80,
      "start": 14.6676,
      "duration": 0.1482,
      "velocity": 106,
      "chip": "ym2612"
    },
    {
      "channel": 5,
      "note": 32,
      "start": 14.6684,
      "duration": 0.1429,
      "velocity": 114,
      "chip": "ym2612"
    },
    {
      "channel": 1,
      "note": 66,
      "start": 14.8149,
      "duration": 0.1332,
      "velocity": 101,
      "chip": "ym2612"
    },
    {
      "channel": 4,
      "note": 81,
      "start": 14.8165,
      "duration": 0.2797,
      "velocity": 106,
      "chip": "ym2612"
    },
    {
      "channel": 5,
      "note": 75,
      "start": 14.8172,
      "duration": 0.1275,
      "velocity": 120,
      "chip": "ym2612"
    },
    {
      "channel": 0,
      "note": 85,
      "start": 14.948,
      "duration": 0.8826,
      "velocity": 106,
      "chip": "ym2612"
    },
    {
      "channel": 1,
      "note": 62,
      "start": 14.9487,
      "duration": 0.299,
      "velocity": 101,
      "chip": "ym2612"
    },
    {
      "channel": 2,
      "note": 69,
      "start": 14.9495,
      "duration": 0.299,
      "velocity": 111,
      "chip": "ym2612"
    },
    {
      "channel": 3,
      "note": 81,
      "start": 14.9503,
      "duration": 0.8824,
      "velocity": 106,
      "chip": "ym2612"
    },
    {
      "channel": 5,
      "note": 32,
      "start": 14.9515,
      "duration": 0.1952,
      "velocity": 114,
      "chip": "ym2612"
    },
    {
      "channel": 4,
      "note": 85,
      "start": 15.0969,
      "duration": 0.8856,
      "velocity": 106,
      "chip": "ym2612"
    },
    {
      "channel": 1,
      "note": 62,
      "start": 15.2483,
      "duration": 0.1494,
      "velocity": 101,
      "chip": "ym2612"
    },
    {
      "channel": 2,
      "note": 69,
      "start": 15.249,
      "duration": 0.1495,
      "velocity": 111,
      "chip": "ym2612"
    },
    {
      "channel": 5,
      "note": 32,
      "start": 15.2506,
      "duration": 0.1441,
      "velocity": 114,
      "chip": "ym2612"
    },
    {
      "channel": 1,
      "note": 62,
      "start": 15.3983,
      "duration": 0.1303,
      "velocity": 101,
      "chip": "ym2612"
    },
    {
      "channel": 2,
      "note": 69,
      "start": 15.399,
      "duration": 0.2828,
      "velocity": 111,
      "chip": "ym2612"
    },
    {
      "channel": 5,
      "note": 75,
      "start": 15.4006,
      "duration": 0.2774,
      "velocity": 120,
      "chip": "ym2612"
    },
    {
      "channel": 1,
      "note": 62,
      "start": 15.5292,
      "duration": 0.1519,
      "velocity": 101,
      "chip": "ym2612"
    },
    {
      "channel": 1,
      "note": 62,
      "start": 15.6817,
      "duration": 0.1498,
      "velocity": 101,
      "chip": "ym2612"
    },
    {
      "channel": 2,
      "note": 69,
      "start": 15.6823,
      "duration": 0.1499,
      "velocity": 111,
      "chip": "ym2612"
    },
    {
      "channel": 5,
      "note": 32,
      "start": 15.6841,
      "duration": 0.144,
      "velocity": 114,
      "chip": "ym2612"
    },
    {
      "channel": 0,
      "note": 78,
      "start": 15.8313,
      "duration": 0.4327,
      "velocity": 106,
      "chip": "ym2612"
    },
    {
      "channel": 1,
      "note": 62,
      "start": 15.832,
      "duration": 0.149,
      "velocity": 101,
      "chip": "ym2612"
    },
    {
      "channel": 2,
      "note": 69,
      "start": 15.8327,
      "duration": 0.4329,
      "velocity": 111,
      "chip": "ym2612"
    },
    {
      "channel": 3,
      "note": 73,
      "start": 15.8335,
      "duration": 0.4333,
      "velocity": 106,
      "chip": "ym2612"
    },
    {
      "channel": 5,
      "note": 32,
      "start": 15.8348,
      "duration": 0.1433,
      "velocity": 114,
      "chip": "ym2612"
    },
    {
      "channel": 1,
      "note": 62,
      "start": 15.9816,
      "duration": 0.1303,
      "velocity": 101,
      "chip": "ym2612"
    },
    {
      "channel": 4,
      "note": 78,
      "start": 15.9832,
      "duration": 0.4303,
      "velocity": 106,
      "chip": "ym2612"
    },
    {
      "channel": 5,
      "note": 75,
      "start": 15.9839,
      "duration": 0.2775,
      "velocity": 120,
      "chip": "ym2612"
    },
    {
      "channel": 1,
      "note": 62,
      "start": 16.1124,
      "duration": 0.1525,
      "velocity": 101,
      "chip": "ym2612"
    },
    {
      "channel": 0,
      "note": 83,
      "start": 16.2647,
      "duration": 0.43,
      "velocity": 106,
      "chip": "ym2612"
    },
    {
      "channel": 1,
      "note": 61,
      "start": 16.2655,
      "duration": 0.1463,
      "velocity": 101,
      "chip": "ym2612"
    },
    {
      "channel": 2,
      "note": 68,
      "start": 16.2663,
      "duration": 0.1462,
      "velocity": 111,
      "chip": "ym2612"
    },
    {
      "channel": 3,
      "note": 80,
      "start": 16.2675,
      "duration": 0.4293,
      "velocity": 106,
      "chip": "ym2612"
    },
    {
      "channel": 5,
      "note": 32,
      "start": 16.2688,
      "duration": 0.1945,
      "velocity": 114,
      "chip": "ym2612"
    },
    {
      "channel": 1,
      "note": 61,
      "start": 16.4123,
      "duration": 0.1354,
      "velocity": 101,
      "chip": "ym2612"
    },
    {
      "channel": 2,
      "note": 68,
      "start": 16.4129,
      "duration": 0.1355,
      "velocity": 111,
      "chip": "ym2612"
    },
    {
      "channel": 4,
      "note": 83,
      "start": 16.4141,
      "duration": 0.4353,
      "velocity": 106,
      "chip": "ym2612"
    },
    {
      "channel": 1,
      "note": 61,
      "start": 16.5483,
      "duration": 0.1473,
      "velocity": 101,
      "chip": "ym2612"
    },
    {
      "channel": 2,
      "note": 68,
      "start": 16.549,
      "duration": 0.2994,
      "velocity": 111,
      "chip": "ym2612"
    },
    {
      "channel": 5,
      "note": 75,
      "start": 16.5505,
      "duration": 0.2942,
      "velocity": 120,
      "chip": "ym2612"
    },
    {
      "channel": 0,
      "note": 81,
      "start": 16.6954,
      "duration": 0.4352,
      "velocity": 106,
      "chip": "ym2612"
    },
    {
      "channel": 1,
      "note": 61,
      "start": 16.6961,
      "duration": 0.1515,
      "velocity": 101,
      "chip": "ym2612"
    },
    {
      "channel": 3,
      "note": 78,
      "start": 16.6974,
      "duration": 0.4352,
      "velocity": 106,
      "chip": "ym2612"
    },
    {
      "channel": 1,
      "note": 61,
      "start": 16.8483,
      "duration": 0.1495,
      "velocity": 101,
      "chip": "ym2612"
    },
    {
      "channel": 2,
      "note": 68,
      "start": 16.8489,
      "duration": 0.1495,
      "velocity": 111,
      "chip": "ym2612"
    },
    {
      "channel": 4,
      "note": 81,
      "start": 16.85,
      "duration": 0.4328,
      "velocity": 106,
      "chip": "ym2612"
    },
    {
      "channel": 5,
      "note": 32,
      "start": 16.8509,
      "duration": 0.1438,
      "velocity": 114,
      "chip": "ym2612"
    },
    {
      "channel": 1,
      "note": 61,
      "start": 16.9983,
      "duration": 0.1331,
      "velocity": 101,
      "chip": "ym2612"
    },
    {
      "channel": 2,
      "note": 68,
      "start": 16.999,
      "duration": 0.2827,
      "velocity": 111,
      "chip": "ym2612"
    },
    {
      "channel": 5,
      "note": 32,
      "start": 17.0006,
      "duration": 0.1274,
      "velocity": 114,
      "chip": "ym2612"
    },
    {
      "channel": 0,
      "note": 80,
      "start": 17.1313,
      "duration": 0.2968,
      "velocity": 106,
      "chip": "ym2612"
    },
    {
      "channel": 1,
      "note": 61,
      "start": 17.132,
      "duration": 0.149,
      "velocity": 101,
      "chip": "ym2612"
    },
    {
      "channel": 3,
      "note": 77,
      "start": 17.1333,
      "duration": 0.2964,
      "velocity": 106,
      "chip": "ym2612"
    },
    {
      "channel": 5,
      "note": 75,
      "start": 17.1344,
      "duration": 0.1436,
      "velocity": 120,
      "chip": "ym2612"
    },
    {
      "channel": 1,
      "note": 62,
      "start": 17.2816,
      "duration": 0.2999,
      "velocity": 101,
      "chip": "ym2612"
    },
    {
      "channel": 2,
      "note": 69,
      "start": 17.2824,
      "duration": 0.2998,
      "velocity": 111,
      "chip": "ym2612"
    },
    {
      "channel": 4,
      "note": 80,
      "start": 17.2836,
      "duration": 0.3001,
      "velocity": 106,
      "chip": "ym2612"
    },
    {
      "channel": 5,
      "note": 32,
      "start": 17.2844,
      "duration": 0.1956,
      "velocity": 114,
      "chip": "ym2612"
    },
    {
      "channel": 0,
      "note": 84,
      "start": 17.4287,
      "duration": 0.1519,
      "velocity": 106,
      "chip": "ym2612"
    },
    {
      "channel": 3,
      "note": 81,
      "start": 17.4304,
      "duration": 0.1524,
      "velocity": 106,
      "chip": "ym2612"
    },
    {
      "channel": 0,
      "note": 83,
      "start": 17.5813,
      "duration": 0.133,
      "velocity": 106,
      "chip": "ym2612"
    },
    {
      "channel": 1,
      "note": 62,
      "start": 17.582,
      "duration": 0.1332,
      "velocity": 101,
      "chip": "ym2612"
    },
    {
      "channel": 2,
      "note": 69,
      "start": 17.5827,
      "duration": 0.1332,
      "velocity": 111,
      "chip": "ym2612"
    },
    {
      "channel": 3,
      "note": 80,
      "start": 17.5835,
      "duration": 0.1334,
      "velocity": 106,
      "chip": "ym2612"
    },
    {
      "channel": 4,
      "note": 84,
      "start": 17.5843,
      "duration": 0.1334,
      "velocity": 106,
      "chip": "ym2612"
    },
    {
      "channel": 5,
      "note": 32,
      "start": 17.5851,
      "duration": 0.1262,
      "velocity": 114,
      "chip": "ym2612"
    },
    {
      "channel": 0,
      "note": 83,
      "start": 17.715,
      "duration": 0.1468,
      "velocity": 106,
      "chip": "ym2612"
    },
    {
      "channel": 1,
      "note": 62,
      "start": 17.7157,
      "duration": 0.1469,
      "velocity": 101,
      "chip": "ym2612"
    },
    {
      "channel": 2,
      "note": 69,
      "start": 17.7164,
      "duration": 0.2987,
      "velocity": 111,
      "chip": "ym2612"
    },
    {
      "channel": 3,
      "note": 80,
      "start": 17.7175,
      "duration": 0.1466,
      "velocity": 106,
      "chip": "ym2612"
    },
    {
      "channel": 4,
      "note": 83,
      "start": 17.7183,
      "duration": 0.147,
      "velocity": 106,
      "chip": "ym2612"
    },
    {
      "channel": 5,
      "note": 75,
      "start": 17.7191,
      "duration": 0.2922,
      "velocity": 120,
      "chip": "ym2612"
    },
    {
      "channel": 0,
      "note": 81,
      "start": 17.8624,
      "duration": 0.2849,
      "velocity": 106,
      "chip": "ym2612"
    },
    {
      "channel": 1,
      "note": 62,
      "start": 17.8632,
      "duration": 0.1512,
      "velocity": 101,
      "chip": "ym2612"
    },
    {
      "channel": 3,
      "note": 76,
      "start": 17.8649,
      "duration": 0.2846,
      "velocity": 106,
      "chip": "ym2612"
    },
    {
      "channel": 4,
      "note": 83,
      "start": 17.8661,
      "duration": 0.1505,
      "velocity": 106,
      "chip": "ym2612"
    },
    {
      "channel": 1,
      "note": 64,
      "start": 18.0149,
      "duration": 0.1332,
      "velocity": 101,
      "chip": "ym2612"
    },
    {
      "channel": 2,
      "note": 71,
      "start": 18.0157,
      "duration": 0.1331,
      "velocity": 111,
      "chip": "ym2612"
    },
    {
      "channel": 4,
      "note": 81,
      "start": 18.0173,
      "duration": 0.2828,
      "velocity": 106,
      "chip": "ym2612"
    },
    {
      "channel": 5,
      "note": 32,
      "start": 18.0181,
      "duration": 0.1266,
      "velocity": 114,
      "chip": "ym2612"
    },
    {
      "channel": 0,
      "note": 78,
      "start": 18.148,
      "duration": 0.1493,
      "velocity": 106,
      "chip": "ym2612"
    },
    {
      "channel": 1,
      "note": 64,
      "start": 18.1487,
      "duration": 0.1494,
      "velocity": 101,
      "chip": "ym2612"
    },
    {
      "channel": 2,
      "note": 71,
      "start": 18.1493,
      "duration": 0.2997,
      "velocity": 111,
      "chip": "ym2612"
    },
    {
      "channel": 3,
      "note": 76,
      "start": 18.15,
      "duration": 0.1493,
      "velocity": 106,
      "chip": "ym2612"
    },
    {
      "channel": 5,
      "note": 75,
      "start": 18.151,
      "duration": 0.1437,
      "velocity": 120,
      "chip": "ym2612"
    },
    {
      "channel": 0,
      "note": 76,
      "start": 18.298,
      "duration": 0.1494,
      "velocity": 106,
      "chip": "ym2612"
    },
    {
      "channel": 1,
      "note": 64,
      "start": 18.2987,
      "duration": 0.1496,
      "velocity": 101,
      "chip": "ym2612"
    },
    {
      "channel": 3,
      "note": 71,
      "start": 18.2999,
      "duration": 0.1504,
      "velocity": 106,
      "chip": "ym2612"
    },
    {
      "channel": 4,
      "note": 78,
      "start": 18.3007,
      "duration": 0.1504,
      "velocity": 106,
      "chip": "ym2612"
    },
    {
      "channel": 5,
      "note": 75,
      "start": 18.3015,
      "duration": 0.1432,
      "velocity": 120,
      "chip": "ym2612"
    },
    {
      "channel": 0,
      "note": 73,
      "start": 18.448,
      "duration": 1.1659,
      "velocity": 106,
      "chip": "ym2612"
    },
    {
      "channel": 1,
      "note": 64,
      "start": 18.4488,
      "duration": 0.149,
      "velocity": 101,
      "chip": "ym2612"
    },
    {
      "channel": 2,
      "note": 73,
      "start": 18.4497,
      "duration": 0.2795,
      "velocity": 111,
      "chip": "ym2612"
    },
    {
      "channel": 3,
      "note": 66,
      "start": 18.451,
      "duration": 0.2789,
      "velocity": 106,
      "chip": "ym2612"
    },
    {
      "channel": 4,
      "note": 76,
      "start": 18.4517,
      "duration": 0.1477,
      "velocity": 106,
      "chip": "ym2612"
    },
    {
      "channel": 5,
      "note": 32,
      "start": 18.4526,
      "duration": 0.1422,
      "velocity": 114,
      "chip": "ym2612"
    },
    {
      "channel": 1,
      "note": 66,
      "start": 18.5984,
      "duration": 0.1301,
      "velocity": 101,
      "chip": "ym2612"
    },
    {
      "channel": 4,
      "note": 73,
      "start": 18.6001,
      "duration": 1.1461,
      "velocity": 106,
      "chip": "ym2612"
    },
    {
      "channel": 5,
      "note": 32,
      "start": 18.6009,
      "duration": 0.1792,
      "velocity": 114,
      "chip": "ym2612"
    },
    {
      "channel": 1,
      "note": 66,
      "start": 18.7291,
      "duration": 0.152,
      "velocity": 101,
      "chip": "ym2612"
    },
    {
      "channel": 2,
      "note": 73,
      "start": 18.7297,
      "duration": 0.152,
      "velocity": 111,
      "chip": "ym2612"
    },
    {
      "channel": 3,
      "note": 66,
      "start": 18.7306,
      "duration": 0.1518,
      "velocity": 106,
      "chip": "ym2612"
    },
    {
      "channel": 1,
      "note": 66,
      "start": 18.8817,
      "duration": 0.1469,
      "velocity": 101,
      "chip": "ym2612"
    },
    {
      "channel": 2,
      "note": 73,
      "start": 18.8823,
      "duration": 0.2995,
      "velocity": 111,
      "chip": "ym2612"
    },
    {
      "channel": 3,
      "note": 69,
      "start": 18.8831,
      "duration": 0.1466,
      "velocity": 106,
      "chip": "ym2612"
    },
    {
      "channel": 5,
      "note": 75,
      "start": 18.8843,
      "duration": 0.2938,
      "velocity": 120,
      "chip": "ym2612"
    },
    {
      "channel": 1,
      "note": 66,
      "start": 19.0292,
      "duration": 0.1519,
      "velocity": 101,
      "chip": "ym2612"
    },
    {
      "channel": 3,
      "note": 66,
      "start": 19.0304,
      "duration": 0.152,
      "velocity": 106,
      "chip": "ym2612"
    },
    {
      "channel": 1,
      "note": 66,
      "start": 19.1817,
      "duration": 0.1327,
      "velocity": 101,
      "chip": "ym2612"
    },
    {
      "channel": 2,
      "note": 73,
      "start": 19.1823,
      "duration": 0.1328,
      "velocity": 111,
      "chip": "ym2612"
    },
    {
      "channel": 3,
      "note": 71,
      "start": 19.1831,
      "duration": 0.1326,
      "velocity": 106,
      "chip": "ym2612"
    },
    {
      "channel": 5,
      "note": 32,
      "start": 19.1844,
      "duration": 0.127,
      "velocity": 114,
      "chip": "ym2612"
    },
    {
      "channel": 1,
      "note": 66,
      "start": 19.315,
      "duration": 0.1494,
      "velocity": 101,
      "chip": "ym2612"
    },
    {
      "channel": 2,
      "note": 73,
      "start": 19.3156,
      "duration": 0.2999,
      "velocity": 111,
      "chip": "ym2612"
    },
    {
      "channel": 3,
      "note": 69,
      "start": 19.3164,
      "duration": 0.2997,
      "velocity": 106,
      "chip": "ym2612"
    },
    {
      "channel": 5,
      "note": 75,
      "start": 19.3176,
      "duration": 0.1438,
      "velocity": 120,
      "chip": "ym2612"
    },
    {
      "channel": 1,
      "note": 66,
      "start": 19.465,
      "duration": 0.1498,
      "velocity": 101,
      "chip": "ym2612"
    },
    {
      "channel": 5,
      "note": 32,
      "start": 19.4671,
      "duration": 0.1443,
      "velocity": 114,
      "chip": "ym2612"
    },
    {
      "channel": 0,
      "note": 61,
      "start": 19.6146,
      "duration": 0.2827,
      "velocity": 106,
      "chip": "ym2612"
    },
    {
      "channel": 1,
      "note": 66,
      "start": 19.6154,
      "duration": 0.2828,
      "velocity": 101,
      "chip": "ym2612"
    },
    {
      "channel": 2,
      "note": 73,
      "start": 19.616,
      "duration": 0.2828,
      "velocity": 111,
      "chip": "ym2612"
    },
    {
      "channel": 3,
      "note": 66,
      "start": 19.6168,
      "duration": 0.2826,
      "velocity": 106,
      "chip": "ym2612"
    },
    {
      "channel": 5,
      "note": 75,
      "start": 19.618,
      "duration": 0.2767,
      "velocity": 120,
      "chip": "ym2612"
    },
    {
      "channel": 4,
      "note": 61,
      "start": 19.7469,
      "duration": 0.3034,
      "velocity": 106,
      "chip": "ym2612"
    },
    {
      "channel": 0,
      "note": 61,
      "start": 19.8979,
      "duration": 0.1494,
      "velocity": 106,
      "chip": "ym2612"
    },
    {
      "channel": 1,
      "note": 66,
      "start": 19.8987,
      "duration": 0.1494,
      "velocity": 101,
      "chip": "ym2612"
    },
    {
      "channel": 2,
      "note": 73,
      "start": 19.8993,
      "duration": 0.1495,
      "velocity": 111,
      "chip": "ym2612"
    },
    {
      "channel": 3,
      "note": 66,
      "start": 19.9002,
      "duration": 0.1493,
      "velocity": 106,
      "chip": "ym2612"
    },
    {
      "channel": 5,
      "note": 32,
      "start": 19.9013,
      "duration": 0.1434,
      "velocity": 114,
      "chip": "ym2612"
    },
    {
      "channel": 0,
      "note": 66,
      "start": 20.0479,
      "duration": 0.1468,
      "velocity": 106,
      "chip": "ym2612"
    },
    {
      "channel": 1,
      "note": 69,
      "start": 20.0487,
      "duration": 0.1468,
      "velocity": 101,
      "chip": "ym2612"
    },
    {
      "channel": 2,
      "note": 73,
      "start": 20.0493,
      "duration": 0.2828,
      "velocity": 111,
      "chip": "ym2612"
    },
    {
      "channel": 3,
      "note": 69,
      "start": 20.0501,
      "duration": 0.1466,
      "velocity": 106,
      "chip": "ym2612"
    },
    {
      "channel": 4,
      "note": 61,
      "start": 20.0509,
      "duration": 0.1466,
      "velocity": 106,
      "chip": "ym2612"
    },
    {
      "channel": 5,
      "note": 75,
      "start": 20.0517,
      "duration": 0.2763,
      "velocity": 120,
      "chip": "ym2612"
    },
    {
      "channel": 0,
      "note": 61,
      "start": 20.1954,
      "duration": 0.1352,
      "velocity": 106,
      "chip": "ym2612"
    },
    {
      "channel": 1,
      "note": 66,
      "start": 20.1961,
      "duration": 0.1354,
      "velocity": 101,
      "chip": "ym2612"
    },
    {
      "channel": 3,
      "note": 66,
      "start": 20.1974,
      "duration": 0.1354,
      "velocity": 106,
      "chip": "ym2612"
    },
    {
      "channel": 4,
      "note": 66,
      "start": 20.1981,
      "duration": 0.1355,
      "velocity": 106,
      "chip": "ym2612"
    },
    {
      "channel": 0,
      "note": 66,
      "start": 20.3313,
      "duration": 0.1494,
      "velocity": 106,
      "chip": "ym2612"
    },
    {
      "channel": 1,
      "note": 71,
      "start": 20.332,
      "duration": 0.1494,
      "velocity": 101,
      "chip": "ym2612"
    },
    {
      "channel": 2,
      "note": 73,
      "start": 20.3327,
      "duration": 0.1495,
      "velocity": 111,
      "chip": "ym2612"
    },
    {
      "channel": 3,
      "note": 71,
      "start": 20.3335,
      "duration": 0.1493,
      "velocity": 106,
      "chip": "ym2612"
    },
    {
      "channel": 4,
      "note": 61,
      "start": 20.3343,
      "duration": 0.1494,
      "velocity": 106,
      "chip": "ym2612"
    },
    {
      "channel": 5,
      "note": 32,
      "start": 20.3351,
      "duration": 0.1429,
      "velocity": 114,
      "chip": "ym2612"
    },
    {
      "channel": 0,
      "note": 66,
      "start": 20.4813,
      "duration": 0.1494,
      "velocity": 106,
      "chip": "ym2612"
    },
    {
      "channel": 1,
      "note": 69,
      "start": 20.482,
      "duration": 0.1494,
      "velocity": 101,
      "chip": "ym2612"
    },
    {
      "channel": 2,
      "note": 73,
      "start": 20.4827,
      "duration": 0.2995,
      "velocity": 111,
      "chip": "ym2612"
    },
    {
      "channel": 3,
      "note": 69,
      "start": 20.4835,
      "duration": 0.1491,
      "velocity": 106,
      "chip": "ym2612"
    },
    {
      "channel": 4,
      "note": 66,
      "start": 20.4843,
      "duration": 0.1492,
      "velocity": 106,
      "chip": "ym2612"
    },
    {
      "channel": 5,
      "note": 75,
      "start": 20.485,
      "duration": 0.143,
      "velocity": 120,
      "chip": "ym2612"
    },
    {
      "channel": 0,
      "note": 73,
      "start": 20.6313,
      "duration": 0.1494,
      "velocity": 106,
      "chip": "ym2612"
    },
    {
      "channel": 1,
      "note": 68,
      "start": 20.632,
      "duration": 0.1494,
      "velocity": 101,
      "chip": "ym2612"
    },
    {
      "channel": 3,
      "note": 68,
      "start": 20.6332,
      "duration": 0.1496,
      "velocity": 106,
      "chip": "ym2612"
    },
    {
      "channel": 4,
      "note": 66,
      "start": 20.6341,
      "duration": 0.1496,
      "velocity": 106,
      "chip": "ym2612"
    },
    {
      "channel": 5,
      "note": 75,
      "start": 20.6348,
      "duration": 0.1433,
      "velocity": 120,
      "chip": "ym2612"
    },
    {
      "channel": 0,
      "note": 66,
      "start": 20.7813,
      "duration": 0.1347,
      "velocity": 106,
      "chip": "ym2612"
    },
    {
      "channel": 1,
      "note": 69,
      "start": 20.782,
      "duration": 0.1349,
      "velocity": 101,
      "chip": "ym2612"
    },
    {
      "channel": 2,
      "note": 73,
      "start": 20.7827,
      "duration": 0.1351,
      "velocity": 111,
      "chip": "ym2612"
    },
    {
      "channel": 3,
      "note": 69,
      "start": 20.7835,
      "duration": 0.1351,
      "velocity": 106,
      "chip": "ym2612"
    },
    {
      "channel": 4,
      "note": 73,
      "start": 20.7843,
      "duration": 0.1351,
      "velocity": 106,
      "chip": "ym2612"
    },
    {
      "channel": 5,
      "note": 75,
      "start": 20.785,
      "duration": 0.1263,
      "velocity": 120,
      "chip": "ym2612"
    },
    {
      "channel": 0,
      "note": 85,
      "start": 20.9167,
      "duration": 0.1447,
      "velocity": 106,
      "chip": "ym2612"
    },
    {
      "channel": 1,
      "note": 66,
      "start": 20.9175,
      "duration": 0.1447,
      "velocity": 101,
      "chip": "ym2612"
    },
    {
      "channel": 2,
      "note": 73,
      "start": 20.9185,
      "duration": 0.1445,
      "velocity": 111,
      "chip": "ym2612"
    },
    {
      "channel": 3,
      "note": 78,
      "start": 20.9193,
      "duration": 1.16,
      "velocity": 106,
      "chip": "ym2612"
    },
    {
      "channel": 4,
      "note": 66,
      "start": 20.9201,
      "duration": 0.1461,
      "velocity": 106,
      "chip": "ym2612"
    },
    {
      "channel": 5,
      "note": 32,
      "start": 20.9209,
      "duration": 0.1924,
      "velocity": 114,
      "chip": "ym2612"
    },
    {
      "channel": 0,
      "note": 86,
      "start": 21.0621,
      "duration": 0.1519,
      "velocity": 106,
      "chip": "ym2612"
    },
    {
      "channel": 1,
      "note": 66,
      "start": 21.0628,
      "duration": 0.152,
      "velocity": 101,
      "chip": "ym2612"
    },
    {
      "channel": 2,
      "note": 73,
      "start": 21.0634,
      "duration": 0.152,
      "velocity": 111,
      "chip": "ym2612"
    },
    {
      "channel": 4,
      "note": 85,
      "start": 21.0668,
      "duration": 0.1498,
      "velocity": 106,
      "chip": "ym2612"
    },
    {
      "channel": 0,
      "note": 88,
      "start": 21.2147,
      "duration": 0.1301,
      "velocity": 106,
      "chip": "ym2612"
    },
    {
      "channel": 1,
      "note": 66,
      "start": 21.2154,
      "duration": 0.1302,
      "velocity": 101,
      "chip": "ym2612"
    },
    {
      "channel": 2,
      "note": 73,
      "start": 21.216,
      "duration": 0.2826,
      "velocity": 111,
      "chip": "ym2612"
    },
    {
      "channel": 4,
      "note": 86,
      "start": 21.2173,
      "duration": 0.1299,
      "velocity": 106,
      "chip": "ym2612"
    },
    {
      "channel": 5,
      "note": 75,
      "start": 21.218,
      "duration": 0.2767,
      "velocity": 120,
      "chip": "ym2612"
    },
    {
      "channel": 0,
      "note": 85,
      "start": 21.3454,
      "duration": 0.7328,
      "velocity": 106,
      "chip": "ym2612"
    },
    {
      "channel": 1,
      "note": 66,
      "start": 21.3461,
      "duration": 0.1517,
      "velocity": 101,
      "chip": "ym2612"
    },
    {
      "channel": 4,
      "note": 88,
      "start": 21.3479,
      "duration": 0.1518,
      "velocity": 106,
      "chip": "ym2612"
    },
    {
      "channel": 1,
      "note": 66,
      "start": 21.4984,
      "duration": 0.1493,
      "velocity": 101,
      "chip": "ym2612"
    },
    {
      "channel": 2,
      "note": 73,
      "start": 21.4991,
      "duration": 0.1494,
      "velocity": 111,
      "chip": "ym2612"
    },
    {
      "channel": 4,
      "note": 85,
      "start": 21.5004,
      "duration": 0.7328,
      "velocity": 106,
      "chip": "ym2612"
    },
    {
      "channel": 5,
      "note": 32,
      "start": 21.5012,
      "duration": 0.1435,
      "velocity": 114,
      "chip": "ym2612"
    },
    {
      "channel": 1,
      "note": 66,
      "start": 21.6483,
      "duration": 0.1494,
      "velocity": 101,
      "chip": "ym2612"
    },
    {
      "channel": 2,
      "note": 73,
      "start": 21.649,
      "duration": 0.2829,
      "velocity": 111,
      "chip": "ym2612"
    },
    {
      "channel": 5,
      "note": 32,
      "start": 21.6508,
      "duration": 0.1439,
      "velocity": 114,
      "chip": "ym2612"
    },
    {
      "channel": 1,
      "note": 66,
      "start": 21.7983,
      "duration": 0.1328,
      "velocity": 101,
      "chip": "ym2612"
    },
    {
      "channel": 5,
      "note": 75,
      "start": 21.8004,
      "duration": 0.1276,
      "velocity": 120,
      "chip": "ym2612"
    },
    {
      "channel": 1,
      "note": 65,
      "start": 21.9317,
      "duration": 0.2998,
      "velocity": 101,
      "chip": "ym2612"
    },
    {
      "channel": 2,
      "note": 72,
      "start": 21.9325,
      "duration": 0.2997,
      "velocity": 111,
      "chip": "ym2612"
    },
    {
      "channel": 5,
      "note": 32,
      "start": 21.9343,
      "duration": 0.1955,
      "velocity": 114,
      "chip": "ym2612"
    },
    {
      "channel": 3,
      "note": 77,
      "start": 22.08,
      "duration": 1.1666,
      "velocity": 106,
      "chip": "ym2612"
    },
    {
      "channel": 0,
      "note": 85,
      "start": 22.2313,
      "duration": 0.1493,
      "velocity": 106,
      "chip": "ym2612"
    },
    {
      "channel": 1,
      "note": 65,
      "start": 22.232,
      "duration": 0.1494,
      "velocity": 101,
      "chip": "ym2612"
    },
    {
      "channel": 2,
      "note": 72,
      "start": 22.2327,
      "duration": 0.1495,
      "velocity": 111,
      "chip": "ym2612"
    },
    {
      "channel": 5,
      "note": 32,
      "start": 22.2341,
      "duration": 0.1439,
      "velocity": 114,
      "chip": "ym2612"
    },
    {
      "channel": 0,
      "note": 86,
      "start": 22.3813,
      "duration": 0.1301,
      "velocity": 106,
      "chip": "ym2612"
    },
    {
      "channel": 1,
      "note": 65,
      "start": 22.382,
      "duration": 0.1302,
      "velocity": 101,
      "chip": "ym2612"
    },
    {
      "channel": 2,
      "note": 72,
      "start": 22.3827,
      "duration": 0.2828,
      "velocity": 111,
      "chip": "ym2612"
    },
    {
      "channel": 4,
      "note": 85,
      "start": 22.3839,
      "duration": 0.1299,
      "velocity": 106,
      "chip": "ym2612"
    },
    {
      "channel": 5,
      "note": 75,
      "start": 22.3846,
      "duration": 0.2767,
      "velocity": 120,
      "chip": "ym2612"
    },
    {
      "channel": 0,
      "note": 88,
      "start": 22.5121,
      "duration": 0.1519,
      "velocity": 106,
      "chip": "ym2612"
    },
    {
      "channel": 1,
      "note": 65,
      "start": 22.5128,
      "duration": 0.152,
      "velocity": 101,
      "chip": "ym2612"
    },
    {
      "channel": 4,
      "note": 86,
      "start": 22.5145,
      "duration": 0.1521,
      "velocity": 106,
      "chip": "ym2612"
    },
    {
      "channel": 0,
      "note": 85,
      "start": 22.6647,
      "duration": 0.1493,
      "velocity": 106,
      "chip": "ym2612"
    },
    {
      "channel": 1,
      "note": 65,
      "start": 22.6654,
      "duration": 0.1494,
      "velocity": 101,
      "chip": "ym2612"
    },
    {
      "channel": 2,
      "note": 72,
      "start": 22.666,
      "duration": 0.1495,
      "velocity": 111,
      "chip": "ym2612"
    },
    {
      "channel": 4,
      "note": 88,
      "start": 22.6673,
      "duration": 0.1494,
      "velocity": 106,
      "chip": "ym2612"
    },
    {
      "channel": 5,
      "note": 32,
      "start": 22.6681,
      "duration": 0.1433,
      "velocity": 114,
      "chip": "ym2612"
    },
    {
      "channel": 0,
      "note": 83,
      "start": 22.8147,
      "duration": 0.2826,
      "velocity": 106,
      "chip": "ym2612"
    },
    {
      "channel": 1,
      "note": 65,
      "start": 22.8154,
      "duration": 0.1323,
      "velocity": 101,
      "chip": "ym2612"
    },
    {
      "channel": 2,
      "note": 72,
      "start": 22.816,
      "duration": 0.2828,
      "velocity": 111,
      "chip": "ym2612"
    },
    {
      "channel": 4,
      "note": 85,
      "start": 22.8173,
      "duration": 0.132,
      "velocity": 106,
      "chip": "ym2612"
    },
    {
      "channel": 5,
      "note": 32,
      "start": 22.8181,
      "duration": 0.1266,
      "velocity": 114,
      "chip": "ym2612"
    },
    {
      "channel": 1,
      "note": 65,
      "start": 22.9483,
      "duration": 0.1499,
      "velocity": 101,
      "chip": "ym2612"
    },
    {
      "channel": 4,
      "note": 83,
      "start": 22.95,
      "duration": 0.2974,
      "velocity": 106,
      "chip": "ym2612"
    },
    {
      "channel": 5,
      "note": 75,
      "start": 22.9507,
      "duration": 0.144,
      "velocity": 120,
      "chip": "ym2612"
    },
    {
      "channel": 0,
      "note": 81,
      "start": 23.098,
      "duration": 0.147,
      "velocity": 106,
      "chip": "ym2612"
    },
    {
      "channel": 1,
      "note": 64,
      "start": 23.0987,
      "duration": 0.299,
      "velocity": 101,
      "chip": "ym2612"
    },
    {
      "channel": 2,
      "note": 71,
      "start": 23.0995,
      "duration": 0.2988,
      "velocity": 111,
      "chip": "ym2612"
    },
    {
      "channel": 5,
      "note": 32,
      "start": 23.1011,
      "duration": 0.1956,
      "velocity": 114,
      "chip": "ym2612"
    },
    {
      "channel": 0,
      "note": 85,
      "start": 23.2456,
      "duration": 0.4324,
      "velocity": 106,
      "chip": "ym2612"
    },
    {
      "channel": 3,
      "note": 76,
      "start": 23.2472,
      "duration": 1.166,
      "velocity": 106,
      "chip": "ym2612"
    },
    {
      "channel": 4,
      "note": 81,
      "start": 23.248,
      "duration": 0.1513,
      "velocity": 106,
      "chip": "ym2612"
    },
    {
      "channel": 1,
      "note": 64,
      "start": 23.3983,
      "duration": 0.1328,
      "velocity": 101,
      "chip": "ym2612"
    },
    {
      "channel": 2,
      "note": 71,
      "start": 23.3989,
      "duration": 0.1329,
      "velocity": 111,
      "chip": "ym2612"
    },
    {
      "channel": 4,
      "note": 85,
      "start": 23.4,
      "duration": 0.4328,
      "velocity": 106,
      "chip": "ym2612"
    },
    {
      "channel": 5,
      "note": 32,
      "start": 23.4009,
      "duration": 0.1272,
      "velocity": 114,
      "chip": "ym2612"
    },
    {
      "channel": 1,
      "note": 64,
      "start": 23.5317,
      "duration": 0.1473,
      "velocity": 101,
      "chip": "ym2612"
    },
    {
      "channel": 2,
      "note": 71,
      "start": 23.5323,
      "duration": 0.2994,
      "velocity": 111,
      "chip": "ym2612"
    },
    {
      "channel": 5,
      "note": 75,
      "start": 23.5338,
      "duration": 0.2942,
      "velocity": 120,
      "chip": "ym2612"
    },
    {
      "channel": 0,
      "note": 78,
      "start": 23.6787,
      "duration": 0.4352,
      "velocity": 106,
      "chip": "ym2612"
    },
    {
      "channel": 1,
      "note": 64,
      "start": 23.6795,
      "duration": 0.1515,
      "velocity": 101,
      "chip": "ym2612"
    },
    {
      "channel": 1,
      "note": 64,
      "start": 23.8316,
      "duration": 0.1495,
      "velocity": 101,
      "chip": "ym2612"
    },
    {
      "channel": 2,
      "note": 71,
      "start": 23.8322,
      "duration": 0.1495,
      "velocity": 111,
      "chip": "ym2612"
    },
    {
      "channel": 4,
      "note": 78,
      "start": 23.8335,
      "duration": 0.4328,
      "velocity": 106,
      "chip": "ym2612"
    },
    {
      "channel": 5,
      "note": 32,
      "start": 23.8343,
      "duration": 0.1437,
      "velocity": 114,
      "chip": "ym2612"
    },
    {
      "channel": 1,
      "note": 64,
      "start": 23.9817,
      "duration": 0.1331,
      "velocity": 101,
      "chip": "ym2612"
    },
    {
      "channel": 2,
      "note": 71,
      "start": 23.9823,
      "duration": 0.2827,
      "velocity": 111,
      "chip": "ym2612"
    },
    {
      "channel": 5,
      "note": 32,
      "start": 23.9839,
      "duration": 0.1274,
      "velocity": 114,
      "chip": "ym2612"
    },
    {
      "channel": 0,
      "note": 85,
      "start": 24.1147,
      "duration": 0.2969,
      "velocity": 106,
      "chip": "ym2612"
    },
    {
      "channel": 1,
      "note": 64,
      "start": 24.1154,
      "duration": 0.149,
      "velocity": 101,
      "chip": "ym2612"
    },
    {
      "channel": 5,
      "note": 75,
      "start": 24.1175,
      "duration": 0.1439,
      "velocity": 120,
      "chip": "ym2612"
    },
    {
      "channel": 1,
      "note": 63,
      "start": 24.2649,
      "duration": 0.2828,
      "velocity": 101,
      "chip": "ym2612"
    },
    {
      "channel": 2,
      "note": 69,
      "start": 24.2657,
      "duration": 0.2827,
      "velocity": 111,
      "chip": "ym2612"
    },
    {
      "channel": 4,
      "note": 85,
      "start": 24.267,
      "duration": 0.2823,
      "velocity": 106,
      "chip": "ym2612"
    },
    {
      "channel": 5,
      "note": 32,
      "start": 24.2678,
      "duration": 0.1956,
      "velocity": 114,
      "chip": "ym2612"
    },
    {
      "channel": 0,
      "note": 83,
      "start": 24.4123,
      "duration": 0.4324,
      "velocity": 106,
      "chip": "ym2612"
    },
    {
      "channel": 3,
      "note": 75,
      "start": 24.4139,
      "duration": 1.166,
      "velocity": 106,
      "chip": "ym2612"
    },
    {
      "channel": 1,
      "note": 63,
      "start": 24.5483,
      "duration": 0.1495,
      "velocity": 101,
      "chip": "ym2612"
    },
    {
      "channel": 2,
      "note": 69,
      "start": 24.5489,
      "duration": 0.1495,
      "velocity": 111,
      "chip": "ym2612"
    },
    {
      "channel": 4,
      "note": 83,
      "start": 24.55,
      "duration": 0.4494,
      "velocity": 106,
      "chip": "ym2612"
    },
    {
      "channel": 5,
      "note": 32,
      "start": 24.5509,
      "duration": 0.1438,
      "velocity": 114,
      "chip": "ym2612"
    },
    {
      "channel": 1,
      "note": 63,
      "start": 24.6983,
      "duration": 0.1473,
      "velocity": 101,
      "chip": "ym2612"
    },
    {
      "channel": 2,
      "note": 69,
      "start": 24.699,
      "duration": 0.2994,
      "velocity": 111,
      "chip": "ym2612"
    },
    {
      "channel": 5,
      "note": 75,
      "start": 24.7005,
      "duration": 0.2942,
      "velocity": 120,
      "chip": "ym2612"
    },
    {
      "channel": 0,
      "note": 81,
      "start": 24.8454,
      "duration": 0.4352,
      "velocity": 106,
      "chip": "ym2612"
    },
    {
      "channel": 1,
      "note": 63,
      "start": 24.8461,
      "duration": 0.1515,
      "velocity": 101,
      "chip": "ym2612"
    },
    {
      "channel": 1,
      "note": 63,
      "start": 24.9983,
      "duration": 0.1328,
      "velocity": 101,
      "chip": "ym2612"
    },
    {
      "channel": 2,
      "note": 69,
      "start": 24.9989,
      "duration": 0.1329,
      "velocity": 111,
      "chip": "ym2612"
    },
    {
      "channel": 4,
      "note": 81,
      "start": 25.0002,
      "duration": 0.4328,
      "velocity": 106,
      "chip": "ym2612"
    },
    {
      "channel": 5,
      "note": 32,
      "start": 25.001,
      "duration": 0.1271,
      "velocity": 114,
      "chip": "ym2612"
    },
    {
      "channel": 1,
      "note": 63,
      "start": 25.1317,
      "duration": 0.1498,
      "velocity": 101,
      "chip": "ym2612"
    },
    {
      "channel": 2,
      "note": 69,
      "start": 25.1323,
      "duration": 0.2994,
      "velocity": 111,
      "chip": "ym2612"
    },
    {
      "channel": 5,
      "note": 32,
      "start": 25.1339,
      "duration": 0.1441,
      "velocity": 114,
      "chip": "ym2612"
    },
    {
      "channel": 0,
      "note": 80,
      "start": 25.2813,
      "duration": 0.297,
      "velocity": 106,
      "chip": "ym2612"
    },
    {
      "channel": 1,
      "note": 63,
      "start": 25.282,
      "duration": 0.149,
      "velocity": 101,
      "chip": "ym2612"
    },
    {
      "channel": 5,
      "note": 75,
      "start": 25.2841,
      "duration": 0.1439,
      "velocity": 120,
      "chip": "ym2612"
    },
    {
      "channel": 1,
      "note": 62,
      "start": 25.4316,
      "duration": 0.2828,
      "velocity": 101,
      "chip": "ym2612"
    },
    {
      "channel": 2,
      "note": 69,
      "start": 25.4324,
      "duration": 0.2827,
      "velocity": 111,
      "chip": "ym2612"
    },
    {
      "channel": 4,
      "note": 80,
      "start": 25.4337,
      "duration": 0.2823,
      "velocity": 106,
      "chip": "ym2612"
    },
    {
      "channel": 5,
      "note": 32,
      "start": 25.4344,
      "duration": 0.1789,
      "velocity": 114,
      "chip": "ym2612"
    },
    {
      "channel": 0,
      "note": 81,
      "start": 25.579,
      "duration": 0.285,
      "velocity": 106,
      "chip": "ym2612"
    },
    {
      "channel": 3,
      "note": 74,
      "start": 25.5806,
      "duration": 1.1492,
      "velocity": 106,
      "chip": "ym2612"
    },
    {
      "channel": 1,
      "note": 62,
      "start": 25.7149,
      "duration": 0.1499,
      "velocity": 101,
      "chip": "ym2612"
    },
    {
      "channel": 2,
      "note": 69,
      "start": 25.7156,
      "duration": 0.1499,
      "velocity": 111,
      "chip": "ym2612"
    },
    {
      "channel": 4,
      "note": 81,
      "start": 25.7167,
      "duration": 0.2971,
      "velocity": 106,
      "chip": "ym2612"
    },
    {
      "channel": 5,
      "note": 32,
      "start": 25.7175,
      "duration": 0.1438,
      "velocity": 114,
      "chip": "ym2612"
    },
    {
      "channel": 0,
      "note": 78,
      "start": 25.8647,
      "duration": 0.1468,
      "velocity": 106,
      "chip": "ym2612"
    },
    {
      "channel": 1,
      "note": 62,
      "start": 25.8654,
      "duration": 0.1469,
      "velocity": 101,
      "chip": "ym2612"
    },
    {
      "channel": 2,
      "note": 69,
      "start": 25.866,
      "duration": 0.2826,
      "velocity": 111,
      "chip": "ym2612"
    },
    {
      "channel": 5,
      "note": 75,
      "start": 25.8675,
      "duration": 0.2772,
      "velocity": 120,
      "chip": "ym2612"
    },
    {
      "channel": 0,
      "note": 85,
      "start": 26.0121,
      "duration": 0.7162,
      "velocity": 106,
      "chip": "ym2612"
    },
    {
      "channel": 1,
      "note": 62,
      "start": 26.0128,
      "duration": 0.1351,
      "velocity": 101,
      "chip": "ym2612"
    },
    {
      "channel": 4,
      "note": 78,
      "start": 26.0145,
      "duration": 0.1351,
      "velocity": 106,
      "chip": "ym2612"
    },
    {
      "channel": 1,
      "note": 62,
      "start": 26.1484,
      "duration": 0.1493,
      "velocity": 101,
      "chip": "ym2612"
    },
    {
      "channel": 2,
      "note": 69,
      "start": 26.1491,
      "duration": 0.1494,
      "velocity": 111,
      "chip": "ym2612"
    },
    {
      "channel": 4,
      "note": 85,
      "start": 26.1503,
      "duration": 0.7333,
      "velocity": 106,
      "chip": "ym2612"
    },
    {
      "channel": 5,
      "note": 32,
      "start": 26.1512,
      "duration": 0.1435,
      "velocity": 114,
      "chip": "ym2612"
    },
    {
      "channel": 1,
      "note": 62,
      "start": 26.2983,
      "duration": 0.1494,
      "velocity": 101,
      "chip": "ym2612"
    },
    {
      "channel": 2,
      "note": 69,
      "start": 26.299,
      "duration": 0.2995,
      "velocity": 111,
      "chip": "ym2612"
    },
    {
      "channel": 5,
      "note": 32,
      "start": 26.3008,
      "duration": 0.1439,
      "velocity": 114,
      "chip": "ym2612"
    },
    {
      "channel": 1,
      "note": 62,
      "start": 26.4483,
      "duration": 0.1495,
      "velocity": 101,
      "chip": "ym2612"
    },
    {
      "channel": 5,
      "note": 75,
      "start": 26.4504,
      "duration": 0.1443,
      "velocity": 120,
      "chip": "ym2612"
    },
    {
      "channel": 1,
      "note": 64,
      "start": 26.5984,
      "duration": 0.2831,
      "velocity": 101,
      "chip": "ym2612"
    },
    {
      "channel": 2,
      "note": 71,
      "start": 26.5991,
      "duration": 0.283,
      "velocity": 111,
      "chip": "ym2612"
    },
    {
      "channel": 5,
      "note": 32,
      "start": 26.6009,
      "duration": 0.1786,
      "velocity": 114,
      "chip": "ym2612"
    },
    {
      "channel": 0,
      "note": 80,
      "start": 26.8813,
      "duration": 0.4326,
      "velocity": 106,
      "chip": "ym2612"
    },
    {
      "channel": 1,
      "note": 64,
      "start": 26.882,
      "duration": 0.149,
      "velocity": 101,
      "chip": "ym2612"
    },
    {
      "channel": 2,
      "note": 71,
      "start": 26.8827,
      "duration": 0.149,
      "velocity": 111,
      "chip": "ym2612"
    },
    {
      "channel": 3,
      "note": 76,
      "start": 26.8835,
      "duration": 0.4326,
      "velocity": 106,
      "chip": "ym2612"
    },
    {
      "channel": 5,
      "note": 32,
      "start": 26.8846,
      "duration": 0.1434,
      "velocity": 114,
      "chip": "ym2612"
    },
    {
      "channel": 1,
      "note": 64,
      "start": 27.0316,
      "duration": 0.1469,
      "velocity": 101,
      "chip": "ym2612"
    },
    {
      "channel": 2,
      "note": 71,
      "start": 27.0322,
      "duration": 0.2833,
      "velocity": 111,
      "chip": "ym2612"
    },
    {
      "channel": 4,
      "note": 80,
      "start": 27.0334,
      "duration": 0.4327,
      "velocity": 106,
      "chip": "ym2612"
    },
    {
      "channel": 5,
      "note": 75,
      "start": 27.0341,
      "duration": 0.2773,
      "velocity": 120,
      "chip": "ym2612"
    },
    {
      "channel": 1,
      "note": 64,
      "start": 27.1791,
      "duration": 0.1357,
      "velocity": 101,
      "chip": "ym2612"
    },
    {
      "channel": 0,
      "note": 81,
      "start": 27.3147,
      "duration": 0.2993,
      "velocity": 106,
      "chip": "ym2612"
    },
    {
      "channel": 1,
      "note": 64,
      "start": 27.3154,
      "duration": 0.149,
      "velocity": 101,
      "chip": "ym2612"
    },
    {
      "channel": 2,
      "note": 71,
      "start": 27.316,
      "duration": 0.149,
      "velocity": 111,
      "chip": "ym2612"
    },
    {
      "channel": 3,
      "note": 78,
      "start": 27.3168,
      "duration": 0.2991,
      "velocity": 106,
      "chip": "ym2612"
    },
    {
      "channel": 5,
      "note": 32,
      "start": 27.3181,
      "duration": 0.1433,
      "velocity": 114,
      "chip": "ym2612"
    },
    {
      "channel": 1,
      "note": 64,
      "start": 27.4649,
      "duration": 0.1499,
      "velocity": 101,
      "chip": "ym2612"
    },
    {
      "channel": 2,
      "note": 71,
      "start": 27.4656,
      "duration": 0.2833,
      "velocity": 111,
      "chip": "ym2612"
    },
    {
      "channel": 4,
      "note": 81,
      "start": 27.4667,
      "duration": 0.2838,
      "velocity": 106,
      "chip": "ym2612"
    },
    {
      "channel": 5,
      "note": 32,
      "start": 27.4675,
      "duration": 0.1438,
      "velocity": 114,
      "chip": "ym2612"
    },
    {
      "channel": 0,
      "note": 83,
      "start": 27.6147,
      "duration": 0.1326,
      "velocity": 106,
      "chip": "ym2612"
    },
    {
      "channel": 1,
      "note": 64,
      "start": 27.6154,
      "duration": 0.1328,
      "velocity": 101,
      "chip": "ym2612"
    },
    {
      "channel": 3,
      "note": 80,
      "start": 27.6166,
      "duration": 0.133,
      "velocity": 106,
      "chip": "ym2612"
    },
    {
      "channel": 5,
      "note": 75,
      "start": 27.6177,
      "duration": 0.127,
      "velocity": 120,
      "chip": "ym2612"
    },
    {
      "channel": 0,
      "note": 85,
      "start": 27.748,
      "duration": 0.8826,
      "velocity": 106,
      "chip": "ym2612"
    },
    {
      "channel": 1,
      "note": 66,
      "start": 27.7487,
      "duration": 0.2992,
      "velocity": 101,
      "chip": "ym2612"
    },
    {
      "channel": 2,
      "note": 73,
      "start": 27.7495,
      "duration": 0.299,
      "velocity": 111,
      "chip": "ym2612"
    },
    {
      "channel": 3,
      "note": 81,
      "start": 27.7503,
      "duration": 0.8826,
      "velocity": 106,
      "chip": "ym2612"
    },
    {
      "channel": 4,
      "note": 83,
      "start": 27.7512,
      "duration": 0.1453,
      "velocity": 106,
      "chip": "ym2612"
    },
    {
      "channel": 5,
      "note": 32,
      "start": 27.752,
      "duration": 0.1947,
      "velocity": 114,
      "chip": "ym2612"
    },
    {
      "channel": 4,
      "note": 85,
      "start": 27.8972,
      "duration": 0.8863,
      "velocity": 106,
      "chip": "ym2612"
    },
    {
      "channel": 1,
      "note": 66,
      "start": 28.0484,
      "duration": 0.1493,
      "velocity": 101,
      "chip": "ym2612"
    },
    {
      "channel": 2,
      "note": 73,
      "start": 28.0491,
      "duration": 0.1494,
      "velocity": 111,
      "chip": "ym2612"
    },
    {
      "channel": 5,
      "note": 32,
      "start": 28.0507,
      "duration": 0.144,
      "velocity": 114,
      "chip": "ym2612"
    },
    {
      "channel": 1,
      "note": 66,
      "start": 28.1983,
      "duration": 0.1303,
      "velocity": 101,
      "chip": "ym2612"
    },
    {
      "channel": 2,
      "note": 73,
      "start": 28.199,
      "duration": 0.2828,
      "velocity": 111,
      "chip": "ym2612"
    },
    {
      "channel": 5,
      "note": 75,
      "start": 28.2006,
      "duration": 0.2774,
      "velocity": 120,
      "chip": "ym2612"
    },
    {
      "channel": 1,
      "note": 66,
      "start": 28.3292,
      "duration": 0.1519,
      "velocity": 101,
      "chip": "ym2612"
    },
    {
      "channel": 1,
      "note": 66,
      "start": 28.4817,
      "duration": 0.1498,
      "velocity": 101,
      "chip": "ym2612"
    },
    {
      "channel": 2,
      "note": 73,
      "start": 28.4823,
      "duration": 0.15,
      "velocity": 111,
      "chip": "ym2612"
    },
    {
      "channel": 5,
      "note": 32,
      "start": 28.4841,
      "duration": 0.144,
      "velocity": 114,
      "chip": "ym2612"
    },
    {
      "channel": 0,
      "note": 86,
      "start": 28.6313,
      "duration": 0.1493,
      "velocity": 106,
      "chip": "ym2612"
    },
    {
      "channel": 1,
      "note": 66,
      "start": 28.632,
      "duration": 0.1494,
      "velocity": 101,
      "chip": "ym2612"
    },
    {
      "channel": 2,
      "note": 73,
      "start": 28.6327,
      "duration": 0.2828,
      "velocity": 111,
      "chip": "ym2612"
    },
    {
      "channel": 3,
      "note": 83,
      "start": 28.6336,
      "duration": 0.149,
      "velocity": 106,
      "chip": "ym2612"
    },
    {
      "channel": 5,
      "note": 32,
      "start": 28.6349,
      "duration": 0.1431,
      "velocity": 114,
      "chip": "ym2612"
    },
    {
      "channel": 0,
      "note": 85,
      "start": 28.7813,
      "duration": 0.1326,
      "velocity": 106,
      "chip": "ym2612"
    },
    {
      "channel": 1,
      "note": 66,
      "start": 28.782,
      "duration": 0.1328,
      "velocity": 101,
      "chip": "ym2612"
    },
    {
      "channel": 3,
      "note": 81,
      "start": 28.7833,
      "duration": 0.1328,
      "velocity": 106,
      "chip": "ym2612"
    },
    {
      "channel": 4,
      "note": 86,
      "start": 28.7841,
      "duration": 0.1328,
      "velocity": 106,
      "chip": "ym2612"
    },
    {
      "channel": 5,
      "note": 75,
      "start": 28.7848,
      "duration": 0.1265,
      "velocity": 120,
      "chip": "ym2612"
    },
    {
      "channel": 0,
      "note": 86,
      "start": 28.9147,
      "duration": 0.2993,
      "velocity": 106,
      "chip": "ym2612"
    },
    {
      "channel": 1,
      "note": 66,
      "start": 28.9154,
      "duration": 0.2994,
      "velocity": 101,
      "chip": "ym2612"
    },
    {
      "channel": 2,
      "note": 73,
      "start": 28.916,
      "duration": 0.2995,
      "velocity": 111,
      "chip": "ym2612"
    },
    {
      "channel": 3,
      "note": 83,
      "start": 28.9168,
      "duration": 0.2993,
      "velocity": 106,
      "chip": "ym2612"
    },
    {
      "channel": 4,
      "note": 85,
      "start": 28.9176,
      "duration": 0.1455,
      "velocity": 106,
      "chip": "ym2612"
    },
    {
      "channel": 5,
      "note": 32,
      "start": 28.9185,
      "duration": 0.1949,
      "velocity": 114,
      "chip": "ym2612"
    },
    {
      "channel": 4,
      "note": 86,
      "start": 29.0638,
      "duration": 0.286,
      "velocity": 106,
      "chip": "ym2612"
    },
    {
      "channel": 0,
      "note": 85,
      "start": 29.2147,
      "duration": 1.016,
      "velocity": 106,
      "chip": "ym2612"
    },
    {
      "channel": 1,
      "note": 66,
      "start": 29.2154,
      "duration": 0.1325,
      "velocity": 101,
      "chip": "ym2612"
    },
    {
      "channel": 2,
      "note": 73,
      "start": 29.216,
      "duration": 0.1326,
      "velocity": 111,
      "chip": "ym2612"
    },
    {
      "channel": 3,
      "note": 81,
      "start": 29.2168,
      "duration": 1.0167,
      "velocity": 106,
      "chip": "ym2612"
    },
    {
      "channel": 5,
      "note": 32,
      "start": 29.218,
      "duration": 0.1267,
      "velocity": 114,
      "chip": "ym2612"
    },
    {
      "channel": 1,
      "note": 66,
      "start": 29.3484,
      "duration": 0.1468,
      "velocity": 101,
      "chip": "ym2612"
    },
    {
      "channel": 2,
      "note": 73,
      "start": 29.3491,
      "duration": 0.2994,
      "velocity": 111,
      "chip": "ym2612"
    },
    {
      "channel": 4,
      "note": 85,
      "start": 29.3504,
      "duration": 1.0302,
      "velocity": 106,
      "chip": "ym2612"
    },
    {
      "channel": 5,
      "note": 75,
      "start": 29.3512,
      "duration": 0.2935,
      "velocity": 120,
      "chip": "ym2612"
    },
    {
      "channel": 1,
      "note": 66,
      "start": 29.4958,
      "duration": 0.152,
      "velocity": 101,
      "chip": "ym2612"
    },
    {
      "channel": 1,
      "note": 66,
      "start": 29.6483,
      "duration": 0.1495,
      "velocity": 101,
      "chip": "ym2612"
    },
    {
      "channel": 2,
      "note": 73,
      "start": 29.649,
      "duration": 0.1495,
      "velocity": 111,
      "chip": "ym2612"
    },
    {
      "channel": 5,
      "note": 32,
      "start": 29.6507,
      "duration": 0.144,
      "velocity": 114,
      "chip": "ym2612"
    },
    {
      "channel": 1,
      "note": 66,
      "start": 29.7984,
      "duration": 0.1327,
      "velocity": 101,
      "chip": "ym2612"
    },
    {
      "channel": 2,
      "note": 73,
      "start": 29.799,
      "duration": 0.2828,
      "velocity": 111,
      "chip": "ym2612"
    },
    {
      "channel": 5,
      "note": 75,
      "start": 29.8007,
      "duration": 0.1274,
      "velocity": 120,
      "chip": "ym2612"
    },
    {
      "channel": 1,
      "note": 66,
      "start": 29.9317,
      "duration": 0.1495,
      "velocity": 101,
      "chip": "ym2612"
    },
    {
      "channel": 5,
      "note": 75,
      "start": 29.9337,
      "duration": 0.1444,
      "velocity": 120,
      "chip": "ym2612"
    },
    {
      "channel": 1,
      "note": 66,
      "start": 30.0817,
      "duration": 0.1499,
      "velocity": 101,
      "chip": "ym2612"
    },
    {
      "channel": 2,
      "note": 73,
      "start": 30.0824,
      "duration": 0.15,
      "velocity": 111,
      "chip": "ym2612"
    },
    {
      "channel": 5,
      "note": 75,
      "start": 30.0839,
      "duration": 0.1441,
      "velocity": 120,
      "chip": "ym2612"
    },
    {
      "channel": 0,
      "note": 85,
      "start": 30.2313,
      "duration": 0.1468,
      "velocity": 106,
      "chip": "ym2612"
    },
    {
      "channel": 1,
      "note": 66,
      "start": 30.2322,
      "duration": 0.1468,
      "velocity": 101,
      "chip": "ym2612"
    },
    {
      "channel": 2,
      "note": 73,
      "start": 30.233,
      "duration": 0.1466,
      "velocity": 111,
      "chip": "ym2612"
    },
    {
      "channel": 3,
      "note": 78,
      "start": 30.2343,
      "duration": 1.1618,
      "velocity": 106,
      "chip": "ym2612"
    },
    {
      "channel": 5,
      "note": 32,
      "start": 30.2355,
      "duration": 0.1778,
      "velocity": 114,
      "chip": "ym2612"
    },
    {
      "channel": 0,
      "note": 86,
      "start": 30.3788,
      "duration": 0.1352,
      "velocity": 106,
      "chip": "ym2612"
    },
    {
      "channel": 1,
      "note": 66,
      "start": 30.3795,
      "duration": 0.1353,
      "velocity": 101,
      "chip": "ym2612"
    },
    {
      "channel": 2,
      "note": 73,
      "start": 30.3801,
      "duration": 0.1354,
      "velocity": 111,
      "chip": "ym2612"
    },
    {
      "channel": 4,
      "note": 85,
      "start": 30.3813,
      "duration": 0.1353,
      "velocity": 106,
      "chip": "ym2612"
    },
    {
      "channel": 0,
      "note": 88,
      "start": 30.5147,
      "duration": 0.1468,
      "velocity": 106,
      "chip": "ym2612"
    },
    {
      "channel": 1,
      "note": 66,
      "start": 30.5154,
      "duration": 0.1469,
      "velocity": 101,
      "chip": "ym2612"
    },
    {
      "channel": 2,
      "note": 73,
      "start": 30.516,
      "duration": 0.2992,
      "velocity": 111,
      "chip": "ym2612"
    },
    {
      "channel": 4,
      "note": 86,
      "start": 30.5173,
      "duration": 0.1466,
      "velocity": 106,
      "chip": "ym2612"
    },
    {
      "channel": 5,
      "note": 75,
      "start": 30.518,
      "duration": 0.2934,
      "velocity": 120,
      "chip": "ym2612"
    },
    {
      "channel": 0,
      "note": 85,
      "start": 30.6621,
      "duration": 0.7328,
      "velocity": 106,
      "chip": "ym2612"
    },
    {
      "channel": 1,
      "note": 66,
      "start": 30.6628,
      "duration": 0.1517,
      "velocity": 101,
      "chip": "ym2612"
    },
    {
      "channel": 4,
      "note": 88,
      "start": 30.6645,
      "duration": 0.1518,
      "velocity": 106,
      "chip": "ym2612"
    },
    {
      "channel": 1,
      "note": 66,
      "start": 30.8151,
      "duration": 0.1326,
      "velocity": 101,
      "chip": "ym2612"
    },
    {
      "channel": 2,
      "note": 73,
      "start": 30.8157,
      "duration": 0.1327,
      "velocity": 111,
      "chip": "ym2612"
    },
    {
      "channel": 4,
      "note": 85,
      "start": 30.817,
      "duration": 0.7162,
      "velocity": 106,
      "chip": "ym2612"
    },
    {
      "channel": 5,
      "note": 32,
      "start": 30.8178,
      "duration": 0.1268,
      "velocity": 114,
      "chip": "ym2612"
    },
    {
      "channel": 1,
      "note": 66,
      "start": 30.9483,
      "duration": 0.1494,
      "velocity": 101,
      "chip": "ym2612"
    },
    {
      "channel": 2,
      "note": 73,
      "start": 30.949,
      "duration": 0.2995,
      "velocity": 111,
      "chip": "ym2612"
    },
    {
      "channel": 5,
      "note": 32,
      "start": 30.9508,
      "duration": 0.1439,
      "velocity": 114,
      "chip": "ym2612"
    },
    {
      "channel": 1,
      "note": 66,
      "start": 31.0983,
      "duration": 0.1495,
      "velocity": 101,
      "chip": "ym2612"
    },
    {
      "channel": 5,
      "note": 75,
      "start": 31.1004,
      "duration": 0.1443,
      "velocity": 120,
      "chip": "ym2612"
    },
    {
      "channel": 1,
      "note": 65,
      "start": 31.2484,
      "duration": 0.2831,
      "velocity": 101,
      "chip": "ym2612"
    },
    {
      "channel": 2,
      "note": 72,
      "start": 31.2491,
      "duration": 0.283,
      "velocity": 111,
      "chip": "ym2612"
    },
    {
      "channel": 5,
      "note": 32,
      "start": 31.2509,
      "duration": 0.1955,
      "velocity": 114,
      "chip": "ym2612"
    },
    {
      "channel": 3,
      "note": 77,
      "start": 31.3967,
      "duration": 1.1499,
      "velocity": 106,
      "chip": "ym2612"
    },
    {
      "channel": 0,
      "note": 85,
      "start": 31.5313,
      "duration": 0.1493,
      "velocity": 106,
      "chip": "ym2612"
    },
    {
      "channel": 1,
      "note": 65,
      "start": 31.532,
      "duration": 0.1494,
      "velocity": 101,
      "chip": "ym2612"
    },
    {
      "channel": 2,
      "note": 72,
      "start": 31.5327,
      "duration": 0.1495,
      "velocity": 111,
      "chip": "ym2612"
    },
    {
      "channel": 5,
      "note": 32,
      "start": 31.5341,
      "duration": 0.1439,
      "velocity": 114,
      "chip": "ym2612"
    },
    {
      "channel": 0,
      "note": 86,
      "start": 31.6813,
      "duration": 0.1468,
      "velocity": 106,
      "chip": "ym2612"
    },
    {
      "channel": 1,
      "note": 65,
      "start": 31.682,
      "duration": 0.1469,
      "velocity": 101,
      "chip": "ym2612"
    },
    {
      "channel": 2,
      "note": 72,
      "start": 31.6827,
      "duration": 0.2995,
      "velocity": 111,
      "chip": "ym2612"
    },
    {
      "channel": 4,
      "note": 85,
      "start": 31.6839,
      "duration": 0.1466,
      "velocity": 106,
      "chip": "ym2612"
    },
    {
      "channel": 5,
      "note": 75,
      "start": 31.6846,
      "duration": 0.2934,
      "velocity": 120,
      "chip": "ym2612"
    },
    {
      "channel": 0,
      "note": 88,
      "start": 31.8287,
      "duration": 0.1519,
      "velocity": 106,
      "chip": "ym2612"
    },
    {
      "channel": 1,
      "note": 65,
      "start": 31.8295,
      "duration": 0.152,
      "velocity": 101,
      "chip": "ym2612"
    },
    {
      "channel": 4,
      "note": 86,
      "start": 31.8312,
      "duration": 0.1521,
      "velocity": 106,
      "chip": "ym2612"
    },
    {
      "channel": 0,
      "note": 85,
      "start": 31.9813,
      "duration": 0.1326,
      "velocity": 106,
      "chip": "ym2612"
    },
    {
      "channel": 1,
      "note": 65,
      "start": 31.982,
      "duration": 0.1328,
      "velocity": 101,
      "chip": "ym2612"
    },
    {
      "channel": 2,
      "note": 72,
      "start": 31.9827,
      "duration": 0.1328,
      "velocity": 111,
      "chip": "ym2612"
    },
    {
      "channel": 4,
      "note": 88,
      "start": 31.9839,
      "duration": 0.1327,
      "velocity": 106,
      "chip": "ym2612"
    },
    {
      "channel": 5,
      "note": 32,
      "start": 31.9848,
      "duration": 0.1266,
      "velocity": 114,
      "chip": "ym2612"
    },
    {
      "channel": 0,
      "note": 83,
      "start": 32.1147,
      "duration": 0.2993,
      "velocity": 106,
      "chip": "ym2612"
    },
    {
      "channel": 1,
      "note": 65,
      "start": 32.1154,
      "duration": 0.149,
      "velocity": 101,
      "chip": "ym2612"
    },
    {
      "channel": 2,
      "note": 72,
      "start": 32.116,
      "duration": 0.2995,
      "velocity": 111,
      "chip": "ym2612"
    },
    {
      "channel": 4,
      "note": 85,
      "start": 32.1173,
      "duration": 0.1487,
      "velocity": 106,
      "chip": "ym2612"
    },
    {
      "channel": 5,
      "note": 32,
      "start": 32.1181,
      "duration": 0.1433,
      "velocity": 114,
      "chip": "ym2612"
    },
    {
      "channel": 1,
      "note": 65,
      "start": 32.2649,
      "duration": 0.1499,
      "velocity": 101,
      "chip": "ym2612"
    },
    {
      "channel": 4,
      "note": 83,
      "start": 32.2666,
      "duration": 0.2807,
      "velocity": 106,
      "chip": "ym2612"
    },
    {
      "channel": 5,
      "note": 75,
      "start": 32.2673,
      "duration": 0.144,
      "velocity": 120,
      "chip": "ym2612"
    },
    {
      "channel": 0,
      "note": 81,
      "start": 32.4147,
      "duration": 0.1303,
      "velocity": 106,
      "chip": "ym2612"
    },
    {
      "channel": 1,
      "note": 64,
      "start": 32.4154,
      "duration": 0.2823,
      "velocity": 101,
      "chip": "ym2612"
    },
    {
      "channel": 2,
      "note": 71,
      "start": 32.4162,
      "duration": 0.2822,
      "velocity": 111,
      "chip": "ym2612"
    },
    {
      "channel": 5,
      "note": 32,
      "start": 32.4178,
      "duration": 0.1789,
      "velocity": 114,
      "chip": "ym2612"
    },
    {
      "channel": 0,
      "note": 85,
      "start": 32.5456,
      "duration": 0.4491,
      "velocity": 106,
      "chip": "ym2612"
    },
    {
      "channel": 3,
      "note": 76,
      "start": 32.5472,
      "duration": 1.166,
      "velocity": 106,
      "chip": "ym2612"
    },
    {
      "channel": 4,
      "note": 81,
      "start": 32.548,
      "duration": 0.1513,
      "velocity": 106,
      "chip": "ym2612"
    },
    {
      "channel": 1,
      "note": 64,
      "start": 32.6983,
      "duration": 0.1495,
      "velocity": 101,
      "chip": "ym2612"
    },
    {
      "channel": 2,
      "note": 71,
      "start": 32.6989,
      "duration": 0.1495,
      "velocity": 111,
      "chip": "ym2612"
    },
    {
      "channel": 4,
      "note": 85,
      "start": 32.7,
      "duration": 0.4328,
      "velocity": 106,
      "chip": "ym2612"
    },
    {
      "channel": 5,
      "note": 32,
      "start": 32.7009,
      "duration": 0.1438,
      "velocity": 114,
      "chip": "ym2612"
    },
    {
      "channel": 1,
      "note": 64,
      "start": 32.8483,
      "duration": 0.1473,
      "velocity": 101,
      "chip": "ym2612"
    },
    {
      "channel": 2,
      "note": 71,
      "start": 32.849,
      "duration": 0.2827,
      "velocity": 111,
      "chip": "ym2612"
    },
    {
      "channel": 5,
      "note": 75,
      "start": 32.8505,
      "duration": 0.2776,
      "velocity": 120,
      "chip": "ym2612"
    },
    {
      "channel": 0,
      "note": 78,
      "start": 32.9954,
      "duration": 0.4352,
      "velocity": 106,
      "chip": "ym2612"
    },
    {
      "channel": 1,
      "note": 64,
      "start": 32.9961,
      "duration": 0.1349,
      "velocity": 101,
      "chip": "ym2612"
    },
    {
      "channel": 1,
      "note": 64,
      "start": 33.1316,
      "duration": 0.1495,
      "velocity": 101,
      "chip": "ym2612"
    },
    {
      "channel": 2,
      "note": 71,
      "start": 33.1322,
      "duration": 0.1495,
      "velocity": 111,
      "chip": "ym2612"
    },
    {
      "channel": 4,
      "note": 78,
      "start": 33.1335,
      "duration": 0.4495,
      "velocity": 106,
      "chip": "ym2612"
    },
    {
      "channel": 5,
      "note": 32,
      "start": 33.1343,
      "duration": 0.1437,
      "velocity": 114,
      "chip": "ym2612"
    },
    {
      "channel": 1,
      "note": 64,
      "start": 33.2817,
      "duration": 0.1498,
      "velocity": 101,
      "chip": "ym2612"
    },
    {
      "channel": 2,
      "note": 71,
      "start": 33.2823,
      "duration": 0.2994,
      "velocity": 111,
      "chip": "ym2612"
    },
    {
      "channel": 5,
      "note": 32,
      "start": 33.2839,
      "duration": 0.1441,
      "velocity": 114,
      "chip": "ym2612"
    },
    {
      "channel": 0,
      "note": 85,
      "start": 33.4313,
      "duration": 0.2803,
      "velocity": 106,
      "chip": "ym2612"
    },
    {
      "channel": 1,
      "note": 64,
      "start": 33.432,
      "duration": 0.149,
      "velocity": 101,
      "chip": "ym2612"
    },
    {
      "channel": 5,
      "note": 75,
      "start": 33.4341,
      "duration": 0.1439,
      "velocity": 120,
      "chip": "ym2612"
    },
    {
      "channel": 1,
      "note": 63,
      "start": 33.5816,
      "duration": 0.2832,
      "velocity": 101,
      "chip": "ym2612"
    },
    {
      "channel": 2,
      "note": 69,
      "start": 33.5824,
      "duration": 0.2831,
      "velocity": 111,
      "chip": "ym2612"
    },
    {
      "channel": 4,
      "note": 85,
      "start": 33.5837,
      "duration": 0.2828,
      "velocity": 106,
      "chip": "ym2612"
    },
    {
      "channel": 5,
      "note": 32,
      "start": 33.5844,
      "duration": 0.1789,
      "velocity": 114,
      "chip": "ym2612"
    },
    {
      "channel": 0,
      "note": 83,
      "start": 33.7123,
      "duration": 0.1517,
      "velocity": 106,
      "chip": "ym2612"
    },
    {
      "channel": 3,
      "note": 75,
      "start": 33.7139,
      "duration": 1.1656,
      "velocity": 106,
      "chip": "ym2612"
    },
    {
      "channel": 0,
      "note": 81,
      "start": 33.8647,
      "duration": 0.5826,
      "velocity": 106,
      "chip": "ym2612"
    },
    {
      "channel": 1,
      "note": 63,
      "start": 33.8654,
      "duration": 0.149,
      "velocity": 101,
      "chip": "ym2612"
    },
    {
      "channel": 2,
      "note": 69,
      "start": 33.866,
      "duration": 0.149,
      "velocity": 111,
      "chip": "ym2612"
    },
    {
      "channel": 4,
      "note": 83,
      "start": 33.8672,
      "duration": 0.1489,
      "velocity": 106,
      "chip": "ym2612"
    },
    {
      "channel": 5,
      "note": 32,
      "start": 33.868,
      "duration": 0.1434,
      "velocity": 114,
      "chip": "ym2612"
    },
    {
      "channel": 1,
      "note": 63,
      "start": 34.0149,
      "duration": 0.1303,
      "velocity": 101,
      "chip": "ym2612"
    },
    {
      "channel": 2,
      "note": 69,
      "start": 34.0156,
      "duration": 0.2829,
      "velocity": 111,
      "chip": "ym2612"
    },
    {
      "channel": 4,
      "note": 81,
      "start": 34.0168,
      "duration": 0.5829,
      "velocity": 106,
      "chip": "ym2612"
    },
    {
      "channel": 5,
      "note": 75,
      "start": 34.0175,
      "duration": 0.2772,
      "velocity": 120,
      "chip": "ym2612"
    },
    {
      "channel": 1,
      "note": 63,
      "start": 34.1458,
      "duration": 0.152,
      "velocity": 101,
      "chip": "ym2612"
    },
    {
      "channel": 1,
      "note": 63,
      "start": 34.2983,
      "duration": 0.1498,
      "velocity": 101,
      "chip": "ym2612"
    },
    {
      "channel": 2,
      "note": 69,
      "start": 34.299,
      "duration": 0.1499,
      "velocity": 111,
      "chip": "ym2612"
    },
    {
      "channel": 5,
      "note": 32,
      "start": 34.3007,
      "duration": 0.144,
      "velocity": 114,
      "chip": "ym2612"
    },
    {
      "channel": 0,
      "note": 78,
      "start": 34.448,
      "duration": 0.1493,
      "velocity": 106,
      "chip": "ym2612"
    },
    {
      "channel": 1,
      "note": 63,
      "start": 34.4487,
      "duration": 0.1494,
      "velocity": 101,
      "chip": "ym2612"
    },
    {
      "channel": 2,
      "note": 69,
      "start": 34.4493,
      "duration": 0.2829,
      "velocity": 111,
      "chip": "ym2612"
    },
    {
      "channel": 5,
      "note": 32,
      "start": 34.451,
      "duration": 0.1437,
      "velocity": 114,
      "chip": "ym2612"
    },
    {
      "channel": 0,
      "note": 80,
      "start": 34.5979,
      "duration": 0.1327,
      "velocity": 106,
      "chip": "ym2612"
    },
    {
      "channel": 1,
      "note": 63,
      "start": 34.5987,
      "duration": 0.1328,
      "velocity": 101,
      "chip": "ym2612"
    },
    {
      "channel": 4,
      "note": 78,
      "start": 34.6004,
      "duration": 0.1331,
      "velocity": 106,
      "chip": "ym2612"
    },
    {
      "channel": 5,
      "note": 75,
      "start": 34.6011,
      "duration": 0.1269,
      "velocity": 120,
      "chip": "ym2612"
    },
    {
      "channel": 0,
      "note": 81,
      "start": 34.7313,
      "duration": 0.8826,
      "velocity": 106,
      "chip": "ym2612"
    },
    {
      "channel": 1,
      "note": 62,
      "start": 34.732,
      "duration": 0.299,
      "velocity": 101,
      "chip": "ym2612"
    },
    {
      "channel": 2,
      "note": 69,
      "start": 34.7329,
      "duration": 0.299,
      "velocity": 111,
      "chip": "ym2612"
    },
    {
      "channel": 4,
      "note": 80,
      "start": 34.7341,
      "duration": 0.1461,
      "velocity": 106,
      "chip": "ym2612"
    },
    {
      "channel": 5,
      "note": 32,
      "start": 34.735,
      "duration": 0.195,
      "velocity": 114,
      "chip": "ym2612"
    },
    {
      "channel": 3,
      "note": 74,
      "start": 34.8801,
      "duration": 0.7364,
      "velocity": 106,
      "chip": "ym2612"
    },
    {
      "channel": 4,
      "note": 81,
      "start": 34.881,
      "duration": 0.8691,
      "velocity": 106,
      "chip": "ym2612"
    },
    {
      "channel": 1,
      "note": 62,
      "start": 35.0317,
      "duration": 0.1494,
      "velocity": 101,
      "chip": "ym2612"
    },
    {
      "channel": 2,
      "note": 69,
      "start": 35.0323,
      "duration": 0.1495,
      "velocity": 111,
      "chip": "ym2612"
    },
    {
      "channel": 5,
      "note": 32,
      "start": 35.0338,
      "duration": 0.1442,
      "velocity": 114,
      "chip": "ym2612"
    },
    {
      "channel": 1,
      "note": 62,
      "start": 35.1817,
      "duration": 0.1303,
      "velocity": 101,
      "chip": "ym2612"
    },
    {
      "channel": 2,
      "note": 69,
      "start": 35.1823,
      "duration": 0.2828,
      "velocity": 111,
      "chip": "ym2612"
    },
    {
      "channel": 5,
      "note": 75,
      "start": 35.1839,
      "duration": 0.2774,
      "velocity": 120,
      "chip": "ym2612"
    },
    {
      "channel": 1,
      "note": 62,
      "start": 35.3125,
      "duration": 0.1519,
      "velocity": 101,
      "chip": "ym2612"
    },
    {
      "channel": 1,
      "note": 62,
      "start": 35.465,
      "duration": 0.1498,
      "velocity": 101,
      "chip": "ym2612"
    },
    {
      "channel": 2,
      "note": 69,
      "start": 35.4656,
      "duration": 0.1499,
      "velocity": 111,
      "chip": "ym2612"
    },
    {
      "channel": 5,
      "note": 32,
      "start": 35.4676,
      "duration": 0.1438,
      "velocity": 114,
      "chip": "ym2612"
    },
    {
      "channel": 0,
      "note": 78,
      "start": 35.6147,
      "duration": 0.1326,
      "velocity": 106,
      "chip": "ym2612"
    },
    {
      "channel": 1,
      "note": 62,
      "start": 35.6154,
      "duration": 0.1328,
      "velocity": 101,
      "chip": "ym2612"
    },
    {
      "channel": 2,
      "note": 69,
      "start": 35.616,
      "duration": 0.2829,
      "velocity": 111,
      "chip": "ym2612"
    },
    {
      "channel": 3,
      "note": 73,
      "start": 35.6172,
      "duration": 0.1321,
      "velocity": 106,
      "chip": "ym2612"
    },
    {
      "channel": 5,
      "note": 32,
      "start": 35.6185,
      "duration": 0.1262,
      "velocity": 114,
      "chip": "ym2612"
    },
    {
      "channel": 0,
      "note": 81,
      "start": 35.748,
      "duration": 0.1493,
      "velocity": 106,
      "chip": "ym2612"
    },
    {
      "channel": 1,
      "note": 62,
      "start": 35.7487,
      "duration": 0.1494,
      "velocity": 101,
      "chip": "ym2612"
    },
    {
      "channel": 3,
      "note": 78,
      "start": 35.7499,
      "duration": 0.1498,
      "velocity": 106,
      "chip": "ym2612"
    },
    {
      "channel": 4,
      "note": 78,
      "start": 35.7507,
      "duration": 0.1498,
      "velocity": 106,
      "chip": "ym2612"
    },
    {
      "channel": 5,
      "note": 75,
      "start": 35.7515,
      "duration": 0.1432,
      "velocity": 120,
      "chip": "ym2612"
    },
    {
      "channel": 0,
      "note": 85,
      "start": 35.898,
      "duration": 0.4326,
      "velocity": 106,
      "chip": "ym2612"
    },
    {
      "channel": 1,
      "note": 64,
      "start": 35.8987,
      "duration": 0.299,
      "velocity": 101,
      "chip": "ym2612"
    },
    {
      "channel": 2,
      "note": 71,
      "start": 35.8995,
      "duration": 0.299,
      "velocity": 111,
      "chip": "ym2612"
    },
    {
      "channel": 3,
      "note": 80,
      "start": 35.9003,
      "duration": 0.4324,
      "velocity": 106,
      "chip": "ym2612"
    },
    {
      "channel": 4,
      "note": 81,
      "start": 35.9012,
      "duration": 0.1453,
      "velocity": 106,
      "chip": "ym2612"
    },
    {
      "channel": 5,
      "note": 32,
      "start": 35.902,
      "duration": 0.1947,
      "velocity": 114,
      "chip": "ym2612"
    },
    {
      "channel": 4,
      "note": 85,
      "start": 36.0472,
      "duration": 0.4328,
      "velocity": 106,
      "chip": "ym2612"
    },
    {
      "channel": 1,
      "note": 64,
      "start": 36.1983,
      "duration": 0.1331,
      "velocity": 101,
      "chip": "ym2612"
    },
    {
      "channel": 2,
      "note": 71,
      "start": 36.199,
      "duration": 0.1332,
      "velocity": 111,
      "chip": "ym2612"
    },
    {
      "channel": 5,
      "note": 32,
      "start": 36.2006,
      "duration": 0.1274,
      "velocity": 114,
      "chip": "ym2612"
    },
    {
      "channel": 0,
      "note": 84,
      "start": 36.3313,
      "duration": 0.2993,
      "velocity": 106,
      "chip": "ym2612"
    },
    {
      "channel": 1,
      "note": 64,
      "start": 36.332,
      "duration": 0.1464,
      "velocity": 101,
      "chip": "ym2612"
    },
    {
      "channel": 2,
      "note": 71,
      "start": 36.3327,
      "duration": 0.2995,
      "velocity": 111,
      "chip": "ym2612"
    },
    {
      "channel": 3,
      "note": 80,
      "start": 36.3335,
      "duration": 0.2993,
      "velocity": 106,
      "chip": "ym2612"
    },
    {
      "channel": 5,
      "note": 75,
      "start": 36.3346,
      "duration": 0.2934,
      "velocity": 120,
      "chip": "ym2612"
    },
    {
      "channel": 1,
      "note": 64,
      "start": 36.479,
      "duration": 0.1525,
      "velocity": 101,
      "chip": "ym2612"
    },
    {
      "channel": 4,
      "note": 84,
      "start": 36.4806,
      "duration": 0.302,
      "velocity": 106,
      "chip": "ym2612"
    },
    {
      "channel": 0,
      "note": 83,
      "start": 36.6313,
      "duration": 0.2826,
      "velocity": 106,
      "chip": "ym2612"
    },
    {
      "channel": 1,
      "note": 64,
      "start": 36.632,
      "duration": 0.149,
      "velocity": 101,
      "chip": "ym2612"
    },
    {
      "channel": 2,
      "note": 71,
      "start": 36.6327,
      "duration": 0.149,
      "velocity": 111,
      "chip": "ym2612"
    },
    {
      "channel": 3,
      "note": 80,
      "start": 36.6334,
      "duration": 0.2825,
      "velocity": 106,
      "chip": "ym2612"
    },
    {
      "channel": 5,
      "note": 32,
      "start": 36.6346,
      "duration": 0.1434,
      "velocity": 114,
      "chip": "ym2612"
    },
    {
      "channel": 1,
      "note": 64,
      "start": 36.7816,
      "duration": 0.1332,
      "velocity": 101,
      "chip": "ym2612"
    },
    {
      "channel": 2,
      "note": 71,
      "start": 36.7822,
      "duration": 0.2833,
      "velocity": 111,
      "chip": "ym2612"
    },
    {
      "channel": 4,
      "note": 83,
      "start": 36.7834,
      "duration": 0.2837,
      "velocity": 106,
      "chip": "ym2612"
    },
    {
      "channel": 5,
      "note": 32,
      "start": 36.7842,
      "duration": 0.1272,
      "velocity": 114,
      "chip": "ym2612"
    },
    {
      "channel": 0,
      "note": 81,
      "start": 36.9147,
      "duration": 0.1493,
      "velocity": 106,
      "chip": "ym2612"
    },
    {
      "channel": 1,
      "note": 64,
      "start": 36.9154,
      "duration": 0.1494,
      "velocity": 101,
      "chip": "ym2612"
    },
    {
      "channel": 3,
      "note": 78,
      "start": 36.9166,
      "duration": 0.1497,
      "velocity": 106,
      "chip": "ym2612"
    },
    {
      "channel": 5,
      "note": 75,
      "start": 36.9177,
      "duration": 0.1437,
      "velocity": 120,
      "chip": "ym2612"
    },
    {
      "channel": 0,
      "note": 83,
      "start": 37.0647,
      "duration": 0.1469,
      "velocity": 106,
      "chip": "ym2612"
    },
    {
      "channel": 1,
      "note": 66,
      "start": 37.0654,
      "duration": 0.2828,
      "velocity": 101,
      "chip": "ym2612"
    },
    {
      "channel": 2,
      "note": 73,
      "start": 37.0661,
      "duration": 0.2828,
      "velocity": 111,
      "chip": "ym2612"
    },
    {
      "channel": 3,
      "note": 80,
      "start": 37.067,
      "duration": 0.1463,
      "velocity": 106,
      "chip": "ym2612"
    },
    {
      "channel": 4,
      "note": 81,
      "start": 37.0678,
      "duration": 0.1463,
      "velocity": 106,
      "chip": "ym2612"
    },
    {
      "channel": 5,
      "note": 32,
      "start": 37.0686,
      "duration": 0.1947,
      "velocity": 114,
      "chip": "ym2612"
    },
    {
      "channel": 0,
      "note": 81,
      "start": 37.2123,
      "duration": 0.135,
      "velocity": 106,
      "chip": "ym2612"
    },
    {
      "channel": 3,
      "note": 78,
      "start": 37.2139,
      "duration": 0.1357,
      "velocity": 106,
      "chip": "ym2612"
    },
    {
      "channel": 4,
      "note": 83,
      "start": 37.2147,
      "duration": 0.1357,
      "velocity": 106,
      "chip": "ym2612"
    },
    {
      "channel": 0,
      "note": 78,
      "start": 37.348,
      "duration": 0.5826,
      "velocity": 106,
      "chip": "ym2612"
    },
    {
      "channel": 1,
      "note": 66,
      "start": 37.3488,
      "duration": 0.1489,
      "velocity": 101,
      "chip": "ym2612"
    },
    {
      "channel": 2,
      "note": 73,
      "start": 37.3494,
      "duration": 0.149,
      "velocity": 111,
      "chip": "ym2612"
    },
    {
      "channel": 3,
      "note": 73,
      "start": 37.3502,
      "duration": 0.5828,
      "velocity": 106,
      "chip": "ym2612"
    },
    {
      "channel": 4,
      "note": 81,
      "start": 37.351,
      "duration": 0.1483,
      "velocity": 106,
      "chip": "ym2612"
    },
    {
      "channel": 5,
      "note": 32,
      "start": 37.3519,
      "duration": 0.1428,
      "velocity": 114,
      "chip": "ym2612"
    },
    {
      "channel": 1,
      "note": 69,
      "start": 37.4983,
      "duration": 0.1469,
      "velocity": 101,
      "chip": "ym2612"
    },
    {
      "channel": 2,
      "note": 73,
      "start": 37.4989,
      "duration": 0.2996,
      "velocity": 111,
      "chip": "ym2612"
    },
    {
      "channel": 4,
      "note": 78,
      "start": 37.5,
      "duration": 0.5834,
      "velocity": 106,
      "chip": "ym2612"
    },
    {
      "channel": 5,
      "note": 75,
      "start": 37.5007,
      "duration": 0.294,
      "velocity": 120,
      "chip": "ym2612"
    },
    {
      "channel": 1,
      "note": 66,
      "start": 37.6458,
      "duration": 0.152,
      "velocity": 101,
      "chip": "ym2612"
    },
    {
      "channel": 1,
      "note": 71,
      "start": 37.7983,
      "duration": 0.1331,
      "velocity": 101,
      "chip": "ym2612"
    },
    {
      "channel": 2,
      "note": 73,
      "start": 37.799,
      "duration": 0.1333,
      "velocity": 111,
      "chip": "ym2612"
    },
    {
      "channel": 5,
      "note": 32,
      "start": 37.8007,
      "duration": 0.1273,
      "velocity": 114,
      "chip": "ym2612"
    },
    {
      "channel": 0,
      "note": 76,
      "start": 37.9313,
      "duration": 0.1493,
      "velocity": 106,
      "chip": "ym2612"
    },
    {
      "channel": 1,
      "note": 64,
      "start": 37.932,
      "duration": 0.1494,
      "velocity": 101,
      "chip": "ym2612"
    },
    {
      "channel": 2,
      "note": 71,
      "start": 37.9329,
      "duration": 0.2992,
      "velocity": 111,
      "chip": "ym2612"
    },
    {
      "channel": 3,
      "note": 71,
      "start": 37.9337,
      "duration": 0.1489,
      "velocity": 106,
      "chip": "ym2612"
    },
    {
      "channel": 5,
      "note": 75,
      "start": 37.9349,
      "duration": 0.1431,
      "velocity": 120,
      "chip": "ym2612"
    },
    {
      "channel": 0,
      "note": 78,
      "start": 38.0813,
      "duration": 0.1493,
      "velocity": 106,
      "chip": "ym2612"
    },
    {
      "channel": 1,
      "note": 66,
      "start": 38.082,
      "duration": 0.1494,
      "velocity": 101,
      "chip": "ym2612"
    },
    {
      "channel": 3,
      "note": 73,
      "start": 38.0832,
      "duration": 0.1498,
      "velocity": 106,
      "chip": "ym2612"
    },
    {
      "channel": 4,
      "note": 76,
      "start": 38.0841,
      "duration": 0.1498,
      "velocity": 106,
      "chip": "ym2612"
    },
    {
      "channel": 5,
      "note": 75,
      "start": 38.0848,
      "duration": 0.1432,
      "velocity": 120,
      "chip": "ym2612"
    },
    {
      "channel": 0,
      "note": 78,
      "start": 38.2313,
      "duration": 0.1468,
      "velocity": 106,
      "chip": "ym2612"
    },
    {
      "channel": 1,
      "note": 66,
      "start": 38.232,
      "duration": 0.2828,
      "velocity": 101,
      "chip": "ym2612"
    },
    {
      "channel": 2,
      "note": 73,
      "start": 38.2328,
      "duration": 0.2827,
      "velocity": 111,
      "chip": "ym2612"
    },
    {
      "channel": 3,
      "note": 73,
      "start": 38.2336,
      "duration": 0.2827,
      "velocity": 106,
      "chip": "ym2612"
    },
    {
      "channel": 4,
      "note": 78,
      "start": 38.2344,
      "duration": 0.1451,
      "velocity": 106,
      "chip": "ym2612"
    },
    {
      "channel": 5,
      "note": 32,
      "start": 38.2353,
      "duration": 0.1778,
      "velocity": 114,
      "chip": "ym2612"
    },
    {
      "channel": 4,
      "note": 78,
      "start": 38.3802,
      "duration": 0.1369,
      "velocity": 106,
      "chip": "ym2612"
    },
    {
      "channel": 0,
      "note": 76,
      "start": 38.5147,
      "duration": 0.1493,
      "velocity": 106,
      "chip": "ym2612"
    },
    {
      "channel": 1,
      "note": 64,
      "start": 38.5154,
      "duration": 0.1494,
      "velocity": 101,
      "chip": "ym2612"
    },
    {
      "channel": 2,
      "note": 71,
      "start": 38.5161,
      "duration": 0.1494,
      "velocity": 111,
      "chip": "ym2612"
    },
    {
      "channel": 3,
      "note": 71,
      "start": 38.517,
      "duration": 0.1494,
      "velocity": 106,
      "chip": "ym2612"
    },
    {
      "channel": 5,
      "note": 32,
      "start": 38.5181,
      "duration": 0.1433,
      "velocity": 114,
      "chip": "ym2612"
    },
    {
      "channel": 0,
      "note": 77,
      "start": 38.6646,
      "duration": 0.1494,
      "velocity": 106,
      "chip": "ym2612"
    },
    {
      "channel": 1,
      "note": 65,
      "start": 38.6654,
      "duration": 0.1494,
      "velocity": 101,
      "chip": "ym2612"
    },
    {
      "channel": 2,
      "note": 72,
      "start": 38.6661,
      "duration": 0.1494,
      "velocity": 111,
      "chip": "ym2612"
    },
    {
      "channel": 3,
      "note": 72,
      "start": 38.667,
      "duration": 0.1494,
      "velocity": 106,
      "chip": "ym2612"
    },
    {
      "channel": 4,
      "note": 76,
      "start": 38.6678,
      "duration": 0.1493,
      "velocity": 106,
      "chip": "ym2612"
    },
    {
      "channel": 5,
      "note": 75,
      "start": 38.6685,
      "duration": 0.1429,
      "velocity": 120,
      "chip": "ym2612"
    },
    {
      "channel": 0,
      "note": 78,
      "start": 38.8147,
      "duration": 0.1326,
      "velocity": 106,
      "chip": "ym2612"
    },
    {
      "channel": 1,
      "note": 66,
      "start": 38.8154,
      "duration": 0.282,
      "velocity": 101,
      "chip": "ym2612"
    },
    {
      "channel": 2,
      "note": 73,
      "start": 38.8161,
      "duration": 0.282,
      "velocity": 111,
      "chip": "ym2612"
    },
    {
      "channel": 3,
      "note": 73,
      "start": 38.817,
      "duration": 0.1315,
      "velocity": 106,
      "chip": "ym2612"
    },
    {
      "channel": 4,
      "note": 77,
      "start": 38.8178,
      "duration": 0.131,
      "velocity": 106,
      "chip": "ym2612"
    },
    {
      "channel": 5,
      "note": 75,
      "start": 38.8185,
      "duration": 0.1262,
      "velocity": 120,
      "chip": "ym2612"
    },
    {
      "channel": 4,
      "note": 78,
      "start": 38.9494,
      "duration": 0.1494,
      "velocity": 106,
      "chip": "ym2612"
    },
    {
      "channel": 5,
      "note": 32,
      "start": 38.9502,
      "duration": 0.1445,
      "velocity": 114,
      "chip": "ym2612"
    },
    {
      "channel": 1,
      "note": 66,
      "start": 39.098,
      "duration": 0.1494,
      "velocity": 101,
      "chip": "ym2612"
    },
    {
      "channel": 2,
      "note": 73,
      "start": 39.0986,
      "duration": 0.1495,
      "velocity": 111,
      "chip": "ym2612"
    },
    {
      "channel": 5,
      "note": 75,
      "start": 39.0998,
      "duration": 0.1449,
      "velocity": 120,
      "chip": "ym2612"
    },
    {
      "channel": 1,
      "note": 66,
      "start": 39.248,
      "duration": 0.1494,
      "velocity": 101,
      "chip": "ym2612"
    },
    {
      "channel": 2,
      "note": 73,
      "start": 39.2486,
      "duration": 0.2857,
      "velocity": 111,
      "chip": "ym2612"
    },
    {
      "channel": 5,
      "note": 75,
      "start": 39.2495,
      "duration": 0.1452,
      "velocity": 120,
      "chip": "ym2612"
    },
    {
      "channel": 1,
      "note": 66,
      "start": 39.398,
      "duration": 0.1354,
      "velocity": 101,
      "chip": "ym2612"
    },
    {
      "channel": 5,
      "note": 75,
      "start": 39.3993,
      "duration": 0.1288,
      "velocity": 120,
      "chip": "ym2612"
    },
    {
      "channel": 1,
      "note": 66,
      "start": 39.534,
      "duration": 0.1441,
      "velocity": 101,
      "chip": "ym2612"
    },
    {
      "channel": 2,
      "note": 73,
      "start": 39.535,
      "duration": 0.1439,
      "velocity": 111,
      "chip": "ym2612"
    },
    {
      "channel": 5,
      "note": 32,
      "start": 39.5368,
      "duration": 0.1924,
      "velocity": 114,
      "chip": "ym2612"
    },
    {
      "channel": 1,
      "note": 66,
      "start": 39.6787,
      "duration": 0.1527,
      "velocity": 101,
      "chip": "ym2612"
    },
    {
      "channel": 2,
      "note": 73,
      "start": 39.6794,
      "duration": 0.1526,
      "velocity": 111,
      "chip": "ym2612"
    },
    {
      "channel": 0,
      "note": 78,
      "start": 39.8313,
      "duration": 0.0007,
      "velocity": 106,
      "chip": "ym2612"
    }
  ]
}