{
  "track_name": "49 - IceCap Zone Act 1 (Beta)",
  "duration_sec": 90.165,
  "sample_rate": 44100,
  "note_count": 1562,
  "unique_pitches": 29,
  "pitch_range": 50,
  "avg_note_duration": 0.1221,
  "reconstruction_stats": {
    "notes_reconstructed": 1562,
    "keyon_events": 1562,
    "keyoff_events": 1562,
    "orphan_keyons": 0,
    "unique_pitches": 29,
    "pitch_range": 50,
    "avg_duration_sec": 0.1221
  },
  "metadata": {
    "source": "S\\Sonic 3 & Knuckles\\49 - IceCap Zone Act 1 (Beta).vgz"
  },
  "notes": [
    {
      "channel": 0,
      "note": 98,
      "start": 0.0153,
      "duration": 0.0274,
      "velocity": 106,
      "chip": "ym2612"
    },
    {
      "channel": 1,
      "note": 59,
      "start": 0.0181,
      "duration": 0.0192,
      "velocity": 101,
      "chip": "ym2612"
    },
    {
      "channel": 2,
      "note": 93,
      "start": 0.0286,
      "duration": 0.0224,
      "velocity": 106,
      "chip": "ym2612"
    },
    {
      "channel": 3,
      "note": 86,
      "start": 0.032,
      "duration": 0.0368,
      "velocity": 106,
      "chip": "ym2612"
    },
    {
      "channel": 0,
      "note": 98,
      "start": 0.068,
      "duration": 0.1161,
      "velocity": 106,
      "chip": "ym2612"
    },
    {
      "channel": 1,
      "note": 59,
      "start": 0.0686,
      "duration": 0.0824,
      "velocity": 101,
      "chip": "ym2612"
    },
    {
      "channel": 2,
      "note": 93,
      "start": 0.0852,
      "duration": 0.1158,
      "velocity": 106,
      "chip": "ym2612"
    },
    {
      "channel": 3,
      "note": 86,
      "start": 0.1188,
      "duration": 0.0989,
      "velocity": 106,
      "chip": "ym2612"
    },
    {
      "channel": 0,
      "note": 98,
      "start": 0.3013,
      "duration": 0.0663,
      "velocity": 106,
      "chip": "ym2612"
    },
    {
      "channel": 1,
      "note": 59,
      "start": 0.302,
      "duration": 0.0663,
      "velocity": 101,
      "chip": "ym2612"
    },
    {
      "channel": 2,
      "note": 93,
      "start": 0.3185,
      "duration": 0.055,
      "velocity": 106,
      "chip": "ym2612"
    },
    {
      "channel": 3,
      "note": 86,
      "start": 0.3354,
      "duration": 0.0419,
      "velocity": 106,
      "chip": "ym2612"
    },
    {
      "channel": 0,
      "note": 98,
      "start": 0.3682,
      "duration": 0.0356,
      "velocity": 106,
      "chip": "ym2612"
    },
    {
      "channel": 1,
      "note": 59,
      "start": 0.3688,
      "duration": 0.0176,
      "velocity": 101,
      "chip": "ym2612"
    },
    {
      "channel": 2,
      "note": 93,
      "start": 0.3741,
      "duration": 0.0464,
      "velocity": 106,
      "chip": "ym2612"
    },
    {
      "channel": 3,
      "note": 86,
      "start": 0.3778,
      "duration": 0.0594,
      "velocity": 106,
      "chip": "ym2612"
    },
    {
      "channel": 0,
      "note": 98,
      "start": 0.5043,
      "duration": 0.116,
      "velocity": 106,
      "chip": "ym2612"
    },
    {
      "channel": 1,
      "note": 59,
      "start": 0.505,
      "duration": 0.0823,
      "velocity": 101,
      "chip": "ym2612"
    },
    {
      "channel": 2,
      "note": 93,
      "start": 0.538,
      "duration": 0.0991,
      "velocity": 106,
      "chip": "ym2612"
    },
    {
      "channel": 3,
      "note": 86,
      "start": 0.555,
      "duration": 0.1001,
      "velocity": 106,
      "chip": "ym2612"
    },
    {
      "channel": 0,
      "note": 98,
      "start": 0.6542,
      "duration": 0.0904,
      "velocity": 106,
      "chip": "ym2612"
    },
    {
      "channel": 1,
      "note": 59,
      "start": 0.6548,
      "duration": 0.0827,
      "velocity": 101,
      "chip": "ym2612"
    },
    {
      "channel": 2,
      "note": 93,
      "start": 0.6714,
      "duration": 0.0763,
      "velocity": 106,
      "chip": "ym2612"
    },
    {
      "channel": 3,
      "note": 86,
      "start": 0.6883,
      "duration": 0.0621,
      "velocity": 106,
      "chip": "ym2612"
    },
    {
      "channel": 0,
      "note": 98,
      "start": 0.807,
      "duration": 0.0661,
      "velocity": 106,
      "chip": "ym2612"
    },
    {
      "channel": 1,
      "note": 59,
      "start": 0.8076,
      "duration": 0.0662,
      "velocity": 101,
      "chip": "ym2612"
    },
    {
      "channel": 2,
      "note": 93,
      "start": 0.8241,
      "duration": 0.0661,
      "velocity": 106,
      "chip": "ym2612"
    },
    {
      "channel": 3,
      "note": 86,
      "start": 0.8411,
      "duration": 0.0662,
      "velocity": 106,
      "chip": "ym2612"
    },
    {
      "channel": 0,
      "note": 98,
      "start": 0.8736,
      "duration": 0.1162,
      "velocity": 106,
      "chip": "ym2612"
    },
    {
      "channel": 1,
      "note": 59,
      "start": 0.8743,
      "duration": 0.0658,
      "velocity": 101,
      "chip": "ym2612"
    },
    {
      "channel": 2,
      "note": 93,
      "start": 0.8908,
      "duration": 0.1158,
      "velocity": 106,
      "chip": "ym2612"
    },
    {
      "channel": 3,
      "note": 86,
      "start": 0.9077,
      "duration": 0.1156,
      "velocity": 106,
      "chip": "ym2612"
    },
    {
      "channel": 0,
      "note": 98,
      "start": 1.0905,
      "duration": 0.0354,
      "velocity": 106,
      "chip": "ym2612"
    },
    {
      "channel": 1,
      "note": 59,
      "start": 1.0911,
      "duration": 0.0167,
      "velocity": 101,
      "chip": "ym2612"
    },
    {
      "channel": 2,
      "note": 93,
      "start": 1.0959,
      "duration": 0.0468,
      "velocity": 106,
      "chip": "ym2612"
    },
    {
      "channel": 3,
      "note": 86,
      "start": 1.1024,
      "duration": 0.057,
      "velocity": 106,
      "chip": "ym2612"
    },
    {
      "channel": 0,
      "note": 98,
      "start": 1.2431,
      "duration": 0.0995,
      "velocity": 106,
      "chip": "ym2612"
    },
    {
      "channel": 1,
      "note": 59,
      "start": 1.2437,
      "duration": 0.0658,
      "velocity": 101,
      "chip": "ym2612"
    },
    {
      "channel": 2,
      "note": 93,
      "start": 1.2603,
      "duration": 0.0991,
      "velocity": 106,
      "chip": "ym2612"
    },
    {
      "channel": 3,
      "note": 86,
      "start": 1.2772,
      "duration": 0.0989,
      "velocity": 106,
      "chip": "ym2612"
    },
    {
      "channel": 0,
      "note": 95,
      "start": 1.46,
      "duration": 0.0354,
      "velocity": 106,
      "chip": "ym2612"
    },
    {
      "channel": 1,
      "note": 64,
      "start": 1.4607,
      "duration": 0.0351,
      "velocity": 101,
      "chip": "ym2612"
    },
    {
      "channel": 2,
      "note": 90,
      "start": 1.4657,
      "duration": 0.0466,
      "velocity": 106,
      "chip": "ym2612"
    },
    {
      "channel": 3,
      "note": 83,
      "start": 1.4692,
      "duration": 0.0598,
      "velocity": 106,
      "chip": "ym2612"
    },
    {
      "channel": 0,
      "note": 95,
      "start": 2.1823,
      "duration": 0.0355,
      "velocity": 106,
      "chip": "ym2612"
    },
    {
      "channel": 1,
      "note": 59,
      "start": 2.183,
      "duration": 0.0169,
      "velocity": 101,
      "chip": "ym2612"
    },
    {
      "channel": 2,
      "note": 90,
      "start": 2.1878,
      "duration": 0.0468,
      "velocity": 106,
      "chip": "ym2612"
    },
    {
      "channel": 3,
      "note": 83,
      "start": 2.1913,
      "duration": 0.0612,
      "velocity": 106,
      "chip": "ym2612"
    },
    {
      "channel": 0,
      "note": 95,
      "start": 2.2517,
      "duration": 0.1162,
      "velocity": 106,
      "chip": "ym2612"
    },
    {
      "channel": 1,
      "note": 59,
      "start": 2.2523,
      "duration": 0.0658,
      "velocity": 101,
      "chip": "ym2612"
    },
    {
      "channel": 2,
      "note": 90,
      "start": 2.2688,
      "duration": 0.1158,
      "velocity": 106,
      "chip": "ym2612"
    },
    {
      "channel": 3,
      "note": 83,
      "start": 2.2858,
      "duration": 0.1156,
      "velocity": 106,
      "chip": "ym2612"
    },
    {
      "channel": 0,
      "note": 95,
      "start": 2.4683,
      "duration": 0.0904,
      "velocity": 106,
      "chip": "ym2612"
    },
    {
      "channel": 1,
      "note": 59,
      "start": 2.469,
      "duration": 0.0827,
      "velocity": 101,
      "chip": "ym2612"
    },
    {
      "channel": 2,
      "note": 90,
      "start": 2.4855,
      "duration": 0.0762,
      "velocity": 106,
      "chip": "ym2612"
    },
    {
      "channel": 3,
      "note": 83,
      "start": 2.5024,
      "duration": 0.062,
      "velocity": 106,
      "chip": "ym2612"
    },
    {
      "channel": 0,
      "note": 95,
      "start": 2.6211,
      "duration": 0.0662,
      "velocity": 106,
      "chip": "ym2612"
    },
    {
      "channel": 1,
      "note": 59,
      "start": 2.6217,
      "duration": 0.0662,
      "velocity": 101,
      "chip": "ym2612"
    },
    {
      "channel": 2,
      "note": 90,
      "start": 2.6383,
      "duration": 0.0661,
      "velocity": 106,
      "chip": "ym2612"
    },
    {
      "channel": 3,
      "note": 83,
      "start": 2.6552,
      "duration": 0.0662,
      "velocity": 106,
      "chip": "ym2612"
    },
    {
      "channel": 0,
      "note": 95,
      "start": 2.6878,
      "duration": 0.1161,
      "velocity": 106,
      "chip": "ym2612"
    },
    {
      "channel": 1,
      "note": 59,
      "start": 2.6884,
      "duration": 0.0658,
      "velocity": 101,
      "chip": "ym2612"
    },
    {
      "channel": 2,
      "note": 90,
      "start": 2.705,
      "duration": 0.1158,
      "velocity": 106,
      "chip": "ym2612"
    },
    {
      "channel": 3,
      "note": 83,
      "start": 2.7219,
      "duration": 0.1156,
      "velocity": 106,
      "chip": "ym2612"
    },
    {
      "channel": 0,
      "note": 103,
      "start": 2.9074,
      "duration": 0.3662,
      "velocity": 91,
      "chip": "ym2612"
    },
    {
      "channel": 1,
      "note": 64,
      "start": 2.9081,
      "duration": 0.0187,
      "velocity": 101,
      "chip": "ym2612"
    },
    {
      "channel": 2,
      "note": 76,
      "start": 2.9087,
      "duration": 0.0184,
      "velocity": 106,
      "chip": "ym2612"
    },
    {
      "channel": 3,
      "note": 80,
      "start": 2.9094,
      "duration": 0.018,
      "velocity": 106,
      "chip": "ym2612"
    },
    {
      "channel": 4,
      "note": 103,
      "start": 2.9937,
      "duration": 0.3668,
      "velocity": 91,
      "chip": "ym2612"
    },
    {
      "channel": 1,
      "note": 64,
      "start": 3.0576,
      "duration": 0.0661,
      "velocity": 101,
      "chip": "ym2612"
    },
    {
      "channel": 2,
      "note": 71,
      "start": 3.0582,
      "duration": 0.0658,
      "velocity": 106,
      "chip": "ym2612"
    },
    {
      "channel": 3,
      "note": 71,
      "start": 3.0589,
      "duration": 0.0654,
      "velocity": 106,
      "chip": "ym2612"
    },
    {
      "channel": 1,
      "note": 64,
      "start": 3.1909,
      "duration": 0.0836,
      "velocity": 101,
      "chip": "ym2612"
    },
    {
      "channel": 2,
      "note": 76,
      "start": 3.1916,
      "duration": 0.0831,
      "velocity": 106,
      "chip": "ym2612"
    },
    {
      "channel": 3,
      "note": 80,
      "start": 3.1922,
      "duration": 0.0828,
      "velocity": 106,
      "chip": "ym2612"
    },
    {
      "channel": 0,
      "note": 100,
      "start": 3.2743,
      "duration": 0.0354,
      "velocity": 91,
      "chip": "ym2612"
    },
    {
      "channel": 1,
      "note": 64,
      "start": 3.3435,
      "duration": 0.0669,
      "velocity": 101,
      "chip": "ym2612"
    },
    {
      "channel": 2,
      "note": 71,
      "start": 3.3442,
      "duration": 0.0668,
      "velocity": 106,
      "chip": "ym2612"
    },
    {
      "channel": 3,
      "note": 71,
      "start": 3.3448,
      "duration": 0.0668,
      "velocity": 106,
      "chip": "ym2612"
    },
    {
      "channel": 4,
      "note": 100,
      "start": 3.3611,
      "duration": 0.1163,
      "velocity": 91,
      "chip": "ym2612"
    },
    {
      "channel": 0,
      "note": 95,
      "start": 3.4102,
      "duration": 1.4609,
      "velocity": 91,
      "chip": "ym2612"
    },
    {
      "channel": 1,
      "note": 64,
      "start": 3.4108,
      "duration": 0.0825,
      "velocity": 101,
      "chip": "ym2612"
    },
    {
      "channel": 2,
      "note": 76,
      "start": 3.4115,
      "duration": 0.0821,
      "velocity": 106,
      "chip": "ym2612"
    },
    {
      "channel": 3,
      "note": 80,
      "start": 3.4121,
      "duration": 0.0818,
      "velocity": 106,
      "chip": "ym2612"
    },
    {
      "channel": 4,
      "note": 95,
      "start": 3.5774,
      "duration": 1.4606,
      "velocity": 91,
      "chip": "ym2612"
    },
    {
      "channel": 1,
      "note": 64,
      "start": 3.6273,
      "duration": 0.0225,
      "velocity": 101,
      "chip": "ym2612"
    },
    {
      "channel": 2,
      "note": 76,
      "start": 3.6279,
      "duration": 0.0188,
      "velocity": 106,
      "chip": "ym2612"
    },
    {
      "channel": 3,
      "note": 80,
      "start": 3.6286,
      "duration": 0.0184,
      "velocity": 106,
      "chip": "ym2612"
    },
    {
      "channel": 1,
      "note": 59,
      "start": 3.7799,
      "duration": 0.0829,
      "velocity": 101,
      "chip": "ym2612"
    },
    {
      "channel": 1,
      "note": 64,
      "start": 3.9969,
      "duration": 0.0199,
      "velocity": 101,
      "chip": "ym2612"
    },
    {
      "channel": 1,
      "note": 59,
      "start": 4.1328,
      "duration": 0.0995,
      "velocity": 101,
      "chip": "ym2612"
    },
    {
      "channel": 2,
      "note": 71,
      "start": 4.1334,
      "duration": 0.149,
      "velocity": 106,
      "chip": "ym2612"
    },
    {
      "channel": 3,
      "note": 71,
      "start": 4.1341,
      "duration": 0.1486,
      "velocity": 106,
      "chip": "ym2612"
    },
    {
      "channel": 1,
      "note": 64,
      "start": 4.3664,
      "duration": 0.0166,
      "velocity": 101,
      "chip": "ym2612"
    },
    {
      "channel": 2,
      "note": 76,
      "start": 4.3671,
      "duration": 0.0162,
      "velocity": 106,
      "chip": "ym2612"
    },
    {
      "channel": 3,
      "note": 80,
      "start": 4.3678,
      "duration": 0.0158,
      "velocity": 106,
      "chip": "ym2612"
    },
    {
      "channel": 1,
      "note": 64,
      "start": 4.5023,
      "duration": 0.0662,
      "velocity": 101,
      "chip": "ym2612"
    },
    {
      "channel": 2,
      "note": 71,
      "start": 4.503,
      "duration": 0.0658,
      "velocity": 106,
      "chip": "ym2612"
    },
    {
      "channel": 3,
      "note": 71,
      "start": 4.5037,
      "duration": 0.0655,
      "velocity": 106,
      "chip": "ym2612"
    },
    {
      "channel": 1,
      "note": 64,
      "start": 4.6523,
      "duration": 0.0664,
      "velocity": 101,
      "chip": "ym2612"
    },
    {
      "channel": 2,
      "note": 76,
      "start": 4.653,
      "duration": 0.066,
      "velocity": 106,
      "chip": "ym2612"
    },
    {
      "channel": 3,
      "note": 80,
      "start": 4.6536,
      "duration": 0.0657,
      "velocity": 106,
      "chip": "ym2612"
    },
    {
      "channel": 1,
      "note": 64,
      "start": 4.7886,
      "duration": 0.0827,
      "velocity": 101,
      "chip": "ym2612"
    },
    {
      "channel": 2,
      "note": 71,
      "start": 4.7893,
      "duration": 0.0827,
      "velocity": 106,
      "chip": "ym2612"
    },
    {
      "channel": 3,
      "note": 71,
      "start": 4.7899,
      "duration": 0.0827,
      "velocity": 106,
      "chip": "ym2612"
    },
    {
      "channel": 1,
      "note": 64,
      "start": 4.8719,
      "duration": 0.066,
      "velocity": 101,
      "chip": "ym2612"
    },
    {
      "channel": 2,
      "note": 76,
      "start": 4.8725,
      "duration": 0.0656,
      "velocity": 106,
      "chip": "ym2612"
    },
    {
      "channel": 3,
      "note": 80,
      "start": 4.8731,
      "duration": 0.0653,
      "velocity": 106,
      "chip": "ym2612"
    },
    {
      "channel": 0,
      "note": 103,
      "start": 5.0885,
      "duration": 0.0354,
      "velocity": 91,
      "chip": "ym2612"
    },
    {
      "channel": 1,
      "note": 64,
      "start": 5.0892,
      "duration": 0.0184,
      "velocity": 101,
      "chip": "ym2612"
    },
    {
      "channel": 2,
      "note": 71,
      "start": 5.0899,
      "duration": 0.0676,
      "velocity": 106,
      "chip": "ym2612"
    },
    {
      "channel": 3,
      "note": 71,
      "start": 5.0905,
      "duration": 0.0672,
      "velocity": 106,
      "chip": "ym2612"
    },
    {
      "channel": 4,
      "note": 103,
      "start": 5.1749,
      "duration": 0.1002,
      "velocity": 91,
      "chip": "ym2612"
    },
    {
      "channel": 0,
      "note": 104,
      "start": 5.2246,
      "duration": 0.2521,
      "velocity": 91,
      "chip": "ym2612"
    },
    {
      "channel": 1,
      "note": 59,
      "start": 5.2252,
      "duration": 0.099,
      "velocity": 101,
      "chip": "ym2612"
    },
    {
      "channel": 2,
      "note": 76,
      "start": 5.2258,
      "duration": 0.082,
      "velocity": 106,
      "chip": "ym2612"
    },
    {
      "channel": 3,
      "note": 80,
      "start": 5.2265,
      "duration": 0.0817,
      "velocity": 106,
      "chip": "ym2612"
    },
    {
      "channel": 4,
      "note": 104,
      "start": 5.3917,
      "duration": 0.2532,
      "velocity": 91,
      "chip": "ym2612"
    },
    {
      "channel": 1,
      "note": 64,
      "start": 5.4416,
      "duration": 0.0224,
      "velocity": 101,
      "chip": "ym2612"
    },
    {
      "channel": 2,
      "note": 76,
      "start": 5.4422,
      "duration": 0.1525,
      "velocity": 106,
      "chip": "ym2612"
    },
    {
      "channel": 3,
      "note": 80,
      "start": 5.4429,
      "duration": 0.1524,
      "velocity": 106,
      "chip": "ym2612"
    },
    {
      "channel": 0,
      "note": 104,
      "start": 5.594,
      "duration": 0.3522,
      "velocity": 91,
      "chip": "ym2612"
    },
    {
      "channel": 1,
      "note": 59,
      "start": 5.5946,
      "duration": 0.0824,
      "velocity": 101,
      "chip": "ym2612"
    },
    {
      "channel": 2,
      "note": 71,
      "start": 5.5953,
      "duration": 0.216,
      "velocity": 106,
      "chip": "ym2612"
    },
    {
      "channel": 3,
      "note": 71,
      "start": 5.5959,
      "duration": 0.216,
      "velocity": 106,
      "chip": "ym2612"
    },
    {
      "channel": 4,
      "note": 104,
      "start": 5.7616,
      "duration": 0.3522,
      "velocity": 91,
      "chip": "ym2612"
    },
    {
      "channel": 1,
      "note": 62,
      "start": 5.8111,
      "duration": 0.0161,
      "velocity": 101,
      "chip": "ym2612"
    },
    {
      "channel": 2,
      "note": 74,
      "start": 5.8117,
      "duration": 0.0158,
      "velocity": 106,
      "chip": "ym2612"
    },
    {
      "channel": 3,
      "note": 78,
      "start": 5.8124,
      "duration": 0.0154,
      "velocity": 106,
      "chip": "ym2612"
    },
    {
      "channel": 0,
      "note": 104,
      "start": 5.9468,
      "duration": 0.1161,
      "velocity": 91,
      "chip": "ym2612"
    },
    {
      "channel": 1,
      "note": 62,
      "start": 5.9475,
      "duration": 0.0824,
      "velocity": 101,
      "chip": "ym2612"
    },
    {
      "channel": 2,
      "note": 71,
      "start": 5.9481,
      "duration": 0.082,
      "velocity": 106,
      "chip": "ym2612"
    },
    {
      "channel": 3,
      "note": 71,
      "start": 5.9488,
      "duration": 0.0817,
      "velocity": 106,
      "chip": "ym2612"
    },
    {
      "channel": 1,
      "note": 62,
      "start": 6.0968,
      "duration": 0.0838,
      "velocity": 101,
      "chip": "ym2612"
    },
    {
      "channel": 2,
      "note": 74,
      "start": 6.0974,
      "duration": 0.0834,
      "velocity": 106,
      "chip": "ym2612"
    },
    {
      "channel": 3,
      "note": 78,
      "start": 6.0981,
      "duration": 0.083,
      "velocity": 106,
      "chip": "ym2612"
    },
    {
      "channel": 4,
      "note": 104,
      "start": 6.1144,
      "duration": 0.0767,
      "velocity": 91,
      "chip": "ym2612"
    },
    {
      "channel": 0,
      "note": 102,
      "start": 6.1804,
      "duration": 2.1664,
      "velocity": 91,
      "chip": "ym2612"
    },
    {
      "channel": 1,
      "note": 62,
      "start": 6.2499,
      "duration": 0.0661,
      "velocity": 101,
      "chip": "ym2612"
    },
    {
      "channel": 2,
      "note": 71,
      "start": 6.2505,
      "duration": 0.0661,
      "velocity": 106,
      "chip": "ym2612"
    },
    {
      "channel": 3,
      "note": 71,
      "start": 6.2511,
      "duration": 0.0661,
      "velocity": 106,
      "chip": "ym2612"
    },
    {
      "channel": 4,
      "note": 102,
      "start": 6.2674,
      "duration": 2.1661,
      "velocity": 91,
      "chip": "ym2612"
    },
    {
      "channel": 1,
      "note": 62,
      "start": 6.3165,
      "duration": 0.0663,
      "velocity": 101,
      "chip": "ym2612"
    },
    {
      "channel": 2,
      "note": 74,
      "start": 6.3172,
      "duration": 0.0659,
      "velocity": 106,
      "chip": "ym2612"
    },
    {
      "channel": 3,
      "note": 78,
      "start": 6.3178,
      "duration": 0.0656,
      "velocity": 106,
      "chip": "ym2612"
    },
    {
      "channel": 1,
      "note": 62,
      "start": 6.5334,
      "duration": 0.0227,
      "velocity": 101,
      "chip": "ym2612"
    },
    {
      "channel": 2,
      "note": 74,
      "start": 6.534,
      "duration": 0.0188,
      "velocity": 106,
      "chip": "ym2612"
    },
    {
      "channel": 3,
      "note": 78,
      "start": 6.5347,
      "duration": 0.0183,
      "velocity": 106,
      "chip": "ym2612"
    },
    {
      "channel": 1,
      "note": 57,
      "start": 6.686,
      "duration": 0.0828,
      "velocity": 101,
      "chip": "ym2612"
    },
    {
      "channel": 1,
      "note": 62,
      "start": 6.9029,
      "duration": 0.0168,
      "velocity": 101,
      "chip": "ym2612"
    },
    {
      "channel": 1,
      "note": 57,
      "start": 7.0388,
      "duration": 0.0996,
      "velocity": 101,
      "chip": "ym2612"
    },
    {
      "channel": 2,
      "note": 71,
      "start": 7.0394,
      "duration": 0.1489,
      "velocity": 106,
      "chip": "ym2612"
    },
    {
      "channel": 3,
      "note": 71,
      "start": 7.0401,
      "duration": 0.1485,
      "velocity": 106,
      "chip": "ym2612"
    },
    {
      "channel": 1,
      "note": 62,
      "start": 7.2558,
      "duration": 0.0202,
      "velocity": 101,
      "chip": "ym2612"
    },
    {
      "channel": 2,
      "note": 74,
      "start": 7.2564,
      "duration": 0.0199,
      "velocity": 106,
      "chip": "ym2612"
    },
    {
      "channel": 3,
      "note": 78,
      "start": 7.2571,
      "duration": 0.0195,
      "velocity": 106,
      "chip": "ym2612"
    },
    {
      "channel": 1,
      "note": 62,
      "start": 7.4083,
      "duration": 0.0662,
      "velocity": 101,
      "chip": "ym2612"
    },
    {
      "channel": 2,
      "note": 71,
      "start": 7.409,
      "duration": 0.0658,
      "velocity": 106,
      "chip": "ym2612"
    },
    {
      "channel": 3,
      "note": 71,
      "start": 7.4097,
      "duration": 0.0655,
      "velocity": 106,
      "chip": "ym2612"
    },
    {
      "channel": 1,
      "note": 62,
      "start": 7.5583,
      "duration": 0.0668,
      "velocity": 101,
      "chip": "ym2612"
    },
    {
      "channel": 2,
      "note": 74,
      "start": 7.559,
      "duration": 0.0664,
      "velocity": 106,
      "chip": "ym2612"
    },
    {
      "channel": 3,
      "note": 78,
      "start": 7.5597,
      "duration": 0.066,
      "velocity": 106,
      "chip": "ym2612"
    },
    {
      "channel": 1,
      "note": 62,
      "start": 7.6946,
      "duration": 0.0662,
      "velocity": 101,
      "chip": "ym2612"
    },
    {
      "channel": 2,
      "note": 71,
      "start": 7.6952,
      "duration": 0.0661,
      "velocity": 106,
      "chip": "ym2612"
    },
    {
      "channel": 3,
      "note": 71,
      "start": 7.6959,
      "duration": 0.0661,
      "velocity": 106,
      "chip": "ym2612"
    },
    {
      "channel": 1,
      "note": 62,
      "start": 7.7612,
      "duration": 0.0828,
      "velocity": 101,
      "chip": "ym2612"
    },
    {
      "channel": 2,
      "note": 74,
      "start": 7.7619,
      "duration": 0.0825,
      "velocity": 106,
      "chip": "ym2612"
    },
    {
      "channel": 3,
      "note": 78,
      "start": 7.7625,
      "duration": 0.0822,
      "velocity": 106,
      "chip": "ym2612"
    },
    {
      "channel": 1,
      "note": 62,
      "start": 7.9948,
      "duration": 0.02,
      "velocity": 101,
      "chip": "ym2612"
    },
    {
      "channel": 2,
      "note": 71,
      "start": 7.9955,
      "duration": 0.0683,
      "velocity": 106,
      "chip": "ym2612"
    },
    {
      "channel": 3,
      "note": 71,
      "start": 7.9961,
      "duration": 0.068,
      "velocity": 106,
      "chip": "ym2612"
    },
    {
      "channel": 1,
      "note": 57,
      "start": 8.1308,
      "duration": 0.0828,
      "velocity": 101,
      "chip": "ym2612"
    },
    {
      "channel": 2,
      "note": 78,
      "start": 8.1315,
      "duration": 0.0658,
      "velocity": 106,
      "chip": "ym2612"
    },
    {
      "channel": 3,
      "note": 81,
      "start": 8.1321,
      "duration": 0.0654,
      "velocity": 106,
      "chip": "ym2612"
    },
    {
      "channel": 1,
      "note": 62,
      "start": 8.3476,
      "duration": 0.0215,
      "velocity": 101,
      "chip": "ym2612"
    },
    {
      "channel": 2,
      "note": 78,
      "start": 8.3482,
      "duration": 0.152,
      "velocity": 106,
      "chip": "ym2612"
    },
    {
      "channel": 3,
      "note": 81,
      "start": 8.3489,
      "duration": 0.1519,
      "velocity": 106,
      "chip": "ym2612"
    },
    {
      "channel": 1,
      "note": 57,
      "start": 8.5,
      "duration": 0.0829,
      "velocity": 101,
      "chip": "ym2612"
    },
    {
      "channel": 2,
      "note": 71,
      "start": 8.5007,
      "duration": 0.2173,
      "velocity": 106,
      "chip": "ym2612"
    },
    {
      "channel": 3,
      "note": 71,
      "start": 8.5014,
      "duration": 0.2173,
      "velocity": 106,
      "chip": "ym2612"
    },
    {
      "channel": 0,
      "note": 103,
      "start": 8.717,
      "duration": 0.3522,
      "velocity": 91,
      "chip": "ym2612"
    },
    {
      "channel": 1,
      "note": 64,
      "start": 8.7177,
      "duration": 0.0157,
      "velocity": 101,
      "chip": "ym2612"
    },
    {
      "channel": 2,
      "note": 76,
      "start": 8.7184,
      "duration": 0.0153,
      "velocity": 106,
      "chip": "ym2612"
    },
    {
      "channel": 3,
      "note": 80,
      "start": 8.7191,
      "duration": 0.0148,
      "velocity": 106,
      "chip": "ym2612"
    },
    {
      "channel": 4,
      "note": 103,
      "start": 8.8035,
      "duration": 0.3525,
      "velocity": 91,
      "chip": "ym2612"
    },
    {
      "channel": 1,
      "note": 64,
      "start": 8.8532,
      "duration": 0.0828,
      "velocity": 101,
      "chip": "ym2612"
    },
    {
      "channel": 2,
      "note": 71,
      "start": 8.8538,
      "duration": 0.0824,
      "velocity": 106,
      "chip": "ym2612"
    },
    {
      "channel": 3,
      "note": 71,
      "start": 8.8544,
      "duration": 0.0821,
      "velocity": 106,
      "chip": "ym2612"
    },
    {
      "channel": 1,
      "note": 64,
      "start": 9.0032,
      "duration": 0.0668,
      "velocity": 101,
      "chip": "ym2612"
    },
    {
      "channel": 2,
      "note": 76,
      "start": 9.0038,
      "duration": 0.0665,
      "velocity": 106,
      "chip": "ym2612"
    },
    {
      "channel": 3,
      "note": 80,
      "start": 9.0044,
      "duration": 0.0661,
      "velocity": 106,
      "chip": "ym2612"
    },
    {
      "channel": 0,
      "note": 100,
      "start": 9.0698,
      "duration": 0.0354,
      "velocity": 91,
      "chip": "ym2612"
    },
    {
      "channel": 1,
      "note": 64,
      "start": 9.139,
      "duration": 0.0835,
      "velocity": 101,
      "chip": "ym2612"
    },
    {
      "channel": 2,
      "note": 71,
      "start": 9.1398,
      "duration": 0.0835,
      "velocity": 106,
      "chip": "ym2612"
    },
    {
      "channel": 3,
      "note": 71,
      "start": 9.1404,
      "duration": 0.0835,
      "velocity": 106,
      "chip": "ym2612"
    },
    {
      "channel": 4,
      "note": 100,
      "start": 9.1567,
      "duration": 0.1163,
      "velocity": 91,
      "chip": "ym2612"
    },
    {
      "channel": 0,
      "note": 95,
      "start": 9.2224,
      "duration": 1.444,
      "velocity": 91,
      "chip": "ym2612"
    },
    {
      "channel": 1,
      "note": 64,
      "start": 9.2231,
      "duration": 0.0657,
      "velocity": 101,
      "chip": "ym2612"
    },
    {
      "channel": 2,
      "note": 76,
      "start": 9.2237,
      "duration": 0.0654,
      "velocity": 106,
      "chip": "ym2612"
    },
    {
      "channel": 3,
      "note": 80,
      "start": 9.2244,
      "duration": 0.065,
      "velocity": 106,
      "chip": "ym2612"
    },
    {
      "channel": 4,
      "note": 95,
      "start": 9.3896,
      "duration": 1.4438,
      "velocity": 91,
      "chip": "ym2612"
    },
    {
      "channel": 1,
      "note": 64,
      "start": 9.4395,
      "duration": 0.022,
      "velocity": 101,
      "chip": "ym2612"
    },
    {
      "channel": 2,
      "note": 76,
      "start": 9.4401,
      "duration": 0.0153,
      "velocity": 106,
      "chip": "ym2612"
    },
    {
      "channel": 3,
      "note": 80,
      "start": 9.4408,
      "duration": 0.0149,
      "velocity": 106,
      "chip": "ym2612"
    },
    {
      "channel": 1,
      "note": 59,
      "start": 9.5754,
      "duration": 0.0996,
      "velocity": 101,
      "chip": "ym2612"
    },
    {
      "channel": 1,
      "note": 64,
      "start": 9.809,
      "duration": 0.0167,
      "velocity": 101,
      "chip": "ym2612"
    },
    {
      "channel": 1,
      "note": 59,
      "start": 9.945,
      "duration": 0.0828,
      "velocity": 101,
      "chip": "ym2612"
    },
    {
      "channel": 2,
      "note": 71,
      "start": 9.9456,
      "duration": 0.149,
      "velocity": 106,
      "chip": "ym2612"
    },
    {
      "channel": 3,
      "note": 71,
      "start": 9.9463,
      "duration": 0.1486,
      "velocity": 106,
      "chip": "ym2612"
    },
    {
      "channel": 1,
      "note": 64,
      "start": 10.162,
      "duration": 0.0202,
      "velocity": 101,
      "chip": "ym2612"
    },
    {
      "channel": 2,
      "note": 76,
      "start": 10.1626,
      "duration": 0.0198,
      "velocity": 106,
      "chip": "ym2612"
    },
    {
      "channel": 3,
      "note": 80,
      "start": 10.1633,
      "duration": 0.0195,
      "velocity": 106,
      "chip": "ym2612"
    },
    {
      "channel": 1,
      "note": 64,
      "start": 10.3145,
      "duration": 0.0662,
      "velocity": 101,
      "chip": "ym2612"
    },
    {
      "channel": 2,
      "note": 71,
      "start": 10.3152,
      "duration": 0.0658,
      "velocity": 106,
      "chip": "ym2612"
    },
    {
      "channel": 3,
      "note": 71,
      "start": 10.3159,
      "duration": 0.0655,
      "velocity": 106,
      "chip": "ym2612"
    },
    {
      "channel": 1,
      "note": 64,
      "start": 10.4478,
      "duration": 0.0831,
      "velocity": 101,
      "chip": "ym2612"
    },
    {
      "channel": 2,
      "note": 76,
      "start": 10.4485,
      "duration": 0.0827,
      "velocity": 106,
      "chip": "ym2612"
    },
    {
      "channel": 3,
      "note": 80,
      "start": 10.4492,
      "duration": 0.0823,
      "velocity": 106,
      "chip": "ym2612"
    },
    {
      "channel": 1,
      "note": 64,
      "start": 10.6007,
      "duration": 0.066,
      "velocity": 101,
      "chip": "ym2612"
    },
    {
      "channel": 2,
      "note": 71,
      "start": 10.6014,
      "duration": 0.066,
      "velocity": 106,
      "chip": "ym2612"
    },
    {
      "channel": 3,
      "note": 71,
      "start": 10.602,
      "duration": 0.066,
      "velocity": 106,
      "chip": "ym2612"
    },
    {
      "channel": 1,
      "note": 64,
      "start": 10.6673,
      "duration": 0.0826,
      "velocity": 101,
      "chip": "ym2612"
    },
    {
      "channel": 2,
      "note": 76,
      "start": 10.6679,
      "duration": 0.0822,
      "velocity": 106,
      "chip": "ym2612"
    },
    {
      "channel": 3,
      "note": 80,
      "start": 10.6686,
      "duration": 0.0819,
      "velocity": 106,
      "chip": "ym2612"
    },
    {
      "channel": 0,
      "note": 106,
      "start": 10.884,
      "duration": 0.0354,
      "velocity": 91,
      "chip": "ym2612"
    },
    {
      "channel": 1,
      "note": 64,
      "start": 10.8847,
      "duration": 0.0215,
      "velocity": 101,
      "chip": "ym2612"
    },
    {
      "channel": 2,
      "note": 71,
      "start": 10.8853,
      "duration": 0.0676,
      "velocity": 106,
      "chip": "ym2612"
    },
    {
      "channel": 3,
      "note": 71,
      "start": 10.8859,
      "duration": 0.0672,
      "velocity": 106,
      "chip": "ym2612"
    },
    {
      "channel": 4,
      "note": 106,
      "start": 10.9703,
      "duration": 0.1169,
      "velocity": 91,
      "chip": "ym2612"
    },
    {
      "channel": 0,
      "note": 107,
      "start": 11.0366,
      "duration": 0.3522,
      "velocity": 91,
      "chip": "ym2612"
    },
    {
      "channel": 1,
      "note": 59,
      "start": 11.0373,
      "duration": 0.0824,
      "velocity": 101,
      "chip": "ym2612"
    },
    {
      "channel": 2,
      "note": 76,
      "start": 11.0379,
      "duration": 0.0653,
      "velocity": 106,
      "chip": "ym2612"
    },
    {
      "channel": 3,
      "note": 80,
      "start": 11.0386,
      "duration": 0.0649,
      "velocity": 106,
      "chip": "ym2612"
    },
    {
      "channel": 4,
      "note": 107,
      "start": 11.2038,
      "duration": 0.3527,
      "velocity": 91,
      "chip": "ym2612"
    },
    {
      "channel": 1,
      "note": 64,
      "start": 11.2537,
      "duration": 0.0224,
      "velocity": 101,
      "chip": "ym2612"
    },
    {
      "channel": 2,
      "note": 76,
      "start": 11.2543,
      "duration": 0.1359,
      "velocity": 106,
      "chip": "ym2612"
    },
    {
      "channel": 3,
      "note": 80,
      "start": 11.2549,
      "duration": 0.1359,
      "velocity": 106,
      "chip": "ym2612"
    },
    {
      "channel": 0,
      "note": 105,
      "start": 11.3895,
      "duration": 0.3688,
      "velocity": 91,
      "chip": "ym2612"
    },
    {
      "channel": 1,
      "note": 59,
      "start": 11.3901,
      "duration": 0.099,
      "velocity": 101,
      "chip": "ym2612"
    },
    {
      "channel": 2,
      "note": 71,
      "start": 11.3907,
      "duration": 0.2326,
      "velocity": 106,
      "chip": "ym2612"
    },
    {
      "channel": 3,
      "note": 71,
      "start": 11.3914,
      "duration": 0.2327,
      "velocity": 106,
      "chip": "ym2612"
    },
    {
      "channel": 4,
      "note": 105,
      "start": 11.5571,
      "duration": 0.3688,
      "velocity": 91,
      "chip": "ym2612"
    },
    {
      "channel": 1,
      "note": 62,
      "start": 11.6233,
      "duration": 0.0156,
      "velocity": 101,
      "chip": "ym2612"
    },
    {
      "channel": 2,
      "note": 74,
      "start": 11.6239,
      "duration": 0.0153,
      "velocity": 106,
      "chip": "ym2612"
    },
    {
      "channel": 3,
      "note": 78,
      "start": 11.6246,
      "duration": 0.0149,
      "velocity": 106,
      "chip": "ym2612"
    },
    {
      "channel": 0,
      "note": 104,
      "start": 11.7589,
      "duration": 0.1161,
      "velocity": 91,
      "chip": "ym2612"
    },
    {
      "channel": 1,
      "note": 62,
      "start": 11.7596,
      "duration": 0.0657,
      "velocity": 101,
      "chip": "ym2612"
    },
    {
      "channel": 2,
      "note": 71,
      "start": 11.7602,
      "duration": 0.0653,
      "velocity": 106,
      "chip": "ym2612"
    },
    {
      "channel": 3,
      "note": 71,
      "start": 11.7608,
      "duration": 0.065,
      "velocity": 106,
      "chip": "ym2612"
    },
    {
      "channel": 1,
      "note": 62,
      "start": 11.9089,
      "duration": 0.0671,
      "velocity": 101,
      "chip": "ym2612"
    },
    {
      "channel": 2,
      "note": 74,
      "start": 11.9095,
      "duration": 0.0667,
      "velocity": 106,
      "chip": "ym2612"
    },
    {
      "channel": 3,
      "note": 78,
      "start": 11.9102,
      "duration": 0.0663,
      "velocity": 106,
      "chip": "ym2612"
    },
    {
      "channel": 4,
      "note": 104,
      "start": 11.9265,
      "duration": 0.063,
      "velocity": 91,
      "chip": "ym2612"
    },
    {
      "channel": 0,
      "note": 102,
      "start": 11.9758,
      "duration": 2.5386,
      "velocity": 91,
      "chip": "ym2612"
    },
    {
      "channel": 1,
      "note": 62,
      "start": 12.0453,
      "duration": 0.0828,
      "velocity": 101,
      "chip": "ym2612"
    },
    {
      "channel": 2,
      "note": 71,
      "start": 12.046,
      "duration": 0.0828,
      "velocity": 106,
      "chip": "ym2612"
    },
    {
      "channel": 3,
      "note": 71,
      "start": 12.0466,
      "duration": 0.0828,
      "velocity": 106,
      "chip": "ym2612"
    },
    {
      "channel": 4,
      "note": 102,
      "start": 12.063,
      "duration": 2.538,
      "velocity": 91,
      "chip": "ym2612"
    },
    {
      "channel": 1,
      "note": 62,
      "start": 12.1287,
      "duration": 0.0661,
      "velocity": 101,
      "chip": "ym2612"
    },
    {
      "channel": 2,
      "note": 74,
      "start": 12.1293,
      "duration": 0.0658,
      "velocity": 106,
      "chip": "ym2612"
    },
    {
      "channel": 3,
      "note": 78,
      "start": 12.1299,
      "duration": 0.0654,
      "velocity": 106,
      "chip": "ym2612"
    },
    {
      "channel": 1,
      "note": 62,
      "start": 12.3455,
      "duration": 0.0193,
      "velocity": 101,
      "chip": "ym2612"
    },
    {
      "channel": 2,
      "note": 74,
      "start": 12.3461,
      "duration": 0.0154,
      "velocity": 106,
      "chip": "ym2612"
    },
    {
      "channel": 3,
      "note": 78,
      "start": 12.3468,
      "duration": 0.0151,
      "velocity": 106,
      "chip": "ym2612"
    },
    {
      "channel": 1,
      "note": 57,
      "start": 12.4815,
      "duration": 0.0995,
      "velocity": 101,
      "chip": "ym2612"
    },
    {
      "channel": 1,
      "note": 62,
      "start": 12.6985,
      "duration": 0.02,
      "velocity": 101,
      "chip": "ym2612"
    },
    {
      "channel": 1,
      "note": 57,
      "start": 12.8511,
      "duration": 0.0828,
      "velocity": 101,
      "chip": "ym2612"
    },
    {
      "channel": 2,
      "note": 71,
      "start": 12.8518,
      "duration": 0.1489,
      "velocity": 106,
      "chip": "ym2612"
    },
    {
      "channel": 3,
      "note": 71,
      "start": 12.8524,
      "duration": 0.1485,
      "velocity": 106,
      "chip": "ym2612"
    },
    {
      "channel": 1,
      "note": 62,
      "start": 13.068,
      "duration": 0.0166,
      "velocity": 101,
      "chip": "ym2612"
    },
    {
      "channel": 2,
      "note": 74,
      "start": 13.0687,
      "duration": 0.0162,
      "velocity": 106,
      "chip": "ym2612"
    },
    {
      "channel": 3,
      "note": 78,
      "start": 13.0693,
      "duration": 0.0159,
      "velocity": 106,
      "chip": "ym2612"
    },
    {
      "channel": 1,
      "note": 62,
      "start": 13.204,
      "duration": 0.0828,
      "velocity": 101,
      "chip": "ym2612"
    },
    {
      "channel": 2,
      "note": 71,
      "start": 13.2046,
      "duration": 0.0825,
      "velocity": 106,
      "chip": "ym2612"
    },
    {
      "channel": 3,
      "note": 71,
      "start": 13.2053,
      "duration": 0.0821,
      "velocity": 106,
      "chip": "ym2612"
    },
    {
      "channel": 1,
      "note": 62,
      "start": 13.3541,
      "duration": 0.0832,
      "velocity": 101,
      "chip": "ym2612"
    },
    {
      "channel": 2,
      "note": 74,
      "start": 13.3547,
      "duration": 0.0829,
      "velocity": 106,
      "chip": "ym2612"
    },
    {
      "channel": 3,
      "note": 78,
      "start": 13.3553,
      "duration": 0.0826,
      "velocity": 106,
      "chip": "ym2612"
    },
    {
      "channel": 1,
      "note": 62,
      "start": 13.4902,
      "duration": 0.0828,
      "velocity": 101,
      "chip": "ym2612"
    },
    {
      "channel": 2,
      "note": 71,
      "start": 13.4909,
      "duration": 0.0828,
      "velocity": 106,
      "chip": "ym2612"
    },
    {
      "channel": 3,
      "note": 71,
      "start": 13.4916,
      "duration": 0.0828,
      "velocity": 106,
      "chip": "ym2612"
    },
    {
      "channel": 1,
      "note": 62,
      "start": 13.5736,
      "duration": 0.0662,
      "velocity": 101,
      "chip": "ym2612"
    },
    {
      "channel": 2,
      "note": 74,
      "start": 13.5742,
      "duration": 0.0658,
      "velocity": 106,
      "chip": "ym2612"
    },
    {
      "channel": 3,
      "note": 78,
      "start": 13.5749,
      "duration": 0.0655,
      "velocity": 106,
      "chip": "ym2612"
    },
    {
      "channel": 1,
      "note": 62,
      "start": 13.7905,
      "duration": 0.0237,
      "velocity": 101,
      "chip": "ym2612"
    },
    {
      "channel": 2,
      "note": 71,
      "start": 13.7911,
      "duration": 0.0683,
      "velocity": 106,
      "chip": "ym2612"
    },
    {
      "channel": 3,
      "note": 71,
      "start": 13.7918,
      "duration": 0.068,
      "velocity": 106,
      "chip": "ym2612"
    },
    {
      "channel": 1,
      "note": 57,
      "start": 13.9432,
      "duration": 0.0828,
      "velocity": 101,
      "chip": "ym2612"
    },
    {
      "channel": 2,
      "note": 78,
      "start": 13.9438,
      "duration": 0.0658,
      "velocity": 106,
      "chip": "ym2612"
    },
    {
      "channel": 3,
      "note": 81,
      "start": 13.9445,
      "duration": 0.0654,
      "velocity": 106,
      "chip": "ym2612"
    },
    {
      "channel": 1,
      "note": 66,
      "start": 14.1601,
      "duration": 0.0198,
      "velocity": 101,
      "chip": "ym2612"
    },
    {
      "channel": 2,
      "note": 78,
      "start": 14.1607,
      "duration": 0.1355,
      "velocity": 106,
      "chip": "ym2612"
    },
    {
      "channel": 3,
      "note": 81,
      "start": 14.1613,
      "duration": 0.1355,
      "velocity": 106,
      "chip": "ym2612"
    },
    {
      "channel": 1,
      "note": 62,
      "start": 14.2961,
      "duration": 0.0995,
      "velocity": 101,
      "chip": "ym2612"
    },
    {
      "channel": 2,
      "note": 71,
      "start": 14.2967,
      "duration": 0.2193,
      "velocity": 106,
      "chip": "ym2612"
    },
    {
      "channel": 3,
      "note": 71,
      "start": 14.2973,
      "duration": 0.2193,
      "velocity": 106,
      "chip": "ym2612"
    },
    {
      "channel": 0,
      "note": 103,
      "start": 14.5151,
      "duration": 0.3666,
      "velocity": 91,
      "chip": "ym2612"
    },
    {
      "channel": 1,
      "note": 64,
      "start": 14.5158,
      "duration": 0.0205,
      "velocity": 101,
      "chip": "ym2612"
    },
    {
      "channel": 2,
      "note": 76,
      "start": 14.5165,
      "duration": 0.02,
      "velocity": 106,
      "chip": "ym2612"
    },
    {
      "channel": 3,
      "note": 80,
      "start": 14.5172,
      "duration": 0.0197,
      "velocity": 106,
      "chip": "ym2612"
    },
    {
      "channel": 4,
      "note": 103,
      "start": 14.6017,
      "duration": 0.3668,
      "velocity": 91,
      "chip": "ym2612"
    },
    {
      "channel": 1,
      "note": 64,
      "start": 14.6656,
      "duration": 0.0661,
      "velocity": 101,
      "chip": "ym2612"
    },
    {
      "channel": 2,
      "note": 71,
      "start": 14.6662,
      "duration": 0.0658,
      "velocity": 106,
      "chip": "ym2612"
    },
    {
      "channel": 3,
      "note": 71,
      "start": 14.6669,
      "duration": 0.0654,
      "velocity": 106,
      "chip": "ym2612"
    },
    {
      "channel": 1,
      "note": 64,
      "start": 14.8155,
      "duration": 0.0669,
      "velocity": 101,
      "chip": "ym2612"
    },
    {
      "channel": 2,
      "note": 76,
      "start": 14.8162,
      "duration": 0.0665,
      "velocity": 106,
      "chip": "ym2612"
    },
    {
      "channel": 3,
      "note": 80,
      "start": 14.8169,
      "duration": 0.0661,
      "velocity": 106,
      "chip": "ym2612"
    },
    {
      "channel": 0,
      "note": 100,
      "start": 14.8823,
      "duration": 0.0354,
      "velocity": 91,
      "chip": "ym2612"
    },
    {
      "channel": 1,
      "note": 64,
      "start": 14.9517,
      "duration": 0.0667,
      "velocity": 101,
      "chip": "ym2612"
    },
    {
      "channel": 2,
      "note": 71,
      "start": 14.9523,
      "duration": 0.0667,
      "velocity": 106,
      "chip": "ym2612"
    },
    {
      "channel": 3,
      "note": 71,
      "start": 14.953,
      "duration": 0.0667,
      "velocity": 106,
      "chip": "ym2612"
    },
    {
      "channel": 4,
      "note": 100,
      "start": 14.9692,
      "duration": 0.1163,
      "velocity": 91,
      "chip": "ym2612"
    },
    {
      "channel": 0,
      "note": 95,
      "start": 15.0183,
      "duration": 1.4607,
      "velocity": 91,
      "chip": "ym2612"
    },
    {
      "channel": 1,
      "note": 64,
      "start": 15.0189,
      "duration": 0.0824,
      "velocity": 101,
      "chip": "ym2612"
    },
    {
      "channel": 2,
      "note": 76,
      "start": 15.0195,
      "duration": 0.082,
      "velocity": 106,
      "chip": "ym2612"
    },
    {
      "channel": 3,
      "note": 80,
      "start": 15.0202,
      "duration": 0.0817,
      "velocity": 106,
      "chip": "ym2612"
    },
    {
      "channel": 4,
      "note": 95,
      "start": 15.1854,
      "duration": 1.4605,
      "velocity": 91,
      "chip": "ym2612"
    },
    {
      "channel": 1,
      "note": 64,
      "start": 15.252,
      "duration": 0.019,
      "velocity": 101,
      "chip": "ym2612"
    },
    {
      "channel": 2,
      "note": 76,
      "start": 15.2526,
      "duration": 0.0153,
      "velocity": 106,
      "chip": "ym2612"
    },
    {
      "channel": 3,
      "note": 80,
      "start": 15.2532,
      "duration": 0.015,
      "velocity": 106,
      "chip": "ym2612"
    },
    {
      "channel": 1,
      "note": 59,
      "start": 15.3879,
      "duration": 0.0829,
      "velocity": 101,
      "chip": "ym2612"
    },
    {
      "channel": 1,
      "note": 64,
      "start": 15.6049,
      "duration": 0.0199,
      "velocity": 101,
      "chip": "ym2612"
    },
    {
      "channel": 1,
      "note": 59,
      "start": 15.7408,
      "duration": 0.0995,
      "velocity": 101,
      "chip": "ym2612"
    },
    {
      "channel": 2,
      "note": 71,
      "start": 15.7414,
      "duration": 0.149,
      "velocity": 106,
      "chip": "ym2612"
    },
    {
      "channel": 3,
      "note": 71,
      "start": 15.7421,
      "duration": 0.1486,
      "velocity": 106,
      "chip": "ym2612"
    },
    {
      "channel": 1,
      "note": 64,
      "start": 15.9744,
      "duration": 0.0166,
      "velocity": 101,
      "chip": "ym2612"
    },
    {
      "channel": 2,
      "note": 76,
      "start": 15.9751,
      "duration": 0.0162,
      "velocity": 106,
      "chip": "ym2612"
    },
    {
      "channel": 3,
      "note": 80,
      "start": 15.9758,
      "duration": 0.0158,
      "velocity": 106,
      "chip": "ym2612"
    },
    {
      "channel": 1,
      "note": 64,
      "start": 16.1103,
      "duration": 0.0828,
      "velocity": 101,
      "chip": "ym2612"
    },
    {
      "channel": 2,
      "note": 71,
      "start": 16.111,
      "duration": 0.0825,
      "velocity": 106,
      "chip": "ym2612"
    },
    {
      "channel": 3,
      "note": 71,
      "start": 16.1116,
      "duration": 0.0821,
      "velocity": 106,
      "chip": "ym2612"
    },
    {
      "channel": 1,
      "note": 64,
      "start": 16.2603,
      "duration": 0.0664,
      "velocity": 101,
      "chip": "ym2612"
    },
    {
      "channel": 2,
      "note": 76,
      "start": 16.261,
      "duration": 0.066,
      "velocity": 106,
      "chip": "ym2612"
    },
    {
      "channel": 3,
      "note": 80,
      "start": 16.2616,
      "duration": 0.0657,
      "velocity": 106,
      "chip": "ym2612"
    },
    {
      "channel": 1,
      "note": 64,
      "start": 16.3966,
      "duration": 0.0827,
      "velocity": 101,
      "chip": "ym2612"
    },
    {
      "channel": 2,
      "note": 71,
      "start": 16.3972,
      "duration": 0.0827,
      "velocity": 106,
      "chip": "ym2612"
    },
    {
      "channel": 3,
      "note": 71,
      "start": 16.3979,
      "duration": 0.0827,
      "velocity": 106,
      "chip": "ym2612"
    },
    {
      "channel": 1,
      "note": 64,
      "start": 16.4798,
      "duration": 0.066,
      "velocity": 101,
      "chip": "ym2612"
    },
    {
      "channel": 2,
      "note": 76,
      "start": 16.4805,
      "duration": 0.0656,
      "velocity": 106,
      "chip": "ym2612"
    },
    {
      "channel": 3,
      "note": 80,
      "start": 16.4811,
      "duration": 0.0653,
      "velocity": 106,
      "chip": "ym2612"
    },
    {
      "channel": 0,
      "note": 103,
      "start": 16.6965,
      "duration": 0.0354,
      "velocity": 91,
      "chip": "ym2612"
    },
    {
      "channel": 1,
      "note": 64,
      "start": 16.6971,
      "duration": 0.0216,
      "velocity": 101,
      "chip": "ym2612"
    },
    {
      "channel": 2,
      "note": 71,
      "start": 16.6978,
      "duration": 0.0676,
      "velocity": 106,
      "chip": "ym2612"
    },
    {
      "channel": 3,
      "note": 71,
      "start": 16.6985,
      "duration": 0.0672,
      "velocity": 106,
      "chip": "ym2612"
    },
    {
      "channel": 4,
      "note": 103,
      "start": 16.7828,
      "duration": 0.1169,
      "velocity": 91,
      "chip": "ym2612"
    },
    {
      "channel": 0,
      "note": 104,
      "start": 16.8325,
      "duration": 0.2558,
      "velocity": 91,
      "chip": "ym2612"
    },
    {
      "channel": 1,
      "note": 59,
      "start": 16.8331,
      "duration": 0.099,
      "velocity": 101,
      "chip": "ym2612"
    },
    {
      "channel": 2,
      "note": 76,
      "start": 16.8338,
      "duration": 0.082,
      "velocity": 106,
      "chip": "ym2612"
    },
    {
      "channel": 3,
      "note": 80,
      "start": 16.8344,
      "duration": 0.0817,
      "velocity": 106,
      "chip": "ym2612"
    },
    {
      "channel": 4,
      "note": 104,
      "start": 16.9997,
      "duration": 0.2532,
      "velocity": 91,
      "chip": "ym2612"
    },
    {
      "channel": 1,
      "note": 64,
      "start": 17.0662,
      "duration": 0.019,
      "velocity": 101,
      "chip": "ym2612"
    },
    {
      "channel": 2,
      "note": 76,
      "start": 17.0668,
      "duration": 0.1359,
      "velocity": 106,
      "chip": "ym2612"
    },
    {
      "channel": 3,
      "note": 80,
      "start": 17.0675,
      "duration": 0.1359,
      "velocity": 106,
      "chip": "ym2612"
    },
    {
      "channel": 0,
      "note": 104,
      "start": 17.202,
      "duration": 0.3523,
      "velocity": 91,
      "chip": "ym2612"
    },
    {
      "channel": 1,
      "note": 59,
      "start": 17.2026,
      "duration": 0.0824,
      "velocity": 101,
      "chip": "ym2612"
    },
    {
      "channel": 2,
      "note": 71,
      "start": 17.2032,
      "duration": 0.216,
      "velocity": 106,
      "chip": "ym2612"
    },
    {
      "channel": 3,
      "note": 71,
      "start": 17.2039,
      "duration": 0.216,
      "velocity": 106,
      "chip": "ym2612"
    },
    {
      "channel": 4,
      "note": 104,
      "start": 17.3695,
      "duration": 0.3522,
      "velocity": 91,
      "chip": "ym2612"
    },
    {
      "channel": 1,
      "note": 62,
      "start": 17.4191,
      "duration": 0.0195,
      "velocity": 101,
      "chip": "ym2612"
    },
    {
      "channel": 2,
      "note": 74,
      "start": 17.4197,
      "duration": 0.0192,
      "velocity": 106,
      "chip": "ym2612"
    },
    {
      "channel": 3,
      "note": 78,
      "start": 17.4204,
      "duration": 0.0188,
      "velocity": 106,
      "chip": "ym2612"
    },
    {
      "channel": 0,
      "note": 104,
      "start": 17.5548,
      "duration": 0.116,
      "velocity": 91,
      "chip": "ym2612"
    },
    {
      "channel": 1,
      "note": 62,
      "start": 17.5554,
      "duration": 0.0824,
      "velocity": 101,
      "chip": "ym2612"
    },
    {
      "channel": 2,
      "note": 71,
      "start": 17.5561,
      "duration": 0.082,
      "velocity": 106,
      "chip": "ym2612"
    },
    {
      "channel": 3,
      "note": 71,
      "start": 17.5568,
      "duration": 0.0816,
      "velocity": 106,
      "chip": "ym2612"
    },
    {
      "channel": 1,
      "note": 62,
      "start": 17.7047,
      "duration": 0.0838,
      "velocity": 101,
      "chip": "ym2612"
    },
    {
      "channel": 2,
      "note": 74,
      "start": 17.7054,
      "duration": 0.0834,
      "velocity": 106,
      "chip": "ym2612"
    },
    {
      "channel": 3,
      "note": 78,
      "start": 17.7061,
      "duration": 0.083,
      "velocity": 106,
      "chip": "ym2612"
    },
    {
      "channel": 4,
      "note": 104,
      "start": 17.7224,
      "duration": 0.0768,
      "velocity": 91,
      "chip": "ym2612"
    },
    {
      "channel": 0,
      "note": 102,
      "start": 17.7883,
      "duration": 2.1665,
      "velocity": 91,
      "chip": "ym2612"
    },
    {
      "channel": 1,
      "note": 62,
      "start": 17.8578,
      "duration": 0.0661,
      "velocity": 101,
      "chip": "ym2612"
    },
    {
      "channel": 2,
      "note": 71,
      "start": 17.8584,
      "duration": 0.0661,
      "velocity": 106,
      "chip": "ym2612"
    },
    {
      "channel": 3,
      "note": 71,
      "start": 17.8591,
      "duration": 0.0661,
      "velocity": 106,
      "chip": "ym2612"
    },
    {
      "channel": 4,
      "note": 102,
      "start": 17.8754,
      "duration": 2.1661,
      "velocity": 91,
      "chip": "ym2612"
    },
    {
      "channel": 1,
      "note": 62,
      "start": 17.9245,
      "duration": 0.0828,
      "velocity": 101,
      "chip": "ym2612"
    },
    {
      "channel": 2,
      "note": 74,
      "start": 17.9251,
      "duration": 0.0825,
      "velocity": 106,
      "chip": "ym2612"
    },
    {
      "channel": 3,
      "note": 78,
      "start": 17.9257,
      "duration": 0.0821,
      "velocity": 106,
      "chip": "ym2612"
    },
    {
      "channel": 1,
      "note": 62,
      "start": 18.1413,
      "duration": 0.0227,
      "velocity": 101,
      "chip": "ym2612"
    },
    {
      "channel": 2,
      "note": 74,
      "start": 18.142,
      "duration": 0.0188,
      "velocity": 106,
      "chip": "ym2612"
    },
    {
      "channel": 3,
      "note": 78,
      "start": 18.1427,
      "duration": 0.0184,
      "velocity": 106,
      "chip": "ym2612"
    },
    {
      "channel": 1,
      "note": 57,
      "start": 18.2939,
      "duration": 0.0828,
      "velocity": 101,
      "chip": "ym2612"
    },
    {
      "channel": 1,
      "note": 62,
      "start": 18.5109,
      "duration": 0.02,
      "velocity": 101,
      "chip": "ym2612"
    },
    {
      "channel": 1,
      "note": 57,
      "start": 18.6468,
      "duration": 0.0996,
      "velocity": 101,
      "chip": "ym2612"
    },
    {
      "channel": 2,
      "note": 71,
      "start": 18.6475,
      "duration": 0.149,
      "velocity": 106,
      "chip": "ym2612"
    },
    {
      "channel": 3,
      "note": 71,
      "start": 18.6481,
      "duration": 0.1485,
      "velocity": 106,
      "chip": "ym2612"
    },
    {
      "channel": 1,
      "note": 62,
      "start": 18.8805,
      "duration": 0.0166,
      "velocity": 101,
      "chip": "ym2612"
    },
    {
      "channel": 2,
      "note": 74,
      "start": 18.8811,
      "duration": 0.0162,
      "velocity": 106,
      "chip": "ym2612"
    },
    {
      "channel": 3,
      "note": 78,
      "start": 18.8817,
      "duration": 0.0159,
      "velocity": 106,
      "chip": "ym2612"
    },
    {
      "channel": 1,
      "note": 62,
      "start": 19.0163,
      "duration": 0.0662,
      "velocity": 101,
      "chip": "ym2612"
    },
    {
      "channel": 2,
      "note": 71,
      "start": 19.017,
      "duration": 0.0658,
      "velocity": 106,
      "chip": "ym2612"
    },
    {
      "channel": 3,
      "note": 71,
      "start": 19.0176,
      "duration": 0.0655,
      "velocity": 106,
      "chip": "ym2612"
    },
    {
      "channel": 1,
      "note": 62,
      "start": 19.1663,
      "duration": 0.0668,
      "velocity": 101,
      "chip": "ym2612"
    },
    {
      "channel": 2,
      "note": 74,
      "start": 19.167,
      "duration": 0.0664,
      "velocity": 106,
      "chip": "ym2612"
    },
    {
      "channel": 3,
      "note": 78,
      "start": 19.1676,
      "duration": 0.066,
      "velocity": 106,
      "chip": "ym2612"
    },
    {
      "channel": 1,
      "note": 62,
      "start": 19.3025,
      "duration": 0.0662,
      "velocity": 101,
      "chip": "ym2612"
    },
    {
      "channel": 2,
      "note": 71,
      "start": 19.3032,
      "duration": 0.0661,
      "velocity": 106,
      "chip": "ym2612"
    },
    {
      "channel": 3,
      "note": 71,
      "start": 19.3039,
      "duration": 0.0661,
      "velocity": 106,
      "chip": "ym2612"
    },
    {
      "channel": 1,
      "note": 62,
      "start": 19.3692,
      "duration": 0.0828,
      "velocity": 101,
      "chip": "ym2612"
    },
    {
      "channel": 2,
      "note": 74,
      "start": 19.3699,
      "duration": 0.0825,
      "velocity": 106,
      "chip": "ym2612"
    },
    {
      "channel": 3,
      "note": 78,
      "start": 19.3705,
      "duration": 0.0822,
      "velocity": 106,
      "chip": "ym2612"
    },
    {
      "channel": 1,
      "note": 62,
      "start": 19.6028,
      "duration": 0.02,
      "velocity": 101,
      "chip": "ym2612"
    },
    {
      "channel": 2,
      "note": 71,
      "start": 19.6034,
      "duration": 0.0683,
      "velocity": 106,
      "chip": "ym2612"
    },
    {
      "channel": 3,
      "note": 71,
      "start": 19.6041,
      "duration": 0.068,
      "velocity": 106,
      "chip": "ym2612"
    },
    {
      "channel": 1,
      "note": 57,
      "start": 19.7388,
      "duration": 0.0996,
      "velocity": 101,
      "chip": "ym2612"
    },
    {
      "channel": 2,
      "note": 78,
      "start": 19.7394,
      "duration": 0.0658,
      "velocity": 106,
      "chip": "ym2612"
    },
    {
      "channel": 3,
      "note": 81,
      "start": 19.7401,
      "duration": 0.0654,
      "velocity": 106,
      "chip": "ym2612"
    },
    {
      "channel": 1,
      "note": 62,
      "start": 19.9556,
      "duration": 0.0215,
      "velocity": 101,
      "chip": "ym2612"
    },
    {
      "channel": 2,
      "note": 78,
      "start": 19.9562,
      "duration": 0.152,
      "velocity": 106,
      "chip": "ym2612"
    },
    {
      "channel": 3,
      "note": 81,
      "start": 19.9569,
      "duration": 0.1519,
      "velocity": 106,
      "chip": "ym2612"
    },
    {
      "channel": 1,
      "note": 57,
      "start": 20.108,
      "duration": 0.0829,
      "velocity": 101,
      "chip": "ym2612"
    },
    {
      "channel": 2,
      "note": 71,
      "start": 20.1086,
      "duration": 0.2173,
      "velocity": 106,
      "chip": "ym2612"
    },
    {
      "channel": 3,
      "note": 71,
      "start": 20.1093,
      "duration": 0.2173,
      "velocity": 106,
      "chip": "ym2612"
    },
    {
      "channel": 0,
      "note": 103,
      "start": 20.325,
      "duration": 0.3688,
      "velocity": 91,
      "chip": "ym2612"
    },
    {
      "channel": 1,
      "note": 64,
      "start": 20.3256,
      "duration": 0.0157,
      "velocity": 101,
      "chip": "ym2612"
    },
    {
      "channel": 2,
      "note": 76,
      "start": 20.3264,
      "duration": 0.0152,
      "velocity": 106,
      "chip": "ym2612"
    },
    {
      "channel": 3,
      "note": 80,
      "start": 20.3271,
      "duration": 0.0148,
      "velocity": 106,
      "chip": "ym2612"
    },
    {
      "channel": 4,
      "note": 103,
      "start": 20.4114,
      "duration": 0.3693,
      "velocity": 91,
      "chip": "ym2612"
    },
    {
      "channel": 1,
      "note": 64,
      "start": 20.4611,
      "duration": 0.0828,
      "velocity": 101,
      "chip": "ym2612"
    },
    {
      "channel": 2,
      "note": 71,
      "start": 20.4617,
      "duration": 0.0824,
      "velocity": 106,
      "chip": "ym2612"
    },
    {
      "channel": 3,
      "note": 71,
      "start": 20.4623,
      "duration": 0.0821,
      "velocity": 106,
      "chip": "ym2612"
    },
    {
      "channel": 1,
      "note": 64,
      "start": 20.6111,
      "duration": 0.0835,
      "velocity": 101,
      "chip": "ym2612"
    },
    {
      "channel": 2,
      "note": 76,
      "start": 20.6117,
      "duration": 0.0831,
      "velocity": 106,
      "chip": "ym2612"
    },
    {
      "channel": 3,
      "note": 80,
      "start": 20.6123,
      "duration": 0.0828,
      "velocity": 106,
      "chip": "ym2612"
    },
    {
      "channel": 0,
      "note": 100,
      "start": 20.6944,
      "duration": 0.0188,
      "velocity": 91,
      "chip": "ym2612"
    },
    {
      "channel": 1,
      "note": 64,
      "start": 20.747,
      "duration": 0.0837,
      "velocity": 101,
      "chip": "ym2612"
    },
    {
      "channel": 2,
      "note": 71,
      "start": 20.7477,
      "duration": 0.0836,
      "velocity": 106,
      "chip": "ym2612"
    },
    {
      "channel": 3,
      "note": 71,
      "start": 20.7483,
      "duration": 0.0836,
      "velocity": 106,
      "chip": "ym2612"
    },
    {
      "channel": 4,
      "note": 100,
      "start": 20.7813,
      "duration": 0.0996,
      "velocity": 91,
      "chip": "ym2612"
    },
    {
      "channel": 0,
      "note": 95,
      "start": 20.8305,
      "duration": 1.4441,
      "velocity": 91,
      "chip": "ym2612"
    },
    {
      "channel": 1,
      "note": 64,
      "start": 20.8312,
      "duration": 0.0656,
      "velocity": 101,
      "chip": "ym2612"
    },
    {
      "channel": 2,
      "note": 76,
      "start": 20.8318,
      "duration": 0.0653,
      "velocity": 106,
      "chip": "ym2612"
    },
    {
      "channel": 3,
      "note": 80,
      "start": 20.8324,
      "duration": 0.0649,
      "velocity": 106,
      "chip": "ym2612"
    },
    {
      "channel": 4,
      "note": 95,
      "start": 20.9976,
      "duration": 1.444,
      "velocity": 91,
      "chip": "ym2612"
    },
    {
      "channel": 1,
      "note": 64,
      "start": 21.0474,
      "duration": 0.0225,
      "velocity": 101,
      "chip": "ym2612"
    },
    {
      "channel": 2,
      "note": 76,
      "start": 21.0481,
      "duration": 0.0188,
      "velocity": 106,
      "chip": "ym2612"
    },
    {
      "channel": 3,
      "note": 80,
      "start": 21.0487,
      "duration": 0.0184,
      "velocity": 106,
      "chip": "ym2612"
    },
    {
      "channel": 1,
      "note": 59,
      "start": 21.1835,
      "duration": 0.0996,
      "velocity": 101,
      "chip": "ym2612"
    },
    {
      "channel": 1,
      "note": 64,
      "start": 21.4171,
      "duration": 0.0167,
      "velocity": 101,
      "chip": "ym2612"
    },
    {
      "channel": 1,
      "note": 59,
      "start": 21.5531,
      "duration": 0.0995,
      "velocity": 101,
      "chip": "ym2612"
    },
    {
      "channel": 2,
      "note": 71,
      "start": 21.5537,
      "duration": 0.149,
      "velocity": 106,
      "chip": "ym2612"
    },
    {
      "channel": 3,
      "note": 71,
      "start": 21.5544,
      "duration": 0.1486,
      "velocity": 106,
      "chip": "ym2612"
    },
    {
      "channel": 1,
      "note": 64,
      "start": 21.77,
      "duration": 0.0202,
      "velocity": 101,
      "chip": "ym2612"
    },
    {
      "channel": 2,
      "note": 76,
      "start": 21.7707,
      "duration": 0.0198,
      "velocity": 106,
      "chip": "ym2612"
    },
    {
      "channel": 3,
      "note": 80,
      "start": 21.7713,
      "duration": 0.0195,
      "velocity": 106,
      "chip": "ym2612"
    },
    {
      "channel": 1,
      "note": 64,
      "start": 21.9226,
      "duration": 0.0662,
      "velocity": 101,
      "chip": "ym2612"
    },
    {
      "channel": 2,
      "note": 71,
      "start": 21.9233,
      "duration": 0.0658,
      "velocity": 106,
      "chip": "ym2612"
    },
    {
      "channel": 3,
      "note": 71,
      "start": 21.9239,
      "duration": 0.0655,
      "velocity": 106,
      "chip": "ym2612"
    },
    {
      "channel": 1,
      "note": 64,
      "start": 22.0726,
      "duration": 0.0664,
      "velocity": 101,
      "chip": "ym2612"
    },
    {
      "channel": 2,
      "note": 76,
      "start": 22.0733,
      "duration": 0.066,
      "velocity": 106,
      "chip": "ym2612"
    },
    {
      "channel": 3,
      "note": 80,
      "start": 22.0739,
      "duration": 0.0656,
      "velocity": 106,
      "chip": "ym2612"
    },
    {
      "channel": 1,
      "note": 64,
      "start": 22.2089,
      "duration": 0.066,
      "velocity": 101,
      "chip": "ym2612"
    },
    {
      "channel": 2,
      "note": 71,
      "start": 22.2095,
      "duration": 0.066,
      "velocity": 106,
      "chip": "ym2612"
    },
    {
      "channel": 3,
      "note": 71,
      "start": 22.2102,
      "duration": 0.066,
      "velocity": 106,
      "chip": "ym2612"
    },
    {
      "channel": 1,
      "note": 64,
      "start": 22.2755,
      "duration": 0.0826,
      "velocity": 101,
      "chip": "ym2612"
    },
    {
      "channel": 2,
      "note": 76,
      "start": 22.2761,
      "duration": 0.0822,
      "velocity": 106,
      "chip": "ym2612"
    },
    {
      "channel": 3,
      "note": 80,
      "start": 22.2767,
      "duration": 0.0819,
      "velocity": 106,
      "chip": "ym2612"
    },
    {
      "channel": 0,
      "note": 106,
      "start": 22.5088,
      "duration": 0.0218,
      "velocity": 91,
      "chip": "ym2612"
    },
    {
      "channel": 1,
      "note": 64,
      "start": 22.5095,
      "duration": 0.0184,
      "velocity": 101,
      "chip": "ym2612"
    },
    {
      "channel": 2,
      "note": 71,
      "start": 22.5101,
      "duration": 0.051,
      "velocity": 106,
      "chip": "ym2612"
    },
    {
      "channel": 3,
      "note": 71,
      "start": 22.5108,
      "duration": 0.0506,
      "velocity": 106,
      "chip": "ym2612"
    },
    {
      "channel": 4,
      "note": 106,
      "start": 22.5952,
      "duration": 0.1002,
      "velocity": 91,
      "chip": "ym2612"
    },
    {
      "channel": 0,
      "note": 107,
      "start": 22.6449,
      "duration": 0.3522,
      "velocity": 91,
      "chip": "ym2612"
    },
    {
      "channel": 1,
      "note": 59,
      "start": 22.6455,
      "duration": 0.0824,
      "velocity": 101,
      "chip": "ym2612"
    },
    {
      "channel": 2,
      "note": 76,
      "start": 22.6461,
      "duration": 0.0653,
      "velocity": 106,
      "chip": "ym2612"
    },
    {
      "channel": 3,
      "note": 80,
      "start": 22.6468,
      "duration": 0.0649,
      "velocity": 106,
      "chip": "ym2612"
    },
    {
      "channel": 4,
      "note": 107,
      "start": 22.8121,
      "duration": 0.3526,
      "velocity": 91,
      "chip": "ym2612"
    },
    {
      "channel": 1,
      "note": 64,
      "start": 22.8619,
      "duration": 0.0224,
      "velocity": 101,
      "chip": "ym2612"
    },
    {
      "channel": 2,
      "note": 76,
      "start": 22.8626,
      "duration": 0.1359,
      "velocity": 106,
      "chip": "ym2612"
    },
    {
      "channel": 3,
      "note": 80,
      "start": 22.8633,
      "duration": 0.1358,
      "velocity": 106,
      "chip": "ym2612"
    },
    {
      "channel": 0,
      "note": 105,
      "start": 22.9976,
      "duration": 0.3688,
      "velocity": 91,
      "chip": "ym2612"
    },
    {
      "channel": 1,
      "note": 59,
      "start": 22.9983,
      "duration": 0.099,
      "velocity": 101,
      "chip": "ym2612"
    },
    {
      "channel": 2,
      "note": 71,
      "start": 22.9989,
      "duration": 0.2326,
      "velocity": 106,
      "chip": "ym2612"
    },
    {
      "channel": 3,
      "note": 71,
      "start": 22.9995,
      "duration": 0.2327,
      "velocity": 106,
      "chip": "ym2612"
    },
    {
      "channel": 4,
      "note": 105,
      "start": 23.1652,
      "duration": 0.3688,
      "velocity": 91,
      "chip": "ym2612"
    },
    {
      "channel": 1,
      "note": 62,
      "start": 23.2314,
      "duration": 0.0156,
      "velocity": 101,
      "chip": "ym2612"
    },
    {
      "channel": 2,
      "note": 74,
      "start": 23.2321,
      "duration": 0.0153,
      "velocity": 106,
      "chip": "ym2612"
    },
    {
      "channel": 3,
      "note": 78,
      "start": 23.2328,
      "duration": 0.0149,
      "velocity": 106,
      "chip": "ym2612"
    },
    {
      "channel": 0,
      "note": 104,
      "start": 23.3671,
      "duration": 0.116,
      "velocity": 91,
      "chip": "ym2612"
    },
    {
      "channel": 1,
      "note": 62,
      "start": 23.3677,
      "duration": 0.0657,
      "velocity": 101,
      "chip": "ym2612"
    },
    {
      "channel": 2,
      "note": 71,
      "start": 23.3684,
      "duration": 0.0653,
      "velocity": 106,
      "chip": "ym2612"
    },
    {
      "channel": 3,
      "note": 71,
      "start": 23.369,
      "duration": 0.065,
      "velocity": 106,
      "chip": "ym2612"
    },
    {
      "channel": 1,
      "note": 62,
      "start": 23.517,
      "duration": 0.0671,
      "velocity": 101,
      "chip": "ym2612"
    },
    {
      "channel": 2,
      "note": 74,
      "start": 23.5177,
      "duration": 0.0667,
      "velocity": 106,
      "chip": "ym2612"
    },
    {
      "channel": 3,
      "note": 78,
      "start": 23.5184,
      "duration": 0.0663,
      "velocity": 106,
      "chip": "ym2612"
    },
    {
      "channel": 4,
      "note": 104,
      "start": 23.5347,
      "duration": 0.063,
      "velocity": 91,
      "chip": "ym2612"
    },
    {
      "channel": 0,
      "note": 102,
      "start": 23.584,
      "duration": 2.5556,
      "velocity": 106,
      "chip": "ym2612"
    },
    {
      "channel": 1,
      "note": 62,
      "start": 23.6535,
      "duration": 0.0828,
      "velocity": 101,
      "chip": "ym2612"
    },
    {
      "channel": 2,
      "note": 71,
      "start": 23.6541,
      "duration": 0.0828,
      "velocity": 106,
      "chip": "ym2612"
    },
    {
      "channel": 3,
      "note": 71,
      "start": 23.6548,
      "duration": 0.0828,
      "velocity": 106,
      "chip": "ym2612"
    },
    {
      "channel": 4,
      "note": 102,
      "start": 23.6711,
      "duration": 2.5384,
      "velocity": 106,
      "chip": "ym2612"
    },
    {
      "channel": 1,
      "note": 62,
      "start": 23.7368,
      "duration": 0.0661,
      "velocity": 101,
      "chip": "ym2612"
    },
    {
      "channel": 2,
      "note": 74,
      "start": 23.7375,
      "duration": 0.0658,
      "velocity": 106,
      "chip": "ym2612"
    },
    {
      "channel": 3,
      "note": 78,
      "start": 23.7381,
      "duration": 0.0654,
      "velocity": 106,
      "chip": "ym2612"
    },
    {
      "channel": 1,
      "note": 62,
      "start": 23.9537,
      "duration": 0.0193,
      "velocity": 101,
      "chip": "ym2612"
    },
    {
      "channel": 2,
      "note": 74,
      "start": 23.9543,
      "duration": 0.0154,
      "velocity": 106,
      "chip": "ym2612"
    },
    {
      "channel": 3,
      "note": 78,
      "start": 23.955,
      "duration": 0.015,
      "velocity": 106,
      "chip": "ym2612"
    },
    {
      "channel": 1,
      "note": 57,
      "start": 24.0897,
      "duration": 0.0995,
      "velocity": 101,
      "chip": "ym2612"
    },
    {
      "channel": 1,
      "note": 62,
      "start": 24.3233,
      "duration": 0.0168,
      "velocity": 101,
      "chip": "ym2612"
    },
    {
      "channel": 1,
      "note": 57,
      "start": 24.4593,
      "duration": 0.0828,
      "velocity": 101,
      "chip": "ym2612"
    },
    {
      "channel": 2,
      "note": 71,
      "start": 24.4599,
      "duration": 0.1489,
      "velocity": 106,
      "chip": "ym2612"
    },
    {
      "channel": 3,
      "note": 71,
      "start": 24.4606,
      "duration": 0.1485,
      "velocity": 106,
      "chip": "ym2612"
    },
    {
      "channel": 1,
      "note": 62,
      "start": 24.6762,
      "duration": 0.0201,
      "velocity": 101,
      "chip": "ym2612"
    },
    {
      "channel": 2,
      "note": 74,
      "start": 24.6769,
      "duration": 0.0198,
      "velocity": 106,
      "chip": "ym2612"
    },
    {
      "channel": 3,
      "note": 78,
      "start": 24.6775,
      "duration": 0.0195,
      "velocity": 106,
      "chip": "ym2612"
    },
    {
      "channel": 1,
      "note": 62,
      "start": 24.8121,
      "duration": 0.0828,
      "velocity": 101,
      "chip": "ym2612"
    },
    {
      "channel": 2,
      "note": 71,
      "start": 24.8128,
      "duration": 0.0825,
      "velocity": 106,
      "chip": "ym2612"
    },
    {
      "channel": 3,
      "note": 71,
      "start": 24.8134,
      "duration": 0.0821,
      "velocity": 106,
      "chip": "ym2612"
    },
    {
      "channel": 1,
      "note": 62,
      "start": 24.9622,
      "duration": 0.0832,
      "velocity": 101,
      "chip": "ym2612"
    },
    {
      "channel": 2,
      "note": 74,
      "start": 24.9628,
      "duration": 0.0829,
      "velocity": 106,
      "chip": "ym2612"
    },
    {
      "channel": 3,
      "note": 78,
      "start": 24.9634,
      "duration": 0.0826,
      "velocity": 106,
      "chip": "ym2612"
    },
    {
      "channel": 1,
      "note": 62,
      "start": 25.115,
      "duration": 0.0662,
      "velocity": 101,
      "chip": "ym2612"
    },
    {
      "channel": 2,
      "note": 71,
      "start": 25.1157,
      "duration": 0.0661,
      "velocity": 106,
      "chip": "ym2612"
    },
    {
      "channel": 3,
      "note": 71,
      "start": 25.1163,
      "duration": 0.0661,
      "velocity": 106,
      "chip": "ym2612"
    },
    {
      "channel": 1,
      "note": 62,
      "start": 25.1817,
      "duration": 0.0662,
      "velocity": 101,
      "chip": "ym2612"
    },
    {
      "channel": 2,
      "note": 74,
      "start": 25.1823,
      "duration": 0.0658,
      "velocity": 106,
      "chip": "ym2612"
    },
    {
      "channel": 3,
      "note": 78,
      "start": 25.183,
      "duration": 0.0655,
      "velocity": 106,
      "chip": "ym2612"
    },
    {
      "channel": 1,
      "note": 62,
      "start": 25.3986,
      "duration": 0.0237,
      "velocity": 101,
      "chip": "ym2612"
    },
    {
      "channel": 2,
      "note": 71,
      "start": 25.3993,
      "duration": 0.0683,
      "velocity": 106,
      "chip": "ym2612"
    },
    {
      "channel": 3,
      "note": 71,
      "start": 25.3999,
      "duration": 0.068,
      "velocity": 106,
      "chip": "ym2612"
    },
    {
      "channel": 1,
      "note": 57,
      "start": 25.5513,
      "duration": 0.0828,
      "velocity": 101,
      "chip": "ym2612"
    },
    {
      "channel": 2,
      "note": 78,
      "start": 25.552,
      "duration": 0.0658,
      "velocity": 106,
      "chip": "ym2612"
    },
    {
      "channel": 3,
      "note": 81,
      "start": 25.5526,
      "duration": 0.0654,
      "velocity": 106,
      "chip": "ym2612"
    },
    {
      "channel": 1,
      "note": 66,
      "start": 25.7682,
      "duration": 0.0198,
      "velocity": 101,
      "chip": "ym2612"
    },
    {
      "channel": 2,
      "note": 78,
      "start": 25.7688,
      "duration": 0.1354,
      "velocity": 106,
      "chip": "ym2612"
    },
    {
      "channel": 3,
      "note": 81,
      "start": 25.7695,
      "duration": 0.1354,
      "velocity": 106,
      "chip": "ym2612"
    },
    {
      "channel": 1,
      "note": 62,
      "start": 25.9041,
      "duration": 0.0995,
      "velocity": 101,
      "chip": "ym2612"
    },
    {
      "channel": 2,
      "note": 71,
      "start": 25.9048,
      "duration": 0.2359,
      "velocity": 106,
      "chip": "ym2612"
    },
    {
      "channel": 3,
      "note": 71,
      "start": 25.9054,
      "duration": 0.2359,
      "velocity": 106,
      "chip": "ym2612"
    },
    {
      "channel": 1,
      "note": 64,
      "start": 26.1404,
      "duration": 0.0153,
      "velocity": 101,
      "chip": "ym2612"
    },
    {
      "channel": 2,
      "note": 76,
      "start": 26.1412,
      "duration": 0.0149,
      "velocity": 106,
      "chip": "ym2612"
    },
    {
      "channel": 3,
      "note": 80,
      "start": 26.1419,
      "duration": 0.0145,
      "velocity": 106,
      "chip": "ym2612"
    },
    {
      "channel": 0,
      "note": 76,
      "start": 26.1901,
      "duration": 0.0828,
      "velocity": 106,
      "chip": "ym2612"
    },
    {
      "channel": 0,
      "note": 78,
      "start": 26.2735,
      "duration": 0.066,
      "velocity": 106,
      "chip": "ym2612"
    },
    {
      "channel": 1,
      "note": 64,
      "start": 26.2741,
      "duration": 0.0657,
      "velocity": 101,
      "chip": "ym2612"
    },
    {
      "channel": 2,
      "note": 71,
      "start": 26.2747,
      "duration": 0.0654,
      "velocity": 106,
      "chip": "ym2612"
    },
    {
      "channel": 3,
      "note": 71,
      "start": 26.2754,
      "duration": 0.065,
      "velocity": 106,
      "chip": "ym2612"
    },
    {
      "channel": 4,
      "note": 76,
      "start": 26.3571,
      "duration": 0.0836,
      "velocity": 106,
      "chip": "ym2612"
    },
    {
      "channel": 0,
      "note": 76,
      "start": 26.4235,
      "duration": 0.0664,
      "velocity": 106,
      "chip": "ym2612"
    },
    {
      "channel": 1,
      "note": 64,
      "start": 26.4241,
      "duration": 0.0665,
      "velocity": 101,
      "chip": "ym2612"
    },
    {
      "channel": 2,
      "note": 76,
      "start": 26.4247,
      "duration": 0.0662,
      "velocity": 106,
      "chip": "ym2612"
    },
    {
      "channel": 3,
      "note": 80,
      "start": 26.4254,
      "duration": 0.0658,
      "velocity": 106,
      "chip": "ym2612"
    },
    {
      "channel": 4,
      "note": 78,
      "start": 26.4412,
      "duration": 0.0544,
      "velocity": 106,
      "chip": "ym2612"
    },
    {
      "channel": 0,
      "note": 78,
      "start": 26.4905,
      "duration": 0.0149,
      "velocity": 106,
      "chip": "ym2612"
    },
    {
      "channel": 4,
      "note": 76,
      "start": 26.51,
      "duration": 0.0668,
      "velocity": 106,
      "chip": "ym2612"
    },
    {
      "channel": 0,
      "note": 76,
      "start": 26.5596,
      "duration": 0.066,
      "velocity": 106,
      "chip": "ym2612"
    },
    {
      "channel": 1,
      "note": 64,
      "start": 26.5603,
      "duration": 0.0657,
      "velocity": 101,
      "chip": "ym2612"
    },
    {
      "channel": 2,
      "note": 71,
      "start": 26.5609,
      "duration": 0.0657,
      "velocity": 106,
      "chip": "ym2612"
    },
    {
      "channel": 3,
      "note": 71,
      "start": 26.5615,
      "duration": 0.0657,
      "velocity": 106,
      "chip": "ym2612"
    },
    {
      "channel": 4,
      "note": 78,
      "start": 26.5774,
      "duration": 0.0825,
      "velocity": 106,
      "chip": "ym2612"
    },
    {
      "channel": 1,
      "note": 64,
      "start": 26.6265,
      "duration": 0.0826,
      "velocity": 101,
      "chip": "ym2612"
    },
    {
      "channel": 2,
      "note": 76,
      "start": 26.6271,
      "duration": 0.0822,
      "velocity": 106,
      "chip": "ym2612"
    },
    {
      "channel": 3,
      "note": 80,
      "start": 26.6278,
      "duration": 0.0819,
      "velocity": 106,
      "chip": "ym2612"
    },
    {
      "channel": 4,
      "note": 76,
      "start": 26.7266,
      "duration": 0.0663,
      "velocity": 106,
      "chip": "ym2612"
    },
    {
      "channel": 0,
      "note": 77,
      "start": 26.7763,
      "duration": 0.219,
      "velocity": 106,
      "chip": "ym2612"
    },
    {
      "channel": 1,
      "note": 64,
      "start": 26.86,
      "duration": 0.0176,
      "velocity": 101,
      "chip": "ym2612"
    },
    {
      "channel": 2,
      "note": 76,
      "start": 26.8607,
      "duration": 0.0141,
      "velocity": 106,
      "chip": "ym2612"
    },
    {
      "channel": 3,
      "note": 80,
      "start": 26.8613,
      "duration": 0.0138,
      "velocity": 106,
      "chip": "ym2612"
    },
    {
      "channel": 4,
      "note": 77,
      "start": 26.8787,
      "duration": 0.2836,
      "velocity": 106,
      "chip": "ym2612"
    },
    {
      "channel": 0,
      "note": 76,
      "start": 26.9959,
      "duration": 0.066,
      "velocity": 106,
      "chip": "ym2612"
    },
    {
      "channel": 1,
      "note": 59,
      "start": 26.9966,
      "duration": 0.0989,
      "velocity": 101,
      "chip": "ym2612"
    },
    {
      "channel": 4,
      "note": 76,
      "start": 27.1628,
      "duration": 0.0544,
      "velocity": 106,
      "chip": "ym2612"
    },
    {
      "channel": 1,
      "note": 64,
      "start": 27.2128,
      "duration": 0.0188,
      "velocity": 101,
      "chip": "ym2612"
    },
    {
      "channel": 1,
      "note": 59,
      "start": 27.3653,
      "duration": 0.0829,
      "velocity": 101,
      "chip": "ym2612"
    },
    {
      "channel": 2,
      "note": 71,
      "start": 27.366,
      "duration": 0.1323,
      "velocity": 106,
      "chip": "ym2612"
    },
    {
      "channel": 3,
      "note": 71,
      "start": 27.3666,
      "duration": 0.1319,
      "velocity": 106,
      "chip": "ym2612"
    },
    {
      "channel": 1,
      "note": 64,
      "start": 27.5823,
      "duration": 0.0137,
      "velocity": 101,
      "chip": "ym2612"
    },
    {
      "channel": 2,
      "note": 76,
      "start": 27.5829,
      "duration": 0.0133,
      "velocity": 106,
      "chip": "ym2612"
    },
    {
      "channel": 3,
      "note": 80,
      "start": 27.5836,
      "duration": 0.013,
      "velocity": 106,
      "chip": "ym2612"
    },
    {
      "channel": 0,
      "note": 76,
      "start": 27.6516,
      "duration": 0.066,
      "velocity": 106,
      "chip": "ym2612"
    },
    {
      "channel": 0,
      "note": 78,
      "start": 27.7183,
      "duration": 0.0827,
      "velocity": 106,
      "chip": "ym2612"
    },
    {
      "channel": 1,
      "note": 64,
      "start": 27.7189,
      "duration": 0.0824,
      "velocity": 101,
      "chip": "ym2612"
    },
    {
      "channel": 2,
      "note": 71,
      "start": 27.7195,
      "duration": 0.0821,
      "velocity": 106,
      "chip": "ym2612"
    },
    {
      "channel": 3,
      "note": 71,
      "start": 27.7202,
      "duration": 0.0817,
      "velocity": 106,
      "chip": "ym2612"
    },
    {
      "channel": 4,
      "note": 76,
      "start": 27.8185,
      "duration": 0.0669,
      "velocity": 106,
      "chip": "ym2612"
    },
    {
      "channel": 0,
      "note": 76,
      "start": 27.8683,
      "duration": 0.0829,
      "velocity": 106,
      "chip": "ym2612"
    },
    {
      "channel": 1,
      "note": 64,
      "start": 27.8689,
      "duration": 0.083,
      "velocity": 101,
      "chip": "ym2612"
    },
    {
      "channel": 2,
      "note": 76,
      "start": 27.8695,
      "duration": 0.0827,
      "velocity": 106,
      "chip": "ym2612"
    },
    {
      "channel": 3,
      "note": 80,
      "start": 27.8702,
      "duration": 0.0823,
      "velocity": 106,
      "chip": "ym2612"
    },
    {
      "channel": 4,
      "note": 78,
      "start": 27.886,
      "duration": 0.071,
      "velocity": 106,
      "chip": "ym2612"
    },
    {
      "channel": 0,
      "note": 78,
      "start": 27.9518,
      "duration": 0.0124,
      "velocity": 106,
      "chip": "ym2612"
    },
    {
      "channel": 4,
      "note": 76,
      "start": 27.9675,
      "duration": 0.0541,
      "velocity": 106,
      "chip": "ym2612"
    },
    {
      "channel": 0,
      "note": 76,
      "start": 28.0043,
      "duration": 0.0828,
      "velocity": 106,
      "chip": "ym2612"
    },
    {
      "channel": 1,
      "note": 64,
      "start": 28.005,
      "duration": 0.0824,
      "velocity": 101,
      "chip": "ym2612"
    },
    {
      "channel": 2,
      "note": 71,
      "start": 28.0057,
      "duration": 0.0824,
      "velocity": 106,
      "chip": "ym2612"
    },
    {
      "channel": 3,
      "note": 71,
      "start": 28.0063,
      "duration": 0.0824,
      "velocity": 106,
      "chip": "ym2612"
    },
    {
      "channel": 4,
      "note": 78,
      "start": 28.0222,
      "duration": 0.0825,
      "velocity": 106,
      "chip": "ym2612"
    },
    {
      "channel": 1,
      "note": 64,
      "start": 28.0879,
      "duration": 0.066,
      "velocity": 101,
      "chip": "ym2612"
    },
    {
      "channel": 2,
      "note": 76,
      "start": 28.0886,
      "duration": 0.0656,
      "velocity": 106,
      "chip": "ym2612"
    },
    {
      "channel": 3,
      "note": 80,
      "start": 28.0892,
      "duration": 0.0653,
      "velocity": 106,
      "chip": "ym2612"
    },
    {
      "channel": 4,
      "note": 76,
      "start": 28.1713,
      "duration": 0.083,
      "velocity": 106,
      "chip": "ym2612"
    },
    {
      "channel": 0,
      "note": 80,
      "start": 28.2377,
      "duration": 0.2023,
      "velocity": 106,
      "chip": "ym2612"
    },
    {
      "channel": 1,
      "note": 64,
      "start": 28.3048,
      "duration": 0.0208,
      "velocity": 101,
      "chip": "ym2612"
    },
    {
      "channel": 2,
      "note": 71,
      "start": 28.3054,
      "duration": 0.0684,
      "velocity": 106,
      "chip": "ym2612"
    },
    {
      "channel": 3,
      "note": 71,
      "start": 28.3061,
      "duration": 0.068,
      "velocity": 106,
      "chip": "ym2612"
    },
    {
      "channel": 4,
      "note": 80,
      "start": 28.327,
      "duration": 0.2801,
      "velocity": 106,
      "chip": "ym2612"
    },
    {
      "channel": 0,
      "note": 80,
      "start": 28.4407,
      "duration": 0.0828,
      "velocity": 106,
      "chip": "ym2612"
    },
    {
      "channel": 1,
      "note": 59,
      "start": 28.4413,
      "duration": 0.0989,
      "velocity": 101,
      "chip": "ym2612"
    },
    {
      "channel": 2,
      "note": 76,
      "start": 28.442,
      "duration": 0.082,
      "velocity": 106,
      "chip": "ym2612"
    },
    {
      "channel": 3,
      "note": 80,
      "start": 28.4426,
      "duration": 0.0817,
      "velocity": 106,
      "chip": "ym2612"
    },
    {
      "channel": 4,
      "note": 80,
      "start": 28.6076,
      "duration": 0.0736,
      "velocity": 106,
      "chip": "ym2612"
    },
    {
      "channel": 0,
      "note": 78,
      "start": 28.6742,
      "duration": 0.0687,
      "velocity": 106,
      "chip": "ym2612"
    },
    {
      "channel": 1,
      "note": 64,
      "start": 28.6749,
      "duration": 0.018,
      "velocity": 101,
      "chip": "ym2612"
    },
    {
      "channel": 2,
      "note": 76,
      "start": 28.6755,
      "duration": 0.1355,
      "velocity": 106,
      "chip": "ym2612"
    },
    {
      "channel": 3,
      "note": 80,
      "start": 28.6761,
      "duration": 0.1355,
      "velocity": 106,
      "chip": "ym2612"
    },
    {
      "channel": 4,
      "note": 78,
      "start": 28.7609,
      "duration": 0.1498,
      "velocity": 106,
      "chip": "ym2612"
    },
    {
      "channel": 0,
      "note": 76,
      "start": 28.8102,
      "duration": 0.1494,
      "velocity": 106,
      "chip": "ym2612"
    },
    {
      "channel": 1,
      "note": 59,
      "start": 28.8109,
      "duration": 0.099,
      "velocity": 101,
      "chip": "ym2612"
    },
    {
      "channel": 2,
      "note": 71,
      "start": 28.8115,
      "duration": 0.2165,
      "velocity": 106,
      "chip": "ym2612"
    },
    {
      "channel": 3,
      "note": 71,
      "start": 28.8121,
      "duration": 0.2165,
      "velocity": 106,
      "chip": "ym2612"
    },
    {
      "channel": 4,
      "note": 76,
      "start": 28.9776,
      "duration": 0.0728,
      "velocity": 106,
      "chip": "ym2612"
    },
    {
      "channel": 0,
      "note": 80,
      "start": 29.0271,
      "duration": 0.2853,
      "velocity": 106,
      "chip": "ym2612"
    },
    {
      "channel": 1,
      "note": 62,
      "start": 29.0278,
      "duration": 0.0191,
      "velocity": 101,
      "chip": "ym2612"
    },
    {
      "channel": 2,
      "note": 74,
      "start": 29.0284,
      "duration": 0.0188,
      "velocity": 106,
      "chip": "ym2612"
    },
    {
      "channel": 3,
      "note": 78,
      "start": 29.0291,
      "duration": 0.0183,
      "velocity": 106,
      "chip": "ym2612"
    },
    {
      "channel": 4,
      "note": 80,
      "start": 29.1136,
      "duration": 0.2977,
      "velocity": 106,
      "chip": "ym2612"
    },
    {
      "channel": 1,
      "note": 62,
      "start": 29.18,
      "duration": 0.0661,
      "velocity": 101,
      "chip": "ym2612"
    },
    {
      "channel": 2,
      "note": 71,
      "start": 29.1806,
      "duration": 0.0658,
      "velocity": 106,
      "chip": "ym2612"
    },
    {
      "channel": 3,
      "note": 71,
      "start": 29.1812,
      "duration": 0.0654,
      "velocity": 106,
      "chip": "ym2612"
    },
    {
      "channel": 0,
      "note": 83,
      "start": 29.3131,
      "duration": 0.0829,
      "velocity": 106,
      "chip": "ym2612"
    },
    {
      "channel": 1,
      "note": 62,
      "start": 29.3137,
      "duration": 0.0826,
      "velocity": 101,
      "chip": "ym2612"
    },
    {
      "channel": 2,
      "note": 74,
      "start": 29.3144,
      "duration": 0.0823,
      "velocity": 106,
      "chip": "ym2612"
    },
    {
      "channel": 3,
      "note": 78,
      "start": 29.315,
      "duration": 0.082,
      "velocity": 106,
      "chip": "ym2612"
    },
    {
      "channel": 4,
      "note": 83,
      "start": 29.4118,
      "duration": 0.071,
      "velocity": 106,
      "chip": "ym2612"
    },
    {
      "channel": 1,
      "note": 62,
      "start": 29.4658,
      "duration": 0.0669,
      "velocity": 101,
      "chip": "ym2612"
    },
    {
      "channel": 2,
      "note": 71,
      "start": 29.4664,
      "duration": 0.0669,
      "velocity": 106,
      "chip": "ym2612"
    },
    {
      "channel": 3,
      "note": 71,
      "start": 29.4671,
      "duration": 0.0668,
      "velocity": 106,
      "chip": "ym2612"
    },
    {
      "channel": 0,
      "note": 78,
      "start": 29.5325,
      "duration": 0.5858,
      "velocity": 106,
      "chip": "ym2612"
    },
    {
      "channel": 1,
      "note": 62,
      "start": 29.5332,
      "duration": 0.0824,
      "velocity": 101,
      "chip": "ym2612"
    },
    {
      "channel": 2,
      "note": 74,
      "start": 29.5338,
      "duration": 0.0821,
      "velocity": 106,
      "chip": "ym2612"
    },
    {
      "channel": 3,
      "note": 78,
      "start": 29.5344,
      "duration": 0.0817,
      "velocity": 106,
      "chip": "ym2612"
    },
    {
      "channel": 4,
      "note": 78,
      "start": 29.6997,
      "duration": 0.505,
      "velocity": 106,
      "chip": "ym2612"
    },
    {
      "channel": 1,
      "note": 62,
      "start": 29.7496,
      "duration": 0.022,
      "velocity": 101,
      "chip": "ym2612"
    },
    {
      "channel": 2,
      "note": 74,
      "start": 29.7502,
      "duration": 0.0183,
      "velocity": 106,
      "chip": "ym2612"
    },
    {
      "channel": 3,
      "note": 78,
      "start": 29.7509,
      "duration": 0.018,
      "velocity": 106,
      "chip": "ym2612"
    },
    {
      "channel": 1,
      "note": 57,
      "start": 29.9023,
      "duration": 0.0829,
      "velocity": 101,
      "chip": "ym2612"
    },
    {
      "channel": 1,
      "note": 62,
      "start": 30.1191,
      "duration": 0.0186,
      "velocity": 101,
      "chip": "ym2612"
    },
    {
      "channel": 0,
      "note": 74,
      "start": 30.2549,
      "duration": 0.0828,
      "velocity": 106,
      "chip": "ym2612"
    },
    {
      "channel": 1,
      "note": 57,
      "start": 30.2556,
      "duration": 0.0989,
      "velocity": 101,
      "chip": "ym2612"
    },
    {
      "channel": 2,
      "note": 71,
      "start": 30.2562,
      "duration": 0.1483,
      "velocity": 106,
      "chip": "ym2612"
    },
    {
      "channel": 3,
      "note": 71,
      "start": 30.2568,
      "duration": 0.1479,
      "velocity": 106,
      "chip": "ym2612"
    },
    {
      "channel": 4,
      "note": 74,
      "start": 30.4219,
      "duration": 0.0736,
      "velocity": 106,
      "chip": "ym2612"
    },
    {
      "channel": 0,
      "note": 74,
      "start": 30.4885,
      "duration": 0.1354,
      "velocity": 106,
      "chip": "ym2612"
    },
    {
      "channel": 1,
      "note": 62,
      "start": 30.4892,
      "duration": 0.0149,
      "velocity": 101,
      "chip": "ym2612"
    },
    {
      "channel": 2,
      "note": 74,
      "start": 30.4898,
      "duration": 0.0146,
      "velocity": 106,
      "chip": "ym2612"
    },
    {
      "channel": 3,
      "note": 78,
      "start": 30.4905,
      "duration": 0.0141,
      "velocity": 106,
      "chip": "ym2612"
    },
    {
      "channel": 4,
      "note": 74,
      "start": 30.575,
      "duration": 0.2167,
      "velocity": 106,
      "chip": "ym2612"
    },
    {
      "channel": 0,
      "note": 73,
      "start": 30.6245,
      "duration": 0.1494,
      "velocity": 106,
      "chip": "ym2612"
    },
    {
      "channel": 1,
      "note": 62,
      "start": 30.6251,
      "duration": 0.0657,
      "velocity": 101,
      "chip": "ym2612"
    },
    {
      "channel": 2,
      "note": 71,
      "start": 30.6258,
      "duration": 0.0653,
      "velocity": 106,
      "chip": "ym2612"
    },
    {
      "channel": 3,
      "note": 71,
      "start": 30.6264,
      "duration": 0.065,
      "velocity": 106,
      "chip": "ym2612"
    },
    {
      "channel": 0,
      "note": 74,
      "start": 30.7745,
      "duration": 0.0663,
      "velocity": 106,
      "chip": "ym2612"
    },
    {
      "channel": 1,
      "note": 62,
      "start": 30.7751,
      "duration": 0.066,
      "velocity": 101,
      "chip": "ym2612"
    },
    {
      "channel": 2,
      "note": 74,
      "start": 30.7758,
      "duration": 0.0656,
      "velocity": 106,
      "chip": "ym2612"
    },
    {
      "channel": 3,
      "note": 78,
      "start": 30.7764,
      "duration": 0.0653,
      "velocity": 106,
      "chip": "ym2612"
    },
    {
      "channel": 4,
      "note": 73,
      "start": 30.7923,
      "duration": 0.068,
      "velocity": 106,
      "chip": "ym2612"
    },
    {
      "channel": 4,
      "note": 74,
      "start": 30.8609,
      "duration": 0.0669,
      "velocity": 106,
      "chip": "ym2612"
    },
    {
      "channel": 0,
      "note": 73,
      "start": 30.9106,
      "duration": 0.0827,
      "velocity": 106,
      "chip": "ym2612"
    },
    {
      "channel": 1,
      "note": 62,
      "start": 30.9112,
      "duration": 0.0828,
      "velocity": 101,
      "chip": "ym2612"
    },
    {
      "channel": 2,
      "note": 71,
      "start": 30.9119,
      "duration": 0.0828,
      "velocity": 106,
      "chip": "ym2612"
    },
    {
      "channel": 3,
      "note": 71,
      "start": 30.9125,
      "duration": 0.0828,
      "velocity": 106,
      "chip": "ym2612"
    },
    {
      "channel": 0,
      "note": 71,
      "start": 30.9939,
      "duration": 0.7219,
      "velocity": 106,
      "chip": "ym2612"
    },
    {
      "channel": 1,
      "note": 62,
      "start": 30.9946,
      "duration": 0.0657,
      "velocity": 101,
      "chip": "ym2612"
    },
    {
      "channel": 2,
      "note": 74,
      "start": 30.9952,
      "duration": 0.0654,
      "velocity": 106,
      "chip": "ym2612"
    },
    {
      "channel": 3,
      "note": 78,
      "start": 30.9959,
      "duration": 0.065,
      "velocity": 106,
      "chip": "ym2612"
    },
    {
      "channel": 4,
      "note": 73,
      "start": 31.0777,
      "duration": 0.0828,
      "velocity": 106,
      "chip": "ym2612"
    },
    {
      "channel": 4,
      "note": 71,
      "start": 31.1611,
      "duration": 0.7221,
      "velocity": 106,
      "chip": "ym2612"
    },
    {
      "channel": 1,
      "note": 62,
      "start": 31.211,
      "duration": 0.0187,
      "velocity": 101,
      "chip": "ym2612"
    },
    {
      "channel": 2,
      "note": 71,
      "start": 31.2116,
      "duration": 0.0683,
      "velocity": 106,
      "chip": "ym2612"
    },
    {
      "channel": 3,
      "note": 71,
      "start": 31.2123,
      "duration": 0.0679,
      "velocity": 106,
      "chip": "ym2612"
    },
    {
      "channel": 1,
      "note": 57,
      "start": 31.3471,
      "duration": 0.0996,
      "velocity": 101,
      "chip": "ym2612"
    },
    {
      "channel": 2,
      "note": 78,
      "start": 31.3477,
      "duration": 0.0826,
      "velocity": 106,
      "chip": "ym2612"
    },
    {
      "channel": 3,
      "note": 81,
      "start": 31.3483,
      "duration": 0.0822,
      "velocity": 106,
      "chip": "ym2612"
    },
    {
      "channel": 1,
      "note": 62,
      "start": 31.5641,
      "duration": 0.0227,
      "velocity": 101,
      "chip": "ym2612"
    },
    {
      "channel": 2,
      "note": 78,
      "start": 31.5647,
      "duration": 0.1521,
      "velocity": 106,
      "chip": "ym2612"
    },
    {
      "channel": 3,
      "note": 81,
      "start": 31.5653,
      "duration": 0.1521,
      "velocity": 106,
      "chip": "ym2612"
    },
    {
      "channel": 1,
      "note": 57,
      "start": 31.7167,
      "duration": 0.0826,
      "velocity": 101,
      "chip": "ym2612"
    },
    {
      "channel": 2,
      "note": 71,
      "start": 31.7173,
      "duration": 0.2165,
      "velocity": 106,
      "chip": "ym2612"
    },
    {
      "channel": 3,
      "note": 71,
      "start": 31.7179,
      "duration": 0.2166,
      "velocity": 106,
      "chip": "ym2612"
    },
    {
      "channel": 1,
      "note": 64,
      "start": 31.9336,
      "duration": 0.0167,
      "velocity": 101,
      "chip": "ym2612"
    },
    {
      "channel": 2,
      "note": 76,
      "start": 31.9344,
      "duration": 0.0163,
      "velocity": 106,
      "chip": "ym2612"
    },
    {
      "channel": 3,
      "note": 80,
      "start": 31.935,
      "duration": 0.0159,
      "velocity": 106,
      "chip": "ym2612"
    },
    {
      "channel": 0,
      "note": 76,
      "start": 32.0027,
      "duration": 0.066,
      "velocity": 106,
      "chip": "ym2612"
    },
    {
      "channel": 0,
      "note": 78,
      "start": 32.0693,
      "duration": 0.0827,
      "velocity": 106,
      "chip": "ym2612"
    },
    {
      "channel": 1,
      "note": 64,
      "start": 32.07,
      "duration": 0.0824,
      "velocity": 101,
      "chip": "ym2612"
    },
    {
      "channel": 2,
      "note": 71,
      "start": 32.0706,
      "duration": 0.0821,
      "velocity": 106,
      "chip": "ym2612"
    },
    {
      "channel": 3,
      "note": 71,
      "start": 32.0712,
      "duration": 0.0817,
      "velocity": 106,
      "chip": "ym2612"
    },
    {
      "channel": 4,
      "note": 76,
      "start": 32.1696,
      "duration": 0.0669,
      "velocity": 106,
      "chip": "ym2612"
    },
    {
      "channel": 0,
      "note": 76,
      "start": 32.2193,
      "duration": 0.0829,
      "velocity": 106,
      "chip": "ym2612"
    },
    {
      "channel": 1,
      "note": 64,
      "start": 32.2199,
      "duration": 0.0831,
      "velocity": 101,
      "chip": "ym2612"
    },
    {
      "channel": 2,
      "note": 76,
      "start": 32.2206,
      "duration": 0.0827,
      "velocity": 106,
      "chip": "ym2612"
    },
    {
      "channel": 3,
      "note": 80,
      "start": 32.2212,
      "duration": 0.0824,
      "velocity": 106,
      "chip": "ym2612"
    },
    {
      "channel": 4,
      "note": 78,
      "start": 32.2371,
      "duration": 0.071,
      "velocity": 106,
      "chip": "ym2612"
    },
    {
      "channel": 0,
      "note": 78,
      "start": 32.3029,
      "duration": 0.0125,
      "velocity": 106,
      "chip": "ym2612"
    },
    {
      "channel": 4,
      "note": 76,
      "start": 32.3187,
      "duration": 0.0707,
      "velocity": 106,
      "chip": "ym2612"
    },
    {
      "channel": 0,
      "note": 76,
      "start": 32.3722,
      "duration": 0.066,
      "velocity": 106,
      "chip": "ym2612"
    },
    {
      "channel": 1,
      "note": 64,
      "start": 32.3728,
      "duration": 0.0657,
      "velocity": 101,
      "chip": "ym2612"
    },
    {
      "channel": 2,
      "note": 71,
      "start": 32.3734,
      "duration": 0.0657,
      "velocity": 106,
      "chip": "ym2612"
    },
    {
      "channel": 3,
      "note": 71,
      "start": 32.3741,
      "duration": 0.0657,
      "velocity": 106,
      "chip": "ym2612"
    },
    {
      "channel": 4,
      "note": 78,
      "start": 32.39,
      "duration": 0.0657,
      "velocity": 106,
      "chip": "ym2612"
    },
    {
      "channel": 1,
      "note": 64,
      "start": 32.439,
      "duration": 0.066,
      "velocity": 101,
      "chip": "ym2612"
    },
    {
      "channel": 2,
      "note": 76,
      "start": 32.4397,
      "duration": 0.0656,
      "velocity": 106,
      "chip": "ym2612"
    },
    {
      "channel": 3,
      "note": 80,
      "start": 32.4403,
      "duration": 0.0653,
      "velocity": 106,
      "chip": "ym2612"
    },
    {
      "channel": 4,
      "note": 76,
      "start": 32.5391,
      "duration": 0.0663,
      "velocity": 106,
      "chip": "ym2612"
    },
    {
      "channel": 0,
      "note": 77,
      "start": 32.5888,
      "duration": 0.2188,
      "velocity": 106,
      "chip": "ym2612"
    },
    {
      "channel": 1,
      "note": 64,
      "start": 32.6559,
      "duration": 0.0207,
      "velocity": 101,
      "chip": "ym2612"
    },
    {
      "channel": 2,
      "note": 76,
      "start": 32.6565,
      "duration": 0.0172,
      "velocity": 106,
      "chip": "ym2612"
    },
    {
      "channel": 3,
      "note": 80,
      "start": 32.6571,
      "duration": 0.0169,
      "velocity": 106,
      "chip": "ym2612"
    },
    {
      "channel": 4,
      "note": 77,
      "start": 32.6776,
      "duration": 0.2971,
      "velocity": 106,
      "chip": "ym2612"
    },
    {
      "channel": 0,
      "note": 76,
      "start": 32.8083,
      "duration": 0.066,
      "velocity": 106,
      "chip": "ym2612"
    },
    {
      "channel": 1,
      "note": 59,
      "start": 32.8089,
      "duration": 0.0822,
      "velocity": 101,
      "chip": "ym2612"
    },
    {
      "channel": 4,
      "note": 76,
      "start": 32.9752,
      "duration": 0.0544,
      "velocity": 106,
      "chip": "ym2612"
    },
    {
      "channel": 1,
      "note": 64,
      "start": 33.0252,
      "duration": 0.0141,
      "velocity": 101,
      "chip": "ym2612"
    },
    {
      "channel": 1,
      "note": 59,
      "start": 33.161,
      "duration": 0.0996,
      "velocity": 101,
      "chip": "ym2612"
    },
    {
      "channel": 2,
      "note": 71,
      "start": 33.1617,
      "duration": 0.149,
      "velocity": 106,
      "chip": "ym2612"
    },
    {
      "channel": 3,
      "note": 71,
      "start": 33.1624,
      "duration": 0.1485,
      "velocity": 106,
      "chip": "ym2612"
    },
    {
      "channel": 1,
      "note": 64,
      "start": 33.378,
      "duration": 0.0165,
      "velocity": 101,
      "chip": "ym2612"
    },
    {
      "channel": 2,
      "note": 76,
      "start": 33.3787,
      "duration": 0.0161,
      "velocity": 106,
      "chip": "ym2612"
    },
    {
      "channel": 3,
      "note": 80,
      "start": 33.3793,
      "duration": 0.0158,
      "velocity": 106,
      "chip": "ym2612"
    },
    {
      "channel": 0,
      "note": 76,
      "start": 33.4472,
      "duration": 0.0827,
      "velocity": 106,
      "chip": "ym2612"
    },
    {
      "channel": 0,
      "note": 78,
      "start": 33.5305,
      "duration": 0.0661,
      "velocity": 106,
      "chip": "ym2612"
    },
    {
      "channel": 1,
      "note": 64,
      "start": 33.5312,
      "duration": 0.0657,
      "velocity": 101,
      "chip": "ym2612"
    },
    {
      "channel": 2,
      "note": 71,
      "start": 33.5318,
      "duration": 0.0654,
      "velocity": 106,
      "chip": "ym2612"
    },
    {
      "channel": 3,
      "note": 71,
      "start": 33.5324,
      "duration": 0.065,
      "velocity": 106,
      "chip": "ym2612"
    },
    {
      "channel": 4,
      "note": 76,
      "start": 33.6141,
      "duration": 0.0836,
      "velocity": 106,
      "chip": "ym2612"
    },
    {
      "channel": 0,
      "note": 76,
      "start": 33.6805,
      "duration": 0.0663,
      "velocity": 106,
      "chip": "ym2612"
    },
    {
      "channel": 1,
      "note": 64,
      "start": 33.6811,
      "duration": 0.0664,
      "velocity": 101,
      "chip": "ym2612"
    },
    {
      "channel": 2,
      "note": 76,
      "start": 33.6818,
      "duration": 0.066,
      "velocity": 106,
      "chip": "ym2612"
    },
    {
      "channel": 3,
      "note": 80,
      "start": 33.6824,
      "duration": 0.0657,
      "velocity": 106,
      "chip": "ym2612"
    },
    {
      "channel": 4,
      "note": 78,
      "start": 33.6983,
      "duration": 0.0544,
      "velocity": 106,
      "chip": "ym2612"
    },
    {
      "channel": 0,
      "note": 78,
      "start": 33.7474,
      "duration": 0.0124,
      "velocity": 106,
      "chip": "ym2612"
    },
    {
      "channel": 4,
      "note": 76,
      "start": 33.767,
      "duration": 0.0669,
      "velocity": 106,
      "chip": "ym2612"
    },
    {
      "channel": 0,
      "note": 76,
      "start": 33.8167,
      "duration": 0.066,
      "velocity": 106,
      "chip": "ym2612"
    },
    {
      "channel": 1,
      "note": 64,
      "start": 33.8173,
      "duration": 0.0657,
      "velocity": 101,
      "chip": "ym2612"
    },
    {
      "channel": 2,
      "note": 71,
      "start": 33.818,
      "duration": 0.0657,
      "velocity": 106,
      "chip": "ym2612"
    },
    {
      "channel": 3,
      "note": 71,
      "start": 33.8186,
      "duration": 0.0657,
      "velocity": 106,
      "chip": "ym2612"
    },
    {
      "channel": 4,
      "note": 78,
      "start": 33.8345,
      "duration": 0.0658,
      "velocity": 106,
      "chip": "ym2612"
    },
    {
      "channel": 1,
      "note": 64,
      "start": 33.8836,
      "duration": 0.0826,
      "velocity": 101,
      "chip": "ym2612"
    },
    {
      "channel": 2,
      "note": 76,
      "start": 33.8842,
      "duration": 0.0822,
      "velocity": 106,
      "chip": "ym2612"
    },
    {
      "channel": 3,
      "note": 80,
      "start": 33.8849,
      "duration": 0.0819,
      "velocity": 106,
      "chip": "ym2612"
    },
    {
      "channel": 4,
      "note": 76,
      "start": 33.9836,
      "duration": 0.0663,
      "velocity": 106,
      "chip": "ym2612"
    },
    {
      "channel": 0,
      "note": 80,
      "start": 34.0334,
      "duration": 0.2188,
      "velocity": 106,
      "chip": "ym2612"
    },
    {
      "channel": 1,
      "note": 64,
      "start": 34.1171,
      "duration": 0.0174,
      "velocity": 101,
      "chip": "ym2612"
    },
    {
      "channel": 2,
      "note": 71,
      "start": 34.1177,
      "duration": 0.0681,
      "velocity": 106,
      "chip": "ym2612"
    },
    {
      "channel": 3,
      "note": 71,
      "start": 34.1184,
      "duration": 0.0678,
      "velocity": 106,
      "chip": "ym2612"
    },
    {
      "channel": 4,
      "note": 80,
      "start": 34.136,
      "duration": 0.2832,
      "velocity": 106,
      "chip": "ym2612"
    },
    {
      "channel": 0,
      "note": 80,
      "start": 34.2528,
      "duration": 0.0661,
      "velocity": 106,
      "chip": "ym2612"
    },
    {
      "channel": 1,
      "note": 59,
      "start": 34.2534,
      "duration": 0.0822,
      "velocity": 101,
      "chip": "ym2612"
    },
    {
      "channel": 2,
      "note": 76,
      "start": 34.2541,
      "duration": 0.0653,
      "velocity": 106,
      "chip": "ym2612"
    },
    {
      "channel": 3,
      "note": 80,
      "start": 34.2547,
      "duration": 0.065,
      "velocity": 106,
      "chip": "ym2612"
    },
    {
      "channel": 4,
      "note": 80,
      "start": 34.4197,
      "duration": 0.0569,
      "velocity": 106,
      "chip": "ym2612"
    },
    {
      "channel": 0,
      "note": 78,
      "start": 34.4697,
      "duration": 0.0687,
      "velocity": 106,
      "chip": "ym2612"
    },
    {
      "channel": 1,
      "note": 64,
      "start": 34.4703,
      "duration": 0.0211,
      "velocity": 101,
      "chip": "ym2612"
    },
    {
      "channel": 2,
      "note": 76,
      "start": 34.4709,
      "duration": 0.1521,
      "velocity": 106,
      "chip": "ym2612"
    },
    {
      "channel": 3,
      "note": 80,
      "start": 34.4716,
      "duration": 0.152,
      "velocity": 106,
      "chip": "ym2612"
    },
    {
      "channel": 4,
      "note": 78,
      "start": 34.5562,
      "duration": 0.1499,
      "velocity": 106,
      "chip": "ym2612"
    },
    {
      "channel": 0,
      "note": 76,
      "start": 34.6223,
      "duration": 0.1327,
      "velocity": 106,
      "chip": "ym2612"
    },
    {
      "channel": 1,
      "note": 59,
      "start": 34.6229,
      "duration": 0.0824,
      "velocity": 101,
      "chip": "ym2612"
    },
    {
      "channel": 2,
      "note": 71,
      "start": 34.6235,
      "duration": 0.2165,
      "velocity": 106,
      "chip": "ym2612"
    },
    {
      "channel": 3,
      "note": 71,
      "start": 34.6242,
      "duration": 0.2165,
      "velocity": 106,
      "chip": "ym2612"
    },
    {
      "channel": 4,
      "note": 76,
      "start": 34.7896,
      "duration": 0.0691,
      "velocity": 106,
      "chip": "ym2612"
    },
    {
      "channel": 0,
      "note": 81,
      "start": 34.8392,
      "duration": 0.2187,
      "velocity": 106,
      "chip": "ym2612"
    },
    {
      "channel": 1,
      "note": 62,
      "start": 34.8398,
      "duration": 0.0153,
      "velocity": 101,
      "chip": "ym2612"
    },
    {
      "channel": 2,
      "note": 74,
      "start": 34.8405,
      "duration": 0.0149,
      "velocity": 106,
      "chip": "ym2612"
    },
    {
      "channel": 3,
      "note": 78,
      "start": 34.8412,
      "duration": 0.0146,
      "velocity": 106,
      "chip": "ym2612"
    },
    {
      "channel": 4,
      "note": 81,
      "start": 34.9257,
      "duration": 0.2735,
      "velocity": 106,
      "chip": "ym2612"
    },
    {
      "channel": 1,
      "note": 62,
      "start": 34.9754,
      "duration": 0.0828,
      "velocity": 101,
      "chip": "ym2612"
    },
    {
      "channel": 2,
      "note": 71,
      "start": 34.976,
      "duration": 0.0825,
      "velocity": 106,
      "chip": "ym2612"
    },
    {
      "channel": 3,
      "note": 71,
      "start": 34.9766,
      "duration": 0.0821,
      "velocity": 106,
      "chip": "ym2612"
    },
    {
      "channel": 0,
      "note": 83,
      "start": 35.1251,
      "duration": 0.0663,
      "velocity": 106,
      "chip": "ym2612"
    },
    {
      "channel": 1,
      "note": 62,
      "start": 35.1258,
      "duration": 0.066,
      "velocity": 101,
      "chip": "ym2612"
    },
    {
      "channel": 2,
      "note": 74,
      "start": 35.1264,
      "duration": 0.0656,
      "velocity": 106,
      "chip": "ym2612"
    },
    {
      "channel": 3,
      "note": 78,
      "start": 35.1271,
      "duration": 0.0653,
      "velocity": 106,
      "chip": "ym2612"
    },
    {
      "channel": 4,
      "note": 83,
      "start": 35.2115,
      "duration": 0.0668,
      "velocity": 106,
      "chip": "ym2612"
    },
    {
      "channel": 1,
      "note": 62,
      "start": 35.2612,
      "duration": 0.0835,
      "velocity": 101,
      "chip": "ym2612"
    },
    {
      "channel": 2,
      "note": 71,
      "start": 35.2618,
      "duration": 0.0835,
      "velocity": 106,
      "chip": "ym2612"
    },
    {
      "channel": 3,
      "note": 71,
      "start": 35.2625,
      "duration": 0.0835,
      "velocity": 106,
      "chip": "ym2612"
    },
    {
      "channel": 0,
      "note": 84,
      "start": 35.3446,
      "duration": 0.7219,
      "velocity": 106,
      "chip": "ym2612"
    },
    {
      "channel": 1,
      "note": 62,
      "start": 35.3452,
      "duration": 0.0657,
      "velocity": 101,
      "chip": "ym2612"
    },
    {
      "channel": 2,
      "note": 74,
      "start": 35.3459,
      "duration": 0.0654,
      "velocity": 106,
      "chip": "ym2612"
    },
    {
      "channel": 3,
      "note": 78,
      "start": 35.3465,
      "duration": 0.065,
      "velocity": 106,
      "chip": "ym2612"
    },
    {
      "channel": 4,
      "note": 84,
      "start": 35.5118,
      "duration": 0.7216,
      "velocity": 106,
      "chip": "ym2612"
    },
    {
      "channel": 1,
      "note": 62,
      "start": 35.5617,
      "duration": 0.0219,
      "velocity": 101,
      "chip": "ym2612"
    },
    {
      "channel": 2,
      "note": 74,
      "start": 35.5623,
      "duration": 0.0153,
      "velocity": 106,
      "chip": "ym2612"
    },
    {
      "channel": 3,
      "note": 78,
      "start": 35.5629,
      "duration": 0.015,
      "velocity": 106,
      "chip": "ym2612"
    },
    {
      "channel": 1,
      "note": 57,
      "start": 35.6977,
      "duration": 0.0996,
      "velocity": 101,
      "chip": "ym2612"
    },
    {
      "channel": 1,
      "note": 62,
      "start": 35.9313,
      "duration": 0.0167,
      "velocity": 101,
      "chip": "ym2612"
    },
    {
      "channel": 1,
      "note": 57,
      "start": 36.0672,
      "duration": 0.0826,
      "velocity": 101,
      "chip": "ym2612"
    },
    {
      "channel": 2,
      "note": 71,
      "start": 36.0679,
      "duration": 0.1487,
      "velocity": 106,
      "chip": "ym2612"
    },
    {
      "channel": 3,
      "note": 71,
      "start": 36.0685,
      "duration": 0.1483,
      "velocity": 106,
      "chip": "ym2612"
    },
    {
      "channel": 0,
      "note": 78,
      "start": 36.2839,
      "duration": 0.018,
      "velocity": 106,
      "chip": "ym2612"
    },
    {
      "channel": 1,
      "note": 62,
      "start": 36.2846,
      "duration": 0.018,
      "velocity": 101,
      "chip": "ym2612"
    },
    {
      "channel": 2,
      "note": 74,
      "start": 36.2852,
      "duration": 0.0177,
      "velocity": 106,
      "chip": "ym2612"
    },
    {
      "channel": 3,
      "note": 78,
      "start": 36.2859,
      "duration": 0.0173,
      "velocity": 106,
      "chip": "ym2612"
    },
    {
      "channel": 0,
      "note": 76,
      "start": 36.3025,
      "duration": 0.05,
      "velocity": 106,
      "chip": "ym2612"
    },
    {
      "channel": 0,
      "note": 78,
      "start": 36.3532,
      "duration": 0.0827,
      "velocity": 106,
      "chip": "ym2612"
    },
    {
      "channel": 4,
      "note": 78,
      "start": 36.3703,
      "duration": 0.0833,
      "velocity": 106,
      "chip": "ym2612"
    },
    {
      "channel": 0,
      "note": 80,
      "start": 36.4365,
      "duration": 0.066,
      "velocity": 106,
      "chip": "ym2612"
    },
    {
      "channel": 1,
      "note": 62,
      "start": 36.4371,
      "duration": 0.0662,
      "velocity": 101,
      "chip": "ym2612"
    },
    {
      "channel": 2,
      "note": 71,
      "start": 36.4378,
      "duration": 0.0658,
      "velocity": 106,
      "chip": "ym2612"
    },
    {
      "channel": 3,
      "note": 71,
      "start": 36.4384,
      "duration": 0.0655,
      "velocity": 106,
      "chip": "ym2612"
    },
    {
      "channel": 4,
      "note": 76,
      "start": 36.4542,
      "duration": 0.0655,
      "velocity": 106,
      "chip": "ym2612"
    },
    {
      "channel": 0,
      "note": 78,
      "start": 36.5032,
      "duration": 0.0661,
      "velocity": 106,
      "chip": "ym2612"
    },
    {
      "channel": 4,
      "note": 78,
      "start": 36.5203,
      "duration": 0.0834,
      "velocity": 106,
      "chip": "ym2612"
    },
    {
      "channel": 0,
      "note": 80,
      "start": 36.5698,
      "duration": 0.0829,
      "velocity": 106,
      "chip": "ym2612"
    },
    {
      "channel": 1,
      "note": 62,
      "start": 36.5705,
      "duration": 0.083,
      "velocity": 101,
      "chip": "ym2612"
    },
    {
      "channel": 2,
      "note": 74,
      "start": 36.5711,
      "duration": 0.0827,
      "velocity": 106,
      "chip": "ym2612"
    },
    {
      "channel": 3,
      "note": 78,
      "start": 36.5717,
      "duration": 0.0824,
      "velocity": 106,
      "chip": "ym2612"
    },
    {
      "channel": 4,
      "note": 80,
      "start": 36.6042,
      "duration": 0.0544,
      "velocity": 106,
      "chip": "ym2612"
    },
    {
      "channel": 0,
      "note": 81,
      "start": 36.6534,
      "duration": 0.0133,
      "velocity": 106,
      "chip": "ym2612"
    },
    {
      "channel": 4,
      "note": 78,
      "start": 36.6592,
      "duration": 0.011,
      "velocity": 106,
      "chip": "ym2612"
    },
    {
      "channel": 0,
      "note": 80,
      "start": 36.6672,
      "duration": 0.0549,
      "velocity": 106,
      "chip": "ym2612"
    },
    {
      "channel": 4,
      "note": 80,
      "start": 36.6708,
      "duration": 0.0691,
      "velocity": 106,
      "chip": "ym2612"
    },
    {
      "channel": 0,
      "note": 81,
      "start": 36.7228,
      "duration": 0.0661,
      "velocity": 106,
      "chip": "ym2612"
    },
    {
      "channel": 1,
      "note": 62,
      "start": 36.7234,
      "duration": 0.0662,
      "velocity": 101,
      "chip": "ym2612"
    },
    {
      "channel": 2,
      "note": 71,
      "start": 36.724,
      "duration": 0.0662,
      "velocity": 106,
      "chip": "ym2612"
    },
    {
      "channel": 3,
      "note": 71,
      "start": 36.7247,
      "duration": 0.0662,
      "velocity": 106,
      "chip": "ym2612"
    },
    {
      "channel": 4,
      "note": 81,
      "start": 36.7405,
      "duration": 0.0661,
      "velocity": 106,
      "chip": "ym2612"
    },
    {
      "channel": 0,
      "note": 83,
      "start": 36.7894,
      "duration": 0.0828,
      "velocity": 106,
      "chip": "ym2612"
    },
    {
      "channel": 1,
      "note": 62,
      "start": 36.7901,
      "duration": 0.0828,
      "velocity": 101,
      "chip": "ym2612"
    },
    {
      "channel": 2,
      "note": 74,
      "start": 36.7907,
      "duration": 0.0825,
      "velocity": 106,
      "chip": "ym2612"
    },
    {
      "channel": 3,
      "note": 78,
      "start": 36.7913,
      "duration": 0.0821,
      "velocity": 106,
      "chip": "ym2612"
    },
    {
      "channel": 4,
      "note": 80,
      "start": 36.8072,
      "duration": 0.0821,
      "velocity": 106,
      "chip": "ym2612"
    },
    {
      "channel": 0,
      "note": 81,
      "start": 36.8728,
      "duration": 0.0661,
      "velocity": 106,
      "chip": "ym2612"
    },
    {
      "channel": 4,
      "note": 81,
      "start": 36.89,
      "duration": 0.066,
      "velocity": 106,
      "chip": "ym2612"
    },
    {
      "channel": 0,
      "note": 83,
      "start": 36.9394,
      "duration": 0.0663,
      "velocity": 106,
      "chip": "ym2612"
    },
    {
      "channel": 4,
      "note": 83,
      "start": 36.9566,
      "duration": 0.06,
      "velocity": 106,
      "chip": "ym2612"
    },
    {
      "channel": 0,
      "note": 85,
      "start": 37.0063,
      "duration": 0.0195,
      "velocity": 106,
      "chip": "ym2612"
    },
    {
      "channel": 1,
      "note": 62,
      "start": 37.0069,
      "duration": 0.0229,
      "velocity": 101,
      "chip": "ym2612"
    },
    {
      "channel": 2,
      "note": 71,
      "start": 37.0076,
      "duration": 0.0683,
      "velocity": 106,
      "chip": "ym2612"
    },
    {
      "channel": 3,
      "note": 71,
      "start": 37.0083,
      "duration": 0.0679,
      "velocity": 106,
      "chip": "ym2612"
    },
    {
      "channel": 4,
      "note": 81,
      "start": 37.0172,
      "duration": 0.0135,
      "velocity": 106,
      "chip": "ym2612"
    },
    {
      "channel": 0,
      "note": 83,
      "start": 37.0264,
      "duration": 0.0486,
      "velocity": 106,
      "chip": "ym2612"
    },
    {
      "channel": 4,
      "note": 83,
      "start": 37.0313,
      "duration": 0.0609,
      "velocity": 106,
      "chip": "ym2612"
    },
    {
      "channel": 0,
      "note": 85,
      "start": 37.0756,
      "duration": 0.0828,
      "velocity": 106,
      "chip": "ym2612"
    },
    {
      "channel": 4,
      "note": 85,
      "start": 37.0928,
      "duration": 0.0833,
      "velocity": 106,
      "chip": "ym2612"
    },
    {
      "channel": 0,
      "note": 86,
      "start": 37.159,
      "duration": 0.066,
      "velocity": 106,
      "chip": "ym2612"
    },
    {
      "channel": 1,
      "note": 57,
      "start": 37.1596,
      "duration": 0.0824,
      "velocity": 101,
      "chip": "ym2612"
    },
    {
      "channel": 2,
      "note": 78,
      "start": 37.1602,
      "duration": 0.0658,
      "velocity": 106,
      "chip": "ym2612"
    },
    {
      "channel": 3,
      "note": 81,
      "start": 37.1609,
      "duration": 0.0655,
      "velocity": 106,
      "chip": "ym2612"
    },
    {
      "channel": 4,
      "note": 83,
      "start": 37.1767,
      "duration": 0.0657,
      "velocity": 106,
      "chip": "ym2612"
    },
    {
      "channel": 0,
      "note": 85,
      "start": 37.2256,
      "duration": 0.0827,
      "velocity": 106,
      "chip": "ym2612"
    },
    {
      "channel": 4,
      "note": 85,
      "start": 37.243,
      "duration": 0.0825,
      "velocity": 106,
      "chip": "ym2612"
    },
    {
      "channel": 0,
      "note": 86,
      "start": 37.309,
      "duration": 0.0663,
      "velocity": 106,
      "chip": "ym2612"
    },
    {
      "channel": 4,
      "note": 86,
      "start": 37.3262,
      "duration": 0.0563,
      "velocity": 106,
      "chip": "ym2612"
    },
    {
      "channel": 0,
      "note": 88,
      "start": 37.3759,
      "duration": 0.0159,
      "velocity": 106,
      "chip": "ym2612"
    },
    {
      "channel": 1,
      "note": 66,
      "start": 37.3765,
      "duration": 0.0225,
      "velocity": 101,
      "chip": "ym2612"
    },
    {
      "channel": 2,
      "note": 78,
      "start": 37.3771,
      "duration": 0.1355,
      "velocity": 106,
      "chip": "ym2612"
    },
    {
      "channel": 3,
      "note": 81,
      "start": 37.3778,
      "duration": 0.1354,
      "velocity": 106,
      "chip": "ym2612"
    },
    {
      "channel": 4,
      "note": 85,
      "start": 37.383,
      "duration": 0.0168,
      "velocity": 106,
      "chip": "ym2612"
    },
    {
      "channel": 0,
      "note": 86,
      "start": 37.3923,
      "duration": 0.0523,
      "velocity": 106,
      "chip": "ym2612"
    },
    {
      "channel": 4,
      "note": 86,
      "start": 37.4005,
      "duration": 0.0617,
      "velocity": 106,
      "chip": "ym2612"
    },
    {
      "channel": 0,
      "note": 88,
      "start": 37.4452,
      "duration": 0.0661,
      "velocity": 106,
      "chip": "ym2612"
    },
    {
      "channel": 4,
      "note": 88,
      "start": 37.4628,
      "duration": 0.0663,
      "velocity": 106,
      "chip": "ym2612"
    },
    {
      "channel": 0,
      "note": 90,
      "start": 37.5119,
      "duration": 0.0827,
      "velocity": 106,
      "chip": "ym2612"
    },
    {
      "channel": 1,
      "note": 62,
      "start": 37.5125,
      "duration": 0.099,
      "velocity": 101,
      "chip": "ym2612"
    },
    {
      "channel": 2,
      "note": 71,
      "start": 37.5131,
      "duration": 0.2329,
      "velocity": 106,
      "chip": "ym2612"
    },
    {
      "channel": 3,
      "note": 71,
      "start": 37.5138,
      "duration": 0.233,
      "velocity": 106,
      "chip": "ym2612"
    },
    {
      "channel": 4,
      "note": 86,
      "start": 37.5296,
      "duration": 0.0828,
      "velocity": 106,
      "chip": "ym2612"
    },
    {
      "channel": 0,
      "note": 88,
      "start": 37.5952,
      "duration": 0.0661,
      "velocity": 106,
      "chip": "ym2612"
    },
    {
      "channel": 4,
      "note": 88,
      "start": 37.6129,
      "duration": 0.0659,
      "velocity": 106,
      "chip": "ym2612"
    },
    {
      "channel": 0,
      "note": 90,
      "start": 37.6619,
      "duration": 0.0831,
      "velocity": 106,
      "chip": "ym2612"
    },
    {
      "channel": 4,
      "note": 90,
      "start": 37.6794,
      "duration": 0.0728,
      "velocity": 106,
      "chip": "ym2612"
    },
    {
      "channel": 1,
      "note": 64,
      "start": 37.7458,
      "duration": 0.0155,
      "velocity": 101,
      "chip": "ym2612"
    },
    {
      "channel": 2,
      "note": 76,
      "start": 37.7465,
      "duration": 0.0151,
      "velocity": 106,
      "chip": "ym2612"
    },
    {
      "channel": 3,
      "note": 80,
      "start": 37.7472,
      "duration": 0.0147,
      "velocity": 106,
      "chip": "ym2612"
    },
    {
      "channel": 4,
      "note": 88,
      "start": 37.7529,
      "duration": 0.0117,
      "velocity": 106,
      "chip": "ym2612"
    },
    {
      "channel": 4,
      "note": 90,
      "start": 37.7653,
      "duration": 0.0659,
      "velocity": 106,
      "chip": "ym2612"
    },
    {
      "channel": 1,
      "note": 64,
      "start": 37.8813,
      "duration": 0.0662,
      "velocity": 101,
      "chip": "ym2612"
    },
    {
      "channel": 2,
      "note": 71,
      "start": 37.882,
      "duration": 0.0658,
      "velocity": 106,
      "chip": "ym2612"
    },
    {
      "channel": 3,
      "note": 71,
      "start": 37.8827,
      "duration": 0.0655,
      "velocity": 106,
      "chip": "ym2612"
    },
    {
      "channel": 1,
      "note": 64,
      "start": 38.0313,
      "duration": 0.0664,
      "velocity": 101,
      "chip": "ym2612"
    },
    {
      "channel": 2,
      "note": 76,
      "start": 38.032,
      "duration": 0.0661,
      "velocity": 106,
      "chip": "ym2612"
    },
    {
      "channel": 3,
      "note": 80,
      "start": 38.0327,
      "duration": 0.0656,
      "velocity": 106,
      "chip": "ym2612"
    },
    {
      "channel": 1,
      "note": 64,
      "start": 38.1676,
      "duration": 0.0828,
      "velocity": 101,
      "chip": "ym2612"
    },
    {
      "channel": 2,
      "note": 71,
      "start": 38.1683,
      "duration": 0.0828,
      "velocity": 106,
      "chip": "ym2612"
    },
    {
      "channel": 3,
      "note": 71,
      "start": 38.169,
      "duration": 0.0827,
      "velocity": 106,
      "chip": "ym2612"
    },
    {
      "channel": 1,
      "note": 64,
      "start": 38.2508,
      "duration": 0.0662,
      "velocity": 101,
      "chip": "ym2612"
    },
    {
      "channel": 2,
      "note": 76,
      "start": 38.2515,
      "duration": 0.0659,
      "velocity": 106,
      "chip": "ym2612"
    },
    {
      "channel": 3,
      "note": 80,
      "start": 38.2522,
      "duration": 0.0655,
      "velocity": 106,
      "chip": "ym2612"
    },
    {
      "channel": 1,
      "note": 64,
      "start": 38.4678,
      "duration": 0.017,
      "velocity": 101,
      "chip": "ym2612"
    },
    {
      "channel": 2,
      "note": 76,
      "start": 38.4684,
      "duration": 0.0137,
      "velocity": 106,
      "chip": "ym2612"
    },
    {
      "channel": 3,
      "note": 80,
      "start": 38.469,
      "duration": 0.0133,
      "velocity": 106,
      "chip": "ym2612"
    },
    {
      "channel": 1,
      "note": 59,
      "start": 38.6037,
      "duration": 0.0996,
      "velocity": 101,
      "chip": "ym2612"
    },
    {
      "channel": 1,
      "note": 64,
      "start": 38.8206,
      "duration": 0.0188,
      "velocity": 101,
      "chip": "ym2612"
    },
    {
      "channel": 1,
      "note": 59,
      "start": 38.9732,
      "duration": 0.0829,
      "velocity": 101,
      "chip": "ym2612"
    },
    {
      "channel": 2,
      "note": 71,
      "start": 38.9738,
      "duration": 0.149,
      "velocity": 106,
      "chip": "ym2612"
    },
    {
      "channel": 3,
      "note": 71,
      "start": 38.9745,
      "duration": 0.1485,
      "velocity": 106,
      "chip": "ym2612"
    },
    {
      "channel": 1,
      "note": 64,
      "start": 39.1904,
      "duration": 0.0141,
      "velocity": 101,
      "chip": "ym2612"
    },
    {
      "channel": 2,
      "note": 76,
      "start": 39.191,
      "duration": 0.0137,
      "velocity": 106,
      "chip": "ym2612"
    },
    {
      "channel": 3,
      "note": 80,
      "start": 39.1917,
      "duration": 0.0133,
      "velocity": 106,
      "chip": "ym2612"
    },
    {
      "channel": 1,
      "note": 64,
      "start": 39.326,
      "duration": 0.0829,
      "velocity": 101,
      "chip": "ym2612"
    },
    {
      "channel": 2,
      "note": 71,
      "start": 39.3267,
      "duration": 0.0825,
      "velocity": 106,
      "chip": "ym2612"
    },
    {
      "channel": 3,
      "note": 71,
      "start": 39.3274,
      "duration": 0.0821,
      "velocity": 106,
      "chip": "ym2612"
    },
    {
      "channel": 1,
      "note": 64,
      "start": 39.476,
      "duration": 0.0831,
      "velocity": 101,
      "chip": "ym2612"
    },
    {
      "channel": 2,
      "note": 76,
      "start": 39.4767,
      "duration": 0.0828,
      "velocity": 106,
      "chip": "ym2612"
    },
    {
      "channel": 3,
      "note": 80,
      "start": 39.4774,
      "duration": 0.0823,
      "velocity": 106,
      "chip": "ym2612"
    },
    {
      "channel": 1,
      "note": 64,
      "start": 39.6122,
      "duration": 0.0828,
      "velocity": 101,
      "chip": "ym2612"
    },
    {
      "channel": 2,
      "note": 71,
      "start": 39.6129,
      "duration": 0.0828,
      "velocity": 106,
      "chip": "ym2612"
    },
    {
      "channel": 3,
      "note": 71,
      "start": 39.6136,
      "duration": 0.0828,
      "velocity": 106,
      "chip": "ym2612"
    },
    {
      "channel": 1,
      "note": 64,
      "start": 39.6956,
      "duration": 0.0662,
      "velocity": 101,
      "chip": "ym2612"
    },
    {
      "channel": 2,
      "note": 76,
      "start": 39.6962,
      "duration": 0.0659,
      "velocity": 106,
      "chip": "ym2612"
    },
    {
      "channel": 3,
      "note": 80,
      "start": 39.6968,
      "duration": 0.0655,
      "velocity": 106,
      "chip": "ym2612"
    },
    {
      "channel": 1,
      "note": 64,
      "start": 39.9125,
      "duration": 0.0199,
      "velocity": 101,
      "chip": "ym2612"
    },
    {
      "channel": 2,
      "note": 71,
      "start": 39.9131,
      "duration": 0.0683,
      "velocity": 106,
      "chip": "ym2612"
    },
    {
      "channel": 3,
      "note": 71,
      "start": 39.9138,
      "duration": 0.0679,
      "velocity": 106,
      "chip": "ym2612"
    },
    {
      "channel": 1,
      "note": 59,
      "start": 40.0651,
      "duration": 0.0829,
      "velocity": 101,
      "chip": "ym2612"
    },
    {
      "channel": 2,
      "note": 76,
      "start": 40.0657,
      "duration": 0.0659,
      "velocity": 106,
      "chip": "ym2612"
    },
    {
      "channel": 3,
      "note": 80,
      "start": 40.0664,
      "duration": 0.0654,
      "velocity": 106,
      "chip": "ym2612"
    },
    {
      "channel": 1,
      "note": 64,
      "start": 40.282,
      "duration": 0.0169,
      "velocity": 101,
      "chip": "ym2612"
    },
    {
      "channel": 2,
      "note": 76,
      "start": 40.2827,
      "duration": 0.1355,
      "velocity": 106,
      "chip": "ym2612"
    },
    {
      "channel": 3,
      "note": 80,
      "start": 40.2833,
      "duration": 0.1355,
      "velocity": 106,
      "chip": "ym2612"
    },
    {
      "channel": 1,
      "note": 59,
      "start": 40.418,
      "duration": 0.0996,
      "velocity": 101,
      "chip": "ym2612"
    },
    {
      "channel": 2,
      "note": 71,
      "start": 40.4186,
      "duration": 0.2167,
      "velocity": 106,
      "chip": "ym2612"
    },
    {
      "channel": 3,
      "note": 71,
      "start": 40.4193,
      "duration": 0.2167,
      "velocity": 106,
      "chip": "ym2612"
    },
    {
      "channel": 1,
      "note": 62,
      "start": 40.6352,
      "duration": 0.0171,
      "velocity": 101,
      "chip": "ym2612"
    },
    {
      "channel": 2,
      "note": 74,
      "start": 40.6358,
      "duration": 0.0167,
      "velocity": 106,
      "chip": "ym2612"
    },
    {
      "channel": 3,
      "note": 78,
      "start": 40.6365,
      "duration": 0.0163,
      "velocity": 106,
      "chip": "ym2612"
    },
    {
      "channel": 1,
      "note": 62,
      "start": 40.7875,
      "duration": 0.0662,
      "velocity": 101,
      "chip": "ym2612"
    },
    {
      "channel": 2,
      "note": 71,
      "start": 40.7882,
      "duration": 0.0659,
      "velocity": 106,
      "chip": "ym2612"
    },
    {
      "channel": 3,
      "note": 71,
      "start": 40.7889,
      "duration": 0.0655,
      "velocity": 106,
      "chip": "ym2612"
    },
    {
      "channel": 1,
      "note": 62,
      "start": 40.9377,
      "duration": 0.0663,
      "velocity": 101,
      "chip": "ym2612"
    },
    {
      "channel": 2,
      "note": 74,
      "start": 40.9383,
      "duration": 0.066,
      "velocity": 106,
      "chip": "ym2612"
    },
    {
      "channel": 3,
      "note": 78,
      "start": 40.9389,
      "duration": 0.0656,
      "velocity": 106,
      "chip": "ym2612"
    },
    {
      "channel": 1,
      "note": 62,
      "start": 41.0736,
      "duration": 0.0662,
      "velocity": 101,
      "chip": "ym2612"
    },
    {
      "channel": 2,
      "note": 71,
      "start": 41.0743,
      "duration": 0.0662,
      "velocity": 106,
      "chip": "ym2612"
    },
    {
      "channel": 3,
      "note": 71,
      "start": 41.075,
      "duration": 0.0662,
      "velocity": 106,
      "chip": "ym2612"
    },
    {
      "channel": 1,
      "note": 62,
      "start": 41.1403,
      "duration": 0.0829,
      "velocity": 101,
      "chip": "ym2612"
    },
    {
      "channel": 2,
      "note": 74,
      "start": 41.1409,
      "duration": 0.0825,
      "velocity": 106,
      "chip": "ym2612"
    },
    {
      "channel": 3,
      "note": 78,
      "start": 41.1416,
      "duration": 0.0821,
      "velocity": 106,
      "chip": "ym2612"
    },
    {
      "channel": 1,
      "note": 62,
      "start": 41.3739,
      "duration": 0.017,
      "velocity": 101,
      "chip": "ym2612"
    },
    {
      "channel": 2,
      "note": 74,
      "start": 41.3745,
      "duration": 0.0137,
      "velocity": 106,
      "chip": "ym2612"
    },
    {
      "channel": 3,
      "note": 78,
      "start": 41.3752,
      "duration": 0.0133,
      "velocity": 106,
      "chip": "ym2612"
    },
    {
      "channel": 1,
      "note": 57,
      "start": 41.5099,
      "duration": 0.0829,
      "velocity": 101,
      "chip": "ym2612"
    },
    {
      "channel": 1,
      "note": 62,
      "start": 41.7268,
      "duration": 0.0188,
      "velocity": 101,
      "chip": "ym2612"
    },
    {
      "channel": 1,
      "note": 57,
      "start": 41.8793,
      "duration": 0.0829,
      "velocity": 101,
      "chip": "ym2612"
    },
    {
      "channel": 2,
      "note": 71,
      "start": 41.88,
      "duration": 0.1323,
      "velocity": 106,
      "chip": "ym2612"
    },
    {
      "channel": 3,
      "note": 71,
      "start": 41.8807,
      "duration": 0.1319,
      "velocity": 106,
      "chip": "ym2612"
    },
    {
      "channel": 1,
      "note": 62,
      "start": 42.0965,
      "duration": 0.0141,
      "velocity": 101,
      "chip": "ym2612"
    },
    {
      "channel": 2,
      "note": 74,
      "start": 42.0972,
      "duration": 0.0138,
      "velocity": 106,
      "chip": "ym2612"
    },
    {
      "channel": 3,
      "note": 78,
      "start": 42.0979,
      "duration": 0.0133,
      "velocity": 106,
      "chip": "ym2612"
    },
    {
      "channel": 1,
      "note": 62,
      "start": 42.2323,
      "duration": 0.0829,
      "velocity": 101,
      "chip": "ym2612"
    },
    {
      "channel": 2,
      "note": 71,
      "start": 42.233,
      "duration": 0.0824,
      "velocity": 106,
      "chip": "ym2612"
    },
    {
      "channel": 3,
      "note": 71,
      "start": 42.2336,
      "duration": 0.0821,
      "velocity": 106,
      "chip": "ym2612"
    },
    {
      "channel": 1,
      "note": 62,
      "start": 42.3823,
      "duration": 0.0664,
      "velocity": 101,
      "chip": "ym2612"
    },
    {
      "channel": 2,
      "note": 74,
      "start": 42.3829,
      "duration": 0.0661,
      "velocity": 106,
      "chip": "ym2612"
    },
    {
      "channel": 3,
      "note": 78,
      "start": 42.3836,
      "duration": 0.0656,
      "velocity": 106,
      "chip": "ym2612"
    },
    {
      "channel": 1,
      "note": 62,
      "start": 42.5184,
      "duration": 0.0829,
      "velocity": 101,
      "chip": "ym2612"
    },
    {
      "channel": 2,
      "note": 71,
      "start": 42.5191,
      "duration": 0.0828,
      "velocity": 106,
      "chip": "ym2612"
    },
    {
      "channel": 3,
      "note": 71,
      "start": 42.5197,
      "duration": 0.0828,
      "velocity": 106,
      "chip": "ym2612"
    },
    {
      "channel": 1,
      "note": 62,
      "start": 42.6017,
      "duration": 0.0662,
      "velocity": 101,
      "chip": "ym2612"
    },
    {
      "channel": 2,
      "note": 74,
      "start": 42.6024,
      "duration": 0.0659,
      "velocity": 106,
      "chip": "ym2612"
    },
    {
      "channel": 3,
      "note": 78,
      "start": 42.603,
      "duration": 0.0655,
      "velocity": 106,
      "chip": "ym2612"
    },
    {
      "channel": 1,
      "note": 62,
      "start": 42.8187,
      "duration": 0.0199,
      "velocity": 101,
      "chip": "ym2612"
    },
    {
      "channel": 2,
      "note": 71,
      "start": 42.8193,
      "duration": 0.0683,
      "velocity": 106,
      "chip": "ym2612"
    },
    {
      "channel": 3,
      "note": 71,
      "start": 42.8199,
      "duration": 0.0679,
      "velocity": 106,
      "chip": "ym2612"
    },
    {
      "channel": 1,
      "note": 57,
      "start": 42.9546,
      "duration": 0.0996,
      "velocity": 101,
      "chip": "ym2612"
    },
    {
      "channel": 2,
      "note": 78,
      "start": 42.9553,
      "duration": 0.0824,
      "velocity": 106,
      "chip": "ym2612"
    },
    {
      "channel": 3,
      "note": 81,
      "start": 42.956,
      "duration": 0.0821,
      "velocity": 106,
      "chip": "ym2612"
    },
    {
      "channel": 1,
      "note": 62,
      "start": 43.1882,
      "duration": 0.0166,
      "velocity": 101,
      "chip": "ym2612"
    },
    {
      "channel": 2,
      "note": 78,
      "start": 43.1889,
      "duration": 0.1356,
      "velocity": 106,
      "chip": "ym2612"
    },
    {
      "channel": 3,
      "note": 81,
      "start": 43.1895,
      "duration": 0.1356,
      "velocity": 106,
      "chip": "ym2612"
    },
    {
      "channel": 1,
      "note": 57,
      "start": 43.3242,
      "duration": 0.0829,
      "velocity": 101,
      "chip": "ym2612"
    },
    {
      "channel": 2,
      "note": 71,
      "start": 43.3249,
      "duration": 0.2168,
      "velocity": 106,
      "chip": "ym2612"
    },
    {
      "channel": 3,
      "note": 71,
      "start": 43.3256,
      "duration": 0.2168,
      "velocity": 106,
      "chip": "ym2612"
    },
    {
      "channel": 1,
      "note": 64,
      "start": 43.5414,
      "duration": 0.0175,
      "velocity": 101,
      "chip": "ym2612"
    },
    {
      "channel": 2,
      "note": 76,
      "start": 43.5421,
      "duration": 0.0171,
      "velocity": 106,
      "chip": "ym2612"
    },
    {
      "channel": 3,
      "note": 80,
      "start": 43.5429,
      "duration": 0.0166,
      "velocity": 106,
      "chip": "ym2612"
    },
    {
      "channel": 1,
      "note": 64,
      "start": 43.6771,
      "duration": 0.0829,
      "velocity": 101,
      "chip": "ym2612"
    },
    {
      "channel": 2,
      "note": 71,
      "start": 43.6778,
      "duration": 0.0824,
      "velocity": 106,
      "chip": "ym2612"
    },
    {
      "channel": 3,
      "note": 71,
      "start": 43.6784,
      "duration": 0.0821,
      "velocity": 106,
      "chip": "ym2612"
    },
    {
      "channel": 1,
      "note": 64,
      "start": 43.8272,
      "duration": 0.0829,
      "velocity": 101,
      "chip": "ym2612"
    },
    {
      "channel": 2,
      "note": 76,
      "start": 43.8278,
      "duration": 0.0826,
      "velocity": 106,
      "chip": "ym2612"
    },
    {
      "channel": 3,
      "note": 80,
      "start": 43.8285,
      "duration": 0.0822,
      "velocity": 106,
      "chip": "ym2612"
    },
    {
      "channel": 1,
      "note": 64,
      "start": 43.9798,
      "duration": 0.0662,
      "velocity": 101,
      "chip": "ym2612"
    },
    {
      "channel": 2,
      "note": 71,
      "start": 43.9805,
      "duration": 0.0661,
      "velocity": 106,
      "chip": "ym2612"
    },
    {
      "channel": 3,
      "note": 71,
      "start": 43.9812,
      "duration": 0.0661,
      "velocity": 106,
      "chip": "ym2612"
    },
    {
      "channel": 1,
      "note": 64,
      "start": 44.0465,
      "duration": 0.0829,
      "velocity": 101,
      "chip": "ym2612"
    },
    {
      "channel": 2,
      "note": 76,
      "start": 44.0471,
      "duration": 0.0825,
      "velocity": 106,
      "chip": "ym2612"
    },
    {
      "channel": 3,
      "note": 80,
      "start": 44.0478,
      "duration": 0.0822,
      "velocity": 106,
      "chip": "ym2612"
    },
    {
      "channel": 1,
      "note": 64,
      "start": 44.2634,
      "duration": 0.02,
      "velocity": 101,
      "chip": "ym2612"
    },
    {
      "channel": 2,
      "note": 76,
      "start": 44.2641,
      "duration": 0.0166,
      "velocity": 106,
      "chip": "ym2612"
    },
    {
      "channel": 3,
      "note": 80,
      "start": 44.2647,
      "duration": 0.0163,
      "velocity": 106,
      "chip": "ym2612"
    },
    {
      "channel": 1,
      "note": 59,
      "start": 44.4161,
      "duration": 0.0829,
      "velocity": 101,
      "chip": "ym2612"
    },
    {
      "channel": 1,
      "note": 64,
      "start": 44.633,
      "duration": 0.0188,
      "velocity": 101,
      "chip": "ym2612"
    },
    {
      "channel": 1,
      "note": 59,
      "start": 44.7689,
      "duration": 0.0996,
      "velocity": 101,
      "chip": "ym2612"
    },
    {
      "channel": 2,
      "note": 71,
      "start": 44.7695,
      "duration": 0.149,
      "velocity": 106,
      "chip": "ym2612"
    },
    {
      "channel": 3,
      "note": 71,
      "start": 44.7702,
      "duration": 0.1485,
      "velocity": 106,
      "chip": "ym2612"
    },
    {
      "channel": 1,
      "note": 64,
      "start": 45.0027,
      "duration": 0.0141,
      "velocity": 101,
      "chip": "ym2612"
    },
    {
      "channel": 2,
      "note": 76,
      "start": 45.0034,
      "duration": 0.0138,
      "velocity": 106,
      "chip": "ym2612"
    },
    {
      "channel": 3,
      "note": 80,
      "start": 45.0041,
      "duration": 0.0133,
      "velocity": 106,
      "chip": "ym2612"
    },
    {
      "channel": 1,
      "note": 64,
      "start": 45.1385,
      "duration": 0.0662,
      "velocity": 101,
      "chip": "ym2612"
    },
    {
      "channel": 2,
      "note": 71,
      "start": 45.1391,
      "duration": 0.0659,
      "velocity": 106,
      "chip": "ym2612"
    },
    {
      "channel": 3,
      "note": 71,
      "start": 45.1398,
      "duration": 0.0655,
      "velocity": 106,
      "chip": "ym2612"
    },
    {
      "channel": 1,
      "note": 64,
      "start": 45.2885,
      "duration": 0.0664,
      "velocity": 101,
      "chip": "ym2612"
    },
    {
      "channel": 2,
      "note": 76,
      "start": 45.2891,
      "duration": 0.0661,
      "velocity": 106,
      "chip": "ym2612"
    },
    {
      "channel": 3,
      "note": 80,
      "start": 45.2898,
      "duration": 0.0656,
      "velocity": 106,
      "chip": "ym2612"
    },
    {
      "channel": 1,
      "note": 64,
      "start": 45.4246,
      "duration": 0.0662,
      "velocity": 101,
      "chip": "ym2612"
    },
    {
      "channel": 2,
      "note": 71,
      "start": 45.4253,
      "duration": 0.0662,
      "velocity": 106,
      "chip": "ym2612"
    },
    {
      "channel": 3,
      "note": 71,
      "start": 45.426,
      "duration": 0.0662,
      "velocity": 106,
      "chip": "ym2612"
    },
    {
      "channel": 1,
      "note": 64,
      "start": 45.4913,
      "duration": 0.0829,
      "velocity": 101,
      "chip": "ym2612"
    },
    {
      "channel": 2,
      "note": 76,
      "start": 45.4919,
      "duration": 0.0825,
      "velocity": 106,
      "chip": "ym2612"
    },
    {
      "channel": 3,
      "note": 80,
      "start": 45.4926,
      "duration": 0.0821,
      "velocity": 106,
      "chip": "ym2612"
    },
    {
      "channel": 1,
      "note": 64,
      "start": 45.7249,
      "duration": 0.0169,
      "velocity": 101,
      "chip": "ym2612"
    },
    {
      "channel": 2,
      "note": 71,
      "start": 45.7255,
      "duration": 0.0683,
      "velocity": 106,
      "chip": "ym2612"
    },
    {
      "channel": 3,
      "note": 71,
      "start": 45.7262,
      "duration": 0.0679,
      "velocity": 106,
      "chip": "ym2612"
    },
    {
      "channel": 1,
      "note": 59,
      "start": 45.8609,
      "duration": 0.0996,
      "velocity": 101,
      "chip": "ym2612"
    },
    {
      "channel": 2,
      "note": 76,
      "start": 45.8616,
      "duration": 0.0824,
      "velocity": 106,
      "chip": "ym2612"
    },
    {
      "channel": 3,
      "note": 80,
      "start": 45.8622,
      "duration": 0.0821,
      "velocity": 106,
      "chip": "ym2612"
    },
    {
      "channel": 1,
      "note": 64,
      "start": 46.0778,
      "duration": 0.0199,
      "velocity": 101,
      "chip": "ym2612"
    },
    {
      "channel": 2,
      "note": 76,
      "start": 46.0785,
      "duration": 0.1522,
      "velocity": 106,
      "chip": "ym2612"
    },
    {
      "channel": 3,
      "note": 80,
      "start": 46.0791,
      "duration": 0.1522,
      "velocity": 106,
      "chip": "ym2612"
    },
    {
      "channel": 1,
      "note": 59,
      "start": 46.2305,
      "duration": 0.0829,
      "velocity": 101,
      "chip": "ym2612"
    },
    {
      "channel": 2,
      "note": 71,
      "start": 46.2311,
      "duration": 0.2167,
      "velocity": 106,
      "chip": "ym2612"
    },
    {
      "channel": 3,
      "note": 71,
      "start": 46.2318,
      "duration": 0.2167,
      "velocity": 106,
      "chip": "ym2612"
    },
    {
      "channel": 1,
      "note": 62,
      "start": 46.4476,
      "duration": 0.0141,
      "velocity": 101,
      "chip": "ym2612"
    },
    {
      "channel": 2,
      "note": 74,
      "start": 46.4483,
      "duration": 0.0137,
      "velocity": 106,
      "chip": "ym2612"
    },
    {
      "channel": 3,
      "note": 78,
      "start": 46.449,
      "duration": 0.0134,
      "velocity": 106,
      "chip": "ym2612"
    },
    {
      "channel": 1,
      "note": 62,
      "start": 46.5833,
      "duration": 0.0829,
      "velocity": 101,
      "chip": "ym2612"
    },
    {
      "channel": 2,
      "note": 71,
      "start": 46.584,
      "duration": 0.0824,
      "velocity": 106,
      "chip": "ym2612"
    },
    {
      "channel": 3,
      "note": 71,
      "start": 46.5846,
      "duration": 0.0821,
      "velocity": 106,
      "chip": "ym2612"
    },
    {
      "channel": 1,
      "note": 62,
      "start": 46.7333,
      "duration": 0.0832,
      "velocity": 101,
      "chip": "ym2612"
    },
    {
      "channel": 2,
      "note": 74,
      "start": 46.7339,
      "duration": 0.0828,
      "velocity": 106,
      "chip": "ym2612"
    },
    {
      "channel": 3,
      "note": 78,
      "start": 46.7346,
      "duration": 0.0824,
      "velocity": 106,
      "chip": "ym2612"
    },
    {
      "channel": 1,
      "note": 62,
      "start": 46.8694,
      "duration": 0.0829,
      "velocity": 101,
      "chip": "ym2612"
    },
    {
      "channel": 2,
      "note": 71,
      "start": 46.8701,
      "duration": 0.0828,
      "velocity": 106,
      "chip": "ym2612"
    },
    {
      "channel": 3,
      "note": 71,
      "start": 46.8707,
      "duration": 0.0828,
      "velocity": 106,
      "chip": "ym2612"
    },
    {
      "channel": 1,
      "note": 62,
      "start": 46.9527,
      "duration": 0.0662,
      "velocity": 101,
      "chip": "ym2612"
    },
    {
      "channel": 2,
      "note": 74,
      "start": 46.9533,
      "duration": 0.0659,
      "velocity": 106,
      "chip": "ym2612"
    },
    {
      "channel": 3,
      "note": 78,
      "start": 46.954,
      "duration": 0.0655,
      "velocity": 106,
      "chip": "ym2612"
    },
    {
      "channel": 1,
      "note": 62,
      "start": 47.1696,
      "duration": 0.02,
      "velocity": 101,
      "chip": "ym2612"
    },
    {
      "channel": 2,
      "note": 74,
      "start": 47.1703,
      "duration": 0.0166,
      "velocity": 106,
      "chip": "ym2612"
    },
    {
      "channel": 3,
      "note": 78,
      "start": 47.1709,
      "duration": 0.0163,
      "velocity": 106,
      "chip": "ym2612"
    },
    {
      "channel": 1,
      "note": 57,
      "start": 47.3056,
      "duration": 0.0996,
      "velocity": 101,
      "chip": "ym2612"
    },
    {
      "channel": 1,
      "note": 62,
      "start": 47.5392,
      "duration": 0.0137,
      "velocity": 101,
      "chip": "ym2612"
    },
    {
      "channel": 1,
      "note": 57,
      "start": 47.6751,
      "duration": 0.0996,
      "velocity": 101,
      "chip": "ym2612"
    },
    {
      "channel": 2,
      "note": 71,
      "start": 47.6757,
      "duration": 0.149,
      "velocity": 106,
      "chip": "ym2612"
    },
    {
      "channel": 3,
      "note": 71,
      "start": 47.6764,
      "duration": 0.1485,
      "velocity": 106,
      "chip": "ym2612"
    },
    {
      "channel": 1,
      "note": 62,
      "start": 47.8923,
      "duration": 0.0171,
      "velocity": 101,
      "chip": "ym2612"
    },
    {
      "channel": 2,
      "note": 74,
      "start": 47.893,
      "duration": 0.0167,
      "velocity": 106,
      "chip": "ym2612"
    },
    {
      "channel": 3,
      "note": 78,
      "start": 47.8936,
      "duration": 0.0163,
      "velocity": 106,
      "chip": "ym2612"
    },
    {
      "channel": 1,
      "note": 62,
      "start": 48.0447,
      "duration": 0.0662,
      "velocity": 101,
      "chip": "ym2612"
    },
    {
      "channel": 2,
      "note": 71,
      "start": 48.0454,
      "duration": 0.0659,
      "velocity": 106,
      "chip": "ym2612"
    },
    {
      "channel": 3,
      "note": 71,
      "start": 48.0461,
      "duration": 0.0655,
      "velocity": 106,
      "chip": "ym2612"
    },
    {
      "channel": 1,
      "note": 62,
      "start": 48.1947,
      "duration": 0.0664,
      "velocity": 101,
      "chip": "ym2612"
    },
    {
      "channel": 2,
      "note": 74,
      "start": 48.1954,
      "duration": 0.0661,
      "velocity": 106,
      "chip": "ym2612"
    },
    {
      "channel": 3,
      "note": 78,
      "start": 48.1961,
      "duration": 0.0656,
      "velocity": 106,
      "chip": "ym2612"
    },
    {
      "channel": 1,
      "note": 62,
      "start": 48.3309,
      "duration": 0.0662,
      "velocity": 101,
      "chip": "ym2612"
    },
    {
      "channel": 2,
      "note": 71,
      "start": 48.3315,
      "duration": 0.0662,
      "velocity": 106,
      "chip": "ym2612"
    },
    {
      "channel": 3,
      "note": 71,
      "start": 48.3322,
      "duration": 0.0662,
      "velocity": 106,
      "chip": "ym2612"
    },
    {
      "channel": 1,
      "note": 62,
      "start": 48.3976,
      "duration": 0.0829,
      "velocity": 101,
      "chip": "ym2612"
    },
    {
      "channel": 2,
      "note": 74,
      "start": 48.3982,
      "duration": 0.0825,
      "velocity": 106,
      "chip": "ym2612"
    },
    {
      "channel": 3,
      "note": 78,
      "start": 48.3989,
      "duration": 0.0821,
      "velocity": 106,
      "chip": "ym2612"
    },
    {
      "channel": 1,
      "note": 62,
      "start": 48.6312,
      "duration": 0.0169,
      "velocity": 101,
      "chip": "ym2612"
    },
    {
      "channel": 2,
      "note": 71,
      "start": 48.6318,
      "duration": 0.0516,
      "velocity": 106,
      "chip": "ym2612"
    },
    {
      "channel": 3,
      "note": 71,
      "start": 48.6324,
      "duration": 0.0512,
      "velocity": 106,
      "chip": "ym2612"
    },
    {
      "channel": 1,
      "note": 57,
      "start": 48.7671,
      "duration": 0.0829,
      "velocity": 101,
      "chip": "ym2612"
    },
    {
      "channel": 2,
      "note": 78,
      "start": 48.7678,
      "duration": 0.0658,
      "velocity": 106,
      "chip": "ym2612"
    },
    {
      "channel": 3,
      "note": 81,
      "start": 48.7684,
      "duration": 0.0654,
      "velocity": 106,
      "chip": "ym2612"
    },
    {
      "channel": 1,
      "note": 66,
      "start": 48.984,
      "duration": 0.0196,
      "velocity": 101,
      "chip": "ym2612"
    },
    {
      "channel": 2,
      "note": 78,
      "start": 48.9846,
      "duration": 0.1355,
      "velocity": 106,
      "chip": "ym2612"
    },
    {
      "channel": 3,
      "note": 81,
      "start": 48.9853,
      "duration": 0.1355,
      "velocity": 106,
      "chip": "ym2612"
    },
    {
      "channel": 1,
      "note": 62,
      "start": 49.12,
      "duration": 0.0996,
      "velocity": 101,
      "chip": "ym2612"
    },
    {
      "channel": 2,
      "note": 71,
      "start": 49.1206,
      "duration": 0.2366,
      "velocity": 106,
      "chip": "ym2612"
    },
    {
      "channel": 3,
      "note": 71,
      "start": 49.1213,
      "duration": 0.2366,
      "velocity": 106,
      "chip": "ym2612"
    },
    {
      "channel": 0,
      "note": 103,
      "start": 49.3563,
      "duration": 0.3496,
      "velocity": 91,
      "chip": "ym2612"
    },
    {
      "channel": 1,
      "note": 64,
      "start": 49.357,
      "duration": 0.0156,
      "velocity": 101,
      "chip": "ym2612"
    },
    {
      "channel": 2,
      "note": 76,
      "start": 49.3577,
      "duration": 0.0152,
      "velocity": 106,
      "chip": "ym2612"
    },
    {
      "channel": 3,
      "note": 80,
      "start": 49.3585,
      "duration": 0.0147,
      "velocity": 106,
      "chip": "ym2612"
    },
    {
      "channel": 4,
      "note": 103,
      "start": 49.4427,
      "duration": 0.3498,
      "velocity": 91,
      "chip": "ym2612"
    },
    {
      "channel": 1,
      "note": 64,
      "start": 49.4897,
      "duration": 0.0661,
      "velocity": 101,
      "chip": "ym2612"
    },
    {
      "channel": 2,
      "note": 71,
      "start": 49.4903,
      "duration": 0.0658,
      "velocity": 106,
      "chip": "ym2612"
    },
    {
      "channel": 3,
      "note": 71,
      "start": 49.491,
      "duration": 0.0654,
      "velocity": 106,
      "chip": "ym2612"
    },
    {
      "channel": 1,
      "note": 64,
      "start": 49.6397,
      "duration": 0.0669,
      "velocity": 101,
      "chip": "ym2612"
    },
    {
      "channel": 2,
      "note": 76,
      "start": 49.6403,
      "duration": 0.0666,
      "velocity": 106,
      "chip": "ym2612"
    },
    {
      "channel": 3,
      "note": 80,
      "start": 49.641,
      "duration": 0.0663,
      "velocity": 106,
      "chip": "ym2612"
    },
    {
      "channel": 0,
      "note": 100,
      "start": 49.7065,
      "duration": 0.0352,
      "velocity": 91,
      "chip": "ym2612"
    },
    {
      "channel": 1,
      "note": 64,
      "start": 49.7755,
      "duration": 0.0835,
      "velocity": 101,
      "chip": "ym2612"
    },
    {
      "channel": 2,
      "note": 71,
      "start": 49.7762,
      "duration": 0.0835,
      "velocity": 106,
      "chip": "ym2612"
    },
    {
      "channel": 3,
      "note": 71,
      "start": 49.7769,
      "duration": 0.0835,
      "velocity": 106,
      "chip": "ym2612"
    },
    {
      "channel": 4,
      "note": 100,
      "start": 49.7932,
      "duration": 0.1163,
      "velocity": 91,
      "chip": "ym2612"
    },
    {
      "channel": 0,
      "note": 95,
      "start": 49.8589,
      "duration": 1.4441,
      "velocity": 91,
      "chip": "ym2612"
    },
    {
      "channel": 1,
      "note": 64,
      "start": 49.8596,
      "duration": 0.0657,
      "velocity": 101,
      "chip": "ym2612"
    },
    {
      "channel": 2,
      "note": 76,
      "start": 49.8602,
      "duration": 0.0654,
      "velocity": 106,
      "chip": "ym2612"
    },
    {
      "channel": 3,
      "note": 80,
      "start": 49.8608,
      "duration": 0.065,
      "velocity": 106,
      "chip": "ym2612"
    },
    {
      "channel": 4,
      "note": 95,
      "start": 50.0261,
      "duration": 1.4439,
      "velocity": 91,
      "chip": "ym2612"
    },
    {
      "channel": 1,
      "note": 64,
      "start": 50.076,
      "duration": 0.019,
      "velocity": 101,
      "chip": "ym2612"
    },
    {
      "channel": 2,
      "note": 76,
      "start": 50.0766,
      "duration": 0.0153,
      "velocity": 106,
      "chip": "ym2612"
    },
    {
      "channel": 3,
      "note": 80,
      "start": 50.0773,
      "duration": 0.015,
      "velocity": 106,
      "chip": "ym2612"
    },
    {
      "channel": 1,
      "note": 59,
      "start": 50.2119,
      "duration": 0.0996,
      "velocity": 101,
      "chip": "ym2612"
    },
    {
      "channel": 1,
      "note": 64,
      "start": 50.4455,
      "duration": 0.0167,
      "velocity": 101,
      "chip": "ym2612"
    },
    {
      "channel": 1,
      "note": 59,
      "start": 50.5815,
      "duration": 0.0828,
      "velocity": 101,
      "chip": "ym2612"
    },
    {
      "channel": 2,
      "note": 71,
      "start": 50.5821,
      "duration": 0.149,
      "velocity": 106,
      "chip": "ym2612"
    },
    {
      "channel": 3,
      "note": 71,
      "start": 50.5828,
      "duration": 0.1486,
      "velocity": 106,
      "chip": "ym2612"
    },
    {
      "channel": 1,
      "note": 64,
      "start": 50.7984,
      "duration": 0.0202,
      "velocity": 101,
      "chip": "ym2612"
    },
    {
      "channel": 2,
      "note": 76,
      "start": 50.7991,
      "duration": 0.0198,
      "velocity": 106,
      "chip": "ym2612"
    },
    {
      "channel": 3,
      "note": 80,
      "start": 50.7997,
      "duration": 0.0195,
      "velocity": 106,
      "chip": "ym2612"
    },
    {
      "channel": 1,
      "note": 64,
      "start": 50.9343,
      "duration": 0.0828,
      "velocity": 101,
      "chip": "ym2612"
    },
    {
      "channel": 2,
      "note": 71,
      "start": 50.935,
      "duration": 0.0825,
      "velocity": 106,
      "chip": "ym2612"
    },
    {
      "channel": 3,
      "note": 71,
      "start": 50.9357,
      "duration": 0.0821,
      "velocity": 106,
      "chip": "ym2612"
    },
    {
      "channel": 1,
      "note": 64,
      "start": 51.0843,
      "duration": 0.0831,
      "velocity": 101,
      "chip": "ym2612"
    },
    {
      "channel": 2,
      "note": 76,
      "start": 51.085,
      "duration": 0.0827,
      "velocity": 106,
      "chip": "ym2612"
    },
    {
      "channel": 3,
      "note": 80,
      "start": 51.0857,
      "duration": 0.0823,
      "velocity": 106,
      "chip": "ym2612"
    },
    {
      "channel": 1,
      "note": 64,
      "start": 51.2373,
      "duration": 0.066,
      "velocity": 101,
      "chip": "ym2612"
    },
    {
      "channel": 2,
      "note": 71,
      "start": 51.2379,
      "duration": 0.066,
      "velocity": 106,
      "chip": "ym2612"
    },
    {
      "channel": 3,
      "note": 71,
      "start": 51.2385,
      "duration": 0.066,
      "velocity": 106,
      "chip": "ym2612"
    },
    {
      "channel": 1,
      "note": 64,
      "start": 51.3038,
      "duration": 0.066,
      "velocity": 101,
      "chip": "ym2612"
    },
    {
      "channel": 2,
      "note": 76,
      "start": 51.3045,
      "duration": 0.0656,
      "velocity": 106,
      "chip": "ym2612"
    },
    {
      "channel": 3,
      "note": 80,
      "start": 51.3051,
      "duration": 0.0653,
      "velocity": 106,
      "chip": "ym2612"
    },
    {
      "channel": 0,
      "note": 103,
      "start": 51.5205,
      "duration": 0.0354,
      "velocity": 91,
      "chip": "ym2612"
    },
    {
      "channel": 1,
      "note": 64,
      "start": 51.5211,
      "duration": 0.0215,
      "velocity": 101,
      "chip": "ym2612"
    },
    {
      "channel": 2,
      "note": 71,
      "start": 51.5218,
      "duration": 0.0676,
      "velocity": 106,
      "chip": "ym2612"
    },
    {
      "channel": 3,
      "note": 71,
      "start": 51.5225,
      "duration": 0.0672,
      "velocity": 106,
      "chip": "ym2612"
    },
    {
      "channel": 4,
      "note": 103,
      "start": 51.6068,
      "duration": 0.1169,
      "velocity": 91,
      "chip": "ym2612"
    },
    {
      "channel": 0,
      "note": 104,
      "start": 51.6732,
      "duration": 0.2522,
      "velocity": 91,
      "chip": "ym2612"
    },
    {
      "channel": 1,
      "note": 59,
      "start": 51.6738,
      "duration": 0.0824,
      "velocity": 101,
      "chip": "ym2612"
    },
    {
      "channel": 2,
      "note": 76,
      "start": 51.6745,
      "duration": 0.0653,
      "velocity": 106,
      "chip": "ym2612"
    },
    {
      "channel": 3,
      "note": 80,
      "start": 51.6752,
      "duration": 0.0649,
      "velocity": 106,
      "chip": "ym2612"
    },
    {
      "channel": 4,
      "note": 104,
      "start": 51.8404,
      "duration": 0.2532,
      "velocity": 91,
      "chip": "ym2612"
    },
    {
      "channel": 1,
      "note": 64,
      "start": 51.8902,
      "duration": 0.019,
      "velocity": 101,
      "chip": "ym2612"
    },
    {
      "channel": 2,
      "note": 76,
      "start": 51.8909,
      "duration": 0.1359,
      "velocity": 106,
      "chip": "ym2612"
    },
    {
      "channel": 3,
      "note": 80,
      "start": 51.8915,
      "duration": 0.1359,
      "velocity": 106,
      "chip": "ym2612"
    },
    {
      "channel": 0,
      "note": 104,
      "start": 52.026,
      "duration": 0.3689,
      "velocity": 91,
      "chip": "ym2612"
    },
    {
      "channel": 1,
      "note": 59,
      "start": 52.0266,
      "duration": 0.099,
      "velocity": 101,
      "chip": "ym2612"
    },
    {
      "channel": 2,
      "note": 71,
      "start": 52.0273,
      "duration": 0.2326,
      "velocity": 106,
      "chip": "ym2612"
    },
    {
      "channel": 3,
      "note": 71,
      "start": 52.0279,
      "duration": 0.2327,
      "velocity": 106,
      "chip": "ym2612"
    },
    {
      "channel": 4,
      "note": 104,
      "start": 52.1936,
      "duration": 0.3689,
      "velocity": 91,
      "chip": "ym2612"
    },
    {
      "channel": 1,
      "note": 62,
      "start": 52.2598,
      "duration": 0.0161,
      "velocity": 101,
      "chip": "ym2612"
    },
    {
      "channel": 2,
      "note": 74,
      "start": 52.2604,
      "duration": 0.0158,
      "velocity": 106,
      "chip": "ym2612"
    },
    {
      "channel": 3,
      "note": 78,
      "start": 52.2611,
      "duration": 0.0154,
      "velocity": 106,
      "chip": "ym2612"
    },
    {
      "channel": 0,
      "note": 104,
      "start": 52.3956,
      "duration": 0.0995,
      "velocity": 91,
      "chip": "ym2612"
    },
    {
      "channel": 1,
      "note": 62,
      "start": 52.3962,
      "duration": 0.0657,
      "velocity": 101,
      "chip": "ym2612"
    },
    {
      "channel": 2,
      "note": 71,
      "start": 52.3968,
      "duration": 0.0653,
      "velocity": 106,
      "chip": "ym2612"
    },
    {
      "channel": 3,
      "note": 71,
      "start": 52.3975,
      "duration": 0.065,
      "velocity": 106,
      "chip": "ym2612"
    },
    {
      "channel": 1,
      "note": 62,
      "start": 52.5455,
      "duration": 0.0671,
      "velocity": 101,
      "chip": "ym2612"
    },
    {
      "channel": 2,
      "note": 74,
      "start": 52.5461,
      "duration": 0.0667,
      "velocity": 106,
      "chip": "ym2612"
    },
    {
      "channel": 3,
      "note": 78,
      "start": 52.5468,
      "duration": 0.0663,
      "velocity": 106,
      "chip": "ym2612"
    },
    {
      "channel": 4,
      "note": 104,
      "start": 52.5632,
      "duration": 0.06,
      "velocity": 91,
      "chip": "ym2612"
    },
    {
      "channel": 0,
      "note": 102,
      "start": 52.6124,
      "duration": 2.1833,
      "velocity": 91,
      "chip": "ym2612"
    },
    {
      "channel": 1,
      "note": 62,
      "start": 52.682,
      "duration": 0.0661,
      "velocity": 101,
      "chip": "ym2612"
    },
    {
      "channel": 2,
      "note": 71,
      "start": 52.6826,
      "duration": 0.0661,
      "velocity": 106,
      "chip": "ym2612"
    },
    {
      "channel": 3,
      "note": 71,
      "start": 52.6832,
      "duration": 0.0661,
      "velocity": 106,
      "chip": "ym2612"
    },
    {
      "channel": 4,
      "note": 102,
      "start": 52.6995,
      "duration": 2.1829,
      "velocity": 91,
      "chip": "ym2612"
    },
    {
      "channel": 1,
      "note": 62,
      "start": 52.7486,
      "duration": 0.0828,
      "velocity": 101,
      "chip": "ym2612"
    },
    {
      "channel": 2,
      "note": 74,
      "start": 52.7493,
      "duration": 0.0824,
      "velocity": 106,
      "chip": "ym2612"
    },
    {
      "channel": 3,
      "note": 78,
      "start": 52.7499,
      "duration": 0.0821,
      "velocity": 106,
      "chip": "ym2612"
    },
    {
      "channel": 1,
      "note": 62,
      "start": 52.9821,
      "duration": 0.0193,
      "velocity": 101,
      "chip": "ym2612"
    },
    {
      "channel": 2,
      "note": 74,
      "start": 52.9828,
      "duration": 0.0154,
      "velocity": 106,
      "chip": "ym2612"
    },
    {
      "channel": 3,
      "note": 78,
      "start": 52.9834,
      "duration": 0.0151,
      "velocity": 106,
      "chip": "ym2612"
    },
    {
      "channel": 1,
      "note": 57,
      "start": 53.1181,
      "duration": 0.0995,
      "velocity": 101,
      "chip": "ym2612"
    },
    {
      "channel": 1,
      "note": 62,
      "start": 53.3351,
      "duration": 0.02,
      "velocity": 101,
      "chip": "ym2612"
    },
    {
      "channel": 1,
      "note": 57,
      "start": 53.4877,
      "duration": 0.0828,
      "velocity": 101,
      "chip": "ym2612"
    },
    {
      "channel": 2,
      "note": 71,
      "start": 53.4884,
      "duration": 0.1322,
      "velocity": 106,
      "chip": "ym2612"
    },
    {
      "channel": 3,
      "note": 71,
      "start": 53.489,
      "duration": 0.1319,
      "velocity": 106,
      "chip": "ym2612"
    },
    {
      "channel": 1,
      "note": 62,
      "start": 53.7046,
      "duration": 0.0166,
      "velocity": 101,
      "chip": "ym2612"
    },
    {
      "channel": 2,
      "note": 74,
      "start": 53.7053,
      "duration": 0.0162,
      "velocity": 106,
      "chip": "ym2612"
    },
    {
      "channel": 3,
      "note": 78,
      "start": 53.7059,
      "duration": 0.0159,
      "velocity": 106,
      "chip": "ym2612"
    },
    {
      "channel": 1,
      "note": 62,
      "start": 53.8406,
      "duration": 0.0828,
      "velocity": 101,
      "chip": "ym2612"
    },
    {
      "channel": 2,
      "note": 71,
      "start": 53.8412,
      "duration": 0.0825,
      "velocity": 106,
      "chip": "ym2612"
    },
    {
      "channel": 3,
      "note": 71,
      "start": 53.8419,
      "duration": 0.0821,
      "velocity": 106,
      "chip": "ym2612"
    },
    {
      "channel": 1,
      "note": 62,
      "start": 53.9906,
      "duration": 0.0835,
      "velocity": 101,
      "chip": "ym2612"
    },
    {
      "channel": 2,
      "note": 74,
      "start": 53.9913,
      "duration": 0.0831,
      "velocity": 106,
      "chip": "ym2612"
    },
    {
      "channel": 3,
      "note": 78,
      "start": 53.9919,
      "duration": 0.0828,
      "velocity": 106,
      "chip": "ym2612"
    },
    {
      "channel": 1,
      "note": 62,
      "start": 54.1268,
      "duration": 0.0828,
      "velocity": 101,
      "chip": "ym2612"
    },
    {
      "channel": 2,
      "note": 71,
      "start": 54.1274,
      "duration": 0.0828,
      "velocity": 106,
      "chip": "ym2612"
    },
    {
      "channel": 3,
      "note": 71,
      "start": 54.1281,
      "duration": 0.0828,
      "velocity": 106,
      "chip": "ym2612"
    },
    {
      "channel": 1,
      "note": 62,
      "start": 54.2101,
      "duration": 0.0662,
      "velocity": 101,
      "chip": "ym2612"
    },
    {
      "channel": 2,
      "note": 74,
      "start": 54.2108,
      "duration": 0.0658,
      "velocity": 106,
      "chip": "ym2612"
    },
    {
      "channel": 3,
      "note": 78,
      "start": 54.2114,
      "duration": 0.0655,
      "velocity": 106,
      "chip": "ym2612"
    },
    {
      "channel": 1,
      "note": 62,
      "start": 54.4271,
      "duration": 0.0237,
      "velocity": 101,
      "chip": "ym2612"
    },
    {
      "channel": 2,
      "note": 71,
      "start": 54.4277,
      "duration": 0.0683,
      "velocity": 106,
      "chip": "ym2612"
    },
    {
      "channel": 3,
      "note": 71,
      "start": 54.4283,
      "duration": 0.068,
      "velocity": 106,
      "chip": "ym2612"
    },
    {
      "channel": 1,
      "note": 57,
      "start": 54.563,
      "duration": 0.0996,
      "velocity": 101,
      "chip": "ym2612"
    },
    {
      "channel": 2,
      "note": 78,
      "start": 54.5637,
      "duration": 0.0825,
      "velocity": 106,
      "chip": "ym2612"
    },
    {
      "channel": 3,
      "note": 81,
      "start": 54.5644,
      "duration": 0.0821,
      "velocity": 106,
      "chip": "ym2612"
    },
    {
      "channel": 1,
      "note": 62,
      "start": 54.7965,
      "duration": 0.0183,
      "velocity": 101,
      "chip": "ym2612"
    },
    {
      "channel": 2,
      "note": 78,
      "start": 54.7971,
      "duration": 0.1354,
      "velocity": 106,
      "chip": "ym2612"
    },
    {
      "channel": 3,
      "note": 81,
      "start": 54.7978,
      "duration": 0.1353,
      "velocity": 106,
      "chip": "ym2612"
    },
    {
      "channel": 1,
      "note": 57,
      "start": 54.9323,
      "duration": 0.0996,
      "velocity": 101,
      "chip": "ym2612"
    },
    {
      "channel": 2,
      "note": 71,
      "start": 54.9329,
      "duration": 0.2173,
      "velocity": 106,
      "chip": "ym2612"
    },
    {
      "channel": 3,
      "note": 71,
      "start": 54.9336,
      "duration": 0.2173,
      "velocity": 106,
      "chip": "ym2612"
    },
    {
      "channel": 0,
      "note": 103,
      "start": 55.1493,
      "duration": 0.3689,
      "velocity": 91,
      "chip": "ym2612"
    },
    {
      "channel": 1,
      "note": 64,
      "start": 55.1499,
      "duration": 0.0189,
      "velocity": 101,
      "chip": "ym2612"
    },
    {
      "channel": 2,
      "note": 76,
      "start": 55.1507,
      "duration": 0.0184,
      "velocity": 106,
      "chip": "ym2612"
    },
    {
      "channel": 3,
      "note": 80,
      "start": 55.1514,
      "duration": 0.018,
      "velocity": 106,
      "chip": "ym2612"
    },
    {
      "channel": 4,
      "note": 103,
      "start": 55.2357,
      "duration": 0.3693,
      "velocity": 91,
      "chip": "ym2612"
    },
    {
      "channel": 1,
      "note": 64,
      "start": 55.3021,
      "duration": 0.0661,
      "velocity": 101,
      "chip": "ym2612"
    },
    {
      "channel": 2,
      "note": 71,
      "start": 55.3027,
      "duration": 0.0658,
      "velocity": 106,
      "chip": "ym2612"
    },
    {
      "channel": 3,
      "note": 71,
      "start": 55.3033,
      "duration": 0.0654,
      "velocity": 106,
      "chip": "ym2612"
    },
    {
      "channel": 1,
      "note": 64,
      "start": 55.4354,
      "duration": 0.0835,
      "velocity": 101,
      "chip": "ym2612"
    },
    {
      "channel": 2,
      "note": 76,
      "start": 55.436,
      "duration": 0.0831,
      "velocity": 106,
      "chip": "ym2612"
    },
    {
      "channel": 3,
      "note": 80,
      "start": 55.4367,
      "duration": 0.0828,
      "velocity": 106,
      "chip": "ym2612"
    },
    {
      "channel": 0,
      "note": 100,
      "start": 55.5187,
      "duration": 0.0354,
      "velocity": 91,
      "chip": "ym2612"
    },
    {
      "channel": 1,
      "note": 64,
      "start": 55.588,
      "duration": 0.0669,
      "velocity": 101,
      "chip": "ym2612"
    },
    {
      "channel": 2,
      "note": 71,
      "start": 55.5887,
      "duration": 0.0668,
      "velocity": 106,
      "chip": "ym2612"
    },
    {
      "channel": 3,
      "note": 71,
      "start": 55.5893,
      "duration": 0.0668,
      "velocity": 106,
      "chip": "ym2612"
    },
    {
      "channel": 4,
      "note": 100,
      "start": 55.6056,
      "duration": 0.1163,
      "velocity": 91,
      "chip": "ym2612"
    },
    {
      "channel": 0,
      "note": 95,
      "start": 55.6547,
      "duration": 1.4607,
      "velocity": 91,
      "chip": "ym2612"
    },
    {
      "channel": 1,
      "note": 64,
      "start": 55.6554,
      "duration": 0.0824,
      "velocity": 101,
      "chip": "ym2612"
    },
    {
      "channel": 2,
      "note": 76,
      "start": 55.656,
      "duration": 0.0821,
      "velocity": 106,
      "chip": "ym2612"
    },
    {
      "channel": 3,
      "note": 80,
      "start": 55.6566,
      "duration": 0.0817,
      "velocity": 106,
      "chip": "ym2612"
    },
    {
      "channel": 4,
      "note": 95,
      "start": 55.8219,
      "duration": 1.4605,
      "velocity": 91,
      "chip": "ym2612"
    },
    {
      "channel": 1,
      "note": 64,
      "start": 55.8884,
      "duration": 0.019,
      "velocity": 101,
      "chip": "ym2612"
    },
    {
      "channel": 2,
      "note": 76,
      "start": 55.8891,
      "duration": 0.0153,
      "velocity": 106,
      "chip": "ym2612"
    },
    {
      "channel": 3,
      "note": 80,
      "start": 55.8898,
      "duration": 0.0149,
      "velocity": 106,
      "chip": "ym2612"
    },
    {
      "channel": 1,
      "note": 59,
      "start": 56.0243,
      "duration": 0.0829,
      "velocity": 101,
      "chip": "ym2612"
    },
    {
      "channel": 1,
      "note": 64,
      "start": 56.2413,
      "duration": 0.0198,
      "velocity": 101,
      "chip": "ym2612"
    },
    {
      "channel": 1,
      "note": 59,
      "start": 56.3772,
      "duration": 0.0995,
      "velocity": 101,
      "chip": "ym2612"
    },
    {
      "channel": 2,
      "note": 71,
      "start": 56.3778,
      "duration": 0.149,
      "velocity": 106,
      "chip": "ym2612"
    },
    {
      "channel": 3,
      "note": 71,
      "start": 56.3785,
      "duration": 0.1486,
      "velocity": 106,
      "chip": "ym2612"
    },
    {
      "channel": 1,
      "note": 64,
      "start": 56.6108,
      "duration": 0.0166,
      "velocity": 101,
      "chip": "ym2612"
    },
    {
      "channel": 2,
      "note": 76,
      "start": 56.6115,
      "duration": 0.0162,
      "velocity": 106,
      "chip": "ym2612"
    },
    {
      "channel": 3,
      "note": 80,
      "start": 56.6122,
      "duration": 0.0158,
      "velocity": 106,
      "chip": "ym2612"
    },
    {
      "channel": 1,
      "note": 64,
      "start": 56.7467,
      "duration": 0.0662,
      "velocity": 101,
      "chip": "ym2612"
    },
    {
      "channel": 2,
      "note": 71,
      "start": 56.7473,
      "duration": 0.0658,
      "velocity": 106,
      "chip": "ym2612"
    },
    {
      "channel": 3,
      "note": 71,
      "start": 56.748,
      "duration": 0.0655,
      "velocity": 106,
      "chip": "ym2612"
    },
    {
      "channel": 1,
      "note": 64,
      "start": 56.8967,
      "duration": 0.0664,
      "velocity": 101,
      "chip": "ym2612"
    },
    {
      "channel": 2,
      "note": 76,
      "start": 56.8973,
      "duration": 0.066,
      "velocity": 106,
      "chip": "ym2612"
    },
    {
      "channel": 3,
      "note": 80,
      "start": 56.898,
      "duration": 0.0656,
      "velocity": 106,
      "chip": "ym2612"
    },
    {
      "channel": 1,
      "note": 64,
      "start": 57.033,
      "duration": 0.0827,
      "velocity": 101,
      "chip": "ym2612"
    },
    {
      "channel": 2,
      "note": 71,
      "start": 57.0336,
      "duration": 0.0827,
      "velocity": 106,
      "chip": "ym2612"
    },
    {
      "channel": 3,
      "note": 71,
      "start": 57.0343,
      "duration": 0.0827,
      "velocity": 106,
      "chip": "ym2612"
    },
    {
      "channel": 1,
      "note": 64,
      "start": 57.1162,
      "duration": 0.066,
      "velocity": 101,
      "chip": "ym2612"
    },
    {
      "channel": 2,
      "note": 76,
      "start": 57.1168,
      "duration": 0.0656,
      "velocity": 106,
      "chip": "ym2612"
    },
    {
      "channel": 3,
      "note": 80,
      "start": 57.1175,
      "duration": 0.0653,
      "velocity": 106,
      "chip": "ym2612"
    },
    {
      "channel": 0,
      "note": 106,
      "start": 57.3329,
      "duration": 0.0354,
      "velocity": 91,
      "chip": "ym2612"
    },
    {
      "channel": 1,
      "note": 64,
      "start": 57.3336,
      "duration": 0.0183,
      "velocity": 101,
      "chip": "ym2612"
    },
    {
      "channel": 2,
      "note": 71,
      "start": 57.3342,
      "duration": 0.0675,
      "velocity": 106,
      "chip": "ym2612"
    },
    {
      "channel": 3,
      "note": 71,
      "start": 57.3349,
      "duration": 0.0671,
      "velocity": 106,
      "chip": "ym2612"
    },
    {
      "channel": 4,
      "note": 106,
      "start": 57.4192,
      "duration": 0.1169,
      "velocity": 91,
      "chip": "ym2612"
    },
    {
      "channel": 0,
      "note": 107,
      "start": 57.4688,
      "duration": 0.3688,
      "velocity": 91,
      "chip": "ym2612"
    },
    {
      "channel": 1,
      "note": 59,
      "start": 57.4695,
      "duration": 0.099,
      "velocity": 101,
      "chip": "ym2612"
    },
    {
      "channel": 2,
      "note": 76,
      "start": 57.4701,
      "duration": 0.082,
      "velocity": 106,
      "chip": "ym2612"
    },
    {
      "channel": 3,
      "note": 80,
      "start": 57.4708,
      "duration": 0.0816,
      "velocity": 106,
      "chip": "ym2612"
    },
    {
      "channel": 4,
      "note": 107,
      "start": 57.636,
      "duration": 0.3692,
      "velocity": 91,
      "chip": "ym2612"
    },
    {
      "channel": 1,
      "note": 64,
      "start": 57.6859,
      "duration": 0.0224,
      "velocity": 101,
      "chip": "ym2612"
    },
    {
      "channel": 2,
      "note": 76,
      "start": 57.6865,
      "duration": 0.1525,
      "velocity": 106,
      "chip": "ym2612"
    },
    {
      "channel": 3,
      "note": 80,
      "start": 57.6872,
      "duration": 0.1524,
      "velocity": 106,
      "chip": "ym2612"
    },
    {
      "channel": 0,
      "note": 105,
      "start": 57.8383,
      "duration": 0.3523,
      "velocity": 91,
      "chip": "ym2612"
    },
    {
      "channel": 1,
      "note": 59,
      "start": 57.8389,
      "duration": 0.0824,
      "velocity": 101,
      "chip": "ym2612"
    },
    {
      "channel": 2,
      "note": 71,
      "start": 57.8395,
      "duration": 0.216,
      "velocity": 106,
      "chip": "ym2612"
    },
    {
      "channel": 3,
      "note": 71,
      "start": 57.8402,
      "duration": 0.216,
      "velocity": 106,
      "chip": "ym2612"
    },
    {
      "channel": 4,
      "note": 105,
      "start": 58.0058,
      "duration": 0.3522,
      "velocity": 91,
      "chip": "ym2612"
    },
    {
      "channel": 1,
      "note": 62,
      "start": 58.0554,
      "duration": 0.0192,
      "velocity": 101,
      "chip": "ym2612"
    },
    {
      "channel": 2,
      "note": 74,
      "start": 58.056,
      "duration": 0.0188,
      "velocity": 106,
      "chip": "ym2612"
    },
    {
      "channel": 3,
      "note": 78,
      "start": 58.0567,
      "duration": 0.0184,
      "velocity": 106,
      "chip": "ym2612"
    },
    {
      "channel": 0,
      "note": 104,
      "start": 58.1911,
      "duration": 0.1161,
      "velocity": 91,
      "chip": "ym2612"
    },
    {
      "channel": 1,
      "note": 62,
      "start": 58.1917,
      "duration": 0.0825,
      "velocity": 101,
      "chip": "ym2612"
    },
    {
      "channel": 2,
      "note": 71,
      "start": 58.1924,
      "duration": 0.0821,
      "velocity": 106,
      "chip": "ym2612"
    },
    {
      "channel": 3,
      "note": 71,
      "start": 58.1931,
      "duration": 0.0817,
      "velocity": 106,
      "chip": "ym2612"
    },
    {
      "channel": 1,
      "note": 62,
      "start": 58.341,
      "duration": 0.0838,
      "velocity": 101,
      "chip": "ym2612"
    },
    {
      "channel": 2,
      "note": 74,
      "start": 58.3417,
      "duration": 0.0834,
      "velocity": 106,
      "chip": "ym2612"
    },
    {
      "channel": 3,
      "note": 78,
      "start": 58.3424,
      "duration": 0.083,
      "velocity": 106,
      "chip": "ym2612"
    },
    {
      "channel": 4,
      "note": 104,
      "start": 58.3587,
      "duration": 0.0768,
      "velocity": 91,
      "chip": "ym2612"
    },
    {
      "channel": 0,
      "note": 102,
      "start": 58.4246,
      "duration": 2.5384,
      "velocity": 91,
      "chip": "ym2612"
    },
    {
      "channel": 1,
      "note": 62,
      "start": 58.4941,
      "duration": 0.0661,
      "velocity": 101,
      "chip": "ym2612"
    },
    {
      "channel": 2,
      "note": 71,
      "start": 58.4947,
      "duration": 0.0661,
      "velocity": 106,
      "chip": "ym2612"
    },
    {
      "channel": 3,
      "note": 71,
      "start": 58.4954,
      "duration": 0.0661,
      "velocity": 106,
      "chip": "ym2612"
    },
    {
      "channel": 4,
      "note": 102,
      "start": 58.5117,
      "duration": 2.538,
      "velocity": 91,
      "chip": "ym2612"
    },
    {
      "channel": 1,
      "note": 62,
      "start": 58.5608,
      "duration": 0.0661,
      "velocity": 101,
      "chip": "ym2612"
    },
    {
      "channel": 2,
      "note": 74,
      "start": 58.5614,
      "duration": 0.0658,
      "velocity": 106,
      "chip": "ym2612"
    },
    {
      "channel": 3,
      "note": 78,
      "start": 58.562,
      "duration": 0.0654,
      "velocity": 106,
      "chip": "ym2612"
    },
    {
      "channel": 1,
      "note": 62,
      "start": 58.7776,
      "duration": 0.0227,
      "velocity": 101,
      "chip": "ym2612"
    },
    {
      "channel": 2,
      "note": 74,
      "start": 58.7783,
      "duration": 0.0189,
      "velocity": 106,
      "chip": "ym2612"
    },
    {
      "channel": 3,
      "note": 78,
      "start": 58.7789,
      "duration": 0.0185,
      "velocity": 106,
      "chip": "ym2612"
    },
    {
      "channel": 1,
      "note": 57,
      "start": 58.9303,
      "duration": 0.0828,
      "velocity": 101,
      "chip": "ym2612"
    },
    {
      "channel": 1,
      "note": 62,
      "start": 59.1473,
      "duration": 0.0168,
      "velocity": 101,
      "chip": "ym2612"
    },
    {
      "channel": 1,
      "note": 57,
      "start": 59.2832,
      "duration": 0.0996,
      "velocity": 101,
      "chip": "ym2612"
    },
    {
      "channel": 2,
      "note": 71,
      "start": 59.2838,
      "duration": 0.149,
      "velocity": 106,
      "chip": "ym2612"
    },
    {
      "channel": 3,
      "note": 71,
      "start": 59.2845,
      "duration": 0.1485,
      "velocity": 106,
      "chip": "ym2612"
    },
    {
      "channel": 1,
      "note": 62,
      "start": 59.5001,
      "duration": 0.0202,
      "velocity": 101,
      "chip": "ym2612"
    },
    {
      "channel": 2,
      "note": 74,
      "start": 59.5008,
      "duration": 0.0199,
      "velocity": 106,
      "chip": "ym2612"
    },
    {
      "channel": 3,
      "note": 78,
      "start": 59.5014,
      "duration": 0.0195,
      "velocity": 106,
      "chip": "ym2612"
    },
    {
      "channel": 1,
      "note": 62,
      "start": 59.6527,
      "duration": 0.0662,
      "velocity": 101,
      "chip": "ym2612"
    },
    {
      "channel": 2,
      "note": 71,
      "start": 59.6534,
      "duration": 0.0658,
      "velocity": 106,
      "chip": "ym2612"
    },
    {
      "channel": 3,
      "note": 71,
      "start": 59.654,
      "duration": 0.0655,
      "velocity": 106,
      "chip": "ym2612"
    },
    {
      "channel": 1,
      "note": 62,
      "start": 59.8028,
      "duration": 0.0666,
      "velocity": 101,
      "chip": "ym2612"
    },
    {
      "channel": 2,
      "note": 74,
      "start": 59.8034,
      "duration": 0.0662,
      "velocity": 106,
      "chip": "ym2612"
    },
    {
      "channel": 3,
      "note": 78,
      "start": 59.804,
      "duration": 0.0659,
      "velocity": 106,
      "chip": "ym2612"
    },
    {
      "channel": 1,
      "note": 62,
      "start": 59.9389,
      "duration": 0.0662,
      "velocity": 101,
      "chip": "ym2612"
    },
    {
      "channel": 2,
      "note": 71,
      "start": 59.9395,
      "duration": 0.0661,
      "velocity": 106,
      "chip": "ym2612"
    },
    {
      "channel": 3,
      "note": 71,
      "start": 59.9402,
      "duration": 0.0661,
      "velocity": 106,
      "chip": "ym2612"
    },
    {
      "channel": 1,
      "note": 62,
      "start": 60.0055,
      "duration": 0.0828,
      "velocity": 101,
      "chip": "ym2612"
    },
    {
      "channel": 2,
      "note": 74,
      "start": 60.0062,
      "duration": 0.0825,
      "velocity": 106,
      "chip": "ym2612"
    },
    {
      "channel": 3,
      "note": 78,
      "start": 60.0068,
      "duration": 0.0822,
      "velocity": 106,
      "chip": "ym2612"
    },
    {
      "channel": 1,
      "note": 62,
      "start": 60.2391,
      "duration": 0.02,
      "velocity": 101,
      "chip": "ym2612"
    },
    {
      "channel": 2,
      "note": 71,
      "start": 60.2398,
      "duration": 0.0683,
      "velocity": 106,
      "chip": "ym2612"
    },
    {
      "channel": 3,
      "note": 71,
      "start": 60.2404,
      "duration": 0.068,
      "velocity": 106,
      "chip": "ym2612"
    },
    {
      "channel": 1,
      "note": 57,
      "start": 60.3751,
      "duration": 0.0996,
      "velocity": 101,
      "chip": "ym2612"
    },
    {
      "channel": 2,
      "note": 78,
      "start": 60.3758,
      "duration": 0.0658,
      "velocity": 106,
      "chip": "ym2612"
    },
    {
      "channel": 3,
      "note": 81,
      "start": 60.3764,
      "duration": 0.0654,
      "velocity": 106,
      "chip": "ym2612"
    },
    {
      "channel": 1,
      "note": 66,
      "start": 60.592,
      "duration": 0.0234,
      "velocity": 101,
      "chip": "ym2612"
    },
    {
      "channel": 2,
      "note": 78,
      "start": 60.5927,
      "duration": 0.1522,
      "velocity": 106,
      "chip": "ym2612"
    },
    {
      "channel": 3,
      "note": 81,
      "start": 60.5933,
      "duration": 0.1522,
      "velocity": 106,
      "chip": "ym2612"
    },
    {
      "channel": 1,
      "note": 62,
      "start": 60.7447,
      "duration": 0.0828,
      "velocity": 101,
      "chip": "ym2612"
    },
    {
      "channel": 2,
      "note": 71,
      "start": 60.7454,
      "duration": 0.2193,
      "velocity": 106,
      "chip": "ym2612"
    },
    {
      "channel": 3,
      "note": 71,
      "start": 60.746,
      "duration": 0.2193,
      "velocity": 106,
      "chip": "ym2612"
    },
    {
      "channel": 0,
      "note": 103,
      "start": 60.9637,
      "duration": 0.3499,
      "velocity": 91,
      "chip": "ym2612"
    },
    {
      "channel": 1,
      "note": 64,
      "start": 60.9644,
      "duration": 0.0169,
      "velocity": 101,
      "chip": "ym2612"
    },
    {
      "channel": 2,
      "note": 76,
      "start": 60.9651,
      "duration": 0.0165,
      "velocity": 106,
      "chip": "ym2612"
    },
    {
      "channel": 3,
      "note": 80,
      "start": 60.9658,
      "duration": 0.0161,
      "velocity": 106,
      "chip": "ym2612"
    },
    {
      "channel": 4,
      "note": 103,
      "start": 61.0502,
      "duration": 0.3502,
      "velocity": 91,
      "chip": "ym2612"
    },
    {
      "channel": 1,
      "note": 64,
      "start": 61.0975,
      "duration": 0.0828,
      "velocity": 101,
      "chip": "ym2612"
    },
    {
      "channel": 2,
      "note": 71,
      "start": 61.0982,
      "duration": 0.0824,
      "velocity": 106,
      "chip": "ym2612"
    },
    {
      "channel": 3,
      "note": 71,
      "start": 61.0988,
      "duration": 0.0821,
      "velocity": 106,
      "chip": "ym2612"
    },
    {
      "channel": 1,
      "note": 64,
      "start": 61.2475,
      "duration": 0.0668,
      "velocity": 101,
      "chip": "ym2612"
    },
    {
      "channel": 2,
      "note": 76,
      "start": 61.2482,
      "duration": 0.0665,
      "velocity": 106,
      "chip": "ym2612"
    },
    {
      "channel": 3,
      "note": 80,
      "start": 61.2488,
      "duration": 0.0661,
      "velocity": 106,
      "chip": "ym2612"
    },
    {
      "channel": 0,
      "note": 100,
      "start": 61.3142,
      "duration": 0.0354,
      "velocity": 91,
      "chip": "ym2612"
    },
    {
      "channel": 1,
      "note": 64,
      "start": 61.3834,
      "duration": 0.0835,
      "velocity": 101,
      "chip": "ym2612"
    },
    {
      "channel": 2,
      "note": 71,
      "start": 61.3841,
      "duration": 0.0835,
      "velocity": 106,
      "chip": "ym2612"
    },
    {
      "channel": 3,
      "note": 71,
      "start": 61.3848,
      "duration": 0.0835,
      "velocity": 106,
      "chip": "ym2612"
    },
    {
      "channel": 4,
      "note": 100,
      "start": 61.4011,
      "duration": 0.1163,
      "velocity": 91,
      "chip": "ym2612"
    },
    {
      "channel": 0,
      "note": 95,
      "start": 61.4668,
      "duration": 1.444,
      "velocity": 91,
      "chip": "ym2612"
    },
    {
      "channel": 1,
      "note": 64,
      "start": 61.4675,
      "duration": 0.0657,
      "velocity": 101,
      "chip": "ym2612"
    },
    {
      "channel": 2,
      "note": 76,
      "start": 61.4681,
      "duration": 0.0654,
      "velocity": 106,
      "chip": "ym2612"
    },
    {
      "channel": 3,
      "note": 80,
      "start": 61.4687,
      "duration": 0.065,
      "velocity": 106,
      "chip": "ym2612"
    },
    {
      "channel": 4,
      "note": 95,
      "start": 61.634,
      "duration": 1.4438,
      "velocity": 91,
      "chip": "ym2612"
    },
    {
      "channel": 1,
      "note": 64,
      "start": 61.6839,
      "duration": 0.022,
      "velocity": 101,
      "chip": "ym2612"
    },
    {
      "channel": 2,
      "note": 76,
      "start": 61.6845,
      "duration": 0.0153,
      "velocity": 106,
      "chip": "ym2612"
    },
    {
      "channel": 3,
      "note": 80,
      "start": 61.6851,
      "duration": 0.015,
      "velocity": 106,
      "chip": "ym2612"
    },
    {
      "channel": 1,
      "note": 59,
      "start": 61.8198,
      "duration": 0.0996,
      "velocity": 101,
      "chip": "ym2612"
    },
    {
      "channel": 1,
      "note": 64,
      "start": 62.0534,
      "duration": 0.0167,
      "velocity": 101,
      "chip": "ym2612"
    },
    {
      "channel": 1,
      "note": 59,
      "start": 62.1893,
      "duration": 0.0828,
      "velocity": 101,
      "chip": "ym2612"
    },
    {
      "channel": 2,
      "note": 71,
      "start": 62.19,
      "duration": 0.149,
      "velocity": 106,
      "chip": "ym2612"
    },
    {
      "channel": 3,
      "note": 71,
      "start": 62.1907,
      "duration": 0.1485,
      "velocity": 106,
      "chip": "ym2612"
    },
    {
      "channel": 1,
      "note": 64,
      "start": 62.4063,
      "duration": 0.0202,
      "velocity": 101,
      "chip": "ym2612"
    },
    {
      "channel": 2,
      "note": 76,
      "start": 62.407,
      "duration": 0.0198,
      "velocity": 106,
      "chip": "ym2612"
    },
    {
      "channel": 3,
      "note": 80,
      "start": 62.4076,
      "duration": 0.0195,
      "velocity": 106,
      "chip": "ym2612"
    },
    {
      "channel": 1,
      "note": 64,
      "start": 62.5589,
      "duration": 0.0662,
      "velocity": 101,
      "chip": "ym2612"
    },
    {
      "channel": 2,
      "note": 71,
      "start": 62.5595,
      "duration": 0.0658,
      "velocity": 106,
      "chip": "ym2612"
    },
    {
      "channel": 3,
      "note": 71,
      "start": 62.5602,
      "duration": 0.0655,
      "velocity": 106,
      "chip": "ym2612"
    },
    {
      "channel": 1,
      "note": 64,
      "start": 62.6922,
      "duration": 0.0831,
      "velocity": 101,
      "chip": "ym2612"
    },
    {
      "channel": 2,
      "note": 76,
      "start": 62.6929,
      "duration": 0.0827,
      "velocity": 106,
      "chip": "ym2612"
    },
    {
      "channel": 3,
      "note": 80,
      "start": 62.6935,
      "duration": 0.0824,
      "velocity": 106,
      "chip": "ym2612"
    },
    {
      "channel": 1,
      "note": 64,
      "start": 62.8451,
      "duration": 0.066,
      "velocity": 101,
      "chip": "ym2612"
    },
    {
      "channel": 2,
      "note": 71,
      "start": 62.8457,
      "duration": 0.066,
      "velocity": 106,
      "chip": "ym2612"
    },
    {
      "channel": 3,
      "note": 71,
      "start": 62.8464,
      "duration": 0.066,
      "velocity": 106,
      "chip": "ym2612"
    },
    {
      "channel": 1,
      "note": 64,
      "start": 62.9117,
      "duration": 0.0826,
      "velocity": 101,
      "chip": "ym2612"
    },
    {
      "channel": 2,
      "note": 76,
      "start": 62.9123,
      "duration": 0.0822,
      "velocity": 106,
      "chip": "ym2612"
    },
    {
      "channel": 3,
      "note": 80,
      "start": 62.9129,
      "duration": 0.0819,
      "velocity": 106,
      "chip": "ym2612"
    },
    {
      "channel": 0,
      "note": 103,
      "start": 63.1283,
      "duration": 0.0354,
      "velocity": 91,
      "chip": "ym2612"
    },
    {
      "channel": 1,
      "note": 64,
      "start": 63.129,
      "duration": 0.0216,
      "velocity": 101,
      "chip": "ym2612"
    },
    {
      "channel": 2,
      "note": 71,
      "start": 63.1297,
      "duration": 0.0676,
      "velocity": 106,
      "chip": "ym2612"
    },
    {
      "channel": 3,
      "note": 71,
      "start": 63.1303,
      "duration": 0.0672,
      "velocity": 106,
      "chip": "ym2612"
    },
    {
      "channel": 4,
      "note": 103,
      "start": 63.2146,
      "duration": 0.1169,
      "velocity": 91,
      "chip": "ym2612"
    },
    {
      "channel": 0,
      "note": 104,
      "start": 63.281,
      "duration": 0.2522,
      "velocity": 91,
      "chip": "ym2612"
    },
    {
      "channel": 1,
      "note": 59,
      "start": 63.2816,
      "duration": 0.0824,
      "velocity": 101,
      "chip": "ym2612"
    },
    {
      "channel": 2,
      "note": 76,
      "start": 63.2822,
      "duration": 0.0653,
      "velocity": 106,
      "chip": "ym2612"
    },
    {
      "channel": 3,
      "note": 80,
      "start": 63.2829,
      "duration": 0.0649,
      "velocity": 106,
      "chip": "ym2612"
    },
    {
      "channel": 4,
      "note": 104,
      "start": 63.4482,
      "duration": 0.2532,
      "velocity": 91,
      "chip": "ym2612"
    },
    {
      "channel": 1,
      "note": 64,
      "start": 63.498,
      "duration": 0.0224,
      "velocity": 101,
      "chip": "ym2612"
    },
    {
      "channel": 2,
      "note": 76,
      "start": 63.4987,
      "duration": 0.1359,
      "velocity": 106,
      "chip": "ym2612"
    },
    {
      "channel": 3,
      "note": 80,
      "start": 63.4993,
      "duration": 0.1359,
      "velocity": 106,
      "chip": "ym2612"
    },
    {
      "channel": 0,
      "note": 104,
      "start": 63.6338,
      "duration": 0.3689,
      "velocity": 91,
      "chip": "ym2612"
    },
    {
      "channel": 1,
      "note": 59,
      "start": 63.6345,
      "duration": 0.099,
      "velocity": 101,
      "chip": "ym2612"
    },
    {
      "channel": 2,
      "note": 71,
      "start": 63.6351,
      "duration": 0.2326,
      "velocity": 106,
      "chip": "ym2612"
    },
    {
      "channel": 3,
      "note": 71,
      "start": 63.6357,
      "duration": 0.2327,
      "velocity": 106,
      "chip": "ym2612"
    },
    {
      "channel": 4,
      "note": 104,
      "start": 63.8014,
      "duration": 0.3689,
      "velocity": 91,
      "chip": "ym2612"
    },
    {
      "channel": 1,
      "note": 62,
      "start": 63.8676,
      "duration": 0.0161,
      "velocity": 101,
      "chip": "ym2612"
    },
    {
      "channel": 2,
      "note": 74,
      "start": 63.8683,
      "duration": 0.0158,
      "velocity": 106,
      "chip": "ym2612"
    },
    {
      "channel": 3,
      "note": 78,
      "start": 63.869,
      "duration": 0.0154,
      "velocity": 106,
      "chip": "ym2612"
    },
    {
      "channel": 0,
      "note": 104,
      "start": 64.0034,
      "duration": 0.1161,
      "velocity": 91,
      "chip": "ym2612"
    },
    {
      "channel": 1,
      "note": 62,
      "start": 64.004,
      "duration": 0.0657,
      "velocity": 101,
      "chip": "ym2612"
    },
    {
      "channel": 2,
      "note": 71,
      "start": 64.0046,
      "duration": 0.0653,
      "velocity": 106,
      "chip": "ym2612"
    },
    {
      "channel": 3,
      "note": 71,
      "start": 64.0053,
      "duration": 0.065,
      "velocity": 106,
      "chip": "ym2612"
    },
    {
      "channel": 1,
      "note": 62,
      "start": 64.1534,
      "duration": 0.067,
      "velocity": 101,
      "chip": "ym2612"
    },
    {
      "channel": 2,
      "note": 74,
      "start": 64.1541,
      "duration": 0.0666,
      "velocity": 106,
      "chip": "ym2612"
    },
    {
      "channel": 3,
      "note": 78,
      "start": 64.1548,
      "duration": 0.0662,
      "velocity": 106,
      "chip": "ym2612"
    },
    {
      "channel": 4,
      "note": 104,
      "start": 64.1709,
      "duration": 0.063,
      "velocity": 91,
      "chip": "ym2612"
    },
    {
      "channel": 0,
      "note": 102,
      "start": 64.2202,
      "duration": 2.1833,
      "velocity": 91,
      "chip": "ym2612"
    },
    {
      "channel": 1,
      "note": 62,
      "start": 64.2898,
      "duration": 0.0828,
      "velocity": 101,
      "chip": "ym2612"
    },
    {
      "channel": 2,
      "note": 71,
      "start": 64.2904,
      "duration": 0.0828,
      "velocity": 106,
      "chip": "ym2612"
    },
    {
      "channel": 3,
      "note": 71,
      "start": 64.2911,
      "duration": 0.0828,
      "velocity": 106,
      "chip": "ym2612"
    },
    {
      "channel": 4,
      "note": 102,
      "start": 64.3073,
      "duration": 2.1829,
      "velocity": 91,
      "chip": "ym2612"
    },
    {
      "channel": 1,
      "note": 62,
      "start": 64.3731,
      "duration": 0.0661,
      "velocity": 101,
      "chip": "ym2612"
    },
    {
      "channel": 2,
      "note": 74,
      "start": 64.3738,
      "duration": 0.0658,
      "velocity": 106,
      "chip": "ym2612"
    },
    {
      "channel": 3,
      "note": 78,
      "start": 64.3744,
      "duration": 0.0654,
      "velocity": 106,
      "chip": "ym2612"
    },
    {
      "channel": 1,
      "note": 62,
      "start": 64.59,
      "duration": 0.0193,
      "velocity": 101,
      "chip": "ym2612"
    },
    {
      "channel": 2,
      "note": 74,
      "start": 64.5906,
      "duration": 0.0154,
      "velocity": 106,
      "chip": "ym2612"
    },
    {
      "channel": 3,
      "note": 78,
      "start": 64.5912,
      "duration": 0.0151,
      "velocity": 106,
      "chip": "ym2612"
    },
    {
      "channel": 1,
      "note": 57,
      "start": 64.726,
      "duration": 0.0995,
      "velocity": 101,
      "chip": "ym2612"
    },
    {
      "channel": 1,
      "note": 62,
      "start": 64.9429,
      "duration": 0.02,
      "velocity": 101,
      "chip": "ym2612"
    },
    {
      "channel": 1,
      "note": 57,
      "start": 65.0956,
      "duration": 0.0828,
      "velocity": 101,
      "chip": "ym2612"
    },
    {
      "channel": 2,
      "note": 71,
      "start": 65.0962,
      "duration": 0.1489,
      "velocity": 106,
      "chip": "ym2612"
    },
    {
      "channel": 3,
      "note": 71,
      "start": 65.0968,
      "duration": 0.1485,
      "velocity": 106,
      "chip": "ym2612"
    },
    {
      "channel": 1,
      "note": 62,
      "start": 65.3125,
      "duration": 0.0166,
      "velocity": 101,
      "chip": "ym2612"
    },
    {
      "channel": 2,
      "note": 74,
      "start": 65.3131,
      "duration": 0.0162,
      "velocity": 106,
      "chip": "ym2612"
    },
    {
      "channel": 3,
      "note": 78,
      "start": 65.3138,
      "duration": 0.0159,
      "velocity": 106,
      "chip": "ym2612"
    },
    {
      "channel": 1,
      "note": 62,
      "start": 65.4483,
      "duration": 0.0828,
      "velocity": 101,
      "chip": "ym2612"
    },
    {
      "channel": 2,
      "note": 71,
      "start": 65.449,
      "duration": 0.0825,
      "velocity": 106,
      "chip": "ym2612"
    },
    {
      "channel": 3,
      "note": 71,
      "start": 65.4497,
      "duration": 0.0821,
      "velocity": 106,
      "chip": "ym2612"
    },
    {
      "channel": 1,
      "note": 62,
      "start": 65.5983,
      "duration": 0.0835,
      "velocity": 101,
      "chip": "ym2612"
    },
    {
      "channel": 2,
      "note": 74,
      "start": 65.599,
      "duration": 0.0831,
      "velocity": 106,
      "chip": "ym2612"
    },
    {
      "channel": 3,
      "note": 78,
      "start": 65.5997,
      "duration": 0.0828,
      "velocity": 106,
      "chip": "ym2612"
    },
    {
      "channel": 1,
      "note": 62,
      "start": 65.7346,
      "duration": 0.0828,
      "velocity": 101,
      "chip": "ym2612"
    },
    {
      "channel": 2,
      "note": 71,
      "start": 65.7353,
      "duration": 0.0828,
      "velocity": 106,
      "chip": "ym2612"
    },
    {
      "channel": 3,
      "note": 71,
      "start": 65.7359,
      "duration": 0.0828,
      "velocity": 106,
      "chip": "ym2612"
    },
    {
      "channel": 1,
      "note": 62,
      "start": 65.8179,
      "duration": 0.0662,
      "velocity": 101,
      "chip": "ym2612"
    },
    {
      "channel": 2,
      "note": 74,
      "start": 65.8186,
      "duration": 0.0658,
      "velocity": 106,
      "chip": "ym2612"
    },
    {
      "channel": 3,
      "note": 78,
      "start": 65.8192,
      "duration": 0.0655,
      "velocity": 106,
      "chip": "ym2612"
    },
    {
      "channel": 1,
      "note": 62,
      "start": 66.0349,
      "duration": 0.0237,
      "velocity": 101,
      "chip": "ym2612"
    },
    {
      "channel": 2,
      "note": 71,
      "start": 66.0355,
      "duration": 0.0683,
      "velocity": 106,
      "chip": "ym2612"
    },
    {
      "channel": 3,
      "note": 71,
      "start": 66.0361,
      "duration": 0.068,
      "velocity": 106,
      "chip": "ym2612"
    },
    {
      "channel": 1,
      "note": 57,
      "start": 66.1876,
      "duration": 0.0828,
      "velocity": 101,
      "chip": "ym2612"
    },
    {
      "channel": 2,
      "note": 78,
      "start": 66.1882,
      "duration": 0.0658,
      "velocity": 106,
      "chip": "ym2612"
    },
    {
      "channel": 3,
      "note": 81,
      "start": 66.1888,
      "duration": 0.0654,
      "velocity": 106,
      "chip": "ym2612"
    },
    {
      "channel": 1,
      "note": 62,
      "start": 66.4043,
      "duration": 0.0183,
      "velocity": 101,
      "chip": "ym2612"
    },
    {
      "channel": 2,
      "note": 78,
      "start": 66.4049,
      "duration": 0.1354,
      "velocity": 106,
      "chip": "ym2612"
    },
    {
      "channel": 3,
      "note": 81,
      "start": 66.4056,
      "duration": 0.1353,
      "velocity": 106,
      "chip": "ym2612"
    },
    {
      "channel": 1,
      "note": 57,
      "start": 66.5401,
      "duration": 0.0996,
      "velocity": 101,
      "chip": "ym2612"
    },
    {
      "channel": 2,
      "note": 71,
      "start": 66.5407,
      "duration": 0.2173,
      "velocity": 106,
      "chip": "ym2612"
    },
    {
      "channel": 3,
      "note": 71,
      "start": 66.5415,
      "duration": 0.2173,
      "velocity": 106,
      "chip": "ym2612"
    },
    {
      "channel": 0,
      "note": 103,
      "start": 66.7571,
      "duration": 0.3688,
      "velocity": 91,
      "chip": "ym2612"
    },
    {
      "channel": 1,
      "note": 64,
      "start": 66.7578,
      "duration": 0.0188,
      "velocity": 101,
      "chip": "ym2612"
    },
    {
      "channel": 2,
      "note": 76,
      "start": 66.7585,
      "duration": 0.0184,
      "velocity": 106,
      "chip": "ym2612"
    },
    {
      "channel": 3,
      "note": 80,
      "start": 66.7592,
      "duration": 0.018,
      "velocity": 106,
      "chip": "ym2612"
    },
    {
      "channel": 4,
      "note": 103,
      "start": 66.8435,
      "duration": 0.3692,
      "velocity": 91,
      "chip": "ym2612"
    },
    {
      "channel": 1,
      "note": 64,
      "start": 66.9099,
      "duration": 0.0661,
      "velocity": 101,
      "chip": "ym2612"
    },
    {
      "channel": 2,
      "note": 71,
      "start": 66.9105,
      "duration": 0.0658,
      "velocity": 106,
      "chip": "ym2612"
    },
    {
      "channel": 3,
      "note": 71,
      "start": 66.9111,
      "duration": 0.0654,
      "velocity": 106,
      "chip": "ym2612"
    },
    {
      "channel": 1,
      "note": 64,
      "start": 67.0599,
      "duration": 0.0668,
      "velocity": 101,
      "chip": "ym2612"
    },
    {
      "channel": 2,
      "note": 76,
      "start": 67.0605,
      "duration": 0.0665,
      "velocity": 106,
      "chip": "ym2612"
    },
    {
      "channel": 3,
      "note": 80,
      "start": 67.0611,
      "duration": 0.0661,
      "velocity": 106,
      "chip": "ym2612"
    },
    {
      "channel": 0,
      "note": 100,
      "start": 67.1265,
      "duration": 0.0354,
      "velocity": 91,
      "chip": "ym2612"
    },
    {
      "channel": 1,
      "note": 64,
      "start": 67.1958,
      "duration": 0.0669,
      "velocity": 101,
      "chip": "ym2612"
    },
    {
      "channel": 2,
      "note": 71,
      "start": 67.1965,
      "duration": 0.0668,
      "velocity": 106,
      "chip": "ym2612"
    },
    {
      "channel": 3,
      "note": 71,
      "start": 67.1971,
      "duration": 0.0668,
      "velocity": 106,
      "chip": "ym2612"
    },
    {
      "channel": 4,
      "note": 100,
      "start": 67.2134,
      "duration": 0.1163,
      "velocity": 91,
      "chip": "ym2612"
    },
    {
      "channel": 0,
      "note": 95,
      "start": 67.2625,
      "duration": 1.4607,
      "velocity": 91,
      "chip": "ym2612"
    },
    {
      "channel": 1,
      "note": 64,
      "start": 67.2631,
      "duration": 0.0824,
      "velocity": 101,
      "chip": "ym2612"
    },
    {
      "channel": 2,
      "note": 76,
      "start": 67.2638,
      "duration": 0.082,
      "velocity": 106,
      "chip": "ym2612"
    },
    {
      "channel": 3,
      "note": 80,
      "start": 67.2644,
      "duration": 0.0817,
      "velocity": 106,
      "chip": "ym2612"
    },
    {
      "channel": 4,
      "note": 95,
      "start": 67.4297,
      "duration": 1.4605,
      "velocity": 91,
      "chip": "ym2612"
    },
    {
      "channel": 1,
      "note": 64,
      "start": 67.4962,
      "duration": 0.019,
      "velocity": 101,
      "chip": "ym2612"
    },
    {
      "channel": 2,
      "note": 76,
      "start": 67.4968,
      "duration": 0.0153,
      "velocity": 106,
      "chip": "ym2612"
    },
    {
      "channel": 3,
      "note": 80,
      "start": 67.4976,
      "duration": 0.0149,
      "velocity": 106,
      "chip": "ym2612"
    },
    {
      "channel": 1,
      "note": 59,
      "start": 67.6321,
      "duration": 0.0829,
      "velocity": 101,
      "chip": "ym2612"
    },
    {
      "channel": 1,
      "note": 64,
      "start": 67.8491,
      "duration": 0.0199,
      "velocity": 101,
      "chip": "ym2612"
    },
    {
      "channel": 1,
      "note": 59,
      "start": 68.0016,
      "duration": 0.0828,
      "velocity": 101,
      "chip": "ym2612"
    },
    {
      "channel": 2,
      "note": 71,
      "start": 68.0023,
      "duration": 0.1323,
      "velocity": 106,
      "chip": "ym2612"
    },
    {
      "channel": 3,
      "note": 71,
      "start": 68.003,
      "duration": 0.132,
      "velocity": 106,
      "chip": "ym2612"
    },
    {
      "channel": 1,
      "note": 64,
      "start": 68.2186,
      "duration": 0.0166,
      "velocity": 101,
      "chip": "ym2612"
    },
    {
      "channel": 2,
      "note": 76,
      "start": 68.2193,
      "duration": 0.0162,
      "velocity": 106,
      "chip": "ym2612"
    },
    {
      "channel": 3,
      "note": 80,
      "start": 68.22,
      "duration": 0.0158,
      "velocity": 106,
      "chip": "ym2612"
    },
    {
      "channel": 1,
      "note": 64,
      "start": 68.3545,
      "duration": 0.0828,
      "velocity": 101,
      "chip": "ym2612"
    },
    {
      "channel": 2,
      "note": 71,
      "start": 68.3551,
      "duration": 0.0825,
      "velocity": 106,
      "chip": "ym2612"
    },
    {
      "channel": 3,
      "note": 71,
      "start": 68.3558,
      "duration": 0.0821,
      "velocity": 106,
      "chip": "ym2612"
    },
    {
      "channel": 1,
      "note": 64,
      "start": 68.5045,
      "duration": 0.0664,
      "velocity": 101,
      "chip": "ym2612"
    },
    {
      "channel": 2,
      "note": 76,
      "start": 68.5051,
      "duration": 0.066,
      "velocity": 106,
      "chip": "ym2612"
    },
    {
      "channel": 3,
      "note": 80,
      "start": 68.5058,
      "duration": 0.0656,
      "velocity": 106,
      "chip": "ym2612"
    },
    {
      "channel": 1,
      "note": 64,
      "start": 68.6408,
      "duration": 0.0827,
      "velocity": 101,
      "chip": "ym2612"
    },
    {
      "channel": 2,
      "note": 71,
      "start": 68.6415,
      "duration": 0.0827,
      "velocity": 106,
      "chip": "ym2612"
    },
    {
      "channel": 3,
      "note": 71,
      "start": 68.6421,
      "duration": 0.0827,
      "velocity": 106,
      "chip": "ym2612"
    },
    {
      "channel": 1,
      "note": 64,
      "start": 68.724,
      "duration": 0.066,
      "velocity": 101,
      "chip": "ym2612"
    },
    {
      "channel": 2,
      "note": 76,
      "start": 68.7247,
      "duration": 0.0656,
      "velocity": 106,
      "chip": "ym2612"
    },
    {
      "channel": 3,
      "note": 80,
      "start": 68.7253,
      "duration": 0.0653,
      "velocity": 106,
      "chip": "ym2612"
    },
    {
      "channel": 0,
      "note": 106,
      "start": 68.9407,
      "duration": 0.0354,
      "velocity": 91,
      "chip": "ym2612"
    },
    {
      "channel": 1,
      "note": 64,
      "start": 68.9413,
      "duration": 0.0216,
      "velocity": 101,
      "chip": "ym2612"
    },
    {
      "channel": 2,
      "note": 71,
      "start": 68.942,
      "duration": 0.0676,
      "velocity": 106,
      "chip": "ym2612"
    },
    {
      "channel": 3,
      "note": 71,
      "start": 68.9427,
      "duration": 0.0672,
      "velocity": 106,
      "chip": "ym2612"
    },
    {
      "channel": 4,
      "note": 106,
      "start": 69.027,
      "duration": 0.1169,
      "velocity": 91,
      "chip": "ym2612"
    },
    {
      "channel": 0,
      "note": 107,
      "start": 69.0767,
      "duration": 0.3688,
      "velocity": 91,
      "chip": "ym2612"
    },
    {
      "channel": 1,
      "note": 59,
      "start": 69.0773,
      "duration": 0.099,
      "velocity": 101,
      "chip": "ym2612"
    },
    {
      "channel": 2,
      "note": 76,
      "start": 69.078,
      "duration": 0.082,
      "velocity": 106,
      "chip": "ym2612"
    },
    {
      "channel": 3,
      "note": 80,
      "start": 69.0787,
      "duration": 0.0816,
      "velocity": 106,
      "chip": "ym2612"
    },
    {
      "channel": 4,
      "note": 107,
      "start": 69.2439,
      "duration": 0.3692,
      "velocity": 91,
      "chip": "ym2612"
    },
    {
      "channel": 1,
      "note": 64,
      "start": 69.3104,
      "duration": 0.019,
      "velocity": 101,
      "chip": "ym2612"
    },
    {
      "channel": 2,
      "note": 76,
      "start": 69.3111,
      "duration": 0.1358,
      "velocity": 106,
      "chip": "ym2612"
    },
    {
      "channel": 3,
      "note": 80,
      "start": 69.3118,
      "duration": 0.1358,
      "velocity": 106,
      "chip": "ym2612"
    },
    {
      "channel": 0,
      "note": 105,
      "start": 69.4461,
      "duration": 0.3689,
      "velocity": 91,
      "chip": "ym2612"
    },
    {
      "channel": 1,
      "note": 59,
      "start": 69.4468,
      "duration": 0.0824,
      "velocity": 101,
      "chip": "ym2612"
    },
    {
      "channel": 2,
      "note": 71,
      "start": 69.4474,
      "duration": 0.216,
      "velocity": 106,
      "chip": "ym2612"
    },
    {
      "channel": 3,
      "note": 71,
      "start": 69.448,
      "duration": 0.216,
      "velocity": 106,
      "chip": "ym2612"
    },
    {
      "channel": 4,
      "note": 105,
      "start": 69.6137,
      "duration": 0.3522,
      "velocity": 91,
      "chip": "ym2612"
    },
    {
      "channel": 1,
      "note": 62,
      "start": 69.6632,
      "duration": 0.0191,
      "velocity": 101,
      "chip": "ym2612"
    },
    {
      "channel": 2,
      "note": 74,
      "start": 69.6639,
      "duration": 0.0188,
      "velocity": 106,
      "chip": "ym2612"
    },
    {
      "channel": 3,
      "note": 78,
      "start": 69.6646,
      "duration": 0.0184,
      "velocity": 106,
      "chip": "ym2612"
    },
    {
      "channel": 0,
      "note": 104,
      "start": 69.8157,
      "duration": 0.0994,
      "velocity": 91,
      "chip": "ym2612"
    },
    {
      "channel": 1,
      "note": 62,
      "start": 69.8163,
      "duration": 0.0657,
      "velocity": 101,
      "chip": "ym2612"
    },
    {
      "channel": 2,
      "note": 71,
      "start": 69.8169,
      "duration": 0.0653,
      "velocity": 106,
      "chip": "ym2612"
    },
    {
      "channel": 3,
      "note": 71,
      "start": 69.8176,
      "duration": 0.065,
      "velocity": 106,
      "chip": "ym2612"
    },
    {
      "channel": 1,
      "note": 62,
      "start": 69.9489,
      "duration": 0.0839,
      "velocity": 101,
      "chip": "ym2612"
    },
    {
      "channel": 2,
      "note": 74,
      "start": 69.9496,
      "duration": 0.0835,
      "velocity": 106,
      "chip": "ym2612"
    },
    {
      "channel": 3,
      "note": 78,
      "start": 69.9503,
      "duration": 0.0832,
      "velocity": 106,
      "chip": "ym2612"
    },
    {
      "channel": 4,
      "note": 104,
      "start": 69.9666,
      "duration": 0.0768,
      "velocity": 91,
      "chip": "ym2612"
    },
    {
      "channel": 0,
      "note": 102,
      "start": 70.0327,
      "duration": 2.5387,
      "velocity": 106,
      "chip": "ym2612"
    },
    {
      "channel": 1,
      "note": 62,
      "start": 70.102,
      "duration": 0.0661,
      "velocity": 101,
      "chip": "ym2612"
    },
    {
      "channel": 2,
      "note": 71,
      "start": 70.1026,
      "duration": 0.0661,
      "velocity": 106,
      "chip": "ym2612"
    },
    {
      "channel": 3,
      "note": 71,
      "start": 70.1033,
      "duration": 0.0661,
      "velocity": 106,
      "chip": "ym2612"
    },
    {
      "channel": 4,
      "note": 102,
      "start": 70.1195,
      "duration": 2.5384,
      "velocity": 106,
      "chip": "ym2612"
    },
    {
      "channel": 1,
      "note": 62,
      "start": 70.1687,
      "duration": 0.0828,
      "velocity": 101,
      "chip": "ym2612"
    },
    {
      "channel": 2,
      "note": 74,
      "start": 70.1693,
      "duration": 0.0824,
      "velocity": 106,
      "chip": "ym2612"
    },
    {
      "channel": 3,
      "note": 78,
      "start": 70.1699,
      "duration": 0.0821,
      "velocity": 106,
      "chip": "ym2612"
    },
    {
      "channel": 1,
      "note": 62,
      "start": 70.3855,
      "duration": 0.0227,
      "velocity": 101,
      "chip": "ym2612"
    },
    {
      "channel": 2,
      "note": 74,
      "start": 70.3861,
      "duration": 0.0188,
      "velocity": 106,
      "chip": "ym2612"
    },
    {
      "channel": 3,
      "note": 78,
      "start": 70.3868,
      "duration": 0.0185,
      "velocity": 106,
      "chip": "ym2612"
    },
    {
      "channel": 1,
      "note": 57,
      "start": 70.5382,
      "duration": 0.0828,
      "velocity": 101,
      "chip": "ym2612"
    },
    {
      "channel": 1,
      "note": 62,
      "start": 70.7551,
      "duration": 0.0199,
      "velocity": 101,
      "chip": "ym2612"
    },
    {
      "channel": 1,
      "note": 57,
      "start": 70.891,
      "duration": 0.0996,
      "velocity": 101,
      "chip": "ym2612"
    },
    {
      "channel": 2,
      "note": 71,
      "start": 70.8917,
      "duration": 0.149,
      "velocity": 106,
      "chip": "ym2612"
    },
    {
      "channel": 3,
      "note": 71,
      "start": 70.8923,
      "duration": 0.1485,
      "velocity": 106,
      "chip": "ym2612"
    },
    {
      "channel": 1,
      "note": 62,
      "start": 71.1246,
      "duration": 0.0166,
      "velocity": 101,
      "chip": "ym2612"
    },
    {
      "channel": 2,
      "note": 74,
      "start": 71.1253,
      "duration": 0.0162,
      "velocity": 106,
      "chip": "ym2612"
    },
    {
      "channel": 3,
      "note": 78,
      "start": 71.1259,
      "duration": 0.0159,
      "velocity": 106,
      "chip": "ym2612"
    },
    {
      "channel": 1,
      "note": 62,
      "start": 71.2605,
      "duration": 0.0662,
      "velocity": 101,
      "chip": "ym2612"
    },
    {
      "channel": 2,
      "note": 71,
      "start": 71.2612,
      "duration": 0.0658,
      "velocity": 106,
      "chip": "ym2612"
    },
    {
      "channel": 3,
      "note": 71,
      "start": 71.2618,
      "duration": 0.0655,
      "velocity": 106,
      "chip": "ym2612"
    },
    {
      "channel": 1,
      "note": 62,
      "start": 71.4106,
      "duration": 0.0666,
      "velocity": 101,
      "chip": "ym2612"
    },
    {
      "channel": 2,
      "note": 74,
      "start": 71.4112,
      "duration": 0.0662,
      "velocity": 106,
      "chip": "ym2612"
    },
    {
      "channel": 3,
      "note": 78,
      "start": 71.4118,
      "duration": 0.0659,
      "velocity": 106,
      "chip": "ym2612"
    },
    {
      "channel": 1,
      "note": 62,
      "start": 71.5468,
      "duration": 0.0662,
      "velocity": 101,
      "chip": "ym2612"
    },
    {
      "channel": 2,
      "note": 71,
      "start": 71.5475,
      "duration": 0.0661,
      "velocity": 106,
      "chip": "ym2612"
    },
    {
      "channel": 3,
      "note": 71,
      "start": 71.5481,
      "duration": 0.0661,
      "velocity": 106,
      "chip": "ym2612"
    },
    {
      "channel": 1,
      "note": 62,
      "start": 71.6135,
      "duration": 0.0828,
      "velocity": 101,
      "chip": "ym2612"
    },
    {
      "channel": 2,
      "note": 74,
      "start": 71.6141,
      "duration": 0.0825,
      "velocity": 106,
      "chip": "ym2612"
    },
    {
      "channel": 3,
      "note": 78,
      "start": 71.6148,
      "duration": 0.0822,
      "velocity": 106,
      "chip": "ym2612"
    },
    {
      "channel": 1,
      "note": 62,
      "start": 71.8471,
      "duration": 0.02,
      "velocity": 101,
      "chip": "ym2612"
    },
    {
      "channel": 2,
      "note": 71,
      "start": 71.8477,
      "duration": 0.0683,
      "velocity": 106,
      "chip": "ym2612"
    },
    {
      "channel": 3,
      "note": 71,
      "start": 71.8483,
      "duration": 0.068,
      "velocity": 106,
      "chip": "ym2612"
    },
    {
      "channel": 1,
      "note": 57,
      "start": 71.983,
      "duration": 0.0996,
      "velocity": 101,
      "chip": "ym2612"
    },
    {
      "channel": 2,
      "note": 78,
      "start": 71.9837,
      "duration": 0.0825,
      "velocity": 106,
      "chip": "ym2612"
    },
    {
      "channel": 3,
      "note": 81,
      "start": 71.9844,
      "duration": 0.0821,
      "velocity": 106,
      "chip": "ym2612"
    },
    {
      "channel": 1,
      "note": 66,
      "start": 72.2,
      "duration": 0.0234,
      "velocity": 101,
      "chip": "ym2612"
    },
    {
      "channel": 2,
      "note": 78,
      "start": 72.2006,
      "duration": 0.1521,
      "velocity": 106,
      "chip": "ym2612"
    },
    {
      "channel": 3,
      "note": 81,
      "start": 72.2012,
      "duration": 0.1521,
      "velocity": 106,
      "chip": "ym2612"
    },
    {
      "channel": 1,
      "note": 62,
      "start": 72.3526,
      "duration": 0.0828,
      "velocity": 101,
      "chip": "ym2612"
    },
    {
      "channel": 2,
      "note": 71,
      "start": 72.3533,
      "duration": 0.2192,
      "velocity": 106,
      "chip": "ym2612"
    },
    {
      "channel": 3,
      "note": 71,
      "start": 72.3539,
      "duration": 0.2193,
      "velocity": 106,
      "chip": "ym2612"
    },
    {
      "channel": 1,
      "note": 64,
      "start": 72.5722,
      "duration": 0.0153,
      "velocity": 101,
      "chip": "ym2612"
    },
    {
      "channel": 2,
      "note": 76,
      "start": 72.573,
      "duration": 0.0148,
      "velocity": 106,
      "chip": "ym2612"
    },
    {
      "channel": 3,
      "note": 80,
      "start": 72.5737,
      "duration": 0.0144,
      "velocity": 106,
      "chip": "ym2612"
    },
    {
      "channel": 0,
      "note": 76,
      "start": 72.6386,
      "duration": 0.066,
      "velocity": 106,
      "chip": "ym2612"
    },
    {
      "channel": 0,
      "note": 78,
      "start": 72.7052,
      "duration": 0.0827,
      "velocity": 106,
      "chip": "ym2612"
    },
    {
      "channel": 1,
      "note": 64,
      "start": 72.7059,
      "duration": 0.0824,
      "velocity": 101,
      "chip": "ym2612"
    },
    {
      "channel": 2,
      "note": 71,
      "start": 72.7065,
      "duration": 0.0821,
      "velocity": 106,
      "chip": "ym2612"
    },
    {
      "channel": 3,
      "note": 71,
      "start": 72.7071,
      "duration": 0.0817,
      "velocity": 106,
      "chip": "ym2612"
    },
    {
      "channel": 4,
      "note": 76,
      "start": 72.8055,
      "duration": 0.0669,
      "velocity": 106,
      "chip": "ym2612"
    },
    {
      "channel": 0,
      "note": 76,
      "start": 72.8552,
      "duration": 0.0829,
      "velocity": 106,
      "chip": "ym2612"
    },
    {
      "channel": 1,
      "note": 64,
      "start": 72.8558,
      "duration": 0.0831,
      "velocity": 101,
      "chip": "ym2612"
    },
    {
      "channel": 2,
      "note": 76,
      "start": 72.8565,
      "duration": 0.0827,
      "velocity": 106,
      "chip": "ym2612"
    },
    {
      "channel": 3,
      "note": 80,
      "start": 72.8571,
      "duration": 0.0823,
      "velocity": 106,
      "chip": "ym2612"
    },
    {
      "channel": 4,
      "note": 78,
      "start": 72.873,
      "duration": 0.071,
      "velocity": 106,
      "chip": "ym2612"
    },
    {
      "channel": 0,
      "note": 78,
      "start": 72.9388,
      "duration": 0.0123,
      "velocity": 106,
      "chip": "ym2612"
    },
    {
      "channel": 4,
      "note": 76,
      "start": 72.9544,
      "duration": 0.0708,
      "velocity": 106,
      "chip": "ym2612"
    },
    {
      "channel": 0,
      "note": 76,
      "start": 72.9914,
      "duration": 0.0827,
      "velocity": 106,
      "chip": "ym2612"
    },
    {
      "channel": 1,
      "note": 64,
      "start": 72.992,
      "duration": 0.0824,
      "velocity": 101,
      "chip": "ym2612"
    },
    {
      "channel": 2,
      "note": 71,
      "start": 72.9926,
      "duration": 0.0824,
      "velocity": 106,
      "chip": "ym2612"
    },
    {
      "channel": 3,
      "note": 71,
      "start": 72.9933,
      "duration": 0.0824,
      "velocity": 106,
      "chip": "ym2612"
    },
    {
      "channel": 4,
      "note": 78,
      "start": 73.0258,
      "duration": 0.0658,
      "velocity": 106,
      "chip": "ym2612"
    },
    {
      "channel": 1,
      "note": 64,
      "start": 73.0749,
      "duration": 0.0659,
      "velocity": 101,
      "chip": "ym2612"
    },
    {
      "channel": 2,
      "note": 76,
      "start": 73.0755,
      "duration": 0.0656,
      "velocity": 106,
      "chip": "ym2612"
    },
    {
      "channel": 3,
      "note": 80,
      "start": 73.0762,
      "duration": 0.0653,
      "velocity": 106,
      "chip": "ym2612"
    },
    {
      "channel": 4,
      "note": 76,
      "start": 73.1583,
      "duration": 0.083,
      "velocity": 106,
      "chip": "ym2612"
    },
    {
      "channel": 0,
      "note": 77,
      "start": 73.2247,
      "duration": 0.2023,
      "velocity": 106,
      "chip": "ym2612"
    },
    {
      "channel": 1,
      "note": 64,
      "start": 73.2917,
      "duration": 0.0208,
      "velocity": 101,
      "chip": "ym2612"
    },
    {
      "channel": 2,
      "note": 76,
      "start": 73.2924,
      "duration": 0.0173,
      "velocity": 106,
      "chip": "ym2612"
    },
    {
      "channel": 3,
      "note": 80,
      "start": 73.293,
      "duration": 0.017,
      "velocity": 106,
      "chip": "ym2612"
    },
    {
      "channel": 4,
      "note": 77,
      "start": 73.3135,
      "duration": 0.2805,
      "velocity": 106,
      "chip": "ym2612"
    },
    {
      "channel": 0,
      "note": 76,
      "start": 73.4276,
      "duration": 0.0827,
      "velocity": 106,
      "chip": "ym2612"
    },
    {
      "channel": 1,
      "note": 59,
      "start": 73.4283,
      "duration": 0.0989,
      "velocity": 101,
      "chip": "ym2612"
    },
    {
      "channel": 4,
      "note": 76,
      "start": 73.5946,
      "duration": 0.0711,
      "velocity": 106,
      "chip": "ym2612"
    },
    {
      "channel": 1,
      "note": 64,
      "start": 73.6612,
      "duration": 0.0141,
      "velocity": 101,
      "chip": "ym2612"
    }
  ]
}