{
  "track_name": "51 - Final Battle",
  "duration_sec": 119.255,
  "sample_rate": 44100,
  "note_count": 1939,
  "unique_pitches": 32,
  "pitch_range": 51,
  "avg_note_duration": 0.1273,
  "reconstruction_stats": {
    "notes_reconstructed": 1939,
    "keyon_events": 1939,
    "keyoff_events": 1938,
    "orphan_keyons": 1,
    "unique_pitches": 32,
    "pitch_range": 51,
    "avg_duration_sec": 0.1273
  },
  "metadata": {
    "source": "P\\Pier Solar and the Great Architects\\51 - Final Battle.vgz"
  },
  "notes": [
    {
      "channel": 0,
      "note": 49,
      "start": 0.068,
      "duration": 0.2577,
      "velocity": 98,
      "chip": "ym2612"
    },
    {
      "channel": 1,
      "note": 61,
      "start": 0.0694,
      "duration": 0.2566,
      "velocity": 98,
      "chip": "ym2612"
    },
    {
      "channel": 4,
      "note": 61,
      "start": 0.0699,
      "duration": 0.2568,
      "velocity": 100,
      "chip": "ym2612"
    },
    {
      "channel": 2,
      "note": 88,
      "start": 0.1312,
      "duration": 0.0609,
      "velocity": 98,
      "chip": "ym2612"
    },
    {
      "channel": 3,
      "note": 83,
      "start": 0.1326,
      "duration": 0.0597,
      "velocity": 98,
      "chip": "ym2612"
    },
    {
      "channel": 2,
      "note": 87,
      "start": 0.1922,
      "duration": 0.134,
      "velocity": 98,
      "chip": "ym2612"
    },
    {
      "channel": 3,
      "note": 80,
      "start": 0.1924,
      "duration": 0.134,
      "velocity": 98,
      "chip": "ym2612"
    },
    {
      "channel": 0,
      "note": 47,
      "start": 0.3258,
      "duration": 0.1624,
      "velocity": 98,
      "chip": "ym2612"
    },
    {
      "channel": 1,
      "note": 59,
      "start": 0.3261,
      "duration": 0.1624,
      "velocity": 98,
      "chip": "ym2612"
    },
    {
      "channel": 2,
      "note": 83,
      "start": 0.3263,
      "duration": 0.121,
      "velocity": 98,
      "chip": "ym2612"
    },
    {
      "channel": 3,
      "note": 78,
      "start": 0.3266,
      "duration": 0.2256,
      "velocity": 98,
      "chip": "ym2612"
    },
    {
      "channel": 4,
      "note": 59,
      "start": 0.3268,
      "duration": 0.1622,
      "velocity": 100,
      "chip": "ym2612"
    },
    {
      "channel": 2,
      "note": 81,
      "start": 0.4474,
      "duration": 0.0206,
      "velocity": 98,
      "chip": "ym2612"
    },
    {
      "channel": 2,
      "note": 80,
      "start": 0.4682,
      "duration": 0.0205,
      "velocity": 98,
      "chip": "ym2612"
    },
    {
      "channel": 0,
      "note": 49,
      "start": 0.4883,
      "duration": 0.2542,
      "velocity": 98,
      "chip": "ym2612"
    },
    {
      "channel": 1,
      "note": 61,
      "start": 0.4885,
      "duration": 0.2542,
      "velocity": 98,
      "chip": "ym2612"
    },
    {
      "channel": 2,
      "note": 73,
      "start": 0.4888,
      "duration": 0.0632,
      "velocity": 98,
      "chip": "ym2612"
    },
    {
      "channel": 4,
      "note": 61,
      "start": 0.4891,
      "duration": 0.2544,
      "velocity": 100,
      "chip": "ym2612"
    },
    {
      "channel": 2,
      "note": 90,
      "start": 0.5521,
      "duration": 0.0601,
      "velocity": 98,
      "chip": "ym2612"
    },
    {
      "channel": 3,
      "note": 83,
      "start": 0.5524,
      "duration": 0.0601,
      "velocity": 98,
      "chip": "ym2612"
    },
    {
      "channel": 2,
      "note": 87,
      "start": 0.6123,
      "duration": 0.0197,
      "velocity": 98,
      "chip": "ym2612"
    },
    {
      "channel": 3,
      "note": 81,
      "start": 0.6126,
      "duration": 0.0197,
      "velocity": 98,
      "chip": "ym2612"
    },
    {
      "channel": 2,
      "note": 85,
      "start": 0.6322,
      "duration": 0.1108,
      "velocity": 98,
      "chip": "ym2612"
    },
    {
      "channel": 3,
      "note": 80,
      "start": 0.6324,
      "duration": 0.1108,
      "velocity": 98,
      "chip": "ym2612"
    },
    {
      "channel": 0,
      "note": 44,
      "start": 0.7426,
      "duration": 0.1547,
      "velocity": 98,
      "chip": "ym2612"
    },
    {
      "channel": 1,
      "note": 56,
      "start": 0.7429,
      "duration": 0.1545,
      "velocity": 98,
      "chip": "ym2612"
    },
    {
      "channel": 2,
      "note": 83,
      "start": 0.7431,
      "duration": 0.1002,
      "velocity": 98,
      "chip": "ym2612"
    },
    {
      "channel": 3,
      "note": 78,
      "start": 0.7434,
      "duration": 0.1002,
      "velocity": 98,
      "chip": "ym2612"
    },
    {
      "channel": 4,
      "note": 56,
      "start": 0.7436,
      "duration": 0.1767,
      "velocity": 100,
      "chip": "ym2612"
    },
    {
      "channel": 2,
      "note": 71,
      "start": 0.8435,
      "duration": 0.0209,
      "velocity": 98,
      "chip": "ym2612"
    },
    {
      "channel": 3,
      "note": 66,
      "start": 0.8438,
      "duration": 0.0209,
      "velocity": 98,
      "chip": "ym2612"
    },
    {
      "channel": 2,
      "note": 76,
      "start": 0.8646,
      "duration": 0.0221,
      "velocity": 98,
      "chip": "ym2612"
    },
    {
      "channel": 3,
      "note": 73,
      "start": 0.8648,
      "duration": 0.0221,
      "velocity": 98,
      "chip": "ym2612"
    },
    {
      "channel": 2,
      "note": 75,
      "start": 0.8868,
      "duration": 0.0329,
      "velocity": 98,
      "chip": "ym2612"
    },
    {
      "channel": 3,
      "note": 69,
      "start": 0.8871,
      "duration": 0.0329,
      "velocity": 98,
      "chip": "ym2612"
    },
    {
      "channel": 0,
      "note": 49,
      "start": 0.9183,
      "duration": 0.251,
      "velocity": 98,
      "chip": "ym2612"
    },
    {
      "channel": 1,
      "note": 61,
      "start": 0.9197,
      "duration": 0.2498,
      "velocity": 98,
      "chip": "ym2612"
    },
    {
      "channel": 2,
      "note": 73,
      "start": 0.9199,
      "duration": 0.0605,
      "velocity": 98,
      "chip": "ym2612"
    },
    {
      "channel": 3,
      "note": 68,
      "start": 0.9202,
      "duration": 0.0606,
      "velocity": 98,
      "chip": "ym2612"
    },
    {
      "channel": 4,
      "note": 61,
      "start": 0.9205,
      "duration": 0.2498,
      "velocity": 100,
      "chip": "ym2612"
    },
    {
      "channel": 2,
      "note": 88,
      "start": 0.9806,
      "duration": 0.0597,
      "velocity": 98,
      "chip": "ym2612"
    },
    {
      "channel": 3,
      "note": 83,
      "start": 0.9809,
      "duration": 0.0597,
      "velocity": 98,
      "chip": "ym2612"
    },
    {
      "channel": 2,
      "note": 87,
      "start": 1.0405,
      "duration": 0.1293,
      "velocity": 98,
      "chip": "ym2612"
    },
    {
      "channel": 3,
      "note": 80,
      "start": 1.0407,
      "duration": 0.1293,
      "velocity": 98,
      "chip": "ym2612"
    },
    {
      "channel": 0,
      "note": 47,
      "start": 1.1694,
      "duration": 0.1625,
      "velocity": 98,
      "chip": "ym2612"
    },
    {
      "channel": 1,
      "note": 59,
      "start": 1.1696,
      "duration": 0.1625,
      "velocity": 98,
      "chip": "ym2612"
    },
    {
      "channel": 2,
      "note": 83,
      "start": 1.1699,
      "duration": 0.1211,
      "velocity": 98,
      "chip": "ym2612"
    },
    {
      "channel": 3,
      "note": 78,
      "start": 1.1702,
      "duration": 0.1625,
      "velocity": 98,
      "chip": "ym2612"
    },
    {
      "channel": 4,
      "note": 54,
      "start": 1.1704,
      "duration": 0.1625,
      "velocity": 100,
      "chip": "ym2612"
    },
    {
      "channel": 2,
      "note": 76,
      "start": 1.2911,
      "duration": 0.0206,
      "velocity": 98,
      "chip": "ym2612"
    },
    {
      "channel": 2,
      "note": 78,
      "start": 1.3119,
      "duration": 0.0205,
      "velocity": 98,
      "chip": "ym2612"
    },
    {
      "channel": 0,
      "note": 49,
      "start": 1.332,
      "duration": 0.2538,
      "velocity": 98,
      "chip": "ym2612"
    },
    {
      "channel": 1,
      "note": 61,
      "start": 1.3323,
      "duration": 0.2538,
      "velocity": 98,
      "chip": "ym2612"
    },
    {
      "channel": 2,
      "note": 80,
      "start": 1.3325,
      "duration": 0.1229,
      "velocity": 98,
      "chip": "ym2612"
    },
    {
      "channel": 3,
      "note": 76,
      "start": 1.3328,
      "duration": 0.1229,
      "velocity": 98,
      "chip": "ym2612"
    },
    {
      "channel": 4,
      "note": 52,
      "start": 1.333,
      "duration": 0.2534,
      "velocity": 100,
      "chip": "ym2612"
    },
    {
      "channel": 2,
      "note": 78,
      "start": 1.4556,
      "duration": 0.2114,
      "velocity": 98,
      "chip": "ym2612"
    },
    {
      "channel": 3,
      "note": 73,
      "start": 1.4558,
      "duration": 0.2114,
      "velocity": 98,
      "chip": "ym2612"
    },
    {
      "channel": 0,
      "note": 44,
      "start": 1.586,
      "duration": 0.1538,
      "velocity": 98,
      "chip": "ym2612"
    },
    {
      "channel": 1,
      "note": 56,
      "start": 1.5862,
      "duration": 0.1537,
      "velocity": 98,
      "chip": "ym2612"
    },
    {
      "channel": 4,
      "note": 54,
      "start": 1.5866,
      "duration": 0.1737,
      "velocity": 100,
      "chip": "ym2612"
    },
    {
      "channel": 2,
      "note": 76,
      "start": 1.6671,
      "duration": 0.0403,
      "velocity": 98,
      "chip": "ym2612"
    },
    {
      "channel": 3,
      "note": 71,
      "start": 1.6674,
      "duration": 0.0403,
      "velocity": 98,
      "chip": "ym2612"
    },
    {
      "channel": 2,
      "note": 75,
      "start": 1.7076,
      "duration": 0.052,
      "velocity": 98,
      "chip": "ym2612"
    },
    {
      "channel": 3,
      "note": 69,
      "start": 1.7078,
      "duration": 0.0521,
      "velocity": 98,
      "chip": "ym2612"
    },
    {
      "channel": 2,
      "note": 73,
      "start": 1.7598,
      "duration": 2.4685,
      "velocity": 98,
      "chip": "ym2612"
    },
    {
      "channel": 3,
      "note": 68,
      "start": 1.7602,
      "duration": 2.4682,
      "velocity": 98,
      "chip": "ym2612"
    },
    {
      "channel": 4,
      "note": 49,
      "start": 1.7606,
      "duration": 0.0202,
      "velocity": 100,
      "chip": "ym2612"
    },
    {
      "channel": 4,
      "note": 49,
      "start": 1.7811,
      "duration": 0.02,
      "velocity": 100,
      "chip": "ym2612"
    },
    {
      "channel": 4,
      "note": 49,
      "start": 1.8013,
      "duration": 0.0212,
      "velocity": 100,
      "chip": "ym2612"
    },
    {
      "channel": 4,
      "note": 49,
      "start": 1.8228,
      "duration": 0.0556,
      "velocity": 100,
      "chip": "ym2612"
    },
    {
      "channel": 4,
      "note": 49,
      "start": 1.8787,
      "duration": 0.0315,
      "velocity": 100,
      "chip": "ym2612"
    },
    {
      "channel": 4,
      "note": 49,
      "start": 2.0036,
      "duration": 0.011,
      "velocity": 100,
      "chip": "ym2612"
    },
    {
      "channel": 4,
      "note": 49,
      "start": 2.068,
      "duration": 0.0315,
      "velocity": 100,
      "chip": "ym2612"
    },
    {
      "channel": 4,
      "note": 49,
      "start": 2.193,
      "duration": 0.011,
      "velocity": 100,
      "chip": "ym2612"
    },
    {
      "channel": 4,
      "note": 49,
      "start": 2.2574,
      "duration": 0.1246,
      "velocity": 100,
      "chip": "ym2612"
    },
    {
      "channel": 4,
      "note": 49,
      "start": 2.3823,
      "duration": 0.0641,
      "velocity": 100,
      "chip": "ym2612"
    },
    {
      "channel": 4,
      "note": 49,
      "start": 2.4467,
      "duration": 0.1247,
      "velocity": 100,
      "chip": "ym2612"
    },
    {
      "channel": 4,
      "note": 49,
      "start": 2.5717,
      "duration": 0.0641,
      "velocity": 100,
      "chip": "ym2612"
    },
    {
      "channel": 4,
      "note": 49,
      "start": 2.6361,
      "duration": 0.0314,
      "velocity": 100,
      "chip": "ym2612"
    },
    {
      "channel": 4,
      "note": 49,
      "start": 2.7609,
      "duration": 0.0111,
      "velocity": 100,
      "chip": "ym2612"
    },
    {
      "channel": 4,
      "note": 49,
      "start": 2.8255,
      "duration": 0.0328,
      "velocity": 100,
      "chip": "ym2612"
    },
    {
      "channel": 0,
      "note": 73,
      "start": 2.8579,
      "duration": 0.0919,
      "velocity": 98,
      "chip": "ym2612"
    },
    {
      "channel": 0,
      "note": 80,
      "start": 2.9499,
      "duration": 0.0114,
      "velocity": 98,
      "chip": "ym2612"
    },
    {
      "channel": 4,
      "note": 49,
      "start": 2.9505,
      "duration": 0.0124,
      "velocity": 100,
      "chip": "ym2612"
    },
    {
      "channel": 0,
      "note": 85,
      "start": 2.9614,
      "duration": 0.0528,
      "velocity": 98,
      "chip": "ym2612"
    },
    {
      "channel": 1,
      "note": 73,
      "start": 2.9628,
      "duration": 0.0517,
      "velocity": 98,
      "chip": "ym2612"
    },
    {
      "channel": 0,
      "note": 80,
      "start": 3.0144,
      "duration": 1.1362,
      "velocity": 98,
      "chip": "ym2612"
    },
    {
      "channel": 1,
      "note": 80,
      "start": 3.0146,
      "duration": 0.0315,
      "velocity": 98,
      "chip": "ym2612"
    },
    {
      "channel": 4,
      "note": 49,
      "start": 3.0151,
      "duration": 0.1245,
      "velocity": 100,
      "chip": "ym2612"
    },
    {
      "channel": 1,
      "note": 85,
      "start": 3.0462,
      "duration": 0.093,
      "velocity": 98,
      "chip": "ym2612"
    },
    {
      "channel": 1,
      "note": 80,
      "start": 3.1394,
      "duration": 1.0432,
      "velocity": 98,
      "chip": "ym2612"
    },
    {
      "channel": 4,
      "note": 49,
      "start": 3.14,
      "duration": 0.064,
      "velocity": 100,
      "chip": "ym2612"
    },
    {
      "channel": 4,
      "note": 49,
      "start": 3.2043,
      "duration": 0.1246,
      "velocity": 100,
      "chip": "ym2612"
    },
    {
      "channel": 4,
      "note": 49,
      "start": 3.3292,
      "duration": 0.0641,
      "velocity": 100,
      "chip": "ym2612"
    },
    {
      "channel": 4,
      "note": 49,
      "start": 3.3937,
      "duration": 0.0314,
      "velocity": 100,
      "chip": "ym2612"
    },
    {
      "channel": 4,
      "note": 49,
      "start": 3.5186,
      "duration": 0.011,
      "velocity": 100,
      "chip": "ym2612"
    },
    {
      "channel": 4,
      "note": 49,
      "start": 3.5831,
      "duration": 0.0314,
      "velocity": 100,
      "chip": "ym2612"
    },
    {
      "channel": 4,
      "note": 49,
      "start": 3.708,
      "duration": 0.0109,
      "velocity": 100,
      "chip": "ym2612"
    },
    {
      "channel": 4,
      "note": 49,
      "start": 3.7724,
      "duration": 0.1246,
      "velocity": 100,
      "chip": "ym2612"
    },
    {
      "channel": 4,
      "note": 49,
      "start": 3.8973,
      "duration": 0.0642,
      "velocity": 100,
      "chip": "ym2612"
    },
    {
      "channel": 4,
      "note": 49,
      "start": 3.9618,
      "duration": 0.1247,
      "velocity": 100,
      "chip": "ym2612"
    },
    {
      "channel": 4,
      "note": 49,
      "start": 4.0867,
      "duration": 0.0642,
      "velocity": 100,
      "chip": "ym2612"
    },
    {
      "channel": 4,
      "note": 49,
      "start": 4.1512,
      "duration": 0.0109,
      "velocity": 100,
      "chip": "ym2612"
    },
    {
      "channel": 4,
      "note": 49,
      "start": 4.1724,
      "duration": 0.0104,
      "velocity": 100,
      "chip": "ym2612"
    },
    {
      "channel": 4,
      "note": 49,
      "start": 4.2288,
      "duration": 0.0109,
      "velocity": 100,
      "chip": "ym2612"
    },
    {
      "channel": 4,
      "note": 49,
      "start": 4.2505,
      "duration": 0.0104,
      "velocity": 100,
      "chip": "ym2612"
    },
    {
      "channel": 0,
      "note": 85,
      "start": 4.3065,
      "duration": 0.1883,
      "velocity": 108,
      "chip": "ym2612"
    },
    {
      "channel": 1,
      "note": 80,
      "start": 4.3079,
      "duration": 0.1869,
      "velocity": 108,
      "chip": "ym2612"
    },
    {
      "channel": 2,
      "note": 78,
      "start": 4.3094,
      "duration": 0.1856,
      "velocity": 108,
      "chip": "ym2612"
    },
    {
      "channel": 3,
      "note": 61,
      "start": 4.3108,
      "duration": 1.8241,
      "velocity": 98,
      "chip": "ym2612"
    },
    {
      "channel": 4,
      "note": 49,
      "start": 4.3112,
      "duration": 0.1197,
      "velocity": 100,
      "chip": "ym2612"
    },
    {
      "channel": 4,
      "note": 61,
      "start": 4.431,
      "duration": 0.0641,
      "velocity": 100,
      "chip": "ym2612"
    },
    {
      "channel": 4,
      "note": 49,
      "start": 4.4953,
      "duration": 0.021,
      "velocity": 100,
      "chip": "ym2612"
    },
    {
      "channel": 0,
      "note": 85,
      "start": 4.5156,
      "duration": 0.1411,
      "velocity": 108,
      "chip": "ym2612"
    },
    {
      "channel": 1,
      "note": 80,
      "start": 4.5159,
      "duration": 0.1409,
      "velocity": 108,
      "chip": "ym2612"
    },
    {
      "channel": 2,
      "note": 78,
      "start": 4.5161,
      "duration": 0.1407,
      "velocity": 108,
      "chip": "ym2612"
    },
    {
      "channel": 4,
      "note": 61,
      "start": 4.5164,
      "duration": 0.0203,
      "velocity": 100,
      "chip": "ym2612"
    },
    {
      "channel": 4,
      "note": 49,
      "start": 4.5368,
      "duration": 0.1202,
      "velocity": 100,
      "chip": "ym2612"
    },
    {
      "channel": 4,
      "note": 61,
      "start": 4.6572,
      "duration": 0.0646,
      "velocity": 100,
      "chip": "ym2612"
    },
    {
      "channel": 0,
      "note": 85,
      "start": 4.7211,
      "duration": 0.0415,
      "velocity": 108,
      "chip": "ym2612"
    },
    {
      "channel": 1,
      "note": 80,
      "start": 4.7214,
      "duration": 0.0415,
      "velocity": 108,
      "chip": "ym2612"
    },
    {
      "channel": 2,
      "note": 78,
      "start": 4.7216,
      "duration": 0.0415,
      "velocity": 108,
      "chip": "ym2612"
    },
    {
      "channel": 4,
      "note": 49,
      "start": 4.7219,
      "duration": 0.0206,
      "velocity": 100,
      "chip": "ym2612"
    },
    {
      "channel": 4,
      "note": 61,
      "start": 4.7427,
      "duration": 0.0208,
      "velocity": 100,
      "chip": "ym2612"
    },
    {
      "channel": 0,
      "note": 85,
      "start": 4.7628,
      "duration": 0.1842,
      "velocity": 108,
      "chip": "ym2612"
    },
    {
      "channel": 1,
      "note": 80,
      "start": 4.7631,
      "duration": 0.1841,
      "velocity": 108,
      "chip": "ym2612"
    },
    {
      "channel": 2,
      "note": 78,
      "start": 4.7633,
      "duration": 0.1839,
      "velocity": 108,
      "chip": "ym2612"
    },
    {
      "channel": 4,
      "note": 49,
      "start": 4.7636,
      "duration": 0.1196,
      "velocity": 100,
      "chip": "ym2612"
    },
    {
      "channel": 4,
      "note": 61,
      "start": 4.8834,
      "duration": 0.0641,
      "velocity": 100,
      "chip": "ym2612"
    },
    {
      "channel": 4,
      "note": 49,
      "start": 4.9476,
      "duration": 0.0211,
      "velocity": 100,
      "chip": "ym2612"
    },
    {
      "channel": 0,
      "note": 85,
      "start": 4.968,
      "duration": 0.1411,
      "velocity": 108,
      "chip": "ym2612"
    },
    {
      "channel": 1,
      "note": 80,
      "start": 4.9682,
      "duration": 0.1409,
      "velocity": 108,
      "chip": "ym2612"
    },
    {
      "channel": 2,
      "note": 78,
      "start": 4.9685,
      "duration": 0.1407,
      "velocity": 108,
      "chip": "ym2612"
    },
    {
      "channel": 4,
      "note": 61,
      "start": 4.9688,
      "duration": 0.0203,
      "velocity": 100,
      "chip": "ym2612"
    },
    {
      "channel": 4,
      "note": 49,
      "start": 4.9893,
      "duration": 0.1201,
      "velocity": 100,
      "chip": "ym2612"
    },
    {
      "channel": 4,
      "note": 61,
      "start": 5.1096,
      "duration": 0.0645,
      "velocity": 100,
      "chip": "ym2612"
    },
    {
      "channel": 0,
      "note": 85,
      "start": 5.1734,
      "duration": 0.0417,
      "velocity": 108,
      "chip": "ym2612"
    },
    {
      "channel": 1,
      "note": 80,
      "start": 5.1737,
      "duration": 0.0417,
      "velocity": 108,
      "chip": "ym2612"
    },
    {
      "channel": 2,
      "note": 78,
      "start": 5.1739,
      "duration": 0.0418,
      "velocity": 108,
      "chip": "ym2612"
    },
    {
      "channel": 4,
      "note": 49,
      "start": 5.1743,
      "duration": 0.0205,
      "velocity": 100,
      "chip": "ym2612"
    },
    {
      "channel": 4,
      "note": 61,
      "start": 5.1949,
      "duration": 0.0212,
      "velocity": 100,
      "chip": "ym2612"
    },
    {
      "channel": 0,
      "note": 85,
      "start": 5.2153,
      "duration": 0.8633,
      "velocity": 108,
      "chip": "ym2612"
    },
    {
      "channel": 1,
      "note": 80,
      "start": 5.2156,
      "duration": 0.8631,
      "velocity": 108,
      "chip": "ym2612"
    },
    {
      "channel": 2,
      "note": 76,
      "start": 5.2159,
      "duration": 0.8628,
      "velocity": 108,
      "chip": "ym2612"
    },
    {
      "channel": 4,
      "note": 49,
      "start": 5.2163,
      "duration": 0.1193,
      "velocity": 100,
      "chip": "ym2612"
    },
    {
      "channel": 4,
      "note": 61,
      "start": 5.3358,
      "duration": 0.0646,
      "velocity": 100,
      "chip": "ym2612"
    },
    {
      "channel": 4,
      "note": 49,
      "start": 5.4006,
      "duration": 0.0207,
      "velocity": 100,
      "chip": "ym2612"
    },
    {
      "channel": 4,
      "note": 61,
      "start": 5.4214,
      "duration": 0.021,
      "velocity": 100,
      "chip": "ym2612"
    },
    {
      "channel": 4,
      "note": 49,
      "start": 5.4426,
      "duration": 0.1193,
      "velocity": 100,
      "chip": "ym2612"
    },
    {
      "channel": 4,
      "note": 61,
      "start": 5.562,
      "duration": 0.0646,
      "velocity": 100,
      "chip": "ym2612"
    },
    {
      "channel": 4,
      "note": 49,
      "start": 5.6267,
      "duration": 0.0209,
      "velocity": 100,
      "chip": "ym2612"
    },
    {
      "channel": 4,
      "note": 61,
      "start": 5.6477,
      "duration": 0.021,
      "velocity": 100,
      "chip": "ym2612"
    },
    {
      "channel": 4,
      "note": 49,
      "start": 5.6689,
      "duration": 0.1192,
      "velocity": 100,
      "chip": "ym2612"
    },
    {
      "channel": 4,
      "note": 56,
      "start": 5.7882,
      "duration": 0.0646,
      "velocity": 100,
      "chip": "ym2612"
    },
    {
      "channel": 4,
      "note": 61,
      "start": 5.8529,
      "duration": 0.0206,
      "velocity": 100,
      "chip": "ym2612"
    },
    {
      "channel": 4,
      "note": 62,
      "start": 5.8737,
      "duration": 0.1404,
      "velocity": 100,
      "chip": "ym2612"
    },
    {
      "channel": 4,
      "note": 61,
      "start": 6.0143,
      "duration": 0.0647,
      "velocity": 100,
      "chip": "ym2612"
    },
    {
      "channel": 4,
      "note": 59,
      "start": 6.0791,
      "duration": 0.0212,
      "velocity": 100,
      "chip": "ym2612"
    },
    {
      "channel": 4,
      "note": 56,
      "start": 6.1005,
      "duration": 0.0359,
      "velocity": 100,
      "chip": "ym2612"
    },
    {
      "channel": 0,
      "note": 85,
      "start": 6.1318,
      "duration": 0.1825,
      "velocity": 108,
      "chip": "ym2612"
    },
    {
      "channel": 1,
      "note": 80,
      "start": 6.1333,
      "duration": 0.1811,
      "velocity": 108,
      "chip": "ym2612"
    },
    {
      "channel": 2,
      "note": 78,
      "start": 6.1347,
      "duration": 0.1798,
      "velocity": 108,
      "chip": "ym2612"
    },
    {
      "channel": 3,
      "note": 61,
      "start": 6.1362,
      "duration": 1.8148,
      "velocity": 98,
      "chip": "ym2612"
    },
    {
      "channel": 4,
      "note": 49,
      "start": 6.1364,
      "duration": 0.114,
      "velocity": 100,
      "chip": "ym2612"
    },
    {
      "channel": 4,
      "note": 61,
      "start": 6.2506,
      "duration": 0.0641,
      "velocity": 100,
      "chip": "ym2612"
    },
    {
      "channel": 4,
      "note": 49,
      "start": 6.3149,
      "duration": 0.0211,
      "velocity": 100,
      "chip": "ym2612"
    },
    {
      "channel": 0,
      "note": 85,
      "start": 6.3352,
      "duration": 0.1412,
      "velocity": 108,
      "chip": "ym2612"
    },
    {
      "channel": 1,
      "note": 80,
      "start": 6.3355,
      "duration": 0.141,
      "velocity": 108,
      "chip": "ym2612"
    },
    {
      "channel": 2,
      "note": 78,
      "start": 6.3358,
      "duration": 0.1408,
      "velocity": 108,
      "chip": "ym2612"
    },
    {
      "channel": 4,
      "note": 61,
      "start": 6.3361,
      "duration": 0.0203,
      "velocity": 100,
      "chip": "ym2612"
    },
    {
      "channel": 4,
      "note": 49,
      "start": 6.3565,
      "duration": 0.1203,
      "velocity": 100,
      "chip": "ym2612"
    },
    {
      "channel": 4,
      "note": 61,
      "start": 6.4769,
      "duration": 0.0646,
      "velocity": 100,
      "chip": "ym2612"
    },
    {
      "channel": 0,
      "note": 85,
      "start": 6.5408,
      "duration": 0.0415,
      "velocity": 108,
      "chip": "ym2612"
    },
    {
      "channel": 1,
      "note": 80,
      "start": 6.5411,
      "duration": 0.0415,
      "velocity": 108,
      "chip": "ym2612"
    },
    {
      "channel": 2,
      "note": 78,
      "start": 6.5413,
      "duration": 0.0415,
      "velocity": 108,
      "chip": "ym2612"
    },
    {
      "channel": 4,
      "note": 49,
      "start": 6.5416,
      "duration": 0.0206,
      "velocity": 100,
      "chip": "ym2612"
    },
    {
      "channel": 4,
      "note": 61,
      "start": 6.5624,
      "duration": 0.0208,
      "velocity": 100,
      "chip": "ym2612"
    },
    {
      "channel": 0,
      "note": 85,
      "start": 6.5825,
      "duration": 0.1842,
      "velocity": 108,
      "chip": "ym2612"
    },
    {
      "channel": 1,
      "note": 80,
      "start": 6.5828,
      "duration": 0.1841,
      "velocity": 108,
      "chip": "ym2612"
    },
    {
      "channel": 2,
      "note": 78,
      "start": 6.583,
      "duration": 0.1839,
      "velocity": 108,
      "chip": "ym2612"
    },
    {
      "channel": 4,
      "note": 49,
      "start": 6.5833,
      "duration": 0.1196,
      "velocity": 100,
      "chip": "ym2612"
    },
    {
      "channel": 4,
      "note": 61,
      "start": 6.7031,
      "duration": 0.0641,
      "velocity": 100,
      "chip": "ym2612"
    },
    {
      "channel": 4,
      "note": 49,
      "start": 6.7673,
      "duration": 0.021,
      "velocity": 100,
      "chip": "ym2612"
    },
    {
      "channel": 0,
      "note": 85,
      "start": 6.7876,
      "duration": 0.1411,
      "velocity": 108,
      "chip": "ym2612"
    },
    {
      "channel": 1,
      "note": 80,
      "start": 6.7879,
      "duration": 0.1409,
      "velocity": 108,
      "chip": "ym2612"
    },
    {
      "channel": 2,
      "note": 78,
      "start": 6.7881,
      "duration": 0.1407,
      "velocity": 108,
      "chip": "ym2612"
    },
    {
      "channel": 4,
      "note": 61,
      "start": 6.7885,
      "duration": 0.0203,
      "velocity": 100,
      "chip": "ym2612"
    },
    {
      "channel": 4,
      "note": 49,
      "start": 6.809,
      "duration": 0.1201,
      "velocity": 100,
      "chip": "ym2612"
    },
    {
      "channel": 4,
      "note": 61,
      "start": 6.9293,
      "duration": 0.0645,
      "velocity": 100,
      "chip": "ym2612"
    },
    {
      "channel": 0,
      "note": 85,
      "start": 6.9931,
      "duration": 0.0417,
      "velocity": 108,
      "chip": "ym2612"
    },
    {
      "channel": 1,
      "note": 80,
      "start": 6.9934,
      "duration": 0.0417,
      "velocity": 108,
      "chip": "ym2612"
    },
    {
      "channel": 2,
      "note": 78,
      "start": 6.9936,
      "duration": 0.0418,
      "velocity": 108,
      "chip": "ym2612"
    },
    {
      "channel": 4,
      "note": 49,
      "start": 6.9939,
      "duration": 0.0205,
      "velocity": 100,
      "chip": "ym2612"
    },
    {
      "channel": 4,
      "note": 61,
      "start": 7.0146,
      "duration": 0.0212,
      "velocity": 100,
      "chip": "ym2612"
    },
    {
      "channel": 0,
      "note": 85,
      "start": 7.035,
      "duration": 0.8633,
      "velocity": 108,
      "chip": "ym2612"
    },
    {
      "channel": 1,
      "note": 80,
      "start": 7.0353,
      "duration": 0.8631,
      "velocity": 108,
      "chip": "ym2612"
    },
    {
      "channel": 2,
      "note": 76,
      "start": 7.0356,
      "duration": 0.8628,
      "velocity": 108,
      "chip": "ym2612"
    },
    {
      "channel": 4,
      "note": 49,
      "start": 7.036,
      "duration": 0.1193,
      "velocity": 100,
      "chip": "ym2612"
    },
    {
      "channel": 4,
      "note": 61,
      "start": 7.1555,
      "duration": 0.0646,
      "velocity": 100,
      "chip": "ym2612"
    },
    {
      "channel": 4,
      "note": 49,
      "start": 7.2202,
      "duration": 0.0207,
      "velocity": 100,
      "chip": "ym2612"
    },
    {
      "channel": 4,
      "note": 61,
      "start": 7.2411,
      "duration": 0.021,
      "velocity": 100,
      "chip": "ym2612"
    },
    {
      "channel": 4,
      "note": 49,
      "start": 7.2622,
      "duration": 0.1193,
      "velocity": 100,
      "chip": "ym2612"
    },
    {
      "channel": 4,
      "note": 61,
      "start": 7.3817,
      "duration": 0.0646,
      "velocity": 100,
      "chip": "ym2612"
    },
    {
      "channel": 4,
      "note": 49,
      "start": 7.4464,
      "duration": 0.0209,
      "velocity": 100,
      "chip": "ym2612"
    },
    {
      "channel": 4,
      "note": 61,
      "start": 7.4674,
      "duration": 0.021,
      "velocity": 100,
      "chip": "ym2612"
    },
    {
      "channel": 4,
      "note": 49,
      "start": 7.4886,
      "duration": 0.1192,
      "velocity": 100,
      "chip": "ym2612"
    },
    {
      "channel": 4,
      "note": 56,
      "start": 7.6079,
      "duration": 0.0646,
      "velocity": 100,
      "chip": "ym2612"
    },
    {
      "channel": 4,
      "note": 61,
      "start": 7.6726,
      "duration": 0.0206,
      "velocity": 100,
      "chip": "ym2612"
    },
    {
      "channel": 4,
      "note": 67,
      "start": 7.6934,
      "duration": 0.1404,
      "velocity": 100,
      "chip": "ym2612"
    },
    {
      "channel": 4,
      "note": 66,
      "start": 7.834,
      "duration": 0.0647,
      "velocity": 100,
      "chip": "ym2612"
    },
    {
      "channel": 4,
      "note": 64,
      "start": 7.8988,
      "duration": 0.0212,
      "velocity": 100,
      "chip": "ym2612"
    },
    {
      "channel": 4,
      "note": 61,
      "start": 7.9201,
      "duration": 0.0322,
      "velocity": 100,
      "chip": "ym2612"
    },
    {
      "channel": 0,
      "note": 85,
      "start": 7.9503,
      "duration": 0.9044,
      "velocity": 108,
      "chip": "ym2612"
    },
    {
      "channel": 1,
      "note": 80,
      "start": 7.9506,
      "duration": 0.9044,
      "velocity": 108,
      "chip": "ym2612"
    },
    {
      "channel": 2,
      "note": 73,
      "start": 7.9508,
      "duration": 0.9044,
      "velocity": 108,
      "chip": "ym2612"
    },
    {
      "channel": 3,
      "note": 61,
      "start": 7.9523,
      "duration": 0.0247,
      "velocity": 98,
      "chip": "ym2612"
    },
    {
      "channel": 4,
      "note": 49,
      "start": 7.9525,
      "duration": 0.1178,
      "velocity": 100,
      "chip": "ym2612"
    },
    {
      "channel": 3,
      "note": 56,
      "start": 7.9771,
      "duration": 0.093,
      "velocity": 98,
      "chip": "ym2612"
    },
    {
      "channel": 3,
      "note": 63,
      "start": 8.0702,
      "duration": 0.0111,
      "velocity": 98,
      "chip": "ym2612"
    },
    {
      "channel": 4,
      "note": 61,
      "start": 8.0705,
      "duration": 0.064,
      "velocity": 100,
      "chip": "ym2612"
    },
    {
      "channel": 3,
      "note": 56,
      "start": 8.0815,
      "duration": 0.0527,
      "velocity": 98,
      "chip": "ym2612"
    },
    {
      "channel": 3,
      "note": 64,
      "start": 8.1344,
      "duration": 0.011,
      "velocity": 98,
      "chip": "ym2612"
    },
    {
      "channel": 4,
      "note": 49,
      "start": 8.1346,
      "duration": 0.0209,
      "velocity": 100,
      "chip": "ym2612"
    },
    {
      "channel": 3,
      "note": 56,
      "start": 8.1455,
      "duration": 0.0097,
      "velocity": 98,
      "chip": "ym2612"
    },
    {
      "channel": 3,
      "note": 66,
      "start": 8.1554,
      "duration": 0.0106,
      "velocity": 98,
      "chip": "ym2612"
    },
    {
      "channel": 4,
      "note": 61,
      "start": 8.1556,
      "duration": 0.0207,
      "velocity": 100,
      "chip": "ym2612"
    },
    {
      "channel": 3,
      "note": 56,
      "start": 8.1661,
      "duration": 0.0099,
      "velocity": 98,
      "chip": "ym2612"
    },
    {
      "channel": 3,
      "note": 68,
      "start": 8.1762,
      "duration": 0.0268,
      "velocity": 98,
      "chip": "ym2612"
    },
    {
      "channel": 4,
      "note": 49,
      "start": 8.1764,
      "duration": 0.1199,
      "velocity": 100,
      "chip": "ym2612"
    },
    {
      "channel": 3,
      "note": 56,
      "start": 8.2031,
      "duration": 0.093,
      "velocity": 98,
      "chip": "ym2612"
    },
    {
      "channel": 3,
      "note": 66,
      "start": 8.2962,
      "duration": 0.0117,
      "velocity": 98,
      "chip": "ym2612"
    },
    {
      "channel": 4,
      "note": 61,
      "start": 8.2965,
      "duration": 0.0641,
      "velocity": 100,
      "chip": "ym2612"
    },
    {
      "channel": 3,
      "note": 56,
      "start": 8.3081,
      "duration": 0.0522,
      "velocity": 98,
      "chip": "ym2612"
    },
    {
      "channel": 3,
      "note": 64,
      "start": 8.3605,
      "duration": 0.0112,
      "velocity": 98,
      "chip": "ym2612"
    },
    {
      "channel": 4,
      "note": 49,
      "start": 8.3607,
      "duration": 0.0212,
      "velocity": 100,
      "chip": "ym2612"
    },
    {
      "channel": 3,
      "note": 56,
      "start": 8.3719,
      "duration": 0.0098,
      "velocity": 98,
      "chip": "ym2612"
    },
    {
      "channel": 3,
      "note": 63,
      "start": 8.3818,
      "duration": 0.0105,
      "velocity": 98,
      "chip": "ym2612"
    },
    {
      "channel": 4,
      "note": 61,
      "start": 8.382,
      "duration": 0.0207,
      "velocity": 100,
      "chip": "ym2612"
    },
    {
      "channel": 3,
      "note": 56,
      "start": 8.3924,
      "duration": 0.0101,
      "velocity": 98,
      "chip": "ym2612"
    },
    {
      "channel": 3,
      "note": 61,
      "start": 8.4026,
      "duration": 0.0267,
      "velocity": 98,
      "chip": "ym2612"
    },
    {
      "channel": 4,
      "note": 49,
      "start": 8.4029,
      "duration": 0.1198,
      "velocity": 100,
      "chip": "ym2612"
    },
    {
      "channel": 3,
      "note": 56,
      "start": 8.4295,
      "duration": 0.093,
      "velocity": 98,
      "chip": "ym2612"
    },
    {
      "channel": 3,
      "note": 63,
      "start": 8.5226,
      "duration": 0.011,
      "velocity": 98,
      "chip": "ym2612"
    },
    {
      "channel": 4,
      "note": 61,
      "start": 8.5229,
      "duration": 0.064,
      "velocity": 100,
      "chip": "ym2612"
    },
    {
      "channel": 3,
      "note": 56,
      "start": 8.5338,
      "duration": 0.0528,
      "velocity": 98,
      "chip": "ym2612"
    },
    {
      "channel": 3,
      "note": 66,
      "start": 8.5867,
      "duration": 0.0112,
      "velocity": 98,
      "chip": "ym2612"
    },
    {
      "channel": 4,
      "note": 49,
      "start": 8.587,
      "duration": 0.021,
      "velocity": 100,
      "chip": "ym2612"
    },
    {
      "channel": 3,
      "note": 56,
      "start": 8.5981,
      "duration": 0.0096,
      "velocity": 98,
      "chip": "ym2612"
    },
    {
      "channel": 3,
      "note": 68,
      "start": 8.6079,
      "duration": 0.0106,
      "velocity": 98,
      "chip": "ym2612"
    },
    {
      "channel": 4,
      "note": 61,
      "start": 8.6082,
      "duration": 0.0208,
      "velocity": 100,
      "chip": "ym2612"
    },
    {
      "channel": 3,
      "note": 56,
      "start": 8.6187,
      "duration": 0.01,
      "velocity": 98,
      "chip": "ym2612"
    },
    {
      "channel": 3,
      "note": 73,
      "start": 8.6288,
      "duration": 0.0267,
      "velocity": 98,
      "chip": "ym2612"
    },
    {
      "channel": 4,
      "note": 49,
      "start": 8.6291,
      "duration": 0.1198,
      "velocity": 100,
      "chip": "ym2612"
    },
    {
      "channel": 3,
      "note": 56,
      "start": 8.6557,
      "duration": 0.093,
      "velocity": 98,
      "chip": "ym2612"
    },
    {
      "channel": 3,
      "note": 68,
      "start": 8.7488,
      "duration": 0.0118,
      "velocity": 98,
      "chip": "ym2612"
    },
    {
      "channel": 4,
      "note": 61,
      "start": 8.7491,
      "duration": 0.064,
      "velocity": 100,
      "chip": "ym2612"
    },
    {
      "channel": 3,
      "note": 56,
      "start": 8.7607,
      "duration": 0.0521,
      "velocity": 98,
      "chip": "ym2612"
    },
    {
      "channel": 3,
      "note": 64,
      "start": 8.813,
      "duration": 0.0111,
      "velocity": 98,
      "chip": "ym2612"
    },
    {
      "channel": 4,
      "note": 49,
      "start": 8.8133,
      "duration": 0.021,
      "velocity": 100,
      "chip": "ym2612"
    },
    {
      "channel": 3,
      "note": 56,
      "start": 8.8242,
      "duration": 0.0098,
      "velocity": 98,
      "chip": "ym2612"
    },
    {
      "channel": 3,
      "note": 63,
      "start": 8.8341,
      "duration": 0.0107,
      "velocity": 98,
      "chip": "ym2612"
    },
    {
      "channel": 4,
      "note": 61,
      "start": 8.8344,
      "duration": 0.0214,
      "velocity": 100,
      "chip": "ym2612"
    },
    {
      "channel": 3,
      "note": 56,
      "start": 8.8449,
      "duration": 0.0106,
      "velocity": 98,
      "chip": "ym2612"
    },
    {
      "channel": 0,
      "note": 87,
      "start": 8.8549,
      "duration": 0.4524,
      "velocity": 108,
      "chip": "ym2612"
    },
    {
      "channel": 1,
      "note": 83,
      "start": 8.8551,
      "duration": 0.4524,
      "velocity": 108,
      "chip": "ym2612"
    },
    {
      "channel": 2,
      "note": 78,
      "start": 8.8554,
      "duration": 0.4524,
      "velocity": 108,
      "chip": "ym2612"
    },
    {
      "channel": 3,
      "note": 61,
      "start": 8.8556,
      "duration": 0.0262,
      "velocity": 98,
      "chip": "ym2612"
    },
    {
      "channel": 4,
      "note": 49,
      "start": 8.8559,
      "duration": 0.1193,
      "velocity": 100,
      "chip": "ym2612"
    },
    {
      "channel": 3,
      "note": 56,
      "start": 8.8819,
      "duration": 0.0929,
      "velocity": 98,
      "chip": "ym2612"
    },
    {
      "channel": 3,
      "note": 63,
      "start": 8.975,
      "duration": 0.0111,
      "velocity": 98,
      "chip": "ym2612"
    },
    {
      "channel": 4,
      "note": 61,
      "start": 8.9753,
      "duration": 0.0641,
      "velocity": 100,
      "chip": "ym2612"
    },
    {
      "channel": 3,
      "note": 56,
      "start": 8.9863,
      "duration": 0.0528,
      "velocity": 98,
      "chip": "ym2612"
    },
    {
      "channel": 3,
      "note": 64,
      "start": 9.0393,
      "duration": 0.0111,
      "velocity": 98,
      "chip": "ym2612"
    },
    {
      "channel": 4,
      "note": 49,
      "start": 9.0395,
      "duration": 0.0209,
      "velocity": 100,
      "chip": "ym2612"
    },
    {
      "channel": 3,
      "note": 56,
      "start": 9.0505,
      "duration": 0.0098,
      "velocity": 98,
      "chip": "ym2612"
    },
    {
      "channel": 3,
      "note": 66,
      "start": 9.0603,
      "duration": 0.0107,
      "velocity": 98,
      "chip": "ym2612"
    },
    {
      "channel": 4,
      "note": 61,
      "start": 9.0606,
      "duration": 0.0207,
      "velocity": 100,
      "chip": "ym2612"
    },
    {
      "channel": 3,
      "note": 56,
      "start": 9.0711,
      "duration": 0.0099,
      "velocity": 98,
      "chip": "ym2612"
    },
    {
      "channel": 3,
      "note": 68,
      "start": 9.0812,
      "duration": 0.0268,
      "velocity": 98,
      "chip": "ym2612"
    },
    {
      "channel": 4,
      "note": 49,
      "start": 9.0815,
      "duration": 0.1199,
      "velocity": 100,
      "chip": "ym2612"
    },
    {
      "channel": 3,
      "note": 56,
      "start": 9.1082,
      "duration": 0.0929,
      "velocity": 98,
      "chip": "ym2612"
    },
    {
      "channel": 3,
      "note": 66,
      "start": 9.2013,
      "duration": 0.0116,
      "velocity": 98,
      "chip": "ym2612"
    },
    {
      "channel": 4,
      "note": 61,
      "start": 9.2015,
      "duration": 0.0641,
      "velocity": 100,
      "chip": "ym2612"
    },
    {
      "channel": 3,
      "note": 56,
      "start": 9.213,
      "duration": 0.0523,
      "velocity": 98,
      "chip": "ym2612"
    },
    {
      "channel": 3,
      "note": 64,
      "start": 9.2655,
      "duration": 0.0112,
      "velocity": 98,
      "chip": "ym2612"
    },
    {
      "channel": 4,
      "note": 49,
      "start": 9.2658,
      "duration": 0.0212,
      "velocity": 100,
      "chip": "ym2612"
    },
    {
      "channel": 3,
      "note": 56,
      "start": 9.2769,
      "duration": 0.0098,
      "velocity": 98,
      "chip": "ym2612"
    },
    {
      "channel": 3,
      "note": 63,
      "start": 9.2868,
      "duration": 0.0105,
      "velocity": 98,
      "chip": "ym2612"
    },
    {
      "channel": 4,
      "note": 61,
      "start": 9.2871,
      "duration": 0.0213,
      "velocity": 100,
      "chip": "ym2612"
    },
    {
      "channel": 3,
      "note": 56,
      "start": 9.2974,
      "duration": 0.0107,
      "velocity": 98,
      "chip": "ym2612"
    },
    {
      "channel": 0,
      "note": 87,
      "start": 9.3074,
      "duration": 0.1839,
      "velocity": 108,
      "chip": "ym2612"
    },
    {
      "channel": 1,
      "note": 83,
      "start": 9.3077,
      "duration": 0.1837,
      "velocity": 108,
      "chip": "ym2612"
    },
    {
      "channel": 2,
      "note": 78,
      "start": 9.3079,
      "duration": 0.1836,
      "velocity": 108,
      "chip": "ym2612"
    },
    {
      "channel": 3,
      "note": 61,
      "start": 9.3082,
      "duration": 0.0261,
      "velocity": 98,
      "chip": "ym2612"
    },
    {
      "channel": 4,
      "note": 49,
      "start": 9.3085,
      "duration": 0.1192,
      "velocity": 100,
      "chip": "ym2612"
    },
    {
      "channel": 3,
      "note": 56,
      "start": 9.3344,
      "duration": 0.093,
      "velocity": 98,
      "chip": "ym2612"
    },
    {
      "channel": 3,
      "note": 63,
      "start": 9.4276,
      "duration": 0.0111,
      "velocity": 98,
      "chip": "ym2612"
    },
    {
      "channel": 4,
      "note": 61,
      "start": 9.4278,
      "duration": 0.0641,
      "velocity": 100,
      "chip": "ym2612"
    },
    {
      "channel": 3,
      "note": 56,
      "start": 9.4388,
      "duration": 0.0529,
      "velocity": 98,
      "chip": "ym2612"
    },
    {
      "channel": 3,
      "note": 66,
      "start": 9.4918,
      "duration": 0.0113,
      "velocity": 98,
      "chip": "ym2612"
    },
    {
      "channel": 4,
      "note": 49,
      "start": 9.4921,
      "duration": 0.0216,
      "velocity": 100,
      "chip": "ym2612"
    },
    {
      "channel": 3,
      "note": 56,
      "start": 9.5032,
      "duration": 0.0102,
      "velocity": 98,
      "chip": "ym2612"
    },
    {
      "channel": 0,
      "note": 87,
      "start": 9.5128,
      "duration": 0.0214,
      "velocity": 108,
      "chip": "ym2612"
    },
    {
      "channel": 1,
      "note": 83,
      "start": 9.5131,
      "duration": 0.0212,
      "velocity": 108,
      "chip": "ym2612"
    },
    {
      "channel": 2,
      "note": 78,
      "start": 9.5133,
      "duration": 0.021,
      "velocity": 108,
      "chip": "ym2612"
    },
    {
      "channel": 3,
      "note": 68,
      "start": 9.5136,
      "duration": 0.0107,
      "velocity": 98,
      "chip": "ym2612"
    },
    {
      "channel": 4,
      "note": 61,
      "start": 9.5138,
      "duration": 0.0209,
      "velocity": 100,
      "chip": "ym2612"
    },
    {
      "channel": 3,
      "note": 56,
      "start": 9.5244,
      "duration": 0.0101,
      "velocity": 98,
      "chip": "ym2612"
    },
    {
      "channel": 3,
      "note": 73,
      "start": 9.5346,
      "duration": 0.026,
      "velocity": 98,
      "chip": "ym2612"
    },
    {
      "channel": 4,
      "note": 49,
      "start": 9.5349,
      "duration": 0.1197,
      "velocity": 100,
      "chip": "ym2612"
    },
    {
      "channel": 3,
      "note": 56,
      "start": 9.5608,
      "duration": 0.0935,
      "velocity": 98,
      "chip": "ym2612"
    },
    {
      "channel": 0,
      "note": 83,
      "start": 9.6537,
      "duration": 0.064,
      "velocity": 108,
      "chip": "ym2612"
    },
    {
      "channel": 1,
      "note": 80,
      "start": 9.6539,
      "duration": 0.064,
      "velocity": 108,
      "chip": "ym2612"
    },
    {
      "channel": 2,
      "note": 75,
      "start": 9.6542,
      "duration": 0.064,
      "velocity": 108,
      "chip": "ym2612"
    },
    {
      "channel": 3,
      "note": 68,
      "start": 9.6544,
      "duration": 0.0117,
      "velocity": 98,
      "chip": "ym2612"
    },
    {
      "channel": 4,
      "note": 61,
      "start": 9.6547,
      "duration": 0.064,
      "velocity": 100,
      "chip": "ym2612"
    },
    {
      "channel": 3,
      "note": 56,
      "start": 9.6663,
      "duration": 0.0521,
      "velocity": 98,
      "chip": "ym2612"
    },
    {
      "channel": 0,
      "note": 87,
      "start": 9.7179,
      "duration": 0.0216,
      "velocity": 108,
      "chip": "ym2612"
    },
    {
      "channel": 1,
      "note": 83,
      "start": 9.7181,
      "duration": 0.0216,
      "velocity": 108,
      "chip": "ym2612"
    },
    {
      "channel": 2,
      "note": 78,
      "start": 9.7184,
      "duration": 0.0216,
      "velocity": 108,
      "chip": "ym2612"
    },
    {
      "channel": 3,
      "note": 64,
      "start": 9.7186,
      "duration": 0.0111,
      "velocity": 98,
      "chip": "ym2612"
    },
    {
      "channel": 4,
      "note": 49,
      "start": 9.7189,
      "duration": 0.0216,
      "velocity": 100,
      "chip": "ym2612"
    },
    {
      "channel": 3,
      "note": 56,
      "start": 9.7299,
      "duration": 0.0103,
      "velocity": 98,
      "chip": "ym2612"
    },
    {
      "channel": 0,
      "note": 88,
      "start": 9.7396,
      "duration": 0.9351,
      "velocity": 108,
      "chip": "ym2612"
    },
    {
      "channel": 1,
      "note": 85,
      "start": 9.7398,
      "duration": 0.9351,
      "velocity": 108,
      "chip": "ym2612"
    },
    {
      "channel": 2,
      "note": 80,
      "start": 9.7401,
      "duration": 0.9351,
      "velocity": 108,
      "chip": "ym2612"
    },
    {
      "channel": 3,
      "note": 63,
      "start": 9.7403,
      "duration": 0.0106,
      "velocity": 98,
      "chip": "ym2612"
    },
    {
      "channel": 4,
      "note": 61,
      "start": 9.7406,
      "duration": 0.0319,
      "velocity": 100,
      "chip": "ym2612"
    },
    {
      "channel": 3,
      "note": 56,
      "start": 9.7511,
      "duration": 0.0199,
      "velocity": 98,
      "chip": "ym2612"
    },
    {
      "channel": 3,
      "note": 61,
      "start": 9.7724,
      "duration": 0.0246,
      "velocity": 98,
      "chip": "ym2612"
    },
    {
      "channel": 4,
      "note": 49,
      "start": 9.7726,
      "duration": 0.1177,
      "velocity": 100,
      "chip": "ym2612"
    },
    {
      "channel": 3,
      "note": 56,
      "start": 9.7971,
      "duration": 0.093,
      "velocity": 98,
      "chip": "ym2612"
    },
    {
      "channel": 3,
      "note": 63,
      "start": 9.8902,
      "duration": 0.011,
      "velocity": 98,
      "chip": "ym2612"
    },
    {
      "channel": 4,
      "note": 61,
      "start": 9.8905,
      "duration": 0.064,
      "velocity": 100,
      "chip": "ym2612"
    },
    {
      "channel": 3,
      "note": 56,
      "start": 9.9014,
      "duration": 0.0529,
      "velocity": 98,
      "chip": "ym2612"
    },
    {
      "channel": 3,
      "note": 64,
      "start": 9.9544,
      "duration": 0.011,
      "velocity": 98,
      "chip": "ym2612"
    },
    {
      "channel": 4,
      "note": 49,
      "start": 9.9547,
      "duration": 0.0209,
      "velocity": 100,
      "chip": "ym2612"
    },
    {
      "channel": 3,
      "note": 56,
      "start": 9.9656,
      "duration": 0.0097,
      "velocity": 98,
      "chip": "ym2612"
    },
    {
      "channel": 3,
      "note": 66,
      "start": 9.9754,
      "duration": 0.0107,
      "velocity": 98,
      "chip": "ym2612"
    },
    {
      "channel": 4,
      "note": 61,
      "start": 9.9757,
      "duration": 0.0207,
      "velocity": 100,
      "chip": "ym2612"
    },
    {
      "channel": 3,
      "note": 56,
      "start": 9.9862,
      "duration": 0.0099,
      "velocity": 98,
      "chip": "ym2612"
    },
    {
      "channel": 3,
      "note": 68,
      "start": 9.9963,
      "duration": 0.0268,
      "velocity": 98,
      "chip": "ym2612"
    },
    {
      "channel": 4,
      "note": 49,
      "start": 9.9965,
      "duration": 0.1199,
      "velocity": 100,
      "chip": "ym2612"
    },
    {
      "channel": 3,
      "note": 56,
      "start": 10.0232,
      "duration": 0.0929,
      "velocity": 98,
      "chip": "ym2612"
    },
    {
      "channel": 3,
      "note": 66,
      "start": 10.1163,
      "duration": 0.0116,
      "velocity": 98,
      "chip": "ym2612"
    },
    {
      "channel": 4,
      "note": 61,
      "start": 10.1166,
      "duration": 0.064,
      "velocity": 100,
      "chip": "ym2612"
    },
    {
      "channel": 3,
      "note": 56,
      "start": 10.128,
      "duration": 0.0523,
      "velocity": 98,
      "chip": "ym2612"
    },
    {
      "channel": 3,
      "note": 64,
      "start": 10.1805,
      "duration": 0.0113,
      "velocity": 98,
      "chip": "ym2612"
    },
    {
      "channel": 4,
      "note": 49,
      "start": 10.1807,
      "duration": 0.0212,
      "velocity": 100,
      "chip": "ym2612"
    },
    {
      "channel": 3,
      "note": 56,
      "start": 10.1919,
      "duration": 0.0098,
      "velocity": 98,
      "chip": "ym2612"
    },
    {
      "channel": 3,
      "note": 63,
      "start": 10.2018,
      "duration": 0.0105,
      "velocity": 98,
      "chip": "ym2612"
    },
    {
      "channel": 4,
      "note": 61,
      "start": 10.2021,
      "duration": 0.0207,
      "velocity": 100,
      "chip": "ym2612"
    },
    {
      "channel": 3,
      "note": 56,
      "start": 10.2124,
      "duration": 0.0101,
      "velocity": 98,
      "chip": "ym2612"
    },
    {
      "channel": 3,
      "note": 61,
      "start": 10.2227,
      "duration": 0.0267,
      "velocity": 98,
      "chip": "ym2612"
    },
    {
      "channel": 4,
      "note": 49,
      "start": 10.2229,
      "duration": 0.1198,
      "velocity": 100,
      "chip": "ym2612"
    },
    {
      "channel": 3,
      "note": 56,
      "start": 10.2495,
      "duration": 0.093,
      "velocity": 98,
      "chip": "ym2612"
    },
    {
      "channel": 3,
      "note": 63,
      "start": 10.3426,
      "duration": 0.0111,
      "velocity": 98,
      "chip": "ym2612"
    },
    {
      "channel": 4,
      "note": 61,
      "start": 10.3429,
      "duration": 0.064,
      "velocity": 100,
      "chip": "ym2612"
    },
    {
      "channel": 3,
      "note": 56,
      "start": 10.3539,
      "duration": 0.0527,
      "velocity": 98,
      "chip": "ym2612"
    },
    {
      "channel": 3,
      "note": 66,
      "start": 10.4068,
      "duration": 0.0112,
      "velocity": 98,
      "chip": "ym2612"
    },
    {
      "channel": 4,
      "note": 49,
      "start": 10.4071,
      "duration": 0.021,
      "velocity": 100,
      "chip": "ym2612"
    },
    {
      "channel": 3,
      "note": 56,
      "start": 10.4181,
      "duration": 0.0096,
      "velocity": 98,
      "chip": "ym2612"
    },
    {
      "channel": 3,
      "note": 68,
      "start": 10.4279,
      "duration": 0.0106,
      "velocity": 98,
      "chip": "ym2612"
    },
    {
      "channel": 4,
      "note": 61,
      "start": 10.4281,
      "duration": 0.0209,
      "velocity": 100,
      "chip": "ym2612"
    },
    {
      "channel": 3,
      "note": 56,
      "start": 10.4386,
      "duration": 0.0101,
      "velocity": 98,
      "chip": "ym2612"
    },
    {
      "channel": 3,
      "note": 73,
      "start": 10.4489,
      "duration": 0.0266,
      "velocity": 98,
      "chip": "ym2612"
    },
    {
      "channel": 4,
      "note": 49,
      "start": 10.4491,
      "duration": 0.1198,
      "velocity": 100,
      "chip": "ym2612"
    },
    {
      "channel": 3,
      "note": 56,
      "start": 10.4756,
      "duration": 0.093,
      "velocity": 98,
      "chip": "ym2612"
    },
    {
      "channel": 3,
      "note": 68,
      "start": 10.5688,
      "duration": 0.0118,
      "velocity": 98,
      "chip": "ym2612"
    },
    {
      "channel": 4,
      "note": 61,
      "start": 10.569,
      "duration": 0.064,
      "velocity": 100,
      "chip": "ym2612"
    },
    {
      "channel": 3,
      "note": 56,
      "start": 10.5807,
      "duration": 0.0521,
      "velocity": 98,
      "chip": "ym2612"
    },
    {
      "channel": 3,
      "note": 64,
      "start": 10.633,
      "duration": 0.011,
      "velocity": 98,
      "chip": "ym2612"
    },
    {
      "channel": 4,
      "note": 49,
      "start": 10.6332,
      "duration": 0.021,
      "velocity": 100,
      "chip": "ym2612"
    },
    {
      "channel": 3,
      "note": 56,
      "start": 10.6441,
      "duration": 0.0098,
      "velocity": 98,
      "chip": "ym2612"
    },
    {
      "channel": 3,
      "note": 63,
      "start": 10.6541,
      "duration": 0.0106,
      "velocity": 98,
      "chip": "ym2612"
    },
    {
      "channel": 4,
      "note": 61,
      "start": 10.6543,
      "duration": 0.0214,
      "velocity": 100,
      "chip": "ym2612"
    },
    {
      "channel": 3,
      "note": 56,
      "start": 10.6648,
      "duration": 0.0107,
      "velocity": 98,
      "chip": "ym2612"
    },
    {
      "channel": 0,
      "note": 92,
      "start": 10.6748,
      "duration": 0.4522,
      "velocity": 108,
      "chip": "ym2612"
    },
    {
      "channel": 1,
      "note": 88,
      "start": 10.6751,
      "duration": 0.4522,
      "velocity": 108,
      "chip": "ym2612"
    },
    {
      "channel": 2,
      "note": 85,
      "start": 10.6753,
      "duration": 0.4522,
      "velocity": 108,
      "chip": "ym2612"
    },
    {
      "channel": 3,
      "note": 61,
      "start": 10.6756,
      "duration": 0.0261,
      "velocity": 98,
      "chip": "ym2612"
    },
    {
      "channel": 4,
      "note": 49,
      "start": 10.6759,
      "duration": 0.1193,
      "velocity": 100,
      "chip": "ym2612"
    },
    {
      "channel": 3,
      "note": 56,
      "start": 10.7019,
      "duration": 0.093,
      "velocity": 98,
      "chip": "ym2612"
    },
    {
      "channel": 3,
      "note": 63,
      "start": 10.795,
      "duration": 0.0111,
      "velocity": 98,
      "chip": "ym2612"
    },
    {
      "channel": 4,
      "note": 61,
      "start": 10.7953,
      "duration": 0.064,
      "velocity": 100,
      "chip": "ym2612"
    },
    {
      "channel": 3,
      "note": 56,
      "start": 10.8062,
      "duration": 0.0528,
      "velocity": 98,
      "chip": "ym2612"
    },
    {
      "channel": 3,
      "note": 64,
      "start": 10.8592,
      "duration": 0.0111,
      "velocity": 98,
      "chip": "ym2612"
    },
    {
      "channel": 4,
      "note": 49,
      "start": 10.8594,
      "duration": 0.021,
      "velocity": 100,
      "chip": "ym2612"
    },
    {
      "channel": 3,
      "note": 56,
      "start": 10.8704,
      "duration": 0.0098,
      "velocity": 98,
      "chip": "ym2612"
    },
    {
      "channel": 3,
      "note": 66,
      "start": 10.8803,
      "duration": 0.0106,
      "velocity": 98,
      "chip": "ym2612"
    },
    {
      "channel": 4,
      "note": 61,
      "start": 10.8806,
      "duration": 0.0207,
      "velocity": 100,
      "chip": "ym2612"
    },
    {
      "channel": 3,
      "note": 56,
      "start": 10.8911,
      "duration": 0.0099,
      "velocity": 98,
      "chip": "ym2612"
    },
    {
      "channel": 3,
      "note": 68,
      "start": 10.9011,
      "duration": 0.0268,
      "velocity": 98,
      "chip": "ym2612"
    },
    {
      "channel": 4,
      "note": 49,
      "start": 10.9014,
      "duration": 0.1199,
      "velocity": 100,
      "chip": "ym2612"
    },
    {
      "channel": 3,
      "note": 56,
      "start": 10.928,
      "duration": 0.093,
      "velocity": 98,
      "chip": "ym2612"
    },
    {
      "channel": 3,
      "note": 66,
      "start": 11.0212,
      "duration": 0.0117,
      "velocity": 98,
      "chip": "ym2612"
    },
    {
      "channel": 4,
      "note": 61,
      "start": 11.0215,
      "duration": 0.0641,
      "velocity": 100,
      "chip": "ym2612"
    },
    {
      "channel": 3,
      "note": 56,
      "start": 11.033,
      "duration": 0.0523,
      "velocity": 98,
      "chip": "ym2612"
    },
    {
      "channel": 3,
      "note": 64,
      "start": 11.0854,
      "duration": 0.0112,
      "velocity": 98,
      "chip": "ym2612"
    },
    {
      "channel": 4,
      "note": 49,
      "start": 11.0857,
      "duration": 0.021,
      "velocity": 100,
      "chip": "ym2612"
    },
    {
      "channel": 3,
      "note": 56,
      "start": 11.0968,
      "duration": 0.0097,
      "velocity": 98,
      "chip": "ym2612"
    },
    {
      "channel": 3,
      "note": 63,
      "start": 11.1066,
      "duration": 0.0105,
      "velocity": 98,
      "chip": "ym2612"
    },
    {
      "channel": 4,
      "note": 61,
      "start": 11.1068,
      "duration": 0.0212,
      "velocity": 100,
      "chip": "ym2612"
    },
    {
      "channel": 3,
      "note": 56,
      "start": 11.1172,
      "duration": 0.0106,
      "velocity": 98,
      "chip": "ym2612"
    },
    {
      "channel": 0,
      "note": 92,
      "start": 11.1272,
      "duration": 0.0419,
      "velocity": 108,
      "chip": "ym2612"
    },
    {
      "channel": 1,
      "note": 88,
      "start": 11.1275,
      "duration": 0.0417,
      "velocity": 108,
      "chip": "ym2612"
    },
    {
      "channel": 2,
      "note": 85,
      "start": 11.1277,
      "duration": 0.0416,
      "velocity": 108,
      "chip": "ym2612"
    },
    {
      "channel": 3,
      "note": 61,
      "start": 11.128,
      "duration": 0.0211,
      "velocity": 98,
      "chip": "ym2612"
    },
    {
      "channel": 4,
      "note": 49,
      "start": 11.1282,
      "duration": 0.0211,
      "velocity": 100,
      "chip": "ym2612"
    },
    {
      "channel": 3,
      "note": 61,
      "start": 11.1492,
      "duration": 0.0203,
      "velocity": 98,
      "chip": "ym2612"
    },
    {
      "channel": 4,
      "note": 49,
      "start": 11.1495,
      "duration": 0.0202,
      "velocity": 100,
      "chip": "ym2612"
    },
    {
      "channel": 3,
      "note": 61,
      "start": 11.1696,
      "duration": 0.0219,
      "velocity": 98,
      "chip": "ym2612"
    },
    {
      "channel": 4,
      "note": 49,
      "start": 11.1699,
      "duration": 0.0219,
      "velocity": 100,
      "chip": "ym2612"
    },
    {
      "channel": 0,
      "note": 92,
      "start": 11.1908,
      "duration": 0.0419,
      "velocity": 108,
      "chip": "ym2612"
    },
    {
      "channel": 1,
      "note": 88,
      "start": 11.1911,
      "duration": 0.0418,
      "velocity": 108,
      "chip": "ym2612"
    },
    {
      "channel": 2,
      "note": 85,
      "start": 11.1913,
      "duration": 0.0416,
      "velocity": 108,
      "chip": "ym2612"
    },
    {
      "channel": 3,
      "note": 61,
      "start": 11.1916,
      "duration": 0.1154,
      "velocity": 98,
      "chip": "ym2612"
    },
    {
      "channel": 4,
      "note": 49,
      "start": 11.1919,
      "duration": 0.1166,
      "velocity": 100,
      "chip": "ym2612"
    },
    {
      "channel": 0,
      "note": 92,
      "start": 11.253,
      "duration": 0.0527,
      "velocity": 108,
      "chip": "ym2612"
    },
    {
      "channel": 1,
      "note": 88,
      "start": 11.2533,
      "duration": 0.0528,
      "velocity": 108,
      "chip": "ym2612"
    },
    {
      "channel": 2,
      "note": 85,
      "start": 11.2535,
      "duration": 0.053,
      "velocity": 108,
      "chip": "ym2612"
    },
    {
      "channel": 0,
      "note": 85,
      "start": 11.306,
      "duration": 0.0224,
      "velocity": 108,
      "chip": "ym2612"
    },
    {
      "channel": 1,
      "note": 80,
      "start": 11.3064,
      "duration": 0.0224,
      "velocity": 108,
      "chip": "ym2612"
    },
    {
      "channel": 2,
      "note": 76,
      "start": 11.3069,
      "duration": 0.0224,
      "velocity": 108,
      "chip": "ym2612"
    },
    {
      "channel": 3,
      "note": 80,
      "start": 11.3083,
      "duration": 0.208,
      "velocity": 95,
      "chip": "ym2612"
    },
    {
      "channel": 4,
      "note": 49,
      "start": 11.3086,
      "duration": 0.0212,
      "velocity": 100,
      "chip": "ym2612"
    },
    {
      "channel": 0,
      "note": 85,
      "start": 11.3287,
      "duration": 0.0204,
      "velocity": 108,
      "chip": "ym2612"
    },
    {
      "channel": 1,
      "note": 80,
      "start": 11.3292,
      "duration": 0.0204,
      "velocity": 108,
      "chip": "ym2612"
    },
    {
      "channel": 2,
      "note": 76,
      "start": 11.3296,
      "duration": 0.0204,
      "velocity": 108,
      "chip": "ym2612"
    },
    {
      "channel": 4,
      "note": 61,
      "start": 11.33,
      "duration": 0.0206,
      "velocity": 100,
      "chip": "ym2612"
    },
    {
      "channel": 0,
      "note": 85,
      "start": 11.3495,
      "duration": 0.0215,
      "velocity": 108,
      "chip": "ym2612"
    },
    {
      "channel": 1,
      "note": 80,
      "start": 11.3499,
      "duration": 0.0214,
      "velocity": 108,
      "chip": "ym2612"
    },
    {
      "channel": 2,
      "note": 76,
      "start": 11.3504,
      "duration": 0.0215,
      "velocity": 108,
      "chip": "ym2612"
    },
    {
      "channel": 4,
      "note": 49,
      "start": 11.3507,
      "duration": 0.0216,
      "velocity": 100,
      "chip": "ym2612"
    },
    {
      "channel": 0,
      "note": 85,
      "start": 11.3712,
      "duration": 0.0227,
      "velocity": 108,
      "chip": "ym2612"
    },
    {
      "channel": 1,
      "note": 80,
      "start": 11.3717,
      "duration": 0.0227,
      "velocity": 108,
      "chip": "ym2612"
    },
    {
      "channel": 2,
      "note": 76,
      "start": 11.3722,
      "duration": 0.0227,
      "velocity": 108,
      "chip": "ym2612"
    },
    {
      "channel": 4,
      "note": 61,
      "start": 11.3725,
      "duration": 0.0229,
      "velocity": 100,
      "chip": "ym2612"
    },
    {
      "channel": 0,
      "note": 85,
      "start": 11.3943,
      "duration": 0.0208,
      "velocity": 108,
      "chip": "ym2612"
    },
    {
      "channel": 1,
      "note": 80,
      "start": 11.3947,
      "duration": 0.0208,
      "velocity": 108,
      "chip": "ym2612"
    },
    {
      "channel": 2,
      "note": 76,
      "start": 11.3952,
      "duration": 0.0208,
      "velocity": 108,
      "chip": "ym2612"
    },
    {
      "channel": 4,
      "note": 49,
      "start": 11.3955,
      "duration": 0.021,
      "velocity": 100,
      "chip": "ym2612"
    },
    {
      "channel": 0,
      "note": 85,
      "start": 11.4154,
      "duration": 0.0559,
      "velocity": 108,
      "chip": "ym2612"
    },
    {
      "channel": 1,
      "note": 80,
      "start": 11.4159,
      "duration": 0.0559,
      "velocity": 108,
      "chip": "ym2612"
    },
    {
      "channel": 2,
      "note": 76,
      "start": 11.4163,
      "duration": 0.0559,
      "velocity": 108,
      "chip": "ym2612"
    },
    {
      "channel": 4,
      "note": 61,
      "start": 11.4167,
      "duration": 0.0561,
      "velocity": 100,
      "chip": "ym2612"
    },
    {
      "channel": 0,
      "note": 85,
      "start": 11.4717,
      "duration": 0.0217,
      "velocity": 108,
      "chip": "ym2612"
    },
    {
      "channel": 1,
      "note": 80,
      "start": 11.4722,
      "duration": 0.0217,
      "velocity": 108,
      "chip": "ym2612"
    },
    {
      "channel": 2,
      "note": 76,
      "start": 11.4726,
      "duration": 0.0217,
      "velocity": 108,
      "chip": "ym2612"
    },
    {
      "channel": 4,
      "note": 49,
      "start": 11.4729,
      "duration": 0.0219,
      "velocity": 100,
      "chip": "ym2612"
    },
    {
      "channel": 0,
      "note": 85,
      "start": 11.4938,
      "duration": 0.0212,
      "velocity": 108,
      "chip": "ym2612"
    },
    {
      "channel": 1,
      "note": 80,
      "start": 11.4942,
      "duration": 0.0212,
      "velocity": 108,
      "chip": "ym2612"
    },
    {
      "channel": 2,
      "note": 76,
      "start": 11.4947,
      "duration": 0.0212,
      "velocity": 108,
      "chip": "ym2612"
    },
    {
      "channel": 4,
      "note": 61,
      "start": 11.495,
      "duration": 0.0216,
      "velocity": 100,
      "chip": "ym2612"
    },
    {
      "channel": 0,
      "note": 85,
      "start": 11.5154,
      "duration": 0.1181,
      "velocity": 108,
      "chip": "ym2612"
    },
    {
      "channel": 1,
      "note": 80,
      "start": 11.5158,
      "duration": 0.1181,
      "velocity": 108,
      "chip": "ym2612"
    },
    {
      "channel": 2,
      "note": 76,
      "start": 11.5162,
      "duration": 0.1181,
      "velocity": 108,
      "chip": "ym2612"
    },
    {
      "channel": 3,
      "note": 81,
      "start": 11.5165,
      "duration": 0.2044,
      "velocity": 95,
      "chip": "ym2612"
    },
    {
      "channel": 4,
      "note": 49,
      "start": 11.5168,
      "duration": 0.1181,
      "velocity": 100,
      "chip": "ym2612"
    },
    {
      "channel": 0,
      "note": 85,
      "start": 11.6338,
      "duration": 0.0639,
      "velocity": 108,
      "chip": "ym2612"
    },
    {
      "channel": 1,
      "note": 80,
      "start": 11.6342,
      "duration": 0.0639,
      "velocity": 108,
      "chip": "ym2612"
    },
    {
      "channel": 2,
      "note": 76,
      "start": 11.6347,
      "duration": 0.0639,
      "velocity": 108,
      "chip": "ym2612"
    },
    {
      "channel": 4,
      "note": 61,
      "start": 11.635,
      "duration": 0.0641,
      "velocity": 100,
      "chip": "ym2612"
    },
    {
      "channel": 0,
      "note": 85,
      "start": 11.698,
      "duration": 0.0215,
      "velocity": 108,
      "chip": "ym2612"
    },
    {
      "channel": 1,
      "note": 80,
      "start": 11.6985,
      "duration": 0.0215,
      "velocity": 108,
      "chip": "ym2612"
    },
    {
      "channel": 2,
      "note": 76,
      "start": 11.6989,
      "duration": 0.0215,
      "velocity": 108,
      "chip": "ym2612"
    },
    {
      "channel": 4,
      "note": 49,
      "start": 11.6993,
      "duration": 0.0219,
      "velocity": 100,
      "chip": "ym2612"
    },
    {
      "channel": 0,
      "note": 85,
      "start": 11.7198,
      "duration": 0.0216,
      "velocity": 108,
      "chip": "ym2612"
    },
    {
      "channel": 1,
      "note": 80,
      "start": 11.7203,
      "duration": 0.0216,
      "velocity": 108,
      "chip": "ym2612"
    },
    {
      "channel": 2,
      "note": 76,
      "start": 11.7207,
      "duration": 0.0216,
      "velocity": 108,
      "chip": "ym2612"
    },
    {
      "channel": 3,
      "note": 83,
      "start": 11.721,
      "duration": 0.2042,
      "velocity": 95,
      "chip": "ym2612"
    },
    {
      "channel": 4,
      "note": 61,
      "start": 11.7213,
      "duration": 0.0216,
      "velocity": 100,
      "chip": "ym2612"
    },
    {
      "channel": 0,
      "note": 85,
      "start": 11.7417,
      "duration": 0.118,
      "velocity": 108,
      "chip": "ym2612"
    },
    {
      "channel": 1,
      "note": 80,
      "start": 11.7422,
      "duration": 0.118,
      "velocity": 108,
      "chip": "ym2612"
    },
    {
      "channel": 2,
      "note": 76,
      "start": 11.7427,
      "duration": 0.118,
      "velocity": 108,
      "chip": "ym2612"
    },
    {
      "channel": 4,
      "note": 49,
      "start": 11.743,
      "duration": 0.1182,
      "velocity": 100,
      "chip": "ym2612"
    },
    {
      "channel": 0,
      "note": 85,
      "start": 11.8601,
      "duration": 0.0638,
      "velocity": 108,
      "chip": "ym2612"
    },
    {
      "channel": 1,
      "note": 80,
      "start": 11.8605,
      "duration": 0.0638,
      "velocity": 108,
      "chip": "ym2612"
    },
    {
      "channel": 2,
      "note": 76,
      "start": 11.861,
      "duration": 0.0638,
      "velocity": 108,
      "chip": "ym2612"
    },
    {
      "channel": 4,
      "note": 61,
      "start": 11.8613,
      "duration": 0.0642,
      "velocity": 100,
      "chip": "ym2612"
    },
    {
      "channel": 0,
      "note": 85,
      "start": 11.9242,
      "duration": 0.0217,
      "velocity": 108,
      "chip": "ym2612"
    },
    {
      "channel": 1,
      "note": 80,
      "start": 11.9246,
      "duration": 0.0216,
      "velocity": 108,
      "chip": "ym2612"
    },
    {
      "channel": 2,
      "note": 76,
      "start": 11.9251,
      "duration": 0.0217,
      "velocity": 108,
      "chip": "ym2612"
    },
    {
      "channel": 3,
      "note": 85,
      "start": 11.9254,
      "duration": 0.0429,
      "velocity": 95,
      "chip": "ym2612"
    },
    {
      "channel": 4,
      "note": 49,
      "start": 11.9256,
      "duration": 0.0216,
      "velocity": 100,
      "chip": "ym2612"
    },
    {
      "channel": 0,
      "note": 85,
      "start": 11.9462,
      "duration": 0.0214,
      "velocity": 108,
      "chip": "ym2612"
    },
    {
      "channel": 1,
      "note": 80,
      "start": 11.9466,
      "duration": 0.0212,
      "velocity": 108,
      "chip": "ym2612"
    },
    {
      "channel": 2,
      "note": 76,
      "start": 11.9471,
      "duration": 0.021,
      "velocity": 108,
      "chip": "ym2612"
    },
    {
      "channel": 4,
      "note": 61,
      "start": 11.9474,
      "duration": 0.0212,
      "velocity": 100,
      "chip": "ym2612"
    },
    {
      "channel": 0,
      "note": 83,
      "start": 11.9677,
      "duration": 0.1182,
      "velocity": 108,
      "chip": "ym2612"
    },
    {
      "channel": 1,
      "note": 78,
      "start": 11.9679,
      "duration": 0.1184,
      "velocity": 108,
      "chip": "ym2612"
    },
    {
      "channel": 2,
      "note": 75,
      "start": 11.9682,
      "duration": 0.1185,
      "velocity": 108,
      "chip": "ym2612"
    },
    {
      "channel": 3,
      "note": 78,
      "start": 11.9685,
      "duration": 0.4526,
      "velocity": 95,
      "chip": "ym2612"
    },
    {
      "channel": 4,
      "note": 47,
      "start": 11.9687,
      "duration": 0.1186,
      "velocity": 100,
      "chip": "ym2612"
    },
    {
      "channel": 0,
      "note": 83,
      "start": 12.0862,
      "duration": 0.0638,
      "velocity": 108,
      "chip": "ym2612"
    },
    {
      "channel": 1,
      "note": 78,
      "start": 12.0866,
      "duration": 0.0638,
      "velocity": 108,
      "chip": "ym2612"
    },
    {
      "channel": 2,
      "note": 75,
      "start": 12.0871,
      "duration": 0.0638,
      "velocity": 108,
      "chip": "ym2612"
    },
    {
      "channel": 4,
      "note": 59,
      "start": 12.0874,
      "duration": 0.064,
      "velocity": 100,
      "chip": "ym2612"
    },
    {
      "channel": 0,
      "note": 83,
      "start": 12.1504,
      "duration": 0.0215,
      "velocity": 108,
      "chip": "ym2612"
    },
    {
      "channel": 1,
      "note": 78,
      "start": 12.1508,
      "duration": 0.0215,
      "velocity": 108,
      "chip": "ym2612"
    },
    {
      "channel": 2,
      "note": 75,
      "start": 12.1513,
      "duration": 0.0215,
      "velocity": 108,
      "chip": "ym2612"
    },
    {
      "channel": 4,
      "note": 47,
      "start": 12.1516,
      "duration": 0.0217,
      "velocity": 100,
      "chip": "ym2612"
    },
    {
      "channel": 0,
      "note": 83,
      "start": 12.1722,
      "duration": 0.0212,
      "velocity": 108,
      "chip": "ym2612"
    },
    {
      "channel": 1,
      "note": 78,
      "start": 12.1726,
      "duration": 0.0212,
      "velocity": 108,
      "chip": "ym2612"
    },
    {
      "channel": 2,
      "note": 75,
      "start": 12.1731,
      "duration": 0.0212,
      "velocity": 108,
      "chip": "ym2612"
    },
    {
      "channel": 4,
      "note": 59,
      "start": 12.1734,
      "duration": 0.0214,
      "velocity": 100,
      "chip": "ym2612"
    },
    {
      "channel": 0,
      "note": 83,
      "start": 12.1938,
      "duration": 0.1183,
      "velocity": 108,
      "chip": "ym2612"
    },
    {
      "channel": 1,
      "note": 78,
      "start": 12.1942,
      "duration": 0.1183,
      "velocity": 108,
      "chip": "ym2612"
    },
    {
      "channel": 2,
      "note": 75,
      "start": 12.1946,
      "duration": 0.1183,
      "velocity": 108,
      "chip": "ym2612"
    },
    {
      "channel": 4,
      "note": 47,
      "start": 12.195,
      "duration": 0.1185,
      "velocity": 100,
      "chip": "ym2612"
    },
    {
      "channel": 0,
      "note": 83,
      "start": 12.3124,
      "duration": 0.0639,
      "velocity": 108,
      "chip": "ym2612"
    },
    {
      "channel": 1,
      "note": 78,
      "start": 12.3128,
      "duration": 0.0639,
      "velocity": 108,
      "chip": "ym2612"
    },
    {
      "channel": 2,
      "note": 75,
      "start": 12.3133,
      "duration": 0.0639,
      "velocity": 108,
      "chip": "ym2612"
    },
    {
      "channel": 4,
      "note": 59,
      "start": 12.3136,
      "duration": 0.0641,
      "velocity": 100,
      "chip": "ym2612"
    },
    {
      "channel": 0,
      "note": 83,
      "start": 12.3766,
      "duration": 0.0216,
      "velocity": 108,
      "chip": "ym2612"
    },
    {
      "channel": 1,
      "note": 78,
      "start": 12.377,
      "duration": 0.0216,
      "velocity": 108,
      "chip": "ym2612"
    },
    {
      "channel": 2,
      "note": 75,
      "start": 12.3775,
      "duration": 0.0216,
      "velocity": 108,
      "chip": "ym2612"
    },
    {
      "channel": 4,
      "note": 47,
      "start": 12.3778,
      "duration": 0.0218,
      "velocity": 100,
      "chip": "ym2612"
    },
    {
      "channel": 0,
      "note": 83,
      "start": 12.3985,
      "duration": 0.0212,
      "velocity": 108,
      "chip": "ym2612"
    },
    {
      "channel": 1,
      "note": 78,
      "start": 12.3989,
      "duration": 0.0212,
      "velocity": 108,
      "chip": "ym2612"
    },
    {
      "channel": 2,
      "note": 75,
      "start": 12.3994,
      "duration": 0.0212,
      "velocity": 108,
      "chip": "ym2612"
    },
    {
      "channel": 4,
      "note": 59,
      "start": 12.3997,
      "duration": 0.0217,
      "velocity": 100,
      "chip": "ym2612"
    },
    {
      "channel": 0,
      "note": 83,
      "start": 12.4201,
      "duration": 0.1181,
      "velocity": 108,
      "chip": "ym2612"
    },
    {
      "channel": 1,
      "note": 78,
      "start": 12.4205,
      "duration": 0.1181,
      "velocity": 108,
      "chip": "ym2612"
    },
    {
      "channel": 2,
      "note": 75,
      "start": 12.421,
      "duration": 0.1181,
      "velocity": 108,
      "chip": "ym2612"
    },
    {
      "channel": 3,
      "note": 80,
      "start": 12.4212,
      "duration": 0.2044,
      "velocity": 95,
      "chip": "ym2612"
    },
    {
      "channel": 4,
      "note": 47,
      "start": 12.4215,
      "duration": 0.1181,
      "velocity": 100,
      "chip": "ym2612"
    },
    {
      "channel": 0,
      "note": 83,
      "start": 12.5385,
      "duration": 0.0638,
      "velocity": 108,
      "chip": "ym2612"
    },
    {
      "channel": 1,
      "note": 78,
      "start": 12.539,
      "duration": 0.0638,
      "velocity": 108,
      "chip": "ym2612"
    },
    {
      "channel": 2,
      "note": 75,
      "start": 12.5394,
      "duration": 0.0638,
      "velocity": 108,
      "chip": "ym2612"
    },
    {
      "channel": 4,
      "note": 59,
      "start": 12.5398,
      "duration": 0.064,
      "velocity": 100,
      "chip": "ym2612"
    },
    {
      "channel": 0,
      "note": 83,
      "start": 12.6027,
      "duration": 0.0215,
      "velocity": 108,
      "chip": "ym2612"
    },
    {
      "channel": 1,
      "note": 78,
      "start": 12.6032,
      "duration": 0.0215,
      "velocity": 108,
      "chip": "ym2612"
    },
    {
      "channel": 2,
      "note": 75,
      "start": 12.6036,
      "duration": 0.0215,
      "velocity": 108,
      "chip": "ym2612"
    },
    {
      "channel": 4,
      "note": 47,
      "start": 12.6039,
      "duration": 0.0219,
      "velocity": 100,
      "chip": "ym2612"
    },
    {
      "channel": 0,
      "note": 83,
      "start": 12.6246,
      "duration": 0.0216,
      "velocity": 108,
      "chip": "ym2612"
    },
    {
      "channel": 1,
      "note": 78,
      "start": 12.625,
      "duration": 0.0216,
      "velocity": 108,
      "chip": "ym2612"
    },
    {
      "channel": 2,
      "note": 75,
      "start": 12.6255,
      "duration": 0.0216,
      "velocity": 108,
      "chip": "ym2612"
    },
    {
      "channel": 3,
      "note": 81,
      "start": 12.6257,
      "duration": 0.2043,
      "velocity": 95,
      "chip": "ym2612"
    },
    {
      "channel": 4,
      "note": 59,
      "start": 12.626,
      "duration": 0.0216,
      "velocity": 100,
      "chip": "ym2612"
    },
    {
      "channel": 0,
      "note": 81,
      "start": 12.6465,
      "duration": 0.1179,
      "velocity": 108,
      "chip": "ym2612"
    },
    {
      "channel": 1,
      "note": 76,
      "start": 12.647,
      "duration": 0.1177,
      "velocity": 108,
      "chip": "ym2612"
    },
    {
      "channel": 2,
      "note": 73,
      "start": 12.6474,
      "duration": 0.1176,
      "velocity": 108,
      "chip": "ym2612"
    },
    {
      "channel": 4,
      "note": 47,
      "start": 12.6477,
      "duration": 0.1176,
      "velocity": 100,
      "chip": "ym2612"
    },
    {
      "channel": 0,
      "note": 83,
      "start": 12.7646,
      "duration": 0.064,
      "velocity": 108,
      "chip": "ym2612"
    },
    {
      "channel": 1,
      "note": 78,
      "start": 12.7649,
      "duration": 0.0642,
      "velocity": 108,
      "chip": "ym2612"
    },
    {
      "channel": 2,
      "note": 75,
      "start": 12.7651,
      "duration": 0.0644,
      "velocity": 108,
      "chip": "ym2612"
    },
    {
      "channel": 4,
      "note": 59,
      "start": 12.7654,
      "duration": 0.0649,
      "velocity": 100,
      "chip": "ym2612"
    },
    {
      "channel": 0,
      "note": 83,
      "start": 12.829,
      "duration": 0.0217,
      "velocity": 108,
      "chip": "ym2612"
    },
    {
      "channel": 1,
      "note": 78,
      "start": 12.8294,
      "duration": 0.0217,
      "velocity": 108,
      "chip": "ym2612"
    },
    {
      "channel": 2,
      "note": 75,
      "start": 12.8299,
      "duration": 0.0217,
      "velocity": 108,
      "chip": "ym2612"
    },
    {
      "channel": 3,
      "note": 83,
      "start": 12.8302,
      "duration": 0.0535,
      "velocity": 95,
      "chip": "ym2612"
    },
    {
      "channel": 4,
      "note": 47,
      "start": 12.8304,
      "duration": 0.0217,
      "velocity": 100,
      "chip": "ym2612"
    },
    {
      "channel": 0,
      "note": 83,
      "start": 12.8511,
      "duration": 0.0312,
      "velocity": 108,
      "chip": "ym2612"
    },
    {
      "channel": 1,
      "note": 78,
      "start": 12.8515,
      "duration": 0.0312,
      "velocity": 108,
      "chip": "ym2612"
    },
    {
      "channel": 2,
      "note": 75,
      "start": 12.852,
      "duration": 0.0312,
      "velocity": 108,
      "chip": "ym2612"
    },
    {
      "channel": 4,
      "note": 59,
      "start": 12.8523,
      "duration": 0.0316,
      "velocity": 100,
      "chip": "ym2612"
    },
    {
      "channel": 0,
      "note": 83,
      "start": 12.8827,
      "duration": 0.1182,
      "velocity": 108,
      "chip": "ym2612"
    },
    {
      "channel": 1,
      "note": 78,
      "start": 12.8831,
      "duration": 0.1182,
      "velocity": 108,
      "chip": "ym2612"
    },
    {
      "channel": 2,
      "note": 76,
      "start": 12.8835,
      "duration": 0.1182,
      "velocity": 108,
      "chip": "ym2612"
    },
    {
      "channel": 3,
      "note": 76,
      "start": 12.8838,
      "duration": 0.4512,
      "velocity": 95,
      "chip": "ym2612"
    },
    {
      "channel": 4,
      "note": 45,
      "start": 12.8841,
      "duration": 0.1182,
      "velocity": 100,
      "chip": "ym2612"
    },
    {
      "channel": 0,
      "note": 83,
      "start": 13.0012,
      "duration": 0.0639,
      "velocity": 108,
      "chip": "ym2612"
    },
    {
      "channel": 1,
      "note": 78,
      "start": 13.0017,
      "duration": 0.0639,
      "velocity": 108,
      "chip": "ym2612"
    },
    {
      "channel": 2,
      "note": 76,
      "start": 13.0021,
      "duration": 0.0639,
      "velocity": 108,
      "chip": "ym2612"
    },
    {
      "channel": 4,
      "note": 57,
      "start": 13.0024,
      "duration": 0.0641,
      "velocity": 100,
      "chip": "ym2612"
    },
    {
      "channel": 0,
      "note": 83,
      "start": 13.0654,
      "duration": 0.0215,
      "velocity": 108,
      "chip": "ym2612"
    },
    {
      "channel": 1,
      "note": 78,
      "start": 13.0659,
      "duration": 0.0215,
      "velocity": 108,
      "chip": "ym2612"
    },
    {
      "channel": 2,
      "note": 76,
      "start": 13.0663,
      "duration": 0.0215,
      "velocity": 108,
      "chip": "ym2612"
    },
    {
      "channel": 4,
      "note": 45,
      "start": 13.0666,
      "duration": 0.0217,
      "velocity": 100,
      "chip": "ym2612"
    },
    {
      "channel": 0,
      "note": 83,
      "start": 13.0872,
      "duration": 0.0213,
      "velocity": 108,
      "chip": "ym2612"
    },
    {
      "channel": 1,
      "note": 78,
      "start": 13.0877,
      "duration": 0.0212,
      "velocity": 108,
      "chip": "ym2612"
    },
    {
      "channel": 2,
      "note": 76,
      "start": 13.0881,
      "duration": 0.0213,
      "velocity": 108,
      "chip": "ym2612"
    },
    {
      "channel": 4,
      "note": 57,
      "start": 13.0885,
      "duration": 0.0215,
      "velocity": 100,
      "chip": "ym2612"
    },
    {
      "channel": 0,
      "note": 83,
      "start": 13.1088,
      "duration": 0.1183,
      "velocity": 108,
      "chip": "ym2612"
    },
    {
      "channel": 1,
      "note": 78,
      "start": 13.1093,
      "duration": 0.1183,
      "velocity": 108,
      "chip": "ym2612"
    },
    {
      "channel": 2,
      "note": 76,
      "start": 13.1097,
      "duration": 0.1183,
      "velocity": 108,
      "chip": "ym2612"
    },
    {
      "channel": 4,
      "note": 45,
      "start": 13.1101,
      "duration": 0.1185,
      "velocity": 100,
      "chip": "ym2612"
    },
    {
      "channel": 0,
      "note": 83,
      "start": 13.2275,
      "duration": 0.0639,
      "velocity": 108,
      "chip": "ym2612"
    },
    {
      "channel": 1,
      "note": 78,
      "start": 13.2279,
      "duration": 0.0638,
      "velocity": 108,
      "chip": "ym2612"
    },
    {
      "channel": 2,
      "note": 76,
      "start": 13.2284,
      "duration": 0.0638,
      "velocity": 108,
      "chip": "ym2612"
    },
    {
      "channel": 4,
      "note": 57,
      "start": 13.2287,
      "duration": 0.064,
      "velocity": 100,
      "chip": "ym2612"
    },
    {
      "channel": 0,
      "note": 81,
      "start": 13.2917,
      "duration": 0.0216,
      "velocity": 108,
      "chip": "ym2612"
    },
    {
      "channel": 1,
      "note": 76,
      "start": 13.2921,
      "duration": 0.0214,
      "velocity": 108,
      "chip": "ym2612"
    },
    {
      "channel": 2,
      "note": 75,
      "start": 13.2925,
      "duration": 0.0212,
      "velocity": 108,
      "chip": "ym2612"
    },
    {
      "channel": 4,
      "note": 45,
      "start": 13.2929,
      "duration": 0.0212,
      "velocity": 100,
      "chip": "ym2612"
    },
    {
      "channel": 0,
      "note": 80,
      "start": 13.3134,
      "duration": 0.0208,
      "velocity": 108,
      "chip": "ym2612"
    },
    {
      "channel": 1,
      "note": 75,
      "start": 13.3137,
      "duration": 0.0208,
      "velocity": 108,
      "chip": "ym2612"
    },
    {
      "channel": 2,
      "note": 73,
      "start": 13.3139,
      "duration": 0.0208,
      "velocity": 108,
      "chip": "ym2612"
    },
    {
      "channel": 4,
      "note": 57,
      "start": 13.3142,
      "duration": 0.021,
      "velocity": 100,
      "chip": "ym2612"
    },
    {
      "channel": 0,
      "note": 78,
      "start": 13.3343,
      "duration": 0.119,
      "velocity": 108,
      "chip": "ym2612"
    },
    {
      "channel": 1,
      "note": 73,
      "start": 13.3346,
      "duration": 0.1191,
      "velocity": 108,
      "chip": "ym2612"
    },
    {
      "channel": 2,
      "note": 71,
      "start": 13.3348,
      "duration": 0.1193,
      "velocity": 108,
      "chip": "ym2612"
    },
    {
      "channel": 3,
      "note": 78,
      "start": 13.3351,
      "duration": 0.4099,
      "velocity": 95,
      "chip": "ym2612"
    },
    {
      "channel": 4,
      "note": 47,
      "start": 13.3354,
      "duration": 0.1193,
      "velocity": 100,
      "chip": "ym2612"
    },
    {
      "channel": 0,
      "note": 78,
      "start": 13.4536,
      "duration": 0.0639,
      "velocity": 108,
      "chip": "ym2612"
    },
    {
      "channel": 1,
      "note": 73,
      "start": 13.4541,
      "duration": 0.0639,
      "velocity": 108,
      "chip": "ym2612"
    },
    {
      "channel": 2,
      "note": 71,
      "start": 13.4545,
      "duration": 0.0639,
      "velocity": 108,
      "chip": "ym2612"
    },
    {
      "channel": 4,
      "note": 59,
      "start": 13.4549,
      "duration": 0.0641,
      "velocity": 100,
      "chip": "ym2612"
    },
    {
      "channel": 0,
      "note": 78,
      "start": 13.5178,
      "duration": 0.0214,
      "velocity": 108,
      "chip": "ym2612"
    },
    {
      "channel": 1,
      "note": 73,
      "start": 13.5183,
      "duration": 0.0214,
      "velocity": 108,
      "chip": "ym2612"
    },
    {
      "channel": 2,
      "note": 71,
      "start": 13.5187,
      "duration": 0.0214,
      "velocity": 108,
      "chip": "ym2612"
    },
    {
      "channel": 4,
      "note": 47,
      "start": 13.5191,
      "duration": 0.0216,
      "velocity": 100,
      "chip": "ym2612"
    },
    {
      "channel": 0,
      "note": 78,
      "start": 13.5396,
      "duration": 0.0214,
      "velocity": 108,
      "chip": "ym2612"
    },
    {
      "channel": 1,
      "note": 73,
      "start": 13.54,
      "duration": 0.0214,
      "velocity": 108,
      "chip": "ym2612"
    },
    {
      "channel": 2,
      "note": 71,
      "start": 13.5405,
      "duration": 0.0214,
      "velocity": 108,
      "chip": "ym2612"
    },
    {
      "channel": 4,
      "note": 59,
      "start": 13.5408,
      "duration": 0.0216,
      "velocity": 100,
      "chip": "ym2612"
    },
    {
      "channel": 0,
      "note": 78,
      "start": 13.5613,
      "duration": 0.1182,
      "velocity": 108,
      "chip": "ym2612"
    },
    {
      "channel": 1,
      "note": 73,
      "start": 13.5617,
      "duration": 0.1182,
      "velocity": 108,
      "chip": "ym2612"
    },
    {
      "channel": 2,
      "note": 71,
      "start": 13.5622,
      "duration": 0.1182,
      "velocity": 108,
      "chip": "ym2612"
    },
    {
      "channel": 4,
      "note": 47,
      "start": 13.5625,
      "duration": 0.1184,
      "velocity": 100,
      "chip": "ym2612"
    },
    {
      "channel": 0,
      "note": 78,
      "start": 13.6798,
      "duration": 0.0638,
      "velocity": 108,
      "chip": "ym2612"
    },
    {
      "channel": 1,
      "note": 73,
      "start": 13.6802,
      "duration": 0.0638,
      "velocity": 108,
      "chip": "ym2612"
    },
    {
      "channel": 2,
      "note": 71,
      "start": 13.6807,
      "duration": 0.0638,
      "velocity": 108,
      "chip": "ym2612"
    },
    {
      "channel": 4,
      "note": 59,
      "start": 13.681,
      "duration": 0.0642,
      "velocity": 100,
      "chip": "ym2612"
    },
    {
      "channel": 0,
      "note": 78,
      "start": 13.7439,
      "duration": 0.0217,
      "velocity": 108,
      "chip": "ym2612"
    },
    {
      "channel": 1,
      "note": 73,
      "start": 13.7444,
      "duration": 0.0217,
      "velocity": 108,
      "chip": "ym2612"
    },
    {
      "channel": 2,
      "note": 71,
      "start": 13.7448,
      "duration": 0.0217,
      "velocity": 108,
      "chip": "ym2612"
    },
    {
      "channel": 3,
      "note": 75,
      "start": 13.7451,
      "duration": 0.0436,
      "velocity": 95,
      "chip": "ym2612"
    },
    {
      "channel": 4,
      "note": 47,
      "start": 13.7454,
      "duration": 0.0217,
      "velocity": 100,
      "chip": "ym2612"
    },
    {
      "channel": 0,
      "note": 78,
      "start": 13.766,
      "duration": 0.0214,
      "velocity": 108,
      "chip": "ym2612"
    },
    {
      "channel": 1,
      "note": 73,
      "start": 13.7664,
      "duration": 0.0214,
      "velocity": 108,
      "chip": "ym2612"
    },
    {
      "channel": 2,
      "note": 71,
      "start": 13.7669,
      "duration": 0.0214,
      "velocity": 108,
      "chip": "ym2612"
    },
    {
      "channel": 4,
      "note": 59,
      "start": 13.7672,
      "duration": 0.0218,
      "velocity": 100,
      "chip": "ym2612"
    },
    {
      "channel": 0,
      "note": 88,
      "start": 13.7877,
      "duration": 0.1179,
      "velocity": 108,
      "chip": "ym2612"
    },
    {
      "channel": 1,
      "note": 83,
      "start": 13.7882,
      "duration": 0.118,
      "velocity": 108,
      "chip": "ym2612"
    },
    {
      "channel": 2,
      "note": 80,
      "start": 13.7886,
      "duration": 0.1179,
      "velocity": 108,
      "chip": "ym2612"
    },
    {
      "channel": 3,
      "note": 80,
      "start": 13.7889,
      "duration": 0.2042,
      "velocity": 95,
      "chip": "ym2612"
    },
    {
      "channel": 4,
      "note": 49,
      "start": 13.7891,
      "duration": 0.118,
      "velocity": 100,
      "chip": "ym2612"
    },
    {
      "channel": 0,
      "note": 88,
      "start": 13.906,
      "duration": 0.0638,
      "velocity": 108,
      "chip": "ym2612"
    },
    {
      "channel": 1,
      "note": 71,
      "start": 13.9065,
      "duration": 0.0638,
      "velocity": 108,
      "chip": "ym2612"
    },
    {
      "channel": 2,
      "note": 80,
      "start": 13.9069,
      "duration": 0.0638,
      "velocity": 108,
      "chip": "ym2612"
    },
    {
      "channel": 4,
      "note": 61,
      "start": 13.9072,
      "duration": 0.064,
      "velocity": 100,
      "chip": "ym2612"
    },
    {
      "channel": 0,
      "note": 88,
      "start": 13.9702,
      "duration": 0.0215,
      "velocity": 108,
      "chip": "ym2612"
    },
    {
      "channel": 1,
      "note": 71,
      "start": 13.9706,
      "duration": 0.0215,
      "velocity": 108,
      "chip": "ym2612"
    },
    {
      "channel": 2,
      "note": 80,
      "start": 13.9711,
      "duration": 0.0215,
      "velocity": 108,
      "chip": "ym2612"
    },
    {
      "channel": 4,
      "note": 49,
      "start": 13.9714,
      "duration": 0.0219,
      "velocity": 100,
      "chip": "ym2612"
    },
    {
      "channel": 0,
      "note": 88,
      "start": 13.992,
      "duration": 0.0215,
      "velocity": 108,
      "chip": "ym2612"
    },
    {
      "channel": 1,
      "note": 83,
      "start": 13.9925,
      "duration": 0.0215,
      "velocity": 108,
      "chip": "ym2612"
    },
    {
      "channel": 2,
      "note": 80,
      "start": 13.9929,
      "duration": 0.0215,
      "velocity": 108,
      "chip": "ym2612"
    },
    {
      "channel": 3,
      "note": 81,
      "start": 13.9932,
      "duration": 0.2043,
      "velocity": 95,
      "chip": "ym2612"
    },
    {
      "channel": 4,
      "note": 61,
      "start": 13.9934,
      "duration": 0.0215,
      "velocity": 100,
      "chip": "ym2612"
    },
    {
      "channel": 0,
      "note": 88,
      "start": 14.0138,
      "duration": 0.1181,
      "velocity": 108,
      "chip": "ym2612"
    },
    {
      "channel": 1,
      "note": 83,
      "start": 14.0143,
      "duration": 0.1181,
      "velocity": 108,
      "chip": "ym2612"
    },
    {
      "channel": 2,
      "note": 80,
      "start": 14.0147,
      "duration": 0.1181,
      "velocity": 108,
      "chip": "ym2612"
    },
    {
      "channel": 4,
      "note": 49,
      "start": 14.015,
      "duration": 0.1183,
      "velocity": 100,
      "chip": "ym2612"
    },
    {
      "channel": 0,
      "note": 88,
      "start": 14.1323,
      "duration": 0.0638,
      "velocity": 108,
      "chip": "ym2612"
    },
    {
      "channel": 1,
      "note": 83,
      "start": 14.1327,
      "duration": 0.0638,
      "velocity": 108,
      "chip": "ym2612"
    },
    {
      "channel": 2,
      "note": 80,
      "start": 14.1332,
      "duration": 0.0638,
      "velocity": 108,
      "chip": "ym2612"
    },
    {
      "channel": 4,
      "note": 61,
      "start": 14.1335,
      "duration": 0.0642,
      "velocity": 100,
      "chip": "ym2612"
    },
    {
      "channel": 0,
      "note": 85,
      "start": 14.1964,
      "duration": 0.0218,
      "velocity": 108,
      "chip": "ym2612"
    },
    {
      "channel": 1,
      "note": 80,
      "start": 14.1969,
      "duration": 0.0216,
      "velocity": 108,
      "chip": "ym2612"
    },
    {
      "channel": 2,
      "note": 76,
      "start": 14.1973,
      "duration": 0.0214,
      "velocity": 108,
      "chip": "ym2612"
    },
    {
      "channel": 3,
      "note": 80,
      "start": 14.1976,
      "duration": 0.0214,
      "velocity": 95,
      "chip": "ym2612"
    },
    {
      "channel": 4,
      "note": 49,
      "start": 14.1978,
      "duration": 0.0214,
      "velocity": 100,
      "chip": "ym2612"
    },
    {
      "channel": 0,
      "note": 83,
      "start": 14.2183,
      "duration": 0.0211,
      "velocity": 108,
      "chip": "ym2612"
    },
    {
      "channel": 1,
      "note": 78,
      "start": 14.2186,
      "duration": 0.0212,
      "velocity": 108,
      "chip": "ym2612"
    },
    {
      "channel": 2,
      "note": 75,
      "start": 14.2188,
      "duration": 0.0215,
      "velocity": 108,
      "chip": "ym2612"
    },
    {
      "channel": 3,
      "note": 78,
      "start": 14.2191,
      "duration": 0.4842,
      "velocity": 95,
      "chip": "ym2612"
    },
    {
      "channel": 4,
      "note": 61,
      "start": 14.2194,
      "duration": 0.0214,
      "velocity": 100,
      "chip": "ym2612"
    },
    {
      "channel": 0,
      "note": 83,
      "start": 14.2397,
      "duration": 0.1183,
      "velocity": 108,
      "chip": "ym2612"
    },
    {
      "channel": 1,
      "note": 78,
      "start": 14.2402,
      "duration": 0.1183,
      "velocity": 108,
      "chip": "ym2612"
    },
    {
      "channel": 2,
      "note": 75,
      "start": 14.2406,
      "duration": 0.1183,
      "velocity": 108,
      "chip": "ym2612"
    },
    {
      "channel": 4,
      "note": 47,
      "start": 14.241,
      "duration": 0.1185,
      "velocity": 100,
      "chip": "ym2612"
    },
    {
      "channel": 0,
      "note": 83,
      "start": 14.3583,
      "duration": 0.0638,
      "velocity": 108,
      "chip": "ym2612"
    },
    {
      "channel": 1,
      "note": 78,
      "start": 14.3588,
      "duration": 0.0638,
      "velocity": 108,
      "chip": "ym2612"
    },
    {
      "channel": 2,
      "note": 75,
      "start": 14.3593,
      "duration": 0.0638,
      "velocity": 108,
      "chip": "ym2612"
    },
    {
      "channel": 4,
      "note": 59,
      "start": 14.3596,
      "duration": 0.064,
      "velocity": 100,
      "chip": "ym2612"
    },
    {
      "channel": 0,
      "note": 83,
      "start": 14.4225,
      "duration": 0.0214,
      "velocity": 108,
      "chip": "ym2612"
    },
    {
      "channel": 1,
      "note": 78,
      "start": 14.4229,
      "duration": 0.0214,
      "velocity": 108,
      "chip": "ym2612"
    },
    {
      "channel": 2,
      "note": 75,
      "start": 14.4234,
      "duration": 0.0214,
      "velocity": 108,
      "chip": "ym2612"
    },
    {
      "channel": 4,
      "note": 47,
      "start": 14.4237,
      "duration": 0.0216,
      "velocity": 100,
      "chip": "ym2612"
    },
    {
      "channel": 0,
      "note": 83,
      "start": 14.4443,
      "duration": 0.0214,
      "velocity": 108,
      "chip": "ym2612"
    },
    {
      "channel": 1,
      "note": 78,
      "start": 14.4447,
      "duration": 0.0214,
      "velocity": 108,
      "chip": "ym2612"
    },
    {
      "channel": 2,
      "note": 75,
      "start": 14.4452,
      "duration": 0.0214,
      "velocity": 108,
      "chip": "ym2612"
    },
    {
      "channel": 4,
      "note": 59,
      "start": 14.4455,
      "duration": 0.0216,
      "velocity": 100,
      "chip": "ym2612"
    },
    {
      "channel": 0,
      "note": 83,
      "start": 14.466,
      "duration": 0.1182,
      "velocity": 108,
      "chip": "ym2612"
    },
    {
      "channel": 1,
      "note": 78,
      "start": 14.4664,
      "duration": 0.1182,
      "velocity": 108,
      "chip": "ym2612"
    },
    {
      "channel": 2,
      "note": 75,
      "start": 14.4669,
      "duration": 0.1182,
      "velocity": 108,
      "chip": "ym2612"
    },
    {
      "channel": 4,
      "note": 47,
      "start": 14.4672,
      "duration": 0.1184,
      "velocity": 100,
      "chip": "ym2612"
    },
    {
      "channel": 0,
      "note": 83,
      "start": 14.5845,
      "duration": 0.0639,
      "velocity": 108,
      "chip": "ym2612"
    },
    {
      "channel": 1,
      "note": 78,
      "start": 14.5849,
      "duration": 0.0639,
      "velocity": 108,
      "chip": "ym2612"
    },
    {
      "channel": 2,
      "note": 75,
      "start": 14.5854,
      "duration": 0.0639,
      "velocity": 108,
      "chip": "ym2612"
    },
    {
      "channel": 4,
      "note": 59,
      "start": 14.5857,
      "duration": 0.0641,
      "velocity": 100,
      "chip": "ym2612"
    },
    {
      "channel": 0,
      "note": 83,
      "start": 14.6487,
      "duration": 0.0215,
      "velocity": 108,
      "chip": "ym2612"
    },
    {
      "channel": 1,
      "note": 78,
      "start": 14.6492,
      "duration": 0.0215,
      "velocity": 108,
      "chip": "ym2612"
    },
    {
      "channel": 2,
      "note": 75,
      "start": 14.6496,
      "duration": 0.0215,
      "velocity": 108,
      "chip": "ym2612"
    },
    {
      "channel": 4,
      "note": 47,
      "start": 14.65,
      "duration": 0.0217,
      "velocity": 100,
      "chip": "ym2612"
    },
    {
      "channel": 0,
      "note": 83,
      "start": 14.6706,
      "duration": 0.0313,
      "velocity": 108,
      "chip": "ym2612"
    },
    {
      "channel": 1,
      "note": 78,
      "start": 14.671,
      "duration": 0.0313,
      "velocity": 108,
      "chip": "ym2612"
    },
    {
      "channel": 2,
      "note": 75,
      "start": 14.6715,
      "duration": 0.0313,
      "velocity": 108,
      "chip": "ym2612"
    },
    {
      "channel": 4,
      "note": 59,
      "start": 14.6718,
      "duration": 0.0329,
      "velocity": 100,
      "chip": "ym2612"
    },
    {
      "channel": 0,
      "note": 85,
      "start": 14.7022,
      "duration": 0.1184,
      "velocity": 108,
      "chip": "ym2612"
    },
    {
      "channel": 1,
      "note": 80,
      "start": 14.7027,
      "duration": 0.1184,
      "velocity": 108,
      "chip": "ym2612"
    },
    {
      "channel": 2,
      "note": 76,
      "start": 14.7031,
      "duration": 0.1184,
      "velocity": 108,
      "chip": "ym2612"
    },
    {
      "channel": 3,
      "note": 80,
      "start": 14.7046,
      "duration": 0.4515,
      "velocity": 95,
      "chip": "ym2612"
    },
    {
      "channel": 4,
      "note": 49,
      "start": 14.7049,
      "duration": 0.1172,
      "velocity": 100,
      "chip": "ym2612"
    },
    {
      "channel": 0,
      "note": 85,
      "start": 14.821,
      "duration": 0.0638,
      "velocity": 108,
      "chip": "ym2612"
    },
    {
      "channel": 1,
      "note": 80,
      "start": 14.8214,
      "duration": 0.0638,
      "velocity": 108,
      "chip": "ym2612"
    },
    {
      "channel": 2,
      "note": 76,
      "start": 14.8219,
      "duration": 0.0638,
      "velocity": 108,
      "chip": "ym2612"
    },
    {
      "channel": 4,
      "note": 61,
      "start": 14.8222,
      "duration": 0.064,
      "velocity": 100,
      "chip": "ym2612"
    },
    {
      "channel": 0,
      "note": 85,
      "start": 14.8851,
      "duration": 0.0215,
      "velocity": 108,
      "chip": "ym2612"
    },
    {
      "channel": 1,
      "note": 80,
      "start": 14.8856,
      "duration": 0.0215,
      "velocity": 108,
      "chip": "ym2612"
    },
    {
      "channel": 2,
      "note": 76,
      "start": 14.886,
      "duration": 0.0215,
      "velocity": 108,
      "chip": "ym2612"
    },
    {
      "channel": 4,
      "note": 49,
      "start": 14.8864,
      "duration": 0.0217,
      "velocity": 100,
      "chip": "ym2612"
    },
    {
      "channel": 0,
      "note": 85,
      "start": 14.907,
      "duration": 0.0212,
      "velocity": 108,
      "chip": "ym2612"
    },
    {
      "channel": 1,
      "note": 80,
      "start": 14.9075,
      "duration": 0.0213,
      "velocity": 108,
      "chip": "ym2612"
    },
    {
      "channel": 2,
      "note": 76,
      "start": 14.9079,
      "duration": 0.0212,
      "velocity": 108,
      "chip": "ym2612"
    },
    {
      "channel": 4,
      "note": 61,
      "start": 14.9082,
      "duration": 0.0215,
      "velocity": 100,
      "chip": "ym2612"
    },
    {
      "channel": 0,
      "note": 85,
      "start": 14.9286,
      "duration": 0.1182,
      "velocity": 108,
      "chip": "ym2612"
    },
    {
      "channel": 1,
      "note": 80,
      "start": 14.9291,
      "duration": 0.1182,
      "velocity": 108,
      "chip": "ym2612"
    },
    {
      "channel": 2,
      "note": 76,
      "start": 14.9295,
      "duration": 0.1182,
      "velocity": 108,
      "chip": "ym2612"
    },
    {
      "channel": 4,
      "note": 49,
      "start": 14.9298,
      "duration": 0.1184,
      "velocity": 100,
      "chip": "ym2612"
    },
    {
      "channel": 0,
      "note": 85,
      "start": 15.0471,
      "duration": 0.0639,
      "velocity": 108,
      "chip": "ym2612"
    },
    {
      "channel": 1,
      "note": 80,
      "start": 15.0476,
      "duration": 0.0639,
      "velocity": 108,
      "chip": "ym2612"
    },
    {
      "channel": 2,
      "note": 76,
      "start": 15.048,
      "duration": 0.0639,
      "velocity": 108,
      "chip": "ym2612"
    },
    {
      "channel": 4,
      "note": 61,
      "start": 15.0484,
      "duration": 0.0641,
      "velocity": 100,
      "chip": "ym2612"
    },
    {
      "channel": 0,
      "note": 85,
      "start": 15.1113,
      "duration": 0.0217,
      "velocity": 108,
      "chip": "ym2612"
    },
    {
      "channel": 1,
      "note": 80,
      "start": 15.1118,
      "duration": 0.0217,
      "velocity": 108,
      "chip": "ym2612"
    },
    {
      "channel": 2,
      "note": 76,
      "start": 15.1122,
      "duration": 0.0217,
      "velocity": 108,
      "chip": "ym2612"
    },
    {
      "channel": 4,
      "note": 49,
      "start": 15.1126,
      "duration": 0.022,
      "velocity": 100,
      "chip": "ym2612"
    },
    {
      "channel": 0,
      "note": 85,
      "start": 15.1334,
      "duration": 0.0213,
      "velocity": 108,
      "chip": "ym2612"
    },
    {
      "channel": 1,
      "note": 80,
      "start": 15.1339,
      "duration": 0.0213,
      "velocity": 108,
      "chip": "ym2612"
    },
    {
      "channel": 2,
      "note": 76,
      "start": 15.1343,
      "duration": 0.0213,
      "velocity": 108,
      "chip": "ym2612"
    },
    {
      "channel": 4,
      "note": 61,
      "start": 15.1346,
      "duration": 0.0217,
      "velocity": 100,
      "chip": "ym2612"
    },
    {
      "channel": 0,
      "note": 85,
      "start": 15.155,
      "duration": 0.1181,
      "velocity": 108,
      "chip": "ym2612"
    },
    {
      "channel": 1,
      "note": 80,
      "start": 15.1555,
      "duration": 0.1181,
      "velocity": 108,
      "chip": "ym2612"
    },
    {
      "channel": 2,
      "note": 76,
      "start": 15.1559,
      "duration": 0.118,
      "velocity": 108,
      "chip": "ym2612"
    },
    {
      "channel": 3,
      "note": 81,
      "start": 15.1562,
      "duration": 0.2043,
      "velocity": 95,
      "chip": "ym2612"
    },
    {
      "channel": 4,
      "note": 49,
      "start": 15.1565,
      "duration": 0.1181,
      "velocity": 100,
      "chip": "ym2612"
    },
    {
      "channel": 0,
      "note": 85,
      "start": 15.2734,
      "duration": 0.0639,
      "velocity": 108,
      "chip": "ym2612"
    },
    {
      "channel": 1,
      "note": 80,
      "start": 15.2739,
      "duration": 0.0639,
      "velocity": 108,
      "chip": "ym2612"
    },
    {
      "channel": 2,
      "note": 76,
      "start": 15.2743,
      "duration": 0.0639,
      "velocity": 108,
      "chip": "ym2612"
    },
    {
      "channel": 4,
      "note": 61,
      "start": 15.2747,
      "duration": 0.0641,
      "velocity": 100,
      "chip": "ym2612"
    },
    {
      "channel": 0,
      "note": 85,
      "start": 15.3377,
      "duration": 0.0215,
      "velocity": 108,
      "chip": "ym2612"
    },
    {
      "channel": 1,
      "note": 80,
      "start": 15.3381,
      "duration": 0.0215,
      "velocity": 108,
      "chip": "ym2612"
    },
    {
      "channel": 2,
      "note": 76,
      "start": 15.3385,
      "duration": 0.0215,
      "velocity": 108,
      "chip": "ym2612"
    },
    {
      "channel": 4,
      "note": 49,
      "start": 15.3389,
      "duration": 0.0219,
      "velocity": 100,
      "chip": "ym2612"
    },
    {
      "channel": 0,
      "note": 85,
      "start": 15.3595,
      "duration": 0.0216,
      "velocity": 108,
      "chip": "ym2612"
    },
    {
      "channel": 1,
      "note": 80,
      "start": 15.3599,
      "duration": 0.0216,
      "velocity": 108,
      "chip": "ym2612"
    },
    {
      "channel": 2,
      "note": 76,
      "start": 15.3604,
      "duration": 0.0216,
      "velocity": 108,
      "chip": "ym2612"
    },
    {
      "channel": 3,
      "note": 83,
      "start": 15.3606,
      "duration": 0.2042,
      "velocity": 95,
      "chip": "ym2612"
    },
    {
      "channel": 4,
      "note": 61,
      "start": 15.3609,
      "duration": 0.0216,
      "velocity": 100,
      "chip": "ym2612"
    },
    {
      "channel": 0,
      "note": 85,
      "start": 15.3815,
      "duration": 0.1178,
      "velocity": 108,
      "chip": "ym2612"
    },
    {
      "channel": 1,
      "note": 80,
      "start": 15.3819,
      "duration": 0.1178,
      "velocity": 108,
      "chip": "ym2612"
    },
    {
      "channel": 2,
      "note": 76,
      "start": 15.3823,
      "duration": 0.1178,
      "velocity": 108,
      "chip": "ym2612"
    },
    {
      "channel": 4,
      "note": 49,
      "start": 15.3827,
      "duration": 0.118,
      "velocity": 100,
      "chip": "ym2612"
    },
    {
      "channel": 0,
      "note": 85,
      "start": 15.4996,
      "duration": 0.0639,
      "velocity": 108,
      "chip": "ym2612"
    },
    {
      "channel": 1,
      "note": 80,
      "start": 15.5001,
      "duration": 0.0639,
      "velocity": 108,
      "chip": "ym2612"
    },
    {
      "channel": 2,
      "note": 76,
      "start": 15.5005,
      "duration": 0.0639,
      "velocity": 108,
      "chip": "ym2612"
    },
    {
      "channel": 4,
      "note": 61,
      "start": 15.5008,
      "duration": 0.0643,
      "velocity": 100,
      "chip": "ym2612"
    },
    {
      "channel": 0,
      "note": 85,
      "start": 15.5639,
      "duration": 0.0217,
      "velocity": 108,
      "chip": "ym2612"
    },
    {
      "channel": 1,
      "note": 80,
      "start": 15.5643,
      "duration": 0.0216,
      "velocity": 108,
      "chip": "ym2612"
    },
    {
      "channel": 2,
      "note": 76,
      "start": 15.5647,
      "duration": 0.0217,
      "velocity": 108,
      "chip": "ym2612"
    },
    {
      "channel": 3,
      "note": 85,
      "start": 15.565,
      "duration": 0.0436,
      "velocity": 95,
      "chip": "ym2612"
    },
    {
      "channel": 4,
      "note": 49,
      "start": 15.5653,
      "duration": 0.0217,
      "velocity": 100,
      "chip": "ym2612"
    },
    {
      "channel": 0,
      "note": 85,
      "start": 15.5859,
      "duration": 0.0214,
      "velocity": 108,
      "chip": "ym2612"
    },
    {
      "channel": 1,
      "note": 80,
      "start": 15.5863,
      "duration": 0.0214,
      "velocity": 108,
      "chip": "ym2612"
    },
    {
      "channel": 2,
      "note": 76,
      "start": 15.5867,
      "duration": 0.0214,
      "velocity": 108,
      "chip": "ym2612"
    },
    {
      "channel": 4,
      "note": 61,
      "start": 15.5871,
      "duration": 0.0218,
      "velocity": 100,
      "chip": "ym2612"
    },
    {
      "channel": 0,
      "note": 83,
      "start": 15.6076,
      "duration": 0.1179,
      "velocity": 108,
      "chip": "ym2612"
    },
    {
      "channel": 1,
      "note": 80,
      "start": 15.608,
      "duration": 0.1179,
      "velocity": 108,
      "chip": "ym2612"
    },
    {
      "channel": 2,
      "note": 75,
      "start": 15.6085,
      "duration": 0.1179,
      "velocity": 108,
      "chip": "ym2612"
    },
    {
      "channel": 3,
      "note": 78,
      "start": 15.6088,
      "duration": 0.4515,
      "velocity": 95,
      "chip": "ym2612"
    },
    {
      "channel": 4,
      "note": 47,
      "start": 15.609,
      "duration": 0.1179,
      "velocity": 100,
      "chip": "ym2612"
    },
    {
      "channel": 0,
      "note": 83,
      "start": 15.7259,
      "duration": 0.0638,
      "velocity": 108,
      "chip": "ym2612"
    },
    {
      "channel": 1,
      "note": 80,
      "start": 15.7263,
      "duration": 0.0638,
      "velocity": 108,
      "chip": "ym2612"
    },
    {
      "channel": 2,
      "note": 75,
      "start": 15.7268,
      "duration": 0.0638,
      "velocity": 108,
      "chip": "ym2612"
    },
    {
      "channel": 4,
      "note": 59,
      "start": 15.7271,
      "duration": 0.064,
      "velocity": 100,
      "chip": "ym2612"
    },
    {
      "channel": 0,
      "note": 83,
      "start": 15.79,
      "duration": 0.0216,
      "velocity": 108,
      "chip": "ym2612"
    },
    {
      "channel": 1,
      "note": 80,
      "start": 15.7905,
      "duration": 0.0215,
      "velocity": 108,
      "chip": "ym2612"
    },
    {
      "channel": 2,
      "note": 75,
      "start": 15.7909,
      "duration": 0.0216,
      "velocity": 108,
      "chip": "ym2612"
    },
    {
      "channel": 4,
      "note": 47,
      "start": 15.7912,
      "duration": 0.0217,
      "velocity": 100,
      "chip": "ym2612"
    },
    {
      "channel": 0,
      "note": 83,
      "start": 15.8119,
      "duration": 0.0212,
      "velocity": 108,
      "chip": "ym2612"
    },
    {
      "channel": 1,
      "note": 80,
      "start": 15.8124,
      "duration": 0.0212,
      "velocity": 108,
      "chip": "ym2612"
    },
    {
      "channel": 2,
      "note": 75,
      "start": 15.8128,
      "duration": 0.0212,
      "velocity": 108,
      "chip": "ym2612"
    },
    {
      "channel": 4,
      "note": 59,
      "start": 15.8131,
      "duration": 0.0215,
      "velocity": 100,
      "chip": "ym2612"
    },
    {
      "channel": 0,
      "note": 83,
      "start": 15.8335,
      "duration": 0.1182,
      "velocity": 108,
      "chip": "ym2612"
    },
    {
      "channel": 1,
      "note": 80,
      "start": 15.8339,
      "duration": 0.1182,
      "velocity": 108,
      "chip": "ym2612"
    },
    {
      "channel": 2,
      "note": 75,
      "start": 15.8344,
      "duration": 0.1182,
      "velocity": 108,
      "chip": "ym2612"
    },
    {
      "channel": 4,
      "note": 47,
      "start": 15.8347,
      "duration": 0.1184,
      "velocity": 100,
      "chip": "ym2612"
    },
    {
      "channel": 0,
      "note": 83,
      "start": 15.952,
      "duration": 0.0639,
      "velocity": 108,
      "chip": "ym2612"
    },
    {
      "channel": 1,
      "note": 80,
      "start": 15.9525,
      "duration": 0.0639,
      "velocity": 108,
      "chip": "ym2612"
    },
    {
      "channel": 2,
      "note": 75,
      "start": 15.9529,
      "duration": 0.0638,
      "velocity": 108,
      "chip": "ym2612"
    },
    {
      "channel": 4,
      "note": 59,
      "start": 15.9533,
      "duration": 0.064,
      "velocity": 100,
      "chip": "ym2612"
    },
    {
      "channel": 0,
      "note": 83,
      "start": 16.0162,
      "duration": 0.0217,
      "velocity": 108,
      "chip": "ym2612"
    },
    {
      "channel": 1,
      "note": 80,
      "start": 16.0167,
      "duration": 0.0215,
      "velocity": 108,
      "chip": "ym2612"
    },
    {
      "channel": 2,
      "note": 75,
      "start": 16.0171,
      "duration": 0.0213,
      "velocity": 108,
      "chip": "ym2612"
    },
    {
      "channel": 4,
      "note": 47,
      "start": 16.0175,
      "duration": 0.0213,
      "velocity": 100,
      "chip": "ym2612"
    },
    {
      "channel": 0,
      "note": 85,
      "start": 16.0381,
      "duration": 0.0209,
      "velocity": 108,
      "chip": "ym2612"
    },
    {
      "channel": 1,
      "note": 80,
      "start": 16.0383,
      "duration": 0.0211,
      "velocity": 108,
      "chip": "ym2612"
    },
    {
      "channel": 2,
      "note": 76,
      "start": 16.0386,
      "duration": 0.0213,
      "velocity": 108,
      "chip": "ym2612"
    },
    {
      "channel": 4,
      "note": 59,
      "start": 16.0389,
      "duration": 0.0217,
      "velocity": 100,
      "chip": "ym2612"
    },
    {
      "channel": 0,
      "note": 85,
      "start": 16.0593,
      "duration": 0.1186,
      "velocity": 108,
      "chip": "ym2612"
    },
    {
      "channel": 1,
      "note": 80,
      "start": 16.0597,
      "duration": 0.1186,
      "velocity": 108,
      "chip": "ym2612"
    },
    {
      "channel": 2,
      "note": 76,
      "start": 16.0602,
      "duration": 0.1186,
      "velocity": 108,
      "chip": "ym2612"
    },
    {
      "channel": 3,
      "note": 80,
      "start": 16.0605,
      "duration": 0.205,
      "velocity": 95,
      "chip": "ym2612"
    },
    {
      "channel": 4,
      "note": 47,
      "start": 16.0607,
      "duration": 0.1186,
      "velocity": 100,
      "chip": "ym2612"
    },
    {
      "channel": 0,
      "note": 88,
      "start": 16.1783,
      "duration": 0.0638,
      "velocity": 108,
      "chip": "ym2612"
    },
    {
      "channel": 1,
      "note": 85,
      "start": 16.1787,
      "duration": 0.0639,
      "velocity": 108,
      "chip": "ym2612"
    },
    {
      "channel": 2,
      "note": 80,
      "start": 16.1792,
      "duration": 0.0639,
      "velocity": 108,
      "chip": "ym2612"
    },
    {
      "channel": 4,
      "note": 59,
      "start": 16.1795,
      "duration": 0.0641,
      "velocity": 100,
      "chip": "ym2612"
    },
    {
      "channel": 0,
      "note": 88,
      "start": 16.2424,
      "duration": 0.0216,
      "velocity": 108,
      "chip": "ym2612"
    },
    {
      "channel": 1,
      "note": 85,
      "start": 16.2429,
      "duration": 0.0216,
      "velocity": 108,
      "chip": "ym2612"
    },
    {
      "channel": 2,
      "note": 80,
      "start": 16.2434,
      "duration": 0.0216,
      "velocity": 108,
      "chip": "ym2612"
    },
    {
      "channel": 4,
      "note": 47,
      "start": 16.2437,
      "duration": 0.022,
      "velocity": 100,
      "chip": "ym2612"
    },
    {
      "channel": 0,
      "note": 88,
      "start": 16.2644,
      "duration": 0.0216,
      "velocity": 108,
      "chip": "ym2612"
    },
    {
      "channel": 1,
      "note": 85,
      "start": 16.2649,
      "duration": 0.0216,
      "velocity": 108,
      "chip": "ym2612"
    },
    {
      "channel": 2,
      "note": 80,
      "start": 16.2653,
      "duration": 0.0216,
      "velocity": 108,
      "chip": "ym2612"
    },
    {
      "channel": 3,
      "note": 81,
      "start": 16.2656,
      "duration": 0.2035,
      "velocity": 95,
      "chip": "ym2612"
    },
    {
      "channel": 4,
      "note": 59,
      "start": 16.2658,
      "duration": 0.0216,
      "velocity": 100,
      "chip": "ym2612"
    },
    {
      "channel": 0,
      "note": 87,
      "start": 16.2863,
      "duration": 0.1178,
      "velocity": 108,
      "chip": "ym2612"
    },
    {
      "channel": 1,
      "note": 83,
      "start": 16.2868,
      "duration": 0.1176,
      "velocity": 108,
      "chip": "ym2612"
    },
    {
      "channel": 2,
      "note": 78,
      "start": 16.2872,
      "duration": 0.1174,
      "velocity": 108,
      "chip": "ym2612"
    },
    {
      "channel": 4,
      "note": 47,
      "start": 16.2876,
      "duration": 0.1174,
      "velocity": 100,
      "chip": "ym2612"
    },
    {
      "channel": 0,
      "note": 88,
      "start": 16.4043,
      "duration": 0.064,
      "velocity": 108,
      "chip": "ym2612"
    },
    {
      "channel": 1,
      "note": 85,
      "start": 16.4045,
      "duration": 0.064,
      "velocity": 108,
      "chip": "ym2612"
    },
    {
      "channel": 2,
      "note": 80,
      "start": 16.4048,
      "duration": 0.064,
      "velocity": 108,
      "chip": "ym2612"
    },
    {
      "channel": 4,
      "note": 59,
      "start": 16.4051,
      "duration": 0.0642,
      "velocity": 100,
      "chip": "ym2612"
    },
    {
      "channel": 0,
      "note": 83,
      "start": 16.4685,
      "duration": 0.0214,
      "velocity": 108,
      "chip": "ym2612"
    },
    {
      "channel": 1,
      "note": 80,
      "start": 16.4687,
      "duration": 0.0216,
      "velocity": 108,
      "chip": "ym2612"
    },
    {
      "channel": 2,
      "note": 75,
      "start": 16.469,
      "duration": 0.0218,
      "velocity": 108,
      "chip": "ym2612"
    },
    {
      "channel": 3,
      "note": 83,
      "start": 16.4692,
      "duration": 0.0536,
      "velocity": 95,
      "chip": "ym2612"
    },
    {
      "channel": 4,
      "note": 47,
      "start": 16.4695,
      "duration": 0.0218,
      "velocity": 100,
      "chip": "ym2612"
    },
    {
      "channel": 0,
      "note": 83,
      "start": 16.4902,
      "duration": 0.0313,
      "velocity": 108,
      "chip": "ym2612"
    },
    {
      "channel": 1,
      "note": 80,
      "start": 16.4907,
      "duration": 0.0313,
      "velocity": 108,
      "chip": "ym2612"
    },
    {
      "channel": 2,
      "note": 75,
      "start": 16.4911,
      "duration": 0.0313,
      "velocity": 108,
      "chip": "ym2612"
    },
    {
      "channel": 4,
      "note": 59,
      "start": 16.4915,
      "duration": 0.0317,
      "velocity": 100,
      "chip": "ym2612"
    },
    {
      "channel": 0,
      "note": 81,
      "start": 16.5218,
      "duration": 0.0213,
      "velocity": 108,
      "chip": "ym2612"
    },
    {
      "channel": 1,
      "note": 76,
      "start": 16.5223,
      "duration": 0.0213,
      "velocity": 108,
      "chip": "ym2612"
    },
    {
      "channel": 2,
      "note": 73,
      "start": 16.5227,
      "duration": 0.0213,
      "velocity": 108,
      "chip": "ym2612"
    },
    {
      "channel": 3,
      "note": 85,
      "start": 16.523,
      "duration": 0.172,
      "velocity": 95,
      "chip": "ym2612"
    },
    {
      "channel": 4,
      "note": 45,
      "start": 16.5233,
      "duration": 0.0213,
      "velocity": 100,
      "chip": "ym2612"
    },
    {
      "channel": 0,
      "note": 81,
      "start": 16.5435,
      "duration": 0.0206,
      "velocity": 108,
      "chip": "ym2612"
    },
    {
      "channel": 1,
      "note": 76,
      "start": 16.5439,
      "duration": 0.0205,
      "velocity": 108,
      "chip": "ym2612"
    },
    {
      "channel": 2,
      "note": 73,
      "start": 16.5444,
      "duration": 0.0205,
      "velocity": 108,
      "chip": "ym2612"
    },
    {
      "channel": 4,
      "note": 57,
      "start": 16.5447,
      "duration": 0.0208,
      "velocity": 100,
      "chip": "ym2612"
    },
    {
      "channel": 0,
      "note": 81,
      "start": 16.5644,
      "duration": 0.0224,
      "velocity": 108,
      "chip": "ym2612"
    },
    {
      "channel": 1,
      "note": 76,
      "start": 16.5648,
      "duration": 0.0225,
      "velocity": 108,
      "chip": "ym2612"
    },
    {
      "channel": 2,
      "note": 73,
      "start": 16.5653,
      "duration": 0.0224,
      "velocity": 108,
      "chip": "ym2612"
    },
    {
      "channel": 4,
      "note": 45,
      "start": 16.5656,
      "duration": 0.0226,
      "velocity": 100,
      "chip": "ym2612"
    },
    {
      "channel": 0,
      "note": 81,
      "start": 16.5872,
      "duration": 0.0214,
      "velocity": 108,
      "chip": "ym2612"
    },
    {
      "channel": 1,
      "note": 76,
      "start": 16.5876,
      "duration": 0.0214,
      "velocity": 108,
      "chip": "ym2612"
    },
    {
      "channel": 2,
      "note": 73,
      "start": 16.588,
      "duration": 0.0214,
      "velocity": 108,
      "chip": "ym2612"
    },
    {
      "channel": 4,
      "note": 57,
      "start": 16.5884,
      "duration": 0.0216,
      "velocity": 100,
      "chip": "ym2612"
    },
    {
      "channel": 0,
      "note": 81,
      "start": 16.6089,
      "duration": 0.021,
      "velocity": 108,
      "chip": "ym2612"
    },
    {
      "channel": 1,
      "note": 76,
      "start": 16.6094,
      "duration": 0.021,
      "velocity": 108,
      "chip": "ym2612"
    },
    {
      "channel": 2,
      "note": 73,
      "start": 16.6098,
      "duration": 0.021,
      "velocity": 108,
      "chip": "ym2612"
    },
    {
      "channel": 4,
      "note": 45,
      "start": 16.6102,
      "duration": 0.0212,
      "velocity": 100,
      "chip": "ym2612"
    },
    {
      "channel": 0,
      "note": 81,
      "start": 16.6303,
      "duration": 0.0205,
      "velocity": 108,
      "chip": "ym2612"
    },
    {
      "channel": 1,
      "note": 76,
      "start": 16.6307,
      "duration": 0.0204,
      "velocity": 108,
      "chip": "ym2612"
    },
    {
      "channel": 2,
      "note": 73,
      "start": 16.6312,
      "duration": 0.0204,
      "velocity": 108,
      "chip": "ym2612"
    },
    {
      "channel": 4,
      "note": 57,
      "start": 16.6315,
      "duration": 0.0206,
      "velocity": 100,
      "chip": "ym2612"
    },
    {
      "channel": 0,
      "note": 81,
      "start": 16.6511,
      "duration": 0.0214,
      "velocity": 108,
      "chip": "ym2612"
    },
    {
      "channel": 1,
      "note": 76,
      "start": 16.6515,
      "duration": 0.0212,
      "velocity": 108,
      "chip": "ym2612"
    },
    {
      "channel": 2,
      "note": 73,
      "start": 16.652,
      "duration": 0.021,
      "velocity": 108,
      "chip": "ym2612"
    },
    {
      "channel": 4,
      "note": 45,
      "start": 16.6523,
      "duration": 0.021,
      "velocity": 100,
      "chip": "ym2612"
    },
    {
      "channel": 0,
      "note": 83,
      "start": 16.6726,
      "duration": 0.021,
      "velocity": 108,
      "chip": "ym2612"
    },
    {
      "channel": 1,
      "note": 80,
      "start": 16.6729,
      "duration": 0.0212,
      "velocity": 108,
      "chip": "ym2612"
    },
    {
      "channel": 2,
      "note": 75,
      "start": 16.6731,
      "duration": 0.0214,
      "velocity": 108,
      "chip": "ym2612"
    },
    {
      "channel": 4,
      "note": 57,
      "start": 16.6735,
      "duration": 0.0218,
      "velocity": 100,
      "chip": "ym2612"
    },
    {
      "channel": 0,
      "note": 83,
      "start": 16.694,
      "duration": 0.0223,
      "velocity": 108,
      "chip": "ym2612"
    },
    {
      "channel": 1,
      "note": 80,
      "start": 16.6944,
      "duration": 0.0224,
      "velocity": 108,
      "chip": "ym2612"
    },
    {
      "channel": 2,
      "note": 75,
      "start": 16.6949,
      "duration": 0.0224,
      "velocity": 108,
      "chip": "ym2612"
    },
    {
      "channel": 3,
      "note": 87,
      "start": 16.6952,
      "duration": 0.0869,
      "velocity": 95,
      "chip": "ym2612"
    },
    {
      "channel": 4,
      "note": 47,
      "start": 16.6954,
      "duration": 0.0223,
      "velocity": 100,
      "chip": "ym2612"
    },
    {
      "channel": 0,
      "note": 83,
      "start": 16.7167,
      "duration": 0.0205,
      "velocity": 108,
      "chip": "ym2612"
    },
    {
      "channel": 1,
      "note": 80,
      "start": 16.7171,
      "duration": 0.0205,
      "velocity": 108,
      "chip": "ym2612"
    },
    {
      "channel": 2,
      "note": 75,
      "start": 16.7176,
      "duration": 0.0205,
      "velocity": 108,
      "chip": "ym2612"
    },
    {
      "channel": 4,
      "note": 59,
      "start": 16.7179,
      "duration": 0.0207,
      "velocity": 100,
      "chip": "ym2612"
    },
    {
      "channel": 0,
      "note": 83,
      "start": 16.7375,
      "duration": 0.0214,
      "velocity": 108,
      "chip": "ym2612"
    },
    {
      "channel": 1,
      "note": 80,
      "start": 16.738,
      "duration": 0.0214,
      "velocity": 108,
      "chip": "ym2612"
    },
    {
      "channel": 2,
      "note": 75,
      "start": 16.7384,
      "duration": 0.0214,
      "velocity": 108,
      "chip": "ym2612"
    },
    {
      "channel": 4,
      "note": 47,
      "start": 16.7387,
      "duration": 0.0216,
      "velocity": 100,
      "chip": "ym2612"
    },
    {
      "channel": 0,
      "note": 83,
      "start": 16.7592,
      "duration": 0.0215,
      "velocity": 108,
      "chip": "ym2612"
    },
    {
      "channel": 1,
      "note": 80,
      "start": 16.7597,
      "duration": 0.0215,
      "velocity": 108,
      "chip": "ym2612"
    },
    {
      "channel": 2,
      "note": 75,
      "start": 16.7601,
      "duration": 0.0215,
      "velocity": 108,
      "chip": "ym2612"
    },
    {
      "channel": 4,
      "note": 59,
      "start": 16.7605,
      "duration": 0.0218,
      "velocity": 100,
      "chip": "ym2612"
    },
    {
      "channel": 0,
      "note": 83,
      "start": 16.781,
      "duration": 0.0212,
      "velocity": 108,
      "chip": "ym2612"
    },
    {
      "channel": 1,
      "note": 80,
      "start": 16.7815,
      "duration": 0.0212,
      "velocity": 108,
      "chip": "ym2612"
    },
    {
      "channel": 2,
      "note": 75,
      "start": 16.7819,
      "duration": 0.0212,
      "velocity": 108,
      "chip": "ym2612"
    },
    {
      "channel": 3,
      "note": 88,
      "start": 16.7822,
      "duration": 0.0863,
      "velocity": 95,
      "chip": "ym2612"
    },
    {
      "channel": 4,
      "note": 47,
      "start": 16.7824,
      "duration": 0.0212,
      "velocity": 100,
      "chip": "ym2612"
    },
    {
      "channel": 0,
      "note": 81,
      "start": 16.8025,
      "duration": 0.0215,
      "velocity": 108,
      "chip": "ym2612"
    },
    {
      "channel": 1,
      "note": 76,
      "start": 16.803,
      "duration": 0.0213,
      "velocity": 108,
      "chip": "ym2612"
    },
    {
      "channel": 2,
      "note": 73,
      "start": 16.8034,
      "duration": 0.0211,
      "velocity": 108,
      "chip": "ym2612"
    },
    {
      "channel": 4,
      "note": 59,
      "start": 16.8038,
      "duration": 0.0211,
      "velocity": 100,
      "chip": "ym2612"
    },
    {
      "channel": 0,
      "note": 83,
      "start": 16.8242,
      "duration": 0.0211,
      "velocity": 108,
      "chip": "ym2612"
    },
    {
      "channel": 1,
      "note": 80,
      "start": 16.8244,
      "duration": 0.0213,
      "velocity": 108,
      "chip": "ym2612"
    },
    {
      "channel": 2,
      "note": 75,
      "start": 16.8247,
      "duration": 0.0215,
      "velocity": 108,
      "chip": "ym2612"
    },
    {
      "channel": 4,
      "note": 47,
      "start": 16.825,
      "duration": 0.0217,
      "velocity": 100,
      "chip": "ym2612"
    },
    {
      "channel": 0,
      "note": 83,
      "start": 16.8457,
      "duration": 0.0214,
      "velocity": 108,
      "chip": "ym2612"
    },
    {
      "channel": 1,
      "note": 80,
      "start": 16.8461,
      "duration": 0.0214,
      "velocity": 108,
      "chip": "ym2612"
    },
    {
      "channel": 2,
      "note": 75,
      "start": 16.8466,
      "duration": 0.0214,
      "velocity": 108,
      "chip": "ym2612"
    },
    {
      "channel": 4,
      "note": 59,
      "start": 16.8469,
      "duration": 0.0218,
      "velocity": 100,
      "chip": "ym2612"
    },
    {
      "channel": 0,
      "note": 85,
      "start": 16.8674,
      "duration": 0.0212,
      "velocity": 108,
      "chip": "ym2612"
    },
    {
      "channel": 1,
      "note": 80,
      "start": 16.8679,
      "duration": 0.0212,
      "velocity": 108,
      "chip": "ym2612"
    },
    {
      "channel": 2,
      "note": 76,
      "start": 16.8683,
      "duration": 0.0212,
      "velocity": 108,
      "chip": "ym2612"
    },
    {
      "channel": 3,
      "note": 90,
      "start": 16.8686,
      "duration": 0.15,
      "velocity": 95,
      "chip": "ym2612"
    },
    {
      "channel": 4,
      "note": 45,
      "start": 16.8688,
      "duration": 0.0212,
      "velocity": 100,
      "chip": "ym2612"
    },
    {
      "channel": 0,
      "note": 85,
      "start": 16.8889,
      "duration": 0.0204,
      "velocity": 108,
      "chip": "ym2612"
    },
    {
      "channel": 1,
      "note": 80,
      "start": 16.8894,
      "duration": 0.0204,
      "velocity": 108,
      "chip": "ym2612"
    },
    {
      "channel": 2,
      "note": 76,
      "start": 16.8898,
      "duration": 0.0204,
      "velocity": 108,
      "chip": "ym2612"
    },
    {
      "channel": 4,
      "note": 57,
      "start": 16.8902,
      "duration": 0.0206,
      "velocity": 100,
      "chip": "ym2612"
    },
    {
      "channel": 0,
      "note": 85,
      "start": 16.9097,
      "duration": 0.0226,
      "velocity": 108,
      "chip": "ym2612"
    },
    {
      "channel": 1,
      "note": 80,
      "start": 16.9101,
      "duration": 0.0225,
      "velocity": 108,
      "chip": "ym2612"
    },
    {
      "channel": 2,
      "note": 76,
      "start": 16.9106,
      "duration": 0.0225,
      "velocity": 108,
      "chip": "ym2612"
    },
    {
      "channel": 4,
      "note": 45,
      "start": 16.9109,
      "duration": 0.0227,
      "velocity": 100,
      "chip": "ym2612"
    },
    {
      "channel": 0,
      "note": 85,
      "start": 16.9326,
      "duration": 0.0214,
      "velocity": 108,
      "chip": "ym2612"
    },
    {
      "channel": 1,
      "note": 80,
      "start": 16.933,
      "duration": 0.0214,
      "velocity": 108,
      "chip": "ym2612"
    },
    {
      "channel": 2,
      "note": 76,
      "start": 16.9334,
      "duration": 0.0214,
      "velocity": 108,
      "chip": "ym2612"
    },
    {
      "channel": 4,
      "note": 57,
      "start": 16.9338,
      "duration": 0.0216,
      "velocity": 100,
      "chip": "ym2612"
    },
    {
      "channel": 0,
      "note": 85,
      "start": 16.9543,
      "duration": 0.0209,
      "velocity": 108,
      "chip": "ym2612"
    },
    {
      "channel": 1,
      "note": 80,
      "start": 16.9548,
      "duration": 0.0209,
      "velocity": 108,
      "chip": "ym2612"
    },
    {
      "channel": 2,
      "note": 76,
      "start": 16.9552,
      "duration": 0.0209,
      "velocity": 108,
      "chip": "ym2612"
    },
    {
      "channel": 4,
      "note": 45,
      "start": 16.9555,
      "duration": 0.0211,
      "velocity": 100,
      "chip": "ym2612"
    },
    {
      "channel": 0,
      "note": 85,
      "start": 16.9756,
      "duration": 0.0205,
      "velocity": 108,
      "chip": "ym2612"
    },
    {
      "channel": 1,
      "note": 80,
      "start": 16.976,
      "duration": 0.0205,
      "velocity": 108,
      "chip": "ym2612"
    },
    {
      "channel": 2,
      "note": 76,
      "start": 16.9765,
      "duration": 0.0205,
      "velocity": 108,
      "chip": "ym2612"
    },
    {
      "channel": 4,
      "note": 57,
      "start": 16.9768,
      "duration": 0.0207,
      "velocity": 100,
      "chip": "ym2612"
    },
    {
      "channel": 0,
      "note": 85,
      "start": 16.9964,
      "duration": 0.0213,
      "velocity": 108,
      "chip": "ym2612"
    },
    {
      "channel": 1,
      "note": 80,
      "start": 16.9969,
      "duration": 0.0211,
      "velocity": 108,
      "chip": "ym2612"
    },
    {
      "channel": 2,
      "note": 76,
      "start": 16.9973,
      "duration": 0.0209,
      "velocity": 108,
      "chip": "ym2612"
    },
    {
      "channel": 4,
      "note": 45,
      "start": 16.9977,
      "duration": 0.0211,
      "velocity": 100,
      "chip": "ym2612"
    },
    {
      "channel": 0,
      "note": 83,
      "start": 17.0179,
      "duration": 0.0613,
      "velocity": 108,
      "chip": "ym2612"
    },
    {
      "channel": 1,
      "note": 78,
      "start": 17.0182,
      "duration": 0.0615,
      "velocity": 108,
      "chip": "ym2612"
    },
    {
      "channel": 2,
      "note": 75,
      "start": 17.0184,
      "duration": 0.0617,
      "velocity": 108,
      "chip": "ym2612"
    },
    {
      "channel": 3,
      "note": 92,
      "start": 17.0187,
      "duration": 0.2501,
      "velocity": 95,
      "chip": "ym2612"
    },
    {
      "channel": 4,
      "note": 57,
      "start": 17.0189,
      "duration": 0.0617,
      "velocity": 100,
      "chip": "ym2612"
    },
    {
      "channel": 0,
      "note": 83,
      "start": 17.0795,
      "duration": 0.0228,
      "velocity": 108,
      "chip": "ym2612"
    },
    {
      "channel": 1,
      "note": 78,
      "start": 17.08,
      "duration": 0.0228,
      "velocity": 108,
      "chip": "ym2612"
    },
    {
      "channel": 2,
      "note": 75,
      "start": 17.0804,
      "duration": 0.0228,
      "velocity": 108,
      "chip": "ym2612"
    },
    {
      "channel": 4,
      "note": 44,
      "start": 17.0807,
      "duration": 0.023,
      "velocity": 100,
      "chip": "ym2612"
    },
    {
      "channel": 0,
      "note": 83,
      "start": 17.1027,
      "duration": 0.0217,
      "velocity": 108,
      "chip": "ym2612"
    },
    {
      "channel": 1,
      "note": 78,
      "start": 17.1031,
      "duration": 0.0217,
      "velocity": 108,
      "chip": "ym2612"
    },
    {
      "channel": 2,
      "note": 75,
      "start": 17.1036,
      "duration": 0.0217,
      "velocity": 108,
      "chip": "ym2612"
    },
    {
      "channel": 4,
      "note": 56,
      "start": 17.1039,
      "duration": 0.022,
      "velocity": 100,
      "chip": "ym2612"
    },
    {
      "channel": 0,
      "note": 83,
      "start": 17.1247,
      "duration": 0.0217,
      "velocity": 108,
      "chip": "ym2612"
    },
    {
      "channel": 1,
      "note": 78,
      "start": 17.1252,
      "duration": 0.0217,
      "velocity": 108,
      "chip": "ym2612"
    },
    {
      "channel": 2,
      "note": 75,
      "start": 17.1256,
      "duration": 0.0217,
      "velocity": 108,
      "chip": "ym2612"
    },
    {
      "channel": 4,
      "note": 44,
      "start": 17.126,
      "duration": 0.0219,
      "velocity": 100,
      "chip": "ym2612"
    },
    {
      "channel": 0,
      "note": 83,
      "start": 17.1468,
      "duration": 0.0217,
      "velocity": 108,
      "chip": "ym2612"
    },
    {
      "channel": 1,
      "note": 78,
      "start": 17.1472,
      "duration": 0.0217,
      "velocity": 108,
      "chip": "ym2612"
    },
    {
      "channel": 2,
      "note": 75,
      "start": 17.1477,
      "duration": 0.0217,
      "velocity": 108,
      "chip": "ym2612"
    },
    {
      "channel": 4,
      "note": 56,
      "start": 17.148,
      "duration": 0.022,
      "velocity": 100,
      "chip": "ym2612"
    },
    {
      "channel": 0,
      "note": 83,
      "start": 17.1689,
      "duration": 0.0216,
      "velocity": 108,
      "chip": "ym2612"
    },
    {
      "channel": 1,
      "note": 78,
      "start": 17.1693,
      "duration": 0.0216,
      "velocity": 108,
      "chip": "ym2612"
    },
    {
      "channel": 2,
      "note": 75,
      "start": 17.1698,
      "duration": 0.0216,
      "velocity": 108,
      "chip": "ym2612"
    },
    {
      "channel": 4,
      "note": 44,
      "start": 17.1701,
      "duration": 0.0218,
      "velocity": 100,
      "chip": "ym2612"
    },
    {
      "channel": 0,
      "note": 83,
      "start": 17.1908,
      "duration": 0.0218,
      "velocity": 108,
      "chip": "ym2612"
    },
    {
      "channel": 1,
      "note": 78,
      "start": 17.1912,
      "duration": 0.0218,
      "velocity": 108,
      "chip": "ym2612"
    },
    {
      "channel": 2,
      "note": 75,
      "start": 17.1917,
      "duration": 0.0218,
      "velocity": 108,
      "chip": "ym2612"
    },
    {
      "channel": 4,
      "note": 56,
      "start": 17.192,
      "duration": 0.022,
      "velocity": 100,
      "chip": "ym2612"
    },
    {
      "channel": 0,
      "note": 83,
      "start": 17.213,
      "duration": 0.0218,
      "velocity": 108,
      "chip": "ym2612"
    },
    {
      "channel": 1,
      "note": 78,
      "start": 17.2134,
      "duration": 0.0218,
      "velocity": 108,
      "chip": "ym2612"
    },
    {
      "channel": 2,
      "note": 75,
      "start": 17.2139,
      "duration": 0.0218,
      "velocity": 108,
      "chip": "ym2612"
    },
    {
      "channel": 4,
      "note": 44,
      "start": 17.2142,
      "duration": 0.022,
      "velocity": 100,
      "chip": "ym2612"
    },
    {
      "channel": 0,
      "note": 83,
      "start": 17.2351,
      "duration": 0.0327,
      "velocity": 108,
      "chip": "ym2612"
    },
    {
      "channel": 1,
      "note": 78,
      "start": 17.2356,
      "duration": 0.0656,
      "velocity": 108,
      "chip": "ym2612"
    },
    {
      "channel": 2,
      "note": 75,
      "start": 17.236,
      "duration": 0.0323,
      "velocity": 108,
      "chip": "ym2612"
    },
    {
      "channel": 4,
      "note": 56,
      "start": 17.2363,
      "duration": 0.0338,
      "velocity": 100,
      "chip": "ym2612"
    },
    {
      "channel": 0,
      "note": 81,
      "start": 17.2681,
      "duration": 0.0222,
      "velocity": 108,
      "chip": "ym2612"
    },
    {
      "channel": 2,
      "note": 88,
      "start": 17.2686,
      "duration": 0.0224,
      "velocity": 108,
      "chip": "ym2612"
    },
    {
      "channel": 3,
      "note": 76,
      "start": 17.27,
      "duration": 0.0647,
      "velocity": 102,
      "chip": "ym2612"
    },
    {
      "channel": 4,
      "note": 45,
      "start": 17.2703,
      "duration": 0.0212,
      "velocity": 100,
      "chip": "ym2612"
    },
    {
      "channel": 0,
      "note": 81,
      "start": 17.2907,
      "duration": 0.0215,
      "velocity": 108,
      "chip": "ym2612"
    },
    {
      "channel": 2,
      "note": 88,
      "start": 17.2913,
      "duration": 0.0213,
      "velocity": 108,
      "chip": "ym2612"
    },
    {
      "channel": 4,
      "note": 57,
      "start": 17.2917,
      "duration": 0.0215,
      "velocity": 100,
      "chip": "ym2612"
    },
    {
      "channel": 1,
      "note": 76,
      "start": 17.3024,
      "duration": 0.0643,
      "velocity": 102,
      "chip": "ym2612"
    },
    {
      "channel": 0,
      "note": 81,
      "start": 17.3124,
      "duration": 0.0213,
      "velocity": 108,
      "chip": "ym2612"
    },
    {
      "channel": 2,
      "note": 88,
      "start": 17.313,
      "duration": 0.0213,
      "velocity": 108,
      "chip": "ym2612"
    },
    {
      "channel": 4,
      "note": 45,
      "start": 17.3133,
      "duration": 0.0217,
      "velocity": 100,
      "chip": "ym2612"
    },
    {
      "channel": 0,
      "note": 81,
      "start": 17.3341,
      "duration": 0.0212,
      "velocity": 108,
      "chip": "ym2612"
    },
    {
      "channel": 2,
      "note": 88,
      "start": 17.3346,
      "duration": 0.0212,
      "velocity": 108,
      "chip": "ym2612"
    },
    {
      "channel": 3,
      "note": 76,
      "start": 17.3349,
      "duration": 0.1049,
      "velocity": 102,
      "chip": "ym2612"
    },
    {
      "channel": 4,
      "note": 57,
      "start": 17.3351,
      "duration": 0.0212,
      "velocity": 100,
      "chip": "ym2612"
    },
    {
      "channel": 0,
      "note": 81,
      "start": 17.3556,
      "duration": 0.0209,
      "velocity": 108,
      "chip": "ym2612"
    },
    {
      "channel": 2,
      "note": 88,
      "start": 17.3561,
      "duration": 0.0209,
      "velocity": 108,
      "chip": "ym2612"
    },
    {
      "channel": 4,
      "note": 45,
      "start": 17.3565,
      "duration": 0.0211,
      "velocity": 100,
      "chip": "ym2612"
    },
    {
      "channel": 1,
      "note": 76,
      "start": 17.3668,
      "duration": 0.1052,
      "velocity": 102,
      "chip": "ym2612"
    },
    {
      "channel": 0,
      "note": 81,
      "start": 17.3768,
      "duration": 0.0619,
      "velocity": 108,
      "chip": "ym2612"
    },
    {
      "channel": 2,
      "note": 88,
      "start": 17.3774,
      "duration": 0.0619,
      "velocity": 108,
      "chip": "ym2612"
    },
    {
      "channel": 4,
      "note": 57,
      "start": 17.3777,
      "duration": 0.0623,
      "velocity": 100,
      "chip": "ym2612"
    },
    {
      "channel": 0,
      "note": 81,
      "start": 17.4391,
      "duration": 0.0215,
      "velocity": 108,
      "chip": "ym2612"
    },
    {
      "channel": 2,
      "note": 88,
      "start": 17.4396,
      "duration": 0.0215,
      "velocity": 108,
      "chip": "ym2612"
    },
    {
      "channel": 3,
      "note": 75,
      "start": 17.4399,
      "duration": 0.0217,
      "velocity": 102,
      "chip": "ym2612"
    },
    {
      "channel": 4,
      "note": 45,
      "start": 17.4401,
      "duration": 0.0217,
      "velocity": 100,
      "chip": "ym2612"
    },
    {
      "channel": 0,
      "note": 81,
      "start": 17.461,
      "duration": 0.0212,
      "velocity": 108,
      "chip": "ym2612"
    },
    {
      "channel": 2,
      "note": 88,
      "start": 17.4615,
      "duration": 0.0212,
      "velocity": 108,
      "chip": "ym2612"
    },
    {
      "channel": 3,
      "note": 73,
      "start": 17.4617,
      "duration": 0.0214,
      "velocity": 102,
      "chip": "ym2612"
    },
    {
      "channel": 4,
      "note": 57,
      "start": 17.462,
      "duration": 0.0214,
      "velocity": 100,
      "chip": "ym2612"
    },
    {
      "channel": 1,
      "note": 75,
      "start": 17.4722,
      "duration": 0.0355,
      "velocity": 102,
      "chip": "ym2612"
    },
    {
      "channel": 0,
      "note": 81,
      "start": 17.4825,
      "duration": 0.1183,
      "velocity": 108,
      "chip": "ym2612"
    },
    {
      "channel": 2,
      "note": 88,
      "start": 17.483,
      "duration": 0.1183,
      "velocity": 108,
      "chip": "ym2612"
    },
    {
      "channel": 3,
      "note": 71,
      "start": 17.4833,
      "duration": 0.4088,
      "velocity": 102,
      "chip": "ym2612"
    },
    {
      "channel": 4,
      "note": 45,
      "start": 17.4835,
      "duration": 0.1183,
      "velocity": 100,
      "chip": "ym2612"
    },
    {
      "channel": 1,
      "note": 73,
      "start": 17.5079,
      "duration": 0.1047,
      "velocity": 102,
      "chip": "ym2612"
    },
    {
      "channel": 0,
      "note": 81,
      "start": 17.6011,
      "duration": 0.0639,
      "velocity": 108,
      "chip": "ym2612"
    },
    {
      "channel": 2,
      "note": 88,
      "start": 17.6016,
      "duration": 0.0638,
      "velocity": 108,
      "chip": "ym2612"
    },
    {
      "channel": 4,
      "note": 57,
      "start": 17.602,
      "duration": 0.064,
      "velocity": 100,
      "chip": "ym2612"
    },
    {
      "channel": 1,
      "note": 71,
      "start": 17.6128,
      "duration": 0.3115,
      "velocity": 102,
      "chip": "ym2612"
    },
    {
      "channel": 0,
      "note": 81,
      "start": 17.6653,
      "duration": 0.0212,
      "velocity": 108,
      "chip": "ym2612"
    },
    {
      "channel": 2,
      "note": 88,
      "start": 17.6658,
      "duration": 0.0212,
      "velocity": 108,
      "chip": "ym2612"
    },
    {
      "channel": 4,
      "note": 45,
      "start": 17.6661,
      "duration": 0.0214,
      "velocity": 100,
      "chip": "ym2612"
    },
    {
      "channel": 0,
      "note": 81,
      "start": 17.6868,
      "duration": 0.0209,
      "velocity": 108,
      "chip": "ym2612"
    },
    {
      "channel": 2,
      "note": 88,
      "start": 17.6873,
      "duration": 0.0209,
      "velocity": 108,
      "chip": "ym2612"
    },
    {
      "channel": 4,
      "note": 57,
      "start": 17.6877,
      "duration": 0.0211,
      "velocity": 100,
      "chip": "ym2612"
    },
    {
      "channel": 0,
      "note": 81,
      "start": 17.7081,
      "duration": 0.1189,
      "velocity": 108,
      "chip": "ym2612"
    },
    {
      "channel": 2,
      "note": 88,
      "start": 17.7086,
      "duration": 0.1188,
      "velocity": 108,
      "chip": "ym2612"
    },
    {
      "channel": 4,
      "note": 45,
      "start": 17.7089,
      "duration": 0.1191,
      "velocity": 100,
      "chip": "ym2612"
    },
    {
      "channel": 0,
      "note": 81,
      "start": 17.8273,
      "duration": 0.0638,
      "velocity": 108,
      "chip": "ym2612"
    },
    {
      "channel": 2,
      "note": 88,
      "start": 17.8278,
      "duration": 0.0638,
      "velocity": 108,
      "chip": "ym2612"
    },
    {
      "channel": 4,
      "note": 57,
      "start": 17.8281,
      "duration": 0.0642,
      "velocity": 100,
      "chip": "ym2612"
    },
    {
      "channel": 0,
      "note": 81,
      "start": 17.8915,
      "duration": 0.0214,
      "velocity": 108,
      "chip": "ym2612"
    },
    {
      "channel": 2,
      "note": 88,
      "start": 17.892,
      "duration": 0.0214,
      "velocity": 108,
      "chip": "ym2612"
    },
    {
      "channel": 3,
      "note": 69,
      "start": 17.8922,
      "duration": 0.0431,
      "velocity": 102,
      "chip": "ym2612"
    },
    {
      "channel": 4,
      "note": 45,
      "start": 17.8925,
      "duration": 0.0214,
      "velocity": 100,
      "chip": "ym2612"
    },
    {
      "channel": 0,
      "note": 81,
      "start": 17.9132,
      "duration": 0.0212,
      "velocity": 108,
      "chip": "ym2612"
    },
    {
      "channel": 2,
      "note": 88,
      "start": 17.9137,
      "duration": 0.0212,
      "velocity": 108,
      "chip": "ym2612"
    },
    {
      "channel": 4,
      "note": 57,
      "start": 17.9141,
      "duration": 0.0215,
      "velocity": 100,
      "chip": "ym2612"
    },
    {
      "channel": 1,
      "note": 69,
      "start": 17.9244,
      "duration": 0.1407,
      "velocity": 102,
      "chip": "ym2612"
    },
    {
      "channel": 0,
      "note": 83,
      "start": 17.9347,
      "duration": 0.1185,
      "velocity": 108,
      "chip": "ym2612"
    },
    {
      "channel": 2,
      "note": 90,
      "start": 17.9352,
      "duration": 0.1185,
      "velocity": 108,
      "chip": "ym2612"
    },
    {
      "channel": 3,
      "note": 68,
      "start": 17.9355,
      "duration": 0.2044,
      "velocity": 102,
      "chip": "ym2612"
    },
    {
      "channel": 4,
      "note": 47,
      "start": 17.9357,
      "duration": 0.1185,
      "velocity": 100,
      "chip": "ym2612"
    },
    {
      "channel": 0,
      "note": 83,
      "start": 18.0535,
      "duration": 0.0639,
      "velocity": 108,
      "chip": "ym2612"
    },
    {
      "channel": 2,
      "note": 90,
      "start": 18.0541,
      "duration": 0.0639,
      "velocity": 108,
      "chip": "ym2612"
    },
    {
      "channel": 4,
      "note": 59,
      "start": 18.0544,
      "duration": 0.0641,
      "velocity": 100,
      "chip": "ym2612"
    },
    {
      "channel": 1,
      "note": 68,
      "start": 18.0652,
      "duration": 0.1619,
      "velocity": 102,
      "chip": "ym2612"
    },
    {
      "channel": 0,
      "note": 83,
      "start": 18.1177,
      "duration": 0.0212,
      "velocity": 108,
      "chip": "ym2612"
    },
    {
      "channel": 2,
      "note": 90,
      "start": 18.1183,
      "duration": 0.0212,
      "velocity": 108,
      "chip": "ym2612"
    },
    {
      "channel": 4,
      "note": 47,
      "start": 18.1186,
      "duration": 0.0216,
      "velocity": 100,
      "chip": "ym2612"
    },
    {
      "channel": 0,
      "note": 83,
      "start": 18.1393,
      "duration": 0.0557,
      "velocity": 108,
      "chip": "ym2612"
    },
    {
      "channel": 2,
      "note": 90,
      "start": 18.1398,
      "duration": 0.0557,
      "velocity": 108,
      "chip": "ym2612"
    },
    {
      "channel": 3,
      "note": 69,
      "start": 18.14,
      "duration": 0.2453,
      "velocity": 102,
      "chip": "ym2612"
    },
    {
      "channel": 4,
      "note": 59,
      "start": 18.1403,
      "duration": 0.0557,
      "velocity": 100,
      "chip": "ym2612"
    },
    {
      "channel": 0,
      "note": 83,
      "start": 18.1953,
      "duration": 0.1249,
      "velocity": 108,
      "chip": "ym2612"
    },
    {
      "channel": 2,
      "note": 90,
      "start": 18.1959,
      "duration": 0.1248,
      "velocity": 108,
      "chip": "ym2612"
    },
    {
      "channel": 4,
      "note": 47,
      "start": 18.1962,
      "duration": 0.1251,
      "velocity": 100,
      "chip": "ym2612"
    },
    {
      "channel": 1,
      "note": 69,
      "start": 18.2273,
      "duration": 0.1902,
      "velocity": 102,
      "chip": "ym2612"
    },
    {
      "channel": 0,
      "note": 83,
      "start": 18.3205,
      "duration": 0.0639,
      "velocity": 108,
      "chip": "ym2612"
    },
    {
      "channel": 2,
      "note": 90,
      "start": 18.321,
      "duration": 0.0639,
      "velocity": 108,
      "chip": "ym2612"
    },
    {
      "channel": 4,
      "note": 59,
      "start": 18.3214,
      "duration": 0.0643,
      "velocity": 100,
      "chip": "ym2612"
    },
    {
      "channel": 0,
      "note": 83,
      "start": 18.3847,
      "duration": 0.0215,
      "velocity": 108,
      "chip": "ym2612"
    },
    {
      "channel": 2,
      "note": 90,
      "start": 18.3852,
      "duration": 0.0215,
      "velocity": 108,
      "chip": "ym2612"
    },
    {
      "channel": 3,
      "note": 68,
      "start": 18.3855,
      "duration": 0.0431,
      "velocity": 102,
      "chip": "ym2612"
    },
    {
      "channel": 4,
      "note": 47,
      "start": 18.3858,
      "duration": 0.0215,
      "velocity": 100,
      "chip": "ym2612"
    },
    {
      "channel": 0,
      "note": 83,
      "start": 18.4066,
      "duration": 0.021,
      "velocity": 108,
      "chip": "ym2612"
    },
    {
      "channel": 2,
      "note": 90,
      "start": 18.4071,
      "duration": 0.021,
      "velocity": 108,
      "chip": "ym2612"
    },
    {
      "channel": 4,
      "note": 59,
      "start": 18.4074,
      "duration": 0.0214,
      "velocity": 100,
      "chip": "ym2612"
    },
    {
      "channel": 1,
      "note": 68,
      "start": 18.4176,
      "duration": 0.1407,
      "velocity": 102,
      "chip": "ym2612"
    },
    {
      "channel": 0,
      "note": 83,
      "start": 18.4279,
      "duration": 0.1185,
      "velocity": 108,
      "chip": "ym2612"
    },
    {
      "channel": 2,
      "note": 90,
      "start": 18.4284,
      "duration": 0.1185,
      "velocity": 108,
      "chip": "ym2612"
    },
    {
      "channel": 3,
      "note": 66,
      "start": 18.4287,
      "duration": 0.5031,
      "velocity": 102,
      "chip": "ym2612"
    },
    {
      "channel": 4,
      "note": 47,
      "start": 18.429,
      "duration": 0.1185,
      "velocity": 100,
      "chip": "ym2612"
    },
    {
      "channel": 0,
      "note": 83,
      "start": 18.5468,
      "duration": 0.0638,
      "velocity": 108,
      "chip": "ym2612"
    },
    {
      "channel": 2,
      "note": 90,
      "start": 18.5473,
      "duration": 0.0638,
      "velocity": 108,
      "chip": "ym2612"
    },
    {
      "channel": 4,
      "note": 59,
      "start": 18.5476,
      "duration": 0.064,
      "velocity": 100,
      "chip": "ym2612"
    },
    {
      "channel": 1,
      "note": 66,
      "start": 18.5584,
      "duration": 0.4044,
      "velocity": 102,
      "chip": "ym2612"
    },
    {
      "channel": 0,
      "note": 83,
      "start": 18.6109,
      "duration": 0.0212,
      "velocity": 108,
      "chip": "ym2612"
    },
    {
      "channel": 2,
      "note": 90,
      "start": 18.6114,
      "duration": 0.0212,
      "velocity": 108,
      "chip": "ym2612"
    },
    {
      "channel": 4,
      "note": 47,
      "start": 18.6118,
      "duration": 0.0214,
      "velocity": 100,
      "chip": "ym2612"
    },
    {
      "channel": 0,
      "note": 83,
      "start": 18.6325,
      "duration": 0.056,
      "velocity": 108,
      "chip": "ym2612"
    },
    {
      "channel": 2,
      "note": 90,
      "start": 18.633,
      "duration": 0.056,
      "velocity": 108,
      "chip": "ym2612"
    },
    {
      "channel": 4,
      "note": 59,
      "start": 18.6334,
      "duration": 0.0562,
      "velocity": 100,
      "chip": "ym2612"
    },
    {
      "channel": 0,
      "note": 83,
      "start": 18.6888,
      "duration": 0.1249,
      "velocity": 108,
      "chip": "ym2612"
    },
    {
      "channel": 2,
      "note": 90,
      "start": 18.6893,
      "duration": 0.1249,
      "velocity": 108,
      "chip": "ym2612"
    },
    {
      "channel": 4,
      "note": 47,
      "start": 18.6897,
      "duration": 0.1251,
      "velocity": 100,
      "chip": "ym2612"
    },
    {
      "channel": 0,
      "note": 83,
      "start": 18.814,
      "duration": 0.0639,
      "velocity": 108,
      "chip": "ym2612"
    },
    {
      "channel": 2,
      "note": 90,
      "start": 18.8145,
      "duration": 0.0639,
      "velocity": 108,
      "chip": "ym2612"
    },
    {
      "channel": 4,
      "note": 59,
      "start": 18.8149,
      "duration": 0.0641,
      "velocity": 100,
      "chip": "ym2612"
    },
    {
      "channel": 0,
      "note": 83,
      "start": 18.8782,
      "duration": 0.0212,
      "velocity": 108,
      "chip": "ym2612"
    },
    {
      "channel": 2,
      "note": 90,
      "start": 18.8787,
      "duration": 0.0212,
      "velocity": 108,
      "chip": "ym2612"
    },
    {
      "channel": 4,
      "note": 47,
      "start": 18.8791,
      "duration": 0.0214,
      "velocity": 100,
      "chip": "ym2612"
    },
    {
      "channel": 0,
      "note": 83,
      "start": 18.8998,
      "duration": 0.031,
      "velocity": 108,
      "chip": "ym2612"
    },
    {
      "channel": 2,
      "note": 90,
      "start": 18.9003,
      "duration": 0.031,
      "velocity": 108,
      "chip": "ym2612"
    },
    {
      "channel": 4,
      "note": 59,
      "start": 18.9006,
      "duration": 0.0314,
      "velocity": 100,
      "chip": "ym2612"
    },
    {
      "channel": 0,
      "note": 92,
      "start": 18.9312,
      "duration": 0.0209,
      "velocity": 108,
      "chip": "ym2612"
    },
    {
      "channel": 2,
      "note": 87,
      "start": 18.9317,
      "duration": 0.0209,
      "velocity": 108,
      "chip": "ym2612"
    },
    {
      "channel": 3,
      "note": 64,
      "start": 18.9319,
      "duration": 0.1714,
      "velocity": 102,
      "chip": "ym2612"
    },
    {
      "channel": 4,
      "note": 49,
      "start": 18.9322,
      "duration": 0.0209,
      "velocity": 100,
      "chip": "ym2612"
    },
    {
      "channel": 0,
      "note": 92,
      "start": 18.9524,
      "duration": 0.0202,
      "velocity": 108,
      "chip": "ym2612"
    },
    {
      "channel": 2,
      "note": 87,
      "start": 18.9529,
      "duration": 0.0202,
      "velocity": 108,
      "chip": "ym2612"
    },
    {
      "channel": 4,
      "note": 61,
      "start": 18.9532,
      "duration": 0.0205,
      "velocity": 100,
      "chip": "ym2612"
    },
    {
      "channel": 1,
      "note": 64,
      "start": 18.963,
      "duration": 0.1713,
      "velocity": 102,
      "chip": "ym2612"
    },
    {
      "channel": 0,
      "note": 92,
      "start": 18.973,
      "duration": 0.0223,
      "velocity": 108,
      "chip": "ym2612"
    },
    {
      "channel": 2,
      "note": 87,
      "start": 18.9735,
      "duration": 0.0223,
      "velocity": 108,
      "chip": "ym2612"
    },
    {
      "channel": 4,
      "note": 49,
      "start": 18.9738,
      "duration": 0.0225,
      "velocity": 100,
      "chip": "ym2612"
    },
    {
      "channel": 0,
      "note": 92,
      "start": 18.9956,
      "duration": 0.021,
      "velocity": 108,
      "chip": "ym2612"
    },
    {
      "channel": 2,
      "note": 87,
      "start": 18.9961,
      "duration": 0.021,
      "velocity": 108,
      "chip": "ym2612"
    },
    {
      "channel": 4,
      "note": 61,
      "start": 18.9964,
      "duration": 0.0212,
      "velocity": 100,
      "chip": "ym2612"
    },
    {
      "channel": 0,
      "note": 92,
      "start": 19.017,
      "duration": 0.0208,
      "velocity": 108,
      "chip": "ym2612"
    },
    {
      "channel": 2,
      "note": 87,
      "start": 19.0175,
      "duration": 0.0207,
      "velocity": 108,
      "chip": "ym2612"
    },
    {
      "channel": 4,
      "note": 49,
      "start": 19.0178,
      "duration": 0.021,
      "velocity": 100,
      "chip": "ym2612"
    },
    {
      "channel": 0,
      "note": 92,
      "start": 19.0381,
      "duration": 0.0207,
      "velocity": 108,
      "chip": "ym2612"
    },
    {
      "channel": 2,
      "note": 87,
      "start": 19.0386,
      "duration": 0.0207,
      "velocity": 108,
      "chip": "ym2612"
    },
    {
      "channel": 4,
      "note": 61,
      "start": 19.0389,
      "duration": 0.0208,
      "velocity": 100,
      "chip": "ym2612"
    },
    {
      "channel": 0,
      "note": 92,
      "start": 19.0591,
      "duration": 0.021,
      "velocity": 108,
      "chip": "ym2612"
    },
    {
      "channel": 2,
      "note": 87,
      "start": 19.0596,
      "duration": 0.021,
      "velocity": 108,
      "chip": "ym2612"
    },
    {
      "channel": 4,
      "note": 49,
      "start": 19.0599,
      "duration": 0.0212,
      "velocity": 100,
      "chip": "ym2612"
    },
    {
      "channel": 0,
      "note": 92,
      "start": 19.0804,
      "duration": 0.0219,
      "velocity": 108,
      "chip": "ym2612"
    },
    {
      "channel": 2,
      "note": 87,
      "start": 19.0809,
      "duration": 0.0219,
      "velocity": 108,
      "chip": "ym2612"
    },
    {
      "channel": 4,
      "note": 61,
      "start": 19.0812,
      "duration": 0.0223,
      "velocity": 100,
      "chip": "ym2612"
    },
    {
      "channel": 0,
      "note": 92,
      "start": 19.1027,
      "duration": 0.0209,
      "velocity": 108,
      "chip": "ym2612"
    },
    {
      "channel": 2,
      "note": 87,
      "start": 19.1032,
      "duration": 0.0209,
      "velocity": 108,
      "chip": "ym2612"
    },
    {
      "channel": 3,
      "note": 66,
      "start": 19.1034,
      "duration": 0.0843,
      "velocity": 102,
      "chip": "ym2612"
    },
    {
      "channel": 4,
      "note": 47,
      "start": 19.1037,
      "duration": 0.0209,
      "velocity": 100,
      "chip": "ym2612"
    },
    {
      "channel": 0,
      "note": 92,
      "start": 19.1239,
      "duration": 0.02,
      "velocity": 108,
      "chip": "ym2612"
    },
    {
      "channel": 2,
      "note": 87,
      "start": 19.1244,
      "duration": 0.02,
      "velocity": 108,
      "chip": "ym2612"
    },
    {
      "channel": 4,
      "note": 59,
      "start": 19.1247,
      "duration": 0.0202,
      "velocity": 100,
      "chip": "ym2612"
    },
    {
      "channel": 1,
      "note": 66,
      "start": 19.1344,
      "duration": 0.0859,
      "velocity": 102,
      "chip": "ym2612"
    },
    {
      "channel": 0,
      "note": 92,
      "start": 19.1443,
      "duration": 0.0212,
      "velocity": 108,
      "chip": "ym2612"
    },
    {
      "channel": 2,
      "note": 87,
      "start": 19.1448,
      "duration": 0.0211,
      "velocity": 108,
      "chip": "ym2612"
    },
    {
      "channel": 4,
      "note": 47,
      "start": 19.1451,
      "duration": 0.0213,
      "velocity": 100,
      "chip": "ym2612"
    },
    {
      "channel": 0,
      "note": 92,
      "start": 19.1658,
      "duration": 0.021,
      "velocity": 108,
      "chip": "ym2612"
    },
    {
      "channel": 2,
      "note": 87,
      "start": 19.1663,
      "duration": 0.0209,
      "velocity": 108,
      "chip": "ym2612"
    },
    {
      "channel": 4,
      "note": 59,
      "start": 19.1666,
      "duration": 0.0214,
      "velocity": 100,
      "chip": "ym2612"
    },
    {
      "channel": 0,
      "note": 92,
      "start": 19.1871,
      "duration": 0.022,
      "velocity": 108,
      "chip": "ym2612"
    },
    {
      "channel": 2,
      "note": 87,
      "start": 19.1876,
      "duration": 0.022,
      "velocity": 108,
      "chip": "ym2612"
    },
    {
      "channel": 3,
      "note": 68,
      "start": 19.1878,
      "duration": 0.0856,
      "velocity": 102,
      "chip": "ym2612"
    },
    {
      "channel": 4,
      "note": 47,
      "start": 19.1881,
      "duration": 0.022,
      "velocity": 100,
      "chip": "ym2612"
    },
    {
      "channel": 0,
      "note": 92,
      "start": 19.2094,
      "duration": 0.0205,
      "velocity": 108,
      "chip": "ym2612"
    },
    {
      "channel": 2,
      "note": 87,
      "start": 19.2099,
      "duration": 0.0205,
      "velocity": 108,
      "chip": "ym2612"
    },
    {
      "channel": 4,
      "note": 59,
      "start": 19.2102,
      "duration": 0.0207,
      "velocity": 100,
      "chip": "ym2612"
    },
    {
      "channel": 1,
      "note": 68,
      "start": 19.2204,
      "duration": 0.0851,
      "velocity": 102,
      "chip": "ym2612"
    },
    {
      "channel": 0,
      "note": 92,
      "start": 19.2302,
      "duration": 0.0211,
      "velocity": 108,
      "chip": "ym2612"
    },
    {
      "channel": 2,
      "note": 87,
      "start": 19.2307,
      "duration": 0.0211,
      "velocity": 108,
      "chip": "ym2612"
    },
    {
      "channel": 4,
      "note": 47,
      "start": 19.2311,
      "duration": 0.0213,
      "velocity": 100,
      "chip": "ym2612"
    },
    {
      "channel": 0,
      "note": 92,
      "start": 19.2517,
      "duration": 0.0208,
      "velocity": 108,
      "chip": "ym2612"
    },
    {
      "channel": 2,
      "note": 87,
      "start": 19.2522,
      "duration": 0.0208,
      "velocity": 108,
      "chip": "ym2612"
    },
    {
      "channel": 4,
      "note": 59,
      "start": 19.2525,
      "duration": 0.0212,
      "velocity": 100,
      "chip": "ym2612"
    },
    {
      "channel": 0,
      "note": 92,
      "start": 19.2728,
      "duration": 0.021,
      "velocity": 108,
      "chip": "ym2612"
    },
    {
      "channel": 2,
      "note": 88,
      "start": 19.2733,
      "duration": 0.021,
      "velocity": 108,
      "chip": "ym2612"
    },
    {
      "channel": 3,
      "note": 69,
      "start": 19.2736,
      "duration": 0.0644,
      "velocity": 102,
      "chip": "ym2612"
    },
    {
      "channel": 4,
      "note": 45,
      "start": 19.2738,
      "duration": 0.021,
      "velocity": 100,
      "chip": "ym2612"
    },
    {
      "channel": 0,
      "note": 92,
      "start": 19.2941,
      "duration": 0.0212,
      "velocity": 108,
      "chip": "ym2612"
    },
    {
      "channel": 2,
      "note": 88,
      "start": 19.2946,
      "duration": 0.0212,
      "velocity": 108,
      "chip": "ym2612"
    },
    {
      "channel": 4,
      "note": 57,
      "start": 19.295,
      "duration": 0.0214,
      "velocity": 100,
      "chip": "ym2612"
    },
    {
      "channel": 1,
      "note": 69,
      "start": 19.3057,
      "duration": 0.0637,
      "velocity": 102,
      "chip": "ym2612"
    },
    {
      "channel": 0,
      "note": 92,
      "start": 19.3157,
      "duration": 0.0213,
      "velocity": 108,
      "chip": "ym2612"
    },
    {
      "channel": 2,
      "note": 88,
      "start": 19.3162,
      "duration": 0.0213,
      "velocity": 108,
      "chip": "ym2612"
    },
    {
      "channel": 4,
      "note": 45,
      "start": 19.3165,
      "duration": 0.0217,
      "velocity": 100,
      "chip": "ym2612"
    },
    {
      "channel": 0,
      "note": 92,
      "start": 19.3373,
      "duration": 0.0206,
      "velocity": 108,
      "chip": "ym2612"
    },
    {
      "channel": 2,
      "note": 88,
      "start": 19.3378,
      "duration": 0.0206,
      "velocity": 108,
      "chip": "ym2612"
    },
    {
      "channel": 3,
      "note": 68,
      "start": 19.3381,
      "duration": 0.0635,
      "velocity": 102,
      "chip": "ym2612"
    },
    {
      "channel": 4,
      "note": 57,
      "start": 19.3384,
      "duration": 0.0206,
      "velocity": 100,
      "chip": "ym2612"
    },
    {
      "channel": 0,
      "note": 92,
      "start": 19.3583,
      "duration": 0.0209,
      "velocity": 108,
      "chip": "ym2612"
    },
    {
      "channel": 2,
      "note": 88,
      "start": 19.3588,
      "duration": 0.0209,
      "velocity": 108,
      "chip": "ym2612"
    },
    {
      "channel": 4,
      "note": 45,
      "start": 19.3591,
      "duration": 0.0211,
      "velocity": 100,
      "chip": "ym2612"
    },
    {
      "channel": 1,
      "note": 68,
      "start": 19.3695,
      "duration": 0.0641,
      "velocity": 102,
      "chip": "ym2612"
    },
    {
      "channel": 0,
      "note": 92,
      "start": 19.3795,
      "duration": 0.0211,
      "velocity": 108,
      "chip": "ym2612"
    },
    {
      "channel": 2,
      "note": 88,
      "start": 19.38,
      "duration": 0.0211,
      "velocity": 108,
      "chip": "ym2612"
    },
    {
      "channel": 4,
      "note": 57,
      "start": 19.3804,
      "duration": 0.0215,
      "velocity": 100,
      "chip": "ym2612"
    },
    {
      "channel": 0,
      "note": 92,
      "start": 19.401,
      "duration": 0.0214,
      "velocity": 108,
      "chip": "ym2612"
    },
    {
      "channel": 2,
      "note": 88,
      "start": 19.4015,
      "duration": 0.0214,
      "velocity": 108,
      "chip": "ym2612"
    },
    {
      "channel": 3,
      "note": 69,
      "start": 19.4017,
      "duration": 0.0429,
      "velocity": 102,
      "chip": "ym2612"
    },
    {
      "channel": 4,
      "note": 45,
      "start": 19.402,
      "duration": 0.0214,
      "velocity": 100,
      "chip": "ym2612"
    },
    {
      "channel": 0,
      "note": 92,
      "start": 19.4227,
      "duration": 0.021,
      "velocity": 108,
      "chip": "ym2612"
    },
    {
      "channel": 2,
      "note": 88,
      "start": 19.4232,
      "duration": 0.021,
      "velocity": 108,
      "chip": "ym2612"
    },
    {
      "channel": 4,
      "note": 57,
      "start": 19.4235,
      "duration": 0.0214,
      "velocity": 100,
      "chip": "ym2612"
    },
    {
      "channel": 1,
      "note": 69,
      "start": 19.4337,
      "duration": 0.042,
      "velocity": 102,
      "chip": "ym2612"
    },
    {
      "channel": 0,
      "note": 90,
      "start": 19.444,
      "duration": 0.0211,
      "velocity": 108,
      "chip": "ym2612"
    },
    {
      "channel": 2,
      "note": 87,
      "start": 19.4445,
      "duration": 0.0211,
      "velocity": 108,
      "chip": "ym2612"
    },
    {
      "channel": 3,
      "note": 71,
      "start": 19.4448,
      "duration": 0.1809,
      "velocity": 102,
      "chip": "ym2612"
    },
    {
      "channel": 4,
      "note": 47,
      "start": 19.4451,
      "duration": 0.0211,
      "velocity": 100,
      "chip": "ym2612"
    },
    {
      "channel": 0,
      "note": 90,
      "start": 19.4654,
      "duration": 0.0201,
      "velocity": 108,
      "chip": "ym2612"
    },
    {
      "channel": 2,
      "note": 87,
      "start": 19.466,
      "duration": 0.0201,
      "velocity": 108,
      "chip": "ym2612"
    },
    {
      "channel": 4,
      "note": 59,
      "start": 19.4663,
      "duration": 0.0203,
      "velocity": 100,
      "chip": "ym2612"
    },
    {
      "channel": 1,
      "note": 71,
      "start": 19.4759,
      "duration": 0.1809,
      "velocity": 102,
      "chip": "ym2612"
    },
    {
      "channel": 0,
      "note": 90,
      "start": 19.4859,
      "duration": 0.0223,
      "velocity": 108,
      "chip": "ym2612"
    },
    {
      "channel": 2,
      "note": 87,
      "start": 19.4864,
      "duration": 0.0223,
      "velocity": 108,
      "chip": "ym2612"
    },
    {
      "channel": 4,
      "note": 47,
      "start": 19.4868,
      "duration": 0.0225,
      "velocity": 100,
      "chip": "ym2612"
    },
    {
      "channel": 0,
      "note": 90,
      "start": 19.5086,
      "duration": 0.0205,
      "velocity": 108,
      "chip": "ym2612"
    },
    {
      "channel": 2,
      "note": 87,
      "start": 19.5091,
      "duration": 0.0205,
      "velocity": 108,
      "chip": "ym2612"
    },
    {
      "channel": 4,
      "note": 59,
      "start": 19.5094,
      "duration": 0.0207,
      "velocity": 100,
      "chip": "ym2612"
    },
    {
      "channel": 0,
      "note": 90,
      "start": 19.5294,
      "duration": 0.0207,
      "velocity": 108,
      "chip": "ym2612"
    },
    {
      "channel": 2,
      "note": 87,
      "start": 19.53,
      "duration": 0.0207,
      "velocity": 108,
      "chip": "ym2612"
    },
    {
      "channel": 4,
      "note": 47,
      "start": 19.5303,
      "duration": 0.021,
      "velocity": 100,
      "chip": "ym2612"
    },
    {
      "channel": 0,
      "note": 90,
      "start": 19.5505,
      "duration": 0.0204,
      "velocity": 108,
      "chip": "ym2612"
    },
    {
      "channel": 2,
      "note": 87,
      "start": 19.551,
      "duration": 0.0204,
      "velocity": 108,
      "chip": "ym2612"
    },
    {
      "channel": 4,
      "note": 59,
      "start": 19.5514,
      "duration": 0.0206,
      "velocity": 100,
      "chip": "ym2612"
    },
    {
      "channel": 0,
      "note": 90,
      "start": 19.5712,
      "duration": 0.0212,
      "velocity": 108,
      "chip": "ym2612"
    },
    {
      "channel": 2,
      "note": 87,
      "start": 19.5717,
      "duration": 0.0212,
      "velocity": 108,
      "chip": "ym2612"
    },
    {
      "channel": 4,
      "note": 47,
      "start": 19.5721,
      "duration": 0.0214,
      "velocity": 100,
      "chip": "ym2612"
    },
    {
      "channel": 0,
      "note": 90,
      "start": 19.5927,
      "duration": 0.032,
      "velocity": 108,
      "chip": "ym2612"
    },
    {
      "channel": 2,
      "note": 87,
      "start": 19.5932,
      "duration": 0.032,
      "velocity": 108,
      "chip": "ym2612"
    },
    {
      "channel": 4,
      "note": 59,
      "start": 19.5936,
      "duration": 0.0324,
      "velocity": 100,
      "chip": "ym2612"
    },
    {
      "channel": 0,
      "note": 81,
      "start": 19.6251,
      "duration": 0.021,
      "velocity": 108,
      "chip": "ym2612"
    },
    {
      "channel": 2,
      "note": 88,
      "start": 19.6256,
      "duration": 0.0209,
      "velocity": 108,
      "chip": "ym2612"
    },
    {
      "channel": 3,
      "note": 69,
      "start": 19.6259,
      "duration": 0.0632,
      "velocity": 102,
      "chip": "ym2612"
    },
    {
      "channel": 4,
      "note": 45,
      "start": 19.6261,
      "duration": 0.021,
      "velocity": 100,
      "chip": "ym2612"
    },
    {
      "channel": 0,
      "note": 81,
      "start": 19.6464,
      "duration": 0.0202,
      "velocity": 108,
      "chip": "ym2612"
    },
    {
      "channel": 2,
      "note": 88,
      "start": 19.6469,
      "duration": 0.0202,
      "velocity": 108,
      "chip": "ym2612"
    },
    {
      "channel": 4,
      "note": 57,
      "start": 19.6472,
      "duration": 0.0204,
      "velocity": 100,
      "chip": "ym2612"
    },
    {
      "channel": 1,
      "note": 69,
      "start": 19.6569,
      "duration": 0.0652,
      "velocity": 102,
      "chip": "ym2612"
    },
    {
      "channel": 0,
      "note": 81,
      "start": 19.6669,
      "duration": 0.0212,
      "velocity": 108,
      "chip": "ym2612"
    },
    {
      "channel": 2,
      "note": 88,
      "start": 19.6674,
      "duration": 0.0212,
      "velocity": 108,
      "chip": "ym2612"
    },
    {
      "channel": 4,
      "note": 45,
      "start": 19.6678,
      "duration": 0.0216,
      "velocity": 100,
      "chip": "ym2612"
    },
    {
      "channel": 0,
      "note": 81,
      "start": 19.6885,
      "duration": 0.0213,
      "velocity": 108,
      "chip": "ym2612"
    },
    {
      "channel": 2,
      "note": 88,
      "start": 19.689,
      "duration": 0.0213,
      "velocity": 108,
      "chip": "ym2612"
    },
    {
      "channel": 3,
      "note": 69,
      "start": 19.6893,
      "duration": 0.099,
      "velocity": 102,
      "chip": "ym2612"
    },
    {
      "channel": 4,
      "note": 57,
      "start": 19.6895,
      "duration": 0.0213,
      "velocity": 100,
      "chip": "ym2612"
    },
    {
      "channel": 0,
      "note": 81,
      "start": 19.7101,
      "duration": 0.022,
      "velocity": 108,
      "chip": "ym2612"
    },
    {
      "channel": 2,
      "note": 88,
      "start": 19.7106,
      "duration": 0.022,
      "velocity": 108,
      "chip": "ym2612"
    },
    {
      "channel": 4,
      "note": 45,
      "start": 19.711,
      "duration": 0.0222,
      "velocity": 100,
      "chip": "ym2612"
    },
    {
      "channel": 1,
      "note": 69,
      "start": 19.7223,
      "duration": 0.0983,
      "velocity": 102,
      "chip": "ym2612"
    },
    {
      "channel": 0,
      "note": 81,
      "start": 19.7324,
      "duration": 0.0549,
      "velocity": 108,
      "chip": "ym2612"
    },
    {
      "channel": 2,
      "note": 88,
      "start": 19.7329,
      "duration": 0.0549,
      "velocity": 108,
      "chip": "ym2612"
    },
    {
      "channel": 4,
      "note": 57,
      "start": 19.7333,
      "duration": 0.0553,
      "velocity": 100,
      "chip": "ym2612"
    },
    {
      "channel": 0,
      "note": 81,
      "start": 19.7876,
      "duration": 0.0215,
      "velocity": 108,
      "chip": "ym2612"
    },
    {
      "channel": 2,
      "note": 88,
      "start": 19.7882,
      "duration": 0.0215,
      "velocity": 108,
      "chip": "ym2612"
    },
    {
      "channel": 3,
      "note": 68,
      "start": 19.7884,
      "duration": 0.0217,
      "velocity": 102,
      "chip": "ym2612"
    },
    {
      "channel": 4,
      "note": 45,
      "start": 19.7887,
      "duration": 0.0217,
      "velocity": 100,
      "chip": "ym2612"
    },
    {
      "channel": 0,
      "note": 81,
      "start": 19.8095,
      "duration": 0.0212,
      "velocity": 108,
      "chip": "ym2612"
    },
    {
      "channel": 2,
      "note": 88,
      "start": 19.81,
      "duration": 0.0212,
      "velocity": 108,
      "chip": "ym2612"
    },
    {
      "channel": 3,
      "note": 66,
      "start": 19.8102,
      "duration": 0.0214,
      "velocity": 102,
      "chip": "ym2612"
    },
    {
      "channel": 4,
      "note": 57,
      "start": 19.8105,
      "duration": 0.0214,
      "velocity": 100,
      "chip": "ym2612"
    },
    {
      "channel": 1,
      "note": 68,
      "start": 19.8207,
      "duration": 0.0355,
      "velocity": 102,
      "chip": "ym2612"
    },
    {
      "channel": 0,
      "note": 81,
      "start": 19.831,
      "duration": 0.1183,
      "velocity": 108,
      "chip": "ym2612"
    },
    {
      "channel": 2,
      "note": 88,
      "start": 19.8315,
      "duration": 0.1183,
      "velocity": 108,
      "chip": "ym2612"
    },
    {
      "channel": 3,
      "note": 64,
      "start": 19.8318,
      "duration": 0.4088,
      "velocity": 102,
      "chip": "ym2612"
    },
    {
      "channel": 4,
      "note": 45,
      "start": 19.832,
      "duration": 0.1183,
      "velocity": 100,
      "chip": "ym2612"
    },
    {
      "channel": 1,
      "note": 66,
      "start": 19.8564,
      "duration": 0.1047,
      "velocity": 102,
      "chip": "ym2612"
    },
    {
      "channel": 0,
      "note": 81,
      "start": 19.9496,
      "duration": 0.0638,
      "velocity": 108,
      "chip": "ym2612"
    },
    {
      "channel": 2,
      "note": 88,
      "start": 19.9501,
      "duration": 0.0638,
      "velocity": 108,
      "chip": "ym2612"
    },
    {
      "channel": 4,
      "note": 57,
      "start": 19.9505,
      "duration": 0.064,
      "velocity": 100,
      "chip": "ym2612"
    },
    {
      "channel": 1,
      "note": 64,
      "start": 19.9612,
      "duration": 0.3117,
      "velocity": 102,
      "chip": "ym2612"
    },
    {
      "channel": 0,
      "note": 81,
      "start": 20.0138,
      "duration": 0.0212,
      "velocity": 108,
      "chip": "ym2612"
    },
    {
      "channel": 2,
      "note": 88,
      "start": 20.0143,
      "duration": 0.0212,
      "velocity": 108,
      "chip": "ym2612"
    },
    {
      "channel": 4,
      "note": 45,
      "start": 20.0146,
      "duration": 0.0214,
      "velocity": 100,
      "chip": "ym2612"
    },
    {
      "channel": 0,
      "note": 81,
      "start": 20.0353,
      "duration": 0.0209,
      "velocity": 108,
      "chip": "ym2612"
    },
    {
      "channel": 2,
      "note": 88,
      "start": 20.0359,
      "duration": 0.0209,
      "velocity": 108,
      "chip": "ym2612"
    },
    {
      "channel": 4,
      "note": 57,
      "start": 20.0362,
      "duration": 0.0211,
      "velocity": 100,
      "chip": "ym2612"
    },
    {
      "channel": 0,
      "note": 81,
      "start": 20.0566,
      "duration": 0.1188,
      "velocity": 108,
      "chip": "ym2612"
    },
    {
      "channel": 2,
      "note": 88,
      "start": 20.0571,
      "duration": 0.1188,
      "velocity": 108,
      "chip": "ym2612"
    },
    {
      "channel": 4,
      "note": 45,
      "start": 20.0574,
      "duration": 0.119,
      "velocity": 100,
      "chip": "ym2612"
    },
    {
      "channel": 0,
      "note": 81,
      "start": 20.1758,
      "duration": 0.0639,
      "velocity": 108,
      "chip": "ym2612"
    },
    {
      "channel": 2,
      "note": 88,
      "start": 20.1763,
      "duration": 0.0639,
      "velocity": 108,
      "chip": "ym2612"
    },
    {
      "channel": 4,
      "note": 57,
      "start": 20.1766,
      "duration": 0.0643,
      "velocity": 100,
      "chip": "ym2612"
    },
    {
      "channel": 0,
      "note": 81,
      "start": 20.24,
      "duration": 0.0214,
      "velocity": 108,
      "chip": "ym2612"
    },
    {
      "channel": 2,
      "note": 88,
      "start": 20.2405,
      "duration": 0.0213,
      "velocity": 108,
      "chip": "ym2612"
    },
    {
      "channel": 3,
      "note": 66,
      "start": 20.2407,
      "duration": 0.0216,
      "velocity": 102,
      "chip": "ym2612"
    },
    {
      "channel": 4,
      "note": 45,
      "start": 20.241,
      "duration": 0.0215,
      "velocity": 100,
      "chip": "ym2612"
    },
    {
      "channel": 0,
      "note": 81,
      "start": 20.2617,
      "duration": 0.0214,
      "velocity": 108,
      "chip": "ym2612"
    },
    {
      "channel": 2,
      "note": 88,
      "start": 20.2622,
      "duration": 0.0214,
      "velocity": 108,
      "chip": "ym2612"
    },
    {
      "channel": 3,
      "note": 68,
      "start": 20.2624,
      "duration": 0.0215,
      "velocity": 102,
      "chip": "ym2612"
    },
    {
      "channel": 4,
      "note": 57,
      "start": 20.2627,
      "duration": 0.0215,
      "velocity": 100,
      "chip": "ym2612"
    },
    {
      "channel": 1,
      "note": 66,
      "start": 20.273,
      "duration": 0.0355,
      "velocity": 102,
      "chip": "ym2612"
    },
    {
      "channel": 0,
      "note": 83,
      "start": 20.2833,
      "duration": 0.1183,
      "velocity": 108,
      "chip": "ym2612"
    },
    {
      "channel": 2,
      "note": 90,
      "start": 20.2839,
      "duration": 0.1183,
      "velocity": 108,
      "chip": "ym2612"
    },
    {
      "channel": 3,
      "note": 66,
      "start": 20.2841,
      "duration": 0.204,
      "velocity": 102,
      "chip": "ym2612"
    },
    {
      "channel": 4,
      "note": 47,
      "start": 20.2844,
      "duration": 0.1183,
      "velocity": 100,
      "chip": "ym2612"
    },
    {
      "channel": 1,
      "note": 68,
      "start": 20.3087,
      "duration": 0.1047,
      "velocity": 102,
      "chip": "ym2612"
    },
    {
      "channel": 0,
      "note": 83,
      "start": 20.402,
      "duration": 0.0638,
      "velocity": 108,
      "chip": "ym2612"
    },
    {
      "channel": 2,
      "note": 90,
      "start": 20.4025,
      "duration": 0.0637,
      "velocity": 108,
      "chip": "ym2612"
    },
    {
      "channel": 4,
      "note": 59,
      "start": 20.4028,
      "duration": 0.0639,
      "velocity": 100,
      "chip": "ym2612"
    },
    {
      "channel": 1,
      "note": 66,
      "start": 20.4136,
      "duration": 0.1618,
      "velocity": 102,
      "chip": "ym2612"
    },
    {
      "channel": 0,
      "note": 83,
      "start": 20.4661,
      "duration": 0.0211,
      "velocity": 108,
      "chip": "ym2612"
    },
    {
      "channel": 2,
      "note": 90,
      "start": 20.4666,
      "duration": 0.0211,
      "velocity": 108,
      "chip": "ym2612"
    },
    {
      "channel": 4,
      "note": 47,
      "start": 20.4669,
      "duration": 0.0215,
      "velocity": 100,
      "chip": "ym2612"
    },
    {
      "channel": 0,
      "note": 83,
      "start": 20.4875,
      "duration": 0.0557,
      "velocity": 108,
      "chip": "ym2612"
    },
    {
      "channel": 2,
      "note": 90,
      "start": 20.488,
      "duration": 0.0557,
      "velocity": 108,
      "chip": "ym2612"
    },
    {
      "channel": 3,
      "note": 68,
      "start": 20.4883,
      "duration": 0.2453,
      "velocity": 102,
      "chip": "ym2612"
    },
    {
      "channel": 4,
      "note": 59,
      "start": 20.4885,
      "duration": 0.0557,
      "velocity": 100,
      "chip": "ym2612"
    },
    {
      "channel": 0,
      "note": 83,
      "start": 20.5435,
      "duration": 0.1249,
      "velocity": 108,
      "chip": "ym2612"
    },
    {
      "channel": 2,
      "note": 90,
      "start": 20.544,
      "duration": 0.1249,
      "velocity": 108,
      "chip": "ym2612"
    },
    {
      "channel": 4,
      "note": 47,
      "start": 20.5444,
      "duration": 0.1251,
      "velocity": 100,
      "chip": "ym2612"
    },
    {
      "channel": 1,
      "note": 68,
      "start": 20.5755,
      "duration": 0.1902,
      "velocity": 102,
      "chip": "ym2612"
    },
    {
      "channel": 0,
      "note": 83,
      "start": 20.6687,
      "duration": 0.0638,
      "velocity": 108,
      "chip": "ym2612"
    },
    {
      "channel": 2,
      "note": 90,
      "start": 20.6693,
      "duration": 0.0638,
      "velocity": 108,
      "chip": "ym2612"
    },
    {
      "channel": 4,
      "note": 59,
      "start": 20.6696,
      "duration": 0.0642,
      "velocity": 100,
      "chip": "ym2612"
    },
    {
      "channel": 0,
      "note": 83,
      "start": 20.7329,
      "duration": 0.0215,
      "velocity": 108,
      "chip": "ym2612"
    },
    {
      "channel": 2,
      "note": 90,
      "start": 20.7334,
      "duration": 0.0215,
      "velocity": 108,
      "chip": "ym2612"
    },
    {
      "channel": 3,
      "note": 64,
      "start": 20.7337,
      "duration": 0.0431,
      "velocity": 102,
      "chip": "ym2612"
    },
    {
      "channel": 4,
      "note": 47,
      "start": 20.7339,
      "duration": 0.0215,
      "velocity": 100,
      "chip": "ym2612"
    },
    {
      "channel": 0,
      "note": 83,
      "start": 20.7548,
      "duration": 0.021,
      "velocity": 108,
      "chip": "ym2612"
    },
    {
      "channel": 2,
      "note": 90,
      "start": 20.7553,
      "duration": 0.021,
      "velocity": 108,
      "chip": "ym2612"
    },
    {
      "channel": 4,
      "note": 59,
      "start": 20.7556,
      "duration": 0.0214,
      "velocity": 100,
      "chip": "ym2612"
    },
    {
      "channel": 1,
      "note": 64,
      "start": 20.7658,
      "duration": 0.1407,
      "velocity": 102,
      "chip": "ym2612"
    },
    {
      "channel": 0,
      "note": 83,
      "start": 20.7761,
      "duration": 0.1185,
      "velocity": 108,
      "chip": "ym2612"
    },
    {
      "channel": 2,
      "note": 90,
      "start": 20.7766,
      "duration": 0.1185,
      "velocity": 108,
      "chip": "ym2612"
    },
    {
      "channel": 3,
      "note": 66,
      "start": 20.7769,
      "duration": 0.386,
      "velocity": 102,
      "chip": "ym2612"
    },
    {
      "channel": 4,
      "note": 47,
      "start": 20.7772,
      "duration": 0.1185,
      "velocity": 100,
      "chip": "ym2612"
    },
    {
      "channel": 0,
      "note": 83,
      "start": 20.895,
      "duration": 0.0639,
      "velocity": 108,
      "chip": "ym2612"
    },
    {
      "channel": 2,
      "note": 90,
      "start": 20.8955,
      "duration": 0.0639,
      "velocity": 108,
      "chip": "ym2612"
    },
    {
      "channel": 4,
      "note": 59,
      "start": 20.8959,
      "duration": 0.0641,
      "velocity": 100,
      "chip": "ym2612"
    },
    {
      "channel": 1,
      "note": 66,
      "start": 20.9067,
      "duration": 0.3313,
      "velocity": 102,
      "chip": "ym2612"
    },
    {
      "channel": 0,
      "note": 83,
      "start": 20.9593,
      "duration": 0.0211,
      "velocity": 108,
      "chip": "ym2612"
    },
    {
      "channel": 2,
      "note": 90,
      "start": 20.9598,
      "duration": 0.0211,
      "velocity": 108,
      "chip": "ym2612"
    },
    {
      "channel": 4,
      "note": 47,
      "start": 20.9601,
      "duration": 0.0213,
      "velocity": 100,
      "chip": "ym2612"
    },
    {
      "channel": 0,
      "note": 83,
      "start": 20.9807,
      "duration": 0.056,
      "velocity": 108,
      "chip": "ym2612"
    },
    {
      "channel": 2,
      "note": 90,
      "start": 20.9812,
      "duration": 0.056,
      "velocity": 108,
      "chip": "ym2612"
    },
    {
      "channel": 4,
      "note": 59,
      "start": 20.9815,
      "duration": 0.0562,
      "velocity": 100,
      "chip": "ym2612"
    },
    {
      "channel": 0,
      "note": 83,
      "start": 21.037,
      "duration": 0.1249,
      "velocity": 108,
      "chip": "ym2612"
    },
    {
      "channel": 2,
      "note": 90,
      "start": 21.0375,
      "duration": 0.1249,
      "velocity": 108,
      "chip": "ym2612"
    },
    {
      "channel": 4,
      "note": 47,
      "start": 21.0379,
      "duration": 0.1252,
      "velocity": 100,
      "chip": "ym2612"
    },
    {
      "channel": 0,
      "note": 83,
      "start": 21.1622,
      "duration": 0.0639,
      "velocity": 108,
      "chip": "ym2612"
    },
    {
      "channel": 2,
      "note": 90,
      "start": 21.1627,
      "duration": 0.0639,
      "velocity": 108,
      "chip": "ym2612"
    },
    {
      "channel": 3,
      "note": 68,
      "start": 21.163,
      "duration": 0.1171,
      "velocity": 102,
      "chip": "ym2612"
    },
    {
      "channel": 4,
      "note": 59,
      "start": 21.1633,
      "duration": 0.0639,
      "velocity": 100,
      "chip": "ym2612"
    },
    {
      "channel": 0,
      "note": 83,
      "start": 21.2264,
      "duration": 0.0214,
      "velocity": 108,
      "chip": "ym2612"
    },
    {
      "channel": 2,
      "note": 90,
      "start": 21.2269,
      "duration": 0.0214,
      "velocity": 108,
      "chip": "ym2612"
    },
    {
      "channel": 4,
      "note": 47,
      "start": 21.2273,
      "duration": 0.0216,
      "velocity": 100,
      "chip": "ym2612"
    },
    {
      "channel": 1,
      "note": 68,
      "start": 21.2382,
      "duration": 0.0729,
      "velocity": 102,
      "chip": "ym2612"
    },
    {
      "channel": 0,
      "note": 83,
      "start": 21.2481,
      "duration": 0.031,
      "velocity": 108,
      "chip": "ym2612"
    },
    {
      "channel": 2,
      "note": 90,
      "start": 21.2486,
      "duration": 0.031,
      "velocity": 108,
      "chip": "ym2612"
    },
    {
      "channel": 4,
      "note": 59,
      "start": 21.249,
      "duration": 0.0314,
      "velocity": 100,
      "chip": "ym2612"
    },
    {
      "channel": 0,
      "note": 81,
      "start": 21.2794,
      "duration": 0.0209,
      "velocity": 108,
      "chip": "ym2612"
    },
    {
      "channel": 2,
      "note": 76,
      "start": 21.2799,
      "duration": 0.0209,
      "velocity": 108,
      "chip": "ym2612"
    },
    {
      "channel": 3,
      "note": 69,
      "start": 21.2802,
      "duration": 0.1276,
      "velocity": 102,
      "chip": "ym2612"
    },
    {
      "channel": 4,
      "note": 49,
      "start": 21.2805,
      "duration": 0.0209,
      "velocity": 100,
      "chip": "ym2612"
    },
    {
      "channel": 0,
      "note": 81,
      "start": 21.3007,
      "duration": 0.0202,
      "velocity": 108,
      "chip": "ym2612"
    },
    {
      "channel": 2,
      "note": 76,
      "start": 21.3012,
      "duration": 0.0202,
      "velocity": 108,
      "chip": "ym2612"
    },
    {
      "channel": 4,
      "note": 61,
      "start": 21.3015,
      "duration": 0.0204,
      "velocity": 100,
      "chip": "ym2612"
    },
    {
      "channel": 1,
      "note": 69,
      "start": 21.3112,
      "duration": 0.1288,
      "velocity": 102,
      "chip": "ym2612"
    },
    {
      "channel": 0,
      "note": 81,
      "start": 21.3213,
      "duration": 0.0224,
      "velocity": 108,
      "chip": "ym2612"
    },
    {
      "channel": 2,
      "note": 76,
      "start": 21.3218,
      "duration": 0.0224,
      "velocity": 108,
      "chip": "ym2612"
    },
    {
      "channel": 4,
      "note": 49,
      "start": 21.3221,
      "duration": 0.0226,
      "velocity": 100,
      "chip": "ym2612"
    },
    {
      "channel": 0,
      "note": 81,
      "start": 21.344,
      "duration": 0.0209,
      "velocity": 108,
      "chip": "ym2612"
    },
    {
      "channel": 2,
      "note": 76,
      "start": 21.3445,
      "duration": 0.0209,
      "velocity": 108,
      "chip": "ym2612"
    },
    {
      "channel": 4,
      "note": 61,
      "start": 21.3448,
      "duration": 0.0211,
      "velocity": 100,
      "chip": "ym2612"
    },
    {
      "channel": 0,
      "note": 81,
      "start": 21.3653,
      "duration": 0.0208,
      "velocity": 108,
      "chip": "ym2612"
    },
    {
      "channel": 2,
      "note": 76,
      "start": 21.3658,
      "duration": 0.0208,
      "velocity": 108,
      "chip": "ym2612"
    },
    {
      "channel": 4,
      "note": 49,
      "start": 21.3661,
      "duration": 0.021,
      "velocity": 100,
      "chip": "ym2612"
    },
    {
      "channel": 0,
      "note": 81,
      "start": 21.3864,
      "duration": 0.0205,
      "velocity": 108,
      "chip": "ym2612"
    },
    {
      "channel": 2,
      "note": 76,
      "start": 21.3869,
      "duration": 0.0205,
      "velocity": 108,
      "chip": "ym2612"
    },
    {
      "channel": 4,
      "note": 61,
      "start": 21.3872,
      "duration": 0.0209,
      "velocity": 100,
      "chip": "ym2612"
    },
    {
      "channel": 0,
      "note": 81,
      "start": 21.4072,
      "duration": 0.0212,
      "velocity": 108,
      "chip": "ym2612"
    },
    {
      "channel": 2,
      "note": 76,
      "start": 21.4077,
      "duration": 0.0212,
      "velocity": 108,
      "chip": "ym2612"
    },
    {
      "channel": 3,
      "note": 68,
      "start": 21.408,
      "duration": 0.0214,
      "velocity": 102,
      "chip": "ym2612"
    },
    {
      "channel": 4,
      "note": 49,
      "start": 21.4083,
      "duration": 0.0214,
      "velocity": 100,
      "chip": "ym2612"
    },
    {
      "channel": 0,
      "note": 81,
      "start": 21.4288,
      "duration": 0.0223,
      "velocity": 108,
      "chip": "ym2612"
    },
    {
      "channel": 2,
      "note": 76,
      "start": 21.4293,
      "duration": 0.0223,
      "velocity": 108,
      "chip": "ym2612"
    },
    {
      "channel": 3,
      "note": 69,
      "start": 21.4296,
      "duration": 0.0225,
      "velocity": 102,
      "chip": "ym2612"
    },
    {
      "channel": 4,
      "note": 61,
      "start": 21.4298,
      "duration": 0.0225,
      "velocity": 100,
      "chip": "ym2612"
    },
    {
      "channel": 1,
      "note": 68,
      "start": 21.4402,
      "duration": 0.0226,
      "velocity": 102,
      "chip": "ym2612"
    },
    {
      "channel": 0,
      "note": 83,
      "start": 21.4514,
      "duration": 0.0211,
      "velocity": 108,
      "chip": "ym2612"
    },
    {
      "channel": 2,
      "note": 80,
      "start": 21.452,
      "duration": 0.0211,
      "velocity": 108,
      "chip": "ym2612"
    },
    {
      "channel": 3,
      "note": 71,
      "start": 21.4522,
      "duration": 0.1274,
      "velocity": 102,
      "chip": "ym2612"
    },
    {
      "channel": 4,
      "note": 47,
      "start": 21.4525,
      "duration": 0.0211,
      "velocity": 100,
      "chip": "ym2612"
    },
    {
      "channel": 1,
      "note": 69,
      "start": 21.4629,
      "duration": 0.0203,
      "velocity": 102,
      "chip": "ym2612"
    },
    {
      "channel": 0,
      "note": 83,
      "start": 21.4729,
      "duration": 0.02,
      "velocity": 108,
      "chip": "ym2612"
    },
    {
      "channel": 2,
      "note": 80,
      "start": 21.4734,
      "duration": 0.0201,
      "velocity": 108,
      "chip": "ym2612"
    },
    {
      "channel": 4,
      "note": 59,
      "start": 21.4737,
      "duration": 0.0202,
      "velocity": 100,
      "chip": "ym2612"
    },
    {
      "channel": 1,
      "note": 71,
      "start": 21.4834,
      "duration": 0.1286,
      "velocity": 102,
      "chip": "ym2612"
    },
    {
      "channel": 0,
      "note": 83,
      "start": 21.4933,
      "duration": 0.0212,
      "velocity": 108,
      "chip": "ym2612"
    },
    {
      "channel": 2,
      "note": 80,
      "start": 21.4938,
      "duration": 0.0211,
      "velocity": 108,
      "chip": "ym2612"
    },
    {
      "channel": 4,
      "note": 47,
      "start": 21.4941,
      "duration": 0.0213,
      "velocity": 100,
      "chip": "ym2612"
    },
    {
      "channel": 0,
      "note": 87,
      "start": 21.5148,
      "duration": 0.021,
      "velocity": 108,
      "chip": "ym2612"
    },
    {
      "channel": 2,
      "note": 83,
      "start": 21.5153,
      "duration": 0.0209,
      "velocity": 108,
      "chip": "ym2612"
    },
    {
      "channel": 4,
      "note": 59,
      "start": 21.5156,
      "duration": 0.0212,
      "velocity": 100,
      "chip": "ym2612"
    },
    {
      "channel": 0,
      "note": 87,
      "start": 21.5361,
      "duration": 0.0218,
      "velocity": 108,
      "chip": "ym2612"
    },
    {
      "channel": 2,
      "note": 83,
      "start": 21.5366,
      "duration": 0.0218,
      "velocity": 108,
      "chip": "ym2612"
    },
    {
      "channel": 4,
      "note": 47,
      "start": 21.5369,
      "duration": 0.022,
      "velocity": 100,
      "chip": "ym2612"
    },
    {
      "channel": 0,
      "note": 87,
      "start": 21.5582,
      "duration": 0.0205,
      "velocity": 108,
      "chip": "ym2612"
    },
    {
      "channel": 2,
      "note": 83,
      "start": 21.5587,
      "duration": 0.0205,
      "velocity": 108,
      "chip": "ym2612"
    },
    {
      "channel": 4,
      "note": 59,
      "start": 21.559,
      "duration": 0.0209,
      "velocity": 100,
      "chip": "ym2612"
    },
    {
      "channel": 0,
      "note": 88,
      "start": 21.579,
      "duration": 0.0214,
      "velocity": 108,
      "chip": "ym2612"
    },
    {
      "channel": 2,
      "note": 85,
      "start": 21.5795,
      "duration": 0.0214,
      "velocity": 108,
      "chip": "ym2612"
    },
    {
      "channel": 3,
      "note": 69,
      "start": 21.5798,
      "duration": 0.0216,
      "velocity": 102,
      "chip": "ym2612"
    },
    {
      "channel": 4,
      "note": 47,
      "start": 21.58,
      "duration": 0.0216,
      "velocity": 100,
      "chip": "ym2612"
    },
    {
      "channel": 0,
      "note": 88,
      "start": 21.6007,
      "duration": 0.0214,
      "velocity": 108,
      "chip": "ym2612"
    },
    {
      "channel": 2,
      "note": 85,
      "start": 21.6012,
      "duration": 0.0214,
      "velocity": 108,
      "chip": "ym2612"
    },
    {
      "channel": 3,
      "note": 71,
      "start": 21.6015,
      "duration": 0.0216,
      "velocity": 102,
      "chip": "ym2612"
    },
    {
      "channel": 4,
      "note": 59,
      "start": 21.6018,
      "duration": 0.0216,
      "velocity": 100,
      "chip": "ym2612"
    },
    {
      "channel": 1,
      "note": 69,
      "start": 21.6121,
      "duration": 0.0216,
      "velocity": 102,
      "chip": "ym2612"
    },
    {
      "channel": 0,
      "note": 92,
      "start": 21.6225,
      "duration": 0.0211,
      "velocity": 108,
      "chip": "ym2612"
    },
    {
      "channel": 2,
      "note": 88,
      "start": 21.623,
      "duration": 0.0211,
      "velocity": 108,
      "chip": "ym2612"
    },
    {
      "channel": 3,
      "note": 73,
      "start": 21.6232,
      "duration": 0.0645,
      "velocity": 102,
      "chip": "ym2612"
    },
    {
      "channel": 4,
      "note": 49,
      "start": 21.6235,
      "duration": 0.0211,
      "velocity": 100,
      "chip": "ym2612"
    },
    {
      "channel": 1,
      "note": 71,
      "start": 21.6338,
      "duration": 0.0204,
      "velocity": 102,
      "chip": "ym2612"
    },
    {
      "channel": 0,
      "note": 92,
      "start": 21.6439,
      "duration": 0.0212,
      "velocity": 108,
      "chip": "ym2612"
    },
    {
      "channel": 2,
      "note": 88,
      "start": 21.6444,
      "duration": 0.0212,
      "velocity": 108,
      "chip": "ym2612"
    },
    {
      "channel": 4,
      "note": 61,
      "start": 21.6447,
      "duration": 0.0214,
      "velocity": 100,
      "chip": "ym2612"
    },
    {
      "channel": 1,
      "note": 73,
      "start": 21.6544,
      "duration": 0.0647,
      "velocity": 102,
      "chip": "ym2612"
    },
    {
      "channel": 0,
      "note": 92,
      "start": 21.6654,
      "duration": 0.0213,
      "velocity": 108,
      "chip": "ym2612"
    },
    {
      "channel": 2,
      "note": 88,
      "start": 21.6659,
      "duration": 0.0213,
      "velocity": 108,
      "chip": "ym2612"
    },
    {
      "channel": 4,
      "note": 49,
      "start": 21.6663,
      "duration": 0.0217,
      "velocity": 100,
      "chip": "ym2612"
    },
    {
      "channel": 0,
      "note": 92,
      "start": 21.6871,
      "duration": 0.0206,
      "velocity": 108,
      "chip": "ym2612"
    },
    {
      "channel": 2,
      "note": 88,
      "start": 21.6876,
      "duration": 0.0206,
      "velocity": 108,
      "chip": "ym2612"
    },
    {
      "channel": 3,
      "note": 75,
      "start": 21.6879,
      "duration": 0.0634,
      "velocity": 102,
      "chip": "ym2612"
    },
    {
      "channel": 4,
      "note": 61,
      "start": 21.6881,
      "duration": 0.0206,
      "velocity": 100,
      "chip": "ym2612"
    },
    {
      "channel": 0,
      "note": 92,
      "start": 21.708,
      "duration": 0.0209,
      "velocity": 108,
      "chip": "ym2612"
    },
    {
      "channel": 2,
      "note": 88,
      "start": 21.7085,
      "duration": 0.0209,
      "velocity": 108,
      "chip": "ym2612"
    },
    {
      "channel": 4,
      "note": 49,
      "start": 21.7088,
      "duration": 0.0211,
      "velocity": 100,
      "chip": "ym2612"
    },
    {
      "channel": 1,
      "note": 75,
      "start": 21.7192,
      "duration": 0.0636,
      "velocity": 102,
      "chip": "ym2612"
    },
    {
      "channel": 0,
      "note": 92,
      "start": 21.7293,
      "duration": 0.021,
      "velocity": 108,
      "chip": "ym2612"
    },
    {
      "channel": 2,
      "note": 88,
      "start": 21.7298,
      "duration": 0.021,
      "velocity": 108,
      "chip": "ym2612"
    },
    {
      "channel": 4,
      "note": 61,
      "start": 21.7301,
      "duration": 0.0214,
      "velocity": 100,
      "chip": "ym2612"
    },
    {
      "channel": 0,
      "note": 92,
      "start": 21.7506,
      "duration": 0.0213,
      "velocity": 108,
      "chip": "ym2612"
    },
    {
      "channel": 2,
      "note": 88,
      "start": 21.7511,
      "duration": 0.0211,
      "velocity": 108,
      "chip": "ym2612"
    },
    {
      "channel": 3,
      "note": 76,
      "start": 21.7514,
      "duration": 0.0425,
      "velocity": 102,
      "chip": "ym2612"
    },
    {
      "channel": 4,
      "note": 49,
      "start": 21.7517,
      "duration": 0.0209,
      "velocity": 100,
      "chip": "ym2612"
    },
    {
      "channel": 0,
      "note": 90,
      "start": 21.7721,
      "duration": 0.0208,
      "velocity": 108,
      "chip": "ym2612"
    },
    {
      "channel": 2,
      "note": 85,
      "start": 21.7724,
      "duration": 0.021,
      "velocity": 108,
      "chip": "ym2612"
    },
    {
      "channel": 4,
      "note": 61,
      "start": 21.7727,
      "duration": 0.0214,
      "velocity": 100,
      "chip": "ym2612"
    },
    {
      "channel": 1,
      "note": 76,
      "start": 21.7829,
      "duration": 0.042,
      "velocity": 102,
      "chip": "ym2612"
    },
    {
      "channel": 0,
      "note": 90,
      "start": 21.7932,
      "duration": 0.021,
      "velocity": 108,
      "chip": "ym2612"
    },
    {
      "channel": 2,
      "note": 85,
      "start": 21.7937,
      "duration": 0.021,
      "velocity": 108,
      "chip": "ym2612"
    },
    {
      "channel": 3,
      "note": 78,
      "start": 21.794,
      "duration": 0.2021,
      "velocity": 102,
      "chip": "ym2612"
    },
    {
      "channel": 4,
      "note": 47,
      "start": 21.7943,
      "duration": 0.021,
      "velocity": 100,
      "chip": "ym2612"
    },
    {
      "channel": 0,
      "note": 90,
      "start": 21.8146,
      "duration": 0.02,
      "velocity": 108,
      "chip": "ym2612"
    },
    {
      "channel": 2,
      "note": 85,
      "start": 21.8151,
      "duration": 0.02,
      "velocity": 108,
      "chip": "ym2612"
    },
    {
      "channel": 4,
      "note": 59,
      "start": 21.8154,
      "duration": 0.0202,
      "velocity": 100,
      "chip": "ym2612"
    },
    {
      "channel": 1,
      "note": 78,
      "start": 21.825,
      "duration": 0.192,
      "velocity": 102,
      "chip": "ym2612"
    },
    {
      "channel": 0,
      "note": 90,
      "start": 21.8349,
      "duration": 0.0223,
      "velocity": 108,
      "chip": "ym2612"
    },
    {
      "channel": 2,
      "note": 85,
      "start": 21.8354,
      "duration": 0.0223,
      "velocity": 108,
      "chip": "ym2612"
    },
    {
      "channel": 4,
      "note": 47,
      "start": 21.8358,
      "duration": 0.0225,
      "velocity": 100,
      "chip": "ym2612"
    },
    {
      "channel": 0,
      "note": 90,
      "start": 21.8576,
      "duration": 0.0206,
      "velocity": 108,
      "chip": "ym2612"
    },
    {
      "channel": 2,
      "note": 85,
      "start": 21.8581,
      "duration": 0.0206,
      "velocity": 108,
      "chip": "ym2612"
    },
    {
      "channel": 4,
      "note": 59,
      "start": 21.8584,
      "duration": 0.0207,
      "velocity": 100,
      "chip": "ym2612"
    },
    {
      "channel": 0,
      "note": 90,
      "start": 21.8785,
      "duration": 0.0207,
      "velocity": 108,
      "chip": "ym2612"
    },
    {
      "channel": 2,
      "note": 85,
      "start": 21.879,
      "duration": 0.0208,
      "velocity": 108,
      "chip": "ym2612"
    },
    {
      "channel": 4,
      "note": 47,
      "start": 21.8793,
      "duration": 0.021,
      "velocity": 100,
      "chip": "ym2612"
    },
    {
      "channel": 0,
      "note": 90,
      "start": 21.8996,
      "duration": 0.0204,
      "velocity": 108,
      "chip": "ym2612"
    },
    {
      "channel": 2,
      "note": 85,
      "start": 21.9001,
      "duration": 0.0203,
      "velocity": 108,
      "chip": "ym2612"
    },
    {
      "channel": 4,
      "note": 59,
      "start": 21.9004,
      "duration": 0.0206,
      "velocity": 100,
      "chip": "ym2612"
    },
    {
      "channel": 0,
      "note": 90,
      "start": 21.9203,
      "duration": 0.0211,
      "velocity": 108,
      "chip": "ym2612"
    },
    {
      "channel": 2,
      "note": 85,
      "start": 21.9208,
      "duration": 0.0211,
      "velocity": 108,
      "chip": "ym2612"
    },
    {
      "channel": 4,
      "note": 47,
      "start": 21.9211,
      "duration": 0.0213,
      "velocity": 100,
      "chip": "ym2612"
    },
    {
      "channel": 0,
      "note": 90,
      "start": 21.9417,
      "duration": 0.032,
      "velocity": 108,
      "chip": "ym2612"
    },
    {
      "channel": 2,
      "note": 85,
      "start": 21.9422,
      "duration": 0.032,
      "velocity": 108,
      "chip": "ym2612"
    },
    {
      "channel": 4,
      "note": 59,
      "start": 21.9426,
      "duration": 0.0322,
      "velocity": 100,
      "chip": "ym2612"
    },
    {
      "channel": 0,
      "note": 92,
      "start": 21.974,
      "duration": 0.0212,
      "velocity": 108,
      "chip": "ym2612"
    },
    {
      "channel": 2,
      "note": 88,
      "start": 21.9745,
      "duration": 0.0212,
      "velocity": 108,
      "chip": "ym2612"
    },
    {
      "channel": 4,
      "note": 61,
      "start": 21.9749,
      "duration": 0.0214,
      "velocity": 100,
      "chip": "ym2612"
    },
    {
      "channel": 0,
      "note": 92,
      "start": 21.9955,
      "duration": 0.0211,
      "velocity": 108,
      "chip": "ym2612"
    },
    {
      "channel": 2,
      "note": 88,
      "start": 21.996,
      "duration": 0.0211,
      "velocity": 108,
      "chip": "ym2612"
    },
    {
      "channel": 4,
      "note": 61,
      "start": 21.9964,
      "duration": 0.0212,
      "velocity": 100,
      "chip": "ym2612"
    },
    {
      "channel": 0,
      "note": 92,
      "start": 22.017,
      "duration": 0.0205,
      "velocity": 108,
      "chip": "ym2612"
    },
    {
      "channel": 2,
      "note": 88,
      "start": 22.0175,
      "duration": 0.0205,
      "velocity": 108,
      "chip": "ym2612"
    },
    {
      "channel": 0,
      "note": 92,
      "start": 22.0378,
      "duration": 0.022,
      "velocity": 108,
      "chip": "ym2612"
    },
    {
      "channel": 2,
      "note": 88,
      "start": 22.0383,
      "duration": 0.022,
      "velocity": 108,
      "chip": "ym2612"
    },
    {
      "channel": 3,
      "note": 88,
      "start": 22.0398,
      "duration": 0.063,
      "velocity": 98,
      "chip": "ym2612"
    },
    {
      "channel": 4,
      "note": 61,
      "start": 22.04,
      "duration": 0.0208,
      "velocity": 100,
      "chip": "ym2612"
    },
    {
      "channel": 0,
      "note": 92,
      "start": 22.0602,
      "duration": 0.0211,
      "velocity": 108,
      "chip": "ym2612"
    },
    {
      "channel": 2,
      "note": 88,
      "start": 22.0607,
      "duration": 0.0211,
      "velocity": 108,
      "chip": "ym2612"
    },
    {
      "channel": 4,
      "note": 61,
      "start": 22.061,
      "duration": 0.0213,
      "velocity": 100,
      "chip": "ym2612"
    },
    {
      "channel": 0,
      "note": 92,
      "start": 22.0816,
      "duration": 0.0202,
      "velocity": 108,
      "chip": "ym2612"
    },
    {
      "channel": 2,
      "note": 88,
      "start": 22.0821,
      "duration": 0.0202,
      "velocity": 108,
      "chip": "ym2612"
    },
    {
      "channel": 4,
      "note": 61,
      "start": 22.0825,
      "duration": 0.0205,
      "velocity": 100,
      "chip": "ym2612"
    },
    {
      "channel": 0,
      "note": 92,
      "start": 22.1022,
      "duration": 0.0206,
      "velocity": 108,
      "chip": "ym2612"
    },
    {
      "channel": 2,
      "note": 88,
      "start": 22.1027,
      "duration": 0.0206,
      "velocity": 108,
      "chip": "ym2612"
    },
    {
      "channel": 3,
      "note": 87,
      "start": 22.1029,
      "duration": 0.0413,
      "velocity": 98,
      "chip": "ym2612"
    },
    {
      "channel": 0,
      "note": 92,
      "start": 22.1231,
      "duration": 0.0201,
      "velocity": 108,
      "chip": "ym2612"
    },
    {
      "channel": 2,
      "note": 88,
      "start": 22.1236,
      "duration": 0.0201,
      "velocity": 108,
      "chip": "ym2612"
    },
    {
      "channel": 0,
      "note": 92,
      "start": 22.1436,
      "duration": 0.0216,
      "velocity": 108,
      "chip": "ym2612"
    },
    {
      "channel": 2,
      "note": 88,
      "start": 22.1441,
      "duration": 0.0216,
      "velocity": 108,
      "chip": "ym2612"
    },
    {
      "channel": 3,
      "note": 83,
      "start": 22.1443,
      "duration": 0.1288,
      "velocity": 98,
      "chip": "ym2612"
    },
    {
      "channel": 4,
      "note": 61,
      "start": 22.1446,
      "duration": 0.0216,
      "velocity": 100,
      "chip": "ym2612"
    },
    {
      "channel": 0,
      "note": 92,
      "start": 22.1655,
      "duration": 0.0223,
      "velocity": 108,
      "chip": "ym2612"
    },
    {
      "channel": 2,
      "note": 88,
      "start": 22.166,
      "duration": 0.0222,
      "velocity": 108,
      "chip": "ym2612"
    },
    {
      "channel": 4,
      "note": 61,
      "start": 22.1663,
      "duration": 0.0224,
      "velocity": 100,
      "chip": "ym2612"
    },
    {
      "channel": 0,
      "note": 92,
      "start": 22.1881,
      "duration": 0.0204,
      "velocity": 108,
      "chip": "ym2612"
    },
    {
      "channel": 2,
      "note": 88,
      "start": 22.1886,
      "duration": 0.0204,
      "velocity": 108,
      "chip": "ym2612"
    },
    {
      "channel": 0,
      "note": 92,
      "start": 22.2088,
      "duration": 0.0207,
      "velocity": 108,
      "chip": "ym2612"
    },
    {
      "channel": 2,
      "note": 88,
      "start": 22.2093,
      "duration": 0.0207,
      "velocity": 108,
      "chip": "ym2612"
    },
    {
      "channel": 4,
      "note": 61,
      "start": 22.2097,
      "duration": 0.0209,
      "velocity": 100,
      "chip": "ym2612"
    },
    {
      "channel": 0,
      "note": 92,
      "start": 22.2298,
      "duration": 0.0213,
      "velocity": 108,
      "chip": "ym2612"
    },
    {
      "channel": 2,
      "note": 88,
      "start": 22.2303,
      "duration": 0.0213,
      "velocity": 108,
      "chip": "ym2612"
    },
    {
      "channel": 4,
      "note": 61,
      "start": 22.2307,
      "duration": 0.0215,
      "velocity": 100,
      "chip": "ym2612"
    },
    {
      "channel": 0,
      "note": 92,
      "start": 22.2515,
      "duration": 0.0211,
      "velocity": 108,
      "chip": "ym2612"
    },
    {
      "channel": 2,
      "note": 88,
      "start": 22.252,
      "duration": 0.0209,
      "velocity": 108,
      "chip": "ym2612"
    },
    {
      "channel": 4,
      "note": 61,
      "start": 22.2523,
      "duration": 0.0211,
      "velocity": 100,
      "chip": "ym2612"
    },
    {
      "channel": 0,
      "note": 90,
      "start": 22.2727,
      "duration": 0.0215,
      "velocity": 108,
      "chip": "ym2612"
    },
    {
      "channel": 2,
      "note": 87,
      "start": 22.273,
      "duration": 0.0217,
      "velocity": 108,
      "chip": "ym2612"
    },
    {
      "channel": 3,
      "note": 81,
      "start": 22.2733,
      "duration": 0.0219,
      "velocity": 98,
      "chip": "ym2612"
    },
    {
      "channel": 0,
      "note": 90,
      "start": 22.2946,
      "duration": 0.0202,
      "velocity": 108,
      "chip": "ym2612"
    },
    {
      "channel": 2,
      "note": 87,
      "start": 22.2951,
      "duration": 0.0202,
      "velocity": 108,
      "chip": "ym2612"
    },
    {
      "channel": 3,
      "note": 80,
      "start": 22.2954,
      "duration": 0.0203,
      "velocity": 98,
      "chip": "ym2612"
    },
    {
      "channel": 0,
      "note": 92,
      "start": 22.3151,
      "duration": 0.0213,
      "velocity": 108,
      "chip": "ym2612"
    },
    {
      "channel": 2,
      "note": 88,
      "start": 22.3156,
      "duration": 0.0213,
      "velocity": 108,
      "chip": "ym2612"
    },
    {
      "channel": 3,
      "note": 73,
      "start": 22.3158,
      "duration": 0.0649,
      "velocity": 98,
      "chip": "ym2612"
    },
    {
      "channel": 4,
      "note": 61,
      "start": 22.3161,
      "duration": 0.0213,
      "velocity": 100,
      "chip": "ym2612"
    },
    {
      "channel": 0,
      "note": 92,
      "start": 22.3367,
      "duration": 0.0212,
      "velocity": 108,
      "chip": "ym2612"
    },
    {
      "channel": 2,
      "note": 88,
      "start": 22.3372,
      "duration": 0.0212,
      "velocity": 108,
      "chip": "ym2612"
    },
    {
      "channel": 4,
      "note": 61,
      "start": 22.3376,
      "duration": 0.0214,
      "velocity": 100,
      "chip": "ym2612"
    },
    {
      "channel": 0,
      "note": 92,
      "start": 22.3583,
      "duration": 0.0215,
      "velocity": 108,
      "chip": "ym2612"
    },
    {
      "channel": 2,
      "note": 88,
      "start": 22.3588,
      "duration": 0.0215,
      "velocity": 108,
      "chip": "ym2612"
    },
    {
      "channel": 0,
      "note": 92,
      "start": 22.3801,
      "duration": 0.1041,
      "velocity": 108,
      "chip": "ym2612"
    },
    {
      "channel": 2,
      "note": 88,
      "start": 22.3806,
      "duration": 0.1041,
      "velocity": 108,
      "chip": "ym2612"
    },
    {
      "channel": 3,
      "note": 90,
      "start": 22.3809,
      "duration": 0.4153,
      "velocity": 98,
      "chip": "ym2612"
    },
    {
      "channel": 4,
      "note": 61,
      "start": 22.3812,
      "duration": 0.1041,
      "velocity": 100,
      "chip": "ym2612"
    },
    {
      "channel": 0,
      "note": 92,
      "start": 22.4846,
      "duration": 0.1859,
      "velocity": 108,
      "chip": "ym2612"
    },
    {
      "channel": 2,
      "note": 88,
      "start": 22.4851,
      "duration": 0.1859,
      "velocity": 108,
      "chip": "ym2612"
    },
    {
      "channel": 4,
      "note": 61,
      "start": 22.4854,
      "duration": 0.1861,
      "velocity": 100,
      "chip": "ym2612"
    },
    {
      "channel": 0,
      "note": 90,
      "start": 22.6708,
      "duration": 0.1249,
      "velocity": 108,
      "chip": "ym2612"
    },
    {
      "channel": 2,
      "note": 87,
      "start": 22.6713,
      "duration": 0.1246,
      "velocity": 108,
      "chip": "ym2612"
    },
    {
      "channel": 4,
      "note": 61,
      "start": 22.6717,
      "duration": 0.1248,
      "velocity": 100,
      "chip": "ym2612"
    },
    {
      "channel": 0,
      "note": 92,
      "start": 22.7958,
      "duration": 0.1251,
      "velocity": 108,
      "chip": "ym2612"
    },
    {
      "channel": 2,
      "note": 88,
      "start": 22.7961,
      "duration": 0.1253,
      "velocity": 108,
      "chip": "ym2612"
    },
    {
      "channel": 3,
      "note": 87,
      "start": 22.7964,
      "duration": 0.1255,
      "velocity": 98,
      "chip": "ym2612"
    },
    {
      "channel": 0,
      "note": 92,
      "start": 22.9212,
      "duration": 0.1859,
      "velocity": 108,
      "chip": "ym2612"
    },
    {
      "channel": 2,
      "note": 88,
      "start": 22.9217,
      "duration": 0.1859,
      "velocity": 108,
      "chip": "ym2612"
    },
    {
      "channel": 3,
      "note": 85,
      "start": 22.922,
      "duration": 0.1861,
      "velocity": 98,
      "chip": "ym2612"
    },
    {
      "channel": 0,
      "note": 92,
      "start": 23.1074,
      "duration": 0.0214,
      "velocity": 108,
      "chip": "ym2612"
    },
    {
      "channel": 2,
      "note": 88,
      "start": 23.1079,
      "duration": 0.0214,
      "velocity": 108,
      "chip": "ym2612"
    },
    {
      "channel": 3,
      "note": 83,
      "start": 23.1082,
      "duration": 0.4746,
      "velocity": 98,
      "chip": "ym2612"
    },
    {
      "channel": 4,
      "note": 61,
      "start": 23.1085,
      "duration": 0.0214,
      "velocity": 100,
      "chip": "ym2612"
    },
    {
      "channel": 0,
      "note": 92,
      "start": 23.1292,
      "duration": 0.0199,
      "velocity": 108,
      "chip": "ym2612"
    },
    {
      "channel": 2,
      "note": 88,
      "start": 23.1297,
      "duration": 0.0199,
      "velocity": 108,
      "chip": "ym2612"
    },
    {
      "channel": 4,
      "note": 61,
      "start": 23.13,
      "duration": 0.02,
      "velocity": 100,
      "chip": "ym2612"
    },
    {
      "channel": 0,
      "note": 90,
      "start": 23.1494,
      "duration": 0.1197,
      "velocity": 108,
      "chip": "ym2612"
    },
    {
      "channel": 2,
      "note": 87,
      "start": 23.1499,
      "duration": 0.1197,
      "velocity": 108,
      "chip": "ym2612"
    },
    {
      "channel": 0,
      "note": 90,
      "start": 23.2694,
      "duration": 0.1249,
      "velocity": 108,
      "chip": "ym2612"
    },
    {
      "channel": 2,
      "note": 88,
      "start": 23.2699,
      "duration": 0.125,
      "velocity": 108,
      "chip": "ym2612"
    },
    {
      "channel": 4,
      "note": 61,
      "start": 23.2702,
      "duration": 0.1252,
      "velocity": 100,
      "chip": "ym2612"
    },
    {
      "channel": 0,
      "note": 90,
      "start": 23.3946,
      "duration": 0.1859,
      "velocity": 108,
      "chip": "ym2612"
    },
    {
      "channel": 2,
      "note": 88,
      "start": 23.3952,
      "duration": 0.1871,
      "velocity": 108,
      "chip": "ym2612"
    },
    {
      "channel": 4,
      "note": 59,
      "start": 23.3956,
      "duration": 0.1875,
      "velocity": 100,
      "chip": "ym2612"
    },
    {
      "channel": 0,
      "note": 90,
      "start": 23.5808,
      "duration": 0.1859,
      "velocity": 108,
      "chip": "ym2612"
    },
    {
      "channel": 1,
      "note": 75,
      "start": 23.5822,
      "duration": 0.1848,
      "velocity": 98,
      "chip": "ym2612"
    },
    {
      "channel": 2,
      "note": 87,
      "start": 23.5826,
      "duration": 0.1846,
      "velocity": 108,
      "chip": "ym2612"
    },
    {
      "channel": 3,
      "note": 71,
      "start": 23.5829,
      "duration": 0.1846,
      "velocity": 98,
      "chip": "ym2612"
    },
    {
      "channel": 4,
      "note": 59,
      "start": 23.5832,
      "duration": 0.1846,
      "velocity": 100,
      "chip": "ym2612"
    },
    {
      "channel": 0,
      "note": 95,
      "start": 23.7669,
      "duration": 0.125,
      "velocity": 108,
      "chip": "ym2612"
    },
    {
      "channel": 1,
      "note": 76,
      "start": 23.7671,
      "duration": 0.1252,
      "velocity": 98,
      "chip": "ym2612"
    },
    {
      "channel": 2,
      "note": 92,
      "start": 23.7674,
      "duration": 0.1252,
      "velocity": 108,
      "chip": "ym2612"
    },
    {
      "channel": 3,
      "note": 76,
      "start": 23.7676,
      "duration": 0.1254,
      "velocity": 98,
      "chip": "ym2612"
    },
    {
      "channel": 4,
      "note": 59,
      "start": 23.7679,
      "duration": 0.1254,
      "velocity": 100,
      "chip": "ym2612"
    },
    {
      "channel": 0,
      "note": 95,
      "start": 23.8922,
      "duration": 0.1859,
      "velocity": 108,
      "chip": "ym2612"
    },
    {
      "channel": 1,
      "note": 78,
      "start": 23.8925,
      "duration": 0.1861,
      "velocity": 98,
      "chip": "ym2612"
    },
    {
      "channel": 2,
      "note": 92,
      "start": 23.8929,
      "duration": 0.1859,
      "velocity": 108,
      "chip": "ym2612"
    },
    {
      "channel": 3,
      "note": 75,
      "start": 23.8932,
      "duration": 0.1861,
      "velocity": 98,
      "chip": "ym2612"
    },
    {
      "channel": 0,
      "note": 92,
      "start": 24.0784,
      "duration": 0.0216,
      "velocity": 108,
      "chip": "ym2612"
    },
    {
      "channel": 1,
      "note": 80,
      "start": 24.0787,
      "duration": 1.942,
      "velocity": 98,
      "chip": "ym2612"
    },
    {
      "channel": 2,
      "note": 88,
      "start": 24.0791,
      "duration": 0.0214,
      "velocity": 108,
      "chip": "ym2612"
    },
    {
      "channel": 3,
      "note": 73,
      "start": 24.0794,
      "duration": 0.1617,
      "velocity": 98,
      "chip": "ym2612"
    },
    {
      "channel": 4,
      "note": 61,
      "start": 24.0797,
      "duration": 0.0214,
      "velocity": 100,
      "chip": "ym2612"
    },
    {
      "channel": 0,
      "note": 92,
      "start": 24.1004,
      "duration": 0.0201,
      "velocity": 108,
      "chip": "ym2612"
    },
    {
      "channel": 2,
      "note": 88,
      "start": 24.1009,
      "duration": 0.02,
      "velocity": 108,
      "chip": "ym2612"
    },
    {
      "channel": 4,
      "note": 61,
      "start": 24.1012,
      "duration": 0.0202,
      "velocity": 100,
      "chip": "ym2612"
    },
    {
      "channel": 0,
      "note": 92,
      "start": 24.1208,
      "duration": 0.1193,
      "velocity": 108,
      "chip": "ym2612"
    },
    {
      "channel": 2,
      "note": 88,
      "start": 24.1213,
      "duration": 0.1193,
      "velocity": 108,
      "chip": "ym2612"
    },
    {
      "channel": 0,
      "note": 92,
      "start": 24.2404,
      "duration": 0.1249,
      "velocity": 108,
      "chip": "ym2612"
    },
    {
      "channel": 2,
      "note": 88,
      "start": 24.2409,
      "duration": 0.1249,
      "velocity": 108,
      "chip": "ym2612"
    },
    {
      "channel": 3,
      "note": 88,
      "start": 24.2412,
      "duration": 0.4975,
      "velocity": 98,
      "chip": "ym2612"
    },
    {
      "channel": 4,
      "note": 61,
      "start": 24.2415,
      "duration": 0.1249,
      "velocity": 100,
      "chip": "ym2612"
    },
    {
      "channel": 0,
      "note": 92,
      "start": 24.3656,
      "duration": 0.1859,
      "velocity": 108,
      "chip": "ym2612"
    },
    {
      "channel": 2,
      "note": 88,
      "start": 24.3661,
      "duration": 0.1859,
      "velocity": 108,
      "chip": "ym2612"
    },
    {
      "channel": 4,
      "note": 61,
      "start": 24.3665,
      "duration": 0.1861,
      "velocity": 100,
      "chip": "ym2612"
    },
    {
      "channel": 0,
      "note": 92,
      "start": 24.5518,
      "duration": 0.1859,
      "velocity": 108,
      "chip": "ym2612"
    },
    {
      "channel": 2,
      "note": 88,
      "start": 24.5524,
      "duration": 0.1859,
      "velocity": 108,
      "chip": "ym2612"
    },
    {
      "channel": 4,
      "note": 61,
      "start": 24.5527,
      "duration": 0.1862,
      "velocity": 100,
      "chip": "ym2612"
    },
    {
      "channel": 0,
      "note": 92,
      "start": 24.7381,
      "duration": 0.1249,
      "velocity": 108,
      "chip": "ym2612"
    },
    {
      "channel": 2,
      "note": 88,
      "start": 24.7386,
      "duration": 0.1249,
      "velocity": 108,
      "chip": "ym2612"
    },
    {
      "channel": 3,
      "note": 87,
      "start": 24.7388,
      "duration": 0.3113,
      "velocity": 98,
      "chip": "ym2612"
    },
    {
      "channel": 0,
      "note": 92,
      "start": 24.8633,
      "duration": 0.1859,
      "velocity": 108,
      "chip": "ym2612"
    },
    {
      "channel": 2,
      "note": 88,
      "start": 24.8638,
      "duration": 0.1859,
      "velocity": 108,
      "chip": "ym2612"
    },
    {
      "channel": 0,
      "note": 92,
      "start": 25.0495,
      "duration": 0.0215,
      "velocity": 108,
      "chip": "ym2612"
    },
    {
      "channel": 2,
      "note": 88,
      "start": 25.05,
      "duration": 0.0214,
      "velocity": 108,
      "chip": "ym2612"
    },
    {
      "channel": 3,
      "note": 83,
      "start": 25.0503,
      "duration": 0.6592,
      "velocity": 98,
      "chip": "ym2612"
    },
    {
      "channel": 4,
      "note": 61,
      "start": 25.0506,
      "duration": 0.0214,
      "velocity": 100,
      "chip": "ym2612"
    },
    {
      "channel": 0,
      "note": 92,
      "start": 25.0713,
      "duration": 0.02,
      "velocity": 108,
      "chip": "ym2612"
    },
    {
      "channel": 2,
      "note": 88,
      "start": 25.0718,
      "duration": 0.02,
      "velocity": 108,
      "chip": "ym2612"
    },
    {
      "channel": 4,
      "note": 61,
      "start": 25.0722,
      "duration": 0.0201,
      "velocity": 100,
      "chip": "ym2612"
    },
    {
      "channel": 0,
      "note": 92,
      "start": 25.0916,
      "duration": 0.1196,
      "velocity": 108,
      "chip": "ym2612"
    },
    {
      "channel": 2,
      "note": 88,
      "start": 25.0921,
      "duration": 0.1196,
      "velocity": 108,
      "chip": "ym2612"
    },
    {
      "channel": 0,
      "note": 92,
      "start": 25.2116,
      "duration": 0.1248,
      "velocity": 108,
      "chip": "ym2612"
    },
    {
      "channel": 2,
      "note": 88,
      "start": 25.2121,
      "duration": 0.1248,
      "velocity": 108,
      "chip": "ym2612"
    },
    {
      "channel": 4,
      "note": 61,
      "start": 25.2124,
      "duration": 0.1251,
      "velocity": 100,
      "chip": "ym2612"
    },
    {
      "channel": 0,
      "note": 92,
      "start": 25.3368,
      "duration": 0.1859,
      "velocity": 108,
      "chip": "ym2612"
    },
    {
      "channel": 2,
      "note": 88,
      "start": 25.3373,
      "duration": 0.1859,
      "velocity": 108,
      "chip": "ym2612"
    },
    {
      "channel": 4,
      "note": 61,
      "start": 25.3376,
      "duration": 0.1861,
      "velocity": 100,
      "chip": "ym2612"
    },
    {
      "channel": 0,
      "note": 92,
      "start": 25.523,
      "duration": 0.1859,
      "velocity": 108,
      "chip": "ym2612"
    },
    {
      "channel": 2,
      "note": 88,
      "start": 25.5235,
      "duration": 0.1857,
      "velocity": 108,
      "chip": "ym2612"
    },
    {
      "channel": 4,
      "note": 61,
      "start": 25.5238,
      "duration": 0.1858,
      "velocity": 100,
      "chip": "ym2612"
    },
    {
      "channel": 0,
      "note": 90,
      "start": 25.709,
      "duration": 0.125,
      "velocity": 108,
      "chip": "ym2612"
    },
    {
      "channel": 2,
      "note": 87,
      "start": 25.7093,
      "duration": 0.1253,
      "velocity": 108,
      "chip": "ym2612"
    },
    {
      "channel": 3,
      "note": 80,
      "start": 25.7096,
      "duration": 0.3119,
      "velocity": 98,
      "chip": "ym2612"
    },
    {
      "channel": 0,
      "note": 90,
      "start": 25.8344,
      "duration": 0.1859,
      "velocity": 108,
      "chip": "ym2612"
    },
    {
      "channel": 2,
      "note": 87,
      "start": 25.8349,
      "duration": 0.1861,
      "velocity": 108,
      "chip": "ym2612"
    },
    {
      "channel": 0,
      "note": 88,
      "start": 26.0206,
      "duration": 0.0216,
      "velocity": 108,
      "chip": "ym2612"
    },
    {
      "channel": 1,
      "note": 81,
      "start": 26.0209,
      "duration": 0.3899,
      "velocity": 98,
      "chip": "ym2612"
    },
    {
      "channel": 2,
      "note": 85,
      "start": 26.0213,
      "duration": 0.0215,
      "velocity": 108,
      "chip": "ym2612"
    },
    {
      "channel": 3,
      "note": 78,
      "start": 26.0216,
      "duration": 0.1617,
      "velocity": 98,
      "chip": "ym2612"
    },
    {
      "channel": 4,
      "note": 57,
      "start": 26.0219,
      "duration": 0.0214,
      "velocity": 100,
      "chip": "ym2612"
    },
    {
      "channel": 0,
      "note": 88,
      "start": 26.0426,
      "duration": 0.0201,
      "velocity": 108,
      "chip": "ym2612"
    },
    {
      "channel": 2,
      "note": 85,
      "start": 26.0431,
      "duration": 0.0201,
      "velocity": 108,
      "chip": "ym2612"
    },
    {
      "channel": 4,
      "note": 57,
      "start": 26.0434,
      "duration": 0.0202,
      "velocity": 100,
      "chip": "ym2612"
    },
    {
      "channel": 0,
      "note": 88,
      "start": 26.063,
      "duration": 0.1193,
      "velocity": 108,
      "chip": "ym2612"
    },
    {
      "channel": 2,
      "note": 85,
      "start": 26.0635,
      "duration": 0.1193,
      "velocity": 108,
      "chip": "ym2612"
    },
    {
      "channel": 0,
      "note": 88,
      "start": 26.1827,
      "duration": 0.1859,
      "velocity": 108,
      "chip": "ym2612"
    },
    {
      "channel": 2,
      "note": 85,
      "start": 26.1832,
      "duration": 0.1859,
      "velocity": 108,
      "chip": "ym2612"
    },
    {
      "channel": 3,
      "note": 78,
      "start": 26.1834,
      "duration": 0.2281,
      "velocity": 98,
      "chip": "ym2612"
    },
    {
      "channel": 4,
      "note": 57,
      "start": 26.1837,
      "duration": 0.1859,
      "velocity": 100,
      "chip": "ym2612"
    },
    {
      "channel": 0,
      "note": 88,
      "start": 26.3689,
      "duration": 0.0211,
      "velocity": 108,
      "chip": "ym2612"
    },
    {
      "channel": 2,
      "note": 85,
      "start": 26.3694,
      "duration": 0.0211,
      "velocity": 108,
      "chip": "ym2612"
    },
    {
      "channel": 4,
      "note": 57,
      "start": 26.3697,
      "duration": 0.0213,
      "velocity": 100,
      "chip": "ym2612"
    },
    {
      "channel": 0,
      "note": 88,
      "start": 26.3903,
      "duration": 0.02,
      "velocity": 108,
      "chip": "ym2612"
    },
    {
      "channel": 2,
      "note": 85,
      "start": 26.3908,
      "duration": 0.0202,
      "velocity": 108,
      "chip": "ym2612"
    },
    {
      "channel": 4,
      "note": 57,
      "start": 26.3912,
      "duration": 0.0205,
      "velocity": 100,
      "chip": "ym2612"
    },
    {
      "channel": 0,
      "note": 88,
      "start": 26.4107,
      "duration": 0.1198,
      "velocity": 108,
      "chip": "ym2612"
    },
    {
      "channel": 1,
      "note": 80,
      "start": 26.411,
      "duration": 0.1198,
      "velocity": 98,
      "chip": "ym2612"
    },
    {
      "channel": 2,
      "note": 85,
      "start": 26.4114,
      "duration": 0.1196,
      "velocity": 108,
      "chip": "ym2612"
    },
    {
      "channel": 3,
      "note": 75,
      "start": 26.4117,
      "duration": 0.1196,
      "velocity": 98,
      "chip": "ym2612"
    },
    {
      "channel": 0,
      "note": 90,
      "start": 26.5306,
      "duration": 0.1861,
      "velocity": 108,
      "chip": "ym2612"
    },
    {
      "channel": 1,
      "note": 78,
      "start": 26.5309,
      "duration": 0.576,
      "velocity": 98,
      "chip": "ym2612"
    },
    {
      "channel": 2,
      "note": 87,
      "start": 26.5311,
      "duration": 0.1861,
      "velocity": 108,
      "chip": "ym2612"
    },
    {
      "channel": 3,
      "note": 71,
      "start": 26.5314,
      "duration": 0.9479,
      "velocity": 98,
      "chip": "ym2612"
    },
    {
      "channel": 0,
      "note": 90,
      "start": 26.7171,
      "duration": 0.0212,
      "velocity": 108,
      "chip": "ym2612"
    },
    {
      "channel": 2,
      "note": 87,
      "start": 26.7176,
      "duration": 0.0212,
      "velocity": 108,
      "chip": "ym2612"
    },
    {
      "channel": 4,
      "note": 59,
      "start": 26.7179,
      "duration": 0.0214,
      "velocity": 100,
      "chip": "ym2612"
    },
    {
      "channel": 0,
      "note": 90,
      "start": 26.7386,
      "duration": 0.02,
      "velocity": 108,
      "chip": "ym2612"
    },
    {
      "channel": 2,
      "note": 87,
      "start": 26.7391,
      "duration": 0.02,
      "velocity": 108,
      "chip": "ym2612"
    },
    {
      "channel": 4,
      "note": 59,
      "start": 26.7394,
      "duration": 0.0201,
      "velocity": 100,
      "chip": "ym2612"
    },
    {
      "channel": 0,
      "note": 90,
      "start": 26.7589,
      "duration": 0.1199,
      "velocity": 108,
      "chip": "ym2612"
    },
    {
      "channel": 2,
      "note": 87,
      "start": 26.7594,
      "duration": 0.1199,
      "velocity": 108,
      "chip": "ym2612"
    },
    {
      "channel": 0,
      "note": 90,
      "start": 26.8791,
      "duration": 0.1859,
      "velocity": 108,
      "chip": "ym2612"
    },
    {
      "channel": 2,
      "note": 87,
      "start": 26.8796,
      "duration": 0.1859,
      "velocity": 108,
      "chip": "ym2612"
    },
    {
      "channel": 4,
      "note": 59,
      "start": 26.88,
      "duration": 0.1861,
      "velocity": 100,
      "chip": "ym2612"
    },
    {
      "channel": 0,
      "note": 88,
      "start": 27.0654,
      "duration": 0.0212,
      "velocity": 108,
      "chip": "ym2612"
    },
    {
      "channel": 2,
      "note": 85,
      "start": 27.0659,
      "duration": 0.021,
      "velocity": 108,
      "chip": "ym2612"
    },
    {
      "channel": 4,
      "note": 59,
      "start": 27.0662,
      "duration": 0.021,
      "velocity": 100,
      "chip": "ym2612"
    },
    {
      "channel": 0,
      "note": 90,
      "start": 27.0867,
      "duration": 0.0197,
      "velocity": 108,
      "chip": "ym2612"
    },
    {
      "channel": 2,
      "note": 87,
      "start": 27.087,
      "duration": 0.0201,
      "velocity": 108,
      "chip": "ym2612"
    },
    {
      "channel": 4,
      "note": 59,
      "start": 27.0873,
      "duration": 0.0203,
      "velocity": 100,
      "chip": "ym2612"
    },
    {
      "channel": 0,
      "note": 90,
      "start": 27.1068,
      "duration": 0.1201,
      "velocity": 108,
      "chip": "ym2612"
    },
    {
      "channel": 1,
      "note": 76,
      "start": 27.107,
      "duration": 0.1203,
      "velocity": 98,
      "chip": "ym2612"
    },
    {
      "channel": 2,
      "note": 87,
      "start": 27.1075,
      "duration": 0.1201,
      "velocity": 108,
      "chip": "ym2612"
    },
    {
      "channel": 4,
      "note": 59,
      "start": 27.1078,
      "duration": 0.1202,
      "velocity": 100,
      "chip": "ym2612"
    },
    {
      "channel": 0,
      "note": 90,
      "start": 27.2272,
      "duration": 0.1859,
      "velocity": 108,
      "chip": "ym2612"
    },
    {
      "channel": 1,
      "note": 75,
      "start": 27.2274,
      "duration": 0.1861,
      "velocity": 98,
      "chip": "ym2612"
    },
    {
      "channel": 2,
      "note": 87,
      "start": 27.2279,
      "duration": 0.1859,
      "velocity": 108,
      "chip": "ym2612"
    },
    {
      "channel": 0,
      "note": 92,
      "start": 27.4134,
      "duration": 0.0228,
      "velocity": 108,
      "chip": "ym2612"
    },
    {
      "channel": 1,
      "note": 73,
      "start": 27.4137,
      "duration": 0.1705,
      "velocity": 98,
      "chip": "ym2612"
    },
    {
      "channel": 2,
      "note": 88,
      "start": 27.4141,
      "duration": 0.0226,
      "velocity": 108,
      "chip": "ym2612"
    },
    {
      "channel": 4,
      "note": 61,
      "start": 27.4144,
      "duration": 0.0228,
      "velocity": 100,
      "chip": "ym2612"
    },
    {
      "channel": 0,
      "note": 92,
      "start": 27.4366,
      "duration": 0.0209,
      "velocity": 108,
      "chip": "ym2612"
    },
    {
      "channel": 2,
      "note": 88,
      "start": 27.4371,
      "duration": 0.0209,
      "velocity": 108,
      "chip": "ym2612"
    },
    {
      "channel": 4,
      "note": 61,
      "start": 27.4374,
      "duration": 0.021,
      "velocity": 100,
      "chip": "ym2612"
    },
    {
      "channel": 0,
      "note": 92,
      "start": 27.4578,
      "duration": 0.0205,
      "velocity": 108,
      "chip": "ym2612"
    },
    {
      "channel": 2,
      "note": 88,
      "start": 27.4583,
      "duration": 0.0205,
      "velocity": 108,
      "chip": "ym2612"
    },
    {
      "channel": 0,
      "note": 92,
      "start": 27.4787,
      "duration": 0.022,
      "velocity": 108,
      "chip": "ym2612"
    },
    {
      "channel": 2,
      "note": 88,
      "start": 27.4792,
      "duration": 0.022,
      "velocity": 108,
      "chip": "ym2612"
    },
    {
      "channel": 3,
      "note": 88,
      "start": 27.4806,
      "duration": 0.0629,
      "velocity": 98,
      "chip": "ym2612"
    },
    {
      "channel": 4,
      "note": 61,
      "start": 27.4809,
      "duration": 0.0208,
      "velocity": 100,
      "chip": "ym2612"
    },
    {
      "channel": 0,
      "note": 92,
      "start": 27.501,
      "duration": 0.0201,
      "velocity": 108,
      "chip": "ym2612"
    },
    {
      "channel": 2,
      "note": 88,
      "start": 27.5015,
      "duration": 0.0201,
      "velocity": 108,
      "chip": "ym2612"
    },
    {
      "channel": 4,
      "note": 61,
      "start": 27.5019,
      "duration": 0.0203,
      "velocity": 100,
      "chip": "ym2612"
    },
    {
      "channel": 0,
      "note": 92,
      "start": 27.5215,
      "duration": 0.0211,
      "velocity": 108,
      "chip": "ym2612"
    },
    {
      "channel": 2,
      "note": 88,
      "start": 27.522,
      "duration": 0.021,
      "velocity": 108,
      "chip": "ym2612"
    },
    {
      "channel": 4,
      "note": 61,
      "start": 27.5223,
      "duration": 0.0214,
      "velocity": 100,
      "chip": "ym2612"
    },
    {
      "channel": 0,
      "note": 92,
      "start": 27.5429,
      "duration": 0.0206,
      "velocity": 108,
      "chip": "ym2612"
    },
    {
      "channel": 2,
      "note": 88,
      "start": 27.5434,
      "duration": 0.0206,
      "velocity": 108,
      "chip": "ym2612"
    },
    {
      "channel": 3,
      "note": 87,
      "start": 27.5436,
      "duration": 0.0415,
      "velocity": 98,
      "chip": "ym2612"
    },
    {
      "channel": 0,
      "note": 92,
      "start": 27.5637,
      "duration": 0.02,
      "velocity": 108,
      "chip": "ym2612"
    },
    {
      "channel": 2,
      "note": 88,
      "start": 27.5643,
      "duration": 0.0203,
      "velocity": 108,
      "chip": "ym2612"
    },
    {
      "channel": 0,
      "note": 92,
      "start": 27.5841,
      "duration": 0.022,
      "velocity": 108,
      "chip": "ym2612"
    },
    {
      "channel": 1,
      "note": 73,
      "start": 27.5845,
      "duration": 0.0221,
      "velocity": 98,
      "chip": "ym2612"
    },
    {
      "channel": 2,
      "note": 88,
      "start": 27.5849,
      "duration": 0.022,
      "velocity": 108,
      "chip": "ym2612"
    },
    {
      "channel": 3,
      "note": 83,
      "start": 27.5852,
      "duration": 0.1308,
      "velocity": 98,
      "chip": "ym2612"
    },
    {
      "channel": 4,
      "note": 61,
      "start": 27.5855,
      "duration": 0.022,
      "velocity": 100,
      "chip": "ym2612"
    },
    {
      "channel": 0,
      "note": 92,
      "start": 27.6065,
      "duration": 0.0214,
      "velocity": 108,
      "chip": "ym2612"
    },
    {
      "channel": 1,
      "note": 73,
      "start": 27.6068,
      "duration": 0.0215,
      "velocity": 98,
      "chip": "ym2612"
    },
    {
      "channel": 2,
      "note": 88,
      "start": 27.6073,
      "duration": 0.0214,
      "velocity": 108,
      "chip": "ym2612"
    },
    {
      "channel": 4,
      "note": 61,
      "start": 27.6076,
      "duration": 0.0215,
      "velocity": 100,
      "chip": "ym2612"
    },
    {
      "channel": 0,
      "note": 92,
      "start": 27.6282,
      "duration": 0.0218,
      "velocity": 108,
      "chip": "ym2612"
    },
    {
      "channel": 1,
      "note": 73,
      "start": 27.6286,
      "duration": 0.0219,
      "velocity": 98,
      "chip": "ym2612"
    },
    {
      "channel": 2,
      "note": 88,
      "start": 27.629,
      "duration": 0.0218,
      "velocity": 108,
      "chip": "ym2612"
    },
    {
      "channel": 0,
      "note": 92,
      "start": 27.6503,
      "duration": 0.021,
      "velocity": 108,
      "chip": "ym2612"
    },
    {
      "channel": 1,
      "note": 73,
      "start": 27.6507,
      "duration": 0.0211,
      "velocity": 98,
      "chip": "ym2612"
    },
    {
      "channel": 2,
      "note": 88,
      "start": 27.6512,
      "duration": 0.021,
      "velocity": 108,
      "chip": "ym2612"
    },
    {
      "channel": 4,
      "note": 61,
      "start": 27.6515,
      "duration": 0.0212,
      "velocity": 100,
      "chip": "ym2612"
    },
    {
      "channel": 0,
      "note": 92,
      "start": 27.6717,
      "duration": 0.0217,
      "velocity": 108,
      "chip": "ym2612"
    },
    {
      "channel": 1,
      "note": 73,
      "start": 27.6721,
      "duration": 0.0217,
      "velocity": 98,
      "chip": "ym2612"
    },
    {
      "channel": 2,
      "note": 88,
      "start": 27.6725,
      "duration": 0.0217,
      "velocity": 108,
      "chip": "ym2612"
    },
    {
      "channel": 4,
      "note": 61,
      "start": 27.6729,
      "duration": 0.0218,
      "velocity": 100,
      "chip": "ym2612"
    },
    {
      "channel": 0,
      "note": 92,
      "start": 27.6937,
      "duration": 0.0214,
      "velocity": 108,
      "chip": "ym2612"
    },
    {
      "channel": 1,
      "note": 73,
      "start": 27.6941,
      "duration": 0.0212,
      "velocity": 98,
      "chip": "ym2612"
    },
    {
      "channel": 2,
      "note": 88,
      "start": 27.6945,
      "duration": 0.0212,
      "velocity": 108,
      "chip": "ym2612"
    },
    {
      "channel": 4,
      "note": 61,
      "start": 27.6949,
      "duration": 0.0213,
      "velocity": 100,
      "chip": "ym2612"
    },
    {
      "channel": 0,
      "note": 90,
      "start": 27.7152,
      "duration": 0.0209,
      "velocity": 108,
      "chip": "ym2612"
    },
    {
      "channel": 1,
      "note": 80,
      "start": 27.7156,
      "duration": 0.0425,
      "velocity": 98,
      "chip": "ym2612"
    },
    {
      "channel": 2,
      "note": 86,
      "start": 27.7159,
      "duration": 0.0207,
      "velocity": 108,
      "chip": "ym2612"
    },
    {
      "channel": 3,
      "note": 81,
      "start": 27.7161,
      "duration": 0.021,
      "velocity": 98,
      "chip": "ym2612"
    },
    {
      "channel": 0,
      "note": 90,
      "start": 27.7364,
      "duration": 0.0212,
      "velocity": 108,
      "chip": "ym2612"
    },
    {
      "channel": 2,
      "note": 86,
      "start": 27.7369,
      "duration": 0.0214,
      "velocity": 108,
      "chip": "ym2612"
    },
    {
      "channel": 3,
      "note": 80,
      "start": 27.7372,
      "duration": 0.0216,
      "velocity": 98,
      "chip": "ym2612"
    },
    {
      "channel": 0,
      "note": 92,
      "start": 27.758,
      "duration": 0.0216,
      "velocity": 108,
      "chip": "ym2612"
    },
    {
      "channel": 1,
      "note": 78,
      "start": 27.7582,
      "duration": 0.4773,
      "velocity": 98,
      "chip": "ym2612"
    },
    {
      "channel": 2,
      "note": 88,
      "start": 27.7587,
      "duration": 0.0214,
      "velocity": 108,
      "chip": "ym2612"
    },
    {
      "channel": 3,
      "note": 73,
      "start": 27.759,
      "duration": 0.0639,
      "velocity": 98,
      "chip": "ym2612"
    },
    {
      "channel": 4,
      "note": 61,
      "start": 27.7592,
      "duration": 0.0214,
      "velocity": 100,
      "chip": "ym2612"
    },
    {
      "channel": 0,
      "note": 92,
      "start": 27.7799,
      "duration": 0.0212,
      "velocity": 108,
      "chip": "ym2612"
    },
    {
      "channel": 2,
      "note": 88,
      "start": 27.7804,
      "duration": 0.0212,
      "velocity": 108,
      "chip": "ym2612"
    },
    {
      "channel": 4,
      "note": 61,
      "start": 27.7807,
      "duration": 0.0213,
      "velocity": 100,
      "chip": "ym2612"
    },
    {
      "channel": 0,
      "note": 92,
      "start": 27.8014,
      "duration": 0.0205,
      "velocity": 108,
      "chip": "ym2612"
    },
    {
      "channel": 2,
      "note": 88,
      "start": 27.8019,
      "duration": 0.0205,
      "velocity": 108,
      "chip": "ym2612"
    },
    {
      "channel": 0,
      "note": 92,
      "start": 27.8222,
      "duration": 0.1014,
      "velocity": 108,
      "chip": "ym2612"
    },
    {
      "channel": 2,
      "note": 88,
      "start": 27.8228,
      "duration": 0.1014,
      "velocity": 108,
      "chip": "ym2612"
    },
    {
      "channel": 3,
      "note": 90,
      "start": 27.823,
      "duration": 0.4132,
      "velocity": 98,
      "chip": "ym2612"
    },
    {
      "channel": 4,
      "note": 61,
      "start": 27.8233,
      "duration": 0.1014,
      "velocity": 100,
      "chip": "ym2612"
    },
    {
      "channel": 0,
      "note": 92,
      "start": 27.924,
      "duration": 0.1859,
      "velocity": 108,
      "chip": "ym2612"
    },
    {
      "channel": 2,
      "note": 88,
      "start": 27.9245,
      "duration": 0.1859,
      "velocity": 108,
      "chip": "ym2612"
    },
    {
      "channel": 4,
      "note": 61,
      "start": 27.9249,
      "duration": 0.1861,
      "velocity": 100,
      "chip": "ym2612"
    },
    {
      "channel": 0,
      "note": 92,
      "start": 28.1102,
      "duration": 0.1249,
      "velocity": 108,
      "chip": "ym2612"
    },
    {
      "channel": 2,
      "note": 88,
      "start": 28.1107,
      "duration": 0.125,
      "velocity": 108,
      "chip": "ym2612"
    },
    {
      "channel": 4,
      "note": 61,
      "start": 28.1111,
      "duration": 0.1254,
      "velocity": 100,
      "chip": "ym2612"
    },
    {
      "channel": 0,
      "note": 92,
      "start": 28.2354,
      "duration": 0.1249,
      "velocity": 108,
      "chip": "ym2612"
    },
    {
      "channel": 1,
      "note": 75,
      "start": 28.2356,
      "duration": 0.7849,
      "velocity": 98,
      "chip": "ym2612"
    },
    {
      "channel": 2,
      "note": 88,
      "start": 28.2361,
      "duration": 0.1247,
      "velocity": 108,
      "chip": "ym2612"
    },
    {
      "channel": 3,
      "note": 87,
      "start": 28.2364,
      "duration": 0.1249,
      "velocity": 98,
      "chip": "ym2612"
    },
    {
      "channel": 0,
      "note": 90,
      "start": 28.3606,
      "duration": 0.1859,
      "velocity": 108,
      "chip": "ym2612"
    },
    {
      "channel": 2,
      "note": 87,
      "start": 28.3612,
      "duration": 0.1859,
      "velocity": 108,
      "chip": "ym2612"
    },
    {
      "channel": 3,
      "note": 85,
      "start": 28.3614,
      "duration": 0.1861,
      "velocity": 98,
      "chip": "ym2612"
    },
    {
      "channel": 0,
      "note": 90,
      "start": 28.5469,
      "duration": 0.0214,
      "velocity": 108,
      "chip": "ym2612"
    },
    {
      "channel": 2,
      "note": 87,
      "start": 28.5474,
      "duration": 0.0214,
      "velocity": 108,
      "chip": "ym2612"
    },
    {
      "channel": 3,
      "note": 83,
      "start": 28.5476,
      "duration": 0.4736,
      "velocity": 98,
      "chip": "ym2612"
    },
    {
      "channel": 4,
      "note": 61,
      "start": 28.5479,
      "duration": 0.0214,
      "velocity": 100,
      "chip": "ym2612"
    },
    {
      "channel": 0,
      "note": 90,
      "start": 28.5686,
      "duration": 0.02,
      "velocity": 108,
      "chip": "ym2612"
    },
    {
      "channel": 2,
      "note": 87,
      "start": 28.5691,
      "duration": 0.02,
      "velocity": 108,
      "chip": "ym2612"
    },
    {
      "channel": 4,
      "note": 61,
      "start": 28.5695,
      "duration": 0.0201,
      "velocity": 100,
      "chip": "ym2612"
    },
    {
      "channel": 0,
      "note": 90,
      "start": 28.589,
      "duration": 0.1197,
      "velocity": 108,
      "chip": "ym2612"
    },
    {
      "channel": 2,
      "note": 87,
      "start": 28.5895,
      "duration": 0.1197,
      "velocity": 108,
      "chip": "ym2612"
    },
    {
      "channel": 0,
      "note": 90,
      "start": 28.709,
      "duration": 0.1249,
      "velocity": 108,
      "chip": "ym2612"
    },
    {
      "channel": 2,
      "note": 87,
      "start": 28.7095,
      "duration": 0.1249,
      "velocity": 108,
      "chip": "ym2612"
    },
    {
      "channel": 4,
      "note": 61,
      "start": 28.7098,
      "duration": 0.1251,
      "velocity": 100,
      "chip": "ym2612"
    },
    {
      "channel": 0,
      "note": 90,
      "start": 28.8342,
      "duration": 0.1859,
      "velocity": 108,
      "chip": "ym2612"
    },
    {
      "channel": 2,
      "note": 87,
      "start": 28.8347,
      "duration": 0.1861,
      "velocity": 108,
      "chip": "ym2612"
    },
    {
      "channel": 4,
      "note": 59,
      "start": 28.8351,
      "duration": 0.1865,
      "velocity": 100,
      "chip": "ym2612"
    },
    {
      "channel": 0,
      "note": 90,
      "start": 29.0204,
      "duration": 0.1859,
      "velocity": 108,
      "chip": "ym2612"
    },
    {
      "channel": 1,
      "note": 75,
      "start": 29.0207,
      "duration": 0.1859,
      "velocity": 98,
      "chip": "ym2612"
    },
    {
      "channel": 2,
      "note": 87,
      "start": 29.0211,
      "duration": 0.1857,
      "velocity": 108,
      "chip": "ym2612"
    },
    {
      "channel": 3,
      "note": 71,
      "start": 29.0214,
      "duration": 0.1857,
      "velocity": 98,
      "chip": "ym2612"
    },
    {
      "channel": 4,
      "note": 59,
      "start": 29.0217,
      "duration": 0.1857,
      "velocity": 100,
      "chip": "ym2612"
    },
    {
      "channel": 0,
      "note": 95,
      "start": 29.2065,
      "duration": 0.1251,
      "velocity": 108,
      "chip": "ym2612"
    },
    {
      "channel": 1,
      "note": 76,
      "start": 29.2067,
      "duration": 0.1253,
      "velocity": 98,
      "chip": "ym2612"
    },
    {
      "channel": 2,
      "note": 92,
      "start": 29.207,
      "duration": 0.1253,
      "velocity": 108,
      "chip": "ym2612"
    },
    {
      "channel": 3,
      "note": 76,
      "start": 29.2073,
      "duration": 0.1255,
      "velocity": 98,
      "chip": "ym2612"
    },
    {
      "channel": 4,
      "note": 59,
      "start": 29.2075,
      "duration": 0.1254,
      "velocity": 100,
      "chip": "ym2612"
    },
    {
      "channel": 0,
      "note": 95,
      "start": 29.3319,
      "duration": 0.1859,
      "velocity": 108,
      "chip": "ym2612"
    },
    {
      "channel": 1,
      "note": 78,
      "start": 29.3322,
      "duration": 0.1861,
      "velocity": 98,
      "chip": "ym2612"
    },
    {
      "channel": 2,
      "note": 92,
      "start": 29.3326,
      "duration": 0.1859,
      "velocity": 108,
      "chip": "ym2612"
    },
    {
      "channel": 3,
      "note": 75,
      "start": 29.3329,
      "duration": 0.1861,
      "velocity": 98,
      "chip": "ym2612"
    },
    {
      "channel": 0,
      "note": 92,
      "start": 29.5181,
      "duration": 0.0217,
      "velocity": 108,
      "chip": "ym2612"
    },
    {
      "channel": 1,
      "note": 80,
      "start": 29.5184,
      "duration": 1.9421,
      "velocity": 98,
      "chip": "ym2612"
    },
    {
      "channel": 2,
      "note": 88,
      "start": 29.5188,
      "duration": 0.0215,
      "velocity": 108,
      "chip": "ym2612"
    },
    {
      "channel": 3,
      "note": 73,
      "start": 29.5191,
      "duration": 0.1619,
      "velocity": 98,
      "chip": "ym2612"
    },
    {
      "channel": 4,
      "note": 61,
      "start": 29.5194,
      "duration": 0.0215,
      "velocity": 100,
      "chip": "ym2612"
    },
    {
      "channel": 0,
      "note": 92,
      "start": 29.5402,
      "duration": 0.0201,
      "velocity": 108,
      "chip": "ym2612"
    },
    {
      "channel": 2,
      "note": 88,
      "start": 29.5407,
      "duration": 0.0201,
      "velocity": 108,
      "chip": "ym2612"
    },
    {
      "channel": 4,
      "note": 61,
      "start": 29.541,
      "duration": 0.0202,
      "velocity": 100,
      "chip": "ym2612"
    },
    {
      "channel": 0,
      "note": 92,
      "start": 29.5606,
      "duration": 0.1194,
      "velocity": 108,
      "chip": "ym2612"
    },
    {
      "channel": 2,
      "note": 88,
      "start": 29.5611,
      "duration": 0.1193,
      "velocity": 108,
      "chip": "ym2612"
    },
    {
      "channel": 0,
      "note": 92,
      "start": 29.6803,
      "duration": 0.1249,
      "velocity": 108,
      "chip": "ym2612"
    },
    {
      "channel": 2,
      "note": 88,
      "start": 29.6808,
      "duration": 0.1249,
      "velocity": 108,
      "chip": "ym2612"
    },
    {
      "channel": 3,
      "note": 88,
      "start": 29.6811,
      "duration": 0.4975,
      "velocity": 98,
      "chip": "ym2612"
    },
    {
      "channel": 4,
      "note": 61,
      "start": 29.6814,
      "duration": 0.1249,
      "velocity": 100,
      "chip": "ym2612"
    },
    {
      "channel": 0,
      "note": 92,
      "start": 29.8055,
      "duration": 0.1859,
      "velocity": 108,
      "chip": "ym2612"
    },
    {
      "channel": 2,
      "note": 88,
      "start": 29.806,
      "duration": 0.1859,
      "velocity": 108,
      "chip": "ym2612"
    },
    {
      "channel": 4,
      "note": 61,
      "start": 29.8063,
      "duration": 0.1861,
      "velocity": 100,
      "chip": "ym2612"
    },
    {
      "channel": 0,
      "note": 92,
      "start": 29.9918,
      "duration": 0.1859,
      "velocity": 108,
      "chip": "ym2612"
    },
    {
      "channel": 2,
      "note": 88,
      "start": 29.9923,
      "duration": 0.1859,
      "velocity": 108,
      "chip": "ym2612"
    },
    {
      "channel": 4,
      "note": 61,
      "start": 29.9926,
      "duration": 0.1862,
      "velocity": 100,
      "chip": "ym2612"
    },
    {
      "channel": 0,
      "note": 90,
      "start": 30.178,
      "duration": 0.1249,
      "velocity": 108,
      "chip": "ym2612"
    },
    {
      "channel": 2,
      "note": 87,
      "start": 30.1785,
      "duration": 0.1247,
      "velocity": 108,
      "chip": "ym2612"
    },
    {
      "channel": 3,
      "note": 87,
      "start": 30.1788,
      "duration": 0.3113,
      "velocity": 98,
      "chip": "ym2612"
    },
    {
      "channel": 0,
      "note": 92,
      "start": 30.303,
      "duration": 0.1861,
      "velocity": 108,
      "chip": "ym2612"
    },
    {
      "channel": 2,
      "note": 88,
      "start": 30.3033,
      "duration": 0.1863,
      "velocity": 108,
      "chip": "ym2612"
    },
    {
      "channel": 0,
      "note": 92,
      "start": 30.4894,
      "duration": 0.0214,
      "velocity": 108,
      "chip": "ym2612"
    },
    {
      "channel": 2,
      "note": 88,
      "start": 30.4899,
      "duration": 0.0214,
      "velocity": 108,
      "chip": "ym2612"
    },
    {
      "channel": 3,
      "note": 83,
      "start": 30.4902,
      "duration": 0.659,
      "velocity": 98,
      "chip": "ym2612"
    },
    {
      "channel": 4,
      "note": 61,
      "start": 30.4905,
      "duration": 0.0214,
      "velocity": 100,
      "chip": "ym2612"
    },
    {
      "channel": 0,
      "note": 92,
      "start": 30.5111,
      "duration": 0.0198,
      "velocity": 108,
      "chip": "ym2612"
    },
    {
      "channel": 2,
      "note": 88,
      "start": 30.5116,
      "duration": 0.0198,
      "velocity": 108,
      "chip": "ym2612"
    },
    {
      "channel": 4,
      "note": 61,
      "start": 30.512,
      "duration": 0.02,
      "velocity": 100,
      "chip": "ym2612"
    },
    {
      "channel": 0,
      "note": 92,
      "start": 30.5313,
      "duration": 0.1196,
      "velocity": 108,
      "chip": "ym2612"
    },
    {
      "channel": 2,
      "note": 88,
      "start": 30.5318,
      "duration": 0.1194,
      "velocity": 108,
      "chip": "ym2612"
    },
    {
      "channel": 0,
      "note": 90,
      "start": 30.6511,
      "duration": 0.1251,
      "velocity": 108,
      "chip": "ym2612"
    },
    {
      "channel": 2,
      "note": 87,
      "start": 30.6514,
      "duration": 0.1252,
      "velocity": 108,
      "chip": "ym2612"
    },
    {
      "channel": 4,
      "note": 61,
      "start": 30.6517,
      "duration": 0.1254,
      "velocity": 100,
      "chip": "ym2612"
    },
    {
      "channel": 0,
      "note": 90,
      "start": 30.7765,
      "duration": 0.1859,
      "velocity": 108,
      "chip": "ym2612"
    },
    {
      "channel": 2,
      "note": 87,
      "start": 30.777,
      "duration": 0.1859,
      "velocity": 108,
      "chip": "ym2612"
    },
    {
      "channel": 4,
      "note": 61,
      "start": 30.7773,
      "duration": 0.1861,
      "velocity": 100,
      "chip": "ym2612"
    },
    {
      "channel": 0,
      "note": 92,
      "start": 30.9627,
      "duration": 0.1859,
      "velocity": 108,
      "chip": "ym2612"
    },
    {
      "channel": 2,
      "note": 88,
      "start": 30.9632,
      "duration": 0.1857,
      "velocity": 108,
      "chip": "ym2612"
    },
    {
      "channel": 4,
      "note": 61,
      "start": 30.9635,
      "duration": 0.1859,
      "velocity": 100,
      "chip": "ym2612"
    },
    {
      "channel": 0,
      "note": 90,
      "start": 31.1487,
      "duration": 0.1251,
      "velocity": 108,
      "chip": "ym2612"
    },
    {
      "channel": 2,
      "note": 87,
      "start": 31.149,
      "duration": 0.1253,
      "velocity": 108,
      "chip": "ym2612"
    },
    {
      "channel": 3,
      "note": 76,
      "start": 31.1493,
      "duration": 0.1255,
      "velocity": 98,
      "chip": "ym2612"
    },
    {
      "channel": 0,
      "note": 90,
      "start": 31.2741,
      "duration": 0.1859,
      "velocity": 108,
      "chip": "ym2612"
    },
    {
      "channel": 2,
      "note": 87,
      "start": 31.2746,
      "duration": 0.1861,
      "velocity": 108,
      "chip": "ym2612"
    },
    {
      "channel": 3,
      "note": 78,
      "start": 31.2749,
      "duration": 0.1863,
      "velocity": 98,
      "chip": "ym2612"
    },
    {
      "channel": 0,
      "note": 88,
      "start": 31.4603,
      "duration": 0.0215,
      "velocity": 108,
      "chip": "ym2612"
    },
    {
      "channel": 1,
      "note": 81,
      "start": 31.4606,
      "duration": 0.5098,
      "velocity": 98,
      "chip": "ym2612"
    },
    {
      "channel": 2,
      "note": 85,
      "start": 31.461,
      "duration": 0.0213,
      "velocity": 108,
      "chip": "ym2612"
    },
    {
      "channel": 3,
      "note": 80,
      "start": 31.4613,
      "duration": 0.3897,
      "velocity": 98,
      "chip": "ym2612"
    },
    {
      "channel": 4,
      "note": 57,
      "start": 31.4616,
      "duration": 0.0214,
      "velocity": 100,
      "chip": "ym2612"
    },
    {
      "channel": 0,
      "note": 88,
      "start": 31.4822,
      "duration": 0.0201,
      "velocity": 108,
      "chip": "ym2612"
    },
    {
      "channel": 2,
      "note": 85,
      "start": 31.4827,
      "duration": 0.02,
      "velocity": 108,
      "chip": "ym2612"
    },
    {
      "channel": 4,
      "note": 57,
      "start": 31.4831,
      "duration": 0.0202,
      "velocity": 100,
      "chip": "ym2612"
    },
    {
      "channel": 0,
      "note": 88,
      "start": 31.5026,
      "duration": 0.1193,
      "velocity": 108,
      "chip": "ym2612"
    },
    {
      "channel": 2,
      "note": 85,
      "start": 31.5031,
      "duration": 0.1193,
      "velocity": 108,
      "chip": "ym2612"
    },
    {
      "channel": 4,
      "note": 57,
      "start": 31.5035,
      "duration": 0.1195,
      "velocity": 100,
      "chip": "ym2612"
    },
    {
      "channel": 0,
      "note": 88,
      "start": 31.6223,
      "duration": 0.1859,
      "velocity": 108,
      "chip": "ym2612"
    },
    {
      "channel": 2,
      "note": 85,
      "start": 31.6228,
      "duration": 0.1859,
      "velocity": 108,
      "chip": "ym2612"
    },
    {
      "channel": 4,
      "note": 57,
      "start": 31.6231,
      "duration": 0.1861,
      "velocity": 100,
      "chip": "ym2612"
    },
    {
      "channel": 0,
      "note": 88,
      "start": 31.8085,
      "duration": 0.0212,
      "velocity": 108,
      "chip": "ym2612"
    },
    {
      "channel": 2,
      "note": 85,
      "start": 31.809,
      "duration": 0.0212,
      "velocity": 108,
      "chip": "ym2612"
    },
    {
      "channel": 4,
      "note": 57,
      "start": 31.8094,
      "duration": 0.0214,
      "velocity": 100,
      "chip": "ym2612"
    },
    {
      "channel": 0,
      "note": 88,
      "start": 31.8301,
      "duration": 0.02,
      "velocity": 108,
      "chip": "ym2612"
    },
    {
      "channel": 2,
      "note": 85,
      "start": 31.8306,
      "duration": 0.02,
      "velocity": 108,
      "chip": "ym2612"
    },
    {
      "channel": 4,
      "note": 57,
      "start": 31.8309,
      "duration": 0.0204,
      "velocity": 100,
      "chip": "ym2612"
    },
    {
      "channel": 0,
      "note": 88,
      "start": 31.8504,
      "duration": 0.1198,
      "velocity": 108,
      "chip": "ym2612"
    },
    {
      "channel": 2,
      "note": 85,
      "start": 31.8509,
      "duration": 0.1197,
      "velocity": 108,
      "chip": "ym2612"
    },
    {
      "channel": 3,
      "note": 78,
      "start": 31.8511,
      "duration": 0.5914,
      "velocity": 98,
      "chip": "ym2612"
    },
    {
      "channel": 4,
      "note": 57,
      "start": 31.8514,
      "duration": 0.1195,
      "velocity": 100,
      "chip": "ym2612"
    },
    {
      "channel": 0,
      "note": 90,
      "start": 31.9702,
      "duration": 0.1861,
      "velocity": 108,
      "chip": "ym2612"
    },
    {
      "channel": 1,
      "note": 83,
      "start": 31.9705,
      "duration": 0.7659,
      "velocity": 98,
      "chip": "ym2612"
    },
    {
      "channel": 2,
      "note": 87,
      "start": 31.9707,
      "duration": 0.1861,
      "velocity": 108,
      "chip": "ym2612"
    },
    {
      "channel": 4,
      "note": 57,
      "start": 31.9711,
      "duration": 0.1863,
      "velocity": 100,
      "chip": "ym2612"
    },
    {
      "channel": 0,
      "note": 90,
      "start": 32.1567,
      "duration": 0.0211,
      "velocity": 108,
      "chip": "ym2612"
    },
    {
      "channel": 2,
      "note": 87,
      "start": 32.1572,
      "duration": 0.0211,
      "velocity": 108,
      "chip": "ym2612"
    },
    {
      "channel": 4,
      "note": 59,
      "start": 32.1575,
      "duration": 0.0213,
      "velocity": 100,
      "chip": "ym2612"
    },
    {
      "channel": 0,
      "note": 90,
      "start": 32.1782,
      "duration": 0.1166,
      "velocity": 108,
      "chip": "ym2612"
    },
    {
      "channel": 2,
      "note": 87,
      "start": 32.1787,
      "duration": 0.1166,
      "velocity": 108,
      "chip": "ym2612"
    },
    {
      "channel": 4,
      "note": 59,
      "start": 32.179,
      "duration": 0.1168,
      "velocity": 100,
      "chip": "ym2612"
    },
    {
      "channel": 0,
      "note": 90,
      "start": 32.2951,
      "duration": 0.1249,
      "velocity": 108,
      "chip": "ym2612"
    },
    {
      "channel": 2,
      "note": 87,
      "start": 32.2956,
      "duration": 0.1249,
      "velocity": 108,
      "chip": "ym2612"
    },
    {
      "channel": 4,
      "note": 59,
      "start": 32.296,
      "duration": 0.1251,
      "velocity": 100,
      "chip": "ym2612"
    },
    {
      "channel": 0,
      "note": 90,
      "start": 32.4204,
      "duration": 0.0212,
      "velocity": 108,
      "chip": "ym2612"
    },
    {
      "channel": 2,
      "note": 87,
      "start": 32.4209,
      "duration": 0.0211,
      "velocity": 108,
      "chip": "ym2612"
    },
    {
      "channel": 4,
      "note": 59,
      "start": 32.4212,
      "duration": 0.0215,
      "velocity": 100,
      "chip": "ym2612"
    },
    {
      "channel": 0,
      "note": 88,
      "start": 32.4419,
      "duration": 0.1166,
      "velocity": 108,
      "chip": "ym2612"
    },
    {
      "channel": 2,
      "note": 85,
      "start": 32.4424,
      "duration": 0.1164,
      "velocity": 108,
      "chip": "ym2612"
    },
    {
      "channel": 3,
      "note": 76,
      "start": 32.4427,
      "duration": 0.2421,
      "velocity": 98,
      "chip": "ym2612"
    },
    {
      "channel": 4,
      "note": 59,
      "start": 32.4429,
      "duration": 0.1162,
      "velocity": 100,
      "chip": "ym2612"
    },
    {
      "channel": 0,
      "note": 90,
      "start": 32.5586,
      "duration": 0.1251,
      "velocity": 108,
      "chip": "ym2612"
    },
    {
      "channel": 2,
      "note": 87,
      "start": 32.559,
      "duration": 0.1253,
      "velocity": 108,
      "chip": "ym2612"
    },
    {
      "channel": 4,
      "note": 59,
      "start": 32.5593,
      "duration": 0.1257,
      "velocity": 100,
      "chip": "ym2612"
    },
    {
      "channel": 0,
      "note": 90,
      "start": 32.6841,
      "duration": 0.0214,
      "velocity": 108,
      "chip": "ym2612"
    },
    {
      "channel": 2,
      "note": 87,
      "start": 32.6846,
      "duration": 0.0214,
      "velocity": 108,
      "chip": "ym2612"
    },
    {
      "channel": 3,
      "note": 75,
      "start": 32.6849,
      "duration": 0.0523,
      "velocity": 98,
      "chip": "ym2612"
    },
    {
      "channel": 4,
      "note": 59,
      "start": 32.6851,
      "duration": 0.0214,
      "velocity": 100,
      "chip": "ym2612"
    },
    {
      "channel": 0,
      "note": 90,
      "start": 32.7059,
      "duration": 0.0301,
      "velocity": 108,
      "chip": "ym2612"
    },
    {
      "channel": 2,
      "note": 87,
      "start": 32.7063,
      "duration": 0.0304,
      "velocity": 108,
      "chip": "ym2612"
    },
    {
      "channel": 4,
      "note": 59,
      "start": 32.7067,
      "duration": 0.0307,
      "velocity": 100,
      "chip": "ym2612"
    },
    {
      "channel": 0,
      "note": 92,
      "start": 32.7363,
      "duration": 0.0214,
      "velocity": 108,
      "chip": "ym2612"
    },
    {
      "channel": 1,
      "note": 85,
      "start": 32.7366,
      "duration": 1.0135,
      "velocity": 98,
      "chip": "ym2612"
    },
    {
      "channel": 2,
      "note": 85,
      "start": 32.7371,
      "duration": 0.0212,
      "velocity": 108,
      "chip": "ym2612"
    },
    {
      "channel": 3,
      "note": 73,
      "start": 32.7373,
      "duration": 86.5175,
      "velocity": 98,
      "chip": "ym2612"
    },
    {
      "channel": 4,
      "note": 49,
      "start": 32.7377,
      "duration": 0.021,
      "velocity": 100,
      "chip": "ym2612"
    },
    {
      "channel": 0,
      "note": 92,
      "start": 32.758,
      "duration": 0.0205,
      "velocity": 108,
      "chip": "ym2612"
    },
    {
      "channel": 2,
      "note": 85,
      "start": 32.7586,
      "duration": 0.0204,
      "velocity": 108,
      "chip": "ym2612"
    },
    {
      "channel": 4,
      "note": 49,
      "start": 32.759,
      "duration": 0.0205,
      "velocity": 100,
      "chip": "ym2612"
    },
    {
      "channel": 0,
      "note": 92,
      "start": 32.7788,
      "duration": 0.0218,
      "velocity": 108,
      "chip": "ym2612"
    },
    {
      "channel": 2,
      "note": 85,
      "start": 32.7794,
      "duration": 0.0218,
      "velocity": 108,
      "chip": "ym2612"
    },
    {
      "channel": 4,
      "note": 49,
      "start": 32.7798,
      "duration": 0.0219,
      "velocity": 100,
      "chip": "ym2612"
    },
    {
      "channel": 0,
      "note": 92,
      "start": 32.801,
      "duration": 0.0543,
      "velocity": 108,
      "chip": "ym2612"
    },
    {
      "channel": 2,
      "note": 85,
      "start": 32.8015,
      "duration": 0.0543,
      "velocity": 108,
      "chip": "ym2612"
    },
    {
      "channel": 4,
      "note": 49,
      "start": 32.802,
      "duration": 0.0544,
      "velocity": 100,
      "chip": "ym2612"
    },
    {
      "channel": 0,
      "note": 92,
      "start": 32.8557,
      "duration": 0.1248,
      "velocity": 108,
      "chip": "ym2612"
    },
    {
      "channel": 2,
      "note": 85,
      "start": 32.8562,
      "duration": 0.1247,
      "velocity": 108,
      "chip": "ym2612"
    },
    {
      "channel": 4,
      "note": 49,
      "start": 32.8566,
      "duration": 0.0309,
      "velocity": 100,
      "chip": "ym2612"
    },
    {
      "channel": 0,
      "note": 92,
      "start": 32.9807,
      "duration": 0.064,
      "velocity": 108,
      "chip": "ym2612"
    },
    {
      "channel": 2,
      "note": 85,
      "start": 32.9813,
      "duration": 0.064,
      "velocity": 108,
      "chip": "ym2612"
    },
    {
      "channel": 4,
      "note": 49,
      "start": 32.9817,
      "duration": 0.0109,
      "velocity": 100,
      "chip": "ym2612"
    },
    {
      "channel": 0,
      "note": 92,
      "start": 33.0451,
      "duration": 0.1248,
      "velocity": 108,
      "chip": "ym2612"
    },
    {
      "channel": 2,
      "note": 85,
      "start": 33.0456,
      "duration": 0.1248,
      "velocity": 108,
      "chip": "ym2612"
    },
    {
      "channel": 4,
      "note": 49,
      "start": 33.0461,
      "duration": 0.0309,
      "velocity": 100,
      "chip": "ym2612"
    },
    {
      "channel": 0,
      "note": 92,
      "start": 33.1702,
      "duration": 0.0639,
      "velocity": 108,
      "chip": "ym2612"
    },
    {
      "channel": 2,
      "note": 85,
      "start": 33.1707,
      "duration": 0.0639,
      "velocity": 108,
      "chip": "ym2612"
    },
    {
      "channel": 4,
      "note": 49,
      "start": 33.1712,
      "duration": 0.0111,
      "velocity": 100,
      "chip": "ym2612"
    },
    {
      "channel": 0,
      "note": 92,
      "start": 33.2344,
      "duration": 0.1248,
      "velocity": 108,
      "chip": "ym2612"
    },
    {
      "channel": 2,
      "note": 85,
      "start": 33.2349,
      "duration": 0.1247,
      "velocity": 108,
      "chip": "ym2612"
    },
    {
      "channel": 4,
      "note": 49,
      "start": 33.2354,
      "duration": 0.1248,
      "velocity": 100,
      "chip": "ym2612"
    },
    {
      "channel": 0,
      "note": 92,
      "start": 33.3595,
      "duration": 0.0639,
      "velocity": 108,
      "chip": "ym2612"
    },
    {
      "channel": 2,
      "note": 85,
      "start": 33.36,
      "duration": 0.0639,
      "velocity": 108,
      "chip": "ym2612"
    },
    {
      "channel": 4,
      "note": 49,
      "start": 33.3605,
      "duration": 0.064,
      "velocity": 100,
      "chip": "ym2612"
    },
    {
      "channel": 0,
      "note": 92,
      "start": 33.4238,
      "duration": 0.1247,
      "velocity": 108,
      "chip": "ym2612"
    },
    {
      "channel": 2,
      "note": 85,
      "start": 33.4243,
      "duration": 0.1247,
      "velocity": 108,
      "chip": "ym2612"
    },
    {
      "channel": 4,
      "note": 49,
      "start": 33.4248,
      "duration": 0.1248,
      "velocity": 100,
      "chip": "ym2612"
    },
    {
      "channel": 0,
      "note": 92,
      "start": 33.5488,
      "duration": 0.0639,
      "velocity": 108,
      "chip": "ym2612"
    },
    {
      "channel": 2,
      "note": 85,
      "start": 33.5494,
      "duration": 0.0639,
      "velocity": 108,
      "chip": "ym2612"
    },
    {
      "channel": 4,
      "note": 49,
      "start": 33.5498,
      "duration": 0.064,
      "velocity": 100,
      "chip": "ym2612"
    },
    {
      "channel": 0,
      "note": 92,
      "start": 33.6131,
      "duration": 0.1247,
      "velocity": 108,
      "chip": "ym2612"
    },
    {
      "channel": 2,
      "note": 85,
      "start": 33.6136,
      "duration": 0.1247,
      "velocity": 108,
      "chip": "ym2612"
    },
    {
      "channel": 4,
      "note": 49,
      "start": 33.6141,
      "duration": 0.0309,
      "velocity": 100,
      "chip": "ym2612"
    },
    {
      "channel": 0,
      "note": 92,
      "start": 33.7382,
      "duration": 0.064,
      "velocity": 108,
      "chip": "ym2612"
    },
    {
      "channel": 2,
      "note": 85,
      "start": 33.7387,
      "duration": 0.0641,
      "velocity": 108,
      "chip": "ym2612"
    },
    {
      "channel": 4,
      "note": 49,
      "start": 33.7392,
      "duration": 0.0111,
      "velocity": 100,
      "chip": "ym2612"
    },
    {
      "channel": 0,
      "note": 92,
      "start": 33.8025,
      "duration": 0.1248,
      "velocity": 108,
      "chip": "ym2612"
    },
    {
      "channel": 2,
      "note": 85,
      "start": 33.8032,
      "duration": 0.1248,
      "velocity": 108,
      "chip": "ym2612"
    },
    {
      "channel": 4,
      "note": 49,
      "start": 33.8037,
      "duration": 0.0321,
      "velocity": 100,
      "chip": "ym2612"
    },
    {
      "channel": 1,
      "note": 73,
      "start": 33.8355,
      "duration": 0.0922,
      "velocity": 98,
      "chip": "ym2612"
    },
    {
      "channel": 0,
      "note": 92,
      "start": 33.9276,
      "duration": 0.0638,
      "velocity": 108,
      "chip": "ym2612"
    },
    {
      "channel": 1,
      "note": 80,
      "start": 33.9279,
      "duration": 0.0116,
      "velocity": 98,
      "chip": "ym2612"
    },
    {
      "channel": 2,
      "note": 85,
      "start": 33.9283,
      "duration": 0.0639,
      "velocity": 108,
      "chip": "ym2612"
    },
    {
      "channel": 4,
      "note": 49,
      "start": 33.9288,
      "duration": 0.011,
      "velocity": 100,
      "chip": "ym2612"
    },
    {
      "channel": 1,
      "note": 85,
      "start": 33.9397,
      "duration": 0.0522,
      "velocity": 98,
      "chip": "ym2612"
    },
    {
      "channel": 0,
      "note": 92,
      "start": 33.9917,
      "duration": 0.1249,
      "velocity": 108,
      "chip": "ym2612"
    },
    {
      "channel": 1,
      "note": 80,
      "start": 33.9921,
      "duration": 1.235,
      "velocity": 98,
      "chip": "ym2612"
    },
    {
      "channel": 2,
      "note": 80,
      "start": 33.9925,
      "duration": 0.1247,
      "velocity": 108,
      "chip": "ym2612"
    },
    {
      "channel": 4,
      "note": 49,
      "start": 33.993,
      "duration": 0.1247,
      "velocity": 100,
      "chip": "ym2612"
    },
    {
      "channel": 0,
      "note": 92,
      "start": 34.117,
      "duration": 0.0639,
      "velocity": 108,
      "chip": "ym2612"
    },
    {
      "channel": 2,
      "note": 80,
      "start": 34.1175,
      "duration": 0.0639,
      "velocity": 108,
      "chip": "ym2612"
    },
    {
      "channel": 4,
      "note": 49,
      "start": 34.118,
      "duration": 0.064,
      "velocity": 100,
      "chip": "ym2612"
    },
    {
      "channel": 0,
      "note": 92,
      "start": 34.1813,
      "duration": 0.1247,
      "velocity": 108,
      "chip": "ym2612"
    },
    {
      "channel": 2,
      "note": 80,
      "start": 34.1818,
      "duration": 0.1247,
      "velocity": 108,
      "chip": "ym2612"
    },
    {
      "channel": 4,
      "note": 49,
      "start": 34.1822,
      "duration": 0.1248,
      "velocity": 100,
      "chip": "ym2612"
    },
    {
      "channel": 0,
      "note": 92,
      "start": 34.3063,
      "duration": 0.064,
      "velocity": 108,
      "chip": "ym2612"
    },
    {
      "channel": 2,
      "note": 80,
      "start": 34.3068,
      "duration": 0.064,
      "velocity": 108,
      "chip": "ym2612"
    },
    {
      "channel": 4,
      "note": 49,
      "start": 34.3073,
      "duration": 0.064,
      "velocity": 100,
      "chip": "ym2612"
    },
    {
      "channel": 0,
      "note": 92,
      "start": 34.3707,
      "duration": 0.1248,
      "velocity": 108,
      "chip": "ym2612"
    },
    {
      "channel": 2,
      "note": 80,
      "start": 34.3712,
      "duration": 0.1248,
      "velocity": 108,
      "chip": "ym2612"
    },
    {
      "channel": 4,
      "note": 49,
      "start": 34.3717,
      "duration": 0.0309,
      "velocity": 100,
      "chip": "ym2612"
    },
    {
      "channel": 0,
      "note": 92,
      "start": 34.4958,
      "duration": 0.0639,
      "velocity": 108,
      "chip": "ym2612"
    },
    {
      "channel": 2,
      "note": 80,
      "start": 34.4963,
      "duration": 0.0639,
      "velocity": 108,
      "chip": "ym2612"
    },
    {
      "channel": 4,
      "note": 49,
      "start": 34.4968,
      "duration": 0.0109,
      "velocity": 100,
      "chip": "ym2612"
    },
    {
      "channel": 0,
      "note": 92,
      "start": 34.56,
      "duration": 0.1248,
      "velocity": 108,
      "chip": "ym2612"
    },
    {
      "channel": 2,
      "note": 80,
      "start": 34.5605,
      "duration": 0.1248,
      "velocity": 108,
      "chip": "ym2612"
    },
    {
      "channel": 4,
      "note": 49,
      "start": 34.561,
      "duration": 0.0309,
      "velocity": 100,
      "chip": "ym2612"
    },
    {
      "channel": 0,
      "note": 92,
      "start": 34.6852,
      "duration": 0.064,
      "velocity": 108,
      "chip": "ym2612"
    },
    {
      "channel": 2,
      "note": 80,
      "start": 34.6857,
      "duration": 0.064,
      "velocity": 108,
      "chip": "ym2612"
    },
    {
      "channel": 4,
      "note": 49,
      "start": 34.6861,
      "duration": 0.011,
      "velocity": 100,
      "chip": "ym2612"
    },
    {
      "channel": 0,
      "note": 92,
      "start": 34.7495,
      "duration": 0.1248,
      "velocity": 108,
      "chip": "ym2612"
    },
    {
      "channel": 2,
      "note": 80,
      "start": 34.75,
      "duration": 0.1248,
      "velocity": 108,
      "chip": "ym2612"
    },
    {
      "channel": 4,
      "note": 49,
      "start": 34.7505,
      "duration": 0.1248,
      "velocity": 100,
      "chip": "ym2612"
    },
    {
      "channel": 0,
      "note": 92,
      "start": 34.8746,
      "duration": 0.0639,
      "velocity": 108,
      "chip": "ym2612"
    },
    {
      "channel": 2,
      "note": 80,
      "start": 34.8751,
      "duration": 0.0639,
      "velocity": 108,
      "chip": "ym2612"
    },
    {
      "channel": 4,
      "note": 49,
      "start": 34.8756,
      "duration": 0.064,
      "velocity": 100,
      "chip": "ym2612"
    },
    {
      "channel": 0,
      "note": 92,
      "start": 34.9389,
      "duration": 0.1247,
      "velocity": 108,
      "chip": "ym2612"
    },
    {
      "channel": 2,
      "note": 80,
      "start": 34.9394,
      "duration": 0.1247,
      "velocity": 108,
      "chip": "ym2612"
    },
    {
      "channel": 4,
      "note": 49,
      "start": 34.9398,
      "duration": 0.1248,
      "velocity": 100,
      "chip": "ym2612"
    },
    {
      "channel": 0,
      "note": 92,
      "start": 35.0639,
      "duration": 0.064,
      "velocity": 108,
      "chip": "ym2612"
    },
    {
      "channel": 2,
      "note": 80,
      "start": 35.0644,
      "duration": 0.064,
      "velocity": 108,
      "chip": "ym2612"
    },
    {
      "channel": 4,
      "note": 49,
      "start": 35.0649,
      "duration": 0.064,
      "velocity": 100,
      "chip": "ym2612"
    },
    {
      "channel": 0,
      "note": 92,
      "start": 35.1283,
      "duration": 0.0213,
      "velocity": 108,
      "chip": "ym2612"
    },
    {
      "channel": 2,
      "note": 80,
      "start": 35.1288,
      "duration": 0.0213,
      "velocity": 108,
      "chip": "ym2612"
    },
    {
      "channel": 4,
      "note": 49,
      "start": 35.1293,
      "duration": 0.0108,
      "velocity": 100,
      "chip": "ym2612"
    },
    {
      "channel": 0,
      "note": 92,
      "start": 35.1499,
      "duration": 0.0554,
      "velocity": 108,
      "chip": "ym2612"
    },
    {
      "channel": 2,
      "note": 80,
      "start": 35.1504,
      "duration": 0.0555,
      "velocity": 108,
      "chip": "ym2612"
    },
    {
      "channel": 4,
      "note": 49,
      "start": 35.1509,
      "duration": 0.0104,
      "velocity": 100,
      "chip": "ym2612"
    },
    {
      "channel": 0,
      "note": 92,
      "start": 35.2057,
      "duration": 0.0213,
      "velocity": 108,
      "chip": "ym2612"
    },
    {
      "channel": 2,
      "note": 80,
      "start": 35.2062,
      "duration": 0.021,
      "velocity": 108,
      "chip": "ym2612"
    },
    {
      "channel": 4,
      "note": 49,
      "start": 35.2067,
      "duration": 0.0108,
      "velocity": 100,
      "chip": "ym2612"
    },
    {
      "channel": 4,
      "note": 49,
      "start": 35.2278,
      "duration": 0.0108,
      "velocity": 100,
      "chip": "ym2612"
    }
  ]
}